<?xml version="1.0" encoding="utf-8"?>
<!-- Generator: Adobe Illustrator 26.0.3, SVG Export Plug-In . SVG Version: 6.00 Build 0)  -->
<svg version="1.1" id="Слой_1" xmlns="http://www.w3.org/2000/svg" xmlns:xlink="http://www.w3.org/1999/xlink" x="0px" y="0px"
	 viewBox="0 0 195.6 280.6" style="enable-background:new 0 0 195.6 280.6;" xml:space="preserve">
<style type="text/css">
	.st0{clip-path:url(#SVGID_00000125567821275904404650000007227443105573051779_);fill:#D3AC82;}
	.st1{fill:#1A1A1A;}
	.st2{font-family:'Impact';}
	.st3{font-size:36px;}
	.st4{clip-path:url(#SVGID_00000125567821275904404650000007227443105573051779_);fill:#956B6B;}
	.st5{clip-path:url(#SVGID_00000125567821275904404650000007227443105573051779_);fill:#1A1A1A;}
	.st6{clip-path:url(#SVGID_00000125567821275904404650000007227443105573051779_);fill:#FFFFFF;}
	.st7{clip-path:url(#SVGID_00000125567821275904404650000007227443105573051779_);fill:#6B5052;}
	.st8{clip-path:url(#SVGID_00000125567821275904404650000007227443105573051779_);fill:#B69289;}
	.st9{clip-path:url(#SVGID_00000125567821275904404650000007227443105573051779_);fill:#AF1739;}
	.st10{clip-path:url(#SVGID_00000125567821275904404650000007227443105573051779_);fill:#EB5775;}
	.st11{clip-path:url(#SVGID_00000125567821275904404650000007227443105573051779_);fill:#BADBE9;}
	.st12{clip-path:url(#SVGID_00000125567821275904404650000007227443105573051779_);fill:#8BB0CC;}
	.st13{clip-path:url(#SVGID_00000125567821275904404650000007227443105573051779_);fill:#F293A2;}
	.st14{clip-path:url(#SVGID_00000125567821275904404650000007227443105573051779_);fill:#EBD3AE;}
	.st15{clip-path:url(#SVGID_00000125567821275904404650000007227443105573051779_);fill:#5DA240;}
	.st16{clip-path:url(#SVGID_00000125567821275904404650000007227443105573051779_);fill:#93C466;}
	.st17{clip-path:url(#SVGID_00000125567821275904404650000007227443105573051779_);fill:#D2B7A7;}
	.st18{clip-path:url(#SVGID_00000125567821275904404650000007227443105573051779_);enable-background:new    ;}
	.st19{fill:#FFFFFF;}
	.st20{font-size:20px;}
</style>
<g>
	<defs>
		<rect id="SVGID_1_" x="0.2" y="0.7" width="195.6" height="280.6"/>
	</defs>
	<clipPath id="SVGID_00000054255591103070956870000009609296027454184635_">
		<use xlink:href="#SVGID_1_"  style="overflow:visible;"/>
	</clipPath>
	
		<rect x="-8.1" y="-7.6" style="clip-path:url(#SVGID_00000054255591103070956870000009609296027454184635_);fill:#D3AC82;" width="209" height="297.6"/>
	<text transform="matrix(1 0 0 1 11.98 236.2)" class="st1 st2 st3">uwielbiamy</text>
	<text transform="matrix(1 0 0 1 26.52 270.2)" class="st1 st2 st3">ziemniaki</text>
	<path style="clip-path:url(#SVGID_00000054255591103070956870000009609296027454184635_);fill:#956B6B;" d="M103.7,166.5
		c1.6,12.1-0.2,30-5.2,30.6S87.2,181,85.6,168.9s3.4-15.3,7.1-15.8S102.1,154.3,103.7,166.5L103.7,166.5z"/>
	<path style="clip-path:url(#SVGID_00000054255591103070956870000009609296027454184635_);fill:#1A1A1A;" d="M92.3,150.6
		c-3,0.4-5.7,2.1-7.3,4.7c-2,3-2.8,7.5-2,14c0.9,6.7,2.7,13.3,5.4,19.6c1.1,2.7,2.5,5.2,4.2,7.5c1.6,2,3.5,3.7,6.2,3.4
		s4.2-2.6,5.2-4.9c1.1-2.7,1.8-5.4,2.1-8.3c0.9-6.7,1-13.6,0.1-20.3c-0.8-6.4-2.8-10.6-5.5-13C98.4,151.2,95.3,150.2,92.3,150.6
		L92.3,150.6z M93,155.6c1.6-0.2,3.1,0.3,4.2,1.4c1.5,1.3,3.1,4.2,3.9,9.9c0.8,6.3,0.7,12.6-0.1,18.9c-0.3,2.4-0.9,4.7-1.7,7
		c-0.3,0.7-0.6,1.3-1.1,1.8c-0.6-0.4-1.1-0.9-1.6-1.4c-1.4-2-2.6-4.1-3.5-6.3c-2.4-5.8-4.1-12-5-18.2c-0.8-5.7,0.1-8.9,1.2-10.5
		C90.1,156.7,91.4,155.8,93,155.6L93,155.6z"/>
	<path style="clip-path:url(#SVGID_00000054255591103070956870000009609296027454184635_);fill:#956B6B;" d="M150.2,167.7
		c0,12.2-4.1,29.7-9.1,29.7s-9.1-17.4-9.1-29.7s5.4-14.7,9.1-14.7S150.3,155.4,150.2,167.7L150.2,167.7z"/>
	<path style="clip-path:url(#SVGID_00000054255591103070956870000009609296027454184635_);fill:#1A1A1A;" d="M141.1,150.4
		c-3,0-5.9,1.3-7.9,3.7c-2.3,2.8-3.8,7.1-3.8,13.6c0.1,6.8,1,13.6,2.8,20.1c0.7,2.8,1.8,5.5,3.2,8c1.3,2.1,3,4.1,5.7,4.1
		s4.5-2,5.7-4.1c1.4-2.5,2.5-5.2,3.2-8c1.8-6.6,2.7-13.3,2.8-20.1c0-6.5-1.4-10.8-3.8-13.6C147.1,151.8,144.2,150.4,141.1,150.4z
		 M141.1,155.5c1.6,0,3,0.6,4,1.9c1.3,1.5,2.6,4.6,2.6,10.3c-0.1,6.3-0.9,12.6-2.6,18.7c-0.6,2.3-1.5,4.6-2.6,6.7
		c-0.3,0.6-0.8,1.2-1.4,1.6c-0.6-0.4-1-1-1.4-1.6c-1.1-2.1-2-4.4-2.6-6.7c-1.6-6.1-2.5-12.4-2.6-18.7c0-5.8,1.3-8.8,2.6-10.3
		C138,156.2,139.5,155.5,141.1,155.5L141.1,155.5z"/>
	<path style="clip-path:url(#SVGID_00000054255591103070956870000009609296027454184635_);fill:#956B6B;" d="M54.5,115.7
		c-12.1,1.6-30-0.2-30.6-5.2S40,99.2,52.1,97.6s15.3,3.4,15.8,7.1S66.7,114.1,54.5,115.7L54.5,115.7z"/>
	<path style="clip-path:url(#SVGID_00000054255591103070956870000009609296027454184635_);fill:#1A1A1A;" d="M70.4,104.4
		c-0.4-3-2.1-5.7-4.7-7.4c-3-2-7.5-2.8-14-2c-6.7,0.9-13.3,2.8-19.6,5.4c-2.7,1.1-5.2,2.5-7.5,4.2c-2,1.6-3.7,3.5-3.4,6.2
		s2.6,4.2,4.9,5.2c2.7,1.1,5.4,1.8,8.3,2.1c6.7,0.9,13.6,0.9,20.3,0.1c6.5-0.8,10.6-2.8,13-5.5C69.9,110.5,70.8,107.4,70.4,104.4
		L70.4,104.4z M65.4,105.1c0.3,1.5-0.2,3.1-1.3,4.2c-1.3,1.5-4.2,3.1-9.9,3.9c-6.3,0.8-12.6,0.7-18.9-0.1c-2.4-0.3-4.7-0.9-7-1.7
		c-0.7-0.3-1.3-0.6-1.8-1.2c0.4-0.6,0.9-1.1,1.4-1.6c2-1.4,4.1-2.6,6.3-3.5c5.8-2.4,12-4.1,18.2-5c5.7-0.8,8.9,0.1,10.5,1.2
		C64.4,102.2,65.3,103.6,65.4,105.1L65.4,105.1z"/>
	<path style="clip-path:url(#SVGID_00000054255591103070956870000009609296027454184635_);fill:#956B6B;" d="M188.9,98.1
		c9.7,7.5,21.1,21.3,18,25.3s-19.4-3.4-29.1-10.8s-8.4-13.2-6.1-16.2S179.1,90.7,188.9,98.1L188.9,98.1z"/>
	<path style="clip-path:url(#SVGID_00000054255591103070956870000009609296027454184635_);fill:#1A1A1A;" d="M169.6,94.9
		c-1.9,2.4-2.6,5.5-1.9,8.5c0.8,3.5,3.3,7.3,8.5,11.3c5.4,4.1,11.3,7.5,17.6,10.1c2.6,1.1,5.4,1.9,8.2,2.3c2.5,0.3,5.1,0.1,6.8-2
		s1.1-4.8,0.2-7.1c-1.1-2.6-2.6-5.1-4.4-7.3c-4.1-5.4-8.9-10.3-14.3-14.5c-5.2-4-9.5-5.5-13.1-5.3C174.3,91,171.5,92.4,169.6,94.9
		L169.6,94.9z M173.6,98c0.9-1.3,2.4-2,3.9-2.1c2-0.1,5.2,0.7,9.7,4.2c5,3.9,9.5,8.4,13.3,13.5c1.5,1.9,2.7,4,3.7,6.2
		c0.3,0.7,0.4,1.4,0.5,2.1c-0.7,0.2-1.4,0.2-2.1,0.1c-2.4-0.4-4.7-1.1-6.9-2c-5.9-2.4-11.4-5.6-16.4-9.4c-4.6-3.5-6.2-6.3-6.6-8.3
		C172.3,100.8,172.6,99.2,173.6,98L173.6,98z"/>
	<path style="clip-path:url(#SVGID_00000054255591103070956870000009609296027454184635_);fill:#1A1A1A;" d="M124.4,34.1
		c-1.5-0.2-3.1-0.4-4.7-0.3c-13.3,0-22,9.8-31.1,14.4c-4.4,2.2-9.1,3.2-14.1,4.7s-10.4,3.7-14.7,8.7s-5.7,10.4-6.4,15.5
		s-0.6,10-1.6,15c-1,4.8-3.4,9.7-5.5,15s-3.8,11.4-2.2,18c1.6,6.4,5.5,11.2,9.5,15.4s8.2,7.8,11.1,11.8s5.1,8.6,7.9,13.3
		s6.3,9.3,12.2,12.3c6.1,3.2,12.5,2.8,18.3,1.9s11.2-2.3,15.9-2.1c10.3,0.3,21.3,4.3,33.1-1.2c6-2.8,9.9-7.4,13-12.2
		s5.6-9.5,8.7-13.5s6.8-7.4,10.1-11.3c3.8-4.2,6.4-9.3,7.7-14.8c1.1-5.3,0.9-10.8-0.5-16c-1.2-4.7-3-9-4.3-14.1
		c-1.2-4.8-1.3-10-2-15.4s-2.1-11.3-6.3-16.4c-8.1-9.7-18.4-12.1-28.1-16.5C142.3,42.5,134.9,35.7,124.4,34.1L124.4,34.1z
		 M119.8,41.9c9.4,0,16.4,6.7,27.4,11.6c10.6,4.8,18.9,6.8,25.2,14.3c2.9,3.5,3.9,7.4,4.5,12.2s0.7,10.5,2.2,16.5
		c1.5,5.7,3.2,10.1,4.3,14.1c1.2,4,1.3,8.2,0.4,12.3c-1,4.7-3,7.8-5.9,11.2s-6.6,6.8-10.3,11.5s-6.3,9.9-9.1,14.1s-5.5,7.4-9.6,9.2
		c-8.6,3.9-17.6,0.8-29.5,0.4c-6.4-0.2-12.2,1.4-17.4,2.2s-9.4,0.9-13.2-1.1c-4.1-2.1-6.5-5.2-9-9.3s-4.7-9.1-8.4-13.9
		s-8.1-8.8-11.8-12.6s-6.4-7.4-7.5-11.7c-1-4.1,0-8.2,1.8-13s4.7-10.1,5.9-16.4c1.2-6,1.2-11.2,1.7-15.6s1.5-7.8,4.5-11.2
		s6.4-4.8,10.8-6.2s9.9-2.4,15.5-5.2C103.2,49.8,110.7,41.9,119.8,41.9L119.8,41.9z"/>
	<path style="clip-path:url(#SVGID_00000054255591103070956870000009609296027454184635_);fill:#FFFFFF;" d="M150.5,172.7
		c-10.2,4.7-20.2,1.2-31.3,0.8s-22.6,5.9-32.4,0.7s-12-15.5-18.7-24.4s-17.2-15-19.9-25.7s5.5-20.2,7.7-31.2S55.8,72.6,63,64.2
		s17.6-7.3,27.5-12.4s18-13.9,29.3-13.9s18.9,7.4,29.1,12s19.5,6.8,26.7,15.4s4.7,19.5,7.5,30.3s7,17.4,4.8,28.3s-10.1,15.6-17,24.4
		S160.7,168,150.5,172.7z"/>
	<path style="clip-path:url(#SVGID_00000054255591103070956870000009609296027454184635_);fill:#6B5052;" d="M150.5,172.7
		c-10.2,4.7-20.2,1.2-31.3,0.8s-22.6,5.9-32.4,0.7s-12-15.5-18.7-24.4s-17.2-15-19.9-25.7s5.5-20.2,7.7-31.2S55.8,72.6,63,64.2
		s17.6-7.3,27.5-12.4s18-13.9,29.3-13.9s18.9,7.4,29.1,12s19.5,6.8,26.7,15.4s4.7,19.5,7.5,30.3s7,17.4,4.8,28.3s-10.1,15.6-17,24.4
		S160.7,168,150.5,172.7z"/>
	<path style="clip-path:url(#SVGID_00000054255591103070956870000009609296027454184635_);fill:#956B6B;" d="M119.8,37.8
		c-11.2,0-19.3,8.9-29.3,13.9s-20.3,4-27.5,12.4s-4.9,17.7-7.1,28.7s-10.4,20.4-7.7,31.2s13.3,16.8,19.9,25.7
		c2.1,2.9,3.9,5.9,5.6,9.1c2.5,2.2,5.3,4.1,8.3,5.7c9.4,4.9,20.3-1,30.8-0.6s20.1,3.7,29.8-0.8s12.7-14.9,19.2-23.3
		s14-12.8,16.2-23.2s-1.9-16.6-4.5-26.9s-0.3-20.6-7.2-28.8c-1.2-1.6-2.3-3.4-3.3-5.1c-4.4-2.1-9.2-3.8-14.1-6
		C138.7,45.3,131,37.9,119.8,37.8L119.8,37.8z"/>
	<path style="clip-path:url(#SVGID_00000054255591103070956870000009609296027454184635_);fill:#B69289;" d="M116.4,49.5
		c-8.8,0-15.2,7-23.1,11s-16,3.2-21.7,9.8s-3.9,14-5.6,22.6s-8.2,16.1-6.1,24.6s10.8,13,15.7,20.3c3.7,5.4,5.2,8.7,10.9,11.7
		c7.4,3.9,16-0.8,24.3-0.5s15.8,2.9,23.5-0.6s10-11.8,15.2-18.4s11-10.1,12.8-18.3s-1.5-13.1-3.6-21.2s-0.8-15.8-5.6-22.7
		c-3.8-5.4-8.5-6.5-13.8-8.8C131.4,55.3,125.3,49.4,116.4,49.5L116.4,49.5z"/>
	<path style="clip-path:url(#SVGID_00000054255591103070956870000009609296027454184635_);fill:#1A1A1A;" d="M124,37.1
		c-1.4-0.2-2.8-0.3-4.2-0.3c-11.8,0-20,9.1-29.7,14c-4.8,2.5-9.8,3.5-14.6,4.9s-9.4,3.4-13.2,7.8s-5,9.1-5.7,13.9s-0.5,9.9-1.7,15.2
		s-3.6,10.4-5.7,15.5s-3.5,10.4-2,16.1c1.5,5.7,4.9,10,8.8,14s8.1,7.7,11.4,12.1s5.4,9.1,8.1,13.5s5.8,8.5,11,11.2
		s10.8,2.4,16.4,1.6s11.1-2.3,16.5-2.1c10.9,0.4,21.2,4,31.8-0.9c5.3-2.4,8.8-6.6,11.8-11.1s5.5-9.4,8.9-13.7s7-7.7,10.2-11.4
		c3.5-3.8,5.9-8.4,7-13.4c1-4.8,0.9-9.9-0.5-14.7c-1.1-4.5-2.9-8.8-4.3-14.1s-1.5-10.6-2.1-15.8s-1.9-10.3-5.6-14.9
		c-7.4-8.9-17-11.2-27-15.7C140.6,45,133.4,38.6,124,37.1z M119.8,38.8c10.8,0,18.3,7.2,28.6,11.9s19.3,6.8,26.3,15.1
		c3.4,4.1,4.6,8.7,5.2,13.8s0.7,10.6,2.1,16.1s3.2,9.8,4.3,14.1c1.3,4.5,1.4,9.2,0.5,13.7c-1,4.7-3.3,9-6.6,12.5
		c-3,3.6-6.7,7-10.2,11.4s-6.1,9.5-9,13.9s-6.1,8.1-10.9,10.3c-9.8,4.5-19.6,1.1-30.8,0.7c-5.8-0.2-11.4,1.3-16.9,2.2
		s-10.5,1.1-15.1-1.4s-7.6-6.2-10.2-10.4s-4.8-9.1-8.2-13.7s-7.8-8.3-11.5-12.3s-7-8-8.2-13.1s0-9.8,2-14.9s4.6-10.2,5.8-15.9
		s1.1-10.7,1.7-15.4s1.8-8.8,5.2-12.8s7.6-5.8,12.2-7.2s9.8-2.4,15-5C101.2,47.5,109.1,38.9,119.8,38.8L119.8,38.8z"/>
	<path style="clip-path:url(#SVGID_00000054255591103070956870000009609296027454184635_);fill:#1A1A1A;" d="M97.8,155.9
		c0,1.9-1.5,3.4-3.4,3.4c-1.9,0-3.4-1.6-3.4-3.4c0-1.9,1.6-3.4,3.4-3.4C96.3,152.5,97.8,154,97.8,155.9z"/>
	<path style="clip-path:url(#SVGID_00000054255591103070956870000009609296027454184635_);fill:#1A1A1A;" d="M170,108.2
		c0,1.1-1,2-2.1,1.9c-0.5,0-0.9-0.2-1.3-0.5c-0.4-0.4-0.6-0.9-0.6-1.4c0-1.1,0.9-2,2-2S170.1,107.1,170,108.2L170,108.2z"/>
	<path style="clip-path:url(#SVGID_00000054255591103070956870000009609296027454184635_);fill:#1A1A1A;" d="M116.6,61.5
		c0,1.1-0.9,2-2,2c-0.5,0-1-0.2-1.4-0.6c-0.4-0.4-0.6-0.9-0.6-1.4c0.2-1.1,1.3-1.8,2.4-1.6C115.8,60.1,116.4,60.7,116.6,61.5
		L116.6,61.5z"/>
	<path style="clip-path:url(#SVGID_00000054255591103070956870000009609296027454184635_);fill:#1A1A1A;" d="M92.5,61.1
		c0,1.1-0.8,2-1.9,2c0,0-0.1,0-0.1,0c-0.5,0-1-0.2-1.4-0.6c-0.8-0.7-0.9-2-0.1-2.8c0.7-0.8,2-0.9,2.8-0.1
		C92.2,60,92.5,60.6,92.5,61.1L92.5,61.1z"/>
	<path style="clip-path:url(#SVGID_00000054255591103070956870000009609296027454184635_);fill:#1A1A1A;" d="M133.3,62.3
		c0,1.9-1.6,3.4-3.5,3.4c-0.9,0-1.8-0.4-2.4-1c-1.3-1.3-1.3-3.5,0-4.9c0,0,0,0,0,0c1.3-1.3,3.5-1.3,4.9,0
		C132.9,60.5,133.3,61.4,133.3,62.3z"/>
	<path style="clip-path:url(#SVGID_00000054255591103070956870000009609296027454184635_);fill:#1A1A1A;" d="M89.4,145.1
		c0,3.1-3,4.9-6.1,5c-2.8,0-5-2.2-5.1-5c0-3.1,2.5-3.6,5.6-3.6S89.4,142,89.4,145.1z"/>
	<path style="clip-path:url(#SVGID_00000054255591103070956870000009609296027454184635_);fill:#1A1A1A;" d="M73.9,123.1
		c-0.2,3.6-3.1,6.4-6.7,6.5c-3.4,0-5.6-3.1-5.6-6.5s2.8-4.2,6.2-4.2S73.9,119.7,73.9,123.1z"/>
	<path style="clip-path:url(#SVGID_00000054255591103070956870000009609296027454184635_);fill:#1A1A1A;" d="M86.2,144.7
		c0,1.8-1.8,2.9-3.6,3c-1.7,0-3-1.3-3-3c0-1.8,1.5-2.1,3.3-2.1S86.3,142.9,86.2,144.7L86.2,144.7z"/>
	<path style="clip-path:url(#SVGID_00000054255591103070956870000009609296027454184635_);fill:#1A1A1A;" d="M157,153.1
		c-2.9,1.2-5.7-0.9-6.9-3.7c-1-2.6,0.1-5.5,2.6-6.6c2.8-1.2,4.3,0.9,5.4,3.8S159.8,151.9,157,153.1z"/>
	<path style="clip-path:url(#SVGID_00000054255591103070956870000009609296027454184635_);fill:#1A1A1A;" d="M154.3,150.5
		c-1.5,0.6-3-0.5-3.7-2c-0.5-1.4,0.1-2.9,1.4-3.5c1.5-0.6,2.3,0.5,2.9,2S155.8,149.9,154.3,150.5L154.3,150.5z"/>
	<path style="clip-path:url(#SVGID_00000054255591103070956870000009609296027454184635_);fill:#1A1A1A;" d="M159.9,97.2
		c-1.7-3.4-0.5-7.6,2.7-9.7c3.2-1.8,6.9-0.1,8.7,3s-0.3,5.4-3.5,7.2S161.7,100.3,159.9,97.2L159.9,97.2z"/>
	<path style="clip-path:url(#SVGID_00000054255591103070956870000009609296027454184635_);fill:#1A1A1A;" d="M136.6,164
		c0,3.7-3,6.7-6.7,6.7c-3.7,0-6.7-3-6.7-6.7s3-6.7,6.7-6.7S136.6,160.3,136.6,164L136.6,164z"/>
	<path style="clip-path:url(#SVGID_00000054255591103070956870000009609296027454184635_);fill:#956B6B;" d="M85.1,103.8
		c0,3.7-3,6.7-6.7,6.7s-6.7-3-6.7-6.7s3-6.7,6.7-6.7c0,0,0,0,0,0C82,97,85,100,85.1,103.8C85.1,103.7,85.1,103.8,85.1,103.8z"/>
	<path style="clip-path:url(#SVGID_00000054255591103070956870000009609296027454184635_);fill:#1A1A1A;" d="M81.3,81.4
		c-2.7-1.5-2.8-5-1.3-7.7c1.4-2.4,4.4-3.2,6.8-1.9c2.7,1.5,1.9,4,0.3,6.6S84,83,81.3,81.4L81.3,81.4z"/>
	<path style="clip-path:url(#SVGID_00000054255591103070956870000009609296027454184635_);fill:#1A1A1A;" d="M82.3,77.6
		c-1.4-0.8-1.5-2.7-0.7-4.1c0.7-1.3,2.4-1.7,3.7-1c1.4,0.8,1,2.1,0.2,3.5S83.7,78.4,82.3,77.6L82.3,77.6z"/>
	<path style="clip-path:url(#SVGID_00000054255591103070956870000009609296027454184635_);fill:#1A1A1A;" d="M85.4,98.4
		c-0.5-6.1,4-11.4,10.1-11.8c6.1-0.5,11.4,4,11.8,10.1c0,0.6,0,1.2,0,1.8h-4.1c-0.1-3.8-3.3-6.8-7.2-6.6c-3.6,0.1-6.5,3-6.6,6.6
		H85.4z"/>
	<path style="clip-path:url(#SVGID_00000054255591103070956870000009609296027454184635_);fill:#1A1A1A;" d="M128.7,98.4
		c0.4-6.1,5.7-10.6,11.8-10.2c5.4,0.4,9.8,4.7,10.2,10.2h-4.1c0-3.8-3.1-6.9-6.9-6.9s-6.9,3.1-6.9,6.9c0,0,0,0,0,0H128.7z"/>
	<path style="clip-path:url(#SVGID_00000054255591103070956870000009609296027454184635_);fill:#AF1739;" d="M106.9,107.2
		c-1.3,0-2.3,1-2.3,2.3c0,0,0,0,0,0v2.6c0.3,7.5,6.6,13.3,14,13c7.1-0.3,12.7-5.9,13-13v-2.6c0-1.3-1-2.3-2.3-2.3c0,0,0,0,0,0H106.9
		z"/>
	<path style="clip-path:url(#SVGID_00000054255591103070956870000009609296027454184635_);fill:#EB5775;" d="M118,116.4
		c-3.9,0-7.6,1.7-10.1,4.6c4.9,5.6,13.4,6.2,19.1,1.3c0.5-0.4,0.9-0.8,1.3-1.3C125.6,118.1,121.9,116.4,118,116.4z"/>
	<path style="clip-path:url(#SVGID_00000054255591103070956870000009609296027454184635_);fill:#FFFFFF;" d="M106.9,107.2
		c-1.3,0-2.3,1-2.3,2.3c0,0,0,0,0,0v2.3c8.5,4.1,18.5,4.1,27,0v-2.3c0-1.3-1-2.3-2.3-2.3c0,0,0,0,0,0L106.9,107.2z"/>
	<path style="clip-path:url(#SVGID_00000054255591103070956870000009609296027454184635_);fill:#BADBE9;" d="M106.9,107.2
		c-1.3,0-2.3,1-2.3,2.3c0,0,0,0,0,0v2.3c1.5,0.7,3.1,1.3,4.7,1.8c-0.9-0.6-1.1-1.5-1.1-2.8v-3.6H106.9z"/>
	<path style="clip-path:url(#SVGID_00000054255591103070956870000009609296027454184635_);fill:#BADBE9;" d="M124.3,107.2v3.6
		c0,1.8-0.5,3.4-2,3.8c3.2-0.4,6.3-1.4,9.3-2.8v-2.3c0-1.3-1-2.3-2.3-2.3c0,0,0,0,0,0H124.3z"/>
	<path style="clip-path:url(#SVGID_00000054255591103070956870000009609296027454184635_);fill:#8BB0CC;" d="M129.2,107.2
		c1.3,0,2.3,1,2.3,2.3c0,0,0,0,0,0v2.3c-1.5,0.7-3.1,1.3-4.7,1.8c0.9-0.6,1.1-1.5,1.1-2.8v-3.6H129.2z"/>
	<path style="clip-path:url(#SVGID_00000054255591103070956870000009609296027454184635_);fill:#1A1A1A;" d="M106.9,106.2
		c-1.8,0-3.3,1.5-3.3,3.3v2.6c0,8,6.5,14.5,14.5,14.5s14.5-6.5,14.5-14.5v-2.6c0-1.8-1.5-3.3-3.4-3.3H106.9z M106.9,108.2h22.4
		c0.7,0,1.3,0.6,1.3,1.3c0,0,0,0,0,0.1v2.6c0,6.9-5.6,12.5-12.5,12.5s-12.5-5.6-12.5-12.5v-2.6C105.5,108.8,106.1,108.2,106.9,108.2
		C106.8,108.2,106.8,108.2,106.9,108.2L106.9,108.2z"/>
	<path style="clip-path:url(#SVGID_00000054255591103070956870000009609296027454184635_);fill:#1A1A1A;" d="M104.5,111.3l-0.4,0.9
		c8.9,4.3,19.2,4.3,28,0l-0.4-0.9C123,115.5,113,115.5,104.5,111.3z"/>
	<path style="clip-path:url(#SVGID_00000054255591103070956870000009609296027454184635_);fill:#F293A2;" d="M116.5,120
		c0,0.5-0.3,0.9-0.7,1.1c-0.5,0.3-1,0.5-1.6,0.5c-1.2,0-2.2-0.7-2.2-1.6s1-1.6,2.2-1.6c0.6,0,1.1,0.2,1.6,0.5
		C116.3,119.1,116.5,119.5,116.5,120z"/>
	<path style="clip-path:url(#SVGID_00000054255591103070956870000009609296027454184635_);fill:#1A1A1A;" d="M118,9.9
		c-8.3,0-16.6,1.2-24.6,3.7l-1.8,0.6l-3.3,25.4L65.6,57l2.8,2.5c1,0.8,2.2,1.5,3.4,2.1c2.9,1.3,6,2.1,9.1,2.2
		c4.3,0.3,7.5-1.1,10.2-2.1s4.8-1.7,8.1-1.2s5.1,1.8,7.8,3.6c6.6,5,15.7,5,22.3,0c2.6-1.8,4.5-3.2,7.8-3.6s5.4,0.2,8.1,1.2
		s5.9,2.3,10.2,2.1c3.2-0.2,6.3-0.9,9.1-2.2c1.2-0.6,2.3-1.3,3.4-2.1l2.8-2.4l-22.7-17.4l-3.3-25.4l-1.8-0.6
		C134.7,11.1,126.4,9.9,118,9.9z M118,16c7.1,0,14.1,0.9,20.9,2.9l3.2,24l18,13.8c-1.7,0.6-3.4,0.9-5.2,1c-2.8,0.2-4.9-0.7-7.7-1.7
		c-3.5-1.5-7.3-2-11.1-1.6c-4.7,0.7-7.8,2.9-10.3,4.6s-4.2,2.7-7.8,2.7s-5.3-1.1-7.8-2.7s-5.6-3.9-10.2-4.6
		c-3.8-0.5-7.6,0.1-11.1,1.6c-2.9,1.1-4.9,1.9-7.7,1.7c-1.8-0.1-3.5-0.4-5.2-1l18-13.8l3.2-24C103.9,17,111,16,118,16z"/>
	<path style="clip-path:url(#SVGID_00000054255591103070956870000009609296027454184635_);fill:#EBD3AE;" d="M141.7,16.5
		c-15.4-4.8-31.9-4.8-47.3,0l-3.2,24.7L70.4,57.1c0,0,3.5,3.2,10.6,3.6s10.5-4.5,18.5-3.3s9.9,7.3,18.5,7.3s10.5-6.2,18.5-7.3
		s11.4,3.8,18.5,3.3s10.6-3.6,10.6-3.6L145,41.2L141.7,16.5z"/>
	<path style="clip-path:url(#SVGID_00000054255591103070956870000009609296027454184635_);fill:#D3AC82;" d="M128.2,13.6v27.6
		l9.3,16.1c7.3-0.6,10.7,3.9,17.6,3.5c7.1-0.4,10.6-3.6,10.6-3.6L145,41.2l-3.3-24.7C137.3,15.1,132.8,14.1,128.2,13.6z"/>
	<path style="clip-path:url(#SVGID_00000054255591103070956870000009609296027454184635_);fill:#FFFFFF;" d="M101.4,14.7
		c-2.4,0.5-4.7,1.1-7,1.9l-3.2,24.7L70.4,57.1c0,0,2.8,2.5,8.3,3.3l19.2-19.3L101.4,14.7z"/>
	<path style="clip-path:url(#SVGID_00000054255591103070956870000009609296027454184635_);fill:#1A1A1A;" d="M118,11.9
		c-8.1,0-16.2,1.2-24,3.6l-0.6,0.2l-3.2,24.9L68.8,57.1l0.9,0.8c0.9,0.7,1.9,1.3,2.9,1.8c2.6,1.2,5.5,1.9,8.4,2c3.8,0.2,6.6-1,9.3-2
		c2.8-1.3,6-1.8,9.1-1.4c3.7,0.5,6,2.2,8.6,3.9c2.6,1.7,5.5,3.4,10,3.4c3.6,0,7.1-1.2,10-3.4c2.6-1.7,4.9-3.4,8.6-3.9
		c3.1-0.4,6.2,0.1,9.1,1.4c2.7,1,5.6,2.2,9.4,2c2.9-0.1,5.7-0.8,8.4-2c1-0.5,2-1.1,2.9-1.8l0.9-0.8l-21.4-16.4l-3.3-24.9l-0.6-0.2
		C134.2,13.1,126.1,11.9,118,11.9L118,11.9z M118,13.9c7.7,0,15.4,1.1,22.7,3.3l3.3,24.5l20,15.4c-0.4,0.2-0.8,0.5-1.4,0.7
		c-2.4,1.1-5,1.7-7.6,1.9c-3.3,0.2-5.8-0.8-8.5-1.9c-3.2-1.4-6.6-1.9-10.1-1.5c-4.2,0.6-6.9,2.6-9.4,4.2s-4.9,3.1-9,3.1
		s-6.4-1.4-8.9-3.1s-5.2-3.6-9.4-4.2c-3.4-0.4-6.9,0.1-10.1,1.5c-2.8,1-5.2,2.1-8.5,1.9c-2.6-0.1-5.2-0.8-7.6-1.9
		c-0.5-0.2-0.9-0.5-1.4-0.7l20-15.4l3.2-24.5C102.7,15.1,110.3,14,118,13.9L118,13.9z"/>
	
		<rect x="92.1" y="32.8" style="clip-path:url(#SVGID_00000054255591103070956870000009609296027454184635_);fill:#1A1A1A;" width="51.8" height="1.5"/>
	
		<rect x="91.1" y="40.5" style="clip-path:url(#SVGID_00000054255591103070956870000009609296027454184635_);fill:#1A1A1A;" width="53.8" height="1.5"/>
	<path style="clip-path:url(#SVGID_00000054255591103070956870000009609296027454184635_);fill:#1A1A1A;" d="M14.1,142.7l-3.1,3.1
		l-5.3,5.3l10.6,10.6c0.6,0.6,0.4,0.2,0.5,0.8c0.2,1.2,0.2,2.5,0.2,3.7V194h12v-27.8c0-1.2,0-2.5,0.2-3.7c0.1-0.6-0.1-0.2,0.5-0.8
		l10.6-10.6l-8.5-8.5l-8.8,8.8L14.1,142.7z"/>
	<path style="clip-path:url(#SVGID_00000054255591103070956870000009609296027454184635_);fill:#1A1A1A;" d="M39.9,134.9
		c-0.5,0-0.9,0-1.3,0.1c-3.6,0.3-7,1.7-9.9,3.9c-2.8,2-4.8,5.1-5.5,8.5c-1.1,6.4,3.3,12.6,9.7,13.6c0.3,0,0.5,0.1,0.8,0.1
		c3.5,0.2,6.9-0.9,9.6-3.1c2.9-2.2,5.1-5.1,6.3-8.5c1.2-3.3,1.5-7.4-1.1-10.7C46.5,136.2,43.3,134.7,39.9,134.9z M40.4,143.8
		c0.4,0,0.8,0.1,1.2,0.3c0.2,0.7,0.1,1.5-0.2,2.2c-0.7,1.8-1.8,3.3-3.3,4.5c-0.9,0.9-2.2,1.3-3.4,1.3c-0.8,0-1.5-0.5-2-1.1
		c-0.5-0.6-0.7-1.4-0.6-2.2c0.3-1.2,1.1-2.3,2.1-3c1.5-1.1,3.3-1.9,5.2-2.1C39.7,143.8,40,143.8,40.4,143.8L40.4,143.8z"/>
	<path style="clip-path:url(#SVGID_00000054255591103070956870000009609296027454184635_);fill:#1A1A1A;" d="M11.1,139.1
		c-2.5-0.2-4.9,0.7-6.7,2.4c-2.6,2.6-2.8,6.1-2.1,8.9c0.6,2.9,2.1,5.5,4.2,7.5c2,2.1,4.7,3.4,7.6,3.6c5.5,0.2,10.2-4.1,10.4-9.6
		c0-0.3,0-0.5,0-0.8c-0.2-2.9-1.5-5.6-3.6-7.6c-2.1-2.1-4.7-3.5-7.5-4.2C12.6,139.2,11.9,139.1,11.1,139.1L11.1,139.1z M10.9,148
		c0.2,0,0.3,0,0.5,0.1c1.2,0.3,2.3,0.9,3.2,1.8c0.5,0.4,0.9,1,1,1.7c0,0.3-0.1,0.6-0.3,0.7c-0.2,0.2-0.5,0.4-0.7,0.3
		c-0.7-0.1-1.3-0.5-1.7-1c-0.9-0.9-1.5-2-1.8-3.2C11,148.3,10.9,148.2,10.9,148L10.9,148z"/>
	<path style="clip-path:url(#SVGID_00000054255591103070956870000009609296027454184635_);fill:#1A1A1A;" d="M22.9,165.1
		c-5.4,0-10.5,2.2-14.2,6.2c-2-0.8-4-1.2-6.1-1.2c-9.3,0-16.9,7.6-16.9,16.9s7.6,16.9,16.9,16.9h40.6c9.3,0,16.9-7.5,17-16.9
		s-7.5-16.9-16.9-17c-2.1,0-4.2,0.4-6.2,1.2C33.4,167.3,28.3,165.1,22.9,165.1L22.9,165.1z M22.9,174L22.9,174c3.8,0,7.2,2,9.1,5.2
		l2.5,4.3l4-2.9c1.4-1,3-1.6,4.7-1.6c4.4,0,8,3.6,8,8s-3.6,8-8,8H2.6c-4.4,0-8-3.6-8-8s3.6-8,8-8c1.7,0,3.4,0.5,4.7,1.6l4,2.9
		l2.5-4.3C15.7,176,19.1,174,22.9,174L22.9,174z"/>
	<path style="clip-path:url(#SVGID_00000054255591103070956870000009609296027454184635_);fill:#5DA240;" d="M31.7,149l-7.5,7.5
		c-1.2,1.2-2.1,2.7-2.5,4.4c-0.3,1.8-0.5,3.6-0.4,5.4v23.3h3.1v-23.3c-0.1-1.6,0-3.2,0.3-4.7c0.2-1.1,0.8-2.1,1.7-2.9l7.5-7.5
		L31.7,149z"/>
	<path style="clip-path:url(#SVGID_00000054255591103070956870000009609296027454184635_);fill:#5DA240;" d="M14.1,149l-2.2,2.2
		l7.5,7.5c0.8,0.8,1.4,1.8,1.6,2.9c0.3,1.6,0.4,3.1,0.3,4.7v23.3h3.1v-23.3c0.1-1.8-0.1-3.6-0.4-5.4c-0.4-1.7-1.3-3.2-2.5-4.4
		L14.1,149z"/>
	<path style="clip-path:url(#SVGID_00000054255591103070956870000009609296027454184635_);fill:#1A1A1A;" d="M14.1,148.1l-0.4,0.4
		l-2.6,2.6l7.9,7.9c0.8,0.7,1.3,1.6,1.5,2.6c0.3,1.5,0.4,3.1,0.3,4.6v23.9h4.4v-23.9c-0.1-1.5,0-3.1,0.3-4.6c0.2-1,0.7-1.9,1.5-2.6
		l7.9-7.9l-3.1-3.1l-7.9,7.9c-0.3,0.3-0.6,0.7-0.9,1c-0.3-0.4-0.6-0.7-0.9-1L14.1,148.1z M14.1,149.9l7,7c0.5,0.5,0.9,1,1.3,1.6
		l0.5,0.9l0.5-0.9c0.4-0.6,0.8-1.1,1.3-1.6l7-7l1.3,1.3l-7,7c-0.9,0.9-1.6,2-1.8,3.2c-0.3,1.6-0.4,3.2-0.3,4.9v22.6H22v-22.6
		c0.1-1.6,0-3.3-0.3-4.9c-0.3-1.2-0.9-2.3-1.8-3.2l-7-7L14.1,149.9z"/>
	<path style="clip-path:url(#SVGID_00000054255591103070956870000009609296027454184635_);fill:#5DA240;" d="M31.4,142.4
		c-4.4,3.4-4.9,8.1-2.4,11.4s7.2,4.1,11.6,0.6s7-9.6,4.4-13S35.9,138.9,31.4,142.4L31.4,142.4z"/>
	<path style="clip-path:url(#SVGID_00000054255591103070956870000009609296027454184635_);fill:#93C466;" d="M45.1,141.5
		c2.5,3.3,0,9.6-4.4,13s-9.1,2.7-11.6-0.6L45.1,141.5z"/>
	<path style="clip-path:url(#SVGID_00000054255591103070956870000009609296027454184635_);fill:#1A1A1A;" d="M39.9,138.7
		c-0.3,0-0.7,0-1,0c-2.9,0.3-5.6,1.4-7.9,3.2c-2.1,1.5-3.5,3.6-4,6.1c-0.7,4.4,2.2,8.5,6.6,9.2c0.2,0,0.3,0,0.5,0.1
		c2.5,0.1,5-0.7,7-2.3c2.3-1.8,4-4.1,5-6.8c0.9-2.5,1-5.2-0.5-7.1C44.2,139.4,42.1,138.6,39.9,138.7L39.9,138.7z M40.8,140
		c1.5,0,2.9,0.7,3.8,1.8c1.1,1.4,1.1,3.6,0.3,5.9c-0.9,2.5-2.5,4.6-4.6,6.2c-1.7,1.4-3.9,2.2-6.1,2.1c-3.7-0.4-6.4-3.7-6-7.4
		c0-0.1,0-0.2,0-0.4c0.5-2.2,1.7-4.1,3.6-5.3c2.1-1.6,4.6-2.6,7.2-2.9C39.6,139.9,40.2,139.9,40.8,140L40.8,140z"/>
	<path style="clip-path:url(#SVGID_00000054255591103070956870000009609296027454184635_);fill:#5DA240;" d="M9.6,154.8
		c3,3,6.5,2.9,8.7,0.7s2.3-5.8-0.7-8.8s-7.9-4.3-10.1-2S6.7,151.8,9.6,154.8L9.6,154.8z"/>
	<path style="clip-path:url(#SVGID_00000054255591103070956870000009609296027454184635_);fill:#93C466;" d="M7.6,144.7
		c2.2-2.2,7.2-0.9,10.1,2s2.9,6.5,0.7,8.8L7.6,144.7z"/>
	<path style="clip-path:url(#SVGID_00000054255591103070956870000009609296027454184635_);fill:#1A1A1A;" d="M11,142.9
		c-1.4-0.1-2.8,0.3-3.9,1.3c-1.3,1.5-1.7,3.5-1.1,5.4c0.5,2.1,1.6,4.1,3.1,5.7c1.3,1.4,3.1,2.3,5.1,2.5c3.4,0.1,6.3-2.6,6.4-6
		c0-0.1,0-0.3,0-0.4c-0.2-1.9-1-3.7-2.5-5.1c-1.6-1.6-3.5-2.6-5.7-3.1C12,143,11.5,142.9,11,142.9L11,142.9z M11,144.2
		c0.4,0,0.9,0.1,1.3,0.2c1.9,0.5,3.6,1.4,5,2.8c1.2,1.1,2,2.6,2.1,4.2c0.1,2.7-2.1,5-4.8,5.1c-0.1,0-0.2,0-0.3,0
		c-1.6-0.1-3.1-0.9-4.2-2.1c-1.4-1.4-2.3-3.1-2.8-5c-0.4-1.8-0.2-3.3,0.8-4.2C8.8,144.4,9.9,144.1,11,144.2L11,144.2z"/>
	
		<rect x="2.6" y="187" style="clip-path:url(#SVGID_00000054255591103070956870000009609296027454184635_);fill:#6B5052;" width="40.6" height="12.4"/>
	<path style="clip-path:url(#SVGID_00000054255591103070956870000009609296027454184635_);fill:#6B5052;" d="M37.8,184.5
		c0,8.3-6.7,15-15,15c-8.3,0-15-6.7-15-15c0-8.3,6.7-15,15-15c4,0,7.8,1.6,10.6,4.4C36.3,176.7,37.8,180.6,37.8,184.5z"/>
	<path style="clip-path:url(#SVGID_00000054255591103070956870000009609296027454184635_);fill:#6B5052;" d="M15,187
		c0,6.9-5.6,12.5-12.4,12.5S-9.9,193.9-9.9,187c0-6.9,5.6-12.5,12.4-12.5c3.3,0,6.5,1.3,8.8,3.6C13.7,180.5,15,183.7,15,187z"/>
	<path style="clip-path:url(#SVGID_00000054255591103070956870000009609296027454184635_);fill:#6B5052;" d="M55.7,187
		c0,6.9-5.6,12.5-12.4,12.5s-12.5-5.6-12.5-12.4c0-6.9,5.6-12.5,12.4-12.5c3.3,0,6.5,1.3,8.8,3.6C54.3,180.5,55.7,183.7,55.7,187z"
		/>
	<path style="clip-path:url(#SVGID_00000054255591103070956870000009609296027454184635_);fill:#956B6B;" d="M2.6,174.6
		c-5.9,0-11,4.2-12.2,10c0.8,5.4,5.5,9.4,10.9,9.4c2.9,0,5.7-1.2,7.8-3.2c2.1-2.1,3.2-4.8,3.2-7.8c0-2.3-0.7-4.6-2.1-6.5
		c-0.1,0.2-0.2,0.3-0.3,0.5C7.8,175.5,5.2,174.6,2.6,174.6L2.6,174.6z M43.2,174.6c-2.7,0-5.2,0.8-7.4,2.4c-0.1-0.2-0.2-0.3-0.3-0.5
		c-3.6,5-2.5,11.9,2.5,15.4c5,3.6,11.9,2.5,15.4-2.5c1-1.4,1.7-3.1,2-4.9C54.2,178.7,49.1,174.6,43.2,174.6L43.2,174.6z"/>
	<path style="clip-path:url(#SVGID_00000054255591103070956870000009609296027454184635_);fill:#956B6B;" d="M22.9,169.6
		c-5.3,0-10.2,2.9-12.9,7.4c-0.1-0.1-0.3-0.2-0.4-0.3c-2.7,7.4,1.1,15.5,8.5,18.2s15.5-1.1,18.2-8.5c1.1-3.1,1.1-6.6,0-9.7l-0.4,0.3
		C33.2,172.4,28.3,169.6,22.9,169.6L22.9,169.6z"/>
	<path style="clip-path:url(#SVGID_00000054255591103070956870000009609296027454184635_);fill:#B69289;" d="M13.5,172.9
		c-1.4,1.2-2.6,2.5-3.5,4.1c-5.5-4.1-13.3-2.9-17.4,2.7c-0.4,0.5-0.7,1.1-1,1.6c4.4,5.3,12.3,6,17.5,1.6c2.8-2.4,4.5-5.9,4.5-9.6
		L13.5,172.9L13.5,172.9z M32.3,172.9v0.4c0,6.9,5.6,12.5,12.4,12.5c3.7,0,7.2-1.6,9.6-4.5c-3.2-6.1-10.7-8.5-16.8-5.3
		c-0.6,0.3-1.1,0.7-1.7,1C34.9,175.4,33.7,174,32.3,172.9L32.3,172.9z"/>
	<path style="clip-path:url(#SVGID_00000054255591103070956870000009609296027454184635_);fill:#B69289;" d="M22.9,169.6
		c-1.3,0-2.6,0.2-3.9,0.5c-1.6,0.4-3,1.1-4.4,2c-0.5,0.4-1.1,0.7-1.5,1.2c-0.2,0.2-0.5,0.4-0.7,0.7s-0.4,0.5-0.7,0.7
		c-0.6,0.7-1.2,1.5-1.7,2.4c-0.3-0.2-0.5-0.4-0.8-0.6l0,0c-0.3-0.2-0.6-0.3-0.9-0.5c1.9,8.1,10,13.1,18,11.2
		c5.5-1.3,9.9-5.6,11.2-11.2c-0.3,0.1-0.6,0.3-0.8,0.5s-0.5,0.4-0.8,0.6c-0.5-0.9-1.1-1.7-1.7-2.4c-0.2-0.2-0.4-0.5-0.7-0.7
		c-0.2-0.2-0.5-0.4-0.7-0.7s-0.5-0.4-0.8-0.6s-0.5-0.4-0.8-0.6s-0.5-0.4-0.8-0.5s-0.6-0.3-0.9-0.4s-0.6-0.3-0.9-0.4
		s-0.6-0.2-0.9-0.3s-0.6-0.2-0.9-0.3l-1-0.2c-0.3-0.1-0.6-0.1-1-0.2s-0.6-0.1-1-0.1S23.2,169.6,22.9,169.6L22.9,169.6z"/>
	<path style="clip-path:url(#SVGID_00000054255591103070956870000009609296027454184635_);fill:#D2B7A7;" d="M22.9,169.6
		c-3.8,0-7.5,1.5-10.3,4.1c1.6,3.3,5.6,4.8,8.9,3.2c2.3-1.1,3.8-3.5,3.8-6c0-0.4,0-0.7-0.1-1.1C24.5,169.6,23.7,169.6,22.9,169.6z"
		/>
	<path style="clip-path:url(#SVGID_00000054255591103070956870000009609296027454184635_);fill:#D2B7A7;" d="M2.6,174.6
		c-1.9,0-3.7,0.4-5.4,1.2c0.5,2.1,2.6,3.5,4.7,3c1.8-0.4,3.1-2,3.1-3.8v-0.2C4.2,174.7,3.4,174.6,2.6,174.6L2.6,174.6z M43.2,174.6
		c-1.9,0-3.8,0.4-5.5,1.3c0.5,2.1,2.6,3.4,4.8,2.9c1.7-0.4,3-2,3-3.8c0-0.1,0-0.1,0-0.2C44.7,174.7,44,174.6,43.2,174.6L43.2,174.6z
		"/>
	<path style="clip-path:url(#SVGID_00000054255591103070956870000009609296027454184635_);fill:#1A1A1A;" d="M22.9,168.9
		c-5.3,0-10.2,2.7-13.1,7.2c-2.1-1.4-4.6-2.2-7.2-2.2c-7.2,0-13.1,5.9-13.1,13.1c0,7.2,5.9,13.1,13.1,13.1c0,0,0,0,0,0h40.6
		c7.2,0,13.1-5.8,13.1-13.1c0-7.2-5.8-13.1-13.1-13.1c-2.6,0-5.1,0.8-7.2,2.2C33.1,171.6,28.2,168.9,22.9,168.9z M22.9,170.2
		c5.1,0,9.8,2.7,12.4,7.1l0.4,0.6l0.6-0.4c5.3-3.9,12.7-2.8,16.5,2.5c3.9,5.3,2.8,12.7-2.5,16.5c-2,1.5-4.5,2.3-7,2.3H2.6
		c-6.5,0-11.8-5.3-11.8-11.8s5.3-11.8,11.8-11.8c2.5,0,5,0.8,7,2.3l0.6,0.4l0.4-0.6C13.1,172.9,17.8,170.2,22.9,170.2L22.9,170.2z"
		/>
	<path style="clip-path:url(#SVGID_00000054255591103070956870000009609296027454184635_);fill:#956B6B;" d="M45,0H16H0.1v16
		c0,7,0,14,0,21c10.2,12.4,28.6,14.2,41,4S55.2,12.4,45,0z"/>
	<g style="clip-path:url(#SVGID_00000054255591103070956870000009609296027454184635_);enable-background:new    ;">
		<text transform="matrix(1 0 0 1 15.64 31.75)" class="st19 st2 st20">17</text>
	</g>
</g>
</svg>
