<?xml version="1.0" encoding="utf-8"?>
<!-- Generator: Adobe Illustrator 26.0.1, SVG Export Plug-In . SVG Version: 6.00 Build 0)  -->
<svg version="1.1" id="Слой_1" xmlns="http://www.w3.org/2000/svg" xmlns:xlink="http://www.w3.org/1999/xlink" x="0px" y="0px"
	 viewBox="0 0 195.6 280.6" style="enable-background:new 0 0 195.6 280.6;" xml:space="preserve">
<style type="text/css">
	.st0{clip-path:url(#SVGID_00000007423798971709538290000003801945167825893020_);}
	.st1{clip-path:url(#SVGID_00000161619105859700683890000017641460236077781944_);}
	.st2{fill:#EB5A53;}
	.st3{fill:#1A1A1A;}
	.st4{fill:#C21633;}
	.st5{fill:#8E1632;}
	.st6{fill:#E62736;}
	.st7{fill:#FFFFFF;}
	.st8{fill:#595959;}
	.st9{fill:#797979;}
	.st10{fill:#3E3E3E;}
	.st11{clip-path:url(#SVGID_00000097499884601472804680000009212665640072010380_);fill:#EB5A53;}
	.st12{enable-background:new    ;}
</style>
<g>
	<g>
		<defs>
			<rect id="SVGID_1_" width="195.6" height="280.6"/>
		</defs>
		<clipPath id="SVGID_00000116924626947262787000000002535753597109352864_">
			<use xlink:href="#SVGID_1_"  style="overflow:visible;"/>
		</clipPath>
		<g style="clip-path:url(#SVGID_00000116924626947262787000000002535753597109352864_);">
			<g>
				<defs>
					<rect id="SVGID_00000034072823894810577930000006667206025586390434_" x="-5.5" y="-3.4" width="206.7" height="287.5"/>
				</defs>
				<clipPath id="SVGID_00000106135896638178951700000014339061923640376979_">
					<use xlink:href="#SVGID_00000034072823894810577930000006667206025586390434_"  style="overflow:visible;"/>
				</clipPath>
				<g style="clip-path:url(#SVGID_00000106135896638178951700000014339061923640376979_);">
					<path class="st2" d="M89,162.7c-7,9.1-19.9,19.7-23.7,16.8s3.2-18.1,10.1-27.2s12.4-7.8,15.2-5.7S96,153.5,89,162.7L89,162.7z"
						/>
					<path class="st3" d="M92.1,144.6c-2.3-1.8-5.2-2.4-8-1.8c-3.3,0.7-6.8,3.1-10.5,7.9c-3.8,5.1-7,10.6-9.4,16.5
						c-1,2.5-1.7,5-2.1,7.7c-0.3,2.3-0.1,4.8,1.9,6.4c2,1.6,4.4,1.1,6.6,0.2c2.5-1.1,4.8-2.4,6.9-4.1c5.1-3.9,9.6-8.3,13.5-13.4
						c3.7-4.8,5.1-8.9,5-12.2C95.8,149,94.4,146.4,92.1,144.6L92.1,144.6z M89.2,148.4c1.2,0.8,1.9,2.2,1.9,3.7
						c0.1,1.9-0.7,4.8-4,9.1c-3.7,4.7-7.9,8.8-12.6,12.4c-1.8,1.4-3.7,2.6-5.8,3.5c-0.6,0.3-1.3,0.4-1.9,0.4c-0.2-0.7-0.2-1.3-0.1-2
						c0.4-2.2,1-4.4,1.9-6.5c2.3-5.5,5.2-10.6,8.8-15.4c3.3-4.3,6-5.8,7.8-6.2C86.5,147.2,88,147.5,89.2,148.4L89.2,148.4z"/>
					<path class="st2" d="M132.7,160.4c-4.4,10.6-14.2,24.2-18.5,22.4s-1.7-18.3,2.7-28.9s9.9-10.8,13.2-9.4
						C133.4,145.9,137.1,149.8,132.7,160.4L132.7,160.4z"/>
					<path class="st3" d="M131,142.2c-2.6-1.1-5.6-1-8.2,0.3c-3,1.6-5.8,4.8-8.1,10.4c-2.4,5.9-4,12.1-4.8,18.4
						c-0.4,2.7-0.4,5.3-0.1,8c0.3,2.3,1.1,4.7,3.5,5.6s4.6-0.1,6.4-1.5c2.1-1.7,4-3.6,5.6-5.7c3.9-5,7.1-10.5,9.6-16.4
						c2.3-5.6,2.6-9.9,1.6-13.1C135.7,145.5,133.6,143.3,131,142.2L131,142.2z M129.2,146.6c1.4,0.5,2.4,1.6,2.8,3
						c0.6,1.8,0.6,4.9-1.5,9.8c-2.3,5.5-5.3,10.6-8.9,15.3c-1.4,1.8-2.9,3.4-4.7,4.9c-0.5,0.4-1.1,0.7-1.8,0.9
						c-0.3-0.6-0.5-1.2-0.6-1.9c-0.2-2.2-0.2-4.5,0.1-6.7c0.8-5.9,2.3-11.6,4.5-17.1c2.1-5,4.2-7.1,5.9-8
						C126.3,146,127.8,145.9,129.2,146.6L129.2,146.6z"/>
					<path class="st2" d="M161.7,92c11.4-1.5,28,0.2,28.6,4.8s-15,10.6-26.4,12.2s-14.3-3.2-14.8-6.7S150.4,93.6,161.7,92L161.7,92z
						"/>
					<path class="st3" d="M146.8,102.6c0.4,2.8,2,5.3,4.4,6.9c2.9,1.8,7.1,2.6,13.1,1.8c6.3-0.9,12.5-2.6,18.3-5
						c2.5-1,4.8-2.3,7-3.9c1.8-1.5,3.5-3.3,3.1-5.8s-2.4-3.9-4.6-4.8c-2.5-1-5.1-1.7-7.8-2c-6.3-0.9-12.7-0.9-19-0.1
						c-6,0.8-9.9,2.6-12.2,5.2C147.4,96.9,146.5,99.8,146.8,102.6L146.8,102.6z M151.6,102c-0.3-1.5,0.2-2.9,1.2-4
						c1.3-1.4,3.9-2.9,9.2-3.6c5.9-0.7,11.8-0.7,17.7,0.1c2.2,0.3,4.4,0.8,6.5,1.6c0.6,0.2,1.2,0.6,1.7,1.1
						c-0.3,0.6-0.8,1.1-1.3,1.5c-1.8,1.3-3.8,2.4-5.9,3.3c-5.5,2.3-11.2,3.8-17.1,4.7c-5.3,0.7-8.3-0.1-9.9-1.1
						C152.6,104.7,151.7,103.5,151.6,102L151.6,102z"/>
					<path class="st3" d="M65.2,73.1c-6.1,0.1-12,1.7-17.3,4.7c-13.7,7.6-22.7,22.2-30.5,34.4c-6.1,9.6-12.3,15.8-17.3,17.6
						c-2.2,0.9-4.8,0.9-7,0c-2.4-1-5.2-3.1-8.2-6.8l-3.3-4l-2.9,4.3c-5.4,8.1-6.1,17.9-2.4,25.6s12.5,12.7,23.6,10.9
						c2-0.4,4.1-0.6,6.1-0.5c0.1,0,0-0.1,0.2,0.3c0.4,1.1,0.7,2.3,0.7,3.5c0.1,3,1.4,5.9,3.7,7.9c2.4,1.9,5.4,2.6,8.4,2
						c5.9-1,12-5.4,18.3-13.2c0.9-1.3,2.1-2.3,3.5-3.1c0,0-0.1-0.1,0.3,0.3c0.8,0.8,1.4,1.8,1.9,2.8c2,4,4.8,6.9,8.4,8.1
						c3.6,1.1,7.4,0.8,10.8-0.9c7-3,13.6-9.6,19.8-18c12.5-16.8,23-40.5,22.2-58.8l-0.1-1.8l-1.5-1.1C88.4,76.9,75.9,72.8,65.2,73.1
						z M65.6,80.4c8.4-0.2,18.4,3,31.1,11.9c-0.2,15-9.6,37.2-20.7,52.1c-5.8,7.8-12.1,13.6-16.7,15.6c-2.3,1-4,1.1-5.3,0.6
						s-2.7-1.5-4-4.2c-0.9-1.9-2.1-3.6-3.6-5.1c-1.5-1.4-3.4-2.2-5.5-2.3c-4,0-6.8,2.7-9.4,5.9c-5.6,6.9-10.9,10-13.6,10.5
						c-1.4,0.2-1.9,0-2.2-0.3c-0.7-0.7-1-1.7-1-2.7c-0.1-2.1-0.6-4.2-1.4-6.2c-0.9-1.8-2.4-3.3-4.2-4.1c-3.6-1.4-6.6-0.5-10.3,0.1
						c-8.4,1.4-13.1-1.8-15.5-6.8c-1.9-4.3-2-9.1-0.4-13.5c2.2,2.1,4.7,3.7,7.5,4.9c4,1.6,8.4,1.6,12.4,0.1
						c7.9-2.9,14.6-10.4,21.1-20.7c7.8-12.2,16.5-25.6,27.7-31.8C55.9,82,60.7,80.7,65.6,80.4L65.6,80.4z"/>
					<path class="st4" d="M66.1,76.7c-21.8,0.1-34.6,20.5-45.5,37.5C7.9,134.1-5,141.6-18.1,125.3c-9.4,14-2.1,33.9,17.4,30.7
						c7.3-1.2,10.8-1.8,11.5,6.8c0.8,9.7,11.7,9.4,23.6-5.4c4.7-5.8,8.5-6.4,12.1,0.7c13.3,26.8,55.4-34.6,54-67.8
						C86.9,80.6,75.7,76.7,66.1,76.7z"/>
					<path class="st5" d="M53.2,96.6c-10.4,18.6-20.8,53.7-44.4,60c1.1,1.1,1.8,3,2,6.2c0.8,9.7,11.7,9.4,23.6-5.4
						c4.7-5.8,8.5-6.4,12.1,0.7c13.3,26.8,55.4-34.6,54-67.8C100.5,90.3,69.5,70.9,53.2,96.6L53.2,96.6z"/>
					<path class="st6" d="M26.4,123.4c13.3-19.5,23.6-50,47.2-45.9c-2.5-0.5-5-0.7-7.5-0.7c-21.8,0.1-34.6,20.5-45.5,37.5
						C7.9,134.2-5,141.7-18.1,125.4C-21.2,143.9,1.6,159.7,26.4,123.4L26.4,123.4z"/>
					<path class="st3" d="M65.3,75.8c-5.6,0.1-11.2,1.7-16.1,4.4c-12.8,7.1-21.6,21.2-29.4,33.4c-6.3,9.9-12.6,16.6-18.7,18.8
						c-2.9,1.1-6.1,1.1-9-0.1c-3.1-1.2-6.2-3.7-9.4-7.7l-0.8-1l-0.7,1.1c-4.9,7.3-5.4,16.1-2.2,22.8s10.4,11.1,20.5,9.4
						c3.6-0.6,6.2-0.9,7.7-0.4c0.8,0.3,1.4,0.9,1.7,1.7c0.6,1.4,0.9,3,1,4.5c0,2.3,1,4.4,2.7,6c1.7,1.3,3.9,1.8,6.1,1.4
						c4.7-0.8,10.5-4.7,16.5-12.2c2.2-2.8,4.2-4.1,5.7-4.1c0.9,0,1.7,0.4,2.2,1c1.1,1.1,1.9,2.3,2.5,3.7c1.7,3.5,4,5.7,6.8,6.6
						c2.9,0.8,6,0.6,8.7-0.8c6.1-2.6,12.6-8.9,18.7-17.1c12.1-16.3,22.4-40,21.7-57v-0.5l-0.4-0.3C87.1,79.5,75.3,75.6,65.3,75.8
						L65.3,75.8z M65.4,77.7c9.4-0.2,20.5,3.4,34.1,13.1c0.5,16.2-9.5,39.5-21.3,55.3c-6,8-12.4,14.1-17.9,16.5
						c-2.8,1.2-5.2,1.5-7.4,0.7s-4.1-2.5-5.7-5.7c-0.7-1.6-1.7-3-2.9-4.2c-1-0.9-2.2-1.4-3.5-1.5c-2.5,0-4.8,1.9-7.2,4.8
						c-5.9,7.3-11.5,10.9-15.4,11.5c-1.6,0.4-3.2,0-4.5-0.9c-1.3-1.2-2-2.9-2-4.7c-0.1-1.8-0.5-3.5-1.1-5.2
						c-0.5-1.2-1.5-2.2-2.7-2.7c-2.3-0.9-5.1-0.4-8.7,0.2c-9.4,1.6-15.6-2.4-18.5-8.4c-2.8-5.7-2.5-13.3,1.3-19.8
						c3.1,3.6,6.2,6,9.4,7.2c3.3,1.3,7,1.4,10.4,0.1c6.8-2.5,13.3-9.5,19.7-19.5C29.2,102.6,38,88.7,50.2,82
						C54.8,79.3,60.1,77.9,65.4,77.7L65.4,77.7z"/>
					<path class="st3" d="M69.3,76.2c-4.1,0-8.1,1.1-11.7,3.2C53,82,49,86.2,45.4,91c-7.3,9.7-13.2,22.2-19.8,31.8
						c-12.3,18-23.9,22.8-31.7,21.2s-12.5-9.6-11-18.5l-1.9-0.3c-1.6,9.7,3.6,18.8,12.5,20.7s21.2-3.6,33.7-22
						c6.7-9.8,12.6-22.3,19.7-31.8c3.5-4.7,7.4-8.6,11.7-11.1c4.5-2.6,9.7-3.6,14.8-2.6l0.3-1.9C72.3,76.3,70.8,76.2,69.3,76.2z"/>
					<path class="st2" d="M46.4,105.4c-9.1,7-24.4,13.9-27.2,10.1S26.9,98.8,36,91.8s14-4.4,16.1-1.6S55.5,98.4,46.4,105.4
						L46.4,105.4z"/>
					<path class="st3" d="M54,88.8c-1.7-2.3-4.4-3.7-7.2-3.8c-3.4-0.2-7.4,1.2-12.2,4.9c-5,3.9-9.5,8.5-13.4,13.5
						c-1.7,2.1-3,4.4-4.1,6.9c-0.9,2.2-1.4,4.6,0.2,6.6s4,2.2,6.4,1.9c2.7-0.4,5.2-1.1,7.7-2.2c5.9-2.4,11.4-5.6,16.5-9.4
						c4.8-3.7,7.2-7.2,7.9-10.5C56.4,93.9,55.8,91,54,88.8L54,88.8z M50.2,91.7c0.9,1.1,1.3,2.6,0.9,4c-0.4,1.8-1.9,4.5-6.2,7.8
						c-4.7,3.6-9.9,6.5-15.4,8.8c-2.1,0.9-4.3,1.5-6.5,1.9c-0.7,0.1-1.3,0.1-2-0.1c0-0.7,0.2-1.3,0.4-1.9c0.9-2.1,2.1-4,3.5-5.7
						c3.6-4.7,7.8-8.9,12.5-12.6c4.3-3.3,7.2-4,9.1-4C48,89.8,49.4,90.5,50.2,91.7L50.2,91.7z"/>
					<path class="st3" d="M106.5,28c-37.6,0-68.1,30.5-68.1,68.1s30.5,68.1,68.1,68.1s68.1-30.5,68.1-68.1S144.1,28,106.5,28z
						 M106.5,35.8c33.3,0,60.4,27,60.4,60.4s-27,60.4-60.4,60.4c-33.3,0-60.3-27-60.4-60.3c0-33.3,27-60.3,60.3-60.4
						C106.4,35.8,106.5,35.8,106.5,35.8L106.5,35.8z"/>
					<path class="st7" d="M170.7,96.3c0,35.4-28.8,64.1-64.2,64.1s-64.1-28.8-64.1-64.2s28.8-64.1,64.2-64.1
						c17,0,33.3,6.8,45.4,18.8C164,63,170.8,79.3,170.7,96.3L170.7,96.3z"/>
					<path class="st7" d="M162.6,92.9c0,32.8-26.6,59.3-59.4,59.3s-59.3-26.6-59.3-59.4s26.6-59.3,59.4-59.3
						c15.7,0,30.8,6.3,41.9,17.4C156.3,62.1,162.6,77.2,162.6,92.9z"/>
					<path class="st2" d="M42.5,96.3c-0.4,35.4,27.9,64.5,63.3,64.9c35.4,0.4,64.5-27.9,64.9-63.3c0-0.5,0-1.1,0-1.6
						C170.7,96.3,42.5,96.3,42.5,96.3z"/>
					<path class="st2" d="M44,96.3c1.9,32.7,29.9,57.7,62.6,55.8c30.1-1.7,54.1-25.7,55.8-55.8H44z"/>
					<path class="st3" d="M106.5,30.9c-36,0-65.2,29.2-65.2,65.2s29.2,65.2,65.2,65.2s65.2-29.2,65.2-65.2l0,0
						C171.7,60.1,142.5,30.9,106.5,30.9z M106.5,32.9c34.9,0,63.3,28.3,63.3,63.3s-28.3,63.3-63.3,63.3s-63.3-28.3-63.3-63.3l0,0
						C43.2,61.2,71.5,32.9,106.5,32.9L106.5,32.9z"/>
					<path class="st3" d="M103.1,96.1c-0.2,5.1,3.9,9.5,9,9.6s9.5-3.9,9.6-9c0-0.2,0-0.4,0-0.6h-1.9c-0.2,4.1-3.6,7.3-7.7,7.1
						c-3.9-0.1-7-3.3-7.1-7.1H103.1z"/>
					<path class="st3" d="M92.1,72.8c5.4,0,9.8,4.4,9.8,9.8l0,0v4.9c0,5.4-4.4,9.8-9.8,9.8s-9.8-4.4-9.8-9.8v-4.9
						C82.3,77.2,86.6,72.8,92.1,72.8L92.1,72.8z"/>
					<path class="st7" d="M97.8,79.8c0,1.8-1.4,3.2-3.2,3.2c-1.8,0-3.2-1.4-3.2-3.2c0-1.8,1.4-3.2,3.2-3.2l0,0
						C96.4,76.7,97.8,78.1,97.8,79.8z"/>
					<path class="st3" d="M132.6,97.4c-5.4,0-9.8-4.4-9.8-9.8c0,0,0,0,0-0.1v-8.1h19.7v8.1C142.5,93,138.1,97.4,132.6,97.4
						C132.7,97.4,132.7,97.4,132.6,97.4z"/>
					<path class="st7" d="M139.9,85c0,1.8-1.4,3.2-3.2,3.2s-3.2-1.4-3.2-3.2c0-1.8,1.4-3.2,3.2-3.2l0,0
						C138.5,81.8,139.9,83.2,139.9,85z"/>
					<path class="st3" d="M67.1,10.1l2.5,6.7l0.7,1.8c-6.8-0.9-13.4-2.3-19.9-4.5L44.5,12l0.8,6.2C49.3,48.8,74.4,65.3,98,69
						c11.8,1.8,23.5,0.6,32.6-3.8s15.7-12.7,15.7-23.4c0.1-6.4-2.3-12.6-6.7-17.2c-4.8-4.9-12.4-8.1-22.9-8.9
						c-15.2-1.1-27.2-0.2-42.6-3.9L67.1,10.1z M79.1,20.6c13.4,2.4,24.5,1.8,37,2.7c9.2,0.7,14.8,3.4,18,6.6
						c3.1,3.2,4.7,7.4,4.5,11.8c0,7.8-4.1,13-11.4,16.5s-17.5,4.8-28.1,3.2c-19.4-3-39.4-15.2-45.2-38.2c5.5,1.5,13.9,3.4,21.8,3.3
						h5.4L79.1,20.6z"/>
					<path class="st8" d="M73.2,15.5l2.7,7.3c-12.3,0.1-26.8-5-26.8-5c7.6,57.6,93.4,61.1,93.4,24c0-10.4-6.3-20.8-26.1-22.3
						C101.6,18.4,89.2,19.3,73.2,15.5z"/>
					<path class="st9" d="M73.2,15.5l2.7,7.3c-12.3,0.1-26.8-5-26.8-5c20,26.1,78.9,29.4,89.3,11.3c-3.9-5-10.7-8.7-22-9.5
						C101.6,18.4,89.2,19.3,73.2,15.5L73.2,15.5z"/>
					<path class="st10" d="M49.1,17.7c7.6,57.6,93.4,61.1,93.4,24c0-1.7-0.2-3.4-0.5-5.1C128.2,69.8,59.2,55.2,49.1,17.7L49.1,17.7z
						"/>
					<path class="st3" d="M71.7,14.1l0.6,1.7l2.2,5.9c-11.8-0.3-25.1-4.9-25.1-4.9L48,16.3l0.2,1.5C52,47.1,75.8,62.7,98.5,66.2
						c11.4,1.8,22.5,0.5,30.9-3.6s14.1-11.2,14.1-20.8c0.2-5.6-2-11.1-5.9-15.2c-4.2-4.3-11-7.3-21.1-8c-14.9-1.1-27.2-0.2-43.1-4
						L71.7,14.1z M74.7,16.8c15.3,3.4,27.4,2.6,41.7,3.7c9.7,0.7,16,3.6,19.8,7.5c3.6,3.7,5.5,8.7,5.4,13.8c0,8.9-5.1,15.2-13,19.1
						s-18.7,5.1-29.7,3.4C77.2,61,54.7,46.5,50.4,19.1c3.4,1.1,14.9,4.6,25.6,4.6h1.4L74.7,16.8z"/>
				</g>
			</g>
		</g>
	</g>
	<g>
		<defs>
			<rect id="SVGID_00000034065041139855708480000003898107720524240563_" width="195.6" height="280.6"/>
		</defs>
		<clipPath id="SVGID_00000075133249504723660880000004575297220928160647_">
			<use xlink:href="#SVGID_00000034065041139855708480000003898107720524240563_"  style="overflow:visible;"/>
		</clipPath>
		<path style="clip-path:url(#SVGID_00000075133249504723660880000004575297220928160647_);fill:#EB5A53;" d="M150.6,0h29h16v16
			c0,7,0,14,0,21c-10.2,12.4-28.6,14.2-41,4S140.4,12.4,150.6,0z"/>
	</g>
	<g>
		<defs>
			<rect id="SVGID_00000005233963302151480230000016219717628072395915_" width="195.6" height="280.6"/>
		</defs>
		<clipPath id="SVGID_00000014605899558205453100000013111305280153114032_">
			<use xlink:href="#SVGID_00000005233963302151480230000016219717628072395915_"  style="overflow:visible;"/>
		</clipPath>
	</g>
</g>
<g class="st12">
	<path class="st2" d="M57.2,209.7v5.4h-4.2v21.5h-7v-21.5h-4.1v-5.4H57.2z"/>
</g>
<g class="st12">
	<path class="st2" d="M63.2,223.1h-6.3v-1.5c0-1.7,0.2-3,0.6-3.9c0.4-0.9,1.2-1.7,2.4-2.4c1.2-0.7,2.7-1.1,4.6-1.1
		c2.3,0,4,0.4,5.1,1.2c1.2,0.8,1.8,1.8,2.1,3c0.2,1.2,0.3,3.6,0.3,7.2v11.1h-6.5v-2c-0.4,0.8-0.9,1.4-1.6,1.8s-1.4,0.6-2.3,0.6
		c-1.2,0-2.2-0.3-3.2-1c-1-0.7-1.5-2.1-1.5-4.3v-1.8c0-1.6,0.3-2.8,0.8-3.4c0.5-0.6,1.8-1.3,3.9-2.1c2.2-0.9,3.4-1.4,3.5-1.7
		c0.2-0.3,0.2-0.9,0.2-1.8c0-1.2-0.1-1.9-0.3-2.2c-0.2-0.3-0.5-0.5-0.9-0.5c-0.5,0-0.7,0.1-0.8,0.4c-0.1,0.3-0.2,1.1-0.2,2.3V223.1z
		 M65.3,226.1c-1.1,0.8-1.7,1.4-1.9,2c-0.2,0.5-0.3,1.3-0.3,2.3c0,1.1,0.1,1.9,0.2,2.2s0.4,0.5,0.9,0.5c0.4,0,0.7-0.1,0.8-0.4
		c0.1-0.3,0.2-0.9,0.2-2.1V226.1z"/>
	<path class="st2" d="M89.6,209.7v26.9h-6.7V235c-0.6,0.7-1.3,1.2-2,1.5c-0.7,0.3-1.5,0.5-2.2,0.5c-1,0-1.9-0.3-2.7-0.8
		c-0.8-0.5-1.3-1.2-1.5-1.9s-0.3-1.9-0.3-3.5v-10.3c0-1.7,0.1-2.9,0.3-3.6s0.7-1.3,1.5-1.9c0.8-0.5,1.7-0.8,2.8-0.8
		c0.8,0,1.6,0.2,2.3,0.4c0.7,0.3,1.3,0.7,1.9,1.3v-6.2H89.6z M82.8,220.1c0-0.8-0.1-1.4-0.2-1.6c-0.1-0.3-0.4-0.4-0.8-0.4
		c-0.4,0-0.7,0.1-0.8,0.4c-0.1,0.2-0.2,0.8-0.2,1.7v10.8c0,0.9,0.1,1.5,0.2,1.8c0.1,0.3,0.4,0.4,0.8,0.4c0.4,0,0.7-0.2,0.9-0.5
		c0.1-0.3,0.2-1.1,0.2-2.3V220.1z"/>
	<path class="st2" d="M107.2,225.9h-8.7v4.8c0,1,0.1,1.6,0.2,1.9c0.1,0.3,0.4,0.4,0.8,0.4c0.5,0,0.8-0.2,1-0.6
		c0.2-0.4,0.3-1.1,0.3-2.2v-2.9h6.4v1.6c0,1.4-0.1,2.4-0.3,3.1c-0.2,0.7-0.6,1.5-1.2,2.3s-1.4,1.5-2.4,1.9c-1,0.4-2.2,0.6-3.6,0.6
		c-1.4,0-2.7-0.2-3.8-0.6c-1.1-0.4-1.9-1-2.5-1.7c-0.6-0.7-1-1.5-1.3-2.4c-0.2-0.9-0.3-2.1-0.3-3.7v-6.4c0-1.9,0.3-3.4,0.8-4.6
		c0.5-1.1,1.4-2,2.6-2.6c1.2-0.6,2.5-0.9,4.1-0.9c1.9,0,3.4,0.4,4.7,1.1c1.2,0.7,2.1,1.7,2.6,2.8c0.5,1.2,0.7,2.8,0.7,5V225.9z
		 M100.4,222.3v-1.6c0-1.1-0.1-1.9-0.2-2.2s-0.4-0.5-0.7-0.5c-0.5,0-0.8,0.1-0.9,0.4c-0.1,0.3-0.2,1-0.2,2.3v1.6H100.4z"/>
	<path class="st2" d="M124.7,214.5v22h-6.8l0.1-1.8c-0.5,0.7-1,1.3-1.7,1.7c-0.7,0.4-1.5,0.6-2.3,0.6c-1,0-1.8-0.2-2.5-0.5
		s-1.2-0.8-1.5-1.4s-0.5-1.2-0.6-1.8c-0.1-0.6-0.1-1.9-0.1-3.8v-14.9h6.7v15c0,1.7,0.1,2.7,0.2,3.1c0.1,0.3,0.4,0.5,0.9,0.5
		c0.5,0,0.8-0.2,0.9-0.5c0.1-0.3,0.1-1.4,0.1-3.2v-14.8H124.7z"/>
	<path class="st2" d="M140.8,221.6h-5.9v-1.2c0-1-0.1-1.7-0.2-1.9c-0.1-0.3-0.4-0.4-0.9-0.4c-0.4,0-0.7,0.1-0.8,0.4
		c-0.2,0.2-0.3,0.6-0.3,1.1c0,0.7,0,1.2,0.1,1.5c0.1,0.3,0.4,0.7,0.8,1c0.5,0.4,1.4,0.9,2.9,1.6c1.9,1,3.2,1.8,3.8,2.7
		s0.9,2.1,0.9,3.7c0,1.8-0.2,3.1-0.7,4.1c-0.5,0.9-1.2,1.6-2.3,2.1c-1.1,0.5-2.4,0.7-3.9,0.7c-1.7,0-3.2-0.3-4.4-0.8s-2-1.3-2.5-2.2
		s-0.7-2.3-0.7-4.1v-1.1h5.9v1.4c0,1.2,0.1,2,0.2,2.3s0.4,0.5,0.9,0.5c0.5,0,0.8-0.1,1-0.4c0.2-0.2,0.3-0.7,0.3-1.5
		c0-1.1-0.1-1.7-0.4-2c-0.3-0.3-1.6-1.1-3.9-2.4c-2-1.1-3.2-2.1-3.6-3c-0.4-0.9-0.6-2-0.6-3.2c0-1.8,0.2-3.1,0.7-3.9
		c0.5-0.8,1.3-1.5,2.4-1.9s2.4-0.7,3.9-0.7c1.5,0,2.7,0.2,3.7,0.6c1,0.4,1.8,0.9,2.4,1.5s0.9,1.2,1,1.7s0.2,1.3,0.2,2.4V221.6z"/>
	<path class="st2" d="M153.6,214.5v4.9l-4.9,12.7h4.9v4.4h-11.4v-4.6l5.1-13h-4.5v-4.4H153.6z"/>
</g>
<g class="st12">
	<path class="st2" d="M37.3,241.7l-4,12.1l4.4,14.7h-7.2L27.6,257v11.5h-7v-26.9h7v10.4l3.1-10.4H37.3z"/>
	<path class="st2" d="M53.9,254.3v5.4c0,2-0.1,3.4-0.3,4.4c-0.2,0.9-0.6,1.8-1.3,2.6c-0.7,0.8-1.5,1.4-2.5,1.8
		c-1,0.4-2.2,0.6-3.5,0.6c-1.5,0-2.7-0.2-3.8-0.5c-1-0.3-1.8-0.8-2.4-1.5c-0.6-0.7-1-1.5-1.2-2.4c-0.2-0.9-0.4-2.3-0.4-4.2v-5.6
		c0-2,0.2-3.6,0.7-4.8c0.4-1.2,1.2-2.1,2.4-2.8c1.2-0.7,2.6-1,4.4-1c1.5,0,2.8,0.2,3.9,0.7c1.1,0.4,1.9,1,2.5,1.8
		c0.6,0.7,1,1.5,1.2,2.2S53.9,252.7,53.9,254.3z M47.1,252.6c0-1.1-0.1-1.8-0.2-2.1c-0.1-0.3-0.4-0.4-0.8-0.4s-0.7,0.1-0.8,0.4
		c-0.1,0.3-0.2,1-0.2,2.1v9.9c0,1,0.1,1.7,0.2,2c0.1,0.3,0.4,0.5,0.8,0.5c0.4,0,0.7-0.1,0.8-0.4s0.2-0.9,0.2-1.9V252.6z"/>
	<path class="st2" d="M69.8,253.6h-5.9v-1.2c0-1-0.1-1.7-0.2-1.9c-0.1-0.3-0.4-0.4-0.9-0.4c-0.4,0-0.7,0.1-0.8,0.4
		c-0.2,0.2-0.3,0.6-0.3,1.1c0,0.7,0,1.2,0.1,1.5c0.1,0.3,0.4,0.7,0.8,1s1.4,0.9,2.9,1.6c1.9,1,3.2,1.8,3.8,2.7
		c0.6,0.8,0.9,2.1,0.9,3.7c0,1.8-0.2,3.1-0.7,4.1c-0.5,0.9-1.2,1.6-2.3,2.1c-1.1,0.5-2.4,0.7-3.9,0.7c-1.7,0-3.2-0.3-4.4-0.8
		s-2-1.3-2.5-2.2c-0.5-0.9-0.7-2.3-0.7-4.1v-1.1h5.9v1.4c0,1.2,0.1,2,0.2,2.3s0.4,0.5,0.9,0.5c0.5,0,0.8-0.1,1-0.4
		c0.2-0.2,0.3-0.7,0.3-1.5c0-1.1-0.1-1.7-0.4-2c-0.3-0.3-1.6-1.1-3.9-2.4c-2-1.1-3.2-2.1-3.6-3c-0.4-0.9-0.6-2-0.6-3.2
		c0-1.8,0.2-3.1,0.7-3.9c0.5-0.8,1.3-1.5,2.4-1.9s2.4-0.7,3.9-0.7c1.5,0,2.7,0.2,3.7,0.6c1,0.4,1.8,0.9,2.4,1.5s0.9,1.2,1,1.7
		s0.2,1.3,0.2,2.4V253.6z M68.3,240.6l-5.5,4.5h-3.4l2.9-4.5H68.3z"/>
	<path class="st2" d="M86.9,254.8h-6.3v-2.5c0-0.9-0.1-1.5-0.2-1.8c-0.1-0.3-0.4-0.5-0.8-0.5c-0.4,0-0.6,0.1-0.8,0.4
		s-0.2,0.9-0.2,1.9v10.4c0,0.8,0.1,1.4,0.3,1.8c0.2,0.4,0.5,0.6,0.9,0.6c0.5,0,0.8-0.2,0.9-0.6s0.2-1.2,0.2-2.3v-2.6h6
		c0,1.8-0.1,3.1-0.2,4c-0.1,0.9-0.5,1.8-1.1,2.7c-0.6,0.9-1.4,1.6-2.4,2.1c-1,0.5-2.3,0.7-3.7,0.7c-1.9,0-3.4-0.3-4.5-1
		c-1.1-0.6-1.9-1.6-2.3-2.7c-0.5-1.2-0.7-2.8-0.7-5V254c0-1.9,0.2-3.3,0.6-4.2c0.4-1,1.2-1.8,2.4-2.5c1.2-0.7,2.7-1.1,4.5-1.1
		c1.7,0,3.2,0.4,4.5,1.1c1.2,0.7,2.1,1.7,2.5,2.8C86.7,251.2,86.9,252.8,86.9,254.8z"/>
	<path class="st2" d="M95.8,241.7v3.5h-6.9v-3.5H95.8z M95.8,246.5v22h-6.9v-22H95.8z"/>
	<path class="st2" d="M113.6,246.5v22h-6.8l0.1-1.8c-0.5,0.7-1,1.3-1.7,1.7c-0.7,0.4-1.5,0.6-2.3,0.6c-1,0-1.8-0.2-2.5-0.5
		s-1.2-0.8-1.5-1.4s-0.5-1.2-0.6-1.8c-0.1-0.6-0.1-1.9-0.1-3.8v-14.9h6.7v15c0,1.7,0.1,2.7,0.2,3.1s0.4,0.5,0.9,0.5
		c0.5,0,0.8-0.2,0.9-0.5s0.1-1.4,0.1-3.2v-14.8H113.6z"/>
	<path class="st2" d="M129.7,253.6h-5.9v-1.2c0-1-0.1-1.7-0.2-1.9c-0.1-0.3-0.4-0.4-0.9-0.4c-0.4,0-0.7,0.1-0.8,0.4
		c-0.2,0.2-0.3,0.6-0.3,1.1c0,0.7,0,1.2,0.1,1.5c0.1,0.3,0.4,0.7,0.8,1s1.4,0.9,2.9,1.6c1.9,1,3.2,1.8,3.8,2.7
		c0.6,0.8,0.9,2.1,0.9,3.7c0,1.8-0.2,3.1-0.7,4.1c-0.5,0.9-1.2,1.6-2.3,2.1c-1.1,0.5-2.4,0.7-3.9,0.7c-1.7,0-3.2-0.3-4.4-0.8
		s-2-1.3-2.5-2.2c-0.5-0.9-0.7-2.3-0.7-4.1v-1.1h5.9v1.4c0,1.2,0.1,2,0.2,2.3s0.4,0.5,0.9,0.5c0.5,0,0.8-0.1,1-0.4
		c0.2-0.2,0.3-0.7,0.3-1.5c0-1.1-0.1-1.7-0.4-2c-0.3-0.3-1.6-1.1-3.9-2.4c-2-1.1-3.2-2.1-3.6-3c-0.4-0.9-0.6-2-0.6-3.2
		c0-1.8,0.2-3.1,0.7-3.9c0.5-0.8,1.3-1.5,2.4-1.9s2.4-0.7,3.9-0.7c1.5,0,2.7,0.2,3.7,0.6c1,0.4,1.8,0.9,2.4,1.5s0.9,1.2,1,1.7
		s0.2,1.3,0.2,2.4V253.6z"/>
	<path class="st2" d="M142.4,246.5v4.9l-4.9,12.7h4.9v4.4H131v-4.6l5.1-13h-4.5v-4.4H142.4z"/>
	<path class="st2" d="M158.3,246.5l-2.7,8.8l3.5,13.3h-6.5l-2.1-9.6l0,9.6h-6.7v-26.9h6.7l0,11.3l2.1-6.4H158.3z"/>
	<path class="st2" d="M175.3,254.3v5.4c0,2-0.1,3.4-0.3,4.4c-0.2,0.9-0.6,1.8-1.3,2.6c-0.7,0.8-1.5,1.4-2.5,1.8
		c-1,0.4-2.2,0.6-3.5,0.6c-1.5,0-2.7-0.2-3.8-0.5c-1-0.3-1.8-0.8-2.4-1.5c-0.6-0.7-1-1.5-1.2-2.4c-0.2-0.9-0.4-2.3-0.4-4.2v-5.6
		c0-2,0.2-3.6,0.7-4.8c0.4-1.2,1.2-2.1,2.4-2.8c1.2-0.7,2.6-1,4.4-1c1.5,0,2.8,0.2,3.9,0.7c1.1,0.4,1.9,1,2.5,1.8
		c0.6,0.7,1,1.5,1.2,2.2S175.3,252.7,175.3,254.3z M168.6,252.6c0-1.1-0.1-1.8-0.2-2.1c-0.1-0.3-0.4-0.4-0.8-0.4s-0.7,0.1-0.8,0.4
		c-0.1,0.3-0.2,1-0.2,2.1v9.9c0,1,0.1,1.7,0.2,2c0.1,0.3,0.4,0.5,0.8,0.5c0.4,0,0.7-0.1,0.8-0.4s0.2-0.9,0.2-1.9V252.6z"/>
</g>
<g class="st12">
	<path class="st2" d="M78,205.7c-0.5,0-1-0.1-1.4-0.3s-0.7-0.5-0.9-1l-0.2,1.2h-0.4L77,195h0.4l-0.8,4.5c0.3-0.5,0.7-0.8,1.2-1.1
		s1-0.4,1.5-0.4c0.5,0,0.9,0.1,1.2,0.4s0.6,0.6,0.7,1c0.2,0.5,0.2,1,0.2,1.5c0,0.3,0,0.6-0.1,0.8l-0.1,0.5c-0.2,1.1-0.6,1.9-1.2,2.5
		C79.5,205.4,78.8,205.7,78,205.7z M81,201.8l0.1-0.7c0-0.5,0-1-0.1-1.4s-0.3-0.7-0.6-1s-0.6-0.3-1-0.3c-0.6,0-1.2,0.2-1.7,0.5
		s-0.9,0.8-1.1,1.4l-0.6,3.4c0.1,0.5,0.4,0.9,0.7,1.2s0.8,0.4,1.4,0.4c0.7,0,1.4-0.3,1.9-0.9c0.5-0.6,0.9-1.4,1.1-2.5L81,201.8z"/>
	<path class="st2" d="M82.8,201.7c0.1-0.7,0.3-1.3,0.7-1.9s0.8-1,1.3-1.3c0.5-0.3,1.1-0.5,1.7-0.5c0.5,0,0.9,0.1,1.3,0.3
		s0.7,0.6,0.9,1c0.2,0.4,0.4,0.9,0.4,1.5c0,0.3,0,0.7-0.1,1.2c-0.1,0.7-0.3,1.3-0.7,1.9s-0.8,1-1.3,1.3c-0.5,0.3-1.1,0.5-1.7,0.5
		c-0.5,0-1-0.1-1.3-0.3c-0.4-0.2-0.7-0.6-0.9-1c-0.2-0.4-0.4-0.9-0.4-1.5C82.8,202.6,82.8,202.2,82.8,201.7z M83.2,203.2
		c0.1,0.7,0.3,1.2,0.7,1.6c0.4,0.4,0.9,0.6,1.5,0.6c0.7,0,1.4-0.3,1.9-0.8s1-1.2,1.2-2c0.2-0.7,0.3-1.4,0.2-2
		c-0.1-0.7-0.3-1.2-0.7-1.6c-0.4-0.4-0.9-0.6-1.5-0.6c-0.7,0-1.4,0.3-1.9,0.8c-0.6,0.5-1,1.2-1.3,2
		C83.1,201.9,83.1,202.5,83.2,203.2z"/>
	<path class="st2" d="M91.6,199.9c0.4-0.6,0.8-1.1,1.3-1.4c0.5-0.3,1-0.5,1.6-0.5c0.6,0,1,0.1,1.3,0.4s0.5,0.7,0.6,1.3
		c0,0.3,0,0.7-0.1,1.1l-0.8,4.7h-0.4l0.8-4.7c0.1-0.3,0.1-0.6,0.1-0.9c0-0.5-0.2-0.9-0.4-1.1s-0.6-0.4-1.1-0.4
		c-0.6,0-1.2,0.3-1.8,0.7s-1,1-1.2,1.7l-0.8,4.7h-0.4l1.8-10.5h0.4L91.6,199.9z"/>
	<path class="st2" d="M102.5,205.5c0-0.4,0-0.9,0.1-1.4c-0.4,0.5-0.8,0.8-1.4,1.1s-1.1,0.4-1.7,0.4c-0.6,0-1.1-0.2-1.5-0.6
		s-0.5-0.9-0.4-1.4c0.1-0.7,0.5-1.2,1.2-1.6s1.5-0.6,2.5-0.6h1.8l0.2-1.1c0.1-0.6,0-1.1-0.4-1.4c-0.3-0.3-0.8-0.5-1.5-0.5
		c-0.6,0-1.2,0.2-1.7,0.5c-0.5,0.3-0.8,0.8-0.9,1.3l-0.4,0c0.1-0.6,0.5-1.2,1.1-1.6s1.2-0.6,1.9-0.6c0.8,0,1.3,0.2,1.7,0.6
		c0.4,0.4,0.5,1,0.4,1.7l-0.7,4l0,0.5c0,0.2,0,0.5,0,0.7l0,0.1H102.5z M99.5,205.3c0.6,0,1.2-0.1,1.7-0.4c0.6-0.3,1-0.7,1.4-1.3
		l0.3-1.8h-1.7c-0.9,0-1.7,0.2-2.3,0.5c-0.6,0.3-1,0.8-1.1,1.4c-0.1,0.5,0,0.8,0.3,1.1S99,205.3,99.5,205.3z"/>
	<path class="st2" d="M107.4,196.1l-0.3,2h1.6l0,0.4H107l-0.9,5.4l0,0.4c0,0.3,0.1,0.6,0.2,0.7c0.1,0.2,0.4,0.3,0.6,0.3
		c0.1,0,0.4,0,0.7-0.1l0,0.3c-0.2,0.1-0.5,0.1-0.7,0.1c-0.8,0-1.2-0.4-1.2-1.2c0-0.2,0-0.5,0-0.7l0.9-5.3h-1.3l0.1-0.4h1.3l0.3-2
		H107.4z"/>
	<path class="st2" d="M112.1,205.7c-0.6,0-1.1-0.2-1.5-0.5c-0.4-0.3-0.7-0.8-0.9-1.4c-0.2-0.6-0.2-1.2-0.1-1.8l0.1-0.3
		c0.1-0.7,0.3-1.3,0.7-1.9c0.4-0.6,0.8-1,1.3-1.3s1-0.5,1.6-0.5c0.7,0,1.3,0.3,1.8,0.8s0.6,1.3,0.5,2.1l0,0.2l-0.1,0.4h-5.4
		l-0.1,0.4c-0.1,0.4-0.1,0.8,0,1.2c0.1,0.7,0.3,1.2,0.7,1.6c0.4,0.4,0.9,0.6,1.5,0.6c0.9,0,1.6-0.3,2.3-1l0.2,0.2
		C113.9,205.3,113.1,205.7,112.1,205.7z M113.1,198.4c-0.7,0-1.3,0.3-1.9,0.8c-0.6,0.5-1,1.2-1.2,2.1h5l0-0.1c0.1-0.3,0.1-0.7,0-1
		c-0.1-0.5-0.3-1-0.6-1.3C114,198.5,113.6,198.4,113.1,198.4z"/>
	<path class="st2" d="M120.7,198.4l-0.4,0c-0.6,0-1.2,0.2-1.7,0.7c-0.5,0.5-0.9,1-1.1,1.6l-0.8,4.8h-0.4l1.3-7.4h0.4l-0.3,1.5
		c0.3-0.5,0.7-0.9,1.1-1.2c0.4-0.3,0.9-0.4,1.5-0.4c0.2,0,0.3,0,0.5,0.1L120.7,198.4z"/>
</g>
<g class="st12">
	<path class="st7" d="M166.5,15.9v15.8h-3.9v-8.5c0-1.2,0-2-0.1-2.2s-0.2-0.4-0.5-0.6s-0.9-0.2-1.8-0.2h-0.4v-1.8
		c1.9-0.4,3.4-1.3,4.3-2.5H166.5z"/>
	<path class="st7" d="M176.1,15.9v10.3h1.1V29h-1.1v2.8h-3.9V29h-4.7v-2.7l3.4-10.3H176.1z M172.1,26.3v-6.7l-1.7,6.7H172.1z"/>
</g>
</svg>
