<?xml version="1.0" encoding="utf-8"?>
<!-- Generator: Adobe Illustrator 26.0.1, SVG Export Plug-In . SVG Version: 6.00 Build 0)  -->
<svg version="1.1" id="Слой_1" xmlns="http://www.w3.org/2000/svg" xmlns:xlink="http://www.w3.org/1999/xlink" x="0px" y="0px"
	 viewBox="0 0 195.6 280.6" style="enable-background:new 0 0 195.6 280.6;" xml:space="preserve">
<style type="text/css">
	.st0{clip-path:url(#SVGID_00000176764091942219842040000014622798683930440894_);fill:#EB5A53;}
	.st1{clip-path:url(#SVGID_00000025404973110616316750000008085243295322422668_);fill:#1A1A1A;}
	.st2{clip-path:url(#SVGID_00000126300870870008830470000016918863131955217584_);fill:#1A1A1A;}
	.st3{clip-path:url(#SVGID_00000002342087496886864310000014399012439078007438_);fill:#1A1A1A;}
	.st4{clip-path:url(#SVGID_00000176019728824753896780000000752201665486359726_);fill:#1A1A1A;}
	.st5{clip-path:url(#SVGID_00000073001080546163266430000016966922053838711456_);fill:#1A1A1A;}
	.st6{clip-path:url(#SVGID_00000043445740067868640510000015477436127314963636_);fill:#1A1A1A;}
	.st7{clip-path:url(#SVGID_00000171706749366943886320000005649928039045853348_);fill:#DBE492;}
	.st8{clip-path:url(#SVGID_00000083785947795426217970000016820457107097038993_);fill:#FFFFFF;}
	.st9{clip-path:url(#SVGID_00000048467230539441158320000012261678287095066036_);fill:#FFFFFF;}
	.st10{clip-path:url(#SVGID_00000137123321649224993980000014245759434300798622_);fill:#EB5A53;}
	.st11{clip-path:url(#SVGID_00000106835758127050934560000005809730717721368507_);fill:#1A1A1A;}
	.st12{clip-path:url(#SVGID_00000057850916725101341360000007726426166100891028_);fill:#1A1A1A;}
	.st13{clip-path:url(#SVGID_00000152266440804526642040000013715884431737072019_);fill:#1A1A1A;}
	.st14{clip-path:url(#SVGID_00000152233760776551592270000006497214484536261524_);fill:#1A1A1A;}
	.st15{clip-path:url(#SVGID_00000096743761663165690290000000417991011748956824_);fill:#1A1A1A;}
	.st16{clip-path:url(#SVGID_00000066493133839059774130000000623746313053874837_);fill:#1A1A1A;}
	.st17{clip-path:url(#SVGID_00000086692045777343760990000015395535231726249381_);fill:#1A1A1A;}
	.st18{clip-path:url(#SVGID_00000065036019700808842490000013742159052018180260_);fill:#1A1A1A;}
	.st19{clip-path:url(#SVGID_00000049203756623550230910000002107202347498285477_);fill:#FFFFFF;}
	.st20{clip-path:url(#SVGID_00000101807372606999028370000012566621353597816480_);fill:#1A1A1A;}
	.st21{clip-path:url(#SVGID_00000157278927733234217750000004521280951172350896_);fill:#FFFFFF;}
	.st22{clip-path:url(#SVGID_00000116196953376360092280000005365452833645523132_);fill:#1A1A1A;}
	.st23{clip-path:url(#SVGID_00000073723610003759470600000015744741859502810551_);fill:#1A1A1A;}
	.st24{clip-path:url(#SVGID_00000082369468372127601090000008927322303673943474_);fill:#1A1A1A;}
	.st25{clip-path:url(#SVGID_00000092447888170761029730000011439011837676097941_);fill:#FFFFFF;}
	.st26{enable-background:new    ;}
	.st27{fill:#FFFFFF;}
	.st28{fill:#1A1A1A;}
</style>
<g>
	<g>
		<defs>
			<rect id="SVGID_1_" width="195.6" height="280.6"/>
		</defs>
		<clipPath id="SVGID_00000136375876660244801730000012838858500660174991_">
			<use xlink:href="#SVGID_1_"  style="overflow:visible;"/>
		</clipPath>
		
			<rect x="-277.8" y="-2.9" style="clip-path:url(#SVGID_00000136375876660244801730000012838858500660174991_);fill:#EB5A53;" width="488.1" height="289.7"/>
	</g>
	<g>
		<defs>
			<rect id="SVGID_00000108290139332666150740000012463892271688273578_" width="195.6" height="280.6"/>
		</defs>
		<clipPath id="SVGID_00000041990970022864129090000012521653061821830581_">
			<use xlink:href="#SVGID_00000108290139332666150740000012463892271688273578_"  style="overflow:visible;"/>
		</clipPath>
		<path style="clip-path:url(#SVGID_00000041990970022864129090000012521653061821830581_);fill:#1A1A1A;" d="M41.1,33.7v9.2
			c0,9.4,7.6,17,17,17s17-7.6,17-17l0,0v-9.2H41.1z"/>
	</g>
	<g>
		<defs>
			<rect id="SVGID_00000083799935184336523080000010625161090373372548_" width="195.6" height="280.6"/>
		</defs>
		<clipPath id="SVGID_00000147906665606056135490000008156195520819104387_">
			<use xlink:href="#SVGID_00000083799935184336523080000010625161090373372548_"  style="overflow:visible;"/>
		</clipPath>
		<path style="clip-path:url(#SVGID_00000147906665606056135490000008156195520819104387_);fill:#1A1A1A;" d="M120.6,33.7v9.2
			c0,9.4,7.6,17,17,17s17-7.6,17-17l0,0v-9.2H120.6z"/>
	</g>
	<g>
		<defs>
			<rect id="SVGID_00000152243422757652764670000007096603138080768401_" width="195.6" height="280.6"/>
		</defs>
		<clipPath id="SVGID_00000059305928503448639870000005835137304938441916_">
			<use xlink:href="#SVGID_00000152243422757652764670000007096603138080768401_"  style="overflow:visible;"/>
		</clipPath>
		<path style="clip-path:url(#SVGID_00000059305928503448639870000005835137304938441916_);fill:#1A1A1A;" d="M58,10.8
			c-9.4,0.1-16.9,7.6-17,17V37h34v-9.2C74.9,18.5,67.4,10.9,58,10.8L58,10.8z"/>
	</g>
	<g>
		<defs>
			<rect id="SVGID_00000112627126596298028870000005191912930598323608_" width="195.6" height="280.6"/>
		</defs>
		<clipPath id="SVGID_00000080921160704750016520000005360890307447237808_">
			<use xlink:href="#SVGID_00000112627126596298028870000005191912930598323608_"  style="overflow:visible;"/>
		</clipPath>
		<path style="clip-path:url(#SVGID_00000080921160704750016520000005360890307447237808_);fill:#1A1A1A;" d="M137.5,10.8
			c-9.4,0.1-16.9,7.6-17,17V37h34v-9.2C154.4,18.5,146.9,10.9,137.5,10.8z"/>
	</g>
	<g>
		<defs>
			<rect id="SVGID_00000017501197775474818120000009694942291750282931_" width="195.6" height="280.6"/>
		</defs>
		<clipPath id="SVGID_00000132079436882730488720000000119567501252659884_">
			<use xlink:href="#SVGID_00000017501197775474818120000009694942291750282931_"  style="overflow:visible;"/>
		</clipPath>
		<path style="clip-path:url(#SVGID_00000132079436882730488720000000119567501252659884_);fill:#1A1A1A;" d="M19.8,107.8v58.6
			c0.1,11.6,9.5,21,21.1,21.1h113.8c11.6-0.1,21-9.5,21.1-21.1v-58.6h-18.9v58.6c0.1,1.1-0.7,2.1-1.8,2.2c-0.2,0-0.3,0-0.5,0H40.9
			c-1.1,0.1-2.1-0.7-2.2-1.8c0-0.2,0-0.3,0-0.5v-58.6H19.8V107.8z"/>
	</g>
	<g>
		<defs>
			<rect id="SVGID_00000171697812907810126610000000602653186705428101_" width="195.6" height="280.6"/>
		</defs>
		<clipPath id="SVGID_00000141450269849047845530000016752826126610469274_">
			<use xlink:href="#SVGID_00000171697812907810126610000000602653186705428101_"  style="overflow:visible;"/>
		</clipPath>
		<path style="clip-path:url(#SVGID_00000141450269849047845530000016752826126610469274_);fill:#1A1A1A;" d="M40.9,31.5
			c-11.6,0.1-21,9.5-21.1,21.1v58.6h18.9V52.6c-0.1-1.1,0.7-2.1,1.8-2.2c0.2,0,0.3,0,0.5,0h113.8c1.1-0.1,2.1,0.7,2.2,1.8
			c0,0.2,0,0.3,0,0.5v58.6h18.9V52.6c-0.1-11.6-9.5-21-21.1-21.1C154.8,31.5,40.9,31.5,40.9,31.5z"/>
	</g>
	<g>
		<defs>
			<rect id="SVGID_00000080908613066195902200000009892838865889743499_" width="195.6" height="280.6"/>
		</defs>
		<clipPath id="SVGID_00000141437087525427802090000017815200074909732268_">
			<use xlink:href="#SVGID_00000080908613066195902200000009892838865889743499_"  style="overflow:visible;"/>
		</clipPath>
		<path style="clip-path:url(#SVGID_00000141437087525427802090000017815200074909732268_);fill:#DBE492;" d="M40.9,40.9h113.8
			c6.4,0,11.7,5.2,11.7,11.6c0,0,0,0,0,0.1v113.8c0,6.4-5.2,11.6-11.7,11.6l0,0H40.9c-6.4,0-11.7-5.2-11.7-11.6c0,0,0,0,0-0.1V52.6
			C29.2,46.2,34.4,40.9,40.9,40.9L40.9,40.9z"/>
	</g>
	<g>
		<defs>
			<rect id="SVGID_00000054988520294448895770000010633182795087292556_" width="195.6" height="280.6"/>
		</defs>
		<clipPath id="SVGID_00000136402034409009109880000013865294783559809956_">
			<use xlink:href="#SVGID_00000054988520294448895770000010633182795087292556_"  style="overflow:visible;"/>
		</clipPath>
		
			<rect x="49.2" y="60.8" style="clip-path:url(#SVGID_00000136402034409009109880000013865294783559809956_);fill:#FFFFFF;" width="97.3" height="32.7"/>
	</g>
	<g>
		<defs>
			<rect id="SVGID_00000041989535493397498010000009121229577813084083_" width="195.6" height="280.6"/>
		</defs>
		<clipPath id="SVGID_00000134935131208460253910000008797672271176448675_">
			<use xlink:href="#SVGID_00000041989535493397498010000009121229577813084083_"  style="overflow:visible;"/>
		</clipPath>
		
			<rect x="49.2" y="94.4" style="clip-path:url(#SVGID_00000134935131208460253910000008797672271176448675_);fill:#FFFFFF;" width="97.3" height="16.3"/>
	</g>
	<g>
		<defs>
			<rect id="SVGID_00000099662899962519692880000009280288851084542352_" width="195.6" height="280.6"/>
		</defs>
		<clipPath id="SVGID_00000178169914381388852380000016426817117851306888_">
			<use xlink:href="#SVGID_00000099662899962519692880000009280288851084542352_"  style="overflow:visible;"/>
		</clipPath>
		
			<rect x="49.2" y="110.8" style="clip-path:url(#SVGID_00000178169914381388852380000016426817117851306888_);fill:#EB5A53;" width="97.3" height="47.5"/>
	</g>
	<g>
		<defs>
			<rect id="SVGID_00000116927198920299478510000016115756974138680759_" width="195.6" height="280.6"/>
		</defs>
		<clipPath id="SVGID_00000035500004125509765600000007011778959143573120_">
			<use xlink:href="#SVGID_00000116927198920299478510000016115756974138680759_"  style="overflow:visible;"/>
		</clipPath>
		<path style="clip-path:url(#SVGID_00000035500004125509765600000007011778959143573120_);fill:#1A1A1A;" d="M26.9,107.8v58.6
			c0,7.7,6.3,14,14,14h113.8c7.7,0,14-6.3,14-14v-58.6H164v58.6c0,5.1-4.1,9.3-9.2,9.3h-0.1H40.9c-5.1,0-9.3-4.1-9.3-9.2v-0.1v-58.6
			C31.6,107.8,26.9,107.8,26.9,107.8z"/>
	</g>
	<g>
		<defs>
			<rect id="SVGID_00000059989121436932499640000000055162502946307504_" width="195.6" height="280.6"/>
		</defs>
		<clipPath id="SVGID_00000077311842052557414540000015811088905732397477_">
			<use xlink:href="#SVGID_00000059989121436932499640000000055162502946307504_"  style="overflow:visible;"/>
		</clipPath>
		<path style="clip-path:url(#SVGID_00000077311842052557414540000015811088905732397477_);fill:#1A1A1A;" d="M46.8,107.8v52.7h102
			v-52.7h-4.7v48H51.5v-48H46.8z"/>
	</g>
	<g>
		<defs>
			<rect id="SVGID_00000099626692498519596130000017672378563192142509_" width="195.6" height="280.6"/>
		</defs>
		<clipPath id="SVGID_00000155833145678168777440000004720377953116476601_">
			<use xlink:href="#SVGID_00000099626692498519596130000017672378563192142509_"  style="overflow:visible;"/>
		</clipPath>
		<path style="clip-path:url(#SVGID_00000155833145678168777440000004720377953116476601_);fill:#1A1A1A;" d="M40.9,38.6
			c-7.7,0-14,6.3-14,14v58.6h4.7V52.6c0-5.1,4.1-9.3,9.2-9.3h0.1h113.7c5.1,0,9.3,4,9.3,9.1c0,0.1,0,0.1,0,0.2v58.6h4.7V52.6
			c0-7.7-6.3-14-14-14H40.9z"/>
	</g>
	<g>
		<defs>
			<rect id="SVGID_00000067915310640227243720000009272677435617271726_" width="195.6" height="280.6"/>
		</defs>
		<clipPath id="SVGID_00000140721528843300685830000015974413315152345990_">
			<use xlink:href="#SVGID_00000067915310640227243720000009272677435617271726_"  style="overflow:visible;"/>
		</clipPath>
		
			<rect x="111.6" y="60.8" style="clip-path:url(#SVGID_00000140721528843300685830000015974413315152345990_);fill:#1A1A1A;" width="4.7" height="97.3"/>
	</g>
	<g>
		<defs>
			<rect id="SVGID_00000181073492485847027850000017780734472867569807_" width="195.6" height="280.6"/>
		</defs>
		<clipPath id="SVGID_00000057108351389305987340000010493576937145181873_">
			<use xlink:href="#SVGID_00000181073492485847027850000017780734472867569807_"  style="overflow:visible;"/>
		</clipPath>
		
			<rect x="79.2" y="60.8" style="clip-path:url(#SVGID_00000057108351389305987340000010493576937145181873_);fill:#1A1A1A;" width="4.7" height="97.3"/>
	</g>
	<g>
		<defs>
			<rect id="SVGID_00000156587902983089851780000002020444217618096828_" width="195.6" height="280.6"/>
		</defs>
		<clipPath id="SVGID_00000164491995666147615730000017889400292404397756_">
			<use xlink:href="#SVGID_00000156587902983089851780000002020444217618096828_"  style="overflow:visible;"/>
		</clipPath>
		
			<rect x="49.2" y="123.3" style="clip-path:url(#SVGID_00000164491995666147615730000017889400292404397756_);fill:#1A1A1A;" width="97.3" height="4.7"/>
	</g>
	<g>
		<defs>
			<rect id="SVGID_00000011721170933486439320000012553337538838086577_" width="195.6" height="280.6"/>
		</defs>
		<clipPath id="SVGID_00000084500317421283871480000002043392231614679192_">
			<use xlink:href="#SVGID_00000011721170933486439320000012553337538838086577_"  style="overflow:visible;"/>
		</clipPath>
		
			<rect x="49.2" y="90.9" style="clip-path:url(#SVGID_00000084500317421283871480000002043392231614679192_);fill:#1A1A1A;" width="97.3" height="4.7"/>
	</g>
	<g>
		<defs>
			<rect id="SVGID_00000155826796752835609190000004272166354509740453_" width="195.6" height="280.6"/>
		</defs>
		<clipPath id="SVGID_00000016033487180308939980000016878898242568412585_">
			<use xlink:href="#SVGID_00000155826796752835609190000004272166354509740453_"  style="overflow:visible;"/>
		</clipPath>
		<path style="clip-path:url(#SVGID_00000016033487180308939980000016878898242568412585_);fill:#1A1A1A;" d="M46.8,58.5v52.7h4.7
			v-48h92.6v48h4.7V58.5H46.8z"/>
	</g>
	<g>
		<defs>
			<rect id="SVGID_00000023255654327332515490000017238088733417668799_" width="195.6" height="280.6"/>
		</defs>
		<clipPath id="SVGID_00000128455557229677963690000003464600964079640758_">
			<use xlink:href="#SVGID_00000023255654327332515490000017238088733417668799_"  style="overflow:visible;"/>
		</clipPath>
		<path style="clip-path:url(#SVGID_00000128455557229677963690000003464600964079640758_);fill:#FFFFFF;" d="M58,20.3
			c4.2,0,7.5,3.3,7.5,7.5l0,0v15.1c0,4.2-3.4,7.5-7.5,7.5s-7.5-3.4-7.5-7.5l0,0V27.8C50.5,23.7,53.9,20.3,58,20.3L58,20.3z"/>
	</g>
	<g>
		<defs>
			<rect id="SVGID_00000160165034860465141980000002608311385653495685_" width="195.6" height="280.6"/>
		</defs>
		<clipPath id="SVGID_00000023254541497177683650000014224707809229904567_">
			<use xlink:href="#SVGID_00000160165034860465141980000002608311385653495685_"  style="overflow:visible;"/>
		</clipPath>
		<path style="clip-path:url(#SVGID_00000023254541497177683650000014224707809229904567_);fill:#1A1A1A;" d="M48.2,33.7v9.2
			c0,5.5,4.4,9.9,9.9,9.9s9.9-4.4,9.9-9.9l0,0v-9.2h-4.7v9.2c0,2.9-2.3,5.2-5.2,5.2s-5.2-2.3-5.2-5.2l0,0v-9.2H48.2z"/>
	</g>
	<g>
		<defs>
			<rect id="SVGID_00000076568938910032615750000015684488742043435948_" width="195.6" height="280.6"/>
		</defs>
		<clipPath id="SVGID_00000102511157485186475190000006294303694865075844_">
			<use xlink:href="#SVGID_00000076568938910032615750000015684488742043435948_"  style="overflow:visible;"/>
		</clipPath>
		<path style="clip-path:url(#SVGID_00000102511157485186475190000006294303694865075844_);fill:#FFFFFF;" d="M137.5,20.3
			c4.2,0,7.5,3.3,7.5,7.5l0,0v15.1c0,4.2-3.4,7.5-7.5,7.5c-4.2,0-7.5-3.4-7.5-7.5l0,0V27.8C130,23.7,133.3,20.3,137.5,20.3
			L137.5,20.3L137.5,20.3z"/>
	</g>
	<g>
		<defs>
			<rect id="SVGID_00000125581187093292187110000003607017554881137034_" width="195.6" height="280.6"/>
		</defs>
		<clipPath id="SVGID_00000104672301126628422780000008993078335355024296_">
			<use xlink:href="#SVGID_00000125581187093292187110000003607017554881137034_"  style="overflow:visible;"/>
		</clipPath>
		<path style="clip-path:url(#SVGID_00000104672301126628422780000008993078335355024296_);fill:#1A1A1A;" d="M127.6,33.7v9.2
			c0,5.5,4.4,9.9,9.9,9.9s9.9-4.4,9.9-9.9v-9.2h-4.7v9.2c0,2.9-2.3,5.2-5.2,5.2s-5.2-2.3-5.2-5.2l0,0v-9.2H127.6z"/>
	</g>
	<g>
		<defs>
			<rect id="SVGID_00000012451091145433155720000005753790093991533204_" width="195.6" height="280.6"/>
		</defs>
		<clipPath id="SVGID_00000155143330561613262010000013948843601507671459_">
			<use xlink:href="#SVGID_00000012451091145433155720000005753790093991533204_"  style="overflow:visible;"/>
		</clipPath>
		<path style="clip-path:url(#SVGID_00000155143330561613262010000013948843601507671459_);fill:#1A1A1A;" d="M58,17.9
			c-5.5,0-9.9,4.4-9.9,9.9V37h4.7v-9.2c0-2.9,2.3-5.2,5.2-5.2s5.2,2.3,5.2,5.2l0,0V37H68v-9.2C68,22.4,63.6,17.9,58,17.9L58,17.9z"
			/>
	</g>
	<g>
		<defs>
			<rect id="SVGID_00000028300467610289642600000004459815973455592071_" width="195.6" height="280.6"/>
		</defs>
		<clipPath id="SVGID_00000048459606369162320740000013662994483097065376_">
			<use xlink:href="#SVGID_00000028300467610289642600000004459815973455592071_"  style="overflow:visible;"/>
		</clipPath>
		<path style="clip-path:url(#SVGID_00000048459606369162320740000013662994483097065376_);fill:#1A1A1A;" d="M137.5,17.9
			c-5.5,0-9.9,4.4-9.9,9.9V37h4.7v-9.2c0-2.9,2.3-5.2,5.2-5.2s5.2,2.3,5.2,5.2l0,0V37h4.7v-9.2C147.4,22.4,143,18,137.5,17.9z"/>
	</g>
	<g>
		<defs>
			<rect id="SVGID_00000119838636051096739750000015142822600523363773_" width="195.6" height="280.6"/>
		</defs>
		<clipPath id="SVGID_00000045614197626616282130000004697800478026090118_">
			<use xlink:href="#SVGID_00000119838636051096739750000015142822600523363773_"  style="overflow:visible;"/>
		</clipPath>
		<path style="clip-path:url(#SVGID_00000045614197626616282130000004697800478026090118_);fill:#FFFFFF;" d="M44.8,0h-29h-16v16
			c0,7,0,14,0,21c10.3,12.4,28.6,14.1,41,3.8c6.7-5.6,10.6-13.8,10.5-22.5C51.4,11.6,49.1,5.2,44.8,0z"/>
	</g>
	<g>
		<defs>
			<rect id="SVGID_00000044151240459508146430000004573840909215234737_" width="195.6" height="280.6"/>
		</defs>
		<clipPath id="SVGID_00000177485965703891148610000012165815076816796319_">
			<use xlink:href="#SVGID_00000044151240459508146430000004573840909215234737_"  style="overflow:visible;"/>
		</clipPath>
	</g>
</g>
<g class="st26">
	<path class="st27" d="M63,205.7h-7.3v-2.2c0-1-0.1-1.7-0.3-2c-0.2-0.3-0.5-0.4-0.9-0.4c-0.5,0-0.8,0.2-1.1,0.6s-0.4,1-0.4,1.7
		c0,1,0.1,1.8,0.4,2.3c0.3,0.5,1,1.1,2.2,1.8c3.5,2.1,5.7,3.8,6.6,5.1c0.9,1.3,1.4,3.5,1.4,6.4c0,2.1-0.3,3.7-0.8,4.7
		c-0.5,1-1.5,1.9-2.9,2.6c-1.4,0.7-3.1,1-5,1c-2.1,0-3.9-0.4-5.4-1.2c-1.5-0.8-2.4-1.8-2.9-3c-0.5-1.2-0.7-3-0.7-5.2v-2h7.3v3.7
		c0,1.1,0.1,1.8,0.3,2.2c0.2,0.3,0.6,0.5,1.1,0.5s0.9-0.2,1.2-0.6c0.3-0.4,0.4-1,0.4-1.8c0-1.8-0.2-2.9-0.7-3.5
		c-0.5-0.5-1.7-1.5-3.7-2.7c-1.9-1.3-3.2-2.2-3.9-2.8c-0.6-0.6-1.2-1.4-1.6-2.4c-0.4-1-0.6-2.3-0.6-3.9c0-2.3,0.3-4,0.9-5
		c0.6-1.1,1.5-1.9,2.8-2.5c1.3-0.6,2.9-0.9,4.8-0.9c2,0,3.8,0.3,5.2,1c1.4,0.7,2.4,1.5,2.8,2.5c0.5,1,0.7,2.7,0.7,5.1V205.7z
		 M60.7,190.6l-6.1,5h-3.8l3.3-5H60.7z"/>
	<path class="st27" d="M90.1,202l-3,24.6H79c-0.4-3-1-7-1.6-11.9c-0.2,2.2-0.5,4.3-0.8,6.5l-0.8,5.3h-8.2L64.4,202h6.5
		c0,0.6,0.6,5.3,1.6,14.1c0.1-0.9,0.6-5.6,1.7-14.1h6.2l1.5,14.1c0.2-4.1,0.8-8.8,1.7-14.1H90.1z"/>
	<path class="st27" d="M99,196.6v3.9h-7.7v-3.9H99z M99,202v24.6h-7.7V202H99z"/>
	<path class="st27" d="M111.8,226.6c-1.1,1-1.6,1.8-1.6,2.5c0,0.8,0.4,1.2,1.3,1.2c0.6,0,1.3-0.2,2.1-0.5l0.8,1.9
		c-1.2,0.6-2.3,0.8-3.2,0.8c-1.1,0-2-0.3-2.7-0.8c-0.7-0.5-1-1.2-1-2.1c0-1,0.5-2,1.6-3c-1.5-0.1-2.7-0.4-3.8-0.8
		c-1.1-0.5-1.9-1.1-2.5-2c-0.6-0.8-1-1.7-1.1-2.6c-0.1-0.9-0.2-2.1-0.2-3.5v-7.2c0-1.3,0.1-2.5,0.3-3.5c0.2-1,0.6-1.9,1.3-2.7
		c0.7-0.8,1.6-1.4,2.7-1.7s2.5-0.6,4-0.6c2.3,0,4.2,0.4,5.5,1.1c1.4,0.7,2.3,1.8,2.7,3.1c0.4,1.3,0.6,3.1,0.6,5.3v3.3H109v5.3
		c0,1.2,0.1,1.9,0.3,2.2c0.2,0.3,0.5,0.4,0.9,0.4c0.5,0,0.9-0.2,1.1-0.6c0.2-0.4,0.3-1,0.3-2v-3.8h7.1v1.8c0,1.4-0.1,2.5-0.2,3.3
		c-0.2,0.8-0.5,1.7-1.2,2.6c-0.6,0.9-1.4,1.5-2.3,1.9C114.1,226.3,113.1,226.5,111.8,226.6z M109,207.7v3h2.2v-1.8
		c0-1.2-0.1-2-0.2-2.4c-0.1-0.4-0.4-0.6-0.9-0.6c-0.4,0-0.7,0.1-0.9,0.4C109.1,206.5,109,207,109,207.7z"/>
	<path class="st27" d="M129.1,198.7v3.9h2v3.9h-2v13.2c0,1.6,0.1,2.5,0.3,2.7s0.9,0.3,2.1,0.3v4h-3c-1.7,0-2.9-0.1-3.7-0.2
		c-0.7-0.1-1.4-0.5-1.9-1c-0.6-0.5-0.9-1.1-1-1.8c-0.1-0.7-0.2-2.2-0.2-4.7v-12.5h-1.6v-3.9h1.6v-3.9H129.1z"/>
	<path class="st27" d="M149.7,210.6v6c0,2.2-0.1,3.8-0.3,4.9c-0.2,1-0.7,2-1.4,2.9c-0.7,0.9-1.7,1.6-2.8,2c-1.1,0.4-2.5,0.6-3.9,0.6
		c-1.7,0-3.1-0.2-4.2-0.5c-1.2-0.4-2-0.9-2.7-1.7c-0.6-0.7-1.1-1.6-1.4-2.7c-0.3-1-0.4-2.6-0.4-4.7v-6.3c0-2.3,0.2-4.1,0.7-5.4
		c0.5-1.3,1.4-2.3,2.7-3.1s2.9-1.2,4.9-1.2c1.7,0,3.1,0.3,4.3,0.8c1.2,0.5,2.1,1.2,2.8,2c0.7,0.8,1.1,1.6,1.3,2.5
		S149.7,208.9,149.7,210.6z M142.2,208.8c0-1.3-0.1-2.1-0.2-2.4c-0.1-0.3-0.4-0.5-0.9-0.5s-0.7,0.2-0.9,0.5
		c-0.1,0.3-0.2,1.1-0.2,2.4v11.1c0,1.2,0.1,1.9,0.2,2.3c0.1,0.4,0.4,0.5,0.9,0.5c0.4,0,0.7-0.2,0.9-0.5c0.1-0.3,0.2-1,0.2-2.1V208.8
		z"/>
</g>
<g class="st26">
	<path class="st27" d="M55.6,232.6h7.9c2.1,0,3.8,0.2,4.9,0.5c1.1,0.3,2,0.8,2.6,1.4s1,1.4,1.2,2.3c0.2,0.9,0.3,2.3,0.3,4.2v2.6
		c0,1.9-0.2,3.3-0.6,4.2c-0.4,0.9-1.1,1.6-2.2,2c-1.1,0.5-2.4,0.7-4.1,0.7h-2.1v12.1h-7.8V232.6z M63.4,237.7v7.6c0.2,0,0.4,0,0.6,0
		c0.7,0,1.2-0.2,1.5-0.5c0.3-0.4,0.4-1.1,0.4-2.2v-2.5c0-1-0.2-1.7-0.5-2C65.1,237.9,64.4,237.7,63.4,237.7z"/>
	<path class="st27" d="M81.9,238l-0.3,3.2c1.1-2.3,2.7-3.5,4.7-3.7v8.7c-1.4,0-2.4,0.2-3,0.6c-0.6,0.4-1,0.9-1.2,1.5
		c-0.1,0.7-0.2,2.2-0.2,4.6v9.7h-7.5V238H81.9z"/>
	<path class="st27" d="M94.7,247.5h-7v-1.7c0-1.9,0.2-3.4,0.7-4.4c0.4-1,1.3-1.9,2.6-2.7c1.3-0.8,3-1.2,5.2-1.2
		c2.5,0,4.4,0.4,5.7,1.3c1.3,0.9,2.1,2,2.3,3.3c0.3,1.3,0.4,4,0.4,8.1v12.4h-7.3v-2.2c-0.5,0.9-1,1.5-1.8,2
		c-0.7,0.4-1.6,0.7-2.6,0.7c-1.3,0-2.5-0.4-3.6-1.1c-1.1-0.7-1.6-2.3-1.6-4.8v-2c0-1.8,0.3-3.1,0.9-3.8c0.6-0.7,2-1.4,4.3-2.3
		c2.5-1,3.8-1.6,4-1.9c0.2-0.3,0.3-1,0.3-2c0-1.3-0.1-2.1-0.3-2.5c-0.2-0.4-0.5-0.6-1-0.6c-0.5,0-0.8,0.2-0.9,0.5
		c-0.1,0.3-0.2,1.2-0.2,2.6V247.5z M97.1,250.9c-1.2,0.9-1.9,1.6-2.1,2.2c-0.2,0.6-0.3,1.4-0.3,2.6c0,1.3,0.1,2.1,0.3,2.5
		s0.5,0.6,1,0.6c0.5,0,0.8-0.1,0.9-0.4c0.1-0.3,0.2-1.1,0.2-2.3V250.9z"/>
	<path class="st27" d="M123.8,247.3h-7.1v-2.8c0-1-0.1-1.7-0.2-2c-0.2-0.4-0.5-0.5-0.9-0.5c-0.4,0-0.7,0.2-0.9,0.5
		c-0.1,0.3-0.2,1-0.2,2.1v11.6c0,0.9,0.1,1.5,0.3,2c0.2,0.4,0.5,0.7,1,0.7c0.5,0,0.8-0.2,1-0.7c0.2-0.5,0.3-1.3,0.3-2.6v-2.9h6.7
		c0,2-0.1,3.4-0.2,4.4c-0.1,1-0.5,2-1.2,3c-0.7,1-1.6,1.8-2.7,2.3c-1.1,0.5-2.5,0.8-4.2,0.8c-2.1,0-3.8-0.4-5-1.1
		c-1.2-0.7-2.1-1.7-2.6-3c-0.5-1.3-0.8-3.2-0.8-5.6v-7c0-2.1,0.2-3.7,0.6-4.7c0.4-1.1,1.3-2,2.7-2.8c1.4-0.8,3-1.3,5-1.3
		c2,0,3.6,0.4,5,1.2c1.4,0.8,2.3,1.9,2.8,3.1C123.5,243.2,123.8,245,123.8,247.3z"/>
	<path class="st27" d="M141.7,238l-2.1,17.8c-0.3,2.8-0.6,4.7-0.9,5.8c-0.2,1-0.6,1.9-1.1,2.5c-0.5,0.7-1.3,1.2-2.2,1.5
		c-0.9,0.3-2.5,0.5-4.5,0.5h-4.5v-3.9c1.2,0,1.9-0.1,2.2-0.2c0.3-0.1,0.5-0.4,0.5-0.8c0-0.2-0.2-1.1-0.5-2.6l-4.1-20.6h6.8l2.5,16.6
		l1.2-16.6H141.7z"/>
</g>
<g class="st26">
	<path class="st28" d="M24.2,15.9v10.3h1.1V29h-1.1v2.8h-3.9V29h-4.7v-2.7L19,15.9H24.2z M20.3,26.3v-6.7l-1.7,6.7H20.3z"/>
	<path class="st28" d="M35.6,20.1h-3.9c0-0.7,0-1.2,0-1.4s-0.1-0.4-0.2-0.5s-0.3-0.2-0.6-0.2c-0.2,0-0.4,0.1-0.5,0.2
		s-0.2,0.3-0.2,0.5s0,0.6,0,1.2v2.5c0.2-0.4,0.5-0.7,0.9-1s0.9-0.3,1.4-0.3c0.7,0,1.4,0.2,1.9,0.6s0.9,0.9,1.1,1.4s0.2,1.3,0.2,2.2
		v1.3c0,1.1,0,1.9-0.1,2.5s-0.3,1-0.7,1.5s-0.9,0.8-1.5,1.1s-1.4,0.4-2.2,0.4c-1.1,0-1.9-0.1-2.6-0.4s-1.2-0.7-1.6-1.3
		s-0.6-1.1-0.6-1.7s-0.1-1.8-0.1-3.5v-2.2c0-1.9,0-3.1,0.1-3.8s0.3-1.2,0.7-1.8s0.9-1,1.6-1.3s1.5-0.4,2.4-0.4c1.1,0,2,0.2,2.7,0.5
		s1.2,0.9,1.5,1.5S35.6,19.1,35.6,20.1z M31.7,25.1c0-0.6-0.1-0.9-0.2-1.2s-0.3-0.3-0.6-0.3c-0.3,0-0.5,0.1-0.6,0.3
		s-0.2,0.6-0.2,1.2v2.9c0,0.7,0.1,1.2,0.2,1.4s0.3,0.3,0.6,0.3c0.2,0,0.3-0.1,0.5-0.2s0.3-0.6,0.3-1.3V25.1z"/>
</g>
</svg>
