<?xml version="1.0" encoding="utf-8"?>
<!-- Generator: Adobe Illustrator 26.0.3, SVG Export Plug-In . SVG Version: 6.00 Build 0)  -->
<svg version="1.1" id="Слой_1" xmlns="http://www.w3.org/2000/svg" xmlns:xlink="http://www.w3.org/1999/xlink" x="0px" y="0px"
	 viewBox="0 0 195.6 280.6" style="enable-background:new 0 0 195.6 280.6;" xml:space="preserve">
<style type="text/css">
	.st0{clip-path:url(#SVGID_00000009574999742549543280000009057021534668810147_);fill:#EB5A53;}
	.st1{clip-path:url(#SVGID_00000009574999742549543280000009057021534668810147_);fill:#FFFFFF;}
	.st2{clip-path:url(#SVGID_00000009574999742549543280000009057021534668810147_);fill:#1A1A1A;}
	.st3{clip-path:url(#SVGID_00000009574999742549543280000009057021534668810147_);fill:#AF1739;}
	.st4{clip-path:url(#SVGID_00000009574999742549543280000009057021534668810147_);fill:#EB5775;}
	.st5{clip-path:url(#SVGID_00000009574999742549543280000009057021534668810147_);fill:#BADBE9;}
	.st6{clip-path:url(#SVGID_00000009574999742549543280000009057021534668810147_);fill:#8BB0CC;}
	.st7{clip-path:url(#SVGID_00000009574999742549543280000009057021534668810147_);fill:#F293A2;}
	.st8{fill:#EB5A53;}
	.st9{font-family:'Impact';}
	.st10{font-size:34px;}
	.st11{clip-path:url(#SVGID_00000009574999742549543280000009057021534668810147_);enable-background:new    ;}
	.st12{fill:#FFFFFF;}
	.st13{font-size:20px;}
</style>
<g>
	<defs>
		<rect id="SVGID_1_" x="0" y="0" width="195.6" height="280.6"/>
	</defs>
	<clipPath id="SVGID_00000142887531186601303040000015119199052731577250_">
		<use xlink:href="#SVGID_1_"  style="overflow:visible;"/>
	</clipPath>
	
		<rect x="-14" y="-18.7" style="clip-path:url(#SVGID_00000142887531186601303040000015119199052731577250_);fill:#EB5A53;" width="228.4" height="310.4"/>
	<path style="clip-path:url(#SVGID_00000142887531186601303040000015119199052731577250_);fill:#FFFFFF;" d="M110.2,81.2
		c-2.3,0-5.5-0.9-8-5c-1-1.8-1.8-3.7-2.3-5.7l-0.2-0.9c-0.6,0-1.3,0-1.9,0s-1.3,0-1.9,0l-0.2,0.9c-0.5,2-1.3,3.9-2.3,5.7
		c-2.5,4.1-5.7,5-8,5s-5.5-0.9-8-5c-1-1.8-1.8-3.7-2.2-5.7c-0.7-2.6-1.2-5.3-1.5-8.1c-6.4-4.2-11.6-9.9-15-16.7
		c-0.7,0.2-1.4,0.3-2.1,0.3c-1.1,0-2.2-0.2-3.2-0.7c-2.1-0.9-4.7-2.9-5.4-7.7c-0.3-2-0.3-4.1,0-6.1c0.5-4.1,1.6-8.2,3.2-12.1
		c1-2.6,2.5-4.9,4.5-6.9c7.1-23.4,31.8-36.6,55.1-29.5c13.8,4.2,24.7,14.8,29.2,28.5c2.9,1.9,5,5.1,6.4,9.5c1.2,4,1.9,8.2,2,12.3
		c0.1,2-0.1,4.1-0.6,6.1c-1.2,4.7-4,6.4-6.2,7.1c-0.8,0.2-1.6,0.4-2.4,0.4l0,0c-0.8,0-1.6-0.1-2.4-0.3c-3.5,6.4-8.5,11.8-14.6,15.7
		c-0.3,2.7-0.8,5.4-1.5,8.1c-0.5,2-1.3,3.9-2.3,5.7C115.7,80.3,112.4,81.2,110.2,81.2z"/>
	<path style="clip-path:url(#SVGID_00000142887531186601303040000015119199052731577250_);fill:#EB5A53;" d="M105.2,51.7
		c0-6.6,2.9-7.9,4.9-7.9s4.9,1.3,4.9,7.9s-2.2,16-4.9,16S105.2,58.3,105.2,51.7z"/>
	<path style="clip-path:url(#SVGID_00000142887531186601303040000015119199052731577250_);fill:#1A1A1A;" d="M110.2,42.4
		c-1.6,0-3.2,0.7-4.3,2c-1.3,1.5-2,3.8-2,7.3c0,3.7,0.5,7.3,1.5,10.8c0.4,1.5,1,2.9,1.7,4.3c0.7,1.2,1.6,2.2,3.1,2.2
		s2.4-1.1,3.1-2.2c0.8-1.4,1.3-2.8,1.7-4.3c1-3.5,1.5-7.2,1.5-10.8c0-3.5-0.8-5.8-2-7.3C113.4,43.1,111.9,42.4,110.2,42.4
		L110.2,42.4z M110.2,45.2c0.8,0,1.6,0.3,2.2,1c0.7,0.8,1.4,2.5,1.4,5.5c0,3.4-0.5,6.8-1.4,10.1c-0.3,1.3-0.8,2.5-1.4,3.6
		c-0.2,0.3-0.4,0.6-0.7,0.9c-0.3-0.2-0.5-0.5-0.7-0.9c-0.6-1.1-1.1-2.4-1.4-3.6c-0.9-3.3-1.4-6.7-1.4-10.1c0-3.1,0.7-4.7,1.4-5.5
		C108.5,45.5,109.3,45.1,110.2,45.2L110.2,45.2z"/>
	<path style="clip-path:url(#SVGID_00000142887531186601303040000015119199052731577250_);fill:#EB5A53;" d="M80.4,51.7
		c0-6.6,2.9-7.9,4.9-7.9s4.9,1.3,4.9,7.9s-2.2,16-4.9,16S80.4,58.3,80.4,51.7z"/>
	<path style="clip-path:url(#SVGID_00000142887531186601303040000015119199052731577250_);fill:#1A1A1A;" d="M85.3,42.4
		c-1.6,0-3.2,0.7-4.3,2c-1.3,1.5-2,3.8-2,7.3c0,3.7,0.5,7.3,1.5,10.8c0.4,1.5,1,2.9,1.7,4.3c0.7,1.2,1.6,2.2,3.1,2.2
		s2.4-1.1,3.1-2.2c0.8-1.4,1.3-2.8,1.7-4.3c1-3.5,1.4-7.2,1.5-10.9c0-3.5-0.8-5.8-2-7.3C88.5,43.1,87,42.4,85.3,42.4L85.3,42.4z
		 M85.3,45.2c0.8,0,1.6,0.3,2.2,1c0.7,0.8,1.4,2.5,1.4,5.5c0,3.4-0.5,6.8-1.4,10.1c-0.3,1.3-0.8,2.5-1.4,3.6
		c-0.2,0.3-0.4,0.6-0.7,0.9c-0.3-0.2-0.5-0.5-0.7-0.9c-0.6-1.1-1.1-2.4-1.4-3.6c-0.9-3.3-1.4-6.7-1.4-10.1c0-3.1,0.7-4.7,1.4-5.5
		C83.6,45.5,84.4,45.1,85.3,45.2L85.3,45.2z"/>
	<path style="clip-path:url(#SVGID_00000142887531186601303040000015119199052731577250_);fill:#EB5A53;" d="M130,18.9
		c-1.9-6.3,0.5-8.4,2.4-9s5.1-0.2,7,6.2s2.5,15.9-0.1,16.7S131.9,25.2,130,18.9L130,18.9z"/>
	<path style="clip-path:url(#SVGID_00000142887531186601303040000015119199052731577250_);fill:#1A1A1A;" d="M132,9.3
		c-1.6,0.5-2.9,1.6-3.5,3.1c-0.8,1.8-0.8,4.2,0.2,7.6c1.1,3.5,2.6,6.9,4.6,10c0.8,1.3,1.8,2.5,2.9,3.6c1,0.9,2.2,1.7,3.6,1.2
		s2-1.7,2.3-3c0.3-1.5,0.5-3,0.4-4.6c-0.1-3.7-0.7-7.3-1.7-10.8c-1-3.4-2.4-5.4-4.1-6.4C135.3,9.1,133.6,8.9,132,9.3z M132.8,11.9
		c0.8-0.3,1.7-0.1,2.4,0.3c0.9,0.6,2,1.9,2.9,4.9c1,3.3,1.5,6.7,1.6,10.1c0.1,1.3-0.1,2.6-0.3,3.9c-0.1,0.4-0.2,0.7-0.4,1.1
		c-0.4-0.1-0.7-0.4-1-0.6c-0.9-0.9-1.7-1.9-2.4-3c-1.8-2.9-3.2-6-4.3-9.3c-0.9-3-0.7-4.7-0.3-5.7C131.3,12.8,131.9,12.2,132.8,11.9
		L132.8,11.9z"/>
	<path style="clip-path:url(#SVGID_00000142887531186601303040000015119199052731577250_);fill:#EB5A53;" d="M57.4,15.8
		c2.5-6.1,5.7-6.2,7.6-5.4s4,3.1,1.5,9.2s-8.2,13.9-10.7,12.9S54.8,21.9,57.4,15.8z"/>
	<path style="clip-path:url(#SVGID_00000142887531186601303040000015119199052731577250_);fill:#1A1A1A;" d="M65.5,9.1
		c-1.5-0.6-3.2-0.6-4.7,0.2c-1.7,0.9-3.3,2.8-4.7,6c-1.4,3.4-2.3,7-2.8,10.6c-0.2,1.5-0.2,3.1-0.1,4.6c0.2,1.3,0.6,2.7,2,3.2
		s2.7-0.1,3.7-0.9c1.2-1,2.3-2.1,3.2-3.3c2.2-2.9,4.1-6.1,5.5-9.5c1.3-3.2,1.5-5.7,0.9-7.5C68.2,11,67,9.7,65.5,9.1L65.5,9.1z
		 M64.5,11.6c0.8,0.3,1.4,0.9,1.6,1.8c0.3,1,0.3,2.8-0.8,5.7c-1.3,3.1-3.1,6.1-5.2,8.8c-0.8,1-1.7,2-2.7,2.8c-0.3,0.2-0.6,0.4-1,0.5
		c-0.2-0.3-0.4-0.7-0.4-1.1c-0.1-1.3-0.1-2.6,0.1-3.9c0.4-3.4,1.3-6.7,2.6-9.9c1.2-2.9,2.5-4.1,3.4-4.6
		C62.8,11.3,63.7,11.3,64.5,11.6L64.5,11.6z"/>
	<path style="clip-path:url(#SVGID_00000142887531186601303040000015119199052731577250_);fill:#1A1A1A;" d="M97.7-19.5
		C76.5-19.5,59.2-2.2,59.2,19s17.2,38.5,38.5,38.5s38.5-17.2,38.5-38.5c0,0,0,0,0,0C136.2-2.3,119-19.5,97.7-19.5z M97.7-15.1
		c18.8,0,34.1,15.3,34.1,34.1s-15.3,34.1-34.1,34.1c-18.8,0-34.1-15.3-34.1-34.1c0,0,0,0,0,0C63.6,0.2,78.9-15.1,97.7-15.1
		C97.7-15.1,97.7-15.1,97.7-15.1z"/>
	<path style="clip-path:url(#SVGID_00000142887531186601303040000015119199052731577250_);fill:#EB5A53;" d="M133.5,18.2
		c0,1.5-0.2,19.1-10.4,24c-7.3,3.5-11.3-3.3-26.1-3.2c-13.8,0.2-17.5,6.4-24.3,3.1c-10.2-4.8-10.4-22.5-10.4-24
		c0-2.1,0.2-18.5,10.4-24c6-3.2,9.1,0.8,24,0.9c16.3,0.2,19.8-4.5,26.4-0.9C133.3-0.2,133.5,16.1,133.5,18.2z"/>
	<path style="clip-path:url(#SVGID_00000142887531186601303040000015119199052731577250_);fill:#FFFFFF;" d="M98.1-16.6
		c-15.6,0-29.4,9.8-34.6,24.5h69.2C127.5-6.8,113.7-16.6,98.1-16.6z"/>
	<path style="clip-path:url(#SVGID_00000142887531186601303040000015119199052731577250_);fill:#FFFFFF;" d="M96.2-15.8
		c-14.8,0-27.9,9.6-32.3,23.7h64.7C124-6.2,111-15.8,96.2-15.8z"/>
	<path style="clip-path:url(#SVGID_00000142887531186601303040000015119199052731577250_);fill:#FFFFFF;" d="M63.2,31.6
		C67,39,72.8,45.1,80,49.2c5.5,3.3,11.8,5.1,18.2,5.2c3.4,0,6.9-0.4,10.2-1.4c6.6-2,12.4-5.9,16.8-11.2c2.6-3,4.7-6.4,6.2-10.1
		L63.2,31.6z"/>
	<path style="clip-path:url(#SVGID_00000142887531186601303040000015119199052731577250_);fill:#FFFFFF;" d="M65.1,31.7
		c8.1,17.7,29,25.5,46.7,17.4c7.7-3.5,13.9-9.7,17.4-17.4H65.1z"/>
	<path style="clip-path:url(#SVGID_00000142887531186601303040000015119199052731577250_);fill:#1A1A1A;" d="M97.7-17.8
		C77.4-17.8,60.8-1.3,60.8,19c0,20.4,16.5,36.9,36.9,36.9c20.4,0,36.9-16.5,36.9-36.9c0,0,0,0,0,0C134.6-1.3,118.1-17.8,97.7-17.8z
		 M97.7-16.8c19.8,0,35.8,16,35.8,35.7s-16,35.8-35.7,35.8c-19.8,0-35.8-16-35.8-35.7c0,0,0-0.1,0-0.1C62-0.7,78-16.7,97.7-16.8z"/>
	<path style="clip-path:url(#SVGID_00000142887531186601303040000015119199052731577250_);fill:#1A1A1A;" d="M109.4,5.9
		c3.1,0,5.6,2.5,5.7,5.6c0,0,0,0,0,0v2.8c0,3.1-2.5,5.7-5.7,5.7c-3.1,0-5.7-2.5-5.7-5.7c0,0,0,0,0,0v-2.8
		C103.7,8.4,106.3,5.9,109.4,5.9C109.4,5.9,109.4,5.9,109.4,5.9z"/>
	<path style="clip-path:url(#SVGID_00000142887531186601303040000015119199052731577250_);fill:#FFFFFF;" d="M106.1,9.9
		c0-1,0.8-1.8,1.8-1.8c1,0,1.8,0.8,1.8,1.8s-0.8,1.8-1.8,1.8c-0.5,0-0.9-0.2-1.3-0.5C106.3,10.9,106.1,10.4,106.1,9.9z"/>
	<path style="clip-path:url(#SVGID_00000142887531186601303040000015119199052731577250_);fill:#1A1A1A;" d="M86.1,5.9
		c3.1,0,5.6,2.5,5.7,5.6c0,0,0,0,0,0v2.8c0.1,3.1-2.3,5.8-5.4,5.9s-5.8-2.3-5.9-5.4c0-0.2,0-0.3,0-0.5v-2.8
		C80.4,8.4,82.9,5.9,86.1,5.9C86,5.9,86,5.9,86.1,5.9z"/>
	<path style="clip-path:url(#SVGID_00000142887531186601303040000015119199052731577250_);fill:#FFFFFF;" d="M82.8,9.9
		c-0.1-1,0.7-1.9,1.7-2s1.9,0.7,2,1.7c0,0.1,0,0.2,0,0.3c0,1-0.8,1.8-1.8,1.8c0,0,0,0,0,0C83.6,11.8,82.8,10.9,82.8,9.9z"/>
	<path style="clip-path:url(#SVGID_00000142887531186601303040000015119199052731577250_);fill:#AF1739;" d="M91.7,21.7
		c-0.7,0-1.3,0.6-1.3,1.2c0,0,0,0,0,0.1v1.4c0,4,3.3,7.3,7.3,7.3c4,0,7.3-3.3,7.3-7.3c0,0,0,0,0,0V23c0-0.7-0.5-1.3-1.2-1.3
		c0,0,0,0,0,0L91.7,21.7z"/>
	<path style="clip-path:url(#SVGID_00000142887531186601303040000015119199052731577250_);fill:#EB5775;" d="M97.7,26.7
		c-2.1,0-4.1,0.9-5.5,2.5c2.6,3,7.2,3.4,10.3,0.7c0.3-0.2,0.5-0.5,0.7-0.7C101.9,27.6,99.9,26.7,97.7,26.7L97.7,26.7z"/>
	<path style="clip-path:url(#SVGID_00000142887531186601303040000015119199052731577250_);fill:#FFFFFF;" d="M91.7,21.7
		c-0.7,0-1.3,0.6-1.3,1.2c0,0,0,0,0,0.1v1.3c2.3,1.1,4.8,1.6,7.3,1.7c2.5,0,5-0.6,7.3-1.7V23c0-0.7-0.5-1.3-1.2-1.3c0,0,0,0,0,0
		L91.7,21.7z"/>
	<path style="clip-path:url(#SVGID_00000142887531186601303040000015119199052731577250_);fill:#BADBE9;" d="M103.1,21.7v2
		c0,0.7-0.1,1.2-0.6,1.5c0.9-0.3,1.7-0.6,2.6-1V23c0-0.7-0.5-1.3-1.2-1.3c0,0,0,0,0,0L103.1,21.7z"/>
	<path style="clip-path:url(#SVGID_00000142887531186601303040000015119199052731577250_);fill:#BADBE9;" d="M91.7,21.7
		c-0.7,0-1.3,0.6-1.3,1.2c0,0,0,0,0,0.1v1.3c1.6,0.8,3.3,1.3,5,1.5c-0.8-0.2-1.1-1.1-1.1-2.1v-2H91.7z"/>
	<path style="clip-path:url(#SVGID_00000142887531186601303040000015119199052731577250_);fill:#8BB0CC;" d="M92.4,21.7v2
		c0,0.7,0.1,1.2,0.6,1.5c-0.9-0.3-1.7-0.6-2.5-1V23c0-0.7,0.5-1.3,1.2-1.3c0,0,0,0,0,0L92.4,21.7z"/>
	<path style="clip-path:url(#SVGID_00000142887531186601303040000015119199052731577250_);fill:#1A1A1A;" d="M91.7,21.1
		c-1,0-1.8,0.8-1.8,1.8c0,0,0,0,0,0v1.4c0,4.3,3.5,7.8,7.8,7.8c4.3,0,7.8-3.5,7.8-7.8V23c0-1-0.8-1.8-1.8-1.8L91.7,21.1z
		 M103.7,22.2c0.4,0,0.7,0.3,0.7,0.7c0,0,0,0,0,0v1.4c0,3.7-3,6.7-6.7,6.7c-3.7,0-6.7-3-6.7-6.7c0,0,0,0,0,0V23
		c0-0.4,0.3-0.7,0.7-0.7c0,0,0,0,0,0L103.7,22.2z"/>
	<path style="clip-path:url(#SVGID_00000142887531186601303040000015119199052731577250_);fill:#1A1A1A;" d="M105,23.9
		c-4.6,2.3-10,2.3-14.6,0l-0.2,0.5c4.8,2.3,10.3,2.3,15.1,0C105.2,24.4,105,23.9,105,23.9z"/>
	<path style="clip-path:url(#SVGID_00000142887531186601303040000015119199052731577250_);fill:#F293A2;" d="M98.5,28.6
		c0-0.2,0.1-0.5,0.4-0.6c0.3-0.2,0.5-0.3,0.8-0.2c0.7,0,1.2,0.4,1.2,0.9s-0.5,0.9-1.2,0.9c-0.3,0-0.6-0.1-0.8-0.2
		C98.7,29.1,98.5,28.9,98.5,28.6z"/>
	<path style="clip-path:url(#SVGID_00000142887531186601303040000015119199052731577250_);fill:#FFFFFF;" d="M12,38.1h171.6
		c2.2,0,4,1.8,4,4v226.8c0,2.2-1.8,4-4,4H12c-2.2,0-4-1.8-4-4V42C8,39.8,9.8,38.1,12,38.1z"/>
	<text transform="matrix(1 0 0 1 24.16 77.55)" class="st8 st9 st10">A  B C Ć Č D </text>
	<text transform="matrix(1 0 0 1 32.65 114.55)" class="st8 st9 st10">Dz Dź Dž  E  </text>
	<text transform="matrix(1 0 0 1 25.4 151.55)" class="st8 st9 st10">F  G H Ch I J</text>
	<text transform="matrix(1 0 0 1 30.11 188.55)" class="st8 st9 st10">K L Ł M N Ń </text>
	<text transform="matrix(1 0 0 1 29.46 225.55)" class="st8 st9 st10">O P R S Ś Š </text>
	<text transform="matrix(1 0 0 1 24.24 262.55)" class="st8 st9 st10">T U Ŭ V Z Ź Ž</text>
	<path style="clip-path:url(#SVGID_00000142887531186601303040000015119199052731577250_);fill:#1A1A1A;" d="M150.8,0h29h16v16
		c0,7,0,14,0,21c-10.2,12.4-28.6,14.2-41,4S140.6,12.4,150.8,0z"/>
	<g style="clip-path:url(#SVGID_00000142887531186601303040000015119199052731577250_);enable-background:new    ;">
		<text transform="matrix(1 0 0 1 159.83 31.75)" class="st12 st9 st13">10</text>
	</g>
</g>
</svg>
