<svg id="Слой_1" data-name="Слой 1" xmlns="http://www.w3.org/2000/svg" viewBox="0 0 195.59 280.63"><defs><style>.cls-1{fill:#c67550;}.cls-2{font-size:63.62px;}.cls-2,.cls-4{fill:#1a1a1a;}.cls-15,.cls-2{font-family:Impact;}.cls-3{fill:#eb5a53;}.cls-15,.cls-5{fill:#fff;}.cls-6{fill:#eb5775;}.cls-7{fill:#f293a2;}.cls-8{fill:#cce2e9;}.cls-9{fill:#a1c7d5;}.cls-10{fill:#db9c73;}.cls-11{fill:#c9c0b7;}.cls-12{fill:#a0958a;}.cls-13{fill:#9b5341;}.cls-14{fill:#5a4540;}.cls-15{font-size:20px;}</style></defs><rect class="cls-1" x="-272.91" y="-7.57" width="487.24" height="299.27"/><text class="cls-2" transform="translate(24.83 257.69)">bigos</text><path class="cls-3" d="M78.73,168.73c0,12.35-4.12,29.91-9.2,29.91s-9.2-17.56-9.2-29.91,5.44-14.82,9.2-14.82,9.2,2.47,9.2,14.82Zm0,0"/><path class="cls-4" d="M69.53,151.35a10.44,10.44,0,0,0-8,3.68c-2.36,2.79-3.79,7.15-3.79,13.7A79.35,79.35,0,0,0,60.56,189a33.34,33.34,0,0,0,3.19,8c1.29,2.16,3,4.18,5.78,4.18s4.49-2,5.78-4.18a33.33,33.33,0,0,0,3.2-8,79.8,79.8,0,0,0,2.79-20.28c0-6.55-1.44-10.91-3.8-13.7a10.44,10.44,0,0,0-8-3.68Zm0,5.13a5,5,0,0,1,4,1.87c1.3,1.53,2.58,4.58,2.58,10.38a75.74,75.74,0,0,1-2.6,18.89,29.28,29.28,0,0,1-2.65,6.76A5.22,5.22,0,0,1,69.53,196a5.37,5.37,0,0,1-1.38-1.64,29.74,29.74,0,0,1-2.65-6.76,75.74,75.74,0,0,1-2.6-18.89c0-5.8,1.28-8.85,2.58-10.38a5,5,0,0,1,4-1.87Zm0,0"/><path class="cls-3" d="M125.24,168.73c0,12.35-4.12,29.91-9.2,29.91s-9.2-17.56-9.2-29.91,5.44-14.82,9.2-14.82,9.2,2.47,9.2,14.82Zm0,0"/><path class="cls-4" d="M116,151.35a10.44,10.44,0,0,0-8,3.68c-2.36,2.79-3.8,7.15-3.8,13.7A79.8,79.8,0,0,0,107.06,189a33.33,33.33,0,0,0,3.2,8c1.29,2.16,3,4.18,5.78,4.18s4.49-2,5.78-4.18a33.34,33.34,0,0,0,3.19-8,79.35,79.35,0,0,0,2.79-20.28c0-6.55-1.43-10.91-3.79-13.7a10.44,10.44,0,0,0-8-3.68Zm0,5.13a5,5,0,0,1,4,1.87c1.3,1.53,2.58,4.58,2.58,10.38a75.74,75.74,0,0,1-2.6,18.89,29.74,29.74,0,0,1-2.65,6.76A5.37,5.37,0,0,1,116,196a5.22,5.22,0,0,1-1.38-1.64,29.74,29.74,0,0,1-2.65-6.76,75.74,75.74,0,0,1-2.6-18.89c0-5.8,1.28-8.85,2.58-10.38a5,5,0,0,1,4.05-1.87Zm0,0"/><path class="cls-3" d="M32.48,107.42c-3.58,11.82-12.6,27.43-17.47,26s-3.72-19.47-.14-31.29,9.5-12.6,13.1-11.51,8.09,5,4.51,16.84Zm0,0"/><path class="cls-4" d="M28.76,89.48a10.42,10.42,0,0,0-8.69,1.22c-3.07,2-5.71,5.74-7.6,12a79.24,79.24,0,0,0-3.21,20.22,32.9,32.9,0,0,0,.74,8.59c.61,2.45,1.69,4.88,4.32,5.68s4.88-.63,6.75-2.33a33.58,33.58,0,0,0,5.37-6.74A79.57,79.57,0,0,0,35,109.53c1.9-6.27,1.78-10.86.33-14.21a10.43,10.43,0,0,0-6.56-5.84ZM27.27,94.4a4.92,4.92,0,0,1,3.34,3c.8,1.84,1.14,5.13-.54,10.68a75.57,75.57,0,0,1-8,17.33,29.6,29.6,0,0,1-4.5,5.7,5.44,5.44,0,0,1-1.79,1.17,5.53,5.53,0,0,1-.84-2,29.56,29.56,0,0,1-.59-7.24,75.73,75.73,0,0,1,3-18.83c1.68-5.55,3.79-8.1,5.48-9.19a4.91,4.91,0,0,1,4.41-.61Zm0,0"/><path class="cls-3" d="M168.17,101.58c4.72,11.41,7.64,29.2,2.94,31.14S155.9,120,151.17,108.62s-.64-15.77,2.83-17.21,9.44-1.24,14.17,10.17Zm0,0"/><path class="cls-4" d="M153,89a10.37,10.37,0,0,0-6,6.45c-1.12,3.48-.78,8.06,1.73,14.11a79.43,79.43,0,0,0,10.34,17.67,33.42,33.42,0,0,0,6,6.17c2,1.51,4.41,2.71,6.95,1.66s3.37-3.59,3.74-6.08a33.12,33.12,0,0,0-.12-8.63,79.52,79.52,0,0,0-5.18-19.8c-2.51-6-5.5-9.53-8.75-11.2A10.4,10.4,0,0,0,153,89Zm2,4.74a5,5,0,0,1,4.46.18c1.79.92,4.14,3.24,6.36,8.6A76,76,0,0,1,170.63,121a30,30,0,0,1,.13,7.26,5.22,5.22,0,0,1-.65,2,5.53,5.53,0,0,1-1.9-1,30,30,0,0,1-5-5.23,76,76,0,0,1-9.63-16.46c-2.22-5.35-2.2-8.66-1.58-10.57a4.91,4.91,0,0,1,3-3.28Zm0,0"/><path class="cls-4" d="M92.79,35.6a72,72,0,1,0,72,72,72.11,72.11,0,0,0-72-72Zm0,8.21A63.83,63.83,0,1,1,29,107.64,63.77,63.77,0,0,1,92.79,43.81Zm0,0"/><path class="cls-3" d="M45.39,61.12c12.26-6.78,18.92,2,49.33,1.71,27.81-.3,33.64-7.78,44.9-1.71,19.07,10.29,19.51,41,19.51,44.9,0,2.76-.34,35.88-19.51,44.9-12.81,6-19.58-5.51-45.48-5.87-27.53-.38-35.12,12.44-48.75,5.87-19.18-9.25-19.52-42.08-19.51-44.9C25.89,102.15,26.33,71.67,45.39,61.12ZM25.88,106"/><path class="cls-5" d="M92.06,41A68.64,68.64,0,0,0,27.39,86.8H156.71A68.65,68.65,0,0,0,92.06,41Zm0,0"/><path class="cls-5" d="M95.64,42.53A63.48,63.48,0,0,0,35.2,86.8H156.13A63.46,63.46,0,0,0,95.64,42.53Zm0,0"/><path class="cls-5" d="M30,131.22a71.84,71.84,0,0,0,11.64,18.9c3.6,4.19,13.75,15.71,31.33,21A64.39,64.39,0,0,0,92,173.74c16.71-.19,28.8-6.82,34-9.73a80.06,80.06,0,0,0,31.29-32.79Zm127.28,0"/><path class="cls-5" d="M153.84,131.33,34,131.33a65.89,65.89,0,0,0,119.86,0Z"/><path class="cls-4" d="M92.79,38.68a69,69,0,1,0,69,69,69,69,0,0,0-69-69Zm0,2a66.91,66.91,0,1,1-66.91,66.91A66.89,66.89,0,0,1,92.79,40.73Zm0,0"/><path class="cls-4" d="M111.71,98.34a9.13,9.13,0,0,0-9.16,9.16v7.57h18.32V107.5a9.13,9.13,0,0,0-9.16-9.16Zm0,0"/><path class="cls-5" d="M106.38,104.91a3,3,0,1,1,3,3,3,3,0,0,1-3-3Zm0,0"/><path class="cls-4" d="M73.9,98.34a9.13,9.13,0,0,0-9.16,9.16v7.57H83.06V107.5a9.13,9.13,0,0,0-9.16-9.16Zm0,0"/><path class="cls-5" d="M68.57,104.91a3,3,0,1,1,3,3,3,3,0,0,1-3-3Zm0,0"/><path class="cls-6" d="M89.48,116.52a5.53,5.53,0,0,0-5.54,5.54A10.25,10.25,0,0,0,95,126.93v-4.87a5.52,5.52,0,0,0-5.53-5.54Zm0,0"/><path class="cls-4" d="M89.48,115.63a6.43,6.43,0,0,0-6.43,6.43v.24l.12.2a11.22,11.22,0,0,0,2.47,3l1.15-1.36a9.37,9.37,0,0,1-1.93-2.27,4.63,4.63,0,0,1,9.26.24v4.87H95.9v-4.87a6.43,6.43,0,0,0-6.42-6.43Zm0,0"/><rect class="cls-4" x="89.03" y="121.83" width="0.89" height="4.79"/><path class="cls-7" d="M92.5,120.37a1.19,1.19,0,1,1-1.18-1.19,1.18,1.18,0,0,1,1.18,1.19Zm0,0"/><path class="cls-4" d="M100.89,121.61a9.34,9.34,0,0,1-16.18,0l-1.54.89a11.12,11.12,0,0,0,19.26,0l-1.54-.89Zm0,0"/><path class="cls-4" d="M92.8,11.91h0a20.6,20.6,0,0,0-16.37,8.16,16.91,16.91,0,0,0-4.64-.68h0a16.84,16.84,0,1,0,0,33.67h0a16.85,16.85,0,0,0,11.65-4.7l-3.7-3.85a11.5,11.5,0,1,1-3.34-18.8l2.16,1,1.21-2a15.2,15.2,0,0,1,26.08,0l1.21,2,2.16-.95a11.31,11.31,0,0,1,4.62-1,11.5,11.5,0,1,1-8,19.78l-3.7,3.85a16.85,16.85,0,0,0,11.67,4.7h0a16.84,16.84,0,0,0,0-33.67h0a16.6,16.6,0,0,0-4.65.67,20.61,20.61,0,0,0-16.36-8.15Zm0,0"/><path class="cls-4" d="M75,43.23A5.85,5.85,0,0,0,69.24,49V59.61A5.85,5.85,0,0,0,75,65.42h35.52a5.85,5.85,0,0,0,5.81-5.81V49a5.85,5.85,0,0,0-5.81-5.81Zm35.52,5.34A.42.42,0,0,1,111,49V59.61a.42.42,0,0,1-.47.47H75a.42.42,0,0,1-.47-.47V49a.42.42,0,0,1,.47-.47Zm0,0"/><path class="cls-5" d="M110.56,45.9A3.13,3.13,0,0,1,113.7,49V59.61a3.13,3.13,0,0,1-3.14,3.14H75a3.13,3.13,0,0,1-3.14-3.14V49A3.13,3.13,0,0,1,75,45.9Zm0,0"/><path class="cls-8" d="M75,45.9A3.13,3.13,0,0,0,71.9,49v5.8a18.92,18.92,0,0,0,9.88-2.94,22.14,22.14,0,0,0,22,0,18.89,18.89,0,0,0,9.87,2.94V49a3.13,3.13,0,0,0-3.14-3.14Zm35.52,0"/><path class="cls-8" d="M75,45.9A3.13,3.13,0,0,0,71.9,49V59.61A3.13,3.13,0,0,0,75,62.75H88.36a3.13,3.13,0,0,1-3.14-3.14V49a3.13,3.13,0,0,1,3.14-3.14Zm13.32,0"/><path class="cls-9" d="M113.7,56.76a3.13,3.13,0,0,1-3.14,3.14H75a3.13,3.13,0,0,1-3.14-3.14v2.85A3.13,3.13,0,0,0,75,62.75h35.52a3.13,3.13,0,0,0,3.14-3.14V56.76Zm0,0"/><path class="cls-9" d="M75,45.9A3.13,3.13,0,0,0,71.9,49V59.61A3.13,3.13,0,0,0,75,62.75h4.78a3.13,3.13,0,0,1-3.14-3.14V49a3.13,3.13,0,0,1,3.14-3.14Zm4.78,0"/><path class="cls-4" d="M75,45a4,4,0,0,0-4,4V59.61a4,4,0,0,0,4,4h35.52a4,4,0,0,0,4-4V49a4,4,0,0,0-4-4Zm35.52,1.78A2.22,2.22,0,0,1,112.81,49V59.61a2.22,2.22,0,0,1-2.25,2.25H75a2.23,2.23,0,0,1-2.25-2.25V49A2.23,2.23,0,0,1,75,46.79Zm0,0"/><path class="cls-8" d="M57.61,36.23A14.17,14.17,0,1,1,71.78,50.39,14.16,14.16,0,0,1,57.61,36.23Zm0,0"/><path class="cls-9" d="M71.78,22.06A14.17,14.17,0,1,0,86,36.23,14.16,14.16,0,0,0,71.78,22.06Zm-.39.44A12.15,12.15,0,1,1,59.2,34.65,12.15,12.15,0,0,1,71.39,22.5Zm0,0"/><path class="cls-5" d="M60.94,32.82A10.09,10.09,0,1,1,71,42.91,10.08,10.08,0,0,1,60.94,32.82Zm0,0"/><path class="cls-8" d="M74.9,32.49a17.91,17.91,0,1,1,17.9,17.9,17.91,17.91,0,0,1-17.9-17.9Zm0,0"/><path class="cls-8" d="M99.66,36.23a14.17,14.17,0,1,1,14.17,14.16A14.16,14.16,0,0,1,99.66,36.23Zm0,0"/><path class="cls-5" d="M113.83,22.06a14.17,14.17,0,0,0-9,3.2,12,12,0,1,0,22.57,7,14.16,14.16,0,0,0-13.6-10.21Zm0,0"/><path class="cls-4" d="M106.3,42.85a17,17,0,0,1-27,0l-1.41,1.08a18.81,18.81,0,0,0,29.83,0l-1.42-1.08Zm0,0"/><path class="cls-5" d="M92.51,14.09a18.2,18.2,0,0,0-17.9,15,19.44,19.44,0,0,0,36,5.43,17.6,17.6,0,0,0,.13-2.18,18.2,18.2,0,0,0-18.2-18.2Zm0,0"/><path class="cls-4" d="M92.8,13.69a18.78,18.78,0,0,0-15.67,8.48,15.06,15.06,0,0,0-5.35-1h0a15.06,15.06,0,1,0,0,30.11h0A15,15,0,0,0,82.2,47.07L81,45.79a13.28,13.28,0,1,1-3.85-21.71l.72.32.4-.67a17,17,0,0,1,29.14,0l.4.68.72-.32a13.27,13.27,0,1,1-3.86,21.71l-1.24,1.29a15.06,15.06,0,1,0,10.44-25.91h0a15.07,15.07,0,0,0-5.36,1A18.79,18.79,0,0,0,92.8,13.69Zm0,0"/><path class="cls-4" d="M181.41,69.21a4.1,4.1,0,0,0-4,4.07l.07,7.35a4,4,0,1,0,8.06-.07l-.07-7.35a4.08,4.08,0,0,0-4.06-4Zm0,0"/><path class="cls-4" d="M176.76,68.34a4.07,4.07,0,0,0-4,4.06l.08,9.19a4,4,0,0,0,8.06-.07l-.08-9.19a4.09,4.09,0,0,0-4.07-4Zm0,0"/><path class="cls-4" d="M167.5,69.33a4.11,4.11,0,0,1,4.07,4l.06,7.35a4,4,0,1,1-8.06.07l-.07-7.35a4.1,4.1,0,0,1,4-4.07Zm0,0"/><path class="cls-4" d="M172.13,68.38a4.07,4.07,0,0,1,4.06,4l.08,9.19a4,4,0,0,1-8.06.07l-.08-9.19a4.08,4.08,0,0,1,4-4.06Zm0,0"/><path class="cls-4" d="M171.61,92.53A3.51,3.51,0,0,0,168.19,96l.32,36.85a6.5,6.5,0,1,0,13-.11l-.32-36.85a3.51,3.51,0,0,0-3.47-3.42Zm3.66,40.26c0,.2-.06.27-.26.27s-.27-.06-.27-.26l-.3-34.07H175ZM175,98.72"/><path class="cls-4" d="M164.05,64.79a5.06,5.06,0,0,0-5,5l.06,7A15.71,15.71,0,0,0,164.85,89c2.38,2.15,3.64,2.78,3.67,6.72l6.1-.06h.13l6.09,0c0-3.94,1.22-4.59,3.55-6.78A15.73,15.73,0,0,0,189.9,76.6l-.06-7a5.07,5.07,0,0,0-5.06-5Zm19.62,11.87c0,4.57-1.3,5.48-3.54,7.58-2.07,1.94-5,5-5.46,10.06-.5-5.07-3.53-8.06-5.63-10-2.28-2.06-3.64-3-3.67-7.53L165.31,71l18.31-.16Zm0-5.82"/><path class="cls-1" d="M171.63,95.64a.32.32,0,0,0-.32.33q.15,18.44.32,36.85a3.38,3.38,0,0,0,6.76,0q-.16-18.44-.32-36.85a.34.34,0,0,0-.34-.33Zm6.1,0"/><path class="cls-10" d="M176,95.6l.33,38.12a3.23,3.23,0,0,1-.19,1.17,3.33,3.33,0,0,0,1.16-2.57L177,95.59Zm1,0"/><path class="cls-11" d="M164.07,67.9a1.89,1.89,0,0,0-1.88,1.92l.06,7c.1,10.91,9.3,9,9.38,18.8l6.1,0c-.08-9.83,9.15-8.06,9.05-19l-.06-7a1.89,1.89,0,0,0-1.91-1.88Zm12.72,3.55a.92.92,0,0,1,.93.91l.08,9.19a.92.92,0,0,1-1.84,0l-.08-9.19a.92.92,0,0,1,.91-.92Zm-4.64,0a.91.91,0,0,1,.93.91l.08,9.19a.92.92,0,0,1-1.84,0l-.08-9.18a.92.92,0,0,1,.91-.93Zm9.28.84a.91.91,0,0,1,.93.91l.07,7.35a.92.92,0,0,1-1.84,0l-.07-7.35a.92.92,0,0,1,.91-.92Zm-13.9.12a.9.9,0,0,1,.92.91l.07,7.35a.92.92,0,0,1-1.84,0l-.06-7.35a.91.91,0,0,1,.91-.92Zm0,0"/><path class="cls-5" d="M176.11,71a1.37,1.37,0,0,0-1.35,1.37l.08,9.19a1.36,1.36,0,0,0,2.45.8.91.91,0,0,1-1.33-.81l-.08-9.19a.92.92,0,0,1,.91-.92,1,1,0,0,1,.41.09,1.4,1.4,0,0,0-1.09-.53Zm-4.64,0a1.37,1.37,0,0,0-1.35,1.38l.08,9.18A1.37,1.37,0,0,0,171.58,83a1.33,1.33,0,0,0,1.07-.55.88.88,0,0,1-.4.1.92.92,0,0,1-.93-.91l-.08-9.18a.92.92,0,0,1,.91-.93.91.91,0,0,1,.41.09,1.39,1.39,0,0,0-1.09-.53Zm9.28.84a1.37,1.37,0,0,0-1.35,1.37l.07,7.35a1.36,1.36,0,0,0,2.45.8.91.91,0,0,1-1.33-.81l-.07-7.35a.92.92,0,0,1,.92-.92.78.78,0,0,1,.4.09,1.33,1.33,0,0,0-1.09-.53ZM166.84,72a1.37,1.37,0,0,0-1.35,1.37l.07,7.35a1.36,1.36,0,0,0,2.45.8.91.91,0,0,1-1.33-.81l-.06-7.35a.91.91,0,0,1,1.31-.83,1.33,1.33,0,0,0-1.09-.53Zm0,0"/><path class="cls-12" d="M164.07,67.9a1.89,1.89,0,0,0-1.88,1.92l24.53-.22a1.89,1.89,0,0,0-1.91-1.88Zm20.74-.18"/><path class="cls-12" d="M166.35,86.09c2.51,2.34,5.24,4.21,5.28,9.55l6.1,0c0-5.34,2.65-7.26,5.12-9.64Zm16.5-.14"/><path class="cls-5" d="M183.53,67.73a1.89,1.89,0,0,1,1.91,1.88l.06,7c.1,10.56-9.14,8-9.05,19h1.28c-.08-9.83,9.15-8.06,9.06-19l-.07-7a1.89,1.89,0,0,0-1.91-1.88Zm1.28,0"/><path class="cls-13" d="M171.63,95.64a.32.32,0,0,0-.32.33l.32,36.85a3.39,3.39,0,0,0,4.25,3.24s-2.53.13-2.56-3.25L173,96a.32.32,0,0,1,.32-.33Zm1.69,0"/><path class="cls-10" d="M171.63,95.64a.32.32,0,0,0-.32.33l.32,36.85a3.37,3.37,0,0,0,3.07,3.34,3.28,3.28,0,0,1-3-3.24l-.31-35.8a.32.32,0,0,1,.32-.33l5.93-.05a.32.32,0,0,1,.32.32l.31,35.8a3.26,3.26,0,0,1-2.92,3.29,3.37,3.37,0,0,0,3-3.38l-.32-36.85a.34.34,0,0,0-.34-.33Zm6.1,0"/><path class="cls-4" d="M171.63,95.2a.79.79,0,0,0-.77.78l.32,36.85a3.83,3.83,0,1,0,7.65-.07l-.32-36.85a.79.79,0,0,0-.78-.77Zm6.31,37.57a2.94,2.94,0,0,1-5.87,0l-.32-36.74,5.87,0ZM177.62,96"/><path class="cls-14" d="M173.91,104.59a.81.81,0,0,1,.24-.6.83.83,0,0,1,.6-.26.86.86,0,0,1,.61.25.85.85,0,0,1,.26.6.86.86,0,1,1-1.71,0Zm0,0"/><path class="cls-4" d="M174.75,103.51a1.08,1.08,0,1,0,1.09,1.07,1.08,1.08,0,0,0-1.09-1.07Zm0,.44a.64.64,0,1,1-.63.64.64.64,0,0,1,.63-.64Zm0,0"/><path class="cls-4" d="M164.07,67.46a2.34,2.34,0,0,0-2.32,2.36l.06,7c.05,5.57,2.51,8,4.84,10.12s4.5,3.9,4.54,8.67h.89c-.05-5.06-2.52-7.22-4.84-9.33s-4.5-4.14-4.54-9.47l-.06-7a1.44,1.44,0,0,1,1.44-1.47l20.73-.18a1.46,1.46,0,0,1,1.47,1.45l.06,7c0,5.33-2.1,7.42-4.38,9.56s-4.72,4.35-4.67,9.4h.89c-.05-4.77,2.09-6.59,4.39-8.74s4.71-4.64,4.66-10.22l-.06-7a2.36,2.36,0,0,0-2.37-2.33Zm20.73-.19"/><path class="cls-14" d="M173.86,99.07a.84.84,0,0,1,.85-.86.86.86,0,0,1,0,1.71.88.88,0,0,1-.61-.25.84.84,0,0,1-.25-.6Zm0,0"/><path class="cls-4" d="M174.7,98a1.08,1.08,0,1,0,1.09,1.06A1.06,1.06,0,0,0,174.7,98Zm0,.44a.64.64,0,0,1,0,1.27.64.64,0,0,1,0-1.27Zm0,0"/><path class="cls-4" d="M181.43,71.88a1.37,1.37,0,0,0-1.35,1.38l.06,7.35a1.37,1.37,0,1,0,2.73,0l-.06-7.35a1.38,1.38,0,0,0-1.38-1.35Zm0,.89a.47.47,0,0,1,.48.47l.06,7.35a.47.47,0,0,1-.47.48.47.47,0,0,1-.48-.47L181,73.25a.47.47,0,0,1,.47-.48Zm0,0"/><path class="cls-4" d="M176.79,71a1.37,1.37,0,0,0-1.35,1.38l.08,9.18a1.36,1.36,0,1,0,2.72,0l-.08-9.19A1.37,1.37,0,0,0,176.79,71Zm0,.89a.46.46,0,0,1,.47.47l.08,9.19a.47.47,0,0,1-.47.48.46.46,0,0,1-.47-.47l-.08-9.19a.46.46,0,0,1,.47-.48Zm0,0"/><path class="cls-4" d="M167.52,72a1.38,1.38,0,0,1,1.38,1.35L169,80.7a1.37,1.37,0,1,1-2.73,0l-.06-7.35A1.37,1.37,0,0,1,167.52,72Zm0,.89a.47.47,0,0,0-.47.48l.06,7.35a.47.47,0,0,0,.48.47.47.47,0,0,0,.47-.48L168,73.36a.47.47,0,0,0-.48-.47Zm0,0"/><path class="cls-4" d="M172.15,71a1.39,1.39,0,0,1,1.38,1.36l.08,9.18a1.37,1.37,0,0,1-2.73,0l-.08-9.19A1.37,1.37,0,0,1,172.15,71Zm0,.89a.47.47,0,0,0-.47.48l.08,9.19a.48.48,0,0,0,.95,0l-.08-9.19a.47.47,0,0,0-.48-.47Zm0,0"/><path class="cls-4" d="M127.15,148.22a6.19,6.19,0,1,0-12.37,0v9.22a6.19,6.19,0,1,0,12.37,0Zm0,9.22"/><path class="cls-4" d="M70.83,148.22a6.19,6.19,0,1,0-12.37,0v9.22a6.19,6.19,0,1,0,12.37,0Zm0,9.22"/><path class="cls-4" d="M58.81,150.8,57,186h71.69L127,153.75l-.16-2.95Zm63.28,29H63.52L64.71,157h56.18ZM120.89,157"/><path class="cls-8" d="M124,157.44a3.08,3.08,0,0,1-6.15,0v-9.22a3.08,3.08,0,0,1,6.15,0v9.22Zm0,0"/><path class="cls-4" d="M124.48,148.22a3.52,3.52,0,1,0-7,0v9.22a3.52,3.52,0,1,0,7,0Zm-.89,9.22a2.63,2.63,0,1,1-5.25,0v-9.22a2.63,2.63,0,1,1,5.25,0v9.22Zm0,0"/><path class="cls-8" d="M67.71,157.44a3.07,3.07,0,1,1-6.14,0v-9.22a3.07,3.07,0,1,1,6.14,0v9.22Zm0,0"/><path class="cls-4" d="M68.16,148.22a3.52,3.52,0,1,0-7,0v9.22a3.52,3.52,0,1,0,7,0Zm-.89,9.22a2.63,2.63,0,1,1-5.26,0v-9.22a2.63,2.63,0,1,1,5.26,0v9.22Zm0,0"/><path class="cls-5" d="M61.76,153.91l-1.52,29h65.13l-1.52-29Zm62.09,0"/><path class="cls-8" d="M115,153.91l1.53,29h8.8l-1.52-29Zm8.81,0"/><path class="cls-8" d="M61.76,153.91l-1.52,29H74.46l1.42-29Zm14.12,0"/><path class="cls-8" d="M61,169.19l-.27,5.07h64.22l-.26-5.07Zm63.69,0"/><path class="cls-8" d="M115.85,169.19l.26,5.07h8.8l-.26-5.07Zm8.8,0"/><path class="cls-8" d="M61,169.19l-.27,5.07H74.88l.25-5.07Zm14.17,0"/><path class="cls-4" d="M61.34,153.46l-1.57,29.9h66.07l-1.55-29.47,0-.43Zm63.56,29H60.71l1.47-28.12h61.25Zm-1.47-28.12"/><path class="cls-5" d="M121,156.21a1.23,1.23,0,0,1,1.23,1.23,1.24,1.24,0,0,1-.36.87,1.22,1.22,0,0,1-1.73,0,1.24,1.24,0,0,1-.36-.87,1.23,1.23,0,0,1,1.22-1.23Zm0,0"/><path class="cls-4" d="M122.64,157.44a1.68,1.68,0,1,0-1.68,1.67,1.68,1.68,0,0,0,1.68-1.67Zm-.89,0a.79.79,0,1,1-.79-.78.78.78,0,0,1,.79.78Zm0,0"/><path class="cls-5" d="M64.64,156.21a1.23,1.23,0,0,1,1.23,1.23,1.24,1.24,0,0,1-.36.87,1.23,1.23,0,0,1-.87.36,1.24,1.24,0,0,1-.87-.36,1.28,1.28,0,0,1-.35-.87,1.22,1.22,0,0,1,1.22-1.23Zm0,0"/><path class="cls-4" d="M66.31,157.44a1.67,1.67,0,1,0-1.67,1.67,1.67,1.67,0,0,0,1.67-1.67Zm-.89,0a.78.78,0,1,1-.78-.78.77.77,0,0,1,.78.78Zm0,0"/><path class="cls-4" d="M60.54,168.74l-.32,6h65.16l-.29-5.55,0-.42Zm63.91,5.08H61.16l.22-4.19h62.85Zm-.22-4.19"/><rect class="cls-8" x="83.14" y="158.31" width="19.34" height="2.54"/><path class="cls-4" d="M45,0,16,0H.07l0,16c0,7,0,14,0,21A29.1,29.1,0,0,0,51.54,18.3,28.91,28.91,0,0,0,45,0Z"/><text class="cls-15" transform="translate(15.65 31.75)">12</text></svg>