<svg id="Слой_1" data-name="Слой 1" xmlns="http://www.w3.org/2000/svg" viewBox="0 0 195.59 280.63"><defs><style>.cls-1{fill:#c67550;}.cls-2{font-size:63.62px;}.cls-2,.cls-4{fill:#1a1a1a;}.cls-15,.cls-2{font-family:Impact;}.cls-3{fill:#eb5a53;}.cls-15,.cls-5{fill:#fff;}.cls-6{fill:#eb5775;}.cls-7{fill:#f293a2;}.cls-8{fill:#cce2e9;}.cls-9{fill:#a1c7d5;}.cls-10{fill:#db9c73;}.cls-11{fill:#c9c0b7;}.cls-12{fill:#a0958a;}.cls-13{fill:#9b5341;}.cls-14{fill:#5a4540;}.cls-15{font-size:20px;}</style></defs><rect class="cls-1" x="-5.79" y="-7.57" width="487.24" height="299.27"/><text class="cls-2" transform="translate(24.83 258.71)">bigos</text><path class="cls-3" d="M91.52,170.26c0,12.17-4.06,29.47-9.07,29.47s-9.07-17.3-9.07-29.47,5.36-14.61,9.07-14.61,9.07,2.43,9.07,14.61Zm0,0"/><path class="cls-4" d="M82.45,153.12a10.31,10.31,0,0,0-7.86,3.63c-2.32,2.75-3.74,7.05-3.74,13.51a78.28,78.28,0,0,0,2.75,20,32.83,32.83,0,0,0,3.15,7.9c1.27,2.13,3,4.13,5.7,4.13s4.42-2,5.7-4.13a32.83,32.83,0,0,0,3.15-7.9,78.78,78.78,0,0,0,2.75-20c0-6.46-1.42-10.76-3.75-13.51a10.27,10.27,0,0,0-7.85-3.63Zm0,5.06a4.86,4.86,0,0,1,4,1.85c1.28,1.51,2.55,4.51,2.55,10.23a74.58,74.58,0,0,1-2.57,18.62,29.24,29.24,0,0,1-2.61,6.66,5.12,5.12,0,0,1-1.36,1.61,5,5,0,0,1-1.36-1.61,29.66,29.66,0,0,1-2.62-6.66,75,75,0,0,1-2.56-18.62c0-5.72,1.26-8.72,2.55-10.23a4.86,4.86,0,0,1,4-1.85Zm0,0"/><path class="cls-3" d="M137.36,170.26c0,12.17-4.06,29.47-9.07,29.47s-9.07-17.3-9.07-29.47,5.36-14.61,9.07-14.61,9.07,2.43,9.07,14.61Zm0,0"/><path class="cls-4" d="M128.29,153.12a10.27,10.27,0,0,0-7.85,3.63c-2.33,2.75-3.75,7.05-3.75,13.51a78.72,78.72,0,0,0,2.75,20,32.83,32.83,0,0,0,3.15,7.9c1.28,2.13,3,4.13,5.7,4.13s4.42-2,5.7-4.13a32.83,32.83,0,0,0,3.15-7.9,78.34,78.34,0,0,0,2.75-20c0-6.46-1.42-10.76-3.74-13.51a10.31,10.31,0,0,0-7.86-3.63Zm0,5.06a4.86,4.86,0,0,1,4,1.85c1.28,1.51,2.55,4.51,2.55,10.23a75,75,0,0,1-2.56,18.62,29.66,29.66,0,0,1-2.62,6.66,5.12,5.12,0,0,1-1.36,1.61,5.12,5.12,0,0,1-1.36-1.61,29.24,29.24,0,0,1-2.61-6.66,74.58,74.58,0,0,1-2.57-18.62c0-5.72,1.27-8.72,2.55-10.23a4.86,4.86,0,0,1,4-1.85Zm0,0"/><path class="cls-3" d="M45.93,109.82c-3.53,11.66-12.43,27-17.22,25.59s-3.67-19.19-.14-30.84,9.36-12.42,12.91-11.35,8,5,4.45,16.6Zm0,0"/><path class="cls-4" d="M42.26,92.14a10.28,10.28,0,0,0-8.57,1.2c-3,2-5.62,5.66-7.49,11.84A78.35,78.35,0,0,0,23,125.11a32.88,32.88,0,0,0,.72,8.47c.61,2.41,1.67,4.81,4.27,5.6s4.81-.63,6.65-2.3a33.18,33.18,0,0,0,5.3-6.64A79,79,0,0,0,48.4,111.9c1.87-6.18,1.76-10.7.33-14a10.28,10.28,0,0,0-6.47-5.75ZM40.8,97a4.84,4.84,0,0,1,3.28,2.92c.79,1.81,1.13,5.06-.53,10.53a75,75,0,0,1-7.84,17.08,29.39,29.39,0,0,1-4.44,5.62,5.51,5.51,0,0,1-1.76,1.15,5.24,5.24,0,0,1-.84-1.94,29.42,29.42,0,0,1-.57-7.14A74.87,74.87,0,0,1,31,106.65c1.66-5.47,3.74-8,5.4-9.06A4.89,4.89,0,0,1,40.8,97Zm0,0"/><path class="cls-3" d="M179.68,104.06c4.65,11.25,7.53,28.79,2.9,30.71s-15-12.52-19.66-23.77-.64-15.54,2.79-17,9.31-1.22,14,10Zm0,0"/><path class="cls-4" d="M164.74,91.7a10.31,10.31,0,0,0-5.87,6.36c-1.09,3.43-.76,8,1.71,13.91a78.88,78.88,0,0,0,10.19,17.41,33.59,33.59,0,0,0,5.93,6.1c2,1.48,4.34,2.66,6.85,1.62s3.32-3.53,3.69-6a33,33,0,0,0-.12-8.5A78.27,78.27,0,0,0,182,103.09c-2.47-6-5.42-9.39-8.62-11a10.31,10.31,0,0,0-8.65-.35Zm1.94,4.68a4.85,4.85,0,0,1,4.39.17c1.76.91,4.08,3.2,6.27,8.48a74.86,74.86,0,0,1,4.76,18.18,29.71,29.71,0,0,1,.13,7.16,5.13,5.13,0,0,1-.64,2,5.11,5.11,0,0,1-1.87-1,29.09,29.09,0,0,1-5-5.15A74.73,74.73,0,0,1,165.26,110c-2.19-5.28-2.17-8.53-1.57-10.42a4.9,4.9,0,0,1,3-3.23Zm0,0"/><path class="cls-4" d="M105.37,39a71,71,0,1,0,71,71,71.07,71.07,0,0,0-71-71Zm0,8.1A62.91,62.91,0,1,1,42.46,110a62.85,62.85,0,0,1,62.91-62.91Zm0,0"/><path class="cls-5" d="M172.33,110a67,67,0,1,1-19.61-47.35A67,67,0,0,1,172.33,110Zm0,0"/><path class="cls-5" d="M163.82,106.55a61.93,61.93,0,1,1-18.14-43.8,61.93,61.93,0,0,1,18.14,43.8Zm0,0"/><path class="cls-3" d="M38.41,110a67,67,0,1,0,133.92,0Zm0,0"/><path class="cls-3" d="M40.06,110a61.89,61.89,0,0,0,123.59,0Zm0,0"/><path class="cls-4" d="M105.37,42.07a68,68,0,1,0,68,68,68,68,0,0,0-68-68Zm0,2a66,66,0,1,1-65.95,66,65.93,65.93,0,0,1,66-65.95Zm0,0"/><path class="cls-4" d="M40.54,128.11l1-.13,1.78,13.49-1,.13Zm0,0"/><path class="cls-4" d="M86.32,99.31a9.15,9.15,0,0,0-9.17,9.16V116H95.48v-7.57a9.15,9.15,0,0,0-9.16-9.16Zm0,0"/><path class="cls-5" d="M91.65,105.88a3,3,0,1,1-3-3,3,3,0,0,1,3,3Zm0,0"/><path class="cls-4" d="M124.13,99.31a9.15,9.15,0,0,0-9.17,9.16V116h18.33v-7.57a9.15,9.15,0,0,0-9.16-9.16Zm0,0"/><path class="cls-5" d="M129.46,105.88a3,3,0,1,1-3-3,3,3,0,0,1,3,3Zm0,0"/><path class="cls-6" d="M108.55,117.5A5.52,5.52,0,0,0,103,123v4.88A10.22,10.22,0,0,0,114.08,123a5.52,5.52,0,0,0-5.53-5.53Zm0,0"/><path class="cls-4" d="M108.55,116.61a6.43,6.43,0,0,0-6.42,6.42v4.88h1.78V123a4.63,4.63,0,0,1,9.26-.24,9.37,9.37,0,0,1-1.93,2.27l1.15,1.36a11.11,11.11,0,0,0,2.46-2.94l.12-.21V123a6.43,6.43,0,0,0-6.42-6.42Zm0,0"/><rect class="cls-4" x="108.11" y="122.8" width="0.89" height="4.79"/><path class="cls-7" d="M105.53,121.34a1.18,1.18,0,1,1,1.18,1.18,1.18,1.18,0,0,1-1.18-1.18Zm0,0"/><path class="cls-4" d="M97.13,122.59l-1.54.88a11.11,11.11,0,0,0,19.26,0l-1.54-.88a9.34,9.34,0,0,1-16.18,0Zm0,0"/><path class="cls-4" d="M105.22,12.89A20.58,20.58,0,0,0,88.86,21a17.44,17.44,0,0,0-4.66-.67h0A16.84,16.84,0,0,0,84.2,54h0a16.88,16.88,0,0,0,11.67-4.71l-3.7-3.84a11.51,11.51,0,1,1-3.35-18.81l2.15.95,1.22-2a15.19,15.19,0,0,1,26.08,0l1.21,2,2.16-.95a11.49,11.49,0,1,1-3.34,18.79l-3.7,3.85A16.84,16.84,0,0,0,126.24,54h0a16.84,16.84,0,0,0,0-33.68h0a17,17,0,0,0-4.65.68,20.59,20.59,0,0,0-16.36-8.16h0Zm0,0"/><path class="cls-4" d="M87.46,44.2A5.85,5.85,0,0,0,81.66,50V60.58a5.85,5.85,0,0,0,5.8,5.81H123a5.85,5.85,0,0,0,5.81-5.81V50A5.86,5.86,0,0,0,123,44.2Zm0,5.34H123a.42.42,0,0,1,.47.47V60.58a.42.42,0,0,1-.47.47H87.46a.42.42,0,0,1-.47-.47V50a.42.42,0,0,1,.47-.47Zm0,0"/><path class="cls-5" d="M87.46,46.87H123A3.13,3.13,0,0,1,126.12,50V60.58A3.13,3.13,0,0,1,123,63.72H87.46a3.13,3.13,0,0,1-3.14-3.14V50a3.13,3.13,0,0,1,3.14-3.14Zm0,0"/><path class="cls-8" d="M87.46,46.87A3.13,3.13,0,0,0,84.32,50v5.8a18.85,18.85,0,0,0,9.87-2.93,22.23,22.23,0,0,0,22.06,0,18.88,18.88,0,0,0,9.87,2.93V50A3.13,3.13,0,0,0,123,46.87Zm0,0"/><path class="cls-8" d="M109.66,46.87A3.13,3.13,0,0,1,112.8,50V60.58a3.13,3.13,0,0,1-3.14,3.14H123a3.13,3.13,0,0,0,3.14-3.14V50A3.13,3.13,0,0,0,123,46.87Zm0,0"/><path class="cls-9" d="M84.32,57.74v2.84a3.13,3.13,0,0,0,3.14,3.14H123a3.13,3.13,0,0,0,3.14-3.14V57.74A3.13,3.13,0,0,1,123,60.88H87.46a3.13,3.13,0,0,1-3.14-3.14Zm0,0"/><path class="cls-9" d="M118.21,46.87A3.13,3.13,0,0,1,121.35,50V60.58a3.13,3.13,0,0,1-3.14,3.14H123a3.13,3.13,0,0,0,3.14-3.14V50A3.13,3.13,0,0,0,123,46.87Zm0,0"/><path class="cls-4" d="M87.46,46a4,4,0,0,0-4,4V60.58a4,4,0,0,0,4,4H123a4,4,0,0,0,4-4V50a4,4,0,0,0-4-4Zm0,1.78H123A2.23,2.23,0,0,1,125.23,50V60.58A2.22,2.22,0,0,1,123,62.83H87.46a2.22,2.22,0,0,1-2.25-2.25V50a2.23,2.23,0,0,1,2.25-2.25Zm0,0"/><path class="cls-8" d="M140.41,37.2A14.17,14.17,0,1,1,126.25,23,14.17,14.17,0,0,1,140.41,37.2Zm0,0"/><path class="cls-9" d="M126.25,23a14.15,14.15,0,1,0,10,4.15,14.17,14.17,0,0,0-10-4.15Zm.39.44h0a12.15,12.15,0,1,1-12.15,12.15,12.15,12.15,0,0,1,12.15-12.15Zm0,0"/><path class="cls-5" d="M137.09,33.79A10.09,10.09,0,1,1,127,23.71a10.09,10.09,0,0,1,10.09,10.08Zm0,0"/><path class="cls-8" d="M123.13,33.46a17.92,17.92,0,1,1-5.25-12.66,17.91,17.91,0,0,1,5.25,12.66Zm0,0"/><path class="cls-8" d="M98.37,37.2A14.17,14.17,0,1,1,84.2,23,14.18,14.18,0,0,1,98.37,37.2Zm0,0"/><path class="cls-5" d="M84.2,23A14.17,14.17,0,0,0,70.59,33.25a12,12,0,1,0,22.57-7,14.14,14.14,0,0,0-9-3.2Zm0,0"/><path class="cls-4" d="M91.72,43.82,90.31,44.9a18.79,18.79,0,0,0,29.83,0l-1.42-1.08a17,17,0,0,1-27,0Zm0,0"/><path class="cls-5" d="M105.51,15.07a18.2,18.2,0,0,0-18.19,18.2,17.55,17.55,0,0,0,.13,2.17,19.43,19.43,0,0,0,36-5.43,18.2,18.2,0,0,0-17.91-14.94Zm0,0"/><path class="cls-4" d="M105.22,14.66a18.78,18.78,0,0,0-15.67,8.48,15,15,0,0,0-5.35-1h0A15.06,15.06,0,1,0,94.63,48.05L93.4,46.77a13.29,13.29,0,1,1-3.86-21.72l.72.32.4-.67a17,17,0,0,1,29.13,0l.41.68.71-.32a13.27,13.27,0,1,1-3.85,21.71l-1.23,1.28a15.09,15.09,0,0,0,10.42,4.21h0a15.06,15.06,0,0,0,0-30.12h0a15.19,15.19,0,0,0-5.34,1,18.81,18.81,0,0,0-15.68-8.48Zm0,0"/><path class="cls-4" d="M16.62,70.19a4.09,4.09,0,0,0-4.07,4l-.06,7.35a4,4,0,1,0,8.06.07l.06-7.35a4.08,4.08,0,0,0-4-4.06Zm0,0"/><path class="cls-4" d="M21.26,69.31a4.08,4.08,0,0,0-4.06,4l-.08,9.18a4,4,0,1,0,8.06.07l.08-9.18a4.1,4.1,0,0,0-4-4.07Zm0,0"/><path class="cls-4" d="M30.53,70.31a4.08,4.08,0,0,1,4,4.06l-.06,7.35a4,4,0,1,1-8.06-.07l.06-7.35a4.09,4.09,0,0,1,4.07-4Zm0,0"/><path class="cls-4" d="M25.9,69.35a4.11,4.11,0,0,1,4,4.07l-.08,9.18a4,4,0,1,1-8.07-.07l.08-9.18a4.1,4.1,0,0,1,4.07-4Zm0,0"/><path class="cls-4" d="M20.32,93.45a3.49,3.49,0,0,0-3.47,3.41l-.32,36.85a6.49,6.49,0,1,0,13,.11L29.83,97a3.51,3.51,0,0,0-3.41-3.47Zm2.73,6.25h.53l-.29,34.07c0,.2-.07.27-.27.27s-.27-.07-.27-.27Zm0,0"/><path class="cls-4" d="M13.25,65.58a5.07,5.07,0,0,0-5.06,5l-.06,7a15.72,15.72,0,0,0,5.5,12.18c2.34,2.2,3.59,2.84,3.55,6.78l6.1.06h.13l6.1,0c0-3.94,1.29-4.57,3.66-6.72a15.75,15.75,0,0,0,5.72-12.08l.06-7a5.07,5.07,0,0,0-5-5.06Zm1.16,6.24,18.3.16-.05,5.81c0,4.57-1.4,5.46-3.67,7.52-2.1,1.91-5.14,4.89-5.63,10C23,90.19,20,87.16,17.9,85.22c-2.24-2.11-3.59-3-3.55-7.59Zm0,0"/><path class="cls-1" d="M20.29,96.56a.33.33,0,0,0-.33.33q-.16,18.42-.32,36.85a3.38,3.38,0,1,0,6.76.06q.17-18.42.32-36.85a.34.34,0,0,0-.33-.34Zm0,0"/><path class="cls-10" d="M21.07,96.57l-.32,36.72a3.39,3.39,0,0,0,1.15,2.58,3.84,3.84,0,0,1-.19-1.18l.34-38.11Zm0,0"/><path class="cls-11" d="M13.22,68.69a1.9,1.9,0,0,0-1.92,1.89l-.06,7c-.09,10.91,9.14,9.13,9,19l6.1,0c.09-9.83,9.29-7.89,9.38-18.79l.07-7A1.9,1.9,0,0,0,34,68.87Zm8,3.73a.93.93,0,0,1,.92.93l-.08,9.18a.92.92,0,0,1-.93.91.9.9,0,0,1-.91-.92l.08-9.19a.92.92,0,0,1,.92-.91Zm4.64,0a.92.92,0,0,1,.91.93l-.08,9.19a.92.92,0,0,1-.92.91.93.93,0,0,1-.92-.93l.08-9.19a.92.92,0,0,1,.93-.91Zm-9.28.84a.91.91,0,0,1,.91.93l-.06,7.35a.92.92,0,1,1-1.84,0l.06-7.35a.92.92,0,0,1,.93-.91Zm13.91.12a.92.92,0,0,1,.91.93l-.06,7.35a.92.92,0,1,1-1.84,0l.06-7.35a.92.92,0,0,1,.93-.91Zm0,0"/><path class="cls-5" d="M21.92,72a1.39,1.39,0,0,0-1.09.53,1.06,1.06,0,0,1,.4-.09.93.93,0,0,1,.92.93l-.08,9.18a.92.92,0,0,1-.93.91.87.87,0,0,1-.4-.09,1.36,1.36,0,0,0,2.45-.81l.08-9.18A1.38,1.38,0,0,0,21.92,72Zm4.63,0a1.37,1.37,0,0,0-1.08.53,1.06,1.06,0,0,1,.4-.09.92.92,0,0,1,.91.93l-.08,9.19a.92.92,0,0,1-.92.91,1.08,1.08,0,0,1-.41-.1,1.39,1.39,0,0,0,1.08.55,1.37,1.37,0,0,0,1.37-1.36l.08-9.18A1.37,1.37,0,0,0,26.55,72Zm-9.28.84a1.38,1.38,0,0,0-1.08.53.9.9,0,0,1,.4-.09.91.91,0,0,1,.91.93l-.06,7.35a.93.93,0,0,1-.93.91.91.91,0,0,1-.4-.1,1.36,1.36,0,0,0,2.45-.81l.06-7.34a1.37,1.37,0,0,0-1.35-1.38ZM31.18,73a1.37,1.37,0,0,0-1.08.53,1,1,0,0,1,.4-.09.92.92,0,0,1,.91.93l-.06,7.35a.92.92,0,0,1-.93.91.88.88,0,0,1-.4-.1,1.36,1.36,0,0,0,2.45-.8l.06-7.35A1.37,1.37,0,0,0,31.18,73Zm0,0"/><path class="cls-12" d="M13.22,68.69a1.9,1.9,0,0,0-1.92,1.89l24.54.21A1.91,1.91,0,0,0,34,68.87Zm0,0"/><path class="cls-12" d="M15.18,86.92c2.46,2.38,5.16,4.3,5.11,9.64l6.1,0c.05-5.33,2.78-7.2,5.28-9.54Zm0,0"/><path class="cls-5" d="M13.22,68.69a1.9,1.9,0,0,0-1.92,1.89l-.06,7c-.09,10.91,9.14,9.13,9,19h1.28c.1-10.91-9.14-8.4-9-19l.06-7A1.9,1.9,0,0,1,14.5,68.7Zm0,0"/><path class="cls-13" d="M24.7,96.6a.33.33,0,0,1,.33.33l-.32,36.85c0,3.38-2.56,3.25-2.56,3.25a3.34,3.34,0,0,0,.84.12,3.38,3.38,0,0,0,3.41-3.35L26.72,97a.34.34,0,0,0-.33-.34Zm0,0"/><path class="cls-10" d="M20.29,96.56a.33.33,0,0,0-.33.33l-.32,36.85a3.36,3.36,0,0,0,3,3.39,3.28,3.28,0,0,1-2.92-3.29L20.05,98a.32.32,0,0,1,.32-.32l5.93.06a.31.31,0,0,1,.31.32l-.31,35.8a3.26,3.26,0,0,1-3,3.24,3.37,3.37,0,0,0,3.07-3.33L26.72,97a.34.34,0,0,0-.33-.34Zm0,0"/><path class="cls-4" d="M20.3,96.12a.77.77,0,0,0-.78.76l-.33,36.86a3.83,3.83,0,0,0,7.65.06L27.17,97a.79.79,0,0,0-.77-.78Zm.1.89,5.88,0L26,133.79a2.94,2.94,0,0,1-5.88,0Zm0,0"/><path class="cls-14" d="M24.12,105.57a.83.83,0,0,1-.26.6.86.86,0,0,1-.6.25.87.87,0,0,1-.85-.87.86.86,0,0,1,.25-.6.9.9,0,0,1,.61-.25.92.92,0,0,1,.61.26.9.9,0,0,1,.24.61Zm0,0"/><path class="cls-4" d="M23.27,104.48a1.08,1.08,0,1,0,1.07,1.09,1.08,1.08,0,0,0-1.07-1.09Zm0,.45a.63.63,0,0,1,.63.64.62.62,0,0,1-.64.62.63.63,0,0,1-.63-.64.62.62,0,0,1,.64-.62Zm0,0"/><path class="cls-4" d="M13.22,68.25a2.34,2.34,0,0,0-2.36,2.32l-.06,7c-.05,5.58,2.37,8.05,4.66,10.21s4.43,4,4.39,8.75h.89c0-5-2.39-7.26-4.67-9.4s-4.43-4.23-4.38-9.55l.06-7a1.43,1.43,0,0,1,1.47-1.44L34,69.32a1.44,1.44,0,0,1,1.44,1.47l-.06,7c0,5.33-2.23,7.38-4.55,9.48S26,91.56,26,96.61h.89c0-4.78,2.21-6.56,4.54-8.67s4.79-4.55,4.84-10.13l.06-7A2.34,2.34,0,0,0,34,68.43Zm0,0"/><path class="cls-14" d="M24.17,100a.87.87,0,0,1-.26.61.85.85,0,0,1-.6.24.86.86,0,0,1-.61-.25.83.83,0,0,1-.24-.61.86.86,0,0,1,.86-.85.81.81,0,0,1,.6.26.86.86,0,0,1,.25.6Zm0,0"/><path class="cls-4" d="M23.32,99a1.08,1.08,0,1,0,0,2.15,1.08,1.08,0,1,0,0-2.15Zm0,.44a.64.64,0,0,1,0,1.27.63.63,0,0,1-.63-.64.64.64,0,0,1,.64-.63Zm0,0"/><path class="cls-4" d="M16.6,72.86a1.37,1.37,0,0,0-1.38,1.35l-.06,7.35a1.36,1.36,0,1,0,2.72,0L18,74.23a1.37,1.37,0,0,0-1.35-1.37Zm0,.88a.47.47,0,0,1,.47.48L17,81.57a.46.46,0,0,1-.47.47.47.47,0,0,1-.48-.48l.07-7.35a.47.47,0,0,1,.48-.47Zm0,0"/><path class="cls-4" d="M21.24,72a1.37,1.37,0,0,0-1.38,1.35l-.08,9.18a1.37,1.37,0,0,0,2.73,0l.08-9.19A1.36,1.36,0,0,0,21.24,72Zm0,.89a.46.46,0,0,1,.47.47l-.08,9.19a.48.48,0,1,1-.95,0l.08-9.18a.47.47,0,0,1,.48-.47Zm0,0"/><path class="cls-4" d="M30.5,73a1.37,1.37,0,0,1,1.36,1.37l-.07,7.35a1.37,1.37,0,0,1-2.73,0l.07-7.35A1.37,1.37,0,0,1,30.5,73Zm0,.89a.45.45,0,0,0-.48.47L30,81.68a.46.46,0,0,0,.47.48.47.47,0,0,0,.48-.47L31,74.34a.46.46,0,0,0-.47-.47Zm0,0"/><path class="cls-4" d="M25.88,72a1.37,1.37,0,0,1,1.35,1.37l-.08,9.19a1.37,1.37,0,0,1-2.73,0l.08-9.19A1.37,1.37,0,0,1,25.88,72Zm0,.89a.46.46,0,0,0-.48.47l-.08,9.18a.48.48,0,1,0,1,0l.08-9.19a.46.46,0,0,0-.47-.47Zm0,0"/><path class="cls-4" d="M70.88,158.41a6.19,6.19,0,1,0,12.37,0v-9.22a6.19,6.19,0,0,0-12.37,0Zm0,0"/><path class="cls-4" d="M127.2,158.41a6.19,6.19,0,1,0,12.37,0v-9.22a6.19,6.19,0,0,0-12.37,0Zm0,0"/><path class="cls-4" d="M71.23,151.77l-.16,2.95L69.38,187h71.69l-1.85-35.23Zm5.9,6.23h56.18l1.2,22.78H75.94Zm0,0"/><path class="cls-8" d="M74,158.41v-9.22a3.07,3.07,0,1,1,6.14,0v9.22a3.07,3.07,0,1,1-6.14,0Zm0,0"/><path class="cls-4" d="M73.54,158.41a3.52,3.52,0,1,0,7,0v-9.22a3.52,3.52,0,0,0-7,0Zm.89,0v-9.22a2.63,2.63,0,0,1,5.26,0v9.22a2.63,2.63,0,0,1-5.26,0Zm0,0"/><path class="cls-8" d="M130.31,158.41v-9.22a3.08,3.08,0,0,1,6.15,0v9.22a3.08,3.08,0,1,1-6.15,0Zm0,0"/><path class="cls-4" d="M129.87,158.41a3.52,3.52,0,1,0,7,0v-9.22a3.52,3.52,0,0,0-7,0Zm.89,0v-9.22a2.63,2.63,0,0,1,5.25,0v9.22a2.63,2.63,0,1,1-5.25,0Zm0,0"/><path class="cls-5" d="M74.18,154.88l-1.52,29h65.13l-1.52-29Zm0,0"/><path class="cls-8" d="M74.18,154.88l-1.52,29h8.8l1.52-29Zm0,0"/><path class="cls-8" d="M122.15,154.88l1.42,29h14.22l-1.52-29Zm0,0"/><path class="cls-8" d="M73.38,170.16l-.27,5.08h64.22l-.26-5.08Zm0,0"/><path class="cls-8" d="M73.38,170.16l-.27,5.08h8.8l.27-5.08Zm0,0"/><path class="cls-8" d="M122.9,170.16l.24,5.08h14.19l-.26-5.08Zm0,0"/><path class="cls-4" d="M73.76,154.44l0,.42-1.55,29.48h66.07l-1.57-29.9Zm.84.89h61.24l1.48,28.12H73.13Zm0,0"/><path class="cls-5" d="M77.06,157.19a1.23,1.23,0,1,1,0,2.45,1.24,1.24,0,0,1-.87-.36,1.26,1.26,0,0,1-.35-.87,1.22,1.22,0,0,1,1.22-1.22Zm0,0"/><path class="cls-4" d="M75.39,158.41a1.67,1.67,0,1,0,1.67-1.67,1.67,1.67,0,0,0-1.67,1.67Zm.89,0a.78.78,0,1,1,.78.78.77.77,0,0,1-.78-.78Zm0,0"/><path class="cls-5" d="M133.38,157.19a1.22,1.22,0,1,1-1.22,1.22,1.23,1.23,0,0,1,1.22-1.22Zm0,0"/><path class="cls-4" d="M131.71,158.41a1.68,1.68,0,1,0,1.67-1.67,1.68,1.68,0,0,0-1.67,1.67Zm.89,0a.79.79,0,1,1,.78.78.78.78,0,0,1-.78-.78Zm0,0"/><path class="cls-4" d="M73,169.71l0,.43-.29,5.54H137.8l-.31-6Zm.84.89h62.85l.22,4.19H73.58Zm0,0"/><rect class="cls-8" x="95.55" y="159.29" width="19.34" height="2.54"/><path class="cls-4" d="M150.71,0l29,0h16l0,16c0,7,0,14,0,21A29.09,29.09,0,0,1,150.71,0Z"/><text class="cls-15" transform="translate(159.77 31.75)">12</text></svg>