<svg id="Слой_1" data-name="Слой 1" xmlns="http://www.w3.org/2000/svg" viewBox="0 0 195.59 280.63"><defs><style>.cls-1{fill:#d3ac82;}.cls-2{font-size:36px;}.cls-2,.cls-4{fill:#1a1a1a;}.cls-17,.cls-2{font-family:Impact;}.cls-3{fill:#956b6b;}.cls-17,.cls-5{fill:#fff;}.cls-6{fill:#6b5052;}.cls-7{fill:#b69289;}.cls-8{fill:#af1739;}.cls-9{fill:#eb5775;}.cls-10{fill:#badbe9;}.cls-11{fill:#8bb0cc;}.cls-12{fill:#f293a2;}.cls-13{fill:#ebd3ae;}.cls-14{fill:#5da240;}.cls-15{fill:#93c466;}.cls-16{fill:#d2b7a7;}.cls-17{font-size:20px;}</style></defs><rect class="cls-1" x="-4.97" y="-7.57" width="209.04" height="297.62"/><text class="cls-2" transform="translate(11.98 236.2)">uwielbiamy<tspan x="14.54" y="34">ziemniaki</tspan></text><path class="cls-3" d="M91.93,166.5c1.6-12.15,7.27-13.87,11-13.38s8.73,3.61,7.13,15.76-7.92,28.89-12.92,28.23-6.78-18.46-5.18-30.61Zm0,0"/><path class="cls-4" d="M103.24,150.59a10.34,10.34,0,0,0-8.32,2.59c-2.68,2.44-4.66,6.54-5.51,13a78.9,78.9,0,0,0,.12,20.31,33,33,0,0,0,2.1,8.29c1,2.3,2.44,4.51,5.15,4.87s4.68-1.41,6.23-3.37a33.31,33.31,0,0,0,4.18-7.46,79.29,79.29,0,0,0,5.37-19.59c.85-6.45,0-10.93-2-14a10.35,10.35,0,0,0-7.36-4.66Zm-.67,5a4.91,4.91,0,0,1,3.74,2.37c1.08,1.67,2,4.84,1.2,10.54a75.28,75.28,0,0,1-5,18.25A29.91,29.91,0,0,1,99,193.11a5.29,5.29,0,0,1-1.57,1.43,5.23,5.23,0,0,1-1.14-1.79,29.09,29.09,0,0,1-1.74-7,75.42,75.42,0,0,1-.11-18.93c.75-5.7,2.41-8.53,3.88-9.87a4.9,4.9,0,0,1,4.23-1.32Zm0,0"/><path class="cls-3" d="M45.35,167.67c0-12.25,5.4-14.7,9.13-14.7s9.13,2.45,9.13,14.7-4.09,29.68-9.13,29.68-9.13-17.43-9.13-29.68Zm0,0"/><path class="cls-4" d="M54.48,150.42a10.34,10.34,0,0,0-7.91,3.66c-2.34,2.76-3.77,7.09-3.77,13.59a79,79,0,0,0,2.77,20.12,33.25,33.25,0,0,0,3.17,8c1.28,2.15,3,4.15,5.74,4.15s4.45-2,5.74-4.15a33.67,33.67,0,0,0,3.17-8,79.43,79.43,0,0,0,2.76-20.12c0-6.5-1.42-10.83-3.76-13.59a10.34,10.34,0,0,0-7.91-3.66Zm0,5.09a4.93,4.93,0,0,1,4,1.86c1.29,1.52,2.56,4.55,2.56,10.3a75,75,0,0,1-2.58,18.74,30,30,0,0,1-2.63,6.71,5.46,5.46,0,0,1-1.37,1.63,5.3,5.3,0,0,1-1.37-1.63,29,29,0,0,1-2.63-6.71,75,75,0,0,1-2.58-18.74c0-5.75,1.27-8.78,2.56-10.3a4.93,4.93,0,0,1,4-1.86Zm0,0"/><path class="cls-3" d="M141.08,115.73c-12.15-1.6-13.87-7.27-13.38-11s3.61-8.73,15.76-7.13,28.89,7.92,28.23,12.92-18.46,6.78-30.61,5.18Zm0,0"/><path class="cls-4" d="M125.17,104.43a10.36,10.36,0,0,0,2.59,8.32c2.44,2.68,6.54,4.66,13,5.5a78.9,78.9,0,0,0,20.31-.11,33,33,0,0,0,8.29-2.11c2.3-1,4.51-2.44,4.87-5.14s-1.41-4.68-3.37-6.24a33.17,33.17,0,0,0-7.47-4.18A79.53,79.53,0,0,0,143.8,95.1c-6.45-.85-10.93,0-14,2a10.38,10.38,0,0,0-4.66,7.37Zm5,.66a4.92,4.92,0,0,1,2.36-3.74c1.68-1.08,4.85-1.95,10.55-1.2a75.3,75.3,0,0,1,18.25,5,29.47,29.47,0,0,1,6.31,3.49,5.19,5.19,0,0,1,1.43,1.56,5.29,5.29,0,0,1-1.79,1.15,29.6,29.6,0,0,1-7,1.73,74.87,74.87,0,0,1-18.92.11c-5.7-.75-8.53-2.4-9.87-3.88a4.9,4.9,0,0,1-1.32-4.23Zm0,0"/><path class="cls-3" d="M6.74,98.14c9.72-7.46,15-4.67,17.22-1.71s3.62,8.73-6.11,16.19-26,14.83-29.1,10.83S-3,105.6,6.74,98.14Zm0,0"/><path class="cls-4" d="M26,94.88a10.35,10.35,0,0,0-7.71-4c-3.62-.17-7.92,1.33-13.08,5.29A79,79,0,0,0-9.09,110.56a33.55,33.55,0,0,0-4.38,7.35c-.92,2.33-1.46,4.92.2,7.09s4.31,2.31,6.79,2a33.19,33.19,0,0,0,8.24-2.32,78.94,78.94,0,0,0,17.65-10.06c5.15-4,7.72-7.72,8.49-11.26A10.36,10.36,0,0,0,26,94.88Zm-4,3.1a4.92,4.92,0,0,1,1,4.32c-.43,2-2.05,4.8-6.62,8.3A75.18,75.18,0,0,1-.14,120a29.58,29.58,0,0,1-6.92,2,5.16,5.16,0,0,1-2.13-.1,5.48,5.48,0,0,1,.46-2.07A29.47,29.47,0,0,1-5,113.62a75,75,0,0,1,13.3-13.46c4.57-3.5,7.74-4.34,9.73-4.24A4.92,4.92,0,0,1,21.94,98Zm0,0"/><path class="cls-4" d="M71.14,34.08c-10.46,1.59-17.9,8.33-26.08,12-9.77,4.39-20,6.84-28.13,16.52-4.28,5.13-5.66,11-6.33,16.44s-.77,10.65-2,15.45c-1.32,5.09-3.06,9.38-4.28,14.1a33.77,33.77,0,0,0-.51,16,32.83,32.83,0,0,0,7.66,14.78c3.32,3.9,6.91,7.19,10.12,11.29s5.61,8.82,8.71,13.53,7,9.38,13.05,12.16c11.8,5.43,22.81,1.51,33.14,1.17,4.74-.15,10.14,1.2,15.91,2.11s12.18,1.33,18.29-1.88c5.82-3.06,9.4-7.72,12.16-12.33s4.91-9.25,7.91-13.27,7.12-7.64,11.11-11.79,7.88-9,9.5-15.37c1.66-6.59-.07-12.63-2.17-18s-4.53-10.24-5.49-15c-1-5-1-9.9-1.64-15s-2.15-10.59-6.36-15.52-9.65-7.22-14.65-8.73-9.76-2.47-14.13-4.7c-9.08-4.63-17.76-14.33-31.11-14.38a29.54,29.54,0,0,0-4.68.34Zm4.65,7.8c9.1,0,16.55,7.94,27.43,13.49,5.6,2.86,11,3.91,15.49,5.25s7.89,2.81,10.8,6.22,3.92,6.87,4.47,11.25.53,9.62,1.73,15.6c1.26,6.23,4,11.55,5.9,16.37s2.9,8.86,1.86,13c-1.09,4.32-3.84,7.92-7.48,11.71s-8.1,7.64-11.77,12.57-5.91,9.87-8.36,13.94-4.89,7.18-9,9.31c-3.78,2-8,1.88-13.23,1.06s-11.08-2.42-17.45-2.21c-11.89.39-20.92,3.51-29.47-.42-4.13-1.9-6.9-5.07-9.65-9.25s-5.31-9.26-9.09-14.08-7.46-8.17-10.34-11.54-4.9-6.53-5.89-11.18a24.75,24.75,0,0,1,.43-12.32c1-4,2.82-8.42,4.28-14.11,1.54-6,1.61-11.63,2.2-16.48s1.6-8.74,4.5-12.22c6.3-7.54,14.66-9.56,25.21-14.31,11-4.94,18-11.68,27.39-11.64Zm0,0"/><path class="cls-5" d="M45.05,172.72C34.87,168,31.72,157,24.8,148.21s-14.7-13.51-17-24.4,2-17.5,4.74-28.29.33-21.68,7.52-30.29S36.57,54.39,46.73,49.81s17.86-12,29.08-12,19.29,8.85,29.26,13.94,20.35,4,27.54,12.44,4.9,17.71,7.1,28.7,10.41,20.44,7.71,31.17-13.29,16.81-19.93,25.72-8.8,19.23-18.69,24.43-21.33-1.06-32.45-.69-21.12,3.88-31.3-.8Zm0,0"/><path class="cls-6" d="M45.05,172.72C34.87,168,31.72,157,24.8,148.21s-14.7-13.51-17-24.4,2-17.5,4.74-28.29.33-21.68,7.52-30.29S36.57,54.39,46.73,49.81s17.86-12,29.08-12,19.29,8.85,29.26,13.94,20.35,4,27.54,12.44,4.9,17.71,7.1,28.7,10.41,20.44,7.71,31.17-13.29,16.81-19.93,25.72-8.8,19.23-18.69,24.43-21.33-1.06-32.45-.69-21.12,3.88-31.3-.8Zm0,0"/><path class="cls-3" d="M75.81,37.81c-11.22,0-18.92,7.43-29.08,12-5,2.24-9.72,3.92-14.13,6A49.22,49.22,0,0,1,29.31,61c-6.84,8.18-4.51,18.53-7.15,28.79s-6.71,16.54-4.51,26.89,9.59,14.81,16.16,23.19,9.57,18.84,19.24,23.29,19.2,1.1,29.76.76,21.43,5.59,30.83.65a46.61,46.61,0,0,0,8.27-5.7,74.56,74.56,0,0,1,5.58-9.11c6.64-8.91,17.22-15,19.93-25.72s-5.5-20.18-7.71-31.17.09-20.29-7.1-28.7-17.56-7.35-27.54-12.44S87,37.85,75.81,37.81Zm0,0"/><path class="cls-7" d="M79.18,49.46c-8.85,0-14.93,5.86-22.94,9.47-5.29,2.37-10,3.42-13.75,8.84-4.8,6.91-3.56,14.63-5.64,22.72s-5.29,13.05-3.56,21.22S40.86,123.4,46,130s7.56,14.87,15.19,18.38,15.14.87,23.47.6,16.92,4.43,24.33.52c5.67-3,7.21-6.26,10.93-11.69,5-7.24,13.59-11.83,15.72-20.29s-4.34-15.93-6.08-24.6.07-16-5.6-22.64-13.86-5.81-21.73-9.82-14.24-11-23.09-11Zm0,0"/><path class="cls-4" d="M71.6,37.12C62.14,38.61,55,45,46.31,48.89c-10.06,4.53-19.62,6.81-27,15.69-3.76,4.51-5,9.63-5.64,14.86S12.91,90,11.56,95.27s-3.13,9.65-4.28,14.11A30.36,30.36,0,0,0,6.8,124a29.5,29.5,0,0,0,7,13.43c3.16,3.7,6.81,7.06,10.21,11.39s5.88,9.22,8.85,13.73,6.45,8.62,11.77,11.07c10.59,4.87,20.85,1.25,31.77.89,5.35-.18,10.93,1.27,16.48,2.14s11.16,1.18,16.4-1.57,8.32-6.79,11-11.2,4.83-9.17,8.07-13.52,7.51-8.06,11.36-12.08,7.33-8.37,8.75-14,0-11-2-16.1S141.78,98,140.71,92.69s-1.06-10.4-1.67-15.24-1.91-9.53-5.66-13.92-8.4-6.34-13.2-7.78-9.81-2.44-14.64-4.91c-9.75-5-18-14-29.73-14a25,25,0,0,0-4.21.32Zm4.2,1.71c10.69,0,18.61,8.62,28.81,13.82,5.14,2.63,10.31,3.65,15,5.05s8.82,3.15,12.24,7.16,4.6,8.19,5.19,12.85.57,9.77,1.69,15.38,3.78,10.84,5.75,15.86,3.25,9.8,2,14.86S142,133,138.19,136.9s-8.11,7.69-11.52,12.27-5.62,9.42-8.18,13.69-5.44,8-10.17,10.44-9.71,2.22-15.13,1.37-11.11-2.36-16.87-2.17c-11.3.37-21.07,3.79-30.85-.71-4.85-2.23-8-6-10.92-10.34s-5.41-9.36-8.95-13.87-7.21-7.88-10.25-11.45A27.23,27.23,0,0,1,8.79,123.6a28.08,28.08,0,0,1,.46-13.71c1.1-4.28,2.87-8.65,4.28-14.11s1.51-11,2.13-16.1,1.76-9.7,5.18-13.8c7-8.34,16.05-10.52,26.31-15.14S65,38.79,75.8,38.83Zm0,0"/><path class="cls-4" d="M97.8,155.88a3.45,3.45,0,1,1,1,2.44,3.41,3.41,0,0,1-1-2.44Zm0,0"/><path class="cls-4" d="M25.55,108.24a2,2,0,0,1,2-2,2,2,0,0,1,2,2,2,2,0,0,1-.57,1.39,2,2,0,0,1-3.35-1.39Zm0,0"/><path class="cls-4" d="M79,61.45a2,2,0,1,1,3.91,0,1.92,1.92,0,0,1-.57,1.38,2,2,0,0,1-1.39.58,2,2,0,0,1-1.38-.58A1.92,1.92,0,0,1,79,61.45Zm0,0"/><path class="cls-4" d="M103.12,61.14a2,2,0,1,1,3.34,1.38,1.92,1.92,0,0,1-1.38.57,1.95,1.95,0,0,1-2-2Zm0,0"/><path class="cls-4" d="M62.28,62.34a3.45,3.45,0,0,1,3.45-3.45,3.44,3.44,0,1,1-3.45,3.45Zm0,0"/><path class="cls-4" d="M106.22,145.1c0-3.07,2.5-3.59,5.58-3.59s5.57.52,5.57,3.59a5.1,5.1,0,0,1-5.08,5c-3.08-.07-6.07-1.9-6.07-5Zm0,0"/><path class="cls-4" d="M121.69,123.06c0-3.4,2.76-4.18,6.16-4.18s6.15.78,6.15,4.18-2.21,6.52-5.61,6.52a7,7,0,0,1-6.7-6.52Zm0,0"/><path class="cls-4" d="M109.34,144.71c0-1.84,1.49-2.15,3.33-2.15s3.33.31,3.33,2.15a3,3,0,0,1-3,3c-1.85,0-3.63-1.13-3.63-3Zm0,0"/><path class="cls-4" d="M38.62,153.11c-2.84-1.17-2.36-3.67-1.18-6.52s2.61-5,5.45-3.77a5.1,5.1,0,0,1,2.65,6.6c-1.24,2.81-4.07,4.87-6.92,3.69Zm0,0"/><path class="cls-4" d="M41.3,150.5c-1.52-.63-1.26-2-.63-3.48s1.39-2.64,2.9-2A2.72,2.72,0,0,1,45,148.52c-.66,1.51-2.18,2.61-3.69,2Zm0,0"/><path class="cls-4" d="M35.73,97.23c-1.83,3.16-4.82,2.41-8,.58s-5.31-4-3.48-7.2,5.57-4.88,8.73-3a7.49,7.49,0,0,1,2.74,9.67Zm0,0"/><path class="cls-4" d="M59,164a6.72,6.72,0,1,1,6.72,6.72A6.72,6.72,0,0,1,59,164Zm0,0"/><path class="cls-3" d="M110.54,103.77a6.73,6.73,0,1,1,2,4.75,6.71,6.71,0,0,1-2-4.75Zm0,0"/><path class="cls-4" d="M114.24,81.41c-2.67,1.54-4.36-.36-5.9-3s-2.34-5.08.32-6.62a5.09,5.09,0,0,1,6.85,1.92c1.48,2.69,1.39,6.2-1.27,7.73Zm0,0"/><path class="cls-4" d="M113.31,77.6c-1.43.82-2.33-.2-3.15-1.62s-1.26-2.72.17-3.54a2.71,2.71,0,0,1,3.66,1c.79,1.44.74,3.31-.68,4.14Zm0,0"/><path class="cls-4" d="M106.11,98.39a6.9,6.9,0,0,0-13.79,0H88.25a11,11,0,1,1,21.93,0Zm4.07,0"/><path class="cls-4" d="M62.78,98.39a6.89,6.89,0,1,0-13.78,0H44.92a11,11,0,1,1,21.94,0Zm4.08,0"/><path class="cls-8" d="M66.38,107.18A2.32,2.32,0,0,0,64,109.51v2.63a13.52,13.52,0,0,0,27,0v-2.63a2.32,2.32,0,0,0-2.34-2.33Zm22.35,0"/><path class="cls-9" d="M77.55,116.39A13.51,13.51,0,0,0,67.37,121a13.51,13.51,0,0,0,20.36,0,13.48,13.48,0,0,0-10.18-4.63Zm0,0"/><path class="cls-5" d="M66.38,107.18A2.32,2.32,0,0,0,64,109.51v2.35a31.06,31.06,0,0,0,27,0v-2.34a2.32,2.32,0,0,0-2.34-2.33Zm22.35,0"/><path class="cls-10" d="M87.44,107.18v3.61c0,1.35-.17,2.22-1.1,2.84a32.1,32.1,0,0,0,4.73-1.78v-2.34a2.32,2.32,0,0,0-2.34-2.33Zm1.29,0"/><path class="cls-10" d="M66.38,107.18A2.32,2.32,0,0,0,64,109.51v2.35a31.48,31.48,0,0,0,9.29,2.75c-1.57-.42-2-2-2-3.82v-3.61Zm4.91,0"/><path class="cls-11" d="M67.67,107.18v3.61c0,1.35.17,2.22,1.09,2.84A32.41,32.41,0,0,1,64,111.85v-2.34a2.32,2.32,0,0,1,2.34-2.33Zm-1.29,0"/><path class="cls-4" d="M66.38,106.16A3.37,3.37,0,0,0,63,109.51v2.63a14.53,14.53,0,0,0,29.06,0v-2.63a3.36,3.36,0,0,0-3.35-3.35Zm22.35,2a1.29,1.29,0,0,1,1.32,1.32v2.63a12.5,12.5,0,0,1-25,0v-2.63a1.29,1.29,0,0,1,1.32-1.32Zm0,0"/><path class="cls-4" d="M91.13,111.3a31,31,0,0,1-27.15,0l-.45.92a32,32,0,0,0,28.05,0l-.45-.92Zm0,0"/><path class="cls-12" d="M79.05,120a1.38,1.38,0,0,1,.66-1.11,2.76,2.76,0,0,1,1.59-.47c1.24,0,2.24.71,2.24,1.58s-1,1.59-2.24,1.59a2.76,2.76,0,0,1-1.59-.47,1.39,1.39,0,0,1-.66-1.12Zm0,0"/><path class="cls-4" d="M77.55,9.89A81.4,81.4,0,0,0,53,13.61l-1.84.59L47.78,39.56,25.09,57l2.76,2.46a15.94,15.94,0,0,0,3.38,2.1,24.65,24.65,0,0,0,9.12,2.25c4.29.26,7.53-1.12,10.19-2.12S55.3,60,58.62,60.41s5.12,1.85,7.77,3.6a18.46,18.46,0,0,0,22.33,0c2.64-1.75,4.51-3.15,7.76-3.6s5.42.25,8.08,1.25,5.91,2.38,10.2,2.12a24.65,24.65,0,0,0,9.12-2.25,15.94,15.94,0,0,0,3.38-2.1L130,57,107.33,39.56,104,14.18l-1.85-.59a81.64,81.64,0,0,0-24.58-3.7Zm0,6.12a76.42,76.42,0,0,1,20.88,2.86l3.16,24,18,13.8a19.64,19.64,0,0,1-5.2,1c-2.84.18-4.86-.68-7.67-1.73a21.51,21.51,0,0,0-11.08-1.59c-4.73.66-7.83,2.93-10.3,4.57s-4.24,2.74-7.78,2.74-5.32-1.11-7.79-2.74S64.19,55,59.47,54.35a21.51,21.51,0,0,0-11.08,1.59c-2.81,1.05-4.83,1.91-7.67,1.73a19.64,19.64,0,0,1-5.2-1l18-13.8,3.16-24A76.11,76.11,0,0,1,77.56,16Zm0,0"/><path class="cls-13" d="M50.64,41.21,29.88,57.14s3.53,3.15,10.65,3.59S51.06,56.27,59,57.38,69,64.72,77.55,64.72s10.53-6.23,18.51-7.34,11.39,3.78,18.51,3.35,10.66-3.59,10.66-3.59L104.46,41.21l-3.25-24.7a80.26,80.26,0,0,0-47.31,0ZM53.9,16.52"/><path class="cls-1" d="M67.36,13.59A74.25,74.25,0,0,0,53.9,16.52L50.64,41.21,29.88,57.14s3.53,3.15,10.65,3.59c6.84.41,10.25-4.06,17.55-3.45l9.28-16.07V13.59Zm0,0"/><path class="cls-5" d="M97.71,41.21,117,60.47c5.52-.88,8.27-3.33,8.27-3.33L104.46,41.21l-3.25-24.7a70.37,70.37,0,0,0-7-1.85Zm-3.5-26.55"/><path class="cls-4" d="M77.55,11.93a79.72,79.72,0,0,0-24,3.62l-.61.19L49.69,40.66,28.28,57.09l.92.81a13.41,13.41,0,0,0,2.9,1.79,22.6,22.6,0,0,0,8.37,2.05c3.81.23,6.64-1,9.36-2a16.85,16.85,0,0,1,9.07-1.36c3.75.52,6,2.21,8.62,3.92a16.88,16.88,0,0,0,10,3.43c4.53,0,7.45-1.71,10-3.43s4.87-3.4,8.61-3.92a16.87,16.87,0,0,1,9.08,1.36c2.72,1,5.55,2.22,9.35,2A22.61,22.61,0,0,0,123,59.69a13.75,13.75,0,0,0,2.9-1.79l.91-.81-21.4-16.43-3.28-24.93-.62-.19a79.35,79.35,0,0,0-24-3.61Zm0,2a77.84,77.84,0,0,1,22.73,3.32l3.22,24.47,20,15.35a14.68,14.68,0,0,1-1.38.74,20.63,20.63,0,0,1-7.62,1.86c-3.32.2-5.75-.83-8.51-1.86a19.18,19.18,0,0,0-10.08-1.48c-4.23.59-6.92,2.57-9.45,4.24s-4.88,3.09-8.91,3.09-6.39-1.41-8.92-3.09S63.42,57,59.19,56.37a19.18,19.18,0,0,0-10.08,1.48c-2.76,1-5.19,2.06-8.51,1.86A20.63,20.63,0,0,1,33,57.85a14.68,14.68,0,0,1-1.38-.74l20-15.35,3.22-24.45A77.43,77.43,0,0,1,77.56,14Zm0,0"/><rect class="cls-4" x="51.65" y="32.83" width="51.81" height="1.53"/><rect class="cls-4" x="50.64" y="40.45" width="53.82" height="1.53"/><path class="cls-4" d="M172.71,151.46l-8.8-8.79-8.49,8.47L166,161.75c.59.59.35.21.48.78a23.17,23.17,0,0,1,.2,3.71V194h12V166.24a23.17,23.17,0,0,1,.2-3.71c.13-.57-.1-.19.48-.78L190,151.14l-5.33-5.33-3.15-3.15Zm8.8-8.8"/><path class="cls-4" d="M155.68,134.91a10.55,10.55,0,0,0-8.72,3.85c-2.54,3.3-2.25,7.39-1.05,10.68a18.85,18.85,0,0,0,6.31,8.53,14,14,0,0,0,9.6,3.1,11.84,11.84,0,0,0,10.53-13.74,13.91,13.91,0,0,0-5.48-8.47A19,19,0,0,0,157,135c-.44,0-.88-.06-1.33-.06Zm-.46,8.93a4.92,4.92,0,0,1,1,0,11,11,0,0,1,5.22,2.08,5,5,0,0,1,2.14,3,2.93,2.93,0,0,1-2.53,3.29,4.94,4.94,0,0,1-3.42-1.29,10.85,10.85,0,0,1-3.36-4.5,3.22,3.22,0,0,1-.26-2.22,2.16,2.16,0,0,1,1.2-.34Zm0,0"/><path class="cls-4" d="M184.46,139.08a13.07,13.07,0,0,0-2.22.29,15.37,15.37,0,0,0-7.53,4.18,11.65,11.65,0,0,0-3.59,7.6,10,10,0,0,0,10.38,10.38,11.63,11.63,0,0,0,7.6-3.59,15.25,15.25,0,0,0,4.18-7.53c.62-2.81.44-6.33-2.13-8.9a8.7,8.7,0,0,0-6.69-2.43Zm.2,8.92a3,3,0,0,1-.08.48,7.33,7.33,0,0,1-1.77,3.17,2.68,2.68,0,0,1-1.72,1,.82.82,0,0,1-.74-.33.81.81,0,0,1-.33-.74,2.73,2.73,0,0,1,1-1.71,7.27,7.27,0,0,1,3.16-1.78,2.85,2.85,0,0,1,.49-.07Zm0,0"/><path class="cls-4" d="M172.71,165.11a19.39,19.39,0,0,0-14.2,6.18,16.9,16.9,0,1,0-6.13,32.65H193a16.91,16.91,0,1,0-6.12-32.65,19.36,19.36,0,0,0-14.17-6.18Zm0,8.9a10.49,10.49,0,0,1,9.08,5.23l2.49,4.29,4-2.94A8,8,0,0,1,201,187a7.93,7.93,0,0,1-8,8H152.38a8,8,0,0,1,0-16,8,8,0,0,1,4.75,1.56l4,2.94,2.5-4.29a10.49,10.49,0,0,1,9.09-5.23Zm0,0"/><path class="cls-14" d="M161.72,151.14l7.46,7.46a5.59,5.59,0,0,1,1.67,2.91,22.79,22.79,0,0,1,.31,4.73v23.27h3.09V166.24a23.79,23.79,0,0,0-.4-5.44,9.06,9.06,0,0,0-2.49-4.38L163.91,149Zm2.19-2.18"/><path class="cls-14" d="M174.05,156.42a9.06,9.06,0,0,0-2.49,4.38,23.79,23.79,0,0,0-.4,5.44v23.27h3.09V166.24a22,22,0,0,1,.32-4.73,5.5,5.5,0,0,1,1.66-2.91l7.46-7.46L181.51,149Zm7.46-7.46"/><path class="cls-4" d="M173.6,156a10.57,10.57,0,0,0-.89,1,12.28,12.28,0,0,0-.9-1l-7.91-7.91-3.08,3.08,7.91,7.91a4.73,4.73,0,0,1,1.5,2.6,22.31,22.31,0,0,1,.3,4.59v23.91h4.36V166.24a22.47,22.47,0,0,1,.29-4.59,4.8,4.8,0,0,1,1.5-2.6l7.91-7.91L182,148.51l-.45-.45Zm9.19-4.83-7,7a6.24,6.24,0,0,0-1.83,3.21,22.54,22.54,0,0,0-.34,4.88v22.63H171.8V166.24a22.64,22.64,0,0,0-.33-4.88,6.33,6.33,0,0,0-1.84-3.21l-7-7,1.28-1.28,7,7a9.47,9.47,0,0,1,1.26,1.56l.54.85.53-.85a9.47,9.47,0,0,1,1.26-1.56l7-7Zm-1.28-1.28"/><path class="cls-14" d="M164.16,142.4c-4.43-3.41-11.12-4.26-13.67-.93s0,9.56,4.44,13,9.06,2.68,11.61-.65,2.06-8-2.38-11.38Zm0,0"/><path class="cls-15" d="M166.54,153.78c-2.55,3.33-7.18,4.05-11.61.65s-7-9.64-4.44-13Zm-16-12.31"/><path class="cls-4" d="M155.68,138.73a6.86,6.86,0,0,0-5.69,2.35c-1.46,1.89-1.42,4.53-.5,7.06a15.51,15.51,0,0,0,5,6.8,10.05,10.05,0,0,0,7,2.32A8,8,0,0,0,168.6,148a10.07,10.07,0,0,0-4-6.12,15.56,15.56,0,0,0-7.87-3.12c-.34,0-.67,0-1,0Zm-.85,1.31a10.1,10.1,0,0,1,1.74,0,14.4,14.4,0,0,1,7.21,2.86,8.76,8.76,0,0,1,3.56,5.33,6.74,6.74,0,0,1-6,7.77,8.86,8.86,0,0,1-6.07-2.07,14.37,14.37,0,0,1-4.62-6.23c-.83-2.27-.79-4.42.3-5.85a5.25,5.25,0,0,1,3.84-1.81Zm0,0"/><path class="cls-14" d="M186,154.79c3-3,4.28-7.9,2.05-10.13s-7.16-.94-10.14,2-2.89,6.52-.66,8.75,5.77,2.33,8.75-.66Zm0,0"/><path class="cls-15" d="M177.2,155.45c-2.23-2.23-2.32-5.77.66-8.75s7.9-4.28,10.14-2ZM188,144.66"/><path class="cls-4" d="M184.57,142.9a8.7,8.7,0,0,0-1.5.2,11.86,11.86,0,0,0-5.66,3.15,7.77,7.77,0,0,0-2.47,5.07,6.19,6.19,0,0,0,6.39,6.39,7.68,7.68,0,0,0,5.07-2.47,11.7,11.7,0,0,0,3.15-5.66,5.69,5.69,0,0,0-1.1-5.37,5,5,0,0,0-3.88-1.31Zm0,1.27a3.81,3.81,0,0,1,2.94.94c.91.91,1.15,2.45.76,4.2a10.66,10.66,0,0,1-2.81,5,6.43,6.43,0,0,1-4.23,2.1,4.92,4.92,0,0,1-5.06-5.06,6.47,6.47,0,0,1,2.1-4.23,10.71,10.71,0,0,1,5-2.81,8.55,8.55,0,0,1,1.27-.17Zm0,0"/><rect class="cls-6" x="152.38" y="187.03" width="40.64" height="12.45"/><path class="cls-6" d="M157.74,184.52a15,15,0,1,1,4.38,10.58,15,15,0,0,1-4.38-10.58Zm0,0"/><path class="cls-6" d="M180.57,187A12.46,12.46,0,1,1,193,199.48,12.42,12.42,0,0,1,180.57,187Zm0,0"/><path class="cls-6" d="M139.93,187a12.46,12.46,0,1,1,12.45,12.45A12.42,12.42,0,0,1,139.93,187Zm0,0"/><path class="cls-3" d="M193,174.58a12.49,12.49,0,0,0-7.38,2.42c-.1-.17-.22-.34-.32-.51a11.06,11.06,0,1,0,19.91,8.07,12.47,12.47,0,0,0-12.21-10Zm-40.64,0a12.45,12.45,0,0,0-12.2,10,11.06,11.06,0,1,0,19.91-8.07c-.11.17-.22.34-.32.51a12.5,12.5,0,0,0-7.39-2.42Zm0,0"/><path class="cls-3" d="M172.71,169.56A15,15,0,0,0,159.77,177l-.4-.27a14.19,14.19,0,1,0,26.67,0c-.14.08-.27.17-.4.26a15,15,0,0,0-12.93-7.44Zm0,0"/><path class="cls-7" d="M182.09,172.88v.38a12.45,12.45,0,0,0,22,8A12.46,12.46,0,0,0,185.64,177a15,15,0,0,0-3.54-4.12Zm-18.79,0a15,15,0,0,0-3.54,4.12,12.44,12.44,0,0,0-18.43,4.28,12.45,12.45,0,0,0,22-8v-.38Zm0,0"/><path class="cls-7" d="M172.71,169.56c-.34,0-.67,0-1,0s-.66.06-1,.1-.65.1-1,.16l-.95.22c-.31.09-.62.18-.93.29s-.61.22-.91.34-.59.26-.88.4-.57.29-.85.45-.55.33-.82.51-.53.37-.79.56-.51.4-.75.61-.48.44-.71.67-.45.46-.67.71a14.71,14.71,0,0,0-1.73,2.39c-.27-.19-.54-.38-.82-.55s-.56-.33-.85-.48a15,15,0,0,0,29.21,0c-.29.15-.58.31-.86.48h0c-.27.17-.55.36-.81.55a14.71,14.71,0,0,0-1.73-2.39c-.22-.25-.44-.48-.67-.71s-.47-.45-.71-.66a13.29,13.29,0,0,0-1.54-1.17,14.54,14.54,0,0,0-4.38-2,14.91,14.91,0,0,0-3.9-.52Zm0,0"/><path class="cls-16" d="M172.71,169.56a14.67,14.67,0,0,0-2.4.2,6.2,6.2,0,0,0-.09,1.05A6.71,6.71,0,0,0,183,173.67a14.89,14.89,0,0,0-10.28-4.11Zm0,0"/><path class="cls-16" d="M193,174.58a12.42,12.42,0,0,0-2.36.23V175a3.94,3.94,0,0,0,7.79.85,12.48,12.48,0,0,0-5.43-1.24Zm-40.64,0a12.35,12.35,0,0,0-2.29.21V175a3.94,3.94,0,0,0,7.77.89,12.36,12.36,0,0,0-5.48-1.28Zm0,0"/><path class="cls-4" d="M172.71,168.92a15.58,15.58,0,0,0-13.11,7.2,13.09,13.09,0,1,0-7.22,24H193a13.09,13.09,0,1,0-7.2-24,15.58,15.58,0,0,0-13.1-7.2Zm0,1.28a14.32,14.32,0,0,1,12.38,7.12l.36.62.57-.42a11.82,11.82,0,1,1,7,21.33H152.38a11.82,11.82,0,1,1,7-21.33l.57.42.36-.62a14.3,14.3,0,0,1,12.39-7.12Zm0,0"/><path class="cls-3" d="M150.7,0l29,0h16l0,16q0,10.48,0,21A29.09,29.09,0,0,1,150.7,0Z"/><text class="cls-17" transform="translate(159.76 31.75)">17</text></svg>