<?xml version="1.0" encoding="utf-8"?>
<!-- Generator: Adobe Illustrator 26.0.3, SVG Export Plug-In . SVG Version: 6.00 Build 0)  -->
<svg version="1.1" id="Слой_1" xmlns="http://www.w3.org/2000/svg" xmlns:xlink="http://www.w3.org/1999/xlink" x="0px" y="0px"
	 viewBox="0 0 195.6 280.6" style="enable-background:new 0 0 195.6 280.6;" xml:space="preserve">
<style type="text/css">
	.st0{clip-path:url(#SVGID_00000097465021628273280470000002883561891930418584_);fill:#C67550;}
	.st1{clip-path:url(#SVGID_00000097465021628273280470000002883561891930418584_);enable-background:new    ;}
	.st2{fill:#1A1A1A;}
	.st3{font-family:'Impact';}
	.st4{font-size:63.62px;}
	.st5{clip-path:url(#SVGID_00000097465021628273280470000002883561891930418584_);fill:#EB5A53;}
	.st6{clip-path:url(#SVGID_00000097465021628273280470000002883561891930418584_);fill:#1A1A1A;}
	.st7{clip-path:url(#SVGID_00000097465021628273280470000002883561891930418584_);fill:#FFFFFF;}
	.st8{clip-path:url(#SVGID_00000097465021628273280470000002883561891930418584_);fill:#EB5775;}
	.st9{clip-path:url(#SVGID_00000097465021628273280470000002883561891930418584_);fill:#F293A2;}
	.st10{clip-path:url(#SVGID_00000097465021628273280470000002883561891930418584_);fill:#CCE2E9;}
	.st11{clip-path:url(#SVGID_00000097465021628273280470000002883561891930418584_);fill:#A1C7D5;}
	.st12{clip-path:url(#SVGID_00000097465021628273280470000002883561891930418584_);fill:#DB9C73;}
	.st13{clip-path:url(#SVGID_00000097465021628273280470000002883561891930418584_);fill:#C9C0B7;}
	.st14{clip-path:url(#SVGID_00000097465021628273280470000002883561891930418584_);fill:#A0958A;}
	.st15{clip-path:url(#SVGID_00000097465021628273280470000002883561891930418584_);fill:#9B5341;}
	.st16{clip-path:url(#SVGID_00000097465021628273280470000002883561891930418584_);fill:#5A4540;}
	.st17{fill:#FFFFFF;}
	.st18{font-size:20px;}
</style>
<g>
	<defs>
		<rect id="SVGID_1_" x="0" y="0" width="195.6" height="280.6"/>
	</defs>
	<clipPath id="SVGID_00000041975209093701828160000001851438864442088601_">
		<use xlink:href="#SVGID_1_"  style="overflow:visible;"/>
	</clipPath>
	
		<rect x="-5.8" y="-7.6" style="clip-path:url(#SVGID_00000041975209093701828160000001851438864442088601_);fill:#C67550;" width="487.2" height="299.3"/>
	<g style="clip-path:url(#SVGID_00000041975209093701828160000001851438864442088601_);enable-background:new    ;">
		<text transform="matrix(1 0 0 1 24.83 258.71)" class="st2 st3 st4">bigos</text>
	</g>
	<path style="clip-path:url(#SVGID_00000041975209093701828160000001851438864442088601_);fill:#EB5A53;" d="M91.5,170.3
		c0,12.2-4.1,29.5-9.1,29.5s-9.1-17.3-9.1-29.5s5.4-14.6,9.1-14.6S91.5,158.1,91.5,170.3z"/>
	<path style="clip-path:url(#SVGID_00000041975209093701828160000001851438864442088601_);fill:#1A1A1A;" d="M82.4,153.1
		c-3,0-5.9,1.3-7.9,3.6c-2.3,2.8-3.7,7.1-3.7,13.5c0,6.8,1,13.5,2.8,20c0.7,2.8,1.8,5.4,3.2,7.9c1.3,2.1,3,4.1,5.7,4.1
		s4.4-2,5.7-4.1c1.4-2.5,2.4-5.1,3.2-7.9c1.8-6.5,2.7-13.2,2.8-20c0-6.5-1.4-10.8-3.8-13.5C88.3,154.4,85.5,153.1,82.4,153.1z
		 M82.4,158.2c1.6-0.1,3,0.6,4,1.9c1.3,1.5,2.6,4.5,2.6,10.2c-0.1,6.3-0.9,12.5-2.6,18.6c-0.6,2.3-1.5,4.6-2.6,6.7
		c-0.3,0.6-0.8,1.2-1.4,1.6c-0.6-0.4-1-1-1.4-1.6c-1.1-2.1-2-4.3-2.6-6.7c-1.6-6.1-2.5-12.3-2.6-18.6c0-5.7,1.3-8.7,2.6-10.2
		C79.4,158.8,80.9,158.1,82.4,158.2L82.4,158.2z"/>
	<path style="clip-path:url(#SVGID_00000041975209093701828160000001851438864442088601_);fill:#EB5A53;" d="M137.4,170.3
		c0,12.2-4.1,29.5-9.1,29.5s-9.1-17.3-9.1-29.5s5.4-14.6,9.1-14.6C132,155.6,137.4,158.1,137.4,170.3L137.4,170.3z"/>
	<path style="clip-path:url(#SVGID_00000041975209093701828160000001851438864442088601_);fill:#1A1A1A;" d="M128.3,153.1
		c-3,0-5.9,1.3-7.8,3.6c-2.3,2.8-3.8,7.1-3.8,13.5c0.1,6.8,1,13.5,2.8,20c0.7,2.8,1.8,5.4,3.2,7.9c1.3,2.1,3,4.1,5.7,4.1
		s4.4-2,5.7-4.1c1.4-2.5,2.4-5.1,3.1-7.9c1.8-6.5,2.7-13.2,2.8-20c0-6.5-1.4-10.8-3.7-13.5C134.2,154.4,131.3,153.1,128.3,153.1
		L128.3,153.1z M128.3,158.2c1.6-0.1,3,0.6,4,1.9c1.3,1.5,2.6,4.5,2.6,10.2c-0.1,6.3-0.9,12.5-2.6,18.6c-0.6,2.3-1.5,4.6-2.6,6.7
		c-0.3,0.6-0.8,1.2-1.4,1.6c-0.6-0.4-1-1-1.4-1.6c-1.1-2.1-2-4.3-2.6-6.7c-1.6-6.1-2.5-12.3-2.6-18.6c0-5.7,1.3-8.7,2.6-10.2
		C125.3,158.8,126.8,158.1,128.3,158.2L128.3,158.2z"/>
	<path style="clip-path:url(#SVGID_00000041975209093701828160000001851438864442088601_);fill:#EB5A53;" d="M45.9,109.8
		c-3.5,11.7-12.4,27-17.2,25.6s-3.7-19.2-0.1-30.8s9.4-12.4,12.9-11.3S49.5,98.2,45.9,109.8z"/>
	<path style="clip-path:url(#SVGID_00000041975209093701828160000001851438864442088601_);fill:#1A1A1A;" d="M42.3,92.1
		c-2.9-0.9-6-0.4-8.6,1.2c-3,2-5.6,5.7-7.5,11.8c-1.9,6.5-3,13.2-3.2,19.9c-0.1,2.8,0.1,5.7,0.7,8.5c0.6,2.4,1.7,4.8,4.3,5.6
		s4.8-0.6,6.6-2.3c2-2,3.8-4.2,5.3-6.6c3.6-5.7,6.4-11.9,8.5-18.3c1.9-6.2,1.8-10.7,0.3-14C47.5,95.1,45.2,93,42.3,92.1L42.3,92.1z
		 M40.8,97c1.5,0.4,2.7,1.5,3.3,2.9c0.8,1.8,1.1,5.1-0.5,10.5c-1.9,6-4.5,11.7-7.8,17.1c-1.2,2-2.7,3.9-4.4,5.6
		c-0.5,0.5-1.1,0.9-1.8,1.1c-0.4-0.6-0.7-1.2-0.8-1.9c-0.5-2.3-0.7-4.7-0.6-7.1c0.2-6.3,1.2-12.5,2.9-18.6c1.7-5.5,3.7-8,5.4-9.1
		C37.7,96.7,39.3,96.5,40.8,97z"/>
	<path style="clip-path:url(#SVGID_00000041975209093701828160000001851438864442088601_);fill:#EB5A53;" d="M179.7,104.1
		c4.6,11.2,7.5,28.8,2.9,30.7s-15-12.5-19.7-23.8s-0.6-15.5,2.8-17S175,92.8,179.7,104.1L179.7,104.1z"/>
	<path style="clip-path:url(#SVGID_00000041975209093701828160000001851438864442088601_);fill:#1A1A1A;" d="M164.7,91.7
		c-2.8,1.2-4.9,3.5-5.9,6.4c-1.1,3.4-0.8,8,1.7,13.9c2.6,6.2,6.1,12.1,10.2,17.4c1.7,2.3,3.7,4.3,5.9,6.1c2,1.5,4.3,2.7,6.9,1.6
		s3.3-3.5,3.7-6c0.3-2.8,0.3-5.7-0.1-8.5c-0.9-6.7-2.6-13.3-5.1-19.5c-2.5-6-5.4-9.4-8.6-11C170.7,90.7,167.5,90.6,164.7,91.7
		L164.7,91.7z M166.7,96.4c1.4-0.6,3-0.6,4.4,0.2c1.8,0.9,4.1,3.2,6.3,8.5c2.3,5.8,3.9,11.9,4.8,18.2c0.3,2.4,0.4,4.8,0.1,7.2
		c-0.1,0.7-0.3,1.4-0.6,2c-0.7-0.2-1.3-0.5-1.9-1c-1.9-1.5-3.6-3.2-5-5.2c-3.8-5-7-10.4-9.5-16.2c-2.2-5.3-2.2-8.5-1.6-10.4
		C164.1,98.1,165.2,96.9,166.7,96.4L166.7,96.4z"/>
	<path style="clip-path:url(#SVGID_00000041975209093701828160000001851438864442088601_);fill:#1A1A1A;" d="M105.4,39
		c-39.2,0-71,31.8-71,71s31.8,71,71,71s71-31.8,71-71l0,0C176.3,70.8,144.6,39,105.4,39z M105.4,47.1c34.7,0,62.9,28.2,62.9,62.9
		s-28.2,62.9-62.9,62.9S42.5,144.8,42.5,110c0,0,0,0,0,0c0-34.7,28.1-62.9,62.8-62.9C105.3,47.1,105.3,47.1,105.4,47.1L105.4,47.1z"
		/>
	<path style="clip-path:url(#SVGID_00000041975209093701828160000001851438864442088601_);fill:#FFFFFF;" d="M172.3,110
		c0,37-30,67-67,67c-37,0-67-30-67-67s30-67,67-67c17.8,0,34.8,7.1,47.4,19.6C165.3,75.2,172.3,92.2,172.3,110z"/>
	<path style="clip-path:url(#SVGID_00000041975209093701828160000001851438864442088601_);fill:#FFFFFF;" d="M163.8,106.6
		c0,34.2-27.7,61.9-61.9,61.9c-34.2,0-61.9-27.7-61.9-61.9c0-34.2,27.7-61.9,61.9-61.9c16.4,0,32.2,6.5,43.8,18.1
		C157.3,74.4,163.8,90.1,163.8,106.6z"/>
	<path style="clip-path:url(#SVGID_00000041975209093701828160000001851438864442088601_);fill:#EB5A53;" d="M38.4,110
		c-1.3,37,27.7,68,64.6,69.3s68-27.7,69.3-64.6c0.1-1.5,0.1-3.1,0-4.6H38.4z"/>
	<path style="clip-path:url(#SVGID_00000041975209093701828160000001851438864442088601_);fill:#EB5A53;" d="M40.1,110
		c1.9,34.1,31.1,60.3,65.2,58.4c31.5-1.7,56.6-26.9,58.4-58.4H40.1z"/>
	<path style="clip-path:url(#SVGID_00000041975209093701828160000001851438864442088601_);fill:#1A1A1A;" d="M105.4,42.1
		c-37.6,0-68,30.4-68,68s30.4,68,68,68s68-30.4,68-68l0,0C173.4,72.5,142.9,42.1,105.4,42.1z M105.4,44.1c36.5,0,66,29.5,66,65.9
		s-29.5,66-65.9,66s-66-29.5-66-65.9c0,0,0,0,0,0C39.4,73.7,68.9,44.1,105.4,44.1C105.4,44.1,105.4,44.1,105.4,44.1L105.4,44.1z"/>
	<path style="clip-path:url(#SVGID_00000041975209093701828160000001851438864442088601_);fill:#1A1A1A;" d="M40.5,128.1l1-0.1
		l1.8,13.5l-1,0.1L40.5,128.1z"/>
	<path style="clip-path:url(#SVGID_00000041975209093701828160000001851438864442088601_);fill:#1A1A1A;" d="M86.3,99.3
		c-5.1,0-9.2,4.1-9.2,9.1c0,0,0,0,0,0v7.5h18.3v-7.6C95.5,103.4,91.4,99.3,86.3,99.3C86.3,99.3,86.3,99.3,86.3,99.3L86.3,99.3z"/>
	<path style="clip-path:url(#SVGID_00000041975209093701828160000001851438864442088601_);fill:#FFFFFF;" d="M91.7,105.9
		c0,1.7-1.3,3-3,3s-3-1.3-3-3s1.3-3,3-3S91.7,104.2,91.7,105.9z"/>
	<path style="clip-path:url(#SVGID_00000041975209093701828160000001851438864442088601_);fill:#1A1A1A;" d="M124.1,99.3
		c-5.1,0-9.2,4.1-9.2,9.1c0,0,0,0,0,0v7.5h18.3v-7.6C133.3,103.4,129.2,99.3,124.1,99.3C124.1,99.3,124.1,99.3,124.1,99.3
		L124.1,99.3z"/>
	<path style="clip-path:url(#SVGID_00000041975209093701828160000001851438864442088601_);fill:#FFFFFF;" d="M129.5,105.9
		c0,1.7-1.3,3-3,3c-1.7,0-3-1.3-3-3s1.3-3,3-3C128.1,102.9,129.5,104.2,129.5,105.9z"/>
	<path style="clip-path:url(#SVGID_00000041975209093701828160000001851438864442088601_);fill:#EB5775;" d="M108.6,117.5
		c-3,0-5.5,2.4-5.5,5.5c0,0,0,0,0,0v4.9c4.4,1,8.9-1,11.1-4.9C114.1,120,111.6,117.5,108.6,117.5
		C108.6,117.5,108.6,117.5,108.6,117.5L108.6,117.5z"/>
	<path style="clip-path:url(#SVGID_00000041975209093701828160000001851438864442088601_);fill:#1A1A1A;" d="M108.6,116.6
		c-3.5,0-6.4,2.9-6.4,6.4v4.9h1.8V123c-0.1-2.6,2-4.7,4.5-4.8s4.7,2,4.8,4.5l0,0c-0.5,0.9-1.2,1.6-1.9,2.3l1.2,1.4
		c1-0.8,1.8-1.8,2.5-2.9l0.1-0.2V123C115,119.5,112.1,116.6,108.6,116.6L108.6,116.6z"/>
	
		<rect x="108.1" y="122.8" style="clip-path:url(#SVGID_00000041975209093701828160000001851438864442088601_);fill:#1A1A1A;" width="0.9" height="4.8"/>
	<path style="clip-path:url(#SVGID_00000041975209093701828160000001851438864442088601_);fill:#F293A2;" d="M105.5,121.3
		c0-0.7,0.5-1.2,1.2-1.2s1.2,0.5,1.2,1.2s-0.5,1.2-1.2,1.2S105.5,122,105.5,121.3L105.5,121.3z"/>
	<path style="clip-path:url(#SVGID_00000041975209093701828160000001851438864442088601_);fill:#1A1A1A;" d="M97.1,122.6l-1.5,0.9
		c3.1,5.3,9.9,7.1,15.2,4.1c1.7-1,3.1-2.4,4.1-4.1l-1.5-0.9c-2.6,4.5-8.3,6-12.8,3.4C99.1,125.2,98,124,97.1,122.6z"/>
	<path style="clip-path:url(#SVGID_00000041975209093701828160000001851438864442088601_);fill:#1A1A1A;" d="M105.2,12.9
		c-6.4,0-12.5,3-16.4,8.1c-1.5-0.4-3.1-0.7-4.7-0.7l0,0c-9.3,0.2-16.7,7.9-16.4,17.2c0.2,9,7.4,16.2,16.4,16.4l0,0
		c4.4,0,8.5-1.7,11.7-4.7l-3.7-3.8c-4.6,4.4-11.9,4.3-16.3-0.3s-4.3-11.9,0.3-16.3c3.4-3.2,8.4-4.1,12.6-2.3l2.2,1l1.2-2
		c4.3-7.2,13.6-9.6,20.8-5.2c2.2,1.3,4,3.1,5.2,5.2l1.2,2l2.2-1c5.8-2.6,12.6,0.1,15.1,5.9c2.6,5.8-0.1,12.6-5.9,15.1
		c-4.3,1.9-9.2,1-12.6-2.2l-3.7,3.8c3.1,3,7.3,4.7,11.6,4.7l0,0c9.3,0,16.8-7.5,16.8-16.8s-7.5-16.8-16.8-16.8l0,0
		c-1.6,0-3.1,0.2-4.7,0.7C117.7,15.9,111.7,12.9,105.2,12.9L105.2,12.9L105.2,12.9z"/>
	<path style="clip-path:url(#SVGID_00000041975209093701828160000001851438864442088601_);fill:#1A1A1A;" d="M87.5,44.2
		c-3.2,0-5.8,2.6-5.8,5.8v10.6c0,3.2,2.6,5.8,5.8,5.8H123c3.2,0,5.8-2.6,5.8-5.8V50c0-3.2-2.6-5.8-5.8-5.8H87.5z M87.5,49.5H123
		c0.2,0,0.4,0.1,0.5,0.4c0,0,0,0.1,0,0.1v10.6c0,0.2-0.1,0.4-0.4,0.5c0,0-0.1,0-0.1,0H87.5c-0.2,0-0.4-0.1-0.5-0.4c0,0,0-0.1,0-0.1
		V50c0-0.2,0.1-0.4,0.4-0.5C87.4,49.5,87.4,49.5,87.5,49.5L87.5,49.5z"/>
	<path style="clip-path:url(#SVGID_00000041975209093701828160000001851438864442088601_);fill:#FFFFFF;" d="M87.5,46.9H123
		c1.7,0,3.1,1.4,3.1,3.1v10.6c0,1.7-1.4,3.1-3.1,3.1c0,0,0,0,0,0H87.5c-1.7,0-3.1-1.4-3.1-3.1c0,0,0,0,0,0V50
		C84.3,48.3,85.7,46.9,87.5,46.9C87.4,46.9,87.5,46.9,87.5,46.9L87.5,46.9z"/>
	<path style="clip-path:url(#SVGID_00000041975209093701828160000001851438864442088601_);fill:#CCE2E9;" d="M87.5,46.9
		c-1.7,0-3.1,1.4-3.1,3.1c0,0,0,0,0,0v5.8c3.5,0,6.9-1.1,9.9-2.9c6.8,3.9,15.2,3.9,22.1,0c3,1.9,6.4,2.9,9.9,2.9V50
		c0-1.7-1.4-3.1-3.1-3.1H87.5z"/>
	<path style="clip-path:url(#SVGID_00000041975209093701828160000001851438864442088601_);fill:#CCE2E9;" d="M109.7,46.9
		c1.7,0,3.1,1.4,3.1,3.1c0,0,0,0,0,0v10.6c0,1.7-1.4,3.1-3.1,3.1c0,0,0,0,0,0H123c1.7,0,3.1-1.4,3.1-3.1c0,0,0,0,0,0V50
		c0-1.7-1.4-3.1-3.1-3.1c0,0,0,0,0,0H109.7z"/>
	<path style="clip-path:url(#SVGID_00000041975209093701828160000001851438864442088601_);fill:#A1C7D5;" d="M84.3,57.7v2.8
		c0,1.7,1.4,3.1,3.1,3.1c0,0,0,0,0,0H123c1.7,0,3.1-1.4,3.1-3.1c0,0,0,0,0,0v-2.8c0,1.7-1.4,3.1-3.1,3.1c0,0,0,0,0,0H87.5
		C85.7,60.9,84.3,59.5,84.3,57.7C84.3,57.8,84.3,57.7,84.3,57.7z"/>
	<path style="clip-path:url(#SVGID_00000041975209093701828160000001851438864442088601_);fill:#A1C7D5;" d="M118.2,46.9
		c1.7,0,3.1,1.4,3.1,3.1c0,0,0,0,0,0v10.6c0,1.7-1.4,3.1-3.1,3.1c0,0,0,0,0,0h4.8c1.7,0,3.1-1.4,3.1-3.1c0,0,0,0,0,0V50
		c0-1.7-1.4-3.1-3.1-3.1c0,0,0,0,0,0H118.2z"/>
	<path style="clip-path:url(#SVGID_00000041975209093701828160000001851438864442088601_);fill:#1A1A1A;" d="M87.5,46
		c-2.2,0-4,1.8-4,4v10.6c0,2.2,1.8,4,4,4H123c2.2,0,4-1.8,4-4V50c0-2.2-1.8-4-4-4H87.5z M87.5,47.8H123c1.2,0,2.2,1,2.2,2.2v10.6
		c0,1.2-1,2.2-2.2,2.2c0,0,0,0,0,0H87.5c-1.2,0-2.2-1-2.2-2.2c0,0,0,0,0-0.1V50C85.2,48.8,86.2,47.8,87.5,47.8
		C87.4,47.7,87.4,47.7,87.5,47.8L87.5,47.8z"/>
	<path style="clip-path:url(#SVGID_00000041975209093701828160000001851438864442088601_);fill:#CCE2E9;" d="M140.4,37.2
		c0,7.8-6.4,14.2-14.2,14.1s-14.2-6.4-14.1-14.2c0-7.8,6.4-14.1,14.2-14.1C134.1,23,140.4,29.4,140.4,37.2
		C140.4,37.2,140.4,37.2,140.4,37.2z"/>
	<path style="clip-path:url(#SVGID_00000041975209093701828160000001851438864442088601_);fill:#A1C7D5;" d="M126.2,23
		c-7.8,0-14.2,6.3-14.2,14.1s6.3,14.2,14.1,14.2c7.8,0,14.2-6.3,14.2-14.1c0-3.8-1.5-7.4-4.1-10C133.6,24.5,130,23,126.2,23z
		 M126.6,23.4L126.6,23.4c6.7,0,12.1,5.4,12.1,12.1s-5.4,12.2-12.1,12.2c-6.7,0-12.2-5.4-12.2-12.2S119.9,23.4,126.6,23.4
		L126.6,23.4z"/>
	<path style="clip-path:url(#SVGID_00000041975209093701828160000001851438864442088601_);fill:#FFFFFF;" d="M137.1,33.8
		c0,5.6-4.5,10.1-10.1,10.1c-5.6,0-10.1-4.5-10.1-10.1c0-5.6,4.5-10.1,10.1-10.1c0,0,0,0,0,0C132.6,23.7,137.1,28.2,137.1,33.8z"/>
	<path style="clip-path:url(#SVGID_00000041975209093701828160000001851438864442088601_);fill:#CCE2E9;" d="M123.1,33.5
		c0,9.9-8,17.9-17.9,17.9c-9.9,0-17.9-8-17.9-17.9c0-9.9,8-17.9,17.9-17.9c4.8,0,9.3,1.9,12.7,5.2C121.2,24.2,123.1,28.7,123.1,33.5
		z"/>
	<path style="clip-path:url(#SVGID_00000041975209093701828160000001851438864442088601_);fill:#CCE2E9;" d="M98.4,37.2
		c0,7.8-6.4,14.2-14.2,14.1C76.3,51.3,70,45,70,37.1C70,29.3,76.4,23,84.2,23C92,23,98.4,29.4,98.4,37.2
		C98.4,37.2,98.4,37.2,98.4,37.2z"/>
	<path style="clip-path:url(#SVGID_00000041975209093701828160000001851438864442088601_);fill:#FFFFFF;" d="M84.2,23
		c-6.3,0-11.9,4.2-13.6,10.2c0.8,6.6,6.8,11.2,13.4,10.4c6.6-0.8,11.2-6.8,10.4-13.4c-0.2-1.4-0.6-2.8-1.2-4
		C90.6,24.2,87.4,23,84.2,23L84.2,23z"/>
	<path style="clip-path:url(#SVGID_00000041975209093701828160000001851438864442088601_);fill:#1A1A1A;" d="M91.7,43.8l-1.4,1.1
		c6.3,8.2,18.1,9.8,26.3,3.5c1.3-1,2.5-2.2,3.5-3.5l-1.4-1.1c-5.7,7.5-16.4,8.9-23.8,3.2C93.7,46.1,92.6,45,91.7,43.8z"/>
	<path style="clip-path:url(#SVGID_00000041975209093701828160000001851438864442088601_);fill:#FFFFFF;" d="M105.5,15.1
		c-10,0-18.2,8.2-18.2,18.2c0,0.7,0,1.5,0.1,2.2c5.2,9.4,17,12.8,26.4,7.6c4.9-2.7,8.4-7.5,9.6-13C121.9,21.4,114.3,15.1,105.5,15.1
		L105.5,15.1z"/>
	<path style="clip-path:url(#SVGID_00000041975209093701828160000001851438864442088601_);fill:#1A1A1A;" d="M105.2,14.7
		c-6.3,0-12.2,3.2-15.7,8.5c-1.7-0.7-3.5-1-5.3-1l0,0c-8.3,0-15.1,6.7-15.1,15c0,8.3,6.7,15.1,15,15.1c3.9,0,7.6-1.5,10.5-4.2
		l-1.2-1.3c-5.3,5.1-13.7,4.9-18.8-0.3c-5.1-5.3-4.9-13.7,0.3-18.8c3.9-3.8,9.7-4.8,14.6-2.6l0.7,0.3l0.4-0.7
		c4.8-8,15.3-10.6,23.3-5.8c2.4,1.4,4.4,3.4,5.8,5.8l0.4,0.7l0.7-0.3c6.7-3,14.5,0.1,17.5,6.8s-0.1,14.5-6.8,17.5
		c-4.9,2.2-10.7,1.1-14.5-2.6l-1.2,1.3c2.8,2.7,6.5,4.2,10.4,4.2l0,0c8.3,0,15.1-6.7,15.1-15.1c0-8.3-6.7-15.1-15.1-15.1l0,0
		c-1.8,0-3.6,0.3-5.3,1C117.4,17.9,111.5,14.7,105.2,14.7L105.2,14.7z"/>
	<path style="clip-path:url(#SVGID_00000041975209093701828160000001851438864442088601_);fill:#1A1A1A;" d="M16.6,70.2
		c-2.2,0-4,1.8-4.1,4l-0.1,7.3c0,2.2,1.8,4,4,4.1c2.2,0,4-1.8,4.1-4l0.1-7.3C20.6,72,18.8,70.2,16.6,70.2L16.6,70.2z"/>
	<path style="clip-path:url(#SVGID_00000041975209093701828160000001851438864442088601_);fill:#1A1A1A;" d="M21.3,69.3
		c-2.2,0-4,1.8-4.1,4l-0.1,9.2c0,2.2,1.8,4,4,4.1c2.2,0,4-1.8,4.1-4l0.1-9.2C25.2,71.2,23.5,69.4,21.3,69.3z"/>
	<path style="clip-path:url(#SVGID_00000041975209093701828160000001851438864442088601_);fill:#1A1A1A;" d="M30.5,70.3
		c2.2,0,4,1.8,4,4.1l-0.1,7.3c0,2.2-1.8,4-4.1,4c-2.2,0-4-1.8-4-4.1l0.1-7.3C26.5,72.1,28.3,70.3,30.5,70.3L30.5,70.3z"/>
	<path style="clip-path:url(#SVGID_00000041975209093701828160000001851438864442088601_);fill:#1A1A1A;" d="M25.9,69.3
		c2.2,0.1,4,1.9,4,4.1l-0.1,9.2c0,2.2-1.8,4-4.1,4s-4-1.8-4-4.1l0.1-9.2C21.9,71.1,23.7,69.4,25.9,69.3z"/>
	<path style="clip-path:url(#SVGID_00000041975209093701828160000001851438864442088601_);fill:#1A1A1A;" d="M20.3,93.4
		c-1.9,0-3.4,1.5-3.5,3.4l-0.3,36.8c0,3.6,2.9,6.5,6.4,6.6c3.6,0,6.5-2.9,6.6-6.4L29.8,97c0-1.9-1.5-3.4-3.4-3.5L20.3,93.4z
		 M23,99.7h0.5l-0.3,34.1c0,0.2-0.1,0.3-0.3,0.3s-0.3-0.1-0.3-0.3L23,99.7z"/>
	<path style="clip-path:url(#SVGID_00000041975209093701828160000001851438864442088601_);fill:#1A1A1A;" d="M13.2,65.6
		c-2.8,0-5,2.2-5.1,5l-0.1,7c-0.1,4.7,1.9,9.1,5.5,12.2c2.3,2.2,3.6,2.8,3.6,6.8l6.1,0.1h0.1h6.1c0-3.9,1.3-4.6,3.7-6.7
		c3.6-3,5.7-7.4,5.7-12.1l0.1-7c0-2.8-2.2-5-5-5.1L13.2,65.6z M14.4,71.8L32.7,72l0,5.8c0,4.6-1.4,5.5-3.7,7.5
		c-2.1,1.9-5.1,4.9-5.6,10c-0.4-5.1-3.4-8.1-5.5-10.1c-2.2-2.1-3.6-3-3.6-7.6L14.4,71.8z"/>
	<path style="clip-path:url(#SVGID_00000041975209093701828160000001851438864442088601_);fill:#C67550;" d="M20.3,96.6
		c-0.2,0-0.3,0.1-0.3,0.3l0,0c-0.1,12.3-0.2,24.6-0.3,36.8c0,1.9,1.5,3.4,3.4,3.4c1.9,0,3.4-1.5,3.4-3.4c0.1-12.3,0.2-24.6,0.3-36.8
		c0-0.2-0.1-0.3-0.3-0.3L20.3,96.6z"/>
	<path style="clip-path:url(#SVGID_00000041975209093701828160000001851438864442088601_);fill:#DB9C73;" d="M21.1,96.6l-0.3,36.7
		c0,1,0.4,1.9,1.1,2.6c-0.1-0.4-0.2-0.8-0.2-1.2L22,96.6L21.1,96.6z"/>
	<path style="clip-path:url(#SVGID_00000041975209093701828160000001851438864442088601_);fill:#C9C0B7;" d="M13.2,68.7
		c-1,0-1.9,0.8-1.9,1.9c0,0,0,0,0,0l-0.1,7c-0.1,10.9,9.1,9.1,9,19h6.1c0.1-9.8,9.3-7.9,9.4-18.8l0.1-7c0-1-0.8-1.9-1.8-1.9
		L13.2,68.7z M21.2,72.4c0.5,0,0.9,0.4,0.9,0.9l-0.1,9.2c0,0.5-0.4,0.9-0.9,0.9c0,0,0,0,0,0c-0.5,0-0.9-0.4-0.9-0.9c0,0,0,0,0,0
		l0.1-9.2C20.3,72.8,20.7,72.4,21.2,72.4z M25.9,72.4c0.5,0,0.9,0.4,0.9,0.9c0,0,0,0,0,0l-0.1,9.2c0,0.5-0.4,0.9-0.9,0.9
		c-0.5,0-0.9-0.4-0.9-0.9l0.1-9.2C24.9,72.8,25.4,72.4,25.9,72.4C25.9,72.4,25.9,72.4,25.9,72.4z M16.6,73.3c0.5,0,0.9,0.4,0.9,0.9
		c0,0,0,0,0,0l-0.1,7.3c0,0.5-0.4,0.9-0.9,0.9s-0.9-0.4-0.9-0.9l0.1-7.3C15.7,73.7,16.1,73.3,16.6,73.3
		C16.6,73.3,16.6,73.3,16.6,73.3L16.6,73.3z M30.5,73.4c0.5,0,0.9,0.4,0.9,0.9c0,0,0,0,0,0l-0.1,7.3c0,0.5-0.4,0.9-0.9,0.9
		s-0.9-0.4-0.9-0.9l0.1-7.3C29.6,73.8,30,73.4,30.5,73.4C30.5,73.4,30.5,73.4,30.5,73.4L30.5,73.4z"/>
	<path style="clip-path:url(#SVGID_00000041975209093701828160000001851438864442088601_);fill:#FFFFFF;" d="M21.9,72
		c-0.4,0-0.8,0.2-1.1,0.5c0.1-0.1,0.3-0.1,0.4-0.1c0.5,0,0.9,0.4,0.9,0.9l-0.1,9.2c0,0.5-0.4,0.9-0.9,0.9c0,0,0,0,0,0
		c-0.1,0-0.3,0-0.4-0.1c0.4,0.6,1.3,0.7,1.9,0.3c0.3-0.3,0.5-0.7,0.5-1.1l0.1-9.2C23.3,72.6,22.7,72,21.9,72z M26.5,72
		c-0.4,0-0.8,0.2-1.1,0.5c0.1-0.1,0.3-0.1,0.4-0.1c0.5,0,0.9,0.4,0.9,0.9c0,0,0,0,0,0l-0.1,9.2c0,0.5-0.4,0.9-0.9,0.9
		c-0.1,0-0.3,0-0.4-0.1c0.3,0.3,0.7,0.5,1.1,0.6c0.8,0,1.4-0.6,1.4-1.4l0.1-9.2C27.9,72.6,27.3,72,26.5,72z M17.3,72.8
		c-0.4,0-0.8,0.2-1.1,0.5c0.1-0.1,0.3-0.1,0.4-0.1c0.5,0,0.9,0.4,0.9,0.9c0,0,0,0,0,0l-0.1,7.3c0,0.5-0.4,0.9-0.9,0.9
		c-0.1,0-0.3,0-0.4-0.1c0.4,0.6,1.3,0.7,1.9,0.3c0.3-0.3,0.5-0.7,0.5-1.1l0.1-7.3C18.6,73.5,18,72.9,17.3,72.8z M31.2,73
		c-0.4,0-0.8,0.2-1.1,0.5c0.1-0.1,0.3-0.1,0.4-0.1c0.5,0,0.9,0.4,0.9,0.9c0,0,0,0,0,0l-0.1,7.3c0,0.5-0.4,0.9-0.9,0.9c0,0,0,0,0,0
		c-0.1,0-0.3,0-0.4-0.1c0.4,0.6,1.3,0.7,1.9,0.3c0.3-0.3,0.5-0.7,0.5-1.1l0.1-7.3C32.5,73.6,31.9,73,31.2,73z"/>
	<path style="clip-path:url(#SVGID_00000041975209093701828160000001851438864442088601_);fill:#A0958A;" d="M13.2,68.7
		c-1,0-1.9,0.8-1.9,1.9c0,0,0,0,0,0l24.5,0.2c0-1-0.8-1.9-1.8-1.9L13.2,68.7z"/>
	<path style="clip-path:url(#SVGID_00000041975209093701828160000001851438864442088601_);fill:#A0958A;" d="M15.2,86.9
		c2.5,2.4,5.2,4.3,5.1,9.6h6.1c0-5.3,2.8-7.2,5.3-9.5L15.2,86.9z"/>
	<path style="clip-path:url(#SVGID_00000041975209093701828160000001851438864442088601_);fill:#FFFFFF;" d="M13.2,68.7
		c-1,0-1.9,0.8-1.9,1.9c0,0,0,0,0,0l-0.1,7c-0.1,10.9,9.1,9.1,9,19h1.3c0.1-10.9-9.1-8.4-9-19l0.1-7c0-1,0.9-1.9,1.9-1.9
		c0,0,0,0,0,0L13.2,68.7z"/>
	<path style="clip-path:url(#SVGID_00000041975209093701828160000001851438864442088601_);fill:#9B5341;" d="M24.7,96.6
		c0.2,0,0.3,0.1,0.3,0.3l0,0l-0.3,36.8c0,3.4-2.6,3.2-2.6,3.2c0.3,0.1,0.6,0.1,0.8,0.1c1.9,0,3.4-1.5,3.4-3.3c0,0,0,0,0,0L26.7,97
		c0-0.2-0.1-0.3-0.3-0.3L24.7,96.6z"/>
	<path style="clip-path:url(#SVGID_00000041975209093701828160000001851438864442088601_);fill:#DB9C73;" d="M20.3,96.6
		c-0.2,0-0.3,0.1-0.3,0.3l0,0l-0.3,36.8c0,1.7,1.3,3.2,3,3.4c-1.7-0.2-2.9-1.6-2.9-3.3L20,98c0-0.2,0.1-0.3,0.3-0.3l5.9,0.1
		c0.2,0,0.3,0.1,0.3,0.3c0,0,0,0,0,0l-0.3,35.8c0,1.7-1.3,3.1-3,3.2c1.7-0.2,3.1-1.6,3.1-3.3L26.7,97c0-0.2-0.1-0.3-0.3-0.3
		L20.3,96.6z"/>
	<path style="clip-path:url(#SVGID_00000041975209093701828160000001851438864442088601_);fill:#1A1A1A;" d="M20.3,96.1
		c-0.4,0-0.8,0.3-0.8,0.8c0,0,0,0,0,0l-0.3,36.9c0.1,2.1,1.9,3.8,4,3.7c2-0.1,3.5-1.6,3.7-3.6L27.2,97c0-0.4-0.3-0.8-0.8-0.8
		L20.3,96.1z M20.4,97h5.9L26,133.8c0,1.6-1.3,2.9-2.9,2.9s-2.9-1.3-2.9-2.9L20.4,97z"/>
	<path style="clip-path:url(#SVGID_00000041975209093701828160000001851438864442088601_);fill:#5A4540;" d="M24.1,105.6
		c0,0.2-0.1,0.4-0.3,0.6c-0.2,0.2-0.4,0.2-0.6,0.2c-0.5,0-0.9-0.4-0.9-0.9c0-0.2,0.1-0.4,0.2-0.6c0.2-0.2,0.4-0.2,0.6-0.2
		c0.2,0,0.4,0.1,0.6,0.3C24,105.1,24.1,105.3,24.1,105.6z"/>
	<path style="clip-path:url(#SVGID_00000041975209093701828160000001851438864442088601_);fill:#1A1A1A;" d="M23.3,104.5
		c-0.6,0-1.1,0.5-1.1,1.1c0,0.6,0.5,1.1,1.1,1.1c0.6,0,1.1-0.5,1.1-1.1C24.3,105,23.9,104.5,23.3,104.5
		C23.3,104.5,23.3,104.5,23.3,104.5z M23.3,104.9c0.3,0,0.6,0.3,0.6,0.6c0,0,0,0,0,0c0,0.3-0.3,0.6-0.6,0.6c0,0,0,0,0,0
		c-0.3,0-0.6-0.3-0.6-0.6c0,0,0,0,0,0C22.6,105.2,22.9,104.9,23.3,104.9C23.3,104.9,23.3,104.9,23.3,104.9z"/>
	<path style="clip-path:url(#SVGID_00000041975209093701828160000001851438864442088601_);fill:#1A1A1A;" d="M13.2,68.2
		c-1.3,0-2.3,1-2.4,2.3c0,0,0,0,0,0l-0.1,7c-0.1,5.6,2.4,8.1,4.7,10.2s4.4,4,4.4,8.8h0.9c0-5-2.4-7.3-4.7-9.4s-4.4-4.2-4.4-9.6
		l0.1-7c0-0.8,0.6-1.4,1.4-1.4c0,0,0,0,0.1,0L34,69.3c0.8,0,1.4,0.6,1.4,1.4c0,0,0,0,0,0l-0.1,7c0,5.3-2.2,7.4-4.5,9.5
		S26,91.6,26,96.6h0.9c0-4.8,2.2-6.6,4.5-8.7s4.8-4.6,4.8-10.1l0.1-7c0-1.3-1-2.4-2.3-2.4c0,0,0,0,0,0L13.2,68.2z"/>
	<path style="clip-path:url(#SVGID_00000041975209093701828160000001851438864442088601_);fill:#5A4540;" d="M24.2,100
		c0,0.2-0.1,0.4-0.3,0.6c-0.2,0.2-0.4,0.2-0.6,0.2c-0.2,0-0.4-0.1-0.6-0.2c-0.2-0.2-0.2-0.4-0.2-0.6c0-0.5,0.4-0.9,0.9-0.8
		c0.2,0,0.4,0.1,0.6,0.3C24.1,99.6,24.2,99.8,24.2,100z"/>
	<path style="clip-path:url(#SVGID_00000041975209093701828160000001851438864442088601_);fill:#1A1A1A;" d="M23.3,99
		c-0.6-0.1-1.1,0.4-1.2,1c-0.1,0.6,0.4,1.1,1,1.2c0.1,0,0.1,0,0.2,0c0.6,0.1,1.1-0.4,1.2-1c0.1-0.6-0.4-1.1-1-1.2
		C23.5,99,23.4,99,23.3,99z M23.3,99.4c0.4,0,0.6,0.4,0.6,0.7c0,0.3-0.3,0.5-0.6,0.6c-0.3,0-0.6-0.3-0.6-0.6c0,0,0,0,0,0
		C22.7,99.7,23,99.4,23.3,99.4L23.3,99.4z"/>
	<path style="clip-path:url(#SVGID_00000041975209093701828160000001851438864442088601_);fill:#1A1A1A;" d="M16.6,72.9
		c-0.8,0-1.4,0.6-1.4,1.3l-0.1,7.3c0,0.8,0.6,1.4,1.4,1.4c0.8,0,1.4-0.6,1.4-1.4c0,0,0,0,0,0l0.1-7.3C18,73.5,17.4,72.9,16.6,72.9
		L16.6,72.9z M16.6,73.7c0.3,0,0.5,0.2,0.5,0.5c0,0,0,0,0,0L17,81.6c0,0.3-0.2,0.5-0.4,0.5c0,0,0,0,0,0c-0.3,0-0.5-0.2-0.5-0.5
		c0,0,0,0,0,0l0.1-7.3C16.1,74,16.3,73.7,16.6,73.7C16.6,73.7,16.6,73.7,16.6,73.7z"/>
	<path style="clip-path:url(#SVGID_00000041975209093701828160000001851438864442088601_);fill:#1A1A1A;" d="M21.2,72
		c-0.8,0-1.4,0.6-1.4,1.3l-0.1,9.2c0.1,0.8,0.7,1.3,1.5,1.2c0.7-0.1,1.2-0.6,1.2-1.2l0.1-9.2C22.6,72.6,22,72,21.2,72z M21.2,72.9
		c0.3,0,0.5,0.2,0.5,0.4c0,0,0,0,0,0l-0.1,9.2c0,0.3-0.1,0.5-0.4,0.5c-0.3,0-0.5-0.1-0.5-0.4c0,0,0-0.1,0-0.1l0.1-9.2
		C20.8,73.1,21,72.9,21.2,72.9C21.2,72.9,21.2,72.9,21.2,72.9L21.2,72.9z"/>
	<path style="clip-path:url(#SVGID_00000041975209093701828160000001851438864442088601_);fill:#1A1A1A;" d="M30.5,73
		c0.8,0,1.4,0.6,1.4,1.4l-0.1,7.3c-0.1,0.8-0.7,1.3-1.5,1.2c-0.7-0.1-1.2-0.6-1.2-1.2l0.1-7.3C29.1,73.6,29.7,73,30.5,73L30.5,73z
		 M30.5,73.9c-0.2,0-0.5,0.2-0.5,0.4c0,0,0,0,0,0.1l0,7.3c0,0.3,0.2,0.5,0.4,0.5c0,0,0,0,0,0c0.3,0,0.5-0.2,0.5-0.5c0,0,0,0,0,0
		l0.1-7.4C31,74.1,30.8,73.9,30.5,73.9C30.5,73.9,30.5,73.9,30.5,73.9L30.5,73.9z"/>
	<path style="clip-path:url(#SVGID_00000041975209093701828160000001851438864442088601_);fill:#1A1A1A;" d="M25.9,72
		c0.7,0,1.4,0.6,1.4,1.4l-0.1,9.2c-0.1,0.8-0.7,1.3-1.5,1.2c-0.7-0.1-1.2-0.6-1.2-1.2l0.1-9.2C24.5,72.6,25.1,72,25.9,72
		C25.9,72,25.9,72,25.9,72z M25.9,72.9c-0.3,0-0.5,0.2-0.5,0.4c0,0,0,0,0,0l-0.1,9.2c0,0.3,0.2,0.5,0.5,0.5s0.5-0.2,0.5-0.5l0.1-9.2
		C26.4,73.1,26.2,72.9,25.9,72.9C25.9,72.9,25.9,72.9,25.9,72.9L25.9,72.9z"/>
	<path style="clip-path:url(#SVGID_00000041975209093701828160000001851438864442088601_);fill:#1A1A1A;" d="M70.9,158.4
		c-0.1,3.4,2.5,6.3,5.9,6.4c3.4,0.1,6.3-2.5,6.4-5.9c0-0.2,0-0.3,0-0.5v-9.2c-0.1-3.4-3-6.1-6.4-5.9c-3.2,0.1-5.8,2.7-5.9,5.9V158.4
		z"/>
	<path style="clip-path:url(#SVGID_00000041975209093701828160000001851438864442088601_);fill:#1A1A1A;" d="M127.2,158.4
		c-0.1,3.4,2.5,6.3,5.9,6.4s6.3-2.5,6.4-5.9c0-0.2,0-0.3,0-0.5v-9.2c-0.1-3.4-3-6.1-6.4-5.9c-3.2,0.1-5.8,2.7-5.9,5.9L127.2,158.4z"
		/>
	<path style="clip-path:url(#SVGID_00000041975209093701828160000001851438864442088601_);fill:#1A1A1A;" d="M71.2,151.8l-0.2,2.9
		L69.4,187h71.7l-1.9-35.2H71.2z M77.1,158h56.2l1.2,22.8H75.9L77.1,158z"/>
	<path style="clip-path:url(#SVGID_00000041975209093701828160000001851438864442088601_);fill:#CCE2E9;" d="M74,158.4v-9.2
		c0-1.7,1.4-3.1,3.1-3.1c1.7,0,3.1,1.4,3.1,3.1c0,0,0,0,0,0v9.2c0,1.7-1.4,3.1-3.1,3.1C75.4,161.5,74,160.1,74,158.4
		C74,158.4,74,158.4,74,158.4z"/>
	<path style="clip-path:url(#SVGID_00000041975209093701828160000001851438864442088601_);fill:#1A1A1A;" d="M73.5,158.4
		c-0.2,1.9,1.2,3.7,3.1,3.9c1.9,0.2,3.7-1.2,3.9-3.1c0-0.2,0-0.5,0-0.7v-9.2c-0.2-1.9-1.9-3.3-3.9-3.1c-1.6,0.2-2.9,1.5-3.1,3.1
		V158.4z M74.4,158.4v-9.2c0-1.5,1.2-2.6,2.6-2.6c1.5,0,2.6,1.2,2.6,2.6l0,0v9.2c0,1.5-1.2,2.6-2.6,2.6
		C75.6,161,74.4,159.9,74.4,158.4z"/>
	<path style="clip-path:url(#SVGID_00000041975209093701828160000001851438864442088601_);fill:#CCE2E9;" d="M130.3,158.4v-9.2
		c0.1-1.7,1.6-3,3.3-2.9c1.6,0.1,2.8,1.3,2.9,2.9v9.2c0.1,1.7-1.2,3.2-2.9,3.3c-1.7,0.1-3.2-1.2-3.3-2.9
		C130.3,158.6,130.3,158.5,130.3,158.4z"/>
	<path style="clip-path:url(#SVGID_00000041975209093701828160000001851438864442088601_);fill:#1A1A1A;" d="M129.9,158.4
		c-0.2,1.9,1.2,3.7,3.1,3.9s3.7-1.2,3.9-3.1c0-0.2,0-0.5,0-0.7v-9.2c-0.2-1.9-1.9-3.3-3.9-3.1c-1.6,0.2-2.9,1.5-3.1,3.1V158.4z
		 M130.8,158.4v-9.2c0.1-1.4,1.3-2.6,2.8-2.5c1.3,0.1,2.4,1.1,2.5,2.5v9.2c0.1,1.4-1,2.7-2.5,2.8c-1.4,0.1-2.7-1-2.8-2.5
		C130.8,158.6,130.8,158.5,130.8,158.4z"/>
	<path style="clip-path:url(#SVGID_00000041975209093701828160000001851438864442088601_);fill:#FFFFFF;" d="M74.2,154.9l-1.5,29
		h65.1l-1.5-29H74.2z"/>
	<path style="clip-path:url(#SVGID_00000041975209093701828160000001851438864442088601_);fill:#CCE2E9;" d="M74.2,154.9l-1.5,29
		h8.8l1.5-29H74.2z"/>
	<path style="clip-path:url(#SVGID_00000041975209093701828160000001851438864442088601_);fill:#CCE2E9;" d="M122.2,154.9l1.4,29
		h14.2l-1.5-29H122.2z"/>
	<path style="clip-path:url(#SVGID_00000041975209093701828160000001851438864442088601_);fill:#CCE2E9;" d="M73.4,170.2l-0.3,5.1
		h64.2l-0.3-5.1H73.4z"/>
	<path style="clip-path:url(#SVGID_00000041975209093701828160000001851438864442088601_);fill:#CCE2E9;" d="M73.4,170.2l-0.3,5.1
		h8.8l0.3-5.1H73.4z"/>
	<path style="clip-path:url(#SVGID_00000041975209093701828160000001851438864442088601_);fill:#CCE2E9;" d="M122.9,170.2l0.2,5.1
		h14.2l-0.3-5.1H122.9z"/>
	<path style="clip-path:url(#SVGID_00000041975209093701828160000001851438864442088601_);fill:#1A1A1A;" d="M73.8,154.4v0.4
		l-1.6,29.5h66.1l-1.6-29.9H73.8z M74.6,155.3h61.2l1.5,28.1H73.1L74.6,155.3z"/>
	<path style="clip-path:url(#SVGID_00000041975209093701828160000001851438864442088601_);fill:#FFFFFF;" d="M77.1,157.2
		c0.7-0.1,1.3,0.4,1.3,1.1c0.1,0.7-0.4,1.3-1.1,1.3c-0.1,0-0.1,0-0.2,0c-0.3,0-0.6-0.1-0.9-0.4c-0.2-0.2-0.3-0.5-0.3-0.9
		C75.8,157.7,76.4,157.2,77.1,157.2L77.1,157.2z"/>
	<path style="clip-path:url(#SVGID_00000041975209093701828160000001851438864442088601_);fill:#1A1A1A;" d="M75.4,158.4
		c0,0.9,0.7,1.7,1.7,1.7s1.7-0.7,1.7-1.7c0-0.9-0.7-1.7-1.7-1.7l0,0C76.1,156.7,75.4,157.5,75.4,158.4z M76.3,158.4
		c0-0.4,0.3-0.8,0.8-0.8s0.8,0.3,0.8,0.8s-0.3,0.8-0.8,0.8l0,0C76.6,159.2,76.3,158.9,76.3,158.4C76.3,158.4,76.3,158.4,76.3,158.4z
		"/>
	<path style="clip-path:url(#SVGID_00000041975209093701828160000001851438864442088601_);fill:#FFFFFF;" d="M133.4,157.2
		c0.7,0,1.2,0.5,1.2,1.2s-0.5,1.2-1.2,1.2s-1.2-0.5-1.2-1.2C132.2,157.7,132.7,157.2,133.4,157.2z"/>
	<path style="clip-path:url(#SVGID_00000041975209093701828160000001851438864442088601_);fill:#1A1A1A;" d="M131.7,158.4
		c0,0.9,0.7,1.7,1.7,1.7s1.7-0.7,1.7-1.7s-0.7-1.7-1.7-1.7c0,0,0,0,0,0C132.5,156.7,131.7,157.5,131.7,158.4z M132.6,158.4
		c0-0.4,0.3-0.8,0.8-0.8c0.4,0,0.8,0.3,0.8,0.8c0,0.4-0.3,0.8-0.8,0.8c0,0,0,0,0,0C132.9,159.2,132.6,158.8,132.6,158.4z"/>
	<path style="clip-path:url(#SVGID_00000041975209093701828160000001851438864442088601_);fill:#1A1A1A;" d="M73,169.7v0.4l-0.3,5.5
		h65.1l-0.3-6L73,169.7z M73.8,170.6h62.9l0.2,4.2H73.6L73.8,170.6z"/>
	
		<rect x="95.6" y="159.3" style="clip-path:url(#SVGID_00000041975209093701828160000001851438864442088601_);fill:#CCE2E9;" width="19.3" height="2.5"/>
	<path style="clip-path:url(#SVGID_00000041975209093701828160000001851438864442088601_);fill:#1A1A1A;" d="M150.7,0h29h16v16
		c0,7,0,14,0,21c-10.2,12.4-28.6,14.2-41,4S140.5,12.4,150.7,0z"/>
	<g style="clip-path:url(#SVGID_00000041975209093701828160000001851438864442088601_);enable-background:new    ;">
		<text transform="matrix(1 0 0 1 159.77 31.75)" class="st17 st3 st18">12</text>
	</g>
</g>
</svg>
