<svg id="Слой_1" data-name="Слой 1" xmlns="http://www.w3.org/2000/svg" viewBox="0 0 195.59 280.63"><defs><style>.cls-1,.cls-9{fill:#eb5a53;}.cls-10,.cls-2{fill:#fff;}.cls-3{fill:#1a1a1a;}.cls-4{fill:#af1739;}.cls-5{fill:#eb5775;}.cls-6{fill:#badbe9;}.cls-7{fill:#8bb0cc;}.cls-8{fill:#f293a2;}.cls-9{font-size:34px;}.cls-10,.cls-9{font-family:Impact;}.cls-10{font-size:20px;}</style></defs><rect class="cls-1" x="-14.04" y="-18.73" width="228.37" height="310.43"/><path class="cls-2" d="M110.16,81.16c-2.26,0-5.48-.86-8-5A23.15,23.15,0,0,1,99.9,70.5l-.24-.89c-.64,0-1.29,0-1.93,0s-1.29,0-1.94,0l-.24.89a23.39,23.39,0,0,1-2.3,5.67c-2.47,4.13-5.69,5-8,5s-5.48-.86-8-5A23,23,0,0,1,75,70.5a48,48,0,0,1-1.47-8.06A44.05,44.05,0,0,1,58.48,45.76a8.42,8.42,0,0,1-2.11.27,8.31,8.31,0,0,1-3.22-.65c-2.1-.87-4.74-2.9-5.44-7.66a22.76,22.76,0,0,1,0-6.11,48.64,48.64,0,0,1,3.16-12.09,19.11,19.11,0,0,1,4.52-6.88,44.2,44.2,0,0,1,84.28-1c2.9,1.89,5,5.09,6.39,9.53a48.3,48.3,0,0,1,2,12.34,23.47,23.47,0,0,1-.56,6.09c-1.17,4.66-4,6.43-6.17,7.08a8.18,8.18,0,0,1-2.45.37h0a8.65,8.65,0,0,1-2.41-.35A44.29,44.29,0,0,1,121.9,62.44a48,48,0,0,1-1.48,8.06,23.39,23.39,0,0,1-2.3,5.67C115.65,80.29,112.43,81.16,110.16,81.16Z"/><path class="cls-1" d="M105.24,51.7c0-6.6,2.91-7.92,4.92-7.92s4.92,1.32,4.92,7.92-2.2,16-4.92,16-4.92-9.39-4.92-16Zm0,0"/><path class="cls-3" d="M110.16,42.4a5.58,5.58,0,0,0-4.26,2c-1.26,1.49-2,3.83-2,7.33a42.68,42.68,0,0,0,1.49,10.84,18.26,18.26,0,0,0,1.71,4.29c.69,1.15,1.62,2.23,3.09,2.23s2.4-1.08,3.09-2.23A17.43,17.43,0,0,0,115,62.54a42.68,42.68,0,0,0,1.49-10.84c0-3.5-.76-5.84-2-7.33a5.56,5.56,0,0,0-4.26-2Zm0,2.75a2.66,2.66,0,0,1,2.17,1c.69.82,1.38,2.45,1.38,5.55a40.46,40.46,0,0,1-1.39,10.1,16.49,16.49,0,0,1-1.42,3.62,2.74,2.74,0,0,1-.74.87,2.78,2.78,0,0,1-.73-.87A15.54,15.54,0,0,1,108,61.8a40.46,40.46,0,0,1-1.39-10.1c0-3.1.68-4.73,1.38-5.55a2.64,2.64,0,0,1,2.16-1Zm0,0"/><path class="cls-1" d="M80.37,51.7c0-6.6,2.91-7.92,4.92-7.92s4.92,1.32,4.92,7.92-2.2,16-4.92,16-4.92-9.39-4.92-16Zm0,0"/><path class="cls-3" d="M85.29,42.4a5.58,5.58,0,0,0-4.26,2c-1.26,1.49-2,3.83-2,7.33a42.68,42.68,0,0,0,1.49,10.84,18.26,18.26,0,0,0,1.71,4.29c.69,1.15,1.62,2.23,3.09,2.23s2.4-1.08,3.1-2.23a17.84,17.84,0,0,0,1.7-4.29A42.68,42.68,0,0,0,91.58,51.7c0-3.5-.76-5.84-2-7.33a5.56,5.56,0,0,0-4.26-2Zm0,2.75a2.66,2.66,0,0,1,2.17,1c.69.82,1.38,2.45,1.38,5.55a40.46,40.46,0,0,1-1.39,10.1A16.49,16.49,0,0,1,86,65.42a2.74,2.74,0,0,1-.74.87,2.78,2.78,0,0,1-.73-.87,15.54,15.54,0,0,1-1.42-3.62,40.46,40.46,0,0,1-1.39-10.1c0-3.1.68-4.73,1.38-5.55a2.64,2.64,0,0,1,2.16-1Zm0,0"/><path class="cls-1" d="M130,18.92c-1.91-6.33.49-8.43,2.42-9s5.09-.17,7,6.16,2.52,15.94-.08,16.73-7.42-7.56-9.34-13.88Zm0,0"/><path class="cls-3" d="M132,9.32a5.56,5.56,0,0,0-3.5,3.12c-.78,1.79-.84,4.25.17,7.6a42.72,42.72,0,0,0,4.57,10,17.8,17.8,0,0,0,2.88,3.6c1,.91,2.2,1.67,3.61,1.25s2-1.73,2.31-3a17.55,17.55,0,0,0,.39-4.59,42.56,42.56,0,0,0-1.71-10.81c-1-3.36-2.43-5.37-4.07-6.43A5.57,5.57,0,0,0,132,9.32Zm.8,2.63a2.64,2.64,0,0,1,2.36.33c.9.58,2,1.94,2.93,4.91a41,41,0,0,1,1.6,10.07,15.85,15.85,0,0,1-.32,3.87,2.85,2.85,0,0,1-.45,1.06,3,3,0,0,1-1-.63,15.75,15.75,0,0,1-2.4-3,40.47,40.47,0,0,1-4.26-9.26c-.9-3-.71-4.73-.29-5.72A2.65,2.65,0,0,1,132.76,12Zm0,0"/><path class="cls-1" d="M57.42,15.79c2.52-6.1,5.71-6.21,7.57-5.44s4,3.1,1.52,9.2-8.16,13.94-10.67,12.9-1-10.56,1.58-16.66Zm0,0"/><path class="cls-3" d="M65.52,9.08a5.58,5.58,0,0,0-4.69.19c-1.74.9-3.34,2.76-4.68,6a42.84,42.84,0,0,0-2.77,10.59,17.5,17.5,0,0,0-.06,4.61c.19,1.34.64,2.69,2,3.25S58,33.63,59,32.83a18.11,18.11,0,0,0,3.22-3.3,42.58,42.58,0,0,0,5.52-9.45c1.34-3.24,1.53-5.69.93-7.54a5.56,5.56,0,0,0-3.18-3.46Zm-1,2.54a2.66,2.66,0,0,1,1.62,1.75c.32,1,.33,2.79-.85,5.66a40.82,40.82,0,0,1-5.15,8.8,16.25,16.25,0,0,1-2.7,2.8,2.8,2.8,0,0,1-1,.52A2.89,2.89,0,0,1,56,30.06a16.08,16.08,0,0,1,.07-3.88,40.94,40.94,0,0,1,2.58-9.86c1.19-2.87,2.45-4.11,3.4-4.6a2.64,2.64,0,0,1,2.39-.1Zm0,0"/><path class="cls-3" d="M97.73-19.49A38.52,38.52,0,1,0,136.25,19,38.56,38.56,0,0,0,97.73-19.49Zm0,4.39A34.13,34.13,0,1,1,63.6,19,34.1,34.1,0,0,1,97.73-15.1Zm0,0"/><path class="cls-1" d="M133.5,18.17c0,1.5-.17,19.06-10.43,24C115.78,45.69,111.73,38.83,97,39c-13.85.19-17.46,6.36-24.32,3.14-10.25-4.83-10.43-22.54-10.43-24,0-2.07.23-18.51,10.43-24,6-3.25,9.14.75,24,.91,16.27.17,19.83-4.54,26.38-.91C133.26-.2,133.5,16.1,133.5,18.17Zm0,0"/><path class="cls-2" d="M98.12-16.62A36.7,36.7,0,0,0,63.54,7.89H132.7A36.72,36.72,0,0,0,98.12-16.62Zm0,0"/><path class="cls-2" d="M96.2-15.79A34,34,0,0,0,63.85,7.89h64.67A34,34,0,0,0,96.2-15.79Zm0,0"/><path class="cls-2" d="M63.25,31.64A42.88,42.88,0,0,0,80,49.17a37.08,37.08,0,0,0,18.16,5.21A34.55,34.55,0,0,0,108.33,53a35.51,35.51,0,0,0,16.76-11.22,38.6,38.6,0,0,0,6.22-10.11Zm0,0"/><path class="cls-2" d="M65.08,31.7m0,0a35.23,35.23,0,0,0,64.09,0Z"/><path class="cls-3" d="M97.73-17.84A36.88,36.88,0,1,0,134.6,19,36.88,36.88,0,0,0,97.73-17.84Zm0,1.09A35.78,35.78,0,1,1,62,19,35.77,35.77,0,0,1,97.73-16.75Zm0,0"/><path class="cls-3" d="M109.4,5.87a5.64,5.64,0,0,1,5.66,5.66v2.83a5.66,5.66,0,1,1-11.32,0V11.53a5.65,5.65,0,0,1,5.66-5.66Zm0,0"/><path class="cls-2" d="M106.11,9.93a1.81,1.81,0,1,1,.53,1.29,1.85,1.85,0,0,1-.53-1.29Zm0,0"/><path class="cls-3" d="M86.05,5.87a5.64,5.64,0,0,1,5.66,5.66v2.83a5.66,5.66,0,1,1-11.31,0V11.53a5.64,5.64,0,0,1,5.65-5.66Zm0,0"/><path class="cls-2" d="M82.76,9.93a1.83,1.83,0,1,1,3.65,0,1.81,1.81,0,0,1-1.82,1.82,1.83,1.83,0,0,1-1.83-1.82Zm0,0"/><path class="cls-4" d="M91.7,21.69A1.25,1.25,0,0,0,90.45,23v1.41a7.28,7.28,0,1,0,14.56,0V23a1.25,1.25,0,0,0-1.26-1.26Zm12,0"/><path class="cls-5" d="M97.73,26.66a7.27,7.27,0,0,0-5.49,2.49,7.27,7.27,0,0,0,11,0,7.23,7.23,0,0,0-5.48-2.49Zm0,0"/><path class="cls-2" d="M91.7,21.69A1.25,1.25,0,0,0,90.45,23v1.27a17.12,17.12,0,0,0,7.28,1.66A17,17,0,0,0,105,24.21V23a1.25,1.25,0,0,0-1.26-1.26Zm12,0"/><path class="cls-6" d="M103.06,21.69v1.95c0,.73-.1,1.19-.6,1.53a16.29,16.29,0,0,0,2.55-1V23a1.25,1.25,0,0,0-1.26-1.26Zm.69,0"/><path class="cls-6" d="M91.7,21.69A1.25,1.25,0,0,0,90.45,23v1.27a16.76,16.76,0,0,0,5,1.48c-.85-.23-1.1-1.08-1.1-2.06V21.69Zm2.65,0"/><path class="cls-7" d="M92.4,21.69v1.95c0,.73.09,1.19.59,1.53a16.56,16.56,0,0,1-2.54-1V23a1.25,1.25,0,0,1,1.25-1.26Zm-.7,0"/><path class="cls-3" d="M91.7,21.14A1.81,1.81,0,0,0,89.9,23v1.41a7.83,7.83,0,0,0,15.66,0V23a1.82,1.82,0,0,0-1.81-1.81Zm12,1.1a.7.7,0,0,1,.71.71v1.41a6.73,6.73,0,1,1-13.46,0V23a.69.69,0,0,1,.7-.71Zm0,0"/><path class="cls-3" d="M105,23.91a16.63,16.63,0,0,1-14.63,0l-.24.5a17.27,17.27,0,0,0,15.11,0l-.24-.5Zm0,0"/><path class="cls-8" d="M98.53,28.62a.74.74,0,0,1,.36-.6,1.47,1.47,0,0,1,.85-.25c.67,0,1.21.38,1.21.85s-.54.85-1.21.85a1.47,1.47,0,0,1-.85-.25.74.74,0,0,1-.36-.6Zm0,0"/><rect class="cls-2" x="8.02" y="38.07" width="179.54" height="234.76" rx="3.96"/><text class="cls-9" transform="translate(24.16 77.55)"><tspan xml:space="preserve">A  B C Ć Č D </tspan><tspan x="8.49" y="37" xml:space="preserve">Dz Dź Dž  E  </tspan><tspan x="1.24" y="74" xml:space="preserve">F  G H Ch I J</tspan><tspan x="5.95" y="111">K L Ł M N Ń </tspan><tspan x="5.3" y="148">O P R S Ś Š </tspan><tspan x="0.08" y="185">T U Ŭ V Z Ź Ž</tspan></text><path class="cls-3" d="M150.77,0l29,0h16l0,16c0,7,0,14,0,21A29.09,29.09,0,0,1,150.77,0Z"/><text class="cls-10" transform="translate(159.83 31.75)">10</text></svg>