<?xml version="1.0" encoding="utf-8"?>
<!-- Generator: Adobe Illustrator 26.0.3, SVG Export Plug-In . SVG Version: 6.00 Build 0)  -->
<svg version="1.1" id="Слой_1" xmlns="http://www.w3.org/2000/svg" xmlns:xlink="http://www.w3.org/1999/xlink" x="0px" y="0px"
	 viewBox="0 0 195.6 280.6" style="enable-background:new 0 0 195.6 280.6;" xml:space="preserve">
<style type="text/css">
	.st0{clip-path:url(#SVGID_00000169521443743400312160000001012382744622065073_);}
	.st1{clip-path:url(#SVGID_00000026136449070585470590000016587318972314912138_);}
	.st2{fill:#EB5A53;}
	.st3{fill:#1A1A1A;}
	.st4{fill:#C21633;}
	.st5{fill:#8E1632;}
	.st6{fill:#E62736;}
	.st7{fill:#FFFFFF;}
	.st8{fill:#595959;}
	.st9{fill:#797979;}
	.st10{fill:#3E3E3E;}
	.st11{font-family:'Impact';}
	.st12{font-size:34px;}
	.st13{font-family:'Roboto-ThinItalic';}
	.st14{font-size:14px;}
	.st15{clip-path:url(#SVGID_00000169521443743400312160000001012382744622065073_);fill:#EB5A53;}
	.st16{clip-path:url(#SVGID_00000169521443743400312160000001012382744622065073_);enable-background:new    ;}
	.st17{font-size:20px;}
</style>
<g>
	<defs>
		<rect id="SVGID_1_" x="0" y="0" width="195.6" height="280.6"/>
	</defs>
	<clipPath id="SVGID_00000055689565827001945460000001630130991688082593_">
		<use xlink:href="#SVGID_1_"  style="overflow:visible;"/>
	</clipPath>
	<g style="clip-path:url(#SVGID_00000055689565827001945460000001630130991688082593_);">
		<defs>
			<rect id="SVGID_00000169555813769899907090000011039575952713897356_" x="-5.5" y="-3.4" width="206.7" height="287.5"/>
		</defs>
		<clipPath id="SVGID_00000091698760206253695390000016293699244820912264_">
			<use xlink:href="#SVGID_00000169555813769899907090000011039575952713897356_"  style="overflow:visible;"/>
		</clipPath>
		<g style="clip-path:url(#SVGID_00000091698760206253695390000016293699244820912264_);">
			<path class="st2" d="M106.8,162.7c-7-9.1-4.4-14-1.6-16.1s8.2-3.4,15.2,5.7s13.9,24.4,10.1,27.2S113.8,171.8,106.8,162.7
				L106.8,162.7z"/>
			<path class="st3" d="M103.7,144.6c-2.3,1.7-3.7,4.4-3.8,7.2c-0.2,3.4,1.2,7.4,4.9,12.2c3.9,5,8.5,9.5,13.5,13.4
				c2.1,1.7,4.4,3,6.9,4.1c2.2,0.9,4.6,1.4,6.6-0.2s2.2-4,1.9-6.4c-0.4-2.7-1.1-5.2-2.2-7.7c-2.4-5.9-5.6-11.4-9.4-16.5
				c-3.7-4.8-7.2-7.2-10.5-7.9C108.9,142.2,105.9,142.9,103.7,144.6L103.7,144.6z M106.6,148.4c1.1-0.9,2.6-1.3,4-0.9
				c1.8,0.4,4.5,1.9,7.8,6.2c3.6,4.7,6.5,9.9,8.8,15.4c0.9,2.1,1.5,4.3,1.9,6.5c0.1,0.7,0.1,1.3-0.1,2c-0.7,0-1.3-0.2-1.9-0.4
				c-2.1-0.9-4-2.1-5.8-3.5c-4.7-3.6-8.9-7.8-12.6-12.4c-3.3-4.3-4.1-7.2-4-9.1C104.6,150.7,105.4,149.3,106.6,148.4L106.6,148.4z"
				/>
			<path class="st2" d="M63,160.4c-4.4-10.6-0.6-14.6,2.6-16s8.8-1.1,13.2,9.4s7.1,27.1,2.7,28.9S67.4,171,63,160.4z"/>
			<path class="st3" d="M64.8,142.2c-2.6,1.1-4.7,3.3-5.5,6c-1,3.2-0.7,7.5,1.6,13.1c2.5,5.9,5.7,11.4,9.6,16.4
				c1.6,2.1,3.5,4.1,5.6,5.7c1.9,1.4,4.1,2.5,6.4,1.5s3.1-3.3,3.5-5.6c0.3-2.7,0.3-5.3-0.1-8c-0.8-6.3-2.4-12.5-4.8-18.4
				c-2.3-5.6-5.1-8.9-8.1-10.4C70.3,141.2,67.4,141.1,64.8,142.2L64.8,142.2z M66.6,146.6c1.3-0.6,2.9-0.5,4.1,0.2
				c1.7,0.9,3.8,3,5.9,8c2.2,5.5,3.7,11.2,4.5,17.1c0.3,2.2,0.4,4.5,0.1,6.7c-0.1,0.7-0.3,1.3-0.6,1.9c-0.6-0.2-1.2-0.5-1.8-0.9
				c-1.8-1.4-3.3-3-4.7-4.9c-3.6-4.7-6.7-9.8-9-15.3c-2.1-5-2-8-1.5-9.8C64.1,148.3,65.2,147.2,66.6,146.6L66.6,146.6z"/>
			<path class="st2" d="M34,92c11.4,1.5,13,6.8,12.5,10.3s-3.4,8.2-14.8,6.7s-27-7.4-26.4-12.1S22.7,90.5,34,92z"/>
			<path class="st3" d="M48.9,102.6c0.4-2.8-0.5-5.7-2.4-7.8c-2.3-2.5-6.1-4.4-12.2-5.2c-6.3-0.8-12.7-0.7-19,0.1
				c-2.7,0.3-5.3,1-7.8,2C5.4,92.7,3.4,94,3,96.6s1.3,4.4,3.2,5.8c2.2,1.6,4.5,2.9,7,3.9c5.9,2.4,12,4.1,18.3,5
				c6,0.8,10.2,0,13.1-1.8C47,107.9,48.5,105.4,48.9,102.6L48.9,102.6z M44.2,102c-0.1,1.4-1,2.7-2.2,3.5c-1.6,1-4.5,1.8-9.9,1.1
				c-5.9-0.8-11.6-2.4-17.1-4.7c-2.1-0.8-4.1-1.9-5.9-3.3c-0.5-0.4-1-0.9-1.3-1.5c0.5-0.5,1-0.8,1.7-1.1c2.1-0.8,4.3-1.3,6.5-1.6
				c5.9-0.8,11.8-0.8,17.7-0.1c5.3,0.7,8,2.3,9.2,3.6C44,99.1,44.4,100.6,44.2,102L44.2,102z"/>
			<path class="st3" d="M130.6,73.1c-10.7-0.2-23.2,3.8-37.5,14.2l-1.5,1.1l-0.1,1.8c-0.8,18.3,9.8,42.1,22.2,58.8
				c6.2,8.4,12.9,15,19.8,18c3.4,1.6,7.2,1.9,10.8,0.9c3.5-1.2,6.4-4.1,8.4-8.1c0.5-1,1.1-2,1.9-2.8c0.4-0.4,0.4-0.3,0.3-0.3
				c1.4,0.8,2.5,1.8,3.4,3.1c6.3,7.8,12.4,12.2,18.3,13.2c2.9,0.6,6-0.1,8.4-2c2.3-2,3.6-4.9,3.7-7.9c0.1-1.2,0.3-2.4,0.7-3.5
				c0.2-0.5,0.1-0.3,0.2-0.3c2.1-0.1,4.1,0.1,6.1,0.5c11.1,1.8,19.8-3.3,23.6-10.9s3-17.5-2.4-25.6l-2.9-4.3l-3.3,4
				c-3,3.7-5.8,5.8-8.2,6.8c-2.2,0.9-4.8,0.9-7,0c-5-1.8-11.1-8-17.3-17.6c-7.8-12.2-16.8-26.8-30.4-34.4
				C142.6,74.7,136.7,73.1,130.6,73.1L130.6,73.1z M130.2,80.4c4.9,0.2,9.7,1.5,14,4c11.2,6.2,19.9,19.6,27.7,31.8
				c6.6,10.2,13.2,17.8,21.1,20.7c4,1.5,8.4,1.4,12.4-0.1c2.8-1.1,5.3-2.8,7.5-4.9c1.7,4.4,1.5,9.3-0.4,13.5
				c-2.4,4.9-7.1,8.2-15.5,6.8c-3.6-0.6-6.7-1.5-10.3-0.1c-1.8,0.8-3.3,2.3-4.2,4.1c-0.9,2-1.3,4.1-1.4,6.2c-0.1,1.7-0.6,2.4-1,2.7
				s-0.9,0.5-2.2,0.3c-2.7-0.5-8-3.6-13.6-10.5c-2.6-3.2-5.4-5.9-9.4-5.9c-2,0.1-4,0.9-5.4,2.3c-1.5,1.4-2.7,3.2-3.6,5.1
				c-1.4,2.7-2.7,3.8-4,4.2s-3,0.4-5.3-0.6c-4.6-2-11-7.8-16.7-15.6c-11.1-14.9-20.6-37.2-20.7-52.1
				C111.8,83.5,121.8,80.2,130.2,80.4L130.2,80.4z"/>
			<path class="st4" d="M129.6,76.7c-9.6,0-20.8,3.8-34.4,13.6c-1.4,33.2,40.7,94.6,54,67.8c3.6-7.2,7.4-6.5,12.1-0.7
				c11.9,14.7,22.8,15.1,23.6,5.4c0.7-8.6,4.2-7.9,11.5-6.8c19.5,3.2,26.8-16.6,17.4-30.7c-13.1,16.3-26,8.8-38.7-11.1
				C164.3,97.2,151.4,76.8,129.6,76.7L129.6,76.7z"/>
			<path class="st5" d="M142.6,96.6c-16.2-25.8-47.3-6.3-47.3-6.3c-1.4,33.2,40.7,94.6,54,67.8c3.6-7.2,7.4-6.5,12.1-0.7
				c11.9,14.7,22.8,15.1,23.6,5.4c0.3-3.2,0.9-5.1,2-6.2C163.3,150.3,152.9,115.1,142.6,96.6L142.6,96.6z"/>
			<path class="st6" d="M169.4,123.4c24.8,36.3,47.6,20.6,44.4,2c-13.1,16.3-26,8.8-38.7-11.1c-10.9-17-23.7-37.4-45.5-37.5
				c-2.5,0-5,0.2-7.5,0.7C145.7,73.4,156.1,103.9,169.4,123.4L169.4,123.4z"/>
			<path class="st3" d="M130.4,75.8c-9.9-0.2-21.7,3.6-35.7,13.7l-0.4,0.3v0.5c-0.7,17,9.6,40.7,21.7,57
				c6.1,8.1,12.6,14.4,18.7,17.1c2.7,1.4,5.8,1.6,8.7,0.8c2.7-0.9,5-3.1,6.8-6.6c0.6-1.4,1.5-2.6,2.5-3.7c0.6-0.6,1.4-1,2.2-1
				c1.5,0,3.4,1.3,5.7,4.1c6,7.5,11.8,11.4,16.5,12.2c2.1,0.5,4.3,0,6.1-1.4c1.7-1.6,2.6-3.7,2.7-6c0.1-1.5,0.4-3.1,1-4.5
				c0.3-0.8,0.9-1.4,1.7-1.7c1.4-0.6,4.1-0.2,7.7,0.4c10.1,1.7,17.3-2.7,20.6-9.4s2.7-15.5-2.2-22.8l-0.7-1.1l-0.8,1
				c-3.2,4-6.4,6.5-9.4,7.7c-2.9,1.2-6.1,1.2-9,0.1c-6.1-2.2-12.4-8.9-18.7-18.8c-7.8-12.2-16.7-26.3-29.4-33.4
				C141.7,77.5,136.1,75.9,130.4,75.8L130.4,75.8z M130.3,77.7c5.4,0.1,10.6,1.6,15.2,4.3c12.1,6.8,20.9,20.6,28.8,32.8
				c6.4,10,12.9,17,19.7,19.5c3.4,1.3,7.1,1.2,10.4-0.1c3.2-1.2,6.3-3.6,9.4-7.2c3.9,6.5,4.1,14.1,1.4,19.8c-2.9,6-9.1,9.9-18.5,8.4
				c-3.6-0.6-6.4-1.2-8.7-0.2c-1.2,0.5-2.2,1.5-2.7,2.7c-0.7,1.6-1.1,3.4-1.1,5.2c0,1.8-0.7,3.4-2,4.7c-1.3,1-2.9,1.3-4.5,0.9
				c-3.9-0.6-9.5-4.3-15.4-11.5c-2.4-3-4.7-4.9-7.2-4.8c-1.3,0-2.6,0.6-3.5,1.5c-1.2,1.2-2.2,2.6-2.9,4.2c-1.6,3.2-3.5,4.9-5.6,5.7
				s-4.6,0.4-7.4-0.7c-5.5-2.4-11.9-8.5-17.9-16.5c-11.8-15.8-21.8-39.1-21.3-55.3C109.8,81.1,121,77.4,130.3,77.7L130.3,77.7z"/>
			<path class="st3" d="M126.4,76.2c-1.5,0-3,0.1-4.4,0.4l0.3,1.9c5.1-1,10.4,0,14.8,2.6c4.3,2.5,8.2,6.4,11.7,11.2
				c7.1,9.4,13,21.9,19.7,31.8c12.5,18.3,24.7,23.8,33.7,22s14.1-11,12.5-20.7l-1.9,0.3c1.5,8.9-3.1,16.9-11,18.5
				s-19.4-3.2-31.7-21.2c-6.6-9.6-12.5-22.2-19.8-31.8c-3.6-4.8-7.6-9-12.3-11.7C134.5,77.3,130.5,76.2,126.4,76.2L126.4,76.2z"/>
			<path class="st2" d="M149.4,105.4c-9.1-7-7.8-12.4-5.7-15.2s7-5.4,16.1,1.6s19.7,20,16.8,23.7S158.5,112.4,149.4,105.4
				L149.4,105.4z"/>
			<path class="st3" d="M141.8,88.8c-1.8,2.3-2.4,5.2-1.8,8c0.7,3.3,3.1,6.8,7.9,10.5c5.1,3.8,10.6,7,16.5,9.4
				c2.5,1.1,5.1,1.8,7.7,2.2c2.3,0.3,4.8,0.1,6.4-1.9s1.1-4.4,0.2-6.6c-1.1-2.5-2.4-4.8-4.1-6.9c-3.9-5.1-8.4-9.6-13.4-13.5
				c-4.8-3.7-8.9-5.1-12.2-4.9C146.1,85.2,143.5,86.6,141.8,88.8L141.8,88.8z M145.5,91.7c0.8-1.2,2.2-1.9,3.7-1.9
				c1.9-0.1,4.8,0.7,9.1,4c4.7,3.7,8.8,7.9,12.4,12.6c1.4,1.8,2.6,3.7,3.5,5.8c0.3,0.6,0.4,1.3,0.4,1.9c-0.7,0.2-1.3,0.2-2,0.1
				c-2.2-0.4-4.4-1-6.5-1.9c-5.5-2.3-10.6-5.2-15.4-8.8c-4.3-3.3-5.8-6-6.2-7.8C144.3,94.4,144.6,92.9,145.5,91.7L145.5,91.7z"/>
			<path class="st3" d="M89.3,28c-37.6,0-68.1,30.5-68.1,68.1s30.5,68.1,68.1,68.1c37.6,0,68.1-30.5,68.1-68.1
				C157.4,58.5,126.9,28,89.3,28z M89.3,35.8c33.3,0,60.4,27,60.4,60.4s-27,60.4-60.4,60.4c-33.3,0-60.3-27-60.4-60.3
				c0-33.3,26.9-60.3,60.2-60.4C89.2,35.8,89.2,35.8,89.3,35.8L89.3,35.8z"/>
			<path class="st2" d="M152.6,94.6c0,2.7-0.3,33.7-18.5,42.5c-12.9,6.2-20.1-5.9-46.1-5.6c-24.5,0.3-30.9,11.2-43,5.6
				c-18.1-8.5-18.5-39.9-18.5-42.5c0-3.7,0.4-32.7,18.5-42.5c10.7-5.8,16.2,1.3,42.5,1.6c28.8,0.3,35.1-8,46.7-1.6
				C152.1,62.1,152.5,91,152.6,94.6z"/>
			<path class="st7" d="M90,33.1c-27.5,0-52,17.4-61.2,43.4h122.3C142,50.5,117.5,33.1,90,33.1z"/>
			<path class="st7" d="M86.6,34.6c-26.2,0-49.3,16.9-57.2,41.9h114.4C135.8,51.5,112.7,34.6,86.6,34.6z"/>
			<path class="st7" d="M28.3,118.4c6.7,13,17,23.7,29.6,31c9.7,5.8,20.8,9,32.1,9.2c6.1,0.1,12.2-0.8,18-2.5
				c11.6-3.6,21.9-10.5,29.6-19.9c4.6-5.3,8.3-11.4,11-17.9L28.3,118.4z"/>
			<path class="st7" d="M31.5,118.6c14.3,31.3,51.3,45.1,82.6,30.8c13.6-6.2,24.6-17.2,30.8-30.8H31.5z"/>
			<path class="st3" d="M89.3,30.9c-36,0-65.2,29.2-65.2,65.2s29.2,65.2,65.2,65.2s65.2-29.2,65.2-65.2l0,0
				C154.5,60.1,125.3,30.9,89.3,30.9z M89.3,32.9c34.9,0,63.3,28.3,63.3,63.3s-28.3,63.3-63.3,63.3S26,131.1,26,96.2c0,0,0,0,0,0
				C26,61.2,54.3,32.9,89.3,32.9C89.3,32.9,89.3,32.9,89.3,32.9z"/>
			<path class="st3" d="M90.8,96.1c0,4.1-3.3,7.4-7.4,7.4s-7.4-3.3-7.4-7.4h-1.9c0,5.1,4.2,9.3,9.3,9.3c5.1,0,9.3-4.2,9.3-9.3H90.8z
				"/>
			<path class="st3" d="M103.7,72.8c5.4,0,9.8,4.4,9.8,9.8c0,0,0,0,0,0v4.9c-0.2,5.4-4.7,9.7-10.1,9.5c-5.2-0.2-9.3-4.3-9.5-9.5
				v-4.9C93.8,77.2,98.2,72.8,103.7,72.8C103.6,72.8,103.7,72.8,103.7,72.8z"/>
			<path class="st7" d="M98,79.8c0-1.8,1.4-3.2,3.2-3.2c1.8,0,3.2,1.4,3.2,3.2c0,1.8-1.4,3.2-3.2,3.2c0,0-0.1,0-0.1,0
				C99.4,83,98,81.6,98,79.8z"/>
			<path class="st3" d="M63.1,97.4c-5.4,0-9.8-4.4-9.8-9.8c0,0,0,0,0-0.1v-8.1H73v8.1C73,93,68.6,97.4,63.1,97.4
				C63.2,97.4,63.2,97.4,63.1,97.4L63.1,97.4z"/>
			<path class="st7" d="M55.9,85c0-1.8,1.4-3.2,3.2-3.2s3.2,1.4,3.2,3.2c0,1.8-1.4,3.2-3.2,3.2c-0.8,0-1.7-0.3-2.3-0.9
				C56.2,86.6,55.9,85.8,55.9,85z"/>
			<path class="st3" d="M121.7,11.8c-15.4,3.7-27.5,2.8-42.6,3.9c-10.5,0.8-18,4-22.9,8.9c-4.4,4.6-6.9,10.8-6.7,17.2
				c0,10.7,6.6,19,15.7,23.4s20.7,5.7,32.6,3.8c23.7-3.6,48.7-20.1,52.8-50.8l0.8-6.1l-5.9,2.1c-6.5,2.1-13.1,3.6-19.9,4.5l0.7-1.8
				l2.5-6.7L121.7,11.8z M114.4,26.5h5.4c8,0,16.3-1.8,21.9-3.3c-5.8,23-25.7,35.2-45.2,38.2c-10.5,1.6-20.8,0.4-28.1-3.1
				s-11.4-8.8-11.4-16.5c-0.2-4.4,1.5-8.6,4.5-11.8c3.3-3.3,8.8-6,18-6.6c12.5-0.9,23.6-0.4,37-2.7L114.4,26.5z"/>
			<path class="st8" d="M122.6,15.5c-16,3.9-28.4,2.9-43.3,4C59.6,21,53.3,31.3,53.3,41.8c0,37,85.8,33.5,93.4-24
				c0,0-14.4,5.1-26.8,5L122.6,15.5L122.6,15.5z"/>
			<path class="st9" d="M122.6,15.5c-16,3.9-28.4,2.9-43.3,4c-11.2,0.8-18.1,4.5-22,9.5c10.4,18.1,69.3,14.8,89.3-11.3
				c0,0-14.4,5.1-26.8,5L122.6,15.5L122.6,15.5z"/>
			<path class="st10" d="M146.7,17.7c-10.1,37.5-79.1,52.1-92.9,19c-0.4,1.7-0.6,3.4-0.5,5.1C53.3,78.8,139.1,75.3,146.7,17.7
				L146.7,17.7z"/>
			<path class="st3" d="M122.4,14.5c-15.9,3.8-28.2,2.9-43.1,4c-10,0.7-16.8,3.8-21,8c-3.9,4.1-6.1,9.5-5.9,15.2
				c0,9.6,5.7,16.7,14.1,20.8s19.5,5.3,30.9,3.6c22.7-3.5,46.5-19.1,50.3-48.3l0.2-1.5l-1.5,0.5c0,0-13.4,4.7-25.1,5l2.2-5.9
				l0.6-1.7L122.4,14.5z M118.5,23.7h1.4c10.7,0.1,22.2-3.5,25.6-4.6c-4.3,27.4-26.8,41.8-48.5,45.2c-11,1.7-21.8,0.5-29.8-3.4
				s-13-10.2-13-19.1c-0.2-5.1,1.8-10.1,5.3-13.8c3.8-3.9,10.1-6.8,19.8-7.5c14.2-1,26.4-0.2,41.7-3.7L118.5,23.7z"/>
			<text transform="matrix(1 0 0 1 58.66 236.56)" class="st2 st11 st12">Adam</text>
			<text transform="matrix(1 0 0 1 20.66 268.56)" class="st2 st11 st12">Mickiewicz</text>
			<text transform="matrix(1 0 0 1 74.8 205.54)" class="st2 st13 st14">bohater</text>
		</g>
	</g>
	<path style="clip-path:url(#SVGID_00000055689565827001945460000001630130991688082593_);fill:#EB5A53;" d="M45,0H16H0v16
		c0,7,0,14,0,21c10.3,12.4,28.6,14.1,41,3.8c6.7-5.6,10.5-13.8,10.5-22.5C51.5,11.6,49.2,5.2,45,0z"/>
	<g style="clip-path:url(#SVGID_00000055689565827001945460000001630130991688082593_);enable-background:new    ;">
		<text transform="matrix(1 0 0 1 15.6 31.75)" class="st7 st11 st17">15</text>
	</g>
</g>
</svg>
