<svg id="Слой_1" data-name="Слой 1" xmlns="http://www.w3.org/2000/svg" viewBox="0 0 195.59 280.63"><defs><style>.cls-1,.cls-9{fill:#eb5a53;}.cls-10,.cls-2{fill:#fff;}.cls-3{fill:#1a1a1a;}.cls-4{fill:#af1739;}.cls-5{fill:#eb5775;}.cls-6{fill:#badbe9;}.cls-7{fill:#8bb0cc;}.cls-8{fill:#f293a2;}.cls-9{font-size:34px;}.cls-10,.cls-9{font-family:Impact;}.cls-10{font-size:20px;}</style></defs><rect class="cls-1" x="-14.45" y="-18.73" width="228.37" height="310.43"/><path class="cls-2" d="M110.12,80.2c-2.26,0-5.48-.87-8-5a22.84,22.84,0,0,1-2.29-5.65c-.08-.28-.16-.58-.24-.87-.64,0-1.28,0-1.91,0s-1.28,0-1.92,0c-.07.29-.15.59-.23.87a23.22,23.22,0,0,1-2.3,5.65c-2.47,4.12-5.68,5-7.94,5s-5.49-.87-8-5a23.22,23.22,0,0,1-2.3-5.65,47.62,47.62,0,0,1-1.47-8,44,44,0,0,1-15-16.61,8.2,8.2,0,0,1-2.09.26,8.3,8.3,0,0,1-3.22-.64c-2.09-.87-4.73-2.9-5.43-7.65a22.69,22.69,0,0,1,0-6.1,48.44,48.44,0,0,1,3.15-12,19.1,19.1,0,0,1,4.51-6.86,44.06,44.06,0,0,1,84-1c2.89,1.87,5,5.07,6.38,9.5a48.43,48.43,0,0,1,1.95,12.3,23.31,23.31,0,0,1-.56,6.07c-1.17,4.66-4,6.42-6.16,7.08a8.5,8.5,0,0,1-2.45.36,8.16,8.16,0,0,1-2.39-.35,44.14,44.14,0,0,1-14.52,15.67,47.62,47.62,0,0,1-1.47,8,22.84,22.84,0,0,1-2.29,5.65C115.6,79.33,112.38,80.2,110.12,80.2Z"/><path class="cls-1" d="M105.22,58.22c0-6.58,2.9-7.89,4.9-7.89s4.9,1.31,4.9,7.89-2.19,15.94-4.9,15.94-4.9-9.35-4.9-15.94Zm0,0"/><path class="cls-3" d="M110.12,49a5.58,5.58,0,0,0-4.25,2c-1.25,1.49-2,3.81-2,7.3A42.38,42.38,0,0,0,105.34,69,17.67,17.67,0,0,0,107,73.3c.69,1.15,1.62,2.23,3.08,2.23s2.39-1.08,3.08-2.23A17.67,17.67,0,0,0,114.9,69a42.38,42.38,0,0,0,1.49-10.81c0-3.49-.77-5.81-2-7.3a5.58,5.58,0,0,0-4.25-2Zm0,2.74a2.63,2.63,0,0,1,2.16,1c.69.82,1.37,2.44,1.37,5.53a40.21,40.21,0,0,1-1.38,10.07,15.16,15.16,0,0,1-1.42,3.6,2.89,2.89,0,0,1-.73.88,2.89,2.89,0,0,1-.73-.88,15.16,15.16,0,0,1-1.42-3.6,40.68,40.68,0,0,1-1.38-10.07c0-3.09.68-4.71,1.37-5.53a2.63,2.63,0,0,1,2.16-1Zm0,0"/><path class="cls-1" d="M80.43,58.22c0-6.58,2.9-7.89,4.91-7.89s4.9,1.31,4.9,7.89S88,74.16,85.34,74.16s-4.91-9.35-4.91-15.94Zm0,0"/><path class="cls-3" d="M85.34,49a5.56,5.56,0,0,0-4.25,2c-1.26,1.49-2,3.81-2,7.3A42.38,42.38,0,0,0,80.55,69a18.09,18.09,0,0,0,1.7,4.27c.69,1.15,1.62,2.23,3.09,2.23s2.39-1.08,3.08-2.23A18.09,18.09,0,0,0,90.12,69a42.38,42.38,0,0,0,1.49-10.81c0-3.49-.77-5.81-2-7.3a5.56,5.56,0,0,0-4.24-2Zm0,2.74a2.61,2.61,0,0,1,2.15,1c.7.82,1.38,2.44,1.38,5.53a40.22,40.22,0,0,1-1.39,10.07,15.65,15.65,0,0,1-1.41,3.6,3.06,3.06,0,0,1-.73.88,2.85,2.85,0,0,1-.74-.88,15.65,15.65,0,0,1-1.41-3.6A40.22,40.22,0,0,1,81.8,58.22c0-3.09.68-4.71,1.38-5.53a2.61,2.61,0,0,1,2.16-1Zm0,0"/><path class="cls-1" d="M129.87,25.55c-1.91-6.3.48-8.4,2.4-9s5.07-.16,7,6.14,2.52,15.89-.08,16.67-7.4-7.53-9.3-13.83Zm0,0"/><path class="cls-3" d="M131.85,16a5.57,5.57,0,0,0-3.5,3.11c-.77,1.79-.83,4.23.18,7.57a42.85,42.85,0,0,0,4.55,9.92A18,18,0,0,0,136,40.18c1,.9,2.19,1.66,3.59,1.24s2-1.72,2.31-3a17.43,17.43,0,0,0,.39-4.58A42.4,42.4,0,0,0,140.53,23c-1-3.34-2.41-5.34-4.05-6.4a5.53,5.53,0,0,0-4.63-.65Zm.79,2.62a2.67,2.67,0,0,1,2.36.33c.89.58,2,1.94,2.91,4.89a40.77,40.77,0,0,1,1.6,10,15.76,15.76,0,0,1-.32,3.86,2.86,2.86,0,0,1-.45,1.05,2.86,2.86,0,0,1-1-.63,15.46,15.46,0,0,1-2.4-3,40.69,40.69,0,0,1-4.24-9.24c-.9-3-.71-4.71-.29-5.69a2.63,2.63,0,0,1,1.78-1.58Zm0,0"/><path class="cls-1" d="M57.55,22.44c2.52-6.08,5.7-6.19,7.55-5.42s4,3.09,1.51,9.17S58.48,40.07,56,39,55,28.52,57.55,22.44Zm0,0"/><path class="cls-3" d="M65.63,15.75a5.56,5.56,0,0,0-4.68.19c-1.73.89-3.32,2.75-4.66,6a42.41,42.41,0,0,0-2.76,10.55,17.43,17.43,0,0,0-.06,4.6c.19,1.33.64,2.68,2,3.24s2.62-.08,3.7-.88a18,18,0,0,0,3.21-3.29,42.73,42.73,0,0,0,5.51-9.42c1.33-3.22,1.51-5.66.92-7.52a5.56,5.56,0,0,0-3.17-3.44Zm-1,2.53A2.63,2.63,0,0,1,66.19,20c.33,1,.34,2.78-.84,5.63a40.84,40.84,0,0,1-5.13,8.78,16,16,0,0,1-2.69,2.78,3,3,0,0,1-1,.53,2.89,2.89,0,0,1-.35-1.09,16.53,16.53,0,0,1,.07-3.87A40.83,40.83,0,0,1,58.82,23c1.18-2.86,2.43-4.09,3.38-4.58a2.62,2.62,0,0,1,2.38-.1Zm0,0"/><path class="cls-3" d="M97.73-12.73a38.4,38.4,0,1,0,38.39,38.4,38.44,38.44,0,0,0-38.39-38.4Zm0,4.38a34,34,0,1,1-34,34,34,34,0,0,1,34-34Zm0,0"/><path class="cls-1" d="M61.52,25.67a36.21,36.21,0,1,1,10.61,25.6,36.21,36.21,0,0,1-10.61-25.6Zm0,0"/><path class="cls-1" d="M66.12,23.78a33.49,33.49,0,1,1,9.81,23.68,33.49,33.49,0,0,1-9.81-23.68Zm0,0"/><path class="cls-2" d="M61.52,25.67a36.21,36.21,0,1,0,72.41,0Zm72.41,0"/><path class="cls-2" d="M66.22,25.67a33.46,33.46,0,0,0,66.82,0Zm66.82,0"/><path class="cls-3" d="M97.73-11.08a36.75,36.75,0,1,0,36.75,36.75A36.76,36.76,0,0,0,97.73-11.08Zm0,1.09A35.66,35.66,0,1,1,62.07,25.67,35.64,35.64,0,0,1,97.73-10Zm0,0"/><path class="cls-3" d="M109.36,12.55A5.62,5.62,0,0,1,115,18.19V21a5.64,5.64,0,0,1-11.28,0V18.19a5.63,5.63,0,0,1,5.64-5.64Zm0,0"/><path class="cls-2" d="M106.08,16.59a1.82,1.82,0,1,1,3.11,1.29,1.82,1.82,0,0,1-3.11-1.29Zm0,0"/><path class="cls-3" d="M86.09,12.55a5.62,5.62,0,0,1,5.64,5.64V21a5.64,5.64,0,1,1-11.27,0V18.19a5.62,5.62,0,0,1,5.63-5.64Zm0,0"/><path class="cls-2" d="M82.81,16.59a1.83,1.83,0,1,1,.54,1.29,1.8,1.8,0,0,1-.54-1.29Zm0,0"/><path class="cls-4" d="M91.72,28.32a1.25,1.25,0,0,0-1.25,1.25V31A7.26,7.26,0,1,0,105,31V29.57a1.24,1.24,0,0,0-1.25-1.25Zm12,0"/><path class="cls-5" d="M97.73,33.27a7.25,7.25,0,0,0-5.47,2.48,7.24,7.24,0,0,0,10.93,0,7.23,7.23,0,0,0-5.46-2.48Zm0,0"/><path class="cls-2" d="M91.72,28.32a1.25,1.25,0,0,0-1.25,1.25v1.27a17.05,17.05,0,0,0,7.26,1.65A16.84,16.84,0,0,0,105,30.83V29.57a1.24,1.24,0,0,0-1.25-1.25Zm12,0"/><path class="cls-6" d="M103,28.32v1.94c0,.73-.1,1.19-.59,1.52a17.08,17.08,0,0,0,2.53-1V29.57a1.24,1.24,0,0,0-1.25-1.25Zm.69,0"/><path class="cls-6" d="M91.72,28.32a1.25,1.25,0,0,0-1.25,1.25v1.27a17.07,17.07,0,0,0,5,1.47c-.85-.22-1.1-1.07-1.1-2.05V28.32Zm2.64,0"/><path class="cls-7" d="M92.42,28.32v1.94c0,.73.09,1.19.59,1.52a17.63,17.63,0,0,1-2.54-1V29.57a1.25,1.25,0,0,1,1.25-1.25Zm-.7,0"/><path class="cls-3" d="M91.72,27.77a1.81,1.81,0,0,0-1.8,1.8V31a7.81,7.81,0,1,0,15.61,0V29.57a1.81,1.81,0,0,0-1.8-1.8Zm12,1.09a.7.7,0,0,1,.71.71V31A6.71,6.71,0,1,1,91,31V29.57a.69.69,0,0,1,.7-.71Zm0,0"/><path class="cls-3" d="M105,30.53a16.59,16.59,0,0,1-14.58,0L90.2,31a17.16,17.16,0,0,0,15.06,0l-.24-.49Zm0,0"/><path class="cls-8" d="M98.53,35.22a.77.77,0,0,1,.35-.6,1.53,1.53,0,0,1,.86-.25c.66,0,1.2.38,1.2.85s-.54.85-1.2.85a1.53,1.53,0,0,1-.86-.25.75.75,0,0,1-.35-.6Zm0,0"/><path class="cls-3" d="M131.82,42.73l-.54-.07,1-7.29.54.07Zm1-7.29"/><rect class="cls-2" x="8.02" y="38.07" width="179.54" height="234.76" rx="3.96"/><text class="cls-9" transform="translate(40.33 72.89)">A Ą B С Ć <tspan x="-12.08" y="32">CH CZ D DZ </tspan><tspan x="-7.69" y="64">DŻ DŹ Е Ę F </tspan><tspan x="-11.95" y="96">G H I J K L Ł </tspan><tspan x="-15.22" y="128">M N Ń O Ó P </tspan><tspan x="-17.29" y="160">R RZ S Ś T U </tspan><tspan x="-12.19" y="192" xml:space="preserve">W Y Z Ź ŻSZ   </tspan></text><path class="cls-3" d="M45.09,0l-29,0H.14l0,16c0,7,0,14,0,21A29.1,29.1,0,0,0,51.6,18.3,28.91,28.91,0,0,0,45.09,0Z"/><text class="cls-10" transform="translate(15.71 31.75)">10</text></svg>