<?xml version="1.0" encoding="utf-8"?>
<!-- Generator: Adobe Illustrator 26.0.3, SVG Export Plug-In . SVG Version: 6.00 Build 0)  -->
<svg version="1.1" id="Слой_1" xmlns="http://www.w3.org/2000/svg" xmlns:xlink="http://www.w3.org/1999/xlink" x="0px" y="0px"
	 viewBox="0 0 195.6 280.6" style="enable-background:new 0 0 195.6 280.6;" xml:space="preserve">
<style type="text/css">
	.st0{clip-path:url(#SVGID_00000181767606661157948650000013828365806899183523_);fill:#C9345F;}
	.st1{clip-path:url(#SVGID_00000181767606661157948650000013828365806899183523_);enable-background:new    ;}
	.st2{fill:#53B582;}
	.st3{font-family:'Impact';}
	.st4{font-size:53.3px;}
	.st5{clip-path:url(#SVGID_00000181767606661157948650000013828365806899183523_);fill:#D4C1BB;}
	.st6{clip-path:url(#SVGID_00000181767606661157948650000013828365806899183523_);fill:#1A1A1A;}
	.st7{clip-path:url(#SVGID_00000181767606661157948650000013828365806899183523_);fill:#C0C0C0;}
	.st8{clip-path:url(#SVGID_00000181767606661157948650000013828365806899183523_);fill:#F5BA4E;}
	.st9{clip-path:url(#SVGID_00000181767606661157948650000013828365806899183523_);fill:#FFDB82;}
	.st10{clip-path:url(#SVGID_00000181767606661157948650000013828365806899183523_);fill:#DC9133;}
	.st11{clip-path:url(#SVGID_00000181767606661157948650000013828365806899183523_);fill:#EC6665;}
	.st12{clip-path:url(#SVGID_00000181767606661157948650000013828365806899183523_);fill:#D2C0C1;}
	.st13{clip-path:url(#SVGID_00000181767606661157948650000013828365806899183523_);fill:#9D7F81;}
	.st14{clip-path:url(#SVGID_00000181767606661157948650000013828365806899183523_);fill:#FFFFFF;}
	.st15{clip-path:url(#SVGID_00000181767606661157948650000013828365806899183523_);fill:#F3AF28;}
	.st16{clip-path:url(#SVGID_00000181767606661157948650000013828365806899183523_);fill:#FFD740;}
	.st17{clip-path:url(#SVGID_00000181767606661157948650000013828365806899183523_);fill:#DD7F1B;}
	.st18{clip-path:url(#SVGID_00000181767606661157948650000013828365806899183523_);fill:#902F54;}
	.st19{clip-path:url(#SVGID_00000181767606661157948650000013828365806899183523_);fill:#53B582;}
	.st20{clip-path:url(#SVGID_00000181767606661157948650000013828365806899183523_);fill:none;}
	.st21{clip-path:url(#SVGID_00000181767606661157948650000013828365806899183523_);fill:#88C58D;}
	.st22{clip-path:url(#SVGID_00000181767606661157948650000013828365806899183523_);fill:#2C8468;}
	.st23{clip-path:url(#SVGID_00000181767606661157948650000013828365806899183523_);fill:#E5DAD6;}
	.st24{clip-path:url(#SVGID_00000181767606661157948650000013828365806899183523_);fill:#E73A2E;}
	.st25{clip-path:url(#SVGID_00000181767606661157948650000013828365806899183523_);fill:#B4958F;}
	.st26{clip-path:url(#SVGID_00000181767606661157948650000013828365806899183523_);fill:#EC604B;}
	.st27{clip-path:url(#SVGID_00000181767606661157948650000013828365806899183523_);fill:#F39461;}
	.st28{clip-path:url(#SVGID_00000181767606661157948650000013828365806899183523_);fill:#AF1739;}
	.st29{clip-path:url(#SVGID_00000181767606661157948650000013828365806899183523_);fill:#EB5775;}
	.st30{clip-path:url(#SVGID_00000181767606661157948650000013828365806899183523_);fill:#BADBE9;}
	.st31{clip-path:url(#SVGID_00000181767606661157948650000013828365806899183523_);fill:#8BB0CC;}
	.st32{clip-path:url(#SVGID_00000181767606661157948650000013828365806899183523_);fill:#F293A2;}
	.st33{fill:#FFFFFF;}
	.st34{font-size:20px;}
</style>
<g>
	<defs>
		<rect id="SVGID_1_" x="0" y="0" width="195.6" height="280.6"/>
	</defs>
	<clipPath id="SVGID_00000062891914184049725850000007390574081146369972_">
		<use xlink:href="#SVGID_1_"  style="overflow:visible;"/>
	</clipPath>
	
		<rect x="-5.5" y="-6.2" style="clip-path:url(#SVGID_00000062891914184049725850000007390574081146369972_);fill:#C9345F;" width="208.3" height="299.5"/>
	<g style="clip-path:url(#SVGID_00000062891914184049725850000007390574081146369972_);enable-background:new    ;">
		<text transform="matrix(1 0 0 1 16.55 256.45)" class="st2 st3 st4">barszcz</text>
	</g>
	<path style="clip-path:url(#SVGID_00000062891914184049725850000007390574081146369972_);fill:#D4C1BB;" d="M100.4,166.8
		c0-11.4,5-13.7,8.5-13.7s8.5,2.3,8.5,13.7s-3.8,27.7-8.5,27.7S100.4,178.3,100.4,166.8z"/>
	<path style="clip-path:url(#SVGID_00000062891914184049725850000007390574081146369972_);fill:#1A1A1A;" d="M109,150.8
		c-2.8,0-5.5,1.2-7.4,3.4c-2.2,2.6-3.5,6.6-3.5,12.7c0.1,6.3,0.9,12.6,2.6,18.8c0.7,2.6,1.7,5.1,3,7.4c1.2,2,2.8,3.9,5.3,3.9
		s4.2-1.9,5.3-3.9c1.3-2.3,2.3-4.8,3-7.4c1.7-6.1,2.5-12.4,2.6-18.8c0-6.1-1.3-10.1-3.5-12.7C114.6,152,111.9,150.8,109,150.8
		L109,150.8z M109,155.5c1.5-0.1,2.8,0.6,3.7,1.7c1.2,1.4,2.4,4.2,2.4,9.6c-0.1,5.9-0.9,11.8-2.4,17.5c-0.6,2.2-1.4,4.3-2.5,6.2
		c-0.3,0.6-0.8,1.1-1.3,1.5c-0.5-0.4-1-0.9-1.3-1.5c-1.1-2-1.9-4.1-2.5-6.2c-1.5-5.7-2.3-11.6-2.4-17.5c0-5.4,1.2-8.2,2.4-9.6
		C106.2,156.1,107.5,155.4,109,155.5z"/>
	<path style="clip-path:url(#SVGID_00000062891914184049725850000007390574081146369972_);fill:#D4C1BB;" d="M57.4,166.8
		c0-11.4,5-13.7,8.5-13.7s8.5,2.3,8.5,13.7s-3.8,27.7-8.5,27.7S57.4,178.3,57.4,166.8z"/>
	<path style="clip-path:url(#SVGID_00000062891914184049725850000007390574081146369972_);fill:#1A1A1A;" d="M65.9,150.8
		c-2.8,0-5.5,1.2-7.4,3.4c-2.2,2.6-3.5,6.6-3.5,12.7c0.1,6.3,0.9,12.6,2.6,18.8c0.7,2.6,1.7,5.1,3,7.4c1.2,2,2.8,3.9,5.3,3.9
		c2.5,0,4.1-1.9,5.3-3.9c1.3-2.3,2.3-4.8,2.9-7.4c1.7-6.1,2.5-12.4,2.6-18.8c0-6.1-1.3-10.1-3.5-12.7
		C71.5,152,68.8,150.8,65.9,150.8z M65.9,155.5c1.5-0.1,2.8,0.6,3.7,1.7c1.2,1.4,2.4,4.2,2.4,9.6c-0.1,5.9-0.9,11.8-2.4,17.5
		c-0.6,2.2-1.4,4.3-2.5,6.2c-0.3,0.6-0.8,1.1-1.3,1.5c-0.5-0.4-1-0.9-1.3-1.5c-1.1-2-1.9-4.1-2.5-6.2c-1.5-5.7-2.3-11.6-2.4-17.5
		c0-5.4,1.2-8.2,2.4-9.6C63.1,156.1,64.5,155.4,65.9,155.5z"/>
	<path style="clip-path:url(#SVGID_00000062891914184049725850000007390574081146369972_);fill:#C0C0C0;" d="M144.7,117.2
		c-10.6-4.4-10.7-9.9-9.4-13.1s5.4-7,15.9-2.6s24.1,14.1,22.3,18.4S155.2,121.6,144.7,117.2z"/>
	<path style="clip-path:url(#SVGID_00000062891914184049725850000007390574081146369972_);fill:#1A1A1A;" d="M133.1,103.2
		c-1.1,2.6-1,5.6,0.3,8.1c1.5,3,4.8,5.8,10.4,8.1c5.9,2.4,12,4,18.3,4.8c2.7,0.4,5.3,0.4,8,0.1c2.3-0.3,4.6-1.1,5.6-3.5
		s-0.1-4.6-1.5-6.4c-1.7-2.1-3.6-4-5.7-5.6c-5-3.9-10.5-7.1-16.3-9.6c-5.6-2.3-9.8-2.6-13.1-1.6C136.4,98.5,134.2,100.6,133.1,103.2
		L133.1,103.2z M137.5,105c0.5-1.4,1.6-2.4,3-2.8c1.8-0.6,4.8-0.6,9.8,1.5c5.4,2.3,10.5,5.3,15.2,8.9c1.8,1.4,3.4,2.9,4.8,4.7
		c0.4,0.5,0.7,1.1,0.9,1.8c-0.6,0.3-1.2,0.5-1.9,0.6c-2.2,0.2-4.5,0.2-6.7-0.1c-5.8-0.8-11.6-2.3-17-4.5c-5-2.1-7.1-4.2-8-5.9
		C136.9,107.9,136.8,106.3,137.5,105L137.5,105z"/>
	<path style="clip-path:url(#SVGID_00000062891914184049725850000007390574081146369972_);fill:#C0C0C0;" d="M17.7,104.7
		c4.4-10.6,9.9-10.7,13.1-9.4s7,5.4,2.6,15.9S19.3,135.3,15,133.5S13.4,115.3,17.7,104.7L17.7,104.7z"/>
	<path style="clip-path:url(#SVGID_00000062891914184049725850000007390574081146369972_);fill:#1A1A1A;" d="M31.7,93.1
		c-2.6-1.1-5.6-1-8.1,0.3c-3,1.6-5.8,4.8-8.1,10.4c-2.4,5.9-4,12-4.8,18.3c-0.4,2.7-0.4,5.3-0.1,8c0.3,2.3,1.1,4.6,3.5,5.6
		s4.6-0.1,6.4-1.5c2.1-1.7,4-3.6,5.6-5.7c3.9-5,7.1-10.5,9.6-16.3c2.3-5.6,2.6-9.8,1.6-13C36.4,96.4,34.4,94.2,31.7,93.1L31.7,93.1z
		 M29.9,97.5c1.4,0.5,2.4,1.6,2.8,3c0.6,1.8,0.6,4.8-1.5,9.8c-2.3,5.4-5.3,10.5-8.9,15.2c-1.4,1.8-2.9,3.4-4.7,4.8
		c-0.5,0.4-1.1,0.7-1.8,0.9c-0.3-0.6-0.5-1.2-0.6-1.9c-0.2-2.2-0.2-4.5,0.1-6.7c0.8-5.9,2.3-11.6,4.5-17.1c2-5,4.2-7.1,5.9-8
		C27.1,96.9,28.6,96.8,29.9,97.5L29.9,97.5z"/>
	<path style="clip-path:url(#SVGID_00000062891914184049725850000007390574081146369972_);fill:#1A1A1A;" d="M107.6,39.2
		c-6.4,0.1-12.6,2.4-17.6,6.4c-3.5,2.6-6.4,6-8.5,9.8c-21.5-5.6-43.4,7.3-49,28.8c-0.1,0.4-0.2,0.9-0.3,1.3h-6.7l-0.9,2.5
		c-12.3,34.7,5.9,72.8,40.6,85c34.7,12.3,72.8-5.9,85-40.6c5.1-14.4,5.1-30.1,0-44.4l-0.9-2.5h-5.8c-2.6-9.2-9-16.8-17.6-20.8
		c1-5.7-0.1-11.6-3-16.7l0.2,0.4c-0.5-1.1-1.1-2.1-1.8-3.1l0,0C118.2,41.4,113.1,39.3,107.6,39.2z M107.6,46.8
		c3.6,0,6.2,1.3,7.7,3.2c0.3,0.5,0.6,1,0.9,1.5l0.1,0.2l0.1,0.2c2.5,4.2,3,9.3,1.5,14l-1.1,3.6l3.5,1.2c8.6,3,14.9,10.3,16.5,19.3
		l0.6,3.1h6.6c9.4,31.2-8.3,64.1-39.5,73.5s-64.1-8.3-73.5-39.5c-3.3-11.1-3.3-22.9,0-34h7.7l0.5-3.3c2.5-17.8,19-30.3,36.8-27.8
		c2.2,0.3,4.3,0.8,6.4,1.6l3.5,1.2l1.3-3.5c1.6-3.9,4.2-7.2,7.5-9.7C98.4,48.7,102.9,47,107.6,46.8L107.6,46.8z"/>
	<path style="clip-path:url(#SVGID_00000062891914184049725850000007390574081146369972_);fill:#C9345F;" d="M83.2,94.4
		c0-16,12.9-28.9,28.9-28.9S141,78.4,141,94.4s-12.9,28.9-28.9,28.9c0,0,0,0,0,0C96.1,123.3,83.2,110.4,83.2,94.4z"/>
	<path style="clip-path:url(#SVGID_00000062891914184049725850000007390574081146369972_);fill:#F5BA4E;" d="M90.7,94.4
		c0-11.8,9.6-21.4,21.4-21.4s21.4,9.6,21.4,21.4s-9.6,21.4-21.4,21.4c0,0,0,0,0,0C100.3,115.8,90.7,106.2,90.7,94.4z"/>
	<path style="clip-path:url(#SVGID_00000062891914184049725850000007390574081146369972_);fill:#FFDB82;" d="M98.2,94.4
		c0-7.7,6.2-13.9,13.9-13.9c7.7,0,13.9,6.2,13.9,13.9c0,7.7-6.2,13.9-13.9,13.9c0,0,0,0,0,0C104.4,108.2,98.3,102,98.2,94.4z"/>
	<path style="clip-path:url(#SVGID_00000062891914184049725850000007390574081146369972_);fill:#DC9133;" d="M112.1,64.5
		c-16.5,0-29.8,13.4-29.8,29.9c0,16.5,13.4,29.8,29.9,29.8c16.5,0,29.8-13.4,29.8-29.9C142,77.9,128.6,64.5,112.1,64.5
		C112.1,64.5,112.1,64.5,112.1,64.5z M112.1,66.4c15.5,0,28,12.5,28,28s-12.5,28-28,28s-28-12.5-28-28c0-15.4,12.4-28,27.9-28
		C112,66.4,112.1,66.4,112.1,66.4z"/>
	<path style="clip-path:url(#SVGID_00000062891914184049725850000007390574081146369972_);fill:#EC6665;" d="M112.1,72.1
		c-12.3,0-22.3,10-22.4,22.3c0,12.3,10,22.3,22.3,22.3c12.3,0,22.3-10,22.4-22.3c0,0,0,0,0,0C134.4,82.1,124.4,72.1,112.1,72.1z
		 M112.1,74c11.3,0,20.4,9.2,20.4,20.4s-9.2,20.4-20.4,20.4s-20.4-9.2-20.4-20.4c0,0,0,0,0,0C91.7,83.1,100.8,74,112.1,74L112.1,74z
		"/>
	<path style="clip-path:url(#SVGID_00000062891914184049725850000007390574081146369972_);fill:#DC9133;" d="M112.1,79.6
		c-8.2,0-14.8,6.6-14.8,14.8c0,8.2,6.6,14.8,14.8,14.8c8.2,0,14.8-6.6,14.8-14.8C126.9,86.2,120.3,79.6,112.1,79.6z M112.1,81.5
		c7.1,0,12.9,5.8,12.9,12.9c0,7.1-5.8,12.9-12.9,12.9s-12.9-5.8-12.9-12.9c0,0,0,0,0,0C99.2,87.3,104.9,81.5,112.1,81.5
		C112.1,81.5,112.1,81.5,112.1,81.5z"/>
	<path style="clip-path:url(#SVGID_00000062891914184049725850000007390574081146369972_);fill:#D2C0C1;" d="M118.2,47.8
		c7.4,8.9,6.2,22.1-2.7,29.6s-22.1,6.2-29.6-2.7c-0.4-0.4-0.7-0.9-1-1.4L118.2,47.8z"/>
	<path style="clip-path:url(#SVGID_00000062891914184049725850000007390574081146369972_);fill:#9D7F81;" d="M84.2,72.5l-0.8,0.7
		l0.7,0.8c7.4,9.7,21.3,11.5,30.9,4.1c9.7-7.4,11.5-21.3,4.1-30.9l-0.7-0.8L84.2,72.5z M117.9,49.4c6.2,9.1,3.9,21.4-5.2,27.6
		c-8.4,5.7-19.7,4.2-26.3-3.5L117.9,49.4z"/>
	<path style="clip-path:url(#SVGID_00000062891914184049725850000007390574081146369972_);fill:#FFFFFF;" d="M84.8,73.5
		c-5.1-6.6-1.7-17.7,7.6-24.8c4.2-3.3,9.2-5.3,14.6-5.6c4.9-0.2,9,1.5,11.4,4.7s3,7.6,1.6,12.2c-1.7,5-4.9,9.4-9.2,12.6
		C101.5,79.7,89.8,80.1,84.8,73.5L84.8,73.5z"/>
	<path style="clip-path:url(#SVGID_00000062891914184049725850000007390574081146369972_);fill:#F3AF28;" d="M91.3,66.3
		c-1.4-2-1.8-4.7-0.9-7c2-5.9,7.4-9.9,13.6-10.4c3.9-0.5,7.5,2.3,8,6.2c0.2,1.2,0,2.5-0.5,3.6c-2.1,5.9-7.4,9.9-13.6,10.4
		C95.3,69.3,92.9,68.3,91.3,66.3L91.3,66.3z"/>
	<path style="clip-path:url(#SVGID_00000062891914184049725850000007390574081146369972_);fill:#9D7F81;" d="M91.8,47.9
		c-4.4,3.3-7.7,7.8-9.5,13.1c-1.4,4.7-1,9.5,1.7,13.1s7.2,5.2,12.2,5c5.5-0.3,10.8-2.3,15.1-5.8c4.4-3.3,7.7-7.8,9.5-13.1
		c1.4-4.7,1-9.5-1.7-13s-7.2-5.2-12.2-5C101.4,42.5,96.1,44.5,91.8,47.9z M92.9,49.4c4-3.2,8.9-5.1,14-5.4c4.5-0.2,8.3,1.3,10.7,4.3
		s2.7,7.1,1.4,11.4c-1.6,4.9-4.7,9.1-8.8,12.2c-4,3.2-8.9,5.1-14,5.4c-4.5,0.2-8.3-1.3-10.7-4.3s-2.7-7.1-1.4-11.4
		C85.7,56.7,88.8,52.4,92.9,49.4z"/>
	<path style="clip-path:url(#SVGID_00000062891914184049725850000007390574081146369972_);fill:#FFD740;" d="M94.4,62.1
		c-2.2-2.8-0.8-7.6,3.2-10.6s8.9-3.2,11.1-0.3c1.1,1.5,1.3,3.5,0.7,5.2c-1.5,4.4-5.5,7.4-10.1,7.8C97.4,64.3,95.6,63.6,94.4,62.1
		L94.4,62.1z"/>
	<path style="clip-path:url(#SVGID_00000062891914184049725850000007390574081146369972_);fill:#DD7F1B;" d="M95,51.3
		c-2.6,1.9-4.6,4.6-5.6,7.7c-1.7,4.1,0.4,8.8,4.5,10.5c1.3,0.5,2.6,0.7,3.9,0.5c6.6-0.5,12.3-4.8,14.5-11.1
		c1.6-4.1-0.4-8.8-4.5-10.5c-1.2-0.5-2.6-0.7-3.9-0.5C100.6,48.1,97.5,49.3,95,51.3z M96.2,52.8c2.2-1.8,4.9-2.8,7.8-3
		c3.4-0.5,6.5,1.9,7,5.3c0.2,1.1,0,2.2-0.4,3.3c-1.9,5.5-6.9,9.3-12.7,9.8c-3.4,0.5-6.5-1.8-7-5.2c-0.2-1.1,0-2.3,0.4-3.3
		C92.1,56.9,93.9,54.5,96.2,52.8L96.2,52.8z"/>
	<path style="clip-path:url(#SVGID_00000062891914184049725850000007390574081146369972_);fill:#C9345F;" d="M35,94.4
		C35,74.3,51.3,58,71.4,58s36.4,16.3,36.4,36.4s-16.3,36.4-36.4,36.4c0,0,0,0,0,0C51.3,130.8,35,114.6,35,94.4
		C35,94.4,35,94.4,35,94.4z"/>
	<path style="clip-path:url(#SVGID_00000062891914184049725850000007390574081146369972_);fill:#C9345F;" d="M42.5,94.4
		c0-16,12.9-28.9,28.9-28.9c16,0,28.9,12.9,28.9,28.9s-12.9,28.9-28.9,28.9c0,0,0,0,0,0C55.4,123.3,42.5,110.4,42.5,94.4
		C42.5,94.4,42.5,94.4,42.5,94.4z"/>
	<path style="clip-path:url(#SVGID_00000062891914184049725850000007390574081146369972_);fill:#C9345F;" d="M50,94.4
		C50,82.6,59.6,73,71.4,73s21.4,9.6,21.4,21.4s-9.6,21.4-21.4,21.4l0,0C59.6,115.8,50,106.2,50,94.4z"/>
	<path style="clip-path:url(#SVGID_00000062891914184049725850000007390574081146369972_);fill:#C9345F;" d="M57.5,94.4
		c0-7.7,6.2-13.9,13.9-13.9s13.9,6.2,13.9,13.9s-6.2,13.9-13.9,13.9l0,0C63.8,108.3,57.6,102.1,57.5,94.4
		C57.5,94.4,57.5,94.4,57.5,94.4z"/>
	<path style="clip-path:url(#SVGID_00000062891914184049725850000007390574081146369972_);fill:#DC9133;" d="M71.4,57
		C50.8,57,34,73.7,34,94.4s16.7,37.4,37.4,37.4s37.4-16.7,37.4-37.4S92.1,57,71.4,57L71.4,57z M71.4,58.9
		c19.6,0,35.5,15.9,35.5,35.5S91,129.9,71.4,129.9c-19.6,0-35.5-15.9-35.5-35.5C35.9,74.8,51.8,58.9,71.4,58.9
		C71.4,58.9,71.4,58.9,71.4,58.9L71.4,58.9z"/>
	<path style="clip-path:url(#SVGID_00000062891914184049725850000007390574081146369972_);fill:#EC6665;" d="M71.4,64.5
		c-16.5,0-29.9,13.4-29.9,29.9s13.4,29.9,29.9,29.9s29.9-13.4,29.9-29.9C101.3,77.9,87.9,64.5,71.4,64.5z M71.4,66.4
		c15.5,0,28,12.5,28,27.9c0,15.5-12.5,28-27.9,28c-15.5,0-28-12.5-28-27.9c0,0,0,0,0,0C43.4,79,55.9,66.5,71.4,66.4
		C71.4,66.4,71.4,66.4,71.4,66.4z"/>
	<path style="clip-path:url(#SVGID_00000062891914184049725850000007390574081146369972_);fill:#EC6665;" d="M71.4,72.1
		c-12.3,0-22.3,10-22.4,22.3c0,12.3,10,22.3,22.3,22.3c12.3,0,22.3-10,22.4-22.3c0,0,0,0,0,0C93.7,82.1,83.7,72.1,71.4,72.1z
		 M71.4,74c11.3,0,20.5,9.1,20.5,20.4c0,11.3-9.1,20.5-20.4,20.5c-11.3,0-20.5-9.1-20.5-20.4c0,0,0,0,0,0C51,83.1,60.1,74,71.4,74
		L71.4,74z"/>
	<path style="clip-path:url(#SVGID_00000062891914184049725850000007390574081146369972_);fill:#EC6665;" d="M71.4,79.6
		c-8.2,0-14.8,6.6-14.8,14.8s6.6,14.8,14.8,14.8s14.8-6.6,14.8-14.8l0,0C86.2,86.2,79.6,79.6,71.4,79.6z M71.4,81.5
		c7.1,0,12.9,5.8,12.9,12.9s-5.8,12.9-12.9,12.9s-12.9-5.8-12.9-12.9C58.5,87.3,64.3,81.5,71.4,81.5C71.4,81.5,71.4,81.5,71.4,81.5z
		"/>
	<path style="clip-path:url(#SVGID_00000062891914184049725850000007390574081146369972_);fill:#C9345F;" d="M126.3,95.7
		c6.5-12.1,0.8-20.6-4.3-21.5c-5.7-1-9.5,4.9-16,5.7s-11.4-4.8-17.4-3c-6.8,2-4.2,18.8-4.2,18.8L126.3,95.7z"/>
	<path style="clip-path:url(#SVGID_00000062891914184049725850000007390574081146369972_);fill:#902F54;" d="M121,73
		c-2.7-0.1-5,1.1-7.2,2.4c-2.5,1.5-4.9,3-7.9,3.4s-5.6-0.7-8.4-1.8s-5.8-2.2-9.1-1.2c-2,0.7-3.6,2.4-4.2,4.4
		c-0.7,2.2-1.2,4.4-1.2,6.7c-0.1,3,0,5.9,0.4,8.9l2.1-0.3c-0.4-2.8-0.6-5.7-0.5-8.5c0.1-2,0.4-4.1,1.1-6c0.7-1.7,1.6-2.8,2.8-3.2
		c2.6-0.8,5,0,7.8,1.1s5.8,2.4,9.4,1.9s6.3-2.2,8.7-3.7s4.5-2.5,6.9-2c4,0.7,9.8,8.3,3.5,20l1.9,1c6.7-12.5,1-22-5-23.1
		C121.8,73.1,121.4,73,121,73z"/>
	<path style="clip-path:url(#SVGID_00000062891914184049725850000007390574081146369972_);fill:#EC6665;" d="M117.4,80
		c-1.9,0-3.9,0.5-5.6,1.4c-2,1-4.2,1.7-6.4,2.1c-2.3,0.1-4.6-0.3-6.8-1.1c-2.2-0.7-4.5-1.3-7.1-0.7c-1.4,0.3-2.7,1.3-3.3,2.7
		c-0.6,1.3-0.9,2.7-1,4.1c-0.1,1.8,0,3.6,0.4,5.4l1.4-0.3c-0.3-1.6-0.4-3.3-0.3-5c0-1.2,0.3-2.4,0.8-3.5c0.4-1,1.3-1.7,2.3-1.9
		c2.2-0.5,4.2,0,6.4,0.7c2.3,0.9,4.8,1.3,7.3,1.2c2.4-0.3,4.7-1.1,6.8-2.2c2-0.8,3.7-1.5,5.7-1.2c2,0.3,3.7,1.6,4.6,3.5
		c0.9,2,0.8,4.8-1.7,8.2l1.2,0.8c2.7-3.8,2.9-7.2,1.8-9.6c-1-2.3-3.2-4-5.7-4.3C118,80.1,117.7,80,117.4,80z"/>
	<path style="clip-path:url(#SVGID_00000062891914184049725850000007390574081146369972_);fill:#EC6665;" d="M114.6,84.8
		c-1.6,0-3.2,0.5-4.6,1.3c-1.6,0.9-3.3,1.5-5.1,1.8c-1.8,0.1-3.7-0.3-5.4-1c-1.8-0.8-3.8-1-5.8-0.6c-1.2,0.3-2.2,1.2-2.7,2.4
		c-0.5,1.1-0.8,2.4-0.8,3.6c-0.1,1.6,0,3.1,0.3,4.7l1.4-0.2c-0.2-1.4-0.3-2.9-0.3-4.4c0-1.1,0.3-2.1,0.7-3.1c0.3-0.8,1-1.4,1.8-1.6
		c1.7-0.3,3.4-0.1,5,0.6c1.9,0.8,4,1.1,6,1c1.9-0.3,3.8-0.9,5.5-1.9c1.3-0.8,2.9-1.2,4.5-1.1c1.6,0.3,3,1.5,3.6,3
		c0.7,1.7,0.6,4.2-1.3,7.2l1.2,0.8c2.2-3.3,2.3-6.3,1.4-8.5c-0.8-2-2.5-3.5-4.7-3.9C115.2,84.8,114.9,84.8,114.6,84.8L114.6,84.8z"
		/>
	<path style="clip-path:url(#SVGID_00000062891914184049725850000007390574081146369972_);fill:#53B582;" d="M73,73
		c3-2.3,8-0.7,11.3,3.5c1.6-2.5,4-3.8,6.2-3.5c3.5,0.5,5.9,4.6,5.7,9.7c0.6-0.1,1.2,0,1.7,0.1c3.4,0.9,5.2,5.7,3.8,10.6
		c-1.2,4.3-4.3,7.5-7.5,7.4c-0.8,3.1-4.6,5.3-9.1,5.3c-2.3,0-4.6-0.6-6.5-1.9c-1.6-1-2.6-2.7-2.7-4.6c0-0.6,0.1-1.2,0.3-1.7
		c-4.9-1-8.3-4.5-7.9-8c0.3-2.3,2.2-4.2,5-5.1C70.2,80.5,70,75.3,73,73z"/>
	
		<line style="clip-path:url(#SVGID_00000062891914184049725850000007390574081146369972_);fill:none;" x1="94.2" y1="100.7" x2="76.8" y2="78.1"/>
	<path style="clip-path:url(#SVGID_00000062891914184049725850000007390574081146369972_);fill:#88C58D;" d="M76.8,77.3
		c-0.2,0-0.3,0.1-0.4,0.2c-0.3,0.2-0.4,0.7-0.1,1c0,0,0,0,0,0l17.4,22.7c0.2,0.3,0.7,0.4,1,0.1s0.4-0.7,0.1-1L77.4,77.6
		C77.3,77.5,77.1,77.3,76.8,77.3z"/>
	
		<line style="clip-path:url(#SVGID_00000062891914184049725850000007390574081146369972_);fill:none;" x1="94.2" y1="100.7" x2="83.9" y2="99.4"/>
	<path style="clip-path:url(#SVGID_00000062891914184049725850000007390574081146369972_);fill:#88C58D;" d="M83.9,98.7
		c-0.4,0-0.7,0.3-0.8,0.7c0,0.4,0.3,0.7,0.7,0.8l10.4,1.4c0.4,0,0.7-0.2,0.8-0.6c0-0.4-0.2-0.7-0.6-0.8L84,98.7H83.9z"/>
	
		<line style="clip-path:url(#SVGID_00000062891914184049725850000007390574081146369972_);fill:none;" x1="89.8" y1="78.5" x2="87.9" y2="92.5"/>
	<path style="clip-path:url(#SVGID_00000062891914184049725850000007390574081146369972_);fill:#88C58D;" d="M89.8,77.8
		c-0.4,0-0.7,0.3-0.7,0.6l-1.8,14c0,0.4,0.2,0.7,0.6,0.8c0.4,0.1,0.7-0.2,0.8-0.6c0,0,0,0,0,0l1.8-14c0.1-0.4-0.2-0.7-0.6-0.8
		C89.9,77.8,89.9,77.8,89.8,77.8L89.8,77.8z"/>
	<path style="clip-path:url(#SVGID_00000062891914184049725850000007390574081146369972_);fill:#2C8468;" d="M76.2,71
		c-1.4,0-2.7,0.4-3.8,1.2c-1.8,1.5-2.7,3.7-2.5,6c0.1,2.2,0.8,4.3,2.1,6.2c-2.4,0.9-4.1,3-4.5,5.4c-0.2,2.1,0.6,4.2,2.2,5.7
		c1.5,1.4,3.4,2.5,5.5,3c-0.1,0.3-0.1,0.7-0.1,1c0.1,2.2,1.2,4.2,3.1,5.4c2.1,1.4,4.6,2.1,7.1,2c4.5,0,8.6-2.1,9.8-5.4
		c3.5-0.4,6.6-3.7,7.7-8.1c0.7-2.4,0.6-5-0.2-7.4c-0.6-2.1-2.3-3.7-4.3-4.4c-0.3-0.1-0.7-0.1-1-0.2c0-2.1-0.5-4.2-1.5-6.1
		c-1-1.9-2.9-3.2-5-3.6c-2.5-0.2-5,0.9-6.4,3c-1.5-1.6-3.4-2.9-5.4-3.6C77.9,71.1,77.1,71,76.2,71z M75.6,72.9
		c0.9-0.1,1.7,0,2.6,0.3c2.1,0.7,4,2,5.3,3.8l0.8,1l0.7-1c1.5-2.3,3.5-3.3,5.3-3.1c1.5,0.3,2.9,1.3,3.6,2.7c1,1.8,1.4,3.9,1.3,6
		l-0.1,1.1l1.1-0.1c0.5-0.1,0.9,0,1.4,0.1c1.5,0.5,2.6,1.7,3.1,3.2c0.7,2,0.7,4.2,0.1,6.2c-1.1,4-4,6.8-6.6,6.7h-0.8l-0.2,0.7
		c-0.6,2.5-4,4.6-8.2,4.6c-2.1,0-4.2-0.6-6-1.7c-1.4-0.8-2.2-2.2-2.3-3.8c0-0.5,0.1-0.9,0.3-1.4l0.4-1L76.4,97
		c-2.1-0.4-4-1.4-5.5-2.8c-1.2-1-1.8-2.6-1.6-4.1c0.2-1.8,1.8-3.5,4.4-4.3l1.3-0.4l-0.8-1.1c-1.4-1.8-2.2-3.9-2.3-6.2
		c-0.2-1.7,0.5-3.3,1.8-4.4C74.1,73.3,74.9,73,75.6,72.9L75.6,72.9z"/>
	<path style="clip-path:url(#SVGID_00000062891914184049725850000007390574081146369972_);fill:#D4C1BB;" d="M28.2,89.4
		c-11.6,32.7,5.6,68.6,38.3,80.2c32.7,11.6,68.6-5.6,80.2-38.3c4.8-13.6,4.8-28.3,0-41.9H28.2z"/>
	<path style="clip-path:url(#SVGID_00000062891914184049725850000007390574081146369972_);fill:#E5DAD6;" d="M41.6,89.4
		c-8.3,28.6,8.1,58.5,36.7,66.8c28.6,8.3,58.5-8.1,66.8-36.7c2.9-9.8,2.9-20.3,0-30.1H41.6z"/>
	<path style="clip-path:url(#SVGID_00000062891914184049725850000007390574081146369972_);fill:#FFFFFF;" d="M67.6,89.4
		c-0.1,1.1-0.2,2.3-0.2,3.4c0.5,20.7,17.7,37.1,38.4,36.6c20-0.5,36.2-16.6,36.6-36.6c0-1.1-0.1-2.3-0.2-3.4H67.6z"/>
	<path style="clip-path:url(#SVGID_00000062891914184049725850000007390574081146369972_);fill:#E73A2E;" d="M25.2,101.3
		c-0.4,3-0.6,6-0.6,9c0,1,0,2,0.1,3h125.5c0-1,0.1-2,0.1-3c0-3-0.2-6-0.6-9H25.2z"/>
	<path style="clip-path:url(#SVGID_00000062891914184049725850000007390574081146369972_);fill:#B4958F;" d="M27.5,88.4l-0.2,0.6
		c-11.7,33.2,5.7,69.7,38.9,81.4s69.7-5.7,81.4-38.9c4.9-13.8,4.9-28.8,0-42.5l-0.2-0.6H27.5z M146,90.3
		c11.1,32.3-6.2,67.5-38.5,78.6s-67.5-6.2-78.6-38.5c-4.4-13-4.4-27.1,0-40.1H146z"/>
	
		<rect x="58.5" y="165.1" style="clip-path:url(#SVGID_00000062891914184049725850000007390574081146369972_);fill:#B4958F;" width="57.9" height="1.9"/>
	<path style="clip-path:url(#SVGID_00000062891914184049725850000007390574081146369972_);fill:#EC604B;" d="M39.6,101.3
		c-0.1,1-0.1,2-0.1,3.1c0,3,0.2,6,0.7,8.9h106.3c0.5-2.9,0.7-5.9,0.7-8.9c0-1,0-2-0.1-3.1L39.6,101.3z"/>
	<path style="clip-path:url(#SVGID_00000062891914184049725850000007390574081146369972_);fill:#F39461;" d="M68.4,101.3
		c1,4.3,2.7,8.3,5.1,12h62.8c2.4-3.7,4.1-7.7,5.1-12H68.4z"/>
	<path style="clip-path:url(#SVGID_00000062891914184049725850000007390574081146369972_);fill:#1A1A1A;" d="M107.6,41.3
		c-5.9,0.2-11.7,2.3-16.3,6c-3.7,2.8-6.7,6.5-8.7,10.7c-3.6-1.2-7.4-1.8-11.2-1.8C53,56.3,37.2,69.5,34,87.6h-6.5
		c-0.3,0-0.7,0.2-0.8,0.6l-0.2,0.6c-11.9,33.6,5.7,70.5,39.4,82.4s70.5-5.7,82.4-39.4c4.9-13.9,4.9-29.1,0-43l-0.2-0.6
		c-0.1-0.3-0.4-0.6-0.8-0.6h-5.4c-2.2-9.8-9.1-17.9-18.4-21.6c1.4-5.7,0.6-11.7-2.3-16.8c-0.4-0.9-0.9-1.8-1.5-2.6
		C117,43.2,112.6,41.3,107.6,41.3z M107.6,44c4.3,0,7.9,1.6,10,4.3c0.5,0.6,0.9,1.3,1.2,2.1v0l0,0c2.9,4.9,3.5,10.8,1.8,16.3
		l-0.3,0.9l0.9,0.3c9.6,3.3,16.7,11.6,18.4,21.6l0.1,0.8h6.3c11.2,32.3-6,67.5-38.3,78.7s-67.5-6-78.7-38.3
		c-4.5-13.1-4.5-27.3,0-40.4h7.2l0.1-0.8c2.8-19.4,20.7-32.9,40.1-30.1c2.3,0.3,4.6,0.9,6.8,1.7l0.9,0.3l0.3-0.9
		c1.8-4.4,4.7-8.2,8.4-11C97.1,46.1,102.2,44.2,107.6,44L107.6,44z"/>
	<path style="clip-path:url(#SVGID_00000062891914184049725850000007390574081146369972_);fill:#1A1A1A;" d="M107.6,42.1
		c-5.8,0.2-11.3,2.2-15.8,5.8c-3.8,2.9-6.8,6.6-8.7,11C63.5,52.4,42.4,63,36,82.5c-0.6,1.9-1.1,3.9-1.4,5.9h-7l-0.2,0.6
		c-11.7,33.2,5.7,69.6,38.9,81.4s69.6-5.7,81.4-38.9c4.9-13.7,4.9-28.7,0-42.5l-0.2-0.6h-6c-2-10.1-9.1-18.4-18.7-22
		c1.6-5.7,0.8-11.8-2.2-16.9c-0.4-0.8-0.8-1.6-1.4-2.4l0,0C116.6,43.8,112.4,42.1,107.6,42.1L107.6,42.1z M107.6,44
		c4.3,0,7.8,1.6,10,4.3c0.5,0.6,0.9,1.3,1.2,2.1v0l0,0c2.9,4.9,3.5,10.8,1.8,16.3l-0.3,0.9l0.9,0.3c9.6,3.3,16.7,11.6,18.4,21.6
		l0.1,0.8h6.3c11.1,32.3-6.2,67.5-38.5,78.6s-67.5-6.2-78.6-38.5c-4.4-13-4.4-27.1,0-40.1h7.3l0.1-0.8C39,70.1,57,56.6,76.4,59.3
		c2.3,0.3,4.7,0.9,6.9,1.7l0.9,0.3l0.3-0.9c1.8-4.4,4.7-8.2,8.4-11C97.1,46.1,102.2,44.2,107.6,44L107.6,44z"/>
	<path style="clip-path:url(#SVGID_00000062891914184049725850000007390574081146369972_);fill:#FFD740;" d="M106.8,50.8h-0.2h-0.1
		h-0.1h-0.1h-0.1h-0.1h-0.1L106,51h-0.1h-0.1h-0.1l0,0h-0.1v0v0.1l0,0v0.1v0.1v0.1v0.1v0.1c0,0,0,0,0,0.1v0.1l0,0l0,0c0,0,0,0,0,0.1
		s0,0,0,0.1c0,0,0,0,0,0.1c0,0,0,0,0,0.1v0.2c0,0,0,0,0,0.1s0,0,0,0.1s0,0,0,0.1c0,0,0,0,0,0.1c0,0,0,0,0,0.1v0.1c0,0,0,0,0,0.1v0.1
		v0.1v0.1c0,0,0,0,0,0.1l0,0v0.1l0,0l0,0c0,0,0,0,0,0h0.1h0.1h0.1h0.1h0.1h0.1h0.1h0.1h0.7h0.1h0.1h0.1h0.1h0.1h0.1h0.1h0.1h0.1
		l0.1,0h0.1l0.1,0l0,0v-0.1v-0.1c0,0,0,0,0-0.1v-0.1v-0.1c0,0,0,0,0-0.1v-0.1v-0.1l0,0l0,0c0,0,0,0,0-0.1c0,0,0,0,0-0.1
		c0,0,0,0,0-0.1s0,0,0-0.1v-0.2c0,0,0,0,0-0.1s0,0,0-0.1s0,0,0-0.1c0,0,0,0,0-0.1c0,0,0,0,0-0.1c0,0,0,0,0-0.1v-0.1v-0.1v-0.1v-0.1
		v-0.1V51l0,0l0,0v0l0,0l-0.1,0h-0.1h-0.1h-0.1h-0.1h-0.1h-0.1h-0.1l0,0h-0.1L106.8,50.8L106.8,50.8z"/>
	<path style="clip-path:url(#SVGID_00000062891914184049725850000007390574081146369972_);fill:#FFD740;" d="M106.8,50.8h-0.3h-0.1
		h-0.1h-0.1h-0.1h-0.1L106,51h-0.1h-0.1h-0.1l0,0h-0.1v0v0.1l0,0v0.1v0.1v0.1v0.1v0.1c0,0,0,0,0,0.1v0.1l0,0l0,0c0,0,0,0,0,0.1
		s0,0,0,0.1c0,0,0,0,0,0.1c0,0,0,0,0,0.1V52c0,0,0,0,0,0.1s0,0,0,0.1s0,0,0,0.1c0,0,0,0,0,0.1c0,0,0,0,0,0.1v0.1c0,0,0,0,0,0.1v0.1
		c0,0,0,0,0,0.1v0.1v0.1v0.1l0,0v0.1l0,0l0,0h0.1h0.1h0.1h0.1h0.1h0.1h0.1h0.1l0,0h0.1h0.6h0.1h0.1h0.1h0.1h0.1h0.1h0.1h0.1h0.1
		l0.1,0h0.1l0.1,0l0,0v-0.1v-0.1c0,0,0,0,0-0.1v-0.1v-0.1c0,0,0,0,0-0.1v-0.1v-0.1l0,0l0,0c0,0,0,0,0-0.1c0,0,0,0,0-0.1
		c0,0,0,0,0-0.1s0,0,0-0.1v-0.2c0,0,0,0,0-0.1s0,0,0-0.1s0,0,0-0.1c0,0,0,0,0-0.1c0,0,0,0,0-0.1c0,0,0,0,0-0.1v-0.1v-0.1v-0.1v-0.1
		v-0.1V51l0,0l0,0v0l0,0l-0.1,0h-0.1h-0.1h-0.1h-0.1h-0.1h-0.1h-0.1l0,0h-0.1L106.8,50.8L106.8,50.8z"/>
	<path style="clip-path:url(#SVGID_00000062891914184049725850000007390574081146369972_);fill:#FFD740;" d="M106.8,50.8h-0.3h-0.1
		h-0.1h-0.1h-0.1h-0.1L106,51h-0.1h-0.1h-0.1l0,0h-0.1v0v0.1l0,0v0.1v0.1v0.1v0.1v0.1c0,0,0,0,0,0.1v0.1l0,0l0,0c0,0,0,0,0,0.1
		s0,0,0,0.1c0,0,0,0,0,0.1c0,0,0,0,0,0.1V52c0,0,0,0,0,0.1s0,0,0,0.1s0,0,0,0.1c0,0,0,0,0,0.1c0,0,0,0,0,0.1v0.1c0,0,0,0,0,0.1v0.1
		c0,0,0,0,0,0.1v0.1v0.1v0.1l0,0v0.1l0,0l0,0h0.1h0.1h0.1h0.1h0.1h0.1h0.1h0.1l0,0h0.1h0.6h0.1h0.1h0.1h0.1h0.1h0.1h0.1h0.1h0.1
		l0.1,0h0.1l0.1,0l0,0v-0.1v-0.1c0,0,0,0,0-0.1v-0.1v-0.1c0,0,0,0,0-0.1v-0.1v-0.1l0,0l0,0c0,0,0,0,0-0.1c0,0,0,0,0-0.1
		c0,0,0,0,0-0.1s0,0,0-0.1v-0.2c0,0,0,0,0-0.1s0,0,0-0.1s0,0,0-0.1c0,0,0,0,0-0.1c0,0,0,0,0-0.1c0,0,0,0,0-0.1v-0.1v-0.1v-0.1v-0.1
		v-0.1V51l0,0l0,0v0l0,0l-0.1,0h-0.1h-0.1h-0.1h-0.1h-0.1h-0.1h-0.1l0,0h-0.1L106.8,50.8L106.8,50.8z"/>
	<path style="clip-path:url(#SVGID_00000062891914184049725850000007390574081146369972_);fill:#FFD740;" d="M106.8,50.8h-0.3h-0.1
		h-0.1h-0.1h-0.1h-0.1L106,51h-0.1h-0.1h-0.1l0,0h-0.1v0v0.1l0,0v0.1v0.1v0.1v0.1v0.1c0,0,0,0,0,0.1v0.1l0,0l0,0c0,0,0,0,0,0.1
		s0,0,0,0.1c0,0,0,0,0,0.1c0,0,0,0,0,0.1V52c0,0,0,0,0,0.1s0,0,0,0.1s0,0,0,0.1c0,0,0,0,0,0.1c0,0,0,0,0,0.1v0.1c0,0,0,0,0,0.1v0.1
		c0,0,0,0,0,0.1v0.1v0.1v0.1l0,0v0.1l0,0l0,0h0.1h0.1h0.1h0.1h0.1h0.1h0.1h0.1l0,0h0.1h0.6h0.1h0.1h0.1h0.1h0.1h0.1h0.1h0.1h0.1
		l0.1,0h0.1l0.1,0l0,0v-0.1v-0.1c0,0,0,0,0-0.1v-0.1v-0.1c0,0,0,0,0-0.1v-0.1v-0.1l0,0l0,0c0,0,0,0,0-0.1c0,0,0,0,0-0.1
		c0,0,0,0,0-0.1s0,0,0-0.1v-0.2c0,0,0,0,0-0.1s0,0,0-0.1s0,0,0-0.1c0,0,0,0,0-0.1c0,0,0,0,0-0.1c0,0,0,0,0-0.1v-0.1v-0.1v-0.1v-0.1
		v-0.1V51l0,0l0,0v0l0,0l-0.1,0h-0.1h-0.1h-0.1h-0.1h-0.1h-0.1h-0.1l0,0h-0.1L106.8,50.8L106.8,50.8z"/>
	<path style="clip-path:url(#SVGID_00000062891914184049725850000007390574081146369972_);fill:#FFD740;" d="M106.8,50.8h-0.3h-0.1
		h-0.1h-0.1h-0.1h-0.1L106,51h-0.1h-0.1h-0.1l0,0h-0.1v0v0.1l0,0v0.1v0.1v0.1v0.1v0.1c0,0,0,0,0,0.1v0.1l0,0l0,0c0,0,0,0,0,0.1
		s0,0,0,0.1c0,0,0,0,0,0.1c0,0,0,0,0,0.1V52c0,0,0,0,0,0.1s0,0,0,0.1s0,0,0,0.1c0,0,0,0,0,0.1c0,0,0,0,0,0.1v0.1c0,0,0,0,0,0.1v0.1
		c0,0,0,0,0,0.1v0.1v0.1v0.1l0,0v0.1l0,0l0,0h0.1h0.1h0.1h0.1h0.1h0.1h0.1h0.1l0,0h0.1h0.6h0.1h0.1h0.1h0.1h0.1h0.1h0.1h0.1h0.1
		l0.1,0h0.1l0.1,0l0,0v-0.1v-0.1c0,0,0,0,0-0.1v-0.1v-0.1c0,0,0,0,0-0.1v-0.1v-0.1l0,0l0,0c0,0,0,0,0-0.1c0,0,0,0,0-0.1
		c0,0,0,0,0-0.1s0,0,0-0.1v-0.2c0,0,0,0,0-0.1s0,0,0-0.1s0,0,0-0.1c0,0,0,0,0-0.1c0,0,0,0,0-0.1c0,0,0,0,0-0.1v-0.1v-0.1v-0.1v-0.1
		v-0.1V51l0,0l0,0v0l0,0l-0.1,0h-0.1h-0.1h-0.1h-0.1h-0.1h-0.1h-0.1l0,0h-0.1L106.8,50.8L106.8,50.8z"/>
	<path style="clip-path:url(#SVGID_00000062891914184049725850000007390574081146369972_);fill:#FFD740;" d="M106.8,50.8h-0.3h-0.1
		h-0.1h-0.1h-0.1h-0.1L106,51h-0.1h-0.1h-0.1l0,0h-0.1v0v0.1l0,0v0.1v0.1v0.1v0.1v0.1c0,0,0,0,0,0.1v0.1l0,0l0,0c0,0,0,0,0,0.1
		s0,0,0,0.1c0,0,0,0,0,0.1c0,0,0,0,0,0.1V52c0,0,0,0,0,0.1s0,0,0,0.1s0,0,0,0.1c0,0,0,0,0,0.1c0,0,0,0,0,0.1v0.1c0,0,0,0,0,0.1v0.1
		c0,0,0,0,0,0.1v0.1v0.1v0.1l0,0v0.1l0,0l0,0h0.1h0.1h0.1h0.1h0.1h0.1h0.1h0.1l0,0h0.1h0.6h0.1h0.1h0.1h0.1h0.1h0.1h0.1h0.1h0.1
		l0.1,0h0.1l0.1,0l0,0v-0.1v-0.1c0,0,0,0,0-0.1v-0.1v-0.1c0,0,0,0,0-0.1v-0.1v-0.1l0,0l0,0c0,0,0,0,0-0.1c0,0,0,0,0-0.1
		c0,0,0,0,0-0.1s0,0,0-0.1v-0.2c0,0,0,0,0-0.1s0,0,0-0.1s0,0,0-0.1c0,0,0,0,0-0.1c0,0,0,0,0-0.1c0,0,0,0,0-0.1v-0.1v-0.1v-0.1v-0.1
		v-0.1V51l0,0l0,0v0l0,0l-0.1,0h-0.1h-0.1h-0.1h-0.1h-0.1h-0.1h-0.1l0,0h-0.1L106.8,50.8L106.8,50.8z"/>
	<path style="clip-path:url(#SVGID_00000062891914184049725850000007390574081146369972_);fill:#FFD740;" d="M106.8,50.8h-0.3h-0.1
		h-0.1h-0.1h-0.1h-0.1L106,51h-0.1h-0.1h-0.1l0,0h-0.1v0v0.1l0,0v0.1v0.1v0.1v0.1v0.1c0,0,0,0,0,0.1v0.1l0,0l0,0c0,0,0,0,0,0.1
		s0,0,0,0.1c0,0,0,0,0,0.1c0,0,0,0,0,0.1V52c0,0,0,0,0,0.1s0,0,0,0.1s0,0,0,0.1c0,0,0,0,0,0.1c0,0,0,0,0,0.1v0.1c0,0,0,0,0,0.1v0.1
		c0,0,0,0,0,0.1v0.1v0.1v0.1l0,0v0.1l0,0l0,0h0.1h0.1h0.1h0.1h0.1h0.1h0.1h0.1l0,0h0.1h0.6h0.1h0.1h0.1h0.1h0.1h0.1h0.1h0.1h0.1
		l0.1,0h0.1l0.1,0l0,0v-0.1v-0.1c0,0,0,0,0-0.1v-0.1v-0.1c0,0,0,0,0-0.1v-0.1v-0.1l0,0l0,0c0,0,0,0,0-0.1c0,0,0,0,0-0.1
		c0,0,0,0,0-0.1s0,0,0-0.1v-0.2c0,0,0,0,0-0.1s0,0,0-0.1s0,0,0-0.1c0,0,0,0,0-0.1c0,0,0,0,0-0.1c0,0,0,0,0-0.1v-0.1v-0.1v-0.1v-0.1
		v-0.1V51l0,0l0,0v0l0,0l-0.1,0h-0.1h-0.1h-0.1h-0.1h-0.1h-0.1h-0.1l0,0h-0.1L106.8,50.8L106.8,50.8z"/>
	<path style="clip-path:url(#SVGID_00000062891914184049725850000007390574081146369972_);fill:#FFD740;" d="M106.8,50.8h-0.3h-0.1
		h-0.1h-0.1h-0.1h-0.1L106,51h-0.1h-0.1h-0.1l0,0h-0.1v0v0.1l0,0v0.1v0.1v0.1v0.1v0.1c0,0,0,0,0,0.1v0.1l0,0l0,0c0,0,0,0,0,0.1
		s0,0,0,0.1c0,0,0,0,0,0.1c0,0,0,0,0,0.1V52c0,0,0,0,0,0.1s0,0,0,0.1s0,0,0,0.1c0,0,0,0,0,0.1c0,0,0,0,0,0.1v0.1c0,0,0,0,0,0.1v0.1
		c0,0,0,0,0,0.1v0.1v0.1v0.1l0,0v0.1l0,0l0,0h0.1h0.1h0.1h0.1h0.1h0.1h0.1h0.1l0,0h0.1h0.6h0.1h0.1h0.1h0.1h0.1h0.1h0.1h0.1h0.1
		l0.1,0h0.1l0.1,0l0,0v-0.1v-0.1c0,0,0,0,0-0.1v-0.1v-0.1c0,0,0,0,0-0.1v-0.1v-0.1l0,0l0,0c0,0,0,0,0-0.1c0,0,0,0,0-0.1
		c0,0,0,0,0-0.1s0,0,0-0.1v-0.2c0,0,0,0,0-0.1s0,0,0-0.1s0,0,0-0.1c0,0,0,0,0-0.1c0,0,0,0,0-0.1c0,0,0,0,0-0.1v-0.1v-0.1v-0.1v-0.1
		v-0.1V51l0,0l0,0v0l0,0l-0.1,0h-0.1h-0.1h-0.1h-0.1h-0.1h-0.1h-0.1l0,0h-0.1L106.8,50.8L106.8,50.8z"/>
	<path style="clip-path:url(#SVGID_00000062891914184049725850000007390574081146369972_);fill:#FFD740;" d="M106.8,50.8h-0.3h-0.1
		h-0.1h-0.1h-0.1h-0.1L106,51h-0.1h-0.1h-0.1l0,0h-0.1v0v0.1l0,0v0.1v0.1v0.1v0.1v0.1c0,0,0,0,0,0.1v0.1l0,0l0,0c0,0,0,0,0,0.1
		s0,0,0,0.1c0,0,0,0,0,0.1c0,0,0,0,0,0.1V52c0,0,0,0,0,0.1s0,0,0,0.1s0,0,0,0.1c0,0,0,0,0,0.1c0,0,0,0,0,0.1v0.1c0,0,0,0,0,0.1v0.1
		c0,0,0,0,0,0.1v0.1v0.1v0.1l0,0v0.1l0,0l0,0h0.1h0.1h0.1h0.1h0.1h0.1h0.1h0.1l0,0h0.1h0.6h0.1h0.1h0.1h0.1h0.1h0.1h0.1h0.1h0.1
		l0.1,0h0.1l0.1,0l0,0v-0.1v-0.1c0,0,0,0,0-0.1v-0.1v-0.1c0,0,0,0,0-0.1v-0.1v-0.1l0,0l0,0c0,0,0,0,0-0.1c0,0,0,0,0-0.1
		c0,0,0,0,0-0.1s0,0,0-0.1v-0.2c0,0,0,0,0-0.1s0,0,0-0.1s0,0,0-0.1c0,0,0,0,0-0.1c0,0,0,0,0-0.1c0,0,0,0,0-0.1v-0.1v-0.1v-0.1v-0.1
		v-0.1V51l0,0l0,0v0l0,0l-0.1,0h-0.1h-0.1h-0.1h-0.1h-0.1h-0.1h-0.1l0,0h-0.1L106.8,50.8L106.8,50.8z"/>
	<path style="clip-path:url(#SVGID_00000062891914184049725850000007390574081146369972_);fill:#FFD740;" d="M106.8,50.8h-0.3h-0.1
		h-0.1h-0.1h-0.1h-0.1L106,51h-0.1h-0.1h-0.1l0,0h-0.1v0v0.1l0,0v0.1v0.1v0.1v0.1v0.1c0,0,0,0,0,0.1v0.1l0,0l0,0c0,0,0,0,0,0.1
		s0,0,0,0.1c0,0,0,0,0,0.1c0,0,0,0,0,0.1V52c0,0,0,0,0,0.1s0,0,0,0.1s0,0,0,0.1c0,0,0,0,0,0.1c0,0,0,0,0,0.1v0.1c0,0,0,0,0,0.1v0.1
		c0,0,0,0,0,0.1v0.1v0.1v0.1l0,0v0.1l0,0l0,0h0.1h0.1h0.1h0.1h0.1h0.1h0.1h0.1l0,0h0.1h0.6h0.1h0.1h0.1h0.1h0.1h0.1h0.1h0.1h0.1
		l0.1,0h0.1l0.1,0l0,0v-0.1v-0.1c0,0,0,0,0-0.1v-0.1v-0.1c0,0,0,0,0-0.1v-0.1v-0.1l0,0l0,0c0,0,0,0,0-0.1c0,0,0,0,0-0.1
		c0,0,0,0,0-0.1s0,0,0-0.1v-0.2c0,0,0,0,0-0.1s0,0,0-0.1s0,0,0-0.1c0,0,0,0,0-0.1c0,0,0,0,0-0.1c0,0,0,0,0-0.1v-0.1v-0.1v-0.1v-0.1
		v-0.1V51l0,0l0,0v0l0,0l-0.1,0h-0.1h-0.1h-0.1h-0.1h-0.1h-0.1h-0.1l0,0h-0.1L106.8,50.8L106.8,50.8z"/>
	<path style="clip-path:url(#SVGID_00000062891914184049725850000007390574081146369972_);fill:#FFD740;" d="M106.8,50.8h-0.2h-0.1
		h-0.1h-0.1h-0.1h-0.1h-0.1L106,51h-0.1h-0.1h-0.1l0,0h-0.1v0v0.1l0,0v0.1v0.1v0.1v0.1v0.1c0,0,0,0,0,0.1v0.1l0,0l0,0c0,0,0,0,0,0.1
		s0,0,0,0.1c0,0,0,0,0,0.1c0,0,0,0,0,0.1v0.2c0,0,0,0,0,0.1s0,0,0,0.1s0,0,0,0.1c0,0,0,0,0,0.1c0,0,0,0,0,0.1v0.1c0,0,0,0,0,0.1v0.1
		v0.1v0.1c0,0,0,0,0,0.1l0,0v0.1l0,0l0,0c0,0,0,0,0,0h0.1h0.1h0.1h0.1h0.1h0.1h0.1h0.1h0.7h0.1h0.1h0.1h0.1h0.1h0.1h0.1h0.1h0.1
		l0.1,0h0.1l0.1,0l0,0v-0.1v-0.1c0,0,0,0,0-0.1v-0.1v-0.1c0,0,0,0,0-0.1v-0.1v-0.1l0,0l0,0c0,0,0,0,0-0.1c0,0,0,0,0-0.1
		c0,0,0,0,0-0.1s0,0,0-0.1v-0.2c0,0,0,0,0-0.1s0,0,0-0.1s0,0,0-0.1c0,0,0,0,0-0.1c0,0,0,0,0-0.1c0,0,0,0,0-0.1v-0.1v-0.1v-0.1v-0.1
		v-0.1V51l0,0l0,0v0l0,0l-0.1,0h-0.1h-0.1h-0.1h-0.1h-0.1h-0.1h-0.1l0,0h-0.1L106.8,50.8L106.8,50.8z"/>
	<path style="clip-path:url(#SVGID_00000062891914184049725850000007390574081146369972_);fill:#FFD740;" d="M106.8,50.8h-0.3h-0.1
		h-0.1h-0.1h-0.1h-0.1L106,51h-0.1h-0.1h-0.1l0,0h-0.1v0v0.1l0,0v0.1v0.1v0.1v0.1v0.1c0,0,0,0,0,0.1v0.1l0,0l0,0c0,0,0,0,0,0.1
		s0,0,0,0.1c0,0,0,0,0,0.1c0,0,0,0,0,0.1V52c0,0,0,0,0,0.1s0,0,0,0.1s0,0,0,0.1c0,0,0,0,0,0.1c0,0,0,0,0,0.1v0.1c0,0,0,0,0,0.1v0.1
		c0,0,0,0,0,0.1v0.1v0.1v0.1l0,0v0.1l0,0l0,0h0.1h0.1h0.1h0.1h0.1h0.1h0.1h0.1l0,0h0.1h0.6h0.1h0.1h0.1h0.1h0.1h0.1h0.1h0.1h0.1
		l0.1,0h0.1l0.1,0l0,0v-0.1v-0.1c0,0,0,0,0-0.1v-0.1v-0.1c0,0,0,0,0-0.1v-0.1v-0.1l0,0l0,0c0,0,0,0,0-0.1c0,0,0,0,0-0.1
		c0,0,0,0,0-0.1s0,0,0-0.1v-0.2c0,0,0,0,0-0.1s0,0,0-0.1s0,0,0-0.1c0,0,0,0,0-0.1c0,0,0,0,0-0.1c0,0,0,0,0-0.1v-0.1v-0.1v-0.1v-0.1
		v-0.1V51l0,0l0,0v0l0,0l-0.1,0h-0.1h-0.1h-0.1h-0.1h-0.1h-0.1h-0.1l0,0h-0.1L106.8,50.8L106.8,50.8z"/>
	<path style="clip-path:url(#SVGID_00000062891914184049725850000007390574081146369972_);fill:#FFD740;" d="M106.8,50.8h-0.3h-0.1
		h-0.1h-0.1h-0.1h-0.1L106,51h-0.1h-0.1h-0.1l0,0h-0.1v0v0.1l0,0v0.1v0.1v0.1v0.1v0.1c0,0,0,0,0,0.1v0.1l0,0l0,0c0,0,0,0,0,0.1
		s0,0,0,0.1c0,0,0,0,0,0.1c0,0,0,0,0,0.1V52c0,0,0,0,0,0.1s0,0,0,0.1s0,0,0,0.1c0,0,0,0,0,0.1c0,0,0,0,0,0.1v0.1c0,0,0,0,0,0.1v0.1
		c0,0,0,0,0,0.1v0.1v0.1v0.1l0,0v0.1l0,0l0,0h0.1h0.1h0.1h0.1h0.1h0.1h0.1h0.1l0,0h0.1h0.6h0.1h0.1h0.1h0.1h0.1h0.1h0.1h0.1h0.1
		l0.1,0h0.1l0.1,0l0,0v-0.1v-0.1c0,0,0,0,0-0.1v-0.1v-0.1c0,0,0,0,0-0.1v-0.1v-0.1l0,0l0,0c0,0,0,0,0-0.1c0,0,0,0,0-0.1
		c0,0,0,0,0-0.1s0,0,0-0.1v-0.2c0,0,0,0,0-0.1s0,0,0-0.1s0,0,0-0.1c0,0,0,0,0-0.1c0,0,0,0,0-0.1c0,0,0,0,0-0.1v-0.1v-0.1v-0.1v-0.1
		v-0.1V51l0,0l0,0v0l0,0l-0.1,0h-0.1h-0.1h-0.1h-0.1h-0.1h-0.1h-0.1l0,0h-0.1L106.8,50.8L106.8,50.8z"/>
	<path style="clip-path:url(#SVGID_00000062891914184049725850000007390574081146369972_);fill:#FFD740;" d="M106.8,50.8h-0.3h-0.1
		h-0.1h-0.1h-0.1h-0.1L106,51h-0.1h-0.1h-0.1l0,0h-0.1v0v0.1l0,0v0.1v0.1v0.1v0.1v0.1c0,0,0,0,0,0.1v0.1l0,0l0,0c0,0,0,0,0,0.1
		s0,0,0,0.1c0,0,0,0,0,0.1c0,0,0,0,0,0.1V52c0,0,0,0,0,0.1s0,0,0,0.1s0,0,0,0.1c0,0,0,0,0,0.1c0,0,0,0,0,0.1v0.1c0,0,0,0,0,0.1v0.1
		c0,0,0,0,0,0.1v0.1v0.1v0.1l0,0v0.1l0,0l0,0h0.1h0.1h0.1h0.1h0.1h0.1h0.1h0.1l0,0h0.1h0.6h0.1h0.1h0.1h0.1h0.1h0.1h0.1h0.1h0.1
		l0.1,0h0.1l0.1,0l0,0v-0.1v-0.1c0,0,0,0,0-0.1v-0.1v-0.1c0,0,0,0,0-0.1v-0.1v-0.1l0,0l0,0c0,0,0,0,0-0.1c0,0,0,0,0-0.1
		c0,0,0,0,0-0.1s0,0,0-0.1v-0.2c0,0,0,0,0-0.1s0,0,0-0.1s0,0,0-0.1c0,0,0,0,0-0.1c0,0,0,0,0-0.1c0,0,0,0,0-0.1v-0.1v-0.1v-0.1v-0.1
		v-0.1V51l0,0l0,0v0l0,0l-0.1,0h-0.1h-0.1h-0.1h-0.1h-0.1h-0.1h-0.1l0,0h-0.1L106.8,50.8L106.8,50.8z"/>
	<path style="clip-path:url(#SVGID_00000062891914184049725850000007390574081146369972_);fill:#FFD740;" d="M106.8,50.8h-0.3h-0.1
		h-0.1h-0.1h-0.1h-0.1L106,51h-0.1h-0.1h-0.1l0,0h-0.1v0v0.1l0,0v0.1v0.1v0.1v0.1v0.1c0,0,0,0,0,0.1v0.1l0,0l0,0c0,0,0,0,0,0.1
		s0,0,0,0.1c0,0,0,0,0,0.1c0,0,0,0,0,0.1V52c0,0,0,0,0,0.1s0,0,0,0.1s0,0,0,0.1c0,0,0,0,0,0.1c0,0,0,0,0,0.1v0.1c0,0,0,0,0,0.1v0.1
		c0,0,0,0,0,0.1v0.1v0.1v0.1l0,0v0.1l0,0l0,0h0.1h0.1h0.1h0.1h0.1h0.1h0.1h0.1l0,0h0.1h0.6h0.1h0.1h0.1h0.1h0.1h0.1h0.1h0.1h0.1
		l0.1,0h0.1l0.1,0l0,0v-0.1v-0.1c0,0,0,0,0-0.1v-0.1v-0.1c0,0,0,0,0-0.1v-0.1v-0.1l0,0l0,0c0,0,0,0,0-0.1c0,0,0,0,0-0.1
		c0,0,0,0,0-0.1s0,0,0-0.1v-0.2c0,0,0,0,0-0.1s0,0,0-0.1s0,0,0-0.1c0,0,0,0,0-0.1c0,0,0,0,0-0.1c0,0,0,0,0-0.1v-0.1v-0.1v-0.1v-0.1
		v-0.1V51l0,0l0,0v0l0,0l-0.1,0h-0.1h-0.1h-0.1h-0.1h-0.1h-0.1h-0.1l0,0h-0.1L106.8,50.8L106.8,50.8z"/>
	<path style="clip-path:url(#SVGID_00000062891914184049725850000007390574081146369972_);fill:#FFD740;" d="M106.8,50.8h-0.3h-0.1
		h-0.1h-0.1h-0.1h-0.1L106,51h-0.1h-0.1h-0.1l0,0h-0.1v0v0.1l0,0v0.1v0.1v0.1v0.1v0.1c0,0,0,0,0,0.1v0.1l0,0l0,0c0,0,0,0,0,0.1
		s0,0,0,0.1c0,0,0,0,0,0.1c0,0,0,0,0,0.1V52c0,0,0,0,0,0.1s0,0,0,0.1s0,0,0,0.1c0,0,0,0,0,0.1c0,0,0,0,0,0.1v0.1c0,0,0,0,0,0.1v0.1
		c0,0,0,0,0,0.1v0.1v0.1v0.1l0,0v0.1l0,0l0,0h0.1h0.1h0.1h0.1h0.1h0.1h0.1h0.1l0,0h0.1h0.6h0.1h0.1h0.1h0.1h0.1h0.1h0.1h0.1h0.1
		l0.1,0h0.1l0.1,0l0,0v-0.1v-0.1c0,0,0,0,0-0.1v-0.1v-0.1c0,0,0,0,0-0.1v-0.1v-0.1l0,0l0,0c0,0,0,0,0-0.1c0,0,0,0,0-0.1
		c0,0,0,0,0-0.1s0,0,0-0.1v-0.2c0,0,0,0,0-0.1s0,0,0-0.1s0,0,0-0.1c0,0,0,0,0-0.1c0,0,0,0,0-0.1c0,0,0,0,0-0.1v-0.1v-0.1v-0.1v-0.1
		v-0.1V51l0,0l0,0v0l0,0l-0.1,0h-0.1h-0.1h-0.1h-0.1h-0.1h-0.1h-0.1l0,0h-0.1L106.8,50.8L106.8,50.8z"/>
	<path style="clip-path:url(#SVGID_00000062891914184049725850000007390574081146369972_);fill:#FFD740;" d="M106.8,50.8h-0.3h-0.1
		h-0.1h-0.1h-0.1h-0.1L106,51h-0.1h-0.1h-0.1l0,0h-0.1v0v0.1l0,0v0.1v0.1v0.1v0.1v0.1c0,0,0,0,0,0.1v0.1l0,0l0,0c0,0,0,0,0,0.1
		s0,0,0,0.1c0,0,0,0,0,0.1c0,0,0,0,0,0.1V52c0,0,0,0,0,0.1s0,0,0,0.1s0,0,0,0.1c0,0,0,0,0,0.1c0,0,0,0,0,0.1v0.1c0,0,0,0,0,0.1v0.1
		c0,0,0,0,0,0.1v0.1v0.1v0.1l0,0v0.1l0,0l0,0h0.1h0.1h0.1h0.1h0.1h0.1h0.1h0.1l0,0h0.1h0.6h0.1h0.1h0.1h0.1h0.1h0.1h0.1h0.1h0.1
		l0.1,0h0.1l0.1,0l0,0v-0.1v-0.1c0,0,0,0,0-0.1v-0.1v-0.1c0,0,0,0,0-0.1v-0.1v-0.1l0,0l0,0c0,0,0,0,0-0.1c0,0,0,0,0-0.1
		c0,0,0,0,0-0.1s0,0,0-0.1v-0.2c0,0,0,0,0-0.1s0,0,0-0.1s0,0,0-0.1c0,0,0,0,0-0.1c0,0,0,0,0-0.1c0,0,0,0,0-0.1v-0.1v-0.1v-0.1v-0.1
		v-0.1V51l0,0l0,0v0l0,0l-0.1,0h-0.1h-0.1h-0.1h-0.1h-0.1h-0.1h-0.1l0,0h-0.1L106.8,50.8L106.8,50.8z"/>
	<path style="clip-path:url(#SVGID_00000062891914184049725850000007390574081146369972_);fill:#FFD740;" d="M106.8,50.8h-0.3h-0.1
		h-0.1h-0.1h-0.1h-0.1L106,51h-0.1h-0.1h-0.1l0,0h-0.1v0v0.1l0,0v0.1v0.1v0.1v0.1v0.1c0,0,0,0,0,0.1v0.1l0,0l0,0c0,0,0,0,0,0.1
		s0,0,0,0.1c0,0,0,0,0,0.1c0,0,0,0,0,0.1V52c0,0,0,0,0,0.1s0,0,0,0.1s0,0,0,0.1c0,0,0,0,0,0.1c0,0,0,0,0,0.1v0.1c0,0,0,0,0,0.1v0.1
		c0,0,0,0,0,0.1v0.1v0.1v0.1l0,0v0.1l0,0l0,0h0.1h0.1h0.1h0.1h0.1h0.1h0.1h0.1l0,0h0.1h0.6h0.1h0.1h0.1h0.1h0.1h0.1h0.1h0.1h0.1
		l0.1,0h0.1l0.1,0l0,0v-0.1v-0.1c0,0,0,0,0-0.1v-0.1v-0.1c0,0,0,0,0-0.1v-0.1v-0.1l0,0l0,0c0,0,0,0,0-0.1c0,0,0,0,0-0.1
		c0,0,0,0,0-0.1s0,0,0-0.1v-0.2c0,0,0,0,0-0.1s0,0,0-0.1s0,0,0-0.1c0,0,0,0,0-0.1c0,0,0,0,0-0.1c0,0,0,0,0-0.1v-0.1v-0.1v-0.1v-0.1
		v-0.1V51l0,0l0,0v0l0,0l-0.1,0h-0.1h-0.1h-0.1h-0.1h-0.1h-0.1h-0.1l0,0h-0.1L106.8,50.8L106.8,50.8z"/>
	<path style="clip-path:url(#SVGID_00000062891914184049725850000007390574081146369972_);fill:#FFD740;" d="M106.8,50.8h-0.3h-0.1
		h-0.1h-0.1h-0.1h-0.1L106,51h-0.1h-0.1h-0.1l0,0h-0.1v0v0.1l0,0v0.1v0.1v0.1v0.1v0.1c0,0,0,0,0,0.1v0.1l0,0l0,0c0,0,0,0,0,0.1
		s0,0,0,0.1c0,0,0,0,0,0.1c0,0,0,0,0,0.1V52c0,0,0,0,0,0.1s0,0,0,0.1s0,0,0,0.1c0,0,0,0,0,0.1c0,0,0,0,0,0.1v0.1c0,0,0,0,0,0.1v0.1
		c0,0,0,0,0,0.1v0.1v0.1v0.1l0,0v0.1l0,0l0,0h0.1h0.1h0.1h0.1h0.1h0.1h0.1h0.1l0,0h0.1h0.6h0.1h0.1h0.1h0.1h0.1h0.1h0.1h0.1h0.1
		l0.1,0h0.1l0.1,0l0,0v-0.1v-0.1c0,0,0,0,0-0.1v-0.1v-0.1c0,0,0,0,0-0.1v-0.1v-0.1l0,0l0,0c0,0,0,0,0-0.1c0,0,0,0,0-0.1
		c0,0,0,0,0-0.1s0,0,0-0.1v-0.2c0,0,0,0,0-0.1s0,0,0-0.1s0,0,0-0.1c0,0,0,0,0-0.1c0,0,0,0,0-0.1c0,0,0,0,0-0.1v-0.1v-0.1v-0.1v-0.1
		v-0.1V51l0,0l0,0v0l0,0l-0.1,0h-0.1h-0.1h-0.1h-0.1h-0.1h-0.1h-0.1l0,0h-0.1L106.8,50.8L106.8,50.8z"/>
	<path style="clip-path:url(#SVGID_00000062891914184049725850000007390574081146369972_);fill:#FFD740;" d="M106.8,50.8h-0.3h-0.1
		h-0.1h-0.1h-0.1h-0.1L106,51h-0.1h-0.1h-0.1l0,0h-0.1v0v0.1l0,0v0.1v0.1v0.1v0.1v0.1c0,0,0,0,0,0.1v0.1l0,0l0,0c0,0,0,0,0,0.1
		s0,0,0,0.1c0,0,0,0,0,0.1c0,0,0,0,0,0.1V52c0,0,0,0,0,0.1s0,0,0,0.1s0,0,0,0.1c0,0,0,0,0,0.1c0,0,0,0,0,0.1v0.1c0,0,0,0,0,0.1v0.1
		c0,0,0,0,0,0.1v0.1v0.1v0.1l0,0v0.1l0,0l0,0h0.1h0.1h0.1h0.1h0.1h0.1h0.1h0.1l0,0h0.1h0.6h0.1h0.1h0.1h0.1h0.1h0.1h0.1h0.1h0.1
		l0.1,0h0.1l0.1,0l0,0v-0.1v-0.1c0,0,0,0,0-0.1v-0.1v-0.1c0,0,0,0,0-0.1v-0.1v-0.1l0,0l0,0c0,0,0,0,0-0.1c0,0,0,0,0-0.1
		c0,0,0,0,0-0.1s0,0,0-0.1v-0.2c0,0,0,0,0-0.1s0,0,0-0.1s0,0,0-0.1c0,0,0,0,0-0.1c0,0,0,0,0-0.1c0,0,0,0,0-0.1v-0.1v-0.1v-0.1v-0.1
		v-0.1V51l0,0l0,0v0l0,0l-0.1,0h-0.1h-0.1h-0.1h-0.1h-0.1h-0.1h-0.1l0,0h-0.1L106.8,50.8L106.8,50.8z"/>
	<path style="clip-path:url(#SVGID_00000062891914184049725850000007390574081146369972_);fill:#FFD740;" d="M106.8,50.8h-0.2h-0.1
		h-0.1h-0.1h-0.1h-0.1h-0.1L106,51h-0.1h-0.1h-0.1l0,0h-0.1v0v0.1l0,0v0.1v0.1v0.1v0.1v0.1c0,0,0,0,0,0.1v0.1l0,0l0,0c0,0,0,0,0,0.1
		s0,0,0,0.1c0,0,0,0,0,0.1c0,0,0,0,0,0.1v0.2c0,0,0,0,0,0.1s0,0,0,0.1s0,0,0,0.1c0,0,0,0,0,0.1c0,0,0,0,0,0.1v0.1c0,0,0,0,0,0.1v0.1
		v0.1v0.1c0,0,0,0,0,0.1l0,0v0.1l0,0l0,0c0,0,0,0,0,0h0.1h0.1h0.1h0.1h0.1h0.1h0.1h0.1h0.7h0.1h0.1h0.1h0.1h0.1h0.1h0.1h0.1h0.1
		l0.1,0h0.1l0.1,0l0,0v-0.1v-0.1c0,0,0,0,0-0.1v-0.1v-0.1c0,0,0,0,0-0.1v-0.1v-0.1l0,0l0,0c0,0,0,0,0-0.1c0,0,0,0,0-0.1
		c0,0,0,0,0-0.1s0,0,0-0.1v-0.2c0,0,0,0,0-0.1s0,0,0-0.1s0,0,0-0.1c0,0,0,0,0-0.1c0,0,0,0,0-0.1c0,0,0,0,0-0.1v-0.1v-0.1v-0.1v-0.1
		v-0.1V51l0,0l0,0v0l0,0l-0.1,0h-0.1h-0.1h-0.1h-0.1h-0.1h-0.1h-0.1l0,0h-0.1L106.8,50.8L106.8,50.8z"/>
	<path style="clip-path:url(#SVGID_00000062891914184049725850000007390574081146369972_);fill:#FFD740;" d="M106.8,50.8h-0.3h-0.1
		h-0.1h-0.1h-0.1h-0.1L106,51h-0.1h-0.1h-0.1l0,0h-0.1v0v0.1l0,0v0.1v0.1v0.1v0.1v0.1c0,0,0,0,0,0.1v0.1l0,0l0,0c0,0,0,0,0,0.1
		s0,0,0,0.1c0,0,0,0,0,0.1c0,0,0,0,0,0.1V52c0,0,0,0,0,0.1s0,0,0,0.1s0,0,0,0.1c0,0,0,0,0,0.1c0,0,0,0,0,0.1v0.1c0,0,0,0,0,0.1v0.1
		c0,0,0,0,0,0.1v0.1v0.1v0.1l0,0v0.1l0,0l0,0h0.1h0.1h0.1h0.1h0.1h0.1h0.1h0.1l0,0h0.1h0.6h0.1h0.1h0.1h0.1h0.1h0.1h0.1h0.1h0.1
		l0.1,0h0.1l0.1,0l0,0v-0.1v-0.1c0,0,0,0,0-0.1v-0.1v-0.1c0,0,0,0,0-0.1v-0.1v-0.1l0,0l0,0c0,0,0,0,0-0.1c0,0,0,0,0-0.1
		c0,0,0,0,0-0.1s0,0,0-0.1v-0.2c0,0,0,0,0-0.1s0,0,0-0.1s0,0,0-0.1c0,0,0,0,0-0.1c0,0,0,0,0-0.1c0,0,0,0,0-0.1v-0.1v-0.1v-0.1v-0.1
		v-0.1V51l0,0l0,0v0l0,0l-0.1,0h-0.1h-0.1h-0.1h-0.1h-0.1h-0.1h-0.1l0,0h-0.1L106.8,50.8L106.8,50.8z"/>
	<path style="clip-path:url(#SVGID_00000062891914184049725850000007390574081146369972_);fill:#FFD740;" d="M106.8,50.8h-0.3h-0.1
		h-0.1h-0.1h-0.1h-0.1L106,51h-0.1h-0.1h-0.1l0,0h-0.1v0v0.1l0,0v0.1v0.1v0.1v0.1v0.1c0,0,0,0,0,0.1v0.1l0,0l0,0c0,0,0,0,0,0.1
		s0,0,0,0.1c0,0,0,0,0,0.1c0,0,0,0,0,0.1V52c0,0,0,0,0,0.1s0,0,0,0.1s0,0,0,0.1c0,0,0,0,0,0.1c0,0,0,0,0,0.1v0.1c0,0,0,0,0,0.1v0.1
		c0,0,0,0,0,0.1v0.1v0.1v0.1l0,0v0.1l0,0l0,0h0.1h0.1h0.1h0.1h0.1h0.1h0.1h0.1l0,0h0.1h0.6h0.1h0.1h0.1h0.1h0.1h0.1h0.1h0.1h0.1
		l0.1,0h0.1l0.1,0l0,0v-0.1v-0.1c0,0,0,0,0-0.1v-0.1v-0.1c0,0,0,0,0-0.1v-0.1v-0.1l0,0l0,0c0,0,0,0,0-0.1c0,0,0,0,0-0.1
		c0,0,0,0,0-0.1s0,0,0-0.1v-0.2c0,0,0,0,0-0.1s0,0,0-0.1s0,0,0-0.1c0,0,0,0,0-0.1c0,0,0,0,0-0.1c0,0,0,0,0-0.1v-0.1v-0.1v-0.1v-0.1
		v-0.1V51l0,0l0,0v0l0,0l-0.1,0h-0.1h-0.1h-0.1h-0.1h-0.1h-0.1h-0.1l0,0h-0.1L106.8,50.8L106.8,50.8z"/>
	<path style="clip-path:url(#SVGID_00000062891914184049725850000007390574081146369972_);fill:#FFD740;" d="M106.8,50.8h-0.3h-0.1
		h-0.1h-0.1h-0.1h-0.1L106,51h-0.1h-0.1h-0.1l0,0h-0.1v0v0.1l0,0v0.1v0.1v0.1v0.1v0.1c0,0,0,0,0,0.1v0.1l0,0l0,0c0,0,0,0,0,0.1
		s0,0,0,0.1c0,0,0,0,0,0.1c0,0,0,0,0,0.1V52c0,0,0,0,0,0.1s0,0,0,0.1s0,0,0,0.1c0,0,0,0,0,0.1c0,0,0,0,0,0.1v0.1c0,0,0,0,0,0.1v0.1
		c0,0,0,0,0,0.1v0.1v0.1v0.1l0,0v0.1l0,0l0,0h0.1h0.1h0.1h0.1h0.1h0.1h0.1h0.1l0,0h0.1h0.6h0.1h0.1h0.1h0.1h0.1h0.1h0.1h0.1h0.1
		l0.1,0h0.1l0.1,0l0,0v-0.1v-0.1c0,0,0,0,0-0.1v-0.1v-0.1c0,0,0,0,0-0.1v-0.1v-0.1l0,0l0,0c0,0,0,0,0-0.1c0,0,0,0,0-0.1
		c0,0,0,0,0-0.1s0,0,0-0.1v-0.2c0,0,0,0,0-0.1s0,0,0-0.1s0,0,0-0.1c0,0,0,0,0-0.1c0,0,0,0,0-0.1c0,0,0,0,0-0.1v-0.1v-0.1v-0.1v-0.1
		v-0.1V51l0,0l0,0v0l0,0l-0.1,0h-0.1h-0.1h-0.1h-0.1h-0.1h-0.1h-0.1l0,0h-0.1L106.8,50.8L106.8,50.8z"/>
	<path style="clip-path:url(#SVGID_00000062891914184049725850000007390574081146369972_);fill:#FFD740;" d="M106.8,50.8h-0.3h-0.1
		h-0.1h-0.1h-0.1h-0.1L106,51h-0.1h-0.1h-0.1l0,0h-0.1v0v0.1l0,0v0.1v0.1v0.1v0.1v0.1c0,0,0,0,0,0.1v0.1l0,0l0,0c0,0,0,0,0,0.1
		s0,0,0,0.1c0,0,0,0,0,0.1c0,0,0,0,0,0.1V52c0,0,0,0,0,0.1s0,0,0,0.1s0,0,0,0.1c0,0,0,0,0,0.1c0,0,0,0,0,0.1v0.1c0,0,0,0,0,0.1v0.1
		c0,0,0,0,0,0.1v0.1v0.1v0.1l0,0v0.1l0,0l0,0h0.1h0.1h0.1h0.1h0.1h0.1h0.1h0.1l0,0h0.1h0.6h0.1h0.1h0.1h0.1h0.1h0.1h0.1h0.1h0.1
		l0.1,0h0.1l0.1,0l0,0v-0.1v-0.1c0,0,0,0,0-0.1v-0.1v-0.1c0,0,0,0,0-0.1v-0.1v-0.1l0,0l0,0c0,0,0,0,0-0.1c0,0,0,0,0-0.1
		c0,0,0,0,0-0.1s0,0,0-0.1v-0.2c0,0,0,0,0-0.1s0,0,0-0.1s0,0,0-0.1c0,0,0,0,0-0.1c0,0,0,0,0-0.1c0,0,0,0,0-0.1v-0.1v-0.1v-0.1v-0.1
		v-0.1V51l0,0l0,0v0l0,0l-0.1,0h-0.1h-0.1h-0.1h-0.1h-0.1h-0.1h-0.1l0,0h-0.1L106.8,50.8L106.8,50.8z"/>
	<path style="clip-path:url(#SVGID_00000062891914184049725850000007390574081146369972_);fill:#FFD740;" d="M106.8,50.8h-0.3h-0.1
		h-0.1h-0.1h-0.1h-0.1L106,51h-0.1h-0.1h-0.1l0,0h-0.1v0v0.1l0,0v0.1v0.1v0.1v0.1v0.1c0,0,0,0,0,0.1v0.1l0,0l0,0c0,0,0,0,0,0.1
		s0,0,0,0.1c0,0,0,0,0,0.1c0,0,0,0,0,0.1V52c0,0,0,0,0,0.1s0,0,0,0.1s0,0,0,0.1c0,0,0,0,0,0.1c0,0,0,0,0,0.1v0.1c0,0,0,0,0,0.1v0.1
		c0,0,0,0,0,0.1v0.1v0.1v0.1l0,0v0.1l0,0l0,0h0.1h0.1h0.1h0.1h0.1h0.1h0.1h0.1l0,0h0.1h0.6h0.1h0.1h0.1h0.1h0.1h0.1h0.1h0.1h0.1
		l0.1,0h0.1l0.1,0l0,0v-0.1v-0.1c0,0,0,0,0-0.1v-0.1v-0.1c0,0,0,0,0-0.1v-0.1v-0.1l0,0l0,0c0,0,0,0,0-0.1c0,0,0,0,0-0.1
		c0,0,0,0,0-0.1s0,0,0-0.1v-0.2c0,0,0,0,0-0.1s0,0,0-0.1s0,0,0-0.1c0,0,0,0,0-0.1c0,0,0,0,0-0.1c0,0,0,0,0-0.1v-0.1v-0.1v-0.1v-0.1
		v-0.1V51l0,0l0,0v0l0,0l-0.1,0h-0.1h-0.1h-0.1h-0.1h-0.1h-0.1h-0.1l0,0h-0.1L106.8,50.8L106.8,50.8z"/>
	<path style="clip-path:url(#SVGID_00000062891914184049725850000007390574081146369972_);fill:#FFD740;" d="M106.8,50.8h-0.3h-0.1
		h-0.1h-0.1h-0.1h-0.1L106,51h-0.1h-0.1h-0.1l0,0h-0.1v0v0.1l0,0v0.1v0.1v0.1v0.1v0.1c0,0,0,0,0,0.1v0.1l0,0l0,0c0,0,0,0,0,0.1
		s0,0,0,0.1c0,0,0,0,0,0.1c0,0,0,0,0,0.1V52c0,0,0,0,0,0.1s0,0,0,0.1s0,0,0,0.1c0,0,0,0,0,0.1c0,0,0,0,0,0.1v0.1c0,0,0,0,0,0.1v0.1
		c0,0,0,0,0,0.1v0.1v0.1v0.1l0,0v0.1l0,0l0,0h0.1h0.1h0.1h0.1h0.1h0.1h0.1h0.1l0,0h0.1h0.6h0.1h0.1h0.1h0.1h0.1h0.1h0.1h0.1h0.1
		l0.1,0h0.1l0.1,0l0,0v-0.1v-0.1c0,0,0,0,0-0.1v-0.1v-0.1c0,0,0,0,0-0.1v-0.1v-0.1l0,0l0,0c0,0,0,0,0-0.1c0,0,0,0,0-0.1
		c0,0,0,0,0-0.1s0,0,0-0.1v-0.2c0,0,0,0,0-0.1s0,0,0-0.1s0,0,0-0.1c0,0,0,0,0-0.1c0,0,0,0,0-0.1c0,0,0,0,0-0.1v-0.1v-0.1v-0.1v-0.1
		v-0.1V51l0,0l0,0v0l0,0l-0.1,0h-0.1h-0.1h-0.1h-0.1h-0.1h-0.1h-0.1l0,0h-0.1L106.8,50.8L106.8,50.8z"/>
	<path style="clip-path:url(#SVGID_00000062891914184049725850000007390574081146369972_);fill:#FFD740;" d="M106.8,50.8h-0.3h-0.1
		h-0.1h-0.1h-0.1h-0.1L106,51h-0.1h-0.1h-0.1l0,0h-0.1v0v0.1l0,0v0.1v0.1v0.1v0.1v0.1c0,0,0,0,0,0.1v0.1l0,0l0,0c0,0,0,0,0,0.1
		s0,0,0,0.1c0,0,0,0,0,0.1c0,0,0,0,0,0.1V52c0,0,0,0,0,0.1s0,0,0,0.1s0,0,0,0.1c0,0,0,0,0,0.1c0,0,0,0,0,0.1v0.1c0,0,0,0,0,0.1v0.1
		c0,0,0,0,0,0.1v0.1v0.1v0.1l0,0v0.1l0,0l0,0h0.1h0.1h0.1h0.1h0.1h0.1h0.1h0.1l0,0h0.1h0.6h0.1h0.1h0.1h0.1h0.1h0.1h0.1h0.1h0.1
		l0.1,0h0.1l0.1,0l0,0v-0.1v-0.1c0,0,0,0,0-0.1v-0.1v-0.1c0,0,0,0,0-0.1v-0.1v-0.1l0,0l0,0c0,0,0,0,0-0.1c0,0,0,0,0-0.1
		c0,0,0,0,0-0.1s0,0,0-0.1v-0.2c0,0,0,0,0-0.1s0,0,0-0.1s0,0,0-0.1c0,0,0,0,0-0.1c0,0,0,0,0-0.1c0,0,0,0,0-0.1v-0.1v-0.1v-0.1v-0.1
		v-0.1V51l0,0l0,0v0l0,0l-0.1,0h-0.1h-0.1h-0.1h-0.1h-0.1h-0.1h-0.1l0,0h-0.1L106.8,50.8L106.8,50.8z"/>
	<path style="clip-path:url(#SVGID_00000062891914184049725850000007390574081146369972_);fill:#FFD740;" d="M106.8,50.8h-0.3h-0.1
		h-0.1h-0.1h-0.1h-0.1L106,51h-0.1h-0.1h-0.1l0,0h-0.1v0v0.1l0,0v0.1v0.1v0.1v0.1v0.1c0,0,0,0,0,0.1v0.1l0,0l0,0c0,0,0,0,0,0.1
		s0,0,0,0.1c0,0,0,0,0,0.1c0,0,0,0,0,0.1V52c0,0,0,0,0,0.1s0,0,0,0.1s0,0,0,0.1c0,0,0,0,0,0.1c0,0,0,0,0,0.1v0.1c0,0,0,0,0,0.1v0.1
		c0,0,0,0,0,0.1v0.1v0.1v0.1l0,0v0.1l0,0l0,0h0.1h0.1h0.1h0.1h0.1h0.1h0.1h0.1l0,0h0.1h0.6h0.1h0.1h0.1h0.1h0.1h0.1h0.1h0.1h0.1
		l0.1,0h0.1l0.1,0l0,0v-0.1v-0.1c0,0,0,0,0-0.1v-0.1v-0.1c0,0,0,0,0-0.1v-0.1v-0.1l0,0l0,0c0,0,0,0,0-0.1c0,0,0,0,0-0.1
		c0,0,0,0,0-0.1s0,0,0-0.1v-0.2c0,0,0,0,0-0.1s0,0,0-0.1s0,0,0-0.1c0,0,0,0,0-0.1c0,0,0,0,0-0.1c0,0,0,0,0-0.1v-0.1v-0.1v-0.1v-0.1
		v-0.1V51l0,0l0,0v0l0,0l-0.1,0h-0.1h-0.1h-0.1h-0.1h-0.1h-0.1h-0.1l0,0h-0.1L106.8,50.8L106.8,50.8z"/>
	<path style="clip-path:url(#SVGID_00000062891914184049725850000007390574081146369972_);fill:#FFD740;" d="M106.8,50.8h-0.3h-0.1
		h-0.1h-0.1h-0.1h-0.1L106,51h-0.1h-0.1h-0.1l0,0h-0.1v0v0.1l0,0v0.1v0.1v0.1v0.1v0.1c0,0,0,0,0,0.1v0.1l0,0l0,0c0,0,0,0,0,0.1
		s0,0,0,0.1c0,0,0,0,0,0.1c0,0,0,0,0,0.1V52c0,0,0,0,0,0.1s0,0,0,0.1s0,0,0,0.1c0,0,0,0,0,0.1c0,0,0,0,0,0.1v0.1c0,0,0,0,0,0.1v0.1
		c0,0,0,0,0,0.1v0.1v0.1v0.1l0,0v0.1l0,0l0,0h0.1h0.1h0.1h0.1h0.1h0.1h0.1h0.1l0,0h0.1h0.6h0.1h0.1h0.1h0.1h0.1h0.1h0.1h0.1h0.1
		l0.1,0h0.1l0.1,0l0,0v-0.1v-0.1c0,0,0,0,0-0.1v-0.1v-0.1c0,0,0,0,0-0.1v-0.1v-0.1l0,0l0,0c0,0,0,0,0-0.1c0,0,0,0,0-0.1
		c0,0,0,0,0-0.1s0,0,0-0.1v-0.2c0,0,0,0,0-0.1s0,0,0-0.1s0,0,0-0.1c0,0,0,0,0-0.1c0,0,0,0,0-0.1c0,0,0,0,0-0.1v-0.1v-0.1v-0.1v-0.1
		v-0.1V51l0,0l0,0v0l0,0l-0.1,0h-0.1h-0.1h-0.1h-0.1h-0.1h-0.1h-0.1l0,0h-0.1L106.8,50.8L106.8,50.8z"/>
	<path style="clip-path:url(#SVGID_00000062891914184049725850000007390574081146369972_);fill:#1A1A1A;" d="M107.6,88.1
		c5.4,0,9.8,4.3,9.8,9.7c0,0,0,0,0,0.1v4.9c0.2,5.4-4.1,9.9-9.5,10.1c-5.4,0.2-9.9-4.1-10.1-9.5c0-0.2,0-0.4,0-0.6v-4.9
		C97.8,92.5,102.2,88.1,107.6,88.1C107.6,88.1,107.6,88.1,107.6,88.1z"/>
	<path style="clip-path:url(#SVGID_00000062891914184049725850000007390574081146369972_);fill:#FFFFFF;" d="M101.9,95.1
		c0-1.7,1.4-3.2,3.2-3.2c1.7,0,3.2,1.4,3.2,3.2c0,1.7-1.4,3.2-3.2,3.2c-0.8,0-1.6-0.3-2.2-0.9C102.3,96.7,101.9,95.9,101.9,95.1z"/>
	<path style="clip-path:url(#SVGID_00000062891914184049725850000007390574081146369972_);fill:#1A1A1A;" d="M67.2,88.1
		c5.4,0,9.8,4.4,9.8,9.8c0,0,0,0,0,0v4.9c0.2,5.4-4.1,9.9-9.5,10.1c-5.4,0.2-9.9-4.1-10.1-9.5c0-0.2,0-0.4,0-0.6v-4.9
		C57.4,92.5,61.8,88.1,67.2,88.1C67.2,88.1,67.2,88.1,67.2,88.1L67.2,88.1z"/>
	<path style="clip-path:url(#SVGID_00000062891914184049725850000007390574081146369972_);fill:#FFFFFF;" d="M61.6,95.1
		c0-1.7,1.4-3.1,3.1-3.1c1.7,0,3.1,1.4,3.1,3.1s-1.4,3.1-3.1,3.1c-0.8,0-1.6-0.3-2.2-0.9C61.9,96.7,61.6,95.9,61.6,95.1z"/>
	<path style="clip-path:url(#SVGID_00000062891914184049725850000007390574081146369972_);fill:#AF1739;" d="M73.2,118.1
		c-1.7,0-3,1.3-3,3v3.4c0.2,9.5,8.1,17.1,17.7,16.8c9.2-0.2,16.6-7.6,16.8-16.8v-3.4c0-1.7-1.3-3-3-3H73.2z"/>
	<path style="clip-path:url(#SVGID_00000062891914184049725850000007390574081146369972_);fill:#EB5775;" d="M87.4,129.9
		c-5,0-9.7,2.2-13,5.9c6.3,7.2,17.2,7.9,24.4,1.6c0.6-0.5,1.1-1.1,1.6-1.6C97.2,132,92.4,129.8,87.4,129.9z"/>
	<path style="clip-path:url(#SVGID_00000062891914184049725850000007390574081146369972_);fill:#FFFFFF;" d="M73.2,118.1
		c-1.7,0-3,1.3-3,3v3c10.9,5.2,23.6,5.2,34.5,0v-3c0-1.7-1.3-3-3-3H73.2z"/>
	<path style="clip-path:url(#SVGID_00000062891914184049725850000007390574081146369972_);fill:#BADBE9;" d="M100.1,118.1v4.6
		c0,1.7-0.2,2.8-1.4,3.6c2.1-0.6,4.1-1.3,6-2.3v-3c0-1.7-1.3-3-3-3L100.1,118.1z"/>
	<path style="clip-path:url(#SVGID_00000062891914184049725850000007390574081146369972_);fill:#BADBE9;" d="M73.2,118.1
		c-1.7,0-3,1.3-3,3v3c3.7,1.8,7.7,2.9,11.8,3.5c-2-0.5-2.6-2.6-2.6-4.9v-4.6H73.2z"/>
	<path style="clip-path:url(#SVGID_00000062891914184049725850000007390574081146369972_);fill:#8BB0CC;" d="M74.8,118.1v4.6
		c0,1.7,0.2,2.8,1.4,3.6c-2.1-0.6-4.1-1.3-6-2.3v-3c0-1.7,1.3-3,3-3L74.8,118.1z"/>
	<path style="clip-path:url(#SVGID_00000062891914184049725850000007390574081146369972_);fill:#1A1A1A;" d="M73.2,117.1
		c-2.2,0-3.9,1.8-3.9,3.9v3.4c0.2,10.1,8.6,18,18.6,17.8c9.7-0.2,17.6-8.1,17.8-17.8v-3.4c0-2.2-1.8-3.9-3.9-3.9H73.2z M101.7,119
		c1.1,0,2,0.9,2,2v3.4c-0.2,9-7.7,16.1-16.7,15.9c-8.7-0.2-15.7-7.2-15.9-15.9V121c0-1.1,0.9-2,2-2H101.7z"/>
	<path style="clip-path:url(#SVGID_00000062891914184049725850000007390574081146369972_);fill:#1A1A1A;" d="M104.9,123.5
		c-11,5.4-23.8,5.4-34.8,0l-0.4,0.8c11.3,5.5,24.4,5.5,35.7,0L104.9,123.5z"/>
	<path style="clip-path:url(#SVGID_00000062891914184049725850000007390574081146369972_);fill:#F293A2;" d="M89.3,134.5
		c0-0.6,0.4-1.1,0.8-1.4c0.6-0.4,1.3-0.6,2-0.6c1.6,0,2.9,0.9,2.9,2s-1.3,2-2.9,2c-0.7,0-1.4-0.2-2-0.6
		C89.7,135.6,89.4,135,89.3,134.5L89.3,134.5z"/>
	<path style="clip-path:url(#SVGID_00000062891914184049725850000007390574081146369972_);fill:#1A1A1A;" d="M151.6,123.3
		c-5,0-9,4-9,9s4,9,9,9l0,0v-5.7c-1.8,0-3.3-1.5-3.3-3.3s1.5-3.3,3.3-3.3C151.6,129,151.6,123.3,151.6,123.3z"/>
	<path style="clip-path:url(#SVGID_00000062891914184049725850000007390574081146369972_);fill:#1A1A1A;" d="M151.6,111
		c-5,0-9,4-9,9s4,9,9,9v-5.7c-1.8,0-3.3-1.5-3.3-3.3c0-1.8,1.5-3.3,3.3-3.3h12.3c8.6,0,15.6,7,15.6,15.6s-7,15.6-15.6,15.6h-12.3
		c-1.8,0-3.3-1.5-3.3-3.3s1.5-3.3,3.3-3.3v-5.7c-5,0-9,4-9,9s4,9,9,9h12.3c11.8,0,21.3-9.5,21.3-21.3c0-11.8-9.5-21.3-21.3-21.3
		c0,0,0,0,0,0L151.6,111z"/>
	<path style="clip-path:url(#SVGID_00000062891914184049725850000007390574081146369972_);fill:#1A1A1A;" d="M166.8,96.1
		c-4.8,1.3-7.6,6.2-6.4,11l3.2,11.9c1.5,4.7,6.5,7.4,11.3,5.9c4.5-1.4,7.2-6,6.1-10.6l-3.2-11.9C176.5,97.7,171.6,94.9,166.8,96.1
		L166.8,96.1z M168.3,101.6c1.7-0.5,3.5,0.5,4,2.3c0,0,0,0,0,0.1l3.2,11.9c0.6,1.7-0.4,3.6-2.1,4.1s-3.6-0.4-4.1-2.1
		c0-0.1-0.1-0.2-0.1-0.3l-3.2-11.9c-0.5-1.7,0.5-3.5,2.3-4C168.2,101.7,168.2,101.7,168.3,101.6L168.3,101.6z"/>
	<path style="clip-path:url(#SVGID_00000062891914184049725850000007390574081146369972_);fill:#C0C0C0;" d="M167.5,98.9
		c3.3-0.9,6.6,1.1,7.5,4.3c0,0,0,0,0,0l3.2,11.9c0.9,3.3-1,6.7-4.2,7.6c-3.3,0.9-6.7-1-7.6-4.2c0-0.1,0-0.1-0.1-0.2l-3.2-11.9
		C162.3,103.1,164.2,99.8,167.5,98.9C167.5,98.9,167.5,98.9,167.5,98.9z"/>
	<path style="clip-path:url(#SVGID_00000062891914184049725850000007390574081146369972_);fill:#1A1A1A;" d="M167.3,98
		c-3.8,1-6,4.9-5,8.7l3.2,11.9c0.9,3.8,4.8,6.2,8.6,5.2c3.8-0.9,6.2-4.8,5.2-8.6c0-0.1-0.1-0.2-0.1-0.4L176,103
		C175,99.2,171.1,97,167.3,98L167.3,98z M167.8,99.8c2.8-0.8,5.6,0.9,6.3,3.6c0,0,0,0,0,0l3.2,11.9c0.7,2.8-0.9,5.6-3.7,6.4
		s-5.6-0.9-6.4-3.7l0,0l-3.2-11.9C163.4,103.5,165,100.6,167.8,99.8C167.7,99.9,167.8,99.8,167.8,99.8z"/>
	<path style="clip-path:url(#SVGID_00000062891914184049725850000007390574081146369972_);fill:#FFFFFF;" d="M163.9,150.7
		c10.2,0,18.4-8.3,18.4-18.4s-8.3-18.5-18.4-18.5l0,0h-12.3c-3.4,0-6.1,2.8-6.1,6.2s2.8,6.2,6.1,6.2c-3.4,0-6.2,2.7-6.2,6.1
		s2.7,6.2,6.1,6.2c0,0,0,0,0,0c-3.4,0-6.1,2.8-6.1,6.1c0,3.4,2.8,6.2,6.1,6.2H163.9z"/>
	<path style="clip-path:url(#SVGID_00000062891914184049725850000007390574081146369972_);fill:#C0C0C0;" d="M154.9,113.8
		c10.2,0,18.4,8.3,18.4,18.5c0,10.2-8.3,18.4-18.4,18.4h8.9c10.2,0,18.4-8.3,18.4-18.4s-8.3-18.5-18.4-18.5L154.9,113.8z"/>
	<path style="clip-path:url(#SVGID_00000062891914184049725850000007390574081146369972_);fill:#1A1A1A;" d="M151.6,125.2
		c-3.9,0-7.1,3.2-7.1,7.1c0,3.9,3.2,7.1,7.1,7.1v-1.9c-2.9,0-5.2-2.3-5.2-5.2c0-2.9,2.3-5.2,5.2-5.2V125.2z"/>
	<path style="clip-path:url(#SVGID_00000062891914184049725850000007390574081146369972_);fill:#1A1A1A;" d="M151.6,112.9
		c-3.9,0-7.1,3.2-7.1,7.1c0,3.9,3.2,7.1,7.1,7.1c0,0,0,0,0,0v-1.9c-2.9,0-5.2-2.3-5.2-5.2c0-2.9,2.3-5.2,5.2-5.2h12.3
		c9.7,0,17.5,7.8,17.5,17.5s-7.8,17.5-17.5,17.5h-12.3c-2.9,0-5.2-2.3-5.2-5.2c0-2.9,2.3-5.2,5.2-5.2v-1.9c-3.9,0-7.1,3.2-7.1,7.1
		c0,3.9,3.2,7.1,7.1,7.1h12.3c10.7,0,19.4-8.7,19.4-19.4s-8.7-19.4-19.4-19.4H151.6z"/>
	
		<rect x="162.9" y="119.1" style="clip-path:url(#SVGID_00000062891914184049725850000007390574081146369972_);fill:#1A1A1A;" width="1.9" height="26.4"/>
	<path style="clip-path:url(#SVGID_00000062891914184049725850000007390574081146369972_);fill:#53B582;" d="M44.9,0h-29h-16v16
		c0,7,0,14,0,21c10.3,12.4,28.6,14.1,41,3.8c6.7-5.6,10.6-13.8,10.5-22.5C51.4,11.6,49.1,5.2,44.9,0z"/>
	<g style="clip-path:url(#SVGID_00000062891914184049725850000007390574081146369972_);enable-background:new    ;">
		<text transform="matrix(1 0 0 1 15.49 31.75)" class="st33 st3 st34">11</text>
	</g>
</g>
</svg>
