<?xml version="1.0" encoding="utf-8"?>
<!-- Generator: Adobe Illustrator 26.0.3, SVG Export Plug-In . SVG Version: 6.00 Build 0)  -->
<svg version="1.1" id="Слой_1" xmlns="http://www.w3.org/2000/svg" xmlns:xlink="http://www.w3.org/1999/xlink" x="0px" y="0px"
	 viewBox="0 0 195.6 280.6" style="enable-background:new 0 0 195.6 280.6;" xml:space="preserve">
<style type="text/css">
	.st0{clip-path:url(#SVGID_00000052088016442895359900000007542775233533679262_);fill:#EB5A53;}
	.st1{clip-path:url(#SVGID_00000052088016442895359900000007542775233533679262_);fill:#FFFFFF;}
	.st2{clip-path:url(#SVGID_00000052088016442895359900000007542775233533679262_);fill:#1A1A1A;}
	.st3{clip-path:url(#SVGID_00000052088016442895359900000007542775233533679262_);fill:#AF1739;}
	.st4{clip-path:url(#SVGID_00000052088016442895359900000007542775233533679262_);fill:#EB5775;}
	.st5{clip-path:url(#SVGID_00000052088016442895359900000007542775233533679262_);fill:#BADBE9;}
	.st6{clip-path:url(#SVGID_00000052088016442895359900000007542775233533679262_);fill:#8BB0CC;}
	.st7{clip-path:url(#SVGID_00000052088016442895359900000007542775233533679262_);fill:#F293A2;}
	.st8{fill:#EB5A53;}
	.st9{font-family:'Impact';}
	.st10{font-size:34px;}
	.st11{clip-path:url(#SVGID_00000052088016442895359900000007542775233533679262_);enable-background:new    ;}
	.st12{fill:#FFFFFF;}
	.st13{font-size:20px;}
</style>
<g>
	<defs>
		<rect id="SVGID_1_" x="0" y="0" width="195.6" height="280.6"/>
	</defs>
	<clipPath id="SVGID_00000103973759504538997510000007848764770239998891_">
		<use xlink:href="#SVGID_1_"  style="overflow:visible;"/>
	</clipPath>
	
		<rect x="-14.4" y="-18.7" style="clip-path:url(#SVGID_00000103973759504538997510000007848764770239998891_);fill:#EB5A53;" width="228.4" height="310.4"/>
	<path style="clip-path:url(#SVGID_00000103973759504538997510000007848764770239998891_);fill:#FFFFFF;" d="M110.1,80.2
		c-2.3,0-5.5-0.9-8-5c-1-1.8-1.8-3.7-2.3-5.7c-0.1-0.3-0.2-0.6-0.2-0.9c-0.6,0-1.3,0-1.9,0s-1.3,0-1.9,0c-0.1,0.3-0.2,0.6-0.2,0.9
		c-0.5,2-1.3,3.9-2.3,5.7c-2.5,4.1-5.7,5-7.9,5s-5.5-0.9-8-5c-1-1.8-1.8-3.7-2.3-5.7c-0.7-2.6-1.2-5.3-1.5-8
		c-6.3-4.2-11.5-9.9-15-16.6c-0.7,0.2-1.4,0.3-2.1,0.3c-1.1,0-2.2-0.2-3.2-0.6c-2.1-0.9-4.7-2.9-5.4-7.7c-0.3-2-0.3-4.1,0-6.1
		c0.5-4.1,1.6-8.2,3.2-12c1-2.6,2.5-4.9,4.5-6.9c7.1-23.3,31.7-36.4,55-29.4c13.7,4.2,24.5,14.7,29,28.4c2.9,1.9,5,5.1,6.4,9.5
		c1.2,4,1.8,8.1,1.9,12.3c0.1,2-0.1,4.1-0.6,6.1c-1.2,4.7-4,6.4-6.2,7.1c-0.8,0.2-1.6,0.4-2.4,0.4c-0.8,0-1.6-0.1-2.4-0.3
		c-3.5,6.3-8.5,11.7-14.5,15.7c-0.3,2.7-0.8,5.4-1.5,8c-0.5,2-1.3,3.9-2.3,5.7C115.6,79.3,112.4,80.2,110.1,80.2z"/>
	<path style="clip-path:url(#SVGID_00000103973759504538997510000007848764770239998891_);fill:#EB5A53;" d="M105.2,58.1
		c0-6.6,2.9-7.9,4.9-7.9s4.9,1.3,4.9,7.9s-2.2,16-4.9,16S105.2,64.7,105.2,58.1z"/>
	<path style="clip-path:url(#SVGID_00000103973759504538997510000007848764770239998891_);fill:#1A1A1A;" d="M110.2,48.8
		c-1.6,0-3.2,0.7-4.3,2c-1.3,1.5-2,3.8-2,7.3c0,3.7,0.5,7.3,1.5,10.8c0.4,1.5,1,2.9,1.7,4.3c0.7,1.2,1.6,2.2,3.1,2.2
		s2.4-1.1,3.1-2.2c0.8-1.3,1.4-2.8,1.8-4.3c1-3.5,1.5-7.2,1.5-10.8c0-3.5-0.8-5.8-2-7.3C113.4,49.6,111.9,48.8,110.2,48.8
		L110.2,48.8z M110.2,51.6c0.8,0,1.6,0.3,2.2,1c0.7,0.8,1.4,2.5,1.4,5.5c0,3.4-0.5,6.8-1.4,10.1c-0.3,1.3-0.8,2.5-1.4,3.6
		c-0.2,0.3-0.4,0.6-0.7,0.9c-0.3-0.2-0.6-0.5-0.7-0.9c-0.6-1.1-1.1-2.4-1.4-3.6c-0.9-3.3-1.4-6.7-1.4-10.1c0-3.1,0.7-4.7,1.4-5.5
		C108.5,51.9,109.3,51.6,110.2,51.6L110.2,51.6z"/>
	<path style="clip-path:url(#SVGID_00000103973759504538997510000007848764770239998891_);fill:#EB5A53;" d="M80.4,58.1
		c0-6.6,2.9-7.9,4.9-7.9s4.9,1.3,4.9,7.9s-2.2,16-4.9,16S80.4,64.7,80.4,58.1z"/>
	<path style="clip-path:url(#SVGID_00000103973759504538997510000007848764770239998891_);fill:#1A1A1A;" d="M85.3,48.8
		c-1.6,0-3.2,0.7-4.3,2c-1.3,1.5-2,3.8-2,7.3c0,3.7,0.5,7.3,1.5,10.8c0.4,1.5,1,2.9,1.7,4.3c0.7,1.2,1.6,2.2,3.1,2.2
		s2.4-1.1,3.1-2.2c0.8-1.3,1.3-2.8,1.7-4.3c1-3.5,1.5-7.2,1.5-10.8c0-3.5-0.8-5.8-2-7.3C88.5,49.6,87,48.8,85.3,48.8L85.3,48.8z
		 M85.3,51.6c0.8,0,1.6,0.3,2.2,1c0.7,0.8,1.4,2.5,1.4,5.5c0,3.4-0.5,6.8-1.4,10.1c-0.3,1.3-0.8,2.5-1.4,3.6
		c-0.2,0.3-0.4,0.6-0.7,0.9c-0.3-0.2-0.6-0.5-0.7-0.9c-0.6-1.1-1.1-2.4-1.4-3.6c-0.9-3.3-1.4-6.7-1.4-10.1c0-3.1,0.7-4.7,1.4-5.5
		C83.6,51.9,84.4,51.6,85.3,51.6L85.3,51.6z"/>
	<path style="clip-path:url(#SVGID_00000103973759504538997510000007848764770239998891_);fill:#EB5A53;" d="M130,25.3
		c-1.9-6.3,0.5-8.4,2.4-9s5.1-0.2,7,6.1s2.5,16-0.1,16.7S131.9,31.7,130,25.3z"/>
	<path style="clip-path:url(#SVGID_00000103973759504538997510000007848764770239998891_);fill:#1A1A1A;" d="M132,15.8
		c-1.6,0.5-2.9,1.6-3.5,3.1c-0.8,1.8-0.8,4.2,0.2,7.6c1.1,3.5,2.6,6.9,4.6,10c0.8,1.3,1.8,2.5,2.9,3.6c1,0.9,2.2,1.7,3.6,1.2
		s2-1.7,2.3-3c0.3-1.5,0.5-3,0.4-4.6c-0.1-3.7-0.7-7.3-1.7-10.8c-1-3.4-2.4-5.4-4.1-6.4C135.3,15.6,133.6,15.4,132,15.8L132,15.8z
		 M132.8,18.4c0.8-0.3,1.7-0.2,2.4,0.3c0.9,0.6,2,1.9,2.9,4.9c1,3.3,1.5,6.7,1.6,10.1c0.1,1.3-0.1,2.6-0.3,3.9
		c-0.1,0.4-0.2,0.7-0.4,1c-0.4-0.1-0.7-0.3-1-0.6c-0.9-0.9-1.7-1.9-2.4-3c-1.8-2.9-3.2-6-4.3-9.3c-0.9-3-0.7-4.7-0.3-5.7
		C131.3,19.1,131.9,18.5,132.8,18.4L132.8,18.4z"/>
	<path style="clip-path:url(#SVGID_00000103973759504538997510000007848764770239998891_);fill:#EB5A53;" d="M57.4,22.2
		c2.5-6.1,5.7-6.2,7.6-5.4s4,3.1,1.5,9.2s-8.2,13.9-10.7,12.9S54.8,28.3,57.4,22.2z"/>
	<path style="clip-path:url(#SVGID_00000103973759504538997510000007848764770239998891_);fill:#1A1A1A;" d="M65.5,15.5
		c-1.5-0.6-3.2-0.6-4.7,0.2c-1.7,0.9-3.3,2.8-4.7,6c-1.4,3.4-2.3,7-2.8,10.6c-0.2,1.5-0.2,3.1-0.1,4.6c0.2,1.3,0.6,2.7,2,3.2
		s2.7-0.1,3.7-0.9c1.2-0.9,2.3-2,3.2-3.3c2.2-2.9,4.1-6.1,5.5-9.5c1.3-3.2,1.5-5.7,0.9-7.5C68.2,17.4,67,16.2,65.5,15.5L65.5,15.5z
		 M64.5,18c0.8,0.3,1.4,0.9,1.6,1.8c0.3,1,0.3,2.8-0.8,5.7c-1.3,3.1-3.1,6.1-5.2,8.8c-0.8,1-1.7,2-2.7,2.8c-0.3,0.2-0.6,0.4-1,0.5
		c-0.2-0.3-0.4-0.7-0.4-1.1c-0.1-1.3-0.1-2.6,0.1-3.9c0.4-3.4,1.3-6.7,2.6-9.9c1.2-2.9,2.5-4.1,3.4-4.6C62.8,17.7,63.7,17.7,64.5,18
		L64.5,18z"/>
	<path style="clip-path:url(#SVGID_00000103973759504538997510000007848764770239998891_);fill:#1A1A1A;" d="M97.7-13.1
		c-21.3,0-38.5,17.2-38.5,38.5S76.5,64,97.7,64s38.5-17.2,38.5-38.5c0,0,0,0,0,0C136.2,4.2,119-13,97.7-13.1z M97.7-8.7
		c18.8,0,34.1,15.3,34.1,34.1s-15.3,34.1-34.1,34.1S63.6,44.3,63.6,25.5C63.6,6.6,78.8-8.7,97.7-8.7C97.7-8.7,97.7-8.7,97.7-8.7z"/>
	<path style="clip-path:url(#SVGID_00000103973759504538997510000007848764770239998891_);fill:#EB5A53;" d="M133.5,24.6
		c0,1.5-0.2,19.1-10.4,24c-7.3,3.5-11.3-3.3-26.1-3.1c-13.8,0.2-17.5,6.4-24.3,3.1c-10.2-4.8-10.4-22.5-10.4-24
		c0-2.1,0.2-18.5,10.4-24c6-3.2,9.1,0.8,24,0.9C113,1.7,116.5-3,123.1,0.6C133.3,6.2,133.5,22.5,133.5,24.6z"/>
	<path style="clip-path:url(#SVGID_00000103973759504538997510000007848764770239998891_);fill:#FFFFFF;" d="M98.1-10.2
		c-15.6,0-29.4,9.8-34.6,24.5h69.2C127.5-0.3,113.7-10.2,98.1-10.2z"/>
	<path style="clip-path:url(#SVGID_00000103973759504538997510000007848764770239998891_);fill:#FFFFFF;" d="M96.2-9.4
		c-14.8,0-27.9,9.6-32.3,23.7h64.7C124,0.2,111-9.3,96.2-9.4z"/>
	<path style="clip-path:url(#SVGID_00000103973759504538997510000007848764770239998891_);fill:#FFFFFF;" d="M63.2,38.1
		C67,45.4,72.8,51.5,80,55.6c5.5,3.3,11.8,5.1,18.2,5.2c3.4,0,6.9-0.4,10.2-1.4c6.6-2,12.4-5.9,16.8-11.2c2.6-3,4.7-6.4,6.2-10.1
		L63.2,38.1z"/>
	<path style="clip-path:url(#SVGID_00000103973759504538997510000007848764770239998891_);fill:#FFFFFF;" d="M65.1,38.1
		c8.1,17.7,29,25.5,46.7,17.4c7.7-3.5,13.9-9.7,17.4-17.4H65.1z"/>
	<path style="clip-path:url(#SVGID_00000103973759504538997510000007848764770239998891_);fill:#1A1A1A;" d="M97.7-11.4
		c-20.4,0-36.9,16.5-36.9,36.9c0,20.4,16.5,36.9,36.9,36.9c20.4,0,36.9-16.5,36.9-36.9c0,0,0,0,0,0C134.6,5.1,118.1-11.4,97.7-11.4z
		 M97.7-10.3c19.8,0,35.8,16,35.8,35.7c0,19.8-16,35.8-35.7,35.8c-19.8,0-35.8-16-35.8-35.7c0,0,0,0,0,0C62,5.7,78-10.3,97.7-10.3z"
		/>
	<path style="clip-path:url(#SVGID_00000103973759504538997510000007848764770239998891_);fill:#1A1A1A;" d="M109.4,12.3
		c3.1,0,5.6,2.5,5.7,5.6c0,0,0,0.1,0,0.1v2.8c0,3.1-2.5,5.7-5.7,5.7c-3.1,0-5.7-2.5-5.7-5.7c0,0,0,0,0,0V18
		C103.7,14.9,106.3,12.3,109.4,12.3C109.4,12.3,109.4,12.3,109.4,12.3L109.4,12.3z"/>
	<path style="clip-path:url(#SVGID_00000103973759504538997510000007848764770239998891_);fill:#FFFFFF;" d="M106.1,16.4
		c0-1,0.8-1.8,1.8-1.8s1.8,0.8,1.8,1.8c0,1-0.8,1.8-1.8,1.8c-0.5,0-0.9-0.2-1.3-0.5C106.3,17.3,106.1,16.8,106.1,16.4z"/>
	<path style="clip-path:url(#SVGID_00000103973759504538997510000007848764770239998891_);fill:#1A1A1A;" d="M86.1,12.3
		c3.1,0,5.6,2.5,5.7,5.6c0,0,0,0.1,0,0.1v2.8c0.1,3.1-2.3,5.8-5.4,5.9s-5.8-2.3-5.9-5.4c0-0.2,0-0.3,0-0.5V18
		C80.4,14.9,82.9,12.4,86.1,12.3C86,12.3,86,12.3,86.1,12.3L86.1,12.3z"/>
	<path style="clip-path:url(#SVGID_00000103973759504538997510000007848764770239998891_);fill:#FFFFFF;" d="M82.8,16.4
		c0.1-1,1-1.8,2-1.7c0.9,0.1,1.6,0.8,1.7,1.7c0,0.5-0.2,1-0.5,1.3c-0.7,0.7-1.9,0.7-2.6,0C83,17.3,82.8,16.8,82.8,16.4z"/>
	<path style="clip-path:url(#SVGID_00000103973759504538997510000007848764770239998891_);fill:#AF1739;" d="M91.7,28.1
		c-0.7,0-1.3,0.6-1.3,1.2c0,0,0,0,0,0v1.4c0,4,3.3,7.3,7.3,7.3c4,0,7.3-3.3,7.3-7.3c0,0,0,0,0,0v-1.4c0-0.7-0.5-1.3-1.2-1.3
		c0,0,0,0,0,0L91.7,28.1z"/>
	<path style="clip-path:url(#SVGID_00000103973759504538997510000007848764770239998891_);fill:#EB5775;" d="M97.7,33.1
		c-2.1,0-4.1,0.9-5.5,2.5c2.6,3,7.2,3.4,10.3,0.7c0.3-0.2,0.5-0.5,0.7-0.7C101.9,34,99.9,33.1,97.7,33.1L97.7,33.1z"/>
	<path style="clip-path:url(#SVGID_00000103973759504538997510000007848764770239998891_);fill:#FFFFFF;" d="M91.7,28.1
		c-0.7,0-1.3,0.6-1.3,1.2c0,0,0,0,0,0v1.3c4.6,2.2,10,2.2,14.6,0v-1.3c0-0.7-0.5-1.3-1.2-1.3c0,0,0,0,0,0L91.7,28.1z"/>
	<path style="clip-path:url(#SVGID_00000103973759504538997510000007848764770239998891_);fill:#BADBE9;" d="M103.1,28.1v2
		c0,0.7-0.1,1.2-0.6,1.5c0.9-0.3,1.7-0.6,2.6-1v-1.2c0-0.7-0.5-1.3-1.2-1.3c0,0,0,0,0,0L103.1,28.1z"/>
	<path style="clip-path:url(#SVGID_00000103973759504538997510000007848764770239998891_);fill:#BADBE9;" d="M91.7,28.1
		c-0.7,0-1.3,0.6-1.3,1.2c0,0,0,0,0,0v1.3c1.6,0.7,3.3,1.2,5,1.5c-0.8-0.2-1.1-1.1-1.1-2.1v-2H91.7z"/>
	<path style="clip-path:url(#SVGID_00000103973759504538997510000007848764770239998891_);fill:#8BB0CC;" d="M92.4,28.1v2
		c0,0.7,0.1,1.2,0.6,1.5c-0.9-0.3-1.7-0.6-2.5-1v-1.2c0-0.7,0.5-1.3,1.2-1.3c0,0,0,0,0,0L92.4,28.1z"/>
	<path style="clip-path:url(#SVGID_00000103973759504538997510000007848764770239998891_);fill:#1A1A1A;" d="M91.7,27.6
		c-1,0-1.8,0.8-1.8,1.8v1.4c0,4.3,3.5,7.8,7.8,7.8s7.8-3.5,7.8-7.8v-1.4c0-1-0.8-1.8-1.8-1.8H91.7z M103.7,28.7
		c0.4,0,0.7,0.3,0.7,0.7c0,0,0,0,0,0v1.4c0,3.7-3,6.7-6.7,6.7s-6.7-3-6.7-6.7c0,0,0,0,0,0v-1.4c0-0.4,0.3-0.7,0.7-0.7c0,0,0,0,0,0
		H103.7z"/>
	<path style="clip-path:url(#SVGID_00000103973759504538997510000007848764770239998891_);fill:#1A1A1A;" d="M105,30.3
		c-4.6,2.2-10,2.2-14.6,0l-0.2,0.5c4.8,2.3,10.3,2.3,15.1,0C105.2,30.8,105,30.3,105,30.3z"/>
	<path style="clip-path:url(#SVGID_00000103973759504538997510000007848764770239998891_);fill:#F293A2;" d="M98.5,35
		c0-0.2,0.1-0.5,0.4-0.6c0.3-0.2,0.5-0.3,0.8-0.2c0.7,0,1.2,0.4,1.2,0.8s-0.5,0.8-1.2,0.8c-0.3,0-0.6-0.1-0.8-0.2
		C98.7,35.5,98.5,35.3,98.5,35z"/>
	<path style="clip-path:url(#SVGID_00000103973759504538997510000007848764770239998891_);fill:#FFFFFF;" d="M12,38.1h171.6
		c2.2,0,4,1.8,4,4v226.8c0,2.2-1.8,4-4,4H12c-2.2,0-4-1.8-4-4V42C8,39.8,9.8,38.1,12,38.1z"/>
	<text transform="matrix(1 0 0 1 40.33 72.89)" class="st8 st9 st10">A Ą B С Ć </text>
	<text transform="matrix(1 0 0 1 28.25 104.89)" class="st8 st9 st10">CH CZ D DZ </text>
	<text transform="matrix(1 0 0 1 32.64 136.89)" class="st8 st9 st10">DŻ DŹ Е Ę F </text>
	<text transform="matrix(1 0 0 1 28.38 168.89)" class="st8 st9 st10">G H I J K L Ł </text>
	<text transform="matrix(1 0 0 1 25.11 200.89)" class="st8 st9 st10">M N Ń O Ó P </text>
	<text transform="matrix(1 0 0 1 23.04 232.89)" class="st8 st9 st10">R RZ S Ś T U </text>
	<text transform="matrix(1 0 0 1 28.14 264.89)" class="st8 st9 st10">W Y Z Ź ŻSZ   </text>
	<path style="clip-path:url(#SVGID_00000103973759504538997510000007848764770239998891_);fill:#1A1A1A;" d="M45.1,0h-29H0.1v16
		c0,7,0,14,0,21c10.3,12.3,28.6,14,41,3.7c6.7-5.5,10.5-13.8,10.5-22.4C51.6,11.6,49.3,5.2,45.1,0z"/>
	<g style="clip-path:url(#SVGID_00000103973759504538997510000007848764770239998891_);enable-background:new    ;">
		<text transform="matrix(1 0 0 1 15.71 31.75)" class="st12 st9 st13">10</text>
	</g>
</g>
</svg>
