<?xml version="1.0" encoding="utf-8"?>
<!-- Generator: Adobe Illustrator 26.0.1, SVG Export Plug-In . SVG Version: 6.00 Build 0)  -->
<svg version="1.1" id="Слой_1" xmlns="http://www.w3.org/2000/svg" xmlns:xlink="http://www.w3.org/1999/xlink" x="0px" y="0px"
	 viewBox="0 0 195.6 280.6" style="enable-background:new 0 0 195.6 280.6;" xml:space="preserve">
<style type="text/css">
	.st0{clip-path:url(#SVGID_00000044879823854368445660000009081726951413027226_);fill:#EB5A53;}
	.st1{clip-path:url(#SVGID_00000036931920940498407190000003051270665418700452_);fill:#FFFFFF;}
	.st2{clip-path:url(#SVGID_00000073703870200597324920000006423270575572362658_);fill:#EB5A53;}
	.st3{clip-path:url(#SVGID_00000073705323269083360790000011017313148845872023_);fill:#1A1A1A;}
	.st4{clip-path:url(#SVGID_00000001654955641545411990000003095092761017693881_);fill:#EB5A53;}
	.st5{clip-path:url(#SVGID_00000182509494810342440570000005923770555273296809_);fill:#1A1A1A;}
	.st6{clip-path:url(#SVGID_00000117642567962952279520000018124649875365544347_);fill:#EB5A53;}
	.st7{clip-path:url(#SVGID_00000134965331195395144260000009033492418667728028_);fill:#1A1A1A;}
	.st8{clip-path:url(#SVGID_00000031890863707307546580000011099330708639109031_);fill:#EB5A53;}
	.st9{clip-path:url(#SVGID_00000162343346031324392360000013798713600370302119_);fill:#1A1A1A;}
	.st10{clip-path:url(#SVGID_00000042695063073018553250000000793175212869965475_);fill:#1A1A1A;}
	.st11{clip-path:url(#SVGID_00000133525700372997953350000000167069419293869219_);fill:#EB5A53;}
	.st12{clip-path:url(#SVGID_00000169546153055813731080000002806032673670431165_);fill:#FFFFFF;}
	.st13{clip-path:url(#SVGID_00000170975917409764253950000002567212611539541180_);fill:#FFFFFF;}
	.st14{clip-path:url(#SVGID_00000123443421622855347550000002228544519927351681_);fill:#FFFFFF;}
	.st15{clip-path:url(#SVGID_00000034807034132191152370000000200561513176984720_);fill:#FFFFFF;}
	.st16{clip-path:url(#SVGID_00000034777531496161772390000016589274879817118627_);fill:#1A1A1A;}
	.st17{clip-path:url(#SVGID_00000152969518351264306480000013582246881683717807_);fill:#1A1A1A;}
	.st18{clip-path:url(#SVGID_00000158726566879717250310000011282239365410367376_);fill:#FFFFFF;}
	.st19{clip-path:url(#SVGID_00000039111231272668340210000012085817459319329211_);fill:#1A1A1A;}
	.st20{clip-path:url(#SVGID_00000065771217574696065930000016731214675096873096_);fill:#FFFFFF;}
	.st21{clip-path:url(#SVGID_00000119108914934200525900000011664510187557212805_);fill:#AF1739;}
	.st22{clip-path:url(#SVGID_00000026871524220851459050000000166217078479748514_);fill:#EB5775;}
	.st23{clip-path:url(#SVGID_00000111173063359606107540000009548529090885073586_);fill:#FFFFFF;}
	.st24{clip-path:url(#SVGID_00000080206339224712276710000012854434066171260042_);fill:#BADBE9;}
	.st25{clip-path:url(#SVGID_00000031176844806788084920000013024460022424143768_);fill:#BADBE9;}
	.st26{clip-path:url(#SVGID_00000132795269053082338380000006198332696610307734_);fill:#8BB0CC;}
	.st27{clip-path:url(#SVGID_00000069365734232726755010000003026587272220223892_);fill:#1A1A1A;}
	.st28{clip-path:url(#SVGID_00000140700241199129054120000003849616076213022655_);fill:#1A1A1A;}
	.st29{clip-path:url(#SVGID_00000086673420986493506800000009535452013900606623_);fill:#F293A2;}
	.st30{clip-path:url(#SVGID_00000047781099736052873780000013976492933812896662_);fill:#FFFFFF;}
	.st31{clip-path:url(#SVGID_00000098915395536451810930000014272150012587129735_);fill:#1A1A1A;}
	.st32{enable-background:new    ;}
	.st33{fill:#EB5A53;}
	.st34{fill:#FFFFFF;}
</style>
<g>
	<g>
		<defs>
			<rect id="SVGID_1_" width="195.6" height="280.6"/>
		</defs>
		<clipPath id="SVGID_00000163032500836119013030000004021779340555901080_">
			<use xlink:href="#SVGID_1_"  style="overflow:visible;"/>
		</clipPath>
		
			<rect x="-14.4" y="-18.7" style="clip-path:url(#SVGID_00000163032500836119013030000004021779340555901080_);fill:#EB5A53;" width="228.4" height="310.4"/>
	</g>
	<g>
		<defs>
			<rect id="SVGID_00000137114281689388620070000003109248775876133028_" width="195.6" height="280.6"/>
		</defs>
		<clipPath id="SVGID_00000036246467975109145580000013191243565986385299_">
			<use xlink:href="#SVGID_00000137114281689388620070000003109248775876133028_"  style="overflow:visible;"/>
		</clipPath>
		<path style="clip-path:url(#SVGID_00000036246467975109145580000013191243565986385299_);fill:#FFFFFF;" d="M110.1,80.2
			c-2.3,0-5.5-0.9-8-5c-1-1.8-1.8-3.7-2.3-5.7c-0.1-0.3-0.2-0.6-0.2-0.9c-0.6,0-1.3,0-1.9,0s-1.3,0-1.9,0c-0.1,0.3-0.2,0.6-0.2,0.9
			c-0.5,2-1.3,3.9-2.3,5.7c-2.5,4.1-5.7,5-7.9,5s-5.5-0.9-8-5c-1-1.8-1.8-3.7-2.3-5.7c-0.7-2.6-1.2-5.3-1.5-8
			c-6.3-4.2-11.5-9.9-15-16.6c-0.7,0.2-1.4,0.3-2.1,0.3c-1.1,0-2.2-0.2-3.2-0.6c-2.1-0.9-4.7-2.9-5.4-7.7c-0.3-2-0.3-4.1,0-6.1
			c0.5-4.1,1.6-8.2,3.2-12c1-2.6,2.5-4.9,4.5-6.9c7.1-23.3,31.7-36.4,55-29.4c13.7,4.2,24.5,14.7,29,28.4c2.9,1.9,5,5.1,6.4,9.5
			c1.2,4,1.8,8.1,1.9,12.3c0.1,2-0.1,4.1-0.6,6.1c-1.2,4.7-4,6.4-6.2,7.1c-0.8,0.2-1.6,0.4-2.4,0.4c-0.8,0-1.6-0.1-2.4-0.3
			c-3.5,6.3-8.5,11.7-14.5,15.7c-0.3,2.7-0.8,5.4-1.5,8c-0.5,2-1.3,3.9-2.3,5.7C115.6,79.3,112.4,80.2,110.1,80.2z"/>
	</g>
	<g>
		<defs>
			<rect id="SVGID_00000142888028593984605570000009562709001483385535_" width="195.6" height="280.6"/>
		</defs>
		<clipPath id="SVGID_00000074435092586451736710000018421211241540688289_">
			<use xlink:href="#SVGID_00000142888028593984605570000009562709001483385535_"  style="overflow:visible;"/>
		</clipPath>
		<path style="clip-path:url(#SVGID_00000074435092586451736710000018421211241540688289_);fill:#EB5A53;" d="M105.2,58.1
			c0-6.6,2.9-7.9,4.9-7.9s4.9,1.3,4.9,7.9s-2.2,16-4.9,16S105.2,64.7,105.2,58.1z"/>
	</g>
	<g>
		<defs>
			<rect id="SVGID_00000031911212203739477820000016845655103365456573_" width="195.6" height="280.6"/>
		</defs>
		<clipPath id="SVGID_00000039100519752730410360000015541115025419681414_">
			<use xlink:href="#SVGID_00000031911212203739477820000016845655103365456573_"  style="overflow:visible;"/>
		</clipPath>
		<path style="clip-path:url(#SVGID_00000039100519752730410360000015541115025419681414_);fill:#1A1A1A;" d="M110.2,48.8
			c-1.6,0-3.2,0.7-4.3,2c-1.3,1.5-2,3.8-2,7.3c0,3.7,0.5,7.3,1.5,10.8c0.4,1.5,1,2.9,1.7,4.3c0.7,1.2,1.6,2.2,3.1,2.2
			s2.4-1.1,3.1-2.2c0.8-1.3,1.4-2.8,1.8-4.3c1-3.5,1.5-7.2,1.5-10.8c0-3.5-0.8-5.8-2-7.3C113.4,49.6,111.9,48.8,110.2,48.8
			L110.2,48.8z M110.2,51.6c0.8,0,1.6,0.3,2.2,1c0.7,0.8,1.4,2.5,1.4,5.5c0,3.4-0.5,6.8-1.4,10.1c-0.3,1.3-0.8,2.5-1.4,3.6
			c-0.2,0.3-0.4,0.6-0.7,0.9c-0.3-0.2-0.6-0.5-0.7-0.9c-0.6-1.1-1.1-2.4-1.4-3.6c-0.9-3.3-1.4-6.7-1.4-10.1c0-3.1,0.7-4.7,1.4-5.5
			C108.5,51.9,109.3,51.6,110.2,51.6L110.2,51.6z"/>
	</g>
	<g>
		<defs>
			<rect id="SVGID_00000010287000420331107460000018053261786711956367_" width="195.6" height="280.6"/>
		</defs>
		<clipPath id="SVGID_00000157293225151283990340000004113241106415354758_">
			<use xlink:href="#SVGID_00000010287000420331107460000018053261786711956367_"  style="overflow:visible;"/>
		</clipPath>
		<path style="clip-path:url(#SVGID_00000157293225151283990340000004113241106415354758_);fill:#EB5A53;" d="M80.4,58.1
			c0-6.6,2.9-7.9,4.9-7.9s4.9,1.3,4.9,7.9s-2.2,16-4.9,16S80.4,64.7,80.4,58.1z"/>
	</g>
	<g>
		<defs>
			<rect id="SVGID_00000029755343416043363740000007711260912751464378_" width="195.6" height="280.6"/>
		</defs>
		<clipPath id="SVGID_00000031176168099675665950000013865712119529759373_">
			<use xlink:href="#SVGID_00000029755343416043363740000007711260912751464378_"  style="overflow:visible;"/>
		</clipPath>
		<path style="clip-path:url(#SVGID_00000031176168099675665950000013865712119529759373_);fill:#1A1A1A;" d="M85.3,48.8
			c-1.6,0-3.2,0.7-4.3,2c-1.3,1.5-2,3.8-2,7.3c0,3.7,0.5,7.3,1.5,10.8c0.4,1.5,1,2.9,1.7,4.3c0.7,1.2,1.6,2.2,3.1,2.2
			s2.4-1.1,3.1-2.2c0.8-1.3,1.3-2.8,1.7-4.3c1-3.5,1.5-7.2,1.5-10.8c0-3.5-0.8-5.8-2-7.3C88.5,49.6,87,48.8,85.3,48.8L85.3,48.8z
			 M85.3,51.6c0.8,0,1.6,0.3,2.2,1c0.7,0.8,1.4,2.5,1.4,5.5c0,3.4-0.5,6.8-1.4,10.1c-0.3,1.3-0.8,2.5-1.4,3.6
			c-0.2,0.3-0.4,0.6-0.7,0.9c-0.3-0.2-0.6-0.5-0.7-0.9c-0.6-1.1-1.1-2.4-1.4-3.6c-0.9-3.3-1.4-6.7-1.4-10.1c0-3.1,0.7-4.7,1.4-5.5
			C83.6,51.9,84.4,51.6,85.3,51.6L85.3,51.6z"/>
	</g>
	<g>
		<defs>
			<rect id="SVGID_00000085225021720966998470000011805050066535777443_" width="195.6" height="280.6"/>
		</defs>
		<clipPath id="SVGID_00000041270457337132938390000010346966869974862005_">
			<use xlink:href="#SVGID_00000085225021720966998470000011805050066535777443_"  style="overflow:visible;"/>
		</clipPath>
		<path style="clip-path:url(#SVGID_00000041270457337132938390000010346966869974862005_);fill:#EB5A53;" d="M130,25.3
			c-1.9-6.3,0.5-8.4,2.4-9s5.1-0.2,7,6.1s2.5,16-0.1,16.7S131.9,31.7,130,25.3z"/>
	</g>
	<g>
		<defs>
			<rect id="SVGID_00000103249074043586672660000000069995123083755433_" width="195.6" height="280.6"/>
		</defs>
		<clipPath id="SVGID_00000031205336050284724650000014518307335577784993_">
			<use xlink:href="#SVGID_00000103249074043586672660000000069995123083755433_"  style="overflow:visible;"/>
		</clipPath>
		<path style="clip-path:url(#SVGID_00000031205336050284724650000014518307335577784993_);fill:#1A1A1A;" d="M132,15.8
			c-1.6,0.5-2.9,1.6-3.5,3.1c-0.8,1.8-0.8,4.2,0.2,7.6c1.1,3.5,2.6,6.9,4.6,10c0.8,1.3,1.8,2.5,2.9,3.6c1,0.9,2.2,1.7,3.6,1.2
			s2-1.7,2.3-3c0.3-1.5,0.5-3,0.4-4.6c-0.1-3.7-0.7-7.3-1.7-10.8c-1-3.4-2.4-5.4-4.1-6.4C135.3,15.6,133.6,15.4,132,15.8L132,15.8z
			 M132.8,18.4c0.8-0.3,1.7-0.2,2.4,0.3c0.9,0.6,2,1.9,2.9,4.9c1,3.3,1.5,6.7,1.6,10.1c0.1,1.3-0.1,2.6-0.3,3.9
			c-0.1,0.4-0.2,0.7-0.4,1c-0.4-0.1-0.7-0.3-1-0.6c-0.9-0.9-1.7-1.9-2.4-3c-1.8-2.9-3.2-6-4.3-9.3c-0.9-3-0.7-4.7-0.3-5.7
			C131.3,19.1,131.9,18.5,132.8,18.4L132.8,18.4z"/>
	</g>
	<g>
		<defs>
			<rect id="SVGID_00000110435933392585411420000001527282623730090139_" width="195.6" height="280.6"/>
		</defs>
		<clipPath id="SVGID_00000103266702683051952270000007346020212774750361_">
			<use xlink:href="#SVGID_00000110435933392585411420000001527282623730090139_"  style="overflow:visible;"/>
		</clipPath>
		<path style="clip-path:url(#SVGID_00000103266702683051952270000007346020212774750361_);fill:#EB5A53;" d="M57.4,22.2
			c2.5-6.1,5.7-6.2,7.6-5.4c1.9,0.8,4,3.1,1.5,9.2s-8.2,13.9-10.7,12.9S54.8,28.3,57.4,22.2z"/>
	</g>
	<g>
		<defs>
			<rect id="SVGID_00000078752457299712873670000000171200589557737635_" width="195.6" height="280.6"/>
		</defs>
		<clipPath id="SVGID_00000052819702377914504010000005838515131178330549_">
			<use xlink:href="#SVGID_00000078752457299712873670000000171200589557737635_"  style="overflow:visible;"/>
		</clipPath>
		<path style="clip-path:url(#SVGID_00000052819702377914504010000005838515131178330549_);fill:#1A1A1A;" d="M65.5,15.5
			c-1.5-0.6-3.2-0.6-4.7,0.2c-1.7,0.9-3.3,2.8-4.7,6c-1.4,3.4-2.3,7-2.8,10.6c-0.2,1.5-0.2,3.1-0.1,4.6c0.2,1.3,0.6,2.7,2,3.2
			s2.7-0.1,3.7-0.9c1.2-0.9,2.3-2,3.2-3.3c2.2-2.9,4.1-6.1,5.5-9.5c1.3-3.2,1.5-5.7,0.9-7.5C68.2,17.4,67,16.2,65.5,15.5L65.5,15.5z
			 M64.5,18c0.8,0.3,1.4,0.9,1.6,1.8c0.3,1,0.3,2.8-0.8,5.7c-1.3,3.1-3.1,6.1-5.2,8.8c-0.8,1-1.7,2-2.7,2.8c-0.3,0.2-0.6,0.4-1,0.5
			c-0.2-0.3-0.4-0.7-0.4-1.1c-0.1-1.3-0.1-2.6,0.1-3.9c0.4-3.4,1.3-6.7,2.6-9.9c1.2-2.9,2.5-4.1,3.4-4.6
			C62.8,17.7,63.7,17.7,64.5,18L64.5,18z"/>
	</g>
	<g>
		<defs>
			<rect id="SVGID_00000008115224099783532540000004398925875432165797_" width="195.6" height="280.6"/>
		</defs>
		<clipPath id="SVGID_00000013878180156211833750000005353586524632784269_">
			<use xlink:href="#SVGID_00000008115224099783532540000004398925875432165797_"  style="overflow:visible;"/>
		</clipPath>
		<path style="clip-path:url(#SVGID_00000013878180156211833750000005353586524632784269_);fill:#1A1A1A;" d="M97.7-13.1
			c-21.3,0-38.5,17.2-38.5,38.5S76.5,64,97.7,64s38.5-17.2,38.5-38.5l0,0C136.2,4.2,119-13,97.7-13.1z M97.7-8.7
			c18.8,0,34.1,15.3,34.1,34.1s-15.3,34.1-34.1,34.1s-34.1-15.2-34.1-34C63.6,6.6,78.8-8.7,97.7-8.7L97.7-8.7z"/>
	</g>
	<g>
		<defs>
			<rect id="SVGID_00000051346308562207046800000010648410328612276924_" width="195.6" height="280.6"/>
		</defs>
		<clipPath id="SVGID_00000005954498530480172790000017228352547566102439_">
			<use xlink:href="#SVGID_00000051346308562207046800000010648410328612276924_"  style="overflow:visible;"/>
		</clipPath>
		<path style="clip-path:url(#SVGID_00000005954498530480172790000017228352547566102439_);fill:#EB5A53;" d="M133.5,24.6
			c0,1.5-0.2,19.1-10.4,24c-7.3,3.5-11.3-3.3-26.1-3.1c-13.8,0.2-17.5,6.4-24.3,3.1c-10.2-4.8-10.4-22.5-10.4-24
			c0-2.1,0.2-18.5,10.4-24c6-3.2,9.1,0.8,24,0.9C113,1.7,116.5-3,123.1,0.6C133.3,6.2,133.5,22.5,133.5,24.6z"/>
	</g>
	<g>
		<defs>
			<rect id="SVGID_00000107571162621728698590000012707325769974188692_" width="195.6" height="280.6"/>
		</defs>
		<clipPath id="SVGID_00000008132912349159017360000006064805857997372834_">
			<use xlink:href="#SVGID_00000107571162621728698590000012707325769974188692_"  style="overflow:visible;"/>
		</clipPath>
		<path style="clip-path:url(#SVGID_00000008132912349159017360000006064805857997372834_);fill:#FFFFFF;" d="M98.1-10.2
			c-15.6,0-29.4,9.8-34.6,24.5h69.2C127.5-0.3,113.7-10.2,98.1-10.2z"/>
	</g>
	<g>
		<defs>
			<rect id="SVGID_00000100370494823285151910000005164139006180658864_" width="195.6" height="280.6"/>
		</defs>
		<clipPath id="SVGID_00000010303405312799919950000012417985890686480544_">
			<use xlink:href="#SVGID_00000100370494823285151910000005164139006180658864_"  style="overflow:visible;"/>
		</clipPath>
		<path style="clip-path:url(#SVGID_00000010303405312799919950000012417985890686480544_);fill:#FFFFFF;" d="M96.2-9.4
			c-14.8,0-27.9,9.6-32.3,23.7h64.7C124,0.2,111-9.3,96.2-9.4z"/>
	</g>
	<g>
		<defs>
			<rect id="SVGID_00000178915490846410797370000003403955463138103486_" width="195.6" height="280.6"/>
		</defs>
		<clipPath id="SVGID_00000140006106342157210570000016697848765058737547_">
			<use xlink:href="#SVGID_00000178915490846410797370000003403955463138103486_"  style="overflow:visible;"/>
		</clipPath>
		<path style="clip-path:url(#SVGID_00000140006106342157210570000016697848765058737547_);fill:#FFFFFF;" d="M63.2,38.1
			C67,45.4,72.8,51.5,80,55.6c5.5,3.3,11.8,5.1,18.2,5.2c3.4,0,6.9-0.4,10.2-1.4c6.6-2,12.4-5.9,16.8-11.2c2.6-3,4.7-6.4,6.2-10.1
			H63.2z"/>
	</g>
	<g>
		<defs>
			<rect id="SVGID_00000114052007771164808370000015258899652645205438_" width="195.6" height="280.6"/>
		</defs>
		<clipPath id="SVGID_00000181074297157063554010000002865348597892743323_">
			<use xlink:href="#SVGID_00000114052007771164808370000015258899652645205438_"  style="overflow:visible;"/>
		</clipPath>
		<path style="clip-path:url(#SVGID_00000181074297157063554010000002865348597892743323_);fill:#FFFFFF;" d="M65.1,38.1
			c8.1,17.7,29,25.5,46.7,17.4c7.7-3.5,13.9-9.7,17.4-17.4H65.1z"/>
	</g>
	<g>
		<defs>
			<rect id="SVGID_00000157274124990044402640000014838428605679283334_" width="195.6" height="280.6"/>
		</defs>
		<clipPath id="SVGID_00000108277343587536529790000009973953024248252810_">
			<use xlink:href="#SVGID_00000157274124990044402640000014838428605679283334_"  style="overflow:visible;"/>
		</clipPath>
		<path style="clip-path:url(#SVGID_00000108277343587536529790000009973953024248252810_);fill:#1A1A1A;" d="M97.7-11.4
			c-20.4,0-36.9,16.5-36.9,36.9s16.5,36.9,36.9,36.9s36.9-16.5,36.9-36.9l0,0C134.6,5.1,118.1-11.4,97.7-11.4z M97.7-10.3
			c19.8,0,35.8,16,35.8,35.7c0,19.8-16,35.8-35.7,35.8C78,61.2,62,45.2,62,25.5l0,0C62,5.7,78-10.3,97.7-10.3z"/>
	</g>
	<g>
		<defs>
			<rect id="SVGID_00000123400966302741116020000008732983461282024094_" width="195.6" height="280.6"/>
		</defs>
		<clipPath id="SVGID_00000040558396377131201030000014258855113563290007_">
			<use xlink:href="#SVGID_00000123400966302741116020000008732983461282024094_"  style="overflow:visible;"/>
		</clipPath>
		<path style="clip-path:url(#SVGID_00000040558396377131201030000014258855113563290007_);fill:#1A1A1A;" d="M109.4,12.3
			c3.1,0,5.6,2.5,5.7,5.6V18v2.8c0,3.1-2.5,5.7-5.7,5.7c-3.1,0-5.7-2.5-5.7-5.7l0,0V18C103.7,14.9,106.3,12.3,109.4,12.3L109.4,12.3
			L109.4,12.3z"/>
	</g>
	<g>
		<defs>
			<rect id="SVGID_00000167392928403957237090000011119782274959236244_" width="195.6" height="280.6"/>
		</defs>
		<clipPath id="SVGID_00000137816779996004021370000010425963899383848590_">
			<use xlink:href="#SVGID_00000167392928403957237090000011119782274959236244_"  style="overflow:visible;"/>
		</clipPath>
		<path style="clip-path:url(#SVGID_00000137816779996004021370000010425963899383848590_);fill:#FFFFFF;" d="M106.1,16.4
			c0-1,0.8-1.8,1.8-1.8s1.8,0.8,1.8,1.8s-0.8,1.8-1.8,1.8c-0.5,0-0.9-0.2-1.3-0.5C106.3,17.3,106.1,16.8,106.1,16.4z"/>
	</g>
	<g>
		<defs>
			<rect id="SVGID_00000036244488739015612300000001273769869821707190_" width="195.6" height="280.6"/>
		</defs>
		<clipPath id="SVGID_00000027572835436624124850000003388841990622790076_">
			<use xlink:href="#SVGID_00000036244488739015612300000001273769869821707190_"  style="overflow:visible;"/>
		</clipPath>
		<path style="clip-path:url(#SVGID_00000027572835436624124850000003388841990622790076_);fill:#1A1A1A;" d="M86.1,12.3
			c3.1,0,5.6,2.5,5.7,5.6V18v2.8c0.1,3.1-2.3,5.8-5.4,5.9s-5.8-2.3-5.9-5.4c0-0.2,0-0.3,0-0.5V18C80.4,14.9,82.9,12.4,86.1,12.3
			C86,12.3,86,12.3,86.1,12.3L86.1,12.3z"/>
	</g>
	<g>
		<defs>
			<rect id="SVGID_00000054267630621763435180000012435234294971785356_" width="195.6" height="280.6"/>
		</defs>
		<clipPath id="SVGID_00000155113808754104026120000017633063285810847367_">
			<use xlink:href="#SVGID_00000054267630621763435180000012435234294971785356_"  style="overflow:visible;"/>
		</clipPath>
		<path style="clip-path:url(#SVGID_00000155113808754104026120000017633063285810847367_);fill:#FFFFFF;" d="M82.8,16.4
			c0.1-1,1-1.8,2-1.7c0.9,0.1,1.6,0.8,1.7,1.7c0,0.5-0.2,1-0.5,1.3c-0.7,0.7-1.9,0.7-2.6,0C83,17.3,82.8,16.8,82.8,16.4z"/>
	</g>
	<g>
		<defs>
			<rect id="SVGID_00000021092285121115459400000000162059991980052397_" width="195.6" height="280.6"/>
		</defs>
		<clipPath id="SVGID_00000067922371126854350750000013160281116122623166_">
			<use xlink:href="#SVGID_00000021092285121115459400000000162059991980052397_"  style="overflow:visible;"/>
		</clipPath>
		<path style="clip-path:url(#SVGID_00000067922371126854350750000013160281116122623166_);fill:#AF1739;" d="M91.7,28.1
			c-0.7,0-1.3,0.6-1.3,1.2l0,0v1.4c0,4,3.3,7.3,7.3,7.3s7.3-3.3,7.3-7.3l0,0v-1.4c0-0.7-0.5-1.3-1.2-1.3l0,0L91.7,28.1z"/>
	</g>
	<g>
		<defs>
			<rect id="SVGID_00000031166554174616778040000004499747376769677700_" width="195.6" height="280.6"/>
		</defs>
		<clipPath id="SVGID_00000078037462706835938290000010100927662775390094_">
			<use xlink:href="#SVGID_00000031166554174616778040000004499747376769677700_"  style="overflow:visible;"/>
		</clipPath>
		<path style="clip-path:url(#SVGID_00000078037462706835938290000010100927662775390094_);fill:#EB5775;" d="M97.7,33.1
			c-2.1,0-4.1,0.9-5.5,2.5c2.6,3,7.2,3.4,10.3,0.7c0.3-0.2,0.5-0.5,0.7-0.7C101.9,34,99.9,33.1,97.7,33.1L97.7,33.1z"/>
	</g>
	<g>
		<defs>
			<rect id="SVGID_00000068669046809991708450000017609500219870534817_" width="195.6" height="280.6"/>
		</defs>
		<clipPath id="SVGID_00000141434647318591114520000004500608410043104687_">
			<use xlink:href="#SVGID_00000068669046809991708450000017609500219870534817_"  style="overflow:visible;"/>
		</clipPath>
		<path style="clip-path:url(#SVGID_00000141434647318591114520000004500608410043104687_);fill:#FFFFFF;" d="M91.7,28.1
			c-0.7,0-1.3,0.6-1.3,1.2l0,0v1.3c4.6,2.2,10,2.2,14.6,0v-1.3c0-0.7-0.5-1.3-1.2-1.3l0,0L91.7,28.1z"/>
	</g>
	<g>
		<defs>
			<rect id="SVGID_00000098924772339975979370000005222188660801421698_" width="195.6" height="280.6"/>
		</defs>
		<clipPath id="SVGID_00000132792074458128837370000010184708047839645625_">
			<use xlink:href="#SVGID_00000098924772339975979370000005222188660801421698_"  style="overflow:visible;"/>
		</clipPath>
		<path style="clip-path:url(#SVGID_00000132792074458128837370000010184708047839645625_);fill:#BADBE9;" d="M103.1,28.1v2
			c0,0.7-0.1,1.2-0.6,1.5c0.9-0.3,1.7-0.6,2.6-1v-1.2c0-0.7-0.5-1.3-1.2-1.3l0,0H103.1z"/>
	</g>
	<g>
		<defs>
			<rect id="SVGID_00000032632801734583017030000001189649356059448210_" width="195.6" height="280.6"/>
		</defs>
		<clipPath id="SVGID_00000173127018968617112610000004048280459902459284_">
			<use xlink:href="#SVGID_00000032632801734583017030000001189649356059448210_"  style="overflow:visible;"/>
		</clipPath>
		<path style="clip-path:url(#SVGID_00000173127018968617112610000004048280459902459284_);fill:#BADBE9;" d="M91.7,28.1
			c-0.7,0-1.3,0.6-1.3,1.2l0,0v1.3c1.6,0.7,3.3,1.2,5,1.5c-0.8-0.2-1.1-1.1-1.1-2.1v-2h-2.6V28.1z"/>
	</g>
	<g>
		<defs>
			<rect id="SVGID_00000027588206249506618130000007412562151019443841_" width="195.6" height="280.6"/>
		</defs>
		<clipPath id="SVGID_00000025428029351641831240000016721221098523520957_">
			<use xlink:href="#SVGID_00000027588206249506618130000007412562151019443841_"  style="overflow:visible;"/>
		</clipPath>
		<path style="clip-path:url(#SVGID_00000025428029351641831240000016721221098523520957_);fill:#8BB0CC;" d="M92.4,28.1v2
			c0,0.7,0.1,1.2,0.6,1.5c-0.9-0.3-1.7-0.6-2.5-1v-1.2c0-0.7,0.5-1.3,1.2-1.3l0,0H92.4z"/>
	</g>
	<g>
		<defs>
			<rect id="SVGID_00000177471457340478637140000017892473233559256484_" width="195.6" height="280.6"/>
		</defs>
		<clipPath id="SVGID_00000146499794650095481380000002200190924192934804_">
			<use xlink:href="#SVGID_00000177471457340478637140000017892473233559256484_"  style="overflow:visible;"/>
		</clipPath>
		<path style="clip-path:url(#SVGID_00000146499794650095481380000002200190924192934804_);fill:#1A1A1A;" d="M91.7,27.6
			c-1,0-1.8,0.8-1.8,1.8v1.4c0,4.3,3.5,7.8,7.8,7.8s7.8-3.5,7.8-7.8v-1.4c0-1-0.8-1.8-1.8-1.8H91.7z M103.7,28.7
			c0.4,0,0.7,0.3,0.7,0.7l0,0v1.4c0,3.7-3,6.7-6.7,6.7s-6.7-3-6.7-6.7l0,0v-1.4c0-0.4,0.3-0.7,0.7-0.7l0,0
			C91.7,28.7,103.7,28.7,103.7,28.7z"/>
	</g>
	<g>
		<defs>
			<rect id="SVGID_00000017506464854118804970000004212415238284387243_" width="195.6" height="280.6"/>
		</defs>
		<clipPath id="SVGID_00000121247612701638214340000012465119227717384104_">
			<use xlink:href="#SVGID_00000017506464854118804970000004212415238284387243_"  style="overflow:visible;"/>
		</clipPath>
		<path style="clip-path:url(#SVGID_00000121247612701638214340000012465119227717384104_);fill:#1A1A1A;" d="M105,30.3
			c-4.6,2.2-10,2.2-14.6,0l-0.2,0.5c4.8,2.3,10.3,2.3,15.1,0C105.2,30.8,105,30.3,105,30.3z"/>
	</g>
	<g>
		<defs>
			<rect id="SVGID_00000095337889206629960890000011313639820933314433_" width="195.6" height="280.6"/>
		</defs>
		<clipPath id="SVGID_00000165932354807721522720000017808524635651517622_">
			<use xlink:href="#SVGID_00000095337889206629960890000011313639820933314433_"  style="overflow:visible;"/>
		</clipPath>
		<path style="clip-path:url(#SVGID_00000165932354807721522720000017808524635651517622_);fill:#F293A2;" d="M98.5,35
			c0-0.2,0.1-0.5,0.4-0.6c0.3-0.2,0.5-0.3,0.8-0.2c0.7,0,1.2,0.4,1.2,0.8s-0.5,0.8-1.2,0.8c-0.3,0-0.6-0.1-0.8-0.2
			C98.7,35.5,98.5,35.3,98.5,35z"/>
	</g>
	<g>
		<defs>
			<rect id="SVGID_00000160902844211944372000000010555393919189475744_" width="195.6" height="280.6"/>
		</defs>
		<clipPath id="SVGID_00000183964663702304852810000006111290966135868800_">
			<use xlink:href="#SVGID_00000160902844211944372000000010555393919189475744_"  style="overflow:visible;"/>
		</clipPath>
		<path style="clip-path:url(#SVGID_00000183964663702304852810000006111290966135868800_);fill:#FFFFFF;" d="M12,38.1h171.6
			c2.2,0,4,1.8,4,4v226.8c0,2.2-1.8,4-4,4H12c-2.2,0-4-1.8-4-4V42C8,39.8,9.8,38.1,12,38.1z"/>
	</g>
	<g>
		<defs>
			<rect id="SVGID_00000022526040879623045590000001164961984140162450_" width="195.6" height="280.6"/>
		</defs>
		<clipPath id="SVGID_00000124126752106752005880000005126032239334890897_">
			<use xlink:href="#SVGID_00000022526040879623045590000001164961984140162450_"  style="overflow:visible;"/>
		</clipPath>
		<path style="clip-path:url(#SVGID_00000124126752106752005880000005126032239334890897_);fill:#1A1A1A;" d="M45.1,0h-29h-16v16
			c0,7,0,14,0,21c10.3,12.3,28.6,14,41,3.7c6.7-5.5,10.5-13.8,10.5-22.4C51.6,11.6,49.3,5.2,45.1,0z"/>
	</g>
	<g>
		<defs>
			<rect id="SVGID_00000085972487748151298800000011168600628618962082_" width="195.6" height="280.6"/>
		</defs>
		<clipPath id="SVGID_00000178180214177763362320000012427712855535546800_">
			<use xlink:href="#SVGID_00000085972487748151298800000011168600628618962082_"  style="overflow:visible;"/>
		</clipPath>
	</g>
</g>
<g class="st32">
	<path class="st33" d="M53.8,46l4,26.9h-7.1l-0.4-4.8h-2.5l-0.4,4.8h-7.2L43.7,46H53.8z M50.1,63.3c-0.4-3-0.7-6.8-1.1-11.3
		c-0.7,5.1-1.2,8.9-1.3,11.3H50.1z"/>
	<path class="st33" d="M78.2,72.9c-1,0.9-1.4,1.7-1.4,2.2c0,0.7,0.4,1.1,1.2,1.1c0.6,0,1.2-0.1,1.9-0.4l0.7,1.7
		c-1.1,0.5-2,0.7-2.9,0.7c-1,0-1.8-0.2-2.4-0.7s-0.9-1.1-0.9-1.9c0-0.9,0.5-1.8,1.4-2.7h-1.8l-0.4-4.8H71l-0.4,4.8h-7.2L67,46h10.1
		l4,26.9H78.2z M71,63.3h2.4c-0.5-4-0.8-7.8-1.1-11.3C71.7,56.3,71.3,60.1,71,63.3z"/>
	<path class="st33" d="M88.2,46h7c2.2,0,3.9,0.2,5,0.5s2.1,1,2.7,2.1c0.7,1,1,2.7,1,5.1c0,1.6-0.2,2.7-0.7,3.3
		c-0.5,0.6-1.5,1.1-2.9,1.4c1.6,0.4,2.7,1,3.3,1.8c0.6,0.8,0.9,2.1,0.9,3.9v2.5c0,1.8-0.2,3.2-0.6,4s-1.1,1.5-2,1.8
		c-0.9,0.3-2.8,0.5-5.6,0.5h-8.1V46z M95.2,50.6v6c0.3,0,0.5,0,0.7,0c0.7,0,1.1-0.2,1.3-0.5c0.2-0.3,0.3-1.3,0.3-2.9
		c0-0.8-0.1-1.4-0.2-1.8c-0.2-0.3-0.4-0.6-0.6-0.6S96,50.6,95.2,50.6z M95.2,60.8v7.5c1,0,1.6-0.2,1.9-0.5c0.3-0.3,0.4-1,0.4-2v-2.5
		c0-1.2-0.1-1.8-0.4-2.1C96.9,60.9,96.3,60.8,95.2,60.8z"/>
	<path class="st33" d="M129.3,57.7h-7V53c0-1.4-0.1-2.2-0.2-2.5c-0.1-0.3-0.5-0.5-1-0.5c-0.6,0-0.9,0.2-1.1,0.6
		c-0.2,0.4-0.2,1.3-0.2,2.7v12.5c0,1.3,0.1,2.2,0.2,2.6c0.2,0.4,0.5,0.6,1,0.6c0.5,0,0.9-0.2,1-0.6s0.2-1.3,0.2-2.8v-3.4h7v1
		c0,2.8-0.2,4.8-0.6,5.9c-0.4,1.2-1.3,2.2-2.6,3.1s-3,1.3-5,1.3c-2,0-3.7-0.4-5.1-1.1s-2.2-1.8-2.6-3.1c-0.4-1.3-0.6-3.3-0.6-5.9
		v-7.9c0-1.9,0.1-3.4,0.2-4.4c0.1-1,0.5-1.9,1.2-2.8s1.6-1.6,2.7-2.1c1.2-0.5,2.5-0.8,4-0.8c2.1,0,3.8,0.4,5.1,1.2
		c1.3,0.8,2.2,1.8,2.6,3c0.4,1.2,0.6,3,0.6,5.5V57.7z"/>
	<path class="st33" d="M154.2,57.7h-7V53c0-1.4-0.1-2.2-0.2-2.5c-0.1-0.3-0.5-0.5-1-0.5c-0.6,0-0.9,0.2-1.1,0.6
		c-0.2,0.4-0.2,1.3-0.2,2.7v12.5c0,1.3,0.1,2.2,0.2,2.6c0.2,0.4,0.5,0.6,1,0.6c0.5,0,0.9-0.2,1-0.6s0.2-1.3,0.2-2.8v-3.4h7v1
		c0,2.8-0.2,4.8-0.6,5.9c-0.4,1.2-1.3,2.2-2.6,3.1s-3,1.3-5,1.3c-2,0-3.7-0.4-5.1-1.1s-2.2-1.8-2.6-3.1c-0.4-1.3-0.6-3.3-0.6-5.9
		v-7.9c0-1.9,0.1-3.4,0.2-4.4c0.1-1,0.5-1.9,1.2-2.8s1.6-1.6,2.7-2.1c1.2-0.5,2.5-0.8,4-0.8c2.1,0,3.8,0.4,5.1,1.2
		c1.3,0.8,2.2,1.8,2.6,3c0.4,1.2,0.6,3,0.6,5.5V57.7z M151.5,40.7l-5.5,4.5h-3.4l2.9-4.5H151.5z"/>
</g>
<g class="st32">
	<path class="st33" d="M46,89.7h-7V85c0-1.4-0.1-2.2-0.2-2.5c-0.1-0.3-0.5-0.5-1-0.5c-0.6,0-0.9,0.2-1.1,0.6
		c-0.2,0.4-0.2,1.3-0.2,2.7v12.5c0,1.3,0.1,2.2,0.2,2.6c0.2,0.4,0.5,0.6,1,0.6c0.5,0,0.9-0.2,1-0.6c0.2-0.4,0.2-1.3,0.2-2.8v-3.4h7
		v1c0,2.8-0.2,4.8-0.6,5.9c-0.4,1.2-1.3,2.2-2.6,3.1s-3,1.3-5,1.3c-2,0-3.7-0.4-5.1-1.1s-2.2-1.8-2.6-3.1c-0.4-1.3-0.6-3.3-0.6-5.9
		v-7.9c0-1.9,0.1-3.4,0.2-4.4c0.1-1,0.5-1.9,1.2-2.8c0.7-0.9,1.6-1.6,2.7-2.1c1.2-0.5,2.5-0.8,4-0.8c2.1,0,3.8,0.4,5.1,1.2
		c1.3,0.8,2.2,1.8,2.6,3c0.4,1.2,0.6,3,0.6,5.5V89.7z"/>
	<path class="st33" d="M64.5,78v26.9h-7V93.6h-2.1v11.3h-7V78h7v9.6h2.1V78H64.5z"/>
	<path class="st33" d="M89.7,89.7h-7V85c0-1.4-0.1-2.2-0.2-2.5c-0.1-0.3-0.5-0.5-1-0.5c-0.6,0-0.9,0.2-1.1,0.6
		c-0.2,0.4-0.2,1.3-0.2,2.7v12.5c0,1.3,0.1,2.2,0.2,2.6c0.2,0.4,0.5,0.6,1,0.6c0.5,0,0.9-0.2,1-0.6c0.2-0.4,0.2-1.3,0.2-2.8v-3.4h7
		v1c0,2.8-0.2,4.8-0.6,5.9c-0.4,1.2-1.3,2.2-2.6,3.1s-3,1.3-5,1.3c-2,0-3.7-0.4-5.1-1.1s-2.2-1.8-2.6-3.1c-0.4-1.3-0.6-3.3-0.6-5.9
		v-7.9c0-1.9,0.1-3.4,0.2-4.4c0.1-1,0.5-1.9,1.2-2.8c0.7-0.9,1.6-1.6,2.7-2.1c1.2-0.5,2.5-0.8,4-0.8c2.1,0,3.8,0.4,5.1,1.2
		c1.3,0.8,2.2,1.8,2.6,3c0.4,1.2,0.6,3,0.6,5.5V89.7z"/>
	<path class="st33" d="M103.9,78v5.4l-5.2,16.1h5.2v5.4H91V101l5.4-17.6h-4.7V78H103.9z"/>
	<path class="st33" d="M111.7,78h5.2c3.4,0,5.7,0.2,6.8,0.5c1.2,0.3,2.1,0.8,2.7,1.5s1,1.5,1.2,2.4c0.2,0.9,0.2,2.6,0.2,5.1v9.4
		c0,2.4-0.1,4-0.3,4.8c-0.2,0.8-0.6,1.5-1.2,1.9c-0.6,0.5-1.3,0.8-2.1,1c-0.8,0.2-2.1,0.3-3.8,0.3h-8.8V78z M118.6,82.6v17.7
		c1,0,1.6-0.2,1.9-0.6c0.2-0.4,0.3-1.5,0.3-3.3V85.9c0-1.2,0-2-0.1-2.3s-0.3-0.6-0.5-0.8C119.9,82.7,119.4,82.6,118.6,82.6z"/>
	<path class="st33" d="M136.4,78h5.2c3.4,0,5.7,0.2,6.8,0.5s2.1,0.8,2.7,1.5c0.6,0.7,1,1.5,1.2,2.4c0.2,0.9,0.2,2.6,0.2,5.1v9.4
		c0,2.4-0.1,4-0.3,4.8c-0.2,0.8-0.6,1.5-1.2,1.9c-0.6,0.5-1.3,0.8-2.1,1c-0.8,0.2-2.1,0.3-3.8,0.3h-8.8V78z M143.4,82.6v17.7
		c1,0,1.6-0.2,1.9-0.6c0.2-0.4,0.3-1.5,0.3-3.3V85.9c0-1.2,0-2-0.1-2.3c-0.1-0.3-0.3-0.6-0.5-0.8C144.7,82.7,144.2,82.6,143.4,82.6z
		"/>
	<path class="st33" d="M166.9,78v5.4l-5.2,16.1h5.2v5.4H154V101l5.4-17.6h-4.7V78H166.9z"/>
</g>
<g class="st32">
	<path class="st33" d="M34,110h5.2c3.4,0,5.7,0.2,6.8,0.5c1.2,0.3,2.1,0.8,2.7,1.5c0.6,0.7,1,1.5,1.2,2.4c0.2,0.9,0.2,2.6,0.2,5.1
		v9.4c0,2.4-0.1,4-0.3,4.8c-0.2,0.8-0.6,1.5-1.2,1.9c-0.6,0.5-1.3,0.8-2.1,1c-0.8,0.2-2.1,0.3-3.8,0.3H34V110z M41,114.6v17.7
		c1,0,1.6-0.2,1.9-0.6c0.2-0.4,0.3-1.5,0.3-3.3v-10.4c0-1.2,0-2-0.1-2.3c-0.1-0.3-0.3-0.6-0.5-0.8C42.3,114.7,41.8,114.6,41,114.6z"
		/>
	<path class="st33" d="M64.5,110v5.4l-5.2,16.1h5.2v5.4H51.6V133l5.4-17.6h-4.7V110H64.5z M60.5,104.8v4.3h-4.3v-4.3H60.5z"/>
	<path class="st33" d="M72.3,110h5.2c3.4,0,5.7,0.2,6.8,0.5c1.2,0.3,2.1,0.8,2.7,1.5c0.6,0.7,1,1.5,1.2,2.4c0.2,0.9,0.2,2.6,0.2,5.1
		v9.4c0,2.4-0.1,4-0.3,4.8c-0.2,0.8-0.6,1.5-1.2,1.9c-0.6,0.5-1.3,0.8-2.1,1c-0.8,0.2-2.1,0.3-3.8,0.3h-8.8V110z M79.3,114.6v17.7
		c1,0,1.6-0.2,1.9-0.6c0.2-0.4,0.3-1.5,0.3-3.3v-10.4c0-1.2,0-2-0.1-2.3c-0.1-0.3-0.3-0.6-0.5-0.8C80.6,114.7,80.1,114.6,79.3,114.6
		z"/>
	<path class="st33" d="M102.8,110v5.4l-5.2,16.1h5.2v5.4H89.9V133l5.4-17.6h-4.7V110H102.8z M101.7,104.7l-5.5,4.5h-3.4l2.9-4.5
		H101.7z"/>
	<path class="st33" d="M110.6,110h11.7v5.4h-4.7v5.1h4.4v5.1h-4.4v5.9h5.1v5.4h-12.1V110z"/>
	<path class="st33" d="M138.8,136.9h-8.1V110h11.7v5.4h-4.6v5.1h4.3v5.1h-4.3v5.9h5.1v5.4h-1.6c-1,0.9-1.4,1.7-1.4,2.2
		c0,0.7,0.4,1.1,1.2,1.1c0.5,0,1.2-0.1,1.9-0.4l0.7,1.7c-1.1,0.5-2,0.7-2.9,0.7c-1,0-1.8-0.2-2.4-0.7c-0.6-0.5-0.9-1.1-0.9-1.9
		C137.4,138.7,137.9,137.8,138.8,136.9z"/>
	<path class="st33" d="M150.8,110h11.8v5.4h-4.8v5.1h4.3v5.1h-4.3v11.3h-7V110z"/>
</g>
<g class="st32">
	<path class="st33" d="M45.8,151.9h-7v-2.4c0-1.5-0.1-2.5-0.2-2.9s-0.4-0.6-0.9-0.6c-0.4,0-0.7,0.2-0.9,0.5
		c-0.2,0.3-0.2,1.2-0.2,2.6V162c0,1.2,0.1,2,0.2,2.4c0.2,0.4,0.5,0.6,0.9,0.6c0.5,0,0.9-0.2,1-0.6s0.3-1.3,0.3-2.5v-3.2h-1.4v-4.1
		h8.2v14.4h-4.4l-0.6-1.9c-0.5,0.8-1.1,1.5-1.8,1.9c-0.7,0.4-1.6,0.6-2.6,0.6c-1.2,0-2.3-0.3-3.3-0.9c-1-0.6-1.8-1.3-2.3-2.1
		s-0.9-1.7-1-2.6c-0.1-0.9-0.2-2.3-0.2-4.2v-8c0-2.6,0.1-4.4,0.4-5.6c0.3-1.2,1.1-2.2,2.4-3.2c1.3-1,3-1.5,5.1-1.5
		c2,0,3.7,0.4,5.1,1.3c1.4,0.8,2.2,1.8,2.6,3c0.4,1.2,0.6,2.8,0.6,5V151.9z"/>
	<path class="st33" d="M70.6,142v26.9h-7v-11.3h-2.1v11.3h-7V142h7v9.6h2.1V142H70.6z"/>
	<path class="st33" d="M86.4,142v26.9h-7V142H86.4z"/>
	<path class="st33" d="M103.7,142v18c0,2.7,0,4.4-0.1,5.2c-0.1,0.8-0.3,1.5-0.8,2.1c-0.5,0.6-1.1,1-1.8,1.3
		c-0.8,0.2-1.9,0.4-3.5,0.4h-3.5v-4.7c0.4,0,0.7,0,0.9,0c0.5,0,0.9-0.1,1.2-0.4c0.3-0.2,0.5-0.5,0.5-0.9c0-0.4,0.1-1,0.1-2.1V142
		H103.7z"/>
	<path class="st33" d="M129.1,142l-4,12.1l4.4,14.7h-7.2l-2.8-11.5v11.5h-7V142h7v10.4l3.1-10.4H129.1z"/>
	<path class="st33" d="M143.6,142v21.5h4.2v5.4h-11.2V142H143.6z"/>
	<path class="st33" d="M162.8,152.1l4.1-0.9v2.9l-4.1,0.9v8.5h4.2v5.4h-11.2v-12.3l-1.4,0.3V154l1.4-0.3V142h7V152.1z"/>
</g>
<g class="st32">
	<path class="st33" d="M48.1,174v26.9H42l0-18.1l-2.4,18.1h-4.3l-2.6-17.7l0,17.7h-6.1V174h9c0.3,1.6,0.5,3.5,0.8,5.7l1,6.8L39,174
		H48.1z"/>
	<path class="st33" d="M72.5,174v26.9h-6.1l-3.6-12.2v12.2h-5.8V174h5.8l3.9,12.1V174H72.5z"/>
	<path class="st33" d="M96.9,174v26.9h-6.1l-3.6-12.2v12.2h-5.8V174h5.8l3.9,12.1V174H96.9z M94.4,168.7l-5.5,4.5h-3.4l2.9-4.5H94.4
		z"/>
	<path class="st33" d="M121.6,189.8c0,2.7-0.1,4.6-0.2,5.7c-0.1,1.1-0.5,2.2-1.2,3.1s-1.6,1.6-2.7,2.1c-1.1,0.5-2.5,0.7-4,0.7
		c-1.4,0-2.7-0.2-3.9-0.7c-1.1-0.5-2.1-1.2-2.8-2.1s-1.1-2-1.2-3.1s-0.2-3-0.2-5.8v-4.6c0-2.7,0.1-4.6,0.2-5.7
		c0.1-1.1,0.5-2.1,1.2-3.1s1.6-1.6,2.7-2.1c1.1-0.5,2.5-0.7,4-0.7c1.4,0,2.7,0.2,3.9,0.7c1.1,0.5,2.1,1.2,2.8,2.1s1.1,2,1.2,3.1
		s0.2,3,0.2,5.8V189.8z M114.7,180.9c0-1.3-0.1-2-0.2-2.4c-0.1-0.3-0.4-0.5-0.9-0.5c-0.4,0-0.6,0.1-0.8,0.4
		c-0.2,0.3-0.3,1.1-0.3,2.5v12.6c0,1.6,0.1,2.5,0.2,2.9s0.4,0.5,0.9,0.5c0.5,0,0.8-0.2,0.9-0.6s0.2-1.4,0.2-3V180.9z"/>
	<path class="st33" d="M146.2,189.8c0,2.7-0.1,4.6-0.2,5.7c-0.1,1.1-0.5,2.2-1.2,3.1s-1.6,1.6-2.7,2.1c-1.1,0.5-2.5,0.7-4,0.7
		c-1.4,0-2.7-0.2-3.9-0.7c-1.1-0.5-2.1-1.2-2.8-2.1s-1.1-2-1.2-3.1s-0.2-3-0.2-5.8v-4.6c0-2.7,0.1-4.6,0.2-5.7
		c0.1-1.1,0.5-2.1,1.2-3.1s1.6-1.6,2.7-2.1c1.1-0.5,2.5-0.7,4-0.7c1.4,0,2.7,0.2,3.9,0.7c1.1,0.5,2.1,1.2,2.8,2.1s1.1,2,1.2,3.1
		s0.2,3,0.2,5.8V189.8z M143.8,168.7l-5.5,4.5h-3.4l2.9-4.5H143.8z M139.2,180.9c0-1.3-0.1-2-0.2-2.4c-0.1-0.3-0.4-0.5-0.9-0.5
		c-0.4,0-0.6,0.1-0.8,0.4c-0.2,0.3-0.3,1.1-0.3,2.5v12.6c0,1.6,0.1,2.5,0.2,2.9s0.4,0.5,0.9,0.5c0.5,0,0.8-0.2,0.9-0.6
		s0.2-1.4,0.2-3V180.9z"/>
	<path class="st33" d="M154.8,174h7c1.9,0,3.4,0.1,4.4,0.4s1.8,0.7,2.3,1.3s0.9,1.2,1,2.1c0.2,0.8,0.3,2,0.3,3.7v2.3
		c0,1.7-0.2,3-0.5,3.8c-0.4,0.8-1,1.4-2,1.8s-2.2,0.6-3.7,0.6h-1.9v10.8h-7V174z M161.8,178.6v6.8c0.2,0,0.4,0,0.5,0
		c0.6,0,1.1-0.2,1.3-0.5c0.2-0.3,0.4-1,0.4-2v-2.2c0-0.9-0.1-1.5-0.4-1.8C163.3,178.7,162.7,178.6,161.8,178.6z"/>
</g>
<g class="st32">
	<path class="st33" d="M24.4,206h4.9c3.3,0,5.5,0.1,6.7,0.4c1.2,0.3,2.1,0.9,2.9,2c0.7,1,1.1,2.7,1.1,5c0,2.1-0.3,3.5-0.8,4.2
		c-0.5,0.7-1.5,1.2-3.1,1.3c1.4,0.3,2.3,0.8,2.8,1.4c0.5,0.6,0.8,1.1,0.9,1.6c0.1,0.5,0.2,1.8,0.2,4v7.1h-6.5V224
		c0-1.4-0.1-2.3-0.3-2.7c-0.2-0.3-0.8-0.5-1.8-0.5v12.1h-7V206z M31.4,210.6v6c0.8,0,1.3-0.1,1.7-0.3c0.3-0.2,0.5-0.9,0.5-2.1v-1.5
		c0-0.9-0.2-1.4-0.5-1.7C32.8,210.7,32.2,210.6,31.4,210.6z"/>
	<path class="st33" d="M48.7,206h4.9c3.3,0,5.5,0.1,6.7,0.4c1.2,0.3,2.1,0.9,2.9,2c0.7,1,1.1,2.7,1.1,5c0,2.1-0.3,3.5-0.8,4.2
		c-0.5,0.7-1.5,1.2-3.1,1.3c1.4,0.3,2.3,0.8,2.8,1.4c0.5,0.6,0.8,1.1,0.9,1.6c0.1,0.5,0.2,1.8,0.2,4v7.1h-6.5V224
		c0-1.4-0.1-2.3-0.3-2.7c-0.2-0.3-0.8-0.5-1.8-0.5v12.1h-7V206z M55.7,210.6v6c0.8,0,1.3-0.1,1.7-0.3c0.3-0.2,0.5-0.9,0.5-2.1v-1.5
		c0-0.9-0.2-1.4-0.5-1.7C57.1,210.7,56.5,210.6,55.7,210.6z"/>
	<path class="st33" d="M78.7,206v5.4l-5.2,16.1h5.2v5.4H65.9V229l5.4-17.6h-4.7V206H78.7z"/>
	<path class="st33" d="M101.3,214.1h-6.5v-2c0-0.9-0.1-1.5-0.2-1.8s-0.4-0.4-0.8-0.4c-0.4,0-0.7,0.2-1,0.5c-0.2,0.3-0.3,0.9-0.3,1.6
		c0,0.9,0.1,1.6,0.4,2c0.2,0.5,0.9,1,2,1.6c3.1,1.8,5.1,3.4,5.9,4.5c0.8,1.2,1.2,3.1,1.2,5.7c0,1.9-0.2,3.3-0.7,4.2
		s-1.3,1.7-2.6,2.3c-1.3,0.6-2.8,0.9-4.5,0.9c-1.9,0-3.5-0.4-4.8-1.1c-1.3-0.7-2.2-1.6-2.6-2.7c-0.4-1.1-0.6-2.7-0.6-4.7v-1.8h6.5
		v3.3c0,1,0.1,1.7,0.3,1.9s0.5,0.4,1,0.4s0.8-0.2,1-0.5c0.2-0.4,0.3-0.9,0.3-1.6c0-1.6-0.2-2.6-0.6-3.1c-0.4-0.5-1.5-1.3-3.3-2.4
		c-1.7-1.2-2.9-2-3.5-2.5s-1-1.2-1.4-2.2c-0.4-0.9-0.6-2.1-0.6-3.5c0-2.1,0.3-3.6,0.8-4.5c0.5-1,1.4-1.7,2.5-2.2
		c1.2-0.5,2.6-0.8,4.2-0.8c1.8,0,3.4,0.3,4.6,0.9c1.3,0.6,2.1,1.3,2.5,2.2c0.4,0.9,0.6,2.4,0.6,4.5V214.1z"/>
	<path class="st33" d="M124.9,214.2h-6.5v-2c0-0.9-0.1-1.5-0.2-1.8s-0.4-0.4-0.8-0.4c-0.4,0-0.7,0.2-1,0.5c-0.2,0.3-0.3,0.9-0.3,1.6
		c0,0.9,0.1,1.6,0.4,2c0.2,0.5,0.9,1,2,1.6c3.1,1.8,5.1,3.4,5.9,4.5c0.8,1.2,1.2,3.1,1.2,5.7c0,1.9-0.2,3.3-0.7,4.2
		s-1.3,1.7-2.6,2.3c-1.3,0.6-2.8,0.9-4.5,0.9c-1.9,0-3.5-0.4-4.8-1.1s-2.2-1.6-2.6-2.7c-0.4-1.1-0.6-2.7-0.6-4.7v-1.8h6.5v3.3
		c0,1,0.1,1.7,0.3,1.9s0.5,0.4,1,0.4s0.8-0.2,1-0.5s0.3-0.9,0.3-1.6c0-1.6-0.2-2.6-0.6-3.1c-0.4-0.5-1.5-1.3-3.3-2.4
		c-1.7-1.2-2.9-2-3.5-2.5s-1-1.2-1.4-2.2s-0.6-2.1-0.6-3.5c0-2.1,0.3-3.6,0.8-4.5s1.4-1.7,2.5-2.2c1.2-0.5,2.6-0.8,4.2-0.8
		c1.8,0,3.4,0.3,4.6,0.9s2.1,1.3,2.5,2.2c0.4,0.9,0.6,2.4,0.6,4.5V214.2z M122.9,200.7l-5.5,4.5H114l2.9-4.5H122.9z"/>
	<path class="st33" d="M147.8,206v5.4h-4.2v21.5h-7v-21.5h-4.1V206H147.8z"/>
	<path class="st33" d="M171.2,206v18c0,2-0.1,3.5-0.2,4.3c-0.1,0.8-0.5,1.7-1.2,2.5c-0.7,0.9-1.5,1.5-2.6,2
		c-1.1,0.4-2.3,0.7-3.8,0.7c-1.6,0-3-0.3-4.2-0.8s-2.1-1.2-2.8-2.1c-0.6-0.9-1-1.8-1.1-2.7c-0.1-0.9-0.2-2.9-0.2-6V206h7v20.2
		c0,1.2,0.1,1.9,0.2,2.2c0.1,0.3,0.4,0.5,0.8,0.5c0.4,0,0.7-0.2,0.9-0.5c0.1-0.4,0.2-1.2,0.2-2.5V206H171.2z"/>
</g>
<g class="st32">
	<path class="st33" d="M55.8,238l-3.1,26.9H44c-0.8-4.1-1.5-8.8-2.1-14.1c-0.3,2.3-0.9,7-1.9,14.1h-8.7L28.1,238h6.8l0.7,9.4
		l0.7,9.1c0.3-4.7,0.9-10.8,1.9-18.4h7.3c0.1,0.8,0.4,3.7,0.8,8.9l0.8,10.2c0.4-6.5,1-12.9,2-19.1H55.8z"/>
	<path class="st33" d="M78.1,238L73,255.2v9.7h-6.5v-9.7L61.6,238H68c1,5.2,1.6,8.8,1.7,10.6c0.4-2.9,1-6.4,1.9-10.6H78.1z"/>
	<path class="st33" d="M97,238v5.4l-5.2,16.1H97v5.4H84.1V261l5.4-17.6h-4.7V238H97z"/>
	<path class="st33" d="M116.5,238v5.4l-5.2,16.1h5.2v5.4h-12.9V261l5.4-17.6h-4.7V238H116.5z M115.3,232.7l-5.5,4.5h-3.4l2.9-4.5
		H115.3z"/>
	<path class="st33" d="M136,238v5.4l-5.2,16.1h5.2v5.4h-12.9V261l5.4-17.6h-4.7V238H136z M132,232.8v4.3h-4.3v-4.3H132z"/>
	<path class="st33" d="M152.6,246.1h-6.5v-2c0-0.9-0.1-1.5-0.2-1.8s-0.4-0.4-0.8-0.4c-0.4,0-0.7,0.2-1,0.5c-0.2,0.3-0.3,0.9-0.3,1.6
		c0,0.9,0.1,1.6,0.4,2c0.2,0.5,0.9,1,2,1.6c3.1,1.8,5.1,3.4,5.9,4.5s1.2,3.1,1.2,5.7c0,1.9-0.2,3.3-0.7,4.2s-1.3,1.7-2.6,2.3
		c-1.3,0.6-2.8,0.9-4.5,0.9c-1.9,0-3.5-0.4-4.8-1.1c-1.3-0.7-2.2-1.6-2.6-2.7s-0.6-2.7-0.6-4.7v-1.8h6.5v3.3c0,1,0.1,1.7,0.3,1.9
		s0.5,0.4,1,0.4s0.8-0.2,1-0.5c0.2-0.4,0.3-0.9,0.3-1.6c0-1.6-0.2-2.6-0.6-3.1c-0.4-0.5-1.5-1.3-3.3-2.4c-1.7-1.2-2.9-2-3.5-2.5
		s-1-1.2-1.4-2.2c-0.4-0.9-0.6-2.1-0.6-3.5c0-2.1,0.3-3.6,0.8-4.5c0.5-1,1.4-1.7,2.5-2.2c1.2-0.5,2.6-0.8,4.2-0.8
		c1.8,0,3.4,0.3,4.6,0.9s2.1,1.3,2.5,2.2c0.4,0.9,0.6,2.4,0.6,4.5V246.1z"/>
	<path class="st33" d="M167,238v5.4l-5.2,16.1h5.2v5.4h-12.9V261l5.4-17.6h-4.7V238H167z"/>
</g>
<g class="st32">
	<path class="st34" d="M22.5,15.9v15.8h-3.9v-8.5c0-1.2,0-2-0.1-2.2s-0.2-0.4-0.5-0.6s-0.9-0.2-1.8-0.2h-0.4v-1.8
		c1.9-0.4,3.4-1.3,4.3-2.5H22.5z"/>
	<path class="st34" d="M33.3,21.3v5.3c0,1.2-0.1,2.1-0.2,2.6s-0.4,1.1-0.8,1.5s-0.9,0.8-1.5,1s-1.2,0.3-1.9,0.3
		c-0.9,0-1.7-0.1-2.4-0.3s-1.1-0.6-1.5-1s-0.6-0.9-0.8-1.5S24,27.9,24,26.8v-5.5c0-1.5,0.1-2.5,0.4-3.3s0.7-1.3,1.5-1.7
		s1.6-0.7,2.7-0.7c0.9,0,1.6,0.2,2.3,0.5s1.2,0.7,1.5,1.1s0.6,0.9,0.7,1.5S33.3,20.1,33.3,21.3z M29.4,20c0-0.8,0-1.4-0.1-1.6
		s-0.3-0.3-0.6-0.3c-0.3,0-0.5,0.1-0.6,0.3S28,19.1,28,20v7.7c0,0.9,0,1.5,0.1,1.7s0.3,0.3,0.6,0.3s0.5-0.1,0.6-0.3s0.1-0.7,0.1-1.5
		V20z"/>
</g>
</svg>
