<?xml version="1.0" encoding="utf-8"?>
<!-- Generator: Adobe Illustrator 26.0.3, SVG Export Plug-In . SVG Version: 6.00 Build 0)  -->
<svg version="1.1" id="Слой_1" xmlns="http://www.w3.org/2000/svg" xmlns:xlink="http://www.w3.org/1999/xlink" x="0px" y="0px"
	 viewBox="0 0 195.6 280.6" style="enable-background:new 0 0 195.6 280.6;" xml:space="preserve">
<style type="text/css">
	.st0{clip-path:url(#SVGID_00000083070494314248434030000009593387041294469776_);fill:#D3AC82;}
	.st1{fill:#1A1A1A;}
	.st2{font-family:'Impact';}
	.st3{font-size:36px;}
	.st4{clip-path:url(#SVGID_00000083070494314248434030000009593387041294469776_);fill:#956B6B;}
	.st5{clip-path:url(#SVGID_00000083070494314248434030000009593387041294469776_);fill:#1A1A1A;}
	.st6{clip-path:url(#SVGID_00000083070494314248434030000009593387041294469776_);fill:#FFFFFF;}
	.st7{clip-path:url(#SVGID_00000083070494314248434030000009593387041294469776_);fill:#6B5052;}
	.st8{clip-path:url(#SVGID_00000083070494314248434030000009593387041294469776_);fill:#B69289;}
	.st9{clip-path:url(#SVGID_00000083070494314248434030000009593387041294469776_);fill:#AF1739;}
	.st10{clip-path:url(#SVGID_00000083070494314248434030000009593387041294469776_);fill:#EB5775;}
	.st11{clip-path:url(#SVGID_00000083070494314248434030000009593387041294469776_);fill:#BADBE9;}
	.st12{clip-path:url(#SVGID_00000083070494314248434030000009593387041294469776_);fill:#8BB0CC;}
	.st13{clip-path:url(#SVGID_00000083070494314248434030000009593387041294469776_);fill:#F293A2;}
	.st14{clip-path:url(#SVGID_00000083070494314248434030000009593387041294469776_);fill:#EBD3AE;}
	.st15{clip-path:url(#SVGID_00000083070494314248434030000009593387041294469776_);fill:#5DA240;}
	.st16{clip-path:url(#SVGID_00000083070494314248434030000009593387041294469776_);fill:#93C466;}
	.st17{clip-path:url(#SVGID_00000083070494314248434030000009593387041294469776_);fill:#D2B7A7;}
	.st18{clip-path:url(#SVGID_00000083070494314248434030000009593387041294469776_);enable-background:new    ;}
	.st19{fill:#FFFFFF;}
	.st20{font-size:20px;}
</style>
<g>
	<defs>
		<rect id="SVGID_1_" x="0" y="0" width="195.6" height="280.6"/>
	</defs>
	<clipPath id="SVGID_00000056406751932684548360000003431058120095985803_">
		<use xlink:href="#SVGID_1_"  style="overflow:visible;"/>
	</clipPath>
	
		<rect x="-5" y="-7.6" style="clip-path:url(#SVGID_00000056406751932684548360000003431058120095985803_);fill:#D3AC82;" width="209" height="297.6"/>
	<text transform="matrix(1 0 0 1 11.98 236.2)" class="st1 st2 st3">uwielbiamy</text>
	<text transform="matrix(1 0 0 1 26.52 270.2)" class="st1 st2 st3">ziemniaki</text>
	<path style="clip-path:url(#SVGID_00000056406751932684548360000003431058120095985803_);fill:#956B6B;" d="M91.9,166.5
		c1.6-12.1,7.3-13.9,11-13.4s8.7,3.6,7.1,15.8s-7.9,28.9-12.9,28.2S90.4,178.6,91.9,166.5L91.9,166.5z"/>
	<path style="clip-path:url(#SVGID_00000056406751932684548360000003431058120095985803_);fill:#1A1A1A;" d="M103.2,150.6
		c-3-0.4-6.1,0.5-8.3,2.6c-2.7,2.4-4.7,6.5-5.5,13c-0.8,6.7-0.8,13.6,0.1,20.3c0.3,2.8,1,5.6,2.1,8.3c1,2.3,2.4,4.5,5.2,4.9
		s4.7-1.4,6.2-3.4c1.7-2.3,3.1-4.8,4.2-7.5c2.6-6.3,4.4-12.9,5.4-19.6c0.8-6.4,0-10.9-2-14C108.9,152.7,106.2,151,103.2,150.6
		L103.2,150.6z M102.6,155.6c1.6,0.2,2.9,1,3.7,2.4c1.1,1.7,2,4.8,1.2,10.5c-0.9,6.3-2.6,12.4-5,18.2c-0.9,2.3-2.1,4.4-3.5,6.4
		c-0.4,0.6-1,1.1-1.6,1.4c-0.5-0.5-0.9-1.1-1.1-1.8c-0.9-2.3-1.5-4.6-1.7-7c-0.8-6.3-0.9-12.6-0.1-18.9c0.8-5.7,2.4-8.5,3.9-9.9
		C99.4,155.9,101,155.4,102.6,155.6L102.6,155.6z"/>
	<path style="clip-path:url(#SVGID_00000056406751932684548360000003431058120095985803_);fill:#956B6B;" d="M45.3,167.7
		c0-12.2,5.4-14.7,9.1-14.7s9.1,2.4,9.1,14.7s-4.1,29.7-9.1,29.7S45.3,179.9,45.3,167.7L45.3,167.7z"/>
	<path style="clip-path:url(#SVGID_00000056406751932684548360000003431058120095985803_);fill:#1A1A1A;" d="M54.5,150.4
		c-3,0-5.9,1.3-7.9,3.7c-2.3,2.8-3.8,7.1-3.8,13.6c0.1,6.8,1,13.6,2.8,20.1c0.7,2.8,1.8,5.5,3.2,8c1.3,2.1,3,4.1,5.7,4.1
		s4.5-2,5.7-4.1c1.4-2.5,2.5-5.2,3.2-8c1.8-6.6,2.7-13.3,2.8-20.1c0-6.5-1.4-10.8-3.8-13.6C60.4,151.8,57.5,150.4,54.5,150.4z
		 M54.5,155.5c1.6,0,3,0.6,4,1.9c1.3,1.5,2.6,4.6,2.6,10.3c-0.1,6.3-0.9,12.6-2.6,18.7c-0.6,2.3-1.5,4.6-2.6,6.7
		c-0.3,0.6-0.8,1.2-1.4,1.6c-0.6-0.4-1-1-1.4-1.6c-1.2-2.1-2-4.4-2.6-6.7c-1.6-6.1-2.5-12.4-2.6-18.7c0-5.8,1.3-8.8,2.6-10.3
		C51.4,156.2,52.9,155.5,54.5,155.5L54.5,155.5z"/>
	<path style="clip-path:url(#SVGID_00000056406751932684548360000003431058120095985803_);fill:#956B6B;" d="M141.1,115.7
		c-12.1-1.6-13.9-7.3-13.4-11c0.5-3.7,3.6-8.7,15.8-7.1s28.9,7.9,28.2,12.9S153.2,117.3,141.1,115.7L141.1,115.7z"/>
	<path style="clip-path:url(#SVGID_00000056406751932684548360000003431058120095985803_);fill:#1A1A1A;" d="M125.2,104.4
		c-0.4,3,0.5,6.1,2.6,8.3c2.4,2.7,6.5,4.7,13,5.5c6.7,0.8,13.6,0.8,20.3-0.1c2.8-0.3,5.6-1,8.3-2.1c2.3-1,4.5-2.4,4.9-5.1
		s-1.4-4.7-3.4-6.2c-2.3-1.7-4.8-3.1-7.5-4.2c-6.3-2.6-12.9-4.4-19.6-5.4c-6.4-0.8-10.9,0-14,2C127.2,98.8,125.5,101.4,125.2,104.4
		L125.2,104.4z M130.2,105.1c0.2-1.5,1-2.9,2.4-3.7c1.7-1.1,4.9-1.9,10.6-1.2c6.3,0.9,12.4,2.6,18.2,5c2.2,0.9,4.4,2.1,6.3,3.5
		c0.6,0.4,1.1,0.9,1.4,1.6c-0.5,0.5-1.1,0.9-1.8,1.2c-2.3,0.9-4.6,1.4-7,1.7c-6.3,0.8-12.6,0.9-18.9,0.1c-5.7-0.8-8.5-2.4-9.9-3.9
		C130.4,108.2,129.9,106.6,130.2,105.1L130.2,105.1z"/>
	<path style="clip-path:url(#SVGID_00000056406751932684548360000003431058120095985803_);fill:#956B6B;" d="M6.7,98.1
		c9.7-7.5,15-4.7,17.2-1.7s3.6,8.7-6.1,16.2s-26,14.8-29.1,10.8S-3,105.6,6.7,98.1z"/>
	<path style="clip-path:url(#SVGID_00000056406751932684548360000003431058120095985803_);fill:#1A1A1A;" d="M26,94.9
		c-1.9-2.4-4.7-3.9-7.7-4c-3.6-0.2-7.9,1.3-13.1,5.3c-5.4,4.2-10.2,9-14.3,14.4c-1.8,2.3-3.2,4.7-4.4,7.3c-0.9,2.3-1.5,4.9,0.2,7.1
		s4.3,2.3,6.8,2c2.8-0.4,5.6-1.2,8.2-2.3c6.3-2.6,12.2-6,17.7-10.1c5.1-4,7.7-7.7,8.5-11.3C28.5,100.4,27.8,97.3,26,94.9z M22,98
		c1,1.2,1.4,2.8,1,4.3c-0.4,2-2,4.8-6.6,8.3c-5.1,3.8-10.6,7-16.5,9.4c-2.2,0.9-4.5,1.6-6.9,2c-0.7,0.1-1.4,0.1-2.1-0.1
		c0-0.7,0.2-1.4,0.5-2.1c1-2.2,2.2-4.3,3.7-6.2c3.8-5,8.3-9.6,13.3-13.5c4.6-3.5,7.7-4.3,9.7-4.2C19.6,96,21,96.7,22,98L22,98z"/>
	<path style="clip-path:url(#SVGID_00000056406751932684548360000003431058120095985803_);fill:#1A1A1A;" d="M71.1,34.1
		c-10.5,1.6-17.9,8.3-26.1,12c-9.8,4.4-20,6.8-28.1,16.5c-4.3,5.1-5.7,11-6.3,16.4s-0.8,10.7-2,15.4c-1.3,5.1-3.1,9.4-4.3,14.1
		c-1.4,5.2-1.6,10.7-0.5,16c1.2,5.5,3.9,10.6,7.7,14.8c3.3,3.9,6.9,7.2,10.1,11.3s5.6,8.8,8.7,13.5s7,9.4,13,12.2
		c11.8,5.4,22.8,1.5,33.1,1.2c4.7-0.1,10.1,1.2,15.9,2.1s12.2,1.3,18.3-1.9c5.8-3.1,9.4-7.7,12.2-12.3s4.9-9.2,7.9-13.3
		s7.1-7.6,11.1-11.8s7.9-9,9.5-15.4c1.7-6.6-0.1-12.6-2.2-18s-4.5-10.2-5.5-15c-1-5-1-9.9-1.6-15s-2.1-10.6-6.4-15.5
		s-9.7-7.2-14.7-8.7s-9.8-2.5-14.1-4.7c-9.1-4.6-17.8-14.3-31.1-14.4C74.3,33.6,72.7,33.8,71.1,34.1L71.1,34.1z M75.8,41.9
		c9.1,0,16.5,7.9,27.4,13.5c5.6,2.9,11,3.9,15.5,5.2s7.9,2.8,10.8,6.2c2.9,3.4,3.9,6.9,4.5,11.2s0.5,9.6,1.7,15.6
		c1.3,6.2,4,11.6,5.9,16.4s2.9,8.9,1.9,13c-1.1,4.3-3.8,7.9-7.5,11.7s-8.1,7.6-11.8,12.6s-5.9,9.9-8.4,13.9s-4.9,7.2-9,9.3
		c-3.8,2-8,1.9-13.2,1.1s-11.1-2.4-17.4-2.2c-11.9,0.4-20.9,3.5-29.5-0.4c-4.1-1.9-6.9-5.1-9.7-9.2s-5.3-9.3-9.1-14.1
		s-7.5-8.2-10.3-11.5s-4.9-6.5-5.9-11.2c-0.9-4.1-0.8-8.3,0.4-12.3c1-4,2.8-8.4,4.3-14.1c1.5-6,1.6-11.6,2.2-16.5s1.6-8.7,4.5-12.2
		c6.3-7.5,14.7-9.6,25.2-14.3C59.4,48.6,66.4,41.8,75.8,41.9L75.8,41.9z"/>
	<path style="clip-path:url(#SVGID_00000056406751932684548360000003431058120095985803_);fill:#FFFFFF;" d="M45,172.7
		C34.9,168,31.7,157,24.8,148.2s-14.7-13.5-17-24.4s2-17.5,4.7-28.3s0.3-21.7,7.5-30.3s16.5-10.8,26.7-15.4s17.9-12,29.1-12
		s19.3,8.9,29.3,13.9s20.3,4,27.5,12.4s4.9,17.7,7.1,28.7s10.4,20.4,7.7,31.2s-13.3,16.8-19.9,25.7s-8.8,19.2-18.7,24.4
		s-21.3-1.1-32.5-0.7S55.2,177.4,45,172.7L45,172.7z"/>
	<path style="clip-path:url(#SVGID_00000056406751932684548360000003431058120095985803_);fill:#6B5052;" d="M45,172.7
		C34.9,168,31.7,157,24.8,148.2s-14.7-13.5-17-24.4s2-17.5,4.7-28.3s0.3-21.7,7.5-30.3s16.5-10.8,26.7-15.4s17.9-12,29.1-12
		s19.3,8.9,29.3,13.9s20.3,4,27.5,12.4s4.9,17.7,7.1,28.7s10.4,20.4,7.7,31.2s-13.3,16.8-19.9,25.7s-8.8,19.2-18.7,24.4
		s-21.3-1.1-32.5-0.7S55.2,177.4,45,172.7L45,172.7z"/>
	<path style="clip-path:url(#SVGID_00000056406751932684548360000003431058120095985803_);fill:#956B6B;" d="M75.8,37.8
		c-11.2,0-18.9,7.4-29.1,12c-5,2.2-9.7,3.9-14.1,6c-1,1.8-2.1,3.5-3.3,5.2c-6.8,8.2-4.5,18.5-7.1,28.8s-6.7,16.5-4.5,26.9
		s9.6,14.8,16.2,23.2s9.6,18.8,19.2,23.3s19.2,1.1,29.8,0.8s21.4,5.6,30.8,0.6c3-1.6,5.7-3.5,8.3-5.7c1.6-3.2,3.5-6.2,5.6-9.1
		c6.6-8.9,17.2-15,19.9-25.7s-5.5-20.2-7.7-31.2s0.1-20.3-7.1-28.7s-17.6-7.3-27.5-12.4S87,37.8,75.8,37.8z"/>
	<path style="clip-path:url(#SVGID_00000056406751932684548360000003431058120095985803_);fill:#B69289;" d="M79.2,49.5
		c-8.8,0-14.9,5.9-22.9,9.5c-5.3,2.4-10,3.4-13.8,8.8c-4.8,6.9-3.6,14.6-5.6,22.7s-5.3,13.1-3.6,21.2S40.9,123.4,46,130
		c5.1,6.6,7.6,14.9,15.2,18.4s15.1,0.9,23.5,0.6s16.9,4.4,24.3,0.5c5.7-3,7.2-6.3,10.9-11.7c5-7.2,13.6-11.8,15.7-20.3
		s-4.3-15.9-6.1-24.6s0.1-16-5.6-22.6s-13.9-5.8-21.7-9.8S88,49.5,79.2,49.5L79.2,49.5z"/>
	<path style="clip-path:url(#SVGID_00000056406751932684548360000003431058120095985803_);fill:#1A1A1A;" d="M71.6,37.1
		C62.1,38.6,55,45,46.3,48.9c-10.1,4.5-19.6,6.8-27,15.7c-3.8,4.5-5,9.6-5.6,14.9S12.9,90,11.6,95.3s-3.1,9.7-4.3,14.1
		c-1.3,4.8-1.5,9.8-0.5,14.6c1.1,5,3.5,9.6,7,13.4c3.2,3.7,6.8,7.1,10.2,11.4s5.9,9.2,8.9,13.7s6.5,8.6,11.8,11.1
		c10.6,4.9,20.9,1.2,31.8,0.9c5.3-0.2,10.9,1.3,16.5,2.1s11.2,1.2,16.4-1.6s8.3-6.8,11-11.2s4.8-9.2,8.1-13.5
		c3.2-4.4,7.5-8.1,11.4-12.1s7.3-8.4,8.8-14s0-11-2-16.1s-4.7-10.2-5.8-15.5s-1.1-10.4-1.7-15.2s-1.9-9.5-5.7-13.9
		s-8.4-6.3-13.2-7.8s-9.8-2.4-14.6-4.9c-9.8-5-18-14-29.7-14C74.4,36.8,73,36.9,71.6,37.1L71.6,37.1z M75.8,38.8
		c10.7,0,18.6,8.6,28.8,13.8c5.1,2.6,10.3,3.7,15,5s8.8,3.2,12.2,7.2s4.6,8.2,5.2,12.8s0.6,9.8,1.7,15.4s3.8,10.8,5.8,15.9
		s3.2,9.8,2,14.9s-4.5,9.2-8.3,13.1s-8.1,7.7-11.5,12.3s-5.6,9.4-8.2,13.7s-5.4,8-10.2,10.4s-9.7,2.2-15.1,1.4s-11.1-2.4-16.9-2.2
		c-11.3,0.4-21.1,3.8-30.8-0.7c-4.8-2.2-8-6-10.9-10.3s-5.4-9.4-9-13.9s-7.2-7.9-10.2-11.4c-3.3-3.5-5.5-7.8-6.6-12.5
		c-1-4.5-0.8-9.2,0.5-13.7c1.1-4.3,2.9-8.7,4.3-14.1s1.5-11,2.1-16.1s1.8-9.7,5.2-13.8c7-8.3,16-10.5,26.3-15.1S65,38.8,75.8,38.8z"
		/>
	<path style="clip-path:url(#SVGID_00000056406751932684548360000003431058120095985803_);fill:#1A1A1A;" d="M97.8,155.9
		c0-1.9,1.6-3.4,3.5-3.4c1.9,0,3.4,1.6,3.4,3.5c0,1.9-1.6,3.4-3.5,3.4c-0.9,0-1.8-0.4-2.4-1C98.2,157.7,97.8,156.8,97.8,155.9z"/>
	<path style="clip-path:url(#SVGID_00000056406751932684548360000003431058120095985803_);fill:#1A1A1A;" d="M25.5,108.2
		c0-1.1,0.9-2,2-2s2,0.9,2,2c0,0.5-0.2,1-0.6,1.4c-0.8,0.7-2.1,0.7-2.8-0.1C25.8,109.2,25.6,108.7,25.5,108.2L25.5,108.2z"/>
	<path style="clip-path:url(#SVGID_00000056406751932684548360000003431058120095985803_);fill:#1A1A1A;" d="M79,61.5
		c-0.2-1.1,0.5-2.1,1.5-2.4c1.1-0.2,2.1,0.5,2.4,1.5c0.1,0.3,0.1,0.6,0,0.8c0,0.5-0.2,1-0.6,1.4c-0.4,0.4-0.9,0.6-1.4,0.6
		c-0.5,0-1-0.2-1.4-0.6C79.2,62.5,79,62,79,61.5z"/>
	<path style="clip-path:url(#SVGID_00000056406751932684548360000003431058120095985803_);fill:#1A1A1A;" d="M103.1,61.1
		c-0.1-1.1,0.8-2,1.9-2.1c1.1-0.1,2,0.8,2.1,1.9c0,0.6-0.2,1.2-0.7,1.6c-0.4,0.4-0.9,0.6-1.4,0.6C104,63.1,103.1,62.3,103.1,61.1
		C103.1,61.2,103.1,61.1,103.1,61.1L103.1,61.1z"/>
	<path style="clip-path:url(#SVGID_00000056406751932684548360000003431058120095985803_);fill:#1A1A1A;" d="M62.3,62.3
		c0-1.9,1.5-3.5,3.4-3.5c1.9,0,3.4,1.6,3.4,3.5s-1.6,3.4-3.4,3.4C63.8,65.8,62.3,64.2,62.3,62.3z"/>
	<path style="clip-path:url(#SVGID_00000056406751932684548360000003431058120095985803_);fill:#1A1A1A;" d="M106.2,145.1
		c0-3.1,2.5-3.6,5.6-3.6s5.6,0.5,5.6,3.6c-0.1,2.8-2.3,5-5.1,5C109.2,150,106.2,148.2,106.2,145.1z"/>
	<path style="clip-path:url(#SVGID_00000056406751932684548360000003431058120095985803_);fill:#1A1A1A;" d="M121.7,123.1
		c0-3.4,2.8-4.2,6.2-4.2c3.4,0,6.1,0.8,6.1,4.2s-2.2,6.5-5.6,6.5C124.8,129.4,121.9,126.6,121.7,123.1z"/>
	<path style="clip-path:url(#SVGID_00000056406751932684548360000003431058120095985803_);fill:#1A1A1A;" d="M109.3,144.7
		c0-1.8,1.5-2.1,3.3-2.1s3.3,0.3,3.3,2.1c0,1.7-1.3,3-3,3C111.2,147.7,109.4,146.6,109.3,144.7L109.3,144.7z"/>
	<path style="clip-path:url(#SVGID_00000056406751932684548360000003431058120095985803_);fill:#1A1A1A;" d="M38.6,153.1
		c-2.8-1.2-2.4-3.7-1.2-6.5s2.6-5,5.5-3.8c2.5,1.1,3.7,4,2.7,6.6C44.3,152.2,41.5,154.3,38.6,153.1z"/>
	<path style="clip-path:url(#SVGID_00000056406751932684548360000003431058120095985803_);fill:#1A1A1A;" d="M41.3,150.5
		c-1.5-0.6-1.3-2-0.6-3.5s1.4-2.6,2.9-2c1.3,0.6,2,2.1,1.4,3.5C44.3,150,42.8,151.1,41.3,150.5L41.3,150.5z"/>
	<path style="clip-path:url(#SVGID_00000056406751932684548360000003431058120095985803_);fill:#1A1A1A;" d="M35.7,97.2
		c-1.8,3.2-4.8,2.4-8,0.6s-5.3-4-3.5-7.2s5.6-4.9,8.7-3C36.2,89.7,37.4,93.8,35.7,97.2L35.7,97.2z"/>
	<path style="clip-path:url(#SVGID_00000056406751932684548360000003431058120095985803_);fill:#1A1A1A;" d="M59,164
		c0-3.7,3-6.7,6.7-6.7c3.7,0,6.7,3,6.7,6.7s-3,6.7-6.7,6.7C62,170.7,59,167.7,59,164L59,164z"/>
	<path style="clip-path:url(#SVGID_00000056406751932684548360000003431058120095985803_);fill:#956B6B;" d="M110.5,103.8
		c0-3.7,3-6.7,6.7-6.8c3.7,0,6.7,3,6.8,6.7s-3,6.7-6.7,6.8c-1.8,0-3.5-0.7-4.8-1.9C111.3,107.3,110.5,105.6,110.5,103.8z"/>
	<path style="clip-path:url(#SVGID_00000056406751932684548360000003431058120095985803_);fill:#1A1A1A;" d="M114.2,81.4
		c-2.7,1.5-4.4-0.4-5.9-3s-2.3-5.1,0.3-6.6c2.4-1.3,5.5-0.5,6.8,1.9C117,76.4,116.9,79.9,114.2,81.4L114.2,81.4z"/>
	<path style="clip-path:url(#SVGID_00000056406751932684548360000003431058120095985803_);fill:#1A1A1A;" d="M113.3,77.6
		c-1.4,0.8-2.3-0.2-3.2-1.6s-1.3-2.7,0.2-3.5c1.3-0.7,2.9-0.3,3.7,1C114.8,74.9,114.7,76.7,113.3,77.6L113.3,77.6z"/>
	<path style="clip-path:url(#SVGID_00000056406751932684548360000003431058120095985803_);fill:#1A1A1A;" d="M106.1,98.4
		c-0.1-3.8-3.3-6.8-7.2-6.6c-3.6,0.1-6.5,3-6.6,6.6h-4.1c-0.5-6.1,4-11.4,10.1-11.8c6.1-0.5,11.4,4,11.8,10.1c0,0.6,0,1.2,0,1.8
		H106.1z"/>
	<path style="clip-path:url(#SVGID_00000056406751932684548360000003431058120095985803_);fill:#1A1A1A;" d="M62.8,98.4
		c0-3.8-3.1-6.9-6.9-6.9S49,94.6,49,98.4c0,0,0,0,0,0h-4.1c-0.4-6.1,4.1-11.3,10.2-11.8c6.1-0.4,11.3,4.1,11.8,10.2
		c0,0.5,0,1.1,0,1.6H62.8z"/>
	<path style="clip-path:url(#SVGID_00000056406751932684548360000003431058120095985803_);fill:#AF1739;" d="M66.4,107.2
		c-1.3,0-2.3,1-2.4,2.3c0,0,0,0,0,0.1v2.6c0.4,7.5,6.8,13.2,14.2,12.8c6.9-0.4,12.4-5.9,12.8-12.8v-2.6c0-1.3-1-2.3-2.3-2.3
		c0,0,0,0,0,0H66.4z"/>
	<path style="clip-path:url(#SVGID_00000056406751932684548360000003431058120095985803_);fill:#EB5775;" d="M77.6,116.4
		c-3.9,0-7.6,1.7-10.2,4.6c4.9,5.6,13.4,6.2,19.1,1.3c0.5-0.4,0.9-0.8,1.3-1.3C85.2,118.1,81.5,116.4,77.6,116.4L77.6,116.4z"/>
	<path style="clip-path:url(#SVGID_00000056406751932684548360000003431058120095985803_);fill:#FFFFFF;" d="M66.4,107.2
		c-1.3,0-2.3,1-2.4,2.3c0,0,0,0,0,0.1v2.3c8.5,4.1,18.5,4.1,27,0v-2.3c0-1.3-1-2.3-2.3-2.3c0,0,0,0,0,0L66.4,107.2z"/>
	<path style="clip-path:url(#SVGID_00000056406751932684548360000003431058120095985803_);fill:#BADBE9;" d="M87.4,107.2v3.6
		c0,1.3-0.2,2.2-1.1,2.8c1.6-0.5,3.2-1.1,4.7-1.8v-2.3c0-1.3-1-2.3-2.3-2.3c0,0,0,0,0,0H87.4z"/>
	<path style="clip-path:url(#SVGID_00000056406751932684548360000003431058120095985803_);fill:#BADBE9;" d="M66.4,107.2
		c-1.3,0-2.3,1-2.4,2.3c0,0,0,0,0,0.1v2.3c2.9,1.4,6.1,2.3,9.3,2.8c-1.6-0.4-2-2-2-3.8v-3.6H66.4z"/>
	<path style="clip-path:url(#SVGID_00000056406751932684548360000003431058120095985803_);fill:#8BB0CC;" d="M67.7,107.2v3.6
		c0,1.3,0.2,2.2,1.1,2.8c-1.6-0.5-3.2-1.1-4.8-1.8v-2.3c0-1.3,1-2.3,2.3-2.3c0,0,0,0,0,0H67.7z"/>
	<path style="clip-path:url(#SVGID_00000056406751932684548360000003431058120095985803_);fill:#1A1A1A;" d="M66.4,106.2
		c-1.9,0-3.4,1.5-3.4,3.3v2.6c0,8,6.5,14.5,14.5,14.5c8,0,14.5-6.5,14.5-14.5v-2.6c0-1.8-1.5-3.3-3.3-3.3H66.4z M88.7,108.2
		c0.7,0,1.3,0.5,1.3,1.3c0,0,0,0,0,0.1v2.6c0,6.9-5.6,12.5-12.5,12.5S65,119,65,112.1v-2.6c0-0.7,0.5-1.3,1.3-1.3c0,0,0,0,0.1,0
		H88.7z"/>
	<path style="clip-path:url(#SVGID_00000056406751932684548360000003431058120095985803_);fill:#1A1A1A;" d="M91.1,111.3
		c-8.6,4.2-18.6,4.2-27.2,0l-0.5,0.9c8.9,4.3,19.2,4.3,28,0L91.1,111.3z"/>
	<path style="clip-path:url(#SVGID_00000056406751932684548360000003431058120095985803_);fill:#F293A2;" d="M79.1,120
		c0-0.5,0.3-0.9,0.7-1.1c0.5-0.3,1-0.5,1.6-0.5c1.2,0,2.2,0.7,2.2,1.6s-1,1.6-2.2,1.6c-0.6,0-1.1-0.2-1.6-0.5
		C79.3,120.9,79.1,120.5,79.1,120z"/>
	<path style="clip-path:url(#SVGID_00000056406751932684548360000003431058120095985803_);fill:#1A1A1A;" d="M77.6,9.9
		c-8.3,0-16.6,1.2-24.6,3.7l-1.8,0.6l-3.4,25.4L25.1,57l2.8,2.5c1,0.8,2.2,1.5,3.4,2.1c2.9,1.3,6,2.1,9.1,2.2
		c4.3,0.3,7.5-1.1,10.2-2.1s4.8-1.7,8.1-1.3s5.1,1.8,7.8,3.6c6.6,5,15.7,5,22.3,0c2.6-1.8,4.5-3.2,7.8-3.6s5.4,0.2,8.1,1.2
		s5.9,2.4,10.2,2.1c3.2-0.2,6.3-0.9,9.1-2.2c1.2-0.6,2.3-1.3,3.4-2.1L130,57l-22.7-17.4L104,14.2l-1.8-0.6
		C94.2,11.1,85.9,9.9,77.6,9.9L77.6,9.9z M77.6,16c7.1,0,14.1,0.9,20.9,2.9l3.2,24l18,13.8c-1.7,0.6-3.4,0.9-5.2,1
		c-2.8,0.2-4.9-0.7-7.7-1.7c-3.5-1.5-7.3-2-11.1-1.6c-4.7,0.7-7.8,2.9-10.3,4.6s-4.2,2.7-7.8,2.7s-5.3-1.1-7.8-2.7
		s-5.6-3.9-10.3-4.6c-3.8-0.5-7.6,0.1-11.1,1.6c-2.8,1-4.8,1.9-7.7,1.7c-1.8-0.1-3.5-0.4-5.2-1l18-13.8l3.2-24
		C63.5,16.9,70.5,16,77.6,16L77.6,16z"/>
	<path style="clip-path:url(#SVGID_00000056406751932684548360000003431058120095985803_);fill:#EBD3AE;" d="M50.6,41.2L29.9,57.1
		c0,0,3.5,3.2,10.6,3.6s10.5-4.5,18.5-3.3s10,7.3,18.6,7.3s10.5-6.2,18.5-7.3s11.4,3.8,18.5,3.3s10.7-3.6,10.7-3.6l-20.8-15.9
		l-3.2-24.7c-15.4-4.8-31.9-4.8-47.3,0L50.6,41.2z"/>
	<path style="clip-path:url(#SVGID_00000056406751932684548360000003431058120095985803_);fill:#D3AC82;" d="M67.4,13.6
		c-4.6,0.6-9.1,1.5-13.5,2.9l-3.3,24.7L29.9,57.1c0,0,3.5,3.2,10.6,3.6c6.8,0.4,10.2-4.1,17.5-3.5l9.3-16.1V13.6z"/>
	<path style="clip-path:url(#SVGID_00000056406751932684548360000003431058120095985803_);fill:#FFFFFF;" d="M97.7,41.2L117,60.5
		c5.5-0.9,8.3-3.3,8.3-3.3l-20.8-15.9l-3.2-24.7c-2.3-0.7-4.6-1.4-7-1.9L97.7,41.2z"/>
	<path style="clip-path:url(#SVGID_00000056406751932684548360000003431058120095985803_);fill:#1A1A1A;" d="M77.6,11.9
		c-8.1,0-16.2,1.2-24,3.6l-0.6,0.2l-3.3,24.9L28.3,57.1l0.9,0.8c0.9,0.7,1.9,1.3,2.9,1.8c2.6,1.2,5.5,1.9,8.4,2c3.8,0.2,6.6-1,9.4-2
		c2.8-1.3,6-1.8,9.1-1.4c3.8,0.5,6,2.2,8.6,3.9c2.9,2.2,6.4,3.4,10,3.4c4.5,0,7.4-1.7,10-3.4s4.9-3.4,8.6-3.9
		c3.1-0.4,6.2,0.1,9.1,1.4c2.7,1,5.6,2.2,9.3,2c2.9-0.1,5.8-0.8,8.4-2.1c1-0.5,2-1.1,2.9-1.8l0.9-0.8l-21.4-16.4l-3.3-24.9l-0.6-0.2
		C93.7,13.1,85.6,11.9,77.6,11.9L77.6,11.9z M77.6,13.9c7.7,0,15.4,1.1,22.7,3.3l3.2,24.5l20,15.3c-0.4,0.3-0.9,0.5-1.4,0.7
		c-2.4,1.1-5,1.7-7.6,1.9c-3.3,0.2-5.8-0.8-8.5-1.9c-3.2-1.4-6.6-1.9-10.1-1.5c-4.2,0.6-6.9,2.6-9.4,4.2s-4.9,3.1-8.9,3.1
		s-6.4-1.4-8.9-3.1s-5.2-3.6-9.4-4.2c-3.4-0.4-6.9,0.1-10.1,1.5c-2.8,1-5.2,2.1-8.5,1.9c-2.6-0.1-5.2-0.8-7.6-1.9
		c-0.5-0.2-0.9-0.5-1.4-0.7l20-15.4l3.2-24.5C62.2,15.1,69.9,14,77.6,13.9L77.6,13.9z"/>
	
		<rect x="51.7" y="32.8" style="clip-path:url(#SVGID_00000056406751932684548360000003431058120095985803_);fill:#1A1A1A;" width="51.8" height="1.5"/>
	
		<rect x="50.6" y="40.5" style="clip-path:url(#SVGID_00000056406751932684548360000003431058120095985803_);fill:#1A1A1A;" width="53.8" height="1.5"/>
	<path style="clip-path:url(#SVGID_00000056406751932684548360000003431058120095985803_);fill:#1A1A1A;" d="M172.7,151.5l-8.8-8.8
		l-8.5,8.5l10.6,10.6c0.6,0.6,0.4,0.2,0.5,0.8c0.2,1.2,0.2,2.5,0.2,3.7V194h12v-27.8c0-1.2,0-2.5,0.2-3.7c0.1-0.6-0.1-0.2,0.5-0.8
		l10.6-10.6l-5.3-5.3l-3.1-3.1L172.7,151.5z"/>
	<path style="clip-path:url(#SVGID_00000056406751932684548360000003431058120095985803_);fill:#1A1A1A;" d="M155.7,134.9
		c-3.4-0.2-6.6,1.3-8.7,3.9c-2.5,3.3-2.2,7.4-1.1,10.7c1.2,3.4,3.4,6.3,6.3,8.5c2.7,2.2,6.1,3.3,9.6,3.1c6.5-0.6,11.3-6.4,10.6-12.9
		c0-0.3-0.1-0.5-0.1-0.8c-0.7-3.4-2.7-6.4-5.5-8.5c-2.9-2.2-6.3-3.5-9.9-3.9C156.6,135,156.1,134.9,155.7,134.9L155.7,134.9z
		 M155.2,143.8c0.3,0,0.7,0,1,0c1.9,0.2,3.7,0.9,5.2,2.1c1.1,0.7,1.8,1.8,2.1,3c0.2,1.6-0.9,3.1-2.5,3.3c0,0,0,0,0,0
		c-1.3,0-2.5-0.4-3.4-1.3c-1.5-1.2-2.7-2.7-3.4-4.5c-0.3-0.7-0.4-1.5-0.3-2.2C154.4,144,154.8,143.9,155.2,143.8L155.2,143.8z"/>
	<path style="clip-path:url(#SVGID_00000056406751932684548360000003431058120095985803_);fill:#1A1A1A;" d="M184.5,139.1
		c-0.7,0-1.5,0.1-2.2,0.3c-2.9,0.6-5.5,2.1-7.5,4.2c-2.1,2-3.4,4.7-3.6,7.6c-0.2,5.5,4.1,10.2,9.6,10.4c0.3,0,0.5,0,0.8,0
		c2.9-0.2,5.6-1.5,7.6-3.6c2.1-2.1,3.5-4.7,4.2-7.5c0.6-2.8,0.4-6.3-2.1-8.9C189.4,139.8,186.9,138.9,184.5,139.1L184.5,139.1z
		 M184.7,148c0,0.2,0,0.3-0.1,0.5c-0.3,1.2-0.9,2.3-1.8,3.2c-0.4,0.5-1,0.9-1.7,1c-0.3,0-0.6-0.1-0.7-0.3c-0.2-0.2-0.4-0.5-0.3-0.7
		c0.1-0.7,0.5-1.3,1-1.7c0.9-0.9,2-1.5,3.2-1.8C184.3,148.1,184.5,148,184.7,148L184.7,148z"/>
	<path style="clip-path:url(#SVGID_00000056406751932684548360000003431058120095985803_);fill:#1A1A1A;" d="M172.7,165.1
		c-5.4,0-10.5,2.2-14.2,6.2c-8.7-3.4-18.5,0.9-21.9,9.6c-3.4,8.7,0.9,18.5,9.6,21.9c2,0.8,4,1.1,6.1,1.1H193c9.3,0,16.9-7.5,17-16.8
		c0-9.3-7.5-16.9-16.8-17c-2.1,0-4.3,0.4-6.2,1.2C183.2,167.4,178.1,165.1,172.7,165.1L172.7,165.1z M172.7,174c3.7,0,7.2,2,9.1,5.2
		l2.5,4.3l4-2.9c3.6-2.6,8.6-1.8,11.2,1.7c1,1.4,1.5,3,1.5,4.7c0,4.4-3.5,8-7.9,8c0,0-0.1,0-0.1,0h-40.6c-4.4,0-8-3.6-8-8s3.6-8,8-8
		c1.7,0,3.4,0.5,4.8,1.6l4,2.9l2.5-4.3C165.5,176,169,174,172.7,174L172.7,174z"/>
	<path style="clip-path:url(#SVGID_00000056406751932684548360000003431058120095985803_);fill:#5DA240;" d="M161.7,151.1l7.5,7.5
		c0.8,0.8,1.4,1.8,1.7,2.9c0.3,1.6,0.4,3.1,0.3,4.7v23.3h3.1v-23.3c0.1-1.8-0.1-3.6-0.4-5.4c-0.4-1.7-1.3-3.2-2.5-4.4l-7.4-7.4
		L161.7,151.1z"/>
	<path style="clip-path:url(#SVGID_00000056406751932684548360000003431058120095985803_);fill:#5DA240;" d="M174.1,156.4
		c-1.2,1.2-2.1,2.7-2.5,4.4c-0.3,1.8-0.5,3.6-0.4,5.4v23.3h3.1v-23.3c-0.1-1.6,0-3.2,0.3-4.7c0.2-1.1,0.8-2.1,1.7-2.9l7.5-7.5
		l-2.2-2.1L174.1,156.4z"/>
	<path style="clip-path:url(#SVGID_00000056406751932684548360000003431058120095985803_);fill:#1A1A1A;" d="M173.6,156
		c-0.3,0.3-0.6,0.6-0.9,1c-0.3-0.3-0.6-0.7-0.9-1l-7.9-7.9l-3.1,3.1l7.9,7.9c0.8,0.7,1.3,1.6,1.5,2.6c0.3,1.5,0.4,3.1,0.3,4.6v23.9
		h4.4v-23.9c-0.1-1.5,0-3.1,0.3-4.6c0.2-1,0.7-1.9,1.5-2.6l7.9-7.9l-2.6-2.6l-0.4-0.4L173.6,156z M182.8,151.2l-7,7
		c-0.9,0.9-1.6,2-1.8,3.2c-0.3,1.6-0.4,3.2-0.3,4.9v22.6h-1.8v-22.7c0.1-1.6,0-3.3-0.3-4.9c-0.3-1.2-0.9-2.3-1.8-3.2l-7-7l1.3-1.3
		l7,7c0.5,0.5,0.9,1,1.3,1.6l0.5,0.9l0.5-0.9c0.4-0.6,0.8-1.1,1.3-1.6l7-7L182.8,151.2z"/>
	<path style="clip-path:url(#SVGID_00000056406751932684548360000003431058120095985803_);fill:#5DA240;" d="M164.2,142.4
		c-4.4-3.4-11.1-4.3-13.7-0.9s0,9.6,4.4,13s9.1,2.7,11.6-0.6S168.6,145.8,164.2,142.4L164.2,142.4z"/>
	<path style="clip-path:url(#SVGID_00000056406751932684548360000003431058120095985803_);fill:#93C466;" d="M166.5,153.8
		c-2.6,3.3-7.2,4.1-11.6,0.6s-7-9.6-4.4-13L166.5,153.8z"/>
	<path style="clip-path:url(#SVGID_00000056406751932684548360000003431058120095985803_);fill:#1A1A1A;" d="M155.7,138.7
		c-2.2-0.2-4.3,0.7-5.7,2.4c-1.5,1.9-1.4,4.5-0.5,7.1c1,2.7,2.7,5,5,6.8c2,1.6,4.5,2.5,7,2.3c4.4-0.4,7.6-4.3,7.2-8.7
		c0-0.2,0-0.3-0.1-0.5c-0.5-2.5-1.9-4.7-4-6.1c-2.3-1.7-5-2.8-7.9-3.1C156.4,138.8,156.1,138.8,155.7,138.7L155.7,138.7z M154.8,140
		c0.6-0.1,1.2-0.1,1.7,0c2.6,0.3,5.1,1.3,7.2,2.9c1.8,1.3,3.1,3.2,3.6,5.3c0.6,3.7-1.9,7.1-5.6,7.7c-0.1,0-0.3,0-0.4,0.1
		c-2.2,0.1-4.4-0.6-6.1-2.1c-2.1-1.6-3.7-3.8-4.6-6.2c-0.8-2.3-0.8-4.4,0.3-5.9C151.9,140.7,153.3,140.1,154.8,140L154.8,140z"/>
	<path style="clip-path:url(#SVGID_00000056406751932684548360000003431058120095985803_);fill:#5DA240;" d="M186,154.8
		c3-3,4.3-7.9,2.1-10.1s-7.2-0.9-10.1,2s-2.9,6.5-0.7,8.8S183,157.7,186,154.8L186,154.8z"/>
	<path style="clip-path:url(#SVGID_00000056406751932684548360000003431058120095985803_);fill:#93C466;" d="M177.2,155.4
		c-2.2-2.2-2.3-5.8,0.7-8.8s7.9-4.3,10.1-2L177.2,155.4z"/>
	<path style="clip-path:url(#SVGID_00000056406751932684548360000003431058120095985803_);fill:#1A1A1A;" d="M184.6,142.9
		c-0.5,0-1,0.1-1.5,0.2c-2.1,0.5-4.1,1.6-5.7,3.1c-1.4,1.3-2.3,3.1-2.5,5.1c-0.1,3.4,2.6,6.3,6,6.4c0.1,0,0.3,0,0.4,0
		c1.9-0.2,3.8-1,5.1-2.5c1.6-1.6,2.7-3.5,3.1-5.7c0.6-1.9,0.2-3.9-1.1-5.4C187.4,143.2,186,142.8,184.6,142.9L184.6,142.9z
		 M184.6,144.2c1.1-0.1,2.1,0.2,2.9,0.9c0.9,0.9,1.1,2.4,0.8,4.2c-0.5,1.9-1.4,3.6-2.8,5c-1.1,1.2-2.6,2-4.2,2.1
		c-2.7,0.1-5-2.1-5.1-4.8c0-0.1,0-0.2,0-0.3c0.1-1.6,0.9-3.1,2.1-4.2c1.4-1.4,3.1-2.3,5-2.8C183.7,144.2,184.1,144.2,184.6,144.2
		L184.6,144.2z"/>
	
		<rect x="152.4" y="187" style="clip-path:url(#SVGID_00000056406751932684548360000003431058120095985803_);fill:#6B5052;" width="40.6" height="12.4"/>
	<path style="clip-path:url(#SVGID_00000056406751932684548360000003431058120095985803_);fill:#6B5052;" d="M157.7,184.5
		c0-8.3,6.7-15,15-15c8.3,0,15,6.7,15,15c0,8.3-6.7,15-15,15c-4,0-7.8-1.6-10.6-4.4C159.3,192.3,157.7,188.5,157.7,184.5z"/>
	<path style="clip-path:url(#SVGID_00000056406751932684548360000003431058120095985803_);fill:#6B5052;" d="M180.6,187
		c0-6.9,5.6-12.5,12.5-12.4c6.9,0,12.5,5.6,12.4,12.5c0,6.9-5.6,12.5-12.5,12.4c0,0,0,0,0,0C186.1,199.5,180.6,193.9,180.6,187
		C180.6,187,180.6,187,180.6,187z"/>
	<path style="clip-path:url(#SVGID_00000056406751932684548360000003431058120095985803_);fill:#6B5052;" d="M139.9,187
		c0-6.9,5.6-12.5,12.4-12.5s12.5,5.6,12.5,12.4c0,6.9-5.6,12.5-12.4,12.5c0,0,0,0,0,0C145.5,199.5,139.9,193.9,139.9,187
		C139.9,187,139.9,187,139.9,187z"/>
	<path style="clip-path:url(#SVGID_00000056406751932684548360000003431058120095985803_);fill:#956B6B;" d="M193,174.6
		c-2.7,0-5.2,0.8-7.4,2.4c-0.1-0.2-0.2-0.3-0.3-0.5c-3.6,5-2.5,11.9,2.5,15.4c5,3.6,11.9,2.5,15.4-2.5c1-1.4,1.7-3.1,2-4.9
		C204,178.7,198.9,174.6,193,174.6L193,174.6z M152.4,174.6c-5.9,0-11,4.2-12.2,10c0.9,6,6.5,10.2,12.5,9.4s10.2-6.5,9.4-12.5
		c-0.3-1.8-0.9-3.4-2-4.9c-0.1,0.2-0.2,0.3-0.3,0.5C157.6,175.4,155,174.6,152.4,174.6L152.4,174.6z"/>
	<path style="clip-path:url(#SVGID_00000056406751932684548360000003431058120095985803_);fill:#956B6B;" d="M172.7,169.6
		c-5.3,0-10.3,2.8-12.9,7.4l-0.4-0.3c-2.7,7.4,1.1,15.5,8.5,18.2s15.5-1.1,18.2-8.5c1.1-3.1,1.1-6.6,0-9.7c-0.1,0.1-0.3,0.2-0.4,0.3
		C183,172.4,178,169.6,172.7,169.6L172.7,169.6z"/>
	<path style="clip-path:url(#SVGID_00000056406751932684548360000003431058120095985803_);fill:#B69289;" d="M182.1,172.9v0.4
		c0,6.9,5.6,12.5,12.4,12.5c3.7,0,7.2-1.6,9.6-4.5c-3.2-6.1-10.7-8.5-16.8-5.3c-0.6,0.3-1.1,0.6-1.6,1
		C184.7,175.4,183.5,174,182.1,172.9L182.1,172.9z M163.3,172.9c-1.4,1.1-2.6,2.5-3.5,4.1c-5.5-4.1-13.3-2.9-17.4,2.6
		c-0.4,0.5-0.7,1.1-1,1.7c4.4,5.3,12.3,6,17.5,1.6c2.8-2.4,4.5-5.9,4.5-9.6L163.3,172.9L163.3,172.9z"/>
	<path style="clip-path:url(#SVGID_00000056406751932684548360000003431058120095985803_);fill:#B69289;" d="M172.7,169.6
		c-0.3,0-0.7,0-1,0s-0.7,0.1-1,0.1s-0.6,0.1-1,0.2l-0.9,0.2c-0.3,0.1-0.6,0.2-0.9,0.3s-0.6,0.2-0.9,0.3s-0.6,0.3-0.9,0.4
		s-0.6,0.3-0.9,0.4s-0.6,0.3-0.8,0.5s-0.5,0.4-0.8,0.6s-0.5,0.4-0.8,0.6s-0.5,0.4-0.7,0.7s-0.4,0.5-0.7,0.7
		c-0.7,0.7-1.2,1.5-1.7,2.4c-0.3-0.2-0.5-0.4-0.8-0.6s-0.6-0.3-0.9-0.5c1.9,8.1,10,13.1,18,11.2c5.6-1.3,9.9-5.6,11.2-11.2
		c-0.3,0.1-0.6,0.3-0.9,0.5l0,0c-0.3,0.2-0.6,0.4-0.8,0.6c-0.5-0.9-1.1-1.7-1.7-2.4c-0.2-0.2-0.4-0.5-0.7-0.7s-0.5-0.4-0.7-0.7
		c-0.5-0.4-1-0.8-1.5-1.2c-1.3-0.9-2.8-1.6-4.4-2C175.3,169.7,174,169.5,172.7,169.6L172.7,169.6z"/>
	<path style="clip-path:url(#SVGID_00000056406751932684548360000003431058120095985803_);fill:#D2B7A7;" d="M172.7,169.6
		c-0.8,0-1.6,0.1-2.4,0.2c-0.1,0.3-0.1,0.7-0.1,1.1c0,3.7,3,6.7,6.7,6.7c2.6,0,5-1.5,6.1-3.9C180.2,171,176.5,169.6,172.7,169.6
		L172.7,169.6z"/>
	<path style="clip-path:url(#SVGID_00000056406751932684548360000003431058120095985803_);fill:#D2B7A7;" d="M193,174.6
		c-0.8,0-1.6,0.1-2.4,0.2v0.2c0,2.2,1.8,3.9,3.9,4c1.9,0,3.5-1.3,3.9-3.1C196.7,175,194.9,174.6,193,174.6L193,174.6z M152.4,174.6
		c-0.8,0-1.5,0.1-2.3,0.2v0.2c0,2.2,1.8,3.9,4,3.9c1.8,0,3.4-1.3,3.8-3C156.1,175,154.3,174.6,152.4,174.6L152.4,174.6z"/>
	<path style="clip-path:url(#SVGID_00000056406751932684548360000003431058120095985803_);fill:#1A1A1A;" d="M172.7,168.9
		c-5.3,0-10.3,2.7-13.1,7.2c-6-4-14.1-2.3-18.1,3.7c-4,6-2.3,14.1,3.7,18.1c2.1,1.4,4.7,2.2,7.2,2.2H193c7.2,0,13.1-5.8,13.1-13.1
		c0-7.2-5.8-13.1-13.1-13.1c-2.6,0-5.1,0.8-7.3,2.2C182.9,171.6,178,168.9,172.7,168.9L172.7,168.9z M172.7,170.2
		c5.1,0,9.8,2.7,12.4,7.1l0.4,0.6l0.6-0.4c5.3-3.9,12.7-2.8,16.5,2.5c3.9,5.3,2.8,12.7-2.5,16.5c-2,1.5-4.5,2.3-7,2.3h-40.6
		c-6.5,0-11.8-5.3-11.8-11.8s5.3-11.8,11.8-11.8c2.5,0,5,0.8,7,2.3l0.6,0.4l0.4-0.6C162.9,172.9,167.6,170.2,172.7,170.2
		L172.7,170.2z"/>
	<path style="clip-path:url(#SVGID_00000056406751932684548360000003431058120095985803_);fill:#956B6B;" d="M150.7,0h29h16v16
		c0,7,0,14,0,21c-10.2,12.4-28.6,14.2-41,4S140.5,12.4,150.7,0z"/>
	<g style="clip-path:url(#SVGID_00000056406751932684548360000003431058120095985803_);enable-background:new    ;">
		<text transform="matrix(1 0 0 1 159.76 31.75)" class="st19 st2 st20">17</text>
	</g>
</g>
</svg>
