<?xml version="1.0" encoding="utf-8"?>
<!-- Generator: Adobe Illustrator 26.0.3, SVG Export Plug-In . SVG Version: 6.00 Build 0)  -->
<svg version="1.1" id="Слой_1" xmlns="http://www.w3.org/2000/svg" xmlns:xlink="http://www.w3.org/1999/xlink" x="0px" y="0px"
	 viewBox="0 0 195.6 280.6" style="enable-background:new 0 0 195.6 280.6;" xml:space="preserve">
<style type="text/css">
	.st0{clip-path:url(#SVGID_00000115488911260214743400000004744615529186877584_);}
	.st1{clip-path:url(#SVGID_00000108295131300770934620000015228805301888710790_);}
	.st2{fill:#EB5A53;}
	.st3{fill:#1A1A1A;}
	.st4{fill:#C21633;}
	.st5{fill:#8E1632;}
	.st6{fill:#E62736;}
	.st7{fill:#FFFFFF;}
	.st8{fill:#595959;}
	.st9{fill:#797979;}
	.st10{fill:#3E3E3E;}
	.st11{font-family:'Impact';}
	.st12{font-size:34px;}
	.st13{letter-spacing:-1;}
	.st14{font-family:'Roboto-ThinItalic';}
	.st15{font-size:14px;}
	.st16{clip-path:url(#SVGID_00000115488911260214743400000004744615529186877584_);fill:#EB5A53;}
	.st17{clip-path:url(#SVGID_00000115488911260214743400000004744615529186877584_);enable-background:new    ;}
	.st18{font-size:20px;}
</style>
<g>
	<defs>
		<rect id="SVGID_1_" x="0" y="0" width="195.6" height="280.6"/>
	</defs>
	<clipPath id="SVGID_00000152259351446095925290000011543809079563740344_">
		<use xlink:href="#SVGID_1_"  style="overflow:visible;"/>
	</clipPath>
	<g style="clip-path:url(#SVGID_00000152259351446095925290000011543809079563740344_);">
		<defs>
			<rect id="SVGID_00000061462902509039127450000009326244684480098208_" x="-5.5" y="-3.4" width="206.7" height="287.5"/>
		</defs>
		<clipPath id="SVGID_00000162331042839557998860000010142296235640047030_">
			<use xlink:href="#SVGID_00000061462902509039127450000009326244684480098208_"  style="overflow:visible;"/>
		</clipPath>
		<g style="clip-path:url(#SVGID_00000162331042839557998860000010142296235640047030_);">
			<path class="st2" d="M89,162.7c-7,9.1-19.9,19.7-23.7,16.8s3.2-18.1,10.1-27.2s12.4-7.8,15.2-5.7S96,153.5,89,162.7L89,162.7z"/>
			<path class="st3" d="M92.1,144.6c-2.3-1.8-5.2-2.4-8-1.8c-3.3,0.7-6.8,3.1-10.5,7.9c-3.8,5.1-7,10.6-9.4,16.5
				c-1,2.5-1.7,5-2.1,7.7c-0.3,2.3-0.1,4.8,1.9,6.4c2,1.6,4.4,1.1,6.6,0.2c2.5-1.1,4.8-2.4,6.9-4.1c5.1-3.9,9.6-8.3,13.5-13.4
				c3.7-4.8,5.1-8.9,5-12.2C95.8,149,94.4,146.4,92.1,144.6L92.1,144.6z M89.2,148.4c1.2,0.8,1.9,2.2,1.9,3.7c0.1,1.9-0.7,4.8-4,9.1
				c-3.7,4.7-7.9,8.8-12.6,12.4c-1.8,1.4-3.7,2.6-5.8,3.5c-0.6,0.3-1.3,0.4-1.9,0.4c-0.2-0.7-0.2-1.3-0.1-2c0.4-2.2,1-4.4,1.9-6.5
				c2.3-5.5,5.2-10.6,8.8-15.4c3.3-4.3,6-5.8,7.8-6.2C86.5,147.2,88,147.5,89.2,148.4L89.2,148.4z"/>
			<path class="st2" d="M132.7,160.4c-4.4,10.6-14.2,24.2-18.5,22.4s-1.7-18.3,2.7-28.9s9.9-10.8,13.2-9.4S137.1,149.8,132.7,160.4
				L132.7,160.4z"/>
			<path class="st3" d="M131,142.2c-2.6-1.1-5.6-1-8.2,0.3c-3,1.6-5.8,4.8-8.1,10.4c-2.4,5.9-4,12.1-4.8,18.4
				c-0.4,2.7-0.4,5.3-0.1,8c0.3,2.3,1.1,4.7,3.5,5.6s4.6-0.1,6.4-1.5c2.1-1.7,4-3.6,5.6-5.7c3.9-5,7.1-10.5,9.6-16.4
				c2.3-5.6,2.6-9.9,1.6-13.1C135.7,145.5,133.6,143.3,131,142.2L131,142.2z M129.2,146.6c1.4,0.5,2.4,1.6,2.8,3
				c0.6,1.8,0.6,4.9-1.5,9.8c-2.3,5.5-5.3,10.6-8.9,15.3c-1.4,1.8-2.9,3.4-4.7,4.9c-0.5,0.4-1.1,0.7-1.8,0.9
				c-0.3-0.6-0.5-1.2-0.6-1.9c-0.2-2.2-0.2-4.5,0.1-6.7c0.8-5.9,2.3-11.6,4.5-17.1c2.1-5,4.2-7.1,5.9-8
				C126.3,146,127.8,145.9,129.2,146.6L129.2,146.6z"/>
			<path class="st2" d="M161.7,92c11.4-1.5,28,0.2,28.6,4.8s-15,10.6-26.4,12.2s-14.3-3.2-14.8-6.7S150.4,93.6,161.7,92L161.7,92z"
				/>
			<path class="st3" d="M146.8,102.6c0.4,2.8,2,5.3,4.4,6.9c2.9,1.8,7.1,2.6,13.1,1.8c6.3-0.9,12.5-2.6,18.3-5c2.5-1,4.8-2.3,7-3.9
				c1.8-1.5,3.5-3.3,3.1-5.8s-2.4-3.9-4.6-4.8c-2.5-1-5.1-1.7-7.8-2c-6.3-0.9-12.7-0.9-19-0.1c-6,0.8-9.9,2.6-12.2,5.2
				C147.4,96.9,146.5,99.8,146.8,102.6L146.8,102.6z M151.6,102c-0.3-1.5,0.2-2.9,1.2-4c1.3-1.4,3.9-2.9,9.2-3.6
				c5.9-0.7,11.8-0.7,17.7,0.1c2.2,0.3,4.4,0.8,6.5,1.6c0.6,0.2,1.2,0.6,1.7,1.1c-0.3,0.6-0.8,1.1-1.3,1.5c-1.8,1.3-3.8,2.4-5.9,3.3
				c-5.5,2.3-11.2,3.8-17.1,4.7c-5.3,0.7-8.3-0.1-9.9-1.1C152.6,104.7,151.7,103.5,151.6,102L151.6,102z"/>
			<path class="st3" d="M65.2,73.1c-6.1,0.1-12,1.7-17.3,4.7c-13.7,7.6-22.7,22.2-30.5,34.4c-6.1,9.6-12.3,15.8-17.3,17.6
				c-2.2,0.9-4.8,0.9-7,0c-2.4-1-5.2-3.1-8.2-6.8l-3.3-4l-2.9,4.3c-5.4,8.1-6.1,17.9-2.4,25.6s12.5,12.7,23.6,10.9
				c2-0.4,4.1-0.6,6.1-0.5c0.1,0,0-0.1,0.2,0.3c0.4,1.1,0.7,2.3,0.7,3.5c0.1,3,1.4,5.9,3.7,7.9c2.4,1.9,5.4,2.6,8.4,2
				c5.9-1,12-5.4,18.3-13.2c0.9-1.3,2.1-2.3,3.5-3.1c0,0-0.1-0.1,0.3,0.3c0.8,0.8,1.4,1.8,1.9,2.8c2,4,4.8,6.9,8.4,8.1
				c3.6,1.1,7.4,0.8,10.8-0.9c7-3,13.6-9.6,19.8-18c12.5-16.8,23-40.5,22.2-58.8l-0.1-1.8l-1.5-1.1C88.4,76.9,75.9,72.8,65.2,73.1z
				 M65.6,80.4c8.4-0.2,18.4,3,31.1,11.9c-0.2,15-9.6,37.2-20.7,52.1c-5.8,7.8-12.1,13.6-16.7,15.6c-2.3,1-4,1.1-5.3,0.6
				s-2.7-1.5-4-4.2c-0.9-1.9-2.1-3.6-3.6-5.1c-1.5-1.4-3.4-2.2-5.5-2.3c-4,0-6.8,2.7-9.4,5.9c-5.6,6.9-10.9,10-13.6,10.5
				c-1.4,0.2-1.9,0-2.2-0.3c-0.7-0.7-1-1.7-1-2.7c-0.1-2.1-0.6-4.2-1.4-6.2c-0.9-1.8-2.4-3.3-4.2-4.1c-3.6-1.4-6.6-0.5-10.3,0.1
				c-8.4,1.4-13.1-1.8-15.5-6.8c-1.9-4.3-2-9.1-0.4-13.5c2.2,2.1,4.7,3.7,7.5,4.9c4,1.6,8.4,1.6,12.4,0.1
				c7.9-2.9,14.6-10.4,21.1-20.7c7.8-12.2,16.5-25.6,27.7-31.8C55.9,82,60.7,80.7,65.6,80.4L65.6,80.4z"/>
			<path class="st4" d="M66.1,76.7c-21.8,0.1-34.6,20.5-45.5,37.5c-12.7,19.9-25.6,27.4-38.7,11.1c-9.4,14-2.1,33.9,17.4,30.7
				c7.3-1.2,10.8-1.8,11.5,6.8c0.8,9.7,11.7,9.4,23.6-5.4c4.7-5.8,8.5-6.4,12.1,0.7c13.3,26.8,55.4-34.6,54-67.8
				C86.9,80.6,75.7,76.7,66.1,76.7z"/>
			<path class="st5" d="M53.2,96.6c-10.4,18.6-20.8,53.7-44.4,60c1.1,1.1,1.8,3,2,6.2c0.8,9.7,11.7,9.4,23.6-5.4
				c4.7-5.8,8.5-6.4,12.1,0.7c13.3,26.8,55.4-34.6,54-67.8C100.5,90.3,69.5,70.9,53.2,96.6L53.2,96.6z"/>
			<path class="st6" d="M26.4,123.4c13.3-19.5,23.6-50,47.2-45.9c-2.5-0.5-5-0.7-7.5-0.7c-21.8,0.1-34.6,20.5-45.5,37.5
				c-12.7,19.9-25.6,27.4-38.7,11.1C-21.2,143.9,1.6,159.7,26.4,123.4L26.4,123.4z"/>
			<path class="st3" d="M65.3,75.8c-5.6,0.1-11.2,1.7-16.1,4.4c-12.8,7.1-21.6,21.2-29.4,33.4c-6.3,9.9-12.6,16.6-18.7,18.8
				c-2.9,1.1-6.1,1.1-9-0.1c-3.1-1.2-6.2-3.7-9.4-7.7l-0.8-1l-0.7,1.1c-4.9,7.3-5.4,16.1-2.2,22.8s10.4,11.1,20.5,9.4
				c3.6-0.6,6.2-0.9,7.7-0.4c0.8,0.3,1.4,0.9,1.7,1.7c0.6,1.4,0.9,3,1,4.5c0,2.3,1,4.4,2.7,6c1.7,1.3,3.9,1.8,6.1,1.4
				c4.7-0.8,10.5-4.7,16.5-12.2c2.2-2.8,4.2-4.1,5.7-4.1c0.9,0,1.7,0.4,2.2,1c1.1,1.1,1.9,2.3,2.5,3.7c1.7,3.5,4,5.7,6.8,6.6
				c2.9,0.8,6,0.6,8.7-0.8c6.1-2.6,12.6-8.9,18.7-17.1c12.1-16.3,22.4-40,21.7-57v-0.5l-0.4-0.3C87.1,79.5,75.3,75.6,65.3,75.8
				L65.3,75.8z M65.4,77.7c9.4-0.2,20.5,3.4,34.1,13.1c0.5,16.2-9.5,39.5-21.3,55.3c-6,8-12.4,14.1-17.9,16.5
				c-2.8,1.2-5.2,1.5-7.4,0.7s-4.1-2.5-5.7-5.7c-0.7-1.6-1.7-3-2.9-4.2c-1-0.9-2.2-1.4-3.5-1.5c-2.5,0-4.8,1.9-7.2,4.8
				c-5.9,7.3-11.5,10.9-15.4,11.5c-1.6,0.4-3.2,0-4.5-0.9c-1.3-1.2-2-2.9-2-4.7c-0.1-1.8-0.5-3.5-1.1-5.2c-0.5-1.2-1.5-2.2-2.7-2.7
				c-2.3-0.9-5.1-0.4-8.7,0.2c-9.4,1.6-15.6-2.4-18.5-8.4c-2.8-5.7-2.5-13.3,1.3-19.8c3.1,3.6,6.2,6,9.4,7.2c3.3,1.3,7,1.4,10.4,0.1
				c6.8-2.5,13.3-9.5,19.7-19.5C29.2,102.6,38,88.7,50.2,82C54.8,79.3,60.1,77.9,65.4,77.7L65.4,77.7z"/>
			<path class="st3" d="M69.3,76.2c-4.1,0-8.1,1.1-11.7,3.2C53,82,49,86.2,45.4,91c-7.3,9.7-13.2,22.2-19.8,31.8
				c-12.3,18-23.9,22.8-31.7,21.2s-12.5-9.6-11-18.5l-1.9-0.3c-1.6,9.7,3.6,18.8,12.5,20.7s21.2-3.6,33.7-22
				c6.7-9.8,12.6-22.3,19.7-31.8c3.5-4.7,7.4-8.6,11.7-11.1c4.5-2.6,9.7-3.6,14.8-2.6l0.3-1.9C72.3,76.3,70.8,76.2,69.3,76.2z"/>
			<path class="st2" d="M46.4,105.4c-9.1,7-24.4,13.9-27.2,10.1S26.9,98.8,36,91.8s14-4.4,16.1-1.6S55.5,98.4,46.4,105.4L46.4,105.4
				z"/>
			<path class="st3" d="M54,88.8c-1.7-2.3-4.4-3.7-7.2-3.8c-3.4-0.2-7.4,1.2-12.2,4.9c-5,3.9-9.5,8.5-13.4,13.5
				c-1.7,2.1-3,4.4-4.1,6.9c-0.9,2.2-1.4,4.6,0.2,6.6s4,2.2,6.4,1.9c2.7-0.4,5.2-1.1,7.7-2.2c5.9-2.4,11.4-5.6,16.5-9.4
				c4.8-3.7,7.2-7.2,7.9-10.5C56.4,93.9,55.8,91,54,88.8L54,88.8z M50.2,91.7c0.9,1.1,1.3,2.6,0.9,4c-0.4,1.8-1.9,4.5-6.2,7.8
				c-4.7,3.6-9.9,6.5-15.4,8.8c-2.1,0.9-4.3,1.5-6.5,1.9c-0.7,0.1-1.3,0.1-2-0.1c0-0.7,0.2-1.3,0.4-1.9c0.9-2.1,2.1-4,3.5-5.7
				c3.6-4.7,7.8-8.9,12.5-12.6c4.3-3.3,7.2-4,9.1-4C48,89.8,49.4,90.5,50.2,91.7L50.2,91.7z"/>
			<path class="st3" d="M106.5,28c-37.6,0-68.1,30.5-68.1,68.1c0,37.6,30.5,68.1,68.1,68.1c37.6,0,68.1-30.5,68.1-68.1
				C174.6,58.5,144.1,28,106.5,28z M106.5,35.8c33.3,0,60.4,27,60.4,60.4s-27,60.4-60.4,60.4c-33.3,0-60.3-27-60.4-60.3
				c0-33.3,27-60.3,60.3-60.4C106.4,35.8,106.5,35.8,106.5,35.8L106.5,35.8z"/>
			<path class="st7" d="M170.7,96.3c0,35.4-28.8,64.1-64.2,64.1c-35.4,0-64.1-28.8-64.1-64.2c0-35.4,28.8-64.1,64.2-64.1
				c17,0,33.3,6.8,45.4,18.8C164,63,170.8,79.3,170.7,96.3L170.7,96.3z"/>
			<path class="st7" d="M162.6,92.9c0,32.8-26.6,59.3-59.4,59.3c-32.8,0-59.3-26.6-59.3-59.4c0-32.8,26.6-59.3,59.4-59.3
				c15.7,0,30.8,6.3,41.9,17.4C156.3,62.1,162.6,77.2,162.6,92.9z"/>
			<path class="st2" d="M42.5,96.3c-0.4,35.4,27.9,64.5,63.3,64.9c35.4,0.4,64.5-27.9,64.9-63.3c0-0.5,0-1.1,0-1.6H42.5z"/>
			<path class="st2" d="M44,96.3c1.9,32.7,29.9,57.7,62.6,55.8c30.1-1.7,54.1-25.7,55.8-55.8H44z"/>
			<path class="st3" d="M106.5,30.9c-36,0-65.2,29.2-65.2,65.2s29.2,65.2,65.2,65.2s65.2-29.2,65.2-65.2l0,0
				C171.7,60.1,142.5,30.9,106.5,30.9z M106.5,32.9c34.9,0,63.3,28.3,63.3,63.3s-28.3,63.3-63.3,63.3s-63.3-28.3-63.3-63.3
				c0,0,0,0,0,0C43.2,61.2,71.5,32.9,106.5,32.9C106.5,32.9,106.5,32.9,106.5,32.9z"/>
			<path class="st3" d="M103.1,96.1c-0.2,5.1,3.9,9.5,9,9.6s9.5-3.9,9.6-9c0-0.2,0-0.4,0-0.6h-1.9c-0.2,4.1-3.6,7.3-7.7,7.1
				c-3.9-0.1-7-3.3-7.1-7.1H103.1z"/>
			<path class="st3" d="M92.1,72.8c5.4,0,9.8,4.4,9.8,9.8c0,0,0,0,0,0v4.9c0,5.4-4.4,9.8-9.8,9.8s-9.8-4.4-9.8-9.8v-4.9
				C82.3,77.2,86.6,72.8,92.1,72.8C92.1,72.8,92.1,72.8,92.1,72.8z"/>
			<path class="st7" d="M97.8,79.8c0,1.8-1.4,3.2-3.2,3.2c-1.8,0-3.2-1.4-3.2-3.2c0-1.8,1.4-3.2,3.2-3.2c0,0,0,0,0,0
				C96.4,76.7,97.8,78.1,97.8,79.8z"/>
			<path class="st3" d="M132.6,97.4c-5.4,0-9.8-4.4-9.8-9.8c0,0,0,0,0-0.1v-8.1h19.7v8.1C142.5,93,138.1,97.4,132.6,97.4
				C132.7,97.4,132.7,97.4,132.6,97.4z"/>
			<path class="st7" d="M139.9,85c0,1.8-1.4,3.2-3.2,3.2c-1.8,0-3.2-1.4-3.2-3.2c0-1.8,1.4-3.2,3.2-3.2l0,0
				C138.5,81.8,139.9,83.2,139.9,85z"/>
			<path class="st3" d="M67.1,10.1l2.5,6.7l0.7,1.8c-6.8-0.9-13.4-2.3-19.9-4.5l-5.9-2.1l0.8,6.2c4,30.6,29.1,47.1,52.7,50.8
				c11.8,1.8,23.5,0.6,32.6-3.8s15.7-12.7,15.7-23.4c0.1-6.4-2.3-12.6-6.7-17.2c-4.8-4.9-12.4-8.1-22.9-8.9
				c-15.2-1.1-27.2-0.2-42.6-3.9L67.1,10.1z M79.1,20.6c13.4,2.4,24.5,1.8,37,2.7c9.2,0.7,14.8,3.4,18,6.6c3.1,3.2,4.7,7.4,4.5,11.8
				c0,7.8-4.1,13-11.4,16.5s-17.5,4.8-28.1,3.2c-19.4-3-39.4-15.2-45.2-38.2c5.5,1.5,13.9,3.4,21.8,3.3h5.4L79.1,20.6z"/>
			<path class="st8" d="M73.2,15.5l2.7,7.3c-12.3,0.1-26.8-5-26.8-5c7.6,57.6,93.4,61.1,93.4,24c0-10.4-6.3-20.8-26.1-22.3
				C101.6,18.4,89.2,19.3,73.2,15.5z"/>
			<path class="st9" d="M73.2,15.5l2.7,7.3c-12.3,0.1-26.8-5-26.8-5c20,26.1,78.9,29.4,89.3,11.3c-3.9-5-10.7-8.7-22-9.5
				C101.6,18.4,89.2,19.3,73.2,15.5L73.2,15.5z"/>
			<path class="st10" d="M49.1,17.7c7.6,57.6,93.4,61.1,93.4,24c0-1.7-0.2-3.4-0.5-5.1C128.2,69.8,59.2,55.2,49.1,17.7L49.1,17.7z"
				/>
			<path class="st3" d="M71.7,14.1l0.6,1.7l2.2,5.9c-11.8-0.3-25.1-4.9-25.1-4.9L48,16.3l0.2,1.5C52,47.1,75.8,62.7,98.5,66.2
				c11.4,1.8,22.5,0.5,30.9-3.6s14.1-11.2,14.1-20.8c0.2-5.6-2-11.1-5.9-15.2c-4.2-4.3-11-7.3-21.1-8c-14.9-1.1-27.2-0.2-43.1-4
				L71.7,14.1z M74.7,16.8c15.3,3.4,27.4,2.6,41.7,3.7c9.7,0.7,16,3.6,19.8,7.5c3.6,3.7,5.5,8.7,5.4,13.8c0,8.9-5.1,15.2-13,19.1
				s-18.7,5.1-29.7,3.4c-21.7-3.3-44.2-17.8-48.5-45.2c3.4,1.1,14.9,4.6,25.6,4.6h1.4L74.7,16.8z"/>
			<text transform="matrix(1 0 0 1 41.73 236.56)" class="st2 st11 st12 st13">T</text>
			<text transform="matrix(1 0 0 1 55.97 236.56)" class="st2 st11 st12">adeusz</text>
			<text transform="matrix(1 0 0 1 19.24 268.56)" class="st2 st11 st12">Kościuszko</text>
			<text transform="matrix(1 0 0 1 74.8 205.54)" class="st2 st14 st15">bohater</text>
		</g>
	</g>
	<path style="clip-path:url(#SVGID_00000152259351446095925290000011543809079563740344_);fill:#EB5A53;" d="M150.6,0h29h16v16
		c0,7,0,14,0,21c-10.2,12.4-28.6,14.2-41,4S140.4,12.4,150.6,0z"/>
	<g style="clip-path:url(#SVGID_00000152259351446095925290000011543809079563740344_);enable-background:new    ;">
		<text transform="matrix(1 0 0 1 159.7 31.75)" class="st7 st11 st18">14</text>
	</g>
</g>
</svg>
