<?xml version="1.0" encoding="utf-8"?>
<!-- Generator: Adobe Illustrator 26.0.3, SVG Export Plug-In . SVG Version: 6.00 Build 0)  -->
<svg version="1.1" id="Слой_1" xmlns="http://www.w3.org/2000/svg" xmlns:xlink="http://www.w3.org/1999/xlink" x="0px" y="0px"
	 viewBox="0 0 195.6 280.6" style="enable-background:new 0 0 195.6 280.6;" xml:space="preserve">
<style type="text/css">
	.st0{clip-path:url(#SVGID_00000104699362993889951410000018097139815800308656_);fill:#C67550;}
	.st1{clip-path:url(#SVGID_00000104699362993889951410000018097139815800308656_);enable-background:new    ;}
	.st2{fill:#1A1A1A;}
	.st3{font-family:'Impact';}
	.st4{font-size:63.62px;}
	.st5{clip-path:url(#SVGID_00000104699362993889951410000018097139815800308656_);fill:#EB5A53;}
	.st6{clip-path:url(#SVGID_00000104699362993889951410000018097139815800308656_);fill:#1A1A1A;}
	.st7{clip-path:url(#SVGID_00000104699362993889951410000018097139815800308656_);fill:#FFFFFF;}
	.st8{clip-path:url(#SVGID_00000104699362993889951410000018097139815800308656_);fill:#EB5775;}
	.st9{clip-path:url(#SVGID_00000104699362993889951410000018097139815800308656_);fill:#F293A2;}
	.st10{clip-path:url(#SVGID_00000104699362993889951410000018097139815800308656_);fill:#CCE2E9;}
	.st11{clip-path:url(#SVGID_00000104699362993889951410000018097139815800308656_);fill:#A1C7D5;}
	.st12{clip-path:url(#SVGID_00000104699362993889951410000018097139815800308656_);fill:#DB9C73;}
	.st13{clip-path:url(#SVGID_00000104699362993889951410000018097139815800308656_);fill:#C9C0B7;}
	.st14{clip-path:url(#SVGID_00000104699362993889951410000018097139815800308656_);fill:#A0958A;}
	.st15{clip-path:url(#SVGID_00000104699362993889951410000018097139815800308656_);fill:#9B5341;}
	.st16{clip-path:url(#SVGID_00000104699362993889951410000018097139815800308656_);fill:#5A4540;}
	.st17{fill:#FFFFFF;}
	.st18{font-size:20px;}
</style>
<g>
	<defs>
		<rect id="SVGID_1_" x="0" y="0" width="195.6" height="280.6"/>
	</defs>
	<clipPath id="SVGID_00000040544681250410043250000016595168344263935402_">
		<use xlink:href="#SVGID_1_"  style="overflow:visible;"/>
	</clipPath>
	
		<rect x="-272.9" y="-7.6" style="clip-path:url(#SVGID_00000040544681250410043250000016595168344263935402_);fill:#C67550;" width="487.2" height="299.3"/>
	<g style="clip-path:url(#SVGID_00000040544681250410043250000016595168344263935402_);enable-background:new    ;">
		<text transform="matrix(1 0 0 1 24.83 257.69)" class="st2 st3 st4">bigos</text>
	</g>
	<path style="clip-path:url(#SVGID_00000040544681250410043250000016595168344263935402_);fill:#EB5A53;" d="M78.7,168.7
		c0,12.4-4.1,29.9-9.2,29.9s-9.2-17.6-9.2-29.9s5.4-14.8,9.2-14.8S78.7,156.4,78.7,168.7L78.7,168.7z"/>
	<path style="clip-path:url(#SVGID_00000040544681250410043250000016595168344263935402_);fill:#1A1A1A;" d="M69.5,151.4
		c-3.1,0-6,1.3-8,3.7c-2.4,2.8-3.8,7.1-3.8,13.7c0.1,6.9,1,13.7,2.8,20.3c0.7,2.8,1.8,5.5,3.2,8c1.3,2.2,3,4.2,5.8,4.2
		s4.5-2,5.8-4.2c1.4-2.5,2.5-5.2,3.2-8c1.8-6.6,2.7-13.4,2.8-20.3c0-6.6-1.4-10.9-3.8-13.7C75.5,152.7,72.6,151.3,69.5,151.4
		L69.5,151.4z M69.5,156.5c1.6,0,3,0.7,4,1.9c1.3,1.5,2.6,4.6,2.6,10.4c-0.1,6.4-0.9,12.7-2.6,18.9c-0.6,2.4-1.5,4.6-2.7,6.8
		c-0.3,0.6-0.8,1.2-1.3,1.6c-0.6-0.4-1-1-1.4-1.6c-1.2-2.1-2-4.4-2.7-6.8c-1.7-6.2-2.5-12.5-2.6-18.9c0-5.8,1.3-8.9,2.6-10.4
		C66.5,157.1,67.9,156.4,69.5,156.5L69.5,156.5z"/>
	<path style="clip-path:url(#SVGID_00000040544681250410043250000016595168344263935402_);fill:#EB5A53;" d="M125.2,168.7
		c0,12.4-4.1,29.9-9.2,29.9s-9.2-17.6-9.2-29.9s5.4-14.8,9.2-14.8S125.2,156.4,125.2,168.7L125.2,168.7z"/>
	<path style="clip-path:url(#SVGID_00000040544681250410043250000016595168344263935402_);fill:#1A1A1A;" d="M116,151.4
		c-3.1,0-6,1.3-8,3.7c-2.4,2.8-3.8,7.1-3.8,13.7c0.1,6.9,1,13.7,2.9,20.3c0.7,2.8,1.8,5.5,3.2,8c1.3,2.2,3,4.2,5.8,4.2
		s4.5-2,5.8-4.2c1.4-2.5,2.5-5.2,3.2-8c1.8-6.6,2.7-13.4,2.8-20.3c0-6.6-1.4-10.9-3.8-13.7C122,152.7,119.1,151.3,116,151.4
		L116,151.4z M116,156.5c1.6,0,3,0.7,4,1.9c1.3,1.5,2.6,4.6,2.6,10.4c-0.1,6.4-0.9,12.7-2.6,18.9c-0.6,2.4-1.5,4.6-2.7,6.8
		c-0.3,0.6-0.8,1.2-1.3,1.6c-0.6-0.4-1-1-1.4-1.6c-1.2-2.1-2-4.4-2.7-6.8c-1.7-6.2-2.5-12.5-2.6-18.9c0-5.8,1.3-8.9,2.6-10.4
		C112.9,157.1,114.4,156.4,116,156.5L116,156.5z"/>
	<path style="clip-path:url(#SVGID_00000040544681250410043250000016595168344263935402_);fill:#EB5A53;" d="M32.5,107.4
		c-3.6,11.8-12.6,27.4-17.5,26s-3.7-19.5-0.1-31.3S24.4,89.5,28,90.6S36.1,95.6,32.5,107.4L32.5,107.4z"/>
	<path style="clip-path:url(#SVGID_00000040544681250410043250000016595168344263935402_);fill:#1A1A1A;" d="M28.8,89.5
		c-2.9-0.9-6.1-0.4-8.7,1.2c-3.1,2-5.7,5.7-7.6,12c-1.9,6.6-3,13.4-3.2,20.2c-0.1,2.9,0.1,5.8,0.7,8.6c0.6,2.4,1.7,4.9,4.3,5.7
		s4.9-0.6,6.8-2.3c2.1-2,3.9-4.3,5.4-6.7c3.6-5.8,6.5-12.1,8.6-18.6c1.9-6.3,1.8-10.9,0.3-14.2C34.1,92.5,31.7,90.4,28.8,89.5
		L28.8,89.5z M27.3,94.4c1.5,0.4,2.8,1.5,3.3,3c0.8,1.8,1.1,5.1-0.5,10.7c-1.9,6.1-4.6,11.9-8,17.3c-1.3,2.1-2.8,4-4.5,5.7
		c-0.5,0.5-1.1,0.9-1.8,1.2c-0.4-0.6-0.7-1.3-0.8-2c-0.5-2.4-0.7-4.8-0.6-7.2c0.2-6.4,1.2-12.7,3-18.8c1.7-5.6,3.8-8.1,5.5-9.2
		C24.1,94.1,25.8,93.9,27.3,94.4L27.3,94.4z"/>
	<path style="clip-path:url(#SVGID_00000040544681250410043250000016595168344263935402_);fill:#EB5A53;" d="M168.2,101.6
		c4.7,11.4,7.6,29.2,2.9,31.1s-15.2-12.7-19.9-24.1s-0.6-15.8,2.8-17.2S163.4,90.2,168.2,101.6z"/>
	<path style="clip-path:url(#SVGID_00000040544681250410043250000016595168344263935402_);fill:#1A1A1A;" d="M153,89
		c-2.9,1.2-5.1,3.5-6,6.4c-1.1,3.5-0.8,8.1,1.7,14.1c2.7,6.3,6.1,12.3,10.3,17.7c1.7,2.3,3.7,4.4,6,6.2c2,1.5,4.4,2.7,6.9,1.7
		s3.4-3.6,3.7-6.1c0.3-2.9,0.3-5.8-0.1-8.6c-0.9-6.8-2.6-13.5-5.2-19.8c-2.5-6-5.5-9.5-8.8-11.2C159,88,155.8,87.8,153,89z
		 M155,93.7c1.4-0.6,3.1-0.6,4.5,0.2c1.8,0.9,4.1,3.2,6.4,8.6c2.4,5.9,4,12.1,4.8,18.5c0.3,2.4,0.4,4.8,0.1,7.3
		c-0.1,0.7-0.3,1.4-0.6,2c-0.7-0.2-1.3-0.5-1.9-1c-1.9-1.5-3.6-3.3-5-5.2c-3.9-5.1-7.1-10.6-9.6-16.5c-2.2-5.3-2.2-8.7-1.6-10.6
		C152.4,95.5,153.5,94.3,155,93.7L155,93.7z"/>
	<path style="clip-path:url(#SVGID_00000040544681250410043250000016595168344263935402_);fill:#1A1A1A;" d="M92.8,35.6
		c-39.8,0-72,32.2-72,72s32.2,72,72,72s72-32.2,72-72C164.7,67.9,132.5,35.7,92.8,35.6z M92.8,43.8c35.3,0,63.8,28.5,63.9,63.8
		s-28.5,63.8-63.8,63.9c-35.3,0-63.8-28.5-63.9-63.8c0,0,0,0,0,0C29,72.4,57.5,43.8,92.8,43.8C92.7,43.8,92.8,43.8,92.8,43.8z"/>
	<path style="clip-path:url(#SVGID_00000040544681250410043250000016595168344263935402_);fill:#EB5A53;" d="M45.4,61.1
		c12.3-6.8,18.9,2,49.3,1.7c27.8-0.3,33.6-7.8,44.9-1.7c19.1,10.3,19.5,41,19.5,44.9c0,2.8-0.3,35.9-19.5,44.9
		c-12.8,6-19.6-5.5-45.5-5.9c-27.5-0.4-35.1,12.4-48.8,5.9c-19.2-9.2-19.5-42.1-19.5-44.9C25.9,102.2,26.3,71.7,45.4,61.1z"/>
	<path style="clip-path:url(#SVGID_00000040544681250410043250000016595168344263935402_);fill:#FFFFFF;" d="M92.1,41
		c-29.1,0-55,18.4-64.7,45.8h129.3C147,59.4,121.1,41,92.1,41z"/>
	<path style="clip-path:url(#SVGID_00000040544681250410043250000016595168344263935402_);fill:#FFFFFF;" d="M95.6,42.5
		c-27.6,0-52.1,17.9-60.4,44.3h120.9C147.8,60.4,123.3,42.5,95.6,42.5z"/>
	<path style="clip-path:url(#SVGID_00000040544681250410043250000016595168344263935402_);fill:#FFFFFF;" d="M30,131.2
		c2.9,6.9,6.8,13.2,11.6,18.9c3.6,4.2,13.8,15.7,31.3,21c6.2,1.8,12.6,2.7,19,2.6c16.7-0.2,28.8-6.8,34-9.7
		c13.4-7.7,24.2-19.1,31.3-32.8H30z"/>
	<path style="clip-path:url(#SVGID_00000040544681250410043250000016595168344263935402_);fill:#FFFFFF;" d="M153.8,131.3H34
		c15.1,33.1,54.2,47.7,87.3,32.5C135.7,157.3,147.3,145.7,153.8,131.3L153.8,131.3z"/>
	<path style="clip-path:url(#SVGID_00000040544681250410043250000016595168344263935402_);fill:#1A1A1A;" d="M92.8,38.7
		c-38.1,0-69,30.9-69,69s30.9,69,69,69s69-30.9,69-69S130.9,38.7,92.8,38.7z M92.8,40.7c37,0,66.9,30,66.9,66.9s-30,66.9-66.9,66.9
		s-66.9-30-66.9-66.9c0,0,0,0,0,0C25.9,70.7,55.9,40.7,92.8,40.7L92.8,40.7z"/>
	<path style="clip-path:url(#SVGID_00000040544681250410043250000016595168344263935402_);fill:#1A1A1A;" d="M111.7,98.3
		c-5,0-9.1,4.1-9.2,9.1c0,0,0,0,0,0.1v7.6h18.3v-7.6C120.9,102.5,116.8,98.4,111.7,98.3C111.8,98.3,111.7,98.3,111.7,98.3z"/>
	<path style="clip-path:url(#SVGID_00000040544681250410043250000016595168344263935402_);fill:#FFFFFF;" d="M106.4,104.9
		c0-1.7,1.3-3,3-3s3,1.3,3,3s-1.3,3-3,3S106.4,106.6,106.4,104.9z"/>
	<path style="clip-path:url(#SVGID_00000040544681250410043250000016595168344263935402_);fill:#1A1A1A;" d="M73.9,98.3
		c-5,0-9.1,4.1-9.2,9.1c0,0,0,0,0,0.1v7.6h18.3v-7.6C83.1,102.5,79,98.4,73.9,98.3C73.9,98.3,73.9,98.3,73.9,98.3z"/>
	<path style="clip-path:url(#SVGID_00000040544681250410043250000016595168344263935402_);fill:#FFFFFF;" d="M68.6,104.9
		c0-1.7,1.3-3,3-3s3,1.3,3,3s-1.3,3-3,3S68.6,106.6,68.6,104.9z"/>
	<path style="clip-path:url(#SVGID_00000040544681250410043250000016595168344263935402_);fill:#EB5775;" d="M89.5,116.5
		c-3.1,0-5.5,2.5-5.5,5.5c0,0,0,0,0,0c2.2,3.9,6.7,5.8,11.1,4.9v-4.9C95,119,92.5,116.5,89.5,116.5
		C89.5,116.5,89.5,116.5,89.5,116.5L89.5,116.5z"/>
	<path style="clip-path:url(#SVGID_00000040544681250410043250000016595168344263935402_);fill:#1A1A1A;" d="M89.5,115.6
		c-3.6,0-6.4,2.9-6.4,6.4l0,0v0.2l0.1,0.2c0.6,1.1,1.5,2.2,2.5,3l1.2-1.4c-0.8-0.6-1.4-1.4-1.9-2.3c0.1-2.6,2.2-4.6,4.8-4.5
		s4.6,2.2,4.5,4.8v4.9h1.8v-4.9C95.9,118.6,93,115.7,89.5,115.6L89.5,115.6z"/>
	
		<rect x="89" y="121.8" style="clip-path:url(#SVGID_00000040544681250410043250000016595168344263935402_);fill:#1A1A1A;" width="0.9" height="4.8"/>
	<path style="clip-path:url(#SVGID_00000040544681250410043250000016595168344263935402_);fill:#F293A2;" d="M92.5,120.4
		c0,0.7-0.5,1.2-1.2,1.2s-1.2-0.5-1.2-1.2c0-0.7,0.5-1.2,1.2-1.2c0,0,0,0,0,0C92,119.2,92.5,119.7,92.5,120.4
		C92.5,120.4,92.5,120.4,92.5,120.4z"/>
	<path style="clip-path:url(#SVGID_00000040544681250410043250000016595168344263935402_);fill:#1A1A1A;" d="M100.9,121.6
		c-2.6,4.5-8.3,6-12.8,3.4c-1.4-0.8-2.6-2-3.4-3.4l-1.5,0.9c3.1,5.3,9.9,7.1,15.2,4.1c1.7-1,3.1-2.4,4.1-4.1L100.9,121.6z"/>
	<path style="clip-path:url(#SVGID_00000040544681250410043250000016595168344263935402_);fill:#1A1A1A;" d="M92.8,11.9L92.8,11.9
		c-6.4,0-12.5,3-16.4,8.2c-1.5-0.4-3.1-0.7-4.6-0.7l0,0c-9.3-0.2-17,7.1-17.2,16.4c-0.2,9.3,7.1,17,16.4,17.2c0.3,0,0.5,0,0.8,0l0,0
		c4.3,0,8.5-1.7,11.7-4.7l-3.7-3.8c-4.6,4.4-11.9,4.3-16.3-0.3S59.2,32.4,63.8,28c3.4-3.2,8.4-4.1,12.6-2.2l2.2,1l1.2-2
		c4.3-7.2,13.6-9.5,20.9-5.2c2.1,1.3,3.9,3.1,5.2,5.2l1.2,2l2.2-1c1.5-0.7,3-1,4.6-1c6.4,0,11.5,5.2,11.5,11.5
		c0,6.4-5.2,11.5-11.5,11.5c-3,0-5.8-1.2-8-3.2l-3.7,3.8c3.1,3,7.3,4.7,11.7,4.7l0,0c9.3-0.2,16.7-7.9,16.4-17.2
		c-0.2-9-7.4-16.2-16.4-16.4l0,0c-1.6,0-3.1,0.2-4.7,0.7C105.3,15,99.2,12,92.8,11.9L92.8,11.9z"/>
	<path style="clip-path:url(#SVGID_00000040544681250410043250000016595168344263935402_);fill:#1A1A1A;" d="M75,43.2
		c-3.2,0-5.7,2.6-5.8,5.8v10.6c0,3.2,2.6,5.8,5.8,5.8h35.5c3.2,0,5.8-2.6,5.8-5.8V49c0-3.2-2.6-5.8-5.8-5.8L75,43.2z M110.5,48.6
		c0.2,0,0.4,0.1,0.5,0.4c0,0,0,0,0,0.1v10.6c0,0.2-0.1,0.4-0.4,0.5c0,0-0.1,0-0.1,0H75c-0.2,0-0.4-0.1-0.5-0.4c0,0,0-0.1,0-0.1V49
		c0-0.2,0.1-0.4,0.4-0.5c0,0,0.1,0,0.1,0L110.5,48.6z"/>
	<path style="clip-path:url(#SVGID_00000040544681250410043250000016595168344263935402_);fill:#FFFFFF;" d="M110.6,45.9
		c1.7,0,3.1,1.4,3.1,3.1v10.6c0,1.7-1.4,3.1-3.1,3.1c0,0,0,0,0,0H75c-1.7,0-3.1-1.4-3.1-3.1c0,0,0,0,0,0V49c0-1.7,1.4-3.1,3.1-3.1
		H110.6z"/>
	<path style="clip-path:url(#SVGID_00000040544681250410043250000016595168344263935402_);fill:#CCE2E9;" d="M75,45.9
		c-1.7,0-3.1,1.4-3.1,3.1v5.8c3.5,0,6.9-1.1,9.9-2.9c6.8,3.9,15.2,3.9,22,0c3,1.9,6.4,2.9,9.9,2.9V49c0-1.7-1.4-3.1-3.1-3.1
		c0,0,0,0,0,0L75,45.9z"/>
	<path style="clip-path:url(#SVGID_00000040544681250410043250000016595168344263935402_);fill:#CCE2E9;" d="M75,45.9
		c-1.7,0-3.1,1.4-3.1,3.1v10.6c0,1.7,1.4,3.1,3.1,3.1h13.4c-1.7,0-3.1-1.4-3.1-3.1c0,0,0,0,0,0V49c0-1.7,1.4-3.1,3.1-3.1
		c0,0,0,0,0,0L75,45.9z"/>
	<path style="clip-path:url(#SVGID_00000040544681250410043250000016595168344263935402_);fill:#A1C7D5;" d="M113.7,56.8
		c0,1.7-1.4,3.1-3.1,3.1c0,0,0,0,0,0H75c-1.7,0-3.1-1.4-3.1-3.1c0,0,0,0,0,0v2.8c0,1.7,1.4,3.1,3.1,3.1c0,0,0,0,0,0h35.5
		c1.7,0,3.1-1.4,3.1-3.1c0,0,0,0,0,0L113.7,56.8L113.7,56.8z"/>
	<path style="clip-path:url(#SVGID_00000040544681250410043250000016595168344263935402_);fill:#A1C7D5;" d="M75,45.9
		c-1.7,0-3.1,1.4-3.1,3.1v10.6c0,1.7,1.4,3.1,3.1,3.1h4.8c-1.7,0-3.1-1.4-3.1-3.1c0,0,0,0,0,0V49c0-1.7,1.4-3.1,3.1-3.1c0,0,0,0,0,0
		L75,45.9z"/>
	<path style="clip-path:url(#SVGID_00000040544681250410043250000016595168344263935402_);fill:#1A1A1A;" d="M75,45
		c-2.2,0-4,1.8-4,4v10.6c0,2.2,1.8,4,4,4h35.5c2.2,0,4-1.8,4-4V49c0-2.2-1.8-4-4-4H75z M110.5,46.8c1.2,0,2.3,0.9,2.3,2.1
		c0,0,0,0,0,0.1v10.6c0,1.2-1,2.2-2.2,2.2c0,0,0,0-0.1,0H75c-1.2,0-2.2-1-2.2-2.2c0,0,0,0,0,0V49c0-1.2,1-2.2,2.2-2.2c0,0,0,0,0,0
		L110.5,46.8z"/>
	<path style="clip-path:url(#SVGID_00000040544681250410043250000016595168344263935402_);fill:#CCE2E9;" d="M57.6,36.2
		c0-7.8,6.3-14.2,14.2-14.2s14.2,6.3,14.2,14.2c0,7.8-6.3,14.2-14.2,14.2c0,0,0,0,0,0C64,50.4,57.6,44.1,57.6,36.2
		C57.6,36.2,57.6,36.2,57.6,36.2z"/>
	<path style="clip-path:url(#SVGID_00000040544681250410043250000016595168344263935402_);fill:#A1C7D5;" d="M71.8,22.1
		c-7.8,0-14.1,6.4-14.1,14.2s6.4,14.1,14.2,14.1C79.7,50.4,86,44,86,36.2C86,28.4,79.7,22.1,71.8,22.1
		C71.8,22.1,71.8,22.1,71.8,22.1z M71.4,22.5c6.7,0,12.1,5.5,12.1,12.2c0,6.7-5.5,12.1-12.2,12.1c-6.7,0-12.1-5.5-12.1-12.1
		C59.2,27.9,64.6,22.5,71.4,22.5C71.4,22.5,71.4,22.5,71.4,22.5z"/>
	<path style="clip-path:url(#SVGID_00000040544681250410043250000016595168344263935402_);fill:#FFFFFF;" d="M60.9,32.8
		c0-5.6,4.5-10.1,10.1-10.1s10.1,4.5,10.1,10.1c0,5.6-4.5,10.1-10.1,10.1c0,0,0,0,0,0C65.4,42.9,60.9,38.4,60.9,32.8z"/>
	<path style="clip-path:url(#SVGID_00000040544681250410043250000016595168344263935402_);fill:#CCE2E9;" d="M74.9,32.5
		c0-9.9,8-17.9,17.9-17.9s17.9,8,17.9,17.9s-8,17.9-17.9,17.9c0,0,0,0,0,0C82.9,50.4,74.9,42.4,74.9,32.5z"/>
	<path style="clip-path:url(#SVGID_00000040544681250410043250000016595168344263935402_);fill:#CCE2E9;" d="M99.7,36.2
		c0-7.8,6.3-14.2,14.2-14.2S128,28.4,128,36.2s-6.3,14.2-14.2,14.2c0,0,0,0,0,0C106,50.4,99.7,44.1,99.7,36.2
		C99.7,36.2,99.7,36.2,99.7,36.2z"/>
	<path style="clip-path:url(#SVGID_00000040544681250410043250000016595168344263935402_);fill:#FFFFFF;" d="M113.8,22.1
		c-3.3,0-6.5,1.1-9,3.2c-3,5.9-0.7,13.1,5.2,16.2c5.9,3,13.1,0.7,16.2-5.2c0.6-1.3,1.1-2.6,1.2-4C125.6,26.2,120.1,22,113.8,22.1
		L113.8,22.1z"/>
	<path style="clip-path:url(#SVGID_00000040544681250410043250000016595168344263935402_);fill:#1A1A1A;" d="M106.3,42.8
		c-5.7,7.5-16.4,8.9-23.8,3.2c-1.2-0.9-2.3-2-3.2-3.2l-1.4,1.1c6.3,8.2,18.1,9.8,26.4,3.5c1.3-1,2.5-2.2,3.5-3.5L106.3,42.8z"/>
	<path style="clip-path:url(#SVGID_00000040544681250410043250000016595168344263935402_);fill:#FFFFFF;" d="M92.5,14.1
		c-8.8,0-16.4,6.3-17.9,15c2.2,10.5,12.5,17.2,23,15c5.5-1.2,10.2-4.6,13-9.6c0.1-0.7,0.1-1.5,0.1-2.2
		C110.7,22.3,102.6,14.1,92.5,14.1C92.5,14.1,92.5,14.1,92.5,14.1L92.5,14.1z"/>
	<path style="clip-path:url(#SVGID_00000040544681250410043250000016595168344263935402_);fill:#1A1A1A;" d="M92.8,13.7
		c-6.3,0-12.2,3.2-15.7,8.5c-1.7-0.7-3.5-1-5.3-1l0,0c-8.3-0.2-15.2,6.4-15.4,14.7c-0.2,8.3,6.4,15.2,14.7,15.4c0.3,0,0.5,0,0.8,0
		l0,0c3.9,0,7.6-1.5,10.4-4.2L81,45.8c-5.3,5.1-13.7,4.9-18.8-0.3s-4.9-13.7,0.3-18.8c3.9-3.7,9.6-4.8,14.6-2.6l0.7,0.3l0.4-0.7
		c4.8-8,15.3-10.6,23.3-5.8c2.4,1.4,4.4,3.4,5.8,5.8l0.4,0.7l0.7-0.3c6.7-2.9,14.5,0.1,17.5,6.8s-0.1,14.5-6.8,17.5
		c-4.9,2.2-10.7,1.1-14.5-2.6l-1.2,1.3c6,5.8,15.5,5.6,21.3-0.4c5.8-6,5.6-15.5-0.4-21.3c-2.8-2.7-6.6-4.2-10.4-4.2l0,0
		c-1.8,0-3.6,0.3-5.4,1C105,16.9,99.1,13.7,92.8,13.7z"/>
	<path style="clip-path:url(#SVGID_00000040544681250410043250000016595168344263935402_);fill:#1A1A1A;" d="M181.4,69.2
		c-2.2,0.1-4,1.9-4,4.1l0.1,7.3c0,2.2,1.8,4,4.1,4c2.2,0,4-1.8,4-4.1l-0.1-7.3C185.4,71,183.6,69.2,181.4,69.2z"/>
	<path style="clip-path:url(#SVGID_00000040544681250410043250000016595168344263935402_);fill:#1A1A1A;" d="M176.8,68.3
		c-2.2,0-4,1.8-4,4.1l0.1,9.2c0,2.2,1.8,4,4.1,4c2.2,0,4-1.8,4-4.1l-0.1-9.2C180.8,70.1,179,68.3,176.8,68.3L176.8,68.3z"/>
	<path style="clip-path:url(#SVGID_00000040544681250410043250000016595168344263935402_);fill:#1A1A1A;" d="M167.5,69.3
		c2.2,0,4,1.8,4.1,4l0.1,7.3c0,2.2-1.8,4-4,4.1c-2.2,0-4-1.8-4.1-4l-0.1-7.3C163.5,71.2,165.3,69.4,167.5,69.3z"/>
	<path style="clip-path:url(#SVGID_00000040544681250410043250000016595168344263935402_);fill:#1A1A1A;" d="M172.1,68.4
		c2.2,0,4,1.8,4.1,4l0.1,9.2c0,2.2-1.8,4-4,4.1c-2.2,0-4-1.8-4.1-4l0,0l-0.1-9.2C168.1,70.2,169.9,68.4,172.1,68.4L172.1,68.4z"/>
	<path style="clip-path:url(#SVGID_00000040544681250410043250000016595168344263935402_);fill:#1A1A1A;" d="M171.6,92.5
		c-1.9,0-3.4,1.6-3.4,3.5l0.3,36.9c0,3.6,3,6.5,6.6,6.4c3.6,0,6.5-3,6.4-6.6l-0.3-36.8c0-1.9-1.6-3.4-3.5-3.4L171.6,92.5z
		 M175.3,132.8c0,0.2-0.1,0.3-0.3,0.3s-0.3-0.1-0.3-0.3l-0.3-34.1h0.6L175.3,132.8z"/>
	<path style="clip-path:url(#SVGID_00000040544681250410043250000016595168344263935402_);fill:#1A1A1A;" d="M164.1,64.8
		c-2.7,0-5,2.3-5,5l0.1,7c0,4.7,2.1,9.2,5.7,12.2c2.4,2.2,3.6,2.8,3.7,6.7l6.1-0.1h0.1h6.1c0-3.9,1.2-4.6,3.6-6.8
		c3.6-3.1,5.6-7.6,5.5-12.3l-0.1-7c0-2.8-2.3-5-5.1-5L164.1,64.8z M183.7,76.7c0,4.6-1.3,5.5-3.5,7.6c-2.1,1.9-5,5-5.5,10.1
		c-0.5-5.1-3.5-8.1-5.6-10c-2.3-2.1-3.6-3-3.7-7.5l-0.1-5.8l18.3-0.2L183.7,76.7z"/>
	<path style="clip-path:url(#SVGID_00000040544681250410043250000016595168344263935402_);fill:#C67550;" d="M171.6,95.6
		c-0.2,0-0.3,0.1-0.3,0.3c0,0,0,0,0,0c0.1,12.3,0.2,24.6,0.3,36.9c0,1.9,1.5,3.4,3.4,3.4c1.9,0,3.4-1.5,3.4-3.4
		c-0.1-12.3-0.2-24.6-0.3-36.8c0-0.2-0.2-0.3-0.3-0.3L171.6,95.6z"/>
	<path style="clip-path:url(#SVGID_00000040544681250410043250000016595168344263935402_);fill:#DB9C73;" d="M176,95.6l0.3,38.1
		c0,0.4-0.1,0.8-0.2,1.2c0.7-0.6,1.2-1.6,1.2-2.6L177,95.6L176,95.6z"/>
	<path style="clip-path:url(#SVGID_00000040544681250410043250000016595168344263935402_);fill:#C9C0B7;" d="M164.1,67.9
		c-1,0-1.9,0.9-1.9,1.9c0,0,0,0,0,0l0.1,7c0.1,10.9,9.3,9,9.4,18.8h6.1c-0.1-9.8,9.1-8.1,9.1-19l-0.1-7c0-1-0.9-1.9-1.9-1.9
		c0,0,0,0,0,0L164.1,67.9z M176.8,71.5c0.5,0,0.9,0.4,0.9,0.9c0,0,0,0,0,0l0.1,9.2c0,0.5-0.4,0.9-0.9,0.9c-0.5,0-0.9-0.4-0.9-0.9
		l-0.1-9.2C175.9,71.9,176.3,71.4,176.8,71.5L176.8,71.5z M172.2,71.5c0.5,0,0.9,0.4,0.9,0.9c0,0,0,0,0,0l0.1,9.2
		c0,0.5-0.4,0.9-0.9,0.9c-0.5,0-0.9-0.4-0.9-0.9l-0.1-9.2C171.2,71.9,171.6,71.4,172.2,71.5C172.1,71.4,172.1,71.4,172.2,71.5
		L172.2,71.5z M181.4,72.3c0.5,0,0.9,0.4,0.9,0.9c0,0,0,0,0,0l0.1,7.3c0,0.5-0.4,0.9-0.9,0.9c-0.5,0-0.9-0.4-0.9-0.9l-0.1-7.3
		C180.5,72.7,180.9,72.3,181.4,72.3L181.4,72.3z M167.5,72.4c0.5,0,0.9,0.4,0.9,0.9c0,0,0,0,0,0l0.1,7.3c0,0.5-0.4,0.9-0.9,0.9
		c-0.5,0-0.9-0.4-0.9-0.9l-0.1-7.3C166.6,72.8,167,72.4,167.5,72.4C167.5,72.4,167.5,72.4,167.5,72.4L167.5,72.4z"/>
	<path style="clip-path:url(#SVGID_00000040544681250410043250000016595168344263935402_);fill:#FFFFFF;" d="M176.1,71
		c-0.7,0-1.4,0.6-1.4,1.4l0.1,9.2c0,0.8,0.6,1.4,1.4,1.3c0.4,0,0.8-0.2,1.1-0.5c-0.4,0.2-1,0.1-1.2-0.4c-0.1-0.1-0.1-0.3-0.1-0.4
		l-0.1-9.2c0-0.5,0.4-0.9,0.9-0.9c0.1,0,0.3,0,0.4,0.1C176.9,71.2,176.5,71,176.1,71z M171.5,71c-0.8,0-1.4,0.6-1.4,1.4l0.1,9.2
		c0,0.8,0.5,1.4,1.3,1.4c0,0,0.1,0,0.1,0c0.4,0,0.8-0.2,1.1-0.6c-0.1,0.1-0.3,0.1-0.4,0.1c-0.5,0-0.9-0.4-0.9-0.9c0,0,0,0,0,0
		l-0.1-9.2c0-0.5,0.4-0.9,0.9-0.9c0,0,0,0,0,0c0.1,0,0.3,0,0.4,0.1C172.3,71.3,171.9,71.1,171.5,71L171.5,71z M180.8,71.8
		c-0.7,0-1.4,0.6-1.4,1.4l0.1,7.3c0,0.8,0.6,1.4,1.4,1.3c0.4,0,0.8-0.2,1.1-0.5c-0.4,0.2-1,0.1-1.2-0.4c-0.1-0.1-0.1-0.3-0.1-0.4
		l-0.1-7.3c0-0.5,0.4-0.9,0.9-0.9c0.1,0,0.3,0,0.4,0.1C181.6,72,181.2,71.8,180.8,71.8L180.8,71.8z M166.8,72
		c-0.7,0-1.4,0.6-1.4,1.4l0.1,7.3c0,0.8,0.6,1.4,1.4,1.3c0.4,0,0.8-0.2,1.1-0.5c-0.4,0.2-1,0.1-1.2-0.4c-0.1-0.1-0.1-0.3-0.1-0.4
		l-0.1-7.3c0-0.5,0.4-0.9,0.9-0.9c0.1,0,0.3,0,0.4,0.1C167.7,72.2,167.3,72,166.8,72z"/>
	<path style="clip-path:url(#SVGID_00000040544681250410043250000016595168344263935402_);fill:#A0958A;" d="M164.1,67.9
		c-1,0-1.9,0.9-1.9,1.9c0,0,0,0,0,0l24.5-0.2c0-1-0.9-1.9-1.9-1.9c0,0,0,0,0,0L164.1,67.9z"/>
	<path style="clip-path:url(#SVGID_00000040544681250410043250000016595168344263935402_);fill:#A0958A;" d="M166.4,86.1
		c2.5,2.3,5.2,4.2,5.3,9.6h6.1c0-5.3,2.6-7.3,5.1-9.6L166.4,86.1z"/>
	<path style="clip-path:url(#SVGID_00000040544681250410043250000016595168344263935402_);fill:#FFFFFF;" d="M183.5,67.7
		c1,0,1.9,0.8,1.9,1.9c0,0,0,0,0,0l0.1,7c0.1,10.6-9.1,8-9.1,19h1.3c-0.1-9.8,9.1-8.1,9.1-19l-0.1-7c0-1-0.9-1.9-1.9-1.9
		c0,0,0,0,0,0H183.5z"/>
	<path style="clip-path:url(#SVGID_00000040544681250410043250000016595168344263935402_);fill:#9B5341;" d="M171.6,95.6
		c-0.2,0-0.3,0.1-0.3,0.3c0,0,0,0,0,0l0.3,36.9c0,1.9,1.6,3.4,3.4,3.4c0.3,0,0.6,0,0.8-0.1c0,0-2.5,0.1-2.6-3.2L173,96
		c0-0.2,0.1-0.3,0.3-0.3c0,0,0,0,0,0L171.6,95.6z"/>
	<path style="clip-path:url(#SVGID_00000040544681250410043250000016595168344263935402_);fill:#DB9C73;" d="M171.6,95.6
		c-0.2,0-0.3,0.1-0.3,0.3c0,0,0,0,0,0l0.3,36.9c0,1.7,1.3,3.2,3.1,3.3c-1.7-0.1-3-1.5-3-3.2l-0.3-35.8c0-0.2,0.1-0.3,0.3-0.3
		c0,0,0,0,0,0l5.9-0.1c0.2,0,0.3,0.1,0.3,0.3v0l0.3,35.8c0,1.7-1.2,3.1-2.9,3.3c1.7-0.2,3-1.7,3-3.4L178,95.9c0-0.2-0.2-0.3-0.3-0.3
		L171.6,95.6z"/>
	<path style="clip-path:url(#SVGID_00000040544681250410043250000016595168344263935402_);fill:#1A1A1A;" d="M171.6,95.2
		c-0.4,0-0.8,0.4-0.8,0.8l0.3,36.8c-0.1,2.1,1.6,3.9,3.7,4c2.1,0.1,3.9-1.6,4-3.7c0-0.1,0-0.3,0-0.4l-0.3-36.8
		c0-0.4-0.4-0.8-0.8-0.8L171.6,95.2z M177.9,132.8c-0.1,1.6-1.5,2.9-3.1,2.8c-1.5-0.1-2.7-1.3-2.8-2.8L171.8,96h5.9L177.9,132.8z"/>
	<path style="clip-path:url(#SVGID_00000040544681250410043250000016595168344263935402_);fill:#5A4540;" d="M173.9,104.6
		c0-0.2,0.1-0.4,0.2-0.6c0.2-0.2,0.4-0.3,0.6-0.3c0.2,0,0.4,0.1,0.6,0.2c0.2,0.2,0.3,0.4,0.3,0.6c0.1,0.5-0.3,0.9-0.8,0.9
		c-0.5,0.1-0.9-0.3-0.9-0.8C173.9,104.7,173.9,104.6,173.9,104.6L173.9,104.6z"/>
	<path style="clip-path:url(#SVGID_00000040544681250410043250000016595168344263935402_);fill:#1A1A1A;" d="M174.8,103.5
		c-0.6,0-1.1,0.5-1.1,1.1c0,0.6,0.5,1.1,1.1,1.1c0.6,0,1.1-0.5,1.1-1.1C175.8,104,175.3,103.5,174.8,103.5
		C174.8,103.5,174.8,103.5,174.8,103.5z M174.8,104c0.4,0,0.6,0.3,0.6,0.6c0,0.4-0.3,0.6-0.6,0.6c-0.4,0-0.6-0.3-0.6-0.6
		c0,0,0,0,0,0C174.1,104.2,174.4,104,174.8,104z"/>
	<path style="clip-path:url(#SVGID_00000040544681250410043250000016595168344263935402_);fill:#1A1A1A;" d="M164.1,67.5
		c-1.3,0-2.3,1.1-2.3,2.4c0,0,0,0,0,0l0.1,7c0.1,5.6,2.5,8,4.8,10.1s4.5,3.9,4.5,8.7h0.9c-0.1-5.1-2.5-7.2-4.8-9.3s-4.5-4.1-4.5-9.5
		l-0.1-7c0-0.8,0.6-1.5,1.4-1.5c0,0,0,0,0,0l20.7-0.2c0.8,0,1.5,0.6,1.5,1.4c0,0,0,0,0,0l0.1,7c0,5.3-2.1,7.4-4.4,9.6
		s-4.7,4.3-4.7,9.4h0.9c-0.1-4.8,2.1-6.6,4.4-8.7s4.7-4.6,4.7-10.2l-0.1-7c0-1.3-1.1-2.3-2.4-2.3L164.1,67.5z"/>
	<path style="clip-path:url(#SVGID_00000040544681250410043250000016595168344263935402_);fill:#5A4540;" d="M173.9,99.1
		c0-0.5,0.4-0.8,0.8-0.9c0,0,0,0,0,0c0.5,0.1,0.8,0.5,0.8,0.9c0,0.4-0.4,0.7-0.8,0.8c-0.2,0-0.4-0.1-0.6-0.2
		C173.9,99.5,173.8,99.3,173.9,99.1L173.9,99.1z"/>
	<path style="clip-path:url(#SVGID_00000040544681250410043250000016595168344263935402_);fill:#1A1A1A;" d="M174.7,98
		c-0.6,0-1.1,0.5-1.1,1.1c0,0.6,0.5,1.1,1.1,1.1c0.6,0,1.1-0.5,1.1-1.1c0,0,0,0,0,0C175.8,98.5,175.3,98,174.7,98
		C174.7,98,174.7,98,174.7,98z M174.7,98.4c0.4,0,0.6,0.4,0.6,0.7c0,0.3-0.3,0.5-0.6,0.6c-0.4,0-0.6-0.4-0.6-0.7
		C174.2,98.7,174.4,98.5,174.7,98.4z"/>
	<path style="clip-path:url(#SVGID_00000040544681250410043250000016595168344263935402_);fill:#1A1A1A;" d="M181.4,71.9
		c-0.8,0-1.4,0.6-1.4,1.4l0.1,7.3c-0.1,0.8,0.5,1.4,1.2,1.5c0.8,0.1,1.4-0.5,1.5-1.2c0-0.1,0-0.2,0-0.2l-0.1-7.3
		C182.8,72.5,182.2,71.9,181.4,71.9L181.4,71.9z M181.4,72.8c0.3,0,0.5,0.2,0.5,0.5c0,0,0,0,0,0l0.1,7.3c0,0.3-0.2,0.5-0.5,0.5
		c0,0,0,0,0,0c-0.3,0-0.5-0.2-0.5-0.5c0,0,0,0,0,0l0-7.3C181,73,181.2,72.8,181.4,72.8C181.5,72.8,181.5,72.8,181.4,72.8L181.4,72.8
		z"/>
	<path style="clip-path:url(#SVGID_00000040544681250410043250000016595168344263935402_);fill:#1A1A1A;" d="M176.8,71
		c-0.8,0-1.4,0.6-1.4,1.4l0.1,9.2c0,0.8,0.6,1.4,1.4,1.4s1.4-0.6,1.4-1.4l-0.1-9.2C178.2,71.6,177.5,71,176.8,71z M176.8,71.9
		c0.3,0,0.5,0.2,0.5,0.4c0,0,0,0,0,0l0.1,9.2c0,0.3-0.2,0.5-0.5,0.5c0,0,0,0,0,0c-0.3,0-0.5-0.2-0.5-0.4c0,0,0,0,0,0l-0.1-9.2
		C176.3,72.1,176.5,71.9,176.8,71.9C176.8,71.9,176.8,71.9,176.8,71.9z"/>
	<path style="clip-path:url(#SVGID_00000040544681250410043250000016595168344263935402_);fill:#1A1A1A;" d="M167.5,72
		c0.8,0,1.4,0.6,1.4,1.3l0.1,7.3c0.1,0.8-0.5,1.4-1.2,1.5c-0.8,0.1-1.4-0.5-1.5-1.2c0-0.1,0-0.2,0-0.2l-0.1-7.3
		C166.2,72.6,166.8,72,167.5,72z M167.5,72.9c-0.3,0-0.5,0.2-0.5,0.5c0,0,0,0,0,0l0.1,7.3c0,0.3,0.2,0.5,0.5,0.5c0,0,0,0,0,0
		c0.3,0,0.5-0.2,0.5-0.5c0,0,0,0,0,0l-0.1-7.3C168,73.1,167.8,72.9,167.5,72.9C167.5,72.9,167.5,72.9,167.5,72.9z"/>
	<path style="clip-path:url(#SVGID_00000040544681250410043250000016595168344263935402_);fill:#1A1A1A;" d="M172.1,71
		c0.8,0,1.4,0.6,1.4,1.4l0.1,9.2c-0.1,0.8-0.7,1.3-1.5,1.2c-0.7-0.1-1.2-0.6-1.2-1.2l-0.1-9.2C170.8,71.6,171.4,71,172.1,71z
		 M172.1,71.9c-0.3,0-0.5,0.2-0.5,0.5c0,0,0,0,0,0l0.1,9.2c0,0.3,0.3,0.4,0.5,0.4c0.2,0,0.4-0.2,0.4-0.4l-0.1-9.2
		C172.6,72.1,172.4,71.9,172.1,71.9C172.2,71.9,172.2,71.9,172.1,71.9L172.1,71.9z"/>
	<path style="clip-path:url(#SVGID_00000040544681250410043250000016595168344263935402_);fill:#1A1A1A;" d="M127.2,148.2
		c0.1-3.4-2.5-6.3-5.9-6.4c-3.4-0.1-6.3,2.5-6.4,5.9c0,0.2,0,0.3,0,0.5v9.2c-0.1,3.4,2.5,6.3,5.9,6.4c3.4,0.1,6.3-2.5,6.4-5.9
		c0-0.2,0-0.3,0-0.5V148.2z"/>
	<path style="clip-path:url(#SVGID_00000040544681250410043250000016595168344263935402_);fill:#1A1A1A;" d="M70.8,148.2
		c0.1-3.4-2.5-6.3-5.9-6.4c-3.4-0.1-6.3,2.5-6.4,5.9c0,0.2,0,0.3,0,0.5v9.2c-0.1,3.4,2.5,6.3,5.9,6.4c3.4,0.1,6.3-2.5,6.4-5.9
		c0-0.2,0-0.3,0-0.5V148.2z"/>
	<path style="clip-path:url(#SVGID_00000040544681250410043250000016595168344263935402_);fill:#1A1A1A;" d="M58.8,150.8L57,186
		h71.7l-1.7-32.2l-0.2-2.9H58.8z M122.1,179.8H63.5l1.2-22.8h56.2L122.1,179.8z"/>
	<path style="clip-path:url(#SVGID_00000040544681250410043250000016595168344263935402_);fill:#CCE2E9;" d="M124,157.4
		c-0.1,1.7-1.6,3-3.3,2.9c-1.6-0.1-2.8-1.3-2.9-2.9v-9.2c0.1-1.7,1.6-3,3.3-2.9c1.6,0.1,2.8,1.3,2.9,2.9V157.4z"/>
	<path style="clip-path:url(#SVGID_00000040544681250410043250000016595168344263935402_);fill:#1A1A1A;" d="M124.5,148.2
		c0.2-1.9-1.2-3.7-3.1-3.9c-1.9-0.2-3.7,1.2-3.9,3.1c0,0.2,0,0.5,0,0.7v9.2c-0.2,1.9,1.2,3.7,3.1,3.9c1.9,0.2,3.7-1.2,3.9-3.1
		c0-0.2,0-0.5,0-0.7V148.2z M123.6,157.4c0.1,1.4-1,2.7-2.5,2.8c-1.4,0.1-2.7-1-2.8-2.5c0-0.1,0-0.2,0-0.3v-9.2
		c-0.1-1.4,1-2.7,2.5-2.8c1.4-0.1,2.7,1,2.8,2.5c0,0.1,0,0.2,0,0.3V157.4z"/>
	<path style="clip-path:url(#SVGID_00000040544681250410043250000016595168344263935402_);fill:#CCE2E9;" d="M67.7,157.4
		c0,1.7-1.4,3.1-3.1,3.1c-1.7,0-3.1-1.4-3.1-3.1c0,0,0,0,0,0v-9.2c0-1.7,1.4-3.1,3.1-3.1c1.7,0,3.1,1.4,3.1,3.1c0,0,0,0,0,0V157.4z"
		/>
	<path style="clip-path:url(#SVGID_00000040544681250410043250000016595168344263935402_);fill:#1A1A1A;" d="M68.2,148.2
		c0.2-1.9-1.2-3.7-3.1-3.9c-1.9-0.2-3.7,1.2-3.9,3.1c0,0.2,0,0.5,0,0.7v9.2c-0.2,1.9,1.2,3.7,3.1,3.9c1.9,0.2,3.7-1.2,3.9-3.1
		c0-0.2,0-0.5,0-0.7V148.2z M67.3,157.4c0,1.5-1.2,2.6-2.6,2.6c-1.5,0-2.6-1.2-2.6-2.6v-9.2c0-1.5,1.2-2.6,2.6-2.6
		c1.5,0,2.6,1.2,2.6,2.6V157.4z"/>
	<path style="clip-path:url(#SVGID_00000040544681250410043250000016595168344263935402_);fill:#FFFFFF;" d="M61.8,153.9l-1.5,29
		h65.1l-1.5-29H61.8z"/>
	<path style="clip-path:url(#SVGID_00000040544681250410043250000016595168344263935402_);fill:#CCE2E9;" d="M115,153.9l1.5,29h8.8
		l-1.5-29H115z"/>
	<path style="clip-path:url(#SVGID_00000040544681250410043250000016595168344263935402_);fill:#CCE2E9;" d="M61.8,153.9l-1.5,29
		h14.2l1.4-29H61.8z"/>
	<path style="clip-path:url(#SVGID_00000040544681250410043250000016595168344263935402_);fill:#CCE2E9;" d="M61,169.2l-0.3,5.1
		h64.2l-0.3-5.1H61z"/>
	<path style="clip-path:url(#SVGID_00000040544681250410043250000016595168344263935402_);fill:#CCE2E9;" d="M115.8,169.2l0.3,5.1
		h8.8l-0.3-5.1H115.8z"/>
	<path style="clip-path:url(#SVGID_00000040544681250410043250000016595168344263935402_);fill:#CCE2E9;" d="M61,169.2l-0.3,5.1
		h14.1l0.2-5.1H61z"/>
	<path style="clip-path:url(#SVGID_00000040544681250410043250000016595168344263935402_);fill:#1A1A1A;" d="M61.3,153.5l-1.6,29.9
		h66.1l-1.6-29.5v-0.4H61.3z M124.9,182.5H60.7l1.5-28.1h61.2L124.9,182.5z"/>
	<path style="clip-path:url(#SVGID_00000040544681250410043250000016595168344263935402_);fill:#FFFFFF;" d="M121,156.2
		c0.7,0,1.2,0.6,1.2,1.2c0,0.3-0.1,0.6-0.4,0.9c-0.5,0.5-1.2,0.5-1.7,0c0,0,0,0,0,0c-0.2-0.2-0.4-0.5-0.4-0.9
		C119.8,156.8,120.3,156.2,121,156.2z"/>
	<path style="clip-path:url(#SVGID_00000040544681250410043250000016595168344263935402_);fill:#1A1A1A;" d="M122.6,157.4
		c0-0.9-0.7-1.7-1.7-1.7c-0.9,0-1.7,0.7-1.7,1.7s0.7,1.7,1.7,1.7c0,0,0,0,0,0C121.9,159.1,122.6,158.4,122.6,157.4z M121.8,157.4
		c0,0.4-0.3,0.8-0.8,0.8c-0.4,0-0.8-0.3-0.8-0.8c0-0.4,0.3-0.8,0.8-0.8c0,0,0,0,0,0C121.4,156.7,121.7,157,121.8,157.4
		C121.7,157.4,121.8,157.4,121.8,157.4z"/>
	<path style="clip-path:url(#SVGID_00000040544681250410043250000016595168344263935402_);fill:#FFFFFF;" d="M64.6,156.2
		c0.7,0,1.2,0.6,1.2,1.2c0,0.3-0.1,0.6-0.4,0.9c-0.2,0.2-0.5,0.4-0.9,0.4c-0.3,0-0.6-0.1-0.9-0.4c-0.2-0.2-0.3-0.5-0.3-0.9
		C63.4,156.8,64,156.2,64.6,156.2C64.6,156.2,64.6,156.2,64.6,156.2z"/>
	<path style="clip-path:url(#SVGID_00000040544681250410043250000016595168344263935402_);fill:#1A1A1A;" d="M66.3,157.4
		c0-0.9-0.7-1.7-1.7-1.7c-0.9,0-1.7,0.7-1.7,1.7s0.7,1.7,1.7,1.7l0,0C65.6,159.1,66.3,158.4,66.3,157.4z M65.4,157.4
		c0,0.4-0.3,0.8-0.8,0.8s-0.8-0.3-0.8-0.8c0-0.4,0.3-0.8,0.8-0.8l0,0C65.1,156.7,65.4,157,65.4,157.4
		C65.4,157.4,65.4,157.4,65.4,157.4z"/>
	<path style="clip-path:url(#SVGID_00000040544681250410043250000016595168344263935402_);fill:#1A1A1A;" d="M60.5,168.7l-0.3,6
		h65.2l-0.3-5.6v-0.4L60.5,168.7z M124.4,173.8H61.2l0.2-4.2h62.8L124.4,173.8z"/>
	
		<rect x="83.1" y="158.3" style="clip-path:url(#SVGID_00000040544681250410043250000016595168344263935402_);fill:#CCE2E9;" width="19.3" height="2.5"/>
	<path style="clip-path:url(#SVGID_00000040544681250410043250000016595168344263935402_);fill:#1A1A1A;" d="M45,0H16H0.1v16
		c0,7,0,14,0,21c10.3,12.4,28.6,14,41,3.8c6.7-5.5,10.5-13.8,10.5-22.5C51.5,11.6,49.2,5.2,45,0z"/>
	<g style="clip-path:url(#SVGID_00000040544681250410043250000016595168344263935402_);enable-background:new    ;">
		<text transform="matrix(1 0 0 1 15.65 31.75)" class="st17 st3 st18">12</text>
	</g>
</g>
</svg>
