<svg id="Слой_1" data-name="Слой 1" xmlns="http://www.w3.org/2000/svg" xmlns:xlink="http://www.w3.org/1999/xlink" viewBox="0 0 195.59 280.63"><defs><style>.cls-1{fill:none;}.cls-2{clip-path:url(#clip-path);}.cls-12,.cls-13,.cls-3{fill:#eb5a53;}.cls-4{fill:#1a1a1a;}.cls-5{fill:#c21633;}.cls-6{fill:#8e1632;}.cls-7{fill:#e62736;}.cls-14,.cls-8{fill:#fff;}.cls-9{fill:#595959;}.cls-10{fill:#797979;}.cls-11{fill:#3e3e3e;}.cls-12{font-size:34px;}.cls-12,.cls-14{font-family:Impact;}.cls-13{font-size:14px;font-family:Roboto-ThinItalic, Roboto;font-weight:200;font-style:italic;}.cls-14{font-size:20px;}</style><clipPath id="clip-path"><rect class="cls-1" x="-5.53" y="-3.41" width="206.66" height="287.45"/></clipPath></defs><g class="cls-2"><path class="cls-3" d="M89,162.66c-7,9.1-19.94,19.7-23.69,16.83s3.15-18.14,10.13-27.24,12.39-7.84,15.16-5.71,5.38,7-1.6,16.12Zm0,0"/><path class="cls-4" d="M92.05,144.65a9.69,9.69,0,0,0-8-1.79c-3.31.72-6.83,3.12-10.54,7.94a74.23,74.23,0,0,0-9.41,16.52A31.15,31.15,0,0,0,62,175c-.27,2.33-.13,4.8,1.89,6.35s4.45,1.05,6.63.19a30.78,30.78,0,0,0,6.88-4.1,74,74,0,0,0,13.52-13.36c3.7-4.83,5.11-8.86,5-12.24a9.69,9.69,0,0,0-3.79-7.22Zm-2.9,3.78a4.57,4.57,0,0,1,1.92,3.67c.09,1.86-.68,4.83-4,9.1a70.37,70.37,0,0,1-12.6,12.45,27,27,0,0,1-5.78,3.48,4.68,4.68,0,0,1-1.94.43,4.92,4.92,0,0,1-.09-2,28,28,0,0,1,1.87-6.49,71,71,0,0,1,8.76-15.38c3.28-4.28,6-5.8,7.78-6.19a4.58,4.58,0,0,1,4,.91Zm0,0"/><path class="cls-3" d="M132.73,160.39c-4.39,10.6-14.16,24.2-18.52,22.39s-1.65-18.33,2.74-28.93,9.93-10.78,13.16-9.44,7,5.39,2.62,16Zm0,0"/><path class="cls-4" d="M131,142.21a9.69,9.69,0,0,0-8.15.33c-3,1.55-5.8,4.78-8.13,10.4a74.32,74.32,0,0,0-4.81,18.39,31.42,31.42,0,0,0-.11,8c.35,2.32,1.12,4.67,3.48,5.65s4.57-.14,6.45-1.54a31.28,31.28,0,0,0,5.59-5.74,74,74,0,0,0,9.6-16.4c2.32-5.63,2.64-9.88,1.61-13.11a9.71,9.71,0,0,0-5.53-6Zm-1.83,4.4a4.6,4.6,0,0,1,2.82,3c.56,1.78.58,4.85-1.48,9.82a70.53,70.53,0,0,1-8.94,15.29,27.77,27.77,0,0,1-4.68,4.85,4.85,4.85,0,0,1-1.77.92,5.06,5.06,0,0,1-.6-1.9,27.29,27.29,0,0,1,.13-6.74,70.11,70.11,0,0,1,4.48-17.13c2.06-5,4.24-7.14,5.9-8a4.58,4.58,0,0,1,4.14-.17Zm0,0"/><path class="cls-3" d="M161.73,92c11.37-1.5,28,.17,28.65,4.85S175.33,107.48,164,109s-14.3-3.21-14.76-6.67,1.16-8.77,12.53-10.27Zm0,0"/><path class="cls-4" d="M146.83,102.62a9.71,9.71,0,0,0,4.36,6.89c2.86,1.83,7.05,2.63,13.08,1.84a74.48,74.48,0,0,0,18.33-5,31.46,31.46,0,0,0,7-3.91c1.84-1.46,3.49-3.3,3.15-5.84s-2.4-3.88-4.55-4.81a30.82,30.82,0,0,0-7.76-2,73.76,73.76,0,0,0-19-.11c-6,.79-9.88,2.64-12.16,5.15a9.71,9.71,0,0,0-2.43,7.79Zm4.73-.62a4.61,4.61,0,0,1,1.23-4c1.26-1.38,3.91-2.93,9.25-3.64a70.44,70.44,0,0,1,17.71.11,27.66,27.66,0,0,1,6.54,1.62A5,5,0,0,1,188,97.2a4.87,4.87,0,0,1-1.34,1.47,27.67,27.67,0,0,1-5.9,3.26,70.7,70.7,0,0,1-17.08,4.69c-5.34.7-8.3-.11-9.88-1.12a4.6,4.6,0,0,1-2.21-3.5Zm0,0"/><path class="cls-4" d="M65.19,73.06a37,37,0,0,0-17.31,4.71C34.19,85.38,25.22,100,17.42,112.18,11.27,121.81,5.11,128,.15,129.78a9.27,9.27,0,0,1-7,0c-2.43-1-5.23-3.05-8.24-6.79l-3.26-4-2.88,4.32c-5.4,8.09-6.13,17.93-2.37,25.61S-11.1,161.63,0,159.79a27,27,0,0,1,6.14-.52c.1,0,0-.15.21.31a11.38,11.38,0,0,1,.7,3.51,11.26,11.26,0,0,0,3.7,7.95,10.29,10.29,0,0,0,8.35,2c5.92-1,12-5.43,18.3-13.24a10.53,10.53,0,0,1,3.46-3.06s-.09-.12.33.27a10.23,10.23,0,0,1,1.89,2.83c2,4,4.85,6.85,8.39,8.05a15,15,0,0,0,10.8-.87c6.95-3,13.59-9.63,19.82-18,12.46-16.75,23-40.53,22.24-58.85l-.08-1.85-1.51-1.09C88.37,76.9,75.88,72.81,65.19,73.06Zm.41,7.39c8.36-.24,18.37,3,31.07,11.86-.18,15-9.63,37.21-20.73,52.13C70.15,152.21,63.85,158,59.21,160c-2.32,1-4,1.09-5.32.65s-2.65-1.5-4-4.23a16.55,16.55,0,0,0-3.57-5.06,8.33,8.33,0,0,0-5.45-2.27c-4,0-6.82,2.67-9.43,5.9-5.59,6.94-10.9,10-13.61,10.51-1.36.22-1.86,0-2.21-.31a3.74,3.74,0,0,1-1-2.71,17.56,17.56,0,0,0-1.42-6.19A8.46,8.46,0,0,0,9,152.2c-3.55-1.45-6.64-.53-10.27.07-8.43,1.39-13.07-1.83-15.5-6.78A17.77,17.77,0,0,1-17.15,132a23.77,23.77,0,0,0,7.49,4.89A17.46,17.46,0,0,0,2.75,137c7.94-2.87,14.56-10.42,21.1-20.66,7.82-12.23,16.52-25.61,27.74-31.85a30.09,30.09,0,0,1,14-4Zm0,0"/><path class="cls-5" d="M66.13,76.74c-21.78.1-34.64,20.5-45.49,37.5-12.7,19.87-25.57,27.43-38.72,11.11-9.37,14-2.08,33.91,17.43,30.68,7.28-1.2,10.79-1.83,11.47,6.75.78,9.72,11.69,9.35,23.58-5.39,4.66-5.77,8.51-6.43,12.07.73,13.31,26.79,55.42-34.58,54-67.81C86.93,80.56,75.67,76.7,66.13,76.74Zm0,0"/><path class="cls-6" d="M53.21,96.59c-10.41,18.55-20.79,53.7-44.4,60,1.1,1.09,1.76,3,2,6.23.78,9.72,11.69,9.35,23.58-5.39,4.66-5.77,8.51-6.43,12.07.73,13.31,26.79,55.42-34.58,54-67.81,0,0-31-19.49-47.28,6.28Zm0,0"/><path class="cls-7" d="M26.38,123.36c13.29-19.47,23.65-50,47.23-45.88a38.12,38.12,0,0,0-7.48-.74c-21.78.1-34.64,20.5-45.49,37.5-12.7,19.87-25.57,27.43-38.72,11.11-3.15,18.56,19.67,34.32,44.46-2Zm0,0"/><path class="cls-4" d="M65.34,75.83a34.39,34.39,0,0,0-16.07,4.44c-12.76,7.1-21.63,21.23-29.44,33.45-6.3,9.86-12.63,16.55-18.7,18.75a12.3,12.3,0,0,1-9-.07c-3.05-1.19-6.2-3.66-9.42-7.65l-.81-1-.72,1.08c-4.87,7.28-5.44,16.1-2.18,22.76S-10.58,158.64-.49,157c3.64-.6,6.24-.94,7.69-.35a3.09,3.09,0,0,1,1.7,1.73,13.14,13.14,0,0,1,1,4.51,8.43,8.43,0,0,0,2.68,6,7.36,7.36,0,0,0,6.05,1.35c4.71-.79,10.51-4.73,16.55-12.21,2.25-2.8,4.22-4.14,5.69-4.13a3.22,3.22,0,0,1,2.25,1,12.31,12.31,0,0,1,2.52,3.66c1.74,3.51,4,5.71,6.75,6.62a12.05,12.05,0,0,0,8.74-.79c6.09-2.63,12.6-8.93,18.66-17.08,12.13-16.3,22.4-40,21.68-57l0-.46-.38-.27c-14-10.08-25.75-14-35.7-13.71Zm.11,1.85c9.36-.25,20.47,3.42,34.08,13.13C100,107,90,130.3,78.23,146.15c-6,8-12.38,14.09-17.89,16.47-2.75,1.19-5.22,1.46-7.37.74s-4.06-2.47-5.65-5.67a14.26,14.26,0,0,0-2.94-4.22A5.32,5.32,0,0,0,40.85,152c-2.51,0-4.79,1.87-7.19,4.84-5.86,7.26-11.46,10.88-15.37,11.53a5.32,5.32,0,0,1-4.51-.94,6.49,6.49,0,0,1-2-4.67,14.87,14.87,0,0,0-1.14-5.18,5.2,5.2,0,0,0-2.71-2.68c-2.29-.93-5.09-.36-8.72.24-9.43,1.56-15.61-2.37-18.54-8.35C-22.1,141.08-21.83,133.49-18,127c3.08,3.58,6.18,6,9.35,7.21a14.3,14.3,0,0,0,10.38.08c6.82-2.47,13.27-9.5,19.67-19.51,7.81-12.23,16.62-26.06,28.76-32.81a32.69,32.69,0,0,1,15.25-4.26Zm0,0"/><path class="cls-4" d="M69.34,76.15a23.26,23.26,0,0,0-11.66,3.2C53,82,49,86.17,45.37,91c-7.28,9.67-13.2,22.18-19.78,31.82C13.31,140.81,1.73,145.61-6.14,144s-12.5-9.62-11-18.48l-1.88-.32c-1.65,9.7,3.55,18.84,12.5,20.67s21.18-3.64,33.68-22c6.72-9.83,12.63-22.31,19.74-31.75C50.45,87.44,54.3,83.5,58.63,81a21.32,21.32,0,0,1,14.82-2.59l.33-1.87a25.49,25.49,0,0,0-4.44-.39Zm0,0"/><path class="cls-3" d="M46.4,105.41c-9.1,7-24.37,13.87-27.24,10.13S26.89,98.84,36,91.85s14-4.37,16.12-1.6,3.38,8.18-5.71,15.16Zm0,0"/><path class="cls-4" d="M54,88.8A9.69,9.69,0,0,0,46.78,85c-3.38-.16-7.41,1.25-12.24,4.95a74,74,0,0,0-13.36,13.52,31,31,0,0,0-4.1,6.88c-.86,2.18-1.37,4.61.19,6.63s4,2.17,6.35,1.9a31.21,31.21,0,0,0,7.71-2.18,74.23,74.23,0,0,0,16.52-9.41c4.82-3.7,7.22-7.23,7.94-10.54a9.69,9.69,0,0,0-1.79-8Zm-3.78,2.91a4.56,4.56,0,0,1,.91,4c-.39,1.82-1.91,4.49-6.19,7.77a70.55,70.55,0,0,1-15.38,8.76,27.56,27.56,0,0,1-6.49,1.87,4.92,4.92,0,0,1-2-.09,4.88,4.88,0,0,1,.43-1.94A27.25,27.25,0,0,1,25,106.34a70.37,70.37,0,0,1,12.45-12.6c4.27-3.27,7.24-4,9.1-4a4.58,4.58,0,0,1,3.67,1.93Zm0,0"/><path class="cls-4" d="M106.49,28a68.13,68.13,0,1,0,68.14,68.13A68.19,68.19,0,0,0,106.49,28Zm0,7.77A60.36,60.36,0,1,1,46.13,96.15a60.31,60.31,0,0,1,60.36-60.36Zm0,0"/><path class="cls-8" d="M170.74,96.28A64.15,64.15,0,1,1,152,50.92a64.16,64.16,0,0,1,18.79,45.36Zm0,0"/><path class="cls-8" d="M162.59,92.93a59.34,59.34,0,1,1-17.38-42,59.33,59.33,0,0,1,17.38,42Zm0,0"/><path class="cls-3" d="M42.45,96.28a64.15,64.15,0,1,0,128.29,0Zm0,0"/><path class="cls-3" d="M44,96.28a59.29,59.29,0,0,0,118.39,0Zm0,0"/><path class="cls-4" d="M106.49,30.93a65.22,65.22,0,1,0,65.22,65.22,65.24,65.24,0,0,0-65.22-65.22Zm0,1.94A63.28,63.28,0,1,1,43.22,96.15a63.27,63.27,0,0,1,63.27-63.28Zm0,0"/><path class="cls-4" d="M103.05,96.08a9.32,9.32,0,1,0,18.63,0h-1.91a7.41,7.41,0,0,1-14.81,0Zm0,0"/><path class="cls-4" d="M92.09,72.8a9.81,9.81,0,0,1,9.83,9.83v4.93a9.83,9.83,0,0,1-19.66,0V82.63a9.82,9.82,0,0,1,9.83-9.83Zm0,0"/><path class="cls-8" d="M97.81,79.85a3.17,3.17,0,1,1-3.17-3.17,3.17,3.17,0,0,1,3.17,3.17Zm0,0"/><path class="cls-4" d="M132.64,97.38a9.8,9.8,0,0,1-9.83-9.82V79.44h19.66v8.12a9.81,9.81,0,0,1-9.83,9.82Zm0,0"/><path class="cls-8" d="M139.87,85a3.17,3.17,0,1,1-3.17-3.17A3.17,3.17,0,0,1,139.87,85Zm0,0"/><path class="cls-4" d="M67.1,10.06l2.49,6.73.67,1.79a107.13,107.13,0,0,1-19.9-4.46L44.5,12.06l.81,6.15c4,30.64,29.07,47.14,52.75,50.78,11.84,1.82,23.49.59,32.58-3.84s15.68-12.66,15.68-23.39a24,24,0,0,0-6.74-17.18c-4.84-4.88-12.37-8.11-22.88-8.89-15.17-1.11-27.2-.2-42.63-3.94Zm12,10.53c13.38,2.35,24.53,1.79,37,2.71,9.25.68,14.76,3.37,18,6.65a16.07,16.07,0,0,1,4.52,11.81c0,7.78-4.15,13-11.38,16.53s-17.52,4.78-28.08,3.16C79.73,58.45,59.78,46.26,54,23.21c5.51,1.51,13.87,3.37,21.85,3.32l5.45,0Zm0,0"/><path class="cls-9" d="M73.17,15.46l2.69,7.26c-12.33.06-26.76-5-26.76-5,7.58,57.58,93.4,61.06,93.4,24,0-10.42-6.32-20.81-26.08-22.26-14.86-1.1-27.24-.16-43.25-4Zm0,0"/><path class="cls-10" d="M73.17,15.46l2.69,7.26c-12.33.06-26.76-5-26.76-5C69.11,43.8,128,47.09,138.41,29c-3.85-5-10.74-8.71-22-9.53-14.86-1.1-27.24-.16-43.25-4Zm0,0"/><path class="cls-11" d="M49.1,17.72c7.58,57.58,93.4,61.06,93.4,24a23.42,23.42,0,0,0-.54-5.07c-13.73,33.14-82.81,18.55-92.86-19Zm0,0"/><path class="cls-4" d="M71.65,14.11l.63,1.68,2.2,5.95c-11.75-.29-25.07-4.92-25.07-4.92L48,16.3l.2,1.54C52,47.09,75.77,62.67,98.5,66.16c11.36,1.75,22.49.51,30.89-3.58s14.06-11.19,14.06-20.82a21,21,0,0,0-5.9-15.17c-4.25-4.28-11-7.31-21.06-8-14.93-1.1-27.23-.18-43.1-4Zm3,2.67c15.31,3.44,27.43,2.62,41.67,3.67,9.72.71,16,3.61,19.84,7.49a19,19,0,0,1,5.36,13.82c0,8.89-5.06,15.24-13,19.1S109.83,66,98.79,64.27C77.1,60.94,54.61,46.45,50.28,19.1c3.41,1.12,14.91,4.63,25.59,4.57h1.36Zm0,0"/><text class="cls-12" transform="translate(58.66 236.56)">Adam<tspan x="-38" y="32">Mickiewicz</tspan></text><text class="cls-13" transform="translate(74.8 205.54)">bohater</text></g><path class="cls-3" d="M150.67,0l29,0h16l0,16c0,7,0,14,0,21A29.09,29.09,0,0,1,150.67,0Z"/><text class="cls-14" transform="translate(159.72 31.75)">15</text></svg>