<svg id="Слой_1" data-name="Слой 1" xmlns="http://www.w3.org/2000/svg" viewBox="0 0 195.59 280.63"><defs><style>.cls-1{font-size:53.3px;}.cls-1,.cls-3{fill:#1a1a1a;}.cls-1,.cls-15{font-family:Impact;}.cls-2{fill:#eb5a53;}.cls-15,.cls-4{fill:#fff;}.cls-5{fill:#eb5775;}.cls-6{fill:#f293a2;}.cls-7{fill:#cce2e9;}.cls-8{fill:#a1c7d5;}.cls-9{fill:#c67550;}.cls-10{fill:#db9c73;}.cls-11{fill:#c9c0b7;}.cls-12{fill:#a0958a;}.cls-13{fill:#9b5341;}.cls-14{fill:#5a4540;}.cls-15{font-size:20px;}</style></defs><text class="cls-1" transform="translate(18.76 256.45)">pierogi</text><path class="cls-2" d="M78.73,174.61c0,12.35-4.12,29.91-9.2,29.91s-9.2-17.56-9.2-29.91,5.44-14.81,9.2-14.81,9.2,2.46,9.2,14.81Zm0,0"/><path class="cls-3" d="M69.53,157.23a10.42,10.42,0,0,0-8,3.69c-2.36,2.78-3.79,7.14-3.79,13.69a79.35,79.35,0,0,0,2.79,20.28,33.17,33.17,0,0,0,3.19,8c1.29,2.17,3,4.19,5.78,4.19s4.49-2,5.78-4.19a33.17,33.17,0,0,0,3.2-8,79.8,79.8,0,0,0,2.79-20.28c0-6.55-1.44-10.91-3.8-13.69a10.42,10.42,0,0,0-8-3.69Zm0,5.13a5,5,0,0,1,4,1.87c1.3,1.54,2.58,4.59,2.58,10.38a75.68,75.68,0,0,1-2.6,18.89,29.28,29.28,0,0,1-2.65,6.76,5.22,5.22,0,0,1-1.38,1.64,5.37,5.37,0,0,1-1.38-1.64,29.74,29.74,0,0,1-2.65-6.76,75.68,75.68,0,0,1-2.6-18.89c0-5.79,1.28-8.84,2.58-10.38a5,5,0,0,1,4-1.87Zm0,0"/><path class="cls-2" d="M125.24,174.61c0,12.35-4.12,29.91-9.2,29.91s-9.2-17.56-9.2-29.91,5.44-14.81,9.2-14.81,9.2,2.46,9.2,14.81Zm0,0"/><path class="cls-3" d="M116,157.23a10.42,10.42,0,0,0-8,3.69c-2.36,2.78-3.8,7.14-3.8,13.69a79.8,79.8,0,0,0,2.79,20.28,33.17,33.17,0,0,0,3.2,8c1.29,2.17,3,4.19,5.78,4.19s4.49-2,5.78-4.19a33.17,33.17,0,0,0,3.19-8,79.35,79.35,0,0,0,2.79-20.28c0-6.55-1.43-10.91-3.79-13.69a10.42,10.42,0,0,0-8-3.69Zm0,5.13a5,5,0,0,1,4,1.87c1.3,1.54,2.58,4.59,2.58,10.38a75.68,75.68,0,0,1-2.6,18.89,29.74,29.74,0,0,1-2.65,6.76A5.37,5.37,0,0,1,116,201.9a5.22,5.22,0,0,1-1.38-1.64A29.74,29.74,0,0,1,112,193.5a75.68,75.68,0,0,1-2.6-18.89c0-5.79,1.28-8.84,2.58-10.38a5,5,0,0,1,4.05-1.87Zm0,0"/><path class="cls-2" d="M32.48,113.31C28.9,125.12,19.88,140.73,15,139.26s-3.72-19.47-.14-31.28S24.37,95.37,28,96.46s8.09,5,4.51,16.85Zm0,0"/><path class="cls-3" d="M28.76,95.37a10.41,10.41,0,0,0-8.69,1.21c-3.07,2-5.71,5.74-7.6,12a79.31,79.31,0,0,0-3.21,20.22A32.86,32.86,0,0,0,10,137.4c.61,2.45,1.69,4.89,4.32,5.68s4.88-.63,6.75-2.33A33.3,33.3,0,0,0,26.44,134,79.38,79.38,0,0,0,35,115.41c1.9-6.27,1.78-10.86.33-14.21a10.39,10.39,0,0,0-6.56-5.83Zm-1.49,4.91a5,5,0,0,1,3.34,3c.8,1.85,1.14,5.14-.54,10.68a75.38,75.38,0,0,1-8,17.33,29.28,29.28,0,0,1-4.5,5.7,5.25,5.25,0,0,1-1.79,1.17,5.43,5.43,0,0,1-.84-2,29.66,29.66,0,0,1-.59-7.24,75.74,75.74,0,0,1,3-18.84c1.68-5.55,3.79-8.09,5.48-9.18a4.92,4.92,0,0,1,4.41-.62Zm0,0"/><path class="cls-2" d="M168.17,107.46c4.72,11.41,7.64,29.2,2.94,31.15s-15.21-12.7-19.94-24.11-.64-15.77,2.83-17.21,9.44-1.24,14.17,10.17Zm0,0"/><path class="cls-3" d="M153,94.92a10.4,10.4,0,0,0-6,6.45c-1.12,3.48-.78,8.06,1.73,14.11a79.43,79.43,0,0,0,10.34,17.67,33.82,33.82,0,0,0,6,6.18c2,1.5,4.41,2.7,6.95,1.65s3.37-3.58,3.74-6.08a33,33,0,0,0-.12-8.62,79.52,79.52,0,0,0-5.18-19.8c-2.51-6.06-5.5-9.53-8.75-11.2a10.41,10.41,0,0,0-8.77-.36Zm2,4.74a5,5,0,0,1,4.46.18c1.79.92,4.14,3.25,6.36,8.6a76,76,0,0,1,4.83,18.45,30,30,0,0,1,.13,7.26,5.22,5.22,0,0,1-.65,2,5.4,5.4,0,0,1-1.9-1,30.39,30.39,0,0,1-5-5.23,76.23,76.23,0,0,1-9.63-16.46c-2.22-5.36-2.2-8.66-1.58-10.58a5,5,0,0,1,3-3.28Zm0,0"/><path class="cls-3" d="M92.79,41.48a72,72,0,1,0,72,72,72.11,72.11,0,0,0-72-72Zm0,8.22A63.83,63.83,0,1,1,29,113.52,63.76,63.76,0,0,1,92.79,49.7Zm0,0"/><path class="cls-2" d="M45.39,67c12.26-6.78,18.92,2,49.33,1.7,27.81-.3,33.64-7.78,44.9-1.7,19.07,10.29,19.51,41,19.51,44.89,0,2.76-.34,35.88-19.51,44.9-12.81,6-19.58-5.51-45.48-5.87-27.53-.38-35.12,12.44-48.75,5.87-19.18-9.24-19.52-42.08-19.51-44.9C25.89,108,26.33,77.56,45.39,67ZM25.88,111.9"/><path class="cls-4" d="M92.06,46.84A68.67,68.67,0,0,0,27.39,92.69H156.71A68.64,68.64,0,0,0,92.06,46.84Zm0,0"/><path class="cls-4" d="M95.64,48.41A63.47,63.47,0,0,0,35.2,92.69H156.13A63.49,63.49,0,0,0,95.64,48.41Zm0,0"/><path class="cls-4" d="M30,137.1A71.84,71.84,0,0,0,41.62,156,66.25,66.25,0,0,0,73,177,64.15,64.15,0,0,0,92,179.62a69.28,69.28,0,0,0,34-9.73,80.06,80.06,0,0,0,31.29-32.79Zm127.28,0"/><path class="cls-4" d="M153.84,137.22,34,137.22a65.89,65.89,0,0,0,119.86,0Z"/><path class="cls-3" d="M92.79,44.56a69,69,0,1,0,69,69,69,69,0,0,0-69-69Zm0,2.06a66.91,66.91,0,1,1-66.91,66.9,66.88,66.88,0,0,1,66.91-66.9Zm0,0"/><path class="cls-3" d="M111.71,104.22a9.14,9.14,0,0,0-9.16,9.16V121h18.32v-7.57a9.14,9.14,0,0,0-9.16-9.16Zm0,0"/><path class="cls-4" d="M106.38,110.79a3,3,0,1,1,3,3,3,3,0,0,1-3-3Zm0,0"/><path class="cls-3" d="M73.9,104.22a9.14,9.14,0,0,0-9.16,9.16V121H83.06v-7.57a9.14,9.14,0,0,0-9.16-9.16Zm0,0"/><path class="cls-4" d="M68.57,110.79a3,3,0,1,1,3,3,3,3,0,0,1-3-3Zm0,0"/><path class="cls-5" d="M89.48,122.41a5.52,5.52,0,0,0-5.54,5.53,10.23,10.23,0,0,0,8.86,5.12,11,11,0,0,0,2.21-.24v-4.88a5.52,5.52,0,0,0-5.53-5.53Zm0,0"/><path class="cls-3" d="M89.48,121.52a6.43,6.43,0,0,0-6.43,6.42v.24l.12.21a11.33,11.33,0,0,0,2.47,2.94L86.79,130a9.37,9.37,0,0,1-1.93-2.27,4.63,4.63,0,0,1,9.26.24v4.88H95.9v-4.88a6.43,6.43,0,0,0-6.42-6.42Zm0,0"/><rect class="cls-3" x="89.03" y="127.71" width="0.89" height="4.79"/><path class="cls-6" d="M92.5,126.25a1.19,1.19,0,1,1-1.18-1.18,1.18,1.18,0,0,1,1.18,1.18Zm0,0"/><path class="cls-3" d="M100.89,127.5a9.34,9.34,0,0,1-16.18,0l-1.54.88a11.12,11.12,0,0,0,19.26,0l-1.54-.88Zm0,0"/><path class="cls-3" d="M92.8,17.79h0A20.6,20.6,0,0,0,76.43,26a16.91,16.91,0,0,0-4.64-.68h0a16.84,16.84,0,0,0,0,33.68h0a16.86,16.86,0,0,0,11.65-4.71l-3.7-3.85A11.51,11.51,0,1,1,76.39,31.6l2.16.95,1.21-2a15.19,15.19,0,0,1,26.08,0l1.21,2,2.16-.95a11.49,11.49,0,1,1-3.35,18.81l-3.7,3.84A16.86,16.86,0,0,0,113.83,59h0a16.84,16.84,0,0,0,0-33.68h0a17.36,17.36,0,0,0-4.65.67A20.58,20.58,0,0,0,92.81,17.8Zm0,0"/><path class="cls-3" d="M75,49.11a5.85,5.85,0,0,0-5.8,5.81V65.49A5.85,5.85,0,0,0,75,71.3h35.52a5.85,5.85,0,0,0,5.81-5.81V54.92a5.85,5.85,0,0,0-5.81-5.81Zm35.52,5.34a.42.42,0,0,1,.47.47V65.49a.42.42,0,0,1-.47.47H75a.42.42,0,0,1-.47-.47V54.92a.42.42,0,0,1,.47-.47Zm0,0"/><path class="cls-4" d="M110.56,51.78a3.13,3.13,0,0,1,3.14,3.14V65.49a3.13,3.13,0,0,1-3.14,3.14H75a3.13,3.13,0,0,1-3.14-3.14V54.92A3.13,3.13,0,0,1,75,51.78Zm0,0"/><path class="cls-7" d="M75,51.78a3.13,3.13,0,0,0-3.14,3.14v5.8a18.91,18.91,0,0,0,9.88-2.93,22.21,22.21,0,0,0,22,0,18.88,18.88,0,0,0,9.87,2.93v-5.8a3.13,3.13,0,0,0-3.14-3.14Zm35.52,0"/><path class="cls-7" d="M75,51.78a3.13,3.13,0,0,0-3.14,3.14V65.49A3.13,3.13,0,0,0,75,68.63H88.36a3.13,3.13,0,0,1-3.14-3.14V54.92a3.13,3.13,0,0,1,3.14-3.14Zm13.32,0"/><path class="cls-8" d="M113.7,62.65a3.13,3.13,0,0,1-3.14,3.14H75a3.13,3.13,0,0,1-3.14-3.14v2.84A3.13,3.13,0,0,0,75,68.63h35.52a3.13,3.13,0,0,0,3.14-3.14V62.65Zm0,0"/><path class="cls-8" d="M75,51.78a3.13,3.13,0,0,0-3.14,3.14V65.49A3.13,3.13,0,0,0,75,68.63h4.78a3.13,3.13,0,0,1-3.14-3.14V54.92a3.13,3.13,0,0,1,3.14-3.14Zm4.78,0"/><path class="cls-3" d="M75,50.89a4,4,0,0,0-4,4V65.49a4,4,0,0,0,4,4h35.52a4,4,0,0,0,4-4V54.92a4,4,0,0,0-4-4Zm35.52,1.78a2.22,2.22,0,0,1,2.25,2.25V65.49a2.22,2.22,0,0,1-2.25,2.25H75a2.22,2.22,0,0,1-2.25-2.25V54.92A2.23,2.23,0,0,1,75,52.67Zm0,0"/><path class="cls-7" d="M57.61,42.11A14.17,14.17,0,1,1,71.78,56.28,14.17,14.17,0,0,1,57.61,42.11Zm0,0"/><path class="cls-8" d="M71.78,27.94A14.17,14.17,0,1,0,86,42.11,14.16,14.16,0,0,0,71.78,27.94Zm-.39.44A12.15,12.15,0,1,1,59.2,40.53,12.15,12.15,0,0,1,71.39,28.38Zm0,0"/><path class="cls-4" d="M60.94,38.7A10.09,10.09,0,1,1,71,48.79,10.08,10.08,0,0,1,60.94,38.7Zm0,0"/><path class="cls-7" d="M74.9,38.37A17.91,17.91,0,1,1,92.8,56.28,17.89,17.89,0,0,1,74.9,38.37Zm0,0"/><path class="cls-7" d="M99.66,42.11a14.17,14.17,0,1,1,14.17,14.17A14.17,14.17,0,0,1,99.66,42.11Zm0,0"/><path class="cls-4" d="M113.83,27.94a14.17,14.17,0,0,0-9,3.2,12,12,0,1,0,22.57,7,14.16,14.16,0,0,0-13.6-10.22Zm0,0"/><path class="cls-3" d="M106.3,48.73a17,17,0,0,1-27,0l-1.41,1.08a18.79,18.79,0,0,0,29.83,0l-1.42-1.08Zm0,0"/><path class="cls-4" d="M92.51,20a18.2,18.2,0,0,0-17.9,14.94,19.43,19.43,0,0,0,36,5.43,17.55,17.55,0,0,0,.13-2.17A18.2,18.2,0,0,0,92.51,20Zm0,0"/><path class="cls-3" d="M92.8,19.57a18.81,18.81,0,0,0-15.67,8.48,15.29,15.29,0,0,0-5.35-1h0a15.06,15.06,0,0,0,0,30.12h0A15.09,15.09,0,0,0,82.2,53L81,51.68A13.29,13.29,0,1,1,77.11,30l.72.32.4-.68a17,17,0,0,1,29.14,0l.4.67.72-.32a13.28,13.28,0,1,1-3.86,21.72L103.39,53a15.06,15.06,0,1,0,10.44-25.91h0a15.08,15.08,0,0,0-5.36,1A18.77,18.77,0,0,0,92.8,19.57Zm0,0"/><path class="cls-3" d="M181.41,75.1a4.09,4.09,0,0,0-4,4.06l.07,7.35a4,4,0,1,0,8.06-.07l-.07-7.35a4.07,4.07,0,0,0-4.06-4Zm0,0"/><path class="cls-3" d="M176.76,74.22a4.09,4.09,0,0,0-4,4.07l.08,9.18a4,4,0,1,0,8.06-.07l-.08-9.19a4.1,4.1,0,0,0-4.07-4Zm0,0"/><path class="cls-3" d="M167.5,75.22a4.09,4.09,0,0,1,4.07,4l.06,7.35a4,4,0,1,1-8.06.07l-.07-7.35a4.09,4.09,0,0,1,4-4.06Zm0,0"/><path class="cls-3" d="M172.13,74.26a4.08,4.08,0,0,1,4.06,4l.08,9.18a4,4,0,1,1-8.06.07l-.08-9.18a4.1,4.1,0,0,1,4-4.07Zm0,0"/><path class="cls-3" d="M171.61,98.41a3.52,3.52,0,0,0-3.42,3.47l.32,36.85a6.5,6.5,0,1,0,13-.11l-.32-36.85a3.5,3.5,0,0,0-3.47-3.41Zm3.66,40.27c0,.2-.06.26-.26.27s-.27-.07-.27-.27l-.3-34.07H175ZM175,104.61"/><path class="cls-3" d="M164.05,70.67a5.06,5.06,0,0,0-5,5.06l.06,7a15.71,15.71,0,0,0,5.71,12.08c2.38,2.15,3.64,2.78,3.67,6.72l6.1,0h.13l6.09-.06c0-3.94,1.22-4.58,3.55-6.78a15.73,15.73,0,0,0,5.51-12.18l-.06-7a5.09,5.09,0,0,0-5.06-5Zm19.62,11.87c0,4.58-1.3,5.48-3.54,7.59-2.07,1.94-5,5-5.46,10.06-.5-5.08-3.53-8.06-5.63-10-2.28-2.06-3.64-3-3.67-7.52l-.06-5.81,18.31-.16Zm0-5.81"/><path class="cls-9" d="M171.63,101.52a.33.33,0,0,0-.32.34q.15,18.42.32,36.85a3.38,3.38,0,0,0,6.76-.06q-.16-18.42-.32-36.85a.34.34,0,0,0-.34-.33Zm6.1,0"/><path class="cls-10" d="M176,101.49l.33,38.11a3.32,3.32,0,0,1-.19,1.18,3.37,3.37,0,0,0,1.16-2.58L177,101.48Zm1,0"/><path class="cls-11" d="M164.07,73.78a1.9,1.9,0,0,0-1.88,1.92l.06,7c.1,10.9,9.3,9,9.38,18.79l6.1,0c-.08-9.83,9.15-8,9.05-19l-.06-7a1.89,1.89,0,0,0-1.91-1.89Zm12.72,3.55a.92.92,0,0,1,.93.91l.08,9.19a.92.92,0,0,1-1.84,0l-.08-9.18a.92.92,0,0,1,.91-.93Zm-4.64,0a.92.92,0,0,1,.93.91l.08,9.19a.92.92,0,0,1-.91.93.93.93,0,0,1-.93-.91l-.08-9.19a.93.93,0,0,1,.91-.93Zm9.28.84a.92.92,0,0,1,.93.91l.07,7.35a.92.92,0,0,1-1.84,0l-.07-7.35a.92.92,0,0,1,.91-.93Zm-13.9.12a.91.91,0,0,1,.92.91l.07,7.35a.92.92,0,0,1-1.84,0l-.06-7.35a.92.92,0,0,1,.91-.93Zm0,0"/><path class="cls-4" d="M176.11,76.89a1.37,1.37,0,0,0-1.35,1.38l.08,9.18a1.37,1.37,0,0,0,1.37,1.36,1.42,1.42,0,0,0,1.08-.55.9.9,0,0,1-.4.09.91.91,0,0,1-.93-.91l-.08-9.18a.92.92,0,0,1,.91-.93,1.12,1.12,0,0,1,.41.09,1.4,1.4,0,0,0-1.09-.53Zm-4.64,0a1.37,1.37,0,0,0-1.35,1.38l.08,9.18a1.39,1.39,0,0,0,1.38,1.36,1.35,1.35,0,0,0,1.07-.55,1,1,0,0,1-.4.1.93.93,0,0,1-.93-.91l-.08-9.19a.93.93,0,0,1,.91-.93,1.07,1.07,0,0,1,.41.09,1.39,1.39,0,0,0-1.09-.53Zm9.28.84a1.38,1.38,0,0,0-1.35,1.38l.07,7.34a1.37,1.37,0,0,0,1.37,1.36,1.39,1.39,0,0,0,1.08-.55,1.07,1.07,0,0,1-.4.1.92.92,0,0,1-.93-.91l-.07-7.35a.93.93,0,0,1,.92-.93.9.9,0,0,1,.4.09,1.39,1.39,0,0,0-1.09-.53Zm-13.91.12a1.38,1.38,0,0,0-1.35,1.38l.07,7.35A1.37,1.37,0,0,0,166.93,88a1.39,1.39,0,0,0,1.08-.55.91.91,0,0,1-1.33-.81l-.06-7.35a.92.92,0,0,1,.91-.93.9.9,0,0,1,.4.09,1.39,1.39,0,0,0-1.09-.53Zm0,0"/><path class="cls-12" d="M164.07,73.78a1.9,1.9,0,0,0-1.88,1.92l24.53-.21a1.89,1.89,0,0,0-1.91-1.89Zm20.74-.18"/><path class="cls-12" d="M166.35,92c2.51,2.34,5.24,4.21,5.28,9.54l6.1,0c0-5.34,2.65-7.26,5.12-9.64Zm16.5-.15"/><path class="cls-4" d="M183.53,73.61a1.89,1.89,0,0,1,1.91,1.89l.06,7c.1,10.56-9.14,8-9.05,19h1.28c-.08-9.83,9.15-8,9.06-19l-.07-7a1.89,1.89,0,0,0-1.91-1.89Zm1.28,0"/><path class="cls-13" d="M171.63,101.52a.33.33,0,0,0-.32.34l.32,36.85a3.36,3.36,0,0,0,4.25,3.23s-2.53.13-2.56-3.25L173,101.84a.32.32,0,0,1,.32-.33Zm1.69,0"/><path class="cls-10" d="M171.63,101.52a.33.33,0,0,0-.32.34l.32,36.85A3.36,3.36,0,0,0,174.7,142a3.28,3.28,0,0,1-3-3.24l-.31-35.8a.32.32,0,0,1,.32-.32l5.93-.06a.32.32,0,0,1,.32.32l.31,35.81a3.27,3.27,0,0,1-2.92,3.29,3.37,3.37,0,0,0,3-3.39l-.32-36.85a.34.34,0,0,0-.34-.33Zm6.1,0"/><path class="cls-3" d="M171.63,101.08a.79.79,0,0,0-.77.78l.32,36.85a3.83,3.83,0,0,0,7.65-.06l-.32-36.86a.77.77,0,0,0-.78-.76Zm6.31,37.57a2.94,2.94,0,1,1-5.87,0L171.75,102l5.87,0Zm-.32-36.73"/><path class="cls-14" d="M173.91,110.48a.81.81,0,0,1,.24-.61.91.91,0,0,1,.6-.26.87.87,0,0,1,.87.85.87.87,0,0,1-.85.87.85.85,0,0,1-.86-.85Zm0,0"/><path class="cls-3" d="M174.75,109.39a1.08,1.08,0,1,0,1.09,1.07,1.1,1.1,0,0,0-1.09-1.07Zm0,.45a.63.63,0,1,1-.63.64.62.62,0,0,1,.63-.64Zm0,0"/><path class="cls-3" d="M164.07,73.34a2.34,2.34,0,0,0-2.32,2.36l.06,7c.05,5.58,2.51,8,4.84,10.13s4.5,3.89,4.54,8.67h.89c-.05-5-2.52-7.22-4.84-9.32s-4.5-4.15-4.54-9.48l-.06-7a1.43,1.43,0,0,1,1.44-1.47l20.73-.18a1.45,1.45,0,0,1,1.47,1.44l.06,7c0,5.32-2.1,7.41-4.38,9.55s-4.72,4.35-4.67,9.4h.89c-.05-4.78,2.09-6.6,4.39-8.75s4.71-4.63,4.66-10.21l-.06-7a2.35,2.35,0,0,0-2.37-2.32Zm20.73-.18"/><path class="cls-14" d="M173.86,105a.85.85,0,0,1,.24-.6.83.83,0,0,1,.61-.26.86.86,0,0,1,.86.85.88.88,0,0,1-.25.61.84.84,0,0,1-.6.25.84.84,0,0,1-.86-.85Zm0,0"/><path class="cls-3" d="M174.7,103.87a1.08,1.08,0,1,0,1.09,1.07,1.07,1.07,0,0,0-1.09-1.07Zm0,.44a.64.64,0,0,1,.64.63.64.64,0,0,1-1.27,0,.64.64,0,0,1,.63-.64Zm0,0"/><path class="cls-3" d="M181.43,77.77a1.36,1.36,0,0,0-1.35,1.37l.06,7.35a1.37,1.37,0,0,0,2.73,0l-.06-7.35a1.37,1.37,0,0,0-1.38-1.35Zm0,.88a.47.47,0,0,1,.48.47l.06,7.35a.47.47,0,0,1-.47.48.47.47,0,0,1-.48-.47L181,79.13a.47.47,0,0,1,.47-.48Zm0,0"/><path class="cls-3" d="M176.79,76.89a1.36,1.36,0,0,0-1.35,1.37l.08,9.19a1.36,1.36,0,0,0,1.37,1.35,1.37,1.37,0,0,0,1.35-1.38l-.08-9.18a1.36,1.36,0,0,0-1.37-1.35Zm0,.89a.45.45,0,0,1,.47.47l.08,9.18a.47.47,0,1,1-.94,0l-.08-9.19a.45.45,0,0,1,.47-.47Zm0,0"/><path class="cls-3" d="M167.52,77.89a1.37,1.37,0,0,1,1.38,1.35l.06,7.35a1.37,1.37,0,0,1-2.73,0l-.06-7.35a1.36,1.36,0,0,1,1.35-1.37Zm0,.89a.46.46,0,0,0-.47.47l.06,7.35a.47.47,0,0,0,.48.47.46.46,0,0,0,.47-.48L168,79.25a.45.45,0,0,0-.48-.47Zm0,0"/><path class="cls-3" d="M172.15,76.93a1.37,1.37,0,0,1,1.38,1.35l.08,9.19a1.38,1.38,0,0,1-1.36,1.37,1.37,1.37,0,0,1-1.37-1.35l-.08-9.19a1.36,1.36,0,0,1,1.35-1.37Zm0,.89a.46.46,0,0,0-.47.47l.08,9.19a.48.48,0,0,0,.95,0l-.08-9.18a.47.47,0,0,0-.48-.47Zm0,0"/><path class="cls-3" d="M127.15,154.1a6.19,6.19,0,0,0-12.37,0v9.22a6.19,6.19,0,1,0,12.37,0Zm0,9.22"/><path class="cls-3" d="M70.83,154.1a6.19,6.19,0,0,0-12.37,0v9.22a6.19,6.19,0,1,0,12.37,0Zm0,9.22"/><path class="cls-3" d="M58.81,156.68,57,191.91h71.69L127,159.63l-.16-2.95Zm63.28,29H63.52l1.19-22.78h56.18Zm-1.2-22.78"/><path class="cls-7" d="M124,163.32a3.08,3.08,0,1,1-6.15,0V154.1a3.08,3.08,0,0,1,6.15,0v9.22Zm0,0"/><path class="cls-3" d="M124.48,154.1a3.52,3.52,0,0,0-7,0v9.22a3.52,3.52,0,1,0,7,0Zm-.89,9.22a2.63,2.63,0,1,1-5.25,0V154.1a2.63,2.63,0,0,1,5.25,0v9.22Zm0,0"/><path class="cls-7" d="M67.71,163.32a3.07,3.07,0,1,1-6.14,0V154.1a3.07,3.07,0,1,1,6.14,0v9.22Zm0,0"/><path class="cls-3" d="M68.16,154.1a3.52,3.52,0,0,0-7,0v9.22a3.52,3.52,0,1,0,7,0Zm-.89,9.22a2.63,2.63,0,1,1-5.26,0V154.1a2.63,2.63,0,0,1,5.26,0v9.22Zm0,0"/><path class="cls-4" d="M61.76,159.79l-1.52,29h65.13l-1.52-29Zm62.09,0"/><path class="cls-7" d="M115,159.79l1.53,29h8.8l-1.52-29Zm8.81,0"/><path class="cls-7" d="M61.76,159.79l-1.52,29H74.46l1.42-29Zm14.12,0"/><path class="cls-7" d="M61,175.07l-.27,5.08h64.22l-.26-5.08Zm63.69,0"/><path class="cls-7" d="M115.85,175.07l.26,5.08h8.8l-.26-5.08Zm8.8,0"/><path class="cls-7" d="M61,175.07l-.27,5.08H74.88l.25-5.08Zm14.17,0"/><path class="cls-3" d="M61.34,159.35l-1.57,29.9h66.07l-1.55-29.48,0-.42Zm63.56,29H60.71l1.47-28.12h61.25Zm-1.47-28.12"/><path class="cls-4" d="M121,162.1a1.22,1.22,0,1,1-1.22,1.22A1.23,1.23,0,0,1,121,162.1Zm0,0"/><path class="cls-3" d="M122.64,163.32A1.68,1.68,0,1,0,121,165a1.69,1.69,0,0,0,1.68-1.67Zm-.89,0a.79.79,0,1,1-.79-.78.78.78,0,0,1,.79.78Zm0,0"/><path class="cls-4" d="M64.64,162.1a1.23,1.23,0,1,1,0,2.45,1.24,1.24,0,0,1-.87-.36,1.26,1.26,0,0,1-.35-.87,1.22,1.22,0,0,1,1.22-1.22Zm0,0"/><path class="cls-3" d="M66.31,163.32A1.67,1.67,0,1,0,64.64,165a1.68,1.68,0,0,0,1.67-1.67Zm-.89,0a.78.78,0,1,1-.78-.78.77.77,0,0,1,.78.78Zm0,0"/><path class="cls-3" d="M60.54,174.62l-.32,6h65.16l-.29-5.54,0-.43Zm63.91,5.08H61.16l.22-4.19h62.85Zm-.22-4.19"/><rect class="cls-7" x="83.14" y="164.2" width="19.34" height="2.54"/><path class="cls-3" d="M45,0,16,0H0L0,16c0,7,0,14,0,21A29.09,29.09,0,0,0,45,0Z"/><text class="cls-15" transform="translate(15.59 31.75)">16</text></svg>