<svg id="Слой_1" data-name="Слой 1" xmlns="http://www.w3.org/2000/svg" viewBox="0 0 195.59 280.63"><defs><style>.cls-1{font-size:53.3px;}.cls-1,.cls-3{fill:#1a1a1a;}.cls-1,.cls-15{font-family:Impact;}.cls-2{fill:#eb5a53;}.cls-15,.cls-4{fill:#fff;}.cls-5{fill:#eb5775;}.cls-6{fill:#f293a2;}.cls-7{fill:#cce2e9;}.cls-8{fill:#a1c7d5;}.cls-9{fill:#c67550;}.cls-10{fill:#db9c73;}.cls-11{fill:#c9c0b7;}.cls-12{fill:#a0958a;}.cls-13{fill:#9b5341;}.cls-14{fill:#5a4540;}.cls-15{font-size:20px;}</style></defs><text class="cls-1" transform="translate(18.76 253.58)">pierogi</text><path class="cls-2" d="M91.52,175.17c0,12.17-4.06,29.47-9.07,29.47s-9.07-17.3-9.07-29.47,5.36-14.61,9.07-14.61,9.07,2.43,9.07,14.61Zm0,0"/><path class="cls-3" d="M82.45,158a10.31,10.31,0,0,0-7.86,3.63c-2.32,2.75-3.74,7.05-3.74,13.51a78.28,78.28,0,0,0,2.75,20,32.83,32.83,0,0,0,3.15,7.9c1.27,2.13,3,4.13,5.7,4.13s4.42-2,5.7-4.13a32.83,32.83,0,0,0,3.15-7.9,78.78,78.78,0,0,0,2.75-20c0-6.46-1.42-10.76-3.75-13.51A10.27,10.27,0,0,0,82.45,158Zm0,5.06a4.86,4.86,0,0,1,4,1.85c1.28,1.51,2.55,4.51,2.55,10.23a74.58,74.58,0,0,1-2.57,18.62,29.24,29.24,0,0,1-2.61,6.66,5.12,5.12,0,0,1-1.36,1.61,5,5,0,0,1-1.36-1.61,29.66,29.66,0,0,1-2.62-6.66,75,75,0,0,1-2.56-18.62c0-5.72,1.26-8.72,2.55-10.23a4.86,4.86,0,0,1,4-1.85Zm0,0"/><path class="cls-2" d="M137.36,175.17c0,12.17-4.06,29.47-9.07,29.47s-9.07-17.3-9.07-29.47,5.36-14.61,9.07-14.61,9.07,2.43,9.07,14.61Zm0,0"/><path class="cls-3" d="M128.29,158a10.27,10.27,0,0,0-7.85,3.63c-2.33,2.75-3.75,7.05-3.75,13.51a78.72,78.72,0,0,0,2.75,20,32.83,32.83,0,0,0,3.15,7.9c1.28,2.13,3,4.13,5.7,4.13s4.42-2,5.7-4.13a32.83,32.83,0,0,0,3.15-7.9,78.34,78.34,0,0,0,2.75-20c0-6.46-1.42-10.76-3.74-13.51a10.31,10.31,0,0,0-7.86-3.63Zm0,5.06a4.86,4.86,0,0,1,4,1.85c1.28,1.51,2.55,4.51,2.55,10.23a75,75,0,0,1-2.56,18.62,29.66,29.66,0,0,1-2.62,6.66,5.12,5.12,0,0,1-1.36,1.61,5.12,5.12,0,0,1-1.36-1.61,29.24,29.24,0,0,1-2.61-6.66,74.58,74.58,0,0,1-2.57-18.62c0-5.72,1.27-8.72,2.55-10.23a4.86,4.86,0,0,1,4-1.85Zm0,0"/><path class="cls-2" d="M45.93,114.73c-3.53,11.66-12.43,27-17.22,25.59s-3.67-19.19-.14-30.84,9.36-12.42,12.91-11.35,8,5,4.45,16.6Zm0,0"/><path class="cls-3" d="M42.26,97.05a10.28,10.28,0,0,0-8.57,1.2c-3,2-5.62,5.66-7.49,11.84A78.35,78.35,0,0,0,23,130a32.88,32.88,0,0,0,.72,8.47c.61,2.41,1.67,4.81,4.27,5.6s4.81-.63,6.65-2.3a33.18,33.18,0,0,0,5.3-6.64,79,79,0,0,0,8.42-18.34c1.87-6.18,1.76-10.7.33-14a10.28,10.28,0,0,0-6.47-5.75ZM40.8,101.9a4.84,4.84,0,0,1,3.28,2.92c.79,1.81,1.13,5.06-.53,10.53a75,75,0,0,1-7.84,17.08,29.39,29.39,0,0,1-4.44,5.62,5.51,5.51,0,0,1-1.76,1.15,5.24,5.24,0,0,1-.84-1.94,29.42,29.42,0,0,1-.57-7.14A74.87,74.87,0,0,1,31,111.56c1.66-5.47,3.74-8,5.4-9.06a4.89,4.89,0,0,1,4.36-.6Zm0,0"/><path class="cls-2" d="M179.68,109c4.65,11.25,7.53,28.79,2.9,30.71s-15-12.52-19.66-23.77-.64-15.54,2.79-17,9.31-1.22,14,10Zm0,0"/><path class="cls-3" d="M164.74,96.61a10.31,10.31,0,0,0-5.87,6.36c-1.09,3.43-.76,8,1.71,13.91a78.88,78.88,0,0,0,10.19,17.41,33.59,33.59,0,0,0,5.93,6.1c2,1.48,4.34,2.66,6.85,1.62s3.32-3.53,3.69-6a33,33,0,0,0-.12-8.5A78.27,78.27,0,0,0,182,108c-2.47-6-5.42-9.39-8.62-11a10.31,10.31,0,0,0-8.65-.35Zm1.94,4.68a4.85,4.85,0,0,1,4.39.17c1.76.91,4.08,3.2,6.27,8.48a74.86,74.86,0,0,1,4.76,18.18,29.71,29.71,0,0,1,.13,7.16,5.13,5.13,0,0,1-.64,2,5.11,5.11,0,0,1-1.87-1,29.09,29.09,0,0,1-5-5.15,74.73,74.73,0,0,1-9.49-16.23c-2.19-5.28-2.17-8.53-1.57-10.42a4.9,4.9,0,0,1,3-3.23Zm0,0"/><path class="cls-3" d="M105.37,43.94a71,71,0,1,0,71,71,71.07,71.07,0,0,0-71-71Zm0,8.1A62.91,62.91,0,1,1,42.46,115,62.85,62.85,0,0,1,105.37,52Zm0,0"/><path class="cls-2" d="M172.33,115A67,67,0,1,1,152.72,67.6,67,67,0,0,1,172.33,115Zm0,0"/><path class="cls-2" d="M163.82,111.46a61.93,61.93,0,1,1-18.14-43.8,61.93,61.93,0,0,1,18.14,43.8Zm0,0"/><path class="cls-4" d="M38.41,115a67,67,0,1,0,133.92,0Zm0,0"/><path class="cls-4" d="M40.06,115a61.89,61.89,0,0,0,123.59,0Zm0,0"/><path class="cls-3" d="M105.37,47a68,68,0,1,0,68,68,68,68,0,0,0-68-68Zm0,2a66,66,0,1,1-65.95,66,65.93,65.93,0,0,1,66-65.95Zm0,0"/><path class="cls-3" d="M40.54,133l1-.13,1.78,13.49-1,.13Zm0,0"/><path class="cls-3" d="M86.32,104.22a9.15,9.15,0,0,0-9.17,9.16V121H95.48v-7.57a9.15,9.15,0,0,0-9.16-9.16Zm0,0"/><path class="cls-4" d="M91.65,110.79a3,3,0,1,1-3-3,3,3,0,0,1,3,3Zm0,0"/><path class="cls-3" d="M124.13,104.22a9.15,9.15,0,0,0-9.17,9.16V121h18.33v-7.57a9.15,9.15,0,0,0-9.16-9.16Zm0,0"/><path class="cls-4" d="M129.46,110.79a3,3,0,1,1-3-3,3,3,0,0,1,3,3Zm0,0"/><path class="cls-5" d="M108.55,122.41a5.52,5.52,0,0,0-5.53,5.53v4.88a10.82,10.82,0,0,0,2.2.24,10.21,10.21,0,0,0,8.86-5.12,5.52,5.52,0,0,0-5.53-5.53Zm0,0"/><path class="cls-3" d="M108.55,121.52a6.43,6.43,0,0,0-6.42,6.42v4.88h1.78v-4.88a4.63,4.63,0,0,1,9.26-.24,9.37,9.37,0,0,1-1.93,2.27l1.15,1.36a11.11,11.11,0,0,0,2.46-2.94l.12-.21v-.24a6.43,6.43,0,0,0-6.42-6.42Zm0,0"/><rect class="cls-3" x="108.11" y="127.71" width="0.89" height="4.79"/><path class="cls-6" d="M105.53,126.25a1.18,1.18,0,1,1,1.18,1.18,1.18,1.18,0,0,1-1.18-1.18Zm0,0"/><path class="cls-3" d="M97.13,127.5l-1.54.88a11.12,11.12,0,0,0,19.26,0l-1.54-.88a9.34,9.34,0,0,1-16.18,0Zm0,0"/><path class="cls-3" d="M105.22,17.8a20.58,20.58,0,0,0-16.36,8.14,17.44,17.44,0,0,0-4.66-.67h0A16.84,16.84,0,0,0,84.2,59h0a16.88,16.88,0,0,0,11.67-4.71l-3.7-3.84a11.51,11.51,0,1,1-3.35-18.81l2.15.95,1.22-2a15.19,15.19,0,0,1,26.08,0l1.21,2,2.16-.95a11.49,11.49,0,1,1-3.34,18.79l-3.7,3.85A16.84,16.84,0,0,0,126.24,59h0a16.84,16.84,0,0,0,0-33.68h0a17,17,0,0,0-4.65.68,20.59,20.59,0,0,0-16.36-8.16h0Zm0,0"/><path class="cls-3" d="M87.46,49.11a5.85,5.85,0,0,0-5.8,5.81V65.49a5.85,5.85,0,0,0,5.8,5.81H123a5.85,5.85,0,0,0,5.81-5.81V54.92A5.86,5.86,0,0,0,123,49.11Zm0,5.34H123a.42.42,0,0,1,.47.47V65.49A.42.42,0,0,1,123,66H87.46a.42.42,0,0,1-.47-.47V54.92a.42.42,0,0,1,.47-.47Zm0,0"/><path class="cls-4" d="M87.46,51.78H123a3.13,3.13,0,0,1,3.14,3.14V65.49A3.13,3.13,0,0,1,123,68.63H87.46a3.13,3.13,0,0,1-3.14-3.14V54.92a3.13,3.13,0,0,1,3.14-3.14Zm0,0"/><path class="cls-7" d="M87.46,51.78a3.13,3.13,0,0,0-3.14,3.14v5.8a18.85,18.85,0,0,0,9.87-2.93,22.23,22.23,0,0,0,22.06,0,18.88,18.88,0,0,0,9.87,2.93v-5.8A3.13,3.13,0,0,0,123,51.78Zm0,0"/><path class="cls-7" d="M109.66,51.78a3.13,3.13,0,0,1,3.14,3.14V65.49a3.13,3.13,0,0,1-3.14,3.14H123a3.13,3.13,0,0,0,3.14-3.14V54.92A3.13,3.13,0,0,0,123,51.78Zm0,0"/><path class="cls-8" d="M84.32,62.65v2.84a3.13,3.13,0,0,0,3.14,3.14H123a3.13,3.13,0,0,0,3.14-3.14V62.65A3.13,3.13,0,0,1,123,65.79H87.46a3.13,3.13,0,0,1-3.14-3.14Zm0,0"/><path class="cls-8" d="M118.21,51.78a3.13,3.13,0,0,1,3.14,3.14V65.49a3.13,3.13,0,0,1-3.14,3.14H123a3.13,3.13,0,0,0,3.14-3.14V54.92A3.13,3.13,0,0,0,123,51.78Zm0,0"/><path class="cls-3" d="M87.46,50.89a4,4,0,0,0-4,4V65.49a4,4,0,0,0,4,4H123a4,4,0,0,0,4-4V54.92a4,4,0,0,0-4-4Zm0,1.78H123a2.23,2.23,0,0,1,2.25,2.25V65.49A2.22,2.22,0,0,1,123,67.74H87.46a2.22,2.22,0,0,1-2.25-2.25V54.92a2.23,2.23,0,0,1,2.25-2.25Zm0,0"/><path class="cls-7" d="M140.41,42.11a14.17,14.17,0,1,1-14.16-14.17,14.17,14.17,0,0,1,14.16,14.17Zm0,0"/><path class="cls-8" d="M126.25,27.94a14.15,14.15,0,1,0,10,4.15,14.17,14.17,0,0,0-10-4.15Zm.39.44h0a12.15,12.15,0,1,1-12.15,12.15,12.15,12.15,0,0,1,12.15-12.15Zm0,0"/><path class="cls-4" d="M137.09,38.7A10.09,10.09,0,1,1,127,28.62,10.09,10.09,0,0,1,137.09,38.7Zm0,0"/><path class="cls-7" d="M123.13,38.37a17.92,17.92,0,1,1-5.25-12.66,17.91,17.91,0,0,1,5.25,12.66Zm0,0"/><path class="cls-7" d="M98.37,42.11A14.17,14.17,0,1,1,84.2,27.94,14.18,14.18,0,0,1,98.37,42.11Zm0,0"/><path class="cls-4" d="M84.2,27.94A14.17,14.17,0,0,0,70.59,38.16a12,12,0,1,0,22.57-7,14.14,14.14,0,0,0-9-3.2Zm0,0"/><path class="cls-3" d="M91.72,48.73l-1.41,1.08a18.79,18.79,0,0,0,29.83,0l-1.42-1.08a17,17,0,0,1-27,0Zm0,0"/><path class="cls-4" d="M105.51,20a18.2,18.2,0,0,0-18.19,18.2,17.55,17.55,0,0,0,.13,2.17,19.43,19.43,0,0,0,36-5.43A18.2,18.2,0,0,0,105.51,20Zm0,0"/><path class="cls-3" d="M105.22,19.57a18.78,18.78,0,0,0-15.67,8.48,15,15,0,0,0-5.35-1h0A15.06,15.06,0,1,0,94.63,53L93.4,51.68A13.29,13.29,0,1,1,89.54,30l.72.32.4-.67a17,17,0,0,1,29.13,0l.41.68.71-.32a13.27,13.27,0,1,1-3.85,21.71L115.83,53a15.09,15.09,0,0,0,10.42,4.21h0a15.06,15.06,0,0,0,0-30.12h0a15.19,15.19,0,0,0-5.34,1,18.81,18.81,0,0,0-15.68-8.48Zm0,0"/><path class="cls-3" d="M16.62,75.1a4.09,4.09,0,0,0-4.07,4l-.06,7.35a4,4,0,1,0,8.06.07l.06-7.35a4.08,4.08,0,0,0-4-4.06Zm0,0"/><path class="cls-3" d="M21.26,74.22a4.08,4.08,0,0,0-4.06,4l-.08,9.19a4,4,0,1,0,8.06.07l.08-9.18a4.1,4.1,0,0,0-4-4.07Zm0,0"/><path class="cls-3" d="M30.53,75.22a4.08,4.08,0,0,1,4,4.06l-.06,7.35a4,4,0,1,1-8.06-.07l.06-7.35a4.09,4.09,0,0,1,4.07-4Zm0,0"/><path class="cls-3" d="M25.9,74.26a4.11,4.11,0,0,1,4,4.07l-.08,9.18a4,4,0,0,1-8.07-.07l.08-9.18a4.1,4.1,0,0,1,4.07-4Zm0,0"/><path class="cls-3" d="M20.32,98.36a3.49,3.49,0,0,0-3.47,3.41l-.32,36.85a6.49,6.49,0,1,0,13,.11l.32-36.85a3.51,3.51,0,0,0-3.41-3.47Zm2.73,6.25h.53l-.29,34.07c0,.2-.07.27-.27.27s-.27-.07-.27-.27Zm0,0"/><path class="cls-3" d="M13.25,70.49a5.07,5.07,0,0,0-5.06,5l-.06,7a15.72,15.72,0,0,0,5.5,12.18c2.34,2.2,3.59,2.84,3.55,6.78l6.1.06h.13l6.1,0c0-3.94,1.29-4.57,3.66-6.72a15.75,15.75,0,0,0,5.72-12.08l.06-7a5.07,5.07,0,0,0-5-5.06Zm1.16,6.24,18.3.16-.05,5.81c0,4.57-1.4,5.46-3.67,7.52-2.1,1.91-5.14,4.89-5.63,10C23,95.1,20,92.07,17.9,90.13c-2.24-2.11-3.59-3-3.55-7.59Zm0,0"/><path class="cls-9" d="M20.29,101.47a.33.33,0,0,0-.33.33q-.16,18.42-.32,36.85a3.38,3.38,0,1,0,6.76.06q.17-18.42.32-36.85a.34.34,0,0,0-.33-.34Zm0,0"/><path class="cls-10" d="M21.07,101.48l-.32,36.72a3.39,3.39,0,0,0,1.15,2.58,3.84,3.84,0,0,1-.19-1.18l.34-38.11Zm0,0"/><path class="cls-11" d="M13.22,73.6a1.9,1.9,0,0,0-1.92,1.89l-.06,7c-.09,10.91,9.14,9.13,9,19l6.1,0c.09-9.83,9.29-7.89,9.38-18.79l.07-7A1.9,1.9,0,0,0,34,73.78Zm8,3.73a.93.93,0,0,1,.92.93l-.08,9.18a.92.92,0,0,1-.93.91.9.9,0,0,1-.91-.92l.08-9.19a.92.92,0,0,1,.92-.91Zm4.64,0a.92.92,0,0,1,.91.93l-.08,9.19a.92.92,0,0,1-.92.91.93.93,0,0,1-.92-.93l.08-9.19a.92.92,0,0,1,.93-.91Zm-9.28.84a.91.91,0,0,1,.91.93l-.06,7.35a.92.92,0,1,1-1.84,0l.06-7.35a.92.92,0,0,1,.93-.91Zm13.91.12a.92.92,0,0,1,.91.93l-.06,7.35a.92.92,0,1,1-1.84,0l.06-7.35a.92.92,0,0,1,.93-.91Zm0,0"/><path class="cls-4" d="M21.92,76.89a1.39,1.39,0,0,0-1.09.53,1.06,1.06,0,0,1,.4-.09.93.93,0,0,1,.92.93l-.08,9.18a.92.92,0,0,1-.93.91.87.87,0,0,1-.4-.09,1.36,1.36,0,0,0,2.45-.81l.08-9.18a1.38,1.38,0,0,0-1.35-1.38Zm4.63,0a1.37,1.37,0,0,0-1.08.53,1.06,1.06,0,0,1,.4-.09.92.92,0,0,1,.91.93l-.08,9.19a.92.92,0,0,1-.92.91,1.08,1.08,0,0,1-.41-.1,1.39,1.39,0,0,0,1.08.55,1.37,1.37,0,0,0,1.37-1.36l.08-9.18a1.37,1.37,0,0,0-1.35-1.38Zm-9.28.84a1.38,1.38,0,0,0-1.08.53.9.9,0,0,1,.4-.09.91.91,0,0,1,.91.93l-.06,7.35a.93.93,0,0,1-.93.91,1.07,1.07,0,0,1-.4-.1,1.36,1.36,0,0,0,2.45-.81l.06-7.34a1.37,1.37,0,0,0-1.35-1.38Zm13.91.12a1.37,1.37,0,0,0-1.08.53.87.87,0,0,1,.4-.09.92.92,0,0,1,.91.93l-.06,7.35a.92.92,0,0,1-.93.91.88.88,0,0,1-.4-.1,1.36,1.36,0,0,0,2.45-.8l.06-7.35a1.37,1.37,0,0,0-1.35-1.38Zm0,0"/><path class="cls-12" d="M13.22,73.6a1.9,1.9,0,0,0-1.92,1.89l24.54.21A1.91,1.91,0,0,0,34,73.78Zm0,0"/><path class="cls-12" d="M15.18,91.83c2.46,2.38,5.16,4.3,5.11,9.64l6.1,0c.05-5.33,2.78-7.2,5.28-9.54Zm0,0"/><path class="cls-4" d="M13.22,73.6a1.9,1.9,0,0,0-1.92,1.89l-.06,7c-.09,10.91,9.14,9.13,9,19h1.28c.1-10.91-9.14-8.4-9-19l.06-7a1.9,1.9,0,0,1,1.92-1.89Zm0,0"/><path class="cls-13" d="M24.7,101.51a.33.33,0,0,1,.33.33l-.32,36.85c0,3.38-2.56,3.25-2.56,3.25a3.34,3.34,0,0,0,.84.12,3.38,3.38,0,0,0,3.41-3.35l.32-36.85a.34.34,0,0,0-.33-.34Zm0,0"/><path class="cls-10" d="M20.29,101.47a.33.33,0,0,0-.33.33l-.32,36.85a3.36,3.36,0,0,0,3,3.39,3.28,3.28,0,0,1-2.92-3.29l.32-35.81a.32.32,0,0,1,.32-.32l5.93.06a.31.31,0,0,1,.31.32l-.31,35.8a3.26,3.26,0,0,1-3,3.24,3.37,3.37,0,0,0,3.07-3.33l.32-36.85a.34.34,0,0,0-.33-.34Zm0,0"/><path class="cls-3" d="M20.3,101a.77.77,0,0,0-.78.76l-.33,36.86a3.83,3.83,0,0,0,7.65.06l.33-36.85a.79.79,0,0,0-.77-.78Zm.1.89,5.88,0L26,138.7a2.94,2.94,0,0,1-5.88,0Zm0,0"/><path class="cls-14" d="M24.12,110.48a.83.83,0,0,1-.26.6.86.86,0,0,1-.6.25.87.87,0,0,1-.85-.87.86.86,0,0,1,.25-.6.9.9,0,0,1,.61-.25.92.92,0,0,1,.61.26.9.9,0,0,1,.24.61Zm0,0"/><path class="cls-3" d="M23.27,109.39a1.08,1.08,0,1,0,1.07,1.09,1.08,1.08,0,0,0-1.07-1.09Zm0,.45a.63.63,0,0,1,.63.64.62.62,0,0,1-.64.62.63.63,0,0,1-.63-.64.62.62,0,0,1,.64-.62Zm0,0"/><path class="cls-3" d="M13.22,73.16a2.34,2.34,0,0,0-2.36,2.32l-.06,7c-.05,5.58,2.37,8,4.66,10.21s4.43,4,4.39,8.75h.89c0-5-2.39-7.26-4.67-9.4s-4.43-4.23-4.38-9.55l.06-7a1.43,1.43,0,0,1,1.47-1.44L34,74.23a1.44,1.44,0,0,1,1.44,1.47l-.06,7c0,5.33-2.23,7.38-4.55,9.48S26,96.47,26,101.52h.89c0-4.78,2.21-6.56,4.54-8.67s4.79-4.55,4.84-10.13l.06-7A2.34,2.34,0,0,0,34,73.34Zm0,0"/><path class="cls-14" d="M24.17,105a.87.87,0,0,1-.26.61.85.85,0,0,1-.6.24.86.86,0,0,1-.61-.25.83.83,0,0,1-.24-.61.86.86,0,0,1,.86-.85.81.81,0,0,1,.6.26.86.86,0,0,1,.25.6Zm0,0"/><path class="cls-3" d="M23.32,103.87a1.08,1.08,0,1,0,0,2.15,1.08,1.08,0,1,0,0-2.15Zm0,.44a.64.64,0,0,1,0,1.27.63.63,0,0,1-.63-.64.64.64,0,0,1,.64-.63Zm0,0"/><path class="cls-3" d="M16.6,77.77a1.37,1.37,0,0,0-1.38,1.35l-.06,7.35a1.36,1.36,0,1,0,2.72,0L18,79.14a1.37,1.37,0,0,0-1.35-1.37Zm0,.88a.47.47,0,0,1,.47.48L17,86.48a.46.46,0,0,1-.47.47.47.47,0,0,1-.48-.48l.07-7.35a.47.47,0,0,1,.48-.47Zm0,0"/><path class="cls-3" d="M21.24,76.89a1.37,1.37,0,0,0-1.38,1.35l-.08,9.18a1.37,1.37,0,0,0,2.73,0l.08-9.19a1.36,1.36,0,0,0-1.35-1.37Zm0,.89a.46.46,0,0,1,.47.47l-.08,9.19a.48.48,0,0,1-.95,0l.08-9.18a.47.47,0,0,1,.48-.47Zm0,0"/><path class="cls-3" d="M30.5,77.89a1.37,1.37,0,0,1,1.36,1.37l-.07,7.35a1.37,1.37,0,0,1-2.73,0l.07-7.35a1.37,1.37,0,0,1,1.37-1.35Zm0,.89a.45.45,0,0,0-.48.47L30,86.59a.46.46,0,0,0,.47.48.47.47,0,0,0,.48-.47L31,79.25a.46.46,0,0,0-.47-.47Zm0,0"/><path class="cls-3" d="M25.88,76.93a1.37,1.37,0,0,1,1.35,1.37l-.08,9.19a1.37,1.37,0,0,1-2.73,0l.08-9.19a1.37,1.37,0,0,1,1.38-1.35Zm0,.89a.46.46,0,0,0-.48.47l-.08,9.18a.48.48,0,1,0,1,0l.08-9.19a.46.46,0,0,0-.47-.47Zm0,0"/><path class="cls-3" d="M70.88,163.32a6.19,6.19,0,1,0,12.37,0V154.1a6.19,6.19,0,0,0-12.37,0Zm0,0"/><path class="cls-3" d="M127.2,163.32a6.19,6.19,0,1,0,12.37,0V154.1a6.19,6.19,0,0,0-12.37,0Zm0,0"/><path class="cls-3" d="M71.23,156.68l-.16,2.95-1.69,32.28h71.69l-1.85-35.23Zm5.9,6.23h56.18l1.2,22.78H75.94Zm0,0"/><path class="cls-7" d="M74,163.32V154.1a3.07,3.07,0,1,1,6.14,0v9.22a3.07,3.07,0,1,1-6.14,0Zm0,0"/><path class="cls-3" d="M73.54,163.32a3.52,3.52,0,0,0,7,0V154.1a3.52,3.52,0,0,0-7,0Zm.89,0V154.1a2.63,2.63,0,0,1,5.26,0v9.22a2.63,2.63,0,0,1-5.26,0Zm0,0"/><path class="cls-7" d="M130.31,163.32V154.1a3.08,3.08,0,0,1,6.15,0v9.22a3.08,3.08,0,1,1-6.15,0Zm0,0"/><path class="cls-3" d="M129.87,163.32a3.52,3.52,0,1,0,7,0V154.1a3.52,3.52,0,0,0-7,0Zm.89,0V154.1a2.63,2.63,0,0,1,5.25,0v9.22a2.63,2.63,0,1,1-5.25,0Zm0,0"/><path class="cls-4" d="M74.18,159.79l-1.52,29h65.13l-1.52-29Zm0,0"/><path class="cls-7" d="M74.18,159.79l-1.52,29h8.8l1.52-29Zm0,0"/><path class="cls-7" d="M122.15,159.79l1.42,29h14.22l-1.52-29Zm0,0"/><path class="cls-7" d="M73.38,175.07l-.27,5.08h64.22l-.26-5.08Zm0,0"/><path class="cls-7" d="M73.38,175.07l-.27,5.08h8.8l.27-5.08Zm0,0"/><path class="cls-7" d="M122.9,175.07l.24,5.08h14.19l-.26-5.08Zm0,0"/><path class="cls-3" d="M73.76,159.35l0,.42-1.55,29.48h66.07l-1.57-29.9Zm.84.89h61.24l1.48,28.12H73.13Zm0,0"/><path class="cls-4" d="M77.06,162.1a1.23,1.23,0,1,1,0,2.45,1.24,1.24,0,0,1-.87-.36,1.26,1.26,0,0,1-.35-.87,1.22,1.22,0,0,1,1.22-1.22Zm0,0"/><path class="cls-3" d="M75.39,163.32a1.67,1.67,0,1,0,1.67-1.67,1.67,1.67,0,0,0-1.67,1.67Zm.89,0a.78.78,0,1,1,.78.78.77.77,0,0,1-.78-.78Zm0,0"/><path class="cls-4" d="M133.38,162.1a1.22,1.22,0,1,1-1.22,1.22,1.23,1.23,0,0,1,1.22-1.22Zm0,0"/><path class="cls-3" d="M131.71,163.32a1.68,1.68,0,1,0,1.67-1.67,1.68,1.68,0,0,0-1.67,1.67Zm.89,0a.79.79,0,1,1,.78.78.78.78,0,0,1-.78-.78Zm0,0"/><path class="cls-3" d="M73,174.62l0,.43-.29,5.54H137.8l-.31-6Zm.84.89h62.85l.22,4.19H73.58Zm0,0"/><rect class="cls-7" x="95.55" y="164.2" width="19.34" height="2.54"/><path class="cls-3" d="M150.65,0l29,0h16l0,16q0,10.48,0,21A29.09,29.09,0,0,1,150.65,0Z"/><text class="cls-15" transform="translate(159.71 31.75)">16</text></svg>