<?xml version="1.0" encoding="utf-8"?>
<!-- Generator: Adobe Illustrator 26.0.3, SVG Export Plug-In . SVG Version: 6.00 Build 0)  -->
<svg version="1.1" id="Слой_1" xmlns="http://www.w3.org/2000/svg" xmlns:xlink="http://www.w3.org/1999/xlink" x="0px" y="0px"
	 viewBox="0 0 195.6 280.6" style="enable-background:new 0 0 195.6 280.6;" xml:space="preserve">
<style type="text/css">
	.st0{clip-path:url(#SVGID_00000075137532447949817140000006327231391230111888_);enable-background:new    ;}
	.st1{fill:#1A1A1A;}
	.st2{font-family:'Impact';}
	.st3{font-size:53.3px;}
	.st4{clip-path:url(#SVGID_00000075137532447949817140000006327231391230111888_);fill:#EB5A53;}
	.st5{clip-path:url(#SVGID_00000075137532447949817140000006327231391230111888_);fill:#1A1A1A;}
	.st6{clip-path:url(#SVGID_00000075137532447949817140000006327231391230111888_);fill:#FFFFFF;}
	.st7{clip-path:url(#SVGID_00000075137532447949817140000006327231391230111888_);fill:#EB5775;}
	.st8{clip-path:url(#SVGID_00000075137532447949817140000006327231391230111888_);fill:#F293A2;}
	.st9{clip-path:url(#SVGID_00000075137532447949817140000006327231391230111888_);fill:#CCE2E9;}
	.st10{clip-path:url(#SVGID_00000075137532447949817140000006327231391230111888_);fill:#A1C7D5;}
	.st11{clip-path:url(#SVGID_00000075137532447949817140000006327231391230111888_);fill:#C67550;}
	.st12{clip-path:url(#SVGID_00000075137532447949817140000006327231391230111888_);fill:#DB9C73;}
	.st13{clip-path:url(#SVGID_00000075137532447949817140000006327231391230111888_);fill:#C9C0B7;}
	.st14{clip-path:url(#SVGID_00000075137532447949817140000006327231391230111888_);fill:#A0958A;}
	.st15{clip-path:url(#SVGID_00000075137532447949817140000006327231391230111888_);fill:#9B5341;}
	.st16{clip-path:url(#SVGID_00000075137532447949817140000006327231391230111888_);fill:#5A4540;}
	.st17{fill:#FFFFFF;}
	.st18{font-size:20px;}
</style>
<g>
	<defs>
		<rect id="SVGID_1_" x="0" y="0" width="195.6" height="280.6"/>
	</defs>
	<clipPath id="SVGID_00000001645583793444024390000009274918106850129584_">
		<use xlink:href="#SVGID_1_"  style="overflow:visible;"/>
	</clipPath>
	<g style="clip-path:url(#SVGID_00000001645583793444024390000009274918106850129584_);enable-background:new    ;">
		<text transform="matrix(1 0 0 1 18.76 253.58)" class="st1 st2 st3">pierogi</text>
	</g>
	<path style="clip-path:url(#SVGID_00000001645583793444024390000009274918106850129584_);fill:#EB5A53;" d="M91.5,175.2
		c0,12.2-4.1,29.5-9.1,29.5s-9.1-17.3-9.1-29.5s5.4-14.6,9.1-14.6S91.5,163,91.5,175.2z"/>
	<path style="clip-path:url(#SVGID_00000001645583793444024390000009274918106850129584_);fill:#1A1A1A;" d="M82.4,158
		c-3,0-5.9,1.3-7.9,3.6c-2.3,2.8-3.7,7.1-3.7,13.5c0,6.8,1,13.5,2.8,20c0.7,2.8,1.8,5.4,3.2,7.9c1.3,2.1,3,4.1,5.7,4.1
		s4.4-2,5.7-4.1c1.4-2.5,2.4-5.1,3.2-7.9c1.8-6.5,2.7-13.2,2.8-20c0-6.5-1.4-10.8-3.8-13.5C88.3,159.3,85.5,158,82.4,158z
		 M82.4,163.1c1.6-0.1,3,0.6,4,1.9c1.3,1.5,2.6,4.5,2.6,10.2c-0.1,6.3-0.9,12.5-2.6,18.6c-0.6,2.3-1.5,4.6-2.6,6.7
		c-0.3,0.6-0.8,1.2-1.4,1.6c-0.6-0.4-1-1-1.4-1.6c-1.1-2.1-2-4.3-2.6-6.7c-1.6-6.1-2.5-12.3-2.6-18.6c0-5.7,1.3-8.7,2.6-10.2
		C79.4,163.7,80.9,163,82.4,163.1L82.4,163.1z"/>
	<path style="clip-path:url(#SVGID_00000001645583793444024390000009274918106850129584_);fill:#EB5A53;" d="M137.4,175.2
		c0,12.2-4.1,29.5-9.1,29.5s-9.1-17.3-9.1-29.5s5.4-14.6,9.1-14.6C132,160.6,137.4,163,137.4,175.2L137.4,175.2z"/>
	<path style="clip-path:url(#SVGID_00000001645583793444024390000009274918106850129584_);fill:#1A1A1A;" d="M128.3,158
		c-3,0-5.9,1.3-7.8,3.6c-2.3,2.8-3.8,7.1-3.8,13.5c0.1,6.8,1,13.5,2.8,20c0.7,2.8,1.8,5.4,3.2,7.9c1.3,2.1,3,4.1,5.7,4.1
		s4.4-2,5.7-4.1c1.4-2.5,2.4-5.1,3.1-7.9c1.8-6.5,2.7-13.2,2.8-20c0-6.5-1.4-10.8-3.7-13.5C134.2,159.3,131.3,158,128.3,158
		L128.3,158z M128.3,163.1c1.6-0.1,3,0.6,4,1.9c1.3,1.5,2.6,4.5,2.6,10.2c-0.1,6.3-0.9,12.5-2.6,18.6c-0.6,2.3-1.5,4.6-2.6,6.7
		c-0.3,0.6-0.8,1.2-1.4,1.6c-0.6-0.4-1-1-1.4-1.6c-1.1-2.1-2-4.3-2.6-6.7c-1.6-6.1-2.5-12.3-2.6-18.6c0-5.7,1.3-8.7,2.6-10.2
		C125.3,163.7,126.8,163,128.3,163.1L128.3,163.1z"/>
	<path style="clip-path:url(#SVGID_00000001645583793444024390000009274918106850129584_);fill:#EB5A53;" d="M45.9,114.7
		c-3.5,11.7-12.4,27-17.2,25.6s-3.7-19.2-0.1-30.8s9.4-12.4,12.9-11.3S49.5,103.1,45.9,114.7z"/>
	<path style="clip-path:url(#SVGID_00000001645583793444024390000009274918106850129584_);fill:#1A1A1A;" d="M42.3,97.1
		c-2.9-0.9-6-0.4-8.6,1.2c-3,2-5.6,5.7-7.5,11.8c-1.9,6.5-3,13.2-3.2,19.9c-0.1,2.8,0.1,5.7,0.7,8.5c0.6,2.4,1.7,4.8,4.3,5.6
		s4.8-0.6,6.6-2.3c2-2,3.8-4.2,5.3-6.6c3.6-5.7,6.4-11.9,8.4-18.3c1.9-6.2,1.8-10.7,0.3-14C47.5,100,45.1,97.9,42.3,97.1L42.3,97.1z
		 M40.8,101.9c1.5,0.4,2.7,1.5,3.3,2.9c0.8,1.8,1.1,5.1-0.5,10.5c-1.9,6-4.5,11.7-7.8,17.1c-1.2,2-2.7,3.9-4.4,5.6
		c-0.5,0.5-1.1,0.9-1.8,1.1c-0.4-0.6-0.7-1.2-0.8-1.9c-0.5-2.3-0.7-4.7-0.6-7.1c0.2-6.3,1.2-12.5,2.9-18.6c1.7-5.5,3.7-8,5.4-9.1
		C37.7,101.6,39.3,101.4,40.8,101.9L40.8,101.9z"/>
	<path style="clip-path:url(#SVGID_00000001645583793444024390000009274918106850129584_);fill:#EB5A53;" d="M179.7,109
		c4.6,11.2,7.5,28.8,2.9,30.7s-15-12.5-19.7-23.8s-0.6-15.5,2.8-17S175,97.7,179.7,109L179.7,109z"/>
	<path style="clip-path:url(#SVGID_00000001645583793444024390000009274918106850129584_);fill:#1A1A1A;" d="M164.7,96.6
		c-2.8,1.2-4.9,3.5-5.9,6.4c-1.1,3.4-0.8,8,1.7,13.9c2.6,6.2,6.1,12.1,10.2,17.4c1.7,2.3,3.7,4.3,5.9,6.1c2,1.5,4.3,2.7,6.9,1.6
		s3.3-3.5,3.7-6c0.3-2.8,0.3-5.7-0.1-8.5c-0.9-6.7-2.6-13.3-5.1-19.5c-2.5-6-5.4-9.4-8.6-11C170.7,95.6,167.5,95.5,164.7,96.6
		L164.7,96.6z M166.7,101.3c1.4-0.6,3-0.6,4.4,0.2c1.8,0.9,4.1,3.2,6.3,8.5c2.3,5.8,3.9,11.9,4.8,18.2c0.3,2.4,0.4,4.8,0.1,7.2
		c-0.1,0.7-0.3,1.4-0.6,2c-0.7-0.2-1.3-0.5-1.9-1c-1.9-1.5-3.6-3.2-5-5.1c-3.8-5-7-10.4-9.5-16.2c-2.2-5.3-2.2-8.5-1.6-10.4
		C164.1,103,165.2,101.8,166.7,101.3L166.7,101.3z"/>
	<path style="clip-path:url(#SVGID_00000001645583793444024390000009274918106850129584_);fill:#1A1A1A;" d="M105.4,43.9
		c-39.2,0-71,31.8-71,71s31.8,71,71,71s71-31.8,71-71v0C176.3,75.7,144.6,44,105.4,43.9z M105.4,52c34.7,0,62.9,28.2,62.9,62.9
		s-28.2,62.9-62.9,62.9c-34.7,0-62.9-28.1-62.9-62.9c-0.1-34.7,28-62.9,62.7-63C105.2,52,105.3,52,105.4,52L105.4,52z"/>
	<path style="clip-path:url(#SVGID_00000001645583793444024390000009274918106850129584_);fill:#FFFFFF;" d="M172.3,115
		c0,37-30,67-67,67s-67-30-67-67c0-37,30-67,67-67c17.8,0,34.8,7.1,47.4,19.6C165.3,80.2,172.3,97.2,172.3,115z"/>
	<path style="clip-path:url(#SVGID_00000001645583793444024390000009274918106850129584_);fill:#FFFFFF;" d="M163.8,111.5
		c0,34.2-27.7,61.9-61.9,61.9c-34.2,0-61.9-27.7-61.9-61.9s27.7-61.9,61.9-61.9c16.4,0,32.2,6.5,43.8,18.1
		C157.3,79.3,163.8,95,163.8,111.5z"/>
	<path style="clip-path:url(#SVGID_00000001645583793444024390000009274918106850129584_);fill:#EB5A53;" d="M38.4,115
		c-1.3,37,27.7,68,64.6,69.3s68-27.7,69.3-64.6c0.1-1.5,0.1-3.1,0-4.6H38.4z"/>
	<path style="clip-path:url(#SVGID_00000001645583793444024390000009274918106850129584_);fill:#EB5A53;" d="M40.1,115
		c1.9,34.1,31.1,60.3,65.2,58.4c31.5-1.7,56.6-26.9,58.4-58.4H40.1z"/>
	<path style="clip-path:url(#SVGID_00000001645583793444024390000009274918106850129584_);fill:#1A1A1A;" d="M105.4,47
		c-37.6,0-68,30.4-68,68s30.4,68,68,68s68-30.4,68-68l0,0C173.4,77.4,142.9,47,105.4,47z M105.4,49c36.5,0,66,29.5,66,65.9
		s-29.5,66-65.9,66c-36.5,0-66-29.5-66-65.9c0,0,0,0,0,0C39.4,78.6,68.9,49.1,105.4,49C105.4,49,105.4,49,105.4,49L105.4,49z"/>
	<path style="clip-path:url(#SVGID_00000001645583793444024390000009274918106850129584_);fill:#1A1A1A;" d="M40.5,133l1-0.1
		l1.8,13.5l-1,0.1L40.5,133z"/>
	<path style="clip-path:url(#SVGID_00000001645583793444024390000009274918106850129584_);fill:#1A1A1A;" d="M86.3,104.2
		c-5.1,0-9.2,4.1-9.2,9.1c0,0,0,0,0,0v7.6h18.3v-7.6C95.5,108.4,91.4,104.3,86.3,104.2C86.3,104.3,86.3,104.3,86.3,104.2L86.3,104.2
		z"/>
	<path style="clip-path:url(#SVGID_00000001645583793444024390000009274918106850129584_);fill:#FFFFFF;" d="M91.7,110.8
		c0,1.7-1.3,3-3,3s-3-1.3-3-3s1.3-3,3-3S91.7,109.1,91.7,110.8z"/>
	<path style="clip-path:url(#SVGID_00000001645583793444024390000009274918106850129584_);fill:#1A1A1A;" d="M124.1,104.2
		c-5.1,0-9.2,4.1-9.2,9.1c0,0,0,0,0,0v7.6h18.3v-7.6C133.3,108.4,129.2,104.3,124.1,104.2C124.1,104.3,124.1,104.3,124.1,104.2
		L124.1,104.2z"/>
	<path style="clip-path:url(#SVGID_00000001645583793444024390000009274918106850129584_);fill:#FFFFFF;" d="M129.5,110.8
		c0,1.7-1.3,3-3,3c-1.7,0-3-1.3-3-3s1.3-3,3-3C128.1,107.8,129.5,109.1,129.5,110.8z"/>
	<path style="clip-path:url(#SVGID_00000001645583793444024390000009274918106850129584_);fill:#EB5775;" d="M108.6,122.4
		c-3,0-5.5,2.5-5.5,5.5c0,0,0,0,0,0v4.9c0.7,0.2,1.5,0.2,2.2,0.2c3.7,0,7-1.9,8.9-5.1C114.1,124.9,111.6,122.4,108.6,122.4
		C108.6,122.4,108.6,122.4,108.6,122.4z"/>
	<path style="clip-path:url(#SVGID_00000001645583793444024390000009274918106850129584_);fill:#1A1A1A;" d="M108.6,121.5
		c-3.5,0-6.4,2.9-6.4,6.4v4.9h1.8v-4.9c-0.1-2.6,2-4.7,4.5-4.8s4.7,2,4.8,4.5c-0.5,0.9-1.2,1.6-1.9,2.3l1.2,1.4
		c1-0.8,1.8-1.8,2.5-2.9l0.1-0.2v-0.2C115,124.4,112.1,121.5,108.6,121.5z"/>
	
		<rect x="108.1" y="127.7" style="clip-path:url(#SVGID_00000001645583793444024390000009274918106850129584_);fill:#1A1A1A;" width="0.9" height="4.8"/>
	<path style="clip-path:url(#SVGID_00000001645583793444024390000009274918106850129584_);fill:#F293A2;" d="M105.5,126.2
		c0-0.7,0.5-1.2,1.2-1.2s1.2,0.5,1.2,1.2s-0.5,1.2-1.2,1.2S105.5,126.9,105.5,126.2L105.5,126.2z"/>
	<path style="clip-path:url(#SVGID_00000001645583793444024390000009274918106850129584_);fill:#1A1A1A;" d="M97.1,127.5l-1.5,0.9
		c3.1,5.3,9.9,7.1,15.2,4.1c1.7-1,3.1-2.4,4.1-4.1l-1.5-0.9c-2.6,4.5-8.3,6-12.8,3.4C99.1,130.1,98,128.9,97.1,127.5z"/>
	<path style="clip-path:url(#SVGID_00000001645583793444024390000009274918106850129584_);fill:#1A1A1A;" d="M105.2,17.8
		c-6.4,0-12.5,3-16.4,8.1c-1.5-0.4-3.1-0.7-4.7-0.7l0,0c-9.3,0-16.9,7.6-16.9,16.9S74.9,59,84.2,59l0,0c4.4,0,8.5-1.7,11.7-4.7
		l-3.7-3.8c-4.6,4.4-11.9,4.3-16.3-0.3s-4.3-11.9,0.3-16.3c3.4-3.2,8.4-4.1,12.6-2.3l2.2,0.9l1.2-2c4.3-7.2,13.6-9.6,20.8-5.2
		c2.2,1.3,4,3.1,5.2,5.2l1.2,2l2.2-1c5.8-2.6,12.6,0.1,15.1,5.9c2.6,5.8-0.1,12.6-5.9,15.1c-4.3,1.9-9.2,1-12.6-2.2l-3.7,3.8
		c3.1,3,7.3,4.7,11.6,4.7l0,0c9.3,0,16.8-7.5,16.8-16.8s-7.5-16.8-16.8-16.8l0,0c-1.6,0-3.1,0.2-4.7,0.7
		C117.7,20.9,111.7,17.9,105.2,17.8L105.2,17.8L105.2,17.8z"/>
	<path style="clip-path:url(#SVGID_00000001645583793444024390000009274918106850129584_);fill:#1A1A1A;" d="M87.5,49.1
		c-3.2,0-5.8,2.6-5.8,5.8v10.6c0,3.2,2.6,5.8,5.8,5.8H123c3.2,0,5.8-2.6,5.8-5.8V54.9c0-3.2-2.6-5.8-5.8-5.8H87.5z M87.5,54.5H123
		c0.2,0,0.4,0.1,0.5,0.4c0,0,0,0.1,0,0.1v10.6c0.1,0.2-0.1,0.5-0.3,0.5c-0.1,0-0.1,0-0.2,0H87.5c-0.2,0-0.4-0.1-0.5-0.4
		c0,0,0-0.1,0-0.1V54.9c0-0.2,0.1-0.4,0.4-0.5C87.4,54.4,87.4,54.4,87.5,54.5z"/>
	<path style="clip-path:url(#SVGID_00000001645583793444024390000009274918106850129584_);fill:#FFFFFF;" d="M87.5,51.8H123
		c1.7,0,3.1,1.4,3.1,3.1c0,0,0,0,0,0v10.6c0,1.7-1.4,3.1-3.1,3.1c0,0,0,0,0,0H87.5c-1.7,0-3.1-1.4-3.1-3.1c0,0,0,0,0,0V54.9
		C84.3,53.2,85.7,51.8,87.5,51.8C87.4,51.8,87.5,51.8,87.5,51.8z"/>
	<path style="clip-path:url(#SVGID_00000001645583793444024390000009274918106850129584_);fill:#CCE2E9;" d="M87.5,51.8
		c-1.7,0-3.1,1.4-3.1,3.1c0,0,0,0,0,0v5.8c3.5,0,6.9-1.1,9.9-2.9c6.8,3.9,15.2,3.9,22.1,0c3,1.9,6.4,2.9,9.9,2.9v-5.8
		c0-1.7-1.4-3.1-3.1-3.1c0,0,0,0,0,0H87.5z"/>
	<path style="clip-path:url(#SVGID_00000001645583793444024390000009274918106850129584_);fill:#CCE2E9;" d="M109.7,51.8
		c1.7,0,3.1,1.4,3.1,3.1c0,0,0,0,0,0v10.6c0,1.7-1.4,3.1-3.1,3.1c0,0,0,0,0,0H123c1.7,0,3.1-1.4,3.1-3.1c0,0,0,0,0,0V54.9
		c0-1.7-1.4-3.1-3.1-3.1c0,0,0,0,0,0H109.7z"/>
	<path style="clip-path:url(#SVGID_00000001645583793444024390000009274918106850129584_);fill:#A1C7D5;" d="M84.3,62.7v2.8
		c0,1.7,1.4,3.1,3.1,3.1c0,0,0,0,0,0H123c1.7,0,3.1-1.4,3.1-3.1c0,0,0,0,0,0v-2.8c0,1.7-1.4,3.1-3.1,3.1c0,0,0,0,0,0H87.5
		C85.7,65.8,84.3,64.4,84.3,62.7C84.3,62.7,84.3,62.7,84.3,62.7z"/>
	<path style="clip-path:url(#SVGID_00000001645583793444024390000009274918106850129584_);fill:#A1C7D5;" d="M118.2,51.8
		c1.7,0,3.1,1.4,3.1,3.1c0,0,0,0,0,0v10.6c0,1.7-1.4,3.1-3.1,3.1c0,0,0,0,0,0h4.8c1.7,0,3.1-1.4,3.1-3.1c0,0,0,0,0,0V54.9
		c0-1.7-1.4-3.1-3.1-3.1c0,0,0,0,0,0H118.2z"/>
	<path style="clip-path:url(#SVGID_00000001645583793444024390000009274918106850129584_);fill:#1A1A1A;" d="M87.5,50.9
		c-2.2,0-4,1.8-4,4v10.6c0,2.2,1.8,4,4,4H123c2.2,0,4-1.8,4-4V54.9c0-2.2-1.8-4-4-4L87.5,50.9z M87.5,52.7H123c1.2,0,2.2,1,2.2,2.2
		c0,0,0,0,0,0v10.6c0,1.2-1,2.2-2.2,2.2c0,0,0,0-0.1,0H87.5c-1.2,0-2.2-1-2.2-2.2c0,0,0,0,0-0.1V54.9C85.2,53.7,86.2,52.7,87.5,52.7
		C87.4,52.7,87.4,52.7,87.5,52.7z"/>
	<path style="clip-path:url(#SVGID_00000001645583793444024390000009274918106850129584_);fill:#CCE2E9;" d="M140.4,42.1
		c0,7.8-6.3,14.2-14.2,14.2c-7.8,0-14.2-6.3-14.2-14.2c0-7.8,6.3-14.2,14.2-14.2c0,0,0,0,0,0C134.1,27.9,140.4,34.3,140.4,42.1z"/>
	<path style="clip-path:url(#SVGID_00000001645583793444024390000009274918106850129584_);fill:#A1C7D5;" d="M126.2,27.9
		c-7.8,0-14.2,6.3-14.2,14.1s6.3,14.2,14.1,14.2c7.8,0,14.2-6.3,14.2-14.1c0-3.8-1.5-7.4-4.1-10C133.6,29.4,130,27.9,126.2,27.9z
		 M126.6,28.4L126.6,28.4c6.7,0,12.1,5.4,12.1,12.2s-5.4,12.1-12.1,12.1c-6.7,0-12.2-5.4-12.2-12.1v0
		C114.5,33.8,119.9,28.4,126.6,28.4C126.6,28.4,126.6,28.4,126.6,28.4z"/>
	<path style="clip-path:url(#SVGID_00000001645583793444024390000009274918106850129584_);fill:#FFFFFF;" d="M137.1,38.7
		c0,5.6-4.5,10.1-10.1,10.1s-10.1-4.5-10.1-10.1s4.5-10.1,10.1-10.1c0,0,0,0,0,0C132.6,28.6,137.1,33.1,137.1,38.7z"/>
	<path style="clip-path:url(#SVGID_00000001645583793444024390000009274918106850129584_);fill:#CCE2E9;" d="M123.1,38.4
		c0,9.9-8,17.9-17.9,17.9c-9.9,0-17.9-8-17.9-17.9c0-9.9,8-17.9,17.9-17.9c4.8,0,9.3,1.9,12.7,5.2C121.2,29.1,123.1,33.6,123.1,38.4
		z"/>
	<path style="clip-path:url(#SVGID_00000001645583793444024390000009274918106850129584_);fill:#CCE2E9;" d="M98.4,42.1
		c0,7.8-6.3,14.2-14.2,14.2S70,49.9,70,42.1s6.3-14.2,14.2-14.2C92,27.9,98.4,34.3,98.4,42.1z"/>
	<path style="clip-path:url(#SVGID_00000001645583793444024390000009274918106850129584_);fill:#FFFFFF;" d="M84.2,27.9
		c-6.3,0-11.9,4.2-13.6,10.2c0.8,6.6,6.8,11.2,13.4,10.4c6.6-0.8,11.2-6.8,10.4-13.4c-0.2-1.4-0.6-2.8-1.2-4
		C90.6,29.1,87.4,28,84.2,27.9L84.2,27.9z"/>
	<path style="clip-path:url(#SVGID_00000001645583793444024390000009274918106850129584_);fill:#1A1A1A;" d="M91.7,48.7l-1.4,1.1
		c6.3,8.2,18.1,9.8,26.3,3.5c1.3-1,2.5-2.2,3.5-3.5l-1.4-1.1c-5.7,7.5-16.4,8.9-23.8,3.2C93.7,51,92.6,49.9,91.7,48.7z"/>
	<path style="clip-path:url(#SVGID_00000001645583793444024390000009274918106850129584_);fill:#FFFFFF;" d="M105.5,20
		c-10,0-18.2,8.2-18.2,18.2c0,0.7,0,1.5,0.1,2.2c5.2,9.4,17,12.8,26.4,7.6c4.9-2.7,8.4-7.5,9.6-13C121.9,26.3,114.3,20,105.5,20z"/>
	<path style="clip-path:url(#SVGID_00000001645583793444024390000009274918106850129584_);fill:#1A1A1A;" d="M105.2,19.6
		c-6.3,0-12.2,3.2-15.7,8.5c-1.7-0.7-3.5-1-5.3-1l0,0c-8.3,0-15,6.8-15,15.1s6.8,15,15.1,15c3.9,0,7.6-1.5,10.4-4.2l-1.2-1.3
		c-5.3,5.1-13.7,5-18.8-0.3c-5.1-5.3-5-13.7,0.3-18.8c3.9-3.8,9.7-4.8,14.7-2.6l0.7,0.3l0.4-0.7c4.8-8,15.3-10.6,23.3-5.8
		c2.4,1.4,4.4,3.4,5.8,5.8l0.4,0.7l0.7-0.3c6.7-3,14.5,0.1,17.5,6.8s-0.1,14.5-6.8,17.5c-4.9,2.2-10.7,1.1-14.5-2.6l-1.2,1.3
		c2.8,2.7,6.5,4.2,10.4,4.2l0,0c8.3,0,15.1-6.7,15.1-15.1c0-8.3-6.7-15.1-15.1-15.1l0,0c-1.8,0-3.6,0.3-5.3,1
		C117.4,22.8,111.5,19.6,105.2,19.6L105.2,19.6z"/>
	<path style="clip-path:url(#SVGID_00000001645583793444024390000009274918106850129584_);fill:#1A1A1A;" d="M16.6,75.1
		c-2.2,0-4,1.8-4.1,4l-0.1,7.3c0,2.2,1.8,4,4,4.1c2.2,0,4-1.8,4.1-4l0.1-7.3C20.6,77,18.8,75.2,16.6,75.1L16.6,75.1z"/>
	<path style="clip-path:url(#SVGID_00000001645583793444024390000009274918106850129584_);fill:#1A1A1A;" d="M21.3,74.2
		c-2.2,0-4,1.8-4.1,4l-0.1,9.2c0,2.2,1.8,4,4,4.1c2.2,0,4-1.8,4.1-4l0.1-9.2C25.2,76.1,23.5,74.3,21.3,74.2L21.3,74.2z"/>
	<path style="clip-path:url(#SVGID_00000001645583793444024390000009274918106850129584_);fill:#1A1A1A;" d="M30.5,75.2
		c2.2,0,4,1.8,4,4.1l-0.1,7.3c0,2.2-1.8,4-4.1,4c-2.2,0-4-1.8-4-4.1l0.1-7.3C26.5,77,28.3,75.2,30.5,75.2L30.5,75.2z"/>
	<path style="clip-path:url(#SVGID_00000001645583793444024390000009274918106850129584_);fill:#1A1A1A;" d="M25.9,74.3
		c2.2,0.1,4,1.9,4,4.1l-0.1,9.2c0,2.2-1.8,4-4.1,4s-4-1.8-4-4.1l0.1-9.2C21.9,76,23.7,74.3,25.9,74.3z"/>
	<path style="clip-path:url(#SVGID_00000001645583793444024390000009274918106850129584_);fill:#1A1A1A;" d="M20.3,98.4
		c-1.9,0-3.4,1.5-3.5,3.4l-0.3,36.8c0,3.6,2.9,6.5,6.4,6.6c3.6,0,6.5-2.9,6.6-6.4l0.3-36.8c0-1.9-1.5-3.4-3.4-3.5L20.3,98.4z
		 M23,104.6h0.5l-0.3,34.1c0,0.2-0.1,0.3-0.3,0.3s-0.3-0.1-0.3-0.3L23,104.6z"/>
	<path style="clip-path:url(#SVGID_00000001645583793444024390000009274918106850129584_);fill:#1A1A1A;" d="M13.2,70.5
		c-2.8,0-5,2.2-5.1,5l-0.1,7c-0.1,4.7,1.9,9.1,5.5,12.2c2.3,2.2,3.6,2.8,3.6,6.8l6.1,0.1h0.1h6.1c0-3.9,1.3-4.6,3.7-6.7
		c3.6-3,5.7-7.4,5.7-12.1l0.1-7c0-2.8-2.2-5-5-5.1L13.2,70.5z M14.4,76.7l18.3,0.2l0,5.8c0,4.6-1.4,5.5-3.7,7.5
		c-2.1,1.9-5.1,4.9-5.6,10c-0.4-5.1-3.4-8.1-5.5-10.1c-2.2-2.1-3.6-3-3.6-7.6L14.4,76.7z"/>
	<path style="clip-path:url(#SVGID_00000001645583793444024390000009274918106850129584_);fill:#C67550;" d="M20.3,101.5
		c-0.2,0-0.3,0.1-0.3,0.3l0,0c-0.1,12.3-0.2,24.6-0.3,36.8c0,1.9,1.5,3.4,3.4,3.4c1.9,0,3.4-1.5,3.4-3.4c0.1-12.3,0.2-24.6,0.3-36.8
		c0-0.2-0.1-0.3-0.3-0.3L20.3,101.5z"/>
	<path style="clip-path:url(#SVGID_00000001645583793444024390000009274918106850129584_);fill:#DB9C73;" d="M21.1,101.5l-0.3,36.7
		c0,1,0.4,1.9,1.1,2.6c-0.1-0.4-0.2-0.8-0.2-1.2l0.3-38.1L21.1,101.5z"/>
	<path style="clip-path:url(#SVGID_00000001645583793444024390000009274918106850129584_);fill:#C9C0B7;" d="M13.2,73.6
		c-1,0-1.9,0.8-1.9,1.9c0,0,0,0,0,0l-0.1,7c-0.1,10.9,9.1,9.1,9,19h6.1c0.1-9.8,9.3-7.9,9.4-18.8l0.1-7c0-1-0.8-1.9-1.8-1.9
		L13.2,73.6z M21.2,77.3c0.5,0,0.9,0.4,0.9,0.9l-0.1,9.2c0,0.5-0.4,0.9-0.9,0.9c0,0,0,0,0,0c-0.5,0-0.9-0.4-0.9-0.9c0,0,0,0,0,0
		l0.1-9.2C20.3,77.7,20.7,77.3,21.2,77.3z M25.9,77.3c0.5,0,0.9,0.4,0.9,0.9c0,0,0,0,0,0l-0.1,9.2c0,0.5-0.4,0.9-0.9,0.9
		c-0.5,0-0.9-0.4-0.9-0.9l0.1-9.2C24.9,77.7,25.4,77.3,25.9,77.3C25.9,77.3,25.9,77.3,25.9,77.3z M16.6,78.2c0.5,0,0.9,0.4,0.9,0.9
		c0,0,0,0,0,0l-0.1,7.3c0,0.5-0.4,0.9-0.9,0.9s-0.9-0.4-0.9-0.9l0,0l0.1-7.3C15.7,78.6,16.1,78.2,16.6,78.2
		C16.6,78.2,16.6,78.2,16.6,78.2L16.6,78.2z M30.5,78.3c0.5,0,0.9,0.4,0.9,0.9c0,0,0,0,0,0l-0.1,7.3c0,0.5-0.4,0.9-0.9,0.9
		s-0.9-0.4-0.9-0.9l0.1-7.3C29.6,78.7,30,78.3,30.5,78.3C30.5,78.3,30.5,78.3,30.5,78.3L30.5,78.3z"/>
	<path style="clip-path:url(#SVGID_00000001645583793444024390000009274918106850129584_);fill:#FFFFFF;" d="M21.9,76.9
		c-0.4,0-0.8,0.2-1.1,0.5c0.1-0.1,0.3-0.1,0.4-0.1c0.5,0,0.9,0.4,0.9,0.9l-0.1,9.2c0,0.5-0.4,0.9-0.9,0.9c0,0,0,0,0,0
		c-0.1,0-0.3,0-0.4-0.1c0.4,0.6,1.3,0.7,1.9,0.3c0.3-0.3,0.5-0.7,0.5-1.1l0.1-9.2C23.3,77.5,22.7,76.9,21.9,76.9L21.9,76.9z
		 M26.5,76.9c-0.4,0-0.8,0.2-1.1,0.5c0.1-0.1,0.3-0.1,0.4-0.1c0.5,0,0.9,0.4,0.9,0.9c0,0,0,0,0,0l-0.1,9.2c0,0.5-0.4,0.9-0.9,0.9
		c-0.1,0-0.3,0-0.4-0.1c0.3,0.3,0.7,0.5,1.1,0.6c0.8,0,1.4-0.6,1.4-1.4l0.1-9.2C27.9,77.5,27.3,76.9,26.5,76.9L26.5,76.9z
		 M17.3,77.7c-0.4,0-0.8,0.2-1.1,0.5c0.1-0.1,0.3-0.1,0.4-0.1c0.5,0,0.9,0.4,0.9,0.9c0,0,0,0,0,0l-0.1,7.3c0,0.5-0.4,0.9-0.9,0.9
		c-0.1,0-0.3,0-0.4-0.1c0.4,0.6,1.3,0.7,1.9,0.3c0.3-0.3,0.5-0.7,0.5-1.1l0.1-7.3C18.6,78.4,18,77.7,17.3,77.7z M31.2,77.8
		c-0.4,0-0.8,0.2-1.1,0.5c0.1-0.1,0.3-0.1,0.4-0.1c0.5,0,0.9,0.4,0.9,0.9c0,0,0,0,0,0l-0.1,7.3c0,0.5-0.4,0.9-0.9,0.9c0,0,0,0,0,0
		c-0.1,0-0.3,0-0.4-0.1c0.4,0.6,1.3,0.7,1.9,0.3c0.3-0.3,0.5-0.7,0.5-1.1l0.1-7.3C32.5,78.5,31.9,77.9,31.2,77.8z"/>
	<path style="clip-path:url(#SVGID_00000001645583793444024390000009274918106850129584_);fill:#A0958A;" d="M13.2,73.6
		c-1,0-1.9,0.8-1.9,1.9c0,0,0,0,0,0l24.5,0.2c0-1-0.8-1.9-1.8-1.9L13.2,73.6z"/>
	<path style="clip-path:url(#SVGID_00000001645583793444024390000009274918106850129584_);fill:#A0958A;" d="M15.2,91.8
		c2.5,2.4,5.2,4.3,5.1,9.6h6.1c0-5.3,2.8-7.2,5.3-9.5L15.2,91.8z"/>
	<path style="clip-path:url(#SVGID_00000001645583793444024390000009274918106850129584_);fill:#FFFFFF;" d="M13.2,73.6
		c-1,0-1.9,0.8-1.9,1.9c0,0,0,0,0,0l-0.1,7c-0.1,10.9,9.1,9.1,9,19h1.3c0.1-10.9-9.1-8.4-9-19l0.1-7c0-1,0.9-1.9,1.9-1.9
		c0,0,0,0,0,0H13.2z"/>
	<path style="clip-path:url(#SVGID_00000001645583793444024390000009274918106850129584_);fill:#9B5341;" d="M24.7,101.5
		c0.2,0,0.3,0.1,0.3,0.3l0,0l-0.3,36.8c0,3.4-2.6,3.2-2.6,3.2c0.3,0.1,0.6,0.1,0.8,0.1c1.9,0,3.4-1.5,3.4-3.3c0,0,0,0,0,0l0.3-36.8
		c0-0.2-0.1-0.3-0.3-0.3L24.7,101.5z"/>
	<path style="clip-path:url(#SVGID_00000001645583793444024390000009274918106850129584_);fill:#DB9C73;" d="M20.3,101.5
		c-0.2,0-0.3,0.1-0.3,0.3l0,0l-0.3,36.8c0,1.7,1.3,3.2,3,3.4c-1.7-0.2-2.9-1.6-2.9-3.3l0.3-35.8c0-0.2,0.1-0.3,0.3-0.3l5.9,0.1
		c0.2,0,0.3,0.1,0.3,0.3c0,0,0,0,0,0l-0.3,35.8c0,1.7-1.3,3.1-3,3.2c1.7-0.2,3.1-1.6,3.1-3.3l0.3-36.8c0-0.2-0.1-0.3-0.3-0.3
		L20.3,101.5z"/>
	<path style="clip-path:url(#SVGID_00000001645583793444024390000009274918106850129584_);fill:#1A1A1A;" d="M20.3,101
		c-0.4,0-0.8,0.3-0.8,0.8c0,0,0,0,0,0l-0.3,36.9c0.1,2.1,1.9,3.8,4,3.7c2-0.1,3.5-1.6,3.7-3.6l0.3-36.8c0-0.4-0.3-0.8-0.8-0.8
		L20.3,101z M20.4,101.9h5.9L26,138.7c0,1.6-1.3,2.9-2.9,2.9s-2.9-1.3-2.9-2.9L20.4,101.9z"/>
	<path style="clip-path:url(#SVGID_00000001645583793444024390000009274918106850129584_);fill:#5A4540;" d="M24.1,110.5
		c0,0.2-0.1,0.4-0.3,0.6c-0.2,0.2-0.4,0.2-0.6,0.2c-0.5,0-0.9-0.4-0.9-0.9c0-0.2,0.1-0.4,0.2-0.6c0.2-0.2,0.4-0.2,0.6-0.2
		c0.2,0,0.4,0.1,0.6,0.3C24,110,24.1,110.3,24.1,110.5z"/>
	<path style="clip-path:url(#SVGID_00000001645583793444024390000009274918106850129584_);fill:#1A1A1A;" d="M23.3,109.4
		c-0.6,0-1.1,0.5-1.1,1.1c0,0.6,0.5,1.1,1.1,1.1c0.6,0,1.1-0.5,1.1-1.1C24.3,109.9,23.9,109.4,23.3,109.4
		C23.3,109.4,23.3,109.4,23.3,109.4z M23.3,109.8c0.3,0,0.6,0.3,0.6,0.6c0,0,0,0,0,0c0,0.3-0.3,0.6-0.6,0.6c0,0,0,0,0,0
		c-0.3,0-0.6-0.3-0.6-0.6c0,0,0,0,0,0C22.6,110.1,22.9,109.8,23.3,109.8C23.3,109.8,23.3,109.8,23.3,109.8z"/>
	<path style="clip-path:url(#SVGID_00000001645583793444024390000009274918106850129584_);fill:#1A1A1A;" d="M13.2,73.2
		c-1.3,0-2.3,1-2.4,2.3c0,0,0,0,0,0l-0.1,7c-0.1,5.6,2.4,8,4.7,10.2s4.4,4,4.4,8.8h0.9c0-5-2.4-7.3-4.7-9.4s-4.4-4.2-4.4-9.6l0.1-7
		c0-0.8,0.6-1.4,1.4-1.4c0,0,0,0,0.1,0L34,74.2c0.8,0,1.4,0.6,1.4,1.4c0,0,0,0,0,0l-0.1,7c0,5.3-2.2,7.4-4.5,9.5s-4.8,4.3-4.8,9.3
		h0.9c0-4.8,2.2-6.6,4.5-8.7s4.8-4.6,4.8-10.1l0.1-7c0-1.3-1-2.4-2.3-2.4c0,0,0,0,0,0L13.2,73.2z"/>
	<path style="clip-path:url(#SVGID_00000001645583793444024390000009274918106850129584_);fill:#5A4540;" d="M24.2,105
		c0,0.2-0.1,0.4-0.3,0.6c-0.2,0.2-0.4,0.2-0.6,0.2c-0.2,0-0.4-0.1-0.6-0.2c-0.2-0.2-0.2-0.4-0.2-0.6c0-0.5,0.4-0.9,0.9-0.8
		c0.2,0,0.4,0.1,0.6,0.3C24.1,104.6,24.2,104.8,24.2,105z"/>
	<path style="clip-path:url(#SVGID_00000001645583793444024390000009274918106850129584_);fill:#1A1A1A;" d="M23.3,103.9
		c-0.6-0.1-1.1,0.4-1.2,1c-0.1,0.6,0.4,1.1,1,1.2c0.1,0,0.1,0,0.2,0c0.6,0.1,1.1-0.4,1.2-1c0.1-0.6-0.4-1.1-1-1.2
		C23.5,103.9,23.4,103.9,23.3,103.9z M23.3,104.3c0.4,0,0.6,0.4,0.6,0.7c0,0.3-0.3,0.5-0.6,0.6c-0.3,0-0.6-0.3-0.6-0.6c0,0,0,0,0,0
		C22.7,104.6,23,104.3,23.3,104.3L23.3,104.3z"/>
	<path style="clip-path:url(#SVGID_00000001645583793444024390000009274918106850129584_);fill:#1A1A1A;" d="M16.6,77.8
		c-0.8,0-1.4,0.6-1.4,1.3l-0.1,7.3c0,0.8,0.6,1.4,1.4,1.4c0.8,0,1.4-0.6,1.4-1.4c0,0,0,0,0,0l0.1-7.3C18,78.4,17.4,77.8,16.6,77.8
		L16.6,77.8z M16.6,78.6c0.3,0,0.5,0.2,0.5,0.5c0,0,0,0,0,0L17,86.5c0,0.3-0.2,0.5-0.4,0.5c0,0,0,0,0,0c-0.3,0-0.5-0.2-0.5-0.5
		c0,0,0,0,0,0l0.1-7.3C16.1,78.9,16.3,78.6,16.6,78.6C16.6,78.6,16.6,78.6,16.6,78.6z"/>
	<path style="clip-path:url(#SVGID_00000001645583793444024390000009274918106850129584_);fill:#1A1A1A;" d="M21.2,76.9
		c-0.8,0-1.4,0.6-1.4,1.3l-0.1,9.2c0.1,0.8,0.7,1.3,1.5,1.2c0.7-0.1,1.2-0.6,1.2-1.2l0.1-9.2C22.6,77.5,22,76.9,21.2,76.9
		C21.2,76.9,21.2,76.9,21.2,76.9L21.2,76.9z M21.2,77.8c0.3,0,0.5,0.2,0.5,0.4c0,0,0,0,0,0l-0.1,9.2c0,0.3-0.3,0.4-0.5,0.4
		c-0.2,0-0.4-0.2-0.4-0.4l0.1-9.2C20.8,78,21,77.8,21.2,77.8C21.2,77.8,21.2,77.8,21.2,77.8L21.2,77.8z"/>
	<path style="clip-path:url(#SVGID_00000001645583793444024390000009274918106850129584_);fill:#1A1A1A;" d="M30.5,77.9
		c0.8,0,1.4,0.6,1.4,1.4l-0.1,7.3c-0.1,0.8-0.7,1.3-1.5,1.2c-0.7-0.1-1.2-0.6-1.2-1.2l0.1-7.3C29.1,78.5,29.8,77.9,30.5,77.9
		L30.5,77.9z M30.5,78.8c-0.2,0-0.5,0.2-0.5,0.4c0,0,0,0,0,0.1l0,7.3c0,0.3,0.2,0.5,0.4,0.5c0,0,0,0,0,0c0.3,0,0.5-0.2,0.5-0.5
		c0,0,0,0,0,0l0.1-7.3C31,79,30.8,78.8,30.5,78.8C30.5,78.8,30.5,78.8,30.5,78.8L30.5,78.8z"/>
	<path style="clip-path:url(#SVGID_00000001645583793444024390000009274918106850129584_);fill:#1A1A1A;" d="M25.9,76.9
		c0.7,0,1.4,0.6,1.4,1.4l-0.1,9.2c-0.1,0.8-0.7,1.3-1.5,1.2c-0.7-0.1-1.2-0.6-1.2-1.2l0.1-9.2C24.5,77.5,25.1,76.9,25.9,76.9
		L25.9,76.9z M25.9,77.8c-0.3,0-0.5,0.2-0.5,0.4c0,0,0,0,0,0l-0.1,9.2c0,0.3,0.2,0.5,0.5,0.5s0.5-0.2,0.5-0.5l0,0l0.1-9.2
		C26.4,78,26.2,77.8,25.9,77.8C25.9,77.8,25.9,77.8,25.9,77.8L25.9,77.8z"/>
	<path style="clip-path:url(#SVGID_00000001645583793444024390000009274918106850129584_);fill:#1A1A1A;" d="M70.9,163.3
		c-0.1,3.4,2.5,6.3,5.9,6.4c3.4,0.1,6.3-2.5,6.4-5.9c0-0.2,0-0.3,0-0.5v-9.2c-0.1-3.4-3-6.1-6.4-5.9c-3.2,0.1-5.8,2.7-5.9,5.9V163.3
		z"/>
	<path style="clip-path:url(#SVGID_00000001645583793444024390000009274918106850129584_);fill:#1A1A1A;" d="M127.2,163.3
		c-0.1,3.4,2.5,6.3,5.9,6.4s6.3-2.5,6.4-5.9c0-0.2,0-0.3,0-0.5v-9.2c-0.1-3.4-3-6.1-6.4-5.9c-3.2,0.1-5.8,2.7-5.9,5.9L127.2,163.3z"
		/>
	<path style="clip-path:url(#SVGID_00000001645583793444024390000009274918106850129584_);fill:#1A1A1A;" d="M71.2,156.7l-0.2,2.9
		l-1.7,32.3h71.7l-1.9-35.2H71.2z M77.1,162.9h56.2l1.2,22.8H75.9L77.1,162.9z"/>
	<path style="clip-path:url(#SVGID_00000001645583793444024390000009274918106850129584_);fill:#CCE2E9;" d="M74,163.3v-9.2
		c0-1.7,1.4-3.1,3.1-3.1c1.7,0,3.1,1.4,3.1,3.1c0,0,0,0,0,0v9.2c0,1.7-1.4,3.1-3.1,3.1C75.4,166.4,74,165,74,163.3
		C74,163.3,74,163.3,74,163.3z"/>
	<path style="clip-path:url(#SVGID_00000001645583793444024390000009274918106850129584_);fill:#1A1A1A;" d="M73.5,163.3
		c0.2,1.9,1.9,3.3,3.9,3.1c1.6-0.2,2.9-1.5,3.1-3.1v-9.2c-0.2-1.9-1.9-3.3-3.9-3.1c-1.6,0.2-2.9,1.5-3.1,3.1V163.3z M74.4,163.3
		v-9.2c0-1.5,1.2-2.6,2.6-2.6c1.5,0,2.6,1.2,2.6,2.6v9.2c0,1.5-1.2,2.6-2.6,2.6C75.6,166,74.4,164.8,74.4,163.3L74.4,163.3z"/>
	<path style="clip-path:url(#SVGID_00000001645583793444024390000009274918106850129584_);fill:#CCE2E9;" d="M130.3,163.3v-9.2
		c0.1-1.7,1.6-3,3.3-2.9c1.6,0.1,2.8,1.3,2.9,2.9v9.2c0.1,1.7-1.2,3.2-2.9,3.3c-1.7,0.1-3.2-1.2-3.3-2.9
		C130.3,163.6,130.3,163.4,130.3,163.3z"/>
	<path style="clip-path:url(#SVGID_00000001645583793444024390000009274918106850129584_);fill:#1A1A1A;" d="M129.9,163.3
		c-0.2,1.9,1.2,3.7,3.1,3.9s3.7-1.2,3.9-3.1c0-0.2,0-0.5,0-0.7v-9.2c-0.2-1.9-1.9-3.3-3.9-3.1c-1.6,0.2-2.9,1.5-3.1,3.1V163.3z
		 M130.8,163.3v-9.2c0.1-1.4,1.3-2.6,2.8-2.5c1.3,0.1,2.4,1.1,2.5,2.5v9.2c0.1,1.4-1,2.7-2.5,2.8c-1.4,0.1-2.7-1-2.8-2.5
		C130.8,163.5,130.8,163.4,130.8,163.3z"/>
	<path style="clip-path:url(#SVGID_00000001645583793444024390000009274918106850129584_);fill:#FFFFFF;" d="M74.2,159.8l-1.5,29
		h65.1l-1.5-29H74.2z"/>
	<path style="clip-path:url(#SVGID_00000001645583793444024390000009274918106850129584_);fill:#CCE2E9;" d="M74.2,159.8l-1.5,29
		h8.8l1.5-29H74.2z"/>
	<path style="clip-path:url(#SVGID_00000001645583793444024390000009274918106850129584_);fill:#CCE2E9;" d="M122.2,159.8l1.4,29
		h14.2l-1.5-29H122.2z"/>
	<path style="clip-path:url(#SVGID_00000001645583793444024390000009274918106850129584_);fill:#CCE2E9;" d="M73.4,175.1l-0.3,5.1
		h64.2l-0.3-5.1H73.4z"/>
	<path style="clip-path:url(#SVGID_00000001645583793444024390000009274918106850129584_);fill:#CCE2E9;" d="M73.4,175.1l-0.3,5.1
		h8.8l0.3-5.1H73.4z"/>
	<path style="clip-path:url(#SVGID_00000001645583793444024390000009274918106850129584_);fill:#CCE2E9;" d="M122.9,175.1l0.2,5.1
		h14.2l-0.3-5.1H122.9z"/>
	<path style="clip-path:url(#SVGID_00000001645583793444024390000009274918106850129584_);fill:#1A1A1A;" d="M73.8,159.4v0.4
		l-1.6,29.5h66.1l-1.6-29.9H73.8z M74.6,160.2h61.2l1.5,28.1H73.1L74.6,160.2z"/>
	<path style="clip-path:url(#SVGID_00000001645583793444024390000009274918106850129584_);fill:#FFFFFF;" d="M77.1,162.1
		c0.7-0.1,1.3,0.4,1.3,1.1c0.1,0.7-0.4,1.3-1.1,1.3c-0.1,0-0.1,0-0.2,0c-0.3,0-0.6-0.1-0.9-0.4c-0.2-0.2-0.3-0.5-0.3-0.9
		C75.8,162.6,76.4,162.1,77.1,162.1L77.1,162.1z"/>
	<path style="clip-path:url(#SVGID_00000001645583793444024390000009274918106850129584_);fill:#1A1A1A;" d="M75.4,163.3
		c0,0.9,0.7,1.7,1.7,1.7s1.7-0.7,1.7-1.7c0-0.9-0.7-1.7-1.7-1.7l0,0C76.1,161.7,75.4,162.4,75.4,163.3z M76.3,163.3
		c0-0.4,0.3-0.8,0.8-0.8s0.8,0.3,0.8,0.8s-0.3,0.8-0.8,0.8l0,0C76.6,164.1,76.3,163.8,76.3,163.3C76.3,163.3,76.3,163.3,76.3,163.3z
		"/>
	<path style="clip-path:url(#SVGID_00000001645583793444024390000009274918106850129584_);fill:#FFFFFF;" d="M133.4,162.1
		c0.7,0,1.2,0.5,1.2,1.2s-0.5,1.2-1.2,1.2s-1.2-0.5-1.2-1.2C132.2,162.6,132.7,162.1,133.4,162.1z"/>
	<path style="clip-path:url(#SVGID_00000001645583793444024390000009274918106850129584_);fill:#1A1A1A;" d="M131.7,163.3
		c0,0.9,0.7,1.7,1.7,1.7s1.7-0.7,1.7-1.7s-0.7-1.7-1.7-1.7c0,0,0,0,0,0C132.5,161.7,131.7,162.4,131.7,163.3z M132.6,163.3
		c0-0.4,0.3-0.8,0.8-0.8c0.4,0,0.8,0.3,0.8,0.8c0,0.4-0.3,0.8-0.8,0.8c0,0,0,0,0,0C132.9,164.1,132.6,163.8,132.6,163.3z"/>
	<path style="clip-path:url(#SVGID_00000001645583793444024390000009274918106850129584_);fill:#1A1A1A;" d="M73,174.6v0.4l-0.3,5.5
		h65.1l-0.3-6L73,174.6z M73.8,175.5h62.9l0.2,4.2H73.6L73.8,175.5z"/>
	
		<rect x="95.6" y="164.2" style="clip-path:url(#SVGID_00000001645583793444024390000009274918106850129584_);fill:#CCE2E9;" width="19.3" height="2.5"/>
	<path style="clip-path:url(#SVGID_00000001645583793444024390000009274918106850129584_);fill:#1A1A1A;" d="M150.6,0h29h16v16
		c0,7,0,14,0,21c-10.2,12.4-28.6,14.2-41,4S140.4,12.4,150.6,0z"/>
	<g style="clip-path:url(#SVGID_00000001645583793444024390000009274918106850129584_);enable-background:new    ;">
		<text transform="matrix(1 0 0 1 159.71 31.75)" class="st17 st2 st18">16</text>
	</g>
</g>
</svg>
