<?xml version="1.0" encoding="utf-8"?>
<!-- Generator: Adobe Illustrator 26.0.1, SVG Export Plug-In . SVG Version: 6.00 Build 0)  -->
<svg version="1.1" id="Слой_1" xmlns="http://www.w3.org/2000/svg" xmlns:xlink="http://www.w3.org/1999/xlink" x="0px" y="0px"
	 viewBox="0 0 195.6 280.6" style="enable-background:new 0 0 195.6 280.6;" xml:space="preserve">
<style type="text/css">
	.st0{clip-path:url(#SVGID_00000151531124774857916120000008343909012457935770_);fill:#EB5A53;}
	.st1{clip-path:url(#SVGID_00000052801290337004379260000010482526171991286915_);fill:#FFFFFF;}
	.st2{clip-path:url(#SVGID_00000116955479181602232350000013768274682928187286_);fill:#EB5A53;}
	.st3{clip-path:url(#SVGID_00000095300676157849830010000004803213358610965385_);fill:#1A1A1A;}
	.st4{clip-path:url(#SVGID_00000094611046836544002120000014206181434266426501_);fill:#EB5A53;}
	.st5{clip-path:url(#SVGID_00000011014490214457255100000012723892835385994660_);fill:#1A1A1A;}
	.st6{clip-path:url(#SVGID_00000163782040418733140730000007297449916472978861_);fill:#EB5A53;}
	.st7{clip-path:url(#SVGID_00000038372632176762621920000016971035454357510793_);fill:#1A1A1A;}
	.st8{clip-path:url(#SVGID_00000088821798597380582150000013516887610034401425_);fill:#EB5A53;}
	.st9{clip-path:url(#SVGID_00000036218971817972990210000008904441945386994340_);fill:#1A1A1A;}
	.st10{clip-path:url(#SVGID_00000012461753354196749700000003770362310534729117_);fill:#1A1A1A;}
	.st11{clip-path:url(#SVGID_00000000220237275063793390000005737441172698760336_);fill:#EB5A53;}
	.st12{clip-path:url(#SVGID_00000119076246269920671300000005668241578241308845_);fill:#FFFFFF;}
	.st13{clip-path:url(#SVGID_00000028291036204989709510000005984810982566050468_);fill:#FFFFFF;}
	.st14{clip-path:url(#SVGID_00000096016888473424892780000009522404025377747335_);fill:#FFFFFF;}
	.st15{clip-path:url(#SVGID_00000178174237020838508030000008831237854782640826_);fill:#FFFFFF;}
	.st16{clip-path:url(#SVGID_00000162319645052838875760000000525891026176793475_);fill:#1A1A1A;}
	.st17{clip-path:url(#SVGID_00000052818238529080439930000015478760539403532947_);fill:#1A1A1A;}
	.st18{clip-path:url(#SVGID_00000011719554357295006810000008039301627994062783_);fill:#FFFFFF;}
	.st19{clip-path:url(#SVGID_00000077287312196256950760000010742276757454398115_);fill:#1A1A1A;}
	.st20{clip-path:url(#SVGID_00000178890641688064448870000012482973027869549989_);fill:#FFFFFF;}
	.st21{clip-path:url(#SVGID_00000034077285189484720230000000762325454193052852_);fill:#AF1739;}
	.st22{clip-path:url(#SVGID_00000131340163137708477610000000063866701657584784_);fill:#EB5775;}
	.st23{clip-path:url(#SVGID_00000034772702921254062030000003056407408670281100_);fill:#FFFFFF;}
	.st24{clip-path:url(#SVGID_00000160910918365151551180000011712048138816345014_);fill:#BADBE9;}
	.st25{clip-path:url(#SVGID_00000000930050982091986480000004102802597834597281_);fill:#BADBE9;}
	.st26{clip-path:url(#SVGID_00000164492431252783035070000017608773327951518370_);fill:#8BB0CC;}
	.st27{clip-path:url(#SVGID_00000155860123870501236480000013621949228271416458_);fill:#1A1A1A;}
	.st28{clip-path:url(#SVGID_00000137130674060491337000000011946468955795624617_);fill:#1A1A1A;}
	.st29{clip-path:url(#SVGID_00000168807753070294855690000005608070097670578608_);fill:#F293A2;}
	.st30{clip-path:url(#SVGID_00000078022712498544931500000000132583915223726729_);fill:#FFFFFF;}
	.st31{clip-path:url(#SVGID_00000124119851489377691830000012474675498440856730_);fill:#1A1A1A;}
	.st32{enable-background:new    ;}
	.st33{fill:#EB5A53;}
	.st34{fill:#FFFFFF;}
</style>
<g>
	<g>
		<defs>
			<rect id="SVGID_1_" width="195.6" height="280.6"/>
		</defs>
		<clipPath id="SVGID_00000029046573363946064360000016395790871135604904_">
			<use xlink:href="#SVGID_1_"  style="overflow:visible;"/>
		</clipPath>
		
			<rect x="-14" y="-18.7" style="clip-path:url(#SVGID_00000029046573363946064360000016395790871135604904_);fill:#EB5A53;" width="228.4" height="310.4"/>
	</g>
	<g>
		<defs>
			<rect id="SVGID_00000091699974980867677390000017650733582768405889_" width="195.6" height="280.6"/>
		</defs>
		<clipPath id="SVGID_00000156573892509308771680000011348606578672263327_">
			<use xlink:href="#SVGID_00000091699974980867677390000017650733582768405889_"  style="overflow:visible;"/>
		</clipPath>
		<path style="clip-path:url(#SVGID_00000156573892509308771680000011348606578672263327_);fill:#FFFFFF;" d="M110.2,81.2
			c-2.3,0-5.5-0.9-8-5c-1-1.8-1.8-3.7-2.3-5.7l-0.2-0.9c-0.6,0-1.3,0-1.9,0s-1.3,0-1.9,0l-0.2,0.9c-0.5,2-1.3,3.9-2.3,5.7
			c-2.5,4.1-5.7,5-8,5s-5.5-0.9-8-5c-1-1.8-1.8-3.7-2.2-5.7c-0.7-2.6-1.2-5.3-1.5-8.1c-6.4-4.2-11.6-9.9-15-16.7
			C58,45.9,57.3,46,56.6,46c-1.1,0-2.2-0.2-3.2-0.7c-2.1-0.9-4.7-2.9-5.4-7.7c-0.3-2-0.3-4.1,0-6.1c0.5-4.1,1.6-8.2,3.2-12.1
			c1-2.6,2.5-4.9,4.5-6.9c7.1-23.4,31.8-36.6,55.1-29.5c13.8,4.2,24.7,14.8,29.2,28.5c2.9,1.9,5,5.1,6.4,9.5c1.2,4,1.9,8.2,2,12.3
			c0.1,2-0.1,4.1-0.6,6.1c-1.2,4.7-4,6.4-6.2,7.1c-0.8,0.2-1.6,0.4-2.4,0.4l0,0c-0.8,0-1.6-0.1-2.4-0.3c-3.5,6.4-8.5,11.8-14.6,15.7
			c-0.3,2.7-0.8,5.4-1.5,8.1c-0.5,2-1.3,3.9-2.3,5.7C115.7,80.3,112.4,81.2,110.2,81.2z"/>
	</g>
	<g>
		<defs>
			<rect id="SVGID_00000147211993332584342980000009506149070890994106_" width="195.6" height="280.6"/>
		</defs>
		<clipPath id="SVGID_00000127024123844376302070000004119708927000501912_">
			<use xlink:href="#SVGID_00000147211993332584342980000009506149070890994106_"  style="overflow:visible;"/>
		</clipPath>
		<path style="clip-path:url(#SVGID_00000127024123844376302070000004119708927000501912_);fill:#EB5A53;" d="M105.2,51.7
			c0-6.6,2.9-7.9,4.9-7.9s4.9,1.3,4.9,7.9s-2.2,16-4.9,16S105.2,58.3,105.2,51.7z"/>
	</g>
	<g>
		<defs>
			<rect id="SVGID_00000038401719490635788650000011624765307740653744_" width="195.6" height="280.6"/>
		</defs>
		<clipPath id="SVGID_00000052813786444163106370000011912391620589794990_">
			<use xlink:href="#SVGID_00000038401719490635788650000011624765307740653744_"  style="overflow:visible;"/>
		</clipPath>
		<path style="clip-path:url(#SVGID_00000052813786444163106370000011912391620589794990_);fill:#1A1A1A;" d="M110.2,42.4
			c-1.6,0-3.2,0.7-4.3,2c-1.3,1.5-2,3.8-2,7.3c0,3.7,0.5,7.3,1.5,10.8c0.4,1.5,1,2.9,1.7,4.3c0.7,1.2,1.6,2.2,3.1,2.2
			s2.4-1.1,3.1-2.2c0.8-1.4,1.3-2.8,1.7-4.3c1-3.5,1.5-7.2,1.5-10.8c0-3.5-0.8-5.8-2-7.3C113.4,43.1,111.9,42.4,110.2,42.4
			L110.2,42.4z M110.2,45.2c0.8,0,1.6,0.3,2.2,1c0.7,0.8,1.4,2.5,1.4,5.5c0,3.4-0.5,6.8-1.4,10.1c-0.3,1.3-0.8,2.5-1.4,3.6
			c-0.2,0.3-0.4,0.6-0.7,0.9c-0.3-0.2-0.5-0.5-0.7-0.9c-0.6-1.1-1.1-2.4-1.4-3.6c-0.9-3.3-1.4-6.7-1.4-10.1c0-3.1,0.7-4.7,1.4-5.5
			C108.5,45.5,109.3,45.1,110.2,45.2L110.2,45.2z"/>
	</g>
	<g>
		<defs>
			<rect id="SVGID_00000094608447467970264460000005821278258507245480_" width="195.6" height="280.6"/>
		</defs>
		<clipPath id="SVGID_00000168077355596139581940000007648198602924725688_">
			<use xlink:href="#SVGID_00000094608447467970264460000005821278258507245480_"  style="overflow:visible;"/>
		</clipPath>
		<path style="clip-path:url(#SVGID_00000168077355596139581940000007648198602924725688_);fill:#EB5A53;" d="M80.4,51.7
			c0-6.6,2.9-7.9,4.9-7.9s4.9,1.3,4.9,7.9s-2.2,16-4.9,16S80.4,58.3,80.4,51.7z"/>
	</g>
	<g>
		<defs>
			<rect id="SVGID_00000103947981089339009770000004968673425244691612_" width="195.6" height="280.6"/>
		</defs>
		<clipPath id="SVGID_00000155834916388214230050000000453753421939479682_">
			<use xlink:href="#SVGID_00000103947981089339009770000004968673425244691612_"  style="overflow:visible;"/>
		</clipPath>
		<path style="clip-path:url(#SVGID_00000155834916388214230050000000453753421939479682_);fill:#1A1A1A;" d="M85.3,42.4
			c-1.6,0-3.2,0.7-4.3,2c-1.3,1.5-2,3.8-2,7.3c0,3.7,0.5,7.3,1.5,10.8c0.4,1.5,1,2.9,1.7,4.3c0.7,1.2,1.6,2.2,3.1,2.2
			s2.4-1.1,3.1-2.2c0.8-1.4,1.3-2.8,1.7-4.3c1-3.5,1.4-7.2,1.5-10.9c0-3.5-0.8-5.8-2-7.3C88.5,43.1,87,42.4,85.3,42.4L85.3,42.4z
			 M85.3,45.2c0.8,0,1.6,0.3,2.2,1c0.7,0.8,1.4,2.5,1.4,5.5c0,3.4-0.5,6.8-1.4,10.1c-0.3,1.3-0.8,2.5-1.4,3.6
			c-0.2,0.3-0.4,0.6-0.7,0.9c-0.3-0.2-0.5-0.5-0.7-0.9c-0.6-1.1-1.1-2.4-1.4-3.6c-0.9-3.3-1.4-6.7-1.4-10.1c0-3.1,0.7-4.7,1.4-5.5
			C83.6,45.5,84.4,45.1,85.3,45.2L85.3,45.2z"/>
	</g>
	<g>
		<defs>
			<rect id="SVGID_00000170987733319850008850000007636905168632909474_" width="195.6" height="280.6"/>
		</defs>
		<clipPath id="SVGID_00000131360702975142193740000014088709973735481264_">
			<use xlink:href="#SVGID_00000170987733319850008850000007636905168632909474_"  style="overflow:visible;"/>
		</clipPath>
		<path style="clip-path:url(#SVGID_00000131360702975142193740000014088709973735481264_);fill:#EB5A53;" d="M130,18.9
			c-1.9-6.3,0.5-8.4,2.4-9s5.1-0.2,7,6.2s2.5,15.9-0.1,16.7C136.7,33.6,131.9,25.2,130,18.9L130,18.9z"/>
	</g>
	<g>
		<defs>
			<rect id="SVGID_00000116233264998894382030000010475429554937568149_" width="195.6" height="280.6"/>
		</defs>
		<clipPath id="SVGID_00000062895053374121871410000009698460528578771647_">
			<use xlink:href="#SVGID_00000116233264998894382030000010475429554937568149_"  style="overflow:visible;"/>
		</clipPath>
		<path style="clip-path:url(#SVGID_00000062895053374121871410000009698460528578771647_);fill:#1A1A1A;" d="M132,9.3
			c-1.6,0.5-2.9,1.6-3.5,3.1c-0.8,1.8-0.8,4.2,0.2,7.6c1.1,3.5,2.6,6.9,4.6,10c0.8,1.3,1.8,2.5,2.9,3.6c1,0.9,2.2,1.7,3.6,1.2
			s2-1.7,2.3-3c0.3-1.5,0.5-3,0.4-4.6c-0.1-3.7-0.7-7.3-1.7-10.8c-1-3.4-2.4-5.4-4.1-6.4C135.3,9.1,133.6,8.9,132,9.3z M132.8,11.9
			c0.8-0.3,1.7-0.1,2.4,0.3c0.9,0.6,2,1.9,2.9,4.9c1,3.3,1.5,6.7,1.6,10.1c0.1,1.3-0.1,2.6-0.3,3.9c-0.1,0.4-0.2,0.7-0.4,1.1
			c-0.4-0.1-0.7-0.4-1-0.6c-0.9-0.9-1.7-1.9-2.4-3c-1.8-2.9-3.2-6-4.3-9.3c-0.9-3-0.7-4.7-0.3-5.7C131.3,12.8,131.9,12.2,132.8,11.9
			L132.8,11.9z"/>
	</g>
	<g>
		<defs>
			<rect id="SVGID_00000041284926918109557330000008545576400488134809_" width="195.6" height="280.6"/>
		</defs>
		<clipPath id="SVGID_00000065060870475581237690000009257033200824250804_">
			<use xlink:href="#SVGID_00000041284926918109557330000008545576400488134809_"  style="overflow:visible;"/>
		</clipPath>
		<path style="clip-path:url(#SVGID_00000065060870475581237690000009257033200824250804_);fill:#EB5A53;" d="M57.4,15.8
			c2.5-6.1,5.7-6.2,7.6-5.4c1.9,0.8,4,3.1,1.5,9.2s-8.2,13.9-10.7,12.9S54.8,21.9,57.4,15.8z"/>
	</g>
	<g>
		<defs>
			<rect id="SVGID_00000142898237074440770740000004721744456675490704_" width="195.6" height="280.6"/>
		</defs>
		<clipPath id="SVGID_00000165214647876034569890000009270372619575552952_">
			<use xlink:href="#SVGID_00000142898237074440770740000004721744456675490704_"  style="overflow:visible;"/>
		</clipPath>
		<path style="clip-path:url(#SVGID_00000165214647876034569890000009270372619575552952_);fill:#1A1A1A;" d="M65.5,9.1
			c-1.5-0.6-3.2-0.6-4.7,0.2c-1.7,0.9-3.3,2.8-4.7,6c-1.4,3.4-2.3,7-2.8,10.6c-0.2,1.5-0.2,3.1-0.1,4.6c0.2,1.3,0.6,2.7,2,3.2
			s2.7-0.1,3.7-0.9c1.2-1,2.3-2.1,3.2-3.3c2.2-2.9,4.1-6.1,5.5-9.5c1.3-3.2,1.5-5.7,0.9-7.5C68.2,11,67,9.7,65.5,9.1L65.5,9.1z
			 M64.5,11.6c0.8,0.3,1.4,0.9,1.6,1.8c0.3,1,0.3,2.8-0.8,5.7c-1.3,3.1-3.1,6.1-5.2,8.8c-0.8,1-1.7,2-2.7,2.8
			c-0.3,0.2-0.6,0.4-1,0.5c-0.2-0.3-0.4-0.7-0.4-1.1c-0.1-1.3-0.1-2.6,0.1-3.9c0.4-3.4,1.3-6.7,2.6-9.9c1.2-2.9,2.5-4.1,3.4-4.6
			C62.8,11.3,63.7,11.3,64.5,11.6L64.5,11.6z"/>
	</g>
	<g>
		<defs>
			<rect id="SVGID_00000179637197613949218070000005796622128863777695_" width="195.6" height="280.6"/>
		</defs>
		<clipPath id="SVGID_00000114038251063229927980000002302454597555256468_">
			<use xlink:href="#SVGID_00000179637197613949218070000005796622128863777695_"  style="overflow:visible;"/>
		</clipPath>
		<path style="clip-path:url(#SVGID_00000114038251063229927980000002302454597555256468_);fill:#1A1A1A;" d="M97.7-19.5
			C76.5-19.5,59.2-2.2,59.2,19s17.2,38.5,38.5,38.5s38.5-17.2,38.5-38.5l0,0C136.2-2.3,119-19.5,97.7-19.5z M97.7-15.1
			c18.8,0,34.1,15.3,34.1,34.1s-15.3,34.1-34.1,34.1S63.6,37.8,63.6,19l0,0C63.6,0.2,78.9-15.1,97.7-15.1L97.7-15.1z"/>
	</g>
	<g>
		<defs>
			<rect id="SVGID_00000046321802534822079600000012429199978235895431_" width="195.6" height="280.6"/>
		</defs>
		<clipPath id="SVGID_00000147937486765846715500000009565431426880931749_">
			<use xlink:href="#SVGID_00000046321802534822079600000012429199978235895431_"  style="overflow:visible;"/>
		</clipPath>
		<path style="clip-path:url(#SVGID_00000147937486765846715500000009565431426880931749_);fill:#EB5A53;" d="M133.5,18.2
			c0,1.5-0.2,19.1-10.4,24c-7.3,3.5-11.3-3.3-26.1-3.2c-13.8,0.2-17.5,6.4-24.3,3.1c-10.2-4.8-10.4-22.5-10.4-24
			c0-2.1,0.2-18.5,10.4-24c6-3.2,9.1,0.8,24,0.9c16.3,0.2,19.8-4.5,26.4-0.9C133.3-0.2,133.5,16.1,133.5,18.2z"/>
	</g>
	<g>
		<defs>
			<rect id="SVGID_00000124119909267856461870000007540158008160791938_" width="195.6" height="280.6"/>
		</defs>
		<clipPath id="SVGID_00000006691172512657838910000008465500873578878112_">
			<use xlink:href="#SVGID_00000124119909267856461870000007540158008160791938_"  style="overflow:visible;"/>
		</clipPath>
		<path style="clip-path:url(#SVGID_00000006691172512657838910000008465500873578878112_);fill:#FFFFFF;" d="M98.1-16.6
			c-15.6,0-29.4,9.8-34.6,24.5h69.2C127.5-6.8,113.7-16.6,98.1-16.6z"/>
	</g>
	<g>
		<defs>
			<rect id="SVGID_00000043429207990390603430000010775557601580933293_" width="195.6" height="280.6"/>
		</defs>
		<clipPath id="SVGID_00000029745992908147465430000007544042065681088678_">
			<use xlink:href="#SVGID_00000043429207990390603430000010775557601580933293_"  style="overflow:visible;"/>
		</clipPath>
		<path style="clip-path:url(#SVGID_00000029745992908147465430000007544042065681088678_);fill:#FFFFFF;" d="M96.2-15.8
			c-14.8,0-27.9,9.6-32.3,23.7h64.7C124-6.2,111-15.8,96.2-15.8z"/>
	</g>
	<g>
		<defs>
			<rect id="SVGID_00000125571909487193826160000012721410587924871049_" width="195.6" height="280.6"/>
		</defs>
		<clipPath id="SVGID_00000011007913633678819640000004105982184003940261_">
			<use xlink:href="#SVGID_00000125571909487193826160000012721410587924871049_"  style="overflow:visible;"/>
		</clipPath>
		<path style="clip-path:url(#SVGID_00000011007913633678819640000004105982184003940261_);fill:#FFFFFF;" d="M63.2,31.6
			C67,39,72.8,45.1,80,49.2c5.5,3.3,11.8,5.1,18.2,5.2c3.4,0,6.9-0.4,10.2-1.4c6.6-2,12.4-5.9,16.8-11.2c2.6-3,4.7-6.4,6.2-10.1
			L63.2,31.6z"/>
	</g>
	<g>
		<defs>
			<rect id="SVGID_00000158011729737501857420000014681131934590346129_" width="195.6" height="280.6"/>
		</defs>
		<clipPath id="SVGID_00000137094417399401072050000004632434689378957699_">
			<use xlink:href="#SVGID_00000158011729737501857420000014681131934590346129_"  style="overflow:visible;"/>
		</clipPath>
		<path style="clip-path:url(#SVGID_00000137094417399401072050000004632434689378957699_);fill:#FFFFFF;" d="M65.1,31.7
			c8.1,17.7,29,25.5,46.7,17.4c7.7-3.5,13.9-9.7,17.4-17.4C129.2,31.7,65.1,31.7,65.1,31.7z"/>
	</g>
	<g>
		<defs>
			<rect id="SVGID_00000069359769943491692520000012472255639658412179_" width="195.6" height="280.6"/>
		</defs>
		<clipPath id="SVGID_00000168081377156963025150000009663224831254585985_">
			<use xlink:href="#SVGID_00000069359769943491692520000012472255639658412179_"  style="overflow:visible;"/>
		</clipPath>
		<path style="clip-path:url(#SVGID_00000168081377156963025150000009663224831254585985_);fill:#1A1A1A;" d="M97.7-17.8
			C77.4-17.8,60.8-1.3,60.8,19c0,20.4,16.5,36.9,36.9,36.9s36.9-16.5,36.9-36.9l0,0C134.6-1.3,118.1-17.8,97.7-17.8z M97.7-16.8
			c19.8,0,35.8,16,35.8,35.7s-16,35.8-35.7,35.8C78,54.7,62,38.7,62,19v-0.1C62-0.7,78-16.7,97.7-16.8z"/>
	</g>
	<g>
		<defs>
			<rect id="SVGID_00000178903678141312960820000015720894584689725349_" width="195.6" height="280.6"/>
		</defs>
		<clipPath id="SVGID_00000159444172473127812580000015251293794066732430_">
			<use xlink:href="#SVGID_00000178903678141312960820000015720894584689725349_"  style="overflow:visible;"/>
		</clipPath>
		<path style="clip-path:url(#SVGID_00000159444172473127812580000015251293794066732430_);fill:#1A1A1A;" d="M109.4,5.9
			c3.1,0,5.6,2.5,5.7,5.6l0,0v2.8c0,3.1-2.5,5.7-5.7,5.7c-3.1,0-5.7-2.5-5.7-5.7l0,0v-2.8C103.7,8.4,106.3,5.9,109.4,5.9L109.4,5.9z
			"/>
	</g>
	<g>
		<defs>
			<rect id="SVGID_00000022521234012341139800000015900574064809417385_" width="195.6" height="280.6"/>
		</defs>
		<clipPath id="SVGID_00000142873960594562729750000008291778104908449441_">
			<use xlink:href="#SVGID_00000022521234012341139800000015900574064809417385_"  style="overflow:visible;"/>
		</clipPath>
		<path style="clip-path:url(#SVGID_00000142873960594562729750000008291778104908449441_);fill:#FFFFFF;" d="M106.1,9.9
			c0-1,0.8-1.8,1.8-1.8s1.8,0.8,1.8,1.8s-0.8,1.8-1.8,1.8c-0.5,0-0.9-0.2-1.3-0.5C106.3,10.9,106.1,10.4,106.1,9.9z"/>
	</g>
	<g>
		<defs>
			<rect id="SVGID_00000055688227937840456540000017655941008942001037_" width="195.6" height="280.6"/>
		</defs>
		<clipPath id="SVGID_00000095328151543591744390000011737643489011541633_">
			<use xlink:href="#SVGID_00000055688227937840456540000017655941008942001037_"  style="overflow:visible;"/>
		</clipPath>
		<path style="clip-path:url(#SVGID_00000095328151543591744390000011737643489011541633_);fill:#1A1A1A;" d="M86.1,5.9
			c3.1,0,5.6,2.5,5.7,5.6l0,0v2.8c0.1,3.1-2.3,5.8-5.4,5.9s-5.8-2.3-5.9-5.4c0-0.2,0-0.3,0-0.5v-2.8C80.4,8.4,82.9,5.9,86.1,5.9
			C86,5.9,86,5.9,86.1,5.9z"/>
	</g>
	<g>
		<defs>
			<rect id="SVGID_00000036225707012458080630000003365811843074585989_" width="195.6" height="280.6"/>
		</defs>
		<clipPath id="SVGID_00000094596665200852429450000002279272309089833895_">
			<use xlink:href="#SVGID_00000036225707012458080630000003365811843074585989_"  style="overflow:visible;"/>
		</clipPath>
		<path style="clip-path:url(#SVGID_00000094596665200852429450000002279272309089833895_);fill:#FFFFFF;" d="M82.8,9.9
			c-0.1-1,0.7-1.9,1.7-2s1.9,0.7,2,1.7c0,0.1,0,0.2,0,0.3c0,1-0.8,1.8-1.8,1.8l0,0C83.6,11.8,82.8,10.9,82.8,9.9z"/>
	</g>
	<g>
		<defs>
			<rect id="SVGID_00000089545938823020603270000008418424641731262636_" width="195.6" height="280.6"/>
		</defs>
		<clipPath id="SVGID_00000066475037618721942540000016172612176957577115_">
			<use xlink:href="#SVGID_00000089545938823020603270000008418424641731262636_"  style="overflow:visible;"/>
		</clipPath>
		<path style="clip-path:url(#SVGID_00000066475037618721942540000016172612176957577115_);fill:#AF1739;" d="M91.7,21.7
			c-0.7,0-1.3,0.6-1.3,1.2c0,0,0,0,0,0.1v1.4c0,4,3.3,7.3,7.3,7.3s7.3-3.3,7.3-7.3l0,0V23c0-0.7-0.5-1.3-1.2-1.3l0,0H91.7z"/>
	</g>
	<g>
		<defs>
			<rect id="SVGID_00000027606472566150369010000007673173824657016238_" width="195.6" height="280.6"/>
		</defs>
		<clipPath id="SVGID_00000029730170018284509360000015710533571145298839_">
			<use xlink:href="#SVGID_00000027606472566150369010000007673173824657016238_"  style="overflow:visible;"/>
		</clipPath>
		<path style="clip-path:url(#SVGID_00000029730170018284509360000015710533571145298839_);fill:#EB5775;" d="M97.7,26.7
			c-2.1,0-4.1,0.9-5.5,2.5c2.6,3,7.2,3.4,10.3,0.7c0.3-0.2,0.5-0.5,0.7-0.7C101.9,27.6,99.9,26.7,97.7,26.7L97.7,26.7z"/>
	</g>
	<g>
		<defs>
			<rect id="SVGID_00000012439128487197769090000002788807894152534712_" width="195.6" height="280.6"/>
		</defs>
		<clipPath id="SVGID_00000004511536391525682430000008776213137555000974_">
			<use xlink:href="#SVGID_00000012439128487197769090000002788807894152534712_"  style="overflow:visible;"/>
		</clipPath>
		<path style="clip-path:url(#SVGID_00000004511536391525682430000008776213137555000974_);fill:#FFFFFF;" d="M91.7,21.7
			c-0.7,0-1.3,0.6-1.3,1.2c0,0,0,0,0,0.1v1.3c2.3,1.1,4.8,1.6,7.3,1.7c2.5,0,5-0.6,7.3-1.7V23c0-0.7-0.5-1.3-1.2-1.3l0,0H91.7z"/>
	</g>
	<g>
		<defs>
			<rect id="SVGID_00000022543825750978985230000004528334316622942624_" width="195.6" height="280.6"/>
		</defs>
		<clipPath id="SVGID_00000125599473199646759680000008414950993570119557_">
			<use xlink:href="#SVGID_00000022543825750978985230000004528334316622942624_"  style="overflow:visible;"/>
		</clipPath>
		<path style="clip-path:url(#SVGID_00000125599473199646759680000008414950993570119557_);fill:#BADBE9;" d="M103.1,21.7v2
			c0,0.7-0.1,1.2-0.6,1.5c0.9-0.3,1.7-0.6,2.6-1V23c0-0.7-0.5-1.3-1.2-1.3l0,0H103.1z"/>
	</g>
	<g>
		<defs>
			<rect id="SVGID_00000168113356285985702860000018003053858400925830_" width="195.6" height="280.6"/>
		</defs>
		<clipPath id="SVGID_00000153675472588334609620000010367198963402757772_">
			<use xlink:href="#SVGID_00000168113356285985702860000018003053858400925830_"  style="overflow:visible;"/>
		</clipPath>
		<path style="clip-path:url(#SVGID_00000153675472588334609620000010367198963402757772_);fill:#BADBE9;" d="M91.7,21.7
			c-0.7,0-1.3,0.6-1.3,1.2c0,0,0,0,0,0.1v1.3c1.6,0.8,3.3,1.3,5,1.5c-0.8-0.2-1.1-1.1-1.1-2.1v-2H91.7z"/>
	</g>
	<g>
		<defs>
			<rect id="SVGID_00000127736397811107188590000017100642262177847443_" width="195.6" height="280.6"/>
		</defs>
		<clipPath id="SVGID_00000124133288314515648610000011438326141694237833_">
			<use xlink:href="#SVGID_00000127736397811107188590000017100642262177847443_"  style="overflow:visible;"/>
		</clipPath>
		<path style="clip-path:url(#SVGID_00000124133288314515648610000011438326141694237833_);fill:#8BB0CC;" d="M92.4,21.7v2
			c0,0.7,0.1,1.2,0.6,1.5c-0.9-0.3-1.7-0.6-2.5-1V23c0-0.7,0.5-1.3,1.2-1.3l0,0H92.4z"/>
	</g>
	<g>
		<defs>
			<rect id="SVGID_00000023245882463418532760000008247469344872475532_" width="195.6" height="280.6"/>
		</defs>
		<clipPath id="SVGID_00000094580056745407582760000002019934504583961731_">
			<use xlink:href="#SVGID_00000023245882463418532760000008247469344872475532_"  style="overflow:visible;"/>
		</clipPath>
		<path style="clip-path:url(#SVGID_00000094580056745407582760000002019934504583961731_);fill:#1A1A1A;" d="M91.7,21.1
			c-1,0-1.8,0.8-1.8,1.8l0,0v1.4c0,4.3,3.5,7.8,7.8,7.8s7.8-3.5,7.8-7.8V23c0-1-0.8-1.8-1.8-1.8L91.7,21.1z M103.7,22.2
			c0.4,0,0.7,0.3,0.7,0.7l0,0v1.4c0,3.7-3,6.7-6.7,6.7S91,28,91,24.3l0,0V23c0-0.4,0.3-0.7,0.7-0.7l0,0L103.7,22.2z"/>
	</g>
	<g>
		<defs>
			<rect id="SVGID_00000051384279279390273400000011213989486869563524_" width="195.6" height="280.6"/>
		</defs>
		<clipPath id="SVGID_00000085954874298107900320000017074547982566395071_">
			<use xlink:href="#SVGID_00000051384279279390273400000011213989486869563524_"  style="overflow:visible;"/>
		</clipPath>
		<path style="clip-path:url(#SVGID_00000085954874298107900320000017074547982566395071_);fill:#1A1A1A;" d="M105,23.9
			c-4.6,2.3-10,2.3-14.6,0l-0.2,0.5c4.8,2.3,10.3,2.3,15.1,0C105.2,24.4,105,23.9,105,23.9z"/>
	</g>
	<g>
		<defs>
			<rect id="SVGID_00000081642235976480471260000015122297645029711265_" width="195.6" height="280.6"/>
		</defs>
		<clipPath id="SVGID_00000134218696283797474540000007473657284045526920_">
			<use xlink:href="#SVGID_00000081642235976480471260000015122297645029711265_"  style="overflow:visible;"/>
		</clipPath>
		<path style="clip-path:url(#SVGID_00000134218696283797474540000007473657284045526920_);fill:#F293A2;" d="M98.5,28.6
			c0-0.2,0.1-0.5,0.4-0.6c0.3-0.2,0.5-0.3,0.8-0.2c0.7,0,1.2,0.4,1.2,0.9s-0.5,0.9-1.2,0.9c-0.3,0-0.6-0.1-0.8-0.2
			C98.7,29.1,98.5,28.9,98.5,28.6z"/>
	</g>
	<g>
		<defs>
			<rect id="SVGID_00000166677625597512670370000014329882884525433733_" width="195.6" height="280.6"/>
		</defs>
		<clipPath id="SVGID_00000167382398954724652210000015878145236053436074_">
			<use xlink:href="#SVGID_00000166677625597512670370000014329882884525433733_"  style="overflow:visible;"/>
		</clipPath>
		<path style="clip-path:url(#SVGID_00000167382398954724652210000015878145236053436074_);fill:#FFFFFF;" d="M12,38.1h171.6
			c2.2,0,4,1.8,4,4v226.8c0,2.2-1.8,4-4,4H12c-2.2,0-4-1.8-4-4V42C8,39.8,9.8,38.1,12,38.1z"/>
	</g>
	<g>
		<defs>
			<rect id="SVGID_00000113355397013225394750000009010478079618766751_" width="195.6" height="280.6"/>
		</defs>
		<clipPath id="SVGID_00000068648775538979714350000000003052618392682654_">
			<use xlink:href="#SVGID_00000113355397013225394750000009010478079618766751_"  style="overflow:visible;"/>
		</clipPath>
		<path style="clip-path:url(#SVGID_00000068648775538979714350000000003052618392682654_);fill:#1A1A1A;" d="M150.8,0h29h16v16
			c0,7,0,14,0,21c-10.2,12.4-28.6,14.2-41,4S140.6,12.4,150.8,0z"/>
	</g>
	<g>
		<defs>
			<rect id="SVGID_00000007428062206880973470000008088162796636315063_" width="195.6" height="280.6"/>
		</defs>
		<clipPath id="SVGID_00000114786722239935951820000007992001928227425191_">
			<use xlink:href="#SVGID_00000007428062206880973470000008088162796636315063_"  style="overflow:visible;"/>
		</clipPath>
	</g>
</g>
<g class="st32">
	<path class="st33" d="M37.6,50.7l4,26.9h-7.1l-0.4-4.8h-2.5l-0.4,4.8H24l3.6-26.9H37.6z M33.9,68c-0.4-3-0.7-6.8-1.1-11.3
		c-0.7,5.1-1.2,8.9-1.3,11.3H33.9z"/>
	<path class="st33" d="M54.8,50.7h7c2.2,0,3.9,0.2,5,0.5c1.1,0.3,2.1,1,2.7,2.1c0.7,1,1,2.7,1,5.1c0,1.6-0.2,2.7-0.7,3.3
		c-0.5,0.6-1.5,1.1-2.9,1.4c1.6,0.4,2.7,1,3.3,1.8c0.6,0.8,0.9,2.1,0.9,3.9v2.5c0,1.8-0.2,3.2-0.6,4s-1.1,1.5-2,1.8
		c-0.9,0.3-2.8,0.5-5.6,0.5h-8.1V50.7z M61.8,55.3v6c0.3,0,0.5,0,0.7,0c0.7,0,1.1-0.2,1.3-0.5c0.2-0.3,0.3-1.3,0.3-2.9
		c0-0.8-0.1-1.4-0.2-1.8c-0.2-0.3-0.4-0.6-0.6-0.6S62.5,55.3,61.8,55.3z M61.8,65.4V73c1,0,1.6-0.2,1.9-0.5c0.3-0.3,0.4-1,0.4-2
		v-2.5c0-1.2-0.1-1.8-0.4-2.1C63.5,65.6,62.8,65.5,61.8,65.4z"/>
	<path class="st33" d="M95.9,62.4h-7v-4.7c0-1.4-0.1-2.2-0.2-2.5c-0.1-0.3-0.5-0.5-1-0.5c-0.6,0-0.9,0.2-1.1,0.6
		c-0.2,0.4-0.2,1.3-0.2,2.7v12.5c0,1.3,0.1,2.2,0.2,2.6c0.2,0.4,0.5,0.6,1,0.6c0.5,0,0.9-0.2,1-0.6c0.2-0.4,0.2-1.3,0.2-2.8v-3.4h7
		v1c0,2.8-0.2,4.8-0.6,5.9c-0.4,1.2-1.3,2.2-2.6,3.1s-3,1.3-5,1.3c-2,0-3.7-0.4-5.1-1.1s-2.2-1.8-2.6-3.1c-0.4-1.3-0.6-3.3-0.6-5.9
		v-7.9c0-1.9,0.1-3.4,0.2-4.4c0.1-1,0.5-1.9,1.2-2.8c0.7-0.9,1.6-1.6,2.7-2.1c1.2-0.5,2.5-0.8,4-0.8c2.1,0,3.8,0.4,5.1,1.2
		c1.3,0.8,2.2,1.8,2.6,3c0.4,1.2,0.6,3,0.6,5.5V62.4z"/>
	<path class="st33" d="M120.7,62.4h-7v-4.7c0-1.4-0.1-2.2-0.2-2.5c-0.1-0.3-0.5-0.5-1-0.5c-0.6,0-0.9,0.2-1.1,0.6
		c-0.2,0.4-0.2,1.3-0.2,2.7v12.5c0,1.3,0.1,2.2,0.2,2.6c0.2,0.4,0.5,0.6,1,0.6c0.5,0,0.9-0.2,1-0.6s0.2-1.3,0.2-2.8v-3.4h7v1
		c0,2.8-0.2,4.8-0.6,5.9c-0.4,1.2-1.3,2.2-2.6,3.1s-3,1.3-5,1.3c-2,0-3.7-0.4-5.1-1.1s-2.2-1.8-2.6-3.1c-0.4-1.3-0.6-3.3-0.6-5.9
		v-7.9c0-1.9,0.1-3.4,0.2-4.4c0.1-1,0.5-1.9,1.2-2.8s1.6-1.6,2.7-2.1c1.2-0.5,2.5-0.8,4-0.8c2.1,0,3.8,0.4,5.1,1.2
		c1.3,0.8,2.2,1.8,2.6,3c0.4,1.2,0.6,3,0.6,5.5V62.4z M118.1,45.3l-5.5,4.5h-3.4l2.9-4.5H118.1z"/>
	<path class="st33" d="M145.5,62.4h-7v-4.7c0-1.4-0.1-2.2-0.2-2.5c-0.1-0.3-0.5-0.5-1-0.5c-0.6,0-0.9,0.2-1.1,0.6
		c-0.2,0.4-0.2,1.3-0.2,2.7v12.5c0,1.3,0.1,2.2,0.2,2.6c0.2,0.4,0.5,0.6,1,0.6c0.5,0,0.9-0.2,1-0.6s0.2-1.3,0.2-2.8v-3.4h7v1
		c0,2.8-0.2,4.8-0.6,5.9c-0.4,1.2-1.3,2.2-2.6,3.1s-3,1.3-5,1.3c-2,0-3.7-0.4-5.1-1.1s-2.2-1.8-2.6-3.1c-0.4-1.3-0.6-3.3-0.6-5.9
		v-7.9c0-1.9,0.1-3.4,0.2-4.4c0.1-1,0.5-1.9,1.2-2.8s1.6-1.6,2.7-2.1c1.2-0.5,2.5-0.8,4-0.8c2.1,0,3.8,0.4,5.1,1.2
		c1.3,0.8,2.2,1.8,2.6,3c0.4,1.2,0.6,3,0.6,5.5V62.4z M137.4,47.3l1.9-2.2h4.5l-4,4.7h-4.7l-4.3-4.7h4.6L137.4,47.3z"/>
	<path class="st33" d="M154,50.7h5.2c3.4,0,5.7,0.2,6.8,0.5s2.1,0.8,2.7,1.5c0.6,0.7,1,1.5,1.2,2.4c0.2,0.9,0.2,2.6,0.2,5.1v9.4
		c0,2.4-0.1,4-0.3,4.8c-0.2,0.8-0.6,1.5-1.2,1.9c-0.6,0.5-1.3,0.8-2.1,1c-0.8,0.2-2.1,0.3-3.8,0.3H154V50.7z M161,55.3V73
		c1,0,1.6-0.2,1.9-0.6c0.2-0.4,0.3-1.5,0.3-3.3V58.6c0-1.2,0-2-0.1-2.3c-0.1-0.3-0.3-0.6-0.5-0.8C162.3,55.4,161.8,55.3,161,55.3z"
		/>
</g>
<g class="st32">
	<path class="st33" d="M34,87.7h5.2c3.4,0,5.7,0.2,6.8,0.5c1.2,0.3,2.1,0.8,2.7,1.5c0.6,0.7,1,1.5,1.2,2.4c0.2,0.9,0.2,2.6,0.2,5.1
		v9.4c0,2.4-0.1,4-0.3,4.8c-0.2,0.8-0.6,1.5-1.2,1.9c-0.6,0.5-1.3,0.8-2.1,1c-0.8,0.2-2.1,0.3-3.8,0.3H34V87.7z M41,92.3V110
		c1,0,1.6-0.2,1.9-0.6c0.2-0.4,0.3-1.5,0.3-3.3V95.6c0-1.2,0-2-0.1-2.3c-0.1-0.3-0.3-0.6-0.5-0.8C42.3,92.4,41.8,92.3,41,92.3z"/>
	<path class="st33" d="M63.1,92.5v4.9l-4.9,12.7h4.9v4.4H51.6v-4.6l5.1-13h-4.5v-4.4H63.1z"/>
	<path class="st33" d="M70.8,87.7H76c3.4,0,5.7,0.2,6.8,0.5c1.2,0.3,2.1,0.8,2.7,1.5c0.6,0.7,1,1.5,1.2,2.4c0.2,0.9,0.2,2.6,0.2,5.1
		v9.4c0,2.4-0.1,4-0.3,4.8c-0.2,0.8-0.6,1.5-1.2,1.9c-0.6,0.5-1.3,0.8-2.1,1c-0.8,0.2-2.1,0.3-3.8,0.3h-8.8V87.7z M77.8,92.3V110
		c1,0,1.6-0.2,1.9-0.6c0.2-0.4,0.3-1.5,0.3-3.3V95.6c0-1.2,0-2-0.1-2.3c-0.1-0.3-0.3-0.6-0.5-0.8C79,92.4,78.5,92.3,77.8,92.3z"/>
	<path class="st33" d="M99.8,92.5v4.9l-4.9,12.7h4.9v4.4H88.4v-4.6l5.1-13h-4.5v-4.4H99.8z M99.5,86.5L94.1,91h-3.4l2.9-4.5H99.5z"
		/>
	<path class="st33" d="M107.5,87.7h5.2c3.4,0,5.7,0.2,6.8,0.5s2.1,0.8,2.7,1.5c0.6,0.7,1,1.5,1.2,2.4c0.2,0.9,0.2,2.6,0.2,5.1v9.4
		c0,2.4-0.1,4-0.3,4.8c-0.2,0.8-0.6,1.5-1.2,1.9c-0.6,0.5-1.3,0.8-2.1,1c-0.8,0.2-2.1,0.3-3.8,0.3h-8.8V87.7z M114.5,92.3V110
		c1,0,1.6-0.2,1.9-0.6c0.2-0.4,0.3-1.5,0.3-3.3V95.6c0-1.2,0-2-0.1-2.3c-0.1-0.3-0.3-0.6-0.5-0.8C115.8,92.4,115.2,92.3,114.5,92.3z
		"/>
	<path class="st33" d="M130.7,88.5l1.9-2.2h4.5l-4,4.7h-4.7l-4.3-4.7h4.6L130.7,88.5z M136.5,92.5v4.9l-4.9,12.7h4.9v4.4h-11.4v-4.6
		l5.1-13h-4.5v-4.4H136.5z"/>
	<path class="st33" d="M150.2,87.7h11.7v5.4h-4.7v5.1h4.4v5.1h-4.4v5.9h5.1v5.4h-12.1V87.7z"/>
</g>
<g class="st32">
	<path class="st33" d="M26.8,124.7h11.8v5.4h-4.8v5.1h4.3v5.1h-4.3v11.3h-7V124.7z"/>
	<path class="st33" d="M68.3,134.6h-7v-2.4c0-1.5-0.1-2.5-0.2-2.9s-0.4-0.6-0.9-0.6c-0.4,0-0.7,0.2-0.9,0.5
		c-0.2,0.3-0.2,1.2-0.2,2.6v12.9c0,1.2,0.1,2,0.2,2.4c0.2,0.4,0.5,0.6,0.9,0.6c0.5,0,0.9-0.2,1-0.6s0.3-1.3,0.3-2.5v-3.2h-1.4v-4.1
		h8.2v14.4H64l-0.6-1.9c-0.5,0.8-1.1,1.5-1.8,1.9c-0.7,0.4-1.6,0.6-2.6,0.6c-1.2,0-2.3-0.3-3.3-0.9c-1-0.6-1.8-1.3-2.3-2.1
		s-0.9-1.7-1-2.6c-0.1-0.9-0.2-2.3-0.2-4.2v-8c0-2.6,0.1-4.4,0.4-5.6c0.3-1.2,1.1-2.2,2.4-3.2c1.3-1,3-1.5,5.1-1.5
		c2,0,3.7,0.4,5.1,1.3c1.4,0.8,2.2,1.8,2.6,3c0.4,1.2,0.6,2.8,0.6,5V134.6z"/>
	<path class="st33" d="M93.1,124.7v26.9h-7v-11.3H84v11.3h-7v-26.9h7v9.6h2.1v-9.6H93.1z"/>
	<path class="st33" d="M118.2,136.4h-7v-4.7c0-1.4-0.1-2.2-0.2-2.5c-0.1-0.3-0.5-0.5-1-0.5c-0.6,0-0.9,0.2-1.1,0.6
		c-0.2,0.4-0.2,1.3-0.2,2.7v12.5c0,1.3,0.1,2.2,0.2,2.6c0.2,0.4,0.5,0.6,1,0.6c0.5,0,0.9-0.2,1-0.6s0.2-1.3,0.2-2.8v-3.4h7v1
		c0,2.8-0.2,4.8-0.6,5.9c-0.4,1.2-1.3,2.2-2.6,3.1s-3,1.3-5,1.3c-2,0-3.7-0.4-5.1-1.1s-2.2-1.8-2.6-3.1c-0.4-1.3-0.6-3.3-0.6-5.9
		v-7.9c0-1.9,0.1-3.4,0.2-4.4c0.1-1,0.5-1.9,1.2-2.8s1.6-1.6,2.7-2.1c1.2-0.5,2.5-0.8,4-0.8c2.1,0,3.8,0.4,5.1,1.2
		c1.3,0.8,2.2,1.8,2.6,3c0.4,1.2,0.6,3,0.6,5.5V136.4z"/>
	<path class="st33" d="M127.3,124.7v6c0.6-0.5,1.2-0.9,1.9-1.2c0.7-0.3,1.4-0.4,2.2-0.4c1.2,0,2.2,0.3,3,0.9s1.3,1.3,1.5,2.1
		c0.2,0.8,0.3,2.2,0.3,4.3v15.2h-6.7V136c0-1.3-0.1-2.1-0.2-2.5s-0.4-0.5-0.9-0.5c-0.4,0-0.7,0.2-0.8,0.6c-0.1,0.4-0.2,1.1-0.2,2.2
		v15.7h-6.7v-26.9H127.3z"/>
	<path class="st33" d="M151.5,124.7v26.9h-7v-26.9H151.5z"/>
	<path class="st33" d="M168.9,124.7v18c0,2.7,0,4.4-0.1,5.2c-0.1,0.8-0.3,1.5-0.8,2.1s-1.1,1-1.8,1.3c-0.8,0.2-1.9,0.4-3.5,0.4h-3.5
		v-4.7c0.4,0,0.7,0,0.9,0c0.5,0,0.9-0.1,1.2-0.4c0.3-0.2,0.5-0.5,0.5-0.9c0-0.4,0.1-1,0.1-2.1v-18.9H168.9z"/>
</g>
<g class="st32">
	<path class="st33" d="M48.2,161.7l-4,12.1l4.4,14.7h-7.2L38.5,177v11.5h-7v-26.9h7v10.4l3.1-10.4H48.2z"/>
	<path class="st33" d="M62.7,161.7v21.5H67v5.4H55.7v-26.9H62.7z"/>
	<path class="st33" d="M81.9,171.8l4.1-0.9v2.9l-4.1,0.9v8.5h4.2v5.4H74.9v-12.3l-1.4,0.3v-2.9l1.4-0.3v-11.7h7V171.8z"/>
	<path class="st33" d="M115.3,161.7v26.9h-6.1l0-18.1l-2.4,18.1h-4.3l-2.6-17.7l0,17.7h-6.1v-26.9h9c0.3,1.6,0.5,3.5,0.8,5.7l1,6.8
		l1.6-12.6H115.3z"/>
	<path class="st33" d="M139.7,161.7v26.9h-6.1l-3.6-12.2v12.2h-5.8v-26.9h5.8l3.9,12.1v-12.1H139.7z"/>
	<path class="st33" d="M164.1,161.7v26.9h-6.1l-3.6-12.2v12.2h-5.8v-26.9h5.8l3.9,12.1v-12.1H164.1z M161.6,156.3l-5.5,4.5h-3.4
		l2.9-4.5H161.6z"/>
</g>
<g class="st32">
	<path class="st33" d="M46.8,214.4c0,2.7-0.1,4.6-0.2,5.7c-0.1,1.1-0.5,2.2-1.2,3.1c-0.7,0.9-1.6,1.6-2.7,2.1
		c-1.1,0.5-2.5,0.7-4,0.7c-1.4,0-2.7-0.2-3.9-0.7c-1.1-0.5-2.1-1.2-2.8-2.1s-1.1-2-1.2-3.1s-0.2-3-0.2-5.8v-4.6
		c0-2.7,0.1-4.6,0.2-5.7c0.1-1.1,0.5-2.1,1.2-3.1c0.7-0.9,1.6-1.6,2.7-2.1c1.1-0.5,2.5-0.7,4-0.7c1.4,0,2.7,0.2,3.9,0.7
		c1.1,0.5,2.1,1.2,2.8,2.1s1.1,2,1.2,3.1s0.2,3,0.2,5.8V214.4z M39.8,205.6c0-1.3-0.1-2-0.2-2.4c-0.1-0.3-0.4-0.5-0.9-0.5
		c-0.4,0-0.6,0.1-0.8,0.4c-0.2,0.3-0.3,1.1-0.3,2.5v12.6c0,1.6,0.1,2.5,0.2,2.9c0.1,0.4,0.4,0.5,0.9,0.5c0.5,0,0.8-0.2,0.9-0.6
		s0.2-1.4,0.2-3V205.6z"/>
	<path class="st33" d="M55.4,198.7h7c1.9,0,3.4,0.1,4.4,0.4c1,0.3,1.8,0.7,2.3,1.3s0.9,1.2,1,2.1c0.2,0.8,0.3,2,0.3,3.7v2.3
		c0,1.7-0.2,3-0.5,3.8c-0.4,0.8-1,1.4-2,1.8s-2.2,0.6-3.7,0.6h-1.9v10.8h-7V198.7z M62.4,203.3v6.8c0.2,0,0.4,0,0.5,0
		c0.6,0,1.1-0.2,1.3-0.5c0.2-0.3,0.4-1,0.4-2v-2.2c0-0.9-0.1-1.5-0.4-1.8C63.9,203.4,63.3,203.3,62.4,203.3z"/>
	<path class="st33" d="M78.5,198.7h4.9c3.3,0,5.5,0.1,6.7,0.4c1.2,0.3,2.1,0.9,2.9,2c0.7,1,1.1,2.7,1.1,5c0,2.1-0.3,3.5-0.8,4.2
		c-0.5,0.7-1.5,1.2-3.1,1.3c1.4,0.3,2.3,0.8,2.8,1.4c0.5,0.6,0.8,1.1,0.9,1.6c0.1,0.5,0.2,1.8,0.2,4v7.1h-6.5v-8.9
		c0-1.4-0.1-2.3-0.3-2.7c-0.2-0.3-0.8-0.5-1.8-0.5v12.1h-7V198.7z M85.5,203.3v6c0.8,0,1.3-0.1,1.7-0.3c0.3-0.2,0.5-0.9,0.5-2.1
		v-1.5c0-0.9-0.2-1.4-0.5-1.7C86.8,203.4,86.3,203.3,85.5,203.3z"/>
	<path class="st33" d="M117.6,206.8h-6.5v-2c0-0.9-0.1-1.5-0.2-1.8s-0.4-0.4-0.8-0.4c-0.4,0-0.7,0.2-1,0.5c-0.2,0.3-0.3,0.9-0.3,1.6
		c0,0.9,0.1,1.6,0.4,2c0.2,0.5,0.9,1,2,1.6c3.1,1.8,5.1,3.4,5.9,4.5s1.2,3.1,1.2,5.7c0,1.9-0.2,3.3-0.7,4.2s-1.3,1.7-2.6,2.3
		c-1.3,0.6-2.8,0.9-4.5,0.9c-1.9,0-3.5-0.4-4.8-1.1c-1.3-0.7-2.2-1.6-2.6-2.7s-0.6-2.7-0.6-4.7v-1.8h6.5v3.3c0,1,0.1,1.7,0.3,1.9
		s0.5,0.4,1,0.4s0.8-0.2,1-0.5c0.2-0.4,0.3-0.9,0.3-1.6c0-1.6-0.2-2.6-0.6-3.1c-0.4-0.5-1.5-1.3-3.3-2.4c-1.7-1.2-2.9-2-3.5-2.5
		s-1-1.2-1.4-2.2c-0.4-0.9-0.6-2.1-0.6-3.5c0-2.1,0.3-3.6,0.8-4.5c0.5-1,1.4-1.7,2.5-2.2c1.2-0.5,2.6-0.8,4.2-0.8
		c1.8,0,3.4,0.3,4.6,0.9s2.1,1.3,2.5,2.2c0.4,0.9,0.6,2.4,0.6,4.5V206.8z"/>
	<path class="st33" d="M141.2,206.9h-6.5v-2c0-0.9-0.1-1.5-0.2-1.8s-0.4-0.4-0.8-0.4c-0.4,0-0.7,0.2-1,0.5c-0.2,0.3-0.3,0.9-0.3,1.6
		c0,0.9,0.1,1.6,0.4,2c0.2,0.5,0.9,1,2,1.6c3.1,1.8,5.1,3.4,5.9,4.5s1.2,3.1,1.2,5.7c0,1.9-0.2,3.3-0.7,4.2s-1.3,1.7-2.6,2.3
		c-1.3,0.6-2.8,0.9-4.5,0.9c-1.9,0-3.5-0.4-4.8-1.1c-1.3-0.7-2.2-1.6-2.6-2.7s-0.6-2.7-0.6-4.7V216h6.5v3.3c0,1,0.1,1.7,0.3,1.9
		s0.5,0.4,1,0.4s0.8-0.2,1-0.5c0.2-0.4,0.3-0.9,0.3-1.6c0-1.6-0.2-2.6-0.6-3.1c-0.4-0.5-1.5-1.3-3.3-2.4c-1.7-1.2-2.9-2-3.5-2.5
		s-1-1.2-1.4-2.2c-0.4-0.9-0.6-2.1-0.6-3.5c0-2.1,0.3-3.6,0.8-4.5c0.5-1,1.4-1.7,2.5-2.2c1.2-0.5,2.6-0.8,4.2-0.8
		c1.8,0,3.4,0.3,4.6,0.9s2.1,1.3,2.5,2.2c0.4,0.9,0.6,2.4,0.6,4.5V206.9z M139.1,193.3l-5.5,4.5h-3.4l2.9-4.5H139.1z"/>
	<path class="st33" d="M164.7,206.8h-6.5v-2c0-0.9-0.1-1.5-0.2-1.8s-0.4-0.4-0.8-0.4c-0.4,0-0.7,0.2-1,0.5c-0.2,0.3-0.3,0.9-0.3,1.6
		c0,0.9,0.1,1.6,0.4,2c0.2,0.5,0.9,1,2,1.6c3.1,1.8,5.1,3.4,5.9,4.5s1.2,3.1,1.2,5.7c0,1.9-0.2,3.3-0.7,4.2s-1.3,1.7-2.6,2.3
		c-1.3,0.6-2.8,0.9-4.5,0.9c-1.9,0-3.5-0.4-4.8-1.1c-1.3-0.7-2.2-1.6-2.6-2.7s-0.6-2.7-0.6-4.7v-1.8h6.5v3.3c0,1,0.1,1.7,0.3,1.9
		s0.5,0.4,1,0.4s0.8-0.2,1-0.5c0.2-0.4,0.3-0.9,0.3-1.6c0-1.6-0.2-2.6-0.6-3.1c-0.4-0.5-1.5-1.3-3.3-2.4c-1.7-1.2-2.9-2-3.5-2.5
		s-1-1.2-1.4-2.2c-0.4-0.9-0.6-2.1-0.6-3.5c0-2.1,0.3-3.6,0.8-4.5c0.5-1,1.4-1.7,2.5-2.2c1.2-0.5,2.6-0.8,4.2-0.8
		c1.8,0,3.4,0.3,4.6,0.9s2.1,1.3,2.5,2.2c0.4,0.9,0.6,2.4,0.6,4.5V206.8z M157.5,195.3l1.9-2.2h4.5l-4,4.7h-4.7l-4.3-4.7h4.6
		L157.5,195.3z"/>
</g>
<g class="st32">
	<path class="st33" d="M39.7,235.7v5.4h-4.2v21.5h-7v-21.5h-4.1v-5.4H39.7z"/>
	<path class="st33" d="M63.2,235.7v18c0,2-0.1,3.5-0.2,4.3c-0.1,0.8-0.5,1.7-1.2,2.5c-0.7,0.9-1.5,1.5-2.6,2
		c-1.1,0.4-2.3,0.7-3.8,0.7c-1.6,0-3-0.3-4.2-0.8s-2.1-1.2-2.8-2.1c-0.6-0.9-1-1.8-1.1-2.7c-0.1-0.9-0.2-2.9-0.2-6v-15.9h7v20.2
		c0,1.2,0.1,1.9,0.2,2.2c0.1,0.3,0.4,0.5,0.8,0.5c0.4,0,0.7-0.2,0.9-0.5c0.1-0.4,0.2-1.2,0.2-2.5v-19.8H63.2z"/>
	<path class="st33" d="M87.8,235.4v18c0,2-0.1,3.5-0.2,4.3c-0.1,0.8-0.5,1.7-1.2,2.5c-0.7,0.9-1.5,1.5-2.6,2
		c-1.1,0.4-2.3,0.7-3.8,0.7c-1.6,0-3-0.3-4.2-0.8s-2.1-1.2-2.8-2.1c-0.6-0.9-1-1.8-1.1-2.7c-0.1-0.9-0.2-2.9-0.2-6v-15.9h7v20.2
		c0,1.2,0.1,1.9,0.2,2.2c0.1,0.3,0.4,0.5,0.8,0.5c0.4,0,0.7-0.2,0.9-0.5c0.1-0.4,0.2-1.2,0.2-2.5v-19.8H87.8z M81.6,229.8h2.8
		c-0.1,1.5-0.5,2.7-1.3,3.6s-1.9,1.4-3.4,1.4c-1.5,0-2.6-0.5-3.4-1.4c-0.8-0.9-1.2-2.1-1.3-3.6h2.8c0.1,1.5,0.8,2.3,1.9,2.3
		C80.9,232.1,81.5,231.3,81.6,229.8z"/>
	<path class="st33" d="M113.1,235.7l-3.6,26.9H98.9l-4-26.9h7.4c0.9,7.4,1.5,13.7,1.8,18.8c0.4-5.2,0.7-9.8,1.2-13.8l0.5-5H113.1z"
		/>
	<path class="st33" d="M132,235.7v5.4l-5.2,16.1h5.2v5.4h-12.9v-3.9l5.4-17.6h-4.7v-5.4H132z"/>
	<path class="st33" d="M151.4,235.7v5.4l-5.2,16.1h5.2v5.4h-12.9v-3.9l5.4-17.6h-4.7v-5.4H151.4z M150.3,230.3l-5.5,4.5h-3.4
		l2.9-4.5H150.3z"/>
	<path class="st33" d="M170.9,235.7v5.4l-5.2,16.1h5.2v5.4H158v-3.9l5.4-17.6h-4.7v-5.4H170.9z M164.7,232.3l1.9-2.2h4.5l-4,4.7
		h-4.7l-4.3-4.7h4.6L164.7,232.3z"/>
</g>
<g class="st32">
	<path class="st34" d="M166.6,15.9v15.8h-3.9v-8.5c0-1.2,0-2-0.1-2.2s-0.2-0.4-0.5-0.6s-0.9-0.2-1.8-0.2h-0.4v-1.8
		c1.9-0.4,3.4-1.3,4.3-2.5H166.6z"/>
	<path class="st34" d="M177.5,21.3v5.3c0,1.2-0.1,2.1-0.2,2.6c-0.1,0.5-0.4,1.1-0.8,1.5s-0.9,0.8-1.5,1c-0.6,0.2-1.2,0.3-1.9,0.3
		c-0.9,0-1.7-0.1-2.4-0.3s-1.1-0.6-1.5-1s-0.6-0.9-0.8-1.5s-0.2-1.3-0.2-2.4v-5.5c0-1.5,0.1-2.5,0.4-3.3c0.2-0.7,0.7-1.3,1.5-1.7
		c0.7-0.4,1.6-0.7,2.7-0.7c0.9,0,1.6,0.2,2.3,0.5s1.2,0.7,1.5,1.1c0.3,0.4,0.6,0.9,0.7,1.5C177.4,19.2,177.5,20.1,177.5,21.3z
		 M173.5,20c0-0.8,0-1.4-0.1-1.6c-0.1-0.2-0.3-0.3-0.6-0.3c-0.3,0-0.5,0.1-0.6,0.3c-0.1,0.2-0.1,0.7-0.1,1.6v7.7
		c0,0.9,0,1.5,0.1,1.7s0.3,0.3,0.6,0.3s0.5-0.1,0.6-0.3c0.1-0.2,0.1-0.7,0.1-1.5V20z"/>
</g>
</svg>
