<?xml version="1.0" encoding="utf-8"?>
<!-- Generator: Adobe Illustrator 26.0.1, SVG Export Plug-In . SVG Version: 6.00 Build 0)  -->
<svg version="1.1" id="Слой_1" xmlns="http://www.w3.org/2000/svg" xmlns:xlink="http://www.w3.org/1999/xlink" x="0px" y="0px"
	 viewBox="0 0 195.6 280.6" style="enable-background:new 0 0 195.6 280.6;" xml:space="preserve">
<style type="text/css">
	.st0{fill:#EB5A53;}
	.st1{fill:#1A1A1A;}
	.st2{fill:#FFFFFF;}
	.st3{fill:#EB5775;}
	.st4{fill:#F293A2;}
	.st5{fill:#CCE2E9;}
	.st6{fill:#A1C7D5;}
	.st7{fill:#C67550;}
	.st8{fill:#DB9C73;}
	.st9{fill:#C9C0B7;}
	.st10{fill:#A0958A;}
	.st11{fill:#9B5341;}
	.st12{fill:#5A4540;}
	.st13{enable-background:new    ;}
</style>
<path class="st0" d="M78.7,174.6c0,12.4-4.1,29.9-9.2,29.9s-9.2-17.6-9.2-29.9s5.4-14.8,9.2-14.8S78.7,162.3,78.7,174.6z"/>
<path class="st1" d="M69.5,157.2c-3.1,0-6,1.3-8,3.7c-2.4,2.8-3.8,7.1-3.8,13.7c0.1,6.9,1,13.7,2.8,20.3c0.7,2.8,1.8,5.5,3.2,8
	c1.3,2.2,3,4.2,5.8,4.2s4.5-2,5.8-4.2c1.4-2.5,2.5-5.2,3.2-8c1.8-6.6,2.7-13.4,2.8-20.3c0-6.6-1.4-10.9-3.8-13.7
	C75.5,158.6,72.6,157.2,69.5,157.2L69.5,157.2z M69.5,162.4c1.6,0,3,0.7,4,1.9c1.3,1.5,2.6,4.6,2.6,10.4c-0.1,6.4-0.9,12.7-2.6,18.9
	c-0.6,2.4-1.5,4.6-2.7,6.8c-0.3,0.6-0.8,1.2-1.4,1.6c-0.6-0.4-1-1-1.4-1.6c-1.2-2.1-2-4.4-2.7-6.8c-1.7-6.2-2.5-12.5-2.6-18.9
	c0-5.8,1.3-8.8,2.6-10.4C66.4,163,67.9,162.3,69.5,162.4L69.5,162.4z"/>
<path class="st0" d="M125.2,174.6c0,12.4-4.1,29.9-9.2,29.9s-9.2-17.6-9.2-29.9s5.4-14.8,9.2-14.8S125.2,162.3,125.2,174.6z"/>
<path class="st1" d="M116,157.2c-3.1,0-6,1.3-8,3.7c-2.4,2.8-3.8,7.1-3.8,13.7c0.1,6.9,1,13.7,2.8,20.3c0.7,2.8,1.8,5.5,3.2,8
	c1.3,2.2,3,4.2,5.8,4.2s4.5-2,5.8-4.2c1.4-2.5,2.5-5.2,3.2-8c1.8-6.6,2.7-13.4,2.8-20.3c0-6.6-1.4-10.9-3.8-13.7
	C122,158.6,119,157.2,116,157.2L116,157.2z M116,162.4c1.6,0,3,0.7,4,1.9c1.3,1.5,2.6,4.6,2.6,10.4c-0.1,6.4-0.9,12.7-2.6,18.9
	c-0.6,2.4-1.5,4.6-2.7,6.8c-0.3,0.6-0.8,1.2-1.3,1.6c-0.6-0.4-1-1-1.4-1.6c-1.1-2.1-2-4.4-2.6-6.8c-1.7-6.2-2.5-12.5-2.6-18.9
	c0-5.8,1.3-8.8,2.6-10.4C113,163,114.5,162.3,116,162.4L116,162.4z"/>
<path class="st0" d="M32.5,113.3c-3.6,11.8-12.6,27.4-17.5,25.9s-3.7-19.5-0.1-31.3S24.4,95.4,28,96.5S36.1,101.5,32.5,113.3
	L32.5,113.3z"/>
<path class="st1" d="M28.8,95.4c-2.9-0.9-6.1-0.5-8.7,1.2c-3.1,2-5.7,5.7-7.6,12c-1.9,6.6-3,13.4-3.2,20.2c-0.1,2.9,0.1,5.8,0.7,8.6
	c0.6,2.4,1.7,4.9,4.3,5.7s4.9-0.6,6.8-2.3c2.1-2,3.9-4.3,5.4-6.7c3.6-5.8,6.5-12,8.6-18.6c1.9-6.3,1.8-10.9,0.3-14.2
	C34.1,98.4,31.7,96.2,28.8,95.4L28.8,95.4z M27.3,100.3c1.5,0.4,2.8,1.5,3.3,3c0.8,1.8,1.1,5.1-0.5,10.7c-1.9,6.1-4.6,11.9-8,17.3
	c-1.3,2.1-2.8,4-4.5,5.7c-0.5,0.5-1.1,0.9-1.8,1.2c-0.4-0.6-0.7-1.3-0.8-2c-0.5-2.4-0.7-4.8-0.6-7.2c0.2-6.4,1.2-12.7,3-18.8
	c1.7-5.6,3.8-8.1,5.5-9.2C24.1,100,25.8,99.8,27.3,100.3L27.3,100.3z"/>
<path class="st0" d="M168.2,107.5c4.7,11.4,7.6,29.2,2.9,31.2s-15.2-12.7-19.9-24.1s-0.6-15.8,2.8-17.2S163.4,96.1,168.2,107.5z"/>
<path class="st1" d="M153,94.9c-2.9,1.2-5.1,3.5-6,6.4c-1.1,3.5-0.8,8.1,1.7,14.1c2.7,6.3,6.1,12.3,10.3,17.7c1.7,2.3,3.7,4.4,6,6.2
	c2,1.5,4.4,2.7,6.9,1.6s3.4-3.6,3.7-6.1c0.3-2.9,0.3-5.8-0.1-8.6c-0.9-6.8-2.6-13.5-5.2-19.8c-2.5-6.1-5.5-9.5-8.8-11.2
	C159,93.9,155.8,93.7,153,94.9L153,94.9z M155,99.7c1.4-0.6,3.1-0.6,4.5,0.2c1.8,0.9,4.1,3.2,6.4,8.6c2.4,5.9,4,12.1,4.8,18.5
	c0.3,2.4,0.4,4.8,0.1,7.3c-0.1,0.7-0.3,1.4-0.6,2c-0.7-0.2-1.3-0.5-1.9-1c-1.9-1.5-3.5-3.3-5-5.2c-3.9-5.1-7.1-10.6-9.6-16.5
	c-2.2-5.4-2.2-8.7-1.6-10.6C152.5,101.4,153.6,100.2,155,99.7L155,99.7z"/>
<path class="st1" d="M92.8,41.5c-39.8,0-72,32.2-72,72s32.2,72,72,72s72-32.2,72-72C164.7,73.7,132.5,41.5,92.8,41.5z M92.8,49.7
	c35.3,0,63.8,28.5,63.9,63.8s-28.5,63.8-63.8,63.9c-35.3,0-63.8-28.5-63.9-63.8c0,0,0,0,0,0C29,78.3,57.5,49.7,92.8,49.7
	C92.7,49.7,92.8,49.7,92.8,49.7z"/>
<path class="st0" d="M45.4,67c12.3-6.8,18.9,2,49.3,1.7c27.8-0.3,33.6-7.8,44.9-1.7c19.1,10.3,19.5,41,19.5,44.9
	c0,2.8-0.3,35.9-19.5,44.9c-12.8,6-19.6-5.5-45.5-5.9c-27.5-0.4-35.1,12.4-48.8,5.9c-19.2-9.2-19.5-42.1-19.5-44.9
	C25.9,108,26.3,77.6,45.4,67z"/>
<path class="st2" d="M92.1,46.8c-29.1,0-55,18.4-64.7,45.9h129.3C147.1,65.3,121.1,46.9,92.1,46.8z"/>
<path class="st2" d="M95.6,48.4c-27.6,0-52.1,17.9-60.4,44.3h120.9C147.8,66.3,123.3,48.4,95.6,48.4z"/>
<path class="st2" d="M30,137.1c2.9,6.9,6.8,13.2,11.6,18.9c8.2,9.9,19.1,17.2,31.4,21c6.2,1.8,12.6,2.7,19,2.6
	c12-0.2,23.7-3.6,34-9.7c13.4-7.7,24.2-19.1,31.3-32.8H30z"/>
<path class="st2" d="M153.8,137.2H34c15.1,33.1,54.2,47.7,87.3,32.5C135.7,163.2,147.3,151.6,153.8,137.2L153.8,137.2z"/>
<path class="st1" d="M92.8,44.6c-38.1,0-69,30.9-69,69s30.9,69,69,69s69-30.9,69-69S130.9,44.6,92.8,44.6z M92.8,46.6
	c37,0,66.9,30,66.9,66.9s-30,66.9-66.9,66.9s-66.9-30-66.9-66.9c0,0,0,0,0,0C25.9,76.6,55.8,46.6,92.8,46.6
	C92.8,46.6,92.8,46.6,92.8,46.6z"/>
<path class="st1" d="M111.7,104.2c-5,0-9.1,4.1-9.2,9.1c0,0,0,0,0,0v7.6h18.3v-7.6C120.9,108.4,116.8,104.3,111.7,104.2
	C111.7,104.3,111.7,104.3,111.7,104.2L111.7,104.2z"/>
<path class="st2" d="M106.4,110.8c0-1.7,1.3-3,3-3s3,1.3,3,3s-1.3,3-3,3S106.4,112.4,106.4,110.8z"/>
<path class="st1" d="M73.9,104.2c-5,0-9.1,4.1-9.2,9.1c0,0,0,0,0,0v7.6h18.3v-7.6C83.1,108.4,79,104.3,73.9,104.2
	C73.9,104.3,73.9,104.3,73.9,104.2L73.9,104.2z"/>
<path class="st2" d="M68.6,110.8c0-1.7,1.3-3,3-3s3,1.3,3,3s-1.3,3-3,3S68.6,112.4,68.6,110.8z"/>
<path class="st3" d="M89.5,122.4c-3,0-5.5,2.5-5.5,5.5c0,0,0,0,0,0c1.8,3.2,5.2,5.1,8.9,5.1c0.7,0,1.5-0.1,2.2-0.2v-4.9
	C95,124.9,92.5,122.4,89.5,122.4C89.5,122.4,89.5,122.4,89.5,122.4z"/>
<path class="st1" d="M89.5,121.5c-3.5,0-6.4,2.9-6.4,6.4v0.2l0.1,0.2c0.7,1.1,1.5,2.1,2.5,2.9l1.1-1.3c-0.8-0.6-1.4-1.4-1.9-2.3
	c0.1-2.6,2.2-4.6,4.8-4.5s4.6,2.2,4.5,4.8v4.9h1.8V128C95.9,124.4,93,121.6,89.5,121.5L89.5,121.5z"/>
<rect x="89" y="127.7" class="st1" width="0.9" height="4.8"/>
<path class="st4" d="M92.5,126.2c0,0.7-0.5,1.2-1.2,1.2c-0.7,0-1.2-0.5-1.2-1.2c0-0.7,0.5-1.2,1.2-1.2c0,0,0,0,0,0
	C92,125.1,92.5,125.6,92.5,126.2L92.5,126.2z"/>
<path class="st1" d="M100.9,127.5c-2.6,4.5-8.3,6-12.8,3.4c-1.4-0.8-2.6-2-3.4-3.4l-1.5,0.9c3.1,5.3,9.9,7.1,15.2,4.1
	c1.7-1,3.1-2.4,4.1-4.1C102.4,128.4,100.9,127.5,100.9,127.5z"/>
<path class="st1" d="M92.8,17.8L92.8,17.8c-6.4,0-12.5,3.1-16.4,8.2c-1.5-0.4-3.1-0.7-4.6-0.7l0,0c-9.3,0-16.8,7.5-16.8,16.8
	S62.5,59,71.8,59l0,0c4.3,0,8.5-1.7,11.7-4.7l-3.7-3.8c-4.6,4.4-11.9,4.3-16.3-0.3s-4.3-11.9,0.3-16.3c3.4-3.2,8.3-4.1,12.6-2.2
	l2.2,0.9l1.2-2c4.3-7.2,13.6-9.6,20.8-5.2c2.2,1.3,4,3.1,5.2,5.2l1.2,2l2.2-1c5.8-2.5,12.6,0.1,15.1,5.9s-0.1,12.6-5.9,15.1
	c-4.3,1.9-9.2,1-12.6-2.2l-3.7,3.8c3.1,3,7.3,4.7,11.7,4.8l0,0c9.3,0,16.8-7.5,16.8-16.8s-7.5-16.8-16.8-16.8l0,0l0,0
	c-1.6,0-3.1,0.2-4.7,0.7C105.3,20.9,99.2,17.8,92.8,17.8L92.8,17.8z"/>
<path class="st1" d="M75,49.1c-3.2,0-5.8,2.6-5.8,5.8v10.6c0,3.2,2.6,5.8,5.8,5.8h35.5c3.2,0,5.8-2.6,5.8-5.8V54.9
	c0-3.2-2.6-5.8-5.8-5.8L75,49.1z M110.5,54.5c0.2,0,0.4,0.1,0.5,0.4c0,0,0,0.1,0,0.1v10.6c0,0.2-0.1,0.4-0.4,0.5c0,0-0.1,0-0.1,0H75
	c-0.2,0-0.4-0.1-0.5-0.4c0,0,0-0.1,0-0.1V54.9c0-0.2,0.1-0.4,0.4-0.5c0,0,0.1,0,0.1,0L110.5,54.5z"/>
<path class="st2" d="M110.6,51.8c1.7,0,3.1,1.4,3.1,3.1c0,0,0,0,0,0v10.6c0,1.7-1.4,3.1-3.1,3.1c0,0,0,0,0,0H75
	c-1.7,0-3.1-1.4-3.1-3.1c0,0,0,0,0,0V54.9c0-1.7,1.4-3.1,3.1-3.1c0,0,0,0,0,0H110.6z"/>
<path class="st5" d="M75,51.8c-1.7,0-3.1,1.4-3.1,3.1c0,0,0,0,0,0v5.8c3.5,0,6.9-1.1,9.9-2.9c6.8,3.9,15.2,3.9,22,0
	c3,1.9,6.4,2.9,9.9,2.9v-5.8c0-1.7-1.4-3.1-3.1-3.1c0,0,0,0,0,0H75z"/>
<path class="st5" d="M75,51.8c-1.7,0-3.1,1.4-3.1,3.1c0,0,0,0,0,0v10.6c0,1.7,1.4,3.1,3.1,3.1c0,0,0,0,0,0h13.4
	c-1.7,0-3.1-1.4-3.1-3.1c0,0,0,0,0,0V54.9c0-1.7,1.4-3.1,3.1-3.1c0,0,0,0,0,0H75z"/>
<path class="st6" d="M113.7,62.7c0,1.7-1.4,3.1-3.1,3.1c0,0,0,0,0,0H75c-1.7,0-3.1-1.4-3.1-3.1c0,0,0,0,0,0v2.8
	c0,1.7,1.4,3.1,3.1,3.1c0,0,0,0,0,0h35.5c1.7,0,3.1-1.4,3.1-3.1c0,0,0,0,0,0L113.7,62.7L113.7,62.7z"/>
<path class="st6" d="M75,51.8c-1.7,0-3.1,1.4-3.1,3.1c0,0,0,0,0,0v10.6c0,1.7,1.4,3.1,3.1,3.1c0,0,0,0,0,0h4.8
	c-1.7,0-3.1-1.4-3.1-3.1c0,0,0,0,0,0V54.9c0-1.7,1.4-3.1,3.1-3.1c0,0,0,0,0,0H75z"/>
<path class="st1" d="M75,50.9c-2.2,0-4,1.8-4,4v10.6c0,2.2,1.8,4,4,4h35.5c2.2,0,4-1.8,4-4V54.9c0-2.2-1.8-4-4-4L75,50.9z
	 M110.5,52.7c1.2,0,2.2,1,2.2,2.2c0,0,0,0,0,0.1v10.6c0,1.2-1,2.2-2.2,2.2c0,0,0,0-0.1,0H75c-1.2,0-2.2-1-2.2-2.2c0,0,0,0,0-0.1
	V54.9c0-1.2,1-2.2,2.2-2.2c0,0,0,0,0,0H110.5z"/>
<path class="st5" d="M57.6,42.1c0-7.8,6.3-14.2,14.2-14.2s14.2,6.3,14.2,14.2s-6.3,14.2-14.2,14.2l0,0C64,56.3,57.6,49.9,57.6,42.1z
	"/>
<path class="st6" d="M71.8,27.9c-7.8,0-14.1,6.4-14.1,14.2s6.4,14.1,14.2,14.1c7.8,0,14.1-6.4,14.1-14.2
	C86,34.3,79.7,27.9,71.8,27.9C71.8,27.9,71.8,27.9,71.8,27.9z M71.4,28.4c6.7,0,12.1,5.5,12.1,12.2c0,6.7-5.5,12.1-12.2,12.1
	c-6.7,0-12.1-5.5-12.1-12.1C59.2,33.8,64.6,28.4,71.4,28.4C71.4,28.4,71.4,28.4,71.4,28.4z"/>
<path class="st2" d="M60.9,38.7c0-5.6,4.5-10.1,10.1-10.1s10.1,4.5,10.1,10.1c0,5.6-4.5,10.1-10.1,10.1c0,0,0,0,0,0
	C65.4,48.8,60.9,44.3,60.9,38.7z"/>
<path class="st5" d="M74.9,38.4c0-9.9,8-17.9,17.9-17.9c9.9,0,17.9,8,17.9,17.9s-8,17.9-17.9,17.9c0,0,0,0,0,0
	C82.9,56.3,74.9,48.3,74.9,38.4C74.9,38.4,74.9,38.4,74.9,38.4z"/>
<path class="st5" d="M99.7,42.1c0-7.8,6.3-14.2,14.2-14.2S128,34.3,128,42.1s-6.3,14.2-14.2,14.2l0,0C106,56.3,99.7,49.9,99.7,42.1z
	"/>
<path class="st2" d="M113.8,27.9c-3.3,0-6.5,1.1-9,3.2c-3,5.9-0.7,13.1,5.2,16.2c5.9,3,13.1,0.7,16.2-5.2c0.6-1.3,1.1-2.6,1.2-4
	C125.6,32.1,120.1,27.9,113.8,27.9L113.8,27.9z"/>
<path class="st1" d="M106.3,48.7c-5.7,7.5-16.4,8.9-23.8,3.2c-1.2-0.9-2.3-2-3.2-3.2l-1.4,1.1c6.3,8.2,18.1,9.8,26.3,3.5
	c1.3-1,2.5-2.2,3.5-3.5L106.3,48.7z"/>
<path class="st2" d="M92.5,20c-8.8,0-16.3,6.3-17.9,14.9c2.2,10.5,12.5,17.2,23,15c5.5-1.2,10.2-4.7,13-9.6c0.1-0.7,0.1-1.4,0.1-2.2
	C110.7,28.1,102.6,20,92.5,20C92.5,20,92.5,20,92.5,20z"/>
<path class="st1" d="M92.8,19.6c-6.3,0-12.2,3.2-15.7,8.5c-1.7-0.7-3.5-1-5.3-1l0,0c-8.3,0-15.1,6.7-15.1,15.1
	c0,8.3,6.7,15.1,15.1,15.1l0,0c3.9,0,7.6-1.5,10.4-4.2L81,51.7c-5.3,5.1-13.7,5-18.8-0.3c-5.1-5.3-5-13.7,0.3-18.8
	c3.9-3.8,9.7-4.8,14.6-2.6l0.7,0.3l0.4-0.7c4.8-8,15.3-10.6,23.3-5.8c2.4,1.4,4.4,3.4,5.8,5.8l0.4,0.7l0.7-0.3
	c6.7-3,14.5,0.1,17.5,6.8c3,6.7-0.1,14.5-6.8,17.5c-4.9,2.2-10.7,1.1-14.6-2.6l-1.2,1.3c6,5.8,15.5,5.6,21.3-0.4
	c5.8-6,5.6-15.5-0.4-21.3c-2.8-2.7-6.6-4.2-10.4-4.2l0,0c-1.8,0-3.6,0.3-5.4,1C105,22.8,99.1,19.6,92.8,19.6z"/>
<path class="st1" d="M181.4,75.1c-2.2,0-4,1.8-4,4.1l0.1,7.3c0,2.2,1.8,4,4.1,4c2.2,0,4-1.8,4-4.1l-0.1-7.3
	C185.4,76.9,183.6,75.1,181.4,75.1L181.4,75.1z"/>
<path class="st1" d="M176.8,74.2c-2.2,0-4,1.9-4,4.1l0.1,9.2c0,2.2,1.8,4,4.1,4c2.2,0,4-1.8,4-4.1l-0.1-9.2
	C180.8,76,179,74.2,176.8,74.2L176.8,74.2z"/>
<path class="st1" d="M167.5,75.2c2.2,0,4,1.8,4.1,4l0.1,7.3c0,2.2-1.8,4-4,4.1c-2.2,0-4-1.8-4.1-4l-0.1-7.3
	C163.5,77.1,165.3,75.3,167.5,75.2L167.5,75.2z"/>
<path class="st1" d="M172.1,74.3c2.2,0,4,1.8,4.1,4l0.1,9.2c0,2.2-1.8,4-4,4.1c-2.2,0-4-1.8-4.1-4l-0.1-9.2
	C168.1,76.1,169.9,74.3,172.1,74.3z"/>
<path class="st1" d="M171.6,98.4c-1.9,0.1-3.4,1.6-3.4,3.5l0.3,36.9c0,3.6,3,6.5,6.6,6.4c3.6,0,6.5-3,6.4-6.6l0,0l-0.3-36.8
	c0-1.9-1.6-3.4-3.5-3.4L171.6,98.4z M175.3,138.7c0,0.2-0.1,0.3-0.3,0.3s-0.3-0.1-0.3-0.3l-0.3-34.1h0.6L175.3,138.7z"/>
<path class="st1" d="M164.1,70.7c-2.8,0-5,2.3-5,5.1l0.1,7c0,4.7,2.1,9.1,5.7,12.1c2.4,2.2,3.6,2.8,3.7,6.7h6.1h0.1l6.1-0.1
	c0-3.9,1.2-4.6,3.6-6.8c3.6-3,5.6-7.5,5.5-12.2l-0.1-7c0-2.8-2.3-5-5.1-5L164.1,70.7z M183.7,82.5c0,4.6-1.3,5.5-3.5,7.6
	c-2.1,1.9-5,5-5.5,10.1c-0.5-5.1-3.5-8.1-5.6-10c-2.3-2.1-3.6-3-3.7-7.5l-0.1-5.8l18.3-0.2L183.7,82.5z"/>
<path class="st7" d="M171.6,101.5c-0.2,0-0.3,0.2-0.3,0.3c0,0,0,0,0,0c0.1,12.3,0.2,24.6,0.3,36.8c0,1.9,1.5,3.4,3.4,3.4
	c1.9,0,3.4-1.5,3.3-3.4l0,0c-0.1-12.3-0.2-24.6-0.3-36.8c0-0.2-0.2-0.3-0.3-0.3L171.6,101.5z"/>
<path class="st8" d="M176,101.5l0.3,38.1c0,0.4-0.1,0.8-0.2,1.2c0.7-0.6,1.2-1.6,1.2-2.6l-0.3-36.7L176,101.5z"/>
<path class="st9" d="M164.1,73.8c-1,0-1.9,0.9-1.9,1.9c0,0,0,0,0,0l0.1,7c0.1,10.9,9.3,9,9.4,18.8h6.1c-0.1-9.8,9.1-8,9.1-19l-0.1-7
	c0-1-0.8-1.9-1.9-1.9c0,0,0,0,0,0L164.1,73.8z M176.8,77.3c0.5,0,0.9,0.4,0.9,0.9c0,0,0,0,0,0l0.1,9.2c0,0.5-0.4,0.9-0.9,0.9
	c-0.5,0-0.9-0.4-0.9-0.9l-0.1-9.2C175.9,77.7,176.3,77.3,176.8,77.3C176.8,77.3,176.8,77.3,176.8,77.3L176.8,77.3z M172.2,77.3
	c0.5,0,0.9,0.4,0.9,0.9c0,0,0,0,0,0l0.1,9.2c0,0.5-0.4,0.9-0.9,0.9c0,0,0,0,0,0c-0.5,0-0.9-0.4-0.9-0.9l-0.1-9.2
	C171.2,77.8,171.6,77.3,172.2,77.3z M181.4,78.2c0.5,0,0.9,0.4,0.9,0.9c0,0,0,0,0,0l0.1,7.3c0,0.5-0.4,0.9-0.9,0.9
	c-0.5,0-0.9-0.4-0.9-0.9l-0.1-7.3C180.5,78.6,180.9,78.2,181.4,78.2C181.4,78.2,181.4,78.2,181.4,78.2L181.4,78.2z M167.5,78.3
	c0.5,0,0.9,0.4,0.9,0.9c0,0,0,0,0,0l0.1,7.3c0,0.5-0.4,0.9-0.9,0.9c-0.5,0-0.9-0.4-0.9-0.9l-0.1-7.3C166.6,78.7,167,78.3,167.5,78.3
	C167.5,78.3,167.5,78.3,167.5,78.3L167.5,78.3z"/>
<path class="st2" d="M176.1,76.9c-0.8,0-1.4,0.6-1.4,1.4l0.1,9.2c0,0.8,0.6,1.4,1.4,1.4c0.4,0,0.8-0.2,1.1-0.6
	c-0.1,0.1-0.3,0.1-0.4,0.1c-0.5,0-0.9-0.4-0.9-0.9c0,0,0,0,0,0l-0.1-9.2c0-0.5,0.4-0.9,0.9-0.9c0,0,0,0,0,0c0.1,0,0.3,0,0.4,0.1
	C176.9,77.1,176.5,76.9,176.1,76.9L176.1,76.9z M171.5,76.9c-0.8,0-1.4,0.6-1.4,1.4l0.1,9.2c0,0.8,0.6,1.4,1.4,1.4
	c0.4,0,0.8-0.2,1.1-0.6c-0.1,0.1-0.3,0.1-0.4,0.1c-0.5,0-0.9-0.4-0.9-0.9l-0.1-9.2c0-0.5,0.4-0.9,0.9-0.9c0.1,0,0.3,0,0.4,0.1
	C172.3,77.1,171.9,76.9,171.5,76.9L171.5,76.9z M180.8,77.7c-0.8,0-1.4,0.6-1.4,1.4l0.1,7.3c0,0.8,0.6,1.4,1.4,1.4
	c0.4,0,0.8-0.2,1.1-0.6c-0.1,0.1-0.3,0.1-0.4,0.1c-0.5,0-0.9-0.4-0.9-0.9c0,0,0,0,0,0l-0.1-7.3c0-0.5,0.4-0.9,0.9-0.9
	c0.1,0,0.3,0,0.4,0.1C181.6,77.9,181.2,77.7,180.8,77.7z M166.8,77.8c-0.8,0-1.4,0.6-1.4,1.4l0.1,7.3c0,0.8,0.6,1.4,1.3,1.4
	c0,0,0,0,0.1,0c0.4,0,0.8-0.2,1.1-0.6c-0.4,0.2-1,0.1-1.2-0.4c-0.1-0.1-0.1-0.3-0.1-0.4l-0.1-7.3c0-0.5,0.4-0.9,0.9-0.9c0,0,0,0,0,0
	c0.1,0,0.3,0,0.4,0.1C167.7,78.1,167.3,77.9,166.8,77.8L166.8,77.8z"/>
<path class="st10" d="M164.1,73.8c-1,0-1.9,0.9-1.9,1.9c0,0,0,0,0,0l24.5-0.2c0-1-0.8-1.9-1.9-1.9c0,0,0,0,0,0L164.1,73.8z"/>
<path class="st10" d="M166.4,92c2.5,2.3,5.2,4.2,5.3,9.5h6.1c0-5.3,2.6-7.3,5.1-9.6L166.4,92z"/>
<path class="st2" d="M183.5,73.6c1,0,1.9,0.8,1.9,1.9c0,0,0,0,0,0l0.1,7c0.1,10.6-9.1,8-9.1,19h1.3c-0.1-9.8,9.1-8,9.1-19l-0.1-7
	c0-1-0.8-1.9-1.9-1.9c0,0,0,0,0,0H183.5z"/>
<path class="st11" d="M171.6,101.5c-0.2,0-0.3,0.2-0.3,0.3c0,0,0,0,0,0l0.3,36.8c0,1.9,1.5,3.4,3.4,3.4c0.3,0,0.6,0,0.9-0.1
	c0,0-2.5,0.1-2.6-3.2l-0.3-36.8c0-0.2,0.1-0.3,0.3-0.3c0,0,0,0,0,0L171.6,101.5z"/>
<path class="st8" d="M171.6,101.5c-0.2,0-0.3,0.2-0.3,0.3c0,0,0,0,0,0l0.3,36.8c0,1.7,1.4,3.1,3.1,3.3c-1.7-0.1-3-1.5-3-3.2
	l-0.3-35.8c0-0.2,0.1-0.3,0.3-0.3l0,0l5.9-0.1c0.2,0,0.3,0.1,0.3,0.3v0l0.3,35.8c0,1.7-1.2,3.1-2.9,3.3c1.7-0.2,3-1.7,3-3.4
	l-0.3-36.8c0-0.2-0.2-0.3-0.3-0.3L171.6,101.5z"/>
<path class="st1" d="M171.6,101.1c-0.4,0-0.8,0.4-0.8,0.8l0.3,36.8c0.1,2.1,1.9,3.7,4,3.6c2-0.1,3.5-1.7,3.6-3.7l-0.3-36.9
	c0-0.4-0.4-0.8-0.8-0.8c0,0,0,0,0,0L171.6,101.1z M177.9,138.6c0.1,1.6-1.1,3-2.8,3.1s-3-1.1-3.1-2.8c0-0.1,0-0.2,0-0.3l-0.3-36.6
	h5.9L177.9,138.6z"/>
<path class="st12" d="M173.9,110.5c0-0.2,0.1-0.4,0.2-0.6c0.2-0.2,0.4-0.3,0.6-0.3c0.5,0,0.9,0.4,0.9,0.8c0,0.5-0.4,0.9-0.9,0.9
	C174.3,111.3,173.9,111,173.9,110.5C173.9,110.5,173.9,110.5,173.9,110.5z"/>
<path class="st1" d="M174.8,109.4c-0.6,0-1.1,0.5-1.1,1.1c0,0.6,0.5,1.1,1.1,1.1c0.6,0,1.1-0.5,1.1-1.1
	C175.8,109.9,175.3,109.4,174.8,109.4z M174.8,109.8c0.3,0,0.6,0.3,0.6,0.6c0,0.3-0.3,0.6-0.6,0.6c-0.3,0-0.6-0.3-0.6-0.6
	C174.1,110.1,174.4,109.9,174.8,109.8C174.7,109.8,174.7,109.8,174.8,109.8z"/>
<path class="st1" d="M164.1,73.3c-1.3,0-2.3,1.1-2.3,2.4c0,0,0,0,0,0l0.1,7c0.1,5.6,2.5,8,4.8,10.1s4.5,3.9,4.5,8.7h0.9
	c-0.1-5-2.5-7.2-4.8-9.3s-4.5-4.2-4.5-9.5l-0.1-7c0-0.8,0.6-1.4,1.4-1.5c0,0,0,0,0.1,0l20.7-0.2c0.8,0,1.5,0.6,1.5,1.4c0,0,0,0,0,0
	l0.1,7c0,5.3-2.1,7.4-4.4,9.6s-4.7,4.3-4.7,9.4h0.9c-0.1-4.8,2.1-6.6,4.4-8.8s4.7-4.6,4.7-10.2l-0.1-7c0-1.3-1.1-2.3-2.4-2.3
	L164.1,73.3z"/>
<path class="st12" d="M173.9,105c0-0.2,0.1-0.4,0.2-0.6c0.2-0.2,0.4-0.3,0.6-0.3c0.5,0,0.9,0.4,0.9,0.8c0,0.2-0.1,0.4-0.2,0.6
	c-0.2,0.2-0.4,0.3-0.6,0.2C174.3,105.9,173.9,105.5,173.9,105C173.9,105,173.9,105,173.9,105z"/>
<path class="st1" d="M174.7,103.9c-0.6,0-1.1,0.5-1.1,1.1c0,0.6,0.5,1.1,1.1,1.1c0.6,0,1.1-0.5,1.1-1.1
	C175.8,104.3,175.3,103.9,174.7,103.9C174.7,103.9,174.7,103.9,174.7,103.9z M174.7,104.3c0.3,0,0.6,0.3,0.6,0.6
	c0,0.4-0.4,0.6-0.7,0.6c-0.3,0-0.5-0.3-0.6-0.6C174.1,104.6,174.4,104.3,174.7,104.3L174.7,104.3z"/>
<path class="st1" d="M181.4,77.8c-0.8,0-1.4,0.6-1.4,1.4c0,0,0,0,0,0l0.1,7.3c0.1,0.8,0.7,1.3,1.5,1.2c0.7-0.1,1.2-0.6,1.2-1.2
	l-0.1-7.3C182.8,78.4,182.2,77.8,181.4,77.8L181.4,77.8z M181.4,78.6c0.3,0,0.5,0.2,0.5,0.5c0,0,0,0,0,0l0.1,7.3
	c0,0.3-0.2,0.5-0.5,0.5c0,0,0,0,0,0c-0.3,0-0.5-0.2-0.5-0.5c0,0,0,0,0,0l0-7.3C181,78.9,181.2,78.7,181.4,78.6
	C181.5,78.7,181.5,78.6,181.4,78.6L181.4,78.6z"/>
<path class="st1" d="M176.8,76.9c-0.8,0-1.4,0.6-1.4,1.4c0,0,0,0,0,0l0.1,9.2c0,0.8,0.6,1.4,1.4,1.3c0,0,0,0,0,0
	c0.8,0,1.4-0.6,1.4-1.4l-0.1-9.2C178.2,77.5,177.5,76.9,176.8,76.9C176.8,76.9,176.8,76.9,176.8,76.9z M176.8,77.8
	c0.2,0,0.5,0.2,0.5,0.4c0,0,0,0,0,0l0.1,9.2c0,0.3-0.2,0.5-0.5,0.5s-0.5-0.2-0.5-0.5l-0.1-9.2C176.3,78,176.5,77.8,176.8,77.8
	C176.8,77.8,176.8,77.8,176.8,77.8L176.8,77.8z"/>
<path class="st1" d="M167.5,77.9c0.8,0,1.4,0.6,1.4,1.3l0.1,7.3c-0.1,0.8-0.7,1.3-1.5,1.2c-0.7-0.1-1.2-0.6-1.2-1.2l-0.1-7.3
	C166.2,78.5,166.8,77.9,167.5,77.9C167.5,77.9,167.5,77.9,167.5,77.9L167.5,77.9z M167.5,78.8c-0.3,0-0.5,0.2-0.5,0.4c0,0,0,0,0,0
	l0.1,7.3c0,0.3,0.2,0.5,0.5,0.5c0,0,0,0,0,0c0.3,0,0.5-0.2,0.5-0.4c0,0,0,0,0,0l-0.1-7.3C168,79,167.8,78.8,167.5,78.8
	C167.6,78.8,167.5,78.8,167.5,78.8z"/>
<path class="st1" d="M172.1,76.9c0.8,0,1.4,0.6,1.4,1.3l0.1,9.2c0,0.8-0.6,1.4-1.4,1.4c-0.7,0-1.4-0.6-1.4-1.3l-0.1-9.2
	C170.8,77.5,171.4,76.9,172.1,76.9C172.1,76.9,172.1,76.9,172.1,76.9L172.1,76.9z M172.1,77.8c-0.3,0-0.5,0.2-0.5,0.4c0,0,0,0,0,0
	l0.1,9.2c0,0.3,0.3,0.4,0.5,0.4c0.2,0,0.4-0.2,0.4-0.4l-0.1-9.2C172.6,78,172.4,77.8,172.1,77.8C172.2,77.8,172.2,77.8,172.1,77.8
	L172.1,77.8z"/>
<path class="st1" d="M127.2,154.1c-0.1-3.4-3-6.1-6.4-5.9c-3.2,0.1-5.8,2.7-5.9,5.9v9.2c-0.1,3.4,2.5,6.3,5.9,6.4
	c3.4,0.1,6.3-2.5,6.4-5.9c0-0.2,0-0.3,0-0.5V154.1z"/>
<path class="st1" d="M70.8,154.1c-0.1-3.4-3-6.1-6.4-5.9c-3.2,0.1-5.8,2.7-5.9,5.9v9.2c-0.1,3.4,2.5,6.3,5.9,6.4
	c3.4,0.1,6.3-2.5,6.4-5.9c0-0.2,0-0.3,0-0.5V154.1z"/>
<path class="st1" d="M58.8,156.7L57,191.9h71.7l-1.7-32.3l-0.2-2.9L58.8,156.7z M122.1,185.7H63.5l1.2-22.8h56.2L122.1,185.7z"/>
<path class="st5" d="M124,163.3c0.1,1.7-1.2,3.2-2.9,3.3c-1.7,0.1-3.2-1.2-3.3-2.9c0-0.1,0-0.2,0-0.4v-9.2c0.1-1.7,1.6-3,3.3-2.9
	c1.6,0.1,2.8,1.3,2.9,2.9V163.3z"/>
<path class="st1" d="M124.5,154.1c-0.2-1.9-1.9-3.3-3.9-3.1c-1.6,0.2-2.9,1.5-3.1,3.1v9.2c-0.2,1.9,1.2,3.7,3.1,3.9
	c1.9,0.2,3.7-1.2,3.9-3.1c0-0.2,0-0.5,0-0.7V154.1z M123.6,163.3c0.1,1.4-1,2.7-2.5,2.8c-1.4,0.1-2.7-1-2.8-2.5c0-0.1,0-0.2,0-0.3
	v-9.2c0.1-1.4,1.3-2.6,2.8-2.5c1.3,0.1,2.4,1.1,2.5,2.5V163.3z"/>
<path class="st5" d="M67.7,163.3c0,1.7-1.4,3.1-3.1,3.1c-1.7,0-3.1-1.4-3.1-3.1c0,0,0,0,0,0v-9.2c0-1.7,1.4-3.1,3.1-3.1
	c1.7,0,3.1,1.4,3.1,3.1c0,0,0,0,0,0V163.3z"/>
<path class="st1" d="M68.2,154.1c-0.2-1.9-1.9-3.3-3.9-3.1c-1.6,0.2-2.9,1.5-3.1,3.1v9.2c-0.2,1.9,1.2,3.7,3.1,3.9
	c1.9,0.2,3.7-1.2,3.9-3.1c0-0.2,0-0.5,0-0.7V154.1z M67.3,163.3c0,1.5-1.2,2.6-2.6,2.6c-1.5,0-2.6-1.2-2.6-2.6l0,0v-9.2
	c0-1.5,1.2-2.6,2.6-2.6c1.5,0,2.6,1.2,2.6,2.6V163.3z"/>
<path class="st2" d="M61.8,159.8l-1.5,29h65.1l-1.5-29H61.8z"/>
<path class="st5" d="M115,159.8l1.5,29h8.8l-1.5-29H115z"/>
<path class="st5" d="M61.8,159.8l-1.5,29h14.2l1.4-29H61.8z"/>
<path class="st5" d="M61,175.1l-0.3,5.1h64.2l-0.3-5.1H61z"/>
<path class="st5" d="M115.8,175.1l0.3,5.1h8.8l-0.3-5.1H115.8z"/>
<path class="st5" d="M61,175.1l-0.3,5.1h14.1l0.2-5.1H61z"/>
<path class="st1" d="M61.3,159.4l-1.6,29.9h66.1l-1.6-29.5v-0.4H61.3z M124.9,188.4H60.7l1.5-28.1h61.2L124.9,188.4z"/>
<path class="st2" d="M121,162.1c0.7,0,1.2,0.5,1.2,1.2s-0.5,1.2-1.2,1.2c-0.7,0-1.2-0.5-1.2-1.2C119.8,162.6,120.3,162.1,121,162.1z
	"/>
<path class="st1" d="M122.6,163.3c0-0.9-0.8-1.7-1.7-1.7c-0.9,0-1.7,0.8-1.7,1.7c0,0.9,0.8,1.7,1.7,1.7c0,0,0,0,0,0
	C121.9,165,122.7,164.3,122.6,163.3L122.6,163.3z M121.8,163.3c0,0.4-0.3,0.8-0.8,0.8c-0.4,0-0.8-0.3-0.8-0.8c0-0.4,0.3-0.8,0.8-0.8
	c0,0,0,0,0,0C121.4,162.5,121.7,162.9,121.8,163.3C121.7,163.3,121.8,163.3,121.8,163.3z"/>
<path class="st2" d="M64.6,162.1c0.7-0.1,1.3,0.4,1.3,1.1c0.1,0.7-0.4,1.3-1.1,1.3c-0.1,0-0.1,0-0.2,0c-0.3,0-0.6-0.1-0.9-0.4
	c-0.2-0.2-0.3-0.5-0.3-0.9C63.4,162.6,64,162.1,64.6,162.1z"/>
<path class="st1" d="M66.3,163.3c0-0.9-0.8-1.7-1.7-1.7c-0.9,0-1.7,0.8-1.7,1.7c0,0.9,0.8,1.7,1.7,1.7
	C65.6,165,66.3,164.3,66.3,163.3L66.3,163.3z M65.4,163.3c0,0.4-0.3,0.8-0.8,0.8s-0.8-0.3-0.8-0.8c0-0.4,0.3-0.8,0.8-0.8l0,0
	C65.1,162.5,65.4,162.9,65.4,163.3C65.4,163.3,65.4,163.3,65.4,163.3z"/>
<path class="st1" d="M60.5,174.6l-0.3,6h65.2l-0.3-5.5v-0.4L60.5,174.6z M124.4,179.7H61.2l0.2-4.2h62.8L124.4,179.7z"/>
<rect x="83.1" y="164.2" class="st5" width="19.3" height="2.5"/>
<path class="st1" d="M45,0H16H0v16c0,7,0,14,0,21c10.2,12.4,28.6,14.2,41,4S55.2,12.4,45,0z"/>
<g class="st13">
	<path class="st1" d="M31.3,221.9l-0.2,3.1c0.9-1.2,2-2.2,3.1-2.8s2.4-0.9,3.7-0.9c1.6,0,3,0.4,4.2,1.3s1.9,1.9,2.2,3
		c0.3,1.1,0.4,3.1,0.4,5.8V246c0,3.1-0.2,5.4-0.6,6.7c-0.4,1.3-1.1,2.4-2.3,3.2c-1.2,0.8-2.5,1.2-4.2,1.2c-1.3,0-2.5-0.3-3.6-0.9
		c-1.1-0.6-2.1-1.5-3-2.7v7.9H20.6v-39.5H31.3z M34.3,232c0-2.1-0.1-3.4-0.2-3.9s-0.6-0.7-1.3-0.7c-0.7,0-1.1,0.3-1.3,0.8
		s-0.3,1.8-0.3,3.8v14.3c0,2.1,0.1,3.4,0.3,3.9c0.2,0.5,0.7,0.8,1.4,0.8c0.7,0,1.1-0.2,1.3-0.7c0.2-0.5,0.2-1.6,0.2-3.5V232z"/>
	<path class="st1" d="M59.1,214.3v5.5H48.3v-5.5H59.1z M59.1,221.9v34.5H48.3v-34.5H59.1z"/>
	<path class="st1" d="M86.7,239.8H73.1v7.5c0,1.6,0.1,2.6,0.3,3c0.2,0.5,0.7,0.7,1.3,0.7c0.8,0,1.3-0.3,1.6-0.9
		c0.3-0.6,0.4-1.8,0.4-3.5V242h10v2.6c0,2.1-0.1,3.8-0.4,4.9c-0.3,1.1-0.9,2.4-1.9,3.7c-1,1.3-2.2,2.3-3.8,2.9s-3.4,1-5.7,1
		c-2.2,0-4.2-0.3-5.9-1c-1.7-0.6-3-1.5-4-2.6c-0.9-1.1-1.6-2.4-2-3.7c-0.4-1.3-0.5-3.3-0.5-5.9v-10.1c0-3,0.4-5.4,1.2-7.1
		c0.8-1.7,2.2-3.1,4-4c1.9-0.9,4-1.4,6.4-1.4c2.9,0,5.4,0.6,7.3,1.7c1.9,1.1,3.3,2.6,4,4.5c0.8,1.8,1.2,4.4,1.2,7.8V239.8z
		 M76.2,234.2v-2.5c0-1.8-0.1-2.9-0.3-3.5c-0.2-0.5-0.6-0.8-1.2-0.8c-0.7,0-1.2,0.2-1.4,0.7c-0.2,0.4-0.3,1.6-0.3,3.6v2.5H76.2z"/>
	<path class="st1" d="M100.7,221.9l-0.4,4.5c1.5-3.3,3.7-5,6.6-5.2v12.2c-1.9,0-3.3,0.3-4.2,0.8s-1.5,1.2-1.7,2.2
		c-0.2,0.9-0.3,3.1-0.3,6.4v13.6H90.1v-34.5H100.7z"/>
	<path class="st1" d="M133,234v8.5c0,3.1-0.2,5.4-0.5,6.8c-0.3,1.4-1,2.8-2,4.1c-1,1.3-2.3,2.2-3.9,2.8c-1.6,0.6-3.4,0.9-5.5,0.9
		c-2.3,0-4.3-0.3-5.9-0.8c-1.6-0.5-2.9-1.3-3.8-2.3s-1.5-2.3-1.9-3.7c-0.4-1.5-0.6-3.7-0.6-6.6v-8.8c0-3.2,0.3-5.7,1-7.5
		c0.7-1.8,1.9-3.3,3.7-4.3s4.1-1.6,6.9-1.6c2.4,0,4.4,0.4,6.1,1.1c1.7,0.7,3,1.6,3.9,2.7c0.9,1.1,1.5,2.3,1.9,3.5S133,231.6,133,234
		z M122.5,231.4c0-1.8-0.1-2.9-0.3-3.3c-0.2-0.5-0.6-0.7-1.2-0.7c-0.6,0-1,0.2-1.2,0.7s-0.3,1.6-0.3,3.3V247c0,1.6,0.1,2.7,0.3,3.2
		c0.2,0.5,0.6,0.7,1.2,0.7c0.6,0,1-0.2,1.2-0.7c0.2-0.5,0.3-1.4,0.3-2.9V231.4z"/>
	<path class="st1" d="M160.4,221.9v26.6c0,3.6-0.1,5.9-0.2,7c-0.2,1-0.8,2.2-1.8,3.3c-1,1.2-2.4,2.1-4.2,2.7
		c-1.8,0.6-4.1,0.9-6.8,0.9c-3.3,0-6-0.6-8.1-1.7s-3.1-3.4-3.1-6.7h10.2c0,1.5,0.6,2.3,1.7,2.3c0.8,0,1.3-0.2,1.6-0.7
		c0.3-0.5,0.4-1.5,0.4-2.9V250c-0.9,0.8-1.9,1.4-2.8,1.9c-1,0.4-2,0.6-3.1,0.6c-1.9,0-3.4-0.4-4.7-1.1c-1.2-0.8-2.1-1.8-2.5-3
		c-0.5-1.2-0.7-3-0.7-5.3v-12.5c0-3.3,0.6-5.6,1.8-7.1s3-2.2,5.4-2.2c1.3,0,2.5,0.3,3.6,0.8c1.1,0.5,2.1,1.3,2.9,2.4l0.8-2.6H160.4z
		 M149.8,231.1c0-1.6-0.1-2.6-0.3-3c-0.2-0.4-0.6-0.7-1.2-0.7c-0.6,0-1,0.2-1.3,0.7c-0.3,0.5-0.4,1.5-0.4,2.9v11.6
		c0,1.5,0.1,2.5,0.3,3c0.2,0.5,0.6,0.7,1.2,0.7c0.7,0,1.1-0.3,1.4-0.8c0.2-0.6,0.3-1.8,0.3-3.8V231.1z"/>
	<path class="st1" d="M174.9,214.3v5.5h-10.8v-5.5H174.9z M174.9,221.9v34.5h-10.8v-34.5H174.9z"/>
</g>
<g class="st13">
	<path class="st2" d="M22.4,15.9v15.8h-3.9v-8.5c0-1.2,0-2-0.1-2.2s-0.2-0.4-0.5-0.6s-0.9-0.2-1.8-0.2h-0.4v-1.8
		c1.9-0.4,3.4-1.3,4.3-2.5H22.4z"/>
	<path class="st2" d="M33.4,20.1h-3.9c0-0.7,0-1.2,0-1.4s-0.1-0.4-0.2-0.5s-0.3-0.2-0.6-0.2c-0.2,0-0.4,0.1-0.5,0.2
		s-0.2,0.3-0.2,0.5s0,0.6,0,1.2v2.5c0.2-0.4,0.5-0.7,0.9-1s0.9-0.3,1.4-0.3c0.7,0,1.4,0.2,1.9,0.6s0.9,0.9,1.1,1.4s0.2,1.3,0.2,2.2
		v1.3c0,1.1,0,1.9-0.1,2.5s-0.3,1-0.7,1.5s-0.9,0.8-1.5,1.1s-1.4,0.4-2.2,0.4c-1.1,0-1.9-0.1-2.6-0.4s-1.2-0.7-1.6-1.3
		s-0.6-1.1-0.6-1.7s-0.1-1.8-0.1-3.5v-2.2c0-1.9,0-3.1,0.1-3.8s0.3-1.2,0.7-1.8s0.9-1,1.6-1.3s1.5-0.4,2.4-0.4c1.1,0,2,0.2,2.7,0.5
		s1.2,0.9,1.5,1.5S33.4,19.1,33.4,20.1z M29.4,25.1c0-0.6-0.1-0.9-0.2-1.2s-0.3-0.3-0.6-0.3c-0.3,0-0.5,0.1-0.6,0.3
		s-0.2,0.6-0.2,1.2v2.9c0,0.7,0.1,1.2,0.2,1.4s0.3,0.3,0.6,0.3c0.2,0,0.3-0.1,0.5-0.2s0.3-0.6,0.3-1.3V25.1z"/>
</g>
</svg>
