<?xml version="1.0" encoding="utf-8"?>
<!-- Generator: Adobe Illustrator 26.0.3, SVG Export Plug-In . SVG Version: 6.00 Build 0)  -->
<svg version="1.1" id="Слой_1" xmlns="http://www.w3.org/2000/svg" xmlns:xlink="http://www.w3.org/1999/xlink" x="0px" y="0px"
	 viewBox="0 0 195.6 280.6" style="enable-background:new 0 0 195.6 280.6;" xml:space="preserve">
<style type="text/css">
	.st0{clip-path:url(#SVGID_00000132777698265666555920000013416393800044251552_);fill:#C9345F;}
	.st1{clip-path:url(#SVGID_00000132777698265666555920000013416393800044251552_);enable-background:new    ;}
	.st2{fill:#53B582;}
	.st3{font-family:'Impact';}
	.st4{font-size:53.3px;}
	.st5{clip-path:url(#SVGID_00000132777698265666555920000013416393800044251552_);fill:#D4C1BB;}
	.st6{clip-path:url(#SVGID_00000132777698265666555920000013416393800044251552_);fill:#1A1A1A;}
	.st7{clip-path:url(#SVGID_00000132777698265666555920000013416393800044251552_);fill:#C0C0C0;}
	.st8{clip-path:url(#SVGID_00000132777698265666555920000013416393800044251552_);fill:#F5BA4E;}
	.st9{clip-path:url(#SVGID_00000132777698265666555920000013416393800044251552_);fill:#FFDB82;}
	.st10{clip-path:url(#SVGID_00000132777698265666555920000013416393800044251552_);fill:#DC9133;}
	.st11{clip-path:url(#SVGID_00000132777698265666555920000013416393800044251552_);fill:#EC6665;}
	.st12{clip-path:url(#SVGID_00000132777698265666555920000013416393800044251552_);fill:#D2C0C1;}
	.st13{clip-path:url(#SVGID_00000132777698265666555920000013416393800044251552_);fill:#9D7F81;}
	.st14{clip-path:url(#SVGID_00000132777698265666555920000013416393800044251552_);fill:#FFFFFF;}
	.st15{clip-path:url(#SVGID_00000132777698265666555920000013416393800044251552_);fill:#F3AF28;}
	.st16{clip-path:url(#SVGID_00000132777698265666555920000013416393800044251552_);fill:#FFD740;}
	.st17{clip-path:url(#SVGID_00000132777698265666555920000013416393800044251552_);fill:#DD7F1B;}
	.st18{clip-path:url(#SVGID_00000132777698265666555920000013416393800044251552_);fill:#902F54;}
	.st19{clip-path:url(#SVGID_00000132777698265666555920000013416393800044251552_);fill:#53B582;}
	.st20{clip-path:url(#SVGID_00000132777698265666555920000013416393800044251552_);fill:none;}
	.st21{clip-path:url(#SVGID_00000132777698265666555920000013416393800044251552_);fill:#88C58D;}
	.st22{clip-path:url(#SVGID_00000132777698265666555920000013416393800044251552_);fill:#2C8468;}
	.st23{clip-path:url(#SVGID_00000132777698265666555920000013416393800044251552_);fill:#E5DAD6;}
	.st24{clip-path:url(#SVGID_00000132777698265666555920000013416393800044251552_);fill:#E73A2E;}
	.st25{clip-path:url(#SVGID_00000132777698265666555920000013416393800044251552_);fill:#B4958F;}
	.st26{clip-path:url(#SVGID_00000132777698265666555920000013416393800044251552_);fill:#EC604B;}
	.st27{clip-path:url(#SVGID_00000132777698265666555920000013416393800044251552_);fill:#F39461;}
	.st28{clip-path:url(#SVGID_00000132777698265666555920000013416393800044251552_);fill:#AF1739;}
	.st29{clip-path:url(#SVGID_00000132777698265666555920000013416393800044251552_);fill:#EB5775;}
	.st30{clip-path:url(#SVGID_00000132777698265666555920000013416393800044251552_);fill:#BADBE9;}
	.st31{clip-path:url(#SVGID_00000132777698265666555920000013416393800044251552_);fill:#8BB0CC;}
	.st32{clip-path:url(#SVGID_00000132777698265666555920000013416393800044251552_);fill:#F293A2;}
	.st33{fill:#FFFFFF;}
	.st34{font-size:20px;}
</style>
<g>
	<defs>
		<rect id="SVGID_1_" x="0" y="0" width="195.6" height="280.6"/>
	</defs>
	<clipPath id="SVGID_00000071535324634305325740000005332017962494023602_">
		<use xlink:href="#SVGID_1_"  style="overflow:visible;"/>
	</clipPath>
	
		<rect x="-6.3" y="-6.2" style="clip-path:url(#SVGID_00000071535324634305325740000005332017962494023602_);fill:#C9345F;" width="208.3" height="299.5"/>
	<g style="clip-path:url(#SVGID_00000071535324634305325740000005332017962494023602_);enable-background:new    ;">
		<text transform="matrix(1 0 0 1 16.55 253.58)" class="st2 st3 st4">barszcz</text>
	</g>
	<path style="clip-path:url(#SVGID_00000071535324634305325740000005332017962494023602_);fill:#D4C1BB;" d="M95.1,166.8
		c0,11.4-3.8,27.7-8.5,27.7s-8.5-16.2-8.5-27.7s5-13.7,8.5-13.7S95.1,155.4,95.1,166.8z"/>
	<path style="clip-path:url(#SVGID_00000071535324634305325740000005332017962494023602_);fill:#1A1A1A;" d="M86.6,150.8
		c-2.8,0-5.5,1.2-7.4,3.4c-2.2,2.6-3.5,6.6-3.5,12.7c0.1,6.3,0.9,12.6,2.6,18.8c0.7,2.6,1.7,5.1,3,7.4c1.2,2,2.8,3.9,5.3,3.9
		s4.1-1.9,5.3-3.9c1.3-2.3,2.3-4.8,3-7.4c1.7-6.1,2.5-12.4,2.6-18.8c0-6.1-1.3-10.1-3.5-12.7C92.2,152,89.5,150.8,86.6,150.8
		L86.6,150.8z M86.6,155.5c1.5-0.1,2.8,0.6,3.7,1.7c1.2,1.4,2.4,4.2,2.4,9.6c-0.1,5.9-0.9,11.8-2.4,17.5c-0.6,2.2-1.4,4.3-2.5,6.2
		c-0.3,0.6-0.8,1.1-1.3,1.5c-0.5-0.4-1-0.9-1.3-1.5c-1.1-2-1.9-4.1-2.5-6.2c-1.5-5.7-2.3-11.6-2.4-17.5c0-5.4,1.2-8.2,2.4-9.6
		C83.8,156.1,85.2,155.4,86.6,155.5z"/>
	<path style="clip-path:url(#SVGID_00000071535324634305325740000005332017962494023602_);fill:#D4C1BB;" d="M138.2,166.8
		c0,11.4-3.8,27.7-8.5,27.7s-8.5-16.2-8.5-27.7s5-13.7,8.5-13.7S138.2,155.4,138.2,166.8z"/>
	<path style="clip-path:url(#SVGID_00000071535324634305325740000005332017962494023602_);fill:#1A1A1A;" d="M129.7,150.8
		c-2.8,0-5.5,1.2-7.4,3.4c-2.2,2.6-3.5,6.6-3.5,12.7c0.1,6.3,0.9,12.6,2.6,18.8c0.7,2.6,1.7,5.1,3,7.4c1.2,2,2.8,3.9,5.4,3.9
		s4.1-1.9,5.3-3.9c1.3-2.3,2.3-4.8,3-7.4c1.7-6.1,2.5-12.4,2.6-18.8c0-6.1-1.3-10.1-3.5-12.7C135.2,152,132.5,150.8,129.7,150.8
		L129.7,150.8z M129.7,155.5c1.5-0.1,2.8,0.6,3.7,1.7c1.2,1.4,2.4,4.2,2.4,9.6c-0.1,5.9-0.9,11.8-2.4,17.5c-0.6,2.2-1.4,4.3-2.4,6.2
		c-0.3,0.6-0.8,1.1-1.3,1.5c-0.5-0.4-1-0.9-1.3-1.5c-1.1-2-1.9-4.1-2.5-6.2c-1.5-5.7-2.3-11.6-2.4-17.5c0-5.4,1.2-8.2,2.4-9.6
		C126.8,156.1,128.2,155.4,129.7,155.5z"/>
	<path style="clip-path:url(#SVGID_00000071535324634305325740000005332017962494023602_);fill:#C0C0C0;" d="M50.9,117.2
		c-10.5,4.4-27,7.1-28.8,2.7s11.8-14.1,22.3-18.5s14.6-0.6,15.9,2.6S61.5,112.8,50.9,117.2z"/>
	<path style="clip-path:url(#SVGID_00000071535324634305325740000005332017962494023602_);fill:#1A1A1A;" d="M62.5,103.2
		c-1.1-2.6-3.3-4.7-6-5.5c-3.2-1-7.5-0.7-13,1.6c-5.8,2.5-11.3,5.7-16.3,9.6c-2.1,1.6-4.1,3.5-5.7,5.6c-1.4,1.9-2.5,4.1-1.5,6.4
		s3.3,3.1,5.6,3.5c2.7,0.3,5.3,0.3,8-0.1c6.3-0.8,12.4-2.4,18.3-4.8c5.6-2.3,8.8-5.1,10.4-8.1C63.5,108.8,63.6,105.8,62.5,103.2
		L62.5,103.2z M58.1,105c0.6,1.3,0.5,2.9-0.2,4.1c-0.8,1.7-3,3.8-8,5.9c-5.5,2.2-11.2,3.7-17.1,4.5c-2.2,0.3-4.5,0.4-6.7,0.1
		c-0.7-0.1-1.3-0.3-1.9-0.6c0.2-0.6,0.5-1.2,0.9-1.8c1.4-1.8,3-3.3,4.8-4.7c4.7-3.6,9.8-6.6,15.2-8.9c5-2.1,8-2,9.8-1.5
		C56.4,102.6,57.5,103.6,58.1,105L58.1,105z"/>
	<path style="clip-path:url(#SVGID_00000071535324634305325740000005332017962494023602_);fill:#C0C0C0;" d="M177.9,104.7
		c4.4,10.6,7.1,27,2.7,28.8s-14.1-11.8-18.4-22.3s-0.6-14.6,2.6-15.9S173.5,94.2,177.9,104.7z"/>
	<path style="clip-path:url(#SVGID_00000071535324634305325740000005332017962494023602_);fill:#1A1A1A;" d="M163.9,93.1
		c-2.6,1.1-4.6,3.3-5.5,6c-1,3.2-0.7,7.4,1.6,13c2.5,5.8,5.7,11.3,9.6,16.3c1.6,2.1,3.5,4.1,5.6,5.7c1.9,1.4,4.1,2.5,6.4,1.5
		s3.1-3.3,3.5-5.6c0.3-2.7,0.3-5.3-0.1-8c-0.8-6.3-2.4-12.4-4.8-18.3c-2.3-5.6-5.1-8.8-8.1-10.3C169.5,92.1,166.5,92,163.9,93.1
		L163.9,93.1z M165.7,97.5c1.3-0.6,2.9-0.5,4.1,0.2c1.7,0.8,3.8,3,5.9,8c2.2,5.5,3.7,11.2,4.5,17.1c0.3,2.2,0.4,4.5,0.1,6.7
		c-0.1,0.7-0.3,1.3-0.6,1.9c-0.6-0.2-1.2-0.5-1.8-0.9c-1.8-1.4-3.3-3-4.7-4.8c-3.6-4.7-6.6-9.8-8.9-15.2c-2.1-5-2-8-1.5-9.8
		C163.3,99.2,164.3,98.1,165.7,97.5L165.7,97.5z"/>
	<path style="clip-path:url(#SVGID_00000071535324634305325740000005332017962494023602_);fill:#1A1A1A;" d="M88,39.2
		c-5.5,0-10.6,2.1-13.7,6.2l0,0c-0.7,0.9-1.3,2-1.8,3.1l0.2-0.4c-2.9,5-4,10.9-3,16.7C61,68.8,54.6,76.4,52,85.6h-5.8l-0.9,2.5
		c-12.3,34.7,5.9,72.8,40.6,85c34.7,12.3,72.8-5.9,85-40.6c5.1-14.4,5.1-30.1,0-44.4l-0.9-2.5h-6.7c-4.8-21.7-26.3-35.3-48-30.4
		c-0.5,0.1-0.9,0.2-1.4,0.3c-2.1-3.8-5-7.2-8.5-9.8C100.6,41.6,94.4,39.4,88,39.2z M88,46.8c4.7,0.2,9.2,1.9,12.9,4.8
		c3.3,2.5,5.9,5.9,7.5,9.7l1.3,3.5l3.5-1.2c17-6,35.6,2.8,41.7,19.8c0.7,2.1,1.3,4.2,1.6,6.4l0.5,3.3h7.7
		c9.4,31.2-8.3,64.1-39.5,73.5c-31.2,9.4-64.1-8.3-73.5-39.5c-3.3-11.1-3.3-22.9,0-34h6.6l0.6-3.2c1.6-9,7.9-16.4,16.5-19.3l3.5-1.2
		l-1.1-3.6c-1.5-4.7-1-9.8,1.5-14l0.1-0.2l0.1-0.2c0.2-0.5,0.5-1,0.9-1.5C81.8,48,84.4,46.8,88,46.8L88,46.8z"/>
	<path style="clip-path:url(#SVGID_00000071535324634305325740000005332017962494023602_);fill:#C9345F;" d="M112.4,94.4
		c0,16-12.9,28.9-28.9,29c-16,0-28.9-12.9-29-28.9s12.9-28.9,28.9-29c7.7,0,15.1,3,20.5,8.5C109.4,79.4,112.4,86.8,112.4,94.4
		L112.4,94.4z"/>
	<path style="clip-path:url(#SVGID_00000071535324634305325740000005332017962494023602_);fill:#F5BA4E;" d="M104.9,94.4
		c0,11.8-9.6,21.4-21.4,21.4s-21.4-9.6-21.4-21.4C62,82.6,71.6,73,83.5,73c5.7,0,11.1,2.3,15.2,6.3
		C102.6,83.3,104.9,88.7,104.9,94.4z"/>
	<path style="clip-path:url(#SVGID_00000071535324634305325740000005332017962494023602_);fill:#FFDB82;" d="M97.4,94.4
		c0,7.7-6.2,13.9-13.9,13.9S69.6,102,69.6,94.4s6.2-13.9,13.9-13.9c3.7,0,7.2,1.5,9.8,4.1C95.9,87.2,97.4,90.7,97.4,94.4z"/>
	<path style="clip-path:url(#SVGID_00000071535324634305325740000005332017962494023602_);fill:#DC9133;" d="M83.5,64.5
		c-16.5,0-29.9,13.4-29.9,29.8c0,16.5,13.4,29.9,29.8,29.9s29.9-13.4,29.9-29.8c0,0,0,0,0,0C113.3,77.9,100,64.5,83.5,64.5z
		 M83.5,66.4c15.5,0,28,12.5,28,28s-12.5,28-28,28s-28-12.5-28-28c0-15.4,12.4-28,27.9-28C83.4,66.4,83.5,66.4,83.5,66.4z"/>
	<path style="clip-path:url(#SVGID_00000071535324634305325740000005332017962494023602_);fill:#EC6665;" d="M83.5,72.1
		c-12.3,0-22.3,10-22.3,22.3c0,12.3,10,22.3,22.3,22.3c12.3,0,22.3-10,22.3-22.3c0,0,0,0,0,0C105.8,82.1,95.8,72.1,83.5,72.1z
		 M83.5,74c11.3,0,20.4,9.2,20.4,20.4s-9.2,20.4-20.4,20.4s-20.4-9.2-20.4-20.4c0,0,0,0,0,0C63.1,83.1,72.2,74,83.5,74L83.5,74z"/>
	<path style="clip-path:url(#SVGID_00000071535324634305325740000005332017962494023602_);fill:#DC9133;" d="M83.5,79.6
		c-8.2,0-14.8,6.6-14.8,14.8s6.6,14.8,14.8,14.8s14.8-6.6,14.8-14.8l0,0C98.3,86.2,91.7,79.6,83.5,79.6z M83.5,81.5
		c7.1,0,12.9,5.8,12.9,12.9s-5.8,12.9-12.9,12.9s-12.9-5.8-12.9-12.9C70.6,87.3,76.4,81.5,83.5,81.5C83.5,81.5,83.5,81.5,83.5,81.5z
		"/>
	<path style="clip-path:url(#SVGID_00000071535324634305325740000005332017962494023602_);fill:#D2C0C1;" d="M110.7,73.4
		c-6.7,9.5-19.8,11.8-29.3,5.1c-9.5-6.7-11.8-19.8-5.1-29.3c0.3-0.5,0.7-0.9,1-1.4L110.7,73.4z"/>
	<path style="clip-path:url(#SVGID_00000071535324634305325740000005332017962494023602_);fill:#9D7F81;" d="M77.2,46.3l-0.7,0.8
		c-7.4,9.7-5.6,23.5,4.1,30.9c9.7,7.4,23.5,5.6,30.9-4.1l0.6-0.8l-0.8-0.7L77.2,46.3z M77.7,49.3l31.5,24.2
		c-7.2,8.3-19.8,9.2-28.1,2C73.5,68.9,72,57.7,77.7,49.3L77.7,49.3z"/>
	<path style="clip-path:url(#SVGID_00000071535324634305325740000005332017962494023602_);fill:#FFFFFF;" d="M110.8,73.5
		c-5.1,6.6-16.7,6.2-26-0.9c-4.3-3.2-7.4-7.6-9.1-12.6c-1.4-4.7-0.8-9.1,1.6-12.2s6.5-4.9,11.4-4.7c5.3,0.3,10.4,2.3,14.6,5.6
		C112.5,55.8,115.9,66.9,110.8,73.5L110.8,73.5z"/>
	<path style="clip-path:url(#SVGID_00000071535324634305325740000005332017962494023602_);fill:#F3AF28;" d="M104.3,66.3
		c-1.6,1.9-4.1,2.9-6.6,2.7c-6.2-0.5-11.5-4.5-13.6-10.4c-1.5-3.6,0.3-7.8,3.9-9.3c1.1-0.5,2.4-0.6,3.6-0.5
		c6.2,0.5,11.5,4.6,13.6,10.4C106.1,61.6,105.7,64.3,104.3,66.3L104.3,66.3z"/>
	<path style="clip-path:url(#SVGID_00000071535324634305325740000005332017962494023602_);fill:#9D7F81;" d="M103.8,47.9
		c-4.3-3.4-9.6-5.5-15.1-5.8c-4.9-0.2-9.4,1.5-12.2,5s-3.2,8.3-1.7,13c1.7,5.2,5.1,9.8,9.5,13.1c4.3,3.4,9.6,5.4,15.1,5.8
		c4.9,0.2,9.4-1.5,12.2-5s3.2-8.3,1.7-13C111.5,55.8,108.2,51.2,103.8,47.9z M102.7,49.4c4.1,3.1,7.2,7.3,8.8,12.2
		c1.3,4.3,0.9,8.4-1.4,11.4s-6.2,4.5-10.7,4.3c-5.1-0.3-10-2.2-14-5.4c-4.1-3.1-7.2-7.3-8.8-12.2c-1.3-4.3-0.9-8.4,1.4-11.4
		s6.2-4.5,10.6-4.3C93.8,44.3,98.7,46.2,102.7,49.4L102.7,49.4z"/>
	<path style="clip-path:url(#SVGID_00000071535324634305325740000005332017962494023602_);fill:#FFD740;" d="M101.2,62.1
		c-1.2,1.4-3,2.2-4.9,2c-4.6-0.3-8.6-3.4-10.1-7.7c-0.6-1.8-0.4-3.7,0.7-5.2c2.2-2.8,7.2-2.7,11.1,0.3S103.4,59.3,101.2,62.1z"/>
	<path style="clip-path:url(#SVGID_00000071535324634305325740000005332017962494023602_);fill:#DD7F1B;" d="M100.6,51.3
		c-2.5-2-5.6-3.2-8.9-3.4c-4.4-0.5-8.4,2.6-9,7.1c-0.2,1.3,0,2.7,0.5,3.9c2.2,6.2,7.9,10.6,14.4,11.1c4.4,0.5,8.4-2.6,9-7.1
		c0.2-1.3,0-2.7-0.5-3.9C105.2,55.9,103.2,53.2,100.6,51.3L100.6,51.3z M99.4,52.8c2.3,1.7,4,4,4.9,6.8c1.3,3.1-0.1,6.8-3.2,8.1
		c-1,0.4-2.2,0.6-3.3,0.4C92,67.7,87,63.8,85.1,58.4c-1.3-3.1,0.1-6.8,3.3-8.1c1-0.4,2.2-0.6,3.3-0.4C94.5,50,97.2,51.1,99.4,52.8
		L99.4,52.8z"/>
	<path style="clip-path:url(#SVGID_00000071535324634305325740000005332017962494023602_);fill:#C9345F;" d="M160.6,94.4
		c0,20.1-16.3,36.4-36.4,36.4c-20.1,0-36.4-16.3-36.4-36.4c0-20.1,16.3-36.4,36.4-36.4c9.7,0,18.9,3.8,25.7,10.7
		C156.8,75.5,160.6,84.7,160.6,94.4z"/>
	<path style="clip-path:url(#SVGID_00000071535324634305325740000005332017962494023602_);fill:#C9345F;" d="M153.1,94.4
		c0,16-12.9,28.9-28.9,28.9s-28.9-12.9-28.9-28.9s12.9-28.9,28.9-28.9c7.7,0,15.1,3,20.5,8.5C150,79.4,153.1,86.8,153.1,94.4
		L153.1,94.4z"/>
	<path style="clip-path:url(#SVGID_00000071535324634305325740000005332017962494023602_);fill:#C9345F;" d="M145.6,94.4
		c0,11.8-9.6,21.4-21.4,21.4c-11.8,0-21.4-9.6-21.4-21.4S112.4,73,124.2,73c5.7,0,11.1,2.3,15.1,6.3
		C143.3,83.3,145.6,88.7,145.6,94.4z"/>
	<path style="clip-path:url(#SVGID_00000071535324634305325740000005332017962494023602_);fill:#C9345F;" d="M138,94.4
		c0,7.7-6.2,13.9-13.9,13.9s-13.9-6.2-13.9-13.9s6.2-13.9,13.9-13.9c3.7,0,7.2,1.5,9.8,4.1C136.5,87.2,138,90.7,138,94.4z"/>
	<path style="clip-path:url(#SVGID_00000071535324634305325740000005332017962494023602_);fill:#DC9133;" d="M124.2,57
		c-20.6,0-37.4,16.7-37.4,37.4s16.7,37.4,37.4,37.4s37.4-16.7,37.4-37.4c0,0,0,0,0,0C161.5,73.7,144.8,57,124.2,57z M124.2,58.9
		c19.6,0,35.5,15.9,35.5,35.5s-15.9,35.5-35.5,35.5c-19.6,0-35.5-15.9-35.5-35.5C88.7,74.8,104.6,58.9,124.2,58.9
		C124.2,58.9,124.2,58.9,124.2,58.9L124.2,58.9z"/>
	<path style="clip-path:url(#SVGID_00000071535324634305325740000005332017962494023602_);fill:#EC6665;" d="M124.2,64.5
		c-16.5,0-29.9,13.3-29.9,29.8c0,16.5,13.3,29.9,29.8,29.9S154,110.9,154,94.4c0,0,0,0,0,0C154,77.9,140.6,64.5,124.2,64.5
		L124.2,64.5z M124.2,66.4c15.5,0,28,12.5,28,28s-12.5,28-28,28s-28-12.5-28-28c0-15.4,12.4-28,27.9-28
		C124.1,66.4,124.1,66.4,124.2,66.4z"/>
	<path style="clip-path:url(#SVGID_00000071535324634305325740000005332017962494023602_);fill:#EC6665;" d="M124.2,72.1
		c-12.3,0-22.3,10-22.4,22.3c0,12.3,10,22.3,22.3,22.3c12.3,0,22.3-10,22.4-22.3c0,0,0,0,0,0C146.5,82.1,136.5,72.1,124.2,72.1z
		 M124.2,74c11.3,0,20.4,9.1,20.5,20.4s-9.1,20.4-20.4,20.4s-20.4-9.1-20.4-20.4c0,0,0,0,0,0C103.8,83.1,112.9,74,124.2,74L124.2,74
		z"/>
	<path style="clip-path:url(#SVGID_00000071535324634305325740000005332017962494023602_);fill:#EC6665;" d="M124.2,79.6
		c-8.2,0-14.8,6.6-14.8,14.8s6.6,14.8,14.8,14.8c8.2,0,14.8-6.6,14.8-14.8C139,86.2,132.4,79.6,124.2,79.6L124.2,79.6z M124.2,81.5
		c7.1,0,12.9,5.8,12.9,12.9c0,7.1-5.8,12.9-12.9,12.9c-7.1,0-12.9-5.8-12.9-12.9v0C111.3,87.3,117,81.5,124.2,81.5
		C124.2,81.5,124.2,81.5,124.2,81.5z"/>
	<path style="clip-path:url(#SVGID_00000071535324634305325740000005332017962494023602_);fill:#C9345F;" d="M111.2,95.7
		c0,0,2.6-16.8-4.2-18.8c-5.9-1.8-10.8,3.9-17.4,3s-10.3-6.7-16-5.7c-5,0.9-10.7,9.4-4.3,21.5L111.2,95.7z"/>
	<path style="clip-path:url(#SVGID_00000071535324634305325740000005332017962494023602_);fill:#902F54;" d="M74.6,73
		c-0.4,0-0.8,0.1-1.2,0.1c-6,1.1-11.7,10.6-5,23.1l1.9-1c-6.2-11.7-0.5-19.2,3.5-20c2.4-0.4,4.5,0.6,7,2s5.2,3.2,8.7,3.7
		s6.6-0.9,9.4-1.9s5.2-1.9,7.8-1.1c1.3,0.4,2.2,1.5,2.8,3.2c0.7,1.9,1,4,1.1,6c0.1,2.8,0,5.7-0.4,8.4l2.1,0.3
		c0.4-2.9,0.6-5.9,0.4-8.9c0-2.3-0.5-4.6-1.2-6.7c-0.6-2.1-2.2-3.7-4.2-4.4c-3.3-1-6.3,0.1-9.1,1.2s-5.4,2.2-8.4,1.8
		s-5.4-1.9-7.9-3.4C79.6,74.1,77.3,72.9,74.6,73L74.6,73z"/>
	<path style="clip-path:url(#SVGID_00000071535324634305325740000005332017962494023602_);fill:#EC6665;" d="M78.2,80
		c-0.3,0-0.6,0-0.9,0.1c-2.5,0.4-4.7,2-5.7,4.3c-1.1,2.5-0.9,5.9,1.8,9.6l1.2-0.8C72.1,89.8,72,87,72.9,85c0.8-1.9,2.6-3.2,4.6-3.5
		c2.1-0.3,3.8,0.4,5.7,1.2c2.1,1.1,4.4,1.9,6.8,2.2c2.5,0.1,5-0.3,7.3-1.2c2.2-0.6,4.2-1.2,6.4-0.7c1.1,0.2,1.9,0.9,2.4,1.9
		c0.5,1.1,0.8,2.3,0.8,3.5c0.1,1.7,0,3.4-0.3,5l1.4,0.3c0.3-1.8,0.4-3.6,0.4-5.4c-0.1-1.4-0.4-2.8-1-4.1c-0.6-1.3-1.8-2.3-3.3-2.7
		c-2.6-0.6-4.8,0-7.1,0.7c-2.2,0.8-4.5,1.2-6.8,1.1c-2.2-0.3-4.4-1-6.4-2.1C82,80.6,80.1,80.1,78.2,80z"/>
	<path style="clip-path:url(#SVGID_00000071535324634305325740000005332017962494023602_);fill:#EC6665;" d="M81,84.8
		c-0.2,0-0.5,0-0.7,0.1c-2.1,0.4-3.9,1.9-4.7,3.9c-0.9,2.2-0.7,5.2,1.4,8.5l1.2-0.8c-2-3-2-5.4-1.3-7.2c0.6-1.5,1.9-2.7,3.6-3
		c1.6-0.1,3.1,0.2,4.5,1.1c1.7,1,3.6,1.6,5.5,1.9c2,0.1,4.1-0.2,6-1c1.6-0.7,3.3-0.9,5-0.6c0.8,0.2,1.5,0.8,1.8,1.6
		c0.4,1,0.6,2,0.7,3.1c0.1,1.5,0,2.9-0.3,4.4L105,97c0.3-1.6,0.4-3.1,0.3-4.7c0-1.2-0.3-2.5-0.8-3.6c-0.5-1.2-1.5-2.1-2.7-2.4
		c-1.9-0.4-4-0.1-5.8,0.6c-1.7,0.7-3.5,1.1-5.4,1c-1.8-0.3-3.5-0.9-5.1-1.8C84.2,85.3,82.6,84.9,81,84.8z"/>
	<path style="clip-path:url(#SVGID_00000071535324634305325740000005332017962494023602_);fill:#53B582;" d="M122.6,73
		c3,2.3,2.8,7.6-0.4,11.9c2.8,0.9,4.7,2.8,5,5.1c0.5,3.5-2.9,6.9-7.9,8c0.2,0.5,0.3,1.1,0.3,1.7c-0.1,1.9-1.1,3.6-2.7,4.6
		c-1.9,1.3-4.2,1.9-6.5,1.9c-4.5,0-8.3-2.2-9.1-5.3c-3.2,0-6.3-3.1-7.5-7.4c-1.3-4.9,0.4-9.7,3.8-10.6c0.6-0.1,1.2-0.2,1.7-0.1
		c-0.3-5,2.2-9.2,5.7-9.7c2.3-0.3,4.6,1,6.2,3.5C114.6,72.3,119.7,70.8,122.6,73L122.6,73z"/>
	
		<line style="clip-path:url(#SVGID_00000071535324634305325740000005332017962494023602_);fill:none;" x1="101.3" y1="100.7" x2="118.7" y2="78.1"/>
	<path style="clip-path:url(#SVGID_00000071535324634305325740000005332017962494023602_);fill:#88C58D;" d="M118.8,77.3
		c-0.2,0-0.4,0.1-0.6,0.3l-17.4,22.7c-0.2,0.3-0.1,0.8,0.2,1c0.3,0.2,0.7,0.1,0.9-0.1l17.4-22.7c0.2-0.3,0.2-0.8-0.1-1c0,0,0,0,0,0
		C119.1,77.4,118.9,77.3,118.8,77.3z"/>
	
		<line style="clip-path:url(#SVGID_00000071535324634305325740000005332017962494023602_);fill:none;" x1="101.3" y1="100.7" x2="111.7" y2="99.4"/>
	<path style="clip-path:url(#SVGID_00000071535324634305325740000005332017962494023602_);fill:#88C58D;" d="M111.7,98.7L111.7,98.7
		l-10.4,1.3c-0.4,0-0.7,0.4-0.6,0.8c0,0.4,0.4,0.7,0.8,0.6l10.4-1.4c0.4,0,0.7-0.4,0.7-0.8C112.4,98.9,112.1,98.6,111.7,98.7
		L111.7,98.7z"/>
	
		<line style="clip-path:url(#SVGID_00000071535324634305325740000005332017962494023602_);fill:none;" x1="105.8" y1="78.5" x2="107.7" y2="92.5"/>
	<path style="clip-path:url(#SVGID_00000071535324634305325740000005332017962494023602_);fill:#88C58D;" d="M105.8,77.8L105.8,77.8
		c-0.5,0.1-0.7,0.4-0.7,0.8c0,0,0,0,0,0l1.8,14c0.1,0.4,0.4,0.7,0.8,0.6c0,0,0,0,0,0c0.4-0.1,0.7-0.4,0.6-0.8l-1.8-14
		C106.5,78.1,106.2,77.8,105.8,77.8L105.8,77.8z"/>
	<path style="clip-path:url(#SVGID_00000071535324634305325740000005332017962494023602_);fill:#2C8468;" d="M119.4,71
		c-0.9,0-1.7,0.1-2.6,0.4c-2.1,0.7-4,2-5.4,3.6c-1.5-2-3.9-3.2-6.4-3c-2.1,0.3-4,1.7-5,3.6c-1,1.9-1.5,3.9-1.5,6.1
		c-0.3,0-0.7,0.1-1,0.2c-2.1,0.7-3.7,2.3-4.3,4.4c-0.8,2.4-0.9,5-0.2,7.4c1.2,4.3,4.2,7.7,7.7,8.1c1.3,3.3,5.3,5.4,9.8,5.4
		c2.5,0,5-0.7,7.1-2.1c1.9-1.2,3-3.2,3.1-5.3c0-0.3,0-0.7-0.1-1c2-0.5,3.9-1.6,5.5-3c1.6-1.5,2.4-3.6,2.2-5.7
		c-0.5-2.5-2.2-4.5-4.5-5.4c1.2-1.9,1.9-4,2-6.2c0.2-2.3-0.7-4.5-2.5-6C122.1,71.4,120.8,71,119.4,71z M120,72.9
		c0.8,0.1,1.5,0.4,2.1,0.8c1.3,1.1,1.9,2.7,1.7,4.4c-0.2,2.2-1,4.4-2.3,6.2l-0.8,1.1l1.3,0.4c2.6,0.8,4.1,2.5,4.4,4.3
		c0.1,1.6-0.5,3.1-1.7,4.1c-1.5,1.4-3.4,2.4-5.5,2.8l-1.1,0.2l0.4,1c0.2,0.4,0.3,0.9,0.3,1.4c-0.1,1.6-0.9,3-2.3,3.8
		c-1.8,1.2-3.9,1.8-6,1.7c-4.2,0-7.6-2.1-8.2-4.6l-0.2-0.7h-0.8c-2.6,0-5.5-2.7-6.6-6.7c-0.6-2-0.5-4.2,0.1-6.2
		c0.4-1.5,1.6-2.7,3.1-3.2c0.5-0.1,0.9-0.1,1.4-0.1l1.1,0.1l-0.1-1.1c-0.2-2.1,0.3-4.2,1.3-6c0.7-1.4,2-2.4,3.6-2.7
		c1.8-0.2,3.8,0.8,5.3,3.1l0.7,1.1l0.8-1c1.4-1.8,3.2-3.1,5.3-3.8C118.2,72.9,119.1,72.9,120,72.9L120,72.9z"/>
	<path style="clip-path:url(#SVGID_00000071535324634305325740000005332017962494023602_);fill:#D4C1BB;" d="M48.9,89.4
		c-11.6,32.7,5.6,68.6,38.3,80.2c32.7,11.6,68.6-5.6,80.2-38.3c4.8-13.6,4.8-28.3,0-41.9H48.9z"/>
	<path style="clip-path:url(#SVGID_00000071535324634305325740000005332017962494023602_);fill:#E5DAD6;" d="M50.5,89.4
		c-8.3,28.6,8.1,58.5,36.7,66.8c28.6,8.3,58.5-8.1,66.8-36.7c2.9-9.8,2.9-20.3,0-30.1H50.5z"/>
	<path style="clip-path:url(#SVGID_00000071535324634305325740000005332017962494023602_);fill:#FFFFFF;" d="M53.3,89.4
		c-0.1,1.1-0.2,2.3-0.2,3.4c0.5,20.7,17.7,37.1,38.4,36.6c20-0.5,36.2-16.6,36.6-36.6c0-1.1-0.1-2.3-0.2-3.4H53.3z"/>
	<path style="clip-path:url(#SVGID_00000071535324634305325740000005332017962494023602_);fill:#E73A2E;" d="M46,101.3
		c-0.4,3-0.6,6-0.6,9c0,1,0,2,0.1,3h125.5c0.1-1,0.1-2,0.1-3c0-3-0.2-6-0.6-9H46z"/>
	<path style="clip-path:url(#SVGID_00000071535324634305325740000005332017962494023602_);fill:#B4958F;" d="M48.2,88.4L48,89.1
		c-11.7,33.2,5.7,69.7,38.9,81.4s69.7-5.7,81.4-38.9c4.9-13.8,4.9-28.8,0-42.5l-0.2-0.6H48.2z M49.6,90.3h117.1
		c11.1,32.3-6.2,67.5-38.5,78.6s-67.5-6.2-78.6-38.5C45.1,117.4,45.1,103.3,49.6,90.3z"/>
	
		<rect x="79.2" y="165.1" style="clip-path:url(#SVGID_00000071535324634305325740000005332017962494023602_);fill:#B4958F;" width="57.9" height="1.9"/>
	<path style="clip-path:url(#SVGID_00000071535324634305325740000005332017962494023602_);fill:#EC604B;" d="M48.4,101.3
		c-0.1,1-0.1,2-0.1,3.1c0,3,0.2,6,0.7,8.9h106.3c0.5-2.9,0.7-5.9,0.7-8.9c0-1,0-2-0.1-3.1L48.4,101.3z"/>
	<path style="clip-path:url(#SVGID_00000071535324634305325740000005332017962494023602_);fill:#F39461;" d="M54.1,101.3
		c1,4.3,2.7,8.3,5.1,12H122c2.4-3.7,4.1-7.7,5.1-12H54.1z"/>
	<path style="clip-path:url(#SVGID_00000071535324634305325740000005332017962494023602_);fill:#1A1A1A;" d="M88,41.3
		c-5,0-9.4,1.9-12.1,5.4c-0.6,0.8-1.1,1.7-1.5,2.6c-2.9,5.1-3.7,11.1-2.3,16.8c-9.3,3.7-16.2,11.8-18.4,21.6h-5.4
		c-0.3,0-0.7,0.2-0.8,0.6l-0.2,0.6c-11.9,33.6,5.7,70.6,39.4,82.5s70.6-5.7,82.5-39.4c4.9-13.9,4.9-29.2,0-43.1l-0.2-0.6
		c-0.1-0.3-0.4-0.6-0.8-0.6h-6.4c-3.2-18.2-19-31.4-37.5-31.4c-3.8,0-7.6,0.6-11.2,1.8c-2-4.2-4.9-7.9-8.7-10.8
		C99.7,43.5,94,41.4,88,41.3L88,41.3z M88,44c5.3,0.2,10.5,2.1,14.7,5.4c3.8,2.8,6.7,6.6,8.4,11l0.3,0.9l0.9-0.3
		c18.5-6.5,38.7,3.1,45.3,21.6c0.8,2.3,1.4,4.6,1.7,7l0.1,0.8h7.2c11.2,32.3-6,67.6-38.3,78.7c-32.3,11.2-67.6-6-78.7-38.3
		c-4.5-13.1-4.5-27.4,0-40.5h6.2l0.1-0.8c1.8-10,8.8-18.2,18.4-21.6l0.9-0.3L75,66.8c-1.8-5.4-1.1-11.3,1.8-16.3l0,0v0
		c0.3-0.8,0.7-1.5,1.2-2.1C80.1,45.6,83.7,44,88,44z"/>
	<path style="clip-path:url(#SVGID_00000071535324634305325740000005332017962494023602_);fill:#1A1A1A;" d="M88,42.1
		c-4.8,0-9,1.8-11.5,5.1l0,0c-0.6,0.7-1,1.5-1.4,2.4c-3,5.1-3.7,11.2-2.1,16.9c-9.6,3.6-16.7,11.9-18.7,22h-6l-0.2,0.6
		c-11.7,33.2,5.7,69.7,38.9,81.4s69.7-5.7,81.4-38.9c4.9-13.8,4.9-28.8,0-42.5l-0.2-0.6h-7c-3.2-20.3-22.2-34.2-42.6-31
		c-2,0.3-4.1,0.8-6,1.5c-1.9-4.4-4.9-8.1-8.7-11C99.3,44.3,93.8,42.3,88,42.1z M88,44c5.3,0.2,10.5,2.1,14.7,5.4
		c3.8,2.8,6.7,6.6,8.4,11l0.3,0.9l0.9-0.3c18.5-6.5,38.7,3.1,45.3,21.6c0.8,2.3,1.4,4.6,1.7,7l0.1,0.8h7.3
		c11.1,32.3-6.2,67.5-38.5,78.6s-67.5-6.2-78.6-38.5c-4.4-13-4.4-27.1,0-40.1h6.2l0.1-0.8c1.8-10,8.8-18.2,18.4-21.6l0.9-0.3
		L75,66.8c-1.8-5.4-1.1-11.3,1.8-16.3l0,0v0c0.3-0.8,0.7-1.5,1.2-2.1C80.2,45.6,83.7,44,88,44z"/>
	<path style="clip-path:url(#SVGID_00000071535324634305325740000005332017962494023602_);fill:#FFD740;" d="M88.8,50.8h-0.3h-0.1
		l0,0h-0.1h-0.1h-0.1h-0.1h-0.1h-0.1H88l-0.1,0l0,0c0,0,0,0-0.1,0l0,0l0,0V51v0.1v0.1v0.1v0.1c0,0,0,0,0,0.1v0.1c0,0,0,0,0,0.1
		c0,0,0,0,0,0.1c0,0,0,0,0,0.1s0,0,0,0.1s0,0,0,0.1v0.2c0,0,0,0,0,0.1s0,0,0,0.1c0,0,0,0,0,0.1c0,0,0,0,0,0.1l0,0l0,0v0.1v0.1
		c0,0,0,0,0,0.1v0.1v0.1v0.1c0,0,0,0,0,0.1l0.1,0.1l0,0c0,0,0,0,0,0l0,0v0H88h0.1h0.1h0.1h0.1h0.1h0.1h0.1h0.1h0.7h0.1h0.1h0.1h0.1
		h0.1h0.1h0.1h0.1v0h0.1l0,0v-0.1l0,0v-0.1v-0.1v-0.1v-0.1v-0.1c0,0,0,0,0-0.1c0,0,0,0,0-0.1c0,0,0,0,0-0.1c0,0,0,0,0-0.1
		c0,0,5312.5-0.1,0-0.1v-0.2c0,0,0-0.1,0-0.1c0,0,0,0,0-0.1c0,0,0,0,0-0.1s0,0,0-0.1l0,0l0,0v-0.1c0,0,0,0,0-0.1v-0.1v-0.1v-0.1
		v-0.1V51l0,0V51c0,0,0,0,0,0h-0.1l0,0h-0.1h-0.1h-0.1h-0.1h-0.1h-0.1h-0.1h-0.1h-0.1h-0.1L88.8,50.8L88.8,50.8z"/>
	<path style="clip-path:url(#SVGID_00000071535324634305325740000005332017962494023602_);fill:#FFD740;" d="M88.8,50.8h-0.3h-0.1
		l0,0h-0.1h-0.1h-0.1h-0.1h-0.1h-0.1H88l-0.1,0l0,0c0,0,0,0-0.1,0l0,0l0,0V51v0.1v0.1v0.1v0.1c0,0,0,0,0,0.1v0.1c0,0,0,0,0,0.1
		c0,0,0,0,0,0.1c0,0,0,0,0,0.1s0,0,0,0.1s0,0,0,0.1v0.2c0,0,0,0,0,0.1s0,0,0,0.1c0,0,0,0,0,0.1c0,0,0,0,0,0.1l0,0l0,0v0.1v0.1
		c0,0,0,0,0,0.1v0.1v0.1v0.1c0,0,0,0,0,0.1l0.1,0.1l0,0c0,0,0,0,0,0l0,0v0H88h0.1h0.1h0.1h0.1h0.1h0.1h0.1h0.1h0.6h0.1l0,0h0.1h0.1
		h0.1h0.1h0.1h0.1h0.1h0.1l0,0c0,0,0,0,0.1,0v-0.1l0,0c0,0,0,0,0-0.1v-0.1v-0.1v-0.1v-0.1v-0.1c0,0,0,0,0-0.1c0,0,0,0,0-0.1
		c0,0,0,0,0-0.1c0,0,0,0,0-0.1c0,0,0-0.1,0-0.1c0,0,0,0,0-0.1v-0.2c0,0,6859.8-0.1,0-0.1c0,0,0,0,0-0.1s0,0,0-0.1l0,0l0,0v-0.1
		c0,0,0,0,0-0.1v-0.1v-0.1v-0.1v-0.1V51l0,0V51c0,0,0,0,0,0h-0.1l0,0h-0.1h-0.1h-0.1h-0.1h-0.1h-0.1h-0.1h-0.1h-0.1L88.8,50.8
		L88.8,50.8z"/>
	<path style="clip-path:url(#SVGID_00000071535324634305325740000005332017962494023602_);fill:#FFD740;" d="M88.8,50.8h-0.3h-0.1
		l0,0h-0.1h-0.1h-0.1h-0.1h-0.1h-0.1H88l-0.1,0l0,0c0,0,0,0-0.1,0l0,0l0,0V51v0.1v0.1v0.1v0.1c0,0,0,0,0,0.1v0.1c0,0,0,0,0,0.1
		c0,0,0,0,0,0.1c0,0,0,0,0,0.1s0,0,0,0.1s0,0,0,0.1v0.2c0,0,0,0,0,0.1s0,0,0,0.1c0,0,0,0,0,0.1c0,0,0,0,0,0.1l0,0l0,0v0.1v0.1
		c0,0,0,0,0,0.1v0.1v0.1v0.1c0,0,0,0,0,0.1l0.1,0.1l0,0c0,0,0,0,0,0l0,0v0H88h0.1h0.1h0.1h0.1h0.1h0.1h0.1h0.1h0.6h0.1l0,0h0.1h0.1
		h0.1h0.1h0.1h0.1h0.1h0.1l0,0c0,0,0,0,0.1,0v-0.1l0,0c0,0,0,0,0-0.1v-0.1v-0.1v-0.1v-0.1v-0.1c0,0,0,0,0-0.1c0,0,0,0,0-0.1
		c0,0,0,0,0-0.1c0,0,0,0,0-0.1c0,0,0-0.1,0-0.1c0,0,0,0,0-0.1v-0.2c0,0,6859.8-0.1,0-0.1c0,0,0,0,0-0.1s0,0,0-0.1l0,0l0,0v-0.1
		c0,0,0,0,0-0.1v-0.1v-0.1v-0.1v-0.1V51l0,0V51c0,0,0,0,0,0h-0.1l0,0h-0.1h-0.1h-0.1h-0.1h-0.1h-0.1h-0.1h-0.1h-0.1L88.8,50.8
		L88.8,50.8z"/>
	<path style="clip-path:url(#SVGID_00000071535324634305325740000005332017962494023602_);fill:#FFD740;" d="M88.8,50.8h-0.3h-0.1
		l0,0h-0.1h-0.1h-0.1h-0.1h-0.1h-0.1H88l-0.1,0l0,0c0,0,0,0-0.1,0l0,0l0,0V51v0.1v0.1v0.1v0.1c0,0,0,0,0,0.1v0.1c0,0,0,0,0,0.1
		c0,0,0,0,0,0.1c0,0,0,0,0,0.1s0,0,0,0.1s0,0,0,0.1v0.2c0,0,0,0,0,0.1s0,0,0,0.1c0,0,0,0,0,0.1c0,0,0,0,0,0.1l0,0l0,0v0.1v0.1
		c0,0,0,0,0,0.1v0.1v0.1v0.1c0,0,0,0,0,0.1l0.1,0.1l0,0c0,0,0,0,0,0l0,0v0H88h0.1h0.1h0.1h0.1h0.1h0.1h0.1h0.1h0.6h0.1l0,0h0.1h0.1
		h0.1h0.1h0.1h0.1h0.1h0.1l0,0c0,0,0,0,0.1,0v-0.1l0,0c0,0,0,0,0-0.1v-0.1v-0.1v-0.1v-0.1v-0.1c0,0,0,0,0-0.1c0,0,0,0,0-0.1
		c0,0,0,0,0-0.1c0,0,0,0,0-0.1c0,0,0-0.1,0-0.1c0,0,0,0,0-0.1v-0.2c0,0,6859.8-0.1,0-0.1c0,0,0,0,0-0.1s0,0,0-0.1l0,0l0,0v-0.1
		c0,0,0,0,0-0.1v-0.1v-0.1v-0.1v-0.1V51l0,0V51c0,0,0,0,0,0h-0.1l0,0h-0.1h-0.1h-0.1h-0.1h-0.1h-0.1h-0.1h-0.1h-0.1L88.8,50.8
		L88.8,50.8z"/>
	<path style="clip-path:url(#SVGID_00000071535324634305325740000005332017962494023602_);fill:#FFD740;" d="M88.8,50.8h-0.3h-0.1
		l0,0h-0.1h-0.1h-0.1h-0.1h-0.1h-0.1H88l-0.1,0l0,0c0,0,0,0-0.1,0l0,0l0,0V51v0.1v0.1v0.1v0.1c0,0,0,0,0,0.1v0.1c0,0,0,0,0,0.1
		c0,0,0,0,0,0.1c0,0,0,0,0,0.1s0,0,0,0.1s0,0,0,0.1v0.2c0,0,0,0,0,0.1s0,0,0,0.1c0,0,0,0,0,0.1c0,0,0,0,0,0.1l0,0l0,0v0.1v0.1
		c0,0,0,0,0,0.1v0.1v0.1v0.1c0,0,0,0,0,0.1l0.1,0.1l0,0c0,0,0,0,0,0l0,0v0H88h0.1h0.1h0.1h0.1h0.1h0.1h0.1h0.1h0.6h0.1l0,0h0.1h0.1
		h0.1h0.1h0.1h0.1h0.1h0.1l0,0c0,0,0,0,0.1,0v-0.1l0,0c0,0,0,0,0-0.1v-0.1v-0.1v-0.1v-0.1v-0.1c0,0,0,0,0-0.1c0,0,0,0,0-0.1
		c0,0,0,0,0-0.1c0,0,0,0,0-0.1c0,0,0-0.1,0-0.1c0,0,0,0,0-0.1v-0.2c0,0,6859.8-0.1,0-0.1c0,0,0,0,0-0.1s0,0,0-0.1l0,0l0,0v-0.1
		c0,0,0,0,0-0.1v-0.1v-0.1v-0.1v-0.1V51l0,0V51c0,0,0,0,0,0h-0.1l0,0h-0.1h-0.1h-0.1h-0.1h-0.1h-0.1h-0.1h-0.1h-0.1L88.8,50.8
		L88.8,50.8z"/>
	<path style="clip-path:url(#SVGID_00000071535324634305325740000005332017962494023602_);fill:#FFD740;" d="M88.8,50.8h-0.3h-0.1
		l0,0h-0.1h-0.1h-0.1h-0.1h-0.1h-0.1H88l-0.1,0l0,0c0,0,0,0-0.1,0l0,0l0,0V51v0.1v0.1v0.1v0.1c0,0,0,0,0,0.1v0.1c0,0,0,0,0,0.1
		c0,0,0,0,0,0.1c0,0,0,0,0,0.1s0,0,0,0.1s0,0,0,0.1v0.2c0,0,0,0,0,0.1s0,0,0,0.1c0,0,0,0,0,0.1c0,0,0,0,0,0.1l0,0l0,0v0.1v0.1
		c0,0,0,0,0,0.1v0.1v0.1v0.1c0,0,0,0,0,0.1l0.1,0.1l0,0c0,0,0,0,0,0l0,0v0H88h0.1h0.1h0.1h0.1h0.1h0.1h0.1h0.1h0.6h0.1l0,0h0.1h0.1
		h0.1h0.1h0.1h0.1h0.1h0.1l0,0c0,0,0,0,0.1,0v-0.1l0,0c0,0,0,0,0-0.1v-0.1v-0.1v-0.1v-0.1v-0.1c0,0,0,0,0-0.1c0,0,0,0,0-0.1
		c0,0,0,0,0-0.1c0,0,0,0,0-0.1c0,0,0-0.1,0-0.1c0,0,0,0,0-0.1v-0.2c0,0,6859.8-0.1,0-0.1c0,0,0,0,0-0.1s0,0,0-0.1l0,0l0,0v-0.1
		c0,0,0,0,0-0.1v-0.1v-0.1v-0.1v-0.1V51l0,0V51c0,0,0,0,0,0h-0.1l0,0h-0.1h-0.1h-0.1h-0.1h-0.1h-0.1h-0.1h-0.1h-0.1L88.8,50.8
		L88.8,50.8z"/>
	<path style="clip-path:url(#SVGID_00000071535324634305325740000005332017962494023602_);fill:#FFD740;" d="M88.8,50.8h-0.3h-0.1
		l0,0h-0.1h-0.1h-0.1h-0.1h-0.1h-0.1H88l-0.1,0l0,0c0,0,0,0-0.1,0l0,0l0,0V51v0.1v0.1v0.1v0.1c0,0,0,0,0,0.1v0.1c0,0,0,0,0,0.1
		c0,0,0,0,0,0.1c0,0,0,0,0,0.1s0,0,0,0.1s0,0,0,0.1v0.2c0,0,0,0,0,0.1s0,0,0,0.1c0,0,0,0,0,0.1c0,0,0,0,0,0.1l0,0l0,0v0.1v0.1
		c0,0,0,0,0,0.1v0.1v0.1v0.1c0,0,0,0,0,0.1l0.1,0.1l0,0c0,0,0,0,0,0l0,0v0H88h0.1h0.1h0.1h0.1h0.1h0.1h0.1h0.1h0.6h0.1l0,0h0.1h0.1
		h0.1h0.1h0.1h0.1h0.1h0.1l0,0c0,0,0,0,0.1,0v-0.1l0,0c0,0,0,0,0-0.1v-0.1v-0.1v-0.1v-0.1v-0.1c0,0,0,0,0-0.1c0,0,0,0,0-0.1
		c0,0,0,0,0-0.1c0,0,0,0,0-0.1c0,0,0-0.1,0-0.1c0,0,0,0,0-0.1v-0.2c0,0,6859.8-0.1,0-0.1c0,0,0,0,0-0.1s0,0,0-0.1l0,0l0,0v-0.1
		c0,0,0,0,0-0.1v-0.1v-0.1v-0.1v-0.1V51l0,0V51c0,0,0,0,0,0h-0.1l0,0h-0.1h-0.1h-0.1h-0.1h-0.1h-0.1h-0.1h-0.1h-0.1L88.8,50.8
		L88.8,50.8z"/>
	<path style="clip-path:url(#SVGID_00000071535324634305325740000005332017962494023602_);fill:#FFD740;" d="M88.8,50.8h-0.3h-0.1
		l0,0h-0.1h-0.1h-0.1h-0.1h-0.1h-0.1H88l-0.1,0l0,0c0,0,0,0-0.1,0l0,0l0,0V51v0.1v0.1v0.1v0.1c0,0,0,0,0,0.1v0.1c0,0,0,0,0,0.1
		c0,0,0,0,0,0.1c0,0,0,0,0,0.1s0,0,0,0.1s0,0,0,0.1v0.2c0,0,0,0,0,0.1s0,0,0,0.1c0,0,0,0,0,0.1c0,0,0,0,0,0.1l0,0l0,0v0.1v0.1
		c0,0,0,0,0,0.1v0.1v0.1v0.1c0,0,0,0,0,0.1l0.1,0.1l0,0c0,0,0,0,0,0l0,0v0H88h0.1h0.1h0.1h0.1h0.1h0.1h0.1h0.1h0.6h0.1l0,0h0.1h0.1
		h0.1h0.1h0.1h0.1h0.1h0.1l0,0c0,0,0,0,0.1,0v-0.1l0,0c0,0,0,0,0-0.1v-0.1v-0.1v-0.1v-0.1v-0.1c0,0,0,0,0-0.1c0,0,0,0,0-0.1
		c0,0,0,0,0-0.1c0,0,0,0,0-0.1c0,0,0-0.1,0-0.1c0,0,0,0,0-0.1v-0.2c0,0,6859.8-0.1,0-0.1c0,0,0,0,0-0.1s0,0,0-0.1l0,0l0,0v-0.1
		c0,0,0,0,0-0.1v-0.1v-0.1v-0.1v-0.1V51l0,0V51c0,0,0,0,0,0h-0.1l0,0h-0.1h-0.1h-0.1h-0.1h-0.1h-0.1h-0.1h-0.1h-0.1L88.8,50.8
		L88.8,50.8z"/>
	<path style="clip-path:url(#SVGID_00000071535324634305325740000005332017962494023602_);fill:#FFD740;" d="M88.8,50.8h-0.3h-0.1
		l0,0h-0.1h-0.1h-0.1h-0.1h-0.1h-0.1H88l-0.1,0l0,0c0,0,0,0-0.1,0l0,0l0,0V51v0.1v0.1v0.1v0.1c0,0,0,0,0,0.1v0.1c0,0,0,0,0,0.1
		c0,0,0,0,0,0.1c0,0,0,0,0,0.1s0,0,0,0.1s0,0,0,0.1v0.2c0,0,0,0,0,0.1s0,0,0,0.1c0,0,0,0,0,0.1c0,0,0,0,0,0.1l0,0l0,0v0.1v0.1
		c0,0,0,0,0,0.1v0.1v0.1v0.1c0,0,0,0,0,0.1l0.1,0.1l0,0c0,0,0,0,0,0l0,0v0H88h0.1h0.1h0.1h0.1h0.1h0.1h0.1h0.1h0.6h0.1l0,0h0.1h0.1
		h0.1h0.1h0.1h0.1h0.1h0.1l0,0c0,0,0,0,0.1,0v-0.1l0,0c0,0,0,0,0-0.1v-0.1v-0.1v-0.1v-0.1v-0.1c0,0,0,0,0-0.1c0,0,0,0,0-0.1
		c0,0,0,0,0-0.1c0,0,0,0,0-0.1c0,0,0-0.1,0-0.1c0,0,0,0,0-0.1v-0.2c0,0,6859.8-0.1,0-0.1c0,0,0,0,0-0.1s0,0,0-0.1l0,0l0,0v-0.1
		c0,0,0,0,0-0.1v-0.1v-0.1v-0.1v-0.1V51l0,0V51c0,0,0,0,0,0h-0.1l0,0h-0.1h-0.1h-0.1h-0.1h-0.1h-0.1h-0.1h-0.1h-0.1L88.8,50.8
		L88.8,50.8z"/>
	<path style="clip-path:url(#SVGID_00000071535324634305325740000005332017962494023602_);fill:#FFD740;" d="M88.8,50.8h-0.3h-0.1
		l0,0h-0.1h-0.1h-0.1h-0.1h-0.1h-0.1H88l-0.1,0l0,0c0,0,0,0-0.1,0l0,0l0,0V51v0.1v0.1v0.1v0.1c0,0,0,0,0,0.1v0.1c0,0,0,0,0,0.1
		c0,0,0,0,0,0.1c0,0,0,0,0,0.1s0,0,0,0.1s0,0,0,0.1v0.2c0,0,0,0,0,0.1s0,0,0,0.1c0,0,0,0,0,0.1c0,0,0,0,0,0.1l0,0l0,0v0.1v0.1
		c0,0,0,0,0,0.1v0.1v0.1v0.1c0,0,0,0,0,0.1l0.1,0.1l0,0c0,0,0,0,0,0l0,0v0H88h0.1h0.1h0.1h0.1h0.1h0.1h0.1h0.1h0.6h0.1l0,0h0.1h0.1
		h0.1h0.1h0.1h0.1h0.1h0.1l0,0c0,0,0,0,0.1,0v-0.1l0,0c0,0,0,0,0-0.1v-0.1v-0.1v-0.1v-0.1v-0.1c0,0,0,0,0-0.1c0,0,0,0,0-0.1
		c0,0,0,0,0-0.1c0,0,0,0,0-0.1c0,0,0-0.1,0-0.1c0,0,0,0,0-0.1v-0.2c0,0,6859.8-0.1,0-0.1c0,0,0,0,0-0.1s0,0,0-0.1l0,0l0,0v-0.1
		c0,0,0,0,0-0.1v-0.1v-0.1v-0.1v-0.1V51l0,0V51c0,0,0,0,0,0h-0.1l0,0h-0.1h-0.1h-0.1h-0.1h-0.1h-0.1h-0.1h-0.1h-0.1L88.8,50.8
		L88.8,50.8z"/>
	<path style="clip-path:url(#SVGID_00000071535324634305325740000005332017962494023602_);fill:#FFD740;" d="M88.8,50.8h-0.3h-0.1
		l0,0h-0.1h-0.1h-0.1h-0.1h-0.1h-0.1H88l-0.1,0l0,0c0,0,0,0-0.1,0l0,0l0,0V51v0.1v0.1v0.1v0.1c0,0,0,0,0,0.1v0.1c0,0,0,0,0,0.1
		c0,0,0,0,0,0.1c0,0,0,0,0,0.1s0,0,0,0.1s0,0,0,0.1v0.2c0,0,0,0,0,0.1s0,0,0,0.1c0,0,0,0,0,0.1c0,0,0,0,0,0.1l0,0l0,0v0.1v0.1
		c0,0,0,0,0,0.1v0.1v0.1v0.1c0,0,0,0,0,0.1l0.1,0.1l0,0c0,0,0,0,0,0l0,0v0H88h0.1h0.1h0.1h0.1h0.1h0.1h0.1h0.1h0.7h0.1h0.1h0.1h0.1
		h0.1h0.1h0.1h0.1v0h0.1l0,0v-0.1l0,0v-0.1v-0.1v-0.1v-0.1v-0.1c0,0,0,0,0-0.1c0,0,0,0,0-0.1c0,0,0,0,0-0.1c0,0,0,0,0-0.1
		c0,0,5312.5-0.1,0-0.1v-0.2c0,0,0-0.1,0-0.1c0,0,0,0,0-0.1c0,0,0,0,0-0.1s0,0,0-0.1l0,0l0,0v-0.1c0,0,0,0,0-0.1v-0.1v-0.1v-0.1
		v-0.1V51l0,0V51c0,0,0,0,0,0h-0.1l0,0h-0.1h-0.1h-0.1h-0.1h-0.1h-0.1h-0.1h-0.1h-0.1h-0.1L88.8,50.8L88.8,50.8z"/>
	<path style="clip-path:url(#SVGID_00000071535324634305325740000005332017962494023602_);fill:#FFD740;" d="M88.8,50.8h-0.3h-0.1
		l0,0h-0.1h-0.1h-0.1h-0.1h-0.1h-0.1H88l-0.1,0l0,0c0,0,0,0-0.1,0l0,0l0,0V51v0.1v0.1v0.1v0.1c0,0,0,0,0,0.1v0.1c0,0,0,0,0,0.1
		c0,0,0,0,0,0.1c0,0,0,0,0,0.1s0,0,0,0.1s0,0,0,0.1v0.2c0,0,0,0,0,0.1s0,0,0,0.1c0,0,0,0,0,0.1c0,0,0,0,0,0.1l0,0l0,0v0.1v0.1
		c0,0,0,0,0,0.1v0.1v0.1v0.1c0,0,0,0,0,0.1l0.1,0.1l0,0c0,0,0,0,0,0l0,0v0H88h0.1h0.1h0.1h0.1h0.1h0.1h0.1h0.1h0.6h0.1l0,0h0.1h0.1
		h0.1h0.1h0.1h0.1h0.1h0.1l0,0c0,0,0,0,0.1,0v-0.1l0,0c0,0,0,0,0-0.1v-0.1v-0.1v-0.1v-0.1v-0.1c0,0,0,0,0-0.1c0,0,0,0,0-0.1
		c0,0,0,0,0-0.1c0,0,0,0,0-0.1c0,0,0-0.1,0-0.1c0,0,0,0,0-0.1v-0.2c0,0,6859.8-0.1,0-0.1c0,0,0,0,0-0.1s0,0,0-0.1l0,0l0,0v-0.1
		c0,0,0,0,0-0.1v-0.1v-0.1v-0.1v-0.1V51l0,0V51c0,0,0,0,0,0h-0.1l0,0h-0.1h-0.1h-0.1h-0.1h-0.1h-0.1h-0.1h-0.1h-0.1L88.8,50.8
		L88.8,50.8z"/>
	<path style="clip-path:url(#SVGID_00000071535324634305325740000005332017962494023602_);fill:#FFD740;" d="M88.8,50.8h-0.3h-0.1
		l0,0h-0.1h-0.1h-0.1h-0.1h-0.1h-0.1H88l-0.1,0l0,0c0,0,0,0-0.1,0l0,0l0,0V51v0.1v0.1v0.1v0.1c0,0,0,0,0,0.1v0.1c0,0,0,0,0,0.1
		c0,0,0,0,0,0.1c0,0,0,0,0,0.1s0,0,0,0.1s0,0,0,0.1v0.2c0,0,0,0,0,0.1s0,0,0,0.1c0,0,0,0,0,0.1c0,0,0,0,0,0.1l0,0l0,0v0.1v0.1
		c0,0,0,0,0,0.1v0.1v0.1v0.1c0,0,0,0,0,0.1l0.1,0.1l0,0c0,0,0,0,0,0l0,0v0H88h0.1h0.1h0.1h0.1h0.1h0.1h0.1h0.1h0.6h0.1l0,0h0.1h0.1
		h0.1h0.1h0.1h0.1h0.1h0.1l0,0c0,0,0,0,0.1,0v-0.1l0,0c0,0,0,0,0-0.1v-0.1v-0.1v-0.1v-0.1v-0.1c0,0,0,0,0-0.1c0,0,0,0,0-0.1
		c0,0,0,0,0-0.1c0,0,0,0,0-0.1c0,0,0-0.1,0-0.1c0,0,0,0,0-0.1v-0.2c0,0,6859.8-0.1,0-0.1c0,0,0,0,0-0.1s0,0,0-0.1l0,0l0,0v-0.1
		c0,0,0,0,0-0.1v-0.1v-0.1v-0.1v-0.1V51l0,0V51c0,0,0,0,0,0h-0.1l0,0h-0.1h-0.1h-0.1h-0.1h-0.1h-0.1h-0.1h-0.1h-0.1L88.8,50.8
		L88.8,50.8z"/>
	<path style="clip-path:url(#SVGID_00000071535324634305325740000005332017962494023602_);fill:#FFD740;" d="M88.8,50.8h-0.3h-0.1
		l0,0h-0.1h-0.1h-0.1h-0.1h-0.1h-0.1H88l-0.1,0l0,0c0,0,0,0-0.1,0l0,0l0,0V51v0.1v0.1v0.1v0.1c0,0,0,0,0,0.1v0.1c0,0,0,0,0,0.1
		c0,0,0,0,0,0.1c0,0,0,0,0,0.1s0,0,0,0.1s0,0,0,0.1v0.2c0,0,0,0,0,0.1s0,0,0,0.1c0,0,0,0,0,0.1c0,0,0,0,0,0.1l0,0l0,0v0.1v0.1
		c0,0,0,0,0,0.1v0.1v0.1v0.1c0,0,0,0,0,0.1l0.1,0.1l0,0c0,0,0,0,0,0l0,0v0H88h0.1h0.1h0.1h0.1h0.1h0.1h0.1h0.1h0.6h0.1l0,0h0.1h0.1
		h0.1h0.1h0.1h0.1h0.1h0.1l0,0c0,0,0,0,0.1,0v-0.1l0,0c0,0,0,0,0-0.1v-0.1v-0.1v-0.1v-0.1v-0.1c0,0,0,0,0-0.1c0,0,0,0,0-0.1
		c0,0,0,0,0-0.1c0,0,0,0,0-0.1c0,0,0-0.1,0-0.1c0,0,0,0,0-0.1v-0.2c0,0,6859.8-0.1,0-0.1c0,0,0,0,0-0.1s0,0,0-0.1l0,0l0,0v-0.1
		c0,0,0,0,0-0.1v-0.1v-0.1v-0.1v-0.1V51l0,0V51c0,0,0,0,0,0h-0.1l0,0h-0.1h-0.1h-0.1h-0.1h-0.1h-0.1h-0.1h-0.1h-0.1L88.8,50.8
		L88.8,50.8z"/>
	<path style="clip-path:url(#SVGID_00000071535324634305325740000005332017962494023602_);fill:#FFD740;" d="M88.8,50.8h-0.3h-0.1
		l0,0h-0.1h-0.1h-0.1h-0.1h-0.1h-0.1H88l-0.1,0l0,0c0,0,0,0-0.1,0l0,0l0,0V51v0.1v0.1v0.1v0.1c0,0,0,0,0,0.1v0.1c0,0,0,0,0,0.1
		c0,0,0,0,0,0.1c0,0,0,0,0,0.1s0,0,0,0.1s0,0,0,0.1v0.2c0,0,0,0,0,0.1s0,0,0,0.1c0,0,0,0,0,0.1c0,0,0,0,0,0.1l0,0l0,0v0.1v0.1
		c0,0,0,0,0,0.1v0.1v0.1v0.1c0,0,0,0,0,0.1l0.1,0.1l0,0c0,0,0,0,0,0l0,0v0H88h0.1h0.1h0.1h0.1h0.1h0.1h0.1h0.1h0.6h0.1l0,0h0.1h0.1
		h0.1h0.1h0.1h0.1h0.1h0.1l0,0c0,0,0,0,0.1,0v-0.1l0,0c0,0,0,0,0-0.1v-0.1v-0.1v-0.1v-0.1v-0.1c0,0,0,0,0-0.1c0,0,0,0,0-0.1
		c0,0,0,0,0-0.1c0,0,0,0,0-0.1c0,0,0-0.1,0-0.1c0,0,0,0,0-0.1v-0.2c0,0,6859.8-0.1,0-0.1c0,0,0,0,0-0.1s0,0,0-0.1l0,0l0,0v-0.1
		c0,0,0,0,0-0.1v-0.1v-0.1v-0.1v-0.1V51l0,0V51c0,0,0,0,0,0h-0.1l0,0h-0.1h-0.1h-0.1h-0.1h-0.1h-0.1h-0.1h-0.1h-0.1L88.8,50.8
		L88.8,50.8z"/>
	<path style="clip-path:url(#SVGID_00000071535324634305325740000005332017962494023602_);fill:#FFD740;" d="M88.8,50.8h-0.3h-0.1
		l0,0h-0.1h-0.1h-0.1h-0.1h-0.1h-0.1H88l-0.1,0l0,0c0,0,0,0-0.1,0l0,0l0,0V51v0.1v0.1v0.1v0.1c0,0,0,0,0,0.1v0.1c0,0,0,0,0,0.1
		c0,0,0,0,0,0.1c0,0,0,0,0,0.1s0,0,0,0.1s0,0,0,0.1v0.2c0,0,0,0,0,0.1s0,0,0,0.1c0,0,0,0,0,0.1c0,0,0,0,0,0.1l0,0l0,0v0.1v0.1
		c0,0,0,0,0,0.1v0.1v0.1v0.1c0,0,0,0,0,0.1l0.1,0.1l0,0c0,0,0,0,0,0l0,0v0H88h0.1h0.1h0.1h0.1h0.1h0.1h0.1h0.1h0.6h0.1l0,0h0.1h0.1
		h0.1h0.1h0.1h0.1h0.1h0.1l0,0c0,0,0,0,0.1,0v-0.1l0,0c0,0,0,0,0-0.1v-0.1v-0.1v-0.1v-0.1v-0.1c0,0,0,0,0-0.1c0,0,0,0,0-0.1
		c0,0,0,0,0-0.1c0,0,0,0,0-0.1c0,0,0-0.1,0-0.1c0,0,0,0,0-0.1v-0.2c0,0,6859.8-0.1,0-0.1c0,0,0,0,0-0.1s0,0,0-0.1l0,0l0,0v-0.1
		c0,0,0,0,0-0.1v-0.1v-0.1v-0.1v-0.1V51l0,0V51c0,0,0,0,0,0h-0.1l0,0h-0.1h-0.1h-0.1h-0.1h-0.1h-0.1h-0.1h-0.1h-0.1L88.8,50.8
		L88.8,50.8z"/>
	<path style="clip-path:url(#SVGID_00000071535324634305325740000005332017962494023602_);fill:#FFD740;" d="M88.8,50.8h-0.3h-0.1
		l0,0h-0.1h-0.1h-0.1h-0.1h-0.1h-0.1H88l-0.1,0l0,0c0,0,0,0-0.1,0l0,0l0,0V51v0.1v0.1v0.1v0.1c0,0,0,0,0,0.1v0.1c0,0,0,0,0,0.1
		c0,0,0,0,0,0.1c0,0,0,0,0,0.1s0,0,0,0.1s0,0,0,0.1v0.2c0,0,0,0,0,0.1s0,0,0,0.1c0,0,0,0,0,0.1c0,0,0,0,0,0.1l0,0l0,0v0.1v0.1
		c0,0,0,0,0,0.1v0.1v0.1v0.1c0,0,0,0,0,0.1l0.1,0.1l0,0c0,0,0,0,0,0l0,0v0H88h0.1h0.1h0.1h0.1h0.1h0.1h0.1h0.1h0.6h0.1l0,0h0.1h0.1
		h0.1h0.1h0.1h0.1h0.1h0.1l0,0c0,0,0,0,0.1,0v-0.1l0,0c0,0,0,0,0-0.1v-0.1v-0.1v-0.1v-0.1v-0.1c0,0,0,0,0-0.1c0,0,0,0,0-0.1
		c0,0,0,0,0-0.1c0,0,0,0,0-0.1c0,0,0-0.1,0-0.1c0,0,0,0,0-0.1v-0.2c0,0,6859.8-0.1,0-0.1c0,0,0,0,0-0.1s0,0,0-0.1l0,0l0,0v-0.1
		c0,0,0,0,0-0.1v-0.1v-0.1v-0.1v-0.1V51l0,0V51c0,0,0,0,0,0h-0.1l0,0h-0.1h-0.1h-0.1h-0.1h-0.1h-0.1h-0.1h-0.1h-0.1L88.8,50.8
		L88.8,50.8z"/>
	<path style="clip-path:url(#SVGID_00000071535324634305325740000005332017962494023602_);fill:#FFD740;" d="M88.8,50.8h-0.3h-0.1
		l0,0h-0.1h-0.1h-0.1h-0.1h-0.1h-0.1H88l-0.1,0l0,0c0,0,0,0-0.1,0l0,0l0,0V51v0.1v0.1v0.1v0.1c0,0,0,0,0,0.1v0.1c0,0,0,0,0,0.1
		c0,0,0,0,0,0.1c0,0,0,0,0,0.1s0,0,0,0.1s0,0,0,0.1v0.2c0,0,0,0,0,0.1s0,0,0,0.1c0,0,0,0,0,0.1c0,0,0,0,0,0.1l0,0l0,0v0.1v0.1
		c0,0,0,0,0,0.1v0.1v0.1v0.1c0,0,0,0,0,0.1l0.1,0.1l0,0c0,0,0,0,0,0l0,0v0H88h0.1h0.1h0.1h0.1h0.1h0.1h0.1h0.1h0.6h0.1l0,0h0.1h0.1
		h0.1h0.1h0.1h0.1h0.1h0.1l0,0c0,0,0,0,0.1,0v-0.1l0,0c0,0,0,0,0-0.1v-0.1v-0.1v-0.1v-0.1v-0.1c0,0,0,0,0-0.1c0,0,0,0,0-0.1
		c0,0,0,0,0-0.1c0,0,0,0,0-0.1c0,0,0-0.1,0-0.1c0,0,0,0,0-0.1v-0.2c0,0,6859.8-0.1,0-0.1c0,0,0,0,0-0.1s0,0,0-0.1l0,0l0,0v-0.1
		c0,0,0,0,0-0.1v-0.1v-0.1v-0.1v-0.1V51l0,0V51c0,0,0,0,0,0h-0.1l0,0h-0.1h-0.1h-0.1h-0.1h-0.1h-0.1h-0.1h-0.1h-0.1L88.8,50.8
		L88.8,50.8z"/>
	<path style="clip-path:url(#SVGID_00000071535324634305325740000005332017962494023602_);fill:#FFD740;" d="M88.8,50.8h-0.3h-0.1
		l0,0h-0.1h-0.1h-0.1h-0.1h-0.1h-0.1H88l-0.1,0l0,0c0,0,0,0-0.1,0l0,0l0,0V51v0.1v0.1v0.1v0.1c0,0,0,0,0,0.1v0.1c0,0,0,0,0,0.1
		c0,0,0,0,0,0.1c0,0,0,0,0,0.1s0,0,0,0.1s0,0,0,0.1v0.2c0,0,0,0,0,0.1s0,0,0,0.1c0,0,0,0,0,0.1c0,0,0,0,0,0.1l0,0l0,0v0.1v0.1
		c0,0,0,0,0,0.1v0.1v0.1v0.1c0,0,0,0,0,0.1l0.1,0.1l0,0c0,0,0,0,0,0l0,0v0H88h0.1h0.1h0.1h0.1h0.1h0.1h0.1h0.1h0.6h0.1l0,0h0.1h0.1
		h0.1h0.1h0.1h0.1h0.1h0.1l0,0c0,0,0,0,0.1,0v-0.1l0,0c0,0,0,0,0-0.1v-0.1v-0.1v-0.1v-0.1v-0.1c0,0,0,0,0-0.1c0,0,0,0,0-0.1
		c0,0,0,0,0-0.1c0,0,0,0,0-0.1c0,0,0-0.1,0-0.1c0,0,0,0,0-0.1v-0.2c0,0,6859.8-0.1,0-0.1c0,0,0,0,0-0.1s0,0,0-0.1l0,0l0,0v-0.1
		c0,0,0,0,0-0.1v-0.1v-0.1v-0.1v-0.1V51l0,0V51c0,0,0,0,0,0h-0.1l0,0h-0.1h-0.1h-0.1h-0.1h-0.1h-0.1h-0.1h-0.1h-0.1L88.8,50.8
		L88.8,50.8z"/>
	<path style="clip-path:url(#SVGID_00000071535324634305325740000005332017962494023602_);fill:#FFD740;" d="M88.8,50.8h-0.3h-0.1
		l0,0h-0.1h-0.1h-0.1h-0.1h-0.1h-0.1H88l-0.1,0l0,0c0,0,0,0-0.1,0l0,0l0,0V51v0.1v0.1v0.1v0.1c0,0,0,0,0,0.1v0.1c0,0,0,0,0,0.1
		c0,0,0,0,0,0.1c0,0,0,0,0,0.1s0,0,0,0.1s0,0,0,0.1v0.2c0,0,0,0,0,0.1s0,0,0,0.1c0,0,0,0,0,0.1c0,0,0,0,0,0.1l0,0l0,0v0.1v0.1
		c0,0,0,0,0,0.1v0.1v0.1v0.1c0,0,0,0,0,0.1l0.1,0.1l0,0c0,0,0,0,0,0l0,0v0H88h0.1h0.1h0.1h0.1h0.1h0.1h0.1h0.1h0.6h0.1l0,0h0.1h0.1
		h0.1h0.1h0.1h0.1h0.1h0.1l0,0c0,0,0,0,0.1,0v-0.1l0,0c0,0,0,0,0-0.1v-0.1v-0.1v-0.1v-0.1v-0.1c0,0,0,0,0-0.1c0,0,0,0,0-0.1
		c0,0,0,0,0-0.1c0,0,0,0,0-0.1c0,0,0-0.1,0-0.1c0,0,0,0,0-0.1v-0.2c0,0,6859.8-0.1,0-0.1c0,0,0,0,0-0.1s0,0,0-0.1l0,0l0,0v-0.1
		c0,0,0,0,0-0.1v-0.1v-0.1v-0.1v-0.1V51l0,0V51c0,0,0,0,0,0h-0.1l0,0h-0.1h-0.1h-0.1h-0.1h-0.1h-0.1h-0.1h-0.1h-0.1L88.8,50.8
		L88.8,50.8z"/>
	<path style="clip-path:url(#SVGID_00000071535324634305325740000005332017962494023602_);fill:#FFD740;" d="M88.8,50.8h-0.3h-0.1
		l0,0h-0.1h-0.1h-0.1h-0.1h-0.1h-0.1H88l-0.1,0l0,0c0,0,0,0-0.1,0l0,0l0,0V51v0.1v0.1v0.1v0.1c0,0,0,0,0,0.1v0.1c0,0,0,0,0,0.1
		c0,0,0,0,0,0.1c0,0,0,0,0,0.1s0,0,0,0.1s0,0,0,0.1v0.2c0,0,0,0,0,0.1s0,0,0,0.1c0,0,0,0,0,0.1c0,0,0,0,0,0.1l0,0l0,0v0.1v0.1
		c0,0,0,0,0,0.1v0.1v0.1v0.1c0,0,0,0,0,0.1l0.1,0.1l0,0c0,0,0,0,0,0l0,0v0H88h0.1h0.1h0.1h0.1h0.1h0.1h0.1h0.1h0.7h0.1h0.1h0.1h0.1
		h0.1h0.1h0.1h0.1v0h0.1l0,0v-0.1l0,0v-0.1v-0.1v-0.1v-0.1v-0.1c0,0,0,0,0-0.1c0,0,0,0,0-0.1c0,0,0,0,0-0.1c0,0,0,0,0-0.1
		c0,0,5312.5-0.1,0-0.1v-0.2c0,0,0-0.1,0-0.1c0,0,0,0,0-0.1c0,0,0,0,0-0.1s0,0,0-0.1l0,0l0,0v-0.1c0,0,0,0,0-0.1v-0.1v-0.1v-0.1
		v-0.1V51l0,0V51c0,0,0,0,0,0h-0.1l0,0h-0.1h-0.1h-0.1h-0.1h-0.1h-0.1h-0.1h-0.1h-0.1h-0.1L88.8,50.8L88.8,50.8z"/>
	<path style="clip-path:url(#SVGID_00000071535324634305325740000005332017962494023602_);fill:#FFD740;" d="M88.8,50.8h-0.3h-0.1
		l0,0h-0.1h-0.1h-0.1h-0.1h-0.1h-0.1H88l-0.1,0l0,0c0,0,0,0-0.1,0l0,0l0,0V51v0.1v0.1v0.1v0.1c0,0,0,0,0,0.1v0.1c0,0,0,0,0,0.1
		c0,0,0,0,0,0.1c0,0,0,0,0,0.1s0,0,0,0.1s0,0,0,0.1v0.2c0,0,0,0,0,0.1s0,0,0,0.1c0,0,0,0,0,0.1c0,0,0,0,0,0.1l0,0l0,0v0.1v0.1
		c0,0,0,0,0,0.1v0.1v0.1v0.1c0,0,0,0,0,0.1l0.1,0.1l0,0c0,0,0,0,0,0l0,0v0H88h0.1h0.1h0.1h0.1h0.1h0.1h0.1h0.1h0.6h0.1l0,0h0.1h0.1
		h0.1h0.1h0.1h0.1h0.1h0.1l0,0c0,0,0,0,0.1,0v-0.1l0,0c0,0,0,0,0-0.1v-0.1v-0.1v-0.1v-0.1v-0.1c0,0,0,0,0-0.1c0,0,0,0,0-0.1
		c0,0,0,0,0-0.1c0,0,0,0,0-0.1c0,0,0-0.1,0-0.1c0,0,0,0,0-0.1v-0.2c0,0,6859.8-0.1,0-0.1c0,0,0,0,0-0.1s0,0,0-0.1l0,0l0,0v-0.1
		c0,0,0,0,0-0.1v-0.1v-0.1v-0.1v-0.1V51l0,0V51c0,0,0,0,0,0h-0.1l0,0h-0.1h-0.1h-0.1h-0.1h-0.1h-0.1h-0.1h-0.1h-0.1L88.8,50.8
		L88.8,50.8z"/>
	<path style="clip-path:url(#SVGID_00000071535324634305325740000005332017962494023602_);fill:#FFD740;" d="M88.8,50.8h-0.3h-0.1
		l0,0h-0.1h-0.1h-0.1h-0.1h-0.1h-0.1H88l-0.1,0l0,0c0,0,0,0-0.1,0l0,0l0,0V51v0.1v0.1v0.1v0.1c0,0,0,0,0,0.1v0.1c0,0,0,0,0,0.1
		c0,0,0,0,0,0.1c0,0,0,0,0,0.1s0,0,0,0.1s0,0,0,0.1v0.2c0,0,0,0,0,0.1s0,0,0,0.1c0,0,0,0,0,0.1c0,0,0,0,0,0.1l0,0l0,0v0.1v0.1
		c0,0,0,0,0,0.1v0.1v0.1v0.1c0,0,0,0,0,0.1l0.1,0.1l0,0c0,0,0,0,0,0l0,0v0H88h0.1h0.1h0.1h0.1h0.1h0.1h0.1h0.1h0.6h0.1l0,0h0.1h0.1
		h0.1h0.1h0.1h0.1h0.1h0.1l0,0c0,0,0,0,0.1,0v-0.1l0,0c0,0,0,0,0-0.1v-0.1v-0.1v-0.1v-0.1v-0.1c0,0,0,0,0-0.1c0,0,0,0,0-0.1
		c0,0,0,0,0-0.1c0,0,0,0,0-0.1c0,0,0-0.1,0-0.1c0,0,0,0,0-0.1v-0.2c0,0,6859.8-0.1,0-0.1c0,0,0,0,0-0.1s0,0,0-0.1l0,0l0,0v-0.1
		c0,0,0,0,0-0.1v-0.1v-0.1v-0.1v-0.1V51l0,0V51c0,0,0,0,0,0h-0.1l0,0h-0.1h-0.1h-0.1h-0.1h-0.1h-0.1h-0.1h-0.1h-0.1L88.8,50.8
		L88.8,50.8z"/>
	<path style="clip-path:url(#SVGID_00000071535324634305325740000005332017962494023602_);fill:#FFD740;" d="M88.8,50.8h-0.3h-0.1
		l0,0h-0.1h-0.1h-0.1h-0.1h-0.1h-0.1H88l-0.1,0l0,0c0,0,0,0-0.1,0l0,0l0,0V51v0.1v0.1v0.1v0.1c0,0,0,0,0,0.1v0.1c0,0,0,0,0,0.1
		c0,0,0,0,0,0.1c0,0,0,0,0,0.1s0,0,0,0.1s0,0,0,0.1v0.2c0,0,0,0,0,0.1s0,0,0,0.1c0,0,0,0,0,0.1c0,0,0,0,0,0.1l0,0l0,0v0.1v0.1
		c0,0,0,0,0,0.1v0.1v0.1v0.1c0,0,0,0,0,0.1l0.1,0.1l0,0c0,0,0,0,0,0l0,0v0H88h0.1h0.1h0.1h0.1h0.1h0.1h0.1h0.1h0.6h0.1l0,0h0.1h0.1
		h0.1h0.1h0.1h0.1h0.1h0.1l0,0c0,0,0,0,0.1,0v-0.1l0,0c0,0,0,0,0-0.1v-0.1v-0.1v-0.1v-0.1v-0.1c0,0,0,0,0-0.1c0,0,0,0,0-0.1
		c0,0,0,0,0-0.1c0,0,0,0,0-0.1c0,0,0-0.1,0-0.1c0,0,0,0,0-0.1v-0.2c0,0,6859.8-0.1,0-0.1c0,0,0,0,0-0.1s0,0,0-0.1l0,0l0,0v-0.1
		c0,0,0,0,0-0.1v-0.1v-0.1v-0.1v-0.1V51l0,0V51c0,0,0,0,0,0h-0.1l0,0h-0.1h-0.1h-0.1h-0.1h-0.1h-0.1h-0.1h-0.1h-0.1L88.8,50.8
		L88.8,50.8z"/>
	<path style="clip-path:url(#SVGID_00000071535324634305325740000005332017962494023602_);fill:#FFD740;" d="M88.8,50.8h-0.3h-0.1
		l0,0h-0.1h-0.1h-0.1h-0.1h-0.1h-0.1H88l-0.1,0l0,0c0,0,0,0-0.1,0l0,0l0,0V51v0.1v0.1v0.1v0.1c0,0,0,0,0,0.1v0.1c0,0,0,0,0,0.1
		c0,0,0,0,0,0.1c0,0,0,0,0,0.1s0,0,0,0.1s0,0,0,0.1v0.2c0,0,0,0,0,0.1s0,0,0,0.1c0,0,0,0,0,0.1c0,0,0,0,0,0.1l0,0l0,0v0.1v0.1
		c0,0,0,0,0,0.1v0.1v0.1v0.1c0,0,0,0,0,0.1l0.1,0.1l0,0c0,0,0,0,0,0l0,0v0H88h0.1h0.1h0.1h0.1h0.1h0.1h0.1h0.1h0.6h0.1l0,0h0.1h0.1
		h0.1h0.1h0.1h0.1h0.1h0.1l0,0c0,0,0,0,0.1,0v-0.1l0,0c0,0,0,0,0-0.1v-0.1v-0.1v-0.1v-0.1v-0.1c0,0,0,0,0-0.1c0,0,0,0,0-0.1
		c0,0,0,0,0-0.1c0,0,0,0,0-0.1c0,0,0-0.1,0-0.1c0,0,0,0,0-0.1v-0.2c0,0,6859.8-0.1,0-0.1c0,0,0,0,0-0.1s0,0,0-0.1l0,0l0,0v-0.1
		c0,0,0,0,0-0.1v-0.1v-0.1v-0.1v-0.1V51l0,0V51c0,0,0,0,0,0h-0.1l0,0h-0.1h-0.1h-0.1h-0.1h-0.1h-0.1h-0.1h-0.1h-0.1L88.8,50.8
		L88.8,50.8z"/>
	<path style="clip-path:url(#SVGID_00000071535324634305325740000005332017962494023602_);fill:#FFD740;" d="M88.8,50.8h-0.3h-0.1
		l0,0h-0.1h-0.1h-0.1h-0.1h-0.1h-0.1H88l-0.1,0l0,0c0,0,0,0-0.1,0l0,0l0,0V51v0.1v0.1v0.1v0.1c0,0,0,0,0,0.1v0.1c0,0,0,0,0,0.1
		c0,0,0,0,0,0.1c0,0,0,0,0,0.1s0,0,0,0.1s0,0,0,0.1v0.2c0,0,0,0,0,0.1s0,0,0,0.1c0,0,0,0,0,0.1c0,0,0,0,0,0.1l0,0l0,0v0.1v0.1
		c0,0,0,0,0,0.1v0.1v0.1v0.1c0,0,0,0,0,0.1l0.1,0.1l0,0c0,0,0,0,0,0l0,0v0H88h0.1h0.1h0.1h0.1h0.1h0.1h0.1h0.1h0.6h0.1l0,0h0.1h0.1
		h0.1h0.1h0.1h0.1h0.1h0.1l0,0c0,0,0,0,0.1,0v-0.1l0,0c0,0,0,0,0-0.1v-0.1v-0.1v-0.1v-0.1v-0.1c0,0,0,0,0-0.1c0,0,0,0,0-0.1
		c0,0,0,0,0-0.1c0,0,0,0,0-0.1c0,0,0-0.1,0-0.1c0,0,0,0,0-0.1v-0.2c0,0,6859.8-0.1,0-0.1c0,0,0,0,0-0.1s0,0,0-0.1l0,0l0,0v-0.1
		c0,0,0,0,0-0.1v-0.1v-0.1v-0.1v-0.1V51l0,0V51c0,0,0,0,0,0h-0.1l0,0h-0.1h-0.1h-0.1h-0.1h-0.1h-0.1h-0.1h-0.1h-0.1L88.8,50.8
		L88.8,50.8z"/>
	<path style="clip-path:url(#SVGID_00000071535324634305325740000005332017962494023602_);fill:#FFD740;" d="M88.8,50.8h-0.3h-0.1
		l0,0h-0.1h-0.1h-0.1h-0.1h-0.1h-0.1H88l-0.1,0l0,0c0,0,0,0-0.1,0l0,0l0,0V51v0.1v0.1v0.1v0.1c0,0,0,0,0,0.1v0.1c0,0,0,0,0,0.1
		c0,0,0,0,0,0.1c0,0,0,0,0,0.1s0,0,0,0.1s0,0,0,0.1v0.2c0,0,0,0,0,0.1s0,0,0,0.1c0,0,0,0,0,0.1c0,0,0,0,0,0.1l0,0l0,0v0.1v0.1
		c0,0,0,0,0,0.1v0.1v0.1v0.1c0,0,0,0,0,0.1l0.1,0.1l0,0c0,0,0,0,0,0l0,0v0H88h0.1h0.1h0.1h0.1h0.1h0.1h0.1h0.1h0.6h0.1l0,0h0.1h0.1
		h0.1h0.1h0.1h0.1h0.1h0.1l0,0c0,0,0,0,0.1,0v-0.1l0,0c0,0,0,0,0-0.1v-0.1v-0.1v-0.1v-0.1v-0.1c0,0,0,0,0-0.1c0,0,0,0,0-0.1
		c0,0,0,0,0-0.1c0,0,0,0,0-0.1c0,0,0-0.1,0-0.1c0,0,0,0,0-0.1v-0.2c0,0,6859.8-0.1,0-0.1c0,0,0,0,0-0.1s0,0,0-0.1l0,0l0,0v-0.1
		c0,0,0,0,0-0.1v-0.1v-0.1v-0.1v-0.1V51l0,0V51c0,0,0,0,0,0h-0.1l0,0h-0.1h-0.1h-0.1h-0.1h-0.1h-0.1h-0.1h-0.1h-0.1L88.8,50.8
		L88.8,50.8z"/>
	<path style="clip-path:url(#SVGID_00000071535324634305325740000005332017962494023602_);fill:#FFD740;" d="M88.8,50.8h-0.3h-0.1
		l0,0h-0.1h-0.1h-0.1h-0.1h-0.1h-0.1H88l-0.1,0l0,0c0,0,0,0-0.1,0l0,0l0,0V51v0.1v0.1v0.1v0.1c0,0,0,0,0,0.1v0.1c0,0,0,0,0,0.1
		c0,0,0,0,0,0.1c0,0,0,0,0,0.1s0,0,0,0.1s0,0,0,0.1v0.2c0,0,0,0,0,0.1s0,0,0,0.1c0,0,0,0,0,0.1c0,0,0,0,0,0.1l0,0l0,0v0.1v0.1
		c0,0,0,0,0,0.1v0.1v0.1v0.1c0,0,0,0,0,0.1l0.1,0.1l0,0c0,0,0,0,0,0l0,0v0H88h0.1h0.1h0.1h0.1h0.1h0.1h0.1h0.1h0.6h0.1l0,0h0.1h0.1
		h0.1h0.1h0.1h0.1h0.1h0.1l0,0c0,0,0,0,0.1,0v-0.1l0,0c0,0,0,0,0-0.1v-0.1v-0.1v-0.1v-0.1v-0.1c0,0,0,0,0-0.1c0,0,0,0,0-0.1
		c0,0,0,0,0-0.1c0,0,0,0,0-0.1c0,0,0-0.1,0-0.1c0,0,0,0,0-0.1v-0.2c0,0,6859.8-0.1,0-0.1c0,0,0,0,0-0.1s0,0,0-0.1l0,0l0,0v-0.1
		c0,0,0,0,0-0.1v-0.1v-0.1v-0.1v-0.1V51l0,0V51c0,0,0,0,0,0h-0.1l0,0h-0.1h-0.1h-0.1h-0.1h-0.1h-0.1h-0.1h-0.1h-0.1L88.8,50.8
		L88.8,50.8z"/>
	<path style="clip-path:url(#SVGID_00000071535324634305325740000005332017962494023602_);fill:#FFD740;" d="M88.8,50.8h-0.3h-0.1
		l0,0h-0.1h-0.1h-0.1h-0.1h-0.1h-0.1H88l-0.1,0l0,0c0,0,0,0-0.1,0l0,0l0,0V51v0.1v0.1v0.1v0.1c0,0,0,0,0,0.1v0.1c0,0,0,0,0,0.1
		c0,0,0,0,0,0.1c0,0,0,0,0,0.1s0,0,0,0.1s0,0,0,0.1v0.2c0,0,0,0,0,0.1s0,0,0,0.1c0,0,0,0,0,0.1c0,0,0,0,0,0.1l0,0l0,0v0.1v0.1
		c0,0,0,0,0,0.1v0.1v0.1v0.1c0,0,0,0,0,0.1l0.1,0.1l0,0c0,0,0,0,0,0l0,0v0H88h0.1h0.1h0.1h0.1h0.1h0.1h0.1h0.1h0.6h0.1l0,0h0.1h0.1
		h0.1h0.1h0.1h0.1h0.1h0.1l0,0c0,0,0,0,0.1,0v-0.1l0,0c0,0,0,0,0-0.1v-0.1v-0.1v-0.1v-0.1v-0.1c0,0,0,0,0-0.1c0,0,0,0,0-0.1
		c0,0,0,0,0-0.1c0,0,0,0,0-0.1c0,0,0-0.1,0-0.1c0,0,0,0,0-0.1v-0.2c0,0,6859.8-0.1,0-0.1c0,0,0,0,0-0.1s0,0,0-0.1l0,0l0,0v-0.1
		c0,0,0,0,0-0.1v-0.1v-0.1v-0.1v-0.1V51l0,0V51c0,0,0,0,0,0h-0.1l0,0h-0.1h-0.1h-0.1h-0.1h-0.1h-0.1h-0.1h-0.1h-0.1L88.8,50.8
		L88.8,50.8z"/>
	<path style="clip-path:url(#SVGID_00000071535324634305325740000005332017962494023602_);fill:#FFD740;" d="M88.8,50.8h-0.3h-0.1
		l0,0h-0.1h-0.1h-0.1h-0.1h-0.1h-0.1H88l-0.1,0l0,0c0,0,0,0-0.1,0l0,0l0,0V51v0.1v0.1v0.1v0.1c0,0,0,0,0,0.1v0.1c0,0,0,0,0,0.1
		c0,0,0,0,0,0.1c0,0,0,0,0,0.1s0,0,0,0.1s0,0,0,0.1v0.2c0,0,0,0,0,0.1s0,0,0,0.1c0,0,0,0,0,0.1c0,0,0,0,0,0.1l0,0l0,0v0.1v0.1
		c0,0,0,0,0,0.1v0.1v0.1v0.1c0,0,0,0,0,0.1l0.1,0.1l0,0c0,0,0,0,0,0l0,0v0H88h0.1h0.1h0.1h0.1h0.1h0.1h0.1h0.1h0.6h0.1l0,0h0.1h0.1
		h0.1h0.1h0.1h0.1h0.1h0.1l0,0c0,0,0,0,0.1,0v-0.1l0,0c0,0,0,0,0-0.1v-0.1v-0.1v-0.1v-0.1v-0.1c0,0,0,0,0-0.1c0,0,0,0,0-0.1
		c0,0,0,0,0-0.1c0,0,0,0,0-0.1c0,0,0-0.1,0-0.1c0,0,0,0,0-0.1v-0.2c0,0,6859.8-0.1,0-0.1c0,0,0,0,0-0.1s0,0,0-0.1l0,0l0,0v-0.1
		c0,0,0,0,0-0.1v-0.1v-0.1v-0.1v-0.1V51l0,0V51c0,0,0,0,0,0h-0.1l0,0h-0.1h-0.1h-0.1h-0.1h-0.1h-0.1h-0.1h-0.1h-0.1L88.8,50.8
		L88.8,50.8z"/>
	<path style="clip-path:url(#SVGID_00000071535324634305325740000005332017962494023602_);fill:#1A1A1A;" d="M88,88.1
		c5.4,0,9.8,4.4,9.8,9.7c0,0,0,0,0,0v4.9c0.2,5.4-4.1,9.9-9.5,10.1c-5.4,0.2-9.9-4.1-10.1-9.5c0-0.2,0-0.4,0-0.6v-4.9
		C78.2,92.5,82.6,88.1,88,88.1C88,88.1,88,88.1,88,88.1z"/>
	<path style="clip-path:url(#SVGID_00000071535324634305325740000005332017962494023602_);fill:#FFFFFF;" d="M93.7,95.1
		c0,1.7-1.4,3.2-3.2,3.2s-3.2-1.4-3.2-3.2c0-1.7,1.4-3.2,3.2-3.2C92.2,91.9,93.6,93.3,93.7,95.1C93.7,95.1,93.7,95.1,93.7,95.1z"/>
	<path style="clip-path:url(#SVGID_00000071535324634305325740000005332017962494023602_);fill:#1A1A1A;" d="M128.3,88.1
		c5.4,0,9.8,4.3,9.8,9.7c0,0,0,0,0,0.1v4.9c0.2,5.4-4.1,9.9-9.5,10.1c-5.4,0.2-9.9-4.1-10.1-9.5c0-0.2,0-0.4,0-0.6v-4.9
		C118.5,92.5,122.9,88.1,128.3,88.1C128.3,88.1,128.3,88.1,128.3,88.1z"/>
	<path style="clip-path:url(#SVGID_00000071535324634305325740000005332017962494023602_);fill:#FFFFFF;" d="M134,95.1
		c0,1.7-1.4,3.2-3.2,3.2s-3.2-1.4-3.2-3.2c0-1.7,1.4-3.2,3.2-3.2c0,0,0,0,0,0C132.6,91.9,134,93.4,134,95.1z"/>
	<path style="clip-path:url(#SVGID_00000071535324634305325740000005332017962494023602_);fill:#AF1739;" d="M93.9,118.1
		c-1.7,0-3,1.3-3,3v3.4c0.2,9.5,8.1,17.1,17.7,16.8c9.2-0.2,16.6-7.6,16.8-16.8v-3.4c0-1.7-1.3-3-3-3H93.9z"/>
	<path style="clip-path:url(#SVGID_00000071535324634305325740000005332017962494023602_);fill:#EB5775;" d="M108.1,129.9
		c-5,0-9.7,2.2-13,5.9c6.3,7.2,17.2,7.9,24.4,1.6c0.6-0.5,1.1-1.1,1.6-1.6C117.9,132,113.1,129.8,108.1,129.9z"/>
	<path style="clip-path:url(#SVGID_00000071535324634305325740000005332017962494023602_);fill:#FFFFFF;" d="M93.9,118.1
		c-1.7,0-3,1.3-3,3v3c10.9,5.2,23.6,5.2,34.5,0v-3c0-1.7-1.3-3-3-3H93.9z"/>
	<path style="clip-path:url(#SVGID_00000071535324634305325740000005332017962494023602_);fill:#BADBE9;" d="M93.9,118.1
		c-1.7,0-3,1.3-3,3v3c1.9,0.9,3.9,1.7,6,2.3c-1.2-0.8-1.4-1.9-1.4-3.6v-4.6L93.9,118.1z"/>
	<path style="clip-path:url(#SVGID_00000071535324634305325740000005332017962494023602_);fill:#BADBE9;" d="M116.2,118.1v4.6
		c0,2.3-0.6,4.3-2.6,4.9c4.1-0.6,8.1-1.7,11.8-3.5v-3c0-1.7-1.3-3-3-3l0,0L116.2,118.1z"/>
	<path style="clip-path:url(#SVGID_00000071535324634305325740000005332017962494023602_);fill:#8BB0CC;" d="M122.4,118.1
		c1.7,0,3,1.3,3,3v3c-1.9,0.9-3.9,1.7-6,2.3c1.2-0.8,1.4-1.9,1.4-3.6v-4.6L122.4,118.1z"/>
	<path style="clip-path:url(#SVGID_00000071535324634305325740000005332017962494023602_);fill:#1A1A1A;" d="M93.9,117.1
		c-2.2,0-3.9,1.8-3.9,3.9v3.4c0.2,10.1,8.6,18,18.6,17.8c9.7-0.2,17.6-8.1,17.8-17.8v-3.4c0-2.2-1.8-3.9-3.9-3.9H93.9z M93.9,119
		h28.5c1.1,0,2,0.9,2,2v3.4c-0.2,9-7.7,16.1-16.7,15.9c-8.7-0.2-15.7-7.2-15.9-15.9V121C91.8,119.9,92.7,119,93.9,119L93.9,119z"/>
	<path style="clip-path:url(#SVGID_00000071535324634305325740000005332017962494023602_);fill:#1A1A1A;" d="M90.7,123.5l-0.4,0.8
		c11.3,5.5,24.4,5.5,35.7,0l-0.4-0.8C114.6,128.9,101.7,128.9,90.7,123.5z"/>
	<path style="clip-path:url(#SVGID_00000071535324634305325740000005332017962494023602_);fill:#F293A2;" d="M106.2,134.5
		c0,0.6-0.3,1.1-0.8,1.4c-0.6,0.4-1.3,0.6-2,0.6c-1.6,0-2.9-0.9-2.9-2s1.3-2,2.9-2c0.7,0,1.4,0.2,2,0.6
		C105.9,133.4,106.2,134,106.2,134.5L106.2,134.5z"/>
	<path style="clip-path:url(#SVGID_00000071535324634305325740000005332017962494023602_);fill:#1A1A1A;" d="M44,123.3v5.7
		c1.8,0,3.3,1.5,3.3,3.3s-1.5,3.3-3.3,3.3v5.7c5,0,9-4,9-9S49,123.3,44,123.3L44,123.3z"/>
	<path style="clip-path:url(#SVGID_00000071535324634305325740000005332017962494023602_);fill:#1A1A1A;" d="M31.7,111
		c-11.8,0-21.3,9.5-21.3,21.3s9.5,21.3,21.3,21.3H44c5,0,9-4,9-9s-4-9-9-9v5.7c1.8,0,3.3,1.5,3.3,3.3s-1.5,3.3-3.3,3.3H31.7
		c-8.6,0-15.6-7-15.6-15.6c0-8.6,7-15.6,15.6-15.6H44c1.8,0,3.3,1.5,3.3,3.3c0,1.8-1.5,3.3-3.3,3.3v5.7c5,0,9-4,9-9s-4-9-9-9H31.7z"
		/>
	<path style="clip-path:url(#SVGID_00000071535324634305325740000005332017962494023602_);fill:#1A1A1A;" d="M28.8,96.1
		c-4.8-1.3-9.7,1.6-11,6.4l-3.2,11.9c-1.3,4.8,1.6,9.7,6.4,11c4.8,1.3,9.7-1.6,11-6.4l3.2-11.9C36.5,102.3,33.6,97.4,28.8,96.1
		L28.8,96.1z M27.3,101.6c1.7,0.4,2.8,2.2,2.4,3.9c0,0,0,0,0,0.1l-3.2,11.9c-0.4,1.8-2.1,2.9-3.9,2.5c-1.8-0.4-2.9-2.1-2.5-3.9
		c0-0.1,0-0.2,0.1-0.3l3.2-11.8c0.4-1.7,2.2-2.8,3.9-2.4C27.2,101.6,27.2,101.7,27.3,101.6L27.3,101.6z"/>
	<path style="clip-path:url(#SVGID_00000071535324634305325740000005332017962494023602_);fill:#C0C0C0;" d="M28,98.9
		c3.3,0.9,5.2,4.2,4.4,7.5c0,0,0,0,0,0l-3.2,11.9c-0.8,3.3-4.2,5.3-7.5,4.5s-5.3-4.2-4.5-7.5c0-0.1,0-0.1,0.1-0.2l3.2-11.9
		C21.4,100,24.8,98,28,98.9C28,98.9,28,98.9,28,98.9z"/>
	<path style="clip-path:url(#SVGID_00000071535324634305325740000005332017962494023602_);fill:#1A1A1A;" d="M28.3,98
		c-3.8-1-7.7,1.2-8.7,5l-3.2,11.9c-1.1,3.8,1,7.7,4.8,8.8c3.8,1.1,7.7-1,8.8-4.8c0-0.1,0.1-0.2,0.1-0.4l3.2-11.9
		C34.3,102.9,32.1,99,28.3,98L28.3,98z M27.8,99.8c2.8,0.7,4.4,3.5,3.7,6.3c0,0,0,0,0,0.1l-3.2,11.8c-1,2.7-4,4.1-6.7,3.1
		c-2.4-0.9-3.8-3.3-3.3-5.8l3.2-11.9C22.2,100.7,25,99.1,27.8,99.8L27.8,99.8z"/>
	<path style="clip-path:url(#SVGID_00000071535324634305325740000005332017962494023602_);fill:#FFFFFF;" d="M44,150.7
		c3.4,0,6.2-2.8,6.2-6.2c0-3.4-2.8-6.1-6.2-6.1c3.4,0,6.2-2.8,6.2-6.1c0-3.4-2.8-6.2-6.2-6.2c3.4,0,6.2-2.8,6.2-6.2
		s-2.8-6.2-6.2-6.2H31.7c-10.2,0-18.4,8.3-18.4,18.5c0,10.2,8.3,18.4,18.4,18.4L44,150.7z"/>
	<path style="clip-path:url(#SVGID_00000071535324634305325740000005332017962494023602_);fill:#C0C0C0;" d="M40.7,113.8h-9
		c-10.2,0-18.4,8.3-18.4,18.5c0,10.2,8.3,18.4,18.4,18.4h9c-10.2,0-18.5-8.3-18.5-18.4S30.5,113.8,40.7,113.8z"/>
	<path style="clip-path:url(#SVGID_00000071535324634305325740000005332017962494023602_);fill:#1A1A1A;" d="M44,125.2v1.9
		c2.9,0,5.2,2.3,5.2,5.2c0,2.9-2.3,5.2-5.2,5.2v1.9c3.9,0,7.1-3.2,7.1-7.1C51.1,128.4,47.9,125.2,44,125.2z"/>
	<path style="clip-path:url(#SVGID_00000071535324634305325740000005332017962494023602_);fill:#1A1A1A;" d="M31.7,112.9
		c-10.7,0-19.4,8.7-19.4,19.4s8.7,19.4,19.4,19.4H44c3.9,0,7.1-3.2,7.1-7.1c0-3.9-3.2-7.1-7.1-7.1v1.9c2.9,0,5.2,2.3,5.2,5.2
		c0,2.9-2.3,5.2-5.2,5.2H31.7c-9.7,0-17.5-7.8-17.5-17.5s7.8-17.5,17.5-17.5H44c2.9,0,5.2,2.3,5.2,5.2c0,2.9-2.3,5.2-5.2,5.2v1.9
		c3.9,0,7.1-3.2,7.1-7.1c0-3.9-3.2-7.1-7.1-7.1H31.7z"/>
	
		<rect x="30.8" y="119.1" style="clip-path:url(#SVGID_00000071535324634305325740000005332017962494023602_);fill:#1A1A1A;" width="1.9" height="26.4"/>
	<path style="clip-path:url(#SVGID_00000071535324634305325740000005332017962494023602_);fill:#53B582;" d="M150.6,0h29h16v16
		c0,7,0,14,0,21c-10.2,12.4-28.6,14.2-41,4S140.3,12.4,150.6,0z"/>
	<g style="clip-path:url(#SVGID_00000071535324634305325740000005332017962494023602_);enable-background:new    ;">
		<text transform="matrix(1 0 0 1 159.61 31.75)" class="st33 st3 st34">11</text>
	</g>
</g>
</svg>
