<svg id="Слой_1" data-name="Слой 1" xmlns="http://www.w3.org/2000/svg" viewBox="0 0 195.59 280.63"><defs><style>.cls-1{fill:#c9345f;}.cls-2{font-size:53.3px;}.cls-17,.cls-2{fill:#53b582;}.cls-2,.cls-30{font-family:Impact;}.cls-3{fill:#d4c1bb;}.cls-4{fill:#1a1a1a;}.cls-5{fill:silver;}.cls-6{fill:#f5ba4e;}.cls-7{fill:#ffdb82;}.cls-8{fill:#dc9133;}.cls-9{fill:#ec6665;}.cls-10{fill:#d2c0c1;}.cls-11{fill:#9d7f81;}.cls-12,.cls-30{fill:#fff;}.cls-13{fill:#f3af28;}.cls-14{fill:#ffd740;}.cls-15{fill:#dd7f1b;}.cls-16{fill:#902f54;}.cls-18{fill:#88c58d;}.cls-19{fill:#2c8468;}.cls-20{fill:#e5dad6;}.cls-21{fill:#e73a2e;}.cls-22{fill:#b4958f;}.cls-23{fill:#ec604b;}.cls-24{fill:#f39461;}.cls-25{fill:#af1739;}.cls-26{fill:#eb5775;}.cls-27{fill:#badbe9;}.cls-28{fill:#8bb0cc;}.cls-29{fill:#f293a2;}.cls-30{font-size:20px;}</style></defs><rect class="cls-1" x="-5.47" y="-6.2" width="208.29" height="299.54"/><text class="cls-2" transform="translate(16.55 256.45)">barszcz</text><path class="cls-3" d="M100.45,166.83c0-11.42,5-13.7,8.51-13.7s8.5,2.28,8.5,13.7-3.81,27.67-8.5,27.67-8.51-16.24-8.51-27.67Zm0,0"/><path class="cls-4" d="M109,150.75a9.69,9.69,0,0,0-7.38,3.41c-2.18,2.58-3.51,6.61-3.51,12.67a73.74,73.74,0,0,0,2.58,18.76,31,31,0,0,0,3,7.41c1.19,2,2.8,3.87,5.35,3.87s4.15-1.87,5.35-3.87a31.42,31.42,0,0,0,3-7.41,73.74,73.74,0,0,0,2.58-18.76c0-6.06-1.33-10.09-3.51-12.67a9.69,9.69,0,0,0-7.37-3.41Zm0,4.75a4.56,4.56,0,0,1,3.74,1.73c1.2,1.42,2.39,4.24,2.39,9.6a70.63,70.63,0,0,1-2.4,17.48,27.73,27.73,0,0,1-2.46,6.25,5,5,0,0,1-1.27,1.51,4.78,4.78,0,0,1-1.28-1.51,27.73,27.73,0,0,1-2.46-6.25,70.63,70.63,0,0,1-2.4-17.48c0-5.36,1.19-8.18,2.39-9.6A4.58,4.58,0,0,1,109,155.5Zm0,0"/><path class="cls-3" d="M57.43,166.83c0-11.42,5-13.7,8.51-13.7s8.5,2.28,8.5,13.7-3.8,27.67-8.5,27.67-8.51-16.24-8.51-27.67Zm0,0"/><path class="cls-4" d="M65.94,150.75a9.69,9.69,0,0,0-7.38,3.41c-2.18,2.58-3.51,6.61-3.51,12.67a73.74,73.74,0,0,0,2.58,18.76,31,31,0,0,0,3,7.41c1.19,2,2.8,3.87,5.35,3.87S70.09,195,71.29,193a31.42,31.42,0,0,0,2.95-7.41,73.74,73.74,0,0,0,2.58-18.76c0-6.06-1.33-10.09-3.51-12.67a9.69,9.69,0,0,0-7.37-3.41Zm0,4.75a4.56,4.56,0,0,1,3.74,1.73c1.2,1.42,2.39,4.24,2.39,9.6a70.63,70.63,0,0,1-2.4,17.48,27.73,27.73,0,0,1-2.46,6.25,5,5,0,0,1-1.27,1.51,4.78,4.78,0,0,1-1.28-1.51,27.31,27.31,0,0,1-2.45-6.25,70.17,70.17,0,0,1-2.41-17.48c0-5.36,1.19-8.18,2.39-9.6a4.58,4.58,0,0,1,3.75-1.73Zm0,0"/><path class="cls-5" d="M144.69,117.2c-10.56-4.37-10.74-9.89-9.41-13.1s5.37-7,15.92-2.62,24.1,14.11,22.3,18.45-18.26,1.65-28.81-2.73Zm0,0"/><path class="cls-4" d="M133.09,103.19a9.6,9.6,0,0,0,.33,8.11c1.54,3,4.76,5.78,10.36,8.1a74,74,0,0,0,18.31,4.79,30.74,30.74,0,0,0,8,.11c2.31-.34,4.65-1.11,5.62-3.46s-.13-4.55-1.52-6.43a31.35,31.35,0,0,0-5.72-5.56,73.32,73.32,0,0,0-16.34-9.56c-5.6-2.32-9.84-2.64-13.05-1.61a9.62,9.62,0,0,0-6,5.51Zm4.39,1.82a4.54,4.54,0,0,1,3-2.8c1.77-.57,4.83-.59,9.78,1.47a69.89,69.89,0,0,1,15.22,8.9,27.3,27.3,0,0,1,4.84,4.67,4.84,4.84,0,0,1,.91,1.75,4.88,4.88,0,0,1-1.88.6,27.54,27.54,0,0,1-6.72-.12A70,70,0,0,1,145.6,115c-5-2.05-7.11-4.23-8-5.88a4.56,4.56,0,0,1-.16-4.12Zm0,0"/><path class="cls-5" d="M17.72,104.72c4.37-10.56,9.89-10.74,13.1-9.41s7,5.36,2.62,15.92S19.33,135.33,15,133.53s-1.65-18.26,2.73-28.81Zm0,0"/><path class="cls-4" d="M31.73,93.12a9.63,9.63,0,0,0-8.11.32c-3,1.55-5.78,4.77-8.1,10.37a73.57,73.57,0,0,0-4.79,18.31,30.74,30.74,0,0,0-.11,8c.34,2.31,1.11,4.65,3.46,5.62s4.55-.14,6.43-1.53a31,31,0,0,0,5.56-5.71,73.71,73.71,0,0,0,9.56-16.34c2.32-5.6,2.64-9.84,1.61-13a9.62,9.62,0,0,0-5.51-6ZM29.91,97.5a4.58,4.58,0,0,1,2.8,3c.57,1.77.59,4.82-1.47,9.78a69.89,69.89,0,0,1-8.9,15.22,27.3,27.3,0,0,1-4.67,4.84,4.92,4.92,0,0,1-1.75.91,4.7,4.7,0,0,1-.6-1.88,27.54,27.54,0,0,1,.12-6.72,70.21,70.21,0,0,1,4.47-17.07c2.05-5,4.22-7.1,5.88-8a4.6,4.6,0,0,1,4.12-.17Zm0,0"/><path class="cls-4" d="M107.6,39.24A29.23,29.23,0,0,0,90,45.63a31.28,31.28,0,0,0-8.5,9.83A40.2,40.2,0,0,0,32.17,85.58H25.51l-.89,2.53a66.64,66.64,0,1,0,125.65,0l-.89-2.53h-5.81a32.71,32.71,0,0,0-17.64-20.81,24.67,24.67,0,0,0-3-16.67l.2.4a14.33,14.33,0,0,0-1.81-3.07h0c-3.13-4.08-8.22-6.18-13.72-6.19Zm0,7.6c3.64,0,6.21,1.26,7.71,3.22a7.48,7.48,0,0,1,.87,1.48l.09.21.11.19a17.15,17.15,0,0,1,1.52,14l-1.14,3.55,3.52,1.21A25.07,25.07,0,0,1,136.82,90l.55,3.14h6.57a59,59,0,1,1-113,0h7.68l.46-3.28A32.62,32.62,0,0,1,82.32,63.64l3.52,1.24,1.31-3.49a22.9,22.9,0,0,1,7.52-9.73,22.19,22.19,0,0,1,12.92-4.82Zm0,0"/><path class="cls-1" d="M83.19,94.39a28.91,28.91,0,1,1,28.91,28.9,28.91,28.91,0,0,1-28.91-28.9Zm0,0"/><path class="cls-6" d="M90.71,94.39a21.39,21.39,0,1,1,21.39,21.38A21.39,21.39,0,0,1,90.71,94.39Zm0,0"/><path class="cls-7" d="M98.24,94.39a13.86,13.86,0,1,1,13.85,13.86A13.88,13.88,0,0,1,98.24,94.39Zm0,0"/><path class="cls-8" d="M112.1,64.53A29.86,29.86,0,1,0,142,94.39,29.87,29.87,0,0,0,112.1,64.53Zm0,1.9a28,28,0,1,1-28,28,27.94,27.94,0,0,1,28-28Zm0,0"/><path class="cls-9" d="M112.1,72.05a22.34,22.34,0,1,0,22.33,22.34A22.35,22.35,0,0,0,112.1,72.05Zm0,1.9A20.44,20.44,0,1,1,91.66,94.39,20.42,20.42,0,0,1,112.1,74Zm0,0"/><path class="cls-8" d="M112.09,79.58A14.81,14.81,0,1,0,126.9,94.39a14.82,14.82,0,0,0-14.81-14.81Zm0,1.9a12.91,12.91,0,1,1-12.9,12.91,12.89,12.89,0,0,1,12.9-12.91Zm0,0"/><path class="cls-10" d="M118.18,47.84A21,21,0,1,1,84.89,73.39ZM84.89,73.39"/><path class="cls-11" d="M84.24,72.54l-.84.65.65.85a22,22,0,1,0,35-26.85l-.65-.84Zm33.7-23.17A19.89,19.89,0,0,1,86.43,73.55l31.51-24.18Zm0,0"/><path class="cls-12" d="M84.76,73.49c-5.07-6.62-1.67-17.74,7.59-24.84a26,26,0,0,1,14.55-5.6c4.87-.17,9,1.52,11.41,4.7s3,7.57,1.58,12.23a26,26,0,0,1-9.17,12.61c-9.26,7.1-20.88,7.51-26,.9Zm0,0"/><path class="cls-13" d="M91.27,66.33a7.7,7.7,0,0,1-.94-7,15.6,15.6,0,0,1,13.56-10.41,7.13,7.13,0,0,1,7.5,9.77,15.61,15.61,0,0,1-13.57,10.4,7.66,7.66,0,0,1-6.55-2.73Zm0,0"/><path class="cls-11" d="M91.8,47.93A26.79,26.79,0,0,0,82.31,61c-1.43,4.7-1,9.47,1.74,13.05s7.24,5.22,12.15,5a26.77,26.77,0,0,0,15.07-5.78,26.86,26.86,0,0,0,9.49-13.07c1.44-4.7,1-9.47-1.73-13.05s-7.24-5.22-12.16-5A26.86,26.86,0,0,0,91.8,47.93Zm1.1,1.43a25.08,25.08,0,0,1,14-5.4c4.48-.16,8.33,1.3,10.66,4.34s2.74,7.13,1.43,11.41a25.09,25.09,0,0,1-8.85,12.16,25.06,25.06,0,0,1-14,5.4c-4.48.16-8.33-1.3-10.66-4.34s-2.74-7.13-1.43-11.41A25.09,25.09,0,0,1,92.9,49.36Zm0,0"/><path class="cls-14" d="M94.41,62.12c-2.18-2.84-.75-7.6,3.2-10.64s8.92-3.18,11.11-.33a5.74,5.74,0,0,1,.69,5.25A11.63,11.63,0,0,1,99.3,64.16a5.76,5.76,0,0,1-4.89-2Zm0,0"/><path class="cls-15" d="M95,51.32A15.62,15.62,0,0,0,89.42,59a8.06,8.06,0,0,0,8.43,11A16.52,16.52,0,0,0,112.3,58.93a8.07,8.07,0,0,0-8.44-11A15.63,15.63,0,0,0,95,51.32Zm1.16,1.5a13.77,13.77,0,0,1,7.78-3,6.19,6.19,0,0,1,6.56,8.54A14.65,14.65,0,0,1,97.8,68.11a6.17,6.17,0,0,1-6.56-8.54,13.85,13.85,0,0,1,4.9-6.75Zm0,0"/><path class="cls-1" d="M35,94.39a36.43,36.43,0,1,1,36.42,36.42A36.38,36.38,0,0,1,35,94.39Zm0,0"/><path class="cls-1" d="M42.51,94.39a28.91,28.91,0,1,1,28.9,28.9,28.9,28.9,0,0,1-28.9-28.9Zm0,0"/><path class="cls-1" d="M50,94.39a21.38,21.38,0,1,1,21.38,21.38A21.38,21.38,0,0,1,50,94.39Zm0,0"/><path class="cls-1" d="M57.55,94.39a13.86,13.86,0,1,1,13.86,13.86A13.85,13.85,0,0,1,57.55,94.39Zm0,0"/><path class="cls-8" d="M71.41,57a37.38,37.38,0,1,0,37.38,37.38A37.38,37.38,0,0,0,71.41,57Zm0,1.9A35.48,35.48,0,1,1,35.94,94.39,35.46,35.46,0,0,1,71.41,58.91Zm0,0"/><path class="cls-9" d="M71.41,64.53a29.86,29.86,0,1,0,29.86,29.86A29.87,29.87,0,0,0,71.41,64.53Zm0,1.9a28,28,0,1,1-27.95,28,27.95,27.95,0,0,1,27.95-28Zm0,0"/><path class="cls-9" d="M71.41,72.05A22.34,22.34,0,1,0,93.74,94.39,22.35,22.35,0,0,0,71.41,72.05Zm0,1.9A20.44,20.44,0,1,1,51,94.39,20.42,20.42,0,0,1,71.41,74Zm0,0"/><path class="cls-9" d="M71.41,79.58A14.81,14.81,0,1,0,86.22,94.39,14.82,14.82,0,0,0,71.41,79.58Zm0,1.9A12.91,12.91,0,1,1,58.5,94.39,12.9,12.9,0,0,1,71.41,81.48Zm0,0"/><path class="cls-1" d="M126.29,95.66c6.46-12.07.75-20.6-4.28-21.51-5.67-1-9.48,4.86-16,5.69s-11.44-4.81-17.36-3c-6.82,2-4.24,18.85-4.24,18.85Zm-41.88,0"/><path class="cls-16" d="M121,73c-2.7-.1-5,1.13-7.22,2.41-2.51,1.46-4.94,3-7.92,3.4s-5.58-.72-8.38-1.81-5.81-2.18-9.14-1.18a6.86,6.86,0,0,0-4.23,4.44A22.21,22.21,0,0,0,82.91,87a50.69,50.69,0,0,0,.45,8.87l2.11-.32A48.73,48.73,0,0,1,85,87.05a20.26,20.26,0,0,1,1.07-6c.65-1.69,1.55-2.78,2.85-3.17,2.59-.78,5,0,7.76,1.13s5.83,2.39,9.42,1.93,6.28-2.24,8.73-3.67,4.51-2.46,6.95-2c4,.73,9.77,8.3,3.53,20l1.88,1c6.68-12.48,1-22-5-23.06A10.06,10.06,0,0,0,121,73Zm0,0"/><path class="cls-9" d="M117.39,80a12.8,12.8,0,0,0-5.58,1.41,20.21,20.21,0,0,1-6.4,2.06A17.77,17.77,0,0,1,98.6,82.4c-2.22-.66-4.52-1.29-7.07-.71a4.87,4.87,0,0,0-3.29,2.65,10.56,10.56,0,0,0-1,4.1,23.15,23.15,0,0,0,.36,5.37l1.4-.29a21.83,21.83,0,0,1-.33-5A9.35,9.35,0,0,1,89.5,85a3.36,3.36,0,0,1,2.34-1.91c2.15-.49,4.16,0,6.36.68a18.84,18.84,0,0,0,7.35,1.15,21.26,21.26,0,0,0,6.83-2.18c2-.85,3.67-1.51,5.72-1.23A6.09,6.09,0,0,1,122.67,85c.89,2,.82,4.77-1.65,8.23l1.16.83c2.67-3.76,2.9-7.15,1.8-9.64a7.45,7.45,0,0,0-5.68-4.35c-.31,0-.61-.06-.91-.07Zm0,0"/><path class="cls-9" d="M114.61,84.8a9.67,9.67,0,0,0-4.56,1.26A15.29,15.29,0,0,1,105,87.84a12.92,12.92,0,0,1-5.38-1,10.29,10.29,0,0,0-5.78-.62,4.17,4.17,0,0,0-2.73,2.39,10,10,0,0,0-.79,3.6,21.75,21.75,0,0,0,.29,4.7L92,96.7a21.26,21.26,0,0,1-.27-4.36,9.05,9.05,0,0,1,.66-3.08,2.63,2.63,0,0,1,1.79-1.61,9,9,0,0,1,5,.6,14.28,14.28,0,0,0,6,1,16.14,16.14,0,0,0,5.53-1.92,7.47,7.47,0,0,1,4.48-1.06,4.83,4.83,0,0,1,3.56,3c.7,1.73.64,4.15-1.32,7.16l1.19.78c2.16-3.3,2.34-6.28,1.45-8.47a6.19,6.19,0,0,0-4.67-3.88,6.37,6.37,0,0,0-.74-.07Zm0,0"/><path class="cls-17" d="M73,73c3-2.28,8-.74,11.35,3.47,1.63-2.5,4-3.82,6.22-3.53,3.5.46,5.94,4.64,5.65,9.67a4.83,4.83,0,0,1,1.74.13c3.45.92,5.17,5.67,3.85,10.6-1.17,4.33-4.34,7.46-7.52,7.41-.78,3.09-4.62,5.34-9.11,5.34a11.55,11.55,0,0,1-6.53-1.89,5.67,5.67,0,0,1-2.71-4.57,4.64,4.64,0,0,1,.33-1.71c-4.94-1-8.34-4.46-7.88-8,.3-2.26,2.18-4.17,5-5.09C70.15,80.54,70,75.27,73,73Zm0,0"/><line class="cls-17" x1="94.24" y1="100.73" x2="76.85" y2="78.06"/><path class="cls-18" d="M76.84,77.35a.68.68,0,0,0-.43.15.71.71,0,0,0-.13,1l17.4,22.67a.71.71,0,0,0,1.13-.87L77.41,77.63a.72.72,0,0,0-.57-.28Zm0,0"/><line class="cls-17" x1="94.24" y1="100.74" x2="83.87" y2="99.37"/><path class="cls-18" d="M83.88,98.66a.71.71,0,0,0-.1,1.42l10.37,1.36a.71.71,0,1,0,.18-1.41L84,98.66Zm0,0"/><line class="cls-17" x1="89.77" y1="78.54" x2="87.93" y2="92.51"/><path class="cls-18" d="M89.78,77.83a.72.72,0,0,0-.72.62l-1.84,14a.72.72,0,0,0,.62.8.71.71,0,0,0,.8-.61l1.83-14a.7.7,0,0,0-.61-.8Zm0,0"/><path class="cls-19" d="M76.22,71a6.25,6.25,0,0,0-3.85,1.25,7,7,0,0,0-2.49,6,12.7,12.7,0,0,0,2.05,6.19,7.22,7.22,0,0,0-4.53,5.43,6.92,6.92,0,0,0,2.18,5.71,12.41,12.41,0,0,0,5.46,3,6.22,6.22,0,0,0-.1,1A6.65,6.65,0,0,0,78.05,105,12.41,12.41,0,0,0,85.13,107c4.51,0,8.56-2.07,9.81-5.37,3.52-.36,6.57-3.74,7.73-8.08a12.36,12.36,0,0,0-.16-7.38,6.65,6.65,0,0,0-4.35-4.39,5.47,5.47,0,0,0-1-.17,12.49,12.49,0,0,0-1.52-6.07,6.93,6.93,0,0,0-5-3.58,7.23,7.23,0,0,0-6.42,3,12.72,12.72,0,0,0-5.45-3.58A8.73,8.73,0,0,0,76.22,71Zm-.59,1.93a6.21,6.21,0,0,1,2.58.28A11.27,11.27,0,0,1,83.56,77l.82,1L85.1,77c1.49-2.29,3.48-3.34,5.29-3.1a4.9,4.9,0,0,1,3.55,2.65,10.91,10.91,0,0,1,1.28,6l-.07,1.13,1.12-.13a3.77,3.77,0,0,1,1.39.09,4.73,4.73,0,0,1,3.07,3.21,10.62,10.62,0,0,1,.11,6.23c-1.08,4-4,6.75-6.59,6.71H93.5l-.18.73c-.62,2.48-4,4.62-8.19,4.62a10.61,10.61,0,0,1-6-1.72,4.71,4.71,0,0,1-2.3-3.79,3.66,3.66,0,0,1,.27-1.36l.41-1L76.41,97a10.89,10.89,0,0,1-5.48-2.79,5,5,0,0,1-1.64-4.12c.23-1.81,1.77-3.46,4.36-4.31l1.26-.4-.79-1.07a11.29,11.29,0,0,1-2.34-6.16,5.06,5.06,0,0,1,1.75-4.38,4.09,4.09,0,0,1,2.1-.83Zm0,0"/><path class="cls-3" d="M28.2,89.38a62.84,62.84,0,1,0,118.49,0Zm118.49,0"/><path class="cls-20" d="M41.62,89.38a53.89,53.89,0,1,0,103.49,0Zm103.49,0"/><path class="cls-12" d="M67.62,89.38c-.1,1.14-.15,2.28-.16,3.42a37.51,37.51,0,0,0,75,0c0-1.14-.05-2.28-.16-3.42Zm74.69,0"/><path class="cls-21" d="M25.25,101.35a62.62,62.62,0,0,0-.64,9c0,1,0,2,.07,3H150.21c0-1,.07-2,.07-3a62.62,62.62,0,0,0-.64-9Zm124.39,0"/><path class="cls-22" d="M27.53,88.43l-.23.63a63.79,63.79,0,1,0,120.29,0l-.23-.63ZM146,90.33a61.89,61.89,0,1,1-117.11,0Zm0,0"/><rect class="cls-22" x="58.47" y="165.13" width="57.95" height="1.9"/><path class="cls-23" d="M39.57,101.35c-.06,1-.09,2-.09,3.05a54.2,54.2,0,0,0,.74,8.91H146.51a54.2,54.2,0,0,0,.74-8.91c0-1,0-2-.09-3.05Zm107.59,0"/><path class="cls-24" d="M68.45,101.35a37.65,37.65,0,0,0,5.12,12h62.79a37.42,37.42,0,0,0,5.12-12Zm73,0"/><path class="cls-4" d="M107.59,41.27a27.38,27.38,0,0,0-16.31,6A28.56,28.56,0,0,0,82.63,58a37.74,37.74,0,0,0-11.22-1.81A38.13,38.13,0,0,0,34,87.61H27.53a.81.81,0,0,0-.77.55l-.22.63a64.6,64.6,0,1,0,121.82,0l-.23-.63a.81.81,0,0,0-.77-.55h-5.43A30.57,30.57,0,0,0,123.5,66a22.51,22.51,0,0,0-2.28-16.76,12,12,0,0,0-1.51-2.57c-2.7-3.51-7.11-5.39-12.12-5.4Zm0,2.72c4.35,0,7.86,1.58,10,4.33a9.62,9.62,0,0,1,1.22,2.08l0,.05,0,0a20,20,0,0,1,1.77,16.26l-.28.89.88.3a28,28,0,0,1,18.43,21.59l.14.79H146a61.89,61.89,0,1,1-117,0h7.22l.12-.82A35.48,35.48,0,0,1,83.28,61l.88.31.32-.87a25.78,25.78,0,0,1,8.45-11A24.82,24.82,0,0,1,107.59,44Zm0,0"/><path class="cls-4" d="M107.59,42.09a26.65,26.65,0,0,0-15.82,5.8,27.78,27.78,0,0,0-8.72,11A37.25,37.25,0,0,0,34.54,88.43h-7l-.22.63a63.78,63.78,0,1,0,120.28,0l-.23-.63h-6a29.83,29.83,0,0,0-18.69-22,21.91,21.91,0,0,0-2.17-16.93,11.77,11.77,0,0,0-1.41-2.37h0c-2.52-3.29-6.66-5.07-11.47-5.08Zm0,1.9c4.34,0,7.85,1.58,10,4.33a10.51,10.51,0,0,1,1.22,2.08l0,.05,0,0a20.06,20.06,0,0,1,1.77,16.27l-.28.88.87.3a28,28,0,0,1,18.44,21.59l.13.79H146a61.89,61.89,0,1,1-117.11,0h7.27l.11-.82A35.48,35.48,0,0,1,83.27,61l.88.31.33-.87a25.7,25.7,0,0,1,8.45-11A24.82,24.82,0,0,1,107.59,44Zm0,0"/><path class="cls-14" d="M106.75,50.83h-.24l-.07,0-.07,0h-.07l-.07,0-.06,0-.07,0L106,51l-.06,0-.06,0-.06,0a.12.12,0,0,0,0,0l-.06,0,0,.05,0,.06,0,0,0,.06,0,.06,0,.06,0,.06,0,.07a.64.64,0,0,0,0,.07l0,.09v0h0s0,0,0,.06,0,0,0,.07a.2.2,0,0,0,0,.07s0,0,0,.08v.19s0,0,0,.07,0,0,0,.07,0,0,0,.07a.64.64,0,0,1,0,.07s0,0,0,.06l0,.07a.19.19,0,0,0,0,.07l0,.06,0,.07,0,.06a.21.21,0,0,1,0,.06l0,0,0,.06,0,0,0,0s0,0,0,.05l.06,0,.06,0,.06,0,.06,0,.06,0,.07,0,.06,0,.1,0h.7l.07,0,.07,0,.07,0,.06,0,.07,0,.06,0,.06,0,.06,0,.06,0,.05-.05.06,0,.05-.05,0,0,0-.06,0-.06a.15.15,0,0,0,0-.06l0-.06,0-.06a.14.14,0,0,0,0-.06l0-.07,0-.09v0h0a.2.2,0,0,0,0-.07.14.14,0,0,0,0-.07s0-.05,0-.07,0-.05,0-.07v-.19s0,0,0-.07,0-.05,0-.07,0-.05,0-.07a.64.64,0,0,0,0-.07s0-.05,0-.07a.14.14,0,0,1,0-.07l0-.06,0-.07,0-.06,0-.06,0-.06,0-.06,0,0s0,0,0,0l0-.05,0,0-.06-.05-.06,0-.06,0-.06,0-.06,0-.07,0-.06,0-.09,0h0l-.07,0h-.3Zm0,0"/><path class="cls-14" d="M106.75,50.83h-.31l-.07,0-.07,0-.07,0-.06,0-.07,0L106,51l-.06,0-.06,0-.06,0,0,0-.06,0,0,.05,0,.06,0,0,0,.06,0,.06,0,.06,0,.06,0,.07s0,0,0,.06l0,.1v0h0s0,0,0,.06,0,0,0,.07a.17.17,0,0,0,0,.07s0,0,0,.07v.19s0,0,0,.07,0,0,0,.08,0,0,0,.07a.64.64,0,0,1,0,.07s0,0,0,.06l0,.07a.25.25,0,0,0,0,.07l0,.06a.21.21,0,0,0,0,.06l0,.06,0,.06,0,.06,0,0,0,.06,0,0,0,0,.06,0,.06,0,.06,0,.06,0,.06,0,.07,0,.06,0,.1,0h0l.06,0h.61l.07,0,.07,0,.07,0,.06,0,.07,0,.06,0,.06,0,.06,0,.06,0,.05-.05.06,0,.05-.05,0,0,0-.06,0-.06a.15.15,0,0,0,0-.06l0-.06,0-.06a.14.14,0,0,0,0-.06l0-.07,0-.09v0h0a.2.2,0,0,0,0-.07.14.14,0,0,0,0-.07s0-.05,0-.07,0-.05,0-.07v-.19s0,0,0-.07,0-.05,0-.07,0-.05,0-.07a.64.64,0,0,0,0-.07s0-.05,0-.07a.14.14,0,0,1,0-.07l0-.06,0-.07,0-.06,0-.06,0-.06,0-.06,0,0s0,0,0,0l0-.05,0,0-.06-.05-.06,0-.06,0-.06,0-.06,0-.07,0-.06,0-.09,0h0l-.07,0h-.3Zm0,0"/><path class="cls-14" d="M106.75,50.83h-.31l-.07,0-.07,0-.07,0-.06,0-.07,0L106,51l-.06,0-.06,0-.06,0,0,0-.06,0,0,.05,0,.06,0,0,0,.06,0,.06,0,.06,0,.06,0,.07s0,0,0,.06l0,.1v0h0s0,0,0,.06,0,0,0,.07a.17.17,0,0,0,0,.07s0,0,0,.07v.19s0,0,0,.07,0,0,0,.08,0,0,0,.07a.64.64,0,0,1,0,.07s0,0,0,.06l0,.07a.25.25,0,0,0,0,.07l0,.06a.21.21,0,0,0,0,.06l0,.06,0,.06,0,.06,0,0,0,.06,0,0,0,0,.06,0,.06,0,.06,0,.06,0,.06,0,.07,0,.06,0,.1,0h0l.06,0h.61l.07,0,.07,0,.07,0,.06,0,.07,0,.06,0,.06,0,.06,0,.06,0,.05-.05.06,0,.05-.05,0,0,0-.06,0-.06a.15.15,0,0,0,0-.06l0-.06,0-.06a.14.14,0,0,0,0-.06l0-.07,0-.09v0h0a.2.2,0,0,0,0-.07.14.14,0,0,0,0-.07s0-.05,0-.07,0-.05,0-.07v-.19s0,0,0-.07,0-.05,0-.07,0-.05,0-.07a.64.64,0,0,0,0-.07s0-.05,0-.07a.14.14,0,0,1,0-.07l0-.06,0-.07,0-.06,0-.06,0-.06,0-.06,0,0s0,0,0,0l0-.05,0,0-.06-.05-.06,0-.06,0-.06,0-.06,0-.07,0-.06,0-.09,0h0l-.07,0h-.3Zm0,0"/><path class="cls-14" d="M106.75,50.83h-.31l-.07,0-.07,0-.07,0-.06,0-.07,0L106,51l-.06,0-.06,0-.06,0,0,0-.06,0,0,.05,0,.06,0,0,0,.06,0,.06,0,.06,0,.06,0,.07s0,0,0,.06l0,.1v0h0s0,0,0,.06,0,0,0,.07a.17.17,0,0,0,0,.07s0,0,0,.07v.19s0,0,0,.07,0,0,0,.08,0,0,0,.07a.64.64,0,0,1,0,.07s0,0,0,.06l0,.07a.25.25,0,0,0,0,.07l0,.06a.21.21,0,0,0,0,.06l0,.06,0,.06,0,.06,0,0,0,.06,0,0,0,0,.06,0,.06,0,.06,0,.06,0,.06,0,.07,0,.06,0,.1,0h0l.06,0h.61l.07,0,.07,0,.07,0,.06,0,.07,0,.06,0,.06,0,.06,0,.06,0,.05-.05.06,0,.05-.05,0,0,0-.06,0-.06a.15.15,0,0,0,0-.06l0-.06,0-.06a.14.14,0,0,0,0-.06l0-.07,0-.09v0h0a.2.2,0,0,0,0-.07.14.14,0,0,0,0-.07s0-.05,0-.07,0-.05,0-.07v-.19s0,0,0-.07,0-.05,0-.07,0-.05,0-.07a.64.64,0,0,0,0-.07s0-.05,0-.07a.14.14,0,0,1,0-.07l0-.06,0-.07,0-.06,0-.06,0-.06,0-.06,0,0s0,0,0,0l0-.05,0,0-.06-.05-.06,0-.06,0-.06,0-.06,0-.07,0-.06,0-.09,0h0l-.07,0h-.3Zm0,0"/><path class="cls-14" d="M106.75,50.83h-.31l-.07,0-.07,0-.07,0-.06,0-.07,0L106,51l-.06,0-.06,0-.06,0,0,0-.06,0,0,.05,0,.06,0,0,0,.06,0,.06,0,.06,0,.06,0,.07s0,0,0,.06l0,.1v0h0s0,0,0,.06,0,0,0,.07a.17.17,0,0,0,0,.07s0,0,0,.07v.19s0,0,0,.07,0,0,0,.08,0,0,0,.07a.64.64,0,0,1,0,.07s0,0,0,.06l0,.07a.25.25,0,0,0,0,.07l0,.06a.21.21,0,0,0,0,.06l0,.06,0,.06,0,.06,0,0,0,.06,0,0,0,0,.06,0,.06,0,.06,0,.06,0,.06,0,.07,0,.06,0,.1,0h0l.06,0h.61l.07,0,.07,0,.07,0,.06,0,.07,0,.06,0,.06,0,.06,0,.06,0,.05-.05.06,0,.05-.05,0,0,0-.06,0-.06a.15.15,0,0,0,0-.06l0-.06,0-.06a.14.14,0,0,0,0-.06l0-.07,0-.09v0h0a.2.2,0,0,0,0-.07.14.14,0,0,0,0-.07s0-.05,0-.07,0-.05,0-.07v-.19s0,0,0-.07,0-.05,0-.07,0-.05,0-.07a.64.64,0,0,0,0-.07s0-.05,0-.07a.14.14,0,0,1,0-.07l0-.06,0-.07,0-.06,0-.06,0-.06,0-.06,0,0s0,0,0,0l0-.05,0,0-.06-.05-.06,0-.06,0-.06,0-.06,0-.07,0-.06,0-.09,0h0l-.07,0h-.3Zm0,0"/><path class="cls-14" d="M106.75,50.83h-.31l-.07,0-.07,0-.07,0-.06,0-.07,0L106,51l-.06,0-.06,0-.06,0,0,0-.06,0,0,.05,0,.06,0,0,0,.06,0,.06,0,.06,0,.06,0,.07s0,0,0,.06l0,.1v0h0s0,0,0,.06,0,0,0,.07a.17.17,0,0,0,0,.07s0,0,0,.07v.19s0,0,0,.07,0,0,0,.08,0,0,0,.07a.64.64,0,0,1,0,.07s0,0,0,.06l0,.07a.25.25,0,0,0,0,.07l0,.06a.21.21,0,0,0,0,.06l0,.06,0,.06,0,.06,0,0,0,.06,0,0,0,0,.06,0,.06,0,.06,0,.06,0,.06,0,.07,0,.06,0,.1,0h0l.06,0h.61l.07,0,.07,0,.07,0,.06,0,.07,0,.06,0,.06,0,.06,0,.06,0,.05-.05.06,0,.05-.05,0,0,0-.06,0-.06a.15.15,0,0,0,0-.06l0-.06,0-.06a.14.14,0,0,0,0-.06l0-.07,0-.09v0h0a.2.2,0,0,0,0-.07.14.14,0,0,0,0-.07s0-.05,0-.07,0-.05,0-.07v-.19s0,0,0-.07,0-.05,0-.07,0-.05,0-.07a.64.64,0,0,0,0-.07s0-.05,0-.07a.14.14,0,0,1,0-.07l0-.06,0-.07,0-.06,0-.06,0-.06,0-.06,0,0s0,0,0,0l0-.05,0,0-.06-.05-.06,0-.06,0-.06,0-.06,0-.07,0-.06,0-.09,0h0l-.07,0h-.3Zm0,0"/><path class="cls-14" d="M106.75,50.83h-.31l-.07,0-.07,0-.07,0-.06,0-.07,0L106,51l-.06,0-.06,0-.06,0,0,0-.06,0,0,.05,0,.06,0,0,0,.06,0,.06,0,.06,0,.06,0,.07s0,0,0,.06l0,.1v0h0s0,0,0,.06,0,0,0,.07a.17.17,0,0,0,0,.07s0,0,0,.07v.19s0,0,0,.07,0,0,0,.08,0,0,0,.07a.64.64,0,0,1,0,.07s0,0,0,.06l0,.07a.25.25,0,0,0,0,.07l0,.06a.21.21,0,0,0,0,.06l0,.06,0,.06,0,.06,0,0,0,.06,0,0,0,0,.06,0,.06,0,.06,0,.06,0,.06,0,.07,0,.06,0,.1,0h0l.06,0h.61l.07,0,.07,0,.07,0,.06,0,.07,0,.06,0,.06,0,.06,0,.06,0,.05-.05.06,0,.05-.05,0,0,0-.06,0-.06a.15.15,0,0,0,0-.06l0-.06,0-.06a.14.14,0,0,0,0-.06l0-.07,0-.09v0h0a.2.2,0,0,0,0-.07.14.14,0,0,0,0-.07s0-.05,0-.07,0-.05,0-.07v-.19s0,0,0-.07,0-.05,0-.07,0-.05,0-.07a.64.64,0,0,0,0-.07s0-.05,0-.07a.14.14,0,0,1,0-.07l0-.06,0-.07,0-.06,0-.06,0-.06,0-.06,0,0s0,0,0,0l0-.05,0,0-.06-.05-.06,0-.06,0-.06,0-.06,0-.07,0-.06,0-.09,0h0l-.07,0h-.3Zm0,0"/><path class="cls-14" d="M106.75,50.83h-.31l-.07,0-.07,0-.07,0-.06,0-.07,0L106,51l-.06,0-.06,0-.06,0,0,0-.06,0,0,.05,0,.06,0,0,0,.06,0,.06,0,.06,0,.06,0,.07s0,0,0,.06l0,.1v0h0s0,0,0,.06,0,0,0,.07a.17.17,0,0,0,0,.07s0,0,0,.07v.19s0,0,0,.07,0,0,0,.08,0,0,0,.07a.64.64,0,0,1,0,.07s0,0,0,.06l0,.07a.25.25,0,0,0,0,.07l0,.06a.21.21,0,0,0,0,.06l0,.06,0,.06,0,.06,0,0,0,.06,0,0,0,0,.06,0,.06,0,.06,0,.06,0,.06,0,.07,0,.06,0,.1,0h0l.06,0h.61l.07,0,.07,0,.07,0,.06,0,.07,0,.06,0,.06,0,.06,0,.06,0,.05-.05.06,0,.05-.05,0,0,0-.06,0-.06a.15.15,0,0,0,0-.06l0-.06,0-.06a.14.14,0,0,0,0-.06l0-.07,0-.09v0h0a.2.2,0,0,0,0-.07.14.14,0,0,0,0-.07s0-.05,0-.07,0-.05,0-.07v-.19s0,0,0-.07,0-.05,0-.07,0-.05,0-.07a.64.64,0,0,0,0-.07s0-.05,0-.07a.14.14,0,0,1,0-.07l0-.06,0-.07,0-.06,0-.06,0-.06,0-.06,0,0s0,0,0,0l0-.05,0,0-.06-.05-.06,0-.06,0-.06,0-.06,0-.07,0-.06,0-.09,0h0l-.07,0h-.3Zm0,0"/><path class="cls-14" d="M106.75,50.83h-.31l-.07,0-.07,0-.07,0-.06,0-.07,0L106,51l-.06,0-.06,0-.06,0,0,0-.06,0,0,.05,0,.06,0,0,0,.06,0,.06,0,.06,0,.06,0,.07s0,0,0,.06l0,.1v0h0s0,0,0,.06,0,0,0,.07a.17.17,0,0,0,0,.07s0,0,0,.07v.19s0,0,0,.07,0,0,0,.08,0,0,0,.07a.64.64,0,0,1,0,.07s0,0,0,.06l0,.07a.25.25,0,0,0,0,.07l0,.06a.21.21,0,0,0,0,.06l0,.06,0,.06,0,.06,0,0,0,.06,0,0,0,0,.06,0,.06,0,.06,0,.06,0,.06,0,.07,0,.06,0,.1,0h0l.06,0h.61l.07,0,.07,0,.07,0,.06,0,.07,0,.06,0,.06,0,.06,0,.06,0,.05-.05.06,0,.05-.05,0,0,0-.06,0-.06a.15.15,0,0,0,0-.06l0-.06,0-.06a.14.14,0,0,0,0-.06l0-.07,0-.09v0h0a.2.2,0,0,0,0-.07.14.14,0,0,0,0-.07s0-.05,0-.07,0-.05,0-.07v-.19s0,0,0-.07,0-.05,0-.07,0-.05,0-.07a.64.64,0,0,0,0-.07s0-.05,0-.07a.14.14,0,0,1,0-.07l0-.06,0-.07,0-.06,0-.06,0-.06,0-.06,0,0s0,0,0,0l0-.05,0,0-.06-.05-.06,0-.06,0-.06,0-.06,0-.07,0-.06,0-.09,0h0l-.07,0h-.3Zm0,0"/><path class="cls-14" d="M106.75,50.83h-.31l-.07,0-.07,0-.07,0-.06,0-.07,0L106,51l-.06,0-.06,0-.06,0,0,0-.06,0,0,.05,0,.06,0,0,0,.06,0,.06,0,.06,0,.06,0,.07s0,0,0,.06l0,.1v0h0s0,0,0,.06,0,0,0,.07a.17.17,0,0,0,0,.07s0,0,0,.07v.19s0,0,0,.07,0,0,0,.08,0,0,0,.07a.64.64,0,0,1,0,.07s0,0,0,.06l0,.07a.25.25,0,0,0,0,.07l0,.06a.21.21,0,0,0,0,.06l0,.06,0,.06,0,.06,0,0,0,.06,0,0,0,0,.06,0,.06,0,.06,0,.06,0,.06,0,.07,0,.06,0,.1,0h0l.06,0h.61l.07,0,.07,0,.07,0,.06,0,.07,0,.06,0,.06,0,.06,0,.06,0,.05-.05.06,0,.05-.05,0,0,0-.06,0-.06a.15.15,0,0,0,0-.06l0-.06,0-.06a.14.14,0,0,0,0-.06l0-.07,0-.09v0h0a.2.2,0,0,0,0-.07.14.14,0,0,0,0-.07s0-.05,0-.07,0-.05,0-.07v-.19s0,0,0-.07,0-.05,0-.07,0-.05,0-.07a.64.64,0,0,0,0-.07s0-.05,0-.07a.14.14,0,0,1,0-.07l0-.06,0-.07,0-.06,0-.06,0-.06,0-.06,0,0s0,0,0,0l0-.05,0,0-.06-.05-.06,0-.06,0-.06,0-.06,0-.07,0-.06,0-.09,0h0l-.07,0h-.3Zm0,0"/><path class="cls-14" d="M106.75,50.83h-.24l-.07,0-.07,0h-.07l-.07,0-.06,0-.07,0L106,51l-.06,0-.06,0-.06,0a.12.12,0,0,0,0,0l-.06,0,0,.05,0,.06,0,0,0,.06,0,.06,0,.06,0,.06,0,.07a.64.64,0,0,0,0,.07l0,.09v0h0s0,0,0,.06,0,0,0,.07a.2.2,0,0,0,0,.07s0,0,0,.08v.19s0,0,0,.07,0,0,0,.07,0,0,0,.07a.64.64,0,0,1,0,.07s0,0,0,.06l0,.07a.19.19,0,0,0,0,.07l0,.06,0,.07,0,.06a.21.21,0,0,1,0,.06l0,0,0,.06,0,0,0,0s0,0,0,.05l.06,0,.06,0,.06,0,.06,0,.06,0,.07,0,.06,0,.1,0h.7l.07,0,.07,0,.07,0,.06,0,.07,0,.06,0,.06,0,.06,0,.06,0,.05-.05.06,0,.05-.05,0,0,0-.06,0-.06a.15.15,0,0,0,0-.06l0-.06,0-.06a.14.14,0,0,0,0-.06l0-.07,0-.09v0h0a.2.2,0,0,0,0-.07.14.14,0,0,0,0-.07s0-.05,0-.07,0-.05,0-.07v-.19s0,0,0-.07,0-.05,0-.07,0-.05,0-.07a.64.64,0,0,0,0-.07s0-.05,0-.07a.14.14,0,0,1,0-.07l0-.06,0-.07,0-.06,0-.06,0-.06,0-.06,0,0s0,0,0,0l0-.05,0,0-.06-.05-.06,0-.06,0-.06,0-.06,0-.07,0-.06,0-.09,0h0l-.07,0h-.3Zm0,0"/><path class="cls-14" d="M106.75,50.83h-.31l-.07,0-.07,0-.07,0-.06,0-.07,0L106,51l-.06,0-.06,0-.06,0,0,0-.06,0,0,.05,0,.06,0,0,0,.06,0,.06,0,.06,0,.06,0,.07s0,0,0,.06l0,.1v0h0s0,0,0,.06,0,0,0,.07a.17.17,0,0,0,0,.07s0,0,0,.07v.19s0,0,0,.07,0,0,0,.08,0,0,0,.07a.64.64,0,0,1,0,.07s0,0,0,.06l0,.07a.25.25,0,0,0,0,.07l0,.06a.21.21,0,0,0,0,.06l0,.06,0,.06,0,.06,0,0,0,.06,0,0,0,0,.06,0,.06,0,.06,0,.06,0,.06,0,.07,0,.06,0,.1,0h0l.06,0h.61l.07,0,.07,0,.07,0,.06,0,.07,0,.06,0,.06,0,.06,0,.06,0,.05-.05.06,0,.05-.05,0,0,0-.06,0-.06a.15.15,0,0,0,0-.06l0-.06,0-.06a.14.14,0,0,0,0-.06l0-.07,0-.09v0h0a.2.2,0,0,0,0-.07.14.14,0,0,0,0-.07s0-.05,0-.07,0-.05,0-.07v-.19s0,0,0-.07,0-.05,0-.07,0-.05,0-.07a.64.64,0,0,0,0-.07s0-.05,0-.07a.14.14,0,0,1,0-.07l0-.06,0-.07,0-.06,0-.06,0-.06,0-.06,0,0s0,0,0,0l0-.05,0,0-.06-.05-.06,0-.06,0-.06,0-.06,0-.07,0-.06,0-.09,0h0l-.07,0h-.3Zm0,0"/><path class="cls-14" d="M106.75,50.83h-.31l-.07,0-.07,0-.07,0-.06,0-.07,0L106,51l-.06,0-.06,0-.06,0,0,0-.06,0,0,.05,0,.06,0,0,0,.06,0,.06,0,.06,0,.06,0,.07s0,0,0,.06l0,.1v0h0s0,0,0,.06,0,0,0,.07a.17.17,0,0,0,0,.07s0,0,0,.07v.19s0,0,0,.07,0,0,0,.08,0,0,0,.07a.64.64,0,0,1,0,.07s0,0,0,.06l0,.07a.25.25,0,0,0,0,.07l0,.06a.21.21,0,0,0,0,.06l0,.06,0,.06,0,.06,0,0,0,.06,0,0,0,0,.06,0,.06,0,.06,0,.06,0,.06,0,.07,0,.06,0,.1,0h0l.06,0h.61l.07,0,.07,0,.07,0,.06,0,.07,0,.06,0,.06,0,.06,0,.06,0,.05-.05.06,0,.05-.05,0,0,0-.06,0-.06a.15.15,0,0,0,0-.06l0-.06,0-.06a.14.14,0,0,0,0-.06l0-.07,0-.09v0h0a.2.2,0,0,0,0-.07.14.14,0,0,0,0-.07s0-.05,0-.07,0-.05,0-.07v-.19s0,0,0-.07,0-.05,0-.07,0-.05,0-.07a.64.64,0,0,0,0-.07s0-.05,0-.07a.14.14,0,0,1,0-.07l0-.06,0-.07,0-.06,0-.06,0-.06,0-.06,0,0s0,0,0,0l0-.05,0,0-.06-.05-.06,0-.06,0-.06,0-.06,0-.07,0-.06,0-.09,0h0l-.07,0h-.3Zm0,0"/><path class="cls-14" d="M106.75,50.83h-.31l-.07,0-.07,0-.07,0-.06,0-.07,0L106,51l-.06,0-.06,0-.06,0,0,0-.06,0,0,.05,0,.06,0,0,0,.06,0,.06,0,.06,0,.06,0,.07s0,0,0,.06l0,.1v0h0s0,0,0,.06,0,0,0,.07a.17.17,0,0,0,0,.07s0,0,0,.07v.19s0,0,0,.07,0,0,0,.08,0,0,0,.07a.64.64,0,0,1,0,.07s0,0,0,.06l0,.07a.25.25,0,0,0,0,.07l0,.06a.21.21,0,0,0,0,.06l0,.06,0,.06,0,.06,0,0,0,.06,0,0,0,0,.06,0,.06,0,.06,0,.06,0,.06,0,.07,0,.06,0,.1,0h0l.06,0h.61l.07,0,.07,0,.07,0,.06,0,.07,0,.06,0,.06,0,.06,0,.06,0,.05-.05.06,0,.05-.05,0,0,0-.06,0-.06a.15.15,0,0,0,0-.06l0-.06,0-.06a.14.14,0,0,0,0-.06l0-.07,0-.09v0h0a.2.2,0,0,0,0-.07.14.14,0,0,0,0-.07s0-.05,0-.07,0-.05,0-.07v-.19s0,0,0-.07,0-.05,0-.07,0-.05,0-.07a.64.64,0,0,0,0-.07s0-.05,0-.07a.14.14,0,0,1,0-.07l0-.06,0-.07,0-.06,0-.06,0-.06,0-.06,0,0s0,0,0,0l0-.05,0,0-.06-.05-.06,0-.06,0-.06,0-.06,0-.07,0-.06,0-.09,0h0l-.07,0h-.3Zm0,0"/><path class="cls-14" d="M106.75,50.83h-.31l-.07,0-.07,0-.07,0-.06,0-.07,0L106,51l-.06,0-.06,0-.06,0,0,0-.06,0,0,.05,0,.06,0,0,0,.06,0,.06,0,.06,0,.06,0,.07s0,0,0,.06l0,.1v0h0s0,0,0,.06,0,0,0,.07a.17.17,0,0,0,0,.07s0,0,0,.07v.19s0,0,0,.07,0,0,0,.08,0,0,0,.07a.64.64,0,0,1,0,.07s0,0,0,.06l0,.07a.25.25,0,0,0,0,.07l0,.06a.21.21,0,0,0,0,.06l0,.06,0,.06,0,.06,0,0,0,.06,0,0,0,0,.06,0,.06,0,.06,0,.06,0,.06,0,.07,0,.06,0,.1,0h0l.06,0h.61l.07,0,.07,0,.07,0,.06,0,.07,0,.06,0,.06,0,.06,0,.06,0,.05-.05.06,0,.05-.05,0,0,0-.06,0-.06a.15.15,0,0,0,0-.06l0-.06,0-.06a.14.14,0,0,0,0-.06l0-.07,0-.09v0h0a.2.2,0,0,0,0-.07.14.14,0,0,0,0-.07s0-.05,0-.07,0-.05,0-.07v-.19s0,0,0-.07,0-.05,0-.07,0-.05,0-.07a.64.64,0,0,0,0-.07s0-.05,0-.07a.14.14,0,0,1,0-.07l0-.06,0-.07,0-.06,0-.06,0-.06,0-.06,0,0s0,0,0,0l0-.05,0,0-.06-.05-.06,0-.06,0-.06,0-.06,0-.07,0-.06,0-.09,0h0l-.07,0h-.3Zm0,0"/><path class="cls-14" d="M106.75,50.83h-.31l-.07,0-.07,0-.07,0-.06,0-.07,0L106,51l-.06,0-.06,0-.06,0,0,0-.06,0,0,.05,0,.06,0,0,0,.06,0,.06,0,.06,0,.06,0,.07s0,0,0,.06l0,.1v0h0s0,0,0,.06,0,0,0,.07a.17.17,0,0,0,0,.07s0,0,0,.07v.19s0,0,0,.07,0,0,0,.08,0,0,0,.07a.64.64,0,0,1,0,.07s0,0,0,.06l0,.07a.25.25,0,0,0,0,.07l0,.06a.21.21,0,0,0,0,.06l0,.06,0,.06,0,.06,0,0,0,.06,0,0,0,0,.06,0,.06,0,.06,0,.06,0,.06,0,.07,0,.06,0,.1,0h0l.06,0h.61l.07,0,.07,0,.07,0,.06,0,.07,0,.06,0,.06,0,.06,0,.06,0,.05-.05.06,0,.05-.05,0,0,0-.06,0-.06a.15.15,0,0,0,0-.06l0-.06,0-.06a.14.14,0,0,0,0-.06l0-.07,0-.09v0h0a.2.2,0,0,0,0-.07.14.14,0,0,0,0-.07s0-.05,0-.07,0-.05,0-.07v-.19s0,0,0-.07,0-.05,0-.07,0-.05,0-.07a.64.64,0,0,0,0-.07s0-.05,0-.07a.14.14,0,0,1,0-.07l0-.06,0-.07,0-.06,0-.06,0-.06,0-.06,0,0s0,0,0,0l0-.05,0,0-.06-.05-.06,0-.06,0-.06,0-.06,0-.07,0-.06,0-.09,0h0l-.07,0h-.3Zm0,0"/><path class="cls-14" d="M106.75,50.83h-.31l-.07,0-.07,0-.07,0-.06,0-.07,0L106,51l-.06,0-.06,0-.06,0,0,0-.06,0,0,.05,0,.06,0,0,0,.06,0,.06,0,.06,0,.06,0,.07s0,0,0,.06l0,.1v0h0s0,0,0,.06,0,0,0,.07a.17.17,0,0,0,0,.07s0,0,0,.07v.19s0,0,0,.07,0,0,0,.08,0,0,0,.07a.64.64,0,0,1,0,.07s0,0,0,.06l0,.07a.25.25,0,0,0,0,.07l0,.06a.21.21,0,0,0,0,.06l0,.06,0,.06,0,.06,0,0,0,.06,0,0,0,0,.06,0,.06,0,.06,0,.06,0,.06,0,.07,0,.06,0,.1,0h0l.06,0h.61l.07,0,.07,0,.07,0,.06,0,.07,0,.06,0,.06,0,.06,0,.06,0,.05-.05.06,0,.05-.05,0,0,0-.06,0-.06a.15.15,0,0,0,0-.06l0-.06,0-.06a.14.14,0,0,0,0-.06l0-.07,0-.09v0h0a.2.2,0,0,0,0-.07.14.14,0,0,0,0-.07s0-.05,0-.07,0-.05,0-.07v-.19s0,0,0-.07,0-.05,0-.07,0-.05,0-.07a.64.64,0,0,0,0-.07s0-.05,0-.07a.14.14,0,0,1,0-.07l0-.06,0-.07,0-.06,0-.06,0-.06,0-.06,0,0s0,0,0,0l0-.05,0,0-.06-.05-.06,0-.06,0-.06,0-.06,0-.07,0-.06,0-.09,0h0l-.07,0h-.3Zm0,0"/><path class="cls-14" d="M106.75,50.83h-.31l-.07,0-.07,0-.07,0-.06,0-.07,0L106,51l-.06,0-.06,0-.06,0,0,0-.06,0,0,.05,0,.06,0,0,0,.06,0,.06,0,.06,0,.06,0,.07s0,0,0,.06l0,.1v0h0s0,0,0,.06,0,0,0,.07a.17.17,0,0,0,0,.07s0,0,0,.07v.19s0,0,0,.07,0,0,0,.08,0,0,0,.07a.64.64,0,0,1,0,.07s0,0,0,.06l0,.07a.25.25,0,0,0,0,.07l0,.06a.21.21,0,0,0,0,.06l0,.06,0,.06,0,.06,0,0,0,.06,0,0,0,0,.06,0,.06,0,.06,0,.06,0,.06,0,.07,0,.06,0,.1,0h0l.06,0h.61l.07,0,.07,0,.07,0,.06,0,.07,0,.06,0,.06,0,.06,0,.06,0,.05-.05.06,0,.05-.05,0,0,0-.06,0-.06a.15.15,0,0,0,0-.06l0-.06,0-.06a.14.14,0,0,0,0-.06l0-.07,0-.09v0h0a.2.2,0,0,0,0-.07.14.14,0,0,0,0-.07s0-.05,0-.07,0-.05,0-.07v-.19s0,0,0-.07,0-.05,0-.07,0-.05,0-.07a.64.64,0,0,0,0-.07s0-.05,0-.07a.14.14,0,0,1,0-.07l0-.06,0-.07,0-.06,0-.06,0-.06,0-.06,0,0s0,0,0,0l0-.05,0,0-.06-.05-.06,0-.06,0-.06,0-.06,0-.07,0-.06,0-.09,0h0l-.07,0h-.3Zm0,0"/><path class="cls-14" d="M106.75,50.83h-.31l-.07,0-.07,0-.07,0-.06,0-.07,0L106,51l-.06,0-.06,0-.06,0,0,0-.06,0,0,.05,0,.06,0,0,0,.06,0,.06,0,.06,0,.06,0,.07s0,0,0,.06l0,.1v0h0s0,0,0,.06,0,0,0,.07a.17.17,0,0,0,0,.07s0,0,0,.07v.19s0,0,0,.07,0,0,0,.08,0,0,0,.07a.64.64,0,0,1,0,.07s0,0,0,.06l0,.07a.25.25,0,0,0,0,.07l0,.06a.21.21,0,0,0,0,.06l0,.06,0,.06,0,.06,0,0,0,.06,0,0,0,0,.06,0,.06,0,.06,0,.06,0,.06,0,.07,0,.06,0,.1,0h0l.06,0h.61l.07,0,.07,0,.07,0,.06,0,.07,0,.06,0,.06,0,.06,0,.06,0,.05-.05.06,0,.05-.05,0,0,0-.06,0-.06a.15.15,0,0,0,0-.06l0-.06,0-.06a.14.14,0,0,0,0-.06l0-.07,0-.09v0h0a.2.2,0,0,0,0-.07.14.14,0,0,0,0-.07s0-.05,0-.07,0-.05,0-.07v-.19s0,0,0-.07,0-.05,0-.07,0-.05,0-.07a.64.64,0,0,0,0-.07s0-.05,0-.07a.14.14,0,0,1,0-.07l0-.06,0-.07,0-.06,0-.06,0-.06,0-.06,0,0s0,0,0,0l0-.05,0,0-.06-.05-.06,0-.06,0-.06,0-.06,0-.07,0-.06,0-.09,0h0l-.07,0h-.3Zm0,0"/><path class="cls-14" d="M106.75,50.83h-.31l-.07,0-.07,0-.07,0-.06,0-.07,0L106,51l-.06,0-.06,0-.06,0,0,0-.06,0,0,.05,0,.06,0,0,0,.06,0,.06,0,.06,0,.06,0,.07s0,0,0,.06l0,.1v0h0s0,0,0,.06,0,0,0,.07a.17.17,0,0,0,0,.07s0,0,0,.07v.19s0,0,0,.07,0,0,0,.08,0,0,0,.07a.64.64,0,0,1,0,.07s0,0,0,.06l0,.07a.25.25,0,0,0,0,.07l0,.06a.21.21,0,0,0,0,.06l0,.06,0,.06,0,.06,0,0,0,.06,0,0,0,0,.06,0,.06,0,.06,0,.06,0,.06,0,.07,0,.06,0,.1,0h0l.06,0h.61l.07,0,.07,0,.07,0,.06,0,.07,0,.06,0,.06,0,.06,0,.06,0,.05-.05.06,0,.05-.05,0,0,0-.06,0-.06a.15.15,0,0,0,0-.06l0-.06,0-.06a.14.14,0,0,0,0-.06l0-.07,0-.09v0h0a.2.2,0,0,0,0-.07.14.14,0,0,0,0-.07s0-.05,0-.07,0-.05,0-.07v-.19s0,0,0-.07,0-.05,0-.07,0-.05,0-.07a.64.64,0,0,0,0-.07s0-.05,0-.07a.14.14,0,0,1,0-.07l0-.06,0-.07,0-.06,0-.06,0-.06,0-.06,0,0s0,0,0,0l0-.05,0,0-.06-.05-.06,0-.06,0-.06,0-.06,0-.07,0-.06,0-.09,0h0l-.07,0h-.3Zm0,0"/><path class="cls-14" d="M106.75,50.83h-.24l-.07,0-.07,0h-.07l-.07,0-.06,0-.07,0L106,51l-.06,0-.06,0-.06,0a.12.12,0,0,0,0,0l-.06,0,0,.05,0,.06,0,0,0,.06,0,.06,0,.06,0,.06,0,.07a.64.64,0,0,0,0,.07l0,.09v0h0s0,0,0,.06,0,0,0,.07a.2.2,0,0,0,0,.07s0,0,0,.08v.19s0,0,0,.07,0,0,0,.07,0,0,0,.07a.64.64,0,0,1,0,.07s0,0,0,.06l0,.07a.19.19,0,0,0,0,.07l0,.06,0,.07,0,.06a.21.21,0,0,1,0,.06l0,0,0,.06,0,0,0,0s0,0,0,.05l.06,0,.06,0,.06,0,.06,0,.06,0,.07,0,.06,0,.1,0h.7l.07,0,.07,0,.07,0,.06,0,.07,0,.06,0,.06,0,.06,0,.06,0,.05-.05.06,0,.05-.05,0,0,0-.06,0-.06a.15.15,0,0,0,0-.06l0-.06,0-.06a.14.14,0,0,0,0-.06l0-.07,0-.09v0h0a.2.2,0,0,0,0-.07.14.14,0,0,0,0-.07s0-.05,0-.07,0-.05,0-.07v-.19s0,0,0-.07,0-.05,0-.07,0-.05,0-.07a.64.64,0,0,0,0-.07s0-.05,0-.07a.14.14,0,0,1,0-.07l0-.06,0-.07,0-.06,0-.06,0-.06,0-.06,0,0s0,0,0,0l0-.05,0,0-.06-.05-.06,0-.06,0-.06,0-.06,0-.07,0-.06,0-.09,0h0l-.07,0h-.3Zm0,0"/><path class="cls-14" d="M106.75,50.83h-.31l-.07,0-.07,0-.07,0-.06,0-.07,0L106,51l-.06,0-.06,0-.06,0,0,0-.06,0,0,.05,0,.06,0,0,0,.06,0,.06,0,.06,0,.06,0,.07s0,0,0,.06l0,.1v0h0s0,0,0,.06,0,0,0,.07a.17.17,0,0,0,0,.07s0,0,0,.07v.19s0,0,0,.07,0,0,0,.08,0,0,0,.07a.64.64,0,0,1,0,.07s0,0,0,.06l0,.07a.25.25,0,0,0,0,.07l0,.06a.21.21,0,0,0,0,.06l0,.06,0,.06,0,.06,0,0,0,.06,0,0,0,0,.06,0,.06,0,.06,0,.06,0,.06,0,.07,0,.06,0,.1,0h0l.06,0h.61l.07,0,.07,0,.07,0,.06,0,.07,0,.06,0,.06,0,.06,0,.06,0,.05-.05.06,0,.05-.05,0,0,0-.06,0-.06a.15.15,0,0,0,0-.06l0-.06,0-.06a.14.14,0,0,0,0-.06l0-.07,0-.09v0h0a.2.2,0,0,0,0-.07.14.14,0,0,0,0-.07s0-.05,0-.07,0-.05,0-.07v-.19s0,0,0-.07,0-.05,0-.07,0-.05,0-.07a.64.64,0,0,0,0-.07s0-.05,0-.07a.14.14,0,0,1,0-.07l0-.06,0-.07,0-.06,0-.06,0-.06,0-.06,0,0s0,0,0,0l0-.05,0,0-.06-.05-.06,0-.06,0-.06,0-.06,0-.07,0-.06,0-.09,0h0l-.07,0h-.3Zm0,0"/><path class="cls-14" d="M106.75,50.83h-.31l-.07,0-.07,0-.07,0-.06,0-.07,0L106,51l-.06,0-.06,0-.06,0,0,0-.06,0,0,.05,0,.06,0,0,0,.06,0,.06,0,.06,0,.06,0,.07s0,0,0,.06l0,.1v0h0s0,0,0,.06,0,0,0,.07a.17.17,0,0,0,0,.07s0,0,0,.07v.19s0,0,0,.07,0,0,0,.08,0,0,0,.07a.64.64,0,0,1,0,.07s0,0,0,.06l0,.07a.25.25,0,0,0,0,.07l0,.06a.21.21,0,0,0,0,.06l0,.06,0,.06,0,.06,0,0,0,.06,0,0,0,0,.06,0,.06,0,.06,0,.06,0,.06,0,.07,0,.06,0,.1,0h0l.06,0h.61l.07,0,.07,0,.07,0,.06,0,.07,0,.06,0,.06,0,.06,0,.06,0,.05-.05.06,0,.05-.05,0,0,0-.06,0-.06a.15.15,0,0,0,0-.06l0-.06,0-.06a.14.14,0,0,0,0-.06l0-.07,0-.09v0h0a.2.2,0,0,0,0-.07.14.14,0,0,0,0-.07s0-.05,0-.07,0-.05,0-.07v-.19s0,0,0-.07,0-.05,0-.07,0-.05,0-.07a.64.64,0,0,0,0-.07s0-.05,0-.07a.14.14,0,0,1,0-.07l0-.06,0-.07,0-.06,0-.06,0-.06,0-.06,0,0s0,0,0,0l0-.05,0,0-.06-.05-.06,0-.06,0-.06,0-.06,0-.07,0-.06,0-.09,0h0l-.07,0h-.3Zm0,0"/><path class="cls-14" d="M106.75,50.83h-.31l-.07,0-.07,0-.07,0-.06,0-.07,0L106,51l-.06,0-.06,0-.06,0,0,0-.06,0,0,.05,0,.06,0,0,0,.06,0,.06,0,.06,0,.06,0,.07s0,0,0,.06l0,.1v0h0s0,0,0,.06,0,0,0,.07a.17.17,0,0,0,0,.07s0,0,0,.07v.19s0,0,0,.07,0,0,0,.08,0,0,0,.07a.64.64,0,0,1,0,.07s0,0,0,.06l0,.07a.25.25,0,0,0,0,.07l0,.06a.21.21,0,0,0,0,.06l0,.06,0,.06,0,.06,0,0,0,.06,0,0,0,0,.06,0,.06,0,.06,0,.06,0,.06,0,.07,0,.06,0,.1,0h0l.06,0h.61l.07,0,.07,0,.07,0,.06,0,.07,0,.06,0,.06,0,.06,0,.06,0,.05-.05.06,0,.05-.05,0,0,0-.06,0-.06a.15.15,0,0,0,0-.06l0-.06,0-.06a.14.14,0,0,0,0-.06l0-.07,0-.09v0h0a.2.2,0,0,0,0-.07.14.14,0,0,0,0-.07s0-.05,0-.07,0-.05,0-.07v-.19s0,0,0-.07,0-.05,0-.07,0-.05,0-.07a.64.64,0,0,0,0-.07s0-.05,0-.07a.14.14,0,0,1,0-.07l0-.06,0-.07,0-.06,0-.06,0-.06,0-.06,0,0s0,0,0,0l0-.05,0,0-.06-.05-.06,0-.06,0-.06,0-.06,0-.07,0-.06,0-.09,0h0l-.07,0h-.3Zm0,0"/><path class="cls-14" d="M106.75,50.83h-.31l-.07,0-.07,0-.07,0-.06,0-.07,0L106,51l-.06,0-.06,0-.06,0,0,0-.06,0,0,.05,0,.06,0,0,0,.06,0,.06,0,.06,0,.06,0,.07s0,0,0,.06l0,.1v0h0s0,0,0,.06,0,0,0,.07a.17.17,0,0,0,0,.07s0,0,0,.07v.19s0,0,0,.07,0,0,0,.08,0,0,0,.07a.64.64,0,0,1,0,.07s0,0,0,.06l0,.07a.25.25,0,0,0,0,.07l0,.06a.21.21,0,0,0,0,.06l0,.06,0,.06,0,.06,0,0,0,.06,0,0,0,0,.06,0,.06,0,.06,0,.06,0,.06,0,.07,0,.06,0,.1,0h0l.06,0h.61l.07,0,.07,0,.07,0,.06,0,.07,0,.06,0,.06,0,.06,0,.06,0,.05-.05.06,0,.05-.05,0,0,0-.06,0-.06a.15.15,0,0,0,0-.06l0-.06,0-.06a.14.14,0,0,0,0-.06l0-.07,0-.09v0h0a.2.2,0,0,0,0-.07.14.14,0,0,0,0-.07s0-.05,0-.07,0-.05,0-.07v-.19s0,0,0-.07,0-.05,0-.07,0-.05,0-.07a.64.64,0,0,0,0-.07s0-.05,0-.07a.14.14,0,0,1,0-.07l0-.06,0-.07,0-.06,0-.06,0-.06,0-.06,0,0s0,0,0,0l0-.05,0,0-.06-.05-.06,0-.06,0-.06,0-.06,0-.07,0-.06,0-.09,0h0l-.07,0h-.3Zm0,0"/><path class="cls-14" d="M106.75,50.83h-.31l-.07,0-.07,0-.07,0-.06,0-.07,0L106,51l-.06,0-.06,0-.06,0,0,0-.06,0,0,.05,0,.06,0,0,0,.06,0,.06,0,.06,0,.06,0,.07s0,0,0,.06l0,.1v0h0s0,0,0,.06,0,0,0,.07a.17.17,0,0,0,0,.07s0,0,0,.07v.19s0,0,0,.07,0,0,0,.08,0,0,0,.07a.64.64,0,0,1,0,.07s0,0,0,.06l0,.07a.25.25,0,0,0,0,.07l0,.06a.21.21,0,0,0,0,.06l0,.06,0,.06,0,.06,0,0,0,.06,0,0,0,0,.06,0,.06,0,.06,0,.06,0,.06,0,.07,0,.06,0,.1,0h0l.06,0h.61l.07,0,.07,0,.07,0,.06,0,.07,0,.06,0,.06,0,.06,0,.06,0,.05-.05.06,0,.05-.05,0,0,0-.06,0-.06a.15.15,0,0,0,0-.06l0-.06,0-.06a.14.14,0,0,0,0-.06l0-.07,0-.09v0h0a.2.2,0,0,0,0-.07.14.14,0,0,0,0-.07s0-.05,0-.07,0-.05,0-.07v-.19s0,0,0-.07,0-.05,0-.07,0-.05,0-.07a.64.64,0,0,0,0-.07s0-.05,0-.07a.14.14,0,0,1,0-.07l0-.06,0-.07,0-.06,0-.06,0-.06,0-.06,0,0s0,0,0,0l0-.05,0,0-.06-.05-.06,0-.06,0-.06,0-.06,0-.07,0-.06,0-.09,0h0l-.07,0h-.3Zm0,0"/><path class="cls-14" d="M106.75,50.83h-.31l-.07,0-.07,0-.07,0-.06,0-.07,0L106,51l-.06,0-.06,0-.06,0,0,0-.06,0,0,.05,0,.06,0,0,0,.06,0,.06,0,.06,0,.06,0,.07s0,0,0,.06l0,.1v0h0s0,0,0,.06,0,0,0,.07a.17.17,0,0,0,0,.07s0,0,0,.07v.19s0,0,0,.07,0,0,0,.08,0,0,0,.07a.64.64,0,0,1,0,.07s0,0,0,.06l0,.07a.25.25,0,0,0,0,.07l0,.06a.21.21,0,0,0,0,.06l0,.06,0,.06,0,.06,0,0,0,.06,0,0,0,0,.06,0,.06,0,.06,0,.06,0,.06,0,.07,0,.06,0,.1,0h0l.06,0h.61l.07,0,.07,0,.07,0,.06,0,.07,0,.06,0,.06,0,.06,0,.06,0,.05-.05.06,0,.05-.05,0,0,0-.06,0-.06a.15.15,0,0,0,0-.06l0-.06,0-.06a.14.14,0,0,0,0-.06l0-.07,0-.09v0h0a.2.2,0,0,0,0-.07.14.14,0,0,0,0-.07s0-.05,0-.07,0-.05,0-.07v-.19s0,0,0-.07,0-.05,0-.07,0-.05,0-.07a.64.64,0,0,0,0-.07s0-.05,0-.07a.14.14,0,0,1,0-.07l0-.06,0-.07,0-.06,0-.06,0-.06,0-.06,0,0s0,0,0,0l0-.05,0,0-.06-.05-.06,0-.06,0-.06,0-.06,0-.07,0-.06,0-.09,0h0l-.07,0h-.3Zm0,0"/><path class="cls-14" d="M106.75,50.83h-.31l-.07,0-.07,0-.07,0-.06,0-.07,0L106,51l-.06,0-.06,0-.06,0,0,0-.06,0,0,.05,0,.06,0,0,0,.06,0,.06,0,.06,0,.06,0,.07s0,0,0,.06l0,.1v0h0s0,0,0,.06,0,0,0,.07a.17.17,0,0,0,0,.07s0,0,0,.07v.19s0,0,0,.07,0,0,0,.08,0,0,0,.07a.64.64,0,0,1,0,.07s0,0,0,.06l0,.07a.25.25,0,0,0,0,.07l0,.06a.21.21,0,0,0,0,.06l0,.06,0,.06,0,.06,0,0,0,.06,0,0,0,0,.06,0,.06,0,.06,0,.06,0,.06,0,.07,0,.06,0,.1,0h0l.06,0h.61l.07,0,.07,0,.07,0,.06,0,.07,0,.06,0,.06,0,.06,0,.06,0,.05-.05.06,0,.05-.05,0,0,0-.06,0-.06a.15.15,0,0,0,0-.06l0-.06,0-.06a.14.14,0,0,0,0-.06l0-.07,0-.09v0h0a.2.2,0,0,0,0-.07.14.14,0,0,0,0-.07s0-.05,0-.07,0-.05,0-.07v-.19s0,0,0-.07,0-.05,0-.07,0-.05,0-.07a.64.64,0,0,0,0-.07s0-.05,0-.07a.14.14,0,0,1,0-.07l0-.06,0-.07,0-.06,0-.06,0-.06,0-.06,0,0s0,0,0,0l0-.05,0,0-.06-.05-.06,0-.06,0-.06,0-.06,0-.07,0-.06,0-.09,0h0l-.07,0h-.3Zm0,0"/><path class="cls-14" d="M106.75,50.83h-.31l-.07,0-.07,0-.07,0-.06,0-.07,0L106,51l-.06,0-.06,0-.06,0,0,0-.06,0,0,.05,0,.06,0,0,0,.06,0,.06,0,.06,0,.06,0,.07s0,0,0,.06l0,.1v0h0s0,0,0,.06,0,0,0,.07a.17.17,0,0,0,0,.07s0,0,0,.07v.19s0,0,0,.07,0,0,0,.08,0,0,0,.07a.64.64,0,0,1,0,.07s0,0,0,.06l0,.07a.25.25,0,0,0,0,.07l0,.06a.21.21,0,0,0,0,.06l0,.06,0,.06,0,.06,0,0,0,.06,0,0,0,0,.06,0,.06,0,.06,0,.06,0,.06,0,.07,0,.06,0,.1,0h0l.06,0h.61l.07,0,.07,0,.07,0,.06,0,.07,0,.06,0,.06,0,.06,0,.06,0,.05-.05.06,0,.05-.05,0,0,0-.06,0-.06a.15.15,0,0,0,0-.06l0-.06,0-.06a.14.14,0,0,0,0-.06l0-.07,0-.09v0h0a.2.2,0,0,0,0-.07.14.14,0,0,0,0-.07s0-.05,0-.07,0-.05,0-.07v-.19s0,0,0-.07,0-.05,0-.07,0-.05,0-.07a.64.64,0,0,0,0-.07s0-.05,0-.07a.14.14,0,0,1,0-.07l0-.06,0-.07,0-.06,0-.06,0-.06,0-.06,0,0s0,0,0,0l0-.05,0,0-.06-.05-.06,0-.06,0-.06,0-.06,0-.07,0-.06,0-.09,0h0l-.07,0h-.3Zm0,0"/><path class="cls-14" d="M106.75,50.83h-.31l-.07,0-.07,0-.07,0-.06,0-.07,0L106,51l-.06,0-.06,0-.06,0,0,0-.06,0,0,.05,0,.06,0,0,0,.06,0,.06,0,.06,0,.06,0,.07s0,0,0,.06l0,.1v0h0s0,0,0,.06,0,0,0,.07a.17.17,0,0,0,0,.07s0,0,0,.07v.19s0,0,0,.07,0,0,0,.08,0,0,0,.07a.64.64,0,0,1,0,.07s0,0,0,.06l0,.07a.25.25,0,0,0,0,.07l0,.06a.21.21,0,0,0,0,.06l0,.06,0,.06,0,.06,0,0,0,.06,0,0,0,0,.06,0,.06,0,.06,0,.06,0,.06,0,.07,0,.06,0,.1,0h0l.06,0h.61l.07,0,.07,0,.07,0,.06,0,.07,0,.06,0,.06,0,.06,0,.06,0,.05-.05.06,0,.05-.05,0,0,0-.06,0-.06a.15.15,0,0,0,0-.06l0-.06,0-.06a.14.14,0,0,0,0-.06l0-.07,0-.09v0h0a.2.2,0,0,0,0-.07.14.14,0,0,0,0-.07s0-.05,0-.07,0-.05,0-.07v-.19s0,0,0-.07,0-.05,0-.07,0-.05,0-.07a.64.64,0,0,0,0-.07s0-.05,0-.07a.14.14,0,0,1,0-.07l0-.06,0-.07,0-.06,0-.06,0-.06,0-.06,0,0s0,0,0,0l0-.05,0,0-.06-.05-.06,0-.06,0-.06,0-.06,0-.07,0-.06,0-.09,0h0l-.07,0h-.3Zm0,0"/><path class="cls-4" d="M107.64,88.08a9.76,9.76,0,0,1,9.78,9.79v4.9a9.79,9.79,0,1,1-19.57,0v-4.9a9.77,9.77,0,0,1,9.79-9.79Zm0,0"/><path class="cls-12" d="M101.94,95.1a3.16,3.16,0,1,1,.93,2.23,3.16,3.16,0,0,1-.93-2.23Zm0,0"/><path class="cls-4" d="M67.25,88.08A9.76,9.76,0,0,1,77,97.87v4.9a9.79,9.79,0,1,1-19.57,0v-4.9a9.76,9.76,0,0,1,9.78-9.79Zm0,0"/><path class="cls-12" d="M61.56,95.1a3.14,3.14,0,1,1,.92,2.23,3.15,3.15,0,0,1-.92-2.23Zm0,0"/><path class="cls-25" d="M73.17,118.08a3,3,0,0,0-3,3v3.36a17.26,17.26,0,0,0,34.51,0v-3.36a3,3,0,0,0-3-3Zm28.55,0"/><path class="cls-26" d="M87.45,129.85a17.24,17.24,0,0,0-13,5.91,17.26,17.26,0,0,0,26,0,17.24,17.24,0,0,0-13-5.91Zm0,0"/><path class="cls-12" d="M73.17,118.08a3,3,0,0,0-3,3v3a39.8,39.8,0,0,0,34.51,0v-3a3,3,0,0,0-3-3Zm28.55,0"/><path class="cls-27" d="M100.07,118.08v4.62c0,1.73-.22,2.83-1.4,3.62a40.1,40.1,0,0,0,6-2.26v-3a3,3,0,0,0-3-3Zm1.65,0"/><path class="cls-27" d="M73.17,118.08a3,3,0,0,0-3,3v3A40.27,40.27,0,0,0,82,127.58c-2-.54-2.6-2.55-2.6-4.88v-4.62Zm6.27,0"/><path class="cls-28" d="M74.82,118.08v4.62c0,1.73.22,2.83,1.4,3.62a40.1,40.1,0,0,1-6-2.26v-3a3,3,0,0,1,3-3Zm-1.65,0"/><path class="cls-4" d="M73.17,117.13a3.94,3.94,0,0,0-3.93,3.93v3.36a18.21,18.21,0,0,0,36.41,0v-3.36a3.94,3.94,0,0,0-3.93-3.93Zm28.55,1.9a2,2,0,0,1,2,2v3.36a16.31,16.31,0,0,1-32.61,0v-3.36a2,2,0,0,1,2-2Zm0,0"/><path class="cls-4" d="M104.86,123.51a39.73,39.73,0,0,1-34.83,0l-.42.85a40.69,40.69,0,0,0,35.67,0l-.42-.85Zm0,0"/><path class="cls-29" d="M89.35,134.5a1.8,1.8,0,0,1,.85-1.43,3.59,3.59,0,0,1,2-.59c1.59,0,2.87.91,2.87,2s-1.28,2-2.87,2a3.51,3.51,0,0,1-2-.59,1.79,1.79,0,0,1-.85-1.43Zm0,0"/><path class="cls-4" d="M151.59,123.29a9,9,0,0,0,0,18v-5.7a3.3,3.3,0,0,1,0-6.6v-5.7Zm0,0"/><path class="cls-4" d="M151.59,111a9,9,0,1,0,0,18v-5.7a3.3,3.3,0,0,1,0-6.6h12.29a15.6,15.6,0,1,1,0,31.2H151.59a3.3,3.3,0,0,1,0-6.6v-5.7a9,9,0,0,0,0,18h12.29a21.3,21.3,0,1,0,0-42.6Zm12.29,0"/><path class="cls-4" d="M166.8,96.13a9,9,0,0,0-6.36,11L163.62,119A9,9,0,0,0,181,114.37l-3.19-11.88a9,9,0,0,0-11-6.36Zm1.48,5.5a3.24,3.24,0,0,1,4,2.34l3.18,11.88a3.3,3.3,0,1,1-6.37,1.7l-3.19-11.88a3.24,3.24,0,0,1,2.34-4Zm0,0"/><path class="cls-5" d="M167.54,98.88a6.14,6.14,0,0,1,7.53,4.35l3.18,11.88a6.15,6.15,0,1,1-11.88,3.18l-3.18-11.88a6.14,6.14,0,0,1,4.35-7.53Zm0,0"/><path class="cls-4" d="M167.29,98a7.12,7.12,0,0,0-5,8.7l3.19,11.88a7.1,7.1,0,1,0,13.71-3.68L176,103a7.11,7.11,0,0,0-8.7-5Zm.5,1.84a5.17,5.17,0,0,1,6.36,3.67l3.19,11.88a5.2,5.2,0,0,1-10.05,2.7l-3.18-11.88a5.17,5.17,0,0,1,3.68-6.37Zm0,0"/><path class="cls-12" d="M163.88,150.74a18.45,18.45,0,1,0,0-36.9H151.59a6.15,6.15,0,1,0,0,12.3,6.15,6.15,0,1,0,0,12.3,6.15,6.15,0,0,0,0,12.3Zm-12.29,0"/><path class="cls-5" d="M154.93,113.84a18.45,18.45,0,0,1,0,36.9h8.95a18.45,18.45,0,1,0,0-36.9Zm0,0"/><path class="cls-4" d="M151.59,125.19a7.1,7.1,0,0,0,0,14.2v-1.9a5.2,5.2,0,1,1,0-10.4v-1.9Zm0,0"/><path class="cls-4" d="M151.59,112.89a7.1,7.1,0,1,0,0,14.2v-1.9a5.2,5.2,0,0,1,0-10.4h12.29a17.5,17.5,0,1,1,0,35H151.59a5.2,5.2,0,0,1,0-10.4v-1.9a7.1,7.1,0,0,0,0,14.2h12.29a19.4,19.4,0,1,0,0-38.8Zm12.29,0"/><rect class="cls-4" x="162.93" y="119.08" width="1.9" height="26.42"/><path class="cls-17" d="M44.87,0l-29,0h-16l0,16q0,10.48,0,21A29.11,29.11,0,0,0,51.39,18.3,28.92,28.92,0,0,0,44.87,0Z"/><text class="cls-30" transform="translate(15.49 31.75)">11</text></svg>