<svg id="Слой_1" data-name="Слой 1" xmlns="http://www.w3.org/2000/svg" viewBox="0 0 195.59 280.63"><defs><style>.cls-1{fill:#c9345f;}.cls-2{font-size:53.3px;}.cls-17,.cls-2{fill:#53b582;}.cls-2,.cls-30{font-family:Impact;}.cls-3{fill:#d4c1bb;}.cls-4{fill:#1a1a1a;}.cls-5{fill:silver;}.cls-6{fill:#f5ba4e;}.cls-7{fill:#ffdb82;}.cls-8{fill:#dc9133;}.cls-9{fill:#ec6665;}.cls-10{fill:#d2c0c1;}.cls-11{fill:#9d7f81;}.cls-12,.cls-30{fill:#fff;}.cls-13{fill:#f3af28;}.cls-14{fill:#ffd740;}.cls-15{fill:#dd7f1b;}.cls-16{fill:#902f54;}.cls-18{fill:#88c58d;}.cls-19{fill:#2c8468;}.cls-20{fill:#e5dad6;}.cls-21{fill:#e73a2e;}.cls-22{fill:#b4958f;}.cls-23{fill:#ec604b;}.cls-24{fill:#f39461;}.cls-25{fill:#af1739;}.cls-26{fill:#eb5775;}.cls-27{fill:#badbe9;}.cls-28{fill:#8bb0cc;}.cls-29{fill:#f293a2;}.cls-30{font-size:20px;}</style></defs><rect class="cls-1" x="-6.35" y="-6.2" width="208.29" height="299.54"/><text class="cls-2" transform="translate(16.55 253.58)">barszcz</text><path class="cls-3" d="M95.14,166.83c0,11.43-3.81,27.67-8.5,27.67s-8.51-16.24-8.51-27.67,5-13.7,8.51-13.7,8.5,2.28,8.5,13.7Zm0,0"/><path class="cls-4" d="M86.64,150.75a9.69,9.69,0,0,0-7.38,3.41c-2.18,2.58-3.51,6.61-3.51,12.67a73.74,73.74,0,0,0,2.58,18.76,31,31,0,0,0,3,7.41c1.19,2,2.8,3.87,5.35,3.87S90.79,195,92,193a31,31,0,0,0,3-7.41,73.74,73.74,0,0,0,2.58-18.76c0-6.06-1.33-10.09-3.51-12.67a9.69,9.69,0,0,0-7.37-3.41Zm0,4.75a4.56,4.56,0,0,1,3.74,1.73c1.2,1.42,2.39,4.24,2.39,9.6a70.63,70.63,0,0,1-2.4,17.48,27.73,27.73,0,0,1-2.46,6.25,5,5,0,0,1-1.27,1.51,4.78,4.78,0,0,1-1.28-1.51,27.73,27.73,0,0,1-2.46-6.25,70.63,70.63,0,0,1-2.4-17.48c0-5.36,1.19-8.18,2.39-9.6a4.57,4.57,0,0,1,3.75-1.73Zm0,0"/><path class="cls-3" d="M138.16,166.83c0,11.43-3.81,27.67-8.51,27.67s-8.5-16.24-8.5-27.67,5-13.7,8.5-13.7,8.51,2.28,8.51,13.7Zm0,0"/><path class="cls-4" d="M129.66,150.75a9.69,9.69,0,0,0-7.38,3.41c-2.18,2.58-3.51,6.61-3.51,12.67a73.74,73.74,0,0,0,2.58,18.76,31,31,0,0,0,3,7.41c1.19,2,2.8,3.87,5.35,3.87S133.81,195,135,193a31,31,0,0,0,3-7.41,73.74,73.74,0,0,0,2.58-18.76c0-6.06-1.33-10.09-3.51-12.67a9.69,9.69,0,0,0-7.37-3.41Zm0,4.75a4.56,4.56,0,0,1,3.74,1.73c1.2,1.42,2.39,4.24,2.39,9.6a70.17,70.17,0,0,1-2.41,17.48,27.31,27.31,0,0,1-2.45,6.25,5,5,0,0,1-1.27,1.51,4.78,4.78,0,0,1-1.28-1.51,27.73,27.73,0,0,1-2.46-6.25,70.63,70.63,0,0,1-2.4-17.48c0-5.36,1.19-8.18,2.39-9.6a4.57,4.57,0,0,1,3.75-1.73Zm0,0"/><path class="cls-5" d="M50.9,117.2c-10.55,4.38-27,7.07-28.81,2.73s11.75-14.08,22.3-18.45,14.59-.6,15.92,2.62,1.15,8.73-9.41,13.1Zm0,0"/><path class="cls-4" d="M62.5,103.19a9.62,9.62,0,0,0-6-5.51c-3.21-1-7.45-.71-13.05,1.61a73.32,73.32,0,0,0-16.34,9.56,31,31,0,0,0-5.71,5.56c-1.4,1.88-2.51,4.08-1.53,6.43s3.31,3.12,5.62,3.46a30.74,30.74,0,0,0,8-.11,74,74,0,0,0,18.31-4.79c5.6-2.32,8.82-5.09,10.36-8.1a9.6,9.6,0,0,0,.33-8.11ZM58.12,105a4.6,4.6,0,0,1-.17,4.12c-.85,1.65-3,3.83-8,5.88a70,70,0,0,1-17.06,4.47,27.54,27.54,0,0,1-6.72.12,4.88,4.88,0,0,1-1.88-.6,4.84,4.84,0,0,1,.91-1.75,27.3,27.3,0,0,1,4.84-4.67,69.89,69.89,0,0,1,15.22-8.9c5-2.06,8-2,9.78-1.47a4.56,4.56,0,0,1,3,2.8Zm0,0"/><path class="cls-5" d="M177.88,104.72c4.37,10.55,7.06,27,2.72,28.81s-14.08-11.75-18.45-22.3-.59-14.59,2.62-15.92,8.73-1.15,13.11,9.41Zm0,0"/><path class="cls-4" d="M163.86,93.12a9.61,9.61,0,0,0-5.5,6c-1,3.21-.72,7.45,1.6,13a74.1,74.1,0,0,0,9.56,16.34,31,31,0,0,0,5.56,5.71c1.88,1.39,4.08,2.51,6.43,1.53s3.12-3.31,3.46-5.62a30.74,30.74,0,0,0-.11-8,73.57,73.57,0,0,0-4.79-18.31C177.75,98.21,175,95,172,93.44a9.65,9.65,0,0,0-8.12-.32Zm1.82,4.38a4.6,4.6,0,0,1,4.12.17c1.66.85,3.83,3,5.88,8a70.21,70.21,0,0,1,4.47,17.07,27.54,27.54,0,0,1,.12,6.72,4.7,4.7,0,0,1-.6,1.88,4.92,4.92,0,0,1-1.75-.91,27.3,27.3,0,0,1-4.67-4.84,70.29,70.29,0,0,1-8.9-15.22c-2.06-5-2-8-1.47-9.78a4.58,4.58,0,0,1,2.8-3Zm0,0"/><path class="cls-4" d="M88,39.24c-5.5,0-10.59,2.11-13.72,6.19h0a14.33,14.33,0,0,0-1.81,3.07l.2-.4a24.67,24.67,0,0,0-3,16.67A32.74,32.74,0,0,0,52,85.58H46.21l-.89,2.53a66.64,66.64,0,1,0,125.65,0l-.89-2.53h-6.66a40.2,40.2,0,0,0-49.37-30.12,31.16,31.16,0,0,0-8.5-9.83A29.23,29.23,0,0,0,88,39.24Zm0,7.6a22.21,22.21,0,0,1,12.92,4.82,23,23,0,0,1,7.51,9.73l1.32,3.49,3.51-1.24A32.62,32.62,0,0,1,156.49,89.9l.46,3.28h7.69a59,59,0,1,1-113,0h6.57L58.77,90A25.07,25.07,0,0,1,75.32,70.65l3.52-1.21L77.7,65.89a17.15,17.15,0,0,1,1.52-14l.11-.19.09-.21a7.06,7.06,0,0,1,.88-1.48c1.5-2,4.06-3.22,7.7-3.22Zm0,0"/><path class="cls-1" d="M112.4,94.39A28.92,28.92,0,1,1,103.93,74a28.9,28.9,0,0,1,8.47,20.44Zm0,0"/><path class="cls-6" d="M104.88,94.39a21.41,21.41,0,1,1-6.27-15.12,21.39,21.39,0,0,1,6.27,15.12Zm0,0"/><path class="cls-7" d="M97.36,94.39a13.86,13.86,0,1,1-4.06-9.8,13.87,13.87,0,0,1,4.06,9.8Zm0,0"/><path class="cls-8" d="M83.5,64.53a29.86,29.86,0,1,0,29.85,29.86A29.87,29.87,0,0,0,83.5,64.53Zm0,1.9a28,28,0,1,1-28,28,27.94,27.94,0,0,1,28-28Zm0,0"/><path class="cls-9" d="M83.5,72.05a22.34,22.34,0,1,0,22.33,22.34A22.35,22.35,0,0,0,83.5,72.05Zm0,1.9A20.44,20.44,0,1,1,63.06,94.39,20.42,20.42,0,0,1,83.5,74Zm0,0"/><path class="cls-8" d="M83.5,79.58A14.81,14.81,0,1,0,98.31,94.39,14.82,14.82,0,0,0,83.5,79.58Zm0,1.9A12.91,12.91,0,1,1,70.59,94.39,12.9,12.9,0,0,1,83.5,81.48Zm0,0"/><path class="cls-10" d="M110.7,73.39A21,21,0,1,1,77.41,47.84Zm0,0"/><path class="cls-11" d="M77.21,46.35l-.65.84a22.05,22.05,0,1,0,35,26.85l.64-.85-.84-.65Zm.44,3,31.51,24.18A19.89,19.89,0,0,1,77.65,49.37Zm0,0"/><path class="cls-12" d="M110.83,73.49c-5.08,6.61-16.7,6.2-26-.9A26,26,0,0,1,75.7,60c-1.42-4.66-.85-9.06,1.58-12.23s6.54-4.87,11.41-4.7a26,26,0,0,1,14.55,5.6c9.26,7.1,12.66,18.22,7.59,24.84Zm0,0"/><path class="cls-13" d="M104.32,66.33a7.66,7.66,0,0,1-6.55,2.73A15.61,15.61,0,0,1,84.2,58.66a7.13,7.13,0,0,1,7.5-9.77A15.6,15.6,0,0,1,105.26,59.3a7.7,7.7,0,0,1-.94,7Zm0,0"/><path class="cls-11" d="M103.79,47.93a26.86,26.86,0,0,0-15.07-5.79c-4.92-.17-9.41,1.48-12.16,5s-3.17,8.35-1.73,13.05a26.86,26.86,0,0,0,9.49,13.07,26.77,26.77,0,0,0,15.07,5.78c4.91.17,9.41-1.47,12.16-5s3.16-8.35,1.73-13.05a26.79,26.79,0,0,0-9.49-13.06Zm-1.1,1.43a25.09,25.09,0,0,1,8.85,12.16c1.31,4.28.89,8.38-1.43,11.41s-6.18,4.5-10.66,4.34a25.06,25.06,0,0,1-14-5.4,25.09,25.09,0,0,1-8.85-12.16c-1.31-4.28-.9-8.38,1.43-11.41S84.18,43.8,88.66,44a25.08,25.08,0,0,1,14,5.4Zm0,0"/><path class="cls-14" d="M101.18,62.12a5.76,5.76,0,0,1-4.89,2A11.63,11.63,0,0,1,86.18,56.4a5.74,5.74,0,0,1,.7-5.25c2.18-2.85,7.15-2.7,11.1.33s5.39,7.8,3.2,10.64Zm0,0"/><path class="cls-15" d="M100.61,51.32a15.6,15.6,0,0,0-8.88-3.38,8.07,8.07,0,0,0-8.44,11A16.55,16.55,0,0,0,97.74,70a8.06,8.06,0,0,0,8.43-11,15.62,15.62,0,0,0-5.56-7.7Zm-1.16,1.5a13.85,13.85,0,0,1,4.9,6.75,6.17,6.17,0,0,1-6.55,8.54,14.65,14.65,0,0,1-12.69-9.73,6.19,6.19,0,0,1,6.56-8.54,13.75,13.75,0,0,1,7.78,3Zm0,0"/><path class="cls-1" d="M160.6,94.39a36.41,36.41,0,1,1-10.66-25.76A36.42,36.42,0,0,1,160.6,94.39Zm0,0"/><path class="cls-1" d="M153.08,94.39A28.9,28.9,0,1,1,144.62,74a28.9,28.9,0,0,1,8.46,20.44Zm0,0"/><path class="cls-1" d="M145.56,94.39a21.39,21.39,0,1,1-6.26-15.12,21.38,21.38,0,0,1,6.26,15.12Zm0,0"/><path class="cls-1" d="M138,94.39a13.86,13.86,0,1,1-4.06-9.8,13.87,13.87,0,0,1,4.06,9.8Zm0,0"/><path class="cls-8" d="M124.18,57a37.38,37.38,0,1,0,37.37,37.38A37.39,37.39,0,0,0,124.18,57Zm0,1.9A35.48,35.48,0,1,1,88.7,94.39a35.46,35.46,0,0,1,35.48-35.48Zm0,0"/><path class="cls-9" d="M124.18,64.53A29.86,29.86,0,1,0,154,94.39a29.87,29.87,0,0,0-29.85-29.86Zm0,1.9a28,28,0,1,1-28,28,27.94,27.94,0,0,1,28-28Zm0,0"/><path class="cls-9" d="M124.18,72.05a22.34,22.34,0,1,0,22.33,22.34,22.35,22.35,0,0,0-22.33-22.34Zm0,1.9a20.44,20.44,0,1,1-20.43,20.44A20.42,20.42,0,0,1,124.18,74Zm0,0"/><path class="cls-9" d="M124.18,79.58A14.81,14.81,0,1,0,139,94.39a14.82,14.82,0,0,0-14.81-14.81Zm0,1.9a12.91,12.91,0,1,1-12.91,12.91,12.9,12.9,0,0,1,12.91-12.91Zm0,0"/><path class="cls-1" d="M111.18,95.66s2.58-16.81-4.24-18.85c-5.92-1.78-10.83,3.86-17.36,3s-10.33-6.71-16-5.69c-5,.91-10.74,9.44-4.28,21.51Zm0,0"/><path class="cls-16" d="M74.58,73a10.06,10.06,0,0,0-1.19.13c-6,1.1-11.71,10.58-5,23.06l1.88-1c-6.24-11.66-.49-19.23,3.53-20,2.44-.44,4.51.59,7,2s5.17,3.22,8.72,3.67S96.11,80,98.87,79s5.18-1.91,7.76-1.13c1.3.39,2.2,1.48,2.85,3.17a20.26,20.26,0,0,1,1.07,6,48.73,48.73,0,0,1-.43,8.45l2.11.32a50.69,50.69,0,0,0,.45-8.87,21.91,21.91,0,0,0-1.21-6.72,6.84,6.84,0,0,0-4.23-4.44c-3.33-1-6.34.09-9.14,1.18s-5.45,2.18-8.38,1.81-5.41-1.94-7.92-3.4c-2.19-1.28-4.52-2.51-7.22-2.41Zm0,0"/><path class="cls-9" d="M78.2,80c-.3,0-.6,0-.9.07a7.46,7.46,0,0,0-5.69,4.35c-1.1,2.49-.87,5.88,1.8,9.64l1.16-.83C72.11,89.79,72,87,72.92,85a6.1,6.1,0,0,1,4.57-3.52c2.05-.28,3.77.38,5.72,1.23A21.26,21.26,0,0,0,90,84.91a18.84,18.84,0,0,0,7.35-1.15c2.2-.64,4.21-1.17,6.36-.68A3.36,3.36,0,0,1,106.09,85a9.35,9.35,0,0,1,.82,3.54,21.83,21.83,0,0,1-.33,5l1.4.29a23.15,23.15,0,0,0,.36-5.37,10.56,10.56,0,0,0-1-4.1,4.85,4.85,0,0,0-3.29-2.65c-2.55-.58-4.85,0-7.07.71a17.77,17.77,0,0,1-6.81,1.09,20.21,20.21,0,0,1-6.4-2.06A12.8,12.8,0,0,0,78.2,80Zm0,0"/><path class="cls-9" d="M81,84.8a6.37,6.37,0,0,0-.74.07,6.19,6.19,0,0,0-4.67,3.88c-.89,2.19-.71,5.17,1.45,8.47l1.19-.78c-2-3-2-5.43-1.32-7.16a4.83,4.83,0,0,1,3.56-3,7.47,7.47,0,0,1,4.48,1.06,16.14,16.14,0,0,0,5.53,1.92,14.28,14.28,0,0,0,6-1,9,9,0,0,1,5-.6,2.63,2.63,0,0,1,1.79,1.61,9.05,9.05,0,0,1,.66,3.08,21.26,21.26,0,0,1-.27,4.36L105,97a21.75,21.75,0,0,0,.29-4.7,9.82,9.82,0,0,0-.79-3.6,4.17,4.17,0,0,0-2.73-2.39,10.29,10.29,0,0,0-5.78.62,12.92,12.92,0,0,1-5.38,1,15.29,15.29,0,0,1-5.07-1.78A9.63,9.63,0,0,0,81,84.8Zm0,0"/><path class="cls-17" d="M122.64,73c3,2.29,2.8,7.56-.41,11.87,2.84.92,4.72,2.83,5,5.09.46,3.5-2.94,6.94-7.88,8a4.64,4.64,0,0,1,.33,1.71,5.67,5.67,0,0,1-2.71,4.57,11.55,11.55,0,0,1-6.53,1.89c-4.49,0-8.33-2.25-9.11-5.34-3.18,0-6.35-3.08-7.52-7.41-1.32-4.93.4-9.68,3.85-10.6a4.83,4.83,0,0,1,1.74-.13c-.29-5,2.15-9.21,5.65-9.67,2.26-.29,4.59,1,6.22,3.53,3.33-4.21,8.38-5.75,11.35-3.47Zm0,0"/><line class="cls-17" x1="101.35" y1="100.73" x2="118.74" y2="78.06"/><path class="cls-18" d="M118.75,77.35a.72.72,0,0,0-.57.28l-17.4,22.67a.72.72,0,0,0,1.14.87L119.31,78.5a.71.71,0,0,0-.13-1,.66.66,0,0,0-.43-.15Zm0,0"/><line class="cls-17" x1="101.35" y1="100.74" x2="111.72" y2="99.37"/><path class="cls-18" d="M111.71,98.66h-.08L101.26,100a.71.71,0,1,0,.18,1.41l10.37-1.36a.71.71,0,0,0-.1-1.42Zm0,0"/><line class="cls-17" x1="105.82" y1="78.54" x2="107.66" y2="92.51"/><path class="cls-18" d="M105.81,77.83h-.08a.71.71,0,0,0-.61.8l1.83,14a.71.71,0,0,0,.8.61.72.72,0,0,0,.62-.8l-1.84-14a.72.72,0,0,0-.72-.62Zm0,0"/><path class="cls-19" d="M119.37,71a8.73,8.73,0,0,0-2.55.39A12.72,12.72,0,0,0,111.37,75,7.23,7.23,0,0,0,105,72,6.89,6.89,0,0,0,100,75.56a12.38,12.38,0,0,0-1.53,6.07,5.47,5.47,0,0,0-1,.17,6.65,6.65,0,0,0-4.35,4.39,12.36,12.36,0,0,0-.16,7.38c1.16,4.34,4.21,7.72,7.73,8.08,1.26,3.3,5.3,5.37,9.81,5.37a12.41,12.41,0,0,0,7.08-2.06,6.65,6.65,0,0,0,3.11-5.35,6.22,6.22,0,0,0-.1-1,12.41,12.41,0,0,0,5.46-3,6.92,6.92,0,0,0,2.18-5.71,7.22,7.22,0,0,0-4.53-5.43,12.7,12.7,0,0,0,2-6.19,7,7,0,0,0-2.49-6A6.25,6.25,0,0,0,119.37,71Zm.59,1.93a4.13,4.13,0,0,1,2.11.83,5.08,5.08,0,0,1,1.74,4.38,11.29,11.29,0,0,1-2.34,6.16l-.79,1.07,1.26.4c2.59.85,4.13,2.5,4.37,4.31a5,5,0,0,1-1.65,4.12A10.89,10.89,0,0,1,119.18,97l-1.11.23.41,1a3.66,3.66,0,0,1,.27,1.36,4.71,4.71,0,0,1-2.3,3.79,10.61,10.61,0,0,1-6,1.72c-4.18,0-7.57-2.14-8.19-4.62l-.18-.73h-.75c-2.56,0-5.51-2.68-6.59-6.71a10.62,10.62,0,0,1,.11-6.23,4.73,4.73,0,0,1,3.07-3.21,3.77,3.77,0,0,1,1.39-.09l1.12.13-.07-1.13a10.91,10.91,0,0,1,1.28-6,4.93,4.93,0,0,1,3.55-2.65c1.81-.24,3.8.81,5.29,3.1l.72,1.11.82-1a11.27,11.27,0,0,1,5.35-3.85,6.21,6.21,0,0,1,2.58-.28Zm0,0"/><path class="cls-3" d="M48.9,89.38a62.84,62.84,0,1,0,118.49,0Zm0,0"/><path class="cls-20" d="M50.48,89.38a53.89,53.89,0,1,0,103.49,0Zm0,0"/><path class="cls-12" d="M53.28,89.38c-.11,1.14-.16,2.28-.16,3.42a37.51,37.51,0,0,0,75,0c0-1.14-.06-2.28-.16-3.42Zm0,0"/><path class="cls-21" d="M46,101.35a62.62,62.62,0,0,0-.64,9c0,1,0,2,.07,3H170.91c.05-1,.07-2,.07-3a62.62,62.62,0,0,0-.64-9Zm0,0"/><path class="cls-22" d="M48.23,88.43l-.23.63a63.79,63.79,0,1,0,120.29,0l-.23-.63Zm1.36,1.9H166.7a61.89,61.89,0,1,1-117.11,0Zm0,0"/><rect class="cls-22" x="79.17" y="165.13" width="57.95" height="1.9"/><path class="cls-23" d="M48.43,101.35c-.06,1-.09,2-.09,3.05a54.2,54.2,0,0,0,.74,8.91H155.37a54.2,54.2,0,0,0,.74-8.91c0-1,0-2-.09-3.05Zm0,0"/><path class="cls-24" d="M54.11,101.35a37.42,37.42,0,0,0,5.12,12H122a37.65,37.65,0,0,0,5.12-12Zm0,0"/><path class="cls-4" d="M88,41.27c-5,0-9.42,1.89-12.12,5.4a12,12,0,0,0-1.51,2.57A22.56,22.56,0,0,0,72.09,66,30.54,30.54,0,0,0,53.67,87.61H48.23a.81.81,0,0,0-.77.55l-.23.63a64.61,64.61,0,1,0,121.82,0l-.22-.63a.81.81,0,0,0-.77-.55h-6.42a38.13,38.13,0,0,0-37.46-31.42A37.74,37.74,0,0,0,113,58a28.56,28.56,0,0,0-8.65-10.75,27.38,27.38,0,0,0-16.31-6ZM88,44a24.82,24.82,0,0,1,14.66,5.41,25.78,25.78,0,0,1,8.45,11l.32.87.88-.31a35.48,35.48,0,0,1,47,28.56l.12.82h7.23a61.9,61.9,0,1,1-117,0h6.19l.14-.79A28,28,0,0,1,74.39,68l.88-.3L75,66.76A20,20,0,0,1,76.76,50.5l0,0,0-.05A10,10,0,0,1,78,48.32C80.14,45.57,83.65,44,88,44Zm0,0"/><path class="cls-4" d="M88,42.09c-4.81,0-9,1.79-11.47,5.08h0a11.77,11.77,0,0,0-1.41,2.37A21.91,21.91,0,0,0,73,66.47a29.85,29.85,0,0,0-18.69,22h-6l-.23.63a63.79,63.79,0,1,0,120.29,0l-.23-.63h-7A37.25,37.25,0,0,0,112.54,58.9a27.78,27.78,0,0,0-8.72-11A26.65,26.65,0,0,0,88,42.09ZM88,44a24.82,24.82,0,0,1,14.66,5.41,25.7,25.7,0,0,1,8.45,11l.33.87.88-.31a35.48,35.48,0,0,1,47,28.56l.11.82h7.27a61.89,61.89,0,1,1-117.11,0h6.24l.13-.79A28,28,0,0,1,74.4,68l.87-.3L75,66.77A20.06,20.06,0,0,1,76.76,50.5l0,0,0-.05A10.51,10.51,0,0,1,78,48.32C80.15,45.57,83.66,44,88,44Zm0,0"/><path class="cls-14" d="M88.84,50.83h-.3l-.07,0h0l-.09,0-.06,0-.07,0-.06,0-.06,0-.06,0-.06,0-.06.05,0,0s0,0-.05.05l0,0,0,0,0,.06,0,.06,0,.06,0,.06,0,.07a.14.14,0,0,0,0,.06l0,.07s0,0,0,.07a.64.64,0,0,0,0,.07s0,0,0,.07,0,0,0,.07,0,0,0,.07v.19s0,0,0,.07,0,0,0,.07a.14.14,0,0,0,0,.07.2.2,0,0,0,0,.07h0v0l0,.09,0,.07s0,0,0,.06l0,.06,0,.06,0,.06a.21.21,0,0,1,0,.06l.05.06s0,0,0,0,0,0,0,.05l0,0,0,.05.06,0,.06,0,.06,0,.06,0,.07,0,.06,0,.07,0,.07,0,.07,0h.71l.09,0,.07,0,.06,0,.06,0,.06,0,.06,0,.06,0,.06,0,0-.05.05,0,0,0,0-.06a.1.1,0,0,1,0,0l0-.06,0-.06,0-.07,0-.06,0-.07a.25.25,0,0,1,0-.07s0,0,0-.06a.64.64,0,0,1,0-.07s0,0,0-.07a350163379252.65,350163379252.65,0,0,0,0-.14v-.19a.22.22,0,0,0,0-.08.2.2,0,0,0,0-.07s0,0,0-.07,0,0,0-.06h0v0l0-.09a.64.64,0,0,0,0-.07l0-.07,0-.06,0-.06,0-.06,0-.06,0,0,0-.06a.12.12,0,0,1,0-.05l-.06,0,0,0-.06,0-.06,0-.06,0-.06,0-.07,0-.06,0-.07,0h-.07l-.07,0-.07,0h-.24Zm0,0"/><path class="cls-14" d="M88.84,50.83h-.3l-.07,0h0l-.09,0-.06,0-.07,0-.06,0-.06,0-.06,0-.06,0-.06.05,0,0s0,0-.05.05l0,0,0,0,0,.06,0,.06,0,.06,0,.06,0,.07a.14.14,0,0,0,0,.06l0,.07s0,0,0,.07a.64.64,0,0,0,0,.07s0,0,0,.07,0,0,0,.07,0,0,0,.07v.19s0,0,0,.07,0,0,0,.07a.14.14,0,0,0,0,.07.2.2,0,0,0,0,.07h0v0l0,.09,0,.07s0,0,0,.06l0,.06,0,.06,0,.06a.21.21,0,0,1,0,.06l.05.06s0,0,0,0,0,0,0,.05l0,0,0,.05.06,0,.06,0,.06,0,.06,0,.07,0,.06,0,.07,0,.07,0,.07,0h.61l.06,0h0l.09,0,.07,0,.06,0,.06,0,.06,0,.06,0,.06,0,.06,0,0,0s0,0,.05,0l0-.06,0,0a.21.21,0,0,1,0-.06l0-.06,0-.06,0-.06,0-.06,0-.07a.19.19,0,0,1,0-.07s0,0,0-.06a.64.64,0,0,1,0-.07s0,0,0-.07a.22.22,0,0,0,0-.08.15.15,0,0,0,0-.07v-.19a390566846086,390566846086,0,0,0,0-.14s0-.05,0-.07,0,0,0-.06h0v0l0-.1s0,0,0-.06l0-.07,0-.06,0-.06,0-.06,0-.06,0,0,0-.06s0,0,0-.05l-.06,0,0,0-.06,0-.06,0-.06,0-.06,0-.07,0-.06,0-.07,0-.07,0-.07,0h-.31Zm0,0"/><path class="cls-14" d="M88.84,50.83h-.3l-.07,0h0l-.09,0-.06,0-.07,0-.06,0-.06,0-.06,0-.06,0-.06.05,0,0s0,0-.05.05l0,0,0,0,0,.06,0,.06,0,.06,0,.06,0,.07a.14.14,0,0,0,0,.06l0,.07s0,0,0,.07a.64.64,0,0,0,0,.07s0,0,0,.07,0,0,0,.07,0,0,0,.07v.19s0,0,0,.07,0,0,0,.07a.14.14,0,0,0,0,.07.2.2,0,0,0,0,.07h0v0l0,.09,0,.07s0,0,0,.06l0,.06,0,.06,0,.06a.21.21,0,0,1,0,.06l.05.06s0,0,0,0,0,0,0,.05l0,0,0,.05.06,0,.06,0,.06,0,.06,0,.07,0,.06,0,.07,0,.07,0,.07,0h.61l.06,0h0l.09,0,.07,0,.06,0,.06,0,.06,0,.06,0,.06,0,.06,0,0,0s0,0,.05,0l0-.06,0,0a.21.21,0,0,1,0-.06l0-.06,0-.06,0-.06,0-.06,0-.07a.19.19,0,0,1,0-.07s0,0,0-.06a.64.64,0,0,1,0-.07s0,0,0-.07a.22.22,0,0,0,0-.08.15.15,0,0,0,0-.07v-.19a390566846086,390566846086,0,0,0,0-.14s0-.05,0-.07,0,0,0-.06h0v0l0-.1s0,0,0-.06l0-.07,0-.06,0-.06,0-.06,0-.06,0,0,0-.06s0,0,0-.05l-.06,0,0,0-.06,0-.06,0-.06,0-.06,0-.07,0-.06,0-.07,0-.07,0-.07,0h-.31Zm0,0"/><path class="cls-14" d="M88.84,50.83h-.3l-.07,0h0l-.09,0-.06,0-.07,0-.06,0-.06,0-.06,0-.06,0-.06.05,0,0s0,0-.05.05l0,0,0,0,0,.06,0,.06,0,.06,0,.06,0,.07a.14.14,0,0,0,0,.06l0,.07s0,0,0,.07a.64.64,0,0,0,0,.07s0,0,0,.07,0,0,0,.07,0,0,0,.07v.19s0,0,0,.07,0,0,0,.07a.14.14,0,0,0,0,.07.2.2,0,0,0,0,.07h0v0l0,.09,0,.07s0,0,0,.06l0,.06,0,.06,0,.06a.21.21,0,0,1,0,.06l.05.06s0,0,0,0,0,0,0,.05l0,0,0,.05.06,0,.06,0,.06,0,.06,0,.07,0,.06,0,.07,0,.07,0,.07,0h.61l.06,0h0l.09,0,.07,0,.06,0,.06,0,.06,0,.06,0,.06,0,.06,0,0,0s0,0,.05,0l0-.06,0,0a.21.21,0,0,1,0-.06l0-.06,0-.06,0-.06,0-.06,0-.07a.19.19,0,0,1,0-.07s0,0,0-.06a.64.64,0,0,1,0-.07s0,0,0-.07a.22.22,0,0,0,0-.08.15.15,0,0,0,0-.07v-.19a390566846086,390566846086,0,0,0,0-.14s0-.05,0-.07,0,0,0-.06h0v0l0-.1s0,0,0-.06l0-.07,0-.06,0-.06,0-.06,0-.06,0,0,0-.06s0,0,0-.05l-.06,0,0,0-.06,0-.06,0-.06,0-.06,0-.07,0-.06,0-.07,0-.07,0-.07,0h-.31Zm0,0"/><path class="cls-14" d="M88.84,50.83h-.3l-.07,0h0l-.09,0-.06,0-.07,0-.06,0-.06,0-.06,0-.06,0-.06.05,0,0s0,0-.05.05l0,0,0,0,0,.06,0,.06,0,.06,0,.06,0,.07a.14.14,0,0,0,0,.06l0,.07s0,0,0,.07a.64.64,0,0,0,0,.07s0,0,0,.07,0,0,0,.07,0,0,0,.07v.19s0,0,0,.07,0,0,0,.07a.14.14,0,0,0,0,.07.2.2,0,0,0,0,.07h0v0l0,.09,0,.07s0,0,0,.06l0,.06,0,.06,0,.06a.21.21,0,0,1,0,.06l.05.06s0,0,0,0,0,0,0,.05l0,0,0,.05.06,0,.06,0,.06,0,.06,0,.07,0,.06,0,.07,0,.07,0,.07,0h.61l.06,0h0l.09,0,.07,0,.06,0,.06,0,.06,0,.06,0,.06,0,.06,0,0,0s0,0,.05,0l0-.06,0,0a.21.21,0,0,1,0-.06l0-.06,0-.06,0-.06,0-.06,0-.07a.19.19,0,0,1,0-.07s0,0,0-.06a.64.64,0,0,1,0-.07s0,0,0-.07a.22.22,0,0,0,0-.08.15.15,0,0,0,0-.07v-.19a390566846086,390566846086,0,0,0,0-.14s0-.05,0-.07,0,0,0-.06h0v0l0-.1s0,0,0-.06l0-.07,0-.06,0-.06,0-.06,0-.06,0,0,0-.06s0,0,0-.05l-.06,0,0,0-.06,0-.06,0-.06,0-.06,0-.07,0-.06,0-.07,0-.07,0-.07,0h-.31Zm0,0"/><path class="cls-14" d="M88.84,50.83h-.3l-.07,0h0l-.09,0-.06,0-.07,0-.06,0-.06,0-.06,0-.06,0-.06.05,0,0s0,0-.05.05l0,0,0,0,0,.06,0,.06,0,.06,0,.06,0,.07a.14.14,0,0,0,0,.06l0,.07s0,0,0,.07a.64.64,0,0,0,0,.07s0,0,0,.07,0,0,0,.07,0,0,0,.07v.19s0,0,0,.07,0,0,0,.07a.14.14,0,0,0,0,.07.2.2,0,0,0,0,.07h0v0l0,.09,0,.07s0,0,0,.06l0,.06,0,.06,0,.06a.21.21,0,0,1,0,.06l.05.06s0,0,0,0,0,0,0,.05l0,0,0,.05.06,0,.06,0,.06,0,.06,0,.07,0,.06,0,.07,0,.07,0,.07,0h.61l.06,0h0l.09,0,.07,0,.06,0,.06,0,.06,0,.06,0,.06,0,.06,0,0,0s0,0,.05,0l0-.06,0,0a.21.21,0,0,1,0-.06l0-.06,0-.06,0-.06,0-.06,0-.07a.19.19,0,0,1,0-.07s0,0,0-.06a.64.64,0,0,1,0-.07s0,0,0-.07a.22.22,0,0,0,0-.08.15.15,0,0,0,0-.07v-.19a390566846086,390566846086,0,0,0,0-.14s0-.05,0-.07,0,0,0-.06h0v0l0-.1s0,0,0-.06l0-.07,0-.06,0-.06,0-.06,0-.06,0,0,0-.06s0,0,0-.05l-.06,0,0,0-.06,0-.06,0-.06,0-.06,0-.07,0-.06,0-.07,0-.07,0-.07,0h-.31Zm0,0"/><path class="cls-14" d="M88.84,50.83h-.3l-.07,0h0l-.09,0-.06,0-.07,0-.06,0-.06,0-.06,0-.06,0-.06.05,0,0s0,0-.05.05l0,0,0,0,0,.06,0,.06,0,.06,0,.06,0,.07a.14.14,0,0,0,0,.06l0,.07s0,0,0,.07a.64.64,0,0,0,0,.07s0,0,0,.07,0,0,0,.07,0,0,0,.07v.19s0,0,0,.07,0,0,0,.07a.14.14,0,0,0,0,.07.2.2,0,0,0,0,.07h0v0l0,.09,0,.07s0,0,0,.06l0,.06,0,.06,0,.06a.21.21,0,0,1,0,.06l.05.06s0,0,0,0,0,0,0,.05l0,0,0,.05.06,0,.06,0,.06,0,.06,0,.07,0,.06,0,.07,0,.07,0,.07,0h.61l.06,0h0l.09,0,.07,0,.06,0,.06,0,.06,0,.06,0,.06,0,.06,0,0,0s0,0,.05,0l0-.06,0,0a.21.21,0,0,1,0-.06l0-.06,0-.06,0-.06,0-.06,0-.07a.19.19,0,0,1,0-.07s0,0,0-.06a.64.64,0,0,1,0-.07s0,0,0-.07a.22.22,0,0,0,0-.08.15.15,0,0,0,0-.07v-.19a390566846086,390566846086,0,0,0,0-.14s0-.05,0-.07,0,0,0-.06h0v0l0-.1s0,0,0-.06l0-.07,0-.06,0-.06,0-.06,0-.06,0,0,0-.06s0,0,0-.05l-.06,0,0,0-.06,0-.06,0-.06,0-.06,0-.07,0-.06,0-.07,0-.07,0-.07,0h-.31Zm0,0"/><path class="cls-14" d="M88.84,50.83h-.3l-.07,0h0l-.09,0-.06,0-.07,0-.06,0-.06,0-.06,0-.06,0-.06.05,0,0s0,0-.05.05l0,0,0,0,0,.06,0,.06,0,.06,0,.06,0,.07a.14.14,0,0,0,0,.06l0,.07s0,0,0,.07a.64.64,0,0,0,0,.07s0,0,0,.07,0,0,0,.07,0,0,0,.07v.19s0,0,0,.07,0,0,0,.07a.14.14,0,0,0,0,.07.2.2,0,0,0,0,.07h0v0l0,.09,0,.07s0,0,0,.06l0,.06,0,.06,0,.06a.21.21,0,0,1,0,.06l.05.06s0,0,0,0,0,0,0,.05l0,0,0,.05.06,0,.06,0,.06,0,.06,0,.07,0,.06,0,.07,0,.07,0,.07,0h.61l.06,0h0l.09,0,.07,0,.06,0,.06,0,.06,0,.06,0,.06,0,.06,0,0,0s0,0,.05,0l0-.06,0,0a.21.21,0,0,1,0-.06l0-.06,0-.06,0-.06,0-.06,0-.07a.19.19,0,0,1,0-.07s0,0,0-.06a.64.64,0,0,1,0-.07s0,0,0-.07a.22.22,0,0,0,0-.08.15.15,0,0,0,0-.07v-.19a390566846086,390566846086,0,0,0,0-.14s0-.05,0-.07,0,0,0-.06h0v0l0-.1s0,0,0-.06l0-.07,0-.06,0-.06,0-.06,0-.06,0,0,0-.06s0,0,0-.05l-.06,0,0,0-.06,0-.06,0-.06,0-.06,0-.07,0-.06,0-.07,0-.07,0-.07,0h-.31Zm0,0"/><path class="cls-14" d="M88.84,50.83h-.3l-.07,0h0l-.09,0-.06,0-.07,0-.06,0-.06,0-.06,0-.06,0-.06.05,0,0s0,0-.05.05l0,0,0,0,0,.06,0,.06,0,.06,0,.06,0,.07a.14.14,0,0,0,0,.06l0,.07s0,0,0,.07a.64.64,0,0,0,0,.07s0,0,0,.07,0,0,0,.07,0,0,0,.07v.19s0,0,0,.07,0,0,0,.07a.14.14,0,0,0,0,.07.2.2,0,0,0,0,.07h0v0l0,.09,0,.07s0,0,0,.06l0,.06,0,.06,0,.06a.21.21,0,0,1,0,.06l.05.06s0,0,0,0,0,0,0,.05l0,0,0,.05.06,0,.06,0,.06,0,.06,0,.07,0,.06,0,.07,0,.07,0,.07,0h.61l.06,0h0l.09,0,.07,0,.06,0,.06,0,.06,0,.06,0,.06,0,.06,0,0,0s0,0,.05,0l0-.06,0,0a.21.21,0,0,1,0-.06l0-.06,0-.06,0-.06,0-.06,0-.07a.19.19,0,0,1,0-.07s0,0,0-.06a.64.64,0,0,1,0-.07s0,0,0-.07a.22.22,0,0,0,0-.08.15.15,0,0,0,0-.07v-.19a390566846086,390566846086,0,0,0,0-.14s0-.05,0-.07,0,0,0-.06h0v0l0-.1s0,0,0-.06l0-.07,0-.06,0-.06,0-.06,0-.06,0,0,0-.06s0,0,0-.05l-.06,0,0,0-.06,0-.06,0-.06,0-.06,0-.07,0-.06,0-.07,0-.07,0-.07,0h-.31Zm0,0"/><path class="cls-14" d="M88.84,50.83h-.3l-.07,0h0l-.09,0-.06,0-.07,0-.06,0-.06,0-.06,0-.06,0-.06.05,0,0s0,0-.05.05l0,0,0,0,0,.06,0,.06,0,.06,0,.06,0,.07a.14.14,0,0,0,0,.06l0,.07s0,0,0,.07a.64.64,0,0,0,0,.07s0,0,0,.07,0,0,0,.07,0,0,0,.07v.19s0,0,0,.07,0,0,0,.07a.14.14,0,0,0,0,.07.2.2,0,0,0,0,.07h0v0l0,.09,0,.07s0,0,0,.06l0,.06,0,.06,0,.06a.21.21,0,0,1,0,.06l.05.06s0,0,0,0,0,0,0,.05l0,0,0,.05.06,0,.06,0,.06,0,.06,0,.07,0,.06,0,.07,0,.07,0,.07,0h.61l.06,0h0l.09,0,.07,0,.06,0,.06,0,.06,0,.06,0,.06,0,.06,0,0,0s0,0,.05,0l0-.06,0,0a.21.21,0,0,1,0-.06l0-.06,0-.06,0-.06,0-.06,0-.07a.19.19,0,0,1,0-.07s0,0,0-.06a.64.64,0,0,1,0-.07s0,0,0-.07a.22.22,0,0,0,0-.08.15.15,0,0,0,0-.07v-.19a390566846086,390566846086,0,0,0,0-.14s0-.05,0-.07,0,0,0-.06h0v0l0-.1s0,0,0-.06l0-.07,0-.06,0-.06,0-.06,0-.06,0,0,0-.06s0,0,0-.05l-.06,0,0,0-.06,0-.06,0-.06,0-.06,0-.07,0-.06,0-.07,0-.07,0-.07,0h-.31Zm0,0"/><path class="cls-14" d="M88.84,50.83h-.3l-.07,0h0l-.09,0-.06,0-.07,0-.06,0-.06,0-.06,0-.06,0-.06.05,0,0s0,0-.05.05l0,0,0,0,0,.06,0,.06,0,.06,0,.06,0,.07a.14.14,0,0,0,0,.06l0,.07s0,0,0,.07a.64.64,0,0,0,0,.07s0,0,0,.07,0,0,0,.07,0,0,0,.07v.19s0,0,0,.07,0,0,0,.07a.14.14,0,0,0,0,.07.2.2,0,0,0,0,.07h0v0l0,.09,0,.07s0,0,0,.06l0,.06,0,.06,0,.06a.21.21,0,0,1,0,.06l.05.06s0,0,0,0,0,0,0,.05l0,0,0,.05.06,0,.06,0,.06,0,.06,0,.07,0,.06,0,.07,0,.07,0,.07,0h.71l.09,0,.07,0,.06,0,.06,0,.06,0,.06,0,.06,0,.06,0,0-.05.05,0,0,0,0-.06a.1.1,0,0,1,0,0l0-.06,0-.06,0-.07,0-.06,0-.07a.25.25,0,0,1,0-.07s0,0,0-.06a.64.64,0,0,1,0-.07s0,0,0-.07a350163379252.65,350163379252.65,0,0,0,0-.14v-.19a.22.22,0,0,0,0-.08.2.2,0,0,0,0-.07s0,0,0-.07,0,0,0-.06h0v0l0-.09a.64.64,0,0,0,0-.07l0-.07,0-.06,0-.06,0-.06,0-.06,0,0,0-.06a.12.12,0,0,1,0-.05l-.06,0,0,0-.06,0-.06,0-.06,0-.06,0-.07,0-.06,0-.07,0h-.07l-.07,0-.07,0h-.24Zm0,0"/><path class="cls-14" d="M88.84,50.83h-.3l-.07,0h0l-.09,0-.06,0-.07,0-.06,0-.06,0-.06,0-.06,0-.06.05,0,0s0,0-.05.05l0,0,0,0,0,.06,0,.06,0,.06,0,.06,0,.07a.14.14,0,0,0,0,.06l0,.07s0,0,0,.07a.64.64,0,0,0,0,.07s0,0,0,.07,0,0,0,.07,0,0,0,.07v.19s0,0,0,.07,0,0,0,.07a.14.14,0,0,0,0,.07.2.2,0,0,0,0,.07h0v0l0,.09,0,.07s0,0,0,.06l0,.06,0,.06,0,.06a.21.21,0,0,1,0,.06l.05.06s0,0,0,0,0,0,0,.05l0,0,0,.05.06,0,.06,0,.06,0,.06,0,.07,0,.06,0,.07,0,.07,0,.07,0h.61l.06,0h0l.09,0,.07,0,.06,0,.06,0,.06,0,.06,0,.06,0,.06,0,0,0s0,0,.05,0l0-.06,0,0a.21.21,0,0,1,0-.06l0-.06,0-.06,0-.06,0-.06,0-.07a.19.19,0,0,1,0-.07s0,0,0-.06a.64.64,0,0,1,0-.07s0,0,0-.07a.22.22,0,0,0,0-.08.15.15,0,0,0,0-.07v-.19a390566846086,390566846086,0,0,0,0-.14s0-.05,0-.07,0,0,0-.06h0v0l0-.1s0,0,0-.06l0-.07,0-.06,0-.06,0-.06,0-.06,0,0,0-.06s0,0,0-.05l-.06,0,0,0-.06,0-.06,0-.06,0-.06,0-.07,0-.06,0-.07,0-.07,0-.07,0h-.31Zm0,0"/><path class="cls-14" d="M88.84,50.83h-.3l-.07,0h0l-.09,0-.06,0-.07,0-.06,0-.06,0-.06,0-.06,0-.06.05,0,0s0,0-.05.05l0,0,0,0,0,.06,0,.06,0,.06,0,.06,0,.07a.14.14,0,0,0,0,.06l0,.07s0,0,0,.07a.64.64,0,0,0,0,.07s0,0,0,.07,0,0,0,.07,0,0,0,.07v.19s0,0,0,.07,0,0,0,.07a.14.14,0,0,0,0,.07.2.2,0,0,0,0,.07h0v0l0,.09,0,.07s0,0,0,.06l0,.06,0,.06,0,.06a.21.21,0,0,1,0,.06l.05.06s0,0,0,0,0,0,0,.05l0,0,0,.05.06,0,.06,0,.06,0,.06,0,.07,0,.06,0,.07,0,.07,0,.07,0h.61l.06,0h0l.09,0,.07,0,.06,0,.06,0,.06,0,.06,0,.06,0,.06,0,0,0s0,0,.05,0l0-.06,0,0a.21.21,0,0,1,0-.06l0-.06,0-.06,0-.06,0-.06,0-.07a.19.19,0,0,1,0-.07s0,0,0-.06a.64.64,0,0,1,0-.07s0,0,0-.07a.22.22,0,0,0,0-.08.15.15,0,0,0,0-.07v-.19a390566846086,390566846086,0,0,0,0-.14s0-.05,0-.07,0,0,0-.06h0v0l0-.1s0,0,0-.06l0-.07,0-.06,0-.06,0-.06,0-.06,0,0,0-.06s0,0,0-.05l-.06,0,0,0-.06,0-.06,0-.06,0-.06,0-.07,0-.06,0-.07,0-.07,0-.07,0h-.31Zm0,0"/><path class="cls-14" d="M88.84,50.83h-.3l-.07,0h0l-.09,0-.06,0-.07,0-.06,0-.06,0-.06,0-.06,0-.06.05,0,0s0,0-.05.05l0,0,0,0,0,.06,0,.06,0,.06,0,.06,0,.07a.14.14,0,0,0,0,.06l0,.07s0,0,0,.07a.64.64,0,0,0,0,.07s0,0,0,.07,0,0,0,.07,0,0,0,.07v.19s0,0,0,.07,0,0,0,.07a.14.14,0,0,0,0,.07.2.2,0,0,0,0,.07h0v0l0,.09,0,.07s0,0,0,.06l0,.06,0,.06,0,.06a.21.21,0,0,1,0,.06l.05.06s0,0,0,0,0,0,0,.05l0,0,0,.05.06,0,.06,0,.06,0,.06,0,.07,0,.06,0,.07,0,.07,0,.07,0h.61l.06,0h0l.09,0,.07,0,.06,0,.06,0,.06,0,.06,0,.06,0,.06,0,0,0s0,0,.05,0l0-.06,0,0a.21.21,0,0,1,0-.06l0-.06,0-.06,0-.06,0-.06,0-.07a.19.19,0,0,1,0-.07s0,0,0-.06a.64.64,0,0,1,0-.07s0,0,0-.07a.22.22,0,0,0,0-.08.15.15,0,0,0,0-.07v-.19a390566846086,390566846086,0,0,0,0-.14s0-.05,0-.07,0,0,0-.06h0v0l0-.1s0,0,0-.06l0-.07,0-.06,0-.06,0-.06,0-.06,0,0,0-.06s0,0,0-.05l-.06,0,0,0-.06,0-.06,0-.06,0-.06,0-.07,0-.06,0-.07,0-.07,0-.07,0h-.31Zm0,0"/><path class="cls-14" d="M88.84,50.83h-.3l-.07,0h0l-.09,0-.06,0-.07,0-.06,0-.06,0-.06,0-.06,0-.06.05,0,0s0,0-.05.05l0,0,0,0,0,.06,0,.06,0,.06,0,.06,0,.07a.14.14,0,0,0,0,.06l0,.07s0,0,0,.07a.64.64,0,0,0,0,.07s0,0,0,.07,0,0,0,.07,0,0,0,.07v.19s0,0,0,.07,0,0,0,.07a.14.14,0,0,0,0,.07.2.2,0,0,0,0,.07h0v0l0,.09,0,.07s0,0,0,.06l0,.06,0,.06,0,.06a.21.21,0,0,1,0,.06l.05.06s0,0,0,0,0,0,0,.05l0,0,0,.05.06,0,.06,0,.06,0,.06,0,.07,0,.06,0,.07,0,.07,0,.07,0h.61l.06,0h0l.09,0,.07,0,.06,0,.06,0,.06,0,.06,0,.06,0,.06,0,0,0s0,0,.05,0l0-.06,0,0a.21.21,0,0,1,0-.06l0-.06,0-.06,0-.06,0-.06,0-.07a.19.19,0,0,1,0-.07s0,0,0-.06a.64.64,0,0,1,0-.07s0,0,0-.07a.22.22,0,0,0,0-.08.15.15,0,0,0,0-.07v-.19a390566846086,390566846086,0,0,0,0-.14s0-.05,0-.07,0,0,0-.06h0v0l0-.1s0,0,0-.06l0-.07,0-.06,0-.06,0-.06,0-.06,0,0,0-.06s0,0,0-.05l-.06,0,0,0-.06,0-.06,0-.06,0-.06,0-.07,0-.06,0-.07,0-.07,0-.07,0h-.31Zm0,0"/><path class="cls-14" d="M88.84,50.83h-.3l-.07,0h0l-.09,0-.06,0-.07,0-.06,0-.06,0-.06,0-.06,0-.06.05,0,0s0,0-.05.05l0,0,0,0,0,.06,0,.06,0,.06,0,.06,0,.07a.14.14,0,0,0,0,.06l0,.07s0,0,0,.07a.64.64,0,0,0,0,.07s0,0,0,.07,0,0,0,.07,0,0,0,.07v.19s0,0,0,.07,0,0,0,.07a.14.14,0,0,0,0,.07.2.2,0,0,0,0,.07h0v0l0,.09,0,.07s0,0,0,.06l0,.06,0,.06,0,.06a.21.21,0,0,1,0,.06l.05.06s0,0,0,0,0,0,0,.05l0,0,0,.05.06,0,.06,0,.06,0,.06,0,.07,0,.06,0,.07,0,.07,0,.07,0h.61l.06,0h0l.09,0,.07,0,.06,0,.06,0,.06,0,.06,0,.06,0,.06,0,0,0s0,0,.05,0l0-.06,0,0a.21.21,0,0,1,0-.06l0-.06,0-.06,0-.06,0-.06,0-.07a.19.19,0,0,1,0-.07s0,0,0-.06a.64.64,0,0,1,0-.07s0,0,0-.07a.22.22,0,0,0,0-.08.15.15,0,0,0,0-.07v-.19a390566846086,390566846086,0,0,0,0-.14s0-.05,0-.07,0,0,0-.06h0v0l0-.1s0,0,0-.06l0-.07,0-.06,0-.06,0-.06,0-.06,0,0,0-.06s0,0,0-.05l-.06,0,0,0-.06,0-.06,0-.06,0-.06,0-.07,0-.06,0-.07,0-.07,0-.07,0h-.31Zm0,0"/><path class="cls-14" d="M88.84,50.83h-.3l-.07,0h0l-.09,0-.06,0-.07,0-.06,0-.06,0-.06,0-.06,0-.06.05,0,0s0,0-.05.05l0,0,0,0,0,.06,0,.06,0,.06,0,.06,0,.07a.14.14,0,0,0,0,.06l0,.07s0,0,0,.07a.64.64,0,0,0,0,.07s0,0,0,.07,0,0,0,.07,0,0,0,.07v.19s0,0,0,.07,0,0,0,.07a.14.14,0,0,0,0,.07.2.2,0,0,0,0,.07h0v0l0,.09,0,.07s0,0,0,.06l0,.06,0,.06,0,.06a.21.21,0,0,1,0,.06l.05.06s0,0,0,0,0,0,0,.05l0,0,0,.05.06,0,.06,0,.06,0,.06,0,.07,0,.06,0,.07,0,.07,0,.07,0h.61l.06,0h0l.09,0,.07,0,.06,0,.06,0,.06,0,.06,0,.06,0,.06,0,0,0s0,0,.05,0l0-.06,0,0a.21.21,0,0,1,0-.06l0-.06,0-.06,0-.06,0-.06,0-.07a.19.19,0,0,1,0-.07s0,0,0-.06a.64.64,0,0,1,0-.07s0,0,0-.07a.22.22,0,0,0,0-.08.15.15,0,0,0,0-.07v-.19a390566846086,390566846086,0,0,0,0-.14s0-.05,0-.07,0,0,0-.06h0v0l0-.1s0,0,0-.06l0-.07,0-.06,0-.06,0-.06,0-.06,0,0,0-.06s0,0,0-.05l-.06,0,0,0-.06,0-.06,0-.06,0-.06,0-.07,0-.06,0-.07,0-.07,0-.07,0h-.31Zm0,0"/><path class="cls-14" d="M88.84,50.83h-.3l-.07,0h0l-.09,0-.06,0-.07,0-.06,0-.06,0-.06,0-.06,0-.06.05,0,0s0,0-.05.05l0,0,0,0,0,.06,0,.06,0,.06,0,.06,0,.07a.14.14,0,0,0,0,.06l0,.07s0,0,0,.07a.64.64,0,0,0,0,.07s0,0,0,.07,0,0,0,.07,0,0,0,.07v.19s0,0,0,.07,0,0,0,.07a.14.14,0,0,0,0,.07.2.2,0,0,0,0,.07h0v0l0,.09,0,.07s0,0,0,.06l0,.06,0,.06,0,.06a.21.21,0,0,1,0,.06l.05.06s0,0,0,0,0,0,0,.05l0,0,0,.05.06,0,.06,0,.06,0,.06,0,.07,0,.06,0,.07,0,.07,0,.07,0h.61l.06,0h0l.09,0,.07,0,.06,0,.06,0,.06,0,.06,0,.06,0,.06,0,0,0s0,0,.05,0l0-.06,0,0a.21.21,0,0,1,0-.06l0-.06,0-.06,0-.06,0-.06,0-.07a.19.19,0,0,1,0-.07s0,0,0-.06a.64.64,0,0,1,0-.07s0,0,0-.07a.22.22,0,0,0,0-.08.15.15,0,0,0,0-.07v-.19a390566846086,390566846086,0,0,0,0-.14s0-.05,0-.07,0,0,0-.06h0v0l0-.1s0,0,0-.06l0-.07,0-.06,0-.06,0-.06,0-.06,0,0,0-.06s0,0,0-.05l-.06,0,0,0-.06,0-.06,0-.06,0-.06,0-.07,0-.06,0-.07,0-.07,0-.07,0h-.31Zm0,0"/><path class="cls-14" d="M88.84,50.83h-.3l-.07,0h0l-.09,0-.06,0-.07,0-.06,0-.06,0-.06,0-.06,0-.06.05,0,0s0,0-.05.05l0,0,0,0,0,.06,0,.06,0,.06,0,.06,0,.07a.14.14,0,0,0,0,.06l0,.07s0,0,0,.07a.64.64,0,0,0,0,.07s0,0,0,.07,0,0,0,.07,0,0,0,.07v.19s0,0,0,.07,0,0,0,.07a.14.14,0,0,0,0,.07.2.2,0,0,0,0,.07h0v0l0,.09,0,.07s0,0,0,.06l0,.06,0,.06,0,.06a.21.21,0,0,1,0,.06l.05.06s0,0,0,0,0,0,0,.05l0,0,0,.05.06,0,.06,0,.06,0,.06,0,.07,0,.06,0,.07,0,.07,0,.07,0h.61l.06,0h0l.09,0,.07,0,.06,0,.06,0,.06,0,.06,0,.06,0,.06,0,0,0s0,0,.05,0l0-.06,0,0a.21.21,0,0,1,0-.06l0-.06,0-.06,0-.06,0-.06,0-.07a.19.19,0,0,1,0-.07s0,0,0-.06a.64.64,0,0,1,0-.07s0,0,0-.07a.22.22,0,0,0,0-.08.15.15,0,0,0,0-.07v-.19a390566846086,390566846086,0,0,0,0-.14s0-.05,0-.07,0,0,0-.06h0v0l0-.1s0,0,0-.06l0-.07,0-.06,0-.06,0-.06,0-.06,0,0,0-.06s0,0,0-.05l-.06,0,0,0-.06,0-.06,0-.06,0-.06,0-.07,0-.06,0-.07,0-.07,0-.07,0h-.31Zm0,0"/><path class="cls-14" d="M88.84,50.83h-.3l-.07,0h0l-.09,0-.06,0-.07,0-.06,0-.06,0-.06,0-.06,0-.06.05,0,0s0,0-.05.05l0,0,0,0,0,.06,0,.06,0,.06,0,.06,0,.07a.14.14,0,0,0,0,.06l0,.07s0,0,0,.07a.64.64,0,0,0,0,.07s0,0,0,.07,0,0,0,.07,0,0,0,.07v.19s0,0,0,.07,0,0,0,.07a.14.14,0,0,0,0,.07.2.2,0,0,0,0,.07h0v0l0,.09,0,.07s0,0,0,.06l0,.06,0,.06,0,.06a.21.21,0,0,1,0,.06l.05.06s0,0,0,0,0,0,0,.05l0,0,0,.05.06,0,.06,0,.06,0,.06,0,.07,0,.06,0,.07,0,.07,0,.07,0h.61l.06,0h0l.09,0,.07,0,.06,0,.06,0,.06,0,.06,0,.06,0,.06,0,0,0s0,0,.05,0l0-.06,0,0a.21.21,0,0,1,0-.06l0-.06,0-.06,0-.06,0-.06,0-.07a.19.19,0,0,1,0-.07s0,0,0-.06a.64.64,0,0,1,0-.07s0,0,0-.07a.22.22,0,0,0,0-.08.15.15,0,0,0,0-.07v-.19a390566846086,390566846086,0,0,0,0-.14s0-.05,0-.07,0,0,0-.06h0v0l0-.1s0,0,0-.06l0-.07,0-.06,0-.06,0-.06,0-.06,0,0,0-.06s0,0,0-.05l-.06,0,0,0-.06,0-.06,0-.06,0-.06,0-.07,0-.06,0-.07,0-.07,0-.07,0h-.31Zm0,0"/><path class="cls-14" d="M88.84,50.83h-.3l-.07,0h0l-.09,0-.06,0-.07,0-.06,0-.06,0-.06,0-.06,0-.06.05,0,0s0,0-.05.05l0,0,0,0,0,.06,0,.06,0,.06,0,.06,0,.07a.14.14,0,0,0,0,.06l0,.07s0,0,0,.07a.64.64,0,0,0,0,.07s0,0,0,.07,0,0,0,.07,0,0,0,.07v.19s0,0,0,.07,0,0,0,.07a.14.14,0,0,0,0,.07.2.2,0,0,0,0,.07h0v0l0,.09,0,.07s0,0,0,.06l0,.06,0,.06,0,.06a.21.21,0,0,1,0,.06l.05.06s0,0,0,0,0,0,0,.05l0,0,0,.05.06,0,.06,0,.06,0,.06,0,.07,0,.06,0,.07,0,.07,0,.07,0h.71l.09,0,.07,0,.06,0,.06,0,.06,0,.06,0,.06,0,.06,0,0-.05.05,0,0,0,0-.06a.1.1,0,0,1,0,0l0-.06,0-.06,0-.07,0-.06,0-.07a.25.25,0,0,1,0-.07s0,0,0-.06a.64.64,0,0,1,0-.07s0,0,0-.07a350163379252.65,350163379252.65,0,0,0,0-.14v-.19a.22.22,0,0,0,0-.08.2.2,0,0,0,0-.07s0,0,0-.07,0,0,0-.06h0v0l0-.09a.64.64,0,0,0,0-.07l0-.07,0-.06,0-.06,0-.06,0-.06,0,0,0-.06a.12.12,0,0,1,0-.05l-.06,0,0,0-.06,0-.06,0-.06,0-.06,0-.07,0-.06,0-.07,0h-.07l-.07,0-.07,0h-.24Zm0,0"/><path class="cls-14" d="M88.84,50.83h-.3l-.07,0h0l-.09,0-.06,0-.07,0-.06,0-.06,0-.06,0-.06,0-.06.05,0,0s0,0-.05.05l0,0,0,0,0,.06,0,.06,0,.06,0,.06,0,.07a.14.14,0,0,0,0,.06l0,.07s0,0,0,.07a.64.64,0,0,0,0,.07s0,0,0,.07,0,0,0,.07,0,0,0,.07v.19s0,0,0,.07,0,0,0,.07a.14.14,0,0,0,0,.07.2.2,0,0,0,0,.07h0v0l0,.09,0,.07s0,0,0,.06l0,.06,0,.06,0,.06a.21.21,0,0,1,0,.06l.05.06s0,0,0,0,0,0,0,.05l0,0,0,.05.06,0,.06,0,.06,0,.06,0,.07,0,.06,0,.07,0,.07,0,.07,0h.61l.06,0h0l.09,0,.07,0,.06,0,.06,0,.06,0,.06,0,.06,0,.06,0,0,0s0,0,.05,0l0-.06,0,0a.21.21,0,0,1,0-.06l0-.06,0-.06,0-.06,0-.06,0-.07a.19.19,0,0,1,0-.07s0,0,0-.06a.64.64,0,0,1,0-.07s0,0,0-.07a.22.22,0,0,0,0-.08.15.15,0,0,0,0-.07v-.19a390566846086,390566846086,0,0,0,0-.14s0-.05,0-.07,0,0,0-.06h0v0l0-.1s0,0,0-.06l0-.07,0-.06,0-.06,0-.06,0-.06,0,0,0-.06s0,0,0-.05l-.06,0,0,0-.06,0-.06,0-.06,0-.06,0-.07,0-.06,0-.07,0-.07,0-.07,0h-.31Zm0,0"/><path class="cls-14" d="M88.84,50.83h-.3l-.07,0h0l-.09,0-.06,0-.07,0-.06,0-.06,0-.06,0-.06,0-.06.05,0,0s0,0-.05.05l0,0,0,0,0,.06,0,.06,0,.06,0,.06,0,.07a.14.14,0,0,0,0,.06l0,.07s0,0,0,.07a.64.64,0,0,0,0,.07s0,0,0,.07,0,0,0,.07,0,0,0,.07v.19s0,0,0,.07,0,0,0,.07a.14.14,0,0,0,0,.07.2.2,0,0,0,0,.07h0v0l0,.09,0,.07s0,0,0,.06l0,.06,0,.06,0,.06a.21.21,0,0,1,0,.06l.05.06s0,0,0,0,0,0,0,.05l0,0,0,.05.06,0,.06,0,.06,0,.06,0,.07,0,.06,0,.07,0,.07,0,.07,0h.61l.06,0h0l.09,0,.07,0,.06,0,.06,0,.06,0,.06,0,.06,0,.06,0,0,0s0,0,.05,0l0-.06,0,0a.21.21,0,0,1,0-.06l0-.06,0-.06,0-.06,0-.06,0-.07a.19.19,0,0,1,0-.07s0,0,0-.06a.64.64,0,0,1,0-.07s0,0,0-.07a.22.22,0,0,0,0-.08.15.15,0,0,0,0-.07v-.19a390566846086,390566846086,0,0,0,0-.14s0-.05,0-.07,0,0,0-.06h0v0l0-.1s0,0,0-.06l0-.07,0-.06,0-.06,0-.06,0-.06,0,0,0-.06s0,0,0-.05l-.06,0,0,0-.06,0-.06,0-.06,0-.06,0-.07,0-.06,0-.07,0-.07,0-.07,0h-.31Zm0,0"/><path class="cls-14" d="M88.84,50.83h-.3l-.07,0h0l-.09,0-.06,0-.07,0-.06,0-.06,0-.06,0-.06,0-.06.05,0,0s0,0-.05.05l0,0,0,0,0,.06,0,.06,0,.06,0,.06,0,.07a.14.14,0,0,0,0,.06l0,.07s0,0,0,.07a.64.64,0,0,0,0,.07s0,0,0,.07,0,0,0,.07,0,0,0,.07v.19s0,0,0,.07,0,0,0,.07a.14.14,0,0,0,0,.07.2.2,0,0,0,0,.07h0v0l0,.09,0,.07s0,0,0,.06l0,.06,0,.06,0,.06a.21.21,0,0,1,0,.06l.05.06s0,0,0,0,0,0,0,.05l0,0,0,.05.06,0,.06,0,.06,0,.06,0,.07,0,.06,0,.07,0,.07,0,.07,0h.61l.06,0h0l.09,0,.07,0,.06,0,.06,0,.06,0,.06,0,.06,0,.06,0,0,0s0,0,.05,0l0-.06,0,0a.21.21,0,0,1,0-.06l0-.06,0-.06,0-.06,0-.06,0-.07a.19.19,0,0,1,0-.07s0,0,0-.06a.64.64,0,0,1,0-.07s0,0,0-.07a.22.22,0,0,0,0-.08.15.15,0,0,0,0-.07v-.19a390566846086,390566846086,0,0,0,0-.14s0-.05,0-.07,0,0,0-.06h0v0l0-.1s0,0,0-.06l0-.07,0-.06,0-.06,0-.06,0-.06,0,0,0-.06s0,0,0-.05l-.06,0,0,0-.06,0-.06,0-.06,0-.06,0-.07,0-.06,0-.07,0-.07,0-.07,0h-.31Zm0,0"/><path class="cls-14" d="M88.84,50.83h-.3l-.07,0h0l-.09,0-.06,0-.07,0-.06,0-.06,0-.06,0-.06,0-.06.05,0,0s0,0-.05.05l0,0,0,0,0,.06,0,.06,0,.06,0,.06,0,.07a.14.14,0,0,0,0,.06l0,.07s0,0,0,.07a.64.64,0,0,0,0,.07s0,0,0,.07,0,0,0,.07,0,0,0,.07v.19s0,0,0,.07,0,0,0,.07a.14.14,0,0,0,0,.07.2.2,0,0,0,0,.07h0v0l0,.09,0,.07s0,0,0,.06l0,.06,0,.06,0,.06a.21.21,0,0,1,0,.06l.05.06s0,0,0,0,0,0,0,.05l0,0,0,.05.06,0,.06,0,.06,0,.06,0,.07,0,.06,0,.07,0,.07,0,.07,0h.61l.06,0h0l.09,0,.07,0,.06,0,.06,0,.06,0,.06,0,.06,0,.06,0,0,0s0,0,.05,0l0-.06,0,0a.21.21,0,0,1,0-.06l0-.06,0-.06,0-.06,0-.06,0-.07a.19.19,0,0,1,0-.07s0,0,0-.06a.64.64,0,0,1,0-.07s0,0,0-.07a.22.22,0,0,0,0-.08.15.15,0,0,0,0-.07v-.19a390566846086,390566846086,0,0,0,0-.14s0-.05,0-.07,0,0,0-.06h0v0l0-.1s0,0,0-.06l0-.07,0-.06,0-.06,0-.06,0-.06,0,0,0-.06s0,0,0-.05l-.06,0,0,0-.06,0-.06,0-.06,0-.06,0-.07,0-.06,0-.07,0-.07,0-.07,0h-.31Zm0,0"/><path class="cls-14" d="M88.84,50.83h-.3l-.07,0h0l-.09,0-.06,0-.07,0-.06,0-.06,0-.06,0-.06,0-.06.05,0,0s0,0-.05.05l0,0,0,0,0,.06,0,.06,0,.06,0,.06,0,.07a.14.14,0,0,0,0,.06l0,.07s0,0,0,.07a.64.64,0,0,0,0,.07s0,0,0,.07,0,0,0,.07,0,0,0,.07v.19s0,0,0,.07,0,0,0,.07a.14.14,0,0,0,0,.07.2.2,0,0,0,0,.07h0v0l0,.09,0,.07s0,0,0,.06l0,.06,0,.06,0,.06a.21.21,0,0,1,0,.06l.05.06s0,0,0,0,0,0,0,.05l0,0,0,.05.06,0,.06,0,.06,0,.06,0,.07,0,.06,0,.07,0,.07,0,.07,0h.61l.06,0h0l.09,0,.07,0,.06,0,.06,0,.06,0,.06,0,.06,0,.06,0,0,0s0,0,.05,0l0-.06,0,0a.21.21,0,0,1,0-.06l0-.06,0-.06,0-.06,0-.06,0-.07a.19.19,0,0,1,0-.07s0,0,0-.06a.64.64,0,0,1,0-.07s0,0,0-.07a.22.22,0,0,0,0-.08.15.15,0,0,0,0-.07v-.19a390566846086,390566846086,0,0,0,0-.14s0-.05,0-.07,0,0,0-.06h0v0l0-.1s0,0,0-.06l0-.07,0-.06,0-.06,0-.06,0-.06,0,0,0-.06s0,0,0-.05l-.06,0,0,0-.06,0-.06,0-.06,0-.06,0-.07,0-.06,0-.07,0-.07,0-.07,0h-.31Zm0,0"/><path class="cls-14" d="M88.84,50.83h-.3l-.07,0h0l-.09,0-.06,0-.07,0-.06,0-.06,0-.06,0-.06,0-.06.05,0,0s0,0-.05.05l0,0,0,0,0,.06,0,.06,0,.06,0,.06,0,.07a.14.14,0,0,0,0,.06l0,.07s0,0,0,.07a.64.64,0,0,0,0,.07s0,0,0,.07,0,0,0,.07,0,0,0,.07v.19s0,0,0,.07,0,0,0,.07a.14.14,0,0,0,0,.07.2.2,0,0,0,0,.07h0v0l0,.09,0,.07s0,0,0,.06l0,.06,0,.06,0,.06a.21.21,0,0,1,0,.06l.05.06s0,0,0,0,0,0,0,.05l0,0,0,.05.06,0,.06,0,.06,0,.06,0,.07,0,.06,0,.07,0,.07,0,.07,0h.61l.06,0h0l.09,0,.07,0,.06,0,.06,0,.06,0,.06,0,.06,0,.06,0,0,0s0,0,.05,0l0-.06,0,0a.21.21,0,0,1,0-.06l0-.06,0-.06,0-.06,0-.06,0-.07a.19.19,0,0,1,0-.07s0,0,0-.06a.64.64,0,0,1,0-.07s0,0,0-.07a.22.22,0,0,0,0-.08.15.15,0,0,0,0-.07v-.19a390566846086,390566846086,0,0,0,0-.14s0-.05,0-.07,0,0,0-.06h0v0l0-.1s0,0,0-.06l0-.07,0-.06,0-.06,0-.06,0-.06,0,0,0-.06s0,0,0-.05l-.06,0,0,0-.06,0-.06,0-.06,0-.06,0-.07,0-.06,0-.07,0-.07,0-.07,0h-.31Zm0,0"/><path class="cls-14" d="M88.84,50.83h-.3l-.07,0h0l-.09,0-.06,0-.07,0-.06,0-.06,0-.06,0-.06,0-.06.05,0,0s0,0-.05.05l0,0,0,0,0,.06,0,.06,0,.06,0,.06,0,.07a.14.14,0,0,0,0,.06l0,.07s0,0,0,.07a.64.64,0,0,0,0,.07s0,0,0,.07,0,0,0,.07,0,0,0,.07v.19s0,0,0,.07,0,0,0,.07a.14.14,0,0,0,0,.07.2.2,0,0,0,0,.07h0v0l0,.09,0,.07s0,0,0,.06l0,.06,0,.06,0,.06a.21.21,0,0,1,0,.06l.05.06s0,0,0,0,0,0,0,.05l0,0,0,.05.06,0,.06,0,.06,0,.06,0,.07,0,.06,0,.07,0,.07,0,.07,0h.61l.06,0h0l.09,0,.07,0,.06,0,.06,0,.06,0,.06,0,.06,0,.06,0,0,0s0,0,.05,0l0-.06,0,0a.21.21,0,0,1,0-.06l0-.06,0-.06,0-.06,0-.06,0-.07a.19.19,0,0,1,0-.07s0,0,0-.06a.64.64,0,0,1,0-.07s0,0,0-.07a.22.22,0,0,0,0-.08.15.15,0,0,0,0-.07v-.19a390566846086,390566846086,0,0,0,0-.14s0-.05,0-.07,0,0,0-.06h0v0l0-.1s0,0,0-.06l0-.07,0-.06,0-.06,0-.06,0-.06,0,0,0-.06s0,0,0-.05l-.06,0,0,0-.06,0-.06,0-.06,0-.06,0-.07,0-.06,0-.07,0-.07,0-.07,0h-.31Zm0,0"/><path class="cls-14" d="M88.84,50.83h-.3l-.07,0h0l-.09,0-.06,0-.07,0-.06,0-.06,0-.06,0-.06,0-.06.05,0,0s0,0-.05.05l0,0,0,0,0,.06,0,.06,0,.06,0,.06,0,.07a.14.14,0,0,0,0,.06l0,.07s0,0,0,.07a.64.64,0,0,0,0,.07s0,0,0,.07,0,0,0,.07,0,0,0,.07v.19s0,0,0,.07,0,0,0,.07a.14.14,0,0,0,0,.07.2.2,0,0,0,0,.07h0v0l0,.09,0,.07s0,0,0,.06l0,.06,0,.06,0,.06a.21.21,0,0,1,0,.06l.05.06s0,0,0,0,0,0,0,.05l0,0,0,.05.06,0,.06,0,.06,0,.06,0,.07,0,.06,0,.07,0,.07,0,.07,0h.61l.06,0h0l.09,0,.07,0,.06,0,.06,0,.06,0,.06,0,.06,0,.06,0,0,0s0,0,.05,0l0-.06,0,0a.21.21,0,0,1,0-.06l0-.06,0-.06,0-.06,0-.06,0-.07a.19.19,0,0,1,0-.07s0,0,0-.06a.64.64,0,0,1,0-.07s0,0,0-.07a.22.22,0,0,0,0-.08.15.15,0,0,0,0-.07v-.19a390566846086,390566846086,0,0,0,0-.14s0-.05,0-.07,0,0,0-.06h0v0l0-.1s0,0,0-.06l0-.07,0-.06,0-.06,0-.06,0-.06,0,0,0-.06s0,0,0-.05l-.06,0,0,0-.06,0-.06,0-.06,0-.06,0-.07,0-.06,0-.07,0-.07,0-.07,0h-.31Zm0,0"/><path class="cls-14" d="M88.84,50.83h-.3l-.07,0h0l-.09,0-.06,0-.07,0-.06,0-.06,0-.06,0-.06,0-.06.05,0,0s0,0-.05.05l0,0,0,0,0,.06,0,.06,0,.06,0,.06,0,.07a.14.14,0,0,0,0,.06l0,.07s0,0,0,.07a.64.64,0,0,0,0,.07s0,0,0,.07,0,0,0,.07,0,0,0,.07v.19s0,0,0,.07,0,0,0,.07a.14.14,0,0,0,0,.07.2.2,0,0,0,0,.07h0v0l0,.09,0,.07s0,0,0,.06l0,.06,0,.06,0,.06a.21.21,0,0,1,0,.06l.05.06s0,0,0,0,0,0,0,.05l0,0,0,.05.06,0,.06,0,.06,0,.06,0,.07,0,.06,0,.07,0,.07,0,.07,0h.61l.06,0h0l.09,0,.07,0,.06,0,.06,0,.06,0,.06,0,.06,0,.06,0,0,0s0,0,.05,0l0-.06,0,0a.21.21,0,0,1,0-.06l0-.06,0-.06,0-.06,0-.06,0-.07a.19.19,0,0,1,0-.07s0,0,0-.06a.64.64,0,0,1,0-.07s0,0,0-.07a.22.22,0,0,0,0-.08.15.15,0,0,0,0-.07v-.19a390566846086,390566846086,0,0,0,0-.14s0-.05,0-.07,0,0,0-.06h0v0l0-.1s0,0,0-.06l0-.07,0-.06,0-.06,0-.06,0-.06,0,0,0-.06s0,0,0-.05l-.06,0,0,0-.06,0-.06,0-.06,0-.06,0-.07,0-.06,0-.07,0-.07,0-.07,0h-.31Zm0,0"/><path class="cls-4" d="M88,88.08a9.77,9.77,0,0,1,9.79,9.79v4.9a9.79,9.79,0,1,1-19.57,0v-4.9A9.76,9.76,0,0,1,88,88.08Zm0,0"/><path class="cls-12" d="M93.65,95.1a3.16,3.16,0,1,1-3.16-3.16,3.13,3.13,0,0,1,3.16,3.16Zm0,0"/><path class="cls-4" d="M128.34,88.08a9.76,9.76,0,0,1,9.78,9.79v4.9a9.79,9.79,0,1,1-19.57,0v-4.9a9.77,9.77,0,0,1,9.79-9.79Zm0,0"/><path class="cls-12" d="M134,95.1a3.16,3.16,0,1,1-3.15-3.16A3.16,3.16,0,0,1,134,95.1Zm0,0"/><path class="cls-25" d="M93.87,118.08a3,3,0,0,0-3,3v3.36a17.26,17.26,0,0,0,34.51,0v-3.36a3,3,0,0,0-3-3Zm0,0"/><path class="cls-26" d="M108.14,129.85a17.24,17.24,0,0,0-13,5.91,17.26,17.26,0,0,0,26,0,17.24,17.24,0,0,0-13-5.91Zm0,0"/><path class="cls-12" d="M93.87,118.08a3,3,0,0,0-3,3v3a39.8,39.8,0,0,0,34.51,0v-3a3,3,0,0,0-3-3Zm0,0"/><path class="cls-27" d="M93.87,118.08a3,3,0,0,0-3,3v3a40.1,40.1,0,0,0,6,2.26c-1.18-.79-1.4-1.89-1.4-3.62v-4.62Zm0,0"/><path class="cls-27" d="M116.15,118.08v4.62c0,2.33-.6,4.34-2.6,4.88a40.18,40.18,0,0,0,11.85-3.51v-3a3,3,0,0,0-3-3Zm0,0"/><path class="cls-28" d="M122.42,118.08a3,3,0,0,1,3,3v3a40.1,40.1,0,0,1-6,2.26c1.18-.79,1.4-1.89,1.4-3.62v-4.62Zm0,0"/><path class="cls-4" d="M93.87,117.13a3.94,3.94,0,0,0-3.93,3.93v3.36a18.21,18.21,0,0,0,36.41,0v-3.36a3.94,3.94,0,0,0-3.93-3.93Zm0,1.9h28.55a2,2,0,0,1,2,2v3.36a16.31,16.31,0,0,1-32.61,0v-3.36a2,2,0,0,1,2-2Zm0,0"/><path class="cls-4" d="M90.73,123.51l-.42.85a40.69,40.69,0,0,0,35.67,0l-.42-.85a39.73,39.73,0,0,1-34.83,0Zm0,0"/><path class="cls-29" d="M106.24,134.5a1.8,1.8,0,0,1-.84,1.43,3.57,3.57,0,0,1-2,.59c-1.59,0-2.87-.9-2.87-2s1.28-2,2.87-2a3.65,3.65,0,0,1,2,.59,1.81,1.81,0,0,1,.84,1.43Zm0,0"/><path class="cls-4" d="M44,123.29V129a3.3,3.3,0,0,1,0,6.6v5.7a9,9,0,1,0,0-18Zm0,0"/><path class="cls-4" d="M31.71,111a21.3,21.3,0,0,0,0,42.6H44a9,9,0,0,0,0-18v5.7a3.3,3.3,0,0,1,0,6.6H31.71a15.6,15.6,0,0,1,0-31.2H44a3.3,3.3,0,0,1,0,6.6V129a9,9,0,0,0,0-18Zm0,0"/><path class="cls-4" d="M28.79,96.13a9,9,0,0,0-11,6.36l-3.19,11.88A9,9,0,0,0,32,119l3.18-11.88a9,9,0,0,0-6.36-11Zm-1.48,5.5a3.24,3.24,0,0,1,2.34,4l-3.19,11.88a3.3,3.3,0,1,1-6.37-1.7L23.27,104a3.24,3.24,0,0,1,4-2.34Zm0,0"/><path class="cls-5" d="M28.05,98.88a6.14,6.14,0,0,1,4.35,7.53l-3.18,11.88a6.15,6.15,0,1,1-11.88-3.18l3.18-11.88a6.14,6.14,0,0,1,7.53-4.35Zm0,0"/><path class="cls-4" d="M28.3,98a7.12,7.12,0,0,0-8.7,5l-3.18,11.88a7.1,7.1,0,1,0,13.71,3.68l3.19-11.88a7.12,7.12,0,0,0-5-8.7Zm-.5,1.84a5.17,5.17,0,0,1,3.68,6.37L28.3,118.05a5.2,5.2,0,0,1-10-2.7l3.19-11.88A5.17,5.17,0,0,1,27.8,99.8Zm0,0"/><path class="cls-12" d="M44,150.74a6.15,6.15,0,0,0,0-12.3,6.15,6.15,0,0,0,0-12.3,6.15,6.15,0,0,0,0-12.3H31.71a18.45,18.45,0,0,0,0,36.9Zm0,0"/><path class="cls-5" d="M40.66,113.84H31.71a18.45,18.45,0,0,0,0,36.9h8.95a18.45,18.45,0,0,1,0-36.9Zm0,0"/><path class="cls-4" d="M44,125.19v1.9a5.2,5.2,0,0,1,0,10.4v1.9a7.1,7.1,0,0,0,0-14.2Zm0,0"/><path class="cls-4" d="M31.71,112.89a19.4,19.4,0,0,0,0,38.8H44a7.1,7.1,0,0,0,0-14.2v1.9a5.2,5.2,0,0,1,0,10.4H31.71a17.5,17.5,0,0,1,0-35H44a5.2,5.2,0,0,1,0,10.4v1.9a7.1,7.1,0,0,0,0-14.2Zm0,0"/><rect class="cls-4" x="30.76" y="119.08" width="1.9" height="26.42"/><path class="cls-17" d="M150.56,0l29,0h16l0,16c0,7,0,14,0,21A29.09,29.09,0,0,1,150.56,0Z"/><text class="cls-30" transform="translate(159.61 31.75)">11</text></svg>