<svg id="Слой_1" data-name="Слой 1" xmlns="http://www.w3.org/2000/svg" xmlns:xlink="http://www.w3.org/1999/xlink" viewBox="0 0 195.59 280.63"><defs><style>.cls-1{fill:none;}.cls-2{clip-path:url(#clip-path);}.cls-12,.cls-13,.cls-3{fill:#eb5a53;}.cls-4{fill:#1a1a1a;}.cls-5{fill:#c21633;}.cls-6{fill:#8e1632;}.cls-7{fill:#e62736;}.cls-14,.cls-8{fill:#fff;}.cls-9{fill:#595959;}.cls-10{fill:#797979;}.cls-11{fill:#3e3e3e;}.cls-12{font-size:34px;}.cls-12,.cls-14{font-family:Impact;}.cls-13{font-size:14px;font-family:Roboto-ThinItalic, Roboto;font-weight:200;font-style:italic;}.cls-14{font-size:20px;}</style><clipPath id="clip-path"><rect class="cls-1" x="-5.53" y="-3.41" width="206.66" height="287.45"/></clipPath></defs><g class="cls-2"><path class="cls-3" d="M106.77,162.66c-7-9.1-4.38-14-1.6-16.12s8.17-3.39,15.15,5.71,13.87,24.37,10.13,27.24-16.7-7.73-23.68-16.83Zm0,0"/><path class="cls-4" d="M103.72,144.65a9.66,9.66,0,0,0-3.79,7.22c-.17,3.38,1.24,7.41,4.94,12.24a74.35,74.35,0,0,0,13.52,13.36,30.83,30.83,0,0,0,6.89,4.1c2.17.86,4.6,1.37,6.62-.19s2.17-4,1.9-6.35a30.78,30.78,0,0,0-2.18-7.71,73.45,73.45,0,0,0-9.41-16.52c-3.7-4.82-7.23-7.22-10.54-7.94a9.66,9.66,0,0,0-8,1.79Zm2.9,3.78a4.56,4.56,0,0,1,4-.91c1.82.39,4.49,1.91,7.77,6.19a70.59,70.59,0,0,1,8.77,15.38,27.94,27.94,0,0,1,1.86,6.49,4.92,4.92,0,0,1-.09,2,4.71,4.71,0,0,1-1.94-.43,27.5,27.5,0,0,1-5.78-3.48,70.32,70.32,0,0,1-12.59-12.45c-3.28-4.27-4.06-7.24-4-9.1a4.61,4.61,0,0,1,1.93-3.67Zm0,0"/><path class="cls-3" d="M63,160.39c-4.39-10.59-.6-14.64,2.63-16s8.77-1.15,13.16,9.44,7.09,27.13,2.73,28.93S67.42,171,63,160.39Zm0,0"/><path class="cls-4" d="M64.75,142.21a9.66,9.66,0,0,0-5.53,6c-1,3.23-.72,7.48,1.61,13.11a74,74,0,0,0,9.6,16.4A31,31,0,0,0,76,183.45c1.88,1.4,4.09,2.51,6.45,1.54s3.13-3.33,3.47-5.65a31,31,0,0,0-.11-8A73.88,73.88,0,0,0,81,152.94c-2.33-5.62-5.11-8.85-8.13-10.4a9.66,9.66,0,0,0-8.14-.33Zm1.82,4.4a4.58,4.58,0,0,1,4.14.17c1.66.85,3.84,3,5.91,8A70.57,70.57,0,0,1,81.1,171.9a27.71,27.71,0,0,1,.12,6.74,4.86,4.86,0,0,1-.6,1.9,4.93,4.93,0,0,1-1.76-.92,27.07,27.07,0,0,1-4.68-4.85,71,71,0,0,1-9-15.29c-2.06-5-2-8-1.47-9.82a4.61,4.61,0,0,1,2.81-3Zm0,0"/><path class="cls-3" d="M34,92c11.37,1.5,13,6.8,12.53,10.27s-3.39,8.17-14.76,6.67-27-7.42-26.42-12.09S22.67,90.54,34,92Zm0,0"/><path class="cls-4" d="M48.93,102.62a9.68,9.68,0,0,0-2.43-7.79c-2.28-2.51-6.12-4.36-12.15-5.15a73.76,73.76,0,0,0-19,.11,30.82,30.82,0,0,0-7.76,2C5.43,92.69,3.36,94,3,96.57s1.32,4.38,3.15,5.84a31.46,31.46,0,0,0,7,3.91,74.68,74.68,0,0,0,18.34,5c6,.79,10.22,0,13.07-1.84a9.71,9.71,0,0,0,4.36-6.89ZM44.2,102A4.6,4.6,0,0,1,42,105.5c-1.57,1-4.53,1.82-9.87,1.12A70.7,70.7,0,0,1,15,101.93a27.18,27.18,0,0,1-5.9-3.26A4.72,4.72,0,0,1,7.8,97.2a4.79,4.79,0,0,1,1.67-1.07A27.76,27.76,0,0,1,16,94.51a70.44,70.44,0,0,1,17.71-.11c5.34.71,8,2.26,9.24,3.64a4.58,4.58,0,0,1,1.23,4Zm0,0"/><path class="cls-4" d="M130.57,73.06c-10.69-.25-23.18,3.84-37.52,14.15L91.54,88.3l-.07,1.85c-.78,18.32,9.77,42.1,22.24,58.85,6.23,8.37,12.87,15,19.82,18a15,15,0,0,0,10.79.87c3.54-1.2,6.42-4.09,8.39-8.05a10.19,10.19,0,0,1,1.9-2.83c.42-.39.37-.27.33-.27a10.58,10.58,0,0,1,3.45,3.06c6.29,7.81,12.39,12.25,18.3,13.24a10.3,10.3,0,0,0,8.36-2,11.29,11.29,0,0,0,3.69-7.95,11.7,11.7,0,0,1,.7-3.51c.23-.46.11-.27.21-.31a27,27,0,0,1,6.14.52c11.07,1.84,19.84-3.27,23.59-10.95s3-17.52-2.36-25.61l-2.89-4.32-3.26,4c-3,3.74-5.8,5.84-8.23,6.79a9.3,9.3,0,0,1-7,0c-5-1.8-11.12-8-17.27-17.6-7.8-12.21-16.77-26.8-30.45-34.41a37,37,0,0,0-17.32-4.71Zm-.41,7.39a30.13,30.13,0,0,1,14,4c11.21,6.24,19.92,19.62,27.73,31.85,6.55,10.24,13.17,17.79,21.11,20.66a17.44,17.44,0,0,0,12.4-.11,23.7,23.7,0,0,0,7.5-4.89,17.77,17.77,0,0,1-.39,13.54c-2.43,4.95-7.06,8.17-15.49,6.78-3.63-.6-6.73-1.52-10.28-.07a8.44,8.44,0,0,0-4.2,4.09,17.13,17.13,0,0,0-1.42,6.19c-.14,1.72-.63,2.41-1,2.71s-.85.53-2.2.31c-2.71-.46-8-3.57-13.62-10.51-2.6-3.23-5.37-5.92-9.43-5.9a8.33,8.33,0,0,0-5.45,2.27,16.72,16.72,0,0,0-3.57,5.06c-1.36,2.73-2.7,3.78-4,4.23s-3,.35-5.31-.65c-4.65-2-11-7.79-16.73-15.56-11.11-14.92-20.56-37.18-20.74-52.13,12.7-8.82,22.72-12.1,31.07-11.86Zm0,0"/><path class="cls-5" d="M129.64,76.74c-9.55,0-20.8,3.82-34.36,13.57-1.4,33.23,40.7,94.6,54,67.81,3.56-7.16,7.41-6.5,12.06-.73,11.89,14.74,22.8,15.11,23.58,5.39.69-8.58,4.2-7.95,11.47-6.75,19.51,3.23,26.8-16.65,17.43-30.68-13.15,16.32-26,8.76-38.71-11.11-10.86-17-23.71-37.4-45.49-37.5Zm0,0"/><path class="cls-6" d="M142.55,96.59c-16.24-25.77-47.27-6.28-47.27-6.28-1.4,33.23,40.7,94.6,54,67.81,3.56-7.16,7.41-6.5,12.06-.73,11.89,14.74,22.8,15.11,23.58,5.39.26-3.22.91-5.14,2-6.23-23.61-6.26-34-41.41-44.41-60Zm0,0"/><path class="cls-7" d="M169.39,123.36c24.79,36.31,47.6,20.55,44.45,2-13.15,16.32-26,8.76-38.71-11.11-10.86-17-23.71-37.4-45.49-37.5a38.15,38.15,0,0,0-7.49.74c23.58-4.1,33.94,26.41,47.24,45.88Zm0,0"/><path class="cls-4" d="M130.42,75.83c-9.95-.25-21.69,3.63-35.7,13.71l-.38.27v.46c-.72,17,9.55,40.72,21.67,57,6.07,8.15,12.58,14.45,18.66,17.08a12.06,12.06,0,0,0,8.74.79c2.7-.91,5-3.11,6.75-6.62a12.69,12.69,0,0,1,2.52-3.66,3.26,3.26,0,0,1,2.25-1c1.48,0,3.44,1.33,5.7,4.13,6,7.48,11.83,11.42,16.54,12.21a7.35,7.35,0,0,0,6.05-1.35,8.43,8.43,0,0,0,2.68-6,13.38,13.38,0,0,1,1-4.51,3.08,3.08,0,0,1,1.71-1.73c1.45-.59,4.05-.25,7.69.35,10.08,1.67,17.3-2.73,20.55-9.39s2.69-15.48-2.17-22.76l-.72-1.08-.82,1c-3.22,4-6.37,6.46-9.42,7.65a12.28,12.28,0,0,1-9,.07c-6.08-2.2-12.41-8.89-18.71-18.75-7.8-12.22-16.68-26.35-29.43-33.45a34.43,34.43,0,0,0-16.08-4.44Zm-.1,1.85a32.69,32.69,0,0,1,15.25,4.26c12.14,6.75,20.94,20.58,28.75,32.81,6.4,10,12.85,17,19.67,19.51a14.33,14.33,0,0,0,10.39-.08c3.16-1.24,6.27-3.63,9.35-7.21,3.86,6.52,4.14,14.11,1.37,19.77-2.92,6-9.11,9.91-18.53,8.35-3.64-.6-6.43-1.17-8.73-.24a5.22,5.22,0,0,0-2.7,2.68,14.85,14.85,0,0,0-1.15,5.18,6.49,6.49,0,0,1-2,4.67,5.34,5.34,0,0,1-4.51.94c-3.92-.65-9.52-4.27-15.38-11.53-2.39-3-4.68-4.85-7.19-4.84a5.29,5.29,0,0,0-3.52,1.52,14.27,14.27,0,0,0-2.95,4.22c-1.58,3.2-3.51,4.94-5.65,5.67s-4.61.45-7.37-.74c-5.51-2.38-11.93-8.47-17.89-16.47C105.74,130.3,95.75,107,96.23,90.81,109.84,81.1,121,77.43,130.32,77.68Zm0,0"/><path class="cls-4" d="M126.42,76.15a25.29,25.29,0,0,0-4.43.39l.32,1.87A21.35,21.35,0,0,1,137.14,81c4.33,2.5,8.17,6.44,11.73,11.15,7.11,9.44,13,21.92,19.73,31.75,12.51,18.32,24.74,23.8,33.68,22s14.15-11,12.5-20.67l-1.88.32c1.51,8.86-3.13,16.87-11,18.48s-19.44-3.18-31.72-21.16c-6.58-9.64-12.5-22.15-19.79-31.82-3.64-4.84-7.64-9-12.3-11.66a23.3,23.3,0,0,0-11.67-3.2Zm0,0"/><path class="cls-3" d="M149.37,105.41c-9.1-7-7.84-12.38-5.72-15.16s7-5.38,16.12,1.6,19.71,20,16.84,23.69-18.14-3.15-27.24-10.13Zm0,0"/><path class="cls-4" d="M141.76,88.8a9.69,9.69,0,0,0-1.79,8c.72,3.31,3.12,6.84,7.95,10.54a74.23,74.23,0,0,0,16.52,9.41,31.26,31.26,0,0,0,7.7,2.18c2.33.27,4.8.13,6.36-1.9s1.05-4.45.18-6.63a31.32,31.32,0,0,0-4.09-6.88A74.08,74.08,0,0,0,161.22,90c-4.83-3.7-8.85-5.11-12.24-4.95a9.71,9.71,0,0,0-7.22,3.79Zm3.78,2.91a4.6,4.6,0,0,1,3.67-1.93c1.87-.09,4.84.69,9.11,4a70.37,70.37,0,0,1,12.45,12.6,27.68,27.68,0,0,1,3.48,5.78,5.09,5.09,0,0,1,.43,1.94,5,5,0,0,1-2,.09,27.37,27.37,0,0,1-6.48-1.87,70.39,70.39,0,0,1-15.39-8.76c-4.27-3.28-5.79-6-6.19-7.77a4.62,4.62,0,0,1,.91-4Zm0,0"/><path class="cls-4" d="M89.27,28A68.13,68.13,0,1,0,157.4,96.15,68.19,68.19,0,0,0,89.27,28Zm0,7.77A60.36,60.36,0,1,1,28.91,96.15,60.3,60.3,0,0,1,89.27,35.79Zm0,0"/><path class="cls-3" d="M152.55,94.62c0,2.66-.31,33.72-18.46,42.46-12.88,6.21-20.06-5.91-46.1-5.55-24.5.34-30.89,11.25-43,5.55-18.13-8.53-18.46-39.86-18.46-42.46,0-3.66.42-32.73,18.46-42.46,10.65-5.75,16.16,1.33,42.46,1.61,28.77.3,35.06-8,46.65-1.61C152.12,62.13,152.54,91,152.55,94.62Zm0,0"/><path class="cls-8" d="M90,33.09A64.91,64.91,0,0,0,28.81,76.44H151.12A64.9,64.9,0,0,0,90,33.09Zm0,0"/><path class="cls-8" d="M86.58,34.57A60.05,60.05,0,0,0,29.36,76.44H143.74A60.07,60.07,0,0,0,86.58,34.57Zm0,0"/><path class="cls-8" d="M28.29,118.45a75.74,75.74,0,0,0,29.6,31A65.64,65.64,0,0,0,90,158.66a60.89,60.89,0,0,0,18-2.49,62.65,62.65,0,0,0,29.63-19.85,67.64,67.64,0,0,0,11-17.87Zm0,0"/><path class="cls-8" d="M31.52,118.56m0,0a62.32,62.32,0,0,0,113.37,0Z"/><path class="cls-4" d="M89.27,30.93a65.22,65.22,0,1,0,65.22,65.22A65.23,65.23,0,0,0,89.27,30.93Zm0,1.94A63.28,63.28,0,1,1,26,96.15,63.27,63.27,0,0,1,89.27,32.87Zm0,0"/><path class="cls-4" d="M90.8,96.08a7.4,7.4,0,1,1-14.8,0H74.09a9.31,9.31,0,1,0,18.62,0Zm1.91,0"/><path class="cls-4" d="M103.67,72.8a9.81,9.81,0,0,1,9.83,9.83v4.93a9.83,9.83,0,0,1-19.65,0V82.63a9.81,9.81,0,0,1,9.82-9.83Zm0,0"/><path class="cls-8" d="M98,79.85A3.18,3.18,0,1,1,101.13,83,3.17,3.17,0,0,1,98,79.85Zm0,0"/><path class="cls-4" d="M63.13,97.38a9.8,9.8,0,0,1-9.83-9.82V79.44H73v8.12a9.8,9.8,0,0,1-9.82,9.82Zm0,0"/><path class="cls-8" d="M55.89,85a3.18,3.18,0,1,1,.93,2.24A3.17,3.17,0,0,1,55.89,85Zm0,0"/><path class="cls-4" d="M121.7,11.75c-15.44,3.74-27.47,2.83-42.64,3.94-10.51.78-18,4-22.87,8.89a24,24,0,0,0-6.74,17.18c0,10.73,6.58,19,15.67,23.39S85.86,70.81,97.7,69c23.69-3.64,48.72-20.14,52.75-50.78l.81-6.15-5.86,2.06a106.91,106.91,0,0,1-19.89,4.46l.66-1.79,2.5-6.73ZM114.43,26.5l5.45,0c8,0,16.35-1.81,21.86-3.32-5.75,23-25.7,35.24-45.2,38.24C86,63.07,75.7,61.82,68.46,58.29S57.08,49.54,57.08,41.76A16.11,16.11,0,0,1,61.6,30c3.26-3.28,8.78-6,18-6.65,12.47-.92,23.63-.36,37-2.71Zm2.19-5.91"/><path class="cls-9" d="M122.6,15.46c-16,3.88-28.4,2.94-43.26,4C59.58,21,53.26,31.34,53.26,41.76c0,37,85.83,33.54,93.41-24,0,0-14.44,5.06-26.77,5l2.7-7.26Zm0,0"/><path class="cls-10" d="M122.6,15.46c-16,3.88-28.4,2.94-43.26,4-11.25.82-18.14,4.55-22,9.53,10.43,18.06,69.3,14.77,89.32-11.31,0,0-14.44,5.06-26.77,5l2.7-7.26Zm0,0"/><path class="cls-11" d="M146.67,17.72c-10.06,37.52-79.14,52.11-92.86,19a23.43,23.43,0,0,0-.55,5.07c0,37,85.83,33.54,93.41-24Zm0,0"/><path class="cls-4" d="M122.37,14.53c-15.86,3.84-28.16,2.92-43.1,4-10,.73-16.81,3.76-21,8a21.06,21.06,0,0,0-5.91,15.17c0,9.63,5.67,16.73,14.06,20.82s19.54,5.33,30.9,3.58c22.72-3.49,46.49-19.07,50.34-48.32l.21-1.54-1.47.52S133,21.45,121.28,21.74l2.21-5.95.62-1.68Zm-3.83,9.13h1.36c10.68.06,22.17-3.45,25.59-4.57C141.15,46.45,118.66,60.94,97,64.27c-11,1.7-21.84.46-29.77-3.41s-13-10.21-13-19.1a19,19,0,0,1,5.35-13.82c3.85-3.88,10.12-6.78,19.84-7.49,14.25-1.05,26.36-.23,41.68-3.67Zm2.55-6.88"/><text class="cls-12" transform="translate(58.66 236.56)">Adam<tspan x="-38" y="32">Mickiewicz</tspan></text><text class="cls-13" transform="translate(74.8 205.54)">bohater</text></g><path class="cls-3" d="M45,0,16,0H0l0,16c0,7,0,14,0,21A29.11,29.11,0,0,0,51.5,18.3,28.92,28.92,0,0,0,45,0Z"/><text class="cls-14" transform="translate(15.6 31.75)">15</text></svg>