<svg id="Слой_1" data-name="Слой 1" xmlns="http://www.w3.org/2000/svg" viewBox="0 0 195.59 280.63"><defs><style>.cls-1{fill:#d3ac82;}.cls-2{font-size:36px;}.cls-2,.cls-4{fill:#1a1a1a;}.cls-17,.cls-2{font-family:Impact;}.cls-3{fill:#956b6b;}.cls-17,.cls-5{fill:#fff;}.cls-6{fill:#6b5052;}.cls-7{fill:#b69289;}.cls-8{fill:#af1739;}.cls-9{fill:#eb5775;}.cls-10{fill:#badbe9;}.cls-11{fill:#8bb0cc;}.cls-12{fill:#f293a2;}.cls-13{fill:#ebd3ae;}.cls-14{fill:#5da240;}.cls-15{fill:#93c466;}.cls-16{fill:#d2b7a7;}.cls-17{font-size:20px;}</style></defs><rect class="cls-1" x="-8.14" y="-7.57" width="209.04" height="297.62"/><text class="cls-2" transform="translate(11.98 236.2)">uwielbiamy<tspan x="14.54" y="34">ziemniaki</tspan></text><path class="cls-3" d="M103.66,166.5c1.6,12.15-.18,30-5.18,30.61S87.16,181,85.56,168.88,89,153.6,92.69,153.12s9.37,1.23,11,13.38Zm0,0"/><path class="cls-4" d="M92.35,150.59A10.35,10.35,0,0,0,85,155.25c-2,3-2.81,7.52-2,14a79.29,79.29,0,0,0,5.37,19.59,33.31,33.31,0,0,0,4.18,7.46c1.55,2,3.53,3.73,6.23,3.37s4.16-2.57,5.15-4.87a33,33,0,0,0,2.1-8.29,78.9,78.9,0,0,0,.12-20.31c-.85-6.45-2.83-10.55-5.51-13a10.34,10.34,0,0,0-8.32-2.59Zm.67,5A4.9,4.9,0,0,1,97.25,157c1.47,1.34,3.13,4.17,3.88,9.87a75.42,75.42,0,0,1-.11,18.93,29.09,29.09,0,0,1-1.74,7,5.23,5.23,0,0,1-1.14,1.79,5.29,5.29,0,0,1-1.57-1.43,29.5,29.5,0,0,1-3.48-6.31,74.85,74.85,0,0,1-5-18.25c-.75-5.7.12-8.87,1.2-10.54A4.91,4.91,0,0,1,93,155.64Zm0,0"/><path class="cls-3" d="M150.24,167.67c0,12.25-4.09,29.68-9.13,29.68S132,179.92,132,167.67s5.4-14.7,9.13-14.7,9.13,2.45,9.13,14.7Zm0,0"/><path class="cls-4" d="M141.11,150.42a10.35,10.35,0,0,0-7.91,3.66c-2.34,2.76-3.76,7.09-3.76,13.59a79.43,79.43,0,0,0,2.76,20.12,33.67,33.67,0,0,0,3.17,8c1.29,2.15,3,4.15,5.74,4.15s4.46-2,5.74-4.15a33.25,33.25,0,0,0,3.17-8,79,79,0,0,0,2.77-20.12c0-6.5-1.43-10.83-3.77-13.59a10.32,10.32,0,0,0-7.91-3.66Zm0,5.09a4.93,4.93,0,0,1,4,1.86c1.29,1.52,2.56,4.55,2.56,10.3a75,75,0,0,1-2.58,18.74,29,29,0,0,1-2.63,6.71,5.3,5.3,0,0,1-1.37,1.63,5.46,5.46,0,0,1-1.37-1.63,30,30,0,0,1-2.63-6.71,75,75,0,0,1-2.58-18.74c0-5.75,1.27-8.78,2.56-10.3a4.93,4.93,0,0,1,4-1.86Zm0,0"/><path class="cls-3" d="M54.51,115.73c-12.15,1.6-30-.18-30.61-5.18S40,99.23,52.13,97.63s15.28,3.43,15.77,7.13-1.24,9.37-13.39,11Zm0,0"/><path class="cls-4" d="M70.42,104.43a10.38,10.38,0,0,0-4.66-7.37c-3-2-7.52-2.81-14-2a79.53,79.53,0,0,0-19.58,5.37,33.39,33.39,0,0,0-7.47,4.18c-2,1.56-3.73,3.53-3.37,6.24S23.94,115,26.24,116a33.07,33.07,0,0,0,8.29,2.11,78.9,78.9,0,0,0,20.31.11c6.45-.84,10.55-2.82,13-5.5a10.36,10.36,0,0,0,2.59-8.32Zm-5,.66a4.92,4.92,0,0,1-1.31,4.23c-1.35,1.48-4.18,3.13-9.88,3.88a74.87,74.87,0,0,1-18.92-.11,29.6,29.6,0,0,1-7-1.73,5.29,5.29,0,0,1-1.79-1.15,5.19,5.19,0,0,1,1.43-1.56,29.72,29.72,0,0,1,6.31-3.49,75.3,75.3,0,0,1,18.25-5c5.7-.75,8.87.12,10.55,1.2a4.92,4.92,0,0,1,2.36,3.74Zm0,0"/><path class="cls-3" d="M188.85,98.14c9.72,7.46,21.06,21.31,18,25.31s-19.38-3.37-29.1-10.83-8.38-13.23-6.11-16.19,7.5-5.75,17.22,1.71Zm0,0"/><path class="cls-4" d="M169.61,94.88a10.32,10.32,0,0,0-1.91,8.5c.76,3.54,3.33,7.31,8.49,11.26a78.65,78.65,0,0,0,17.64,10.06,33.19,33.19,0,0,0,8.24,2.32c2.49.29,5.13.14,6.79-2s1.12-4.76.2-7.09a33.16,33.16,0,0,0-4.38-7.35A79,79,0,0,0,190.4,96.12c-5.16-4-9.46-5.46-13.08-5.29a10.35,10.35,0,0,0-7.71,4Zm4,3.1a4.93,4.93,0,0,1,3.92-2.06c2-.1,5.17.74,9.73,4.24a75,75,0,0,1,13.3,13.46,29,29,0,0,1,3.72,6.17,5.48,5.48,0,0,1,.46,2.07,5.16,5.16,0,0,1-2.13.1,29.72,29.72,0,0,1-6.92-2,75.18,75.18,0,0,1-16.44-9.37c-4.57-3.5-6.19-6.35-6.62-8.3a4.92,4.92,0,0,1,1-4.32Zm0,0"/><path class="cls-4" d="M124.45,34.08a29.45,29.45,0,0,0-4.68-.34c-13.35,0-22,9.75-31.11,14.38-4.37,2.23-9.13,3.2-14.13,4.7s-10.37,3.72-14.65,8.73-5.71,10.39-6.36,15.52-.63,10-1.64,15c-1,4.76-3.4,9.66-5.49,15s-3.83,11.38-2.17,18c1.62,6.41,5.51,11.21,9.5,15.37s8.15,7.81,11.12,11.79,5.13,8.65,7.9,13.27,6.34,9.27,12.16,12.33c6.11,3.21,12.53,2.79,18.29,1.88s11.17-2.26,15.91-2.11c10.33.34,21.34,4.26,33.15-1.17,6-2.78,9.94-7.45,13-12.16s5.57-9.54,8.71-13.53,6.8-7.39,10.12-11.29a32.83,32.83,0,0,0,7.66-14.78,33.77,33.77,0,0,0-.51-16c-1.22-4.72-3-9-4.28-14.1-1.23-4.8-1.33-10-2-15.45s-2.05-11.31-6.33-16.44c-8.08-9.68-18.36-12.13-28.13-16.52-8.18-3.69-15.62-10.43-26.08-12Zm-4.65,7.81c9.4,0,16.42,6.7,27.39,11.64,10.55,4.75,18.91,6.77,25.21,14.31,2.91,3.48,3.9,7.37,4.5,12.22s.66,10.48,2.2,16.48c1.46,5.69,3.25,10.11,4.28,14.11a24.75,24.75,0,0,1,.43,12.32c-1,4.65-3,7.8-5.89,11.18s-6.64,6.83-10.34,11.54-6.34,9.91-9.09,14.08-5.52,7.35-9.65,9.25c-8.55,3.93-17.58.81-29.47.42-6.36-.21-12.24,1.38-17.45,2.21s-9.45.93-13.23-1.06c-4.07-2.13-6.52-5.23-9-9.31s-4.71-9.05-8.36-13.94-8.13-8.77-11.77-12.57-6.38-7.39-7.47-11.71c-1.05-4.14,0-8.19,1.85-13s4.65-10.14,5.9-16.37c1.2-6,1.17-11.23,1.73-15.6s1.5-7.77,4.47-11.25S72.4,62,76.88,60.62s9.89-2.39,15.49-5.25c10.88-5.55,18.34-13.45,27.43-13.49Zm0,0"/><path class="cls-5" d="M150.54,172.72c-10.18,4.68-20.19,1.16-31.3.8s-22.56,5.88-32.45.69-12-15.52-18.69-24.43-17.22-15-19.93-25.72,5.5-20.18,7.71-31.17S55.8,72.6,63,64.19s17.56-7.35,27.54-12.44,18-13.9,29.26-13.94,18.92,7.43,29.08,12,19.48,6.81,26.67,15.42,4.74,19.5,7.52,30.29,7,17.41,4.75,28.29-10.09,15.59-17,24.4S160.72,168,150.54,172.72Zm0,0"/><path class="cls-6" d="M150.54,172.72c-10.18,4.68-20.19,1.16-31.3.8s-22.56,5.88-32.45.69-12-15.52-18.69-24.43-17.22-15-19.93-25.72,5.5-20.18,7.71-31.17S55.8,72.6,63,64.19s17.56-7.35,27.54-12.44,18-13.9,29.26-13.94,18.92,7.43,29.08,12,19.48,6.81,26.67,15.42,4.74,19.5,7.52,30.29,7,17.41,4.75,28.29-10.09,15.59-17,24.4S160.72,168,150.54,172.72Zm0,0"/><path class="cls-3" d="M119.78,37.81c-11.22,0-19.29,8.85-29.26,13.94S70.17,55.78,63,64.19s-4.9,17.71-7.1,28.7-10.41,20.44-7.71,31.17,13.29,16.81,19.93,25.72a74.56,74.56,0,0,1,5.58,9.11,46.61,46.61,0,0,0,8.27,5.7c9.4,4.94,20.27-1,30.83-.65s20.08,3.69,29.76-.76,12.67-14.92,19.24-23.29,14-12.85,16.16-23.19-1.87-16.64-4.51-26.89S173.12,69.2,166.28,61A47.94,47.94,0,0,1,163,55.86c-4.42-2.13-9.18-3.81-14.14-6-10.16-4.57-17.86-12-29.08-12Zm0,0"/><path class="cls-7" d="M116.41,49.46c-8.85,0-15.22,7-23.09,11s-16,3.18-21.72,9.82-3.87,14-5.61,22.64-8.22,16.13-6.08,24.6,10.77,13,15.73,20.29c3.71,5.43,5.25,8.69,10.92,11.69,7.41,3.91,16-.8,24.33-.52s15.84,2.91,23.47-.6,10-11.77,15.19-18.38,11-10.13,12.75-18.29-1.48-13.13-3.56-21.22-.84-15.81-5.64-22.72c-3.76-5.42-8.46-6.47-13.75-8.84-8-3.61-14.09-9.5-22.94-9.47Zm0,0"/><path class="cls-4" d="M124,37.12a25,25,0,0,0-4.21-.32c-11.75,0-20,9.07-29.73,14-4.83,2.47-9.84,3.47-14.64,4.91S66,59.13,62.21,63.53s-5,9.08-5.66,13.92S56,87.32,54.88,92.69s-3.63,10.37-5.65,15.52-3.48,10.43-2,16.1,4.89,10,8.75,14,8.13,7.74,11.36,12.08,5.42,9.11,8.07,13.52,5.8,8.49,11,11.2,10.84,2.45,16.4,1.57,11.13-2.32,16.48-2.14c10.92.36,21.18,4,31.77-.89,5.32-2.45,8.8-6.56,11.77-11.07s5.47-9.43,8.85-13.73,7-7.69,10.21-11.39a29.5,29.5,0,0,0,7-13.43,30.36,30.36,0,0,0-.48-14.65c-1.15-4.46-2.91-8.79-4.28-14.11S182.6,84.66,182,79.44s-1.87-10.35-5.64-14.86c-7.41-8.88-17-11.16-27-15.69C140.57,45,133.45,38.61,124,37.12Zm-4.2,1.71c10.76,0,18.29,7.25,28.65,11.91s19.34,6.8,26.31,15.14c3.42,4.1,4.56,8.73,5.18,13.8s.7,10.55,2.13,16.1,3.18,9.83,4.28,14.11a28.08,28.08,0,0,1,.46,13.71,27.23,27.23,0,0,1-6.56,12.53c-3,3.57-6.73,7-10.25,11.45s-6.07,9.5-9,13.87-6.07,8.11-10.92,10.34c-9.77,4.5-19.55,1.08-30.85.71-5.76-.19-11.45,1.31-16.87,2.17s-10.48,1.08-15.13-1.37-7.6-6.16-10.16-10.44-4.79-9.13-8.19-13.69-7.75-8.34-11.52-12.27-6.95-8-8.24-13.09,0-9.85,2-14.86,4.61-10.18,5.75-15.86S58,82.36,58.57,77.71s1.75-8.83,5.19-12.85S71.33,59.11,76,57.7s9.84-2.42,15-5.05c10.2-5.2,18.12-13.78,28.81-13.82Zm0,0"/><path class="cls-4" d="M97.8,155.88a3.45,3.45,0,0,1-3.45,3.45,3.44,3.44,0,1,1,3.45-3.45Zm0,0"/><path class="cls-4" d="M170,108.24a2,2,0,0,1-3.35,1.39,2,2,0,0,1-.57-1.39,2,2,0,0,1,2-2,2,2,0,0,1,2,2Zm0,0"/><path class="cls-4" d="M116.62,61.45a2,2,0,0,1-2,2,2,2,0,0,1-1.39-.58,1.92,1.92,0,0,1-.57-1.38,2,2,0,0,1,3.92,0Zm0,0"/><path class="cls-4" d="M92.47,61.14a1.95,1.95,0,0,1-2,2,1.92,1.92,0,0,1-1.38-.57,2,2,0,1,1,3.34-1.38Zm0,0"/><path class="cls-4" d="M133.31,62.34a3.45,3.45,0,0,1-5.89,2.43,3.44,3.44,0,0,1,0-4.87,3.45,3.45,0,0,1,5.89,2.44Zm0,0"/><path class="cls-4" d="M89.37,145.1c0,3.08-3,4.91-6.07,5a5.1,5.1,0,0,1-5.08-5c0-3.07,2.5-3.59,5.57-3.59s5.58.52,5.58,3.59Zm0,0"/><path class="cls-4" d="M73.9,123.06a7,7,0,0,1-6.7,6.52c-3.4,0-5.61-3.12-5.61-6.52s2.75-4.18,6.15-4.18,6.16.78,6.16,4.18Zm0,0"/><path class="cls-4" d="M86.25,144.71c0,1.84-1.78,2.94-3.62,3a3,3,0,0,1-3-3c0-1.84,1.49-2.15,3.33-2.15s3.33.31,3.33,2.15Zm0,0"/><path class="cls-4" d="M157,153.11c-2.85,1.18-5.68-.88-6.92-3.69a5.1,5.1,0,0,1,2.65-6.6c2.84-1.18,4.27.93,5.45,3.77s1.66,5.35-1.18,6.52Zm0,0"/><path class="cls-4" d="M154.29,150.5c-1.51.63-3-.47-3.69-2A2.72,2.72,0,0,1,152,145c1.51-.62,2.28.5,2.9,2s.89,2.85-.63,3.48Zm0,0"/><path class="cls-4" d="M159.86,97.23a7.49,7.49,0,0,1,2.74-9.67c3.16-1.83,6.9-.12,8.73,3s-.32,5.37-3.48,7.2-6.16,2.58-8-.58Zm0,0"/><path class="cls-4" d="M136.59,164a6.72,6.72,0,1,1-6.72-6.72,6.72,6.72,0,0,1,6.72,6.72Zm0,0"/><path class="cls-3" d="M85.05,103.77a6.72,6.72,0,1,1-6.72-6.71,6.7,6.7,0,0,1,6.72,6.71Zm0,0"/><path class="cls-4" d="M81.35,81.41c-2.66-1.53-2.75-5-1.27-7.73a5.09,5.09,0,0,1,6.85-1.92c2.66,1.54,1.86,4,.32,6.62s-3.23,4.57-5.9,3Zm0,0"/><path class="cls-4" d="M82.28,77.6c-1.42-.83-1.47-2.7-.68-4.14a2.71,2.71,0,0,1,3.66-1c1.43.82,1,2.11.17,3.54s-1.72,2.44-3.15,1.62Zm0,0"/><path class="cls-4" d="M85.41,98.39a11,11,0,1,1,21.93,0h-4.07a6.9,6.9,0,0,0-13.79,0Zm0,0"/><path class="cls-4" d="M128.73,98.39a11,11,0,0,1,21.94,0h-4.08a6.89,6.89,0,1,0-13.78,0Zm0,0"/><path class="cls-8" d="M106.86,107.18a2.31,2.31,0,0,0-2.33,2.33v2.63a13.51,13.51,0,0,0,27,0v-2.63a2.32,2.32,0,0,0-2.33-2.33Zm0,0"/><path class="cls-9" d="M118,116.39A13.48,13.48,0,0,0,107.86,121a13.51,13.51,0,0,0,20.36,0A13.51,13.51,0,0,0,118,116.39Zm0,0"/><path class="cls-5" d="M106.86,107.18a2.31,2.31,0,0,0-2.33,2.33v2.34a31,31,0,0,0,27,0v-2.35a2.32,2.32,0,0,0-2.33-2.33Zm0,0"/><path class="cls-10" d="M106.86,107.18a2.32,2.32,0,0,0-2.34,2.33v2.34a32.1,32.1,0,0,0,4.73,1.78c-.92-.62-1.1-1.49-1.1-2.84v-3.61Zm0,0"/><path class="cls-10" d="M124.3,107.18v3.61c0,1.82-.47,3.4-2,3.82a31.5,31.5,0,0,0,9.28-2.75v-2.35a2.32,2.32,0,0,0-2.33-2.33Zm0,0"/><path class="cls-11" d="M129.22,107.18a2.32,2.32,0,0,1,2.33,2.33v2.34a32.41,32.41,0,0,1-4.72,1.78c.92-.62,1.09-1.49,1.09-2.84v-3.61Zm0,0"/><path class="cls-4" d="M106.86,106.16a3.36,3.36,0,0,0-3.35,3.35v2.63a14.53,14.53,0,1,0,29.06,0v-2.63a3.37,3.37,0,0,0-3.35-3.35Zm0,2h22.36a1.29,1.29,0,0,1,1.31,1.32v2.63a12.5,12.5,0,0,1-25,0v-2.63a1.29,1.29,0,0,1,1.32-1.32Zm0,0"/><path class="cls-4" d="M104.46,111.3l-.45.92a32,32,0,0,0,28.05,0l-.45-.92a31,31,0,0,1-27.15,0Zm0,0"/><path class="cls-12" d="M116.54,120a1.39,1.39,0,0,1-.66,1.12,2.76,2.76,0,0,1-1.59.47c-1.24,0-2.24-.71-2.24-1.59s1-1.58,2.24-1.58a2.76,2.76,0,0,1,1.59.47,1.38,1.38,0,0,1,.66,1.11Zm0,0"/><path class="cls-4" d="M118,9.89a81.64,81.64,0,0,0-24.58,3.7l-1.85.59L88.26,39.56,65.57,57l2.76,2.46a15.94,15.94,0,0,0,3.38,2.1,24.65,24.65,0,0,0,9.12,2.25c4.29.26,7.53-1.12,10.2-2.12s4.75-1.71,8.08-1.25,5.12,1.85,7.76,3.6a18.46,18.46,0,0,0,22.33,0c2.65-1.75,4.52-3.15,7.77-3.6s5.41.25,8.08,1.25S151,64,155.24,63.78a24.65,24.65,0,0,0,9.12-2.25,15.94,15.94,0,0,0,3.38-2.1L170.5,57,147.81,39.56,144.47,14.2l-1.84-.59A81.4,81.4,0,0,0,118,9.89ZM118,16a76.11,76.11,0,0,1,20.89,2.87l3.16,24,18,13.8a19.64,19.64,0,0,1-5.2,1c-2.84.18-4.86-.68-7.67-1.73a21.51,21.51,0,0,0-11.08-1.59c-4.72.66-7.83,2.93-10.3,4.57s-4.24,2.74-7.78,2.74-5.32-1.11-7.79-2.74S104.68,55,100,54.35a21.45,21.45,0,0,0-11.07,1.59C86.06,57,84,57.85,81.2,57.67a19.64,19.64,0,0,1-5.2-1l18-13.8,3.16-24A76.42,76.42,0,0,1,118,16Zm0,0"/><path class="cls-13" d="M141.7,16.52a80.3,80.3,0,0,0-47.32,0l-3.25,24.7L70.36,57.14S73.89,60.29,81,60.73s10.53-4.46,18.51-3.35,9.94,7.34,18.51,7.34,10.53-6.23,18.51-7.34,11.38,3.78,18.51,3.35,10.65-3.59,10.65-3.59L145,41.21Zm0,0"/><path class="cls-1" d="M128.23,13.59V41.21l9.28,16.07c7.3-.61,10.72,3.86,17.55,3.45,7.12-.44,10.65-3.59,10.65-3.59L145,41.21,141.7,16.52a74.54,74.54,0,0,0-13.47-2.93Zm0,0"/><path class="cls-5" d="M101.38,14.66a70.37,70.37,0,0,0-7,1.85l-3.25,24.7L70.36,57.14s2.75,2.45,8.27,3.33L97.88,41.21Zm0,0"/><path class="cls-4" d="M118,11.93a79.35,79.35,0,0,0-24,3.61l-.62.19L90.17,40.66,68.77,57.09l.92.81a13.47,13.47,0,0,0,2.89,1.79A22.61,22.61,0,0,0,81,61.74c3.8.23,6.64-1,9.35-2a16.87,16.87,0,0,1,9.08-1.36c3.74.52,6,2.21,8.61,3.92s5.51,3.43,10,3.43a16.88,16.88,0,0,0,10-3.43c2.59-1.71,4.87-3.4,8.62-3.92a16.85,16.85,0,0,1,9.07,1.36c2.72,1,5.55,2.22,9.36,2a22.6,22.6,0,0,0,8.37-2.05,13.41,13.41,0,0,0,2.9-1.79l.92-.81L145.9,40.66l-3.28-24.92-.61-.19a79.72,79.72,0,0,0-24-3.62Zm0,2a77.43,77.43,0,0,1,22.74,3.34L144,41.76l20,15.35c-.37.22-.8.47-1.37.74A20.69,20.69,0,0,1,155,59.71c-3.32.2-5.75-.83-8.51-1.86a19.18,19.18,0,0,0-10.08-1.48c-4.23.59-6.92,2.57-9.45,4.24S122.07,63.7,118,63.7s-6.39-1.41-8.92-3.09S103.9,57,99.67,56.37a19.18,19.18,0,0,0-10.08,1.48c-2.76,1-5.19,2.06-8.51,1.86a20.63,20.63,0,0,1-7.62-1.86,14.68,14.68,0,0,1-1.38-.74l20-15.35L95.3,17.29A77.84,77.84,0,0,1,118,14Zm0,0"/><rect class="cls-4" x="92.13" y="32.83" width="51.81" height="1.53"/><rect class="cls-4" x="91.13" y="40.45" width="53.82" height="1.53"/><path class="cls-4" d="M14.08,142.66l-3.15,3.15L5.6,151.14l10.61,10.61c.58.59.35.21.48.78a23.17,23.17,0,0,1,.2,3.71V194h12V166.24a23.17,23.17,0,0,1,.2-3.71c.13-.57-.1-.19.48-.78l10.61-10.61-8.49-8.47-8.8,8.79Zm0,0"/><path class="cls-4" d="M39.91,134.91c-.45,0-.89,0-1.33.06a19,19,0,0,0-9.86,3.89,14,14,0,0,0-5.48,8.47,11.84,11.84,0,0,0,10.53,13.74,14,14,0,0,0,9.6-3.1,18.94,18.94,0,0,0,6.32-8.53c1.19-3.29,1.48-7.38-1.06-10.68a10.55,10.55,0,0,0-8.72-3.85Zm.47,8.93a2.15,2.15,0,0,1,1.19.34,3.25,3.25,0,0,1-.25,2.22A11,11,0,0,1,38,150.9a4.94,4.94,0,0,1-3.42,1.29,2.55,2.55,0,0,1-2-1.12A2.58,2.58,0,0,1,32,148.9a5,5,0,0,1,2.14-3,11,11,0,0,1,5.22-2.08,5,5,0,0,1,1,0Zm0,0"/><path class="cls-4" d="M11.13,139.08a8.7,8.7,0,0,0-6.69,2.43c-2.57,2.57-2.75,6.09-2.13,8.9a15.25,15.25,0,0,0,4.18,7.53,11.65,11.65,0,0,0,7.6,3.59,10,10,0,0,0,10.38-10.38,11.65,11.65,0,0,0-3.59-7.6,15.37,15.37,0,0,0-7.53-4.18,13.07,13.07,0,0,0-2.22-.29ZM10.94,148a2.89,2.89,0,0,1,.48.07,7.27,7.27,0,0,1,3.16,1.78,2.68,2.68,0,0,1,1,1.71.81.81,0,0,1-.33.74.81.81,0,0,1-.74.33,2.68,2.68,0,0,1-1.72-1A7.33,7.33,0,0,1,11,148.48a2.75,2.75,0,0,1-.07-.48Zm0,0"/><path class="cls-4" d="M22.88,165.11A19.36,19.36,0,0,0,8.7,171.29a16.86,16.86,0,0,0-6.13-1.17,16.91,16.91,0,1,0,0,33.82H43.21a16.91,16.91,0,1,0-6.13-32.65,19.39,19.39,0,0,0-14.2-6.18Zm0,8.9h0A10.49,10.49,0,0,1,32,179.24l2.5,4.29,4-2.94A8,8,0,0,1,43.21,179a8,8,0,1,1,0,16H2.59a8,8,0,1,1,0-16,8,8,0,0,1,4.74,1.56l4,2.94,2.49-4.29A10.5,10.5,0,0,1,22.88,174Zm0,0"/><path class="cls-14" d="M31.69,149l-7.46,7.46a9.06,9.06,0,0,0-2.49,4.38,23.79,23.79,0,0,0-.4,5.44v23.27h3.09V166.24a22.79,22.79,0,0,1,.31-4.73,5.59,5.59,0,0,1,1.67-2.91l7.46-7.46Zm0,0"/><path class="cls-14" d="M14.08,149l-2.18,2.18,7.46,7.46A5.59,5.59,0,0,1,21,161.51a22.79,22.79,0,0,1,.31,4.73v23.27h3.09V166.24a23.79,23.79,0,0,0-.4-5.44,9.06,9.06,0,0,0-2.49-4.38Zm0,0"/><path class="cls-4" d="M14.08,148.06l-.45.45L11,151.14l7.91,7.91a4.8,4.8,0,0,1,1.5,2.6,22.31,22.31,0,0,1,.3,4.59v23.91h4.35V166.24a22.31,22.31,0,0,1,.3-4.59,4.73,4.73,0,0,1,1.5-2.6l7.91-7.91-3.08-3.08L23.78,156a12.28,12.28,0,0,0-.9,1,10.57,10.57,0,0,0-.89-1Zm0,1.8,7,7a9.47,9.47,0,0,1,1.26,1.56l.53.85.54-.85a9.47,9.47,0,0,1,1.26-1.56l7-7L33,151.14l-7,7a6.33,6.33,0,0,0-1.84,3.21,22.64,22.64,0,0,0-.33,4.88v22.63H22V166.24a21.92,21.92,0,0,0-.34-4.88,6.24,6.24,0,0,0-1.83-3.21l-7-7Zm0,0"/><path class="cls-14" d="M31.43,142.4c-4.43,3.4-4.93,8.06-2.38,11.38s7.18,4.05,11.61.65,7-9.64,4.44-13-9.24-2.48-13.67.93Zm0,0"/><path class="cls-15" d="M45.1,141.47c2.55,3.32,0,9.56-4.44,13s-9.06,2.68-11.61-.65Zm0,0"/><path class="cls-4" d="M39.91,138.73c-.33,0-.66,0-1,0A15.56,15.56,0,0,0,31,141.89,10.07,10.07,0,0,0,27,148a8,8,0,0,0,7.11,9.25,10.05,10.05,0,0,0,6.95-2.32,15.51,15.51,0,0,0,5.05-6.8c.92-2.53,1-5.17-.49-7.06a6.9,6.9,0,0,0-5.7-2.35Zm.85,1.31a5.25,5.25,0,0,1,3.84,1.81c1.09,1.43,1.13,3.58.3,5.85a14.29,14.29,0,0,1-4.62,6.23A8.86,8.86,0,0,1,34.21,156a6.76,6.76,0,0,1-6-7.77,8.76,8.76,0,0,1,3.56-5.33A14.4,14.4,0,0,1,39,140a10.1,10.1,0,0,1,1.74,0Zm0,0"/><path class="cls-14" d="M9.64,154.79c3,3,6.51,2.9,8.75.66s2.32-5.77-.66-8.75-7.9-4.28-10.14-2-.93,7.15,2.05,10.13Zm0,0"/><path class="cls-15" d="M7.59,144.66c2.24-2.24,7.16-.94,10.14,2s2.89,6.52.66,8.75Zm0,0"/><path class="cls-4" d="M11,142.9a5,5,0,0,0-3.88,1.31A5.69,5.69,0,0,0,6,149.58a11.7,11.7,0,0,0,3.15,5.66,7.68,7.68,0,0,0,5.07,2.47,6.19,6.19,0,0,0,6.39-6.39,7.77,7.77,0,0,0-2.47-5.07,11.86,11.86,0,0,0-5.66-3.15,8.7,8.7,0,0,0-1.5-.2Zm0,1.27a8.55,8.55,0,0,1,1.27.17,10.71,10.71,0,0,1,5,2.81,6.47,6.47,0,0,1,2.1,4.23,4.92,4.92,0,0,1-5.06,5.06,6.45,6.45,0,0,1-4.23-2.1,10.66,10.66,0,0,1-2.81-5c-.39-1.75-.15-3.29.76-4.2a3.81,3.81,0,0,1,2.94-.94Zm0,0"/><rect class="cls-6" x="2.57" y="187.03" width="40.64" height="12.45"/><path class="cls-6" d="M37.85,184.52a15,15,0,1,1-4.38-10.58,15,15,0,0,1,4.38,10.58Zm0,0"/><path class="cls-6" d="M15,187a12.46,12.46,0,1,1-3.65-8.8A12.42,12.42,0,0,1,15,187Zm0,0"/><path class="cls-6" d="M55.66,187a12.46,12.46,0,1,1-3.65-8.8,12.44,12.44,0,0,1,3.65,8.8Zm0,0"/><path class="cls-3" d="M2.57,174.58a12.47,12.47,0,0,0-12.21,10A11.06,11.06,0,0,0,1.3,194a11,11,0,0,0,7.82-3.24A11,11,0,0,0,12.36,183a11.08,11.08,0,0,0-2.08-6.46c-.11.17-.23.34-.33.51a12.49,12.49,0,0,0-7.38-2.42Zm40.64,0A12.5,12.5,0,0,0,35.82,177c-.1-.17-.21-.34-.32-.51a11.06,11.06,0,1,0,19.91,8.07,12.45,12.45,0,0,0-12.2-10Zm0,0"/><path class="cls-3" d="M22.88,169.56A15,15,0,0,0,10,177c-.13-.09-.26-.18-.4-.26a14.19,14.19,0,1,0,26.67,0l-.4.27a15,15,0,0,0-12.94-7.44Zm0,0"/><path class="cls-7" d="M13.49,172.88A15,15,0,0,0,10,177a12.46,12.46,0,0,0-18.43,4.28,12.45,12.45,0,0,0,22-8v-.38Zm18.79,0v.38a12.45,12.45,0,0,0,22,8A12.44,12.44,0,0,0,35.83,177a15,15,0,0,0-3.54-4.12Zm0,0"/><path class="cls-7" d="M22.88,169.56a14.91,14.91,0,0,0-3.9.52,14.54,14.54,0,0,0-4.38,2,13.29,13.29,0,0,0-1.54,1.17c-.24.21-.48.43-.71.66s-.45.46-.67.71A14.71,14.71,0,0,0,10,177c-.26-.19-.54-.38-.81-.55h0c-.28-.17-.57-.33-.85-.48a15,15,0,0,0,29.2,0c-.29.15-.57.31-.85.48s-.55.36-.82.55a14.71,14.71,0,0,0-1.73-2.39,9,9,0,0,0-.67-.71c-.23-.23-.47-.45-.71-.67s-.49-.41-.75-.61-.52-.38-.79-.56-.54-.35-.82-.51-.56-.31-.85-.45-.58-.28-.88-.4-.6-.24-.91-.34-.61-.2-.93-.29l-1-.22c-.32-.06-.64-.12-1-.16s-.65-.08-1-.1-.66,0-1,0Zm0,0"/><path class="cls-16" d="M22.88,169.56a14.89,14.89,0,0,0-10.28,4.11,6.71,6.71,0,0,0,12.77-2.86,6.2,6.2,0,0,0-.09-1.05,14.67,14.67,0,0,0-2.4-.2Zm0,0"/><path class="cls-16" d="M2.57,174.58a12.48,12.48,0,0,0-5.43,1.24A3.94,3.94,0,0,0,4.93,175v-.16a12.42,12.42,0,0,0-2.36-.23Zm40.64,0a12.36,12.36,0,0,0-5.48,1.28A3.94,3.94,0,0,0,45.5,175a.54.54,0,0,0,0-.18,12.27,12.27,0,0,0-2.29-.21Zm0,0"/><path class="cls-4" d="M22.88,168.92a15.59,15.59,0,0,0-13.1,7.2,13.11,13.11,0,0,0-7.21-2.18,13.09,13.09,0,1,0,0,26.18H43.21a13.09,13.09,0,1,0-7.22-24,15.57,15.57,0,0,0-13.11-7.2Zm0,1.28a14.3,14.3,0,0,1,12.39,7.12l.36.62.57-.42a11.82,11.82,0,1,1,7,21.33H2.58a11.82,11.82,0,1,1,7-21.33l.57.42.36-.62a14.32,14.32,0,0,1,12.38-7.12Zm0,0"/><path class="cls-3" d="M45,0,16,0H.06l0,16c0,7,0,14,0,21A29.09,29.09,0,0,0,45,0Z"/><text class="cls-17" transform="translate(15.64 31.75)">17</text></svg>