<svg id="Слой_1" data-name="Слой 1" xmlns="http://www.w3.org/2000/svg" viewBox="0 0 195.59 280.63"><defs><style>.cls-1,.cls-11,.cls-12,.cls-13{fill:#4153a0;}.cls-1,.cls-4{stroke:#1166b0;stroke-width:1.49px;}.cls-1,.cls-3,.cls-4{stroke-miterlimit:5.97;}.cls-2,.cls-3{fill:#fff;}.cls-3{stroke:#202020;stroke-width:0.75px;}.cls-4{fill:#1166b0;}.cls-5{fill:#202020;}.cls-10,.cls-5,.cls-6,.cls-7,.cls-8,.cls-9{fill-rule:evenodd;}.cls-6{fill:#e84431;}.cls-7{fill:#fffefe;}.cls-8{fill:#69b42e;}.cls-9{fill:#edc282;}.cls-10{fill:#fae042;}.cls-11{font-size:21px;}.cls-11,.cls-12,.cls-13{font-family:Impact;}.cls-12{font-size:24.77px;}.cls-13{font-size:20px;}</style></defs><rect class="cls-1" x="-9.21" y="-8.63" width="214.01" height="297.89"/><g id="g3564"><g id="g3503"><path id="path2644" class="cls-2" d="M96,11.56c-8.7,0-17.4.24-20.17.75A161.23,161.23,0,0,0,53,18.49c-2.78,1.07-6.18,2.34-7.57,2.82l-2.52.88V51.05l2.59,2.67c5.81,6,5.71,14.92-.23,21l-2.36,2.42,0,8.87c0,12.07,1,17.42,4.31,23.57,3.39,6.37,9.28,10.45,23.07,16,4.74,1.91,9.22,4,12.94,5.87a74.62,74.62,0,0,1,12.64,8.21,103.8,103.8,0,0,1,14.94-9.39c1.9-.9,7.44-3.3,12.33-5.32,10.82-4.48,14-6.32,17.84-10.47,6.2-6.63,7.93-12.76,8-28.23l0-9.16L147,75c-6.18-6.37-6.37-15.25-.44-21.34l2.52-2.61V22.14l-2.52-.86c-1.39-.47-4.79-1.72-7.57-2.79a161.6,161.6,0,0,0-22.82-6.18C113.39,11.8,104.69,11.56,96,11.56Zm-.53,2.69c17.59,0,21.26.33,31.08,2.92,5.93,1.56,18.52,6,19.74,7,.5.4.66,3.71.66,13.26V50.17l-2.07,2.36c-3.31,3.76-4.5,6.71-4.53,11.34s1.39,8.14,4.73,12.05l1.87,2.19v7.16c0,12.4-1.5,19.47-5.32,25.18-3.43,5.12-7.94,7.92-22,13.63-8.58,3.48-13.74,6.18-19.46,10.19a50.43,50.43,0,0,1-4.24,2.8c-.1,0-2.16-1.42-4.56-3.12-5.44-3.83-10.63-6.52-19.51-10.1-22.17-8.94-25.9-14-26.64-36.22l-.31-9.41,2-2.2a17.23,17.23,0,0,0,4.77-12.16,14.81,14.81,0,0,0-4.44-11.3L45,50.21V37.47c0-9.56.16-12.89.66-13.29.94-.75,13-5.14,18.44-6.68C73.94,14.69,78.05,14.27,95.46,14.25Z"/><path id="path2640" class="cls-3" d="M96.11,25.13C94.27,29.28,93.34,34,91.19,38c-.37,1.16-1.54,2.55-1,3.74,1.22.54,2.7-1,3.76-.2.88,2.67.42,5.66.64,8.46-.18,2.7.53,5.68-.57,8.22-1,1.27-2.94-.15-4.08-.63-3.74-2.1-8.86-3.48-12.57-.55-4.61,3.31-6.39,9-7.4,14.37-.86,3.75-2.07,8.24-5.81,10-1.91,1-4.38-1.39-3-3.2.83-1.47,3.34-1.41,3.71-3.12-.58-2.16-3.49-2.83-5.24-1.61-4,1.59-5.51,7.22-2.59,10.4a7.35,7.35,0,0,0,5.74,2.62c3.16,1.58,5.37,4.58,8,6.92,8.5,8.43,16.68,17.27,25.43,25.36,10.58-9.69,20.21-20.55,30.73-30.35,1.2-1.08,2.49-2.28,4.23-2.09,4.84-.57,7.24-6.93,4.38-10.82-1.56-2.34-5.48-3.71-7.61-1.36a1.58,1.58,0,0,0,1.36,2.54c2,.34,3.35,3.51,1.31,4.64-2.5,1.12-5-1-5.84-3.26-2.91-5.88-2.74-13.28-7.05-18.43-2.53-3.12-6.61-5.37-10.63-4.1-2.85.54-5.06,2.83-7.86,3.29-1.62-.43-1.16-2.75-1.31-4,.17-4.36-.19-8.82.56-13.12.58-1.1,2,.13,3,0,.62.15,1.73.12,1-.81a111.57,111.57,0,0,1-5.29-13.55A11.43,11.43,0,0,0,96.11,25.13ZM84,63.5c3.46,0,6.67,1.36,9.83,2.63,0,9.59.41,19.2,0,28.78C93.92,96.84,92,98,92.1,100c-.31,2.84.31,5.93-.61,8.63-1,.26-1.75-1.4-2.57-1.9-6.48-6.71-13-13.45-19.25-20.38-.88-.87-1.19-2.21,0-3.07a41.75,41.75,0,0,0,6.56-13c1.1-3,3-6.51,6.66-6.72C83.25,63.52,83.65,63.51,84,63.5Zm24,0a6.89,6.89,0,0,1,6.75,3.77c2.16,3.8,2.71,8.36,5.24,12,1,2,2.84,3.53,3.83,5.54-5.23,6.23-11,12.09-16.59,18-2,1.94-3.84,4.2-6,5.89-1.08-.88-.46-2.75-.75-4,0-2.73.26-5.8-1.75-8-1.64-1.56-.64-3.93-.88-5.93q.11-12.33.24-24.68C101.35,65,104.55,63.54,108.06,63.51Z"/></g><path id="path3535" class="cls-4" d="M95.46,14.25c17.59,0,21.26.33,31.08,2.92,5.93,1.56,19.21,6.11,20.43,7.09V50.17l-2.1,2.36c-3.31,3.76-4.5,6.71-4.53,11.34s1.39,8.14,4.73,12.05l1.87,2.19v7.16c0,12.4-1.5,19.47-5.32,25.18-3.43,5.12-7.94,7.92-22,13.63-8.58,3.48-13.74,6.18-19.46,10.19a50.43,50.43,0,0,1-4.24,2.8c-.1,0-2.16-1.42-4.56-3.12-5.44-3.83-10.63-6.52-19.51-10.1-22.17-8.94-25.9-14-26.64-36.22l-.31-9.41,2-2.2a17.23,17.23,0,0,0,4.77-12.16,14.81,14.81,0,0,0-4.44-11.3L45,50.21v-26C46,23.43,58.75,19,64.14,17.5,73.94,14.69,78.05,14.27,95.46,14.25Z"/><path id="path3531" class="cls-3" d="M95.83,24.07c-2.45,10.5-3,10.78-6.51,17.62,3.32,0,5.31-1.52,5.31-5.21V60C92.2,60,87,55.43,82.17,55.54A7.53,7.53,0,0,0,77.34,57c-4.61,3.31-6.39,9-7.4,14.37C69.08,75.11,67.61,81,63.6,82c-3.09.81-3.81-1.35-3.36-3.59.73-3.55,4.19-1.72,4.1-3.43-.11-2.17-2.8-2.46-4.7-1.53a7.42,7.42,0,0,0-4.22,6.22,6.22,6.22,0,0,0,1.63,4.18c1.38,1.79,4.54,2,6.72,2.08L95.9,118.78l31.95-32.7c6.46.54,9.92-4.54,7.47-10.23-1.56-2.34-5.26-4-7.39-1.69-1,1.1.3,2.34,1.57,2.32,2,.35,3.14,3.73,1.1,4.86-2.5,1.12-6-1.31-7-3.48-2.74-6-2.11-12.6-6.39-17.78-2.16-2.61-4.9-4.67-8.16-4.72-3.44,0-7.74,3.61-12,4.61V36.48c0,3.85,2.15,5.17,5.31,5.17C99.19,35.73,98.73,35.11,95.83,24.07ZM83.5,62.73c3.46-.07,8,1.59,11.13,2.86V96.24l-2.42,2.62v12.06L67,84.73c4.6-3.14,6.59-9.52,8-14.3C76.22,66.58,79.38,62.81,83.5,62.73Zm24.45,0c4.4-.17,6.74,3.78,8.19,7.37,2,5,4.66,10.91,8.83,14.61L99.59,110.92V99l-2.45-2.72V65.64C100.37,64.43,104.45,62.89,108,62.75Zm-15.7,38L94.32,99m-2.07,5.55,2.07-1.77m-2.07,5.55,2.07-1.76m-2.07,4.64,2.07-1.77m3.08,0,2.08,1.77m-2.08-4.88,2.08,1.77M97.4,102.8l2.08,1.77m-2.08-5.4,2.08,1.77"/></g><path class="cls-2" d="M149.52,268.83v-75c0-29.5-24.26-53.55-54-53.55s-53.91,24-53.95,53.46h0l0,75.06Z"/><path id="path14" class="cls-5" d="M46.57,194.32c0-27.32,22.5-49.6,50.06-49.6S146.76,167,146.76,194.4V264H46.55l0-69.64"/><path id="path16" class="cls-6" d="M43.42,194.24a52.27,52.27,0,0,1,104.53.09v73.19H43.4l0-73.28Zm30.09,10.9a14.17,14.17,0,0,0,2.79.26c.38,0,.75,0,1.1,0l-1.23,9.89-2.66-10.11Zm15.4,35.54a15.17,15.17,0,0,0-3.37,1.49,16.6,16.6,0,0,0-1.93,1.36,1.9,1.9,0,0,0-.85,1.63,9.05,9.05,0,0,1,.09,4.17,8.55,8.55,0,0,1-3.2,4.56,17,17,0,0,1-6.76,2.42c-1.25.22-2.53.26-3.78.44a2.8,2.8,0,0,0-1.33.38c-.09.08-.24-.47-.06-.72a8.84,8.84,0,0,1-3.09.31,14.8,14.8,0,0,0-3.78.58,4.47,4.47,0,0,0-1.07.41c-.06,0-.19-.29-.08-.63a24.6,24.6,0,0,1-3.31.95,23.8,23.8,0,0,1-4.91,1,11.34,11.34,0,0,1-2.84-.3,1.63,1.63,0,0,1-.7-.39,1.84,1.84,0,0,1,.35-.62,7.46,7.46,0,0,1,2.46-1.84A18.42,18.42,0,0,1,54,254.58a14.34,14.34,0,0,1-3.58-.64c-.42-.11-1.14-.45-1.14-.57s.58-.72,1-1a17.46,17.46,0,0,1,3-1.51A23,23,0,0,1,58,249.68a22.38,22.38,0,0,1-3.52-.79,7.43,7.43,0,0,1-1.76-.7c-.26-.16-.72-.5-.72-.61s.55-.41.9-.57A13.25,13.25,0,0,1,56,246a31.54,31.54,0,0,1,3.52-.35c.76-.06,1.56-.14,2.32-.13a35.39,35.39,0,0,1-3.38-1.27,10.86,10.86,0,0,1-2-1.23c-.29-.23-.79-.64-.76-.78s.84-.46,1.27-.54a23,23,0,0,1,4.83-.44c1.36,0,2.84.29,4.19.47-1-.55-2.19-1.07-3.18-1.72a11.82,11.82,0,0,1-2.15-1.91c-.23-.25-.66-.72-.62-.79a4.79,4.79,0,0,1,1.23-.18,19.66,19.66,0,0,1,4.4.27c1.43.22,2.81.7,4.21,1.05a20.69,20.69,0,0,1-2.72-2.19,10.28,10.28,0,0,1-1.58-2,2.74,2.74,0,0,1-.39-1c.06-.11.74-.14,1.09-.14a11.31,11.31,0,0,1,4.09.92c1.28.53,2.46,1.2,3.73,1.81a24,24,0,0,1-2.46-2.29,7.48,7.48,0,0,1-1.22-2.15,2.77,2.77,0,0,1-.18-1.1,4.45,4.45,0,0,1,1.31,0,8.67,8.67,0,0,1,2.81.83,7.72,7.72,0,0,1,1.26.77,10.62,10.62,0,0,1-1.17-2.61,1.94,1.94,0,0,1,0-1,5.9,5.9,0,0,1,1.22.11,4.71,4.71,0,0,1,2.33,1c.56.47,1.12,1,1.71,1.51a17.71,17.71,0,0,1-.79-1.64,6.78,6.78,0,0,1-.44-1.76,2.63,2.63,0,0,1,.09-.79,4,4,0,0,1,1.16.2,9.52,9.52,0,0,1,2.88,1.91,20.19,20.19,0,0,1,2.42,2.58,2.2,2.2,0,0,0,.31.15c-.05-.24-.11-.48-.17-.72-.34-1.18-.54-2.3-.82-3.48-.16-.68-.34-1.29-.44-1.92a2.15,2.15,0,0,1-1.26.2c-.56-.12-.64-.75-.77-.7-.46.19-.93.31-1.36.46-1.11.38-2.17.77-3.26,1.19s-2.12.83-3.2,1.23c-.34.13-.72.46-.9.22a7.53,7.53,0,0,0-1.72.93c-.72.56-1.44,1.08-2.13,1.65s-1,.35-1.84.11c-.52-.15-1.12-.34-1.57-.5A1.75,1.75,0,0,1,64.82,229a3.35,3.35,0,0,1-.35-1.62c.08-.51.22-1,.5-1.19,0-.07,0-.13,0-.19a4.58,4.58,0,0,1,.45-1.64,11.58,11.58,0,0,0,.19-2.58,8.11,8.11,0,0,0-.23-2.61,5.16,5.16,0,0,0-.24-.63c-1.31-.09-2.57-.28-3.41-.38-1.64-.18-4-.53-4.76-.51s-.8.43-1.06.89a1.46,1.46,0,0,1-1.27.71c-.62.06-.09-1.23.37-2a1.93,1.93,0,0,1,1.08-1l-3.43-11.41c-.46-.2-.72-.43-.72-.68h0c0-2,2.07-3.72,4.61-3.72s4.61,1.67,4.61,3.72h0c0,.32-.45.62-1.19.85l-3,11.15c1,0,3.2.27,5,.33,1.37.06,2.43.06,3.37.06l.08-.21a12.16,12.16,0,0,1,1.08-2.49,13,13,0,0,1,1.12,2.5,1.08,1.08,0,0,0,.08.19c.93,0,2,0,3.32-.05,1.77-.06,4-.3,5-.33l-3-11.15c-.74-.23-1.19-.53-1.19-.85h0c0-2,2.07-3.72,4.61-3.72s4.61,1.67,4.61,3.72h0a.63.63,0,0,1-.34.48l-3.81,11.61a1.93,1.93,0,0,1,1.08,1c.46.76,1,2,.37,2a1.48,1.48,0,0,1-1.27-.71c-.27-.46-.31-.87-1.06-.89s-3.12.32-4.76.51c-.84.1-2.09.29-3.38.38a2.85,2.85,0,0,0-.22.6,11.06,11.06,0,0,0-.28,2.64,11.67,11.67,0,0,0,.19,2.58c.14.49.35.82.43,1.25a2.45,2.45,0,0,0,.81,0c.23,0,.43-.07.67-.1a6.49,6.49,0,0,1,1.46,0c.15,0,.4,0,.61,0a1.73,1.73,0,0,0,.42-.14c0-.15.16-.27.3-.37.71-.56,1.29-1,2-1.52,1.15-.81,2.25-1.69,3.45-2.43a27.82,27.82,0,0,1,3.22-1.63c.07,0-.2-.42.07-.66s.75-.15.83-.22a9.39,9.39,0,0,1,2.69-1.5c.78-.24,1.29-.16,1.69.44A5.89,5.89,0,0,1,87.22,220c0,.18.34.23.53.53s-.18.35-.13.44c.63,1.24,1.12,2.29,1.76,3.5.45.85.91,1.68,1.26,2.53s.24.77.44,0c.6-2.16,1.32-4.13,2.07-6.19a1.13,1.13,0,0,0,0-1.14c-.22-.46-.48-1-.7-1.45a.62.62,0,0,1,.17-.64,8.68,8.68,0,0,0-.43-1.08A15.68,15.68,0,0,0,91,214.85a.43.43,0,0,1,.06-.62c-.21-.45-.49-1-.73-1.41a3.61,3.61,0,0,0-1-1c-.19-.14,0-.39.15-.53a12.41,12.41,0,0,0-.75-1.39c-.36-.61-.65-.65-.68-1,0-.14.22-.29.39-.4l0,0a13.61,13.61,0,0,1-1.33-2.64c-.32-.86-.51-1.46-.83-2.33a3.46,3.46,0,0,1-.93-.76,3.6,3.6,0,0,1-.5-1.38c-.12-.62-.15-.64-.56-1a5.52,5.52,0,0,1-2-3.28,7.16,7.16,0,0,1,.69-3.75,1.86,1.86,0,0,0,.06-1.35,8.22,8.22,0,0,1-.17-1.85,1.61,1.61,0,0,1,.18-.52c0-.6-.1-1.2-.11-1.8,0-.95,0-1.91.06-2.87,0-1.41,0-2.85-.1-4.26-.06-1.21-.24-2.41-.41-3.61-.09-.65-.22-1.27-.36-1.91,0-.07,0-.14,0-.21l-1.2-.78a6.43,6.43,0,0,0-1.27-.66A3.59,3.59,0,0,1,78.14,172a4.79,4.79,0,0,1-.43-1.8,3.47,3.47,0,0,0-.24-1.11c-.85.1-1.58.26-2.14.37-.73.16-1.78.14-2.24.23l-.72.18a.76.76,0,0,0-.12.81c.2.48.4,1.12.63,1.75s.78,2.69.88,3.12c.17.72.14.73.49.93a4.18,4.18,0,0,1,.7.46,2.56,2.56,0,0,1,.36.44,8,8,0,0,1,.86,1.42,1.78,1.78,0,0,0,.66.79,3.48,3.48,0,0,1,.6.55,1.37,1.37,0,0,0,.71.36c.25.05.35,0,.49.12s.09.35.17.39a.85.85,0,0,0,.71,0c.28-.15.54-.18.46.11-.15.49-.26.72-.65.9a1.44,1.44,0,0,1-.51.15c-.16,0-.21.1-.29.22a.56.56,0,0,1-.78.15,2.53,2.53,0,0,0-.28-.22c-.17-.09-.28-.07-.22.1a.75.75,0,0,0,.22.26c.3.25.45.45.34.69a.28.28,0,0,0,0,.33.5.5,0,0,0,.4.26c.39,0,1,.16.54.52a1.53,1.53,0,0,1-1.27.34c-.21,0-.43-.06-.59-.06s-.33.14-.47.17-.26,0-.45-.26c-.07-.09-.17-.22-.22-.22s-.14.09-.13.23a.66.66,0,0,0,.18.34,1.2,1.2,0,0,0,.46.35c.21.07.36.26,0,.38a1.19,1.19,0,0,1-1.15-.13,3.18,3.18,0,0,1-.44-.49c-.12-.13-.23-.1-.33-.14-.3-.09-.4-.23-.46-.61a2.89,2.89,0,0,0-.49-1,10.09,10.09,0,0,1-.6-.83c-.18-.37-.11-.5-.26-.84,0-.13-.07-.2-.1-.19a1.19,1.19,0,0,1-.31.32,1,1,0,0,1-.94.24,1.81,1.81,0,0,1-.86-1.14,1.27,1.27,0,0,1,.4-1.09c.27-.24.28-.31.18-.72-.21-.83-.52-.79-.77-1.42s-.58-1.34-.89-2.09a15.82,15.82,0,0,0-1.11-2.32A11.42,11.42,0,0,0,66.87,172l-.07-.08c-.39.22-.73.44-.94.58-.56.42-1.76,1.88-2.09,2.17a2.59,2.59,0,0,0-.79,1c-.2.47-.95,1-1.26,1.57-.2.39-.23.68-.35.94a2.91,2.91,0,0,0,.15.56c.18.35.25.47.35.66l.68.6a10.56,10.56,0,0,0,1.77,1.42c.71.39,1.46.69,2,1.08s1.22.69,1.79,1,.43.59.84.79,1.46.3,1.66.79.54,1.29.06,1.32l-.58,0q0,.33,0,.66a12.07,12.07,0,0,1,2,.82,3.77,3.77,0,0,1,1.11,1,2.52,2.52,0,0,1,.65,1.75c-.1.72-.37.49-.52,0s-.8-.8-1.31-1a17.63,17.63,0,0,0-2.09-.57.13.13,0,0,1,0,.06,7.82,7.82,0,0,1,0,1.18,8.34,8.34,0,0,1-.1.84c.64.31,1.06.74.85,1.16a.85.85,0,0,1-.24.32,3.42,3.42,0,0,0-.84,1c-.33.46-.68.94-1.16,1s-.53.38-.78.6a.88.88,0,0,1-.93.17c-.33-.12-.43-.32-.67-.44a2,2,0,0,1-1,0,2.79,2.79,0,0,1-.91-.52,6.22,6.22,0,0,0-1.26-1c-.35-.18-.63-.15-1.36-.41a15.89,15.89,0,0,1-1.51-.69c-.3-.14-1.05.29-1.6.18s-.75-.42-1.12-.69a2.75,2.75,0,0,1-1.81-.65c-.3-.28-.48-.65-.73-.77a1.7,1.7,0,0,1-1.22-.11c-.08.15-.24.48-.42.8a4.93,4.93,0,0,1-.78,1.18c-.4.41-.57.75-.87,1.1s-.75.24-.71-.31.2-1.46.24-2a14.2,14.2,0,0,1,.21-1.58c0-.19.09-.5.11-.59a2.14,2.14,0,0,0-.48.18,15.23,15.23,0,0,0-1.58,1c-.41.36-1,.74-1.49,1.11-.91.62-1.3.49-1.22-.3a9.64,9.64,0,0,1,.43-2.2c.24-.71.69-1.68.93-2.49a4.36,4.36,0,0,1,1-1.79,2.84,2.84,0,0,1,1-.56,1.13,1.13,0,0,0,0-.54,5.83,5.83,0,0,0-.66-1.78c-.32-.63-.49-1,0-1.33a16.08,16.08,0,0,1,1.28-1c.46-.26.53-.39.48-1.1s-.09-1.56-.13-2.19c-.05-.78-.08-1,.45-1.35s1.48-1.1,2-1.41a1.64,1.64,0,0,0,.63-1.36c.05-.55.09-1.64.17-2.51s0-1.13.79-1.39,1.38-.45,1.73-.58a1.51,1.51,0,0,0,1.07-1c.13-.77.38-1.81.56-2.81s.36-1.1,1.24-1.35a15.23,15.23,0,0,1,2-.46c.81-.14,1.11-.37,1.11-.92a7.92,7.92,0,0,1,.07-1.23c.06-.41.09-.56-.19-.88-.44-.48-.08-1.19.3-1.58a5,5,0,0,1,1.82-1,2.52,2.52,0,0,0,1.47-1,4.79,4.79,0,0,1,2-1.38,3,3,0,0,0,1.28-.91,5.29,5.29,0,0,1,1.56-.83c.64-.27.55-.41.82-.92A4.22,4.22,0,0,1,73.21,150a8.68,8.68,0,0,1,2-.68c1.1-.19,1.78,0,2.84-.55s8.25-1.93,11.28-2c3.27-.1,6.51-.68,8.35-.65s7.15.85,9.44,1a59.9,59.9,0,0,1,10.46,2c1.72.59,3.65,1.78,3.67,3.11a1.45,1.45,0,0,1-.65,1.38c-1.06.53-1,0-.65-.37s0-1.19-.59-1.56a3.93,3.93,0,0,0-2.06-.61,4.09,4.09,0,0,0-2,.53h0a12,12,0,0,1,1,.82,13.39,13.39,0,0,0,3.69,2.15c1.54.62,4.21,2.16,6.78,3.59a33,33,0,0,1,7.49,5.54,17.54,17.54,0,0,1,4.26,6.73,18.42,18.42,0,0,1,.84,7.57,12.51,12.51,0,0,1-1.8,5.39,9.57,9.57,0,0,1-4.81,4.22A19.5,19.5,0,0,1,126,189a7.08,7.08,0,0,0,2.73,2.42,39.17,39.17,0,0,0,6.46,2.51,10.88,10.88,0,0,1,4.31,2.21,4.31,4.31,0,0,1,1.43,4c-.58,2-1,1.23-.92.31a2.57,2.57,0,0,0-.51-1.95,4.16,4.16,0,0,0-3.18-1.74c-1.54-.17-3.85-.51-5.34-.82a13.23,13.23,0,0,1-4.2-1.64,13.79,13.79,0,0,1-3.46-2.84c-.63-.79-1.54-1.85-2.31-2.91-1.16-.21-2.1-.41-3-.61s-1.55-.41-2.4-.57c0,.11,0,.22,0,.33-.11.78-.28,1.55-.46,2.32-.1.44-.24.88-.34,1.31,0,.2,0,.4.06.56a2.93,2.93,0,0,1-.12,1.09,1.37,1.37,0,0,0,.06.91,4.5,4.5,0,0,1,.31,2.37,4.3,4.3,0,0,1-1.13,2.59,1,1,0,0,0-.29.64.8.8,0,0,1-.09.3c0,.05,0,.09,0,.13a47.58,47.58,0,0,1-.93,5.42c-.15.59-.27,1.09-.42,1.68a5.09,5.09,0,0,1,.82.53c.19.14.48.42.47.62s-.26.26-.53.73-.61,1-.79,1.45c0,0,.18.16.27.26s-.27.37-.38.57a6.76,6.76,0,0,0-.55,1c-.28.7-.53,1.48-.81,2.16.1.09.3.19.28.35a2.53,2.53,0,0,1-.39.79c-.23.46-.39.94-.6,1.39s-.49,1-.75,1.65c.3.18.2.53,0,1a6.74,6.74,0,0,1-.84,1.26c-.43.53-.56.5-.48,1.43.06.65.13,1.23.2,1.85a44,44,0,0,1,.39,4.71c0,.27,0,.88,0,.84a15.67,15.67,0,0,0,1.06-1.19c.92-1.09,1.79-2.2,2.75-3.22.71-.74,1.55-1.41,2.27-2.07,0,0-.2-.31-.07-.49s.45-.18.47-.3a14.11,14.11,0,0,1,.39-2.25,1.16,1.16,0,0,1,1.17-.9c1.23,0,1.74,0,2.14,0,.09,0,.36-.45.55-.5.37-.09.57.2.61.16a20,20,0,0,1,4.63-2.75c1.4-.63,2.72-1.32,4.1-2,.15-.07.3-.18.46-.26s.2-.12.24,0,.15,0,.19-.13a3.14,3.14,0,0,1,.18-.31,2.24,2.24,0,0,1,.77-.68,7.2,7.2,0,0,1,1.22-.36c-.1-.54-.15-.88-.22-1.37a1.3,1.3,0,0,1-.66-.79,1.72,1.72,0,0,1,3.25-.94,1.3,1.3,0,0,1-.14,1c.09.2.53,1.06.62,1.28a3,3,0,0,1,.42-.05.61.61,0,0,1,.56.46c.09.22.11.3.06.42s0,.08.11.09a.67.67,0,0,1,.59.47c.13.31.21.47.06.65s-.1.09,0,.11.32.34.37.67.07.49-.14.69-.12.06.05.11.2.3.16.68a.78.78,0,0,1-.6.8l.1.37c1.39-.32,2.8-.56,4.19-.8l.82,2.05a12.24,12.24,0,0,0-3.82,0l-.36.07.31,1.07,7.05,25.21c.73,2.59.34,6.87.06,7s-2.9-3.33-3.67-5.9l-7.53-25.07-.31-1.08-.34.14a13,13,0,0,0-3.24,2l-.4-2.18c1.3-.54,2.63-1.09,4-1.56,0-.08,0-.16-.07-.23a3.5,3.5,0,0,1-1.29-.16c-.09-.05-.42-.05-.53-.1s-.22-.06-.25,0a.35.35,0,0,1-.25.25,9,9,0,0,0-2.24,1.12c-1.24.79-2.36,2.08-3.54,3s-2.2,1.68-3.37,2.62c-.06.05.36,1.18-.45,1.89s-1.75,0-1.8.09c-.58.71-1,1.62-1.57,2.38-.3.43-.6.84-.9,1.25a7.34,7.34,0,0,1-.7,1.47A15.88,15.88,0,0,1,115,233c.68-.36,1.33-.82,2-1.18a4.71,4.71,0,0,1,2.47-.57,6.27,6.27,0,0,1,1.23.11,1.93,1.93,0,0,1-.17,1,11.16,11.16,0,0,1-1.62,2.37,6.73,6.73,0,0,1,1.37-.54,9,9,0,0,1,2.91-.31,4.24,4.24,0,0,1,1.29.28,2.82,2.82,0,0,1-.37,1,7.69,7.69,0,0,1-1.59,1.9,27,27,0,0,1-2.83,1.81c1.35-.37,2.63-.82,4-1.11a11.18,11.18,0,0,1,4.19-.16c.35.06,1,.21,1,.33a2.88,2.88,0,0,1-.57.92,10.35,10.35,0,0,1-1.92,1.7,21.12,21.12,0,0,1-3.07,1.67c1.44-.09,2.89-.32,4.34-.28a19.34,19.34,0,0,1,4.36.53,4.15,4.15,0,0,1,1.18.4c0,.08-.48.46-.74.66A12,12,0,0,1,130,245c-1.08.46-2.33.76-3.43,1.11a41.92,41.92,0,0,1,4.2.3,22.43,22.43,0,0,1,4.68,1.3c.4.16,1.15.61,1.15.76s-.56.45-.89.63a10.8,10.8,0,0,1-2.19.85,33.19,33.19,0,0,1-3.56.64c.76.12,1.53.35,2.27.54a32.16,32.16,0,0,1,3.39,1,13.35,13.35,0,0,1,2.93,1.57c.31.22.82.6.79.73a2.32,2.32,0,0,1-.83.47,7.31,7.31,0,0,1-1.86.37,22.71,22.71,0,0,1-3.59.15,22.54,22.54,0,0,1,4.44,2,16.06,16.06,0,0,1,2.67,2,2.87,2.87,0,0,1,.78,1.12,2.8,2.8,0,0,1-1.23.36,15.28,15.28,0,0,1-3.64,0,16.87,16.87,0,0,1,3,1.8,7.5,7.5,0,0,1,2.09,2.26,1.75,1.75,0,0,1,.24.67,1.51,1.51,0,0,1-.77.26,11.68,11.68,0,0,1-2.83-.22,23.54,23.54,0,0,1-4.67-1.82,25.22,25.22,0,0,1-3.08-1.52c0,.35-.14.64-.19.6a4.93,4.93,0,0,0-1-.6,15,15,0,0,0-3.61-1.25,8.86,8.86,0,0,1-3-.86c.13.27-.12.8-.19.7a2.79,2.79,0,0,0-1.24-.62c-1.2-.4-2.45-.67-3.64-1.11a17.08,17.08,0,0,1-6.21-3.6,8.53,8.53,0,0,1-2.33-5.06,9.13,9.13,0,0,1,.84-4.09,1.89,1.89,0,0,0-.54-1.75,19,19,0,0,0-1.65-1.69l-.07-.06-.06.19a1.4,1.4,0,0,1-1.1.79,1.83,1.83,0,0,1-1.27-.71,14.47,14.47,0,0,1-1.24-1.8c-.19-.3.17,1,.13,1.46s-.23,1-.25,1.52a11.34,11.34,0,1,1-14.24-2.8A1.17,1.17,0,0,1,89,241a2.46,2.46,0,0,0,0-.28ZM59.2,205.16a14.41,14.41,0,0,1-2.45.24l-.1,9.74,2.55-10Zm-3.09.23a13,13,0,0,1-2.65-.31l2.62,9.36,0-9.05ZM78,205.31a9.43,9.43,0,0,0,1.82-.36l-3,9.6L78,205.31ZM67.59,227a1.29,1.29,0,0,1-1.18.61h0a1.46,1.46,0,0,1-.44-.06h0c0,.21.4.76.4,1a3.31,3.31,0,0,0,1.2.07c.43-.07.59-.59.59-1s-.21-.46-.53-.58Zm44.89-57.23c-.39.5-1.08,1.49-1.62,2.24a19.5,19.5,0,0,0-1.77,3.28,8.22,8.22,0,0,1-.4,1.08c0,.2,0,.41,0,.54a1.84,1.84,0,0,1-.83,1.22,7.7,7.7,0,0,1-1.63.65c-.24.08-.45.14-.65.22s-.24.22-.35.34-.33.17-.44.39a2.44,2.44,0,0,1-.56.62c-.36.25-.47.3-.55.5s.13.3.19.61a.54.54,0,0,1-.2.66c-.21.11-.29.2-.32.35a.65.65,0,0,0,.11.63c.21.21.32.27,0,.41a1.11,1.11,0,0,1-1,0,1,1,0,0,1-.62-.6c-.09-.3-.11-.35-.26-.35a.24.24,0,0,1-.27-.22.43.43,0,0,0,0-.17c-.07.13-.24.1-.31.18s-.13.28-.13.55a.83.83,0,0,0,.18.55c.18.2.17.34-.22.31a1.1,1.1,0,0,1-.85-.45,1.31,1.31,0,0,1-.33-1c0-.3,0-.34-.06-.49s-.29-.27-.28-.54a1.33,1.33,0,0,1,.06-.28.36.36,0,0,0-.45.08.62.62,0,0,0-.19.58c0,.29,0,.41-.32.21a1,1,0,0,1-.56-.71,1.41,1.41,0,0,1,.07-.87c.16-.22.21-.26.18-.53a1,1,0,0,1,.09-.66,2.29,2.29,0,0,1,.69-.56,5.15,5.15,0,0,0,.78-.59,1.85,1.85,0,0,1,.9-.58,5.34,5.34,0,0,0,1.07-.5,6.41,6.41,0,0,0,1.06-.8,6.87,6.87,0,0,1,1.16-.83,5.29,5.29,0,0,0,1.11-1.05,5.78,5.78,0,0,1,.44-1.09,15.37,15.37,0,0,0,.66-1.78c.17-.56.42-.91.56-1.45a1,1,0,0,0-.14-.74,16.2,16.2,0,0,1-1.7.18c-1.73.1-3.37.64-5.43.8h0a27.07,27.07,0,0,1-4.67.06c-1-.18-4.22-.36-5.14-.55s-1.49-.18-1.94-.27a1.42,1.42,0,0,1,.38,1,9.19,9.19,0,0,1-.21,2.14,11.25,11.25,0,0,0-.32,1.75,1.58,1.58,0,0,0,.36-.31,1.3,1.3,0,0,0,.26-.7,1,1,0,0,1,.39-.6.66.66,0,0,1,.52,0,.58.58,0,0,0,.55-.23,1.5,1.5,0,0,0,.32-.82c-.06-.37.25-.33.47-.18a1.43,1.43,0,0,1,.47.48,1.22,1.22,0,0,1,.08,1c-.12.21,0,.38,0,.49a1.25,1.25,0,0,1,.36.08,1.07,1.07,0,0,0,.49-.29.91.91,0,0,0,.21-.53c0-.21.17-.17.38.11a1.32,1.32,0,0,1,.24.85,2,2,0,0,1-.19.75.26.26,0,0,0,0,.27.42.42,0,0,1,0,.38c-.11.33.21.25.41.17a.77.77,0,0,0,.5-.59c.06-.29.38.1.43.47a1.49,1.49,0,0,1-.15,1,2.08,2.08,0,0,1-.57.58c-.21.14-.16.39-.32.55a1.42,1.42,0,0,1-.68.27c-.25,0-.65.13-1,.15s-.73,0-1,0a8.21,8.21,0,0,0-1.2.14,3.47,3.47,0,0,0-.84.37c.18.58.39,1.16.61,1.73.33.86.66,1.69.91,2.57a30.51,30.51,0,0,1,.88,3.54,19.53,19.53,0,0,1,.31,3.14,18.76,18.76,0,0,1-.2,2.9.28.28,0,0,1,0,.09c.78,0,1.3,1.14,1.51,1.8s.35,1.75-.23,2.14a.66.66,0,0,1-.32.08c.23.29.46.58.71.86a31.15,31.15,0,0,1,2.47,3.18c.73,1.1,1.46,2.26,2.12,3.42.3.52.59,1,.85,1.59h0a11.76,11.76,0,0,1,2.64-.21c.76,0,1.51.33,2.23.37h.06c.25-.88.52-1.73.82-2.6.49-1.46,1-3,1.54-4.36l.9-2.11a.82.82,0,0,1-.27,0c-.53-.08-.51-1.84-.35-2.64s.73-1.81,1.46-1.74a.5.5,0,0,1,.39.39c0-.25,0-.5.06-.76.11-1.15.17-2.32.32-3.47a11.24,11.24,0,0,1,.59-2.28c0-.07.05-.14.07-.21a4.16,4.16,0,0,1-2.57-2.52,2.93,2.93,0,0,1,.34-2.77,4,4,0,0,1,2.43-1.2,15.46,15.46,0,0,1,2.47-.3c.25-.74.57-1.48.81-2.23a28,28,0,0,0,.86-3.39,18,18,0,0,0,.12-2.21c0-.4,0-.82,0-1.21ZM69.17,186.41a2.4,2.4,0,0,1-.55-.16l-.36-.16c-.14.17-.3.41-.4.56v0l.44.07.92.15c0-.17,0-.34,0-.5Zm-7.42-4c-.23-.18-.46-.37-.7-.58a2.13,2.13,0,0,0-2-.73l-.09,0c.17.14.35.3.6.53a17.89,17.89,0,0,1,1.49,1.59A10.11,10.11,0,0,0,63.13,185a13.87,13.87,0,0,0,2.75,1.34,8.22,8.22,0,0,0,.87.2A2.74,2.74,0,0,1,67,186c.13-.24.12-.43-.21-.35a2.19,2.19,0,0,0-.73.2c-.34.2-.45.17-.43-.08s-.07-.3-.06-.47.14-.25-.23-.19a1.16,1.16,0,0,0-.48.11c-.33.18-.32.11-.32-.07s-.25-.38-.19-.62.11-.41,0-.38-.43,0-.61.11-.25.08-.41.12-.31.11-.29-.14a1.53,1.53,0,0,0-.1-.57c0-.16.1-.49-.1-.43s-.39,0-.52.08-.36,0-.36-.14-.12-.32-.14-.47a2,2,0,0,1,0-.28Zm6.13,8.24h0a9,9,0,0,1,.21-1c.09-.35.17-.61.26-.89h0l.74.11.14,0A6.2,6.2,0,0,1,69,190c-.08.22-.19.48-.29.74-.26-.05-.52-.08-.78-.12Zm-.45-2-.06.12c-.11.22-.33.62-.47,1a5.71,5.71,0,0,1-.26.64l0,0-.14,0v-.12a7.46,7.46,0,0,0-.1-1c0-.28-.15-.48-.34-.34s-.21.12-.48.3-.31.16-.31-.09a1.55,1.55,0,0,0-.07-.47.36.36,0,0,0-.29-.26,1.15,1.15,0,0,0-.45,0c-.18,0-.18,0-.18-.17s0-.29-.16-.41-.32-.3-.47-.3a1,1,0,0,0-.46.06c-.16.06-.26,0-.28-.23a2.15,2.15,0,0,0-.14-.45c-.05-.17-.1-.24-.26-.24s-.39-.1-.6-.1a1,1,0,0,0-.5.06l-.09,0c-.22-.22-.44-.46-.7-.7a9.07,9.07,0,0,1-1.87-2.5,3.5,3.5,0,0,1-.13-1.41l.43.35c.52.47,1.15,1.15,1.74,1.8a26.78,26.78,0,0,0,2.36,2.2,14.94,14.94,0,0,0,3.07,2,8.5,8.5,0,0,0,1.25.33Zm49.19-9.19a12.41,12.41,0,0,1,1.8.89,13.82,13.82,0,0,1,3.9,3.45c.19.22.33.43.48.62a11.81,11.81,0,0,0,4.41.2,7.29,7.29,0,0,0,4.72-2.67,8.93,8.93,0,0,0,1.53-5.13,13.33,13.33,0,0,0-1.43-5.43,6.57,6.57,0,0,0-3.95-3.47,13.29,13.29,0,0,0-5.08-1.1,12.49,12.49,0,0,0-2.67.41,10.65,10.65,0,0,1-.77,1.2c-.43.58-1,1.19-1.43,1.8a6.93,6.93,0,0,0-1.18,3.32c-.15,1.44-.16,2.89-.24,4.33,0,.53,0,1.06-.08,1.58"/><path id="path18" class="cls-7" d="M96.81,251.39a.8.8,0,0,0,0-.29.58.58,0,0,0-.09-.28c-.06-.08.08,0,.18,0a.93.93,0,0,1,.21.19,1.3,1.3,0,0,1,.12.21c0,.06,0,.09-.1.1l-.35,0Zm-5.54-1.7a.67.67,0,0,1,.14-.23.48.48,0,0,1,.27-.18s-.1,0-.2,0a.63.63,0,0,0-.27,0l-.19.07c-.06,0-.09,0,0,.17s.22.21.23.18Zm5,1a1,1,0,0,0-.27.16.68.68,0,0,0-.14.18s0,0-.08-.07l-.12-.19c0-.06-.15-.19,0-.18a2.37,2.37,0,0,0,.24,0l.28,0c.12,0,.17,0,.11.06Zm-4.1-1.24a.76.76,0,0,1,.12.24.87.87,0,0,1,0,.2s0,0,.1,0l.2-.09c.07,0,.21-.07.1-.13l-.2-.13-.24-.1c-.1,0-.14,0-.1,0Zm-24.5-58.82c0-.22.11-.55.17-.81s.14-.58.25-.87a4.31,4.31,0,0,0,.18-.57c0-.18,0-.32-.21-.13a2,2,0,0,0-.57.72c-.18.35-.46.88-.55,1.11s-.16.38-.15.38A4.1,4.1,0,0,0,67.64,190.61Zm1.93.45c-.17-.08-.49-.18-.64-.23s.07-.26.13-.51.28-1.08.33-1.35l.37.06c0,.33,0,.67,0,1s0,.52-.08.7-.07.38-.1.36ZM68,186c-.15-.09-.49-.2-.69-.31a2.23,2.23,0,0,0-.22.45,7.15,7.15,0,0,0-.37,1,6.11,6.11,0,0,0-.2.94c0,.2.09.35.27,0a9.12,9.12,0,0,1,.5-.85c.18-.29.32-.54.45-.72A1.78,1.78,0,0,0,68,186Zm-1.8,4.28a4.24,4.24,0,0,1-.93-.46c-.19-.13,0-.16.11-.28s.33-.22.47-.35.27-.23.3-.05.06.57.08.75,0,.42,0,.39Zm-1.34-.7c-.29-.2-.78-.46-1.09-.7a7.6,7.6,0,0,1-1.09-.93s.08,0,.31-.13a2,2,0,0,1,.5-.12c.18,0,.5.14.52.34s0,.36,0,.49,0,.16.17.08a1.37,1.37,0,0,1,.48-.09c.15,0,.36,0,.37.23a3.08,3.08,0,0,1,0,.61c0,.15,0,.31-.15.22Zm-2.41-1.78c-.35-.33-.72-.63-1-.94-.11-.11.06-.13.3-.14s.28.06.48.05.34.09.33.28a4.7,4.7,0,0,1,0,.53c0,.18-.11.24-.13.22Zm4.29-2.42c-.15-.1-.51-.31-.84-.54s-1-.62-1.29-.81-1.15-.5-1.38-.68-.17-.2-.19,0,0,.29,0,.58,0,.4.2.3a2.82,2.82,0,0,1,.58-.16,1.46,1.46,0,0,1,.4,0c.18,0,.29,0,.29.13a2.54,2.54,0,0,0-.06.5,1.19,1.19,0,0,0,.07.31.42.42,0,0,1,0,.15c0,.1,0,.11.14,0a.77.77,0,0,1,.45-.15c.18,0,.21,0,.4,0s.2,0,.13.16,0,.21,0,.44,0,.35.22.23a4,4,0,0,1,.56-.18c.21-.09.41-.11.26-.2Zm-4-2.37a5.51,5.51,0,0,1-.75-.45c-.14-.13-.08.07,0,.2s0,.19.06.29,0,.17.25.11.59-.08.48-.15Zm-5.42,7.23a1.11,1.11,0,0,0,.21-.8c0-.15,0-.08.09,0a1.5,1.5,0,0,1,.2.4c.06.26,0,.32-.15.38a.48.48,0,0,1-.35,0Zm-1-.71a.68.68,0,0,1,.56-.56c.28,0,.2,0,0-.11a4.29,4.29,0,0,0-.57-.32c-.2-.08-.22-.16-.24.08a1.57,1.57,0,0,0,0,.54.74.74,0,0,0,.19.37Zm53.93,50.36a5.6,5.6,0,0,1-1.27.87,2.63,2.63,0,0,0-1.65,1.71,13.43,13.43,0,0,1,2.35,2.43,1.62,1.62,0,0,1,.11,1.86,7.76,7.76,0,0,0-.55,4.26,7.21,7.21,0,0,0,2.57,4.84,18,18,0,0,0,5.62,3.06c1.21.46,2.48.74,3.69,1.14.47.15.58.51.64.28a1.51,1.51,0,0,0-.2-1.13,5.56,5.56,0,0,0-1.57-1.6,11.89,11.89,0,0,0-3.34-1.53,5.16,5.16,0,0,1-1.57-.5,6.1,6.1,0,0,0,2.38-.56,2.67,2.67,0,0,0,.89-.8,2.3,2.3,0,0,0-.83-.74,10,10,0,0,0-2.61-.91,4.09,4.09,0,0,0,1.58-.9,2.3,2.3,0,0,0,.45-.6,2.6,2.6,0,0,0-.88-.79,5.35,5.35,0,0,0-2-.53,5.12,5.12,0,0,0,1.77-1,2.31,2.31,0,0,0,.56-.91c0-.11-.46-.4-.71-.5a3.48,3.48,0,0,0-1.94-.16,10.2,10.2,0,0,0,1.52-1.35,2.41,2.41,0,0,0,.48-.94,2.3,2.3,0,0,0-1-.43,3.92,3.92,0,0,0-2,.16,6.17,6.17,0,0,0,1.19-1.26c.18-.26.46-.79.39-.89a2.51,2.51,0,0,0-.95-.34,4.67,4.67,0,0,0-2.2.22,5.74,5.74,0,0,0,1-1.52,1.94,1.94,0,0,0,.17-1,2.08,2.08,0,0,0-.94-.15,9.46,9.46,0,0,0-1.17.18Zm6.84,10.62c.21,0,2.94-.08,3.82,0a8.63,8.63,0,0,1,4.4,1.65c.22.16.63.49.6.58a2.63,2.63,0,0,1-.78.39,8,8,0,0,1-3.69.48,4.9,4.9,0,0,0-1.15,0c.42.16,1,.28,1.44.42,1.89.56,3.87,1,5.33,2.27.2.17.56.49.55.56a1.8,1.8,0,0,1-.79.43,6,6,0,0,1-2.26.19,26.09,26.09,0,0,1-2.77-.42c-.25-.05-.65-.15-.8-.06a3.4,3.4,0,0,0,.81.31c1.28.4,2.62.74,3.86,1.22a6.17,6.17,0,0,1,3.5,2.72,1.76,1.76,0,0,1,.19,1c0,.26-.26-.18-.77-.42a13.75,13.75,0,0,0-2.59-.92c-1-.25-2-.3-2.92-.57-.3-.08-.79-.34-.87-.64a2.06,2.06,0,0,0-.39-.94,10.06,10.06,0,0,0-2-1.77,12.73,12.73,0,0,0-2.06-1c-.26-.11-.54-.15-.79-.28a15,15,0,0,0,1.41-.77,1.61,1.61,0,0,0,.49-.63,2.22,2.22,0,0,0-.55-.77,5.9,5.9,0,0,0-1.35-.79c-.27-.11-.55-.19-.82-.28a8.9,8.9,0,0,0,.81-.63c.19-.2.55-.57.55-.67a1.81,1.81,0,0,0-.44-.65Zm6.68,1.86a4.11,4.11,0,0,0-.82-.22c-1.23-.16-2.48-.27-3.72-.35-.25,0-.79-.07-.76.06,0,.3.48.29.75.3,1.2.07,2.47.13,3.69.24.28,0,1.13.08.86,0Zm1.81,4.12a1.28,1.28,0,0,0-.57-.34,29.48,29.48,0,0,0-3.13-.67c-.64-.11-1.28-.25-1.92-.33-.16,0-.47,0-.46.12s.3.22.48.27c.63.16,1.28.23,1.92.33,1,.15,2,.25,2.94.45.24.05.82.27.74.17Zm-2.9,2.89a13.25,13.25,0,0,0,2.34.54,12.29,12.29,0,0,1,1.58.43c.17.06.61.36.51.21a1,1,0,0,0-.45-.38,8.73,8.73,0,0,0-1.65-.58,18.54,18.54,0,0,1-2.15-.5c-.18-.06-.6-.25-.56-.07S122.56,259.32,122.72,259.38Zm-5.65-9.15c-.38-.2-.6-.27-1-.43s-.5-.18-.74-.26a3.63,3.63,0,0,0,.74-.48,3.13,3.13,0,0,0,.84-1c0-.09-.15-.42-.38-.59.71,0,1.57-.05,2.29-.09a10.82,10.82,0,0,1,4,.55,5,5,0,0,1,1.23.54c0,.14-.64.46-1,.65a11.81,11.81,0,0,1-2.22.81,22.72,22.72,0,0,1-3.79.31Zm5.41-1.72a2.8,2.8,0,0,0-.88-.11c-1.12,0-2.23,0-3.32.08-.22,0-.64,0-.61.23s.42.19.64.18c1.12-.08,2.22-.12,3.31-.19.29,0,1.07-.12.86-.19Zm-7.35-1.86a10.45,10.45,0,0,1,1.06.4,21.63,21.63,0,0,0,2.52-.51,7.82,7.82,0,0,0,2.81-1.6c.21-.17.6-.49.57-.57s-.44-.25-.68-.28a16.23,16.23,0,0,0-3.26-.25,12.53,12.53,0,0,0-2.3.59,1.72,1.72,0,0,1,.44.27,1.69,1.69,0,0,1-.18.55,9.94,9.94,0,0,1-1,1.4Zm5.69-2.05a3.13,3.13,0,0,0-.85.05,29.23,29.23,0,0,0-2.89.63c-.21.05-.64.09-.57.3s.47.12.7.07c1-.23,1.93-.45,2.88-.72C120.34,244.85,121.09,244.64,120.82,244.6ZM114,244a7.72,7.72,0,0,1,1.51.2,15.08,15.08,0,0,0,2.22-.88,5.81,5.81,0,0,0,2-1.7c.13-.16.33-.47.29-.55a1.19,1.19,0,0,0-.48-.18,8.29,8.29,0,0,0-2.72.08,19.63,19.63,0,0,0-2.94.8,4.24,4.24,0,0,1,.66.2,3.48,3.48,0,0,1,.43.22,2.74,2.74,0,0,1-.18.6A5.08,5.08,0,0,1,114,244Zm4.87-2.56c.15-.12-.41,0-.6.09-.81.25-1.61.51-2.39.81-.17.07-.36.1-.44.31s.43.07.64,0a19.61,19.61,0,0,0,2.26-.89,2.2,2.2,0,0,0,.53-.32Zm-6.74.31a3.6,3.6,0,0,1,1.13-.08,10.2,10.2,0,0,0,2-1.34,8.31,8.31,0,0,0,1.47-1.87c.12-.22.38-.6.35-.67s-.49-.06-.75-.06a7.23,7.23,0,0,0-1.72.31,11,11,0,0,0-1.94.73c-.39.17-.77.35-1.15.54a4.3,4.3,0,0,1,.72.1,2.11,2.11,0,0,1,.59.18,4.09,4.09,0,0,1-.16,1,4.72,4.72,0,0,1-.55,1.18Zm3.89-3.29a1.5,1.5,0,0,1-.43.36c-.56.34-1.12.66-1.69,1-.18.1-.55.36-.56.25a.75.75,0,0,1,.43-.62c.54-.28,1.1-.56,1.65-.8.19-.08.7-.3.6-.16Zm-3.16-2.59c.19-.13.46-.29.39-.18a2,2,0,0,1-.42.49s0,0,0,.05a3.43,3.43,0,0,1-.34.85,13.26,13.26,0,0,1-1.55,2.23l.27,0a11.33,11.33,0,0,0,1.66-1.66,8.68,8.68,0,0,0,1.06-1.9c.07-.17.21-.49.17-.52a2,2,0,0,0-.56,0l-.57.06a3.5,3.5,0,0,1-.06.62ZM130,262a15.36,15.36,0,0,0,3,1.5,40.61,40.61,0,0,0,3.94,1.6,11.34,11.34,0,0,0,2.95.46c.24,0,.63,0,.73-.09s-.21-.58-.39-.83a8.8,8.8,0,0,0-1.35-1.38,13,13,0,0,0-2.8-1.74c-1.64-.81-3.34-1.51-5-2.18-.74-.3-1.49-.6-2.23-.92-.19-.08-.74-.29-.54-.26a6.75,6.75,0,0,1,1,.24c1.12.33,2.22.72,3.33,1.14a13,13,0,0,0,6.24.88,8.28,8.28,0,0,0,1-.1c0-.1-.4-.56-.66-.77a16.69,16.69,0,0,0-2.67-2,31.08,31.08,0,0,0-5.08-2.15,37.56,37.56,0,0,0-5-1.09c-.22,0-.85,0-.65-.12a1.41,1.41,0,0,1,.68,0c1.25.13,2.52.23,3.76.42a28.34,28.34,0,0,0,4.69.37,11.68,11.68,0,0,0,2.73-.39c.28-.07.8-.13.84-.22s-.49-.37-.75-.52a16.73,16.73,0,0,0-3.28-1.51,35.61,35.61,0,0,0-3.66-1.06c-2-.41-4-.56-6-.79a6.74,6.74,0,0,1-1.1-.21c-.33-.13.71-.06,1.06-.07,1.76,0,3.48,0,5.25-.12a27.82,27.82,0,0,0,4.81-1.15c.28-.08.82-.27.82-.38s-.7-.39-1.08-.51a19.13,19.13,0,0,0-5.11-1.1c-1.9-.11-3.8-.12-5.72-.08-.77,0-1.68.08-2.32,0a13.09,13.09,0,0,0,1.9.64,6.63,6.63,0,0,1,1.38.76,1.68,1.68,0,0,1-.54.66,13.65,13.65,0,0,1-2.5,1.23,19,19,0,0,1,2.55.76,7.32,7.32,0,0,1,2,1.29,1.21,1.21,0,0,1,.44.58,1.83,1.83,0,0,1-.79.62c-.67.28-1.52.4-2.09.62.58.29,1.62.52,2.36.94a9.15,9.15,0,0,1,2,1.56,3.43,3.43,0,0,1,.35.55c.07.13-.37.38-.59.45a16.79,16.79,0,0,1-1.75.44,11.85,11.85,0,0,1,3.12,2.14A3.83,3.83,0,0,1,130,262Zm8.52,2.53a3.67,3.67,0,0,0-.91-.83c-.5-.3-2.65-1.22-3.43-1.58l-2.16-1c-.37-.18-1.05-.39-.94-.07s.42.4.89.61,1.62.77,2.24,1,2.61,1.05,3,1.25S138.65,264.69,138.5,264.52Zm-.62-4.88c-.2-.11-.52-.37-1-.63s-3-1.18-3.57-1.37l-2.74-.95c-.42-.14-1.42-.6-1.28-.21s.61.49,1.15.67l2.78.94c.7.23,2.73.92,3.28,1.13a6.69,6.69,0,0,0,1.39.42ZM136.46,254c-.23-.1-.87-.24-1.44-.39s-1.89-.49-3.33-.76-2.3-.4-3-.52-1.3-.22-1.14,0,.46.3,1.14.42,1.84.25,3,.42,2.61.51,3.27.64,1.76.28,1.54.17Zm-2.93-5.64c-.32,0-1-.1-1.68-.11s-3.16-.05-4.16-.11-2.1-.15-1.81.12a3.66,3.66,0,0,0,1.83.31c.78,0,3.51,0,4.08,0a6.11,6.11,0,0,0,1.74-.22Zm-14-1.5,3.06-.48c1.54-.26,3.13-.52,4.65-.93a18.77,18.77,0,0,0,4.19-1.72c.27-.15.86-.42.88-.57a3.85,3.85,0,0,0-.88-.26,16.91,16.91,0,0,0-3.54-.45,28.8,28.8,0,0,0-4.64.32c-1.09.16-2.15.39-3.22.56a8.64,8.64,0,0,1,1.74.34,4,4,0,0,1,1.09.54,5.31,5.31,0,0,1-.6.91,9.17,9.17,0,0,1-1.46,1c-.43.25-.82.48-1.27.71Zm10.44-3.47c-.32,0-1,.09-1.5.15s-3,.34-3.5.42-1.63.08-1.37.32.84.14,1.43.07,2.92-.4,3.4-.48,1.85-.5,1.54-.48Zm-10.7-.33c.82-.29,1.65-.54,2.47-.83a25.87,25.87,0,0,0,3.51-1.6,11.77,11.77,0,0,0,2.27-1.63c.26-.25.76-.67.75-.77s-.61-.23-.93-.24a14.88,14.88,0,0,0-3.46.27,32.53,32.53,0,0,0-3.9,1.06c-1,.33-2,.7-2.94,1.05a10.84,10.84,0,0,1,2.13-.05,5.85,5.85,0,0,1,1.44.36,4.79,4.79,0,0,1-.46,1.21,9.77,9.77,0,0,1-.88,1.18Zm7.4-4.44a13.68,13.68,0,0,0-1.73.4c-.48.17-1.81.71-2.31.88s-1.47.41-1.07.54a1.79,1.79,0,0,0,1.24-.19c.31-.16,1.9-.72,2.25-.91s1.93-.77,1.62-.72Zm-10.71,1.91c.61-.38,1.26-.68,1.87-1a27.35,27.35,0,0,0,3.45-2.1,13.9,13.9,0,0,0,2.29-2.24c.18-.22.53-.64.47-.71a1.73,1.73,0,0,0-.85-.13,15.9,15.9,0,0,0-2.92.39,14.51,14.51,0,0,0-2.81,1.07c-.66.53-1.34,1-2,1.45a9.45,9.45,0,0,1,1.19,0,6.83,6.83,0,0,1,1.19.17,5.46,5.46,0,0,1-.38,1,13.37,13.37,0,0,1-.82,1.29c-.2.28-.41.56-.64.83Zm6.56-5.46c-.31.08-.92.36-1.38.54a19.48,19.48,0,0,0-2,.88c-.45.26-.78.41-.53.56s.49-.08.79-.25,1.56-.7,1.91-.91,1.52-.9,1.22-.82Zm-9.27,2.82c.53-.21,1.06-.47,1.58-.63.82-.66,1.78-1.26,2.62-1.93a12.43,12.43,0,0,0,2.32-2.6c.21-.29.53-.9.47-1a4,4,0,0,0-1.17,0,8.8,8.8,0,0,0-3.1,1.14c-1,.58-2,1.14-3,1.72a6.51,6.51,0,0,1,1.71.1,5,5,0,0,1-.28,1.14c-.33.71-.79,1.35-1.18,2Zm5.65-5.27c-.2.11-.65.31-1,.55l-1.82,1.1c-.36.21-.6.37-.38.48s.43.06.73-.17,1.25-.83,1.56-1.09S119.05,232.48,118.85,232.58ZM88.63,240a20.44,20.44,0,0,0-3.08,1.51,13.32,13.32,0,0,0-2.76,2,1.59,1.59,0,0,0-.45,1.81,7.79,7.79,0,0,1-.22,4.29,7.18,7.18,0,0,1-3.41,4.29,18.1,18.1,0,0,1-6.07,2c-1.27.22-2.58.28-3.84.45-.49.06-.66.39-.68.16a1.52,1.52,0,0,1,.4-1.07,5.61,5.61,0,0,1,1.83-1.3,12.33,12.33,0,0,1,3.57-.9,5.06,5.06,0,0,0,1.63-.21,6,6,0,0,1-2.24-1,2.53,2.53,0,0,1-.73-.95,2.15,2.15,0,0,1,1-.57,9.84,9.84,0,0,1,2.73-.43A4.14,4.14,0,0,1,74.87,249a2.2,2.2,0,0,1-.34-.67,2.58,2.58,0,0,1,1-.62,5.12,5.12,0,0,1,2.06-.16A5,5,0,0,1,76,246.22a2.25,2.25,0,0,1-.39-1,1.62,1.62,0,0,1,.79-.36,3.39,3.39,0,0,1,1.94.19,10.32,10.32,0,0,1-1.26-1.6,2.35,2.35,0,0,1-.3-1,2.46,2.46,0,0,1,1.06-.24,3.93,3.93,0,0,1,2,.52,6.14,6.14,0,0,1-1-1.45c-.13-.29-.31-.87-.22-.95a2.69,2.69,0,0,1,1-.17,4.67,4.67,0,0,1,2.12.62,5.75,5.75,0,0,1-.73-1.68,1.89,1.89,0,0,1,0-1,2,2,0,0,1,.94,0,9,9,0,0,1,2,.81,5.37,5.37,0,0,1-.72-1.57c-.09-.34-.12-.94,0-1a2.21,2.21,0,0,1,1,.06,4.22,4.22,0,0,1,1.61.67,2.22,2.22,0,0,1,.05-.62,5.64,5.64,0,0,0,2.16,3.14,6.33,6.33,0,0,1,.57.45Zm-3.79-4.69a3.52,3.52,0,0,1-.55-.94,7.4,7.4,0,0,1-.54-1.79,1.53,1.53,0,0,1,0-.61c0-.08.42,0,.59.1a4.72,4.72,0,0,1,1,.59,9.1,9.1,0,0,0,.5,3.7,7.1,7.1,0,0,1-1-1ZM74.49,247.7c-.21-.07-2.88-.61-3.76-.69a8.55,8.55,0,0,0-4.62.82c-.25.13-.72.38-.7.46s.45.38.7.53A8,8,0,0,0,69.65,250a4.45,4.45,0,0,1,1.12.22c-.44.09-1,.1-1.49.16-2,.21-4,.27-5.64,1.27-.23.14-.65.39-.65.46s.43.42.7.56a6,6,0,0,0,2.18.59,23.92,23.92,0,0,0,2.81.09c.26,0,.67,0,.8.08a4.68,4.68,0,0,1-.86.17c-1.33.16-2.71.24-4,.5a6.16,6.16,0,0,0-3.94,2,1.86,1.86,0,0,0-.37.95c0,.26.3-.13.84-.28a14.57,14.57,0,0,1,2.71-.43c1-.08,2,.06,3,0a1.31,1.31,0,0,0,1-.47,2.13,2.13,0,0,1,.56-.85,9.82,9.82,0,0,1,2.25-1.39,12.82,12.82,0,0,1,2.22-.63c.27-.07.55-.05.82-.13a14.78,14.78,0,0,1-1.24-1,1.71,1.71,0,0,1-.38-.71,2.22,2.22,0,0,1,.68-.66,5.63,5.63,0,0,1,1.47-.53c.29-.07.58-.09.86-.13-.21-.25-.48-.48-.68-.77a2.48,2.48,0,0,1-.42-.76,1.78,1.78,0,0,1,.55-.56Zm-7.1,7.72a13.74,13.74,0,0,1-2.4.11,14.72,14.72,0,0,0-1.63.14c-.18,0-.67.25-.54.11a1,1,0,0,1,.51-.29,9.16,9.16,0,0,1,1.73-.27,16.6,16.6,0,0,0,2.21-.11c.18,0,.62-.14.56,0a.57.57,0,0,1-.44.27Zm-2.33-3.36a1.31,1.31,0,0,1,.61-.24c1-.1,2.14-.09,3.2-.09.65,0,1.31,0,2,0,.15,0,.46,0,.43.2s-.34.17-.53.18c-.64,0-1.3,0-2,0-1,0-2-.11-3-.09-.25,0-.87.12-.76,0Zm2.51-3.73a4,4,0,0,1,.85-.07c1.25.07,2.49.18,3.73.33.25,0,.79.07.74.19-.11.29-.53.2-.8.17-1.19-.15-2.45-.32-3.67-.44C68.13,248.49,67.29,248.39,67.57,248.33Zm7-.89c.41-.13.64-.16,1-.25a7,7,0,0,1,.78-.12,3.81,3.81,0,0,1-.65-.61,3.29,3.29,0,0,1-.64-1.14c0-.1.22-.39.48-.51-.69-.18-1.54-.33-2.24-.51a10.7,10.7,0,0,0-4-.18,5.16,5.16,0,0,0-1.31.31c0,.14.55.57.88.82a11.78,11.78,0,0,0,2,1.2,23.48,23.48,0,0,0,3.67,1Zm-5-2.67a2.92,2.92,0,0,1,.88,0c1.1.22,2.19.44,3.26.67.21,0,.62.14.56.35s-.45.11-.67,0c-1.08-.27-2.15-.51-3.22-.78-.28-.07-1-.3-.81-.34Zm7.56-.51a10.83,10.83,0,0,0-1.11.21,24.58,24.58,0,0,1-2.38-.95,7.89,7.89,0,0,1-2.48-2.09c-.17-.21-.5-.58-.46-.66s.48-.17.72-.16a16.84,16.84,0,0,1,3.25.35,12,12,0,0,1,2.16,1,1.72,1.72,0,0,0-.48.19,1.58,1.58,0,0,0,.08.57,9.42,9.42,0,0,0,.7,1.55Zm-5.23-3a2.87,2.87,0,0,1,.83.2c.92.33,1.84.71,2.73,1.13.2.1.62.22.51.4s-.49,0-.71-.05c-.92-.4-1.81-.79-2.69-1.23-.24-.12-.94-.47-.67-.45Zm6.82.59a8.67,8.67,0,0,0-1.53-.08,14.85,14.85,0,0,1-2-1.26,5.91,5.91,0,0,1-1.62-2c-.09-.19-.23-.53-.19-.59a1.18,1.18,0,0,1,.52-.1,8.06,8.06,0,0,1,2.65.57,19.31,19.31,0,0,1,2.75,1.32,3.83,3.83,0,0,0-.69.08,2.54,2.54,0,0,0-.45.13,2.28,2.28,0,0,0,.06.63,4.51,4.51,0,0,0,.53,1.32Zm-4.34-3.4c-.13-.14.4.11.58.2.75.39,1.49.79,2.2,1.23.15.1.34.16.38.38s-.44,0-.63-.11a20.8,20.8,0,0,1-2.06-1.28A2.11,2.11,0,0,1,74.39,238.42ZM81,240a3.45,3.45,0,0,0-1.09-.29A9.84,9.84,0,0,1,78.14,238a7.84,7.84,0,0,1-1.11-2.1,2.59,2.59,0,0,1-.23-.73c.06-.08.5,0,.74.08a7.62,7.62,0,0,1,1.65.61A11.73,11.73,0,0,1,81,236.91c.36.24.69.49,1,.74a4.34,4.34,0,0,0-.72,0,2.48,2.48,0,0,0-.61.07,4.1,4.1,0,0,0,0,1,5.06,5.06,0,0,0,.32,1.26ZM77.73,236a1.69,1.69,0,0,0,.36.44c.49.43,1,.85,1.49,1.26.15.13.48.45.5.34a.72.72,0,0,0-.3-.68c-.49-.38-1-.75-1.49-1.09-.17-.12-.63-.42-.56-.27Zm5.41,2a6.25,6.25,0,0,1-.31-1.24A2.58,2.58,0,0,1,83,236c.26,0,.46,0,.72,0a3.59,3.59,0,0,1,1,.14,6,6,0,0,0-.63-.8,7.6,7.6,0,0,0-1.79-1.49,6.07,6.07,0,0,0-1.43-.56,1.79,1.79,0,0,0-.56-.09s0,.36.08.53a8.18,8.18,0,0,0,.71,2.07,11,11,0,0,0,1.33,1.93,3,3,0,0,1,.77.34ZM81,233.78c-.06-.16.33.22.47.36.36.36.7.79,1,1.17.1.12.21.32.09.42s-.33,0-.41-.16c-.29-.42-.55-.83-.85-1.23A2,2,0,0,1,81,233.78Zm-21.17,22.9a15.45,15.45,0,0,1-3.26.93,37.16,37.16,0,0,1-4.17.86,11.53,11.53,0,0,1-3-.08c-.23,0-.62-.09-.7-.21s.32-.53.54-.75a8.77,8.77,0,0,1,1.57-1.12,12.89,12.89,0,0,1,3.07-1.2c1.76-.51,3.57-.89,5.35-1.24.79-.16,1.58-.32,2.36-.5.2,0,.79-.16.58-.16a7,7,0,0,0-1,0c-1.16.13-2.32.31-3.48.53a13.28,13.28,0,0,1-6.31-.26,9.24,9.24,0,0,1-1-.28c0-.11.49-.48.79-.65a16.83,16.83,0,0,1,3-1.47,31.09,31.09,0,0,1,5.39-1.2,35.28,35.28,0,0,1,5.14-.16c.22,0,.85.12.66,0a1.25,1.25,0,0,0-.66-.17c-1.25-.09-2.52-.22-3.77-.26a29.6,29.6,0,0,1-4.69-.48,12.5,12.5,0,0,1-2.61-.87c-.26-.12-.77-.28-.79-.38s.55-.27.83-.37a17,17,0,0,1,3.5-.9,37.32,37.32,0,0,1,3.8-.38c2-.05,4,.16,6,.29a5.87,5.87,0,0,0,1.12,0c.35-.06-.69-.18-1-.25-1.71-.37-3.42-.61-5.14-1.07a28.34,28.34,0,0,1-4.52-2c-.27-.13-.76-.42-.74-.52s.76-.26,1.16-.31a19,19,0,0,1,5.22-.16c1.89.23,3.76.57,5.64.95.76.15,1.64.38,2.28.46a13.4,13.4,0,0,1-2,.28,6.84,6.84,0,0,0-1.49.5,1.67,1.67,0,0,0,.41.75,13.53,13.53,0,0,0,2.24,1.66,20.12,20.12,0,0,0-2.65.29,7.09,7.09,0,0,0-2.16.91,1.28,1.28,0,0,0-.54.49,1.75,1.75,0,0,0,.67.75c.6.4,1.43.67,1.95,1-.63.17-1.69.21-2.49.49a8.82,8.82,0,0,0-2.22,1.19,2.76,2.76,0,0,0-.43.47c-.1.11.28.44.49.55.76.39,1.27.6,1.64.75A12.09,12.09,0,0,0,60.86,255a3.73,3.73,0,0,0-1.08,1.72Zm-1-14.08c.33,0,1,.08,1.67.19s3.12.52,4.12.65,2.09.22,1.76.43a3.6,3.6,0,0,1-1.86,0c-.77-.1-3.45-.62-4-.73a6.4,6.4,0,0,1-1.67-.52Zm-7.8,15A3.65,3.65,0,0,1,52,257c.54-.21,2.82-.73,3.66-.94s1.9-.5,2.3-.61,1.1-.19.94.1-.48.32-1,.44-1.73.46-2.38.59-2.76.56-3.2.69-1.56.52-1.38.37ZM52.43,253c.21-.07.58-.27,1.1-.44s3.14-.63,3.77-.71,2.42-.38,2.86-.44,1.51-.33,1.3,0-.69.38-1.26.46l-2.9.42c-.73.1-2.85.42-3.43.52a6.86,6.86,0,0,1-1.44.17Zm2.42-5.33a14.37,14.37,0,0,1,1.49-.13c.58,0,1.94-.14,3.4-.14l3.06,0c.71,0,1.31,0,1.1.23s-.5.21-1.19.21-1.86-.09-3-.13-2.65,0-3.32,0-1.79,0-1.55-.1Zm18-4c-1-.34-2-.67-2.92-1a46.48,46.48,0,0,1-4.41-1.75,18.41,18.41,0,0,1-3.81-2.44c-.24-.2-.78-.57-.77-.72s.61-.08.91-.09a15.79,15.79,0,0,1,3.57.19A27.12,27.12,0,0,1,69.92,239c1,.35,2,.77,3.06,1.12a8.73,8.73,0,0,0-1.77,0,3.92,3.92,0,0,0-1.17.33,4.8,4.8,0,0,0,.43,1,9.32,9.32,0,0,0,1.24,1.27c.38.33.73.62,1.13.93Zm-9.64-5.3,1.44.42c.48.15,2.88.88,3.37,1s1.58.37,1.29.56-.86,0-1.42-.19-2.8-.92-3.26-1.08-1.73-.83-1.43-.76ZM73.77,240c-.75-.44-1.52-.83-2.27-1.27a24.18,24.18,0,0,1-3.17-2.2,11.92,11.92,0,0,1-1.94-2c-.21-.29-.62-.8-.59-.89s.64-.12,1-.07a15.15,15.15,0,0,1,3.36.89,32,32,0,0,1,3.64,1.74c.92.51,1.8,1,2.71,1.56a10.93,10.93,0,0,0-2.09-.43,5.62,5.62,0,0,0-1.48.1,4.32,4.32,0,0,0,.24,1.27,8.8,8.8,0,0,0,.64,1.31Zm-6.48-5.7a12.25,12.25,0,0,1,1.63.71c.44.25,1.66,1,2.12,1.27s1.38.67,1,.73a1.79,1.79,0,0,1-1.19-.41c-.28-.21-1.74-1.05-2-1.3s-1.76-1.11-1.47-1Zm10.2,3.81c-.54-.49-1.12-.9-1.66-1.37a28.49,28.49,0,0,1-3-2.68A14.71,14.71,0,0,1,71,231.41c-.13-.26-.4-.73-.34-.79a1.84,1.84,0,0,1,.87,0,17,17,0,0,1,2.8.91,14.84,14.84,0,0,1,2.56,1.56c.56.65,1.15,1.22,1.75,1.8a9.62,9.62,0,0,0-1.17-.22,8,8,0,0,0-1.2-.05,5.68,5.68,0,0,0,.19,1.08,14.57,14.57,0,0,0,.58,1.42,10.28,10.28,0,0,0,.48.93ZM72,231.52c.28.13.84.52,1.25.77a19.37,19.37,0,0,1,1.82,1.23c.4.34.69.55.42.65s-.46-.17-.73-.4-1.4-1-1.71-1.23S71.74,231.38,72,231.52ZM80.63,236c-.48-.3-1-.65-1.44-.91-.7-.79-1.53-1.55-2.23-2.37a12.68,12.68,0,0,1-1.82-3,2.69,2.69,0,0,1-.29-1,3.82,3.82,0,0,1,1.15.21,8.59,8.59,0,0,1,2.85,1.68c.87.75,1.75,1.48,2.61,2.23a6.56,6.56,0,0,0-1.7-.22,4.66,4.66,0,0,0,.08,1.18,22.21,22.21,0,0,0,.79,2.2ZM76,229.76c.18.13.59.42.95.73l1.58,1.4c.32.27.53.48.3.55s-.44,0-.69-.3-1.09-1-1.34-1.36-1-1.16-.79-1Zm7.61,4.33a6.59,6.59,0,0,0-1.27-1c-.68-.81-1.43-1.58-2.06-2.44a8,8,0,0,1-1.22-2.54,2.81,2.81,0,0,1-.12-1,2.68,2.68,0,0,1,1,.26,11.57,11.57,0,0,1,2.59,1.87c.83.78,1.54,1.68,2.32,2.52a11,11,0,0,0-1.41-.46,2.71,2.71,0,0,0-.08,1.27,11.17,11.17,0,0,0,.29,1.51Zm-3.86-6a6.7,6.7,0,0,1,.88.69c.35.31,1.4,1.63,1.63,1.88s.23.31.14.44-.31-.08-.5-.31-1.42-1.66-1.67-2S79.57,228,79.76,228.13Zm12.57,29.56a1.19,1.19,0,0,0,1,.76,2.17,2.17,0,0,0,1.36-.13l1.74-.44a3.61,3.61,0,0,0,1.5-.78A8.05,8.05,0,0,0,99,255.6c.23-.52.52-1.11.83-1.76a8.77,8.77,0,0,1,1.3-2.24,5.41,5.41,0,0,0,1.14-1.51,5,5,0,0,0,.5-1.76c.05-.44.18-1.32.23-1.63a.88.88,0,0,0,0-.56,8.42,8.42,0,0,1,0-1.81c.07-.55.12-1.35.13-1.77s0-.91-.11-.52a8.28,8.28,0,0,1-.45,1.38,5.53,5.53,0,0,0-.44,1c0,.27-.23.11-.3-.2a1.47,1.47,0,0,1,.17-1.08c.22-.35.6-.91.53-1.22s-.06-.35-.32-.22a1.71,1.71,0,0,0-.75.54,6.28,6.28,0,0,0-.39,1.33c-.07.36,0,.82-.18.7a1.13,1.13,0,0,1-.31-.74,3.69,3.69,0,0,1,0-.74c0-.27,0-.29-.2-.19s-.34.39-.42.57-.29.71-.39,1a.9.9,0,0,0,0,.77,8.5,8.5,0,0,1,.3,1.74c0,.53.12,2.16.17,2.55s0,.32.19,0,.21-.38.26-.49.13-.26.21,0a1,1,0,0,1,0,.77,2.32,2.32,0,0,1-.56.79,6.09,6.09,0,0,0-.77,1.06c-.21.37-.8,1.48-1,1.74a5.36,5.36,0,0,1-.45.62c-.12.13-.08.36-.23.67s-.44.63-.75.56-.16-.13,0-.34.3-.26.28-.45-.07-.12-.28,0a2.82,2.82,0,0,1-.92.45,2.41,2.41,0,0,0-.67.23c-.24.12-.15.36-.41.49s-.37.15-.52.08-.14-.18.05-.28a1.24,1.24,0,0,0,.46-.42c.11-.16.52-.4.11-.32a3.26,3.26,0,0,0-1.35.45c-.23.25-.54.8-.75,1.09s-.26.72-.53,1.06c-.1.11,0,.41,0,.61Zm8.39-13.09a3.56,3.56,0,0,0,0,1,6.38,6.38,0,0,1,.13,1.39,8.48,8.48,0,0,1-.12,1.16c-.06.18,0,.22.15,0a2,2,0,0,0,.53-.69,2.39,2.39,0,0,0,0-1.11,5.67,5.67,0,0,0-.35-1.1C100.94,245,100.75,244.46,100.72,244.6Zm-10.87,3.19a3.35,3.35,0,0,1,.29-.74,3.92,3.92,0,0,0,.26-1.1,12.38,12.38,0,0,1,.16-1.55,2.84,2.84,0,0,1,.32-.88,2.57,2.57,0,0,0,.42-.67c.07-.25,0-.34-.19-.06s-.41.29-.58.46a2.47,2.47,0,0,0-.5.9,5,5,0,0,0-.14,1.24,3.89,3.89,0,0,1,0,1.13,4.58,4.58,0,0,0-.16.88c0,.3.12.59.13.39Zm1.83,9.73a1.26,1.26,0,0,1-1.31-.22c-.27-.31-.75-.66-1.1-1.06a4.74,4.74,0,0,1-.84-1.49,10.33,10.33,0,0,1-.17-2c0-.48.13-1.76.17-2.37a15.76,15.76,0,0,0,0-2.07,9.29,9.29,0,0,1,0-2.19,8.74,8.74,0,0,1,.71-1.85,7.65,7.65,0,0,1,1-1.18,11,11,0,0,0,1.15-1.54,1.45,1.45,0,0,1,.48-.61c.26-.27.64-.45.75-.61s.14-.12.34,0,.33.08.31.38a5.88,5.88,0,0,1-.24,1.25c-.13.27-.36.78-.52,1.06s-.1.31-.07.42.09,0,.19-.15a4.69,4.69,0,0,1,.58-.6,2.41,2.41,0,0,0,.58-.88,1.63,1.63,0,0,0-.1-.93c-.14-.26-.13-.3.06-.2a2.48,2.48,0,0,1,.49.33c.17.14.35.23.42.39a1,1,0,0,1,0,.52,5.13,5.13,0,0,1-.12.59c0,.18-.08.2-.33.35a7.86,7.86,0,0,0-.78.62c-.22.2-.77,1-1,1.14a9.52,9.52,0,0,0-.85,1.07c-.17.28-.55,1-.7,1.31s-.48,1.13-.64,1.58-.31,1-.42,1.52-.18.49,0,.93a15.71,15.71,0,0,0,.84,1.52,3.69,3.69,0,0,1,.58,1.66c0,.58.14.3.18.1s0-.45.11-.31a3.42,3.42,0,0,1,.61,1.23c0,.42.17.55.15.81a3.72,3.72,0,0,1-.17.79,1.77,1.77,0,0,1-.17.52,1.08,1.08,0,0,1-.18.2Zm20.48-21.2a5.7,5.7,0,0,1-1.18,2.22,12.76,12.76,0,0,1-2.91,2.23c-.72.32-1,.46-1.13.86a3.54,3.54,0,0,1-.46,1.5c-.31.37-.59.5-1,.19a8.85,8.85,0,0,1-1.5-2.19,17.1,17.1,0,0,1-1.14-3.4,12.42,12.42,0,0,1-.18-3.73,5.28,5.28,0,0,1,1-2.91,4.44,4.44,0,0,1,2-1.23,3.36,3.36,0,0,1,2.09-.13A1.71,1.71,0,0,1,109,231a11.28,11.28,0,0,0,1.54,3.23,3.31,3.31,0,0,0,1.46,1c.41.09.27.22.27.45a2.73,2.73,0,0,1-.14.64Zm-5.68,4.77a5.72,5.72,0,0,1-1.41-1.45,9.43,9.43,0,0,1-1-2.09,13.09,13.09,0,0,1-.43-2.64c0-.55,0-.45.18.09s.38,1.59.66,2.36a10.42,10.42,0,0,0,1.07,2.14,11.11,11.11,0,0,0,.9,1.27c.25.26.28.41,0,.32Zm-7.75,2.66a7.49,7.49,0,0,0-1-.8,4.27,4.27,0,0,0-1.6-.64,1.9,1.9,0,0,0-1,.16c-.21.1-.2.1-.15-.14a6.23,6.23,0,0,0,.08-1.34c0-.36-.06-.38.15-.56a3.79,3.79,0,0,1,1.08-.55,3,3,0,0,1,1-.12,3.45,3.45,0,0,1,1.43.54,6.91,6.91,0,0,1,1,.84,1,1,0,0,1,.29.55c.07.15.08.15-.11.23a1.41,1.41,0,0,0-.54.67,5.72,5.72,0,0,0-.43,1C98.94,243.93,98.93,244,98.73,243.75Zm1.83-2.31a3,3,0,0,0-.78-1.05,3.36,3.36,0,0,0-1.33-.79,4.51,4.51,0,0,0-1.89-.23,2.53,2.53,0,0,0-1.46.57,2.3,2.3,0,0,0-.51.59c-.13.18-.11.2-.38,0s-.62-.36-.89-.55-.32-.15-.09-.55.58-1,.72-1.26,0-.31.39-.5a4.88,4.88,0,0,1,1.69-.58,7.84,7.84,0,0,1,2.41.13,12.65,12.65,0,0,1,2.42,1,9.36,9.36,0,0,1,1.42,1.06,1,1,0,0,1,.4.52c.1.22.29.64.4.9s.17.18-.13.25a11.67,11.67,0,0,0-1.12.34c-.34.13-.68.23-1,.34s-.22.12-.3-.21Zm1.59-2.9c-.16-.11-1.36-.82-1.93-1.1a8.16,8.16,0,0,0-2.33-.74,10.15,10.15,0,0,0-3,.23c-.52.19-.35.17-.27-.38s.21-1.16.27-1.67,0-.47.3-.66a5.69,5.69,0,0,1,1.34-.61,6,6,0,0,1,2-.09,5.76,5.76,0,0,1,1.9.75,15,15,0,0,1,1.31,1.1c.26.25.3.21.34.68s.17,1.78.22,2.2.07.39-.09.29Zm-11.82,2.73c-.43.18-.74.19-.94-.07a1.34,1.34,0,0,1-.23-.77,1.16,1.16,0,0,0-.29-.85c-.26-.26-.62-.49-1-.81a6.1,6.1,0,0,1-1.18-1.69,8.85,8.85,0,0,1-.68-2.54c-.06-.85-.13-1.33-.13-1.89s-.06-.49.49-.61a4.82,4.82,0,0,0,2.24-1.31c.75-.78,1.27-1.79,1.76-2a1.88,1.88,0,0,1,1.56-.19,3.85,3.85,0,0,1,1.63,1.76,7.69,7.69,0,0,1,.78,3.48,9.33,9.33,0,0,1-.81,3.8,7.28,7.28,0,0,1-1.7,2.57,5.59,5.59,0,0,1-1.52,1.17Zm-1-1.74a1,1,0,0,1,.49-.6A8.25,8.25,0,0,0,91,237.81a13.63,13.63,0,0,0,1.17-2.06c.16-.51.28-.69.42-1.22s.23-.92.27-1.12.24-.29.22.14a8.63,8.63,0,0,1-.26,1.75,11.38,11.38,0,0,1-.82,2,7.57,7.57,0,0,1-1.34,1.7C90.19,239.33,89.31,239.73,89.34,239.53Zm22.87-4.94a2.9,2.9,0,0,1-1.36-1,22.77,22.77,0,0,1-1-2.05,13,13,0,0,0-.52-1.22c-.14-.28-.26-.28,0-.6a9.78,9.78,0,0,1,.72-1.1c.29-.35.89-1.16,1.21-1.5l1.62-1.74a15.86,15.86,0,0,1,2.14-1.79c.4-.23.37-.14.78,0a7.87,7.87,0,0,1,1.67.84,6.58,6.58,0,0,1,1.39,1.47c.23.32.14.26-.06.55s-.78,1.07-1.13,1.59-.86,1.3-1.38,2-1.39,1.85-1.91,2.46-1.27,1.42-1.62,1.79-.34.32-.49.29Zm3.47-9.45c-.15.08-1.27,1.13-1.59,1.42s-1.21,1.24-1.73,1.82-1,1.33-1.3,1.67-.18.46.17.15.9-1,1.3-1.39.92-1,1.56-1.68a17.58,17.58,0,0,0,1.24-1.35c.29-.35.51-.72.35-.64ZM90,228.19a8.06,8.06,0,0,0-1.13,1.56,5.6,5.6,0,0,1-1.41,1.42,3.13,3.13,0,0,1-1,.39.57.57,0,0,1-.45,0c0-.1-.12-.32-.16-.48-.12-.42-.36-1.26-.48-1.86s-.54-1.91-.66-2.39-.2-.95-.3-1.37-.13-.6-.13-.64a1.33,1.33,0,0,1,.13-.38,6.7,6.7,0,0,1,1-1.5,13.44,13.44,0,0,1,1.38-1.25,1.66,1.66,0,0,1,.41-.31,2.59,2.59,0,0,1,.42.55c.34.51.72,1.49,1.26,2.57a26.79,26.79,0,0,1,1.31,3.11,1,1,0,0,1,.07.36,1.43,1.43,0,0,1-.25.24Zm-1,.18c0-.12-.39-1-.59-1.55s-.66-1.6-.84-2.14-.35-.79-.47-1.11.06-.38.18-.12.63,1.19.87,1.73.51,1.36.69,1.88a12,12,0,0,1,.32,1.19c.06.24-.11.24-.16.12Zm-6.09-3.16a.75.75,0,0,1-.51-.86,9.57,9.57,0,0,0-.07-2.35,20.34,20.34,0,0,0-.71-2.19c-.17-.41-.49-.78-.36-.88s.24-.09.45,0,.27,0,.43-.17A10.47,10.47,0,0,1,84,217.49c1-.42,1.27-.38,1.76.23a9.18,9.18,0,0,1,1.06,2.21c.07.37.1.47.3.49a.46.46,0,0,1,.34.13c.06.09-.06.2-.34.35a9.87,9.87,0,0,0-1.9,1.69,7.49,7.49,0,0,0-1.35,2.14.85.85,0,0,1-1,.48Zm1.79-7.35a7.55,7.55,0,0,0-.41,1.21,11,11,0,0,0-.38,1.66c0,.54.07.62.21.2s.45-1.17.58-1.62.25-.9.32-1.21S84.81,217.54,84.64,217.86ZM82,224.49s-1.27.58-1.65.72-1.48.62-2.17.83-2.08.67-2.93,1l-1.38.51a1.53,1.53,0,0,1-.42.14,7.6,7.6,0,0,0-.38-1.07,4.8,4.8,0,0,0-.72-1.14s.1-.1.41-.34,1.42-1.14,1.87-1.48,1.69-1.18,2.2-1.56,1.86-1.2,2.42-1.51,1-.49,1.24-.63a1.81,1.81,0,0,1,.56-.23,19.46,19.46,0,0,1,.68,1.89,9.94,9.94,0,0,1,.31,2,4.85,4.85,0,0,1,0,.82Zm20.12,10.45c-.2-.16-.51-.36-1.14-.82a6.65,6.65,0,0,0-2.6-1.09,7.76,7.76,0,0,0-2.67.32,7.39,7.39,0,0,0-.72.39,7.38,7.38,0,0,1-.12-1,8.38,8.38,0,0,0-.59-2.41,6.61,6.61,0,0,0-1.53-2.08,5.37,5.37,0,0,0-1.1-.56c-.07,0,0-.16.08-.74s.64-2.36.88-3.19.83-2.11,1-2.65a5.78,5.78,0,0,1,.34-.89c.4-.31,1.45-1,2.14-1.42s1.46-.86,2.08-1.18.84-.44,1.28-.64a2.47,2.47,0,0,1,.69-.24,14.86,14.86,0,0,1,2.24,1,25.15,25.15,0,0,1,2.42,1.41c.83.59,1.37,1,1.86,1.43s.8.62.81.73c.06.5.16,1.72.31,2.8a34.52,34.52,0,0,1,.31,3.44c0,.68.06,1.88,0,1.87s-.34-.12-.68-.19a4.2,4.2,0,0,0-2,.23,6.16,6.16,0,0,0-2.23,1.53,3.76,3.76,0,0,0-.88,2c-.1.74-.2,1.38-.22,1.52a2.83,2.83,0,0,1,0,.43Zm-2.4-16.87a22,22,0,0,0-.53,2.16c-.15.64-.35,1.91-.45,2.6s-.34,2-.49,2.95-.19,1.66-.29,2.65-.2,1.57-.25,2.2,0,.64,0,1,.19.74.29.15.2-1.52.24-2.16.35-2.75.49-3.83.35-2,.45-3,.29-2.11.39-2.75.13-.84.19-1.18.12-1.16,0-.83Zm-6,1.84a7.92,7.92,0,0,1-.48-1,1.6,1.6,0,0,1-.29-.73c0-.22.35-.48.57-.67.44-.39,1.93-1.59,2.62-2.18s2.86-2.4,3.76-3a3.82,3.82,0,0,1,0,1.09c0,.49,0,1.83,0,2.22s0,.5-.06.52c-.59.3-1.54.7-2.32,1.19s-2.38,1.42-2.82,1.76-.71.59-.93.76Zm13.84,1.19c-.14-.14-.74-.71-1.11-1A28,28,0,0,0,104,218.2a29.28,29.28,0,0,0-2.57-1.44l-1.12-.54a5.33,5.33,0,0,1,0-.88c0-.37.13-1.76.13-2.08s0-.88.12-.83c.3.24.71.65,1.19,1.11s1.45,1.25,2,1.74,1.65,1.26,2.18,1.67a22.47,22.47,0,0,0,2.34,1.47c.4.23.7.42.68.58a3,3,0,0,1-.8,1.27c-.34.37-.68.84-.69.83Zm1.46-2.85c-.59-.31-1.26-.59-1.91-1a23.78,23.78,0,0,1-2.27-1.69c-.49-.44-1.69-1.45-2.18-1.94l-1.45-1.44c-.08-.08.33-.33.66-.55a1.92,1.92,0,0,1,1.2-.38,10.24,10.24,0,0,1,1.6.37,15.66,15.66,0,0,1,2.44,1,19.2,19.2,0,0,1,2.24,1.27c.43.33.71.54,1.06.86.19.17-.3.67-.41,1a12.42,12.42,0,0,1-.54,1.53c-.22.44-.41,1-.44,1Zm1.37-4.13c-.38-.28-1-.75-1.66-1.13a20.66,20.66,0,0,0-3-1.5,28.35,28.35,0,0,0-2.72-.86,7.62,7.62,0,0,1,.33-1,2.24,2.24,0,0,1,.56-.82,1.36,1.36,0,0,1,1-.23,21,21,0,0,1,2.47.34,10.17,10.17,0,0,1,2.3.66,16.74,16.74,0,0,1,2.11,1.06c.09.07.09.19-.1.42a6.18,6.18,0,0,0-.7,1.62c-.1.33-.19.72-.28,1a1.65,1.65,0,0,1-.22.47Zm1.43-3.94c-.13-.08-1-.51-1.43-.72a21.78,21.78,0,0,0-2.22-.74,16.94,16.94,0,0,0-2.44-.47c-.63-.1-1.11-.18-1.56-.21a5.4,5.4,0,0,1,.25-.66,2.94,2.94,0,0,1,.44-.83,1.72,1.72,0,0,1,1-.52,6.48,6.48,0,0,1,1.39-.19,5.32,5.32,0,0,1,1.49.16,11.65,11.65,0,0,1,1.84.61c.53.24,1.13.52,1.52.75s.73.45,1,.57,0,.26-.14.47a7.15,7.15,0,0,0-.59,1c-.18.34-.35.86-.48.78Zm-18.68,7c.44-.4.94-.74,1.35-1.07s1.43-1.21,1.9-1.6,1.17-1,1.76-1.42,1.12-.87,1.45-1.07c0,0-.22-.28-.43-.51a1.92,1.92,0,0,0-.72-.58,1,1,0,0,0-.87,0,13.24,13.24,0,0,0-1.29.51,19.84,19.84,0,0,0-1.82.94c-.52.33-.93.58-1.45.94a12.93,12.93,0,0,0-1.29,1c-.25.22.08.41.29.65a9.07,9.07,0,0,1,.62,1.21c.16.34.44,1,.5,1Zm-1.65-3.42c.51-.37,1.07-.79,1.67-1.17a19.25,19.25,0,0,1,1.76-1,17.08,17.08,0,0,1,2.14-.86c.59-.18,1-.3,1.23-.36,0,0-.21-.21-.42-.56a4.54,4.54,0,0,0-.58-.84.92.92,0,0,0-.86-.32,7.45,7.45,0,0,0-1.45.27,16.88,16.88,0,0,0-1.84.68,14.49,14.49,0,0,0-1.54.82,5.78,5.78,0,0,0-.88.61c-.22.2-.38.32-.51.46s-.15.35.08.53a1.29,1.29,0,0,1,.43.6,7.53,7.53,0,0,0,.38.74c.09.18.33.48.38.44ZM90,210.92c.31-.21,1.17-.8,1.63-1.06a15.3,15.3,0,0,1,1.67-.82,17.19,17.19,0,0,1,1.75-.59,15.74,15.74,0,0,1,1.64-.32s-.08-.2-.28-.57a3,3,0,0,0-.58-.87,1.46,1.46,0,0,0-.83-.32,4.86,4.86,0,0,0-1.35,0,7.43,7.43,0,0,0-1.6.35,6.17,6.17,0,0,0-1.41.69c-.42.26-1.3.9-1.74,1.24-.26.21-.11.37.1.6a3.45,3.45,0,0,1,.56.9,2.81,2.81,0,0,0,.44.73Zm10.71.81c-.43-.32-.49-.3-.75,0a7.51,7.51,0,0,1-.51-.61,2.48,2.48,0,0,0-.53-.57c-.24-.14-.16-.13-.39-.58l-.34-.59a2.67,2.67,0,0,0-.5-.71c-.45-.3-.29-.19-.46-.54s-.34-.73-.56-1.13a2.08,2.08,0,0,0-.84-.87c-.47-.18-.7-.13,0-.22.48-.06,1.18-.24,1.77-.34a17.38,17.38,0,0,1,2.14-.27,8.66,8.66,0,0,1,1.75.27,10.73,10.73,0,0,0,1.89.11c.54,0,1.13.05,1.51.06s.61,0,.22.1a1.61,1.61,0,0,0-.93,1c-.17.44-.3.79-.42,1.09s0,.13-.26.39a2.33,2.33,0,0,0-.52.77c-.17.4-.34.84-.49,1.23s0,.31-.37.44a2.52,2.52,0,0,0-.83.58,1.66,1.66,0,0,1-.52.41Zm11.13-5c-.46-.18-.94-.41-1.23-.52s-1-.34-1.39-.46a6.27,6.27,0,0,0-1.59-.26c-.19,0-.34,0-.44,0a2.26,2.26,0,0,1-.78,0c-.39,0-1-.05-1.31-.06s-1.66-.11-2.09-.08a3.31,3.31,0,0,1,.19-.64c.14-.46.26-.86.44-1.48s.9-2.83,1.14-3.48.59-1.31.86-1.91a12.5,12.5,0,0,1,1-1.63,5.92,5.92,0,0,0,.25.56c.18.31.59,1.1.92,1.64s.84,1.31,1.19,1.84l1.17,1.73c.34.49.43.47.85.15a13.37,13.37,0,0,0,1.13-1,11.16,11.16,0,0,0,1.16-1.36,5.54,5.54,0,0,1-.08,1c-.06.42-.33,2-.51,2.77s-.43,1.7-.55,2.19a3.41,3.41,0,0,1-.3,1ZM106.51,198a4.08,4.08,0,0,0-.57,1c-.14.39-.44,1.34-.59,1.82s-.42,1.31-.57,1.87-.23,1-.29,1.31.18.39.29,0,.21-.86.42-1.64.45-1.49.66-2.2.29-1,.41-1.4.37-.92.24-.77Zm-.61-2c-.32-.07-.55-1-.32-2s.8-1.72,1.13-1.65.41.42.42.74c0,.48.29.18.4-.24a2.78,2.78,0,0,1,.85-1,9,9,0,0,1,1.35-1c.52-.32,1.06-.62,1.42-.81a12.19,12.19,0,0,0,1.37-.83c.41-.3.35-.27.63.08a8.45,8.45,0,0,1,.88,1.36,4.08,4.08,0,0,1,.4,1.3,4,4,0,0,1,0,1.42c0,.06-.06-.13-.32-.44a2.17,2.17,0,0,0-1-.62,3.56,3.56,0,0,0-1.18-.1,2.79,2.79,0,0,0-1.22.27c-.3.15-.33.26-.09.22s.49,0,.67-.07a5.65,5.65,0,0,1,1.43.07,2,2,0,0,1,1,.53c.32.25.37.32.6,1a4.68,4.68,0,0,1,.24,2.44,3.83,3.83,0,0,1-.66,1.56c-.21.23-.47.58-.7.6a6.08,6.08,0,0,1-.82.07,5.81,5.81,0,0,1-1.22-.15,4.73,4.73,0,0,1-1-.33c-.32-.13-.53-.32-.27,0a2.49,2.49,0,0,0,.85.65,3.28,3.28,0,0,0,1.18.31,2.32,2.32,0,0,0,1.2-.14,3.72,3.72,0,0,1-.76,1.08c-.44.48-1.34,1.25-1.57,1.46s-.33.24-.48,0-.48-.69-.74-1.1-.81-1.21-1.17-1.83a14.39,14.39,0,0,1-.91-1.74,11.6,11.6,0,0,1-.49-1.42c-.08-.35-.25-.52-.44-.26s-.41.66-.73.59Zm-8.83,9.29a14.35,14.35,0,0,0-1.88.37c-.58.15-.71.21-1,.28s-.65,0-1,.06a4.48,4.48,0,0,0-1.25.27,9.45,9.45,0,0,0-1.78.86,12.52,12.52,0,0,0-1.26,1,2.81,2.81,0,0,1-.56-.77,13.94,13.94,0,0,1-.77-1.82c-.3-.86-.57-1.65-.8-2.2a2.91,2.91,0,0,1,.36-.61c.28-.44.69-1,1-1.53a13.24,13.24,0,0,0,1-1.84,17,17,0,0,0,.83-2.19c.19-.65.23-.85.29-1.07s.35-.25.69.18.78,1,1.39,1.88,1,1.35,1.73,2.34,1.32,1.93,1.84,2.83a21.59,21.59,0,0,1,1.11,2Zm-6.48-7.34a8.59,8.59,0,0,1,1,1.11c.39.5.77,1,1.15,1.58s.86,1.3,1.24,2a8.76,8.76,0,0,1,.72,1.46c.18.49,0,.49-.18.08s-.7-1.2-.94-1.58-.6-.8-.92-1.36-.7-1.1-1.14-1.76l-.69-1c-.12-.16-.47-.64-.28-.47Zm.73-2.12c-.38,0-.77-.29-1.18-.73-.12-.13-.26-.05-.3.3a11.22,11.22,0,0,1-.32,1.61,12.11,12.11,0,0,1-.82,2.25,22,22,0,0,1-1.36,2.24c-.38.57-.8,1.25-1,1.49-.07.09-.28-.16-.54-.47a2.36,2.36,0,0,1-.49-1.06c-.1-.44,0-.53.06-.56a7.17,7.17,0,0,0,1-.53,2.6,2.6,0,0,0,.93-1.08c.25-.49.22-.75-.3-.22a4,4,0,0,1-.92.7,3.81,3.81,0,0,1-1,.44,1,1,0,0,1-.51-.22,2.93,2.93,0,0,1-.76-.82,8.18,8.18,0,0,1-.91-2.25,5.26,5.26,0,0,1,.06-1.9,10.15,10.15,0,0,1,.51-1.62c.09-.22.28-.3.6-.3a2,2,0,0,1,1.07.24c.38.22.67.41,1,.63s.23-.05-.1-.44a1.88,1.88,0,0,0-1.17-.79,8,8,0,0,0-1.33-.22,6.46,6.46,0,0,1-.28-1.3,6.14,6.14,0,0,1,0-1.14c0-.32.11-.31.6.16a8.22,8.22,0,0,0,1.87,1.08,23,23,0,0,1,2.12,1.29,8.06,8.06,0,0,1,1.46,1.16c.21.25.37.18.37.07,0-.64.11-1.23.46-1.35s1.07.58,1.37,1.43.27,1.86-.22,1.91Zm-24.9,22a.36.36,0,0,1,0-.72.36.36,0,0,1,0,.72ZM120.74,226a1,1,0,0,1-1,.06c-.2-.18-.67-.67-1-1a6.13,6.13,0,0,0-1.82-1.54,7.64,7.64,0,0,0-1.59-.46c-.42,0-.42,0-.32-.29s.19-.15.3-.22a.32.32,0,0,0,.16-.3,10.3,10.3,0,0,1,.35-1.79c.2-.68.25-.75,1-.78a9.08,9.08,0,0,1,1.59.06c.44.06.57,0,.67-.26s.13-.32.28-.37.24-.09.21.23a6.74,6.74,0,0,0,.17,1.73c.14.52.69,2.34,1,3s.54,1.7.12,1.94Zm-4.17-6a3,3,0,0,1,.9.86c.26.41.46.87.67,1.22s0,.43-.26.11-.47-.69-.73-1l-.66-.89c-.2-.28-.15-.39.08-.26Zm4.66,4.1a8.65,8.65,0,0,1-.81-1.71,19.47,19.47,0,0,1-.58-2.77c0-.46,0-.4.26-.61s.9-.66,1.36-.95,1.73-1,2.43-1.33,1.88-.81,2.71-1.24,1.59-.84,2.06-1.07.43-.17.6.32a16.3,16.3,0,0,0,.93,2c.23.4.31.46-.12.69l-2,1.1a8.31,8.31,0,0,0-1.39,1.07c-.46.41-1.67,1.65-2.17,2s-1.53,1.3-2.08,1.68a6.65,6.65,0,0,0-.86.69c-.2.18-.25.23-.32.12Zm-5.57-39.85a9.9,9.9,0,0,0-1.73-.39,9.49,9.49,0,0,0-1.93-.13,8,8,0,0,0-3,.7,3.3,3.3,0,0,0-.43,1,13.32,13.32,0,0,0-.91,3.84c-.07.68-.1,1.36-.13,1.91s0,.68,0,.65a5.61,5.61,0,0,1,1.1-.89c.46-.29,1.43-.8,2-1.12a20.25,20.25,0,0,0,1.85-1.07c.36-.26.39-.26.69.16a13.81,13.81,0,0,1,.86,1.25c.19.37.25.53.4.86a4.38,4.38,0,0,0,.28-.91c.11-.45.26-1.23.37-1.91s.22-1.63.32-2.31.21-1.59.19-1.6Zm-7,5.72a5.58,5.58,0,0,1,0-1.62,11.13,11.13,0,0,1,.48-1.91c.2-.49.34-1,.51-1.39s.21-.48.28-.64.29-.36.14.12-.34,1-.5,1.44-.33,1-.48,1.64a10.24,10.24,0,0,0-.27,1.62C108.76,189.68,108.72,190.26,108.66,190Zm7.86-16.32a3.88,3.88,0,0,0-1.54-.5,4.93,4.93,0,0,0-2.12.39,6,6,0,0,0,.21-1.06,9.84,9.84,0,0,0,0-1.71,3.37,3.37,0,0,1,.18-1.56,4.17,4.17,0,0,1,.74-1,3.78,3.78,0,0,0,.72-1.22c.27-.6.57-1.55.84-2.24a4.67,4.67,0,0,1,.68-1.45,6.32,6.32,0,0,1,1.33-1.29,8.43,8.43,0,0,1,1.52-.87,1.8,1.8,0,0,1,1.22-.12c.3.12.27.5.42,1.14a8.4,8.4,0,0,1,0,2.74,9.66,9.66,0,0,1-.68,2.17,23.18,23.18,0,0,1-1.49,2,11.29,11.29,0,0,0-1.29,2.05,7.33,7.33,0,0,0-.53,1.7c-.08.37-.13.77-.14.77Zm-29.58.68a8.28,8.28,0,0,0-1.94-.52,5.71,5.71,0,0,0-1.79.1,6.09,6.09,0,0,0-.78.23,3.3,3.3,0,0,0-.42-.65,16.8,16.8,0,0,1-1.33-1.76c-.26-.45-.62-.94-.87-1.29a5.62,5.62,0,0,0-1.17-1.11c-.32-.21-.26-.3-.16-.48s.1-.28-.43-.29c-.26,0-.45-.23-.64-.49s-.44-.64-.69-.94a.6.6,0,0,1-.09-.81,1.39,1.39,0,0,1,.78-.4,4.89,4.89,0,0,1,1.1-.27,2.61,2.61,0,0,1,1.37.16,5,5,0,0,1,1.46.86A18.67,18.67,0,0,1,83,168.45a4.75,4.75,0,0,0,1.08.91A5.05,5.05,0,0,0,85,170c.39.17.51.07.23-.16a8.16,8.16,0,0,1-.63-.55c-.2-.22,0-.25.63-.15a5,5,0,0,1,1.57.42,1.48,1.48,0,0,1,.62,1.19,14.43,14.43,0,0,1-.18,1.94c-.13.62-.22,1.07-.25,1.26a3.68,3.68,0,0,1,0,.46ZM89.05,193c-.21-.17-1-.81-1.48-1.1s-1.58-1-2.25-1.33a4.12,4.12,0,0,1-1.49-1c-.34-.42-.29-.59-.32-1.26s-.05-1.33-.05-2.19,0-3,0-4.16a43.8,43.8,0,0,0-.43-4.54c-.13-1-.2-1.43-.28-1.91s-.14-.67-.1-.69a4.8,4.8,0,0,1,1.48-.41,9.85,9.85,0,0,1,1.86.1,8.51,8.51,0,0,1,1,.14,9.59,9.59,0,0,1,0,1,15.46,15.46,0,0,0,.62,3c.33,1,1.38,3.69,1.72,4.82a24,24,0,0,1,.76,4.83c0,1.19,0,2.34,0,2.81s-.11.79-.14,1-.06.19-.19.31a1.29,1.29,0,0,0-.31.62c-.08.26,0,.3-.36,0ZM86.8,178.37a5.33,5.33,0,0,1,.34,1.09c.17.59.38,1.25.47,1.59.19.71.48,1.76.81,3A20.18,20.18,0,0,1,89,187.4a16.2,16.2,0,0,1,0,3c0,.91-.23,2.24-.23,1.43s0-1.76,0-2.53-.19-1.86-.29-2.67-.3-1.77-.49-2.68-.37-1.58-.56-2.39-.3-1.29-.45-1.86a5.24,5.24,0,0,1-.22-1.34Zm29.45.95a13.09,13.09,0,0,0-1.77-.39c-.59-.08-1.92-.19-2.41-.21a5,5,0,0,1,.16-.91c.11-.39.37-.87.45-1.28a1.18,1.18,0,0,0,0-.77c-.06-.21-.08.18-.14.52a3.32,3.32,0,0,1-.29.89c-.13.29-.26.7-.33.9a4.79,4.79,0,0,0-.1.66,4.16,4.16,0,0,0-.61,0s.09-.39.21-.77.29-.86.42-1.2.3-.74.48-1.3.51-1.61.53-1.62a4.47,4.47,0,0,1,1.65-.34,7.06,7.06,0,0,1,2,.42s-.06.62-.06,1.15,0,1.81,0,2.43-.11,1.82-.14,1.81"/><path id="path20" class="cls-8" d="M120.86,188.18a10.42,10.42,0,0,0-1.32-1.6,7.27,7.27,0,0,0-1.76-1.36,11.12,11.12,0,0,0-1.75-.8c0,.3-.09.84-.16,1.36s-.12.86-.18,1.26c.61.14,1.15.31,1.89.48s1.48.35,2,.44,1,.17,1.23.22Zm19.8,11.94a3.4,3.4,0,0,0-.27-2.32A4.59,4.59,0,0,0,139,196a6.58,6.58,0,0,0-2-1.15c-1-.38-2.41-.8-3.87-1.28a34.36,34.36,0,0,1-3.62-1.42,8.35,8.35,0,0,1-2.75-1.74,13.82,13.82,0,0,1-2.38-3.15,22.64,22.64,0,0,0-5.31-5.91,10.07,10.07,0,0,0-3.15-1.55,10.6,10.6,0,0,0-2.91-.51,15.81,15.81,0,0,0-2.77,0,18.19,18.19,0,0,0-2.74.46,2.8,2.8,0,0,0-1.47.88,2.45,2.45,0,0,0-.41,1.76,3.51,3.51,0,0,0,.69,1.61,3.11,3.11,0,0,0,1.19,1.05,7.14,7.14,0,0,0,.66.3l.52-1.18a10,10,0,0,1,1.35-.53,7,7,0,0,1,1.82-.27,12.69,12.69,0,0,1,2.6.28,10.26,10.26,0,0,1,2.32.7,10.8,10.8,0,0,1,2.52,1.51,17.18,17.18,0,0,1,2,2.28,21.23,21.23,0,0,0,1.61,2.18,14.53,14.53,0,0,0,6.11,4.7,29.08,29.08,0,0,0,4.42,1.06,36.08,36.08,0,0,1,4.27.66,4.22,4.22,0,0,1,2.12,1.58,2.19,2.19,0,0,1,.52,1.32c-.08,1.93.21,1.33.39.51Zm-20.35-47.07a1.54,1.54,0,0,0-.3-1.3,4.55,4.55,0,0,0-1.82-1.09,4.63,4.63,0,0,0-2.69.41c-.45.38-1.16.27-1.61.53s-.48.93-.89.71a4.67,4.67,0,0,0-1.94-.56,6.94,6.94,0,0,1-1.61-.34,2.53,2.53,0,0,0-2.16.37,9.22,9.22,0,0,1-1.9,1c-.49.3-1.2,1-1.12,1.53s.45.75.33,1,0,.26-.56.15a7.12,7.12,0,0,0-1.68-.3c-.67,0-1.64.3-2.31.37a7.74,7.74,0,0,0-2.46.34,3.71,3.71,0,0,0-1.61,1.9,2.68,2.68,0,0,1-.7,1.34c-.33.31-.1.6,0,1.09a9.48,9.48,0,0,1,.39,1.64c0,.5.3.58-.15.57s-1.53-.12-2.09-.09-1.86,0-2.57-.07-1.9-.3-3-.49-3.32-.74-4-.89-2.09-.26-3-.52-2.84-.94-3.89-1.16a24.65,24.65,0,0,0-3.47-.45c-.93,0-3.47-.07-4.4-.07s-4.33.11-5.08.18-1.15.23-1.26-.37a1.23,1.23,0,0,1,.48-1.3,18,18,0,0,1,2.72-1c.64-.19.34-.08.49-.52s.48-.6,1-.9,1-.45,1.19-.78a2.2,2.2,0,0,1,.9-.86c.37-.22,1.27-.37,1.6-.67a8.51,8.51,0,0,0,1.2-1.12,2.64,2.64,0,0,1,1.3-1.12,22.35,22.35,0,0,1,3-.52,7.73,7.73,0,0,0,2-.6c.74-.26,2.76-.71,3.69-.93s3.4-.64,4.67-.78,5.56-.56,7-.64a49.13,49.13,0,0,1,6.79.15c2.39.26,10.57,1.23,12,1.46a26.82,26.82,0,0,1,4.36,1.11,8.2,8.2,0,0,1,3.06,1.57,2,2,0,0,1,.41,1.83c-.22.48-.5.39-.44.19Zm-26.7.32c-.29-.06-1-.15-1.7-.23s-1.54-.23-2.08-.27-1.16-.12-1.7-.15a20,20,0,0,0-2.19,0c-.7,0-2,.11-2.55.11s-.69.23,0,.27,1.7.08,2.32.08,1.73-.08,2.27,0,1.12.11,1.81.15,1.43.12,2,.19a16,16,0,0,0,1.65.16c.35,0,.49-.21.2-.27Zm11.49-3.78a14.9,14.9,0,0,0-2-.58c-.58-.07-1.5-.23-2.47-.31s-2-.15-3-.19a35,35,0,0,0-3.55,0c-.81.08-1.35.12-1.73.12s-.5.11.07.19a18.18,18.18,0,0,0,2.16.08l2.55,0c.69,0,1.81.08,3,.16s2.09.19,2.86.31,1.35.23,1.73.3.64,0,.39-.11Zm-1.83,32.22a4.17,4.17,0,0,0-1.33.25c-.31.13-.47-.1-.47-.36s.14-.36.19-.66a6.15,6.15,0,0,0,.11-.9,1,1,0,0,1,.47-.77,1.87,1.87,0,0,0,.63-.62,1.73,1.73,0,0,0,.27-.59c.06-.32-.11-.44-.3-.08s-.31.37-.61.71a5.26,5.26,0,0,0-.8,1,3.07,3.07,0,0,0-.3,1.33c0,.43,0,.95-.29.79a2.54,2.54,0,0,0-.93-.3c-.38-.06-.32-.3-.32-.56s.26-.55.42-.83a11.23,11.23,0,0,0,.69-1.29,2.65,2.65,0,0,1,.38-.85c.22-.26.42-.41.63-.65a8,8,0,0,1,.9-.79c.35-.29.81-.71,1.31-1.06s.6-.43.9-.64.39-.14.69-.22.6-.39.3-.34-.59,0-.47-.34.37-.78.5-1.16.33-.81.5-1.28.37-1,.5-1.34a1.09,1.09,0,0,0,.08-.82,1.52,1.52,0,0,0-.55-.86,12.63,12.63,0,0,1-1.29-1.07c-.25-.28-.63-.19-1.11-.36a5.32,5.32,0,0,1-1.83-1,4.78,4.78,0,0,1-1.19-1.78,4.62,4.62,0,0,1-.39-1.82,6,6,0,0,1,.49-1.75,8.26,8.26,0,0,0,.42-1.16,4.21,4.21,0,0,1,1.13-1.47c.37-.35.56-.52.9-.86a2.21,2.21,0,0,0,.64-.87.58.58,0,0,0,0-.16,2.47,2.47,0,0,0-.37.22,7.63,7.63,0,0,0-1.13,1c-.29.26-.73.78-1,1.11a5.2,5.2,0,0,0-.83,1.5,6.38,6.38,0,0,0-.79,2.31,6.29,6.29,0,0,0,.5,2.4,4,4,0,0,0,1.15,1.7,5.81,5.81,0,0,0,1.68.91c.66.19,1.22.11,1.56.4s.63.56.76.67.29.27.45.39-2.76.22-3.53.36-3.66.59-4.65.63a17.07,17.07,0,0,1-3,.05,19.88,19.88,0,0,0-2-.28c-.72-.09-1.94-.09-2.94-.22s-2.32-.35-3.22-.49-1.71-.32-2.34-.41-.73,0-1.13-.37-.88-1-1.47-1.47a5.72,5.72,0,0,0-1.72-1.12,11.67,11.67,0,0,0-1.47-.43,5.24,5.24,0,0,0,.09-1.68,3.8,3.8,0,0,1-.09-1.27c.09-.58.27-.81.13-1.17a2,2,0,0,0-.12-.26,2,2,0,0,0-.42,1.17,11,11,0,0,0,0,1.67,2.23,2.23,0,0,1-.11,1.54,2.37,2.37,0,0,1-1.22.76,3.07,3.07,0,0,0-1.12.54c-.45.37-.77.56-1.2,1s-.76.95-1.13,1.21-.65.46-1,.68-.7.36-.8.73a1.42,1.42,0,0,0,.18,1.09,5,5,0,0,1,.42,1.07c.22.61.44,1.24.64,1.93s.38,1.39.45,1.82.15.67.49.82a2.49,2.49,0,0,1,.91.51,3.56,3.56,0,0,1,.83,1.08,3,3,0,0,0,.52.89,5.28,5.28,0,0,1,.67.76c.28.35.51.62.76.69s.46,0,.65.07.29.07.17.26a1.3,1.3,0,0,0-.23,1.08c.08.22,0,.33-.2.33s-.41-.21-.56-.35a1.84,1.84,0,0,0-.54-.37,2,2,0,0,1-.78-.37c-.14-.17-.55-.54-.72-.78s-.29-.25-.21,0a2,2,0,0,0,.39.71,7.62,7.62,0,0,0,.7.69,7.1,7.1,0,0,1,.62.68c.09.12.28.14.43.3a.26.26,0,0,1,0,.41,1.72,1.72,0,0,0-.72,1.06.25.25,0,0,1-.36.19.88.88,0,0,1-.44-.58c-.06-.26-.28-.43-.41-.71s-.39-.39-.59-.74-.33-.49-.49-.83a4.14,4.14,0,0,0-.34-.6c-.13-.2-.19-.12-.16.13a2.32,2.32,0,0,0,.3.91c.13.13.3.43.5.69a6.92,6.92,0,0,0,.61.89,1,1,0,0,1,.31.57,1.85,1.85,0,0,1-.87.46.38.38,0,0,1-.48-.18c-.1-.23-.15-.54-.29-.83a3.82,3.82,0,0,0-.35-.59c-.13-.18-.3-.25-.4-.6a3.84,3.84,0,0,0-.35-.78,2.54,2.54,0,0,0-.46-.78,1.32,1.32,0,0,0-.45-.35c-.2,0-.25,0-.11.17s.27.29.27.49a.44.44,0,0,1-.28.42.63.63,0,0,1-.67,0,1.19,1.19,0,0,1-.49-.61c-.06-.26-.15-.61,0-.78a1.67,1.67,0,0,1,.34-.41c.1,0,.29,0,.29.14s.13.34.15.12a2,2,0,0,0-.14-.81,3.27,3.27,0,0,0-.38-.92,3.52,3.52,0,0,1-.55-1c-.11-.33-.37-.74-.56-1.22s-.5-1.12-.72-1.67a13,13,0,0,0-.84-1.71,3,3,0,0,0-.7-.93,1.89,1.89,0,0,1-.65-1,3.45,3.45,0,0,1,0-1.39,5.7,5.7,0,0,1,.24-1.31,1.61,1.61,0,0,1,.62-.85,4.54,4.54,0,0,0,.93-.93,10.08,10.08,0,0,0,.72-.89c.2-.28.8-1.09,1.06-1.52s.57-.94.81-1.28a3.88,3.88,0,0,1,1-.89,4.53,4.53,0,0,1,1.06-.61c.43-.17.5-.33.17-.26a8.41,8.41,0,0,0-1,.26c-.26.09-.3.06-.24-.2a1.88,1.88,0,0,1,.33-.71,4.15,4.15,0,0,0,.33-.54c.05-.2-.1-.17-.3.09a6.6,6.6,0,0,1-.62.59,1.14,1.14,0,0,0-.21.9,1.09,1.09,0,0,1-.41.7,5.26,5.26,0,0,0-.88,1.12c-.28.48-.5.88-.78,1.32s-.39.57-.68,1a12,12,0,0,1-1,1.2c-.34.39-.7.52-.94.91a2.83,2.83,0,0,0-.45,1.25,8.24,8.24,0,0,0-.21,1.48,2.25,2.25,0,0,0,.25,1.18s-.52.23-.92.55a8.36,8.36,0,0,0-1,1c-.44.48-1.5,1.57-1.8,2a11.22,11.22,0,0,1-1.06,1.47,1.77,1.77,0,0,0-.61,1.28c0,.36,0,.33-.28.08s-.38-.2-.54-.34-.25.05.09.31a2.2,2.2,0,0,1,.48.56,4.24,4.24,0,0,0,.53.76c.28.33-.17.2-.41,0s-.21.19.12.4c.17.11.38.16.68.32a4.94,4.94,0,0,1,.89.55c.28.24.62.51,1,.77a9.2,9.2,0,0,0,1.12.72c.46.27.91.52,1.35.76s.78.4,1.1.6a5.35,5.35,0,0,1,1,.6c.27.25.17.28,0,.2s-.28,0-.35-.1-.21,0,0,.25a.79.79,0,0,0,.59.18,4.82,4.82,0,0,1,1.2.24,1.28,1.28,0,0,1,.72.57c.24.32.39.73.14.78a3.6,3.6,0,0,1-1,.08,5.61,5.61,0,0,1-1.55-.43,17.28,17.28,0,0,1-1.86-1.15,20.47,20.47,0,0,0-2-1.14,15.54,15.54,0,0,1-1.64-.84c-.51-.32-1.38-1.15-2-1.55A1.6,1.6,0,0,0,58.8,181a1.7,1.7,0,0,0-.49,1.29,4.25,4.25,0,0,0,.43,1.84,8.56,8.56,0,0,0,1.36,1.79L62,187.75a23.74,23.74,0,0,0,1.88,1.52,11.18,11.18,0,0,0,1.73,1,9.32,9.32,0,0,0,1.83.6c.47.1,1.07.17,1.59.33a3.17,3.17,0,0,1,1.22.66.49.49,0,0,1-.28.7c-.32.11-.5.71-.77,1.07s-.47.65-.88.72c-.26,0-.37.05-.5.31a.83.83,0,0,1-.33.31.87.87,0,0,1-.83,0c-.29-.18-.11-.33,0-.36s-.09-.16-.53,0a1.67,1.67,0,0,1-1.44-.24c-.33-.23-.56-.42-1-.82a2.72,2.72,0,0,0-.73-.48c-.4-.16-.84-.24-1.26-.39a9.27,9.27,0,0,1-1.48-.67,6.82,6.82,0,0,0-1.36-.59,2.06,2.06,0,0,0-1.12-.09,2.18,2.18,0,0,1-1.24-.08,2.66,2.66,0,0,1-1.08-.8c-.19-.29-.38-.63-.6-.92s-.27-.18-.12.23c0,.12.06.23,0,.25a1.47,1.47,0,0,1-.89-.09,4.16,4.16,0,0,1-1.14-.55,2.72,2.72,0,0,1-.77-.8s.06-.15.24-.35a1.58,1.58,0,0,0,.41-.65c.12-.36,0-.36-.23,0a2.16,2.16,0,0,1-.77.68c-.4.27-.88.56-1.4.84a15.25,15.25,0,0,0-1.64,1.2c-.47.36-.77.61-1.12.84s-.51.12-.45-.36.08-.68.17-1.2a4.87,4.87,0,0,1,.4-1.28c.24-.56.35-.82.6-1.29s.35-.71.64-1.27a3.93,3.93,0,0,1,.87-1.17,1.75,1.75,0,0,1,1.13-.48,1.82,1.82,0,0,0,.8-.13c.31-.14.27-.35-.12-.26a1.64,1.64,0,0,1-.73,0c-.32,0-.27,0-.27-.32a10.43,10.43,0,0,1,.88-4.24c.36-.88,1-2.42,1.48-3.42s.91-1.84,1.31-2.68,1.47-2.35,1.94-3.16a21.11,21.11,0,0,1,1.72-2.42c.53-.67,1.12-1.25,1.64-1.92s2.22-2.65,2.79-3.32,1.57-1.71,2-2.16.67-.73,1-.77,1.91-.06,2.83-.12,2.93-.19,3.57-.19a18.83,18.83,0,0,1,2.16.2h0l1.71.25c.59.09,1.37.29,1.89.41s1.19.3,1.4.37h0c.57.17,1.08.29,1.71.42a17.79,17.79,0,0,0,2.08.45c.91.12,3.16.69,4.07.87s2,.46,3.49.63a24.34,24.34,0,0,0,3.25.22c.91,0,1.94.12,2.63.11a2.73,2.73,0,0,0,1.59-.39c.5-.31.58-.67.13-.67a6.52,6.52,0,0,1-1-.07.79.79,0,0,1-.56-.33,6.67,6.67,0,0,0-.35-1.32c-.22-.45-.29-.77,0-1.08a6.5,6.5,0,0,0,.84-1.45,2.72,2.72,0,0,1,1.17-1.2,4.78,4.78,0,0,1,1.33-.34,14.84,14.84,0,0,0,1.81-.36,3,3,0,0,1,1.4-.09c.55.09,1,.08,1.36.18a1.71,1.71,0,0,0,1,.09h0a.34.34,0,0,0,.28-.36c0-.25.06-.38-.09-.58a.77.77,0,0,1-.09-.86,1.81,1.81,0,0,1,.86-.82c.48-.2.86-.39,1.12-.52a4.6,4.6,0,0,0,1.08-.77,1.41,1.41,0,0,1,1.41-.26,13.52,13.52,0,0,0,1.59.39,5.27,5.27,0,0,1,1.22.19,4.22,4.22,0,0,1,1,.45c.3.18.43.18.51-.08a1.57,1.57,0,0,1,1.18-.88,5.09,5.09,0,0,1,.84.62c.22.19.52.42.91.76a5,5,0,0,0,1.08.77c.48.26.9.55,1.31.73,1,.43,2,1,3,1.47s2.72,1.31,4.09,2.12,2.68,1.67,4.27,2.77a25.22,25.22,0,0,1,3.68,3.23,17.27,17.27,0,0,1,4.71,9.53,19.52,19.52,0,0,1,0,5.13,12.69,12.69,0,0,1-1.64,4.28,9.31,9.31,0,0,1-2.23,2.64,8.34,8.34,0,0,1-3.51,1.81,21.48,21.48,0,0,1-3.42.81,12.26,12.26,0,0,1-2.17.2,10,10,0,0,1-1-1.55,13.44,13.44,0,0,0-1.57-2.21,16.9,16.9,0,0,0,1.94.2,10.87,10.87,0,0,0,3.66-.49,6.83,6.83,0,0,0,3.18-2,9.19,9.19,0,0,0,1.57-3.08,10.11,10.11,0,0,0,.26-3.89,23.94,23.94,0,0,0-1-3.66,8.12,8.12,0,0,0-1.76-2.7,6.67,6.67,0,0,0-2.82-1.81,12.36,12.36,0,0,0-3.37-1,9.37,9.37,0,0,0-3.29,0,9,9,0,0,1-1.09.27,8.42,8.42,0,0,0,.56-2.1,8,8,0,0,0,0-2.74c-.16-.75-.45-1.18-1.18-1.18a3.82,3.82,0,0,0-1.92.66,7.27,7.27,0,0,0-1.83,1.43,4,4,0,0,0-1,1.71,9.14,9.14,0,0,1-.61,1.95c-.17.33-.29.63-.42.82s-.47.23-.53-.19a1,1,0,0,0-.46-.67c-.27-.17-.58-.2-.85-.38a3.45,3.45,0,0,1-1.24-1.22,1.2,1.2,0,0,1,0-1.21,4.32,4.32,0,0,1,.58-1.2,4.73,4.73,0,0,1,1.75-1.15,1.82,1.82,0,0,0,1-.84,1.61,1.61,0,0,1-.39.23c-.52.22-1.36.62-1.75.83a2.6,2.6,0,0,0-1,1.09,13.24,13.24,0,0,0-.66,1.53,1.27,1.27,0,0,0,.39,1.08,8.36,8.36,0,0,0,.86.8,3.44,3.44,0,0,0,1.08.6c.35.13.48.7.48,1.09a1.52,1.52,0,0,1-.41,1.17,3.57,3.57,0,0,0-.84.72c-.23.3-.75,1-.92,1.25s-.76,1.11-1,1.54a14.85,14.85,0,0,0-.81,1.58c-.18.38-.36,1-.53,1.33s-.38,1.09-.49,1c-.27-.17-.22,0-.1.27a1,1,0,0,1-.22.87,3.79,3.79,0,0,1-1.16.73,8,8,0,0,1-1.4.53c-.23-.11-.27-.13-.18.12s-.49.63-.71.84a8.38,8.38,0,0,1-1,.81c-.25.17-.31.24-.27.45s.22.35.22.56,0,.37-.26.35Zm-15.07-13A4.88,4.88,0,0,1,87,167.62a3.62,3.62,0,0,1-.57-1.66c0-.76.1-.84.25-.34a5.78,5.78,0,0,0,.41,1.41,3.5,3.5,0,0,0,.85,1.24c.36.29.56.79.27.58Zm4.08.21a2.93,2.93,0,0,1-.46-1.22,16.18,16.18,0,0,1-.15-1.79c0-.64.26-.81.3-.23s.14,1.08.21,1.66a9.77,9.77,0,0,0,.29,1.37C92.61,169.35,92.47,169.36,92.28,169.06Zm7.92-.08c0-.35.14-1.21.19-1.71s0-.79,0-1.19.22-.47.27,0a5.8,5.8,0,0,1,.08,1.21c0,.4-.12.64-.25,1.28s-.35.73-.3.38Zm-42.28,21.6a3.69,3.69,0,0,1-.76.14,1.4,1.4,0,0,1-1-.45,2.4,2.4,0,0,1-.47-1.18,3.9,3.9,0,0,1,0-.9c0-.27.16-.27.41-.18a7.21,7.21,0,0,1,1,.45,2.82,2.82,0,0,1,.94.91,1.83,1.83,0,0,1,.18.78A.33.33,0,0,1,57.92,190.58Zm-6.26-4.73a1.82,1.82,0,0,1-.34,1.18,5.93,5.93,0,0,1-1.27,1.07,13.33,13.33,0,0,0-1.23,1c-.38.33-.85.79-1.15,1.11-.15.16-.3.23-.36.21s-.05-.13.11-.34a13.06,13.06,0,0,1,1.09-1.24c.4-.39.85-.85,1.28-1.2a5.51,5.51,0,0,0,.92-.86,2.27,2.27,0,0,0,.46-.88C51.3,185.49,51.64,185.38,51.66,185.85Zm14.44,8.2c-.09.21-.46.3-.79.2a1.67,1.67,0,0,1-.76-.4.68.68,0,0,1-.26-.48c-.05-.24,0-.28.19-.07a1.28,1.28,0,0,0,.46.35c.12.07.29.18.39-.08,0-.06.18-.11.35-.1a.64.64,0,0,1,.33.13.48.48,0,0,1,.09.45Zm-7.72-4.17c0-.15-.11-.44-.15-.66a1.2,1.2,0,0,1,.07-.55,5.88,5.88,0,0,0,.17-.95c0-.36.13-.73.23-.37a2.42,2.42,0,0,1,.11,1.08,4,4,0,0,1-.21,1c-.09.31-.21.63-.22.49Zm44.77-7.73a2.41,2.41,0,0,0-.6,0,1.83,1.83,0,0,0-.58.24,1.29,1.29,0,0,0,.08.42.88.88,0,0,0,.45.5.85.85,0,0,0,.54.1c.22,0,.4-.1.21-.18s-.21-.2-.23-.37a1.06,1.06,0,0,1,.06-.43c0-.09.11-.27.07-.28Zm-2.42.11a1.13,1.13,0,0,0-.41-.25.83.83,0,0,0-.45,0s-.05.09-.06.3a1.81,1.81,0,0,0,.06.61.79.79,0,0,0,.26.43,1.17,1.17,0,0,0,.49.26c.16,0,.29,0,.17-.08a.65.65,0,0,1-.18-.43,1.46,1.46,0,0,1,0-.47,2.77,2.77,0,0,1,.1-.34Zm-1.83-1.47a1.22,1.22,0,0,0-.26-.38,2,2,0,0,0-.42-.27s-.1.14-.15.28a1.12,1.12,0,0,0-.1.47,1.2,1.2,0,0,0,.1.47.85.85,0,0,0,.24.33c.13.1.26.18.19,0a.7.7,0,0,1,0-.38.57.57,0,0,1,.18-.33C98.78,180.88,98.91,180.82,98.9,180.79Zm.22-.18a2.89,2.89,0,0,0-.72-.78c-.12-.06-.07-.38,0-.53s.28-.24.44-.36.36-.35.59-.51A6.75,6.75,0,0,0,100,178a1.7,1.7,0,0,1,.66-.34c.46-.15.58-.18.33.07a2.51,2.51,0,0,0-.55.72,4.6,4.6,0,0,1-.32.83c-.12.19-.38.59-.5.83a1.55,1.55,0,0,1-.25.47c-.12.11-.2.08-.22.06Zm-11.34-2.82a7.19,7.19,0,0,1-.23-1.08s.2-.07.45-.21.62-.34.91-.53.68-.29.85-.52.44-.53.65-.78a2.14,2.14,0,0,0,.3-.7c.06-.14.17-.21.3.05a2.29,2.29,0,0,0,.66.72.4.4,0,0,1,.21.5.81.81,0,0,1-.54.44,1.74,1.74,0,0,0-.66.52c-.19.21-.18.49-.53.73a2.91,2.91,0,0,1-.93.35,7.7,7.7,0,0,0-.83.25,4.84,4.84,0,0,1-.61.26Zm2.39-4.33A2.24,2.24,0,0,1,89,173c-.21-.21-.35-.2-.52-.11s-.15.28-.24.57a1.52,1.52,0,0,1-.44.82,2.37,2.37,0,0,0-.5.41,13.21,13.21,0,0,0,.15,1.61,4.44,4.44,0,0,0,.49-.27,5.23,5.23,0,0,1,.81-.44,1.28,1.28,0,0,0,.66-.49c.17-.26.3-.56.45-.74s.38-.25.44-.45,0-.46-.16-.47Zm.16-.25a1.57,1.57,0,0,1-.54-.1,1.69,1.69,0,0,1-.47-.26c-.09-.07.1-.12.19-.22a1.51,1.51,0,0,0,.3-.42.75.75,0,0,0,.12-.42,2.26,2.26,0,0,0,0-.29c0-.09,0-.16.13-.05a1.52,1.52,0,0,1,.35.32,1,1,0,0,1,.24.52,1.19,1.19,0,0,1,0,.6c-.08.15-.19.33-.24.32Zm1.55,1.34a.78.78,0,0,1-.39-.28,1.42,1.42,0,0,1-.33-.53c0-.13.1-.08.25-.15a.77.77,0,0,0,.4-.34.75.75,0,0,0,.13-.41c0-.17,0-.22.1-.1a1.06,1.06,0,0,1,.24.51,1.55,1.55,0,0,1,0,.71,1.5,1.5,0,0,1-.2.42c-.06.1-.11.19-.16.17Zm.73,2a.67.67,0,0,1-.33-.33,1,1,0,0,1-.12-.59c0-.16.12-.08.3-.13a1.6,1.6,0,0,0,.45-.16.8.8,0,0,0,.32-.39c0-.16.08-.34.16-.1a1,1,0,0,1,.07.63,1.29,1.29,0,0,1-.27.64,1.11,1.11,0,0,1-.32.31c-.1.07-.18.16-.26.12Zm-.15.2a1.24,1.24,0,0,1-.6-.85c0-.21-.15-.11-.33,0a2.06,2.06,0,0,0-.57.41c-.13.14-.17.42-.3.57a1.57,1.57,0,0,1-.47.4c-.38.18-.4.23,0,.2s.47,0,.75,0,.51-.06.76-.11a1.46,1.46,0,0,0,.58-.14c.18-.1.25-.34.15-.4ZM82,174.42a5.36,5.36,0,0,0-.6-1,14.87,14.87,0,0,1-1-1.46,16.31,16.31,0,0,0-1-1.4,6.13,6.13,0,0,0-1-1c-.28-.22-.53-.64-.43-.33a6,6,0,0,1,.21,1.12,4.37,4.37,0,0,0,.24,1.16,2,2,0,0,0,.58,1,5.46,5.46,0,0,0,.91.6c.33.18.7.47,1.1.74s1,.67,1,.52Zm-4.53-5.65a10.86,10.86,0,0,0-1.14.15l-1.47.3a8.2,8.2,0,0,1-.86.16l-.74,0c-.28,0,0-.14.22-.3a2.65,2.65,0,0,0,.62-.59,7.8,7.8,0,0,1,.66-.76,6,6,0,0,1,.79-.72c.28-.19.56-.45.57-.4a1.88,1.88,0,0,0,.46.85c.19.23.45.69.61.87s.41.4.27.42ZM73.54,190a3.41,3.41,0,0,0-.47-.86,4.84,4.84,0,0,0-.86-.81,6.87,6.87,0,0,0-1.2-.66,8.66,8.66,0,0,0-1.44-.45c-.48-.1-1.66-.2-1.89-.21a2.77,2.77,0,0,0-.4.51,6.15,6.15,0,0,0-.43.71,2.25,2.25,0,0,0,.76.11,1.44,1.44,0,0,1,.64-.45c.2-.07.21.36.2.5a2.13,2.13,0,0,0,.43.11c.43.07.72.11,1.29.23s1,.18,1.53.31a3.44,3.44,0,0,1,1.07.49,1.54,1.54,0,0,1,.54.5c.19.28.29.39.23,0Zm-20.46,0a4,4,0,0,1-1.32-1c0-.06-.17.51-.25.95s-.18,1.23-.26,1.64-.15.77-.19,1.14.13.49.27.18a5.53,5.53,0,0,1,.67-1,5.68,5.68,0,0,0,.71-1,3.47,3.47,0,0,0,.37-.91Zm6.47,1.93a4.4,4.4,0,0,0-1-.4,1.75,1.75,0,0,0-1,.07,4.73,4.73,0,0,0,.56.44,1.14,1.14,0,0,0,.93.08C59.54,192,59.76,192.05,59.55,191.94Zm-9.48-9.77a10.15,10.15,0,0,1,.49-2.39c.18-.47,0-.31-.26-.06a6.5,6.5,0,0,0-.75.66c-.19.23-.21.23-.06.67s.26.62.39.92.16.46.19.2Zm1.43-4.73c.27-.78,1-2.44,1.48-3.41.23-.46,0-.22-.34,0a11.9,11.9,0,0,0-1,.77c-.37.3-.3.24-.29.72s.07.93.08,1.37,0,.83.12.57ZM56.59,168c-.4.48-1.63,2.42-2,3.05s-.28.47-.26-.12c0-.75,0-1.32.08-1.82s0-.6.49-.81a11.75,11.75,0,0,1,1.4-.48c.41-.12.51-.1.28.18Zm4.79-5.68c-.3.32-2.68,3.11-3,3.55s-.25.24-.19-.17c.09-.57.32-1.84.43-2.26s.1-.62.64-.79,1-.31,1.6-.46.84-.19.54.13Zm1.73-1.7c.24-.31.59-.58.83-.84s.52-.55.17-.54-.51,0-.71,0-.4-.16-.43.1c0,.42,0,.52-.07,1s-.06.62.21.28Zm34.39,1.73a3.38,3.38,0,0,1-1,.35c-.22,0-.15,0-.16-.13a2.4,2.4,0,0,0-.07-.5c-.06-.26-.07-.25.15-.15a1.58,1.58,0,0,0,.6.13h.49C97.78,162,97.76,162.18,97.5,162.33ZM66.41,188.08c-.16-.06-.61-.28-.87-.42s-.65-.36-1-.57-.66-.43-1.05-.72a11.1,11.1,0,0,1-1.09-.92c-.25-.25-.66-.62-1-.91s-.58-.58-.9-.95a8.07,8.07,0,0,0-1-1c-.33-.27-.73-.61-1-.78a1.54,1.54,0,0,1,.2-.5,7.07,7.07,0,0,1,.94.82,13.25,13.25,0,0,1,1,1.11,7.62,7.62,0,0,0,1.06,1,18,18,0,0,0,2,1.42c.47.21,1.33.7,1.79.85l1,.33s-.07.32-.12.53-.09.68-.1.68Zm13.16-7a1.06,1.06,0,0,1-.54.11c-.2,0-.28-.2-.39-.07a1.07,1.07,0,0,0-.15.81c.05.12.23.11.52,0a1,1,0,0,0,.66-.54C79.88,181,79.74,181.05,79.57,181.13Zm-1.14,3.06a1.08,1.08,0,0,1-.55-.09c-.17-.11-.3-.46-.37-.44a.86.86,0,0,0-.64.82c0,.08.12.13.31.18a2.7,2.7,0,0,0,.7,0,.94.94,0,0,0,.54-.18C78.62,184.38,78.75,184.21,78.43,184.19Zm-2.36,1.51a1.63,1.63,0,0,1-.66,0,.93.93,0,0,1-.46-.29c-.11-.14-.3-.35-.21-.36a1,1,0,0,0,.67-.31s.09.18.18.32a.78.78,0,0,0,.3.33l.26.12c.19.09.15.15-.08.2"/><path id="path22" class="cls-9" d="M92.55,255.53a3.5,3.5,0,0,0-.25-.91c-.19-.4-.28-.71-.47-1s-.26-.39-.29-.28-.08.24-.12,0a2.51,2.51,0,0,0-.25-.68c-.12-.22-.27-.55-.39-.74s-.27-.35-.37-.54a2.06,2.06,0,0,1-.28-.62,1.7,1.7,0,0,1,0-.54c0-.24.14-.61.2-.83s.21-.63.28-.86.12-.6.21-.81.4-.74.55-1,.47-.75.71-1.11a13.1,13.1,0,0,1,.84-1.16,6.56,6.56,0,0,1,1-.9,4.67,4.67,0,0,1,1-.54,2.62,2.62,0,0,1,1-.24,3,3,0,0,1,1.27.33,5.19,5.19,0,0,1,1,.83,6.06,6.06,0,0,1,.72.93,2.88,2.88,0,0,1,.38,1.11,9,9,0,0,1,.18,1.65,12.5,12.5,0,0,0,0,1.39,3.2,3.2,0,0,1-.07.91,2,2,0,0,1-.17.52c-.06.11-.52.77-.64.95a9,9,0,0,0-.37.85c-.12.25-.36.71-.49.92s-.08.24-.39.36-.54.46-.83.62a2.27,2.27,0,0,1-.75.25c-.22.05-.34.05-.31-.15s.15-.31-.18-.26a4.91,4.91,0,0,0-1,.25,2.69,2.69,0,0,0-.9.52,4.47,4.47,0,0,0-.62.61c-.11.14-.18.25-.18.25Zm3.35-7a.43.43,0,0,0,.32-.2.78.78,0,0,0,.16-.51c0-.24,0-.32-.2-.4a1.46,1.46,0,0,1-.53-.26,1.54,1.54,0,0,0-.58-.32,1.41,1.41,0,0,0-.55-.08,1.17,1.17,0,0,1-.39,0,.38.38,0,0,0-.37,0,1.07,1.07,0,0,0-.29.53,1.19,1.19,0,0,0,0,.5c0,.13.08.21.15.1s0-.28,0-.42a.72.72,0,0,1,.16-.39c.15-.24.33-.15.54-.11A5,5,0,0,1,95,247a1.19,1.19,0,0,1,.46.24,1.1,1.1,0,0,0,.43.26c.12,0,.24,0,.26.21a1.06,1.06,0,0,1,0,.44c0,.1-.07.18-.17.21s-.19,0-.18.1.09.08.2.06ZM97.1,246l-.77.06-.48.06a.26.26,0,0,1-.28-.11.43.43,0,0,0-.41-.18c-.19,0-.24.05-.35-.1s-.2-.23-.3-.38-.14-.2-.21-.28,0-.14.1-.11a1.92,1.92,0,0,1,.51.2.69.69,0,0,0,.4.11,1.06,1.06,0,0,1,.58.21.78.78,0,0,0,.4.19,3.81,3.81,0,0,1,.53.16c.22.07.38.16.28.17Zm-1.24-1.23-.51-.17c-.14-.05-.11-.05-.09-.13a.79.79,0,0,0,0-.22c0-.07,0-.15.15,0a1.49,1.49,0,0,0,.54.23l.49.07c.17,0,.31,0,.43,0s.17.1,0,.16a.75.75,0,0,0-.28.17.21.21,0,0,1-.22,0l-.55-.16Zm-1.21,7c-.16.05-.22.12,0,.25s.35.23.6.37l.6.36a.58.58,0,0,0,.31.11,4.15,4.15,0,0,0,.49,0,2.24,2.24,0,0,0,.52-.06c.19,0,.49-.22.14-.22a5,5,0,0,1-.75,0,1.6,1.6,0,0,1-.54-.15c-.15-.1-.27-.16-.42-.28a2.22,2.22,0,0,0-.46-.29c-.17-.09-.21-.11-.31-.11a.63.63,0,0,0-.18,0Zm-2-.68a.5.5,0,0,1-.48.19c-.28,0-.63-.12-.84-.14a1.34,1.34,0,0,1-.72-.21,2.28,2.28,0,0,1-.35-.37c-.11-.14-.12-.42,0-.33a4.06,4.06,0,0,0,.41.35,1.15,1.15,0,0,0,.54.18c.21,0,.35,0,.61.07a3.56,3.56,0,0,1,.58.09c.18,0,.32.11.29.17Zm.28-.16a1.61,1.61,0,0,0,.49-.34,2,2,0,0,0,.34-.66c.06-.23.2-.69.24-.9a3.09,3.09,0,0,0,.06-.58,2.15,2.15,0,0,0,0-.4c0-.14-.11-.33-.12-.1a4,4,0,0,1-.07.78c-.08.32-.13.6-.21.87a5.28,5.28,0,0,1-.31.82c-.09.17-.18.21-.24.31s-.26.23-.14.2Zm2.5-.17a1.59,1.59,0,0,0,.62.71,1.38,1.38,0,0,0,.73.17,3.39,3.39,0,0,0,.57-.09c.26-.05.2-.09.13-.24a1,1,0,0,0-.26-.39,1.29,1.29,0,0,0-.62-.32,3.73,3.73,0,0,0-.64-.09c-.2,0-.28,0-.39,0s-.2,0-.22,0,0,.15.09.27Zm-2.61-.85a1.4,1.4,0,0,1-.85.26,1.45,1.45,0,0,1-.68-.22,1.4,1.4,0,0,1-.41-.39c-.14-.17-.1-.21,0-.28a1,1,0,0,1,.42-.15,1.18,1.18,0,0,1,.65.06,3.48,3.48,0,0,1,.57.26c.17.08.23.13.33.17s.18.07.17.12-.09.11-.21.17Zm38.06-32.77c-.1-.2-.41-.72-.62-1.17s-.4-.81-.53-1.18c-.06-.15-.18-.53-.22-.66a2,2,0,0,1,.32-.48,2.77,2.77,0,0,1,.78-.62,7.63,7.63,0,0,1,1.16-.34c0,.18.15.75.22,1.12s.14.64.18.81a3,3,0,0,1,.09.38,1.1,1.1,0,0,0-.38-.09,1.52,1.52,0,0,0-.62,0c-.2.07-.27.15-.07.13a2.64,2.64,0,0,1,.81.07,4.53,4.53,0,0,1,.81.27,1.41,1.41,0,0,1,.61.57c.08.15.21.29.2.33a1.68,1.68,0,0,1-.06.27c0,.05-.15.17-.17.21-.11.23,0,.21.08.05a2.36,2.36,0,0,0,.18-.17c.16-.24,0-.35.21-.44a1.23,1.23,0,0,1,.53-.14.67.67,0,0,1,.45.12c.12.1.12.17.27.18s.25,0,.07-.06a.47.47,0,0,1-.32-.21.51.51,0,0,1-.14-.41.71.71,0,0,1,.15-.47.75.75,0,0,1,.41-.25c.13,0,.25.22.25.44a2.59,2.59,0,0,0,0,.48c.08.16,0,.37.08.6a.33.33,0,0,1-.19.46c-.21.09-.72.21-.91.29a2,2,0,0,1-.84.19c-.35,0-.79,0-1,0a3.8,3.8,0,0,1-.75-.13,5.1,5.1,0,0,0-.65-.12,2.65,2.65,0,0,1-.38-.06Zm4.45-4.65c.13-.09.11-.34.05-.49a.48.48,0,0,0-.31-.31,1.39,1.39,0,0,0-.53,0,5.18,5.18,0,0,0-.78.21,2.78,2.78,0,0,0-.52.3.42.42,0,0,0-.11.37c0,.15.06.25.21.3a1.14,1.14,0,0,0,.6,0c.21-.07.56-.1.82-.16A2.71,2.71,0,0,0,135.29,212.44Zm.7,1.18a1.44,1.44,0,0,1-.55.21l-.57.14c-.26.07-.5.1-.79.16a2.11,2.11,0,0,1-.72.05.51.51,0,0,1-.45-.31.55.55,0,0,1,.13-.55,1.73,1.73,0,0,1,.66-.27l.85-.19c.17-.05.38-.12.59-.17a1.08,1.08,0,0,1,.57,0,.75.75,0,0,1,.34.4.46.46,0,0,1-.06.51Zm.16,1.47a2,2,0,0,1-.52.18c0-.28-.07-.58-.39-.5a.89.89,0,0,0-.72.68,4.5,4.5,0,0,1-.82,0,.5.5,0,0,1-.46-.4c-.05-.2-.12-.39.09-.55a1.61,1.61,0,0,1,.73-.23l1-.18c.34-.06.7-.19.84-.22a.65.65,0,0,1,.37,0,.5.5,0,0,1,.23.44.82.82,0,0,1-.05.49.84.84,0,0,1-.32.27Zm.41.24c-.08-.07-.22-.07-.43,0a1.76,1.76,0,0,0-.48.15,1.47,1.47,0,0,0,.06.47,2.05,2.05,0,0,1,.09.63,1,1,0,0,0,.39-.08.61.61,0,0,0,.43-.59c0-.29,0-.5-.06-.56Zm-2.06.31a.94.94,0,0,0,0,.29s-.13,0-.27,0a.71.71,0,0,0-.26.09.23.23,0,0,1,0-.13.31.31,0,0,1,.18-.22A1,1,0,0,1,134.5,215.64ZM73.07,227.76a5,5,0,0,0-.4-1c-.2-.38-.53-.87-.67-1.1s-.16,0-.44,0a2.16,2.16,0,0,1-.78-.09,2.53,2.53,0,0,0-.74,0c-.35,0-.6.07-.8.1a2.14,2.14,0,0,1-.56.05c-.24,0-.55,0-.8-.08l-.85-.17a1.53,1.53,0,0,0-.69.06.6.6,0,0,0-.39.31.4.4,0,0,0,.14.45,1.64,1.64,0,0,0,.64.34c.22,0,.37.08.55.1a1.7,1.7,0,0,1,.57.16,2.75,2.75,0,0,1,.48.28.61.61,0,0,1,.26.28c.11.21.06.27,0,.22s-.2.07-.23.22a2.33,2.33,0,0,1-.21.5c-.1.2-.22.22-.41.29a1.53,1.53,0,0,0-.45.25,2.2,2.2,0,0,0-.26.27c-.09.11-.16.14-.13,0A.52.52,0,0,1,67,229c.15-.16,0-.21-.27-.25l-.61,0a1.21,1.21,0,0,0-.47,0c-.17,0-.2,0-.12-.06a.56.56,0,0,1,.36-.12c.25,0,.27-.05.2-.22a2.56,2.56,0,0,0-.24-.44c-.08-.11-.08-.26-.12-.27a1.57,1.57,0,0,1-.49-.33,1.12,1.12,0,0,1-.31-.43c-.06-.17-.19,0-.23.22s-.08.42-.09.56a1.3,1.3,0,0,0,.11.63l.36.88a1.63,1.63,0,0,0,.38.58,1.47,1.47,0,0,0,.59.3c.27.07.52.19.85.3s.56.12.83.2a2.54,2.54,0,0,0,.9.19,1.13,1.13,0,0,0,.66-.38c.24-.24.91-.73,1.19-.95l.86-.66a5,5,0,0,1,.83-.54c.42-.24.89-.38.89-.41"/><path id="path24" class="cls-10" d="M76.3,205c-2.14,0-3.89-.41-3.89-.91s1.75-.92,3.89-.92,3.89.41,3.89.92S78.44,205,76.3,205Zm0-4.29c-2.07,0-3.77,1.19-4,2.72a12,12,0,0,1,4.32-.61,10.19,10.19,0,0,1,3.64.61C80.08,201.94,78.37,200.75,76.3,200.75ZM56.52,205c2.14,0,3.89-.41,3.89-.91s-1.75-.92-3.89-.92-3.89.41-3.89.92S54.37,205,56.52,205Zm0-4.29c2.06,0,3.77,1.19,4,2.72a12,12,0,0,0-4.32-.61,10.19,10.19,0,0,0-3.64.61C52.74,201.94,54.45,200.75,56.52,200.75Zm8.35,17.32a.81.81,0,0,0-.23-.22c.15-.33.34-.74.45-1-1.76,0-4.43-.06-5-.09-.71,0-3.22-.3-3.76-.23s-.75.33-1.09.9-.7,1.27-.2,1.18.76-.84,1-1.21.58-.26,1.3-.19,2.58.42,4,.56c.9.09,2.32.2,3.47.26Zm3.14,0c1.14-.06,2.53-.17,3.41-.25,1.41-.14,3.27-.49,4-.56s1.07-.14,1.31.19.52,1.11,1,1.21.14-.61-.2-1.18-.56-.83-1.09-.9-3,.19-3.76.23c-.53,0-3.15.1-4.9.11.13.34.37.77.46,1A.89.89,0,0,0,68,218.06Zm-1.6-3.41h0s1,2.3,1.1,2.72.15.31-.06.56a5.21,5.21,0,0,0-.58,1.87c0,.49-.09,1.38-.06,1.9s.06,2.33.15,2.72a9.6,9.6,0,0,0,.35.92,7.17,7.17,0,0,0-.82,0c-.44.08-.72.28-.75.49a.82.82,0,0,0,.29.7,1.78,1.78,0,0,0,.91.37c-.06.15-.36.21-.53.21h0a1.12,1.12,0,0,1-1-1.14c0-.52.4-1.16.49-1.56s.12-2.2.15-2.73,0-1.4-.06-1.89a5.27,5.27,0,0,0-.58-1.88c-.22-.24-.22-.12-.06-.55s1.09-2.7,1.1-2.72Zm0,3.45a.68.68,0,0,1-.69-.68.69.69,0,1,1,1.37,0A.68.68,0,0,1,66.42,218.1ZM94.6,262.42a10.8,10.8,0,0,1-4.12-20.79,6.87,6.87,0,0,1-.53.82,10.37,10.37,0,0,0-1.73,2.26,10.23,10.23,0,0,0-.47,3.17c0,1,.15,1.89.07,2.84a14.17,14.17,0,0,0-.12,3,5.88,5.88,0,0,0,.86,2.55,6.24,6.24,0,0,0,2,1.7,1.38,1.38,0,0,0,1.33-.07c.11.05.11.7,1,.86,1.35.25,2.8-.32,4.18-.57a3.69,3.69,0,0,0,2.39-2.11c.6-1.2,1.26-2.28,1.77-3.47.62-1.46,1.36-1.66,1.73-2.65a10.73,10.73,0,0,0,.57-2.7c0-.51.06-1.14.07-1.63a10.8,10.8,0,0,1-9,16.81Zm49.73-11.63c.23-.07.33-4.19-.39-6.74l-6.81-24.27-.39-1.36c-.57.11-1.12.24-1.67.4s-1.11.35-1.64.55l.39,1.37,7.24,24.15c.74,2.53,3,6,3.27,5.89Zm-9.59-33c1.81-.53,3.69-.9,5.52-1.25l.6,1.43a13.43,13.43,0,0,0-3.58,0c-1,.22-1.91.44-2.31.55s-1.27.39-2.25.77a14.38,14.38,0,0,0-3,1.81l-.28-1.46c1.74-.68,3.53-1.37,5.34-1.89Zm-2-7a1.1,1.1,0,1,1,.93-1.4A1.21,1.21,0,0,1,132.72,210.75Zm1-.28a1.6,1.6,0,0,1-.81.53,2.49,2.49,0,0,1-1.14,0s.06.49.09.71.11.86.18,1.23.27,1.19.35,1.43l.16.58a.89.89,0,0,1,.22,0c.14,0,.24.11.23.09a1.81,1.81,0,0,1,0-.4.37.37,0,0,1,.13-.28c.15-.12.22-.12,0-.15a.52.52,0,0,1-.38-.45.76.76,0,0,1,.14-.58.66.66,0,0,1,.21-.2c.22-.1.17-.07,0-.11s-.18-.24-.19-.37a.65.65,0,0,1,.11-.43,1.89,1.89,0,0,1,.46-.32,2.26,2.26,0,0,1,.55-.21l.29-.06-.35-.73a1.74,1.74,0,0,0-.23-.35"/><path class="cls-2" d="M77.4,99.39c-12.64,0-22.88,10.17-22.88,30.52,0,25.43,18.21,50.86,40.68,50.86s40.69-25.43,40.69-50.86c0-20.35-10.25-30.52-22.89-30.52a22.92,22.92,0,0,0-17.8,8.5,22.9,22.9,0,0,0-17.8-8.5Zm0,0"/><rect class="cls-2" x="22.38" y="112.61" width="145.64" height="54.95" rx="5.46"/><text class="cls-11" transform="translate(34.18 159.52)">Biała Podlaska</text><text class="cls-12" transform="translate(48.87 137.67)">Bieraście</text><path class="cls-2" d="M150.64,0l29,0h16l0,16c0,7,0,14,0,21A29.09,29.09,0,0,1,150.64,0Z"/><text class="cls-13" transform="translate(159.7 31.75)">40</text></svg>