<?xml version="1.0" encoding="utf-8"?>
<!-- Generator: Adobe Illustrator 26.0.3, SVG Export Plug-In . SVG Version: 6.00 Build 0)  -->
<svg version="1.1" id="Слой_1" xmlns="http://www.w3.org/2000/svg" xmlns:xlink="http://www.w3.org/1999/xlink" x="0px" y="0px"
	 viewBox="0 0 195.6 280.6" style="enable-background:new 0 0 195.6 280.6;" xml:space="preserve">
<style type="text/css">
	.st0{clip-path:url(#SVGID_00000166633230943034958270000004955801989793691271_);fill:#E94539;}
	.st1{clip-path:url(#SVGID_00000166633230943034958270000004955801989793691271_);}
	.st2{fill-rule:evenodd;clip-rule:evenodd;fill:#A91916;}
	.st3{fill-rule:evenodd;clip-rule:evenodd;fill:#FFFFFF;}
	.st4{fill-rule:evenodd;clip-rule:evenodd;fill:#E0232D;}
	
		.st5{fill-rule:evenodd;clip-rule:evenodd;fill:url(#path23_00000139278114965779598600000004274777348393878969_);stroke:#424242;stroke-width:0.75;}
	.st6{fill-rule:evenodd;clip-rule:evenodd;fill:#F1E743;stroke:#424242;stroke-width:0.75;}
	.st7{fill:none;stroke:#424242;stroke-width:0.75;}
	.st8{fill:#F1E743;stroke:#424242;stroke-width:1.89;}
	.st9{fill-rule:evenodd;clip-rule:evenodd;fill:#F2F2F2;stroke:#424242;stroke-width:0.21;}
	.st10{fill:none;stroke:#424242;stroke-width:1.89;}
	.st11{fill-rule:evenodd;clip-rule:evenodd;fill:#097CC1;}
	.st12{fill:#424242;}
	.st13{fill:#FFFFFF;}
	.st14{fill:#E0232D;}
	.st15{fill:#FAD000;}
	.st16{fill:#097CC1;}
	.st17{fill:#FFD405;}
	.st18{clip-path:url(#SVGID_00000166633230943034958270000004955801989793691271_);fill:#FFFFFF;}
	.st19{clip-path:url(#SVGID_00000166633230943034958270000004955801989793691271_);enable-background:new    ;}
	.st20{font-family:'Impact';}
	.st21{font-size:19.11px;}
	.st22{font-size:24.77px;}
	.st23{clip-path:url(#SVGID_00000166633230943034958270000004955801989793691271_);fill:#097CC1;}
	.st24{font-size:20px;}
</style>
<g>
	<defs>
		<rect id="SVGID_1_" x="0" y="0" width="195.6" height="280.6"/>
	</defs>
	<clipPath id="SVGID_00000122000025127833299800000004260599533730054842_">
		<use xlink:href="#SVGID_1_"  style="overflow:visible;"/>
	</clipPath>
	
		<rect x="-9.2" y="-8.4" style="clip-path:url(#SVGID_00000122000025127833299800000004260599533730054842_);fill:#E94539;" width="214" height="297.9"/>
	<g id="layer1" style="clip-path:url(#SVGID_00000122000025127833299800000004260599533730054842_);">
		<path id="path3040" class="st2" d="M124,77.9c1.1,0,2,0.9,2,2V82c0,1.1-0.9,2-2,2h-2v-6.1H124z M124,86.1c2.3,0,4.1-1.8,4.1-4.1
			v-2c0-2.3-1.8-4.1-4.1-4.1h-4.1v10.2H124z M115.8,75.9h2.1v10.3h-2.1V75.9z M111.7,75.9h2v10.3h-2l-4.1-6.4v6.4h-2V75.9h2l4.1,6.4
			V75.9z M80.9,75.9H87v2.1h-4.1v2h4.1V82h-4.1v2h4.1v2h-6.2L80.9,75.9L80.9,75.9z M72.7,75.9h2v8.2h4.1v2h-6.1L72.7,75.9z
			 M94.2,84.1h2.1c1.7,0,3.1-1.4,3.1-3.1s-1.4-3.1-3.1-3.1l0,0h-2v2h2.1c0.6,0,1,0.5,1,1s-0.5,1-1,1h-2.1v2L94.2,84.1z M96.3,73.8
			c4,0,7.2,3.2,7.2,7.2s-3.2,7.2-7.2,7.2c-4,0-7.2-3.2-7.2-7.2c0,0,0,0,0,0C89.1,77,92.3,73.8,96.3,73.8
			C96.3,73.8,96.3,73.8,96.3,73.8L96.3,73.8z M96.3,75.8c2.8,0,5.1,2.3,5.1,5.1s-2.3,5.1-5.1,5.1c-2.8,0-5.1-2.3-5.1-5.1
			C91.2,78.2,93.5,75.9,96.3,75.8L96.3,75.8z"/>
		<path id="path19" class="st3" d="M96.3,11.5c20.2,0,38.5,3.5,51.7,9.1c2.2,0.9,4.2,1.9,6.1,3V52c-8,6.1-9.4,17.6-3.3,25.5
			c1,1.2,2.1,2.3,3.3,3.3c0,11.8,1.2,24.2-5.1,34.8s-18.5,16-29.4,20.7c-8.3,3.6-17.2,7-23.3,14.1c-6.1-7.1-15-10.5-23.3-14.1
			c-10.9-4.7-23.1-10-29.4-20.7s-5.1-23.1-5.1-34.8c8-6.1,9.4-17.6,3.3-25.5c-1-1.2-2.1-2.3-3.3-3.3V23.6c1.9-1,3.9-2,6.1-3
			C57.8,15,76.1,11.5,96.3,11.5z"/>
		<path id="path21" class="st4" d="M96.3,12.4c-18.7,0-40.1,2.7-57,11.7v27.5c8.2,6.6,9.5,18.6,2.8,26.8c-0.8,1-1.8,2-2.8,2.8
			c0,11.4-1.1,23.6,5,34c6.2,10.6,18.3,15.7,29,20.4c8.2,3.5,16.8,6.9,22.9,13.6c6.2-6.7,14.8-10.1,22.9-13.6
			c10.8-4.7,22.8-9.8,29-20.4c6.1-10.3,5-22.5,5-34c-8.2-6.6-9.5-18.6-2.8-26.8c0.8-1,1.8-2,2.8-2.8V24.1
			C136.4,15,115,12.4,96.3,12.4z"/>
		
			<linearGradient id="path23_00000013158930254416607950000014339173795712272802_" gradientUnits="userSpaceOnUse" x1="-341.0231" y1="389.8651" x2="-341.0231" y2="385.1751" gradientTransform="matrix(8.9 0 0 8.91 3141.51 -3372.9006)">
			<stop  offset="0" style="stop-color:#F1E743"/>
			<stop  offset="0.5" style="stop-color:#FBBA10"/>
			<stop  offset="1" style="stop-color:#F1E743"/>
		</linearGradient>
		
			<path id="path23" style="fill-rule:evenodd;clip-rule:evenodd;fill:url(#path23_00000013158930254416607950000014339173795712272802_);stroke:#424242;stroke-width:0.75;" d="
			M96.9,16.9c2.4-0.4,4.7,0.8,5.9,2.9c2,3.3,2.9,7.2,2.5,11l30,45.5v3.9l-30,45.5c0.4,3.8-0.5,7.7-2.5,11c-1.2,2.1-3.5,3.3-5.9,2.9
			c-2.3-0.2-4.1-2-4.2-4.3c0-2.3,1.9-4.1,4.1-4.1c0.4,0,0.8,0.1,1.1,0.2l0.3-0.4c-1.5-1-1.9-2.4-0.4-3.8c0.7-0.7,3-2.3,2.9-3.2
			c-0.7-11.9-23.1-15-23.2-28.7c0-4.4,3.1-8,9.1-11V72.3c-6-3-9.2-6.6-9.1-11c0.1-13.7,22.5-16.8,23.2-28.7c0.1-0.9-2.2-2.6-2.9-3.2
			c-1.5-1.4-1-2.8,0.4-3.8l-0.3-0.4c-2.2,0.6-4.4-0.6-5.1-2.8c-0.1-0.4-0.2-0.7-0.2-1.1C92.8,18.9,94.6,17,96.9,16.9z M134,78.2
			l-29.3-44.3c-1,4.1-2.9,7.8-5.7,11C95,49.5,88.5,54.7,87.6,60c-0.6,3.2,1,6.2,5.6,8.2v20c-4.6,2-6.2,5-5.6,8.2
			c0.9,5.2,7.5,10.5,11.6,15.2c2.7,3.1,4.6,6.9,5.6,10.9L134,78.2z"/>
		<path id="path25" class="st6" d="M109.9,78.8c1.1,12,28.9,13.6,28.9,5.7c0-2.7-2.3-4.5-4.6-5.7v-1.2c2.3-1.2,4.6-3.1,4.6-5.7
			c0-8-27.7-6.4-28.8,5.7C109.9,77.4,109.9,78.7,109.9,78.8z"/>
		<path id="path27" class="st7" d="M131,66.9l-3.7,11.2l3.7,11.2 M127.5,66.8l-3.8,11.3l3.8,11.3 M123.8,67.2l-3.6,10.9l3.6,10.9
			 M120,68l-3.3,10l3.3,10 M115.9,69.6l-2.8,8.3l2.8,8.3 M134.4,67.4L130.8,78l3.5,10.5"/>
		<rect id="rect29" x="76.7" y="76.4" class="st8" width="59.2" height="3.4"/>
		<polygon id="polygon31" class="st9" points="77.6,80.8 68.5,80.6 68.5,75.7 77.6,75.3 		"/>
		<polygon id="polygon33" class="st9" points="70,78.1 75.5,91.3 52.8,78.1 75.5,64.8 		"/>
		<line id="line35" class="st10" x1="53" y1="78.1" x2="70.2" y2="78.1"/>
	</g>
	<g id="Warstwa_1" style="clip-path:url(#SVGID_00000122000025127833299800000004260599533730054842_);">
		<g id="_74930080">
			<path id="_75002600" class="st3" d="M38.2,187.5c0-31.8,26.8-57.7,59.8-57.7s59.8,26,59.8,57.7v81.4H38.2V187.5z"/>
			<path id="_75002528" class="st11" d="M39.4,187.7L39.4,187.7c0-31.2,26.3-56.7,58.6-56.7s58.6,25.4,58.6,56.6l0,0v79.9H39.4
				V187.7z"/>
			<path id="path44" class="st12" d="M151.9,194.5v-8.2c1.6,0.8,3.1,1.7,4.6,2.6v-1.1l0,0c0-31.2-26.3-56.7-58.6-56.7
				s-58.6,25.4-58.6,56.6l0,0v1.1c1.5-0.9,3.1-1.8,4.6-2.6v8.2l0.4-0.2c2.9-1.7,5.8-3.3,8.9-4.7v23.9h-1.8v3.3h-1.8v9.5h3.8
				l13.2,7.9l13-7.9h3.7v-9.5h-1.8v-3.3h-1.8v-32.2c1.8-0.3,3.6-0.6,5.4-0.8v19.4h-1v3.1h-1.2l13.9,18.2v2.6c-1.2,0.6-1.6,2.1-1,3.3
				c0.6,1.2,2.1,1.6,3.3,1c1.2-0.6,1.6-2.1,1-3.3c-0.2-0.4-0.5-0.7-0.9-0.9v-2.7L113,203h-1.2v-3.1h-1.2v-19.4
				c1.9,0.2,3.8,0.5,5.7,0.9v32.2h-1.8v3.3h-1.8v9.5h3.8l13.2,7.9l13-7.9h3.7v-9.5h-1.8v-3.3h-1.8v-23.8c3,1.4,5.9,3,8.8,4.6
				L151.9,194.5L151.9,194.5z"/>
			<path id="path44_0" class="st13" d="M53.8,189.4l1.2-0.6l0.1-0.1V181c1.6-0.7,3.3-1.3,5-1.9v7.5l0.3-0.1c3.5-1.3,7-2.5,10.6-3.4
				h0.2v-7.2c1.7-0.4,3.3-0.8,5-1.1v7.1h0.3c0.9-0.2,1.8-0.4,2.6-0.5v32.1H53.8V189.4L53.8,189.4z M85.6,180.4l1.6-0.2h0.2v-7
				c1.7-0.1,3.3-0.2,5-0.3v6.9h0.3c1.8-0.1,3.5-0.1,5.3-0.1s3.6,0,5.3,0.1h0.2v-6.9c1.7,0.1,3.3,0.2,5,0.3v7h0.2l1.4,0.2v19.5H85.6
				V180.4z M116.9,181.4c0.8,0.1,1.7,0.3,2.5,0.5h0.3v-7.1c1.7,0.3,3.3,0.7,5,1.1v7.2h0.2c3.6,0.9,7.2,2.1,10.6,3.4l0.3,0.1v-7.5
				c1.7,0.6,3.3,1.2,5,1.9v7.7l0.1,0.1l1.4,0.6v24h-25.4V181.4L116.9,181.4z M144.1,216.8h-29V214h29V216.8z M145.9,225.8h-7.8v-5.3
				h-4.6v5.3h-7.8v-5.3h-4.6v5.3h-7.8v-8.5h32.7V225.8z M98.7,223.5c-0.2-0.1-0.5-0.1-0.8-0.1c-0.2,0-0.5,0-0.7,0.1v-2h1.5V223.5
				L98.7,223.5z M111.3,203H84.6v-2.7h26.8C111.3,200.3,111.3,203,111.3,203z M98,227.8c-1.1,0-1.9-0.9-1.9-1.9
				c0-1.1,0.9-1.9,1.9-1.9c1.1,0,1.9,0.9,1.9,1.9S99.1,227.8,98,227.8C98,227.8,98,227.8,98,227.8z M81,216.8H52V214h29V216.8z
				 M82.8,225.8H75v-5.3h-4.6v5.3h-7.9v-5.3H58v5.3h-7.9v-8.5h32.7L82.8,225.8z M98,159.8c0.6,0,1.2-0.1,1.8-0.2l1.8,6.4
				c-1.2,0-2.4-0.1-3.7-0.1s-2.4,0-3.6,0.1l1.8-6.4C96.8,159.8,97.4,159.8,98,159.8z M100.3,159.6c4.8-1.1,8.2-5.3,8.2-10.2V132
				c1.1,0.2,2.1,0.4,3.2,0.6v16.6c0,6.3-4.3,11.8-10.5,13.3L100.3,159.6z M87.5,132v17.3c0,4.9,3.4,9.2,8.2,10.2l-0.9,3.1
				c-6.2-1.5-10.5-7-10.5-13.3v-16.7C85.3,132.4,86.4,132.2,87.5,132L87.5,132z M102.1,166l-0.8-3c3.1-0.7,5.8-2.5,7.8-5
				c0.9,0.1,1.8,0.2,2.8,0.3v8.4C108.6,166.4,105.4,166.1,102.1,166z M109.4,157.6c1.7-2.4,2.7-5.2,2.7-8.1c2.4,0.2,4.7,0.6,7.1,0.9
				v8.5C116,158.3,112.7,157.9,109.4,157.6z M112.2,149v-8.3c2,0.2,4.1,0.4,6.1,0.7c2.8,0.4,5.6,0.9,8.4,1.4v8.5
				C121.8,150.2,117,149.5,112.2,149L112.2,149z M112.2,140.1v-7.4c2.4,0.6,4.9,1.3,7.2,2.2v6.1C117,140.7,114.6,140.4,112.2,140.1z
				 M83.8,132.7v7.4c-2.1,0.2-4.2,0.4-6.3,0.7l-1,0.1v-6C78.9,134.1,81.4,133.3,83.8,132.7L83.8,132.7z M83.8,140.6v8.4
				c-4.9,0.5-9.7,1.3-14.5,2.3v-8.5C74.1,141.8,79,141.1,83.8,140.6L83.8,140.6z M83.8,149.5c0,2.9,1,5.8,2.7,8.1
				c-1.2,0.1-2.4,0.2-3.6,0.4c-2.1,0.2-4.2,0.5-6.3,0.9v-8.5C79.1,150,81.4,149.7,83.8,149.5L83.8,149.5z M86.9,158
				c2,2.5,4.7,4.2,7.8,5l-0.9,3c-3.3,0.1-6.5,0.4-9.8,0.7v-8.4C85,158.2,85.9,158.1,86.9,158L86.9,158z M141.8,174.3v-9
				c1.9,0.7,3.9,1.5,5.8,2.3c2.1,0.9,4.1,1.8,6.1,2.8c1.2,3.5,2,7,2.4,10.7C151.5,178.5,146.7,176.2,141.8,174.3L141.8,174.3z
				 M141.4,165.1v9c-4.7-1.8-9.4-3.4-14.3-4.6V161c4.7,1.1,9.4,2.4,13.9,4L141.4,165.1z M54.6,174.1v-9c4.7-1.7,9.4-3.1,14.3-4.2
				v8.6C64,170.7,59.3,172.2,54.6,174.1L54.6,174.1z M54.1,165.3v9c-4.9,1.9-9.7,4.2-14.3,6.8c0.4-3.6,1.2-7.2,2.4-10.7
				c2-1,4-1.9,6.1-2.8S52.1,166.1,54.1,165.3L54.1,165.3z M126.6,160.8v8.6c-4.7-1.2-9.5-2-14.3-2.6v-8.4l0.5,0.1
				c2.4,0.3,4.8,0.6,7.2,1C122.3,159.8,124.5,160.3,126.6,160.8L126.6,160.8z M69.4,169.4v-8.6c4.7-1.1,9.5-1.9,14.3-2.4v8.4
				C78.8,167.4,74,168.3,69.4,169.4z M47.9,167.3v-9l0.1-0.1c4.4-1.7,8.9-3.3,13.5-4.5v8.7C56.9,163.7,52.3,165.4,47.9,167.3z
				 M47.4,159.2v8.4c-1.7,0.7-3.4,1.5-5,2.3C43.7,166.1,45.4,162.5,47.4,159.2L47.4,159.2z M148.6,167.5v-8.2
				c2,3.3,3.7,6.9,4.9,10.5C151.9,169,150.2,168.2,148.6,167.5L148.6,167.5z M148.1,158.5v8.8l-0.3-0.1c-2.2-0.9-4.4-1.8-6.7-2.6
				s-4.4-1.5-6.7-2.2v-8.7l2,0.6c3.9,1.1,7.7,2.5,11.4,3.9L148.1,158.5L148.1,158.5z M134,153.6v8.7c-2.2-0.6-4.4-1.2-6.7-1.8
				s-4.7-1.1-7.1-1.5l-0.5-0.1v-8.5c1.4,0.2,2.9,0.5,4.3,0.8C127.4,151.9,130.7,152.7,134,153.6L134,153.6z M62,162.2v-8.7
				c4.7-1.3,9.5-2.3,14.3-3.1v8.5c-2.6,0.4-5.1,1-7.7,1.6C66.4,161.1,64.2,161.7,62,162.2L62,162.2z M140.9,155.2v-5.9
				c2.4,2.6,4.7,5.3,6.6,8.3C145.3,156.7,143.1,155.9,140.9,155.2z M140.4,148.8v6.2c-4.4-1.4-8.8-2.6-13.3-3.6v-8.5
				c3.2,0.7,6.4,1.4,9.5,2.3C137.9,146.3,139.2,147.5,140.4,148.8L140.4,148.8z M55.6,155v-6.3c1.2-1.2,2.4-2.4,3.8-3.5
				c3.2-0.9,6.3-1.6,9.6-2.3v8.5C64.4,152.4,59.9,153.6,55.6,155z M55.1,149.2v6c-2.3,0.7-4.5,1.5-6.7,2.4
				C50.4,154.6,52.6,151.8,55.1,149.2L55.1,149.2z M119.8,141.2v-5.9c5.7,2.3,11.1,5.4,15.9,9.3c-2.5-0.7-5-1.3-7.5-1.8
				C125.4,142.1,122.6,141.6,119.8,141.2L119.8,141.2z M76.1,135.2v6c-2.8,0.4-5.6,0.9-8.4,1.5c-2.5,0.5-5,1.2-7.5,1.8
				C65,140.6,70.3,137.4,76.1,135.2L76.1,135.2z M151.4,193.7c-3.3-1.9-6.7-3.7-10.2-5.2v-7.7l-0.1-0.1c-1.8-0.7-3.6-1.4-5.5-2
				l-0.3-0.1v7.5c-3.3-1.3-6.7-2.3-10.2-3.2v-7.3h-0.2c-1.8-0.4-3.7-0.8-5.5-1.2l-0.3-0.1v7.1c-3.3-0.7-6.7-1.2-10.2-1.5v-7h-0.2
				c-1.8-0.2-3.6-0.3-5.5-0.4H103v7c-1.7-0.1-3.4-0.1-5.1-0.1s-3.4,0.1-5.1,0.1v-7h-0.3c-1.8,0.1-3.7,0.2-5.5,0.4h-0.2v7
				c-3.4,0.3-6.8,0.9-10.2,1.5v-7.1l-0.3,0.1c-1.8,0.4-3.7,0.8-5.5,1.2h-0.2v7.3c-3.4,0.9-6.8,2-10.2,3.2v-7.5l-0.3,0.1
				c-1.8,0.6-3.7,1.3-5.5,2l-0.2,0.1v7.8c-3.5,1.6-6.9,3.3-10.2,5.2v-8.2l-0.3,0.2c-1.6,0.9-3.2,1.8-4.8,2.7v-0.6l0,0
				c0-1,0-2.1,0.1-3.1c36.2-21,80.8-21,117,0c0.1,1,0.1,2,0.1,3.1l0,0v0.6c-1.6-0.9-3.2-1.8-4.8-2.7l-0.4-0.2L151.4,193.7
				L151.4,193.7z M39.7,181.7c36.2-20.4,80.3-20.4,116.5,0c0.1,0.8,0.1,1.6,0.2,2.4c-36.2-20.9-80.7-20.9-116.9,0
				C39.5,183.3,39.6,182.5,39.7,181.7L39.7,181.7z"/>
			<path id="path32" class="st12" d="M65.1,186.8h2.6v10.6h-2.6V186.8z M128.2,200.5h2.6v10.6h-2.6V200.5z M130.9,200.5L130.9,200.5
				z M128.2,186.8h2.6v10.6h-2.6V186.8z M130.9,186.8L130.9,186.8z M98,197.5L98,197.5c0,0,2-2,2-3.7v-11.5h-4v11.5
				C96,195.6,98,197.5,98,197.5z M65.2,200.5h2.6v10.6h-2.7L65.2,200.5z M67.8,200.5L67.8,200.5z M67.8,186.8L67.8,186.8z"/>
			<path id="path44_1" class="st14" d="M141.8,226.3l-12.1,7.3l-12.2-7.3h4.2v-5.2h3.6v5.2h8.9v-5.2h3.6v5.2H141.8z M98.6,221.1
				h-1.3l-13.4-17.6H112L98.6,221.1L98.6,221.1z M78.6,226.3l-12.1,7.3l-12.3-7.3h4.2v-5.2H62v5.2h8.9v-5.2h3.6v5.2H78.6z"/>
			<path id="path44_2" class="st15" d="M93.4,153.8v-1.7h3.4v1.7H93.4z M99.3,147.9v-1.7h3.4v1.7H99.3z M93.4,147.9v-1.7h3.4v1.7
				H93.4z M91,146.2v1.7h-3v-1.7H91z M91,152.1v1.7h-1.9c-0.3-0.6-0.5-1.1-0.7-1.7H91z M91.4,156.7v-14l0.9-1.4l0.8,1.4v15.3
				C92.5,157.6,91.9,157.2,91.4,156.7L91.4,156.7z M97.3,159.2v-16.5l0.9-1.4l0.9,1.4v16.5c-0.3,0-0.7,0-1,0L97.3,159.2L97.3,159.2z
				 M99.4,153.8v-1.7h3.4v1.7L99.4,153.8z M103.2,157.8v-15.1l0.9-1.4l0.8,1.4v13.8C104.4,157,103.8,157.4,103.2,157.8L103.2,157.8z
				 M105.3,152.1h2.3c-0.2,0.6-0.4,1.2-0.7,1.7h-1.6V152.1z M105.3,147.9v-1.7h2.7v1.7H105.3z"/>
			<path id="path44_3" class="st16" d="M108,145.8h-2.7v-3.2l0,0l-1-1.7l-0.2-0.3l-0.2,0.3l-1,1.7l0,0v3.2h-3.6v-3.2l0,0l-1.1-1.7
				l-0.2-0.3l-0.2,0.3l-1,1.7l0,0v3.2h-3.5v-3.2l0,0l-1.1-1.7l-0.2-0.3l-0.2,0.3l-1.1,1.7l0,0v3.2h-3v-13.9c3.3-0.5,6.6-0.8,9.9-0.8
				c3.4,0,6.7,0.3,10,0.8L108,145.8L108,145.8z M107.7,151.7h-2.4v-3.5h2.7v1C108,150.1,107.9,150.9,107.7,151.7z M99.4,151.7v-3.5
				h3.4v3.5H99.4z M93.5,151.7v-3.5h3.4v3.5H93.5z M88,148.3h3v3.5h-2.7c-0.2-0.8-0.3-1.6-0.3-2.5L88,148.3L88,148.3z M105.2,156.1
				v-1.9h1.4C106.3,154.9,105.8,155.5,105.2,156.1L105.2,156.1z M99.3,159.2v-5h3.4v3.8C101.7,158.6,100.5,159,99.3,159.2
				L99.3,159.2z M93.4,158.2v-3.9h3.4v5C95.6,159.1,94.5,158.7,93.4,158.2L93.4,158.2z M89.3,154.2H91v2.1
				C90.3,155.7,89.8,155,89.3,154.2L89.3,154.2z"/>
			<g id="g20">
				<path id="path146" class="st12" d="M126.3,262.1c0.5-0.2,1-0.2,1.6-0.1l0.3,0.1l-0.1-0.3c-0.1-0.4-0.3-0.7-0.5-1
					c-0.4-0.4-0.9-0.5-1.4-0.5c0.1-0.1,0.1-0.2,0.2-0.3l0.2-0.2c0.7-0.6,1.6-0.7,2.4-0.5l0.3,0.1c0-0.4-0.2-0.9-0.5-1.2
					c-0.5-0.5-1.2-0.7-1.9-0.5c0.3-0.4,0.5-0.8,0.7-1.2c0.2-0.4,0.5-0.7,0.8-0.8c0.5-0.2,1.1-0.2,1.6,0l0.2,0.1c0-0.5-0.2-1-0.5-1.4
					c-0.5-0.6-1.4-0.7-2.1-0.4c0.2-0.4,0.3-0.9,0.1-1.3c1-1,2.2-1.8,3.6-2.2c2.3-0.7,4.5-1.6,6.6-2.6c1.2-0.6,2.2-1.3,3.2-2.1
					c0.4-0.4,0.8-0.6,1.3-0.9c0.8-0.3,1.6-0.4,2.5-0.3c0.7,0,1.3,0.2,1.9,0.6c0.7,0.4,1,1.4,0.5,2.1c0,0,0,0.1-0.1,0.1
					c-0.4,0.6-1,1.1-1.6,1.4c-0.9,0.5-1.9,0.9-2.9,1.2l-7.1,2.2c-1.3,0.3-2.5,1-3.4,2c-1,1.2-1.2,2.8-0.5,4.2l0,0
					c0.3,0.5,0.4,1.1,0.3,1.7c-0.2,0.6-0.9,0.8-1.5,0.6c-0.3-0.1-0.7-0.3-0.9-0.5c0,0.4,0.1,0.9,0.3,1.3c0.3,0.6,0.9,1,1.5,1.1
					c0.7,0.1,1.4-0.1,1.8-0.6c0.1-0.1,0.2-0.3,0.3-0.5c0.1,0.3,0,0.7-0.2,1c-0.2,0.3-0.6,0.5-0.9,0.6c0.2,0,0.4,0.1,0.6,0.1
					c0.6,0.2,1.3,0,1.8-0.5c0.1-0.1,0.2-0.2,0.2-0.3c0.1,0.5-0.2,1-0.7,1.2c-0.5,0.2-1.1,0.3-1.6,0.3c0.7,0.5,1.4,0.7,2.2,0.6
					c0.8-0.1,1.5-0.5,1.8-1.2c0.3-0.6,0.4-1.3,0.2-1.9c0-0.2-0.1-0.4-0.2-0.6c0.4-0.1,0.7-0.4,1-0.7c0.3-0.3,0.4-0.8,0.4-1.2
					c-0.2-0.9-0.8-1.7-1.6-2.2c0.1,0.7,0.1,1.3-0.1,2c-0.1,0.4-0.4,0.6-0.7,0.7c0.4-0.3,0.6-0.7,0.6-1.2c0-0.7-0.4-1.3-1.1-1.5
					c-0.5-0.2-1-0.3-1.6-0.3c0.3,0.3,0.8,0.5,1.1,0.9c0.1,0.1,0.2,0.3,0.3,0.5c0,0.2-0.1,0.4-0.2,0.5c-0.3,0.3-0.5,0.3-0.7,0.2
					c-0.2-0.1-0.4-0.3-0.6-0.6c-0.3-0.6-0.4-1.3-0.3-2c0.1-0.4,0.4-0.7,0.6-1c0.5-0.4,1.1-0.7,1.8-0.9l0.5-0.2
					c0.1,0.7-0.7,1-1.1,1.2l-0.5,0.2c0.2,0.1,0.4,0.1,0.6,0.1c0.6,0.2,1.3,0.1,1.8-0.2c0.3-0.3,0.5-0.6,0.5-1c0-0.1,0-0.3,0-0.4
					c0-0.2,0.2-0.4,0.4-0.4c-0.1,0.1-0.2,0.3-0.2,0.5c-0.1,0.3,0,0.6,0.2,0.9c0.2,0.2,0.3,0.6,0.1,0.9c-0.2,0.2-0.4,0.4-0.7,0.4
					c-0.3,0.1-0.6,0-0.9-0.1l0,0c0,0.1,0.1,0.2,0.2,0.2c0.4,0.3,0.9,0.4,1.3,0.4c0.9-0.1,1.6-0.7,1.8-1.6c0.2-0.5,0.3-1.1,0.4-1.6
					c0-0.3,0.2-0.5,0.4-0.6c0.3,0.3,0.4,0.7,0.2,1c-0.2,0.3-0.5,0.6-0.8,0.8c0.5,0,1-0.1,1.5-0.3c0.2-0.1,0.3-0.3,0.4-0.5
					c0.1-0.4,0.2-0.7,0.3-1.1c0.1-0.1,0.1-0.2,0.2-0.3c-0.2,0.4-0.1,0.8,0.1,1.1c0.2,0.3,0.3,0.6,0.1,0.9c-0.2,0.2-0.5,0.3-0.8,0.3
					c-0.3,0-0.5,0-0.8-0.1c0,0.1,0.1,0.2,0.2,0.3c0.4,0.3,0.9,0.4,1.3,0.3c0.9-0.1,1.5-0.8,1.7-1.6c0.2-0.5,0.3-1.1,0.4-1.6
					c0-0.2,0.1-0.5,0.3-0.6c0.2,0.1,0.4,0.3,0.4,0.5c0,0.2,0,0.4-0.1,0.6c-0.2,0.4-0.5,0.6-0.8,0.9c0.6,0.2,1.3-0.1,1.7-0.6
					c0.2-0.3,0.3-0.7,0.3-1.1c0-0.1,0.1-0.3,0.1-0.5c0-0.1,0.1-0.2,0.1-0.3c0.3-0.3,0.6-0.6,1-0.8c1-0.6,1.6-1.5,1.9-2.6
					c0.4-2-0.9-3.9-2.9-4.4c-1.1-0.3-2.2-0.4-3.3-0.4c0.7-1.4,0.8-3.1,0.2-4.6c-0.1-0.3-0.4-0.8-0.6-1.3c-0.1-0.2-0.2-0.4-0.2-0.7
					c0-0.1,0-0.3,0.1-0.4c0.2-0.1,0.3-0.2,0.5-0.2c0.3-0.1,0.5-0.2,0.8-0.3c0.4,0,0.9,0,1.3-0.2c0.6-0.2,1-0.9,0.9-1.5
					c0-0.4-0.2-0.7-0.4-1c0-0.7,0-1.3-0.1-2c-0.1-0.8-0.3-1.5-0.7-2.2c0.4-0.3,0.6-0.8,0.6-1.2c0-0.6-0.3-1.1-0.8-1.3
					c-0.1-0.1-0.2-0.1-0.4-0.1c-0.1-0.1-0.4-0.3-0.4-0.4s0.3-0.4,0.5-0.5c-0.3-0.2-0.6-0.3-1-0.3c-0.5,0-0.9,0.2-1.1,0.6
					c-0.3-0.3-0.6-0.4-1-0.3c-0.1,0-0.4-0.1-0.4-0.2c0.1-0.2,0.3-0.5,0.4-0.6c-0.3-0.1-0.7-0.1-1,0c-0.5,0.1-0.9,0.6-0.9,1.1
					c-0.1,0.3,0,0.6,0.1,0.9c-0.1,0-0.2,0.1-0.2,0.1s-0.4,0-0.4-0.2c0-0.2,0-0.4,0.1-0.6c-0.4,0-0.7,0.2-1,0.4
					c-0.4,0.3-0.5,0.9-0.4,1.4c0.1,0.6,0.6,1,1.2,1.1c0.2,0.3,0.6,0.5,1,0.5c0.2,0,0.3,0,0.5-0.1c0.1,0,0.1,0,0.1,0
					c0.2,0.2,0.5,0.4,0.8,0.5c0.2,0.6,0.4,1.3,0.4,1.9c0,0.7-0.3,1.4-0.8,1.9c-0.4,0.4-0.9,0.7-1.4,1c-0.9,0.5-1.8,1-2.6,1.7
					c-1,0.7-1.8,1.7-2.4,2.9c-0.4-0.4-0.9-0.8-1.5-1c-0.1-0.1-0.4-0.1-0.3-0.3c0.1-0.2,0.2-0.3,0.3-0.4c0.5-0.3,0.9-0.7,1.4-0.9
					c0.2-0.1,0.6-0.2,1-0.4c0.5-0.2,0.9-0.6,1-1.1c0.1-0.4-0.1-0.8-0.4-1.1c-0.1-0.2-0.3-0.3-0.5-0.4c-0.3-0.1-0.6-0.1-0.9,0
					c-1.2-0.5-2.5-0.8-3.8-0.7c-0.1,0-0.2,0-0.4,0c-0.2,0-0.4-0.1-0.5-0.2c-0.1-0.1-0.1-0.3-0.1-0.4c0-0.3-0.2-0.6-0.4-0.8
					c-0.2-0.2-0.5-0.3-0.8-0.4c-0.1-0.5,0.3-0.6,0.7-0.7c-0.4-0.3-0.8-0.5-1.3-0.5c-0.3,0-0.6,0.1-0.8,0.3c-0.2,0.3-0.4,0.6-0.4,0.9
					c-0.2-0.1-0.4-0.1-0.6,0c-0.3-0.5,0-0.6,0.2-0.9c-0.5,0-1,0.1-1.4,0.3c-0.3,0.2-0.4,0.4-0.5,0.7c0,0.3,0,0.7,0.2,1l-0.1,0.1
					c-0.1,0-0.2-0.1-0.2-0.1c-0.3-0.3-0.1-0.8,0-1.1c-0.4,0.1-0.7,0.2-1,0.4c-0.5,0.4-0.7,1-0.5,1.6c0.2,0.5,0.7,0.9,1.2,1.1
					c0.1,0.4,0.4,0.7,0.8,0.8c0.3,0.1,0.7,0.2,1.1,0.2c0.9,0.1,2.1-0.4,3.4,0.6c-0.4,0-0.8,0.1-1.1,0.3c-1,0.3-1.7,1.1-1.9,2.1
					c-0.2,1.1,0,2.3,0.7,3.3c0.2,0.4,0.5,0.7,0.8,1.1c-0.4,0-0.9,0.1-1.3,0.2c-0.1-0.5-0.3-0.9-0.8-1.2c-0.1,0.4-0.1,0.8-0.5,1
					c-0.1-0.4-0.5-0.6-0.9-0.8c0.1,0.4,0,0.8-0.3,1.1c-0.2-0.4-0.6-0.7-1-0.6c0.1,0.4,0,0.7-0.2,1c-0.3-0.4-0.7-0.6-1.1-0.7
					c0.2,0.4,0.4,0.8,0,1.1c-0.1-0.2-0.2-0.4-0.3-0.6c-0.2-0.2-0.4-0.3-0.6-0.3c-0.5,0-0.9,0.1-1.3,0.3c0.2,0.2,0.6,0.4,0.7,0.7
					c0,0.1,0,0.2,0,0.3c-0.1,0.3-0.3,0.5-0.5,0.7c-0.1-0.3-0.3-0.9-0.5-1.3c-0.2-0.3-0.4-0.5-0.7-0.6c-0.4-0.1-0.8-0.2-1.3-0.1
					c-0.1,0-0.2,0-0.3,0c-0.4-0.1-0.8-0.2-1.2-0.3c-1.4-0.5-2.8-0.9-4.2-1.2c-0.7-0.1-1.4-0.2-2.1-0.2c-0.4,0-0.9,0-1.3,0.2
					c-0.3-0.4-0.8-0.7-1.3-0.7c-0.5,0-0.9,0.3-1.2,0.7c-0.5,0-1-0.3-1.3-0.7c-0.1,0.4-0.1,0.9,0,1.3c0.1,0.5,0.5,0.9,1,1
					c-0.1,0.1-0.1,0.2-0.2,0.3c-0.1,0.1-0.3,0.1-0.5,0.1c-0.4,0-0.5-0.4-0.7-0.7c-0.1,0.4-0.1,0.9,0,1.3c0.1,0.5,0.5,0.9,1,0.9
					c0.2,0,0.3,0,0.5-0.1c0,0.2,0,0.3,0,0.5c-0.1,0.1-0.2,0.2-0.4,0.2c-0.3,0.1-0.5-0.1-0.7-0.3c-0.1,0.3-0.1,0.7,0,1
					c0.2,0.6,0.7,0.9,1.3,0.8c0.2,0,0.5-0.1,0.7-0.2c0.6,0.1,1.2-0.1,1.6-0.6c0.2-0.2,0.3-0.4,0.4-0.6v-0.1c0.3-0.3,0.8-0.5,1.3-0.5
					c0.4,0,0.8,0.1,1.2,0.1c1,0.1,1.9,0.5,2.7,1c0.3,0.2,0.6,0.4,0.9,0.6c-0.4,0-0.8,0.1-1.3,0.1c0.8,0.3,1.4,0.5,1.7,1.4
					c-0.1-0.1-0.2-0.1-0.3-0.2c-0.7-0.3-1.4-0.3-2.1,0c0.3,0.3,0.6,0.6,0.9,0.9l0.1,0.1c-0.3,0.2-0.5,0.3-0.7,0.5
					c-0.8,0.6-1.5,1.2-2.2,1.9c-0.7,0.7-1.4,1.5-2,2.3c-0.3,0.4-0.6,0.9-0.8,1.3c-0.1,0.3-0.2,0.6-0.2,0.9c-0.4-0.1-0.9,0-1.2,0.3
					c-0.2,0.2-0.3,0.5-0.3,0.8c-0.1,0.2-0.3,0.2-0.5,0.2c-0.2,0-0.3-0.1-0.4-0.3v0.3c0,0.5,0.2,1,0.7,1.2c0.3,0.2,0.8,0.2,1.1,0
					c0,0.1,0.1,0.3,0.2,0.5l0,0c0,0.1-0.1,0.3-0.2,0.4c-0.2,0.3-0.5,0.2-0.8,0.1c0.1,0.3,0.3,0.6,0.5,0.8c0.4,0.3,0.9,0.3,1.4,0.1
					c0.3-0.1,0.5-0.3,0.7-0.5c0.1,0.1,0.3,0.2,0.3,0.3c0.1,0.1,0.1,0.1,0,0.2c-0.1,0.2-0.3,0.3-0.6,0.3l-0.3,0.1
					c0.3,0.2,0.6,0.4,0.9,0.5c0.4,0.1,0.9,0,1.3-0.3c0.3-0.3,0.4-0.7,0.3-1.1c0.1-0.1,0.3-0.2,0.3-0.4c0.2-0.5,0.2-1.1,0-1.6
					c-0.2-0.6-0.1-1.3,0.3-1.7c0.7-0.7,1.5-1.4,2.4-1.9c0.6-0.4,1.2-0.7,1.9-1l0.1,0.1c-0.6,0.4-1,0.9-1.3,1.6
					c0.6-0.2,1.2-0.4,1.8-0.4c0.6-0.1,1.3,0,1.8,0.3c0.3,0.2,0.5,0.4,0.7,0.7c0.1,0.2,0.1,0.4,0.1,0.6c-0.1-0.1-0.2-0.1-0.2-0.2
					c-0.1-0.1-0.2-0.2-0.2-0.4v-0.1l-0.1-0.1c-0.4-0.1-0.8-0.1-1.1,0.1c-0.2,0.1-0.4,0.3-0.5,0.6c-0.1,0.3,0,0.6,0.1,0.9
					c0.1,0.2,0.3,0.3,0.5,0.4l-0.1,0.9v0.4l0.3-0.2l0.9-0.6c0.1,0.1,0.2,0.1,0.3,0.2c0.1,0.1,0.2,0.2,0.1,0.4c0,0.2-0.2,0.4-0.4,0.5
					c-0.4,0.2-0.8,0.2-1.2,0.1c-0.3-0.1-0.6-0.2-0.7-0.4c-0.1-0.1-0.2-0.2-0.3-0.3l0,0c0-0.1,0.1-0.2,0.2-0.3
					c0.2-0.2,0.5-0.3,0.7-0.4c-0.4-0.3-0.9-0.5-1.3-0.3c-0.3,0.1-0.5,0.3-0.7,0.5c0,0,0,0-0.1,0.1c-0.2,0.1-0.4,0.2-0.5,0.4
					c-0.3,0.3-0.5,0.7-0.6,1.1c-0.1,0-0.2,0.1-0.3,0.2c0,0.1-0.1,0.1-0.1,0.2c0,0.1,0,0.2,0,0.3c0,0.2,0.1,0.4,0.2,0.5
					c0.3,0.5,0.7,0.9,1.1,1.4c0,0.4,0.2,0.8,0.4,1.1c0.2,0.2,0.5,0.5,0.8,0.7c0.2,0.1,0.4,0.3,0.6,0.5c0.2,0.2,0.2,0.4,0.4,0.6
					c0.2,0.3,0.5,0.5,0.7,0.7c0.5,0.4,1,0.7,1.7,0.8c0.3,0.5,0.7,0.9,1.2,1.2c0.1,0,0.1,0,0.2,0c0.3-0.1,0.5-0.2,0.7-0.4
					c0.4-0.3,0.6-0.7,0.8-1.1h0.3c0.4,0.1,0.7,0.4,0.9,0.7c0.2,0.3,0.4,0.6,0.5,0.9l0.2-0.2c0.6-0.5,0.8-1.3,0.6-2.1
					c-0.2-0.4-0.6-0.7-1-0.9c0.3-0.1,0.6-0.1,0.8-0.1c0.6,0.2,1.2,0.6,1.6,1.1l0.3,0.2v-0.4c0.1-0.7-0.1-1.4-0.4-2L126.3,262.1z"/>
				<path id="path146_4" class="st15" d="M134.8,238.5c-0.1,0.2-0.2,0.4-0.3,0.6c-0.2,0.9-0.8,1.6-1.6,2c-0.6,0.2-1.2,0.3-1.8,0.3
					c-0.5,0-1.5-0.1-2-0.1h-0.3c-0.4-0.4-0.7-0.8-1-1.2c-0.6-0.9-0.8-2-0.7-3c0.2-0.9,0.9-1.6,1.7-1.9c0.5-0.2,0.9-0.3,1.4-0.3h0.1
					c0.6,0.1,1.2,0.1,1.8,0c0.3,0,0.7-0.1,1-0.3c0.3-0.2,0.5-0.5,0.5-0.9c-0.1-0.6-1.1-0.9-1.6-1c-0.6-0.1-1.3-0.2-1.9-0.3l0,0
					c0.6,0.1,1.3,0.2,1.9,0.3c0.4,0.1,1.4,0.4,1.5,1c0,0.3-0.2,0.6-0.4,0.7c-0.3,0.1-0.6,0.2-0.9,0.2c-0.6,0-1.2,0-1.8-0.2
					c-1.5-1.4-3-0.9-3.9-0.9c-0.3,0-0.6-0.1-0.9-0.2c-0.4-0.1-0.6-0.4-0.7-0.8c-0.5-0.1-1.1-0.4-1.2-0.9c-0.2-0.6,0.1-1.3,0.7-1.5
					c-0.1,0.3,0,0.6,0.2,0.9c0.1,0.1,0.1,0.1,0.2,0.2c-0.1,0.2-0.2,0.4-0.2,0.6c0,0.1,0,0.2,0.1,0.2c-0.1-0.2,0.1-0.5,0.3-0.6
					c0.1-0.1,0.3-0.2,0.4-0.3c0.1,0.1,0.3,0.2,0.4,0.2c0,0.3,0.1,0.6,0.3,0.8c0.1,0.1,0.3,0.2,0.4,0.2l0.5,0.1l-0.5-0.1
					c-0.1-0.1-0.3-0.1-0.4-0.3c-0.2-0.3-0.2-0.6-0.2-0.9v-0.2h-0.2c-0.1,0-0.2,0-0.3-0.1c-0.1-0.1-0.2-0.3-0.3-0.4
					c-0.1-0.2-0.1-0.4-0.1-0.6c0.1-0.4,0.5-0.6,0.9-0.7c0,0.3,0,0.5,0.2,0.7c-0.1,0.2-0.2,0.4-0.2,0.7c0.1-0.2,0.3-0.4,0.5-0.5
					c0.2-0.1,0.4-0.1,0.6,0c0.1,0.2,0.2,0.4,0.3,0.5c-0.2,0.4-0.1,0.8,0.1,1.2c-0.3-0.4-0.1-0.9,0.1-1.2c-0.2-0.2-0.3-0.4-0.3-0.6
					c0-0.3,0.1-0.7,0.4-0.9c0.3-0.2,0.7-0.3,1-0.1c-0.2,0.2-0.3,0.5-0.2,0.8c-0.2,0.1-0.3,0.2-0.5,0.4c0.2-0.1,0.5-0.2,0.7-0.2
					c0.2,0,0.5,0.1,0.7,0.2c0.2,0.2,0.3,0.4,0.4,0.7c0,0.1,0,0.2,0,0.3c0,0.1,0,0.2,0,0.3c0,0.2-0.2,0.4-0.4,0.6l0,0
					c0.3-0.1,0.5-0.3,0.6-0.5c0.2,0.2,0.4,0.3,0.7,0.4c0.2,0,0.4,0,0.6,0c1.3,0,2.5,0.2,3.7,0.8c0.4-0.2,0.9-0.1,1.2,0.3
					c0,0,0,0,0,0c0.2,0.2,0.3,0.6,0.3,0.9c-0.1,0.4-0.4,0.7-0.8,0.9c-0.4,0.2-0.8,0.3-1.1,0.5c-0.5,0.3-1,0.6-1.5,0.9
					c-0.3,0.2-0.6,0.7-0.3,1c0.1,0.1,0.3,0.2,0.4,0.3C133.9,237.6,134.4,238,134.8,238.5L134.8,238.5z M114.3,248
					c0.2,0.3,0.4,0.6,0.5,0.9c0.1,0.6,0,2.2,1,3.1c-0.6,0.3-1.2,0.6-1.8,0.9c-0.9,0.6-1.7,1.3-2.5,2c-0.5,0.6-0.6,1.4-0.4,2.1
					c0.2,0.4,0.2,0.9,0,1.4c-0.1,0.2-0.2,0.3-0.4,0.4c0.1,0.4,0.2,0.7-0.1,1c-0.3,0.3-0.8,0.3-1.2,0.1c0.2-0.1,0.3-0.2,0.5-0.3
					c0.1-0.2,0.1-0.3,0-0.5c0.3,0,0.5-0.1,0.7-0.2l0,0c-0.3,0.1-0.7,0.1-1,0l0,0c0.4-0.2,0.6-0.5,0.6-0.9c0-0.5-0.2-0.9-0.6-1.2l0,0
					c0.3,0.3,0.5,0.7,0.4,1.2c0,0.2-0.1,0.4-0.3,0.5c-0.2,0.2-0.4,0.2-0.6,0.1c-0.2,0.3-0.4,0.5-0.7,0.6c-0.4,0.2-1,0.1-1.2-0.3
					c0.2,0,0.4,0,0.6-0.2c0.1-0.1,0.1-0.2,0.2-0.3c0.2,0.1,0.4,0.1,0.7,0c-0.1,0-0.3,0-0.4-0.1c-0.2-0.2-0.4-0.4-0.4-0.7
					c0.2,0,0.5-0.1,0.7-0.2c0.3-0.2,0.4-0.5,0.4-0.9c0,0.3-0.2,0.6-0.5,0.7c-0.3,0.1-0.6,0.1-0.9-0.1l-0.1,0.1
					c-0.4,0.3-1,0.2-1.2-0.3c-0.1-0.1-0.1-0.2-0.1-0.4c0.2,0,0.4,0,0.6-0.2c0.1,0.2,0.3,0.3,0.6,0.3c-0.2-0.1-0.4-0.4-0.4-0.6
					c0-0.3,0.1-0.5,0.3-0.7c0.3-0.3,0.7-0.4,1.1-0.3l0.3,0.1l-0.1-0.3c0-0.3,0-0.7,0.2-0.9c0.2-0.4,0.5-0.9,0.8-1.3
					c0.6-0.8,1.3-1.6,2-2.2c0.7-0.7,1.4-1.3,2.2-1.9L114.3,248L114.3,248z M127.6,252.3c-0.1-0.3,0-0.6,0.1-0.8
					c0.3-0.4,0.7-0.6,1.1-0.6h0.3c-0.4-0.6-1.3-0.9-2-0.7c-0.5,0.2-0.9,0.5-1.3,0.9c-0.1-0.1-0.2-0.2-0.2-0.3c0-0.3,0-0.6,0.2-0.8
					l0.3-0.4l-0.4,0.2c-0.6,0.2-1,0.6-1.3,1.1c-0.2-0.6,0.1-1.1,0.7-1.4c-0.4-0.1-0.8-0.2-1.2-0.1c-0.6,0.2-1.1,0.7-1.3,1.2
					c-0.3-0.3-0.5-0.7-0.3-1.1c-0.2,0-0.5,0.2-0.6,0.3c-0.2,0.2-0.3,0.4-0.3,0.7c-0.2-0.2-0.3-0.4-0.3-0.7c0-0.2,0.1-0.4,0.2-0.5
					l0.3-0.3c-0.3,0-0.6,0.1-0.9,0.2c-0.2,0.1-0.3,0.3-0.5,0.4c0.2-0.5,0.6-1,1-1.5c-0.6,0.1-1.2,0.4-1.6,0.8c0.2-0.5,0.1-1-0.1-1.5
					l-0.1-0.3l-0.2,0.3c-0.2,0.4-0.5,0.9-0.8,1.3c0-0.6,0.2-1.2,0.6-1.7l0.3-0.4l-0.4,0.1c-0.2,0-0.3,0.1-0.5,0.2
					c-0.2,0.2-0.4,0.4-0.6,0.6c-0.1-0.5-0.2-0.9-0.5-1.3c-0.3-0.5-0.8-0.8-1.3-1c-0.5-0.4-0.9-0.7-1.4-1c-0.9-0.5-1.8-0.9-2.8-1
					c-0.4-0.1-0.8-0.1-1.3-0.1c-0.6,0-1.2,0.2-1.6,0.7l0,0c-0.1,0.2-0.2,0.4-0.3,0.5c-0.3,0.3-0.6,0.5-1.1,0.5c-0.2,0-0.3-0.1-0.4,0
					c-0.2,0.1-0.4,0.1-0.6,0.2c-0.5,0.1-0.9-0.2-1-0.7c0-0.1,0-0.1,0-0.2c0.2,0,0.3,0,0.5,0c0.2,0,0.3-0.1,0.4-0.2
					c0.2,0.3,0.4,0.5,0.6,0.6c-0.2-0.2-0.3-0.5-0.4-0.7c-0.1-0.2-0.1-0.4,0-0.6c0.2,0.1,0.4,0.2,0.7,0.1c0.4-0.1,0.7-0.3,0.7-0.7
					l0,0c-0.1,0.3-0.4,0.5-0.7,0.5c-0.4,0-0.7-0.2-0.8-0.6c-0.2,0.1-0.4,0.2-0.6,0.2c-0.4,0-0.8-0.4-0.8-0.8c0,0,0-0.1,0-0.1
					c0.3,0.2,0.6,0.2,0.9,0.1c0.1,0.2,0.1,0.3,0.3,0.5c-0.1-0.2-0.1-0.4,0-0.6c0.1-0.1,0.1-0.3,0.2-0.4c0.3,0.2,0.6,0.4,1,0.4
					c0.3,0,0.8-0.2,0.9-0.5l0,0c-0.1,0.3-0.6,0.4-0.9,0.4c-0.3,0-0.6-0.2-0.8-0.4c-0.6-0.1-1-0.3-1.2-1c0-0.1-0.1-0.3-0.1-0.5
					c0.3,0.2,0.6,0.3,0.9,0.3c0,0.2,0,0.5,0.1,0.7l0,0c0-0.1,0-0.3,0-0.4c0.1-0.2,0.1-0.4,0.2-0.6c0.2-0.3,0.5-0.5,0.9-0.4
					c0.5,0,1,0.4,1.2,0.9c0.3-0.3,0.6-0.4,1.3-0.4c0.7,0,1.3,0.1,2,0.2c1.4,0.3,2.8,0.7,4.2,1.1c0.5,0.2,1.1,0.3,1.6,0.4l0,0
					c0.4-0.1,0.7,0,1.1,0.1c0.2,0.1,0.4,0.3,0.6,0.5c0.1,0.2,0.4,0.9,0.5,1.2c0.1,0.2,0.1,0.4,0.2,0.6c0.1,0.2,0.2,0.3,0.3,0.5
					c0.1,0.1,0.3,0.2,0.4,0.3c0.1,0.1,0.3,0.2,0.4,0.3c0.5,0.4,0.8,1,0.9,1.7l0,0c0-0.7-0.3-1.3-0.8-1.8c-0.1-0.1-0.3-0.2-0.4-0.3
					c-0.1-0.1-0.3-0.2-0.4-0.3c-0.1-0.2-0.2-0.4-0.2-0.6c0.3-0.3,0.5-0.6,0.7-1c0.1-0.2,0.1-0.4,0-0.5c-0.1-0.2-0.2-0.4-0.3-0.5
					c0.3-0.1,0.7-0.1,1,0.1c0.2,0.3,0.3,0.6,0.3,0.9c0.4-0.3,0.8-0.5,0.8-1.1c0.2,0.1,0.4,0.4,0.4,0.6c0.4-0.2,0.7-0.6,0.8-1.1
					c0.2,0.2,0.3,0.4,0.3,0.7c0.5-0.1,0.8-0.5,0.9-1c0.2,0.1,0.2,0.5,0.3,0.7c0.6-0.2,0.8-0.4,1-0.9c0.1,0.2,0.2,0.5,0.3,0.7
					c-0.5,0.1-1.1,0.3-1.6,0.5c-1,0.4-1.9,0.9-2.7,1.6c0.8-0.6,1.8-1.1,2.8-1.4c0.5-0.2,1-0.3,1.5-0.4c0.8-0.2,1.6-0.3,2.4-0.3
					c0.5,0,1.5,0.1,2.1,0.1c0.4,0,0.7,0,1.1,0l-0.4,0.3c-0.5,0.1-1,0.1-1.4,0.2c-0.5,0-1,0.1-1.5,0.1c-1,0.2-1.9,0.4-2.8,0.8
					c0.9-0.3,1.9-0.5,2.9-0.6c0.5,0,1-0.1,1.5-0.1s1,0,1.5-0.1l1.4-0.9c0.7-0.5,1.3-1.2,1.5-2c0.5-1.5,1.4-2.8,2.7-3.7
					c0.8-0.6,1.7-1.2,2.6-1.7c0.5-0.3,1-0.6,1.5-1c0.6-0.5,0.9-1.3,0.9-2.1c-0.1-0.7-0.2-1.4-0.5-2.1v-0.1c-0.2,0-0.4-0.1-0.5-0.2
					c-0.1-0.1-0.2-0.1-0.3-0.2c-0.1,0-0.2-0.1-0.3-0.1l-0.2,0.1c-0.1,0-0.3,0-0.4,0c-0.3,0-0.6-0.2-0.7-0.5c-0.5,0-0.9-0.3-1-0.8
					c-0.2-0.5,0.1-1.1,0.6-1.3c0,0.1,0,0.1,0,0.2c0,0.2,0.2,0.4,0.4,0.5c-0.1,0.1-0.1,0.2-0.1,0.3c0,0.2,0.1,0.4,0.2,0.6
					c-0.1-0.3-0.1-0.6,0.1-0.8c0.1-0.1,0.3-0.2,0.5-0.3c0.2,0.2,0.5,0.4,0.8,0.4c0,0.1,0,0.3,0.1,0.4c0.1,0.3,0.3,0.6,0.7,0.8
					c0.2,0.1,0.3,0.1,0.5,0.1c-0.2,0-0.3-0.1-0.5-0.1c-0.3-0.2-0.5-0.4-0.5-0.8c0-0.2,0-0.4,0-0.6c-0.2,0-0.4,0-0.5-0.1
					c-0.4-0.3-0.5-0.7-0.4-1.2c0-0.4,0.2-0.7,0.5-0.8c0.2-0.1,0.3-0.1,0.5-0.1c-0.1,0.1-0.1,0.2-0.1,0.3c0,0.2,0,0.3,0.1,0.5
					c0.1,0.1,0.2,0.1,0.3,0.2c0,0.1-0.1,0.1-0.1,0.2c0,0.2,0,0.4,0,0.5c0-0.2,0.1-0.3,0.2-0.5c0.2-0.2,0.5-0.3,0.8-0.2
					c0.2,0,0.3,0.2,0.4,0.3c-0.1,0.3-0.1,0.6,0,0.8c0.1,0.3,0.2,0.5,0.4,0.7c-0.1,0.2-0.1,0.4-0.1,0.6c0,0.2,0.1,0.4,0.3,0.5
					c-0.1-0.2-0.2-0.3-0.2-0.6c0-0.2,0.1-0.4,0.2-0.6c-0.2-0.2-0.4-0.4-0.4-0.7c0-0.3,0-0.6,0.2-0.9c0.1-0.2,0.2-0.4,0.4-0.5
					c0.2-0.1,0.5-0.2,0.8-0.1c-0.1,0.1-0.2,0.2-0.2,0.3c0,0.3,0.1,0.5,0.3,0.7l-0.2,0.1c-0.2,0.1-0.4,0.3-0.5,0.6
					c0.1-0.2,0.3-0.4,0.6-0.4c0.2-0.1,0.5,0,0.7,0.1c0.4,0.1,0.7,0.6,0.7,1c0,0.4-0.2,0.7-0.4,0.9c-0.2,0.2-0.5,0.4-0.9,0.4
					c-0.3,0-0.5,0-0.8-0.1c0.2,0.1,0.5,0.2,0.8,0.3c0.2,0,0.5,0,0.7-0.1c0.3,0.6,0.6,1.3,0.7,2c0,0.7,0,1.3,0,2v0.1
					c0.2,0.2,0.3,0.5,0.4,0.8c0.1,0.5-0.2,1-0.7,1.2c-0.4,0.1-0.7,0.2-1.1,0.1c-0.3,0-0.7,0.1-1,0.3c-0.2,0.1-0.4,0.2-0.5,0.3
					c-0.2,0.2-0.3,0.4-0.3,0.7c0,0.3,0.1,0.5,0.2,0.7c0.2,0.5,0.5,1,0.6,1.3c0.4,1.5,0.3,3.2-0.4,4.6l-0.1,0.3h0.3
					c1.2-0.1,2.3,0,3.5,0.3c1.8,0.4,3,2.2,2.6,4c-0.2,1-0.8,1.9-1.7,2.4c-0.4,0.2-0.7,0.5-1.1,0.8c-0.1,0.1-0.2,0.3-0.2,0.5
					c0,0.2,0,0.4-0.1,0.4c-0.1,0.3-0.2,0.7-0.3,1c-0.1,0.2-0.3,0.4-0.6,0.4c0.3-0.3,0.4-0.7,0.3-1.1c-0.1-0.4-0.4-0.7-0.8-0.8
					c-0.4,0.2-0.6,0.6-0.6,1c-0.1,0.5-0.2,1-0.3,1.5c-0.2,0.7-0.7,1.2-1.4,1.4c0.3-0.1,0.5-0.5,0.5-0.8c0-0.3-0.1-0.5-0.3-0.7
					c-0.2-0.2-0.2-0.5-0.1-0.8c0.1-0.2,0.3-0.5,0.4-0.7l0.3-0.5l-0.5,0.2c-0.4,0.2-0.8,0.5-1,0.9c-0.1,0.4-0.2,0.7-0.3,1.1
					c-0.1,0.3-0.4,0.4-0.6,0.5c0.1-0.1,0.1-0.1,0.1-0.2c0.1-0.2,0.1-0.5,0.1-0.7c-0.1-0.3-0.3-0.7-0.6-0.9c-0.4,0.2-0.7,0.5-0.8,1
					c-0.1,0.5-0.2,1.1-0.4,1.6c-0.1,0.5-0.5,1-1,1.2c-0.2,0.1-0.3,0.1-0.5,0.1c0.2-0.1,0.3-0.2,0.4-0.4c0.2-0.4,0.2-0.9-0.1-1.3
					c-0.1-0.2-0.2-0.4-0.1-0.6c0.1-0.4,0.4-0.7,0.8-0.9c0.2-0.1,0.3-0.2,0.5-0.4c-0.3,0-0.6,0-0.9,0.2c-0.4,0.1-1,0.4-1.2,0.9
					c0,0.2,0,0.4,0,0.5c-0.1,0.8-0.7,1-1.4,1c0.3-0.2,0.6-0.5,0.8-0.8c0.1-0.3,0.1-0.6-0.1-0.9l-0.8,0.2c-0.7,0.2-1.3,0.6-1.9,1
					c-0.3,0.3-0.6,0.7-0.7,1.1c-0.2,0.8-0.1,1.6,0.3,2.3c0.1,0.3,0.4,0.6,0.7,0.8c0.4,0.1,0.7,0,1-0.3c0.2-0.2,0.3-0.5,0.3-0.8
					c-0.1-0.3-0.3-0.6-0.5-0.8c0.5,0.2,0.9,0.6,0.9,1.2c0,0.4-0.2,0.7-0.5,0.9c-0.3,0.2-0.6,0.3-1,0.4c0.5,0.2,1,0.2,1.5,0.1
					c0.3-0.2,0.5-0.5,0.6-0.8c0.1-0.5,0.2-0.9,0.1-1.4c0.5,0.4,0.8,0.9,0.9,1.5c0,0.9-0.6,1.6-1.5,1.6c-0.4,0.1-0.8,0.1-1.1,0
					c0.3,0.3,0.8,0.4,1.2,0.3c0.1,0.2,0.2,0.4,0.3,0.6c0.1,0.6,0.1,1.1-0.2,1.6c-0.3,0.6-0.9,1-1.5,1c-0.3,0-0.7,0-1-0.1
					c0.2,0,0.4-0.1,0.6-0.2c0.3-0.1,0.6-0.4,0.7-0.7c0.2-0.6,0.1-1.3-0.2-1.9l-0.1,0.6c-0.1,0.2-0.2,0.5-0.4,0.7
					c-0.3,0.3-0.8,0.4-1.2,0.4c0.6-0.5,0.7-1.3,0.4-2l-0.1-0.5c-0.1,0.5-0.3,0.9-0.6,1.2c-0.3,0.5-0.9,0.7-1.5,0.5
					c-0.7-0.1-1.3-0.7-1.4-1.4c0.4,0.2,0.8,0.3,1.2,0.2c0.5,0,1-0.4,1.1-0.9c0.1-0.6,0-1.3-0.3-1.8c-0.6-1.3-0.5-2.8,0.4-3.9
					c0.9-0.9,2-1.6,3.2-1.9l7.1-2.2c1-0.3,2-0.7,3-1.3c0.7-0.4,1.3-0.9,1.7-1.5c0.6-0.8,0.4-2-0.5-2.6c0,0-0.1,0-0.1-0.1
					c-0.6-0.4-1.3-0.6-2.1-0.7c-0.9-0.1-1.8,0.1-2.6,0.4c-0.5,0.2-1,0.5-1.4,0.9c-1,0.8-2,1.5-3.1,2.1c-2.1,1-4.3,1.9-6.6,2.6
					C129.8,250.5,128.6,251.3,127.6,252.3L127.6,252.3z M118,256.5L118,256.5l0.4,0.1L118,257V256.5L118,256.5z M119.6,255.3
					c0.1-0.3,0.1-0.6,0-0.9c-0.2-0.4-0.5-0.7-0.8-0.9c-0.6-0.3-1.3-0.4-2-0.3c-0.4,0-0.8,0.1-1.1,0.2c0.3-0.4,0.8-0.8,1.2-1.1
					l-0.3-0.1c-1.5-0.7-1.3-2.4-1.5-3.3c-0.2-0.5-0.5-1-0.9-1.4c-0.3-0.3-0.4-0.4-0.5-0.6c0.4-0.1,0.9,0,1.3,0.2
					c0.4,0.3,0.8,0.6,1,1.1c0.3,0.4,0.5,0.9,0.6,1.4c0.1,0.3,0.1,0.5,0,0.8c0.1-0.3,0.1-0.5,0.1-0.8c-0.1-0.5-0.2-1-0.4-1.5
					c-0.1-0.2-0.2-0.5-0.3-0.7l0,0c-0.1-0.6-0.4-1.2-0.9-1.6c0.7,0,1.4,0.3,1.8,0.9c0.2,0.3,0.3,0.6,0.4,0.9c0,0.2,0,0.4,0,0.5
					c0,0.1,0,0.1-0.1,0.2c0,0,0,0.1,0,0.1l0.1,0.3l0.2-0.2c0.2-0.3,0.5-0.6,0.8-0.9c-0.3,0.6-0.4,1.2-0.3,1.8v0.3l0.2-0.2
					c0.3-0.3,0.5-0.6,0.7-1c0.1-0.1,0.2-0.2,0.2-0.4c0,0.3,0,0.5,0,0.8c-0.1,0.3-0.2,0.6-0.4,0.9c-0.1,0.1-0.2,0.2-0.2,0.4
					c-0.1,0.1,0,0.2,0.1,0.3c0,0,0,0,0,0h0.1l0.1-0.1c0.3-0.5,0.8-1,1.3-1.3c-0.2,0.3-0.3,0.6-0.4,0.9c-0.1,0.3,0,0.6,0.1,0.9
					l0.2-0.3c0.2-0.3,0.4-0.6,0.7-0.8c-0.1,0.3,0,0.6,0.2,0.8c0.2,0.3,0.5,0.6,0.8,0.8c-0.1-0.4,0-0.8,0.3-1.1
					c0,0.2,0.2,0.4,0.3,0.6c0.2,0.3,0.5,0.5,0.8,0.6c0.3,0.1,0.6,0.2,0.9,0.2c-0.3-0.1-0.6-0.2-0.8-0.4c-0.1-0.1-0.2-0.1-0.3-0.2
					c0.2-0.7,0.8-1.2,1.6-1.3c-0.2,0.3-0.3,0.6-0.3,1c0,0.3,0.1,0.6,0.3,0.8c0,0.3,0,0.6,0.1,0.9c0-0.4,0-0.7,0.2-1.1l0,0
					c0,0,0-0.1,0-0.1c0.2-0.4,0.5-0.7,0.8-0.9c-0.1,0.4,0,0.8,0.3,1.1c-0.1,0.2-0.2,0.5-0.2,0.8c0,0.3,0,0.6,0.1,0.9
					c0-0.3,0-0.6,0.1-0.9c0.1-0.3,0.2-0.5,0.3-0.7c0.4-0.6,1.1-1,1.8-1c0.2,0,0.4,0.1,0.6,0.2c-0.4,0.1-0.8,0.4-1,0.7
					c-0.2,0.4-0.2,1,0,1.4c0.2,0.5,0,1.1-0.4,1.5l0,0l0,0c-0.2,0.4-0.5,0.7-0.9,1l0,0c-0.1-0.5-0.2-1-0.4-1.5l-0.2-0.5l-0.2,0.5
					c-0.1,0.3-0.2,0.6-0.4,0.8c0.1-0.9-0.4-1.8-1.2-2.2l0,0c0.7,0.7,1,1.7,0.8,2.7l-0.1,0.5l0.4-0.3c0.3-0.3,0.5-0.6,0.7-0.9
					c0.1,0.4,0.2,0.9,0.2,1.3v0.2c0,0.1-0.1,0.3-0.1,0.4c0,0.3,0,0.6,0.1,0.9c0-0.3,0-0.6,0.1-0.9c0-0.2,0.1-0.4,0.2-0.6
					c0.4-0.4,0.8-0.8,1.1-1.2c0.4-0.2,0.9-0.3,1.4-0.3c0.3,0,0.6,0.2,0.8,0.4c0.2,0.2,0.3,0.4,0.3,0.7c-0.5-0.2-1.1-0.1-1.6,0.1
					c-0.4,0.2-0.8,0.6-1,1c-0.2,0.4-0.5,0.9-0.8,1.3v-0.2l-0.2,0.5c-0.3,0.5-0.6,1-1.1,1.4c-0.3,0.3-0.6,0.5-0.9,0.7
					c0.3-0.6,0.7-1.2,1.1-1.7c0.2-0.3,0.3-0.7,0.4-1.1c0-0.4-0.1-0.9-0.3-1.3l-0.3-0.6v0.6c-0.1,0.8-0.5,1.5-1.2,1.9
					c0.2-0.6,0.2-1.3,0-1.9c-0.3-0.6-0.3-1.3-0.1-1.9l0.1-0.4c-0.5,0.1-0.9,0.4-1.1,0.8c-0.2,0.4-0.3,0.9-0.3,1.4c0,0.3,0,0.6,0,0.8
					c0-0.2-0.1-0.4-0.2-0.5c-0.6-0.4-1.2-0.6-1.9-0.7c-0.2-0.1-0.4-0.1-0.6-0.2L119.6,255.3z M126.5,258.1c0.7-0.3,1.4-0.1,1.9,0.4
					c0.1,0.2,0.2,0.3,0.3,0.5c-0.8-0.2-1.6,0-2.3,0.5C126.5,259,126.6,258.5,126.5,258.1L126.5,258.1z M125.8,260.8
					c0.5-0.2,1.1-0.1,1.5,0.3c0.2,0.2,0.3,0.3,0.4,0.6c-0.5-0.1-1.1,0-1.6,0.2c-0.3-0.3-0.7-0.5-1.1-0.6
					C125.3,261.1,125.5,261,125.8,260.8z M115.4,260.9c0.2,0.1,0.3,0.1,0.5,0.2l0.4,0.2c0.3,0.1,0.7,0.3,1,0.4
					c0.3,0.2,0.6,0.3,0.9,0.6c0.3,0.2,0.5,0.5,0.7,0.8c0,0,0.1,0,0.1,0c0,0,0-0.1,0-0.1c-0.2-0.3-0.4-0.6-0.7-0.8
					c-0.1-0.1-0.3-0.3-0.5-0.4c0-0.3-0.1-0.5-0.2-0.7c-0.1-0.1-0.1-0.3-0.2-0.4c-0.2-0.3-0.7-0.4-1-0.2c-0.1,0.1-0.2,0.2-0.3,0.3
					c0,0,0,0,0,0l-0.9-0.5c-0.3-0.3-0.6-0.7-0.9-1.1c-0.1-0.1-0.1-0.2-0.1-0.3c0,0,0.1,0,0.1,0c0.2,0,0.3-0.1,0.4-0.2
					c0,0,0.1-0.1,0.1-0.1c0.1,0.1,0.2,0.1,0.3,0.2c0.2,0.1,0.4,0.3,0.6,0.5l0,0c-0.1-0.3-0.3-0.5-0.5-0.7c-0.2-0.2-0.3-0.3-0.5-0.5
					c0.1-0.3,0.3-0.6,0.5-0.9c0.1-0.1,0.3-0.2,0.4-0.3c0.2,0,0.3,0,0.4,0.1c0.2,0.2,0.5,0.4,0.7,0.7c0.2,0.3,0.5,0.4,0.9,0.5l0,0
					c0.5,0.1,0.9,0.1,1.4-0.1c0.3-0.1,0.5-0.4,0.6-0.7c0-0.2-0.1-0.4-0.2-0.6c-0.3-0.3-0.7-0.6-1.1-0.7c-0.3-0.1-0.5-0.2-0.7-0.4
					c-0.1-0.2-0.1-0.5,0-0.7c0.1-0.1,0.2-0.2,0.3-0.3c0.2-0.2,0.5-0.2,0.8-0.1c0.1,0.2,0.1,0.3,0.2,0.4c0.3,0.4,0.7,0.6,1.2,0.7
					c0.6,0.1,1.2,0.4,1.7,0.7c0.1,0.1,0.2,0.2,0.2,0.4c0,0.2,0,0.5-0.1,0.7l-0.1,0.4c0.4-0.2,0.7-0.6,0.8-1.1c0-0.3,0-0.7,0-1
					c0-0.3,0-0.7,0.1-1c0.1-0.2,0.2-0.4,0.4-0.6c-0.1,0.6,0,1.2,0.2,1.7c0.3,0.7,0.3,1.4-0.1,2.1l-0.2,0.5c0.2-0.1,0.3-0.3,0.5-0.4
					c0.7-0.4,1.2-1,1.6-1.8c0.2,0.5,0.1,1.1-0.2,1.6c-0.5,0.6-0.9,1.4-1.2,2.1l-0.1,0.2h0.2c0.5-0.1,1-0.4,1.4-0.9
					c0.3-0.3,0.6-0.6,0.8-1c0.1,0.5,0,0.9-0.2,1.4c-0.3,0.6-0.9,1.1-1.5,1.3l-0.5,0.2l0.5,0.1c0.6,0.1,1.1,0.4,1.5,0.8
					c0.3,0.4,0.4,0.9,0.3,1.4c-0.4-0.4-0.9-0.7-1.5-0.9c-0.5-0.1-1,0-1.4,0.3l-0.6,0.3h0.6c0.5,0.1,1,0.4,1.2,0.8
					c0.2,0.5,0.1,1.1-0.3,1.5c-0.1-0.2-0.2-0.3-0.3-0.5c-0.3-0.5-0.8-0.8-1.4-0.9c0-0.3-0.1-0.6-0.2-0.9c0.1,0.3,0.1,0.5,0.1,0.8
					c-0.1,0.5-0.4,1-0.9,1.3c-0.2,0.2-0.4,0.3-0.6,0.3c-0.5-0.3-0.9-0.7-1.2-1.1c-0.3-0.5-0.4-1.1-0.5-1.6c-0.1,0.5,0,1,0.2,1.5
					c-0.5-0.1-0.9-0.4-1.3-0.7c-0.3-0.2-0.5-0.4-0.7-0.6c-0.1-0.2-0.2-0.4-0.4-0.6c-0.2-0.2-0.4-0.4-0.6-0.5
					c-0.3-0.2-0.5-0.4-0.7-0.6C115.6,261.4,115.5,261.2,115.4,260.9L115.4,260.9z M114.1,258.8c0-0.1,0-0.2,0.1-0.3
					c0,0,0-0.1,0.1-0.1l0.3,0.2l-0.1,0.1C114.4,258.8,114.3,258.9,114.1,258.8L114.1,258.8z M116.3,257l-0.2-0.1
					c-0.1-0.1-0.2-0.1-0.2-0.1c0.1-0.1,0.2-0.2,0.4-0.2c0.3-0.1,0.3,0,0.5,0.1c-0.1,0-0.1,0.1-0.2,0.1
					C116.5,256.8,116.4,256.9,116.3,257z"/>
				<path id="polygon222" class="st17" d="M142.4,243l-0.6,0.3L142.4,243z"/>
				<path id="path146_5" class="st13" d="M117.6,261.6l-0.2-0.2c-0.2-0.1-0.4-0.2-0.6-0.4l0,0c0.1-0.1,0.1-0.3,0-0.5c0,0,0,0-0.1,0
					h0.1c0.2,0.1,0.4,0.3,0.6,0.5C117.4,261.3,117.5,261.5,117.6,261.6L117.6,261.6z M116.6,261l-0.1-0.1l-0.1,0
					c0-0.1,0.1-0.2,0.1-0.2c0,0,0.1,0,0.1,0.1C116.6,260.8,116.6,260.9,116.6,261L116.6,261z"/>
				<path id="path190" class="st12" d="M117.4,250.6c0.3,0.2,0.5,0.4,0.7,0.6c0.2,0.3,0.4,0.6,0.6,1c0.2-0.3,0.2-0.6,0.2-0.9
					l-0.1-0.6l0.4,0.4c0.2,0.3,0.4,0.6,0.6,1c0.3-0.3,0.4-0.6,0.3-1l0,0l0,0l0,0c0,0,0.6,0.1,0.8,1.3v-0.1l0.1-0.2l0.6,0.6
					c-0.1-0.4-0.3-0.8-0.4-1.1l-0.2-0.4l0.4,0.1c0.5,0.2,0.9,0.5,1.2,1l0.3-0.7l0,0c0,0.4-0.1,0.8-0.2,1.2l-0.2,0.2l-0.1-0.2
					c-0.2-0.3-0.4-0.6-0.7-0.9c0.2,0.6,0.4,1.4,0.5,1.4l0.2,0.6l-1.2-1.1c-0.1,0.2-0.2,0.5-0.2,0.8c0,0.2,0,0.3,0,0.5
					c0,0.3,0.1,0.7,0.3,1c-0.2-0.3-0.4-0.6-0.5-0.9c-0.1-0.2-0.1-0.3-0.1-0.5c0-0.1,0-0.3,0-0.4c0-0.5-0.1-1.1-0.3-1.6l0,0
					c0.1,0.5,0,0.9-0.3,1.3c-0.1,0.1-0.4,0.5-0.4,0.5v-0.6c0-0.4-0.1-0.7-0.3-1c0,0.3-0.2,0.6-0.5,0.8l-0.2,0.1l0,0l-0.1-0.2
					c-0.2-0.5-0.4-1-0.8-1.5c-0.1,0.2-0.3,0.7-0.4,0.9l0,0c0.1-0.4,0.1-0.8,0.1-1.2C117.3,250.8,117.3,250.7,117.4,250.6
					L117.4,250.6z M144.4,232c0-0.5,0-1.1-0.1-1.6c-0.1-0.5-0.2-1.1-0.4-1.6c0.2,0.5,0.4,1,0.6,1.6c0.2,0.5,0.2,1.1,0.3,1.7
					c0,0.1-0.1,0.1-0.1,0.1c0,0,0,0,0,0C144.5,232.1,144.4,232.1,144.4,232L144.4,232L144.4,232z M143.8,233.9
					c0.3,0,0.6-0.2,0.8-0.4c0.1-0.1,0.2-0.3,0.2-0.4c0-0.2,0-0.3,0-0.5c0.1,0.2,0.1,0.3,0.1,0.5c0,0.2-0.1,0.4-0.2,0.5
					c-0.2,0.2-0.4,0.4-0.6,0.5c-0.1,0-0.2,0.1-0.3,0.1c-0.1,0-0.2,0-0.2-0.1C143.7,234,143.7,234,143.8,233.9L143.8,233.9z
					 M120,258.9l0.4-0.5c0.1-0.2,0.2-0.4,0.3-0.5c0.1-0.2,0.2-0.4,0.2-0.6c0-0.2-0.1-0.4-0.2-0.6c0.2,0.1,0.4,0.3,0.4,0.6
					c0,0.2,0,0.5-0.1,0.7c-0.1,0.2-0.2,0.4-0.4,0.6C120.4,258.7,120.2,258.8,120,258.9L120,258.9z M117.1,260
					c0.1-0.2,0.3-0.4,0.5-0.5c0.2-0.1,0.5-0.1,0.7-0.1c0.1,0,0.2,0,0.3,0c0.1,0,0.2,0,0.3,0h0.3c0.1,0,0.2,0,0.3-0.1
					c-0.1,0.1-0.2,0.2-0.3,0.2c-0.1,0-0.2,0-0.3,0.1c-0.2,0-0.4,0-0.7,0c-0.2,0-0.4,0.1-0.6,0.1c-0.2,0.1-0.4,0.1-0.6,0.3V260z
					 M120.7,263c0.2,0.1,0.4,0.2,0.6,0.2c0.2,0,0.4,0,0.6,0c0.2-0.1,0.3-0.2,0.5-0.3c0.1-0.2,0.2-0.3,0.3-0.5l0.2,0.2
					c-0.2,0.1-0.3,0.1-0.5,0.1c-0.2,0-0.4,0-0.5,0c-0.4,0-0.7-0.2-1-0.4l-0.4-0.4l0.6,0.1c0.2,0,0.4,0,0.7,0c0.2,0,0.4,0,0.6-0.1
					c0.2-0.1,0.4-0.2,0.5-0.3c0.1-0.2,0.2-0.3,0.2-0.5l0.2,0.1c-0.1,0.1-0.3,0.2-0.4,0.2c-0.2,0.1-0.3,0.1-0.5,0.2
					c-0.2,0-0.3,0-0.5,0c-0.2,0-0.4-0.1-0.5-0.1l-0.4-0.2l0.5-0.1c0.2,0,0.4-0.1,0.6-0.1c0.2-0.1,0.4-0.2,0.6-0.3
					c0.3-0.2,0.5-0.6,0.3-1l0.2,0.1l-0.2,0.2l-0.2,0.1c-0.2,0.1-0.3,0.1-0.5,0.2l-0.6,0.1l0.4-0.4c0.1-0.1,0.2-0.2,0.3-0.3
					c0.1-0.1,0.2-0.3,0.2-0.4c0.1-0.1,0.1-0.3,0.1-0.4c0-0.1-0.1-0.3-0.2-0.4h0.3c0,0.1-0.1,0.2-0.2,0.4s-0.1,0.2-0.2,0.4
					c-0.1,0.1-0.2,0.2-0.3,0.3c-0.1,0.1-0.2,0.2-0.4,0.2l-0.3,0.2l0.1-0.3c0.1-0.2,0.1-0.4,0.2-0.7c0-0.1,0-0.2,0-0.3
					c0-0.1,0-0.2-0.1-0.3h0.1c-0.1,0.2-0.2,0.3-0.2,0.5c-0.1,0.1-0.2,0.3-0.4,0.4c0.1-0.1,0.2-0.2,0.3-0.4c0.1-0.1,0.1-0.3,0.2-0.5
					v-0.1l0.1,0.1c0.1,0.1,0.1,0.2,0.2,0.4c0,0.1,0,0.2,0,0.4c0,0.1,0,0.2,0,0.4s0,0.2-0.1,0.4l-0.2-0.2c0.1,0,0.2-0.1,0.3-0.2
					c0.1-0.1,0.2-0.2,0.2-0.3c0.1-0.1,0.1-0.2,0.2-0.3c0.1-0.1,0.1-0.2,0.2-0.3l0.1-0.3l0.2,0.2c0.1,0.2,0.2,0.3,0.2,0.5
					c0,0.2,0,0.4-0.1,0.6c-0.1,0.2-0.2,0.3-0.3,0.5c-0.1,0.1-0.2,0.3-0.3,0.4l-0.1-0.3c0.1,0,0.3-0.1,0.4-0.2c0.1,0,0.1-0.1,0.2-0.1
					l0.2-0.1l0.2-0.2l0.1,0.2c0.1,0.2,0.1,0.5,0,0.8c-0.1,0.2-0.2,0.5-0.4,0.6c-0.2,0.1-0.4,0.2-0.6,0.3c-0.2,0.1-0.4,0.1-0.7,0.2
					v-0.3c0.3,0.1,0.5,0.1,0.8,0.1c0.1,0,0.3-0.1,0.4-0.1c0.1-0.1,0.3-0.1,0.4-0.2l0.2-0.2v0.3c0,0.3-0.1,0.5-0.2,0.7
					c-0.2,0.2-0.4,0.3-0.6,0.4c-0.2,0.1-0.5,0.1-0.7,0.1c-0.2,0-0.5,0-0.7,0l0.3-0.4c0.2,0.2,0.5,0.3,0.8,0.3c0.2,0,0.3,0,0.5,0
					c0.1,0,0.3-0.1,0.4-0.1l0.4-0.2l-0.2,0.4c-0.1,0.2-0.2,0.4-0.4,0.6c-0.2,0.2-0.4,0.3-0.6,0.3c-0.2,0.1-0.4,0.1-0.7,0
					C121.1,263.2,120.9,263.1,120.7,263L120.7,263z M120.4,263.5c-0.1,0.5,0,1.1,0.2,1.5c-0.5-0.3-0.7-0.9-0.4-1.4
					C120.3,263.6,120.3,263.5,120.4,263.5L120.4,263.5z"/>
			</g>
			<g id="g27">
				<path id="path302" class="st12" d="M56.3,264.7c0.6,0.1,1.2,0,1.8-0.2l0,0c0.4-0.1,0.8-0.3,1.1-0.6c0.7-0.8,1.1-1.9,0.9-3
					c0-0.3-0.1-0.6-0.2-0.9c-0.2-0.6-0.6-1-1.2-1.2c-0.1,0-0.1-0.1-0.2-0.1c0-0.1,0-0.2,0-0.4c0.2-0.5,0.6-1,1.1-1.4
					c1.9-1.7,4.1-3,6.5-3.9l0,0l0.7-0.2l0.2,0.2c-0.1,0.1-0.2,0.1-0.4,0.2c-0.1,0.1-0.1,0.3,0.1,0.3c0.5,0.1,0.8,0.6,1,0.9
					c-0.4-0.1-0.8,0.1-1.1,0.4c-0.1,0-0.1,0.1-0.1,0.2c0,0,0,0,0.1,0.1c0.4,0.2,0.7,0.6,0.9,1c-0.4,0-0.8,0.1-1.1,0.5
					c-0.1,0.1,0,0.2,0,0.2c0,0,0,0,0.1,0c0.4,0.1,0.6,0.4,0.8,0.8c-0.5-0.1-1,0.3-1.1,0.8c0,0.1,0,0.2,0.1,0.2c0,0,0,0,0,0
					c0.4,0.1,0.8,0.3,1.1,0.6c-0.4,0-0.8,0.2-1,0.5c-0.3,0.4-0.4,0.9-0.3,1.4c0,0,0,0.1,0.1,0.1c0.1,0,0.1,0,0.2,0
					c0.4-0.2,0.8-0.3,1.3-0.3c-0.3,0.1-0.5,0.3-0.6,0.6c-0.2,0.2-0.2,0.5-0.2,0.8c0.1,0.5,0.4,0.9,0.7,1.2c0,0,0.1,0,0.1,0
					c0.1,0,0.1-0.1,0.2-0.1c0.2-0.7,0.9-1.2,1.6-1.3c-0.3,0.5-0.1,1.1,0.3,1.5c0,0,0.1,0,0.1,0c0.1,0,0.1-0.1,0.1-0.1
					c0-0.1,0.1-0.2,0.2-0.4c0.3-0.2,0.6-0.4,1-0.3c0.6,0.1,1.2,0,1.8-0.1c0.3-0.1,0.5-0.2,0.7-0.4c0.2-0.2,0.3-0.4,0.3-0.6
					c0.7-0.1,1.4-0.3,2.1-0.6c0.5-0.2,0.9-0.6,1.2-1.1c0.2-0.6,0.1-1.4-0.3-1.9c0-0.1-0.1-0.1-0.2-0.1c-0.1,0-0.1,0.1-0.1,0.1
					c-0.1,0.2-0.2,0.4-0.3,0.5c-0.1,0.1-0.3,0.2-0.4,0.2c-0.3,0-0.5-0.1-0.7-0.2c-0.1-0.1-0.1-0.1-0.2,0c-0.1,0.1-0.3,0.2-0.4,0.2
					c-0.6,0-1.1-0.1-1.6-0.5c-0.2-0.1-0.4-0.2-0.5-0.4c0,0-0.1-0.1-0.1-0.2l0.1-0.1c0.1-0.1,0.2-0.1,0.4-0.1
					c0.4-0.1,0.7-0.1,1.1-0.1c0.7-0.1,1.7-0.2,2.2-0.2c0.1,0,0.2-0.1,0.3-0.1c0.1-0.1,0.2-0.2,0.2-0.3c0-0.1-0.1-0.3-0.3-0.3
					c-0.2-0.1-0.4-0.1-0.7-0.1c-0.6-0.1-1.4,0-2.1-0.1c-0.5,0-0.9-0.1-1.3-0.2c-0.5-0.2-0.6-0.6-0.3-1.1c0.4-0.7,1-1.3,1.7-1.7
					c0.1,0,0.1-0.1,0.1-0.1c0-0.1,0-0.1-0.1-0.1c-0.2-0.1-0.4-0.1-0.5-0.1c0.1-0.2,0.2-0.4,0.3-0.7c2.5-0.1,4.9,0.2,7.3,1
					c0.6,0.2,1.1,0.5,1.6,0.9c0.1,0.1,0.3,0.4,0.1,0.5c-0.4,0.4-0.6,1-0.6,1.6c0,0.3,0.1,0.6,0.2,0.9l0,0c0.3,1,1,1.9,2,2.3
					c1,0.3,2,0.2,2.9-0.4c0.5-0.3,0.9-0.7,1.2-1.2c0.6-1.1,0.9-2.4,0.8-3.6c0-2.6,0.4-5.2,1.2-7.7c0.5-1.5,1.1-3,1.8-4.4
					c0.4-0.8,1-1.5,1.7-2.1c0.2-0.1,0.3-0.4,0.3-0.6c0-0.3-0.2-0.5-0.5-0.6c-0.5-0.2-1.4-0.1-2.7,0.7c-0.6,0.4-1.1,0.8-1.6,1.4
					c-1.6,1.8-2.8,4.7-3.6,7c0.1-0.9,0.3-1.7,0.6-2.6c0.5-1.6,1.1-3,1.9-4.5c0.4-0.8,1-1.5,1.7-2.1c0.2-0.1,0.3-0.4,0.3-0.6
					c-0.1-0.3-0.2-0.5-0.5-0.6c-0.5-0.2-1.4-0.1-2.7,0.7c-0.6,0.4-1.1,0.8-1.6,1.4c-1.9,2.1-3.3,5.8-3.9,8.1c0.1-1,0.4-2.1,0.7-3.1
					c0.4-1.5,1-3,1.7-4.3c0.4-0.8,1-1.5,1.6-2.1c0.2-0.1,0.3-0.4,0.3-0.6c-0.1-0.3-0.2-0.5-0.5-0.5c-0.5-0.2-1.4-0.1-2.6,0.7
					c-0.6,0.4-1.1,0.9-1.6,1.4c-1.8,2-3.1,5.8-3.8,8.1c0-0.9,0.1-1.8,0.3-2.7c0.3-1.9,1.1-3.7,2.2-5.3c0.2-0.3,0.2-0.7-0.1-0.9
					c-0.1-0.1-0.2-0.1-0.3-0.1c-0.5-0.1-1.3,0.1-2.4,1.1c-0.5,0.4-0.9,0.9-1.3,1.4c-0.9,1.4-1.6,3-2.1,4.6c-0.2-0.6-0.5-1.2-0.9-1.7
					c-0.3-0.5-0.7-1-1.2-1.5c-0.4-2.1-1.3-4.1-2.6-5.8c0-0.1-0.1-0.1-0.2-0.1h-0.1v-0.1c0.1-0.4,0.3-0.9,0.5-1.3
					c0.1-0.2,0.2-0.4,0.3-0.5c0.1-0.1,0.1-0.2,0.2-0.2c0.3-0.2,0.7-0.3,1.1-0.4c0.1,0,0.1,0,0.2,0c0.3,0.1,0.6,0,0.9-0.1
					c0.3-0.1,0.5-0.3,0.6-0.6c0-0.1,0-0.2,0-0.2c0.2-0.1,0.7-0.6,0.6-1.1c-0.1-0.3-0.2-0.5-0.5-0.6c-0.2-0.1-0.4-0.2-0.6-0.2
					c-0.1,0-0.1,0-0.1,0.1c0,0,0,0.1,0,0.1c0,0.1,0.1,0.3,0.1,0.4c0,0.1,0,0.1,0,0.2c0,0.1-0.1,0.1-0.2,0.1c-0.1,0-0.2,0.1-0.3,0.1
					v-0.1c0.1-0.2,0.1-0.4,0.1-0.6c0.1-0.1,0.2-0.2,0.3-0.4c0.2-0.3,0.2-0.6,0.1-0.9c-0.2-0.4-0.5-0.6-0.9-0.6c-0.1,0-0.2,0-0.2,0.1
					c0,0.1,0,0.1,0,0.2c0,0.1,0.1,0.1,0.1,0.1c0.1,0.1,0.1,0.2,0.1,0.2c0,0,0,0.1,0,0.1c-0.1,0.1-0.3,0.2-0.4,0.3c0,0-0.1,0-0.1,0.1
					c-0.1,0-0.2,0.1-0.3,0.2c-0.1,0.1-0.2,0.2-0.3,0.3c-0.1,0.1-0.1,0.3-0.1,0.4h-0.1c0,0,0,0,0-0.1c0.1-0.2,0.1-0.5,0-0.7
					c0,0,0-0.1,0-0.1c0.1-0.2,0.1-0.3,0.1-0.5c0-0.3,0-0.6-0.3-0.8c-0.3-0.3-0.7-0.4-1.1-0.2c-0.1,0-0.2,0.1-0.2,0.1
					c0,0,0,0.1,0,0.1c0,0.1,0.1,0.1,0.2,0.1c0.1,0,0.1,0.1,0.2,0.2c0,0,0,0.1,0,0.1c0,0.1,0,0.2-0.1,0.2c-0.1,0.1-0.1,0.2-0.2,0.3
					l0,0c-0.1,0-0.2,0.1-0.3,0.2c-0.2,0.2-0.3,0.5-0.3,0.8c0.1,0.7-0.2,1.3-0.6,1.9l-0.2,0.1c-0.1-0.1-0.3-0.1-0.5-0.1
					c-0.1,0-0.2,0-0.3,0c-0.2,0-0.4,0.2-0.6,0.4c-0.1,0.1-0.1,0.1-0.2,0.2c-0.1,0-0.1,0-0.2,0.1c0,0-0.1,0-0.1,0
					c0-0.1-0.1-0.1-0.1-0.2c0,0,0-0.1,0-0.1c0,0,0-0.1-0.1-0.1c0,0-0.1,0-0.1,0c-0.1,0-0.1,0.1-0.2,0.1c-0.2,0.3-0.2,0.6-0.1,0.9
					c0.1,0.2,0.2,0.3,0.3,0.4c0.1,0.1,0.3,0.1,0.4,0.1c0.2,0,0.3,0,0.5-0.1c0.1,0.1,0.3,0.1,0.5,0.1c0.1,0,0.3-0.1,0.4-0.2l0.2-0.1
					c0.1,0,0.1,0,0.1,0.1c0,0.2,0,0.4,0,0.6c0,0.3-0.1,0.6-0.2,0.9c0,0.1,0,0.2-0.1,0.2l-0.3-0.4c0-0.1-0.1-0.1-0.2-0.1
					c0,0,0,0-0.1,0.1c-0.2,0.4-0.5,0.8-0.6,1.2c-0.3-0.6-0.6-1.1-1-1.6c0-0.1-0.1-0.1-0.2-0.1l0,0c-0.2,0.1-0.3,0.1-0.4,0.2
					c0-0.7,0.1-1.4,0.3-2.1c0.1-0.4,0.3-0.8,0.6-1.1c0.1-0.1,0.2-0.2,0.3-0.2c0.2-0.1,0.4-0.1,0.6-0.2c0.2,0,0.5-0.1,0.7-0.2
					c0.2-0.1,0.4-0.3,0.4-0.6c0-0.1,0-0.2,0-0.3c0.1-0.1,0.2-0.2,0.3-0.4c0.2-0.3,0.2-0.6,0.1-0.9c-0.1-0.4-0.5-0.7-0.9-0.6
					c-0.1,0-0.2,0-0.2,0.1c0,0.1,0,0.1,0,0.2l0.1,0.1c0.1,0.1,0.2,0.3,0.1,0.4c-0.1,0.2-0.3,0.3-0.5,0.3c-0.3,0-0.5,0.1-0.7,0.3
					c-0.1,0.1-0.1,0.2-0.1,0.3c-0.2,0-0.4,0.1-0.6,0.1c0.1-0.2,0.2-0.4,0.4-0.5c0.2-0.1,0.4-0.2,0.5-0.4c0.1-0.1,0.1-0.2,0.2-0.4
					c0-0.2,0-0.4-0.1-0.5c0.1-0.1,0.1-0.2,0.2-0.4c0.1-0.3,0.1-0.6-0.1-0.9c-0.2-0.3-0.6-0.5-1-0.4l-0.1,0.1c-0.1,0-0.1,0.1-0.1,0.2
					c0,0.1,0.1,0.1,0.1,0.1h0.1c0.1,0.1,0.1,0.1,0.2,0.2c0.1,0.1,0,0.2-0.1,0.3c-0.1,0.1-0.2,0.2-0.3,0.2l0,0
					c-0.3,0-0.5,0.2-0.7,0.4c-0.2,0.2-0.3,0.5-0.2,0.8c0,0.1,0.1,0.2,0.1,0.4c0,0-0.1,0.1-0.1,0.2c-0.1-0.1-0.1-0.1-0.2-0.2
					c0-0.3-0.1-0.6-0.3-0.9c-0.1-0.1-0.3-0.2-0.4-0.2c-0.1-0.1-0.3-0.2-0.3-0.4c0-0.1,0-0.1,0-0.2c0.1-0.1,0.1-0.2,0.2-0.2
					c0.1,0,0.1-0.1,0.1-0.2c0-0.1,0-0.1-0.1-0.1h-0.1c-0.4-0.1-0.8,0.1-1,0.4c-0.2,0.3-0.2,0.6-0.1,0.9c0,0.1,0.1,0.2,0.2,0.4
					c-0.1,0.1-0.1,0.2-0.1,0.3c0,0.3,0.1,0.6,0.4,0.8c0.2,0.1,0.3,0.3,0.5,0.4c0,0,0.1,0.1,0.1,0.2c0,0.1,0.1,0.3,0.2,0.4h-0.1
					c-0.1,0-0.2,0-0.3,0c-0.1,0-0.1-0.1-0.2-0.1c-0.2-0.3-0.6-0.5-1-0.6c-0.1,0-0.2,0-0.4-0.1c-0.2-0.1-0.3-0.2-0.4-0.3
					c0-0.1-0.1-0.2-0.1-0.3c-0.1-0.1-0.1-0.2-0.3-0.2c-0.2,0.1-0.3,0.2-0.4,0.4c-0.1,0.2-0.1,0.4,0,0.6c0.1,0.3,0.2,0.5,0.4,0.7
					c0.1,0.1,0.2,0.2,0.3,0.2c0.2,0.5,0.6,0.8,1.2,0.7h0.2c0.4,0,0.7,0.1,1,0.3c0.1,0.1,0.2,0.2,0.3,0.3c0,0.1-0.1,0.9-0.2,1.4
					c-0.2-0.3-0.4-0.5-0.7-0.7c0,0-0.1,0-0.1,0c-0.1,0-0.1,0.1-0.1,0.2l0,0c0.2,0.6,0.2,1.3,0.1,1.9c-0.2,0.7-0.4,1.3-0.5,2
					l-0.1,0.4c-0.1-0.1-0.1-0.2-0.2-0.2c-0.6-0.2-1.1-0.6-1.5-1.1c-0.1-0.2-0.1-0.4-0.1-0.6c0.1-0.3,0.3-0.7,0.5-0.9
					c0.2-0.3,0.4-0.7,0.4-1.1c0-0.3-0.1-0.6-0.3-0.8c-0.3-0.3-0.6-0.5-1-0.6c-0.1,0-0.2-0.1-0.4-0.1c-0.1,0-0.2,0.1-0.3,0.1
					c-0.1,0.1-0.1,0.2-0.1,0.4c0.1,0.2,0.2,0.3,0.3,0.4c0.1,0.1,0.2,0.2,0.2,0.3c0,0.1,0,0.1-0.1,0.2c-0.1,0.1-0.3,0.2-0.4,0.3
					c-0.8,0.3-1.3,1.1-1.3,1.9c-0.1-0.3-0.3-0.6-0.4-0.9c-0.2-0.5-0.2-1,0-1.5c0.1-0.2,0.3-0.4,0.4-0.6c0.1-0.1,0.1-0.2,0.2-0.3
					c0-0.2-0.1-0.3-0.3-0.4c-0.4-0.2-0.9-0.2-1.2,0.1c-0.6,0.5-0.9,1.2-1.1,1.9c-0.2-0.3-0.3-0.6-0.4-1c0-0.4,0-0.8-0.1-1.1
					c-0.1-0.2-0.2-0.4-0.4-0.5c-0.3-0.1-0.5-0.2-0.8-0.1c-0.3,0-0.5,0.2-0.7,0.4c-0.1,0.2-0.2,0.4-0.2,0.6c-0.2-0.3-0.5-0.5-0.9-0.6
					c-0.3,0-0.6,0.1-0.9,0.3c-0.2,0.2-0.3,0.5-0.3,0.9c0.1,0.3,0.3,0.6,0.6,0.9c-0.2,0-0.3,0.1-0.4,0.1c-0.2,0.1-0.4,0.4-0.4,0.6
					c-0.1,0.2-0.1,0.5,0.1,0.7c0.1,0.2,0.3,0.3,0.4,0.4c0.1,0.1,0.2,0.1,0.4,0.1c-0.5,0.3-0.8,0.7-0.9,1.3c-0.1,0.5,0.1,0.9,0.4,1.2
					c0.1,0.1,0.3,0.2,0.4,0.1c0.1-0.1,0.2-0.1,0.3-0.3c0.1-0.2,0.2-0.4,0.3-0.6c0.5-0.4,1.1-0.6,1.7-0.6c0.5,0,0.9,0.1,1.4,0.1
					c-0.3,0.1-0.6,0.3-0.9,0.5c-0.2,0.3-0.4,0.6-0.5,1c-0.1,0.3-0.1,0.7-0.2,1c0,0.2-0.1,0.4-0.2,0.5c-0.1,0.1-0.3,0.2-0.4,0
					c0,0,0,0,0,0c-0.1-0.1-0.2-0.2-0.2-0.4c0-0.1-0.2-0.1-0.2-0.1c-0.4,0.2-0.6,0.5-0.7,0.9c0,0.3,0.1,0.6,0.2,0.8
					c0.3,0.5,0.9,0.7,1.5,0.6c0.4-0.1,0.8-0.4,1.1-0.7c0.3-0.3,0.5-0.8,0.9-1s1-0.3,2.3,0.1c2.5,0.9,4.7,2.4,6.3,4.4
					c0.5,0.7,1,1.5,1.3,2.4c-1.4-1.9-3-3.6-5-4.9c-0.5-0.3-1.1-0.6-1.7-0.8c-1.3-0.4-2.2-0.3-2.6,0c-0.2,0.1-0.3,0.4-0.3,0.6
					c0,0.2,0.1,0.4,0.3,0.6c1.6,1,3,2.4,4.1,4c0.5,0.8,1,1.6,1.4,2.4c-1.6-1.9-4.3-4.9-6.7-6c-0.6-0.3-1.3-0.5-2-0.6
					c-1.5-0.3-2.3,0-2.7,0.4c-0.3,0.2-0.3,0.7-0.1,0.9c0.1,0.1,0.2,0.2,0.4,0.2c0.8,0.3,1.6,0.7,2.3,1.2c1.2,1,2.3,2.1,3.3,3.3
					c0.7,0.8,1.4,1.7,1.9,2.6c-1.5-1.8-4.2-4.7-6.8-5.8c-0.6-0.3-1.3-0.5-2-0.6c-1.5-0.2-2.4,0-2.8,0.4c-0.2,0.2-0.3,0.5-0.2,0.7
					c0.1,0.2,0.3,0.4,0.5,0.5c0.9,0.3,1.7,0.7,2.4,1.2l0,0c1.3,1,2.4,2.1,3.5,3.3c0.4,0.4,1.1,1.4,1.6,2.1c-1.6-1.8-3.9-4-6.1-5
					c-0.6-0.3-1.3-0.5-2-0.6l0,0c-1.5-0.2-2.3,0-2.8,0.5c-0.3,0.3-0.3,0.7,0,1c0.1,0.1,0.2,0.2,0.4,0.2c0.8,0.3,1.6,0.7,2.3,1.3
					c1.3,1,2.4,2.1,3.5,3.3c1.7,2,3.1,4.3,4.1,6.7c0.4,1.2,1.2,2.2,2.2,3C55.3,264.3,55.8,264.6,56.3,264.7L56.3,264.7z"/>
				<path id="path302_6" class="st15" d="M71.4,230.5c0,0,0-0.1-0.1-0.1c-0.1-0.1-0.2-0.2-0.3-0.3c0.1-0.1,0.2-0.1,0.2-0.2
					c0.1-0.1,0.1-0.3,0-0.4c0,0,0-0.1,0-0.1c0.2,0.1,0.3,0.2,0.3,0.4C71.7,230,71.6,230.3,71.4,230.5z M70.5,259.9l-5-26.3v0.1
					c0,0.1,0.1,0.3,0.1,0.4c-0.2,0-0.3,0-0.5-0.1c-0.2-0.1-0.3-0.3-0.3-0.6c0.2,0.2,0.3,0.2,0.6,0.1L70.5,259.9z M74.4,256.2
					c-0.2-0.1-0.3-0.1-0.5-0.1c0.1-0.1,0.1-0.2,0.2-0.4c0-0.2,0-0.3-0.1-0.4c0,0-0.1-0.1-0.1-0.1c0.2,0,0.5,0.1,0.6,0.3
					C74.5,255.8,74.5,256,74.4,256.2L74.4,256.2z M72.3,232c0-0.1-0.1-0.2-0.2-0.3l-0.2-0.1c0.1-0.1,0.2-0.3,0.2-0.5
					c0-0.1,0-0.1-0.1-0.2c0.1,0,0.1,0,0.2,0.1c0.2,0.1,0.3,0.3,0.3,0.4C72.8,231.6,72.5,231.9,72.3,232z M68.2,236
					c-0.4,0.1-0.7,0.3-1,0.5l-0.1-0.2c0-0.2,0.1-0.4,0.1-0.6s0.1-0.6,0.2-0.9c0-0.2,0-0.4,0-0.6c0-0.1,0-0.2-0.1-0.2
					c-0.1-0.1-0.2-0.1-0.3-0.1c-0.1,0-0.3,0.1-0.4,0.2c-0.1,0.1-0.3,0.1-0.5,0.1c-0.2-0.1-0.3-0.2-0.3-0.4c0-0.1,0-0.3,0.1-0.4
					c0.1-0.2,0.2-0.3,0.4-0.3c0,0,0.1,0,0.2,0c0.1,0,0.2,0.1,0.4,0.1h0.1c0.1,0,0.1,0,0.2,0c0.1-0.1,0.2-0.1,0.3-0.2
					c0.5-0.6,0.8-1.3,0.7-2.1c0-0.2,0-0.4,0.2-0.6c0.1-0.1,0.3-0.2,0.4-0.2H69c0.2,0.1,0.3,0.1,0.3,0.2c0,0.1,0,0.3,0,0.4
					c-0.1,0.2-0.1,0.3-0.2,0.5l-0.1,0.2c-0.1,0.1,0,0.2,0,0.2c0.1,0.1,0.2,0,0.2,0c0,0,0,0,0,0c0.2-0.2,0.3-0.4,0.6-0.4
					c0.1,0,0.1,0,0.1-0.1c0,0,0-0.1,0-0.1c0-0.1,0-0.2,0-0.3c0-0.1,0.1-0.2,0.2-0.2c0.1-0.1,0.2-0.2,0.4-0.2c0.2,0,0.3,0.1,0.4,0.2
					c0.1,0.1,0.1,0.2,0.1,0.2c0,0.2,0,0.3-0.1,0.5c-0.2,0.3-0.4,0.5-0.7,0.6c-0.2,0.1-0.4,0.2-0.6,0.3c-0.1,0-0.1,0.1-0.1,0.2
					c0,0,0,0,0,0c0.1,0.1,0.1,0.1,0.2,0c0.2-0.1,0.4-0.2,0.6-0.2h0.2c0.1,0,0.2,0,0.2-0.1c0.1-0.2,0.2-0.3,0.3-0.4
					c0.1-0.1,0.2-0.1,0.4-0.1c0.1,0,0.2,0,0.2,0.1c0.1,0.1,0.1,0.2,0.1,0.4c0,0.1,0,0.2,0,0.3c-0.1,0.2-0.2,0.3-0.3,0.3
					c-0.2,0.1-0.4,0.2-0.6,0.2c-0.1,0-0.2,0-0.3,0c-0.4,0-0.9,0.2-1.3,0.4c-0.1,0.1-0.2,0.2-0.3,0.3c-0.1,0.1-0.2,0.4-0.3,0.6
					c-0.2,0.4-0.4,0.9-0.6,1.4L68.2,236L68.2,236z M65.3,228.6c-0.1-0.1-0.3-0.2-0.5-0.2c0.1-0.1,0.2-0.3,0.2-0.4
					c0.1-0.1,0.1-0.3,0-0.4c0,0-0.1-0.1-0.1-0.1c0.2,0,0.4,0.1,0.4,0.3c0.1,0.2,0.1,0.4,0,0.6L65.3,228.6L65.3,228.6z M62,228.8
					c-0.2,0-0.3,0.1-0.5,0.2c0-0.1-0.1-0.1-0.1-0.2c-0.1-0.2-0.1-0.4,0-0.6c0.1-0.2,0.3-0.3,0.4-0.3c-0.1,0.1-0.2,0.4-0.1,0.6
					C61.8,228.6,61.9,228.7,62,228.8z M60.3,230.8c0,0-0.1,0.1-0.1,0.1c-0.1,0.1-0.1,0.2-0.2,0.4c-0.3-0.3-0.5-0.7-0.4-1.1
					c0,0,0-0.1,0.1-0.1c0,0.1,0,0.1,0.1,0.2C59.9,230.5,60.1,230.7,60.3,230.8L60.3,230.8z M67,230.2L67,230.2
					c-0.1-0.2-0.2-0.3-0.3-0.3c0.3-0.2,0.3-0.5,0.2-0.8c0,0,0,0,0,0c0.2,0.1,0.3,0.2,0.4,0.4c0.1,0.2,0,0.4-0.1,0.6L67,230.2
					L67,230.2z M67.4,252.8c-0.1-0.1-0.1-0.2-0.2-0.2c0.4-0.2,0.8-0.5,1.2-0.9c0.2-0.2,0.4-0.5,0.6-0.8c0.2-0.3,0.3-0.6,0.4-0.9l0,0
					c-0.1,0.3-0.2,0.6-0.4,0.9c-0.2,0.3-0.4,0.5-0.6,0.8c-0.4,0.4-0.8,0.6-1.3,0.8l0,0c-0.4,0.1-0.8,0.2-1.2,0.4
					c-2.3,0.9-4.5,2.2-6.4,3.8c-0.5,0.4-0.9,1-1.2,1.5c-0.1,0.2-0.1,0.4,0,0.6c0.1,0.2,0.2,0.3,0.4,0.4c0.5,0.2,0.8,0.5,1,1
					c0.1,0.3,0.2,0.5,0.2,0.8c0.2,1-0.1,2-0.8,2.7c-0.3,0.3-0.6,0.5-0.9,0.6l0,0c-0.5,0.2-1.1,0.2-1.6,0.1c-0.5-0.1-1-0.3-1.4-0.6
					c-1-0.7-1.7-1.7-2.1-2.8c-1-2.5-2.4-4.8-4.2-6.8c-1-1.2-2.2-2.4-3.5-3.4c-0.8-0.6-1.6-1.1-2.5-1.3c-0.2-0.1-0.3-0.1-0.3-0.2
					c0-0.1,0-0.3,0.1-0.4c0.3-0.3,1-0.6,2.5-0.3c0.7,0.1,1.4,0.3,2,0.6c2.5,1.1,5.2,4,6.8,5.8c-0.4-0.1-0.8,0-1.1,0.2
					c-0.8-0.8-1.6-1.5-2.5-2.2c-0.9-0.7-1.8-1.4-2.7-2c0.9,0.7,1.8,1.4,2.6,2.1c0.8,0.8,1.6,1.5,2.3,2.3c-0.1,0.1-0.1,0.2-0.1,0.3
					c0,0.2,0,0.4,0.1,0.6c0.1,0.4,0.3,0.7,0.5,1c0.4,0.6,0.8,1.2,1.3,1.6c-0.5-0.6-0.9-1.2-1.3-1.8c-0.2-0.3-0.3-0.6-0.4-0.9
					c-0.1-0.3-0.1-0.6,0.2-0.8c0.3-0.2,0.6-0.2,0.9-0.2c0.3,0,0.7,0.1,1,0.2c0.7,0.2,1.3,0.5,1.9,0.9c-0.6-0.4-1.2-0.8-1.8-1.1
					c-0.1-0.1-0.3-0.1-0.4-0.2c-0.7-1.3-1.6-2.5-2.5-3.6c-1.1-1.2-2.2-2.4-3.5-3.4c-0.8-0.6-1.6-1-2.5-1.3c-0.1,0-0.2-0.1-0.3-0.2
					c0-0.1,0-0.3,0.1-0.4c0.3-0.3,1-0.6,2.5-0.4c0.7,0.1,1.3,0.3,1.9,0.6c2.8,1.2,6,4.8,7.3,6.4c-0.3-0.1-0.6-0.3-0.9-0.4
					c-0.4-0.1-0.8-0.1-1.2,0.1c-0.7-0.8-1.5-1.6-2.3-2.3c-0.8-0.8-1.7-1.5-2.6-2.1c0.9,0.7,1.7,1.5,2.5,2.2c0.8,0.8,1.5,1.6,2.2,2.4
					c-0.2,0.3-0.2,0.6-0.1,0.9c0.1,0.4,0.2,0.7,0.4,1c0.4,0.6,0.8,1.2,1.3,1.7l0,0c-0.4-0.6-0.8-1.2-1.1-1.8c-0.2-0.3-0.3-0.7-0.3-1
					c-0.1-0.3-0.1-0.6,0.2-0.8c0.3-0.1,0.6-0.1,0.9,0c0.3,0.1,0.7,0.2,1,0.3c0.6,0.3,1.3,0.6,1.8,1c-0.3-0.3-0.6-0.6-1-0.8
					c-0.8-1.5-1.7-2.9-2.8-4.2c-1-1.2-2.1-2.4-3.3-3.4c-0.7-0.6-1.6-1-2.5-1.3c-0.1,0-0.2-0.1-0.3-0.2c0-0.1,0-0.3,0.1-0.4
					c0.3-0.3,1-0.5,2.4-0.3c0.7,0.1,1.3,0.3,1.9,0.6c2.7,1.2,6.1,5.2,7.4,6.8l0.1,0.1c0.1,0.5,0.3,1,0.5,1.4l0,0
					c-0.2-0.7-0.3-1.4-0.4-2.1c0-0.3,0-0.7,0-1c0-0.3,0.2-0.6,0.4-0.7c0.3,0,0.6,0,0.9,0.2c0.3,0.2,0.6,0.4,0.8,0.6
					c0.5,0.5,1,1,1.4,1.5l0,0c-0.1-0.7-0.1-1.4-0.2-2.1c0-0.3,0-0.7,0.1-1c0.1-0.3,0.2-0.6,0.5-0.6c0.3,0,0.6,0.1,0.9,0.3
					c0.3,0.2,0.6,0.4,0.8,0.7c0.5,0.5,1,1.1,1.4,1.6c-0.3-0.6-0.7-1.2-1.2-1.8c-0.2-0.3-0.5-0.5-0.8-0.8c-0.3-0.2-0.7-0.4-1.1-0.4
					c-0.2,0-0.4,0.1-0.6,0.3c-0.1,0.1-0.2,0.3-0.2,0.5c-0.4-0.8-0.8-1.6-1.3-2.3c-1.6-2.1-3.8-3.8-6.3-4.8c-0.8-0.4-1.7-0.4-2.5,0
					c-0.4,0.3-0.7,0.6-1,1.1c-0.3,0.3-0.6,0.5-0.9,0.6c-0.4,0.1-0.9-0.1-1.2-0.5c-0.1-0.2-0.2-0.3-0.2-0.5c0.1-0.2,0.2-0.5,0.4-0.6
					c0.1,0.3,0.3,0.4,0.6,0.5c0.2,0,0.4,0,0.5-0.2c0.2-0.2,0.3-0.5,0.3-0.7c0-0.6,0.2-1.3,0.6-1.8c0.3-0.3,0.6-0.4,1-0.5
					c0.5-0.1,1-0.1,1.5,0c0.3,0.1,0.7,0.2,1,0.4c0.6,0.4,1.2,0.9,1.5,1.5c-0.3-0.7-0.8-1.2-1.4-1.7c-0.3-0.2-0.6-0.4-1-0.5
					c-0.4-0.1-0.8-0.2-1.2-0.2c-0.7-0.2-1.4-0.3-2.2-0.3c-0.7,0-1.4,0.2-1.9,0.7c-0.2,0.2-0.3,0.4-0.4,0.6c0,0.1-0.1,0.1-0.1,0.1
					s0,0-0.1-0.1c-0.3-0.2-0.4-0.6-0.3-0.9c0.1-0.5,0.4-0.8,0.8-1.1c0.4-0.2,0.8-0.4,1.2-0.4c0.3-0.1,0.7-0.1,1,0
					c-0.3-0.1-0.7-0.2-1-0.2c-0.3,0-0.7,0-1,0.1c-0.2,0-0.4-0.1-0.5-0.1c-0.1-0.1-0.3-0.1-0.3-0.3c-0.1-0.2-0.1-0.3,0-0.5
					c0-0.2,0.1-0.3,0.3-0.4c0.1-0.1,0.3-0.1,0.4-0.1c0.2,0,0.4,0.1,0.6,0.1c0,0,0.1,0,0.2,0c0.1,0,0.1-0.1,0.1-0.1
					c0-0.1,0-0.1-0.1-0.2c-0.3-0.2-0.6-0.3-0.8-0.6c-0.2-0.1-0.3-0.3-0.3-0.5c0-0.2,0-0.4,0.2-0.5c0.1-0.2,0.4-0.3,0.6-0.2
					c0.2,0.1,0.4,0.2,0.5,0.3c0.2,0.2,0.4,0.5,0.6,0.8c0,0.1,0.1,0.1,0.2,0.1c0,0,0.1,0,0.1-0.1c0.1,0,0.1-0.1,0-0.2c0,0,0,0,0,0
					c-0.1-0.2-0.2-0.4-0.2-0.7c0-0.2,0-0.3,0.1-0.4c0.1-0.2,0.3-0.3,0.5-0.3c0.2-0.1,0.4,0,0.6,0.1c0.1,0.1,0.2,0.2,0.2,0.4
					c0.1,0.3,0.1,0.7,0.1,1c0,0.2,0.1,0.4,0.1,0.6c0.2,0.7,0.6,1.3,1,1.8c0.1,0.2,0.3,0.3,0.5,0.5l0,0c-0.5-0.5-0.7-1.2-0.6-1.9
					c0.1-0.6,0.4-1.1,0.9-1.5c0.3-0.2,0.6-0.2,0.9-0.1c0.1,0.1,0.1,0.1,0.1,0.1c0,0.1,0,0.1-0.1,0.1c-0.2,0.2-0.3,0.4-0.5,0.6
					c-0.2,0.6-0.3,1.2,0,1.8c0.2,0.6,0.5,1.2,0.9,1.8c0.1,0.1,0.1,0.1,0.2,0.1c0.1,0,0.1-0.1,0.1-0.1c0,0,0-0.1,0-0.1
					c-0.1-0.3-0.2-0.7-0.2-1c0-0.7,0.4-1.3,1.1-1.5c0.2-0.1,0.4-0.2,0.6-0.4c0.1-0.1,0.1-0.3,0.1-0.4c0-0.2-0.2-0.4-0.3-0.4
					c-0.2-0.1-0.2-0.2-0.2-0.2s0,0,0,0c0.1-0.1,0.3-0.1,0.4,0c0.3,0.1,0.6,0.3,0.8,0.6c0.1,0.2,0.2,0.4,0.2,0.6
					c0,0.3-0.1,0.6-0.3,0.9c-0.2,0.3-0.4,0.6-0.5,1c-0.1,0.3,0,0.6,0.1,0.8c0.4,0.5,1,1,1.6,1.2c0.1,0.1,0.3,0.3,0.4,0.4
					c0,0.4,0,0.8,0.1,1.2c0.1,0.7,0.4,1.3,0.9,1.8c-0.4-0.5-0.7-1.2-0.8-1.8c-0.1-0.7-0.1-1.3,0.1-2c0.1-0.7,0.3-1.3,0.6-1.9
					c0.1-0.3,0.1-0.7,0.1-1c0-0.2,0-0.4-0.1-0.6c0.2,0.2,0.4,0.5,0.5,0.9c0.2,0.5,0.3,0.9,0.3,1.4c0,0.1,0,0.2,0,0.4s0,0.3,0.2,0.4
					c-0.1-0.1,0-0.3,0-0.4c0.2-0.4,0.5-0.8,0.9-1.1c0.3-0.2,0.5-0.4,0.8-0.5c0.8,1.3,1.5,2.7,2,4.1c0.2,0.8,0.4,1.5,0.5,2.3
					c0.1,0.8,0,1.6-0.1,2.4c0.2-0.8,0.3-1.6,0.2-2.4c0-0.6-0.1-1.3-0.3-1.9c2.2,0.2,4.2,1.5,5.3,3.4c1.3,1.9,1.8,4.3,1.4,6.6
					c-0.2,0.9-0.5,1.9-1,2.7h-0.2c-0.3,0-0.6,0.1-0.9,0.2c-0.2,0.1-0.4,0.2-0.5,0.4c-0.1-0.6-0.4-1.1-0.9-1.5c0,0-0.1,0-0.1,0
					c0,0-0.1,0-0.1,0.1c-0.3,0.5-0.5,1-0.7,1.5c-0.2-0.3-0.5-0.5-0.8-0.6c-0.4-0.1-0.8-0.1-1.1,0.1L67.4,252.8z M69.9,263
					c-0.2-0.2-0.3-0.5-0.2-0.8c0.2-0.3,0.5-0.6,0.8-0.6c0.2-0.1,0.5-0.1,0.7,0c-0.2-0.1-0.5-0.1-0.7-0.1c-0.2,0-0.5,0.1-0.7,0.2
					c-0.6-0.1-1.3,0.1-1.7,0.6c-0.2,0.2-0.3,0.4-0.4,0.7c-0.2-0.2-0.4-0.5-0.5-0.9c0-0.3,0.1-0.5,0.2-0.7c0.2-0.3,0.5-0.5,0.8-0.6
					c0.3-0.1,0.6-0.1,0.9,0c-0.1-0.1-0.3-0.2-0.4-0.2c-0.2-0.1-0.5-0.1-0.8-0.2c-0.5-0.1-1,0-1.5,0.3c-0.1-0.5,0.1-0.9,0.6-1.2
					c0.3-0.2,0.7-0.2,1,0c0.1,0.1,0.2,0.2,0.3,0.3c0-0.1-0.1-0.3-0.2-0.4c-0.1-0.1-0.2-0.2-0.2-0.3c-0.3-0.5-0.7-0.8-1.2-0.9
					c0.1-0.2,0.3-0.4,0.5-0.4c0.3-0.1,0.6,0,0.8,0.2c0.1,0.1,0.2,0.2,0.3,0.3c-0.1-0.1-0.1-0.3-0.2-0.4c-0.1-0.1-0.2-0.2-0.2-0.3
					c-0.1-0.4-0.4-0.8-0.8-1c0.2-0.1,0.5-0.2,0.7-0.2c0.2,0,0.3,0.1,0.5,0.2c0.1,0.1,0.2,0.2,0.3,0.4c0-0.2-0.1-0.3-0.1-0.5
					c-0.1-0.1-0.2-0.2-0.3-0.3c-0.1-0.5-0.4-1-0.8-1.2c0.2-0.2,0.4-0.2,0.6-0.2c0.2,0,0.4,0.1,0.5,0.3c0.1,0.1,0.2,0.3,0.2,0.5
					c0-0.2,0-0.5-0.1-0.7c-0.1-0.2-0.1-0.3-0.2-0.5c-0.2-0.4-0.5-0.8-0.9-1c0.5-0.3,1.1-0.3,1.5-0.1c0.2,0.2,0.4,0.4,0.5,0.6
					c0,0.1,0.1,0.1,0.2,0.1c0.1,0,0.1-0.1,0.1-0.1c0.1-0.6,0.3-1.1,0.6-1.6c0.3,0.3,0.4,0.6,0.5,0.9c0.1,0.2,0.1,0.5,0.2,0.7
					c0,0.1,0,0.1,0.1,0.1c0.1,0,0.1,0,0.2-0.1c0.1-0.3,0.3-0.5,0.6-0.7c0.5-0.2,1-0.2,1.5-0.1c-1.1,0.8-1.6,1.5-1.7,2
					c0,0.3,0,0.5,0.2,0.8c-0.3,0.1-0.6,0.2-0.9,0.3c-0.4,0.2-0.6,0.7-0.4,1.1c0.2,0.4,0.4,0.7,0.8,1l0.9,0.8l0,0l-0.8-0.9
					c-0.3-0.3-0.5-0.6-0.7-0.9c-0.1-0.3,0-0.7,0.4-0.9c0.4-0.2,0.7-0.2,1.1-0.3l0,0c0.5,0.2,1,0.3,1.5,0.3c0.7,0,1.5,0,2.1,0.1
					c0.2,0,0.4,0.1,0.6,0.1c0,0,0.1,0,0.1,0l0,0c0,0-0.1,0.1-0.2,0.1c-0.5,0-1.7,0.2-2.4,0.3l-0.9,0.1c-0.2,0-0.3,0.1-0.5,0.1
					c-0.1,0.1-0.2,0.1-0.2,0.2c0,0.1,0,0.2,0,0.3c0.2,0.3,0.4,0.5,0.7,0.6c0.5,0.4,1.2,0.6,1.8,0.5c0.2,0,0.4-0.1,0.5-0.2
					c0.3,0.1,0.5,0.2,0.8,0.2c0.2,0,0.4-0.1,0.6-0.3c0.1-0.1,0.2-0.2,0.3-0.3c0.2,0.4,0.3,0.9,0.1,1.4c-0.2,0.4-0.6,0.8-1,1
					c-0.6,0.3-1.3,0.5-2,0.6c-0.1-0.2-0.3-0.4-0.5-0.5c0.2-0.1,0.3-0.4,0.3-0.6c0-0.2,0-0.3-0.1-0.5c-0.1-0.1-0.2-0.3-0.4-0.3
					c-0.1-0.1-0.3-0.1-0.5-0.1c-0.2,0-0.3,0-0.5,0.1c-0.3,0.1-0.4,0.4-0.5,0.7c-0.1,0-0.3-0.1-0.4-0.1c-0.4,0-0.8,0-1.1,0
					c0.4,0,0.8,0,1.1,0.1c0.2,0,0.4,0.1,0.5,0.2c0.2,0.1,0.3,0.2,0.4,0.3c0,0,0,0,0.1,0c0.1,0,0.3,0.1,0.4,0.1
					c0.1,0.1,0.3,0.1,0.4,0.2c0.2,0.2,0.4,0.4,0.5,0.6c0,0.2-0.1,0.3-0.2,0.4c-0.2,0.1-0.4,0.2-0.6,0.3c-0.6,0.1-1.2,0.1-1.7,0.1
					c-0.5-0.1-0.9,0.1-1.3,0.4C70.1,262.8,70,262.9,69.9,263L69.9,263z M63.8,235.5l-0.2,0.1c-0.2,0.1-0.4,0.3-0.5,0.5
					c0-0.4-0.1-0.7-0.3-1.1v-0.1c0.1-0.7,0.2-1.4,0.3-1.9c0-0.1,0-0.1-0.1-0.3c-0.1-0.1-0.2-0.2-0.3-0.3c-0.4-0.2-0.8-0.4-1.2-0.4
					h-0.2c-0.4,0-0.8-0.2-0.9-0.6c0-0.2,0.1-0.3,0.2-0.4c0.1-0.1,0.2-0.2,0.3-0.2c0.3,0.1,0.6,0.2,0.8,0.5c0.1,0.1,0.2,0.1,0.2,0.2
					c0.2,0.1,0.3,0.1,0.5,0.1h0.3c0.1,0,0.1,0,0.2-0.1c0.1-0.1,0-0.1,0-0.2l-0.1-0.2c-0.1-0.1-0.1-0.2-0.2-0.4
					c-0.1-0.2-0.2-0.3-0.3-0.4c-0.2-0.1-0.3-0.2-0.4-0.3c-0.2-0.1-0.3-0.3-0.3-0.5c0-0.1,0.1-0.2,0.1-0.3c0.1-0.1,0.3-0.2,0.5-0.2
					c0.1,0,0.2,0,0.3,0c0.1,0,0.2,0,0.2,0.1c0.1,0.2,0.2,0.5,0.2,0.7c0,0.1,0,0.1,0.1,0.1c0.2,0.1,0.3,0.2,0.3,0.4
					c0,0.1,0.1,0.1,0.2,0.1c0.1,0,0.1,0,0.2-0.1c0.1-0.2,0.2-0.3,0.3-0.4c0.1-0.1,0.1-0.2,0-0.2c-0.1-0.1-0.1-0.2-0.1-0.3
					c0-0.2,0-0.4,0.2-0.5c0.2-0.2,0.4-0.3,0.7-0.3c0.3,0,0.5,0.1,0.7,0.3c0.1,0.1,0.1,0.4,0,0.5c-0.1,0.1-0.2,0.2-0.3,0.3l-0.1,0.1
					c-0.3,0.3-0.5,0.6-0.6,1c-0.1,0.1-0.1,0.2,0,0.2c0.1,0,0.1,0,0.2,0c0.2-0.2,0.5-0.3,0.8-0.3c0.1,0,0.3,0,0.3-0.2
					c0-0.1,0-0.2,0-0.2c0.1-0.1,0.2-0.2,0.3-0.2c0.3-0.1,0.5,0,0.7,0.2c0.1,0.1,0.1,0.1,0.1,0.4c0,0.2-0.1,0.3-0.3,0.4
					c-0.1,0.1-0.3,0.1-0.4,0.1h-0.2c-0.2,0-0.4,0.1-0.7,0.2c-0.2,0.1-0.4,0.2-0.5,0.3c-0.3,0.3-0.5,0.8-0.6,1.2
					C63.8,233.8,63.7,234.6,63.8,235.5L63.8,235.5z M71,241.3c-1.2-1-2.6-1.6-4.1-1.7v-0.2c-0.2-0.8-0.5-1.5-0.9-2.3v-0.1
					c0.2-0.4,0.4-0.8,0.6-1.2c0.2,0.3,0.4,0.6,0.5,0.9c0,0.1,0,0.2,0,0.3c0,0.1,0,0.1,0,0.2c0,0.1,0.1,0.1,0.1,0.2
					c0-0.1,0-0.1,0-0.2c0-0.1,0-0.1,0.1-0.2c0-0.1,0.1-0.2,0.2-0.3c0.4-0.3,0.8-0.5,1.2-0.7C69.8,237.7,70.6,239.4,71,241.3z
					 M73.6,251.7c0.4-1.1,0.6-2.4,0.6-3.6l0.2-0.4c0.1-0.3,0.3-0.6,0.5-0.9c0.2-0.3,0.4-0.5,0.7-0.5c0.3-0.1,0.5,0.2,0.7,0.5
					c0.2,0.3,0.3,0.6,0.4,0.9c0.2,0.7,0.4,1.4,0.5,2.1l0,0c0-0.5,0-1-0.1-1.5c0,0,0-0.1,0.1-0.2c0.5-2,2-7,4-9.2
					c0.4-0.5,0.9-0.9,1.5-1.3c1.2-0.8,2-0.8,2.3-0.7c0.1,0,0.3,0.2,0.3,0.3c0,0.1,0,0.3-0.2,0.3c-0.7,0.6-1.3,1.4-1.7,2.2
					c-0.7,1.4-1.3,2.9-1.7,4.4c-0.5,1.6-0.8,3.3-0.9,5c-0.2,0.4-0.4,0.7-0.6,1.1c0.4-0.6,0.8-1.2,1.3-1.7c0.2-0.3,0.5-0.5,0.8-0.7
					c0.2-0.2,0.6-0.3,0.9-0.3c0.3,0,0.5,0.3,0.5,0.6c0.1,0.3,0.1,0.7,0.1,1c0,0.7-0.1,1.4-0.3,2.1l0,0c0.3-0.7,0.4-1.4,0.5-2.1
					c0.1-0.4,0.1-0.7,0-1.1c0-0.3-0.2-0.6-0.5-0.8c0.3-1,0.7-2.1,1-3.1c0.4-1,0.8-2,1.4-3c-0.6,1-1.1,2-1.5,3c-0.4,1-0.8,2-1.2,3
					l0,0c-0.4,0-0.8,0.1-1.1,0.4c-0.2,0.2-0.5,0.4-0.7,0.6c0.6-2,2-6.5,4.1-8.8c0.5-0.5,1-1,1.6-1.3c1.2-0.8,2-0.8,2.4-0.7
					c0.1,0.1,0.3,0.2,0.3,0.3c0,0.1-0.1,0.3-0.2,0.3c-0.7,0.6-1.4,1.4-1.8,2.2c-1.5,2.7-2.4,5.7-2.8,8.8l-0.3,0.3
					c-0.5,0.5-0.9,1.1-1.2,1.7c0.4-0.6,0.9-1.1,1.4-1.6c0.2-0.2,0.5-0.4,0.8-0.6c0.3-0.2,0.6-0.2,0.9-0.2c0.3,0,0.4,0.3,0.5,0.6
					c0,0.3,0,0.7,0,1c-0.1,0.7-0.2,1.4-0.3,2.1c0.3-0.6,0.5-1.3,0.6-2c0-0.4,0-0.7,0-1.1c0-0.3-0.2-0.6-0.4-0.8
					c0.4-1,0.8-2.1,1.2-3.1c0.5-1,1-2,1.5-3c-0.6,0.9-1.2,1.9-1.7,2.9c-0.5,1-0.9,2-1.4,3c-0.4-0.1-0.8,0-1.1,0.2
					c0.7-2.2,2.1-6,3.9-8c0.5-0.5,1-1,1.6-1.3c1.2-0.8,2-0.8,2.4-0.7c0.1,0,0.3,0.2,0.3,0.3c0,0.1-0.1,0.3-0.2,0.3
					c-0.7,0.6-1.4,1.4-1.8,2.2c-0.8,1.4-1.4,2.9-1.9,4.5c-0.8,2.6-1.1,5.2-1.1,7.9c0.1,1.2-0.2,2.4-0.8,3.4
					c-0.6,0.9-1.5,1.5-2.6,1.6c-0.4,0-0.8,0-1.1-0.1c-0.9-0.4-1.6-1.2-1.8-2.1c-0.1-0.3-0.1-0.5-0.2-0.8c0-0.5,0.1-1,0.5-1.3
					c0.1-0.1,0.2-0.3,0.2-0.5c0-0.2-0.1-0.4-0.3-0.5c-0.5-0.4-1-0.8-1.7-0.9C78.5,251.9,76.1,251.6,73.6,251.7L73.6,251.7z
					 M74.2,247.6c-0.1-0.7-0.3-1.5-0.5-2.1c0.4-1.8,1.2-3.5,2.1-5c0.3-0.5,0.8-1,1.2-1.4c1-0.9,1.7-1.1,2.1-1c0.1,0,0.3,0.1,0.3,0.2
					c0,0.1,0,0.2-0.1,0.3c-1.1,1.6-1.9,3.5-2.2,5.4c-0.2,1-0.3,2.1-0.3,3.1c-0.1-0.2-0.2-0.4-0.2-0.6c-0.1-0.3-0.4-0.5-0.8-0.6
					c0-0.5,0.1-1,0.1-1.4s0.2-1.1,0.3-1.6c0.3-1.1,0.6-2.1,1.1-3.1c-0.5,1-1,2-1.3,3c-0.2,0.5-0.3,1.1-0.4,1.6
					c-0.1,0.5-0.2,1-0.2,1.5c-0.4,0.1-0.7,0.4-0.9,0.7C74.4,246.9,74.2,247.2,74.2,247.6L74.2,247.6z M61,249.9
					c-0.5-0.9-1-1.9-1.6-2.7c-1.1-1.6-2.5-3-4.2-4.1c-0.1-0.1-0.2-0.2-0.2-0.3c0-0.1,0.1-0.3,0.2-0.3c0.7-0.3,1.6-0.3,2.3,0.1
					c0.6,0.2,1.1,0.5,1.7,0.8c2,1.5,3.8,3.3,5.2,5.4c0,0.1,0,0.1,0,0.2c0.1,0.7,0.2,1.4,0.4,2.1c-0.3-0.6-0.7-1.2-1.2-1.7
					c-0.2-0.3-0.5-0.5-0.8-0.7c-0.3-0.2-0.7-0.3-1.1-0.3c-0.2-0.4-0.5-0.9-0.7-1.3c-0.3-0.5-0.6-0.9-1-1.3c-0.7-0.8-1.5-1.6-2.4-2.3
					c0.8,0.7,1.6,1.5,2.2,2.4c0.3,0.4,0.6,0.9,0.9,1.3c0.3,0.4,0.5,0.8,0.7,1.3c-0.3,0.2-0.4,0.5-0.4,0.9
					C61,249.5,61,249.7,61,249.9L61,249.9z"/>
				<path id="path434" class="st13" d="M73.6,260.7c0.2-0.2,0.2-0.4,0.2-0.6c0-0.3-0.2-0.5-0.4-0.6c-0.1-0.1-0.3-0.1-0.4-0.1
					c-0.1,0-0.3,0-0.4,0.1c-0.2,0.1-0.4,0.3-0.5,0.5h0.1c0.2,0.1,0.3,0.2,0.5,0.3h0.1c-0.1-0.1-0.1-0.3,0-0.4
					c0.1-0.2,0.4-0.3,0.6-0.2c0.2,0.1,0.3,0.4,0.2,0.6l0,0c0,0.1-0.1,0.2-0.2,0.2l0.1,0L73.6,260.7L73.6,260.7z M73.1,260.1
					c0-0.1,0.1-0.2,0.2-0.2c0,0,0,0,0,0c0.1,0,0.2,0.1,0.2,0.1c0,0,0,0,0,0c0,0.1-0.1,0.2-0.2,0.2c0,0,0,0,0,0
					C73.2,260.3,73.1,260.2,73.1,260.1z"/>
				<path id="path338" class="st12" d="M57.9,250.3c-0.6-0.9-1.3-1.7-1.9-2.5c-0.7-0.8-1.5-1.6-2.3-2.4c0.8,0.7,1.6,1.5,2.4,2.3
					c0.7,0.8,1.4,1.6,2.1,2.4c0.4-0.1,0.8,0,1.1,0.2c0.3,0.2,0.6,0.4,0.9,0.6c0.6,0.4,1.1,1,1.5,1.5c-0.5-0.5-1.1-0.9-1.6-1.4
					c-0.3-0.2-0.6-0.4-0.9-0.5c-0.3-0.2-0.6-0.2-0.9-0.1c-0.3,0.1-0.4,0.4-0.3,0.7c0.1,0.3,0.1,0.7,0.3,1c0.3,0.6,0.6,1.3,0.9,1.9
					l0,0c-0.4-0.6-0.8-1.2-1.1-1.8c-0.2-0.3-0.3-0.7-0.3-1C57.6,250.9,57.7,250.6,57.9,250.3L57.9,250.3z M79.5,246.3
					c0.3-1,0.6-2.1,1-3.1c0.4-1,0.8-2.1,1.3-3.1c-0.4,1-0.8,2-1.1,3.1c-0.3,1-0.6,2-0.8,3.1c0.3,0.1,0.5,0.4,0.6,0.7
					c0.1,0.4,0.1,0.7,0.1,1.1c0,0.7-0.1,1.4-0.3,2.1l0,0c0.1-0.7,0.1-1.4,0.1-2.1c0-0.3,0-0.7-0.1-1c-0.1-0.3-0.2-0.6-0.6-0.5
					c-0.3,0.1-0.6,0.2-0.8,0.5c-0.2,0.3-0.4,0.5-0.6,0.8c-0.4,0.6-0.7,1.2-1,1.9c0.2-0.7,0.4-1.4,0.8-2c0.2-0.3,0.4-0.6,0.6-0.9
					C78.7,246.6,79.1,246.4,79.5,246.3L79.5,246.3z M84.9,252l1.4-2.6l-1.1,2.8c-0.1,0.1-0.2,0.1-0.2,0
					C84.9,252.1,84.9,252.1,84.9,252L84.9,252L84.9,252z M81.9,250.7l1-2.7l-0.8,2.8c0,0.1-0.1,0.1-0.2,0.1S81.8,250.8,81.9,250.7
					L81.9,250.7L81.9,250.7z M78.7,249.9l0.8-2.8l-0.5,2.8c0,0.1-0.1,0.1-0.2,0.1C78.8,250.1,78.7,250,78.7,249.9
					C78.7,249.9,78.7,249.9,78.7,249.9L78.7,249.9L78.7,249.9z M75.3,249.9l0.3-3v3c0,0.1-0.1,0.2-0.2,0.1
					C75.4,250,75.3,250,75.3,249.9C75.3,249.9,75.3,249.9,75.3,249.9L75.3,249.9L75.3,249.9z M66.4,250.6l-1-2.9l1.3,2.7
					c0,0.1,0,0.2-0.1,0.2C66.5,250.7,66.4,250.7,66.4,250.6L66.4,250.6z M63.1,251.9l-1.2-2.9l1.5,2.6c0,0.1,0,0.2-0.1,0.2
					c0,0,0,0,0,0C63.2,251.9,63.1,251.9,63.1,251.9C63.1,251.8,63.1,251.8,63.1,251.9L63.1,251.9z M60.1,253.3l-1.6-2.4l1.8,2.2
					c0.1,0.1,0.1,0.2,0,0.2C60.3,253.4,60.2,253.4,60.1,253.3C60.1,253.3,60.1,253.3,60.1,253.3L60.1,253.3z M57.5,255.3l-1.8-2.2
					l2,2c0.1,0.1,0.1,0.2,0,0.2C57.7,255.4,57.6,255.4,57.5,255.3C57.5,255.3,57.5,255.3,57.5,255.3L57.5,255.3L57.5,255.3z
					 M55.3,257.8l-2.1-2.1l2.3,1.9c0.1,0.1,0.1,0.2,0,0.2C55.5,257.8,55.4,257.8,55.3,257.8C55.3,257.8,55.3,257.8,55.3,257.8
					L55.3,257.8z"/>
			</g>
		</g>
	</g>
	<path style="clip-path:url(#SVGID_00000122000025127833299800000004260599533730054842_);fill:#FFFFFF;" d="M80,99.6
		c-12.6,0-22.9,10.2-22.9,30.5c0,25.4,18.2,50.9,40.7,50.9s40.7-25.4,40.7-50.9c0-20.3-10.2-30.5-22.9-30.5
		c-6.9,0-13.5,3.1-17.8,8.5C93.5,102.8,86.9,99.6,80,99.6z"/>
	<path style="clip-path:url(#SVGID_00000122000025127833299800000004260599533730054842_);fill:#FFFFFF;" d="M30.4,114.8h134.7
		c3,0,5.5,2.4,5.5,5.5v44c0,3-2.4,5.5-5.5,5.5H30.4c-3,0-5.5-2.4-5.5-5.5v-44C25,117.3,27.4,114.8,30.4,114.8z"/>
	<g style="clip-path:url(#SVGID_00000122000025127833299800000004260599533730054842_);enable-background:new    ;">
		<text transform="matrix(1 0 0 1 46.15 160.5699)" class="st14 st20 st21">Częstochowa</text>
	</g>
	<g style="clip-path:url(#SVGID_00000122000025127833299800000004260599533730054842_);enable-background:new    ;">
		<text transform="matrix(1 0 0 1 69.9 139.92)" class="st14 st20 st22">Pinsk</text>
	</g>
	<path style="clip-path:url(#SVGID_00000122000025127833299800000004260599533730054842_);fill:#097CC1;" d="M150.7,0h29h16v16
		c0,7,0,14,0,21c-10.2,12.4-28.6,14.2-41,4S140.5,12.4,150.7,0z"/>
	<g style="clip-path:url(#SVGID_00000122000025127833299800000004260599533730054842_);enable-background:new    ;">
		<text transform="matrix(1 0 0 1 159.75 31.75)" class="st13 st20 st24">35</text>
	</g>
</g>
</svg>
