<svg id="Слой_1" data-name="Слой 1" xmlns="http://www.w3.org/2000/svg" viewBox="0 0 195.59 280.63"><defs><style>.cls-1{fill:#3e64ad;}.cls-1,.cls-3,.cls-4,.cls-5,.cls-9{stroke:#010101;stroke-miterlimit:10;}.cls-2{font-size:43.17px;}.cls-10,.cls-2,.cls-5{fill:#fff;}.cls-11,.cls-2{font-family:Impact;}.cls-11,.cls-3{fill:#089939;}.cls-4{fill:none;}.cls-5,.cls-6,.cls-7,.cls-9{fill-rule:evenodd;}.cls-6{fill:#97a69b;}.cls-7{fill:#94a499;}.cls-8,.cls-9{fill:#010101;}.cls-11{font-size:20px;}</style></defs><rect class="cls-1" x="-270.43" y="-5.92" width="479.82" height="294.32"/><text class="cls-2" transform="translate(20.82 264.32)">Narewka</text><g id="g3172"><g id="g5191"><g id="layer1"><path id="path2972" class="cls-3" d="M14.53,51.05V156.84h.17c1.32,30.39,39.56,65.72,83.09,65.72s81.16-35.33,83.07-65.72h.2V51.05Z"/></g><g id="g3245"><path id="path3247" class="cls-1" d="M17.87,171.27a72.31,72.31,0,0,0,16.42,24.26c18.54-11.84,32.89-8.33,45.93,0,10.92,4.05,21.68,8.52,37.38,0,16.25-11.81,30.19-8.37,43.39,0a74.52,74.52,0,0,0,16.08-23.34c-5,.08-10.43-1.45-16.09-4.44-14.8-9.25-29.2-7.59-43.38-.28-14.94,8.12-27.81,6.35-39.69-.26-16.34-8.59-28.67-5.67-40.14-.26C31.14,169.57,24.5,173.32,17.87,171.27Z"/></g><g id="g5187"><path id="path5189" class="cls-4" d="M14.53,51.05V156.84h.17c1.32,30.39,39.56,65.72,83.09,65.72s81.16-35.33,83.07-65.72h.2V51.05Z"/></g></g><g id="g3158"><path id="path5199" class="cls-5" d="M39.84,90.63C58.6,69.66,80.78,59.26,111,73.81c9.93,6.4,23.23,8.58,37.74,9.27,12.42.08,21.61,4.13,23.72,16.82-.07,5.36.18,11.33.94,14.32.87,2.29,1.37,6.24-.08,7-8.25,5.19-4.21-18.47-8.41-23.94-.52,8.08-7.35,12.23-12.08,17.68-2.92,3-6.62,5.63-.64,12.51.92,1.65,1.4,3.38-1.08,5.61-7.55,4.26-11.29,12-13.44,16.54-1.12-.78-2.25-1-3.17.49l-1.07,3c-11.5.25-9.24-2-8-3.67a35.63,35.63,0,0,0,14.23-15.31c2.69-5,.44-5.78-.65-7.54-6.24-3.22-9-9.84-9.05-18.33a26.37,26.37,0,0,0,1.17,8.56c-3.11.1-5.9.49-7.21,2.22-6.25,3.58-8.34,2.33-9.71.22-2.57-4-13.64-2.45-20.27-1.08,1.06-2.91,1.41-5.72-1.94-8C94.24,112,95.82,114,94,118c-3.32,2.1-3.9,7.09-4.31,12.26-1.89,6.11-.33,12.22.22,18.33-2.27.21-4,1.11-3.67,4.75-3.09,2.37-9,1.42-10.13-.22,1.61-3.91,6.27-4.06,6.34-8.41,1-3.42.38-10-.46-10.17-1.67-1.11-2.12-3.94-2.16-7.33.14-9.31-3.87-14.11-7-17.86,3.14,3.87,6.25,7.77,6.66,13.58-4.47.35-9,.81-12-1.08-6.68-2.66-9.33.62-12.72,2.81-6.06,1.85-5.13,3.46-6.9,5.17-4.85,2.19-5.81,1-8.62-.34a5,5,0,0,1-4.26-4c2.91-1.1,5.22-1.92,6.84-5-1.77,3.08-4.54,4.13-6.9,5-2.75-1.12-5.53-2.18-6.9-6-1.31-2.3-.47-4.6.43-6.9.88-3.28,1.15-6.49-.21-9.49-12.13-1.75-6.86-9.92-2.81-12.5,1.8.2-3.55,5.21-.43,7.11C29.55,99.08,27.79,92.15,39.84,90.63Z"/><path id="path2165" class="cls-5" d="M59.86,121.21c2.19,2.44,2.35,5.77.37,11.14-1.76.47-1.71,2.58-1.86,4.34-2.94,8.37-6.13,7-7.3,10.15-.27,1.46.5,3.09,8.79,1.61.26-2.36.54-3.5,3.72-3.59,1.36-5.29,1.56-11.55,4.7-15.35,2.68-3.13,5.81-4,8.79-6.44C67,124.67,66.75,119.06,59.86,121.21Z"/><path id="path3138" class="cls-5" d="M164.63,96.69c1.71,5.79,1.07,11-.5,16.1-2.43,7.43,0,9.54,3.72,10.77,2,.54,3.35,1.22,3.09,5.33-2.1,7-2.23,11.48-2,14.61a4.6,4.6,0,0,1,1.49,3.84c-3.26-1.22-4,.9-4.34,3.59-12,2.55-9.18-.53-9.16-1.61.86-2.24,5.27-3.65,6.56-6.07,1.05-5.82.09-8.1-.62-9.91-3.79-5.74-10.52-8.17-13.25-15.1C155.5,111.43,164.39,106.75,164.63,96.69Z"/><path id="path3140" class="cls-6" d="M56,142.54a7,7,0,0,0,5.08,2.23A3.3,3.3,0,0,0,59.52,148c-3.3.38-7.54,1.11-8-.52C51.07,145.71,54.3,144.29,56,142.54Z"/><path id="path3142" class="cls-6" d="M82.15,147.58a7.87,7.87,0,0,0,4.32,2,4.88,4.88,0,0,0-.91,3.59c-3.6,1.65-6.49,1.35-9-.15C77.61,151,80.54,149.45,82.15,147.58Z"/><path id="path3144" class="cls-7" d="M131.1,146.16a5.73,5.73,0,0,0,3.35,3.08c-.5-.12-.82,2.13-1.51,3.3-2.46,0-10.31.67-7.16-2.57A52.94,52.94,0,0,0,131.1,146.16Z"/><path id="path3146" class="cls-7" d="M162.92,144.87a8,8,0,0,0,3.77,2.41,6.36,6.36,0,0,0-1.09,3.19c-2.63.57-7.9,1.72-8.37.53C156.73,148.19,161,146.94,162.92,144.87Z"/><path id="path3148" class="cls-4" d="M28.92,102.62c5.86-3.33,15.25-1.75,17.94-.54-2.53-5.15,10.42-1.65,4.45-11.34,4.31,1.7,5.58,4.31,4.24,8.27-2.31,4.24-9.27,5.49-8.69,3.07L45,101.19c-2.8.85-6-2.51-6.19,2.36.13-4.5-5.15-2.6-4.81.29C34.85,100.82,31.85,102,28.92,102.62Z"/><path id="path3150" class="cls-8" d="M43.58,106.54a1.17,1.17,0,0,1-2.33,0h0a1.11,1.11,0,0,1,1.16-1.07,1.13,1.13,0,0,1,1.17,1.06Z"/><path id="path3152" class="cls-4" d="M29,119.25c2.45-2.76,7.82-1.9,8.59.74"/><path id="path3154" class="cls-9" d="M46.33,115c-.62.95-.64,1.6.43,1.7,2.16-.66,4.69-3.19,5.72-5.83.9-1.68,0-1.54-.43-1.91C50.41,112.15,48.55,114.38,46.33,115Z"/><path id="path3156" class="cls-8" d="M35.52,120.37c0,.61-.35,1.11-.79,1.11s-.8-.5-.8-1.11.36-1.12.8-1.12S35.52,119.75,35.52,120.37Z"/></g></g><path class="cls-10" d="M44.88,0l-29,0h-16L0,16c0,7,0,14,0,21A29.1,29.1,0,0,0,51.4,18.3,28.86,28.86,0,0,0,44.88,0Z"/><text class="cls-11" transform="translate(15.51 31.75)">22</text></svg>