<?xml version="1.0" encoding="utf-8"?>
<!-- Generator: Adobe Illustrator 26.0.1, SVG Export Plug-In . SVG Version: 6.00 Build 0)  -->
<svg version="1.1" id="Слой_1" xmlns="http://www.w3.org/2000/svg" xmlns:xlink="http://www.w3.org/1999/xlink" x="0px" y="0px"
	 viewBox="0 0 195.6 280.6" style="enable-background:new 0 0 195.6 280.6;" xml:space="preserve">
<style type="text/css">
	.st0{clip-path:url(#SVGID_00000158001964243492668430000009391740371033435276_);enable-background:new    ;}
	.st1{clip-path:url(#SVGID_00000075883384334668649020000008887157466171947673_);fill:#CC1141;}
	.st2{enable-background:new    ;}
	.st3{fill:#CC1141;}
	.st4{fill:#FFFFFF;}
</style>
<g>
	<g>
		<defs>
			<rect id="SVGID_1_" width="195.6" height="280.6"/>
		</defs>
		<clipPath id="SVGID_00000146469689955733841030000007469152051775354031_">
			<use xlink:href="#SVGID_1_"  style="overflow:visible;"/>
		</clipPath>
		<g style="clip-path:url(#SVGID_00000146469689955733841030000007469152051775354031_);enable-background:new    ;">
		</g>
	</g>
	<g>
		<defs>
			<rect id="SVGID_00000118367323920949465950000017640808571263991680_" width="195.6" height="280.6"/>
		</defs>
		<clipPath id="SVGID_00000001658751494240780970000000892384347358376094_">
			<use xlink:href="#SVGID_00000118367323920949465950000017640808571263991680_"  style="overflow:visible;"/>
		</clipPath>
		<path style="clip-path:url(#SVGID_00000001658751494240780970000000892384347358376094_);fill:#CC1141;" d="M150.7,0h29h16v16
			c0,7,0,14,0,21c-10.2,12.4-28.6,14.2-41,4S140.5,12.4,150.7,0z"/>
	</g>
	<g>
		<defs>
			<rect id="SVGID_00000170273366158015695950000016770270176258710703_" width="195.6" height="280.6"/>
		</defs>
		<clipPath id="SVGID_00000009572158738344007150000009248445571193065361_">
			<use xlink:href="#SVGID_00000170273366158015695950000016770270176258710703_"  style="overflow:visible;"/>
		</clipPath>
	</g>
</g>
<image style="overflow:visible;enable-background:new    ;" width="2491" height="3316" xlink:href="F4D0D620.png"  transform="matrix(5.997591e-02 0 0 5.997591e-02 20.2654 15.6299)">
</image>
<g class="st2">
	<path class="st3" d="M81.2,206.4l-2,17.4h-5.6c-0.5-2.7-1-5.7-1.4-9.1c-0.2,1.5-0.6,4.5-1.3,9.1h-5.6l-2-17.4h4.4l0.5,6.1l0.5,5.9
		c0.2-3,0.6-7,1.3-11.9h4.7c0.1,0.5,0.2,2.4,0.5,5.7l0.5,6.6c0.3-4.2,0.7-8.3,1.3-12.4H81.2z"/>
	<path class="st3" d="M86.5,206.4v2.3H82v-2.3H86.5z M86.5,209.5v14.3H82v-14.3H86.5z"/>
	<path class="st3" d="M97.8,216.9h-5.6v3.1c0,0.6,0,1.1,0.1,1.2c0.1,0.2,0.3,0.3,0.5,0.3c0.3,0,0.5-0.1,0.7-0.4
		c0.1-0.2,0.2-0.7,0.2-1.4v-1.9h4.1v1.1c0,0.9-0.1,1.6-0.2,2c-0.1,0.5-0.4,1-0.8,1.5s-0.9,0.9-1.6,1.2c-0.6,0.3-1.4,0.4-2.4,0.4
		c-0.9,0-1.7-0.1-2.4-0.4c-0.7-0.3-1.2-0.6-1.6-1.1c-0.4-0.5-0.7-1-0.8-1.5c-0.2-0.6-0.2-1.4-0.2-2.4v-4.2c0-1.2,0.2-2.2,0.5-2.9
		c0.3-0.7,0.9-1.3,1.7-1.7c0.8-0.4,1.6-0.6,2.6-0.6c1.2,0,2.2,0.2,3,0.7c0.8,0.5,1.3,1.1,1.7,1.8c0.3,0.8,0.5,1.8,0.5,3.2V216.9z
		 M93.5,214.6v-1c0-0.7,0-1.2-0.1-1.4c-0.1-0.2-0.2-0.3-0.5-0.3c-0.3,0-0.5,0.1-0.6,0.3c-0.1,0.2-0.1,0.7-0.1,1.5v1H93.5z"/>
	<path class="st3" d="M103.7,206.4v17.4h-4.5v-17.4H103.7z"/>
	<path class="st3" d="M114.6,209.5l-1.8,5.7l2.3,8.6H111l-1.4-6.2l0,6.2h-4.3v-17.4h4.3l0,7.3l1.4-4.2H114.6z"/>
	<path class="st3" d="M120.3,206.4v2.3h-4.5v-2.3H120.3z M120.3,209.5v14.3h-4.5v-14.3H120.3z"/>
	<path class="st3" d="M131.7,216.9H126v3.1c0,0.6,0,1.1,0.1,1.2c0.1,0.2,0.3,0.3,0.5,0.3c0.3,0,0.5-0.1,0.7-0.4
		c0.1-0.2,0.2-0.7,0.2-1.4v-1.9h4.1v1.1c0,0.9-0.1,1.6-0.2,2s-0.4,1-0.8,1.5s-0.9,0.9-1.6,1.2c-0.6,0.3-1.4,0.4-2.4,0.4
		c-0.9,0-1.7-0.1-2.4-0.4c-0.7-0.3-1.2-0.6-1.6-1.1c-0.4-0.5-0.7-1-0.8-1.5c-0.2-0.6-0.2-1.4-0.2-2.4v-4.2c0-1.2,0.2-2.2,0.5-2.9
		c0.3-0.7,0.9-1.3,1.7-1.7c0.8-0.4,1.6-0.6,2.6-0.6c1.2,0,2.2,0.2,3,0.7c0.8,0.5,1.3,1.1,1.7,1.8c0.3,0.8,0.5,1.8,0.5,3.2V216.9z
		 M127.3,214.6v-1c0-0.7,0-1.2-0.1-1.4c-0.1-0.2-0.2-0.3-0.5-0.3c-0.3,0-0.5,0.1-0.6,0.3c-0.1,0.2-0.1,0.7-0.1,1.5v1H127.3z"/>
</g>
<g class="st2">
	<path class="st3" d="M68.2,226.4l-2.6,7.9l2.8,9.5h-4.7l-1.8-7.5v7.5h-4.5v-17.4H62v6.8l2-6.8H68.2z"/>
	<path class="st3" d="M78,234.1h-3.8v-0.8c0-0.7,0-1.1-0.1-1.3c-0.1-0.2-0.3-0.3-0.6-0.3c-0.2,0-0.4,0.1-0.5,0.2
		c-0.1,0.2-0.2,0.4-0.2,0.7c0,0.4,0,0.8,0.1,1c0.1,0.2,0.2,0.4,0.5,0.7c0.3,0.2,0.9,0.6,1.9,1.1c1.3,0.6,2.1,1.2,2.5,1.7
		c0.4,0.5,0.6,1.3,0.6,2.4c0,1.2-0.2,2-0.5,2.6c-0.3,0.6-0.8,1-1.5,1.4c-0.7,0.3-1.6,0.5-2.6,0.5c-1.1,0-2-0.2-2.8-0.5
		s-1.3-0.8-1.6-1.4c-0.3-0.6-0.4-1.5-0.4-2.7v-0.7h3.8v0.9c0,0.8,0,1.3,0.1,1.5s0.3,0.3,0.6,0.3c0.3,0,0.5-0.1,0.6-0.2
		c0.1-0.2,0.2-0.5,0.2-1c0-0.7-0.1-1.1-0.2-1.3c-0.2-0.2-1-0.7-2.5-1.5c-1.3-0.7-2.1-1.4-2.3-1.9c-0.3-0.6-0.4-1.3-0.4-2.1
		c0-1.1,0.2-2,0.5-2.5c0.3-0.5,0.8-1,1.5-1.3s1.6-0.4,2.5-0.4c0.9,0,1.7,0.1,2.4,0.4c0.7,0.2,1.2,0.6,1.5,1s0.6,0.8,0.6,1.1
		s0.1,0.9,0.1,1.6V234.1z"/>
	<path class="st3" d="M84,226.4v2.3h-4.5v-2.3H84z M84,229.5v14.3h-4.5v-14.3H84z"/>
	<path class="st3" d="M91.3,243.8c-0.6,0.6-0.9,1.1-0.9,1.5c0,0.5,0.3,0.7,0.8,0.7c0.4,0,0.8-0.1,1.2-0.3l0.4,1.1
		c-0.7,0.3-1.3,0.5-1.9,0.5c-0.7,0-1.2-0.2-1.6-0.5s-0.6-0.7-0.6-1.2c0-0.6,0.3-1.2,0.9-1.7c-0.8-0.1-1.6-0.2-2.2-0.5
		c-0.6-0.3-1.1-0.6-1.4-1.1s-0.6-1-0.6-1.5s-0.1-1.2-0.1-2v-4.2c0-0.8,0.1-1.5,0.2-2c0.1-0.6,0.4-1.1,0.8-1.6c0.4-0.5,0.9-0.8,1.6-1
		c0.7-0.2,1.4-0.3,2.3-0.3c1.3,0,2.4,0.2,3.2,0.6c0.8,0.4,1.3,1,1.6,1.8c0.3,0.8,0.4,1.8,0.4,3.1v1.9h-5.6v3.1
		c0,0.7,0.1,1.1,0.2,1.3c0.1,0.2,0.3,0.2,0.5,0.2c0.3,0,0.5-0.1,0.6-0.3c0.1-0.2,0.2-0.6,0.2-1.2v-2.2h4.1v1.1c0,0.8,0,1.4-0.1,1.9
		c-0.1,0.5-0.3,1-0.7,1.5c-0.4,0.5-0.8,0.9-1.3,1.1C92.7,243.6,92.1,243.7,91.3,243.8z M89.7,232.8v1.7H91v-1c0-0.7,0-1.1-0.1-1.4
		c-0.1-0.2-0.2-0.4-0.5-0.4c-0.2,0-0.4,0.1-0.5,0.2S89.7,232.4,89.7,232.8z"/>
	<path class="st3" d="M105.6,234.1h-3.8v-0.8c0-0.7,0-1.1-0.1-1.3c-0.1-0.2-0.3-0.3-0.6-0.3c-0.2,0-0.4,0.1-0.5,0.2
		c-0.1,0.2-0.2,0.4-0.2,0.7c0,0.4,0,0.8,0.1,1c0.1,0.2,0.2,0.4,0.5,0.7c0.3,0.2,0.9,0.6,1.9,1.1c1.3,0.6,2.1,1.2,2.5,1.7
		s0.6,1.3,0.6,2.4c0,1.2-0.2,2-0.5,2.6c-0.3,0.6-0.8,1-1.5,1.4c-0.7,0.3-1.6,0.5-2.6,0.5c-1.1,0-2-0.2-2.8-0.5s-1.3-0.8-1.6-1.4
		c-0.3-0.6-0.4-1.5-0.4-2.7v-0.7h3.8v0.9c0,0.8,0,1.3,0.1,1.5s0.3,0.3,0.6,0.3c0.3,0,0.5-0.1,0.6-0.2c0.1-0.2,0.2-0.5,0.2-1
		c0-0.7-0.1-1.1-0.2-1.3c-0.2-0.2-1-0.7-2.5-1.5c-1.3-0.7-2.1-1.4-2.3-1.9c-0.3-0.6-0.4-1.3-0.4-2.1c0-1.1,0.2-2,0.5-2.5
		c0.3-0.5,0.8-1,1.5-1.3s1.6-0.4,2.5-0.4c0.9,0,1.7,0.1,2.4,0.4c0.7,0.2,1.2,0.6,1.5,1s0.6,0.8,0.6,1.1s0.1,0.9,0.1,1.6V234.1z"/>
	<path class="st3" d="M111.7,227.6v2.2h1.2v2.3h-1.2v7.6c0,0.9,0,1.5,0.1,1.6s0.5,0.2,1.2,0.2v2.3h-1.8c-1,0-1.7,0-2.1-0.1
		c-0.4-0.1-0.8-0.3-1.1-0.6c-0.3-0.3-0.5-0.6-0.6-1c-0.1-0.4-0.1-1.3-0.1-2.7v-7.2h-0.9v-2.3h0.9v-2.2H111.7z"/>
	<path class="st3" d="M127.9,229.5l-1.7,14.3h-4.7c-0.3-1.7-0.6-4-0.9-6.9c-0.1,1.3-0.3,2.5-0.5,3.8l-0.5,3.1h-4.7l-1.8-14.3h3.7
		c0,0.4,0.3,3.1,0.9,8.2c0-0.5,0.4-3.2,1-8.2h3.6l0.9,8.2c0.1-2.4,0.5-5.1,1-8.2H127.9z"/>
	<path class="st3" d="M138.4,234.5v3.5c0,1.3-0.1,2.2-0.2,2.8c-0.1,0.6-0.4,1.2-0.8,1.7c-0.4,0.5-1,0.9-1.6,1.1
		c-0.7,0.2-1.4,0.4-2.3,0.4c-1,0-1.8-0.1-2.4-0.3c-0.7-0.2-1.2-0.5-1.6-1c-0.4-0.4-0.6-0.9-0.8-1.5c-0.2-0.6-0.2-1.5-0.2-2.7v-3.7
		c0-1.3,0.1-2.4,0.4-3.1s0.8-1.3,1.5-1.8s1.7-0.7,2.9-0.7c1,0,1.8,0.1,2.5,0.4c0.7,0.3,1.2,0.7,1.6,1.1s0.6,0.9,0.8,1.4
		S138.4,233.5,138.4,234.5z M134,233.5c0-0.7,0-1.2-0.1-1.4c-0.1-0.2-0.2-0.3-0.5-0.3s-0.4,0.1-0.5,0.3c-0.1,0.2-0.1,0.6-0.1,1.4
		v6.4c0,0.7,0,1.1,0.1,1.3c0.1,0.2,0.3,0.3,0.5,0.3c0.3,0,0.4-0.1,0.5-0.3c0.1-0.2,0.1-0.6,0.1-1.2V233.5z"/>
</g>
<g class="st2">
	<path class="st3" d="M60.6,246.4v13.9h2.8v3.5h-7.3v-17.4H60.6z"/>
	<path class="st3" d="M68.8,246.4v2.3h-4.5v-2.3H68.8z M68.8,249.5v14.3h-4.5v-14.3H68.8z"/>
	<path class="st3" d="M74.9,247.6v2.2h1.2v2.3h-1.2v7.6c0,0.9,0,1.5,0.1,1.6s0.5,0.2,1.2,0.2v2.3h-1.8c-1,0-1.7,0-2.1-0.1
		c-0.4-0.1-0.8-0.3-1.1-0.6c-0.3-0.3-0.5-0.6-0.6-1c-0.1-0.4-0.1-1.3-0.1-2.7v-7.2h-0.9v-2.3h0.9v-2.2H74.9z"/>
	<path class="st3" d="M86.9,256.9h-5.6v3.1c0,0.6,0,1.1,0.1,1.2c0.1,0.2,0.3,0.3,0.5,0.3c0.3,0,0.5-0.1,0.7-0.4
		c0.1-0.2,0.2-0.7,0.2-1.4v-1.9h4.1v1.1c0,0.9-0.1,1.6-0.2,2c-0.1,0.5-0.4,1-0.8,1.5s-0.9,0.9-1.6,1.2c-0.6,0.3-1.4,0.4-2.4,0.4
		c-0.9,0-1.7-0.1-2.4-0.4c-0.7-0.3-1.2-0.6-1.6-1.1c-0.4-0.5-0.7-1-0.8-1.5c-0.2-0.6-0.2-1.4-0.2-2.4v-4.2c0-1.2,0.2-2.2,0.5-2.9
		c0.3-0.7,0.9-1.3,1.7-1.7c0.8-0.4,1.6-0.6,2.6-0.6c1.2,0,2.2,0.2,3,0.7c0.8,0.5,1.3,1.1,1.7,1.8c0.3,0.8,0.5,1.8,0.5,3.2V256.9z
		 M82.5,254.6v-1c0-0.7,0-1.2-0.1-1.4c-0.1-0.2-0.2-0.3-0.5-0.3c-0.3,0-0.5,0.1-0.6,0.3c-0.1,0.2-0.1,0.7-0.1,1.5v1H82.5z"/>
	<path class="st3" d="M102.3,249.5l-1.7,14.3h-4.7c-0.3-1.7-0.6-4-0.9-6.9c-0.1,1.3-0.3,2.5-0.5,3.8l-0.5,3.1h-4.7l-1.8-14.3h3.7
		c0,0.4,0.3,3.1,0.9,8.2c0-0.5,0.4-3.2,1-8.2h3.6l0.9,8.2c0.1-2.4,0.5-5.1,1-8.2H102.3z"/>
	<path class="st3" d="M111.9,254.1h-3.8v-0.8c0-0.7,0-1.1-0.1-1.3c-0.1-0.2-0.3-0.3-0.6-0.3c-0.2,0-0.4,0.1-0.5,0.2
		c-0.1,0.2-0.2,0.4-0.2,0.7c0,0.4,0,0.8,0.1,1c0.1,0.2,0.2,0.4,0.5,0.7s0.9,0.6,1.9,1.1c1.3,0.6,2.1,1.2,2.5,1.7
		c0.4,0.5,0.6,1.3,0.6,2.4c0,1.2-0.2,2-0.5,2.6c-0.3,0.6-0.8,1-1.5,1.4c-0.7,0.3-1.6,0.5-2.6,0.5c-1.1,0-2-0.2-2.8-0.5
		s-1.3-0.8-1.6-1.4c-0.3-0.6-0.4-1.5-0.4-2.7v-0.7h3.8v0.9c0,0.8,0,1.3,0.1,1.5s0.3,0.3,0.6,0.3c0.3,0,0.5-0.1,0.6-0.2
		c0.1-0.2,0.2-0.5,0.2-1c0-0.7-0.1-1.1-0.2-1.3c-0.2-0.2-1-0.7-2.5-1.5c-1.3-0.7-2.1-1.4-2.3-1.9c-0.3-0.6-0.4-1.3-0.4-2.1
		c0-1.1,0.2-2,0.5-2.5c0.3-0.5,0.8-1,1.5-1.3s1.6-0.4,2.5-0.4c0.9,0,1.7,0.1,2.4,0.4c0.7,0.2,1.2,0.6,1.5,1s0.6,0.8,0.6,1.1
		s0.1,0.9,0.1,1.6V254.1z"/>
	<path class="st3" d="M122.7,249.5l-1.8,5.7l2.3,8.6h-4.2l-1.4-6.2l0,6.2h-4.3v-17.4h4.3l0,7.3l1.4-4.2H122.7z"/>
	<path class="st3" d="M128.4,246.4v2.3h-4.5v-2.3H128.4z M128.4,249.5v14.3h-4.5v-14.3H128.4z"/>
	<path class="st3" d="M139.8,256.9h-5.6v3.1c0,0.6,0,1.1,0.1,1.2c0.1,0.2,0.3,0.3,0.5,0.3c0.3,0,0.5-0.1,0.7-0.4
		c0.1-0.2,0.2-0.7,0.2-1.4v-1.9h4.1v1.1c0,0.9-0.1,1.6-0.2,2s-0.4,1-0.8,1.5s-0.9,0.9-1.6,1.2c-0.6,0.3-1.4,0.4-2.4,0.4
		c-0.9,0-1.7-0.1-2.4-0.4c-0.7-0.3-1.2-0.6-1.6-1.1c-0.4-0.5-0.7-1-0.8-1.5c-0.2-0.6-0.2-1.4-0.2-2.4v-4.2c0-1.2,0.2-2.2,0.5-2.9
		c0.3-0.7,0.9-1.3,1.7-1.7c0.8-0.4,1.6-0.6,2.6-0.6c1.2,0,2.2,0.2,3,0.7c0.8,0.5,1.3,1.1,1.7,1.8c0.3,0.8,0.5,1.8,0.5,3.2V256.9z
		 M135.4,254.6v-1c0-0.7,0-1.2-0.1-1.4c-0.1-0.2-0.2-0.3-0.5-0.3c-0.3,0-0.5,0.1-0.6,0.3c-0.1,0.2-0.1,0.7-0.1,1.5v1H135.4z"/>
</g>
<g class="st2">
	<path class="st4" d="M169,29.1v2.7h-8.7l0-2.3c2.6-4.2,4.1-6.8,4.6-7.8c0.5-1,0.7-1.8,0.7-2.3c0-0.4-0.1-0.8-0.2-1
		s-0.4-0.3-0.7-0.3s-0.5,0.1-0.7,0.4s-0.2,0.7-0.2,1.4v1.5h-3.5v-0.6c0-0.9,0-1.6,0.1-2.1c0.1-0.5,0.3-1,0.7-1.5
		c0.4-0.5,0.8-0.9,1.4-1.1c0.6-0.3,1.3-0.4,2.1-0.4c1.6,0,2.8,0.4,3.6,1.2c0.8,0.8,1.2,1.8,1.2,3c0,0.9-0.2,1.9-0.7,2.9
		c-0.5,1-1.8,3.2-4,6.4H169z"/>
	<path class="st4" d="M178.1,22.8c0.6,0.2,1,0.6,1.3,1.1s0.5,1.6,0.5,3.3c0,1.3-0.1,2.2-0.4,2.8c-0.2,0.6-0.7,1.1-1.4,1.5
		c-0.7,0.4-1.7,0.6-2.9,0.6c-1.2,0-2.1-0.2-2.8-0.6s-1.2-0.9-1.5-1.5c-0.3-0.6-0.4-1.6-0.4-3.1c0-1,0.1-1.8,0.2-2.5s0.6-1.3,1.4-1.7
		c-0.5-0.2-0.9-0.6-1.1-1.1s-0.4-1.2-0.4-1.9c0-1.4,0.4-2.4,1.1-3.1c0.8-0.7,1.9-1,3.4-1c1.7,0,2.9,0.4,3.6,1.1c0.7,0.7,1,1.8,1,3.1
		c0,0.9-0.1,1.5-0.3,1.8C179.2,22,178.7,22.4,178.1,22.8z M175.9,26c0-0.6-0.1-1-0.2-1.2c-0.1-0.2-0.3-0.3-0.6-0.3
		c-0.3,0-0.4,0.1-0.6,0.3c-0.1,0.2-0.2,0.6-0.2,1.2V28c0,0.7,0.1,1.1,0.2,1.3s0.3,0.3,0.6,0.3c0.3,0,0.5-0.1,0.6-0.3
		s0.1-0.6,0.1-1.3V26z M175.8,19.4c0-0.5,0-0.9-0.1-1.1c-0.1-0.2-0.3-0.3-0.5-0.3c-0.3,0-0.4,0.1-0.5,0.3c-0.1,0.2-0.1,0.5-0.1,1
		v1.2c0,0.5,0.1,0.8,0.2,1c0.1,0.2,0.3,0.3,0.5,0.3c0.3,0,0.4-0.1,0.5-0.3c0.1-0.2,0.1-0.5,0.1-1.1V19.4z"/>
</g>
</svg>
