<?xml version="1.0" encoding="utf-8"?>
<!-- Generator: Adobe Illustrator 26.0.3, SVG Export Plug-In . SVG Version: 6.00 Build 0)  -->
<svg version="1.1" id="Слой_1" xmlns="http://www.w3.org/2000/svg" xmlns:xlink="http://www.w3.org/1999/xlink" x="0px" y="0px"
	 viewBox="0 0 195.6 280.6" style="enable-background:new 0 0 195.6 280.6;" xml:space="preserve">
<style type="text/css">
	.st0{clip-path:url(#SVGID_00000023268866478107038260000012444679503813476277_);fill:#424242;}
	.st1{clip-path:url(#SVGID_00000023268866478107038260000012444679503813476277_);}
	.st2{fill-rule:evenodd;clip-rule:evenodd;fill:#A91916;}
	.st3{fill-rule:evenodd;clip-rule:evenodd;fill:#3D82C3;stroke:#FFFFFF;stroke-width:1.46;}
	.st4{fill:#424242;}
	.st5{fill:#E30D13;}
	.st6{fill:url(#_159040976_00000017507722006833584670000010105996630025431710_);}
	.st7{fill:url(#_158281424_00000008118124668265276380000009951451526824097955_);}
	.st8{fill:url(#_158295352-4_00000167390337158788492340000008774202195163818682_);}
	.st9{fill:#FBBA10;}
	.st10{fill:url(#_158295352_00000074405493239522367940000017776337374106759300_);}
	.st11{fill-rule:evenodd;clip-rule:evenodd;fill:#424242;}
	.st12{fill-rule:evenodd;clip-rule:evenodd;fill:#FFFFFF;}
	.st13{fill:#FFFFFF;}
	.st14{fill:none;stroke:#FFFFFF;stroke-width:1.22;}
	.st15{fill-rule:evenodd;clip-rule:evenodd;fill:#029340;}
	.st16{fill-rule:evenodd;clip-rule:evenodd;fill:#86BD31;}
	.st17{fill:#BA9850;}
	.st18{fill:#E52521;}
	.st19{fill-rule:evenodd;clip-rule:evenodd;fill:#BA9850;}
	.st20{clip-path:url(#SVGID_00000023268866478107038260000012444679503813476277_);fill:#FFFFFF;}
	.st21{clip-path:url(#SVGID_00000023268866478107038260000012444679503813476277_);enable-background:new    ;}
	.st22{font-family:'Impact';}
	.st23{font-size:24.77px;}
	.st24{clip-path:url(#SVGID_00000023268866478107038260000012444679503813476277_);fill:#3D82C3;}
	.st25{font-size:20px;}
</style>
<g>
	<defs>
		<rect id="SVGID_1_" x="0" y="0" width="195.6" height="280.6"/>
	</defs>
	<clipPath id="SVGID_00000016057272161393213220000013510535002129030016_">
		<use xlink:href="#SVGID_1_"  style="overflow:visible;"/>
	</clipPath>
	
		<rect x="-9.2" y="-8.4" style="clip-path:url(#SVGID_00000016057272161393213220000013510535002129030016_);fill:#424242;" width="214" height="297.9"/>
	<g id="layer1" style="clip-path:url(#SVGID_00000016057272161393213220000013510535002129030016_);">
		<path id="path3029" class="st2" d="M71,203c-1.1,0-2-0.9-2-2v-2c0-1.1,0.9-2,2-2h2v6H71z M71,195.1c-2.2,0-4,1.8-4,4v2
			c0,2.2,1.8,4,4,4h4v-9.9L71,195.1z M79,205h-2v-9.9h2V205z M83,205h-2v-9.9h2l4,6.2v-6.2h2v9.9h-2l-4-6.2V205z M112.7,205h-6v-2h4
			v-2h-4v-2h4v-2h-4v-2h6V205z M120.7,205h-2v-7.9h-4v-2h6V205z M99.8,197.1h-2c-1.6-0.2-3.1,0.9-3.4,2.6c-0.2,1.6,0.9,3.1,2.6,3.4
			c0.3,0,0.5,0,0.8,0h2v-2h-2c-0.6,0-1-0.4-1-1s0.4-1,1-1h2V197.1z M97.8,207c-3.8,0-6.9-3.1-6.9-6.9c0-3.8,3.1-6.9,6.9-6.9
			c3.8,0,6.9,3.1,6.9,6.9c0,0,0,0,0,0C104.8,203.9,101.7,207,97.8,207C97.8,207,97.8,207,97.8,207L97.8,207z M102.8,200.1
			c0-2.8-2.2-5-5-5s-5,2.2-5,5s2.2,5,5,5C100.6,205,102.8,202.7,102.8,200.1L102.8,200.1z"/>
		<path id="щит" class="st3" d="M97.8,133.1c-3.4,5.8-8.7,9.4-15.2,11.7c-12.5,4.6-26.3,5.6-34.5,17.9
			c-4.8,7.2-6.4,16.1-5.9,26.3c4.2,4.4,6.8,11.2,6.8,19s-2.7,14.6-6.8,18.9v31.8c18.1,5.2,36.8,7.9,55.6,8c18.8-0.1,37.5-2.8,55.6-8
			v-31.9c-4.1-4.4-6.8-11.2-6.8-18.9s2.7-14.6,6.8-19c0.4-10.2-1.1-19.1-5.9-26.3c-8.2-12.3-22-13.3-34.5-17.9
			C106.6,142.4,101.2,138.9,97.8,133.1L97.8,133.1z"/>
		<path id="_158253176" class="st4" d="M103.4,233.4l-1.7-0.9c1.4-1.5,5-2.4,6.3-0.1C106.3,231.7,104.9,232.2,103.4,233.4
			L103.4,233.4z"/>
		<path id="_48675496" class="st5" d="M107.5,232c-1.2-1.3-4.2-0.7-5.3,0.5l1.4,0.6C104.6,232.1,106.1,231.7,107.5,232z"/>
		<path id="_158281688" class="st4" d="M106.1,230.9c-1.2-0.1-3.3,0.2-4.3,1.4l-1.2,0.3l-0.7-1.3
			C101.7,229.3,104.2,228.7,106.1,230.9z"/>
		
			<linearGradient id="_159040976_00000121992722888135051600000016866752458961908411_" gradientUnits="userSpaceOnUse" x1="-704.408" y1="129.6413" x2="-704.8781" y2="130.0813" gradientTransform="matrix(-3.54 0 0 -3.54 -2390.8999 689.961)">
			<stop  offset="0" style="stop-color:#F4E600"/>
			<stop  offset="1" style="stop-color:#FBBA10"/>
		</linearGradient>
		<path id="_159040976" style="fill:url(#_159040976_00000121992722888135051600000016866752458961908411_);" d="M100.2,231.3
			l0.5,0.9l0.8-0.1c0.7-1.2,2.8-1.5,3.8-1.6C103.7,229.1,101.6,229.9,100.2,231.3z"/>
		<path id="_158281376" class="st4" d="M103.1,237.2l-2.8-4.9c1.4-0.4,2.9-0.1,4.1,0.8c0.9,0.9,2.4,0.9,3.4,0
			C108.4,236.7,105.6,237.8,103.1,237.2L103.1,237.2z"/>
		
			<linearGradient id="_158281424_00000063633238911592863410000007154473253624841348_" gradientUnits="userSpaceOnUse" x1="-646.6129" y1="251.5542" x2="-646.963" y2="251.1142" gradientTransform="matrix(-4.87 0 0 -4.87 -3042.8699 1461.1841)">
			<stop  offset="0" style="stop-color:#F4E600"/>
			<stop  offset="1" style="stop-color:#FBBA10"/>
		</linearGradient>
		<path id="_158281424" style="fill:url(#_158281424_00000063633238911592863410000007154473253624841348_);" d="M107.6,233.6
			c-1.1,0.7-2.5,0.6-3.4-0.3c-0.9-0.7-2.1-1-3.2-0.8l2.4,4.4c0.5,0.1,1.1,0.1,1.6,0.1l0,0c1.6-0.2,2.9-1.6,2.7-3.3
			C107.6,233.7,107.6,233.6,107.6,233.6z"/>
		<path id="_158221176" class="st4" d="M72.9,175.8c-0.3-0.2-0.6-0.6-0.6-1c-1.4-1-1.1-2.5-0.2-3.7l0.1,0.3c0.1,0.8,0.6,1.4,1.3,1.8
			c0-0.1,0.1-0.2,0.1-0.2c0.9-0.4,1.9,0,2.3,0.9c0,0.1,0.1,0.2,0.1,0.3c0.5,0.2,1,0.5,1.4,0.7l-0.2-0.3l0,0
			c-0.4-0.4-0.7-0.6-0.8-1.3c0-0.3,0-0.6,0.1-0.9c-0.7-1.3-0.1-2.4,1.3-3.2c-0.2,0.8-0.3,1.7,0.5,2.3l0.1-0.1
			c0.6-0.1,1.2,0.2,1.5,0.7c0.4,0.5,0.4,1.2,0.1,1.8l0.8,1.3c0.6,0.9,1,1.1,1.9,0.4c0.1-0.9,0.8-1.5,1.7-1.5c0.4,0,0.8,0.3,1.1,0.6
			c0.8-0.2,1.6-0.7,2.1-1.4c0.6,1.2,0.1,2.6-1,3.2c-0.2,1.3-1.4,1.4-2.6,1.4c-0.6,0-1.2,0.4-0.8,1l3,4.8l-2.9,1.3l-3.6-5.4
			c-0.8-1.2-2.4-1-3.7-0.8c-1,0.1-2.7,0.5-3.5-0.3c-1.9,0-2.6-1.2-2.6-2.9c0.6,0.7,1.5,1.1,2.4,0.9
			C72.3,176.2,72.6,175.9,72.9,175.8L72.9,175.8z"/>
		
			<radialGradient id="_158295352-4_00000029006706829683925630000002541957226977266569_" cx="-682.5845" cy="213.2522" r="4.05" gradientTransform="matrix(2.77 0 0 -2.77 1970.58 767.5167)" gradientUnits="userSpaceOnUse">
			<stop  offset="0" style="stop-color:#F4E600"/>
			<stop  offset="1" style="stop-color:#FBBA10"/>
		</radialGradient>
		<path id="_158295352-4" style="fill:url(#_158295352-4_00000029006706829683925630000002541957226977266569_);" d="M72.6,176.5
			c0.3,0.5,0.3,1.2,0.1,1.7c0.5,0.6,1.9,0.4,3.2,0.2s3.1-0.4,4,0.9l3.5,5.2l2.2-1.1l-2.8-4.4c-0.6-0.9,0.2-1.5,1.1-1.5
			s2-0.1,2.2-1.1c-0.6-0.3-1-0.9-1-1.6c-0.5-0.5-1.3-0.5-1.8-0.1c-0.3,0.2-0.4,0.6-0.4,0.9c-1,0.9-1.7,0.8-2.4-0.4l-0.9-1.5
			c0.3-0.5,0.3-1.1,0-1.6c-0.2-0.4-0.7-0.6-1.1-0.6c-0.4,0.5-1,0.8-1.7,0.8c-0.1,0.2-0.1,0.5-0.1,0.8c0.1,0.7,0.6,1,1,1.5
			c0.4,0.5,0.8,1.2,1,1.8l-0.3,0.1c-0.1-0.4-0.3-0.7-0.5-1.1c-0.7-0.5-1.4-0.9-2.1-1.2c-0.3-0.9-0.9-1.4-1.8-1.1
			c-0.2,0.6-0.6,1.1-1.2,1.4c0,0.5,0.3,0.9,0.8,1c0.3,0.1,0.6,0.2,0.9,0.3c0.7,0.3,1.4,0.7,2.1,1.1l-0.3,0.2c-0.6-0.4-1.2-0.7-1.9-1
			C73.7,176,72.9,175.7,72.6,176.5L72.6,176.5z"/>
		<path id="_48676072" class="st9" d="M72.4,178.1c0.2-0.4,0.2-0.9,0-1.3c-0.7,0.1-1.5,0-2.1-0.4C70.4,177.4,71.3,178.2,72.4,178.1
			L72.4,178.1z M72.4,174.4c0.4-0.2,0.7-0.5,0.9-0.9c-0.6-0.4-1.1-1-1.3-1.7C71.5,172.7,71.6,173.8,72.4,174.4L72.4,174.4z
			 M76.7,172.1c0.5,0.1,1-0.1,1.3-0.4c-0.6-0.4-0.8-1.2-0.7-1.9C76.5,170.3,76.2,171.3,76.7,172.1L76.7,172.1z M85.4,175
			c0,0.5,0.4,1,0.9,1.2c0.8-0.5,1.2-1.4,1-2.3C86.8,174.5,86.2,174.8,85.4,175z"/>
		<path id="_158207592" class="st4" d="M122.7,175.8c0.3-0.2,0.6-0.6,0.6-1c1.4-1,1.1-2.5,0.2-3.7l-0.1,0.3l0,0
			c-0.1,0.8-0.6,1.4-1.3,1.8c0-0.1-0.1-0.1-0.1-0.2c-0.9-0.4-1.9,0-2.3,0.9c0,0.1-0.1,0.2-0.1,0.3c-0.5,0.2-1,0.5-1.4,0.7l0.2-0.3
			l0,0c0.4-0.4,0.7-0.6,0.8-1.3c0.1-0.3,0-0.6-0.1-0.9c0.7-1.3,0.1-2.4-1.3-3.2c0.2,0.8,0.3,1.7-0.5,2.3c0,0,0,0-0.1-0.1
			c-0.6-0.1-1.2,0.2-1.5,0.7c-0.4,0.5-0.4,1.2-0.1,1.8l-0.8,1.3c-0.6,0.9-1,1.1-1.9,0.4c-0.1-0.9-0.8-1.5-1.7-1.5
			c-0.4,0-0.9,0.3-1.1,0.6c-0.8-0.2-1.6-0.7-2.1-1.4c-0.6,1.2-0.1,2.6,1,3.2c0.2,1.3,1.4,1.4,2.6,1.4c0.6,0,1.2,0.4,0.8,1l-3,4.8
			l2.8,1.3l3.6-5.4c0.8-1.2,2.4-1,3.7-0.8c1,0.1,2.7,0.5,3.4-0.3c1.9,0,2.6-1.2,2.6-2.9c-0.6,0.7-1.5,1.1-2.4,0.9
			C123.2,176.1,122.9,175.9,122.7,175.8L122.7,175.8z"/>
		<path id="_158281304" class="st9" d="M123.2,178.1c-0.2-0.4-0.2-0.9,0-1.3c0.7,0.1,1.5,0,2.1-0.4
			C125.2,177.4,124.3,178.2,123.2,178.1L123.2,178.1z M123.3,174.4c-0.4-0.2-0.8-0.5-1-0.9c0.6-0.4,1.1-1,1.3-1.7
			C124.1,172.7,124,173.8,123.3,174.4z M119,172.1c-0.5,0.1-1-0.1-1.3-0.4c0.6-0.4,0.8-1.2,0.7-1.9
			C119.2,170.3,119.4,171.3,119,172.1z M110.2,175c0,0.5-0.4,1-0.9,1.2c-0.8-0.5-1.2-1.4-1-2.3C108.8,174.5,109.4,174.8,110.2,175z"
			/>
		
			<radialGradient id="_158295352_00000009569143007328385290000017976652214883727019_" cx="-633.6955" cy="213.2522" r="4.05" gradientTransform="matrix(-2.77 0 0 -2.77 -1639.03 767.5167)" gradientUnits="userSpaceOnUse">
			<stop  offset="0" style="stop-color:#F4E600"/>
			<stop  offset="1" style="stop-color:#FBBA10"/>
		</radialGradient>
		<path id="_158295352" style="fill:url(#_158295352_00000009569143007328385290000017976652214883727019_);" d="M123,176.5
			c-0.3,0.5-0.3,1.2-0.1,1.7c-0.5,0.6-1.9,0.4-3.2,0.2s-3.1-0.4-4,0.9l-3.5,5.2l-2.2-1l2.8-4.4c0.6-0.9-0.2-1.5-1.1-1.5
			s-2-0.1-2.2-1.1c0.6-0.3,1-0.9,1-1.6c0.5-0.5,1.3-0.5,1.8-0.1c0.3,0.2,0.4,0.6,0.4,0.9c1,0.9,1.7,0.8,2.4-0.4l0.9-1.5
			c-0.3-0.5-0.3-1.1,0-1.6c0.2-0.4,0.7-0.6,1.1-0.6c0.4,0.5,1.1,0.8,1.7,0.8c0.1,0.3,0.1,0.5,0.1,0.8c-0.1,0.7-0.6,1-1,1.5
			c-0.4,0.5-0.8,1.2-1,1.8l0.3,0.1c0.1-0.4,0.3-0.7,0.5-1.1c0.7-0.5,1.4-0.9,2.1-1.2c0.1-0.8,0.9-1.3,1.6-1.2c0.1,0,0.1,0,0.2,0.1
			c0.2,0.6,0.6,1.1,1.2,1.4c0,0.5-0.3,0.9-0.8,1c-0.3,0.1-0.6,0.2-0.9,0.3c-0.7,0.3-1.4,0.7-2.1,1.1l0.3,0.2c0.6-0.4,1.2-0.7,1.9-1
			c0.5-0.2,1.3-0.5,1.6,0.2L123,176.5z"/>
		<path id="path40" class="st11" d="M103.5,227c-0.2-0.3-0.5-0.6-0.9-0.6c0.7-1.2,1-2.7,2.1-3.1c-0.2-0.4-0.6-0.7-1-0.7
			c1.4-1.3,2.4-3.7,4.3-3.5c1.4,0.1,2.4,0.9,0.9,2.1c-1.7,1.4-2.4,3.6-0.9,5.5c1.5,1.8,3.3,3.4,5.3,4.6c1.2,0.8,2.4,1.9,2.2,3.7
			c0.7-0.3,1.2-0.9,1.3-1.7c4.2,2.5,7.8,6.1,7.7,8.3c0.7-0.5,1.1-1.3,1.1-2.1c5.1,4.1,9.4,8.6,11.4,12.6c0.7,1.4,1.2,1.2,1.6,0.1
			c1.1-2.5,0.1-5.5-1.2-8c-1.6-3-3.5-5.8-5.8-8.2c2.8,1,5.1,2.9,6.8,5.4c1,1.4,1.6,0.8,1.6-0.5c-0.2-4.2-3.5-8.8-8.2-13.5
			c1.9,0.7,3.6,1.8,5.1,3.1c1.3,1.3,1.9,0.7,1.4-1c-1.5-5.1-6-8.2-9.8-11.3c2,0.4,3.8,1.1,5.6,2.2c0.8,0.5,1.4,0.7,0.8-1
			c-1.5-4.1-5.9-6.3-10.8-8.1c1.3-0.3,2.6-0.3,3.8-0.1c0.9,0.1,1.5,0.2,0.5-1.2c-2.3-3.1-7.2-3.7-12-4.6c1.9-0.3,3.8-0.2,5.7,0.1
			c0.6,0.1,0.7-0.3,0.2-0.9c-2.5-3.2-6.8-2.6-10.5-2.9c0.5-1.1,1.5-1.6,2-2.4c-2.9-0.4-5.8,1.2-8.8-0.3c-1.6-0.8-1-4.2,1.1-3
			c2.3,1.2,4.1,0.8,5.3-1.4c1.5-2.6,2.7-5.7,4.1-6.1l-1-0.6c0.5-0.9,1.4-1.7,2.4-2.1c-0.7-0.6-1.6-0.9-2.5-0.9
			c0-0.7,0.1-1.5,0.3-2.2c-1,0-2,0.2-3,0.6c-0.4-1.3-1.2-2.4-2.2-3.3c-0.1,0.9-0.4,1.7-1,2.4c-0.4-0.8-1.1-1.5-2-1.8
			c0.1,0.9,0,1.8-0.3,2.7l-0.8-0.7c-0.1,1.2-0.5,2.4-1.2,3.4c-1.2,1.3-1.9,0.5-2-0.6c0-3.9,0.4-7.4,2.5-9.9
			c-0.8-0.3-1.6-0.5-2.5-0.4c1.4-2.8,3.7-5.1,6.5-6.5c-1-0.6-2.1-1.1-3.2-1.3c2.5-1.6,6.8-1.5,10.7-0.8c-1.3-4.2-5.9-6.4-13.1-6.6
			c1.4-1.8,3.4-3,5.7-3.4c-1.3-2-5.3-2.6-8.8-1.5c0.8-1.1,1.8-2.1,3-2.7c-2.8-2.6-4.6-6.1-5-9.8c-0.4,3.8-2.2,7.3-5,9.9
			c1.2,0.7,2.2,1.6,3,2.7c-3.5-1.1-7.5-0.5-8.8,1.5c2.2,0.5,4.6,1.6,5.7,3.4c-7.2,0.1-11.9,2.3-13.1,6.6c3.8-0.7,8.1-0.8,10.7,0.8
			c-1.1,0.3-2.2,0.7-3.2,1.3c2.8,1.4,5.1,3.7,6.5,6.5c-0.9-0.1-1.7,0.1-2.5,0.4c2.1,2.5,2.5,5.9,2.5,9.9c0,1.1-0.8,2-2,0.6
			c-0.7-1-1.1-2.2-1.2-3.4l-0.8,0.7c-0.3-0.9-0.4-1.8-0.3-2.7c-0.9,0.3-1.6,1-2,1.8c-0.5-0.7-0.9-1.5-1-2.4c-1,0.9-1.7,2-2.1,3.2
			c-1-0.3-2-0.5-3-0.6c0.2,0.7,0.4,1.4,0.3,2.2c-0.9,0-1.8,0.3-2.5,0.9c1,0.4,1.8,1.1,2.4,2.1c-0.3,0.2-0.7,0.4-1,0.6
			c1.4,0.4,2.6,3.5,4.1,6.1c1.3,2.1,3,2.6,5.3,1.4c2.2-1.1,2.8,2.3,1.1,3c-3,1.4-5.9-0.1-8.8,0.3c0.4,0.9,1.5,1.4,2,2.4
			c-3.8,0.4-8-0.3-10.5,2.9c-0.5,0.6-0.4,1,0.2,0.9c1.9-0.3,3.8-0.4,5.7-0.1c-4.8,0.8-9.7,1.5-12,4.6c-1.1,1.4-0.5,1.4,0.5,1.2
			c1.3-0.2,2.6-0.2,3.8,0.1c-4.9,1.8-9.3,4-10.8,8.1c-0.6,1.7,0,1.5,0.8,1c1.7-1,3.6-1.8,5.5-2.2c-3.8,3.1-8.3,6.2-9.8,11.3
			c-0.5,1.6,0.1,2.3,1.4,1c1.5-1.3,3.2-2.4,5.1-3.1c-4.8,4.7-8,9.3-8.2,13.5c-0.1,1.3,0.6,1.9,1.6,0.5c1.6-2.5,4-4.4,6.7-5.4
			c-2.3,2.5-4.2,5.2-5.8,8.2c-1.3,2.5-2.3,5.4-1.2,8c0.5,1.1,0.9,1.3,1.7-0.1c2.1-4,6.3-8.4,11.4-12.6c0,0.8,0.4,1.6,1.1,2.1
			c-0.2-2.2,3.4-5.8,7.7-8.3c0.1,0.7,0.6,1.4,1.3,1.7c-0.2-1.8,1-2.9,2.2-3.7c2-1.2,3.8-2.8,5.3-4.6c1.5-1.9,0.7-4.2-0.9-5.5
			c-1.5-1.2-0.5-2.1,0.9-2.1c1.9,0,3.4,1.6,3.4,3.5c0,0,0,0,0,0.1c-0.4-0.1-0.9,0.1-1.2,0.4c0.9,0.7,0.7,2.2,1,3.6
			c-0.4,0-0.7,0.1-1,0.3c0.5,0.4,0.8,1,0.9,1.7c0.8,2.6,0.4,5.3,2.2,7.5c-1.5,0.9-2.5,2.2-2.3,3.9c1.7-0.6,3.6-0.7,5.4-0.3
			c4.3,1,6.7-0.6,8-2.6c-1.2-0.9-0.9-1.9-1.4-3.1c-0.4-1.3-1.4-2.3-2.6-2.8C101.6,230.2,102.5,227.3,103.5,227L103.5,227z"/>
		<circle id="circle42" class="st5" cx="101.2" cy="236" r="0.9"/>
		<path id="path44" class="st12" d="M97.8,154.7c0.5-1.3,1.4-2.5,2.6-3.2c-1.3-1.2-2.2-2.8-2.6-4.5c-0.4,1.7-1.3,3.3-2.6,4.5
			C96.4,152.2,97.3,153.3,97.8,154.7z M97.8,163.2c1.8-3.2,4.2-5.9,7.6-6.8c-2.2-1.3-5.8-0.2-7.6,2.2c-1.9-2.3-5.1-3.4-7.6-2.2
			C93.7,157.3,96,160,97.8,163.2z M97.8,165.5c4.4-4,11.4-5.3,15.6-1c-6-0.6-11.5,0.9-15.6,6.5c-4.1-5.6-9.6-7.1-15.6-6.5
			C86.4,160.2,93.4,161.5,97.8,165.5z M97.8,172.4c2.2-2.6,4.4-3.9,7.2-3.4c-3.3,2.3-5.9,5.6-7.2,9.4c-1.4-3.8-3.9-7.1-7.2-9.4
			C93.4,168.4,95.6,169.8,97.8,172.4z"/>
		<path id="path46" class="st13" d="M102.2,237c-0.9,0.6-2.2,0.6-3-0.2l0.2-0.6c0.7,0.7,1.7,0.8,2.6,0.3L102.2,237L102.2,237z"/>
		<path id="path48" class="st14" d="M125.5,237c-0.5-1.5-1.3-2.9-2.5-4c1.2,0.1,2.3-0.1,3.4-0.5c0.2-2-1.7-3.8-3-5.6
			c1.2-0.6,2.6-1,3.4-2.2c-1.3-2.6-3.3-2.9-5-3.9c0.9-1,1.9-1.8,2.1-3.4c-1.2-1.4-3-1.6-4.7-2c0.5-1.3,1.3-2.5,1-3.9
			c-1.8-0.9-3.1-0.4-4.5-0.4c0.1-1.1,0.1-2.3-0.2-3.4c-1.4-0.2-2.8-0.2-4.2,0.2c0.1-1.2,0-2.3-0.4-3.5c-1.5-0.4-3.2-0.1-4.4,1
			 M116.8,231.7c0-0.6-0.2-1.2-0.7-1.6c1.1-0.2,2.1-0.8,3-1.5c-0.3-1.3-0.9-2.4-1.8-3.4c1-0.5,2-0.8,2.2-1.6c-0.3-1.1-1.6-2-2.9-2.9
			c0.5-0.8,0.8-1.6,0.9-2.5c-1.1-1.1-2.2-0.9-3.4-0.9c0.4-1,0.6-2.1,0.6-3.2c-0.9-0.5-2-0.7-3-0.6c0.1-1.1,0-2.2-0.3-3.2
			c-1.1-0.2-2.2,0.1-3.2,0.7c-0.1-1-0.3-1.9-0.7-2.8c-1.2,0.1-2.2,1-2.6,2.1 M105.3,218.4c-1.1,0.1-2.2,0.5-3.2,1.1
			c-0.3-1-0.9-1.9-1.7-2.5c-1,0.2-2,1.2-2.9,2c-0.8-0.8-1.8-1.5-2.8-2c-0.7,0.6-1.4,1.4-1.8,2.2c-0.5-0.5-1.3-0.8-2-0.7
			 M102.4,223.2c-0.7-0.1-1.3,0.1-1.8,0.5c-0.4-0.6-1-1.1-1.6-1.6c-0.8,0.3-1.4,0.8-2,1.4c-0.4-0.6-1-1-1.7-1.3
			c-0.6,0.4-1.2,0.9-1.7,1.4c-0.4-0.3-0.9-0.5-1.4-0.5 M101.7,226.9c-0.7,0-1.4,0.2-2,0.6c-0.5-0.5-1.1-0.9-1.7-1.2
			c-0.7,0.3-1.3,0.8-1.8,1.3c-0.5-0.5-1.1-0.9-1.7-1.2c-0.6,0.4-1.2,0.9-1.7,1.5c-0.2-0.4-0.7-0.5-1.1-0.5 M99,230.2
			c-0.2-0.2-0.5-0.3-0.7-0.4c-0.4,0.1-0.8,0.6-1.3,1.2c-0.5-0.5-1.2-0.8-1.9-0.9c-0.6,0.4-1,1-1.1,1.7 M78.8,231.8
			c0-0.6,0.2-1.2,0.7-1.6c-1.1-0.2-2.1-0.8-3-1.5c0.3-1.3,0.9-2.4,1.8-3.4c-1-0.5-2-0.8-2.2-1.6c0.3-1.1,1.6-2,2.9-2.9
			c-0.5-0.8-0.8-1.6-0.9-2.5c1.1-1.1,2.2-0.9,3.4-0.9c-0.4-1-0.6-2.1-0.6-3.2c0.9-0.5,2-0.7,3-0.6c-0.1-1.1,0-2.2,0.3-3.2
			c1.1-0.2,2.2,0.1,3.2,0.7c0.1-1,0.3-1.9,0.6-2.8c1.2,0.1,2.2,1,2.6,2.1 M70.1,237c0.5-1.5,1.3-2.9,2.5-4c-1.2,0.1-2.3-0.1-3.4-0.5
			c-0.2-2,1.7-3.8,3-5.6c-1.2-0.6-2.6-1-3.4-2.2c1.3-2.6,3.3-2.9,5-3.9c-0.9-1-1.9-1.8-2.1-3.4c1.2-1.4,3-1.6,4.7-2
			c-0.5-1.3-1.3-2.5-1-3.9c1.8-0.9,3.1-0.4,4.5-0.4c-0.1-1.1-0.1-2.3,0.2-3.4c1.4-0.2,2.8-0.2,4.2,0.2c-0.1-1.2,0.1-2.3,0.4-3.4
			c1.5-0.4,3.2-0.1,4.4,1 M82.4,188.2c0.6-0.1,1.2-0.1,1.8,0.1c0.1-1,0.5-1.9,1-2.6c0.9-0.1,1.9,0,2.8,0.2c0.2-0.6,0.5-1.1,0.8-1.6
			 M103.3,193c-0.5-0.8-1.1-1.5-1.9-2.1c-0.4,0.2-0.7,0.5-0.9,0.8c-0.8-0.9-1.7-1.7-2.7-2.5c-1,0.8-1.9,1.8-2.7,2.8
			c-0.3-0.4-0.8-0.7-1.2-0.9c-0.6,0.5-1.1,1.1-1.5,1.8 M113.1,188.3c-0.6-0.1-1.2-0.1-1.8,0.1c-0.1-1-0.5-1.9-1-2.6
			c-0.9-0.1-1.9,0-2.8,0.2c-0.2-0.6-0.5-1.1-0.8-1.6"/>
	</g>
	<g id="g1319" style="clip-path:url(#SVGID_00000016057272161393213220000013510535002129030016_);">
		<path id="path1309" class="st12" d="M38.7,11.1h118.2c-0.2,46.9-1.9,98.9-58.8,123.5C39.2,107.6,38.7,56.2,38.7,11.1z"/>
		<g id="g2440">
			<g id="g2217">
				<g id="g2208">
					<path id="path2194" class="st15" d="M98.1,35.3c-0.4,1.6-0.3,3.3,0.2,4.9c1.1,3.1,0.8,6.1,0.3,9.1l2.4,0.8
						c-0.9-2.6,0.2-5.2-0.5-7.4c-0.9-2.4-1.4-4.9-1.4-7.4H98.1z"/>
					<path id="path2196" class="st15" d="M101,44.8c9.1,3.8,8.7-2.6,9.3-7.2C107.7,40.6,104.5,43,101,44.8z"/>
					<path id="path2198" class="st16" d="M101.1,44.8c3.2-1.5,6.1-3.7,8.5-6.5c-2.5,1.1-5.1-0.1-7,1.2c-2,1.9-1.4,4.7-1.6,5.3"/>
				</g>
				<path id="path2213" class="st15" d="M99,47.1c-3.8-2.4-7.2-5.5-9.8-9.1C96.2,37.4,98.4,41.5,99,47.1z"/>
				<path id="path2215" class="st16" d="M89.1,38c2.8,3.1,5.1,6.4,9.8,9.2C90.5,47.8,89.8,41.7,89.1,38z"/>
			</g>
			<path id="path2513" class="st17" d="M84.8,50.3c-4.2,6-5.8,7.3-7.6,10.3c-4.8,0.1-15.6-9.9-14.4-18.9c1.4-10.1,11-13.1,16.8-15.9
				c8.3-6,6.6-7.7,7.5-10c3.2,1.3,2,10.2-3,15.2c-1.9,1.9-9.2,6.7-6.2,13.2C79.3,47.5,82.5,48.7,84.8,50.3 M113.5,52
				c1.8-0.8,10-2.6,8.9-10c-1.1-8-10.3-12.7-11.7-15c-0.7-1.1-2.5-8.9,1.1-10.2c0.4,4.6,3.5,8.4,7.8,9.9c6.3,2.4,13,5.7,16.1,13.4
				c3.6,9-3.5,17.4-11.2,20.4L113.5,52z"/>
			<path id="path2500" class="st18" d="M98.2,36.5c-2.6,4-7.8,0-6-4c0.7-1.6,3.7-0.2,4.4-1.3c0.6-0.9-0.3-1.1-1.5-0.5
				c-1.4,0.7-3.1,0.9-3.9,0c-1.7-1.9-0.4-6.4,2.9-6.5c2.1,0,2.3,5.3,3.3,4.2s-2.9-3.2-1.7-5.4c0.8-1.4,5.9-2.2,6.5,1.6
				c0.3,1.9-3.3,2.8-2,3.7c1.6,1.1,0.7-3.5,3.4-3.6c3.2-0.2,5.7,5.4,2.1,7.3c-2,1-3.8-2.3-4.1-0.3s3.1-0.8,4.1,2.2
				c0.7,2.2-1.7,4.3-3,4.6c-1.5,0.2-2.9-0.6-3.5-2c-0.8-1.2,1.7-3.8-0.2-3.7C97.5,32.7,98.9,35.5,98.2,36.5z M100.1,29.9
				c-0.4-1.7-2.7-1.4-2.5,0.5S100.5,31.4,100.1,29.9z"/>
			<path id="path1311" class="st13" d="M90.8,112.5c-6.2-6.6-1.6-7.1-1.4-10.4C90,100.3,84.2,86,82,84.8c-2.6-6.9-4.6-4.8-3.3-13.5
				c0.5-3.6-7.4-2.2-8.7-2.2c-1,0-10.6-4-11-4.5c-2.5-3.7,9.7-6.3,13.9-3.8c10.9-9.7,23.7-8.4,25.5-8.5c21-1.6,20.6,5.9,26.8,9.2
				c4.4-2,13.7,2.2,13.1,4.6c-1.3,5-20.2,3.6-18.4,6.9c1.8,3.5-3.1,15.2-6,17l-4.2,12.5c0,0,4.2,5.5-2.7,11.2
				C106.2,114.2,95.1,116.3,90.8,112.5z"/>
			<path id="path2238" class="st11" d="M81.3,89.8c-3.4-1.5-2-6.7-4.3-9.3c-3-2.4-2.4-5.8-1.8-9.3l-3.5,0.9c-7.3,0.5-9.3-7-15.2-6.2
				c-2.2,0-2.5-3-1.1-4.7c7.7-4.3,12.8-4.5,16.9-2.7c2.1-4.4,5.9-7.9,10.5-9.6c2.5,0.3,5.1,0.4,7.6,0.3c4.2-2.3,8.2,0.8,11.3-0.5
				c2-1.3,4.1-0.9,6.1,0.2c11.8,0.7,16.6,5.9,17.8,9.6c5.7-0.6,12.4,2.9,15.4,5.3c1,0.8,1.2,2.2,0.5,3.3c-0.2,0.3-0.6,0.6-0.9,0.7
				c-4.4-0.4-9.6,7.8-15.3,6.1c-1.4-0.6-3.3-1.2-4.4-0.7c1.1,5.7-0.2,9-3,10.9c-0.4,3.4-2.2,6.5-4.9,8.6c-0.5,3.9-1.2,7.5-2.9,9.7
				c0.5,2.1,1.6,4.5,1.4,6.5c-0.2,1.8-1.8,2.1-2.2,3.4c-8.4,7.7-18.5,4.3-23-1.2c-6.8-6.4,2.6-6.3-1.5-12.8
				C82.7,96.2,84.5,91.6,81.3,89.8z M61.3,61.4c0.4-2.1,10.5-1.9,11.4-0.8c2.8,0.8,0.7,2.2-1,1.7c-2.8-1-5.9-1.2-8.8-0.6
				C62.1,62.1,60.8,61.7,61.3,61.4L61.3,61.4z M78.6,60c0.6,0,0.8,2.5,1.3,2.8c0.5-0.1,1.2-2,1.6-1.6c0.4,0.2,0.1,1-0.5,2.1
				c-0.4,0.9-0.8,2.3-1.5,2.1C78.6,63.5,77.5,61.6,78.6,60z M93,52.2c-0.6,0.1-0.4,1-1.3,2.4c-0.8,1.2-1.3,2.3-0.1,3.3
				c0.5,0.2,0.7-2.1,1.2-3.2C93.6,53.5,93.9,52.5,93,52.2z M82.9,60.3c-0.7,0.4-0.9-0.3-0.8-0.8c0.5-1.1,1.3-2,2.4-2.6
				c0.5-0.3,0.7,0,0.8,0.5l0.1,4.7H86l2.3-4.8c0.3-0.7,1-1.3,1.8-0.1l2.2,5.2c0.7,1.3-0.1,1.6-0.5,0.9c-1-1.1-1.8-2.3-2.3-3.7
				c-0.3-0.7-0.5-0.5-0.8-0.4c-1.1,1.4-2,5.2-3,5.2c-2.3-0.6-0.7-5.8-2.1-5L82.9,60.3z M93.8,60.9c-0.4,1,0.2,1.3,0.8,0.7
				c1.4-0.6,2.2-4,4-5.5c0.3,0.6,0.6,1.1,0.1,3c-1.3,2.1-1.6,3.5-1.1,3.4c2-0.9,1.4-4,4.2-5.9c0.8-1,0.1-1.9-0.6-1.2l-0.7,0.7
				c-0.6,0.4-1.2,0.2-1.2-0.4l0.2-1.7c-0.1-0.5-0.5-1.2-1.2,0.2C95.1,56.9,94.7,58.8,93.8,60.9z M102,56.6c0.7,0.3,0,2.2-0.4,2.3
				C100.9,58.4,101.2,57.3,102,56.6z M108.9,54.2c-0.8,0.3-0.8,2.2-0.1,2.3C109.8,56.5,109.7,54.2,108.9,54.2L108.9,54.2z
				 M110.5,54.1c-0.4,0.2,0,0.9,0.3,1.5c0.3,0.9,0.6,1.1,1,1s0.3-0.8-0.3-1.5C111,54,110.8,53.9,110.5,54.1L110.5,54.1z M105.7,52.6
				c-1.1,1.2-0.4,2.2-2,4.2c-0.7,1.2-1.3,2.2-0.7,2.5c1,0.7,2-1.9,3.1-2.8c0.3-1.2-0.7-2,0.1-3.5C106.2,52.6,106.1,52.4,105.7,52.6
				L105.7,52.6z M107.5,58.2c0.2,1.1-1,2.5-0.4,2.8s1.6,0.2,1.6-1.7l-0.3-1.5C107.9,57.6,107.7,57.9,107.5,58.2L107.5,58.2z
				 M123.5,63.2c0.3-2.3,3.4-1.8,5.1-1.7c3.2,0.6,7.9,1.9,7.1,2.6c-0.1,0.4-0.6,0.4-1.1,0c-2.9-1.1-6-1.2-9-0.3
				c-0.6,0.4-1.5,0.3-2-0.3C123.6,63.4,123.5,63.2,123.5,63.2L123.5,63.2z M120.1,64.9c-1.3,0-1.2,4-3.4,5.1l-1.7,1.4
				c-0.9,0.6-0.2,1.4,0.5,0.9C120,70.4,120.1,68.4,120.1,64.9L120.1,64.9z M118,74l-2.1,1c0.2,5-3.4,5-5.9,3.1l-1.1,2
				C113.7,83,118.3,82.1,118,74z M111.6,77.2c0.2,0.8,1,1.3,1.8,1.1c0.1,0,0.2-0.1,0.3-0.1c0.6-0.2,1-0.9,0.9-1.5
				c0-0.6-0.3-0.8-0.8-0.6L111.6,77.2z M114.9,70.6c-0.1-0.8-1.1-0.5-1.7-0.2c-2.4,2.5-1.9,3.1-1.9,4c0.6,0.2,1.4,0,1.5-1.5
				C113.7,71.8,115.5,71.2,114.9,70.6L114.9,70.6z M110.3,73.3c-0.8-0.1-1.1,0.7-1.5,1.3s-1,1.5-0.3,1.9c0.3,0,0.8-0.7,1.3-1.5
				S110.8,73.7,110.3,73.3L110.3,73.3z M109.8,71.7c-0.9-0.2-1.5,0.6-2,1.3c-1.4,2.6-0.6,2.9-0.1,2.8
				C107.8,73.7,110.9,72.7,109.8,71.7L109.8,71.7z M106.2,71.6c-0.8,0.4-1,2.6-2.4,4.3c-0.7,1-0.8,2.3-0.4,3.4
				c0.5,2,0.7,4.1,0.6,6.1c-0.1,0.5,0.2,1,0.7,0.4c0.6-1.1,0.9-2.7,0.2-6.2c-0.4-1-0.3-2.1,0.3-3.1C107,73.5,106.9,72.5,106.2,71.6
				L106.2,71.6z M106.6,79c0.2,2.4,0.1,4.8-0.2,7.2c-0.5,0.6,0,0.8,0.4,0.5c0.7-0.4,1.6-5,0.5-8C107.1,78.2,106.6,78.3,106.6,79z
				 M110.1,87.7c0.3,0,0.5,0.1,0.6,0.4c0,0.2,0,0.3-0.1,0.4l-2.4,1.7c-0.8,0.3-1.4-0.4-0.8-1.2L110.1,87.7z M106.4,90
				c-0.4,3-0.7,5.8-0.9,8.6c-0.2,1-0.7,0.9-0.9,0.3c-1.1-3.3-0.5-7.2,1.2-9.1C106.1,89.6,106.4,89.3,106.4,90z M109,91.7l-1.3,1.8
				c-0.5,0.5-1.3,0.3-1-0.6c0.9-1.6,1.9-2.7,3.2-2.3C110.2,91.1,109.7,91.6,109,91.7z M107.9,94.3c0.7-0.1,0.8,0.3,0.4,0.7
				c-0.4,0.6-0.8,1.2-1.2,1.8c-0.8,1.2-1.6,0.4-1.1-0.6C106.7,95.6,107.1,94.6,107.9,94.3L107.9,94.3z M78.5,72.6l2.4,0.8
				c-0.7,3.6,2.6,5.6,5.8,3.4l1,2.2C83.2,81.9,76.8,79,78.5,72.6z M82.4,74.6l2.4,1.4c0.3,0.2,0.3,0.6,0.1,0.8c0,0-0.1,0.1-0.1,0.1
				C82.6,78.4,81.3,75.8,82.4,74.6L82.4,74.6z M80.1,69.2c-0.3-0.4-1-0.1-0.7,0.7c2.6,5.2,8.3,2.7,9.9,8c0.1,1.3,1.2,1.3,1.2,0.2
				C90.9,71.8,82.9,73.4,80.1,69.2L80.1,69.2z M88.9,81.6c-0.2-1.1,0.1-1.4,0.9-1.1c0.9,1,1.6,3.4,0.6,4
				C89.4,84.7,90.1,82.6,88.9,81.6L88.9,81.6z M89.5,85.3c0.4,0.8-0.7,1.3-0.9,0.3c0-1.3-0.8-1.8-0.5-2.5
				C88.8,83.2,89.4,83.5,89.5,85.3L89.5,85.3z M92,87.2c-2.7,3.3,1,8.6-0.5,12c-1,0.2-1.3-2.3-2.3-1.6s-1,2.4-0.3,2.7
				s0.7-1.4,1.3-0.8c0.1,1,0.5,1.9,1.3,2.5c1.7-0.2,1-2.2,1.4-3.5c1.1-4.1-1.3-7.3-0.5-10.3C92.6,87.8,92.4,87.3,92,87.2z
				 M97.3,103.5c1.9,0.8,6-1.6,8-0.2c0.5,0.7,0.1,0.8-0.4,0.9c-2.3-0.1-6.1,1.7-7.9-0.1C96.5,103.6,96.9,103.4,97.3,103.5
				L97.3,103.5z M93,111.7c-0.7-0.1-1.3,0.7-0.6,1.2c1,0.7,3.7,1.4,3.9,0.5C96.3,112,94.1,112.3,93,111.7L93,111.7z M103.1,108.6
				c-0.3-0.6-0.2-1.4,0.4-1.8c0.9-0.9,1.5-0.5,1.5,0.2C104.3,107.8,103.4,109.1,103.1,108.6L103.1,108.6z M107.2,106.1
				c-0.6,0.5,0.2,0.8,0.8,1.2c0.3,0.7,0.6,1.5,1.1,1C109.6,107.6,109,105.2,107.2,106.1L107.2,106.1z M92.2,105.7
				c-0.7-0.2-2.4,0.3-1.4-1.1c0.8-1.1,3.9,0.4,2.7,2.3C92.8,107.8,92.6,106.2,92.2,105.7L92.2,105.7z"/>
			<path id="path1317" class="st19" d="M107.3,107.4c1.3,1.9,1.9,4.1,1.9,6.4c0,6.1-5,11.1-11.1,11.1c-6.1,0-11.1-5-11.1-11.1
				c0-2.7,1-5.4,2.8-7.5 M89.8,106.3c1.8-1.1,3.4,0.4,2.5,2.1c-2.9,3.3-2.7,8.3,0.6,11.2s8.3,2.7,11.2-0.6c2.4-2.7,2.7-6.6,0.8-9.6
				c-0.5-0.8-0.3-1.8,0.5-2.2c0.7-0.4,1.5-0.3,2,0.2"/>
		</g>
	</g>
	<path style="clip-path:url(#SVGID_00000016057272161393213220000013510535002129030016_);fill:#FFFFFF;" d="M30.4,112.8h134.7
		c3,0,5.5,2.4,5.5,5.5v44c0,3-2.4,5.5-5.5,5.5H30.4c-3,0-5.5-2.4-5.5-5.5v-44C25,115.3,27.4,112.8,30.4,112.8z"/>
	<path style="clip-path:url(#SVGID_00000016057272161393213220000013510535002129030016_);fill:#FFFFFF;" d="M80,99.6
		c-12.6,0-22.9,10.2-22.9,30.5c0,25.4,18.2,50.9,40.7,50.9s40.7-25.4,40.7-50.9c0-20.3-10.2-30.5-22.9-30.5
		c-6.9,0-13.5,3.1-17.8,8.5C93.5,102.8,86.9,99.6,80,99.6z"/>
	<g style="clip-path:url(#SVGID_00000016057272161393213220000013510535002129030016_);enable-background:new    ;">
		<text transform="matrix(1 0 0 1 55.79 137.99)" class="st4 st22 st23">Chònice</text>
	</g>
	<text transform="matrix(1 0 0 1 68.07 162.7)" class="st4 st22 st23">Ma</text>
	<text transform="matrix(1 0 0 1 98.31 162.7)" class="st4 st22 st23">z</text>
	<text transform="matrix(1 0 0 1 107.55 162.7)" class="st4 st22 st23">yr</text>
	<path style="clip-path:url(#SVGID_00000016057272161393213220000013510535002129030016_);fill:#3D82C3;" d="M45,0H16H0.1v16
		c0,7,0,14,0,21c10.3,12.3,28.7,14,41,3.7c6.7-5.5,10.5-13.8,10.5-22.4C51.5,11.6,49.2,5.2,45,0z"/>
	<g style="clip-path:url(#SVGID_00000016057272161393213220000013510535002129030016_);enable-background:new    ;">
		<text transform="matrix(1 0 0 1 15.64 31.75)" class="st13 st22 st25">34</text>
	</g>
</g>
</svg>
