<?xml version="1.0" encoding="utf-8"?>
<!-- Generator: Adobe Illustrator 26.0.1, SVG Export Plug-In . SVG Version: 6.00 Build 0)  -->
<svg version="1.1" id="Слой_1" xmlns="http://www.w3.org/2000/svg" xmlns:xlink="http://www.w3.org/1999/xlink" x="0px" y="0px"
	 viewBox="0 0 195.6 280.6" style="enable-background:new 0 0 195.6 280.6;" xml:space="preserve">
<style type="text/css">
	.st0{clip-path:url(#SVGID_00000111899716995884193250000009205551409214638522_);fill:#2764AE;}
	.st1{clip-path:url(#SVGID_00000140732725494228235470000007701241083633111969_);}
	.st2{fill-rule:evenodd;clip-rule:evenodd;fill:#288ACB;stroke:#FFFFFF;stroke-width:2.5;}
	.st3{opacity:0.99;fill:#F7E822;enable-background:new    ;}
	.st4{fill-rule:evenodd;clip-rule:evenodd;fill:#F7E822;}
	.st5{clip-path:url(#SVGID_00000168110310178153366050000013633553090459861949_);fill:#515CA6;stroke:#FFFFFF;stroke-width:2;}
	.st6{clip-path:url(#SVGID_00000108271479471511187160000005951591424106635188_);fill:#FFFFFF;}
	.st7{clip-path:url(#SVGID_00000170989180366742033630000008537754181248291230_);fill:#FCC00D;}
	.st8{clip-path:url(#SVGID_00000014632434419214071600000000397462047519511199_);fill:#FFFFFF;}
	.st9{clip-path:url(#SVGID_00000154397188370711246020000015079168230324153730_);fill:#FFFFFF;}
	.st10{clip-path:url(#SVGID_00000128470569859602609500000017568242241273341876_);fill:#FCC00D;}
	.st11{enable-background:new    ;}
	.st12{fill:#288ACB;}
	.st13{fill:#FFFFFF;}
</style>
<g>
	<g>
		<defs>
			<rect id="SVGID_1_" width="195.6" height="280.6"/>
		</defs>
		<clipPath id="SVGID_00000141443353978443755270000017498982277716469896_">
			<use xlink:href="#SVGID_1_"  style="overflow:visible;"/>
		</clipPath>
		
			<rect x="-9.2" y="-8.4" style="clip-path:url(#SVGID_00000141443353978443755270000017498982277716469896_);fill:#2764AE;" width="214" height="297.9"/>
	</g>
	<g>
		<defs>
			<rect id="SVGID_00000171721898140891176760000001662727730871347870_" width="195.6" height="280.6"/>
		</defs>
		<clipPath id="SVGID_00000012462310075114275700000014759418972952251799_">
			<use xlink:href="#SVGID_00000171721898140891176760000001662727730871347870_"  style="overflow:visible;"/>
		</clipPath>
		<g id="g3297" style="clip-path:url(#SVGID_00000012462310075114275700000014759418972952251799_);">
			<path id="path13477" class="st2" d="M44.8,12.4c-0.1,27.2-0.3,64.8-0.3,96c0,7.7,4.1,16.1,14.1,16.1h30.8c5.9,0,7,8.4,8.5,11.1
				c1.5-2.8,2.6-11.1,8.5-11.1H137c10,0,14.1-8.4,14.1-16.1c0-31.2-0.2-68.9-0.3-96L44.8,12.4z"/>
			<path id="path2187" class="st3" d="M125.6,86.2l-22-13.8l-5.8,25.2l-5.7-25.2L70,86.1l14-21.8l-25.5-5.7L84,53.1L70,31.3l22,13.8
				L97.8,20l5.7,25.2l22.1-13.8l-14,21.8l25.5,5.7l-25.5,5.6L125.6,86.2z"/>
			<path id="path3162" class="st4" d="M56.1,61.5c-11,73.4,90.7,76.2,84,0C132.3,117.3,63.3,118.1,56.1,61.5z"/>
		</g>
	</g>
	<g>
		<defs>
			<rect id="SVGID_00000104707032326391362750000006691603401933442699_" width="195.6" height="280.6"/>
		</defs>
		<clipPath id="SVGID_00000066503431909042014870000011287339589045977244_">
			<use xlink:href="#SVGID_00000104707032326391362750000006691603401933442699_"  style="overflow:visible;"/>
		</clipPath>
		
			<path style="clip-path:url(#SVGID_00000066503431909042014870000011287339589045977244_);fill:#515CA6;stroke:#FFFFFF;stroke-width:2;" d="
			M153.9,253.8v-29.1c-10.5-6.8-10.5-27.3,0-33.6v-27c0-23.1-43.2-30.7-43.2-30.7c-6.3-0.8-10.2-4.7-12.8-7.3
			c-2.6,2.6-6.3,6.6-13.1,7.3c0.3,0-43,7.6-43,30.7v27c10.5,6.3,10.5,26.7,0,33.6v29.1C59.3,270.8,136.3,270.8,153.9,253.8z"/>
	</g>
	<g>
		<defs>
			<rect id="SVGID_00000081618946066445697900000006680324811836465839_" width="195.6" height="280.6"/>
		</defs>
		<clipPath id="SVGID_00000054950809004771905880000005053383392794204817_">
			<use xlink:href="#SVGID_00000081618946066445697900000006680324811836465839_"  style="overflow:visible;"/>
		</clipPath>
		<path style="clip-path:url(#SVGID_00000054950809004771905880000005053383392794204817_);fill:#FFFFFF;" d="M125.8,231.5
			c-2.9-10.8-2.9-22.2,0-33c-5.5,5.5-14.7,8.4-22,11c2.6-7.3,5.5-16.5,11-22c-10.8,2.9-22.2,2.9-33,0c5.5,5.5,8.1,14.7,11,22
			c-7.3-2.6-16.5-5.5-22-11c2.6,10.8,2.6,22.2,0,33c5.5-5.5,14.7-8.1,22-11c-2.9,7.3-5.5,16.5-11,22c10.8-2.6,22.2-2.6,33,0
			c-5.5-5.5-8.4-14.7-11-22C111.2,223.4,120.3,226,125.8,231.5z"/>
	</g>
	<g>
		<defs>
			<rect id="SVGID_00000019640121132961207550000014314841324225945993_" width="195.6" height="280.6"/>
		</defs>
		<clipPath id="SVGID_00000035519907452861671300000010189044460620466838_">
			<use xlink:href="#SVGID_00000019640121132961207550000014314841324225945993_"  style="overflow:visible;"/>
		</clipPath>
		<path style="clip-path:url(#SVGID_00000035519907452861671300000010189044460620466838_);fill:#FCC00D;" d="M133.7,214.5
			c2.9-4.2,3.7-11.3,3.7-17.6c0-22.6-17.3-39.1-39.3-39.1c-20.5,0-39.6,17-39.3,39.1c-0.5,6.3,1.8,13.1,3.7,17.6
			C62.4,163.4,133.7,163.4,133.7,214.5z"/>
	</g>
	<g>
		<defs>
			<rect id="SVGID_00000148636982621378610760000016090992223534035377_" width="195.6" height="280.6"/>
		</defs>
		<clipPath id="SVGID_00000021839501442281322940000012616311579065734588_">
			<use xlink:href="#SVGID_00000148636982621378610760000016090992223534035377_"  style="overflow:visible;"/>
		</clipPath>
		<path style="clip-path:url(#SVGID_00000021839501442281322940000012616311579065734588_);fill:#FFFFFF;" d="M80,99.6
			c-12.6,0-22.9,10.2-22.9,30.5c0,25.4,18.2,50.9,40.7,50.9s40.7-25.4,40.7-50.9c0-20.3-10.2-30.5-22.9-30.5
			c-6.9,0-13.5,3.1-17.8,8.5C93.5,102.8,86.9,99.6,80,99.6z"/>
	</g>
	<g>
		<defs>
			<rect id="SVGID_00000139261742186365282440000009981745782677183125_" width="195.6" height="280.6"/>
		</defs>
		<clipPath id="SVGID_00000119090630454609003020000004737158497040679871_">
			<use xlink:href="#SVGID_00000139261742186365282440000009981745782677183125_"  style="overflow:visible;"/>
		</clipPath>
		<path style="clip-path:url(#SVGID_00000119090630454609003020000004737158497040679871_);fill:#FFFFFF;" d="M30.4,112.8h134.7
			c3,0,5.5,2.4,5.5,5.5v44c0,3-2.4,5.5-5.5,5.5H30.4c-3,0-5.5-2.4-5.5-5.5v-44C25,115.3,27.4,112.8,30.4,112.8z"/>
	</g>
	<g>
		<defs>
			<rect id="SVGID_00000093883583119046359060000002608941175509157813_" width="195.6" height="280.6"/>
		</defs>
		<clipPath id="SVGID_00000079479379704419801440000010551329424981935013_">
			<use xlink:href="#SVGID_00000093883583119046359060000002608941175509157813_"  style="overflow:visible;"/>
		</clipPath>
	</g>
	<g>
		<defs>
			<rect id="SVGID_00000047746895515891725740000006405619576918906021_" width="195.6" height="280.6"/>
		</defs>
		<clipPath id="SVGID_00000096776522513766593390000011516190157846079902_">
			<use xlink:href="#SVGID_00000047746895515891725740000006405619576918906021_"  style="overflow:visible;"/>
		</clipPath>
	</g>
	<g>
		<defs>
			<rect id="SVGID_00000139258172657089039850000004149947379347841462_" width="195.6" height="280.6"/>
		</defs>
		<clipPath id="SVGID_00000003825896448477277420000001212572421488927382_">
			<use xlink:href="#SVGID_00000139258172657089039850000004149947379347841462_"  style="overflow:visible;"/>
		</clipPath>
		<path style="clip-path:url(#SVGID_00000003825896448477277420000001212572421488927382_);fill:#FCC00D;" d="M44.9-0.2h-29H0v16
			c0,7,0,14,0,21c10.3,12.3,28.7,13.9,41,3.6c6.6-5.5,10.4-13.7,10.4-22.3C51.4,11.4,49.1,5,44.9-0.2z"/>
	</g>
	<g>
		<defs>
			<rect id="SVGID_00000163071898810778804090000002057964313993570964_" width="195.6" height="280.6"/>
		</defs>
		<clipPath id="SVGID_00000071541547910004204700000001094400100537759876_">
			<use xlink:href="#SVGID_00000163071898810778804090000002057964313993570964_"  style="overflow:visible;"/>
		</clipPath>
	</g>
</g>
<g class="st11">
	<path class="st12" d="M42.2,121.8v14.5h-3.3l0-9.8l-1.3,9.8h-2.3l-1.4-9.5l0,9.5h-3.3v-14.5h4.9c0.1,0.9,0.3,1.9,0.4,3.1l0.5,3.7
		l0.9-6.8H42.2z"/>
	<path class="st12" d="M47.3,121.8v1.9h-3.7v-1.9H47.3z M47.3,124.4v11.9h-3.7v-11.9H47.3z"/>
	<path class="st12" d="M52.3,124.4l-0.1,1.1c0.3-0.4,0.6-0.8,1-1s0.8-0.3,1.3-0.3c0.6,0,1.1,0.1,1.5,0.4s0.6,0.7,0.8,1.1
		s0.2,1.2,0.2,2.2v8.3h-3.6V128c0-0.8,0-1.3-0.1-1.5s-0.2-0.3-0.4-0.3c-0.3,0-0.4,0.1-0.5,0.3c-0.1,0.2-0.1,0.8-0.1,1.6v8h-3.6
		v-11.9H52.3z M55.4,121.2l-2.9,2.4h-1.8l1.6-2.4H55.4z"/>
	<path class="st12" d="M65.6,128.2h-3.2v-0.6c0-0.5,0-0.9-0.1-1c-0.1-0.1-0.2-0.2-0.5-0.2c-0.2,0-0.4,0.1-0.5,0.2
		c-0.1,0.1-0.2,0.3-0.2,0.6c0,0.4,0,0.6,0.1,0.8s0.2,0.4,0.5,0.6c0.3,0.2,0.8,0.5,1.6,0.9c1,0.5,1.7,1,2.1,1.4
		c0.3,0.5,0.5,1.1,0.5,2c0,1-0.1,1.7-0.4,2.2c-0.3,0.5-0.7,0.9-1.3,1.1c-0.6,0.3-1.3,0.4-2.1,0.4c-0.9,0-1.7-0.1-2.4-0.4
		c-0.7-0.3-1.1-0.7-1.3-1.2c-0.2-0.5-0.4-1.2-0.4-2.2v-0.6h3.2v0.8c0,0.6,0,1.1,0.1,1.2c0.1,0.2,0.2,0.3,0.5,0.3
		c0.3,0,0.4-0.1,0.5-0.2c0.1-0.1,0.2-0.4,0.2-0.8c0-0.6-0.1-0.9-0.2-1.1c-0.1-0.1-0.8-0.6-2.1-1.3c-1.1-0.6-1.7-1.1-1.9-1.6
		c-0.2-0.5-0.3-1.1-0.3-1.7c0-0.9,0.1-1.6,0.4-2.1c0.3-0.5,0.7-0.8,1.3-1s1.3-0.4,2.1-0.4c0.8,0,1.5,0.1,2,0.3
		c0.6,0.2,1,0.5,1.3,0.8c0.3,0.3,0.5,0.6,0.5,0.9c0.1,0.3,0.1,0.7,0.1,1.3V128.2z"/>
	<path class="st12" d="M74.6,124.4l-1.5,4.7l1.9,7.1h-3.5l-1.1-5.2l0,5.2h-3.6v-14.5h3.6l0,6.1l1.1-3.5H74.6z"/>
	<path class="st12" d="M90.5,121.8v14.5h-3.3l0-9.8l-1.3,9.8h-2.3l-1.4-9.5l0,9.5h-3.3v-14.5h4.9c0.1,0.9,0.3,1.9,0.4,3.1l0.5,3.7
		l0.9-6.8H90.5z"/>
	<path class="st12" d="M95.2,129h-3.4v-0.8c0-0.9,0.1-1.6,0.3-2.1c0.2-0.5,0.6-0.9,1.3-1.3c0.6-0.4,1.5-0.6,2.5-0.6
		c1.2,0,2.1,0.2,2.8,0.6c0.6,0.4,1,1,1.1,1.6c0.1,0.6,0.2,1.9,0.2,3.9v6h-3.5v-1.1c-0.2,0.4-0.5,0.7-0.9,1s-0.8,0.3-1.2,0.3
		c-0.6,0-1.2-0.2-1.7-0.5s-0.8-1.1-0.8-2.3v-1c0-0.9,0.1-1.5,0.4-1.8c0.3-0.3,1-0.7,2.1-1.1c1.2-0.5,1.8-0.8,1.9-0.9
		c0.1-0.2,0.1-0.5,0.1-1c0-0.6,0-1-0.1-1.2c-0.1-0.2-0.2-0.3-0.5-0.3c-0.2,0-0.4,0.1-0.5,0.2c-0.1,0.2-0.1,0.6-0.1,1.2V129z
		 M96.3,130.6c-0.6,0.4-0.9,0.8-1,1.1s-0.1,0.7-0.1,1.2c0,0.6,0,1,0.1,1.2c0.1,0.2,0.2,0.3,0.5,0.3c0.2,0,0.4-0.1,0.4-0.2
		c0.1-0.1,0.1-0.5,0.1-1.1V130.6z"/>
	<path class="st12" d="M106.8,124.4v2.6l-2.7,6.9h2.7v2.4h-6.2v-2.5l2.7-7h-2.4v-2.4H106.8z"/>
	<path class="st12" d="M115.8,128.6v2.9c0,1.1-0.1,1.8-0.2,2.3c-0.1,0.5-0.3,1-0.7,1.4c-0.4,0.4-0.8,0.8-1.4,1
		c-0.6,0.2-1.2,0.3-1.9,0.3c-0.8,0-1.5-0.1-2-0.3c-0.6-0.2-1-0.4-1.3-0.8c-0.3-0.4-0.5-0.8-0.7-1.3c-0.1-0.5-0.2-1.3-0.2-2.3v-3
		c0-1.1,0.1-2,0.4-2.6c0.2-0.6,0.7-1.1,1.3-1.5c0.6-0.4,1.4-0.6,2.4-0.6c0.8,0,1.5,0.1,2.1,0.4c0.6,0.2,1,0.6,1.3,0.9
		c0.3,0.4,0.5,0.8,0.6,1.2S115.8,127.7,115.8,128.6z M112.1,127.7c0-0.6,0-1-0.1-1.1c-0.1-0.2-0.2-0.2-0.4-0.2s-0.4,0.1-0.4,0.2
		c-0.1,0.2-0.1,0.5-0.1,1.1v5.4c0,0.6,0,0.9,0.1,1.1c0.1,0.2,0.2,0.3,0.4,0.3c0.2,0,0.4-0.1,0.4-0.2c0.1-0.2,0.1-0.5,0.1-1V127.7z"
		/>
	<path class="st12" d="M128.6,124.4l-1.4,11.9h-3.9c-0.2-1.4-0.5-3.4-0.7-5.7c-0.1,1-0.2,2.1-0.4,3.2l-0.4,2.6h-3.9l-1.5-11.9h3.1
		c0,0.3,0.3,2.6,0.8,6.8c0-0.4,0.3-2.7,0.8-6.8h3l0.7,6.8c0.1-2,0.4-4.2,0.8-6.8H128.6z"/>
	<path class="st12" d="M132.9,121.8v1.9h-3.7v-1.9H132.9z M132.9,124.4v11.9h-3.7v-11.9H132.9z"/>
	<path class="st12" d="M142.4,130.5h-4.7v2.6c0,0.5,0,0.9,0.1,1c0.1,0.2,0.2,0.2,0.4,0.2c0.3,0,0.5-0.1,0.5-0.3
		c0.1-0.2,0.1-0.6,0.1-1.2v-1.6h3.4v0.9c0,0.7,0,1.3-0.1,1.7c-0.1,0.4-0.3,0.8-0.6,1.3c-0.3,0.4-0.8,0.8-1.3,1
		c-0.5,0.2-1.2,0.3-2,0.3c-0.8,0-1.4-0.1-2-0.3s-1-0.5-1.4-0.9c-0.3-0.4-0.5-0.8-0.7-1.3s-0.2-1.1-0.2-2v-3.5c0-1,0.1-1.9,0.4-2.5
		c0.3-0.6,0.7-1.1,1.4-1.4c0.6-0.3,1.4-0.5,2.2-0.5c1,0,1.8,0.2,2.5,0.6c0.7,0.4,1.1,0.9,1.4,1.5c0.3,0.6,0.4,1.5,0.4,2.7V130.5z
		 M138.8,128.6v-0.9c0-0.6,0-1-0.1-1.2s-0.2-0.3-0.4-0.3c-0.3,0-0.4,0.1-0.5,0.2c-0.1,0.2-0.1,0.6-0.1,1.2v0.9H138.8z"/>
	<path class="st12" d="M151.6,128.9h-3.4v-1.4c0-0.5,0-0.8-0.1-1c-0.1-0.2-0.2-0.3-0.4-0.3c-0.2,0-0.3,0.1-0.4,0.2
		c-0.1,0.1-0.1,0.5-0.1,1v5.6c0,0.4,0.1,0.7,0.2,1c0.1,0.2,0.3,0.3,0.5,0.3c0.2,0,0.4-0.1,0.5-0.3c0.1-0.2,0.1-0.6,0.1-1.3v-1.4h3.2
		c0,0.9,0,1.7-0.1,2.1s-0.3,1-0.6,1.5c-0.3,0.5-0.8,0.9-1.3,1.1c-0.5,0.3-1.2,0.4-2,0.4c-1,0-1.8-0.2-2.4-0.5
		c-0.6-0.3-1-0.8-1.3-1.5s-0.4-1.5-0.4-2.7v-3.4c0-1,0.1-1.8,0.3-2.3c0.2-0.5,0.6-1,1.3-1.4c0.7-0.4,1.5-0.6,2.4-0.6
		c0.9,0,1.7,0.2,2.4,0.6c0.7,0.4,1.1,0.9,1.3,1.5C151.5,126.9,151.6,127.8,151.6,128.9z"/>
	<path class="st12" d="M160.4,124.4l-1.5,4.7l1.9,7.1h-3.5l-1.1-5.2l0,5.2h-3.6v-14.5h3.6l0,6.1l1.1-3.5H160.4z"/>
	<path class="st12" d="M165.1,121.8v1.9h-3.7v-1.9H165.1z M165.1,124.4v11.9h-3.7v-11.9H165.1z"/>
</g>
<g class="st11">
	<path class="st12" d="M87.2,153.2c0,2,0,3.4-0.1,4.2c-0.1,0.8-0.4,1.6-0.9,2.2c-0.5,0.7-1.1,1.2-2,1.6c-0.8,0.4-1.8,0.5-2.9,0.5
		c-1,0-2-0.2-2.8-0.5s-1.5-0.9-2-1.5c-0.5-0.7-0.8-1.4-0.9-2.2c-0.1-0.8-0.1-2.2-0.1-4.2v-3.4c0-2,0-3.4,0.1-4.2s0.4-1.6,0.9-2.2
		c0.5-0.7,1.1-1.2,2-1.6c0.8-0.4,1.8-0.5,2.9-0.5c1,0,2,0.2,2.8,0.5s1.5,0.9,2,1.5c0.5,0.7,0.8,1.4,0.9,2.2c0.1,0.8,0.1,2.2,0.1,4.2
		V153.2z M82.1,146.8c0-0.9-0.1-1.5-0.2-1.7c-0.1-0.3-0.3-0.4-0.6-0.4c-0.3,0-0.5,0.1-0.6,0.3c-0.1,0.2-0.2,0.8-0.2,1.8v9.1
		c0,1.1,0,1.8,0.1,2.1c0.1,0.3,0.3,0.4,0.6,0.4c0.3,0,0.6-0.2,0.7-0.5s0.1-1,0.1-2.2V146.8z"/>
	<path class="st12" d="M93.8,145.3l-0.2,2.1c0.7-1.5,1.7-2.3,3.1-2.4v5.6c-0.9,0-1.6,0.1-2,0.4c-0.4,0.2-0.7,0.6-0.8,1
		c-0.1,0.4-0.1,1.4-0.1,3v6.3h-4.9v-16H93.8z"/>
	<path class="st12" d="M107.8,150.4h-4.3v-0.9c0-0.7,0-1.2-0.1-1.4s-0.3-0.3-0.6-0.3c-0.3,0-0.5,0.1-0.6,0.3s-0.2,0.5-0.2,0.8
		c0,0.5,0,0.9,0.1,1.1c0.1,0.2,0.3,0.5,0.6,0.8c0.3,0.3,1,0.7,2.1,1.2c1.4,0.7,2.4,1.3,2.8,2c0.4,0.6,0.7,1.5,0.7,2.7
		c0,1.3-0.2,2.3-0.5,3c-0.3,0.7-0.9,1.2-1.7,1.5c-0.8,0.4-1.8,0.5-2.9,0.5c-1.2,0-2.3-0.2-3.2-0.6c-0.9-0.4-1.5-0.9-1.8-1.6
		s-0.5-1.7-0.5-3v-0.8h4.3v1c0,0.9,0.1,1.4,0.2,1.7c0.1,0.3,0.3,0.4,0.6,0.4c0.3,0,0.6-0.1,0.7-0.3c0.1-0.2,0.2-0.5,0.2-1.1
		c0-0.8-0.1-1.2-0.3-1.4c-0.2-0.2-1.1-0.8-2.8-1.7c-1.4-0.8-2.3-1.5-2.6-2.2s-0.5-1.4-0.5-2.3c0-1.3,0.2-2.2,0.5-2.8
		c0.3-0.6,0.9-1.1,1.7-1.4c0.8-0.3,1.8-0.5,2.8-0.5c1.1,0,2,0.1,2.7,0.4c0.7,0.3,1.3,0.6,1.7,1.1c0.4,0.4,0.6,0.9,0.7,1.2
		s0.1,1,0.1,1.8V150.4z M102.8,142.4l1.3-1.6h3.3l-2.9,3.4h-3.4l-3.1-3.4h3.4L102.8,142.4z"/>
	<path class="st12" d="M113.8,151.5h-4.6v-1.1c0-1.2,0.1-2.2,0.4-2.9c0.3-0.7,0.9-1.3,1.7-1.8c0.9-0.5,2-0.8,3.4-0.8
		c1.7,0,2.9,0.3,3.7,0.9c0.8,0.6,1.3,1.3,1.5,2.2c0.2,0.9,0.3,2.6,0.3,5.3v8.1h-4.8v-1.4c-0.3,0.6-0.7,1-1.2,1.3
		c-0.5,0.3-1,0.4-1.7,0.4c-0.9,0-1.6-0.2-2.4-0.7c-0.7-0.5-1.1-1.5-1.1-3.2v-1.3c0-1.2,0.2-2,0.6-2.5c0.4-0.4,1.3-0.9,2.8-1.5
		c1.6-0.6,2.5-1.1,2.6-1.3s0.2-0.7,0.2-1.3c0-0.8-0.1-1.4-0.2-1.6c-0.1-0.3-0.3-0.4-0.6-0.4c-0.3,0-0.5,0.1-0.6,0.3
		c-0.1,0.2-0.1,0.8-0.1,1.7V151.5z M115.4,153.7c-0.8,0.6-1.2,1.1-1.4,1.4s-0.2,0.9-0.2,1.7c0,0.8,0.1,1.4,0.2,1.6
		c0.1,0.2,0.3,0.4,0.6,0.4c0.3,0,0.5-0.1,0.6-0.3s0.1-0.7,0.1-1.5V153.7z"/>
</g>
<g class="st11">
	<path class="st13" d="M23.6,22.6c0.6,0.2,1,0.5,1.3,1c0.3,0.5,0.4,1.5,0.4,3.2c0,1.3-0.1,2.2-0.4,2.9s-0.8,1.2-1.5,1.6
		s-1.6,0.5-2.7,0.5c-1.2,0-2.2-0.2-2.9-0.6s-1.2-0.9-1.4-1.5s-0.3-1.7-0.3-3.2v-1.2h3.9v2.6c0,0.7,0,1.1,0.1,1.3s0.3,0.3,0.5,0.3
		c0.3,0,0.5-0.1,0.6-0.4s0.1-0.8,0.1-1.8v-1.1c0-0.6-0.1-1-0.2-1.3s-0.3-0.5-0.6-0.6s-0.8-0.1-1.6-0.2v-2.3c0.9,0,1.5,0,1.7-0.1
		s0.4-0.2,0.5-0.5s0.1-0.6,0.1-1.1v-0.9c0-0.6-0.1-0.9-0.2-1.1s-0.3-0.3-0.5-0.3c-0.3,0-0.5,0.1-0.6,0.3s-0.2,0.6-0.2,1.2v1.3h-3.9
		v-1.3c0-1.5,0.3-2.5,1-3.1s1.8-0.8,3.3-0.8c1.9,0,3.2,0.4,3.8,1.1s1,1.8,1,3.1c0,0.9-0.1,1.5-0.4,1.9S24.3,22.3,23.6,22.6z"/>
	<path class="st13" d="M35.3,28.9v2.7h-8.7l0-2.3c2.6-4.2,4.1-6.8,4.6-7.8s0.7-1.8,0.7-2.3c0-0.4-0.1-0.8-0.2-1
		c-0.1-0.2-0.4-0.3-0.7-0.3c-0.3,0-0.5,0.1-0.7,0.4c-0.1,0.2-0.2,0.7-0.2,1.4v1.5h-3.5v-0.6c0-0.9,0-1.6,0.1-2.1s0.3-1,0.7-1.5
		s0.8-0.9,1.4-1.1s1.3-0.4,2.1-0.4c1.6,0,2.8,0.4,3.6,1.2s1.2,1.8,1.2,3c0,0.9-0.2,1.9-0.7,2.9s-1.8,3.2-4,6.4H35.3z"/>
</g>
</svg>
