<svg id="Слой_1" data-name="Слой 1" xmlns="http://www.w3.org/2000/svg" viewBox="0 0 195.59 280.63"><defs><style>.cls-1{fill:#3a81c3;}.cls-2{fill:#dc2d1a;}.cls-10,.cls-15,.cls-2,.cls-3,.cls-5,.cls-6,.cls-7,.cls-9{fill-rule:evenodd;}.cls-3,.cls-4,.cls-7,.cls-8{fill:#fff;}.cls-11,.cls-5,.cls-6{fill:#eaa518;}.cls-11,.cls-13,.cls-6,.cls-7,.cls-8{stroke:#424242;}.cls-11,.cls-13,.cls-14,.cls-6,.cls-7,.cls-8{stroke-miterlimit:10;stroke-width:0.75px;}.cls-12,.cls-9{fill:#424242;}.cls-10,.cls-16,.cls-17{fill:#1d528d;}.cls-13,.cls-14{fill:none;}.cls-14{stroke:#fff;}.cls-15{fill:#feca0d;}.cls-16{font-size:22.08px;}.cls-16,.cls-17{font-family:Impact;}.cls-17{font-size:20px;}</style></defs><rect class="cls-1" x="-9.32" y="-8.4" width="214.01" height="297.89"/><g id="layer5"><path id="path1481" class="cls-2" d="M97.79,141c-7.67-7.67-24-12.15-35.74-18.47-16.91-9.12-15.95-19.6-16-33.23l0-78.22H97.87C105.38,75.07,104.58,134.21,97.79,141Z"/><path id="path1483" class="cls-2" d="M98,141c7.67-7.67,24-12.15,35.74-18.47,16.91-9.12,16-19.6,16-33.23l0-78.22H97.87"/></g><g id="layer4"><path id="path2505" class="cls-3" d="M46.6,101.83H149.13c1.14,22.26-40,27.33-51.16,39.05C87.15,130.16,45.91,124.07,46.6,101.83Z"/><g id="g2749"><path id="path2509" class="cls-3" d="M97.45,58.39,71.76,104.75h28.82C99.55,89.23,102.19,60.11,97.45,58.39Z"/><path id="path2512" class="cls-3" d="M97.9,57.36l26.28,47.39H95.36C96.4,89.3,92.7,80.53,97.9,57.36Z"/></g><rect id="rect2514" class="cls-4" x="58.68" y="99.11" width="7.05" height="5.91"/><rect id="rect2520" class="cls-4" x="129.87" y="99.18" width="7.2" height="5.47"/><rect id="rect2753" class="cls-4" x="119.1" y="96.27" width="14.43" height="9.75"/><rect id="rect2755" class="cls-4" x="62.32" y="95.9" width="14.14" height="7.24"/></g><g id="layer3"><g id="g3751"><path id="rect3705" class="cls-5" d="M98.64,41.93V57.7c-.48-.15-1.61.35-1.52-.37V41.93Z"/><path id="rect2830" class="cls-5" d="M92.36,46.72h11.17c-.14.47.29,1.49-.27,1.53H92.36Z"/><g id="g2802"><path id="path2776" class="cls-6" d="M98.56,41.93c.8.13,1.81-.28,2.45.27A.85.85,0,0,1,100,43.46l-1.39-.05"/><path id="path2778" class="cls-6" d="M97.26,43.48c-.79-.13-1.81.28-2.45-.27-.54-.89.42-1.54,1.23-1.28h2.74"/><path id="path2780" class="cls-6" d="M98.68,43.2v3.65M97.14,57.72c0-3.25,0-6.51,0-9.77m1.5,0v9.72M97.19,46.85V43.31"/></g><path id="path2812" class="cls-6" d="M103.53,48.08c-.12.79.29,1.81-.27,2.45A.85.85,0,0,1,102,49.46l0-1.38"/><path id="path2814" class="cls-6" d="M102,46.88c.13-.83-.29-1.88.27-2.55a.87.87,0,0,1,1.27,1.07c0,1.08,0,2.17,0,3.26"/><path id="path2816" class="cls-6" d="M102.1,48.2H98.55m0-1.54,3.55.06"/><path id="path2822" class="cls-6" d="M92.32,48.08c.12.79-.29,1.81.27,2.45a.85.85,0,0,0,1.25-1.07l0-1.38"/><path id="path2824" class="cls-6" d="M93.86,46.78c-.12-.8.29-1.81-.27-2.45-.91-.55-1.53.44-1.27,1.26v2.86"/><path id="path2826" class="cls-6" d="M93.75,48.2H97.3m0-1.54-3.55.06"/></g><g id="g2646"><path id="rect2611" class="cls-7" d="M62.19,99.32V52.75H76.44V96.61"/><rect id="rect2617" class="cls-8" x="61.07" y="68.73" width="16.5" height="2.92" rx="1.04"/><rect id="rect2619" class="cls-8" x="61.07" y="74.47" width="16.5" height="2.92" rx="1.04"/><rect id="rect2621" class="cls-8" x="61.07" y="80.21" width="16.5" height="2.92" rx="1.04"/><g id="g2625"><path id="rect2593" class="cls-9" d="M64.24,57.88c0-3.29,4.4-3.3,4.46,0v7.88H64.37Z"/><path id="path2623" class="cls-9" d="M69.93,57.88c0-3.29,4.4-3.3,4.46,0v7.88H70.05Z"/></g><g id="g2629"><path id="path2631" class="cls-9" d="M64.24,87c0-3.29,4.4-3.3,4.46,0v7.88H64.37Z"/><path id="path2633" class="cls-9" d="M69.93,87c0-3.29,4.4-3.3,4.46,0v7.88H70.05Z"/></g><path id="path2635" class="cls-7" d="M62.12,53.73l-2-4.11H78.56l-2,4.11Z"/><path id="path2637" class="cls-10" d="M59.94,49.63l9.38-21.56,9.37,21.56Z"/><rect id="rect2639" class="cls-11" x="67.76" y="26.73" width="3.1" height="2.21" rx="1.04"/></g><g id="g2661"><path id="rect2663" class="cls-7" d="M119.41,96.19V52.75h14.25V99.11"/><rect id="rect2665" class="cls-8" x="118.29" y="68.73" width="16.5" height="2.92" rx="1.04"/><rect id="rect2667" class="cls-8" x="118.29" y="74.47" width="16.5" height="2.92" rx="1.04"/><rect id="rect2669" class="cls-8" x="118.29" y="80.21" width="16.5" height="2.92" rx="1.04"/><g id="g2671"><path id="path2673" class="cls-9" d="M121.46,57.88c0-3.29,4.4-3.3,4.46,0v7.88h-4.33Z"/><path id="path2675" class="cls-9" d="M127.15,57.88c0-3.29,4.4-3.3,4.46,0v7.88h-4.34Z"/></g><g id="g2677"><path id="path2679" class="cls-9" d="M121.46,87c0-3.29,4.4-3.3,4.46,0v7.88h-4.33Z"/><path id="path2681" class="cls-9" d="M127.15,87c0-3.29,4.4-3.3,4.46,0v7.88h-4.34Z"/></g><path id="path2683" class="cls-7" d="M119.34,53.73l-2-4.11h18.49l-2.06,4.11Z"/><path id="path2685" class="cls-10" d="M117.16,49.63l9.37-21.56,9.38,21.56Z"/><rect id="rect2687" class="cls-11" x="124.98" y="26.73" width="3.1" height="2.21" rx="1.04"/></g><g id="g2491"><path id="path2428" class="cls-8" d="M97.76,78.57c-1.59.07-3.16.87-3.21,2.46-1.44-.77-3,.22-3.78,1.65s-1,3.15.45,4c-1.4.86-1.28,2.77-.45,4.2s2.24,2.33,3.69,1.56c.05,1.63,1.78,2.56,3.43,2.56s3.19-.83,3.24-2.47c1.44.78,3.06-.22,3.89-1.65s.74-3.25-.65-4.11c1.39-.86,1.47-2.69.65-4.11s-2.26-2.32-3.7-1.55c0-1.64-1.78-2.56-3.43-2.56Z"/><path id="path2360" class="cls-12" d="M96.29,87.71a2.63,2.63,0,1,1-3.59-1A2.63,2.63,0,0,1,96.29,87.71Z"/><path id="path2362" class="cls-12" d="M104.05,83.24a2.63,2.63,0,1,1-3.6-1A2.63,2.63,0,0,1,104.05,83.24Z"/><path id="path2394" class="cls-12" d="M97.89,88.63a2.64,2.64,0,1,1-2.63,2.64A2.64,2.64,0,0,1,97.89,88.63Z"/><path id="path2396" class="cls-12" d="M97.89,79.68a2.64,2.64,0,1,1-2.63,2.64A2.64,2.64,0,0,1,97.89,79.68Z"/><path id="path2400" class="cls-12" d="M99.49,87.71a2.63,2.63,0,1,0,3.59-1A2.63,2.63,0,0,0,99.49,87.71Z"/><path id="path2402" class="cls-12" d="M91.83,83.24a2.63,2.63,0,1,0,3.6-1A2.62,2.62,0,0,0,91.83,83.24Z"/><path id="path2406" class="cls-12" d="M97.89,84.16a2.63,2.63,0,1,1-2.63,2.63A2.63,2.63,0,0,1,97.89,84.16Z"/></g><path id="path2487" class="cls-13" d="M91.67,77.78a10.88,10.88,0,0,1,6.18-1.92,9.76,9.76,0,0,1,6.6,2.09m4.29,7.91c0,.31,0,.62,0,.93a10.93,10.93,0,1,1-21.86,0,7.14,7.14,0,0,1,.07-.93"/><path id="path2489" class="cls-13" d="M107.83,86.79a10,10,0,1,1-20,0h0a10,10,0,1,1,20,0Z"/><path id="path2530" class="cls-13" d="M47.81,106.21H148.46"/><path id="path2532" class="cls-13" d="M48.22,108.3h99.41"/><path id="path2534" class="cls-13" d="M53,115.82h89.85"/><path id="path2536" class="cls-13" d="M64,123.34h68"/><path id="path2538" class="cls-13" d="M46.45,102H58.66V99.23H65.8V102h7.14V99.23h7.14V102h7.14V99.23h7.14V102h7.13V99.23h7.14V102h7.14V99.23h7.14V102h7.14V99.23h7.13V102h12.11"/><path id="path2540" class="cls-13" d="M62.21,108.3l.21,7.31"/><path id="path2543" class="cls-13" d="M134.57,108.3l.21,7.31"/><path id="path2545" class="cls-13" d="M126,108.3l.21,7.31"/><path id="path2547" class="cls-13" d="M117.45,108.3l.21,7.31"/><path id="path2549" class="cls-13" d="M71.16,108.3l.21,7.31"/><path id="path2551" class="cls-13" d="M80.1,108.3l.21,7.31"/><path id="path2553" class="cls-13" d="M89.05,108.3l.21,7.31"/><path id="path2555" class="cls-13" d="M108.89,108.3l.21,7.31"/><path id="path2557" class="cls-13" d="M66.69,115.92l.21,7.31"/><path id="path2559" class="cls-13" d="M75.63,115.92l.21,7.31"/><path id="path2561" class="cls-13" d="M121.73,115.82l.21,7.31"/><path id="path2563" class="cls-13" d="M130.29,115.72l.21,7.3"/><path id="path2565" class="cls-13" d="M71.42,123.13l.21,3.76"/><path id="path2567" class="cls-13" d="M80.37,123.23l.2,7.31"/><path id="path2569" class="cls-13" d="M126.12,123.11l.21,3"/><path id="path2571" class="cls-13" d="M117.55,123.21l.21,6.52"/><path id="path2575" class="cls-13" d="M121,99.38,97.92,57.66,75,99.17"/><path id="path2577" class="cls-13" d="M118.7,99.38,97.92,61.83,77.15,99.38"/><path id="path2579" class="cls-13" d="M116.22,99.42l-7.49-13.65M87.05,86,79.74,99.22m24.5-21.46L97.92,66.35,91.6,77.78"/><path id="path2584" class="cls-7" d="M84.27,132.38V122.22a13.66,13.66,0,1,1,27.31,0v10.16"/><path id="path2587" class="cls-13" d="M86.84,133.71V122.22a11.08,11.08,0,0,1,22.16,0v11.63"/><path id="path2597" class="cls-9" d="M90.62,121.29c-.05-5.44,7.28-5.46,7.38,0l.15,19.79a27.12,27.12,0,0,0-7.53-5.32Z"/><path id="path2599" class="cls-9" d="M97.85,121.29c0-5.44,7.29-5.46,7.38,0v14.47a90.74,90.74,0,0,0-7.38,5.32Z"/><path id="path2601" class="cls-9" d="M94.23,117.84c0-5.43,7.29-5.45,7.39,0v12.85H94.23Z"/><rect id="rect2757" class="cls-11" x="95.32" y="57.47" width="5.21" height="2.42" rx="1.04"/></g><g id="layer2"><path id="path3989" class="cls-14" d="M97.79,141c-7.67-7.67-24-12.15-35.74-18.47-16.91-9.12-15.95-19.6-16-33.23l0-78.22H97.87"/><path id="path1478" class="cls-14" d="M98,141c7.67-7.67,24-12.15,35.74-18.47,16.91-9.12,16-19.6,16-33.23l0-78.22H97.87"/></g><path id="_50117184-1" data-name=" 50117184-1" class="cls-10" d="M147.93,171.66a73.47,73.47,0,0,0-100,0V268h100Z"/><path id="path3826" class="cls-4" d="M147.93,196.39h-.2c-1.23.06-2.93,1-4.85,2.17-3.11,1.81-6.73,3.92-11.13,3.9-3.83,0-6.39-1.65-9-3.27-2.25-1.43-4.51-2.86-7.62-2.81s-4.87,1.35-6.8,2.68c-2.39,1.64-4.83,3.31-9.17,3.4s-7-1.64-9.73-3.35c-2.2-1.39-4.37-2.77-7.41-2.73s-4.94,1.32-6.89,2.61c-2.42,1.62-4.9,3.27-9.33,3.34-4.64.07-7.57-1.75-10.33-3.47-2-1.26-4-2.46-6.32-2.48-.44,0-.84,0-1.22.05v-6.06h.64c2.37,0,4.29,1.21,6.33,2.48,2.76,1.72,5.69,3.54,10.32,3.46,4.44-.07,6.91-1.71,9.34-3.33,2-1.3,3.86-2.57,6.89-2.61s5.21,1.33,7.4,2.73c2.68,1.7,5.4,3.43,9.74,3.34s6.77-1.76,9.17-3.4c1.92-1.32,3.82-2.62,6.8-2.67s5.37,1.38,7.62,2.8c2.57,1.63,5.13,3.25,9,3.27,4.39,0,8-2.08,11.12-3.89,1.93-1.13,3.63-2.12,4.85-2.18h.78v6Z"/><path id="path3824" class="cls-4" d="M147.93,171.66l-.29-.27h-.06c-2,.1-4.05,1.28-6.34,2.62-2.75,1.6-6,3.47-9.47,3.45-2.89,0-5.06-1.39-7.24-2.77-2.66-1.68-5.33-3.37-9.41-3.3s-6.26,1.64-8.59,3.24c-2,1.37-4,2.77-7.39,2.83s-5.65-1.39-7.92-2.84C88.61,173,86,171.33,82,171.39s-6.3,1.59-8.65,3.15c-2,1.36-4.11,2.74-7.59,2.8-3.66.06-6.18-1.51-8.55-3s-4.73-3-8-3l-1,0-.28.25v5.19h.64c2.37,0,4.29,1.21,6.33,2.47,2.76,1.72,5.69,3.55,10.32,3.47,4.44-.07,6.91-1.72,9.34-3.33,2-1.3,3.86-2.57,6.89-2.61s5.21,1.33,7.4,2.73c2.68,1.7,5.4,3.42,9.74,3.34s6.77-1.76,9.17-3.4c1.92-1.32,3.82-2.62,6.8-2.67s5.37,1.37,7.62,2.8c2.57,1.62,5.13,3.24,9,3.27,4.39,0,8-2.09,11.12-3.9,1.93-1.12,3.63-2.11,4.85-2.17h.78v-5.18Z"/><path id="_160033752" data-name=" 160033752" class="cls-4" d="M48,180.51v6.26h.66c3.3,0,5.6,1.45,8,3s4.88,3,8.55,3c3.47,0,5.55-1.44,7.59-2.79,2.35-1.56,4.65-3.09,8.65-3.15S88,188.33,90.64,190c2.27,1.44,4.58,2.9,7.92,2.84s5.4-1.46,7.4-2.84c2.33-1.59,4.62-3.16,8.59-3.23s6.75,1.62,9.41,3.3c2.17,1.38,4.34,2.75,7.23,2.77,3.51,0,6.72-1.85,9.48-3.46C143,188,145,186.86,147,186.76h.93V180.5h-.78c-1.22.06-2.92,1.05-4.85,2.18-3.1,1.81-6.73,3.92-11.12,3.89-3.83,0-6.39-1.64-9-3.27-2.25-1.43-4.51-2.86-7.62-2.8s-4.88,1.35-6.8,2.67c-2.4,1.64-4.84,3.31-9.17,3.4s-7.06-1.64-9.74-3.34c-2.19-1.4-4.36-2.78-7.4-2.73s-4.94,1.31-6.89,2.61c-2.43,1.61-4.9,3.26-9.34,3.33-4.63.08-7.56-1.75-10.32-3.46-2-1.27-4-2.47-6.33-2.48Z"/><path id="_160033320" data-name=" 160033320" class="cls-15" d="M59,213.57h78c-7.19-5.21-15.11-9-24.29-8.26-8,.63-12.56,3.66-14.7,7.79-2.14-4.13-6.69-7.16-14.7-7.79-9.18-.72-17.1,3.05-24.29,8.26Z"/><path id="_160034136" data-name=" 160034136" class="cls-15" d="M98,228.56a35.6,35.6,0,0,1-1.86,4.95A46.83,46.83,0,0,0,98,239.05a46.83,46.83,0,0,0,1.86-5.54A35.6,35.6,0,0,1,98,228.56Z"/><path id="_159703344" data-name=" 159703344" class="cls-3" d="M98.4,240.09a62.28,62.28,0,0,0,2.79,6.19,61.85,61.85,0,0,0,2.57-6.12,56.41,56.41,0,0,1-3.46-5.54A49.34,49.34,0,0,1,98.4,240.09Z"/><path id="_159703128" data-name=" 159703128" class="cls-3" d="M111.47,222.64c3.23,8.13,3.65,18.68,2.53,27.8a79.29,79.29,0,0,1-8.78-10.11,33.26,33.26,0,0,0,2.18-13.64c-.41-4.6-3.34-8.07-7.49-7,.66-.62.11-.7,2.36-1.52S110.07,218.84,111.47,222.64Z"/><path id="_159702384" data-name=" 159702384" class="cls-3" d="M101.41,248.88c1.17,1.94,2.39,3.79,3.61,5.48a79.52,79.52,0,0,0,2.06-9.49c-.82-1-1.61-2.07-2.38-3.13A65.32,65.32,0,0,1,101.41,248.88Zm-8-22.26a8.12,8.12,0,0,0,0,1.78C93.41,227.8,93.42,227.21,93.43,226.62Z"/><path id="_160035048" data-name=" 160035048" class="cls-3" d="M115.92,236.71a83.09,83.09,0,0,0,8.42,6c-1.84-12.5-4.91-19.22-10.2-23.56-2.51-2.06-6.76-3-9.56-1.77a9,9,0,0,1,8,4.73c2.14,4,3.06,9.25,3.36,14.63Z"/><path id="_159703440" data-name=" 159703440" class="cls-3" d="M104.32,238.92a49.45,49.45,0,0,1-5.46-10.08c-.23-.59-.61-1.47-.79-2.08a11.59,11.59,0,0,0,.1-3.91c.37-2.27,3-3.14,5-1.93a7.17,7.17,0,0,1,3,6.12,44.84,44.84,0,0,1-1.89,11.88Z"/><path id="_159703656" data-name=" 159703656" class="cls-3" d="M97.5,240.09a62.28,62.28,0,0,1-2.79,6.19,59.54,59.54,0,0,1-2.57-6.12,56.41,56.41,0,0,0,3.46-5.54A49.34,49.34,0,0,0,97.5,240.09Z"/><path id="_160109872" data-name=" 160109872" class="cls-3" d="M84.43,222.64c-3.23,8.13-3.65,18.68-2.53,27.8a79.29,79.29,0,0,0,8.78-10.11,33.09,33.09,0,0,1-2.18-13.64c.41-4.6,3.34-8.07,7.49-7-.66-.62-.11-.7-2.36-1.52s-7.8.7-9.2,4.5Z"/><path id="_159703848" data-name=" 159703848" class="cls-3" d="M98,241.56a54.54,54.54,0,0,1-3.18,7,78.68,78.68,0,0,0,3.18,8,78.68,78.68,0,0,0,3.18-8A53.19,53.19,0,0,1,98,241.56Z"/><path id="_160110304" data-name=" 160110304" class="cls-3" d="M94.49,248.88c-1.17,1.94-2.39,3.79-3.61,5.48a79.52,79.52,0,0,1-2.06-9.49c.82-1,1.61-2.07,2.38-3.13A63.5,63.5,0,0,0,94.49,248.88Z"/><path id="_160136120" data-name=" 160136120" class="cls-3" d="M80,236.71a83.09,83.09,0,0,1-8.42,6c1.84-12.5,4.91-19.22,10.2-23.56,2.51-2.06,6.76-3,9.56-1.77a9,9,0,0,0-8,4.73c-2.14,4-3.06,9.25-3.36,14.63Z"/><path id="_159703368" data-name=" 159703368" class="cls-3" d="M98,221a7,7,0,0,0-4.51-5.51l-.06,0h9.14l-.06,0A7,7,0,0,0,98,221Z"/><path id="_160110016" data-name=" 160110016" class="cls-3" d="M91.58,238.92A49.45,49.45,0,0,0,97,228.84c.23-.59.61-1.47.79-2.08a11.59,11.59,0,0,1-.1-3.91c-.37-2.27-3-3.14-5-1.93a7.17,7.17,0,0,0-3,6.12A44.84,44.84,0,0,0,91.58,238.92Z"/><path class="cls-4" d="M79.88,99.63C67.24,99.63,57,109.8,57,130.14,57,155.57,75.21,181,97.68,181s40.69-25.43,40.69-50.86c0-20.34-10.25-30.51-22.89-30.51a22.89,22.89,0,0,0-17.8,8.5,22.86,22.86,0,0,0-17.8-8.5Zm0,0"/><rect class="cls-4" x="24.86" y="112.84" width="145.64" height="54.95" rx="5.46"/><text class="cls-16" transform="translate(72.67 136.57)">Płock</text><text class="cls-16" transform="translate(44.99 159.4)">Navapołack</text><path class="cls-4" d="M44.88,0l-29,0h-16L0,16c0,7,0,14,0,21A29.09,29.09,0,0,0,44.88,0Z"/><text class="cls-17" transform="translate(15.51 31.75)">36</text></svg>