<svg id="Слой_1" data-name="Слой 1" xmlns="http://www.w3.org/2000/svg" viewBox="0 0 195.59 280.63"><defs><style>.cls-1{font-size:63.44px;}.cls-1,.cls-12,.cls-3{fill:#010101;}.cls-1,.cls-13{font-family:Impact;}.cls-2{fill:#e52521;}.cls-11,.cls-3,.cls-4,.cls-5,.cls-6{fill-rule:evenodd;}.cls-4{fill:#2f4f9e;}.cls-13,.cls-5,.cls-9{fill:#fff;}.cls-6,.cls-8{fill:#ffdd08;}.cls-7{fill:none;}.cls-10,.cls-11{fill:#f4e600;}.cls-13{font-size:20px;}</style></defs><text class="cls-1" transform="translate(44.44 266.44)">Orla</text><g id="g4362"><g id="g4307"><g id="layer1"><path id="path3405" class="cls-2" d="M24.24,27.88l0,109.33v.09c.36,29.49,26,70.53,74.6,70.53,46.72,0,74.34-38.09,74.53-70.62l0-109.33Z"/></g><g id="g4301"><path id="path4288" class="cls-3" d="M112.67,142.1a4.5,4.5,0,0,1-4.8,3.18c-.66,9.63,17.27-1.36,13.45,9.62-4-4-4.78,1.46-8.73-1.25a4.15,4.15,0,0,0-4.21-.49c.55,3,5.27,6.63,15,6.91,4.39.66,12,1.08,11.44,9.9-.67,5.68-8,3.69-7.78,9.61-3.73-2-4.36-5.74.09-8.23-5.63,1.25-7.1-2.5-2.92-6.72-4.66,1-11,1.7-16.34-7.22-.86-.5-1.18-.46-1.46,1.47.54,3.31,2.25,7,7.59,7.17,0,2-3.33,2-6.35,1.88,1.38,3.4,7.33,1,9.44,2.28,3.33,2,3,8.65-1.63,9.34.71-1.74.86-3.26-1.1-4-2.1-.24-6.64-2-7,.37,1.23,3.56,3.2,3.39,5.4,2.1-.35,4.27-3.15,4.75-6.13,4.94.13,3.7-.56,5.37-3.17,7-2.62-1.35-3.43-3.36-3.3-7.07-3-.19-5.78-.67-6.12-4.93,2.19,1.28,4.16,1.45,5.39-2.11-.34-2.34-4.3-1.43-6.4-1.19-2,.77-1.8,2.3-1.1,4-4.58-.69-5.08-6.83-1.74-8.87,2.11-1.3,7.7.42,9-1.92-3,.15-5.79-1.28-5.76-3.3,5.33-.19,6.22-3.27,6.76-6.58-.28-1.93-.6-2-1.46-1.47-5.38,8.92-10.16,9.48-14.82,8.51,1,5.16-1.26,7.15-5.85,7,3.17,2.61,2.77,5.37.09,8.23.85-4.39-7.46-5.45-7.77-9.6C69.21,158.42,79,160.7,83.43,160c9.71-.28,12-3.67,12.53-6.68-1.53-.72-1.82-.05-2.93.74-8.16,3.05-7.87-4.25-11.89-.28-.77-10.63,16.57.94,15.91-8.69-2.45.16-3.25-1.1-3.93-3.11,6-.35,5.44-6.5,4.21-12.43-4.22,4.15-6.14,11.92-4.67,16.27-4.36-1.24-4.74-5.71-4-11.06a17.11,17.11,0,0,0-6.4,3.75c-1.24-5.07,5.3-8.22,8.59-13.54,2.5-4.29,2.7-9.34-1.37-15.82-.13,10-3,16.35-10.24,17.29,3.12-5,2.81-10.49,1.83-16-2.13,11.74-4.34,25.25-5.76,21.95A56.75,56.75,0,0,0,78.12,119c-2.47,8-2.83,18.59-11.7,18.56,3.32-7,3.62-18.26,4.11-29.26-3,9.26-4.32,27.91-9.14,27.8,3.92-6.05,4.69-15.94,6.86-24.69-4.93,14.23-9.51,38-24.88,35.48,7.8-13.26,18.22-38.16,14.27-42.34C56,116.94,47.15,136.53,43,137.91c2.89-3.09,14.92-28.4,12.72-33.2-2.94,9.59-6.28,18.59-17.11,16.46,5.78-6.22,9-14.76,10.34-24.87,0,.17-6.91,15.3-7.68,12C44,103.8,47.29,99.14,47,96c-1.94,2.76-4.22,5-8.32,4.12a31.46,31.46,0,0,0,4.93-15c-1,1.62-2.06,5.85-3.29,4,.44-.08,2.45-3.73,1.83-6.22-.77,1.58-7.9,2-7.59.73,19.35-9.9,7.38-27.1,21.58-27.25C65,56.81,65,65.71,61,69.13c5,5.2,2.91,9,1.28,12.17,4,.55,6.41,1.6,6,7,1.82.31,5.81-2.12,9,4.39,2.85-.53,6.42-.79,9.51,2a6.89,6.89,0,0,1,4.21-5.85c-.05.18-3.23-.23-2.66-.83a4.65,4.65,0,0,0,3.57-2.56c-2.61-1.61-8.07-1.34-8.69.64-.62-4.2,4.91-.69,10.25-6.12-1.15-1-4.52-1.13-4.67-.83.36-2.77,5.7-1.34,8.87-1.73-.46-1.37-1.95-2.23-4.84-2.38,1.6-3.88,6.76.68,8-3.48-2.7-1.4-10,1.4-9.69-1.64-.73-2.12,8.36.22,10.88-1.74-5-.57-9.67-.63-13,.74-4.7,1.92-11.63,1-8.64-4.77,1.31,8.26,12.59,1.36,19,1.83a13.12,13.12,0,0,0-12,.83C84.61,59,90.94,59,94.77,56.79c.8-4,9.81-.8,14.72-1.19,2,.16,4.74,1.32,4.94-1,1.15,3.11-.16,4.41-2.65,4.85-.12.67,1,5.18,5.39,3.38-.77,1.32-.25,3.57-3.47,3.11,1.29,2.91,3,4.84,5.94,3.39-.8,2.31-1.11,5.15-5.67,3.47-.1,3.37,1.66,5.19,4.48,6.13-1.48,2.55-3.33,2.27-5.3,1.19-.28,1.71-1.4,4.72,2.1,4.48-1.33.4-2.25,2-4.48-.09.57,4.38,6,4.06,6.77,9.23,3.12-2.2,5.75-1.19,8.14,1.47,3.11,1.82,3.73-.1,4.48-1.83.07-6.05,3.23-5.06,5.85-5.31,1-4.48,2.19-8.45,4.39-9.32a2.73,2.73,0,0,0-.54-2.66c-3-1.74-1.51-7.42,1.82-7.86-4.1-9.11,4.27-12.54,9.7-10.06,8.41,3.75,1.07,13.41,13.9,24.42-2.65,1.3-5,.69-7.13-.92.84,3.63,2.89,5.65,4.39,8.42-2,.48-2.77-4.37-4.49-4.85,2,6,2.15,8.18,9.06,17.38-4.87.71-7.4-3.25-10.43-6.22.7,4.55,6.3,14.85,9.33,18.47-1.2,3.23-6-8.84-9-13.26.7,8.7,4.87,15,7.77,22.13-7.88,2.14-9.76-8.48-14.17-13.72,3.59,9.58,6,22.72,11.15,27.53-4.68-.06-8.72-18.72-13.08-28.08,2.05,8,.14,21.88,12.44,38.32-17.12,4.61-17.43-21.62-22.95-37.95-.19.16,5.35,32.55,6.86,31.55-1,7.74-8.42-29.76-8.42-29.81-.66,9.81-.66,17.92,1.83,25.06-12-1.49-9.13-12.76-12.44-20.76,1.29,7.24,0,15.84,4,21-4.71-1.26-4.28-16.07-6.4-24.14-3.08,4.94-.79,10.19.27,15.36-7.25-2-6.92-12-10.06-18.38-3.86,20,10.9,21,9.33,30.64a10.81,10.81,0,0,0-5.12-3.75c1.13,9.19-2,9.51-4.67,11,5.6-8.12-2.5-12.73-5.48-18.66C108.88,134,107.25,142.33,112.67,142.1Z"/><g id="g4297"><path id="path4293" class="cls-4" d="M94.16,58.16c-3.53,1.41-8.63,1.49-6.41,7.83a10.93,10.93,0,0,1,12.17-.11,3,3,0,0,1,3.27,2.18c-2.3,2.66-11.94.28-11.42,2.06-.88,2.44,6.34-.11,9.78,1.2,3.12-.78,3.34-3.71,2.07-5.11C101.39,63.62,95.87,62.59,94.16,58.16Z"/><path id="path4295" class="cls-5" d="M97.31,59.69c3.91-1,6,1.61,10.12,2-1.58.43-3.59-.17-5.09-.55-.09,1.25-2.74,1.62-2.21-.45C100,59.57,98.27,60.05,97.31,59.69Z"/></g></g><g id="g4267"><g id="g4214"><path id="path2186" class="cls-3" d="M132.85,163.92c1,.3,1.26,1,2.25,1.18,2.76-6.57,5.33-13.21,9.63-19.15a3.36,3.36,0,0,1,2.45-1.24c1.92.49,6.13-3.35,5.9-5.17a16.43,16.43,0,0,0,4.07-4.45c0-.46-.4-.3-.67-.64a15.78,15.78,0,0,0,4.09-4.23c.16-.44-.49,0-.62-.51.62-1,2.13-1.72,4.49-4.34.13-.35-.12-.39-.21-.55,2.78-3.12,5.63-5.86,8.45-8.75-1.63-4.44-4.17-7.71-9.25-9.25-2.19,3.61-4.13,7.43-6.58,10.81l-.09-.6c-1.08,2.33-2.6,3.82-3.35,6.69l-.23-.45a17.21,17.21,0,0,0-3.35,5.65l-.08-1c-1.23,2.34-3,4.15-3.61,7.08-1.13-.31-3.59,3.35-3.07,4.84.64,2.47-.85,5.42-1.83,7.17C137.34,152,135.18,158.14,132.85,163.92Z"/><path id="path3168" class="cls-6" d="M160.83,123.55c.56.79,1.74,1,2.67,1.22,2.57-3,5.22-6,8.09-9a.87.87,0,0,0-.4-1c-2.72,2.4-5.36,5.25-8.06,7.86,2.41-2.87,4.92-5.74,7.67-8.65.15-.54-.2-.76-.43-1.06-2.5,2.73-5.37,5.87-7.71,8.39A5,5,0,0,1,160.83,123.55Z"/><path id="path3170" class="cls-6" d="M162.85,120.84c2.26-2.35,4.66-6.23,7.22-8.36a1,1,0,0,0-.79-.91c-1.67,1.89-3.61,4.37-5.41,6.19C163.69,118.63,163.2,119.79,162.85,120.84Z"/><path id="path3172" class="cls-6" d="M163.16,116.69c1.6-2.1,3.07-4.24,5-6.28.37.07.73.15.55.66a66.06,66.06,0,0,1-4.69,6.08C164.08,116.53,163.76,116.45,163.16,116.69Z"/><path id="path3174" class="cls-6" d="M158.12,121.07c-.57-.69-.31-1.84-1-2.48-.12-.33-.31-.63.28-1.25,2.19-2.93,4.18-6.24,6.26-9.39.87-.39,1,.06,1,.5l-5.94,9.29c2.14-2.61,4.35-5.66,6.62-9,.53,0,1,0,.88.64-1.65,2.2-3.33,4.63-5.05,7.37l5.64-7.08c.41-.13.72,0,.8.54l-4.81,6.57C161.22,118.07,159.19,117.86,158.12,121.07Z"/><path id="path3176" class="cls-6" d="M134.91,164.54l-1.56-.91a91.06,91.06,0,0,1,9-17.86,7.72,7.72,0,0,0,1.4-5.06c-.92-2.3,1.09-5,2.27-5.4,1.47,2.29-.41,4.75-.87,6.06,1.27-1.34,2.44-2.8,2-5.12-1.3-2.8,1.38-4.8,2.41-7.13,1.35,2.64.11,5.21-1.13,7.77,1.27-1.81,2.79-3.25,2.11-6.31-1-2.85,1.43-4.55,2.64-6.55,2.46,3.92-1.91,7.69-1.65,8.39,1-1.84,3.49-3.83,2.58-6.51-1.15-3.48,1.38-5.06,2.45-7.39,1.41,2.76.49,5.49-1.07,8.21a7.3,7.3,0,0,0,2.75-4.88c1.22-3.83,3.53-3.94,5-4.67-.11,1-.63,5.14-3.64,6.42a10.74,10.74,0,0,0-3.1,3.34c1.35-.43,2.38-3.88,6.52-1.72-1.23,1.65-2.09,3.6-5.45,3.53-2.29-.07-3.35,2-4.58,3.71,1.42-.65,2.09-4.16,6.09-2.39-.13.85-1.74,4.26-5.22,4.09a5.65,5.65,0,0,0-4.26,3.18c.83-.32,2.36-3.83,6.28-1.85-1.63,1.14-1.09,3.63-5,3.38-3-.28-3.94,2.27-5.17,3.68,1.53-.47,2.16-3.79,6.63-3-.77,1.67-1.6,4.08-5.49,4.16-1.3.06-2.32,1.18-3.29,2.53C139.87,152.2,137.5,158.39,134.91,164.54Z"/></g><path id="path4254" class="cls-3" d="M118.23,136.7a13.24,13.24,0,0,0-.08,6.28c5.77,4,11.27,10,16.85,15.46A68.55,68.55,0,0,1,141.27,147c.65-.88,1.16-1.42,1.43-1.43a2.17,2.17,0,0,0-2-.72c-2.08-.52-5.4.17-5.72,3.65,0,1.72-.76,1.91-1.76,1.61-4.59-4.16-8-7.91-12-11.87A4.49,4.49,0,0,1,118.23,136.7ZM142.5,151c2.5-2.21,5.86,3.49,1.91,4.59,2.45,1.48-.52,6.42-1.91,5.36.38,5.74-5.42,4.07-6.05,1.15,1.62-.45,3.46-1.6,3.14-3.07l2.14,1.3-2-1.53a3.15,3.15,0,0,0,1.84-3.75l2.07.46-2.15-.38C143.23,154.25,143.07,152.19,142.5,151Zm-6.2,11a4.89,4.89,0,0,1-.84-3.75,4.86,4.86,0,0,1,4.21.84C139.47,160.67,138.26,161.59,136.3,162Zm3.44-3.22c-.7-1-2.11-1.66-1.84-3.06,1-.69,2.41-.47,3.68-.53A3.12,3.12,0,0,1,139.74,158.82Zm1.84-3.67a13.74,13.74,0,0,0-2.36-1.47c.35-2.18,2-2.31,3.28-2.74C143.25,152.83,143,154.24,141.58,155.15Z"/><path id="path4265" class="cls-7" d="M140.75,144.84c-.81.92,0,1.72.48,2.13"/></g><g id="g4278"><g id="g4149"><g id="g4134"><rect id="rect4132" class="cls-8" x="64.35" y="131.95" width="4.23" height="45.3" transform="translate(-54.48 37.59) rotate(-22.69)"/><path id="rect4129" class="cls-9" d="M26.08,128.15c7.44-5,16.8-7.37,27.36-11.61L63.25,140l-6.84-2.93L50.79,123.5a17.84,17.84,0,0,0-4.93,2.41c-3.23,1.52-6.12,9.89-4.23,13.82,1.69,6.32,4.49,13.84,3.84,17.46A28.12,28.12,0,0,1,41,163.47C36.25,156.89,28.29,136.67,26.08,128.15Z"/></g></g><path id="path4242" class="cls-3" d="M88.81,134.41a11.17,11.17,0,0,0-5,2.05,121.47,121.47,0,0,1-11,11.76c-1.22,1.38-2.24.65-2.42,0-.2-2.29.23-4.9-2.37-4.78l-3.61-.07,5.79,14.19c5.51-6.61,12-11.68,18.29-17C88.83,138.29,89.38,135.88,88.81,134.41Zm-27.29,14c-3.11,1.43-2.18,4.45-.89,5.19-1.15,2.68-.06,5.37,2.8,5.35-1.09,3.31,3.11,4.56,3.8,4a1.86,1.86,0,0,0,.53-2.27,2.65,2.65,0,0,1-.92-2.61c-1.53-.95-2.42.12-3.27.8.78-.74,2.12-.93,1.49-2.58a1.75,1.75,0,0,1-.5-2.27c-.53-.82-2.33-.47-3.55-.38,1.29-.09,2.59.2,3.17-.76-1-1.36-.4-2.25.13-3.17C63.88,148.42,62.87,148.14,61.52,148.39Zm2.87,1.39c.79.3,1.72-.28,2.25,1.52a2.42,2.42,0,0,1-2.42,1.53C63.17,151.58,63.71,150.66,64.39,149.78Zm.14,4.09a2,2,0,0,0,.59,2.39c1.46.15,2.7,0,2.7-2.18A5.57,5.57,0,0,0,64.53,153.87ZM66.71,158a2.61,2.61,0,0,0,2.84-.83c.53,1.59-.35,2.76-1.76,3.43C66.7,160.06,66.85,159,66.71,158Z"/></g></g><g id="g4354"><path id="path4337" class="cls-7" d="M95.16,54.75l14.61-.15"/><path id="rect4349" class="cls-10" d="M101.57,40.58v1.49h-1.49V44h1.49v1.39h1.89V44h1.23V42.07h-1.23V40.58Z"/><path id="path4345" class="cls-11" d="M104.39,46.6a1.87,1.87,0,0,1-3.73,0h0a1.87,1.87,0,0,1,3.73,0Z"/><rect id="rect4347" class="cls-10" x="101.27" y="46.38" width="2.51" height="4.56"/><path id="path4343" class="cls-11" d="M93.78,51.4c-1.17-7.58,5.56-4.82,8.61-4.08,3.38-.67,10.81-3,8.79,4.43l-.61-.07c2-7.07-5-4.43-8.2-3.92-3.45-.67-9.14-3.48-8.05,3.79Z"/><path id="path4335" class="cls-5" d="M109.37,55.63l-14,0c0-2.13-2.5-3.28-2.6-5,1.33,1.44,4-.37,4.28,1.87-.59-.23-1.32,0-1.38.64.09.3.07.89,1,.88,1.53,0,1.15-1.15,1.48-1.77.26.68.31,1.53,1.18,1.72.88-.1,1.5-.44,1.47-1.33-.25-.79-.87-.63-1.52-.24-.07-2.5,3.08-1.36,3.34-3,.35,1.52,2.86.77,2.71,2.9-.52-.29-1.48-.39-1.53.39s0,1.29,1.09,1.33,1.21-1,1.47-1.42c.41.67-.1,1.64,1.23,1.62.82,0,1.49-.26,1.53-1.33-.93-.92-1.12-.37-1.58-.34.41-2.39,3,0,4.68-1.38C111.58,53.06,109.86,53.56,109.37,55.63Zm-6.64-3.07c0,.53-.19,1-.42,1s-.41-.43-.41-1,.18-1,.41-1S102.73,52,102.73,52.56Z"/></g></g><path class="cls-12" d="M44.92,0l-29,0H0L0,16c0,7,0,14,0,21A29.09,29.09,0,0,0,44.92,0Z"/><text class="cls-13" transform="translate(15.55 31.75)">23</text></svg>