<?xml version="1.0" encoding="utf-8"?>
<!-- Generator: Adobe Illustrator 26.0.1, SVG Export Plug-In . SVG Version: 6.00 Build 0)  -->
<svg version="1.1" id="Слой_1" xmlns="http://www.w3.org/2000/svg" xmlns:xlink="http://www.w3.org/1999/xlink" x="0px" y="0px"
	 viewBox="0 0 195.6 280.6" style="enable-background:new 0 0 195.6 280.6;" xml:space="preserve">
<style type="text/css">
	
		.st0{clip-path:url(#SVGID_00000165949396453275136930000011410745536264041100_);fill:#4DAF50;stroke:#1D1D1B;stroke-miterlimit:10;}
	
		.st1{clip-path:url(#SVGID_00000023997283195598822350000004433586174102274717_);fill-rule:evenodd;clip-rule:evenodd;fill:#222222;}
	
		.st2{clip-path:url(#SVGID_00000008145953905984528810000010977285558903749808_);fill-rule:evenodd;clip-rule:evenodd;fill:#2BAFE5;}
	
		.st3{clip-path:url(#SVGID_00000018206080239183843920000000390040796822418358_);fill-rule:evenodd;clip-rule:evenodd;fill:#3AA66E;}
	
		.st4{clip-path:url(#SVGID_00000163753812472775772280000014844526681714864522_);fill-rule:evenodd;clip-rule:evenodd;fill:#FFFEFE;}
	.st5{clip-path:url(#SVGID_00000039118334693345938810000010817273996219547577_);fill:#FFFEFE;}
	.st6{enable-background:new    ;}
	.st7{fill:#FFFEFE;}
	.st8{fill:#3AA66E;}
</style>
<g>
	<g>
		<defs>
			<rect id="SVGID_1_" width="195.6" height="280.6"/>
		</defs>
		<clipPath id="SVGID_00000152239763710607396750000002322347947456730502_">
			<use xlink:href="#SVGID_1_"  style="overflow:visible;"/>
		</clipPath>
		
			<rect x="-6.4" y="-12.6" style="clip-path:url(#SVGID_00000152239763710607396750000002322347947456730502_);fill:#4DAF50;stroke:#1D1D1B;stroke-miterlimit:10;" width="478.2" height="297.9"/>
	</g>
	<g>
		<defs>
			<rect id="SVGID_00000103958113173954590470000006991542678844003255_" width="195.6" height="280.6"/>
		</defs>
		<clipPath id="SVGID_00000157308912294293896400000004115925119532375443_">
			<use xlink:href="#SVGID_00000103958113173954590470000006991542678844003255_"  style="overflow:visible;"/>
		</clipPath>
	</g>
	<g>
		<defs>
			<rect id="SVGID_00000011719420432516486120000008165856642901279160_" width="195.6" height="280.6"/>
		</defs>
		<clipPath id="SVGID_00000016782355936450259000000016096113524820686210_">
			<use xlink:href="#SVGID_00000011719420432516486120000008165856642901279160_"  style="overflow:visible;"/>
		</clipPath>
		
			<path style="clip-path:url(#SVGID_00000016782355936450259000000016096113524820686210_);fill-rule:evenodd;clip-rule:evenodd;fill:#222222;" d="
			M174.7,43v109.2c0,93-153.9,93-153.9,0V43H174.7"/>
	</g>
	<g>
		<defs>
			<rect id="SVGID_00000103956852475364199000000017014919542854752185_" width="195.6" height="280.6"/>
		</defs>
		<clipPath id="SVGID_00000147920889621316588180000008015446947979563671_">
			<use xlink:href="#SVGID_00000103956852475364199000000017014919542854752185_"  style="overflow:visible;"/>
		</clipPath>
		
			<path style="clip-path:url(#SVGID_00000147920889621316588180000008015446947979563671_);fill-rule:evenodd;clip-rule:evenodd;fill:#2BAFE5;" d="
			M26,170.6c-1.7-6.3-2.6-12.7-2.5-19.2V46h145.8l-6.5,3.3l2.5,2.7l-7.8,2.6l2.4,2.2l-8.4,3.3l2.1,2.9l-8.9,3.3l2.6,2.5l-8.3,3.6
			l2.2,1.9l-2.4,1l-5.4-11l-7.5,13l2.9,0.4l-3,8.2l-2.5,0.9l2.8,1.7l-5.9,2.6l1.7,1.6l-6,2l2.2,1.9l-2.9,1l-2.4-4.7h3.9l-7.6-15.1h4
			l-7.8-14.2L99,77.4l3.4,0.2L95.1,92l3.2-0.1l-6,16.4l3.3-0.1l-3.2,9.4l-4.3-8.7l4.3-0.2L84.3,92l4.5-0.4L81,77.7h3.9l-7.4-13.4
			l-6.8,13.1l3-0.1l-6.4,14.1l4.1,0.1l-8,17.3l4.4-0.1l-4,11.1l-5.5-10.6L63,109l-8.3-16l5-0.3l-7-15l3.4-0.1l-7.3-13.8l-6.3,13.6
			l2.5,0.1l-6.2,14.7l3.1,0.2l-7.4,16.4l5.7-0.1l-9.2,20l5,0.1l-10.2,20.9h8c0.4,9.2-6.4,14.2-6.7,24.7
			C26.7,174.1,26.4,171.1,26,170.6"/>
	</g>
	<g>
		<defs>
			<rect id="SVGID_00000132779460771610950270000008193493153173090194_" width="195.6" height="280.6"/>
		</defs>
		<clipPath id="SVGID_00000140712263419467440890000002479625223066093742_">
			<use xlink:href="#SVGID_00000132779460771610950270000008193493153173090194_"  style="overflow:visible;"/>
		</clipPath>
		
			<path style="clip-path:url(#SVGID_00000140712263419467440890000002479625223066093742_);fill-rule:evenodd;clip-rule:evenodd;fill:#3AA66E;" d="
			M98.5,146c1.7,0,3,1.3,3,3s-1.3,3-3,3s-3-1.3-3-3S96.9,146,98.5,146z M124.7,116.8l8.1,3.8l-1.5,2.7l6.4,3.6l-1.8,1.5l4.4,5.3
			l-2.1,1.1l4.2,6.4l-2.1,0.4l2.6,7l-2.7,0.1l2.7,6.8H140v7.1l-2.4-0.6c0.1,2.4,0.3,4.7,0.5,7.1l-3-0.1c-0.3,1.9-0.6,3.8-0.9,5.8
			l-2.7-0.9c-0.9,2.3-2.3,4.9-3.2,7.2c-1-0.4-1.5-1.2-2.4-1.6l-4.5,5l-1.2-1.8l-6.2,6.1c-0.2-1-0.3-2-0.5-3l-6.8,4.2l-0.8-2.4
			l-7.1,2.9l0.2-2.9l-7.6,2l0.3-2.6l-8.2,0.4l1.5-2.9l-8.5-0.6l2.3-2.4l-8.2-1.2c0.6-0.9,1.2-1.8,1.8-2.7c-2.3-1-4.8-2.3-7.2-3.4
			c-7.6,7.2-16,15.7-23.6,23c39.6,39.7,130.8,24.4,130.8-45.7V70.6L124.7,116.8L124.7,116.8z M137.9,75.6l-4,1.6l1.5,2l-7.1,3.2
			l1.9,1.6l-2.8,1l3-8.1l-2.8-0.5l5.7-10.2L137.9,75.6L137.9,75.6z M114.1,97.9l-4.1,1.5l2.5,2.2l-7.8,3.7l2.5,1.6l-7.8,3.9l2.7,2
			l-7.7,2.9l2.6,2.4l-4.1,1.7l4.3-12.6h-3.5L99.5,91h-2.8l7.5-14.7h-3.4l4.8-10.4l6,10.9l-3.9-0.1l7.3,14.9l-4.1-0.1L114.1,97.9
			L114.1,97.9z M63.8,148.1l-6.2-0.4l9.6-20.6l-5.6,0.2c-0.4,1,6.4-12,8-19.7h-4l7.6-17l-4-0.1l6.2-14h-2.6l4.8-9.8l5.6,10.1
			L79.4,77L87,90.9l-4.6,0.3l8.4,16.5l-4.5,0.2l6,11.9l-4.6,1.9l1.9,2.2l-7.9,3l2.3,2.7l-7.6,2.7l2.3,3l-8.5,3.1l2.5,2.1l-8.5,3.3
			l2.8,2.8L63.8,148.1L63.8,148.1z M58.3,150.3l1.7,2.4l-6.8,2.1l1.7,2.5l-7.2,2.6l2.4,2.5l-8.4,3l2.5,3l-8.9,2.5l2.2,2
			c-2.8,1.4-5.7,2.3-8.8,2.7c-1.7-3,1-7.6,1.7-10.8c2.7-5.3,4.6-10.1,4.5-16.4l-7.2-0.2l10-21h-5.1l9.4-19.9h-5.5L44,91h-3.5
			l6.3-14.7L44,76.4l4.7-10.1l5.8,10.5H51l7.3,15.1L53.2,92l8.1,16.2l-4.4,0.5l6.4,12.6l-3.7,7.2l6-0.4l-10,20.7l6.3,0.2L58.3,150.3
			"/>
	</g>
	<g>
		<defs>
			<rect id="SVGID_00000082341748840275746820000002233539086621845409_" width="195.6" height="280.6"/>
		</defs>
		<clipPath id="SVGID_00000068671981429868074620000011542963422472630705_">
			<use xlink:href="#SVGID_00000082341748840275746820000002233539086621845409_"  style="overflow:visible;"/>
		</clipPath>
		
			<path style="clip-path:url(#SVGID_00000068671981429868074620000011542963422472630705_);fill-rule:evenodd;clip-rule:evenodd;fill:#FFFEFE;" d="
			M65.9,173.3l7.9,3.7l-1.7,2.7l8,0.9l-1.5,2.4l7.6,0.3l-1.1,2.8l7.6-0.3l-0.3,2.1l7.2-2v2.3l6.8-2.7l0.6,2.6l7.5-4.8v2.9l5.5-5.4
			l1.2,1.5l4-4.6l2.3,1.5l2.7-7l2.4,1.2l0.9-5.6l3,0.1l-0.1-7.1l2.3,0.4l-0.1-6.8l2.2-0.2l-2.7-6.7l3.2-0.1l-3.3-7l2.4-0.3l-4.3-6.1
			l2-1l-4-4.9l1.4-1.2l-6.4-3.3l1.7-2.7l-7.1-3.4l-58,55.6L65.9,173.3z M172.3,46v22.6L40.4,195.4c-5.1-5.1-9.2-11.2-11.9-17.9
			l12-3.8l-2.5-1.8l8.6-2.6l-2.5-3l8.5-3.4l-2.3-2.1l7-2.9l-1.9-2.3l6.9-2l-1.8-2.5l8.5-3.9l-2.3-2.5l8-3.3l-1.7-2.2l8.1-3.2
			l-2.1-2.7l7.2-3l-2.2-2.6l8.6-3.2l-2.5-2.1l9.4-4.3l-2.5-1.9l7.4-3.2l-2.4-2.1l8-3.9l-3.1-1.7l7.8-3.3l-2.5-2.1l8.3-3l-2.3-2
			l6.2-2l-1.8-1.4l6.7-2.7l-2.9-1.9l6.8-2.3l-2.5-1.9l7.1-2.8l-1.8-2.3l7.8-2.8l-2.4-1.9l8.2-3.5l-2.3-2.6l8.3-3.3l-1.8-2.8l8.4-3.7
			l-2.1-1.7l7.3-2.7l-2-2.5l6.1-4.1L172.3,46L172.3,46z M98.5,144.9c2.2,0,4.1,1.8,4.1,4.1s-1.8,4.1-4.1,4.1c-2.2,0-4.1-1.8-4.1-4.1
			C94.5,146.8,96.3,144.9,98.5,144.9"/>
	</g>
	<g>
		<defs>
			<rect id="SVGID_00000092418082781198842780000013593971905551141290_" width="195.6" height="280.6"/>
		</defs>
		<clipPath id="SVGID_00000070823295079808685310000013879534148970297260_">
			<use xlink:href="#SVGID_00000092418082781198842780000013593971905551141290_"  style="overflow:visible;"/>
		</clipPath>
		<path style="clip-path:url(#SVGID_00000070823295079808685310000013879534148970297260_);fill:#FFFEFE;" d="M150.5,0h29h16v16
			c0,7,0,14,0,21c-10.2,12.4-28.6,14.2-41,4S140.3,12.4,150.5,0z"/>
	</g>
	<g>
		<defs>
			<rect id="SVGID_00000003793572285382408350000001475691396900905878_" width="195.6" height="280.6"/>
		</defs>
		<clipPath id="SVGID_00000064338957382425147150000003994530790387173035_">
			<use xlink:href="#SVGID_00000003793572285382408350000001475691396900905878_"  style="overflow:visible;"/>
		</clipPath>
	</g>
</g>
<g class="st6">
	<path class="st7" d="M41,232.4V264h-8.2v-13.3h-2.5V264h-8.2v-31.6h8.2v11.3h2.5v-11.3H41z"/>
	<path class="st7" d="M51.1,248.1h-7.4v-1.7c0-2,0.2-3.6,0.7-4.6c0.5-1.1,1.4-2,2.8-2.9c1.4-0.8,3.2-1.2,5.4-1.2
		c2.7,0,4.7,0.5,6,1.4c1.4,0.9,2.2,2.1,2.4,3.5c0.3,1.4,0.4,4.2,0.4,8.5v13h-7.7v-2.3c-0.5,0.9-1.1,1.6-1.9,2.1
		c-0.8,0.5-1.7,0.7-2.7,0.7c-1.4,0-2.6-0.4-3.8-1.2c-1.2-0.8-1.7-2.5-1.7-5.1v-2.1c0-1.9,0.3-3.3,0.9-4s2.1-1.5,4.5-2.5
		c2.6-1,4-1.7,4.2-2.1c0.2-0.4,0.3-1.1,0.3-2.1c0-1.4-0.1-2.2-0.3-2.6c-0.2-0.4-0.5-0.6-1-0.6c-0.5,0-0.9,0.2-1,0.5
		c-0.1,0.3-0.2,1.2-0.2,2.7V248.1z M53.6,251.6c-1.3,0.9-2,1.7-2.2,2.3c-0.2,0.6-0.3,1.5-0.3,2.7c0,1.3,0.1,2.2,0.3,2.6
		c0.2,0.4,0.5,0.6,1,0.6c0.5,0,0.8-0.2,1-0.5c0.1-0.3,0.2-1.1,0.2-2.4V251.6z"/>
	<path class="st7" d="M72.5,238.1v20.5c0,2.4,0,4-0.1,4.9s-0.4,1.6-0.9,2.2c-0.5,0.6-1.2,1.1-2,1.4c-0.8,0.3-2.1,0.5-3.8,0.5h-3
		v-4.1c0.9,0,1.5-0.1,1.6-0.3c0.1-0.2,0.2-1.5,0.2-3.9v-21.2H72.5z M72.5,232.4v4.1h-8.1v-4.1H72.5z"/>
	<path class="st7" d="M83.4,238.1l-0.1,2.4c0.6-1,1.3-1.7,2.1-2.1c0.8-0.5,1.8-0.7,2.9-0.7c1.4,0,2.5,0.3,3.3,1s1.4,1.4,1.7,2.4
		c0.2,1,0.4,2.6,0.4,4.9V264h-7.9V246c0-1.8-0.1-2.9-0.2-3.3c-0.1-0.4-0.4-0.6-1-0.6c-0.6,0-0.9,0.2-1.1,0.7
		c-0.1,0.4-0.2,1.7-0.2,3.6V264h-7.9v-25.9H83.4z"/>
	<path class="st7" d="M103.3,248.1h-7.4v-1.7c0-2,0.2-3.6,0.7-4.6c0.5-1.1,1.4-2,2.8-2.9c1.4-0.8,3.2-1.2,5.4-1.2
		c2.7,0,4.7,0.5,6,1.4c1.4,0.9,2.2,2.1,2.4,3.5c0.3,1.4,0.4,4.2,0.4,8.5v13H106v-2.3c-0.5,0.9-1.1,1.6-1.9,2.1s-1.7,0.7-2.7,0.7
		c-1.4,0-2.6-0.4-3.8-1.2c-1.2-0.8-1.7-2.5-1.7-5.1v-2.1c0-1.9,0.3-3.3,0.9-4s2.1-1.5,4.6-2.5c2.6-1,4-1.7,4.2-2.1
		c0.2-0.4,0.3-1.1,0.3-2.1c0-1.4-0.1-2.2-0.3-2.6c-0.2-0.4-0.5-0.6-1-0.6c-0.5,0-0.9,0.2-1,0.5c-0.1,0.3-0.2,1.2-0.2,2.7V248.1z
		 M105.8,251.6c-1.3,0.9-2,1.7-2.2,2.3c-0.2,0.6-0.3,1.5-0.3,2.7c0,1.3,0.1,2.2,0.3,2.6s0.5,0.6,1,0.6c0.5,0,0.8-0.2,1-0.5
		c0.1-0.3,0.2-1.1,0.2-2.4V251.6z"/>
	<path class="st7" d="M134.5,238.1V264h-8l0.1-2.2c-0.5,0.9-1.2,1.5-2,2c-0.8,0.4-1.7,0.7-2.8,0.7c-1.2,0-2.2-0.2-2.9-0.6
		s-1.4-1-1.7-1.7c-0.4-0.7-0.6-1.4-0.7-2.2c-0.1-0.7-0.1-2.2-0.1-4.5v-17.5h7.9v17.6c0,2,0.1,3.2,0.2,3.6c0.1,0.4,0.5,0.6,1,0.6
		c0.6,0,0.9-0.2,1-0.6s0.2-1.6,0.2-3.8v-17.4H134.5z M127.6,230.4h3.3c-0.1,1.8-0.6,3.2-1.6,4.3c-1,1.1-2.3,1.6-4,1.6
		c-1.7,0-3-0.5-4-1.6c-0.9-1.1-1.5-2.5-1.5-4.3h3.3c0.2,1.8,0.9,2.7,2.2,2.7C126.7,233.1,127.5,232.2,127.6,230.4z"/>
	<path class="st7" d="M154.3,238.1l-3.2,10.3l4.2,15.6h-7.6l-2.5-11.3l0,11.3h-7.9v-31.6h7.9l0,13.3l2.5-7.6H154.3z"/>
	<path class="st7" d="M163.5,248.1h-7.4v-1.7c0-2,0.2-3.6,0.7-4.6s1.4-2,2.8-2.9c1.4-0.8,3.2-1.2,5.4-1.2c2.7,0,4.7,0.5,6,1.4
		c1.4,0.9,2.2,2.1,2.4,3.5c0.3,1.4,0.4,4.2,0.4,8.5v13h-7.7v-2.3c-0.5,0.9-1.1,1.6-1.9,2.1c-0.8,0.5-1.7,0.7-2.7,0.7
		c-1.4,0-2.6-0.4-3.8-1.2s-1.7-2.5-1.7-5.1v-2.1c0-1.9,0.3-3.3,0.9-4c0.6-0.7,2.1-1.5,4.5-2.5c2.6-1,4-1.7,4.2-2.1s0.3-1.1,0.3-2.1
		c0-1.4-0.1-2.2-0.3-2.6c-0.2-0.4-0.5-0.6-1-0.6c-0.5,0-0.9,0.2-1,0.5c-0.1,0.3-0.2,1.2-0.2,2.7V248.1z M166,251.6
		c-1.3,0.9-2,1.7-2.2,2.3c-0.2,0.6-0.3,1.5-0.3,2.7c0,1.3,0.1,2.2,0.3,2.6c0.2,0.4,0.5,0.6,1,0.6c0.5,0,0.8-0.2,1-0.5
		c0.1-0.3,0.2-1.1,0.2-2.4V251.6z"/>
</g>
<g class="st6">
	<path class="st8" d="M168.8,29.1v2.7h-8.7l0-2.3c2.6-4.2,4.1-6.8,4.6-7.8c0.5-1,0.7-1.8,0.7-2.3c0-0.4-0.1-0.8-0.2-1
		s-0.4-0.3-0.7-0.3s-0.5,0.1-0.7,0.4s-0.2,0.7-0.2,1.4v1.5h-3.5v-0.6c0-0.9,0-1.6,0.1-2.1c0.1-0.5,0.3-1,0.7-1.5
		c0.4-0.5,0.8-0.9,1.4-1.1c0.6-0.3,1.3-0.4,2.1-0.4c1.6,0,2.8,0.4,3.6,1.2c0.8,0.8,1.2,1.8,1.2,3c0,0.9-0.2,1.9-0.7,2.9
		c-0.5,1-1.8,3.2-4,6.4H168.8z"/>
	<path class="st8" d="M176.4,15.9v15.8h-3.9v-8.5c0-1.2,0-2-0.1-2.2s-0.2-0.4-0.5-0.6s-0.9-0.2-1.8-0.2h-0.4v-1.8
		c1.9-0.4,3.4-1.3,4.3-2.5H176.4z"/>
</g>
</svg>
