<svg id="Слой_1" data-name="Слой 1" xmlns="http://www.w3.org/2000/svg" xmlns:xlink="http://www.w3.org/1999/xlink" viewBox="0 0 195.59 280.63"><defs><style>.cls-1,.cls-17,.cls-22{fill:none;}.cls-2{fill:#10a651;}.cls-2,.cls-3,.cls-5,.cls-6{stroke:#010101;}.cls-12,.cls-13,.cls-14,.cls-15,.cls-16,.cls-17,.cls-18,.cls-19,.cls-2,.cls-20,.cls-23,.cls-3,.cls-5{stroke-linecap:round;}.cls-12,.cls-13,.cls-14,.cls-15,.cls-16,.cls-17,.cls-18,.cls-19,.cls-2,.cls-20,.cls-23,.cls-3{stroke-linejoin:round;}.cls-3{fill:#1986c8;stroke-width:2px;}.cls-14,.cls-23,.cls-4,.cls-5,.cls-6{fill:#e8e7e7;}.cls-6{stroke-linecap:square;}.cls-20,.cls-25,.cls-26,.cls-27,.cls-7{fill:#e94539;}.cls-8{fill:#424242;}.cls-10,.cls-11,.cls-8,.cls-9{fill-rule:evenodd;}.cls-9{fill:#dc2d28;}.cls-10,.cls-24{fill:#fff;}.cls-11{fill:#f3b303;}.cls-12,.cls-13,.cls-14,.cls-15,.cls-16,.cls-17,.cls-18,.cls-19,.cls-20,.cls-21,.cls-22,.cls-23{stroke:#424242;}.cls-12,.cls-13,.cls-14,.cls-15,.cls-16,.cls-17,.cls-18,.cls-19,.cls-20{stroke-width:0.75px;}.cls-12{fill:url(#d);}.cls-13{fill:url(#ee);}.cls-15{fill:url(#e);}.cls-16{fill:url(#f);}.cls-18{fill:url(#e-3);}.cls-19{fill:url(#f-3);}.cls-21{fill:#efefef;}.cls-21,.cls-22{stroke-miterlimit:10;stroke-width:0.25px;}.cls-23{stroke-width:0.5px;}.cls-25{font-size:19.11px;}.cls-25,.cls-26,.cls-27{font-family:Impact;}.cls-26{font-size:24.77px;}.cls-27{font-size:20px;}</style><pattern id="d" data-name="d" width="302" height="362" patternTransform="translate(-437 351.21) rotate(-180) scale(0.33)" patternUnits="userSpaceOnUse" viewBox="0 0 302 362"><rect class="cls-1" width="302" height="362"/><path class="cls-2" d="M0,57H302V-3H0"/><path class="cls-3" d="M0,362H302V57H0"/></pattern><pattern id="ee" data-name="ee" width="28" height="30" patternTransform="matrix(-0.33, 0, 0, 0.33, -33.19, -271.09)" patternUnits="userSpaceOnUse" viewBox="0 0 28 30"><rect class="cls-1" width="28" height="30"/><path class="cls-4" d="M0,30H30V0H0"/><path class="cls-5" d="M14.5,14.5V-.5m-14,30h28v-15H.5Z"/></pattern><pattern id="e" data-name="e" width="28" height="30" patternTransform="matrix(-0.33, 0, 0, 0.33, -32.19, -271.09)" patternUnits="userSpaceOnUse" viewBox="0 0 28 30"><rect class="cls-1" width="28" height="30"/><path class="cls-4" d="M0,30H30V0H0"/><path class="cls-5" d="M14.5,14.5V-.5m-14,30h28v-15H.5Z"/></pattern><pattern id="f" data-name="f" width="15" height="15" patternTransform="matrix(-0.24, 0.24, 0.24, 0.24, 2.84, -277.66)" patternUnits="userSpaceOnUse" viewBox="0 0 15 15"><rect class="cls-1" width="15" height="15"/><rect class="cls-6" width="15" height="15"/></pattern><pattern id="e-3" data-name="e" width="28" height="30" patternTransform="translate(-120.45 -271.09) scale(0.33)" patternUnits="userSpaceOnUse" viewBox="0 0 28 30"><rect class="cls-1" width="28" height="30"/><path class="cls-4" d="M0,30H30V0H0"/><path class="cls-5" d="M14.5,14.5V-.5m-14,30h28v-15H.5Z"/></pattern><pattern id="f-3" data-name="f" width="15" height="15" patternTransform="translate(-105.15 -277.66) rotate(45) scale(0.33)" patternUnits="userSpaceOnUse" viewBox="0 0 15 15"><rect class="cls-1" width="15" height="15"/><rect class="cls-6" width="15" height="15"/></pattern></defs><rect class="cls-7" x="-6.21" y="-8.4" width="214.01" height="297.89"/><g id="Warstwa_1"><g id="_52208184" data-name=" 52208184"><path id="_52208472" data-name=" 52208472" class="cls-8" d="M149.24,11.07V132.83c0,10.54-4.76,16.34-16.17,16.33h-21c-6.12,0-10.6,2.94-13.87,8-3.27-5-7.74-8-13.87-8h-21c-11.41,0-16.15-5.79-16.17-16.33V11.07Z"/><path id="_52208400" data-name=" 52208400" class="cls-9" d="M48,82V11.88H148.43V82h-2.86v5.85h-1.83V50.68h1.34v-7h-3.8v3.71h-.82V43.66h-3.78v3.71h-.82V43.66h-3.79v3.71h-.81V43.66h-3.79v3.71h-.81V43.66h-3.78v7h1.34V82h-4.09v5.85h-5.44V82h-2.14V44.43h1.33v-7h-3.8v3.71h-.81V37.41h-3.79v3.71h-.81V37.41h-3.79v3.71h-.81V37.41H96.34v3.71h-.82V37.41H91.73v3.71h-.81V37.41H87.13v3.71h-.81V37.41h-3.8v7h1.34V82H82v5.85H76.53V82H72.19V50.68h1.33v-7H69.75v3.71h-.82V43.66H65.14v3.71h-.81V43.66H60.54v3.71h-.81V43.66H55.94v3.71h-.81V43.66h-3.8v7h1.33V87.85H51.08V82ZM82.68,36.78l-5.12-6.07c4.78-6.45,11.63-11.92,20.64-16.38Q111.71,21,118.84,30.71l-5.12,6.07Z"/><path id="_52208328" data-name=" 52208328" class="cls-10" d="M99.26,38.22v3.71h2.44V38.22h2.17v3.71h2.44V38.22h2.16v3.71h2.44V38.22h2.16v5.4H83.33v-5.4H85.5v3.71h2.44V38.22H90.1v3.71h2.44V38.22H94.7v3.71h2.44V38.22Zm-5,30.53v-5h.43v5Zm7.36-5h.59v5h-.59Zm-7.36-7.4v-5h8v5Zm0,24.7v-5h7.9v5ZM61.05,93v5H72.9V93Zm74.3,0v5H123.5V93Zm-74.3,37v5H72.9v-5Zm74.3,0v5H123.5v-5ZM86,93v5H74.12V93Zm24.46,0v5h11.85V93Zm-33.14,42H74.12v-5h4.14v4.23h-1v.73Zm41.83,0h3.16v-5h-4.14v4.23h1v.73ZM78.67,110.27H74.12v-5h6.17A19.38,19.38,0,0,0,78.67,110.27Zm39.07,0h4.54v-5h-6.16A20.19,20.19,0,0,1,117.74,110.27Zm-39.48,37H74.12v-5h4.14Zm39.88,0h4.14v-5h-4.14ZM78.26,122.63H74.12v-5h4.14Zm39.88,0h4.14v-5h-4.14Zm-70.16,0v-5H59.83v5Zm100.45,0v-5H136.57v5ZM48,97.91V93H59.83v5Zm100.45,0V93H136.57v5ZM48,132.45V130H59.83v5H48.08c-.06-.79-.1-1.61-.1-2.46Zm100.45,0V130H136.57v5h11.75C148.39,134.12,148.42,133.3,148.43,132.45ZM48,110.26v-5H59.83v5Zm100.45,0v-5H136.57v5Zm-98.22,32h9.62v5H56.21A11.32,11.32,0,0,1,50.21,142.3Zm96,0h-9.63v5h3.62a11.35,11.35,0,0,0,6-5ZM61.05,122.63H72.9v-5H61.05Zm74.3,0H123.5v-5h11.85Zm-74.3-17.32v1.38a3.06,3.06,0,0,1,1.7-1.38Zm6.56,5H72.9v-5H65.54a2.93,2.93,0,0,1,2.07,2.86v2.1Zm67.74-5v1.38a2.89,2.89,0,0,0-.8-1.38Zm-6.81,5h-5v-5h6a3.08,3.08,0,0,0-.92,2.3Zm-67.49,32v5H72.9v-5Zm74.3,0v5H123.5v-5ZM87.2,97.75V93h8.69v1.93a20.82,20.82,0,0,0-8.69,2.86Zm22,0V93h-8.7v1.93a20.91,20.91,0,0,1,8.7,2.86ZM80.93,104.1h-.3v-5h4.58A17.89,17.89,0,0,0,80.93,104.1Zm-1.52-5v5H67.56v-5Zm-24.92,0v5H66.34v-5Zm-6.52,0h5.3v5H48Zm67.5,5h.3v-5h-4.58A17.73,17.73,0,0,1,115.47,104.1Zm1.52-5v5h11.85v-5Zm24.92,0v5H130.06v-5Zm6.52,0h-5.3v5h5.3Zm-70.17,42H67.56v-5h9.73v2.54h1v2.42Zm-23.77-5v5H66.34v-5Zm-6.27,0h5.05v5H49.58a17.66,17.66,0,0,1-1.36-5Zm69.92,5h10.7v-5h-9.72v2.54h-1v2.42Zm23.77-5v5H130.06v-5Zm6.27,0h-5.05v5h3.69A17.66,17.66,0,0,0,148.18,136.14Zm-70.89-19.7H67.61v-5H78.47c0,.37-.09.75-.12,1.13H77.29v3.83Zm-22.85-5v5h6.25v-5Zm-6.47,0h5.25v5H48Zm71.15,5h9.42v-5H117.93c0,.37.09.75.12,1.13h1.07v3.83Zm22.84-5v5h-6.49v-5Zm6.47,0h-5.25v5h5.25ZM78.26,128.79H67.46v-5h10.8Zm-23.87-5v5H66.24v-5Zm-6.42,0h5.2v5H48Zm70.17,5h10.8v-5h-10.8Zm23.87-5v5H130.16v-5Zm6.42,0h-5.2v5h5.2Zm-98.14-41v5.85h7.15V82.81h5.44v5.85h7.28V82.81H75.6v5.85h7.29V82.81h5.43v5.85h7.29V82.81H101v5.85h7.29V82.81h5.43v5.85h7.29V82.81h5.44v5.85h7.28V82.81h5.44v5.85h7.28V82.81h1.94v8.9H48v-8.9Zm3.19-.43h3v5.47h-3Zm89.45,0h-3v5.47h3ZM84.67,81.1v-5H93v5Zm27.07,0v-5h-8.37v5Zm-42.5,1.28v5.47H63.8V82.38Zm57.93,0v5.47h5.43V82.38Zm-32.49-.09H89.27v5.56h5.41V82.29Zm7.3,0h5.41v5.56H102ZM54.3,48.18h2.44V44.47H58.9v3.71h2.44V44.47h2.17v3.71H66V44.47h2.16v3.71h2.44V44.47h2.16v5.4H52.14v-5.4H54.3v3.71Zm87.8,0h-2.44V44.47H137.5v3.71h-2.44V44.47H132.9v3.71h-2.44V44.47h-2.17v3.71h-2.44V44.47h-2.16v5.4h20.57v-5.4H142.1ZM58.43,63.85v5h8v-5Zm79.54,0v5h-8v-5ZM89.62,57.61v5h5V59.76a3.31,3.31,0,0,1,.71-2.15Zm17.16,0v5h-5.19V59.76a3.36,3.36,0,0,0-.7-2.15ZM58.43,81.17h8v-5h-8v5Zm79.54,0h-8v-5h8ZM89.62,74.93h8V70h-8Zm17.16,0h-8V70h8ZM53.48,56.46v-5h3.73v5Zm89.45,0v-5h-3.74v5ZM84.67,50.21v-5H88.4v5Zm27.06,0v-5H108v5ZM53.48,62.64v-5h8.34v5Zm89.45,0v-5h-8.34v5ZM84.67,56.39v-5H93v5Zm27.06,0v-5h-8.34v5ZM53.48,68.81v-5h3.73v5Zm89.45,0v-5h-3.74v5ZM84.67,62.57v-5H88.4v5Zm27.06,0v-5H108v5ZM53.48,75V70h8.33v5Zm89.45,0V70h-8.34v5ZM84.67,68.75v-5H93v5Zm27.06,0v-5h-8.34v5ZM53.47,81.17v-5h3.74v5Zm89.46,0v-5h-3.74v5ZM84.67,74.93V70H88.4v5Zm27.06,0V70H108v5ZM71.37,76.21v5H67.66v-5Zm53.66,0v5h3.71v-5ZM71.37,70v5H63V70ZM125,70v5h8.34V70ZM71.37,63.85v5H67.66v-5Zm53.66,0v5h3.71v-5ZM71.37,57.67v5H63v-5Zm53.66,0v5h8.34v-5ZM71.37,51.5v5H67.66v-5Zm53.66,0v5h3.71v-5Zm-66.6,0v5h8v-5Zm79.54,0v5h-8v-5ZM89.62,45.25v5h8v-5Zm17.16,0v5h-8v-5Z"/><path id="_52208256" data-name=" 52208256" class="cls-11" d="M97.18,26.39V24.65H95.44V22.5h1.74V20.76h2.15V22.5h1.74v2.15H99.33v1.74Zm-7.09-4.64v12.6H83.62L80.4,30.67a58.44,58.44,0,0,1,9.69-8.92Zm16.23,0v12.6h6.47L116,30.67a58.76,58.76,0,0,0-9.68-8.92Zm-11.69-.06h1.74V20h3.77v1.74h1.74v3.77h-1.74V27.2H96.37V25.46H94.63V21.69ZM92.79,34.35V20.21A23.6,23.6,0,0,1,98.2,17a23.69,23.69,0,0,1,5.42,3.22V34.35Zm20.51,1.73,4.56-5.46A57.07,57.07,0,0,0,98.2,15.22a57.07,57.07,0,0,0-19.66,15.4l4.56,5.46Zm-7.82-15.87v15h7.59l3.81-4.52a57,57,0,0,0-11.4-10.46Zm-.88,14.94V19.7a35.21,35.21,0,0,0-6.4-3.64,35.12,35.12,0,0,0-6.39,3.64V35.15ZM90.92,20.21v15H83.34l-3.82-4.52A57.3,57.3,0,0,1,90.92,20.21ZM78.12,135h3.72v2.82H78.12V135Zm40.16,0h-3.71v2.82h3.71V135ZM78.12,113.45h3.72v2.83H78.12Zm40.16,0h-3.71v2.83h3.71Zm-36.44,35v-9.75H79.07v9.75Zm14-52.72c-8.11.87-15.67,6.51-16.7,16.9h2.92c1.33-8.52,7.31-13.22,13.78-14.1v-2.8Zm-16.82,21.4v17.07h2.77V117.11Zm35.5,31.32v-9.75h2.76v9.75Zm-14-52.72c8.11.87,15.67,6.51,16.69,16.9h-2.92c-1.32-8.52-7.31-13.22-13.77-14.1v-2.8Zm16.81,21.4v17.07h-2.76V117.11Zm-20.56-23h2.86V99H96.77ZM82.65,148.43V137.6h.66l5.13,4.69,1.42-1.51L87,137.6h2.38l3,3.06L94,139.31,92.7,137.6h3.81v16.18A16.4,16.4,0,0,0,84,148.43Zm0-13.64V116.28h.66l5.13,4.7,1.42-1.51L87,116.28h2.38l3,3.07L94,118l-1.31-1.72h3.81v18.51H92.64L94,133l-1.71-1.34-3,3.14H86.88l3-3.27L88.44,130l-5.22,4.78Zm.2-21.31c1.12-8.53,6.83-13.24,13-14.15v.49h.62v13.66H92.64l1.37-1.8-1.71-1.35-3,3.15H86.88l3-3.27-1.42-1.51-5.22,4.78Zm30.9,35V137.6h-.65L108,142.29l-1.42-1.51,2.9-3.18h-2.37l-3,3.06-1.71-1.35,1.31-1.71H99.9v16.18a16.38,16.38,0,0,1,12.54-5.35Zm0-13.64V116.28h-.65L108,121l-1.42-1.51,2.9-3.19h-2.37l-3,3.07L102.39,118l1.31-1.72H99.9v18.51h3.87l-1.38-1.8,1.71-1.34,3,3.14h2.38l-3-3.27L108,130l5.22,4.78Zm-.19-21.31c-1.12-8.53-6.84-13.24-13-14.15v.49H99.9v13.66h3.87l-1.38-1.8,1.71-1.35,3,3.15h2.38l-3-3.27L108,108.7l5.22,4.78Zm-17,2H91.26l1.86,2.37-.78.61-2.86-3H85.39L89,119.39l-.61.69-5.07-4.61h-.61c0-.4,0-.8.08-1.18h.44l5.16-4.69.61.69-3.65,4H89.4l2.94-3.06.78.61-1.93,2.45h5.32v1.18Zm3.39,0h5.25l-1.86,2.37.77.61,2.87-3H111l-3.57,3.92.61.69,5.07-4.61h.61c0-.4,0-.8-.08-1.18h-.44l-5.16-4.69-.61.69,3.65,4H107l-2.94-3.06-.77.61,1.92,2.45H99.9v1.18Zm-3.39,21.32H91.26l1.86,2.36-.78.61-2.86-3H85.39L89,140.7l-.61.7-5.07-4.61h-.64V135.6h.55l5.16-4.69.61.7-3.65,4H89.4l2.94-3.06.78.62-1.93,2.44h5.32v1.19Zm3.39,0h5.25l-1.86,2.36.77.61,2.87-3H111l-3.57,3.91.61.7,5.07-4.61h.63V135.6h-.54l-5.16-4.69-.61.7,3.65,4H107l-2.94-3.06-.77.62,1.92,2.44H99.9v1.19Zm-.81,18V99.82H97.32v54.93c.31.4.6.82.88,1.26.28-.44.58-.86.89-1.26Z"/><path id="_52208112" data-name=" 52208112" class="cls-10" d="M138.93,147.68h-2.76v-5.77h10.25l.21-.41h-3.87v-5.77h5.47c0-.14,0-.27.05-.41H136.17v-5.77h12.26v-.41h-5.6v-5.7h5.6V123H136.17v-5.78h12.26v-.4h-5.67v-5.78h5.67v-.4H136.17V104.9h12.26v-.4h-5.67V98.72h5.67v-.4H136.17V92.55h12.26v-.41H48v.41H60.24v5.77H48v.4h5.66v5.78H48v.4H60.24v5.78H48v.4h5.66v5.78H48v.4H60.24V123H48v.4h5.6v5.7H48v.41H60.24v5.77H48.12c0,.14,0,.27.05.41h5.47v5.77H49.77l.22.41H60.24v5.77H57.48c.57.16,1.17.3,1.79.41h7.47v.34h.41v-.34H78.26v-.41H73.71v-5.77h4.55v-.41H67.15v-5.77H77.29v-.41H73.71v-5.77h4.55v-.41H67.07v-5.7H78.26V123H73.71v-5.78h4.55v-.15h-1v-.25H54.05v-5.78h6.64v-.4h0V104.9H73.31v5.78h-5.7v.4H78.53l.06-.4H73.71V104.9h6.78c.07-.13.14-.27.22-.4h-.45V98.72h5.49l.57-.4H73.71V92.55H86.39v5.72L86.8,98V92.55h22.81V98l.4.27V92.55h12.68v5.77H110.08l.57.4h5.49v5.78h-.44l.21.4h6.78v5.78h-4.88l.06.4h10.67v-.4H123.1V104.9H130a3.7,3.7,0,0,1,.91-.4h-1.23V98.72h12.69v5.78h-9.24a3.61,3.61,0,0,1,.92.4h1.73v5.78h-.29v.4h6.88v5.78H119.12v.25h-1v.15h4.55V123h-4.55v.4h11.2v5.7h-11.2v.41h4.55v5.77h-3.57v.41h10.14v5.77H118.14v.41h4.55v5.77h-4.55v.41h11.12v.34h.4v-.34h7.47a18.31,18.31,0,0,0,1.8-.41Zm-4.22-31.24v-8.52a1,1,0,0,0-2,0v8.52Zm-67.86,0v-8c0-1.17-2-1.17-2,0v8Zm75.57,12.7H129.75v-5.7h12.67Zm-88.44,0H66.66v-5.7H54v5.7ZM66.74,98.72v5.78H54.05V98.72Zm.41,5.78V98.72h12.7v5.78Zm6.16-12H60.64v5.77H73.31ZM60.64,117.26V123H73.31v-5.78Zm68.61-12.76V98.72h-12.7v5.78Zm-6.15-12h12.66v5.77H123.1Zm12.66,24.71V123H123.1v-5.78Zm-69,18.47v5.77H54.05v-5.77Zm6.57,6.18H60.64v5.77H73.31Zm0-12.36H60.64v5.77H73.31Zm56.35,6.18v5.77h12.69v-5.77Zm-6.56,6.18h12.66v5.77H123.1v-5.77Zm0-12.36h12.66v5.77H123.1v-5.77ZM102.58,56.79V51H93.82v5.77h2.53a3.45,3.45,0,0,0-.59.41H89.22V63h5.44v.41h-.84v5.77h8.76V63.38h-1V63h5.6V57.2H100.5a3.53,3.53,0,0,0-.6-.41Zm-3.71,12V60.08a1,1,0,0,1,2,0v8.67Zm12.84,13.16v-.4H103V75.74h8.76v-.41h-4.14V69.56h4.14v-.41H103V63.38h8.74V63h-4.14V57.2h4.14v-.41H103V51h8.74v-.41h-4.14V44.84h4.14v-.41H84.67v.41h4.14v5.77H84.67V51h8.75v5.77H84.67v.41h4.14V63H84.67v.41h8.75v5.77H84.67v.41h4.14v5.77H84.67v.41h8.77v5.77H84.69v.4Zm-9.15-6.17v5.77H93.84V75.74Zm4.63-6.18v5.77H98.36V69.56ZM98.36,44.84h8.83v5.77H98.36ZM89.22,69.56v5.77H98V69.56ZM98,44.84H89.22v5.77H98Zm-40,31v5.77h8.82V75.81Zm9.23,5.77h4.11V82H53.48v-.41h4.14V75.81H53.48V75.4h8.74V69.63H53.48v-.41h4.14V63.45H53.48V63h8.74V57.27H53.48v-.41h4.14V51.09H53.48v-.41H71.37v.41H67.26v5.77h4.11v.41H62.63V63h8.74v.41H67.26v5.77h4.11v.41H62.63V75.4h8.74v.41H67.26Zm-.41-18.13H58v5.77h8.82Zm0-12.36H58v5.77h8.82Zm71.53,24.72v5.77h-8.83V75.81Zm-9.23,5.77H125V82h17.9v-.41h-4.14V75.81h4.14V75.4h-8.75V69.63h8.75v-.41h-4.14V63.45h4.14V63h-8.75V57.27h8.75v-.41h-4.14V51.09h4.14v-.41H125v.41h4.12v5.77H125v.41h8.75V63H125v.41h4.12v5.77H125v.41h8.75V75.4H125v.41h4.12Zm.4-18.13h8.83v5.77h-8.83Zm0-12.36h8.83v5.77h-8.83Z"/></g></g><path class="cls-12" d="M98.2,148C73.89,167.67,48.25,154.69,48.25,208q12.48,12.5,0,25v24.31a116,116,0,0,0,50,10.66m0-119.9c24.31,19.65,50,6.67,50,59.95q-12.49,12.5,0,25v24.31a116.09,116.09,0,0,1-50,10.66"/><path class="cls-13" d="M86.55,205.64l11.65,3,11.66-3v18H86.55Z"/><path class="cls-14" d="M89.88,250.93l8.32,12,8.33-12"/><path class="cls-14" d="M93.21,249.87l5,7.32,5-7.32m-10,2.4,5,7.32,5-7.32"/><circle class="cls-14" cx="98.2" cy="262.92" r="2.33"/><g id="h"><path class="cls-15" d="M134.17,228.29H115.52V166.67h18.65Z"/><path class="cls-16" d="M124.84,256.59l7.66-22.31H117.19Z"/><g id="i"><path class="cls-14" d="M124.51,234.28h10V231h1.67v-5H133.5v2.33h-2.33V226h-2.66v2.33h-2.33V226h-1.67"/><path class="cls-14" d="M130.17,232v1.33h-1.66V232Zm-3,0v1.33h-1.67V232Zm6,0v1.33h-1.66V232Z"/></g><g id="i-2" data-name="i"><path class="cls-14" d="M125.18,234.28h-10V231h-1.67v-5h2.67v2.33h2.33V226h2.66v2.33h2.33V226h1.67"/><path class="cls-14" d="M119.52,232v1.33h1.66V232Zm3,0v1.33h1.67V232Zm-6,0v1.33h1.66V232Z"/></g><path class="cls-14" d="M98.2,207.31c10,0,13.66-5.67,13.66-8.33V166.67h14.32V208s-8.66-1-13-4.66c0,0-3.76,6.33-15.09,6.33"/><g id="j"><path id="g" class="cls-17" d="M113.85,195.32c.67,0,5-.34,1.67,2.33,0,0,4.33.66,3.33-2.33,0,0,1.33.66,2.66-1"/><path id="g-2" data-name="g" class="cls-17" d="M113.85,193.32c.67,0,5,.33,1.67-2.33,0,0,4.33-.67,3.33,2.33,0,0,1.33-.67,2.66,1"/></g><g id="j-2" data-name="j"><path id="g-3" data-name="g" class="cls-17" d="M113.85,177c.67,0,5-.33,1.67,2.33,0,0,4.33.67,3.33-2.33,0,0,1.33.66,2.66-1"/><path id="g-4" data-name="g" class="cls-17" d="M113.85,175c.67,0,5,.33,1.67-2.33,0,0,4.33-.67,3.33,2.33,0,0,1.33-.67,2.66,1"/></g><path class="cls-17" d="M113.85,175v-8.33h10.33v38.64A21.77,21.77,0,0,1,113.85,201v-5.66m0-2V177"/><path class="cls-14" d="M97.54,223.29h2V221h2.34v2.33h2.33V221h2.33v2.33h2.33V221h2.66v5h-14"/><circle class="cls-14" cx="124.84" cy="256.59" r="2.33"/></g><g id="h-2" data-name="h"><path class="cls-18" d="M62.23,228.29H80.88V166.67H62.23Z"/><path class="cls-19" d="M71.56,256.59,63.9,234.28H79.22Z"/><g id="i-3" data-name="i"><path class="cls-14" d="M71.89,234.28h-10V231H60.24v-5H62.9v2.33h2.33V226H67.9v2.33h2.33V226h1.66"/><path class="cls-14" d="M66.23,232v1.33H67.9V232Zm3,0v1.33h1.66V232Zm-6,0v1.33H64.9V232Z"/></g><g id="i-4" data-name="i"><path class="cls-14" d="M71.23,234.28h10V231h1.66v-5H80.22v2.33H77.89V226H75.22v2.33H72.89V226H71.23"/><path class="cls-14" d="M76.89,232v1.33H75.22V232Zm-3,0v1.33H72.22V232Zm6,0v1.33H78.22V232Z"/></g><path class="cls-14" d="M98.2,207.31c-10,0-13.65-5.67-13.65-8.33V166.67H70.23V208s8.66-1,13-4.66c0,0,3.76,6.33,15.08,6.33"/><g id="j-3" data-name="j"><path id="g-5" data-name="g" class="cls-17" d="M82.55,195.32c-.67,0-5-.34-1.67,2.33,0,0-4.33.66-3.33-2.33,0,0-1.33.66-2.66-1"/><path id="g-6" data-name="g" class="cls-17" d="M82.55,193.32c-.67,0-5,.33-1.67-2.33,0,0-4.33-.67-3.33,2.33,0,0-1.33-.67-2.66,1"/></g><g id="j-4" data-name="j"><path id="g-7" data-name="g" class="cls-17" d="M82.55,177c-.67,0-5-.33-1.67,2.33,0,0-4.33.67-3.33-2.33,0,0-1.33.66-2.66-1"/><path id="g-8" data-name="g" class="cls-17" d="M82.55,175c-.67,0-5,.33-1.67-2.33,0,0-4.33-.67-3.33,2.33,0,0-1.33-.67-2.66,1"/></g><path class="cls-17" d="M82.55,175v-8.33H72.22v38.64A21.77,21.77,0,0,0,82.55,201v-5.66m0-2V177"/><path class="cls-14" d="M98.87,223.29h-2V221H94.54v2.33H92.21V221H89.88v2.33H87.54V221H84.88v5h14"/><circle class="cls-14" cx="71.56" cy="256.59" r="2.33"/></g><path class="cls-14" d="M109.66,249.63l-1.53-2.19a18.58,18.58,0,0,0,2.26-2L98.2,233.12,86,245.44a18.93,18.93,0,0,0,2.27,2l-1.53,2.2a19.25,19.25,0,0,0,22.91,0Z"/><path class="cls-17" d="M98.2,252.1a18.06,18.06,0,0,0,9.33-2.63l-.67-1.17a16.42,16.42,0,0,1-17.32,0l-.66,1.17A18,18,0,0,0,98.2,252.1Zm-10.26-6.63a15.27,15.27,0,0,0,20.52,0L98.2,233.12Z"/><path class="cls-14" d="M98.2,247.94a14,14,0,0,0,11.46-22h-23a14,14,0,0,0,11.46,22Z"/><path class="cls-20" d="M98.2,246.27A12.31,12.31,0,0,0,108.33,227H88.08A12.3,12.3,0,0,0,98.2,246.27Z"/><g id="pahonia"><path class="cls-21" d="M94.27,228.45c.2-.13.37-.6.53-.8,0-.76-1.39-.4-1.39-.2s-.1.77-.37.8c-.67.07-.77,1.2-1.77,2.6.37.67.8.7,1.1,1.4-.56,1-1.2,1.46-.76,3.4-1.3-.1-2.1-.47-1.73-2,.3-1.3.23-2.73-1.5-2.7.63,1-.2,2.34-.57,3.47A1.8,1.8,0,0,0,90,236.68c1.33-.3,1.2-.7,1.9-.3,2.43,2.1,4.86-.23,7.39.9.07,2.76,1.57,5.43,4.8,5.19l0-.36c-.07.6.76,1.43.76.76s0-.63.5-.16a1.94,1.94,0,0,0-.1-1.14,2.12,2.12,0,0,0,.67-1.13,11.42,11.42,0,0,0,.53-2.3c0-.3,0-.6-.33-.7s-.47.2-.6-.19c0,0-.53.06-.53.26-.17.7-.6.77-.9,1a1.34,1.34,0,0,0-1,1.77c-.4-.67.27-1.84.7-2.44.7-1,1.4-1.39,1.43-2.36a4.55,4.55,0,0,1,1.47.73,1,1,0,0,0,.9-.2c.26-.66.43-1.8.63-2.46.13-.27-.33-.83-.33-1.6a1.08,1.08,0,0,0-1-.4c-.33,1-.3.8.27,1.63a4.84,4.84,0,0,1-.24,1.73c-.43.27-.9-.4-1.19-.73a3.2,3.2,0,0,0-1.87-.33,2.81,2.81,0,0,1,2,.43c.83.53.57-1.7,1-3,0-.8-.4-1.07-.83-1.63-1.3.73-.6,1.4-.23,1.46,0,.6-.14,1.34-.17,1.9-1.33-.5-1.1-.8-2.9-1.1a3.84,3.84,0,0,0-.93,1.1l.27-.46A21.93,21.93,0,0,0,95.6,232a4.84,4.84,0,0,0-2-1.07l1,.37c.14-.8.67-2.4,1.53-2.63a2.47,2.47,0,0,0,.47-.9c0-.47-1.37-.37-1.33-.13-.07.8-.27.56-.53.8a5.47,5.47,0,0,1-1.14,2.49l-1.1-.33c.3-.76.9-1.8,1.7-2Z"/><path class="cls-21" d="M105.26,235.51a3.63,3.63,0,0,0-.33-1.63"/><path class="cls-21" d="M98.87,229.39c1.13,1.13,3.1,5.32,1,8.09L96,237.35a13.18,13.18,0,0,0-.43-7.07c.77,0,1.27,1,1.93,2.1l-.7-2.93a3.94,3.94,0,0,1,2,2.83C98.93,230.62,98.47,230.52,98.87,229.39Z"/><path class="cls-21" d="M105,238.24l-.5-2.23a13.14,13.14,0,0,0-4.7,1.93c1.64-.33,4.1-1.19,4.47-.66l.53,1.3"/><path class="cls-21" d="M96.24,241.17l.36.47c.07.37-.23,1-.2,1.43a1.35,1.35,0,0,0,.7,1.2c.37-.1,1.24-.16,1.4-1.1-.1-.2-.16-.26.17-.9-.33-.46.13-.56-.47-.93.27,0,.83.83,1.47,1-.17.7.5,1.8.2,2.2-.87,1.67,1.46,1.3.93.07a18.23,18.23,0,0,1,.13-2.63l-1.7-1.53-.46-2.64a4.08,4.08,0,0,0,1.56-2.23.82.82,0,0,0,.57-1,17.33,17.33,0,0,1-.13-2.8,2.72,2.72,0,0,0,1.59-.7,14.76,14.76,0,0,1-2.53-.4,5.34,5.34,0,0,1-.1,1.87,2.45,2.45,0,0,0-.3,1.8l-.1.56-1.93,1.5"/><path class="cls-21" d="M100.93,230.78l.14,1.44.6-1.34Z"/><path class="cls-21" d="M101,232.32l-.23.73"/><path class="cls-21" d="M96.94,240.38l.6-.14-.1-.53.53-.1-.1-.5-.53.1-.1-.53.63-.14-.1-.5-.63.14-.2-.93-.6.13.2.93-.67.13.1.5.67-.13.1.53-.57.14.1.5.57-.14Zm-1.4.86,3.69-.76c-.6-3.1-1-4-3-4.6C94.77,237.31,94.84,238,95.54,241.24Zm3.73,4.6h.4v-1.63h-.4v.53l-4.4,0-1,.3,1,.2,4.4,0Zm-2.13-1.57c-2.93.73-2.37-2-5.37-2.3C94.51,240,95.07,243.71,97.14,244.27Zm1.36-1.1-2-.6m1.77-1.26,1-.83m-.33-1.6.77-.24c.7-.23.7-.46.46-1s-1-.26-.8.07l-.76.13.56-.1-.56-5.06-.5-1-.23,1.1.33,4.3L99,237l-.83.1"/><path class="cls-22" d="M106.36,238.51a2.12,2.12,0,0,1-1,0m-5-2.87-1-.7m1.47-.66-1.37.1m-.9,7.76c-.33,0-.26-.2-.53-.1m.2.76H98m-1-.06c-.13-1.27,1.17-1.24,1.2-1.47a2.38,2.38,0,0,0-1.53.4m3.86,0a2,2,0,0,1-.86.7m1.2.4a2.1,2.1,0,0,1-1.17-.23m-4.23-5.89c-.7-.94-.6-2.2-.43-3.57l-.4-.63-.07.6c-.13,1.16-.43,2.7.67,4m1-2.33a12.06,12.06,0,0,0-4.8-.07m4.77.47a11.42,11.42,0,0,0-4.67-.07m2.7,2.17a5.31,5.31,0,0,1-1-4.2l-.4-.63-.07.6a5.16,5.16,0,0,0,.9,4.19m10.86-2.93a13.94,13.94,0,0,0-3.83,1.1m3.89-.5a14.78,14.78,0,0,0-4.09,1.27m4.69,5.46a3.63,3.63,0,0,1-2.13-1.33m2.4,1a3.59,3.59,0,0,1-2.47-1.76m1.8-.8c-.83.93-1.93,2.53-1.6,3.26m2.87-4-.1.2m-.37-.67-.2.3m.8,1.1a2.24,2.24,0,0,1-1,0c-.67.86-1.93,2.23-1.53,3.16m1.2.47a1,1,0,0,0-.1-.5m-.7.1c-3.17-.07-3.6-2.27-4.1-3.6m5.5,1.63-.2.34-.3.13.2-.4Zm-4.7,4.7c-.47-.2-.37.23-.77.16"/><ellipse class="cls-21" cx="104.83" cy="234.61" rx="0.3" ry="0.57"/><circle class="cls-21" cx="101.07" cy="232.05" r="0.27"/><circle class="cls-21" cx="101.17" cy="245.04" r="0.27"/><circle class="cls-21" cx="105.1" cy="238.64" r="0.27"/><circle class="cls-21" cx="103.7" cy="240.64" r="0.27"/><circle class="cls-21" cx="94.71" cy="234.75" r="0.27"/><circle class="cls-21" cx="93.04" cy="234.71" r="0.27"/></g><path class="cls-23" d="M98.53,200.31c1.67,3.33,0,4.66-2,4.33s-4.67-4-6.66-3c-.34-.33,1.66-3,4-1.66s3.67,4.66,4,.33"/><path class="cls-23" d="M101.87,190.32l2.33-2s1.33-2.33,3,.33h.34l1,3.34a1.3,1.3,0,0,1,1.33,1.33s-.33,1.33-1.33,1.33a2.07,2.07,0,0,1-1.67-1.33c-1.33-1.67-1.33-3.33-2.33-2l-1,1.33"/><g id="defender"><path class="cls-23" d="M98.2,186.49l3,.33s.67,4.67,2.33,6c0,0,0,1.66-2.33,1.66,0,0-1.33.34-1,2.67,0,0,.67,3.33-2.1,3.33"/><path class="cls-23" d="M100.2,174.5c-.33-1.33-.33-2.66,1-5,.33-1.34-1.33-1.34-.33-2.67h5s1,.67,0,1a10,10,0,0,0-2.66.67c-.67,2.66.33,3.66-.34,6.32,0,0,.67,1.34-.33,2,0,0,.67,4.17-.33,6.33l-3.67-.67C98.53,177.17,99.87,178.83,100.2,174.5Z"/><path class="cls-14" d="M98.14,182a9.63,9.63,0,0,1,2.73.34c0,1.66.33,4.49-2.67,4.16"/><circle class="cls-23" cx="99.03" cy="197.75" r="0.17"/><path class="cls-17" d="M101.2,194.48a4.38,4.38,0,0,0-3-1"/><path class="cls-22" d="M98.8,182l-.5,4.5,1.57-4.33m3.33-13.65a2.07,2.07,0,0,1-2-1.67m1.33,0s-.33.67.67,1.67m.66-.34a2.31,2.31,0,0,1-.66-1.33m1,0a1.39,1.39,0,0,0,.66,1.17m-4.66,6.49a5,5,0,0,0,2.66.33m-.3,7a14.73,14.73,0,0,0-4-.67m.13-1a11.48,11.48,0,0,1,4,.67m0-1.17a8.76,8.76,0,0,0-3.77-.56m.44-1.17a8.77,8.77,0,0,1,3.23.47m-.07-1.23a9,9,0,0,0-2.66-.34m.33-1s1,0,1.33.67a.72.72,0,0,0,1,.33m0,15s-2,.66-2,2.16m-.66-.33s-.67-1.5,2.16-3.16m-2.56,7.29a.79.79,0,0,1-.9,0m-.37-1.47c.33-.33,1,0,1-.33"/><path class="cls-23" d="M98.2,184.82c2.67,0,2.33-3.33,2.33-3.33a6.61,6.61,0,0,1,2.67.67s-1,4-2,4.66l-3-.33"/></g><g id="defender-2" data-name="defender"><path class="cls-23" d="M98.2,186.49l-3,.33s-.66,4.67-2.33,6c0,0,0,1.66,2.33,1.66,0,0,1.34.34,1,2.67,0,0-.66,3.33,2.1,3.33"/><path class="cls-23" d="M96.2,174.5c.34-1.33.34-2.66-1-5-.33-1.34,1.34-1.34.34-2.67h-5s-1,.67,0,1a10.14,10.14,0,0,1,2.67.67c.66,2.66-.34,3.66.33,6.32,0,0-.67,1.34.33,2,0,0-.66,4.17.34,6.33l3.66-.67C97.87,177.17,96.54,178.83,96.2,174.5Z"/><path class="cls-14" d="M98.27,182a9.56,9.56,0,0,0-2.73.34c0,1.66-.34,4.49,2.66,4.16"/><circle class="cls-23" cx="97.37" cy="197.75" r="0.17"/><path class="cls-17" d="M95.2,194.48a4.38,4.38,0,0,1,3-1"/><path class="cls-22" d="M97.6,182l.5,4.5-1.56-4.33m-3.33-13.65a2.06,2.06,0,0,0,2-1.67m-1.33,0s.34.67-.66,1.67m-.67-.34a2.3,2.3,0,0,0,.67-1.33m-1,0a1.39,1.39,0,0,1-.67,1.17m4.66,6.49a4.93,4.93,0,0,1-2.66.33m.3,7a14.75,14.75,0,0,1,4-.67m-.14-1a11.48,11.48,0,0,0-4,.67m0-1.17a8.74,8.74,0,0,1,3.76-.56M97,177.93a8.75,8.75,0,0,0-3.23.47m.06-1.23a9.07,9.07,0,0,1,2.67-.34m-.34-1s-1,0-1.33.67a.72.72,0,0,1-1,.33m0,15s2,.66,2,2.16m.67-.33s.66-1.5-2.17-3.16m2.57,7.29a.79.79,0,0,0,.9,0m.36-1.47c-.33-.33-1,0-1-.33"/><path class="cls-23" d="M98.2,184.82c-2.66,0-2.33-3.33-2.33-3.33a6.59,6.59,0,0,0-2.66.67s1,4,2,4.66l3-.33"/></g><path class="cls-23" d="M92.87,192.82a25.25,25.25,0,0,1-3.79-2.8s-1.44-.73,0-2.26l3.79-1.87.84-.9s-.47-.2.13-.73c0,0,.7-.07,1.7,1.6,0,0,.33.66-1,1l-3,1.83s.43.16,0,.53l2.8,1.13A5.36,5.36,0,0,1,92.87,192.82Z"/><path class="cls-14" d="M107.86,195.65l-6.33,8a5.56,5.56,0,0,1-2,1.67,5.12,5.12,0,0,1,1-2.33l6.33-8.33"/><path class="cls-14" d="M106.49,193.45s1.8,1.37,2.67,2.13l-.53.63L106,194.12Z"/><path class="cls-14" d="M96.2,198a4.23,4.23,0,0,0,4,0"/><path class="cls-22" d="M98.4,195.58h-.33m.13-2.1v-7m.53,9.33a2.28,2.28,0,0,1-1,0m.93,2.36s-.3,0-.3-.57v-.86s.33-.27-.17-.27c-.2,0-.3.07-.26.3M89.08,190a4.91,4.91,0,0,1,2.46-.77m-1.1-2.06a10.87,10.87,0,0,1,1.47,1.2m-.3.4s-2.53-1.4-2.53-1m.86,3.06a3.88,3.88,0,0,1,1.93-1.4m2-2.26a1.67,1.67,0,0,1-1-1.17m9,16.32,5.4-7M104.86,191s-1.33-1.34-1.33-2m.67-.67a5.59,5.59,0,0,0,1,2.33s.33-2.66,1.33-2.66m.66.66a8.32,8.32,0,0,0-1.66,2.34m3.66,3.39s.34-.73-.66-.73c0,0-2-.33,0-1.66m-2,.66a3.73,3.73,0,0,1,1.66-1.33m-8.49,6.79c.17-1.3-.5-3.13-1.5-3.13s-1.66,1.83-1.5,3.13A4.19,4.19,0,0,0,99.7,198.11Z"/><circle class="cls-14" cx="109.86" cy="191.99" r="0.67"/><path class="cls-24" d="M80.4,99.63c-12.64,0-22.88,10.17-22.88,30.51C57.52,155.57,75.73,181,98.2,181s40.69-25.43,40.69-50.86c0-20.34-10.25-30.51-22.89-30.51a22.89,22.89,0,0,0-17.8,8.5,22.87,22.87,0,0,0-17.8-8.5Zm0,0"/><rect class="cls-24" x="25.38" y="112.84" width="145.64" height="54.95" rx="5.46"/><text class="cls-25" transform="translate(54.65 134.49)">Włocławek</text><text class="cls-26" transform="translate(57 160.56)">Mahiloŭ</text><path class="cls-24" d="M44.92,0l-29,0H0L0,16q0,10.48,0,21A29.11,29.11,0,0,0,51.44,18.3,28.92,28.92,0,0,0,44.92,0Z"/><text class="cls-27" transform="translate(15.54 31.75)">39</text></svg>