<svg id="Слой_1" data-name="Слой 1" xmlns="http://www.w3.org/2000/svg" viewBox="0 0 195.59 280.63"><defs><style>.cls-1{fill:#428ecc;}.cls-2,.cls-24,.cls-30,.cls-34,.cls-5{fill:#fff;}.cls-25,.cls-3,.cls-32{fill:#107bc0;}.cls-12,.cls-13,.cls-21,.cls-22,.cls-23,.cls-3,.cls-4,.cls-5,.cls-6,.cls-8{fill-rule:evenodd;}.cls-10,.cls-4{fill:#424242;}.cls-6{fill:#da271e;}.cls-29,.cls-7,.cls-9{fill:none;}.cls-17,.cls-8{fill:#8c8b89;}.cls-30,.cls-9{stroke:#fff;}.cls-9{stroke-linecap:round;stroke-width:3.54px;}.cls-11{fill:#f0f0f0;}.cls-12,.cls-15{fill:#b7b6b4;}.cls-13,.cls-14{fill:#706f6b;}.cls-16{fill:#53524e;}.cls-18{fill:#d3d3d2;}.cls-19{fill:#c6c5c4;}.cls-20{fill:#a8a8a6;}.cls-21{fill:#eee52c;}.cls-22{fill:#fbfbfb;}.cls-23{fill:#ece42f;}.cls-24,.cls-25,.cls-26,.cls-27,.cls-28,.cls-29,.cls-31{stroke:#424242;stroke-miterlimit:10;stroke-width:0.75px;}.cls-26,.cls-33{fill:#df221b;}.cls-27,.cls-28{fill:#f7c503;}.cls-28{fill-opacity:0;}.cls-30{stroke-width:0.84px;}.cls-31{fill:#010101;}.cls-32{font-size:24.77px;}.cls-32,.cls-34{font-family:Impact;}.cls-34{font-size:20px;}.cls-35{letter-spacing:-0.01em;}</style></defs><rect class="cls-1" x="-6.62" y="-8.4" width="214.01" height="297.89"/><path class="cls-2" d="M99,142.69c21.49,12.84,37.33,29.92,47.08,50.76,9.37,20,13.37,44.1,11.89,71.55l-.11,2.2H37.52L37.38,265c-3.66-57,15.72-97,59.26-122.35l1.19-.69Z"/><g id="layer1"><g id="g3482"><path id="path2183" class="cls-3" d="M155.65,264.87c2.86-53.35-14.73-94.42-57.84-120.18-38.93,22.67-62,59.34-58.1,120.18Z"/><g id="g3195"><path id="path3184" class="cls-4" d="M148.58,264.57a6.54,6.54,0,0,1-1.19-4.05,2.67,2.67,0,0,1-2.77-2.79l-.59.57-28.25-31.7-.86,3.49,27.87,29.4-.65.62c1.79.22,2.49,1.19,2.3,2.84A9.87,9.87,0,0,1,148.58,264.57Z"/><path id="path3190" class="cls-5" d="M147.61,263.56A4.22,4.22,0,0,1,147,261a2.92,2.92,0,0,1-2.59-2.5l-.49.47-28.25-31.11-.25,1.27,28,30.31-.45.43a2.6,2.6,0,0,1,2,2.7A5.28,5.28,0,0,1,147.61,263.56Z"/></g><path id="path2820" class="cls-4" d="M75.32,257.92a9.77,9.77,0,0,1,8.25.12c5.51,1.52,7.64-2.19,12.54-1.9l0-2.93a12.92,12.92,0,0,0-5.32.5,7.92,7.92,0,0,1-8.83-.5c-2.42-1.18-4.68-1.53-6.59-.9-1.82,1-3.63.63-5.45-.25-1.42-.89-3-.53-4.49-.37a5.92,5.92,0,0,1-4.75-.21,4,4,0,0,0-3.5,0c-1.6.94-2.95.41-4.33.08-1.16-.64-2.17-.76-2.89.13-2.72,1.69-4.61-.92-6.84-1.78,2.83-.93,3.86.28,6.26-.7a5.08,5.08,0,0,1,4.09-.45c.85.23,1.66.69,2.72-.13a7.17,7.17,0,0,1,5.44,0,4.78,4.78,0,0,0,4-.29,7.85,7.85,0,0,1,5.28.12,6.17,6.17,0,0,0,4.58-.25,9.69,9.69,0,0,1,7.59.37c4,1.61,8-1.87,13.15-1.48l.09-3.55c-.78-.36-3.14.21-5.16.58-3.47,1.55-6.67.69-9.82-.7-2-.43-3.88-1-6.06-.62a7.26,7.26,0,0,1-6.27-.41,5.17,5.17,0,0,0-3.58-.41c-2,.88-3.55.24-5-.5-1-.32-2.48-.66-3.35-.12-1.73.52-3.42.77-4.74,0a3,3,0,0,0-3-.13c-1.83,1.92-4.32-1-6.6-1.89,1.23-.11,1.89-1.15,3.72-.25.77.13,1.58.39,2.14-.21a8.46,8.46,0,0,1,5.44.08c.94.24,1.59,1.14,3.14,0a5.43,5.43,0,0,1,5,0,3.36,3.36,0,0,0,3.22-.12,7.24,7.24,0,0,1,5.65.12,6,6,0,0,0,4,0,12.28,12.28,0,0,1,8.9.87c1.81.28,3.39,1.2,6,.12a19.69,19.69,0,0,1,9.12-.66c3.6.37,5.81.84,8.74-.9a11.73,11.73,0,0,1,8.62-1.2c1.85.15,3.14,1.06,6.72-2.06,1.37-.13,2.47,0,1.78,1.81l-2,2c-.41,1.5.57,2.52,1.78,2.27l2.39-1.81c1.56-.15,1.76.56,1.24,1.73l-2.15,2.14a1.59,1.59,0,0,0,1.78,2.19l2.84-1.77c1.34-.06,2.28.34,1.53,1.85l-2.93,3.18c-.54,1.11.84,2.8,2.1,2.18l3.47-2.39c1.15-.17,1.79-.16,1.4,1.65l-3,3.09c-.71,1.63.84,2.47,2,1.86l3.5-2.35c1.24-.23,1.88,0,1,1.44l-3.38,3c-.55,2.26.84,2.73,2.15,2.35l4.44-2.85c.59,0,1.73-.13,1.08,1.53l-5.58,3.95a14.66,14.66,0,0,1-13.48.8,19.84,19.84,0,0,0-11.91-.25c-4.54,2.48-9.25,1.24-13,.2a11,11,0,0,0-8.12-.58,10.24,10.24,0,0,1-9.15,0,8.51,8.51,0,0,0-7.12-.5c-1.67.69-3.66,1.55-6.53,0a3,3,0,0,0-3.67-.16c-1.16,1.3-2.58,1.52-4.4.08-1.29-.33-2.34-1-3.84-.12-1.25,1.58-3.69.88-4.45-.09-.91-.6-2.65-.21-4,.5a2.2,2.2,0,0,1-3,0l-3.49-.16c.25-1.89,1.57-2.07,3.24-1.67,1.05.05,2.15.27,3-.42a8.55,8.55,0,0,1,5.9-.75,1.1,1.1,0,0,0,1.69-.25c1.22-1.17,2.55-.78,3.88-.45s2.81,1.3,4.33.08a6.71,6.71,0,0,1,6.43-.37C72.45,258.35,74,258.68,75.32,257.92Z"/><path id="path2829" class="cls-5" d="M53.81,239.59a5,5,0,0,0-4.9.06c-1.75,1.16-3.35-.4-4.59-.22,1.36.58,2.86,2.86,4.41,1.44a4.41,4.41,0,0,1,3.66,0c1.54.53,3.07.84,4.5,0a4.35,4.35,0,0,1,4.38.44c1,.31,1.43,1,3.46.2a5.67,5.67,0,0,1,4.58.4c2.41,1.87,5.06.6,5.79.4a9.89,9.89,0,0,1,7.16,1,12.86,12.86,0,0,0,9.44.12,14.34,14.34,0,0,1,5.51-.51l-.19,5c-2.62,0-4.61-.11-6.92,1-2,.74-4.24,1.79-7.76.13a8.77,8.77,0,0,0-7.09.16c-1.44.44-2.8.88-4.37,0-1.45-.58-3.68-1.16-5.44.12a4.38,4.38,0,0,1-3.95-.13c-1.34-.26-3.12-1.13-5,0-1.5.84-2.23.92-3.09.27a4.13,4.13,0,0,0-3.67.52c-1.45.83-3.32.38-4.58.51,1,.13,2.64,1.76,4,.57,1.19-.18,2.34-.87,3.62,0a3.24,3.24,0,0,0,3.58-.28,5.5,5.5,0,0,1,4.46.24A4.61,4.61,0,0,0,65,251a8.19,8.19,0,0,1,5.39.6c1.36.5,2.72,1,4.3.16,2.58-1.14,5.38-.43,8.28,1.21,2,.55,2.94,2,9.37-.53l4.64-.13-.34,5s-.3-.33-.25-.35c-2.53,0-4.6,0-6.7,1.39a9.2,9.2,0,0,1-7.12-.29c-2.47-.43-4.25-1-6.72.41a5.72,5.72,0,0,1-5.1.08c-2.68-1.12-4-.94-5.58.18-1.41.82-2.76,1.16-4.06.37-1.39-.44-2.92-1.12-4.32,0-1,.69-2.22,1-3,.53-1.64-.72-3.48-.08-5,.81-2,1.38-4.69-.73-5.31.82,2,0,4.29,1.36,5.8.08a3.74,3.74,0,0,1,3.94-.12,3.06,3.06,0,0,0,3.94,0,3.13,3.13,0,0,1,3.7,0c1.49,1.09,3.45,1.28,4.52,0,1.61-1.14,2.74-.83,4.57.27,1.87.85,3.9.61,6.35-.52,3.41-.52,4.61-.3,7.15,1a9.16,9.16,0,0,0,7.84-.08,11,11,0,0,1,9.25.36c3.8,1.11,7.7,1.92,12.46-.24,4.27-1.4,9-1.07,11.57.07,5.33,2.6,10.78,1.73,14.11-.72l4.91-3.47c.13-.4.23-.86-.66-.75L139,260a2.28,2.28,0,0,1-3.13-3l3.37-2.9c.3-.75.2-1.22-.36-1.12l-3.45,2.81c-2,.7-3.53-.65-2.74-3l3-2.86c.35-.75.2-1.22-.73-1l-3.17,2.57c-2.56.69-3.58-.82-2.94-3.22l3.18-3.09c.5-1-.51-.85-.89-1l-2.77,1.73c-1.81.6-3.74-.71-2.77-2.73l2.33-2.25c.2-.58.16-1.24-.8-1l-1.77,1.81c-1.79.42-3.92-.79-2.82-3.58l2-1.64c.26-.68-.21-1-.8-.89-2.24,1.68-4.91,2.93-7.63,2.17a10.29,10.29,0,0,0-7.93,1.2c-3.48,1.79-6.64,1.34-9.48.81a18.3,18.3,0,0,0-8.57.7c-2.59,1.17-4.8.42-6.85-.23-2.91-1.9-6.57-1.49-9.25-.5a5.25,5.25,0,0,1-4.33-.42,7,7,0,0,0-4.56.29c-1.53.69-2,.36-3.46-.13a3.82,3.82,0,0,0-4-.14C56,240.34,55.19,240.52,53.81,239.59Z"/><path id="path2457" class="cls-4" d="M77.53,205.6a32.21,32.21,0,0,1-7-1.2,1.87,1.87,0,0,1-3-.92A14,14,0,0,1,58,192.78c-4.45,1.78,3.08,13.25,9.4,19,6.14,8.85,0,23.24-15.4,25.07-6.6.31-10.17-3.2-10.14-11.25,2.74-5.47,7.61-3.46,8.3-6,1-.52,1.92-.21,1.84.92a7.93,7.93,0,0,1-3,6.73c-2,3.21-4.69,5.32-.18,6.83,6,.58,9.11-1.39,10.42-5,2-10.76-8.27-18.42-8-28.86-.15-6.37,2.1-8.6,4.61-10.37,1.44-.46,2.4-1.19,2.12-2.63a2.23,2.23,0,0,1,.6-2.35c4.38-8.24,11.73-8.94,17.75-13.05.24-.33.67-.7.21-.93-4.9-.63-4.27-3.32-1-5.46.67-.18,1.45-.23,1.37-1.33,1.38-.13,2.22-.67,2.46-1.67,1.34,1,1.48-.21,1.88-.94.53,0,1.37,1.36,1.94-1.71.58,0,1.39,2.52,2-.07.25.33,1.15.89,1.12-.07a3.51,3.51,0,0,1,3.46-3.09c.37.86-.24,1.64.23,2.36,1.1.58,2-.17,1.38-.82-1.14-2-.61-4.42-.84-6.65,1.72-.85,9.56-2.45,10.45-.08,1.3.17,2.91.1,3.84.81a23.35,23.35,0,0,1-1.43,7c-.93,1.43-3,3.26-6.94,4.49-5.75,3.48-9.36,2.21-12.84,4.3.53,1.88,6.79.13,9.15,3a40.4,40.4,0,0,1,4.61,1.31c1.86.47,1.75,2.53.92,4-1.07,1.75-3,3.2-3,5.3,1.88-1.34,4-2.36,5.3-4.45a1.76,1.76,0,0,1,1.93-.69c.92,1.74-.43,2.92-1,4.3h1.61c2.4-.55,2.56-2.78,5.15-2.77a10,10,0,0,1-.69,3.61l2.53,1c1.35-1,2.4-2.79,4.3-2.3.42,1.25-.46,2.51-1,3.76a10.12,10.12,0,0,1,3,1.38c3.7-1.38,9.23-2.37,10.37-4.3h-4.3c-1.07-1.65-2.82-5.24-2.46-8-1,.28-2.11.6-3.53,1.08a1.57,1.57,0,0,1-1.85-.39c-3.12-2.83-3.8-5.88-4.76-8.91,3.18-.4,6.32-.33,9.3,1.31,2.92.43,5.57,1.11,6.07,3.76,2.12,5.71,6.6,5.33,8.22,11.37,2.08,3,3.42,6.52,4.92,9.91.56,1.62-.32,2.05-.93,2.69L133.64,195l1.38,1.69c2,2,1.73,4.12,1.08,6.3a65.6,65.6,0,0,1-.62,6.68,26.64,26.64,0,0,1-.5,2.8c1.12.1,1.5.17,2.67.23.23-1.81.43-3.49,2.06-3.49l1,.54a4.51,4.51,0,0,1-.08-2.3c2.5-.28,5.54-1.46,6.92.15,1.32,2.25-.83,2.67-.45,4.73a1.72,1.72,0,0,1,.43,2.93l2.4,6.48c1.32,5-1,6.07-.23,8a1.84,1.84,0,0,1,.92,2.61l.15,3.15c2.64,1.39,2.16,5.24,3.63,7.13-2.43-.45-4-3.09-5.88-5.05l-.82.27c1.31,2.1.55,4.39,1.74,6.85-1.33-1.43-3.65-2.11-5.07-5.62-.79,1.44-1.62-.91-2.58,0-.43.69-1.36-.21-1.88.15a2.69,2.69,0,0,1-1.79-.51,3.09,3.09,0,0,1-2.44-.37c-.81.07-1.38,0-1.51-.49a3.2,3.2,0,0,1-2-.51c-1.84.55-2.35-1-3.4-.79-1.64.29-2.48-.58-3.3-1.48a6.4,6.4,0,0,1-2.13-1.79c-1.14-.31-1.36-1.36-1.79-2.24a4.17,4.17,0,0,1-2.41-3.13,5.15,5.15,0,0,1-1.85-3.23l-.93-1.56c-9.53-23.09-12.43-20.67-36.21-17.78C79.58,206.31,79,207.29,77.53,205.6Zm60.37,9.61a24.77,24.77,0,0,0-3.48-.29c-.68,3.17-1.29,6.24-.23,7.79.83-2.66,1.45-5.68,3.46-6.38A3.62,3.62,0,0,0,137.9,215.21Zm-10.37-26.77a11.8,11.8,0,0,1,2.95-3.26,1,1,0,0,1,1.48.14c.83,1.55,2.11,3.24,2.17,4.54C133.56,189.93,131.34,188,127.53,188.44Z"/><g id="g2186"><path id="path1307" class="cls-4" d="M116.27,230.63l-39-.11c-1.3-15.48,2-32.37,19.88-41.54C114.2,200.61,117.58,215.25,116.27,230.63Z"/><path id="path2182" class="cls-6" d="M115.81,229.57l-37.66-.11c-1.25-14.91,2-31.17,19.17-40C113.82,200.65,117.07,214.76,115.81,229.57Z"/></g><path id="path2635" class="cls-5" d="M137.65,234.12l-.06-3L134,224.94a11.4,11.4,0,0,1-.73-6.14,77.5,77.5,0,0,0,2.43-15.53c-9.53-2.24-15.85,2.89-21.31,6.59l1.1,3.25c1,.09,2-.08,1.09-1.5-1.11-1-1-1.91,0-2.72,1.07-.24,1.34,1,1.84,1.8a7.13,7.13,0,0,0,1.92-2.88c.88,1.34,1.12,2.15.42,3.3-.57.67-.3,1.9-.31,2.95a3.11,3.11,0,0,1,2.65.27c-1.69-.19-3.27,3-2.88,5l.77-.73a2.34,2.34,0,0,0,1,2.4,3.47,3.47,0,0,1,.74-2.63c-.1,2,1.23,2.37,1.8,3.26.5-1.78-1.68-3.48.07-4.93,1.55-.34,2.51-.13,2.63,1.46a2.19,2.19,0,0,1-1.05,1.59c-.61-.27.28-3-1.23-1.61,0,1.5.83,2.07,3,4.22.28.83-.59,2.5.14,2.5a3.31,3.31,0,0,0,1.13,0c.27-.07,0-1.48.37-1.52a4.27,4.27,0,0,1,2,2.74c1.77.32,2.23,1.68,2.7,3.45a4.48,4.48,0,0,0,.62,1.52c.1.13-.12,4.2,0,4.31s.29.6.68.4c.18-.76.09-3.83.23-3.77Z"/><path id="path2637" class="cls-5" d="M135.86,202.83c-8-2.07-14.57,1.08-21.41,6.56l-.25-.59c6.89-5.93,13.9-8.58,21.74-6.72Z"/><path id="path2642" class="cls-5" d="M136,201.5c-8-1.78-15.21.8-22,6.77l-.25-.59c6.59-6.17,14.18-8.76,22.43-6.81Z"/><g id="g2486"><path id="path2582" class="cls-5" d="M127.4,189.63l6.21,4.91a22,22,0,0,0,3.61-1,1.65,1.65,0,0,0,.37-2.2,30,30,0,0,0-4.28-9.53,5.89,5.89,0,0,1-1.57,1.85,22,22,0,0,1,3.24,5.83c.07,1-.29,1.34-1.09,1.11C131.69,189.52,129,188.44,127.4,189.63Z"/><path id="path2477" class="cls-5" d="M152.11,240.28c-.79.43-3.36-3.48-2.61-3.24.9.05,1.16.83,1.62,1.45A5.7,5.7,0,0,1,152.11,240.28Z"/><path id="path2479" class="cls-5" d="M152.3,239.66c.39-1.18-.84-3.7-2.21-3A11.83,11.83,0,0,1,152.3,239.66Z"/><path id="path2481" class="cls-5" d="M147.76,241a12,12,0,0,1-.85-1.75,12.44,12.44,0,0,1-1.08-1.83C146.25,237.29,148.12,239.05,147.76,241Z"/><path id="path2483" class="cls-5" d="M147.72,242.05c-.88-.2-2.14-2.62-2.21-3.73C146.06,238.36,146.5,238.58,147.72,242.05Z"/><path id="path2485" class="cls-5" d="M148.56,231.72a.44.44,0,1,1,.44.48A.46.46,0,0,1,148.56,231.72ZM149,233a1.26,1.26,0,0,0,1.21-1.27,1.25,1.25,0,1,0-2.49,0A1.26,1.26,0,0,0,149,233Zm0-.46h0a.81.81,0,0,1,0-1.61.79.79,0,0,1,.79.8A.81.81,0,0,1,149,232.54Z"/><path id="path2497" class="cls-5" d="M138.85,231.72a.44.44,0,1,1,.44.48A.46.46,0,0,1,138.85,231.72Zm.43,1.28a1.27,1.27,0,0,0,1.22-1.27,1.25,1.25,0,1,0-1.25,1.27Zm0-.46h-.05a.78.78,0,1,1,.05,0Z"/><path id="path2499" class="cls-5" d="M140.14,214.38a.45.45,0,0,1,.44-.48.46.46,0,0,1,.44.48.47.47,0,0,1-.44.48A.46.46,0,0,1,140.14,214.38Zm.42,1.28a1.27,1.27,0,0,0,0-2.53,1.27,1.27,0,0,0,0,2.53Zm0-.46h-.06a.8.8,0,0,1-.79-.81.79.79,0,0,1,.79-.8.81.81,0,0,1,.06,1.61Z"/><path id="path2501" class="cls-5" d="M146,214a.44.44,0,1,1,.44.49A.47.47,0,0,1,146,214Zm.43,1.28a1.27,1.27,0,1,0-1.28-1.27,1.25,1.25,0,0,0,1.28,1.27Zm0-.46h0a.81.81,0,0,1,0-1.61.81.81,0,0,1,0,1.61Z"/><rect id="rect2503" class="cls-2" x="140.94" y="231.33" width="6.34" height="0.64"/><rect id="rect2505" class="cls-2" x="141.97" y="213.94" width="3.05" height="0.56"/><path id="path2507" class="cls-5" d="M149.53,236.79c.36-.42.15-2.2.16-3.45-.94,0-1.64,0-2.21-.69l-6.71-.11c.07.66-1,1.26-2.49.72a3.19,3.19,0,0,0,3.06,2.49c1.11.17,1.94,2.4,4.14,2.57-.07-1.45.64-.65.76-4.34l.56-.88a1.34,1.34,0,0,0,1.85.72C148.94,234.82,149,237.22,149.53,236.79Z"/><path id="path2514" class="cls-5" d="M148.53,237.07c.89-.57-.48-1.85-.29-2.44C148.1,234.55,147,235.05,148.53,237.07Z"/><path id="path2516" class="cls-5" d="M147.78,237.36c-.3-.21-.69-.63-.6-1.81C147.4,235.46,147.87,236.17,147.78,237.36Z"/><path id="path2518" class="cls-5" d="M146.75,237.22a2.94,2.94,0,0,0-.12-2.19A2.52,2.52,0,0,0,146.75,237.22Z"/><path id="path2520" class="cls-5" d="M149,227.69l-1.3-9.27C148.78,220.75,150.78,224.06,149,227.69Z"/><path id="path2522" class="cls-5" d="M148.12,230.11l-2-14.32.73,0,2,14.29Z"/><path id="path2524" class="cls-5" d="M139.67,230.08,139,230l1.25-14.15.71.15Z"/><path id="path2526" class="cls-5" d="M147.29,230.75l.44-.53-2-14.39-.81-.72H142l-.58.67-1.29,14.3.62.53Z"/><path id="path2528" class="cls-5" d="M142.11,228.64c.8-1.37,4.44-1.62,3.89-5.47C145,224.66,141.27,224.27,142.11,228.64Z"/><path id="path2530" class="cls-4" d="M143,226a.94.94,0,1,1,1.87,0h0a.93.93,0,0,1-.93.93A.92.92,0,0,1,143,226Z"/><path id="path2532" class="cls-7" d="M143.79,228.4a3.64,3.64,0,0,0,2.31-1.68"/><path id="path2534" class="cls-7" d="M141.2,227.58c0-1.93,0-3.84,1.15-4.27"/><path id="path2536" class="cls-5" d="M138.37,229.07a64.4,64.4,0,0,1-3.35-5.66c.51-3.36,1.58-5.53,3.11-6.72l.58-1.58c.43,0,.73.29.91.82Z"/><path id="path2538" class="cls-7" d="M137.51,223.55l1-5.32"/><path id="path2540" class="cls-5" d="M137.7,230.75l.72-.48-3.64-6.43-.68.53Z"/><path id="path2542" class="cls-5" d="M141.73,213.1a9,9,0,0,0-.53-4.56c.52-.49,3.83-1.29,5.14-.72,2.07,1,.09,2.85-.1,4.32-.67.06-1.27.23-1.44,1.05A5.07,5.07,0,0,1,141.73,213.1Z"/><path id="path2544" class="cls-4" d="M142.35,209.79c1.57,0,1.9.87,2.79.91a1.14,1.14,0,0,0,.09-2.21.71.71,0,0,0-.72.77C143.75,209.34,142.77,209,142.35,209.79Z"/><path id="path2546" class="cls-5" d="M139.19,213.63c2-1.85,1-3.09.24-3.46C138.68,211.7,138.17,213.1,139.19,213.63Z"/><path id="path2548" class="cls-5" d="M138.78,214.88l.11-1.41a93.81,93.81,0,0,0-24.08-.71l.32,1.74A91.09,91.09,0,0,1,138.78,214.88Z"/><path id="path2630" class="cls-8" d="M126.27,179.06c.29,1.4-1.67.95-2.84,1.15a1.43,1.43,0,0,1-.49-1.8Z"/><path id="path2626" class="cls-5" d="M119.94,172.21c-.94-1.12-.54-3.41-.82-5.11,1.16.3,2.39.1,3.48.92,1.6.41,1.72,2,2.46,3.07,1.23,3.09,3.14,4.27,4.66,5.86,2.28,1.13,3.5,3.85,2.63,5.25-2.72,3.42-6.6,6.41-8.11,9.67-.39.22-.93,0-.68-.64.58-1.64-1.27-2.2-2.35-2.56-.29-1.28-1.76-1.77-3.69-2,.46-1,2.46-1.07,3.92-1.47a40.68,40.68,0,0,0,7.1-3.63c.59-.58.93-1.13,0-2-1.28-1.42-3.17-3.28-2.53-4.49-1.9-.37-1.58.72-3.56.26,1.08-1,1.45-1.78.26-2.84C122.43,171.89,120.86,172.31,119.94,172.21Z"/><path id="path2628" class="cls-5" d="M126.79,178.71c-.56-.19-1.23,0-1.29-1-1-.21-1.07-1-.88-2l-2.88-.09c.08.54-.06,1.34.51,1.45l1.94.15c0,.69-1.15.25-2,.32.08.59,0,.89.35,1.06a6,6,0,0,1,3.44.85C126.31,179.29,126.94,179.11,126.79,178.71Z"/><path id="path2632" class="cls-8" d="M121.08,174.69c-1-1.21,1-1.72,1.53-.88C122,174,121.28,174,121.08,174.69Z"/><g id="g2648"><path id="path2634" class="cls-8" d="M119.61,172.53c-.45.73-1.64.72-2.77.77-.2-.26-.48-.46.23-1.46-.27.9-1.35.89-2.68.61a2.15,2.15,0,0,0-1.23-1.53l2.15-.16c0-.4-1.54-.32-2.38-.46-1.26-.78-1.68-2.28-1.76-4.06,2.28-.14,5.56.74,6.29.46l-5.83-1c1.68-1,4.27,0,6.83.92C118.5,168.37,117.91,170.72,119.61,172.53Z"/><g id="g2643"><path id="path2636" class="cls-9" d="M119,172.35h-1.27"/><path id="path2639" class="cls-9" d="M118,171.37l-2.87,0"/><path id="path2641" class="cls-5" d="M112.79,170.15c1.84-.12,4.64.44,5.36-.47.67-2-.82-1.9-1.71-1.87-2,0-2.81-.13-3-.35l2.83-.49c0-.36-1.19-.27-2.3-.23-.38.36-1.63.29-2.55.38a2.8,2.8,0,0,0,1.29,1.78c1.67,0,2.12.56,3.53.56C116.36,170.14,112.76,169.41,112.79,170.15Z"/></g></g></g><g id="g2421"><g id="g2442"><path id="path2410" class="cls-4" d="M91.69,235l1.85-.09c.9-2.09-.18-3.76-4.43-4.67l15.09.32c-1.93.43-3.42,1-3.66,2.2.25.77,1.74.28,2.69.34.64.12.9.88.34,1.68l0,5.08a4.32,4.32,0,0,1-1.75,2.27l-2.92,2.5c-1.1,1.25-5.72,2.34-7.09-.22l-.86-8.14C91,235.64,91.12,235.1,91.69,235Z"/><path id="path2414" class="cls-5" d="M99.76,233.43a2.56,2.56,0,0,1,1-2.24l-7.17-.11c.4.83,1.39,1.66.89,2.5-.36,1.12.49,1.14.86,1a3.77,3.77,0,0,1,1.83-1.31C97.88,233.66,99.57,233.76,99.76,233.43Z"/><path id="path2416" class="cls-5" d="M95.62,244.55l-1.35-1.12c-.47-.19-.94-.45-1.42-.07-.26.25-.25.69.08,1.34a5.52,5.52,0,0,0,2.24.82C95,244.88,95,244.4,95.62,244.55Z"/><path id="path2418" class="cls-5" d="M93.6,242.69l-.37-6.95c-.62-.16-.83.19-1,.82l.45,5.31C92.91,242.78,93.13,242.76,93.6,242.69Z"/><rect id="rect2420" class="cls-2" x="97.33" y="239.55" width="4.55" height="0.67"/><rect id="rect2424" class="cls-2" x="97.26" y="240.97" width="3.88" height="0.52"/><path id="path2426" class="cls-5" d="M100,242c0,.68-1.12.07-1.42,1.17-.64.59-1.17.24-1.32,0a2.91,2.91,0,0,0-1.93-.33c-.72.21-1.07-.08-1.2-.67l-.07-6.58a3.64,3.64,0,0,0,2.61-1.36l5.53-.05-.07.32-.88.09-.13.5-.71,0,0-.51h-1V235l-1,0,0,.54,1,.21-.08.71.79.13.13-.76.71.13,0,.67.58,0,.67-.42-.12,2.72-5.48.12,0,2.85Z"/><rect id="rect2430" class="cls-10" x="94.51" y="241.49" width="0.79" height="0.79"/><rect id="rect2432" class="cls-10" x="94.51" y="240.23" width="0.79" height="0.79"/><rect id="rect2434" class="cls-10" x="94.51" y="238.81" width="0.79" height="0.79"/><rect id="rect2436" class="cls-10" x="94.51" y="237.52" width="0.79" height="0.79"/><rect id="rect2438" class="cls-10" x="94.51" y="236.14" width="0.79" height="0.79"/><path id="path2440" class="cls-5" d="M103.12,234.59l0,5.18c-.4,1.48-1.7,2.07-2.59,3.06l-.25-.21c.8-1,2.19-1.81,2.38-3V236l-1.13-.29.12-.44,1,.06v-.75Z"/></g><g id="g2661"><path id="path2655" class="cls-8" d="M104.38,152.34a20.7,20.7,0,0,1-1.3,6.07,8.77,8.77,0,0,1-3.71,0,2.38,2.38,0,0,1,.76-1.85c.11-.28.39-.49,0-1-1.35-1.45.41-3.43,1-3.56C102.83,151.66,102.57,152.36,104.38,152.34Z"/><path id="path2657" class="cls-5" d="M103.37,157a32,32,0,0,0,.72-4.06c-.18-.11-.36-.3-.54,0a13,13,0,0,1-.66,3.92C103,157.08,103.18,157,103.37,157Z"/><path id="path2659" class="cls-5" d="M101.62,158.44c1.2-2.64.82-4.16,1.2-6.24-.81-.48-1.58-.11-2.39.87a3.05,3.05,0,0,1,.07,2.61,5.5,5.5,0,0,0-.11,2.73Z"/></g><g id="g2684"><path id="path2666" class="cls-8" d="M98.13,157.58c-1,.63-4.28.31-5.7.15,1.5-2.1,1-4.11.44-6.1,3.06-.31,5.23-1.92,6.42-.26C99.76,152.18,99.56,156.29,98.13,157.58Z"/><path id="path2668" class="cls-8" d="M91.81,157.69c-.62-.69-.58-6.1.73-5.7C92.38,154.3,92.5,158,91.81,157.69Z"/><g id="g2678"><rect id="rect2670" class="cls-11" x="91.63" y="153.4" width="0.44" height="2.32"/><path id="path2672" class="cls-5" d="M96.61,157.76c1.3-1.85-.2-3.21,1.12-6.17.23,1.17.54,2.06,1.06,2.18-.13-1-.29-2,.14-2.58a5.14,5.14,0,0,0-2.94-.07l-1.2.47-1.67.14c1.16.46.88,2.13.73,3.71-.6.46-.37,1.47-.44,2.29l1,.07c.47-.47.1-5.57,1.2-5.78a26.43,26.43,0,0,0-.33,5.78Z"/><rect id="rect2674" class="cls-11" x="97.7" y="154.13" width="0.4" height="1.27"/><rect id="rect2676" class="cls-11" x="97.01" y="152.02" width="0.58" height="1.34"/></g></g><g id="g2697"><path id="path2693" class="cls-5" d="M88.62,183.5c1.82-.66,3.48-1.64,5.47-2l4.07-6.24c.37-1.18.25-2-.49-2.45a15.18,15.18,0,0,0-4.28-.91c-.35,1,1.28,2.07-.56,4.34C91.4,178.6,89,182,88.62,183.5Z"/><path id="path2695" class="cls-5" d="M102.64,159.25l-4-.21c-2.32,4.86-10,2.52-16.41,8.48l1.19.14c1.66-1.47,7.85-1.58,12.69-4.56A14.17,14.17,0,0,0,102.64,159.25Z"/></g><g id="g2753"><path id="path2703" class="cls-5" d="M75.42,177.4a.51.51,0,0,1,.49-.54.54.54,0,0,1,0,1.08A.51.51,0,0,1,75.42,177.4Zm.47,1.43a1.41,1.41,0,0,0,1.36-1.42,1.39,1.39,0,1,0-1.39,1.42Zm0-.52h-.06a.86.86,0,1,1,.06,0Z"/><path id="path2705" class="cls-5" d="M70.17,189.69a.49.49,0,1,1,.49.54A.51.51,0,0,1,70.17,189.69Zm.48,1.43a1.41,1.41,0,1,0-1.43-1.41,1.4,1.4,0,0,0,1.43,1.41Zm0-.52s0,0-.06,0a.86.86,0,1,1,.06,0Z"/><path id="path2707" class="cls-5" d="M80.46,193.44A.49.49,0,1,1,81,194,.52.52,0,0,1,80.46,193.44Zm.48,1.43a1.41,1.41,0,0,0,0-2.82,1.41,1.41,0,0,0,0,2.82Zm0-.52h0a.9.9,0,1,1,.88-.9A.89.89,0,0,1,80.91,194.35Z"/><path id="path2709" class="cls-5" d="M84.55,182.1a.5.5,0,1,1,1,0,.5.5,0,1,1-1,0Zm.49,1.46a1.45,1.45,0,0,0,0-2.89,1.45,1.45,0,0,0,0,2.89Zm0-.53H85a.88.88,0,1,1,.06,0Z"/><path id="path2701" class="cls-5" d="M85.14,184a19.67,19.67,0,0,0-2.6,6.05,2.07,2.07,0,0,0,.35,2.15,10.63,10.63,0,0,0,4.1,2.15c-.28.51-1.71-.41-1.75.2.93.53,2.55,1,3.45-.65.82.09,1.32-.46,1.61-1.44.76-3.41,2.48-5.37,3.59-8.38.27-.7.24-1.71-1.19-1.67l-4,1.57c-1.15.46-1.33,1.25-1.81,2.67l-.34,4.07c-.16.82-.18.44-.6.09-.25-4.78,1.84-8.73,5.42-13.91,1.5-2.64,1.12-5.24-1.67-6.53-2.79-1-6.73.27-8.52-2.28,0-1.69,2.21-3,5.14-4.14,3.39-2.17,9.88-.95,11.71-5.71l-5.86.14c-1.28,1.94-3.92,1.7-3.51-.57-1.57-.41-1.55,1.57-1.87,3.06-2,1.39-2.76,1.09-3.45.65,0,1.79-.86,1.37-2.15,1.5-.08.78-1,.85-2,.85.33.55,0,.85-.3,1.14-.9-.46-1.54-.13-1.9,1-5.12,1.44-3.23,3.94-1,4.05,2.7.76,1.09,2.25-.5,3.2-5.6,3.48-12.67,5.42-15.74,11.54.06,0,0,.49.41.6l9.48,2.7.53-.29a25.82,25.82,0,0,1,4.12-9.4,1.83,1.83,0,0,1,2.35-2.6,1.94,1.94,0,0,1-.3,3.6,28.85,28.85,0,0,0-4.39,8.83l.44.61,7.26,3,.88-.44a28.29,28.29,0,0,1,2.9-8.34c-.68-2.41,1.29-3.16,2.6-2.39A1.89,1.89,0,0,1,85.14,184Z"/><path id="path2726" class="cls-5" d="M81.83,191.72a21.8,21.8,0,0,1,2.79-7.86l-.76-.42a22.1,22.1,0,0,0-2.81,8.05Z"/><path id="path2728" class="cls-5" d="M75.68,179.18a30.55,30.55,0,0,0-4.24,9l-.81-.2a28.91,28.91,0,0,1,4.24-9.17Z"/><path id="path2730" class="cls-5" d="M86.44,196.89l.58-.73-4.31-2.82-.24.79Z"/><path id="path2732" class="cls-5" d="M80.89,204.73a43.57,43.57,0,0,1,5.19-7.54l-3.58-2.64-1.1.67a61.91,61.91,0,0,0-1.91,9.44Z"/><path id="path2734" class="cls-5" d="M78.88,205.54A46,46,0,0,1,81,195.19l-1-.3A75.84,75.84,0,0,0,78,205.51C78.45,206,78.63,205.68,78.88,205.54Z"/><path id="path2736" class="cls-5" d="M79.09,193.16l.34-.95-7-2.67-.3.91Z"/><path id="path2738" class="cls-5" d="M71,191.45a50.33,50.33,0,0,0-1.16,11.73c2.17.95,5.23,1.75,7.72,1.18a45.75,45.75,0,0,1,2-9.67l-.32-1-7.32-2.85Z"/><path id="path2747" class="cls-5" d="M70.47,191.52l-.88-.34A98.9,98.9,0,0,0,68,203.33c.43.32.67.52,1.09.12A97,97,0,0,1,70.47,191.52Z"/><path id="path2751" class="cls-5" d="M68.89,189.3l.31-.85L58.63,185.5l-.25.94Z"/></g><g id="g2402"><path id="path2749" class="cls-5" d="M60,227.94c2.29-10.18-8-15.13-7.84-27.47.13-3.47-.56-9.53,6.37-10.66a4.69,4.69,0,0,1,.3-2.56l10,2.67.24,1.34-2,10.87c-.07.44-.51.32-.88.3-5.09-2.64-7.17-6.26-7.57-10.44-3.13.56-3.6,3.27-2.56,6.2,2.91,9.58,11,11.3,12.2,19.3a14.84,14.84,0,0,1-8.24,16.21c.1-.88,1.27-1.67,2.07-2.21-1.4,0-3.59,3.09-5.62,3.68C56.48,234.29,59.4,231.71,60,227.94Z"/><g id="g2777"><path id="path2770" class="cls-5" d="M56.76,233.63l-5.62,1.81C52.43,237.27,55.68,235.53,56.76,233.63Z"/><path id="path2772" class="cls-4" d="M55,234.77a3.48,3.48,0,0,1-2.81.81Z"/><path id="path2775" class="cls-12" d="M51,235.58c-.43-.6-3.48-.32-4.22-1.28C47,236.14,49.51,236.49,51,235.58Z"/></g><path id="path1500" class="cls-7" d="M45.78,229.61c.85-2.32,2.7-3.21,3.88-5.29"/><g id="g2379"><path id="path1493" class="cls-5" d="M45.44,234.5c-.3-7.28,6.05-7.36,5.5-13.66-1.56,1.48-6.74,1.26-8.18,6.29C42,230.62,44.12,234,45.44,234.5Zm-.33-1.6c-3.4-7.6,2.69-8.93,4.69-10.79C48.6,225.86,43.26,226.77,45.11,232.9Z"/><path id="path1504" class="cls-5" d="M44.57,228.88c1.28-3.25,3.87-4.72,4-5.5C47.27,224.41,44.87,225.07,44.57,228.88Z"/></g><g id="g2395"><path id="path2383" class="cls-7" d="M54,204.36c-.26-3.7-1.54-8.82,1.94-12.8"/><path id="path2385" class="cls-7" d="M56.9,210.65a34.94,34.94,0,0,1-1.81-13.73"/><path id="path2387" class="cls-7" d="M63.2,219.23c-.83-4.83-3-8.3-4.63-12.33"/><path id="path2391" class="cls-7" d="M64.6,228.41c4.94-12.73-4.53-17.6-6.09-24"/><path id="path2393" class="cls-7" d="M59.58,231.42c5.23-5.47,2.92-12.14-.67-19A28.74,28.74,0,0,1,56,199.8"/></g></g></g><path id="path1527" class="cls-5" d="M131.58,232.4c.25-1.56.28-3.41-1.05-3.39C129.45,230.53,131.16,231.8,131.58,232.4Z"/><path id="path1513" class="cls-5" d="M140,235.91c2-.32,3.18,2.2,4.23,2.52-.2.54-1.24.33-1.81.21,0-1.39-2.62-1.39-2.52-2.75"/><path id="path1515" class="cls-5" d="M141.92,238.59a2.3,2.3,0,0,1-1.92,0l-2.73-4.73c2.88,1.14,1.88,3.66,4.44,4A.69.69,0,0,1,141.92,238.59Z"/><path id="path1517" class="cls-5" d="M139.61,238.51c-.19.3-.82,0-1.29-.18a11.91,11.91,0,0,1-.61-2.71C138.2,235.46,138.81,237.71,139.61,238.51Z"/><path id="path1519" class="cls-5" d="M137.72,238.12c-.29.14-.6.37-1.42-.13-.94-.79-.29-3.36-.36-5,1.43.16-.43,3.76,1.62,4.57C137.75,237.61,137.55,238,137.72,238.12Z"/><path id="path1521" class="cls-5" d="M135.51,237.75c-1.45.77-2.21-1.69-2-3.2.12-.22-.11-.53.08-.67.56-.4.81-1.35.11-1.76-.29-.16.06-.64-.06-1,.52,0,1.51,0,.79,3.18C134.27,236.11,135.78,235.49,135.51,237.75Z"/><path id="path1525" class="cls-5" d="M132,230.05c.08-2.69-1.29-3.16-.67-3.79a2.79,2.79,0,0,1,2.09,2c.13.77.81,1.47.59,2.24a2.4,2.4,0,0,0-1,2.6,4.11,4.11,0,0,1,0,2c-.52-.2-1.16.3-1.21-2.83A6,6,0,0,0,132,230.05Z"/><path id="path2423" class="cls-5" d="M130.83,227c.45,0,1.1,2.5.88,2.3s-.51-.65-.9-.72C130.59,227.86,130.52,227.17,130.83,227Z"/><path id="path1529" class="cls-5" d="M133.51,237.14c-1.26.32-1.24-1.35-1.1-1.7C133.16,235.32,133.68,236.65,133.51,237.14Z"/><path id="path1531" class="cls-5" d="M132.12,237c-2.37.55-3.27-1.84-3.64-3.44-.79-3.23.17-4.89-.06-8.27.26-.32.45-.18.63.05v6.49c.4,1.63.86,4.09,2.89,4.05Z"/><path id="path1533" class="cls-5" d="M131.81,235.36c-1.32-.1-2-1.86-2.49-4.12l.28-7.39a2.44,2.44,0,0,1,1.39,1.92c-.21.94-.72,1-.62,2.71-.68.78-.55,2.54-.11,2.76C131.47,232.53,131.55,233.8,131.81,235.36Z"/><path id="path2419" class="cls-5" d="M137.53,237.07c.11-2.8-.5-2.53-.89-3.19C136.69,234.92,136.65,237,137.53,237.07Z"/><path id="path2427" class="cls-5" d="M111.52,204c1.24-1.21,2.37-.86,3.53,1.07-2.14-3.48,2-4.94,3.23-1.8-1.82-2.72,2.12-5.31,3.65-2-1.08-3.43,2.79-3.86,3.92-1.2-.47-2.87,4.13-2.85,4.26-.68.24-2.23,3.8-2,3.66.06.34-2.31,3-1,2.19.79-8.81-2.3-16.74,1.5-22.69,6.76Z"/><path id="path2498" class="cls-5" d="M135.41,197.72a30.89,30.89,0,0,0-8.84-7.88c-.41-.16-1.77,1.11-1,2.07.4,1-.71,1.72-1.49,1.68a.76.76,0,0,1-.84.91c.2-.92-.81-1.66-2.21-1.94a1.51,1.51,0,0,1-1.62.64l-8.42,9c.59,1.49,1.26,2.2.88.2.46.7,1.56,1.22,1-.15.88,1.2,2,1.91.71-.54.72.8,1.13.81.46-.55.59.6,1.26.83.5-.53.7.72,1.4,1,.86-.24,1.27,1.49,1.23.57.73-.18,1.07,1.24,1.9,1.56,1,0,1,.56.85.22.54-.64,1,.69,1.11.2.73-.72.74,1.09,1.38.74.87-.18,1.08,1.26,1.23.7,1,0,1.32,2.08,1.35,1.12.84-.39.83,1.35,1,.66.64-.61.88,1.8.61.21.69-.47.62,2,.88.8.8,0,.28,1.14,1,1.35.77.21.58,1.63.87,1.43,1,.52.41,1.88.71,1.35.66-.32.6.94.33,1.5.75-.57.33,1.6.59.84.62-.42.1,1,.78,1.8.62.14.32,1.14.76,1.35.7.11.35,1.19.5,1.15.62.22.49,1.61.63.71.62.26.75,2,.55,1,.68.08.12,1,.61.63.5-.22.24.83.48.61.42-.26.28,1.15.48.63.51.05.12,1.07.48.61.52,0-.2,1.08.31.51.38.2,0,.86.29.69.42.14-.06.9.2.9.31.26a1.06,1.06,0,0,0,.19.65c.11.1,0-.49.16-.43s.14.74.23.7.19-.94.09-.92c.27,0,0,.61.35.6.13,0,.08-.63.15-.56s.12.49.28.47.1-.39.17-.37c.11.19,0,.48.25.4S135.33,197.78,135.41,197.72Z"/><path id="path2737" class="cls-5" d="M129.27,236.21c-1,.29-2.13-.54-2.11-3.55a17.67,17.67,0,0,1,.66-6.38c.32-.37.46-.17.59,0a19.93,19.93,0,0,0-.59,6.51A5.55,5.55,0,0,0,129.27,236.21Z"/><path id="path2739" class="cls-5" d="M127,221.61c2.35,2-2.09,8.77.79,14.6-3.69-.8-2-6.19-1.58-9.6-.47.26-.29,1.16-.66,1.51.11-2.18-.45-2.78-.72-4.4-.4.26-.1,1.9-1,2,.44-1.71.33-3.05.64-3.65a7.47,7.47,0,0,1,2.19,3.78c.31-2,.18-3.86-.9-4.79-1.43-1.24-2.44-4.16.08-4.21,1.24.31,1.52,2,.31,2.25.13-.35.73-2.14-1-1.4C123.73,219.1,126.3,221.13,127,221.61Z"/><path id="path2741" class="cls-5" d="M126.31,223.67a3.47,3.47,0,0,0-1.25-2.71C124.43,221.37,125.88,223.49,126.31,223.67Z"/><path id="path2746" class="cls-5" d="M125.52,234.7c-.67-1.25-.44-2.73-.46-4.14a12.2,12.2,0,0,0-.28-5.68c-.3,1.13-.8,1.22-.8,1.59s.34,1.18.62,4a9.52,9.52,0,0,0-.26,3.09C124.73,234.34,125.13,234.64,125.52,234.7Z"/><path id="path2748" class="cls-5" d="M123.61,233.05a1.89,1.89,0,0,1-1.51-1.51c-.53-1.1-.24-4.43.13-4.47C123.47,228.19,123.78,230.36,123.61,233.05Z"/><path id="path2750" class="cls-5" d="M123.94,231.87c.15-4.54-1.83-3.25-1.73-8.84-.54.13-.32,3-.57,2.79-.65-.1-.21-3.47.3-4.31.73.11.94.55.8,4.05C123.12,226.61,125,228.09,123.94,231.87Z"/><path id="path2752" class="cls-5" d="M121.46,229c.63-2.12.05-2.72-.59-3C120.93,227.74,120.88,228.72,121.46,229Z"/><path id="path2754" class="cls-5" d="M121.46,230.25c-1.75-2-.39-5.78-1.35-5.66C119.85,226.84,119.76,230.74,121.46,230.25Z"/><path id="path2756" class="cls-5" d="M119.47,227.28a8.74,8.74,0,0,1-2-3.12c-.72-2-1.14-2.85.51-5l.38,0c-.3,2.85-.49,5.66,1.16,7A1.39,1.39,0,0,1,119.47,227.28Z"/><path id="path2758" class="cls-5" d="M119.54,225.2c.7-1.11-.42-2-.58-3.33-.07-.6-.36-.56-.42-.75-.36,3.17.76,3,.63,3.79C119.09,225.4,119.48,225,119.54,225.2Z"/><path id="path2760" class="cls-5" d="M120.22,223.81c-1.06-1.34-1.3-3.7-.36-4.5.24.11.48,1,.87.3a5.72,5.72,0,0,1,.16,4.48C120.77,224.33,120.39,223.61,120.22,223.81Z"/><path id="path2762" class="cls-13" d="M120.3,222.16a1,1,0,0,0,0-1A1,1,0,0,0,120.3,222.16Z"/><path id="path2764" class="cls-5" d="M119,220.51a26.07,26.07,0,0,1,2.41-6c-2.23.14-2.91.71-3.37,2.41C119.15,217.73,118.26,220.4,119,220.51Z"/><path id="path2766" class="cls-5" d="M116.87,220.12l1.09-1.83c-.1-.37-.39-.35-.35-.9,0-.71.18-1.53.31-2.34-1.09-.53.16,3-1.87-.11C116.09,217.05,116.84,218.14,116.87,220.12Z"/><path id="path2768" class="cls-5" d="M119.78,212.49c1.24-2.45,1-3.5.41-3.67a8.46,8.46,0,0,0-2,3.15c-.38-1.32-1.16-2.47-2-2.39-.36.67,1.09,1.19,1,2.91Z"/><path id="path2787" class="cls-5" d="M123.66,225.48c-.26-4.55.57-4.12-1-5.3-.26.12-.17.8-.17,1.32,1-.52.32,3.15.64,4.29C123.39,226,123.48,225.67,123.66,225.48Z"/><path id="path2794" class="cls-5" d="M119.22,192.07a.73.73,0,0,1,.75-.7.72.72,0,0,1,.74.7h0a.72.72,0,0,1-.74.7.73.73,0,0,1-.75-.7Z"/><path id="path2796" class="cls-5" d="M110.71,202l8.59-9.16-.32-.37-8.64,9.11Z"/><path id="path2798" class="cls-5" d="M110.23,201.26l8.54-8.91v-.74l-8.9,9.28Z"/><path id="path2800" class="cls-5" d="M121.2,191.51l-.53-.53a3,3,0,0,1,1.16-1.68c.73.23,1.44.48,1.21,1.26a3.56,3.56,0,0,0-2.21,1"/><path id="path2802" class="cls-5" d="M124.73,193.2c-1.44.7-2.92-.82-3.32-1.48a4.84,4.84,0,0,1,1.21-.63A1.49,1.49,0,0,0,125,192C125.39,192.39,125.16,192.79,124.73,193.2Z"/><path id="path2812" class="cls-5" d="M119.6,191.1c.57-.51,1.35-.33,1.24-1.56-1,.62-1.88-.17-3-.75-2.54,2.32-7.93,3.66-11.29,7.3-.12.81.44,1.29,1.32,1.6-.51,1.44,1.22,1.9,1.82,2.67,2.88-2.79,7.47-7.46,9-9C118.88,191.15,119.21,190.87,119.6,191.1Z"/><rect id="rect2814" class="cls-14" x="107.85" y="196.5" width="0.47" height="0.43"/><rect id="rect2816" class="cls-14" x="108.29" y="195.58" width="0.47" height="0.46"/><rect id="rect2818" class="cls-14" x="109.73" y="195.29" width="0.44" height="0.41"/><rect id="rect2820" class="cls-14" x="108.84" y="195.22" width="0.44" height="0.43"/><rect id="rect2822" class="cls-14" x="109.76" y="194.25" width="0.42" height="0.49"/><rect id="rect2824" class="cls-14" x="107.92" y="195.16" width="0.39" height="0.46"/><rect id="rect2826" class="cls-14" x="110.62" y="193.7" width="0.47" height="0.38"/><rect id="rect2828" class="cls-14" x="112.14" y="192.86" width="0.31" height="0.49"/><rect id="rect2830" class="cls-14" x="112.55" y="193.36" width="0.37" height="0.41"/><rect id="rect2832" class="cls-15" x="108.34" y="196.13" width="0.47" height="0.43"/><rect id="rect2834" class="cls-15" x="109.26" y="195.19" width="0.47" height="0.43"/><rect id="rect2836" class="cls-15" x="109.28" y="194.72" width="0.47" height="0.43"/><rect id="rect2838" class="cls-15" x="109.28" y="194.72" width="0.47" height="0.43"/><rect id="rect2840" class="cls-15" x="111.04" y="194.25" width="0.47" height="0.43"/><rect id="rect2842" class="cls-16" x="111.69" y="193.31" width="0.31" height="0.49"/><rect id="rect2844" class="cls-16" x="112.16" y="193.28" width="0.31" height="0.49"/><rect id="rect2846" class="cls-16" x="112.55" y="192.76" width="0.31" height="0.49"/><rect id="rect2848" class="cls-16" x="112.48" y="192.78" width="0.44" height="0.49"/><rect id="rect2850" class="cls-10" x="110.67" y="194.67" width="0.42" height="0.49"/><rect id="rect2852" class="cls-10" x="110.67" y="194.2" width="0.42" height="0.49"/><rect id="rect2854" class="cls-10" x="116.19" y="190.64" width="0.42" height="0.9"/><rect id="rect2856" class="cls-10" x="114.73" y="191.45" width="0.42" height="0.49"/><rect id="rect2858" class="cls-16" x="115.22" y="191.47" width="0.44" height="0.49"/><rect id="rect2860" class="cls-16" x="115.69" y="191.03" width="0.44" height="0.49"/><rect id="rect2862" class="cls-14" x="112.5" y="193.25" width="0.44" height="0.49"/><rect id="rect2864" class="cls-14" x="112.03" y="192.76" width="0.44" height="0.49"/><rect id="rect2866" class="cls-17" x="109.73" y="194.74" width="0.42" height="0.38"/><rect id="rect2868" class="cls-15" x="107.43" y="196.1" width="0.47" height="0.43"/><rect id="rect2870" class="cls-18" x="109.76" y="195.74" width="0.42" height="0.38"/><rect id="rect2872" class="cls-18" x="110.28" y="195.19" width="0.42" height="0.38"/><rect id="rect2874" class="cls-18" x="108.84" y="194.33" width="0.42" height="0.38"/><rect id="rect2876" class="cls-15" x="108.81" y="194.69" width="0.47" height="0.43"/><rect id="rect2878" class="cls-18" x="107.01" y="196.13" width="0.42" height="0.38"/><rect id="rect2880" class="cls-19" x="106.68" y="196.13" width="0.42" height="0.38"/><rect id="rect2882" class="cls-14" x="113.39" y="192.39" width="0.44" height="0.49"/><rect id="rect2884" class="cls-15" x="115.69" y="191.5" width="0.47" height="0.43"/><rect id="rect2886" class="cls-15" x="115.22" y="191.06" width="0.47" height="0.43"/><rect id="rect2888" class="cls-15" x="114.28" y="191.53" width="0.47" height="0.43"/><rect id="rect2890" class="cls-15" x="113.86" y="191.5" width="0.47" height="0.43"/><rect id="rect2892" class="cls-15" x="113.86" y="191.97" width="0.47" height="0.43"/><rect id="rect2894" class="cls-15" x="113.37" y="192.89" width="0.47" height="0.43"/><rect id="rect2896" class="cls-15" x="114.75" y="191.92" width="0.47" height="0.43"/><rect id="rect2898" class="cls-15" x="115.67" y="190.56" width="0.47" height="0.43"/><rect id="rect2900" class="cls-15" x="116.61" y="190.14" width="0.47" height="0.43"/><rect id="rect2902" class="cls-15" x="117.97" y="190.11" width="0.47" height="0.43"/><rect id="rect2904" class="cls-14" x="117.55" y="190.09" width="0.44" height="0.49"/><rect id="rect2906" class="cls-14" x="117.13" y="190.09" width="0.44" height="0.49"/><rect id="rect2908" class="cls-14" x="116.61" y="190.53" width="0.44" height="0.49"/><rect id="rect2910" class="cls-18" x="116.66" y="191.06" width="0.42" height="0.38"/><rect id="rect2912" class="cls-15" x="116.66" y="190.11" width="0.47" height="0.43"/><rect id="rect2914" class="cls-15" x="116.24" y="190.11" width="0.47" height="0.43"/><path id="path2970" class="cls-5" d="M120.9,189.32c-1.42.77-3.78-1.56-4-2-.14-.63,2.41-.14,2.61.39a.54.54,0,0,0,.65.79C120.81,187.72,120.86,188.51,120.9,189.32Z"/><path id="path2972" class="cls-5" d="M109.31,193.6c2.68-2.13,6-3,7.75-4.65.25-.43.24-.86-.57-1.29,0-.38.4-.88-.84-1-1,.63-2.53,1.09-3.31,1.91-.16.37-.13.63-.46,1.38C111.89,191.4,110.51,192,109.31,193.6Z"/><path id="path2974" class="cls-5" d="M112.48,188a18.51,18.51,0,0,1,3.57-2c-.28-.55-.53-.93-3.09-1.53C112.25,185.33,112.61,186.84,112.48,188Z"/><path id="path2980" class="cls-5" d="M108.48,194.11l2.82-3.34c.7-2.34.42-3.67,1-5.3.44-1.29,1-2.47,1.42-3.49.18-.41,0-.77.21-1.18-5.78,2.7-5,7-7.58,8.2.25-2.11-1.08-3.27-.29-6.24.79-1.58,1.69-3.26,1.62-4.1a17.38,17.38,0,0,0-6.34,5.15A8.47,8.47,0,0,1,99,188c-.49-2.59-.07-2.74-.24-4.52-.66.78-1.12,2.56-.9,5.61,5.18-2.34.63-4.18,8.3-8.53.53,0,.4.23.19.71-1.75,1.36-.73,8-1.72,10.78,3.85-2.55,4-6.8,7.68-9.49a24,24,0,0,0-1.34,7.77l-2.67,3.1Z"/><path id="path2982" class="cls-5" d="M106,196a92.74,92.74,0,0,0-7.68-6.67c4.72-2.19,1.06-4.46,7.72-8.35-2,2.65-.5,7.89-1.9,11.5.07.6.25,0,.57,0,4-2.58,5-7.41,6.82-8.87-.42,2-1.11,4.78-.91,6.39-1.94,2.31-2.79,3.11-2.69,3.71C108.07,194.85,107.63,194.5,106,196Z"/><path id="path2988" class="cls-5" d="M106.72,188.15c1.44-1,1.57-3.33,3.39-5-1-.76-1.91-.69-2.87-1C105.4,183.8,106.4,186.06,106.72,188.15Z"/><path id="path2990" class="cls-5" d="M99.42,186.91c.83-.3,1.28-2.83,1.62-3.54s1.45-1.06,1.87-2.19l-1.39,0C100,181.93,98.84,183.8,99.42,186.91Z"/><path id="path2992" class="cls-5" d="M99.26,183.05c.76-1.58,2.55-2.63,2.77-5.92a.5.5,0,0,0-.86.07c-2.93,4-5.35,3-6.84,7.19-.76,2.49-2.75,5.29-3.53,8.53l1.88-1.38c-.39-3,1.79-3.9,2.42-6.82.18-2.81,4.05-4,5.71-5.38C100.39,180.11,99,181.78,99.26,183.05Z"/><path id="path2994" class="cls-5" d="M97.1,189a45.82,45.82,0,0,0-4,2.26c-.35-2.68,2-3.35,2.26-6,.22-2,1.79-3.37,3.84-4.44,0,1.28-1,2.35-1.74,4.57C97.08,186.56,97.6,187.76,97.1,189Z"/><rect id="rect3000" class="cls-16" x="106.03" y="192.79" width="0.49" height="0.49"/><rect id="rect3002" class="cls-16" x="106.93" y="191.86" width="0.49" height="0.49"/><rect id="rect3004" class="cls-16" x="106.05" y="191.85" width="0.49" height="0.49"/><rect id="rect3006" class="cls-16" x="107.42" y="190.96" width="0.49" height="0.49"/><rect id="rect3008" class="cls-16" x="108.18" y="190.99" width="0.49" height="0.49"/><rect id="rect3010" class="cls-16" x="103.7" y="192.82" width="0.49" height="0.49"/><rect id="rect3012" class="cls-16" x="101.87" y="190.96" width="0.49" height="0.49"/><rect id="rect3014" class="cls-16" x="94.61" y="189.33" width="0.49" height="0.49"/><rect id="rect3016" class="cls-16" x="95.48" y="188.24" width="0.49" height="0.49"/><rect id="rect3018" class="cls-16" x="101.38" y="189.18" width="0.49" height="0.87"/><rect id="rect3020" class="cls-16" x="102.34" y="185.9" width="0.49" height="0.49"/><rect id="rect3024" class="cls-16" x="101.85" y="185.36" width="0.49" height="0.49"/><rect id="rect3026" class="cls-16" x="102.33" y="184.75" width="0.49" height="0.49"/><rect id="rect3028" class="cls-16" x="96.85" y="186.54" width="0.49" height="0.49"/><rect id="rect3030" class="cls-16" x="96.57" y="187.99" width="0.49" height="0.49"/><rect id="rect3032" class="cls-16" x="94.85" y="188.59" width="0.49" height="0.49"/><rect id="rect3034" class="cls-16" x="104.17" y="193.28" width="0.49" height="0.49"/><rect id="rect3036" class="cls-20" x="102.83" y="191.86" width="0.9" height="0.49"/><rect id="rect3038" class="cls-20" x="103.86" y="191.13" width="0.49" height="0.49"/><rect id="rect3040" class="cls-20" x="103.87" y="189.86" width="0.49" height="0.49"/><rect id="rect3042" class="cls-17" x="103.86" y="190.32" width="0.49" height="0.9"/><rect id="rect3090" class="cls-16" x="102.37" y="186.91" width="0.49" height="0.49"/><rect id="rect3092" class="cls-16" x="102.52" y="188.47" width="0.49" height="0.49"/><rect id="rect3094" class="cls-16" x="101.23" y="188.1" width="0.49" height="0.49"/><rect id="rect3096" class="cls-16" x="100.19" y="189.04" width="0.49" height="0.49"/><rect id="rect3098" class="cls-16" x="108.12" y="189.61" width="0.49" height="0.49"/><rect id="rect3100" class="cls-20" x="101.2" y="187.58" width="0.49" height="0.49"/><rect id="rect3102" class="cls-20" x="105.53" y="192.33" width="0.49" height="0.49"/><rect id="rect3104" class="cls-20" x="106.6" y="190.98" width="0.49" height="0.49"/><rect id="rect3106" class="cls-20" x="107.4" y="190.48" width="0.49" height="0.49"/><rect id="rect3108" class="cls-20" x="95.59" y="186.74" width="0.49" height="0.49"/><path id="path2521" class="cls-4" d="M111.55,262.17c1-.59,1.81-.3,1.87-.66.93,0,1.92.1,2.39-.73,1.18,0,2.64.4,2.47-2a2.2,2.2,0,0,1-2.13.5c.68-.19,1.49-.82,1.9-.78s1.78,1.7,2.29.37c-1.2-.15-1-1-2.12-1.12-1.73-.07-2,1.91-2.56.76.21-.24.43-.16.65,0,0-.91-.6-1.08-1.64-.71.26-.66.71-.69,1.33-.74.79-.07.86.46,2.77.51a1,1,0,0,1-.27-.81A2.71,2.71,0,0,0,121,256l2.73,1.26c.41.32.94.56.71,1.36-.2.62-.29,1.18.38,1.37.29,1.29,1.85.66,2.36.2-.49-.19-1.09.13-1.48-.58.37-.15.48-.5.33-1,.87-.8.37,1.83,2,1.11,1.41-.16,1.1-1.13.93-2-.22,0-.2.66-.76.93,0-.4-.17-.69-.6-.76.59-.29,1.14-.64.76-2.24-.28-.19-.49.8-.76.82-.21-.18-.36-.49-.77-.06-.08-.21-.06-.44-.55-.55a.91.91,0,0,0,.55-1.09c.56-.57.85-.23,1.26-.27a1.46,1.46,0,0,0-2.35-.33l-1.2,1.64a23.49,23.49,0,0,1-2.84-1.42,2.4,2.4,0,0,0-.22-1.26c.22-.81,1-1.37,1.53-2.06.24-.4.79-.26,1.32-.17.41.54.85.47,1.3,0,1.2,0,.83-1.35.54-1.86-.3.23-.32.93-.77,1-.11-.29-.47-.42-1-.42l.23-.32c.62-.13,1.36-.12,1.37-1,.54-1-.42-1.3-1.45-1.4.18.32.72.41.4,1-.22-.07-.45,0-.67.37a.77.77,0,0,0-.2-.75.84.84,0,0,0-1.34-.31c.4.12.52.32.56.55-.39.11-.29.37-.35.58a.79.79,0,0,0-.48.52c-.31-.17-.45-1-1.05-.79-.15-.31,0-.77,0-1.15-.44.18-1.19,1-.66,1.66a1.08,1.08,0,0,0,.53,1,1.11,1.11,0,0,1,.64.52c-.51.43-1,.91-1.45,1.37a3.1,3.1,0,0,0-2.29-1.24,27.36,27.36,0,0,0-2.89.25c-1.47,0-1.57-1.69-.64-2.48.74-.93,3.26-.46,3.61-2.28.57,0,1.2.49,2.32.16.6-.18.74-.87.09-2.11a3,3,0,0,0-.84,1.3,5.43,5.43,0,0,0-2-.49c.34-1,.85-1.75,2.22-1.35a6.68,6.68,0,0,1,1.16.07c.31.32.88.5,1.05.17.47-.13.61-.62.45-1.4-.18.18-.17.7-.54.69,0-.2-.29-.18-.54-.13-.09-.49-.32-.36-.12-.7s.26-.6,0-1.13c.13-.2.56-.67.1-1.15a1.5,1.5,0,0,1-.9.66c-1,0-.56,1.14-.84,1.35-.1-.3,0-.71-.4-.85-.06-.43.46-.75.41-1.17-.55.09-1.13-.13-1.23.95-.32,0-.38.47-.42.85-.23-.12-.33-.84-.74-.87-.31-.37.06-.57.17-.84-.66-.19-.89.3-1,1a2.09,2.09,0,0,0,.37,1.18c-.46,0,0,.8-.84,1.05a1.37,1.37,0,0,0-.57-1.45c-.36.23,0,2-.92,2-.35-.16,0-1.18-.51-1.62-.58.48-.6,1.3-.78,2a2.07,2.07,0,0,0-.87-.24,2.85,2.85,0,0,0,0,1.33c-1.51,1.45-.44,2.93-.15,3.88a5.9,5.9,0,0,1-1.92-.69,2.09,2.09,0,0,0,.75-2.25,2.76,2.76,0,0,0-1.76,1.53c-.15-.45-.2-1-.62-1.2-.28.07-.47.34-.65.75a1.45,1.45,0,0,0-1.87,0c-.32.39-1.33-.69-1-1.07.4-.69.84.45,1.78-.42,1.4.09,1.11-.84.89-1.42-.32,0-.44.78-.84.54-.19-.21.31-.75,0-1.06.9-1.08.2-1.41-.28-1.84,0,.43.12,1.1-.36,1.15-.28-.47-.56-1-1.12-.42-.3.31,0,1.58-.63,1.59-.39-.18.09-1.39-.42-1.41-.11-.46-.12-1.09-.46-1.15a1.45,1.45,0,0,0-.53,1.07c-.38.27-.6.65-.27,1.42l-.5,0c-.22-.36-.47-.56-.93,0-.14-.09-.15-.44-.14-.81-.35.22-1,1.53-.4,1.9.06.49.67.38,1.13.5a3.54,3.54,0,0,0,1.59,1c.19.76-2.06-.54-1.84,1.82a4,4,0,0,1,2.37-.38,2.38,2.38,0,0,0,1.73,1c.28,1.11-3.67-.9-4.36,2.44a4.47,4.47,0,0,1-2.15,3.94,1.41,1.41,0,0,1-.46.85c.58.18,1.1-.8,1.65-.66a4.81,4.81,0,0,0-1,1.54c.8.29,1.62-1.18,2.49-.84-.21,1.18-2.74.6-3,2.7.57,0,1.27-.63,1.53-.52a4.91,4.91,0,0,1-3,1.1,1.85,1.85,0,0,0,1.42.54c1.17,0,.83-.44,1.49-.51a4.51,4.51,0,0,0,.37,2.29c.82-3.23,2.45-3.44,2.45-5.77-.07-1.69-.73-3.79-.18-4.64a1.85,1.85,0,0,1,3.26,0c.25.67,1,1.14,2.25,1.05,1.48.1,2.56-1,4.41-.21a3.91,3.91,0,0,0-2.33.24l.36.53c-.93-.16-2.33-.25-2.62.13.65.56,2,.76,1.88,1.29-1-.06-1.77-1.16-3.09-1.12-1.13,0-1.3-.13-2.08,1.45.9-.08,1.81-.19,2.51.84-1-.07-2.11-.58-2.9-.43s-1.13.8-.82,2a2.63,2.63,0,0,1,3.43.5c-1.85.15-4.66-.58-4.44,1.8,1.35-.33,3-.83,3.93-.18-1.83.56-4.75-.26-4.82,2.49,2.08-1.29,6.27-.15,6.82-1.56.56-1.12,1.07-2.59,1.73-3.85s1.49-.68,2.26-.89c.54-1.38,2.88-1.95,3.28-1.36.64.62-1.25,1.66-1.48,1.7-.43-.06-.63-.56-.78-1.15-.47.29-.2,1.46-1.24,1.51-.25.85-1,.52-1.42.93.43-.28.14,1,.73,1.05a4.32,4.32,0,0,0,0,2.2,4.22,4.22,0,0,0-1.27,1.22c.5-.3.89-.16,1.26-.25A2.56,2.56,0,0,0,111.55,262.17Z"/><path id="path2494" class="cls-6" d="M116,260.56a1,1,0,0,1,.07-1.18,2.12,2.12,0,0,0,2.08-.45c.13,1.41-.61,1.7-1.51,1.7a.72.72,0,0,0-.27-.85l-.07.85Zm.11-1.59c.16.29,1.15-.61,1.83-.66,1,0,1.68,1.49,2.15.64-.87-.3-1-1-2-1.07C116.6,258,117,258.57,116.11,259Zm0-.83c-.15-.82-.93-.2-1.42-.23C115,258.37,115.83,258.05,116.09,258.14Zm5-2.39a2.11,2.11,0,0,1,.54-1.16c1,.64,2.44,1.1,2.91,1.92,0-.42.14-.4.45-.45,0-.42.1-.78.43-.95-.14-.56.17-.75.55-.8,0,.29,0,.53.61.52.1.5-.12.75-.57.76-.19.26-.35.67-.12.93.28-.37.7-.3.79.32.18-.41.55-.56.82-.12-.27.4,0,.45,0,.67-.5.46-.53-.05-.8-.15.16.38-.23.6.35,1,.36,0,.78-.25.83.43-.35.23-.27.51-.12.81-1,.43-.76-1.23-1.68-1.35-.2.11-.68-.2-.42.59.35.4,0,.64-.19.92-.27-.23-.54,0-.81.05-.3-.3-.12-.6,0-.9.08-1-.19-1.65-1-1.92Zm7.13.12c.15.53.18,1.46-.45,1.47-.39-.23-.25-.46-.17-.69C128,256.63,128,256,128.22,255.87Zm-.23,3.61c-.24-.32-.23-.58.09-.75.35.15.52-.29.76-.47C128.94,258.92,128.84,259.44,128,259.48Zm-1.3.84c-.81.47-1.44.45-1.77-.44a.39.39,0,0,1,.58-.14C125.78,260.3,126.28,260.15,126.69,260.32Zm-.14-5.63c-.21.06-.39-.09-.52-.43.72-.81,1.13-.35,1.57-.06C127.21,254.31,126.74,254.38,126.55,254.69Zm-1-3.92c-.19-.06-.23-.52,0-.68.28.12.4-.41.57-.78C126.44,250,126.4,250.59,125.51,250.77Zm.24-2.66c-.19,0-.46,0-.55-.31.26-.11.11-.4-.1-.71C125.76,247.22,126.18,247.47,125.75,248.11Zm-1.79-.48c-.15.08-.34.21-.56.08a.58.58,0,0,0-.29-.56C123.47,247,123.75,247.16,124,247.63Zm-2.72.51c0,.3-.19.35-.42.32-.29-.61.07-.89.34-1.22C121.3,247.54,120.93,248,121.24,248.14Zm1.08-4.81c-.07-.09-.26-.25-.12-.42a1,1,0,0,0,.42-.38A.61.61,0,0,1,122.32,243.33Zm-.84-2.7c-.16,0-.37-.06-.36-.37.19-.1.41-.13.53-.4C122,240,121.73,240.33,121.48,240.63Zm-2.06,0c-.15.06-.38.18-.56-.08,0-.77.48-.84.88-.79C119.77,240.12,119.23,240.38,119.42,240.67Zm-2-.13a.43.43,0,0,1-.52.12c.06-.61.25-.88.56-.83C117.21,240.23,117.31,240.38,117.4,240.54Zm-10.22,4.75a.37.37,0,0,1,.11-.51c.27.12.43-.39.64-.56C108.17,244.8,108.12,245.25,107.18,245.29Zm-.12-2a.31.31,0,0,1-.36-.3c.48-.38.35-.71.38-1.05C107.53,242.37,107.7,242.81,107.06,243.32Zm-2.84-.76a.5.5,0,0,1-.7-.06c.11-.31.08-.71.38-.9C104.14,241.68,104.15,242.18,104.22,242.56Zm-2.68,1.54c0,.34-.21.42-.39.56-.14-.29-.26-.59.24-1.23C101.42,243.69,101.36,244.07,101.54,244.1Zm4.15,3c-.83-.74-1-1.36-.24-1.84.48-.24,1,.76,1.54,0a.61.61,0,0,1,.08-.55c-.12-.38-.87-.08-.87-.29s1,0,.75-1c-.22,0-.35-.27-.49-.51-.93-1.41-1.42.44-.92.92-.22.09-.45.09-.64.45-.07-.13-.4-.15-.79-.15a1,1,0,0,1,.18-.64c.17-.25.42-.51,0-.76a1.34,1.34,0,0,1-.78,0c-.29.22-.48.46-.19.86a.44.44,0,0,1,.08.51.82.82,0,0,0-.79.17c-.2-.59-.53-.45-.87-.26a1.22,1.22,0,0,1-.41.67c.33.78.71.46,1.08.43.57,1.09,1.56.8,1.84,1.29.26.89-2.22-.08-1.91,1.49.82-.08,1.83-.8,2.45-.19.59,1.09,1.84.7,1.94,1.23,0,.74-1.66.37-2.58.5-1.8.21-2.34,1.57-2.33,3.45a4.38,4.38,0,0,1-1.73,2.46c.74-.06,1.67-.85,2-.67,0,.7-1.36.56-1.85,2a2.89,2.89,0,0,1,2.46-.71c-.11,1.64-3,1.21-3.07,2.62.69-.26,1.31-.77,2.1-.64a6.4,6.4,0,0,1-3.25,1.63c1.26.81,2-.57,2.79-.65a2.66,2.66,0,0,0-.15,2.16c.76-2.67,2.88-3.48,2.06-6.89-.21-.82-.79-3,.83-3.82,2.84-1,2.53,1.07,3.68,1.61s2,.14,3.39-.22c1.15-.15,2.36-.47,3.13.67,0,.24,0,.47-.5.46-.54-.69-1.49-.58-2.46-.42.42.49,1.65.62,2,1.08.12.25,0,.55-.43.45a4.33,4.33,0,0,0-3.67-.93,3.4,3.4,0,0,1,2,1.19c-.11.18-.06.43-.57.45-1.26-.44-3.33-2.49-4.63-.34,1.72.12,2.2.77,2.48,1.5-1.4.14-4.21-2.07-3.94.89,1.81-.75,2.84.18,3.86,1.14-1.72.31-4.73-.9-4.87,1.28,1.47-.18,2.89-1.31,4.46.22-1.79.59-4.71-.39-5.26,1.9a16.1,16.1,0,0,1,4.84-.56c2,0,2-2.92,3-4.38a2.48,2.48,0,0,1,2.47-1.13c1-1.52,3-2.06,3.83-1.16.24,1.35-1,1.5-1.81,2a1.11,1.11,0,0,1-.83-.94c-.22.6-.45,1.18-1,1.25a1.25,1.25,0,0,1-1.12.74c0,.4.1.77.52.92a2.85,2.85,0,0,0,0,2.19,3.62,3.62,0,0,0-1.2,1,5.42,5.42,0,0,0,1.5-.4c0,.24-.81.66-.86,1,.86-.16,1.4-.34,1.31-.56,1.12.14,2.08.1,2.45-.62-.07-.55-.17-1.14.19-1.31-.29-.83-1.2-.91-1.52-1.52.87-1.88,2.59-.67,4-.52a1,1,0,0,1-.1-.94,2.35,2.35,0,0,0,1.65,0,1.69,1.69,0,0,0,.89-.69,2.4,2.4,0,0,1,.46-1.2,1.52,1.52,0,0,0-.26-1.49,13.66,13.66,0,0,1,1.91-2.37,1.41,1.41,0,0,1,1.44.13c.28.23.55.66.91.1-.1-.25-.19-.49,0-.7a1.27,1.27,0,0,0-1.24-.34c.05-1.05,2-.68,1.61-1.58-.26,0-.47-.14-.7-.26s-.48.24-.57.52-.41.28-.7.33c0-.28.61-.34.36-1.07-.36.19-.57.18-.71.08-.39.08-.27.37-.17.66-.72,0-.26.86-.79.76-.09-.23-.14-.37-.42-.45a.51.51,0,0,0-.6-.63c0,.25-.15.47-.44.45a.81.81,0,0,0,.49.77c.29.15.61.26.76.73a17.43,17.43,0,0,0-1.78,1.76c-.85-1.44-2.4-1.68-4.38-1.2-1.28.21-2.1-.17-2.26-1.37-.06-3.12,4-1.46,4.17-3.86.78,0,1.47.49,2.25.32,1-.16.72-1,.51-1.7a3.52,3.52,0,0,0-.83,1.16,3.67,3.67,0,0,0-2.28-.25c.08-1,.56-2.42,2.55-2,.38,0,.82-.07,1.14.17s.7.56.92.19a.45.45,0,0,1-.1-.47c0-.25-.32-.17-.57-.15-.1-.3-.15-.65-.53-.75.14-.39.77-.38.46-1.22a.48.48,0,0,1-.49-.32c-.93-.2-.41.78-.63,1.3a.71.71,0,0,1-1,.08c.38-.28.57-.62.08-.94-.19,0-.38.12-.57-.12-.42,0-.25.93-.65.92-.34-.33.1-.71-.66-1-.16.18-.34.27-.54.16-.22.45.45.74.43,1.13a1.33,1.33,0,0,0-.46.75c-.39,0-.54.47-.72.89-.32-.46.18-1.65-.49-1.83-.21.39,0,1-.15,1.45a.87.87,0,0,1-1,.6c-.42-.14-.1-1.14-.4-1.64-.53.37-.1,1.85-.6,2.13a.92.92,0,0,0-.91-.53c0,.4-.14.83.26,1.09a1.79,1.79,0,0,0-1,1.7c.15,1.64.94,2.39,1.53,3.42-1.16-1.35-2.61-1.09-3.22-1.94.29-.57,1.06-.9.63-1.8-.37.18-.79,0-1,1.42-.33,0-.75.22-.82-.24s.3-.82-.26-1c-.49.19-.38.64-.49,1-.38-.28-.78-.9-1.68-.45A.93.93,0,0,1,105.69,247.13Zm7.76,12c.46.5,1.28.38,1.76.87a1.3,1.3,0,0,1-.82.88c-.2-.31-.64-.56-.49-1s0,.07.23.29.5.12.46-.21C114.45,259.46,113.55,259.88,113.45,259.09Z"/><g id="g3466"><path id="path5070" class="cls-4" d="M91.67,226.79c2.71-1.54,4.79,4.31,8,.76,2.49,1.16,4.25-1.69,2.5-3,.16.43-.37,1.08-.69,1.13s-.14-.32-.16-.53a3.08,3.08,0,0,1-2.13-.28c.4-.55.89-.26,1.36-.16.18-.75,0-1.48-1.38-1.4-.87-1-.08-1.83,1.3-1.54a1.48,1.48,0,0,0-1.28-1.28c1-.94,2.49-.88,2.81-2.53a1.63,1.63,0,0,0,1.51.87c0,1.38.86,1.58,1.82,1.58-.32.78.21,1.2.79,1.59-2.59,1.69-1.78,6,1.9,6.66,3.16.41,5.67-1.07,5.83-4.43-.29-3-1.37-6.12.71-8.68-.78-1.8-2.55-1.67-3.42.48-.25-1.49-.9-5.44,2.14-3.87-.72-1.17-1-3-2.81-3.16-2.07.47-1.82,3.3-2.36,5-.31-.25-.76-9.14,2.63-7.64-.85-1-1-2.71-3.26-2.31-2.94,2.17-2,5.85-2.55,8.92-1.08-2-1.06-5.82.72-7-.19-.65-1.26-1.92-2.81-.41-.88.91-1,3.49-1.42,3.59a12.89,12.89,0,0,1,1-4l-.7.3c.39-.87.19-2.54,1.55-2.09.78.75,1.56,1.46,2.23.4a1.1,1.1,0,0,0,.89-1.83c-.19.6-.49.58-.75.75-.42.54-.21-.53-.81-.54.37-.16.42-.58.41-1,.92-.41.46-1.65-.32-1.85.24.42,0,.76-.17,1.1-.46-.15-.91-.45-1.36.14a.76.76,0,0,0-.32-.81,4.83,4.83,0,0,1-.11-1.12,1.62,1.62,0,0,0-.81,1c-1.38,0-.55,1.11-.64,1.76-.58.39-.51-1.42-1.78-.72a1,1,0,0,1-.23-1c-.73.16-.94.93-.67,2.25.22.6.72.78,1.47.54.34.14.27.37.32.58a4.78,4.78,0,0,1-.72,2l-.66-.43c-.41,1.18.15,3.2-.64,3.55a8.38,8.38,0,0,1-.69-4,1.25,1.25,0,0,0,.23-2.31c.24-1.29.38-4.29,2.11-4.44.75,0,.57.49.23,1.12a1.68,1.68,0,0,0,1.93-2.74c-3.36-1.59-4.78,1.92-5.16,5.11-.09-4.92,2.62-4.91-.7-8.68-3.34,3.84-.39,4-.43,8.76-.31-2.6-1.6-6.67-4.93-5.27-2.09,1.8.17,3.8,1.76,2.79-.47-.56,0-1.14.34-1,1.69.79,1.56,2.85,2.05,4.48a1.25,1.25,0,0,0,.58,2.25c-.15,1.26.07,2.73-.55,3.72-.44-1.21-.5-3.18-.95-4.56a9.89,9.89,0,0,1-.64,1.73,3.39,3.39,0,0,1-.75-2.25c.24-.31,1.13.29,1.56-.52.19-.83.44-1.65-.49-2.48l-.23.63c-1.49-.44-1.21,1.49-1.79,1s.89-1.45-.86-1.81c-.19-.78-.6-1.13-1-.81.15.37.59.64.46,1a1.81,1.81,0,0,0-.49.69,1,1,0,0,0-1.3-.14.67.67,0,0,1-.17-1,1,1,0,0,0-.14,1.9c-.21.34,0,.61.23.87a1,1,0,0,0-.49.92c-.53.16-.54-.83-1.07-1-.06.75-.34,1.57.78,1.88.67.52,1.3.67,1.81-.18.5-.32,1-.43,1.39-.06l.92,2.11a5.25,5.25,0,0,0-.06,1.53c-.35-1.12-2.34-3.84-3.75-1.36,2.39,2.39,1.63,5,.87,7.62,0-3.21,0-6.45-2.16-8.91-1.41-1.22-2.73.12-3.61,1.7,3.28-.36,2.77,5.85,2.6,7.84-1-7.39-4.09-5-5.14-1.64,2.83-2,2.32,2.38,2.54,4.21-.84-2.08-2.39-3.14-3.81-1,2.06,2.17,1.16,5.88,1.16,9.11a4.14,4.14,0,0,0,4.38,3.9c5.16-.11,5.86-4.43,3-6.69a1.44,1.44,0,0,0,.93-1.73c1,.18,1.54-.18,1.61-1.45a1.46,1.46,0,0,0,1.59-1c0,3.19,2.57,1,2.45,2.48-.56-.05-.86-.31-1.41.06a2.9,2.9,0,0,1,1,2.42c-.49-.28-.71-1-1.7-.51a4,4,0,0,1,.72,2.53C91.88,225.17,91.85,226,91.67,226.79Z"/><path id="path3404" class="cls-21" d="M102.31,225.06c-.17.35-.67.94-1.1.75-.09-.08-.1-.17-.08-.41a3.94,3.94,0,0,1-2.31-.39c-.52.89.46,1.58.77,2.36C101.88,228.34,103.25,226.3,102.31,225.06Z"/><path id="path4375" class="cls-21" d="M98.49,224.49c0-1.23,2-1.19,1.84-.12a1.24,1.24,0,0,0-1.07.15A1.67,1.67,0,0,1,98.49,224.49Z"/><path id="path4377" class="cls-5" d="M97.2,226.62c.4,0,.37-.24.38-.52a1,1,0,0,0-.65-.32C96.8,226.31,97,226.48,97.2,226.62Zm.19.7c.24.26.83-.41.87-.61.14-.68-.86-.93-1.54-1.35C96.41,226.55,97.09,226.9,97.39,227.32Zm1.91.14c-1.15,1.28-2.3,1.09-3.66.29-1.14-.59-1.78-1.95-3.67-1.38A1.6,1.6,0,0,1,93.55,225a4.29,4.29,0,0,0-.62-2.6c.61-.14.95.69,1.54.73a5.36,5.36,0,0,0-.64-2.64c.06-.33.69.08,1.07-.09.23-2-2.51.1-2.4-2.55,0-2.32,0-5.81-.07-8.36a12,12,0,0,0-.17-3.18c.34,0,.59.62,1,.58s.63-1.49,1-2.07c.37,1.22.6,3.59,1.09,3.66.74-.63.62-2.9.85-4.42h1.32c.32,1.5-.13,4,1,4.57,1.13-.8.58-2.45.78-3.68.57.27.71.94,1,1.45.47.09,1-.74,1.6-.72a7.25,7.25,0,0,0-.82,4c.68.07.41,5.27.62,7.91,0,1.78-2.86,1.94-3.09,3.1.68.07,1.2.23,1.29.64-1.91.19-1.5,1.17-1.26,2.09-.67.3-.4,1.16-.34,1.89A5.65,5.65,0,0,0,99.3,227.46Z"/><path id="path4387" class="cls-2" d="M95.18,202.86c0-.54.07-1,1.59-1,1.31,0,1.61.47,1.61,1s-.26,1-1.61,1S95.18,203.41,95.18,202.86Z"/><path id="path4390" class="cls-5" d="M97.82,201.73l-.52-.07a10.66,10.66,0,0,1,1.31-4.78,2.52,2.52,0,0,1,3.89-.8c.82.92-.39,2.94-1.72,2.14.31-.44.6-1-.59-1.24C98.4,197,98.17,199.87,97.82,201.73Z"/><path id="path4392" class="cls-22" d="M95.44,201.85l.52-.17c-.24-1.91-.84-6.29-3.77-6.16-2.65.32-1.84,3.49.4,2.85-.31-.61-.18-1.3.47-1.25C95.05,197.2,95.11,200.5,95.44,201.85Z"/><path id="path4394" class="cls-5" d="M96.92,201.57l-.56,0c.24-5.51-2.74-5.45.11-9C99.4,196,96.61,195.73,96.92,201.57Z"/><path id="path4396" class="cls-23" d="M100.45,206.18a2.22,2.22,0,0,0-.54-1,6.11,6.11,0,0,0,1-2.84c-.72-.29-2,.56-2-1.15,0-.48-.08-1,.31-1.18,0,.48.15.57.3.83.53-.32.89-.22,1,.1s.34.75,1.25.63a.83.83,0,0,0-.1-.69c-.15-.28-.3-.94.3-1.15a1.73,1.73,0,0,1,.89.19c.55.75,0,1.12-.16,1.62.4.29.45-1.84,1.86-1,.32-.16.54-.25.55-.71.44.18.45,1-.32,1.15,0,1.39-.85.92-1.43,1.09.26.66,1.4-.52,1.88.94a1.54,1.54,0,0,0,.88-.47.85.85,0,0,1-.76,1c-.38.76-1,.56-1.56.14a1.46,1.46,0,0,0-1.46-.64c-.73.52-.64,1.59-.92,2.43A2.57,2.57,0,0,1,100.45,206.18Z"/><path id="path2443" class="cls-23" d="M93.23,206.57a1.27,1.27,0,0,0,.41-1.19,4.45,4.45,0,0,1-1-2.89c.73-.3,1.83.46,1.78-1.25,0-.48,0-.86-.41-1.07,0,.48,0,.36-.18.62a.64.64,0,0,0-1,.3c-.16.32-.21.67-1.12.55a.6.6,0,0,1,0-.61c.15-.28.3-.95-.3-1.16-.31,0-.48,0-.75.15-.54.75-.25,1.21-.16,1.81-.4.29-.31-2.2-1.71-1.34-.32-.16-.44-.22-.45-.69-.44.19-.4,1,.24,1.18.12,1.56,1.07.81,1.44,1.25-.19.49-1.42-.6-1.69.94a2.12,2.12,0,0,1-1-.64c-.22.4.22,1.07.66,1.13.66.65,1.23.44,1.48,0a1.54,1.54,0,0,1,1.53-.48c.73.51.89,1.68,1.16,2.51C92.65,206.29,92.83,206.52,93.23,206.57Z"/><path id="path2445" class="cls-2" d="M84.91,225.37a.92.92,0,0,0,.92-.92s0-.1,0-.15a.92.92,0,0,0-.06-1.84H85.6c.55-2.05,3.47-6.46,6.43-6.73l0-1.23c-3,.37-6.72,5.18-7.48,7.63a.83.83,0,0,0-.32-.06.92.92,0,0,0-.92.92.94.94,0,0,0,.81.92,1,1,0,0,0-.17.53A.93.93,0,0,0,84.91,225.37Z"/><path id="path2460" class="cls-2" d="M84.34,221.87c1.9-4.15,4.63-7,7.72-7.7.22-4,0-8.44-2.33-9-.58-.11-.85.4-1.23.7,3.25,2.78.76,8.86.3,9l0,.06c-.14-3.63.16-7.46-2.13-10.13-1.24-1.09-2,.18-2.77,1.08,4.11,1,2.17,11.2,1.92,12,0-3.14-1.06-12.2-4.42-6.2,3.22-.61,2.1,8.63,1.84,8.67.3-2.21-.94-7.43-3.38-4.57,2.09,2.79,1.12,5.87,1,8.87.19,3.15,2.5,3.77,4.57,3.93,4.3-.4,5.06-4.47,2.2-6.51a1.64,1.64,0,0,0,1-1.8c1.19,0,1.79-.48,1.74-1.67a1.37,1.37,0,0,0,1.67-1V216c-2.9.43-5.23,4.23-6,6.31a1.14,1.14,0,0,1,0,2.23,1.12,1.12,0,0,1-2.23,0,1.22,1.22,0,0,1,.07-.38,1.14,1.14,0,0,1,.5-2.2Z"/><path id="path3462" class="cls-2" d="M109.42,225.2a.9.9,0,0,1-.94-.89.38.38,0,0,1,0-.15.94.94,0,0,1-.9-.9.92.92,0,0,1,.9-.94.49.49,0,0,1,.17,0c-.62-2-3.65-6.37-6.62-6.57l-.05-1.22c3,.28,6.84,5,7.67,7.42a.87.87,0,0,1,.32-.06.92.92,0,0,1,.16,1.83.89.89,0,0,1,.18.53A.91.91,0,0,1,109.42,225.2Z"/><path id="path3464" class="cls-2" d="M110,221.74c-2-4.11-4.91-6.92-8-7.54-.33-4-.35-8.45,2.19-9.07.58-.12.86.38,1.25.67-3.19,2.87-.52,8.88-.06,9l0,.06c0-3.63-.3-8.41,1.88-10.18,1.21-1.12,2,.13,2.81,1-4.1,1.14-1.88,11.25-1.62,12-.24-2.4.08-6.91,1.34-8,.65-.56,1.83-.54,2.75,1.79-3.24-.52-1.42,5.78-1.43,8.63.12-1,0-3.11.54-4.36s1.52-1.64,2.73-.3c-2,2.84-1,5.89-.78,8.89-.11,3.16-2.5,4.07-4.57,4.28-4.32-.29-5.24-5.16-2.29-6.68-1-.39-1.26-1.11-1-1.77-1.19.08-1.81-.44-1.79-1.63a1.51,1.51,0,0,1-1.79-1V216c2.92.36,5.4,4.09,6.25,6.15a1.14,1.14,0,0,0-.88,1.13,1.16,1.16,0,0,0,1,1.1,1.12,1.12,0,0,0,2.24-.1,1.51,1.51,0,0,0-.08-.38,1.16,1.16,0,0,0,.7-1.09A1.14,1.14,0,0,0,110,221.74Z"/></g></g></g><path id="path3025-0-8-4" class="cls-24" d="M97.31,137.2V11.35c-18.61,0-36.46,5.4-52,11.66V48.56a13.68,13.68,0,0,1,7.78,12.79c0,6.2-2.37,11-7.78,13.39,0,18.21-1,29.09,7.87,37.3,3.84,3.69,9.73,6.85,14.73,9.09,2.17,1,4.71,1.65,6.55,2.38,5.72,2.31,11.74,4.65,15.46,7.14,4.87,3.26,6.48,5.36,7.34,6.55Z"/><path id="path3025-0-8-4-1" class="cls-24" d="M97.92,137.27l0-125.92c18.6,0,36.49,5.37,52,11.64V48.54a13.68,13.68,0,0,0-7.78,12.79c0,6.19,2.37,11,7.78,13.38-.07,18.24,1,29.09-7.87,37.3-3.84,3.7-9.73,6.85-14.73,9.1-2.17,1-4.71,1.64-6.55,2.38-5.72,2.3-11.74,4.64-15.46,7.13a35.61,35.61,0,0,0-7.35,6.65Z"/><path id="path3025" class="cls-25" d="M97.9,134.19V13.55c17.85,0,34.64,4.87,49.51,10.86l.16,22.68c-5.36,2.69-7.82,8.34-7.89,14.29s2.38,12.36,7.73,14.74c0,12.15,1.24,26.33-7.26,34.17-3.69,3.54-9.16,6.66-14,8.81-2.07.91-5,1.82-6.78,2.52-4.87,1.95-12.6,4.87-16.17,7.25a15.08,15.08,0,0,0-5.35,5.32Z"/><path id="path3025-9" class="cls-26" d="M97.31,134.22V13.55c-17.85,0-34.66,4.87-49.53,10.86l-.16,22.68c5.35,2.69,7.82,8.34,7.89,14.28s-2.38,12.37-7.73,14.75c0,12.15-1.25,26.33,7.26,34.17,3.69,3.54,9.15,6.66,14,8.81,2.08.91,5,1.82,6.79,2.52,4.86,1.95,12.59,4.87,16.16,7.25a15.53,15.53,0,0,1,5.36,5.35Z"/><path id="path3805" class="cls-27" d="M83.64,37.39c1,.94,1.07,2.54.07,3.18"/><path id="path2989" class="cls-27" d="M76.42,42.52c1.46-.65,2.78,0,4.08-.18-1.51-.91-3.38-3.56-2.15-3.44a9.92,9.92,0,0,1,4.31,1.5,3.67,3.67,0,0,0,.83.23c1.26,0-1.4-2.17-2.87-2.38A46.59,46.59,0,0,1,76,37.48c-2.1-1-2.54-2.61-2.34-5.1.32-1.8.58-1.77.93-.17.25,1,.33,2.43,1.94,3.16a5.61,5.61,0,0,0,2.54.87,11.76,11.76,0,0,1,4.93,2c.71.5-.4-1.76-2.64-2.43-1.81-.54-3.53-.8-3.68-2.55a2.36,2.36,0,0,1,2-2.67c.51-.06.25-1.83,1-2.07,1.34-.43,2.27,1.27,2.27,1.27,1.09,2,.84-.36,1.6-1.21s3.1-.82,4,0c.56.73.81,1.69,1.37,1.65s1.24-1.21,2-1.14a3.17,3.17,0,0,1,2.64,2.56c.42.76,1-.07,1.17.8A39.49,39.49,0,0,1,95.25,38c-.1.59.61,1.32,1.09,2.25a3.37,3.37,0,0,1,0,2.68c0,.83-1.31-2.36-1.36-1.67-.06.89.52,4.11-.4,3.05-.16-.18-.8-1.47-.86-1.5-.4-.22.91,2.76.49,3.44-1.32,3.24-1.18,0-1.48-.65-1-.47.33,4.43-.32,6.32-.56,1-1.45,1.73-2,1.71-.34.19-.4-1.25-.64-2.21s-.71-1.67-.92-.19a5.83,5.83,0,0,1-.66,3c-.72,1.27-3.06,2-4.41,4.09-.47,1-.16,1.8-.2,2.68.32,2.89-1,.41-1.65-.22-1.56-1.26.72,6.51,2,9.65,1.83,3.8,3.21,7.28,5.89,10.45.56.46,2.49,1.21,2.6-.61a6.27,6.27,0,0,0-.36-2.83L87.09,66.41c-.37-1.3-1.14-4.86,0-6.88a7.76,7.76,0,0,1,3.21-3.48,3.29,3.29,0,0,1,3.13.8,9,9,0,0,1,1.47,6.39c0,.39,1,1.67.85,2.76-.54,1.21-1.48,1.8-1.38,3.53-.05,1,1.46,2.17,1.2,2.68a3.28,3.28,0,0,1-3.08-2c-.33-.49-.31-2-1-2.38a1.36,1.36,0,0,1-.74-1.37c.1-1.07.23-2.13,1.36-2.72.65-.24,1-2.48.47-4.2-.48-.81-1.59-1.49-2.41-1s-1.08,1.38-1.34,2.77a10.68,10.68,0,0,0,.58,5.18l2.68,5.62a24.45,24.45,0,0,1,2.59,6.7c.23,1.73.17,4-1.48,5.27-.56.7-2,.6-3,.16s-3.27-3.46-3.4-3.75c0-.11,1,1.48.8,2.17,0,.68-3,2.46-3.22,3.6-.2.82.7,1.75,3.2,2.73,3.31.89,6.37,3.2,7.37,5.21a2,2,0,0,1-1.7.68A19.55,19.55,0,0,1,90.64,94a6.92,6.92,0,0,1,1.62.72,3.34,3.34,0,0,1,.7,1c.26.73,1.8,2.18.7,2.27-1.27,0-1.45-.56-2.51-1.1a8.77,8.77,0,0,1,1.35.92c.88,1.87-.22,5.68.16,5.9,1.36.37,2,1,2.15,2,.49,1.64-.37,4.57-1,4.75-.27.08.27-1.58-.68-2.07-1.85-.72-2.55-3.68-3.53-1.52l-.89,2.81c-.28,1-1.57.64-2.41,1s-.89,1.56-1.29,1.62c-.82.24-.56-.69-.58-1.7,0-.8.51-1.53,0-1.53-1,0-1.93-.14-2.76,0-1.43.33-2.31,1.13-2.22.76a3.83,3.83,0,0,1,2.45-2.55c.51-.11.76-.9,1.34-1.07.12-.12-1.34.17-1.54-.32A3.8,3.8,0,0,0,79,103.69c-.48-.33,3.21-1.23,4.75-1.08,1.3.12,1.88.94,3.66,1.16a4,4,0,0,0,2.34-2.71,6.53,6.53,0,0,0-.7-3.35,30.2,30.2,0,0,0-3-4.09c-1.88-2.5-.81-.88-.87.76-1.42,4.23-1.9-1.38-2-.11l-.45,1.43c-2.27,3.67-.94-2-1.8-4s-3-5.09-3.08-6a2.9,2.9,0,0,1,.25-2.79,7.38,7.38,0,0,0-4.52-1.48,4.41,4.41,0,0,0-2.42.67A2,2,0,0,0,70,84.18c0,.66.59,1.31,1.29,2l3.53,4a8.1,8.1,0,0,1,1.83,4c0,.88.36,2.07-.67,1.08-.68-.3-2.33-2.05-1.74-.45,1.3,2.19.44,1.7-.89,1.12a3.67,3.67,0,0,0-2.86.58c-.83.53-2.12.53-1.44,1.18,1.16.71,2.46,1.3,2.3,2.82-.11.29-.58.2-.74.49s0,1-.34,1.31c-.54.91-1.75,1.16-1.94.68s1.33-1.43.56-2c-.4-.29-1.22-.64-1.24-1.26,0-.9-.23-1.68-.51-1.8s-.85.11-1.21.65l-2.15,2.14a3.81,3.81,0,0,1-2.22.49c-1.51.12-2.37.05.77-2.82.47-.47-.78-.43-1.06-.77S61,97,60.52,97c-1-.19-1.76.85-1.91.57-.31-.58.38-2.18,2.35-2,.59-.27-.4-.88-.66-2-.13-.56-1.18-.62-1.17-1s.8-.32,2.11-.06a13.81,13.81,0,0,1,2,.24c1.05.41,1.69,2.52,3.39,2.81,1.09.1,1.71-.78,2.33-1.42,1.18-1,1.18-2.24,1.34-3.4-.07-1.23-1.52-2.27-2.33-3.39-1.09-1.07-.81-2.59-1-3.22-.08-.23-1.13,1-1.76,1.52a1.81,1.81,0,0,1-2.09.31c-1.14-.53-1.78-1.1-1.65-1.37s1.77-.17,2.23-.86c.65-.47.36-.71.17-.79-.48-.22-2.47.53-3.18-.63-2.37-1.52.5-.63,1.25-1.69,1.47-1.82,2.63-4.41,4.08-5.46a3.51,3.51,0,0,1,2.77-.94c1,0,5.19,2.66,6.47,2.54A4,4,0,0,0,78.16,76c1.16-.6-4.77-7.68-5.1-8.37a3.65,3.65,0,0,1-2.48-3.78c0-.61-.55-.56-.78-1.17-.17-1.06-.5-.44-1,1-1,2.25-1.52,2.68-1.12.18-.06-1.66-3.34-2.72-3-1.34,0,1.33.61,1.93.72,2.86a4.58,4.58,0,0,1-1,3.15c-.46.29.09-1.16-.37-1.52-.74-.58-.75-1.4-.63-2.59.1-.9-.63-1.43-.81-.7-.28.47-.28,1.39-1,2.06s-1.07.48-1.31,1c-.89,2.09-.79,2.92-1.73.52,0-1.06-.64-2.11.26-3l1.83-1.56c1-.79.41-1.13-.56-.86s-1.75,1.34-2.23,1.14c-2.57-.8-1-2.93,2.39-2.78.79-.39-2.46-2.45-1.85-4.32.18-.57-.58-.71-.69-1.31s2.38-.49,3.53,1.43c.79,1,.66,2.43,1,3.54-.12,1.35,1-1,2.12-1.42a6.12,6.12,0,0,1,2.91-.46c1.75,0,1.65-2.77,1.12-3.58-1.1-1.53-1.55-2.49.08-3.7.31-.25.86-.51,1-.76.48-1,0-1.22-.4-1l-.85.25c-2,1.28,1.6-4.75.5-3.86l-1.2,1.06c-2.4,1.89-.52-.58,0-2,.42-1,.26-3-.36-2.28L64.67,43c-4,1.85.31-1.45,1.8-3.6,1-.73-1.63-.69-2.55-1.34-1.1-.84-.85-1.75-1.8-2.26-2.34-.74.08-1.41,1.32-1.13l2.2,1.49C67,37,67.4,36.35,66.9,36a2.51,2.51,0,0,1-1.7-2.86c-.07-.39-.74-.78-1.82-1-.29,0,.08-.71.84-.8A3.38,3.38,0,0,1,67,32.38c1.16,1.65-.23,3.63,1.21,3a3.48,3.48,0,0,0-.31-3c-1.32-1.09-3-3.14,2-.2A2.14,2.14,0,0,1,71,34c-.08,1.15-1.36,2.48-1.38,3.35l.58,3.39c1.82,5.68,2.67,5.47,3.22,5.38,1.53-1.63,1.41-2.48,3-3.63Z"/><path id="path3759" class="cls-27" d="M69,60.5c.13,1.06-.5,1.86-.07,2.6"/><path id="path3761" class="cls-27" d="M75,56.29c-2.43,2.52-4.74,4.87-4.42,7.46"/><path id="path3763" class="cls-28" d="M72.4,67.18a2.15,2.15,0,0,0,1.09-1.35A15.09,15.09,0,0,1,74.26,63c.64-1.24.49-2.7.79-2.13.17.25.11,1.42.42,2,.71,1.31,1.86,2,1.29-.27a3.37,3.37,0,0,1,1.12-3.32c.84-.82.84,4,2.1,4.05.35.08.37-.48.43-1.47.09-1.59,1.07-3.62,1.19-3.37a14.76,14.76,0,0,0,.08,4.24"/><path id="path3771" class="cls-27" d="M76.51,45.84A2.91,2.91,0,0,0,75,47.92c-.08.84,0,1.77-1.36,2a3.08,3.08,0,0,0-2,.79c-1.15.88-2.87,2.13-1.86,2.37.46-.08,1.25-.3,2-.38.28,0,.56-.07.79.57,0,.37,2.08-1.21,2.46-2.15-1.12,2.25-5.49,3.26-6.69,5.95"/><path id="path3773" class="cls-27" d="M69.37,49.62c1.79,0,4-2.51,4-3.47"/><path id="path3791" class="cls-27" d="M62.3,98.25c.91-.38,1.58-1,2.92-1"/><path id="path3793" class="cls-27" d="M60.83,95.51a4.24,4.24,0,0,1,3.56.56"/><path id="path3767" class="cls-27" d="M89.11,44.73c-1,1.08-.33,8.6-2.09,5a15.24,15.24,0,0,1-1-3.29c-.18-.86.09-.68,0,.07a14.79,14.79,0,0,1,.28,4.64c-.15.57-.6,1.11-1.4.21-.25-.28.07,1.55-.18,2-1.46,2.66-1.39-1.77-1.89-1-.73,2.44-1.4,3.75-1.71,2.65-.24-2-.91-3-.91-1.48-.06.93.44,2.15,0,2.78-1.83,2.64-.56-2.26-1.74-2.59"/><path id="path3775" class="cls-27" d="M80.2,42.3l3.57.16c1.43,0,1.53-.75,1.92-1.77"/><path id="path3777" class="cls-27" d="M89.72,30.13c-.32.35-.11.86.29,1.28"/><path id="path3779" class="cls-27" d="M92.87,31.49a1.7,1.7,0,0,0,1.58.17"/><path id="path3781" class="cls-27" d="M93.55,34a2.31,2.31,0,0,0,2.11.12"/><path id="path3789" class="cls-27" d="M84.6,109.14c.9-.08,1.56-2.7,3.23-3.12"/><path id="path3807" class="cls-27" d="M88.54,46.78a12.51,12.51,0,0,0,.75,3.48"/><path id="path3809" class="cls-27" d="M110.52,77.2c-.36,1.13.38,2.22,1.85,2.74l2.45.87c1.47.53,2.68.16,3-.83.37-1.17-.38-2.24-1.84-2.76l-2.45-.87C111.56,75.65,110.85,76.18,110.52,77.2Z"/><path id="path3809-7" class="cls-27" d="M125.83,79.83c-.36-1.14.39-2.22,1.85-2.75l2.45-.87c1.47-.52,2.68-.15,3,.84.38,1.17-.37,2.24-1.84,2.76l-2.45.87c-2,.7-2.67.17-3-.85Z"/><path id="path4035-1-1" class="cls-27" d="M139.67,103.92c2.52-1,4.84-3.21,3.77-7.26a4,4,0,0,0-2.35-2.91c2.33-2.21,4.54-3.09,2.73-7.4a6,6,0,0,0-9.34-2.77c.11-1.33.6-2.55-.77-3.54-.89-.61-1.81-.55-3.48.11-1.93.77-2.4,1.2-2.6,2.32-.32,1.66.88,2.21,1.88,3.09a6.11,6.11,0,0,0-5,8.39c1.77,4.42,4,3.54,7.18,3.61a4.2,4.2,0,0,0,.22,3.69C134,104.9,137.21,104.9,139.67,103.92Z"/><path id="path4035-1-15" class="cls-27" d="M104.09,104.12c2.52,1,5.72,1,7.72-2.71a4,4,0,0,0,.29-3.72c3.2,0,5.41.86,7.06-3.52a6,6,0,0,0-4.91-8.42c1-.89,2.19-1.44,1.86-3.1-.22-1.06-.93-1.65-2.6-2.31-1.94-.77-2.57-.78-3.48-.1-1.38,1-.88,2.22-.76,3.54a6.11,6.11,0,0,0-9.38,2.7c-1.74,4.42.47,5.3,2.75,7.54a4.29,4.29,0,0,0-2.37,2.84c-1,4.09,1.36,6.29,3.82,7.26Z"/><path id="path4109-2-7" class="cls-27" d="M112.87,76.11l3.57,1.19,5.35-13.09,5.35,13.09,3.57-1.19-7.14-16.66,4.76-10.7,10.11,4.16L144.39,38l-13.68-5.35L121.79,54.1l-8.92-21.41L99.18,38l6.55,14.87,9.52-4.16L120,59.45Z"/><path id="path4165-1-1" class="cls-25" d="M103.41,40.58l1.16,2.73,2.74-1.16-1.16-2.74Z"/><path id="path4165-1-8-8" class="cls-25" d="M107.31,42.15l1.16,2.74,2.74-1.16L110.05,41Z"/><path id="path3849-4-9" class="cls-25" d="M133.94,89.42c-1.28-.75-3.61-1.71-5.26-1a3.22,3.22,0,0,0-1.5,4.11,3.49,3.49,0,0,0,2.93,2.38,7.48,7.48,0,0,0,4.3-.51c-.5,3.44.33,8.5,4.33,6.57,4.14-1.73,1.21-5.66-1.59-7.71a8,8,0,0,0,3.39-2.71c.91-1.67,1-2.34.37-3.73a3.24,3.24,0,0,0-4-1.85c-2.19.92-2.6,3-3,4.47Z"/><path id="path4165-1-5-9" class="cls-25" d="M108.89,38.25,110.05,41l2.74-1.16-1.17-2.74Z"/><path id="path3849-4-9-4" class="cls-25" d="M109.66,89.51c-.38-1.43-1.38-3.75-3-4.42a3.24,3.24,0,0,0-4,1.88,3.54,3.54,0,0,0,.42,3.76,7.56,7.56,0,0,0,3.42,2.65c-2.76,2.1-5.72,6.29-1.52,7.72,4.17,1.67,4.83-3.19,4.28-6.62a7.89,7.89,0,0,0,4.31.45c1.83-.55,2.32-1,2.88-2.4a3.22,3.22,0,0,0-1.55-4.12c-2.21-.88-4,.33-5.25,1.1Z"/><path id="path4165-1-7-2" class="cls-25" d="M105.73,46.05l1.17,2.74,2.73-1.16-1.16-2.74Z"/><path id="path4165-1-6-7" class="cls-25" d="M111.21,43.73l1.16,2.74,2.74-1.17L114,42.57Z"/><path id="path4165-1-9" class="cls-25" d="M132,37.18,130.88,40,133.65,41l1.09-2.76Z"/><path id="path4165-1-8-5" class="cls-25" d="M133.65,41l-1.09,2.77,2.77,1.09,1.09-2.77Z"/><path id="path4165-1-5-4" class="cls-25" d="M137.5,39.35l-1.08,2.77,2.76,1.09,1.09-2.77Z"/><path id="path4165-1-7-3" class="cls-25" d="M129.79,42.71l-1.09,2.77,2.77,1.09,1.09-2.77Z"/><path id="path4165-1-6-1" class="cls-25" d="M135.33,44.89l-1.09,2.77L137,48.75,138.1,46Z"/><path id="path3787-1" class="cls-27" d="M82.58,106.59c1-.76,2.27-.69,3.53-.88"/><path id="path4960" class="cls-29" d="M95.76,12c1.33-.05,2.41,0,3.48,0"/><path id="path4960-9" class="cls-29" d="M96,13c1.5,0,1.58,0,3.48,0"/><path id="path4980" class="cls-30" d="M96.91,12.17s-.12.82-.12.82h1.77l0-.91Z"/><path id="path4982" class="cls-29" d="M96,133.44l1.58,2.2c.64-.78,1.16-1.82,2.07-2.78"/><path id="path4982-6" class="cls-29" d="M96.07,134.54c.55.75,1.06,1.47,1.58,2.2.65-.79,1.17-1.83,2.08-2.78"/><path id="path4982-9" class="cls-29" d="M96.07,134.14c.55.75,1.06,1.47,1.58,2.2.65-.79,1.17-1.83,2.08-2.78"/><path id="path3138" class="cls-29" d="M47.69,24.41c16.46-7,33.31-11,50.18-11.17,17.89.27,34.25,4.82,49.78,10.93l-.08,23C143,49,139.79,55,139.67,61.79c.5,6.75,3.37,12.52,8,14.45-.06,6.47.4,14.19-.78,21.26a22.9,22.9,0,0,1-10.26,16.07c-8.07,5.55-19.84,8.61-27.24,12.4-5.19,2.3-9.35,5.27-11.83,8.95-2.28-3.68-6.44-6.65-11.62-8.85-9.1-4.45-17.74-6.25-26.28-11.86-3.8-2.32-8.08-6.37-10-11.47-2.81-7.43-2.17-17-2.06-26.63,4.56-2.24,7.1-6.26,7.89-13.89-.17-5-1-11.19-7.89-15.12Z"/><path id="path3785" class="cls-28" d="M77.93,82.94c2.1-1.21,2.12-6.37.19-8"/><path id="path3801-1-4" class="cls-24" d="M83.46,30.59A5.45,5.45,0,0,0,84.62,33a6.2,6.2,0,0,0,2.88,2.26c.46.11,0-1-.37-2-.86-2.45-2.26-1.28-3-1.32C83.87,32,83.56,31.26,83.46,30.59Z"/><path id="path3066-0" class="cls-31" d="M86.13,32.07c-.29-.15-.44.15-.59.44s-.29.59,0,.74.44-.15.59-.44S86.43,32.22,86.13,32.07Z"/><path class="cls-2" d="M80,99.63c-12.64,0-22.89,10.17-22.89,30.51C57.11,155.57,75.33,181,97.8,181s40.68-25.43,40.68-50.86c0-20.34-10.24-30.51-22.88-30.51a22.86,22.86,0,0,0-17.8,8.5A22.89,22.89,0,0,0,80,99.63Zm0,0"/><rect class="cls-2" x="24.97" y="112.84" width="145.64" height="54.95" rx="5.46"/><text class="cls-32" transform="translate(55.13 161.51)">Koszalin</text><text class="cls-32" transform="translate(77.01 136.92)">Lida</text><path class="cls-33" d="M150.51,0l29,0h16l0,16c0,7,0,14,0,21A29.09,29.09,0,0,1,150.51,0Z"/><text class="cls-34" transform="translate(159.57 31.75)"><tspan class="cls-35">3</tspan><tspan x="10.41" y="0">7</tspan></text></svg>