<svg id="Слой_1" data-name="Слой 1" xmlns="http://www.w3.org/2000/svg" xmlns:xlink="http://www.w3.org/1999/xlink" viewBox="0 0 195.59 280.63"><defs><style>.cls-1{fill:none;}.cls-19,.cls-2{fill:#3377bc;}.cls-3{clip-path:url(#clip-path);}.cls-18,.cls-4{fill:#ffdc24;}.cls-5{fill:#1a1a1a;}.cls-6{fill:#1f57a4;}.cls-7{fill:#f1ad11;}.cls-8{fill:#fff;}.cls-9{fill:#af1739;}.cls-10{fill:#eb5775;}.cls-11{fill:#badbe9;}.cls-12{fill:#8bb0cc;}.cls-13{fill:#f293a2;}.cls-14{fill:#3e3e3e;}.cls-15{fill:#595959;}.cls-16{fill:#797979;}.cls-17{fill:#eb5a53;}.cls-18{font-size:52.93px;}.cls-18,.cls-19{font-family:Impact;}.cls-19{font-size:20px;}</style><clipPath id="clip-path"><rect class="cls-1" x="-11.08" y="-8" width="213.74" height="298.44" transform="translate(191.59 282.44) rotate(-180)"/></clipPath></defs><rect class="cls-2" x="-20.77" y="-43.66" width="257.22" height="357.25"/><g class="cls-3"><path class="cls-4" d="M149.31,221.26c3.53,0,6.48-1.93,8.75-5.73a32.08,32.08,0,0,0,3.16-7.84c.43-1.53.82-3.18,1.16-4.89a65,65,0,0,0,6.51.33c2.15,0,4.33-.11,6.52-.33.33,1.71.72,3.36,1.15,4.89a32.08,32.08,0,0,0,3.16,7.84c2.27,3.8,5.22,5.73,8.75,5.73s6.48-1.93,8.75-5.73a32.08,32.08,0,0,0,3.16-7.84,71.68,71.68,0,0,0,2.36-14.06,65.05,65.05,0,0,0,28.33-36.14c.41.29.82.55,1.23.8a12.14,12.14,0,0,0,6.23,2,8.85,8.85,0,0,0,4.18-1.05c3.12-1.66,4.81-4.75,5-9.17a32.28,32.28,0,0,0-.91-8.41,71.41,71.41,0,0,0-6.39-17.32c-3-5.6-6.44-9.11-10.57-10.75l-.62-.23a64.66,64.66,0,0,0-10-16.77,24,24,0,0,0-6.08-26.38c0-.51.05-1,.05-1.49a24.14,24.14,0,0,0-24.11-24.11h-.38A26.72,26.72,0,0,0,169,35.74h-.19a26.65,26.65,0,0,0-19.74,8.86h-.38a24.13,24.13,0,0,0-24.1,24.11c0,.49,0,1,0,1.49a24,24,0,0,0-6.08,26.38,65.07,65.07,0,0,0-13.16,26.58,33.4,33.4,0,0,0-3.63,4,1.8,1.8,0,0,1-.08-.21c-1.94-4.66-4.28-8.06-7.13-10.34A67.25,67.25,0,0,0,72.25,82.72,48.72,48.72,0,0,0,84.87,55.58l1.6-12.17L74.94,47.46c-.38.12-3.4,1.07-7.33,1.95l2.7-7.28L56.53,45.48a85.89,85.89,0,0,1-16,2.2c-2.19.13-4.35.21-6.64.29-3.31.12-6.73.25-10.39.52-9.1.67-16.17,3.48-21,8.37A24.32,24.32,0,0,0-4,76.92a67.34,67.34,0,0,0-30.37,38.61,12.67,12.67,0,0,0-1.35.76c-3.82,2.47-6.59,6.7-8.48,12.92a74.36,74.36,0,0,0-3,18.79,33.21,33.21,0,0,0,.78,8.66c1.09,4.37,3.39,7.12,6.83,8.16a9,9,0,0,0,2.61.39,10.42,10.42,0,0,0,6-2.11A67.13,67.13,0,0,0-4.84,192.18a74.31,74.31,0,0,0,2.43,14.55,33.05,33.05,0,0,0,3.25,8.06c2.32,3.88,5.31,5.84,8.91,5.84s6.58-2,8.9-5.84a33.05,33.05,0,0,0,3.25-8.06c.45-1.61.86-3.35,1.21-5.16a65.16,65.16,0,0,0,13.68,0c.35,1.81.76,3.55,1.21,5.16a33.05,33.05,0,0,0,3.25,8.06c2.32,3.88,5.32,5.84,8.91,5.84s6.59-2,8.9-5.84a32.66,32.66,0,0,0,3.25-8.06,73.32,73.32,0,0,0,2.44-14.55,67.09,67.09,0,0,0,26.68-30.44,10.83,10.83,0,0,0,5.72,1.79,9.06,9.06,0,0,0,2.32-.3,13.6,13.6,0,0,0,4.66-1,24.71,24.71,0,0,0,3.56-1.79A65.76,65.76,0,0,0,135,193.63a71.68,71.68,0,0,0,2.36,14.06,32.08,32.08,0,0,0,3.16,7.84C142.83,219.33,145.78,221.26,149.31,221.26Z"/><path class="cls-4" d="M180.73,189.39c0-10.4,4.57-12.47,7.74-12.47s7.75,2.07,7.75,12.47-3.47,25.18-7.75,25.18-7.74-14.78-7.74-25.18Zm0,0"/><path class="cls-5" d="M188.47,174.76a8.76,8.76,0,0,0-6.71,3.1c-2,2.35-3.2,6-3.2,11.53a67.45,67.45,0,0,0,2.35,17.08,28.42,28.42,0,0,0,2.69,6.74c1.09,1.82,2.56,3.52,4.87,3.52s3.78-1.7,4.87-3.52a28.42,28.42,0,0,0,2.69-6.74,67.45,67.45,0,0,0,2.35-17.08c0-5.51-1.21-9.18-3.2-11.53a8.76,8.76,0,0,0-6.71-3.1Zm0,4.32a4.16,4.16,0,0,1,3.41,1.57c1.09,1.3,2.17,3.86,2.17,8.74a64.24,64.24,0,0,1-2.18,15.91,25.13,25.13,0,0,1-2.24,5.69,4.43,4.43,0,0,1-1.16,1.38,4.43,4.43,0,0,1-1.16-1.38,25.13,25.13,0,0,1-2.24-5.69,64.24,64.24,0,0,1-2.18-15.91c0-4.88,1.08-7.44,2.17-8.74a4.16,4.16,0,0,1,3.41-1.57Zm0,0"/><path class="cls-4" d="M141.57,189.39c0-10.4,4.57-12.47,7.74-12.47s7.75,2.07,7.75,12.47-3.47,25.18-7.75,25.18-7.74-14.78-7.74-25.18Zm0,0"/><path class="cls-5" d="M149.31,174.76a8.77,8.77,0,0,0-6.71,3.1c-2,2.35-3.19,6-3.19,11.53a67.44,67.44,0,0,0,2.34,17.08,28.42,28.42,0,0,0,2.69,6.74c1.09,1.82,2.56,3.52,4.87,3.52s3.78-1.7,4.87-3.52a28,28,0,0,0,2.69-6.74,67,67,0,0,0,2.35-17.08c0-5.51-1.21-9.18-3.2-11.53a8.76,8.76,0,0,0-6.71-3.1Zm0,4.32a4.16,4.16,0,0,1,3.41,1.57c1.1,1.3,2.18,3.86,2.18,8.74a64.25,64.25,0,0,1-2.19,15.91,25.13,25.13,0,0,1-2.24,5.69,4.43,4.43,0,0,1-1.16,1.38,4.43,4.43,0,0,1-1.16-1.38,24.71,24.71,0,0,1-2.23-5.69,63.78,63.78,0,0,1-2.19-15.91c0-4.88,1.08-7.44,2.17-8.74a4.18,4.18,0,0,1,3.41-1.57Zm0,0"/><path class="cls-2" d="M107,131.4c6.33-8.25,11.23-7.11,13.74-5.18s4.88,6.36-1.45,14.61-18.08,17.87-21.47,15.26,2.85-16.44,9.18-24.69Zm0,0"/><path class="cls-5" d="M122,124.5a8.81,8.81,0,0,0-7.22-1.62c-3,.65-6.2,2.83-9.55,7.2a67.33,67.33,0,0,0-8.53,15,28.41,28.41,0,0,0-2,7c-.24,2.11-.11,4.35,1.72,5.76s4,.95,6,.17a28.42,28.42,0,0,0,6.24-3.72A67.57,67.57,0,0,0,121,142.15c3.35-4.38,4.63-8,4.48-11.1A8.79,8.79,0,0,0,122,124.5Zm-2.64,3.43a4.16,4.16,0,0,1,1.75,3.33c.08,1.69-.62,4.38-3.59,8.25a63.56,63.56,0,0,1-11.42,11.29,25.37,25.37,0,0,1-5.24,3.16,4.5,4.5,0,0,1-1.76.38,4.35,4.35,0,0,1-.08-1.8,24.9,24.9,0,0,1,1.69-5.87,63.58,63.58,0,0,1,8-13.95c3-3.88,5.39-5.26,7-5.61a4.17,4.17,0,0,1,3.66.82Zm0,0"/><path class="cls-5" d="M168.89,77.3A60.66,60.66,0,1,0,229.55,138,60.71,60.71,0,0,0,168.89,77.3Zm0,6.92A53.74,53.74,0,1,1,115.15,138a53.69,53.69,0,0,1,53.74-53.74Zm0,0"/><path class="cls-6" d="M111.69,138a57.21,57.21,0,1,1,16.76,40.44A57.21,57.21,0,0,1,111.69,138Zm0,0"/><path class="cls-2" d="M119,135a52.92,52.92,0,1,1,15.5,37.42A52.92,52.92,0,0,1,119,135Zm0,0"/><path class="cls-7" d="M111.69,138a57.2,57.2,0,0,0,114.4,0Zm114.4,0"/><path class="cls-4" d="M119.11,138a52.87,52.87,0,0,0,105.57,0Zm105.57,0"/><path class="cls-5" d="M168.89,79.89A58.07,58.07,0,1,0,227,138a58.08,58.08,0,0,0-58.06-58.07Zm0,1.73A56.34,56.34,0,1,1,112.56,138a56.32,56.32,0,0,1,56.33-56.34Zm0,0"/><path class="cls-8" d="M168.89,85.6a52.47,52.47,0,0,0-20.63,4.25A55.57,55.57,0,0,1,217.19,158a52.31,52.31,0,0,0-48.3-72.43Zm0,0"/><path class="cls-7" d="M114.13,138.17h-.34l-.06,0-.06,0-.06,0-.06,0-.06,0-.06,0-.05,0a184737722674.58,184737722674.58,0,0,0-.1.08l0,0,0,.05,0,0,0,.05,0,0,0,.05,0,.06,0,.06a.14.14,0,0,1,0,.06l0,.06a.19.19,0,0,0,0,.08v0h0a.13.13,0,0,0,0,.06l0,.06s0,0,0,.06a.15.15,0,0,1,0,.07v.17a.2.2,0,0,1,0,.07s0,0,0,.06a.17.17,0,0,1,0,.07s0,0,0,.06l0,.06s0,0,0,.06l0,.06a.14.14,0,0,0,0,.06l0,.06,0,0,0,.06a.1.1,0,0,1,0,.05l0,0,0,.05,0,0,.05,0,0,0,0,0,.06,0,.06,0,0,0,.06,0,.06,0,.09,0h.7l.07,0,.06,0,.06,0,.06,0,0,0,.06,0,0,0,.06,0,0,0,0,0,0-.05,0,0a503830152749.12,503830152749.12,0,0,1,.12-.15l0-.06,0-.06a.14.14,0,0,0,0-.06l0-.06,0-.08v0h0l0-.06s0,0,0-.06,0,0,0-.07,0,0,0-.06v-.17s0,0,0-.07,0,0,0-.06,0-.05,0-.07,0,0,0-.06a.14.14,0,0,0,0-.06.14.14,0,0,0,0-.06l0-.06,0-.06,0-.06,0,0,0-.06,0-.05,0,0,0-.05,0,0,0-.05,0,0a.1.1,0,0,1,0,0l-.06,0,0,0-.06,0-.06,0-.06,0-.08,0h-.09l-.06,0h-.22Zm0,0"/><path class="cls-7" d="M114.13,138.17h-.22l-.06,0h-.06l-.06,0-.06,0-.06,0-.06,0-.06,0-.06,0-.05,0a184737722674.58,184737722674.58,0,0,0-.1.08l0,0,0,.05,0,0,0,.05,0,0,0,.05,0,.06,0,.06,0,0,0,.06a.29.29,0,0,0,0,.09v0h0a.11.11,0,0,0,0,.05.64.64,0,0,1,0,.07s0,0,0,.06a.17.17,0,0,1,0,.07v.17a.17.17,0,0,1,0,.07s0,0,0,.06a.15.15,0,0,1,0,.07s0,0,0,.06l0,.06s0,0,0,.06l0,.06a.14.14,0,0,0,0,.06l0,.06,0,0,0,.06,0,.05a.1.1,0,0,1,0,0l0,0,0,0,.05,0,0,0,0,0,.06,0,.06,0,0,0,.06,0,.06,0,.09,0h.7l.07,0,.06,0,.06,0,.06,0,0,0,.06,0,0,0,.06,0,0,0,0,0,0-.05,0,0a503830152749.12,503830152749.12,0,0,1,.12-.15l0-.06,0-.06a.14.14,0,0,0,0-.06l0-.06,0-.08v0h0l0-.06s0,0,0-.06,0,0,0-.07,0,0,0-.06v-.17s0,0,0-.07,0,0,0-.06,0-.05,0-.07,0,0,0-.06a.14.14,0,0,0,0-.06.14.14,0,0,0,0-.06l0-.06,0-.06,0-.06,0,0,0-.06,0-.05,0,0,0-.05,0,0,0-.05,0,0a.1.1,0,0,1,0,0l-.06,0,0,0-.06,0-.06,0-.06,0-.08,0h-.09l-.06,0h-.22Zm0,0"/><path class="cls-7" d="M114.13,138.17h-.22l-.06,0h-.06l-.06,0-.06,0-.06,0-.06,0-.06,0-.06,0-.05,0a184737722674.58,184737722674.58,0,0,0-.1.08l0,0,0,.05,0,0,0,.05,0,0,0,.05,0,.06,0,.06,0,0,0,.06a.29.29,0,0,0,0,.09v0h0a.11.11,0,0,0,0,.05.64.64,0,0,1,0,.07s0,0,0,.06a.17.17,0,0,1,0,.07v.17a.17.17,0,0,1,0,.07s0,0,0,.06a.15.15,0,0,1,0,.07s0,0,0,.06l0,.06s0,0,0,.06l0,.06a.14.14,0,0,0,0,.06l0,.06,0,0,0,.06,0,.05a.1.1,0,0,1,0,0l0,0,0,0,.05,0,0,0,0,0,.06,0,.06,0,0,0,.06,0,.06,0,.09,0h.7l.07,0,.06,0,.06,0,.06,0,0,0,.06,0,0,0,.06,0,0,0,0,0,0-.05,0,0a503830152749.12,503830152749.12,0,0,1,.12-.15l0-.06,0-.06a.14.14,0,0,0,0-.06l0-.06,0-.08v0h0l0-.06s0,0,0-.06,0,0,0-.07,0,0,0-.06v-.17s0,0,0-.07,0,0,0-.06,0-.05,0-.07,0,0,0-.06a.14.14,0,0,0,0-.06.14.14,0,0,0,0-.06l0-.06,0-.06,0-.06,0,0,0-.06,0-.05,0,0,0-.05,0,0,0-.05,0,0a.1.1,0,0,1,0,0l-.06,0,0,0-.06,0-.06,0-.06,0-.08,0h-.09l-.06,0h-.22Zm0,0"/><path class="cls-7" d="M114.13,138.17h-.22l-.06,0h-.06l-.06,0-.06,0-.06,0-.06,0-.06,0-.06,0-.05,0a184737722674.58,184737722674.58,0,0,0-.1.08l0,0,0,.05,0,0,0,.05,0,0,0,.05,0,.06,0,.06,0,0,0,.06a.29.29,0,0,0,0,.09v0h0a.11.11,0,0,0,0,.05.64.64,0,0,1,0,.07s0,0,0,.06a.17.17,0,0,1,0,.07v.17a.17.17,0,0,1,0,.07s0,0,0,.06a.15.15,0,0,1,0,.07s0,0,0,.06l0,.06s0,0,0,.06l0,.06a.14.14,0,0,0,0,.06l0,.06,0,0,0,.06,0,.05a.1.1,0,0,1,0,0l0,0,0,0,.05,0,0,0,0,0,.06,0,.06,0,0,0,.06,0,.06,0,.09,0h.7l.07,0,.06,0,.06,0,.06,0,0,0,.06,0,0,0,.06,0,0,0,0,0,0-.05,0,0a503830152749.12,503830152749.12,0,0,1,.12-.15l0-.06,0-.06a.14.14,0,0,0,0-.06l0-.06,0-.08v0h0l0-.06s0,0,0-.06,0,0,0-.07,0,0,0-.06v-.17s0,0,0-.07,0,0,0-.06,0-.05,0-.07,0,0,0-.06a.14.14,0,0,0,0-.06.14.14,0,0,0,0-.06l0-.06,0-.06,0-.06,0,0,0-.06,0-.05,0,0,0-.05,0,0,0-.05,0,0a.1.1,0,0,1,0,0l-.06,0,0,0-.06,0-.06,0-.06,0-.08,0h-.09l-.06,0h-.22Zm0,0"/><path class="cls-7" d="M114.13,138.17h-.22l-.06,0h-.06l-.06,0-.06,0-.06,0-.06,0-.06,0-.06,0-.05,0a184737722674.58,184737722674.58,0,0,0-.1.08l0,0,0,.05,0,0,0,.05,0,0,0,.05,0,.06,0,.06,0,0,0,.06a.29.29,0,0,0,0,.09v0h0a.11.11,0,0,0,0,.05.64.64,0,0,1,0,.07s0,0,0,.06a.17.17,0,0,1,0,.07v.17a.17.17,0,0,1,0,.07s0,0,0,.06a.15.15,0,0,1,0,.07s0,0,0,.06l0,.06s0,0,0,.06l0,.06a.14.14,0,0,0,0,.06l0,.06,0,0,0,.06,0,.05a.1.1,0,0,1,0,0l0,0,0,0,.05,0,0,0,0,0,.06,0,.06,0,0,0,.06,0,.06,0,.09,0h.7l.07,0,.06,0,.06,0,.06,0,0,0,.06,0,0,0,.06,0,0,0,0,0,0-.05,0,0a503830152749.12,503830152749.12,0,0,1,.12-.15l0-.06,0-.06a.14.14,0,0,0,0-.06l0-.06,0-.08v0h0l0-.06s0,0,0-.06,0,0,0-.07,0,0,0-.06v-.17s0,0,0-.07,0,0,0-.06,0-.05,0-.07,0,0,0-.06a.14.14,0,0,0,0-.06.14.14,0,0,0,0-.06l0-.06,0-.06,0-.06,0,0,0-.06,0-.05,0,0,0-.05,0,0,0-.05,0,0a.1.1,0,0,1,0,0l-.06,0,0,0-.06,0-.06,0-.06,0-.08,0h-.09l-.06,0h-.22Zm0,0"/><path class="cls-7" d="M114.13,138.17h-.22l-.06,0h-.06l-.06,0-.06,0-.06,0-.06,0-.06,0-.06,0-.05,0a184737722674.58,184737722674.58,0,0,0-.1.08l0,0,0,.05,0,0,0,.05,0,0,0,.05,0,.06,0,.06,0,0,0,.06a.29.29,0,0,0,0,.09v0h0a.11.11,0,0,0,0,.05.64.64,0,0,1,0,.07s0,0,0,.06a.17.17,0,0,1,0,.07v.17a.17.17,0,0,1,0,.07s0,0,0,.06a.15.15,0,0,1,0,.07s0,0,0,.06l0,.06s0,0,0,.06l0,.06a.14.14,0,0,0,0,.06l0,.06,0,0,0,.06,0,.05a.1.1,0,0,1,0,0l0,0,0,0,.05,0,0,0,0,0,.06,0,.06,0,0,0,.06,0,.06,0,.09,0h.7l.07,0,.06,0,.06,0,.06,0,0,0,.06,0,0,0,.06,0,0,0,0,0,0-.05,0,0a503830152749.12,503830152749.12,0,0,1,.12-.15l0-.06,0-.06a.14.14,0,0,0,0-.06l0-.06,0-.08v0h0l0-.06s0,0,0-.06,0,0,0-.07,0,0,0-.06v-.17s0,0,0-.07,0,0,0-.06,0-.05,0-.07,0,0,0-.06a.14.14,0,0,0,0-.06.14.14,0,0,0,0-.06l0-.06,0-.06,0-.06,0,0,0-.06,0-.05,0,0,0-.05,0,0,0-.05,0,0a.1.1,0,0,1,0,0l-.06,0,0,0-.06,0-.06,0-.06,0-.08,0h-.09l-.06,0h-.22Zm0,0"/><path class="cls-7" d="M114.13,138.17h-.22l-.06,0h-.06l-.06,0-.06,0-.06,0-.06,0-.06,0-.06,0-.05,0a184737722674.58,184737722674.58,0,0,0-.1.08l0,0,0,.05,0,0,0,.05,0,0,0,.05,0,.06,0,.06,0,0,0,.06a.29.29,0,0,0,0,.09v0h0a.11.11,0,0,0,0,.05.64.64,0,0,1,0,.07s0,0,0,.06a.17.17,0,0,1,0,.07v.17a.17.17,0,0,1,0,.07s0,0,0,.06a.15.15,0,0,1,0,.07s0,0,0,.06l0,.06s0,0,0,.06l0,.06a.14.14,0,0,0,0,.06l0,.06,0,0,0,.06,0,.05a.1.1,0,0,1,0,0l0,0,0,0,.05,0,0,0,0,0,.06,0,.06,0,0,0,.06,0,.06,0,.09,0h.7l.07,0,.06,0,.06,0,.06,0,0,0,.06,0,0,0,.06,0,0,0,0,0,0-.05,0,0a503830152749.12,503830152749.12,0,0,1,.12-.15l0-.06,0-.06a.14.14,0,0,0,0-.06l0-.06,0-.08v0h0l0-.06s0,0,0-.06,0,0,0-.07,0,0,0-.06v-.17s0,0,0-.07,0,0,0-.06,0-.05,0-.07,0,0,0-.06a.14.14,0,0,0,0-.06.14.14,0,0,0,0-.06l0-.06,0-.06,0-.06,0,0,0-.06,0-.05,0,0,0-.05,0,0,0-.05,0,0a.1.1,0,0,1,0,0l-.06,0,0,0-.06,0-.06,0-.06,0-.08,0h-.09l-.06,0h-.22Zm0,0"/><path class="cls-7" d="M114.13,138.17h-.22l-.06,0h-.06l-.06,0-.06,0-.06,0-.06,0-.06,0-.06,0-.05,0a184737722674.58,184737722674.58,0,0,0-.1.08l0,0,0,.05,0,0,0,.05,0,0,0,.05,0,.06,0,.06,0,0,0,.06a.29.29,0,0,0,0,.09v0h0a.11.11,0,0,0,0,.05.64.64,0,0,1,0,.07s0,0,0,.06a.17.17,0,0,1,0,.07v.17a.17.17,0,0,1,0,.07s0,0,0,.06a.15.15,0,0,1,0,.07s0,0,0,.06l0,.06s0,0,0,.06l0,.06a.14.14,0,0,0,0,.06l0,.06,0,0,0,.06,0,.05a.1.1,0,0,1,0,0l0,0,0,0,.05,0,0,0,0,0,.06,0,.06,0,0,0,.06,0,.06,0,.09,0h.7l.07,0,.06,0,.06,0,.06,0,0,0,.06,0,0,0,.06,0,0,0,0,0,0-.05,0,0a503830152749.12,503830152749.12,0,0,1,.12-.15l0-.06,0-.06a.14.14,0,0,0,0-.06l0-.06,0-.08v0h0l0-.06s0,0,0-.06,0,0,0-.07,0,0,0-.06v-.17s0,0,0-.07,0,0,0-.06,0-.05,0-.07,0,0,0-.06a.14.14,0,0,0,0-.06.14.14,0,0,0,0-.06l0-.06,0-.06,0-.06,0,0,0-.06,0-.05,0,0,0-.05,0,0,0-.05,0,0a.1.1,0,0,1,0,0l-.06,0,0,0-.06,0-.06,0-.06,0-.08,0h-.09l-.06,0h-.22Zm0,0"/><path class="cls-7" d="M114.13,138.17h-.22l-.06,0h-.06l-.06,0-.06,0-.06,0-.06,0-.06,0-.06,0-.05,0a184737722674.58,184737722674.58,0,0,0-.1.08l0,0,0,.05,0,0,0,.05,0,0,0,.05,0,.06,0,.06,0,0,0,.06a.29.29,0,0,0,0,.09v0h0a.11.11,0,0,0,0,.05.64.64,0,0,1,0,.07s0,0,0,.06a.17.17,0,0,1,0,.07v.17a.17.17,0,0,1,0,.07s0,0,0,.06a.15.15,0,0,1,0,.07s0,0,0,.06l0,.06s0,0,0,.06l0,.06a.14.14,0,0,0,0,.06l0,.06,0,0,0,.06,0,.05a.1.1,0,0,1,0,0l0,0,0,0,.05,0,0,0,0,0,.06,0,.06,0,0,0,.06,0,.06,0,.09,0h.7l.07,0,.06,0,.06,0,.06,0,0,0,.06,0,0,0,.06,0,0,0,0,0,0-.05,0,0a503830152749.12,503830152749.12,0,0,1,.12-.15l0-.06,0-.06a.14.14,0,0,0,0-.06l0-.06,0-.08v0h0l0-.06s0,0,0-.06,0,0,0-.07,0,0,0-.06v-.17s0,0,0-.07,0,0,0-.06,0-.05,0-.07,0,0,0-.06a.14.14,0,0,0,0-.06.14.14,0,0,0,0-.06l0-.06,0-.06,0-.06,0,0,0-.06,0-.05,0,0,0-.05,0,0,0-.05,0,0a.1.1,0,0,1,0,0l-.06,0,0,0-.06,0-.06,0-.06,0-.08,0h-.09l-.06,0h-.22Zm0,0"/><path class="cls-7" d="M114.13,138.17h-.22l-.06,0h-.06l-.06,0-.06,0-.06,0-.06,0-.06,0-.06,0-.05,0a184737722674.58,184737722674.58,0,0,0-.1.08l0,0,0,.05,0,0,0,.05,0,0,0,.05,0,.06,0,.06,0,0,0,.06a.29.29,0,0,0,0,.09v0h0a.11.11,0,0,0,0,.05.64.64,0,0,1,0,.07s0,0,0,.06a.17.17,0,0,1,0,.07v.17a.17.17,0,0,1,0,.07s0,0,0,.06a.15.15,0,0,1,0,.07s0,0,0,.06l0,.06s0,0,0,.06l0,.06a.14.14,0,0,0,0,.06l0,.06,0,0,0,.06,0,.05a.1.1,0,0,1,0,0l0,0,0,0,.05,0,0,0,0,0,.06,0,.06,0,0,0,.06,0,.06,0,.09,0h.7l.07,0,.06,0,.06,0,.06,0,0,0,.06,0,0,0,.06,0,0,0,0,0,0-.05,0,0a503830152749.12,503830152749.12,0,0,1,.12-.15l0-.06,0-.06a.14.14,0,0,0,0-.06l0-.06,0-.08v0h0l0-.06s0,0,0-.06,0,0,0-.07,0,0,0-.06v-.17s0,0,0-.07,0,0,0-.06,0-.05,0-.07,0,0,0-.06a.14.14,0,0,0,0-.06.14.14,0,0,0,0-.06l0-.06,0-.06,0-.06,0,0,0-.06,0-.05,0,0,0-.05,0,0,0-.05,0,0a.1.1,0,0,1,0,0l-.06,0,0,0-.06,0-.06,0-.06,0-.08,0h-.09l-.06,0h-.22Zm0,0"/><path class="cls-7" d="M114.13,138.17h-.34l-.06,0-.06,0-.06,0-.06,0-.06,0-.06,0-.05,0a184737722674.58,184737722674.58,0,0,0-.1.08l0,0,0,.05,0,0,0,.05,0,0,0,.05,0,.06,0,.06a.14.14,0,0,1,0,.06l0,.06a.19.19,0,0,0,0,.08v0h0a.13.13,0,0,0,0,.06l0,.06s0,0,0,.06a.15.15,0,0,1,0,.07v.17a.2.2,0,0,1,0,.07s0,0,0,.06a.17.17,0,0,1,0,.07s0,0,0,.06l0,.06s0,0,0,.06l0,.06a.14.14,0,0,0,0,.06l0,.06,0,0,0,.06a.1.1,0,0,1,0,.05l0,0,0,.05,0,0,.05,0,0,0,0,0,.06,0,.06,0,0,0,.06,0,.06,0,.09,0h.7l.07,0,.06,0,.06,0,.06,0,0,0,.06,0,0,0,.06,0,0,0,0,0,0-.05,0,0a503830152749.12,503830152749.12,0,0,1,.12-.15l0-.06,0-.06a.14.14,0,0,0,0-.06l0-.06,0-.08v0h0s0,0,0-.06,0,0,0-.06,0,0,0-.07,0,0,0-.06v-.17s0,0,0-.07,0,0,0-.06,0-.05,0-.07,0,0,0-.06a.14.14,0,0,0,0-.06.14.14,0,0,0,0-.06l0-.06,0-.06,0-.06,0,0,0-.06,0-.05,0,0,0-.05,0,0,0-.05,0,0a.1.1,0,0,1,0,0l-.06,0,0,0-.06,0-.06,0-.06,0-.08,0h-.09l-.06,0h-.22Zm0,0"/><path class="cls-7" d="M114.13,138.17h-.22l-.06,0h-.06l-.06,0-.06,0-.06,0-.06,0-.06,0-.06,0-.05,0a184737722674.58,184737722674.58,0,0,0-.1.08l0,0,0,.05,0,0,0,.05,0,0,0,.05,0,.06,0,.06,0,0,0,.06a.29.29,0,0,0,0,.09v0h0a.11.11,0,0,0,0,.05.64.64,0,0,1,0,.07s0,0,0,.06a.17.17,0,0,1,0,.07v.17a.17.17,0,0,1,0,.07s0,0,0,.06a.15.15,0,0,1,0,.07s0,0,0,.06l0,.06s0,0,0,.06l0,.06a.14.14,0,0,0,0,.06l0,.06,0,0,0,.06a230922153343.41,230922153343.41,0,0,0,.08.1l0,0,0,0,.05,0,0,0,0,0,.06,0,.06,0,0,0,.06,0,.06,0,.09,0h.7l.07,0,.06,0,.06,0,.06,0,0,0,.06,0,0,0,.06,0,0,0,0,0,0-.05,0,0a503830152749.12,503830152749.12,0,0,1,.12-.15l0-.06,0-.06a.14.14,0,0,0,0-.06l0-.06,0-.08v0h0s0,0,0-.06,0,0,0-.06,0,0,0-.07,0,0,0-.06v-.17s0,0,0-.07,0,0,0-.06,0-.05,0-.07,0,0,0-.06a.14.14,0,0,0,0-.06.14.14,0,0,0,0-.06l0-.06,0-.06,0-.06,0,0,0-.06,0-.05,0,0,0-.05,0,0,0-.05,0,0a.1.1,0,0,1,0,0l-.06,0,0,0-.06,0-.06,0-.06,0-.08,0h-.09l-.06,0h-.22Zm0,0"/><path class="cls-7" d="M114.13,138.17h-.22l-.06,0h-.06l-.06,0-.06,0-.06,0-.06,0-.06,0-.06,0-.05,0a184737722674.58,184737722674.58,0,0,0-.1.08l0,0,0,.05,0,0,0,.05,0,0,0,.05,0,.06,0,.06,0,0,0,.06a.29.29,0,0,0,0,.09v0h0a.11.11,0,0,0,0,.05.64.64,0,0,1,0,.07s0,0,0,.06a.17.17,0,0,1,0,.07v.17a.17.17,0,0,1,0,.07s0,0,0,.06a.15.15,0,0,1,0,.07s0,0,0,.06l0,.06s0,0,0,.06l0,.06a.14.14,0,0,0,0,.06l0,.06,0,0,0,.06a230922153343.41,230922153343.41,0,0,0,.08.1l0,0,0,0,.05,0,0,0,0,0,.06,0,.06,0,0,0,.06,0,.06,0,.09,0h.7l.07,0,.06,0,.06,0,.06,0,0,0,.06,0,0,0,.06,0,0,0,0,0,0-.05,0,0a503830152749.12,503830152749.12,0,0,1,.12-.15l0-.06,0-.06a.14.14,0,0,0,0-.06l0-.06,0-.08v0h0s0,0,0-.06,0,0,0-.06,0,0,0-.07,0,0,0-.06v-.17s0,0,0-.07,0,0,0-.06,0-.05,0-.07,0,0,0-.06a.14.14,0,0,0,0-.06.14.14,0,0,0,0-.06l0-.06,0-.06,0-.06,0,0,0-.06,0-.05,0,0,0-.05,0,0,0-.05,0,0a.1.1,0,0,1,0,0l-.06,0,0,0-.06,0-.06,0-.06,0-.08,0h-.09l-.06,0h-.22Zm0,0"/><path class="cls-7" d="M114.13,138.17h-.22l-.06,0h-.06l-.06,0-.06,0-.06,0-.06,0-.06,0-.06,0-.05,0a184737722674.58,184737722674.58,0,0,0-.1.08l0,0,0,.05,0,0,0,.05,0,0,0,.05,0,.06,0,.06,0,0,0,.06a.29.29,0,0,0,0,.09v0h0a.11.11,0,0,0,0,.05.64.64,0,0,1,0,.07s0,0,0,.06a.17.17,0,0,1,0,.07v.17a.17.17,0,0,1,0,.07s0,0,0,.06a.15.15,0,0,1,0,.07s0,0,0,.06l0,.06s0,0,0,.06l0,.06a.14.14,0,0,0,0,.06l0,.06,0,0,0,.06a230922153343.41,230922153343.41,0,0,0,.08.1l0,0,0,0,.05,0,0,0,0,0,.06,0,.06,0,0,0,.06,0,.06,0,.09,0h.7l.07,0,.06,0,.06,0,.06,0,0,0,.06,0,0,0,.06,0,0,0,0,0,0-.05,0,0a503830152749.12,503830152749.12,0,0,1,.12-.15l0-.06,0-.06a.14.14,0,0,0,0-.06l0-.06,0-.08v0h0s0,0,0-.06,0,0,0-.06,0,0,0-.07,0,0,0-.06v-.17s0,0,0-.07,0,0,0-.06,0-.05,0-.07,0,0,0-.06a.14.14,0,0,0,0-.06.14.14,0,0,0,0-.06l0-.06,0-.06,0-.06,0,0,0-.06,0-.05,0,0,0-.05,0,0,0-.05,0,0a.1.1,0,0,1,0,0l-.06,0,0,0-.06,0-.06,0-.06,0-.08,0h-.09l-.06,0h-.22Zm0,0"/><path class="cls-7" d="M114.13,138.17h-.22l-.06,0h-.06l-.06,0-.06,0-.06,0-.06,0-.06,0-.06,0-.05,0a184737722674.58,184737722674.58,0,0,0-.1.08l0,0,0,.05,0,0,0,.05,0,0,0,.05,0,.06,0,.06,0,0,0,.06a.29.29,0,0,0,0,.09v0h0a.11.11,0,0,0,0,.05.64.64,0,0,1,0,.07s0,0,0,.06a.17.17,0,0,1,0,.07v.17a.17.17,0,0,1,0,.07s0,0,0,.06a.15.15,0,0,1,0,.07s0,0,0,.06l0,.06s0,0,0,.06l0,.06a.14.14,0,0,0,0,.06l0,.06,0,0,0,.06a230922153343.41,230922153343.41,0,0,0,.08.1l0,0,0,0,.05,0,0,0,0,0,.06,0,.06,0,0,0,.06,0,.06,0,.09,0h.7l.07,0,.06,0,.06,0,.06,0,0,0,.06,0,0,0,.06,0,0,0,0,0,0-.05,0,0a503830152749.12,503830152749.12,0,0,1,.12-.15l0-.06,0-.06a.14.14,0,0,0,0-.06l0-.06,0-.08v0h0s0,0,0-.06,0,0,0-.06,0,0,0-.07,0,0,0-.06v-.17s0,0,0-.07,0,0,0-.06,0-.05,0-.07,0,0,0-.06a.14.14,0,0,0,0-.06.14.14,0,0,0,0-.06l0-.06,0-.06,0-.06,0,0,0-.06,0-.05,0,0,0-.05,0,0,0-.05,0,0a.1.1,0,0,1,0,0l-.06,0,0,0-.06,0-.06,0-.06,0-.08,0h-.09l-.06,0h-.22Zm0,0"/><path class="cls-7" d="M114.13,138.17h-.22l-.06,0h-.06l-.06,0-.06,0-.06,0-.06,0-.06,0-.06,0-.05,0a184737722674.58,184737722674.58,0,0,0-.1.08l0,0,0,.05,0,0,0,.05,0,0,0,.05,0,.06,0,.06,0,0,0,.06a.29.29,0,0,0,0,.09v0h0a.11.11,0,0,0,0,.05.64.64,0,0,1,0,.07s0,0,0,.06a.17.17,0,0,1,0,.07v.17a.17.17,0,0,1,0,.07s0,0,0,.06a.15.15,0,0,1,0,.07s0,0,0,.06l0,.06s0,0,0,.06l0,.06a.14.14,0,0,0,0,.06l0,.06,0,0,0,.06a230922153343.41,230922153343.41,0,0,0,.08.1l0,0,0,0,.05,0,0,0,0,0,.06,0,.06,0,0,0,.06,0,.06,0,.09,0h.7l.07,0,.06,0,.06,0,.06,0,0,0,.06,0,0,0,.06,0,0,0,0,0,0-.05,0,0a503830152749.12,503830152749.12,0,0,1,.12-.15l0-.06,0-.06a.14.14,0,0,0,0-.06l0-.06,0-.08v0h0s0,0,0-.06,0,0,0-.06,0,0,0-.07,0,0,0-.06v-.17s0,0,0-.07,0,0,0-.06,0-.05,0-.07,0,0,0-.06a.14.14,0,0,0,0-.06.14.14,0,0,0,0-.06l0-.06,0-.06,0-.06,0,0,0-.06,0-.05,0,0,0-.05,0,0,0-.05,0,0a.1.1,0,0,1,0,0l-.06,0,0,0-.06,0-.06,0-.06,0-.08,0h-.09l-.06,0h-.22Zm0,0"/><path class="cls-7" d="M114.13,138.17h-.22l-.06,0h-.06l-.06,0-.06,0-.06,0-.06,0-.06,0-.06,0-.05,0a184737722674.58,184737722674.58,0,0,0-.1.08l0,0,0,.05,0,0,0,.05,0,0,0,.05,0,.06,0,.06,0,0,0,.06a.29.29,0,0,0,0,.09v0h0a.11.11,0,0,0,0,.05.64.64,0,0,1,0,.07s0,0,0,.06a.17.17,0,0,1,0,.07v.17a.17.17,0,0,1,0,.07s0,0,0,.06a.15.15,0,0,1,0,.07s0,0,0,.06l0,.06s0,0,0,.06l0,.06a.14.14,0,0,0,0,.06l0,.06,0,0,0,.06a230922153343.41,230922153343.41,0,0,0,.08.1l0,0,0,0,.05,0,0,0,0,0,.06,0,.06,0,0,0,.06,0,.06,0,.09,0h.7l.07,0,.06,0,.06,0,.06,0,0,0,.06,0,0,0,.06,0,0,0,0,0,0-.05,0,0a503830152749.12,503830152749.12,0,0,1,.12-.15l0-.06,0-.06a.14.14,0,0,0,0-.06l0-.06,0-.08v0h0s0,0,0-.06,0,0,0-.06,0,0,0-.07,0,0,0-.06v-.17s0,0,0-.07,0,0,0-.06,0-.05,0-.07,0,0,0-.06a.14.14,0,0,0,0-.06.14.14,0,0,0,0-.06l0-.06,0-.06,0-.06,0,0,0-.06,0-.05,0,0,0-.05,0,0,0-.05,0,0a.1.1,0,0,1,0,0l-.06,0,0,0-.06,0-.06,0-.06,0-.08,0h-.09l-.06,0h-.22Zm0,0"/><path class="cls-7" d="M114.13,138.17h-.22l-.06,0h-.06l-.06,0-.06,0-.06,0-.06,0-.06,0-.06,0-.05,0a184737722674.58,184737722674.58,0,0,0-.1.08l0,0,0,.05,0,0,0,.05,0,0,0,.05,0,.06,0,.06,0,0,0,.06a.29.29,0,0,0,0,.09v0h0a.11.11,0,0,0,0,.05.64.64,0,0,1,0,.07s0,0,0,.06a.17.17,0,0,1,0,.07v.17a.17.17,0,0,1,0,.07s0,0,0,.06a.15.15,0,0,1,0,.07s0,0,0,.06l0,.06s0,0,0,.06l0,.06a.14.14,0,0,0,0,.06l0,.06,0,0,0,.06a230922153343.41,230922153343.41,0,0,0,.08.1l0,0,0,0,.05,0,0,0,0,0,.06,0,.06,0,0,0,.06,0,.06,0,.09,0h.7l.07,0,.06,0,.06,0,.06,0,0,0,.06,0,0,0,.06,0,0,0,0,0,0-.05,0,0a503830152749.12,503830152749.12,0,0,1,.12-.15l0-.06,0-.06a.14.14,0,0,0,0-.06l0-.06,0-.08v0h0s0,0,0-.06,0,0,0-.06,0,0,0-.07,0,0,0-.06v-.17s0,0,0-.07,0,0,0-.06,0-.05,0-.07,0,0,0-.06a.14.14,0,0,0,0-.06.14.14,0,0,0,0-.06l0-.06,0-.06,0-.06,0,0,0-.06,0-.05,0,0,0-.05,0,0,0-.05,0,0a.1.1,0,0,1,0,0l-.06,0,0,0-.06,0-.06,0-.06,0-.08,0h-.09l-.06,0h-.22Zm0,0"/><path class="cls-7" d="M114.13,138.17h-.22l-.06,0h-.06l-.06,0-.06,0-.06,0-.06,0-.06,0-.06,0-.05,0a184737722674.58,184737722674.58,0,0,0-.1.08l0,0,0,.05,0,0,0,.05,0,0,0,.05,0,.06,0,.06,0,0,0,.06a.29.29,0,0,0,0,.09v0h0a.11.11,0,0,0,0,.05.64.64,0,0,1,0,.07s0,0,0,.06a.17.17,0,0,1,0,.07v.17a.17.17,0,0,1,0,.07s0,0,0,.06a.15.15,0,0,1,0,.07s0,0,0,.06l0,.06s0,0,0,.06l0,.06a.14.14,0,0,0,0,.06l0,.06,0,0,0,.06a230922153343.41,230922153343.41,0,0,0,.08.1l0,0,0,0,.05,0,0,0,0,0,.06,0,.06,0,0,0,.06,0,.06,0,.09,0h.7l.07,0,.06,0,.06,0,.06,0,0,0,.06,0,0,0,.06,0,0,0,0,0,0-.05,0,0a503830152749.12,503830152749.12,0,0,1,.12-.15l0-.06,0-.06a.14.14,0,0,0,0-.06l0-.06,0-.08v0h0s0,0,0-.06,0,0,0-.06,0,0,0-.07,0,0,0-.06v-.17s0,0,0-.07,0,0,0-.06,0-.05,0-.07,0,0,0-.06a.14.14,0,0,0,0-.06.14.14,0,0,0,0-.06l0-.06,0-.06,0-.06,0,0,0-.06,0-.05,0,0,0-.05,0,0,0-.05,0,0a.1.1,0,0,1,0,0l-.06,0,0,0-.06,0-.06,0-.06,0-.08,0h-.09l-.06,0h-.22Zm0,0"/><path class="cls-7" d="M114.13,138.17h-.22l-.06,0h-.06l-.06,0-.06,0-.06,0-.06,0-.06,0-.06,0-.05,0a184737722674.58,184737722674.58,0,0,0-.1.08l0,0,0,.05,0,0,0,.05,0,0,0,.05,0,.06,0,.06,0,0,0,.06a.29.29,0,0,0,0,.09v0h0a.11.11,0,0,0,0,.05.64.64,0,0,1,0,.07s0,0,0,.06a.17.17,0,0,1,0,.07v.17a.17.17,0,0,1,0,.07s0,0,0,.06a.15.15,0,0,1,0,.07s0,0,0,.06l0,.06s0,0,0,.06l0,.06a.14.14,0,0,0,0,.06l0,.06,0,0,0,.06a230922153343.41,230922153343.41,0,0,0,.08.1l0,0,0,0,.05,0,0,0,0,0,.06,0,.06,0,0,0,.06,0,.06,0,.09,0h.7l.07,0,.06,0,.06,0,.06,0,0,0,.06,0,0,0,.06,0,0,0,0,0,0-.05,0,0a503830152749.12,503830152749.12,0,0,1,.12-.15l0-.06,0-.06a.14.14,0,0,0,0-.06l0-.06,0-.08v0h0s0,0,0-.06,0,0,0-.06,0,0,0-.07,0,0,0-.06v-.17s0,0,0-.07,0,0,0-.06,0-.05,0-.07,0,0,0-.06a.14.14,0,0,0,0-.06.14.14,0,0,0,0-.06l0-.06,0-.06,0-.06,0,0,0-.06,0-.05,0,0,0-.05,0,0,0-.05,0,0a.1.1,0,0,1,0,0l-.06,0,0,0-.06,0-.06,0-.06,0-.08,0h-.09l-.06,0h-.22Zm0,0"/><path class="cls-7" d="M114.13,138.17h-.34l-.06,0-.06,0-.06,0-.06,0-.06,0-.06,0-.05,0a184737722674.58,184737722674.58,0,0,0-.1.08l0,0,0,.05,0,0,0,.05,0,0,0,.05,0,.06,0,.06a.14.14,0,0,1,0,.06l0,.06a.19.19,0,0,0,0,.08v0h0a.13.13,0,0,0,0,.06l0,.06s0,0,0,.06a.15.15,0,0,1,0,.07v.17a.2.2,0,0,1,0,.07s0,0,0,.06a.17.17,0,0,1,0,.07s0,0,0,.06l0,.06s0,0,0,.06l0,.06a.14.14,0,0,0,0,.06l0,.06,0,0,0,.06a.1.1,0,0,1,0,.05l0,0,0,.05,0,0,.05,0,0,0,0,0,.06,0,.06,0,0,0,.06,0,.06,0,.09,0h.7l.07,0,.06,0,.06,0,.06,0,0,0,.06,0,0,0,.06,0,0,0,0,0,0-.05,0,0a503830152749.12,503830152749.12,0,0,1,.12-.15l0-.06,0-.06a.14.14,0,0,0,0-.06l0-.06,0-.08v0h0s0,0,0-.06,0,0,0-.06,0,0,0-.07,0,0,0-.06v-.17s0,0,0-.07,0,0,0-.06,0-.05,0-.07,0,0,0-.06a.14.14,0,0,0,0-.06.14.14,0,0,0,0-.06l0-.06,0-.06,0-.06,0,0,0-.06,0-.05,0,0,0-.05,0,0,0-.05,0,0a.1.1,0,0,1,0,0l-.06,0,0,0-.06,0-.06,0-.06,0-.08,0h-.09l-.06,0h-.22Zm0,0"/><path class="cls-7" d="M114.13,138.17h-.22l-.06,0h-.06l-.06,0-.06,0-.06,0-.06,0-.06,0-.06,0-.05,0a184737722674.58,184737722674.58,0,0,0-.1.08l0,0,0,.05,0,0,0,.05,0,0,0,.05,0,.06,0,.06,0,0,0,.06a.29.29,0,0,0,0,.09v0h0a.11.11,0,0,0,0,.05.64.64,0,0,1,0,.07s0,0,0,.06a.17.17,0,0,1,0,.07v.17a.17.17,0,0,1,0,.07s0,0,0,.06a.15.15,0,0,1,0,.07s0,0,0,.06l0,.06s0,0,0,.06l0,.06a.14.14,0,0,0,0,.06l0,.06,0,0,0,.06a230922153343.41,230922153343.41,0,0,0,.08.1l0,0,0,0,.05,0,0,0,0,0,.06,0,.06,0,0,0,.06,0,.06,0,.09,0h.7l.07,0,.06,0,.06,0,.06,0,0,0,.06,0,0,0,.06,0,0,0,0,0,0-.05,0,0a503830152749.12,503830152749.12,0,0,1,.12-.15l0-.06,0-.06a.14.14,0,0,0,0-.06l0-.06,0-.08v0h0s0,0,0-.06,0,0,0-.06,0,0,0-.07,0,0,0-.06v-.17s0,0,0-.07,0,0,0-.06,0-.05,0-.07,0,0,0-.06a.14.14,0,0,0,0-.06.14.14,0,0,0,0-.06l0-.06,0-.06,0-.06,0,0,0-.06,0-.05,0,0,0-.05,0,0,0-.05,0,0a.1.1,0,0,1,0,0l-.06,0,0,0-.06,0-.06,0-.06,0-.08,0h-.09l-.06,0h-.22Zm0,0"/><path class="cls-7" d="M114.13,138.17h-.22l-.06,0h-.06l-.06,0-.06,0-.06,0-.06,0-.06,0-.06,0-.05,0a184737722674.58,184737722674.58,0,0,0-.1.08l0,0,0,.05,0,0,0,.05,0,0,0,.05,0,.06,0,.06,0,0,0,.06a.29.29,0,0,0,0,.09v0h0a.11.11,0,0,0,0,.05.64.64,0,0,1,0,.07s0,0,0,.06a.17.17,0,0,1,0,.07v.17a.17.17,0,0,1,0,.07s0,0,0,.06a.15.15,0,0,1,0,.07s0,0,0,.06l0,.06s0,0,0,.06l0,.06a.14.14,0,0,0,0,.06l0,.06,0,0,0,.06a230922153343.41,230922153343.41,0,0,0,.08.1l0,0,0,0,.05,0,0,0,0,0,.06,0,.06,0,0,0,.06,0,.06,0,.09,0h.7l.07,0,.06,0,.06,0,.06,0,0,0,.06,0,0,0,.06,0,0,0,0,0,0-.05,0,0a503830152749.12,503830152749.12,0,0,1,.12-.15l0-.06,0-.06a.14.14,0,0,0,0-.06l0-.06,0-.08v0h0s0,0,0-.06,0,0,0-.06,0,0,0-.07,0,0,0-.06v-.17s0,0,0-.07,0,0,0-.06,0-.05,0-.07,0,0,0-.06a.14.14,0,0,0,0-.06.14.14,0,0,0,0-.06l0-.06,0-.06,0-.06,0,0,0-.06,0-.05,0,0,0-.05,0,0,0-.05,0,0a.1.1,0,0,1,0,0l-.06,0,0,0-.06,0-.06,0-.06,0-.08,0h-.09l-.06,0h-.22Zm0,0"/><path class="cls-7" d="M114.13,138.17h-.22l-.06,0h-.06l-.06,0-.06,0-.06,0-.06,0-.06,0-.06,0-.05,0a184737722674.58,184737722674.58,0,0,0-.1.08l0,0,0,.05,0,0,0,.05,0,0,0,.05,0,.06,0,.06,0,0,0,.06a.29.29,0,0,0,0,.09v0h0a.11.11,0,0,0,0,.05.64.64,0,0,1,0,.07s0,0,0,.06a.17.17,0,0,1,0,.07v.17a.17.17,0,0,1,0,.07s0,0,0,.06a.15.15,0,0,1,0,.07s0,0,0,.06l0,.06s0,0,0,.06l0,.06a.14.14,0,0,0,0,.06l0,.06,0,0,0,.06a230922153343.41,230922153343.41,0,0,0,.08.1l0,0,0,0,.05,0,0,0,0,0,.06,0,.06,0,0,0,.06,0,.06,0,.09,0h.7l.07,0,.06,0,.06,0,.06,0,0,0,.06,0,0,0,.06,0,0,0,0,0,0-.05,0,0a503830152749.12,503830152749.12,0,0,1,.12-.15l0-.06,0-.06a.14.14,0,0,0,0-.06l0-.06,0-.08v0h0s0,0,0-.06,0,0,0-.06,0,0,0-.07,0,0,0-.06v-.17s0,0,0-.07,0,0,0-.06,0-.05,0-.07,0,0,0-.06a.14.14,0,0,0,0-.06.14.14,0,0,0,0-.06l0-.06,0-.06,0-.06,0,0,0-.06,0-.05,0,0,0-.05,0,0,0-.05,0,0a.1.1,0,0,1,0,0l-.06,0,0,0-.06,0-.06,0-.06,0-.08,0h-.09l-.06,0h-.22Zm0,0"/><path class="cls-7" d="M114.13,138.17h-.22l-.06,0h-.06l-.06,0-.06,0-.06,0-.06,0-.06,0-.06,0-.05,0a184737722674.58,184737722674.58,0,0,0-.1.08l0,0,0,.05,0,0,0,.05,0,0,0,.05,0,.06,0,.06,0,0,0,.06a.29.29,0,0,0,0,.09v0h0a.11.11,0,0,0,0,.05.64.64,0,0,1,0,.07s0,0,0,.06a.17.17,0,0,1,0,.07v.17a.17.17,0,0,1,0,.07s0,0,0,.06a.15.15,0,0,1,0,.07s0,0,0,.06l0,.06s0,0,0,.06l0,.06a.14.14,0,0,0,0,.06l0,.06,0,0,0,.06a230922153343.41,230922153343.41,0,0,0,.08.1l0,0,0,0,.05,0,0,0,0,0,.06,0,.06,0,0,0,.06,0,.06,0,.09,0h.7l.07,0,.06,0,.06,0,.06,0,0,0,.06,0,0,0,.06,0,0,0,0,0,0-.05,0,0a503830152749.12,503830152749.12,0,0,1,.12-.15l0-.06,0-.06a.14.14,0,0,0,0-.06l0-.06,0-.08v0h0s0,0,0-.06,0,0,0-.06,0,0,0-.07,0,0,0-.06v-.17s0,0,0-.07,0,0,0-.06,0-.05,0-.07,0,0,0-.06a.14.14,0,0,0,0-.06.14.14,0,0,0,0-.06l0-.06,0-.06,0-.06,0,0,0-.06,0-.05,0,0,0-.05,0,0,0-.05,0,0a.1.1,0,0,1,0,0l-.06,0,0,0-.06,0-.06,0-.06,0-.08,0h-.09l-.06,0h-.22Zm0,0"/><path class="cls-7" d="M114.13,138.17h-.22l-.06,0h-.06l-.06,0-.06,0-.06,0-.06,0-.06,0-.06,0-.05,0a184737722674.58,184737722674.58,0,0,0-.1.08l0,0,0,.05,0,0,0,.05,0,0,0,.05,0,.06,0,.06,0,0,0,.06a.29.29,0,0,0,0,.09v0h0a.11.11,0,0,0,0,.05.64.64,0,0,1,0,.07s0,0,0,.06a.17.17,0,0,1,0,.07v.17a.17.17,0,0,1,0,.07s0,0,0,.06a.15.15,0,0,1,0,.07s0,0,0,.06l0,.06s0,0,0,.06l0,.06a.14.14,0,0,0,0,.06l0,.06,0,0,0,.06a230922153343.41,230922153343.41,0,0,0,.08.1l0,0,0,0,.05,0,0,0,0,0,.06,0,.06,0,0,0,.06,0,.06,0,.09,0h.7l.07,0,.06,0,.06,0,.06,0,0,0,.06,0,0,0,.06,0,0,0,0,0,0-.05,0,0a503830152749.12,503830152749.12,0,0,1,.12-.15l0-.06,0-.06a.14.14,0,0,0,0-.06l0-.06,0-.08v0h0s0,0,0-.06,0,0,0-.06,0,0,0-.07,0,0,0-.06v-.17s0,0,0-.07,0,0,0-.06,0-.05,0-.07,0,0,0-.06a.14.14,0,0,0,0-.06.14.14,0,0,0,0-.06l0-.06,0-.06,0-.06,0,0,0-.06,0-.05,0,0,0-.05,0,0,0-.05,0,0a.1.1,0,0,1,0,0l-.06,0,0,0-.06,0-.06,0-.06,0-.08,0h-.09l-.06,0h-.22Zm0,0"/><path class="cls-7" d="M114.13,138.17h-.22l-.06,0h-.06l-.06,0-.06,0-.06,0-.06,0-.06,0-.06,0-.05,0a184737722674.58,184737722674.58,0,0,0-.1.08l0,0,0,.05,0,0,0,.05,0,0,0,.05,0,.06,0,.06,0,0,0,.06a.29.29,0,0,0,0,.09v0h0a.11.11,0,0,0,0,.05.64.64,0,0,1,0,.07s0,0,0,.06a.17.17,0,0,1,0,.07v.17a.17.17,0,0,1,0,.07s0,0,0,.06a.15.15,0,0,1,0,.07s0,0,0,.06l0,.06s0,0,0,.06l0,.06a.14.14,0,0,0,0,.06l0,.06,0,0,0,.06a230922153343.41,230922153343.41,0,0,0,.08.1l0,0,0,0,.05,0,0,0,0,0,.06,0,.06,0,0,0,.06,0,.06,0,.09,0h.7l.07,0,.06,0,.06,0,.06,0,0,0,.06,0,0,0,.06,0,0,0,0,0,0-.05,0,0a503830152749.12,503830152749.12,0,0,1,.12-.15l0-.06,0-.06a.14.14,0,0,0,0-.06l0-.06,0-.08v0h0s0,0,0-.06,0,0,0-.06,0,0,0-.07,0,0,0-.06v-.17s0,0,0-.07,0,0,0-.06,0-.05,0-.07,0,0,0-.06a.14.14,0,0,0,0-.06.14.14,0,0,0,0-.06l0-.06,0-.06,0-.06,0,0,0-.06,0-.05,0,0,0-.05,0,0,0-.05,0,0a.1.1,0,0,1,0,0l-.06,0,0,0-.06,0-.06,0-.06,0-.08,0h-.09l-.06,0h-.22Zm0,0"/><path class="cls-7" d="M114.13,138.17h-.22l-.06,0h-.06l-.06,0-.06,0-.06,0-.06,0-.06,0-.06,0-.05,0a184737722674.58,184737722674.58,0,0,0-.1.08l0,0,0,.05,0,0,0,.05,0,0,0,.05,0,.06,0,.06,0,0,0,.06a.29.29,0,0,0,0,.09v0h0a.11.11,0,0,0,0,.05.64.64,0,0,1,0,.07s0,0,0,.06a.17.17,0,0,1,0,.07v.17a.17.17,0,0,1,0,.07s0,0,0,.06a.15.15,0,0,1,0,.07s0,0,0,.06l0,.06s0,0,0,.06l0,.06a.14.14,0,0,0,0,.06l0,.06,0,0,0,.06a230922153343.41,230922153343.41,0,0,0,.08.1l0,0,0,0,.05,0,0,0,0,0,.06,0,.06,0,0,0,.06,0,.06,0,.09,0h.7l.07,0,.06,0,.06,0,.06,0,0,0,.06,0,0,0,.06,0,0,0,0,0,0-.05,0,0a503830152749.12,503830152749.12,0,0,1,.12-.15l0-.06,0-.06a.14.14,0,0,0,0-.06l0-.06,0-.08v0h0s0,0,0-.06,0,0,0-.06,0,0,0-.07,0,0,0-.06v-.17s0,0,0-.07,0,0,0-.06,0-.05,0-.07,0,0,0-.06a.14.14,0,0,0,0-.06.14.14,0,0,0,0-.06l0-.06,0-.06,0-.06,0,0,0-.06,0-.05,0,0,0-.05,0,0,0-.05,0,0a.1.1,0,0,1,0,0l-.06,0,0,0-.06,0-.06,0-.06,0-.08,0h-.09l-.06,0h-.22Zm0,0"/><path class="cls-7" d="M114.13,138.17h-.22l-.06,0h-.06l-.06,0-.06,0-.06,0-.06,0-.06,0-.06,0-.05,0a184737722674.58,184737722674.58,0,0,0-.1.08l0,0,0,.05,0,0,0,.05,0,0,0,.05,0,.06,0,.06,0,0,0,.06a.29.29,0,0,0,0,.09v0h0a.11.11,0,0,0,0,.05.64.64,0,0,1,0,.07s0,0,0,.06a.17.17,0,0,1,0,.07v.17a.17.17,0,0,1,0,.07s0,0,0,.06a.15.15,0,0,1,0,.07s0,0,0,.06l0,.06s0,0,0,.06l0,.06a.14.14,0,0,0,0,.06l0,.06,0,0,0,.06a230922153343.41,230922153343.41,0,0,0,.08.1l0,0,0,0,.05,0,0,0,0,0,.06,0,.06,0,0,0,.06,0,.06,0,.09,0h.7l.07,0,.06,0,.06,0,.06,0,0,0,.06,0,0,0,.06,0,0,0,0,0,0-.05,0,0a503830152749.12,503830152749.12,0,0,1,.12-.15l0-.06,0-.06a.14.14,0,0,0,0-.06l0-.06,0-.08v0h0s0,0,0-.06,0,0,0-.06,0,0,0-.07,0,0,0-.06v-.17s0,0,0-.07,0,0,0-.06,0-.05,0-.07,0,0,0-.06a.14.14,0,0,0,0-.06.14.14,0,0,0,0-.06l0-.06,0-.06,0-.06,0,0,0-.06,0-.05,0,0,0-.05,0,0,0-.05,0,0a.1.1,0,0,1,0,0l-.06,0,0,0-.06,0-.06,0-.06,0-.08,0h-.09l-.06,0h-.22Zm0,0"/><path class="cls-7" d="M114.13,138.17h-.22l-.06,0h-.06l-.06,0-.06,0-.06,0-.06,0-.06,0-.06,0-.05,0a184737722674.58,184737722674.58,0,0,0-.1.08l0,0,0,.05,0,0,0,.05,0,0,0,.05,0,.06,0,.06,0,0,0,.06a.29.29,0,0,0,0,.09v0h0a.11.11,0,0,0,0,.05.64.64,0,0,1,0,.07s0,0,0,.06a.17.17,0,0,1,0,.07v.17a.17.17,0,0,1,0,.07s0,0,0,.06a.15.15,0,0,1,0,.07s0,0,0,.06l0,.06s0,0,0,.06l0,.06a.14.14,0,0,0,0,.06l0,.06,0,0,0,.06a230922153343.41,230922153343.41,0,0,0,.08.1l0,0,0,0,.05,0,0,0,0,0,.06,0,.06,0,0,0,.06,0,.06,0,.09,0h.7l.07,0,.06,0,.06,0,.06,0,0,0,.06,0,0,0,.06,0,0,0,0,0,0-.05,0,0a503830152749.12,503830152749.12,0,0,1,.12-.15l0-.06,0-.06a.14.14,0,0,0,0-.06l0-.06,0-.08v0h0s0,0,0-.06,0,0,0-.06,0,0,0-.07,0,0,0-.06v-.17s0,0,0-.07,0,0,0-.06,0-.05,0-.07,0,0,0-.06a.14.14,0,0,0,0-.06.14.14,0,0,0,0-.06l0-.06,0-.06,0-.06,0,0,0-.06,0-.05,0,0,0-.05,0,0,0-.05,0,0a.1.1,0,0,1,0,0l-.06,0,0,0-.06,0-.06,0-.06,0-.08,0h-.09l-.06,0h-.22Zm0,0"/><path class="cls-9" d="M155.89,145a2.71,2.71,0,0,0-2.71,2.71v3.06a15.71,15.71,0,0,0,31.42,0v-3.06a2.71,2.71,0,0,0-2.71-2.71Zm26,0"/><path class="cls-10" d="M168.89,155.73a15.65,15.65,0,0,0-11.83,5.38,15.71,15.71,0,0,0,23.67,0,15.67,15.67,0,0,0-11.84-5.38Zm0,0"/><path class="cls-8" d="M155.89,145a2.71,2.71,0,0,0-2.71,2.71v2.75a36.21,36.21,0,0,0,31.42,0v-2.74a2.71,2.71,0,0,0-2.71-2.71Zm26,0"/><path class="cls-11" d="M180.39,145v4.21c0,1.57-.21,2.57-1.28,3.3a37,37,0,0,0,5.49-2.06v-2.74a2.71,2.71,0,0,0-2.71-2.71Zm1.5,0"/><path class="cls-11" d="M155.89,145a2.71,2.71,0,0,0-2.71,2.71v2.75A36.66,36.66,0,0,0,164,153.66c-1.82-.49-2.36-2.32-2.36-4.44V145Zm5.72,0"/><path class="cls-12" d="M157.39,145v4.21c0,1.57.21,2.57,1.28,3.3a37,37,0,0,1-5.49-2.06v-2.74a2.71,2.71,0,0,1,2.71-2.71Zm-1.5,0"/><path class="cls-5" d="M155.89,144.15a3.59,3.59,0,0,0-3.57,3.57v3.06a16.57,16.57,0,1,0,33.14,0v-3.06a3.59,3.59,0,0,0-3.57-3.57Zm26,1.73a1.82,1.82,0,0,1,1.84,1.84v3.06a14.84,14.84,0,1,1-29.68,0v-3.06a1.82,1.82,0,0,1,1.84-1.84Zm0,0"/><path class="cls-5" d="M184.74,150a36.15,36.15,0,0,1-31.7,0l-.38.77a37,37,0,0,0,32.46,0l-.38-.77Zm0,0"/><path class="cls-13" d="M170.63,160c0-1,1.17-1.84,2.61-1.84s2.61.83,2.61,1.84-1.17,1.84-2.61,1.84-2.61-.82-2.61-1.84Zm0,0"/><path class="cls-5" d="M187.27,117.71a8.89,8.89,0,0,1,8.91,8.91v4.46a8.91,8.91,0,0,1-17.82,0v-4.46a8.89,8.89,0,0,1,8.91-8.91Zm0,0"/><path class="cls-8" d="M182.08,124.09A2.88,2.88,0,1,1,185,127a2.88,2.88,0,0,1-2.88-2.88Zm0,0"/><path class="cls-5" d="M150.51,140a8.89,8.89,0,0,1-8.91-8.91v-7.36h17.82v7.36a8.89,8.89,0,0,1-8.91,8.91Zm0,0"/><path class="cls-8" d="M144,128.73a2.88,2.88,0,1,1,2.88,2.88,2.88,2.88,0,0,1-2.88-2.88Zm0,0"/><path class="cls-5" d="M169,40.26h-.1a22.05,22.05,0,0,0-17.77,9,19.57,19.57,0,0,0-22,19.43,20.25,20.25,0,0,0,.3,3.39,19.58,19.58,0,0,0,18.62,34.05,27.7,27.7,0,0,0,41.68,0,19.58,19.58,0,0,0,18.62-34,19.26,19.26,0,0,0,.31-3.39,19.64,19.64,0,0,0-19.59-19.58,19.21,19.21,0,0,0-2.4.15,22.11,22.11,0,0,0-17.68-9Zm0,6.92a15.16,15.16,0,0,1,13.08,7.63l1.31,2.28,2.56-.65a12.45,12.45,0,0,1,3.16-.41A12.62,12.62,0,0,1,201.75,68.7h0a12.64,12.64,0,0,1-.62,3.91l-.89,2.74,2.53,1.37a12.67,12.67,0,1,1-12.32,22.13l-2.73-1.57-1.81,2.58a20.83,20.83,0,0,1-34,0l-1.81-2.58-2.74,1.57A12.66,12.66,0,1,1,135,76.72l2.53-1.37-.89-2.74a12.64,12.64,0,0,1-.62-3.91h0a12.64,12.64,0,0,1,15.83-12.26l2.55.65,1.32-2.28a15.14,15.14,0,0,1,13.15-7.63H169Zm0,0"/><path class="cls-14" d="M144.62,87.86a24.27,24.27,0,1,1,24.27,24.27,24.28,24.28,0,0,1-24.27-24.27Zm0,0"/><path class="cls-14" d="M124.91,87.86A16.13,16.13,0,1,1,141,104a16.13,16.13,0,0,1-16.13-16.13Zm0,0"/><path class="cls-14" d="M180.62,87.86A16.13,16.13,0,1,1,196.75,104a16.13,16.13,0,0,1-16.13-16.13Zm0,0"/><path class="cls-15" d="M132.59,68.7a16.12,16.12,0,1,1,16.12,16.12A16.12,16.12,0,0,1,132.59,68.7Zm0,0"/><path class="cls-15" d="M173,68.7a16.13,16.13,0,1,1,16.12,16.12A16.13,16.13,0,0,1,173,68.7Zm0,0"/><path class="cls-15" d="M150.27,62.34A18.62,18.62,0,1,1,168.89,81a18.62,18.62,0,0,1-18.62-18.62Zm0,0"/><path class="cls-15" d="M183.27,83.5a13.35,13.35,0,1,1,13.34,13.35A13.35,13.35,0,0,1,183.27,83.5Zm0,0"/><path class="cls-15" d="M127.82,83.5a13.35,13.35,0,1,1,13.35,13.35A13.35,13.35,0,0,1,127.82,83.5Zm0,0"/><path class="cls-15" d="M150.87,85.84a18,18,0,1,1,18,18,18,18,0,0,1-18-18Zm0,0"/><path class="cls-5" d="M169,42.86h-.09a19.45,19.45,0,0,0-16.56,9.25A16.95,16.95,0,0,0,131.72,68.7a17.27,17.27,0,0,0,.64,4.57A17,17,0,0,0,148.81,103,25.1,25.1,0,0,0,189,103a17,17,0,0,0,16.45-29.69,16.94,16.94,0,0,0-20-21.16A19.47,19.47,0,0,0,169,42.86Zm0,1.73a17.75,17.75,0,0,1,15.32,8.93l.32.57.64-.17a15.27,15.27,0,0,1,18.33,19.49l-.23.69.64.34a15.26,15.26,0,1,1-14.84,26.66l-.69-.39-.45.64a23.4,23.4,0,0,1-38.25,0l-.46-.64-.68.39a15.26,15.26,0,1,1-14.84-26.66l.63-.34-.22-.69a15.07,15.07,0,0,1-.75-4.71,15.27,15.27,0,0,1,19.07-14.78l.64.17.33-.57a17.73,17.73,0,0,1,15.4-8.93H169Zm0,0"/><path class="cls-16" d="M161.66,82.55a9.27,9.27,0,1,1,9.26,9.27,9.27,9.27,0,0,1-9.26-9.27Zm0,0"/><path class="cls-16" d="M138,81.92A6.08,6.08,0,1,1,144.09,88,6.08,6.08,0,0,1,138,81.92Zm0,0"/><path class="cls-16" d="M191.68,81.92A6.08,6.08,0,1,1,197.76,88a6.08,6.08,0,0,1-6.08-6.07Zm0,0"/><path class="cls-16" d="M145.89,62.36a2.76,2.76,0,1,1,2.76,2.76,2.77,2.77,0,0,1-2.76-2.76Zm0,0"/><path class="cls-16" d="M190.44,62.36a2.76,2.76,0,1,1,2.76,2.76,2.76,2.76,0,0,1-2.76-2.76Zm0,0"/><path class="cls-17" d="M17.74,187.89c0,10.73-3.58,26-8,26s-8-15.26-8-26S6.48,175,9.75,175s8,2.14,8,12.87Zm0,0"/><path class="cls-5" d="M9.75,172.79A9.06,9.06,0,0,0,2.82,176c-2,2.42-3.3,6.21-3.3,11.9A68.89,68.89,0,0,0,2,205.51a28.92,28.92,0,0,0,2.77,7c1.13,1.88,2.64,3.64,5,3.64s3.9-1.76,5-3.64a28.91,28.91,0,0,0,2.78-7A69.39,69.39,0,0,0,20,187.89c0-5.69-1.25-9.48-3.3-11.9a9.05,9.05,0,0,0-6.92-3.2Zm0,4.46a4.31,4.31,0,0,1,3.52,1.62c1.13,1.34,2.24,4,2.24,9a65.94,65.94,0,0,1-2.26,16.42,25.89,25.89,0,0,1-2.31,5.87,4.61,4.61,0,0,1-1.19,1.42,4.42,4.42,0,0,1-1.2-1.42,25.89,25.89,0,0,1-2.31-5.87A65.94,65.94,0,0,1,4,187.89c0-5,1.12-7.68,2.25-9a4.3,4.3,0,0,1,3.52-1.62Zm0,0"/><path class="cls-17" d="M58.15,187.89c0,10.73-3.58,26-8,26s-8-15.26-8-26,4.72-12.87,8-12.87,8,2.14,8,12.87Zm0,0"/><path class="cls-5" d="M50.16,172.79a9.07,9.07,0,0,0-6.93,3.2c-2,2.42-3.3,6.21-3.3,11.9a69.34,69.34,0,0,0,2.43,17.62,29.34,29.34,0,0,0,2.77,7c1.13,1.88,2.64,3.64,5,3.64s3.9-1.76,5-3.64a28.91,28.91,0,0,0,2.78-7,69.39,69.39,0,0,0,2.42-17.62c0-5.69-1.25-9.48-3.3-11.9a9.05,9.05,0,0,0-6.92-3.2Zm0,4.46a4.31,4.31,0,0,1,3.52,1.62c1.13,1.34,2.24,4,2.24,9a65.94,65.94,0,0,1-2.26,16.42,26.41,26.41,0,0,1-2.3,5.87,4.42,4.42,0,0,1-1.2,1.42,4.42,4.42,0,0,1-1.2-1.42,25.89,25.89,0,0,1-2.31-5.87,65.92,65.92,0,0,1-2.25-16.42c0-5,1.11-7.68,2.24-9a4.3,4.3,0,0,1,3.52-1.62Zm0,0"/><path class="cls-17" d="M95.46,129.54c4.1,9.91,6.63,25.38,2.56,27.07s-13.23-11-17.33-21-.57-13.71,2.45-15,8.21-1.08,12.32,8.84Zm0,0"/><path class="cls-5" d="M82.29,118.64a9.06,9.06,0,0,0-5.17,5.61c-1,3-.67,7,1.51,12.26a68.82,68.82,0,0,0,9,15.35,29.46,29.46,0,0,0,5.22,5.37c1.76,1.31,3.83,2.35,6,1.44s2.93-3.12,3.25-5.29a29.15,29.15,0,0,0-.1-7.49,69.68,69.68,0,0,0-4.5-17.2c-2.18-5.26-4.79-8.29-7.61-9.74a9.07,9.07,0,0,0-7.62-.31ZM84,122.76a4.32,4.32,0,0,1,3.87.16c1.56.8,3.6,2.82,5.53,7.47a66.45,66.45,0,0,1,4.19,16,26.23,26.23,0,0,1,.12,6.31,4.46,4.46,0,0,1-.57,1.77,4.62,4.62,0,0,1-1.65-.85,25.74,25.74,0,0,1-4.37-4.55,65.66,65.66,0,0,1-8.37-14.3c-1.93-4.65-1.92-7.52-1.38-9.19A4.31,4.31,0,0,1,84,122.76Zm0,0"/><path class="cls-5" d="M30,72.21a62.6,62.6,0,1,0,62.6,62.6A62.66,62.66,0,0,0,30,72.21Zm0,7.14a55.46,55.46,0,1,1-55.46,55.46A55.41,55.41,0,0,1,30,79.35Zm0,0"/><path class="cls-8" d="M89,134.81A59,59,0,1,1,71.69,93.07,59,59,0,0,1,89,134.81Zm0,0"/><path class="cls-8" d="M81.48,131.73a54.61,54.61,0,1,1-16-38.61,54.6,54.6,0,0,1,16,38.61Zm0,0"/><path class="cls-17" d="M-29.08,134.81a59,59,0,0,0,118.06,0Zm0,0"/><path class="cls-17" d="M-27.62,134.81a54.56,54.56,0,0,0,109,0Zm0,0"/><path class="cls-5" d="M30,74.89a59.92,59.92,0,1,0,59.92,59.92A59.93,59.93,0,0,0,30,74.89Zm0,1.78a58.14,58.14,0,1,1-58.13,58.14A58.13,58.13,0,0,1,30,76.67Zm0,0"/><path class="cls-5" d="M11,113.42a9.17,9.17,0,0,1,9.2,9.19v4.61a9.2,9.2,0,0,1-18.39,0v-4.61A9.17,9.17,0,0,1,11,113.42Zm0,0"/><path class="cls-8" d="M16.34,120a3,3,0,0,1-.87,2.1,3,3,0,1,1,.87-2.1Zm0,0"/><path class="cls-5" d="M48.92,113.42a9.17,9.17,0,0,1,9.19,9.19v4.61a9.19,9.19,0,1,1-18.38,0v-4.61a9.17,9.17,0,0,1,9.19-9.19Zm0,0"/><path class="cls-8" d="M54.27,120a3,3,0,1,1-3-3,3,3,0,0,1,3,3Zm0,0"/><path class="cls-9" d="M20.16,139.13a2,2,0,0,0-2,2v2.3a11.83,11.83,0,0,0,23.66,0v-2.3a2,2,0,0,0-2-2Zm0,0"/><path class="cls-10" d="M30,147.2A11.81,11.81,0,0,0,21,151.25a11.84,11.84,0,0,0,17.83,0A11.82,11.82,0,0,0,30,147.2Zm0,0"/><path class="cls-8" d="M20.16,139.13a2,2,0,0,0-2,2v2.06a27.27,27.27,0,0,0,23.66,0v-2.06a2,2,0,0,0-2-2Zm0,0"/><path class="cls-11" d="M20.16,139.13a2,2,0,0,0-2,2v2.06a29,29,0,0,0,4.14,1.55c-.81-.55-1-1.3-1-2.49v-3.16Zm0,0"/><path class="cls-11" d="M35.44,139.13v3.16c0,1.6-.41,3-1.78,3.35a27.54,27.54,0,0,0,8.12-2.41v-2.06a2,2,0,0,0-2-2Zm0,0"/><path class="cls-12" d="M39.74,139.13a2,2,0,0,1,2,2v2.06a28.46,28.46,0,0,1-4.13,1.55c.81-.55,1-1.3,1-2.49v-3.16Zm0,0"/><path class="cls-5" d="M20.16,138.24a2.94,2.94,0,0,0-2.93,2.93v2.3a12.73,12.73,0,1,0,25.45,0v-2.3a3,3,0,0,0-2.94-2.93Zm0,1.78H39.74a1.13,1.13,0,0,1,1.15,1.15v2.3a10.94,10.94,0,0,1-21.88,0v-2.3A1.13,1.13,0,0,1,20.16,140Zm0,0"/><path class="cls-5" d="M18.07,142.74l-.4.8a28,28,0,0,0,24.56,0l-.39-.8a27.1,27.1,0,0,1-23.77,0Zm0,0"/><path class="cls-13" d="M28.64,150.39a1.22,1.22,0,0,1-.57,1,2.45,2.45,0,0,1-1.39.4c-1.09,0-2-.62-2-1.38s.88-1.39,2-1.39a2.45,2.45,0,0,1,1.39.41,1.21,1.21,0,0,1,.57,1Zm0,0"/><path class="cls-5" d="M41.4,52.17c-5.68.34-11.3.36-17.6.83-8.33.61-14.29,3.17-18.13,7A19,19,0,0,0,.33,73.66c0,8.51,5.21,15,12.42,18.54s16.44,4.48,25.82,3c.94-.14,1.89-.31,2.83-.51V88.54c-1.24.29-2.5.53-3.74.72-8.38,1.29-16.53.3-22.26-2.5s-9-6.93-9-13.1A12.74,12.74,0,0,1,10,64.3c2.58-2.6,7-4.73,14.28-5.27,5.87-.43,11.41-.5,17.16-.88v-6Zm0,0"/><path class="cls-5" d="M57.59,49.87a93.46,93.46,0,0,1-18.1,2.4v6a118.92,118.92,0,0,0,14.13-1.52l-1.79,4.81,4.32,0a60.89,60.89,0,0,0,17.17-2.65c-4.4,17.49-19,27.17-33.83,30v6.14C58,91.93,77.24,78.88,80.38,55L81,50.12l-4.65,1.63a89.07,89.07,0,0,1-15.73,3.42l.49-1.31,2-5.33Zm5.53-1.34"/><path class="cls-15" d="M58.31,52.81C45.62,55.88,35.8,55.15,24,56,8.36,57.16,3.35,65.4,3.35,73.66c0,29.34,68,26.59,74-19.06,0,0-11.45,4-21.22,4l2.14-5.75Zm0,0"/><path class="cls-16" d="M58.3,52.81C45.62,55.88,35.8,55.15,24,56c-8.91.66-14.38,3.61-17.43,7.55,8.27,14.32,54.93,11.72,70.8-9,0,0-11.45,4-21.22,4l2.13-5.75Zm0,0"/><path class="cls-14" d="M77.39,54.6c-8,29.74-62.73,41.31-73.61,15a18.74,18.74,0,0,0-.43,4c0,29.34,68,26.59,74-19.06Zm0,0"/><path class="cls-5" d="M41.4,54.44c-5.7.34-11.29.37-17.43.82-8,.58-13.33,3-16.69,6.38a16.66,16.66,0,0,0-4.68,12c0,7.63,4.49,13.26,11.14,16.5S29.22,94.38,38.23,93c1.06-.16,2.11-.36,3.17-.59V90.87c-1.13.25-2.27.46-3.4.63-8.75,1.35-17.31.37-23.59-2.7S4.11,80.7,4.11,73.66a15.12,15.12,0,0,1,4.24-11c3.05-3.07,8-5.37,15.73-5.93,6-.45,11.6-.49,17.32-.85V54.44Zm0,0"/><path class="cls-5" d="M58.13,52.08a96.45,96.45,0,0,1-18.64,2.47V56A102.9,102.9,0,0,0,57.13,53.8l-2,5.51h1.08c9.12,0,18.54-3.07,20.26-3.66C73.1,76.73,56.21,88.19,39.49,91.25v1.54C57.11,89.65,75.15,77.35,78.14,54.7l.16-1.22-1.16.41S66.6,57.48,57.29,57.72L59,53.07l.5-1.33Zm1.38-.34"/></g><text class="cls-18" transform="translate(14.09 270.28)">ukraina</text><path class="cls-4" d="M44.92,0l-29,0H0L0,16c0,7,0,14,0,21A29.1,29.1,0,0,0,51.43,18.3,28.91,28.91,0,0,0,44.92,0Z"/><text class="cls-19" transform="translate(15.54 31.75)">26</text></svg>