<svg id="Слой_1" data-name="Слой 1" xmlns="http://www.w3.org/2000/svg" viewBox="0 0 195.59 280.63"><defs><style>.cls-1,.cls-4{fill:#1a1a1a;}.cls-2{font-size:63.44px;}.cls-2,.cls-3{fill:#e83e3e;}.cls-2,.cls-4{font-family:Impact;}.cls-4{font-size:20px;}.cls-5{fill:#423d3d;}.cls-6{fill:#7f6d6b;}.cls-7{fill:#4481c3;}.cls-8{fill:#ccc;}.cls-9{fill:#fff;}.cls-10{fill:#cb1a24;}.cls-11{fill:#767676;}.cls-12{fill:#af1739;}.cls-13{fill:#eb5775;}.cls-14{fill:#badbe9;}.cls-15{fill:#8bb0cc;}.cls-16{fill:#f293a2;}.cls-17{fill:#ffd740;}.cls-18{fill:#5a5252;}.cls-19{fill:#e83b54;}.cls-20{fill:#797979;}.cls-21{fill:#545454;}.cls-22{fill:#444;}.cls-23{fill:#efa85d;}.cls-24{fill:#636363;}.cls-25{fill:#a0a0a0;}.cls-26{fill:#fdd083;}.cls-27{fill:#dc773d;}.cls-28{fill:#3d3d3d;}</style></defs><rect class="cls-1" x="-270.11" y="-4.04" width="488.59" height="290.67"/><text class="cls-2" transform="translate(30.44 264.55)">rosja</text><path class="cls-3" d="M45,0l-29,0H.09l0,16q0,10.49,0,21A29.11,29.11,0,0,0,51.56,18.31,28.92,28.92,0,0,0,45,0Z"/><text class="cls-4" transform="translate(15.66 31.76)">27</text><path class="cls-1" d="M107.18,22.13c-1.65,0-11.26-.41-19.29,4.05a12.4,12.4,0,0,0-6.43,10.53l5.54.22c.14-3.44,1.51-4.75,3.59-5.9,6.21-3.45,14.44-3.35,16.59-3.35s10.38-.1,16.59,3.35c2.08,1.15,3.46,2.46,3.59,5.9l5.55-.22a12.43,12.43,0,0,0-6.44-10.53c-8-4.46-17.64-4.05-19.29-4.05Zm0,0"/><path class="cls-5" d="M130.13,36.82a9.21,9.21,0,0,0-5-8.22c-7.12-4-16-3.69-17.94-3.69s-10.82-.26-17.94,3.69a9.21,9.21,0,0,0-5,8.22Zm0,0"/><path class="cls-1" d="M107.18,24.19c-1.84,0-10.93-.3-18.29,3.78a10,10,0,0,0-5.38,8.82l1.44.06a8.37,8.37,0,0,1,4.64-7.62c6.89-3.82,15.62-3.6,17.59-3.6s10.71-.22,17.59,3.6a8.37,8.37,0,0,1,4.64,7.62l1.44-.06A10,10,0,0,0,125.47,28c-7.35-4.08-16.45-3.78-18.29-3.78Zm0,0"/><path class="cls-6" d="M105.9,29.39c-3.86,0-13.4.23-21.2,3.68-3.27,1.44-6,3.81-6.28,8a12.07,12.07,0,0,1,4.89-3.39C92.78,33.78,104.65,34,107.18,34s14.4-.26,23.88,3.69a12.1,12.1,0,0,1,4.88,3.39c-.27-4.24-3-6.61-6.27-8-8.93-3.94-20.11-3.68-22.49-3.68-.3,0-.73,0-1.28,0Zm0,0"/><path class="cls-5" d="M116.42,39.32a1,1,0,0,1-.28.69,1,1,0,0,1-.69.29,1,1,0,0,1-1-1,1,1,0,0,1,.29-.69,1,1,0,0,1,.69-.28,1,1,0,0,1,1,1Zm0,0"/><path class="cls-3" d="M121.39,182.94c0-11.62,5.11-13.95,8.66-13.95s8.65,2.33,8.65,13.95-3.87,28.15-8.65,28.15-8.66-16.53-8.66-28.15Zm0,0"/><path class="cls-1" d="M130.05,166.58a9.82,9.82,0,0,0-7.51,3.47c-2.22,2.62-3.57,6.72-3.57,12.89A74.92,74.92,0,0,0,121.6,202a31.17,31.17,0,0,0,3,7.54c1.22,2,2.86,3.94,5.45,3.94s4.22-1.9,5.44-3.94a31.17,31.17,0,0,0,3-7.54,74.92,74.92,0,0,0,2.63-19.08c0-6.17-1.35-10.27-3.57-12.89a9.8,9.8,0,0,0-7.5-3.47Zm0,4.83a4.65,4.65,0,0,1,3.81,1.76c1.22,1.44,2.43,4.31,2.43,9.77a71.64,71.64,0,0,1-2.45,17.78,28.15,28.15,0,0,1-2.5,6.36,5.08,5.08,0,0,1-1.29,1.54,4.89,4.89,0,0,1-1.3-1.54,28.15,28.15,0,0,1-2.5-6.36,71.64,71.64,0,0,1-2.45-17.78c0-5.46,1.21-8.33,2.43-9.77a4.65,4.65,0,0,1,3.82-1.76Zm0,0"/><path class="cls-3" d="M77.61,182.94c0-11.62,5.12-13.95,8.66-13.95s8.66,2.33,8.66,13.95-3.88,28.15-8.66,28.15-8.66-16.53-8.66-28.15Zm0,0"/><path class="cls-1" d="M86.27,166.58a9.78,9.78,0,0,0-7.5,3.47c-2.22,2.62-3.57,6.72-3.57,12.89A74.91,74.91,0,0,0,77.82,202a31.16,31.16,0,0,0,3,7.54c1.22,2,2.85,3.94,5.44,3.94s4.23-1.9,5.45-3.94a31.58,31.58,0,0,0,3-7.54,74.92,74.92,0,0,0,2.63-19.08c0-6.17-1.36-10.27-3.58-12.89a9.78,9.78,0,0,0-7.5-3.47Zm0,4.83a4.64,4.64,0,0,1,3.81,1.76c1.23,1.44,2.43,4.31,2.43,9.77a71.63,71.63,0,0,1-2.44,17.78,28.15,28.15,0,0,1-2.5,6.36,4.89,4.89,0,0,1-1.3,1.54,4.89,4.89,0,0,1-1.3-1.54,27.73,27.73,0,0,1-2.49-6.36A71.18,71.18,0,0,1,80,182.94c0-5.46,1.21-8.33,2.43-9.77a4.64,4.64,0,0,1,3.81-1.76Zm0,0"/><path class="cls-7" d="M164.92,125.23c-3.37-11.12.86-14.83,4.24-15.85s9-.29,12.33,10.84,4.44,28.06-.13,29.45-13.08-13.31-16.44-24.44Zm0,0"/><path class="cls-1" d="M168.42,108.35a9.85,9.85,0,0,0-6.18,5.49c-1.36,3.16-1.47,7.48.32,13.38a74.81,74.81,0,0,0,8,17.5,31.41,31.41,0,0,0,5.06,6.35c1.76,1.6,3.88,2.94,6.35,2.19s3.49-3,4.07-5.35a30.9,30.9,0,0,0,.69-8.08,74.9,74.9,0,0,0-3-19c-1.79-5.9-4.27-9.44-7.16-11.3a9.78,9.78,0,0,0-8.18-1.15Zm1.4,4.62a4.69,4.69,0,0,1,4.16.58c1.59,1,3.57,3.43,5.15,8.65a71.14,71.14,0,0,1,2.81,17.73,27.43,27.43,0,0,1-.55,6.81,5,5,0,0,1-.79,1.85,4.93,4.93,0,0,1-1.69-1.1,27.47,27.47,0,0,1-4.23-5.36,71.52,71.52,0,0,1-7.5-16.31c-1.58-5.23-1.25-8.32-.5-10.06a4.67,4.67,0,0,1,3.14-2.79Zm0,0"/><path class="cls-7" d="M37.21,119.73c4.44-10.74,10.06-10.92,13.33-9.57s7.11,5.46,2.66,16.2-14.35,24.52-18.77,22.69-1.67-18.58,2.78-29.32Zm0,0"/><path class="cls-1" d="M51.47,107.93a9.83,9.83,0,0,0-8.26.33c-3.06,1.58-5.88,4.85-8.24,10.55a75.26,75.26,0,0,0-4.87,18.63,31.37,31.37,0,0,0-.11,8.12c.34,2.35,1.13,4.73,3.52,5.72s4.63-.14,6.54-1.55a31.82,31.82,0,0,0,5.66-5.82,75.09,75.09,0,0,0,9.73-16.63c2.36-5.69,2.68-10,1.63-13.28a9.82,9.82,0,0,0-5.6-6.07Zm-1.85,4.46a4.71,4.71,0,0,1,2.85,3.09c.57,1.8.59,4.91-1.5,10a70.86,70.86,0,0,1-9.06,15.49,27.63,27.63,0,0,1-4.75,4.93,4.93,4.93,0,0,1-1.78.92,4.73,4.73,0,0,1-.61-1.92,28.45,28.45,0,0,1,.12-6.83,71.56,71.56,0,0,1,4.55-17.36c2.09-5,4.3-7.23,6-8.1a4.67,4.67,0,0,1,4.2-.17Zm0,0"/><path class="cls-1" d="M108.16,57.63A67.81,67.81,0,1,0,176,125.44a67.87,67.87,0,0,0-67.8-67.81Zm0,7.74a60.07,60.07,0,1,1-60.07,60.07,60,60,0,0,1,60.07-60.07Zm0,0"/><path class="cls-7" d="M171.13,123.92c0,2.65-.31,33.55-18.37,42.26-12.82,6.18-20-5.89-45.87-5.53-24.39.34-30.75,11.2-42.81,5.53-18-8.49-18.37-39.67-18.37-42.26,0-3.64.41-32.58,18.37-42.26,10.59-5.72,16.09,1.32,42.26,1.6,28.62.3,34.89-8,46.42-1.6C170.71,91.59,171.12,120.27,171.13,123.92Zm0,0"/><path class="cls-8" d="M108.84,62.68A64.59,64.59,0,0,0,48,105.83H169.71a64.62,64.62,0,0,0-60.87-43.15Zm0,0"/><path class="cls-9" d="M105.47,64.15a59.76,59.76,0,0,0-56.93,41.68H162.36a59.78,59.78,0,0,0-56.89-41.68Zm0,0"/><path class="cls-10" d="M47.47,147.63a75.41,75.41,0,0,0,29.45,30.86,65.26,65.26,0,0,0,32,9.16,60.49,60.49,0,0,0,17.94-2.48,62.32,62.32,0,0,0,29.48-19.75,67.28,67.28,0,0,0,11-17.79Zm0,0"/><path class="cls-3" d="M50.69,147.74m0,0a62,62,0,0,0,112.82,0Z"/><path class="cls-1" d="M108.16,60.53a64.91,64.91,0,1,0,64.9,64.91,64.92,64.92,0,0,0-64.9-64.91Zm0,1.94a63,63,0,1,1-63,63,63,63,0,0,1,63-63Zm0,0"/><path class="cls-11" d="M107.38,129.73a2.45,2.45,0,1,1,2.45,2.45,2.45,2.45,0,0,1-2.45-2.45Zm0,0"/><path class="cls-11" d="M95.2,127.4A2.44,2.44,0,0,1,98.29,129a2.44,2.44,0,0,1-1.57,3.09,2.45,2.45,0,1,1-1.52-4.66Zm0,0"/><path class="cls-1" d="M119.05,101.2v3.94a10.24,10.24,0,0,0,20.48,0V100a10.2,10.2,0,0,0-2.22-6.37Zm18.26-7.56"/><path class="cls-9" d="M123.33,102.84a3.31,3.31,0,1,1,1,2.34,3.3,3.3,0,0,1-1-2.34Zm0,0"/><path class="cls-1" d="M79,93.64A10.26,10.26,0,0,0,76.78,100v5.13a10.25,10.25,0,0,0,20.49,0V101.2L79,93.64Zm0,0"/><path class="cls-9" d="M81.06,102.84a3.31,3.31,0,1,1,1,2.34,3.3,3.3,0,0,1-1-2.34Zm0,0"/><path class="cls-12" d="M85.14,156.25a4.79,4.79,0,0,1-4.8-4.8V146A27.82,27.82,0,1,1,136,146v5.42a4.79,4.79,0,0,1-4.8,4.8Zm46,0"/><path class="cls-13" d="M108.16,141.65a27.82,27.82,0,0,0-24.37,14.4,4.64,4.64,0,0,0,1.35.2h46a4.66,4.66,0,0,0,1.36-.2,27.83,27.83,0,0,0-24.37-14.4Zm0,0"/><path class="cls-9" d="M108.16,118.21A27.79,27.79,0,0,0,85.4,130a63.93,63.93,0,0,0,45.5,0,27.77,27.77,0,0,0-22.74-11.81Zm0,0"/><path class="cls-14" d="M123.82,123.06a28,28,0,0,1,7.08,7,63.66,63.66,0,0,1-9.11,2.62s2-.87,2-4.83v-4.78Zm0,0"/><path class="cls-14" d="M101.37,119.05a27.86,27.86,0,0,0-16,11,64.54,64.54,0,0,0,20,4c-3-1-4-4.76-4-8.43v-6.61Zm0,0"/><path class="cls-15" d="M92.47,123.06a28,28,0,0,0-7.08,7,64,64,0,0,0,9.11,2.62s-2-.87-2-4.83v-4.78Zm0,0"/><path class="cls-1" d="M108.16,117.22A28.82,28.82,0,0,0,79.35,146v5.42a5.8,5.8,0,0,0,5.79,5.79h46a5.8,5.8,0,0,0,5.8-5.79V146a28.82,28.82,0,0,0-28.81-28.81Zm0,2A26.8,26.8,0,0,1,135,146v5.42a3.78,3.78,0,0,1-3.81,3.8h-46a3.77,3.77,0,0,1-3.8-3.8V146a26.8,26.8,0,0,1,26.82-26.82Zm0,0"/><path class="cls-1" d="M131.2,129.44a64.25,64.25,0,0,1-46.09,0l-.35.93a65.32,65.32,0,0,0,46.8,0l-.36-.93Zm0,0"/><path class="cls-16" d="M111.24,149.15c0-1.8,2.07-3.26,4.62-3.26s4.63,1.46,4.63,3.26-2.07,3.26-4.63,3.26-4.62-1.46-4.62-3.26Zm0,0"/><path class="cls-17" d="M100.4,72.33a5.6,5.6,0,0,1-4.76,2,11.34,11.34,0,0,1-9.85-7.56,5.61,5.61,0,0,1,.68-5.11c2.13-2.77,7-2.63,10.81.32s5.25,7.59,3.12,10.36Zm0,0"/><path class="cls-17" d="M88.39,61.34H88l-.09,0-.07,0-.06,0-.06,0-.06,0-.06,0,0,0-.06.05,0,0,0,0,0,.05,0,.06,0,.05a.21.21,0,0,0,0,.06l0,.06,0,.06,0,.06,0,.07a.14.14,0,0,1,0,.06s0,.05,0,.07a.64.64,0,0,0,0,.07s0,0,0,.06,0,0,0,.07,0,0,0,.07v.19s0,0,0,.07,0,0,0,.07,0,0,0,.06a.17.17,0,0,0,0,.07h0v0l0,.09s0,0,0,.06l0,.06,0,.06,0,.06,0,.06a.21.21,0,0,0,0,.06.1.1,0,0,0,0,0l0,.06.05,0a.12.12,0,0,0,0,.05s0,0,0,0l.06,0,0,0,.06,0,.06,0a.09.09,0,0,0,.07,0l.06,0L88,64l.06,0,.07,0,.07,0h.13a.08.08,0,0,0,.07,0h.26l.07,0h.09l.09,0,.06,0L89,64l.06,0,.06,0,.06,0,0,0,.06,0s0,0,0,0l0-.05,0,0,0,0,0-.06,0-.05a.21.21,0,0,1,0-.06l0-.07,0-.06a.14.14,0,0,0,0-.06l0-.07s0,0,0-.06,0-.05,0-.07,0-.05,0-.07,0,0,0-.07a.2.2,0,0,1,0-.07v-.18a.2.2,0,0,1,0-.07s0,0,0-.07,0,0,0-.07a.13.13,0,0,0,0-.06h0v0l0-.09a.19.19,0,0,1,0-.07l0-.06a.21.21,0,0,0,0-.06l0-.06,0-.06a.1.1,0,0,0,0,0l0-.06,0,0-.05-.05s0,0,0,0l0,0-.06,0,0,0-.06,0-.06,0-.07,0-.06,0-.07,0-.06,0-.07,0h-.3Zm0,0"/><path class="cls-17" d="M88.39,61.34H88l-.09,0-.07,0-.06,0-.06,0-.06,0-.06,0,0,0-.06.05,0,0,0,0,0,.05,0,.06,0,.05a.21.21,0,0,0,0,.06l0,.06,0,.06,0,.06,0,.07a.14.14,0,0,1,0,.06s0,.05,0,.07a.64.64,0,0,0,0,.07s0,0,0,.06,0,0,0,.07,0,0,0,.07v.19s0,0,0,.07,0,0,0,.07,0,0,0,.06a.15.15,0,0,0,0,.07h0v0l0,.09s0,0,0,.06l0,.06,0,.06,0,.06,0,.06a.21.21,0,0,0,0,.06.1.1,0,0,0,0,0l0,.06.05,0a.12.12,0,0,0,0,.05s0,0,0,0l.06,0,0,0,.06,0,.06,0a.09.09,0,0,0,.07,0l.06,0L88,64l.06,0,.07,0h.69l.09,0,.06,0L89,64l.06,0,.06,0,.06,0,0,0,.06,0,0,0,0-.05,0,0,0,0,0-.06,0-.06,0-.06,0-.06,0-.06a.14.14,0,0,0,0-.06l0-.07a.64.64,0,0,0,0-.07s0,0,0-.06a.64.64,0,0,1,0-.07s0-.05,0-.07a.17.17,0,0,1,0-.07v-.19a.15.15,0,0,1,0-.07s0,0,0-.06a.64.64,0,0,0,0-.07v-.06h0v0l0-.09a.25.25,0,0,1,0-.07l0-.06a.21.21,0,0,0,0-.06l0-.06,0-.06a.21.21,0,0,0,0-.06l0-.05,0,0a.12.12,0,0,0-.05-.05s0,0,0,0l0,0-.06,0,0,0-.06,0-.06,0-.07,0-.06,0-.07,0-.06,0-.07,0h-.3Zm0,0"/><path class="cls-17" d="M88.39,61.34H88l-.09,0-.07,0-.06,0-.06,0-.06,0-.06,0,0,0-.06.05,0,0,0,0,0,.05,0,.06,0,.05a.21.21,0,0,0,0,.06l0,.06,0,.06,0,.06,0,.07a.14.14,0,0,1,0,.06s0,.05,0,.07a.64.64,0,0,0,0,.07s0,0,0,.06,0,0,0,.07,0,0,0,.07v.19s0,0,0,.07,0,0,0,.07,0,0,0,.06a.15.15,0,0,0,0,.07h0v0l0,.09s0,0,0,.06l0,.06,0,.06,0,.06,0,.06a.21.21,0,0,0,0,.06.1.1,0,0,0,0,0l0,.06.05,0a.12.12,0,0,0,0,.05s0,0,0,0l.06,0,0,0,.06,0,.06,0a.09.09,0,0,0,.07,0l.06,0L88,64l.06,0,.07,0h.69l.09,0,.06,0L89,64l.06,0,.06,0,.06,0,0,0,.06,0,0,0,0-.05,0,0,0,0,0-.06,0-.06,0-.06,0-.06,0-.06a.14.14,0,0,0,0-.06l0-.07a.64.64,0,0,0,0-.07s0,0,0-.06a.64.64,0,0,1,0-.07s0-.05,0-.07a.17.17,0,0,1,0-.07v-.19a.15.15,0,0,1,0-.07s0,0,0-.06a.64.64,0,0,0,0-.07v-.06h0v0l0-.09a.25.25,0,0,1,0-.07l0-.06a.21.21,0,0,0,0-.06l0-.06,0-.06a.21.21,0,0,0,0-.06l0-.05,0,0a.12.12,0,0,0-.05-.05s0,0,0,0l0,0-.06,0,0,0-.06,0-.06,0-.07,0-.06,0-.07,0-.06,0-.07,0h-.3Zm0,0"/><path class="cls-17" d="M88.39,61.34H88l-.09,0-.07,0-.06,0-.06,0-.06,0-.06,0,0,0-.06.05,0,0,0,0,0,.05,0,.06,0,.05a.21.21,0,0,0,0,.06l0,.06,0,.06,0,.06,0,.07a.14.14,0,0,1,0,.06s0,.05,0,.07a.64.64,0,0,0,0,.07s0,0,0,.06,0,0,0,.07,0,0,0,.07v.19s0,0,0,.07,0,0,0,.07,0,0,0,.06a.15.15,0,0,0,0,.07h0v0l0,.09s0,0,0,.06l0,.06,0,.06,0,.06,0,.06a.21.21,0,0,0,0,.06.1.1,0,0,0,0,0l0,.06.05,0a.12.12,0,0,0,0,.05s0,0,0,0l.06,0,0,0,.06,0,.06,0a.09.09,0,0,0,.07,0l.06,0L88,64l.06,0,.07,0h.69l.09,0,.06,0L89,64l.06,0,.06,0,.06,0,0,0,.06,0,0,0,0-.05,0,0,0,0,0-.06,0-.06,0-.06,0-.06,0-.06a.14.14,0,0,0,0-.06l0-.07a.64.64,0,0,0,0-.07s0,0,0-.06a.64.64,0,0,1,0-.07s0-.05,0-.07a.17.17,0,0,1,0-.07v-.19a.15.15,0,0,1,0-.07s0,0,0-.06a.64.64,0,0,0,0-.07v-.06h0v0l0-.09a.25.25,0,0,1,0-.07l0-.06a.21.21,0,0,0,0-.06l0-.06,0-.06a.21.21,0,0,0,0-.06l0-.05,0,0a.12.12,0,0,0-.05-.05s0,0,0,0l0,0-.06,0,0,0-.06,0-.06,0-.07,0-.06,0-.07,0-.06,0-.07,0h-.3Zm0,0"/><path class="cls-17" d="M88.39,61.34H88l-.09,0-.07,0-.06,0-.06,0-.06,0-.06,0,0,0-.06.05,0,0,0,0,0,.05,0,.06,0,.05a.21.21,0,0,0,0,.06l0,.06,0,.06,0,.06,0,.07a.14.14,0,0,1,0,.06s0,.05,0,.07a.64.64,0,0,0,0,.07s0,0,0,.06,0,0,0,.07,0,0,0,.07v.19s0,0,0,.07,0,0,0,.07,0,0,0,.06a.15.15,0,0,0,0,.07h0v0l0,.09s0,0,0,.06l0,.06,0,.06,0,.06,0,.06a.21.21,0,0,0,0,.06.1.1,0,0,0,0,0l0,.06.05,0a.12.12,0,0,0,0,.05s0,0,0,0l.06,0,0,0,.06,0,.06,0a.09.09,0,0,0,.07,0l.06,0L88,64l.06,0,.07,0h.69l.09,0,.06,0L89,64l.06,0,.06,0,.06,0,0,0,.06,0,0,0,0-.05,0,0,0,0,0-.06,0-.06,0-.06,0-.06,0-.06a.14.14,0,0,0,0-.06l0-.07a.64.64,0,0,0,0-.07s0,0,0-.06a.64.64,0,0,1,0-.07s0-.05,0-.07a.17.17,0,0,1,0-.07v-.19a.15.15,0,0,1,0-.07s0,0,0-.06a.64.64,0,0,0,0-.07v-.06h0v0l0-.09a.25.25,0,0,1,0-.07l0-.06a.21.21,0,0,0,0-.06l0-.06,0-.06a.21.21,0,0,0,0-.06l0-.05,0,0a.12.12,0,0,0-.05-.05s0,0,0,0l0,0-.06,0,0,0-.06,0-.06,0-.07,0-.06,0-.07,0-.06,0-.07,0h-.3Zm0,0"/><path class="cls-17" d="M88.39,61.34H88l-.09,0-.07,0-.06,0-.06,0-.06,0-.06,0,0,0-.06.05,0,0,0,0,0,.05,0,.06,0,.05a.21.21,0,0,0,0,.06l0,.06,0,.06,0,.06,0,.07a.14.14,0,0,1,0,.06s0,.05,0,.07a.64.64,0,0,0,0,.07s0,0,0,.06,0,0,0,.07,0,0,0,.07v.19s0,0,0,.07,0,0,0,.07,0,0,0,.06a.15.15,0,0,0,0,.07h0v0l0,.09s0,0,0,.06l0,.06,0,.06,0,.06,0,.06a.21.21,0,0,0,0,.06.1.1,0,0,0,0,0l0,.06.05,0a.12.12,0,0,0,0,.05s0,0,0,0l.06,0,0,0,.06,0,.06,0a.09.09,0,0,0,.07,0l.06,0L88,64l.06,0,.07,0h.69l.09,0,.06,0L89,64l.06,0,.06,0,.06,0,0,0,.06,0,0,0,0-.05,0,0,0,0,0-.06,0-.06,0-.06,0-.06,0-.06a.14.14,0,0,0,0-.06l0-.07a.64.64,0,0,0,0-.07s0,0,0-.06a.64.64,0,0,1,0-.07s0-.05,0-.07a.17.17,0,0,1,0-.07v-.19a.15.15,0,0,1,0-.07s0,0,0-.06a.64.64,0,0,0,0-.07v-.06h0v0l0-.09a.25.25,0,0,1,0-.07l0-.06a.21.21,0,0,0,0-.06l0-.06,0-.06a.21.21,0,0,0,0-.06l0-.05,0,0a.12.12,0,0,0-.05-.05s0,0,0,0l0,0-.06,0,0,0-.06,0-.06,0-.07,0-.06,0-.07,0-.06,0-.07,0h-.3Zm0,0"/><path class="cls-17" d="M88.39,61.34H88l-.09,0-.07,0-.06,0-.06,0-.06,0-.06,0,0,0-.06.05,0,0,0,0,0,.05,0,.06,0,.05a.21.21,0,0,0,0,.06l0,.06,0,.06,0,.06,0,.07a.14.14,0,0,1,0,.06s0,.05,0,.07a.64.64,0,0,0,0,.07s0,0,0,.06,0,0,0,.07,0,0,0,.07v.19s0,0,0,.07,0,0,0,.07,0,0,0,.06a.15.15,0,0,0,0,.07h0v0l0,.09s0,0,0,.06l0,.06,0,.06,0,.06,0,.06a.21.21,0,0,0,0,.06.1.1,0,0,0,0,0l0,.06.05,0a.12.12,0,0,0,0,.05s0,0,0,0l.06,0,0,0,.06,0,.06,0a.09.09,0,0,0,.07,0l.06,0L88,64l.06,0,.07,0h.69l.09,0,.06,0L89,64l.06,0,.06,0,.06,0,0,0,.06,0,0,0,0-.05,0,0,0,0,0-.06,0-.06,0-.06,0-.06,0-.06a.14.14,0,0,0,0-.06l0-.07a.64.64,0,0,0,0-.07s0,0,0-.06a.64.64,0,0,1,0-.07s0-.05,0-.07a.17.17,0,0,1,0-.07v-.19a.15.15,0,0,1,0-.07s0,0,0-.06a.64.64,0,0,0,0-.07v-.06h0v0l0-.09a.25.25,0,0,1,0-.07l0-.06a.21.21,0,0,0,0-.06l0-.06,0-.06a.21.21,0,0,0,0-.06l0-.05,0,0a.12.12,0,0,0-.05-.05s0,0,0,0l0,0-.06,0,0,0-.06,0-.06,0-.07,0-.06,0-.07,0-.06,0-.07,0h-.3Zm0,0"/><path class="cls-17" d="M88.39,61.34H88l-.09,0-.07,0-.06,0-.06,0-.06,0-.06,0,0,0-.06.05,0,0,0,0,0,.05,0,.06,0,.05a.21.21,0,0,0,0,.06l0,.06,0,.06,0,.06,0,.07a.14.14,0,0,1,0,.06s0,.05,0,.07a.64.64,0,0,0,0,.07s0,0,0,.06,0,0,0,.07,0,0,0,.07v.19s0,0,0,.07,0,0,0,.07,0,0,0,.06a.15.15,0,0,0,0,.07h0v0l0,.09s0,0,0,.06l0,.06,0,.06,0,.06,0,.06a.21.21,0,0,0,0,.06.1.1,0,0,0,0,0l0,.06.05,0a.12.12,0,0,0,0,.05s0,0,0,0l.06,0,0,0,.06,0,.06,0a.09.09,0,0,0,.07,0l.06,0L88,64l.06,0,.07,0h.69l.09,0,.06,0L89,64l.06,0,.06,0,.06,0,0,0,.06,0,0,0,0-.05,0,0,0,0,0-.06,0-.06,0-.06,0-.06,0-.06a.14.14,0,0,0,0-.06l0-.07a.64.64,0,0,0,0-.07s0,0,0-.06a.64.64,0,0,1,0-.07s0-.05,0-.07a.17.17,0,0,1,0-.07v-.19a.15.15,0,0,1,0-.07s0,0,0-.06a.64.64,0,0,0,0-.07v-.06h0v0l0-.09a.25.25,0,0,1,0-.07l0-.06a.21.21,0,0,0,0-.06l0-.06,0-.06a.21.21,0,0,0,0-.06l0-.05,0,0a.12.12,0,0,0-.05-.05s0,0,0,0l0,0-.06,0,0,0-.06,0-.06,0-.07,0-.06,0-.07,0-.06,0-.07,0h-.3Zm0,0"/><path class="cls-17" d="M88.39,61.34H88l-.09,0-.07,0-.06,0-.06,0-.06,0-.06,0,0,0-.06.05,0,0,0,0,0,.05,0,.06,0,.05a.21.21,0,0,0,0,.06l0,.06,0,.06,0,.06,0,.07a.14.14,0,0,1,0,.06s0,.05,0,.07a.64.64,0,0,0,0,.07s0,0,0,.06,0,0,0,.07,0,0,0,.07v.19s0,0,0,.07,0,0,0,.07,0,0,0,.06a.15.15,0,0,0,0,.07h0v0l0,.09s0,0,0,.06l0,.06,0,.06,0,.06,0,.06a.21.21,0,0,0,0,.06.1.1,0,0,0,0,0l0,.06.05,0a.12.12,0,0,0,0,.05s0,0,0,0l.06,0,0,0,.06,0,.06,0a.09.09,0,0,0,.07,0l.06,0L88,64l.06,0,.07,0h.69l.09,0,.06,0L89,64l.06,0,.06,0,.06,0,0,0,.06,0,0,0,0-.05,0,0,0,0,0-.06,0-.06,0-.06,0-.06,0-.06a.14.14,0,0,0,0-.06l0-.07a.64.64,0,0,0,0-.07s0,0,0-.06a.64.64,0,0,1,0-.07s0-.05,0-.07a.17.17,0,0,1,0-.07v-.19a.15.15,0,0,1,0-.07s0,0,0-.06a.64.64,0,0,0,0-.07v-.06h0v0l0-.09a.25.25,0,0,1,0-.07l0-.06a.21.21,0,0,0,0-.06l0-.06,0-.06a.21.21,0,0,0,0-.06l0-.05,0,0a.12.12,0,0,0-.05-.05s0,0,0,0l0,0-.06,0,0,0-.06,0-.06,0-.07,0-.06,0-.07,0-.06,0-.07,0h-.3Zm0,0"/><path class="cls-17" d="M88.39,61.34H88l-.09,0-.07,0-.06,0-.06,0-.06,0-.06,0,0,0-.06.05,0,0,0,0,0,.05,0,.06,0,.05a.21.21,0,0,0,0,.06l0,.06,0,.06,0,.06,0,.07a.14.14,0,0,1,0,.06s0,.05,0,.07a.64.64,0,0,0,0,.07s0,0,0,.06,0,0,0,.07,0,0,0,.07v.19s0,0,0,.07,0,0,0,.07,0,0,0,.06a.15.15,0,0,0,0,.07h0v0l0,.09s0,0,0,.06l0,.06,0,.06,0,.06,0,.06a.21.21,0,0,0,0,.06.1.1,0,0,0,0,0l0,.06.05,0a.12.12,0,0,0,0,.05s0,0,0,0l.06,0,0,0,.06,0,.06,0a.09.09,0,0,0,.07,0l.06,0L88,64l.06,0,.07,0h.69l.09,0,.06,0L89,64l.06,0,.06,0,.06,0,0,0,.06,0,0,0,0-.05,0,0,0,0,0-.06,0-.06,0-.06,0-.06,0-.06a.14.14,0,0,0,0-.06l0-.07a.64.64,0,0,0,0-.07s0,0,0-.06a.64.64,0,0,1,0-.07s0-.05,0-.07a.17.17,0,0,1,0-.07v-.19a.15.15,0,0,1,0-.07s0,0,0-.06a.64.64,0,0,0,0-.07v-.06h0v0l0-.09a.25.25,0,0,1,0-.07l0-.06a.21.21,0,0,0,0-.06l0-.06,0-.06a.21.21,0,0,0,0-.06l0-.05,0,0a.12.12,0,0,0-.05-.05s0,0,0,0l0,0-.06,0,0,0-.06,0-.06,0-.07,0-.06,0-.07,0-.06,0-.07,0h-.3Zm0,0"/><path class="cls-17" d="M88.39,61.34H88l-.09,0-.07,0-.06,0-.06,0-.06,0-.06,0,0,0-.06.05,0,0,0,0,0,.05,0,.06,0,.05a.21.21,0,0,0,0,.06l0,.06,0,.06,0,.06,0,.07a.14.14,0,0,1,0,.06s0,.05,0,.07a.64.64,0,0,0,0,.07s0,0,0,.06,0,0,0,.07,0,0,0,.07v.19s0,0,0,.07,0,0,0,.07,0,0,0,.06a.17.17,0,0,0,0,.07h0v0l0,.09s0,0,0,.06l0,.06,0,.06,0,.06,0,.06a.21.21,0,0,0,0,.06.1.1,0,0,0,0,0l0,.06.05,0a.12.12,0,0,0,0,.05s0,0,0,0l.06,0,0,0,.06,0,.06,0a.09.09,0,0,0,.07,0l.06,0L88,64l.06,0,.07,0,.07,0h.13a.08.08,0,0,0,.07,0h.26l.07,0h.09l.09,0,.06,0L89,64l.06,0,.06,0,.06,0,0,0,.06,0s0,0,0,0l0-.05,0,0,0,0,0-.06,0-.05a.21.21,0,0,1,0-.06l0-.07,0-.06a.14.14,0,0,0,0-.06l0-.07s0,0,0-.06,0-.05,0-.07,0-.05,0-.07,0,0,0-.07a.2.2,0,0,1,0-.07v-.18a.2.2,0,0,1,0-.07s0,0,0-.07,0,0,0-.07a.13.13,0,0,0,0-.06h0v0l0-.09a.19.19,0,0,1,0-.07l0-.06a.21.21,0,0,0,0-.06l0-.06,0-.06a.1.1,0,0,0,0,0l0-.06,0,0-.05-.05s0,0,0,0l0,0-.06,0,0,0-.06,0-.06,0-.07,0-.06,0-.07,0-.06,0-.07,0h-.3Zm0,0"/><path class="cls-17" d="M88.39,61.34H88l-.09,0-.07,0-.06,0-.06,0-.06,0-.06,0,0,0-.06.05,0,0,0,0,0,.05,0,.06,0,.05a.21.21,0,0,0,0,.06l0,.06,0,.06,0,.06,0,.07a.14.14,0,0,1,0,.06s0,.05,0,.07a.64.64,0,0,0,0,.07s0,0,0,.06,0,0,0,.07,0,0,0,.07v.19s0,0,0,.07,0,0,0,.07,0,0,0,.06a.15.15,0,0,0,0,.07h0v0l0,.09s0,0,0,.06l0,.06,0,.06,0,.06,0,.06a.21.21,0,0,0,0,.06.1.1,0,0,0,0,0l0,.06.05,0a.12.12,0,0,0,0,.05s0,0,0,0l.06,0,0,0,.06,0,.06,0a.09.09,0,0,0,.07,0l.06,0L88,64l.06,0,.07,0h.69l.09,0,.06,0L89,64l.06,0,.06,0,.06,0,0,0,.06,0,0,0,0-.05,0,0,0,0,0-.06,0-.06,0-.06,0-.06,0-.06a.14.14,0,0,0,0-.06l0-.07a.64.64,0,0,0,0-.07s0,0,0-.06a.64.64,0,0,1,0-.07s0-.05,0-.07a.17.17,0,0,1,0-.07v-.19a.15.15,0,0,1,0-.07s0,0,0-.06a.64.64,0,0,0,0-.07v-.06h0v0l0-.09a.25.25,0,0,1,0-.07l0-.06a.21.21,0,0,0,0-.06l0-.06,0-.06a.21.21,0,0,0,0-.06l0-.05,0,0a.12.12,0,0,0-.05-.05s0,0,0,0l0,0-.06,0,0,0-.06,0-.06,0-.07,0-.06,0-.07,0-.06,0-.07,0h-.3Zm0,0"/><path class="cls-17" d="M88.39,61.34H88l-.09,0-.07,0-.06,0-.06,0-.06,0-.06,0,0,0-.06.05,0,0,0,0,0,.05,0,.06,0,.05a.21.21,0,0,0,0,.06l0,.06,0,.06,0,.06,0,.07a.14.14,0,0,1,0,.06s0,.05,0,.07a.64.64,0,0,0,0,.07s0,0,0,.06,0,0,0,.07,0,0,0,.07v.19s0,0,0,.07,0,0,0,.07,0,0,0,.06a.15.15,0,0,0,0,.07h0v0l0,.09s0,0,0,.06l0,.06,0,.06,0,.06,0,.06a.21.21,0,0,0,0,.06.1.1,0,0,0,0,0l0,.06.05,0a.12.12,0,0,0,0,.05s0,0,0,0l.06,0,0,0,.06,0,.06,0a.09.09,0,0,0,.07,0l.06,0L88,64l.06,0,.07,0h.69l.09,0,.06,0L89,64l.06,0,.06,0,.06,0,0,0,.06,0,0,0,0-.05,0,0,0,0,0-.06,0-.06,0-.06,0-.06,0-.06a.14.14,0,0,0,0-.06l0-.07a.64.64,0,0,0,0-.07s0,0,0-.06a.64.64,0,0,1,0-.07s0-.05,0-.07a.17.17,0,0,1,0-.07v-.19a.15.15,0,0,1,0-.07s0,0,0-.06a.64.64,0,0,0,0-.07v-.06h0v0l0-.09a.25.25,0,0,1,0-.07l0-.06a.21.21,0,0,0,0-.06l0-.06,0-.06a.21.21,0,0,0,0-.06l0-.05,0,0a.12.12,0,0,0-.05-.05s0,0,0,0l0,0-.06,0,0,0-.06,0-.06,0-.07,0-.06,0-.07,0-.06,0-.07,0h-.3Zm0,0"/><path class="cls-17" d="M88.39,61.34H88l-.09,0-.07,0-.06,0-.06,0-.06,0-.06,0,0,0-.06.05,0,0,0,0,0,.05,0,.06,0,.05a.21.21,0,0,0,0,.06l0,.06,0,.06,0,.06,0,.07a.14.14,0,0,1,0,.06s0,.05,0,.07a.64.64,0,0,0,0,.07s0,0,0,.06,0,0,0,.07,0,0,0,.07v.19s0,0,0,.07,0,0,0,.07,0,0,0,.06a.15.15,0,0,0,0,.07h0v0l0,.09s0,0,0,.06l0,.06,0,.06,0,.06,0,.06a.21.21,0,0,0,0,.06.1.1,0,0,0,0,0l0,.06.05,0a.12.12,0,0,0,0,.05s0,0,0,0l.06,0,0,0,.06,0,.06,0a.09.09,0,0,0,.07,0l.06,0L88,64l.06,0,.07,0h.69l.09,0,.06,0L89,64l.06,0,.06,0,.06,0,0,0,.06,0,0,0,0-.05,0,0,0,0,0-.06,0-.06,0-.06,0-.06,0-.06a.14.14,0,0,0,0-.06l0-.07a.64.64,0,0,0,0-.07s0,0,0-.06a.64.64,0,0,1,0-.07s0-.05,0-.07a.17.17,0,0,1,0-.07v-.19a.15.15,0,0,1,0-.07s0,0,0-.06a.64.64,0,0,0,0-.07v-.06h0v0l0-.09a.25.25,0,0,1,0-.07l0-.06a.21.21,0,0,0,0-.06l0-.06,0-.06a.21.21,0,0,0,0-.06l0-.05,0,0a.12.12,0,0,0-.05-.05s0,0,0,0l0,0-.06,0,0,0-.06,0-.06,0-.07,0-.06,0-.07,0-.06,0-.07,0h-.3Zm0,0"/><path class="cls-17" d="M88.39,61.34H88l-.09,0-.07,0-.06,0-.06,0-.06,0-.06,0,0,0-.06.05,0,0,0,0,0,.05,0,.06,0,.05a.21.21,0,0,0,0,.06l0,.06,0,.06,0,.06,0,.07a.14.14,0,0,1,0,.06s0,.05,0,.07a.64.64,0,0,0,0,.07s0,0,0,.06,0,0,0,.07,0,0,0,.07v.19s0,0,0,.07,0,0,0,.07,0,0,0,.06a.15.15,0,0,0,0,.07h0v0l0,.09s0,0,0,.06l0,.06,0,.06,0,.06,0,.06a.21.21,0,0,0,0,.06.1.1,0,0,0,0,0l0,.06.05,0a.12.12,0,0,0,0,.05s0,0,0,0l.06,0,0,0,.06,0,.06,0a.09.09,0,0,0,.07,0l.06,0L88,64l.06,0,.07,0h.69l.09,0,.06,0L89,64l.06,0,.06,0,.06,0,0,0,.06,0,0,0,0-.05,0,0,0,0,0-.06,0-.06,0-.06,0-.06,0-.06a.14.14,0,0,0,0-.06l0-.07a.64.64,0,0,0,0-.07s0,0,0-.06a.64.64,0,0,1,0-.07s0-.05,0-.07a.17.17,0,0,1,0-.07v-.19a.15.15,0,0,1,0-.07s0,0,0-.06a.64.64,0,0,0,0-.07v-.06h0v0l0-.09a.25.25,0,0,1,0-.07l0-.06a.21.21,0,0,0,0-.06l0-.06,0-.06a.21.21,0,0,0,0-.06l0-.05,0,0a.12.12,0,0,0-.05-.05s0,0,0,0l0,0-.06,0,0,0-.06,0-.06,0-.07,0-.06,0-.07,0-.06,0-.07,0h-.3Zm0,0"/><path class="cls-17" d="M88.39,61.34H88l-.09,0-.07,0-.06,0-.06,0-.06,0-.06,0,0,0-.06.05,0,0,0,0,0,.05,0,.06,0,.05a.21.21,0,0,0,0,.06l0,.06,0,.06,0,.06,0,.07a.14.14,0,0,1,0,.06s0,.05,0,.07a.64.64,0,0,0,0,.07s0,0,0,.06,0,0,0,.07,0,0,0,.07v.19s0,0,0,.07,0,0,0,.07,0,0,0,.06a.15.15,0,0,0,0,.07h0v0l0,.09s0,0,0,.06l0,.06,0,.06,0,.06,0,.06a.21.21,0,0,0,0,.06.1.1,0,0,0,0,0l0,.06.05,0a.12.12,0,0,0,0,.05s0,0,0,0l.06,0,0,0,.06,0,.06,0a.09.09,0,0,0,.07,0l.06,0L88,64l.06,0,.07,0h.69l.09,0,.06,0L89,64l.06,0,.06,0,.06,0,0,0,.06,0,0,0,0-.05,0,0,0,0,0-.06,0-.06,0-.06,0-.06,0-.06a.14.14,0,0,0,0-.06l0-.07a.64.64,0,0,0,0-.07s0,0,0-.06a.64.64,0,0,1,0-.07s0-.05,0-.07a.17.17,0,0,1,0-.07v-.19a.15.15,0,0,1,0-.07s0,0,0-.06a.64.64,0,0,0,0-.07v-.06h0v0l0-.09a.25.25,0,0,1,0-.07l0-.06a.21.21,0,0,0,0-.06l0-.06,0-.06a.21.21,0,0,0,0-.06l0-.05,0,0a.12.12,0,0,0-.05-.05s0,0,0,0l0,0-.06,0,0,0-.06,0-.06,0-.07,0-.06,0-.07,0-.06,0-.07,0h-.3Zm0,0"/><path class="cls-17" d="M88.39,61.34H88l-.09,0-.07,0-.06,0-.06,0-.06,0-.06,0,0,0-.06.05,0,0,0,0,0,.05,0,.06,0,.05a.21.21,0,0,0,0,.06l0,.06,0,.06,0,.06,0,.07a.14.14,0,0,1,0,.06s0,.05,0,.07a.64.64,0,0,0,0,.07s0,0,0,.06,0,0,0,.07,0,0,0,.07v.19s0,0,0,.07,0,0,0,.07,0,0,0,.06a.15.15,0,0,0,0,.07h0v0l0,.09s0,0,0,.06l0,.06,0,.06,0,.06,0,.06a.21.21,0,0,0,0,.06.1.1,0,0,0,0,0l0,.06.05,0a.12.12,0,0,0,0,.05s0,0,0,0l.06,0,0,0,.06,0,.06,0a.09.09,0,0,0,.07,0l.06,0L88,64l.06,0,.07,0h.69l.09,0,.06,0L89,64l.06,0,.06,0,.06,0,0,0,.06,0,0,0,0-.05,0,0,0,0,0-.06,0-.06,0-.06,0-.06,0-.06a.14.14,0,0,0,0-.06l0-.07a.64.64,0,0,0,0-.07s0,0,0-.06a.64.64,0,0,1,0-.07s0-.05,0-.07a.17.17,0,0,1,0-.07v-.19a.15.15,0,0,1,0-.07s0,0,0-.06a.64.64,0,0,0,0-.07v-.06h0v0l0-.09a.25.25,0,0,1,0-.07l0-.06a.21.21,0,0,0,0-.06l0-.06,0-.06a.21.21,0,0,0,0-.06l0-.05,0,0a.12.12,0,0,0-.05-.05s0,0,0,0l0,0-.06,0,0,0-.06,0-.06,0-.07,0-.06,0-.07,0-.06,0-.07,0h-.3Zm0,0"/><path class="cls-17" d="M88.39,61.34H88l-.09,0-.07,0-.06,0-.06,0-.06,0-.06,0,0,0-.06.05,0,0,0,0,0,.05,0,.06,0,.05a.21.21,0,0,0,0,.06l0,.06,0,.06,0,.06,0,.07a.14.14,0,0,1,0,.06s0,.05,0,.07a.64.64,0,0,0,0,.07s0,0,0,.06,0,0,0,.07,0,0,0,.07v.19s0,0,0,.07,0,0,0,.07,0,0,0,.06a.15.15,0,0,0,0,.07h0v0l0,.09s0,0,0,.06l0,.06,0,.06,0,.06,0,.06a.21.21,0,0,0,0,.06.1.1,0,0,0,0,0l0,.06.05,0a.12.12,0,0,0,0,.05s0,0,0,0l.06,0,0,0,.06,0,.06,0a.09.09,0,0,0,.07,0l.06,0L88,64l.06,0,.07,0h.69l.09,0,.06,0L89,64l.06,0,.06,0,.06,0,0,0,.06,0,0,0,0-.05,0,0,0,0,0-.06,0-.06,0-.06,0-.06,0-.06a.14.14,0,0,0,0-.06l0-.07a.64.64,0,0,0,0-.07s0,0,0-.06a.64.64,0,0,1,0-.07s0-.05,0-.07a.17.17,0,0,1,0-.07v-.19a.15.15,0,0,1,0-.07s0,0,0-.06a.64.64,0,0,0,0-.07v-.06h0v0l0-.09a.25.25,0,0,1,0-.07l0-.06a.21.21,0,0,0,0-.06l0-.06,0-.06a.21.21,0,0,0,0-.06l0-.05,0,0a.12.12,0,0,0-.05-.05s0,0,0,0l0,0-.06,0,0,0-.06,0-.06,0-.07,0-.06,0-.07,0-.06,0-.07,0h-.3Zm0,0"/><path class="cls-17" d="M88.39,61.34H88l-.09,0-.07,0-.06,0-.06,0-.06,0-.06,0,0,0-.06.05,0,0,0,0,0,.05,0,.06,0,.05a.21.21,0,0,0,0,.06l0,.06,0,.06,0,.06,0,.07a.14.14,0,0,1,0,.06s0,.05,0,.07a.64.64,0,0,0,0,.07s0,0,0,.06,0,0,0,.07,0,0,0,.07v.19s0,0,0,.07,0,0,0,.07,0,0,0,.06a.15.15,0,0,0,0,.07h0v0l0,.09s0,0,0,.06l0,.06,0,.06,0,.06,0,.06a.21.21,0,0,0,0,.06.1.1,0,0,0,0,0l0,.06.05,0a.12.12,0,0,0,0,.05s0,0,0,0l.06,0,0,0,.06,0,.06,0a.09.09,0,0,0,.07,0l.06,0L88,64l.06,0,.07,0h.69l.09,0,.06,0L89,64l.06,0,.06,0,.06,0,0,0,.06,0,0,0,0-.05,0,0,0,0,0-.06,0-.06,0-.06,0-.06,0-.06a.14.14,0,0,0,0-.06l0-.07a.64.64,0,0,0,0-.07s0,0,0-.06a.64.64,0,0,1,0-.07s0-.05,0-.07a.17.17,0,0,1,0-.07v-.19a.15.15,0,0,1,0-.07s0,0,0-.06a.64.64,0,0,0,0-.07v-.06h0v0l0-.09a.25.25,0,0,1,0-.07l0-.06a.21.21,0,0,0,0-.06l0-.06,0-.06a.21.21,0,0,0,0-.06l0-.05,0,0a.12.12,0,0,0-.05-.05s0,0,0,0l0,0-.06,0,0,0-.06,0-.06,0-.07,0-.06,0-.07,0-.06,0-.07,0h-.3Zm0,0"/><path class="cls-17" d="M88.39,61.34H88l-.09,0-.07,0-.06,0-.06,0-.06,0-.06,0,0,0-.06.05,0,0,0,0,0,.05,0,.06,0,.05a.21.21,0,0,0,0,.06l0,.06,0,.06,0,.06,0,.07a.14.14,0,0,1,0,.06s0,.05,0,.07a.64.64,0,0,0,0,.07s0,0,0,.06,0,0,0,.07,0,0,0,.07v.19s0,0,0,.07,0,0,0,.07,0,0,0,.06a.15.15,0,0,0,0,.07h0v0l0,.09s0,0,0,.06l0,.06,0,.06,0,.06,0,.06a.21.21,0,0,0,0,.06.1.1,0,0,0,0,0l0,.06.05,0a.12.12,0,0,0,0,.05s0,0,0,0l.06,0,0,0,.06,0,.06,0a.09.09,0,0,0,.07,0l.06,0L88,64l.06,0,.07,0h.69l.09,0,.06,0L89,64l.06,0,.06,0,.06,0,0,0,.06,0,0,0,0-.05,0,0,0,0,0-.06,0-.06,0-.06,0-.06,0-.06a.14.14,0,0,0,0-.06l0-.07a.64.64,0,0,0,0-.07s0,0,0-.06a.64.64,0,0,1,0-.07s0-.05,0-.07a.17.17,0,0,1,0-.07v-.19a.15.15,0,0,1,0-.07s0,0,0-.06a.64.64,0,0,0,0-.07v-.06h0v0l0-.09a.25.25,0,0,1,0-.07l0-.06a.21.21,0,0,0,0-.06l0-.06,0-.06a.21.21,0,0,0,0-.06l0-.05,0,0a.12.12,0,0,0-.05-.05s0,0,0,0l0,0-.06,0,0,0-.06,0-.06,0-.07,0-.06,0-.07,0-.06,0-.07,0h-.3Zm0,0"/><path class="cls-17" d="M88.39,61.34H88l-.09,0-.07,0-.06,0-.06,0-.06,0-.06,0,0,0-.06.05,0,0,0,0,0,.05,0,.06,0,.05a.21.21,0,0,0,0,.06l0,.06,0,.06,0,.06,0,.07a.14.14,0,0,1,0,.06s0,.05,0,.07a.64.64,0,0,0,0,.07s0,0,0,.06,0,0,0,.07,0,0,0,.07v.19s0,0,0,.07,0,0,0,.07,0,0,0,.06a.17.17,0,0,0,0,.07h0v0l0,.09s0,0,0,.06l0,.06,0,.06,0,.06,0,.06a.21.21,0,0,0,0,.06.1.1,0,0,0,0,0l0,.06.05,0a.12.12,0,0,0,0,.05s0,0,0,0l.06,0,0,0,.06,0,.06,0a.09.09,0,0,0,.07,0l.06,0L88,64l.06,0,.07,0,.07,0h.13a.08.08,0,0,0,.07,0h.26l.07,0h.09l.09,0,.06,0L89,64l.06,0,.06,0,.06,0,0,0,.06,0s0,0,0,0l0-.05,0,0,0,0,0-.06,0-.05a.21.21,0,0,1,0-.06l0-.07,0-.06a.14.14,0,0,0,0-.06l0-.07s0,0,0-.06,0-.05,0-.07,0-.05,0-.07,0,0,0-.07a.2.2,0,0,1,0-.07v-.18a.2.2,0,0,1,0-.07s0,0,0-.07,0,0,0-.07a.13.13,0,0,0,0-.06h0v0l0-.09a.19.19,0,0,1,0-.07l0-.06a.21.21,0,0,0,0-.06l0-.06,0-.06a.1.1,0,0,0,0,0l0-.06,0,0-.05-.05s0,0,0,0l0,0-.06,0,0,0-.06,0-.06,0-.07,0-.06,0-.07,0-.06,0-.07,0h-.3Zm0,0"/><path class="cls-17" d="M88.39,61.34H88l-.09,0-.07,0-.06,0-.06,0-.06,0-.06,0,0,0-.06.05,0,0,0,0,0,.05,0,.06,0,.05a.21.21,0,0,0,0,.06l0,.06,0,.06,0,.06,0,.07a.14.14,0,0,1,0,.06s0,.05,0,.07a.64.64,0,0,0,0,.07s0,0,0,.06,0,0,0,.07,0,0,0,.07v.19s0,0,0,.07,0,0,0,.07,0,0,0,.06a.15.15,0,0,0,0,.07h0v0l0,.09s0,0,0,.06l0,.06,0,.06,0,.06,0,.06a.21.21,0,0,0,0,.06.1.1,0,0,0,0,0l0,.06.05,0a.12.12,0,0,0,0,.05s0,0,0,0l.06,0,0,0,.06,0,.06,0a.09.09,0,0,0,.07,0l.06,0L88,64l.06,0,.07,0h.69l.09,0,.06,0L89,64l.06,0,.06,0,.06,0,0,0,.06,0,0,0,0-.05,0,0,0,0,0-.06,0-.06,0-.06,0-.06,0-.06a.14.14,0,0,0,0-.06l0-.07a.64.64,0,0,0,0-.07s0,0,0-.06a.64.64,0,0,1,0-.07s0-.05,0-.07a.17.17,0,0,1,0-.07v-.19a.15.15,0,0,1,0-.07s0,0,0-.06a.64.64,0,0,0,0-.07v-.06h0v0l0-.09a.25.25,0,0,1,0-.07l0-.06a.21.21,0,0,0,0-.06l0-.06,0-.06a.21.21,0,0,0,0-.06l0-.05,0,0a.12.12,0,0,0-.05-.05s0,0,0,0l0,0-.06,0,0,0-.06,0-.06,0-.07,0-.06,0-.07,0-.06,0-.07,0h-.3Zm0,0"/><path class="cls-17" d="M88.39,61.34H88l-.09,0-.07,0-.06,0-.06,0-.06,0-.06,0,0,0-.06.05,0,0,0,0,0,.05,0,.06,0,.05a.21.21,0,0,0,0,.06l0,.06,0,.06,0,.06,0,.07a.14.14,0,0,1,0,.06s0,.05,0,.07a.64.64,0,0,0,0,.07s0,0,0,.06,0,0,0,.07,0,0,0,.07v.19s0,0,0,.07,0,0,0,.07,0,0,0,.06a.15.15,0,0,0,0,.07h0v0l0,.09s0,0,0,.06l0,.06,0,.06,0,.06,0,.06a.21.21,0,0,0,0,.06.1.1,0,0,0,0,0l0,.06.05,0a.12.12,0,0,0,0,.05s0,0,0,0l.06,0,0,0,.06,0,.06,0a.09.09,0,0,0,.07,0l.06,0L88,64l.06,0,.07,0h.69l.09,0,.06,0L89,64l.06,0,.06,0,.06,0,0,0,.06,0,0,0,0-.05,0,0,0,0,0-.06,0-.06,0-.06,0-.06,0-.06a.14.14,0,0,0,0-.06l0-.07a.64.64,0,0,0,0-.07s0,0,0-.06a.64.64,0,0,1,0-.07s0-.05,0-.07a.17.17,0,0,1,0-.07v-.19a.15.15,0,0,1,0-.07s0,0,0-.06a.64.64,0,0,0,0-.07v-.06h0v0l0-.09a.25.25,0,0,1,0-.07l0-.06a.21.21,0,0,0,0-.06l0-.06,0-.06a.21.21,0,0,0,0-.06l0-.05,0,0a.12.12,0,0,0-.05-.05s0,0,0,0l0,0-.06,0,0,0-.06,0-.06,0-.07,0-.06,0-.07,0-.06,0-.07,0h-.3Zm0,0"/><path class="cls-17" d="M88.39,61.34H88l-.09,0-.07,0-.06,0-.06,0-.06,0-.06,0,0,0-.06.05,0,0,0,0,0,.05,0,.06,0,.05a.21.21,0,0,0,0,.06l0,.06,0,.06,0,.06,0,.07a.14.14,0,0,1,0,.06s0,.05,0,.07a.64.64,0,0,0,0,.07s0,0,0,.06,0,0,0,.07,0,0,0,.07v.19s0,0,0,.07,0,0,0,.07,0,0,0,.06a.15.15,0,0,0,0,.07h0v0l0,.09s0,0,0,.06l0,.06,0,.06,0,.06,0,.06a.21.21,0,0,0,0,.06.1.1,0,0,0,0,0l0,.06.05,0a.12.12,0,0,0,0,.05s0,0,0,0l.06,0,0,0,.06,0,.06,0a.09.09,0,0,0,.07,0l.06,0L88,64l.06,0,.07,0h.69l.09,0,.06,0L89,64l.06,0,.06,0,.06,0,0,0,.06,0,0,0,0-.05,0,0,0,0,0-.06,0-.06,0-.06,0-.06,0-.06a.14.14,0,0,0,0-.06l0-.07a.64.64,0,0,0,0-.07s0,0,0-.06a.64.64,0,0,1,0-.07s0-.05,0-.07a.17.17,0,0,1,0-.07v-.19a.15.15,0,0,1,0-.07s0,0,0-.06a.64.64,0,0,0,0-.07v-.06h0v0l0-.09a.25.25,0,0,1,0-.07l0-.06a.21.21,0,0,0,0-.06l0-.06,0-.06a.21.21,0,0,0,0-.06l0-.05,0,0a.12.12,0,0,0-.05-.05s0,0,0,0l0,0-.06,0,0,0-.06,0-.06,0-.07,0-.06,0-.07,0-.06,0-.07,0h-.3Zm0,0"/><path class="cls-17" d="M88.39,61.34H88l-.09,0-.07,0-.06,0-.06,0-.06,0-.06,0,0,0-.06.05,0,0,0,0,0,.05,0,.06,0,.05a.21.21,0,0,0,0,.06l0,.06,0,.06,0,.06,0,.07a.14.14,0,0,1,0,.06s0,.05,0,.07a.64.64,0,0,0,0,.07s0,0,0,.06,0,0,0,.07,0,0,0,.07v.19s0,0,0,.07,0,0,0,.07,0,0,0,.06a.15.15,0,0,0,0,.07h0v0l0,.09s0,0,0,.06l0,.06,0,.06,0,.06,0,.06a.21.21,0,0,0,0,.06.1.1,0,0,0,0,0l0,.06.05,0a.12.12,0,0,0,0,.05s0,0,0,0l.06,0,0,0,.06,0,.06,0a.09.09,0,0,0,.07,0l.06,0L88,64l.06,0,.07,0h.69l.09,0,.06,0L89,64l.06,0,.06,0,.06,0,0,0,.06,0,0,0,0-.05,0,0,0,0,0-.06,0-.06,0-.06,0-.06,0-.06a.14.14,0,0,0,0-.06l0-.07a.64.64,0,0,0,0-.07s0,0,0-.06a.64.64,0,0,1,0-.07s0-.05,0-.07a.17.17,0,0,1,0-.07v-.19a.15.15,0,0,1,0-.07s0,0,0-.06a.64.64,0,0,0,0-.07v-.06h0v0l0-.09a.25.25,0,0,1,0-.07l0-.06a.21.21,0,0,0,0-.06l0-.06,0-.06a.21.21,0,0,0,0-.06l0-.05,0,0a.12.12,0,0,0-.05-.05s0,0,0,0l0,0-.06,0,0,0-.06,0-.06,0-.07,0-.06,0-.07,0-.06,0-.07,0h-.3Zm0,0"/><path class="cls-17" d="M88.39,61.34H88l-.09,0-.07,0-.06,0-.06,0-.06,0-.06,0,0,0-.06.05,0,0,0,0,0,.05,0,.06,0,.05a.21.21,0,0,0,0,.06l0,.06,0,.06,0,.06,0,.07a.14.14,0,0,1,0,.06s0,.05,0,.07a.64.64,0,0,0,0,.07s0,0,0,.06,0,0,0,.07,0,0,0,.07v.19s0,0,0,.07,0,0,0,.07,0,0,0,.06a.15.15,0,0,0,0,.07h0v0l0,.09s0,0,0,.06l0,.06,0,.06,0,.06,0,.06a.21.21,0,0,0,0,.06.1.1,0,0,0,0,0l0,.06.05,0a.12.12,0,0,0,0,.05s0,0,0,0l.06,0,0,0,.06,0,.06,0a.09.09,0,0,0,.07,0l.06,0L88,64l.06,0,.07,0h.69l.09,0,.06,0L89,64l.06,0,.06,0,.06,0,0,0,.06,0,0,0,0-.05,0,0,0,0,0-.06,0-.06,0-.06,0-.06,0-.06a.14.14,0,0,0,0-.06l0-.07a.64.64,0,0,0,0-.07s0,0,0-.06a.64.64,0,0,1,0-.07s0-.05,0-.07a.17.17,0,0,1,0-.07v-.19a.15.15,0,0,1,0-.07s0,0,0-.06a.64.64,0,0,0,0-.07v-.06h0v0l0-.09a.25.25,0,0,1,0-.07l0-.06a.21.21,0,0,0,0-.06l0-.06,0-.06a.21.21,0,0,0,0-.06l0-.05,0,0a.12.12,0,0,0-.05-.05s0,0,0,0l0,0-.06,0,0,0-.06,0-.06,0-.07,0-.06,0-.07,0-.06,0-.07,0h-.3Zm0,0"/><path class="cls-17" d="M88.39,61.34H88l-.09,0-.07,0-.06,0-.06,0-.06,0-.06,0,0,0-.06.05,0,0,0,0,0,.05,0,.06,0,.05a.21.21,0,0,0,0,.06l0,.06,0,.06,0,.06,0,.07a.14.14,0,0,1,0,.06s0,.05,0,.07a.64.64,0,0,0,0,.07s0,0,0,.06,0,0,0,.07,0,0,0,.07v.19s0,0,0,.07,0,0,0,.07,0,0,0,.06a.15.15,0,0,0,0,.07h0v0l0,.09s0,0,0,.06l0,.06,0,.06,0,.06,0,.06a.21.21,0,0,0,0,.06.1.1,0,0,0,0,0l0,.06.05,0a.12.12,0,0,0,0,.05s0,0,0,0l.06,0,0,0,.06,0,.06,0a.09.09,0,0,0,.07,0l.06,0L88,64l.06,0,.07,0h.69l.09,0,.06,0L89,64l.06,0,.06,0,.06,0,0,0,.06,0,0,0,0-.05,0,0,0,0,0-.06,0-.06,0-.06,0-.06,0-.06a.14.14,0,0,0,0-.06l0-.07a.64.64,0,0,0,0-.07s0,0,0-.06a.64.64,0,0,1,0-.07s0-.05,0-.07a.17.17,0,0,1,0-.07v-.19a.15.15,0,0,1,0-.07s0,0,0-.06a.64.64,0,0,0,0-.07v-.06h0v0l0-.09a.25.25,0,0,1,0-.07l0-.06a.21.21,0,0,0,0-.06l0-.06,0-.06a.21.21,0,0,0,0-.06l0-.05,0,0a.12.12,0,0,0-.05-.05s0,0,0,0l0,0-.06,0,0,0-.06,0-.06,0-.07,0-.06,0-.07,0-.06,0-.07,0h-.3Zm0,0"/><path class="cls-17" d="M88.39,61.34H88l-.09,0-.07,0-.06,0-.06,0-.06,0-.06,0,0,0-.06.05,0,0,0,0,0,.05,0,.06,0,.05a.21.21,0,0,0,0,.06l0,.06,0,.06,0,.06,0,.07a.14.14,0,0,1,0,.06s0,.05,0,.07a.64.64,0,0,0,0,.07s0,0,0,.06,0,0,0,.07,0,0,0,.07v.19s0,0,0,.07,0,0,0,.07,0,0,0,.06a.15.15,0,0,0,0,.07h0v0l0,.09s0,0,0,.06l0,.06,0,.06,0,.06,0,.06a.21.21,0,0,0,0,.06.1.1,0,0,0,0,0l0,.06.05,0a.12.12,0,0,0,0,.05s0,0,0,0l.06,0,0,0,.06,0,.06,0a.09.09,0,0,0,.07,0l.06,0L88,64l.06,0,.07,0h.69l.09,0,.06,0L89,64l.06,0,.06,0,.06,0,0,0,.06,0,0,0,0-.05,0,0,0,0,0-.06,0-.06,0-.06,0-.06,0-.06a.14.14,0,0,0,0-.06l0-.07a.64.64,0,0,0,0-.07s0,0,0-.06a.64.64,0,0,1,0-.07s0-.05,0-.07a.17.17,0,0,1,0-.07v-.19a.15.15,0,0,1,0-.07s0,0,0-.06a.64.64,0,0,0,0-.07v-.06h0v0l0-.09a.25.25,0,0,1,0-.07l0-.06a.21.21,0,0,0,0-.06l0-.06,0-.06a.21.21,0,0,0,0-.06l0-.05,0,0a.12.12,0,0,0-.05-.05s0,0,0,0l0,0-.06,0,0,0-.06,0-.06,0-.07,0-.06,0-.07,0-.06,0-.07,0h-.3Zm0,0"/><path class="cls-17" d="M88.39,61.34H88l-.09,0-.07,0-.06,0-.06,0-.06,0-.06,0,0,0-.06.05,0,0,0,0,0,.05,0,.06,0,.05a.21.21,0,0,0,0,.06l0,.06,0,.06,0,.06,0,.07a.14.14,0,0,1,0,.06s0,.05,0,.07a.64.64,0,0,0,0,.07s0,0,0,.06,0,0,0,.07,0,0,0,.07v.19s0,0,0,.07,0,0,0,.07,0,0,0,.06a.15.15,0,0,0,0,.07h0v0l0,.09s0,0,0,.06l0,.06,0,.06,0,.06,0,.06a.21.21,0,0,0,0,.06.1.1,0,0,0,0,0l0,.06.05,0a.12.12,0,0,0,0,.05s0,0,0,0l.06,0,0,0,.06,0,.06,0a.09.09,0,0,0,.07,0l.06,0L88,64l.06,0,.07,0h.69l.09,0,.06,0L89,64l.06,0,.06,0,.06,0,0,0,.06,0,0,0,0-.05,0,0,0,0,0-.06,0-.06,0-.06,0-.06,0-.06a.14.14,0,0,0,0-.06l0-.07a.64.64,0,0,0,0-.07s0,0,0-.06a.64.64,0,0,1,0-.07s0-.05,0-.07a.17.17,0,0,1,0-.07v-.19a.15.15,0,0,1,0-.07s0,0,0-.06a.64.64,0,0,0,0-.07v-.06h0v0l0-.09a.25.25,0,0,1,0-.07l0-.06a.21.21,0,0,0,0-.06l0-.06,0-.06a.21.21,0,0,0,0-.06l0-.05,0,0a.12.12,0,0,0-.05-.05s0,0,0,0l0,0-.06,0,0,0-.06,0-.06,0-.07,0-.06,0-.07,0-.06,0-.07,0h-.3Zm0,0"/><path class="cls-17" d="M88.39,61.34H88l-.09,0-.07,0-.06,0-.06,0-.06,0-.06,0,0,0-.06.05,0,0,0,0,0,.05,0,.06,0,.05a.21.21,0,0,0,0,.06l0,.06,0,.06,0,.06,0,.07a.14.14,0,0,1,0,.06s0,.05,0,.07a.64.64,0,0,0,0,.07s0,0,0,.06,0,0,0,.07,0,0,0,.07v.19s0,0,0,.07,0,0,0,.07,0,0,0,.06a.15.15,0,0,0,0,.07h0v0l0,.09s0,0,0,.06l0,.06,0,.06,0,.06,0,.06a.21.21,0,0,0,0,.06.1.1,0,0,0,0,0l0,.06.05,0a.12.12,0,0,0,0,.05s0,0,0,0l.06,0,0,0,.06,0,.06,0a.09.09,0,0,0,.07,0l.06,0L88,64l.06,0,.07,0h.69l.09,0,.06,0L89,64l.06,0,.06,0,.06,0,0,0,.06,0,0,0,0-.05,0,0,0,0,0-.06,0-.06,0-.06,0-.06,0-.06a.14.14,0,0,0,0-.06l0-.07a.64.64,0,0,0,0-.07s0,0,0-.06a.64.64,0,0,1,0-.07s0-.05,0-.07a.17.17,0,0,1,0-.07v-.19a.15.15,0,0,1,0-.07s0,0,0-.06a.64.64,0,0,0,0-.07v-.06h0v0l0-.09a.25.25,0,0,1,0-.07l0-.06a.21.21,0,0,0,0-.06l0-.06,0-.06a.21.21,0,0,0,0-.06l0-.05,0,0a.12.12,0,0,0-.05-.05s0,0,0,0l0,0-.06,0,0,0-.06,0-.06,0-.07,0-.06,0-.07,0-.06,0-.07,0h-.3Zm0,0"/><path class="cls-1" d="M107.18,26.61c-2.18,0-13.86-.38-23.61,3.92-3.8,1.68-7.66,5.14-7.93,10.59A124.2,124.2,0,0,1,73.14,62c-.63,3.25,0,6.21,1.76,8.13A10.48,10.48,0,0,0,81.38,73a247.3,247.3,0,0,0,25.8,1.47A247.3,247.3,0,0,0,133,73a10.46,10.46,0,0,0,6.48-2.92c1.78-1.92,2.39-4.88,1.76-8.13a124.2,124.2,0,0,1-2.5-20.83c-.27-5.45-4.13-8.91-7.93-10.59-9.75-4.3-21.43-3.92-23.61-3.92Zm0,5.55c2.58,0,13.26-.13,21.36,3.45,2.8,1.23,4.48,2.59,4.64,5.78A130.41,130.41,0,0,0,135.77,63c.42,2.16.06,2.81-.38,3.28a5.65,5.65,0,0,1-3.17,1.2c-6.22.87-19.49,1.42-25,1.42s-18.82-.55-25-1.42A5.65,5.65,0,0,1,79,66.3c-.44-.47-.8-1.12-.38-3.28a131.55,131.55,0,0,0,2.6-21.63c.15-3.19,1.84-4.55,4.63-5.78,8.1-3.58,18.78-3.45,21.36-3.45Zm0,0"/><path class="cls-1" d="M94.38,19a11.36,11.36,0,0,0-5.61,1.62C83.65,23.7,80.08,26.08,74.61,30a14.67,14.67,0,0,0-6.41,9.88c-.52,4.15-1.07,9.72-1.22,15s-.07,10.1,1.41,13.69A9.67,9.67,0,0,0,73,73.59a10.68,10.68,0,0,0,5.51,1,17.62,17.62,0,0,0,6-1.6l-2.44-5a12.92,12.92,0,0,1-4,1,5.4,5.4,0,0,1-2.71-.4,3.71,3.71,0,0,1-1.89-2.2c-.7-1.69-1.13-6.41-1-11.41s.68-10.43,1.18-14.46a9.41,9.41,0,0,1,4.12-6c5.41-3.85,8.78-6.1,13.79-9.09,2.55-1.54,4.94-1,5.86.61l2.76,4.82,4.82-2.76-2.76-4.82A8.69,8.69,0,0,0,94.38,19Zm0,0"/><path class="cls-1" d="M120,19a8.7,8.7,0,0,0-7.92,4.24l-2.76,4.82,4.82,2.76L116.88,26c.92-1.62,3.31-2.15,5.86-.61,5,3,8.38,5.24,13.79,9.09a9.37,9.37,0,0,1,4.12,6c.51,4,1,9.46,1.18,14.46s-.29,9.72-1,11.41A3.71,3.71,0,0,1,139,68.6a5.4,5.4,0,0,1-2.71.4,12.92,12.92,0,0,1-4-1l-2.44,5a17.7,17.7,0,0,0,6,1.6,10.68,10.68,0,0,0,5.51-1A9.63,9.63,0,0,0,146,68.52c1.48-3.59,1.56-8.41,1.41-13.69s-.7-10.84-1.22-15A14.67,14.67,0,0,0,139.75,30c-5.47-3.88-9-6.26-14.16-9.33A11.36,11.36,0,0,0,120,19Zm0,0"/><path class="cls-18" d="M83.34,70.45S74.07,75,71,67.46c-2.19-5.27-1-19.1,0-27.28.41-3.31,2.66-6.11,5.26-8,5.44-3.86,8.91-6.17,14-9.21,3.6-2.15,7.91-1.52,9.7,1.62l2.76,4.82Zm0,0"/><path class="cls-6" d="M94.71,21.75A8.57,8.57,0,0,0,90.19,23c-5.06,3-8.53,5.35-14,9.21-2.6,1.85-4.85,4.65-5.26,8-1,8.18-2.19,22,0,27.28a6.7,6.7,0,0,0,2.92,3.46c-2-6-.83-20.31.18-28.87a13.05,13.05,0,0,1,5.39-8.58c5.57-4.16,9.11-6.66,14.29-9.92a8.69,8.69,0,0,1,3.45-1.29,6.58,6.58,0,0,0-2.48-.51Zm0,0"/><path class="cls-1" d="M94.37,20.84a9.44,9.44,0,0,0-4.65,1.38c-5.08,3-8.58,5.38-14,9.25A12.92,12.92,0,0,0,70,40.07c-.52,4.11-1.06,9.63-1.21,14.82s0,10,1.27,12.92a7.7,7.7,0,0,0,3.7,4.12,9,9,0,0,0,4.58.76,16,16,0,0,0,5.37-1.41l-.82-1.66a14.66,14.66,0,0,1-4.68,1.23,7.17,7.17,0,0,1-3.64-.59,5.7,5.7,0,0,1-2.8-3.16c-1-2.31-1.27-7.07-1.13-12.16s.69-10.57,1.19-14.64A11.21,11.21,0,0,1,76.75,33c5.44-3.86,8.87-6.15,13.92-9.17,3.25-1.95,6.91-1.35,8.42,1.28l2.75,4.82,1.61-.92-2.76-4.82a6.86,6.86,0,0,0-6.32-3.33Zm0,0"/><path class="cls-5" d="M131,70.45s9.27,4.52,12.38-3c2.19-5.27,1-19.1,0-27.28-.41-3.31-2.66-6.11-5.26-8-5.44-3.86-8.91-6.17-14-9.21-3.6-2.15-7.91-1.52-9.7,1.62l-2.76,4.82Zm0,0"/><path class="cls-1" d="M120,20.84a6.86,6.86,0,0,0-6.32,3.33L110.91,29l1.61.92,2.75-4.82c1.51-2.63,5.17-3.23,8.42-1.28,5.05,3,8.48,5.31,13.92,9.17a11.21,11.21,0,0,1,4.88,7.32c.51,4.07,1,9.55,1.19,14.64s-.17,9.85-1.13,12.16a5.63,5.63,0,0,1-2.8,3.16,7.17,7.17,0,0,1-3.64.59,14.66,14.66,0,0,1-4.68-1.23l-.82,1.66A16,16,0,0,0,136,72.69a9,9,0,0,0,4.58-.76,7.67,7.67,0,0,0,3.7-4.12c1.22-3,1.42-7.74,1.27-12.92s-.69-10.71-1.21-14.82a12.92,12.92,0,0,0-5.64-8.6c-5.46-3.87-9-6.21-14-9.25A9.44,9.44,0,0,0,120,20.84Zm0,0"/><path class="cls-18" d="M84.7,33.07c-3.3,1.46-6.07,3.86-6.29,8.19a127.45,127.45,0,0,1-2.54,21.23c-1.06,5.4,1.94,7.21,5.89,7.76a251.22,251.22,0,0,0,25.42,1.45,251.22,251.22,0,0,0,25.42-1.45c4-.55,7-2.36,5.89-7.76A128.52,128.52,0,0,1,136,41.26c-.21-4.33-3-6.73-6.28-8.19-8.93-3.94-20.11-3.68-22.49-3.68s-13.56-.26-22.48,3.68Zm0,0"/><path class="cls-6" d="M97.86,29.81a50.54,50.54,0,0,0-10.14,2.11,11.76,11.76,0,0,0-2.4,7A199.36,199.36,0,0,1,82.78,65.5a12.51,12.51,0,0,0,0,4.89c2.45.29,5.57.54,8.82.75A13.23,13.23,0,0,1,91.56,66a212.28,212.28,0,0,0,2.55-27.42,11.86,11.86,0,0,1,3.75-8.74Zm0,0"/><path class="cls-5" d="M116.5,29.81a11.9,11.9,0,0,1,3.76,8.74A210.43,210.43,0,0,0,122.8,66a13,13,0,0,1-.08,5.17c3.74-.24,7.31-.53,9.88-.89,4-.55,7-2.36,5.89-7.76A128.52,128.52,0,0,1,136,41.26c-.21-4.33-3-6.73-6.28-8.19a45.51,45.51,0,0,0-13.17-3.26Zm0,0"/><path class="cls-1" d="M107.18,28.46c-2.32,0-13.66-.3-22.86,3.77-3.46,1.53-6.6,4.28-6.83,9A126.61,126.61,0,0,1,75,62.31c-.56,2.88,0,5.07,1.3,6.51a8.75,8.75,0,0,0,5.37,2.34,246.22,246.22,0,0,0,25.55,1.46,246.22,246.22,0,0,0,25.55-1.46,8.75,8.75,0,0,0,5.37-2.34c1.34-1.44,1.86-3.63,1.3-6.51a126.61,126.61,0,0,1-2.53-21.1c-.23-4.7-3.36-7.45-6.83-9-9.2-4.07-20.54-3.77-22.86-3.77Zm0,1.85c2.45,0,13.46-.21,22.11,3.61,3.13,1.38,5.54,3.43,5.73,7.38a130,130,0,0,0,2.56,21.36c.5,2.52,0,3.94-.83,4.9a7.18,7.18,0,0,1-4.28,1.77,250.56,250.56,0,0,1-25.29,1.44,250.56,250.56,0,0,1-25.29-1.44,7.12,7.12,0,0,1-4.27-1.77c-.89-1-1.34-2.38-.84-4.9A128.92,128.92,0,0,0,79.34,41.3c.19-3.95,2.6-6,5.73-7.38,8.65-3.82,19.66-3.61,22.11-3.61Zm0,0"/><path class="cls-19" d="M111.87,55.12c-1,.76-3.39-1.62-4.67-1.62s-3.64,2.38-4.68,1.62.49-3.73.09-4.95-3.38-2.72-3-4,3.69-.68,4.73-1.44,1.55-4.06,2.84-4.06S109,44,110,44.78s4.34.22,4.73,1.44-2.58,2.73-3,4,1.13,4.19.09,4.95Zm0,0"/><path class="cls-1" d="M107.2,40.26A1.56,1.56,0,0,0,106,41a7.16,7.16,0,0,0-.73,1.31c-.21.47-.41.95-.61,1.34a2.5,2.5,0,0,1-.56.79,2.59,2.59,0,0,1-.92.29c-.44.07-1,.11-1.47.17a6.28,6.28,0,0,0-1.47.28,1.56,1.56,0,0,0-1,.93,1.54,1.54,0,0,0,.3,1.37,6.92,6.92,0,0,0,1,1.09c.38.35.77.68,1.08,1a2.55,2.55,0,0,1,.58.78,2.39,2.39,0,0,1,0,1c-.07.44-.19.94-.29,1.45a7,7,0,0,0-.18,1.48,1.55,1.55,0,0,0,.56,1.28,1.52,1.52,0,0,0,1.39.14A7.14,7.14,0,0,0,105,55c.45-.26.89-.53,1.29-.73a2.48,2.48,0,0,1,.92-.31,2.66,2.66,0,0,1,.91.31c.4.2.84.47,1.29.73a7.44,7.44,0,0,0,1.35.63,1.38,1.38,0,0,0,2-1.42,6.43,6.43,0,0,0-.18-1.48c-.1-.51-.22-1-.29-1.45a2.39,2.39,0,0,1,0-1,2.55,2.55,0,0,1,.58-.78c.31-.31.7-.64,1.08-1a6.92,6.92,0,0,0,1-1.09,1.57,1.57,0,0,0,.31-1.37,1.59,1.59,0,0,0-1-.93,6.28,6.28,0,0,0-1.47-.28c-.51-.06-1-.1-1.46-.17a2.66,2.66,0,0,1-.93-.29,2.5,2.5,0,0,1-.56-.79c-.2-.39-.4-.87-.61-1.34A7.16,7.16,0,0,0,108.4,41a1.53,1.53,0,0,0-1.2-.71Zm0,.92c.13,0,.27.08.47.35a5.5,5.5,0,0,1,.62,1.13c.21.45.41.94.63,1.38a3.09,3.09,0,0,0,.85,1.12,3,3,0,0,0,1.32.45c.49.08,1,.12,1.51.18a6,6,0,0,1,1.26.23c.32.11.44.23.47.34s0,.28-.18.56a6.6,6.6,0,0,1-.88.93c-.37.34-.77.68-1.12,1a3,3,0,0,0-.8,1.15,2.83,2.83,0,0,0,0,1.39c.07.49.19,1,.29,1.49a6.27,6.27,0,0,1,.17,1.28c0,.33-.08.48-.18.55s-.26.1-.58,0a5.6,5.6,0,0,1-1.16-.55c-.44-.24-.89-.52-1.33-.74a2.38,2.38,0,0,0-2.67,0c-.44.22-.9.5-1.33.74a5.6,5.6,0,0,1-1.16.55c-.32.1-.48.08-.58,0s-.17-.23-.18-.56a6.27,6.27,0,0,1,.17-1.28c.1-.48.22-1,.29-1.48a2.87,2.87,0,0,0,0-1.4,3,3,0,0,0-.8-1.15c-.35-.35-.75-.69-1.12-1a7.19,7.19,0,0,1-.88-.94c-.19-.28-.22-.44-.18-.56s.15-.23.47-.34a6,6,0,0,1,1.26-.23c.5-.06,1-.1,1.51-.18a3,3,0,0,0,1.32-.45,3,3,0,0,0,.84-1.12c.23-.44.43-.93.64-1.38a6.39,6.39,0,0,1,.61-1.13c.21-.26.35-.35.47-.35Zm0,0"/><path class="cls-5" d="M119.82,66.26a1.8,1.8,0,0,1-3.07,1.27,1.77,1.77,0,0,1-.53-1.27,1.8,1.8,0,0,1,3.6,0Zm0,0"/><path class="cls-5" d="M114.36,60.66a1,1,0,0,1-1,1,1,1,0,0,1-.69-1.67,1,1,0,0,1,.69-.28,1,1,0,0,1,1,1Zm0,0"/><path class="cls-5" d="M106.58,60.11a1,1,0,0,1-.28.69.94.94,0,0,1-.69.29,1,1,0,0,1-1-1,1,1,0,0,1,.29-.69,1,1,0,0,1,1.38,0,1,1,0,0,1,.28.69Zm0,0"/><path class="cls-6" d="M83.29,50.11a1,1,0,0,1-.28.69,1,1,0,0,1-.69.29,1,1,0,0,1-1-1,.94.94,0,0,1,.29-.69,1,1,0,0,1,.69-.28,1,1,0,0,1,.69.28,1,1,0,0,1,.28.69Zm0,0"/><path class="cls-6" d="M85.34,58.55a1.81,1.81,0,0,1-1.8,1.8,1.8,1.8,0,1,1,1.8-1.8Zm0,0"/><rect class="cls-1" x="21.36" y="146.64" width="15.51" height="28.11"/><path class="cls-1" d="M11.43,104a3.24,3.24,0,0,1,3.24-3.23h5.81A3.23,3.23,0,0,1,23.71,104v3.43a3.23,3.23,0,0,1-3.23,3.23H14.67a3.24,3.24,0,0,1-3.24-3.23Zm0,0"/><rect class="cls-1" x="12.52" y="79.81" width="10.09" height="24.19"/><path class="cls-1" d="M7.14,79.81H19V90.32H12.51L7.14,87.79Zm0,0"/><path class="cls-1" d="M23.63,169.06a3.23,3.23,0,0,1,3.24-3.22h4.05a4.71,4.71,0,0,1,2.92,1.07A4.37,4.37,0,0,1,35,168.44l11.95,4.94a3.27,3.27,0,0,1,1.92,2.28,13.52,13.52,0,0,1-3.46,12.2,3.25,3.25,0,0,1-3.36.55l-9.64-4s0,0-.07,0l-1.15.66a3.18,3.18,0,0,1-1.62.44h-2a3.23,3.23,0,0,1-3.23-3.09l-.63-13.16v-.17Zm6.67,4.05.24,5a7.13,7.13,0,0,1,4.3.29l7.4,3.06a6,6,0,0,0,.49-2.83l-11-4.56a4.35,4.35,0,0,1-1.41-1Zm0,0"/><path class="cls-1" d="M24.86,135.55l29.67-3.9L57,150.39l-30.65,4L25.51,148l24.22-3.19L49,138.91,25.7,142Zm0,0"/><path class="cls-1" d="M7.14,108.27a4.27,4.27,0,0,1,1.26-3,4.16,4.16,0,0,1,2.83-1.09H20.3a5.69,5.69,0,0,1,2.64.43,6,6,0,0,1,3.19,5.13v6.53l2.78,8.44a6.12,6.12,0,0,1-.83,5.64l1.15,21.9,1,1v6.17l-.6.59L31,185.45H17.5l-10.36-6Zm6.47,2.38v65.08L19.24,179h4.9L23,157.47l.73-.73v-.81l-.86-.86-1.51-28.91,1.12-.22-2.84-8.63v-6.66Zm7.1,0a.28.28,0,0,0,.16,0Zm0,0"/><path class="cls-1" d="M12.72,188.22l.95-.95,1.46-1.46V179L30,179l7.56,27.91a4.92,4.92,0,0,1-1.1,4.53,4.84,4.84,0,0,1-4.14,1.35l-15.33-2a4.64,4.64,0,0,1-4.24-4.8Zm6.47,2.68v13.65l11.39,1.5L25,185.47h-3.4v3Zm0,0"/><rect class="cls-20" x="14.67" y="103.99" width="5.81" height="3.42"/><path class="cls-21" d="M10.37,83h5.39v4H13.24l-2.87-1.35Zm0,0"/><rect class="cls-21" x="15.76" y="83.04" width="3.62" height="20.95"/><path class="cls-22" d="M26.79,168.78c1.08-2.21,1.86-1.7,3.13-2.22,2.3-1,1.83-4.15,1.83-4.15H30.9c-.84,1.46-1,2-3.1,1.8l-1.26-1Zm0,0"/><path class="cls-22" d="M27,158.08h4.65v-2.39c0-.78-.47-1.1-1.19-1.1H27Zm0,0"/><path class="cls-23" d="M26.87,169.07h4.05c1.42,0,1,1.62,2,2l12.72,5.26a9.41,9.41,0,0,1-2.42,9l-9.65-4a2.76,2.76,0,0,0-2.65,0l-1.42.82h-2Zm0,0"/><path class="cls-24" d="M25.93,151.22l27.44-3.62-1.63-12.32-26.46,3.48Zm0,0"/><path class="cls-20" d="M10.37,108.27a.8.8,0,0,1,.86-.85h9.25a2.11,2.11,0,0,1,2.41,2.32v7.05l2.95,8.93c.87,2.66-1.09,3.06-1.09,3.06l1.31,24.88.93.93v3.49l-.66.67,1.23,23.46H18.37l-8-4.61Zm0,0"/><path class="cls-25" d="M16,107.42v73.42l1.5.86V107.42Zm0,0"/><path class="cls-21" d="M20.48,107.42a2.11,2.11,0,0,1,2.41,2.32v7.05l2.95,8.93c.87,2.66-1.09,3.06-1.09,3.06l1.31,24.88.93.93v3.49l-.66.67,1.23,23.46H20.48Zm0,0"/><path class="cls-21" d="M10.37,108.27a.8.8,0,0,1,.86-.85h3.42v72.65l-4.28-2.47Zm0,0"/><path class="cls-23" d="M10.37,108.27a.8.8,0,0,1,.86-.85h9.25a2.11,2.11,0,0,1,2.41,2.32v7.05l2.95,8.93c.87,2.66-1.09,3.06-1.09,3.06H10.37Zm0,0"/><rect class="cls-26" x="15.98" y="107.42" width="1.5" height="21.36"/><path class="cls-27" d="M20.48,128.78V107.42a2.11,2.11,0,0,1,2.41,2.32v7.05l2.95,8.93c.87,2.66-1.09,3.06-1.09,3.06Zm0,0"/><path class="cls-27" d="M10.37,108.27a.8.8,0,0,1,.86-.85h3.42v21.36H10.37Zm0,0"/><path class="cls-23" d="M16,189.56l2.41-2.41v-4.94l9.12,0,6.91,25.53a1.4,1.4,0,0,1-1.69,1.82l-15.32-2A1.43,1.43,0,0,1,16,206Zm0,0"/><path class="cls-1" d="M14.2,103.53h6.74v4.35H14.2Zm.93.93V107H20v-2.49Zm0,0"/><path class="cls-1" d="M15.31,82.59h4.52V104h-.9V83.5H16.22V104h-.91Zm0,0"/><path class="cls-1" d="M9.91,82.58h6.31v5H13.13L9.91,86Zm.93.93v1.93l2.5,1.18h2V83.51Zm0,0"/><rect class="cls-1" x="14.19" y="107.42" width="0.92" height="72.65"/><rect class="cls-1" x="10.37" y="128.32" width="14.38" height="0.92"/><path class="cls-27" d="M26.87,169.07h3.9l1.58,12a2.44,2.44,0,0,0-1.4.33l-1.42.82h-2Zm0,0"/><path class="cls-22" d="M30.92,168.61a2.09,2.09,0,0,0,1.35-.4,1.66,1.66,0,0,0,.51-1.39l-.08-7.2c0-.66-.24-.83-.5-1a1.49,1.49,0,0,0-.54-.12l0-.92a2.19,2.19,0,0,1,1,.21,1.94,1.94,0,0,1,1,1.78l.07,7.2a2.65,2.65,0,0,1-.83,2.11,3,3,0,0,1-1.95.61Zm0,0"/><path class="cls-1" d="M26.38,168.61h4.54A1.58,1.58,0,0,1,32,169a2.13,2.13,0,0,1,.51.75,4.74,4.74,0,0,0,.3.63.6.6,0,0,0,.32.31L46.07,176l0,.23a10,10,0,0,1-2.57,9.49l-.22.19-9.9-4.1a2.25,2.25,0,0,0-2.25,0l-1.53.88h-2.6Zm1,.92.58,12.25H29.4l1.31-.76a3.35,3.35,0,0,1,3.07,0l9.36,3.88a8.88,8.88,0,0,0,2.12-8.17l-12.48-5.17a1.62,1.62,0,0,1-.77-.68,6.47,6.47,0,0,1-.34-.73,1.45,1.45,0,0,0-.28-.44.59.59,0,0,0-.47-.15Zm0,0"/><path class="cls-22" d="M27,154.13h3.46a1.73,1.73,0,0,1,1.17.37,1.54,1.54,0,0,1,.48,1.19v2.85H27v-.92h4.19v-1.93c0-.3-.07-.41-.17-.49a.85.85,0,0,0-.56-.15H27Zm0,0"/><path class="cls-1" d="M26.26,163.61l.57-.74,1.14.88a2.43,2.43,0,0,0,1.58-.21,4.68,4.68,0,0,0,.95-1.36l.13-.23h1.52l.06.39a6.23,6.23,0,0,1-.06,1.87A3.52,3.52,0,0,1,30.09,167c-.71.3-1.24.31-1.62.48s-.75.47-1.27,1.52l-.83-.41a3.72,3.72,0,0,1,1.73-2c.6-.26,1.09-.25,1.64-.48A2.61,2.61,0,0,0,31.25,164a4.58,4.58,0,0,0,.07-1.17h-.16a4.05,4.05,0,0,1-1.08,1.43,3.48,3.48,0,0,1-2.31.37h-.14Zm0,0"/><path class="cls-20" d="M23.09,161.34a1.11,1.11,0,1,0,0-2.22A1.1,1.1,0,0,0,22,160.23a1.08,1.08,0,0,0,.32.78,1.11,1.11,0,0,0,.79.33Zm0,0"/><path class="cls-20" d="M23.09,168.66a1.12,1.12,0,1,0-.79-1.9,1.08,1.08,0,0,0-.32.78,1.11,1.11,0,0,0,1.11,1.12Zm0,0"/><path class="cls-22" d="M25.28,138.76l4.33-.57,1.62,12.33-5.3.7Zm0,0"/><path class="cls-28" d="M48.4,135.72l3.34-.44,1.63,12.32L50,148Zm0,0"/><path class="cls-1" d="M25.22,138.3l26.92-3.54L53.88,148,26,151.67l-.12-.91,27-3.55L51.34,135.8l-26,3.42Zm0,0"/><path class="cls-1" d="M9.91,108.27a1.32,1.32,0,0,1,.39-1,1.33,1.33,0,0,1,.93-.35h9.19a3,3,0,0,1,1.44.21,2.61,2.61,0,0,1,1.5,2.57v7l2.91,8.86a2.92,2.92,0,0,1-.3,3,2.21,2.21,0,0,1-.73.55l1.27,24.36.94.94v3.87l-.65.66L28,182.68h-9.8l-8.33-4.82Zm.93,0v69.06l7.65,4.42h8.58l-1.22-23.19.68-.67v-3.11l-.92-.92-1.34-25.45.39-.08a1.34,1.34,0,0,0,.62-.39c.27-.31.52-.85.12-2.07l-3-9v-7.13c0-1.17-.45-1.52-.92-1.72a2.27,2.27,0,0,0-1-.15h-9.3a.44.44,0,0,0-.3.09.38.38,0,0,0-.09.3Zm0,0"/><path class="cls-27" d="M18.37,182.21l9.12,0,6.91,25.53a1.4,1.4,0,0,1-1.69,1.82l-2.89-.38a1.35,1.35,0,0,0,.6-1.65l-5.35-25.32-6.7,0Zm0,0"/><path class="cls-26" d="M16,189.56l2.41-2.41v-4.94h2V188L18,190.55V207a2.38,2.38,0,0,0,.07.63l-.68-.09A1.42,1.42,0,0,1,16,206Zm0,0"/><path class="cls-1" d="M15.49,189.37l.14-.14L17.91,187v-5.21l9.93,0,7,25.87a1.91,1.91,0,0,1-.41,1.86,2.06,2.06,0,0,1-1.79.54l-15.32-2a2.17,2.17,0,0,1-1.35-.61,2.08,2.08,0,0,1-.49-1.44Zm.93.38V206a1.08,1.08,0,0,0,.24.81,1.24,1.24,0,0,0,.79.32l15.32,2a1.19,1.19,0,0,0,1-.27.94.94,0,0,0,.18-1L27.14,182.7l-8.31,0v4.66Zm0,0"/><path class="cls-1" d="M48,135.78l.91-.12L50.49,148l-.92.12Zm0,0"/><path class="cls-1" d="M21.51,160.23a1.58,1.58,0,1,1,1.58,1.57,1.58,1.58,0,0,1-1.58-1.57Zm.93,0a.65.65,0,1,0,.65-.65.64.64,0,0,0-.65.65Zm0,0"/><path class="cls-1" d="M21.51,167.54a1.58,1.58,0,1,1,1.58,1.58,1.58,1.58,0,0,1-1.58-1.58Zm.93,0a.65.65,0,1,0,1.3,0,.65.65,0,1,0-1.3,0Zm0,0"/></svg>