<svg id="Слой_1" data-name="Слой 1" xmlns="http://www.w3.org/2000/svg" xmlns:xlink="http://www.w3.org/1999/xlink" viewBox="0 0 195.59 280.63"><defs><style>.cls-1{fill:none;}.cls-2{clip-path:url(#clip-path);}.cls-3,.cls-5{fill:#9f313a;}.cls-4{fill:#1a1a1a;}.cls-5{font-size:54.62px;}.cls-16,.cls-5{font-family:Impact;}.cls-16,.cls-6{fill:#fff;}.cls-7{fill:#af1739;}.cls-8{fill:#eb5775;}.cls-9{fill:#badbe9;}.cls-10{fill:#8bb0cc;}.cls-11{fill:#f293a2;}.cls-12{fill:#595959;}.cls-13{fill:#797979;}.cls-14{fill:#3e3e3e;}.cls-15{fill:#eb5a53;}.cls-16{font-size:20px;}</style><clipPath id="clip-path"><rect class="cls-1" x="-9.08" y="-8.91" width="213.74" height="298.44"/></clipPath></defs><g class="cls-2"><path class="cls-3" d="M186.66,211.19c-4.43,0-6.68-3.76-7.42-5a31.56,31.56,0,0,1-3.05-7.6c-.56-2-1.05-4.21-1.45-6.5a63.89,63.89,0,0,1-16.27,0c-.4,2.29-.89,4.5-1.45,6.5a31.39,31.39,0,0,1-3.05,7.6c-.74,1.23-3,5-7.42,5s-6.69-3.76-7.43-5a31.56,31.56,0,0,1-3.05-7.6,71.58,71.58,0,0,1-2.41-15,64.89,64.89,0,0,1-27.35-31.79l-.44.34a10.22,10.22,0,0,1-6,2.33A7.31,7.31,0,0,1,97.1,154l-.31-.14a7.35,7.35,0,0,1-1.68.2,10.19,10.19,0,0,1-6-2.32l-.43-.33A64.64,64.64,0,0,1,61.49,183a71.56,71.56,0,0,1-2.4,14.9,31.31,31.31,0,0,1-3,7.57c-.74,1.23-3,5-7.4,5s-6.66-3.74-7.4-5a31.31,31.31,0,0,1-3-7.57,64.36,64.36,0,0,1-1.44-6.46,63.27,63.27,0,0,1-16.19,0,64.36,64.36,0,0,1-1.44,6.46,30.91,30.91,0,0,1-3,7.57c-.73,1.23-3,5-7.4,5s-6.66-3.74-7.4-5a31.31,31.31,0,0,1-3-7.57A71.67,71.67,0,0,1-4.14,183a64.79,64.79,0,0,1-26.72-30.42l-.16.15a9.66,9.66,0,0,1-6.41,2.93,7.24,7.24,0,0,1-2.11-.31c-4.24-1.28-5.29-5.51-5.64-6.91a30.84,30.84,0,0,1-.72-8.12A71.45,71.45,0,0,1-43,122.19c1.73-5.68,4.32-9.68,7.71-11.87a11,11,0,0,1,1.8-.95A65,65,0,0,1-3.07,70.88a22.2,22.2,0,0,1-.37-4.08,21.7,21.7,0,0,1,6.1-15.46c4.5-4.54,11.14-7.16,19.73-7.79,3.59-.26,7-.39,10.21-.51,2.22-.08,4.4-.16,6.58-.28a86.71,86.71,0,0,0,16.15-2.23L66,38,63.35,45a90.38,90.38,0,0,0,10.34-2.57l8.88-3.12-1.23,9.39A46.57,46.57,0,0,1,68.05,75.93a64.7,64.7,0,0,1,23.07,34.31A21.53,21.53,0,0,1,97.58,119a21.27,21.27,0,0,1,6.32-8.38A65,65,0,0,1,127.08,76.1a46.69,46.69,0,0,1-13.35-27.32l-1.24-9.41,9,3.14a93.7,93.7,0,0,0,10.35,2.57L129.17,38l10.66,2.59A87.21,87.21,0,0,0,156,42.8c2.2.13,4.36.21,6.66.29,3.26.12,6.64.24,10.25.51,8.62.63,15.29,3.27,19.81,7.82a21.82,21.82,0,0,1,6.12,15.52,22.5,22.5,0,0,1-.38,4.1,65.22,65.22,0,0,1,30.59,38.66,11.14,11.14,0,0,1,1.81,1c3.41,2.2,6,6.21,7.73,11.92a71.57,71.57,0,0,1,2.89,18.2,31.17,31.17,0,0,1-.72,8.16c-.35,1.4-1.41,5.64-5.66,6.93a7.24,7.24,0,0,1-2.11.31h0a9.75,9.75,0,0,1-6.44-2.94l-.17-.16a65.06,65.06,0,0,1-26.84,30.56,71.58,71.58,0,0,1-2.41,15,31.14,31.14,0,0,1-3.06,7.6C193.35,207.43,191.1,211.19,186.66,211.19Z"/><path class="cls-4" d="M235.89,123.39c-1.64-5.41-3.91-8.65-6.56-10.36a8.87,8.87,0,0,0-2.61-1.14,62.38,62.38,0,0,0-31.52-39.4,19.24,19.24,0,0,0,.81-5.55,18.9,18.9,0,0,0-5.3-13.52c-3.81-3.84-9.73-6.38-18-7-6-.45-11.43-.49-16.86-.8a89.82,89.82,0,0,1-16.69-2.31L133.68,42l2,5.3.49,1.29a88.44,88.44,0,0,1-15.62-3.39l-4.61-1.62.64,4.84a43.69,43.69,0,0,0,15,28,62.35,62.35,0,0,0-25.16,35.95c-2.52,1.56-4.86,4.47-6.84,9.25-.72,1.73-1.38,3.62-2,5.56a61.63,61.63,0,0,0-2.09-5.94c-2-4.75-4.29-7.64-6.81-9.2A62.11,62.11,0,0,0,63.6,76.19,43.47,43.47,0,0,0,78.53,48.35l.63-4.82-4.59,1.61A88.61,88.61,0,0,1,59,48.53l.49-1.3,2-5.26L56,43.29a90.19,90.19,0,0,1-16.66,2.3c-5.39.3-10.76.35-16.74.79-8.24.6-14.14,3.14-17.93,7A18.84,18.84,0,0,0-.61,66.8,19.1,19.1,0,0,0,.2,72.33a62.09,62.09,0,0,0-31.38,39.23,8.82,8.82,0,0,0-2.6,1.14c-2.64,1.7-4.9,4.93-6.53,10.31a68.22,68.22,0,0,0-2.75,17.37,28.37,28.37,0,0,0,.63,7.38c.52,2.1,1.45,4.19,3.71,4.88s4.19-.55,5.8-2a23.5,23.5,0,0,0,3-3.47A62.2,62.2,0,0,0-1.37,181.32,69,69,0,0,0,1,197.13,28.5,28.5,0,0,0,3.74,204c1.11,1.85,2.6,3.59,5,3.59s3.86-1.74,5-3.59a28.51,28.51,0,0,0,2.74-6.89,65.6,65.6,0,0,0,1.8-8.91,61.35,61.35,0,0,0,20.94,0,65.61,65.61,0,0,0,1.79,8.91A28.92,28.92,0,0,0,43.68,204c1.12,1.85,2.61,3.59,5,3.59s3.85-1.74,5-3.59a28.92,28.92,0,0,0,2.74-6.89,69,69,0,0,0,2.36-15.81,62.14,62.14,0,0,0,28.82-35,22.87,22.87,0,0,0,3.29,3.1c1.74,1.29,3.79,2.32,6,1.42l.3-.16a4.22,4.22,0,0,0,1.09.66c2.19.91,4.24-.13,6-1.43a23.06,23.06,0,0,0,3.31-3.11A62.4,62.4,0,0,0,136.43,182a69.06,69.06,0,0,0,2.37,15.88,28.5,28.5,0,0,0,2.76,6.91c1.11,1.87,2.61,3.61,5,3.61s3.87-1.74,5-3.61a28.5,28.5,0,0,0,2.76-6.91,65.89,65.89,0,0,0,1.8-9,61.21,61.21,0,0,0,21,0,65.89,65.89,0,0,0,1.8,9,28.92,28.92,0,0,0,2.75,6.91c1.12,1.87,2.62,3.61,5,3.61s3.88-1.74,5-3.61a28.5,28.5,0,0,0,2.76-6.91A69.06,69.06,0,0,0,196.78,182a62.41,62.41,0,0,0,28.65-34.31,23.27,23.27,0,0,0,3,3.49c1.61,1.47,3.55,2.7,5.82,2s3.2-2.79,3.73-4.9a29,29,0,0,0,.64-7.41A68.85,68.85,0,0,0,235.89,123.39Z"/><text class="cls-5" transform="translate(36.64 262.59)">łotwa</text><path class="cls-3" d="M16.6,179.72c0,10.61-3.53,25.68-7.9,25.68S.8,190.33.8,179.72,5.47,167,8.7,167s7.9,2.12,7.9,12.73Zm0,0"/><path class="cls-4" d="M8.7,164.79A9,9,0,0,0,1.86,168c-2,2.4-3.26,6.14-3.26,11.77A68.77,68.77,0,0,0,1,197.14,28.58,28.58,0,0,0,3.74,204c1.11,1.85,2.6,3.59,5,3.59s3.86-1.74,5-3.59a28.59,28.59,0,0,0,2.74-6.88,68.34,68.34,0,0,0,2.4-17.42c0-5.63-1.24-9.37-3.26-11.77a9,9,0,0,0-6.85-3.16Zm0,4.41a4.22,4.22,0,0,1,3.48,1.6c1.12,1.32,2.22,3.94,2.22,8.92a65.26,65.26,0,0,1-2.23,16.22,25.38,25.38,0,0,1-2.28,5.81,4.64,4.64,0,0,1-1.19,1.41,4.69,4.69,0,0,1-1.18-1.41,25.38,25.38,0,0,1-2.28-5.81A65.26,65.26,0,0,1,3,179.72c0-5,1.1-7.6,2.21-8.92a4.25,4.25,0,0,1,3.48-1.6Zm0,0"/><path class="cls-3" d="M56.55,179.72c0,10.61-3.54,25.68-7.9,25.68s-7.9-15.07-7.9-25.68S45.42,167,48.65,167s7.9,2.12,7.9,12.73Zm0,0"/><path class="cls-4" d="M48.65,164.79A8.94,8.94,0,0,0,41.81,168c-2,2.4-3.27,6.14-3.27,11.77a68.34,68.34,0,0,0,2.4,17.42A29,29,0,0,0,43.68,204c1.12,1.85,2.61,3.59,5,3.59s3.85-1.74,5-3.59a29,29,0,0,0,2.74-6.88,68.34,68.34,0,0,0,2.4-17.42c0-5.63-1.24-9.37-3.27-11.77a8.94,8.94,0,0,0-6.84-3.16Zm0,4.41a4.25,4.25,0,0,1,3.48,1.6c1.12,1.32,2.22,3.94,2.22,8.92a64.81,64.81,0,0,1-2.24,16.22,25.38,25.38,0,0,1-2.28,5.81,4.53,4.53,0,0,1-1.18,1.41,4.53,4.53,0,0,1-1.18-1.41,25.38,25.38,0,0,1-2.28-5.81A64.81,64.81,0,0,1,43,179.72c0-5,1.1-7.6,2.22-8.92a4.25,4.25,0,0,1,3.48-1.6Zm0,0"/><path class="cls-6" d="M93.43,122c4,9.8,6.56,25.08,2.53,26.75s-13.07-10.9-17.13-20.7-.56-13.55,2.43-14.79,8.11-1.06,12.17,8.74Zm0,0"/><path class="cls-4" d="M80.41,111.27a8.93,8.93,0,0,0-5.11,5.54c-1,3-.66,6.92,1.49,12.12a68.22,68.22,0,0,0,8.88,15.17,28.8,28.8,0,0,0,5.16,5.31c1.74,1.29,3.79,2.32,6,1.42s2.9-3.08,3.21-5.22a28.54,28.54,0,0,0-.1-7.41,67.84,67.84,0,0,0-4.45-17C93.31,116,90.74,113,88,111.57a9,9,0,0,0-7.54-.3Zm1.69,4.07a4.27,4.27,0,0,1,3.83.15c1.53.79,3.55,2.79,5.46,7.39a65.56,65.56,0,0,1,4.15,15.85,25.48,25.48,0,0,1,.11,6.23,4.92,4.92,0,0,1-.55,1.76,4.65,4.65,0,0,1-1.64-.85,25.76,25.76,0,0,1-4.33-4.49,65.62,65.62,0,0,1-8.27-14.14c-1.9-4.6-1.89-7.44-1.36-9.08a4.26,4.26,0,0,1,2.6-2.82Zm0,0"/><path class="cls-4" d="M28.68,65.37a61.88,61.88,0,1,0,61.87,61.88A61.93,61.93,0,0,0,28.68,65.37Zm0,7.06a54.82,54.82,0,1,1-54.82,54.82A54.76,54.76,0,0,1,28.68,72.43Zm0,0"/><path class="cls-6" d="M-12,87.29C-1.5,81.47,4.22,89,30.34,88.75c23.88-.25,28.89-6.67,38.56-1.46,16.39,8.84,16.76,35.25,16.76,38.57,0,2.36-.29,30.81-16.76,38.56-11,5.18-16.81-4.73-39.06-5-23.65-.33-30.17,10.68-41.87,5-16.48-7.94-16.76-36.15-16.76-38.56C-28.78,122.53-28.41,96.35-12,87.29Zm-16.76,38.57"/><path class="cls-3" d="M28.05,70a58.94,58.94,0,0,0-55.54,39.38H83.59A59,59,0,0,0,28.05,70Zm0,0"/><path class="cls-3" d="M31.13,71.32a54.53,54.53,0,0,0-51.92,38H83.09a54.55,54.55,0,0,0-52-38Zm0,0"/><path class="cls-3" d="M-25.26,147.5a61.4,61.4,0,0,0,10,16.23,56.83,56.83,0,0,0,26.91,18A55.59,55.59,0,0,0,28,184a59.54,59.54,0,0,0,29.17-8.36A68.89,68.89,0,0,0,84.06,147.5Zm109.32,0"/><path class="cls-3" d="M81.12,147.6m-102.95,0a56.59,56.59,0,0,0,103,0Z"/><path class="cls-4" d="M28.68,68a59.24,59.24,0,1,0,59.23,59.24A59.25,59.25,0,0,0,28.68,68Zm0,1.77a57.47,57.47,0,1,1-57.47,57.47A57.45,57.45,0,0,1,28.68,69.78Zm0,0"/><path class="cls-4" d="M9.93,106.1A9.08,9.08,0,0,1,19,115.19v4.56a9.09,9.09,0,0,1-18.18,0v-4.56a9.07,9.07,0,0,1,9.09-9.09Zm0,0"/><path class="cls-6" d="M15.22,112.62a2.94,2.94,0,1,1-2.94-2.93,2.92,2.92,0,0,1,2.94,2.93Zm0,0"/><path class="cls-4" d="M47.43,106.1a9.07,9.07,0,0,1,9.08,9.09v4.56a9.09,9.09,0,0,1-18.17,0v-4.56a9.07,9.07,0,0,1,9.09-9.09Zm0,0"/><path class="cls-6" d="M52.72,112.62a2.94,2.94,0,1,1-2.94-2.93,2.92,2.92,0,0,1,2.94,2.93Zm0,0"/><path class="cls-7" d="M19,131.52a2,2,0,0,0-2,2v2.27a11.7,11.7,0,1,0,23.39,0v-2.27a2,2,0,0,0-2-2Zm0,0"/><path class="cls-8" d="M28.68,139.5a11.66,11.66,0,0,0-8.81,4,11.68,11.68,0,0,0,17.62,0,11.69,11.69,0,0,0-8.81-4Zm0,0"/><path class="cls-6" d="M19,131.52a2,2,0,0,0-2,2v2a27,27,0,0,0,23.39,0v-2.05a2,2,0,0,0-2-2Zm0,0"/><path class="cls-9" d="M19,131.52a2,2,0,0,0-2,2v2a27.2,27.2,0,0,0,4.09,1.53c-.8-.54-.95-1.28-.95-2.45v-3.13Zm0,0"/><path class="cls-9" d="M34.1,131.52v3.13c0,1.57-.41,2.94-1.76,3.31a27.53,27.53,0,0,0,8-2.38v-2.05a2,2,0,0,0-2-2Zm0,0"/><path class="cls-10" d="M38.35,131.52a2,2,0,0,1,2,2v2a26.8,26.8,0,0,1-4.09,1.53c.8-.54.95-1.28.95-2.45v-3.13Zm0,0"/><path class="cls-4" d="M19,130.63a2.92,2.92,0,0,0-2.9,2.9v2.28a12.58,12.58,0,1,0,25.15,0v-2.28a2.92,2.92,0,0,0-2.9-2.9Zm0,1.77H38.35a1.11,1.11,0,0,1,1.14,1.13v2.28a10.82,10.82,0,0,1-21.63,0v-2.28A1.12,1.12,0,0,1,19,132.4Zm0,0"/><path class="cls-4" d="M16.93,135.09l-.39.79a27.65,27.65,0,0,0,24.27,0l-.38-.79a26.78,26.78,0,0,1-23.5,0Zm0,0"/><path class="cls-11" d="M27.38,142.65a1.21,1.21,0,0,1-.57,1,2.46,2.46,0,0,1-1.37.4c-1.08,0-2-.62-2-1.37s.87-1.37,2-1.37a2.38,2.38,0,0,1,1.37.4,1.19,1.19,0,0,1,.57,1Zm0,0"/><path class="cls-4" d="M40,45.56c-5.61.33-11.17.36-17.39.82-8.24.6-14.14,3.14-17.93,7A18.84,18.84,0,0,0-.61,66.8c0,8.41,5.16,14.86,12.28,18.33s16.25,4.43,25.53,3q1.39-.23,2.79-.51V81.51c-1.23.29-2.46.53-3.7.72-8.27,1.27-16.33.29-22-2.47s-8.92-6.86-8.92-13a12.59,12.59,0,0,1,3.54-9.25C11.47,55,15.79,52.87,23,52.34c5.8-.43,11.28-.5,17-.87V45.56Zm0,0"/><path class="cls-4" d="M56,43.29a92.06,92.06,0,0,1-17.9,2.37v5.93a117.84,117.84,0,0,0,14-1.5l-1.76,4.76,4.27,0a59.93,59.93,0,0,0,17-2.62C67.19,69.54,52.75,79.11,38.1,81.91V88c18.29-3.13,37.32-16,40.43-39.64l.63-4.82-4.59,1.61A88.61,88.61,0,0,1,59,48.53l.48-1.3,2-5.26ZM61.46,42"/><path class="cls-12" d="M56.7,46.19c-12.54,3-22.24,2.31-33.89,3.17C7.33,50.5,2.38,58.64,2.38,66.8c0,29,67.24,26.28,73.18-18.84,0,0-11.31,4-21,3.92l2.11-5.69Zm0,0"/><path class="cls-13" d="M56.7,46.19c-12.54,3-22.24,2.31-33.89,3.17C14,50,8.6,52.92,5.58,56.82,13.75,71,59.88,68.4,75.56,48c0,0-11.31,4-21,3.92l2.11-5.69Zm0,0"/><path class="cls-14" d="M75.56,48c-7.88,29.4-62,40.84-72.75,14.87a18.35,18.35,0,0,0-.43,4c0,29,67.24,26.28,73.18-18.84Zm0,0"/><path class="cls-4" d="M40,47.81c-5.64.33-11.16.36-17.23.8-7.86.58-13.17,3-16.5,6.31A16.47,16.47,0,0,0,1.63,66.8c0,7.54,4.45,13.11,11,16.31S28,87.29,36.86,85.92c1-.16,2.09-.35,3.13-.58V83.81q-1.68.38-3.36.63c-8.65,1.33-17.11.36-23.32-2.67s-10.18-8-10.18-15A15,15,0,0,1,7.32,56c3-3,7.93-5.31,15.55-5.87,6-.43,11.46-.48,17.12-.83V47.81Zm0,0"/><path class="cls-4" d="M56.53,45.47A94.84,94.84,0,0,1,38.1,47.91v1.47a101.48,101.48,0,0,0,17.44-2.21l-2,5.45h1.07c9,0,18.32-3,20-3.62-3.29,20.83-20,32.16-36.52,35.18v1.52c17.42-3.1,35.26-15.26,38.2-37.65l.16-1.2-1.14.4S64.91,50.81,55.7,51l1.7-4.59.49-1.31Zm1.36-.33"/><path class="cls-15" d="M179.2,178.29c0-10.66,4.7-12.79,7.94-12.79s7.94,2.13,7.94,12.79-3.55,25.82-7.94,25.82S179.2,189,179.2,178.29Zm0,0"/><path class="cls-4" d="M187.14,163.29a9,9,0,0,0-6.87,3.18c-2,2.4-3.28,6.17-3.28,11.82a68.39,68.39,0,0,0,2.41,17.5,28.76,28.76,0,0,0,2.75,6.92c1.12,1.87,2.62,3.61,5,3.61s3.88-1.74,5-3.61a29.17,29.17,0,0,0,2.75-6.92,68.39,68.39,0,0,0,2.41-17.5c0-5.65-1.24-9.42-3.28-11.82a9,9,0,0,0-6.88-3.18Zm0,4.43a4.28,4.28,0,0,1,3.5,1.61c1.12,1.33,2.23,4,2.23,9a65.06,65.06,0,0,1-2.25,16.31,25.36,25.36,0,0,1-2.29,5.83,4.6,4.6,0,0,1-1.19,1.42,4.93,4.93,0,0,1-1.19-1.42,25.83,25.83,0,0,1-2.29-5.83,65.52,65.52,0,0,1-2.24-16.31c0-5,1.11-7.63,2.23-9a4.27,4.27,0,0,1,3.49-1.61Zm0,0"/><path class="cls-15" d="M139.06,178.29c0-10.66,4.69-12.79,7.94-12.79s7.94,2.13,7.94,12.79-3.56,25.82-7.94,25.82-7.94-15.16-7.94-25.82Zm0,0"/><path class="cls-4" d="M147,163.29a9,9,0,0,0-6.88,3.18c-2,2.4-3.28,6.17-3.28,11.82a68.84,68.84,0,0,0,2.41,17.5,28.75,28.75,0,0,0,2.76,6.92c1.12,1.87,2.62,3.61,5,3.61s3.87-1.74,5-3.61a28.75,28.75,0,0,0,2.76-6.92,68.84,68.84,0,0,0,2.41-17.5c0-5.65-1.25-9.42-3.28-11.82a9,9,0,0,0-6.88-3.18Zm0,4.43a4.3,4.3,0,0,1,3.5,1.61c1.12,1.33,2.22,4,2.22,9a65.52,65.52,0,0,1-2.24,16.31,25.36,25.36,0,0,1-2.29,5.83,4.76,4.76,0,0,1-1.19,1.42,4.76,4.76,0,0,1-1.19-1.42,25.36,25.36,0,0,1-2.29-5.83,65.52,65.52,0,0,1-2.24-16.31c0-5,1.1-7.63,2.22-9a4.28,4.28,0,0,1,3.5-1.61Zm0,0"/><path class="cls-15" d="M102,120.33c4.08-9.85,9.23-10,12.23-8.78s6.52,5,2.44,14.85-13.16,22.49-17.21,20.81-1.54-17,2.54-26.88Zm0,0"/><path class="cls-4" d="M115.08,109.5a9,9,0,0,0-7.57.31c-2.8,1.44-5.39,4.44-7.56,9.67a68.79,68.79,0,0,0-4.47,17.09,28.77,28.77,0,0,0-.1,7.44c.32,2.16,1,4.34,3.23,5.25s4.25-.13,6-1.43a28.73,28.73,0,0,0,5.19-5.33,68.76,68.76,0,0,0,8.92-15.25c2.16-5.22,2.46-9.18,1.5-12.18a9,9,0,0,0-5.14-5.57Zm-1.7,4.1a4.24,4.24,0,0,1,2.62,2.82c.53,1.66.54,4.51-1.37,9.14a65.66,65.66,0,0,1-8.32,14.2,24.94,24.94,0,0,1-4.35,4.51,4.21,4.21,0,0,1-1.64.85,4.62,4.62,0,0,1-.55-1.76,25.23,25.23,0,0,1,.11-6.26,65.19,65.19,0,0,1,4.17-15.93c1.91-4.62,3.94-6.63,5.49-7.42a4.22,4.22,0,0,1,3.84-.15Zm0,0"/><path class="cls-4" d="M167.07,63.37a62.19,62.19,0,1,0,62.19,62.19,62.24,62.24,0,0,0-62.19-62.19Zm0,7.1A55.09,55.09,0,1,1,112,125.56a55,55,0,0,1,55.09-55.09Zm0,0"/><path class="cls-15" d="M224.82,124.16c0,2.43-.28,30.78-16.84,38.76-11.76,5.67-18.31-5.4-42.08-5.07-22.36.31-28.19,10.27-39.25,5.07-16.55-7.79-16.85-36.38-16.85-38.76,0-3.34.38-29.87,16.85-38.75,9.71-5.24,14.75,1.21,38.75,1.47,26.25.28,32-7.33,42.58-1.47C224.44,94.51,224.82,120.82,224.82,124.16Zm0,0"/><path class="cls-6" d="M167.7,68a59.25,59.25,0,0,0-55.81,39.57H223.52A59.27,59.27,0,0,0,167.7,68Zm0,0"/><path class="cls-6" d="M164.61,69.35a54.85,54.85,0,0,0-52.22,38.22H216.78a54.83,54.83,0,0,0-52.17-38.22Zm0,0"/><path class="cls-6" d="M111.42,145.91a69.09,69.09,0,0,0,27,28.3,59.89,59.89,0,0,0,29.31,8.41,55.88,55.88,0,0,0,16.45-2.28,57.08,57.08,0,0,0,27-18.11,61.92,61.92,0,0,0,10.05-16.32Zm0,0"/><path class="cls-6" d="M114.37,146m0,0a56.87,56.87,0,0,0,103.46,0Z"/><path class="cls-4" d="M167.07,66a59.53,59.53,0,1,0,59.53,59.53A59.54,59.54,0,0,0,167.07,66Zm0,1.78a57.75,57.75,0,1,1-57.75,57.75,57.73,57.73,0,0,1,57.75-57.75Zm0,0"/><path class="cls-4" d="M185.91,104.31a9.12,9.12,0,0,1,9.14,9.14V118a9.14,9.14,0,1,1-18.27,0v-4.57a9.12,9.12,0,0,1,9.13-9.14Zm0,0"/><path class="cls-6" d="M180.6,110.86a2.95,2.95,0,1,1,5,2.08,2.93,2.93,0,0,1-4.17,0,2.94,2.94,0,0,1-.86-2.08Zm0,0"/><path class="cls-4" d="M148.23,104.31a9.12,9.12,0,0,1,9.13,9.14V118a9.13,9.13,0,1,1-18.26,0v-4.57a9.12,9.12,0,0,1,9.13-9.14Zm0,0"/><path class="cls-6" d="M142.91,110.86a2.95,2.95,0,1,1,3,3,3,3,0,0,1-3-3Zm0,0"/><path class="cls-7" d="M157.35,129.85a2,2,0,0,0-2,2v2.29a11.75,11.75,0,1,0,23.5,0v-2.29a2,2,0,0,0-2-2Zm19.45,0"/><path class="cls-8" d="M167.07,137.87a11.7,11.7,0,0,0-8.85,4,11.76,11.76,0,0,0,17.71,0,11.74,11.74,0,0,0-8.86-4Zm0,0"/><path class="cls-6" d="M157.35,129.85a2,2,0,0,0-2,2v2.05a27.05,27.05,0,0,0,23.5,0v-2a2,2,0,0,0-2-2Zm19.45,0"/><path class="cls-9" d="M175.67,129.85V133c0,1.17-.15,1.92-.95,2.46a27,27,0,0,0,4.1-1.54v-2a2,2,0,0,0-2-2Zm1.13,0"/><path class="cls-9" d="M157.35,129.85a2,2,0,0,0-2,2v2.05a27.11,27.11,0,0,0,8.07,2.39c-1.36-.36-1.77-1.74-1.77-3.32v-3.15Zm4.27,0"/><path class="cls-10" d="M158.47,129.85V133c0,1.17.15,1.92,1,2.46a27.07,27.07,0,0,1-4.11-1.54v-2a2,2,0,0,1,2-2Zm-1.12,0"/><path class="cls-4" d="M157.35,129a2.94,2.94,0,0,0-2.92,2.92v2.29a12.64,12.64,0,0,0,25.28,0v-2.29A2.93,2.93,0,0,0,176.8,129Zm19.45,1.78a1.12,1.12,0,0,1,1.14,1.14v2.29a10.87,10.87,0,0,1-21.73,0v-2.29a1.11,1.11,0,0,1,1.14-1.14Zm0,0"/><path class="cls-4" d="M178.88,133.44a26.91,26.91,0,0,1-23.62,0l-.38.8a27.85,27.85,0,0,0,24.39,0l-.39-.8Zm0,0"/><path class="cls-11" d="M168.37,141a1.23,1.23,0,0,1,.57-1,2.45,2.45,0,0,1,1.39-.4c1.08,0,1.95.62,1.95,1.38s-.87,1.37-1.95,1.37a2.45,2.45,0,0,1-1.39-.4,1.23,1.23,0,0,1-.57-1Zm0,0"/><path class="cls-4" d="M155.7,43.46v5.95c5.71.37,11.21.44,17,.87,7.28.54,11.63,2.65,14.19,5.24a12.62,12.62,0,0,1,3.56,9.3c0,6.12-3.27,10.24-9,13s-13.79,3.76-22.11,2.49q-1.86-.28-3.72-.72v6.15c.94.19,1.87.36,2.81.5,9.32,1.44,18.49.47,25.65-3s12.34-10,12.34-18.41a18.92,18.92,0,0,0-5.3-13.53c-3.82-3.85-9.74-6.39-18-7-6.26-.46-11.84-.49-17.48-.83Zm0,0"/><path class="cls-4" d="M134.13,39.86l2,5.29.48,1.3A89,89,0,0,1,121,43.05l-4.61-1.62.63,4.84C120.1,70,139.22,83,157.6,86.11V80C142.88,77.18,128.37,67.57,124,50.19a60.17,60.17,0,0,0,17,2.63l4.3,0L143.56,48a114.88,114.88,0,0,0,14,1.5v-6a93.76,93.76,0,0,1-18-2.38Zm0,0"/><path class="cls-12" d="M138.91,44.11,141,49.82c-9.71,0-21.08-3.94-21.08-3.94,6,45.35,73.55,48.09,73.55,18.94,0-8.21-5-16.39-20.54-17.53-11.7-.87-21.45-.13-34.05-3.18Zm0,0"/><path class="cls-13" d="M138.91,44.11,141,49.82c-9.71,0-21.08-3.94-21.08-3.94,15.76,20.54,62.12,23.13,70.33,8.91-3-3.92-8.46-6.85-17.32-7.5-11.7-.87-21.45-.13-34.05-3.18Zm0,0"/><path class="cls-14" d="M120,45.88c6,45.35,73.55,48.09,73.55,18.94a18.47,18.47,0,0,0-.43-4c-10.81,26.09-65.2,14.6-73.12-14.95Zm0,0"/><path class="cls-4" d="M155.7,45.73v1.46c5.69.36,11.22.4,17.21.84,7.65.57,12.59,2.85,15.62,5.9a15,15,0,0,1,4.22,10.89c0,7-4,12-10.23,15s-14.75,4-23.44,2.68c-1.13-.17-2.26-.38-3.38-.63v1.54c1.05.22,2.1.42,3.15.58,8.94,1.37,17.71.4,24.32-2.82s11.08-8.81,11.08-16.39a16.61,16.61,0,0,0-4.65-11.95c-3.35-3.37-8.68-5.75-16.58-6.33-6.11-.45-11.65-.47-17.32-.81Zm0,0"/><path class="cls-4" d="M137.71,43l.49,1.33L139.91,49c-9.25-.23-19.71-3.81-19.71-3.81l-1.15-.4.16,1.21c3,22.5,20.88,34.72,38.39,37.84V82.29c-16.61-3-33.39-14.43-36.7-35.35,1.71.58,11.07,3.68,20.13,3.63h1.07l-2-5.48A100.68,100.68,0,0,0,157.6,47.3V45.83a95.86,95.86,0,0,1-18.52-2.45Zm0,0"/></g><path class="cls-3" d="M150.67.1l29,0h16l0,15.95c0,7,0,14,0,21A29.09,29.09,0,0,1,150.67.1Z"/><text class="cls-16" transform="translate(159.72 31.85)">25</text></svg>