<?xml version="1.0" encoding="utf-8"?>
<!-- Generator: Adobe Illustrator 26.0.3, SVG Export Plug-In . SVG Version: 6.00 Build 0)  -->
<svg version="1.1" id="Слой_1" xmlns="http://www.w3.org/2000/svg" xmlns:xlink="http://www.w3.org/1999/xlink" x="0px" y="0px"
	 viewBox="0 0 195.6 280.6" style="enable-background:new 0 0 195.6 280.6;" xml:space="preserve">
<style type="text/css">
	.st0{clip-path:url(#SVGID_00000081644574089880729370000009137218917978700956_);fill:#FBB91C;}
	.st1{clip-path:url(#SVGID_00000081644574089880729370000009137218917978700956_);}
	.st2{clip-path:url(#SVGID_00000089562738715725013530000002412043703334299812_);}
	.st3{fill:#056B45;}
	.st4{fill:#EB5A53;}
	.st5{fill:#1A1A1A;}
	.st6{fill:#FFFFFF;}
	.st7{fill:#AF1739;}
	.st8{fill:#EB5775;}
	.st9{fill:#BADBE9;}
	.st10{fill:#8BB0CC;}
	.st11{fill:#F293A2;}
	.st12{fill:#595959;}
	.st13{fill:#797979;}
	.st14{fill:#3E3E3E;}
	.st15{fill:#E94539;}
	.st16{fill:#FBB91C;}
	.st17{clip-path:url(#SVGID_00000081644574089880729370000009137218917978700956_);enable-background:new    ;}
	.st18{font-family:'Impact';}
	.st19{font-size:63.44px;}
	.st20{clip-path:url(#SVGID_00000081644574089880729370000009137218917978700956_);fill:#056B45;}
	.st21{font-size:20px;}
</style>
<g>
	<defs>
		<rect id="SVGID_1_" x="0" y="0" width="195.6" height="280.6"/>
	</defs>
	<clipPath id="SVGID_00000086662603763228056120000005419716485021321105_">
		<use xlink:href="#SVGID_1_"  style="overflow:visible;"/>
	</clipPath>
	
		<rect x="-7.6" y="-6.9" style="clip-path:url(#SVGID_00000086662603763228056120000005419716485021321105_);fill:#FBB91C;" width="213.7" height="305.9"/>
	<g style="clip-path:url(#SVGID_00000086662603763228056120000005419716485021321105_);">
		<defs>
			<rect id="SVGID_00000039821948566773720580000002685985807771816838_" x="-7.6" y="-6.9" width="213.7" height="298.4"/>
		</defs>
		<clipPath id="SVGID_00000134244740498996221860000009138181093598838663_">
			<use xlink:href="#SVGID_00000039821948566773720580000002685985807771816838_"  style="overflow:visible;"/>
		</clipPath>
		<g style="clip-path:url(#SVGID_00000134244740498996221860000009138181093598838663_);">
			<path class="st3" d="M187.5,213.6c-3.6,0-6.5-2-8.8-5.8c-1.4-2.5-2.5-5.2-3.2-8c-0.4-1.6-0.8-3.3-1.2-5.1c-4.5,0.5-9,0.5-13.4,0
				c-0.3,1.8-0.7,3.5-1.2,5.1c-0.7,2.8-1.8,5.5-3.2,8c-2.3,3.8-5.3,5.8-8.8,5.8s-6.5-2-8.8-5.8c-1.4-2.5-2.5-5.2-3.2-8
				c-1.3-4.7-2.1-9.5-2.4-14.3c-11.6-7.1-20.8-17.5-26.3-30c-1.7,1.1-3.6,1.7-5.6,1.7c-1.2,0-2.3-0.2-3.4-0.7l-0.5-0.2
				c-0.5,0.1-1,0.1-1.4,0.1c-2,0-4-0.7-5.7-1.8c-5.5,12.6-14.8,23.1-26.5,30.2c-0.3,4.9-1.1,9.7-2.4,14.4c-0.7,2.8-1.8,5.5-3.2,8
				c-2.3,3.9-5.3,5.8-8.9,5.8s-6.5-2-8.9-5.8c-1.4-2.5-2.5-5.2-3.2-8c-0.5-1.6-0.8-3.3-1.2-5.1c-4.5,0.5-9.1,0.5-13.6,0
				c-0.4,1.8-0.8,3.5-1.2,5.1c-0.7,2.8-1.8,5.5-3.2,8c-2.3,3.9-5.3,5.8-8.9,5.8s-6.6-2-8.9-5.8c-1.4-2.5-2.5-5.2-3.2-8
				c-1.3-4.7-2.1-9.6-2.4-14.4C-16.6,178-25.6,168-31.2,156c-1.7,1.3-3.8,2-6,2.1c-0.9,0-1.8-0.1-2.6-0.4c-3.4-1-5.7-3.8-6.8-8.1
				c-0.6-2.8-0.9-5.7-0.8-8.6c0.2-6.3,1.2-12.6,3-18.7c1.9-6.2,4.6-10.4,8.4-12.8c0.4-0.3,0.9-0.5,1.3-0.8
				C-29.7,92.6-19,79-4.5,70.4c-0.1-1.1-0.2-2.1-0.2-3.2C-4.8,61-2.4,55,1.9,50.5c4.8-4.9,11.9-7.7,20.9-8.3c3.6-0.3,7-0.4,10.3-0.5
				c2.3-0.1,4.5-0.2,6.6-0.3c5.3-0.2,10.7-1,15.9-2.2l13.7-3.3l-2.7,7.2c3.9-0.9,6.9-1.8,7.2-1.9l11.5-4l-1.6,12.1
				c-1.2,10.1-5.6,19.5-12.5,27c10.7,8.7,18.4,20.4,22.2,33.7c2.3,1.9,4.2,4.3,5.5,6.9c1.3-2.2,2.9-4.2,4.9-5.9
				c3.7-13.1,11.4-24.8,22-33.4c-6.8-7.4-11.2-16.8-12.4-26.8l-1.6-12.1l11.4,4c0.4,0.1,3.3,1,7.1,1.9l-2.7-7.2l13.7,3.3
				c5.2,1.2,10.5,1.9,15.8,2.2c2.1,0.1,4.3,0.2,6.5,0.3c3.3,0.1,6.6,0.2,10.2,0.5c9,0.7,16,3.4,20.8,8.3c4.3,4.4,6.7,10.4,6.6,16.6
				c0,1.1-0.1,2.1-0.2,3.2c14.4,8.5,25.1,22.1,29.9,38.1c0.5,0.2,0.9,0.5,1.3,0.7c3.8,2.4,6.5,6.6,8.4,12.8c1.8,6,2.8,12.3,2.9,18.5
				c0.1,2.9-0.1,5.7-0.8,8.6c-1.1,4.3-3.4,7.1-6.8,8.1c-0.8,0.3-1.7,0.4-2.6,0.4l0,0c-2.1-0.1-4.2-0.8-5.9-2.1
				c-5.5,11.9-14.5,21.8-25.6,28.7c-0.3,4.8-1.1,9.6-2.4,14.3c-0.7,2.8-1.8,5.5-3.2,8C194.1,211.6,191.1,213.6,187.5,213.6z"/>
			<path class="st4" d="M17.1,180.7c0,10.7-3.6,25.8-7.9,25.8s-7.9-15.1-7.9-25.8s4.7-12.8,7.9-12.8S17.1,170,17.1,180.7z"/>
			<path class="st5" d="M9.2,165.7c-2.6,0-5.2,1.2-6.9,3.2c-2,2.4-3.3,6.2-3.3,11.8c0.1,5.9,0.9,11.8,2.4,17.5
				c0.6,2.4,1.5,4.7,2.8,6.9c1.1,1.9,2.6,3.6,5,3.6s3.9-1.8,5-3.6c1.2-2.2,2.1-4.5,2.8-6.9c1.5-5.7,2.4-11.6,2.4-17.5
				c0-5.7-1.2-9.4-3.3-11.8C14.3,166.8,11.8,165.7,9.2,165.7L9.2,165.7z M9.2,170.1c1.4,0,2.7,0.6,3.5,1.6c1.1,1.3,2.2,3.9,2.2,9
				c-0.1,5.5-0.8,11-2.2,16.3c-0.5,2-1.3,4-2.3,5.8c-0.3,0.5-0.7,1-1.2,1.4c-0.5-0.4-0.9-0.9-1.2-1.4C7,201,6.2,199,5.7,197
				c-1.4-5.3-2.2-10.8-2.2-16.3c0-5,1.1-7.6,2.2-9C6.5,170.6,7.8,170,9.2,170.1L9.2,170.1z"/>
			<path class="st4" d="M57.2,180.7c0,10.7-3.5,25.8-7.9,25.8s-7.9-15.1-7.9-25.8s4.7-12.8,7.9-12.8S57.2,170,57.2,180.7z"/>
			<path class="st5" d="M49.3,165.7c-2.6,0-5.2,1.2-6.9,3.2c-2,2.4-3.3,6.2-3.3,11.8c0,5.9,0.9,11.8,2.4,17.5
				c0.6,2.4,1.5,4.7,2.8,6.9c1.1,1.9,2.6,3.6,5,3.6s3.9-1.8,5-3.6c1.2-2.2,2.1-4.5,2.8-6.9c1.5-5.7,2.4-11.6,2.4-17.5
				c0-5.7-1.2-9.4-3.3-11.8C54.5,166.8,52,165.7,49.3,165.7L49.3,165.7z M49.3,170.1c1.4,0,2.7,0.6,3.5,1.6c1.1,1.3,2.2,3.9,2.2,9
				c-0.1,5.5-0.8,11-2.2,16.3c-0.5,2-1.3,4-2.3,5.8c-0.3,0.5-0.7,1-1.2,1.4c-0.5-0.4-0.9-0.9-1.2-1.4c-1-1.8-1.8-3.8-2.3-5.8
				c-1.4-5.3-2.2-10.8-2.2-16.3c0-5,1.1-7.6,2.2-9C46.6,170.6,47.9,170,49.3,170.1L49.3,170.1z"/>
			<path class="st4" d="M94.3,122.7c4.1,9.9,6.6,25.2,2.5,26.9s-13.1-11-17.2-20.8s-0.6-13.6,2.4-14.9S90.2,112.8,94.3,122.7z"/>
			<path class="st5" d="M81.2,111.9c-2.4,1-4.3,3-5.1,5.6c-1,3-0.7,7,1.5,12.2c2.3,5.4,5.3,10.6,8.9,15.2c1.5,2,3.2,3.8,5.2,5.3
				c1.7,1.3,3.8,2.3,6,1.4s2.9-3.1,3.2-5.2c0.3-2.5,0.3-5-0.1-7.4c-0.8-5.9-2.3-11.6-4.5-17.1c-2.2-5.2-4.8-8.2-7.6-9.7
				C86.5,111,83.7,110.9,81.2,111.9L81.2,111.9z M82.9,116c1.2-0.6,2.7-0.5,3.8,0.2c1.5,0.8,3.6,2.8,5.5,7.4
				c2.1,5.1,3.5,10.5,4.2,15.9c0.3,2.1,0.3,4.2,0.1,6.3c-0.1,0.6-0.2,1.2-0.5,1.8c-0.6-0.2-1.2-0.5-1.6-0.9
				c-1.6-1.3-3.1-2.8-4.4-4.5c-3.4-4.4-6.2-9.1-8.3-14.2c-1.9-4.6-1.9-7.5-1.4-9.1C80.7,117.5,81.7,116.5,82.9,116L82.9,116z"/>
			<path class="st5" d="M29.2,65.8C-5.1,65.8-33,93.6-33,127.9s27.8,62.2,62.2,62.2s62.2-27.8,62.2-62.2
				C91.4,93.6,63.6,65.8,29.2,65.8z M29.2,72.8c30.4,0,55.1,24.7,55.1,55.1S59.7,183,29.2,183s-55.1-24.7-55.1-55.1c0,0,0,0,0,0
				c-0.1-30.4,24.5-55,54.9-55.1C29.1,72.8,29.2,72.8,29.2,72.8z"/>
			<path class="st4" d="M-11.7,87.8c10.6-5.8,16.3,1.8,42.6,1.5c24-0.2,29-6.7,38.8-1.5c16.5,8.9,16.8,35.4,16.8,38.8
				c0,2.4-0.3,31-16.8,38.8c-11.1,5.2-16.9-4.8-39.3-5.1c-23.8-0.3-30.3,10.8-42.1,5.1c-16.6-8-16.9-36.3-16.8-38.8
				C-28.5,123.2-28.1,96.9-11.7,87.8z"/>
			<path class="st6" d="M28.6,70.4c-25.1,0-47.5,15.9-55.8,39.6H84.4C76.1,86.3,53.7,70.4,28.6,70.4z"/>
			<path class="st6" d="M36.5,71.7C13.6,70-2.7,83.2-10.1,89.2c-12.7,10.5-22,24.4-26.9,40.1l124.3,0.6c0.2-3.6,1.1-25.2-15.5-42.1
				C58.9,74.6,43,72.2,36.5,71.7z"/>
			<path class="st4" d="M-25,148.3c2.5,5.9,5.9,11.4,10.1,16.3c7.1,8.5,16.4,14.8,27,18.1c5.4,1.6,10.9,2.4,16.5,2.3
				c10.3-0.2,20.4-3.1,29.3-8.4c11.5-6.6,20.9-16.5,27-28.3L-25,148.3z"/>
			<path class="st4" d="M-21.5,148.4c13.1,28.6,46.8,41.2,75.4,28.1c12.4-5.7,22.4-15.7,28.1-28.1H-21.5z"/>
			<path class="st5" d="M29.2,68.4c-32.9,0-59.5,26.7-59.5,59.5s26.7,59.5,59.5,59.5s59.5-26.7,59.5-59.5l0,0
				C88.8,95.1,62.1,68.4,29.2,68.4z M29.2,70.2C61.1,70.2,87,96,87,127.9c0,31.9-25.9,57.8-57.8,57.8s-57.8-25.9-57.8-57.8
				c0,0,0,0,0,0C-28.5,96.1-2.7,70.2,29.2,70.2C29.2,70.2,29.2,70.2,29.2,70.2z"/>
			<path class="st5" d="M10.4,106.7c5,0,9.1,4.1,9.1,9.1c0,0,0,0,0,0v4.6c-0.2,5-4.4,9-9.4,8.8c-4.8-0.2-8.7-4-8.8-8.8v-4.6
				C1.2,110.8,5.3,106.7,10.4,106.7C10.4,106.7,10.4,106.7,10.4,106.7z"/>
			<path class="st6" d="M15.7,113.2c0,1.6-1.3,2.9-3,2.9s-2.9-1.3-2.9-3c0-1.6,1.3-2.9,3-2.9c0,0,0,0,0,0
				C14.4,110.3,15.7,111.6,15.7,113.2C15.7,113.2,15.7,113.2,15.7,113.2z"/>
			<path class="st5" d="M48.1,106.7c5,0,9.1,4.1,9.1,9.1c0,0,0,0,0,0v4.6c-0.2,5-4.4,9-9.4,8.8c-4.8-0.2-8.7-4-8.8-8.8v-4.6
				C38.9,110.8,43,106.7,48.1,106.7C48,106.7,48.1,106.7,48.1,106.7z"/>
			<path class="st6" d="M53.4,113.2c0,0.8-0.3,1.5-0.9,2.1c-0.6,0.5-1.3,0.9-2.1,0.9c-0.8,0-1.5-0.3-2.1-0.9
				c-0.6-0.5-0.9-1.3-0.9-2.1c0.3-1.6,1.9-2.7,3.5-2.4C52.2,111.1,53.2,112,53.4,113.2z"/>
			<path class="st7" d="M19.5,132.2c-1.1,0-2,0.9-2,2v2.3c0,6.5,5.3,11.8,11.8,11.8S41,143,41,136.5l0,0v-2.3c0-1.1-0.9-2-2-2H19.5z
				"/>
			<path class="st8" d="M29.2,140.2c-3.4,0-6.6,1.4-8.9,4c4.3,4.9,11.7,5.4,16.6,1.1c0.4-0.4,0.8-0.7,1.1-1.1
				C35.9,141.7,32.6,140.2,29.2,140.2z"/>
			<path class="st6" d="M19.5,132.2c-1.1,0-2,0.9-2,2v2.1c7.4,3.6,16.1,3.6,23.5,0v-2.1c0-1.1-0.9-2-2-2L19.5,132.2z"/>
			<path class="st9" d="M19.5,132.2c-1.1,0-2,0.9-2,2v2.1c1.3,0.6,2.7,1.1,4.1,1.5c-0.8-0.5-1-1.3-1-2.5v-3.1L19.5,132.2z"/>
			<path class="st9" d="M34.7,132.2v3.1c0,1.6-0.4,3-1.8,3.3c2.8-0.4,5.5-1.2,8.1-2.4v-2.1c0-1.1-0.9-2-2-2L34.7,132.2z"/>
			<path class="st10" d="M39,132.2c1.1,0,2,0.9,2,2v2.1c-1.3,0.6-2.7,1.1-4.1,1.5c0.8-0.5,1-1.3,1-2.5v-3.1L39,132.2z"/>
			<path class="st5" d="M19.5,131.3c-1.6,0-2.9,1.3-2.9,2.9v2.3c0,7,5.7,12.6,12.6,12.6s12.6-5.7,12.6-12.6v-2.3
				c0-1.6-1.3-2.9-2.9-2.9H19.5z M19.5,133.1H39c0.6,0,1.1,0.5,1.1,1.1c0,0,0,0,0,0v2.3c0,6-4.9,10.9-10.9,10.9
				c-6,0-10.9-4.9-10.9-10.9v-2.3C18.4,133.6,18.9,133.1,19.5,133.1C19.5,133.1,19.5,133.1,19.5,133.1L19.5,133.1z"/>
			<path class="st5" d="M17.4,135.8l-0.4,0.8c7.7,3.8,16.7,3.8,24.4,0l-0.4-0.8C33.6,139.4,24.9,139.4,17.4,135.8z"/>
			<path class="st11" d="M27.9,143.4c0,0.4-0.2,0.8-0.6,1c-0.4,0.3-0.9,0.4-1.4,0.4c-1.1,0-2-0.6-2-1.4s0.9-1.4,2-1.4
				c0.5,0,1,0.1,1.4,0.4C27.7,142.6,27.9,143,27.9,143.4L27.9,143.4z"/>
			<path class="st5" d="M40.6,45.8c-5.6,0.3-11.2,0.4-17.5,0.8c-8.3,0.6-14.2,3.2-18,7c-3.5,3.6-5.4,8.5-5.3,13.5
				c0,8.4,5.2,14.9,12.3,18.4s16.3,4.4,25.7,3c0.9-0.1,1.9-0.3,2.8-0.5V82c-1.2,0.3-2.5,0.5-3.7,0.7C28.6,84,20.5,83,14.8,80.2
				s-9-6.9-9-13c-0.1-3.5,1.2-6.8,3.6-9.3c2.6-2.6,6.9-4.7,14.2-5.2c5.8-0.4,11.3-0.5,17-0.9L40.6,45.8L40.6,45.8z"/>
			<path class="st5" d="M56.7,43.6c-5.9,1.4-11.9,2.2-18,2.4v6c4.7-0.2,9.4-0.7,14-1.5L51,55.2h4.3c5.8-0.1,11.5-0.9,17-2.6
				c-4.4,17.4-18.9,27-33.6,29.8v6.1c18.4-3.1,37.5-16.1,40.6-39.8l0.6-4.8l-4.6,1.6c-5.1,1.6-10.3,2.7-15.6,3.4l0.5-1.3l2-5.3
				L56.7,43.6z"/>
			<path class="st12" d="M57.4,46.5c-12.6,3-22.4,2.3-34.1,3.2C7.8,50.8,2.8,59,2.8,67.2c0,29.2,67.6,26.4,73.5-18.9
				c0,0-11.4,4-21.1,3.9C55.3,52.2,57.4,46.5,57.4,46.5z"/>
			<path class="st13" d="M57.4,46.5c-12.6,3-22.4,2.3-34.1,3.2C14.5,50.3,9.1,53.2,6,57.2c8.2,14.2,54.6,11.6,70.3-8.9
				c0,0-11.4,4-21.1,3.9C55.3,52.2,57.4,46.5,57.4,46.5z"/>
			<path class="st14" d="M76.3,48.3C68.4,77.8,14,89.3,3.2,63.2c-0.3,1.3-0.4,2.7-0.4,4C2.8,96.3,70.4,93.6,76.3,48.3L76.3,48.3z"/>
			<path class="st5" d="M40.6,48.1c-5.7,0.3-11.2,0.4-17.3,0.8c-7.9,0.6-13.2,3-16.6,6.3C3.6,58.4,1.9,62.7,2,67.2
				c0,7.6,4.5,13.2,11.1,16.4s15.4,4.2,24.3,2.8c1-0.2,2.1-0.3,3.2-0.6v-1.5c-1.1,0.2-2.2,0.5-3.4,0.6c-8.7,1.3-17.2,0.4-23.4-2.7
				s-10.2-8-10.2-15c-0.1-4.1,1.4-8,4.2-10.9c3-3.1,8-5.3,15.6-5.9c6-0.4,11.5-0.5,17.2-0.8V48.1z"/>
			<path class="st5" d="M57.2,45.8c-6.1,1.4-12.3,2.2-18.5,2.5v1.5c5.9-0.2,11.8-1,17.5-2.2l-2,5.5h1.1c9.1,0,18.4-3,20.1-3.6
				c-3.3,20.9-20.1,32.3-36.7,35.4v1.5c17.5-3.1,35.4-15.3,38.4-37.8l0.2-1.2l-1.2,0.4c0,0-10.5,3.6-19.7,3.8l1.7-4.6l0.5-1.3
				L57.2,45.8z"/>
			<path class="st15" d="M179.6,181.2c0-10.6,4.7-12.7,7.9-12.7s7.9,2.1,7.9,12.7s-3.5,25.6-7.9,25.6S179.6,191.9,179.6,181.2z"/>
			<path class="st5" d="M187.5,166.4c-2.6,0-5.1,1.1-6.8,3.1c-2,2.4-3.3,6.1-3.3,11.8c0,5.9,0.9,11.7,2.4,17.4
				c0.6,2.4,1.5,4.7,2.7,6.9c1.1,1.9,2.6,3.6,5,3.6s3.8-1.7,5-3.6c1.2-2.2,2.1-4.5,2.7-6.9c1.5-5.7,2.3-11.5,2.4-17.4
				c0-5.6-1.2-9.4-3.3-11.8C192.8,167.5,190.3,166.3,187.5,166.4L187.5,166.4z M187.5,170.8c1.3,0,2.6,0.5,3.5,1.6
				c1.1,1.3,2.2,3.9,2.2,8.9c-0.1,5.5-0.8,10.9-2.2,16.2c-0.5,2-1.3,4-2.3,5.8c-0.3,0.5-0.7,1-1.2,1.4c-0.5-0.4-0.9-0.9-1.2-1.4
				c-1-1.8-1.8-3.8-2.3-5.8c-1.4-5.3-2.2-10.7-2.2-16.2c0-5,1.1-7.6,2.2-8.9C184.9,171.3,186.2,170.7,187.5,170.8L187.5,170.8z"/>
			<path class="st15" d="M139.8,181.2c0-10.6,4.7-12.7,7.9-12.7s7.9,2.1,7.9,12.7s-3.5,25.6-7.9,25.6S139.8,191.9,139.8,181.2z"/>
			<path class="st5" d="M147.7,166.4c-2.6,0-5.1,1.1-6.8,3.1c-2,2.4-3.3,6.1-3.3,11.8c0.1,5.9,0.9,11.7,2.4,17.4
				c0.6,2.4,1.5,4.7,2.7,6.9c1.1,1.9,2.6,3.6,5,3.6s3.8-1.7,4.9-3.6c1.2-2.2,2.1-4.5,2.7-6.9c1.5-5.7,2.3-11.5,2.4-17.4
				c0-5.6-1.2-9.4-3.2-11.8C152.9,167.5,150.4,166.4,147.7,166.4L147.7,166.4z M147.7,170.8c1.3,0,2.6,0.5,3.5,1.6
				c1.1,1.3,2.2,3.9,2.2,8.9c-0.1,5.5-0.8,10.9-2.2,16.2c-0.5,2-1.3,4-2.3,5.8c-0.3,0.5-0.7,1-1.2,1.4c-0.5-0.4-0.9-0.9-1.2-1.4
				c-1-1.8-1.8-3.8-2.3-5.8c-1.4-5.3-2.2-10.7-2.2-16.2c0-5,1.1-7.6,2.2-8.9C145.1,171.3,146.3,170.7,147.7,170.8L147.7,170.8z"/>
			<path class="st3" d="M103,123.7c4-9.8,9.2-10,12.1-8.7s6.5,5,2.4,14.7s-13.1,22.3-17.1,20.7S99,133.5,103,123.7z"/>
			<path class="st5" d="M116,112.9c-2.4-1-5.2-0.9-7.5,0.3c-2.8,1.4-5.3,4.4-7.5,9.6c-2.2,5.5-3.7,11.2-4.4,17
				c-0.3,2.4-0.4,4.9-0.1,7.4c0.3,2.1,1,4.3,3.2,5.2s4.2-0.1,6-1.4c1.9-1.5,3.7-3.3,5.2-5.3c3.6-4.6,6.6-9.7,8.9-15.1
				c2.2-5.2,2.4-9.1,1.5-12.1C120.3,116,118.5,114,116,112.9L116,112.9z M114.3,117c1.3,0.5,2.2,1.5,2.6,2.8
				c0.5,1.6,0.5,4.5-1.4,9.1c-2.1,5-4.9,9.8-8.2,14.1c-1.3,1.7-2.7,3.2-4.3,4.5c-0.5,0.4-1,0.7-1.6,0.8c-0.3-0.5-0.5-1.1-0.6-1.7
				c-0.2-2.1-0.2-4.2,0.1-6.2c0.7-5.4,2.1-10.7,4.1-15.8c1.9-4.6,3.9-6.6,5.4-7.4C111.6,116.5,113,116.5,114.3,117L114.3,117z"/>
			<path class="st5" d="M167.6,67.1c-34.1,0-61.8,27.6-61.8,61.7c0,34.1,27.6,61.8,61.7,61.8s61.8-27.6,61.8-61.7c0,0,0,0,0,0
				C229.3,94.8,201.7,67.2,167.6,67.1z M167.6,74.1c30.2,0,54.7,24.5,54.7,54.7s-24.5,54.7-54.7,54.7c-30.2,0-54.7-24.5-54.7-54.7
				c0-30.2,24.4-54.7,54.6-54.7C167.5,74.1,167.6,74.1,167.6,74.1z"/>
			<path class="st3" d="M225,127.5c0,2.4-0.3,30.6-16.7,38.5c-11.7,5.6-18.2-5.4-41.8-5c-22.2,0.3-28,10.2-39,5
				c-16.4-7.7-16.7-36.1-16.7-38.5c0-3.3,0.4-29.7,16.7-38.5c9.6-5.2,14.6,1.2,38.5,1.5c26.1,0.3,31.8-7.3,42.3-1.5
				C224.6,98.1,224.9,124.2,225,127.5z"/>
			<path class="st16" d="M168.2,71.7c-24.9,0-47.1,15.8-55.4,39.3h110.8C215.4,87.5,193.2,71.7,168.2,71.7L168.2,71.7z"/>
			<path class="st16" d="M165.2,73.1c-23.7,0-44.7,15.4-51.8,38H217C209.8,88.5,188.9,73.2,165.2,73.1L165.2,73.1z"/>
			<path class="st15" d="M112.3,149.1c6,11.8,15.4,21.5,26.8,28.1c8.8,5.2,18.8,8.1,29.1,8.3c5.5,0.1,11-0.7,16.3-2.3
				c10.5-3.3,19.8-9.5,26.8-18c4.2-4.8,7.5-10.3,10-16.2L112.3,149.1z"/>
			<path class="st15" d="M115.3,149.2c13,28.4,46.5,40.9,74.8,27.9c12.4-5.6,22.3-15.5,27.9-27.9H115.3z"/>
			<path class="st5" d="M167.6,69.8c-32.6,0-59.1,26.5-59.1,59.1s26.5,59.1,59.1,59.1s59.1-26.5,59.1-59.1c0,0,0,0,0,0
				C226.7,96.3,200.2,69.8,167.6,69.8L167.6,69.8z M167.6,71.5c31.7,0,57.3,25.7,57.3,57.3s-25.7,57.3-57.3,57.3
				c-31.7,0-57.3-25.7-57.3-57.3C110.3,97.2,135.9,71.6,167.6,71.5C167.6,71.5,167.6,71.5,167.6,71.5z"/>
			<path class="st5" d="M186.3,107.8c5,0,9,4,9.1,8.9c0,0,0,0.1,0,0.1v4.5c0.2,5-3.8,9.2-8.8,9.4c-5,0.2-9.2-3.8-9.4-8.8
				c0-0.2,0-0.4,0-0.6v-4.5c0-5,4-9,8.9-9.1C186.2,107.8,186.3,107.8,186.3,107.8z"/>
			<path class="st6" d="M181,114.3c0-1.6,1.3-2.9,2.9-2.9s2.9,1.3,2.9,2.9c0,1.6-1.3,2.9-2.9,2.9c-0.8,0-1.5-0.3-2.1-0.9
				C181.3,115.8,181,115.1,181,114.3z"/>
			<path class="st5" d="M148.9,107.8c5,0,9,4,9.1,8.9c0,0,0,0.1,0,0.1v4.5c0,5-4.1,9.1-9.1,9.1c-5,0-9.1-4.1-9.1-9.1v-4.5
				c0-5,4-9,8.9-9.1C148.8,107.8,148.9,107.8,148.9,107.8z"/>
			<path class="st6" d="M143.6,114.3c0-1.6,1.3-2.9,2.9-2.9c1.6,0,2.9,1.3,2.9,2.9c0,1.6-1.3,2.9-2.9,2.9c-0.8,0-1.5-0.3-2.1-0.9
				C143.9,115.8,143.6,115.1,143.6,114.3z"/>
			<path class="st7" d="M158,133.1c-1.1,0-2,0.9-2,2v2.3c-0.2,6.4,4.9,11.8,11.3,12c6.4,0.2,11.8-4.9,12-11.3c0-0.2,0-0.5,0-0.7
				v-2.3c0-1.1-0.9-2-2-2H158z"/>
			<path class="st8" d="M167.6,141.1c-3.4,0-6.6,1.5-8.8,4c4.3,4.9,11.6,5.3,16.5,1.1c0.4-0.3,0.8-0.7,1.1-1.1
				C174.2,142.6,171,141.1,167.6,141.1z"/>
			<path class="st6" d="M158,133.1c-1.1,0-2,0.9-2,2v2c7.4,3.6,16,3.6,23.3,0v-2c0-1.1-0.9-2-2-2H158z"/>
			<path class="st9" d="M176.1,133.1v3.1c0,1.2-0.2,1.9-1,2.4c1.4-0.4,2.8-0.9,4.1-1.5v-2c0-1.1-0.9-2-2-2L176.1,133.1z"/>
			<path class="st9" d="M158,133.1c-1.1,0-2,0.9-2,2v2c2.5,1.2,5.2,2,8,2.4c-1.4-0.4-1.8-1.7-1.8-3.3v-3.1L158,133.1z"/>
			<path class="st10" d="M159.1,133.1v3.1c0,1.2,0.1,1.9,0.9,2.4c-1.4-0.4-2.8-0.9-4.1-1.5v-2c0-1.1,0.9-2,2-2L159.1,133.1z"/>
			<path class="st5" d="M158,132.3c-1.6,0-2.9,1.3-2.9,2.9v2.3c-0.2,6.9,5.3,12.7,12.2,12.9c6.9,0.2,12.7-5.3,12.9-12.2
				c0-0.2,0-0.5,0-0.7v-2.3c0-1.6-1.3-2.9-2.9-2.9H158z M177.3,134c0.6,0,1.1,0.5,1.1,1.1c0,0,0,0,0,0v2.3c0.2,6-4.5,10.9-10.5,11.1
				s-10.9-4.5-11.1-10.5c0-0.2,0-0.4,0-0.7v-2.3c0-0.6,0.5-1.1,1.1-1.1c0,0,0.1,0,0.1,0H177.3z"/>
			<path class="st5" d="M179.3,136.7c-7.4,3.6-16.1,3.6-23.4,0l-0.4,0.8c7.6,3.7,16.6,3.7,24.2,0L179.3,136.7z"/>
			<path class="st11" d="M168.9,144.2c0-0.4,0.2-0.8,0.6-1c0.4-0.3,0.9-0.4,1.4-0.4c1.1,0,1.9,0.6,1.9,1.4s-0.9,1.4-1.9,1.4
				c-0.5,0-1-0.1-1.4-0.4C169.1,145,168.9,144.6,168.9,144.2L168.9,144.2z"/>
			<path class="st5" d="M156.3,47.4v5.9c5.7,0.4,11.1,0.4,16.9,0.9c7.2,0.5,11.5,2.6,14.1,5.2c2.4,2.5,3.7,5.8,3.5,9.2
				c0,6.1-3.2,10.2-8.9,12.9s-13.7,3.7-22,2.5c-1.2-0.2-2.5-0.4-3.7-0.7v6.1c0.9,0.2,1.9,0.4,2.8,0.5c9.3,1.4,18.4,0.5,25.5-3
				s12.3-9.9,12.3-18.3c0.1-5-1.8-9.8-5.3-13.4c-3.8-3.8-9.7-6.3-17.9-6.9C167.4,47.7,161.9,47.7,156.3,47.4L156.3,47.4z"/>
			<path class="st5" d="M134.9,43.8l1.9,5.3l0.5,1.3c-5.3-0.6-10.5-1.8-15.5-3.3l-4.6-1.6l0.6,4.8c3.1,23.5,22.1,36.4,40.3,39.5
				v-6.1c-14.6-2.8-29-12.3-33.4-29.6c5.5,1.7,11.2,2.6,16.9,2.6h4.3l-1.8-4.8c4.6,0.8,9.3,1.3,13.9,1.5v-5.9c-6-0.2-12-1-17.9-2.4
				L134.9,43.8z"/>
			<path class="st12" d="M139.6,48l2.1,5.7c-9.6,0-20.9-3.9-20.9-3.9c5.9,45,73,47.7,73,18.8c0-8.2-4.9-16.3-20.4-17.4
				C161.8,50.3,152.1,51,139.6,48L139.6,48z"/>
			<path class="st13" d="M139.6,48l2.1,5.7c-9.6,0-20.9-3.9-20.9-3.9c15.7,20.4,61.7,23,69.8,8.8c-3-3.9-8.4-6.8-17.2-7.5
				C161.8,50.3,152.1,51,139.6,48z"/>
			<path class="st14" d="M120.8,49.8c5.9,45,73,47.7,73,18.8c0-1.3-0.1-2.7-0.4-4C182.7,90.5,128.7,79.1,120.8,49.8L120.8,49.8z"/>
			<path class="st5" d="M156.3,49.6v1.5c5.6,0.3,11.1,0.4,17.1,0.8c7.6,0.6,12.5,2.8,15.5,5.9c2.8,2.9,4.3,6.8,4.2,10.8
				c0,6.9-4,11.9-10.2,14.9s-14.6,4-23.3,2.7c-1.1-0.2-2.2-0.4-3.4-0.6v1.5c1.1,0.2,2.1,0.4,3.1,0.6c8.9,1.4,17.6,0.4,24.1-2.8
				s11-8.8,11-16.3c0.1-4.4-1.5-8.7-4.6-11.9c-3.3-3.3-8.6-5.7-16.5-6.3C167.5,50,162,50,156.3,49.6L156.3,49.6z"/>
			<path class="st5" d="M138.4,47l0.5,1.3l1.7,4.6c-9.2-0.2-19.6-3.8-19.6-3.8l-1.2-0.4l0.2,1.2c2.9,22.3,20.7,34.4,38.1,37.5v-1.5
				c-16.5-3-33.2-14.3-36.4-35.1c1.7,0.6,11,3.7,20,3.6h1.1l-2-5.4c5.7,1.2,11.5,2,17.4,2.2v-1.5c-6.2-0.2-12.3-1-18.4-2.4L138.4,47
				z"/>
		</g>
	</g>
	<g style="clip-path:url(#SVGID_00000086662603763228056120000005419716485021321105_);enable-background:new    ;">
		<text transform="matrix(1 0 0 1 38.54 269.37)" class="st3 st18 st19">litwa</text>
	</g>
	<path style="clip-path:url(#SVGID_00000086662603763228056120000005419716485021321105_);fill:#056B45;" d="M45.2,0.1h-29
		c-5.3,0-10.6,0-16,0v16c0,7,0,14,0,21c10.3,12.4,28.6,14.1,41,3.8c6.7-5.6,10.6-13.8,10.5-22.5C51.7,11.7,49.4,5.3,45.2,0.1z"/>
	<text transform="matrix(1 0 0 1 15.8 31.85)" class="st6 st18 st21">2</text>
	<text transform="matrix(1 0 0 1 25.44 31.85)" class="st6 st18 st21">4</text>
</g>
</svg>
