<?xml version="1.0" encoding="utf-8"?>
<!-- Generator: Adobe Illustrator 26.0.1, SVG Export Plug-In . SVG Version: 6.00 Build 0)  -->
<svg version="1.1" id="Слой_1" xmlns="http://www.w3.org/2000/svg" xmlns:xlink="http://www.w3.org/1999/xlink" x="0px" y="0px"
	 viewBox="0 0 195.6 280.6" style="enable-background:new 0 0 195.6 280.6;" xml:space="preserve">
<style type="text/css">
	
		.st0{clip-path:url(#SVGID_00000114055516301891099870000010066146569338594984_);fill:#E94539;stroke:#FFFFFF;stroke-width:0.5;stroke-miterlimit:3.99;}
	.st1{clip-path:url(#SVGID_00000077289410087820322070000000772360593436052671_);fill:#FFFFFF;}
	.st2{clip-path:url(#SVGID_00000002359749609763104190000011676090978128556454_);}
	.st3{fill-rule:evenodd;clip-rule:evenodd;fill:#FFFFFF;stroke:#010101;stroke-width:0.35;}
	.st4{fill-rule:evenodd;clip-rule:evenodd;fill:#2390CF;stroke:#010101;stroke-width:0.35;}
	.st5{fill-rule:evenodd;clip-rule:evenodd;fill:#010101;}
	.st6{fill-rule:evenodd;clip-rule:evenodd;fill:#F4E725;stroke:#010101;stroke-width:0.4;}
	.st7{fill:#F4E725;}
	.st8{fill:none;stroke:#010101;stroke-width:0.4;}
	.st9{clip-path:url(#SVGID_00000150815287954491709760000005690949106559331755_);}
	.st10{fill:#E94539;stroke:#FFFFFF;stroke-width:0.5;stroke-miterlimit:3.99;}
	.st11{fill:none;stroke:#C51628;stroke-width:0.5;stroke-miterlimit:3.99;}
	.st12{clip-path:url(#SVGID_00000109710285504132850370000014675478767128175273_);fill:#FFFFFF;}
	.st13{clip-path:url(#SVGID_00000018932938179022682840000011190115595625941930_);fill:#FFFFFF;}
	.st14{clip-path:url(#SVGID_00000053537548408587153340000005563607250552434328_);fill:#FFFFFF;}
	.st15{clip-path:url(#SVGID_00000031887014890021774420000015626702975401000333_);enable-background:new    ;}
	.st16{fill:#E94539;}
	.st17{font-family:'Impact';}
	.st18{font-size:20px;}
	.st19{enable-background:new    ;}
	.st20{fill:none;stroke:#FFFFFF;stroke-width:0.5;stroke-miterlimit:3.99;}
</style>
<g>
	<g>
		<defs>
			<rect id="SVGID_1_" width="195.6" height="280.6"/>
		</defs>
		<clipPath id="SVGID_00000088849243932403973060000011219237327077699002_">
			<use xlink:href="#SVGID_1_"  style="overflow:visible;"/>
		</clipPath>
		
			<rect x="-9.2" y="-8.6" style="clip-path:url(#SVGID_00000088849243932403973060000011219237327077699002_);fill:#E94539;stroke:#FFFFFF;stroke-width:0.5;stroke-miterlimit:3.99;" width="214" height="297.9"/>
	</g>
	<g>
		<defs>
			<rect id="SVGID_00000086660527098805003020000017911188633967311259_" width="195.6" height="280.6"/>
		</defs>
		<clipPath id="SVGID_00000068667862405451156630000010094609743873979303_">
			<use xlink:href="#SVGID_00000086660527098805003020000017911188633967311259_"  style="overflow:visible;"/>
		</clipPath>
		<path style="clip-path:url(#SVGID_00000068667862405451156630000010094609743873979303_);fill:#FFFFFF;" d="M153.2,176.9
			c0-0.1,0-0.2,0-0.3v-0.1c0-0.7-0.1-1.4-0.2-2.1v-0.1c-0.1-0.8-0.2-1.6-0.3-2.4c0-0.2-0.1-0.4-0.1-0.7c-0.1-0.6-0.2-1.1-0.3-1.7
			l-0.2-0.9c-0.1-0.3-0.1-0.6-0.2-0.9l0,0v-0.1l0,0c0-0.2-0.1-0.4-0.1-0.5c-0.1-0.4-0.2-0.8-0.3-1.1s-0.3-0.9-0.4-1.3
			s-0.2-0.7-0.4-1.1s-0.3-0.8-0.5-1.2s-0.3-0.7-0.4-1.1l-0.5-1.2c-0.2-0.4-0.3-0.7-0.5-1.1l-0.3-0.6l0,0l0,0l0,0l-0.2-0.4
			c-0.3-0.5-0.6-1.1-0.8-1.6c-0.1-0.2-0.2-0.4-0.4-0.7l0,0c0,0,0,0,0-0.1l0,0l-0.1-0.2c-0.4-0.6-0.7-1.2-1.1-1.8
			c-0.1-0.2-0.2-0.3-0.3-0.5c-0.5-0.7-1-1.5-1.5-2.2l-0.6-0.7c-0.4-0.5-0.7-0.9-1.1-1.4l-0.7-0.8c-0.4-0.4-0.7-0.8-1.1-1.2l-0.4-0.4
			c-0.2-0.2-0.4-0.4-0.7-0.7l-0.4-0.4c-0.6-0.6-1.1-1.1-1.7-1.6l0,0c0,0,0-0.1-0.1-0.1l0,0c-0.6-0.5-1.1-1-1.7-1.4l-0.4-0.3
			c-0.5-0.4-0.9-0.7-1.4-1.1l-0.6-0.5c-0.4-0.3-0.9-0.6-1.3-0.9l-0.7-0.5l-0.4-0.3l0,0c-0.5-0.3-0.9-0.6-1.4-0.9l-0.1-0.1
			c-0.7-0.4-1.4-0.8-2.2-1.2l-0.3-0.2c-0.6-0.3-1.2-0.6-1.8-0.9l-1-0.3c-0.5-0.3-1.1-0.5-1.6-0.8l-0.6-0.3c-0.7-0.3-1.5-0.6-2.2-0.9
			l-0.3-0.1l-2-0.7l-0.8-0.3c-0.3-0.1-0.6-0.2-0.8-0.3l0,0l-0.2-0.1l0,0l-0.4-0.1l-1.5-0.4l-1.2-0.3l-1.6-0.4l-1.1-0.2
			c-0.6-0.1-1.2-0.2-1.8-0.4c-0.3-0.1-0.7-0.1-1-0.2c-0.6-0.1-1.3-0.2-2-0.3l-0.7-0.1l0,0c-3-0.4-6-0.6-9-0.6
			c-2.9,0-5.8,0.2-8.7,0.6h-0.1l-0.8,0.1c-0.7,0.1-1.3,0.2-2,0.3c-0.3,0.1-0.7,0.1-1,0.2c-0.6,0.1-1.2,0.2-1.7,0.4l-1.1,0.3
			l-1.6,0.4l-1.2,0.4c-0.4,0.1-0.8,0.2-1.2,0.4l0,0l-0.2,0.1l0,0l-0.1,0.1c-1.1,0.4-2.2,0.8-3.2,1.2l-0.7,0.3
			c-0.8,0.3-1.6,0.7-2.4,1.1l-0.9,0.4c-0.9,0.4-1.8,0.9-2.6,1.4l-0.4,0.2c-1,0.5-1.9,1.1-2.9,1.7l-0.2,0.1c-0.4,0.2-0.7,0.5-1.1,0.7
			l-0.7,0.5c-0.7,0.5-1.3,0.9-2,1.4l-0.5,0.4c-0.5,0.4-1,0.8-1.4,1.1l-0.7,0.6c-0.3,0.2-0.5,0.4-0.8,0.7l0,0l-0.1,0.1l0,0l-0.4,0.3
			l-0.5,0.4l-0.2,0.2l-0.3,0.3c-0.7,0.6-1.3,1.3-1.9,2l-0.5,0.6c-0.6,0.7-1.2,1.4-1.8,2.1L49,150c-0.7,0.8-1.3,1.7-1.9,2.5l-0.5,0.8
			c-0.4,0.6-0.8,1.3-1.3,1.9c-0.1,0.2-0.2,0.3-0.3,0.5l0,0v0.1h-0.5v0.7v0.1c-0.5,0.9-1,1.7-1.4,2.6c0,0.1-0.1,0.2-0.1,0.2
			c-0.4,0.8-0.8,1.6-1.2,2.4c-0.1,0.2-0.2,0.5-0.3,0.8c-0.3,0.6-0.5,1.3-0.8,1.9l-0.3,0.9c-0.2,0.6-0.4,1.2-0.6,1.9
			c0,0.2-0.1,0.3-0.2,0.5l0,0v0.1l0,0c0,0.1-0.1,0.3-0.1,0.4c-0.2,0.6-0.3,1.2-0.5,1.8c-0.1,0.3-0.2,0.6-0.2,1
			c-0.2,0.6-0.3,1.3-0.4,2l-0.2,0.9c-0.1,0.8-0.2,1.6-0.3,2.4c0,0.2,0,0.3-0.1,0.5c-0.1,1-0.2,1.9-0.2,2.9v0.1l0,0v0.1l0,0v0.1
			c0,0.8-0.1,1.6-0.1,2.4l0.1,84h116.3L153.2,176.9z"/>
	</g>
	<g>
		<defs>
			<rect id="SVGID_00000069364872036760152930000012397991202577755531_" width="195.6" height="280.6"/>
		</defs>
		<clipPath id="SVGID_00000041997013570627318090000010030663927576474755_">
			<use xlink:href="#SVGID_00000069364872036760152930000012397991202577755531_"  style="overflow:visible;"/>
		</clipPath>
		<g id="Слой_1-2" style="clip-path:url(#SVGID_00000041997013570627318090000010030663927576474755_);">
			<path id="path10" class="st3" d="M95.5,11.9c-23.1,0-43.5,3-56.9,7.7v26.8c7.7,7.5,7.9,19.9,0.4,27.6c-0.1,0.1-0.3,0.3-0.4,0.4
				c0,22.5,7.6,39,21.1,51.7c11,10.3,27.1,14.6,35.8,25.6c8.8-11,24.8-15.3,35.8-25.6c13.5-12.6,21-29.2,21.1-51.7
				c-7.7-7.5-7.9-19.8-0.4-27.6c0.1-0.1,0.3-0.3,0.4-0.4V19.5C139.1,14.9,118.6,11.9,95.5,11.9z"/>
			<path id="path12" class="st4" d="M95.5,15.5c-22.2,0-41.7,2.9-53.5,7.3v21.7c8.3,8.9,8.3,22.8,0,31.7
				c0.4,20.4,7.4,36.1,20.5,47.5c10.2,8.9,25.7,13.8,32.9,22.7c7.2-8.8,22.7-13.8,32.9-22.7c13.1-11.4,20.1-27.2,20.6-47.5
				c-8.3-8.9-8.3-22.8,0-31.7V22.8C137.2,18.4,117.7,15.5,95.5,15.5z"/>
			<polygon id="polygon14" class="st3" points="73.7,30.9 69.1,30.9 67.9,29.3 67.9,34.5 72,34.5 72,38.3 67.9,38.3 67.9,40.8 
				72,40.8 72,44.6 67.9,44.6 67.9,49.3 65.1,49.3 65.1,44.6 61,44.6 61,40.8 65.1,40.8 65.1,38.3 61,38.3 61,34.5 65.1,34.5 
				65.1,29.3 63.8,30.9 59.3,30.9 66.5,21.9 			"/>
			<path id="path16" class="st5" d="M61.8,115.3c0.5-1.2,1.7-1.9,2.9-1.6l-0.1,1.8C63.7,115.1,62.7,115,61.8,115.3z"/>
			<path id="path18" class="st5" d="M63,112.1c0.7-1,2.1-1.4,3.2-0.9l-0.5,1.8C65,112.4,64,112.1,63,112.1z"/>
			<path id="path20" class="st5" d="M69.7,121.9c-0.4-1.2,0.1-2.5,1.3-3.1l1.1,1.5C71.2,120.5,70.3,121.1,69.7,121.9L69.7,121.9z"/>
			<path id="path22" class="st5" d="M81.3,122.7c1.2-0.4,1.9-1.7,1.7-2.9h-1.8C81.5,120.7,81.6,121.7,81.3,122.7z"/>
			<path id="path24" class="st5" d="M122.8,121.5c0-1.3-0.9-2.4-2.1-2.6l-0.6,1.7C121,120.5,122,120.8,122.8,121.5z"/>
			<path id="path26" class="st5" d="M101.3,118.2c0.3-1.2,1.4-2.1,2.7-2l0.2,1.8C103.2,117.7,102.2,117.8,101.3,118.2z"/>
			<path id="path28" class="st5" d="M101.8,121.7c0.1-1.3,1.1-2.3,2.3-2.4l0.5,1.8C103.6,120.9,102.6,121.1,101.8,121.7z"/>
			<path id="path30" class="st5" d="M105.9,125.4c-0.5-1.2-0.1-2.5,1-3.2l1.2,1.4C107.2,123.9,106.4,124.5,105.9,125.4z"/>
			<path id="path32" class="st5" d="M68.3,64c1.2-0.3,2.5,0.4,3,1.6l-1.6,0.9C69.6,65.5,69.1,64.6,68.3,64z"/>
			<path id="path34" class="st5" d="M63.2,70.6c0.7-1,2.1-1.3,3.2-0.8l-0.6,1.8C65.1,70.9,64.2,70.6,63.2,70.6z"/>
			<path id="path36" class="st5" d="M65.5,77.3c0-1.3,0.9-2.3,2.1-2.6l0.6,1.7C67.2,76.5,66.3,76.7,65.5,77.3z"/>
			<path id="path38" class="st5" d="M72.7,79.4c1.2,0.2,2.5-0.6,2.8-1.8l-1.7-0.8C73.9,77.8,73.4,78.7,72.7,79.4z"/>
			<path id="path40" class="st6" d="M87.4,38.6c1.7,2.3,5.2,2.1,8.9,2.1c1.8,0,3.6,0,5.3,0.3c-1.3,0.1-3.4,0.3-5.6,0.5
				C92.1,42,87.4,43.1,87.4,38.6z"/>
			<path id="path42" class="st7" d="M62.8,53.3c0.1-0.3,0.3-0.5,0.6-0.6c0.5-0.2,1.1-0.2,1.6-0.3v-0.1c-0.6,0-1.1,0-1.7,0h-0.5
				c-0.4,0-0.8-0.2-1-0.7c-0.1-0.3-0.1-0.6,0-0.8c0.2-0.4,0.6-0.6,1-0.5h0.8l1,0.1c-0.2,0-0.3-0.1-0.5-0.2c-0.5-0.2-0.8-0.6-0.9-1.1
				c0-0.2,0-0.4,0-0.6c0-0.2,0.1-0.3,0.2-0.5c0.2-0.2,0.5-0.3,0.8-0.3c0.8,0.1,1.5,0.2,2.3,0.2s1.6,0,2.3-0.2c0.5-0.2,1-0.3,1.5-0.3
				c0.4,0,0.9,0.1,1.2,0.4c0.4,0.3,0.7,0.7,0.8,1.1c0.3,0.7,0.4,1.4,0.4,2.1c2.5-0.7,5-0.9,7.5-0.7c2.4,0.2,4.8,0.9,6.9,2
				c1.2-1.3,2.7-2.2,4.4-2.7c0.2-0.4,0.4-0.9,0.6-1.3c0.2-0.4,0.5-0.7,0.8-1.1c1.5-1.6,3.8-2.2,6.5-2h0.1c0.4,0,0.8-0.2,1-0.5
				s0.4-0.6,0.4-1c-1.4,0.6-2.8,1-4.3,1c-1.1-0.1-1.7-0.8-1.5-2.2l0,0l0,0l0,0l0.2-0.1l0.2-0.1c0.4-0.2,0.8-0.4,1.2-0.3h0.1v0
				c-0.1,0.5,0.2,0.8,0.7,0.8c1,0,2.1-0.1,3.1-0.3l0.8-0.1c0.2-1-0.3-2-1.3-2.4c-1.2-0.3-2.5-0.4-3.8-0.3l0,0h-0.9
				c-0.7,0.1-1.5,0.1-2.2-0.1l0,0c-0.6-0.2-0.8-0.6-0.6-1.3l0,0v-0.1l0,0c0.2-0.4,0.2-0.9,0-1.4l0,0l-0.2-0.2l0,0
				c0-0.1-0.1-0.2-0.1-0.3c-0.2-0.5-0.1-1,0.3-1.3l0,0c0.1-0.1,0.3-0.2,0.4-0.3c0.2-0.1,0.3-0.2,0.5-0.3c1-0.4,2-0.6,3-0.6h-0.1
				c0.7-1.6,2.1-2.7,3.8-3c2-0.3,4.1-0.3,6.1,0.1c0.2-0.2,0.4-0.5,0.5-0.8c0.2-0.3,0.3-0.7,0.4-1V29l0.1,0.1c0.4,0.3,0.7,0.6,0.9,1
				c0.2,0.4,0.3,0.8,0.3,1.2c0.2,0,0.4-0.1,0.6-0.2c0.2-0.2,0.4-0.4,0.5-0.6v-0.1l0.1,0.1c0.3,0.2,0.5,0.5,0.7,0.8l0,0
				c0.1,0.3,0.2,0.6,0.3,0.9c0.1,0,0.2,0.1,0.3,0.1c0.1,0.1,0.2,0.1,0.3,0.2l0,0c0.8,0.5,1.3,1.3,1.3,2.2l0,0
				c0.6,0.7,0.9,1.5,0.8,2.4h-0.1c0.7,0.7,1,1.8,0.6,2.8c0.3,0.6,0.5,1.2,0.6,1.9V42v0.1h-0.4c-0.2,0-0.3-0.1-0.5-0.2
				c0.1,0.3,0.1,0.6,0.1,0.9c0.1,0.8,0,1.6-0.3,2.4l-0.3,0.8l0,0c-0.6,1.5-1.1,3.1-1.4,4.7v0.2l-0.1-0.2c-0.5-0.9-1.1-1.6-1.8-2.3
				v0.3c0.2,2.2,0.4,4.3-1.2,6.1c-0.7,0.7-1.2,1.6-1.5,2.6c-0.3,1.1-0.3,2.2-0.2,3.2v0.1h-0.1c-0.4-0.1-0.7-0.4-1-0.6
				c-0.3-0.3-0.6-0.7-0.9-1.2c-0.2,0.4-0.3,0.8-0.3,1.3s0,1,0,1.4v0.2l0,0c0,1.7-0.1,3.3-0.2,5s-0.3,3.6-0.5,5.3
				c0.6,1,1.1,2.1,1.6,3.2c0.4,1.1,0.7,2.3,1,3.4c0.7,2.9,1.8,5.5,3.1,6.8c0.2,0.2,0.5,0.4,0.8,0.6c0.3,0.1,0.5,0.2,0.8,0.2l0,0
				c0.2,0,0.4,0,0.7,0c0.8-0.2,1.4-0.7,1.7-1.5c0.3-0.8,0.5-1.7,0.5-2.6c0-1.2-0.1-2.4-0.3-3.5c-0.4-1.8-0.9-3.6-1.6-5.3
				c-1.1-2.7-1.7-5.6-1.9-8.5c0-2.3,0.6-5.4,2.4-7.1c0.4-0.3,0.8-0.6,1.2-0.8c0.5-0.2,1-0.3,1.5-0.4h0.1c1.8-0.1,3.5,0.8,4.3,2.4
				c0.8,1.6,1.3,3.3,1.5,5c0.8,0.3,1.4,0.9,1.7,1.6c0.1,0.2,0.1,0.3,0.2,0.5s0.1,0.4,0.1,0.6l0,0c0.2,1-0.2,2-0.9,2.7
				c-0.1,0.1-0.3,0.2-0.4,0.3h-0.1c0,0.8,0,1.6,0.1,2.4c0,0.2,0,0.3,0.1,0.5s0,0.3,0.1,0.4l0,0v0.2l-0.2-0.1c-0.4-0.3-0.8-0.7-1-1.2
				c-0.3-0.5-0.4-1-0.6-1.6c-1-0.1-1.8-0.8-2.3-1.7c-0.1-0.2-0.2-0.4-0.2-0.6c-0.1-0.2-0.1-0.4-0.2-0.7l0,0l0,0
				c-0.2-1,0.1-2,0.8-2.7c0.1-0.1,0.2-0.2,0.4-0.3l0,0c0.1-0.1,0.2-0.2,0.4-0.2c-0.1-0.6-0.3-1.2-0.5-1.8l-0.1-0.3l-0.1-0.3l0,0
				c-0.2-0.5-0.6-0.9-1-1.2c-0.3-0.2-0.6-0.4-1-0.4c-0.4-0.1-0.8,0-1.1,0.2c-0.5,0.2-0.9,0.6-1.2,1c-2.4,3.3-0.8,8.3,0.9,13.2
				l0.1,0.2l0.4,1.2c1,2.9,2.2,6.3,1.3,9.2l0,0c-0.3,0.9-0.8,1.8-1.5,2.5s-1.7,1.2-2.7,1.4c-1,0.2-2.1,0.2-3.1-0.1
				c-1-0.3-1.9-0.9-2.6-1.6l-0.2,0.5c-0.4,1.1-0.8,2.3-1.1,3.5c-0.8,3.1-0.7,6,3.2,7.1c1.5,0.4,3.1,0.9,4.5,1.6
				c1.2,0.6,2.3,1.4,3.1,2.4l0.1,0.2h-0.2c-0.8-0.2-1.6-0.3-2.4-0.3c-0.6-0.1-1.3-0.1-1.9,0c0.7,0.2,1.4,0.6,2.1,1
				c0.7,0.6,1.2,1.3,1.6,2.2l0.1,0.2h-0.2c-0.8-0.3-1.7-0.5-2.5-0.5c0.9,2.1,1.6,4.2,2.1,6.4c0.5,2.1,0.8,4.3,0.8,6.5h0.1
				c0.7-0.3,1.4-0.5,2.2-0.5c0.9,0,1.7,0.4,2.2,1.1c0.1,0.1,0.2,0.3,0.2,0.5s0.1,0.4,0.1,0.6l0,0v0.1l0,0c0,0.1,0,0.2,0,0.2
				c-0.1,0.6-0.5,1.1-0.9,1.4c-0.4,0.4-0.9,0.6-1.5,0.7h-0.2c-0.8-0.2-1.5-0.6-2.1-1.1l-0.3-0.3c-0.1-0.1-0.2-0.2-0.2-0.2
				c-0.8,1.3-1.8,2.4-3,3.3c-1.3,0.9-2.9,1.2-4.4,0.7c-0.7-0.1-1.3-0.4-1.8-1c-0.2-0.3-0.3-0.6-0.3-0.9c0-0.2,0-0.4,0.1-0.6
				c-0.9,0.3-1.9,0.1-2.5-0.5c-0.2-0.2-0.4-0.5-0.5-0.7c-0.1-0.3-0.2-0.6-0.2-0.8c0-0.3,0.2-0.6,0.4-0.8l0,0c-0.3-0.5-0.4-1-0.4-1.5
				c0-0.4,0.2-0.8,0.5-1.1l0,0c0.3-0.3,0.8-0.5,1.2-0.6c0.9-0.1,1.8,0,2.7,0.3l0.8,0.3c1.7,0.6,3.6,1.2,5.3,1.7
				c-0.8-3-2-5.9-3.7-8.6c-1.5-2.3-3.5-4.1-5.9-5.3c-0.1,0.7-0.4,1.4-1,1.8c-0.1,0.1-0.3,0.2-0.4,0.3c-0.1,0.1-0.3,0.2-0.4,0.3l0,0
				h-0.1L102,107v-0.2c0.2-1,0.2-2.1,0-3.1c-0.8,1.9-1.8,2.8-3,2.8h0v-0.1c0.6-1.2,1-2.5,1.2-3.8c0.1-1.3-0.3-2.6-1.2-3.6
				c-2.3-2.3-3.9-5.2-4.8-8.3c-0.1-0.4-0.2-0.9-0.3-1.3c-0.8,0.3-1.6,0.4-2.4,0.5c-0.8,0-1.6,0-2.4-0.1l0,0c-0.2,0-0.4,0-0.6,0
				s-0.4,0-0.6,0c-0.8,0.1-1.5,0.5-2,1.2c-1.4,1.9-0.8,3.7-0.2,5.7l0,0l0,0l0,0c0.4,1.2,0.6,2.5,0.8,3.7c0.2,1.2,0.3,2.5,0.4,3.7
				c1.1,0.5,2,1.4,2.4,2.6s0.6,2.5,0.4,3.8v0.2l-0.1-0.2c-0.3-0.5-0.7-1-1.1-1.4c-0.3-0.3-0.7-0.6-1.1-0.8c0.1,0.1,0.1,0.2,0.2,0.3
				s0.2,0.4,0.3,0.6c0.4,1.1,0.4,2.4,0.1,3.5l-0.1,0.2l-0.1-0.2c-0.3-0.5-0.6-1.1-0.9-1.6c-0.5,0.2-1,0.3-1.5,0.3H85h-0.3
				c-0.6,0.8-1.3,1.5-1.9,2.1s-1.2,1.2-1.8,1.8c0.9,0.4,1.7,1.1,2.3,2c0.1,0.1,0.1,0.3,0.2,0.4c0,0.2,0.1,0.3,0.1,0.5l0,0
				c0.1,0.6,0,1.2-0.3,1.7c-0.2,0.4-0.5,0.7-0.9,0.8c-0.4,0.2-0.8,0.2-1.2,0.2c-0.6-0.1-1.1-0.4-1.5-0.8c-0.6-0.7-1-1.7-1-2.6
				c0-0.2,0-0.3,0-0.5c0-0.1,0-0.1,0-0.2c-0.8,0.8-1.6,1.7-2.4,2.4c-0.8,0.7-1.6,1.3-2.6,1.6l0,0c-0.7,0.3-1.5,0.3-2.3,0l0,0
				c-0.1,0-0.2-0.1-0.3-0.2l0,0c-0.1-0.1-0.2-0.1-0.3-0.2l0,0c-0.3-0.3-0.5-0.8-0.6-1.2c0-0.5,0.2-1,0.5-1.4c0.4-0.4,0.8-0.7,1.3-1
				c-1.2,0.2-2.5,0.3-3.7,0.3l0,0h-0.8h-0.9c-0.1,0-0.3,0-0.4,0l0,0c-0.6-0.1-1.2-0.4-1.7-0.8c-0.4-0.3-0.6-0.8-0.6-1.3
				c0-0.1,0-0.1,0-0.2l0,0l0.1-0.3c0.1-0.6,0.5-1.1,1.1-1.4l0,0c0.2-0.7,0.6-1.4,1.2-1.9c0.5-0.5,1.2-0.9,1.9-1.2
				c0.8-0.3,1.6-0.3,2.4-0.1c0.9,0.3,1.7,0.8,2.4,1.5l1.2,1l1,0.8l0,0c0.5,0.5,1.2,0.8,1.8,1c0.7,0.1,1.4-0.2,1.8-0.8l0,0
				c0.7-0.6,1.3-1.2,1.9-1.9c0.7-0.7,1.2-1.5,1.7-2.4c0.9-2.2,1.3-4.6,1.1-7c-0.2-2.2-1.3-4.3-2.9-5.7c-0.7,1.3-2,2.2-3.5,2.5
				c-0.3,0-0.6,0-0.8,0c-0.3,0-0.5-0.1-0.8-0.3l0,0l-0.1-0.1l0.1-0.1l0.5-0.3c1.4-0.8,2.5-2.1,3-3.6c-0.6,0.6-1.3,1-2,1.3
				s-1.5,0.2-2.1-0.2l-0.1-0.1l0.1-0.1c1.3-0.8,2.4-2,2.9-3.4c0.1-0.3,0.1-0.6,0.2-0.9c0-0.3,0-0.6,0-0.9l0,0c0-0.3,0-0.7-0.1-1
				c-0.1-1.9-0.3-3.8,1.5-5.2c1-0.7,2.3-1.1,3.5-0.9c1.4,0.1,2.7,0.4,4,0.8l0.4,0.1c1,0.3,2,0.7,2.7-0.7c0.5-0.9,1-1.8,1.6-2.6
				c0.5-0.8,1.1-1.5,1.7-2.2c-1.6-2.3-3-4.7-4-7.3c-0.4-0.4-0.7-0.9-1-1.4c-0.5-0.9-0.8-2-0.7-3c-0.3-0.1-0.6-0.2-0.9-0.2l0,0
				c-0.2,0-0.5-0.1-0.7-0.1c0.5,0.6,1,1.3,1.3,2s0.5,1.5,0.5,2.3v0.1h-0.1c-3.6-1.6-8.4,0.2-10.6,1.1l0,0l-0.3,0.1
				c0,0.1,0,0.3,0,0.4c0.1,1,0.2,2.1,0.1,3.1c-0.1,1.6-0.6,3-2.2,2.9h-0.2c-0.4-0.2-0.7-0.5-0.8-0.9c-0.1-0.5-0.2-1-0.1-1.5
				c0-0.4,0.1-0.8,0.2-1.2C73,75.7,72,76.4,71,77c-0.5,0.3-1.1,0.5-1.7,0.5c-0.5,0-1.1-0.2-1.5-0.6c-0.2-0.2-0.3-0.4-0.5-0.7
				c-0.1-0.2-0.2-0.5-0.2-0.8l0,0c-0.1-0.6,0.2-1.3,0.8-1.6c0.6-0.4,1.3-0.7,2.1-0.9h0h-1c-0.8,0-1.6,0-2.2,0l0,0
				c-0.6,0-1.1-0.4-1.3-0.9c-0.1-0.2-0.1-0.5-0.1-0.8s0.1-0.5,0.2-0.8c0.3-0.7,0.9-1.1,1.7-1.2c1.1,0,2.1,0,3.2,0.2
				c0.5,0.1,1,0.1,1.6,0.2c-1-0.4-1.9-1-2.6-1.8l0,0c-0.3-0.4-0.4-1-0.3-1.5c0.1-0.3,0.3-0.7,0.6-0.9c0.3-0.3,0.6-0.5,0.9-0.6
				c0.6-0.2,1.2-0.1,1.7,0.2c1,0.7,1.9,1.7,2.5,2.8c0.1,0.2,0.3,0.5,0.4,0.8s0.2,0.5,0.4,0.8c2.8-1.2,5.3-2.8,7.6-4.8
				c1.7-1.5,3-3.5,3.6-5.7l0,0c0-0.4,0.1-0.7,0.1-1L86.7,58c-0.6,0.4-1.1,0.9-1.5,1.5L85,59.7v-0.3c0-0.5,0-1.1,0-1.6
				c-0.4-0.3-0.8-0.5-1.3-0.8s-1-0.5-1.5-0.7c-2.9-1.3-6.1-1.7-9.3-1.2c-0.6,0.2-1.2,0.4-1.7,0.7l0,0c-0.4,0.3-0.9,0.5-1.4,0.7l0,0
				l-0.3,0.1h-0.3c-0.6,0.1-1.1-0.2-1.5-0.6l0,0h-0.4c-0.5,0.1-1.1,0.2-1.6,0.2l0,0c-0.4,0.1-0.8-0.1-1.1-0.4l0,0
				c-0.1-0.1-0.1-0.2-0.2-0.4l0,0c0-0.1,0-0.3,0-0.4l0,0c0.1-0.3,0.4-0.5,0.7-0.5l0.4-0.1v-0.1c-0.6,0.1-1.1,0.1-1.7,0.1
				c-0.3,0-0.6-0.1-0.8-0.4c-0.1-0.1-0.2-0.3-0.2-0.5C62.7,53.6,62.7,53.5,62.8,53.3L62.8,53.3z"/>
			<path id="path44" class="st8" d="M74.8,115.9c-2-0.4-5.9,1.9-3.9,4.1c0.8,0.7,1.8,0.8,2.8,0.4c1.7-0.6,3.4-2.3,5.2-4.2
				c-0.3,1.3,0.1,2.6,1,3.6c1.8,1.8,4.1,0.6,3.8-1.8c-0.1-1.1-1-2.1-2.7-2.9c1.4-1.2,2.7-2.6,3.9-4c0.7,0.1,1.5,0,2.1-0.3 M94,88.8
				c-1.5,0.5-3.2,0.6-4.7,0.3c-1.2-0.3-2.5,0.2-3.3,1.2c-1.4,2-0.8,3.8-0.2,5.8c0.7,2.4,1.1,4.9,1.2,7.5c2.5,1.2,3,3.5,2.7,6.3
				c-0.6-1-1.5-1.8-2.5-2.4c0.9,1.4,1.2,3.1,0.7,4.7c-0.5-1.1-1.2-2.1-2.2-2.9 M74.4,114.5c-2.2-0.3-4.3-1.4-6.1-1.8
				s-4.1-0.4-4.3,1.8c-0.1,1.2,0.9,2.1,2.6,2.2c2,0,4.1-0.1,6.1-0.4 M93.4,78.3c-1.2,1.5-2.3,3.1-3.2,4.8c-0.9,1.6-2.1,0.9-3.2,0.6
				c-2.5-0.8-5.6-1.4-7.4,0.1c-2.1,1.7-1.5,3.9-1.4,6.1c0,2.2-1.2,4.3-3.1,5.3c1.3,0.8,2.7,0.1,4.2-1.3c-0.7,2.6-2.2,3.3-3.6,4.3
				c1.8,0.9,4.1-0.3,5.1-2.2c3.8,3.4,3.7,8,1.9,12.9c-1,1.6-2.2,3.1-3.7,4.3c-1.2,1.4-2.5,0.8-3.7-0.2c-0.7-0.5-1.4-1-2.2-1.7
				c-1.6-1.9-4.5-2.1-6.4-0.5c-0.6,0.5-1.1,1.3-1.4,2.1 M101.3,48.9c-0.3,2.7,1.2,3.5,1.7,6.1c1.9-2.5,4-5.4,3.3-8.5
				c-0.3-1-0.5-2.1-0.3-3.2c0.4,1.1,1.5,1.9,2.7,2c0.9,0.1,1.7,0.5,2.3,1.1c0.2-1.2,0.1-2.4-0.4-3.4c-0.6-1-1-2.1-1.2-3.3
				 M103.1,54.7c-0.3,3.5,0.3,5.7,2,6.7c-0.1-1,0.1-2,0.4-2.9c0.4,0.8,1.1,1.5,1.9,1.9c-0.4-2.1,0.2-4.3,1.7-5.9
				c1.7-1.8,1.3-4.2,1.1-6.5c0.8,0.7,1.5,1.5,2,2.4c0.4-1.9,1-3.7,1.8-5.4c0.7-1.5,0.6-3.4-0.4-4.7 M89,62
				c-3.4,5.9-0.3,9.8,5.7,12.8c-0.9-5.2-0.8-9.9,2.7-13.1c1,1.5,2.2,2.8,4.3,2.7c-1.2-1.9-1.2-4.3-0.2-6.3 M98.3,50.2
				c0.1,1.5-0.2,3-0.9,4.4c2.2-0.4,3-2,4.6-2.4 M98.6,47.7c-3.3,0-5.5,1.1-6.8,3.3c1.6-0.2,3.2-0.1,4.8,0.4
				c-4.2,1.5-8.1,2.9-9.5,6.3c3.1-1,4.8,0.7,7.4-1.9 M89.3,70.8c1.4,3.9,4,7.4,6.2,10.4c-3,6.2-1.1,11.8,3.8,17.2
				c2,2.3,1.2,4.8,0.1,7.5c1.2,0,2.2-1,3-3.1c0.2,1.1,0.2,2.3,0,3.4c1.1-0.4,1.8-1.4,1.9-2.5c4.9,2.4,8,7.3,9.8,14.1
				c-2-0.6-4.2-1.3-6.2-2c-2.9-1-5.3,0.3-3.9,2.9 M113.2,118.9c-3.1-1.2-5.9-1.5-8.6-0.7s-0.5,4.3,2.2,3.2 M113.8,120.2
				c-1.6-0.2-3.3-0.2-4.9,0c-2.8,0.5-3,3.4-0.2,3.9c3.7,0.8,5.5-1.4,7.5-4.1c0.7,0.9,1.6,1.5,2.7,1.8c1,0.2,2.5-1.2,2.5-2.3
				c0-1.2-1-2.2-2.2-2.2c-0.1,0-0.1,0-0.2,0c-0.8,0-1.6,0.2-2.4,0.6c0.1-4.5-1.2-8.8-2.9-13.1c0.9,0,1.8,0.2,2.7,0.5
				c-0.7-1.7-2.1-2.9-3.9-3.2c1.6-0.2,3.2-0.1,4.7,0.2c-1.5-2-4.2-3.1-7.6-4c-5.8-1.5-3.5-7-1.9-11.3c3.2,3.3,8.5,2.3,9.9-2
				c1-3.2-0.7-7.2-1.7-10.4c-1.7-5-3.4-10.1-0.9-13.5c0.7-1.2,2.2-1.6,3.4-0.9c0.5,0.3,0.9,0.8,1.1,1.4c0.3,0.8,0.6,1.6,0.8,2.5
				c-1.2,0.6-1.8,1.9-1.6,3.2c0.1,1.5,1.2,2.7,2.6,2.9c0.1,1.1,0.7,2.1,1.5,2.8c-0.3-1.1-0.3-2.2-0.3-3.4 M122,69.7
				c1.3-0.4,2-1.7,1.8-3c-0.1-1.2-0.9-2.3-2-2.7c-0.5-3.2-1.6-7.6-5.7-7.3s-5.3,5-5.2,8.2c0.1,5,2.5,9,3.5,13.8
				c0.4,2.1,0.9,7.8-2.7,7.7c-2.1-0.1-3.8-3.6-4.8-7.7c-0.5-2.4-1.4-4.6-2.6-6.7c0.4-3.5,0.7-7,0.8-10.6 M87.3,57.6
				c-0.9,0.4-1.6,1.1-2.1,1.9c-0.1-4.4,1.4-8,6.7-9.8c1.3-3.4,4.1-4.7,7.9-4.4c1,0,1.7-0.8,1.7-1.8c-3.7,1.4-6.1,1.6-5.9-1.1
				c0.4-0.4,1-0.6,1.5-0.6c-0.3,1.6,2.4,0.9,4.6,0.4c0.2-2.7-2.2-2.8-5.2-2.8c-2.1,0-4.2,0.5-3.7-1.3c0.2-0.5,0.4-1.1,0.1-1.6
				s-0.6-1.2,0-1.7c1.2-0.9,2.7-1.3,4.2-1.2c2.4,0.2,4.7,1.3,6.2,3.2 M97,33.7c1.4-3.3,5.3-3.6,9.9-2.8c0.4-0.5,0.8-1.2,0.9-1.8
				c0.7,0.5,1.2,1.4,1.2,2.3c0.5-0.1,1-0.4,1.2-0.9c0.5,0.4,0.9,1,0.9,1.7c1,0.4,1.8,1.4,1.9,2.5 M111.4,33.7
				c1.5,0.3,2.6,1.7,2.5,3.3 M111.9,35.8c1.8,0.7,3.1,2.1,2.5,3.9 M107.9,34.5c2.1,1.2,4.1,2.7,5.9,4.4c0.7,0.8,1.1,1.8,1.3,2.9
				c-0.3,0-0.7-0.1-0.9-0.3 M87.6,66c-1.1-2-0.9-6.7-0.5-8.4 M73.6,72.5c-1.5-0.1-7.9,0.4-6.3,3.5c1.4,2.8,5.1-0.3,6.5-1.6
				c-0.3,1-0.6,3.8,0.8,3.9c2.8,0.2,2.1-4.6,1.9-6.4c2-0.8,7.2-2.9,11-1.2c0-1.7-0.7-3.3-1.9-4.5c0.6,0,1.3,0.2,1.9,0.4 M73.7,69.9
				c-2.1-0.4-4.2-0.7-6.4-0.7c-2.1,0-2.5,3.4-0.5,3.5c0.9,0.1,2.9-0.1,4,0 M86.9,58.9c-1,4.2-4.9,7.7-11.3,10.6
				c-0.7-1.8-1.8-3.3-3.3-4.4c-1.7-1.1-4,1-2.8,2.7c0.6,0.9,2,1.4,3.1,2 M68.9,53c-0.8-0.9-0.9-2.2-0.2-3.2c-1.4,0.6-3,0.7-4.5,0.2
				c-1.2-0.5-1.2-2.4,0.1-2.2c1.5,0.2,3.1,0.3,4.6,0.1c2.3-1,3.9,0.2,3.9,3.2c5.3-1.3,10.1-1.1,14.5,1.3 M82.8,54.9
				c1.1,0.2,2.1,1,2.6,2 M85.2,57.9c-2.8-1.9-7.9-3.6-12.2-2.6c-1.2,0.3-1.9,1-3.1,1.4c-0.7,0.3-1.6,0.1-2.1-0.4 M66.8,54.5
				c1.7-0.2,1.6,1.5,0.9,1.6c-0.5,0.1-1.4,0.2-2,0.2c-1.2,0.1-1.7-1.3-0.6-1.6C65.6,54.7,66.2,54.6,66.8,54.5L66.8,54.5z M63.4,52.8
				c-0.5,0.2-0.7,0.7-0.5,1.2c0.2,0.4,0.5,0.6,0.9,0.5c0.9,0,1.9-0.1,2.8-0.2c1.3-0.2,0.8-1.8-0.4-1.8
				C65.3,52.5,64.3,52.6,63.4,52.8z M62.9,50.3c-0.5-0.2-1.1,0.1-1.3,0.6s0.1,1.1,0.6,1.3c0.2,0.1,0.4,0.1,0.6,0
				c1.1,0.1,2.1,0.1,3.2,0c0.5-0.1,0.8-0.6,0.7-1c-0.1-0.4-0.4-0.7-0.8-0.7C64.9,50.5,63.9,50.4,62.9,50.3L62.9,50.3z"/>
			<path id="глаз" class="st5" d="M100.3,33.3c0.7,0,1.2,0.5,1.2,1.2c0,0.2-0.1,0.4-0.2,0.6c-0.7-0.4-1.5-0.8-2.2-1
				C99.3,33.6,99.8,33.3,100.3,33.3L100.3,33.3z"/>
		</g>
	</g>
	<g>
		<defs>
			<rect id="SVGID_00000056391365272794705990000002193717465977947029_" width="195.6" height="280.6"/>
		</defs>
		<clipPath id="SVGID_00000163052929994553034490000001277625573379675810_">
			<use xlink:href="#SVGID_00000056391365272794705990000002193717465977947029_"  style="overflow:visible;"/>
		</clipPath>
		<g id="layer1" style="clip-path:url(#SVGID_00000163052929994553034490000001277625573379675810_);">
			<g id="g4564">
				<g id="g4544">
					<path id="path1737" class="st10" d="M76.3,225.4V218h-5.7l4,7.4H76.3z M76.3,210.5v-4H61.5v4H76.3z"/>
					<path id="path1655" class="st10" d="M83.9,242.1V240h-1.1L83.9,242.1z M83.9,232.6v-7.4h-9.3l4,7.4H83.9z"/>
					<path id="path1661" class="st10" d="M96.5,262.3l2.5-4.5v-2.9h-8.1l4,7.4H96.5z M98.9,247.5v-7.4H83.8v1.9l3,5.5H98.9z
						 M98.9,232.6v-1.1l-0.6,1.1H98.9z M93,232.6l-3.9-7.4h-5.4v7.4H93z"/>
					<path id="path1663" class="st10" d="M91.4,255v-7.4h-4.5l4,7.4H91.4z M91.4,240.2v-7.4H78.7l4,7.4H91.4z"/>
					<path id="path1667" class="st10" d="M98.8,258l1.7-3.1h-1.7V258z M104.6,247.5l4-7.4h-9.8v7.4H104.6z M112.7,232.6l1.3-2.3
						v-5.1h-11.8l-3.4,6.5v0.9L112.7,232.6z"/>
					<path id="path1669" class="st10" d="M95.7,263.7l0.7-1.2H95L95.7,263.7z M100.5,255l4-7.4H91.3v7.4H100.5z M106.5,240.2v-7.4
						h-8.2l-2.6,4.9l-2.6-4.9h-1.8v7.4H106.5z"/>
					<path id="path1683" class="st10" d="M113.9,230.5l2.9-5.2h-2.9V230.5z"/>
					<path id="path1685" class="st10" d="M108.6,240.1l4-7.4h-6.3v7.4H108.6z"/>
					<path id="path1729" class="st10" d="M68.8,214.7v-4.2h-7.3v0.2h5L68.8,214.7z"/>
					<path id="path1735" class="st10" d="M83.9,217.9v-7.4H68.7v4l1.8,3.4H83.9z"/>
					<path id="path1743" class="st10" d="M98.9,217.9v-1.7H86.7l-2.4-5.5H87v-0.2h-3.2v7.4H98.9z"/>
					<path id="path1745" class="st10" d="M89.2,225.4l-2.7-5.1h4.8V218H76.2v7.4H89.2z M87,210.5l-0.2-4H76.2v4H87z"/>
					<path id="path1749" class="st10" d="M114,217.9v-7.4h-9.6v0.2h2.7l-2.4,5.5h-5.8v1.7H114z"/>
					<path id="path1751" class="st10" d="M106.5,225.4V218H91.3v2.3h13.5l-2.7,5.1L106.5,225.4L106.5,225.4z M106.5,210.5v-4h-1.9
						l-0.1,4H106.5z"/>
					<path id="path1757" class="st10" d="M120.8,217.9l3.9-7.2h4.2v-0.2h-15.1v7.4H120.8z"/>
					<path id="path1759" class="st10" d="M116.7,225.4l4-7.4h-14.3v7.4H116.7z M121.5,210.5v-4h-15.2v4H121.5z"/>
					<path id="path1763" class="st10" d="M129.8,210.7v-0.2h-0.9v0.2H129.8z"/>
					<path id="path1765" class="st10" d="M129.8,210.5v-4h-8.4v4H129.8z"/>
				</g>
				<path id="path6847" class="st10" d="M137.3,143.6c-2.1-1.8-4.2-3.5-6.5-5v5H137.3z"/>
				<rect id="rect4700" x="122.3" y="191.7" class="st10" width="17.9" height="11.9"/>
				<rect id="use4704" x="104.4" y="191.7" class="st10" width="17.9" height="11.9"/>
				<rect id="use4710" x="53.9" y="191.8" class="st10" width="17.9" height="11.9"/>
				<rect id="rect4726" x="130.7" y="179.7" class="st10" width="17.9" height="11.9"/>
				<rect id="use4730" x="112.8" y="179.7" class="st10" width="17.9" height="11.9"/>
				<rect id="rect4734" x="44.5" y="179.8" class="st10" width="17.9" height="11.9"/>
				<rect id="use4736" x="62.3" y="179.8" class="st10" width="17.9" height="11.9"/>
				<rect id="rect4752" x="122.3" y="167.7" class="st10" width="17.9" height="11.9"/>
				<rect id="use4756" x="104.4" y="167.7" class="st10" width="17.9" height="11.9"/>
				<rect id="use4762" x="53.9" y="167.8" class="st10" width="17.9" height="11.9"/>
				<path id="rect4778" class="st10" d="M148.6,167.6v-9.3c-0.4-0.9-0.9-1.8-1.4-2.7h-16.4v11.9h17.8V167.6z"/>
				<rect id="use4782" x="112.8" y="155.7" class="st10" width="17.9" height="11.9"/>
				<rect id="rect4786" x="44.5" y="155.7" class="st10" width="17.9" height="11.9"/>
				<rect id="use4788" x="62.3" y="155.7" class="st10" width="17.9" height="11.9"/>
				<path id="rect4804" class="st10" d="M140.2,155.6v-9.2c-0.9-0.9-1.9-1.9-2.8-2.7h-15.1v11.9H140.2z"/>
				<rect id="use4808" x="104.4" y="143.7" class="st10" width="17.9" height="11.9"/>
				<path id="use4814" class="st10" d="M71.8,155.7v-12H55c-0.4,0.3-0.7,0.6-1.1,1v11H71.8z"/>
				<path id="use4834" class="st10" d="M130.8,143.6v-5c-4.6-3-9.5-5.3-14.8-6.9h-3.1v11.9H130.8z"/>
				<path id="rect4838" class="st10" d="M62.3,143.7v-5.6c-2.6,1.6-5,3.5-7.3,5.6H62.3z"/>
				<path id="use4840" class="st10" d="M80.2,143.7v-12h-4.4c-4.7,1.6-9.2,3.7-13.4,6.4v5.6H80.2z"/>
				<path id="use4744" class="st10" d="M112.8,191.7v-11.9h-8.5v11.9H112.8z M112.8,167.7v-12h-8.5v12H112.8z M112.8,143.7v-12h-8.5
					v12H112.8z"/>
				<path id="use4860" class="st10" d="M115.8,131.6c-3.7-1.2-7.5-2-11.3-2.5v2.5H115.8z"/>
				<path id="use4702" class="st10" d="M153.5,203.7v-12h-13.3v12H153.5z M153.5,179.7v-3.2c-0.2-2.9-0.6-5.8-1.4-8.7h-12v11.9
					H153.5z M147.2,155.7c-2-3.3-4.3-6.4-7-9.2v9.2H147.2z"/>
				<path id="use4720" class="st10" d="M71.8,203.8h14.9v-11.9H71.8V203.8z M86.7,179.8v-12H71.8v12H86.7z M86.7,155.8v-12H71.8v12
					H86.7z M86.7,131.8v-2.5c-3.6,0.5-7.2,1.3-10.7,2.4L86.7,131.8z"/>
				<path id="use4728" class="st10" d="M153.5,191.7v-12h-4.8v12H153.5z M152.1,167.7c-0.8-3.2-2-6.3-3.4-9.3v9.3H152.1z"/>
				<path id="use4738" class="st10" d="M44.5,191.7v-12h-7.1v12H44.5z M44.5,167.7v-11.3c-2.1,3.5-3.8,7.3-5,11.3H44.5z"/>
				<path id="rect4708" class="st10" d="M53.9,203.8v-11.9H37.4v11.9H53.9z M86.7,191.8v-12h-6.5v12H86.7z M53.9,179.8v-12H39.5
					c-1.2,3.9-1.9,7.9-2.1,12H53.9z M86.7,167.8v-12h-6.5v12H86.7z M53.9,155.8v-11c-3.5,3.3-6.5,7-9,11H53.9z M86.7,143.8v-12h-6.5
					v12H86.7z"/>
				<path id="path8865" class="st11" d="M153.8,266.3l-0.2-89.4c-1.6-28.4-27.1-48.3-58.1-48.3c-32.1,0-58.1,24-58.1,53.7l0.1,84
					H153.8z"/>
			</g>
		</g>
	</g>
	<g>
		<defs>
			<rect id="SVGID_00000055664537895690708840000003175664471237882282_" width="195.6" height="280.6"/>
		</defs>
		<clipPath id="SVGID_00000089532062428974728930000003529194075699240337_">
			<use xlink:href="#SVGID_00000055664537895690708840000003175664471237882282_"  style="overflow:visible;"/>
		</clipPath>
		<path style="clip-path:url(#SVGID_00000089532062428974728930000003529194075699240337_);fill:#FFFFFF;" d="M77.4,99.4
			c-12.6,0-22.9,10.2-22.9,30.5c0,25.4,18.2,50.9,40.7,50.9s40.7-25.4,40.7-50.9c0-20.3-10.2-30.5-22.9-30.5
			c-6.9,0-13.5,3.1-17.8,8.5C90.9,102.5,84.3,99.4,77.4,99.4z"/>
	</g>
	<g>
		<defs>
			<rect id="SVGID_00000044165477505382656980000007026658783536929183_" width="195.6" height="280.6"/>
		</defs>
		<clipPath id="SVGID_00000171701638623501588240000008498227292668593038_">
			<use xlink:href="#SVGID_00000044165477505382656980000007026658783536929183_"  style="overflow:visible;"/>
		</clipPath>
		<path style="clip-path:url(#SVGID_00000171701638623501588240000008498227292668593038_);fill:#FFFFFF;" d="M27.8,112.6h134.7
			c3,0,5.5,2.4,5.5,5.5v44c0,3-2.4,5.5-5.5,5.5H27.8c-3,0-5.5-2.4-5.5-5.5v-44C22.4,115.1,24.8,112.6,27.8,112.6z"/>
	</g>
	<g>
		<defs>
			<rect id="SVGID_00000011033003521570037880000017873088229033463473_" width="195.6" height="280.6"/>
		</defs>
		<clipPath id="SVGID_00000079468380087922300950000013765126627384515992_">
			<use xlink:href="#SVGID_00000011033003521570037880000017873088229033463473_"  style="overflow:visible;"/>
		</clipPath>
	</g>
	<g>
		<defs>
			<rect id="SVGID_00000152224259523748477160000003932724431065907134_" width="195.6" height="280.6"/>
		</defs>
		<clipPath id="SVGID_00000118389324886852512940000006954091682584365218_">
			<use xlink:href="#SVGID_00000152224259523748477160000003932724431065907134_"  style="overflow:visible;"/>
		</clipPath>
		<path style="clip-path:url(#SVGID_00000118389324886852512940000006954091682584365218_);fill:#FFFFFF;" d="M44.9,0h-29h-16L0,16
			c0,7,0,14,0,21c10.3,12.3,28.7,13.9,41,3.6c6.6-5.5,10.4-13.7,10.4-22.3C51.4,11.6,49.1,5.2,44.9,0z"/>
	</g>
	<g>
		<defs>
			<rect id="SVGID_00000121994607000274839270000013367251722630856622_" width="195.6" height="280.6"/>
		</defs>
		<clipPath id="SVGID_00000093137508171365836360000004533813234686053287_">
			<use xlink:href="#SVGID_00000121994607000274839270000013367251722630856622_"  style="overflow:visible;"/>
		</clipPath>
		<g style="clip-path:url(#SVGID_00000093137508171365836360000004533813234686053287_);enable-background:new    ;">
			<text transform="matrix(1 0 0 1 15.51 31.75)" class="st16 st17 st18">44</text>
		</g>
	</g>
	<g>
		<defs>
			<rect id="SVGID_00000114785622113295698390000013127218553652297365_" width="195.6" height="280.6"/>
		</defs>
		<clipPath id="SVGID_00000080185525309755802760000000205045816490626457_">
			<use xlink:href="#SVGID_00000114785622113295698390000013127218553652297365_"  style="overflow:visible;"/>
		</clipPath>
	</g>
</g>
<g class="st19">
	<path class="st16" d="M58.6,145.2l2.2,15.1h-4l-0.2-2.7h-1.4l-0.2,2.7h-4.1l2-15.1H58.6z M56.5,154.9c-0.2-1.7-0.4-3.8-0.6-6.3
		c-0.4,2.9-0.7,5-0.8,6.3H56.5z"/>
</g>
<g class="st19">
	<path class="st16" d="M64.4,157.3v3.1h-2.8v-3.1H64.4z"/>
	<path class="st16" d="M78.3,145.2l-2.3,6.8l2.5,8.3h-4.1l-1.6-6.5v6.5h-3.9v-15.1h3.9v5.9l1.7-5.9H78.3z"/>
	<path class="st16" d="M87.7,148v12.4h-3.8l0.1-1c-0.3,0.4-0.6,0.7-1,0.9c-0.4,0.2-0.8,0.3-1.3,0.3c-0.6,0-1-0.1-1.4-0.3
		c-0.4-0.2-0.6-0.5-0.8-0.8c-0.2-0.3-0.3-0.7-0.3-1c0-0.4-0.1-1.1-0.1-2.1V148h3.8v8.4c0,1,0,1.5,0.1,1.7s0.2,0.3,0.5,0.3
		c0.3,0,0.4-0.1,0.5-0.3c0.1-0.2,0.1-0.8,0.1-1.8V148H87.7z"/>
	<path class="st16" d="M93,148v9.8c0,1.2,0,1.9-0.1,2.3c0,0.4-0.2,0.8-0.4,1.1c-0.2,0.3-0.6,0.5-1,0.7c-0.4,0.1-1,0.2-1.8,0.2h-1.5
		v-2c0.4,0,0.7,0,0.8-0.1c0.1-0.1,0.1-0.7,0.1-1.9V148H93z M93,145.2v2h-3.9v-2H93z"/>
	<path class="st16" d="M97.7,152.8h-3.5v-0.8c0-1,0.1-1.7,0.3-2.2s0.7-1,1.3-1.4c0.7-0.4,1.5-0.6,2.6-0.6c1.3,0,2.2,0.2,2.9,0.7
		c0.6,0.5,1,1,1.2,1.7s0.2,2,0.2,4.1v6.2H99v-1.1c-0.2,0.4-0.5,0.8-0.9,1c-0.4,0.2-0.8,0.3-1.3,0.3c-0.7,0-1.3-0.2-1.8-0.6
		c-0.6-0.4-0.8-1.2-0.8-2.4v-1c0-0.9,0.1-1.6,0.4-1.9s1-0.7,2.2-1.2c1.2-0.5,1.9-0.8,2-1s0.1-0.5,0.1-1c0-0.6,0-1.1-0.1-1.3
		c-0.1-0.2-0.3-0.3-0.5-0.3c-0.3,0-0.4,0.1-0.5,0.2c-0.1,0.2-0.1,0.6-0.1,1.3V152.8z M98.9,154.5c-0.6,0.4-1,0.8-1,1.1
		c-0.1,0.3-0.1,0.7-0.1,1.3c0,0.6,0,1.1,0.1,1.2s0.2,0.3,0.5,0.3c0.2,0,0.4-0.1,0.5-0.2c0.1-0.1,0.1-0.5,0.1-1.2V154.5z"/>
	<path class="st16" d="M116.2,148l-1.5,12.4h-4.1c-0.2-1.5-0.5-3.5-0.8-6c-0.1,1.1-0.2,2.2-0.4,3.3l-0.4,2.7h-4.1l-1.6-12.4h3.2
		c0,0.3,0.3,2.7,0.8,7.1c0-0.5,0.3-2.8,0.8-7.1h3.1l0.8,7.1c0.1-2.1,0.4-4.4,0.9-7.1H116.2z"/>
	<path class="st16" d="M124.5,151.9h-3.3v-0.7c0-0.6,0-0.9-0.1-1.1c-0.1-0.2-0.2-0.2-0.5-0.2c-0.2,0-0.4,0.1-0.5,0.2
		c-0.1,0.1-0.2,0.3-0.2,0.6c0,0.4,0,0.7,0.1,0.8c0.1,0.2,0.2,0.4,0.5,0.6c0.3,0.2,0.8,0.5,1.6,0.9c1.1,0.5,1.8,1,2.2,1.5
		c0.3,0.5,0.5,1.2,0.5,2.1c0,1-0.1,1.8-0.4,2.3c-0.3,0.5-0.7,0.9-1.3,1.2s-1.4,0.4-2.2,0.4c-1,0-1.8-0.1-2.5-0.4
		c-0.7-0.3-1.1-0.7-1.4-1.2c-0.3-0.5-0.4-1.3-0.4-2.3V156h3.3v0.8c0,0.7,0,1.1,0.1,1.3s0.2,0.3,0.5,0.3c0.3,0,0.5-0.1,0.6-0.2
		c0.1-0.1,0.2-0.4,0.2-0.8c0-0.6-0.1-1-0.2-1.1c-0.1-0.1-0.9-0.6-2.2-1.3c-1.1-0.6-1.8-1.2-2-1.7c-0.2-0.5-0.4-1.1-0.4-1.8
		c0-1,0.1-1.7,0.4-2.2c0.3-0.5,0.7-0.8,1.3-1.1s1.4-0.4,2.2-0.4c0.8,0,1.5,0.1,2.1,0.3c0.6,0.2,1,0.5,1.3,0.8s0.5,0.7,0.6,1
		c0.1,0.3,0.1,0.7,0.1,1.4V151.9z"/>
	<path class="st16" d="M133.9,148l-1.5,4.9l2,7.5h-3.6l-1.2-5.4l0,5.4h-3.8v-15.1h3.8l0,6.3l1.2-3.6H133.9z"/>
	<path class="st16" d="M138.8,145.2v2h-3.9v-2H138.8z M138.8,148v12.4h-3.9V148H138.8z"/>
</g>
<g class="st19">
	<path class="st16" d="M69.1,126h-4.7v-1.5c0-0.7-0.1-1.1-0.2-1.3s-0.3-0.3-0.6-0.3c-0.3,0-0.5,0.1-0.7,0.4
		c-0.2,0.3-0.2,0.6-0.2,1.1c0,0.7,0.1,1.1,0.3,1.5c0.2,0.3,0.6,0.7,1.4,1.2c2.3,1.3,3.7,2.4,4.3,3.3c0.6,0.9,0.9,2.3,0.9,4.2
		c0,1.4-0.2,2.4-0.5,3.1s-1,1.2-1.9,1.7c-0.9,0.4-2,0.7-3.3,0.7c-1.4,0-2.5-0.3-3.5-0.8c-1-0.5-1.6-1.2-1.9-2
		c-0.3-0.8-0.4-1.9-0.4-3.4v-1.3h4.7v2.4c0,0.7,0.1,1.2,0.2,1.4c0.1,0.2,0.4,0.3,0.7,0.3c0.3,0,0.6-0.1,0.8-0.4
		c0.2-0.3,0.2-0.7,0.2-1.2c0-1.2-0.2-1.9-0.5-2.3c-0.3-0.4-1.1-0.9-2.4-1.8c-1.3-0.8-2.1-1.4-2.5-1.8c-0.4-0.4-0.8-0.9-1-1.6
		c-0.3-0.7-0.4-1.5-0.4-2.6c0-1.5,0.2-2.6,0.6-3.3s1-1.2,1.9-1.6c0.9-0.4,1.9-0.6,3.1-0.6c1.3,0,2.4,0.2,3.4,0.6s1.5,1,1.9,1.6
		c0.3,0.6,0.5,1.8,0.5,3.3V126z"/>
	<path class="st16" d="M76,120.1v19.6h-5v-19.6H76z"/>
	<path class="st16" d="M88.8,129.3v3.9c0,1.4-0.1,2.5-0.2,3.2c-0.1,0.7-0.5,1.3-0.9,1.9c-0.5,0.6-1.1,1-1.8,1.3
		c-0.7,0.3-1.6,0.4-2.6,0.4c-1.1,0-2-0.1-2.7-0.4c-0.8-0.2-1.3-0.6-1.7-1.1c-0.4-0.5-0.7-1.1-0.9-1.7c-0.2-0.7-0.3-1.7-0.3-3.1v-4.1
		c0-1.5,0.2-2.7,0.5-3.5c0.3-0.8,0.9-1.5,1.7-2c0.8-0.5,1.9-0.8,3.2-0.8c1.1,0,2,0.2,2.8,0.5c0.8,0.3,1.4,0.8,1.8,1.3
		s0.7,1.1,0.9,1.6C88.7,127.3,88.8,128.1,88.8,129.3z M83.9,128.1c0-0.8,0-1.3-0.1-1.6c-0.1-0.2-0.3-0.3-0.6-0.3
		c-0.3,0-0.5,0.1-0.6,0.3c-0.1,0.2-0.1,0.7-0.1,1.6v7.2c0,0.8,0,1.3,0.1,1.5c0.1,0.2,0.3,0.3,0.6,0.3c0.3,0,0.5-0.1,0.6-0.3
		s0.1-0.7,0.1-1.4V128.1z"/>
	<path class="st16" d="M95.3,123.6l-0.1,1.5c0.4-0.6,0.8-1,1.3-1.3s1.1-0.4,1.8-0.4c0.8,0,1.5,0.2,2.1,0.6c0.5,0.4,0.9,0.9,1,1.5
		c0.2,0.6,0.2,1.6,0.2,3v11.2h-4.9v-11.1c0-1.1,0-1.8-0.1-2s-0.3-0.4-0.6-0.4c-0.3,0-0.6,0.1-0.7,0.4c-0.1,0.3-0.1,1-0.1,2.2v10.8
		h-4.9v-16H95.3z"/>
	<path class="st16" d="M108.4,120.1v2.6h-5v-2.6H108.4z M108.4,123.6v16h-5v-16H108.4z"/>
	<path class="st16" d="M114.9,123.6l-0.1,1.5c0.4-0.6,0.8-1.1,1.4-1.4s1.1-0.5,1.8-0.5c1.3,0,2.3,0.6,3.1,1.8
		c0.4-0.6,0.9-1.1,1.4-1.4s1.1-0.5,1.7-0.5c0.8,0,1.5,0.2,2.1,0.6c0.5,0.4,0.9,0.9,1,1.5c0.2,0.6,0.2,1.5,0.2,2.8v11.4h-4.7v-10.5
		c0-1.4,0-2.2-0.1-2.5c-0.1-0.3-0.3-0.5-0.6-0.5c-0.3,0-0.6,0.2-0.7,0.5c-0.1,0.3-0.2,1.2-0.2,2.6v10.5h-4.7v-10.2
		c0-1.6,0-2.5-0.1-2.8c-0.1-0.3-0.3-0.5-0.6-0.5c-0.2,0-0.4,0.1-0.6,0.2c-0.2,0.2-0.2,0.4-0.3,0.6c0,0.2,0,0.7,0,1.5v11.1h-4.7v-16
		H114.9z"/>
</g>
<g class="st19">
	<path class="st20" d="M24.3,15.9v10.3h1.1V29h-1.1v2.8h-3.9V29h-4.7v-2.7L19,15.9H24.3z M20.3,26.3v-6.7l-1.7,6.7H20.3z"/>
	<path class="st20" d="M34.2,15.9v10.3h1.1V29h-1.1v2.8h-3.9V29h-4.7v-2.7L29,15.9H34.2z M30.3,26.3v-6.7l-1.7,6.7H30.3z"/>
</g>
</svg>
