<svg id="Слой_1" data-name="Слой 1" xmlns="http://www.w3.org/2000/svg" viewBox="0 0 195.59 280.63"><defs><style>.cls-1{font-size:63.44px;}.cls-1,.cls-12,.cls-3{fill:#010101;}.cls-1,.cls-13{font-family:Impact;}.cls-2{fill:#e52521;}.cls-11,.cls-3,.cls-4,.cls-5,.cls-6{fill-rule:evenodd;}.cls-4{fill:#2f4f9e;}.cls-13,.cls-5,.cls-9{fill:#fff;}.cls-6,.cls-8{fill:#ffdd08;}.cls-7{fill:none;}.cls-10,.cls-11{fill:#f4e600;}.cls-13{font-size:20px;}</style></defs><text class="cls-1" transform="translate(29.99 263.44)">Орля</text><g id="g4362"><g id="g4307"><g id="layer1"><path id="path3405" class="cls-2" d="M23.51,27.88l0,109.33v.09c.36,29.49,26,70.53,74.59,70.53,46.72,0,74.34-38.09,74.54-70.62l0-109.33Z"/></g><g id="g4301"><path id="path4288" class="cls-3" d="M111.94,142.1a4.49,4.49,0,0,1-4.8,3.18c-.65,9.63,17.27-1.36,13.45,9.62-4-4-4.78,1.46-8.72-1.25a4.17,4.17,0,0,0-4.22-.49c.56,3,5.28,6.63,15,6.91,4.4.66,12,1.08,11.44,9.9-.66,5.68-8,3.69-7.77,9.61-3.73-2-4.37-5.74.09-8.23-5.64,1.25-7.11-2.5-2.92-6.72-4.66,1-11,1.7-16.34-7.22-.87-.5-1.18-.46-1.47,1.47.54,3.31,2.26,7,7.59,7.17,0,2-3.33,2-6.35,1.88,1.39,3.4,7.33,1,9.44,2.28,3.34,2,3,8.65-1.62,9.34.7-1.74.85-3.26-1.1-4-2.11-.24-6.65-2-7,.37,1.23,3.56,3.2,3.39,5.4,2.1-.35,4.27-3.15,4.75-6.13,4.94.13,3.7-.56,5.37-3.18,7-2.61-1.35-3.42-3.36-3.29-7.07-3-.19-5.78-.67-6.13-4.93,2.2,1.28,4.17,1.45,5.4-2.11-.34-2.34-4.3-1.43-6.4-1.19-2,.77-1.81,2.3-1.1,4-4.58-.69-5.08-6.83-1.75-8.87,2.11-1.3,7.71.42,9-1.92-3,.15-5.79-1.28-5.76-3.3,5.33-.19,6.23-3.27,6.77-6.58-.28-1.93-.6-2-1.46-1.47-5.39,8.92-10.16,9.48-14.82,8.51,1,5.16-1.27,7.15-5.85,7,3.17,2.61,2.77,5.37.09,8.23.84-4.39-7.46-5.45-7.78-9.6-1.13-12.23,8.69-10,13.08-10.61,9.72-.28,12-3.67,12.53-6.68-1.53-.72-1.82-.05-2.92.74-8.17,3.05-7.88-4.25-11.89-.28-.78-10.63,16.56.94,15.91-8.69-2.45.16-3.26-1.1-3.93-3.11,6-.35,5.44-6.5,4.2-12.43-4.22,4.15-6.14,11.92-4.66,16.27-4.37-1.24-4.74-5.71-4-11.06a17.23,17.23,0,0,0-6.41,3.75c-1.23-5.07,5.31-8.22,8.6-13.54,2.5-4.29,2.7-9.34-1.37-15.82-.13,10-3,16.35-10.24,17.29,3.12-5,2.8-10.49,1.82-16-2.12,11.74-4.33,25.25-5.76,21.95A56.33,56.33,0,0,0,77.4,119c-2.48,8-2.83,18.59-11.71,18.56,3.33-7,3.62-18.26,4.12-29.26-3,9.26-4.32,27.91-9.15,27.8,3.93-6.05,4.69-15.94,6.86-24.69-4.93,14.23-9.51,38-24.87,35.48,7.8-13.26,18.21-38.16,14.26-42.34-1.68,12.41-10.48,32-14.63,33.38,2.89-3.09,14.92-28.4,12.71-33.2-2.93,9.59-6.27,18.59-17.1,16.46,5.78-6.22,8.94-14.76,10.33-24.87,0,.17-6.9,15.3-7.68,12,2.75-4.48,6-9.14,5.76-12.26-1.94,2.76-4.21,5-8.32,4.12a31.46,31.46,0,0,0,4.94-15c-1,1.62-2.06,5.85-3.29,4,.43-.08,2.45-3.73,1.83-6.22-.78,1.58-7.9,2-7.59.73,19.34-9.9,7.37-27.1,21.58-27.25,8.86.39,8.8,9.29,4.85,12.71,5,5.2,2.9,9,1.28,12.17,4,.55,6.41,1.6,5.94,7,1.83.31,5.82-2.12,9,4.39,2.85-.53,6.43-.79,9.51,2a6.91,6.91,0,0,1,4.21-5.85c0,.18-3.22-.23-2.65-.83a4.66,4.66,0,0,0,3.57-2.56c-2.62-1.61-8.07-1.34-8.69.64-.62-4.2,4.9-.69,10.24-6.12-1.14-1-4.51-1.13-4.66-.83.36-2.77,5.7-1.34,8.87-1.73-.46-1.37-1.95-2.23-4.85-2.38,1.6-3.88,6.76.68,8-3.48-2.71-1.4-10,1.4-9.7-1.64-.72-2.12,8.37.22,10.89-1.74-5-.57-9.68-.63-13,.74-4.7,1.92-11.62,1-8.64-4.77,1.32,8.26,12.6,1.36,19,1.83a13.12,13.12,0,0,0-12,.83C83.89,59,90.21,59,94,56.79c.81-4,9.82-.8,14.73-1.19,2,.16,4.74,1.32,4.94-1,1.15,3.11-.16,4.41-2.66,4.85-.11.67,1,5.18,5.4,3.38-.78,1.32-.26,3.57-3.48,3.11,1.29,2.91,3,4.84,6,3.39-.8,2.31-1.11,5.15-5.67,3.47-.1,3.37,1.66,5.19,4.48,6.13-1.48,2.55-3.34,2.27-5.3,1.19-.28,1.71-1.41,4.72,2.1,4.48-1.34.4-2.25,2-4.48-.09.57,4.38,6,4.06,6.77,9.23,3.11-2.2,5.75-1.19,8.14,1.47,3.11,1.82,3.73-.1,4.48-1.83.06-6.05,3.23-5.06,5.85-5.31,1-4.48,2.18-8.45,4.39-9.32a2.76,2.76,0,0,0-.55-2.66c-3-1.74-1.51-7.42,1.83-7.86-4.11-9.11,4.27-12.54,9.69-10.06,8.41,3.75,1.07,13.41,13.91,24.42-2.65,1.3-5,.69-7.14-.92.85,3.63,2.9,5.65,4.39,8.42-2,.48-2.76-4.37-4.48-4.85,2,6,2.14,8.18,9,17.38-4.87.71-7.4-3.25-10.42-6.22.7,4.55,6.3,14.85,9.33,18.47-1.2,3.23-6-8.84-9.06-13.26.7,8.7,4.87,15,7.78,22.13-7.88,2.14-9.77-8.48-14.18-13.72,3.59,9.58,6,22.72,11.16,27.53-4.68-.06-8.72-18.72-13.08-28.08,2,8,.13,21.88,12.44,38.32-17.12,4.61-17.43-21.62-23-37.95-.18.16,5.35,32.55,6.86,31.55-1.05,7.74-8.42-29.76-8.41-29.81-.66,9.81-.67,17.92,1.83,25.06-12-1.49-9.14-12.76-12.44-20.76,1.29,7.24,0,15.84,4,21-4.7-1.26-4.27-16.07-6.4-24.14-3.07,4.94-.78,10.19.28,15.36-7.25-2-6.93-12-10.06-18.38-3.86,20,10.89,21,9.32,30.64a10.76,10.76,0,0,0-5.12-3.75c1.13,9.19-2,9.51-4.66,11,5.59-8.12-2.5-12.73-5.49-18.66C108.15,134,106.53,142.33,111.94,142.1Z"/><g id="g4297"><path id="path4293" class="cls-4" d="M93.44,58.16C89.9,59.57,84.81,59.65,87,66a11,11,0,0,1,12.18-.11,3,3,0,0,1,3.26,2.18c-2.29,2.66-11.94.28-11.41,2.06-.89,2.44,6.34-.11,9.78,1.2,3.11-.78,3.34-3.71,2.07-5.11C100.67,63.62,95.14,62.59,93.44,58.16Z"/><path id="path4295" class="cls-5" d="M96.59,59.69c3.9-1,6,1.61,10.12,2-1.59.43-3.6-.17-5.1-.55-.09,1.25-2.74,1.62-2.21-.45C99.32,59.57,97.54,60.05,96.59,59.69Z"/></g></g><g id="g4267"><g id="g4214"><path id="path2186" class="cls-3" d="M132.13,163.92c1,.3,1.26,1,2.24,1.18,2.76-6.57,5.33-13.21,9.63-19.15a3.38,3.38,0,0,1,2.46-1.24c1.92.49,6.13-3.35,5.9-5.17a16.56,16.56,0,0,0,4.06-4.45c0-.46-.4-.3-.66-.64a15.78,15.78,0,0,0,4.09-4.23c.16-.44-.49,0-.62-.51.62-1,2.12-1.72,4.49-4.34.13-.35-.12-.39-.22-.55,2.79-3.12,5.63-5.86,8.45-8.75-1.62-4.44-4.16-7.71-9.25-9.25-2.18,3.61-4.13,7.43-6.58,10.81L156,117c-1.09,2.33-2.61,3.82-3.36,6.69l-.22-.45a17.21,17.21,0,0,0-3.35,5.65l-.09-1c-1.22,2.34-3,4.15-3.61,7.08-1.12-.31-3.59,3.35-3.07,4.84.64,2.47-.85,5.42-1.83,7.17C136.61,152,134.45,158.14,132.13,163.92Z"/><path id="path3168" class="cls-6" d="M160.11,123.55c.55.79,1.73,1,2.66,1.22,2.58-3,5.23-6,8.1-9a.88.88,0,0,0-.4-1c-2.73,2.4-5.37,5.25-8.06,7.86,2.41-2.87,4.92-5.74,7.67-8.65.14-.54-.2-.76-.43-1.06-2.5,2.73-5.38,5.87-7.71,8.39A5.06,5.06,0,0,1,160.11,123.55Z"/><path id="path3170" class="cls-6" d="M162.13,120.84c2.25-2.35,4.66-6.23,7.21-8.36-.08-.64-.44-.76-.79-.91-1.66,1.89-3.61,4.37-5.41,6.19C163,118.63,162.47,119.79,162.13,120.84Z"/><path id="path3172" class="cls-6" d="M162.44,116.69a78.18,78.18,0,0,1,4.95-6.28c.38.07.74.15.56.66a67.94,67.94,0,0,1-4.7,6.08C163.36,116.53,163,116.45,162.44,116.69Z"/><path id="path3174" class="cls-6" d="M157.4,121.07c-.58-.69-.32-1.84-1-2.48-.12-.33-.32-.63.27-1.25,2.2-2.93,4.19-6.24,6.26-9.39.88-.39,1,.06,1.05.5l-6,9.29c2.14-2.61,4.36-5.66,6.63-9,.53,0,1,0,.88.64-1.66,2.2-3.34,4.63-5.06,7.37l5.65-7.08c.41-.13.72,0,.79.54l-4.8,6.57C160.5,118.07,158.46,117.86,157.4,121.07Z"/><path id="path3176" class="cls-6" d="M134.19,164.54l-1.56-.91a91.06,91.06,0,0,1,9-17.86,7.84,7.84,0,0,0,1.4-5.06c-.93-2.3,1.08-5,2.27-5.4,1.47,2.29-.41,4.75-.88,6.06,1.28-1.34,2.45-2.8,2-5.12-1.29-2.8,1.38-4.8,2.42-7.13,1.34,2.64.1,5.21-1.14,7.77,1.28-1.81,2.79-3.25,2.12-6.31-1-2.85,1.42-4.55,2.63-6.55,2.47,3.92-1.91,7.69-1.65,8.39,1-1.84,3.5-3.83,2.58-6.51-1.15-3.48,1.38-5.06,2.46-7.39,1.4,2.76.49,5.49-1.07,8.21a7.26,7.26,0,0,0,2.74-4.88c1.23-3.83,3.53-3.94,5-4.67-.1,1-.62,5.14-3.63,6.42a10.51,10.51,0,0,0-3.1,3.34c1.34-.43,2.38-3.88,6.52-1.72-1.24,1.65-2.1,3.6-5.45,3.53-2.29-.07-3.36,2-4.59,3.71,1.43-.65,2.09-4.16,6.1-2.39-.14.85-1.75,4.26-5.23,4.09a5.65,5.65,0,0,0-4.25,3.18c.83-.32,2.35-3.83,6.28-1.85-1.63,1.14-1.1,3.63-5,3.38-3-.28-4,2.27-5.18,3.68,1.54-.47,2.16-3.79,6.64-3-.77,1.67-1.61,4.08-5.49,4.16-1.3.06-2.33,1.18-3.29,2.53C139.15,152.2,136.78,158.39,134.19,164.54Z"/></g><path id="path4254" class="cls-3" d="M117.51,136.7a13.12,13.12,0,0,0-.08,6.28c5.76,4,11.27,10,16.84,15.46A67.8,67.8,0,0,1,140.55,147c.65-.88,1.16-1.42,1.42-1.43a2.15,2.15,0,0,0-2-.72c-2.08-.52-5.4.17-5.72,3.65,0,1.72-.75,1.91-1.76,1.61-4.58-4.16-8-7.91-11.94-11.87A4.47,4.47,0,0,1,117.51,136.7ZM141.77,151c2.51-2.21,5.86,3.49,1.92,4.59,2.44,1.48-.52,6.42-1.92,5.36.39,5.74-5.41,4.07-6,1.15,1.61-.45,3.45-1.6,3.13-3.07l2.15,1.3-2-1.53a3.14,3.14,0,0,0,1.83-3.75l2.07.46-2.14-.38C142.5,154.25,142.35,152.19,141.77,151Zm-6.2,11a4.93,4.93,0,0,1-.84-3.75,4.84,4.84,0,0,1,4.21.84C138.75,160.67,137.54,161.59,135.57,162Zm3.45-3.22c-.7-1-2.11-1.66-1.84-3.06,1-.69,2.41-.47,3.67-.53A3.1,3.1,0,0,1,139,158.82Zm1.83-3.67a13.21,13.21,0,0,0-2.35-1.47c.35-2.18,2-2.31,3.27-2.74C142.53,152.83,142.23,154.24,140.85,155.15Z"/><path id="path4265" class="cls-7" d="M140,144.84c-.82.92-.05,1.72.48,2.13"/></g><g id="g4278"><g id="g4149"><g id="g4134"><rect id="rect4132" class="cls-8" x="63.63" y="131.95" width="4.23" height="45.3" transform="translate(-54.54 37.31) rotate(-22.69)"/><path id="rect4129" class="cls-9" d="M25.36,128.15c7.44-5,16.8-7.37,27.35-11.61L62.53,140l-6.84-2.93L50.06,123.5a18.12,18.12,0,0,0-4.93,2.41c-3.23,1.52-6.11,9.89-4.23,13.82,1.7,6.32,4.5,13.84,3.84,17.46a27.81,27.81,0,0,1-4.48,6.28C35.53,156.89,27.57,136.67,25.36,128.15Z"/></g></g><path id="path4242" class="cls-3" d="M88.08,134.41a11.25,11.25,0,0,0-5,2.05,120.14,120.14,0,0,1-11,11.76c-1.22,1.38-2.24.65-2.43,0-.2-2.29.24-4.9-2.36-4.78l-3.61-.07,5.78,14.19c5.51-6.61,12-11.68,18.3-17C88.11,138.29,88.65,135.88,88.08,134.41Zm-27.28,14c-3.11,1.43-2.18,4.45-.89,5.19-1.16,2.68-.06,5.37,2.8,5.35-1.09,3.31,3.1,4.56,3.79,4a1.84,1.84,0,0,0,.53-2.27,2.67,2.67,0,0,1-.92-2.61c-1.52-.95-2.41.12-3.26.8.78-.74,2.11-.93,1.49-2.58a1.75,1.75,0,0,1-.51-2.27c-.52-.82-2.33-.47-3.54-.38,1.28-.09,2.58.2,3.16-.76-1-1.36-.39-2.25.13-3.17C63.16,148.42,62.14,148.14,60.8,148.39Zm2.87,1.39c.78.3,1.71-.28,2.25,1.52a2.43,2.43,0,0,1-2.43,1.53C62.45,151.58,63,150.66,63.67,149.78Zm.14,4.09a2,2,0,0,0,.58,2.39c1.47.15,2.71,0,2.71-2.18A5.58,5.58,0,0,0,63.81,153.87ZM66,158a2.62,2.62,0,0,0,2.84-.83c.52,1.59-.36,2.76-1.77,3.43C66,160.06,66.12,159,66,158Z"/></g></g><g id="g4354"><path id="path4337" class="cls-7" d="M94.43,54.75,109,54.6"/><path id="rect4349" class="cls-10" d="M100.85,40.58v1.49h-1.5V44h1.5v1.39h1.88V44H104V42.07h-1.23V40.58Z"/><path id="path4345" class="cls-11" d="M103.67,46.6a1.87,1.87,0,0,1-3.73,0h0a1.87,1.87,0,0,1,3.73,0Z"/><rect id="rect4347" class="cls-10" x="100.55" y="46.38" width="2.51" height="4.56"/><path id="path4343" class="cls-11" d="M93.05,51.4c-1.17-7.58,5.57-4.82,8.61-4.08,3.38-.67,10.82-3,8.8,4.43l-.61-.07c1.94-7.07-5-4.43-8.2-3.92-3.45-.67-9.14-3.48-8.05,3.79Z"/><path id="path4335" class="cls-5" d="M108.65,55.63l-14,0c0-2.13-2.51-3.28-2.61-5,1.34,1.44,4-.37,4.28,1.87-.58-.23-1.31,0-1.38.64.1.3.08.89,1,.88,1.53,0,1.14-1.15,1.47-1.77.26.68.31,1.53,1.18,1.72.89-.1,1.51-.44,1.48-1.33-.26-.79-.88-.63-1.53-.24-.06-2.5,3.09-1.36,3.35-3,.35,1.52,2.85.77,2.7,2.9-.52-.29-1.48-.39-1.52.39s0,1.29,1.08,1.33,1.21-1,1.48-1.42c.41.67-.1,1.64,1.23,1.62.81,0,1.48-.26,1.52-1.33-.93-.92-1.12-.37-1.57-.34.41-2.39,3,0,4.67-1.38C110.86,53.06,109.13,53.56,108.65,55.63ZM102,52.56c0,.53-.19,1-.42,1s-.42-.43-.42-1,.19-1,.42-1S102,52,102,52.56Z"/></g></g><path class="cls-12" d="M150.61,0l29,0h16l0,16q0,10.48,0,21A29.09,29.09,0,0,1,150.61,0Z"/><text class="cls-13" transform="translate(159.67 31.75)">23</text></svg>