<?xml version="1.0" encoding="utf-8"?>
<!-- Generator: Adobe Illustrator 26.0.1, SVG Export Plug-In . SVG Version: 6.00 Build 0)  -->
<svg version="1.1" id="Слой_1" xmlns="http://www.w3.org/2000/svg" xmlns:xlink="http://www.w3.org/1999/xlink" x="0px" y="0px"
	 viewBox="0 0 195.6 280.6" style="enable-background:new 0 0 195.6 280.6;" xml:space="preserve">
<style type="text/css">
	.st0{clip-path:url(#SVGID_00000073718976811076105820000015833869962210663851_);fill:#E94539;}
	.st1{clip-path:url(#SVGID_00000103237783128088468850000011801398049637558676_);enable-background:new    ;}
	.st2{clip-path:url(#SVGID_00000017481686540950538450000005290889158834004355_);}
	.st3{fill-rule:evenodd;clip-rule:evenodd;fill:#FFFFFF;}
	.st4{fill-rule:evenodd;clip-rule:evenodd;fill:#1C1A19;}
	.st5{fill-rule:evenodd;clip-rule:evenodd;fill:#DA261D;}
	.st6{clip-path:url(#SVGID_00000108303721408566443210000007301407036732730288_);fill:#FFFFFF;}
	.st7{clip-path:url(#SVGID_00000036247222168185615310000004098668724040507269_);fill:#FFFFFF;}
	.st8{clip-path:url(#SVGID_00000019647921241382362810000004955624376037950350_);fill:#1C1A19;}
	.st9{enable-background:new    ;}
	.st10{fill:#DA261D;}
	.st11{fill:#FFFFFF;}
</style>
<g>
	<g>
		<defs>
			<rect id="SVGID_1_" width="195.6" height="280.6"/>
		</defs>
		<clipPath id="SVGID_00000028309114796478640610000001020023648173133699_">
			<use xlink:href="#SVGID_1_"  style="overflow:visible;"/>
		</clipPath>
		
			<rect x="-9.2" y="-8.4" style="clip-path:url(#SVGID_00000028309114796478640610000001020023648173133699_);fill:#E94539;" width="214" height="297.9"/>
	</g>
	<g>
		<defs>
			<rect id="SVGID_00000111895541505375851640000009081416503101607851_" width="195.6" height="280.6"/>
		</defs>
		<clipPath id="SVGID_00000028314776828230062940000005613380433603327106_">
			<use xlink:href="#SVGID_00000111895541505375851640000009081416503101607851_"  style="overflow:visible;"/>
		</clipPath>
		<g style="clip-path:url(#SVGID_00000028314776828230062940000005613380433603327106_);enable-background:new    ;">
		</g>
	</g>
	<g>
		<defs>
			<rect id="SVGID_00000054259934486023736150000004739688982765936028_" width="195.6" height="280.6"/>
		</defs>
		<clipPath id="SVGID_00000084530842391370206140000004317562585591067318_">
			<use xlink:href="#SVGID_00000054259934486023736150000004739688982765936028_"  style="overflow:visible;"/>
		</clipPath>
		<g id="g1031" style="clip-path:url(#SVGID_00000084530842391370206140000004317562585591067318_);">
			<g id="g1023">
				<path id="rect1000" class="st3" d="M43.8,11.4l0.1,79.4c1.9,28.1,25.8,49.8,54.1,49.7s51.7-21.8,53.6-49.8V11.3L43.8,11.4z"/>
			</g>
			<g id="g992">
				<path id="path15-2" class="st4" d="M78.8,29.5c-0.9,0.1-1.8,0.4-2.7,0.8c-0.7,0.2-1.3,0.6-2.3,1c-0.8,0.5-1.7,1.1-2.4,1.8
					c-1.6,1.6-2,4.1-1,6.2c0.5,0.9,0.9,1.9,1.2,2.9c0.2,0.3,0.1,0.7-0.2,1c-0.2,0.4-0.2,0.1-0.6,0.4c-0.2,0-0.5-0.1-0.7-0.2
					c-0.8-0.4-1.8-0.5-2.6-0.3C67,43,66.5,43,65.9,43c-0.7,0-1.5-0.2-2.1-0.6c-0.5-0.2-1-0.3-1.5-0.4c-0.6-0.2-0.9,0-1.5,0.1
					c-0.9,0.3-1.8,0.6-2.6,1.1c-0.1,0.1-0.3-0.1-0.4,0c-0.4,0.1-0.7-0.1-1.2,0.2c-0.4,0.3-0.9,0.4-1.4,0.4c-0.7-0.1-1.5,0.3-2-0.3
					c0.3-1.9,2-3.5,1.5-7c-0.3-4-3.8-7-7.8-6.7c-0.1,0-0.2,0-0.4,0c-0.4,0.3,4.5,3.1,3.9,7.9c-1.4,3.8-3.8,7.1-0.8,10
					c0.3,0.4,0.7,0.7,1.1,0.9c-0.3,0-0.6,0.1-0.9,0.2c-0.4,0.1-0.8,0.3-1.2,0.5c-0.5,0.2-1.1,0.6-1.2,1.1c0,0.1,0.8,0,0.8,0.1
					c0-0.1,1,0.3,1.6,0.4c1,0.2,1.3,1.4,1.9,2c0.7,0.8,0.7-0.4,1.8,1.4c0.1,0.1,0.4,0.4,0.1,0.5s-1.3,0.1-1.3,0.2
					c-0.1,0.5,1.2,0.2,1.6,1s0.2,2.8,0.2,3.5c0,1.2-0.1,2.4-0.4,3.5c-0.2,0.8-0.5,1.7-0.8,2.5c-0.3,0.3-1,0.8-1.1,1
					c-0.3,0.7-0.1,1.5,0.4,2c0.3,0.4-0.1,0.2,0.2,1c0.6,0.9,1.3,1.8,2.2,2.4c0.5,0.4,1.1,0.7,1.7,0.8c1.1,0.2,2.2,0.1,3.2-0.5
					c0.4-0.3,0.7-0.6,0.9-1s0.3-0.8,0.3-1.2c3-0.3,3.6-0.3,4.2,0c1.9,0.7,6.1,0.9,6.1,1c0.2,1.2,1.2,4.6,2.1,5c1,1.5,2.3,2.8,3.6,4
					c0.6,0.7,1.2,1.5,1.6,2.3c0.5,1,0.5,0.7,0.6,1.4c0,0.4,0,0.8,0.1,1.2c-0.4,1.6,0,5.4,0.6,5.7c-0.3,3.4-0.9,6.7-1.6,10.1
					c-0.7,0.2-7.6,4.9-5.3,5.8c0.5,0.2,0.4-0.2,0.5,0.3c3,1.4,6.5,0.5,6.8,0c0,0,0,0,0-0.1l0,0l0,0c0,0,0,0,0,0.1s0,0.2,1.3,0.3
					c0,0.3,0.1,0.2,0.3,0.5s6.8,1.8,7.8-0.6c0.5-1.1,0.7-2.3,0.6-3.5c0.8,0.3,1.6-0.4,2.1-1.2c-0.7-1.7-1.4-2.9-1.4-4.3
					c-0.1-1,0.1-2.1,0.5-3c2.2-0.5,1.6-2.7,1.2-3.7c-1.1-1.2,0.1-3.2,0.7-4.9c0.4,0.1,0.3-0.2,0.7-0.2c1.2,0.1,2.4,0,3.5-0.2
					c0.7-0.2,1.5-0.3,2.2-0.4c1.2,0.1,2.3,0,3.5-0.1c1.6-0.4,3.1-0.9,4.7-1.6c1.7-0.3,6-2.9,7.6-3.2c-0.6,0.6-3.2,2.4-3.2,3.2
					c1.6-0.2,6.4-2.6,8.6-2.6c0.4,0,0.7,0.2,0.9,0.4c1.2-0.4,5.4,6.5,5.2,8.9c-1.6,3.6-3.4,7.8-5.2,11.3c-1.5,0.6-5.1,2.8-4.3,3.3
					c0,0.3,0.6,0.7,0.6,0.7c0,0.8,1.6,1.2,2.9,1.2c3.8,0.1,5,0.4,6.4-3.6c0.7,0.5,1.2-0.1,1.8-0.8c-0.2-2.2-0.2-1.5-0.1-2.2
					c0.3-2.2,1.1-4.2,2.5-5.9c0.4-0.1,0.8-0.2,1.2-0.2c1.2-0.1,1.8-2.3,1.3-3.1c-1.6-2.1-2-2-1.7-6.5c0.2,0.2,0.4,0.4,0.5,0.6
					c0.3,0.6,0.8,1,1.1,1.6c0.7,1.2,1.6,2.1,2.3,3.3s1.2,1.3,1,2.9c-0.4,2-0.9,3.9-1.6,5.8l0,0c-0.6,1.1-2.1,3.4-2.4,4
					s-0.5,0.5-1.3,1s-2.7,2-3,3.2c-0.1,0.4,0.1,0.8,1,0.8c-0.1,0.1-0.3,0.5-0.2,0.5s0.4,0.3,0.5,0.3c0.9,0.2,1.9,0.3,2.8,0.3
					c3.5-0.3,4.2-0.5,5-1.1c1.1-0.8,1.3-2.9,1.3-3.5c0.5,0.2,0.4,0.3,1.1,0.2c0.3-0.4,0.6-1,0.9-1.4c-0.7-2.4-0.4-4.9,1-7
					c0-0.2-0.1,0.6,0,0.7c0.1,1,0.6,1.9,1.2,2.6c-0.1-0.5,0-1,0.1-1.6c0.3,0.7,1.5,2.1,2.9,1.5c0,0-0.4-1.3-0.7-2.6
					c-0.2-1-0.3-2-0.2-3c0.1-0.4,0.6,1.8,2.2,2.8c-0.8-1.5-1.2-3.2-1-4.8c0.7,2.1,1,1.1,1.3,1.6c-0.9-2.4-0.8-3.2-0.7-3.6
					c0.2-5.2-0.5-4.4-3-8.1c-1.3-9,2.8-18,0.4-26.7c-3.5-5.6-6.4-5.1-10.5-4.6c-3.6-2.5-3.6-1.7-6.3-2c-3.7,0.7-7.5,1.1-11.3,1.1
					c-3-0.1-5.8,0.7-8.9,0.5c-4.3-0.3-8.6-1-12.8-2.2c-3.6-1.5-5.3-2.5-8.2-2.6c-2.3-0.5-6.7,1.2-9.2-0.4c0.4-1.5,0.1-3.1-0.8-4.4
					c-0.7-1.1-1.2-2.1-1.7-3c-0.8-1-0.9-2.4-0.4-3.5c0.2-0.5,0.4-0.9,0.8-1.3c0.5-0.6,1.1-1.2,1.7-1.8
					C77.4,30.8,78.8,29.5,78.8,29.5L78.8,29.5z M137.8,53.7c6.2,0.2,4.2,6.5,3.8,11.6c-0.1,0-0.3-1-0.4-0.9
					c-0.8-3.1,1.3-3.6-0.6-7.5c-0.8-1.4-2-2.6-3.5-3.3L137.8,53.7z M141.4,75.8c0.1,8,0.2,7.1,0.2,11.1c-0.1,0-0.2-0.6-0.3-0.5
					c-1.7-6.5-1.8-3.9-0.1-9.9C141.3,76.4,141.3,75.8,141.4,75.8L141.4,75.8z M85.4,93.1c0.5,1,0.7,2.1,0.4,3.2
					c-0.2,0.8-0.7,3.4-0.8,4.1c-0.5-0.6-1-2.3-0.5-4.9c0.1-0.7,0.4-0.8,0.9-1.4C85.2,94.5,85.1,93,85.4,93.1L85.4,93.1z"/>
				<path id="path15-1" class="st5" d="M48.2,30.2c0.6,1.3,3.4,1.5,3.4,7.6c-1.4,3.7-5,8.3,1.2,10.6l1.9-0.2
					c0.1-0.9,0.2-1.8,0.4-2.7c0.1-0.3,0.3-1,0.4-1.3c-0.7-0.2-1.4,0.1-1.8,0c-1.6-0.5-1.1-1.5,0.1-4.3
					C55.1,36.9,53.6,30.3,48.2,30.2z M77.2,30.4L77.2,30.4c-1.2,0.5-2.4,1-3.5,1.7c-0.6,0.4-1.1,0.8-1.6,1.3c-1.8,2-1.9,3.6-1.2,5.2
					c0.3,0.6,0.5,1.3,0.9,1.9c0.3,0.4,0.5,0.9,0.7,1.4c0.2,0.7-0.1,1.5-0.7,1.9C71.5,44,71.3,44,71,44.3c-0.5,0.6-0.9,1.3-1.1,2.1
					c-0.2,0.4-0.2,0.9,0,1.3c0.2,0.7,0.6,1.2,1.2,1.5c0.7-0.4,1.5-0.7,2.3-0.8c0.7-0.2,1.3-0.5,1.8-1.1c0.2-0.2,0.4-0.4,0.6-0.6
					c3.4-5.3-3.9-8.4-2.3-12.3c0.1-0.5,0.3-0.9,0.6-1.3C75.2,32.1,76.2,31.2,77.2,30.4L77.2,30.4z M75.9,46.6L75.9,46.6l0.2,0.1
					L75.9,46.6z M76.1,46.7c0.2,0.1,0.4,0.2,0.6,0.2C76.5,46.9,76.3,46.8,76.1,46.7z M76.7,46.9L76.7,46.9L76.7,46.9L76.7,46.9z
					 M76.8,46.9c-0.4,0.6-0.9,1.1-1.5,1.5c0.9,0.2,1.8,0.5,2.7,1c0.4,0.3,0.8,0.6,1.3,0.9s1.6,0.7,2.3,1.1c-0.1,0-0.6,0.5-1.1,0.7
					c-0.2,0.1-0.7,0-0.9,0.1s-0.6,0.4-0.9,0.6c-0.7,0.4-1.3,1-1.8,1.7c-0.4,0.1-0.8,0.1-1.2,0.1c-1.4-0.2-0.5-0.2-1.4-0.2
					c-0.5,0-1-0.1-1.4-0.3c-0.3-0.2-0.3-0.6-0.6-0.7c-0.2-0.2-0.4-0.4-0.5-0.7c0.1,0.1,0.2,0,0.3,0c0.3,0.1,0.5,0.1,0.7,0.4
					c0.2,0.1,0.4,0.4,0.6,0.5c0.4,0.2,1,0.1,1.4,0.1s1.2,0.4,1.7,0.1c0.1-0.1,0.3-0.3,0.4-0.5c0.4-0.4,0.8-0.7,1.2-1
					c0.5-0.3,0.9-0.6,1.3-0.8s0.6,0,0.9,0c0-0.1,0.3-0.2,0.3-0.3c-0.3-0.2-0.6-0.2-1-0.3c-0.3-0.2-0.6-0.4-0.9-0.6
					c-0.6-0.4-1.2-0.8-1.9-1.1c-1.6-0.8-3.4-0.8-5-0.1c-0.5,0.2-0.5,0.4-0.6,0.5s0.2,0.8,0,1.3s-0.2,1-0.5,1.2s-0.9,1-1.5,1
					c0.4-1,0.6-1,0.4-1.6s-0.1-0.1-0.4-0.5c-0.1-0.2-0.7-0.2-0.9-0.2c-0.5,0-1-0.2-1.3-0.6c-0.1-0.2-0.2-0.4-0.4-0.5
					c-0.1-0.2,0-0.8-0.4-0.3c0,0.1-0.2,0.1-0.2,0.2c-0.3,0.3-0.5,0.6-0.7,0.9c-0.2,0.3-0.4,0.5-0.6,0.8c-0.2,0.5-0.6,1.2-0.6,1.2
					c-0.6,0.6-1.3,1.1-2,1.5c-0.3,0.2-0.7,0.1-0.9-0.2l0,0c0.1,0,0.4-0.1,0.8-0.6c0.2-0.3,0.6-3.1,0.3-2.8c0,0-1.5,0.9-1.4,0.6
					c0-0.8,0.1-1.6,0.3-2.3c0.2-0.4,0.5-0.5,0.4-1.2c-0.1-0.8-0.4-1.7-0.2-2c0.3,0.8,0.4,0.8,0.4,0.7c0-0.3,0-0.1,0,0c0,0,0,0,0,0.1
					c0,0.2,0.2-0.1,0.4,1c0.1,0.6,0.3,0.2,0.5-0.2c0-0.2,0-0.4,0-0.5c-0.1-0.3-0.3-0.5-0.1-0.5s0.4,0.2,0.2-0.3s-0.8-1.1-0.7-1
					c0.5,0.2,0.9,0.5,1.3,0.9c0.1,0.3,0.2,0.7,0.2,1c-0.3,0.8-0.7,1.5-1.4,2c-0.5,0.4-0.7,1-0.7,1.6c0.1,0.2,0.9-0.2,1.3-1.2
					c0.1-0.4,0.4-0.5,0.7-0.9s0.6-0.4,0.9-0.9s0.2-0.2,0.4-1c0.1,0.5,0.1,1-0.2,1.4c-0.1,0.3,1-0.1,1,0c-0.2,0.3-0.4,0.5-0.7,0.6
					c-0.4,0.2-0.7,0.4-1,0.7c-1.2,1.2-0.8,3-1.1,4.2c0.9-0.6,1.6-1.6,1.8-2.6c0.5-0.5,1-1.1,1.4-1.7c0.2-0.3,0.4-0.6,0.6-1
					c0.1-0.3,0.2-0.5,0.3-0.7s0.1-0.4,0.2-0.6s0.2-0.4,0.4-0.4c-0.2,0.9-0.2,1.9,0,2.8c0.3,0.5,0.6,0.9,1.1,1.2
					c-0.1-0.4-0.1-0.9-0.1-1.3c0-0.8,0.2-1.7,0.3-1.6c0,0.7,0.1,1.4,0.2,2.1c0.2,0.6,0.1,0.7,0.5,0.9c0.7,0.3,1.1,0.9,1.1,1.6
					c0.7-1,0.2-1.9,0.4-2c0-0.2,0.2-0.2,0.2-0.3c-2.8-2.4-1.3-3.8-0.5-5.7c-1.1-0.6-2.3-0.7-3.5-0.4c-0.7,0.2-1.5,0.2-2.2-0.2
					c-0.7-0.5-1.5-0.7-2.3-0.8c-0.6-0.1-1.1,0-1.6,0.2c-0.2,0.1-1.4,0.1-1.8,0.5c-0.3,0.3-0.3,0.3-0.5,0.3s-0.4,0.5-0.5,0.8
					c-0.2,0.4-0.4,0.8-0.7,1.1c0.1-0.2,0.2-0.5,0.3-0.7c0.1-0.3,0.5-1.2,0.4-1.2c-0.5-0.2-1.1-0.1-1.5,0.3c-0.2,0.2-0.4,0.4-0.6,0.7
					c-0.6,1.4-0.8,2.9-0.5,4.4c0.1,0.4,0.3-0.1,0.5-0.2c0.4-0.4,0.6-0.9,0.8-1.4c0.2-0.7,0-1.4,0.2-1.2s0.1,1,0.1,1.8
					s-0.7,1.1-0.6,1.4c0.3,1.5,0.6,1.2,0.1,3.1c-0.2,1,2.1-2.1,1.9-3.3c0.1-0.6,0.1-1.1,0-1.7c0-0.4-0.3-0.7-0.4-1.2
					c0.8,0.8,0.2,0.3,0.8,1c0.2,0.3,0,0.9,0,1.2c0.3,1.1,0.5,2,0.9,2.2s-1,0-1-0.6c-0.2,0.2-0.3,0.5-0.3,0.8
					c-0.4,0.4-0.3,0.5-0.8,1.2c-0.4,0.7-1,1.2-1.6,1.6c-0.1,0.1-0.2,0.1-0.4,0.2c0.4,0.7,0.8,1.4,1.1,2.2c1,2.4-1.3,8.5-1.8,10.7
					c0,0.2,1,0,2.4,0.7c0.3,0.1,1.2-7.3,5.1-10.1c1-0.7-2.1,2.2-2.8,4.3c-0.8,2.1-1.3,4.2-1.6,6.4c-0.9-0.1-2.4-1.1-3.6-0.6
					c0.3-0.9,3-9.2,1.8-11.5c-0.8-1.5-0.6-1.5-0.8-1.8c-0.2,0-0.3,0-0.7,0c0.1-0.1,0.3-0.3,0.4-0.4l-0.1-0.1c0.1,0,0.1,0,0.2,0h0.1
					c0.1-0.1,0.3-0.2,0.4-0.3c0.4-0.5,0.6-1.1,0.3-1.8C56,51,56,50.2,55.8,50s-0.6,0.4-0.6,0.3c-0.3-0.2-1.5,1.2-1.8,2.2
					c0.1,0.2,0.3,0.4,0.4,0.6c0.3,0.7,1.1,1.3,1.1,2c0.2,6.9-0.6,8.6-0.9,9.5c-0.1,0.4-0.3,0.8-0.6,1.2c0.1,0.1,0.3,0.3,0.5,0.5
					s0.3,0.6,0.1,0.4c-0.8-0.2-0.6-0.2-1,0c-0.1,0.1-0.3,0.1-0.5,0.1l0,0c0,0.1-0.1,0.2-0.1,0.3c-0.1,0.4,0.7,1.2,1,0.6
					c0.1-0.2,0.1-0.2,0-0.1v0.1c-0.1,0.3-0.5,1.2-0.2,1.6s0.5,0.9,0.9,1.1c0.5,0.4,1.1,0.7,1.8,0.8c0.5,0.1,1.1,0.2,1.6,0.1
					c0.5,0,0.9-0.2,1.3-0.4c0.2-0.2,0.6-0.2,0.9-0.6l0.1-0.1v0.3c-0.6,0.9-1.6,1.4-2.7,1.3c-0.6,0.1-1.3,0-1.9-0.3
					c0.2,0.5,0.4,0.4,1,0.7c0.3,0.1,0.5,0.1,0.8,0.1c1.5,0.3,2.9-0.6,3.3-2c0.1-0.1,0.1-0.5-0.2-2.1c0.6,0.4,0.6,0.8,0.8,0.7
					c0.4-0.3,0.7-0.6,1-1c1.1-1.4,2.6-2.6,4.2-3.4c1.2-0.7,2.3-1.5,3.5-2.3c2.1-2,4.3-7.2,2.6-7.5c0.1,0,1,0,1.2,0
					c1.2,1.7-1.4,7.2-4.7,9.1c-0.6,0.4-2,1.3-3,1.7c-1.2,0.7-2.2,1.6-3.1,2.6l-1.1,1L61,69.3v0.3c1.1-0.2,2.1-0.4,3.2-0.7
					c0.9-0.4,1.7-0.9,2.3-1.6c-0.4,0.8-1,1.4-1.8,1.7c1,0.7,7.6,2.8,7.6-2.2c0.3,1.5-0.5,3.4,0.8,7.6c0.4,0.9,0.9,1.6,1.6,2.4
					c1.4,1.7,0.6-3.9-0.4-5.8c1.5,1.9,2.1,4.4,1.6,6.8c0.2,0.7,1.3,1.3,1.7,1.7c1.3-4.9-1.6-9.6-2.4-11c3.1,2.8,3.3,8.6,3,11.5
					c0.7,1.7,1.7,3.3,3,4.7c0.6,0.3,1.1,0.5,1.8,0.7c1.4,0.1,1.1,0.6,0.2-0.9c-0.5-0.6-0.9-1.3-1.2-2c-0.4-0.6-0.7-1.3-1-2.1
					c-0.3-1-1-2-0.8-3.2c0.4-3.6,0.9-4.2-0.6-6.3c-0.8-1.1-1.4-2.2-1.8-3.5c-0.9-2.4-0.3-5.5,0.2-7.8c0.1-0.4,0.1-0.7,0.2-1.1
					c0,0.3-0.1,0.7-0.2,1.1c-0.6,3.3,0,6.6,1.6,9.5c0.6,0.8,1.1,1.7,1.5,2.7c1.7,5.3-1.6,3.8,0.9,8.1c1,1.7,1.6,2.8,3,5.5
					c0.4,0.8-0.2,2.3,0,3.3c0.4,2,1.1,3.9,2.1,5.7c-0.1,2.5-0.6,5-1.4,7.4c0.2,1,1.2,1.2,2.3,1.3c-1.2,0.1-2.6,0.5-2.7-0.2
					c-1.3,0.3-3.1,2.2-4.2,3.1c0,0.1-0.2,0.2-0.2,0.4c0.4,0.4,0.7,0.2,1,0.3c0.8-0.9,1.8-1.8,2.9-2.5c0.1,0,0.2-0.1,0.3-0.1
					c-0.7,0.8-2.7,1.9-2.7,3c0.9,0.6,5,1.3,6.3,0.2c0.3,0,1.1-2,1.1-4c-0.2-0.8-0.6-1.5-1.3-2c0.3-0.1,1.6,1.3,2.1,1.7
					c0.4-0.1,0.8-0.3,1-0.7c-0.3-0.9-0.8-1.6-1.1-2.7c-0.4-1.7-0.3-3.4,0.2-5c1.5-1,1.7-1.2,1-2.6c-0.3-0.6-0.5-1.2-0.6-1.9
					c0.6-4.2,4.2-9.5,5.3-13.3c0-2.2,0-4.3,0.1-6.5c-0.5-1.6-2.2-3.6-2.2-4.5c4.3,4.7,3.6,4.7,3.1,11.1c-0.8,3.3-2.5,6.4-3.4,8.7
					c0.6,0.1,0.5-0.1,1.4-0.1c1-0.1,3.3-0.3,4.5-0.4s2.1,0.1,3.1,0c0.4-0.1,0.7-0.1,1.1-0.2c0.3-0.1,0.6-0.1,0.8-0.2
					c1.5-0.5,3.1-1.1,4.5-1.8c2.7-0.9,5.2-2.5,7.6-3.1c-0.5,1-2.4,2.5-3.3,3.5c0,0.1-0.5,0.2-0.2,0.3c1-0.5,8.3-4,8.5-2.3
					c0.6,0.2,1.3,0.1,1.9-0.3c0.2-0.2,0.6-0.3,0.8-0.6c-0.8-0.5-1.5-0.9-2.4-1.3c-4.5-1.4-4.2-7.2-4.5-10.6c0-2.8,1.4-5.6,1.7-8.4
					c1.1,1.3-0.7,5.3-1,7.1c0.1,4.1-0.2,8.2,3.2,11c0.7,0.3,1.4,0.9,2.3,1.2c2.6,1.2,5.1,2.5,7.5,4.1c1.2,0.9,2.2,2,2.9,3.3
					c1.1,1.8,2.3,2.9,3.5,4.9c0.8,1.1-1.1,6.8-1.7,7.9l-0.4,0.9c-0.7,1.3-2.1,3.3-1.8,3.8c0.8-0.3,1.8-0.2,2.6,0.1
					c-1-0.2-2,0-2.9,0.5c-0.2-0.2-0.3,0.3-0.3-0.4c-0.9-0.2-3.8,2.2-3.6,3.1c0,0.1,0.1,0.2,0.3,0.2c0.1,0,0.1,0,0.2-0.1
					c0.8-0.8,1.7-1.5,2.7-1.9c-0.3,0.2-2.2,1.8-2.1,2s-0.2,0.5-0.2,0.7c0,0.1,0.1,0.2,0.2,0.2c2.2,0.4,4.4,0.1,6.4-0.7
					c0.1-0.1,0.5-0.2,0.7-0.6c0.4-0.9,0.6-1.8,0.7-2.7c-0.9-1.6-0.6-0.8-1-1.4c0.5,0.1,0.9,0.6,1.4,1c0.3,0.2,0.7,0.3,1.1,0.2
					c0.1-0.2,0.2-0.4,0.3-0.6c-0.9-2.6,0-7.6,2.8-9c0.9-1,0.3-1.8-1-3.5c-1.6-3.6-3.6-9.2-3.6-12.8c0.4,1.6,0.4,1.6,0.5,1.8l0.2-0.1
					c0.7-2.6,1.6-5.2,2.6-7.7c0.5-5.3-2.4-8.4-2.2-11.5c0.2,0.3,0.4,0.7,0.6,1c1.2-4.7-3.3-7.7-4-7.9c0-0.4,0.2-0.8,0.5-1.1
					c7.7,0.2,6,5.8,5.3,12.7c1,4.4,1.6,5.6-0.1,8.9c0,8.1,0.1,6.8,0.3,14.4c0.3,1,0.9,2,1.6,2.8c1,1.6,1.5,2.7-0.7,3.7
					c0,0.1-0.5,0.5-0.5,0.6c-0.1,0.4-0.1,0.9,0.1,1.3c0.1,0.4,0.2,0.9,0.4,1.3c0,0.2,0.2-1.8,0.5-1.4c0.6,1.3,1.8,2.4,2.3,2
					c-0.4-1-0.6-2.1-0.8-3.2c-0.2-2.2,0.5-4.5-1.7-6.4c1.3-0.5,2.7,3.6,3,4.7c-0.3-1.7,0-3.2-0.4-3.8c-0.8-1.1-1.8-2-3-2.6
					c1.7,0.3,1.7,0.1,3.5,1.8c-0.7-3.1-2.1-3.1-3.4-3.7c0.7-0.4,2.9-0.1,3.6,2.5c0.3-2.2-0.1-2.2-0.2-2.8c-1.4-2.1-2.7-3-3.1-5.1
					c-0.1-6.7,0.8-12.9,1.5-19.3c-0.2-5.6-0.9-8.2-5.8-10.4c-2.3-0.4-3.5,0.4-5.2,0.4c-5.3-3.4-7.9-1.2-13.6-0.9
					c-3.8-0.3-9.1,0.3-13.2,0.5c-4.3-0.2-8.6-1-12.8-2.2c-1.5-0.5-0.4-0.3-5.5-2.3c-1.2-0.3-2.4-0.4-3.6-0.4c-1.7,0.2-3.3,0.3-5,0.4
					c-1.1,0.4-2.3-0.3-3.1-0.2C76.9,46.5,76.9,46.8,76.8,46.9L76.8,46.9z M68.4,50.2L68.4,50.2C68.4,50.3,68.4,50.2,68.4,50.2
					L68.4,50.2z M59.5,45.1l0.8,0.6l0.2,0.7l0.1,1.5l-0.4,1.4l-0.7,0.6l0.7-2.1h-0.7l0.3-0.6v-0.9L59.5,45.1z M86.8,46.9
					c0.3,0,0.6,0.1,0.9,0.1c0.4,0.1,0.8,0.4,1.1,0.7c-1.2-0.4-2.4-0.3-3.5,0.1c-0.6,0.2-1.2,0.5-1.7,0.9s-1,0.9-1.4,1.4
					c0.3-0.6,0.7-1.1,1.2-1.6c0.6-0.6,1.4-1.1,2.2-1.4C86,47,86.4,47,86.8,46.9L86.8,46.9z M52.9,48.8c-1.5,0-3.1,0.3-4.5,1
					c1.4-0.3,2.8,0.5,3.6,2.2c0.2,0.5,0.7,0.5,0.8,0.6s0.1,0,0.5-0.8c0.3-0.6,0.5-1.2,0.7-1.8c-1-0.1-2.1-0.5-3-0.5
					c1-0.3,3,0,3.3-0.1c0-0.2,0-0.5,0-0.7c-0.2,0-0.5,0-0.8,0L52.9,48.8L52.9,48.8z M73.8,49.5c1.1,0,2.2,0.3,3.2,0.9
					c0.6,0.3,1.4,0.6,2,0.9c-1.2,0-2.2-0.7-3.2-1c-1-0.4-2.2-0.3-3.1,0.3c-0.1,0.9,0,0.3,0,0.7c0-0.1,0.2,0.5,0.2,0.4
					c-0.7-0.6-0.9-0.6-1-1.2C72.2,49.8,73,49.5,73.8,49.5z M67.1,52.7c0.3,0,0.7,0.1,0.9,0.3c-1.8-0.3-1.8,0.5-3.8,3.5
					c-0.8,1-1,0.5-0.2-0.3C65,54.5,65.8,52.7,67.1,52.7z M67.9,53.4c0.3,0,0.6,0.1,0.9,0.2c-0.5,0-1.6,0.2-1.6,0.5
					c1,0.9,0.6,3.9-2.4,3c-0.3,0.4-0.7,0.7-1.2,0.8c1-0.8,1.8-1.9,2.4-3C66.6,53.8,67.2,53.4,67.9,53.4z M66.9,54.4
					c0.4,1.5,0.1,2.4-1.6,2.2c-0.2,0.1-0.3,0.3,0.1,0.4c0.2,0.1,0.4,0.1,0.6,0.1C67.5,57.2,68.1,54.9,66.9,54.4L66.9,54.4z
					 M71.4,54.5l0.1,0.5c-1.4,5.5-8.3,4.8-11,9.9l-1.7,2.5l0.1-0.4c1.8-3.5,2.7-4.7,6.2-6.7C68.3,59,69.9,58,71.4,54.5L71.4,54.5z
					 M58.6,67.9c-0.2,0.9-0.4,1.9-1.5,2c-0.3-0.1-0.5-0.4-0.4-0.7c0-0.1,0.1-0.2,0.2-0.3c0.6,0.3,0.3,0.1,0.6,0.2
					C58.2,68.6,58.1,68.3,58.6,67.9z M125.7,80.8c-0.6,0.6-1.4,1-2.2,1.3c1,2.2,4.3,5.4,4.1,8.8c-1.6,3.5-2.6,5.5-4.8,10.2
					c-0.7,1.2-0.5,0.6-0.6,1.7c0.8-0.2,1.7-0.2,2.5,0c-0.9,0.1-1.8,0.3-2.9,0.5c0.2-0.2-0.1-0.5-0.1-0.6c-0.6,0-3.5,1.6-3.7,2.6
					c0,0.3,0.5,0.2,0.3,0.5c0.2,0.3,1.2-1.1,2.2-1.1c-0.4,0.2-1.6,0.9-1.9,1.7c0.7,0.4,1,0.3,2.2,0.4c1.4,0.1,2.7-0.1,4-0.5
					c1-0.8,1.6-1.9,1.9-3.1c-0.2-0.2-0.7-0.6-0.9-0.8c0.3-0.1,0.7,0,1.2,0.6c0.2,0.1,0.5,0.2,0.8,0.2c0.2-0.2,0.4-0.2,0.4-0.5
					c-0.1-1.1,0-2.2,0.2-3.3c0.4-1.8,1.2-3.5,2.4-5c0.5-0.4,1.1-0.3,1.4-0.4c0.4-0.1,0.7-0.4,0.8-0.9c0.2-0.6,0.1-1.3-0.9-2.2
					c-0.2-0.3-0.5-0.4-0.6-0.8c-0.6-1.8-0.3-4.6-0.3-6C128.4,82.4,126.8,81,125.7,80.8L125.7,80.8z M79.9,84.8
					c-0.3,0.6-0.2,3.6,0,4.4c0.2,0.5,0.3,1,0.4,1.5c-0.1,1.1-0.2,2.2-0.3,2.4c-0.2,2.6-0.6,5.1-1.1,7.7c-0.8,1.3,1.8,1.7,2.4,1.4
					c-1.2,0.6-3.8,0.2-3.4-0.7c-3.5,2.4-5.4,4-4.4,4.4c1-0.9,2.1-1.8,3.2-2.5c0.6-0.3-3.1,2.7-2.4,3c0.7,0.4,1.5,0.6,2.3,0.5
					c0.9,0,3-0.1,3.4-0.6c-0.3-0.2,2.8-3,3.3-3.3c0.3-0.4-0.7-1.2-1.1-1.6c0.9,0.2,1.8,1.4,1.8,1.2c1.2-0.2,0.6-0.8,0.9-1
					c-1.1-1.2-1.5-2.8-1.3-4.4c0.1-1.2,0-2.1,0.7-2.8c0-0.2,0.8-0.8,0.4-1.2c-0.7-0.7-0.8-1.8-0.3-2.6c-0.5-1.4-0.6-3-0.3-4.5
					C82.9,86.5,81.3,85.4,79.9,84.8L79.9,84.8z"/>
			</g>
		</g>
	</g>
	<g>
		<defs>
			<rect id="SVGID_00000173882709537011969160000009356950912162939804_" width="195.6" height="280.6"/>
		</defs>
		<clipPath id="SVGID_00000136393347044877833950000016313565304507657898_">
			<use xlink:href="#SVGID_00000173882709537011969160000009356950912162939804_"  style="overflow:visible;"/>
		</clipPath>
		<path style="clip-path:url(#SVGID_00000136393347044877833950000016313565304507657898_);fill:#FFFFFF;" d="M80,99.6
			c-12.6,0-22.9,10.2-22.9,30.5c0,25.4,18.2,50.9,40.7,50.9s40.7-25.4,40.7-50.9c0-20.3-10.2-30.5-22.9-30.5
			c-6.9,0-13.5,3.1-17.8,8.5C93.5,102.8,86.9,99.6,80,99.6z"/>
	</g>
	<g>
		<defs>
			<rect id="SVGID_00000066473159833650952380000013078954803480319162_" width="195.6" height="280.6"/>
		</defs>
		<clipPath id="SVGID_00000005258435787325564060000011513358890706485134_">
			<use xlink:href="#SVGID_00000066473159833650952380000013078954803480319162_"  style="overflow:visible;"/>
		</clipPath>
		<path style="clip-path:url(#SVGID_00000005258435787325564060000011513358890706485134_);fill:#FFFFFF;" d="M30.4,112.8h134.7
			c3,0,5.5,2.4,5.5,5.5v44c0,3-2.4,5.5-5.5,5.5H30.4c-3,0-5.5-2.4-5.5-5.5v-44C25,115.3,27.4,112.8,30.4,112.8z"/>
	</g>
	<g>
		<defs>
			<rect id="SVGID_00000137836255122199014620000000841194016992592573_" width="195.6" height="280.6"/>
		</defs>
		<clipPath id="SVGID_00000003827794487885949960000012579505410015220881_">
			<use xlink:href="#SVGID_00000137836255122199014620000000841194016992592573_"  style="overflow:visible;"/>
		</clipPath>
	</g>
	<g>
		<defs>
			<rect id="SVGID_00000012431026720732424350000001061356824516991669_" width="195.6" height="280.6"/>
		</defs>
		<clipPath id="SVGID_00000108271448026061591850000009232370978346276525_">
			<use xlink:href="#SVGID_00000012431026720732424350000001061356824516991669_"  style="overflow:visible;"/>
		</clipPath>
		<path style="clip-path:url(#SVGID_00000108271448026061591850000009232370978346276525_);fill:#1C1A19;" d="M44.8,0h-29h-16v16
			c0,7,0,14,0,21c10.2,12.4,28.6,14.2,41,4S55.1,12.4,44.8,0z"/>
	</g>
	<g>
		<defs>
			<rect id="SVGID_00000065758963503443287230000011952652027190524306_" width="195.6" height="280.6"/>
		</defs>
		<clipPath id="SVGID_00000176015892122040898770000012079521021496812713_">
			<use xlink:href="#SVGID_00000065758963503443287230000011952652027190524306_"  style="overflow:visible;"/>
		</clipPath>
	</g>
</g>
<g class="st9">
	<path class="st10" d="M32.8,120.3h4.3c1.4,0,2.4,0.1,3.1,0.3c0.7,0.2,1.3,0.6,1.7,1.3s0.6,1.7,0.6,3.1c0,1-0.2,1.6-0.5,2
		c-0.3,0.4-0.9,0.7-1.8,0.9c1,0.2,1.7,0.6,2,1.1s0.5,1.3,0.5,2.4v1.5c0,1.1-0.1,2-0.4,2.5c-0.3,0.5-0.7,0.9-1.2,1.1
		s-1.7,0.3-3.4,0.3h-5V120.3z M37.1,123.2v3.7c0.2,0,0.3,0,0.4,0c0.4,0,0.7-0.1,0.8-0.3c0.1-0.2,0.2-0.8,0.2-1.8
		c0-0.5,0-0.9-0.1-1.1c-0.1-0.2-0.2-0.3-0.4-0.4C37.9,123.2,37.6,123.2,37.1,123.2z M37.1,129.4v4.6c0.6,0,1-0.1,1.2-0.3
		s0.3-0.6,0.3-1.3V131c0-0.7-0.1-1.1-0.2-1.3S37.8,129.5,37.1,129.4z"/>
	<path class="st10" d="M48.6,120.3v2.2h-4.3v-2.2H48.6z M48.6,123.3v13.6h-4.3v-13.6H48.6z"/>
	<path class="st10" d="M59.4,130.4h-5.4v2.9c0,0.6,0,1,0.1,1.2s0.3,0.3,0.5,0.3c0.3,0,0.5-0.1,0.6-0.4c0.1-0.2,0.2-0.7,0.2-1.4v-1.8
		h3.9v1c0,0.8-0.1,1.5-0.2,1.9c-0.1,0.5-0.4,0.9-0.7,1.4s-0.9,0.9-1.5,1.2c-0.6,0.3-1.3,0.4-2.3,0.4c-0.9,0-1.6-0.1-2.3-0.4
		c-0.7-0.3-1.2-0.6-1.6-1c-0.4-0.4-0.6-0.9-0.8-1.5c-0.1-0.5-0.2-1.3-0.2-2.3v-4c0-1.2,0.2-2.1,0.5-2.8c0.3-0.7,0.8-1.2,1.6-1.6
		c0.7-0.4,1.6-0.5,2.5-0.5c1.2,0,2.1,0.2,2.9,0.7c0.8,0.4,1.3,1,1.6,1.8c0.3,0.7,0.5,1.8,0.5,3.1V130.4z M55.3,128.1v-1
		c0-0.7,0-1.2-0.1-1.4s-0.2-0.3-0.5-0.3c-0.3,0-0.5,0.1-0.5,0.3c-0.1,0.2-0.1,0.6-0.1,1.4v1H55.3z"/>
	<path class="st10" d="M65.1,120.3v16.6h-4.3v-16.6H65.1z"/>
	<path class="st10" d="M75,127.7h-3.7v-0.7c0-0.6,0-1-0.1-1.2c-0.1-0.2-0.3-0.3-0.5-0.3c-0.2,0-0.4,0.1-0.5,0.2
		c-0.1,0.2-0.2,0.4-0.2,0.7c0,0.4,0,0.7,0.1,0.9c0.1,0.2,0.2,0.4,0.5,0.6c0.3,0.2,0.9,0.6,1.8,1c1.2,0.6,2,1.1,2.4,1.7
		s0.6,1.3,0.6,2.3c0,1.1-0.1,1.9-0.4,2.5c-0.3,0.6-0.8,1-1.4,1.3c-0.7,0.3-1.5,0.5-2.4,0.5c-1.1,0-2-0.2-2.7-0.5
		c-0.7-0.3-1.3-0.8-1.5-1.3s-0.4-1.4-0.4-2.5v-0.7H70v0.9c0,0.7,0,1.2,0.1,1.4c0.1,0.2,0.3,0.3,0.5,0.3c0.3,0,0.5-0.1,0.6-0.2
		c0.1-0.1,0.2-0.5,0.2-0.9c0-0.6-0.1-1.1-0.2-1.2c-0.2-0.2-1-0.6-2.4-1.5c-1.2-0.7-2-1.3-2.2-1.9c-0.3-0.6-0.4-1.2-0.4-2
		c0-1.1,0.1-1.9,0.4-2.4c0.3-0.5,0.8-0.9,1.5-1.2c0.7-0.3,1.5-0.4,2.4-0.4c0.9,0,1.7,0.1,2.3,0.3c0.6,0.2,1.1,0.5,1.5,0.9
		c0.3,0.4,0.5,0.7,0.6,1c0.1,0.3,0.1,0.8,0.1,1.5V127.7z"/>
	<path class="st10" d="M85.4,123.3l-1.7,5.4l2.2,8.2h-4l-1.3-5.9l0,5.9h-4.1v-16.6h4.1l0,7l1.3-4H85.4z"/>
	<path class="st10" d="M90.3,120.3h4.3c1.2,0,2.1,0.1,2.7,0.3s1.1,0.5,1.4,0.8c0.3,0.3,0.5,0.8,0.6,1.3c0.1,0.5,0.2,1.3,0.2,2.3v1.4
		c0,1.1-0.1,1.8-0.3,2.3c-0.2,0.5-0.6,0.9-1.2,1.1c-0.6,0.3-1.3,0.4-2.3,0.4h-1.2v6.7h-4.3V120.3z M94.6,123.2v4.2
		c0.1,0,0.2,0,0.3,0c0.4,0,0.7-0.1,0.8-0.3c0.2-0.2,0.2-0.6,0.2-1.2v-1.4c0-0.6-0.1-0.9-0.3-1.1S95.2,123.2,94.6,123.2z"/>
	<path class="st10" d="M110.1,128.1v3.3c0,1.2-0.1,2.1-0.2,2.7c-0.1,0.6-0.4,1.1-0.8,1.6c-0.4,0.5-0.9,0.9-1.6,1.1
		c-0.6,0.2-1.4,0.4-2.2,0.4c-0.9,0-1.7-0.1-2.3-0.3c-0.6-0.2-1.1-0.5-1.5-0.9c-0.4-0.4-0.6-0.9-0.8-1.5c-0.2-0.6-0.2-1.4-0.2-2.6
		v-3.5c0-1.3,0.1-2.3,0.4-3s0.8-1.3,1.5-1.7s1.6-0.6,2.7-0.6c0.9,0,1.7,0.1,2.4,0.4c0.7,0.3,1.2,0.6,1.5,1.1s0.6,0.9,0.7,1.4
		C110,126.4,110.1,127.1,110.1,128.1z M105.9,127.1c0-0.7,0-1.1-0.1-1.3c-0.1-0.2-0.2-0.3-0.5-0.3s-0.4,0.1-0.5,0.3
		c-0.1,0.2-0.1,0.6-0.1,1.3v6.1c0,0.6,0,1.1,0.1,1.3c0.1,0.2,0.2,0.3,0.5,0.3c0.2,0,0.4-0.1,0.5-0.3c0.1-0.2,0.1-0.6,0.1-1.1V127.1z
		"/>
	<path class="st10" d="M120.9,120.3v16.6h-4.1v-1c-0.4,0.4-0.8,0.7-1.3,0.9c-0.4,0.2-0.9,0.3-1.4,0.3c-0.6,0-1.2-0.2-1.7-0.5
		c-0.5-0.3-0.8-0.7-0.9-1.2c-0.1-0.4-0.2-1.2-0.2-2.2v-6.4c0-1,0.1-1.8,0.2-2.2c0.1-0.4,0.4-0.8,0.9-1.2c0.5-0.3,1-0.5,1.7-0.5
		c0.5,0,1,0.1,1.4,0.3c0.4,0.2,0.8,0.5,1.2,0.8v-3.9H120.9z M116.7,126.7c0-0.5,0-0.8-0.1-1c-0.1-0.2-0.3-0.3-0.5-0.3
		c-0.2,0-0.4,0.1-0.5,0.2c-0.1,0.2-0.1,0.5-0.1,1v6.7c0,0.6,0,0.9,0.1,1.1c0.1,0.2,0.2,0.3,0.5,0.3c0.3,0,0.4-0.1,0.5-0.3
		c0.1-0.2,0.1-0.7,0.1-1.4V126.7z"/>
	<path class="st10" d="M126.6,120.3v16.6h-4.3v-16.6H126.6z"/>
	<path class="st10" d="M131.8,128.6h-3.9v-0.9c0-1.1,0.1-1.9,0.4-2.4c0.2-0.6,0.7-1.1,1.5-1.5c0.7-0.4,1.7-0.7,2.9-0.7
		c1.4,0,2.5,0.2,3.2,0.7c0.7,0.5,1.1,1.1,1.3,1.8c0.1,0.7,0.2,2.2,0.2,4.5v6.8h-4v-1.2c-0.3,0.5-0.6,0.9-1,1.1
		c-0.4,0.2-0.9,0.4-1.4,0.4c-0.7,0-1.4-0.2-2-0.6c-0.6-0.4-0.9-1.3-0.9-2.7v-1.1c0-1,0.2-1.7,0.5-2.1s1.1-0.8,2.4-1.3
		c1.4-0.5,2.1-0.9,2.2-1.1c0.1-0.2,0.1-0.6,0.1-1.1c0-0.7-0.1-1.2-0.2-1.4c-0.1-0.2-0.3-0.3-0.5-0.3c-0.3,0-0.5,0.1-0.5,0.3
		c-0.1,0.2-0.1,0.7-0.1,1.4V128.6z M133.1,130.4c-0.7,0.5-1,0.9-1.2,1.2c-0.1,0.3-0.2,0.8-0.2,1.4c0,0.7,0,1.2,0.1,1.4
		c0.1,0.2,0.3,0.3,0.5,0.3c0.3,0,0.4-0.1,0.5-0.2c0.1-0.2,0.1-0.6,0.1-1.3V130.4z"/>
	<path class="st10" d="M147.2,127.7h-3.7v-0.7c0-0.6,0-1-0.1-1.2c-0.1-0.2-0.3-0.3-0.5-0.3c-0.2,0-0.4,0.1-0.5,0.2
		c-0.1,0.2-0.2,0.4-0.2,0.7c0,0.4,0,0.7,0.1,0.9c0.1,0.2,0.2,0.4,0.5,0.6c0.3,0.2,0.9,0.6,1.8,1c1.2,0.6,2,1.1,2.4,1.7
		s0.6,1.3,0.6,2.3c0,1.1-0.1,1.9-0.4,2.5c-0.3,0.6-0.8,1-1.4,1.3c-0.7,0.3-1.5,0.5-2.4,0.5c-1.1,0-2-0.2-2.7-0.5
		c-0.7-0.3-1.3-0.8-1.5-1.3s-0.4-1.4-0.4-2.5v-0.7h3.7v0.9c0,0.7,0,1.2,0.1,1.4c0.1,0.2,0.3,0.3,0.5,0.3c0.3,0,0.5-0.1,0.6-0.2
		c0.1-0.1,0.2-0.5,0.2-0.9c0-0.6-0.1-1.1-0.2-1.2c-0.2-0.2-1-0.6-2.4-1.5c-1.2-0.7-2-1.3-2.2-1.9c-0.3-0.6-0.4-1.2-0.4-2
		c0-1.1,0.1-1.9,0.4-2.4c0.3-0.5,0.8-0.9,1.5-1.2c0.7-0.3,1.5-0.4,2.4-0.4c0.9,0,1.7,0.1,2.3,0.3c0.6,0.2,1.1,0.5,1.5,0.9
		c0.3,0.4,0.5,0.7,0.6,1c0.1,0.3,0.1,0.8,0.1,1.5V127.7z"/>
	<path class="st10" d="M157.5,123.3l-1.7,5.4l2.2,8.2h-4l-1.3-5.9l0,5.9h-4.1v-16.6h4.1l0,7l1.3-4H157.5z"/>
	<path class="st10" d="M162.9,120.3v2.2h-4.3v-2.2H162.9z M162.9,123.3v13.6h-4.3v-13.6H162.9z"/>
</g>
<g class="st9">
	<path class="st10" d="M73,142.4l-2.9,8.8l3.2,10.7H68l-2.1-8.4v8.4h-5.1v-19.6h5.1v7.6l2.3-7.6H73z"/>
	<path class="st10" d="M85.1,151.6v3.9c0,1.4-0.1,2.5-0.2,3.2c-0.1,0.7-0.5,1.3-0.9,1.9c-0.5,0.6-1.1,1-1.8,1.3
		c-0.7,0.3-1.6,0.4-2.6,0.4c-1.1,0-2-0.1-2.7-0.4c-0.8-0.2-1.3-0.6-1.7-1.1c-0.4-0.5-0.7-1.1-0.9-1.7c-0.2-0.7-0.3-1.7-0.3-3.1v-4.1
		c0-1.5,0.2-2.7,0.5-3.5c0.3-0.8,0.9-1.5,1.7-2c0.8-0.5,1.9-0.8,3.2-0.8c1.1,0,2,0.2,2.8,0.5c0.8,0.3,1.4,0.8,1.8,1.3
		s0.7,1.1,0.9,1.6C85,149.6,85.1,150.4,85.1,151.6z M80.2,150.4c0-0.8,0-1.3-0.1-1.6c-0.1-0.2-0.3-0.3-0.6-0.3
		c-0.3,0-0.5,0.1-0.6,0.3c-0.1,0.2-0.1,0.7-0.1,1.6v7.2c0,0.8,0,1.3,0.1,1.5c0.1,0.2,0.3,0.3,0.6,0.3c0.3,0,0.5-0.1,0.6-0.3
		s0.1-0.7,0.1-1.4V150.4z"/>
	<path class="st10" d="M91.6,142.4v4.6c0.4-0.5,0.9-0.8,1.3-1c0.5-0.2,1-0.3,1.6-0.3c0.7,0,1.2,0.1,1.7,0.3s0.9,0.5,1.1,0.9
		c0.3,0.4,0.4,0.8,0.5,1.1c0.1,0.4,0.1,1.1,0.1,2.3v7.2c0,1.2-0.1,2.1-0.2,2.6c-0.2,0.6-0.5,1.1-1.1,1.5c-0.6,0.4-1.3,0.6-2.1,0.6
		c-0.6,0-1.1-0.1-1.6-0.4c-0.5-0.3-0.9-0.6-1.4-1.1l-0.3,1.2h-4.6v-19.6H91.6z M93,150.5c0-0.8-0.1-1.4-0.2-1.6
		c-0.1-0.3-0.3-0.4-0.6-0.4c-0.3,0-0.5,0.1-0.6,0.3s-0.1,0.8-0.1,1.7v6.9c0,0.9,0,1.4,0.2,1.7c0.1,0.2,0.3,0.4,0.6,0.4
		c0.3,0,0.5-0.1,0.6-0.4s0.1-0.9,0.1-1.8V150.5z"/>
</g>
<g class="st9">
	<path class="st10" d="M104.4,145.9l-0.2,2.1c0.7-1.5,1.7-2.3,3.1-2.4v5.6c-0.9,0-1.6,0.1-2,0.4c-0.4,0.2-0.7,0.6-0.8,1
		c-0.1,0.4-0.1,1.4-0.1,3v6.3h-4.9v-16H104.4z"/>
</g>
<g class="st9">
	<path class="st10" d="M119.1,145.9l-1.4,11.6c-0.2,1.8-0.4,3.1-0.6,3.8c-0.1,0.7-0.4,1.2-0.7,1.7s-0.8,0.8-1.4,1
		c-0.6,0.2-1.6,0.3-3,0.3h-3v-2.6c0.8,0,1.2,0,1.5-0.1c0.2-0.1,0.3-0.2,0.3-0.5c0-0.1-0.1-0.7-0.3-1.7l-2.7-13.4h4.4l1.6,10.8
		l0.8-10.8H119.1z"/>
	<path class="st10" d="M124.9,145.9l-0.1,1.5c0.4-0.6,0.8-1,1.3-1.3c0.5-0.3,1.1-0.4,1.8-0.4c0.8,0,1.5,0.2,2.1,0.6
		c0.5,0.4,0.9,0.9,1,1.5c0.2,0.6,0.2,1.6,0.2,3V162h-4.9v-11.1c0-1.1,0-1.8-0.1-2c-0.1-0.2-0.3-0.4-0.6-0.4c-0.3,0-0.6,0.1-0.7,0.4
		c-0.1,0.3-0.1,1-0.1,2.2V162H120v-16H124.9z"/>
</g>
<g class="st9">
	<path class="st11" d="M23.6,22.8c0.6,0.2,1,0.5,1.3,1c0.3,0.5,0.4,1.5,0.4,3.2c0,1.3-0.1,2.2-0.4,2.9s-0.8,1.2-1.5,1.6
		s-1.6,0.5-2.7,0.5c-1.2,0-2.2-0.2-2.9-0.6s-1.2-0.9-1.4-1.5S16,28.2,16,26.7v-1.2H20V28c0,0.7,0,1.1,0.1,1.3s0.3,0.3,0.5,0.3
		c0.3,0,0.5-0.1,0.6-0.4s0.1-0.8,0.1-1.8v-1.1c0-0.6-0.1-1-0.2-1.3s-0.3-0.5-0.6-0.6s-0.8-0.1-1.6-0.2V22c0.9,0,1.5,0,1.7-0.1
		s0.4-0.2,0.5-0.5s0.1-0.6,0.1-1.1v-0.9c0-0.6-0.1-0.9-0.2-1.1s-0.3-0.3-0.5-0.3c-0.3,0-0.5,0.1-0.6,0.3S20,18.9,20,19.5v1.3H16
		v-1.3c0-1.5,0.3-2.5,1-3.1s1.8-0.8,3.3-0.8c1.9,0,3.2,0.4,3.8,1.1s1,1.8,1,3.1c0,0.9-0.1,1.5-0.4,1.9S24.2,22.5,23.6,22.8z"/>
	<path class="st11" d="M36.1,21.3v5.3c0,1.2-0.1,2.1-0.2,2.6s-0.4,1.1-0.8,1.5s-0.9,0.8-1.5,1s-1.2,0.3-1.9,0.3
		c-0.9,0-1.7-0.1-2.4-0.3s-1.1-0.6-1.5-1s-0.6-0.9-0.8-1.5s-0.2-1.3-0.2-2.4v-5.5c0-1.5,0.1-2.5,0.4-3.3s0.7-1.3,1.5-1.7
		s1.6-0.7,2.7-0.7c0.9,0,1.6,0.2,2.3,0.5s1.2,0.7,1.5,1.1s0.6,0.9,0.7,1.5S36.1,20.1,36.1,21.3z M32.1,20c0-0.8,0-1.4-0.1-1.6
		s-0.3-0.3-0.6-0.3c-0.3,0-0.5,0.1-0.6,0.3s-0.1,0.7-0.1,1.6v7.7c0,0.9,0,1.5,0.1,1.7s0.3,0.3,0.6,0.3s0.5-0.1,0.6-0.3
		s0.1-0.7,0.1-1.5V20z"/>
</g>
</svg>
