<svg id="Слой_1" data-name="Слой 1" xmlns="http://www.w3.org/2000/svg" viewBox="0 0 195.59 280.63"><defs><style>.cls-1,.cls-19{fill:#428ecc;}.cls-2{font-size:47.39px;}.cls-14,.cls-2{fill:#fff;}.cls-19,.cls-2{font-family:Impact;}.cls-3{fill:#1a1a1a;}.cls-4{fill:#9d8070;}.cls-5{fill:#b6a293;}.cls-6{fill:#83665a;}.cls-7{fill:#f8af5e;}.cls-8{fill:#fdd495;}.cls-9{fill:#f1844d;}.cls-10{fill:#f49955;}.cls-11{fill:#ed6b2f;}.cls-12{fill:#89a3aa;}.cls-13{fill:#647d8a;}.cls-15{fill:#b3b3b3;}.cls-16{fill:#97d6f2;}.cls-17{fill:#7f6456;}.cls-18{fill:#eb5a53;}.cls-19{font-size:20px;}</style></defs><rect class="cls-1" x="-17.93" y="-28.23" width="514.44" height="313.28"/><text class="cls-2" transform="translate(16.09 252.92)">Svislach </text><rect class="cls-3" x="142.04" y="27.8" width="38.71" height="4.85"/><path class="cls-3" d="M167.24,117.39H87.68v7.75h72.77a53.49,53.49,0,0,1,.5,5.63c0,17.14-7.67,29.64-20.54,38.38s-31.13,13.42-51.51,13.42H87.68v7.75H88.9c21.56,0,41.27-4.83,55.87-14.75s23.94-25.27,23.94-44.82v0a62.52,62.52,0,0,0-.91-10.12Zm0,0"/><path class="cls-3" d="M75.87,104.22v20.92h71V104.22h-7.76v13.17H83.62V104.22Zm0,0"/><path class="cls-3" d="M110.15,76.4v7.75h33.73v1.47H110.15v7.76h41.48v-17Zm0,0"/><path class="cls-3" d="M110.15,56.53v7.76h7.28V76.4h-7.28v7.75h15V56.53Zm0,0"/><rect class="cls-3" x="142.04" y="44.1" width="4.85" height="50.78"/><path class="cls-3" d="M97.57,56.53V84.15h15V76.4h-7.28V64.29h7.28V56.53Zm0,0"/><path class="cls-3" d="M90.13,117.39H10.59l-.56,3.2a61.56,61.56,0,0,0-.93,10.13v0c0,19.55,9.33,34.89,23.93,44.82s34.32,14.75,55.87,14.75h1.23v-7.75H88.9c-20.38,0-38.64-4.67-51.51-13.42s-20.53-21.24-20.54-38.37a53.48,53.48,0,0,1,.52-5.64H90.13Zm0,0"/><path class="cls-3" d="M75.87,85.76v20.91h7.75V93.51h55.51v13.16h7.76V85.76Zm0,0"/><path class="cls-3" d="M71.13,76.4v17H112.6V85.62H78.88V84.15H112.6V76.4Zm0,0"/><path class="cls-4" d="M13.85,121.26a58.26,58.26,0,0,0-.88,9.49c0,36.7,34,55.7,75.93,55.7s75.93-19,75.93-55.7a58.32,58.32,0,0,0-.85-9.49Zm0,0"/><path class="cls-5" d="M13.85,121.26a58.37,58.37,0,0,0-.88,9.49A51.87,51.87,0,0,0,15.18,146c30.19,30.19,124.81,27.36,118-24.78Zm0,0"/><path class="cls-6" d="M150.4,121.26C158.53,183,58.21,190.35,20.8,158,33.2,176.81,59,186.45,88.9,186.45c41.94,0,75.93-19,75.93-55.7a58.32,58.32,0,0,0-.85-9.49Zm0,0"/><path class="cls-7" d="M13.85,121.26a59.4,59.4,0,0,0-.88,9.49H164.83a58.32,58.32,0,0,0-.85-9.49Zm0,0"/><path class="cls-8" d="M13.85,121.26a59.4,59.4,0,0,0-.88,9.49H133.23a37.84,37.84,0,0,0-.1-9.49Zm0,0"/><path class="cls-9" d="M150.4,121.26a51.39,51.39,0,0,1,.4,9.49h14a58.32,58.32,0,0,0-.85-9.49Zm0,0"/><path class="cls-3" d="M87.68,120.3v1.93h75.41a56.94,56.94,0,0,1,.77,8.53c0,18-8.29,31.61-21.81,40.8s-32.33,13.92-53.15,13.92H87.68v1.94H88.9c21.12,0,40.28-4.77,54.24-14.26s22.66-23.76,22.66-42.41a57.78,57.78,0,0,0-.87-9.64l-.14-.81Zm0,0"/><rect class="cls-3" x="12.97" y="129.78" width="151.86" height="1.94"/><rect class="cls-10" x="79.75" y="89.63" width="63.26" height="31.63"/><rect class="cls-11" x="79.75" y="89.63" width="63.26" height="4.37"/><rect class="cls-8" x="75" y="80.27" width="72.75" height="9.23"/><path class="cls-3" d="M110.15,79.3v1.94h36.63v7.29H110.15v1.94h38.57V79.3Zm0,0"/><rect class="cls-12" x="101.45" y="60.41" width="19.86" height="19.86"/><rect class="cls-13" x="114.17" y="60.41" width="7.14" height="19.86"/><rect class="cls-14" x="105.11" y="60.41" width="2.91" height="19.86"/><rect class="cls-14" x="101.45" y="60.41" width="19.86" height="5.64"/><rect class="cls-15" x="114.17" y="60.41" width="7.14" height="5.64"/><rect class="cls-3" x="101.45" y="65.07" width="19.86" height="1.94"/><path class="cls-3" d="M110.15,59.44v1.94h10.19V79.3H110.15v1.94h12.13V59.44Zm0,0"/><path class="cls-11" d="M102,96.14a9.29,9.29,0,1,0,9.38,9.31A9.35,9.35,0,0,0,102,96.14Zm0,0"/><path class="cls-14" d="M99.25,97.1a8.4,8.4,0,0,0-5.94,2.45,8.28,8.28,0,0,0,0,11.8,8.46,8.46,0,0,0,11.89,0,8.33,8.33,0,0,0-6-14.25Zm0,0"/><path class="cls-16" d="M99.25,101.43a4,4,0,0,0-2.86,6.86,4,4,0,0,0,6.91-2.84,4,4,0,0,0-4-4Zm0,0"/><path class="cls-3" d="M94.4,104.22a5,5,0,1,0,9.71,0h-2a3,3,0,0,1,.26,1.23,3.08,3.08,0,0,1-6.15,0,3,3,0,0,1,.26-1.23Zm0,0"/><path class="cls-3" d="M90,104.22a8.28,8.28,0,0,0-.09,1.23,9.38,9.38,0,0,0,18.76,0,9.9,9.9,0,0,0-.08-1.23h-2a7.12,7.12,0,0,1,.11,1.23,7.45,7.45,0,0,1-14.89,0,7.12,7.12,0,0,1,.11-1.23Zm0,0"/><path class="cls-11" d="M126.2,96.14a9.31,9.31,0,1,0,0,18.61,9.45,9.45,0,0,0,6.64-2.72,9.3,9.3,0,0,0-6.64-15.89Zm0,0"/><path class="cls-14" d="M123.5,97.1a8.35,8.35,0,1,0,0,16.69,8.47,8.47,0,0,0,5.95-2.44A8.34,8.34,0,0,0,123.5,97.1Zm0,0"/><path class="cls-16" d="M123.5,101.43a4,4,0,1,0,4,4,4,4,0,0,0-4-4Zm0,0"/><path class="cls-3" d="M118.65,104.22a5,5,0,1,0,9.86,1.23,4.56,4.56,0,0,0-.16-1.23h-2a3.15,3.15,0,0,1,.26,1.23,3.08,3.08,0,0,1-6.16,0,3.15,3.15,0,0,1,.26-1.23Zm0,0"/><path class="cls-3" d="M114.2,104.22a9.9,9.9,0,0,0-.08,1.23,9.38,9.38,0,0,0,18.76,0,9.9,9.9,0,0,0-.08-1.23h-2a7.12,7.12,0,0,1,.1,1.23,7.44,7.44,0,0,1-14.88,0,8.28,8.28,0,0,1,.1-1.23Zm0,0"/><path class="cls-3" d="M78.78,104.22v18H144v-18H142v16.07H80.72V104.22Zm0,0"/><path class="cls-4" d="M73.78,137.88A11.57,11.57,0,1,0,82,141.27a11.52,11.52,0,0,0-8.19-3.39Zm0,0"/><path class="cls-17" d="M70,138.85a10.61,10.61,0,1,0,10.6,10.6A10.59,10.59,0,0,0,70,138.85Zm0,0"/><path class="cls-16" d="M75.3,149.45A5.33,5.33,0,1,1,70,144.12a5.33,5.33,0,0,1,5.33,5.33Zm0,0"/><path class="cls-3" d="M58.46,148.22c0,.41-.06.81-.06,1.23a11.57,11.57,0,1,0,23.14,0c0-.42,0-.82-.06-1.23h-2a8.29,8.29,0,0,1,.08,1.23,9.63,9.63,0,0,1-19.26,0,9.9,9.9,0,0,1,.08-1.23Zm0,0"/><path class="cls-3" d="M63.79,148.22a7.12,7.12,0,0,0-.12,1.23,6.3,6.3,0,1,0,12.48-1.23h-2a4.16,4.16,0,0,1,.18,1.23,4.36,4.36,0,0,1-8.72,0,4.16,4.16,0,0,1,.18-1.23Zm0,0"/><path class="cls-4" d="M105,137.88a11.57,11.57,0,1,0,11.57,11.57A11.57,11.57,0,0,0,105,137.88Zm0,0"/><path class="cls-17" d="M101.19,138.85a10.61,10.61,0,1,0,10.6,10.6,10.59,10.59,0,0,0-10.6-10.6Zm0,0"/><path class="cls-16" d="M106.52,149.45a5.33,5.33,0,1,1-5.33-5.33,5.33,5.33,0,0,1,5.33,5.33Zm0,0"/><path class="cls-3" d="M110.74,148.22a9.9,9.9,0,0,1,.08,1.23,9.63,9.63,0,0,1-19.26,0,9.92,9.92,0,0,1,.07-1.23H89.68c0,.41-.06.81-.06,1.23a11.57,11.57,0,0,0,23.14,0c0-.42,0-.82-.06-1.23Zm0,0"/><path class="cls-3" d="M105.37,148.22a4.16,4.16,0,0,1,.18,1.23,4.36,4.36,0,0,1-8.72,0,4.51,4.51,0,0,1,.17-1.23H95a6.3,6.3,0,1,0,12.36,0Zm0,0"/><path class="cls-6" d="M136.22,137.88a11.56,11.56,0,1,0,8.18,3.38,11.57,11.57,0,0,0-8.18-3.38Zm0,0"/><path class="cls-17" d="M132.41,138.85a10.6,10.6,0,1,0,10.6,10.6,10.6,10.6,0,0,0-10.6-10.6Zm0,0"/><path class="cls-16" d="M137.74,149.45a5.33,5.33,0,1,1-5.33-5.33,5.33,5.33,0,0,1,5.33,5.33Zm0,0"/><path class="cls-3" d="M120.9,148.22c0,.41-.06.81-.06,1.23a11.57,11.57,0,0,0,23.14,0,10,10,0,0,0-.07-1.23H142a9.9,9.9,0,0,1,.08,1.23,9.64,9.64,0,0,1-19.27,0,9.9,9.9,0,0,1,.08-1.23Zm0,0"/><path class="cls-3" d="M126.23,148.22a6.31,6.31,0,0,0,6.18,7.53,6.32,6.32,0,0,0,6.3-6.3,6.26,6.26,0,0,0-.13-1.23h-2a4.51,4.51,0,0,1,.18,1.23,4.36,4.36,0,0,1-8.72,0,4.51,4.51,0,0,1,.17-1.23Zm0,0"/><path class="cls-3" d="M70,137.88A11.58,11.58,0,0,0,58.4,149.45c0,.41,0,.82.06,1.22h2a9.87,9.87,0,0,1-.08-1.22,9.63,9.63,0,1,1,19.26,0,8.24,8.24,0,0,1-.08,1.22h2c0-.4.06-.81.06-1.22A11.58,11.58,0,0,0,70,137.88Zm0,0"/><path class="cls-3" d="M70,143.15a6.31,6.31,0,0,0-6.3,6.3,6.08,6.08,0,0,0,.12,1.22h2a4.14,4.14,0,0,1-.18-1.22,4.36,4.36,0,0,1,8.72,0,4.14,4.14,0,0,1-.18,1.22h2a6.08,6.08,0,0,0,.12-1.22,6.31,6.31,0,0,0-6.3-6.3Zm0,0"/><path class="cls-3" d="M101.19,137.88a11.58,11.58,0,0,0-11.57,11.57c0,.41,0,.82.06,1.22h2a8.24,8.24,0,0,1-.08-1.22,9.63,9.63,0,1,1,19.26,0,9.87,9.87,0,0,1-.08,1.22h2c0-.4.06-.81.06-1.22a11.58,11.58,0,0,0-11.57-11.57Zm0,0"/><path class="cls-3" d="M101.19,143.15a6.31,6.31,0,0,0-6.3,6.3,6.08,6.08,0,0,0,.12,1.22h2a4.49,4.49,0,0,1-.17-1.22,4.36,4.36,0,0,1,8.72,0,4.14,4.14,0,0,1-.18,1.22h2a6.91,6.91,0,0,0,.12-1.22,6.31,6.31,0,0,0-6.3-6.3Zm0,0"/><path class="cls-3" d="M132.41,137.88a11.58,11.58,0,0,0-11.57,11.57c0,.41,0,.82.06,1.22h1.95a9.87,9.87,0,0,1-.08-1.22,9.64,9.64,0,1,1,19.27,0,9.87,9.87,0,0,1-.08,1.22h1.95a9.87,9.87,0,0,0,.07-1.22,11.58,11.58,0,0,0-11.57-11.57Zm0,0"/><path class="cls-3" d="M132.41,143.15a6.31,6.31,0,0,0-6.3,6.3,6.08,6.08,0,0,0,.12,1.22h2a4.49,4.49,0,0,1-.17-1.22,4.36,4.36,0,0,1,8.72,0,4.5,4.5,0,0,1-.18,1.22h2a6.08,6.08,0,0,0,.13-1.22,6.32,6.32,0,0,0-6.3-6.3Zm0,0"/><path class="cls-3" d="M99.25,100.46a5,5,0,0,0-5,5,4.92,4.92,0,0,0,.16,1.22h2a2.93,2.93,0,0,1-.26-1.22,3.08,3.08,0,0,1,6.15,0,2.93,2.93,0,0,1-.26,1.22h2a4.92,4.92,0,0,0,.16-1.22,5,5,0,0,0-5-5Zm0,0"/><path class="cls-3" d="M99.25,96.13a9.37,9.37,0,0,0-9.38,9.32,8.25,8.25,0,0,0,.09,1.22h2a7,7,0,0,1-.11-1.22,7.45,7.45,0,0,1,14.89,0,7,7,0,0,1-.11,1.22h2a9.87,9.87,0,0,0,.08-1.22,9.36,9.36,0,0,0-9.38-9.32Zm0,0"/><path class="cls-3" d="M123.5,100.46a5,5,0,0,0-5,5,4.92,4.92,0,0,0,.16,1.22h2a3.1,3.1,0,0,1-.26-1.22,3.08,3.08,0,0,1,6.16,0,3.1,3.1,0,0,1-.26,1.22h2a4.49,4.49,0,0,0,.16-1.22,5,5,0,0,0-5-5Zm0,0"/><path class="cls-3" d="M123.5,96.13a9.37,9.37,0,0,0-9.38,9.32,9.87,9.87,0,0,0,.08,1.22h2a8.14,8.14,0,0,1-.1-1.22,7.44,7.44,0,0,1,14.88,0,7,7,0,0,1-.1,1.22h2a9.87,9.87,0,0,0,.08-1.22,9.36,9.36,0,0,0-9.38-9.32Zm0,0"/><path class="cls-3" d="M100.48,59.44v21.8H112.6V79.3H102.41V61.38H112.6V59.44Zm0,0"/><path class="cls-3" d="M74,79.3V90.47H112.6V88.53H76V81.24H112.6V79.3Zm0,0"/><path class="cls-3" d="M78.78,88.66v18h1.94V90.6H142v16.07H144v-18Zm0,0"/><path class="cls-3" d="M13,120.29l-.14.81a60,60,0,0,0-.89,9.64v0c0,18.64,8.71,32.92,22.67,42.4s33.12,14.26,54.23,14.26h1.23v-1.94H88.9c-20.82,0-39.62-4.73-53.14-13.92S14,148.81,13.94,130.77a56.85,56.85,0,0,1,.79-8.53h75.4v-1.94Zm0,0"/><rect class="cls-3" x="142.04" y="57.02" width="38.71" height="4.85"/><rect class="cls-14" x="146.99" y="32.61" width="33.87" height="24.38" transform="translate(327.84 89.6) rotate(-180)"/><rect class="cls-18" x="146.79" y="44.9" width="33.87" height="12.22" transform="translate(327.44 102.02) rotate(-180)"/><rect class="cls-3" x="176.11" y="28.53" width="4.85" height="33.28"/><rect class="cls-3" x="142.04" y="28.53" width="4.85" height="50.78"/><path class="cls-14" d="M45.18,0l-29,0H.22l0,16c0,7,0,14,0,21A29.1,29.1,0,0,0,51.69,18.25,28.91,28.91,0,0,0,45.18,0Z"/><text class="cls-19" transform="translate(15.8 31.7)">19</text></svg>