<?xml version="1.0" encoding="utf-8"?>
<!-- Generator: Adobe Illustrator 26.0.1, SVG Export Plug-In . SVG Version: 6.00 Build 0)  -->
<svg version="1.1" id="Слой_1" xmlns="http://www.w3.org/2000/svg" xmlns:xlink="http://www.w3.org/1999/xlink" x="0px" y="0px"
	 viewBox="0 0 195.6 280.6" style="enable-background:new 0 0 195.6 280.6;" xml:space="preserve">
<style type="text/css">
	.st0{clip-path:url(#SVGID_00000062913888314036355700000004217849231313924019_);fill:#2764AE;}
	.st1{clip-path:url(#SVGID_00000114047721592223407440000012645701181454305198_);}
	.st2{fill-rule:evenodd;clip-rule:evenodd;fill:#288ACB;stroke:#FFFFFF;stroke-width:2.5;}
	.st3{opacity:0.99;fill:#F7E822;enable-background:new    ;}
	.st4{fill-rule:evenodd;clip-rule:evenodd;fill:#F7E822;}
	.st5{clip-path:url(#SVGID_00000078738772463206117090000012454815044842242959_);fill:#515CA6;stroke:#FFFFFF;stroke-width:2;}
	.st6{clip-path:url(#SVGID_00000013159964728973228300000005029714339185387926_);fill:#FFFFFF;}
	.st7{clip-path:url(#SVGID_00000008867004752266002340000013778410635385078964_);fill:#FCC00D;}
	.st8{clip-path:url(#SVGID_00000109747253690263490620000016754706491356205979_);fill:#FFFFFF;}
	.st9{clip-path:url(#SVGID_00000034074863146116584150000000403189735610757776_);fill:#FFFFFF;}
	.st10{clip-path:url(#SVGID_00000156579898121038996870000011939487786873146772_);fill:#FCC00D;}
	.st11{enable-background:new    ;}
	.st12{fill:#288ACB;}
	.st13{fill:#FFFFFF;}
</style>
<g>
	<g>
		<defs>
			<rect id="SVGID_1_" width="195.6" height="280.6"/>
		</defs>
		<clipPath id="SVGID_00000124123156268614023990000015370472541817090721_">
			<use xlink:href="#SVGID_1_"  style="overflow:visible;"/>
		</clipPath>
		
			<rect x="-9.2" y="-8.4" style="clip-path:url(#SVGID_00000124123156268614023990000015370472541817090721_);fill:#2764AE;" width="214" height="297.9"/>
	</g>
	<g>
		<defs>
			<rect id="SVGID_00000157278594834693778600000014449458316882992550_" width="195.6" height="280.6"/>
		</defs>
		<clipPath id="SVGID_00000096769665488169648090000005033203311184993423_">
			<use xlink:href="#SVGID_00000157278594834693778600000014449458316882992550_"  style="overflow:visible;"/>
		</clipPath>
		<g id="g3297" style="clip-path:url(#SVGID_00000096769665488169648090000005033203311184993423_);">
			<path id="path13477" class="st2" d="M150.8,266.6c0.1-27.2,0.3-64.8,0.3-96c0-7.7-4.1-16.1-14.1-16.1h-30.8
				c-5.9,0-7-8.4-8.5-11.1c-1.5,2.8-2.6,11.1-8.5,11.1H58.6c-10,0-14.1,8.4-14.1,16.1c0,31.2,0.2,68.9,0.3,96H150.8z"/>
			<path id="path2187" class="st3" d="M70,192.7l22,13.8l5.7-25.1l5.7,25.2l22.1-13.8l-14,21.8l25.5,5.7l-25.5,5.6l14,21.8l-22-13.8
				l-5.7,25.2l-5.7-25.2L70,247.5l14-21.8L58.5,220l25.5-5.6L70,192.7z"/>
			<path id="path3162" class="st4" d="M139.5,217.4c11-73.4-90.7-76.2-84,0C63.3,161.6,132.3,160.8,139.5,217.4z"/>
		</g>
	</g>
	<g>
		<defs>
			<rect id="SVGID_00000138572893694933953460000007341847713098787226_" width="195.6" height="280.6"/>
		</defs>
		<clipPath id="SVGID_00000046334042399731120390000005996834797905578127_">
			<use xlink:href="#SVGID_00000138572893694933953460000007341847713098787226_"  style="overflow:visible;"/>
		</clipPath>
		
			<path style="clip-path:url(#SVGID_00000046334042399731120390000005996834797905578127_);fill:#515CA6;stroke:#FFFFFF;stroke-width:2;" d="
			M41.7,25.1v29.1c10.5,6.8,10.5,27.3,0,33.5v27c0,23.1,43.3,30.7,43.3,30.7c6.3,0.8,10.2,4.7,12.8,7.3c2.6-2.6,6.3-6.6,13.1-7.3
			c-0.3,0,43-7.6,43-30.7v-27c-10.5-6.3-10.5-26.7,0-33.5V25.1C136.3,8.1,59.3,8.1,41.7,25.1z"/>
	</g>
	<g>
		<defs>
			<rect id="SVGID_00000116945769350354214150000014825409371010596507_" width="195.6" height="280.6"/>
		</defs>
		<clipPath id="SVGID_00000125569760580941297610000001033838364278328232_">
			<use xlink:href="#SVGID_00000116945769350354214150000014825409371010596507_"  style="overflow:visible;"/>
		</clipPath>
		<path style="clip-path:url(#SVGID_00000125569760580941297610000001033838364278328232_);fill:#FFFFFF;" d="M69.8,47.4
			c2.9,10.8,2.9,22.2,0,33c5.5-5.5,14.7-8.4,22-11c-2.6,7.3-5.5,16.5-11,22c10.8-2.9,22.2-2.9,33,0c-5.5-5.5-8.1-14.7-11-22
			c7.3,2.6,16.5,5.5,22,11c-2.6-10.8-2.6-22.2,0-33c-5.5,5.5-14.7,8.1-22,11c2.9-7.3,5.5-16.5,11-22c-10.8,2.6-22.2,2.6-33,0
			c5.5,5.5,8.4,14.7,11,22C84.4,55.5,75.2,52.9,69.8,47.4z"/>
	</g>
	<g>
		<defs>
			<rect id="SVGID_00000005249444397711588160000016019038845152039326_" width="195.6" height="280.6"/>
		</defs>
		<clipPath id="SVGID_00000173154948540834211590000003143791862704983717_">
			<use xlink:href="#SVGID_00000005249444397711588160000016019038845152039326_"  style="overflow:visible;"/>
		</clipPath>
		<path style="clip-path:url(#SVGID_00000173154948540834211590000003143791862704983717_);fill:#FCC00D;" d="M61.9,64.4
			C59,68.6,58.2,75.7,58.2,82c0,22.5,17.3,39.1,39.3,39.1c20.4,0,39.6-17,39.3-39.1c0.5-6.3-1.8-13.1-3.7-17.6
			C133.2,115.6,61.9,115.6,61.9,64.4z"/>
	</g>
	<g>
		<defs>
			<rect id="SVGID_00000093156232514752225330000009074476479901262470_" width="195.6" height="280.6"/>
		</defs>
		<clipPath id="SVGID_00000074415272830987167690000016409184039749857177_">
			<use xlink:href="#SVGID_00000093156232514752225330000009074476479901262470_"  style="overflow:visible;"/>
		</clipPath>
		<path style="clip-path:url(#SVGID_00000074415272830987167690000016409184039749857177_);fill:#FFFFFF;" d="M80,99.6
			c-12.6,0-22.9,10.2-22.9,30.5c0,25.4,18.2,50.9,40.7,50.9s40.7-25.4,40.7-50.9c0-20.3-10.2-30.5-22.9-30.5
			c-6.9,0-13.5,3.1-17.8,8.5C93.5,102.8,86.9,99.6,80,99.6z"/>
	</g>
	<g>
		<defs>
			<rect id="SVGID_00000114752086215708282780000017739638399887372423_" width="195.6" height="280.6"/>
		</defs>
		<clipPath id="SVGID_00000006694347406838403190000011548353547688575151_">
			<use xlink:href="#SVGID_00000114752086215708282780000017739638399887372423_"  style="overflow:visible;"/>
		</clipPath>
		<path style="clip-path:url(#SVGID_00000006694347406838403190000011548353547688575151_);fill:#FFFFFF;" d="M30.4,112.8h134.7
			c3,0,5.5,2.4,5.5,5.5v44c0,3-2.4,5.5-5.5,5.5H30.4c-3,0-5.5-2.4-5.5-5.5v-44C25,115.3,27.4,112.8,30.4,112.8z"/>
	</g>
	<g>
		<defs>
			<rect id="SVGID_00000162332468921694508510000013443003500382974877_" width="195.6" height="280.6"/>
		</defs>
		<clipPath id="SVGID_00000065072969793073571060000009462504110354006938_">
			<use xlink:href="#SVGID_00000162332468921694508510000013443003500382974877_"  style="overflow:visible;"/>
		</clipPath>
	</g>
	<g>
		<defs>
			<rect id="SVGID_00000132778867281223657390000002990104082306557117_" width="195.6" height="280.6"/>
		</defs>
		<clipPath id="SVGID_00000177468240872767703030000015716967677539009934_">
			<use xlink:href="#SVGID_00000132778867281223657390000002990104082306557117_"  style="overflow:visible;"/>
		</clipPath>
	</g>
	<g>
		<defs>
			<rect id="SVGID_00000067947010355327986640000000321516530298369721_" width="195.6" height="280.6"/>
		</defs>
		<clipPath id="SVGID_00000037676186458308703440000005388679501900833922_">
			<use xlink:href="#SVGID_00000067947010355327986640000000321516530298369721_"  style="overflow:visible;"/>
		</clipPath>
		<path style="clip-path:url(#SVGID_00000037676186458308703440000005388679501900833922_);fill:#FCC00D;" d="M150.6-0.2h29h16v16
			c0,7,0,14,0,21c-10.2,12.4-28.6,14.2-41,4S140.4,12.2,150.6-0.2z"/>
	</g>
	<g>
		<defs>
			<rect id="SVGID_00000130641888508220295310000013863513887767614103_" width="195.6" height="280.6"/>
		</defs>
		<clipPath id="SVGID_00000183968397163469883040000009208543033663888016_">
			<use xlink:href="#SVGID_00000130641888508220295310000013863513887767614103_"  style="overflow:visible;"/>
		</clipPath>
	</g>
</g>
<g class="st11">
	<path class="st12" d="M42.2,145.4v14.5h-3.3l0-9.8l-1.3,9.8h-2.3l-1.4-9.5l0,9.5h-3.3v-14.5h4.9c0.1,0.9,0.3,1.9,0.4,3.1l0.5,3.7
		l0.9-6.8H42.2z"/>
	<path class="st12" d="M47.3,145.4v1.9h-3.7v-1.9H47.3z M47.3,148v11.9h-3.7V148H47.3z"/>
	<path class="st12" d="M52.3,148l-0.1,1.1c0.3-0.4,0.6-0.8,1-1s0.8-0.3,1.3-0.3c0.6,0,1.1,0.1,1.5,0.4s0.6,0.7,0.8,1.1
		s0.2,1.2,0.2,2.2v8.3h-3.6v-8.2c0-0.8,0-1.3-0.1-1.5s-0.2-0.3-0.4-0.3c-0.3,0-0.4,0.1-0.5,0.3c-0.1,0.2-0.1,0.8-0.1,1.6v8h-3.6V148
		H52.3z M55.4,144.8l-2.9,2.4h-1.8l1.6-2.4H55.4z"/>
	<path class="st12" d="M65.6,151.8h-3.2v-0.6c0-0.5,0-0.9-0.1-1c-0.1-0.1-0.2-0.2-0.5-0.2c-0.2,0-0.4,0.1-0.5,0.2
		c-0.1,0.1-0.2,0.3-0.2,0.6c0,0.4,0,0.6,0.1,0.8s0.2,0.4,0.5,0.6c0.3,0.2,0.8,0.5,1.6,0.9c1,0.5,1.7,1,2.1,1.4
		c0.3,0.5,0.5,1.1,0.5,2c0,1-0.1,1.7-0.4,2.2c-0.3,0.5-0.7,0.9-1.3,1.1c-0.6,0.3-1.3,0.4-2.1,0.4c-0.9,0-1.7-0.1-2.4-0.4
		c-0.7-0.3-1.1-0.7-1.3-1.2c-0.2-0.5-0.4-1.2-0.4-2.2v-0.6h3.2v0.8c0,0.6,0,1.1,0.1,1.2c0.1,0.2,0.2,0.3,0.5,0.3
		c0.3,0,0.4-0.1,0.5-0.2c0.1-0.1,0.2-0.4,0.2-0.8c0-0.6-0.1-0.9-0.2-1.1c-0.1-0.1-0.8-0.6-2.1-1.3c-1.1-0.6-1.7-1.1-1.9-1.6
		c-0.2-0.5-0.3-1.1-0.3-1.7c0-0.9,0.1-1.6,0.4-2.1c0.3-0.5,0.7-0.8,1.3-1s1.3-0.4,2.1-0.4c0.8,0,1.5,0.1,2,0.3
		c0.6,0.2,1,0.5,1.3,0.8c0.3,0.3,0.5,0.6,0.5,0.9c0.1,0.3,0.1,0.7,0.1,1.3V151.8z"/>
	<path class="st12" d="M74.6,148l-1.5,4.7l1.9,7.1h-3.5l-1.1-5.2l0,5.2h-3.6v-14.5h3.6l0,6.1l1.1-3.5H74.6z"/>
	<path class="st12" d="M90.5,145.4v14.5h-3.3l0-9.8l-1.3,9.8h-2.3l-1.4-9.5l0,9.5h-3.3v-14.5h4.9c0.1,0.9,0.3,1.9,0.4,3.1l0.5,3.7
		l0.9-6.8H90.5z"/>
	<path class="st12" d="M95.2,152.6h-3.4v-0.8c0-0.9,0.1-1.6,0.3-2.1c0.2-0.5,0.6-0.9,1.3-1.3c0.6-0.4,1.5-0.6,2.5-0.6
		c1.2,0,2.1,0.2,2.8,0.6c0.6,0.4,1,1,1.1,1.6c0.1,0.6,0.2,1.9,0.2,3.9v6h-3.5v-1.1c-0.2,0.4-0.5,0.7-0.9,1s-0.8,0.3-1.2,0.3
		c-0.6,0-1.2-0.2-1.7-0.5s-0.8-1.1-0.8-2.3v-1c0-0.9,0.1-1.5,0.4-1.8c0.3-0.3,1-0.7,2.1-1.1c1.2-0.5,1.8-0.8,1.9-0.9
		c0.1-0.2,0.1-0.5,0.1-1c0-0.6,0-1-0.1-1.2c-0.1-0.2-0.2-0.3-0.5-0.3c-0.2,0-0.4,0.1-0.5,0.2c-0.1,0.2-0.1,0.6-0.1,1.2V152.6z
		 M96.3,154.2c-0.6,0.4-0.9,0.8-1,1.1s-0.1,0.7-0.1,1.2c0,0.6,0,1,0.1,1.2c0.1,0.2,0.2,0.3,0.5,0.3c0.2,0,0.4-0.1,0.4-0.2
		c0.1-0.1,0.1-0.5,0.1-1.1V154.2z"/>
	<path class="st12" d="M106.8,148v2.6l-2.7,6.9h2.7v2.4h-6.2v-2.5l2.7-7h-2.4V148H106.8z"/>
	<path class="st12" d="M115.8,152.2v2.9c0,1.1-0.1,1.8-0.2,2.3c-0.1,0.5-0.3,1-0.7,1.4c-0.4,0.4-0.8,0.8-1.4,1
		c-0.6,0.2-1.2,0.3-1.9,0.3c-0.8,0-1.5-0.1-2-0.3c-0.6-0.2-1-0.4-1.3-0.8c-0.3-0.4-0.5-0.8-0.7-1.3c-0.1-0.5-0.2-1.3-0.2-2.3v-3
		c0-1.1,0.1-2,0.4-2.6c0.2-0.6,0.7-1.1,1.3-1.5c0.6-0.4,1.4-0.6,2.4-0.6c0.8,0,1.5,0.1,2.1,0.4c0.6,0.2,1,0.6,1.3,0.9
		c0.3,0.4,0.5,0.8,0.6,1.2S115.8,151.3,115.8,152.2z M112.1,151.3c0-0.6,0-1-0.1-1.1c-0.1-0.2-0.2-0.2-0.4-0.2s-0.4,0.1-0.4,0.2
		c-0.1,0.2-0.1,0.5-0.1,1.1v5.4c0,0.6,0,0.9,0.1,1.1c0.1,0.2,0.2,0.3,0.4,0.3c0.2,0,0.4-0.1,0.4-0.2c0.1-0.2,0.1-0.5,0.1-1V151.3z"
		/>
	<path class="st12" d="M128.6,148l-1.4,11.9h-3.9c-0.2-1.4-0.5-3.4-0.7-5.7c-0.1,1-0.2,2.1-0.4,3.2l-0.4,2.6h-3.9l-1.5-11.9h3.1
		c0,0.3,0.3,2.6,0.8,6.8c0-0.4,0.3-2.7,0.8-6.8h3l0.7,6.8c0.1-2,0.4-4.2,0.8-6.8H128.6z"/>
	<path class="st12" d="M132.9,145.4v1.9h-3.7v-1.9H132.9z M132.9,148v11.9h-3.7V148H132.9z"/>
	<path class="st12" d="M142.4,154.1h-4.7v2.6c0,0.5,0,0.9,0.1,1c0.1,0.2,0.2,0.2,0.4,0.2c0.3,0,0.5-0.1,0.5-0.3
		c0.1-0.2,0.1-0.6,0.1-1.2v-1.6h3.4v0.9c0,0.7,0,1.3-0.1,1.7c-0.1,0.4-0.3,0.8-0.6,1.3c-0.3,0.4-0.8,0.8-1.3,1
		c-0.5,0.2-1.2,0.3-2,0.3c-0.8,0-1.4-0.1-2-0.3s-1-0.5-1.4-0.9c-0.3-0.4-0.5-0.8-0.7-1.3s-0.2-1.1-0.2-2v-3.5c0-1,0.1-1.9,0.4-2.5
		c0.3-0.6,0.7-1.1,1.4-1.4c0.6-0.3,1.4-0.5,2.2-0.5c1,0,1.8,0.2,2.5,0.6c0.7,0.4,1.1,0.9,1.4,1.5c0.3,0.6,0.4,1.5,0.4,2.7V154.1z
		 M138.8,152.2v-0.9c0-0.6,0-1-0.1-1.2s-0.2-0.3-0.4-0.3c-0.3,0-0.4,0.1-0.5,0.2c-0.1,0.2-0.1,0.6-0.1,1.2v0.9H138.8z"/>
	<path class="st12" d="M151.6,152.5h-3.4v-1.4c0-0.5,0-0.8-0.1-1c-0.1-0.2-0.2-0.3-0.4-0.3c-0.2,0-0.3,0.1-0.4,0.2
		c-0.1,0.1-0.1,0.5-0.1,1v5.6c0,0.4,0.1,0.7,0.2,1c0.1,0.2,0.3,0.3,0.5,0.3c0.2,0,0.4-0.1,0.5-0.3c0.1-0.2,0.1-0.6,0.1-1.3V155h3.2
		c0,0.9,0,1.7-0.1,2.1s-0.3,1-0.6,1.5c-0.3,0.5-0.8,0.9-1.3,1.1c-0.5,0.3-1.2,0.4-2,0.4c-1,0-1.8-0.2-2.4-0.5
		c-0.6-0.3-1-0.8-1.3-1.5s-0.4-1.5-0.4-2.7V152c0-1,0.1-1.8,0.3-2.3c0.2-0.5,0.6-1,1.3-1.4c0.7-0.4,1.5-0.6,2.4-0.6
		c0.9,0,1.7,0.2,2.4,0.6c0.7,0.4,1.1,0.9,1.3,1.5C151.5,150.5,151.6,151.4,151.6,152.5z"/>
	<path class="st12" d="M160.4,148l-1.5,4.7l1.9,7.1h-3.5l-1.1-5.2l0,5.2h-3.6v-14.5h3.6l0,6.1l1.1-3.5H160.4z"/>
	<path class="st12" d="M165.1,145.4v1.9h-3.7v-1.9H165.1z M165.1,148v11.9h-3.7V148H165.1z"/>
</g>
<g class="st11">
	<path class="st12" d="M87.2,129.8c0,2,0,3.4-0.1,4.2c-0.1,0.8-0.4,1.6-0.9,2.2c-0.5,0.7-1.1,1.2-2,1.6c-0.8,0.4-1.8,0.5-2.9,0.5
		c-1,0-2-0.2-2.8-0.5s-1.5-0.9-2-1.5c-0.5-0.7-0.8-1.4-0.9-2.2c-0.1-0.8-0.1-2.2-0.1-4.2v-3.4c0-2,0-3.4,0.1-4.2s0.4-1.6,0.9-2.2
		c0.5-0.7,1.1-1.2,2-1.6c0.8-0.4,1.8-0.5,2.9-0.5c1,0,2,0.2,2.8,0.5s1.5,0.9,2,1.5c0.5,0.7,0.8,1.4,0.9,2.2c0.1,0.8,0.1,2.2,0.1,4.2
		V129.8z M82.1,123.4c0-0.9-0.1-1.5-0.2-1.7c-0.1-0.3-0.3-0.4-0.6-0.4c-0.3,0-0.5,0.1-0.6,0.3c-0.1,0.2-0.2,0.8-0.2,1.8v9.1
		c0,1.1,0,1.8,0.1,2.1c0.1,0.3,0.3,0.4,0.6,0.4c0.3,0,0.6-0.2,0.7-0.5s0.1-1,0.1-2.2V123.4z"/>
	<path class="st12" d="M93.8,121.9l-0.2,2.1c0.7-1.5,1.7-2.3,3.1-2.4v5.6c-0.9,0-1.6,0.1-2,0.4c-0.4,0.2-0.7,0.6-0.8,1
		c-0.1,0.4-0.1,1.4-0.1,3v6.3h-4.9v-16H93.8z"/>
	<path class="st12" d="M107.8,127h-4.3v-0.9c0-0.7,0-1.2-0.1-1.4s-0.3-0.3-0.6-0.3c-0.3,0-0.5,0.1-0.6,0.3s-0.2,0.5-0.2,0.8
		c0,0.5,0,0.9,0.1,1.1c0.1,0.2,0.3,0.5,0.6,0.8c0.3,0.3,1,0.7,2.1,1.2c1.4,0.7,2.4,1.3,2.8,2c0.4,0.6,0.7,1.5,0.7,2.7
		c0,1.3-0.2,2.3-0.5,3c-0.3,0.7-0.9,1.2-1.7,1.5c-0.8,0.4-1.8,0.5-2.9,0.5c-1.2,0-2.3-0.2-3.2-0.6c-0.9-0.4-1.5-0.9-1.8-1.6
		s-0.5-1.7-0.5-3v-0.8h4.3v1c0,0.9,0.1,1.4,0.2,1.7c0.1,0.3,0.3,0.4,0.6,0.4c0.3,0,0.6-0.1,0.7-0.3c0.1-0.2,0.2-0.5,0.2-1.1
		c0-0.8-0.1-1.2-0.3-1.4c-0.2-0.2-1.1-0.8-2.8-1.7c-1.4-0.8-2.3-1.5-2.6-2.2s-0.5-1.4-0.5-2.3c0-1.3,0.2-2.2,0.5-2.8
		c0.3-0.6,0.9-1.1,1.7-1.4c0.8-0.3,1.8-0.5,2.8-0.5c1.1,0,2,0.1,2.7,0.4c0.7,0.3,1.3,0.6,1.7,1.1c0.4,0.4,0.6,0.9,0.7,1.2
		s0.1,1,0.1,1.8V127z M102.8,119l1.3-1.6h3.3l-2.9,3.4h-3.4l-3.1-3.4h3.4L102.8,119z"/>
	<path class="st12" d="M113.8,128.1h-4.6V127c0-1.2,0.1-2.2,0.4-2.9c0.3-0.7,0.9-1.3,1.7-1.8c0.9-0.5,2-0.8,3.4-0.8
		c1.7,0,2.9,0.3,3.7,0.9c0.8,0.6,1.3,1.3,1.5,2.2c0.2,0.9,0.3,2.6,0.3,5.3v8.1h-4.8v-1.4c-0.3,0.6-0.7,1-1.2,1.3
		c-0.5,0.3-1,0.4-1.7,0.4c-0.9,0-1.6-0.2-2.4-0.7c-0.7-0.5-1.1-1.5-1.1-3.2V133c0-1.2,0.2-2,0.6-2.5c0.4-0.4,1.3-0.9,2.8-1.5
		c1.6-0.6,2.5-1.1,2.6-1.3s0.2-0.7,0.2-1.3c0-0.8-0.1-1.4-0.2-1.6c-0.1-0.3-0.3-0.4-0.6-0.4c-0.3,0-0.5,0.1-0.6,0.3
		c-0.1,0.2-0.1,0.8-0.1,1.7V128.1z M115.4,130.3c-0.8,0.6-1.2,1.1-1.4,1.4s-0.2,0.9-0.2,1.7c0,0.8,0.1,1.4,0.2,1.6
		c0.1,0.2,0.3,0.4,0.6,0.4c0.3,0,0.5-0.1,0.6-0.3s0.1-0.7,0.1-1.5V130.3z"/>
</g>
<g class="st11">
	<path class="st13" d="M167.8,22.6c0.6,0.2,1,0.5,1.3,1c0.3,0.5,0.4,1.5,0.4,3.2c0,1.3-0.1,2.2-0.4,2.9c-0.3,0.7-0.8,1.2-1.5,1.6
		s-1.6,0.5-2.7,0.5c-1.2,0-2.2-0.2-2.9-0.6s-1.2-0.9-1.4-1.5s-0.3-1.7-0.3-3.2v-1.2h3.9v2.6c0,0.7,0,1.1,0.1,1.3
		c0.1,0.2,0.3,0.3,0.5,0.3c0.3,0,0.5-0.1,0.6-0.4s0.1-0.8,0.1-1.8v-1.1c0-0.6-0.1-1-0.2-1.3s-0.3-0.5-0.6-0.6
		c-0.3-0.1-0.8-0.1-1.6-0.2v-2.3c0.9,0,1.5,0,1.7-0.1c0.2-0.1,0.4-0.2,0.5-0.5s0.1-0.6,0.1-1.1v-0.9c0-0.6-0.1-0.9-0.2-1.1
		c-0.1-0.2-0.3-0.3-0.5-0.3c-0.3,0-0.5,0.1-0.6,0.3c-0.1,0.2-0.2,0.6-0.2,1.2v1.3h-3.9v-1.3c0-1.5,0.3-2.5,1-3.1
		c0.7-0.5,1.8-0.8,3.3-0.8c1.9,0,3.2,0.4,3.8,1.1c0.7,0.7,1,1.8,1,3.1c0,0.9-0.1,1.5-0.4,1.9C168.8,21.9,168.4,22.3,167.8,22.6z"/>
	<path class="st13" d="M179.5,28.9v2.7h-8.7l0-2.3c2.6-4.2,4.1-6.8,4.6-7.8c0.5-1,0.7-1.8,0.7-2.3c0-0.4-0.1-0.8-0.2-1
		s-0.4-0.3-0.7-0.3s-0.5,0.1-0.7,0.4s-0.2,0.7-0.2,1.4v1.5h-3.5v-0.6c0-0.9,0-1.6,0.1-2.1c0.1-0.5,0.3-1,0.7-1.5
		c0.4-0.5,0.8-0.9,1.4-1.1c0.6-0.3,1.3-0.4,2.1-0.4c1.6,0,2.8,0.4,3.6,1.2c0.8,0.8,1.2,1.8,1.2,3c0,0.9-0.2,1.9-0.7,2.9
		c-0.5,1-1.8,3.2-4,6.4H179.5z"/>
</g>
</svg>
