<?xml version="1.0" encoding="utf-8"?>
<!-- Generator: Adobe Illustrator 26.0.1, SVG Export Plug-In . SVG Version: 6.00 Build 0)  -->
<svg version="1.1" id="Слой_1" xmlns="http://www.w3.org/2000/svg" xmlns:xlink="http://www.w3.org/1999/xlink" x="0px" y="0px"
	 viewBox="0 0 195.6 280.6" style="enable-background:new 0 0 195.6 280.6;" xml:space="preserve">
<style type="text/css">
	.st0{clip-path:url(#SVGID_00000096775033585824989510000002689696723832021421_);fill:#E94539;}
	.st1{clip-path:url(#SVGID_00000043421695817320494860000009665302965245587117_);fill:#FFFFFF;}
	.st2{clip-path:url(#SVGID_00000071530427071761988520000011084227471204351400_);}
	.st3{fill:#FFFFFF;}
	.st4{fill:#0F66B0;}
	.st5{fill:#F08224;}
	.st6{fill-rule:evenodd;clip-rule:evenodd;fill:#1166B0;}
	.st7{fill-rule:evenodd;clip-rule:evenodd;fill:#424242;}
	.st8{fill:none;stroke:#424242;}
	.st9{fill:none;stroke:#424242;stroke-width:1.03;}
	.st10{fill:none;stroke:#424242;stroke-width:0.88;}
	.st11{fill:#424242;}
	.st12{clip-path:url(#SVGID_00000016039439789767108400000002216699965255505595_);fill:#E00814;}
	
		.st13{clip-path:url(#SVGID_00000121970997585581645660000007791298039728864153_);fill:#FFFFFF;stroke:#333333;stroke-width:1.06;stroke-linecap:round;stroke-linejoin:round;}
	
		.st14{clip-path:url(#SVGID_00000035518934963975744140000014815574700334383537_);fill:none;stroke:#424242;stroke-width:1.87;stroke-miterlimit:5.63;}
	
		.st15{clip-path:url(#SVGID_00000164483852222996390360000011078968068274253708_);fill-rule:evenodd;clip-rule:evenodd;fill:#FFE407;}
	
		.st16{clip-path:url(#SVGID_00000090271154819702378610000017646836203526923421_);fill:none;stroke:#424242;stroke-miterlimit:5.63;}
	
		.st17{clip-path:url(#SVGID_00000152984898981938142990000013614706514306971799_);fill-rule:evenodd;clip-rule:evenodd;fill:#FFE407;}
	
		.st18{clip-path:url(#SVGID_00000090257142406804895580000001007577002817836978_);fill:none;stroke:#424242;stroke-width:1.87;stroke-miterlimit:5.63;}
	
		.st19{clip-path:url(#SVGID_00000067920925251727334860000013917729010146835614_);fill-rule:evenodd;clip-rule:evenodd;fill:#FEE308;}
	.st20{clip-path:url(#SVGID_00000042739140880482448810000002734686777454075265_);fill:none;stroke:#424242;stroke-width:1.4;}
	
		.st21{clip-path:url(#SVGID_00000024720259116785616790000017304106390157825967_);fill-rule:evenodd;clip-rule:evenodd;fill:#FEE308;}
	.st22{clip-path:url(#SVGID_00000044871742135774216330000012293634576545491627_);fill:none;stroke:#424242;stroke-width:1.4;}
	
		.st23{clip-path:url(#SVGID_00000006695093528171855760000017615016534729605278_);fill-rule:evenodd;clip-rule:evenodd;fill:#FEE308;}
	
		.st24{clip-path:url(#SVGID_00000059989171367468587550000016610309001439523768_);fill-rule:evenodd;clip-rule:evenodd;fill:#FFE209;stroke:#424242;stroke-width:0.75;stroke-miterlimit:5.63;}
	
		.st25{clip-path:url(#SVGID_00000172440415759222003020000005737983099891410610_);fill:none;stroke:#424242;stroke-width:1.26;stroke-linecap:round;stroke-linejoin:round;}
	
		.st26{clip-path:url(#SVGID_00000154384401947818078440000000381880075268986043_);fill:none;stroke:#424242;stroke-width:1.26;stroke-linecap:round;stroke-linejoin:round;}
	
		.st27{clip-path:url(#SVGID_00000162345486412494712360000016565544207455704750_);fill:none;stroke:#424242;stroke-width:0.75;stroke-miterlimit:5.63;}
	
		.st28{clip-path:url(#SVGID_00000139290553245814308820000011513049515578871472_);fill-rule:evenodd;clip-rule:evenodd;fill:#FFE209;stroke:#424242;stroke-width:0.75;stroke-miterlimit:5.63;}
	
		.st29{clip-path:url(#SVGID_00000105394503803656909190000016598790662343851672_);fill:none;stroke:#424242;stroke-width:0.75;stroke-miterlimit:5.63;}
	
		.st30{clip-path:url(#SVGID_00000138550742421567507880000003172445451602239676_);fill:none;stroke:#424242;stroke-width:0.75;stroke-miterlimit:5.63;}
	
		.st31{clip-path:url(#SVGID_00000170979411062209618190000012539311141412722866_);fill:none;stroke:#424242;stroke-width:0.75;stroke-miterlimit:5.63;}
	
		.st32{clip-path:url(#SVGID_00000180357283455573047270000003898633402664500896_);fill:none;stroke:#424242;stroke-width:0.72;stroke-linecap:round;stroke-linejoin:round;}
	
		.st33{clip-path:url(#SVGID_00000041293422213885774000000010778696675052457869_);fill:none;stroke:#424242;stroke-width:0.72;stroke-linecap:round;stroke-linejoin:round;}
	
		.st34{clip-path:url(#SVGID_00000077319129494185946440000006451094212932414856_);fill:none;stroke:#424242;stroke-width:0.72;stroke-linecap:round;stroke-linejoin:round;}
	.st35{clip-path:url(#SVGID_00000006701529351628018690000010510100542685721742_);fill:#FFFFFF;}
	.st36{clip-path:url(#SVGID_00000129921861260598279840000016453112483558289312_);fill:#FFFFFF;}
	.st37{clip-path:url(#SVGID_00000013188775638502371280000010600616959100181431_);fill:#FFFFFF;}
	.st38{enable-background:new    ;}
	.st39{fill:#E00814;}
</style>
<g>
	<g>
		<defs>
			<rect id="SVGID_1_" width="195.6" height="280.6"/>
		</defs>
		<clipPath id="SVGID_00000026860036840754296600000011107321949992060856_">
			<use xlink:href="#SVGID_1_"  style="overflow:visible;"/>
		</clipPath>
		
			<rect x="-9.2" y="-8.4" style="clip-path:url(#SVGID_00000026860036840754296600000011107321949992060856_);fill:#E94539;" width="214" height="297.9"/>
	</g>
	<g>
		<defs>
			<rect id="SVGID_00000182492095747526309950000007458118748698526647_" width="195.6" height="280.6"/>
		</defs>
		<clipPath id="SVGID_00000083794304728505122580000002112519965565904008_">
			<use xlink:href="#SVGID_00000182492095747526309950000007458118748698526647_"  style="overflow:visible;"/>
		</clipPath>
		<path style="clip-path:url(#SVGID_00000083794304728505122580000002112519965565904008_);fill:#FFFFFF;" d="M148.6,73.8
			c-3.4-3.8-4.8-7.2-4.8-11.4s1.2-7,4.5-10.6l2.4-2.6V35.4c0-10.5-0.2-14-0.7-14.4c-0.9-0.7-8.6-3.6-15.3-5.8
			c-12.4-4-23.2-5.2-41.8-4.8c-17.4,0.4-25.3,1.9-41.1,7.9l-7,2.7v28.2l2.1,2.3c6.3,6.8,6.3,14.4-0.1,22.1l-2.2,2.6L45,86.5
			c0.3,11.5,1.2,16.1,4.2,21.7c3.3,6.2,8.6,9.8,23.1,15.6c9,3.6,16.2,7.4,21.5,11.2l3.9,2.8l4.9-3.4c5.8-4,11.9-7.1,21.4-10.9
			c20.3-8.2,25.2-13.5,26.5-32.5c0-0.3,0-0.6,0.1-0.9c0.1-1.3,0.1-2.6,0.2-4l0.3-9.8L148.6,73.8z"/>
	</g>
	<g>
		<defs>
			<rect id="SVGID_00000046329331964484337170000014033768234384796072_" width="195.6" height="280.6"/>
		</defs>
		<clipPath id="SVGID_00000063625626730260102550000005673184466980452492_">
			<use xlink:href="#SVGID_00000046329331964484337170000014033768234384796072_"  style="overflow:visible;"/>
		</clipPath>
		<g id="g2500" style="clip-path:url(#SVGID_00000063625626730260102550000005673184466980452492_);">
			<path id="path2567" class="st3" d="M87.9,78.9C87.3,77,86.8,75,86.5,73c-0.5-3.4-0.6-6.8-0.3-10.1c0.2-2.3,0.7-4.5,1.3-6.8
				c0.9-2.6,2.3-5,4-7.1l0.3-0.4L93,49l1.8,0.4l0.7,0.2l-0.1,1.6c-0.5,5.6-1.6,11.2-3.2,16.6c-0.8,2.8-1.7,5.6-2.8,8.4
				C88.2,78.7,88,79.1,87.9,78.9z"/>
			<path id="path3333" class="st4" d="M47.5,74.1c6.4-7.6,6.5-15.6,0.4-22.8l-2.4-2.9L45.6,35l0.1-13.4l5.6-2.1
				c18.2-6.8,30.1-8.8,50.3-8.2c16.9,0.5,24.4,1.8,39.2,7.1l8.3,2.9l0.3,4.4c0.2,2.4,0.3,8.5,0.3,13.6v9.2l-2.6,3.3
				c-3.4,4.4-3.8,5.1-4.2,9.1c-0.4,4.6,0.8,8.3,4.3,12.8l2.8,3.6l-0.4,8.7c1.9,5.3-0.4,9-1.6,13.6c-1.4-0.3-2.9-0.1-4.2,0.3
				c-2,0.6-4.1,0.4-6.1,0.9s-5.8-1.4-6.5-1.7c-2.4,0-58.5,0.3-65.1,0.3c-0.9,0-1.8,0.1-2.6,0.4c-2,0.7-4.3,2.1-5.7,1.7
				c-1.9-0.5-3.8-1.3-5.8-2c-1.5-0.5-2.9,0.9-4.5,0.8C46.9,93.3,41.9,80.8,47.5,74.1z"/>
			<path id="path2559" class="st3" d="M75,79.7L74,78l-1-1.5c4.2-5.7,5.3-12.1,6.8-18.7c0,0,2.2,0.7,2.3,0.8s-0.2,0.8-0.4,1.7
				s-0.7,2.7-1,3.9c-1.5,7-2.3,9.8-4.6,14.6c-0.2,0.5-0.5,1-0.8,1.5C75.2,80.1,75.1,79.9,75,79.7L75,79.7z"/>
			<path id="path2557" class="st3" d="M76.3,80.8l-0.8-0.5l0.4-1c2.4-5.3,3.5-8.8,5-16.5c0.4-1.8,0.7-3.5,0.8-3.7
				c0.1-0.4,0.1,8,0,14.7v5.1l-0.6,0.2c-1.2,0.4-2.4,1-3.4,1.8l-0.6,0.5L76.3,80.8z"/>
			<path id="path2551" class="st3" d="M88.2,79.8c0-0.2,0.7-1.8,1.3-3.3c3.4-8.9,5-19.1,6.4-27.2c0.2,0,1.7,0.2,1.7,0.4
				c0.1,0.5-0.1,0.2-0.2,4.2c-0.1,3.6-0.5,7.2-1.2,10.7c-0.5,2.2-2.3,9.3-3.2,12.2c-1,3.4-2.9,8.3-3.2,8.3
				C89.2,83.4,88.9,81.4,88.2,79.8z"/>
			<path id="path2563" class="st3" d="M90.8,83.1c2.5-6.5,4.5-13.1,6-19.9c0.6-3.4,0.9-6.8,1-10.3c0-1.6,0-3.2,0-3.2
				s0.5-0.2,0.7,0.2c0.1,0.2,0,0.6,0,1c0.1,2.6-0.1,8.3-0.1,13.8L98.2,80c-2.8,0.4-5.3,1.7-7.2,3.8C91,83.5,90.9,83.5,90.8,83.1z"/>
			<path id="path2549" class="st3" d="M108,80.9c-1.8-0.6-3.8-1-5.7-1h-1.7v-9.8c0-9.2,0-9.7,0.3-8.3c1.3,6,3,11.6,5.2,14.9
				c0.5,0.8,2.6,3.4,3.1,4.4C109.5,81.4,108.9,81.2,108,80.9L108,80.9z"/>
			<path id="path2498" class="st3" d="M150.8,49.3l-2.4,2.6c-3.3,3.5-4.5,6.3-4.5,10.6s1.4,7.6,4.8,11.4l2.3,2.6l-0.3,9.8
				c-0.8,23.1-4.7,28.6-26.7,37.5c-9.5,3.8-15.6,7-21.4,10.9l-4.9,3.4l-3.9-2.8c-5.3-3.8-12.5-7.6-21.5-11.2
				c-14.5-5.8-19.8-9.5-23.1-15.6c-3-5.6-3.9-10.2-4.2-21.7l-0.3-10.2l2.2-2.6c6.4-7.6,6.4-15.2,0.1-22.1l-2.2-2.3V21l7-2.7
				c15.8-6,23.7-7.5,41.1-7.9c18.6-0.4,29.4,0.8,41.8,4.8c6.7,2.2,14.4,5.1,15.3,5.8c0.5,0.4,0.7,3.9,0.7,14.4 M101.9,134.1
				c5-3.6,11.4-6.9,20.9-10.7c11-4.5,15.5-7,19.1-10.5c5.6-5.6,7.5-11.8,8.1-26.8l0.4-9.1l-2.5-3c-3-3.7-3.8-5.2-4.5-8.7
				c-0.6-3.3-0.2-6.6,1.2-9.6c0.9-1.5,2-2.9,3.2-4.2l2.4-2.7v-8.7c0-4.8-0.2-11-0.4-13.7l-0.3-5l-6.1-2.4
				c-14.3-5.5-23.7-7.4-39.7-7.9c-21.8-0.7-34.5,1.3-52.8,8.4l-5.5,2.1V49l2.2,2.3c6.4,6.7,6.3,15.6-0.1,22.6l-2.2,2.4l0.3,10
				c0.5,14.3,2.3,20.5,7.7,26.3c3.3,3.6,7.8,6.1,18.7,10.5c10.4,4.2,16,7.1,21.6,11.1c1.3,1,2.7,1.9,4.1,2.7
				C99.1,136.1,100.6,135.2,101.9,134.1L101.9,134.1z"/>
			<path id="path2547" class="st3" d="M103.6,71.2c-1-2.9-1.8-5.9-2.4-8.9c-0.5-2.3-0.4-3.3-0.5-7.3c-0.1-4.5-0.4-4.2,0-4.3
				s0.4,0,1.3-0.1c0.3,1.4,1,6.6,1.5,8.4c0.8,3.1,0.9,3.4,0.7,4.5c-0.4,2.6-0.2,5.2,0.4,7.7c0.3,1.4,2.2,6.5,1.6,4.9L103.6,71.2z"/>
			<path id="path2555" class="st3" d="M84.2,68.2c0-5.9,0-10.7,0-10.7s2.4,0.4,2.4,0.5c0,0.5-0.1,0.9-0.2,1.3
				c-0.9,4.5-1,9.1-0.2,13.5c0.4,2,0.9,4,1.6,5.9c0,0.1-0.4,0.1-1.8,0.1h-1.9L84.2,68.2z"/>
			<path id="path2496" class="st3" d="M92.9,10.9C78.4,11,64,14,50.6,19.5l-5.3,2V49c4.3,4,8,9.6,6.8,15.7c-0.6,4.7-3.8,8.4-7,11.6
				c0.3,7.6,0.2,15.3,1.5,22.8c0,0.1,0.3,1.6,0.4,1.7c0.5-0.2,1-0.4,1.5-0.6c1.9-0.8,1.8-0.7,4.7-0.5c1.9,0.7,3.4,2,5.7,1.8l0,0
				c1-0.3,2-0.7,2.9-1.2s1.8-0.7,2.8-0.8l0,0c1.1-0.1,2.3,0.1,3.3,0.5l0.2-0.5c-1.1-0.4-2.3-0.6-3.5-0.6c-1.1,0-2.1,0.3-3,0.8
				c-0.8,0.5-1.7,0.8-2.6,1.1c-2.1,0.1-3.5-1.1-5.5-1.8h-0.1c-1.9-0.2-3.8,0.1-5.5,0.8c-1.7-7.5-1.6-16-1.8-23.6
				c3.5-3.7,6.8-7.9,6.8-13.1c0.6-5.7-2.9-10.7-6.7-14.5c0-8.8-0.2-17.2,0-26.5c32.7-15.9,76.3-12.8,102.6-0.3
				c0.6,8.7,0.8,18,0.7,26.7c-6.2,7-6.7,9.6-6.8,14.3s1.7,7.4,7.1,14.5c-0.2,7.7-0.2,15.8-1.7,22.1c-0.4-0.1-1.8-0.2-2.2-0.2
				c-2.2,0.2-4.5,0.6-6.6,1c-2.2,0.5-4.5,0.2-6.6-0.8l-0.3-0.2c-0.2-0.1-0.5-0.2-1-0.4l-0.2,0.5c0.5,0.2,0.8,0.3,1,0.3
				c0.1,0,0.2,0.1,0.3,0.1c2.1,1.1,4.6,1.4,6.9,0.9c2.2-0.5,4.4-0.8,6.6-1c0.9,0,1.8,0.1,2.7,0.4c0.6-3,1-6.1,1.2-9.2
				c0.3-4.6,0.4-9.3,0.6-13.9c-3.4-4.1-7.3-8.4-7.2-14.1c-0.4-4.9,3.2-10.2,5.7-12.5c1.1-1.2,1.6-2.8,1.4-4.4
				c0-8.2-0.1-16.5-0.8-24.7c-11.8-4.8-24-9-36.8-9.8c-5.6-0.5-11.2-0.6-16.8-0.6C94.9,10.9,93.9,10.8,92.9,10.9z"/>
			<path id="path2535" class="st3" d="M117.2,60.3c-3.3-1.3-5-2.2-6-3.3c-0.5-0.5-1-1.2-0.8-1.2l3.2,0.9c1.8,0.5,3.4,0.9,3.6,1
				l0.4,0.1v1.3c0.1,0.4,0.1,0.9,0,1.3C117.5,60.4,117.4,60.4,117.2,60.3L117.2,60.3z"/>
			<path id="path2533" class="st3" d="M88,78.2c-0.1-0.2-0.2-0.7-0.3-1c-0.8-2.6-1.2-5.4-1.4-8.1c-0.1-1-0.1-4.2,0-5.2
				c0.2-2.1,0.5-4.2,0.9-6.2c0.7-2.7,1.9-5.2,3.5-7.4c0.8-1.2,1.1-1.6,1.2-1.5s3.4,0.7,3.4,0.7s-0.1,2.2-0.2,3.3
				c-0.4,4-1.1,7.9-2.1,11.8c-0.8,3.3-2.5,9-3.1,10.3c-1,2.3-1.7,3.8-1.7,3.8S88.1,78.4,88,78.2L88,78.2z"/>
			<path id="path2561" class="st3" d="M72.4,75.4c-0.9-1.9-1.5-3.9-1.8-5.9c-0.1-1-0.2-2-0.1-3.1c0-2,0.3-4.1,1-6l2.6-4.9
				c2.1,0.6,4.1,1.4,6,2.4c-1.9,9.3-4,13.4-6.9,18.3C72.9,75.9,72.7,75.6,72.4,75.4L72.4,75.4z"/>
			<path id="path3369" class="st5" d="M88.5,110.9c-5.8-2.1-13.2-0.1-17.6-5.2c-4.4-4.5-2.6-11.2-2.8-16.8c-0.2-2.6,0.7-4.6-1.1-6.3
				c-2.2-1.9-4.1-4-5.7-6.4c-2.5-2.5-3.9-11.4,2.1-6.2c5.3,5.1,10.5,10.7,17.6,13.3c8.2,3.3,17.3,3.6,26,2.9c0.3-0.1,1,0,1.2-0.2
				c2.8-2.6,1.3-8.8,5.6-10.6c4.9-1.9,11.8,1.9,16.1-2.3c1.8-4.3,8.5-4.7,6.7,0.3c-1.6,4.4-5.4,8.2-5.2,13.1
				c-0.8,5.9,0.1,12.2-0.1,18.2c-1.1,0-2.2,0.1-3.2,0.4c-2.6,0.9-5.4,3-9.5,5.1c-0.8,0.4-1.4-0.5-2.4-0.5
				c-5.1,0.2-10.8,2.6-15.6-0.2C96.5,108.5,92.6,111.4,88.5,110.9z M75.2,80.2c-5.8-3.4-9.3-11.9-12.3-17.5l0.3-2.4L75.2,80.2z
				 M117.6,75.1c0-1.9,0.3-9.2,0-17.5c-1.1-0.3-8.5-2-7.1-2.5c1.1-1.2,5.5,0.2,7.1,0.6c0-1-0.1-1.5-0.1-2.4c-0.2-0.2-3.6-2.8-4-3.8
				c-1.1-0.4-1.8-0.6-1.7-2.3c1.5-0.1,3-0.1,4.5-0.1c-0.2-4.5,0.2-9.7,0.2-11c1.3-0.1,0.4,0,2.1-0.2c0.1,1.7-0.2,5.9,0,11
				c1.4,0.2,5.5-0.5,5.3,0.9c-0.3,0.4-0.1,1.2-1.2,1.6c-1,1.4-2,2.7-3.2,3.9c0,1,0,1.7,0,2.7c0,0.3,4.7,1,7.2,1.8
				c0,0.2,0.5,1.1,0.1,1.6c-1.5-0.2-7.2-1.6-7.2-1.4c0.3,7.7,0.4,14.7,0.3,17.1C119,75.2,118.3,75.1,117.6,75.1z M98.1,25
				c0.6-0.1,0.8-0.1,1.9-0.2c0,0.3,0.2,11.3,0.2,14.2c0.8,0.1,3,0.1,3.6,0.2c0,0.7,0,1.3,0,2c-1.1-0.5-2.7,3.1-3.1,3.6
				c0.2,15.6-0.1,35.5-0.1,41.6c-0.8-0.6-2.2,0.6-2.2-0.2c0.1-3.3,0.1-8.5,0.1-11.4c0.2-4.5-0.1-28.2-0.3-30.2c-0.1-0.1-2.6-3-4-3.7
				c-0.1-0.6-0.1-1.3,0-1.9c2,0,3.8,0.5,3.8,0C98,33.8,98,26.7,98.1,25z M82,83.6c0.1-9.7,0.4-19.5-0.2-29.2c0.7,0,1.4,0,2.2,0
				c0.2,8.5,0,21,0,29.6C83.7,83.9,82.3,83.7,82,83.6z M76.1,48.3c1.7,0,10.6,0.2,12.8,0.1c0,0.2-0.1,0.7-0.1,1.4
				c-1,0-4,3.8-4.5,4.4c-0.9,0-1.8,0-2.7,0c-0.5-0.5-4.5-4.3-5.4-4.3C76.1,49,76.2,48.9,76.1,48.3z M110.4,52.2
				c-5.6-1.3-14.6-2.5-19.9-4.2c0-1-0.1-1.3,1.6-1.5c5.1,0.7,15.2,2.6,19.3,4.3C111.1,51.9,111,51.6,110.4,52.2z M81.9,58.4
				c-1.2-0.4-8.2-3.4-9.4-3.8c0-0.5,0.5-0.8,1-1.1c1.3,0.4,7.1,2.3,8.4,2.8C81.9,57.1,82,56.7,81.9,58.4z M81,48.2
				c0.1-3.1,0-6.3-0.3-9.4c2.8-0.2,0.1,0,2.8-0.2c0.1,3.8,0,5.8,0.1,9.6C82.2,48.3,82.2,48.2,81,48.2z"/>
			<path id="path2690" class="st6" d="M68.2,103.9c-1.8-0.1-3.7,0.1-5.4,0.7c-1.3,0.6-2.8,0.9-4.2,1c-2.2,0.1-3.4-0.7-6.5-1.5
				c-0.1,0-0.1,0-0.2,0h-0.3h-1h-1h-0.3h-0.1c-0.1,0.1-0.1,0.2-0.2,0.2c0,0.1,0,0.3,0.1,0.4c0.1,0,0.1,0,0.2,0h0.3h0.9h1h0.3H52
				c3.1,0.8,4.4,1.7,6.7,1.5c1.5-0.1,3-0.4,4.4-1c1.7-0.6,3.4-0.8,5.2-0.7l0,0l2,0.5v-0.6L68.2,103.9L68.2,103.9L68.2,103.9z"/>
			<path id="path2696" class="st6" d="M146,103.9c-4.3,1.5-9.1,3-13.2,0.3c-0.1-0.1-0.2-0.1-0.2-0.1c-0.3,0-0.6,0-0.8,0v0.6
				c0.3,0,0.5,0,0.8,0c0.1,0,0,0,0.1,0c4.4,2.8,9.4,1.2,13.7-0.3c0-0.1,0-0.2,0-0.3C146.2,104,146,103.9,146,103.9z"/>
			<path id="path2708" class="st6" d="M98.1,131.4c-1.5,0-2.8,0.7-3.8,1.8c0,0.1,0,0.2,0,0.4c0.1,0.1,0.2,0.2,0.3,0.2
				c1.8-2,4.9-2.1,6.9-0.3l0.1,0.1c0,0,0.2-0.1,0.3-0.2c0-0.1,0-0.3,0-0.4C100.9,132,99.5,131.5,98.1,131.4z"/>
			<path id="path2726" class="st7" d="M128.8,82.5c-0.4,0-0.8,0-1.5,0.1c-2.6,0.9-5.2,2.3-7.6,2.7c-2.7,0.5-5.4,0.9-8.2,0.9v0.5
				c2.8-0.1,5.5-0.4,8.3-1c3.1-0.7,6.2-1.6,9.2-2.8c0,0,0.1-0.2,0-0.3S128.8,82.5,128.8,82.5z"/>
			<path id="path2866" class="st8" d="M82,83.6c-0.2-9.4,0.1-19.6-0.1-29"/>
			<path id="path2870" class="st8" d="M84.1,54.1c0,0.3,0,0.6,0,0.9c0,9.5,0,19.9,0,29.3"/>
			<path id="path2876" class="st8" d="M98.4,49.9c0,11.7,0.1,24.6,0,36.3"/>
			<path id="path2878" class="st8" d="M100.6,86.5c-0.1-11.8,0.1-24.4,0-36.2"/>
			<path id="path2880" class="st8" d="M75.4,80c-0.1-0.2-0.4-0.4-0.5-0.6c-3.3-5.1-8.4-13.8-11.5-18.8c0-0.1-0.6-0.6-0.5-0.5"/>
			<path id="path2886" class="st8" d="M62.8,60.1c0,0.7,0,1.7,0,2.4c0.4,1.3,0.9,2.6,1.6,3.7c1.8,3.1,5.1,9.1,7.9,12"/>
			<path id="path2888" class="st8" d="M76.2,48.3h12.7v1.4"/>
			<path id="path2892" class="st8" d="M89.1,49.9c-4.3,0-8.7-0.1-13-0.1c0-0.5,0-1.3,0-1.8"/>
			<path id="path2894" class="st8" d="M76.8,49.9l0.6,0.5c1.5,1.3,3.1,3,4.6,4.2"/>
			<path id="path2898" class="st9" d="M88,49.9c-1.3,1.4-2.2,2.6-3.4,4c-0.2,0.2-0.3,0.4-0.5,0.6"/>
			<path id="path2902" class="st8" d="M81.8,54.4c1.1-0.1,1.4,0,2.4,0"/>
			<path id="path2553" class="st3" d="M87.9,78.2c-0.3-0.8-0.8-3.5-1.1-5.4c-0.3-2.1-0.4-4.1-0.3-6.2c-0.1-2.2,0-4.5,0.4-6.7
				c0.3-2.2,1-4.3,2-6.3c0.9-1.6,1.9-3.2,3-4.7c0.6,0,1.3,0.1,1.9,0.2l1.7,0.3l-0.1,1.2C94.7,56.9,93.5,63,91.7,69
				c-0.7,2.8-1.6,5.6-2.7,8.3c-0.7,1.6-0.9,1.9-1.1,1.4V78.2z"/>
			<path id="path2904" class="st8" d="M90.7,48.1c6.7,1.4,13.1,2.8,19.8,4.2c0.6-0.6,1.1-0.9,0.7-1.5c-0.2-0.3-2.7-1.2-4.6-1.6
				c-4.2-0.8-9-2-12.8-2.6c-1.8-0.3-2.4-0.1-2.7,0.2C90.8,47.2,90.7,47.7,90.7,48.1z"/>
			<path id="path2543" class="st3" d="M79.4,38.5c-1.2-0.2-2.4-0.3-3.6-0.3c-0.7,0.1-1.5,0-2.2-0.2c0.1-0.3,0.3-0.6,0.5-0.9
				c1.1-1.3,2.7-1.7,6.7-1.4l2.6,0.2v2.7l-0.8,0.1C81.6,38.9,80.4,38.8,79.4,38.5L79.4,38.5z"/>
			<path id="path2906" class="st8" d="M83.6,48.1c-0.1-3.9,0.1-8.5,0-12.5c-4.5,0.2-8.5-1.4-9.9,2.6"/>
			<path id="path2910" class="st8" d="M81,48.2c0-3-0.1-6.2-0.1-9.2c-1-0.2-1.7-0.3-2.7-0.5c-1.6-0.2-3.1,0.1-4.8-0.1l0,0"/>
			<path id="path2541" class="st3" d="M88.2,25.2l-0.7-0.3l1.4-1.1c0.5-0.5,1.1-0.8,1.7-1.1c0.2,0,1.6-0.1,3.1-0.3s3.6-0.3,4.5-0.3
				h1.7v1.4c0,0.5,0,0.9,0,1.4c-1.7,0.2-9.2,0.6-9.9,0.6C89.4,25.5,88.8,25.4,88.2,25.2L88.2,25.2z"/>
			<path id="path2920" class="st8" d="M87.2,25.1c1.5-1.2,1.9-1.4,3-2.4c1.5-0.3,3-0.5,4.5-0.6c1.8-0.2,3.6-0.2,5.3-0.1
				c0,5.5,0,11.7,0,17.2"/>
			<path id="path2926" class="st7" d="M97.7,25c0,4.8,0,9.3,0,14.1h0.5c0-4.8,0-9.3,0-14.1H98L97.7,25z"/>
			<path id="path2936" class="st8" d="M95.2,41.2c1.3,1.4,2.2,2.7,3.4,4.1"/>
			<path id="path2938" class="st8" d="M100.6,45c0.9-1.4,1.3-2.4,2.2-3.8"/>
			<path id="path2940" class="st8" d="M98.5,44.7c-0.1,0.7,0,2.3-0.1,3"/>
			<path id="path2942" class="st8" d="M100.6,48.1c0-1,0-2.4,0-3.4"/>
			<path id="path2537" class="st3" d="M120.2,60.4h-0.3v-2.1h0.1c0,0,1.3,0.3,2.8,0.6l3.3,0.7c0.7,0.2,0.7,0.1,0.1,0.3
				c-1.1,0.3-2.2,0.5-3.3,0.5C122.4,60.4,120.9,60.4,120.2,60.4L120.2,60.4z"/>
			<path id="path2952" class="st8" d="M119.8,75c0-5.2,0-8.9,0-14v-2.9"/>
			<path id="path2956" class="st8" d="M117.7,75.2c0-5.4,0-12.3,0-17.8"/>
			<path id="path2980" class="st8" d="M123.6,49.3c0.1-0.8,0.2-1.6,0.2-2.3c-1.1,0-2.9,0-3.7,0c-2.9,0-5.5-0.1-8.4,0
				c0,0.8,0,0.5,0,1.6c0.3,0.5,0.9,0.7,1.9,0.9"/>
			<path id="path2539" class="st3" d="M109.5,35.4c0-0.9,0.6-1.6,1.4-1.9c1.4-0.2,2.8-0.2,4.1-0.2h3.7V36c-1.8,0.1-3.7,0.1-5.5,0.1
				h-3.7V35.4z"/>
			<path id="path2984" class="st8" d="M116.6,36.1c0.1,3.4,0,7.3,0.1,10.8"/>
			<path id="path2986" class="st8" d="M118.7,46.8c0-4.3,0-9.3,0-13.7h-7.1c-0.7,0.1-1.3,0.4-1.8,0.9c-0.8,0.7-0.5,1.1-0.5,2.2
				c2-0.2,5,0,7.5,0"/>
			<path id="path2990" class="st8" d="M82.1,58.7l-9.7-4.1"/>
			<path id="path2996" class="st8" d="M63.8,61.5c3.4,0.8,8.3-3.1,10.2-6"/>
			<path id="path2998" class="st8" d="M72.2,75.2c-2.4-6.2-1.8-9.7-1.1-13.8c0.5-1.8,1.4-3.6,2.4-5.2"/>
			<path id="path3000" class="st8" d="M73.1,76.2c2.2-3.1,3.7-6.6,4.7-10.3c0.6-2.6,1.3-5.6,1.7-8.1"/>
			<path id="path3002" class="st8" d="M75.5,80.2c1.4-2.8,2.6-5.8,3.5-8.8c1.4-4.7,1.7-7.9,2.9-12.7"/>
			<path id="path3004" class="st8" d="M77.5,81.3c1.4-1.6,3.9-2.6,4.6-2.3"/>
			<path id="path3006" class="st8" d="M89.9,85.6c1.6-3.7,7.3-5.6,8.5-5.5"/>
			<path id="path3008" class="st8" d="M89.8,85.4c2.1-3.8,3.6-8.9,4.7-12.9c2.2-7.9,3.3-12.7,3.2-22.9"/>
			<path id="path3010" class="st8" d="M95.7,49.4c-0.1,2.6-0.4,5.3-0.9,7.9c-1,5.7-2.4,11.3-4.3,16.8c-0.6,1.5-1.6,3.6-2.2,5.1"/>
			<path id="path3012" class="st7" d="M88.1,78.9c-0.3,2.1-1.8,3.8-2.4,5.8l0.5,0.1c0.9-2.2,2.1-4.1,2.7-6.4L88.1,78.9z"/>
			<path id="path3016" class="st8" d="M96.5,86.3c-0.8-1.5-1.4-3.5-2.2-5"/>
			<path id="path3018" class="st8" d="M104.2,86.4c1.2-1.7,1.8-3.9,2.5-5.7"/>
			<path id="path2545" class="st3" d="M104.3,61.5c-0.1-0.2-1.5-6.4-2.1-9.4c-0.1-0.4-0.2-0.9-0.1-1.4c0.1-0.1,7.7,1.4,7.9,1.6
				c-0.2,0.4-0.5,0.8-0.9,1.2c-1.9,2.3-3.5,4.9-4.5,7.7C104.6,61.5,104.4,61.6,104.3,61.5z"/>
			<path id="path3020" class="st8" d="M107.8,78.4c2.4-6.3,4.4-12.7,6-19.3"/>
			<path id="path3026" class="st8" d="M100.6,80c4.5-0.1,7.5,0.8,9.8,2.2c-3-3.5-5.7-9.5-5.9-13.2c-1.2-6.9,2-12.5,6-16.7"/>
			<path id="path3028" class="st8" d="M102,50.7c0.9,5,2,10,3.5,14.8c0.2,0.6,2.8,9.1,5.4,13.6"/>
			<path id="path3030" class="st8" d="M112.2,76.3c1.3-1.4,3.3-11,3.9-16.2"/>
			<path id="path3032" class="st8" d="M107.2,77.5c-4-4.8-6-13.5-6.6-20"/>
			<path id="path3034" class="st8" d="M89.8,85.4c-0.8-2.2-1.5-4.5-2-6.8c-2.1-6.4-2.5-13.1-1.2-19.7c0.5-3.8,2.6-7.4,5-10.4"/>
			<path id="path3036" class="st8" d="M84,57.2l3,0.7"/>
			<path id="path3038" class="st8" d="M84.1,79c1.2,0,3.6,0,4.2,0"/>
			<path id="path3042" class="st8" d="M83.4,46.5c6.2-4.7,10.3-12.4,14.6-18.7"/>
			<path id="path3046" class="st10" d="M103.2,39c-0.8-0.5-2.2-2.7-3.3-5.4"/>
			<path id="path3048" class="st8" d="M116.4,46.7c-7.5-3.9-11.9-10.6-16.1-17.8l-0.3-0.6"/>
			<path id="path3050" class="st8" d="M128.7,73.9c-3.3-3.7-5.1-8.5-6.2-13.2"/>
			<path id="path3052" class="st8" d="M121.2,60.7c0.2,5.5,1.4,9.6,3.1,14.6"/>
			<path id="path3237" class="st6" d="M130.2,114.9c-1.4,0-2.7,0.3-4,0.8c-1.8,0.6-3.5,1.2-5.2,1c-3.7-1.5-7.7-2.2-11.5-0.6
				c-2.6,1.7-4.9,0.9-7.1-0.2l0,0c-3-1.4-6.5-1.3-9.3,0.4l0,0c-1.3,0.8-2.9,0.9-4.3,0.4c-1.5-0.4-3-1.1-4.4-1.5l0,0
				c-2.1-0.8-4.2-0.1-6.2,0.7s-3.9,1.4-5.9,0.6l0,0c-3.6-2.5-8-1.7-11.6,0.2c0,0.1,0,0.3,0,0.4s0.1,0.2,0.2,0.2
				c3.5-1.8,7.8-2.6,11.2-0.2l0,0l0,0c2.1,0.9,4.2,0.2,6.2-0.6s3.9-1.4,5.9-0.7l0,0l0,0c1.4,0.4,2.9,1.1,4.5,1.5
				c1.5,0.5,3.2,0.3,4.6-0.5l0,0c2.7-1.6,6.1-1.7,8.9-0.4l0,0c2.3,1,5.1,1.8,7.4,0.1l0,0c3.6-1.6,7.6-0.9,11.1,0.6l0,0l0,0
				c1.9,0.3,3.7-0.4,5.4-1s3.4-1.1,5.2-0.6l0,0l0,0c1.1,0.3,2.3,0.8,3.4,1.1c0.1-0.1,0.1-0.2,0.2-0.3c0-0.1,0-0.3-0.1-0.4
				c-1.1-0.3-2.2-0.8-3.4-1.1l0,0C131.1,114.9,130.7,114.9,130.2,114.9z"/>
			<path id="path3239" class="st6" d="M83,125.9c-0.2,0.2-0.2,0.3-0.1,0.5c1,0.5,2,0.9,3.1,1.3c1.5,0.8,3.3,1.1,5,1
				c1.8,0.1,3.2-1.4,4.9-1.6c1.9-0.5,3.9-0.5,5.8,0.2c1.2,0.3,2.2,1.3,3.4,1.5c1.9,0.2,3.8-0.3,5.4-1.3c0.5-0.3,2.4-0.8,1.1-1.2
				c-1,0.4-1.9,1.1-2.9,1.4c-1.6,0.8-3.6,0.7-5.1-0.2c-2-1.2-4.3-1.6-6.6-1.1c-1.5,0.2-2.9,0.6-4.2,1.4c-2.3,1-4.8,0.1-7-0.8
				C84.8,126.5,83.9,126.2,83,125.9z"/>
			<path id="path3241" class="st6" d="M113.6,120.4c-1.8,0.1-3.5,0.7-5,1.7l0,0c-2.7,1-5.4-0.5-8-1.4c-2.1-0.7-4.4-0.4-6.2,0.7l0,0
				c-2.3,1.1-5,1.2-7.4,0.3l0,0c-2.4-1.1-5.1-2.1-7.7-0.7l0,0c-2,1.3-4.5,1.9-6.5,0.4l0,0h-0.1c-0.3,0.2-0.1,0.5-0.1,0.6
				c2.2,1.6,4.9,1,7-0.4c2.3-1.4,4.9-0.4,7.2,0.7l0,0c2.5,0.9,5.3,0.8,7.8-0.3l0,0l0,0c1.8-1.1,3.9-1.3,5.9-0.7l0,0
				c2.6,0.8,5.4,2.4,8.3,1.3l0,0l0,0c1.4-1,3.1-1.6,4.9-1.7l0,0c1.4,0,2.8,0.4,4.1,1c1.4,0.7,2.9,0.9,4.4,0.6c0-0.1,0.1-0.3,0.1-0.4
				c-0.1-0.1-0.2-0.2-0.3-0.2c-1.4,0.3-2.8,0.1-4.1-0.5C116.6,120.8,115.1,120.5,113.6,120.4L113.6,120.4z"/>
			<path id="path3176" class="st8" d="M119.6,60.7c2.4,0.1,4.7,0.2,6.9-0.9c0.5-0.9,0.3-1.9-0.2-2.2c-2.8-0.6-4.1-1-6.5-1.5"/>
			<path id="path3190" class="st8" d="M110.4,55.7c0.6,0.3,16.3,3.9,16.3,3.9"/>
			<path id="path3192" class="st8" d="M112.2,54.5l5.4,1.2v-2.2"/>
			<path id="path3194" class="st8" d="M119.8,56.3v-3.1"/>
			<path id="path3196" class="st8" d="M121,51.6c0,1.6,0.2,3.2,0.6,4.8"/>
			<path id="path3198" class="st8" d="M119.7,53.4l3.2-4.2"/>
			<path id="path3200" class="st8" d="M113.4,49.5l4.3,4.1"/>
			<path id="path3204" class="st8" d="M117.5,60.4c-2.3-0.9-7-2.1-7.3-4.8c0.5-0.7,1.2-1.1,2.1-1.1"/>
			<path id="path3210" class="st8" d="M112.5,49.2l11.3-0.1"/>
			<path id="path3212" class="st8" d="M94.2,41.2h9.8"/>
			<path id="path3214" class="st8" d="M103.8,41.4v-2.3"/>
			<path id="path3216" class="st8" d="M104,39h-9.8v2.4"/>
			<path id="path3218" class="st7" d="M97.9,33.2c-0.9,2.9-2,4-3.4,5.7l0.3,0.4c1.4-1.7,2.6-2.7,3.4-5.7L97.9,33.2z"/>
			<path id="path3220" class="st7" d="M87.5,24.5L86.7,25c0.7,0.3,2,0.6,2.6,0.9h0.1l0,0c3.2,0,6.2-0.4,8.7-0.5v-0.5
				c-2.6,0-5.5,0.5-8.6,0.5C88.7,25.1,87.6,25,87.5,24.5z"/>
			<path id="path3224" class="st8" d="M72.6,54.8v-0.9l0.9-0.5l8.6,2.7l0,0"/>
			<path id="path3228" class="st8" d="M98.5,45h2.1"/>
			<path id="path3230" class="st8" d="M117.6,53.4h2"/>
			<path id="path2893" class="st7" d="M71.2,100c0,0-0.3,0-0.4,0.1s0,0.3,0,0.3c2.3,2,5.1,3.4,8,4.3c6.4,2.3,13.1,3.3,19.8,3.1
				c6.4-0.2,12.8-0.7,19.1-1.8c1.1-0.2,2.3-0.4,3.4-0.8c1.7-0.4,3.4-1.2,4.8-2.2c0,0,0-0.3,0-0.4s-0.4,0-0.4,0
				c-1.4,1-2.9,1.7-4.5,2.1c-1.1,0.3-2.2,0.6-3.3,0.8c-6.3,1-12.6,1.6-19,1.7c-6.7,0.2-13.3-0.9-19.6-3.1
				C76.1,103.4,73.4,101.9,71.2,100z"/>
			<path id="path2905" class="st7" d="M71,96.4c-0.1,0-0.2,0.1-0.3,0.1c0,0.1,0,0.2,0,0.3c1,0.8,2.1,1.6,3.3,2.2
				c3.4,1.5,6.9,2.8,10.5,3.7l0,0c4.2,1,8.6,1.4,12.9,1.3l0,0c7.9-0.3,19.2-0.6,27.7-4.8c0,0,0.1-0.2,0-0.3s-0.2-0.2-0.2-0.2
				c-8.4,4.1-19.6,4.5-27.5,4.8l0,0c-4.3,0-8.6-0.1-12.7-1.3l0,0c-3.6-0.9-7.1-2.1-10.4-3.7l0,0C73.1,97.9,72,97.2,71,96.4z"/>
			<path id="path2911" class="st7" d="M71,92c0,0-0.2,0-0.3,0.1s0,0.3,0,0.3c7.5,5.3,16.8,7.4,25.8,7.9l0,0
				c8.1-0.2,20.8-0.6,27.9-4.3l0.6-0.3c0,0,0.1-0.2,0.1-0.3s-0.3-0.2-0.3-0.2l-0.6,0.3c-6.9,3.6-19.6,4-27.7,4.2l0,0
				C87.5,99.4,78.3,97.3,71,92z"/>
			<path id="path2919" class="st7" d="M70.4,87.7c-0.1,0-0.2,0.1-0.3,0.1c0,0.1-0.1,0.2-0.1,0.3l0,0c4.6,3.3,9.8,5.7,15.3,7
				c5.2,1.5,10.6,2.2,16,2l0,0c5,0.1,9.8-0.9,14.6-1.7c3.1-0.3,6.2-1.4,8.8-3c0,0,0-0.2,0-0.3s-0.3-0.1-0.3-0.1
				c-2.6,1.5-5.5,2.5-8.6,2.8c-4.8,0.8-9.7,1.8-14.6,1.7c-5.3,0.2-10.7-0.5-15.8-2C80.1,93.3,74.9,91,70.4,87.7L70.4,87.7z"/>
			<path id="path2931" class="st7" d="M62.6,73.5c0,0-0.2,0-0.3,0s0,0.3,0,0.3l1.3,1.2c3.5,3.7,7.4,6.8,11.8,9.3
				c7.2,4.6,15.8,6.3,24.2,6.4c9,0.2,17.8-1.7,26.6-3.2l-0.1-0.5c-8.8,1.5-17.6,3.4-26.5,3.2c-8.4-0.1-16.9-1.9-23.9-6.4l0,0
				c-4.3-2.5-8.3-5.6-11.7-9.2l0,0L62.6,73.5z"/>
			<path id="path3158" class="st11" d="M126.9,77.4c-1.1,0-1.3,0.2-1.3,1.6s0.2,1.6,1.3,1.6c1.1,0,1.3-0.2,1.3-1.6
				S128.1,77.4,126.9,77.4z"/>
			<path id="path3160" class="st11" d="M115.8,79.3c-1.1,0-1.3,0.2-1.3,1.6s0.2,1.6,1.3,1.6s1.3-0.2,1.3-1.6S116.9,79.3,115.8,79.3z
				"/>
			<path id="path3164" class="st11" d="M90.8,91.5c-1.2,0-1.2,0-1.2,1.3c0,1,0,1.1,1.2,1.1s1.1,0,1.1-1.1S91.9,91.5,90.8,91.5z"/>
			<path id="path3166" class="st11" d="M99.1,92.3c-1.2,0-1.2,0-1.2,1.3c0,1,0,1.1,1.2,1.1s1.2,0,1.2-1.1S100.2,92.3,99.1,92.3z"/>
			<path id="path3168" class="st11" d="M106.5,92.3c-1.1,0-1.1,0-1.2,1.2c0,1,0,1,1.2,1.1s1.1,0,1.1-1.1S107.6,92.3,106.5,92.3z"/>
			<path id="path3170" class="st11" d="M113.7,91.5c-1.2,0-1.2,0-1.2,1.3c0,1,0,1.1,1.2,1.1s1.2,0,1.2-1.1S114.9,91.5,113.7,91.5z"
				/>
			<path id="path3172" class="st11" d="M121.5,89.9c-1.1,0-1.1,0-1.2,1.2c0,0.9,0,1.1,1.2,1.1s1.1-0.2,1.1-1.1
				S122.6,89.9,121.5,89.9z"/>
			<path id="path2748" class="st8" d="M132.1,83.6c-1.4,6.9-0.7,14.3-0.7,21.2"/>
			<path id="path2742" class="st8" d="M96.5,86.4c0.3,0,8.8,0,11.4,0c0.3,0,0.5-0.4,0.7-0.7c1.4-2.2,2.3-4.7,2.4-7.3
				c0.5-1.4,1.8-3.1,3.2-3.1c1.2,0,9.7,0,10.7,0c2.8-0.2,5.4-1.8,6.9-4.3c0.8-1.5,6.3-1.5,5.2,2.6c-2.6,4.4-4,6.3-4.8,10.3"/>
			<path id="path3154" class="st11" d="M121.3,78.8c-1.1,0-1.3,0.2-1.3,1.6s0.2,1.6,1.3,1.6s1.3-0.2,1.3-1.6S122.4,78.8,121.3,78.8z
				"/>
			<path id="path2714" class="st7" d="M67.6,83.4c0,0.1,0.1,0.4,0.1,0.4c0,4,0,7.1,0,10.9c-0.2,3.4,0,6.7,1.8,9.6l0,0
				c1.5,2.2,3.7,3.9,6.2,4.8c1.2,0.4,2.5,0.7,3.8,0.8l0,0c1.1,0.2,2.3,0.2,3.5,0.2h0.4l0,0c0.2,0,0.4,0,0.6,0l0,0
				c0.9,0.1,1.8,0.3,2.6,0.7c0.9,0.4,1.8,0.6,2.8,0.6l0,0c2.2,0.1,4.5-0.3,6.6-1.2c1.6-0.5,3.4-0.4,5,0.2l0,0l0,0
				c2.9,0.9,6.1,1.5,9.1,0.3l0,0c1.9-0.7,4-0.9,6-0.4l0,0c0.8,0.1,1.6,0.3,2.4,0.4l0,0v0.1l5.6-3.4l0,0l4.8-2.2l0,0
				c0,0.1,0.1,0.1,0.1,0.1h0.1c0.1,0,0.2,0,0.2,0c0.4,0,0.9,0,1.3,0c0.3,0,0.5-0.1,0.7-0.3c0.1-0.1,0.1-0.2,0.1-0.3l-0.2-0.4
				c-0.1,0.1-0.2,0.2-0.3,0.3c-0.1,0.1-0.1,0.1-0.2,0.1h-1c-1.3-3.4-2-6.9-2.1-10.5c-0.1-3.2,0.4-6.3,1.7-9.3l-0.6,0.2
				c-1.2,2.9-1.8,6-1.6,9.1c0.1,3.5,0.8,6.9,2,10.1l-0.2,0.1l-5,2.3l0,0l-5.4,3.3c-0.8-0.1-1.5-0.3-2.3-0.4l0,0
				c-2.1-0.5-4.3-0.3-6.3,0.4l0,0c-2.8,0.9-5.9,0.7-8.6-0.5c-1.8-0.7-3.8-0.8-5.6-0.2c-2.1,0.7-4.1,1.5-6.2,1.3l0,0
				c-0.9,0-1.8-0.2-2.6-0.6c-1.3-0.4-2.6-0.6-4-0.6c-2.4,0-4.7-0.3-7-1c-2.3-0.9-4.3-2.5-5.7-4.6l0,0c-1.7-2.8-1.9-6-1.7-9.3
				c0-3.6-0.1-7,0-10.9C68.3,83.4,67.9,82.8,67.6,83.4z"/>
			<path id="path3150" class="st11" d="M75.9,86.8c-1.2,0-1.2,0-1.2,1.2c0,1,0,1,1.2,1s1.2,0,1.2-1.1S77.1,86.8,75.9,86.8z"/>
			<path id="path3162" class="st11" d="M82.9,90c-1.2,0-1.2,0-1.2,1.2c0,1,0,1.2,1.3,1.2s1.2-0.3,1.2-1.3S84.1,90,82.9,90z"/>
			<path id="path2716" class="st8" d="M67.9,83.4C61.4,78.8,54.7,65,62.2,69c4.6,3.3,9,8.7,11.9,10.4c6.3,4.3,14.3,6.3,21.9,6.9h0.6
				"/>
			<path id="path2499" class="st8" d="M85.5,52.7c0.3,1.5,0.8,3,1.5,4.4"/>
			<path id="path2515" class="st8" d="M114.9,55c0.3-1.1,0.6-2.1,0.9-3.2"/>
			<path id="path3235" class="st6" d="M98.2,109c-2.5,0.1-6.6,3.3-10.3,1.7c-3.6-1.6-7.8-1.6-11.4,0c-4.3,2-9-3.3-13.4-0.6
				c-3.4,1.3-7.3,1-10.5-0.7c0.5,2.1,4.1,2,5.9,2.2c2.4,0.2,4.7-1,6.9-1.7c4.1-0.3,8.2,3.5,12.2,0.9c2.9-1.5,6.1-1.3,9.5,0.1
				s7-0.2,10.2-1.3c3.6-0.5,6.9,2.8,10.6,1.8c3.6-1.4,7.5-2.3,11.1-0.3c4.7,2.6,9.5-3.8,14.2-0.5c2.6,1.6,8.4,2.5,9.4-1
				c-3.3,3.2-7.6,1.2-11.1-0.5c-4.3-1.2-8.7,4.1-12.9,1.3c-3.4-1.7-6.4-0.9-10.5,0.3C103.8,111.9,100.7,108.9,98.2,109z"/>
		</g>
	</g>
	<g>
		<defs>
			<rect id="SVGID_00000089542128797429372540000008126759567951093126_" width="195.6" height="280.6"/>
		</defs>
		<clipPath id="SVGID_00000060022481699954268360000001730657681447961015_">
			<use xlink:href="#SVGID_00000089542128797429372540000008126759567951093126_"  style="overflow:visible;"/>
		</clipPath>
		<path style="clip-path:url(#SVGID_00000060022481699954268360000001730657681447961015_);fill:#E00814;" d="M152.2,267.4h0.1
			c0.1-0.1,0.1-0.1,0.1-0.2c0,0-0.2-76.6-0.2-79c0-27.9-24.4-50.5-54.6-50.5c-28,0-51.1,19.5-54.2,44.6l-0.2,84.8
			c0,0.1,0.1,0.3,0.3,0.3l0,0L152.2,267.4L152.2,267.4z"/>
	</g>
	<g>
		<defs>
			<rect id="SVGID_00000043440742956021325240000014248961264117161354_" width="195.6" height="280.6"/>
		</defs>
		<clipPath id="SVGID_00000129167606944442743380000004218979828194450055_">
			<use xlink:href="#SVGID_00000043440742956021325240000014248961264117161354_"  style="overflow:visible;"/>
		</clipPath>
		
			<path style="clip-path:url(#SVGID_00000129167606944442743380000004218979828194450055_);fill:#FFFFFF;stroke:#333333;stroke-width:1.06;stroke-linecap:round;stroke-linejoin:round;" d="
			M104.2,217.7c-1.8-1.6-2.9-3.9-3.1-6.3v-7.1h7.1c2.7-0.1,4.6,1.3,6.3,3.1V195c-1.4,2.1-3.8,3.2-6.3,3.1h-7.1V191
			c-0.1-2.7,1.3-4.6,3.1-6.3H91.8c2,1.4,3.2,3.8,3.1,6.3v7.1H88c-2.5-0.2-4.8-1.3-6.4-3.1v12.4c1.6-1.8,3.9-2.9,6.3-3.1h7v7
			c-0.2,2.5-1.3,4.7-3.1,6.4L104.2,217.7z M104.2,181.6c-1.8-1.6-2.9-3.9-3.1-6.3v-7.1h7.1c2.7-0.1,4.6,1.3,6.3,3.1v-12.4
			c-1.4,2-3.8,3.2-6.3,3.1h-7.1v-7.1c-0.1-2.7,1.3-4.6,3.1-6.3H91.8c2,1.4,3.2,3.8,3.1,6.3v7.1H88c-2.5-0.2-4.8-1.3-6.4-3.1v12.4
			c1.6-1.8,3.9-2.9,6.3-3.1h7v7c-0.2,2.5-1.3,4.8-3.1,6.4L104.2,181.6z"/>
	</g>
	<g>
		<defs>
			<rect id="SVGID_00000065071921800996330320000007900875860075005834_" width="195.6" height="280.6"/>
		</defs>
		<clipPath id="SVGID_00000024709532476839824530000017503953642329908131_">
			<use xlink:href="#SVGID_00000065071921800996330320000007900875860075005834_"  style="overflow:visible;"/>
		</clipPath>
		
			<path style="clip-path:url(#SVGID_00000024709532476839824530000017503953642329908131_);fill:none;stroke:#424242;stroke-width:1.87;stroke-miterlimit:5.63;" d="
			M69,248c1.6-0.4,3.7,0,4.5,1.2c-0.3,0.5-1,0.6-1.5,0.8c1.1,0.1,2.4,0.6,2.4,1.5c-0.3,1.4-1.2,1.3-2.4,1.1c0.3,0.5,0.3,1,0.1,1.5
			c-1.2,0.3-2.5,0.1-3.7-0.4c0.4,2.1,0.3,3.9-0.9,5.2c-0.8-0.2-1.5-0.5-1.6-1.3c0.1,1.1-0.3,2.1-1,2.9c-0.5-0.5-0.9-1.1-1-1.8l1.2-3
			 M130,248.3l-0.7-0.2c-1.6-0.4-3.5-0.1-4.3,1.1c0.3,0.5,1.1,0.6,1.7,0.8c-1.1,0.1-2.6,0.6-2.5,1.5c0.3,1.4,1.3,1.4,2.4,1.1
			c-0.2,0.5-0.2,1.1,0,1.7c1.2,0.3,2.5,0.1,3.7-0.5c-0.4,2.1-0.3,3.9,0.9,5.2c0.8-0.1,1.5-0.6,1.7-1.4c-0.1,1,0.2,2.1,0.9,2.8
			c0.5-0.5,0.9-1.1,1-1.8l-1.2-3.5"/>
	</g>
	<g>
		<defs>
			<rect id="SVGID_00000140729385970585080490000017868143894900640135_" width="195.6" height="280.6"/>
		</defs>
		<clipPath id="SVGID_00000039851322717302866490000013366666349973594031_">
			<use xlink:href="#SVGID_00000140729385970585080490000017868143894900640135_"  style="overflow:visible;"/>
		</clipPath>
		
			<path style="clip-path:url(#SVGID_00000039851322717302866490000013366666349973594031_);fill-rule:evenodd;clip-rule:evenodd;fill:#FFE407;" d="
			M134.8,258.5l-1.1-3.1l-3.9-7.4c-1.5-0.2-3.1-0.6-4.6,1c0,0.6,0.8,0.7,1.5,0.9c-1.3,0.1-2.5,0.5-2.4,1.6c0.2,1,1.2,1.2,2.5,0.9
			c-0.3,0.5-0.3,1.1-0.1,1.6c2.1,0.2,3.1,0,3.7-0.7c-0.4,2.4-0.2,4.3,0.8,5.3c0.9,0,1.2-0.5,1.6-1.2c-0.1,1,0.2,2,0.9,2.7
			C134.3,259.8,134.7,259.2,134.8,258.5L134.8,258.5z"/>
	</g>
	<g>
		<defs>
			<rect id="SVGID_00000042704451427711940110000012771709815782621098_" width="195.6" height="280.6"/>
		</defs>
		<clipPath id="SVGID_00000160899288100604342370000004017620921529035189_">
			<use xlink:href="#SVGID_00000042704451427711940110000012771709815782621098_"  style="overflow:visible;"/>
		</clipPath>
		
			<path style="clip-path:url(#SVGID_00000160899288100604342370000004017620921529035189_);fill:none;stroke:#424242;stroke-miterlimit:5.63;" d="
			M63.9,258.5c0.1,0.7,0.5,1.4,1,1.8c0.7-0.7,1.1-1.7,1-2.7c0.1,0.8,0.7,1.1,1.6,1.3c1.2-1.3,1.4-3,1-5.2c1.1,0.5,2.4,0.7,3.6,0.4
			c0.2-0.5,0.2-1.1,0-1.7c1.1,0.4,2.1,0.3,2.4-1.1c0.1-0.9-0.9-1.4-2-1.5c0.5-0.1,0.9-0.4,1.1-0.8c-0.8-1.2-2.7-1.5-4.3-1.1"/>
	</g>
	<g>
		<defs>
			<rect id="SVGID_00000083068478850484409830000018368243883544700344_" width="195.6" height="280.6"/>
		</defs>
		<clipPath id="SVGID_00000126304981798659737480000011639505025520145846_">
			<use xlink:href="#SVGID_00000083068478850484409830000018368243883544700344_"  style="overflow:visible;"/>
		</clipPath>
		
			<path style="clip-path:url(#SVGID_00000126304981798659737480000011639505025520145846_);fill-rule:evenodd;clip-rule:evenodd;fill:#FFE407;" d="
			M63.8,258.4l1.1-3.1l3.9-7.4c1.5-0.2,3.1-0.6,4.6,1c0,0.6-0.8,0.7-1.5,0.9c1.3,0.1,2.5,0.5,2.4,1.6s-1.2,1.2-2.5,0.9
			c0.3,0.5,0.3,1.1,0.1,1.6c-2.1,0.2-3.1,0-3.7-0.7c0.4,2.4,0.2,4.3-0.8,5.3c-0.8,0-1.2-0.5-1.6-1.2c0.1,1-0.2,2-0.9,2.7
			C64.3,259.7,63.9,259.1,63.8,258.4L63.8,258.4z"/>
	</g>
	<g>
		<defs>
			<rect id="SVGID_00000142888890261291289100000011489187539021449345_" width="195.6" height="280.6"/>
		</defs>
		<clipPath id="SVGID_00000127747246286412107660000010406247249690833024_">
			<use xlink:href="#SVGID_00000142888890261291289100000011489187539021449345_"  style="overflow:visible;"/>
		</clipPath>
		
			<path style="clip-path:url(#SVGID_00000127747246286412107660000010406247249690833024_);fill:none;stroke:#424242;stroke-width:1.87;stroke-miterlimit:5.63;" d="
			M99.4,248.5c2.1-0.6,4.4-0.9,6.6-0.8c0,0.8-0.3,1.6-0.8,2.2c1.4,0.1,2.2,0,2.5,1.1c-0.2,0.9-0.8,1.3-2.4,1.3
			c0.6,0.5,0.9,1.2,0.9,1.9c-1.5,0.2-2.9,0.1-4.4-0.3c0.7,1.9,0.5,3.8,0.5,5.8c-0.8,0.4-1.2-0.3-1.8-0.6c0,2-0.5,3-1.3,3.3
			c-0.8-0.3-1.3-1.2-1.3-3.3c-0.6,0.3-1,1.1-1.8,0.6c0-1.9-0.2-3.9,0.5-5.8c-1.4,0.4-2.9,0.5-4.4,0.3c0-0.7,0.3-1.4,0.9-1.9
			c-1.6,0-2.2-0.4-2.4-1.3c0.3-1.1,1.1-1.1,2.5-1.1c-0.6-0.6-0.8-1.4-0.8-2.2C94.8,247.7,97.1,247.9,99.4,248.5z"/>
	</g>
	<g>
		<defs>
			<rect id="SVGID_00000039113870148051258530000005730698171546817178_" width="195.6" height="280.6"/>
		</defs>
		<clipPath id="SVGID_00000094602329029917112620000001155601657314220689_">
			<use xlink:href="#SVGID_00000039113870148051258530000005730698171546817178_"  style="overflow:visible;"/>
		</clipPath>
		
			<path style="clip-path:url(#SVGID_00000094602329029917112620000001155601657314220689_);fill-rule:evenodd;clip-rule:evenodd;fill:#FEE308;" d="
			M99.3,248.6c2.1-0.6,4.2-0.8,6.3-0.8c0,0.8-0.2,1.6-0.8,2.1c1.3,0.1,2.1,0,2.4,1.1c-0.2,0.9-0.8,1.3-2.3,1.3
			c0.5,0.5,0.8,1.1,0.9,1.8c-1.4,0.2-2.8,0.1-4.2-0.3c0.7,1.9,0.5,3.7,0.5,5.6c-0.8,0.4-1.2-0.3-1.7-0.6c0,2-0.4,2.9-1.2,3.1
			c-0.8-0.3-1.2-1.2-1.2-3.1c-0.5,0.3-0.9,1-1.7,0.6c0-1.9-0.2-3.7,0.5-5.6c-1.4,0.4-2.8,0.5-4.2,0.3c0-0.7,0.3-1.4,0.8-1.8
			c-1.5,0-2.1-0.4-2.2-1.3c0.2-1.1,1-1,2.4-1.1c-0.5-0.6-0.8-1.4-0.8-2.1C95,247.8,97.2,248,99.3,248.6z"/>
	</g>
	<g>
		<defs>
			<rect id="SVGID_00000031888077602867755810000013909845735569637537_" width="195.6" height="280.6"/>
		</defs>
		<clipPath id="SVGID_00000037692981397639526920000009401257032448098751_">
			<use xlink:href="#SVGID_00000031888077602867755810000013909845735569637537_"  style="overflow:visible;"/>
		</clipPath>
		
			<path style="clip-path:url(#SVGID_00000037692981397639526920000009401257032448098751_);fill:none;stroke:#424242;stroke-width:1.4;" d="
			M116.9,245.3c2-0.6,4.1-0.8,6.3-0.8c0,0.8-0.3,1.5-0.8,2.1c1.3,0.1,2.1,0,2.3,1.1c-0.2,0.9-0.8,1.3-2.2,1.3
			c0.5,0.5,0.8,1.1,0.8,1.8c-1.4,0.2-2.8,0.1-4.1-0.3c0.7,1.8,0.5,3.7,0.5,5.5c-0.8,0.4-1.2-0.3-1.7-0.6c0,1.9-0.4,2.8-1.2,3.1
			c-0.8-0.3-1.2-1.2-1.2-3.1c-0.5,0.3-0.9,1-1.7,0.6c0-1.8-0.2-3.7,0.5-5.5c-1.3,0.4-2.7,0.5-4.1,0.3c0-0.7,0.3-1.3,0.8-1.8
			c-1.5,0-2-0.4-2.2-1.3c0.2-1.1,1-1,2.4-1.1c-0.5-0.6-0.8-1.3-0.8-2.1C112.5,244.5,114.7,244.7,116.9,245.3z"/>
	</g>
	<g>
		<defs>
			<rect id="SVGID_00000069374122621897765640000005945916289350083745_" width="195.6" height="280.6"/>
		</defs>
		<clipPath id="SVGID_00000122000917645254820990000015883046928798414213_">
			<use xlink:href="#SVGID_00000069374122621897765640000005945916289350083745_"  style="overflow:visible;"/>
		</clipPath>
		
			<path style="clip-path:url(#SVGID_00000122000917645254820990000015883046928798414213_);fill-rule:evenodd;clip-rule:evenodd;fill:#FEE308;" d="
			M116.8,245.4c2-0.5,4-0.8,6-0.7c0,0.7-0.3,1.4-0.7,2c1.3,0.1,2,0,2.3,1c-0.2,0.8-0.7,1.2-2.1,1.2c0.5,0.4,0.8,1.1,0.8,1.8
			c-1.3,0.2-2.7,0.1-4-0.3c0.7,1.8,0.4,3.6,0.4,5.3c-0.8,0.4-1.1-0.3-1.6-0.6c0,1.9-0.4,2.7-1.2,3c-0.7-0.3-1.2-1.1-1.2-3
			c-0.5,0.3-0.8,1-1.6,0.6c0-1.8-0.2-3.5,0.4-5.3c-1.3,0.4-2.7,0.5-4,0.3c0-0.7,0.3-1.3,0.8-1.8c-1.4,0-2-0.4-2.1-1.2
			c0.2-1,1-1,2.2-1c-0.5-0.6-0.7-1.3-0.7-2C112.6,244.5,114.7,244.8,116.8,245.4L116.8,245.4z"/>
	</g>
	<g>
		<defs>
			<rect id="SVGID_00000018948998575567372040000003122568230048818831_" width="195.6" height="280.6"/>
		</defs>
		<clipPath id="SVGID_00000147911807874797383520000003739418537250895796_">
			<use xlink:href="#SVGID_00000018948998575567372040000003122568230048818831_"  style="overflow:visible;"/>
		</clipPath>
		
			<path style="clip-path:url(#SVGID_00000147911807874797383520000003739418537250895796_);fill:none;stroke:#424242;stroke-width:1.4;" d="
			M82.2,245.3c2-0.6,4.1-0.8,6.2-0.8c0,0.8-0.3,1.5-0.8,2.1c1.3,0.1,2.1,0,2.4,1.1c-0.2,0.9-0.8,1.3-2.2,1.3
			c0.5,0.5,0.8,1.1,0.8,1.8c-1.4,0.2-2.8,0.1-4.1-0.3c0.7,1.8,0.5,3.7,0.5,5.5c-0.8,0.4-1.2-0.3-1.7-0.6c0,1.9-0.4,2.8-1.2,3.1
			c-0.8-0.3-1.2-1.2-1.2-3.1c-0.5,0.3-0.9,1-1.7,0.6c0-1.8-0.2-3.7,0.5-5.5c-1.3,0.4-2.7,0.5-4.1,0.3c0-0.7,0.3-1.4,0.8-1.8
			c-1.5,0-2-0.4-2.2-1.3c0.2-1.1,1-1,2.3-1.1c-0.5-0.6-0.8-1.3-0.8-2.1C77.8,244.5,80,244.7,82.2,245.3z"/>
	</g>
	<g>
		<defs>
			<rect id="SVGID_00000108283522256952893010000007776452142039023493_" width="195.6" height="280.6"/>
		</defs>
		<clipPath id="SVGID_00000036250008847909134060000002280988428337602996_">
			<use xlink:href="#SVGID_00000108283522256952893010000007776452142039023493_"  style="overflow:visible;"/>
		</clipPath>
		
			<path style="clip-path:url(#SVGID_00000036250008847909134060000002280988428337602996_);fill-rule:evenodd;clip-rule:evenodd;fill:#FEE308;" d="
			M82.1,245.4c2-0.5,4-0.8,6-0.7c0,0.7-0.3,1.4-0.7,2c1.3,0.1,2,0,2.3,1c-0.2,0.8-0.7,1.2-2.2,1.2c0.5,0.4,0.8,1.1,0.8,1.8
			c-1.3,0.2-2.7,0.1-4-0.3c0.7,1.8,0.4,3.6,0.4,5.3c-0.8,0.4-1.1-0.3-1.6-0.6c0,1.9-0.4,2.7-1.2,3c-0.8-0.3-1.2-1.1-1.2-3
			c-0.5,0.3-0.9,1-1.6,0.6c0-1.8-0.2-3.5,0.4-5.3c-1.3,0.4-2.7,0.5-4,0.3c0-0.7,0.3-1.3,0.8-1.8c-1.4,0-2-0.4-2.1-1.2
			c0.2-1,1-1,2.3-1c-0.5-0.6-0.7-1.3-0.7-2C77.9,244.5,80,244.8,82.1,245.4L82.1,245.4z"/>
	</g>
	<g>
		<defs>
			<rect id="SVGID_00000073702074518819650410000000787431890572675734_" width="195.6" height="280.6"/>
		</defs>
		<clipPath id="SVGID_00000050645995592395751430000007228313594696185777_">
			<use xlink:href="#SVGID_00000073702074518819650410000000787431890572675734_"  style="overflow:visible;"/>
		</clipPath>
		
			<path style="clip-path:url(#SVGID_00000050645995592395751430000007228313594696185777_);fill-rule:evenodd;clip-rule:evenodd;fill:#FFE209;stroke:#424242;stroke-width:0.75;stroke-miterlimit:5.63;" d="
			M99.5,256.6c0.4-1,0.2-5.2,3.6-5.5c-0.8-0.5-1.6-1-2.3-1.6c-0.4-1-0.4-2.1,0.1-3c3.5-6.2,11.3-5.2,14.6-1.4
			c-0.7,1-1.5,1.8-2.5,2.5c2.1,0.8,2.9,3.4,3.5,5c0.6-1.8,1.1-4.1,3.6-5c-1-0.6-1.8-1.5-2.3-2.5c1.8-1.7,4.3-4.1,7-3.9
			c4.1,0,7.1,6.7,3.3,9.6c3.5,0.6,4.2,2.9,5.7,4.7l-8.5-28.9c-17.2,2.9-34.8,2.9-52,0l-8.5,28.9c1.5-1.8,2.2-4.1,5.7-4.7
			c-3.8-2.9-0.8-9.6,3.2-9.6c2.7-0.2,5.2,2.2,7,3.9c-0.6,1-1.4,1.8-2.3,2.5c2.4,0.9,3,3.2,3.6,5c0.6-1.7,1.5-4.3,3.5-5
			c-1-0.7-1.8-1.5-2.5-2.5c3.3-3.8,11.1-4.8,14.6,1.4c0.5,0.9,0.5,2,0.1,3c-0.7,0.6-1.5,1.1-2.3,1.6c3.4,0.3,3.3,4.5,4,5.5H99.5z"/>
	</g>
	<g>
		<defs>
			<rect id="SVGID_00000160880449583798991330000011451772859384850566_" width="195.6" height="280.6"/>
		</defs>
		<clipPath id="SVGID_00000145047347252415530230000001414544581025742256_">
			<use xlink:href="#SVGID_00000160880449583798991330000011451772859384850566_"  style="overflow:visible;"/>
		</clipPath>
		
			<path style="clip-path:url(#SVGID_00000145047347252415530230000001414544581025742256_);fill:none;stroke:#424242;stroke-width:1.26;stroke-linecap:round;stroke-linejoin:round;" d="
			M116.5,235.6l-5,0.4c-1.2,0.1-2.3-0.8-2.5-2l0,0c-0.2-1.1,0.6-2.2,1.8-2.4h0.1l5-0.4c1.2-0.1,2.3,0.8,2.5,2l0,0
			C118.6,234.3,117.8,235.4,116.5,235.6C116.6,235.6,116.6,235.6,116.5,235.6z"/>
	</g>
	<g>
		<defs>
			<rect id="SVGID_00000019660939516745217520000009633315359555006898_" width="195.6" height="280.6"/>
		</defs>
		<clipPath id="SVGID_00000132805487653332758260000016320769585978025611_">
			<use xlink:href="#SVGID_00000019660939516745217520000009633315359555006898_"  style="overflow:visible;"/>
		</clipPath>
		
			<path style="clip-path:url(#SVGID_00000132805487653332758260000016320769585978025611_);fill:none;stroke:#424242;stroke-width:1.26;stroke-linecap:round;stroke-linejoin:round;" d="
			M81.4,235.6l5,0.4c1.2,0.1,2.3-0.8,2.5-2l0,0c0.2-1.2-0.6-2.2-1.8-2.4H87l-5-0.4c-1.2-0.1-2.3,0.8-2.5,2l0,0
			C79.3,234.4,80.1,235.4,81.4,235.6L81.4,235.6z"/>
	</g>
	<g>
		<defs>
			<rect id="SVGID_00000105426723112883822250000013959083533878091433_" width="195.6" height="280.6"/>
		</defs>
		<clipPath id="SVGID_00000150821113873377298190000010587879832091868545_">
			<use xlink:href="#SVGID_00000105426723112883822250000013959083533878091433_"  style="overflow:visible;"/>
		</clipPath>
		
			<path style="clip-path:url(#SVGID_00000150821113873377298190000010587879832091868545_);fill:none;stroke:#424242;stroke-width:0.75;stroke-miterlimit:5.63;" d="
			M104.1,234.1l-4.8,2.9l-4.8-2.9l5-2.7L104.1,234.1L104.1,234.1z M127.3,234.7l-4.6-2.2l2.9-3.4 M71.3,234.7l4.6-2.2l-2.8-3.4"/>
	</g>
	<g>
		<defs>
			<rect id="SVGID_00000011736766303531825220000005676902549635273887_" width="195.6" height="280.6"/>
		</defs>
		<clipPath id="SVGID_00000044172235073055935740000000759613761923563947_">
			<use xlink:href="#SVGID_00000011736766303531825220000005676902549635273887_"  style="overflow:visible;"/>
		</clipPath>
		
			<path style="clip-path:url(#SVGID_00000044172235073055935740000000759613761923563947_);fill-rule:evenodd;clip-rule:evenodd;fill:#FFE209;stroke:#424242;stroke-width:0.75;stroke-miterlimit:5.63;" d="
			M73.9,227c16.7-5.2,34.6-5.3,51.4-0.1C108.3,229.7,90.9,229.7,73.9,227z"/>
	</g>
	<g>
		<defs>
			<rect id="SVGID_00000162348104537096741930000015656331304733912757_" width="195.6" height="280.6"/>
		</defs>
		<clipPath id="SVGID_00000062872814565383078080000006610131608693752238_">
			<use xlink:href="#SVGID_00000162348104537096741930000015656331304733912757_"  style="overflow:visible;"/>
		</clipPath>
		
			<path style="clip-path:url(#SVGID_00000062872814565383078080000006610131608693752238_);fill:none;stroke:#424242;stroke-width:0.75;stroke-miterlimit:5.63;" d="
			M125.7,228.6c-17.3,2.8-35,2.8-52.3,0 M127.8,236.2c-18.9,2.8-38,2.8-56.9,0"/>
	</g>
	<g>
		<defs>
			<rect id="SVGID_00000089572124609071849490000002199967804865127853_" width="195.6" height="280.6"/>
		</defs>
		<clipPath id="SVGID_00000025418351652732318680000016425787453663793086_">
			<use xlink:href="#SVGID_00000089572124609071849490000002199967804865127853_"  style="overflow:visible;"/>
		</clipPath>
		
			<path style="clip-path:url(#SVGID_00000025418351652732318680000016425787453663793086_);fill:none;stroke:#424242;stroke-width:0.75;stroke-miterlimit:5.63;" d="
			M128.3,237.9c-19.2,2.8-38.8,2.9-58,0.1"/>
	</g>
	<g>
		<defs>
			<rect id="SVGID_00000168106277843379944210000014924172927565971073_" width="195.6" height="280.6"/>
		</defs>
		<clipPath id="SVGID_00000060015813203910158210000008302325456081301147_">
			<use xlink:href="#SVGID_00000168106277843379944210000014924172927565971073_"  style="overflow:visible;"/>
		</clipPath>
		
			<path style="clip-path:url(#SVGID_00000060015813203910158210000008302325456081301147_);fill:none;stroke:#424242;stroke-width:0.75;stroke-miterlimit:5.63;" d="
			M130.3,251.8c1.2-1.8,2-11-5.3-12.2c-3.2-0.1-6.3,1.5-8,4.3c-2-2.4-5-3.7-8.2-3.5c-4.5,0.1-7.8,2.1-9.3,5.7
			c-1.5-3.5-4.8-5.5-9.3-5.7c-3.1-0.2-6.2,1.1-8.2,3.5c-1.7-2.8-4.8-4.4-8-4.3c-7.8,1.5-6.5,9.8-5.3,12.2"/>
	</g>
	<g>
		<defs>
			<rect id="SVGID_00000088825397391263577180000008349780041002434453_" width="195.6" height="280.6"/>
		</defs>
		<clipPath id="SVGID_00000132060129140707817540000000023819684680474802_">
			<use xlink:href="#SVGID_00000088825397391263577180000008349780041002434453_"  style="overflow:visible;"/>
		</clipPath>
		
			<path style="clip-path:url(#SVGID_00000132060129140707817540000000023819684680474802_);fill:none;stroke:#424242;stroke-width:0.72;stroke-linecap:round;stroke-linejoin:round;" d="
			M97.6,251.1c0-0.9,0.7-1.6,1.6-1.7c0.9,0,1.6,0.7,1.7,1.6c0,0.9-0.7,1.6-1.6,1.7l0,0C98.4,252.7,97.6,252,97.6,251.1"/>
	</g>
	<g>
		<defs>
			<rect id="SVGID_00000066493347763327577850000011892722459124091309_" width="195.6" height="280.6"/>
		</defs>
		<clipPath id="SVGID_00000152969434816528837420000004528087312167267486_">
			<use xlink:href="#SVGID_00000066493347763327577850000011892722459124091309_"  style="overflow:visible;"/>
		</clipPath>
		
			<path style="clip-path:url(#SVGID_00000152969434816528837420000004528087312167267486_);fill:none;stroke:#424242;stroke-width:0.72;stroke-linecap:round;stroke-linejoin:round;" d="
			M80.5,247.8c0.1-0.9,0.9-1.6,1.8-1.5c0.8,0.1,1.4,0.7,1.5,1.5c0,0.9-0.7,1.6-1.6,1.6l0,0C81.2,249.4,80.5,248.7,80.5,247.8"/>
	</g>
	<g>
		<defs>
			<rect id="SVGID_00000031909251365692931850000007355205113536377749_" width="195.6" height="280.6"/>
		</defs>
		<clipPath id="SVGID_00000057131209358080054480000000336175794452987557_">
			<use xlink:href="#SVGID_00000031909251365692931850000007355205113536377749_"  style="overflow:visible;"/>
		</clipPath>
		
			<path style="clip-path:url(#SVGID_00000057131209358080054480000000336175794452987557_);fill:none;stroke:#424242;stroke-width:0.72;stroke-linecap:round;stroke-linejoin:round;" d="
			M114.9,247.8c0-0.9,0.7-1.6,1.6-1.7c0.9,0,1.6,0.7,1.7,1.6c0,0.9-0.7,1.6-1.6,1.7l0,0C115.7,249.4,114.9,248.7,114.9,247.8"/>
	</g>
	<g>
		<defs>
			<rect id="SVGID_00000113346526335284385770000017379153630889177515_" width="195.6" height="280.6"/>
		</defs>
		<clipPath id="SVGID_00000079451894041750265860000002578212767018318729_">
			<use xlink:href="#SVGID_00000113346526335284385770000017379153630889177515_"  style="overflow:visible;"/>
		</clipPath>
		<path style="clip-path:url(#SVGID_00000079451894041750265860000002578212767018318729_);fill:#FFFFFF;" d="M80,99.6
			c-12.6,0-22.9,10.2-22.9,30.5c0,25.4,18.2,50.9,40.7,50.9s40.7-25.4,40.7-50.9c0-20.3-10.2-30.5-22.9-30.5
			c-6.9,0-13.5,3.1-17.8,8.5C93.5,102.8,86.9,99.6,80,99.6z"/>
	</g>
	<g>
		<defs>
			<rect id="SVGID_00000096019490133302092230000008137692002218758819_" width="195.6" height="280.6"/>
		</defs>
		<clipPath id="SVGID_00000153684110447875665390000000799990214242449800_">
			<use xlink:href="#SVGID_00000096019490133302092230000008137692002218758819_"  style="overflow:visible;"/>
		</clipPath>
		<path style="clip-path:url(#SVGID_00000153684110447875665390000000799990214242449800_);fill:#FFFFFF;" d="M30.4,112.8h134.7
			c3,0,5.5,2.4,5.5,5.5v44c0,3-2.4,5.5-5.5,5.5H30.4c-3,0-5.5-2.4-5.5-5.5v-44C25,115.3,27.4,112.8,30.4,112.8z"/>
	</g>
	<g>
		<defs>
			<rect id="SVGID_00000075130269878801914790000003853330158294687934_" width="195.6" height="280.6"/>
		</defs>
		<clipPath id="SVGID_00000031911620896162588990000013776965893517654937_">
			<use xlink:href="#SVGID_00000075130269878801914790000003853330158294687934_"  style="overflow:visible;"/>
		</clipPath>
	</g>
	<g>
		<defs>
			<rect id="SVGID_00000026848770743649464710000001287894740526868623_" width="195.6" height="280.6"/>
		</defs>
		<clipPath id="SVGID_00000099662189661077465570000004807310256601274292_">
			<use xlink:href="#SVGID_00000026848770743649464710000001287894740526868623_"  style="overflow:visible;"/>
		</clipPath>
	</g>
	<g>
		<defs>
			<rect id="SVGID_00000006677273324200212150000013159199886692997510_" width="195.6" height="280.6"/>
		</defs>
		<clipPath id="SVGID_00000106852397605747567840000011073605480563771302_">
			<use xlink:href="#SVGID_00000006677273324200212150000013159199886692997510_"  style="overflow:visible;"/>
		</clipPath>
		<path style="clip-path:url(#SVGID_00000106852397605747567840000011073605480563771302_);fill:#FFFFFF;" d="M150.5,0h29h16v16
			c0,7,0,14,0,21c-10.2,12.4-28.6,14.2-41,4S140.3,12.4,150.5,0z"/>
	</g>
	<g>
		<defs>
			<rect id="SVGID_00000103976820003909625330000000145515123487876009_" width="195.6" height="280.6"/>
		</defs>
		<clipPath id="SVGID_00000149357506187712812180000011240650218569363078_">
			<use xlink:href="#SVGID_00000103976820003909625330000000145515123487876009_"  style="overflow:visible;"/>
		</clipPath>
	</g>
</g>
<g class="st38">
	<path class="st39" d="M72.7,150.2h-5.1v-1.8c0-1.1,0-1.8-0.1-2.1s-0.3-0.4-0.7-0.4c-0.3,0-0.5,0.1-0.6,0.4
		c-0.1,0.2-0.2,0.9-0.2,1.9v9.4c0,0.9,0.1,1.5,0.2,1.7s0.3,0.4,0.7,0.4c0.4,0,0.6-0.2,0.8-0.5c0.1-0.3,0.2-0.9,0.2-1.8V155h-1v-3h6
		v10.5h-3.2l-0.5-1.4c-0.3,0.6-0.8,1.1-1.3,1.4c-0.5,0.3-1.2,0.5-1.9,0.5c-0.9,0-1.7-0.2-2.4-0.6c-0.7-0.4-1.3-0.9-1.7-1.5
		c-0.4-0.6-0.6-1.3-0.7-1.9c-0.1-0.7-0.1-1.7-0.1-3V150c0-1.9,0.1-3.2,0.3-4.1c0.2-0.8,0.8-1.6,1.7-2.3c1-0.7,2.2-1.1,3.7-1.1
		c1.5,0,2.7,0.3,3.7,0.9c1,0.6,1.6,1.3,1.9,2.2c0.3,0.8,0.4,2.1,0.4,3.7V150.2z"/>
	<path class="st39" d="M85.6,143v19.6h-4.9v-1.2c-0.5,0.5-1,0.8-1.5,1.1s-1.1,0.4-1.6,0.4c-0.8,0-1.4-0.2-2-0.6
		c-0.6-0.4-0.9-0.9-1.1-1.4s-0.2-1.4-0.2-2.6v-7.5c0-1.2,0.1-2.1,0.2-2.6s0.5-1,1.1-1.4c0.6-0.4,1.2-0.6,2-0.6
		c0.6,0,1.2,0.1,1.7,0.3c0.5,0.2,1,0.5,1.4,1V143H85.6z M80.8,150.6c0-0.6-0.1-1-0.2-1.2c-0.1-0.2-0.3-0.3-0.6-0.3
		c-0.3,0-0.5,0.1-0.6,0.3c-0.1,0.2-0.2,0.6-0.2,1.2v7.9c0,0.7,0,1.1,0.1,1.3c0.1,0.2,0.3,0.3,0.6,0.3c0.3,0,0.5-0.1,0.6-0.3
		c0.1-0.2,0.2-0.8,0.2-1.7V150.6z"/>
	<path class="st39" d="M91.8,152.7h-4.6v-1.1c0-1.2,0.1-2.2,0.4-2.9c0.3-0.7,0.9-1.3,1.7-1.8c0.9-0.5,2-0.8,3.4-0.8
		c1.7,0,2.9,0.3,3.7,0.9c0.8,0.6,1.3,1.3,1.5,2.2c0.2,0.9,0.3,2.6,0.3,5.3v8.1h-4.8v-1.4c-0.3,0.6-0.7,1-1.2,1.3
		c-0.5,0.3-1,0.4-1.7,0.4c-0.9,0-1.6-0.2-2.4-0.7c-0.7-0.5-1.1-1.5-1.1-3.2v-1.3c0-1.2,0.2-2,0.6-2.5c0.4-0.4,1.3-0.9,2.8-1.5
		c1.6-0.6,2.5-1.1,2.6-1.3s0.2-0.7,0.2-1.3c0-0.8-0.1-1.4-0.2-1.6c-0.1-0.3-0.3-0.4-0.6-0.4c-0.3,0-0.5,0.1-0.6,0.3
		c-0.1,0.2-0.1,0.8-0.1,1.7V152.7z M93.3,154.9c-0.8,0.6-1.2,1.1-1.4,1.4s-0.2,0.9-0.2,1.7c0,0.8,0.1,1.4,0.2,1.6
		c0.1,0.2,0.3,0.4,0.6,0.4c0.3,0,0.5-0.1,0.6-0.3s0.1-0.7,0.1-1.5V154.9z"/>
	<path class="st39" d="M104.8,146.5l-0.1,1.5c0.4-0.6,0.8-1,1.3-1.3s1.1-0.4,1.8-0.4c0.8,0,1.5,0.2,2.1,0.6c0.5,0.4,0.9,0.9,1,1.5
		c0.2,0.6,0.2,1.6,0.2,3v11.2h-4.9v-11.1c0-1.1,0-1.8-0.1-2s-0.3-0.4-0.6-0.4c-0.3,0-0.6,0.1-0.7,0.4c-0.1,0.3-0.1,1-0.1,2.2v10.8
		h-4.9v-16H104.8z M109,142.2l-4,3.3h-2.5l2.1-3.3H109z"/>
	<path class="st39" d="M122.8,151.6h-4.3v-0.9c0-0.7,0-1.2-0.1-1.4c-0.1-0.2-0.3-0.3-0.6-0.3c-0.3,0-0.5,0.1-0.6,0.3
		c-0.1,0.2-0.2,0.5-0.2,0.8c0,0.5,0,0.9,0.1,1.1c0.1,0.2,0.3,0.5,0.6,0.8c0.3,0.3,1,0.7,2.1,1.2c1.4,0.7,2.4,1.3,2.8,2
		c0.4,0.6,0.7,1.5,0.7,2.7c0,1.3-0.2,2.3-0.5,3s-0.9,1.2-1.7,1.5s-1.8,0.5-2.9,0.5c-1.2,0-2.3-0.2-3.2-0.6c-0.9-0.4-1.5-0.9-1.8-1.6
		s-0.5-1.7-0.5-3v-0.8h4.3v1c0,0.9,0.1,1.4,0.2,1.7c0.1,0.3,0.3,0.4,0.6,0.4c0.3,0,0.6-0.1,0.7-0.3c0.1-0.2,0.2-0.5,0.2-1.1
		c0-0.8-0.1-1.2-0.3-1.4c-0.2-0.2-1.1-0.8-2.8-1.7c-1.4-0.8-2.3-1.5-2.6-2.2s-0.5-1.4-0.5-2.3c0-1.3,0.2-2.2,0.5-2.8
		c0.3-0.6,0.9-1.1,1.7-1.4c0.8-0.3,1.8-0.5,2.8-0.5c1.1,0,2,0.1,2.7,0.4c0.7,0.3,1.3,0.6,1.7,1.1c0.4,0.4,0.6,0.9,0.7,1.2
		c0.1,0.4,0.1,1,0.1,1.8V151.6z"/>
	<path class="st39" d="M135,146.5l-2,6.4l2.6,9.7h-4.7l-1.5-7l0,7h-4.9V143h4.9l0,8.2l1.5-4.7H135z"/>
</g>
<g class="st38">
	<path class="st39" d="M71.6,124.3h-4.7v-1.5c0-0.7-0.1-1.1-0.2-1.3s-0.3-0.3-0.6-0.3c-0.3,0-0.5,0.1-0.7,0.4
		c-0.2,0.3-0.2,0.6-0.2,1.1c0,0.7,0.1,1.1,0.3,1.5c0.2,0.3,0.6,0.7,1.4,1.2c2.3,1.3,3.7,2.4,4.3,3.3c0.6,0.9,0.9,2.3,0.9,4.2
		c0,1.4-0.2,2.4-0.5,3.1s-1,1.2-1.9,1.7c-0.9,0.4-2,0.7-3.3,0.7c-1.4,0-2.5-0.3-3.5-0.8c-1-0.5-1.6-1.2-1.9-2
		c-0.3-0.8-0.4-1.9-0.4-3.4v-1.3h4.7v2.4c0,0.7,0.1,1.2,0.2,1.4c0.1,0.2,0.4,0.3,0.7,0.3c0.3,0,0.6-0.1,0.8-0.4
		c0.2-0.3,0.2-0.7,0.2-1.2c0-1.2-0.2-1.9-0.5-2.3c-0.3-0.4-1.1-0.9-2.4-1.8c-1.3-0.8-2.1-1.4-2.5-1.8c-0.4-0.4-0.8-0.9-1-1.6
		c-0.3-0.7-0.4-1.5-0.4-2.6c0-1.5,0.2-2.6,0.6-3.3s1-1.2,1.9-1.6c0.9-0.4,1.9-0.6,3.1-0.6c1.3,0,2.4,0.2,3.4,0.6s1.5,1,1.9,1.6
		c0.3,0.6,0.5,1.8,0.5,3.3V124.3z"/>
	<path class="st39" d="M78.6,118.3v19.6h-5v-19.6H78.6z"/>
	<path class="st39" d="M91.4,127.5v3.9c0,1.4-0.1,2.5-0.2,3.2c-0.1,0.7-0.5,1.3-0.9,1.9c-0.5,0.6-1.1,1-1.8,1.3
		c-0.7,0.3-1.6,0.4-2.6,0.4c-1.1,0-2-0.1-2.7-0.4c-0.8-0.2-1.3-0.6-1.7-1.1c-0.4-0.5-0.7-1.1-0.9-1.7c-0.2-0.7-0.3-1.7-0.3-3.1v-4.1
		c0-1.5,0.2-2.7,0.5-3.5c0.3-0.8,0.9-1.5,1.7-2c0.8-0.5,1.9-0.8,3.2-0.8c1.1,0,2,0.2,2.8,0.5c0.8,0.3,1.4,0.8,1.8,1.3
		s0.7,1.1,0.9,1.6C91.3,125.5,91.4,126.4,91.4,127.5z M86.5,126.3c0-0.8,0-1.3-0.1-1.6c-0.1-0.2-0.3-0.3-0.6-0.3
		c-0.3,0-0.5,0.1-0.6,0.3c-0.1,0.2-0.1,0.7-0.1,1.6v7.2c0,0.8,0,1.3,0.1,1.5c0.1,0.2,0.3,0.3,0.6,0.3c0.3,0,0.5-0.1,0.6-0.3
		s0.1-0.7,0.1-1.4V126.3z"/>
	<path class="st39" d="M97.9,121.9l-0.1,1.5c0.4-0.6,0.8-1,1.3-1.3c0.5-0.3,1.1-0.4,1.8-0.4c0.8,0,1.5,0.2,2.1,0.6
		c0.5,0.4,0.9,0.9,1,1.5c0.2,0.6,0.2,1.6,0.2,3v11.2h-4.9v-11.1c0-1.1,0-1.8-0.1-2c-0.1-0.2-0.3-0.4-0.6-0.4c-0.3,0-0.6,0.1-0.7,0.4
		c-0.1,0.3-0.1,1-0.1,2.2v10.8H93v-16H97.9z"/>
	<path class="st39" d="M111,118.3v2.6h-5v-2.6H111z M111,121.9v16h-5v-16H111z"/>
	<path class="st39" d="M117.5,121.9l-0.1,1.5c0.4-0.6,0.8-1.1,1.4-1.4s1.1-0.5,1.8-0.5c1.3,0,2.3,0.6,3.1,1.8
		c0.4-0.6,0.9-1.1,1.4-1.4c0.5-0.3,1.1-0.5,1.7-0.5c0.8,0,1.5,0.2,2.1,0.6c0.5,0.4,0.9,0.9,1,1.5c0.2,0.6,0.2,1.5,0.2,2.8v11.4h-4.7
		v-10.5c0-1.4,0-2.2-0.1-2.5s-0.3-0.5-0.6-0.5c-0.3,0-0.6,0.2-0.7,0.5s-0.2,1.2-0.2,2.6v10.5H119v-10.2c0-1.6,0-2.5-0.1-2.8
		c-0.1-0.3-0.3-0.5-0.6-0.5c-0.2,0-0.4,0.1-0.6,0.2c-0.2,0.2-0.2,0.4-0.3,0.6c0,0.2,0,0.7,0,1.5v11.1h-4.7v-16H117.5z"/>
</g>
<g class="st38">
	<path class="st39" d="M167.7,22.8c0.6,0.2,1,0.5,1.3,1c0.3,0.5,0.4,1.5,0.4,3.2c0,1.3-0.1,2.2-0.4,2.9c-0.3,0.7-0.8,1.2-1.5,1.6
		s-1.6,0.5-2.7,0.5c-1.2,0-2.2-0.2-2.9-0.6s-1.2-0.9-1.4-1.5s-0.3-1.7-0.3-3.2v-1.2h3.9V28c0,0.7,0,1.1,0.1,1.3
		c0.1,0.2,0.3,0.3,0.5,0.3c0.3,0,0.5-0.1,0.6-0.4s0.1-0.8,0.1-1.8v-1.1c0-0.6-0.1-1-0.2-1.3s-0.3-0.5-0.6-0.6
		c-0.3-0.1-0.8-0.1-1.6-0.2V22c0.9,0,1.5,0,1.7-0.1c0.2-0.1,0.4-0.2,0.5-0.5s0.1-0.6,0.1-1.1v-0.9c0-0.6-0.1-0.9-0.2-1.1
		c-0.1-0.2-0.3-0.3-0.5-0.3c-0.3,0-0.5,0.1-0.6,0.3c-0.1,0.2-0.2,0.6-0.2,1.2v1.3h-3.9v-1.3c0-1.5,0.3-2.5,1-3.1
		c0.7-0.5,1.8-0.8,3.3-0.8c1.9,0,3.2,0.4,3.8,1.1c0.7,0.7,1,1.8,1,3.1c0,0.9-0.1,1.5-0.4,1.9C168.7,22.1,168.3,22.5,167.7,22.8z"/>
	<path class="st39" d="M178.3,22.8c0.6,0.2,1,0.5,1.3,1c0.3,0.5,0.4,1.5,0.4,3.2c0,1.3-0.1,2.2-0.4,2.9c-0.3,0.7-0.8,1.2-1.5,1.6
		s-1.6,0.5-2.7,0.5c-1.2,0-2.2-0.2-2.9-0.6s-1.2-0.9-1.4-1.5s-0.3-1.7-0.3-3.2v-1.2h3.9V28c0,0.7,0,1.1,0.1,1.3
		c0.1,0.2,0.3,0.3,0.5,0.3c0.3,0,0.5-0.1,0.6-0.4s0.1-0.8,0.1-1.8v-1.1c0-0.6-0.1-1-0.2-1.3s-0.3-0.5-0.6-0.6
		c-0.3-0.1-0.8-0.1-1.6-0.2V22c0.9,0,1.5,0,1.7-0.1c0.2-0.1,0.4-0.2,0.5-0.5s0.1-0.6,0.1-1.1v-0.9c0-0.6-0.1-0.9-0.2-1.1
		c-0.1-0.2-0.3-0.3-0.5-0.3c-0.3,0-0.5,0.1-0.6,0.3c-0.1,0.2-0.2,0.6-0.2,1.2v1.3h-3.9v-1.3c0-1.5,0.3-2.5,1-3.1
		c0.7-0.5,1.8-0.8,3.3-0.8c1.9,0,3.2,0.4,3.8,1.1c0.7,0.7,1,1.8,1,3.1c0,0.9-0.1,1.5-0.4,1.9C179.3,22.1,178.9,22.5,178.3,22.8z"/>
</g>
</svg>
