<svg id="Слой_1" data-name="Слой 1" xmlns="http://www.w3.org/2000/svg" viewBox="0 0 195.59 280.63"><defs><style>.cls-1,.cls-10,.cls-12,.cls-13{fill:#e94539;}.cls-1,.cls-13{stroke:#fff;}.cls-1,.cls-9{stroke-miterlimit:3.99;}.cls-1,.cls-13,.cls-9{stroke-width:0.5px;}.cls-2,.cls-3{fill:#fff;}.cls-3,.cls-4,.cls-6,.cls-8{stroke:#010101;}.cls-3,.cls-4{stroke-width:0.35px;}.cls-3,.cls-4,.cls-5,.cls-6{fill-rule:evenodd;}.cls-4{fill:#2390cf;}.cls-5{fill:#010101;}.cls-6,.cls-7{fill:#f4e725;}.cls-6,.cls-8{stroke-width:0.4px;}.cls-8,.cls-9{fill:none;}.cls-9{stroke:#c51628;}.cls-10{font-size:19.11px;letter-spacing:0.02em;}.cls-10,.cls-12,.cls-13{font-family:Impact;}.cls-11{letter-spacing:0em;}.cls-12{font-size:24.77px;}.cls-13{font-size:20px;stroke-miterlimit:3.99;}</style></defs><rect class="cls-1" x="-9.21" y="-8.63" width="214.01" height="297.89"/><path class="cls-2" d="M153.18,176.89c0-.11,0-.22,0-.33v-.15c0-.71-.11-1.4-.19-2.1v-.06c-.09-.82-.21-1.64-.34-2.45,0-.22-.08-.44-.12-.66-.1-.56-.2-1.13-.32-1.68l-.21-.89c-.07-.29-.12-.58-.2-.86h0l0-.06h0c0-.18-.1-.35-.15-.52-.1-.38-.21-.75-.31-1.12s-.26-.86-.4-1.29-.25-.73-.38-1.1-.3-.83-.46-1.24-.29-.73-.44-1.09l-.51-1.2c-.16-.36-.33-.72-.5-1.07l-.3-.64v0h0v0l-.24-.43c-.27-.53-.55-1.05-.84-1.57-.13-.22-.24-.45-.37-.67h0a.43.43,0,0,0,0-.07h0l-.12-.21c-.36-.61-.74-1.2-1.13-1.8-.11-.16-.2-.32-.31-.48-.49-.74-1-1.46-1.54-2.17l-.58-.74c-.37-.46-.73-.93-1.11-1.38l-.73-.83c-.35-.4-.72-.81-1.09-1.2l-.35-.4c-.22-.23-.45-.45-.68-.67l-.43-.44c-.56-.55-1.13-1.09-1.72-1.62h0a.27.27,0,0,0-.08-.07h0c-.55-.5-1.12-1-1.7-1.45l-.43-.34c-.46-.38-.93-.74-1.41-1.1l-.64-.47c-.43-.31-.86-.62-1.3-.92l-.68-.46-.38-.26h0c-.46-.3-.93-.59-1.41-.88l-.11-.08c-.71-.42-1.42-.84-2.15-1.24l-.33-.17c-.58-.32-1.18-.63-1.78-.93L124,135c-.53-.26-1.08-.52-1.62-.76l-.63-.28c-.73-.32-1.46-.63-2.21-.92l-.26-.1-2-.73-.82-.27c-.29-.1-.57-.2-.85-.28h0l-.2-.07h0l-.45-.13-1.54-.44-1.15-.32-1.63-.39-1.11-.25c-.58-.13-1.18-.24-1.77-.35-.34-.06-.68-.13-1-.18-.64-.11-1.3-.21-2-.3l-.74-.11h0a70.29,70.29,0,0,0-9-.58,62.45,62.45,0,0,0-8.71.6h-.08l-.81.13c-.67.1-1.33.21-2,.33-.35.06-.69.14-1,.22-.57.11-1.15.23-1.72.36l-1.13.29-1.57.41-1.17.36c-.4.12-.8.23-1.19.36h0l-.2.06h0l-.14.05c-1.08.37-2.15.76-3.2,1.18l-.73.3c-.82.34-1.63.7-2.43,1.07l-.87.41q-1.32.64-2.61,1.35l-.38.2c-1,.54-1.93,1.12-2.87,1.72l-.22.13c-.37.23-.73.48-1.09.73l-.73.49c-.68.47-1.35.95-2,1.45l-.54.42c-.48.38-1,.76-1.43,1.15l-.74.63c-.26.23-.53.45-.78.68h0l-.08.06h0l-.37.34-.49.45-.21.19-.27.28c-.66.63-1.31,1.28-1.94,2l-.55.59c-.64.69-1.25,1.39-1.85,2.1l-.31.38c-.67.82-1.31,1.66-1.93,2.52l-.53.75c-.43.63-.85,1.26-1.26,1.9-.11.17-.23.33-.34.51h0l0,.06h-.45v.7l0,.07c-.51.85-1,1.71-1.44,2.59a2.4,2.4,0,0,0-.11.23c-.41.78-.79,1.58-1.15,2.38-.11.25-.21.51-.32.76-.28.64-.54,1.28-.79,1.93l-.33.91c-.23.62-.44,1.25-.64,1.88-.05.17-.12.34-.17.51h0l0,.06h0c0,.14-.07.29-.12.43-.17.6-.33,1.21-.49,1.82-.08.32-.17.64-.24,1-.15.65-.28,1.3-.4,2l-.18.89c-.13.78-.24,1.58-.34,2.38,0,.16-.05.33-.07.5-.1,1-.18,1.94-.23,2.92a.28.28,0,0,0,0,.09h0v.06h0v.13c0,.79-.07,1.57-.07,2.37l.12,84H153.43Z"/><g id="Слой_1-2" data-name="Слой_1"><path id="path10" class="cls-3" d="M95.53,11.87c-23.07,0-43.52,3-56.91,7.67V46.39a19.53,19.53,0,0,1,0,28c0,22.51,7.6,39,21.06,51.66,11,10.31,27.09,14.57,35.85,25.58,8.76-11,24.85-15.27,35.84-25.58,13.47-12.63,21-29.15,21.07-51.66a19.5,19.5,0,0,1,0-28V19.54C139.05,14.86,118.6,11.87,95.53,11.87Z"/><path id="path12" class="cls-4" d="M95.53,15.51c-22.21,0-41.71,2.88-53.47,7.28V44.52a23.29,23.29,0,0,1,0,31.73c.44,20.39,7.44,36.13,20.55,47.54,10.19,8.87,25.66,13.82,32.92,22.65,7.25-8.83,22.72-13.78,32.91-22.65,13.12-11.41,20.11-27.15,20.56-47.54a23.26,23.26,0,0,1,0-31.73V22.79C137.23,18.39,117.74,15.51,95.53,15.51Z"/><polygon id="polygon14" class="cls-3" points="73.69 30.92 69.14 30.92 67.86 29.32 67.86 34.51 71.99 34.51 71.99 38.27 67.86 38.27 67.86 40.84 71.99 40.84 71.99 44.6 67.86 44.6 67.86 49.29 65.1 49.29 65.1 44.6 60.96 44.6 60.96 40.84 65.1 40.84 65.1 38.27 60.96 38.27 60.96 34.51 65.1 34.51 65.1 29.32 63.81 30.92 59.26 30.92 66.48 21.89 73.69 30.92"/><path id="path16" class="cls-5" d="M61.77,115.27a2.61,2.61,0,0,1,2.93-1.62l-.07,1.84A4,4,0,0,0,61.77,115.27Z"/><path id="path18" class="cls-5" d="M63,112.14a2.6,2.6,0,0,1,3.23-.86l-.52,1.77A3.91,3.91,0,0,0,63,112.14Z"/><path id="path20" class="cls-5" d="M69.73,121.88A2.59,2.59,0,0,1,71,118.77l1.12,1.47a3.9,3.9,0,0,0-2.35,1.64Z"/><path id="path22" class="cls-5" d="M81.28,122.66a2.59,2.59,0,0,0,1.65-2.91l-1.84,0A3.88,3.88,0,0,1,81.28,122.66Z"/><path id="path24" class="cls-5" d="M122.76,121.46a2.59,2.59,0,0,0-2.1-2.6l-.63,1.73a3.92,3.92,0,0,1,2.73.87Z"/><path id="path26" class="cls-5" d="M101.31,118.21a2.59,2.59,0,0,1,2.7-2l.16,1.83A4,4,0,0,0,101.31,118.21Z"/><path id="path28" class="cls-5" d="M101.76,121.67a2.59,2.59,0,0,1,2.31-2.42l.48,1.78A3.94,3.94,0,0,0,101.76,121.67Z"/><path id="path30" class="cls-5" d="M105.92,125.39a2.59,2.59,0,0,1,1-3.2l1.23,1.38A3.85,3.85,0,0,0,105.92,125.39Z"/><path id="path32" class="cls-5" d="M68.3,64a2.59,2.59,0,0,1,3,1.56l-1.58.95A3.87,3.87,0,0,0,68.3,64Z"/><path id="path34" class="cls-5" d="M63.17,70.59a2.57,2.57,0,0,1,3.25-.77l-.56,1.75A3.89,3.89,0,0,0,63.17,70.59Z"/><path id="path36" class="cls-5" d="M65.49,77.35a2.58,2.58,0,0,1,2.14-2.56l.6,1.74a4,4,0,0,0-2.74.82Z"/><path id="path38" class="cls-5" d="M72.72,79.42a2.58,2.58,0,0,0,2.84-1.76l-1.65-.83A3.85,3.85,0,0,1,72.72,79.42Z"/><path id="path40" class="cls-6" d="M87.43,38.6c1.74,2.29,5.15,2.08,8.9,2.09a34.55,34.55,0,0,1,5.32.27c-1.3.08-3.38.26-5.61.55C92.07,42,87.43,43.13,87.43,38.6Z"/><path id="path42" class="cls-7" d="M62.8,53.27a1,1,0,0,1,.57-.58A7.46,7.46,0,0,1,65,52.41l0-.1c-.55,0-1.11,0-1.66,0l-.46,0a1,1,0,0,1-1-.66,1.19,1.19,0,0,1,0-.85.94.94,0,0,1,1-.55l.82.05,1,.06a4.11,4.11,0,0,1-.46-.15,1.49,1.49,0,0,1-.93-1.06,1.23,1.23,0,0,1,0-.57,1.08,1.08,0,0,1,.21-.49,1,1,0,0,1,.85-.29,22.75,22.75,0,0,0,2.3.19A14.32,14.32,0,0,0,69,47.82a3.88,3.88,0,0,1,1.5-.34,2.1,2.1,0,0,1,1.25.37,2.5,2.5,0,0,1,.85,1.09,5.44,5.44,0,0,1,.38,2.1,23.35,23.35,0,0,1,7.54-.73,17.42,17.42,0,0,1,6.9,2,10.32,10.32,0,0,1,4.43-2.69,8.57,8.57,0,0,1,.62-1.29,6.34,6.34,0,0,1,.81-1.08c1.53-1.64,3.79-2.25,6.54-2h.13a1.41,1.41,0,0,0,1-.54,1.9,1.9,0,0,0,.45-1,10.37,10.37,0,0,1-4.34,1c-1.09-.13-1.66-.8-1.52-2.22v0l0,0h0l.15-.12.17-.13a2.2,2.2,0,0,1,1.25-.34h.09v.09c-.09.53.17.77.65.85a10.57,10.57,0,0,0,3.07-.34l.76-.14A2,2,0,0,0,100.36,40a11,11,0,0,0-3.75-.35h0l-.92,0a7.2,7.2,0,0,1-2.21-.09h0c-.55-.18-.8-.56-.55-1.35h0l0-.12h0a1.48,1.48,0,0,0,0-1.37h0l-.15-.24h0a2,2,0,0,1-.11-.26A1.08,1.08,0,0,1,93,34.9h0a2.92,2.92,0,0,1,.44-.32c.16-.1.33-.19.51-.28A7.55,7.55,0,0,1,97,33.68l-.08,0a5.08,5.08,0,0,1,3.82-3,16.83,16.83,0,0,1,6.1.11,2.89,2.89,0,0,0,.5-.75,6.64,6.64,0,0,0,.39-1l0-.12.09.08a3.19,3.19,0,0,1,.86,1.05,3.41,3.41,0,0,1,.3,1.19,1.78,1.78,0,0,0,.58-.22,1.4,1.4,0,0,0,.5-.61l0-.09.08.06a2.27,2.27,0,0,1,.66.8h0a2.75,2.75,0,0,1,.26.9,1.72,1.72,0,0,1,.26.1,2.7,2.7,0,0,1,.35.21h0a2.89,2.89,0,0,1,1.34,2.23h0a3.65,3.65,0,0,1,.85,2.39h-.06a2.65,2.65,0,0,1,.62,2.75,9.75,9.75,0,0,1,.62,1.87l0,.15,0,.09h-.4a1.41,1.41,0,0,1-.49-.16,3.74,3.74,0,0,1,.13.87A6.1,6.1,0,0,1,114,45l-.29.8h0a27.84,27.84,0,0,0-1.45,4.67l0,.22-.11-.19a8.09,8.09,0,0,0-1.83-2.28l0,.3c.2,2.16.41,4.35-1.15,6.06a6.59,6.59,0,0,0-1.46,2.6,7.83,7.83,0,0,0-.18,3.24l0,.13-.13,0a2.89,2.89,0,0,1-1-.64,5.3,5.3,0,0,1-.89-1.16,5.43,5.43,0,0,0-.31,1.28,11.54,11.54,0,0,0,0,1.44v.15h0c0,1.65-.12,3.32-.25,5s-.33,3.55-.54,5.34A21.65,21.65,0,0,1,106,75.14a25.53,25.53,0,0,1,1,3.41c.69,2.9,1.78,5.51,3.09,6.78a3.71,3.71,0,0,0,.79.58,2,2,0,0,0,.81.22h0a2.79,2.79,0,0,0,.66,0A2.37,2.37,0,0,0,114,84.65a7,7,0,0,0,.54-2.63,16.26,16.26,0,0,0-.29-3.51,40.67,40.67,0,0,0-1.57-5.28,26.67,26.67,0,0,1-1.91-8.49c0-2.32.59-5.41,2.43-7.07a4.45,4.45,0,0,1,1.23-.81,4.7,4.7,0,0,1,1.54-.37h.11a4.42,4.42,0,0,1,4.27,2.42,14.52,14.52,0,0,1,1.48,5,2.89,2.89,0,0,1,1.73,1.63,3.82,3.82,0,0,1,.18.51,4.78,4.78,0,0,1,.12.57h0a3,3,0,0,1-.91,2.66,2,2,0,0,1-.42.29l-.08,0a10.73,10.73,0,0,0,.14,2.43c0,.16,0,.31.08.46s0,.27.08.39h0l0,.21-.17-.12a3.27,3.27,0,0,1-1-1.17,6.9,6.9,0,0,1-.56-1.59,3,3,0,0,1-2.26-1.68,4,4,0,0,1-.24-.6,3.52,3.52,0,0,1-.15-.66v0h0a3.22,3.22,0,0,1,.82-2.69,3.9,3.9,0,0,1,.38-.33h0a3,3,0,0,1,.38-.23c-.14-.57-.33-1.19-.53-1.75l-.12-.33-.12-.31h0a2.93,2.93,0,0,0-1-1.25,2.24,2.24,0,0,0-1-.43,2.15,2.15,0,0,0-1.14.16,2.91,2.91,0,0,0-1.25,1c-2.4,3.27-.75,8.26.88,13.19l.07.22.41,1.22c1,2.92,2.19,6.34,1.28,9.2h0a6,6,0,0,1-1.51,2.5,5.54,5.54,0,0,1-2.68,1.44,6,6,0,0,1-3.08-.14,6.53,6.53,0,0,1-2.64-1.62l-.2.53c-.41,1.13-.84,2.31-1.14,3.46-.83,3.11-.73,6,3.24,7.08a25.1,25.1,0,0,1,4.5,1.6,8.55,8.55,0,0,1,3.11,2.42l.13.17-.21,0a17.73,17.73,0,0,0-2.43-.34,11,11,0,0,0-1.91,0,6.81,6.81,0,0,1,2.05,1,4.74,4.74,0,0,1,1.55,2.15l.06.16-.16,0a6.67,6.67,0,0,0-2.52-.51,44.46,44.46,0,0,1,2.13,6.4,25.75,25.75,0,0,1,.75,6.54l.09,0a5.71,5.71,0,0,1,2.19-.5,2.5,2.5,0,0,1,2.17,1.12,1.72,1.72,0,0,1,.19.48,2.44,2.44,0,0,1,.08.56h0v.08h0a1.07,1.07,0,0,1,0,.25,2.79,2.79,0,0,1-.91,1.44,2.35,2.35,0,0,1-1.48.68l-.18,0a4.64,4.64,0,0,1-2.09-1.14l-.33-.31c-.07-.09-.15-.17-.22-.25a13.41,13.41,0,0,1-3,3.34,5.33,5.33,0,0,1-4.43.73,2.52,2.52,0,0,1-1.76-1,1.67,1.67,0,0,1-.26-.94,1.78,1.78,0,0,1,.1-.55,2.5,2.5,0,0,1-2.54-.51,2.14,2.14,0,0,1-.54-.74,1.77,1.77,0,0,1-.16-.84,1.38,1.38,0,0,1,.38-.83h0a3,3,0,0,1-.42-1.53,1.64,1.64,0,0,1,.51-1.14h0a2.49,2.49,0,0,1,1.22-.58,5.29,5.29,0,0,1,2.71.28l.78.26c1.72.59,3.56,1.22,5.3,1.73a28.73,28.73,0,0,0-3.69-8.56,15.18,15.18,0,0,0-5.93-5.32,2.71,2.71,0,0,1-1,1.83,4.24,4.24,0,0,1-.4.31,4.83,4.83,0,0,1-.45.26h0l-.07,0-.15.07,0-.16a8.37,8.37,0,0,0,0-3.09c-.77,1.87-1.76,2.83-3,2.85h-.13l0-.12a11.73,11.73,0,0,0,1.17-3.84,4.62,4.62,0,0,0-1.23-3.55,20.06,20.06,0,0,1-4.84-8.31c-.11-.43-.19-.86-.26-1.29a8.7,8.7,0,0,1-2.36.46,12.25,12.25,0,0,1-2.39-.14h0a4.78,4.78,0,0,0-.64,0,3.48,3.48,0,0,0-.57,0,2.76,2.76,0,0,0-2,1.22c-1.37,1.95-.84,3.71-.24,5.72h0v0h0a29.17,29.17,0,0,1,.84,3.74,32.91,32.91,0,0,1,.36,3.69,4.58,4.58,0,0,1,2.41,2.6A8.3,8.3,0,0,1,89.7,110l0,.21-.12-.17a8.86,8.86,0,0,0-1.12-1.37,7.09,7.09,0,0,0-1.06-.83c.06.11.12.22.17.33s.19.42.27.63a5.62,5.62,0,0,1,.06,3.54l-.06.2-.09-.19a13.27,13.27,0,0,0-.9-1.58,3.76,3.76,0,0,1-1.47.35H85l-.26,0c-.64.78-1.27,1.48-1.91,2.12s-1.23,1.21-1.84,1.75a5.39,5.39,0,0,1,2.29,2,3,3,0,0,1,.2.45,2.63,2.63,0,0,1,.1.47h0a2.83,2.83,0,0,1-.3,1.74,2.06,2.06,0,0,1-.88.85,2,2,0,0,1-1.22.17,2.88,2.88,0,0,1-1.52-.84,3.94,3.94,0,0,1-1-2.64,2.88,2.88,0,0,1,0-.51,1.11,1.11,0,0,1,0-.19,28.76,28.76,0,0,1-2.4,2.41,8.39,8.39,0,0,1-2.6,1.64h0a3.22,3.22,0,0,1-2.27,0h0a1.57,1.57,0,0,1-.31-.18h0a1.43,1.43,0,0,1-.26-.23h0a2,2,0,0,1-.57-1.21,2.06,2.06,0,0,1,.51-1.4,4.38,4.38,0,0,1,1.26-1,35.23,35.23,0,0,1-3.71.31h0l-.85,0h-.89a2.77,2.77,0,0,1-.42,0h0A2.85,2.85,0,0,1,64.5,116a1.76,1.76,0,0,1-.59-1.35c0-.06,0-.12,0-.18h0l.06-.34a2,2,0,0,1,1.08-1.4h0a4.23,4.23,0,0,1,1.17-1.86,5.26,5.26,0,0,1,1.91-1.18,4,4,0,0,1,2.41-.07,5.2,5.2,0,0,1,2.37,1.49l1.2,1,1,.79h0a4.6,4.6,0,0,0,1.83,1,1.84,1.84,0,0,0,1.8-.77h0a24.42,24.42,0,0,0,1.91-1.9,14.55,14.55,0,0,0,1.73-2.39,16,16,0,0,0,1.12-7,8.7,8.7,0,0,0-2.93-5.73,4.77,4.77,0,0,1-3.5,2.47,2.89,2.89,0,0,1-.83,0,2.68,2.68,0,0,1-.8-.26h0l-.12-.06.11-.08.51-.35a6.22,6.22,0,0,0,3-3.64,6.39,6.39,0,0,1-2,1.31,2.21,2.21,0,0,1-2.07-.17l-.1-.07.1-.07a6.38,6.38,0,0,0,2.86-3.43,4.86,4.86,0,0,0,.18-.86,5.8,5.8,0,0,0,0-.94v0c0-.33,0-.67-.06-1-.13-1.89-.26-3.75,1.52-5.19a5,5,0,0,1,3.52-.93,16.37,16.37,0,0,1,4,.82l.41.14c1,.33,2,.69,2.74-.68a23.51,23.51,0,0,1,1.56-2.58c.53-.78,1.09-1.51,1.66-2.22a35.31,35.31,0,0,1-4-7.3,8,8,0,0,1-1-1.45,6.12,6.12,0,0,1-.74-3,5.81,5.81,0,0,0-.88-.25h0a6.26,6.26,0,0,0-.74-.1,8,8,0,0,1,1.3,2,5.46,5.46,0,0,1,.47,2.35v.12l-.11,0c-3.64-1.59-8.4.24-10.63,1.09h0l-.27.1c0,.13,0,.28,0,.44a19,19,0,0,1,.14,3.11c-.09,1.61-.6,3-2.2,2.92l-.25,0a1.24,1.24,0,0,1-.79-.93,4.32,4.32,0,0,1-.12-1.5,6.78,6.78,0,0,1,.17-1.21,13.27,13.27,0,0,1-2.84,2.11,4.2,4.2,0,0,1-1.67.5,1.86,1.86,0,0,1-1.46-.55,2.51,2.51,0,0,1-.46-.65,2.37,2.37,0,0,1-.25-.77h0a1.69,1.69,0,0,1,.79-1.6,6,6,0,0,1,2.09-.86l.16,0-1,0c-.82,0-1.63,0-2.15,0h0a1.43,1.43,0,0,1-1.3-.94,1.85,1.85,0,0,1-.11-.78,2.23,2.23,0,0,1,.19-.8,1.89,1.89,0,0,1,1.69-1.16,24.18,24.18,0,0,1,3.16.17c.51.05,1,.13,1.55.21A6.38,6.38,0,0,1,69.4,67.8h0a1.77,1.77,0,0,1-.27-1.53,2.2,2.2,0,0,1,.56-.92,2.27,2.27,0,0,1,.94-.57,2,2,0,0,1,1.73.21,8.15,8.15,0,0,1,2.47,2.85c.14.25.29.51.43.79s.25.51.38.77a28.27,28.27,0,0,0,7.58-4.79,11.6,11.6,0,0,0,3.59-5.73h0c0-.39.08-.74.12-1l-.24.15a5.47,5.47,0,0,0-1.48,1.54l-.15.23V59.5a14.57,14.57,0,0,1,0-1.63,14.7,14.7,0,0,0-1.27-.76,16.3,16.3,0,0,0-1.51-.7A16.46,16.46,0,0,0,73,55.26a5.86,5.86,0,0,0-1.7.73h0a6.85,6.85,0,0,1-1.39.65h0l-.34.08-.33,0a1.75,1.75,0,0,1-1.52-.6h0l-.4.05c-.51.07-1.11.15-1.56.19h0A1.18,1.18,0,0,1,64.65,56h0a.78.78,0,0,1-.17-.37h0a.73.73,0,0,1,0-.39h0a.82.82,0,0,1,.67-.54l.39-.08,0-.09a13.13,13.13,0,0,1-1.7.09,1.09,1.09,0,0,1-.85-.36,1,1,0,0,1-.22-.46,1,1,0,0,1,0-.49Z"/><path id="path44" class="cls-8" d="M74.82,115.93c-2-.42-5.91,1.88-3.93,4.07a2.63,2.63,0,0,0,2.76.42c1.72-.6,3.44-2.31,5.16-4.24a4,4,0,0,0,1,3.55c1.76,1.76,4.06.59,3.78-1.85-.12-1.1-1-2.1-2.65-2.94a33.46,33.46,0,0,0,3.86-4,3.57,3.57,0,0,0,2.13-.34M94,88.77a9.57,9.57,0,0,1-4.74.33A3.19,3.19,0,0,0,86,90.35c-1.39,2-.85,3.78-.24,5.83a29.77,29.77,0,0,1,1.2,7.46c2.54,1.23,3,3.53,2.66,6.31a7.43,7.43,0,0,0-2.49-2.41,5.55,5.55,0,0,1,.66,4.74,7.44,7.44,0,0,0-2.16-2.91M74.4,114.52c-2.24-.35-4.29-1.4-6.06-1.79s-4.09-.4-4.34,1.79c-.13,1.16.86,2.13,2.58,2.16a35.33,35.33,0,0,0,6.07-.41m20.71-38a29.24,29.24,0,0,0-3.24,4.81c-.86,1.64-2.12.94-3.24.59-2.54-.8-5.58-1.41-7.44.09-2.06,1.67-1.51,3.93-1.42,6.12a5.9,5.9,0,0,1-3.12,5.33c1.26.8,2.68.08,4.16-1.33-.72,2.62-2.19,3.33-3.58,4.32,1.82.89,4.06-.33,5.08-2.24,3.77,3.36,3.68,8,1.91,12.87a17.85,17.85,0,0,1-3.66,4.32c-1.25,1.45-2.5.75-3.74-.25-.65-.48-1.38-1-2.25-1.74a4.51,4.51,0,0,0-7.73,1.58M101.27,48.9C101,51.63,102.5,52.37,103,55c1.89-2.45,4-5.36,3.32-8.55a8.07,8.07,0,0,1-.35-3.23,3.06,3.06,0,0,0,2.69,2A4.21,4.21,0,0,1,111,46.36a5.11,5.11,0,0,0-.45-3.41,10.87,10.87,0,0,1-1.25-3.27m-6.23,15c-.34,3.46.33,5.7,2,6.72a6.51,6.51,0,0,1,.42-2.9,3.92,3.92,0,0,0,1.91,1.91,7,7,0,0,1,1.66-5.9c1.65-1.82,1.29-4.18,1.09-6.48a7.6,7.6,0,0,1,2,2.41A32.75,32.75,0,0,1,113.91,45a4.69,4.69,0,0,0-.42-4.74M89,62c-3.45,5.88-.35,9.78,5.74,12.79-.89-5.19-.81-9.94,2.74-13.13,1,1.47,2.19,2.75,4.33,2.66a6.38,6.38,0,0,1-.17-6.31m-3.32-7.81a8.44,8.44,0,0,1-.92,4.4c2.19-.39,3-2,4.57-2.41M98.6,47.66c-3.27,0-5.54,1.1-6.82,3.32a11.65,11.65,0,0,1,4.75.41c-4.18,1.54-8.12,2.87-9.52,6.3,3.14-1,4.79.7,7.44-1.89m-5.16,15c1.44,3.9,4,7.44,6.15,10.38-3,6.22-1.06,11.83,3.75,17.2,2,2.29,1.25,4.84.08,7.47,1.22,0,2.22-1,3-3.07a8.49,8.49,0,0,1,0,3.41,3.08,3.08,0,0,0,1.92-2.5c4.92,2.36,8,7.34,9.81,14.12-2-.59-4.24-1.35-6.22-2-2.93-1-5.34.26-3.93,2.87m9.4.24c-3.06-1.15-5.94-1.5-8.56-.66s-.54,4.33,2.16,3.22m6.9-1.31a19.08,19.08,0,0,0-4.9,0c-2.78.51-3,3.44-.25,3.94,3.67.83,5.49-1.38,7.46-4.12a5.06,5.06,0,0,0,2.65,1.75c1,.19,2.5-1.18,2.51-2.27a2.17,2.17,0,0,0-2.36-2.16,6.25,6.25,0,0,0-2.36.57c.12-4.49-1.15-8.82-2.91-13.12a6.64,6.64,0,0,1,2.66.5,5.27,5.27,0,0,0-3.91-3.24,13.76,13.76,0,0,1,4.74.25c-1.46-2-4.24-3.11-7.57-4-5.81-1.54-3.47-7-1.91-11.3,3.23,3.32,8.48,2.31,9.87-2,1-3.24-.66-7.24-1.7-10.37-1.65-5-3.39-10.13-.94-13.49a2.51,2.51,0,0,1,4.55.51,20.61,20.61,0,0,1,.79,2.48,3,3,0,0,0-1.6,3.19,3.13,3.13,0,0,0,2.64,2.89,4.49,4.49,0,0,0,1.49,2.77,12.31,12.31,0,0,1-.29-3.36m-.37.12a2.64,2.64,0,0,0,1.77-3,3.06,3.06,0,0,0-2-2.67c-.48-3.23-1.58-7.56-5.68-7.35s-5.26,4.95-5.23,8.18c.06,5,2.52,9,3.48,13.76.43,2.14.92,7.85-2.66,7.72-2.06-.08-3.83-3.58-4.79-7.65A21.06,21.06,0,0,0,104.3,72a106,106,0,0,0,.79-10.59M87.28,57.58a5.32,5.32,0,0,0-2.12,1.92c-.08-4.4,1.42-8,6.71-9.82,1.27-3.39,4.11-4.69,7.9-4.37a1.76,1.76,0,0,0,1.73-1.75c-3.69,1.44-6.14,1.58-5.87-1.14a2.09,2.09,0,0,1,1.53-.59c-.27,1.59,2.38.86,4.64.44.19-2.69-2.23-2.8-5.19-2.75-2.1,0-4.22.46-3.65-1.3.18-.55.39-1.06.05-1.56s-.56-1.22,0-1.69a6.42,6.42,0,0,1,4.23-1.21,8.8,8.8,0,0,1,6.24,3.18M97,33.68c1.45-3.32,5.28-3.56,9.87-2.81a4.52,4.52,0,0,0,.94-1.83A2.9,2.9,0,0,1,109,31.32a1.52,1.52,0,0,0,1.24-.9,2.4,2.4,0,0,1,.9,1.7A2.94,2.94,0,0,1,113,34.6m-1.63-.86A3.11,3.11,0,0,1,113.86,37m-2-1.19c1.84.7,3.12,2.1,2.53,3.92m-6.5-5.25a29.17,29.17,0,0,1,5.89,4.4,6.45,6.45,0,0,1,1.27,2.91,1.5,1.5,0,0,1-.94-.27M87.63,66c-1.09-2-.89-6.68-.54-8.39M73.57,72.51c-1.54-.07-7.87.4-6.28,3.51,1.45,2.85,5.14-.27,6.51-1.63-.31,1-.61,3.77.85,3.86,2.82.17,2.09-4.59,1.93-6.44,2-.78,7.16-2.9,11-1.21a6.67,6.67,0,0,0-1.88-4.49,6.31,6.31,0,0,1,1.88.39M73.65,69.9a31.36,31.36,0,0,0-6.37-.67c-2.1,0-2.53,3.37-.47,3.52.93.06,2.87-.07,4,0M86.89,58.89c-1,4.18-4.86,7.69-11.29,10.62a10.35,10.35,0,0,0-3.28-4.45c-1.73-1.1-4,1-2.85,2.69.61.9,2,1.45,3.08,2M68.94,53a2.47,2.47,0,0,1-.16-3.2,6.13,6.13,0,0,1-4.47.23c-1.24-.45-1.23-2.41.08-2.25A17.66,17.66,0,0,0,69,47.9c2.32-1,3.88.21,3.88,3.24C78.17,49.8,83,50.06,87.38,52.4m-4.63,2.49a3.75,3.75,0,0,1,2.61,2m-.16,1c-2.78-1.89-7.87-3.57-12.24-2.64-1.25.27-1.93,1-3.09,1.38a1.88,1.88,0,0,1-2.11-.44m-.91-1.66c1.67-.23,1.58,1.53.87,1.62-.53.07-1.39.18-2,.24-1.25.11-1.66-1.35-.56-1.58.48-.11,1.07-.2,1.67-.28Zm-3.45-1.7a.91.91,0,0,0,.44,1.74,17.87,17.87,0,0,0,2.81-.24c1.31-.18.8-1.8-.36-1.82a11.31,11.31,0,0,0-2.89.32Zm-.51-2.49a1,1,0,1,0,0,1.9,16,16,0,0,0,3.17,0,.88.88,0,0,0-.12-1.74c-1,0-2-.07-3-.12Z"/><path id="глаз" class="cls-5" d="M100.3,33.28a1.24,1.24,0,0,1,1.24,1.23,1.26,1.26,0,0,1-.16.61,8.83,8.83,0,0,0-2.24-1,1.25,1.25,0,0,1,1.16-.79Z"/></g><g id="layer1"><g id="g4564"><g id="g4544"><path id="path1737" class="cls-1" d="M76.35,225.37V218H70.63l4,7.37Zm0-14.83v-4H61.55v4Z"/><path id="path1655" class="cls-1" d="M83.87,242.15v-2.07H82.74Zm0-9.53v-7.37H74.61l4,7.37Z"/><path id="path1661" class="cls-1" d="M96.46,262.29l2.47-4.51v-2.86H90.88l4,7.37Zm2.47-14.83v-7.38H83.77V242l3,5.5Zm0-14.84v-1.1l-.58,1.1Zm-5.91,0-3.87-7.37H83.77v7.37Z"/><path id="path1663" class="cls-1" d="M91.4,255v-7.38H86.87l4,7.38Zm0-14.84v-7.37H78.73l4,7.37Z"/><path id="path1667" class="cls-1" d="M98.82,258l1.68-3.06H98.82Zm5.76-10.52,4-7.38H98.82v7.38Zm8.13-14.84L114,230.3v-5.05H102.21l-3.39,6.47v.9Z"/><path id="path1669" class="cls-1" d="M95.69,263.7l.69-1.25H95Zm4.77-8.71,4-7.38H91.29V255Zm6-14.84v-7.37H98.27l-2.58,4.94-2.59-4.94H91.29v7.37Z"/><path id="path1683" class="cls-1" d="M113.88,230.5l2.87-5.25h-2.87Z"/><path id="path1685" class="cls-1" d="M108.59,240.15l4-7.37h-6.28v7.37Z"/><path id="path1729" class="cls-1" d="M68.82,214.7v-4.23H61.55v.19h5Z"/><path id="path1735" class="cls-1" d="M83.87,217.85v-7.38H68.71v4l1.84,3.35Z"/><path id="path1743" class="cls-1" d="M98.93,217.85v-1.72H86.74l-2.45-5.47,2.69,0v-.21h-3.2v7.38Z"/><path id="path1745" class="cls-1" d="M89.22,225.37l-2.67-5.08H91.4V218H76.24v7.37ZM87,210.54l-.15-4H76.24v4Z"/><path id="path1749" class="cls-1" d="M114,217.85v-7.38H104.4v.21l2.66,0-2.42,5.47H98.82v1.72Z"/><path id="path1751" class="cls-1" d="M106.46,225.37V218H91.29v2.29H104.8l-2.66,5.08Zm0-14.83v-4h-1.93l-.13,4Z"/><path id="path1757" class="cls-1" d="M120.81,217.85l3.94-7.19H129v-.19H113.88v7.38Z"/><path id="path1759" class="cls-1" d="M116.69,225.37l4-7.37H106.35v7.37Zm4.82-14.83v-4H106.35v4Z"/><path id="path1763" class="cls-1" d="M129.8,210.66v-.19h-.87v.19Z"/><path id="path1765" class="cls-1" d="M129.8,210.54v-4h-8.39v4Z"/></g><path id="path6847" class="cls-1" d="M137.28,143.62a54.83,54.83,0,0,0-6.54-5v5Z"/><rect id="rect4700" class="cls-1" x="122.29" y="191.73" width="17.9" height="11.95"/><rect id="use4704" class="cls-1" x="104.4" y="191.73" width="17.9" height="11.95"/><rect id="use4710" class="cls-1" x="53.89" y="191.8" width="17.89" height="11.95"/><rect id="rect4726" class="cls-1" x="130.74" y="179.72" width="17.9" height="11.95"/><rect id="use4730" class="cls-1" x="112.85" y="179.72" width="17.9" height="11.95"/><rect id="rect4734" class="cls-1" x="44.45" y="179.78" width="17.89" height="11.95"/><rect id="use4736" class="cls-1" x="62.34" y="179.78" width="17.89" height="11.95"/><rect id="rect4752" class="cls-1" x="122.29" y="167.71" width="17.9" height="11.95"/><rect id="use4756" class="cls-1" x="104.4" y="167.71" width="17.9" height="11.95"/><rect id="use4762" class="cls-1" x="53.89" y="167.76" width="17.89" height="11.95"/><path id="rect4778" class="cls-1" d="M148.64,167.64v-9.27Q148,157,147.2,155.7H130.75v11.94Z"/><rect id="use4782" class="cls-1" x="112.85" y="155.7" width="17.9" height="11.95"/><rect id="rect4786" class="cls-1" x="44.45" y="155.74" width="17.89" height="11.95"/><rect id="use4788" class="cls-1" x="62.34" y="155.74" width="17.89" height="11.95"/><path id="rect4804" class="cls-1" d="M140.19,155.63v-9.21c-.9-.94-1.85-1.85-2.83-2.73H122.29v11.94Z"/><rect id="use4808" class="cls-1" x="104.4" y="143.69" width="17.9" height="11.95"/><path id="use4814" class="cls-1" d="M71.78,155.68v-12H55c-.36.32-.71.65-1.06,1v11Z"/><path id="use4834" class="cls-1" d="M130.75,143.62v-5A60.26,60.26,0,0,0,116,131.68h-3.11v11.94Z"/><path id="rect4838" class="cls-1" d="M62.34,143.66v-5.55A57,57,0,0,0,55,143.66Z"/><path id="use4840" class="cls-1" d="M80.22,143.66v-12H75.78a59.81,59.81,0,0,0-13.44,6.41v5.55Z"/><path id="use4744" class="cls-1" d="M112.85,191.67V179.72h-8.46v11.95Zm0-24v-12h-8.46v12Zm0-24v-12h-8.46v12Z"/><path id="use4860" class="cls-1" d="M115.75,131.61a67.07,67.07,0,0,0-11.35-2.47v2.47Z"/><path id="use4702" class="cls-1" d="M153.53,203.68l0-12H140.19v12Zm0-24v-3.24a47.56,47.56,0,0,0-1.37-8.7H140.19v11.94Zm-6.33-24a48.62,48.62,0,0,0-7-9.21v9.21Z"/><path id="use4720" class="cls-1" d="M71.78,203.75h14.9V191.8H71.78Zm14.9-24v-12H71.78v12Zm0-24v-12H71.78v12Zm0-24v-2.47A61.59,61.59,0,0,0,76,131.64Z"/><path id="use4728" class="cls-1" d="M153.51,191.67l0-12h-4.84v12Zm-1.41-24a47.21,47.21,0,0,0-3.45-9.27v9.27Z"/><path id="use4738" class="cls-1" d="M44.45,191.74v-12H37.36v12Zm0-24V156.44a50.87,50.87,0,0,0-5,11.26Z"/><path id="rect4708" class="cls-1" d="M53.89,203.75V191.8H37.37l0,11.95Zm32.79-12v-12H80.22v12Zm-32.79-12v-12H39.45a50,50,0,0,0-2.09,12Zm32.79-12v-12H80.22v12Zm-32.79-12v-11a54.54,54.54,0,0,0-9,11Zm32.79-12v-12H80.22v12Z"/><path id="path8865" class="cls-9" d="M153.76,266.29l-.25-89.4c-1.57-28.36-27.08-48.32-58.13-48.32-32.06,0-58.08,24-58.08,53.7l.11,84Z"/></g></g><path class="cls-2" d="M77.4,99.39c-12.64,0-22.88,10.17-22.88,30.52,0,25.43,18.21,50.86,40.68,50.86s40.69-25.43,40.69-50.86c0-20.35-10.25-30.52-22.89-30.52a22.92,22.92,0,0,0-17.8,8.5,22.9,22.9,0,0,0-17.8-8.5Zm0,0"/><rect class="cls-2" x="22.38" y="112.61" width="145.64" height="54.95" rx="5.46"/><text class="cls-10" transform="translate(51.04 160.34)">A<tspan class="cls-11" x="10.18" y="0">. Kujawski</tspan></text><text class="cls-12" transform="translate(57.25 139.68)">Slonim</text><path class="cls-2" d="M44.89,0l-29,0h-16L0,16q0,10.48,0,21A29.11,29.11,0,0,0,51.41,18.3,28.92,28.92,0,0,0,44.89,0Z"/><text class="cls-13" transform="translate(15.51 31.75)">44</text></svg>