<?xml version="1.0" encoding="utf-8"?>
<!-- Generator: Adobe Illustrator 26.0.1, SVG Export Plug-In . SVG Version: 6.00 Build 0)  -->
<svg version="1.1" id="Слой_1" xmlns="http://www.w3.org/2000/svg" xmlns:xlink="http://www.w3.org/1999/xlink" x="0px" y="0px"
	 viewBox="0 0 195.6 280.6" style="enable-background:new 0 0 195.6 280.6;" xml:space="preserve">
<style type="text/css">
	.st0{clip-path:url(#SVGID_00000132068956388255551530000011302334358118124214_);fill:#424242;}
	.st1{clip-path:url(#SVGID_00000065766892996575816160000006980373772476081839_);}
	.st2{fill-rule:evenodd;clip-rule:evenodd;fill:#A91916;}
	.st3{fill-rule:evenodd;clip-rule:evenodd;fill:#3D82C3;stroke:#FFFFFF;stroke-width:1.46;}
	.st4{fill:#424242;}
	.st5{fill:#E30D13;}
	.st6{fill:url(#_159040976_00000123418266511312874320000000971277010337902258_);}
	.st7{fill:url(#_158281424_00000124156530857896564670000011493535519380948373_);}
	.st8{fill:url(#_158295352-4_00000056399317786374313720000002505877921175569289_);}
	.st9{fill:#FBBA10;}
	.st10{fill:url(#_158295352_00000020367784304558652990000005903598842052343731_);}
	.st11{fill-rule:evenodd;clip-rule:evenodd;fill:#424242;}
	.st12{fill-rule:evenodd;clip-rule:evenodd;fill:#FFFFFF;}
	.st13{fill:#FFFFFF;}
	.st14{fill:none;stroke:#FFFFFF;stroke-width:1.22;}
	.st15{clip-path:url(#SVGID_00000145033026286746689200000006330780310828747669_);}
	.st16{fill-rule:evenodd;clip-rule:evenodd;fill:#029340;}
	.st17{fill-rule:evenodd;clip-rule:evenodd;fill:#86BD31;}
	.st18{fill:#BA9850;}
	.st19{fill:#E52521;}
	.st20{fill-rule:evenodd;clip-rule:evenodd;fill:#BA9850;}
	.st21{clip-path:url(#SVGID_00000041996409400035498250000012181380040342297740_);fill:#FFFFFF;}
	.st22{clip-path:url(#SVGID_00000012439459362477128070000005593038602417511553_);fill:#FFFFFF;}
	.st23{clip-path:url(#SVGID_00000021084498937086712260000014101966253643631254_);fill:#FFFFFF;}
	.st24{enable-background:new    ;}
	.st25{fill:#3D82C3;}
</style>
<g>
	<g>
		<defs>
			<rect id="SVGID_1_" width="195.6" height="280.6"/>
		</defs>
		<clipPath id="SVGID_00000150785681045374556980000017338407771961729156_">
			<use xlink:href="#SVGID_1_"  style="overflow:visible;"/>
		</clipPath>
		
			<rect x="-9.2" y="-8.4" style="clip-path:url(#SVGID_00000150785681045374556980000017338407771961729156_);fill:#424242;" width="214" height="297.9"/>
	</g>
	<g>
		<defs>
			<rect id="SVGID_00000136407984150122147090000000298683472820956309_" width="195.6" height="280.6"/>
		</defs>
		<clipPath id="SVGID_00000157303706043651177820000001449692001922466198_">
			<use xlink:href="#SVGID_00000136407984150122147090000000298683472820956309_"  style="overflow:visible;"/>
		</clipPath>
		<g id="layer1" style="clip-path:url(#SVGID_00000157303706043651177820000001449692001922466198_);">
			<path id="path3029" class="st2" d="M124.6,74.9c1.1,0,2,0.9,2,2v2c0,1.1-0.9,2-2,2h-2v-6H124.6z M124.6,82.8c2.2,0,4-1.8,4-4v-2
				c0-2.2-1.8-4-4-4h-4v9.9L124.6,82.8z M116.6,72.9h2v9.9h-2V72.9z M112.6,72.9h2v9.9h-2l-4-6.2v6.2h-2v-9.9h2l4,6.2V72.9z
				 M82.9,72.9h5.9v2h-4v2h4v2h-4v2h4v2h-5.9V72.9z M75,72.9h2v7.9h4v2h-6V72.9z M95.8,80.9h2c1.7,0,3-1.3,3-3s-1.3-3-3-3h-2v2h2
				c0.6,0,1,0.4,1,1s-0.4,1-1,1h-2V80.9z M97.8,71c3.8,0,6.9,3.1,6.9,6.9s-3.1,6.9-6.9,6.9s-6.9-3.1-6.9-6.9l0,0
				C90.9,74.1,94,71,97.8,71L97.8,71z M92.8,77.9c0,2.8,2.2,5,4.9,5c2.8,0,5-2.2,5-4.9c0-2.8-2.2-5-4.9-5l0,0
				C95.1,73,92.9,75.2,92.8,77.9L92.8,77.9z"/>
			<path id="щит" class="st3" d="M97.8,144.9c3.4-5.9,8.8-9.4,15.2-11.7c12.5-4.6,26.3-5.6,34.5-17.9c4.8-7.2,6.4-16.2,5.9-26.3
				c-4.1-4.4-6.8-11.2-6.8-19s2.7-14.6,6.8-19V19.1c-18.1-5.2-36.8-7.9-55.6-8c-18.8,0.1-37.5,2.8-55.6,8V51
				c4.1,4.4,6.8,11.2,6.8,18.9s-2.7,14.6-6.8,19c-0.4,10.2,1.2,19.1,5.9,26.3c8.2,12.3,22,13.3,34.5,17.9
				C89,135.5,94.3,139,97.8,144.9L97.8,144.9z"/>
			<path id="_158253176" class="st4" d="M92.2,44.5l1.7,0.9c-1.4,1.5-5,2.4-6.3,0.2C89.3,46.2,90.7,45.7,92.2,44.5z"/>
			<path id="_48675496" class="st5" d="M88.1,45.9c1.2,1.3,4.2,0.7,5.3-0.5L92,44.8C91,45.8,89.5,46.2,88.1,45.9z"/>
			<path id="_158281688" class="st4" d="M89.5,47c1.2,0.1,3.3-0.2,4.3-1.4l1.2-0.3l0.7,1.3C93.9,48.6,91.4,49.2,89.5,47z"/>
			
				<linearGradient id="_159040976_00000024708053074052319360000016847804863733373866_" gradientUnits="userSpaceOnUse" x1="-647.0927" y1="182.0556" x2="-647.5627" y2="181.6156" gradientTransform="matrix(3.54 0 0 -3.54 2383.27 691.699)">
				<stop  offset="0" style="stop-color:#F4E600"/>
				<stop  offset="1" style="stop-color:#FBBA10"/>
			</linearGradient>
			<path id="_159040976" style="fill:url(#_159040976_00000024708053074052319360000016847804863733373866_);" d="M95.4,46.6l-0.5-1
				l-0.8,0.1c-0.7,1.2-2.8,1.5-3.8,1.6C91.9,48.8,94,48,95.4,46.6z"/>
			<path id="_158281376" class="st4" d="M92.5,40.7l2.8,4.9c-1.4,0.4-2.9,0.1-4-0.8c-0.9-0.9-2.4-0.9-3.4,0
				C87.2,41.2,90,40.1,92.5,40.7L92.5,40.7z"/>
			
				<linearGradient id="_158281424_00000111871612760519122110000016061297848377621391_" gradientUnits="userSpaceOnUse" x1="-652.7385" y1="160.9659" x2="-653.0886" y2="161.4059" gradientTransform="matrix(4.87 0 0 -4.87 3268.6699 826.206)">
				<stop  offset="0" style="stop-color:#F4E600"/>
				<stop  offset="1" style="stop-color:#FBBA10"/>
			</linearGradient>
			<path id="_158281424" style="fill:url(#_158281424_00000111871612760519122110000016061297848377621391_);" d="M88,44.4
				c1.1-0.7,2.5-0.6,3.4,0.3c0.9,0.7,2.1,1,3.2,0.8L92.3,41c-0.5-0.1-1.1-0.1-1.6-0.1l0,0C89,41,87.8,42.5,88,44.2
				C88,44.2,88,44.3,88,44.4z"/>
			<path id="_158221176" class="st4" d="M122.7,102.2c0.3,0.2,0.6,0.6,0.6,1c1.4,1,1.1,2.5,0.2,3.7l-0.1-0.3
				c-0.2-0.8-0.6-1.4-1.3-1.8c0,0.1-0.1,0.2-0.1,0.2c-0.9,0.4-1.9,0-2.2-0.9c0-0.1-0.1-0.2-0.1-0.3c-0.5-0.2-1-0.4-1.4-0.7l0.2,0.3
				l0,0c0.4,0.4,0.7,0.6,0.8,1.3c0,0.3,0,0.6-0.1,0.9c0.7,1.3,0.1,2.4-1.3,3.2c0.2-0.8,0.3-1.7-0.5-2.3l-0.1,0.1
				c-0.6,0.1-1.2-0.2-1.5-0.7c-0.4-0.5-0.4-1.2-0.1-1.8l-0.8-1.3c-0.6-0.9-1-1.1-1.9-0.4c-0.1,0.9-0.8,1.5-1.7,1.5
				c-0.4,0-0.8-0.3-1.1-0.6c-0.8,0.2-1.6,0.7-2.1,1.4c-0.6-1.2-0.1-2.6,1-3.2c0.2-1.3,1.4-1.4,2.6-1.4c0.6,0,1.2-0.4,0.8-1l-3-4.8
				l2.8-1.3l3.7,5.4c0.8,1.2,2.4,1,3.7,0.8c1-0.1,2.7-0.5,3.4,0.3c1.9,0,2.6,1.2,2.6,2.9c-0.6-0.7-1.5-1.1-2.4-0.9
				C123.3,101.8,123,102,122.7,102.2L122.7,102.2z"/>
			
				<radialGradient id="_158295352-4_00000160884332175200532940000008014539456907060629_" cx="-1151.8013" cy="-4.0933" r="4.05" gradientTransform="matrix(-2.77 0 0 -2.77 -3074.04 89.7733)" gradientUnits="userSpaceOnUse">
				<stop  offset="0" style="stop-color:#F4E600"/>
				<stop  offset="1" style="stop-color:#FBBA10"/>
			</radialGradient>
			<path id="_158295352-4" style="fill:url(#_158295352-4_00000160884332175200532940000008014539456907060629_);" d="M123,101.4
				c-0.3-0.5-0.3-1.2-0.1-1.7c-0.5-0.6-1.9-0.4-3.2-0.2s-3.1,0.4-4-0.9l-3.5-5.2l-2.2,1l2.8,4.5c0.6,0.9-0.2,1.5-1.1,1.5
				s-2,0.1-2.2,1.1c0.6,0.3,1,0.9,1,1.7c0.5,0.5,1.3,0.5,1.8,0.1c0.3-0.2,0.4-0.6,0.4-0.9c1-0.9,1.7-0.8,2.4,0.4l0.9,1.5
				c-0.3,0.5-0.3,1.1,0,1.6c0.2,0.4,0.7,0.6,1.1,0.6c0.4-0.5,1-0.8,1.7-0.8c0.1-0.2,0.1-0.5,0.1-0.8c-0.1-0.7-0.6-1-1-1.5
				s-0.8-1.2-1-1.8l0.3-0.1c0.1,0.4,0.3,0.7,0.5,1.1c0.7,0.5,1.4,0.9,2.1,1.2c0.1,0.8,0.9,1.3,1.6,1.2c0.1,0,0.1,0,0.2-0.1
				c0.2-0.6,0.6-1.1,1.2-1.4c0-0.5-0.3-0.9-0.8-1c-0.3-0.1-0.6-0.2-0.9-0.3c-0.7-0.3-1.4-0.7-2.1-1.1l0.3-0.2c0.6,0.4,1.2,0.7,1.9,1
				C121.8,101.9,122.6,102.2,123,101.4L123,101.4z"/>
			<path id="_48676072" class="st9" d="M123.2,99.8c-0.2,0.4-0.2,0.9,0,1.3c0.7-0.1,1.5,0,2.1,0.4
				C125.2,100.5,124.3,99.7,123.2,99.8L123.2,99.8z M123.2,103.5c-0.4,0.2-0.7,0.5-0.9,0.9c0.6,0.4,1.1,1,1.3,1.7
				C124.1,105.2,124,104.2,123.2,103.5z M119,105.8c-0.5-0.1-1,0.1-1.3,0.4c0.6,0.4,0.8,1.1,0.7,1.8
				C119.2,107.6,119.4,106.6,119,105.8z M110.2,102.9c0-0.5-0.4-1-0.9-1.2c-0.8,0.5-1.2,1.4-1,2.3
				C108.8,103.5,109.4,103.1,110.2,102.9L110.2,102.9z"/>
			<path id="_158207592" class="st4" d="M72.9,102.2c-0.3,0.2-0.6,0.6-0.6,1c-1.4,1-1.1,2.5-0.2,3.7l0.1-0.3l0,0
				c0.2-0.8,0.6-1.4,1.3-1.8c0,0.1,0.1,0.2,0.1,0.2c0.9,0.4,1.9,0,2.2-0.9c0-0.1,0.1-0.2,0.1-0.3c0.5-0.2,1-0.4,1.4-0.7l-0.2,0.3
				l0,0c-0.4,0.4-0.7,0.6-0.8,1.3c-0.1,0.3,0,0.6,0.1,0.9c-0.7,1.3-0.1,2.4,1.3,3.2c-0.2-0.8-0.3-1.7,0.5-2.3l0.1,0.1
				c0.6,0.1,1.2-0.2,1.5-0.7c0.4-0.5,0.4-1.2,0.1-1.8l0.8-1.3c0.6-0.9,1-1.1,1.9-0.4c0.1,0.9,0.9,1.5,1.7,1.5c0.4,0,0.8-0.3,1.1-0.6
				c0.8,0.2,1.6,0.7,2.1,1.4c0.6-1.2,0.1-2.6-1-3.2c-0.2-1.3-1.4-1.4-2.6-1.4c-0.6,0-1.2-0.4-0.8-1l3-4.8L83.2,93l-3.6,5.4
				c-0.8,1.2-2.4,1-3.7,0.8c-1-0.1-2.7-0.5-3.4,0.3c-1.9,0-2.6,1.2-2.6,2.9c0.6-0.7,1.5-1.1,2.4-0.9C72.3,101.8,72.6,102,72.9,102.2
				z"/>
			<path id="_158281304" class="st9" d="M72.4,99.8c0.2,0.4,0.2,0.9,0,1.3c-0.7-0.1-1.5,0-2.1,0.4C70.4,100.5,71.3,99.7,72.4,99.8
				L72.4,99.8z M72.4,103.5c0.4,0.2,0.8,0.5,1,0.9c-0.7,0.4-1.2,1-1.4,1.7C71.5,105.3,71.6,104.2,72.4,103.5L72.4,103.5z
				 M76.7,105.8c0.5-0.1,1,0.1,1.3,0.4c-0.6,0.4-0.8,1.1-0.7,1.8C76.5,107.6,76.2,106.6,76.7,105.8z M85.5,102.9
				c0-0.5,0.4-1,0.9-1.2c0.8,0.5,1.2,1.4,1,2.3C86.9,103.5,86.2,103.1,85.5,102.9L85.5,102.9z"/>
			
				<radialGradient id="_158295352_00000005233278658219008790000010023381009155649448_" cx="-512.2487" cy="-4.0933" r="4.05" gradientTransform="matrix(2.77 0 0 -2.77 1497.91 89.7733)" gradientUnits="userSpaceOnUse">
				<stop  offset="0" style="stop-color:#F4E600"/>
				<stop  offset="1" style="stop-color:#FBBA10"/>
			</radialGradient>
			<path id="_158295352" style="fill:url(#_158295352_00000005233278658219008790000010023381009155649448_);" d="M72.6,101.4
				c0.3-0.5,0.3-1.2,0.1-1.7c0.5-0.6,1.9-0.4,3.2-0.2s3.1,0.4,4-0.9l3.5-5.2l2.2,1l-2.8,4.5c-0.6,0.9,0.2,1.5,1.1,1.5s2,0.1,2.2,1.1
				c-0.6,0.3-1,0.9-1,1.7c-0.5,0.5-1.3,0.5-1.8,0.1c-0.3-0.2-0.4-0.6-0.4-0.9c-1-0.9-1.7-0.8-2.4,0.4l-0.9,1.5
				c0.3,0.5,0.3,1.1,0,1.6c-0.2,0.4-0.7,0.6-1.1,0.6c-0.4-0.5-1.1-0.8-1.7-0.8c-0.1-0.2-0.1-0.5-0.1-0.8c0.1-0.7,0.6-1,1-1.5
				s0.8-1.2,1-1.8l-0.3-0.1c-0.1,0.4-0.3,0.7-0.5,1.1c-0.7,0.5-1.4,0.9-2.1,1.2c-0.1,0.8-0.9,1.3-1.6,1.2c-0.1,0-0.1,0-0.2-0.1
				c-0.2-0.6-0.6-1.1-1.2-1.4c0-0.5,0.3-0.9,0.8-1c0.3-0.1,0.6-0.2,0.9-0.3c0.7-0.3,1.4-0.7,2.1-1.1l-0.3-0.2
				c-0.6,0.4-1.2,0.7-1.9,1c-0.5,0.2-1.3,0.5-1.6-0.2L72.6,101.4z"/>
			<path id="path40" class="st11" d="M92.1,50.9c0.2,0.3,0.5,0.6,0.9,0.6c-0.7,1.2-1,2.7-2.1,3.1c0.2,0.4,0.6,0.7,1,0.7
				c-1.4,1.3-2.4,3.7-4.3,3.5c-1.4-0.1-2.4-0.9-0.9-2.1c1.7-1.3,2.4-3.6,0.9-5.5c-1.5-1.8-3.3-3.4-5.3-4.6c-1.2-0.8-2.4-1.9-2.2-3.7
				c-0.7,0.3-1.2,0.9-1.3,1.7c-4.2-2.5-7.8-6.1-7.7-8.3c-0.7,0.5-1.1,1.3-1.1,2.1c-5.1-4.1-9.3-8.6-11.4-12.6
				c-0.7-1.4-1.2-1.2-1.7-0.1c-1.1,2.5-0.1,5.5,1.2,8c1.6,3,3.5,5.7,5.8,8.2c-2.8-1-5.1-2.9-6.7-5.4c-1-1.4-1.6-0.8-1.6,0.5
				c0.2,4.2,3.5,8.8,8.2,13.5c-1.9-0.7-3.6-1.8-5.1-3.2c-1.3-1.3-1.9-0.7-1.4,1c1.5,5.1,6,8.2,9.8,11.3c-2-0.4-3.8-1.1-5.5-2.2
				c-0.8-0.5-1.5-0.7-0.8,1c1.5,4.1,5.9,6.3,10.8,8.1c-1.3,0.3-2.6,0.3-3.8,0.1c-0.9-0.1-1.5-0.2-0.5,1.2c2.3,3.1,7.2,3.7,12,4.6
				c-1.9,0.3-3.8,0.2-5.7-0.1c-0.6-0.1-0.7,0.3-0.2,0.9c2.5,3.2,6.8,2.6,10.5,2.9c-0.5,1.1-1.6,1.6-2,2.4c2.9,0.4,5.8-1.2,8.8,0.3
				c1.6,0.8,1,4.2-1.1,3c-2.3-1.2-4.1-0.8-5.3,1.3c-1.5,2.6-2.7,5.7-4.1,6.1l1,0.7c-0.5,0.9-1.4,1.6-2.4,2c0.7,0.6,1.6,0.9,2.5,0.9
				c0.1,0.8,0,1.6-0.2,2.3c1,0,2-0.2,3-0.6c0.4,1.3,1.2,2.4,2.2,3.2c0.1-0.9,0.4-1.7,1-2.4c0.4,0.8,1.1,1.5,2,1.8
				c-0.1-0.9,0-1.8,0.3-2.7l0.8,0.7c0.1-1.2,0.5-2.4,1.2-3.4c1.2-1.3,1.9-0.5,2,0.6c0,3.9-0.4,7.4-2.5,9.8c0.8,0.3,1.6,0.5,2.5,0.4
				c-1.4,2.8-3.7,5.2-6.6,6.6c1,0.6,2.1,1.1,3.2,1.3c-2.5,1.6-6.8,1.5-10.7,0.8c1.3,4.2,5.9,6.4,13.1,6.6c-1.4,1.8-3.4,3-5.7,3.4
				c1.3,2,5.3,2.6,8.8,1.5c-0.8,1.1-1.8,2.1-3,2.7c2.8,2.6,4.6,6.1,5,9.8c0.4-3.8,2.2-7.3,5-9.8c-1.2-0.7-2.2-1.6-3-2.7
				c3.5,1.1,7.5,0.5,8.8-1.5c-2.2-0.5-4.6-1.7-5.7-3.4c7.2-0.1,11.9-2.3,13.1-6.6c-3.8,0.7-8.1,0.8-10.7-0.8
				c1.1-0.3,2.2-0.7,3.2-1.3c-2.8-1.4-5.1-3.7-6.5-6.5c0.9,0.1,1.7-0.1,2.5-0.4c-2.1-2.5-2.5-5.9-2.5-9.8c0-1.1,0.8-2,1.9-0.6
				c0.7,1,1.1,2.2,1.2,3.4l0.8-0.7c0.3,0.9,0.4,1.8,0.3,2.7c0.9-0.3,1.6-1,2-1.8c0.6,0.7,0.9,1.5,1,2.4c1-0.9,1.8-2,2.2-3.3
				c1,0.3,2,0.5,3,0.6c-0.2-0.7-0.4-1.4-0.3-2.2c0.9,0,1.8-0.3,2.5-0.9c-1-0.4-1.8-1.1-2.4-2l1-0.7c-1.4-0.4-2.6-3.5-4.1-6.1
				c-1.3-2.1-3-2.6-5.3-1.3c-2.2,1.1-2.8-2.3-1.1-3c3-1.4,5.9,0.2,8.8-0.3c-0.4-0.9-1.5-1.4-2-2.4c3.8-0.4,8,0.3,10.5-2.9
				c0.5-0.6,0.4-1-0.2-0.9c-1.9,0.3-3.8,0.4-5.7,0.1c4.8-0.8,9.7-1.5,12-4.6c1.1-1.4,0.5-1.4-0.5-1.2c-1.3,0.2-2.6,0.2-3.8-0.1
				c4.9-1.8,9.3-4,10.8-8.1c0.6-1.7,0-1.5-0.9-1c-1.7,1-3.6,1.8-5.5,2.2c3.9-3.1,8.3-6.2,9.8-11.3c0.5-1.6-0.1-2.3-1.4-1
				c-1.5,1.3-3.2,2.4-5.1,3.2c4.8-4.7,8-9.3,8.2-13.5c0.1-1.3-0.6-1.9-1.6-0.5c-1.6,2.4-4,4.3-6.7,5.3c2.3-2.5,4.2-5.2,5.8-8.2
				c1.3-2.5,2.3-5.5,1.2-8c-0.5-1.1-0.9-1.3-1.6,0.1c-2.1,4-6.3,8.4-11.4,12.6c0-0.8-0.4-1.6-1.1-2.1c0.2,2.2-3.4,5.8-7.7,8.3
				c-0.1-0.7-0.6-1.4-1.3-1.6c0.2,1.8-0.9,2.9-2.2,3.7c-2,1.2-3.8,2.8-5.3,4.6c-1.5,1.9-0.7,4.2,0.9,5.5c1.5,1.2,0.5,2.2-0.9,2.1
				c-1.9,0-3.5-1.5-3.5-3.4c0-0.1,0-0.1,0-0.2c0.4,0.1,0.9-0.1,1.2-0.4c-0.9-0.7-0.7-2.2-1-3.6c0.4,0,0.7-0.1,1-0.3
				c-0.5-0.4-0.8-1-0.9-1.7c-0.8-2.7-0.4-5.3-2.2-7.5c1.5-1,2.5-2.2,2.3-3.9c-1.7,0.6-3.6,0.7-5.4,0.3c-4.3-1-6.7,0.6-8,2.6
				c1.2,1,0.9,1.9,1.4,3.1c0.4,1.3,1.4,2.3,2.6,2.8C93.9,47.7,93,50.6,92.1,50.9L92.1,50.9z"/>
			<circle id="circle42" class="st5" cx="94.4" cy="41.9" r="0.9"/>
			<path id="path44" class="st12" d="M97.8,123.2c-0.5,1.3-1.4,2.5-2.6,3.2c1.3,1.2,2.2,2.8,2.6,4.5c0.4-1.7,1.3-3.3,2.6-4.5
				C99.2,125.7,98.3,124.6,97.8,123.2z M97.8,114.8c-1.8,3.2-4.2,5.9-7.6,6.8c2.2,1.3,5.8,0.2,7.6-2.2c1.9,2.3,5.1,3.4,7.6,2.2
				C101.9,120.6,99.6,117.9,97.8,114.8z M97.8,112.4c-4.4,4-11.4,5.3-15.6,1c6,0.6,11.5-0.9,15.6-6.5c4.1,5.6,9.6,7.1,15.6,6.5
				C109.2,117.7,102.2,116.4,97.8,112.4z M97.8,105.5c-2.2,2.6-4.4,4-7.2,3.4c3.3-2.3,5.9-5.6,7.2-9.4c1.4,3.8,3.9,7.1,7.2,9.4
				C102.2,109.5,100,108.1,97.8,105.5z"/>
			<path id="path46" class="st13" d="M93.4,41c0.9-0.6,2.2-0.6,3,0.2l-0.2,0.6c-0.7-0.7-1.7-0.9-2.6-0.3L93.4,41L93.4,41z"/>
			<path id="path48" class="st14" d="M70.1,40.9c0.5,1.5,1.3,2.9,2.5,4c-1.2-0.1-2.3,0.1-3.4,0.5c-0.2,2,1.7,3.8,3,5.6
				c-1.2,0.6-2.6,1-3.4,2.2c1.3,2.6,3.3,2.9,5,3.9c-0.9,1-1.9,1.8-2.1,3.4c1.2,1.5,3,1.6,4.7,2c-0.5,1.3-1.3,2.5-1,3.9
				c1.8,0.8,3.1,0.4,4.5,0.4c-0.1,1.1-0.1,2.3,0.2,3.4c1.4,0.2,2.9,0.2,4.3-0.2c-0.1,1.2,0,2.3,0.4,3.5c1.5,0.4,3.2,0.1,4.4-1
				 M78.8,46.2c0,0.6,0.2,1.2,0.7,1.6c-1.1,0.2-2.1,0.8-3,1.5c0.3,1.3,0.9,2.4,1.8,3.4c-1,0.5-2,0.8-2.2,1.5c0.3,1.1,1.6,2,2.9,2.9
				c-0.5,0.8-0.8,1.6-0.9,2.5c1.1,1.1,2.2,0.9,3.4,0.9c-0.4,1-0.6,2.1-0.5,3.2c0.9,0.5,2,0.7,3,0.6c-0.1,1.1,0,2.2,0.3,3.2
				c1.1,0.2,2.2-0.1,3.2-0.7c0.1,1,0.3,1.9,0.7,2.8c1.2-0.1,2.2-1,2.6-2.1 M90.4,59.4c1.1-0.1,2.2-0.5,3.2-1.1
				c0.3,1,0.9,1.9,1.7,2.5c1-0.2,2-1.2,3-2c0.8,0.8,1.7,1.5,2.8,2c0.7-0.6,1.4-1.4,1.8-2.2c0.5,0.5,1.3,0.8,2,0.7 M93.3,54.5
				c0.7,0.1,1.3-0.1,1.8-0.5c0.4,0.6,1,1.1,1.6,1.6c0.8-0.3,1.4-0.8,2-1.4c0.5,0.6,1,1,1.7,1.3c0.6-0.4,1.2-0.9,1.7-1.5
				c0.4,0.3,0.9,0.5,1.4,0.5 M94,50.8c0.7,0,1.4-0.2,2-0.6c0.5,0.5,1,1,1.6,1.3c0.7-0.3,1.3-0.8,1.8-1.3c0.5,0.5,1.1,0.9,1.7,1.2
				c0.7-0.4,1.2-0.9,1.7-1.5c0.2,0.4,0.7,0.5,1.1,0.5 M96.6,47.7c0.2,0.2,0.5,0.3,0.7,0.4c0.4-0.1,0.8-0.6,1.3-1.2
				c0.5,0.4,1.2,0.8,1.9,0.9c0.6-0.4,1-1,1.1-1.7 M116.8,46.2c0,0.6-0.2,1.2-0.7,1.6c1.1,0.2,2.1,0.8,3,1.5
				c-0.3,1.3-0.9,2.4-1.8,3.4c1,0.5,2,0.8,2.2,1.5c-0.3,1.1-1.6,2-2.9,2.9c0.5,0.8,0.8,1.6,0.9,2.5c-1.1,1.1-2.2,0.8-3.4,0.9
				c0.4,1,0.6,2.1,0.6,3.2c-0.9,0.5-2,0.7-3,0.6c0.1,1.1,0,2.2-0.3,3.2c-1.1,0.2-2.2-0.1-3.2-0.7c-0.1,1-0.3,1.9-0.6,2.8
				c-1.2-0.1-2.2-0.9-2.6-2.1 M125.6,40.9c-0.5,1.5-1.3,2.9-2.5,4c1.2-0.1,2.3,0.1,3.4,0.5c0.2,2-1.7,3.8-3,5.6
				c1.2,0.6,2.6,1,3.4,2.2c-1.3,2.6-3.3,2.9-5,3.9c0.9,1,1.9,1.8,2.1,3.4c-1.2,1.4-3,1.6-4.7,2c0.5,1.2,1.3,2.5,1,3.9
				c-1.8,0.8-3.1,0.4-4.5,0.4c0.1,1.1,0.1,2.3-0.2,3.4c-1.4,0.2-2.8,0.2-4.2-0.2c0.1,1.2-0.1,2.3-0.4,3.4c-1.5,0.4-3.2,0.1-4.4-1
				 M113.3,89.7c-0.6,0.1-1.2,0.1-1.8,0c-0.1,1-0.5,1.9-1,2.7c-0.9,0.1-1.9,0-2.8-0.2c-0.2,0.6-0.5,1.1-0.8,1.6 M92.2,84.9
				c0.5,0.8,1.1,1.5,1.8,2.1c0.4-0.2,0.7-0.5,1-0.8c0.8,0.9,1.7,1.7,2.7,2.5c1-0.7,2-1.6,2.8-2.7c0.3,0.4,0.8,0.7,1.2,0.9
				c0.6-0.5,1.1-1.1,1.5-1.8 M82.5,89.6c0.6,0.1,1.2,0.1,1.8,0c0.1,1,0.5,1.9,1,2.7c1,0.1,1.9,0,2.8-0.3c0.2,0.6,0.5,1.1,0.8,1.6"/>
		</g>
	</g>
	<g>
		<defs>
			<rect id="SVGID_00000153671521261570137110000006100431401353898156_" width="195.6" height="280.6"/>
		</defs>
		<clipPath id="SVGID_00000053515066084941733020000014437609075924825472_">
			<use xlink:href="#SVGID_00000153671521261570137110000006100431401353898156_"  style="overflow:visible;"/>
		</clipPath>
		<g id="g1319" style="clip-path:url(#SVGID_00000053515066084941733020000014437609075924825472_);">
			<path id="path1309" class="st12" d="M156.9,266.8H38.7c0.2-46.9,1.9-98.9,58.8-123.5C156.4,170.3,156.9,221.7,156.9,266.8z"/>
			<g id="g2440">
				<g id="g2217">
					<g id="g2208">
						<path id="path2194" class="st16" d="M97.5,242.7c0.4-1.6,0.3-3.3-0.2-4.9c-1.1-3.1-0.8-6.1-0.3-9.1l-2.4-0.8
							c0.9,2.6-0.2,5.2,0.5,7.4c0.7,2.4,1.5,4.5,1.4,7.4L97.5,242.7z"/>
						<path id="path2196" class="st16" d="M94.6,233.1c-9.1-3.8-8.7,2.6-9.3,7.2C88,237.3,91.1,234.9,94.6,233.1z"/>
						<path id="path2198" class="st17" d="M94.5,233.2c-3.2,1.5-6.1,3.7-8.5,6.5c2.5-1.1,5.1,0.1,7-1.2
							C95,236.6,94.4,233.8,94.5,233.2"/>
					</g>
					<path id="path2213" class="st16" d="M96.6,230.8c3.8,2.4,7.2,5.5,9.8,9.1C99.3,240.5,97.2,236.4,96.6,230.8z"/>
					<path id="path2215" class="st17" d="M106.5,240c-2.8-3.1-5.1-6.4-9.8-9.1C105.1,230.1,105.8,236.2,106.5,240z"/>
				</g>
				<path id="path2513" class="st18" d="M110.8,227.7c4.2-6,5.8-7.3,7.6-10.3c4.8-0.1,15.6,9.9,14.4,18.9
					c-1.4,10.1-11,13.1-16.8,15.9c-8.3,6-6.6,7.7-7.5,10c-3.2-1.3-2-10.1,3-15.2c1.9-1.9,9.2-6.7,6.2-13.2
					C116.3,230.4,113.1,229.2,110.8,227.7 M82.1,226c-1.8,0.9-10,2.6-8.9,10c1.1,8,10.3,12.7,11.7,14.9c0.7,1.1,2.5,8.9-1,10.3
					c-0.4-4.6-3.5-8.4-7.8-9.9c-6.3-2.4-13-5.7-16.1-13.4c-3.6-9,3.5-17.4,11.2-20.4L82.1,226z"/>
				<path id="path2500" class="st19" d="M97.4,241.4c2.6-3.9,7.8,0,6,4.1c-0.7,1.6-3.7,0.2-4.4,1.3c-0.6,0.9,0.3,1.1,1.5,0.5
					c1.4-0.7,3.1-0.9,3.9,0c1.7,1.9,0.4,6.4-2.9,6.5c-2.1,0-2.3-5.3-3.3-4.2s2.9,3.1,1.7,5.4c-0.8,1.4-5.9,2.2-6.5-1.6
					c-0.3-1.9,3.3-2.8,2-3.7c-1.6-1.1-0.7,3.5-3.4,3.6c-3.2,0.2-5.7-5.4-2.1-7.3c2-1,3.8,2.3,4.1,0.3s-3.1,0.8-4-2.2
					c-0.7-2.2,1.7-4.3,3-4.6c1.5-0.2,2.9,0.6,3.5,2c0.8,1.2-1.7,3.7,0.2,3.7C98.1,245.2,96.7,242.4,97.4,241.4z M95.5,248
					c0.4,1.7,2.7,1.4,2.5-0.6S95.1,246.5,95.5,248z"/>
				<path id="path1311" class="st13" d="M104.8,165.4c6.2,6.6,1.6,7.1,1.4,10.4c-0.6,1.9,5.2,16.1,7.4,17.3
					c2.6,6.9,4.6,4.8,3.3,13.5c-0.5,3.6,7.4,2.2,8.7,2.2c1,0,10.6,4,11,4.5c2.5,3.7-9.7,6.3-13.9,3.8c-10.9,9.7-23.7,8.4-25.5,8.5
					c-21,1.6-20.6-5.9-26.8-9.2c-4.5,2-13.8-2.2-13.1-4.6c1.3-5,20.2-3.6,18.5-6.9c-1.8-3.5,3.1-15.2,6-17l4.2-12.5
					c0,0-4.2-5.5,2.7-11.2C89.4,163.7,100.4,161.6,104.8,165.4z"/>
				<path id="path2238" class="st11" d="M114.3,188.1c3.4,1.5,2.1,6.6,4.3,9.3c3,2.4,2.4,5.8,1.8,9.3l3.5-0.9
					c7.4-0.5,9.3,7,15.2,6.2c2.2,0,2.5,3,1.1,4.7c-7.7,4.4-12.8,4.4-16.9,2.7c-2.1,4.4-5.9,7.9-10.5,9.6c-2.5-0.3-5.1-0.4-7.6-0.3
					c-4.2,2.4-8.2-0.8-11.3,0.5c-2,1.3-4.1,0.9-6.1-0.2c-11.8-0.6-16.6-5.9-17.8-9.6c-5.7,0.6-12.4-2.9-15.4-5.3
					c-1-0.8-1.2-2.2-0.5-3.3c0.2-0.3,0.6-0.6,0.9-0.7c4.4,0.4,9.6-7.8,15.4-6.1c1.4,0.6,3.3,1.2,4.4,0.7c-1.1-5.6,0.2-9,3-10.9
					c0.5-3.4,2.2-6.5,4.9-8.6c0.5-3.9,1.2-7.5,2.9-9.7c-0.5-2.1-1.6-4.5-1.4-6.5c0.2-1.7,1.8-2.1,2.2-3.4c8.4-7.7,18.5-4.4,23,1.2
					c6.8,6.4-2.6,6.3,1.5,12.8C112.8,181.7,111.1,186.3,114.3,188.1z M134.3,216.5c-0.4,2.1-10.5,1.9-11.4,0.8
					c-2.8-0.9-0.7-2.2,1-1.7c2.8,1,5.9,1.2,8.8,0.6C133.5,215.8,134.8,216.2,134.3,216.5L134.3,216.5z M117,218
					c-0.6,0-0.8-2.5-1.3-2.8c-0.5,0.1-1.2,2-1.6,1.6c-0.4-0.2-0.1-1,0.5-2.1c0.4-0.9,0.8-2.3,1.5-2.1C117,214.4,118.1,216.3,117,218
					z M102.6,225.7c0.6-0.1,0.4-1,1.3-2.4c0.8-1.2,1.3-2.4,0.1-3.3c-0.5-0.2-0.7,2.1-1.2,3.2C102,224.4,101.7,225.4,102.6,225.7
					L102.6,225.7z M112.7,217.6c0.7-0.4,0.9,0.3,0.8,0.8c-0.5,1.1-1.3,2-2.3,2.6c-0.5,0.3-0.7,0-0.8-0.5l-0.1-4.8h-0.7l-2.3,4.8
					c-0.3,0.7-1,1.3-1.8,0.1l-2.2-5.2c-0.7-1.3,0.1-1.6,0.5-0.9c1,1.1,1.8,2.3,2.3,3.7c0.3,0.7,0.5,0.5,0.8,0.4c1.1-1.4,2-5.2,3-5.2
					c2.3,0.6,0.7,5.8,2.1,5L112.7,217.6z M101.8,217c0.4-1-0.2-1.3-0.8-0.6c-1.4,0.6-2.2,4-4,5.5c-0.3-0.6-0.6-1.1-0.1-3
					c1.3-2.1,1.6-3.5,1-3.4c-2,0.9-1.4,4-4.2,5.9c-0.8,1-0.1,1.9,0.6,1.2L95,222c0.6-0.4,1.2-0.2,1.2,0.4l-0.2,1.7
					c0,0.4,0.5,1.1,1.2-0.2C100.4,221,100.9,219.1,101.8,217L101.8,217z M93.5,221.3c-0.7-0.3,0-2.2,0.4-2.3
					C94.7,219.5,94.4,220.6,93.5,221.3L93.5,221.3z M86.7,223.7c0.8-0.3,0.8-2.2,0.1-2.3C85.8,221.4,85.9,223.8,86.7,223.7
					L86.7,223.7z M85,223.9c0.4-0.2,0-0.9-0.3-1.5c-0.3-0.9-0.6-1.1-1-0.9s-0.3,0.8,0.3,1.5C84.6,223.9,84.8,224,85,223.9L85,223.9z
					 M89.8,225.3c1.1-1.2,0.4-2.3,2-4.2c0.7-1.1,1.3-2.2,0.8-2.5c-1-0.8-2,1.9-3.1,2.8c-0.3,1.2,0.7,2-0.1,3.5
					C89.4,225.3,89.5,225.5,89.8,225.3L89.8,225.3z M88,219.8c-0.2-1.1,1-2.5,0.4-2.8s-1.6-0.2-1.6,1.7l0.3,1.5
					C87.7,220.4,87.8,220.1,88,219.8z M72.1,214.8c-0.3,2.3-3.4,1.8-5.1,1.7c-3.2-0.6-7.9-1.9-7.1-2.6c0.1-0.4,0.6-0.4,1,0
					c2.9,1.1,6,1.2,9,0.3c0.6-0.5,1.5-0.4,2,0.3C72,214.5,72.1,214.7,72.1,214.8L72.1,214.8z M75.4,213c1.3,0,1.2-4,3.4-5.1l1.7-1.4
					c0.9-0.6,0.1-1.4-0.5-0.9C75.6,207.6,75.5,209.6,75.4,213L75.4,213z M77.6,203.9l2.1-1c-0.2-4.9,3.4-5,5.9-3.1l1.1-2
					C81.9,194.9,77.3,195.9,77.6,203.9L77.6,203.9z M84,200.7c-0.2-0.8-1-1.3-1.8-1.1c-0.1,0-0.2,0.1-0.3,0.1
					c-0.6,0.2-1,0.9-0.9,1.5c0,0.6,0.3,0.8,0.8,0.6L84,200.7z M80.7,207.3c0.1,0.8,1.1,0.5,1.7,0.1c2.4-2.5,1.9-3.1,1.9-4
					c-0.6-0.2-1.4,0-1.5,1.5C81.9,206.2,80.1,206.8,80.7,207.3z M85.3,204.6c0.8,0.1,1.1-0.7,1.5-1.3s1-1.5,0.3-1.9
					c-0.3,0-0.8,0.7-1.3,1.5S84.8,204.3,85.3,204.6z M85.8,206.2c0.9,0.2,1.5-0.6,2-1.3c1.4-2.6,0.6-2.9,0.1-2.8
					C87.8,204.2,84.7,205.2,85.8,206.2z M89.4,206.3c0.8-0.4,1-2.6,2.4-4.3c0.7-1,0.8-2.3,0.4-3.4c-0.5-2-0.7-4.1-0.6-6.1
					c0.1-0.5-0.2-1-0.7-0.4c-0.5,1.1-0.9,2.7-0.2,6.1c0.4,1,0.3,2.1-0.3,3.1C88.6,204.4,88.7,205.4,89.4,206.3z M89,199
					c-0.2-2.4-0.2-4.8,0.2-7.2c0.5-0.6,0-0.8-0.4-0.5c-0.7,0.4-1.6,5-0.5,8C88.5,199.8,89,199.6,89,199z M85.4,190.3
					c-0.4,0-0.8-0.4-0.4-0.8l2.4-1.7c0.8-0.3,1.4,0.4,0.8,1.2L85.4,190.3z M89.2,188c0.4-3,0.7-5.8,0.9-8.6c0.2-1,0.7-0.9,0.9-0.4
					c1.1,3.3,0.5,7.2-1.2,9.1C89.5,188.3,89.2,188.6,89.2,188z M86.7,186.3l1.3-1.8c0.5-0.5,1.3-0.3,1,0.6c-0.9,1.6-1.9,2.7-3.2,2.3
					C85.3,186.8,85.9,186.3,86.7,186.3L86.7,186.3z M87.7,183.7c-0.7,0.1-0.8-0.3-0.4-0.7c0.4-0.6,0.8-1.2,1.2-1.8
					c0.8-1.2,1.6-0.4,1.1,0.6C88.9,182.3,88.5,183.3,87.7,183.7L87.7,183.7z M117.1,205.3l-2.4-0.8c0.7-3.6-2.6-5.6-5.8-3.4l-1-2.2
					C112.4,196.1,118.8,199,117.1,205.3L117.1,205.3z M113.2,203.3l-2.4-1.4c-0.3-0.2-0.3-0.5-0.2-0.8l0.1-0.1
					C113,199.6,114.3,202.2,113.2,203.3L113.2,203.3z M115.5,208.8c0.3,0.4,1,0.1,0.7-0.7c-2.6-5.2-8.3-2.7-9.9-7.9
					c-0.1-1.3-1.2-1.3-1.2-0.2C104.8,206.2,112.8,204.5,115.5,208.8L115.5,208.8L115.5,208.8z M106.7,196.4c0.2,1.1-0.1,1.4-0.9,1.1
					c-0.9-0.9-1.6-3.4-0.6-4C106.2,193.3,105.5,195.4,106.7,196.4L106.7,196.4z M106.1,192.7c-0.4-0.8,0.7-1.3,0.9-0.3
					c0,1.3,0.8,1.8,0.5,2.5c-0.7-0.2-1.4-0.5-1.4-2.3V192.7z M103.6,190.9c2.7-3.3-1-8.6,0.5-12c1-0.2,1.3,2.3,2.3,1.6
					s1-2.4,0.3-2.7s-0.7,1.4-1.3,0.8c-0.1-1-0.6-1.9-1.4-2.4c-1.7,0.2-1,2.2-1.4,3.5c-1.2,4.1,1.3,7.3,0.5,10.4
					c0,0.4,0.1,0.7,0.5,0.9V190.9z M98.3,174.5c-1.9-0.8-6,1.6-8,0.2c-0.5-0.6-0.1-0.9,0.4-0.9c2.3,0.1,6.1-1.7,7.9,0.1
					C99,174.3,98.6,174.5,98.3,174.5L98.3,174.5z M102.6,166.3c0.7,0.1,1.3-0.7,0.6-1.2c-1-0.7-3.7-1.4-3.9-0.5
					C99.3,166,101.5,165.5,102.6,166.3L102.6,166.3z M92.5,169.4c0.3,0.6,0.2,1.4-0.4,1.8c-0.9,0.9-1.5,0.5-1.5-0.2
					C91.2,170.1,92.1,168.8,92.5,169.4L92.5,169.4z M88.4,171.9c0.6-0.5-0.2-0.8-0.8-1.1c-0.3-0.7-0.6-1.5-1.1-1
					c-0.5,0.6,0.2,2.9,1.9,2V171.9z M103.4,172.3c0.7,0.2,2.4-0.3,1.4,1.1c-0.8,1.1-3.9-0.4-2.7-2.3
					C102.8,170.1,103,171.6,103.4,172.3L103.4,172.3z"/>
				<path id="path1317" class="st20" d="M88.3,170.6c-1.3-1.9-1.9-4.1-1.9-6.4c0-6.1,5-11.1,11.1-11.1s11.1,5,11.1,11.1
					c0,2.7-1,5.4-2.8,7.4 M105.8,171.6c-1.8,1.1-3.4-0.4-2.5-2.1c2.9-3.3,2.6-8.3-0.6-11.2c-3.3-2.9-8.3-2.6-11.2,0.6
					c-2.4,2.7-2.7,6.6-0.8,9.6c0.5,0.8,0.3,1.8-0.5,2.2c-0.7,0.4-1.5,0.3-2-0.2"/>
			</g>
		</g>
	</g>
	<g>
		<defs>
			<rect id="SVGID_00000065048075266233451230000007519967426076825493_" width="195.6" height="280.6"/>
		</defs>
		<clipPath id="SVGID_00000181087278260402002690000004778016937867823759_">
			<use xlink:href="#SVGID_00000065048075266233451230000007519967426076825493_"  style="overflow:visible;"/>
		</clipPath>
		<path style="clip-path:url(#SVGID_00000181087278260402002690000004778016937867823759_);fill:#FFFFFF;" d="M30.4,112.8h134.7
			c3,0,5.5,2.4,5.5,5.5v44c0,3-2.4,5.5-5.5,5.5H30.4c-3,0-5.5-2.4-5.5-5.5v-44C25,115.3,27.4,112.8,30.4,112.8z"/>
	</g>
	<g>
		<defs>
			<rect id="SVGID_00000035500068205299395710000010711179774364123018_" width="195.6" height="280.6"/>
		</defs>
		<clipPath id="SVGID_00000125582044315750067110000002743837088652238737_">
			<use xlink:href="#SVGID_00000035500068205299395710000010711179774364123018_"  style="overflow:visible;"/>
		</clipPath>
		<path style="clip-path:url(#SVGID_00000125582044315750067110000002743837088652238737_);fill:#FFFFFF;" d="M80,99.6
			c-12.6,0-22.9,10.2-22.9,30.5c0,25.4,18.2,50.9,40.7,50.9s40.7-25.4,40.7-50.9c0-20.3-10.2-30.5-22.9-30.5
			c-6.9,0-13.5,3.1-17.8,8.5C93.5,102.8,86.9,99.6,80,99.6z"/>
	</g>
	<g>
		<defs>
			<rect id="SVGID_00000064325552418659959240000007146368342692489102_" width="195.6" height="280.6"/>
		</defs>
		<clipPath id="SVGID_00000130615386700866802480000001948536953473934992_">
			<use xlink:href="#SVGID_00000064325552418659959240000007146368342692489102_"  style="overflow:visible;"/>
		</clipPath>
	</g>
	<g>
		<defs>
			<rect id="SVGID_00000121242405034377148740000003238586403870806689_" width="195.6" height="280.6"/>
		</defs>
		<clipPath id="SVGID_00000030488154783338903780000005661708730460535971_">
			<use xlink:href="#SVGID_00000121242405034377148740000003238586403870806689_"  style="overflow:visible;"/>
		</clipPath>
		<path style="clip-path:url(#SVGID_00000030488154783338903780000005661708730460535971_);fill:#FFFFFF;" d="M150.7,0h29h16v16
			c0,7,0,14,0,21c-10.2,12.4-28.6,14.2-41,4S140.5,12.4,150.7,0z"/>
	</g>
	<g>
		<defs>
			<rect id="SVGID_00000139272015642843632450000006960393628399355822_" width="195.6" height="280.6"/>
		</defs>
		<clipPath id="SVGID_00000090974278601489734650000008054853507672881294_">
			<use xlink:href="#SVGID_00000139272015642843632450000006960393628399355822_"  style="overflow:visible;"/>
		</clipPath>
	</g>
</g>
<g class="st24">
	<path class="st4" d="M68.7,149.6h-5.1v-3.4c0-1-0.1-1.6-0.2-1.9s-0.3-0.4-0.7-0.4c-0.4,0-0.7,0.1-0.8,0.4c-0.1,0.3-0.2,0.9-0.2,1.9
		v9.1c0,1,0.1,1.6,0.2,1.9c0.1,0.3,0.4,0.4,0.8,0.4c0.4,0,0.6-0.1,0.7-0.4s0.2-1,0.2-2v-2.5h5.1v0.8c0,2-0.1,3.5-0.4,4.3
		s-0.9,1.6-1.9,2.2c-1,0.6-2.2,1-3.6,1c-1.5,0-2.7-0.3-3.7-0.8s-1.6-1.3-1.9-2.2c-0.3-1-0.5-2.4-0.5-4.3V148c0-1.4,0-2.5,0.1-3.2
		c0.1-0.7,0.4-1.4,0.9-2c0.5-0.7,1.1-1.2,2-1.5c0.9-0.4,1.8-0.6,2.9-0.6c1.5,0,2.7,0.3,3.7,0.9c1,0.6,1.6,1.3,1.9,2.2
		c0.3,0.9,0.5,2.2,0.5,4V149.6z"/>
	<path class="st4" d="M75.3,141.1v4.4c0.4-0.4,0.9-0.7,1.4-0.9s1-0.3,1.6-0.3c0.9,0,1.6,0.2,2.2,0.7c0.6,0.4,1,0.9,1.1,1.5
		c0.1,0.6,0.2,1.6,0.2,3.1v11.1h-4.9v-11.3c0-0.9,0-1.5-0.1-1.8c-0.1-0.3-0.3-0.4-0.6-0.4c-0.3,0-0.5,0.1-0.6,0.4
		c-0.1,0.3-0.2,0.8-0.2,1.6v11.5h-4.9v-19.6H75.3z"/>
	<path class="st4" d="M94.4,150.2v3.9c0,1.4-0.1,2.5-0.2,3.2c-0.1,0.7-0.5,1.3-0.9,1.9c-0.5,0.6-1.1,1-1.8,1.3
		c-0.7,0.3-1.6,0.4-2.6,0.4c-1.1,0-2-0.1-2.7-0.4c-0.8-0.2-1.3-0.6-1.7-1.1c-0.4-0.5-0.7-1.1-0.9-1.7c-0.2-0.7-0.3-1.7-0.3-3.1v-4.1
		c0-1.5,0.2-2.7,0.5-3.5c0.3-0.8,0.9-1.5,1.7-2c0.8-0.5,1.9-0.8,3.2-0.8c1.1,0,2,0.2,2.8,0.5c0.8,0.3,1.4,0.8,1.8,1.3
		s0.7,1.1,0.9,1.6C94.3,148.2,94.4,149.1,94.4,150.2z M84.7,140.2H89l2.1,3.3h-2.5L84.7,140.2z M89.5,149c0-0.8,0-1.3-0.1-1.6
		c-0.1-0.2-0.3-0.3-0.6-0.3c-0.3,0-0.5,0.1-0.6,0.3c-0.1,0.2-0.1,0.7-0.1,1.6v7.2c0,0.8,0,1.3,0.1,1.5c0.1,0.2,0.3,0.3,0.6,0.3
		c0.3,0,0.5-0.1,0.6-0.3s0.1-0.7,0.1-1.4V149z"/>
	<path class="st4" d="M101,144.6l-0.1,1.5c0.4-0.6,0.8-1,1.3-1.3c0.5-0.3,1.1-0.4,1.8-0.4c0.8,0,1.5,0.2,2.1,0.6
		c0.5,0.4,0.9,0.9,1,1.5s0.2,1.6,0.2,3v11.2h-4.9v-11.1c0-1.1,0-1.8-0.1-2c-0.1-0.2-0.3-0.4-0.6-0.4c-0.3,0-0.6,0.1-0.7,0.4
		c-0.1,0.3-0.1,1-0.1,2.2v10.8H96v-16H101z"/>
	<path class="st4" d="M114,141.1v2.6h-5v-2.6H114z M114,144.6v16h-5v-16H114z"/>
	<path class="st4" d="M126.6,150.6h-4.6v-1.9c0-0.6-0.1-1.1-0.2-1.3c-0.1-0.2-0.3-0.3-0.6-0.3s-0.5,0.1-0.6,0.3s-0.1,0.7-0.1,1.4
		v7.6c0,0.6,0.1,1,0.2,1.3c0.1,0.3,0.4,0.4,0.6,0.4c0.3,0,0.6-0.1,0.7-0.4c0.1-0.3,0.2-0.9,0.2-1.7V154h4.4c0,1.3-0.1,2.2-0.1,2.9
		c-0.1,0.6-0.4,1.3-0.8,2c-0.5,0.7-1.1,1.2-1.8,1.5s-1.6,0.5-2.7,0.5c-1.4,0-2.5-0.2-3.3-0.7c-0.8-0.5-1.4-1.1-1.7-2
		c-0.3-0.9-0.5-2.1-0.5-3.6v-4.6c0-1.4,0.1-2.4,0.4-3.1s0.9-1.3,1.8-1.9c0.9-0.5,2-0.8,3.3-0.8c1.3,0,2.4,0.3,3.3,0.8
		c0.9,0.5,1.5,1.2,1.8,2C126.4,148,126.6,149.1,126.6,150.6z"/>
	<path class="st4" d="M139.1,152.9h-6.3v3.5c0,0.7,0.1,1.2,0.2,1.4c0.1,0.2,0.3,0.3,0.6,0.3c0.4,0,0.6-0.1,0.7-0.4
		c0.1-0.3,0.2-0.8,0.2-1.6v-2.1h4.6v1.2c0,1-0.1,1.8-0.2,2.3s-0.4,1.1-0.9,1.7c-0.5,0.6-1,1.1-1.7,1.4c-0.7,0.3-1.6,0.5-2.7,0.5
		c-1,0-1.9-0.1-2.7-0.4c-0.8-0.3-1.4-0.7-1.8-1.2c-0.4-0.5-0.7-1.1-0.9-1.7s-0.3-1.5-0.3-2.7v-4.7c0-1.4,0.2-2.5,0.6-3.3
		s1-1.4,1.9-1.9c0.9-0.4,1.9-0.6,3-0.6c1.4,0,2.5,0.3,3.4,0.8c0.9,0.5,1.5,1.2,1.9,2.1c0.4,0.9,0.5,2.1,0.5,3.6V152.9z M134.2,150.3
		v-1.2c0-0.8,0-1.4-0.1-1.6c-0.1-0.2-0.3-0.4-0.5-0.4c-0.3,0-0.5,0.1-0.6,0.3c-0.1,0.2-0.1,0.8-0.1,1.7v1.2H134.2z"/>
</g>
<g class="st24">
	<path class="st4" d="M84.8,116.4V136h-4.5l0-13.2L78.6,136h-3.2l-1.9-12.9l0,12.9h-4.5v-19.6h6.6c0.2,1.2,0.4,2.6,0.6,4.2l0.7,5
		l1.2-9.1H84.8z"/>
	<path class="st4" d="M91.1,126.1h-4.6v-1.1c0-1.2,0.1-2.2,0.4-2.9c0.3-0.7,0.9-1.3,1.7-1.8c0.9-0.5,2-0.8,3.4-0.8
		c1.7,0,2.9,0.3,3.7,0.9c0.8,0.6,1.3,1.3,1.5,2.2c0.2,0.9,0.3,2.6,0.3,5.3v8.1h-4.8v-1.4c-0.3,0.6-0.7,1-1.2,1.3
		c-0.5,0.3-1,0.4-1.7,0.4c-0.9,0-1.6-0.2-2.4-0.7c-0.7-0.5-1.1-1.5-1.1-3.2v-1.3c0-1.2,0.2-2,0.6-2.5c0.4-0.4,1.3-0.9,2.8-1.5
		c1.6-0.6,2.5-1.1,2.6-1.3s0.2-0.7,0.2-1.3c0-0.8-0.1-1.4-0.2-1.6c-0.1-0.3-0.3-0.4-0.6-0.4c-0.3,0-0.5,0.1-0.6,0.3
		c-0.1,0.2-0.1,0.8-0.1,1.7V126.1z M92.6,128.3c-0.8,0.6-1.2,1.1-1.4,1.4s-0.2,0.9-0.2,1.7c0,0.8,0.1,1.4,0.2,1.6
		c0.1,0.2,0.3,0.4,0.6,0.4c0.3,0,0.5-0.1,0.6-0.3s0.1-0.7,0.1-1.5V128.3z"/>
</g>
<g class="st24">
	<path class="st4" d="M106.8,119.9v3.6l-3.6,9.3h3.6v3.2h-8.3v-3.4l3.7-9.5h-3.3v-3.2H106.8z"/>
</g>
<g class="st24">
	<path class="st4" d="M118.7,119.9l-1.4,11.6c-0.2,1.8-0.4,3.1-0.6,3.8c-0.1,0.7-0.4,1.2-0.7,1.7s-0.8,0.8-1.4,1
		c-0.6,0.2-1.6,0.3-3,0.3h-3v-2.6c0.8,0,1.2,0,1.5-0.1c0.2-0.1,0.3-0.2,0.3-0.5c0-0.1-0.1-0.7-0.3-1.7l-2.7-13.4h4.4l1.6,10.8
		l0.8-10.8H118.7z"/>
	<path class="st4" d="M124.4,119.9l-0.2,2.1c0.7-1.5,1.7-2.3,3.1-2.4v5.6c-0.9,0-1.6,0.1-2,0.4c-0.4,0.2-0.7,0.6-0.8,1
		c-0.1,0.4-0.1,1.4-0.1,3v6.3h-4.9v-16H124.4z"/>
</g>
<g class="st24">
	<path class="st25" d="M167.9,22.8c0.6,0.2,1,0.5,1.3,1c0.3,0.5,0.4,1.5,0.4,3.2c0,1.3-0.1,2.2-0.4,2.9c-0.3,0.7-0.8,1.2-1.5,1.6
		s-1.6,0.5-2.7,0.5c-1.2,0-2.2-0.2-2.9-0.6s-1.2-0.9-1.4-1.5s-0.3-1.7-0.3-3.2v-1.2h3.9V28c0,0.7,0,1.1,0.1,1.3
		c0.1,0.2,0.3,0.3,0.5,0.3c0.3,0,0.5-0.1,0.6-0.4s0.1-0.8,0.1-1.8v-1.1c0-0.6-0.1-1-0.2-1.3s-0.3-0.5-0.6-0.6
		c-0.3-0.1-0.8-0.1-1.6-0.2V22c0.9,0,1.5,0,1.7-0.1c0.2-0.1,0.4-0.2,0.5-0.5s0.1-0.6,0.1-1.1v-0.9c0-0.6-0.1-0.9-0.2-1.1
		c-0.1-0.2-0.3-0.3-0.5-0.3c-0.3,0-0.5,0.1-0.6,0.3c-0.1,0.2-0.2,0.6-0.2,1.2v1.3h-3.9v-1.3c0-1.5,0.3-2.5,1-3.1
		c0.7-0.5,1.8-0.8,3.3-0.8c1.9,0,3.2,0.4,3.8,1.1c0.7,0.7,1,1.8,1,3.1c0,0.9-0.1,1.5-0.4,1.9C168.9,22.1,168.5,22.5,167.9,22.8z"/>
	<path class="st25" d="M179.1,15.9v10.3h1.1V29h-1.1v2.8h-3.9V29h-4.7v-2.7l3.4-10.3H179.1z M175.2,26.3v-6.7l-1.7,6.7H175.2z"/>
</g>
</svg>
