<svg id="Слой_1" data-name="Слой 1" xmlns="http://www.w3.org/2000/svg" viewBox="0 0 195.59 280.63"><defs><style>.cls-1,.cls-21,.cls-7{fill:#134b88;}.cls-10,.cls-12,.cls-14,.cls-15,.cls-16,.cls-17,.cls-2,.cls-20,.cls-23{fill:#fff;}.cls-2,.cls-3,.cls-4,.cls-5,.cls-6,.cls-7,.cls-8{fill-rule:evenodd;}.cls-3{fill:#d82928;}.cls-4{fill:#efb42f;}.cls-5{fill:#f2c08e;}.cls-6{fill:#901d1a;}.cls-8{fill:#2a204f;}.cls-22,.cls-9{fill:#2e74b3;}.cls-16,.cls-17,.cls-18,.cls-9{stroke:#fff;}.cls-10,.cls-14,.cls-19{stroke:#424242;}.cls-11{fill:#d49e63;}.cls-11,.cls-12,.cls-13,.cls-15{stroke:#41382d;}.cls-12,.cls-15{fill-opacity:0;}.cls-13{fill:#f7e926;stroke-opacity:0;stroke-width:1.05px;}.cls-14{stroke-width:0.99px;}.cls-15{stroke-width:0.6px;}.cls-17{stroke-width:0.98px;}.cls-18,.cls-19{fill:none;}.cls-18{stroke-width:1.35px;}.cls-19{stroke-width:0.5px;}.cls-21{font-size:24.77px;}.cls-21,.cls-23{font-family:Impact;}.cls-23{font-size:20px;}</style></defs><rect class="cls-1" x="-6.21" y="-8.4" width="214.01" height="297.89"/><g id="Warstwa_2"><g id="_76815456" data-name=" 76815456"><path id="_76964264" data-name=" 76964264" class="cls-2" d="M30.53,10.93H165.06L162.8,71.49c-1.19,35.89-28.22,62.22-64.29,63.42-34.51.51-65.83-26.45-66.16-63.4L30.53,10.93Z"/><path id="_76964192" data-name=" 76964192" class="cls-2" d="M31.2,11.54H164.4l-2.25,60C161,107,134.21,133.11,98.5,134.3c-34.17.5-65.17-26.19-65.5-62.78l-1.8-60Z"/><path id="_76964120" data-name=" 76964120" class="cls-3" d="M94.06,39.22a2.65,2.65,0,0,0,.17-2.58c-.47-2.75-2.53-5.17-5.09-7.15a21.17,21.17,0,0,1-4.74-5,1.17,1.17,0,0,1,2-.34c1.94-2.83,5-.3,8.32,0,1.2-.11,1.4-.51,1.44-1.36-.24-1.36.69-2.19,1.77-1.89,1.73.19,4.6,0,5.51.16-.56.94-2.5.62-3.52.88-1.9-.56-2.23,1.29-1.3,1.29.54.51.37,1.24.54,1.8a12.15,12.15,0,0,0,3.54-.88c.14.32-.08.64-.49,1.2a2,2,0,0,1,2.63.39c1.56.46,2.4-.39,3.63-.39.91-1.06,1.66-1.59,4-1.23a5.07,5.07,0,0,0-4.06,3.12c.23.53-4.73.43-5.06.92s.29,1.34.78,1,.76-.73,1.17-.92c.45.84.11,2.28-.15,3.23,1.66.12,2.41.46,3,1.75-.32.1-.69-.13-1-.25-.6.18-.88.81-.21,1a2,2,0,0,1,1.34,1.8c-.16.37-.85.62-1.34.72a1.29,1.29,0,0,1,.82.39,3.33,3.33,0,0,1,0,1.73,1.33,1.33,0,0,0-1,.21,23.1,23.1,0,0,1-1.19,6.1,3.82,3.82,0,0,0-.22,2.22,4.32,4.32,0,0,0-.65,2.71c.76.76.22,1.57-.82,1.16-.71.41-1.36.62-1,1.54.09,1.57-.13,2.6-1,1.75-.41,1.78.28,3.35.41,5,0,1.5,2.27.51,3,1.08-.28.9-.9,1.31-1.16,2.21,2.41.33,4.42.39,5.07-3.13a19,19,0,0,1-1.81-9.64c-1.45-2-1.82-9.9,2.89-12.63,1.56-1.56,3.37-2.8,4-4a3,3,0,0,1,.24,1.71c1.32-1.89,3.63-2.12,5.27-3.73a1.52,1.52,0,0,1,.58,1.24A80.82,80.82,0,0,0,131,22.93c-1.42,3.56-4,7.12-6.52,10.46a4.1,4.1,0,0,0,2-1.22,22.21,22.21,0,0,1-2,2.58c4.47-3.11,8.85-2.22,15.94-10.68-2.27,7.79-5.21,10.56-14.51,15.56,6-1.38,11-3.69,16.28-5.65-5.12,6.5-17.93,7.43-16.29,9.68a32.75,32.75,0,0,0,7.86-1.93.71.71,0,0,1-.17.81,43.81,43.81,0,0,0,15.72-5.28c-1.88,3.18-7.64,10.3-13.06,10a5.82,5.82,0,0,0-3.13,1.16c6.65-.21,3.34,2.16,15.27-.58-4.54,2.83-10,3-16.39,2.84,5.76,2,6.08,5.69,18.5,3.91-.69,1.45-4.68,2.7-7.23,3.19-2.42.22-3.13.76-3.22-.28-1.3.59-3.33.78-2.77-.25-.88.53-3.45.41-4.07-.72-.5-.26-1.13.39-2,.55A55.68,55.68,0,0,0,150.65,62c-6.77,1.69-13.21,0-19.49-1.75,6.22,4.47,13.58,9.36,20.14,9.68a28.31,28.31,0,0,1-10.62.3,28,28,0,0,1-11-4.28c-2-.86,1.09,1.4-.91.22-.5-.3-1.93-.89-2.48-1.17,7.29,7.38,14.81,10.26,23.36,12.63-5.42-.11-11.47-2-16.33-4.26-1.42-.72.69,1-1.53-.1-2.66-1-4.08-2.23-6.82-3.45,9.86,10.9,18.29,16.15,28.59,20.16-3.39.76-6.48-.07-9.72-1.1-2.25-2.21-2-2.33-2.81-1.32-1.23-.28-5.07-1.15-5.65-2.23-.52-2.44-1.39-3.12-1.39-1.08a23,23,0,0,1-6.88-4.29c-.55-2-.93-2.22-1.76-1a27.16,27.16,0,0,1-4.21-3.16c4.82,7.15,12.44,10.4,18.43,13.79-8.43-2.11-15.83-6.43-24.66-14.66,3.15,7.1,8.61,11,14.46,15a14.77,14.77,0,0,1-4.88-1.21,22.7,22.7,0,0,1-4.75-2.89A41.68,41.68,0,0,1,114,80.35a68.54,68.54,0,0,1-4.68-6,22.82,22.82,0,0,0,4.92,8.44c-4.47-2-7.77-6.32-9.82-11-.48-.66-1-.62-1.08.26A34.24,34.24,0,0,0,112,84.9c5.47,4.07,7.06,8,7.23,12.23a8.47,8.47,0,0,1-6-.82c-2.62-1.24-4.78-2.75-7.11-3.82a9.22,9.22,0,0,0-5.88-.25c-1.35-.76-1.88-3.5-2.37-3.89a2.3,2.3,0,0,1-2.31,0c.92-.86-1.84-3.9-4-5.65,0,.71-.06,1.08-.06,1.78-.28.85-.87.8-1.24.29A12.53,12.53,0,0,0,87,81.92a1.45,1.45,0,0,1-.65,1.19c-1.67-1.45-3.74-3.42-5.08-3-.75-.46-1.74-.33-2.39-1.53-.92-.5-2.81-.57-2-3.11C74,77.34,71.17,79.09,68.32,81c.8.84,3.24,1.14,5.83.11,1.53-1.59,3.35-.41,3.48,1.84.69,1.41-2.06,3.87-3.66,1.92a5.48,5.48,0,0,1-4.14.06c-1.4.61-3,.4-3.59-.64a2.81,2.81,0,0,1-2.57.42c-.67,1.31-.28,2.48-2.52,2.3-.35,1.36-1.66,1.82-3.26,1,0,1.15-.54,1.72-2,1.57-2-.45.69-4-2.87-3.7,0-1.7,1.08-2.48,3.3-1.44a2.8,2.8,0,0,0,2.53-.79c-1.13.09-1.71.23-2.64-.81-2.28-.09-2.59-.41-4-1.81-2.42,1-3.52-.83-2.78-3.14-.46-1,1.42,1,1.94.58,1.94-.58-1.06-3.25,2.18-2.06,1.12.35,1.62,3,2.89,2.88a2.64,2.64,0,0,1-.77-2c-2.55-.83-1.21-3.14,1-4,2-.76,3.41.92,2.81,1.89a1.92,1.92,0,0,1,.39,2,3.44,3.44,0,0,1,1.89,2.35c.7.64,1.24.37,2.23-.39a50.24,50.24,0,0,0,6.52-5.81,5.15,5.15,0,0,1-4.58-.62,13,13,0,0,0,5.34-3.92c-1.13-.6-2.29.71-4.22-.11,1.26-1,3.25-3.07,3-5.22-.6,1.48-2,1.83-3.46,1.16,1.08-1.64.91-4.36,1.34-5.79a3.77,3.77,0,0,1-2.37,0c.86-.71,1.77-1.27,1.77-2.1C64.8,56.6,63.94,52.91,63,51c.89.39,2.05,1.79,2.59,1.12a68.37,68.37,0,0,1-5.74-7,2.39,2.39,0,0,0,.5,2.33c1.6,0,1.88,2.14.78,2.92-1.08.19-1,.37-2,.56s-2.11-.67-1.2-2a2,2,0,0,1-1.24-2.93A2.75,2.75,0,0,1,56,43.5a1.77,1.77,0,0,1-1.13-1.35c-1.29-.07-3.26.06-3.67-1a4.22,4.22,0,0,1-4.29-.53c-.5.86-2.55.62-2.6-1.29.2-1.24.24-.94.44-2.16.86-1.39,2.27-1.23,3.19-.1,1.45-.41,3.72.92,5.68.46A7.06,7.06,0,0,1,54,34.08a2.53,2.53,0,0,1,.39-3c-1.25-1.33-1.16-2.56.61-3.3,1,1.18,2.35,1.53,3.06-.59a2.05,2.05,0,0,1,.76,3.91A7.54,7.54,0,0,1,58,34.65c.49,2.42,1.47,1.69,1.3.46,0-1.38.66-2,2.33-1.81-.11-1,1-1.94,2.54-1.83,0-1.45,1.21-3,2.7-1.66l1.9.83c1.9.1.76,2.88-1.68,2.93-.34,1-2.87,1.13-3.95,2.42-1,.76-1.62,1.08-1.51,2.21a16.66,16.66,0,0,1,.1,3.34c2.23,2.38,4.52,5,6.76,7.36-.32-1.85.28-3.71,1.67-3.92-.09,4.58,2.67,4.06,3.41,6.13a4.31,4.31,0,0,1,2.44-.62c-.91,0-2.21-.1-2-.62,1.41-.4,2.81-2,3.68-2.88,4.06-2.57,5.74-3,9.86-3.39-.17-1.18-.06-1.34,1.08-1,3.13,1,4.73-.6,5.34-3.34Z"/><path id="_76964048" data-name=" 76964048" class="cls-4" d="M77.88,81.87a3.39,3.39,0,0,1,3.74,2.26,3.69,3.69,0,0,0-3.41-.34C78.16,83.12,77.93,82.52,77.88,81.87ZM55.23,86a3.26,3.26,0,0,0-2.37,1.69c-.87,2,.58,2.65,1.38,2.76a2.55,2.55,0,0,1,.17-1.7c.58-.93.87-1.11,1.73-1.21A1.12,1.12,0,0,0,55.23,86Zm-2.5-9c-2.12-2.58-4.95-.39-5.47,1.61,1.9-1.71,2.94-.07,4.09.42C52.4,79.18,53,78.09,52.73,77Zm5-3.41c-.58-1.43-2.89-3.07-4.67-1.15,1.37.57,2.31.48,2.72,2.2a3,3,0,0,1,1.95-1Zm2-22.22a5.78,5.78,0,0,0,2-.81c.18,1.15-.06,2.68-2.72,3.8C59.55,53.05,60.07,52.28,59.79,51.34ZM45.34,37.49c-2-.55-3.58,1.48-4,2.58a5.31,5.31,0,0,1,3.6-.49c.11-.71.28-1.33.39-2.09Zm22.94-9.91a3.56,3.56,0,0,1-.76,2.65c.73.37,1.3.51,2,.88A3.92,3.92,0,0,0,68.28,27.58ZM94.62,39.47c1-.34.11-3.52-.58-4.89a17.76,17.76,0,0,0-5.38-5.52,36.7,36.7,0,0,1-3.74-4.22c-4.18-.56-5.87,1.88-5.55,5,2.75-1.45,4.37-.78,6.14,1,5.5.25,8,3.27,7.17,6.08a7.89,7.89,0,0,0-5.29-2,32.88,32.88,0,0,1-5.83-.21c-1.78-.16-3-.49-3.81-1.48-.47-.21-.53-.5-.26-.88.5-.71,0-1.1-.71-1.15a2,2,0,0,0-1.86,2.19A4,4,0,0,0,78,35.57a26.19,26.19,0,0,0,7.5.15,10.1,10.1,0,0,1,6.37,1.45,10,10,0,0,1-7.58-1.5c.12.76,0,1.75,1.44,1.94A25,25,0,0,0,94.62,39.47ZM58.75,27.7c-.75-1.48-2.61-3.74-4.1-3A6,6,0,0,1,56,28.2c1.16,1.36,2.22.76,2.78-.5Z"/><path id="_76963976" data-name=" 76963976" class="cls-5" d="M147.81,38c-3.2,1.58-6.4,3.24-9.55,3.7-.06.44-.15.61-.22,1a45,45,0,0,1-19.76,2,28.23,28.23,0,0,0,20.05-1.43c3.08-1.87,6.43-3.46,9.48-5.32Zm-3.89,4.19c-7.21,4-14.58,5.05-22,5.41,2.14,0,4.26,0,6.39.08,1.26.22,3.5.46,4.75.69a7.15,7.15,0,0,1,2.49-1.15c-.2-.44-.35-.88.17-1.06a27.29,27.29,0,0,1,6-1.23c-.26-.39,0-.44-.26-.81a3.72,3.72,0,0,0,2.53-1.93ZM133,37.91A94.86,94.86,0,0,1,117,42.37c.88.12,1.75.24,2.61.38,4.49-1.62,11.06-2.27,13.46-4.84Zm5-8.12c-4.27,3.8-10.1,7.33-14.9,10.44a6.24,6.24,0,0,1,2.76-.6c3.83-2.12,9.62-5.8,12.14-9.84Zm-.75-2.37a21.74,21.74,0,0,1-4.35,3.23c.44.23.5.61.14.91a137.86,137.86,0,0,1-16.65,8.63,3.45,3.45,0,0,1,.77.39,73.47,73.47,0,0,0,16.65-9.1A14.66,14.66,0,0,0,137.25,27.42Zm-22,13a2.59,2.59,0,0,1,2.23.86c-1.15,1.22-2,1.28-2.87.94-.29-.34-.11-.69.15-.67.51-.16,1.08.1,1.47-.32-.35-.11-.87.16-1.08,0s-.52-.62.1-.78Zm1.26,6c2.61-.37,10.3,4,14.2,4-.93.18-2.44.05-3.37.25,3.46.81,6.59,2.56,9.77,3.65-5.27-1.45-16.11-4.17-21.1-7.13-.24-.14,0-.46-.33-.55-1,.41-.82,1.11-1.64,1.43a15.79,15.79,0,0,1,1-2.21,2.18,2.18,0,0,0,1.47-.83c-.07-.19-.13-.39-.18-.56l-1.1-.48a3,3,0,0,0-2.18-1.26,2.83,2.83,0,0,1,1.9,0A9.65,9.65,0,0,1,116.6,44a1.59,1.59,0,0,0,1.58.62,3.54,3.54,0,0,1-1.66,1.76Zm4.14,3.15c5.29,3.63,12.22,4.69,18.21,5.68C132.32,53.3,126.73,52.12,120.66,49.56ZM149.92,62c-13.9,0-23.19-6-31.44-10.16,5.14,4.54,16.41,8.66,20.49,9.4A42.28,42.28,0,0,0,149.92,62ZM114.07,48.34c1.11.69,2.57,1.66,2.9,2.49.17.76-.15.85,0,1.61-1.06,1.21-2.1-.11-3-1-.3.28-.31.21-.61.51,2.38,2.09,3.15,1.66,5,1.43-.28-1-.56-2.29-.82-3.26a5.09,5.09,0,0,0-3.5-1.82Zm29.4,20.52a178.1,178.1,0,0,1-25.31-13.58c-1-1.27-2-.85-1.39.11a6.21,6.21,0,0,1,2.9,1.89c7.15,3.83,15.39,9.69,23.8,11.58Zm-28.9-12.2c1.1.83,1.84,2.36,3.59,3.09,0,1.45-2,3.44-3.74,3,2.22-.44,2.79-1.55,2.35-2.52a13.8,13.8,0,0,1-2.2-3.57ZM140,75.12a100.85,100.85,0,0,1-21.77-15,1.29,1.29,0,0,0-.39,1c6.07,5.71,14.41,10.21,21.06,13.69-1.79-.33-8.21-3-10.41-3.95,2,1.21,11.19,5.26,11.51,4.22Zm-28.65-6.73q.45-.27.9-.57l13.58,14.61-14.48-14ZM148,87.61c-13.78-6.73-25-14.49-32.24-23.78-.09-.5-.56-1.59-1.4-.67,0,.53-.52.92-1.54.92,1.26.56,2.1.3,2.44-.06,4.8,4.65,7.09,10.23,14.47,14a8.74,8.74,0,0,1-3.6-1.24,25.12,25.12,0,0,0,6.5,3.52,1.56,1.56,0,0,1-1.39,0c1.3,1.32,3.46,2.35,5.17,3.51a4.23,4.23,0,0,1-1.26-.35c.59,2.14,2.72,2.82,5.92,4a6.1,6.1,0,0,0-2.38-3.06c3,1.27,7,3.11,9.31,3.2ZM113,60.84a1.4,1.4,0,0,0-.8.82c.69,0,.91.33,1.34.76a.92.92,0,0,0,1-.89c-.37-.58-.84-.54-1.58-.69Zm-.8,1.21c.63.31.85.83.91,1.76-.17.27-.22.2-.39.16-.47-.81-.9-.39-1.34-.76A2.1,2.1,0,0,1,112.15,62.05Zm-3.56,3.48.8-.45c.89.55,1.25,2.19,2.7,1.65-.24-1-1.71-1.33-2.14-2.09l1-1c2.49.68,1.23,2.6,2.33,4.12-3.71.85-3.11-1.48-4.66-2.22ZM125,87.38c-7.63-3.94-12-11.29-16-18.41a.8.8,0,0,1-.56,1C112.45,77.38,118.31,84.73,125,87.38Zm-20.47-21a6.63,6.63,0,0,1,2.68-.21c.69-.14,1,.37,1.38.63.08.74.41,1.29.51,2a2.32,2.32,0,0,1-1.36-.81c-.49-.48-.94-.49-1.57,0a.78.78,0,0,1-.46.9C105.27,68.09,105.33,67.17,104.49,66.41Zm-1.1.83q2.61,4.88,5.2,9.79-3-4.8-5.89-9.6C102.93,67.38,103.15,67.31,103.39,67.24ZM81.07,79.91c-.41-.17-.7-.28-1.2-.53A11.68,11.68,0,0,0,79,76.5c-.31-.5-.69.15-.41.47a6.72,6.72,0,0,1,.28,1.48c-.6-.33-1-.44-1.6-.79,1-.44,1-2.53,1.06-3.87a6.22,6.22,0,0,0,.75,1.73,4.29,4.29,0,0,0,1-1.34c.37,2,.29,3.81,1,5.73Zm4.83-1.7c.84,2.22.57,3.62-.21,4.26a8.23,8.23,0,0,1,.63.59C87.24,82.33,87.39,80,85.9,78.21Zm5,1.78c-.22,0-.67,0-.91.07a11.73,11.73,0,0,1,1.23,4.83c.73-1.79-.13-4.56-.32-4.9Zm12.15-5.72c-.28-1.2-1.12-1.93-2.83-2.39-2-.53-5-4.5-6.93-6.73,1.15,2,5.21,7.39,6.53,7.23.88-.11,1.9,1.85,3,2.61C103.32,75.75,103.23,75,103.08,74.27Zm-46.23-36c-.65-.32-.91.1-.54.3s.69,1.06-.22,1.2c-.66.16-.69.35-.27.71,1.14.16,3.1,1.89,4.08,2.7a20.7,20.7,0,0,0-3-4.91Zm3.48,42.8c-2.12,0-3.2-1-5-2a2.91,2.91,0,0,0,1.73,2.14,10.63,10.63,0,0,1,2.43,1.41c.76,0,1.45-.68,1.75-.74a1.14,1.14,0,0,1-.9-.81Zm6.15,1.84c.41.23.65.85-.11,1.27A3.73,3.73,0,0,0,69.92,84a3.12,3.12,0,0,0,3.73,0c.22-.74,1-.85,2.25-.42-.59-.32-.76-.67-1.21-1.47a3.66,3.66,0,0,0-2,1.1,4.3,4.3,0,0,1-2.16-.09A3.52,3.52,0,0,1,68.71,82c-.61-1.52-2-.11-2.9-.43-1.21-.58-2,.11-1.86,1.52.61.34,1-1.11,2.53-.17Zm8.23-17.49c-.73,1.89-4.12,6.18-7,7.4,1.73-.35,3.78-2.23,5.08-3-.61-.28-.43-.42.39-.58A5.46,5.46,0,0,0,74.71,65.42Zm7.36-5.19c-1.94,3-6.16,8.81-9.42,9.22,2.92,2.58,6.33.07,7.63-1.28,1.94-2.08,3.54-4.29,2.46-7a10.23,10.23,0,0,1-3.09,6.56,5.82,5.82,0,0,1-4.31,1.74c2.72-2.06,5.93-5.77,6.73-9.23Zm2.47,8.53a.49.49,0,0,0-1-.13,9.29,9.29,0,0,0,.47,7.76c.62,1.11,2,.58,2.78,0,.85.71,2.25.69,1.82-.67a1.32,1.32,0,0,0-2,.11c-.43.53-.93.33-1.4-.2-1.21-1.8-.91-4.55-.69-6.83Zm7.23.93c.39,0,.6.13.88,0a26,26,0,0,0,2.86,4.77,2,2,0,0,1-1.35,3c-.25-1.69-.43-2.26-1.53-3-1.34-.56-3.88-3.81-4.53-5.3,1,1.36,3.47,4.81,5.63,5.3-.1,1,1.65,1,1,.07A54.47,54.47,0,0,1,91.77,69.69ZM96,48c-1.68,2.69-2.07,10.27.17,12.81A38.76,38.76,0,0,1,96,48Zm3.16-5.4-.63,4.57-1.19,5.5L98,47.28l.34-3.22c-1,1.38-1.17,1.15-2.16,2,1.32-2.81,3.46-5.88,3.86-8.83.29,1.31-.28,3.27-.81,5.3Zm4.42-2.74c.3-.41.59-.51.84,0-.58,2-1.16,4-1.74,6,.3-2,.6-4,.9-6Zm-2,1.38c.22-.51.65-.51.76-.07-.76,2-1.51,4.08-2.27,6.13C100.56,45.25,101.07,43.23,101.57,41.22Zm-.91-8.46c-.25.84-.71,3.09.48,2.91.3,1,.06,2.12,1.32,2.86-.13-1,.08-1.07.49-1.48a1,1,0,0,1-1.27-.3c-.19-.51.26-1.36-.11-1.64C100.6,35.62,100.79,33.6,100.66,32.76Zm.67-1.88c-.15-.37,0-.72.5-.63,2.7,2.49,2.36,5.63,2.1,7.86a9.73,9.73,0,0,0-2.6-7.23Zm-2.15,7.56c.88-2.72,1.08-5.9,0-7.86-.19.15-.51.22-.67.34a9.44,9.44,0,0,1,.13,7.38c-.71,1.52-1.59,3.78-3.1,4.88,1.83-1.73,2.42-8.6,2-10.55C97.3,36.13,97,40.56,94.66,43c-1,1.89-7.84,3.71-10.8,6a11.61,11.61,0,0,1,3.85-.25c.65-1.3,4.25-3,5.87-3.53a14,14,0,0,0,2.27-1.36,6.19,6.19,0,0,1-2.5,2.77c2.93-.61,4.55-4.55,5.83-8.18ZM97,30.57c.18-1,1.93-.6,3.61-2.11-.48.87-.48,1.15.43,1.56-1.51-.23-3,.76-3.91,1.34a.62.62,0,0,1-.13-.79Zm6.35-9.52c-1.34-.13-3.24.05-5.48-.14a1.54,1.54,0,0,0-.74,0c-1.71.81.61,1,1.17,1A20.88,20.88,0,0,1,103.34,21.05Zm-7.12,1.79c.83.23.84.38,1.68.61-.11.37-.15.23-.24.62a4.91,4.91,0,0,0-2.1-.09A1.12,1.12,0,0,0,96.22,22.84Zm8.56,3a2,2,0,0,0-2.26-.33c-.6.26-.86,1.2-1.32,1.3-.62-.1-.45-.61-.17-1.12,2-.53,2.7-1.12,3.75.15Zm-16,35.07c1.16,4.5,4.69,11,8.07,12.5C94.47,70.65,90.17,66.06,88.79,60.9Zm49.75-7c2.94,2.7,6.15,3.11,9.89,1C145.56,55.09,142.17,55.33,138.54,53.87ZM122.91,48a26.48,26.48,0,0,1,6.34.18c.61,1.55,10.41,3.62,18,.35C139,51.45,131.85,51.29,122.91,48Z"/><path id="_76963904" data-name=" 76963904" class="cls-2" d="M87.82,27.17A13.2,13.2,0,0,1,90,26c1.1-.6,2.48-.39,2.31,1.2A2.49,2.49,0,0,1,90,29.33c-.7-.81-1.43-1.36-2.14-2.16Z"/><path id="_76815600" data-name=" 76815600" class="cls-6" d="M130.57,24.06c-3.63,3.9-7.23,7.17-10.88,11.09.3-.69.47-2,0-2.42-1.56,1.17-3.3,1.4-4.64,3.11a8.87,8.87,0,0,1-4,2.17c.86-1,1.16-2,.86-2.47-1.32,1.26-3,2.55-4.15,3.87-1.21,2.56-2.61,6.61-.51,9.93a20.92,20.92,0,0,0,1.89,10.39c0-3.66-1.29-7.53.09-9.83a11.56,11.56,0,0,1-.88-8.83c.45-1.48,1.31-2.15,3.5-2.45a8.31,8.31,0,0,0,4.12-2c.89-.61,1.84-1.53,2.72-1.6a3.07,3.07,0,0,1-.26,1.89c2-.82,4.86-1.08,6.15-2.32-1.48.59-.08.27-1.38.34-.88.16-1.21-.16-1.31-.74a2.42,2.42,0,0,1,1.4-1.33,4.54,4.54,0,0,1,1.64-.65,62.23,62.23,0,0,0,5.55-8.18Zm-15.91,16.8A4.09,4.09,0,0,0,111,42.2a3.29,3.29,0,0,0,.13,3.23C111.27,42.82,111.57,42.11,114.66,40.86Zm3.67-3.34a3.2,3.2,0,0,0,1.66-.18c-1,.94-2.87,2.49-4.34,2.81A14.27,14.27,0,0,0,118.33,37.52Zm-.44,7.88a22.44,22.44,0,0,0,8.94,1.15,31.84,31.84,0,0,1-7.62.39,9.71,9.71,0,0,0-2.48-.55C117.12,46.05,117.36,45.89,117.89,45.4Zm-3.8,8.27c-.19.37-.32.58,0,.77.44.36.56.75.78,1.63a1.7,1.7,0,0,0,1.28,1c.47-.33.58-.44.34-.6-.52.16-1-.49-1.23-.95a2,2,0,0,0-1.17-1.89Zm-2.2-3.11c-.39-1.33.46-.9.82.33A17.32,17.32,0,0,1,113,59.8c.78,0,1.3.74,1.77,1.3a2.55,2.55,0,0,0-2.07-.47c-1.4,1.48-2.7,3.64-3.13,4.11a16.39,16.39,0,0,0,2.35-14.18ZM47.22,39.64a2.58,2.58,0,0,0,3.09.55c.43-.06.71.55.6,1C48.73,42,46.83,41.12,47.22,39.64Zm.84-2.56c-.43.21-.34.93-.22,1.16a4.21,4.21,0,0,1,2.42-.49,1.9,1.9,0,0,0-2.2-.67Zm6.2-2.47A4.81,4.81,0,0,0,56,38.4a4.31,4.31,0,0,1-4.36-.84,4.77,4.77,0,0,0,2-.06A3.28,3.28,0,0,1,54.26,34.61Zm4.16-6.75A2.14,2.14,0,0,1,55,29a1.65,1.65,0,0,0,.5,2.17c-.15,1-.6,2,0,3.21-.61.27-2.94-.76-.93-3.3-1.84-1.75-.54-2.84.77-3.52.59,1.56,1.95.73,3.11.29Zm8.77,2.38c-1.25.07-1.42.9-1.7,1.89-1.24-.42-1.36.11-1.39.76,1.28-.14,2.38.07,2.92.94a24.43,24.43,0,0,0-3.58,2c-.87.83-2.17,1.45-1.69,2.79.11.92,0,1.75.06,2.67-1-1.72-2.82-3-2.71-4.52.34-.3.92-.83.71-1.47-.05-1,.38-1.89,1.94-1.54A3.58,3.58,0,0,1,62.46,36c.84-.71,3-2.07,2.53-2.49-.93,0-1.94-.46-2.74.12-1-1.34,1.19-2.22,2.5-2-.77-1.23.63-3.14,2.44-1.36Zm1.51,25.6c-.92-1.45-2.61-4.08-2.22-5.8-2.72-2.52-5.57-5.24-8.31-7.79,2.46,3.4,5.16,6.63,7.62,10,.63,0,1,1.13,1.49,1.63-.09.4-.37.3-.8.26A5.14,5.14,0,0,0,68.7,55.84Zm11.75-6.73a4.86,4.86,0,0,1-2.29,2.26c-9.8,1.11-8.42,5.09-11,6.64,1.92-2.1,3.45-4.91.67-6.92A4.13,4.13,0,0,1,70.63,53a10.27,10.27,0,0,1,6.28-2.4c2.11-.18,2.12-1,3.54-1.52Zm2.63-4.68a38.53,38.53,0,0,0-6,4.48,4.68,4.68,0,0,1-3,1.1,15,15,0,0,0,2.32-1.71,13.86,13.86,0,0,1,6.64-3.87Zm3.4-19.65c-.59.06-.57-.1-.69.43A18.48,18.48,0,0,0,91,30.42c.39.21.74.16.15-.41a3.73,3.73,0,0,1-1.79-1.71,1.58,1.58,0,0,0,.84-2.65c.5-.67,2-.55,2.66.26,3.54,2.14,4.51.8,9.43-1.32-4.19,1.78-6.6,2.4-9.46.72-1.25-.56-3,.09-3.73.48,1.68.11,1.15,1.89-.34,1.7A4.47,4.47,0,0,1,86.48,24.78Zm15.16,3c.38.3.81.49,1.2.81,0-.51.59-.92,1.56-1.1a5.52,5.52,0,0,0,2.22-.56C103.62,27.56,102.43,26.37,101.64,27.79Zm.49,2.42c-.28-.52-.3-.53.32-.41,3.61,3.23,2.47,6.75,2.53,9.35,0-3.1-.49-6.91-2.85-8.94Zm-1.21,11.06c.24-.52.46-.75.59,0-.16,1.2-.48,3-1.67,4.08A9.64,9.64,0,0,0,100.92,41.27Zm2.9,7c-.31-.73-.5-.57-.82-.11-.57.88-.46,1.7.58,2.88-.11-1.29-.33-1.77.24-2.77Zm.84-8.25c.1-.48.49-.73.6-.16-.32,2.06-.86,4.71-2.27,6.52-1,1.5-.77,1.13-1.79,2.63-1.85,3.35.89,3.92,1.51,5.53.2.24-.38.1-.93-.09.09,1.22.16,2.45.24,3.69-.45-1.85-1.14-3.37-1.59-5.21-1-1.45-.52-3,.49-4.44,1.71-1.87,4-5.42,3.74-8.47Zm-3.8,19.94a15.29,15.29,0,0,1-1.77-7.58c0-.37-.5-.26-.72.12C97.88,55.33,99.45,58.36,100.86,59.92Zm5.78,5.21c1.82-.07,3,1.08,3.54,3.18.55,2.33,2.36,5,3.74,7.45a48.25,48.25,0,0,1-4.38-7c-1.36-3.85-2.9-2.46-6.33-2.12a4.38,4.38,0,0,1-3,1.82c.24,2.73,2.7,2.42,3.18,3.71a51,51,0,0,0,2.84,5.68c-.77-.08-3.39-1.21-3.64-1.73a6,6,0,0,0-4-1.64c-.64,0-.78-.57-.13-1a5.78,5.78,0,0,1,4.6,2.11c.71.45,1.56-.76-.36-3.33-1.21-1.51-3.42-1.71-4.47-4.13,1.88.11,3.67,0,3.86-1.22a11.21,11.21,0,0,1-3.63-4.61,5.27,5.27,0,0,0,3.55,1.7c-.35.39-.24.65.28.88,1.36,1,2.26,1,4.31.3Zm8,9.42c-.87-2.12-2.46-4-3.55-6,4.67,4.31,9.12,9.68,13.57,14.18a86.33,86.33,0,0,1-10-8.17Zm1.12-8.13c.11.49-.34.87-.58.55-.63-1-1.73-1-1,.25,2.22,2.1,4.66,4.43,6.88,6.55-2.8-2.23-5-4.26-7.83-6.48-.76-1.06-.63-2.65,1.05-2.51a2.56,2.56,0,0,1,1.43,1.64Zm.63-8.27c3.77,2,6.11,5.34,9.78,6.82,4.45,4.52,11,9,20.68,11.91-7.79-.92-17.29-7.81-22-11.34-3.28-2.12-5.18-5.28-8.44-7.39Zm7.12-1.48a71.89,71.89,0,0,0,19.26,10.88,102.84,102.84,0,0,1-12.2-7.72,36.63,36.63,0,0,1-7.06-3.16ZM88.09,45.08a10.35,10.35,0,0,0-4.12,1c-.41.68-.24,1.21.84.81A10,10,0,0,1,88.09,45.08Zm4.58,2a5.53,5.53,0,0,0-4.58,2.15l3-.45a5,5,0,0,0-1.58,2.89c1.36-1.45,2.4-3.87,4.62-4.27-.76.35-1.57,5.1-.24,6-.64-2.44.37-4.92,1.77-7.25a11.42,11.42,0,0,1-3,.94Zm-6,3h1.06l-3.54,4.57C85.05,53.14,85.87,51.62,86.69,50.1Zm-13.3,20a11,11,0,0,1-3.89,3.41c.24,0,.63-.07,1.06-.16a8.18,8.18,0,0,0,3.89-2.86c-.52-.06-.48-.16-1.06-.39ZM65.83,58.74a12.63,12.63,0,0,0,5.06-2.9c-.09.37-.39.79-.29,1.25a10.93,10.93,0,0,1-4.77,1.65Zm13-3.84A6.2,6.2,0,0,1,76,54.39a4.32,4.32,0,0,0-2.59.88c-1.8,1.47-3.84,4.24-3.09,6.45.8-.46,2-2.17,3.3-2,1-.56.76-.65-.06-.51a3.87,3.87,0,0,0-2.35.93c-.5-.77,1.44-4.62,4.59-5.12A4,4,0,0,0,78.85,54.9Zm2,1.93a29.29,29.29,0,0,1-5.16,2.52c-1.19.52-1.36.68-1.62,1.86A4.93,4.93,0,0,0,72.09,64,3.86,3.86,0,0,1,71,66.05c.52-.32,1.19-.87,1.71-1.17a6.25,6.25,0,0,1-1.23,2.44c.41-.09.82-.16,1.21-.23a16.39,16.39,0,0,1-5.46,5.07,12.58,12.58,0,0,0,6.5-5.37c-.22-.41-.39-.41-.76-.26.34-.52.54-1.65,1-1.86.85-.46,1.56-2,1.51-4,1.19.47,3.8-2.46,5.47-3.4.54-.35.51-.56-.15-.4ZM94,37.64a1.7,1.7,0,0,1-1,.66,21.84,21.84,0,0,1-6.33-1.17c1.84,1.26,4.75,1.56,7.13,1.77.21-.43.56-.89.19-1.26Zm-1.57-8.35c-.65.05-.59-.05-.54.3a29.63,29.63,0,0,1,2.54,7C94.73,34.55,93.71,31.66,92.46,29.29Zm4.23,6.76a11.92,11.92,0,0,0-.58-4.71c1.21.23.43.69,2.11-.29.11,2.42.26,5.52-.56,7.58A43.38,43.38,0,0,0,98,31.51a1.71,1.71,0,0,1-1.2.39c.47.82.41,3.61-.09,4.15ZM101.63,27a9.35,9.35,0,0,1-3.86,1.87c-.11.46-.11.72.34.72,1.78-.58,2.94-1.89,4.43-2.73,1.73.21,2.89.51,3.84-.2a4.49,4.49,0,0,1-3.39-.18C102.11,26.39,101.92,26.46,101.63,27Zm-4.34,29.6a20.1,20.1,0,0,0,1,4.81c-.2.4-.26.33-.85.56a17.26,17.26,0,0,0,2.44,4.51c.37.35-.24,1.25-1,1.08-2.29-1.61-3.26-3.63-4.47-5.59a5.9,5.9,0,0,0-1.45-2.31,2.5,2.5,0,0,1-.45,1.75c-1.28-1.66-2.42-8.22.62-13.13C89.91,51.6,90.13,59,92.35,63.06c0-.79.17-1.13.65-1.18.06-.48.28-.71.71-.41.86,2.18,2.11,4.76,3.93,6.17a4.34,4.34,0,0,0,3.93-.44,17.47,17.47,0,0,1-3.84-5.27c.86,0,1.46-.16,1.61-.76A19.42,19.42,0,0,1,97.29,56.56ZM93,57.75c1,2.43,2,5.74,4.5,7.54-1.69-1.7-.37-3.07-1.63-4.43-1.46-.22-2.11-2.16-2.87-3.11Zm-5.53-8.46c.26-.68-4.12-.16-5.65.81-.22.53.23.72,1.08.47a12.94,12.94,0,0,1,4.57-1.28Zm.78,7.54c.18.67.72.35,1,0-.62-.94,0-2.53,0-3.8a5.6,5.6,0,0,1-3,2.53,7.11,7.11,0,0,0-3.52,1.85c.13-1.61,0-4.1,2.12-5.86-1.3.47-5.16,3.12-5.16,4.8.9-.85,2.54-1.73,2.78-1.5.48,0,.28.53.28,1a6,6,0,0,1-1.83,2.26.85.85,0,0,1,.84.34,8.87,8.87,0,0,0-2.55,3.69c-.32.63-.67.6-.86-.2a6.39,6.39,0,0,1-3,3.31c.91.53.49,2-.61,3.26a5.36,5.36,0,0,0,1.67-1.27A4.79,4.79,0,0,0,77.41,64c.34,0,.51-.33.62-.81.43.48,1,.37,1.32-.23a20.85,20.85,0,0,1,3.28-5,7,7,0,0,1,4.11-2.19c1.22-.27,1.38.21,1.46,1ZM82.14,71.44A2.9,2.9,0,0,1,82.63,69c-1.29.65-2.63,2-2.76,3.18.9-.46,1.34-1.4,2.27-.76Zm3,6.16A3.54,3.54,0,0,1,82.39,76c-.41-.6-1.23-.68-1.38-.15a12.87,12.87,0,0,0,.26,4.22c1.62-.23,3,1.45,4.39,2.45C85.63,81.33,84,80,83,79.28a1.24,1.24,0,0,1-.35-1.78c.65.69,1.39.69,2.44.1Zm6.11-2.74A4.68,4.68,0,0,1,93.65,77C94,76.22,93.69,74.6,91.2,74.86Zm3.5-2.7c.71.81,1.82,1.91,2.72,1.15-.1,1.47,0,3.14-1,4.27-1,.57-1.36,0-.91-.72C96.28,76.14,96.75,75.46,94.7,72.16ZM91.27,80a8.68,8.68,0,0,1,.48,2.6A10.24,10.24,0,0,1,95,86.1c-.44-2.16-2.29-4.36-3.76-6.06Zm8.44,10.49c1.21.5,1.36-.93,2.18-1.66.69-.53,2.38.18,2.77-.09-1.17-.86,1-1.13,1.42-1.13a6.22,6.22,0,0,1-2.87-1.2c-.6.07.19,1.5-.26,1.65a4.73,4.73,0,0,1-3.2-1.47c-.45-.78-.94-.71-.94,0a2.3,2.3,0,0,1-.7,1.83C98.94,88.94,99.26,89.88,99.71,90.53Zm5.34-21.65a2.09,2.09,0,0,0,1.34.26c.81,3.11,2.91,6.66,4.47,9.82a55.06,55.06,0,0,1-5.81-10.08ZM92.56,64.32a3.88,3.88,0,0,1-1.21,2.06c1.8,2,3.59,4.81,5.81,6.28a14.9,14.9,0,0,1-2.63-4.39c-.71-.12-1.34-1.18-1.36-2l-.61-2ZM89,62a9.73,9.73,0,0,0,0,7,2.14,2.14,0,0,0,2.43.67c-.15-.82,0-.73.8-.94-.45-.67-1-2-1.51-1.59s-1-.23-.28-1.06A14,14,0,0,1,89,62Zm-.39-3.56c-.56.45-.89,1.18-1.94,1,.79,2.77.1,7.77,1.18,8.67a8.77,8.77,0,0,1,.07-4.54,17.6,17.6,0,0,0,.69-5.17Zm2.27,16.32a2.75,2.75,0,0,0-1.92.86c-.87-1.25-1.56-1-2.9-.12a5.64,5.64,0,0,1-.24-4.72c.78-2.1-.43-3.9-.25-6.18a2.47,2.47,0,0,1-1.47,1.06c-1.17,2.07-2.83,4.35-6,4.68A10.69,10.69,0,0,0,83,65.71a1,1,0,0,1,1.42-.84,6.09,6.09,0,0,0,1.41-1.68c.39.19.75,1.08.67,2.75-.15,2.18,1,4.07,2.18,5.87-2.48-1.59-2.75.63-2.53,2.28,1.3-.94,3.22-.07,4.69.67Zm-41.4,3c-.9,2.38.56,4.09,2.35,3.49C50.39,80.5,51.11,77.9,49.44,77.73Zm10.11-2.51c-.33.42-.33.44-1.1.53a2.49,2.49,0,0,1,1.46,1.38A1.84,1.84,0,0,0,59.55,75.22Zm-2.87-1.93c-.8,1,1.9.62,2.83,1.86C60.15,73.7,58,72.69,56.68,73.29Zm.38,3.34a1.13,1.13,0,0,1-1.12.62,3.43,3.43,0,0,0,1.54,2.6,4.59,4.59,0,0,0,2.87.74,12.91,12.91,0,0,1-3.29-4Zm4.73,6.13c.78-.6.57-1-.6-.53-.5.46-1.82,1.08-2.14.64a4.27,4.27,0,0,0-2.12-1.06,1.47,1.47,0,0,1-1.23-.46c-.39.33-.36.51-1,.62-.56-.06-.88-.3-.6-.69.5-.6.67-1.47.24-1.89-.2.63-1.32,1.32-2.1,1.62a4.16,4.16,0,0,0,3.95,1.8c.76,1.08,1.58.94,2.59.85a6.74,6.74,0,0,0,3-.9Zm-4.73,2.53a3.69,3.69,0,0,0-2.57-.39c-.49.17.33.53,0,.74-.63,0-1,.67-1.34.41-.26-.92.58-2.42,1.59-2A3.59,3.59,0,0,1,57.06,85.29Zm-1.12,2.22c-.63-.46-1.51,0-1.9.44a2.54,2.54,0,0,0,1.62,1.58,1.67,1.67,0,0,1,.28-2ZM58,86.13c.93.6,1.32,1.49,2.6,1.91a2.2,2.2,0,0,1-2.57,0c-.16-.78.12-1.17,0-1.93Zm5.29-.31a2.65,2.65,0,0,1-2.54.49,2.08,2.08,0,0,1,.15,1.34c.17-.08.21-.47.3-.65C62.35,87.19,63.05,86.86,63.28,85.82Zm.11-1.29c1,.9,3.26,0,3.16-.87C65.94,82,64.21,84.12,63.39,84.53Zm11.49-.85c-.82.09-1.21.56-.86,1.27,1.64,1.48,3.15.34,3.52-1.15a3.35,3.35,0,0,1-2.66-.12Zm2.05-11.17c-2.57,3-7.28,6.19-10.8,8.87,1.32-.58,1.71-.69,2.21-.3,1.72-1,6-4.15,8.63-5.72-.49-.87-.19-1.82,0-2.85ZM87.12,79c1,1,1.28,3.43,2.46,5.09A13.47,13.47,0,0,0,87,81.91,4,4,0,0,0,87.12,79Z"/><path id="_76815528" data-name=" 76815528" class="cls-7" d="M55,118.53c4.4.61,7.2.12,11-2.31,4.55-2.91,8-3.54,13.94-.29,5.19,2.83,7.76,3.76,13.25,1,7.42-3.72,8.82-5.34,16.59-1.17,5.86,3.15,9.17,3.12,13.64,1.08,5.46-2.49,7.46-5.54,13.88-1.66a15.32,15.32,0,0,0,4.95,1.6q-1.93,1.81-4,3.46a8.29,8.29,0,0,1-2.54-1c-3.45-2.14-7.13-.08-10.72,2.17-4.31,2.69-10.16,2.69-16.06-.34-7.55-3.87-7.2-2.94-14,.87-5.93,3.31-9.09,2.44-14.9-.57-5.93-2.82-8.74-2.25-13.56.66a10.55,10.55,0,0,1-4.85,1.4,64.39,64.39,0,0,1-6.56-5Zm-13-15.2c2.18-.93,5.71-.23,10.38,2.23,5.72,3,8.25,3.4,11.47,1.41,5.51-3.42,9.06-5.64,15.49-2,6.09,3.47,8.73,4.65,15.27.86s6.83-4.55,13.73-.91c4.85,2.56,8.82,4.35,14.25,1.36s8.07-4.76,14.8-1.2c3.79,2,6.83,3.63,11.21,2.68.7-.15,1.35-.32,1.82-.43a61.33,61.33,0,0,1-4.56,5.71,14.41,14.41,0,0,1-7.15-2.1,11.93,11.93,0,0,0-13.13,0c-5.7,3.62-11.83,3.5-17.59.07-7.53-4.48-7.62-1.71-14.51,1.66-4.8,2.35-8.33,2-12.6-.56-4.54-2.77-8.53-4.61-14-.83-4.6,3.2-8.4,3.33-13.1,1.62-2.46-.9-4.84-2.45-7.38-3.25A62.22,62.22,0,0,1,42,103.33Zm-4.53-9c3.44-2.64,9.44-2.2,12.92,0,7.64,4.76,11.65,3.8,16.25.23,4.41-3.81,9.79-2.17,14.26.35,6.85,3.85,8.15,4.92,15.83-1.15,4.13-3.25,8.16-2.12,12.78.34,8.85,4.72,8.19,3.73,15.89-.16,5.38-3.19,9.71-1,14,.94,4,1.78,6.6,3.72,10.47,2a58.27,58.27,0,0,0,8.69-5.35,64,64,0,0,1-4.36,9.88c-3.44,1.62-8.33,2.61-12.09.84-2-.95-4.06-1.92-6.12-2.85-3.27-1.47-6.85-1.9-11.61,1.36-4.41,3.55-9.48,3.12-15.87-.28-3.58-1.91-6.89-4.11-11.11-.45-7.56,5.39-10.47,4.28-16.33,1.35s-7.93-4.41-14.4-.25c-5.32,3.42-10.88,2.39-16.57-.54-3.51-1.81-8.5-1.79-10.15-.93Q38.59,97,37.48,94.31Z"/><path id="_76815384" data-name=" 76815384" class="cls-8" d="M55,118.53a15.47,15.47,0,0,0,6.68-.25A20.89,20.89,0,0,0,68.36,121c-.62.32-1.27.69-2,1.11a10.55,10.55,0,0,1-4.85,1.4,64.39,64.39,0,0,1-6.56-5Zm21.65-4.09a20.88,20.88,0,0,1,3.28,1.49,27.19,27.19,0,0,0,4.8,2.22,24.78,24.78,0,0,0,2.46,5.91c-2.2-.22-4.4-1.18-7.22-2.64-.45-.22-.88-.41-1.29-.58a7.9,7.9,0,0,0-1.88-6.25l-.15-.15Zm29.09-.52a28.43,28.43,0,0,1,4,1.85c5.86,3.15,9.17,3.12,13.64,1.08.54-.25,1-.49,1.52-.74.45,1.61.94,3.13,1.43,4.48-.47.28-.95.57-1.42.87-4.18,2.61-9.8,2.69-15.52-.07a30.28,30.28,0,0,1-3.68-7.47Zm32.65,1.82a18.13,18.13,0,0,0,3.85,1.05c-.84.78-1.7,1.54-2.59,2.29-.47-1.18-.89-2.29-1.26-3.34Zm-94-12.81c2.07,0,4.78.91,8,2.63a33.06,33.06,0,0,0,4.14,1.92,4.85,4.85,0,0,1,.72,2.4c0,2.18-.08,3.17.24,4a18.55,18.55,0,0,1-3.66-1c-2.26-.83-4.45-2.2-6.76-3-1-2.6-1.92-5.08-2.72-7Zm28.79.18A12.22,12.22,0,0,1,79.35,105a41.08,41.08,0,0,0,4.77,2.44,30,30,0,0,0-.17,6.21,17,17,0,0,1-3.06-1.51,18.7,18.7,0,0,0-6.48-2.84c-.46-2-.77-4.22-1.27-6.19Zm30.75-.18a27.45,27.45,0,0,1,4.46,2c4.85,2.56,8.82,4.35,14.25,1.36l.09,0c.34,1.92.73,3.83,1.16,5.69-5.2,2.58-10.67,2.17-15.85-.91a24.53,24.53,0,0,0-3.43-1.76A47.61,47.61,0,0,1,103.89,102.93Zm32,1.44c.48.21,1,.46,1.52.74,3.79,2,6.83,3.63,11.21,2.68.7-.15,1.35-.32,1.82-.43a61.33,61.33,0,0,1-4.56,5.71,14.41,14.41,0,0,1-7.15-2.1,12.69,12.69,0,0,0-2-1.06,40.4,40.4,0,0,1-.81-5.54ZM46.59,92.8a12.08,12.08,0,0,1,3.81,1.49,24.54,24.54,0,0,0,5.38,2.63c.23,1.85-1.12,3.1-1.32,5.48a28.19,28.19,0,0,1-4.39-1.85,15,15,0,0,0-5.46-1.45,30.45,30.45,0,0,0,2.81-2.75c1.37-1.37.59-2.59-.83-3.55Zm25.49-.52c3-.17,6.09,1,8.83,2.59a32.19,32.19,0,0,0,5.7,2.84,48.2,48.2,0,0,0-1.68,5.39A42.39,42.39,0,0,1,81,101.34c-3.78-1.9-6-3.16-8.66-2.78-.06-2,0-4.47-.3-6.28Zm31.84-.4a20.2,20.2,0,0,1,5.6,2.18c7,3.73,8,3.89,12,1.87.08,1.93.27,4,.56,6.25-3.87,1.87-8.27,1.09-13.59-1.74a23.83,23.83,0,0,0-4.67-2.17c0-2.09.07-4.22.11-6.39Zm31.89,1.43c1.21.46,2.39,1,3.56,1.53,2.5,1.11,4.45,2.29,6.52,2.59a18.94,18.94,0,0,0,.72,5.72,10.58,10.58,0,0,1-4.53-.94c-2-.95-4.06-1.92-6.12-2.85l-.27-.12C135.69,97.45,135.73,95.5,135.81,93.31Z"/></g></g><path id="path5145" class="cls-9" d="M152.47,262.49V230.85c-3.16-6.32-6.32-9.49-6.32-19s3.16-12.65,6.32-19c0-9.49,0-19-10-28.72-12.1-15.57-38.68-9.24-45.38-25.06-9.75,15.82-33.16,9.49-45.81,25.31-9.49,9.49-9.49,19-9.49,28.47,3.16,6.33,6.33,9.49,6.33,19s-3.17,12.66-6.33,19v31.64c17.34,7.42,38,9.49,55.36,9.49C117.07,271.82,135.44,270.08,152.47,262.49Z"/><path id="path5113" class="cls-10" d="M97.15,185.2l.09-11H93.49l0,11.12c1.18.12,2.51,1.08,3.7-.14Z"/><path id="path5097" class="cls-10" d="M108.4,165.77l0-7.68-3.51,0,.16,7.73a21.42,21.42,0,0,0,3.37,0Z"/><path id="path5105" class="cls-10" d="M82.29,170.18l-.05-11.92,4.06-3.54v13.36c-1,.14-4.3-2.48-4.08,1.89Z"/><path id="path5109" class="cls-10" d="M86.25,184.82l.08-5.32-4.11-.12-.07,5.77v1.25a5.59,5.59,0,0,0,1.92,3.37,6.21,6.21,0,0,0,2.19-3.28Z"/><path id="path2987" class="cls-11" d="M133.81,192.22l-14,.22c-.87-.36-2.48,3.9-3.83,3.72a23.33,23.33,0,0,0-6.79.85l-8.79,4c-2.75,1-7.2.65-10.61.85-.79-.18-4.3,1.3-8.09,4-1,.2-1.78.91-3.06,0a14.88,14.88,0,0,0-2.55-5,17.59,17.59,0,0,0-5.94-4.57,58.18,58.18,0,0,0-6.36-2c-1.73-.28-3.27.06-4.66-.5-1.42-.72-4.39-5-5.59-7.57-.07-2.32-.1-3.49,0-5.49a6.76,6.76,0,0,0-2.61-5l-2.17,3.53a6.19,6.19,0,0,0,.86,2.74c.37.53,0,1.11.08,2a4.86,4.86,0,0,0,.39,2.65l1.77,3.8,2.52,3.82c1.48,2.67-1.17,1.56-1.62.45a11,11,0,0,1-2.58-4.93c-.15-1.6.08-4.15-.89-5.42S47.45,181,46,180.91l-.76,5.54c-.06.41,1.9,1.87,1.9,2.91-.91,1-1.47,2.2-1.06,2.73,2.34,3.8,5.05,7.77,5.87,8.36,1.47.72,3.41.51,5.21.58a5.53,5.53,0,0,1,4,2.8A22.83,22.83,0,0,1,63,207.36c.68,2.57.61,5.06,2.8,7.83l.78.78c2.64,2-.59.31-1.54.27-2.17,0,3.7,4.85,5.73,4.68a68.14,68.14,0,0,0,8.76-.32L87,220a40.83,40.83,0,0,1,9.33-.19l8.29,1.11a19.91,19.91,0,0,0,7.11.52c1.78-.1,5.72-3.42,5.57-1.62-1.15,1.64-2.33,3.28-2.52,5.41a15.78,15.78,0,0,0,.66,7c-.94-.1-2.19-1-2.19.42a5.43,5.43,0,0,0,2.34,4.09c2.57,3-3.51-2-5.65-3.28-3-3-5.71-5.93-8.57-8.73l-2.27-1.7c-1.83,0,.31,3-.8,2.23-.93-.84-1.35-2.08-2.91-2.45a8.7,8.7,0,0,0-4.1-.37c-1.52.4-3.13.74-4,1.86-.56.61-1.49,1.91,1,1.1l1.81-.26a10.11,10.11,0,0,1,3.91.47,4,4,0,0,1,1.59,1.21,4.27,4.27,0,0,1-1.84,1.81c-1.8.78-1.56.22-4.28.66-.21.47,2.31,1.73,4.37,1a13.82,13.82,0,0,0,3.15-1.74,1.45,1.45,0,0,1,1.3-.18c1.83.34,2.8,1.29,4.1,2.51,1.29.84-2.29.49-4.47,1.49-.32,1,.82,2,1.64,2,1.62.11,3.85-.09,4.55-.56,1-.74,5,2.65,3.58,2.77l-1.42.77c-2.67.08-2.77,1.75,1,2.38,1.19.17,2.41-.91,3.72-1.16a9.37,9.37,0,0,1,3.35,1c.85.42,1.92.92,2.24,1.66a3,3,0,0,1,.31,2c-.23.8-1.16,1.77-3,2.73a5.87,5.87,0,0,1-3.65.69l-7.34-.55c-2.91,0-4.92,1.18-7,1.91l-4.38.4A6.07,6.07,0,0,0,87.73,251c-1.49,1.77-1.73,6.22-.09,3.75.71-.53,1.89-1.76,2.52-2.31,1.26-.92,1.56-.87,3.2-.55,2.52,1.34-4.47,4.32-2.29,4.68a7.59,7.59,0,0,0,3.09-1,5.76,5.76,0,0,0,3.36-3.37c-.07-1.18.93-2.51,1.83-2.52l2.31.24c.88.18.1,2.68-2.34,4-.95.41-.63,1.31.68,1.22a7.62,7.62,0,0,0,2.89-1.58l3-3.73a1.8,1.8,0,0,1,1.3-.46l3.07.79c1.51.68-.16,1.5-1.09,2.73-1,1,.44,1.19,1.61.63.86-1,2.11-1.3,3-2.34.77-.39.84-1.51,1.93-2.06a5.25,5.25,0,0,0,2.17-1.54,6.42,6.42,0,0,0,1.74-2.32c.69-1,1.53,2.45,3.46,2.83,2.83.54,2.6-.2,2-1l-.82-1c-.63-.72-1.31-1.66.63-2.23l1.91-.6c1.56-.75,1.61-1.75,2.54-2.66a22.05,22.05,0,0,1,3.26-2l2.78-1.19c1.52-.59.23-2.34-1.8-2.43-1.89.15-1.93.16-.48-.33,1.78-.71.06-1.28-1.06-1.49-.61-.13-1.45.4-1.8.55a5.62,5.62,0,0,1-3,.07c-1.29-.28-3.12-.35-1.87-1.47l1.88-2.52c1.23-1.8.91-3.6,1-5.4.84-1.76,2.48-2.6,3.43-3.9,1.43-1.4,2.84-7.81,1.16-11.39-.42-1.4-2.49-4.06-1.65-4.26a14.94,14.94,0,0,0,4-1.74A6.58,6.58,0,0,1,138,202a9.69,9.69,0,0,0,3.24-.8c1.86-.85,2.18-1.7,2.27-2.49A37.22,37.22,0,0,1,145,191c.62-1,1.25-2,1.87-2.79,1.11-2.83.86-6.46.93-8.21-.36-.62-1.08-.62-1.78.34l-2.65,3.43c-.64.45,0,2-.1,2.7a5.28,5.28,0,0,1-1.62,1.92l-.66,4.7a8,8,0,0,1-1.39,3.69,13.5,13.5,0,0,1-5.27,2.17c-7.09,2.32-10.74.57-7.8-.34l4-1.08c.85-.27,2.23-.54,3.58-.8l2.4-.33c2.94-.63,2.59-2.46,2.94-3.92a25.8,25.8,0,0,1,1-4l2.24-6.05,1.24-3.05c.51-1.44.24-2.63-1.16-2.51a3.94,3.94,0,0,0-2.22.61,3.51,3.51,0,0,0-2,2.18c.35,3.57-1.19,1.89-.9,3.82-.19,1.77-.47,4.53-.65,5.44.09,1.15-1.76,3.29-3.19,3.26Z"/><path id="path2995" class="cls-12" d="M79.63,206.41c-.42,1-1.9.19-2.37-.18L75,203.83a48,48,0,0,0-4.9-3.73A21.6,21.6,0,0,0,64.6,198c-1.48-.33-3.63-1.06-5.23-.67-1.69,0-3.83-.18-4.73-1.14"/><path id="path5069" class="cls-10" d="M105.24,173.92l-.06-2.77c-6.38.17-12.51.39-18.88.56L86,174.35c2.95,0,6,.07,9.24,0s6.63-.28,10-.42Z"/><path id="path2997" class="cls-12" d="M119.85,215a7.33,7.33,0,0,0,.85-4"/><path id="path2999" class="cls-12" d="M118.15,214.94c.43-1,1.25-2.68,1-3.91"/><path id="path3001" class="cls-12" d="M85.9,206.32c.07.68-1,1-.62,2"/><path id="path3003" class="cls-12" d="M84.05,207.32c.19.7-.89,1-.57,1.77"/><path id="path3005" class="cls-12" d="M82.17,208c.16.66-.85,1.11-.61,1.64"/><path id="path3007" class="cls-12" d="M80.46,208.07c0,.88-1.32.94-1.11,1.81"/><path id="path3009" class="cls-12" d="M71.54,201.17c-1.58.21-4.42-.08-4.73.63"/><path id="path3011" class="cls-12" d="M69.45,200a23.26,23.26,0,0,0-4.59.66"/><path id="path3013" class="cls-12" d="M66.53,198.49a9.46,9.46,0,0,1-4,1.56"/><path id="path3015" class="cls-12" d="M63.54,197.58c.3.53-2.43.85-2.5,1.92"/><path id="path3019" class="cls-12" d="M118.35,238.18c-.26-1.48.21-3.1-1.17-4.36a11.18,11.18,0,0,0-2.34-1.82"/><path id="path3021" class="cls-12" d="M119.34,221.2a13,13,0,0,0-2.92,4.21c-.39,1.52-.48,3.42.28,4.59"/><path id="path3023" class="cls-12" d="M118.9,221.63c-.54,1.21-1.45,2.34-.63,4"/><path id="path3025" class="cls-12" d="M122.42,243a10.81,10.81,0,0,1-2.28-3.06"/><path id="path3027" class="cls-12" d="M123.08,241.91a6.7,6.7,0,0,1-1.76-2.49"/><path id="path3029" class="cls-12" d="M124,234.66c0,.75-.78,1.24-1.12,1.83"/><path id="path3031" class="cls-12" d="M120.9,234.93c.29.65-.22,1.3-.66,1.95"/><path id="path3033" class="cls-12" d="M122.57,234.58a3.2,3.2,0,0,1-1,1.94"/><path id="path3035" class="cls-12" d="M119.44,235.2c.54.85-.23,1.55-.64,2.13"/><path id="path3037" class="cls-12" d="M125.56,234.11a3.3,3.3,0,0,1-1.49,2.2"/><path id="path3039" class="cls-12" d="M109.32,198.61c.14,1.15-1.85,1.12-1.51,3.42"/><path id="path3041" class="cls-12" d="M107.15,199.11c.13,1.18-1.31,1.45-1.3,3.48"/><path id="path3043" class="cls-12" d="M105.33,199.89c-.4,1.26-1.53,1.38-1.41,2.88"/><path id="path3045" class="cls-12" d="M102.82,201.39c0,.94-.78,1.46-1,2.54"/><path id="path3049" class="cls-12" d="M124.46,215.19a5.46,5.46,0,0,0-.1-4.21"/><path id="path3053" class="cls-12" d="M123.38,215.45a18.23,18.23,0,0,0-.36-2.56"/><path id="path3055" class="cls-12" d="M120.07,219.85c1-1.22,3.57-2.88,3.3-4.43"/><path id="path3051" class="cls-12" d="M121,219c.46-1.32,1.29-2.34,1.07-4.22"/><path id="path3065" class="cls-12" d="M131.06,205.37l-4.75-5.44"/><path id="path3067" class="cls-12" d="M101.08,202.14c.26.74-1.22,1.21-1.17,2.42"/><path id="path3069" class="cls-12" d="M99,202.7c.26.74-1,1.27-1,2.28"/><path id="path3071" class="cls-12" d="M113.78,218.19c0,1-1.29,1.06-1.51,2.34"/><path id="path3073" class="cls-12" d="M111.71,218.55c0,.77-.24,1.28-1.35,1.92"/><path id="path3075" class="cls-12" d="M108,218.36a1.36,1.36,0,0,1-1.09,1.38"/><path id="path3077" class="cls-12" d="M110.06,218.55a2.67,2.67,0,0,1-1.12,1.78"/><path id="path3079" class="cls-12" d="M126.28,198.75c-1.92.53-1.06,0-4.52.49"/><path id="path3081" class="cls-12" d="M123.84,201.71a4.93,4.93,0,0,0,.26-2.64"/><path id="path3083" class="cls-12" d="M122.42,204.05a15.33,15.33,0,0,0,.13-4.58"/><path id="path3085" class="cls-12" d="M116.83,197.71c-.33.43-1.34,1.21-1.17,2.21,1.23,2.76,1,2.67,1.13,3.89"/><path id="path3087-1" class="cls-13" d="M96.41,243.09l-.23,3.39-3.24-.24.23-3.38c-1.52-.11,6.42.46-3.25-.24l.23-3.39,3.24.24.22-3.39,3.25.24-.23,3.38L115.3,241c1.75.17,1.54,3.32.24,3.2"/><path id="path5065" class="cls-10" d="M115.85,168.54l6.89-3.29c-5.86.29-24.2,1.16-30.08,1.12l-1.93,2.76c6.44.08,19,.11,25.12-.59Z"/><path id="path5067" class="cls-10" d="M115.94,155.14c-5,0-14.93.05-24.55.05l5.84,3c6.57.14,12.79,0,18.82-.11a21.18,21.18,0,0,0-.11-2.9Z"/><path id="path5071" class="cls-10" d="M93.45,179.78l0-3c-6.18-.08-12.54-.19-19-.61L74.38,179c7,.46,12.89.7,19.07.83Z"/><path id="path5119" class="cls-10" d="M74.38,180.84v-6.38H71.16l0,6.34Z"/><path id="path5079" class="cls-10" d="M93.38,158.07l-.07-2.94-19,.2v2.74Z"/><path id="path5143" class="cls-10" d="M74.33,160.45l-.06-8.27-3.19.89v7.5Z"/><path id="path5123" class="cls-10" d="M74.45,171.6l-.08-9.44-3.11,0-.09,9.4Z"/><path id="path5117" class="cls-10" d="M82.14,171.67c-5.35-.06-11.82-.1-17.46-.12l-.08-2.63c5.77.18,7.94,0,9,.08L76,166.2c-3.06,0-9.53,0-11.31-.17v-2.75c9.41-.05,11.78,0,17.54.05l0-2.91c-4-.13-11.79.05-17.61-.3l-.06-2a10.19,10.19,0,0,1,1.12,0c2.27.06,3.85,0,4.65,0,1.79.05.93-.39,1-3l-6.13.1a9.32,9.32,0,0,0-3.85,1.26c-.35,4.22.21,19.44.56,26.56.11,2.3.2,3.75.23,3.71,1.35-.4,2.06-2,2.54-3.39,6.65.44,11.52.71,17.5,1l0-3.39c-5.75-.27-11.17-.57-17.32-1.11v-1.58l6.39.34,0-2.71-6.39-.26v-1.57c6.06.22,22.24.22,23.47.12,0-1,6.44-1.78,6.43-2.77Z"/><path id="path5107" class="cls-14" d="M86.38,176.62l-.08-10.46-4.14,3.07,0,7.27Z"/><path id="path5141" class="cls-10" d="M97.26,164.3l-.1-14.46-3.77,3,0,7.46Z"/><path id="path5077" class="cls-10" d="M93.5,168.12l-.07-1.91c-6.11.16-13,0-19.14,0V169c5.6.16,13.7.3,19.15.14Z"/><path id="path5115" class="cls-10" d="M97.27,171.35v-8H93.43l0,8.13C94.74,171.48,96,171.41,97.27,171.35Z"/><path id="path5081" class="cls-10" d="M104.93,163.38l0-3-18.57-.06,0,3.06Z"/><path id="path5091" class="cls-10" d="M119.88,160.32l.12-7.82-4-1.38.14,13.21Z"/><path id="path5093" class="cls-10" d="M119.89,170.27l-.11-7-3.72,0,.13,12.1C117.66,175.46,118.59,170.41,119.89,170.27Z"/><path id="path5089" class="cls-10" d="M116.23,178.86v1.35c-1.73.19-5,.9-7.65,1v2.83c2.53-.21,5.45-.83,8-1.19a4.67,4.67,0,0,0,2.19,3.26A5.24,5.24,0,0,0,120.2,182a56.14,56.14,0,0,0,8-1.32,5.39,5.39,0,0,0,1.5,3.1,5.47,5.47,0,0,0,1.95-3.25l.29-24-4.3-1.81-7.58.33,0,2.94,8.26-.12,0,2c-6,.46-13.55.44-19.86.63l0,2.91c6.56-.12,13.4-.12,20-.64l0,1.77c-2.83.36-5.77.66-8.52.89v2.77a84.65,84.65,0,0,0,8.52-.82l0,1.81c-1.17.59-16.63,1.86-23.14,2l.25,2.62c6.52-.33,16.55-.57,22.86-1.93l0,1.8a81.79,81.79,0,0,1-8.18,1.48l0,2.73a51.38,51.38,0,0,0,8.14-1.71l0,2a51.58,51.58,0,0,1-8.09,1.43l-.09-6.55-3.83.24Z"/><path id="path5087" class="cls-10" d="M108.49,179.26l.12,6.32a4.8,4.8,0,0,1-1.26,3.68,3.71,3.71,0,0,1-1.9-3.56l0-6.41"/><path id="path5095" class="cls-10" d="M108.43,176.37l0-7.34-3.19.06.1,7.85Z"/><path id="path5133" class="cls-10" d="M106.06,147.92c-2.46.15-6.49,0-9-.06l.08-1.92,5.38.09Z"/><path id="path5103" class="cls-10" d="M118.28,152.14a91.31,91.31,0,0,1-10,.86c0-1-5.73-2.06-5.61-2.59,1,0,5.75,0,9-.1a8.12,8.12,0,0,1,2.83.45c2.53.77,5.39,1.34,3.83,1.38Z"/><path id="path5083" class="cls-10" d="M109.91,152.73l-.55-2.32c-6.19.15-17.09-.11-23-.51l.14,2.66C104.51,153.64,108.26,153,109.91,152.73Z"/><path id="path5101" class="cls-10" d="M108.16,155.15l.07-6.19-3.74-1.78.19,7.94Z"/><path id="path5111" class="cls-10" d="M97.14,184.84l-3.83,0v2.64A5.56,5.56,0,0,0,95.19,192a5.92,5.92,0,0,0,2-4.67Z"/><path id="path5085" class="cls-10" d="M105.35,184.61l.07-3.05a128.14,128.14,0,0,1-19.11,0v3.1a114.2,114.2,0,0,0,19,0Z"/><path id="path5063" class="cls-10" d="M116.16,178.5l-.07-2.74a184.25,184.25,0,0,1-18.84,1l0,2.92c3.4,0,7.29-.13,10.3-.38C110.15,179.05,114.6,178.82,116.16,178.5Z"/><path id="path5121" class="cls-10" d="M74.62,184.08l-3.5-.16a7.39,7.39,0,0,0,1.66,5.1,8.45,8.45,0,0,0,1.84-4.94Z"/><path id="path5125" class="cls-10" d="M82,155.13,82,150l4.44-1.88-.09,7a24.79,24.79,0,0,1-4.31,0Z"/><path id="path5131" class="cls-10" d="M97.21,150.36l0-6.75-3.84.13,0,6.46Z"/><path id="path5129" class="cls-10" d="M82,150l-7,1.86c2.48-.15,4.86.28,7,.33A15.7,15.7,0,0,0,82,150Z"/><path id="path3068" class="cls-12" d="M127.8,239.1a5.56,5.56,0,0,1-1.8.76c-.71.24-1.39.58-1.81.44s-.87-1.09.26-1.6c.43-.23.76-.15,1.42,0C126.71,238.88,128,238.75,127.8,239.1Z"/><path id="path3840-1" class="cls-12" d="M126.4,239.52c.63-.13.92-.75-.05-.54S125.8,239.66,126.4,239.52Z"/><path id="path3860" class="cls-12" d="M116.19,200.94a7.93,7.93,0,0,1,1.83-2.31"/><path id="path3862" class="cls-15" d="M78.37,205.37c.25,1,1.1,1,1.65,1.1"/><path id="path3849-4" class="cls-16" d="M102,157.57l-4.21,0v-1.68c.9.06,3-.06,4,0Z"/><path id="path3849-0" class="cls-17" d="M97.9,168.35h3.35l.39-1.56c-.79,0-2.79.13-3.78.1,0,.52,0,1,0,1.46Z"/><path id="path3849-48" class="cls-16" d="M75.18,168.29H71.76l.42-1.34c.9,0,1.81,0,2.95,0Z"/><path id="path3849-8" class="cls-16" d="M91.42,173.43a10.42,10.42,0,0,1-3.5.29l.8-1.38c.94,0,5.72-.25,6.82-.27Z"/><path id="path5123-5" class="cls-10" d="M74.44,171.58l-.06-8.3H71.25l0,8.3Z"/><path id="path5143-1" class="cls-10" d="M74.37,160.36l0-8.35-3.19.89c0,2.47-.08,5,0,7.42Z"/><path id="path3982" class="cls-16" d="M111.2,152.16c-.47.06-.8.1-1.27.12s-.76,0-1.11,0V151h1a7.39,7.39,0,0,1,1.64.26Z"/><path id="path3865-7" class="cls-18" d="M79.57,157c-.83,0-1.72,0-2.58,0"/><path id="path3903" class="cls-19" d="M78.21,157.92h-1"/><path class="cls-20" d="M80.4,97.63c-12.64,0-22.88,10.17-22.88,30.51C57.52,153.57,75.73,179,98.2,179s40.69-25.43,40.69-50.86c0-20.34-10.25-30.51-22.89-30.51a22.89,22.89,0,0,0-17.8,8.5,22.87,22.87,0,0,0-17.8-8.5Zm0,0"/><rect class="cls-20" x="25.38" y="109.84" width="145.64" height="54.95" rx="5.46"/><text class="cls-21" transform="translate(61.36 160.69)">Grodno</text><text class="cls-21" transform="translate(48.19 133.93)">Białystok </text><path class="cls-22" d="M45,0l-29,0H.08l0,16c0,7,0,14,0,21A29.1,29.1,0,0,0,51.55,18.3,28.91,28.91,0,0,0,45,0Z"/><text class="cls-23" transform="translate(15.66 31.75)">45</text></svg>