<?xml version="1.0" encoding="utf-8"?>
<!-- Generator: Adobe Illustrator 26.0.3, SVG Export Plug-In . SVG Version: 6.00 Build 0)  -->
<svg version="1.1" id="Слой_1" xmlns="http://www.w3.org/2000/svg" xmlns:xlink="http://www.w3.org/1999/xlink" x="0px" y="0px"
	 viewBox="0 0 195.6 280.6" style="enable-background:new 0 0 195.6 280.6;" xml:space="preserve">
<style type="text/css">
	.st0{clip-path:url(#SVGID_00000008844181272366492030000006571650829255959450_);fill:#1A1A1A;}
	.st1{clip-path:url(#SVGID_00000008844181272366492030000006571650829255959450_);fill:#E83E3E;}
	.st2{clip-path:url(#SVGID_00000008844181272366492030000006571650829255959450_);enable-background:new    ;}
	.st3{fill:#1A1A1A;}
	.st4{font-family:'Impact';}
	.st5{font-size:20px;}
	.st6{clip-path:url(#SVGID_00000008844181272366492030000006571650829255959450_);fill:#423D3D;}
	.st7{clip-path:url(#SVGID_00000008844181272366492030000006571650829255959450_);fill:#7F6D6B;}
	.st8{clip-path:url(#SVGID_00000008844181272366492030000006571650829255959450_);fill:#4481C3;}
	.st9{clip-path:url(#SVGID_00000008844181272366492030000006571650829255959450_);fill:#CCCCCC;}
	.st10{clip-path:url(#SVGID_00000008844181272366492030000006571650829255959450_);fill:#FFFFFF;}
	.st11{clip-path:url(#SVGID_00000008844181272366492030000006571650829255959450_);fill:#CB1A24;}
	.st12{clip-path:url(#SVGID_00000008844181272366492030000006571650829255959450_);fill:#767676;}
	.st13{clip-path:url(#SVGID_00000008844181272366492030000006571650829255959450_);fill:#AF1739;}
	.st14{clip-path:url(#SVGID_00000008844181272366492030000006571650829255959450_);fill:#EB5775;}
	.st15{clip-path:url(#SVGID_00000008844181272366492030000006571650829255959450_);fill:#BADBE9;}
	.st16{clip-path:url(#SVGID_00000008844181272366492030000006571650829255959450_);fill:#8BB0CC;}
	.st17{clip-path:url(#SVGID_00000008844181272366492030000006571650829255959450_);fill:#F293A2;}
	.st18{clip-path:url(#SVGID_00000008844181272366492030000006571650829255959450_);fill:#FFD740;}
	.st19{clip-path:url(#SVGID_00000008844181272366492030000006571650829255959450_);fill:#5A5252;}
	.st20{clip-path:url(#SVGID_00000008844181272366492030000006571650829255959450_);fill:#E83B54;}
	.st21{clip-path:url(#SVGID_00000008844181272366492030000006571650829255959450_);fill:#797979;}
	.st22{clip-path:url(#SVGID_00000008844181272366492030000006571650829255959450_);fill:#545454;}
	.st23{clip-path:url(#SVGID_00000008844181272366492030000006571650829255959450_);fill:#444444;}
	.st24{clip-path:url(#SVGID_00000008844181272366492030000006571650829255959450_);fill:#EFA85D;}
	.st25{clip-path:url(#SVGID_00000008844181272366492030000006571650829255959450_);fill:#636363;}
	.st26{clip-path:url(#SVGID_00000008844181272366492030000006571650829255959450_);fill:#A0A0A0;}
	.st27{clip-path:url(#SVGID_00000008844181272366492030000006571650829255959450_);fill:#FDD083;}
	.st28{clip-path:url(#SVGID_00000008844181272366492030000006571650829255959450_);fill:#DC773D;}
	.st29{clip-path:url(#SVGID_00000008844181272366492030000006571650829255959450_);fill:#3D3D3D;}
	.st30{fill:#E83E3E;}
	.st31{font-size:63.44px;}
</style>
<g>
	<defs>
		<rect id="SVGID_1_" x="0" y="0" width="195.6" height="280.6"/>
	</defs>
	<clipPath id="SVGID_00000033333431649322314520000004214724547052569766_">
		<use xlink:href="#SVGID_1_"  style="overflow:visible;"/>
	</clipPath>
	
		<rect x="-3" y="-4" style="clip-path:url(#SVGID_00000033333431649322314520000004214724547052569766_);fill:#1A1A1A;" width="488.6" height="290.7"/>
	<path style="clip-path:url(#SVGID_00000033333431649322314520000004214724547052569766_);fill:#E83E3E;" d="M150.7,0h29h16v16
		c0,7,0,14,0,21c-10.2,12.4-28.6,14.2-41,4S140.5,12.4,150.7,0z"/>
	<g style="clip-path:url(#SVGID_00000033333431649322314520000004214724547052569766_);enable-background:new    ;">
		<text transform="matrix(1 0 0 1 159.78 31.76)" class="st3 st4 st5">27</text>
	</g>
	<path style="clip-path:url(#SVGID_00000033333431649322314520000004214724547052569766_);fill:#1A1A1A;" d="M87.6,22.1
		c-1.7,0-11.3-0.4-19.3,4.1c-3.9,2.1-6.3,6.1-6.4,10.5l5.5,0.2c0.1-3.4,1.6-4.8,3.6-5.9c6.2-3.5,14.4-3.4,16.6-3.4S98,27.6,104.2,31
		c2.1,1.2,3.4,2.5,3.6,5.9l5.6-0.2c-0.1-4.4-2.6-8.4-6.4-10.5C98.9,21.7,89.3,22.1,87.6,22.1L87.6,22.1z"/>
	<path style="clip-path:url(#SVGID_00000033333431649322314520000004214724547052569766_);fill:#423D3D;" d="M110.6,36.8
		c0-3.5-1.9-6.6-5-8.2c-7.1-4-16-3.7-17.9-3.7s-10.8-0.3-17.9,3.7c-3.1,1.6-5,4.8-5,8.2H110.6z"/>
	<path style="clip-path:url(#SVGID_00000033333431649322314520000004214724547052569766_);fill:#1A1A1A;" d="M87.6,24.2
		c-1.8,0-10.9-0.3-18.3,3.8c-3.3,1.7-5.4,5.1-5.4,8.8l1.4,0.1c0-3.2,1.7-6.2,4.6-7.6c6.9-3.8,15.6-3.6,17.6-3.6s10.7-0.2,17.6,3.6
		c2.9,1.4,4.7,4.4,4.7,7.6l1.4-0.1c0-3.7-2.1-7.1-5.4-8.8C98.6,23.9,89.4,24.2,87.6,24.2L87.6,24.2z"/>
	<path style="clip-path:url(#SVGID_00000033333431649322314520000004214724547052569766_);fill:#7F6D6B;" d="M88.9,29.4
		c-0.6,0-1,0-1.3,0c-2.4,0-13.6-0.3-22.5,3.7c-3.3,1.4-6,3.8-6.3,8c1.3-1.5,3-2.7,4.9-3.4c9.5-3.9,21.3-3.7,23.9-3.7
		s14.4-0.3,23.9,3.7c1.9,0.7,3.6,1.9,4.9,3.4c-0.3-4.2-3-6.6-6.3-8C102.3,29.6,92.8,29.4,88.9,29.4L88.9,29.4z"/>
	<path style="clip-path:url(#SVGID_00000033333431649322314520000004214724547052569766_);fill:#423D3D;" d="M78.4,39.3
		c0-0.3,0.1-0.5,0.3-0.7c0.2-0.2,0.4-0.3,0.7-0.3c0.6,0,1,0.4,1,1s-0.4,1-1,1S78.4,39.9,78.4,39.3L78.4,39.3z"/>
	<path style="clip-path:url(#SVGID_00000033333431649322314520000004214724547052569766_);fill:#E83E3E;" d="M73.4,182.9
		c0,11.6-3.9,28.1-8.7,28.1s-8.7-16.5-8.7-28.1s5.1-13.9,8.7-13.9S73.4,171.3,73.4,182.9L73.4,182.9z"/>
	<path style="clip-path:url(#SVGID_00000033333431649322314520000004214724547052569766_);fill:#1A1A1A;" d="M64.8,166.6
		c-2.9,0-5.6,1.3-7.5,3.5c-2.2,2.6-3.6,6.7-3.6,12.9c0.1,6.4,0.9,12.8,2.6,19.1c0.7,2.6,1.7,5.2,3,7.5c1.2,2,2.8,3.9,5.4,3.9
		c2.6,0,4.2-1.9,5.4-3.9c1.3-2.4,2.3-4.9,3-7.5c1.7-6.2,2.6-12.6,2.6-19.1c0-6.2-1.3-10.3-3.6-12.9
		C70.4,167.8,67.6,166.6,64.8,166.6L64.8,166.6z M64.8,171.4c1.5-0.1,2.9,0.6,3.8,1.8c1.2,1.4,2.4,4.3,2.4,9.8
		c-0.1,6-0.9,12-2.4,17.8c-0.6,2.2-1.4,4.3-2.5,6.4c-0.3,0.6-0.8,1.1-1.3,1.5c-0.5-0.4-1-0.9-1.3-1.5c-1.1-2-1.9-4.1-2.5-6.4
		c-1.6-5.8-2.4-11.8-2.4-17.8c0-5.5,1.2-8.3,2.4-9.8C61.9,172,63.3,171.4,64.8,171.4z"/>
	<path style="clip-path:url(#SVGID_00000033333431649322314520000004214724547052569766_);fill:#E83E3E;" d="M117.2,182.9
		c0,11.6-3.9,28.1-8.7,28.1s-8.7-16.5-8.7-28.1s5.1-13.9,8.7-13.9S117.2,171.3,117.2,182.9L117.2,182.9z"/>
	<path style="clip-path:url(#SVGID_00000033333431649322314520000004214724547052569766_);fill:#1A1A1A;" d="M108.5,166.6
		c-2.9,0-5.6,1.3-7.5,3.5c-2.2,2.6-3.6,6.7-3.6,12.9c0.1,6.4,0.9,12.8,2.6,19.1c0.7,2.6,1.7,5.2,3,7.5c1.2,2,2.9,3.9,5.4,3.9
		s4.2-1.9,5.4-3.9c1.3-2.4,2.3-4.9,3-7.5c1.7-6.2,2.6-12.6,2.6-19.1c0-6.2-1.4-10.3-3.6-12.9C114.1,167.8,111.4,166.6,108.5,166.6
		L108.5,166.6z M108.5,171.4c1.5-0.1,2.9,0.6,3.8,1.8c1.2,1.4,2.4,4.3,2.4,9.8c-0.1,6-0.9,12-2.4,17.8c-0.6,2.2-1.4,4.3-2.5,6.4
		c-0.3,0.6-0.8,1.1-1.3,1.5c-0.5-0.4-1-0.9-1.3-1.5c-1.1-2-1.9-4.1-2.5-6.4c-1.6-5.8-2.4-11.8-2.4-17.8c0-5.5,1.2-8.3,2.4-9.8
		C105.6,172,107,171.4,108.5,171.4z"/>
	<path style="clip-path:url(#SVGID_00000033333431649322314520000004214724547052569766_);fill:#4481C3;" d="M29.9,125.2
		c-3.4,11.1-11.9,25.8-16.4,24.4s-3.5-18.3-0.1-29.4s8.9-11.9,12.3-10.8S33.2,114.1,29.9,125.2z"/>
	<path style="clip-path:url(#SVGID_00000033333431649322314520000004214724547052569766_);fill:#1A1A1A;" d="M26.4,108.3
		c-2.8-0.8-5.8-0.4-8.2,1.2c-2.9,1.9-5.4,5.4-7.1,11.3c-1.8,6.2-2.8,12.6-3,19c-0.1,2.7,0.1,5.4,0.7,8.1c0.6,2.3,1.6,4.6,4.1,5.4
		s4.6-0.6,6.4-2.2c2-1.9,3.7-4,5.1-6.4c3.4-5.5,6.1-11.3,8-17.5c1.8-5.9,1.7-10.2,0.3-13.4C31.4,111.2,29.2,109.2,26.4,108.3
		L26.4,108.3z M25,113c1.4,0.4,2.6,1.4,3.1,2.8c0.8,1.7,1.1,4.8-0.5,10.1c-1.8,5.7-4.3,11.2-7.5,16.3c-1.2,2-2.6,3.8-4.2,5.4
		c-0.5,0.5-1.1,0.9-1.7,1.1c-0.4-0.6-0.7-1.2-0.8-1.9c-0.5-2.2-0.6-4.5-0.6-6.8c0.2-6,1.1-12,2.8-17.7c1.6-5.2,3.6-7.6,5.2-8.7
		C22.1,112.7,23.6,112.5,25,113z"/>
	<path style="clip-path:url(#SVGID_00000033333431649322314520000004214724547052569766_);fill:#4481C3;" d="M157.6,119.7
		c4.4,10.7,7.2,27.5,2.8,29.3s-14.3-12-18.8-22.7s-0.6-14.8,2.7-16.2S153.1,109,157.6,119.7z"/>
	<path style="clip-path:url(#SVGID_00000033333431649322314520000004214724547052569766_);fill:#1A1A1A;" d="M143.3,107.9
		c-2.7,1.1-4.7,3.3-5.6,6.1c-1,3.3-0.7,7.6,1.6,13.3c2.5,5.9,5.8,11.5,9.7,16.6c1.6,2.2,3.5,4.1,5.7,5.8c1.9,1.4,4.1,2.5,6.5,1.6
		s3.2-3.4,3.5-5.7c0.3-2.7,0.3-5.4-0.1-8.1c-0.8-6.4-2.5-12.7-4.9-18.6c-2.4-5.7-5.2-9-8.2-10.6C149,106.9,146,106.8,143.3,107.9
		L143.3,107.9z M145.2,112.4c1.3-0.6,2.9-0.5,4.2,0.2c1.7,0.9,3.9,3.1,6,8.1c2.2,5.6,3.8,11.4,4.5,17.3c0.3,2.3,0.4,4.6,0.1,6.8
		c-0.1,0.7-0.3,1.3-0.6,1.9c-0.7-0.2-1.3-0.5-1.8-0.9c-1.8-1.4-3.4-3.1-4.7-4.9c-3.7-4.8-6.7-10-9.1-15.5c-2.1-5-2.1-8.2-1.5-10
		C142.7,114,143.8,112.8,145.2,112.4L145.2,112.4z"/>
	<path style="clip-path:url(#SVGID_00000033333431649322314520000004214724547052569766_);fill:#1A1A1A;" d="M86.6,57.6
		c-37.5,0-67.8,30.3-67.8,67.8s30.3,67.8,67.8,67.8c37.5,0,67.8-30.3,67.8-67.8c0,0,0,0,0,0C154.4,88,124.1,57.7,86.6,57.6z
		 M86.6,65.4c33.2,0,60.1,26.9,60.1,60.1s-26.9,60.1-60.1,60.1c-33.2,0-60.1-26.9-60.1-60.1c0-33.1,26.8-60,59.9-60.1
		C86.5,65.4,86.6,65.4,86.6,65.4z"/>
	<path style="clip-path:url(#SVGID_00000033333431649322314520000004214724547052569766_);fill:#4481C3;" d="M42,81.7
		c11.5-6.4,17.8,1.9,46.4,1.6c26.2-0.3,31.7-7.3,42.3-1.6c17.9,9.7,18.4,38.6,18.4,42.3c0,2.6-0.3,33.8-18.4,42.3
		c-12.1,5.7-18.4-5.2-42.8-5.5c-25.9-0.4-33,11.7-45.9,5.5c-18-8.7-18.3-39.6-18.3-42.3C23.7,120.3,24.1,91.6,42,81.7z"/>
	<path style="clip-path:url(#SVGID_00000033333431649322314520000004214724547052569766_);fill:#CCCCCC;" d="M86,62.7
		c-27.4,0-51.8,17.3-60.9,43.2h121.7C137.7,80,113.4,62.7,86,62.7z"/>
	<path style="clip-path:url(#SVGID_00000033333431649322314520000004214724547052569766_);fill:#FFFFFF;" d="M89.3,64.2
		c-26,0-49,16.9-56.9,41.7h113.8C138.4,81,115.4,64.2,89.3,64.2z"/>
	<path style="clip-path:url(#SVGID_00000033333431649322314520000004214724547052569766_);fill:#CB1A24;" d="M27.5,147.6
		c2.7,6.5,6.4,12.5,10.9,17.8c7.7,9.3,18,16.2,29.5,19.7c5.8,1.7,11.9,2.6,17.9,2.5c11.3-0.2,22.3-3.4,32-9.2
		c12.6-7.2,22.8-18,29.5-30.9L27.5,147.6z"/>
	<path style="clip-path:url(#SVGID_00000033333431649322314520000004214724547052569766_);fill:#E83E3E;" d="M31.3,147.7
		c14.2,31.2,51,44.9,82.1,30.7c13.6-6.2,24.5-17.1,30.7-30.7H31.3z"/>
	<path style="clip-path:url(#SVGID_00000033333431649322314520000004214724547052569766_);fill:#1A1A1A;" d="M86.6,60.5
		c-35.8,0-64.9,29.1-64.9,64.9s29.1,64.9,64.9,64.9s64.9-29.1,64.9-64.9c0,0,0,0,0,0C151.5,89.6,122.5,60.5,86.6,60.5z M86.6,62.5
		c34.8,0,63,28.2,63,63s-28.2,63-63,63s-63-28.2-63-63C23.6,90.7,51.8,62.5,86.6,62.5z"/>
	<path style="clip-path:url(#SVGID_00000033333431649322314520000004214724547052569766_);fill:#767676;" d="M87.4,129.7
		c0,1.4-1.1,2.5-2.5,2.5c-1.4,0-2.5-1.1-2.5-2.5c0-1.4,1.1-2.5,2.5-2.5c0,0,0,0,0,0C86.4,127.3,87.5,128.4,87.4,129.7L87.4,129.7z"
		/>
	<path style="clip-path:url(#SVGID_00000033333431649322314520000004214724547052569766_);fill:#767676;" d="M99.6,127.4
		c1.3,0.4,2,1.8,1.6,3.1s-1.8,2-3.1,1.6c-1.3-0.4-2-1.8-1.6-3.1C96.9,127.7,98.3,127,99.6,127.4C99.6,127.4,99.6,127.4,99.6,127.4
		L99.6,127.4z"/>
	<path style="clip-path:url(#SVGID_00000033333431649322314520000004214724547052569766_);fill:#1A1A1A;" d="M57.5,93.6
		c-1.4,1.8-2.2,4-2.2,6.4v5.1c0.2,5.7,4.9,10.1,10.6,9.9c5.4-0.2,9.8-4.5,9.9-9.9v-3.9L57.5,93.6z"/>
	<path style="clip-path:url(#SVGID_00000033333431649322314520000004214724547052569766_);fill:#FFFFFF;" d="M71.5,102.8
		c0,1.8-1.4,3.3-3.3,3.4c-1.8,0-3.3-1.4-3.4-3.3c0-1.8,1.4-3.3,3.3-3.4c0.9,0,1.7,0.3,2.4,0.9C71.1,101.1,71.5,102,71.5,102.8z"/>
	<path style="clip-path:url(#SVGID_00000033333431649322314520000004214724547052569766_);fill:#1A1A1A;" d="M115.8,93.6l-18.3,7.6
		v3.9c0,5.7,4.6,10.2,10.2,10.2c5.7,0,10.2-4.6,10.2-10.2V100C118,97.7,117.2,95.4,115.8,93.6L115.8,93.6z"/>
	<path style="clip-path:url(#SVGID_00000033333431649322314520000004214724547052569766_);fill:#FFFFFF;" d="M113.7,102.8
		c0,1.8-1.4,3.3-3.3,3.4c-1.8,0-3.3-1.4-3.4-3.3c0-1.8,1.4-3.3,3.3-3.4c0.9,0,1.7,0.3,2.4,0.9C113.4,101.1,113.7,102,113.7,102.8z"
		/>
	<path style="clip-path:url(#SVGID_00000033333431649322314520000004214724547052569766_);fill:#AF1739;" d="M63.6,156.2
		c-2.6,0-4.8-2.1-4.8-4.8c0,0,0,0,0,0V146c-0.3-15.4,11.9-28.1,27.3-28.3c15.4-0.3,28.1,11.9,28.3,27.3c0,0.4,0,0.7,0,1.1v5.4
		c0,2.6-2.1,4.8-4.8,4.8c0,0,0,0,0,0L63.6,156.2z"/>
	<path style="clip-path:url(#SVGID_00000033333431649322314520000004214724547052569766_);fill:#EB5775;" d="M86.6,141.6
		c-10.1,0-19.5,5.5-24.4,14.4c0.4,0.1,0.9,0.2,1.3,0.2h46c0.5,0,0.9-0.1,1.4-0.2C106.1,147.2,96.8,141.7,86.6,141.6L86.6,141.6z"/>
	<path style="clip-path:url(#SVGID_00000033333431649322314520000004214724547052569766_);fill:#FFFFFF;" d="M86.6,118.2
		c-9.1,0-17.5,4.4-22.8,11.8c14.7,5.6,30.8,5.6,45.5,0C104.2,122.6,95.7,118.2,86.6,118.2L86.6,118.2z"/>
	<path style="clip-path:url(#SVGID_00000033333431649322314520000004214724547052569766_);fill:#BADBE9;" d="M71,123.1v4.8
		c0,4,2,4.8,2,4.8c-3.1-0.6-6.1-1.5-9.1-2.6C65.8,127.3,68.2,124.9,71,123.1L71,123.1z"/>
	<path style="clip-path:url(#SVGID_00000033333431649322314520000004214724547052569766_);fill:#BADBE9;" d="M93.4,119.1v6.6
		c0,3.7-0.9,7.4-4,8.4c6.8-0.3,13.6-1.6,20-4C105.6,124.6,99.9,120.7,93.4,119.1L93.4,119.1z"/>
	<path style="clip-path:url(#SVGID_00000033333431649322314520000004214724547052569766_);fill:#8BB0CC;" d="M102.3,123.1v4.8
		c0,4-2,4.8-2,4.8c3.1-0.6,6.1-1.5,9.1-2.6C107.5,127.3,105.1,124.9,102.3,123.1L102.3,123.1z"/>
	<path style="clip-path:url(#SVGID_00000033333431649322314520000004214724547052569766_);fill:#1A1A1A;" d="M86.6,117.2
		c-15.9,0-28.8,12.9-28.8,28.8v5.4c0,3.2,2.6,5.8,5.8,5.8h46c3.2,0,5.8-2.6,5.8-5.8V146C115.4,130.1,102.5,117.2,86.6,117.2
		L86.6,117.2z M86.6,119.2c14.8,0,26.8,12,26.8,26.8v0v5.4c0,2.1-1.7,3.8-3.8,3.8c0,0,0,0-0.1,0h-46c-2.1,0-3.8-1.7-3.8-3.7
		c0,0,0,0,0-0.1V146C59.8,131.2,71.8,119.2,86.6,119.2C86.6,119.2,86.7,119.2,86.6,119.2L86.6,119.2z"/>
	<path style="clip-path:url(#SVGID_00000033333431649322314520000004214724547052569766_);fill:#1A1A1A;" d="M63.6,129.4l-0.4,0.9
		c15.1,5.8,31.7,5.8,46.8,0l-0.4-0.9C94.8,135.1,78.4,135.1,63.6,129.4z"/>
	<path style="clip-path:url(#SVGID_00000033333431649322314520000004214724547052569766_);fill:#F293A2;" d="M83.6,149.1
		c0,1.8-2.1,3.3-4.6,3.3s-4.6-1.5-4.6-3.3s2.1-3.3,4.6-3.3S83.6,147.4,83.6,149.1z"/>
	<path style="clip-path:url(#SVGID_00000033333431649322314520000004214724547052569766_);fill:#FFD740;" d="M94.4,72.3
		c-2.1-2.8-0.7-7.4,3.1-10.4s8.7-3.1,10.8-0.3c1,1.5,1.3,3.4,0.7,5.1c-0.7,2.1-2,3.9-3.8,5.2c-1.7,1.4-3.9,2.2-6.1,2.3
		C97.3,74.5,95.6,73.7,94.4,72.3L94.4,72.3z"/>
	<path style="clip-path:url(#SVGID_00000033333431649322314520000004214724547052569766_);fill:#FFD740;" d="M106.4,61.3h-0.3H106
		H106h-0.1h-0.1h-0.1h-0.1h-0.1h-0.1l0,0h-0.1l0,0v0l0,0v0.1l0,0v0.1v0.1v0.1v0.1v0.1v0.1l0,0l0,0c0,0,0,0,0,0.1c0,0,0,0,0,0.1
		c0,0,0,0,0,0.1c0,0,0,0,0,0.1v0.2c0,0,0,0,0,0.1c0,0,0,0,0,0.1c0,0,0,0,0,0.1c0,0,0,0,0,0.1c0,0,0,0,0,0.1c0,0,0,0,0,0.1v0.1v0.1
		v0.1V63v0v0.1l0,0l0,0v0h0.1l0,0h0.1h0.1h0.1h0.1h0.1h0.1h0.1h0.1h0.1h0.2c0,0,0,0,0.1,0h0.1h0.1h0.1h0.1h0.1h0.1h0.1h0.1h0.1h0.1
		h0.1h0.1c0,0,0,0,0.1,0l0,0V63c0,0,0,0,0.1,0V63c0,0,0,0,0-0.1v-0.1v-0.1v-0.1v-0.1v-0.1l0,0l0,0c0,0,0,0,0-0.1c0,0,0,0,0-0.1
		c0,0,0,0,0-0.1c0,0,0,0,0-0.1v-0.2c0,0,0,0,0-0.1c0,0,0,0,0-0.1c0,0,0,0,0-0.1c0,0,0,0,0-0.1c0,0,0,0,0-0.1c0,0,0,0,0-0.1v-0.1
		v-0.1v-0.1v-0.1v-0.1c0,0,0,0-0.1,0c0,0,0,0,0-0.1v0h-0.1l0,0v0h-0.1l0,0h-0.1h-0.1h-0.1H107H107h-0.4L106.4,61.3z"/>
	<path style="clip-path:url(#SVGID_00000033333431649322314520000004214724547052569766_);fill:#FFD740;" d="M106.4,61.3h-0.3H106
		H106h-0.1h-0.1h-0.1h-0.1h-0.1h-0.1l0,0h-0.1l0,0v0l0,0v0v0.1v0.1v0.1v0.1v0.1v0.1v0.1l0,0l0,0V62c0,0,0,0,0,0.1c0,0,0,0,0,0.1
		c0,0,0,0,0,0.1v0.2c0,0,0,0,0,0.1c0,0,0,0,0,0.1c0,0,0,0,0,0.1c0,0,0,0,0,0.1c0,0,0,0,0,0.1c0,0,0,0,0,0.1v0.1v0.1v0.1V63v0.1v0.1
		l0,0l0,0v0h0.1l0,0h0.1h0.1h0.1h0.1h0.1h0.1h0.1h0.7h0.1h0.1h0.1h0.1h0.1h0.1h0.1h0.1h0.1h0.1c0,0,0,0,0.1,0l0,0v-0.1
		c0,0,0,0,0.1,0V63c0,0,0,0,0-0.1v-0.1v-0.1v-0.1v-0.1v-0.1l0,0l0,0c0,0,0,0,0-0.1c0,0,0,0,0-0.1c0,0,0,0,0-0.1c0,0,0,0,0-0.1v-0.2
		c0,0,0,0,0-0.1c0,0,0,0,0-0.1c0,0,0,0,0-0.1c0,0,0,0,0-0.1c0,0,0,0,0-0.1c0,0,0,0,0-0.1v-0.1v-0.1v-0.1v-0.1v-0.1c0,0,0,0-0.1,0
		c0,0,0,0,0-0.1v0h-0.1l0,0v0h-0.1l0,0h-0.1h-0.1h-0.1H107H107h-0.4L106.4,61.3z"/>
	<path style="clip-path:url(#SVGID_00000033333431649322314520000004214724547052569766_);fill:#FFD740;" d="M106.4,61.3h-0.3H106
		H106h-0.1h-0.1h-0.1h-0.1h-0.1h-0.1l0,0h-0.1l0,0v0l0,0v0v0.1v0.1v0.1v0.1v0.1v0.1v0.1l0,0l0,0V62c0,0,0,0,0,0.1c0,0,0,0,0,0.1
		c0,0,0,0,0,0.1v0.2c0,0,0,0,0,0.1c0,0,0,0,0,0.1c0,0,0,0,0,0.1c0,0,0,0,0,0.1c0,0,0,0,0,0.1c0,0,0,0,0,0.1v0.1v0.1v0.1V63v0.1v0.1
		l0,0l0,0v0h0.1l0,0h0.1h0.1h0.1h0.1h0.1h0.1h0.1h0.7h0.1h0.1h0.1h0.1h0.1h0.1h0.1h0.1h0.1h0.1c0,0,0,0,0.1,0l0,0v-0.1
		c0,0,0,0,0.1,0V63c0,0,0,0,0-0.1v-0.1v-0.1v-0.1v-0.1v-0.1l0,0l0,0c0,0,0,0,0-0.1c0,0,0,0,0-0.1c0,0,0,0,0-0.1c0,0,0,0,0-0.1v-0.2
		c0,0,0,0,0-0.1c0,0,0,0,0-0.1c0,0,0,0,0-0.1c0,0,0,0,0-0.1c0,0,0,0,0-0.1c0,0,0,0,0-0.1v-0.1v-0.1v-0.1v-0.1v-0.1c0,0,0,0-0.1,0
		c0,0,0,0,0-0.1v0h-0.1l0,0v0h-0.1l0,0h-0.1h-0.1h-0.1H107H107h-0.4L106.4,61.3z"/>
	<path style="clip-path:url(#SVGID_00000033333431649322314520000004214724547052569766_);fill:#FFD740;" d="M106.4,61.3h-0.3H106
		H106h-0.1h-0.1h-0.1h-0.1h-0.1h-0.1l0,0h-0.1l0,0v0l0,0v0v0.1v0.1v0.1v0.1v0.1v0.1v0.1l0,0l0,0V62c0,0,0,0,0,0.1c0,0,0,0,0,0.1
		c0,0,0,0,0,0.1v0.2c0,0,0,0,0,0.1c0,0,0,0,0,0.1c0,0,0,0,0,0.1c0,0,0,0,0,0.1c0,0,0,0,0,0.1c0,0,0,0,0,0.1v0.1v0.1v0.1V63v0.1v0.1
		l0,0l0,0v0h0.1l0,0h0.1h0.1h0.1h0.1h0.1h0.1h0.1h0.7h0.1h0.1h0.1h0.1h0.1h0.1h0.1h0.1h0.1h0.1c0,0,0,0,0.1,0l0,0v-0.1
		c0,0,0,0,0.1,0V63c0,0,0,0,0-0.1v-0.1v-0.1v-0.1v-0.1v-0.1l0,0l0,0c0,0,0,0,0-0.1c0,0,0,0,0-0.1c0,0,0,0,0-0.1c0,0,0,0,0-0.1v-0.2
		c0,0,0,0,0-0.1c0,0,0,0,0-0.1c0,0,0,0,0-0.1c0,0,0,0,0-0.1c0,0,0,0,0-0.1c0,0,0,0,0-0.1v-0.1v-0.1v-0.1v-0.1v-0.1c0,0,0,0-0.1,0
		c0,0,0,0,0-0.1v0h-0.1l0,0v0h-0.1l0,0h-0.1h-0.1h-0.1H107H107h-0.4L106.4,61.3z"/>
	<path style="clip-path:url(#SVGID_00000033333431649322314520000004214724547052569766_);fill:#FFD740;" d="M106.4,61.3h-0.3H106
		H106h-0.1h-0.1h-0.1h-0.1h-0.1h-0.1l0,0h-0.1l0,0v0l0,0v0v0.1v0.1v0.1v0.1v0.1v0.1v0.1l0,0l0,0V62c0,0,0,0,0,0.1c0,0,0,0,0,0.1
		c0,0,0,0,0,0.1v0.2c0,0,0,0,0,0.1c0,0,0,0,0,0.1c0,0,0,0,0,0.1c0,0,0,0,0,0.1c0,0,0,0,0,0.1c0,0,0,0,0,0.1v0.1v0.1v0.1V63v0.1v0.1
		l0,0l0,0v0h0.1l0,0h0.1h0.1h0.1h0.1h0.1h0.1h0.1h0.7h0.1h0.1h0.1h0.1h0.1h0.1h0.1h0.1h0.1h0.1c0,0,0,0,0.1,0l0,0v-0.1
		c0,0,0,0,0.1,0V63c0,0,0,0,0-0.1v-0.1v-0.1v-0.1v-0.1v-0.1l0,0l0,0c0,0,0,0,0-0.1c0,0,0,0,0-0.1c0,0,0,0,0-0.1c0,0,0,0,0-0.1v-0.2
		c0,0,0,0,0-0.1c0,0,0,0,0-0.1c0,0,0,0,0-0.1c0,0,0,0,0-0.1c0,0,0,0,0-0.1c0,0,0,0,0-0.1v-0.1v-0.1v-0.1v-0.1v-0.1c0,0,0,0-0.1,0
		c0,0,0,0,0-0.1v0h-0.1l0,0v0h-0.1l0,0h-0.1h-0.1h-0.1H107H107h-0.4L106.4,61.3z"/>
	<path style="clip-path:url(#SVGID_00000033333431649322314520000004214724547052569766_);fill:#FFD740;" d="M106.4,61.3h-0.3H106
		H106h-0.1h-0.1h-0.1h-0.1h-0.1h-0.1l0,0h-0.1l0,0v0l0,0v0v0.1v0.1v0.1v0.1v0.1v0.1v0.1l0,0l0,0V62c0,0,0,0,0,0.1c0,0,0,0,0,0.1
		c0,0,0,0,0,0.1v0.2c0,0,0,0,0,0.1c0,0,0,0,0,0.1c0,0,0,0,0,0.1c0,0,0,0,0,0.1c0,0,0,0,0,0.1c0,0,0,0,0,0.1v0.1v0.1v0.1V63v0.1v0.1
		l0,0l0,0v0h0.1l0,0h0.1h0.1h0.1h0.1h0.1h0.1h0.1h0.7h0.1h0.1h0.1h0.1h0.1h0.1h0.1h0.1h0.1h0.1c0,0,0,0,0.1,0l0,0v-0.1
		c0,0,0,0,0.1,0V63c0,0,0,0,0-0.1v-0.1v-0.1v-0.1v-0.1v-0.1l0,0l0,0c0,0,0,0,0-0.1c0,0,0,0,0-0.1c0,0,0,0,0-0.1c0,0,0,0,0-0.1v-0.2
		c0,0,0,0,0-0.1c0,0,0,0,0-0.1c0,0,0,0,0-0.1c0,0,0,0,0-0.1c0,0,0,0,0-0.1c0,0,0,0,0-0.1v-0.1v-0.1v-0.1v-0.1v-0.1c0,0,0,0-0.1,0
		c0,0,0,0,0-0.1v0h-0.1l0,0v0h-0.1l0,0h-0.1h-0.1h-0.1H107H107h-0.4L106.4,61.3z"/>
	<path style="clip-path:url(#SVGID_00000033333431649322314520000004214724547052569766_);fill:#FFD740;" d="M106.4,61.3h-0.3H106
		H106h-0.1h-0.1h-0.1h-0.1h-0.1h-0.1l0,0h-0.1l0,0v0l0,0v0v0.1v0.1v0.1v0.1v0.1v0.1v0.1l0,0l0,0V62c0,0,0,0,0,0.1c0,0,0,0,0,0.1
		c0,0,0,0,0,0.1v0.2c0,0,0,0,0,0.1c0,0,0,0,0,0.1c0,0,0,0,0,0.1c0,0,0,0,0,0.1c0,0,0,0,0,0.1c0,0,0,0,0,0.1v0.1v0.1v0.1V63v0.1v0.1
		l0,0l0,0v0h0.1l0,0h0.1h0.1h0.1h0.1h0.1h0.1h0.1h0.7h0.1h0.1h0.1h0.1h0.1h0.1h0.1h0.1h0.1h0.1c0,0,0,0,0.1,0l0,0v-0.1
		c0,0,0,0,0.1,0V63c0,0,0,0,0-0.1v-0.1v-0.1v-0.1v-0.1v-0.1l0,0l0,0c0,0,0,0,0-0.1c0,0,0,0,0-0.1c0,0,0,0,0-0.1c0,0,0,0,0-0.1v-0.2
		c0,0,0,0,0-0.1c0,0,0,0,0-0.1c0,0,0,0,0-0.1c0,0,0,0,0-0.1c0,0,0,0,0-0.1c0,0,0,0,0-0.1v-0.1v-0.1v-0.1v-0.1v-0.1c0,0,0,0-0.1,0
		c0,0,0,0,0-0.1v0h-0.1l0,0v0h-0.1l0,0h-0.1h-0.1h-0.1H107H107h-0.4L106.4,61.3z"/>
	<path style="clip-path:url(#SVGID_00000033333431649322314520000004214724547052569766_);fill:#FFD740;" d="M106.4,61.3h-0.3H106
		H106h-0.1h-0.1h-0.1h-0.1h-0.1h-0.1l0,0h-0.1l0,0v0l0,0v0v0.1v0.1v0.1v0.1v0.1v0.1v0.1l0,0l0,0V62c0,0,0,0,0,0.1c0,0,0,0,0,0.1
		c0,0,0,0,0,0.1v0.2c0,0,0,0,0,0.1c0,0,0,0,0,0.1c0,0,0,0,0,0.1c0,0,0,0,0,0.1c0,0,0,0,0,0.1c0,0,0,0,0,0.1v0.1v0.1v0.1V63v0.1v0.1
		l0,0l0,0v0h0.1l0,0h0.1h0.1h0.1h0.1h0.1h0.1h0.1h0.7h0.1h0.1h0.1h0.1h0.1h0.1h0.1h0.1h0.1h0.1c0,0,0,0,0.1,0l0,0v-0.1
		c0,0,0,0,0.1,0V63c0,0,0,0,0-0.1v-0.1v-0.1v-0.1v-0.1v-0.1l0,0l0,0c0,0,0,0,0-0.1c0,0,0,0,0-0.1c0,0,0,0,0-0.1c0,0,0,0,0-0.1v-0.2
		c0,0,0,0,0-0.1c0,0,0,0,0-0.1c0,0,0,0,0-0.1c0,0,0,0,0-0.1c0,0,0,0,0-0.1c0,0,0,0,0-0.1v-0.1v-0.1v-0.1v-0.1v-0.1c0,0,0,0-0.1,0
		c0,0,0,0,0-0.1v0h-0.1l0,0v0h-0.1l0,0h-0.1h-0.1h-0.1H107H107h-0.4L106.4,61.3z"/>
	<path style="clip-path:url(#SVGID_00000033333431649322314520000004214724547052569766_);fill:#FFD740;" d="M106.4,61.3h-0.3H106
		H106h-0.1h-0.1h-0.1h-0.1h-0.1h-0.1l0,0h-0.1l0,0v0l0,0v0v0.1v0.1v0.1v0.1v0.1v0.1v0.1l0,0l0,0V62c0,0,0,0,0,0.1c0,0,0,0,0,0.1
		c0,0,0,0,0,0.1v0.2c0,0,0,0,0,0.1c0,0,0,0,0,0.1c0,0,0,0,0,0.1c0,0,0,0,0,0.1c0,0,0,0,0,0.1c0,0,0,0,0,0.1v0.1v0.1v0.1V63v0.1v0.1
		l0,0l0,0v0h0.1l0,0h0.1h0.1h0.1h0.1h0.1h0.1h0.1h0.7h0.1h0.1h0.1h0.1h0.1h0.1h0.1h0.1h0.1h0.1c0,0,0,0,0.1,0l0,0v-0.1
		c0,0,0,0,0.1,0V63c0,0,0,0,0-0.1v-0.1v-0.1v-0.1v-0.1v-0.1l0,0l0,0c0,0,0,0,0-0.1c0,0,0,0,0-0.1c0,0,0,0,0-0.1c0,0,0,0,0-0.1v-0.2
		c0,0,0,0,0-0.1c0,0,0,0,0-0.1c0,0,0,0,0-0.1c0,0,0,0,0-0.1c0,0,0,0,0-0.1c0,0,0,0,0-0.1v-0.1v-0.1v-0.1v-0.1v-0.1c0,0,0,0-0.1,0
		c0,0,0,0,0-0.1v0h-0.1l0,0v0h-0.1l0,0h-0.1h-0.1h-0.1H107H107h-0.4L106.4,61.3z"/>
	<path style="clip-path:url(#SVGID_00000033333431649322314520000004214724547052569766_);fill:#FFD740;" d="M106.4,61.3h-0.3H106
		H106h-0.1h-0.1h-0.1h-0.1h-0.1h-0.1l0,0h-0.1l0,0v0l0,0v0v0.1v0.1v0.1v0.1v0.1v0.1v0.1l0,0l0,0V62c0,0,0,0,0,0.1c0,0,0,0,0,0.1
		c0,0,0,0,0,0.1v0.2c0,0,0,0,0,0.1c0,0,0,0,0,0.1c0,0,0,0,0,0.1c0,0,0,0,0,0.1c0,0,0,0,0,0.1c0,0,0,0,0,0.1v0.1v0.1v0.1V63v0.1v0.1
		l0,0l0,0v0h0.1l0,0h0.1h0.1h0.1h0.1h0.1h0.1h0.1h0.7h0.1h0.1h0.1h0.1h0.1h0.1h0.1h0.1h0.1h0.1c0,0,0,0,0.1,0l0,0v-0.1
		c0,0,0,0,0.1,0V63c0,0,0,0,0-0.1v-0.1v-0.1v-0.1v-0.1v-0.1l0,0l0,0c0,0,0,0,0-0.1c0,0,0,0,0-0.1c0,0,0,0,0-0.1c0,0,0,0,0-0.1v-0.2
		c0,0,0,0,0-0.1c0,0,0,0,0-0.1c0,0,0,0,0-0.1c0,0,0,0,0-0.1c0,0,0,0,0-0.1c0,0,0,0,0-0.1v-0.1v-0.1v-0.1v-0.1v-0.1c0,0,0,0-0.1,0
		c0,0,0,0,0-0.1v0h-0.1l0,0v0h-0.1l0,0h-0.1h-0.1h-0.1H107H107h-0.4L106.4,61.3z"/>
	<path style="clip-path:url(#SVGID_00000033333431649322314520000004214724547052569766_);fill:#FFD740;" d="M106.4,61.3h-0.3H106
		H106h-0.1h-0.1h-0.1h-0.1h-0.1h-0.1l0,0h-0.1l0,0v0l0,0v0.1l0,0v0.1v0.1v0.1v0.1v0.1v0.1l0,0l0,0c0,0,0,0,0,0.1c0,0,0,0,0,0.1
		c0,0,0,0,0,0.1c0,0,0,0,0,0.1v0.2c0,0,0,0,0,0.1c0,0,0,0,0,0.1c0,0,0,0,0,0.1c0,0,0,0,0,0.1c0,0,0,0,0,0.1c0,0,0,0,0,0.1v0.1v0.1
		v0.1V63v0v0.1l0,0l0,0v0h0.1l0,0h0.1h0.1h0.1h0.1h0.1h0.1h0.1h0.1h0.1h0.2c0,0,0,0,0.1,0h0.1h0.1h0.1h0.1h0.1h0.1h0.1h0.1h0.1h0.1
		h0.1h0.1c0,0,0,0,0.1,0l0,0V63c0,0,0,0,0.1,0V63c0,0,0,0,0-0.1v-0.1v-0.1v-0.1v-0.1v-0.1l0,0l0,0c0,0,0,0,0-0.1c0,0,0,0,0-0.1
		c0,0,0,0,0-0.1c0,0,0,0,0-0.1v-0.2c0,0,0,0,0-0.1c0,0,0,0,0-0.1c0,0,0,0,0-0.1c0,0,0,0,0-0.1c0,0,0,0,0-0.1c0,0,0,0,0-0.1v-0.1
		v-0.1v-0.1v-0.1v-0.1c0,0,0,0-0.1,0c0,0,0,0,0-0.1v0h-0.1l0,0v0h-0.1l0,0h-0.1h-0.1h-0.1H107H107h-0.4L106.4,61.3z"/>
	<path style="clip-path:url(#SVGID_00000033333431649322314520000004214724547052569766_);fill:#FFD740;" d="M106.4,61.3h-0.3H106
		H106h-0.1h-0.1h-0.1h-0.1h-0.1h-0.1l0,0h-0.1l0,0v0l0,0v0v0.1v0.1v0.1v0.1v0.1v0.1v0.1l0,0l0,0V62c0,0,0,0,0,0.1c0,0,0,0,0,0.1
		c0,0,0,0,0,0.1v0.2c0,0,0,0,0,0.1c0,0,0,0,0,0.1c0,0,0,0,0,0.1c0,0,0,0,0,0.1c0,0,0,0,0,0.1c0,0,0,0,0,0.1v0.1v0.1v0.1V63v0.1v0.1
		l0,0l0,0v0h0.1l0,0h0.1h0.1h0.1h0.1h0.1h0.1h0.1h0.7h0.1h0.1h0.1h0.1h0.1h0.1h0.1h0.1h0.1h0.1c0,0,0,0,0.1,0l0,0v-0.1
		c0,0,0,0,0.1,0V63c0,0,0,0,0-0.1v-0.1v-0.1v-0.1v-0.1v-0.1l0,0l0,0c0,0,0,0,0-0.1c0,0,0,0,0-0.1c0,0,0,0,0-0.1c0,0,0,0,0-0.1v-0.2
		c0,0,0,0,0-0.1c0,0,0,0,0-0.1c0,0,0,0,0-0.1c0,0,0,0,0-0.1c0,0,0,0,0-0.1c0,0,0,0,0-0.1v-0.1v-0.1v-0.1v-0.1v-0.1c0,0,0,0-0.1,0
		c0,0,0,0,0-0.1v0h-0.1l0,0v0h-0.1l0,0h-0.1h-0.1h-0.1H107H107h-0.4L106.4,61.3z"/>
	<path style="clip-path:url(#SVGID_00000033333431649322314520000004214724547052569766_);fill:#FFD740;" d="M106.4,61.3h-0.3H106
		H106h-0.1h-0.1h-0.1h-0.1h-0.1h-0.1l0,0h-0.1l0,0v0l0,0v0v0.1v0.1v0.1v0.1v0.1v0.1v0.1l0,0l0,0V62c0,0,0,0,0,0.1c0,0,0,0,0,0.1
		c0,0,0,0,0,0.1v0.2c0,0,0,0,0,0.1c0,0,0,0,0,0.1c0,0,0,0,0,0.1c0,0,0,0,0,0.1c0,0,0,0,0,0.1c0,0,0,0,0,0.1v0.1v0.1v0.1V63v0.1v0.1
		l0,0l0,0v0h0.1l0,0h0.1h0.1h0.1h0.1h0.1h0.1h0.1h0.7h0.1h0.1h0.1h0.1h0.1h0.1h0.1h0.1h0.1h0.1c0,0,0,0,0.1,0l0,0v-0.1
		c0,0,0,0,0.1,0V63c0,0,0,0,0-0.1v-0.1v-0.1v-0.1v-0.1v-0.1l0,0l0,0c0,0,0,0,0-0.1c0,0,0,0,0-0.1c0,0,0,0,0-0.1c0,0,0,0,0-0.1v-0.2
		c0,0,0,0,0-0.1c0,0,0,0,0-0.1c0,0,0,0,0-0.1c0,0,0,0,0-0.1c0,0,0,0,0-0.1c0,0,0,0,0-0.1v-0.1v-0.1v-0.1v-0.1v-0.1c0,0,0,0-0.1,0
		c0,0,0,0,0-0.1v0h-0.1l0,0v0h-0.1l0,0h-0.1h-0.1h-0.1H107H107h-0.4L106.4,61.3z"/>
	<path style="clip-path:url(#SVGID_00000033333431649322314520000004214724547052569766_);fill:#FFD740;" d="M106.4,61.3h-0.3H106
		H106h-0.1h-0.1h-0.1h-0.1h-0.1h-0.1l0,0h-0.1l0,0v0l0,0v0v0.1v0.1v0.1v0.1v0.1v0.1v0.1l0,0l0,0V62c0,0,0,0,0,0.1c0,0,0,0,0,0.1
		c0,0,0,0,0,0.1v0.2c0,0,0,0,0,0.1c0,0,0,0,0,0.1c0,0,0,0,0,0.1c0,0,0,0,0,0.1c0,0,0,0,0,0.1c0,0,0,0,0,0.1v0.1v0.1v0.1V63v0.1v0.1
		l0,0l0,0v0h0.1l0,0h0.1h0.1h0.1h0.1h0.1h0.1h0.1h0.7h0.1h0.1h0.1h0.1h0.1h0.1h0.1h0.1h0.1h0.1c0,0,0,0,0.1,0l0,0v-0.1
		c0,0,0,0,0.1,0V63c0,0,0,0,0-0.1v-0.1v-0.1v-0.1v-0.1v-0.1l0,0l0,0c0,0,0,0,0-0.1c0,0,0,0,0-0.1c0,0,0,0,0-0.1c0,0,0,0,0-0.1v-0.2
		c0,0,0,0,0-0.1c0,0,0,0,0-0.1c0,0,0,0,0-0.1c0,0,0,0,0-0.1c0,0,0,0,0-0.1c0,0,0,0,0-0.1v-0.1v-0.1v-0.1v-0.1v-0.1c0,0,0,0-0.1,0
		c0,0,0,0,0-0.1v0h-0.1l0,0v0h-0.1l0,0h-0.1h-0.1h-0.1H107H107h-0.4L106.4,61.3z"/>
	<path style="clip-path:url(#SVGID_00000033333431649322314520000004214724547052569766_);fill:#FFD740;" d="M106.4,61.3h-0.3H106
		H106h-0.1h-0.1h-0.1h-0.1h-0.1h-0.1l0,0h-0.1l0,0v0l0,0v0v0.1v0.1v0.1v0.1v0.1v0.1v0.1l0,0l0,0V62c0,0,0,0,0,0.1c0,0,0,0,0,0.1
		c0,0,0,0,0,0.1v0.2c0,0,0,0,0,0.1c0,0,0,0,0,0.1c0,0,0,0,0,0.1c0,0,0,0,0,0.1c0,0,0,0,0,0.1c0,0,0,0,0,0.1v0.1v0.1v0.1V63v0.1v0.1
		l0,0l0,0v0h0.1l0,0h0.1h0.1h0.1h0.1h0.1h0.1h0.1h0.7h0.1h0.1h0.1h0.1h0.1h0.1h0.1h0.1h0.1h0.1c0,0,0,0,0.1,0l0,0v-0.1
		c0,0,0,0,0.1,0V63c0,0,0,0,0-0.1v-0.1v-0.1v-0.1v-0.1v-0.1l0,0l0,0c0,0,0,0,0-0.1c0,0,0,0,0-0.1c0,0,0,0,0-0.1c0,0,0,0,0-0.1v-0.2
		c0,0,0,0,0-0.1c0,0,0,0,0-0.1c0,0,0,0,0-0.1c0,0,0,0,0-0.1c0,0,0,0,0-0.1c0,0,0,0,0-0.1v-0.1v-0.1v-0.1v-0.1v-0.1c0,0,0,0-0.1,0
		c0,0,0,0,0-0.1v0h-0.1l0,0v0h-0.1l0,0h-0.1h-0.1h-0.1H107H107h-0.4L106.4,61.3z"/>
	<path style="clip-path:url(#SVGID_00000033333431649322314520000004214724547052569766_);fill:#FFD740;" d="M106.4,61.3h-0.3H106
		H106h-0.1h-0.1h-0.1h-0.1h-0.1h-0.1l0,0h-0.1l0,0v0l0,0v0v0.1v0.1v0.1v0.1v0.1v0.1v0.1l0,0l0,0V62c0,0,0,0,0,0.1c0,0,0,0,0,0.1
		c0,0,0,0,0,0.1v0.2c0,0,0,0,0,0.1c0,0,0,0,0,0.1c0,0,0,0,0,0.1c0,0,0,0,0,0.1c0,0,0,0,0,0.1c0,0,0,0,0,0.1v0.1v0.1v0.1V63v0.1v0.1
		l0,0l0,0v0h0.1l0,0h0.1h0.1h0.1h0.1h0.1h0.1h0.1h0.7h0.1h0.1h0.1h0.1h0.1h0.1h0.1h0.1h0.1h0.1c0,0,0,0,0.1,0l0,0v-0.1
		c0,0,0,0,0.1,0V63c0,0,0,0,0-0.1v-0.1v-0.1v-0.1v-0.1v-0.1l0,0l0,0c0,0,0,0,0-0.1c0,0,0,0,0-0.1c0,0,0,0,0-0.1c0,0,0,0,0-0.1v-0.2
		c0,0,0,0,0-0.1c0,0,0,0,0-0.1c0,0,0,0,0-0.1c0,0,0,0,0-0.1c0,0,0,0,0-0.1c0,0,0,0,0-0.1v-0.1v-0.1v-0.1v-0.1v-0.1c0,0,0,0-0.1,0
		c0,0,0,0,0-0.1v0h-0.1l0,0v0h-0.1l0,0h-0.1h-0.1h-0.1H107H107h-0.4L106.4,61.3z"/>
	<path style="clip-path:url(#SVGID_00000033333431649322314520000004214724547052569766_);fill:#FFD740;" d="M106.4,61.3h-0.3H106
		H106h-0.1h-0.1h-0.1h-0.1h-0.1h-0.1l0,0h-0.1l0,0v0l0,0v0v0.1v0.1v0.1v0.1v0.1v0.1v0.1l0,0l0,0V62c0,0,0,0,0,0.1c0,0,0,0,0,0.1
		c0,0,0,0,0,0.1v0.2c0,0,0,0,0,0.1c0,0,0,0,0,0.1c0,0,0,0,0,0.1c0,0,0,0,0,0.1c0,0,0,0,0,0.1c0,0,0,0,0,0.1v0.1v0.1v0.1V63v0.1v0.1
		l0,0l0,0v0h0.1l0,0h0.1h0.1h0.1h0.1h0.1h0.1h0.1h0.7h0.1h0.1h0.1h0.1h0.1h0.1h0.1h0.1h0.1h0.1c0,0,0,0,0.1,0l0,0v-0.1
		c0,0,0,0,0.1,0V63c0,0,0,0,0-0.1v-0.1v-0.1v-0.1v-0.1v-0.1l0,0l0,0c0,0,0,0,0-0.1c0,0,0,0,0-0.1c0,0,0,0,0-0.1c0,0,0,0,0-0.1v-0.2
		c0,0,0,0,0-0.1c0,0,0,0,0-0.1c0,0,0,0,0-0.1c0,0,0,0,0-0.1c0,0,0,0,0-0.1c0,0,0,0,0-0.1v-0.1v-0.1v-0.1v-0.1v-0.1c0,0,0,0-0.1,0
		c0,0,0,0,0-0.1v0h-0.1l0,0v0h-0.1l0,0h-0.1h-0.1h-0.1H107H107h-0.4L106.4,61.3z"/>
	<path style="clip-path:url(#SVGID_00000033333431649322314520000004214724547052569766_);fill:#FFD740;" d="M106.4,61.3h-0.3H106
		H106h-0.1h-0.1h-0.1h-0.1h-0.1h-0.1l0,0h-0.1l0,0v0l0,0v0v0.1v0.1v0.1v0.1v0.1v0.1v0.1l0,0l0,0V62c0,0,0,0,0,0.1c0,0,0,0,0,0.1
		c0,0,0,0,0,0.1v0.2c0,0,0,0,0,0.1c0,0,0,0,0,0.1c0,0,0,0,0,0.1c0,0,0,0,0,0.1c0,0,0,0,0,0.1c0,0,0,0,0,0.1v0.1v0.1v0.1V63v0.1v0.1
		l0,0l0,0v0h0.1l0,0h0.1h0.1h0.1h0.1h0.1h0.1h0.1h0.7h0.1h0.1h0.1h0.1h0.1h0.1h0.1h0.1h0.1h0.1c0,0,0,0,0.1,0l0,0v-0.1
		c0,0,0,0,0.1,0V63c0,0,0,0,0-0.1v-0.1v-0.1v-0.1v-0.1v-0.1l0,0l0,0c0,0,0,0,0-0.1c0,0,0,0,0-0.1c0,0,0,0,0-0.1c0,0,0,0,0-0.1v-0.2
		c0,0,0,0,0-0.1c0,0,0,0,0-0.1c0,0,0,0,0-0.1c0,0,0,0,0-0.1c0,0,0,0,0-0.1c0,0,0,0,0-0.1v-0.1v-0.1v-0.1v-0.1v-0.1c0,0,0,0-0.1,0
		c0,0,0,0,0-0.1v0h-0.1l0,0v0h-0.1l0,0h-0.1h-0.1h-0.1H107H107h-0.4L106.4,61.3z"/>
	<path style="clip-path:url(#SVGID_00000033333431649322314520000004214724547052569766_);fill:#FFD740;" d="M106.4,61.3h-0.3H106
		H106h-0.1h-0.1h-0.1h-0.1h-0.1h-0.1l0,0h-0.1l0,0v0l0,0v0v0.1v0.1v0.1v0.1v0.1v0.1v0.1l0,0l0,0V62c0,0,0,0,0,0.1c0,0,0,0,0,0.1
		c0,0,0,0,0,0.1v0.2c0,0,0,0,0,0.1c0,0,0,0,0,0.1c0,0,0,0,0,0.1c0,0,0,0,0,0.1c0,0,0,0,0,0.1c0,0,0,0,0,0.1v0.1v0.1v0.1V63v0.1v0.1
		l0,0l0,0v0h0.1l0,0h0.1h0.1h0.1h0.1h0.1h0.1h0.1h0.7h0.1h0.1h0.1h0.1h0.1h0.1h0.1h0.1h0.1h0.1c0,0,0,0,0.1,0l0,0v-0.1
		c0,0,0,0,0.1,0V63c0,0,0,0,0-0.1v-0.1v-0.1v-0.1v-0.1v-0.1l0,0l0,0c0,0,0,0,0-0.1c0,0,0,0,0-0.1c0,0,0,0,0-0.1c0,0,0,0,0-0.1v-0.2
		c0,0,0,0,0-0.1c0,0,0,0,0-0.1c0,0,0,0,0-0.1c0,0,0,0,0-0.1c0,0,0,0,0-0.1c0,0,0,0,0-0.1v-0.1v-0.1v-0.1v-0.1v-0.1c0,0,0,0-0.1,0
		c0,0,0,0,0-0.1v0h-0.1l0,0v0h-0.1l0,0h-0.1h-0.1h-0.1H107H107h-0.4L106.4,61.3z"/>
	<path style="clip-path:url(#SVGID_00000033333431649322314520000004214724547052569766_);fill:#FFD740;" d="M106.4,61.3h-0.3H106
		H106h-0.1h-0.1h-0.1h-0.1h-0.1h-0.1l0,0h-0.1l0,0v0l0,0v0v0.1v0.1v0.1v0.1v0.1v0.1v0.1l0,0l0,0V62c0,0,0,0,0,0.1c0,0,0,0,0,0.1
		c0,0,0,0,0,0.1v0.2c0,0,0,0,0,0.1c0,0,0,0,0,0.1c0,0,0,0,0,0.1c0,0,0,0,0,0.1c0,0,0,0,0,0.1c0,0,0,0,0,0.1v0.1v0.1v0.1V63v0.1v0.1
		l0,0l0,0v0h0.1l0,0h0.1h0.1h0.1h0.1h0.1h0.1h0.1h0.7h0.1h0.1h0.1h0.1h0.1h0.1h0.1h0.1h0.1h0.1c0,0,0,0,0.1,0l0,0v-0.1
		c0,0,0,0,0.1,0V63c0,0,0,0,0-0.1v-0.1v-0.1v-0.1v-0.1v-0.1l0,0l0,0c0,0,0,0,0-0.1c0,0,0,0,0-0.1c0,0,0,0,0-0.1c0,0,0,0,0-0.1v-0.2
		c0,0,0,0,0-0.1c0,0,0,0,0-0.1c0,0,0,0,0-0.1c0,0,0,0,0-0.1c0,0,0,0,0-0.1c0,0,0,0,0-0.1v-0.1v-0.1v-0.1v-0.1v-0.1c0,0,0,0-0.1,0
		c0,0,0,0,0-0.1v0h-0.1l0,0v0h-0.1l0,0h-0.1h-0.1h-0.1H107H107h-0.4L106.4,61.3z"/>
	<path style="clip-path:url(#SVGID_00000033333431649322314520000004214724547052569766_);fill:#FFD740;" d="M106.4,61.3h-0.3H106
		H106h-0.1h-0.1h-0.1h-0.1h-0.1h-0.1l0,0h-0.1l0,0v0l0,0v0.1l0,0v0.1v0.1v0.1v0.1v0.1v0.1l0,0l0,0c0,0,0,0,0,0.1c0,0,0,0,0,0.1
		c0,0,0,0,0,0.1c0,0,0,0,0,0.1v0.2c0,0,0,0,0,0.1c0,0,0,0,0,0.1c0,0,0,0,0,0.1c0,0,0,0,0,0.1c0,0,0,0,0,0.1c0,0,0,0,0,0.1v0.1v0.1
		v0.1V63v0v0.1l0,0l0,0v0h0.1l0,0h0.1h0.1h0.1h0.1h0.1h0.1h0.1h0.1h0.1h0.2c0,0,0,0,0.1,0h0.1h0.1h0.1h0.1h0.1h0.1h0.1h0.1h0.1h0.1
		h0.1h0.1c0,0,0,0,0.1,0l0,0V63c0,0,0,0,0.1,0V63c0,0,0,0,0-0.1v-0.1v-0.1v-0.1v-0.1v-0.1l0,0l0,0c0,0,0,0,0-0.1c0,0,0,0,0-0.1
		c0,0,0,0,0-0.1c0,0,0,0,0-0.1v-0.2c0,0,0,0,0-0.1c0,0,0,0,0-0.1c0,0,0,0,0-0.1c0,0,0,0,0-0.1c0,0,0,0,0-0.1c0,0,0,0,0-0.1v-0.1
		v-0.1v-0.1v-0.1v-0.1c0,0,0,0-0.1,0c0,0,0,0,0-0.1v0h-0.1l0,0v0h-0.1l0,0h-0.1h-0.1h-0.1H107H107h-0.4L106.4,61.3z"/>
	<path style="clip-path:url(#SVGID_00000033333431649322314520000004214724547052569766_);fill:#FFD740;" d="M106.4,61.3h-0.3H106
		H106h-0.1h-0.1h-0.1h-0.1h-0.1h-0.1l0,0h-0.1l0,0v0l0,0v0v0.1v0.1v0.1v0.1v0.1v0.1v0.1l0,0l0,0V62c0,0,0,0,0,0.1c0,0,0,0,0,0.1
		c0,0,0,0,0,0.1v0.2c0,0,0,0,0,0.1c0,0,0,0,0,0.1c0,0,0,0,0,0.1c0,0,0,0,0,0.1c0,0,0,0,0,0.1c0,0,0,0,0,0.1v0.1v0.1v0.1V63v0.1v0.1
		l0,0l0,0v0h0.1l0,0h0.1h0.1h0.1h0.1h0.1h0.1h0.1h0.7h0.1h0.1h0.1h0.1h0.1h0.1h0.1h0.1h0.1h0.1c0,0,0,0,0.1,0l0,0v-0.1
		c0,0,0,0,0.1,0V63c0,0,0,0,0-0.1v-0.1v-0.1v-0.1v-0.1v-0.1l0,0l0,0c0,0,0,0,0-0.1c0,0,0,0,0-0.1c0,0,0,0,0-0.1c0,0,0,0,0-0.1v-0.2
		c0,0,0,0,0-0.1c0,0,0,0,0-0.1c0,0,0,0,0-0.1c0,0,0,0,0-0.1c0,0,0,0,0-0.1c0,0,0,0,0-0.1v-0.1v-0.1v-0.1v-0.1v-0.1c0,0,0,0-0.1,0
		c0,0,0,0,0-0.1v0h-0.1l0,0v0h-0.1l0,0h-0.1h-0.1h-0.1H107H107h-0.4L106.4,61.3z"/>
	<path style="clip-path:url(#SVGID_00000033333431649322314520000004214724547052569766_);fill:#FFD740;" d="M106.4,61.3h-0.3H106
		H106h-0.1h-0.1h-0.1h-0.1h-0.1h-0.1l0,0h-0.1l0,0v0l0,0v0v0.1v0.1v0.1v0.1v0.1v0.1v0.1l0,0l0,0V62c0,0,0,0,0,0.1c0,0,0,0,0,0.1
		c0,0,0,0,0,0.1v0.2c0,0,0,0,0,0.1c0,0,0,0,0,0.1c0,0,0,0,0,0.1c0,0,0,0,0,0.1c0,0,0,0,0,0.1c0,0,0,0,0,0.1v0.1v0.1v0.1V63v0.1v0.1
		l0,0l0,0v0h0.1l0,0h0.1h0.1h0.1h0.1h0.1h0.1h0.1h0.7h0.1h0.1h0.1h0.1h0.1h0.1h0.1h0.1h0.1h0.1c0,0,0,0,0.1,0l0,0v-0.1
		c0,0,0,0,0.1,0V63c0,0,0,0,0-0.1v-0.1v-0.1v-0.1v-0.1v-0.1l0,0l0,0c0,0,0,0,0-0.1c0,0,0,0,0-0.1c0,0,0,0,0-0.1c0,0,0,0,0-0.1v-0.2
		c0,0,0,0,0-0.1c0,0,0,0,0-0.1c0,0,0,0,0-0.1c0,0,0,0,0-0.1c0,0,0,0,0-0.1c0,0,0,0,0-0.1v-0.1v-0.1v-0.1v-0.1v-0.1c0,0,0,0-0.1,0
		c0,0,0,0,0-0.1v0h-0.1l0,0v0h-0.1l0,0h-0.1h-0.1h-0.1H107H107h-0.4L106.4,61.3z"/>
	<path style="clip-path:url(#SVGID_00000033333431649322314520000004214724547052569766_);fill:#FFD740;" d="M106.4,61.3h-0.3H106
		H106h-0.1h-0.1h-0.1h-0.1h-0.1h-0.1l0,0h-0.1l0,0v0l0,0v0v0.1v0.1v0.1v0.1v0.1v0.1v0.1l0,0l0,0V62c0,0,0,0,0,0.1c0,0,0,0,0,0.1
		c0,0,0,0,0,0.1v0.2c0,0,0,0,0,0.1c0,0,0,0,0,0.1c0,0,0,0,0,0.1c0,0,0,0,0,0.1c0,0,0,0,0,0.1c0,0,0,0,0,0.1v0.1v0.1v0.1V63v0.1v0.1
		l0,0l0,0v0h0.1l0,0h0.1h0.1h0.1h0.1h0.1h0.1h0.1h0.7h0.1h0.1h0.1h0.1h0.1h0.1h0.1h0.1h0.1h0.1c0,0,0,0,0.1,0l0,0v-0.1
		c0,0,0,0,0.1,0V63c0,0,0,0,0-0.1v-0.1v-0.1v-0.1v-0.1v-0.1l0,0l0,0c0,0,0,0,0-0.1c0,0,0,0,0-0.1c0,0,0,0,0-0.1c0,0,0,0,0-0.1v-0.2
		c0,0,0,0,0-0.1c0,0,0,0,0-0.1c0,0,0,0,0-0.1c0,0,0,0,0-0.1c0,0,0,0,0-0.1c0,0,0,0,0-0.1v-0.1v-0.1v-0.1v-0.1v-0.1c0,0,0,0-0.1,0
		c0,0,0,0,0-0.1v0h-0.1l0,0v0h-0.1l0,0h-0.1h-0.1h-0.1H107H107h-0.4L106.4,61.3z"/>
	<path style="clip-path:url(#SVGID_00000033333431649322314520000004214724547052569766_);fill:#FFD740;" d="M106.4,61.3h-0.3H106
		H106h-0.1h-0.1h-0.1h-0.1h-0.1h-0.1l0,0h-0.1l0,0v0l0,0v0v0.1v0.1v0.1v0.1v0.1v0.1v0.1l0,0l0,0V62c0,0,0,0,0,0.1c0,0,0,0,0,0.1
		c0,0,0,0,0,0.1v0.2c0,0,0,0,0,0.1c0,0,0,0,0,0.1c0,0,0,0,0,0.1c0,0,0,0,0,0.1c0,0,0,0,0,0.1c0,0,0,0,0,0.1v0.1v0.1v0.1V63v0.1v0.1
		l0,0l0,0v0h0.1l0,0h0.1h0.1h0.1h0.1h0.1h0.1h0.1h0.7h0.1h0.1h0.1h0.1h0.1h0.1h0.1h0.1h0.1h0.1c0,0,0,0,0.1,0l0,0v-0.1
		c0,0,0,0,0.1,0V63c0,0,0,0,0-0.1v-0.1v-0.1v-0.1v-0.1v-0.1l0,0l0,0c0,0,0,0,0-0.1c0,0,0,0,0-0.1c0,0,0,0,0-0.1c0,0,0,0,0-0.1v-0.2
		c0,0,0,0,0-0.1c0,0,0,0,0-0.1c0,0,0,0,0-0.1c0,0,0,0,0-0.1c0,0,0,0,0-0.1c0,0,0,0,0-0.1v-0.1v-0.1v-0.1v-0.1v-0.1c0,0,0,0-0.1,0
		c0,0,0,0,0-0.1v0h-0.1l0,0v0h-0.1l0,0h-0.1h-0.1h-0.1H107H107h-0.4L106.4,61.3z"/>
	<path style="clip-path:url(#SVGID_00000033333431649322314520000004214724547052569766_);fill:#FFD740;" d="M106.4,61.3h-0.3H106
		H106h-0.1h-0.1h-0.1h-0.1h-0.1h-0.1l0,0h-0.1l0,0v0l0,0v0v0.1v0.1v0.1v0.1v0.1v0.1v0.1l0,0l0,0V62c0,0,0,0,0,0.1c0,0,0,0,0,0.1
		c0,0,0,0,0,0.1v0.2c0,0,0,0,0,0.1c0,0,0,0,0,0.1c0,0,0,0,0,0.1c0,0,0,0,0,0.1c0,0,0,0,0,0.1c0,0,0,0,0,0.1v0.1v0.1v0.1V63v0.1v0.1
		l0,0l0,0v0h0.1l0,0h0.1h0.1h0.1h0.1h0.1h0.1h0.1h0.7h0.1h0.1h0.1h0.1h0.1h0.1h0.1h0.1h0.1h0.1c0,0,0,0,0.1,0l0,0v-0.1
		c0,0,0,0,0.1,0V63c0,0,0,0,0-0.1v-0.1v-0.1v-0.1v-0.1v-0.1l0,0l0,0c0,0,0,0,0-0.1c0,0,0,0,0-0.1c0,0,0,0,0-0.1c0,0,0,0,0-0.1v-0.2
		c0,0,0,0,0-0.1c0,0,0,0,0-0.1c0,0,0,0,0-0.1c0,0,0,0,0-0.1c0,0,0,0,0-0.1c0,0,0,0,0-0.1v-0.1v-0.1v-0.1v-0.1v-0.1c0,0,0,0-0.1,0
		c0,0,0,0,0-0.1v0h-0.1l0,0v0h-0.1l0,0h-0.1h-0.1h-0.1H107H107h-0.4L106.4,61.3z"/>
	<path style="clip-path:url(#SVGID_00000033333431649322314520000004214724547052569766_);fill:#FFD740;" d="M106.4,61.3h-0.3H106
		H106h-0.1h-0.1h-0.1h-0.1h-0.1h-0.1l0,0h-0.1l0,0v0l0,0v0v0.1v0.1v0.1v0.1v0.1v0.1v0.1l0,0l0,0V62c0,0,0,0,0,0.1c0,0,0,0,0,0.1
		c0,0,0,0,0,0.1v0.2c0,0,0,0,0,0.1c0,0,0,0,0,0.1c0,0,0,0,0,0.1c0,0,0,0,0,0.1c0,0,0,0,0,0.1c0,0,0,0,0,0.1v0.1v0.1v0.1V63v0.1v0.1
		l0,0l0,0v0h0.1l0,0h0.1h0.1h0.1h0.1h0.1h0.1h0.1h0.7h0.1h0.1h0.1h0.1h0.1h0.1h0.1h0.1h0.1h0.1c0,0,0,0,0.1,0l0,0v-0.1
		c0,0,0,0,0.1,0V63c0,0,0,0,0-0.1v-0.1v-0.1v-0.1v-0.1v-0.1l0,0l0,0c0,0,0,0,0-0.1c0,0,0,0,0-0.1c0,0,0,0,0-0.1c0,0,0,0,0-0.1v-0.2
		c0,0,0,0,0-0.1c0,0,0,0,0-0.1c0,0,0,0,0-0.1c0,0,0,0,0-0.1c0,0,0,0,0-0.1c0,0,0,0,0-0.1v-0.1v-0.1v-0.1v-0.1v-0.1c0,0,0,0-0.1,0
		c0,0,0,0,0-0.1v0h-0.1l0,0v0h-0.1l0,0h-0.1h-0.1h-0.1H107H107h-0.4L106.4,61.3z"/>
	<path style="clip-path:url(#SVGID_00000033333431649322314520000004214724547052569766_);fill:#FFD740;" d="M106.4,61.3h-0.3H106
		H106h-0.1h-0.1h-0.1h-0.1h-0.1h-0.1l0,0h-0.1l0,0v0l0,0v0v0.1v0.1v0.1v0.1v0.1v0.1v0.1l0,0l0,0V62c0,0,0,0,0,0.1c0,0,0,0,0,0.1
		c0,0,0,0,0,0.1v0.2c0,0,0,0,0,0.1c0,0,0,0,0,0.1c0,0,0,0,0,0.1c0,0,0,0,0,0.1c0,0,0,0,0,0.1c0,0,0,0,0,0.1v0.1v0.1v0.1V63v0.1v0.1
		l0,0l0,0v0h0.1l0,0h0.1h0.1h0.1h0.1h0.1h0.1h0.1h0.7h0.1h0.1h0.1h0.1h0.1h0.1h0.1h0.1h0.1h0.1c0,0,0,0,0.1,0l0,0v-0.1
		c0,0,0,0,0.1,0V63c0,0,0,0,0-0.1v-0.1v-0.1v-0.1v-0.1v-0.1l0,0l0,0c0,0,0,0,0-0.1c0,0,0,0,0-0.1c0,0,0,0,0-0.1c0,0,0,0,0-0.1v-0.2
		c0,0,0,0,0-0.1c0,0,0,0,0-0.1c0,0,0,0,0-0.1c0,0,0,0,0-0.1c0,0,0,0,0-0.1c0,0,0,0,0-0.1v-0.1v-0.1v-0.1v-0.1v-0.1c0,0,0,0-0.1,0
		c0,0,0,0,0-0.1v0h-0.1l0,0v0h-0.1l0,0h-0.1h-0.1h-0.1H107H107h-0.4L106.4,61.3z"/>
	<path style="clip-path:url(#SVGID_00000033333431649322314520000004214724547052569766_);fill:#FFD740;" d="M106.4,61.3h-0.3H106
		H106h-0.1h-0.1h-0.1h-0.1h-0.1h-0.1l0,0h-0.1l0,0v0l0,0v0v0.1v0.1v0.1v0.1v0.1v0.1v0.1l0,0l0,0V62c0,0,0,0,0,0.1c0,0,0,0,0,0.1
		c0,0,0,0,0,0.1v0.2c0,0,0,0,0,0.1c0,0,0,0,0,0.1c0,0,0,0,0,0.1c0,0,0,0,0,0.1c0,0,0,0,0,0.1c0,0,0,0,0,0.1v0.1v0.1v0.1V63v0.1v0.1
		l0,0l0,0v0h0.1l0,0h0.1h0.1h0.1h0.1h0.1h0.1h0.1h0.7h0.1h0.1h0.1h0.1h0.1h0.1h0.1h0.1h0.1h0.1c0,0,0,0,0.1,0l0,0v-0.1
		c0,0,0,0,0.1,0V63c0,0,0,0,0-0.1v-0.1v-0.1v-0.1v-0.1v-0.1l0,0l0,0c0,0,0,0,0-0.1c0,0,0,0,0-0.1c0,0,0,0,0-0.1c0,0,0,0,0-0.1v-0.2
		c0,0,0,0,0-0.1c0,0,0,0,0-0.1c0,0,0,0,0-0.1c0,0,0,0,0-0.1c0,0,0,0,0-0.1c0,0,0,0,0-0.1v-0.1v-0.1v-0.1v-0.1v-0.1c0,0,0,0-0.1,0
		c0,0,0,0,0-0.1v0h-0.1l0,0v0h-0.1l0,0h-0.1h-0.1h-0.1H107H107h-0.4L106.4,61.3z"/>
	<path style="clip-path:url(#SVGID_00000033333431649322314520000004214724547052569766_);fill:#FFD740;" d="M106.4,61.3h-0.3H106
		H106h-0.1h-0.1h-0.1h-0.1h-0.1h-0.1l0,0h-0.1l0,0v0l0,0v0v0.1v0.1v0.1v0.1v0.1v0.1v0.1l0,0l0,0V62c0,0,0,0,0,0.1c0,0,0,0,0,0.1
		c0,0,0,0,0,0.1v0.2c0,0,0,0,0,0.1c0,0,0,0,0,0.1c0,0,0,0,0,0.1c0,0,0,0,0,0.1c0,0,0,0,0,0.1c0,0,0,0,0,0.1v0.1v0.1v0.1V63v0.1v0.1
		l0,0l0,0v0h0.1l0,0h0.1h0.1h0.1h0.1h0.1h0.1h0.1h0.7h0.1h0.1h0.1h0.1h0.1h0.1h0.1h0.1h0.1h0.1c0,0,0,0,0.1,0l0,0v-0.1
		c0,0,0,0,0.1,0V63c0,0,0,0,0-0.1v-0.1v-0.1v-0.1v-0.1v-0.1l0,0l0,0c0,0,0,0,0-0.1c0,0,0,0,0-0.1c0,0,0,0,0-0.1c0,0,0,0,0-0.1v-0.2
		c0,0,0,0,0-0.1c0,0,0,0,0-0.1c0,0,0,0,0-0.1c0,0,0,0,0-0.1c0,0,0,0,0-0.1c0,0,0,0,0-0.1v-0.1v-0.1v-0.1v-0.1v-0.1c0,0,0,0-0.1,0
		c0,0,0,0,0-0.1v0h-0.1l0,0v0h-0.1l0,0h-0.1h-0.1h-0.1H107H107h-0.4L106.4,61.3z"/>
	<path style="clip-path:url(#SVGID_00000033333431649322314520000004214724547052569766_);fill:#1A1A1A;" d="M87.6,26.6
		c-2.2,0-13.8-0.4-23.6,3.9c-3.8,1.7-7.7,5.1-7.9,10.6c-0.2,7-1.1,14-2.5,20.9c-0.6,3.2,0,6.2,1.8,8.1c1.8,1.7,4,2.7,6.5,2.9
		c8.6,0.9,17.2,1.4,25.8,1.5c8.6,0,17.2-0.5,25.8-1.5c2.4-0.2,4.7-1.2,6.5-2.9c1.8-1.9,2.4-4.9,1.8-8.1c-1.4-6.9-2.3-13.8-2.5-20.8
		c-0.3-5.5-4.1-8.9-7.9-10.6C101.5,26.2,89.8,26.6,87.6,26.6z M87.6,32.2c2.6,0,13.3-0.1,21.4,3.5c2.8,1.2,4.5,2.6,4.6,5.8
		c0.3,7.3,1.1,14.5,2.6,21.6c0.4,2.2,0.1,2.8-0.4,3.3c-0.9,0.7-2,1.1-3.2,1.2c-6.2,0.9-19.5,1.4-25,1.4s-18.8-0.6-25-1.4
		c-1.2-0.1-2.3-0.5-3.2-1.2C59,65.8,58.6,65.2,59,63c1.5-7.1,2.3-14.4,2.6-21.6c0.2-3.2,1.8-4.5,4.6-5.8C74.3,32,85,32.2,87.6,32.2z
		"/>
	<path style="clip-path:url(#SVGID_00000033333431649322314520000004214724547052569766_);fill:#1A1A1A;" d="M100.4,19
		c-3.2-0.2-6.3,1.5-7.9,4.2l-2.8,4.8l4.8,2.8l2.7-4.8c0.9-1.6,3.3-2.1,5.9-0.6c5,3,8.4,5.2,13.8,9.1c2.1,1.4,3.6,3.5,4.1,6
		c0.5,4,1,9.5,1.2,14.5s-0.3,9.7-1,11.4c-0.3,1-1,1.8-1.9,2.2c-0.9,0.4-1.8,0.5-2.7,0.4c-1.4-0.1-2.7-0.5-4-1l-2.4,5
		c1.9,0.9,3.9,1.4,6,1.6c1.9,0.2,3.8-0.2,5.5-1c2.1-1.1,3.7-2.9,4.6-5.1c1.5-3.6,1.6-8.4,1.4-13.7s-0.7-10.8-1.2-15
		c-0.7-4-3-7.6-6.4-9.8c-5.5-3.9-9-6.3-14.2-9.3C104.3,19.6,102.4,19.1,100.4,19z"/>
	<path style="clip-path:url(#SVGID_00000033333431649322314520000004214724547052569766_);fill:#1A1A1A;" d="M74.8,19
		c-2,0-3.9,0.6-5.6,1.6c-5.1,3.1-8.7,5.5-14.1,9.4c-3.4,2.2-5.8,5.8-6.4,9.9c-0.5,4.2-1.1,9.7-1.2,15S47.3,65,48.8,68.6
		c0.9,2.2,2.5,4,4.6,5.1c1.7,0.8,3.6,1.2,5.5,1c2.1-0.2,4.1-0.7,6-1.6l-2.4-5c-1.3,0.5-2.6,0.9-4,1c-0.9,0.1-1.8,0-2.7-0.4
		c-0.9-0.5-1.5-1.3-1.8-2.2c-0.7-1.7-1.2-6.4-1-11.4s0.7-10.4,1.2-14.5c0.5-2.5,2-4.6,4.1-6c5.4-3.9,8.8-6.1,13.8-9.1
		c2.6-1.5,4.9-1,5.9,0.6l2.8,4.8l4.8-2.8l-2.8-4.8C81.1,20.5,78.1,18.8,74.8,19z"/>
	<path style="clip-path:url(#SVGID_00000033333431649322314520000004214724547052569766_);fill:#5A5252;" d="M92.2,29.5l2.8-4.8
		c1.8-3.1,6.1-3.8,9.7-1.6c5.1,3,8.5,5.4,14,9.2c2.8,1.8,4.7,4.7,5.3,8c1,8.2,2.2,22,0,27.3c-3.1,7.5-12.4,3-12.4,3L92.2,29.5z"/>
	<path style="clip-path:url(#SVGID_00000033333431649322314520000004214724547052569766_);fill:#7F6D6B;" d="M100.1,21.8
		c-0.9,0-1.7,0.2-2.5,0.5c1.2,0.2,2.4,0.6,3.4,1.3c5.2,3.3,8.7,5.8,14.3,9.9c2.9,2,4.8,5.1,5.4,8.6c1,8.6,2.2,22.8,0.2,28.9
		c1.3-0.8,2.4-2,2.9-3.5c2.2-5.3,1-19.1,0-27.3c-0.6-3.3-2.5-6.2-5.3-8c-5.4-3.9-8.9-6.2-14-9.2C103.2,22.1,101.6,21.7,100.1,21.8
		L100.1,21.8z"/>
	<path style="clip-path:url(#SVGID_00000033333431649322314520000004214724547052569766_);fill:#1A1A1A;" d="M100.4,20.8
		c-2.6-0.2-5,1.1-6.3,3.3L91.3,29l1.6,0.9l2.8-4.8c1.5-2.6,5.2-3.2,8.4-1.3c5,3,8.5,5.3,13.9,9.2c2.6,1.7,4.3,4.3,4.9,7.3
		c0.5,4.1,1,9.5,1.2,14.6s-0.2,9.8-1.1,12.2c-0.5,1.4-1.5,2.5-2.8,3.2c-1.1,0.5-2.4,0.7-3.7,0.6c-1.6-0.1-3.2-0.6-4.7-1.2l-0.8,1.7
		c1.7,0.8,3.5,1.3,5.4,1.4c1.6,0.2,3.1-0.1,4.6-0.8c1.7-0.9,3-2.3,3.7-4.1c1.2-3,1.4-7.7,1.3-12.9s-0.7-10.7-1.2-14.8
		c-0.6-3.5-2.7-6.6-5.7-8.6c-5.4-3.9-9-6.2-14-9.2C103.7,21.4,102.1,20.9,100.4,20.8L100.4,20.8z"/>
	<path style="clip-path:url(#SVGID_00000033333431649322314520000004214724547052569766_);fill:#423D3D;" d="M83.1,29.5l-2.8-4.8
		c-1.8-3.1-6.1-3.8-9.7-1.6c-5.1,3-8.5,5.4-14,9.2c-2.8,1.8-4.7,4.7-5.3,8c-1,8.2-2.2,22,0,27.3c3.1,7.5,12.4,3,12.4,3L83.1,29.5z"
		/>
	<path style="clip-path:url(#SVGID_00000033333431649322314520000004214724547052569766_);fill:#1A1A1A;" d="M74.8,20.8
		c-1.6,0-3.3,0.5-4.7,1.4c-5.1,3-8.6,5.4-14,9.2c-3,2-5,5.1-5.7,8.6c-0.5,4.1-1.1,9.6-1.2,14.8s0,10,1.3,12.9c0.7,1.8,2,3.3,3.7,4.1
		c1.4,0.6,3,0.9,4.6,0.8c1.9-0.2,3.7-0.6,5.4-1.4l-0.8-1.7c-1.5,0.7-3.1,1.1-4.7,1.2c-1.3,0.1-2.5-0.1-3.7-0.6
		c-1.3-0.7-2.3-1.8-2.8-3.2c-1-2.3-1.3-7.1-1.1-12.2s0.7-10.6,1.2-14.6c0.6-3,2.3-5.6,4.9-7.3c5.4-3.9,8.9-6.1,13.9-9.2
		c3.2-2,6.9-1.4,8.4,1.3l2.8,4.8l1.6-0.9l-2.8-4.8C79.8,22,77.4,20.7,74.8,20.8L74.8,20.8z"/>
	<path style="clip-path:url(#SVGID_00000033333431649322314520000004214724547052569766_);fill:#5A5252;" d="M110.1,33.1
		c-8.9-3.9-20.1-3.7-22.5-3.7s-13.6-0.3-22.5,3.7c-3.3,1.5-6.1,3.9-6.3,8.2c-0.3,7.1-1.1,14.2-2.6,21.2c-1,5.4,1.9,7.2,5.9,7.8
		c8.4,0.9,16.9,1.4,25.4,1.4c8.5-0.1,17-0.5,25.4-1.4c4-0.6,7-2.4,5.9-7.8c-1.4-7-2.3-14.1-2.6-21.2
		C116.1,36.9,113.3,34.5,110.1,33.1L110.1,33.1z"/>
	<path style="clip-path:url(#SVGID_00000033333431649322314520000004214724547052569766_);fill:#7F6D6B;" d="M96.9,29.8
		c2.4,2.3,3.8,5.4,3.8,8.7c0.3,9.2,1.1,18.4,2.5,27.5c0.3,1.7,0.3,3.5-0.1,5.2c3.2-0.2,6.4-0.5,8.8-0.8c0.3-1.6,0.3-3.3,0-4.9
		c-1.4-8.8-2.3-17.6-2.5-26.5c0-2.5-0.9-5-2.4-7C103.8,31,100.4,30.2,96.9,29.8L96.9,29.8z"/>
	<path style="clip-path:url(#SVGID_00000033333431649322314520000004214724547052569766_);fill:#423D3D;" d="M78.3,29.8
		c-4.5,0.4-9,1.5-13.2,3.3c-3.3,1.5-6.1,3.9-6.3,8.2c-0.3,7.1-1.1,14.2-2.6,21.2c-1,5.4,1.9,7.2,5.9,7.8c2.6,0.4,6.1,0.7,9.9,0.9
		c-0.4-1.7-0.4-3.4-0.1-5.1c1.4-9.1,2.3-18.2,2.6-27.4C74.5,35.3,75.9,32.1,78.3,29.8L78.3,29.8z"/>
	<path style="clip-path:url(#SVGID_00000033333431649322314520000004214724547052569766_);fill:#1A1A1A;" d="M87.6,28.5
		c-2.3,0-13.7-0.3-22.9,3.8c-3.5,1.5-6.6,4.3-6.8,9c-0.2,7.1-1.1,14.2-2.5,21.1c-0.6,2.9,0,5.1,1.3,6.5c1.5,1.4,3.4,2.2,5.4,2.3
		c8.5,0.9,17,1.4,25.5,1.5c8.5,0,17.1-0.5,25.6-1.5c2-0.1,3.9-1,5.4-2.3c1.3-1.4,1.9-3.6,1.3-6.5c-1.4-7-2.3-14-2.5-21.1
		c-0.2-4.7-3.4-7.5-6.8-9C101.3,28.2,89.9,28.5,87.6,28.5z M87.6,30.3c2.4,0,13.5-0.2,22.1,3.6c3.1,1.4,5.5,3.4,5.7,7.4
		c0.3,7.2,1.1,14.3,2.5,21.4c0.5,2.5,0,3.9-0.8,4.9c-1.2,1-2.7,1.7-4.3,1.8c-8.4,0.9-16.8,1.4-25.3,1.4c-8.4-0.1-16.9-0.5-25.3-1.4
		c-1.6-0.1-3.1-0.7-4.3-1.8c-0.9-1-1.3-2.4-0.8-4.9c1.5-7,2.3-14.2,2.6-21.4c0.2-4,2.6-6,5.7-7.4C74.2,30.1,85.2,30.3,87.6,30.3z"/>
	<path style="clip-path:url(#SVGID_00000033333431649322314520000004214724547052569766_);fill:#E83B54;" d="M82.9,55.1
		c-1-0.8,0.5-3.7,0.1-5s-3.4-2.7-3-4s3.7-0.7,4.7-1.4s1.5-4.1,2.8-4.1s1.8,3.3,2.8,4.1s4.3,0.2,4.7,1.4s-2.6,2.7-3,4s1.1,4.2,0.1,5
		s-3.4-1.6-4.7-1.6S84,55.9,82.9,55.1z"/>
	<path style="clip-path:url(#SVGID_00000033333431649322314520000004214724547052569766_);fill:#1A1A1A;" d="M87.6,40.3
		c-0.5,0-0.9,0.3-1.2,0.7c-0.3,0.4-0.5,0.8-0.7,1.3c-0.2,0.5-0.4,1-0.6,1.3c-0.1,0.3-0.3,0.6-0.6,0.8c-0.3,0.2-0.6,0.3-0.9,0.3
		c-0.4,0.1-0.9,0.1-1.5,0.2c-0.5,0-1,0.1-1.5,0.3c-0.5,0.1-0.8,0.5-1,0.9c-0.1,0.5,0,1,0.3,1.4c0.3,0.4,0.6,0.8,1,1.1
		c0.4,0.3,0.8,0.7,1.1,1c0.2,0.2,0.4,0.5,0.6,0.8c0.1,0.3,0.1,0.7,0,1c-0.1,0.4-0.2,0.9-0.3,1.5c-0.1,0.5-0.2,1-0.2,1.5
		c0,0.5,0.2,1,0.6,1.3c0.4,0.3,0.9,0.3,1.4,0.1c0.5-0.2,0.9-0.4,1.3-0.7c0.4-0.3,0.9-0.5,1.3-0.7c0.3-0.1,0.6-0.2,0.9-0.3
		c0.3,0,0.6,0.1,0.9,0.3c0.4,0.2,0.8,0.5,1.3,0.7c0.4,0.3,0.9,0.5,1.4,0.6c0.5,0.2,1,0.1,1.4-0.1c0.4-0.3,0.6-0.8,0.6-1.3
		c0-0.5-0.1-1-0.2-1.5c-0.1-0.5-0.2-1-0.3-1.5c-0.1-0.3-0.1-0.7,0-1c0.1-0.3,0.3-0.6,0.6-0.8c0.3-0.3,0.7-0.6,1.1-1
		c0.4-0.3,0.7-0.7,1-1.1c0.3-0.4,0.4-0.9,0.3-1.4c-0.2-0.4-0.5-0.8-1-0.9c-0.5-0.2-1-0.2-1.5-0.3c-0.5-0.1-1-0.1-1.5-0.2
		c-0.3,0-0.6-0.1-0.9-0.3c-0.2-0.2-0.4-0.5-0.6-0.8c-0.2-0.4-0.4-0.9-0.6-1.3c-0.2-0.5-0.5-0.9-0.8-1.3
		C88.5,40.6,88.1,40.3,87.6,40.3L87.6,40.3z M87.6,41.2c0.1,0,0.3,0.1,0.5,0.3c0.2,0.4,0.4,0.7,0.6,1.1c0.2,0.5,0.4,0.9,0.6,1.4
		c0.2,0.4,0.5,0.8,0.8,1.1c0.4,0.3,0.9,0.4,1.3,0.5c0.5,0.1,1,0.1,1.5,0.2c0.4,0,0.9,0.1,1.3,0.2c0.3,0.1,0.4,0.2,0.5,0.3
		s0,0.3-0.2,0.6c-0.3,0.3-0.6,0.7-0.9,0.9c-0.4,0.3-0.8,0.7-1.1,1c-0.3,0.3-0.6,0.7-0.8,1.2c-0.1,0.5-0.1,0.9,0,1.4
		c0.1,0.5,0.2,1,0.3,1.5c0.1,0.4,0.2,0.8,0.2,1.3c0,0.3-0.1,0.5-0.2,0.6s-0.3,0.1-0.6,0c-0.4-0.1-0.8-0.3-1.2-0.5
		c-0.4-0.2-0.9-0.5-1.3-0.7c-0.8-0.5-1.9-0.5-2.7,0c-0.4,0.2-0.9,0.5-1.3,0.7c-0.4,0.2-0.8,0.4-1.2,0.5c-0.3,0.1-0.5,0.1-0.6,0
		S83,54.5,83,54.2c0-0.4,0.1-0.9,0.2-1.3c0.1-0.5,0.2-1,0.3-1.5c0.3-0.9-0.1-1.9-0.8-2.5c-0.3-0.3-0.8-0.7-1.1-1
		c-0.3-0.3-0.6-0.6-0.9-0.9c-0.2-0.3-0.2-0.4-0.2-0.6s0.2-0.2,0.5-0.3c0.4-0.1,0.8-0.2,1.3-0.2c0.5-0.1,1-0.1,1.5-0.2
		c0.5-0.1,0.9-0.2,1.3-0.5c0.4-0.3,0.7-0.7,0.9-1.2c0.2-0.4,0.4-0.9,0.6-1.4c0.2-0.4,0.4-0.8,0.6-1.1C87.3,41.2,87.5,41.1,87.6,41.2
		L87.6,41.2z"/>
	<path style="clip-path:url(#SVGID_00000033333431649322314520000004214724547052569766_);fill:#423D3D;" d="M75,66.3
		c0.1-1,0.9-1.7,1.9-1.7c0.9,0.1,1.6,0.8,1.7,1.7c0,1-0.8,1.8-1.8,1.8C75.8,68.1,75,67.3,75,66.3C75,66.3,75,66.3,75,66.3z"/>
	<path style="clip-path:url(#SVGID_00000033333431649322314520000004214724547052569766_);fill:#423D3D;" d="M80.4,60.7
		c0-0.3,0.1-0.5,0.3-0.7c0.2-0.2,0.4-0.3,0.7-0.3c0.6,0,1,0.4,1,1s-0.4,1-1,1c-0.3,0-0.5-0.1-0.7-0.3C80.5,61.2,80.4,61,80.4,60.7
		L80.4,60.7z"/>
	<path style="clip-path:url(#SVGID_00000033333431649322314520000004214724547052569766_);fill:#423D3D;" d="M88.2,60.1
		c0-0.6,0.4-1,1-1s1,0.4,1,1s-0.4,1-1,1S88.2,60.7,88.2,60.1z"/>
	<path style="clip-path:url(#SVGID_00000033333431649322314520000004214724547052569766_);fill:#7F6D6B;" d="M111.5,50.1
		c0-0.6,0.4-1,1-1s1,0.4,1,1s-0.4,1-1,1S111.5,50.7,111.5,50.1z"/>
	<path style="clip-path:url(#SVGID_00000033333431649322314520000004214724547052569766_);fill:#7F6D6B;" d="M109.4,58.5
		c0-1,0.8-1.8,1.8-1.8c1,0,1.8,0.8,1.8,1.8c0,1-0.8,1.8-1.8,1.8c-0.5,0-0.9-0.2-1.3-0.5C109.6,59.5,109.4,59,109.4,58.5z"/>
	
		<rect x="157.9" y="146.6" style="clip-path:url(#SVGID_00000033333431649322314520000004214724547052569766_);fill:#1A1A1A;" width="15.5" height="28.1"/>
	<path style="clip-path:url(#SVGID_00000033333431649322314520000004214724547052569766_);fill:#1A1A1A;" d="M183.4,107.4
		c0,1.8-1.5,3.2-3.2,3.2h-5.8c-1.8,0-3.2-1.4-3.2-3.2V104c0-1.8,1.5-3.2,3.2-3.2h5.8c1.8,0,3.2,1.4,3.2,3.2V107.4z"/>
	
		<rect x="172.2" y="79.8" style="clip-path:url(#SVGID_00000033333431649322314520000004214724547052569766_);fill:#1A1A1A;" width="10.1" height="24.2"/>
	<path style="clip-path:url(#SVGID_00000033333431649322314520000004214724547052569766_);fill:#1A1A1A;" d="M187.7,87.8l-5.4,2.5
		h-6.5V79.8h11.9V87.8z"/>
	<path style="clip-path:url(#SVGID_00000033333431649322314520000004214724547052569766_);fill:#1A1A1A;" d="M171.2,169.1
		c0,0.1,0,0.1,0,0.2l-0.6,13.2c-0.1,1.7-1.5,3.1-3.2,3.1h-2c-0.6,0-1.1-0.2-1.6-0.4l-1.2-0.7c0,0,0,0-0.1,0l-9.6,4
		c-1.1,0.5-2.4,0.3-3.4-0.6c-3.1-3.2-4.4-7.8-3.5-12.2c0.2-1,0.9-1.9,1.9-2.3l11.9-4.9c0.3-0.6,0.6-1.1,1.1-1.5
		c0.8-0.7,1.9-1.1,2.9-1.1h4.1C169.8,165.8,171.2,167.2,171.2,169.1C171.2,169,171.2,169,171.2,169.1L171.2,169.1z M164.5,173.1
		c-0.4,0.4-0.9,0.8-1.4,1l-11,4.6c-0.1,1,0.1,1.9,0.5,2.8l7.4-3.1c1.4-0.5,2.9-0.6,4.3-0.3L164.5,173.1L164.5,173.1z"/>
	<path style="clip-path:url(#SVGID_00000033333431649322314520000004214724547052569766_);fill:#1A1A1A;" d="M169.1,142l-23.2-3.1
		l-0.8,5.9l24.2,3.1l-0.9,6.4l-30.6-4l2.5-18.7l29.7,3.9L169.1,142z"/>
	<path style="clip-path:url(#SVGID_00000033333431649322314520000004214724547052569766_);fill:#1A1A1A;" d="M187.7,179.5l-10.4,6
		h-13.5l1.3-25.5l-0.6-0.6v-6.2l1-1l1.1-21.9c-1.2-1.6-1.5-3.7-0.8-5.6l2.8-8.4v-6.5c0.1-2.2,1.3-4.1,3.2-5.1
		c0.8-0.4,1.7-0.5,2.6-0.4h9.1c1,0,2.1,0.4,2.8,1.1c0.8,0.8,1.3,1.9,1.3,3L187.7,179.5z M175.1,110.7v6.7l-2.8,8.6l1.1,0.2
		l-1.5,28.9l-0.9,0.9v0.8l0.7,0.7l-1.1,21.5h4.9l5.6-3.2v-65.1H175.1z M173.9,110.7c0.1,0,0.1,0,0.2,0H173.9z"/>
	<path style="clip-path:url(#SVGID_00000033333431649322314520000004214724547052569766_);fill:#1A1A1A;" d="M182.1,206
		c0.1,2.5-1.8,4.6-4.2,4.8l-15.3,2c-1.5,0.2-3.1-0.3-4.1-1.4c-1.1-1.2-1.5-2.9-1.1-4.5l7.6-27.9h14.8v6.8l1.5,1.5l1,0.9L182.1,206z
		 M173.2,188.5v-3h-3.4l-5.6,20.6l11.4-1.5v-13.7L173.2,188.5z"/>
	
		<rect x="174.3" y="104" style="clip-path:url(#SVGID_00000033333431649322314520000004214724547052569766_);fill:#797979;" width="5.8" height="3.4"/>
	<path style="clip-path:url(#SVGID_00000033333431649322314520000004214724547052569766_);fill:#545454;" d="M184.4,85.7l-2.9,1.3
		H179V83h5.4L184.4,85.7z"/>
	
		<rect x="175.4" y="83" style="clip-path:url(#SVGID_00000033333431649322314520000004214724547052569766_);fill:#545454;" width="3.6" height="21"/>
	<path style="clip-path:url(#SVGID_00000033333431649322314520000004214724547052569766_);fill:#444444;" d="M168.2,163.2l-1.3,1
		c-2.1,0.2-2.2-0.3-3.1-1.8H163c0,0-0.5,3.2,1.8,4.1c1.3,0.5,2,0,3.1,2.2L168.2,163.2z"/>
	<path style="clip-path:url(#SVGID_00000033333431649322314520000004214724547052569766_);fill:#444444;" d="M167.8,154.6h-3.5
		c-0.7,0-1.2,0.3-1.2,1.1v2.4h4.6V154.6z"/>
	<path style="clip-path:url(#SVGID_00000033333431649322314520000004214724547052569766_);fill:#EFA85D;" d="M167.3,182.2h-2
		l-1.4-0.8c-0.8-0.5-1.8-0.5-2.7,0l-9.6,4c-2.3-2.4-3.3-5.8-2.4-9l12.7-5.3c1-0.4,0.6-2,2-2h4.1L167.3,182.2z"/>
	<path style="clip-path:url(#SVGID_00000033333431649322314520000004214724547052569766_);fill:#636363;" d="M169.5,138.8l-26.5-3.5
		l-1.6,12.3l27.4,3.6L169.5,138.8z"/>
	<path style="clip-path:url(#SVGID_00000033333431649322314520000004214724547052569766_);fill:#797979;" d="M184.4,177.6l-8,4.6
		h-9.2l1.2-23.5l-0.7-0.7v-3.5l0.9-0.9l1.3-24.9c0,0-2-0.4-1.1-3.1l2.9-8.9v-7.1c-0.1-1.2,0.7-2.2,1.9-2.3c0.2,0,0.4,0,0.5,0h9.2
		c0.4,0,0.8,0.3,0.9,0.7c0,0,0,0.1,0,0.1L184.4,177.6z"/>
	<path style="clip-path:url(#SVGID_00000033333431649322314520000004214724547052569766_);fill:#A0A0A0;" d="M177.3,107.4v74.3
		l1.5-0.9v-73.4H177.3z"/>
	<path style="clip-path:url(#SVGID_00000033333431649322314520000004214724547052569766_);fill:#545454;" d="M174.3,182.2h-7.1
		l1.2-23.5l-0.7-0.7v-3.5l0.9-0.9l1.3-24.9c0,0-2-0.4-1.1-3.1l2.9-8.9v-7.1c-0.1-1.2,0.7-2.2,1.9-2.3c0.2,0,0.4,0,0.5,0L174.3,182.2
		z"/>
	<path style="clip-path:url(#SVGID_00000033333431649322314520000004214724547052569766_);fill:#545454;" d="M184.4,177.6l-4.3,2.5
		v-72.7h3.4c0.4,0,0.8,0.3,0.9,0.7c0,0,0,0.1,0,0.1V177.6z"/>
	<path style="clip-path:url(#SVGID_00000033333431649322314520000004214724547052569766_);fill:#EFA85D;" d="M184.4,128.8H170
		c0,0-2-0.4-1.1-3.1l2.9-8.9v-7.1c-0.1-1.2,0.7-2.2,1.9-2.3c0.2,0,0.4,0,0.5,0h9.2c0.4,0,0.8,0.3,0.9,0.7c0,0,0,0.1,0,0.1
		L184.4,128.8z"/>
	
		<rect x="177.3" y="107.4" style="clip-path:url(#SVGID_00000033333431649322314520000004214724547052569766_);fill:#FDD083;" width="1.5" height="21.4"/>
	<path style="clip-path:url(#SVGID_00000033333431649322314520000004214724547052569766_);fill:#DC773D;" d="M170,128.8
		c0,0-2-0.4-1.1-3.1l2.9-8.9v-7.1c-0.1-1.2,0.7-2.2,1.9-2.3c0.2,0,0.4,0,0.5,0v21.4H170z"/>
	<path style="clip-path:url(#SVGID_00000033333431649322314520000004214724547052569766_);fill:#DC773D;" d="M184.4,128.8h-4.3
		v-21.4h3.4c0.4,0,0.8,0.3,0.9,0.7c0,0,0,0.1,0,0.1V128.8z"/>
	<path style="clip-path:url(#SVGID_00000033333431649322314520000004214724547052569766_);fill:#EFA85D;" d="M178.8,206
		c0.1,0.8-0.5,1.5-1.3,1.6c0,0-0.1,0-0.1,0l-15.3,2c-0.8,0.2-1.5-0.2-1.7-1c-0.1-0.3-0.1-0.6,0-0.8l6.9-25.5h9.1v4.9l2.4,2.4
		L178.8,206z"/>
	<path style="clip-path:url(#SVGID_00000033333431649322314520000004214724547052569766_);fill:#1A1A1A;" d="M180.6,107.9h-6.7v-4.3
		h6.7V107.9z M174.8,104.5v2.5h4.9v-2.5L174.8,104.5z"/>
	<path style="clip-path:url(#SVGID_00000033333431649322314520000004214724547052569766_);fill:#1A1A1A;" d="M179.5,104h-0.9V83.5
		h-2.7V104H175V82.6h4.5L179.5,104z"/>
	<path style="clip-path:url(#SVGID_00000033333431649322314520000004214724547052569766_);fill:#1A1A1A;" d="M184.9,86l-3.2,1.5
		h-3.1v-5h6.3V86z M179.5,83.5v3.1h1.9l2.6-1.2v-1.9L179.5,83.5z"/>
	
		<rect x="179.7" y="107.4" style="clip-path:url(#SVGID_00000033333431649322314520000004214724547052569766_);fill:#1A1A1A;" width="0.9" height="72.7"/>
	
		<rect x="170" y="128.3" style="clip-path:url(#SVGID_00000033333431649322314520000004214724547052569766_);fill:#1A1A1A;" width="14.4" height="0.9"/>
	<path style="clip-path:url(#SVGID_00000033333431649322314520000004214724547052569766_);fill:#DC773D;" d="M167.3,182.2h-2
		l-1.4-0.8c-0.4-0.2-0.9-0.4-1.4-0.3l1.6-12h3.9L167.3,182.2z"/>
	<path style="clip-path:url(#SVGID_00000033333431649322314520000004214724547052569766_);fill:#444444;" d="M163.9,169.5
		c-0.7,0-1.4-0.2-2-0.6c-0.6-0.5-0.9-1.3-0.8-2.1l0.1-7.2c0-0.7,0.4-1.4,1-1.8c0.3-0.1,0.7-0.2,1-0.2v0.9c-0.2,0-0.4,0-0.5,0.1
		c-0.3,0.1-0.5,0.3-0.5,1l-0.1,7.2c-0.1,0.5,0.1,1,0.5,1.4c0.4,0.3,0.9,0.4,1.4,0.4L163.9,169.5z"/>
	<path style="clip-path:url(#SVGID_00000033333431649322314520000004214724547052569766_);fill:#1A1A1A;" d="M167.7,182.7h-2.6
		l-1.5-0.9c-0.7-0.4-1.6-0.4-2.2,0l-9.9,4.1l-0.2-0.2c-2.5-2.5-3.4-6.1-2.6-9.5V176l12.9-5.4c0.1-0.1,0.3-0.2,0.3-0.3
		c0.1-0.2,0.2-0.4,0.3-0.6c0.1-0.3,0.3-0.5,0.5-0.8c0.3-0.3,0.7-0.4,1.1-0.4h4.5L167.7,182.7z M163.9,169.5c-0.2,0-0.3,0-0.5,0.1
		c-0.1,0.1-0.2,0.3-0.3,0.4c-0.1,0.3-0.2,0.5-0.4,0.7c-0.2,0.3-0.4,0.5-0.8,0.7l-12.5,5.2c-0.7,2.9,0.1,6,2.1,8.2l9.3-3.9
		c1-0.5,2.1-0.5,3.1,0l1.3,0.8h1.5l0.6-12.2L163.9,169.5z"/>
	<path style="clip-path:url(#SVGID_00000033333431649322314520000004214724547052569766_);fill:#444444;" d="M167.8,155.1h-3.5
		c-0.2,0-0.4,0-0.6,0.1c-0.1,0.1-0.2,0.2-0.2,0.5v1.9h4.2v0.9h-5.1v-2.9c0-0.4,0.2-0.9,0.5-1.2c0.3-0.3,0.7-0.4,1.2-0.4h3.5
		L167.8,155.1z"/>
	<path style="clip-path:url(#SVGID_00000033333431649322314520000004214724547052569766_);fill:#1A1A1A;" d="M167.2,164.7H167
		c-0.8,0.1-1.6,0-2.3-0.4c-0.5-0.4-0.8-0.9-1.1-1.4h-0.2c0,0.4,0,0.8,0.1,1.2c0.1,0.9,0.7,1.7,1.5,2.1c0.6,0.2,1,0.2,1.6,0.5
		c0.8,0.4,1.4,1.1,1.7,2l-0.8,0.4c-0.5-1-0.9-1.4-1.3-1.5s-0.9-0.2-1.6-0.5c-1.1-0.5-1.9-1.6-2.1-2.8c-0.1-0.6-0.1-1.2-0.1-1.9
		l0.1-0.4h1.5l0.1,0.2c0.2,0.5,0.6,1,0.9,1.4c0.5,0.2,1,0.3,1.6,0.2l1.1-0.9l0.6,0.7L167.2,164.7z"/>
	<path style="clip-path:url(#SVGID_00000033333431649322314520000004214724547052569766_);fill:#797979;" d="M171.7,161.3
		c0.3,0,0.6-0.1,0.8-0.3c0.2-0.2,0.3-0.5,0.3-0.8c0-0.6-0.5-1.1-1.1-1.1s-1.1,0.5-1.1,1.1C170.6,160.8,171.1,161.3,171.7,161.3
		C171.7,161.3,171.7,161.3,171.7,161.3z"/>
	<path style="clip-path:url(#SVGID_00000033333431649322314520000004214724547052569766_);fill:#797979;" d="M171.7,168.7
		c0.6,0,1.1-0.5,1.1-1.1c0-0.3-0.1-0.6-0.3-0.8c-0.4-0.4-1.1-0.4-1.6,0c-0.4,0.4-0.4,1.1,0,1.6C171.1,168.5,171.4,168.7,171.7,168.7
		z"/>
	<path style="clip-path:url(#SVGID_00000033333431649322314520000004214724547052569766_);fill:#444444;" d="M168.9,151.2l-5.3-0.7
		l1.6-12.3l4.3,0.6L168.9,151.2z"/>
	<path style="clip-path:url(#SVGID_00000033333431649322314520000004214724547052569766_);fill:#3D3D3D;" d="M144.8,148l-3.3-0.4
		l1.6-12.3l3.3,0.4L144.8,148z"/>
	<path style="clip-path:url(#SVGID_00000033333431649322314520000004214724547052569766_);fill:#1A1A1A;" d="M169.5,139.2l-26-3.4
		l-1.5,11.4l27,3.6l-0.1,0.9l-28-3.7l1.7-13.2l26.9,3.5L169.5,139.2z"/>
	<path style="clip-path:url(#SVGID_00000033333431649322314520000004214724547052569766_);fill:#1A1A1A;" d="M184.9,177.9l-8.3,4.8
		h-9.8l1.2-23.8l-0.7-0.7v-3.9l0.9-0.9l1.3-24.4c-0.3-0.1-0.5-0.3-0.7-0.6c-0.6-0.9-0.7-2-0.3-3l2.9-8.9v-7
		c-0.1-1.1,0.5-2.1,1.5-2.6c0.5-0.2,1-0.3,1.4-0.2h9.2c0.7,0,1.3,0.5,1.3,1.2c0,0,0,0.1,0,0.1L184.9,177.9z M184,108.3
		c0-0.1,0-0.2-0.1-0.3c-0.1-0.1-0.2-0.1-0.3-0.1h-9.3c-0.3,0-0.7,0-1,0.2c-0.5,0.2-0.9,0.6-0.9,1.7v7.1l-3,9
		c-0.4,1.2-0.1,1.8,0.1,2.1c0.2,0.2,0.4,0.3,0.6,0.4l0.4,0.1l-1.3,25.4l-0.9,0.9v3.1l0.7,0.7l-1.2,23.2h8.6l7.7-4.4L184,108.3
		L184,108.3z"/>
	<path style="clip-path:url(#SVGID_00000033333431649322314520000004214724547052569766_);fill:#DC773D;" d="M176.4,182.2h-6.7
		l-5.4,25.3c-0.2,0.6,0,1.3,0.6,1.6l-2.9,0.4c-0.8,0.2-1.5-0.2-1.7-1c-0.1-0.3-0.1-0.6,0-0.8l6.9-25.5H176.4L176.4,182.2z"/>
	<path style="clip-path:url(#SVGID_00000033333431649322314520000004214724547052569766_);fill:#FDD083;" d="M178.8,206
		c0.1,0.8-0.5,1.5-1.3,1.6c-0.1,0-0.1,0-0.2,0l-0.7,0.1c0.1-0.2,0.1-0.4,0.1-0.6v-16.5l-2.4-2.6v-5.8h2v4.9l2.4,2.4L178.8,206z"/>
	<path style="clip-path:url(#SVGID_00000033333431649322314520000004214724547052569766_);fill:#1A1A1A;" d="M179.3,206
		c0,0.5-0.1,1-0.5,1.4c-0.4,0.4-0.8,0.6-1.3,0.6l-15.3,2c-0.7,0.1-1.3-0.1-1.8-0.5c-0.5-0.5-0.6-1.2-0.4-1.9l7-25.9h9.9v5.2l2.3,2.3
		l0.1,0.1V206z M176,187.3v-4.7h-8.3l-6.8,25.2c-0.1,0.3-0.1,0.7,0.2,1c0.3,0.2,0.6,0.3,1,0.3l15.3-2c0.3,0,0.6-0.1,0.8-0.3
		c0.2-0.2,0.3-0.5,0.2-0.8v-16.3L176,187.3z"/>
	<path style="clip-path:url(#SVGID_00000033333431649322314520000004214724547052569766_);fill:#1A1A1A;" d="M145.2,148.1l-0.9-0.1
		l1.6-12.3l0.9,0.1L145.2,148.1z"/>
	<path style="clip-path:url(#SVGID_00000033333431649322314520000004214724547052569766_);fill:#1A1A1A;" d="M173.3,160.2
		c0,0.9-0.7,1.6-1.6,1.6s-1.6-0.7-1.6-1.6c0-0.9,0.7-1.6,1.6-1.6S173.3,159.4,173.3,160.2L173.3,160.2z M172.4,160.2
		c0-0.4-0.3-0.7-0.6-0.7c-0.4,0-0.7,0.3-0.7,0.7l0,0c0,0.4,0.3,0.6,0.7,0.6C172.1,160.9,172.4,160.6,172.4,160.2z"/>
	<path style="clip-path:url(#SVGID_00000033333431649322314520000004214724547052569766_);fill:#1A1A1A;" d="M173.3,167.5
		c0,0.9-0.7,1.6-1.5,1.6s-1.6-0.7-1.6-1.5s0.7-1.6,1.5-1.6c0,0,0,0,0,0C172.6,166,173.3,166.7,173.3,167.5L173.3,167.5z
		 M172.4,167.5c0-0.4-0.3-0.7-0.6-0.7s-0.7,0.3-0.7,0.6c0,0.4,0.3,0.7,0.6,0.7h0C172.1,168.2,172.3,167.9,172.4,167.5
		C172.4,167.6,172.4,167.5,172.4,167.5z"/>
	<g style="clip-path:url(#SVGID_00000033333431649322314520000004214724547052569766_);enable-background:new    ;">
		<text transform="matrix(1 0 0 1 31.31 264.55)" class="st30 st4 st31">rosja</text>
	</g>
</g>
</svg>
