<?xml version="1.0" encoding="utf-8"?>
<!-- Generator: Adobe Illustrator 26.0.3, SVG Export Plug-In . SVG Version: 6.00 Build 0)  -->
<svg version="1.1" id="Слой_1" xmlns="http://www.w3.org/2000/svg" xmlns:xlink="http://www.w3.org/1999/xlink" x="0px" y="0px"
	 viewBox="0 0 195.6 280.6" style="enable-background:new 0 0 195.6 280.6;" xml:space="preserve">
<style type="text/css">
	.st0{clip-path:url(#SVGID_00000060724588486637772180000014065184833045284793_);fill:#2764AE;}
	.st1{clip-path:url(#SVGID_00000060724588486637772180000014065184833045284793_);}
	.st2{fill-rule:evenodd;clip-rule:evenodd;fill:#288ACB;stroke:#FFFFFF;stroke-width:2.5;}
	.st3{opacity:0.99;fill:#F7E822;enable-background:new    ;}
	.st4{fill-rule:evenodd;clip-rule:evenodd;fill:#F7E822;}
	.st5{clip-path:url(#SVGID_00000060724588486637772180000014065184833045284793_);fill:#515CA6;stroke:#FFFFFF;stroke-width:2;}
	.st6{clip-path:url(#SVGID_00000060724588486637772180000014065184833045284793_);fill:#FFFFFF;}
	.st7{clip-path:url(#SVGID_00000060724588486637772180000014065184833045284793_);fill:#FCC00D;}
	.st8{clip-path:url(#SVGID_00000060724588486637772180000014065184833045284793_);enable-background:new    ;}
	.st9{fill:#288ACB;}
	.st10{font-family:'Impact';}
	.st11{font-size:18.31px;}
	.st12{font-size:24.77px;}
	.st13{fill:#FFFFFF;}
	.st14{font-size:20px;}
</style>
<g>
	<defs>
		<rect id="SVGID_1_" x="0" y="0" width="195.6" height="280.6"/>
	</defs>
	<clipPath id="SVGID_00000164485608705116047100000014503575269244984759_">
		<use xlink:href="#SVGID_1_"  style="overflow:visible;"/>
	</clipPath>
	
		<rect x="-9.2" y="-8.4" style="clip-path:url(#SVGID_00000164485608705116047100000014503575269244984759_);fill:#2764AE;" width="214" height="297.9"/>
	<g id="g3297" style="clip-path:url(#SVGID_00000164485608705116047100000014503575269244984759_);">
		<path id="path13477" class="st2" d="M44.8,12.4c-0.1,27.2-0.3,64.8-0.3,96c0,7.7,4.1,16.1,14.1,16.1h30.8c5.9,0,7,8.4,8.5,11.1
			c1.5-2.8,2.6-11.1,8.5-11.1H137c10,0,14.1-8.4,14.1-16.1c0-31.2-0.2-68.9-0.3-96L44.8,12.4z"/>
		<path id="path2187" class="st3" d="M125.6,86.2l-22-13.8l-5.8,25.2l-5.7-25.2L70,86.1l14-21.8l-25.5-5.7L84,53.1L70,31.3l22,13.8
			L97.8,20l5.7,25.2l22.1-13.8l-14,21.8l25.5,5.7l-25.5,5.6L125.6,86.2z"/>
		<path id="path3162" class="st4" d="M56.1,61.5c-11,73.4,90.7,76.2,84,0C132.3,117.3,63.3,118.1,56.1,61.5z"/>
	</g>
	
		<path style="clip-path:url(#SVGID_00000164485608705116047100000014503575269244984759_);fill:#515CA6;stroke:#FFFFFF;stroke-width:2;" d="
		M153.9,253.8v-29.1c-10.5-6.8-10.5-27.3,0-33.6v-27c0-23.1-43.2-30.7-43.2-30.7c-6.3-0.8-10.2-4.7-12.8-7.3
		c-2.6,2.6-6.3,6.6-13.1,7.3c0.3,0-43,7.6-43,30.7v27c10.5,6.3,10.5,26.7,0,33.6v29.1C59.3,270.8,136.3,270.8,153.9,253.8z"/>
	<path style="clip-path:url(#SVGID_00000164485608705116047100000014503575269244984759_);fill:#FFFFFF;" d="M125.8,231.5
		c-2.9-10.8-2.9-22.2,0-33c-5.5,5.5-14.7,8.4-22,11c2.6-7.3,5.5-16.5,11-22c-10.8,2.9-22.2,2.9-33,0c5.5,5.5,8.1,14.7,11,22
		c-7.3-2.6-16.5-5.5-22-11c2.6,10.8,2.6,22.2,0,33c5.5-5.5,14.7-8.1,22-11c-2.9,7.3-5.5,16.5-11,22c10.8-2.6,22.2-2.6,33,0
		c-5.5-5.5-8.4-14.7-11-22C111.2,223.4,120.3,226,125.8,231.5z"/>
	<path style="clip-path:url(#SVGID_00000164485608705116047100000014503575269244984759_);fill:#FCC00D;" d="M133.7,214.5
		c2.9-4.2,3.7-11.3,3.7-17.6c0-22.6-17.3-39.1-39.3-39.1c-20.5,0-39.6,17-39.3,39.1c-0.5,6.3,1.8,13.1,3.7,17.6
		C62.4,163.4,133.7,163.4,133.7,214.5z"/>
	<path style="clip-path:url(#SVGID_00000164485608705116047100000014503575269244984759_);fill:#FFFFFF;" d="M80,99.6
		c-12.6,0-22.9,10.2-22.9,30.5c0,25.4,18.2,50.9,40.7,50.9s40.7-25.4,40.7-50.9c0-20.3-10.2-30.5-22.9-30.5
		c-6.9,0-13.5,3.1-17.8,8.5C93.5,102.8,86.9,99.6,80,99.6z"/>
	<path style="clip-path:url(#SVGID_00000164485608705116047100000014503575269244984759_);fill:#FFFFFF;" d="M30.4,112.8h134.7
		c3,0,5.5,2.4,5.5,5.5v44c0,3-2.4,5.5-5.5,5.5H30.4c-3,0-5.5-2.4-5.5-5.5v-44C25,115.3,27.4,112.8,30.4,112.8z"/>
	<g style="clip-path:url(#SVGID_00000164485608705116047100000014503575269244984759_);enable-background:new    ;">
		<text transform="matrix(1 0 0 1 29.85 136.25)" class="st9 st10 st11">Mińsk Mazowiecki</text>
	</g>
	<g style="clip-path:url(#SVGID_00000164485608705116047100000014503575269244984759_);enable-background:new    ;">
		<text transform="matrix(1 0 0 1 74.52 161.3199)" class="st9 st10 st12">Orša</text>
	</g>
	<path style="clip-path:url(#SVGID_00000164485608705116047100000014503575269244984759_);fill:#FCC00D;" d="M44.9-0.2h-29L0-0.2v16
		c0,7,0,14,0,21c10.3,12.3,28.7,13.9,41,3.6c6.6-5.5,10.4-13.7,10.4-22.3C51.4,11.4,49.1,5,44.9-0.2z"/>
	<g style="clip-path:url(#SVGID_00000164485608705116047100000014503575269244984759_);enable-background:new    ;">
		<text transform="matrix(1 0 0 1 15.53 31.55)" class="st13 st10 st14">32</text>
	</g>
</g>
</svg>
