<?xml version="1.0" encoding="utf-8"?>
<!-- Generator: Adobe Illustrator 26.0.1, SVG Export Plug-In . SVG Version: 6.00 Build 0)  -->
<svg version="1.1" id="Слой_1" xmlns="http://www.w3.org/2000/svg" xmlns:xlink="http://www.w3.org/1999/xlink" x="0px" y="0px"
	 viewBox="0 0 195.6 280.6" style="enable-background:new 0 0 195.6 280.6;" xml:space="preserve">
<style type="text/css">
	
		.st0{clip-path:url(#SVGID_00000026869391483308321680000002160868118942285476_);fill:#E94539;stroke:#FFFFFF;stroke-width:0.5;stroke-miterlimit:3.99;}
	.st1{clip-path:url(#SVGID_00000089550772784730813550000000173511066773606809_);fill:#FFFFFF;}
	.st2{clip-path:url(#SVGID_00000003824074536518140170000015464136729618096816_);}
	.st3{fill-rule:evenodd;clip-rule:evenodd;fill:#FFFFFF;stroke:#010101;stroke-width:0.35;}
	.st4{fill-rule:evenodd;clip-rule:evenodd;fill:#2390CF;stroke:#010101;stroke-width:0.35;}
	.st5{fill-rule:evenodd;clip-rule:evenodd;fill:#010101;}
	.st6{fill-rule:evenodd;clip-rule:evenodd;fill:#F4E725;stroke:#010101;stroke-width:0.4;}
	.st7{fill:#F4E725;}
	.st8{fill:none;stroke:#010101;stroke-width:0.4;}
	.st9{clip-path:url(#SVGID_00000100371449214177252880000006114072229857185974_);}
	.st10{fill:#E94539;stroke:#FFFFFF;stroke-width:0.5;stroke-miterlimit:3.99;}
	.st11{fill:none;stroke:#C51628;stroke-width:0.5;stroke-miterlimit:3.99;}
	.st12{clip-path:url(#SVGID_00000043437378749244671950000016937567627594420393_);fill:#FFFFFF;}
	.st13{clip-path:url(#SVGID_00000043419655872838886260000002490738185098438539_);fill:#FFFFFF;}
	.st14{clip-path:url(#SVGID_00000000199627874975407130000014842187014286883255_);fill:#2390CF;}
	.st15{enable-background:new    ;}
	.st16{fill:#E94539;}
	.st17{fill:#FFFFFF;}
</style>
<g>
	<g>
		<defs>
			<rect id="SVGID_1_" width="195.6" height="280.6"/>
		</defs>
		<clipPath id="SVGID_00000171684174422628084360000008125260213365802653_">
			<use xlink:href="#SVGID_1_"  style="overflow:visible;"/>
		</clipPath>
		
			<rect x="-6.6" y="-8.4" style="clip-path:url(#SVGID_00000171684174422628084360000008125260213365802653_);fill:#E94539;stroke:#FFFFFF;stroke-width:0.5;stroke-miterlimit:3.99;" width="214" height="297.9"/>
	</g>
	<g>
		<defs>
			<rect id="SVGID_00000070830870276840823590000014996990095314553999_" width="195.6" height="280.6"/>
		</defs>
		<clipPath id="SVGID_00000176738047837458318370000008259296368437110182_">
			<use xlink:href="#SVGID_00000070830870276840823590000014996990095314553999_"  style="overflow:visible;"/>
		</clipPath>
		<path style="clip-path:url(#SVGID_00000176738047837458318370000008259296368437110182_);fill:#FFFFFF;" d="M40.1,101.5
			c0,0.1,0,0.2,0,0.3v0.2c0,0.7,0.1,1.4,0.2,2.1c0,0,0,0,0,0.1c0.1,0.8,0.2,1.6,0.3,2.4l0.1,0.7c0.1,0.6,0.2,1.1,0.3,1.7
			c0.1,0.3,0.1,0.6,0.2,0.9s0.1,0.6,0.2,0.8l0,0v0.1l0,0l0.2,0.5c0.1,0.4,0.2,0.7,0.3,1.1s0.3,0.9,0.4,1.3s0.2,0.7,0.4,1.1
			s0.3,0.8,0.5,1.2s0.3,0.7,0.4,1.1l0.5,1.2c0.2,0.4,0.3,0.7,0.5,1.1L45,120l0,0l0,0l0,0c0.1,0.2,0.2,0.3,0.2,0.4
			c0.3,0.5,0.5,1,0.8,1.6c0.1,0.2,0.2,0.5,0.4,0.7l0,0c0,0,0,0,0,0.1l0,0l0.1,0.2c0.4,0.6,0.7,1.2,1.1,1.8c0.1,0.2,0.2,0.3,0.3,0.5
			c0.5,0.7,1,1.5,1.5,2.2l0.6,0.7c0.4,0.5,0.7,0.9,1.1,1.4c0.2,0.3,0.5,0.6,0.7,0.8s0.7,0.8,1.1,1.2c0.1,0.1,0.2,0.3,0.4,0.4
			l0.7,0.7l0.4,0.4c0.6,0.6,1.1,1.1,1.7,1.6l0,0l0.1,0.1l0,0c0.6,0.5,1.1,1,1.7,1.4l0.4,0.4c0.5,0.4,0.9,0.7,1.4,1.1l0.6,0.5
			c0.4,0.3,0.9,0.6,1.3,0.9l0.7,0.5l0.4,0.3l0,0c0.5,0.3,0.9,0.6,1.4,0.9l0.1,0.1c0.7,0.4,1.4,0.8,2.1,1.2l0.3,0.2
			c0.6,0.3,1.2,0.6,1.8,0.9l0.6,0.3l1.6,0.8l0.6,0.3c0.7,0.3,1.5,0.6,2.2,0.9l0.3,0.1c0.7,0.2,1.3,0.5,2,0.7l0.8,0.3l0.8,0.3l0,0
			l0.2,0.1l0,0l0.5,0.1c0.5,0.2,1,0.3,1.5,0.4l1.2,0.3c0.5,0.1,1.1,0.3,1.6,0.4l1.1,0.2c0.6,0.1,1.2,0.2,1.8,0.4l1,0.2
			c0.7,0.1,1.3,0.2,2,0.3l0.7,0.1l0,0c3,0.4,6,0.6,9,0.6c2.9,0,5.8-0.2,8.7-0.6h0.1l0.8-0.1c0.7-0.1,1.3-0.2,2-0.3l1-0.2
			c0.6-0.1,1.2-0.2,1.7-0.4l1.1-0.3c0.5-0.1,1.1-0.3,1.6-0.4s0.8-0.2,1.2-0.4l1.2-0.4l0,0l0.2-0.1l0,0l0.1-0.1
			c1.1-0.4,2.2-0.8,3.2-1.2l0.7-0.3c0.8-0.3,1.6-0.7,2.4-1.1l0.9-0.4c0.9-0.4,1.8-0.9,2.6-1.3l0.4-0.2c1-0.6,1.9-1.1,2.9-1.7
			l0.2-0.1l1.1-0.7l0.7-0.5c0.7-0.5,1.4-1,2-1.4c0.2-0.1,0.4-0.3,0.5-0.4c0.5-0.4,1-0.8,1.4-1.1l0.7-0.6l0.8-0.7l0,0
			c0,0,0-0.1,0.1-0.1l0,0l0.4-0.3l0.5-0.4l0.2-0.2l0.3-0.3c0.7-0.6,1.3-1.3,1.9-1.9c0.2-0.2,0.4-0.4,0.6-0.6
			c0.6-0.7,1.2-1.4,1.8-2.1c0.1-0.1,0.2-0.2,0.3-0.4c0.7-0.8,1.3-1.7,1.9-2.5l0.5-0.8c0.4-0.6,0.9-1.3,1.3-1.9l0.3-0.5l0,0v-0.1h0.4
			V122v-0.1c0.5-0.8,1-1.7,1.4-2.6l0.1-0.2c0.4-0.8,0.8-1.6,1.1-2.4l0.3-0.8c0.3-0.6,0.5-1.3,0.8-1.9c0.1-0.3,0.2-0.6,0.3-0.9
			c0.2-0.6,0.4-1.2,0.6-1.9c0.1-0.2,0.1-0.3,0.2-0.5l0,0v-0.1l0,0c0.1-0.1,0.1-0.3,0.1-0.4c0.2-0.6,0.3-1.2,0.5-1.8
			c0.1-0.3,0.2-0.6,0.2-1c0.1-0.6,0.3-1.3,0.4-2c0-0.3,0.1-0.6,0.2-0.9c0.1-0.8,0.2-1.6,0.3-2.4c0-0.2,0.1-0.3,0.1-0.5
			c0.1-1,0.2-1.9,0.2-2.9v-0.1l0,0v-0.1l0,0v-0.1c0-0.8,0.1-1.6,0.1-2.4l-0.1-84H39.9L40.1,101.5z"/>
	</g>
	<g>
		<defs>
			<rect id="SVGID_00000052091109413748649520000011541187380488862644_" width="195.6" height="280.6"/>
		</defs>
		<clipPath id="SVGID_00000140704066004677358900000011903456221529334443_">
			<use xlink:href="#SVGID_00000052091109413748649520000011541187380488862644_"  style="overflow:visible;"/>
		</clipPath>
		<g id="Слой_1-2" style="clip-path:url(#SVGID_00000140704066004677358900000011903456221529334443_);">
			<path id="path10" class="st3" d="M97.8,266.5c23.1,0,43.5-3,56.9-7.7V232c-7.7-7.5-7.9-19.9-0.4-27.6c0.1-0.1,0.3-0.3,0.4-0.4
				c0-22.5-7.6-39-21.1-51.6c-11-10.3-27.1-14.6-35.8-25.6c-8.8,11-24.9,15.3-35.8,25.6C48.5,165,40.9,181.5,40.9,204
				c7.7,7.5,7.9,19.9,0.4,27.6c-0.1,0.1-0.3,0.3-0.4,0.4v26.9C54.3,263.5,74.7,266.5,97.8,266.5z"/>
			<path id="path12" class="st4" d="M97.8,262.9c22.2,0,41.7-2.9,53.5-7.3v-21.7c-8.3-8.9-8.3-22.8,0-31.7
				c-0.4-20.4-7.4-36.1-20.6-47.5c-10.2-8.9-25.7-13.8-32.9-22.6c-7.3,8.8-22.7,13.8-32.9,22.6c-13.1,11.4-20.1,27.2-20.6,47.5
				c8.3,8.9,8.3,22.8,0,31.7v21.7C56.1,260,75.6,262.9,97.8,262.9z"/>
			<polygon id="polygon14" class="st3" points="119.6,247.5 124.2,247.5 125.5,249.1 125.5,243.9 121.3,243.9 121.3,240.1 
				125.5,240.1 125.5,237.6 121.3,237.6 121.3,233.8 125.5,233.8 125.5,229.1 128.2,229.1 128.2,233.8 132.4,233.8 132.4,237.6 
				128.2,237.6 128.2,240.1 132.4,240.1 132.4,243.9 128.2,243.9 128.2,249.1 129.5,247.5 134.1,247.5 126.8,256.5 			"/>
			<path id="path16" class="st5" d="M131.6,163.1c-0.5,1.2-1.7,1.9-2.9,1.6l0.1-1.8C129.6,163.3,130.6,163.4,131.6,163.1z"/>
			<path id="path18" class="st5" d="M130.3,166.2c-0.7,1-2.1,1.4-3.2,0.9l0.5-1.8C128.4,166,129.3,166.3,130.3,166.2z"/>
			<path id="path20" class="st5" d="M123.6,156.5c0.4,1.2-0.1,2.5-1.2,3.1l-1.1-1.5C122.2,157.9,123,157.3,123.6,156.5z"/>
			<path id="path22" class="st5" d="M112,155.7c-1.2,0.4-1.9,1.7-1.7,2.9l1.8-0.1C111.8,157.7,111.7,156.7,112,155.7z"/>
			<path id="path24" class="st5" d="M70.6,156.9c0,1.3,0.8,2.4,2.1,2.6l0.6-1.7C72.3,157.9,71.3,157.6,70.6,156.9z"/>
			<path id="path26" class="st5" d="M92,160.2c-0.3,1.2-1.4,2.1-2.7,2l-0.2-1.8C90.1,160.7,91.1,160.6,92,160.2z"/>
			<path id="path28" class="st5" d="M91.6,156.7c-0.1,1.3-1.1,2.3-2.3,2.4l-0.5-1.8C89.7,157.5,90.7,157.3,91.6,156.7z"/>
			<path id="path30" class="st5" d="M87.4,153c0.5,1.2,0.1,2.5-1,3.2l-1.2-1.4C86.1,154.5,86.9,153.9,87.4,153z"/>
			<path id="path32" class="st5" d="M125,214.4c-1.2,0.3-2.5-0.4-3-1.6l1.6-0.9C123.7,212.9,124.2,213.8,125,214.4z"/>
			<path id="path34" class="st5" d="M130.1,207.8c-0.7,1-2.1,1.3-3.2,0.8l0.6-1.8C128.2,207.5,129.2,207.8,130.1,207.8z"/>
			<path id="path36" class="st5" d="M127.8,201c0,1.3-0.9,2.4-2.2,2.6l-0.6-1.8C126.1,201.9,127.1,201.6,127.8,201z"/>
			<path id="path38" class="st5" d="M120.6,199c-1.3-0.2-2.5,0.6-2.8,1.8l1.7,0.8C119.5,200.6,119.9,199.7,120.6,199z"/>
			<path id="path40" class="st6" d="M105.9,239.8c-1.7-2.3-5.2-2.1-8.9-2.1c-1.8,0.1-3.6,0-5.3-0.3c1.3-0.1,3.4-0.3,5.6-0.6
				C101.2,236.4,105.9,235.3,105.9,239.8z"/>
			<path id="path42" class="st7" d="M130.5,225.1c-0.1,0.3-0.3,0.5-0.6,0.6c-0.5,0.1-1.1,0.2-1.6,0.3v0.1c0.6,0,1.1,0,1.7,0h0.4
				c0.4,0,0.8,0.3,0.9,0.7c0.1,0.3,0.1,0.6,0,0.8c-0.2,0.4-0.5,0.6-0.9,0.6h-0.8l-1-0.1l0.5,0.1c0.5,0.2,0.8,0.6,0.9,1.1
				c0,0.2,0,0.4,0,0.6c0,0.2-0.1,0.3-0.2,0.5c-0.2,0.2-0.5,0.4-0.9,0.3c-0.8-0.1-1.5-0.2-2.3-0.2s-1.5,0-2.3,0.1
				c-0.5,0.2-1,0.3-1.5,0.4c-0.4,0-0.9-0.1-1.2-0.4c-0.4-0.3-0.7-0.7-0.8-1.1c-0.3-0.7-0.4-1.4-0.4-2.1c-2.5,0.6-5,0.9-7.5,0.7
				c-2.4-0.2-4.8-0.9-6.9-2c-1.2,1.3-2.8,2.2-4.4,2.7c-0.2,0.4-0.4,0.9-0.6,1.3c-0.2,0.4-0.5,0.7-0.8,1.1c-1.5,1.6-3.8,2.3-6.5,2
				h-0.1c-0.4,0-0.8,0.2-1,0.5s-0.4,0.6-0.4,1c1.4-0.6,2.8-1,4.3-1c1.1,0.1,1.7,0.8,1.5,2.2l0,0l0,0l0,0l0,0c0,0-0.1,0.1-0.2,0.1
				l-0.2,0.1c-0.4,0.2-0.8,0.4-1.2,0.4h-0.1v-0.1c0.1-0.5-0.2-0.8-0.7-0.9c-1,0-2.1,0.1-3.1,0.3l-0.8,0.1c-0.3,1,0.3,2.1,1.3,2.4
				c1.2,0.3,2.5,0.4,3.8,0.3h0.1h0.9c0.7-0.1,1.5,0,2.2,0.1l0,0c0.5,0.2,0.8,0.6,0.5,1.3l0,0v0.1l0,0c-0.2,0.4-0.2,0.9,0,1.4l0,0
				l0.2,0.2l0,0c0,0.1,0.1,0.2,0.1,0.2c0.2,0.4,0.1,1-0.3,1.3l0,0l0,0c-0.1,0.1-0.3,0.2-0.4,0.3c-0.2,0.1-0.3,0.2-0.5,0.3
				c-1,0.4-2,0.6-3.1,0.6h0.1c-0.7,1.6-2.1,2.7-3.8,3c-2,0.3-4.1,0.3-6.1-0.1c-0.2,0.2-0.4,0.5-0.5,0.8c-0.2,0.3-0.3,0.7-0.4,1v0.1
				l-0.1-0.1c-0.4-0.3-0.6-0.6-0.8-1.1c-0.2-0.4-0.3-0.8-0.3-1.2c-0.2,0-0.4,0.1-0.6,0.2c-0.2,0.1-0.4,0.4-0.5,0.6v0.1l-0.1-0.1
				c-0.3-0.2-0.5-0.5-0.7-0.8l0,0c-0.1-0.3-0.2-0.6-0.3-0.9c-0.1,0-0.2-0.1-0.3-0.1c-0.1-0.1-0.2-0.1-0.3-0.2l0,0
				c-0.8-0.5-1.3-1.3-1.3-2.2l0,0c-0.6-0.7-0.9-1.5-0.8-2.4h0.1c-0.7-0.7-0.9-1.8-0.6-2.8c-0.3-0.6-0.5-1.2-0.6-1.9v-0.2V236H79
				c0.2,0,0.3,0.1,0.5,0.2c-0.1-0.3-0.1-0.6-0.1-0.9c0-0.8,0.1-1.7,0.4-2.5c0.1-0.2,0.2-0.5,0.3-0.8l0,0c0.6-1.5,1.1-3.1,1.4-4.7
				v-0.2l0.1,0.2c0.5,0.9,1.1,1.6,1.8,2.3v-0.3c-0.2-2.2-0.4-4.3,1.2-6.1c0.7-0.7,1.2-1.6,1.5-2.6c0.3-1.1,0.4-2.2,0.2-3.2v-0.1
				l0.1,0.1c0.4,0.1,0.7,0.4,1,0.6c0.3,0.3,0.6,0.7,0.9,1.2c0.2-0.4,0.3-0.8,0.3-1.3s0-1,0-1.4v-0.1l0,0c0-1.6,0.1-3.3,0.3-5
				s0.3-3.5,0.5-5.3c-0.6-1-1.1-2.1-1.6-3.2c-0.4-1.1-0.7-2.2-1-3.4c-0.7-2.9-1.8-5.5-3.1-6.8c-0.2-0.2-0.5-0.4-0.8-0.6
				c-0.2-0.1-0.5-0.2-0.8-0.2l0,0c-0.2,0-0.4,0-0.7,0.1c-0.8,0.2-1.4,0.7-1.7,1.4c-0.3,0.8-0.5,1.7-0.5,2.6c0,1.2,0.1,2.4,0.3,3.5
				c0.4,1.8,0.9,3.6,1.6,5.3c1.1,2.7,1.7,5.6,1.9,8.5c0,2.3-0.6,5.4-2.4,7.1c-0.4,0.3-0.8,0.6-1.2,0.8c-0.5,0.2-1,0.3-1.5,0.4h-0.1
				c-1.9,0.2-3.7-0.7-4.5-2.4c-0.8-1.5-1.3-3.2-1.5-4.9c-0.8-0.3-1.4-0.9-1.7-1.6c-0.1-0.2-0.1-0.3-0.2-0.5s-0.1-0.4-0.1-0.6l0,0
				c-0.2-1,0.2-2,0.9-2.7c0.1-0.1,0.3-0.2,0.4-0.3h0.1c0-0.8,0-1.6-0.1-2.4c0-0.1,0-0.3-0.1-0.4c0-0.1,0-0.3-0.1-0.4l0,0v-0.2
				l0.2,0.1c0.4,0.3,0.8,0.7,1,1.2s0.4,1,0.6,1.6c1,0.1,1.8,0.8,2.3,1.7c0.1,0.2,0.2,0.4,0.2,0.6c0.1,0.2,0.1,0.4,0.1,0.7l0,0l0,0
				c0.1,1-0.2,2-0.8,2.7c-0.1,0.1-0.2,0.2-0.4,0.3l0,0c-0.1,0.1-0.2,0.2-0.4,0.2c0.2,0.6,0.3,1.2,0.5,1.8c0,0.1,0.1,0.2,0.1,0.3
				l0.1,0.3l0,0c0.2,0.5,0.6,0.9,1,1.3c0.3,0.2,0.7,0.4,1.1,0.4s0.8,0,1.1-0.1c0.5-0.2,0.9-0.6,1.3-1c2.4-3.3,0.7-8.3-0.9-13.2
				l-0.1-0.2l-0.4-1.2c-1-2.9-2.2-6.4-1.3-9.2l0,0c0.2-0.9,0.7-1.8,1.3-2.5c0.7-0.7,1.7-1.2,2.7-1.5c1-0.2,2.1-0.2,3.1,0.1
				s1.9,0.9,2.6,1.6l0.2-0.5c0.4-1.1,0.8-2.3,1.2-3.4c0.8-3.1,0.7-6-3.2-7.1c-1.6-0.4-3.1-0.9-4.5-1.6c-1.2-0.6-2.3-1.4-3.1-2.4
				l-0.1-0.2l0.2,0.1c0.8,0.2,1.6,0.3,2.4,0.3c0.6,0.1,1.3,0.1,1.9,0c-0.7-0.2-1.4-0.6-2-1c-0.8-0.6-1.3-1.3-1.6-2.2V173l0.2,0.1
				c0.8,0.3,1.7,0.5,2.5,0.5c-0.9-2.1-1.6-4.2-2.1-6.4c-0.5-2.1-0.8-4.3-0.8-6.5H77c-0.7,0.3-1.4,0.5-2.2,0.5
				c-0.9,0-1.7-0.4-2.2-1.1c-0.1-0.1-0.2-0.3-0.2-0.5s-0.1-0.4-0.1-0.6l0,0l0,0l0,0c0-0.1,0-0.2,0-0.2c0.1-0.6,0.5-1.1,0.9-1.4
				c0.4-0.4,0.9-0.6,1.5-0.7h0.2c0.8,0.2,1.5,0.6,2.1,1.1c0.1,0.1,0.2,0.2,0.3,0.3l0.2,0.2c0.8-1.3,1.8-2.4,3-3.3
				c1.3-0.9,2.9-1.2,4.4-0.7c0.7,0.1,1.3,0.4,1.8,1c0.2,0.3,0.3,0.6,0.3,0.9c0,0.2,0,0.4-0.1,0.6c0.9-0.3,1.9-0.1,2.6,0.5
				c0.2,0.2,0.4,0.5,0.5,0.7c0.1,0.3,0.2,0.6,0.2,0.8c0,0.3-0.2,0.6-0.4,0.8l0,0c0.3,0.5,0.4,1,0.4,1.5c0,0.4-0.2,0.8-0.5,1.1l0,0
				c-0.3,0.3-0.8,0.5-1.2,0.6c-0.9,0.1-1.8,0.1-2.7-0.3l-0.8-0.3c-1.7-0.6-3.6-1.2-5.3-1.7c0.8,3,2,5.9,3.7,8.6
				c1.5,2.3,3.5,4.1,5.9,5.3c0.1-0.7,0.4-1.4,1-1.8c0.1-0.1,0.3-0.2,0.4-0.3s0.3-0.2,0.4-0.3l0,0H91l0.2-0.1v0.2
				c-0.2,1-0.2,2.1,0,3.1c0.8-1.9,1.8-2.8,3-2.9h0.1l-0.1,0.1c-0.6,1.2-1,2.5-1.2,3.8c-0.1,1.3,0.3,2.6,1.2,3.6
				c2.2,2.3,3.9,5.2,4.8,8.3c0.1,0.4,0.2,0.9,0.3,1.3c0.8-0.3,1.6-0.4,2.4-0.5c0.8,0,1.6,0,2.4,0.1l0,0c0.2,0,0.4,0,0.6,0
				s0.4,0,0.6,0c0.8-0.1,1.5-0.5,2-1.2c1.4-2,0.8-3.7,0.2-5.7l0,0l0,0l0,0c-0.4-1.2-0.6-2.5-0.8-3.7c-0.2-1.2-0.3-2.5-0.3-3.7
				c-1.1-0.5-2-1.4-2.4-2.6c-0.4-1.2-0.5-2.5-0.3-3.8v-0.2l0.1,0.2c0.3,0.5,0.7,1,1.1,1.4c0.3,0.3,0.7,0.6,1.1,0.8l-0.2-0.3
				c-0.1-0.2-0.2-0.4-0.3-0.6c-0.4-1.1-0.4-2.4-0.1-3.5l0.1-0.2l0.1,0.2c0.3,0.6,0.6,1.1,0.9,1.6c0.5-0.2,1-0.3,1.5-0.4h0.3h0.3
				c0.6-0.8,1.3-1.5,1.9-2.1s1.2-1.2,1.8-1.8c-0.9-0.4-1.7-1.1-2.3-2c-0.1-0.1-0.1-0.3-0.2-0.5s-0.1-0.3-0.1-0.5l0,0
				c-0.1-0.6,0-1.2,0.3-1.7c0.2-0.4,0.5-0.7,0.9-0.9s0.8-0.2,1.2-0.2c0.6,0.1,1.1,0.4,1.5,0.8c0.7,0.7,1,1.7,1.1,2.6
				c0,0.2,0,0.3,0,0.5c0,0.1,0,0.1,0,0.2c0.8-0.9,1.6-1.7,2.4-2.4s1.6-1.3,2.6-1.6l0,0c0.7-0.3,1.5-0.3,2.3,0l0,0
				c0.1,0.1,0.2,0.1,0.3,0.2l0,0c0.1,0.1,0.2,0.1,0.2,0.2l0,0c0.7,0.7,0.7,1.9,0,2.6c-0.4,0.4-0.8,0.7-1.3,1
				c1.2-0.2,2.5-0.3,3.7-0.3h1.7c0.2,0,0.3,0,0.4,0l0,0c0.6,0,1.2,0.3,1.7,0.7c0.4,0.3,0.6,0.8,0.6,1.4c0,0.1,0,0.1,0,0.2l0,0
				c0,0.1,0,0.2-0.1,0.3c-0.1,0.6-0.5,1.1-1.1,1.4h0.1c-0.2,0.7-0.6,1.3-1.2,1.9c-0.5,0.5-1.2,0.9-1.9,1.2c-0.8,0.3-1.6,0.3-2.4,0.1
				c-0.9-0.3-1.7-0.8-2.4-1.5l-1.2-1c-0.4-0.3-0.7-0.6-1-0.8l0,0c-0.5-0.5-1.2-0.8-1.8-1c-0.7-0.1-1.4,0.2-1.8,0.8l0,0
				c-0.7,0.6-1.3,1.2-1.9,1.9c-0.7,0.7-1.2,1.5-1.7,2.4c-0.9,2.2-1.3,4.6-1.1,7c0.2,2.2,1.3,4.3,2.9,5.7c0.7-1.3,2-2.3,3.5-2.5
				c0.3,0,0.6,0,0.8,0c0.3,0.1,0.6,0.1,0.8,0.3l0,0l0.1,0.1l-0.1,0.1l-0.5,0.4c-1.4,0.8-2.5,2.1-2.9,3.6c0.6-0.6,1.3-1,2-1.3
				s1.5-0.2,2.1,0.2l0.1,0.1l-0.1,0.1c-1.3,0.8-2.3,2-2.8,3.4c-0.1,0.3-0.2,0.6-0.2,0.9c0,0.3,0,0.6,0,0.9l0,0c0,0.3,0,0.7,0.1,1
				c0.1,1.9,0.3,3.8-1.5,5.2c-1,0.7-2.3,1.1-3.5,0.9c-1.4-0.1-2.7-0.4-4-0.8l-0.4-0.1c-1-0.3-2-0.7-2.7,0.7c-0.5,0.9-1,1.7-1.6,2.6
				c-0.5,0.8-1.1,1.5-1.7,2.2c1.6,2.3,3,4.7,4,7.3c0.4,0.4,0.7,0.9,1,1.5c0.5,0.9,0.8,2,0.7,3c0.3,0.1,0.6,0.2,0.9,0.3l0,0
				c0.2,0,0.5,0.1,0.7,0.1c-0.5-0.6-1-1.3-1.3-2s-0.5-1.5-0.5-2.4v-0.1l0.1,0.1c3.6,1.6,8.4-0.2,10.6-1.1l0,0l0.3-0.1
				c0-0.1,0-0.3,0-0.4c-0.1-1-0.2-2.1-0.1-3.1c0.1-1.6,0.6-3,2.2-2.9c0.1,0,0.2,0,0.2,0.1c0.4,0.1,0.7,0.5,0.8,0.9
				c0.1,0.5,0.2,1,0.1,1.5c0,0.4-0.1,0.8-0.2,1.2c0.8-0.8,1.8-1.5,2.8-2.1c0.5-0.3,1.1-0.5,1.7-0.5c0.5,0,1.1,0.2,1.5,0.6
				c0.2,0.2,0.3,0.4,0.5,0.6c0.1,0.2,0.2,0.5,0.3,0.8l0,0c0.1,0.6-0.2,1.3-0.8,1.6c-0.6,0.4-1.3,0.7-2.1,0.9h-0.2h1
				c0.8,0,1.6-0.1,2.1,0l0,0c0.6,0,1.1,0.4,1.3,0.9c0.1,0.3,0.1,0.5,0.1,0.8s-0.1,0.5-0.2,0.8c-0.3,0.7-0.9,1.1-1.7,1.1
				c-1.1,0-2.1,0-3.2-0.2c-0.5-0.1-1-0.1-1.5-0.2c1,0.3,1.9,0.9,2.6,1.7l0,0c0.3,0.4,0.4,1,0.3,1.5c-0.1,0.4-0.3,0.7-0.6,0.9
				c-0.3,0.3-0.6,0.5-0.9,0.6c-0.6,0.2-1.2,0.1-1.7-0.2c-1-0.7-1.9-1.7-2.5-2.9c-0.1-0.2-0.3-0.5-0.4-0.8s-0.2-0.5-0.4-0.8
				c-2.8,1.2-5.3,2.8-7.6,4.8c-1.7,1.5-3,3.5-3.6,5.7l0,0c0,0.4-0.1,0.7-0.1,1l0.2-0.2c0.6-0.4,1.1-0.9,1.5-1.5l0.1-0.2v0.3
				c0,0.6,0,1.1,0,1.6c0.4,0.3,0.8,0.5,1.3,0.8c0.5,0.2,1,0.5,1.5,0.7c2.9,1.3,6.2,1.7,9.4,1.1c0.6-0.1,1.2-0.4,1.7-0.7l0,0
				c0.4-0.3,0.9-0.5,1.4-0.7l0,0c0.1,0,0.2-0.1,0.3-0.1c0.1,0,0.2,0,0.3,0c0.6-0.1,1.1,0.2,1.5,0.6l0,0h0.4c0.5-0.1,1.1-0.1,1.6-0.2
				l0,0c0.4-0.1,0.8,0.1,1.1,0.4l0,0c0.1,0.1,0.1,0.2,0.2,0.4l0,0c0,0.1,0,0.3,0,0.4l0,0c-0.1,0.3-0.4,0.5-0.7,0.5l-0.4,0.1v0.1
				c0.6-0.1,1.1-0.1,1.7-0.1c0.3,0,0.6,0.1,0.8,0.4c0.1,0.1,0.2,0.3,0.2,0.4c0,0.2,0,0.3,0,0.5L130.5,225.1z"/>
			<path id="path44" class="st8" d="M118.5,162.5c2,0.4,5.9-1.9,3.9-4.1c-0.8-0.7-1.8-0.8-2.8-0.4c-1.7,0.6-3.4,2.3-5.2,4.2
				c0.3-1.3-0.1-2.6-1-3.6c-1.8-1.8-4.1-0.6-3.8,1.9c0.1,1.1,1,2.1,2.7,3c-1.4,1.2-2.7,2.6-3.8,4c-0.7-0.1-1.5,0-2.1,0.4
				 M99.2,189.7c1.5-0.5,3.2-0.6,4.7-0.3c1.2,0.3,2.5-0.2,3.3-1.2c1.4-2,0.8-3.8,0.2-5.8c-0.7-2.4-1.1-4.9-1.2-7.5
				c-2.5-1.2-3-3.5-2.7-6.3c0.6,1,1.5,1.8,2.5,2.4c-0.9-1.4-1.2-3.1-0.7-4.7c0.5,1.1,1.2,2.1,2.2,2.9 M118.9,164
				c2.2,0.4,4.3,1.4,6.1,1.8s4.1,0.4,4.3-1.8c0.1-1.2-0.9-2.1-2.6-2.2c-2,0-4.1,0.1-6.1,0.4 M99.9,200.2c1.2-1.5,2.3-3.1,3.2-4.8
				c0.9-1.6,2.1-0.9,3.2-0.6c2.5,0.8,5.6,1.4,7.4-0.1c2.1-1.7,1.5-3.9,1.4-6.1c0-2.2,1.2-4.3,3.1-5.3c-1.3-0.8-2.7-0.1-4.2,1.3
				c0.7-2.6,2.2-3.3,3.6-4.3c-1.8-0.9-4.1,0.3-5.1,2.2c-3.8-3.4-3.7-8-1.9-12.9c1-1.6,2.2-3.1,3.7-4.3c1.2-1.4,2.5-0.8,3.8,0.2
				c0.7,0.5,1.4,1,2.2,1.7c1.6,1.9,4.5,2.1,6.4,0.5c0.6-0.5,1.1-1.3,1.4-2.1 M92.1,229.5c0.2-2.7-1.2-3.5-1.7-6.1
				c-1.9,2.4-4,5.4-3.3,8.5c0.3,1,0.5,2.1,0.3,3.2c-0.4-1.1-1.5-1.9-2.7-2c-0.9-0.1-1.7-0.5-2.4-1.1c-0.2,1.2-0.1,2.4,0.4,3.4
				c0.6,1,1,2.1,1.3,3.3 M90.2,223.7c0.3-3.5-0.3-5.7-2-6.7c0.1,1-0.1,2-0.4,2.9c-0.4-0.8-1.1-1.5-1.9-1.9c0.4,2.1-0.2,4.3-1.7,5.9
				c-1.6,1.8-1.3,4.2-1.1,6.5c-0.8-0.7-1.5-1.5-2-2.4c-0.4,1.9-1,3.7-1.8,5.5c-0.7,1.5-0.6,3.3,0.4,4.7 M104.3,216.4
				c3.5-5.9,0.3-9.8-5.7-12.8c0.9,5.2,0.8,9.9-2.7,13.1c-1-1.5-2.2-2.7-4.3-2.7c1.2,1.9,1.2,4.3,0.2,6.3 M95,228.2
				c-0.1-1.5,0.2-3,0.9-4.4c-2.2,0.4-3,2-4.6,2.4 M94.7,230.8c3.3,0,5.5-1.1,6.8-3.3c-1.6,0.2-3.2,0-4.7-0.5
				c4.2-1.5,8.1-2.9,9.5-6.3c-3.1,1-4.8-0.7-7.4,1.9 M104,207.6c-1.4-3.9-4-7.4-6.2-10.4c3.1-6.2,1.1-11.8-3.7-17.2
				c-2.1-2.3-1.3-4.9-0.1-7.5c-1.2,0-2.2,1-3,3.1c-0.2-1.1-0.2-2.3,0-3.4c-1.1,0.4-1.8,1.4-1.9,2.5c-4.9-2.4-8-7.3-9.8-14.1
				c2.1,0.6,4.2,1.4,6.2,2c2.9,1,5.3-0.3,3.9-2.9 M80.1,159.5c2.7,1.2,5.7,1.4,8.6,0.7c2.6-0.9,0.5-4.3-2.2-3.2 M79.6,158.2
				c1.6,0.2,3.3,0.2,4.9,0c2.8-0.5,3-3.4,0.3-3.9c-3.7-0.8-5.5,1.4-7.5,4.1c-0.7-0.8-1.6-1.5-2.7-1.8c-1-0.2-2.5,1.2-2.5,2.3
				c0,1.2,1,2.2,2.2,2.2c0.1,0,0.1,0,0.2,0c0.8,0,1.6-0.2,2.4-0.6c-0.1,4.5,1.1,8.8,2.9,13.1c-0.9,0-1.8-0.1-2.7-0.5
				c0.7,1.7,2.1,2.9,3.9,3.2c-1.6,0.2-3.2,0.1-4.7-0.2c1.5,2,4.2,3.1,7.6,4c5.8,1.5,3.5,7,1.9,11.3c-3.2-3.3-8.5-2.3-9.9,2.1
				c-1,3.2,0.7,7.2,1.7,10.4c1.7,5,3.4,10.1,0.9,13.5c-0.7,1.2-2.2,1.6-3.4,0.9c-0.5-0.3-0.9-0.8-1.1-1.4c-0.3-0.8-0.6-1.6-0.8-2.5
				c1.2-0.6,1.8-1.9,1.6-3.2c-0.1-1.5-1.2-2.7-2.6-2.9c-0.2-1.1-0.7-2.1-1.5-2.8c0.3,1.1,0.4,2.2,0.3,3.4 M71.3,208.8
				c-1.3,0.4-2,1.7-1.8,3c0.1,1.2,0.9,2.2,2,2.7c0.5,3.2,1.6,7.6,5.7,7.4s5.3-4.9,5.2-8.2c-0.1-5-2.5-9-3.5-13.8
				c-0.4-2.1-0.9-7.9,2.7-7.7c2,0.1,3.8,3.6,4.8,7.6c0.5,2.4,1.4,4.6,2.6,6.7c-0.4,3.5-0.7,7-0.8,10.6 M106,220.8
				c0.9-0.4,1.6-1.1,2.1-1.9c0.1,4.4-1.4,8.1-6.7,9.8c-1.3,3.4-4.1,4.7-7.9,4.4c-1,0-1.7,0.8-1.7,1.8c3.7-1.4,6.1-1.6,5.9,1.1
				c-0.4,0.4-1,0.6-1.5,0.6c0.3-1.6-2.4-0.9-4.6-0.4c-0.2,2.7,2.2,2.8,5.2,2.8c2.1,0,4.2-0.4,3.7,1.3c-0.2,0.6-0.4,1.1,0,1.6
				s0.6,1.2,0,1.7c-1.2,0.9-2.7,1.3-4.2,1.2c-2.4-0.1-4.7-1.3-6.2-3.2 M96.3,244.7c-1.4,3.3-5.3,3.6-9.9,2.8
				c-0.4,0.5-0.8,1.1-0.9,1.8c-0.7-0.6-1.1-1.4-1.1-2.3c-0.5,0.1-1,0.4-1.2,0.9c-0.5-0.4-0.9-1-0.9-1.7c-1.1-0.4-1.8-1.3-1.9-2.5
				 M81.9,244.6c-1.5-0.3-2.6-1.7-2.5-3.2 M81.5,242.6c-1.8-0.7-3.1-2.1-2.5-3.9 M85.4,243.9c-2.1-1.2-4.1-2.7-5.9-4.4
				c-0.7-0.9-1.1-1.9-1.3-2.9c0.3,0,0.7,0.1,0.9,0.3 M105.7,212.4c1.1,2,0.9,6.7,0.6,8.4 M119.8,205.8c1.5,0.1,7.9-0.4,6.3-3.5
				c-1.4-2.8-5.1,0.3-6.5,1.6c0.3-1,0.6-3.8-0.8-3.9c-2.8-0.2-2.1,4.6-1.9,6.4c-2.1,0.8-7.2,2.9-11,1.2c0,1.7,0.7,3.3,1.9,4.5
				c-0.6,0-1.3-0.2-1.9-0.4 M119.8,208.5c2.1,0.4,4.2,0.7,6.4,0.7c2.1,0,2.5-3.4,0.5-3.5c-0.9-0.1-2.9,0.1-4,0 M106.4,219.5
				c1-4.2,4.9-7.7,11.3-10.6c0.7,1.8,1.8,3.3,3.3,4.4c1.7,1.1,4-1,2.9-2.7c-0.6-0.9-2-1.4-3.1-1.9 M124.4,225.4
				c0.8,0.9,0.9,2.2,0.2,3.2c1.4-0.6,3-0.7,4.5-0.2c1.2,0.5,1.2,2.4-0.1,2.2c-1.5-0.2-3.1-0.2-4.6-0.1c-2.3,1-3.9-0.2-3.9-3.2
				c-5.3,1.4-10.2,1.1-14.5-1.3 M110.6,223.5c-1.1-0.2-2.1-1-2.6-2 M108.1,220.5c2.8,1.9,7.9,3.6,12.2,2.6c1.2-0.3,1.9-1,3.1-1.4
				c0.7-0.3,1.6-0.1,2.1,0.4 M126.5,223.9c-1.7,0.2-1.6-1.5-0.9-1.6c0.5-0.1,1.4-0.2,2-0.2c1.2-0.1,1.7,1.3,0.6,1.6
				C127.7,223.7,127.1,223.8,126.5,223.9L126.5,223.9z M129.9,225.6c0.5-0.2,0.7-0.7,0.5-1.2c-0.2-0.4-0.5-0.6-0.9-0.6
				c-0.9,0-1.9,0.1-2.8,0.2c-1.3,0.2-0.8,1.8,0.4,1.8C128,225.9,129,225.8,129.9,225.6z M130.4,228.1c0.5,0.2,1.1-0.1,1.3-0.6
				s-0.1-1.1-0.6-1.3c-0.2-0.1-0.4-0.1-0.7,0c-1.1-0.1-2.1-0.1-3.2,0c-0.5,0.1-0.8,0.6-0.6,1.1c0.1,0.4,0.4,0.6,0.8,0.7
				C128.4,227.9,129.4,228,130.4,228.1L130.4,228.1z"/>
			<path id="глаз" class="st5" d="M93,245.1c-0.7,0-1.2-0.6-1.2-1.2c0-0.2,0.1-0.4,0.2-0.6c0.7,0.4,1.4,0.8,2.2,1
				C94,244.8,93.5,245.1,93,245.1L93,245.1z"/>
		</g>
	</g>
	<g>
		<defs>
			<rect id="SVGID_00000085946438157171703800000010744723717305519792_" width="195.6" height="280.6"/>
		</defs>
		<clipPath id="SVGID_00000034064023705875200580000000933661213095562650_">
			<use xlink:href="#SVGID_00000085946438157171703800000010744723717305519792_"  style="overflow:visible;"/>
		</clipPath>
		<g id="layer1" style="clip-path:url(#SVGID_00000034064023705875200580000000933661213095562650_);">
			<g id="g4564">
				<g id="g4544">
					<path id="path1737" class="st10" d="M117,53v7.4h5.7l-4-7.4H117z M117,67.8v4h14.8v-4H117z"/>
					<path id="path1655" class="st10" d="M109.4,36.2v2.1h1.1L109.4,36.2z M109.4,45.8v7.4h9.3l-4-7.4H109.4z"/>
					<path id="path1661" class="st10" d="M96.9,16.1l-2.5,4.5v2.9h8.1l-4-7.4H96.9z M94.4,30.9v7.4h15.2v-1.9l-3-5.5L94.4,30.9z
						 M94.4,45.8v1.1l0.6-1.1H94.4z M100.3,45.8l3.9,7.4h5.4v-7.4H100.3z"/>
					<path id="path1663" class="st10" d="M101.9,23.4v7.4h4.5l-4-7.4H101.9z M101.9,38.2v7.4h12.7l-4-7.4H101.9z"/>
					<path id="path1667" class="st10" d="M94.5,20.4l-1.7,3.1h1.7V20.4z M88.7,30.9l-4,7.4h9.8v-7.4H88.7z M80.6,45.8l-1.3,2.3v5.1
						h11.8l3.4-6.5v-0.9C94.5,45.8,80.6,45.8,80.6,45.8z"/>
					<path id="path1669" class="st10" d="M97.6,14.7L97,16h1.4L97.6,14.7z M92.9,23.4l-4,7.4H102v-7.4H92.9z M86.9,38.2v7.4H95
						l2.6-4.9l2.6,4.9h1.8v-7.4H86.9z"/>
					<path id="path1683" class="st10" d="M79.4,47.9l-2.9,5.2h2.9V47.9z"/>
					<path id="path1685" class="st10" d="M84.7,38.2l-4,7.4H87v-7.4H84.7z"/>
					<path id="path1729" class="st10" d="M124.5,63.7v4.2h7.3v-0.2h-5.1L124.5,63.7z"/>
					<path id="path1735" class="st10" d="M109.4,60.5v7.4h15.2v-4l-1.8-3.3L109.4,60.5z"/>
					<path id="path1743" class="st10" d="M94.4,60.5v1.7h12.2l2.4,5.5h-2.7v0.2h3.2v-7.4C109.5,60.5,94.4,60.5,94.4,60.5z"/>
					<path id="path1745" class="st10" d="M104.1,53l2.7,5.1H102v2.3h15.2V53H104.1z M106.3,67.8l0.2,4h10.6v-4H106.3z"/>
					<path id="path1749" class="st10" d="M79.3,60.5v7.4h9.6v-0.2h-2.7l2.4-5.5h5.8v-1.7C94.4,60.5,79.3,60.5,79.3,60.5z"/>
					<path id="path1751" class="st10" d="M86.9,53v7.4H102v-2.3H88.5l2.7-5.1C91.2,53,86.9,53,86.9,53z M86.9,67.8v4h1.9l0.1-4H86.9
						z"/>
					<path id="path1757" class="st10" d="M72.5,60.5l-4,7.2h-4.2v0.2h15.2v-7.4C79.5,60.5,72.5,60.5,72.5,60.5z"/>
					<path id="path1759" class="st10" d="M76.6,53l-4,7.4H87V53H76.6z M71.8,67.8v4H87v-4H71.8z"/>
					<path id="path1763" class="st10" d="M63.5,67.7v0.2h0.9v-0.2H63.5z"/>
					<path id="path1765" class="st10" d="M63.5,67.8v4h8.4v-4H63.5z"/>
				</g>
				<path id="path6847" class="st10" d="M56,134.8c2.1,1.8,4.2,3.5,6.5,5v-5H56z"/>
				<rect id="rect4700" x="53.1" y="74.7" class="st10" width="17.9" height="11.9"/>
				<rect id="use4704" x="71" y="74.7" class="st10" width="17.9" height="11.9"/>
				<rect id="use4710" x="121.6" y="74.6" class="st10" width="17.9" height="11.9"/>
				<rect id="rect4726" x="44.7" y="86.7" class="st10" width="17.9" height="11.9"/>
				<rect id="use4730" x="62.6" y="86.7" class="st10" width="17.9" height="11.9"/>
				<rect id="rect4734" x="131" y="86.7" class="st10" width="17.9" height="11.9"/>
				<rect id="use4736" x="113.1" y="86.7" class="st10" width="17.9" height="11.9"/>
				<rect id="rect4752" x="53.1" y="98.7" class="st10" width="17.9" height="11.9"/>
				<rect id="use4756" x="71" y="98.7" class="st10" width="17.9" height="11.9"/>
				<rect id="use4762" x="121.6" y="98.7" class="st10" width="17.9" height="11.9"/>
				<path id="rect4778" class="st10" d="M44.7,110.8v9.2c0.5,0.9,0.9,1.8,1.4,2.7h16.5v-12L44.7,110.8z"/>
				<rect id="use4782" x="62.6" y="110.8" class="st10" width="17.9" height="11.9"/>
				<rect id="rect4786" x="131" y="110.7" class="st10" width="17.9" height="11.9"/>
				<rect id="use4788" x="113.1" y="110.7" class="st10" width="17.9" height="11.9"/>
				<path id="rect4804" class="st10" d="M53.1,122.8v9.2c0.9,0.9,1.8,1.9,2.8,2.7h15v-12L53.1,122.8z"/>
				<rect id="use4808" x="71" y="122.8" class="st10" width="17.9" height="12"/>
				<path id="use4814" class="st10" d="M121.5,122.7v11.9h16.8c0.4-0.3,0.7-0.6,1.1-1v-11L121.5,122.7z"/>
				<path id="use4834" class="st10" d="M62.6,134.8v5c4.6,3,9.6,5.3,14.8,6.9h3.1v-11.9H62.6z"/>
				<path id="rect4838" class="st10" d="M131,134.7v5.6c2.6-1.7,5-3.5,7.3-5.6H131z"/>
				<path id="use4840" class="st10" d="M113.1,134.7v11.9h4.4c4.7-1.6,9.2-3.7,13.4-6.4v-5.6h-17.8V134.7z"/>
				<path id="use4744" class="st10" d="M80.5,86.7v12H89v-12H80.5z M80.5,110.7v12H89v-12H80.5z M80.5,134.7v11.9H89v-11.9H80.5z"/>
				<path id="use4860" class="st10" d="M77.6,146.8c3.7,1.2,7.5,2,11.3,2.5v-2.5H77.6z"/>
				<path id="use4702" class="st10" d="M39.8,74.7v11.9h13.3V74.7H39.8z M39.8,98.7v3.3c0.2,2.9,0.7,5.8,1.4,8.7h11.9v-12H39.8z
					 M46.2,122.7c2,3.3,4.3,6.4,7,9.2v-9.2H46.2z"/>
				<path id="use4720" class="st10" d="M121.5,74.6h-14.9v11.9h14.9V74.6z M106.7,98.6v11.9h14.9V98.7L106.7,98.6z M106.7,122.6
					v11.9h14.9v-11.9H106.7z M106.7,146.6v2.5c3.6-0.5,7.2-1.3,10.7-2.5H106.7z"/>
				<path id="use4728" class="st10" d="M39.8,86.7v12h4.8v-12H39.8z M41.2,110.7c0.8,3.2,2,6.3,3.5,9.3v-9.3H41.2z"/>
				<path id="use4738" class="st10" d="M148.9,86.7v12h7.1v-12H148.9z M148.9,110.7V122c2.1-3.5,3.8-7.3,5-11.3H148.9z"/>
				<path id="rect4708" class="st10" d="M139.4,74.6v12H156v-12H139.4z M106.6,86.6v12h6.4v-12H106.6z M139.4,98.6v11.9h14.4
					c1.2-3.9,1.9-7.9,2.1-11.9H139.4z M106.6,110.6v12h6.4v-12H106.6z M139.4,122.6v11c3.5-3.3,6.5-7,9-11
					C148.4,122.6,139.4,122.6,139.4,122.6z M106.6,134.6v11.9h6.4v-11.8L106.6,134.6z"/>
				<path id="path8865" class="st11" d="M39.6,12.1l0.2,89.4c1.6,28.4,27.1,48.3,58.1,48.3c32.1,0,58.1-24.1,58.1-53.7l-0.1-84
					L39.6,12.1z"/>
			</g>
		</g>
	</g>
	<g>
		<defs>
			<rect id="SVGID_00000047037530108019144640000004594976487677839002_" width="195.6" height="280.6"/>
		</defs>
		<clipPath id="SVGID_00000070099107534488304670000006821484202082881196_">
			<use xlink:href="#SVGID_00000047037530108019144640000004594976487677839002_"  style="overflow:visible;"/>
		</clipPath>
		<path style="clip-path:url(#SVGID_00000070099107534488304670000006821484202082881196_);fill:#FFFFFF;" d="M80,99.6
			c-12.6,0-22.9,10.2-22.9,30.5c0,25.4,18.2,50.9,40.7,50.9s40.7-25.4,40.7-50.9c0-20.3-10.2-30.5-22.9-30.5
			c-6.9,0-13.5,3.1-17.8,8.5C93.5,102.8,86.9,99.6,80,99.6z"/>
	</g>
	<g>
		<defs>
			<rect id="SVGID_00000069361495807791663020000000528096422060861583_" width="195.6" height="280.6"/>
		</defs>
		<clipPath id="SVGID_00000037670599108069729200000005051399804819023770_">
			<use xlink:href="#SVGID_00000069361495807791663020000000528096422060861583_"  style="overflow:visible;"/>
		</clipPath>
		<path style="clip-path:url(#SVGID_00000037670599108069729200000005051399804819023770_);fill:#FFFFFF;" d="M30.4,112.8h134.7
			c3,0,5.5,2.4,5.5,5.5v44c0,3-2.4,5.5-5.5,5.5H30.4c-3,0-5.5-2.4-5.5-5.5v-44C25,115.3,27.4,112.8,30.4,112.8z"/>
	</g>
	<g>
		<defs>
			<rect id="SVGID_00000040551653677291046850000007367932312120249501_" width="195.6" height="280.6"/>
		</defs>
		<clipPath id="SVGID_00000003098487014288973400000001408122315399464858_">
			<use xlink:href="#SVGID_00000040551653677291046850000007367932312120249501_"  style="overflow:visible;"/>
		</clipPath>
	</g>
	<g>
		<defs>
			<rect id="SVGID_00000181791444183229198070000008061330675735197596_" width="195.6" height="280.6"/>
		</defs>
		<clipPath id="SVGID_00000141423057215760158330000001168417775029350058_">
			<use xlink:href="#SVGID_00000181791444183229198070000008061330675735197596_"  style="overflow:visible;"/>
		</clipPath>
		<path style="clip-path:url(#SVGID_00000141423057215760158330000001168417775029350058_);fill:#2390CF;" d="M150.6,0h29h16v16
			c0,7,0,14,0,21c-10.2,12.4-28.6,14.2-41,4S140.4,12.4,150.6,0z"/>
	</g>
	<g>
		<defs>
			<rect id="SVGID_00000088113661593435742850000004196621908485186433_" width="195.6" height="280.6"/>
		</defs>
		<clipPath id="SVGID_00000108301893214150691010000006153855848564927922_">
			<use xlink:href="#SVGID_00000088113661593435742850000004196621908485186433_"  style="overflow:visible;"/>
		</clipPath>
	</g>
</g>
<g class="st15">
	<path class="st16" d="M61.2,118.7l2.2,15.1h-4l-0.2-2.7h-1.4l-0.2,2.7h-4.1l2-15.1H61.2z M59.1,128.4c-0.2-1.7-0.4-3.8-0.6-6.3
		c-0.4,2.9-0.7,5-0.8,6.3H59.1z"/>
</g>
<g class="st15">
	<path class="st16" d="M67,130.8v3.1h-2.8v-3.1H67z"/>
	<path class="st16" d="M80.9,118.7l-2.3,6.8l2.5,8.3H77l-1.6-6.5v6.5h-3.9v-15.1h3.9v5.9l1.7-5.9H80.9z"/>
	<path class="st16" d="M90.3,121.5v12.4h-3.8l0.1-1c-0.3,0.4-0.6,0.7-1,0.9c-0.4,0.2-0.8,0.3-1.3,0.3c-0.6,0-1-0.1-1.4-0.3
		c-0.4-0.2-0.6-0.5-0.8-0.8c-0.2-0.3-0.3-0.7-0.3-1c0-0.4-0.1-1.1-0.1-2.1v-8.4h3.8v8.4c0,1,0,1.5,0.1,1.7s0.2,0.3,0.5,0.3
		c0.3,0,0.4-0.1,0.5-0.3c0.1-0.2,0.1-0.8,0.1-1.8v-8.3H90.3z"/>
	<path class="st16" d="M95.6,121.5v9.8c0,1.2,0,1.9-0.1,2.3c0,0.4-0.2,0.8-0.4,1.1c-0.2,0.3-0.6,0.5-1,0.7c-0.4,0.1-1,0.2-1.8,0.2
		h-1.5v-2c0.4,0,0.7,0,0.8-0.1c0.1-0.1,0.1-0.7,0.1-1.9v-10.1H95.6z M95.6,118.7v2h-3.9v-2H95.6z"/>
	<path class="st16" d="M100.3,126.3h-3.5v-0.8c0-1,0.1-1.7,0.3-2.2s0.7-1,1.3-1.4c0.7-0.4,1.5-0.6,2.6-0.6c1.3,0,2.2,0.2,2.9,0.7
		c0.6,0.5,1,1,1.2,1.7c0.1,0.7,0.2,2,0.2,4.1v6.2h-3.7v-1.1c-0.2,0.4-0.5,0.8-0.9,1c-0.4,0.2-0.8,0.3-1.3,0.3
		c-0.7,0-1.3-0.2-1.8-0.6c-0.6-0.4-0.8-1.2-0.8-2.4v-1c0-0.9,0.1-1.6,0.4-1.9s1-0.7,2.2-1.2c1.2-0.5,1.9-0.8,2-1s0.1-0.5,0.1-1
		c0-0.6,0-1.1-0.1-1.3c-0.1-0.2-0.3-0.3-0.5-0.3c-0.3,0-0.4,0.1-0.5,0.2c-0.1,0.2-0.1,0.6-0.1,1.3V126.3z M101.5,128
		c-0.6,0.4-1,0.8-1,1.1s-0.1,0.7-0.1,1.3c0,0.6,0,1.1,0.1,1.2s0.2,0.3,0.5,0.3c0.2,0,0.4-0.1,0.5-0.2c0.1-0.1,0.1-0.5,0.1-1.2V128z"
		/>
	<path class="st16" d="M118.8,121.5l-1.5,12.4h-4.1c-0.2-1.5-0.5-3.5-0.8-6c-0.1,1.1-0.2,2.2-0.4,3.3l-0.4,2.7h-4.1l-1.6-12.4h3.2
		c0,0.3,0.3,2.7,0.8,7.1c0-0.5,0.3-2.8,0.8-7.1h3.1l0.8,7.1c0.1-2.1,0.4-4.4,0.9-7.1H118.8z"/>
	<path class="st16" d="M127.1,125.4h-3.3v-0.7c0-0.6,0-0.9-0.1-1.1s-0.2-0.2-0.5-0.2c-0.2,0-0.4,0.1-0.5,0.2
		c-0.1,0.1-0.2,0.3-0.2,0.6c0,0.4,0,0.7,0.1,0.8c0.1,0.2,0.2,0.4,0.5,0.6s0.8,0.5,1.6,0.9c1.1,0.5,1.8,1,2.2,1.5
		c0.3,0.5,0.5,1.2,0.5,2.1c0,1-0.1,1.8-0.4,2.3c-0.3,0.5-0.7,0.9-1.3,1.2c-0.6,0.3-1.4,0.4-2.2,0.4c-1,0-1.8-0.1-2.5-0.4
		c-0.7-0.3-1.1-0.7-1.4-1.2c-0.3-0.5-0.4-1.3-0.4-2.3v-0.6h3.3v0.8c0,0.7,0,1.1,0.1,1.3s0.3,0.3,0.5,0.3c0.3,0,0.5-0.1,0.6-0.2
		c0.1-0.1,0.2-0.4,0.2-0.8c0-0.6-0.1-1-0.2-1.1c-0.1-0.1-0.9-0.6-2.2-1.3c-1.1-0.6-1.8-1.2-2-1.7c-0.2-0.5-0.4-1.1-0.4-1.8
		c0-1,0.1-1.7,0.4-2.2c0.3-0.5,0.7-0.8,1.3-1.1c0.6-0.3,1.4-0.4,2.2-0.4c0.8,0,1.5,0.1,2.1,0.3c0.6,0.2,1,0.5,1.3,0.8
		c0.3,0.3,0.5,0.7,0.6,1c0.1,0.3,0.1,0.7,0.1,1.4V125.4z"/>
	<path class="st16" d="M136.5,121.5l-1.5,4.9l2,7.5h-3.6l-1.2-5.4l0,5.4h-3.8v-15.1h3.8l0,6.3l1.2-3.6H136.5z"/>
	<path class="st16" d="M141.4,118.7v2h-3.9v-2H141.4z M141.4,121.5v12.4h-3.9v-12.4H141.4z"/>
</g>
<g class="st15">
	<path class="st16" d="M71.6,146h-4.7v-1.5c0-0.7-0.1-1.1-0.2-1.3s-0.3-0.3-0.6-0.3c-0.3,0-0.5,0.1-0.7,0.4
		c-0.2,0.3-0.2,0.6-0.2,1.1c0,0.7,0.1,1.1,0.3,1.5c0.2,0.3,0.6,0.7,1.4,1.2c2.3,1.3,3.7,2.4,4.3,3.3c0.6,0.9,0.9,2.3,0.9,4.2
		c0,1.4-0.2,2.4-0.5,3.1s-1,1.2-1.9,1.7c-0.9,0.4-2,0.7-3.3,0.7c-1.4,0-2.5-0.3-3.5-0.8c-1-0.5-1.6-1.2-1.9-2
		c-0.3-0.8-0.4-1.9-0.4-3.4v-1.3h4.7v2.4c0,0.7,0.1,1.2,0.2,1.4c0.1,0.2,0.4,0.3,0.7,0.3c0.3,0,0.6-0.1,0.8-0.4
		c0.2-0.3,0.2-0.7,0.2-1.2c0-1.2-0.2-1.9-0.5-2.3c-0.3-0.4-1.1-0.9-2.4-1.8c-1.3-0.8-2.1-1.4-2.5-1.8c-0.4-0.4-0.8-0.9-1-1.6
		c-0.3-0.7-0.4-1.5-0.4-2.6c0-1.5,0.2-2.6,0.6-3.3s1-1.2,1.9-1.6c0.9-0.4,1.9-0.6,3.1-0.6c1.3,0,2.4,0.2,3.4,0.6s1.5,1,1.9,1.6
		c0.3,0.6,0.5,1.8,0.5,3.3V146z"/>
	<path class="st16" d="M78.6,140.1v19.6h-5v-19.6H78.6z"/>
	<path class="st16" d="M91.4,149.3v3.9c0,1.4-0.1,2.5-0.2,3.2c-0.1,0.7-0.5,1.3-0.9,1.9c-0.5,0.6-1.1,1-1.8,1.3
		c-0.7,0.3-1.6,0.4-2.6,0.4c-1.1,0-2-0.1-2.7-0.4c-0.8-0.2-1.3-0.6-1.7-1.1c-0.4-0.5-0.7-1.1-0.9-1.7c-0.2-0.7-0.3-1.7-0.3-3.1v-4.1
		c0-1.5,0.2-2.7,0.5-3.5c0.3-0.8,0.9-1.5,1.7-2c0.8-0.5,1.9-0.8,3.2-0.8c1.1,0,2,0.2,2.8,0.5c0.8,0.3,1.4,0.8,1.8,1.3
		s0.7,1.1,0.9,1.6C91.3,147.3,91.4,148.1,91.4,149.3z M86.5,148.1c0-0.8,0-1.3-0.1-1.6c-0.1-0.2-0.3-0.3-0.6-0.3
		c-0.3,0-0.5,0.1-0.6,0.3c-0.1,0.2-0.1,0.7-0.1,1.6v7.2c0,0.8,0,1.3,0.1,1.5c0.1,0.2,0.3,0.3,0.6,0.3c0.3,0,0.5-0.1,0.6-0.3
		s0.1-0.7,0.1-1.4V148.1z"/>
	<path class="st16" d="M97.9,143.7l-0.1,1.5c0.4-0.6,0.8-1,1.3-1.3c0.5-0.3,1.1-0.4,1.8-0.4c0.8,0,1.5,0.2,2.1,0.6
		c0.5,0.4,0.9,0.9,1,1.5c0.2,0.6,0.2,1.6,0.2,3v11.2h-4.9v-11.1c0-1.1,0-1.8-0.1-2c-0.1-0.2-0.3-0.4-0.6-0.4c-0.3,0-0.6,0.1-0.7,0.4
		c-0.1,0.3-0.1,1-0.1,2.2v10.8H93v-16H97.9z"/>
	<path class="st16" d="M111,140.1v2.6h-5v-2.6H111z M111,143.7v16h-5v-16H111z"/>
	<path class="st16" d="M117.5,143.7l-0.1,1.5c0.4-0.6,0.8-1.1,1.4-1.4s1.1-0.5,1.8-0.5c1.3,0,2.3,0.6,3.1,1.8
		c0.4-0.6,0.9-1.1,1.4-1.4c0.5-0.3,1.1-0.5,1.7-0.5c0.8,0,1.5,0.2,2.1,0.6c0.5,0.4,0.9,0.9,1,1.5c0.2,0.6,0.2,1.5,0.2,2.8v11.4h-4.7
		v-10.5c0-1.4,0-2.2-0.1-2.5s-0.3-0.5-0.6-0.5c-0.3,0-0.6,0.2-0.7,0.5s-0.2,1.2-0.2,2.6v10.5H119v-10.2c0-1.6,0-2.5-0.1-2.8
		c-0.1-0.3-0.3-0.5-0.6-0.5c-0.2,0-0.4,0.1-0.6,0.2c-0.2,0.2-0.2,0.4-0.3,0.6c0,0.2,0,0.7,0,1.5v11.1h-4.7v-16H117.5z"/>
</g>
<g class="st15">
	<path class="st17" d="M168.4,15.9v10.3h1.1V29h-1.1v2.8h-3.9V29h-4.7v-2.7l3.4-10.3H168.4z M164.4,26.3v-6.7l-1.7,6.7H164.4z"/>
	<path class="st17" d="M178.4,15.9v10.3h1.1V29h-1.1v2.8h-3.9V29h-4.7v-2.7l3.4-10.3H178.4z M174.4,26.3v-6.7l-1.7,6.7H174.4z"/>
</g>
</svg>
