<?xml version="1.0" encoding="utf-8"?>
<!-- Generator: Adobe Illustrator 26.0.3, SVG Export Plug-In . SVG Version: 6.00 Build 0)  -->
<svg version="1.1" id="Слой_1" xmlns="http://www.w3.org/2000/svg" xmlns:xlink="http://www.w3.org/1999/xlink" x="0px" y="0px"
	 viewBox="0 0 195.6 280.6" style="enable-background:new 0 0 195.6 280.6;" xml:space="preserve">
<style type="text/css">
	.st0{clip-path:url(#SVGID_00000134947830660164098020000006224309865753215649_);fill:#134B88;}
	.st1{clip-path:url(#SVGID_00000134947830660164098020000006224309865753215649_);}
	.st2{fill-rule:evenodd;clip-rule:evenodd;fill:#FFFFFF;}
	.st3{fill-rule:evenodd;clip-rule:evenodd;fill:#D82928;}
	.st4{fill-rule:evenodd;clip-rule:evenodd;fill:#EFB42F;}
	.st5{fill-rule:evenodd;clip-rule:evenodd;fill:#F2C08E;}
	.st6{fill-rule:evenodd;clip-rule:evenodd;fill:#901D1A;}
	.st7{fill-rule:evenodd;clip-rule:evenodd;fill:#134B88;}
	.st8{fill-rule:evenodd;clip-rule:evenodd;fill:#2A204F;}
	.st9{clip-path:url(#SVGID_00000134947830660164098020000006224309865753215649_);fill:#2E74B3;stroke:#FFFFFF;}
	.st10{clip-path:url(#SVGID_00000134947830660164098020000006224309865753215649_);fill:#FFFFFF;stroke:#424242;}
	.st11{clip-path:url(#SVGID_00000134947830660164098020000006224309865753215649_);fill:#D49E63;stroke:#41382D;}
	.st12{clip-path:url(#SVGID_00000134947830660164098020000006224309865753215649_);fill:#FFFFFF;fill-opacity:0;stroke:#41382D;}
	
		.st13{clip-path:url(#SVGID_00000134947830660164098020000006224309865753215649_);fill:#F7E926;stroke:#41382D;stroke-width:1.05;stroke-opacity:0;}
	.st14{clip-path:url(#SVGID_00000134947830660164098020000006224309865753215649_);fill:#FFFFFF;stroke:#424242;stroke-width:0.99;}
	
		.st15{clip-path:url(#SVGID_00000134947830660164098020000006224309865753215649_);fill:#FFFFFF;fill-opacity:0;stroke:#41382D;stroke-width:0.6;}
	.st16{clip-path:url(#SVGID_00000134947830660164098020000006224309865753215649_);fill:#FFFFFF;stroke:#FFFFFF;}
	.st17{clip-path:url(#SVGID_00000134947830660164098020000006224309865753215649_);fill:#FFFFFF;stroke:#FFFFFF;stroke-width:0.98;}
	.st18{clip-path:url(#SVGID_00000134947830660164098020000006224309865753215649_);fill:none;stroke:#FFFFFF;stroke-width:1.35;}
	.st19{clip-path:url(#SVGID_00000134947830660164098020000006224309865753215649_);fill:none;stroke:#424242;stroke-width:0.5;}
	.st20{clip-path:url(#SVGID_00000134947830660164098020000006224309865753215649_);fill:#FFFFFF;}
	.st21{clip-path:url(#SVGID_00000134947830660164098020000006224309865753215649_);enable-background:new    ;}
	.st22{fill:#134B88;}
	.st23{font-family:'Impact';}
	.st24{font-size:24.77px;}
	.st25{clip-path:url(#SVGID_00000134947830660164098020000006224309865753215649_);fill:#2E74B3;}
	.st26{fill:#FFFFFF;}
	.st27{font-size:20px;}
</style>
<g>
	<defs>
		<rect id="SVGID_1_" x="0" y="0" width="195.6" height="280.6"/>
	</defs>
	<clipPath id="SVGID_00000145775305645400816100000005399489895630055327_">
		<use xlink:href="#SVGID_1_"  style="overflow:visible;"/>
	</clipPath>
	
		<rect x="-6.2" y="-8.4" style="clip-path:url(#SVGID_00000145775305645400816100000005399489895630055327_);fill:#134B88;" width="214" height="297.9"/>
	<g id="Warstwa_2" style="clip-path:url(#SVGID_00000145775305645400816100000005399489895630055327_);">
		<g id="_76815456">
			<path id="_76964264" class="st2" d="M30.5,10.9h134.5l-2.3,60.6c-1.2,35.9-28.2,62.2-64.3,63.4c-34.5,0.5-65.8-26.4-66.2-63.4
				L30.5,10.9z"/>
			<path id="_76964192" class="st2" d="M31.2,11.5h133.2l-2.2,60c-1.1,35.5-27.9,61.6-63.6,62.8c-34.2,0.5-65.2-26.2-65.5-62.8
				L31.2,11.5L31.2,11.5z"/>
			<path id="_76964120" class="st3" d="M94.1,39.2c0.5-0.8,0.6-1.7,0.2-2.6c-0.5-2.8-2.5-5.2-5.1-7.1c-1.8-1.4-3.4-3.1-4.7-5
				c0.2-0.6,0.9-0.9,1.5-0.7c0.2,0.1,0.4,0.2,0.5,0.4c1.9-2.8,5-0.3,8.3,0c1.2-0.1,1.4-0.5,1.4-1.4c-0.2-1.4,0.7-2.2,1.8-1.9
				c1.7,0.2,4.6,0,5.5,0.2c-0.6,0.9-2.5,0.6-3.5,0.9c-1.9-0.6-2.2,1.3-1.3,1.3c0.5,0.5,0.4,1.2,0.5,1.8c1.2-0.1,2.4-0.4,3.5-0.9
				c0.1,0.3-0.1,0.6-0.5,1.2c0.8-0.6,2-0.4,2.6,0.4c1.6,0.5,2.4-0.4,3.6-0.4c0.9-1.1,1.7-1.6,4-1.2c-1.8,0.2-3.4,1.4-4.1,3.1
				c0.2,0.5-4.7,0.4-5.1,0.9s0.3,1.3,0.8,1s0.8-0.7,1.2-0.9c0.4,0.8,0.1,2.3-0.2,3.2c1.7,0.1,2.4,0.5,3,1.8c-0.3,0.1-0.7-0.1-1-0.2
				c-0.6,0.2-0.9,0.8-0.2,1c0.8,0.3,1.3,1,1.3,1.8c-0.2,0.4-0.8,0.6-1.3,0.7c0.3,0,0.6,0.2,0.8,0.4c0.2,0.6,0.2,1.2,0,1.7
				c-0.3-0.1-0.7,0-1,0.2c-0.1,2.1-0.5,4.1-1.2,6.1c-0.3,0.7-0.4,1.5-0.2,2.2c-0.5,0.8-0.7,1.8-0.7,2.7c0.8,0.8,0.2,1.6-0.8,1.2
				c-0.7,0.4-1.4,0.6-1,1.5c0.1,1.6-0.1,2.6-1,1.8c-0.4,1.8,0.3,3.3,0.4,5c0,1.5,2.3,0.5,3,1.1c-0.3,0.9-0.9,1.3-1.2,2.2
				c2.4,0.3,4.4,0.4,5.1-3.1c-1.4-3-2.1-6.3-1.8-9.6c-1.4-2-1.8-9.9,2.9-12.6c1.6-1.6,3.4-2.8,4-4c0.2,0.5,0.3,1.1,0.2,1.7
				c1.3-1.9,3.6-2.1,5.3-3.7c0.4,0.3,0.6,0.8,0.6,1.2c3.8-2.8,7.4-6,10.6-9.5c-1.4,3.6-4,7.1-6.5,10.5c0.8-0.2,1.5-0.6,2-1.2
				c-0.6,0.9-1.3,1.8-2,2.6c4.5-3.1,8.8-2.2,15.9-10.7c-2.3,7.8-5.2,10.6-14.5,15.6c6-1.4,11-3.7,16.3-5.7
				c-5.1,6.5-17.9,7.4-16.3,9.7c2.7-0.3,5.3-1,7.9-1.9c0.1,0.3,0.1,0.6-0.2,0.8c5.5-0.7,10.9-2.5,15.7-5.3
				c-1.9,3.2-7.6,10.3-13.1,10c-1.1,0.1-2.2,0.5-3.1,1.2c6.6-0.2,3.3,2.2,15.3-0.6c-4.5,2.8-10,3-16.4,2.8c5.8,2,6.1,5.7,18.5,3.9
				c-0.7,1.5-4.7,2.7-7.2,3.2c-2.4,0.2-3.1,0.8-3.2-0.3c-1.3,0.6-3.3,0.8-2.8-0.2c-0.9,0.5-3.4,0.4-4.1-0.7c-0.5-0.3-1.1,0.4-2,0.5
				c6.1,2.8,12.7,4.5,19.4,4.9c-6.8,1.7-13.2,0-19.5-1.8c6.2,4.5,13.6,9.4,20.1,9.7c-3.5,0.8-7.1,0.9-10.6,0.3
				c-3.9-0.6-7.7-2.1-11-4.3c-2-0.9,1.1,1.4-0.9,0.2c-0.5-0.3-1.9-0.9-2.5-1.2c7.3,7.4,14.8,10.3,23.4,12.6
				c-5.4-0.1-11.5-2-16.3-4.3c-1.4-0.7,0.7,1-1.5-0.1c-2.7-1-4.1-2.2-6.8-3.4c9.9,10.9,18.3,16.2,28.6,20.2
				c-3.4,0.8-6.5-0.1-9.7-1.1c-2.2-2.2-2-2.3-2.8-1.3c-1.2-0.3-5.1-1.2-5.6-2.2c-0.5-2.4-1.4-3.1-1.4-1.1c-2.5-1-4.9-2.5-6.9-4.3
				c-0.6-2-0.9-2.2-1.8-1c-1.5-0.9-2.9-2-4.2-3.2c4.8,7.2,12.4,10.4,18.4,13.8c-8.4-2.1-15.8-6.4-24.7-14.7c3.2,7.1,8.6,11,14.5,15
				c-1.7-0.1-3.3-0.5-4.9-1.2c-1.7-0.8-3.3-1.7-4.8-2.9c-2.1-1.6-4-3.5-5.7-5.5c-1.7-1.9-3.2-3.9-4.7-6c1,3.1,2.7,6,4.9,8.4
				c-4.5-2-7.8-6.3-9.8-11c-0.5-0.7-1-0.6-1.1,0.3c1.9,4.9,4.8,9.3,8.7,12.8c5.5,4.1,7.1,8,7.2,12.2c-2,0.5-4.2,0.2-6-0.8
				c-2.6-1.2-4.8-2.8-7.1-3.8c-1.9-0.7-3.9-0.8-5.9-0.2c-1.3-0.8-1.9-3.5-2.4-3.9c-0.7,0.4-1.6,0.4-2.3,0c0.9-0.9-1.8-3.9-4-5.7
				c0,0.7-0.1,1.1-0.1,1.8c-0.3,0.8-0.9,0.8-1.2,0.3c-0.9-1.1-2-2.1-3.3-2.9c0,0.5-0.2,0.9-0.7,1.2c-1.7-1.4-3.7-3.4-5.1-3
				c-0.8-0.5-1.7-0.3-2.4-1.5c-0.9-0.5-2.8-0.6-2-3.1c-2.9,1.9-5.7,3.6-8.6,5.5c0.8,0.8,3.2,1.1,5.8,0.1c1.5-1.6,3.3-0.4,3.5,1.8
				c0.7,1.4-2.1,3.9-3.7,1.9c-1.3,0.6-2.8,0.6-4.1,0.1c-1.4,0.6-3,0.4-3.6-0.6c-0.7,0.6-1.7,0.7-2.6,0.4C63,86,63.4,87.2,61.2,87
				c-0.3,1.4-1.7,1.8-3.3,1c0,1.2-0.5,1.7-2,1.6c-2-0.4,0.7-4-2.9-3.7c0-1.7,1.1-2.5,3.3-1.4c0.9,0.2,1.9-0.1,2.5-0.8
				c-1.1,0.1-1.7,0.2-2.6-0.8c-2.3-0.1-2.6-0.4-4-1.8c-2.4,1-3.5-0.8-2.8-3.1c-0.5-1,1.4,1,1.9,0.6c1.9-0.6-1.1-3.2,2.2-2.1
				c1.1,0.3,1.6,3,2.9,2.9c-0.5-0.5-0.8-1.3-0.8-2c-2.5-0.8-1.2-3.1,1-4c2-0.8,3.4,0.9,2.8,1.9c0.5,0.5,0.7,1.3,0.4,2
				c1,0.5,1.7,1.3,1.9,2.3c0.7,0.6,1.2,0.4,2.2-0.4c2.3-1.7,4.5-3.7,6.5-5.8c-1.5,0.5-3.2,0.3-4.6-0.6c2.1-0.8,3.9-2.2,5.3-3.9
				c-1.1-0.6-2.3,0.7-4.2-0.1c1.3-1,3.2-3.1,3-5.2c-0.6,1.5-2,1.8-3.5,1.2c1.1-1.6,0.9-4.4,1.3-5.8c-0.8,0.3-1.6,0.3-2.4,0
				c0.9-0.7,1.8-1.3,1.8-2.1c-2.5-0.1-3.4-3.8-4.3-5.7c0.9,0.4,2.1,1.8,2.6,1.1c-2.1-2.2-4-4.5-5.7-7c-0.3,0.8-0.1,1.7,0.5,2.3
				c1.6,0,1.9,2.1,0.8,2.9c-1.1,0.2-1,0.4-2,0.6s-2.1-0.7-1.2-2c-1.1-0.3-1.7-1.4-1.4-2.4c0-0.2,0.1-0.3,0.2-0.5
				c-0.6-0.7-0.9-1.6-0.7-2.5c-0.6-0.2-1-0.7-1.1-1.3c-1.3-0.1-3.3,0.1-3.7-1c-1.4,0.6-3.1,0.4-4.3-0.5c-0.5,0.9-2.5,0.6-2.6-1.3
				c0.2-1.2,0.2-0.9,0.4-2.2c0.9-1.4,2.3-1.2,3.2-0.1c1.5-0.4,3.7,0.9,5.7,0.5c-0.2-1.2,0-2.3,0.4-3.5c-0.5-1-0.4-2.2,0.4-3
				c-1.2-1.3-1.2-2.6,0.6-3.3c1,1.2,2.3,1.5,3.1-0.6c1.1,0.1,2,1,2,2.1c0,0.8-0.5,1.4-1.2,1.8c0,1.2-0.3,2.5-0.8,3.5
				c0.5,2.4,1.5,1.7,1.3,0.5c0-1.4,0.7-2,2.3-1.8c-0.1-1,1-1.9,2.5-1.8c0-1.5,1.2-3,2.7-1.7l1.9,0.8c1.9,0.1,0.8,2.9-1.7,2.9
				c-0.3,1-2.9,1.1-4,2.4c-1,0.8-1.6,1.1-1.5,2.2c0.1,1.1,0.2,2.2,0.1,3.3c2.2,2.4,4.5,5,6.8,7.4c-0.3-1.8,0.3-3.7,1.7-3.9
				c-0.1,4.6,2.7,4.1,3.4,6.1c0.7-0.4,1.6-0.7,2.4-0.6c-0.9,0-2.2-0.1-2-0.6c1.4-0.4,2.8-2,3.7-2.9c4.1-2.6,5.7-3,9.9-3.4
				c-0.2-1.2-0.1-1.3,1.1-1C91.8,43.6,93.4,42,94.1,39.2L94.1,39.2z"/>
			<path id="_76964048" class="st4" d="M77.9,81.9c1.6-0.3,3.2,0.7,3.7,2.3c-1-0.7-2.3-0.8-3.4-0.3C78.2,83.1,77.9,82.5,77.9,81.9z
				 M55.2,86c-1,0.2-1.9,0.8-2.4,1.7c-0.9,2,0.6,2.7,1.4,2.8c-0.1-0.6-0.1-1.2,0.2-1.7c0.6-0.9,0.9-1.1,1.7-1.2
				c0.2-0.6,0-1.2-0.6-1.5C55.4,86,55.3,86,55.2,86z M52.7,77c-2.1-2.6-5-0.4-5.5,1.6c1.9-1.7,2.9-0.1,4.1,0.4
				C52.4,79.2,53,78.1,52.7,77z M57.7,73.6c-0.6-1.4-2.9-3.1-4.7-1.2c1.4,0.6,2.3,0.5,2.7,2.2C56.3,74.1,57,73.7,57.7,73.6
				L57.7,73.6z M59.7,51.4c0.7-0.1,1.4-0.4,2-0.8c0.2,1.2-0.1,2.7-2.7,3.8C59.5,53,60.1,52.3,59.7,51.4L59.7,51.4z M45.3,37.5
				c-2-0.5-3.6,1.5-4,2.6c1.1-0.6,2.4-0.8,3.6-0.5C45,38.9,45.2,38.2,45.3,37.5L45.3,37.5z M68.3,27.6c0.1,0.9-0.2,1.9-0.8,2.6
				c0.7,0.4,1.3,0.5,2,0.9C69.7,29.8,69.3,28.5,68.3,27.6z M94.6,39.5c1-0.3,0.1-3.5-0.6-4.9c-1.4-2.2-3.2-4.1-5.4-5.5
				c-1.4-1.3-2.6-2.7-3.7-4.2c-4.2-0.6-5.9,1.9-5.6,5c2.8-1.5,4.4-0.8,6.1,1c5.5,0.2,8,3.3,7.2,6.1c-1.5-1.3-3.3-2-5.3-2
				c-1.9,0.1-3.9,0-5.8-0.2c-1.8-0.2-3-0.5-3.8-1.5c-0.5-0.2-0.5-0.5-0.3-0.9c0.5-0.7,0-1.1-0.7-1.1c-1.1,0.1-1.9,1-1.9,2.1
				c0,0,0,0,0,0.1c0.6,1.2,1.8,2,3.1,2.2c2.5,0.4,5,0.5,7.5,0.2c2.2-0.2,4.5,0.3,6.4,1.5c-2.6,0.5-5.4,0-7.6-1.5
				c0.1,0.8,0,1.8,1.4,1.9C88.6,38.8,91.6,39.4,94.6,39.5z M58.8,27.7c-0.8-1.5-2.6-3.7-4.1-3c0.8,1,1.3,2.2,1.3,3.5
				C57.2,29.6,58.2,29,58.8,27.7L58.8,27.7z"/>
			<path id="_76963976" class="st5" d="M147.8,38c-3.2,1.6-6.4,3.2-9.6,3.7c-0.1,0.4-0.1,0.6-0.2,1c-6.4,2.1-13.1,2.8-19.8,2
				c6.6,2,13.8,1.5,20-1.4C141.4,41.4,144.8,39.8,147.8,38L147.8,38z M143.9,42.2c-7.2,4-14.6,5-22,5.4c2.1,0,4.3,0,6.4,0.1
				c1.3,0.2,3.5,0.5,4.8,0.7c0.7-0.5,1.6-0.9,2.5-1.2c-0.2-0.4-0.4-0.9,0.2-1.1c1.9-0.6,4-1,6-1.2c-0.3-0.4,0-0.4-0.3-0.8
				C142.5,43.9,143.5,43.2,143.9,42.2L143.9,42.2z M133,37.9c-5.2,2-10.5,3.4-16,4.5c0.9,0.1,1.8,0.2,2.6,0.4
				C124.1,41.1,130.7,40.5,133,37.9L133,37.9z M138,29.8c-4.3,3.8-10.1,7.3-14.9,10.4c0.9-0.4,1.8-0.6,2.8-0.6
				C129.7,37.5,135.5,33.8,138,29.8z M137.2,27.4c-1.3,1.3-2.8,2.3-4.4,3.2c0.4,0.2,0.5,0.6,0.1,0.9c-5.3,3.3-10.9,6.1-16.7,8.6
				c0.3,0.1,0.5,0.2,0.8,0.4c5.9-2.3,11.5-5.4,16.6-9.1C135.2,30.3,136.4,29,137.2,27.4z M115.2,40.4c0.8-0.1,1.7,0.2,2.2,0.9
				c-1.2,1.2-2,1.3-2.9,0.9c-0.3-0.3-0.1-0.7,0.2-0.7c0.5-0.2,1.1,0.1,1.5-0.3c-0.3-0.1-0.9,0.2-1.1,0S114.6,40.6,115.2,40.4
				L115.2,40.4z M116.5,46.4c2.6-0.4,10.3,4,14.2,4c-0.9,0.2-2.4,0-3.4,0.2c3.5,0.8,6.6,2.6,9.8,3.7c-5.3-1.5-16.1-4.2-21.1-7.1
				c-0.2-0.1,0-0.5-0.3-0.5c-1,0.4-0.8,1.1-1.6,1.4c0.3-0.8,0.6-1.5,1-2.2c0.6-0.1,1.1-0.4,1.5-0.8c-0.1-0.2-0.1-0.4-0.2-0.6
				l-1.1-0.5c-0.5-0.7-1.3-1.2-2.2-1.3c0.6-0.2,1.3-0.2,1.9,0c0.6,0.4,1.1,0.8,1.6,1.3c0.4,0.5,1,0.7,1.6,0.6
				C117.9,45.4,117.3,46,116.5,46.4L116.5,46.4z M120.7,49.6c5.3,3.6,12.2,4.7,18.2,5.7C132.3,53.3,126.7,52.1,120.7,49.6
				L120.7,49.6z M149.9,62c-13.9,0-23.2-6-31.4-10.2c5.1,4.5,16.4,8.7,20.5,9.4C142.6,62,146.3,62.2,149.9,62z M114.1,48.3
				c1.1,0.7,2.6,1.7,2.9,2.5c0.2,0.8-0.2,0.8,0,1.6c-1.1,1.2-2.1-0.1-3-1c-0.3,0.3-0.3,0.2-0.6,0.5c2.4,2.1,3.2,1.7,5,1.4
				c-0.3-1-0.6-2.3-0.8-3.3C116.7,49.1,115.4,48.4,114.1,48.3L114.1,48.3z M143.5,68.9c-8.8-3.8-17.3-8.4-25.3-13.6
				c-1-1.3-2-0.8-1.4,0.1c1.1,0.3,2.1,1,2.9,1.9C126.8,61.1,135.1,67,143.5,68.9z M114.6,56.7c1.1,0.8,1.8,2.4,3.6,3.1
				c0,1.5-2,3.4-3.7,3c2.2-0.4,2.8-1.5,2.3-2.5C115.9,59.2,115.1,58,114.6,56.7z M140,75.1c-7.9-4-15.2-9.1-21.8-15
				c-0.3,0.3-0.4,0.6-0.4,1c6.1,5.7,14.4,10.2,21.1,13.7c-1.8-0.3-8.2-3-10.4-3.9C130.5,72.1,139.7,76.1,140,75.1L140,75.1z
				 M111.3,68.4c0.3-0.2,0.6-0.4,0.9-0.6l13.6,14.6L111.3,68.4L111.3,68.4z M148,87.6c-13.8-6.7-25-14.5-32.2-23.8
				c-0.1-0.5-0.6-1.6-1.4-0.7c0,0.5-0.5,0.9-1.5,0.9c1.3,0.6,2.1,0.3,2.4-0.1c4.8,4.7,7.1,10.2,14.5,14c-1.3-0.1-2.5-0.6-3.6-1.2
				c2,1.5,4.2,2.7,6.5,3.5c-0.4,0.2-1,0.2-1.4,0c1.3,1.3,3.5,2.3,5.2,3.5c-0.4-0.1-0.9-0.2-1.3-0.3c0.6,2.1,2.7,2.8,5.9,4
				c-0.4-1.3-1.3-2.3-2.4-3.1C141.7,85.7,145.7,87.5,148,87.6L148,87.6z M113,60.8c-0.4,0.1-0.7,0.4-0.8,0.8c0.7,0,0.9,0.3,1.3,0.8
				c0.5,0,1-0.3,1-0.8c0,0,0,0,0-0.1C114.2,60.9,113.7,61,113,60.8L113,60.8z M112.2,62c0.6,0.3,0.8,0.8,0.9,1.8
				c-0.2,0.3-0.2,0.2-0.4,0.2c-0.5-0.8-0.9-0.4-1.3-0.8C111.5,62.7,111.8,62.3,112.2,62L112.2,62z M108.6,65.5l0.8-0.4
				c0.9,0.6,1.2,2.2,2.7,1.7c-0.2-1-1.7-1.3-2.1-2.1l1-1c2.5,0.7,1.2,2.6,2.3,4.1C109.6,68.6,110.2,66.3,108.6,65.5L108.6,65.5z
				 M125,87.4c-7.6-3.9-12-11.3-16-18.4c0.1,0.4-0.1,0.9-0.5,1c0,0,0,0,0,0C112.4,77.4,118.3,84.7,125,87.4z M104.5,66.4
				c0.9-0.3,1.8-0.3,2.7-0.2c0.7-0.1,1,0.4,1.4,0.6c0.1,0.7,0.4,1.3,0.5,2c-0.5-0.1-1-0.4-1.4-0.8c-0.5-0.5-0.9-0.5-1.6,0
				c0.1,0.4-0.1,0.8-0.5,0.9C105.3,68.1,105.3,67.2,104.5,66.4L104.5,66.4z M103.4,67.2c1.7,3.3,3.5,6.5,5.2,9.8
				c-2-3.2-4-6.4-5.9-9.6C102.9,67.4,103.2,67.3,103.4,67.2L103.4,67.2z M81.1,79.9c-0.4-0.2-0.7-0.3-1.2-0.5c-0.2-1-0.5-2-0.9-2.9
				c-0.3-0.5-0.7,0.2-0.4,0.5c0.1,0.5,0.2,1,0.3,1.5c-0.6-0.3-1-0.4-1.6-0.8c1-0.4,1-2.5,1.1-3.9c0.2,0.6,0.4,1.2,0.8,1.7
				c0.4-0.4,0.8-0.8,1-1.3C80.4,76.2,80.4,78,81.1,79.9L81.1,79.9z M85.9,78.2c0.8,2.2,0.6,3.6-0.2,4.3c0.2,0.2,0.4,0.4,0.6,0.6
				C87.2,82.3,87.4,80,85.9,78.2z M90.9,80c-0.2,0-0.7,0-0.9,0.1c0.8,1.5,1.2,3.2,1.2,4.8C92,83.1,91.1,80.3,90.9,80z M103.1,74.3
				c-0.3-1.2-1.1-1.9-2.8-2.4c-2-0.5-5-4.5-6.9-6.7c1.2,2,5.2,7.4,6.5,7.2c0.9-0.1,1.9,1.8,3,2.6C103.3,75.8,103.2,75,103.1,74.3
				L103.1,74.3z M56.8,38.3c-0.7-0.3-0.9,0.1-0.5,0.3s0.7,1.1-0.2,1.2c-0.7,0.2-0.7,0.3-0.3,0.7c1.1,0.2,3.1,1.9,4.1,2.7
				C59.1,41.4,58.1,39.8,56.8,38.3L56.8,38.3z M60.3,81.1c-2.1,0-3.2-1-5-2c0.2,1,0.8,1.8,1.7,2.1c0.9,0.4,1.7,0.8,2.4,1.4
				c0.8,0,1.5-0.7,1.8-0.7C60.8,81.8,60.4,81.5,60.3,81.1L60.3,81.1z M66.5,82.9c0.4,0.2,0.7,0.8-0.1,1.3c1.1,0.6,2.5,0.5,3.6-0.2
				c1.1,0.8,2.6,0.8,3.7,0c0.2-0.7,1-0.8,2.2-0.4c-0.6-0.3-0.8-0.7-1.2-1.5c-0.8,0.1-1.5,0.5-2,1.1c-0.7,0.2-1.5,0.1-2.2-0.1
				c-0.7-0.2-1.3-0.6-1.8-1.1c-0.6-1.5-2-0.1-2.9-0.4c-1.2-0.6-2,0.1-1.9,1.5C64.6,83.4,64.9,82,66.5,82.9L66.5,82.9z M74.7,65.4
				c-0.7,1.9-4.1,6.2-7,7.4c1.7-0.3,3.8-2.2,5.1-3c-0.6-0.3-0.4-0.4,0.4-0.6C74.1,68.2,74.7,66.8,74.7,65.4L74.7,65.4z M82,60.2
				c-1.9,3-6.2,8.8-9.4,9.2c2.9,2.6,6.3,0.1,7.6-1.3c1.9-2.1,3.5-4.3,2.5-7c-0.2,2.5-1.3,4.8-3.1,6.6c-1.1,1.2-2.7,1.8-4.3,1.7
				C78,67.4,81.2,63.7,82,60.2L82,60.2z M84.5,68.8c0-0.3-0.2-0.5-0.4-0.6c-0.3,0-0.5,0.2-0.6,0.4c-1,2.5-0.8,5.4,0.5,7.8
				c0.6,1.1,2,0.6,2.8,0c0.8,0.7,2.2,0.7,1.8-0.7c-0.5-0.5-1.3-0.5-1.9,0c0,0-0.1,0.1-0.1,0.1c-0.4,0.5-0.9,0.3-1.4-0.2
				C84,73.8,84.3,71.1,84.5,68.8L84.5,68.8z M91.7,69.7c0.4,0,0.6,0.1,0.9,0c0.8,1.7,1.7,3.3,2.9,4.8c0.6,0.9,0.3,2.2-0.7,2.7
				c-0.2,0.1-0.4,0.2-0.7,0.3c-0.2-1.7-0.4-2.3-1.5-3c-1.3-0.6-3.9-3.8-4.5-5.3c1,1.4,3.5,4.8,5.6,5.3c-0.1,1,1.7,1,1,0.1
				C93.6,73,92.7,71.4,91.7,69.7L91.7,69.7z M96,48c-1.7,2.7-2.1,10.3,0.2,12.8C95.4,56.6,95.3,52.2,96,48z M99.2,42.6l-0.6,4.6
				l-1.2,5.5l0.7-5.4l0.3-3.2c-1,1.4-1.2,1.2-2.2,2c1.3-2.8,3.5-5.9,3.9-8.8C100.3,38.5,99.8,40.5,99.2,42.6L99.2,42.6z M103.6,39.9
				c0.3-0.4,0.6-0.5,0.8,0c-0.6,2-1.2,4-1.7,6C103,43.9,103.3,41.9,103.6,39.9z M101.6,41.2c0.2-0.5,0.7-0.5,0.8-0.1
				c-0.8,2-1.5,4.1-2.3,6.1C100.6,45.2,101.1,43.2,101.6,41.2L101.6,41.2z M100.7,32.8c-0.2,0.8-0.7,3.1,0.5,2.9
				c0.3,1,0.1,2.1,1.3,2.9c-0.1-1,0.1-1.1,0.5-1.5c-0.4,0.2-1,0.1-1.3-0.3c-0.2-0.5,0.3-1.4-0.1-1.6
				C100.6,35.6,100.8,33.6,100.7,32.8L100.7,32.8z M101.3,30.9c-0.2-0.4,0-0.7,0.5-0.6c2.7,2.5,2.4,5.6,2.1,7.9
				C104.1,35.5,103.2,32.9,101.3,30.9z M99.2,38.5c0.9-2.7,1.1-5.9,0-7.9c-0.2,0.1-0.5,0.2-0.7,0.3c1,2.3,1.1,5,0.1,7.4
				c-0.7,1.5-1.6,3.8-3.1,4.9c1.8-1.7,2.4-8.6,2-10.5c-0.2,3.5-0.5,7.9-2.9,10.3c-1,1.9-7.8,3.7-10.8,6c1.3-0.3,2.6-0.4,3.8-0.2
				c0.7-1.3,4.2-3,5.9-3.5c0.8-0.4,1.6-0.8,2.3-1.4c-0.5,1.2-1.4,2.1-2.5,2.8C96.3,46,97.9,42.1,99.2,38.5L99.2,38.5z M97,30.6
				c0.2-1,1.9-0.6,3.6-2.1c-0.5,0.9-0.5,1.1,0.4,1.6c-1.5-0.2-3,0.8-3.9,1.3C96.9,31.2,96.8,30.8,97,30.6z M103.3,21
				c-1.3-0.1-3.2,0-5.5-0.1c-0.2-0.1-0.5-0.1-0.7,0c-1.7,0.8,0.6,1,1.2,1C99.9,21.4,101.6,21.1,103.3,21L103.3,21z M96.2,22.8
				c0.8,0.2,0.8,0.4,1.7,0.6c-0.1,0.4-0.2,0.2-0.2,0.6c-0.7-0.2-1.4-0.2-2.1-0.1C96,23.8,96.3,23.3,96.2,22.8L96.2,22.8z
				 M104.8,25.8c-0.6-0.6-1.5-0.7-2.3-0.3c-0.6,0.3-0.9,1.2-1.3,1.3c-0.6-0.1-0.4-0.6-0.2-1.1C103,25.2,103.7,24.6,104.8,25.8z
				 M88.8,60.9c1.2,4.5,4.7,11,8.1,12.5C94.5,70.7,90.2,66.1,88.8,60.9L88.8,60.9z M138.5,53.9c2.9,2.7,6.1,3.1,9.9,1
				C145.6,55.1,142.2,55.3,138.5,53.9L138.5,53.9z M122.9,48c2.1-0.2,4.2-0.1,6.3,0.2c0.6,1.5,10.4,3.6,18,0.3
				C139,51.5,131.9,51.3,122.9,48z"/>
			<path id="_76963904" class="st2" d="M87.8,27.2c0.7-0.5,1.4-0.8,2.2-1.2c1.1-0.6,2.5-0.4,2.3,1.2c-0.2,1.2-1.1,2.1-2.3,2.1
				C89.3,28.5,88.6,28,87.8,27.2L87.8,27.2z"/>
			<path id="_76815600" class="st6" d="M130.6,24.1c-3.6,3.9-7.2,7.2-10.9,11.1c0.3-0.7,0.5-2,0-2.4c-1.6,1.2-3.3,1.4-4.6,3.1
				c-1.1,1.1-2.5,1.8-4,2.2c0.9-1,1.2-2,0.9-2.5c-1.3,1.3-3,2.5-4.2,3.9c-1.2,2.6-2.6,6.6-0.5,9.9c-0.3,3.6,0.4,7.1,1.9,10.4
				c0-3.7-1.3-7.5,0.1-9.8c-1.5-2.7-1.8-5.9-0.9-8.8c0.4-1.5,1.3-2.2,3.5-2.5c1.5-0.3,3-1,4.1-2c0.9-0.6,1.8-1.5,2.7-1.6
				c0.1,0.6,0,1.3-0.3,1.9c2-0.8,4.9-1.1,6.2-2.3c-1.5,0.6-0.1,0.3-1.4,0.3c-0.9,0.2-1.2-0.2-1.3-0.7c0.3-0.6,0.8-1.1,1.4-1.3
				c0.5-0.3,1.1-0.5,1.6-0.7C127,29.6,128.8,26.9,130.6,24.1L130.6,24.1z M114.7,40.9c-1.4-0.2-2.7,0.3-3.7,1.3
				c-0.5,1-0.5,2.3,0.1,3.2C111.3,42.8,111.6,42.1,114.7,40.9z M118.3,37.5c0.6,0.1,1.1,0,1.7-0.2c-1,0.9-2.9,2.5-4.3,2.8
				C116.7,39.4,117.6,38.5,118.3,37.5z M117.9,45.4c2.9,1,5.9,1.4,8.9,1.2c-2.5,0.4-5.1,0.6-7.6,0.4c-0.8-0.3-1.6-0.5-2.5-0.5
				C117.1,46,117.4,45.9,117.9,45.4z M114.1,53.7c-0.2,0.4-0.3,0.6,0,0.8c0.4,0.4,0.6,0.8,0.8,1.6c0.2,0.5,0.7,0.9,1.3,1
				c0.5-0.3,0.6-0.4,0.3-0.6c-0.5,0.2-1-0.5-1.2-1C115.3,54.7,114.8,54,114.1,53.7L114.1,53.7z M111.9,50.6
				c-0.4-1.3,0.5-0.9,0.8,0.3c0.9,2.9,1,6,0.3,8.9c0.8,0,1.3,0.7,1.8,1.3c-0.6-0.5-1.3-0.6-2.1-0.5c-1.4,1.5-2.7,3.6-3.1,4.1
				C112.5,60.6,113.4,55.4,111.9,50.6L111.9,50.6z M47.2,39.6c0.8,0.9,2.1,1.1,3.1,0.5c0.4-0.1,0.7,0.5,0.6,1
				C48.7,42,46.8,41.1,47.2,39.6z M48.1,37.1c-0.4,0.2-0.3,0.9-0.2,1.2c0.7-0.4,1.6-0.6,2.4-0.5C49.8,37.1,48.9,36.8,48.1,37.1z
				 M54.3,34.6c0,1.5,0.6,2.9,1.7,3.8c-1.5,0.5-3.2,0.2-4.4-0.8c0.7,0.1,1.3,0.1,2-0.1C53.4,36.5,53.6,35.4,54.3,34.6z M58.4,27.9
				c-0.3,1.1-1.5,1.8-2.6,1.6c-0.3-0.1-0.6-0.2-0.8-0.4c-0.4,0.7-0.2,1.7,0.5,2.2c-0.2,1-0.6,2,0,3.2c-0.6,0.3-2.9-0.8-0.9-3.3
				c-1.8-1.8-0.5-2.8,0.8-3.5C55.9,29.1,57.3,28.3,58.4,27.9L58.4,27.9z M67.2,30.2c-1.2,0.1-1.4,0.9-1.7,1.9
				c-1.2-0.4-1.4,0.1-1.4,0.8c1.3-0.1,2.4,0.1,2.9,0.9c-1.2,0.6-2.4,1.2-3.6,2c-0.9,0.8-2.2,1.5-1.7,2.8c0.1,0.9,0,1.8,0.1,2.7
				c-1-1.7-2.8-3-2.7-4.5c0.3-0.3,0.9-0.8,0.7-1.5c0-1,0.4-1.9,1.9-1.5c0.5,0.6,0.7,1.4,0.7,2.2c0.8-0.7,3-2.1,2.5-2.5
				c-0.9,0-1.9-0.5-2.7,0.1c-1-1.3,1.2-2.2,2.5-2C64,30.4,65.4,28.5,67.2,30.2L67.2,30.2z M68.7,55.8c-0.9-1.5-2.6-4.1-2.2-5.8
				c-2.7-2.5-5.6-5.2-8.3-7.8c2.5,3.4,5.2,6.6,7.6,10c0.6,0,1,1.1,1.5,1.6c-0.1,0.4-0.4,0.3-0.8,0.3C67,54.9,67.8,55.5,68.7,55.8z
				 M80.5,49.1c-0.5,1-1.3,1.8-2.3,2.3c-9.8,1.1-8.4,5.1-11,6.6c1.9-2.1,3.4-4.9,0.7-6.9C69,51.3,70,52,70.6,53
				c1.8-1.5,4-2.3,6.3-2.4C79,50.4,79,49.6,80.5,49.1L80.5,49.1z M83.1,44.4c-2.1,1.3-4.2,2.8-6,4.5c-0.8,0.7-1.9,1.1-3,1.1
				c0.8-0.5,1.6-1.1,2.3-1.7C78.2,46.4,80.5,45.1,83.1,44.4L83.1,44.4z M86.5,24.8c-0.6,0.1-0.6-0.1-0.7,0.4
				c1.4,2.1,3.1,3.8,5.2,5.2c0.4,0.2,0.7,0.2,0.2-0.4c-0.8-0.3-1.4-1-1.8-1.7c0.9-0.2,1.4-1,1.3-1.8c-0.1-0.3-0.2-0.6-0.4-0.8
				c0.5-0.7,2-0.5,2.7,0.3c3.5,2.1,4.5,0.8,9.4-1.3c-4.2,1.8-6.6,2.4-9.5,0.7c-1.2-0.6-3,0.1-3.7,0.5c1.7,0.1,1.2,1.9-0.3,1.7
				C87.7,26.9,86.8,26,86.5,24.8z M101.6,27.8c0.4,0.3,0.8,0.5,1.2,0.8c0-0.5,0.6-0.9,1.6-1.1c0.8,0,1.5-0.2,2.2-0.6
				C103.6,27.6,102.4,26.4,101.6,27.8L101.6,27.8z M102.1,30.2c-0.3-0.5-0.3-0.5,0.3-0.4c3.6,3.2,2.5,6.8,2.5,9.4
				C105,36,104.5,32.2,102.1,30.2z M100.9,41.3c0.2-0.5,0.5-0.8,0.6,0c-0.2,1.2-0.5,3-1.7,4.1C100.5,44.1,100.9,42.7,100.9,41.3
				L100.9,41.3z M103.8,48.3c-0.3-0.7-0.5-0.6-0.8-0.1c-0.6,0.9-0.5,1.7,0.6,2.9C103.5,49.7,103.2,49.3,103.8,48.3z M104.7,40
				c0.1-0.5,0.5-0.7,0.6-0.2c-0.3,2.1-0.9,4.7-2.3,6.5c-1,1.5-0.8,1.1-1.8,2.6c-1.8,3.3,0.9,3.9,1.5,5.5c0.2,0.2-0.4,0.1-0.9-0.1
				c0.1,1.2,0.2,2.5,0.2,3.7c-0.4-1.8-1.1-3.4-1.6-5.2c-1-1.5-0.5-3,0.5-4.4C102.6,46.6,104.9,43.1,104.7,40z M100.9,59.9
				c-1.2-2.3-1.8-4.9-1.8-7.6c0-0.4-0.5-0.3-0.7,0.1C97.9,55.3,99.4,58.4,100.9,59.9L100.9,59.9z M106.6,65.2c1.8-0.1,3,1.1,3.5,3.2
				c0.6,2.3,2.4,5,3.7,7.4c-1.7-2.2-3.1-4.5-4.4-7c-1.4-3.8-2.9-2.5-6.3-2.1c-0.7,1-1.8,1.7-3,1.8c0.2,2.7,2.7,2.4,3.2,3.7
				c0.8,2,1.8,3.8,2.8,5.7c-0.8-0.1-3.4-1.2-3.6-1.7c-1.1-1-2.5-1.6-4-1.6c-0.6,0-0.8-0.6-0.1-1c1.8,0,3.5,0.7,4.6,2.1
				c0.7,0.4,1.6-0.8-0.4-3.3c-1.2-1.5-3.4-1.7-4.5-4.1c1.9,0.1,3.7,0,3.9-1.2c-1.6-1.2-2.9-2.8-3.6-4.6c0.9,1,2.2,1.6,3.6,1.7
				c-0.3,0.4-0.2,0.7,0.3,0.9C103.6,65.9,104.5,65.9,106.6,65.2L106.6,65.2z M114.6,74.6c-0.9-2.1-2.5-4-3.6-6
				c4.7,4.3,9.1,9.7,13.6,14.2C121.1,80.3,117.8,77.6,114.6,74.6L114.6,74.6z M115.8,66.4c0.1,0.5-0.3,0.9-0.6,0.6
				c-0.6-1-1.7-1-1,0.2c2.2,2.1,4.7,4.4,6.9,6.6c-2.8-2.2-5-4.3-7.8-6.5c-0.8-1.1-0.6-2.7,1.1-2.5C115,65.1,115.5,65.7,115.8,66.4
				L115.8,66.4z M116.4,58.2c3.8,2,6.1,5.3,9.8,6.8c4.5,4.5,11,9,20.7,11.9c-7.8-0.9-17.3-7.8-22-11.3
				C121.6,63.5,119.7,60.3,116.4,58.2L116.4,58.2z M123.5,56.7c5.8,4.6,12.3,8.3,19.3,10.9c-4.2-2.3-8.3-4.9-12.2-7.7
				C128.1,59.1,125.7,58,123.5,56.7z M88.1,45.1c-1.4,0-2.8,0.4-4.1,1c-0.4,0.7-0.2,1.2,0.8,0.8C85.8,46.1,86.9,45.5,88.1,45.1z
				 M92.7,47.1c-1.8-0.1-3.5,0.7-4.6,2.2l3-0.5c-0.8,0.8-1.4,1.8-1.6,2.9c1.4-1.5,2.4-3.9,4.6-4.3c-0.8,0.3-1.6,5.1-0.2,6
				c-0.6-2.4,0.4-4.9,1.8-7.2C94.7,46.6,93.7,46.9,92.7,47.1L92.7,47.1z M86.7,50.1h1.1l-3.5,4.6C85.1,53.1,85.9,51.6,86.7,50.1
				L86.7,50.1z M73.4,70.1c-1,1.4-2.3,2.6-3.9,3.4c0.2,0,0.6-0.1,1.1-0.2c1.6-0.5,2.9-1.5,3.9-2.9C73.9,70.4,73.9,70.3,73.4,70.1z
				 M65.8,58.7c1.9-0.6,3.6-1.6,5.1-2.9c-0.1,0.4-0.4,0.8-0.3,1.2C69.2,58,67.5,58.6,65.8,58.7z M78.8,54.9c-1,0.1-1.9-0.1-2.8-0.5
				c-0.9,0-1.8,0.3-2.6,0.9c-1.8,1.5-3.8,4.2-3.1,6.5c0.8-0.5,2-2.2,3.3-2c1-0.6,0.8-0.7-0.1-0.5c-0.9,0-1.7,0.4-2.3,0.9
				c-0.5-0.8,1.4-4.6,4.6-5.1C76.8,55.4,77.9,55.3,78.8,54.9L78.8,54.9z M80.8,56.8c-1.6,1-3.4,1.9-5.2,2.5
				c-1.2,0.5-1.4,0.7-1.6,1.9c-1,0.7-1.7,1.7-2,2.8c-0.1,0.8-0.5,1.5-1.1,2.1c0.5-0.3,1.2-0.9,1.7-1.2c-0.2,0.9-0.6,1.7-1.2,2.4
				c0.4-0.1,0.8-0.2,1.2-0.2c-1.4,2.1-3.3,3.8-5.5,5.1c2.7-1,5-2.9,6.5-5.4c-0.2-0.4-0.4-0.4-0.8-0.3c0.3-0.5,0.5-1.7,1-1.9
				c0.8-0.5,1.6-2,1.5-4c1.2,0.5,3.8-2.5,5.5-3.4C81.5,56.9,81.5,56.7,80.8,56.8L80.8,56.8z M94,37.6c-0.2,0.3-0.6,0.6-1,0.7
				c-2.2-0.1-4.3-0.5-6.3-1.2c1.8,1.3,4.8,1.6,7.1,1.8C94,38.5,94.4,38,94,37.6L94,37.6z M92.4,29.3c-0.7,0-0.6,0-0.5,0.3
				c1.1,2.2,2,4.6,2.5,7C94.7,34.5,93.7,31.7,92.4,29.3L92.4,29.3z M96.7,36c0.1-1.6-0.1-3.2-0.6-4.7c1.2,0.2,0.4,0.7,2.1-0.3
				c0.1,2.4,0.3,5.5-0.6,7.6c0.3-2.4,0.4-4.7,0.4-7.1c-0.3,0.3-0.8,0.4-1.2,0.4C97.3,32.7,97.2,35.5,96.7,36L96.7,36z M101.6,27
				c-1.1,0.9-2.4,1.6-3.9,1.9c-0.1,0.5-0.1,0.7,0.3,0.7c1.8-0.6,2.9-1.9,4.4-2.7c1.7,0.2,2.9,0.5,3.8-0.2c-1.1,0.4-2.3,0.3-3.4-0.2
				C102.1,26.4,101.9,26.5,101.6,27z M97.3,56.6c0.1,1.6,0.5,3.3,1,4.8c-0.2,0.4-0.3,0.3-0.8,0.6c0.6,1.6,1.4,3.1,2.4,4.5
				c0.4,0.3-0.2,1.2-1,1.1c-2.3-1.6-3.3-3.6-4.5-5.6c-0.3-0.9-0.8-1.7-1.4-2.3c0.1,0.6-0.1,1.2-0.4,1.8c-1.3-1.7-2.4-8.2,0.6-13.1
				c-3.2,3.3-3,10.7-0.8,14.8c0-0.8,0.2-1.1,0.7-1.2c0.1-0.5,0.3-0.7,0.7-0.4c0.9,2.2,2.1,4.8,3.9,6.2c1.3,0.5,2.8,0.3,3.9-0.4
				c-1.6-1.5-2.9-3.3-3.8-5.3c0.9,0,1.5-0.2,1.6-0.8C98.5,59.7,97.8,58.2,97.3,56.6L97.3,56.6z M93,57.8c1,2.4,2,5.7,4.5,7.5
				c-1.7-1.7-0.4-3.1-1.6-4.4C94.4,60.6,93.8,58.7,93,57.8z M87.5,49.3c0.3-0.7-4.1-0.2-5.7,0.8c-0.2,0.5,0.2,0.7,1.1,0.5
				C84.3,49.9,85.9,49.4,87.5,49.3z M88.2,56.8c0.2,0.7,0.7,0.3,1,0c-0.6-0.9,0-2.5,0-3.8c-0.7,1.2-1.7,2.1-3,2.5
				c-1.3,0.3-2.5,0.9-3.5,1.8c0.1-1.6,0-4.1,2.1-5.9c-1.3,0.5-5.2,3.1-5.2,4.8c0.9-0.8,2.5-1.7,2.8-1.5c0.5,0,0.3,0.5,0.3,1
				c-0.4,0.9-1,1.7-1.8,2.3c0.3-0.1,0.6,0.1,0.8,0.3c-1.2,1-2,2.3-2.6,3.7c-0.3,0.6-0.7,0.6-0.9-0.2c-0.6,1.4-1.6,2.6-3,3.3
				c0.9,0.5,0.5,2-0.6,3.3c0.6-0.3,1.2-0.7,1.7-1.3c0.7-0.9,1.1-2.1,1-3.2c0.3,0,0.5-0.3,0.6-0.8c0.4,0.5,1,0.4,1.3-0.2
				c0.8-1.8,2-3.5,3.3-5c1.1-1.2,2.5-2,4.1-2.2C88,55.5,88.1,56,88.2,56.8L88.2,56.8z M82.1,71.4c-0.2-0.8,0-1.7,0.5-2.4
				c-1.3,0.7-2.6,2-2.8,3.2C80.8,71.7,81.2,70.8,82.1,71.4L82.1,71.4z M85.1,77.6C84,77.5,83,76.9,82.4,76c-0.4-0.6-1.2-0.7-1.4-0.2
				c-0.1,1.4-0.1,2.8,0.3,4.2c1.6-0.2,3,1.4,4.4,2.4c0-1.2-1.7-2.5-2.7-3.2c-0.6-0.4-0.8-1.1-0.4-1.7c0,0,0,0,0-0.1
				C83.3,78.2,84,78.2,85.1,77.6L85.1,77.6z M91.2,74.9c1,0.4,1.9,1.2,2.4,2.1C94,76.2,93.7,74.6,91.2,74.9L91.2,74.9z M94.8,72.2
				c0.7,0.8,1.8,1.9,2.7,1.2c-0.1,1.5,0,3.1-1,4.3c-1,0.6-1.4,0-0.9-0.7C96.3,76.1,96.8,75.5,94.8,72.2L94.8,72.2z M91.3,80
				c0.3,0.8,0.5,1.7,0.5,2.6c1.3,0.9,2.5,2.1,3.2,3.5C94.6,83.9,92.7,81.7,91.3,80L91.3,80z M99.7,90.5c1.2,0.5,1.4-0.9,2.2-1.7
				c0.7-0.5,2.4,0.2,2.8-0.1c-1.2-0.9,1-1.1,1.4-1.1c-1-0.2-2-0.6-2.9-1.2c-0.6,0.1,0.2,1.5-0.3,1.7c-1.2-0.1-2.4-0.6-3.2-1.5
				c-0.4-0.8-0.9-0.7-0.9,0c0.1,0.7-0.2,1.4-0.7,1.8C98.9,88.9,99.3,89.9,99.7,90.5L99.7,90.5z M105.1,68.8c0.4,0.2,0.9,0.3,1.3,0.3
				c0.8,3.1,2.9,6.7,4.5,9.8C108.6,75.8,106.6,72.4,105.1,68.8z M92.6,64.3c-0.2,0.8-0.6,1.5-1.2,2.1c1.8,2,3.6,4.8,5.8,6.3
				c-1.1-1.3-2-2.8-2.6-4.4c-0.7-0.1-1.3-1.2-1.4-2L92.6,64.3L92.6,64.3z M89,62c-0.9,2.3-0.9,4.7,0,7c0.6,0.7,1.6,1,2.4,0.7
				c-0.2-0.8,0-0.7,0.8-0.9c-0.4-0.7-1-2-1.5-1.6s-1-0.2-0.3-1.1C89.8,64.8,89.3,63.4,89,62z M88.6,58.4c-0.6,0.5-0.9,1.2-1.9,1
				c0.8,2.8,0.1,7.8,1.2,8.7c-0.4-1.5-0.4-3.1,0.1-4.5C88.4,61.9,88.6,60.1,88.6,58.4L88.6,58.4z M90.9,74.8c-0.7,0-1.4,0.3-1.9,0.9
				c-0.9-1.2-1.6-1-2.9-0.1c-0.8-1.5-0.9-3.2-0.2-4.7c0.8-2.1-0.4-3.9-0.2-6.2c-0.3,0.5-0.9,0.9-1.5,1.1c-1.2,2.1-2.8,4.3-6,4.7
				c2.1-1,3.8-2.6,4.9-4.6c0-0.6,0.5-1,1.1-0.9c0.1,0,0.2,0,0.4,0.1c0.6-0.5,1-1,1.4-1.7c0.4,0.2,0.8,1.1,0.7,2.8
				c-0.2,2.2,1,4.1,2.2,5.9c-2.5-1.6-2.8,0.6-2.5,2.3C87.5,73.2,89.4,74,90.9,74.8L90.9,74.8z M49.5,77.8c-0.9,2.4,0.6,4.1,2.3,3.5
				C50.4,80.5,51.1,77.9,49.5,77.8L49.5,77.8z M59.6,75.2c-0.3,0.4-0.3,0.4-1.1,0.5c0.7,0.2,1.2,0.7,1.5,1.4
				C60.2,76.5,60,75.7,59.6,75.2L59.6,75.2z M56.7,73.3c-0.8,1,1.9,0.6,2.8,1.9C60.2,73.7,58,72.7,56.7,73.3L56.7,73.3z M57.1,76.7
				c-0.2,0.4-0.7,0.7-1.1,0.6c0.1,1.1,0.7,2,1.5,2.6c0.8,0.6,1.9,0.8,2.9,0.7C59,79.5,57.9,78.2,57.1,76.7L57.1,76.7z M61.8,82.8
				c0.8-0.6,0.6-1-0.6-0.5c-0.5,0.5-1.8,1.1-2.1,0.6c-0.6-0.5-1.3-0.9-2.1-1.1c-0.5,0-0.9-0.1-1.2-0.5c-0.4,0.3-0.4,0.5-1,0.6
				c-0.6-0.1-0.9-0.3-0.6-0.7c0.5-0.6,0.7-1.5,0.2-1.9c-0.2,0.6-1.3,1.3-2.1,1.6c0.9,1.3,2.4,2,4,1.8c0.8,1.1,1.6,0.9,2.6,0.8
				C59.9,83.6,60.9,83.3,61.8,82.8L61.8,82.8z M57.1,85.3c-0.8-0.4-1.7-0.6-2.6-0.4c-0.5,0.2,0.3,0.5,0,0.7c-0.6,0-1,0.7-1.3,0.4
				c-0.3-0.9,0.6-2.4,1.6-2C55.7,84.2,56.5,84.6,57.1,85.3L57.1,85.3z M56,87.5c-0.6-0.5-1.5,0-1.9,0.4c0.3,0.8,0.9,1.3,1.6,1.6
				C55.3,88.9,55.4,88.1,56,87.5L56,87.5z M58,86.1c0.9,0.6,1.3,1.5,2.6,1.9c-0.8,0.6-1.8,0.6-2.6,0C57.9,87.3,58.1,86.9,58,86.1
				L58,86.1z M63.3,85.8c-0.7,0.6-1.7,0.8-2.5,0.5c0.2,0.4,0.3,0.9,0.2,1.3c0.2-0.1,0.2-0.5,0.3-0.7C62.3,87.2,63,86.9,63.3,85.8
				L63.3,85.8z M63.4,84.5c1,0.9,3.3,0,3.2-0.9C65.9,82,64.2,84.1,63.4,84.5L63.4,84.5z M74.9,83.7c-0.8,0.1-1.2,0.6-0.9,1.3
				c1.6,1.5,3.2,0.3,3.5-1.2C76.7,84.1,75.7,84.1,74.9,83.7z M76.9,72.5c-2.6,3-7.3,6.2-10.8,8.9c1.3-0.6,1.7-0.7,2.2-0.3
				c1.7-1,6-4.2,8.6-5.7C76.5,74.5,76.8,73.5,76.9,72.5L76.9,72.5z M87.1,79c1,1,1.3,3.4,2.5,5.1c-0.8-0.8-1.6-1.6-2.6-2.2
				C87.4,81,87.4,80,87.1,79z"/>
			<path id="_76815528" class="st7" d="M55,118.5c4.4,0.6,7.2,0.1,11-2.3c4.6-2.9,8-3.5,13.9-0.3c5.2,2.8,7.8,3.8,13.2,1
				c7.4-3.7,8.8-5.3,16.6-1.2c5.9,3.2,9.2,3.1,13.6,1.1c5.5-2.5,7.5-5.5,13.9-1.7c1.5,0.8,3.2,1.4,4.9,1.6c-1.3,1.2-2.6,2.4-4,3.5
				c-0.9-0.2-1.8-0.5-2.5-1c-3.4-2.1-7.1-0.1-10.7,2.2c-4.3,2.7-10.2,2.7-16.1-0.3c-7.6-3.9-7.2-2.9-14,0.9
				c-5.9,3.3-9.1,2.4-14.9-0.6c-5.9-2.8-8.7-2.2-13.6,0.7c-1.5,0.9-3.1,1.3-4.8,1.4C59.3,121.9,57.1,120.2,55,118.5L55,118.5z
				 M42,103.3c2.2-0.9,5.7-0.2,10.4,2.2c5.7,3,8.2,3.4,11.5,1.4c5.5-3.4,9.1-5.6,15.5-2c6.1,3.5,8.7,4.7,15.3,0.9s6.8-4.6,13.7-0.9
				c4.8,2.6,8.8,4.3,14.2,1.4c5.4-3,8.1-4.8,14.8-1.2c3.8,2,6.8,3.6,11.2,2.7c0.7-0.2,1.4-0.3,1.8-0.4c-1.4,2-2.9,3.9-4.6,5.7
				c-2.5-0.1-5-0.8-7.1-2.1c-4-2.6-9.1-2.6-13.1,0c-5.7,3.6-11.8,3.5-17.6,0.1c-7.5-4.5-7.6-1.7-14.5,1.7c-4.8,2.3-8.3,2-12.6-0.6
				c-4.5-2.8-8.5-4.6-14-0.8c-4.6,3.2-8.4,3.3-13.1,1.6c-2.5-0.9-4.8-2.4-7.4-3.2C44.8,107.6,43.3,105.5,42,103.3z M37.5,94.3
				c3.4-2.6,9.4-2.2,12.9,0c7.6,4.8,11.7,3.8,16.2,0.2c4.4-3.8,9.8-2.2,14.3,0.3c6.8,3.8,8.2,4.9,15.8-1.2c4.1-3.2,8.2-2.1,12.8,0.3
				c8.8,4.7,8.2,3.7,15.9-0.2c5.4-3.2,9.7-1,14,0.9c4,1.8,6.6,3.7,10.5,2c3-1.5,6-3.3,8.7-5.3c-1.2,3.4-2.6,6.7-4.4,9.9
				c-3.4,1.6-8.3,2.6-12.1,0.8c-2-0.9-4.1-1.9-6.1-2.8c-3.3-1.5-6.9-1.9-11.6,1.4c-4.4,3.6-9.5,3.1-15.9-0.3
				c-3.6-1.9-6.9-4.1-11.1-0.4c-7.6,5.4-10.5,4.3-16.3,1.3s-7.9-4.4-14.4-0.2c-5.3,3.4-10.9,2.4-16.6-0.5c-3.5-1.8-8.5-1.8-10.2-0.9
				C39,97.9,38.2,96.1,37.5,94.3L37.5,94.3z"/>
			<path id="_76815384" class="st8" d="M55,118.5c2.2,0.4,4.5,0.3,6.7-0.2c2.1,1.3,4.3,2.2,6.7,2.7c-0.6,0.3-1.3,0.7-2,1.1
				c-1.5,0.9-3.1,1.3-4.8,1.4C59.2,122,57,120.3,55,118.5L55,118.5z M76.7,114.4c1.1,0.4,2.2,0.9,3.3,1.5c1.5,0.9,3.1,1.6,4.8,2.2
				c0.6,2.1,1.4,4.1,2.5,5.9c-2.2-0.2-4.4-1.2-7.2-2.6c-0.4-0.2-0.9-0.4-1.3-0.6c0.3-2.3-0.4-4.5-1.9-6.2
				C76.8,114.6,76.7,114.4,76.7,114.4z M105.7,113.9c1.4,0.5,2.7,1.1,4,1.8c5.9,3.2,9.2,3.1,13.6,1.1c0.5-0.2,1-0.5,1.5-0.7
				c0.4,1.6,0.9,3.1,1.4,4.5c-0.5,0.3-0.9,0.6-1.4,0.9c-4.2,2.6-9.8,2.7-15.5-0.1C107.8,119.1,106.6,116.6,105.7,113.9L105.7,113.9z
				 M138.4,115.7c1.2,0.5,2.5,0.8,3.9,1.1c-0.8,0.8-1.7,1.5-2.6,2.3C139.2,117.9,138.8,116.8,138.4,115.7L138.4,115.7z M44.4,102.9
				c2.1,0,4.8,0.9,8,2.6c1.3,0.7,2.7,1.4,4.1,1.9c0.4,0.7,0.7,1.6,0.7,2.4c0,2.2-0.1,3.2,0.2,4c-1.3-0.2-2.5-0.5-3.7-1
				c-2.3-0.8-4.5-2.2-6.8-3C46.1,107.3,45.2,104.8,44.4,102.9L44.4,102.9z M73.2,103.1c2.2,0.1,4.3,0.7,6.2,1.9
				c1.5,0.9,3.1,1.7,4.8,2.4c-0.3,2.1-0.3,4.1-0.2,6.2c-1.1-0.4-2.1-0.9-3.1-1.5c-2-1.4-4.2-2.3-6.5-2.8
				C73.9,107.3,73.6,105.1,73.2,103.1L73.2,103.1z M103.9,102.9c1.5,0.5,3,1.2,4.5,2c4.8,2.6,8.8,4.3,14.2,1.4h0.1
				c0.3,1.9,0.7,3.8,1.2,5.7c-5.2,2.6-10.7,2.2-15.8-0.9c-1.1-0.7-2.2-1.3-3.4-1.8C104.2,107.2,104,105.1,103.9,102.9L103.9,102.9z
				 M135.9,104.4c0.5,0.2,1,0.5,1.5,0.7c3.8,2,6.8,3.6,11.2,2.7c0.7-0.2,1.4-0.3,1.8-0.4c-1.4,2-2.9,3.9-4.6,5.7
				c-2.5-0.1-5-0.8-7.1-2.1c-0.6-0.4-1.3-0.8-2-1.1C136.4,108.1,136.1,106.2,135.9,104.4L135.9,104.4z M46.6,92.8
				c1.3,0.3,2.6,0.8,3.8,1.5c1.7,1.1,3.5,2,5.4,2.6c0.2,1.8-1.1,3.1-1.3,5.5c-1.5-0.5-3-1.1-4.4-1.8c-1.7-0.8-3.6-1.3-5.5-1.4
				c1-0.9,1.9-1.8,2.8-2.8C48.8,95,48,93.8,46.6,92.8z M72.1,92.3c3-0.2,6.1,1,8.8,2.6c1.8,1.1,3.7,2.1,5.7,2.8
				c-0.7,1.8-1.2,3.6-1.7,5.4c-1.3-0.5-2.7-1.1-3.9-1.8c-3.8-1.9-6-3.2-8.7-2.8C72.3,96.6,72.3,94.1,72.1,92.3L72.1,92.3z
				 M103.9,91.9c2,0.4,3.9,1.2,5.6,2.2c7,3.7,8,3.9,12,1.9c0.1,1.9,0.3,4,0.6,6.2c-3.9,1.9-8.3,1.1-13.6-1.7c-1.5-0.9-3-1.6-4.7-2.2
				C103.8,96.2,103.9,94.1,103.9,91.9L103.9,91.9z M135.8,93.3c1.2,0.5,2.4,1,3.6,1.5c2.5,1.1,4.4,2.3,6.5,2.6
				c-0.1,1.9,0.2,3.9,0.7,5.7c-1.6,0-3.1-0.3-4.5-0.9c-2-0.9-4.1-1.9-6.1-2.8l-0.3-0.1C135.7,97.4,135.7,95.5,135.8,93.3z"/>
		</g>
	</g>
	
		<path id="path5145" style="clip-path:url(#SVGID_00000145775305645400816100000005399489895630055327_);fill:#2E74B3;stroke:#FFFFFF;" d="
		M152.5,262.5v-31.6c-3.2-6.3-6.3-9.5-6.3-19s3.2-12.6,6.3-19c0-9.5,0-19-10-28.7c-12.1-15.6-38.7-9.2-45.4-25.1
		c-9.8,15.8-33.2,9.5-45.8,25.3c-9.5,9.5-9.5,19-9.5,28.5c3.2,6.3,6.3,9.5,6.3,19s-3.2,12.7-6.3,19v31.6c17.3,7.4,38,9.5,55.4,9.5
		C117.1,271.8,135.4,270.1,152.5,262.5z"/>
	
		<path id="path5113" style="clip-path:url(#SVGID_00000145775305645400816100000005399489895630055327_);fill:#FFFFFF;stroke:#424242;" d="
		M97.2,185.2l0.1-11h-3.8v11.1C94.7,185.4,96,186.4,97.2,185.2L97.2,185.2z"/>
	
		<path id="path5097" style="clip-path:url(#SVGID_00000145775305645400816100000005399489895630055327_);fill:#FFFFFF;stroke:#424242;" d="
		M108.4,165.8v-7.7h-3.5l0.2,7.7C106.2,165.9,107.3,165.9,108.4,165.8L108.4,165.8z"/>
	
		<path id="path5105" style="clip-path:url(#SVGID_00000145775305645400816100000005399489895630055327_);fill:#FFFFFF;stroke:#424242;" d="
		M82.3,170.2l-0.1-11.9l4.1-3.5v13.4c-1,0.1-4.3-2.5-4.1,1.9L82.3,170.2z"/>
	
		<path id="path5109" style="clip-path:url(#SVGID_00000145775305645400816100000005399489895630055327_);fill:#FFFFFF;stroke:#424242;" d="
		M86.2,184.8l0.1-5.3l-4.1-0.1l-0.1,5.8v1.2c0.2,1.3,0.9,2.5,1.9,3.4c1.1-0.8,1.8-2,2.2-3.3L86.2,184.8z"/>
	
		<path id="path2987" style="clip-path:url(#SVGID_00000145775305645400816100000005399489895630055327_);fill:#D49E63;stroke:#41382D;" d="
		M133.8,192.2l-14,0.2c-0.9-0.4-2.5,3.9-3.8,3.7c-2.3-0.1-4.6,0.2-6.8,0.9l-8.8,4c-2.8,1-7.2,0.6-10.6,0.9c-0.8-0.2-4.3,1.3-8.1,4
		c-1,0.2-1.8,0.9-3.1,0c-0.5-1.8-1.4-3.5-2.6-5c-1.6-1.9-3.7-3.5-5.9-4.6c-2.1-0.8-4.2-1.5-6.4-2c-1.7-0.3-3.3,0.1-4.7-0.5
		c-1.4-0.7-4.4-5-5.6-7.6c-0.1-2.3-0.1-3.5,0-5.5c-0.1-2-1.1-3.8-2.6-5l-2.2,3.5c0.1,1,0.4,1.9,0.9,2.7c0.4,0.5,0,1.1,0.1,2
		c-0.1,0.9,0,1.8,0.4,2.6l1.8,3.8l2.5,3.8c1.5,2.7-1.2,1.6-1.6,0.4c-1.3-1.4-2.2-3.1-2.6-4.9c-0.2-1.6,0.1-4.1-0.9-5.4
		s-1.8-3.4-3.3-3.5l-0.8,5.5c-0.1,0.4,1.9,1.9,1.9,2.9c-0.9,1-1.5,2.2-1.1,2.7c2.3,3.8,5,7.8,5.9,8.4c1.5,0.7,3.4,0.5,5.2,0.6
		c1.7,0.3,3.2,1.3,4,2.8c0.7,1.1,1.3,2.3,1.8,3.5c0.7,2.6,0.6,5.1,2.8,7.8l0.8,0.8c2.6,2-0.6,0.3-1.5,0.3c-2.2,0,3.7,4.9,5.7,4.7
		c2.9,0.1,5.8,0,8.8-0.3L87,220c3.1-0.4,6.2-0.5,9.3-0.2l8.3,1.1c2.3,0.6,4.7,0.8,7.1,0.5c1.8-0.1,5.7-3.4,5.6-1.6
		c-1.2,1.6-2.3,3.3-2.5,5.4c-0.3,2.4-0.1,4.7,0.7,7c-0.9-0.1-2.2-1-2.2,0.4c0.1,1.6,1,3.2,2.3,4.1c2.6,3-3.5-2-5.7-3.3
		c-3-3-5.7-5.9-8.6-8.7l-2.3-1.7c-1.8,0,0.3,3-0.8,2.2c-0.9-0.8-1.3-2.1-2.9-2.4c-1.3-0.4-2.7-0.6-4.1-0.4c-1.5,0.4-3.1,0.7-4,1.9
		c-0.6,0.6-1.5,1.9,1,1.1l1.8-0.3c1.3-0.1,2.7,0.1,3.9,0.5c0.6,0.3,1.2,0.7,1.6,1.2c-0.4,0.8-1.1,1.4-1.8,1.8
		c-1.8,0.8-1.6,0.2-4.3,0.7c-0.2,0.5,2.3,1.7,4.4,1c1.1-0.4,2.2-1,3.2-1.7c0.4-0.3,0.9-0.3,1.3-0.2c1.8,0.3,2.8,1.3,4.1,2.5
		c1.3,0.8-2.3,0.5-4.5,1.5c-0.3,1,0.8,2,1.6,2c1.6,0.1,3.8-0.1,4.6-0.6c1-0.7,5,2.6,3.6,2.8l-1.4,0.8c-2.7,0.1-2.8,1.8,1,2.4
		c1.2,0.2,2.4-0.9,3.7-1.2c1.2,0.1,2.3,0.5,3.3,1c0.8,0.4,1.9,0.9,2.2,1.7c0.3,0.6,0.4,1.3,0.3,2c-0.2,0.8-1.2,1.8-3,2.7
		c-1.1,0.6-2.4,0.9-3.7,0.7l-7.3-0.6c-2.9,0-4.9,1.2-7,1.9l-4.4,0.4c-1.6,0.3-2.9,1.3-3.8,2.6c-1.5,1.8-1.7,6.2-0.1,3.8
		c0.7-0.5,1.9-1.8,2.5-2.3c1.3-0.9,1.6-0.9,3.2-0.6c2.5,1.3-4.5,4.3-2.3,4.7c1.1-0.1,2.1-0.4,3.1-1c1.6-0.6,2.8-1.8,3.4-3.4
		c-0.1-1.2,0.9-2.5,1.8-2.5l2.3,0.2c0.9,0.2,0.1,2.7-2.3,4c-0.9,0.4-0.6,1.3,0.7,1.2c1.1-0.3,2.1-0.8,2.9-1.6l3-3.7
		c0.4-0.3,0.8-0.5,1.3-0.5l3.1,0.8c1.5,0.7-0.2,1.5-1.1,2.7c-1,1,0.4,1.2,1.6,0.6c0.9-1,2.1-1.3,3-2.3c0.8-0.4,0.8-1.5,1.9-2.1
		c0.8-0.3,1.6-0.8,2.2-1.5c0.7-0.6,1.3-1.4,1.7-2.3c0.7-1,1.5,2.4,3.5,2.8c2.8,0.5,2.6-0.2,2-1l-0.8-1c-0.6-0.7-1.3-1.7,0.6-2.2
		l1.9-0.6c1.6-0.8,1.6-1.8,2.5-2.7c1-0.8,2.1-1.4,3.3-2l2.8-1.2c1.5-0.6,0.2-2.3-1.8-2.4c-1.9,0.1-1.9,0.2-0.5-0.3
		c1.8-0.7,0.1-1.3-1.1-1.5c-0.6-0.1-1.4,0.4-1.8,0.6c-1,0.3-2,0.3-3,0.1c-1.3-0.3-3.1-0.4-1.9-1.5l1.9-2.5c1.2-1.8,0.9-3.6,1-5.4
		c0.8-1.8,2.5-2.6,3.4-3.9c1.4-1.4,2.8-7.8,1.2-11.4c-0.4-1.4-2.5-4.1-1.6-4.3c1.4-0.4,2.8-1,4-1.7c0.8-0.6,1.8-1,2.8-1.1
		c1.1-0.1,2.2-0.3,3.2-0.8c1.9-0.9,2.2-1.7,2.3-2.5c0.2-2.6,0.7-5.2,1.5-7.7c0.6-1,1.2-2,1.9-2.8c1.1-2.8,0.9-6.5,0.9-8.2
		c-0.4-0.6-1.1-0.6-1.8,0.3l-2.6,3.4c-0.6,0.4,0,2-0.1,2.7c-0.4,0.8-0.9,1.4-1.6,1.9l-0.7,4.7c-0.1,1.3-0.6,2.6-1.4,3.7
		c-1.6,1.1-3.4,1.8-5.3,2.2c-7.1,2.3-10.7,0.6-7.8-0.3l4-1.1c0.9-0.3,2.2-0.5,3.6-0.8l2.4-0.3c2.9-0.6,2.6-2.5,2.9-3.9
		c0.2-1.4,0.6-2.7,1-4l2.2-6.1l1.2-3.1c0.5-1.4,0.2-2.6-1.2-2.5c-0.8,0-1.6,0.2-2.2,0.6c-1,0.4-1.7,1.2-2,2.2
		c0.4,3.6-1.2,1.9-0.9,3.8c-0.2,1.8-0.5,4.5-0.6,5.4C137.1,190.1,135.2,192.2,133.8,192.2L133.8,192.2z"/>
	
		<path id="path2995" style="clip-path:url(#SVGID_00000145775305645400816100000005399489895630055327_);fill:#FFFFFF;fill-opacity:0;stroke:#41382D;" d="
		M79.6,206.4c-0.4,1-1.9,0.2-2.4-0.2l-2.3-2.4c-1.6-1.3-3.2-2.6-4.9-3.7c-1.7-0.9-3.6-1.7-5.5-2.1c-1.5-0.3-3.6-1.1-5.2-0.7
		c-1.7,0-3.8-0.2-4.7-1.1"/>
	
		<path id="path5069" style="clip-path:url(#SVGID_00000145775305645400816100000005399489895630055327_);fill:#FFFFFF;stroke:#424242;" d="
		M105.2,173.9l-0.1-2.8c-6.4,0.2-12.5,0.4-18.9,0.6l-0.3,2.6c2.9,0,6,0.1,9.2,0S101.9,174.1,105.2,173.9L105.2,173.9z"/>
	
		<path id="path2997" style="clip-path:url(#SVGID_00000145775305645400816100000005399489895630055327_);fill:#FFFFFF;fill-opacity:0;stroke:#41382D;" d="
		M119.8,215c0.7-1.2,1-2.6,0.8-4"/>
	
		<path id="path2999" style="clip-path:url(#SVGID_00000145775305645400816100000005399489895630055327_);fill:#FFFFFF;fill-opacity:0;stroke:#41382D;" d="
		M118.2,214.9c0.4-1,1.2-2.7,1-3.9"/>
	
		<path id="path3001" style="clip-path:url(#SVGID_00000145775305645400816100000005399489895630055327_);fill:#FFFFFF;fill-opacity:0;stroke:#41382D;" d="
		M85.9,206.3c0.1,0.7-1,1-0.6,2"/>
	
		<path id="path3003" style="clip-path:url(#SVGID_00000145775305645400816100000005399489895630055327_);fill:#FFFFFF;fill-opacity:0;stroke:#41382D;" d="
		M84.1,207.3c0.2,0.7-0.9,1-0.6,1.8"/>
	
		<path id="path3005" style="clip-path:url(#SVGID_00000145775305645400816100000005399489895630055327_);fill:#FFFFFF;fill-opacity:0;stroke:#41382D;" d="
		M82.2,208c0.2,0.7-0.8,1.1-0.6,1.6"/>
	
		<path id="path3007" style="clip-path:url(#SVGID_00000145775305645400816100000005399489895630055327_);fill:#FFFFFF;fill-opacity:0;stroke:#41382D;" d="
		M80.5,208.1c0,0.9-1.3,0.9-1.1,1.8"/>
	
		<path id="path3009" style="clip-path:url(#SVGID_00000145775305645400816100000005399489895630055327_);fill:#FFFFFF;fill-opacity:0;stroke:#41382D;" d="
		M71.5,201.2c-1.6,0.2-4.4-0.1-4.7,0.6"/>
	
		<path id="path3011" style="clip-path:url(#SVGID_00000145775305645400816100000005399489895630055327_);fill:#FFFFFF;fill-opacity:0;stroke:#41382D;" d="
		M69.4,200c-1.5,0.1-3.1,0.3-4.6,0.7"/>
	
		<path id="path3013" style="clip-path:url(#SVGID_00000145775305645400816100000005399489895630055327_);fill:#FFFFFF;fill-opacity:0;stroke:#41382D;" d="
		M66.5,198.5c-1.2,0.8-2.6,1.4-4,1.6"/>
	
		<path id="path3015" style="clip-path:url(#SVGID_00000145775305645400816100000005399489895630055327_);fill:#FFFFFF;fill-opacity:0;stroke:#41382D;" d="
		M63.5,197.6c0.3,0.5-2.4,0.9-2.5,1.9"/>
	
		<path id="path3019" style="clip-path:url(#SVGID_00000145775305645400816100000005399489895630055327_);fill:#FFFFFF;fill-opacity:0;stroke:#41382D;" d="
		M118.3,238.2c-0.3-1.5,0.2-3.1-1.2-4.4c-0.7-0.7-1.5-1.3-2.3-1.8"/>
	
		<path id="path3021" style="clip-path:url(#SVGID_00000145775305645400816100000005399489895630055327_);fill:#FFFFFF;fill-opacity:0;stroke:#41382D;" d="
		M119.3,221.2c-1.2,1.2-2.2,2.6-2.9,4.2c-0.4,1.5-0.5,3.4,0.3,4.6"/>
	
		<path id="path3023" style="clip-path:url(#SVGID_00000145775305645400816100000005399489895630055327_);fill:#FFFFFF;fill-opacity:0;stroke:#41382D;" d="
		M118.9,221.6c-0.5,1.2-1.4,2.3-0.6,4"/>
	
		<path id="path3025" style="clip-path:url(#SVGID_00000145775305645400816100000005399489895630055327_);fill:#FFFFFF;fill-opacity:0;stroke:#41382D;" d="
		M122.4,243c-0.9-0.9-1.7-1.9-2.3-3.1"/>
	
		<path id="path3027" style="clip-path:url(#SVGID_00000145775305645400816100000005399489895630055327_);fill:#FFFFFF;fill-opacity:0;stroke:#41382D;" d="
		M123.1,241.9c-0.8-0.7-1.4-1.5-1.8-2.5"/>
	
		<path id="path3029" style="clip-path:url(#SVGID_00000145775305645400816100000005399489895630055327_);fill:#FFFFFF;fill-opacity:0;stroke:#41382D;" d="
		M124,234.7c0,0.8-0.8,1.2-1.1,1.8"/>
	
		<path id="path3031" style="clip-path:url(#SVGID_00000145775305645400816100000005399489895630055327_);fill:#FFFFFF;fill-opacity:0;stroke:#41382D;" d="
		M120.9,234.9c0.3,0.6-0.2,1.3-0.7,1.9"/>
	
		<path id="path3033" style="clip-path:url(#SVGID_00000145775305645400816100000005399489895630055327_);fill:#FFFFFF;fill-opacity:0;stroke:#41382D;" d="
		M122.6,234.6c-0.1,0.7-0.4,1.4-1,1.9"/>
	
		<path id="path3035" style="clip-path:url(#SVGID_00000145775305645400816100000005399489895630055327_);fill:#FFFFFF;fill-opacity:0;stroke:#41382D;" d="
		M119.4,235.2c0.5,0.9-0.2,1.6-0.6,2.1"/>
	
		<path id="path3037" style="clip-path:url(#SVGID_00000145775305645400816100000005399489895630055327_);fill:#FFFFFF;fill-opacity:0;stroke:#41382D;" d="
		M125.6,234.1c-0.2,0.9-0.7,1.7-1.5,2.2"/>
	
		<path id="path3039" style="clip-path:url(#SVGID_00000145775305645400816100000005399489895630055327_);fill:#FFFFFF;fill-opacity:0;stroke:#41382D;" d="
		M109.3,198.6c0.1,1.1-1.8,1.1-1.5,3.4"/>
	
		<path id="path3041" style="clip-path:url(#SVGID_00000145775305645400816100000005399489895630055327_);fill:#FFFFFF;fill-opacity:0;stroke:#41382D;" d="
		M107.2,199.1c0.1,1.2-1.3,1.4-1.3,3.5"/>
	
		<path id="path3043" style="clip-path:url(#SVGID_00000145775305645400816100000005399489895630055327_);fill:#FFFFFF;fill-opacity:0;stroke:#41382D;" d="
		M105.3,199.9c-0.4,1.3-1.5,1.4-1.4,2.9"/>
	
		<path id="path3045" style="clip-path:url(#SVGID_00000145775305645400816100000005399489895630055327_);fill:#FFFFFF;fill-opacity:0;stroke:#41382D;" d="
		M102.8,201.4c0,0.9-0.8,1.5-1,2.5"/>
	
		<path id="path3049" style="clip-path:url(#SVGID_00000145775305645400816100000005399489895630055327_);fill:#FFFFFF;fill-opacity:0;stroke:#41382D;" d="
		M124.5,215.2c0.5-1.4,0.5-2.9-0.1-4.2"/>
	
		<path id="path3053" style="clip-path:url(#SVGID_00000145775305645400816100000005399489895630055327_);fill:#FFFFFF;fill-opacity:0;stroke:#41382D;" d="
		M123.4,215.4c-0.1-0.9-0.2-1.7-0.4-2.6"/>
	
		<path id="path3055" style="clip-path:url(#SVGID_00000145775305645400816100000005399489895630055327_);fill:#FFFFFF;fill-opacity:0;stroke:#41382D;" d="
		M120.1,219.9c1-1.2,3.6-2.9,3.3-4.4"/>
	
		<path id="path3051" style="clip-path:url(#SVGID_00000145775305645400816100000005399489895630055327_);fill:#FFFFFF;fill-opacity:0;stroke:#41382D;" d="
		M121,219c0.5-1.3,1.3-2.3,1.1-4.2"/>
	
		<path id="path3065" style="clip-path:url(#SVGID_00000145775305645400816100000005399489895630055327_);fill:#FFFFFF;fill-opacity:0;stroke:#41382D;" d="
		M131.1,205.4l-4.8-5.4"/>
	
		<path id="path3067" style="clip-path:url(#SVGID_00000145775305645400816100000005399489895630055327_);fill:#FFFFFF;fill-opacity:0;stroke:#41382D;" d="
		M101.1,202.1c0.3,0.7-1.2,1.2-1.2,2.4"/>
	
		<path id="path3069" style="clip-path:url(#SVGID_00000145775305645400816100000005399489895630055327_);fill:#FFFFFF;fill-opacity:0;stroke:#41382D;" d="
		M99,202.7c0.3,0.7-1,1.3-1,2.3"/>
	
		<path id="path3071" style="clip-path:url(#SVGID_00000145775305645400816100000005399489895630055327_);fill:#FFFFFF;fill-opacity:0;stroke:#41382D;" d="
		M113.8,218.2c0,1-1.3,1.1-1.5,2.3"/>
	
		<path id="path3073" style="clip-path:url(#SVGID_00000145775305645400816100000005399489895630055327_);fill:#FFFFFF;fill-opacity:0;stroke:#41382D;" d="
		M111.7,218.6c0,0.8-0.2,1.3-1.3,1.9"/>
	
		<path id="path3075" style="clip-path:url(#SVGID_00000145775305645400816100000005399489895630055327_);fill:#FFFFFF;fill-opacity:0;stroke:#41382D;" d="
		M108,218.4c0,0.7-0.4,1.2-1.1,1.4"/>
	
		<path id="path3077" style="clip-path:url(#SVGID_00000145775305645400816100000005399489895630055327_);fill:#FFFFFF;fill-opacity:0;stroke:#41382D;" d="
		M110.1,218.6c-0.1,0.7-0.5,1.4-1.1,1.8"/>
	
		<path id="path3079" style="clip-path:url(#SVGID_00000145775305645400816100000005399489895630055327_);fill:#FFFFFF;fill-opacity:0;stroke:#41382D;" d="
		M126.3,198.8c-1.9,0.5-1.1,0-4.5,0.5"/>
	
		<path id="path3081" style="clip-path:url(#SVGID_00000145775305645400816100000005399489895630055327_);fill:#FFFFFF;fill-opacity:0;stroke:#41382D;" d="
		M123.8,201.7c0.3-0.8,0.4-1.8,0.3-2.6"/>
	
		<path id="path3083" style="clip-path:url(#SVGID_00000145775305645400816100000005399489895630055327_);fill:#FFFFFF;fill-opacity:0;stroke:#41382D;" d="
		M122.4,204.1c0.3-1.5,0.3-3.1,0.1-4.6"/>
	
		<path id="path3085" style="clip-path:url(#SVGID_00000145775305645400816100000005399489895630055327_);fill:#FFFFFF;fill-opacity:0;stroke:#41382D;" d="
		M116.8,197.7c-0.3,0.4-1.3,1.2-1.2,2.2c1.2,2.8,1,2.7,1.1,3.9"/>
	
		<path id="path3087-1" style="clip-path:url(#SVGID_00000145775305645400816100000005399489895630055327_);fill:#F7E926;stroke:#41382D;stroke-width:1.05;stroke-opacity:0;" d="
		M96.4,243.1l-0.2,3.4l-3.2-0.2l0.2-3.4c-1.5-0.1,6.4,0.5-3.2-0.2l0.2-3.4l3.2,0.2l0.2-3.4l3.2,0.2l-0.2,3.4l18.7,1.3
		c1.8,0.2,1.5,3.3,0.2,3.2"/>
	
		<path id="path5065" style="clip-path:url(#SVGID_00000145775305645400816100000005399489895630055327_);fill:#FFFFFF;stroke:#424242;" d="
		M115.8,168.5l6.9-3.3c-5.9,0.3-24.2,1.2-30.1,1.1l-1.9,2.8C97.2,169.2,109.7,169.2,115.8,168.5z"/>
	
		<path id="path5067" style="clip-path:url(#SVGID_00000145775305645400816100000005399489895630055327_);fill:#FFFFFF;stroke:#424242;" d="
		M115.9,155.1c-5,0-14.9,0.1-24.6,0.1l5.8,3c6.6,0.1,12.8,0,18.8-0.1C116.1,157.1,116,156.1,115.9,155.1L115.9,155.1z"/>
	
		<path id="path5071" style="clip-path:url(#SVGID_00000145775305645400816100000005399489895630055327_);fill:#FFFFFF;stroke:#424242;" d="
		M93.4,179.8v-3c-6.2-0.1-12.5-0.2-19-0.6l-0.1,2.8C81.4,179.5,87.3,179.7,93.4,179.8L93.4,179.8z"/>
	
		<path id="path5119" style="clip-path:url(#SVGID_00000145775305645400816100000005399489895630055327_);fill:#FFFFFF;stroke:#424242;" d="
		M74.4,180.8v-6.4h-3.2v6.3L74.4,180.8z"/>
	
		<path id="path5079" style="clip-path:url(#SVGID_00000145775305645400816100000005399489895630055327_);fill:#FFFFFF;stroke:#424242;" d="
		M93.4,158.1l-0.1-2.9l-19,0.2v2.7H93.4z"/>
	
		<path id="path5143" style="clip-path:url(#SVGID_00000145775305645400816100000005399489895630055327_);fill:#FFFFFF;stroke:#424242;" d="
		M74.3,160.4l-0.1-8.3l-3.2,0.9v7.5L74.3,160.4z"/>
	
		<path id="path5123" style="clip-path:url(#SVGID_00000145775305645400816100000005399489895630055327_);fill:#FFFFFF;stroke:#424242;" d="
		M74.4,171.6l-0.1-9.4h-3.1l-0.1,9.4L74.4,171.6z"/>
	
		<path id="path5117" style="clip-path:url(#SVGID_00000145775305645400816100000005399489895630055327_);fill:#FFFFFF;stroke:#424242;" d="
		M82.1,171.7c-5.3-0.1-11.8-0.1-17.5-0.1l-0.1-2.6c5.8,0.2,7.9,0,9,0.1l2.4-2.8c-3.1,0-9.5,0-11.3-0.2v-2.8c9.4-0.1,11.8,0,17.5,0.1
		v-2.9c-4-0.1-11.8,0.1-17.6-0.3l-0.1-2c0.4,0,0.7,0,1.1,0c2.3,0.1,3.8,0,4.7,0c1.8,0.1,0.9-0.4,1-3l-6.1,0.1
		c-1.4,0.1-2.7,0.6-3.8,1.3c-0.3,4.2,0.2,19.4,0.6,26.6c0.1,2.3,0.2,3.8,0.2,3.7c1.3-0.4,2.1-2,2.5-3.4c6.7,0.4,11.5,0.7,17.5,1V181
		c-5.8-0.3-11.2-0.6-17.3-1.1v-1.6l6.4,0.3v-2.7l-6.4-0.3v-1.6c6.1,0.2,22.2,0.2,23.5,0.1c0-1,6.4-1.8,6.4-2.8L82.1,171.7z"/>
	
		<path id="path5107" style="clip-path:url(#SVGID_00000145775305645400816100000005399489895630055327_);fill:#FFFFFF;stroke:#424242;stroke-width:0.99;" d="
		M86.4,176.6l-0.1-10.5l-4.1,3.1v7.3L86.4,176.6z"/>
	
		<path id="path5141" style="clip-path:url(#SVGID_00000145775305645400816100000005399489895630055327_);fill:#FFFFFF;stroke:#424242;" d="
		M97.3,164.3l-0.1-14.5l-3.8,3v7.5L97.3,164.3z"/>
	
		<path id="path5077" style="clip-path:url(#SVGID_00000145775305645400816100000005399489895630055327_);fill:#FFFFFF;stroke:#424242;" d="
		M93.5,168.1l-0.1-1.9c-6.1,0.2-13,0-19.1,0v2.8c5.6,0.2,13.7,0.3,19.2,0.1L93.5,168.1z"/>
	
		<path id="path5115" style="clip-path:url(#SVGID_00000145775305645400816100000005399489895630055327_);fill:#FFFFFF;stroke:#424242;" d="
		M97.3,171.4v-8h-3.8v8.1C94.7,171.5,96,171.4,97.3,171.4z"/>
	
		<path id="path5081" style="clip-path:url(#SVGID_00000145775305645400816100000005399489895630055327_);fill:#FFFFFF;stroke:#424242;" d="
		M104.9,163.4v-3l-18.6-0.1v3.1H104.9z"/>
	
		<path id="path5091" style="clip-path:url(#SVGID_00000145775305645400816100000005399489895630055327_);fill:#FFFFFF;stroke:#424242;" d="
		M119.9,160.3l0.1-7.8l-4-1.4l0.1,13.2L119.9,160.3z"/>
	
		<path id="path5093" style="clip-path:url(#SVGID_00000145775305645400816100000005399489895630055327_);fill:#FFFFFF;stroke:#424242;" d="
		M119.9,170.3l-0.1-7h-3.7l0.1,12.1C117.7,175.5,118.6,170.4,119.9,170.3z"/>
	
		<path id="path5089" style="clip-path:url(#SVGID_00000145775305645400816100000005399489895630055327_);fill:#FFFFFF;stroke:#424242;" d="
		M116.2,178.9v1.4c-1.7,0.2-5,0.9-7.7,1v2.8c2.5-0.2,5.4-0.8,8-1.2c0.2,1.4,1,2.5,2.2,3.3c1-1.1,1.6-2.6,1.4-4.1
		c2.7-0.2,5.4-0.7,8-1.3c0.1,1.2,0.7,2.3,1.5,3.1c1-0.8,1.7-2,1.9-3.2l0.3-24l-4.3-1.8l-7.6,0.3v2.9l8.3-0.1v2
		c-6,0.5-13.6,0.4-19.9,0.6v2.9c6.6-0.1,13.4-0.1,20-0.6v1.8c-2.8,0.4-5.8,0.7-8.5,0.9v2.8c2.9-0.1,5.7-0.4,8.5-0.8v1.8
		c-1.2,0.6-16.6,1.9-23.1,2l0.2,2.6c6.5-0.3,16.6-0.6,22.9-1.9v1.8c-2.7,0.6-5.4,1.1-8.2,1.5v2.7c2.8-0.3,5.5-0.9,8.1-1.7v2
		c-2.7,0.7-5.4,1.2-8.1,1.4l-0.1-6.6l-3.8,0.2L116.2,178.9z"/>
	
		<path id="path5087" style="clip-path:url(#SVGID_00000145775305645400816100000005399489895630055327_);fill:#FFFFFF;stroke:#424242;" d="
		M108.5,179.3l0.1,6.3c0.1,1.3-0.3,2.7-1.3,3.7c-1.3-0.7-2-2.1-1.9-3.6v-6.4"/>
	
		<path id="path5095" style="clip-path:url(#SVGID_00000145775305645400816100000005399489895630055327_);fill:#FFFFFF;stroke:#424242;" d="
		M108.4,176.4V169l-3.2,0.1l0.1,7.9L108.4,176.4z"/>
	
		<path id="path5133" style="clip-path:url(#SVGID_00000145775305645400816100000005399489895630055327_);fill:#FFFFFF;stroke:#424242;" d="
		M106.1,147.9c-2.5,0.1-6.5,0-9-0.1l0.1-1.9l5.4,0.1L106.1,147.9z"/>
	
		<path id="path5103" style="clip-path:url(#SVGID_00000145775305645400816100000005399489895630055327_);fill:#FFFFFF;stroke:#424242;" d="
		M118.3,152.1c-3.3,0.5-6.7,0.8-10,0.9c0-1-5.7-2.1-5.6-2.6c1,0,5.8,0,9-0.1c1,0,1.9,0.1,2.8,0.4C117,151.5,119.9,152.1,118.3,152.1
		L118.3,152.1z"/>
	
		<path id="path5083" style="clip-path:url(#SVGID_00000145775305645400816100000005399489895630055327_);fill:#FFFFFF;stroke:#424242;" d="
		M109.9,152.7l-0.6-2.3c-6.2,0.1-17.1-0.1-23-0.5l0.1,2.7C104.5,153.6,108.3,153,109.9,152.7z"/>
	
		<path id="path5101" style="clip-path:url(#SVGID_00000145775305645400816100000005399489895630055327_);fill:#FFFFFF;stroke:#424242;" d="
		M108.2,155.1l0.1-6.2l-3.7-1.8l0.2,7.9L108.2,155.1z"/>
	
		<path id="path5111" style="clip-path:url(#SVGID_00000145775305645400816100000005399489895630055327_);fill:#FFFFFF;stroke:#424242;" d="
		M97.1,184.8h-3.8v2.6c-0.1,1.7,0.6,3.4,1.9,4.5c1.3-1.2,2.1-2.9,2-4.7L97.1,184.8z"/>
	
		<path id="path5085" style="clip-path:url(#SVGID_00000145775305645400816100000005399489895630055327_);fill:#FFFFFF;stroke:#424242;" d="
		M105.3,184.6l0.1-3.1c-6.4,0.5-12.7,0.5-19.1,0v3.1C92.6,185.2,99,185.2,105.3,184.6L105.3,184.6z"/>
	
		<path id="path5063" style="clip-path:url(#SVGID_00000145775305645400816100000005399489895630055327_);fill:#FFFFFF;stroke:#424242;" d="
		M116.2,178.5l-0.1-2.7c-6.3,0.7-12.5,1-18.8,1v2.9c3.4,0,7.3-0.1,10.3-0.4C110.2,179.1,114.6,178.8,116.2,178.5z"/>
	
		<path id="path5121" style="clip-path:url(#SVGID_00000145775305645400816100000005399489895630055327_);fill:#FFFFFF;stroke:#424242;" d="
		M74.6,184.1l-3.5-0.2c-0.1,1.8,0.5,3.7,1.7,5.1C73.9,187.6,74.5,185.9,74.6,184.1z"/>
	
		<path id="path5125" style="clip-path:url(#SVGID_00000145775305645400816100000005399489895630055327_);fill:#FFFFFF;stroke:#424242;" d="
		M82,155.1V150l4.4-1.9l-0.1,7C84.9,155.2,83.5,155.2,82,155.1L82,155.1z"/>
	
		<path id="path5131" style="clip-path:url(#SVGID_00000145775305645400816100000005399489895630055327_);fill:#FFFFFF;stroke:#424242;" d="
		M97.2,150.4v-6.8l-3.8,0.1v6.5L97.2,150.4z"/>
	
		<path id="path5129" style="clip-path:url(#SVGID_00000145775305645400816100000005399489895630055327_);fill:#FFFFFF;stroke:#424242;" d="
		M82,150l-7,1.9c2.5-0.1,4.9,0.3,7,0.3C82.1,151.5,82.1,150.7,82,150z"/>
	
		<path id="path3068" style="clip-path:url(#SVGID_00000145775305645400816100000005399489895630055327_);fill:#FFFFFF;fill-opacity:0;stroke:#41382D;" d="
		M127.8,239.1c-0.6,0.4-1.2,0.6-1.8,0.8c-0.7,0.2-1.4,0.6-1.8,0.4s-0.9-1.1,0.3-1.6c0.4-0.2,0.8-0.1,1.4,0
		C126.7,238.9,128,238.8,127.8,239.1z"/>
	
		<path id="path3840-1" style="clip-path:url(#SVGID_00000145775305645400816100000005399489895630055327_);fill:#FFFFFF;fill-opacity:0;stroke:#41382D;" d="
		M126.4,239.5c0.6-0.1,0.9-0.8-0.1-0.5S125.8,239.7,126.4,239.5z"/>
	
		<path id="path3860" style="clip-path:url(#SVGID_00000145775305645400816100000005399489895630055327_);fill:#FFFFFF;fill-opacity:0;stroke:#41382D;" d="
		M116.2,200.9c0.5-0.9,1.1-1.7,1.8-2.3"/>
	
		<path id="path3862" style="clip-path:url(#SVGID_00000145775305645400816100000005399489895630055327_);fill:#FFFFFF;fill-opacity:0;stroke:#41382D;stroke-width:0.6;" d="
		M78.4,205.4c0.2,1,1.1,1,1.7,1.1"/>
	
		<path id="path3849-4" style="clip-path:url(#SVGID_00000145775305645400816100000005399489895630055327_);fill:#FFFFFF;stroke:#FFFFFF;" d="
		M102,157.6h-4.2v-1.7c0.9,0.1,3-0.1,4,0L102,157.6z"/>
	
		<path id="path3849-0" style="clip-path:url(#SVGID_00000145775305645400816100000005399489895630055327_);fill:#FFFFFF;stroke:#FFFFFF;stroke-width:0.98;" d="
		M97.9,168.4h3.3l0.4-1.6c-0.8,0-2.8,0.1-3.8,0.1C97.9,167.4,97.9,167.9,97.9,168.4L97.9,168.4z"/>
	
		<path id="path3849-48" style="clip-path:url(#SVGID_00000145775305645400816100000005399489895630055327_);fill:#FFFFFF;stroke:#FFFFFF;" d="
		M75.2,168.3h-3.4l0.4-1.3c0.9,0,1.8,0,2.9,0L75.2,168.3z"/>
	
		<path id="path3849-8" style="clip-path:url(#SVGID_00000145775305645400816100000005399489895630055327_);fill:#FFFFFF;stroke:#FFFFFF;" d="
		M91.4,173.4c-1.1,0.3-2.3,0.4-3.5,0.3l0.8-1.4c0.9,0,5.7-0.2,6.8-0.3L91.4,173.4z"/>
	
		<path id="path5123-5" style="clip-path:url(#SVGID_00000145775305645400816100000005399489895630055327_);fill:#FFFFFF;stroke:#424242;" d="
		M74.4,171.6l-0.1-8.3h-3.1v8.3H74.4z"/>
	
		<path id="path5143-1" style="clip-path:url(#SVGID_00000145775305645400816100000005399489895630055327_);fill:#FFFFFF;stroke:#424242;" d="
		M74.4,160.4V152l-3.2,0.9c0,2.5-0.1,5,0,7.4L74.4,160.4z"/>
	
		<path id="path3982" style="clip-path:url(#SVGID_00000145775305645400816100000005399489895630055327_);fill:#FFFFFF;stroke:#FFFFFF;" d="
		M111.2,152.2c-0.5,0.1-0.8,0.1-1.3,0.1s-0.8,0-1.1,0V151h1c0.6,0,1.1,0.1,1.6,0.3L111.2,152.2z"/>
	
		<path id="path3865-7" style="clip-path:url(#SVGID_00000145775305645400816100000005399489895630055327_);fill:none;stroke:#FFFFFF;stroke-width:1.35;" d="
		M79.6,157c-0.8,0-1.7,0-2.6,0"/>
	
		<path id="path3903" style="clip-path:url(#SVGID_00000145775305645400816100000005399489895630055327_);fill:none;stroke:#424242;stroke-width:0.5;" d="
		M78.2,157.9h-1"/>
	<path style="clip-path:url(#SVGID_00000145775305645400816100000005399489895630055327_);fill:#FFFFFF;" d="M80.4,97.6
		c-12.6,0-22.9,10.2-22.9,30.5c0,25.4,18.2,50.9,40.7,50.9s40.7-25.4,40.7-50.9c0-20.3-10.2-30.5-22.9-30.5
		c-6.9,0-13.5,3.1-17.8,8.5C93.9,100.8,87.3,97.6,80.4,97.6z"/>
	<path style="clip-path:url(#SVGID_00000145775305645400816100000005399489895630055327_);fill:#FFFFFF;" d="M30.8,109.8h134.7
		c3,0,5.5,2.4,5.5,5.5v44c0,3-2.4,5.5-5.5,5.5H30.8c-3,0-5.5-2.4-5.5-5.5v-44C25.4,112.3,27.8,109.8,30.8,109.8z"/>
	<g style="clip-path:url(#SVGID_00000145775305645400816100000005399489895630055327_);enable-background:new    ;">
		<text transform="matrix(1 0 0 1 61.36 160.6901)" class="st22 st23 st24">Grodno</text>
	</g>
	<g style="clip-path:url(#SVGID_00000145775305645400816100000005399489895630055327_);enable-background:new    ;">
		<text transform="matrix(1 0 0 1 48.19 133.9301)" class="st22 st23 st24">Białystok</text>
	</g>
	<path style="clip-path:url(#SVGID_00000145775305645400816100000005399489895630055327_);fill:#2E74B3;" d="M45,0H16H0.1v16
		c0,7,0,14,0,21c10.3,12.4,28.6,14,41,3.8c6.7-5.5,10.5-13.8,10.5-22.5C51.5,11.6,49.2,5.2,45,0z"/>
	<g style="clip-path:url(#SVGID_00000145775305645400816100000005399489895630055327_);enable-background:new    ;">
		<text transform="matrix(1 0 0 1 15.66 31.75)" class="st26 st23 st27">45</text>
	</g>
</g>
</svg>
