<?xml version="1.0" encoding="utf-8"?>
<!-- Generator: Adobe Illustrator 26.0.3, SVG Export Plug-In . SVG Version: 6.00 Build 0)  -->
<svg version="1.1" id="Слой_1" xmlns="http://www.w3.org/2000/svg" xmlns:xlink="http://www.w3.org/1999/xlink" x="0px" y="0px"
	 viewBox="0 0 195.6 280.6" style="enable-background:new 0 0 195.6 280.6;" xml:space="preserve">
<style type="text/css">
	.st0{clip-path:url(#SVGID_00000057869465175627913910000006461689729201193646_);enable-background:new    ;}
	.st1{fill:#9F313A;}
	.st2{font-family:'Impact';}
	.st3{font-size:54.62px;}
	.st4{clip-path:url(#SVGID_00000057869465175627913910000006461689729201193646_);fill:#9F313A;}
	.st5{clip-path:url(#SVGID_00000057869465175627913910000006461689729201193646_);fill:#1A1A1A;}
	.st6{clip-path:url(#SVGID_00000057869465175627913910000006461689729201193646_);fill:#FFFFFF;}
	.st7{clip-path:url(#SVGID_00000057869465175627913910000006461689729201193646_);fill:#AF1739;}
	.st8{clip-path:url(#SVGID_00000057869465175627913910000006461689729201193646_);fill:#EB5775;}
	.st9{clip-path:url(#SVGID_00000057869465175627913910000006461689729201193646_);fill:#BADBE9;}
	.st10{clip-path:url(#SVGID_00000057869465175627913910000006461689729201193646_);fill:#8BB0CC;}
	.st11{clip-path:url(#SVGID_00000057869465175627913910000006461689729201193646_);fill:#F293A2;}
	.st12{clip-path:url(#SVGID_00000057869465175627913910000006461689729201193646_);fill:#595959;}
	.st13{clip-path:url(#SVGID_00000057869465175627913910000006461689729201193646_);fill:#797979;}
	.st14{clip-path:url(#SVGID_00000057869465175627913910000006461689729201193646_);fill:#3E3E3E;}
	.st15{clip-path:url(#SVGID_00000057869465175627913910000006461689729201193646_);fill:#EB5A53;}
	.st16{clip-path:url(#SVGID_00000057869465175627913910000006461689729201193646_);fill:none;}
	.st17{fill:#FFFFFF;}
	.st18{font-size:20px;}
</style>
<g>
	<defs>
		<rect id="SVGID_1_" x="0" y="0" width="195.6" height="280.6"/>
	</defs>
	<clipPath id="SVGID_00000099622031341274548410000008515647786511558825_">
		<use xlink:href="#SVGID_1_"  style="overflow:visible;"/>
	</clipPath>
	<g style="clip-path:url(#SVGID_00000099622031341274548410000008515647786511558825_);enable-background:new    ;">
		<text transform="matrix(1 0 0 1 36.64 262.59)" class="st1 st2 st3">łotwa</text>
	</g>
	<path style="clip-path:url(#SVGID_00000099622031341274548410000008515647786511558825_);fill:#9F313A;" d="M8.9,211.2
		c4.4,0,6.7-3.8,7.4-5c1.3-2.4,2.3-4.9,3-7.6c0.6-2,1-4.2,1.5-6.5c5.4,0.7,10.9,0.7,16.3,0c0.4,2.2,0.8,4.4,1.4,6.5
		c0.7,2.7,1.7,5.2,3,7.6c0.7,1.2,3,5,7.4,5s6.7-3.8,7.4-5c1.3-2.4,2.4-4.9,3-7.6c1.3-4.9,2.1-9.9,2.4-15c12.4-7.3,22-18.5,27.3-31.8
		l0.4,0.3c1.7,1.4,3.8,2.2,6,2.3c1,0,1.9-0.2,2.8-0.6l0.3-0.1c0.6,0.1,1.1,0.2,1.7,0.2c2.2-0.1,4.3-0.9,6-2.3l0.4-0.3
		c5.3,13.3,14.9,24.4,27.3,31.7c0.3,5,1.1,10,2.4,14.9c0.7,2.6,1.7,5.2,3,7.6c0.7,1.2,3,5,7.4,5s6.7-3.7,7.4-5
		c1.3-2.4,2.3-4.9,3-7.6c0.6-2.1,1.1-4.3,1.4-6.5c5.4,0.7,10.8,0.7,16.2,0c0.4,2.2,0.8,4.3,1.4,6.5c0.7,2.6,1.7,5.2,3,7.6
		c0.7,1.2,3,5,7.4,5s6.7-3.7,7.4-5c1.3-2.4,2.3-4.9,3-7.6c1.3-4.9,2.1-9.9,2.4-14.9c11.9-7,21.3-17.7,26.7-30.4l0.2,0.1
		c1.7,1.7,4,2.8,6.4,2.9c0.7,0,1.4-0.1,2.1-0.3c4.2-1.3,5.3-5.5,5.6-6.9c0.6-2.7,0.8-5.4,0.7-8.1c-0.2-6.1-1.1-12.2-2.9-18.1
		c-1.7-5.7-4.3-9.7-7.7-11.9c-0.6-0.4-1.2-0.7-1.8-0.9c-4.7-16.3-15.7-30.1-30.4-38.5c0.3-1.3,0.5-2.7,0.5-4.1
		c0.1-5.8-2.1-11.3-6.1-15.5c-4.5-4.5-11.1-7.2-19.7-7.8c-3.6-0.3-6.9-0.4-10.2-0.5c-2.2-0.1-4.4-0.2-6.6-0.3
		c-5.4-0.2-10.8-1-16.1-2.2L129.6,38l2.6,7c-3.5-0.7-6.9-1.5-10.3-2.6l-8.9-3.1l1.2,9.4c1.3,10.3,6,19.9,13.3,27.2
		c-11.2,8.6-19.3,20.7-23.1,34.3c-2.9,2.3-5.1,5.3-6.5,8.8c-1.4-3.3-3.5-6.2-6.3-8.4c-3.7-13.7-11.9-25.9-23.2-34.5
		c7.4-7.4,12.1-17,13.3-27.3l1.2-9.4l-9,3.1c-3.4,1.1-6.9,1.9-10.3,2.6l2.7-7.1l-10.7,2.6c-5.3,1.2-10.7,2-16.2,2.2
		c-2.2,0.1-4.4,0.2-6.7,0.3c-3.3,0.1-6.6,0.2-10.2,0.5c-8.6,0.6-15.3,3.3-19.8,7.8c-4,4.2-6.2,9.7-6.1,15.5c0,1.4,0.1,2.7,0.4,4.1
		c-14.9,8.4-25.9,22.3-30.6,38.7c-0.6,0.3-1.2,0.6-1.8,1c-3.4,2.2-6,6.2-7.7,11.9c-1.7,5.9-2.7,12-2.9,18.2
		c-0.1,2.7,0.1,5.5,0.7,8.2c0.3,1.4,1.4,5.6,5.7,6.9c0.7,0.2,1.4,0.3,2.1,0.3l0,0c2.4-0.2,4.7-1.2,6.4-3l0.2-0.2
		c5.5,12.8,14.9,23.5,26.8,30.6c0.3,5.1,1.1,10.1,2.4,15c0.7,2.7,1.7,5.2,3.1,7.6C2.2,207.4,4.5,211.2,8.9,211.2z"/>
	<path style="clip-path:url(#SVGID_00000099622031341274548410000008515647786511558825_);fill:#1A1A1A;" d="M-40.3,123.4
		c1.6-5.4,3.9-8.7,6.6-10.4c0.8-0.5,1.7-0.9,2.6-1.1c4.5-17,15.9-31.3,31.5-39.4c-0.5-1.8-0.8-3.7-0.8-5.6c-0.1-5,1.8-9.9,5.3-13.5
		c3.8-3.8,9.7-6.4,18-7c6-0.5,11.4-0.5,16.9-0.8c5.6-0.2,11.2-1,16.7-2.3l5.5-1.3l-2,5.3l-0.5,1.3c5.3-0.7,10.5-1.8,15.6-3.4
		l4.6-1.6L79,48.4c-1.3,10.9-6.7,20.9-15,28c12.5,8.5,21.4,21.3,25.2,35.9c2.5,1.6,4.9,4.5,6.8,9.2c0.7,1.7,1.4,3.6,2,5.6
		c0.6-2,1.3-4,2.1-5.9c2-4.8,4.3-7.6,6.8-9.2c3.7-14.6,12.7-27.3,25.1-35.8c-8.3-7.1-13.6-17-14.9-27.8l-0.6-4.8l4.6,1.6
		c5.1,1.6,10.3,2.7,15.6,3.4l-0.5-1.3l-2-5.3l5.5,1.3c5.5,1.3,11,2.1,16.7,2.3c5.4,0.3,10.8,0.3,16.8,0.8c8.2,0.6,14.1,3.1,17.9,7
		c3.5,3.6,5.4,8.4,5.3,13.4c0,1.9-0.3,3.7-0.8,5.5c15.5,8.1,26.9,22.3,31.4,39.2c0.9,0.2,1.8,0.6,2.6,1.1c2.6,1.7,4.9,4.9,6.5,10.3
		c1.7,5.6,2.6,11.5,2.8,17.4c0.1,2.5-0.1,5-0.6,7.4c-0.5,2.1-1.4,4.2-3.7,4.9s-4.2-0.6-5.8-2c-1.1-1.1-2.1-2.2-3-3.5
		c-5,14.5-15.1,26.7-28.5,34.2c-0.2,5.3-1,10.6-2.4,15.8c-0.6,2.4-1.5,4.7-2.8,6.9c-1.1,1.9-2.6,3.6-5,3.6s-3.9-1.7-5-3.6
		c-1.2-2.2-2.1-4.5-2.7-6.9c-0.8-2.9-1.4-5.9-1.8-8.9c-6.9,1.2-14,1.2-20.9,0c-0.4,3-1,6-1.8,8.9c-0.6,2.4-1.5,4.7-2.7,6.9
		c-1.1,1.9-2.6,3.6-5,3.6s-3.9-1.7-5-3.6c-1.2-2.2-2.1-4.5-2.7-6.9c-1.4-5.2-2.2-10.5-2.4-15.8c-13.7-7.6-24-20.1-28.8-35
		c-1,1.1-2.1,2.2-3.3,3.1c-1.7,1.3-3.8,2.3-6,1.4l-0.3-0.2c-0.3,0.3-0.7,0.5-1.1,0.7c-2.2,0.9-4.2-0.1-6-1.4c-1.2-0.9-2.3-2-3.3-3.1
		c-4.8,14.9-15.1,27.5-28.8,35.2c-0.2,5.4-1,10.7-2.4,15.9c-0.6,2.4-1.6,4.7-2.8,6.9c-1.1,1.9-2.6,3.6-5,3.6s-3.9-1.7-5-3.6
		c-1.2-2.2-2.1-4.5-2.8-6.9c-0.8-3-1.4-6-1.8-9c-6.9,1.2-14.1,1.2-21,0c-0.4,3-1,6-1.8,9c-0.6,2.4-1.5,4.7-2.8,6.9
		c-1.1,1.9-2.6,3.6-5,3.6s-3.9-1.7-5-3.6c-1.2-2.2-2.1-4.5-2.8-6.9c-1.4-5.2-2.2-10.5-2.3-15.8c-13.5-7.5-23.7-19.7-28.6-34.3
		c-0.9,1.3-1.9,2.4-3,3.5c-1.6,1.5-3.5,2.7-5.8,2s-3.2-2.8-3.7-4.9c-0.5-2.4-0.7-4.9-0.6-7.4C-42.9,135-42,129.1-40.3,123.4z"/>
	<path style="clip-path:url(#SVGID_00000099622031341274548410000008515647786511558825_);fill:#9F313A;" d="M179,179.7
		c0-10.6,4.7-12.7,7.9-12.7s7.9,2.1,7.9,12.7s-3.5,25.7-7.9,25.7S179,190.3,179,179.7z"/>
	<path style="clip-path:url(#SVGID_00000099622031341274548410000008515647786511558825_);fill:#1A1A1A;" d="M186.9,164.8
		c-2.7,0-5.2,1.2-6.9,3.2c-2,2.4-3.3,6.1-3.3,11.8c0,5.9,0.9,11.7,2.4,17.4c0.6,2.4,1.5,4.7,2.7,6.9c1.1,1.9,2.6,3.6,5,3.6
		s3.9-1.7,5-3.6c1.2-2.2,2.1-4.5,2.8-6.9c1.5-5.7,2.3-11.6,2.4-17.5c0-5.6-1.2-9.4-3.3-11.8C192,165.9,189.5,164.8,186.9,164.8
		L186.9,164.8z M186.9,169.2c1.3,0,2.6,0.5,3.5,1.6c1.1,1.3,2.2,3.9,2.2,8.9c-0.1,5.5-0.8,10.9-2.2,16.2c-0.5,2-1.3,4-2.3,5.8
		c-0.3,0.5-0.7,1-1.2,1.4c-0.5-0.4-0.9-0.9-1.2-1.4c-1-1.8-1.8-3.8-2.3-5.8c-1.4-5.3-2.2-10.7-2.2-16.2c0-5,1.1-7.6,2.2-8.9
		C184.2,169.7,185.5,169.1,186.9,169.2L186.9,169.2z"/>
	<path style="clip-path:url(#SVGID_00000099622031341274548410000008515647786511558825_);fill:#9F313A;" d="M139,179.7
		c0-10.6,4.7-12.7,7.9-12.7s7.9,2.1,7.9,12.7s-3.5,25.7-7.9,25.7S139,190.3,139,179.7z"/>
	<path style="clip-path:url(#SVGID_00000099622031341274548410000008515647786511558825_);fill:#1A1A1A;" d="M146.9,164.8
		c-2.6,0-5.1,1.2-6.8,3.2c-2,2.4-3.3,6.1-3.3,11.8c0,5.9,0.9,11.7,2.4,17.4c0.6,2.4,1.6,4.7,2.8,6.8c1.1,1.9,2.6,3.6,5,3.6
		s3.9-1.7,5-3.6c1.2-2.2,2.1-4.5,2.7-6.9c1.5-5.7,2.4-11.5,2.4-17.4c0-5.6-1.2-9.4-3.3-11.8C152.2,165.9,149.7,164.8,146.9,164.8
		L146.9,164.8z M146.9,169.2c1.3,0,2.6,0.5,3.5,1.6c1.1,1.3,2.2,3.9,2.2,8.9c-0.1,5.5-0.8,10.9-2.2,16.2c-0.5,2-1.3,4-2.3,5.8
		c-0.3,0.5-0.7,1-1.2,1.4c-0.5-0.4-0.9-0.9-1.2-1.4c-1-1.8-1.8-3.8-2.3-5.8c-1.4-5.3-2.2-10.7-2.2-16.2c0-5,1.1-7.6,2.2-8.9
		C144.3,169.7,145.6,169.2,146.9,169.2L146.9,169.2z"/>
	<path style="clip-path:url(#SVGID_00000099622031341274548410000008515647786511558825_);fill:#FFFFFF;" d="M102.2,122
		c4.1-9.8,9.2-10,12.2-8.7s6.5,5,2.4,14.8s-13.1,22.4-17.1,20.7S98.1,131.8,102.2,122z"/>
	<path style="clip-path:url(#SVGID_00000099622031341274548410000008515647786511558825_);fill:#1A1A1A;" d="M115.2,111.3
		c-2.4-1-5.2-0.9-7.5,0.3c-2.8,1.4-5.4,4.4-7.5,9.6c-2.2,5.4-3.7,11.2-4.4,17c-0.4,2.5-0.4,4.9-0.1,7.4c0.3,2.1,1,4.3,3.2,5.2
		s4.2-0.1,6-1.4c1.9-1.5,3.7-3.3,5.2-5.3c3.6-4.7,6.6-9.7,8.9-15.2c2.2-5.2,2.4-9.1,1.5-12.1C119.5,114.3,117.6,112.3,115.2,111.3
		L115.2,111.3z M113.5,115.3c1.3,0.5,2.2,1.5,2.6,2.8c0.5,1.6,0.5,4.5-1.4,9.1c-2.2,5-4.9,9.8-8.3,14.1c-1.3,1.7-2.7,3.2-4.3,4.5
		c-0.5,0.4-1,0.7-1.6,0.9c-0.3-0.5-0.5-1.1-0.6-1.8c-0.2-2.1-0.2-4.2,0.1-6.2c0.7-5.4,2.1-10.8,4.1-15.8c1.9-4.6,3.9-6.6,5.5-7.4
		C110.8,114.8,112.3,114.8,113.5,115.3L113.5,115.3z"/>
	<path style="clip-path:url(#SVGID_00000099622031341274548410000008515647786511558825_);fill:#1A1A1A;" d="M166.9,65.4
		c-34.2,0-61.9,27.7-61.9,61.9s27.7,61.9,61.9,61.9s61.9-27.7,61.9-61.9C228.8,93.1,201.1,65.4,166.9,65.4z M166.9,72.4
		c30.3,0,54.8,24.5,54.8,54.8s-24.5,54.8-54.8,54.8s-54.8-24.5-54.8-54.8l0,0c0-30.2,24.5-54.8,54.7-54.8
		C166.8,72.4,166.9,72.4,166.9,72.4z"/>
	<path style="clip-path:url(#SVGID_00000099622031341274548410000008515647786511558825_);fill:#FFFFFF;" d="M224.4,125.9
		c0,2.4-0.3,30.6-16.8,38.6c-11.7,5.6-18.2-5.4-41.9-5c-22.2,0.3-28.1,10.2-39.1,5c-16.5-7.8-16.8-36.2-16.8-38.6
		c0-3.3,0.4-29.7,16.8-38.6c9.7-5.2,14.7,1.2,38.6,1.5c26.1,0.3,31.8-7.3,42.4-1.5C224,96.3,224.4,122.5,224.4,125.9z"/>
	<path style="clip-path:url(#SVGID_00000099622031341274548410000008515647786511558825_);fill:#9F313A;" d="M167.5,70
		c-25,0-47.2,15.8-55.5,39.3h111.1C214.8,85.8,192.5,70,167.5,70z"/>
	<path style="clip-path:url(#SVGID_00000099622031341274548410000008515647786511558825_);fill:#9F313A;" d="M164.5,71.3
		c-23.8,0-44.8,15.4-52,38h103.9C209.2,86.7,188.2,71.3,164.5,71.3z"/>
	<path style="clip-path:url(#SVGID_00000099622031341274548410000008515647786511558825_);fill:#9F313A;" d="M111.5,147.5
		c6.1,11.8,15.4,21.6,26.9,28.2c8.8,5.3,18.9,8.1,29.2,8.3c5.6,0.1,11.1-0.7,16.4-2.2c10.5-3.3,19.9-9.5,26.9-18
		c4.2-4.9,7.5-10.3,10-16.2L111.5,147.5z"/>
	<path style="clip-path:url(#SVGID_00000099622031341274548410000008515647786511558825_);fill:#9F313A;" d="M114.5,147.6
		c13,28.4,46.5,41,75,28c12.4-5.7,22.4-15.6,28-28H114.5z"/>
	<path style="clip-path:url(#SVGID_00000099622031341274548410000008515647786511558825_);fill:#1A1A1A;" d="M166.9,68
		c-32.7,0-59.2,26.5-59.2,59.2s26.5,59.2,59.2,59.2s59.2-26.5,59.2-59.2C226.1,94.5,199.6,68,166.9,68z M166.9,69.8
		c31.7,0,57.5,25.7,57.5,57.5s-25.7,57.5-57.5,57.5s-57.5-25.7-57.5-57.5c0,0,0,0,0,0C109.4,95.5,135.2,69.8,166.9,69.8
		C166.9,69.8,166.9,69.8,166.9,69.8z"/>
	<path style="clip-path:url(#SVGID_00000099622031341274548410000008515647786511558825_);fill:#1A1A1A;" d="M185.7,106.1
		c5,0,9.1,4,9.1,9c0,0,0,0,0,0v4.6c-0.2,5-4.4,9-9.4,8.8c-4.8-0.2-8.6-4-8.8-8.8v-4.6C176.6,110.2,180.6,106.1,185.7,106.1
		C185.6,106.1,185.6,106.1,185.7,106.1z"/>
	<path style="clip-path:url(#SVGID_00000099622031341274548410000008515647786511558825_);fill:#FFFFFF;" d="M180.4,112.6
		c0-1.6,1.3-2.9,2.9-2.9c1.6,0,2.9,1.3,2.9,2.9c0,1.6-1.3,2.9-2.9,2.9c-0.8,0-1.5-0.3-2.1-0.9C180.7,114.1,180.4,113.4,180.4,112.6z
		"/>
	<path style="clip-path:url(#SVGID_00000099622031341274548410000008515647786511558825_);fill:#1A1A1A;" d="M148.2,106.1
		c5,0,9.1,4,9.1,9c0,0,0,0,0,0v4.6c-0.2,5-4.4,9-9.4,8.8c-4.8-0.2-8.6-4-8.8-8.8v-4.6C139.1,110.2,143.1,106.1,148.2,106.1
		C148.1,106.1,148.1,106.1,148.2,106.1z"/>
	<path style="clip-path:url(#SVGID_00000099622031341274548410000008515647786511558825_);fill:#FFFFFF;" d="M142.9,112.6
		c0-1.6,1.3-2.9,2.9-2.9c1.6,0,2.9,1.3,2.9,2.9c0,1.6-1.3,2.9-2.9,2.9c-0.8,0-1.5-0.3-2.1-0.9C143.2,114.1,142.9,113.4,142.9,112.6z
		"/>
	<path style="clip-path:url(#SVGID_00000099622031341274548410000008515647786511558825_);fill:#AF1739;" d="M157.2,131.5
		c-1.1,0-2,0.9-2,2v2.3c-0.2,6.5,4.9,11.8,11.4,12c6.5,0.2,11.8-4.9,12-11.4c0-0.2,0-0.5,0-0.7v-2.3c0-1.1-0.9-2-2-2H157.2z"/>
	<path style="clip-path:url(#SVGID_00000099622031341274548410000008515647786511558825_);fill:#EB5775;" d="M166.9,139.5
		c-3.4,0-6.6,1.5-8.8,4c4.2,4.9,11.6,5.4,16.5,1.1c0.4-0.4,0.8-0.7,1.1-1.1C173.5,141,170.3,139.5,166.9,139.5z"/>
	<path style="clip-path:url(#SVGID_00000099622031341274548410000008515647786511558825_);fill:#FFFFFF;" d="M157.2,131.5
		c-1.1,0-2,0.9-2,2v2.1c7.4,3.6,16,3.6,23.4,0v-2c0-1.1-0.9-2-2-2L157.2,131.5z"/>
	<path style="clip-path:url(#SVGID_00000099622031341274548410000008515647786511558825_);fill:#BADBE9;" d="M175.5,131.5v3.1
		c0,1.2-0.1,1.9-0.9,2.4c1.4-0.4,2.8-0.9,4.1-1.5v-2c0-1.1-0.9-2-2-2L175.5,131.5z"/>
	<path style="clip-path:url(#SVGID_00000099622031341274548410000008515647786511558825_);fill:#BADBE9;" d="M157.2,131.5
		c-1.1,0-2,0.9-2,2v2.1c2.5,1.2,5.2,2,8,2.4c-1.4-0.4-1.8-1.7-1.8-3.3v-3.1L157.2,131.5z"/>
	<path style="clip-path:url(#SVGID_00000099622031341274548410000008515647786511558825_);fill:#8BB0CC;" d="M158.4,131.5v3.1
		c0,1.2,0.1,1.9,0.9,2.4c-1.4-0.4-2.8-0.9-4.1-1.5v-2c0-1.1,0.9-2,2-2L158.4,131.5z"/>
	<path style="clip-path:url(#SVGID_00000099622031341274548410000008515647786511558825_);fill:#1A1A1A;" d="M157.2,130.6
		c-1.6,0-2.9,1.3-2.9,2.9v2.3c-0.2,6.9,5.3,12.7,12.2,12.9s12.7-5.3,12.9-12.2c0-0.2,0-0.5,0-0.7v-2.3c0-1.6-1.3-2.9-2.9-2.9H157.2z
		 M176.6,132.4c0.6,0,1.1,0.5,1.1,1.1c0,0,0,0,0,0.1v2.3c-0.2,6-5.2,10.7-11.1,10.5c-5.7-0.2-10.3-4.8-10.5-10.5v-2.3
		c0-0.6,0.5-1.1,1.1-1.1c0,0,0,0,0.1,0H176.6z"/>
	<path style="clip-path:url(#SVGID_00000099622031341274548410000008515647786511558825_);fill:#1A1A1A;" d="M178.7,135.1
		c-7.4,3.6-16.1,3.6-23.5,0l-0.4,0.8c7.7,3.7,16.6,3.7,24.3,0L178.7,135.1z"/>
	<path style="clip-path:url(#SVGID_00000099622031341274548410000008515647786511558825_);fill:#F293A2;" d="M168.2,142.6
		c0-0.4,0.2-0.8,0.6-1c0.4-0.3,0.9-0.4,1.4-0.4c1.1,0,1.9,0.6,1.9,1.4s-0.9,1.4-1.9,1.4c-0.5,0-1-0.1-1.4-0.4
		C168.4,143.4,168.2,143,168.2,142.6L168.2,142.6z"/>
	<path style="clip-path:url(#SVGID_00000099622031341274548410000008515647786511558825_);fill:#1A1A1A;" d="M155.6,45.6v5.9
		c5.7,0.4,11.2,0.4,17,0.9c7.2,0.5,11.6,2.6,14.1,5.2c2.4,2.5,3.7,5.8,3.5,9.3c0,6.1-3.2,10.2-8.9,13s-13.7,3.7-22,2.5
		c-1.2-0.2-2.5-0.4-3.7-0.7v6.1c0.9,0.2,1.9,0.4,2.8,0.5c9.3,1.4,18.4,0.5,25.5-3s12.2-10,12.2-18.4c0.1-5-1.8-9.9-5.3-13.5
		c-3.8-3.8-9.7-6.4-17.9-7C166.8,45.9,161.2,45.9,155.6,45.6L155.6,45.6z"/>
	<path style="clip-path:url(#SVGID_00000099622031341274548410000008515647786511558825_);fill:#1A1A1A;" d="M134.1,42l2,5.3
		l0.5,1.3c-5.3-0.7-10.5-1.8-15.6-3.4l-4.6-1.6l0.6,4.8c3.1,23.7,22.2,36.5,40.5,39.7v-6.1c-14.6-2.8-29.1-12.4-33.4-29.7
		c5.5,1.7,11.2,2.6,17,2.6h4.3l-1.8-4.8c4.6,0.8,9.3,1.3,14,1.5v-6c-6-0.2-12-1-17.9-2.4L134.1,42z"/>
	<path style="clip-path:url(#SVGID_00000099622031341274548410000008515647786511558825_);fill:#595959;" d="M138.9,46.2l2.1,5.7
		c-9.7,0.1-21-3.9-21-3.9c6,45.1,73.2,47.8,73.2,18.8c0-8.2-5-16.3-20.4-17.4C161.1,48.5,151.4,49.2,138.9,46.2z"/>
	<path style="clip-path:url(#SVGID_00000099622031341274548410000008515647786511558825_);fill:#797979;" d="M138.9,46.2l2.1,5.7
		c-9.7,0.1-21-3.9-21-3.9c15.7,20.4,61.8,23,70,8.9c-3-3.9-8.4-6.8-17.2-7.5C161.1,48.5,151.4,49.2,138.9,46.2L138.9,46.2z"/>
	<path style="clip-path:url(#SVGID_00000099622031341274548410000008515647786511558825_);fill:#3E3E3E;" d="M120,48
		c6,45.1,73.2,47.8,73.2,18.8c0-1.3-0.1-2.7-0.4-4C182,88.8,127.9,77.4,120,48z"/>
	<path style="clip-path:url(#SVGID_00000099622031341274548410000008515647786511558825_);fill:#1A1A1A;" d="M155.6,47.8v1.5
		c5.7,0.3,11.2,0.4,17.1,0.8c7.6,0.6,12.5,2.8,15.6,5.9c2.8,2.9,4.3,6.8,4.2,10.8c0,7-4,11.9-10.2,15s-14.7,4-23.3,2.7
		c-1.1-0.2-2.2-0.4-3.4-0.6v1.5c1,0.2,2.1,0.4,3.1,0.6c8.9,1.4,17.6,0.4,24.2-2.8s11-8.8,11-16.3c0.1-4.4-1.6-8.7-4.6-11.9
		c-3.3-3.3-8.6-5.7-16.5-6.3C166.7,48.2,161.2,48.2,155.6,47.8L155.6,47.8z"/>
	<path style="clip-path:url(#SVGID_00000099622031341274548410000008515647786511558825_);fill:#1A1A1A;" d="M137.7,45.1l0.5,1.3
		l1.7,4.6c-9.2-0.2-19.6-3.8-19.6-3.8l-1.1-0.4l0.2,1.2c2.9,22.4,20.8,34.5,38.2,37.7v-1.5C141,81.2,124.3,69.8,121,49
		c1.7,0.6,11,3.7,20,3.6h1.1l-2-5.5c5.7,1.2,11.6,2,17.4,2.2v-1.5c-6.2-0.2-12.4-1-18.4-2.4L137.7,45.1z"/>
	<path style="clip-path:url(#SVGID_00000099622031341274548410000008515647786511558825_);fill:#EB5A53;" d="M16.9,180.3
		c0,10.6-3.6,25.8-7.9,25.8S1,191,1,180.3s4.7-12.8,7.9-12.8S16.9,169.7,16.9,180.3L16.9,180.3z"/>
	<path style="clip-path:url(#SVGID_00000099622031341274548410000008515647786511558825_);fill:#1A1A1A;" d="M8.9,165.4
		c-2.6,0-5.2,1.2-6.9,3.2c-2,2.4-3.3,6.2-3.3,11.8c0,5.9,0.9,11.8,2.4,17.5c0.6,2.4,1.5,4.7,2.8,6.9c1.1,1.9,2.6,3.6,5,3.6
		s3.9-1.7,5-3.6c1.2-2.2,2.1-4.5,2.8-6.9c1.6-5.7,2.4-11.6,2.4-17.5c0-5.6-1.2-9.4-3.3-11.8C14.1,166.5,11.6,165.3,8.9,165.4
		L8.9,165.4z M8.9,169.8c1.4-0.1,2.7,0.5,3.5,1.6c1.1,1.3,2.2,4,2.2,9c-0.1,5.5-0.8,11-2.2,16.3c-0.5,2-1.3,4-2.3,5.8
		c-0.3,0.5-0.7,1-1.2,1.4c-0.5-0.4-0.9-0.9-1.2-1.4c-1-1.8-1.8-3.8-2.3-5.8c-1.4-5.3-2.2-10.8-2.2-16.3c0-5,1.1-7.6,2.2-9
		C6.3,170.3,7.6,169.7,8.9,169.8z"/>
	<path style="clip-path:url(#SVGID_00000099622031341274548410000008515647786511558825_);fill:#EB5A53;" d="M57,180.3
		c0,10.6-3.5,25.8-7.9,25.8s-7.9-15.1-7.9-25.8s4.7-12.8,7.9-12.8S57,169.7,57,180.3z"/>
	<path style="clip-path:url(#SVGID_00000099622031341274548410000008515647786511558825_);fill:#1A1A1A;" d="M49,165.4
		c-2.6,0-5.2,1.2-6.9,3.2c-2,2.4-3.3,6.2-3.3,11.8c0,5.9,0.9,11.8,2.4,17.5c0.6,2.4,1.5,4.7,2.8,6.9c1.1,1.9,2.6,3.6,5,3.6
		s3.9-1.7,5-3.6c1.2-2.2,2.1-4.5,2.8-6.9c1.5-5.7,2.4-11.6,2.4-17.5c0-5.6-1.2-9.4-3.3-11.8C54.2,166.5,51.7,165.3,49,165.4
		L49,165.4z M49,169.8c1.4-0.1,2.6,0.5,3.5,1.6c1.1,1.3,2.2,4,2.2,9c-0.1,5.5-0.8,11-2.2,16.3c-0.5,2-1.3,4-2.3,5.8
		c-0.3,0.5-0.7,1-1.2,1.4c-0.5-0.4-0.9-0.9-1.2-1.4c-1-1.8-1.8-3.8-2.3-5.8c-1.4-5.3-2.2-10.8-2.2-16.3c0-5,1.1-7.6,2.2-9
		C46.4,170.3,47.7,169.7,49,169.8z"/>
	<path style="clip-path:url(#SVGID_00000099622031341274548410000008515647786511558825_);fill:#EB5A53;" d="M94,122.4
		c4.1,9.9,6.6,25.2,2.6,26.9s-13.1-10.9-17.2-20.8s-0.6-13.6,2.4-14.8S89.9,112.6,94,122.4L94,122.4z"/>
	<path style="clip-path:url(#SVGID_00000099622031341274548410000008515647786511558825_);fill:#1A1A1A;" d="M80.9,111.6
		c-2.4,1-4.3,3-5.1,5.6c-1,3-0.7,7,1.5,12.2c2.3,5.4,5.3,10.6,8.9,15.2c1.5,2,3.2,3.8,5.2,5.3c1.8,1.3,3.8,2.3,6,1.4
		s2.9-3.1,3.2-5.2c0.3-2.5,0.3-5-0.1-7.4c-0.7-5.9-2.3-11.6-4.5-17.1c-2.2-5.2-4.8-8.2-7.6-9.7C86.2,110.7,83.4,110.6,80.9,111.6
		L80.9,111.6z M82.6,115.7c1.2-0.6,2.7-0.5,3.8,0.2c1.5,0.8,3.6,2.8,5.5,7.4c2,5.1,3.4,10.5,4.2,15.9c0.3,2.1,0.3,4.2,0.1,6.3
		c-0.1,0.6-0.3,1.2-0.6,1.8c-0.6-0.2-1.2-0.5-1.6-0.9c-1.6-1.3-3.1-2.8-4.3-4.5c-3.4-4.4-6.1-9.1-8.3-14.2c-1.9-4.6-1.9-7.5-1.4-9.1
		C80.4,117.2,81.4,116.2,82.6,115.7z"/>
	<path style="clip-path:url(#SVGID_00000099622031341274548410000008515647786511558825_);fill:#1A1A1A;" d="M29,65.5
		c-34.3,0-62.2,27.8-62.2,62.1s27.8,62.2,62.1,62.2s62.2-27.8,62.2-62.1c0,0,0,0,0,0C91.1,93.3,63.3,65.5,29,65.5z M29,72.6
		c30.4,0,55.1,24.7,55.1,55.1S59.4,182.7,29,182.7s-55.1-24.7-55.1-55.1c0,0,0,0,0,0c0-30.4,24.6-55,54.9-55.1
		C28.9,72.6,29,72.6,29,72.6z"/>
	<path style="clip-path:url(#SVGID_00000099622031341274548410000008515647786511558825_);fill:#FFFFFF;" d="M87.6,127.6
		c0,32.4-26.2,58.6-58.6,58.6c-32.4,0-58.6-26.2-58.6-58.6c0-32.4,26.2-58.6,58.6-58.6c15.6,0,30.5,6.2,41.5,17.2
		C81.4,97.2,87.6,112.1,87.6,127.6z"/>
	<path style="clip-path:url(#SVGID_00000099622031341274548410000008515647786511558825_);fill:#FFFFFF;" d="M80.1,124.6
		c0,29.9-24.3,54.2-54.2,54.2c-29.9,0-54.2-24.3-54.2-54.2c0-29.9,24.3-54.2,54.2-54.2c14.4,0,28.2,5.7,38.3,15.9
		C74.4,96.4,80.1,110.2,80.1,124.6z"/>
	<path style="clip-path:url(#SVGID_00000099622031341274548410000008515647786511558825_);fill:#EB5A53;" d="M-29.6,127.6
		c0,32.4,26.2,58.6,58.6,58.6s58.6-26.2,58.6-58.6H-29.6z"/>
	<path style="clip-path:url(#SVGID_00000099622031341274548410000008515647786511558825_);fill:#EB5A53;" d="M-28.2,127.6
		c1.7,29.9,27.3,52.7,57.2,51c27.5-1.6,49.4-23.5,51-51H-28.2z"/>
	<path style="clip-path:url(#SVGID_00000099622031341274548410000008515647786511558825_);fill:#1A1A1A;" d="M29,68.2
		c-32.9,0-59.5,26.6-59.5,59.5s26.6,59.5,59.5,59.5c32.9,0,59.5-26.6,59.5-59.5c0,0,0,0,0,0C88.5,94.8,61.8,68.2,29,68.2z M29,69.9
		c31.9,0,57.7,25.8,57.7,57.7S60.9,185.4,29,185.4s-57.7-25.8-57.7-57.7c0,0,0,0,0,0C-28.7,95.8-2.9,69.9,29,69.9
		C29,69.9,29,69.9,29,69.9z"/>
	<path style="clip-path:url(#SVGID_00000099622031341274548410000008515647786511558825_);fill:#1A1A1A;" d="M10.2,106.4
		c5,0,9.1,4.1,9.1,9.1c0,0,0,0,0,0v4.6c0.2,5-3.8,9.3-8.8,9.4s-9.3-3.8-9.4-8.8c0-0.2,0-0.4,0-0.6v-4.6
		C1,110.5,5.1,106.4,10.2,106.4C10.1,106.4,10.1,106.4,10.2,106.4z"/>
	<path style="clip-path:url(#SVGID_00000099622031341274548410000008515647786511558825_);fill:#FFFFFF;" d="M15.5,113
		c0,1.6-1.3,3-2.9,3s-3-1.3-3-2.9c0-1.6,1.3-2.9,2.9-3C14.1,110.1,15.4,111.4,15.5,113z"/>
	<path style="clip-path:url(#SVGID_00000099622031341274548410000008515647786511558825_);fill:#1A1A1A;" d="M47.8,106.4
		c5,0,9.1,4.1,9.1,9.1c0,0,0,0,0,0v4.6c0.2,5-3.8,9.3-8.8,9.4s-9.3-3.8-9.4-8.8c0-0.2,0-0.4,0-0.6v-4.6
		C38.7,110.5,42.7,106.4,47.8,106.4C47.8,106.4,47.8,106.4,47.8,106.4z"/>
	<path style="clip-path:url(#SVGID_00000099622031341274548410000008515647786511558825_);fill:#FFFFFF;" d="M53.1,113
		c0,1.6-1.3,3-2.9,3s-3-1.3-3-2.9c0-1.6,1.3-2.9,2.9-3C51.8,110.1,53.1,111.4,53.1,113z"/>
	<path style="clip-path:url(#SVGID_00000099622031341274548410000008515647786511558825_);fill:#AF1739;" d="M19.3,131.9
		c-1.1,0-2,0.9-2,2v2.3c0.2,6.5,5.6,11.6,12.1,11.4c6.2-0.2,11.2-5.2,11.4-11.4V134c0-1.1-0.9-2-2-2L19.3,131.9z"/>
	<path style="clip-path:url(#SVGID_00000099622031341274548410000008515647786511558825_);fill:#EB5775;" d="M29,140
		c-3.4,0-6.6,1.4-8.9,4c4.3,4.9,11.7,5.4,16.6,1.1c0.4-0.3,0.8-0.7,1.1-1.1C35.6,141.4,32.4,140,29,140z"/>
	<path style="clip-path:url(#SVGID_00000099622031341274548410000008515647786511558825_);fill:#FFFFFF;" d="M19.3,131.9
		c-1.1,0-2,0.9-2,2v2c7.4,3.6,16.1,3.6,23.5,0v-2c0-1.1-0.9-2-2-2H19.3z"/>
	<path style="clip-path:url(#SVGID_00000099622031341274548410000008515647786511558825_);fill:#BADBE9;" d="M19.3,131.9
		c-1.1,0-2,0.9-2,2v2c1.3,0.6,2.7,1.1,4.1,1.5c-0.8-0.5-1-1.3-1-2.5v-3.1L19.3,131.9z"/>
	<path style="clip-path:url(#SVGID_00000099622031341274548410000008515647786511558825_);fill:#BADBE9;" d="M34.4,131.9v3.1
		c0,1.6-0.4,2.9-1.8,3.3c2.8-0.4,5.5-1.2,8.1-2.4v-2c0-1.1-0.9-2-2-2L34.4,131.9z"/>
	<path style="clip-path:url(#SVGID_00000099622031341274548410000008515647786511558825_);fill:#8BB0CC;" d="M38.7,131.9
		c1.1,0,2,0.9,2,2v2c-1.3,0.6-2.7,1.1-4.1,1.5c0.8-0.5,1-1.3,1-2.5v-3.1L38.7,131.9z"/>
	<path style="clip-path:url(#SVGID_00000099622031341274548410000008515647786511558825_);fill:#1A1A1A;" d="M19.3,131.1
		c-1.6,0-2.9,1.3-2.9,2.9c0,0,0,0,0,0v2.3c0.2,7,6,12.5,13,12.3c6.7-0.2,12.1-5.6,12.3-12.3V134c0-1.6-1.3-2.9-2.9-2.9L19.3,131.1z
		 M19.3,132.8h19.4c0.6,0,1.1,0.5,1.1,1.1c0,0,0,0.1,0,0.1v2.3c-0.2,6-5.2,10.7-11.2,10.5c-5.7-0.2-10.4-4.8-10.5-10.5V134
		C18.1,133.4,18.6,132.9,19.3,132.8C19.2,132.9,19.2,132.9,19.3,132.8L19.3,132.8z"/>
	<path style="clip-path:url(#SVGID_00000099622031341274548410000008515647786511558825_);fill:#1A1A1A;" d="M17.2,135.5l-0.4,0.8
		c7.7,3.8,16.7,3.8,24.4,0l-0.4-0.8C33.3,139.2,24.6,139.2,17.2,135.5z"/>
	<path style="clip-path:url(#SVGID_00000099622031341274548410000008515647786511558825_);fill:#F293A2;" d="M27.7,143.1
		c0,0.4-0.2,0.8-0.6,1c-0.4,0.3-0.9,0.4-1.4,0.4c-1.1,0-2-0.6-2-1.4s0.9-1.4,2-1.4c0.5,0,1,0.1,1.4,0.4
		C27.5,142.4,27.7,142.8,27.7,143.1L27.7,143.1z"/>
	<path style="clip-path:url(#SVGID_00000099622031341274548410000008515647786511558825_);fill:#1A1A1A;" d="M40.3,45.6
		c-5.6,0.3-11.2,0.4-17.5,0.8c-8.3,0.6-14.2,3.2-18,7C1.4,57-0.5,61.9-0.4,66.9c0,8.4,5.2,14.9,12.3,18.4s16.3,4.4,25.6,3
		c0.9-0.1,1.9-0.3,2.8-0.5v-6.1c-1.2,0.3-2.5,0.5-3.7,0.7c-8.3,1.3-16.4,0.3-22.1-2.5s-9-6.9-9-13c-0.1-3.5,1.2-6.8,3.6-9.3
		c2.6-2.6,6.9-4.7,14.2-5.2c5.8-0.4,11.3-0.5,17-0.9L40.3,45.6L40.3,45.6z"/>
	<path style="clip-path:url(#SVGID_00000099622031341274548410000008515647786511558825_);fill:#1A1A1A;" d="M56.4,43.3
		c-5.9,1.4-11.9,2.2-18,2.4v6c4.7-0.2,9.4-0.7,14-1.5L50.7,55l4.3,0c5.8-0.1,11.5-1,17-2.6c-4.4,17.4-18.9,27-33.6,29.8v6.1
		C56.8,85.1,75.9,72.2,79,48.5l0.6-4.8L75,45.2c-5.1,1.6-10.3,2.7-15.6,3.4l0.6-1.3l2-5.3L56.4,43.3z"/>
	<path style="clip-path:url(#SVGID_00000099622031341274548410000008515647786511558825_);fill:#595959;" d="M57.1,46.2
		c-12.6,3-22.3,2.3-34,3.2C7.6,50.6,2.6,58.7,2.6,66.9c0,29.1,67.5,26.4,73.5-18.9c0,0-11.3,4-21.1,3.9L57.1,46.2L57.1,46.2z"/>
	<path style="clip-path:url(#SVGID_00000099622031341274548410000008515647786511558825_);fill:#797979;" d="M57.1,46.2
		c-12.6,3-22.3,2.3-34,3.2C14.3,50.1,8.9,53,5.8,56.9C14,71.1,60.3,68.5,76.1,48c0,0-11.3,4-21.1,3.9L57.1,46.2L57.1,46.2z"/>
	<path style="clip-path:url(#SVGID_00000099622031341274548410000008515647786511558825_);fill:#3E3E3E;" d="M76.1,48
		C68.2,77.6,13.8,89,3,63c-0.3,1.3-0.4,2.7-0.4,4C2.6,96.1,70.1,93.3,76.1,48z"/>
	<path style="clip-path:url(#SVGID_00000099622031341274548410000008515647786511558825_);fill:#1A1A1A;" d="M40.3,47.9
		c-5.7,0.3-11.2,0.4-17.3,0.8c-7.9,0.6-13.2,3-16.6,6.3c-3.1,3.2-4.8,7.5-4.6,11.9c0,7.6,4.5,13.2,11.1,16.4s15.4,4.2,24.3,2.8
		c1-0.2,2.1-0.4,3.2-0.6V84c-1.1,0.2-2.2,0.5-3.4,0.6C28.3,86,19.8,85,13.6,82S3.3,74,3.3,67c-0.1-4.1,1.4-8,4.2-10.9
		c3-3,8-5.3,15.6-5.9c6-0.4,11.5-0.5,17.2-0.8V47.9z"/>
	<path style="clip-path:url(#SVGID_00000099622031341274548410000008515647786511558825_);fill:#1A1A1A;" d="M57,45.5
		c-6.1,1.4-12.3,2.3-18.5,2.5v1.5c5.9-0.2,11.8-1,17.5-2.2l-2,5.5h1c9.1,0,18.4-3,20.1-3.6C71.8,70,55,81.4,38.5,84.4v1.5
		C56,82.8,73.9,70.6,76.8,48.1l0.2-1.2l-1.2,0.4c0,0-10.5,3.6-19.7,3.8l1.7-4.6l0.5-1.3L57,45.5z"/>
	
		<rect x="-9.1" y="-8.9" style="clip-path:url(#SVGID_00000099622031341274548410000008515647786511558825_);fill:none;" width="213.7" height="298.4"/>
	<path style="clip-path:url(#SVGID_00000099622031341274548410000008515647786511558825_);fill:#9F313A;" d="M45,0.1H16H0V16
		c0,7,0,14,0,21c10.3,12.4,28.6,14.1,41,3.8c6.7-5.5,10.5-13.8,10.5-22.4C51.5,11.7,49.2,5.3,45,0.1z"/>
	<g style="clip-path:url(#SVGID_00000099622031341274548410000008515647786511558825_);enable-background:new    ;">
		<text transform="matrix(1 0 0 1 15.6 31.85)" class="st17 st2 st18">25</text>
	</g>
</g>
</svg>
