<svg id="Слой_1" data-name="Слой 1" xmlns="http://www.w3.org/2000/svg" viewBox="0 0 195.59 280.63"><defs><style>.cls-1{fill:#428ecc;}.cls-2,.cls-24,.cls-30,.cls-34,.cls-5{fill:#fff;}.cls-25,.cls-3,.cls-32{fill:#107bc0;}.cls-12,.cls-13,.cls-21,.cls-22,.cls-23,.cls-3,.cls-4,.cls-5,.cls-6,.cls-8{fill-rule:evenodd;}.cls-10,.cls-4{fill:#424242;}.cls-6{fill:#da271e;}.cls-29,.cls-7,.cls-9{fill:none;}.cls-17,.cls-8{fill:#8c8b89;}.cls-30,.cls-9{stroke:#fff;}.cls-9{stroke-linecap:round;stroke-width:3.54px;}.cls-11{fill:#f0f0f0;}.cls-12,.cls-15{fill:#b7b6b4;}.cls-13,.cls-14{fill:#706f6b;}.cls-16{fill:#53524e;}.cls-18{fill:#d3d3d2;}.cls-19{fill:#c6c5c4;}.cls-20{fill:#a8a8a6;}.cls-21{fill:#eee52c;}.cls-22{fill:#fbfbfb;}.cls-23{fill:#ece42f;}.cls-24,.cls-25,.cls-26,.cls-27,.cls-28,.cls-29,.cls-31{stroke:#424242;stroke-miterlimit:10;stroke-width:0.75px;}.cls-26,.cls-33{fill:#df221b;}.cls-27,.cls-28{fill:#f7c503;}.cls-28{fill-opacity:0;}.cls-30{stroke-width:0.84px;}.cls-31{fill:#010101;}.cls-32{font-size:24.77px;}.cls-32,.cls-34{font-family:Impact;}.cls-34{font-size:20px;}.cls-35{letter-spacing:-0.01em;}</style></defs><rect class="cls-1" x="-9.21" y="-8.4" width="214.01" height="297.89"/><path class="cls-2" d="M96.4,135.87C74.91,123,59.07,106,49.33,85.1,40,65.08,36,41,37.43,13.56l.12-2.21H157.88l.14,2.18c3.67,57-15.72,97-59.25,122.35l-1.19.69Z"/><g id="layer1"><g id="g3482"><path id="path2183" class="cls-3" d="M39.76,13.68C36.89,67,54.48,108.1,97.59,133.87c38.94-22.68,62-59.34,58.11-120.19Z"/><g id="g3195"><path id="path3184" class="cls-4" d="M46.82,14A6.5,6.5,0,0,1,48,18a2.68,2.68,0,0,1,2.77,2.8l.6-.58L79.62,52l.86-3.49L52.61,19.06l.65-.62c-1.79-.22-2.48-1.19-2.3-2.84A9.79,9.79,0,0,1,46.82,14Z"/><path id="path3190" class="cls-5" d="M47.79,15a4.15,4.15,0,0,1,.63,2.59A2.91,2.91,0,0,1,51,20.08l.49-.47L79.75,50.72,80,49.46,52,19.14l.46-.43a2.59,2.59,0,0,1-2-2.7A5.21,5.21,0,0,1,47.79,15Z"/></g><path id="path2820" class="cls-4" d="M120.08,20.64a9.77,9.77,0,0,1-8.25-.13c-5.5-1.51-7.64,2.19-12.53,1.9l0,2.93a12.78,12.78,0,0,0,5.32-.5,7.91,7.91,0,0,1,8.82.5c2.43,1.18,4.69,1.53,6.6.91,1.81-1,3.63-.63,5.44.24,1.42.9,3,.53,4.5.38a5.86,5.86,0,0,1,4.74.2,3.94,3.94,0,0,0,3.51,0c1.59-.94,2.94-.4,4.33-.08,1.15.65,2.16.77,2.88-.12,2.72-1.7,4.62.91,6.85,1.77-2.83.93-3.86-.27-6.27.7a5.06,5.06,0,0,1-4.08.45c-.86-.22-1.66-.69-2.72.13a7.24,7.24,0,0,1-5.45,0,4.75,4.75,0,0,0-4,.29,7.91,7.91,0,0,1-5.28-.13,6.19,6.19,0,0,0-4.57.25,9.65,9.65,0,0,1-7.59-.37c-4.05-1.6-8.05,1.87-13.16,1.48L99.05,35c.77.36,3.14-.21,5.15-.58,3.47-1.55,6.68-.69,9.82.7,2,.44,3.89,1,6.06.62a7.26,7.26,0,0,1,6.27.41,5.26,5.26,0,0,0,3.59.42c2-.89,3.54-.24,5,.49,1,.33,2.48.66,3.34.13,1.73-.53,3.42-.78,4.74,0a3,3,0,0,0,3,.12c1.84-1.91,4.33,1,6.6,1.9-1.23.1-1.89,1.14-3.71.24-.78-.13-1.58-.39-2.15.21a8.46,8.46,0,0,1-5.44-.08c-.94-.24-1.59-1.14-3.13,0a5.4,5.4,0,0,1-5,0,3.38,3.38,0,0,0-3.22.12,7.19,7.19,0,0,1-5.65-.12,6,6,0,0,0-4,0,12.31,12.31,0,0,1-8.91-.87c-1.8-.27-3.38-1.2-6-.12a19.51,19.51,0,0,1-9.11.66c-3.61-.36-5.81-.84-8.75.91a11.67,11.67,0,0,1-8.62,1.19c-1.84-.14-3.14-1.06-6.72,2.06-1.36.13-2.47,0-1.77-1.81l2-2c.41-1.5-.57-2.52-1.77-2.27l-2.4,1.82c-1.56.15-1.75-.57-1.23-1.74l2.14-2.14a1.58,1.58,0,0,0-1.77-2.19l-2.85,1.78c-1.33.05-2.28-.35-1.52-1.86L66,29.88c.53-1.11-.84-2.81-2.11-2.19l-3.46,2.39c-1.15.18-1.8.16-1.4-1.65l3-3.09c.71-1.63-.85-2.47-2-1.86l-3.51,2.35c-1.24.23-1.87,0-1-1.44l3.38-3c.55-2.26-.83-2.73-2.14-2.35L52.3,21.93c-.6,0-1.73.12-1.08-1.54l5.57-3.95a14.66,14.66,0,0,1,13.48-.79,20,20,0,0,0,11.91.25c4.55-2.49,9.25-1.25,13-.21a11,11,0,0,0,8.13.58,10.29,10.29,0,0,1,9.14,0,8.5,8.5,0,0,0,7.13.5c1.66-.69,3.66-1.55,6.52,0a3,3,0,0,0,3.67.17c1.17-1.31,2.59-1.53,4.41-.09,1.29.33,2.34,1,3.83.13,1.25-1.58,3.7-.89,4.45.08.91.6,2.65.21,4-.5a2.19,2.19,0,0,1,3,0l3.5.17c-.26,1.89-1.57,2.07-3.25,1.66-1.05-.05-2.15-.26-3,.42a8.56,8.56,0,0,1-5.9.75,1.11,1.11,0,0,0-1.7.25c-1.21,1.17-2.55.78-3.87.46s-2.81-1.3-4.33-.09a6.73,6.73,0,0,1-6.44.37C123,20.21,121.41,19.87,120.08,20.64Z"/><path id="path2829" class="cls-5" d="M141.6,39a5,5,0,0,0,4.9-.06c1.74-1.16,3.35.4,4.59.23-1.37-.59-2.87-2.87-4.42-1.44a4.45,4.45,0,0,1-3.66,0c-1.54-.54-3.06-.85-4.5,0a4.38,4.38,0,0,1-4.38-.45c-1-.31-1.43-1-3.46-.2a5.68,5.68,0,0,1-4.58-.4c-2.41-1.86-5-.6-5.79-.4a9.77,9.77,0,0,1-7.15-1,12.94,12.94,0,0,0-9.45-.12,14.1,14.1,0,0,1-5.5.51l.19-4.94c2.62-.06,4.6.11,6.91-1,2.06-.73,4.25-1.79,7.76-.12a8.84,8.84,0,0,0,7.1-.17c1.43-.43,2.8-.87,4.36,0,1.45.57,3.69,1.16,5.45-.13a4.38,4.38,0,0,1,3.95.14c1.33.25,3.12,1.12,5,0,1.5-.85,2.23-.93,3.08-.27a4.16,4.16,0,0,0,3.67-.53c1.46-.83,3.33-.37,4.58-.5-1-.13-2.63-1.77-4-.57-1.19.17-2.33.86-3.62,0a3.24,3.24,0,0,0-3.58.28,5.58,5.58,0,0,1-4.46-.24,4.55,4.55,0,0,0-4.1-.08,8.22,8.22,0,0,1-5.38-.61c-1.37-.49-2.73-1-4.3-.16-2.59,1.15-5.38.43-8.29-1.2-2-.56-2.93-2-9.36.52l-4.64.14.34-5c-.06,0,.3.33.24.36,2.53,0,4.6,0,6.71-1.39a9.08,9.08,0,0,1,7.11.29c2.47.42,4.25,1,6.72-.41a5.68,5.68,0,0,1,5.11-.08c2.68,1.12,4,.93,5.57-.18,1.41-.82,2.76-1.16,4.06-.37,1.4.44,2.93,1.11,4.32,0,1-.69,2.22-1,3-.54,1.65.72,3.49.08,5-.8,2-1.39,4.7.72,5.31-.83-2,0-4.29-1.35-5.8-.08a3.74,3.74,0,0,1-3.94.13,3,3,0,0,0-3.93,0,3.15,3.15,0,0,1-3.71,0c-1.49-1.08-3.45-1.28-4.51,0-1.61,1.15-2.74.83-4.57-.27-1.88-.84-3.91-.61-6.35.52-3.42.52-4.61.3-7.16-1a9.16,9.16,0,0,0-7.84.08,11.07,11.07,0,0,1-9.24-.36c-3.81-1.11-7.7-1.92-12.46.24-4.27,1.39-9,1.06-11.58-.08-5.33-2.6-10.78-1.72-14.11.73l-4.9,3.46c-.14.4-.24.87.66.75l3.88-2.77a2.3,2.3,0,0,1,3.14,3L56.15,24.5c-.29.75-.2,1.23.36,1.13L60,22.81c2-.7,3.52.65,2.73,3l-3,2.85c-.36.75-.21,1.22.72,1l3.18-2.58c2.55-.68,3.57.83,2.93,3.22l-3.17,3.09c-.5,1,.5.85.88,1L67,32.7c1.81-.6,3.74.71,2.78,2.73l-2.33,2.26c-.2.57-.17,1.23.8,1l1.77-1.81c1.78-.42,3.91.79,2.81,3.58l-2,1.65c-.26.68.21,1,.81.88,2.24-1.68,4.9-2.92,7.62-2.17a10.32,10.32,0,0,0,7.94-1.19c3.48-1.79,6.63-1.34,9.48-.82a18.13,18.13,0,0,0,8.56-.7c2.59-1.17,4.81-.42,6.86.24,2.9,1.89,6.56,1.49,9.25.49a5.3,5.3,0,0,1,4.32.42,7.06,7.06,0,0,0,4.57-.28c1.52-.7,2-.36,3.46.13a3.85,3.85,0,0,0,4,.14C139.4,38.21,140.21,38,141.6,39Z"/><path id="path2457" class="cls-4" d="M117.87,73a33.44,33.44,0,0,1,7,1.2,1.86,1.86,0,0,1,3,.93,14,14,0,0,1,9.5,10.69c4.45-1.77-3.09-13.25-9.41-19-6.13-8.86,0-23.24,15.4-25.08,6.61-.31,10.17,3.2,10.14,11.25-2.74,5.47-7.61,3.46-8.3,6-1,.52-1.91.21-1.84-.92a8,8,0,0,1,3-6.73c2-3.21,4.69-5.31.19-6.82-6-.58-9.11,1.38-10.42,5-2,10.75,8.27,18.41,8,28.85.15,6.37-2.09,8.61-4.61,10.37-1.44.46-2.39,1.2-2.12,2.63a2.21,2.21,0,0,1-.6,2.35c-4.37,8.25-11.73,8.95-17.74,13-.25.34-.67.71-.22.93,4.91.64,4.28,3.32,1,5.46-.67.19-1.45.23-1.37,1.34-1.37.12-2.21.66-2.46,1.66-1.34-1-1.48.21-1.87,1-.54,0-1.38-1.37-1.94,1.71-.58,0-1.39-2.53-2,.06-.26-.33-1.15-.88-1.12.07a3.5,3.5,0,0,1-3.47,3.09c-.37-.85.24-1.64-.23-2.36-1.09-.58-2,.18-1.38.82,1.14,2,.62,4.43.84,6.65-1.72.85-9.55,2.45-10.44.08-1.3-.16-2.91-.09-3.85-.81a23,23,0,0,1,1.44-7c.92-1.43,3-3.25,6.94-4.49,5.74-3.48,9.36-2.21,12.83-4.3-.52-1.88-6.79-.12-9.14-3a39.21,39.21,0,0,1-4.61-1.3c-1.86-.48-1.76-2.54-.92-4,1.06-1.74,3-3.19,3-5.3-1.88,1.34-4,2.36-5.3,4.46a1.75,1.75,0,0,1-1.92.69c-.92-1.75.43-2.93,1-4.3H92.34c-2.4.54-2.56,2.78-5.14,2.76A9.69,9.69,0,0,1,87.89,97l-2.54-1C84,97,83,98.79,81.05,98.31c-.42-1.26.46-2.51,1-3.77a10.06,10.06,0,0,1-3-1.38c-3.7,1.38-9.22,2.37-10.37,4.3H73c1.07,1.66,2.82,5.24,2.46,8,1-.27,2.12-.6,3.54-1.07a1.55,1.55,0,0,1,1.84.38c3.12,2.83,3.81,5.88,4.76,8.91-3.18.4-6.31.34-9.29-1.3-2.92-.44-5.58-1.11-6.07-3.77-2.12-5.7-6.61-5.33-8.22-11.37-2.09-3-3.42-6.51-4.92-9.91-.56-1.62.31-2,.92-2.69l3.77-1.08-1.39-1.69c-2-2-1.73-4.12-1.07-6.3.16-2.2.22-4.36.61-6.68a26.56,26.56,0,0,1,.51-2.79c-1.12-.1-1.5-.18-2.68-.24-.23,1.81-.42,3.49-2,3.49l-1-.54a4.67,4.67,0,0,1,.07,2.31c-2.5.27-5.54,1.45-6.91-.16-1.33-2.24.83-2.66.44-4.73a1.72,1.72,0,0,1-.42-2.93l-2.4-6.47c-1.33-5,1-6.07.23-8a1.84,1.84,0,0,1-.92-2.62l-.16-3.15C42,41.67,42.48,37.83,41,35.93c2.42.45,4,3.09,5.88,5.06l.82-.28c-1.32-2.1-.56-4.39-1.75-6.85C47.3,35.3,49.62,36,51,39.49c.79-1.44,1.63.9,2.58,0,.44-.7,1.36.21,1.89-.15a2.67,2.67,0,0,1,1.79.51,3.07,3.07,0,0,1,2.44.37c.8-.08,1.38,0,1.5.48a3.29,3.29,0,0,1,2,.51c1.84-.55,2.36,1,3.41.79,1.63-.28,2.47.58,3.29,1.48a6.31,6.31,0,0,1,2.13,1.79c1.15.31,1.36,1.36,1.79,2.24a4.18,4.18,0,0,1,2.42,3.13,5.23,5.23,0,0,1,1.84,3.24L79,55.44c9.52,23.08,12.42,20.67,36.21,17.78C115.83,72.24,116.41,71.27,117.87,73Zm-60.36-9.6a25,25,0,0,0,3.47.28c.68-3.17,1.3-6.23.23-7.78-.83,2.65-1.45,5.67-3.45,6.37A3.22,3.22,0,0,0,57.51,63.35ZM67.87,90.12a12.06,12.06,0,0,1-2.94,3.26,1,1,0,0,1-1.49-.14c-.83-1.55-2.1-3.25-2.16-4.54C61.85,88.63,64.06,90.6,67.87,90.12Z"/><g id="g2186"><path id="path1307" class="cls-4" d="M79.14,47.92l39.05.12c1.29,15.47-2,32.36-19.88,41.53C81.2,77.94,77.82,63.3,79.14,47.92Z"/><path id="path2182" class="cls-6" d="M79.6,49l37.65.12c1.25,14.9-2,31.17-19.17,40C81.59,77.9,78.33,63.8,79.6,49Z"/></g><path id="path2635" class="cls-5" d="M57.75,44.43l.07,3,3.55,6.15a11.34,11.34,0,0,1,.74,6.14,75.88,75.88,0,0,0-2.43,15.53C69.2,77.52,75.53,72.4,81,68.69l-1.1-3.25c-1-.08-2,.08-1.1,1.5,1.12,1,1,1.92,0,2.73-1.07.23-1.33-1-1.84-1.81A7.28,7.28,0,0,0,75,70.74c-.88-1.33-1.13-2.14-.43-3.3.57-.67.31-1.9.31-3a3.09,3.09,0,0,1-2.64-.27c1.69.19,3.26-3,2.87-5l-.77.73a2.33,2.33,0,0,0-1-2.41,3.53,3.53,0,0,1-.73,2.64c.09-2-1.24-2.38-1.81-3.27-.49,1.78,1.69,3.48-.07,4.93-1.54.35-2.51.14-2.63-1.45a2.17,2.17,0,0,1,1.06-1.6c.6.28-.29,3,1.23,1.61,0-1.5-.84-2.07-3-4.21-.29-.84.59-2.51-.14-2.51a3.43,3.43,0,0,0-1.14,0c-.27.07,0,1.47-.37,1.51a4.21,4.21,0,0,1-2-2.74c-1.78-.32-2.23-1.67-2.71-3.45a4.29,4.29,0,0,0-.62-1.52c-.09-.13.12-4.2,0-4.31s-.28-.6-.67-.4c-.18.76-.1,3.83-.23,3.77Z"/><path id="path2637" class="cls-5" d="M59.55,75.72c7.94,2.07,14.56-1.08,21.4-6.56l.25.6c-6.89,5.92-13.89,8.57-21.74,6.72Z"/><path id="path2642" class="cls-5" d="M59.4,77.06c8,1.77,15.2-.8,22-6.78l.24.6c-6.58,6.17-14.17,8.75-22.42,6.8Z"/><g id="g2486"><path id="path2582" class="cls-5" d="M68,88.93,61.79,84a21.67,21.67,0,0,0-3.61,1,1.65,1.65,0,0,0-.37,2.2,30.1,30.1,0,0,0,4.28,9.53A5.84,5.84,0,0,1,63.66,95a22.62,22.62,0,0,1-3.24-5.84c-.07-1,.29-1.34,1.1-1.11C63.72,89,66.45,90.11,68,88.93Z"/><path id="path2477" class="cls-5" d="M43.29,38.28c.79-.43,3.37,3.48,2.62,3.23-.9,0-1.17-.83-1.63-1.45A5.91,5.91,0,0,1,43.29,38.28Z"/><path id="path2479" class="cls-5" d="M43.1,38.9c-.39,1.18.84,3.7,2.21,3.05A12.25,12.25,0,0,1,43.1,38.9Z"/><path id="path2481" class="cls-5" d="M47.65,37.56a11,11,0,0,1,.84,1.76,13.44,13.44,0,0,1,1.09,1.82C49.15,41.26,47.29,39.5,47.65,37.56Z"/><path id="path2483" class="cls-5" d="M47.68,36.5c.88.2,2.15,2.62,2.21,3.74C49.35,40.19,48.9,40,47.68,36.5Z"/><path id="path2485" class="cls-5" d="M46.84,46.83a.46.46,0,0,1-.44.49.49.49,0,0,1,0-1A.46.46,0,0,1,46.84,46.83Zm-.42-1.28a1.27,1.27,0,0,0,0,2.53,1.27,1.27,0,0,0,0-2.53Zm0,.46h.05a.8.8,0,0,1,.79.81.79.79,0,0,1-.79.8A.81.81,0,0,1,46.4,46Z"/><path id="path2497" class="cls-5" d="M56.55,46.83a.46.46,0,0,1-.44.49.49.49,0,0,1,0-1A.46.46,0,0,1,56.55,46.83Zm-.43-1.28a1.27,1.27,0,1,0,1.28,1.27,1.26,1.26,0,0,0-1.28-1.27Zm0,.46h.06a.81.81,0,0,1,.79.81A.8.8,0,1,1,56.1,46Z"/><path id="path2499" class="cls-5" d="M55.27,64.18a.44.44,0,1,1-.44-.49A.47.47,0,0,1,55.27,64.18Zm-.43-1.28a1.27,1.27,0,1,0,1.28,1.26,1.26,1.26,0,0,0-1.28-1.26Zm0,.46h0a.81.81,0,1,1-.8.8A.8.8,0,0,1,54.87,63.36Z"/><path id="path2501" class="cls-5" d="M49.45,64.56A.46.46,0,0,1,49,65a.48.48,0,0,1,0-1A.46.46,0,0,1,49.45,64.56ZM49,63.28a1.27,1.27,0,0,0,0,2.53,1.27,1.27,0,0,0,0-2.53Zm0,.46h0a.81.81,0,1,1-.8.81A.81.81,0,0,1,49,63.74Z"/><rect id="rect2503" class="cls-2" x="48.12" y="46.58" width="6.34" height="0.64"/><rect id="rect2505" class="cls-2" x="50.39" y="64.05" width="3.05" height="0.56"/><path id="path2507" class="cls-5" d="M45.87,41.76c-.35.42-.14,2.2-.16,3.45.95,0,1.64,0,2.21.7l6.72.1c-.08-.65,1-1.26,2.49-.72a3.21,3.21,0,0,0-3.07-2.49c-1.1-.17-1.94-2.4-4.13-2.57.06,1.45-.65.65-.76,4.34l-.57.88a1.34,1.34,0,0,0-1.84-.72C46.46,43.74,46.39,41.34,45.87,41.76Z"/><path id="path2514" class="cls-5" d="M46.88,41.48c-.89.58.48,1.86.28,2.44C47.31,44,48.38,43.51,46.88,41.48Z"/><path id="path2516" class="cls-5" d="M47.62,41.19c.31.21.69.63.61,1.81C48,43.09,47.53,42.38,47.62,41.19Z"/><path id="path2518" class="cls-5" d="M48.66,41.34a2.92,2.92,0,0,0,.11,2.18A2.55,2.55,0,0,0,48.66,41.34Z"/><path id="path2520" class="cls-5" d="M46.39,50.86l1.3,9.27C46.62,57.8,44.62,54.5,46.39,50.86Z"/><path id="path2522" class="cls-5" d="M47.28,48.44l2,14.33-.73,0-2-14.29Z"/><path id="path2524" class="cls-5" d="M55.74,48.48l.72.09L55.21,62.72l-.72-.14Z"/><path id="path2526" class="cls-5" d="M48.11,47.8l-.43.53,2,14.39.82.72h2.88l.57-.67,1.3-14.29L54.63,48Z"/><path id="path2528" class="cls-5" d="M53.29,49.91c-.8,1.37-4.43,1.62-3.89,5.47C50.36,53.9,54.14,54.28,53.29,49.91Z"/><path id="path2530" class="cls-4" d="M52.43,52.58a.94.94,0,0,1-.94.93.92.92,0,0,1-.93-.93h0a.92.92,0,0,1,.93-.94.94.94,0,0,1,.94.93Z"/><path id="path2532" class="cls-7" d="M51.61,50.15a3.6,3.6,0,0,0-2.3,1.68"/><path id="path2534" class="cls-7" d="M54.2,51c0,1.93,0,3.84-1.15,4.27"/><path id="path2536" class="cls-5" d="M57,49.48a63.91,63.91,0,0,1,3.36,5.66c-.51,3.37-1.59,5.53-3.12,6.72l-.57,1.58c-.44,0-.74-.29-.92-.81Z"/><path id="path2538" class="cls-7" d="M57.89,55l-1,5.32"/><path id="path2540" class="cls-5" d="M57.7,47.8l-.72.48,3.65,6.43.67-.53Z"/><path id="path2542" class="cls-5" d="M53.67,65.46A9,9,0,0,0,54.2,70c-.52.49-3.83,1.29-5.13.72-2.07-1-.1-2.84.1-4.31.67-.07,1.27-.24,1.43-1.06A5.08,5.08,0,0,1,53.67,65.46Z"/><path id="path2544" class="cls-4" d="M53.05,68.77c-1.57,0-1.9-.88-2.78-.92a1.14,1.14,0,0,0-.1,2.21.7.7,0,0,0,.72-.77C51.66,69.21,52.63,69.54,53.05,68.77Z"/><path id="path2546" class="cls-5" d="M56.22,64.93c-2,1.84-1,3.09-.24,3.45C56.72,66.85,57.24,65.45,56.22,64.93Z"/><path id="path2548" class="cls-5" d="M56.62,63.67l-.11,1.42a94.34,94.34,0,0,0,24.09.7l-.33-1.73A90.65,90.65,0,0,1,56.62,63.67Z"/><path id="path2630" class="cls-8" d="M69.13,99.49c-.29-1.39,1.68-.95,2.84-1.15a1.44,1.44,0,0,1,.5,1.81Z"/><path id="path2626" class="cls-5" d="M75.46,106.34c.94,1.12.55,3.41.82,5.12-1.16-.31-2.38-.11-3.48-.92-1.6-.42-1.72-2-2.46-3.08-1.23-3.09-3.13-4.27-4.66-5.86-2.27-1.12-3.49-3.85-2.63-5.25,2.72-3.42,6.6-6.41,8.11-9.67.39-.22.94,0,.69.64-.58,1.64,1.26,2.2,2.35,2.56.28,1.28,1.75,1.77,3.68,2-.45,1-2.46,1.07-3.92,1.47A40,40,0,0,0,66.87,97c-.6.57-.94,1.12,0,2,1.28,1.41,3.18,3.28,2.53,4.48,1.91.38,1.59-.71,3.56-.25-1.07,1-1.44,1.77-.25,2.83C73,106.66,74.55,106.24,75.46,106.34Z"/><path id="path2628" class="cls-5" d="M68.62,99.84c.55.19,1.23,0,1.28,1,1,.21,1.08,1,.89,2l2.87.09c-.08-.53.06-1.34-.51-1.45l-1.94-.14c0-.7,1.16-.26,2-.33-.07-.59,0-.89-.34-1.06A5.93,5.93,0,0,1,69.41,99C69.09,99.26,68.47,99.45,68.62,99.84Z"/><path id="path2632" class="cls-8" d="M74.33,103.87c1,1.2-1,1.72-1.54.87C73.41,104.59,74.13,104.57,74.33,103.87Z"/><g id="g2648"><path id="path2634" class="cls-8" d="M75.8,106c.44-.74,1.63-.73,2.76-.77.21.25.48.45-.23,1.46.27-.9,1.35-.9,2.69-.62a2.13,2.13,0,0,0,1.22,1.54l-2.15.15c0,.4,1.55.32,2.38.46,1.27.78,1.69,2.28,1.77,4.07-2.28.13-5.57-.74-6.29-.46l5.83,1c-1.69,1-4.28,0-6.83-.92C76.91,110.18,77.49,107.84,75.8,106Z"/><g id="g2643"><path id="path2636" class="cls-9" d="M76.38,106.2h1.27"/><path id="path2639" class="cls-9" d="M77.43,107.18l2.87,0"/><path id="path2641" class="cls-5" d="M82.61,108.41c-1.83.12-4.63-.45-5.36.46-.67,2,.82,1.9,1.71,1.87,2.05,0,2.81.13,3,.36l-2.82.49c0,.35,1.19.26,2.29.22.39-.36,1.64-.29,2.56-.38a2.9,2.9,0,0,0-1.29-1.78c-1.68,0-2.13-.55-3.54-.56C79,108.42,82.64,109.14,82.61,108.41Z"/></g></g></g><g id="g2421"><g id="g2442"><path id="path2410" class="cls-4" d="M103.71,43.52l-1.85.09c-.89,2.1.19,3.76,4.44,4.68L91.21,48c1.93-.42,3.41-1,3.65-2.2-.24-.76-1.74-.28-2.69-.34-.64-.11-.9-.87-.33-1.68l0-5.07a4.37,4.37,0,0,1,1.76-2.28l2.91-2.5c1.1-1.24,5.73-2.33,7.09.22l.86,8.14C104.42,42.91,104.28,43.45,103.71,43.52Z"/><path id="path2414" class="cls-5" d="M95.64,45.12a2.54,2.54,0,0,1-1,2.24l7.17.12c-.4-.84-1.39-1.67-.9-2.5.36-1.13-.49-1.15-.86-1a3.77,3.77,0,0,1-1.83,1.3C97.52,44.9,95.83,44.79,95.64,45.12Z"/><path id="path2416" class="cls-5" d="M99.79,34l1.34,1.12c.47.19,1,.46,1.42.07.26-.25.26-.69-.07-1.34a5.72,5.72,0,0,0-2.24-.82C100.4,33.67,100.41,34.15,99.79,34Z"/><path id="path2418" class="cls-5" d="M101.8,35.87l.38,6.94c.61.16.82-.19,1-.82l-.45-5.3C102.5,35.78,102.28,35.79,101.8,35.87Z"/><rect id="rect2420" class="cls-2" x="93.52" y="38.33" width="4.55" height="0.67"/><rect id="rect2424" class="cls-2" x="94.26" y="37.06" width="3.88" height="0.52"/><path id="path2426" class="cls-5" d="M95.42,36.6c0-.68,1.11-.07,1.41-1.17.65-.58,1.18-.24,1.32,0a2.87,2.87,0,0,0,1.94.33c.72-.21,1.06.09,1.19.67l.08,6.59a3.61,3.61,0,0,0-2.62,1.36l-5.52,0,.07-.32.88-.08.12-.5.71,0,0,.5h1v-.5l1,0,0-.55-1-.21.09-.71-.8-.12-.12.75-.71-.13,0-.66-.59-.05-.67.42.13-2.72,5.48-.12,0-2.84Z"/><rect id="rect2430" class="cls-10" x="100.1" y="36.27" width="0.79" height="0.79"/><rect id="rect2432" class="cls-10" x="100.1" y="37.53" width="0.79" height="0.79"/><rect id="rect2434" class="cls-10" x="100.1" y="38.95" width="0.79" height="0.79"/><rect id="rect2436" class="cls-10" x="100.1" y="40.24" width="0.79" height="0.79"/><rect id="rect2438" class="cls-10" x="100.1" y="41.62" width="0.79" height="0.79"/><path id="path2440" class="cls-5" d="M92.28,44l0-5.18c.4-1.48,1.69-2.07,2.59-3.05l.25.21c-.8,1-2.2,1.8-2.38,3v3.59l1.12.3-.12.43-1-.06V44Z"/></g><g id="g2661"><path id="path2655" class="cls-8" d="M91,126.21a20.93,20.93,0,0,1,1.31-6.06,8.56,8.56,0,0,1,3.7,0,2.38,2.38,0,0,1-.76,1.86c-.1.27-.38.48,0,.94,1.35,1.45-.4,3.43-1,3.56C92.58,126.89,92.83,126.2,91,126.21Z"/><path id="path2657" class="cls-5" d="M92,121.6a32.2,32.2,0,0,0-.73,4.07c.18.1.36.3.55,0a12.78,12.78,0,0,1,.65-3.92C92.41,121.48,92.23,121.52,92,121.6Z"/><path id="path2659" class="cls-5" d="M93.78,120.11c-1.2,2.64-.81,4.17-1.2,6.25.81.47,1.59.11,2.4-.87a3.08,3.08,0,0,1-.07-2.62,5.58,5.58,0,0,0,.11-2.72Z"/></g><g id="g2684"><path id="path2666" class="cls-8" d="M97.27,121c1-.63,4.29-.3,5.7-.14-1.49,2.09-1,4.1-.43,6.1-3.06.3-5.24,1.91-6.43.25C95.64,126.37,95.84,122.26,97.27,121Z"/><path id="path2668" class="cls-8" d="M103.59,120.86c.62.69.58,6.11-.73,5.7C103,124.25,102.9,120.53,103.59,120.86Z"/><g id="g2678"><rect id="rect2670" class="cls-11" x="103.34" y="122.82" width="0.44" height="2.32"/><path id="path2672" class="cls-5" d="M98.8,120.79c-1.3,1.85.19,3.21-1.13,6.17-.23-1.17-.53-2.06-1-2.17.13,1,.29,2-.15,2.57a5.23,5.23,0,0,0,2.94.08l1.2-.48,1.67-.14c-1.15-.45-.88-2.13-.72-3.7.59-.47.36-1.48.43-2.29l-1-.08c-.47.48-.1,5.57-1.2,5.78a27.08,27.08,0,0,0,.32-5.78Z"/><rect id="rect2674" class="cls-11" x="97.31" y="123.15" width="0.4" height="1.27"/><rect id="rect2676" class="cls-11" x="97.82" y="125.18" width="0.58" height="1.34"/></g></g><g id="g2697"><path id="path2693" class="cls-5" d="M106.78,95.05c-1.82.66-3.48,1.64-5.47,2l-4.06,6.24c-.38,1.18-.26,2,.49,2.46a15.54,15.54,0,0,0,4.28.91c.34-1-1.29-2.08.56-4.35C104,100,106.41,96.54,106.78,95.05Z"/><path id="path2695" class="cls-5" d="M92.76,119.31l4,.21c2.31-4.86,10-2.53,16.4-8.49l-1.19-.14c-1.66,1.47-7.84,1.58-12.69,4.56A14.19,14.19,0,0,0,92.76,119.31Z"/></g><g id="g2753"><path id="path2703" class="cls-5" d="M120,101.15a.49.49,0,1,1-.49-.53A.52.52,0,0,1,120,101.15Zm-.48-1.42a1.41,1.41,0,1,0,1.43,1.41,1.4,1.4,0,0,0-1.43-1.41Zm0,.51h.06a.86.86,0,1,1-.06,0Z"/><path id="path2705" class="cls-5" d="M125.24,88.86a.49.49,0,1,1-.49-.54A.52.52,0,0,1,125.24,88.86Zm-.48-1.42a1.41,1.41,0,1,0,1.42,1.41,1.4,1.4,0,0,0-1.42-1.41Zm0,.51h.05a.86.86,0,1,1-.05,0Z"/><path id="path2707" class="cls-5" d="M114.94,85.11a.49.49,0,1,1-1,0,.49.49,0,1,1,1,0Zm-.48-1.42a1.41,1.41,0,1,0,1.43,1.41,1.4,1.4,0,0,0-1.43-1.41Zm0,.51h.06a.86.86,0,1,1-.06,0Z"/><path id="path2709" class="cls-5" d="M110.85,96.46a.53.53,0,0,1-.5.55.53.53,0,0,1-.5-.55.53.53,0,0,1,.5-.55A.52.52,0,0,1,110.85,96.46ZM110.37,95a1.44,1.44,0,1,0,1.45,1.44A1.44,1.44,0,0,0,110.37,95Zm0,.52h.06a.88.88,0,1,1-.06,0Z"/><path id="path2701" class="cls-5" d="M110.26,94.55a19.11,19.11,0,0,0,2.6-6,2.06,2.06,0,0,0-.35-2.15,10.63,10.63,0,0,0-4.1-2.15c.29-.51,1.71.41,1.75-.2-.93-.52-2.54-1-3.45.65-.82-.09-1.31.47-1.6,1.44-.77,3.42-2.49,5.37-3.59,8.38-.27.7-.25,1.71,1.19,1.67l4-1.57c1.14-.46,1.32-1.25,1.8-2.67l.35-4.07c.16-.82.17-.44.59-.09.25,4.78-1.84,8.74-5.42,13.91-1.49,2.65-1.12,5.24,1.67,6.53,2.8,1,6.74-.27,8.52,2.28,0,1.69-2.21,3-5.14,4.14-3.38,2.18-9.88,1-11.7,5.71l5.85-.14c1.29-1.94,3.92-1.7,3.51.57,1.58.41,1.56-1.57,1.87-3,2-1.4,2.77-1.09,3.45-.65.06-1.79.86-1.38,2.15-1.5.08-.78,1-.86,2-.85-.34-.56,0-.85.3-1.15.9.46,1.53.14,1.9-1,5.11-1.43,3.22-3.93,1-4.05-2.71-.76-1.09-2.25.5-3.2,5.6-3.47,12.67-5.41,15.74-11.54-.06,0,0-.48-.42-.6l-9.47-2.69-.54.28a26.12,26.12,0,0,1-4.11,9.41,1.83,1.83,0,0,1-2.35,2.59,1.93,1.93,0,0,1,.3-3.59c1.89-2.27,3.29-5.64,4.39-8.84l-.45-.61-7.26-3-.87.44A28.47,28.47,0,0,1,112,95.45c.69,2.41-1.29,3.16-2.6,2.4A1.9,1.9,0,0,1,110.26,94.55Z"/><path id="path2726" class="cls-5" d="M113.58,86.83a21.63,21.63,0,0,1-2.8,7.86l.76.42a21.87,21.87,0,0,0,2.82-8Z"/><path id="path2728" class="cls-5" d="M119.72,99.38A30.48,30.48,0,0,0,124,90.32l.81.21a28.74,28.74,0,0,1-4.24,9.16Z"/><path id="path2730" class="cls-5" d="M109,81.66l-.58.73,4.32,2.83.24-.79Z"/><path id="path2732" class="cls-5" d="M114.52,73.83a44.06,44.06,0,0,1-5.19,7.53L112.91,84l1.09-.67a61.42,61.42,0,0,0,1.91-9.44Z"/><path id="path2734" class="cls-5" d="M116.52,73a46.54,46.54,0,0,1-2.12,10.35l1,.31A77.16,77.16,0,0,0,117.43,73C117,72.56,116.77,72.88,116.52,73Z"/><path id="path2736" class="cls-5" d="M116.31,85.4l-.33.94,7,2.67.3-.91Z"/><path id="path2738" class="cls-5" d="M124.45,87.1a50.3,50.3,0,0,0,1.15-11.72c-2.16-.95-5.23-1.76-7.71-1.19a46.38,46.38,0,0,1-2,9.67l.32,1,7.32,2.86Z"/><path id="path2747" class="cls-5" d="M124.93,87l.88.33a98.64,98.64,0,0,0,1.61-12.15c-.42-.32-.66-.51-1.09-.12A95.43,95.43,0,0,1,124.93,87Z"/><path id="path2751" class="cls-5" d="M126.51,89.25l-.3.85,10.57,3,.24-.94Z"/></g><g id="g2402"><path id="path2749" class="cls-5" d="M135.42,50.61c-2.29,10.18,8,15.13,7.84,27.47-.13,3.47.56,9.53-6.36,10.66a4.89,4.89,0,0,1-.3,2.56l-10-2.67-.25-1.34,2-10.87c.06-.44.5-.32.88-.3,5.08,2.64,7.17,6.27,7.56,10.45,3.13-.57,3.61-3.28,2.56-6.21-2.91-9.58-11-11.3-12.19-19.29a14.83,14.83,0,0,1,8.24-16.22c-.11.89-1.28,1.68-2.08,2.21,1.4,0,3.59-3.08,5.63-3.68C138.93,44.26,136,46.85,135.42,50.61Z"/><g id="g2777"><path id="path2770" class="cls-5" d="M138.64,44.92l5.63-1.81C143,41.28,139.73,43,138.64,44.92Z"/><path id="path2772" class="cls-4" d="M140.38,43.78a3.49,3.49,0,0,1,2.82-.8Z"/><path id="path2775" class="cls-12" d="M144.4,43c.44.59,3.49.31,4.22,1.27C148.43,42.41,145.89,42.07,144.4,43Z"/></g><path id="path1500" class="cls-7" d="M149.63,48.94c-.86,2.33-2.71,3.21-3.89,5.29"/><g id="g2379"><path id="path1493" class="cls-5" d="M150,44.05c.3,7.28-6.05,7.37-5.49,13.67,1.56-1.49,6.73-1.27,8.17-6.3C153.46,47.93,151.29,44.57,150,44.05Zm.34,1.61c3.4,7.59-2.7,8.92-4.69,10.78C146.81,52.69,152.14,51.79,150.3,45.66Z"/><path id="path1504" class="cls-5" d="M150.83,49.68c-1.27,3.24-3.87,4.71-4,5.49C148.13,54.14,150.53,53.49,150.83,49.68Z"/></g><g id="g2395"><path id="path2383" class="cls-7" d="M141.39,74.2c.25,3.7,1.53,8.81-1.95,12.79"/><path id="path2385" class="cls-7" d="M138.51,67.9a35.31,35.31,0,0,1,1.81,13.73"/><path id="path2387" class="cls-7" d="M132.21,59.32c.82,4.83,3,8.3,4.62,12.33"/><path id="path2391" class="cls-7" d="M130.8,50.15c-4.94,12.72,4.53,17.59,6.1,24.05"/><path id="path2393" class="cls-7" d="M135.83,47.13c-5.24,5.47-2.92,12.15.67,19a28.52,28.52,0,0,1,2.94,12.59"/></g></g></g><path id="path1527" class="cls-5" d="M63.82,46.15c-.25,1.56-.28,3.41,1.05,3.39C66,48,64.24,46.75,63.82,46.15Z"/><path id="path1513" class="cls-5" d="M55.4,42.64c-1.95.32-3.18-2.2-4.22-2.52.19-.53,1.23-.33,1.81-.21,0,1.39,2.62,1.39,2.52,2.76"/><path id="path1515" class="cls-5" d="M53.49,40a2.35,2.35,0,0,1,1.91,0l2.73,4.73c-2.88-1.13-1.88-3.66-4.43-4A.69.69,0,0,1,53.49,40Z"/><path id="path1517" class="cls-5" d="M55.8,40c.18-.29.82,0,1.28.18a11.56,11.56,0,0,1,.62,2.72C57.21,43.09,56.59,40.84,55.8,40Z"/><path id="path1519" class="cls-5" d="M57.69,40.44c.29-.15.59-.38,1.42.13.93.78.28,3.35.35,5-1.42-.15.44-3.76-1.62-4.56C57.65,41,57.86,40.53,57.69,40.44Z"/><path id="path1521" class="cls-5" d="M59.89,40.81c1.46-.77,2.21,1.68,2,3.2-.12.22.11.52-.08.66-.56.4-.81,1.36-.1,1.76.28.16-.07.64.05,1-.52,0-1.5,0-.78-3.17C61.14,42.44,59.62,43.06,59.89,40.81Z"/><path id="path1525" class="cls-5" d="M63.36,48.51c-.08,2.68,1.29,3.16.67,3.78a2.79,2.79,0,0,1-2.09-2c-.13-.77-.8-1.48-.58-2.25a2.4,2.4,0,0,0,1-2.59,4.16,4.16,0,0,1,0-2c.52.2,1.15-.29,1.21,2.83A6.11,6.11,0,0,0,63.36,48.51Z"/><path id="path2423" class="cls-5" d="M64.58,51.52c-.46,0-1.11-2.5-.89-2.29s.52.65.9.71C64.82,50.69,64.88,51.39,64.58,51.52Z"/><path id="path1529" class="cls-5" d="M61.89,41.41c1.26-.32,1.25,1.35,1.1,1.7C62.24,43.23,61.73,41.91,61.89,41.41Z"/><path id="path1531" class="cls-5" d="M63.28,41.57C65.66,41,66.55,43.4,66.93,45c.79,3.23-.18,4.9,0,8.27-.25.32-.45.19-.63-.05V46.74c-.4-1.64-.85-4.1-2.89-4.06Z"/><path id="path1533" class="cls-5" d="M63.59,43.19c1.33.11,2,1.86,2.5,4.12L65.8,54.7a2.42,2.42,0,0,1-1.39-1.91c.21-.94.72-1.06.63-2.72.68-.78.54-2.54.1-2.76C63.93,46,63.86,44.75,63.59,43.19Z"/><path id="path2419" class="cls-5" d="M57.87,41.48c-.1,2.8.5,2.54.9,3.19C58.71,43.63,58.76,41.53,57.87,41.48Z"/><path id="path2427" class="cls-5" d="M83.89,74.58c-1.25,1.21-2.38.86-3.54-1.07,2.15,3.48-2,4.94-3.22,1.8,1.81,2.72-2.12,5.31-3.66,2,1.08,3.43-2.79,3.86-3.92,1.2.48,2.87-4.12,2.85-4.26.69-.23,2.22-3.8,2-3.66-.07-.33,2.31-3,1-2.18-.79,8.8,2.31,16.73-1.5,22.68-6.76Z"/><path id="path2498" class="cls-5" d="M60,80.83a31.15,31.15,0,0,0,8.83,7.89c.42.15,1.78-1.12,1-2.08-.4-1,.7-1.72,1.49-1.68,0-.53.17-.89.84-.91-.21.92.8,1.67,2.2,2A1.51,1.51,0,0,1,76,85.35l8.42-9c-.58-1.49-1.26-2.2-.88-.2-.45-.7-1.55-1.22-1,.15-.88-1.19-2-1.91-.7.54-.72-.8-1.14-.81-.46.55-.6-.59-1.26-.83-.5.53-.7-.71-1.41-1-.87.24-1.26-1.49-1.23-.57-.72.18-1.08-1.24-1.9-1.56-1.06,0-1-.55-.84-.22-.54.65-1-.7-1.1-.2-.73.71-.73-1.09-1.38-.74-.86.19-1.09-1.27-1.24-.71-1,0-1.31-2.08-1.35-1.12-.83.39-.84-1.34-1-.66-.65.62-.88-1.8-.6-.22-.69.46-.62-2-.87-.8-.8,0-.28-1.14-1-1.34-.77-.2-.57-1.64-.86-1.43-1-.53-.42-1.87-.72-1.35-.67.33-.6-1-.33-1.5-.74.56-.34-1.59-.59-.84-.62.42-.11-1-.79-1.8-.62-.13-.33-1.14-.76-1.36-.7-.12-.35-1.18-.51-1.15-.63-.22-.48-1.6-.63-.71-.62-.26-.75-2-.54-1-.68-.08-.11-1-.61-.63-.5.22-.24-.82-.47-.6-.42.26-.27-1.15-.48-.63-.51,0-.11-1.07-.48-.61-.52,0,.2-1.07-.31-.51-.38-.19.06-.87-.29-.69-.42-.15.07-.9-.2-.9-.3-.26a1,1,0,0,0-.2-.65c-.11-.1,0,.5-.15.43s-.15-.74-.24-.69-.18.93-.09.91c-.26,0,0-.61-.35-.6-.12,0-.07.63-.15.56s-.11-.48-.27-.46-.11.38-.17.37c-.11-.19,0-.49-.25-.41S60.07,80.78,60,80.83Z"/><path id="path2737" class="cls-5" d="M66.14,42.34c1-.28,2.12.55,2.1,3.55a17.21,17.21,0,0,1-.66,6.38c-.32.37-.45.18-.59,0a19.4,19.4,0,0,0,.59-6.51A5.57,5.57,0,0,0,66.14,42.34Z"/><path id="path2739" class="cls-5" d="M68.44,56.94c-2.35-2,2.08-8.77-.79-14.6,3.68.8,2,6.19,1.58,9.6.47-.26.28-1.15.65-1.51-.1,2.18.45,2.79.73,4.41.4-.27.1-1.91,1-2-.44,1.72-.33,3-.63,3.66a7.49,7.49,0,0,1-2.19-3.79c-.32,2-.18,3.86.9,4.8,1.42,1.23,2.44,4.16-.08,4.21-1.25-.31-1.52-2-.31-2.25-.13.34-.73,2.13,1,1.39C71.68,59.46,69.11,57.42,68.44,56.94Z"/><path id="path2741" class="cls-5" d="M69.1,54.89a3.48,3.48,0,0,0,1.24,2.71C71,57.18,69.52,55.06,69.1,54.89Z"/><path id="path2746" class="cls-5" d="M69.88,43.85c.68,1.26.44,2.73.46,4.15a12.43,12.43,0,0,0,.28,5.67c.3-1.13.81-1.22.81-1.59s-.35-1.17-.63-4A9.53,9.53,0,0,0,71.07,45C70.67,44.21,70.28,43.91,69.88,43.85Z"/><path id="path2748" class="cls-5" d="M71.79,45.5A1.89,1.89,0,0,1,73.3,47c.53,1.1.24,4.44-.13,4.47C71.93,50.36,71.63,48.19,71.79,45.5Z"/><path id="path2750" class="cls-5" d="M71.46,46.68c-.15,4.54,1.83,3.25,1.74,8.84.53-.13.32-3,.56-2.79.65.11.22,3.47-.29,4.32-.74-.12-.94-.56-.8-4.06C72.29,51.94,70.39,50.47,71.46,46.68Z"/><path id="path2752" class="cls-5" d="M74,49.59c-.64,2.12,0,2.72.58,2.95C74.47,50.81,74.52,49.84,74,49.59Z"/><path id="path2754" class="cls-5" d="M73.94,48.31c1.75,2,.4,5.77,1.36,5.66C75.55,51.72,75.64,47.82,73.94,48.31Z"/><path id="path2756" class="cls-5" d="M75.93,51.27a8.69,8.69,0,0,1,2,3.12c.72,2,1.14,2.85-.5,5l-.39,0c.3-2.85.49-5.66-1.16-7A1.51,1.51,0,0,1,75.93,51.27Z"/><path id="path2758" class="cls-5" d="M75.86,53.35c-.69,1.12.42,2,.58,3.33.07.6.37.56.43.75.35-3.17-.76-3-.64-3.79C76.31,53.15,75.92,53.55,75.86,53.35Z"/><path id="path2760" class="cls-5" d="M75.18,54.74c1.07,1.34,1.3,3.7.36,4.51-.23-.12-.48-1-.87-.3a5.72,5.72,0,0,1-.15-4.48C74.64,54.22,75,54.94,75.18,54.74Z"/><path id="path2762" class="cls-13" d="M75.11,56.39a.93.93,0,0,0,0,1A1.11,1.11,0,0,0,75.11,56.39Z"/><path id="path2764" class="cls-5" d="M76.4,58A25.46,25.46,0,0,1,74,64c2.24-.14,2.91-.71,3.38-2.4C76.26,60.82,77.14,58.15,76.4,58Z"/><path id="path2766" class="cls-5" d="M78.53,58.43l-1.08,1.84c.1.36.38.34.34.89-.05.71-.18,1.53-.3,2.34,1.09.53-.17-3,1.86.12C79.32,61.5,78.57,60.41,78.53,58.43Z"/><path id="path2768" class="cls-5" d="M75.62,66.06c-1.24,2.45-1,3.5-.41,3.67a8.16,8.16,0,0,0,2-3.14c.39,1.31,1.16,2.46,2,2.39.35-.68-1.1-1.2-1.05-2.92Z"/><path id="path2787" class="cls-5" d="M71.75,53.07c.25,4.55-.58,4.12,1,5.3.26-.11.16-.79.16-1.32-1,.52-.31-3.15-.63-4.29C72,52.55,71.93,52.89,71.75,53.07Z"/><path id="path2794" class="cls-5" d="M76.18,86.48a.72.72,0,0,1-.74.7.73.73,0,0,1-.75-.7h0a.73.73,0,0,1,.75-.7.72.72,0,0,1,.74.7Z"/><path id="path2796" class="cls-5" d="M84.7,76.56l-8.59,9.17.31.37L85.06,77Z"/><path id="path2798" class="cls-5" d="M85.17,77.29,76.63,86.2v.74l8.91-9.28Z"/><path id="path2800" class="cls-5" d="M74.21,87l.53.53a3.06,3.06,0,0,1-1.16,1.69c-.74-.24-1.45-.48-1.22-1.27a3.58,3.58,0,0,0,2.22-1"/><path id="path2802" class="cls-5" d="M70.68,85.36c1.43-.71,2.91.82,3.32,1.47a5.26,5.26,0,0,1-1.21.64,1.5,1.5,0,0,0-2.38-.9C70,86.17,70.25,85.76,70.68,85.36Z"/><path id="path2812" class="cls-5" d="M75.8,87.45c-.57.51-1.35.34-1.24,1.56,1.06-.62,1.89.17,3,.75,2.55-2.32,7.94-3.66,11.29-7.3.12-.81-.43-1.28-1.31-1.6.5-1.43-1.22-1.89-1.83-2.67-2.88,2.79-7.46,7.47-9,9C76.52,87.4,76.19,87.68,75.8,87.45Z"/><rect id="rect2814" class="cls-14" x="87.09" y="81.62" width="0.47" height="0.43"/><rect id="rect2816" class="cls-14" x="86.64" y="82.51" width="0.47" height="0.46"/><rect id="rect2818" class="cls-14" x="85.23" y="82.85" width="0.44" height="0.41"/><rect id="rect2820" class="cls-14" x="86.12" y="82.9" width="0.44" height="0.43"/><rect id="rect2822" class="cls-14" x="85.23" y="83.82" width="0.42" height="0.49"/><rect id="rect2824" class="cls-14" x="87.09" y="82.93" width="0.39" height="0.46"/><rect id="rect2826" class="cls-14" x="84.32" y="84.47" width="0.47" height="0.38"/><rect id="rect2828" class="cls-14" x="82.96" y="85.21" width="0.31" height="0.49"/><rect id="rect2830" class="cls-14" x="82.48" y="84.79" width="0.37" height="0.41"/><rect id="rect2832" class="cls-15" x="86.59" y="81.99" width="0.47" height="0.43"/><rect id="rect2834" class="cls-15" x="85.68" y="82.93" width="0.47" height="0.43"/><rect id="rect2836" class="cls-15" x="85.65" y="83.4" width="0.47" height="0.43"/><rect id="rect2838" class="cls-15" x="85.65" y="83.4" width="0.47" height="0.43"/><rect id="rect2840" class="cls-15" x="83.9" y="83.87" width="0.47" height="0.43"/><rect id="rect2842" class="cls-16" x="83.4" y="84.76" width="0.31" height="0.49"/><rect id="rect2844" class="cls-16" x="82.93" y="84.79" width="0.31" height="0.49"/><rect id="rect2846" class="cls-16" x="82.54" y="85.31" width="0.31" height="0.49"/><rect id="rect2848" class="cls-16" x="82.48" y="85.28" width="0.44" height="0.49"/><rect id="rect2850" class="cls-10" x="84.32" y="83.4" width="0.42" height="0.49"/><rect id="rect2852" class="cls-10" x="84.32" y="83.87" width="0.42" height="0.49"/><rect id="rect2854" class="cls-10" x="78.8" y="87.01" width="0.42" height="0.9"/><rect id="rect2856" class="cls-10" x="80.26" y="86.62" width="0.42" height="0.49"/><rect id="rect2858" class="cls-16" x="79.74" y="86.59" width="0.44" height="0.49"/><rect id="rect2860" class="cls-16" x="79.27" y="87.04" width="0.44" height="0.49"/><rect id="rect2862" class="cls-14" x="82.46" y="84.81" width="0.44" height="0.49"/><rect id="rect2864" class="cls-14" x="82.93" y="85.31" width="0.44" height="0.49"/><rect id="rect2866" class="cls-17" x="85.26" y="83.43" width="0.42" height="0.38"/><rect id="rect2868" class="cls-15" x="87.51" y="82.01" width="0.47" height="0.43"/><rect id="rect2870" class="cls-18" x="85.23" y="82.43" width="0.42" height="0.38"/><rect id="rect2872" class="cls-18" x="84.71" y="82.98" width="0.42" height="0.38"/><rect id="rect2874" class="cls-18" x="86.15" y="83.85" width="0.42" height="0.38"/><rect id="rect2876" class="cls-15" x="86.12" y="83.43" width="0.47" height="0.43"/><rect id="rect2878" class="cls-18" x="87.98" y="82.04" width="0.42" height="0.38"/><rect id="rect2880" class="cls-19" x="88.31" y="82.04" width="0.42" height="0.38"/><rect id="rect2882" class="cls-14" x="81.57" y="85.68" width="0.44" height="0.49"/><rect id="rect2884" class="cls-15" x="79.24" y="86.62" width="0.47" height="0.43"/><rect id="rect2886" class="cls-15" x="79.71" y="87.06" width="0.47" height="0.43"/><rect id="rect2888" class="cls-15" x="80.65" y="86.59" width="0.47" height="0.43"/><rect id="rect2890" class="cls-15" x="81.07" y="86.62" width="0.47" height="0.43"/><rect id="rect2892" class="cls-15" x="81.07" y="86.15" width="0.47" height="0.43"/><rect id="rect2894" class="cls-15" x="81.57" y="85.23" width="0.47" height="0.43"/><rect id="rect2896" class="cls-15" x="80.18" y="86.2" width="0.47" height="0.43"/><rect id="rect2898" class="cls-15" x="79.27" y="87.56" width="0.47" height="0.43"/><rect id="rect2900" class="cls-15" x="78.33" y="87.98" width="0.47" height="0.43"/><rect id="rect2902" class="cls-15" x="76.97" y="88" width="0.47" height="0.43"/><rect id="rect2904" class="cls-14" x="77.41" y="87.98" width="0.44" height="0.49"/><rect id="rect2906" class="cls-14" x="77.83" y="87.98" width="0.44" height="0.49"/><rect id="rect2908" class="cls-14" x="78.35" y="87.53" width="0.44" height="0.49"/><rect id="rect2910" class="cls-18" x="78.33" y="87.12" width="0.42" height="0.38"/><rect id="rect2912" class="cls-15" x="78.27" y="88" width="0.47" height="0.43"/><rect id="rect2914" class="cls-15" x="78.69" y="88" width="0.47" height="0.43"/><path id="path2970" class="cls-5" d="M74.5,89.24c1.42-.78,3.79,1.55,4,2,.15.63-2.4.15-2.6-.39a.55.55,0,0,0-.66-.79C74.6,90.83,74.55,90,74.5,89.24Z"/><path id="path2972" class="cls-5" d="M86.1,85c-2.69,2.13-6,3-7.75,4.66-.26.43-.25.85.56,1.28,0,.38-.39.88.84,1,1-.64,2.53-1.1,3.31-1.92.16-.37.13-.62.47-1.38C83.52,87.16,84.89,86.53,86.1,85Z"/><path id="path2974" class="cls-5" d="M82.93,90.53a19.17,19.17,0,0,1-3.58,2c.28.54.54.92,3.09,1.52C83.15,93.22,82.79,91.71,82.93,90.53Z"/><path id="path2980" class="cls-5" d="M86.92,84.45l-2.81,3.33c-.7,2.35-.43,3.67-1,5.3-.45,1.29-1,2.47-1.42,3.49-.18.41,0,.77-.22,1.18,5.78-2.7,5-7,7.59-8.2-.26,2.11,1.07,3.27.28,6.25-.78,1.57-1.69,3.25-1.62,4.1a17.58,17.58,0,0,0,6.34-5.15,8.46,8.46,0,0,1,2.29-4.15c.5,2.58.07,2.73.24,4.51.67-.78,1.12-2.55.91-5.61-5.19,2.34-.64,4.18-8.3,8.54-.53,0-.4-.24-.19-.72,1.74-1.35.72-8,1.72-10.78-3.85,2.55-4,6.81-7.68,9.49a24.32,24.32,0,0,0,1.33-7.77l2.67-3.1Z"/><path id="path2982" class="cls-5" d="M89.45,82.54a96.42,96.42,0,0,0,7.67,6.68c-4.72,2.19-1.05,4.46-7.72,8.34,2-2.65.51-7.88,1.91-11.49-.08-.61-.26,0-.57,0-4,2.58-5,7.41-6.82,8.87.41-2,1.11-4.78.9-6.39,1.94-2.31,2.79-3.1,2.69-3.71C87.33,83.7,87.78,84.05,89.45,82.54Z"/><path id="path2988" class="cls-5" d="M88.68,90.41c-1.44.94-1.56,3.32-3.38,5,1,.76,1.91.7,2.86,1C90,94.75,89,92.49,88.68,90.41Z"/><path id="path2990" class="cls-5" d="M96,91.65c-.83.29-1.28,2.82-1.61,3.53s-1.46,1.06-1.87,2.19l1.38-.05C95.44,96.62,96.57,94.75,96,91.65Z"/><path id="path2992" class="cls-5" d="M96.14,95.51c-.76,1.57-2.54,2.62-2.77,5.92.29.34.64.23.87-.08,2.92-3.95,5.35-3,6.84-7.19.76-2.49,2.75-5.29,3.52-8.53L102.73,87c.38,3-1.8,3.9-2.42,6.82-.19,2.81-4.06,4-5.72,5.38C95,98.45,96.37,96.77,96.14,95.51Z"/><path id="path2994" class="cls-5" d="M98.3,89.57a45,45,0,0,0,4-2.27c.35,2.68-2,3.35-2.27,6-.21,2-1.78,3.37-3.84,4.44,0-1.28,1-2.35,1.74-4.57C98.33,92,97.8,90.8,98.3,89.57Z"/><rect id="rect3000" class="cls-16" x="88.88" y="85.27" width="0.49" height="0.49"/><rect id="rect3002" class="cls-16" x="87.98" y="86.2" width="0.49" height="0.49"/><rect id="rect3004" class="cls-16" x="88.86" y="86.21" width="0.49" height="0.49"/><rect id="rect3006" class="cls-16" x="87.49" y="87.1" width="0.49" height="0.49"/><rect id="rect3008" class="cls-16" x="86.73" y="87.07" width="0.49" height="0.49"/><rect id="rect3010" class="cls-16" x="91.21" y="85.24" width="0.49" height="0.49"/><rect id="rect3012" class="cls-16" x="93.04" y="87.1" width="0.49" height="0.49"/><rect id="rect3014" class="cls-16" x="100.3" y="88.72" width="0.49" height="0.49"/><rect id="rect3016" class="cls-16" x="99.43" y="89.82" width="0.49" height="0.49"/><rect id="rect3018" class="cls-16" x="93.53" y="88.5" width="0.49" height="0.87"/><rect id="rect3020" class="cls-16" x="92.57" y="92.16" width="0.49" height="0.49"/><rect id="rect3024" class="cls-16" x="93.06" y="92.7" width="0.49" height="0.49"/><rect id="rect3026" class="cls-16" x="92.58" y="93.31" width="0.49" height="0.49"/><rect id="rect3028" class="cls-16" x="98.06" y="91.52" width="0.49" height="0.49"/><rect id="rect3030" class="cls-16" x="98.34" y="90.06" width="0.49" height="0.49"/><rect id="rect3032" class="cls-16" x="100.06" y="89.47" width="0.49" height="0.49"/><rect id="rect3034" class="cls-16" x="90.74" y="84.78" width="0.49" height="0.49"/><rect id="rect3036" class="cls-20" x="91.67" y="86.2" width="0.9" height="0.49"/><rect id="rect3038" class="cls-20" x="91.05" y="86.92" width="0.49" height="0.49"/><rect id="rect3040" class="cls-20" x="91.04" y="88.2" width="0.49" height="0.49"/><rect id="rect3042" class="cls-17" x="91.05" y="87.33" width="0.49" height="0.9"/><rect id="rect3090" class="cls-16" x="92.54" y="91.15" width="0.49" height="0.49"/><rect id="rect3092" class="cls-16" x="92.39" y="89.59" width="0.49" height="0.49"/><rect id="rect3094" class="cls-16" x="93.68" y="89.96" width="0.49" height="0.49"/><rect id="rect3096" class="cls-16" x="94.72" y="89.02" width="0.49" height="0.49"/><rect id="rect3098" class="cls-16" x="86.79" y="88.45" width="0.49" height="0.49"/><rect id="rect3100" class="cls-20" x="93.71" y="90.48" width="0.49" height="0.49"/><rect id="rect3102" class="cls-20" x="89.38" y="85.73" width="0.49" height="0.49"/><rect id="rect3104" class="cls-20" x="88.31" y="87.08" width="0.49" height="0.49"/><rect id="rect3106" class="cls-20" x="87.51" y="87.58" width="0.49" height="0.49"/><rect id="rect3108" class="cls-20" x="99.32" y="91.32" width="0.49" height="0.49"/><path id="path2521" class="cls-4" d="M83.85,16.38c-1,.59-1.81.3-1.86.67-.94,0-1.93-.1-2.39.72-1.19,0-2.64-.39-2.47,2.05a2.2,2.2,0,0,1,2.13-.49c-.69.19-1.5.81-1.9.77-.44.12-1.78-1.69-2.3-.37,1.2.15,1,1,2.12,1.13,1.74.06,2-1.91,2.57-.77a.48.48,0,0,1-.66.06c0,.91.61,1.07,1.64.71-.26.65-.71.68-1.33.73-.78.07-.86-.45-2.77-.5a1,1,0,0,1,.28.8,2.75,2.75,0,0,0-2.52.66l-2.73-1.26c-.41-.32-.94-.56-.71-1.36.2-.61.3-1.18-.38-1.37-.28-1.28-1.84-.66-2.36-.19.5.18,1.09-.14,1.49.57-.38.15-.49.5-.33,1-.87.8-.38-1.83-2-1.11-1.4.16-1.1,1.13-.93,2,.23,0,.21-.65.77-.93a.69.69,0,0,0,.6.77c-.6.28-1.14.63-.77,2.24.28.18.49-.81.77-.82.2.17.36.49.76,0,.09.21.06.44.55.55a.92.92,0,0,0-.55,1.09c-.56.58-.85.24-1.25.27a1.45,1.45,0,0,0,2.35.33l1.2-1.64a24.24,24.24,0,0,1,2.84,1.42A2.2,2.2,0,0,0,74,25.5c-.23.81-1,1.38-1.53,2.06-.25.4-.8.26-1.32.17-.42-.53-.85-.46-1.3,0-1.21,0-.83,1.35-.55,1.87.3-.23.32-.94.77-1,.11.29.47.42,1,.43l-.22.32c-.63.12-1.36.11-1.37,1-.55,1,.42,1.3,1.45,1.4-.19-.32-.73-.4-.4-1,.22.07.44,0,.66-.37a.79.79,0,0,0,.2.76.84.84,0,0,0,1.34.3c-.39-.12-.51-.32-.55-.54.38-.12.28-.38.34-.59a.77.77,0,0,0,.48-.52c.32.18.45,1,1,.79.16.32,0,.77,0,1.16.45-.19,1.19-1,.67-1.67a1.09,1.09,0,0,0-.54-1,1,1,0,0,1-.63-.52c.51-.42,1-.9,1.44-1.36a3.14,3.14,0,0,0,2.29,1.23,25,25,0,0,0,2.9-.25c1.47,0,1.57,1.69.64,2.49-.74.92-3.26.45-3.62,2.27-.56,0-1.19-.49-2.31-.15-.6.18-.75.86-.09,2.1a2.86,2.86,0,0,0,.83-1.3,5.23,5.23,0,0,0,2,.49c-.34,1-.85,1.75-2.22,1.36a6.59,6.59,0,0,1-1.16-.08c-.31-.31-.88-.49-1-.17-.46.14-.6.62-.45,1.4.19-.18.18-.69.54-.69,0,.2.3.18.54.14.09.48.32.35.12.69s-.26.6,0,1.13c-.12.21-.55.67-.1,1.15a1.53,1.53,0,0,1,.91-.66c1,0,.55-1.13.84-1.34.1.3,0,.71.4.85.06.42-.47.75-.42,1.17.55-.1,1.13.12,1.24-1,.31,0,.38-.46.41-.85.24.13.34.84.75.88.3.36-.06.57-.18.83.66.2.9-.29,1-.95a2.23,2.23,0,0,0-.38-1.19c.47,0,0-.8.84-1a1.39,1.39,0,0,0,.57,1.45c.36-.23,0-2,.92-2,.35.15,0,1.17.52,1.62.58-.49.59-1.3.77-2a2.07,2.07,0,0,0,.88.23,3,3,0,0,0,0-1.32c1.51-1.46.45-2.94.15-3.89a5.9,5.9,0,0,1,1.93.7,2.07,2.07,0,0,0-.76,2.24,2.77,2.77,0,0,0,1.77-1.53c.15.45.2,1,.61,1.2.28-.06.47-.33.65-.74a1.47,1.47,0,0,0,1.88,0c.31-.4,1.33.68,1,1.06-.4.69-.85-.44-1.79.42-1.4-.09-1.11.84-.88,1.43.31,0,.43-.79.83-.55.2.21-.31.75,0,1.07-.89,1.08-.19,1.4.28,1.83,0-.43-.11-1.09.36-1.14.28.47.56.95,1.12.41.3-.3,0-1.57.64-1.58C91,34.74,90.51,36,91,36c.11.45.12,1.08.47,1.14.27-.14.43-.53.53-1.06.38-.27.6-.66.26-1.43l.51,0c.21.36.47.57.93,0,.13.09.14.43.13.81.35-.23,1-1.53.4-1.9-.06-.49-.67-.39-1.13-.51a3.54,3.54,0,0,0-1.58-1c-.2-.76,2,.54,1.83-1.82a4,4,0,0,1-2.36.37,2.41,2.41,0,0,0-1.73-.94c-.28-1.12,3.67.89,4.36-2.45a4.49,4.49,0,0,1,2.15-3.94,1.48,1.48,0,0,1,.45-.85c-.58-.18-1.09.81-1.64.67a5.07,5.07,0,0,0,1-1.54c-.8-.3-1.62,1.17-2.48.83.21-1.18,2.73-.6,3-2.7-.57,0-1.26.64-1.53.52a5,5,0,0,1,3-1.1,1.87,1.87,0,0,0-1.43-.54c-1.16,0-.82.44-1.48.51a4.48,4.48,0,0,0-.38-2.28c-.82,3.22-2.45,3.43-2.44,5.77.06,1.68.73,3.79.17,4.64a1.84,1.84,0,0,1-3.25,0c-.25-.67-1-1.13-2.25-1-1.49-.1-2.57,1-4.42.21a4,4,0,0,0,2.33-.23l-.36-.54c.93.17,2.33.25,2.62-.13-.64-.56-2-.76-1.87-1.29,1,.07,1.76,1.16,3.08,1.12,1.14,0,1.31.13,2.09-1.45-.91.09-1.82.19-2.52-.84,1,.07,2.12.58,2.91.43s1.12-.8.82-2a2.63,2.63,0,0,1-3.43-.51c1.85-.15,4.65.59,4.44-1.79-1.36.32-2.95.82-3.94.17,1.83-.55,4.75.26,4.83-2.49-2.09,1.29-6.28.15-6.82,1.56-.57,1.13-1.07,2.6-1.73,3.85s-1.5.68-2.26.89c-.55,1.38-2.89,2-3.28,1.36-.65-.62,1.24-1.65,1.47-1.7.43.07.64.56.79,1.16.46-.3.2-1.47,1.24-1.52.25-.85,1-.52,1.41-.93-.42.29-.13-1-.73-1.05a4.07,4.07,0,0,0,0-2.19A4.42,4.42,0,0,0,84.5,17c-.5.31-.9.16-1.27.26A2.46,2.46,0,0,0,83.85,16.38Z"/><path id="path2494" class="cls-6" d="M79.41,18a1.06,1.06,0,0,1-.07,1.19,2.09,2.09,0,0,0-2.09.45c-.13-1.42.62-1.7,1.52-1.71a.73.73,0,0,0,.26.86l.07-.86Zm-.12,1.59c-.16-.29-1.14.62-1.82.66-1,0-1.69-1.49-2.16-.64.88.3,1,1,2,1.07C78.81,20.58,78.44,20,79.29,19.58Zm0,.83c.16.82.93.2,1.42.24C80.4,20.18,79.58,20.51,79.31,20.41Zm-5,2.39A2.19,2.19,0,0,1,73.77,24c-1-.64-2.43-1.09-2.91-1.92,0,.42-.14.41-.45.45,0,.42-.1.78-.43,1,.15.57-.16.76-.54.81,0-.3,0-.54-.62-.53-.09-.5.12-.75.57-.75.2-.27.36-.67.13-.94-.28.37-.7.3-.79-.32-.18.42-.55.56-.83.12.28-.4,0-.44-.05-.66.51-.47.54,0,.81.14-.16-.38.23-.6-.36-1-.35,0-.77.25-.83-.43.35-.23.27-.51.12-.8,1-.43.77,1.23,1.68,1.35.2-.11.68.2.43-.6-.36-.4,0-.64.19-.92.27.23.54,0,.8-.05.31.3.12.6,0,.9-.08,1,.2,1.65,1,1.92Zm-7.13-.12c-.15-.53-.19-1.46.45-1.47.38.23.24.46.16.69C67.42,21.92,67.45,22.56,67.19,22.68Zm.23-3.6c.23.31.22.57-.1.74-.34-.15-.51.29-.76.47C66.46,19.64,66.56,19.11,67.42,19.08Zm1.29-.85c.81-.46,1.45-.45,1.77.44a.39.39,0,0,1-.58.14C69.63,18.26,69.12,18.4,68.71,18.23Zm.14,5.64c.21-.07.39.09.53.42-.73.81-1.13.35-1.58.06C68.19,24.25,68.67,24.17,68.85,23.87Zm1,3.91c.19.07.23.53,0,.69-.27-.13-.4.4-.57.77C69,28.6,69,28,69.89,27.78Zm-.23,2.66c.19,0,.46,0,.54.32-.25.1-.1.39.1.71C69.65,31.33,69.23,31.09,69.66,30.44Zm1.79.48a.51.51,0,0,1,.55-.08.59.59,0,0,0,.29.56C71.93,31.58,71.66,31.4,71.45,30.92Zm2.71-.5c0-.3.19-.36.42-.33.29.61-.07.9-.34,1.23C74.1,31,74.47,30.56,74.16,30.42Zm-1.08,4.8c.07.09.26.26.13.42a1.05,1.05,0,0,0-.43.38A.62.62,0,0,1,73.08,35.22Zm.85,2.7c.16,0,.37.06.35.37-.19.11-.41.13-.53.41C73.44,38.57,73.67,38.22,73.93,37.92Zm2.06,0c.15-.06.37-.17.56.08,0,.78-.48.84-.89.79C75.63,38.43,76.17,38.17,76,37.88ZM78,38c.15-.21.33-.17.52-.13-.06.61-.25.88-.56.83C78.2,38.32,78.1,38.17,78,38Zm10.22-4.75a.36.36,0,0,1-.11.5c-.27-.12-.44.39-.64.56C87.23,33.76,87.29,33.3,88.23,33.27Zm.12,2a.31.31,0,0,1,.35.3c-.47.38-.34.71-.38,1C87.88,36.18,87.71,35.75,88.35,35.23Zm2.84.77c.23-.14.46-.21.69,0-.1.31-.08.72-.38.9C91.26,36.88,91.26,36.38,91.19,36Zm2.67-1.55c0-.34.22-.42.4-.55.13.28.25.58-.25,1.22C94,34.86,94.05,34.48,93.86,34.45Zm-4.15-3c.83.73,1,1.36.25,1.84-.49.23-1-.77-1.54,0a.62.62,0,0,1-.08.54c.12.38.86.08.87.29s-1,0-.75,1c.21,0,.35.27.49.52.92,1.4,1.42-.45.91-.93.22-.09.46-.09.64-.45.07.14.4.16.8.15a1.06,1.06,0,0,1-.18.64c-.18.26-.43.51,0,.77a1.37,1.37,0,0,1,.77,0c.29-.21.48-.46.19-.86a.44.44,0,0,1-.08-.5.82.82,0,0,0,.79-.18c.2.6.54.45.88.26a1.17,1.17,0,0,1,.41-.67c-.34-.78-.72-.45-1.08-.42-.57-1.09-1.56-.81-1.84-1.3-.26-.89,2.21.08,1.91-1.49-.83.08-1.83.81-2.46.2-.58-1.1-1.83-.71-1.94-1.23,0-.74,1.66-.38,2.58-.51,1.8-.21,2.35-1.57,2.33-3.45a4.36,4.36,0,0,1,1.74-2.45c-.74.06-1.68.85-2,.66,0-.7,1.35-.55,1.84-2a2.87,2.87,0,0,1-2.45.71c.11-1.64,3-1.2,3.06-2.62-.68.27-1.31.77-2.1.64A6.38,6.38,0,0,1,97,19c-1.25-.82-2,.56-2.78.64a2.66,2.66,0,0,0,.15-2.16c-.76,2.67-2.88,3.48-2.06,6.89.2.82.78,3-.83,3.82-2.84,1-2.54-1.07-3.69-1.61s-2.05-.14-3.38.22c-1.16.15-2.37.48-3.14-.67,0-.24.06-.47.51-.46.54.7,1.48.58,2.45.42-.41-.48-1.65-.61-2-1.08-.11-.25,0-.55.44-.45a4.33,4.33,0,0,0,3.67.93,3.37,3.37,0,0,1-1.95-1.19c.1-.18.06-.43.57-.45,1.26.44,3.32,2.49,4.62.35-1.72-.12-2.19-.77-2.48-1.51,1.4-.14,4.22,2.07,3.94-.88-1.8.74-2.84-.19-3.86-1.15,1.72-.31,4.73.9,4.87-1.28-1.47.18-2.89,1.32-4.46-.22,1.79-.58,4.72.39,5.27-1.89a16.11,16.11,0,0,1-4.85.55c-2,0-2,2.92-3,4.38a2.48,2.48,0,0,1-2.47,1.14c-1,1.51-3,2.06-3.84,1.16-.24-1.36,1-1.51,1.82-2a1.1,1.1,0,0,1,.83.94c.22-.6.45-1.19,1-1.26.14-.42.54-.64,1.12-.73,0-.41-.1-.78-.52-.93a2.83,2.83,0,0,0,0-2.18,3.78,3.78,0,0,0,1.2-1,5,5,0,0,0-1.5.39c0-.23.81-.66.86-1-.86.15-1.39.33-1.31.56-1.12-.15-2.08-.11-2.44.61.07.56.16,1.14-.19,1.31.28.83,1.2.91,1.51,1.53-.87,1.87-2.59.67-4,.52a1,1,0,0,1,.09.94,2.35,2.35,0,0,0-1.65,0,1.79,1.79,0,0,0-.89.69,2.34,2.34,0,0,1-.46,1.21,1.55,1.55,0,0,0,.26,1.48A13.74,13.74,0,0,1,72.44,28,1.38,1.38,0,0,1,71,27.81c-.29-.23-.56-.66-.92-.09.11.24.19.48,0,.69a1.28,1.28,0,0,0,1.25.34c0,1.05-2,.68-1.61,1.58.25,0,.47.14.69.26.38,0,.49-.24.58-.51s.4-.29.69-.33c0,.28-.61.33-.35,1.06.36-.19.56-.18.71-.08.39-.07.26-.37.16-.65.73,0,.27-.87.79-.77.1.23.15.37.42.45a.51.51,0,0,0,.6.63c0-.24.16-.46.44-.45a.78.78,0,0,0-.49-.76c-.29-.16-.6-.27-.75-.74A17.31,17.31,0,0,0,75,26.68c.85,1.44,2.41,1.68,4.38,1.2,1.29-.21,2.11.17,2.27,1.38,0,3.11-4,1.45-4.18,3.86-.77,0-1.47-.5-2.25-.33-1,.16-.72,1-.5,1.71a3.79,3.79,0,0,0,.83-1.16,3.66,3.66,0,0,0,2.28.24c-.09,1-.57,2.42-2.55,2-.39,0-.83.07-1.15-.16s-.69-.57-.91-.19a.42.42,0,0,1,.09.46c0,.25.33.17.57.15.11.31.16.65.54.75-.15.39-.78.38-.47,1.23a.46.46,0,0,1,.49.31c.93.2.42-.78.63-1.29a.7.7,0,0,1,1-.09c-.37.29-.57.63-.08.94.19,0,.38-.12.57.13.43,0,.25-.94.66-.93.34.33-.1.71.65,1,.17-.18.35-.28.55-.17.21-.45-.46-.74-.44-1.13a1.32,1.32,0,0,0,.47-.75c.38,0,.54-.47.72-.89.32.46-.18,1.66.49,1.83.2-.39,0-.95.15-1.45,0-.32.46-.64,1-.6s.11,1.15.4,1.64c.54-.37.1-1.85.6-2.13a.89.89,0,0,0,.91.53c0-.39.14-.83-.25-1.09a1.77,1.77,0,0,0,1-1.7c-.15-1.64-.94-2.39-1.52-3.41,1.16,1.34,2.6,1.08,3.22,1.93-.29.57-1.06.9-.63,1.81.36-.19.78,0,1-1.42.33,0,.75-.23.82.23s-.31.83.25,1c.5-.18.39-.64.5-1,.37.27.78.9,1.67.45A.89.89,0,0,1,89.71,31.43ZM82,19.46c-.46-.5-1.27-.38-1.75-.87a1.32,1.32,0,0,1,.81-.88c.21.32.65.56.5,1s0-.08-.24-.29-.49-.12-.46.2C81,19.09,81.86,18.68,82,19.46Z"/><g id="g3466"><path id="path5070" class="cls-4" d="M103.74,51.76c-2.72,1.55-4.79-4.3-8-.76-2.49-1.16-4.25,1.7-2.51,3-.15-.42.37-1.08.7-1.13s.14.33.15.54a3.07,3.07,0,0,1,2.13.27c-.4.55-.89.27-1.35.16-.19.76,0,1.48,1.37,1.4.87,1,.08,1.84-1.29,1.55a1.47,1.47,0,0,0,1.27,1.27c-1,.94-2.49.89-2.8,2.54a1.64,1.64,0,0,0-1.52-.88c0-1.37-.86-1.58-1.81-1.58.32-.77-.21-1.2-.8-1.59,2.6-1.68,1.78-5.94-1.9-6.66-3.15-.41-5.66,1.07-5.82,4.43.28,3,1.37,6.12-.72,8.68.79,1.81,2.55,1.67,3.42-.48.26,1.49.9,5.45-2.14,3.87.72,1.18,1,3,2.81,3.16,2.07-.46,1.83-3.29,2.36-5,.31.25.76,9.14-2.63,7.65.85,1,1,2.71,3.27,2.31,2.94-2.18,1.94-5.86,2.55-8.92,1.07,2,1,5.81-.72,7,.19.64,1.26,1.92,2.8.4.88-.91,1-3.48,1.42-3.59a12.89,12.89,0,0,1-1,4l.69-.3c-.39.87-.18,2.54-1.54,2.09-.79-.75-1.56-1.46-2.23-.39a1.1,1.1,0,0,0-.89,1.83c.19-.61.48-.58.75-.76.42-.54.2.53.8.55-.37.15-.41.57-.4,1-.93.41-.47,1.64.32,1.84a1,1,0,0,1,.17-1.09c.45.14.9.44,1.35-.15a.79.79,0,0,0,.32.81,5.42,5.42,0,0,1,.12,1.12,1.63,1.63,0,0,0,.81-1c1.38,0,.55-1.12.63-1.76.58-.4.51,1.41,1.79.72A1,1,0,0,1,96,79c.73-.17.93-.93.66-2.25-.22-.61-.71-.79-1.47-.55-.34-.13-.26-.37-.32-.58a4.92,4.92,0,0,1,.72-2l.67.43c.4-1.17-.16-3.19.63-3.54a8.44,8.44,0,0,1,.7,4,1.24,1.24,0,0,0-.24,2.3c-.24,1.3-.38,4.29-2.1,4.44-.75,0-.58-.49-.23-1.12-2.46-.92-3.19,2-1.93,2.74,3.36,1.6,4.77-1.91,5.16-5.11.09,4.93-2.63,4.91.69,8.69,3.34-3.84.39-4,.43-8.77.32,2.6,1.61,6.67,4.94,5.28,2.09-1.81-.17-3.8-1.76-2.8.47.56,0,1.15-.35,1-1.68-.78-1.56-2.85-2-4.47a1.25,1.25,0,0,0-.57-2.25c.14-1.26-.08-2.73.54-3.72.44,1.21.51,3.18,1,4.55a10.88,10.88,0,0,1,.63-1.73,3.34,3.34,0,0,1,.75,2.25c-.23.31-1.13-.29-1.56.52-.19.83-.44,1.66.49,2.48l.23-.63c1.49.45,1.21-1.49,1.79-1s-.89,1.45.87,1.82c.18.77.59,1.13,1,.81-.15-.38-.6-.65-.47-1a1.7,1.7,0,0,0,.49-.69,1,1,0,0,0,1.3.15.66.66,0,0,1,.18,1,1,1,0,0,0,.14-1.9c.2-.33,0-.6-.23-.86a1,1,0,0,0,.49-.93c.52-.16.53.83,1.07,1,.06-.74.33-1.57-.78-1.87-.67-.53-1.3-.68-1.82.17-.49.32-1,.43-1.38.06l-.93-2.11a5.23,5.23,0,0,0,.06-1.53c.35,1.12,2.34,3.84,3.75,1.36-2.39-2.39-1.63-5-.87-7.61,0,3.2,0,6.45,2.17,8.91,1.4,1.21,2.73-.13,3.6-1.7-3.28.35-2.76-5.86-2.59-7.85,1,7.39,4.08,5,5.13,1.64-2.82,2-2.31-2.37-2.54-4.21.84,2.08,2.4,3.14,3.81,1-2.06-2.17-1.15-5.87-1.15-9.11a4.13,4.13,0,0,0-4.39-3.89c-5.16.1-5.86,4.42-3,6.69a1.42,1.42,0,0,0-.92,1.73c-1-.18-1.55.17-1.62,1.44a1.46,1.46,0,0,0-1.58,1c0-3.18-2.57-1-2.45-2.48.55.05.85.31,1.41-.06a3,3,0,0,1-1-2.42c.5.28.72,1,1.7.52a4,4,0,0,1-.72-2.54C103.53,53.38,103.55,52.54,103.74,51.76Z"/><path id="path3404" class="cls-21" d="M93.1,53.5c.16-.36.67-1,1.09-.76.1.09.1.18.08.41a4,4,0,0,1,2.31.39c.52-.88-.46-1.58-.77-2.35C93.53,50.21,92.15,52.25,93.1,53.5Z"/><path id="path4375" class="cls-21" d="M96.91,54.07c0,1.22-2,1.18-1.84.11.48.08.87.07,1.07-.15A1.64,1.64,0,0,1,96.91,54.07Z"/><path id="path4377" class="cls-5" d="M98.21,51.93c-.41,0-.37.24-.38.52a.94.94,0,0,0,.65.32C98.61,52.25,98.43,52.08,98.21,51.93Zm-.2-.7c-.24-.26-.83.42-.87.61-.14.68.86.93,1.55,1.35C99,52,98.32,51.65,98,51.23Zm-1.9-.14c1.14-1.28,2.3-1.09,3.66-.29,1.14.59,1.78,2,3.67,1.38a1.62,1.62,0,0,1-1.59,1.33,4.48,4.48,0,0,0,.62,2.61c-.6.13-.94-.69-1.54-.74a5.43,5.43,0,0,0,.65,2.64c-.06.33-.7-.08-1.08.1-.23,2,2.51-.11,2.4,2.54,0,2.33,0,5.82.07,8.36a11.92,11.92,0,0,0,.17,3.18c-.34,0-.59-.61-1-.58s-.63,1.49-1,2.08c-.36-1.23-.6-3.6-1.09-3.66-.74.63-.62,2.89-.85,4.42H97.84c-.32-1.51.13-4-1-4.57-1.12.8-.58,2.44-.78,3.67-.56-.27-.7-.93-1-1.45-.47-.09-1,.75-1.6.72a7.14,7.14,0,0,0,.83-4c-.68-.08-.42-5.28-.63-7.92,0-1.78,2.87-1.94,3.1-3.1-.68-.07-1.21-.23-1.3-.64C97.36,57,97,56,96.71,55.07c.67-.31.39-1.17.33-1.9A5.64,5.64,0,0,0,96.11,51.09Z"/><path id="path4387" class="cls-2" d="M100.22,75.69c0,.55-.06,1-1.58,1-1.31,0-1.62-.47-1.62-1s.26-1,1.62-1S100.22,75.15,100.22,75.69Z"/><path id="path4390" class="cls-5" d="M97.59,76.82l.52.07a10.84,10.84,0,0,1-1.31,4.79,2.54,2.54,0,0,1-3.9.79c-.81-.92.4-2.94,1.72-2.14-.3.44-.59,1,.59,1.25C97,81.59,97.23,78.68,97.59,76.82Z"/><path id="path4392" class="cls-22" d="M100,76.7l-.52.17c.24,1.91.83,6.3,3.76,6.17,2.65-.33,1.84-3.5-.4-2.85.32.61.18,1.3-.47,1.25C100.36,81.35,100.29,78.05,100,76.7Z"/><path id="path4394" class="cls-5" d="M98.48,77l.57,0c-.24,5.52,2.73,5.45-.12,9C96,82.56,98.79,82.82,98.48,77Z"/><path id="path4396" class="cls-23" d="M95,72.37a2.22,2.22,0,0,0,.55,1,6,6,0,0,0-1,2.83c.73.3,2-.56,2,1.16,0,.48.08,1-.31,1.17,0-.48-.16-.56-.31-.83-.53.33-.89.22-1-.1s-.35-.75-1.25-.63a.76.76,0,0,0,.1.69c.15.28.3,1-.3,1.16a2,2,0,0,1-.9-.19c-.55-.76,0-1.13.17-1.63-.4-.28-.46,1.85-1.86,1-.32.16-.54.25-.56.72-.43-.19-.44-1,.32-1.15,0-1.4.86-.93,1.44-1.1-.26-.66-1.41.53-1.88-.94a1.6,1.6,0,0,0-.88.47.83.83,0,0,1,.76-1c.37-.77.94-.56,1.55-.15a1.47,1.47,0,0,0,1.46.64c.73-.51.65-1.59.92-2.42A2.5,2.5,0,0,1,95,72.37Z"/><path id="path2443" class="cls-23" d="M102.18,72a1.26,1.26,0,0,0-.41,1.19,4.45,4.45,0,0,1,.94,2.89c-.72.3-1.83-.46-1.77,1.25,0,.48,0,.86.41,1.07,0-.48,0-.35.17-.62a.65.65,0,0,0,1-.29c.16-.33.21-.68,1.11-.56a.6.6,0,0,1,0,.62c-.15.28-.29.94.31,1.15a1.26,1.26,0,0,0,.74-.14c.55-.75.26-1.22.16-1.82.41-.29.31,2.2,1.71,1.35.32.16.44.22.46.68.43-.18.4-1-.25-1.18-.12-1.55-1.06-.81-1.44-1.24.19-.5,1.42.6,1.69-.94a2,2,0,0,1,1,.63c.22-.4-.22-1.06-.65-1.13-.66-.64-1.23-.44-1.48,0a1.57,1.57,0,0,1-1.54.49c-.73-.52-.88-1.69-1.15-2.52C102.75,72.26,102.57,72,102.18,72Z"/><path id="path2445" class="cls-2" d="M110.49,53.18a.92.92,0,0,0-.92.92.77.77,0,0,0,0,.15.92.92,0,0,0,0,1.84h.17c-.56,2.06-3.48,6.46-6.44,6.73l0,1.23c3-.36,6.71-5.18,7.47-7.63a.87.87,0,0,0,.32.06.92.92,0,0,0,.92-.92.93.93,0,0,0-.81-.92.88.88,0,0,0,.17-.53A.93.93,0,0,0,110.49,53.18Z"/><path id="path2460" class="cls-2" d="M111.06,56.68c-1.89,4.15-4.63,7-7.71,7.7-.23,4,.05,8.45,2.32,9.05.58.11.86-.39,1.23-.7-3.25-2.78-.75-8.86-.3-9l0-.07c.14,3.64-.15,7.47,2.14,10.13,1.24,1.1,2-.17,2.77-1.08-4.11-1-2.17-11.2-1.93-12,0,3.14,1.07,12.2,4.42,6.2-3.21.61-2.09-8.62-1.84-8.67-.3,2.21.94,7.44,3.39,4.57-2.09-2.79-1.13-5.87-1-8.86-.19-3.16-2.5-3.78-4.57-3.94-4.29.4-5,4.48-2.19,6.52a1.65,1.65,0,0,0-1,1.8c-1.18-.06-1.79.48-1.73,1.67a1.35,1.35,0,0,0-1.67,1V62.6c2.9-.43,5.22-4.23,6-6.31a1.13,1.13,0,0,1-.9-1.11,1.14,1.14,0,0,1,.94-1.12,1.12,1.12,0,1,1,2.17.42,1.16,1.16,0,0,1,.72,1.07A1.14,1.14,0,0,1,111.06,56.68Z"/><path id="path3462" class="cls-2" d="M86,53.35a.92.92,0,0,1,1,.89s0,.11,0,.15a.93.93,0,0,1,0,1.85h-.17c.61,2,3.64,6.36,6.61,6.56L93.42,64c-3-.28-6.85-5-7.68-7.42a.78.78,0,0,1-.31.06.91.91,0,0,1-1-.89.93.93,0,0,1,.79-.94,1,1,0,0,1-.19-.53A.92.92,0,0,1,86,53.35Z"/><path id="path3464" class="cls-2" d="M85.41,56.82c2,4.1,4.92,6.92,8,7.54.34,4,.36,8.44-2.18,9.06-.58.13-.87-.37-1.25-.66,3.19-2.87.52-8.89.06-9l0-.06c0,3.64.31,8.41-1.88,10.18-1.21,1.13-2-.12-2.8-1,4.09-1.14,1.88-11.26,1.61-12,.25,2.4-.08,6.91-1.34,8-.65.56-1.82.54-2.75-1.79,3.24.52,1.43-5.77,1.44-8.63-.12,1.06,0,3.11-.55,4.36s-1.52,1.64-2.73.3c2-2.84,1-5.89.79-8.88.11-3.17,2.5-4.07,4.57-4.28,4.32.28,5.24,5.15,2.28,6.68,1,.39,1.27,1.11,1,1.77,1.19-.08,1.81.43,1.78,1.62a1.52,1.52,0,0,1,1.8,1v1.48c-2.92-.36-5.4-4.1-6.24-6.16a1.14,1.14,0,0,0-.1-2.23,1.12,1.12,0,0,0-1.15-1,1.11,1.11,0,0,0-1.09,1.14,1,1,0,0,0,.08.39,1.14,1.14,0,0,0,.56,2.18Z"/></g></g></g><path id="path3025-0-8-4" class="cls-24" d="M98.47,141.36V267.2c18.6,0,36.46-5.39,52-11.66V230a13.69,13.69,0,0,1-7.79-12.79c0-6.2,2.37-11,7.79-13.38,0-18.22,1-29.09-7.87-37.3-3.85-3.7-9.74-6.85-14.74-9.1-2.16-.95-4.71-1.64-6.54-2.38-5.72-2.3-11.75-4.65-15.47-7.14-4.86-3.26-6.47-5.35-7.33-6.54Z"/><path id="path3025-0-8-4-1" class="cls-24" d="M97.85,141.28l0,125.92c-18.61,0-36.49-5.37-52-11.63l0-25.55a13.68,13.68,0,0,0,7.78-12.79c0-6.2-2.37-11-7.78-13.39.07-18.24-1-29.09,7.86-37.3,3.85-3.69,9.74-6.85,14.74-9.09,2.17-1,4.71-1.64,6.54-2.38,5.73-2.31,11.75-4.65,15.47-7.14a35,35,0,0,0,7.34-6.65Z"/><path id="path3025" class="cls-25" d="M97.88,144.36l0,120.65c-17.84,0-34.63-4.88-49.5-10.87l-.16-22.68c5.35-2.69,7.82-8.33,7.89-14.28s-2.38-12.36-7.73-14.74c0-12.15-1.25-26.34,7.26-34.18,3.69-3.53,9.16-6.66,13.95-8.81,2.08-.91,5-1.81,6.79-2.52,4.86-2,12.59-4.86,16.16-7.24a15.13,15.13,0,0,0,5.36-5.33Z"/><path id="path3025-9" class="cls-26" d="M98.47,144.33V265c17.84,0,34.66-4.88,49.53-10.87l.16-22.68c-5.36-2.69-7.82-8.33-7.89-14.28s2.38-12.36,7.73-14.74c0-12.15,1.25-26.34-7.26-34.18-3.69-3.53-9.16-6.66-14-8.81-2.07-.91-5-1.81-6.78-2.52-4.87-2-12.6-4.86-16.17-7.24a15.54,15.54,0,0,1-5.35-5.36Z"/><path id="path3805" class="cls-27" d="M112.14,241.16c-1-.93-1.07-2.53-.08-3.18"/><path id="path2989" class="cls-27" d="M119.36,236c-1.47.64-2.79,0-4.08.17,1.5.91,3.38,3.56,2.15,3.44a10,10,0,0,1-4.32-1.5,3.22,3.22,0,0,0-.83-.22c-1.25,0,1.41,2.17,2.88,2.38a44.1,44.1,0,0,1,4.66.76c2.09,1,2.54,2.61,2.34,5.11-.32,1.8-.58,1.76-.94.16-.25-1-.32-2.43-1.94-3.15a5.41,5.41,0,0,0-2.53-.88,11.82,11.82,0,0,1-4.94-2.05c-.71-.5.4,1.77,2.65,2.44,1.81.54,3.53.79,3.68,2.54a2.36,2.36,0,0,1-2,2.67c-.52.07-.25,1.83-1,2.07-1.35.43-2.28-1.27-2.28-1.27-1.09-2-.83.36-1.59,1.22s-3.1.81-4,0c-.56-.72-.81-1.69-1.37-1.65s-1.24,1.21-2,1.14a3.16,3.16,0,0,1-2.63-2.56c-.42-.76-1,.07-1.18-.8a41.18,41.18,0,0,1,.49-5.49c.09-.58-.62-1.31-1.09-2.25a3.33,3.33,0,0,1,0-2.68c0-.82,1.31,2.36,1.36,1.67,0-.88-.52-4.11.4-3.05.16.19.8,1.47.86,1.51.39.21-.92-2.77-.5-3.45,1.33-3.23,1.19,0,1.49.65,1,.47-.33-4.43.32-6.32.56-1,1.45-1.72,2-1.7.34-.2.4,1.25.63,2.2.28,1.11.72,1.68.93.19a5.93,5.93,0,0,1,.65-3c.73-1.27,3.06-2,4.42-4.09.47-1,.16-1.79.2-2.68-.32-2.88,1-.41,1.65.22,1.55,1.26-.73-6.51-2-9.64-1.83-3.81-3.21-7.29-5.9-10.45-.55-.46-2.49-1.21-2.59.6a6.26,6.26,0,0,0,.36,2.83l5.09,11c.37,1.29,1.14,4.85,0,6.87a7.75,7.75,0,0,1-3.22,3.49,3.27,3.27,0,0,1-3.12-.81,9,9,0,0,1-1.48-6.38c0-.4-1-1.68-.84-2.77.54-1.21,1.47-1.8,1.38-3.53,0-1-1.47-2.17-1.21-2.68a3.28,3.28,0,0,1,3.09,2c.33.49.3,2,1,2.38a1.38,1.38,0,0,1,.74,1.37c-.11,1.07-.23,2.13-1.36,2.73-.65.23-1,2.47-.47,4.19.48.81,1.59,1.5,2.41,1s1.08-1.39,1.34-2.77a10.65,10.65,0,0,0-.58-5.18l-2.68-5.63a24.14,24.14,0,0,1-2.59-6.7c-.24-1.73-.17-4,1.47-5.27.57-.7,2-.59,3.05-.16s3.28,3.46,3.41,3.75c0,.11-1-1.48-.8-2.17,0-.68,3-2.46,3.22-3.6.2-.82-.7-1.75-3.21-2.73-3.3-.89-6.37-3.19-7.36-5.2a1.93,1.93,0,0,1,1.7-.69,21.17,21.17,0,0,1,2.56.87,7.23,7.23,0,0,1-1.62-.71,3.26,3.26,0,0,1-.7-1c-.27-.73-1.8-2.18-.71-2.27,1.28,0,1.45.56,2.52,1.1a8.77,8.77,0,0,1-1.35-.92c-.88-1.86.22-5.68-.17-5.9a2.55,2.55,0,0,1-2.15-2c-.48-1.65.38-4.58,1-4.76.27-.08-.26,1.59.69,2.08,1.84.71,2.55,3.67,3.52,1.52l.9-2.82c.27-1,1.56-.64,2.41-1s.88-1.55,1.29-1.62c.82-.24.56.69.58,1.7,0,.8-.51,1.53,0,1.53,1,0,1.93.14,2.76,0,1.42-.33,2.31-1.12,2.21-.76a3.81,3.81,0,0,1-2.45,2.56c-.5.1-.75.89-1.33,1.06-.13.12,1.34-.16,1.54.32a3.8,3.8,0,0,0,2.71,2.12c.48.33-3.22,1.23-4.75,1.09-1.31-.13-1.89-.95-3.66-1.17a4,4,0,0,0-2.34,2.71,6.43,6.43,0,0,0,.7,3.35,30.14,30.14,0,0,0,3,4.09c1.89,2.5.82.88.87-.76,1.43-4.23,1.9,1.39,2,.11l.45-1.43c2.27-3.66.94,2,1.8,4s2.95,5.09,3.07,6a2.87,2.87,0,0,1-.24,2.79,7.39,7.39,0,0,0,4.52,1.49,4.55,4.55,0,0,0,2.41-.67,2.06,2.06,0,0,0,1.12-2.15c0-.65-.59-1.31-1.3-2l-3.52-4a8.16,8.16,0,0,1-1.83-4c0-.88-.37-2.07.67-1.07.68.3,2.32,2,1.74.44-1.3-2.18-.44-1.7.89-1.11a3.76,3.76,0,0,0,2.86-.58c.82-.53,2.12-.54,1.44-1.19-1.17-.7-2.47-1.3-2.3-2.82.1-.28.57-.2.73-.49s.05-1,.35-1.31c.54-.9,1.74-1.16,1.93-.68s-1.32,1.43-.55,2c.4.29,1.21.65,1.24,1.27,0,.9.23,1.67.51,1.8s.85-.11,1.2-.65L132,177.8a3.86,3.86,0,0,1,2.23-.49c1.51-.12,2.37-.05-.77,2.82-.48.48.78.44,1.06.77s.31.64.78.66c1,.18,1.76-.86,1.91-.58.31.58-.39,2.18-2.36,2.05-.58.27.4.88.67,2,.13.57,1.18.62,1.17,1s-.8.32-2.11.06a12.27,12.27,0,0,1-2-.24c-1-.41-1.69-2.52-3.4-2.81-1.08-.1-1.7.79-2.32,1.43-1.19,1-1.18,2.23-1.34,3.39.07,1.23,1.52,2.27,2.32,3.4,1.1,1.07.82,2.58,1,3.22.07.22,1.12-1,1.75-1.53a1.83,1.83,0,0,1,2.1-.31c1.13.53,1.77,1.1,1.65,1.38s-1.77.16-2.23.85c-.66.47-.36.71-.18.8.49.22,2.47-.54,3.19.62,2.37,1.52-.5.63-1.25,1.7-1.47,1.81-2.63,4.4-4.08,5.46a3.58,3.58,0,0,1-2.77.94c-1,0-5.2-2.66-6.48-2.55a4.08,4.08,0,0,0-2.9.74c-1.16.61,4.77,7.69,5.09,8.37a3.65,3.65,0,0,1,2.49,3.78c0,.62.54.56.77,1.18.18,1.06.5.43,1-1,1-2.25,1.51-2.68,1.12-.17.06,1.65,3.33,2.72,3,1.34,0-1.34-.6-1.94-.71-2.86a4.61,4.61,0,0,1,1-3.16c.46-.29-.09,1.17.37,1.53.74.57.75,1.39.62,2.58-.09.9.63,1.43.81.7.28-.46.28-1.38,1-2.06s1.07-.47,1.31-1c.89-2.09.79-2.92,1.73-.52,0,1.07.64,2.12-.27,2.95l-1.83,1.56c-1,.79-.4,1.14.57.86s1.74-1.33,2.22-1.13c2.58.79,1,2.93-2.39,2.77-.78.39,2.47,2.46,1.86,4.33-.19.56.58.7.69,1.3s-2.39.49-3.53-1.43c-.79-1-.67-2.43-1-3.54.12-1.35-1,1-2.12,1.42a6.28,6.28,0,0,1-2.92.47c-1.75-.06-1.64,2.77-1.11,3.57,1.1,1.54,1.54,2.49-.08,3.7-.31.25-.86.51-1,.76-.47,1,0,1.22.41,1l.85-.25c1.94-1.28-1.6,4.75-.51,3.86l1.21-1.05c2.4-1.9.51.58,0,2-.42,1-.27,3,.36,2.27l2.41-1.16c4-1.85-.31,1.45-1.8,3.6-1,.72,1.63.69,2.55,1.33,1.1.84.84,1.75,1.79,2.26,2.34.74-.07,1.41-1.32,1.13l-2.2-1.49c-1.33-.89-1.75-.22-1.25.18a2.49,2.49,0,0,1,1.69,2.86c.08.39.75.78,1.82,1,.3.05-.07.71-.83.81a3.44,3.44,0,0,1-2.81-1.07c-1.16-1.66.23-3.64-1.21-3a3.47,3.47,0,0,0,.31,3c1.32,1.08,3,3.13-2,.19a2.15,2.15,0,0,1-1-1.85c.07-1.15,1.36-2.47,1.38-3.35l-.58-3.39c-1.82-5.67-2.67-5.47-3.22-5.38-1.53,1.63-1.42,2.48-3,3.64Z"/><path id="path3759" class="cls-27" d="M126.82,218.05c-.13-1.05.5-1.86.07-2.59"/><path id="path3761" class="cls-27" d="M120.75,222.26c2.43-2.52,4.74-4.87,4.42-7.45"/><path id="path3763" class="cls-28" d="M123.38,211.37a2.12,2.12,0,0,0-1.09,1.35,16.24,16.24,0,0,1-.77,2.88c-.65,1.23-.49,2.69-.8,2.12-.17-.24-.1-1.42-.41-2-.72-1.3-1.86-2-1.29.27a3.41,3.41,0,0,1-1.12,3.33c-.84.81-.84-4-2.1-4.06-.35-.07-.37.48-.43,1.47-.1,1.59-1.08,3.62-1.19,3.37a15.51,15.51,0,0,0-.08-4.24"/><path id="path3771" class="cls-27" d="M119.27,232.72a3,3,0,0,0,1.52-2.09c.07-.84,0-1.76,1.35-2a3,3,0,0,0,2-.79c1.16-.88,2.88-2.12,1.87-2.37-.46.09-1.26.3-2,.38-.28,0-.56.08-.79-.57,0-.37-2.08,1.21-2.47,2.15,1.13-2.25,5.5-3.26,6.69-5.95"/><path id="path3773" class="cls-27" d="M126.41,228.93c-1.79,0-4,2.51-4,3.47"/><path id="path3791" class="cls-27" d="M133.48,180.3c-.91.38-1.58,1-2.92,1"/><path id="path3793" class="cls-27" d="M135,183c-1.26.2-2.54.31-3.56-.56"/><path id="path3767" class="cls-27" d="M106.67,233.82c1-1.08.32-8.6,2.09-5a14.78,14.78,0,0,1,1,3.3c.19.85-.09.67,0-.08a15.11,15.11,0,0,1-.29-4.64c.16-.57.6-1.1,1.4-.21.25.28-.06-1.55.18-2,1.47-2.66,1.39,1.77,1.9,1,.72-2.43,1.4-3.75,1.7-2.65.25,2,.92,3,.92,1.48.06-.92-.44-2.15,0-2.78,1.83-2.64.56,2.27,1.73,2.59"/><path id="path3775" class="cls-27" d="M115.58,236.25,112,236.1c-1.43,0-1.54.74-1.93,1.77"/><path id="path3777" class="cls-27" d="M106.05,248.42c.32-.35.11-.86-.28-1.27"/><path id="path3779" class="cls-27" d="M102.9,247.07a1.65,1.65,0,0,0-1.57-.17"/><path id="path3781" class="cls-27" d="M102.23,244.58a2.33,2.33,0,0,0-2.12-.11"/><path id="path3789" class="cls-27" d="M111.18,169.41c-.91.09-1.56,2.71-3.23,3.13"/><path id="path3807" class="cls-27" d="M107.24,231.77a12.82,12.82,0,0,0-.76-3.47"/><path id="path3809" class="cls-27" d="M85.26,201.35c.36-1.13-.39-2.22-1.86-2.74L81,197.74c-1.47-.52-2.68-.15-3,.84-.37,1.16.38,2.23,1.85,2.75l2.45.88C84.22,202.9,84.93,202.38,85.26,201.35Z"/><path id="path3809-7" class="cls-27" d="M69.94,198.73c.37,1.13-.38,2.22-1.85,2.74l-2.45.87c-1.46.52-2.67.15-3-.84-.37-1.17.38-2.23,1.85-2.76l2.45-.87c2-.69,2.67-.17,3,.86Z"/><path id="path4035-1-1" class="cls-27" d="M56.11,174.63c-2.52,1-4.84,3.21-3.77,7.26a4,4,0,0,0,2.34,2.91c-2.32,2.21-4.53,3.09-2.73,7.4A6,6,0,0,0,61.3,195c-.11,1.33-.61,2.55.77,3.54.88.61,1.81.56,3.48-.11,1.93-.77,2.4-1.19,2.6-2.31.32-1.67-.89-2.21-1.88-3.1a6.11,6.11,0,0,0,5-8.39c-1.76-4.42-4-3.54-7.17-3.61a4.26,4.26,0,0,0-.22-3.69C61.77,173.66,58.56,173.65,56.11,174.63Z"/><path id="path4035-1-15" class="cls-27" d="M91.69,174.43c-2.52-1-5.73-1-7.72,2.71a4,4,0,0,0-.29,3.73c-3.2,0-5.42-.86-7.06,3.51a6,6,0,0,0,4.91,8.43c-1,.88-2.19,1.44-1.87,3.1.23,1.05.94,1.65,2.61,2.3,1.94.77,2.57.78,3.48.1,1.38-1,.87-2.21.76-3.54a6.1,6.1,0,0,0,9.37-2.69c1.75-4.43-.46-5.3-2.75-7.55a4.22,4.22,0,0,0,2.37-2.84c1-4.09-1.35-6.29-3.81-7.26Z"/><path id="path4109-2-7" class="cls-27" d="M82.91,202.44l-3.57-1.19L74,214.34l-5.36-13.09-3.56,1.19L72.2,219.1l-4.76,10.71-10.11-4.17-5.95,14.87,13.69,5.36L74,224.45l8.92,21.42,13.68-5.36-6.54-14.87-9.52,4.17L75.77,219.1Z"/><path id="path4165-1-1" class="cls-25" d="M92.37,238l-1.17-2.74-2.73,1.16,1.16,2.74Z"/><path id="path4165-1-8-8" class="cls-25" d="M88.47,236.4l-1.17-2.74-2.73,1.17,1.16,2.73Z"/><path id="path3849-4-9" class="cls-25" d="M61.84,189.13c1.27.76,3.61,1.71,5.26,1A3.23,3.23,0,0,0,68.6,186a3.53,3.53,0,0,0-2.93-2.38,7.47,7.47,0,0,0-4.3.51c.49-3.43-.33-8.49-4.33-6.57-4.15,1.73-1.21,5.66,1.58,7.72a7.92,7.92,0,0,0-3.38,2.7c-.92,1.68-1,2.34-.37,3.74a3.24,3.24,0,0,0,4,1.84c2.19-.92,2.6-3,3-4.47Z"/><path id="path4165-1-5-9" class="cls-25" d="M86.89,240.3l-1.16-2.74L83,238.73l1.16,2.73Z"/><path id="path3849-4-9-4" class="cls-25" d="M86.12,189c.38,1.44,1.38,3.76,3,4.42a3.23,3.23,0,0,0,4-1.88,3.52,3.52,0,0,0-.42-3.75,7.45,7.45,0,0,0-3.43-2.65c2.77-2.1,5.73-6.29,1.53-7.73-4.17-1.66-4.84,3.2-4.29,6.62a7.85,7.85,0,0,0-4.3-.44c-1.83.55-2.32,1-2.89,2.4a3.23,3.23,0,0,0,1.56,4.11c2.21.89,4-.33,5.25-1.1Z"/><path id="path4165-1-7-2" class="cls-25" d="M90,232.5l-1.16-2.74-2.74,1.17,1.16,2.73Z"/><path id="path4165-1-6-7" class="cls-25" d="M84.57,234.83l-1.17-2.74-2.73,1.16L81.83,236Z"/><path id="path4165-1-9" class="cls-25" d="M63.81,241.38l1.09-2.77-2.77-1.09L61,240.29Z"/><path id="path4165-1-8-5" class="cls-25" d="M62.13,237.52l1.09-2.77-2.77-1.09-1.09,2.77Z"/><path id="path4165-1-5-4" class="cls-25" d="M58.27,239.2l1.09-2.77-2.77-1.09-1.09,2.77Z"/><path id="path4165-1-7-3" class="cls-25" d="M66,235.84l1.09-2.77L64.3,232l-1.08,2.77Z"/><path id="path4165-1-6-1" class="cls-25" d="M60.45,233.66l1.09-2.76-2.77-1.09-1.09,2.77Z"/><path id="path3787-1" class="cls-27" d="M113.2,172c-1,.75-2.27.68-3.53.87"/><path id="path4960" class="cls-29" d="M100,266.56c-1.33.05-2.41,0-3.49,0"/><path id="path4960-9" class="cls-29" d="M99.78,265.6H96.29"/><path id="path4980" class="cls-30" d="M98.87,266.39s.12-.83.12-.83H97.22l0,.91Z"/><path id="path4982" class="cls-29" d="M99.77,145.11c-.55-.75-1.06-1.47-1.58-2.2a33.28,33.28,0,0,1-2.08,2.78"/><path id="path4982-6" class="cls-29" d="M99.7,144c-.54-.76-1.06-1.48-1.57-2.21-.65.79-1.17,1.83-2.08,2.78"/><path id="path4982-9" class="cls-29" d="M99.7,144.42c-.54-.75-1.06-1.48-1.57-2.21C97.48,143,97,144,96.05,145"/><path id="path3138" class="cls-29" d="M148.08,254.14c-16.45,7-33.3,11-50.17,11.17C80,265,63.66,260.49,48.12,254.38l.09-23c4.55-1.82,7.78-7.74,7.89-14.58-.5-6.76-3.36-12.52-8-14.46.06-6.46-.41-14.19.78-21.26A22.91,22.91,0,0,1,59.11,165c8.07-5.54,19.85-8.6,27.25-12.39,5.18-2.31,9.35-5.28,11.83-9,2.28,3.67,6.44,6.64,11.62,8.84,9.09,4.46,17.74,6.25,26.28,11.87,3.79,2.31,8.08,6.36,10,11.46,2.8,7.43,2.17,17,2.06,26.63-4.56,2.24-7.11,6.27-7.89,13.89.16,5,1,11.19,7.89,15.12Z"/><path id="path3785" class="cls-28" d="M117.85,195.61c-2.11,1.21-2.12,6.38-.19,8"/><path id="path3801-1-4" class="cls-24" d="M112.32,248a5.51,5.51,0,0,0-1.16-2.43,6.19,6.19,0,0,0-2.88-2.26c-.46-.12,0,1,.36,2,.86,2.46,2.26,1.29,3,1.32C111.91,246.56,112.22,247.29,112.32,248Z"/><path id="path3066-0" class="cls-31" d="M109.64,246.48c.3.15.45-.15.6-.44s.29-.59,0-.74-.45.15-.59.44S109.35,246.33,109.64,246.48Z"/><path class="cls-2" d="M80,99.63c-12.64,0-22.89,10.17-22.89,30.51C57.11,155.57,75.33,181,97.8,181s40.68-25.43,40.68-50.86c0-20.34-10.24-30.51-22.88-30.51a22.86,22.86,0,0,0-17.8,8.5A22.89,22.89,0,0,0,80,99.63Zm0,0"/><rect class="cls-2" x="24.97" y="112.84" width="145.64" height="54.95" rx="5.46"/><text class="cls-32" transform="translate(55.13 137.57)">Koszalin</text><text class="cls-32" transform="translate(77.02 162.39)">Lida</text><path class="cls-33" d="M44.83,0l-29,0h-16l0,16c0,7,0,14,0,21A29.1,29.1,0,0,0,51.34,18.3,28.91,28.91,0,0,0,44.83,0Z"/><text class="cls-34" transform="translate(15.45 31.75)"><tspan class="cls-35">3</tspan><tspan x="10.41" y="0">7</tspan></text></svg>