<svg id="Слой_1" data-name="Слой 1" xmlns="http://www.w3.org/2000/svg" xmlns:xlink="http://www.w3.org/1999/xlink" viewBox="0 0 195.59 280.63"><defs><style>.cls-1,.cls-10,.cls-19{fill:#424242;}.cls-2{fill:#a91916;}.cls-10,.cls-11,.cls-14,.cls-15,.cls-18,.cls-2,.cls-3{fill-rule:evenodd;}.cls-21,.cls-3{fill:#3d82c3;}.cls-13,.cls-3{stroke:#fff;}.cls-3{stroke-width:1.46px;}.cls-4{fill:#e30d13;}.cls-5{fill:url(#Безымянный_градиент_2);}.cls-6{fill:url(#Безымянный_градиент_2-2);}.cls-7{fill:url(#Безымянный_градиент_4);}.cls-8{fill:#fbba10;}.cls-9{fill:url(#Безымянный_градиент_4-2);}.cls-11,.cls-12{fill:#fff;}.cls-13{fill:none;stroke-width:1.22px;}.cls-14{fill:#029340;}.cls-15{fill:#86bd31;}.cls-16,.cls-18{fill:#ba9850;}.cls-17{fill:#e52521;}.cls-19{font-size:24.77px;}.cls-19,.cls-21{font-family:Impact;}.cls-20{letter-spacing:0.02em;}.cls-21{font-size:20px;}</style><linearGradient id="Безымянный_градиент_2" x1="-99.37" y1="478.29" x2="-99.84" y2="477.85" gradientTransform="matrix(3.54, 0, 0, -3.54, 445.25, 1741.35)" gradientUnits="userSpaceOnUse"><stop offset="0" stop-color="#f4e600"/><stop offset="1" stop-color="#fbba10"/></linearGradient><linearGradient id="Безымянный_градиент_2-2" x1="-46.25" y1="391.8" x2="-46.6" y2="392.24" gradientTransform="matrix(4.87, 0, 0, -4.87, 315.86, 1949.74)" xlink:href="#Безымянный_градиент_2"/><radialGradient id="Безымянный_градиент_4" cx="-113.35" cy="359.4" r="4.05" gradientTransform="translate(-197.53 1096.65) rotate(180) scale(2.77)" xlink:href="#Безымянный_градиент_2"/><radialGradient id="Безымянный_градиент_4-2" cx="-24.7" cy="359.4" r="4.05" gradientTransform="matrix(2.77, 0, 0, -2.77, 147.4, 1096.65)" xlink:href="#Безымянный_градиент_2"/></defs><rect class="cls-1" x="-9.21" y="-8.4" width="214.01" height="297.89"/><g id="layer1"><path id="path3029" class="cls-2" d="M124.55,74.91a2,2,0,0,1,2,2v2a2,2,0,0,1-2,2h-2v-6Zm0,7.93a4,4,0,0,0,4-4v-2a4,4,0,0,0-4-4h-4v9.91Zm-7.93-9.91h2v9.91h-2Zm-4,0h2v9.91h-2l-4-6.22v6.22h-2V72.93h2l4,6.22Zm-29.73,0h5.95v2h-4v2h4v2h-4v2h4v2H82.93Zm-7.93,0h2v7.93h4v2H75Zm20.81,7.93h2a3,3,0,0,0,0-6h-2v2h2a1,1,0,0,1,0,2h-2Zm2-9.91a6.94,6.94,0,1,1-6.94,6.93A6.93,6.93,0,0,1,97.8,71Zm-5,6.93a5,5,0,1,0,5-4.95A5,5,0,0,0,92.84,77.88Z"/><path id="щит" class="cls-3" d="M97.8,144.85c3.41-5.85,8.75-9.37,15.17-11.74,12.52-4.62,26.34-5.62,34.5-17.89,4.77-7.17,6.36-16.16,5.92-26.31-4.15-4.37-6.83-11.24-6.83-19s2.67-14.58,6.81-18.95V19.15a202.76,202.76,0,0,0-55.57-8,202.78,202.78,0,0,0-55.58,8V51C46.36,55.36,49,62.22,49,69.94s-2.68,14.6-6.83,19c-.44,10.15,1.15,19.14,5.92,26.31,8.16,12.27,22,13.27,34.5,17.89,6.43,2.37,11.76,5.89,15.17,11.74Z"/><path id="_158253176" data-name=" 158253176" class="cls-1" d="M92.16,44.48l1.72.92c-1.4,1.54-5,2.42-6.29.15,1.7.65,3.06.16,4.57-1.07Z"/><path id="_48675496" data-name=" 48675496" class="cls-4" d="M88.13,45.94c1.24,1.32,4.23.68,5.33-.53l-1.4-.57a4.38,4.38,0,0,1-3.93,1.1Z"/><path id="_158281688" data-name=" 158281688" class="cls-1" d="M89.51,47.05c1.22.06,3.3-.19,4.27-1.42l1.23-.3.73,1.34c-1.87,1.91-4.36,2.53-6.23.38Z"/><path id="_159040976" data-name=" 159040976" class="cls-5" d="M95.36,46.62l-.52-.95-.79.06c-.71,1.24-2.85,1.48-3.82,1.59,1.66,1.46,3.73.73,5.13-.7Z"/><path id="_158281376" data-name=" 158281376" class="cls-1" d="M92.49,40.73l2.75,4.89a4.5,4.5,0,0,1-4-.82,2.48,2.48,0,0,0-3.36,0c-.63-3.56,2.14-4.66,4.66-4.09Z"/><path id="_158281424" data-name=" 158281424" class="cls-6" d="M88,44.36a2.72,2.72,0,0,1,3.44.32,4.07,4.07,0,0,0,3.23.78L92.29,41a5.68,5.68,0,0,0-1.59-.1h0A3,3,0,0,0,88,44.36Z"/><path id="_158221176" data-name=" 158221176" class="cls-1" d="M122.69,102.15a1.39,1.39,0,0,1,.62,1c1.4,1,1.12,2.52.24,3.69l-.1-.35a2.75,2.75,0,0,0-1.27-1.81,1.33,1.33,0,0,0-.1.24,1.71,1.71,0,0,1-2.34-1.16,12.4,12.4,0,0,1-1.41-.71l.22.27h0c.38.44.68.63.77,1.32a1.74,1.74,0,0,1-.11.91c.71,1.33.14,2.45-1.29,3.17.17-.84.26-1.7-.5-2.26l-.06.07a1.56,1.56,0,0,1-1.53-.68,1.76,1.76,0,0,1-.13-1.76l-.82-1.31c-.55-.87-1-1.14-1.87-.4a1.59,1.59,0,0,1-2.83.86,3.84,3.84,0,0,0-2.07,1.43,2.49,2.49,0,0,1,1-3.22c.25-1.29,1.39-1.4,2.56-1.43.62,0,1.24-.36.83-1l-3-4.76,2.78-1.3L116,98.37c.83,1.24,2.44,1,3.71.78,1-.14,2.65-.52,3.45.34,1.89,0,2.59,1.2,2.6,2.86a2.5,2.5,0,0,0-2.41-.91,1.06,1.06,0,0,1-.66.71Z"/><path id="_158295352-4" data-name=" 158295352-4" class="cls-7" d="M123,101.41a2.17,2.17,0,0,1-.11-1.73c-.53-.61-1.92-.4-3.18-.22s-3.09.45-4-.92l-3.49-5.2-2.22,1,2.77,4.46c.55.88-.22,1.47-1.08,1.5s-2,.1-2.25,1.14a1.73,1.73,0,0,1,1,1.65,1.28,1.28,0,0,0,2.21-.88c1-.94,1.72-.76,2.44.37l.92,1.47a1.46,1.46,0,0,0,0,1.59,1.24,1.24,0,0,0,1.11.57,2.09,2.09,0,0,1,1.71-.78,1.43,1.43,0,0,0,.1-.78c-.08-.68-.58-1-1-1.49a6,6,0,0,1-1-1.82l.3-.1a5.38,5.38,0,0,0,.49,1.07,11,11,0,0,0,2.14,1.2,1.43,1.43,0,0,0,1.85,1.13,2.51,2.51,0,0,1,1.17-1.39,1.1,1.1,0,0,0-.78-1,8.29,8.29,0,0,1-.92-.31,16,16,0,0,1-2.09-1.09l.33-.18a12.05,12.05,0,0,0,1.88,1c.51.22,1.34.51,1.61-.25Z"/><path id="_48676072" data-name=" 48676072" class="cls-8" d="M123.22,99.8a1.93,1.93,0,0,0,0,1.34,2.84,2.84,0,0,1,2.14.43,2,2,0,0,0-2.17-1.77Zm0,3.71a2.34,2.34,0,0,0-.94.9,2.9,2.9,0,0,1,1.32,1.67,2,2,0,0,0-.38-2.57ZM119,105.8a1.6,1.6,0,0,0-1.33.45,1.92,1.92,0,0,1,.7,1.84A1.7,1.7,0,0,0,119,105.8Zm-8.81-2.87a1.36,1.36,0,0,0-.9-1.18,2.19,2.19,0,0,0-1,2.28A3.51,3.51,0,0,1,110.17,102.93Z"/><path id="_158207592" data-name=" 158207592" class="cls-1" d="M72.91,102.15a1.39,1.39,0,0,0-.62,1c-1.4,1-1.12,2.52-.24,3.69l.1-.35h0a2.75,2.75,0,0,1,1.27-1.81c0,.07.07.15.1.24a1.71,1.71,0,0,0,2.34-1.16,12.4,12.4,0,0,0,1.41-.71l-.22.27h0c-.39.44-.69.63-.77,1.32a1.65,1.65,0,0,0,.11.91c-.71,1.33-.14,2.45,1.29,3.17-.17-.84-.26-1.7.5-2.26l.06.07a1.56,1.56,0,0,0,1.53-.68,1.76,1.76,0,0,0,.13-1.76l.82-1.31c.55-.87,1-1.14,1.86-.4a1.6,1.6,0,0,0,2.84.86,3.78,3.78,0,0,1,2.06,1.43,2.47,2.47,0,0,0-1-3.22c-.24-1.29-1.38-1.4-2.55-1.43-.62,0-1.24-.36-.83-1l3-4.76L83.24,93,79.6,98.37c-.83,1.24-2.44,1-3.71.78-1-.14-2.65-.52-3.45.34-1.89,0-2.59,1.2-2.6,2.86a2.5,2.5,0,0,1,2.41-.91,1.06,1.06,0,0,0,.66.71Z"/><path id="_158281304" data-name=" 158281304" class="cls-8" d="M72.38,99.8a1.93,1.93,0,0,1,0,1.34,2.83,2.83,0,0,0-2.14.43,2,2,0,0,1,2.17-1.77Zm0,3.71a2.3,2.3,0,0,1,1,.9A2.9,2.9,0,0,0,72,106.08,2,2,0,0,1,72.33,103.51Zm4.29,2.29a1.6,1.6,0,0,1,1.33.45,1.92,1.92,0,0,0-.7,1.84,1.7,1.7,0,0,1-.63-2.29Zm8.81-2.87a1.35,1.35,0,0,1,.9-1.18,2.19,2.19,0,0,1,1,2.28A3.51,3.51,0,0,0,85.43,102.93Z"/><path id="_158295352" data-name=" 158295352" class="cls-9" d="M72.56,101.41a2.17,2.17,0,0,0,.11-1.73c.53-.61,1.92-.4,3.18-.22s3.09.45,4-.92l3.49-5.2,2.22,1L82.8,98.84c-.55.88.22,1.47,1.08,1.5s2,.1,2.25,1.14a1.73,1.73,0,0,0-1,1.65,1.28,1.28,0,0,1-2.21-.88c-1-.94-1.72-.76-2.44.37l-.92,1.47a1.48,1.48,0,0,1,0,1.59,1.24,1.24,0,0,1-1.11.57,2.09,2.09,0,0,0-1.72-.78,1.54,1.54,0,0,1-.09-.78c.08-.68.58-1,1-1.49a5.8,5.8,0,0,0,1-1.82l-.29-.1a5.38,5.38,0,0,1-.49,1.07,11,11,0,0,1-2.14,1.2,1.43,1.43,0,0,1-1.85,1.13,2.51,2.51,0,0,0-1.17-1.39,1.1,1.1,0,0,1,.78-1,8.29,8.29,0,0,0,.92-.31,16.7,16.7,0,0,0,2.09-1.09l-.33-.18a12.05,12.05,0,0,1-1.88,1c-.51.22-1.34.51-1.61-.25Z"/><path id="path40" class="cls-10" d="M92.06,50.92a1.22,1.22,0,0,0,.87.63c-.68,1.24-1,2.73-2.08,3.09a1.29,1.29,0,0,0,1,.73c-1.36,1.27-2.38,3.72-4.29,3.53-1.41-.14-2.39-.87-.92-2.07,1.66-1.34,2.42-3.63.92-5.51a21.29,21.29,0,0,0-5.29-4.59c-1.22-.79-2.42-1.9-2.17-3.7a2.08,2.08,0,0,0-1.28,1.66C74.57,42.21,71,38.6,71.14,36.4A2.61,2.61,0,0,0,70,38.49c-5.08-4.13-9.35-8.56-11.41-12.56-.73-1.4-1.19-1.17-1.65-.11-1.12,2.51-.06,5.46,1.2,8A38,38,0,0,0,63.92,42a13.67,13.67,0,0,1-6.74-5.44c-1-1.4-1.64-.82-1.57.51.24,4.2,3.46,8.82,8.21,13.53a17.14,17.14,0,0,1-5.08-3.15c-1.3-1.33-1.86-.66-1.38.95,1.53,5.06,6,8.2,9.81,11.3a17.4,17.4,0,0,1-5.54-2.18c-.8-.51-1.45-.66-.85,1,1.46,4.07,5.86,6.34,10.76,8.09a10.35,10.35,0,0,1-3.84.13c-.94-.14-1.52-.16-.46,1.25,2.3,3.09,7.2,3.71,12,4.55a18,18,0,0,1-5.72-.12c-.58-.07-.66.32-.16.94,2.53,3.21,6.77,2.56,10.52,2.93-.5,1.08-1.55,1.58-2,2.45,2.93.42,5.77-1.16,8.8.27,1.64.78,1,4.16-1.14,3-2.34-1.2-4.06-.78-5.32,1.35-1.53,2.57-2.72,5.72-4.11,6.09l1,.65a4.75,4.75,0,0,1-2.37,2,4.09,4.09,0,0,0,2.49.92A5.63,5.63,0,0,1,81,95.31a10.57,10.57,0,0,0,3-.56A7.3,7.3,0,0,0,86.2,98a4.53,4.53,0,0,1,1-2.36,3.83,3.83,0,0,0,2,1.84,6.37,6.37,0,0,1,.35-2.71l.83.72a6.3,6.3,0,0,1,1.18-3.42c1.19-1.34,1.94-.52,2,.62,0,3.94-.43,7.38-2.51,9.85a5.38,5.38,0,0,0,2.51.45A14.59,14.59,0,0,1,87,109.56a11,11,0,0,0,3.22,1.33c-2.54,1.64-6.85,1.49-10.68.81,1.26,4.24,5.88,6.45,13.12,6.55A9.16,9.16,0,0,1,87,121.7c1.29,2,5.34,2.62,8.81,1.52a8.48,8.48,0,0,1-3,2.73,15.78,15.78,0,0,1,5,9.82,15.78,15.78,0,0,1,5-9.82,8.48,8.48,0,0,1-3-2.73c3.47,1.1,7.52.51,8.81-1.52-2.21-.47-4.57-1.65-5.65-3.45,7.24-.1,11.86-2.31,13.12-6.55-3.83.68-8.14.83-10.68-.81a11,11,0,0,0,3.22-1.33,14.59,14.59,0,0,1-6.53-6.54,5.38,5.38,0,0,0,2.51-.45c-2.09-2.47-2.51-5.91-2.51-9.85,0-1.14.76-2,1.95-.62a6.3,6.3,0,0,1,1.18,3.42l.83-.72a6.37,6.37,0,0,1,.35,2.71,3.83,3.83,0,0,0,2-1.84,4.53,4.53,0,0,1,1,2.36,7.3,7.3,0,0,0,2.24-3.28,10.57,10.57,0,0,0,3,.56,5.82,5.82,0,0,1-.32-2.17,4.09,4.09,0,0,0,2.5-.92,4.75,4.75,0,0,1-2.37-2l1-.65c-1.39-.37-2.58-3.52-4.11-6.09-1.26-2.13-3-2.55-5.32-1.35-2.18,1.11-2.78-2.26-1.14-3,3-1.43,5.87.15,8.8-.27-.42-.87-1.47-1.37-2-2.45,3.75-.37,8,.28,10.52-2.93.5-.62.42-1-.16-.94a18,18,0,0,1-5.72.12c4.83-.84,9.73-1.46,12-4.55,1.06-1.41.48-1.39-.46-1.25a10.35,10.35,0,0,1-3.84-.13c4.9-1.75,9.3-4,10.76-8.09.6-1.68,0-1.53-.85-1a17.4,17.4,0,0,1-5.54,2.18c3.85-3.1,8.28-6.24,9.81-11.3.48-1.61-.08-2.28-1.38-.95a17.14,17.14,0,0,1-5.08,3.15c4.75-4.71,8-9.33,8.21-13.54.07-1.32-.61-1.9-1.57-.5A13.63,13.63,0,0,1,131.68,42a38,38,0,0,0,5.78-8.23c1.26-2.5,2.32-5.45,1.2-8-.46-1.06-.92-1.29-1.65.11-2.06,4-6.33,8.43-11.41,12.56a2.61,2.61,0,0,0-1.14-2.09c.15,2.2-3.43,5.81-7.66,8.29A2.08,2.08,0,0,0,115.52,43c.25,1.8-.94,2.91-2.17,3.7a21.08,21.08,0,0,0-5.29,4.59c-1.5,1.88-.74,4.17.92,5.51,1.47,1.2.5,2.16-.92,2.07a3.45,3.45,0,0,1-3.48-3.57,1.3,1.3,0,0,0,1.16-.38c-.87-.68-.73-2.2-1-3.59a1.24,1.24,0,0,0,1-.32,3,3,0,0,1-.9-1.68c-.81-2.65-.44-5.28-2.19-7.49,1.53-1,2.54-2.19,2.33-3.94a9.52,9.52,0,0,1-5.37.3c-4.3-1-6.66.64-8,2.56,1.18,1,.89,1.89,1.37,3.13a4.85,4.85,0,0,0,2.56,2.83c-1.6,1-2.5,3.9-3.55,4.17Z"/><circle id="circle42" class="cls-4" cx="94.42" cy="41.92" r="0.87"/><path id="path44" class="cls-11" d="M97.8,123.25a5.81,5.81,0,0,1-2.63,3.17,9,9,0,0,1,2.63,4.48,9,9,0,0,1,2.63-4.48A5.81,5.81,0,0,1,97.8,123.25Zm0-8.5c-1.81,3.18-4.19,5.93-7.59,6.83,2.16,1.28,5.81.21,7.59-2.24,1.91,2.32,5.11,3.39,7.59,2.24C101.9,120.63,99.6,117.93,97.8,114.75Zm0-2.37c-4.36,4-11.41,5.32-15.59,1,6,.56,11.51-.89,15.59-6.51,4.08,5.62,9.56,7.07,15.59,6.51C109.21,117.7,102.16,116.42,97.8,112.38Zm0-6.85c-2.23,2.57-4.4,4-7.21,3.4a19.21,19.21,0,0,0,7.21-9.38,19.25,19.25,0,0,0,7.21,9.38C102.2,109.48,100,108.1,97.8,105.53Z"/><path id="path46" class="cls-12" d="M93.41,41a2.42,2.42,0,0,1,3,.2l-.21.6a2,2,0,0,0-2.56-.34l-.2-.46Z"/><path id="path48" class="cls-13" d="M70.12,40.92a8.89,8.89,0,0,0,2.48,4,9,9,0,0,0-3.45.5c-.18,2,1.7,3.83,3,5.63-1.17.59-2.62,1-3.38,2.23,1.3,2.62,3.27,2.89,5,3.87-.86,1-1.88,1.79-2.11,3.39,1.25,1.45,3,1.57,4.68,2-.52,1.26-1.26,2.46-1,3.93,1.76.85,3.11.39,4.47.38a9.1,9.1,0,0,0,.22,3.36A9.9,9.9,0,0,0,84.3,70a9.7,9.7,0,0,0,.38,3.46,4.77,4.77,0,0,0,4.42-1M78.84,46.17a2.08,2.08,0,0,0,.67,1.62,6.92,6.92,0,0,0-3,1.49,8.16,8.16,0,0,0,1.81,3.4c-1,.51-2,.83-2.15,1.55.31,1.09,1.59,2,2.9,2.88a6.34,6.34,0,0,0-.92,2.48c1.12,1.09,2.25.86,3.37.89A6.72,6.72,0,0,0,81,63.65a4.92,4.92,0,0,0,3,.57,8.39,8.39,0,0,0,.33,3.21,4.72,4.72,0,0,0,3.19-.67,15,15,0,0,0,.65,2.81,3.07,3.07,0,0,0,2.59-2.12m-.4-8a6.57,6.57,0,0,0,3.17-1.1,5.23,5.23,0,0,0,1.71,2.53c1-.19,2-1.19,3-2a8.86,8.86,0,0,0,2.8,2,6.88,6.88,0,0,0,1.8-2.21,2.7,2.7,0,0,0,2,.74M93.3,54.54a2.54,2.54,0,0,0,1.85-.47,6.69,6.69,0,0,0,1.61,1.57,6.21,6.21,0,0,0,2-1.42,4.39,4.39,0,0,0,1.72,1.33,5.72,5.72,0,0,0,1.67-1.45,2,2,0,0,0,1.41.49M94,50.81a3.25,3.25,0,0,0,2-.57,6.9,6.9,0,0,0,1.56,1.34,6.13,6.13,0,0,0,1.82-1.33,5,5,0,0,0,1.73,1.2A6,6,0,0,0,102.81,50a1.16,1.16,0,0,0,1.08.5m-7.31-2.78a1.61,1.61,0,0,0,.74.39c.42-.1.84-.62,1.26-1.21a4.49,4.49,0,0,0,1.86.92,2.84,2.84,0,0,0,1.12-1.73m15.2.09a2.07,2.07,0,0,1-.67,1.61,7,7,0,0,1,3,1.49,8.16,8.16,0,0,1-1.81,3.4c1,.52,2,.84,2.15,1.55-.31,1.09-1.59,2-2.9,2.89a6.38,6.38,0,0,1,.92,2.48c-1.12,1.08-2.25.85-3.37.89a6.83,6.83,0,0,1,.55,3.16,4.85,4.85,0,0,1-3,.57,8.42,8.42,0,0,1-.33,3.22,4.82,4.82,0,0,1-3.2-.68,14.23,14.23,0,0,1-.64,2.81,3,3,0,0,1-2.59-2.11m20.68-26.53a9.09,9.09,0,0,1-2.48,4,8.79,8.79,0,0,1,3.45.5c.18,2-1.7,3.82-3,5.62,1.17.6,2.62,1,3.38,2.24-1.3,2.61-3.27,2.88-5,3.87.87,1,1.89,1.78,2.12,3.39-1.25,1.44-3,1.57-4.69,2,.53,1.25,1.27,2.46,1,3.92-1.76.85-3.11.4-4.48.38a8.88,8.88,0,0,1-.21,3.36,9.89,9.89,0,0,1-4.2-.17,9.9,9.9,0,0,1-.38,3.45,4.77,4.77,0,0,1-4.42-1m6.65,17.23a6,6,0,0,1-1.85,0,5.92,5.92,0,0,1-1,2.65,7,7,0,0,1-2.79-.22,6.54,6.54,0,0,1-.8,1.61M92.15,84.86A10.11,10.11,0,0,0,94,87a2.32,2.32,0,0,0,1-.81,17.64,17.64,0,0,0,2.72,2.47A12.63,12.63,0,0,0,100.48,86a3.23,3.23,0,0,0,1.24.92,7.08,7.08,0,0,0,1.52-1.77M82.46,89.63a6,6,0,0,0,1.84,0,5.92,5.92,0,0,0,1,2.65A7,7,0,0,0,88.13,92a6.23,6.23,0,0,0,.81,1.61"/></g><g id="g1319"><path id="path1309" class="cls-11" d="M156.89,266.77H38.7c.16-46.91,1.87-98.95,58.8-123.54C156.44,170.27,156.88,221.73,156.89,266.77Z"/><g id="g2440"><g id="g2217"><g id="g2208"><path id="path2194" class="cls-14" d="M97.54,242.66a9.54,9.54,0,0,0-.18-4.94c-1.08-3.1-.76-6.11-.31-9.08l-2.45-.82c.91,2.64-.18,5.23.46,7.42.71,2.38,1.51,4.54,1.42,7.42Z"/><path id="path2196" class="cls-14" d="M94.62,233.07c-9.06-3.75-8.65,2.62-9.3,7.2A32.2,32.2,0,0,1,94.62,233.07Z"/><path id="path2198" class="cls-15" d="M94.53,233.17a26,26,0,0,0-8.47,6.46c2.49-1.08,5.07.12,7-1.18,2-1.89,1.36-4.72,1.61-5.33"/></g><path id="path2213" class="cls-14" d="M96.63,230.82a34.56,34.56,0,0,1,9.79,9.15C99.35,240.5,97.21,236.39,96.63,230.82Z"/><path id="path2215" class="cls-15" d="M106.52,240c-2.81-3.14-5.06-6.38-9.84-9.15C105.1,230.13,105.77,236.24,106.52,240Z"/></g><path id="path2513" class="cls-16" d="M110.84,227.66c4.22-6,5.81-7.26,7.64-10.33,4.83-.07,15.62,9.9,14.37,18.88-1.41,10.1-11,13.12-16.78,15.91-8.29,6-6.58,7.7-7.47,10-3.23-1.29-2-10.15,3-15.18,1.92-1.93,9.25-6.73,6.21-13.21-1.54-3.29-4.7-4.53-7-6.06M82.09,226c-1.8.85-10,2.58-8.93,10,1.13,8,10.35,12.69,11.7,14.95.65,1.08,2.49,8.89-1,10.25a11.6,11.6,0,0,0-7.82-9.9c-6.27-2.39-13-5.69-16.07-13.43-3.62-9,3.52-17.39,11.24-20.37Z"/><path id="path2500" class="cls-17" d="M97.39,241.44c2.55-3.95,7.79,0,6,4.05-.68,1.58-3.73.25-4.38,1.3-.55.88.3,1.13,1.54.53,1.45-.69,3.06-.93,3.93,0,1.69,1.89.42,6.44-2.88,6.51-2.1,0-2.34-5.28-3.27-4.24s2.88,3.15,1.69,5.35c-.78,1.44-5.89,2.25-6.52-1.63-.3-1.85,3.32-2.76,2-3.7-1.62-1.14-.72,3.5-3.36,3.65-3.23.19-5.67-5.44-2.07-7.3,2-1,3.79,2.32,4.11.34s-3.06.83-4-2.25c-.72-2.21,1.66-4.32,3-4.58a3.23,3.23,0,0,1,3.48,2c.83,1.19-1.71,3.74.17,3.74C98.06,245.24,96.72,242.45,97.39,241.44ZM95.47,248c.42,1.66,2.7,1.43,2.53-.55S95.09,246.48,95.47,248Z"/><path id="path1311" class="cls-12" d="M104.76,165.42c6.18,6.61,1.58,7.14,1.44,10.37-.58,1.86,5.23,16.11,7.37,17.33,2.59,6.93,4.57,4.78,3.35,13.48-.51,3.64,7.44,2.18,8.7,2.18,1,0,10.61,4,11,4.5,2.52,3.7-9.73,6.34-13.88,3.77-10.87,9.66-23.74,8.39-25.51,8.53-21,1.61-20.61-5.88-26.75-9.2-4.46,2-13.75-2.18-13.12-4.57,1.33-5,20.2-3.58,18.45-6.92-1.85-3.53,3.06-15.19,6-17L86,175.34s-4.15-5.47,2.66-11.18C89.44,163.68,100.45,161.64,104.76,165.42Z"/><path id="path2238" class="cls-10" d="M114.29,188.06c3.36,1.48,2.06,6.65,4.26,9.28,3,2.4,2.4,5.84,1.83,9.28l3.5-.91c7.35-.5,9.28,7,15.21,6.24,2.25,0,2.51,3,1.06,4.71-7.69,4.35-12.83,4.45-16.88,2.74a19.15,19.15,0,0,1-10.5,9.58,46.84,46.84,0,0,0-7.6-.3c-4.23,2.35-8.15-.79-11.26.46-2,1.31-4.06.85-6.09-.16C76,228.34,71.27,223.09,70,219.4c-5.65.57-12.42-2.94-15.37-5.32a2.33,2.33,0,0,1,.46-4c4.38.43,9.65-7.78,15.35-6.14,1.37.6,3.29,1.25,4.42.66-1.12-5.65.15-9,3-10.85a13.31,13.31,0,0,1,4.86-8.62c.5-3.87,1.2-7.46,2.9-9.73-.47-2.08-1.64-4.53-1.45-6.53.16-1.74,1.77-2.13,2.21-3.36,8.39-7.68,18.48-4.35,23,1.16,6.83,6.38-2.55,6.31,1.53,12.84C112.85,181.72,111.07,186.28,114.29,188.06Zm20,28.43c-.4,2.12-10.5,1.86-11.43.84-2.83-.85-.69-2.16,1-1.69a16.87,16.87,0,0,0,8.79.63C133.53,215.78,134.79,216.21,134.34,216.49ZM117,218c-.59,0-.81-2.47-1.35-2.78-.52.06-1.17,2-1.57,1.57-.36-.22-.07-1,.53-2.13.45-.85.78-2.31,1.47-2.06C117,214.41,118.07,216.28,117,218Zm-14.4,7.72c.56-.08.43-1,1.34-2.38.8-1.17,1.35-2.35.1-3.34-.53-.21-.65,2.08-1.21,3.24C102,224.41,101.69,225.41,102.63,225.68Zm10.08-8.11c.65-.44.87.29.75.75A6.31,6.31,0,0,1,111.1,221c-.54.3-.65,0-.75-.52l-.06-4.75h-.66l-2.29,4.78c-.34.71-1,1.31-1.77.13l-2.25-5.23c-.71-1.3.07-1.65.52-.92a11,11,0,0,1,2.32,3.67c.27.73.53.52.79.42,1.11-1.4,2-5.17,3-5.17,2.26.55.72,5.83,2.06,5Zm-10.9-.59c.43-1-.22-1.29-.78-.65-1.4.64-2.19,4-4,5.53-.31-.58-.64-1.13-.1-3,1.31-2.14,1.63-3.51,1-3.4-2,.87-1.36,4-4.19,5.92-.85,1-.11,1.86.59,1.24l.68-.65c.59-.38,1.18-.22,1.15.42l-.16,1.74c0,.45.5,1.15,1.24-.23C100.45,221,100.88,219.13,101.81,217Zm-8.24,4.32c-.72-.31,0-2.2.45-2.32C94.69,219.5,94.41,220.65,93.57,221.3Zm-6.88,2.39c.83-.26.81-2.21.07-2.29C85.82,221.41,85.89,223.75,86.69,223.69Zm-1.66.13c.37-.25,0-.89-.33-1.47-.26-.87-.62-1.13-1-.95s-.31.82.33,1.47C84.64,223.93,84.82,224,85,223.82Zm4.81,1.47c1.09-1.19.38-2.26,2-4.22.73-1.12,1.32-2.17.75-2.52-1-.75-2,1.91-3.14,2.75-.26,1.25.74,2-.13,3.53C89.36,225.34,89.53,225.49,89.84,225.29ZM88,219.76c-.15-1.12,1-2.51.42-2.78s-1.55-.17-1.6,1.73l.29,1.51C87.67,220.35,87.85,220.06,88,219.76Zm-15.94-5c-.3,2.28-3.43,1.8-5.07,1.68-3.24-.57-7.87-1.9-7.13-2.65.06-.37.6-.44,1.05,0a13.63,13.63,0,0,0,9,.34A1.41,1.41,0,0,1,72.1,214.8Zm3.39-1.75c1.33,0,1.18-4,3.4-5.07l1.68-1.42c.87-.63.14-1.36-.53-.93C75.6,207.56,75.53,209.56,75.49,213.05Zm2.13-9.14,2.09-1c-.22-4.95,3.45-5,5.89-3.13l1.08-2C81.94,194.9,77.3,195.85,77.62,203.91ZM84,200.67a1.47,1.47,0,0,0-2.13-.93,1.34,1.34,0,0,0-.89,1.52c0,.59.26.81.85.6Zm-3.29,6.64c.13.77,1.07.5,1.68.15,2.42-2.5,1.92-3.08,1.87-4-.61-.23-1.38,0-1.46,1.53C81.88,206.16,80.11,206.75,80.71,207.31Zm4.59-2.73c.79.14,1.08-.69,1.49-1.3s1-1.54.3-1.9c-.31,0-.8.7-1.3,1.49S84.82,204.27,85.3,204.58Zm.49,1.65c.88.17,1.46-.58,2-1.27,1.37-2.62.64-2.93.07-2.76C87.75,204.18,84.66,205.23,85.79,206.23Zm3.65.07c.8-.4,1-2.62,2.39-4.33a3.83,3.83,0,0,0,.37-3.43,19.18,19.18,0,0,1-.56-6.12c.08-.51-.25-1-.74-.44-.54,1.11-.87,2.67-.23,6.15a3.48,3.48,0,0,1-.26,3.06C88.63,204.4,88.73,205.38,89.44,206.3ZM89,199a29.16,29.16,0,0,1,.22-7.23c.5-.56,0-.8-.45-.49-.71.44-1.61,5-.48,8C88.52,199.75,89,199.6,89,199Zm-3.55-8.73c-.42,0-.75-.35-.41-.82l2.43-1.67c.83-.26,1.36.45.78,1.19ZM89.22,188c.44-3,.72-5.84.86-8.62.19-1,.73-.92.87-.36,1.06,3.3.46,7.25-1.17,9.13C89.51,188.3,89.2,188.61,89.22,188Zm-2.57-1.72,1.26-1.82c.49-.54,1.31-.33,1,.63-.91,1.58-1.86,2.73-3.24,2.27C85.35,186.82,85.86,186.32,86.65,186.23Zm1.08-2.61c-.73.07-.81-.33-.45-.74a14.1,14.1,0,0,0,1.17-1.78c.8-1.24,1.56-.44,1.07.55C88.93,182.32,88.46,183.33,87.73,183.62Zm29.35,21.67-2.4-.82c.74-3.58-2.57-5.6-5.84-3.4l-1-2.16C112.38,196.06,118.8,199,117.08,205.29Zm-3.87-2-2.42-1.4a.58.58,0,0,1-.05-.93C113,199.55,114.31,202.16,113.21,203.24Zm2.29,5.46c.32.42,1,.08.69-.67-2.62-5.23-8.26-2.67-9.93-7.95-.07-1.32-1.15-1.3-1.22-.23C104.69,206.16,112.72,204.49,115.5,208.7Zm-8.84-12.4c.24,1.12-.1,1.43-.87,1.09-.89-.95-1.57-3.44-.6-4C106.22,193.25,105.46,195.37,106.66,196.3Zm-.55-3.7c-.43-.82.65-1.26.93-.33,0,1.33.81,1.78.49,2.51C106.79,194.7,106.14,194.4,106.11,192.6Zm-2.5-1.85c2.72-3.34-1-8.57.54-12,1-.24,1.34,2.29,2.29,1.58s1-2.43.33-2.67-.66,1.39-1.31.76a3.35,3.35,0,0,0-1.36-2.45c-1.65.19-1,2.24-1.43,3.47-1.15,4.12,1.31,7.26.47,10.35A.84.84,0,0,0,103.61,190.75Zm-5.3-16.39c-1.93-.84-6,1.58-8,.21-.5-.65-.11-.86.45-.86,2.3.06,6.12-1.72,7.86.08C99.06,174.29,98.66,174.53,98.31,174.36Zm4.34-8.14c.71.07,1.34-.74.57-1.19-1-.68-3.7-1.36-3.93-.49C99.26,166,101.53,165.57,102.65,166.22Zm-10.11,3.07a1.46,1.46,0,0,1-.37,1.8c-.88.9-1.54.51-1.47-.24C91.28,170.1,92.15,168.78,92.54,169.29Zm-4.17,2.5c.64-.47-.16-.79-.78-1.15-.31-.67-.59-1.47-1.11-1C86,170.34,86.63,172.69,88.37,171.79Zm15,.41c.65.25,2.37-.26,1.39,1.08-.82,1.13-3.9-.4-2.67-2.26C102.75,170.14,103,171.67,103.33,172.2Z"/><path id="path1317" class="cls-18" d="M88.28,170.56a11.38,11.38,0,0,1-1.94-6.37,11.13,11.13,0,1,1,22.26,0,11.33,11.33,0,0,1-2.77,7.45m0,0c-1.84,1.1-3.41-.41-2.46-2.09a7.92,7.92,0,1,0-12.56-1,1.62,1.62,0,0,1-2.53,2"/></g></g><rect class="cls-12" x="24.97" y="112.84" width="145.64" height="54.95" rx="5.46"/><path class="cls-12" d="M80,99.63c-12.64,0-22.89,10.17-22.89,30.51C57.11,155.57,75.33,181,97.8,181s40.68-25.43,40.68-50.86c0-20.34-10.24-30.51-22.88-30.51a22.86,22.86,0,0,0-17.8,8.5A22.89,22.89,0,0,0,80,99.63Zm0,0"/><text class="cls-19" transform="translate(55.79 160.64)">Chònice</text><text class="cls-19" transform="translate(68.07 135.98)">Ma<tspan class="cls-20" x="30.24" y="0">z</tspan><tspan x="39.48" y="0">yr</tspan></text><path class="cls-12" d="M150.71,0l29,0h16l0,16c0,7,0,14,0,21A29.09,29.09,0,0,1,150.71,0Z"/><text class="cls-21" transform="translate(159.77 31.75)">34</text></svg>