<?xml version="1.0" encoding="utf-8"?>
<!-- Generator: Adobe Illustrator 26.0.3, SVG Export Plug-In . SVG Version: 6.00 Build 0)  -->
<svg version="1.1" id="Слой_1" xmlns="http://www.w3.org/2000/svg" xmlns:xlink="http://www.w3.org/1999/xlink" x="0px" y="0px"
	 viewBox="0 0 195.6 280.6" style="enable-background:new 0 0 195.6 280.6;" xml:space="preserve">
<style type="text/css">
	.st0{clip-path:url(#SVGID_00000034068643342503130120000011576707908117256843_);}
	.st1{clip-path:url(#SVGID_00000145046778604869111640000011211871381658667695_);}
	.st2{fill:#9F313A;}
	.st3{fill:#1A1A1A;}
	.st4{font-family:'Impact';}
	.st5{font-size:54.62px;}
	.st6{fill:#FFFFFF;}
	.st7{fill:#AF1739;}
	.st8{fill:#EB5775;}
	.st9{fill:#BADBE9;}
	.st10{fill:#8BB0CC;}
	.st11{fill:#F293A2;}
	.st12{fill:#595959;}
	.st13{fill:#797979;}
	.st14{fill:#3E3E3E;}
	.st15{fill:#EB5A53;}
	.st16{clip-path:url(#SVGID_00000034068643342503130120000011576707908117256843_);fill:#9F313A;}
	.st17{clip-path:url(#SVGID_00000034068643342503130120000011576707908117256843_);enable-background:new    ;}
	.st18{font-size:20px;}
</style>
<g>
	<defs>
		<rect id="SVGID_1_" x="0" y="0" width="195.6" height="280.6"/>
	</defs>
	<clipPath id="SVGID_00000005250621910361473230000017061528797339458475_">
		<use xlink:href="#SVGID_1_"  style="overflow:visible;"/>
	</clipPath>
	<g style="clip-path:url(#SVGID_00000005250621910361473230000017061528797339458475_);">
		<defs>
			<rect id="SVGID_00000067957123656659440350000009390108444543501967_" x="-9.1" y="-8.9" width="213.7" height="298.4"/>
		</defs>
		<clipPath id="SVGID_00000103267073159845151910000004974702647138690434_">
			<use xlink:href="#SVGID_00000067957123656659440350000009390108444543501967_"  style="overflow:visible;"/>
		</clipPath>
		<g style="clip-path:url(#SVGID_00000103267073159845151910000004974702647138690434_);">
			<path class="st2" d="M186.7,211.2c-4.4,0-6.7-3.8-7.4-5c-1.3-2.4-2.4-4.9-3.1-7.6c-0.6-2-1.1-4.2-1.4-6.5
				c-5.4,0.7-10.9,0.7-16.3,0c-0.4,2.3-0.9,4.5-1.4,6.5c-0.7,2.7-1.7,5.2-3.1,7.6c-0.7,1.2-3,5-7.4,5s-6.7-3.8-7.4-5
				c-1.3-2.4-2.4-4.9-3.1-7.6c-1.3-4.9-2.1-9.9-2.4-15c-12.4-7.3-22-18.5-27.3-31.8l-0.4,0.3c-1.7,1.4-3.8,2.2-6,2.3
				c-0.9,0-1.9-0.1-2.8-0.5l-0.3-0.1c-0.6,0.1-1.1,0.2-1.7,0.2c-2.2-0.1-4.3-0.9-6-2.3l-0.4-0.3c-5.3,13.2-14.9,24.4-27.2,31.6
				c-0.3,5-1.1,10-2.4,14.9c-0.7,2.6-1.7,5.2-3,7.6c-0.7,1.2-3,5-7.4,5s-6.7-3.7-7.4-5c-1.3-2.4-2.3-4.9-3-7.6
				c-0.6-2.1-1.1-4.3-1.4-6.5c-5.4,0.7-10.8,0.7-16.2,0c-0.4,2.2-0.8,4.3-1.4,6.5c-0.7,2.6-1.7,5.2-3,7.6c-0.7,1.2-3,5-7.4,5
				s-6.7-3.7-7.4-5c-1.3-2.4-2.3-4.9-3-7.6C-3,193-3.8,188-4.1,183c-11.9-7-21.3-17.7-26.7-30.4l-0.2,0.1c-1.7,1.7-4,2.8-6.4,2.9
				c-0.7,0-1.4-0.1-2.1-0.3c-4.2-1.3-5.3-5.5-5.6-6.9c-0.6-2.7-0.8-5.4-0.7-8.1c0.2-6.1,1.2-12.2,2.9-18.1c1.7-5.7,4.3-9.7,7.7-11.9
				c0.6-0.4,1.2-0.7,1.8-0.9c4.7-16.3,15.6-30.1,30.4-38.5c-0.2-1.3-0.4-2.7-0.4-4.1C-3.5,61-1.3,55.5,2.7,51.3
				c4.5-4.5,11.1-7.2,19.7-7.8c3.6-0.3,7-0.4,10.2-0.5c2.2-0.1,4.4-0.2,6.6-0.3c5.4-0.2,10.8-1,16.2-2.2L66,38l-2.7,7
				c3.5-0.7,6.9-1.5,10.3-2.6l8.9-3.1l-1.2,9.4C80.1,59,75.4,68.6,68.1,75.9c11.2,8.6,19.3,20.7,23.1,34.3c2.9,2.3,5.1,5.3,6.5,8.8
				c1.4-3.3,3.5-6.2,6.3-8.4c3.7-13.7,11.9-25.9,23.2-34.5c-7.4-7.4-12.1-17-13.3-27.3l-1.2-9.4l9,3.1c3.4,1.1,6.9,1.9,10.4,2.6
				l-2.7-7.1l10.7,2.6c5.3,1.2,10.7,2,16.2,2.2c2.2,0.1,4.4,0.2,6.7,0.3c3.3,0.1,6.6,0.2,10.2,0.5c8.6,0.6,15.3,3.3,19.8,7.8
				c4,4.2,6.2,9.7,6.1,15.5c0,1.4-0.1,2.7-0.4,4.1c14.9,8.4,25.8,22.3,30.6,38.7c0.6,0.3,1.2,0.6,1.8,1c3.4,2.2,6,6.2,7.7,11.9
				c1.7,5.9,2.7,12,2.9,18.2c0.1,2.7-0.1,5.5-0.7,8.2c-0.4,1.4-1.4,5.6-5.7,6.9c-0.7,0.2-1.4,0.3-2.1,0.3l0,0
				c-2.4-0.1-4.7-1.2-6.4-2.9l-0.2-0.2c-5.5,12.8-14.9,23.5-26.8,30.6c-0.3,5.1-1.1,10.1-2.4,15c-0.7,2.7-1.7,5.2-3.1,7.6
				C193.4,207.4,191.1,211.2,186.7,211.2z"/>
			<path class="st3" d="M235.9,123.4c-1.6-5.4-3.9-8.7-6.6-10.4c-0.8-0.5-1.7-0.9-2.6-1.1c-4.5-17-15.9-31.3-31.5-39.4
				c0.5-1.8,0.8-3.7,0.8-5.6c0.1-5-1.8-9.9-5.3-13.5c-3.8-3.8-9.7-6.4-18-7c-6-0.5-11.4-0.5-16.9-0.8c-5.6-0.2-11.2-1-16.7-2.3
				l-5.5-1.3l2,5.3l0.5,1.3c-5.3-0.7-10.5-1.8-15.6-3.4l-4.6-1.6l0.6,4.8c1.3,10.9,6.7,20.9,15,28c-12.5,8.5-21.4,21.3-25.2,35.9
				c-2.5,1.6-4.9,4.5-6.8,9.2c-0.7,1.7-1.4,3.6-2,5.6c-0.6-2-1.3-4-2.1-5.9c-2-4.8-4.3-7.6-6.8-9.2C84.9,97.4,76,84.7,63.6,76.2
				c8.3-7.1,13.6-17,14.9-27.8l0.6-4.8l-4.6,1.6c-5.1,1.6-10.3,2.7-15.6,3.4l0.5-1.3l2-5.3L56,43.3c-5.5,1.3-11,2.1-16.7,2.3
				c-5.4,0.3-10.8,0.3-16.7,0.8c-8.2,0.6-14.1,3.1-17.9,7C1.2,57-0.7,61.8-0.6,66.8c0,1.9,0.3,3.7,0.8,5.5
				c-15.5,8.1-26.9,22.3-31.4,39.2c-0.9,0.2-1.8,0.6-2.6,1.1c-2.6,1.7-4.9,4.9-6.5,10.3c-1.7,5.6-2.6,11.5-2.8,17.4
				c-0.1,2.5,0.1,5,0.6,7.4c0.5,2.1,1.5,4.2,3.7,4.9s4.2-0.6,5.8-2c1.1-1.1,2.1-2.2,3-3.5c5,14.5,15.1,26.7,28.5,34.2
				c0.2,5.3,1,10.6,2.4,15.8c0.6,2.4,1.5,4.7,2.7,6.9c1.1,1.9,2.6,3.6,5,3.6s3.9-1.7,5-3.6c1.2-2.2,2.1-4.5,2.7-6.9
				c0.8-2.9,1.4-5.9,1.8-8.9c6.9,1.2,14,1.2,20.9,0c0.4,3,1,6,1.8,8.9c0.6,2.4,1.5,4.7,2.7,6.9c1.1,1.9,2.6,3.6,5,3.6s3.8-1.7,5-3.6
				c1.2-2.2,2.1-4.5,2.7-6.9c1.4-5.2,2.2-10.5,2.4-15.8c13.7-7.6,24-20.1,28.8-35c1,1.1,2.1,2.2,3.3,3.1c1.7,1.3,3.8,2.3,6,1.4
				l0.3-0.2c0.3,0.3,0.7,0.5,1.1,0.7c2.2,0.9,4.2-0.1,6-1.4c1.2-0.9,2.3-2,3.3-3.1c4.8,15,15.1,27.5,28.8,35.2
				c0.2,5.4,1,10.7,2.4,15.9c0.6,2.4,1.5,4.7,2.8,6.9c1.1,1.9,2.6,3.6,5,3.6s3.9-1.7,5-3.6c1.2-2.2,2.1-4.5,2.8-6.9
				c0.8-3,1.4-6,1.8-9c6.9,1.2,14.1,1.2,21,0c0.4,3,1,6,1.8,9c0.6,2.4,1.5,4.7,2.8,6.9c1.1,1.9,2.6,3.6,5,3.6s3.9-1.7,5-3.6
				c1.2-2.2,2.1-4.5,2.8-6.9c1.4-5.2,2.2-10.5,2.4-15.9c13.5-7.5,23.7-19.7,28.6-34.3c0.9,1.3,1.9,2.4,3,3.5c1.6,1.5,3.6,2.7,5.8,2
				s3.2-2.8,3.7-4.9c0.5-2.4,0.7-4.9,0.6-7.4C238.5,135,237.5,129.1,235.9,123.4z"/>
			<text transform="matrix(1 0 0 1 36.64 262.59)" class="st2 st4 st5">łotwa</text>
			<path class="st2" d="M16.6,179.7c0,10.6-3.5,25.7-7.9,25.7s-7.9-15.1-7.9-25.7S5.5,167,8.7,167S16.6,169.1,16.6,179.7L16.6,179.7
				z"/>
			<path class="st3" d="M8.7,164.8c-2.6,0-5.1,1.2-6.8,3.2c-2,2.4-3.3,6.1-3.3,11.8c0.1,5.9,0.9,11.7,2.4,17.4
				c0.6,2.4,1.5,4.7,2.7,6.9c1.1,1.9,2.6,3.6,5,3.6s3.9-1.7,5-3.6c1.2-2.2,2.1-4.5,2.7-6.9c1.5-5.7,2.4-11.5,2.4-17.4
				c0-5.6-1.2-9.4-3.3-11.8C13.9,165.9,11.4,164.8,8.7,164.8L8.7,164.8z M8.7,169.2c1.3-0.1,2.6,0.5,3.5,1.6
				c1.1,1.3,2.2,3.9,2.2,8.9c-0.1,5.5-0.8,10.9-2.2,16.2c-0.5,2-1.3,4-2.3,5.8c-0.3,0.5-0.7,1-1.2,1.4c-0.5-0.4-0.9-0.9-1.2-1.4
				c-1-1.8-1.8-3.8-2.3-5.8c-1.4-5.3-2.2-10.7-2.2-16.2c0-5,1.1-7.6,2.2-8.9C6.1,169.7,7.3,169.2,8.7,169.2L8.7,169.2z"/>
			<path class="st2" d="M56.5,179.7c0,10.6-3.5,25.7-7.9,25.7s-7.9-15.1-7.9-25.7s4.7-12.7,7.9-12.7S56.6,169.1,56.5,179.7
				L56.5,179.7z"/>
			<path class="st3" d="M48.7,164.8c-2.6,0-5.1,1.2-6.8,3.2c-2,2.4-3.3,6.1-3.3,11.8c0,5.9,0.9,11.7,2.4,17.4
				c0.6,2.4,1.5,4.7,2.7,6.8c1.1,1.9,2.6,3.6,5,3.6s3.8-1.7,5-3.6c1.2-2.2,2.1-4.5,2.7-6.9c1.5-5.7,2.4-11.5,2.4-17.4
				c0-5.6-1.2-9.4-3.3-11.8C53.8,165.9,51.3,164.8,48.7,164.8L48.7,164.8z M48.7,169.2c1.3,0,2.6,0.5,3.5,1.6
				c1.1,1.3,2.2,3.9,2.2,8.9c-0.1,5.5-0.8,10.9-2.2,16.2c-0.5,2-1.3,4-2.3,5.8c-0.3,0.5-0.7,1-1.2,1.4c-0.5-0.4-0.9-0.9-1.2-1.4
				c-1-1.8-1.8-3.8-2.3-5.8c-1.4-5.3-2.1-10.7-2.2-16.2c0-5,1.1-7.6,2.2-8.9C46.1,169.7,47.4,169.2,48.7,169.2L48.7,169.2z"/>
			<path class="st6" d="M93.4,122c4,9.8,6.6,25.1,2.5,26.8s-13.1-10.9-17.1-20.7s-0.6-13.6,2.4-14.8S89.4,112.2,93.4,122z"/>
			<path class="st3" d="M80.4,111.3c-2.4,1-4.3,3-5.1,5.5c-1,3-0.7,6.9,1.5,12.1c2.3,5.4,5.3,10.5,8.9,15.2c1.5,2,3.2,3.8,5.2,5.3
				c1.7,1.3,3.8,2.3,6,1.4s2.9-3.1,3.2-5.2c0.3-2.5,0.3-5-0.1-7.4c-0.7-5.8-2.2-11.6-4.4-17c-2.2-5.2-4.8-8.2-7.5-9.6
				C85.7,110.4,82.9,110.3,80.4,111.3L80.4,111.3z M82.1,115.3c1.2-0.6,2.6-0.5,3.8,0.2c1.5,0.8,3.6,2.8,5.5,7.4
				c2,5.1,3.4,10.4,4.2,15.8c0.3,2.1,0.3,4.2,0.1,6.2c-0.1,0.6-0.3,1.2-0.6,1.8c-0.6-0.2-1.2-0.5-1.6-0.9c-1.6-1.3-3.1-2.8-4.3-4.5
				c-3.3-4.3-6.1-9.1-8.3-14.1c-1.9-4.6-1.9-7.4-1.4-9.1C79.9,116.9,80.8,115.8,82.1,115.3L82.1,115.3z"/>
			<path class="st3" d="M28.7,65.4c-34.2,0-61.9,27.7-61.9,61.9c0,34.2,27.7,61.9,61.9,61.9s61.9-27.7,61.9-61.9c0,0,0,0,0,0
				C90.5,93.1,62.8,65.4,28.7,65.4z M28.7,72.4c30.3,0,54.8,24.5,54.8,54.8S59,182.1,28.7,182.1s-54.8-24.5-54.8-54.8l0,0
				c0-30.2,24.5-54.8,54.7-54.8C28.6,72.4,28.6,72.4,28.7,72.4z"/>
			<path class="st6" d="M-12,87.3c10.5-5.8,16.2,1.7,42.3,1.5c23.9-0.2,28.9-6.7,38.6-1.5c16.4,8.8,16.8,35.2,16.8,38.6
				c0,2.4-0.3,30.8-16.8,38.6c-11,5.2-16.8-4.7-39.1-5c-23.6-0.3-30.2,10.7-41.9,5c-16.5-7.9-16.8-36.2-16.8-38.6
				C-28.8,122.5-28.4,96.3-12,87.3z"/>
			<path class="st2" d="M28,70c-25,0-47.2,15.8-55.5,39.4H83.6C75.3,85.8,53,70,28,70z"/>
			<path class="st2" d="M31.1,71.3c-23.7,0-44.7,15.4-51.9,38H83.1C75.9,86.7,54.8,71.3,31.1,71.3L31.1,71.3z"/>
			<path class="st2" d="M-25.3,147.5c2.5,5.9,5.8,11.4,10,16.2c7,8.5,16.4,14.7,26.9,18c5.3,1.6,10.8,2.3,16.4,2.3
				c10.3-0.2,20.3-3.1,29.2-8.4c11.5-6.6,20.8-16.4,26.9-28.1H-25.3z"/>
			<path class="st2" d="M-21.8,147.6c13,28.4,46.5,41,75,28c12.4-5.7,22.4-15.6,28-28H-21.8z"/>
			<path class="st3" d="M28.7,68C-4,68-30.6,94.5-30.6,127.2s26.5,59.2,59.2,59.2s59.2-26.5,59.2-59.2c0,0,0,0,0,0
				C87.9,94.5,61.4,68,28.7,68z M28.7,69.8c31.7,0,57.5,25.7,57.5,57.5s-25.7,57.5-57.5,57.5s-57.5-25.7-57.5-57.5
				C-28.8,95.5-3.1,69.8,28.7,69.8C28.7,69.8,28.7,69.8,28.7,69.8L28.7,69.8z"/>
			<path class="st3" d="M9.9,106.1c5,0,9.1,4.1,9.1,9.1c0,0,0,0,0,0v4.6c0,5-4.1,9.1-9.1,9.1c-5,0-9.1-4.1-9.1-9.1v-4.6
				C0.8,110.2,4.9,106.1,9.9,106.1C9.9,106.1,9.9,106.1,9.9,106.1L9.9,106.1z"/>
			<path class="st6" d="M15.2,112.6c0,1.6-1.3,2.9-2.9,2.9s-2.9-1.3-2.9-2.9c0-1.6,1.3-2.9,2.9-2.9c0,0,0,0,0,0
				C13.9,109.7,15.2,111,15.2,112.6C15.2,112.6,15.2,112.6,15.2,112.6z"/>
			<path class="st3" d="M47.4,106.1c5,0,9.1,4.1,9.1,9.1c0,0,0,0,0,0v4.6c-0.2,5-4.4,9-9.4,8.8c-4.8-0.2-8.6-4-8.8-8.8v-4.6
				C38.3,110.2,42.4,106.1,47.4,106.1C47.4,106.1,47.4,106.1,47.4,106.1z"/>
			<path class="st6" d="M52.7,112.6c0,1.6-1.3,2.9-2.9,2.9c-1.6,0-2.9-1.3-2.9-2.9c0-1.6,1.3-2.9,2.9-2.9c0,0,0,0,0,0
				C51.4,109.7,52.7,111,52.7,112.6C52.7,112.6,52.7,112.6,52.7,112.6z"/>
			<path class="st7" d="M19,131.5c-1.1,0-2,0.9-2,2v2.3c-0.2,6.5,4.9,11.8,11.4,12c6.5,0.2,11.8-4.9,12-11.4c0-0.2,0-0.5,0-0.7v-2.3
				c0-1.1-0.9-2-2-2H19z"/>
			<path class="st8" d="M28.7,139.5c-3.4,0-6.6,1.5-8.8,4c4.2,4.9,11.6,5.4,16.5,1.1c0.4-0.4,0.8-0.7,1.1-1.1
				C35.3,141,32.1,139.5,28.7,139.5z"/>
			<path class="st6" d="M19,131.5c-1.1,0-2,0.9-2,2v2c7.4,3.6,16,3.6,23.4,0v-2.1c0-1.1-0.9-2-2-2L19,131.5z"/>
			<path class="st9" d="M19,131.5c-1.1,0-2,0.9-2,2v2c1.3,0.6,2.7,1.1,4.1,1.5c-0.8-0.5-1-1.3-1-2.4v-3.1L19,131.5z"/>
			<path class="st9" d="M34.1,131.5v3.1c0,1.6-0.4,2.9-1.8,3.3c2.8-0.4,5.5-1.2,8-2.4v-2.1c0-1.1-0.9-2-2-2L34.1,131.5z"/>
			<path class="st10" d="M38.3,131.5c1.1,0,2,0.9,2,2v2c-1.3,0.6-2.7,1.1-4.1,1.5c0.8-0.5,1-1.3,1-2.4v-3.1L38.3,131.5z"/>
			<path class="st3" d="M19,130.6c-1.6,0-2.9,1.3-2.9,2.9v2.3c-0.2,6.9,5.3,12.7,12.2,12.9s12.7-5.3,12.9-12.2c0-0.2,0-0.5,0-0.7
				v-2.3c0-1.6-1.3-2.9-2.9-2.9H19z M19,132.4h19.3c0.6,0,1.1,0.5,1.1,1.1c0,0,0,0,0,0.1v2.3c-0.2,6-5.2,10.7-11.1,10.5
				c-5.7-0.2-10.3-4.8-10.5-10.5v-2.3C17.9,132.9,18.4,132.4,19,132.4C19,132.4,19,132.4,19,132.4L19,132.4z"/>
			<path class="st3" d="M16.9,135.1l-0.4,0.8c7.7,3.7,16.6,3.7,24.3,0l-0.4-0.8C33,138.7,24.3,138.7,16.9,135.1z"/>
			<path class="st11" d="M27.4,142.6c0,0.4-0.2,0.8-0.6,1c-0.4,0.3-0.9,0.4-1.4,0.4c-1.1,0-2-0.6-2-1.4s0.9-1.4,2-1.4
				c0.5,0,1,0.1,1.4,0.4C27.2,141.9,27.4,142.3,27.4,142.6L27.4,142.6z"/>
			<path class="st3" d="M40,45.6c-5.6,0.3-11.2,0.4-17.4,0.8c-8.2,0.6-14.1,3.1-17.9,7C1.2,57-0.7,61.8-0.6,66.8
				c0,8.4,5.2,14.9,12.3,18.3s16.2,4.4,25.5,3c0.9-0.2,1.9-0.3,2.8-0.5v-6.1c-1.2,0.3-2.5,0.5-3.7,0.7c-8.3,1.3-16.3,0.3-22-2.5
				s-8.9-6.9-8.9-13c-0.1-3.4,1.1-6.8,3.5-9.2c2.6-2.5,6.9-4.6,14.1-5.2c5.8-0.4,11.3-0.5,17-0.9V45.6z"/>
			<path class="st3" d="M56,43.3c-5.9,1.4-11.9,2.2-17.9,2.4v5.9c4.7-0.2,9.4-0.7,14-1.5l-1.8,4.8h4.3c5.8-0.1,11.5-0.9,17-2.6
				c-4.4,17.3-18.9,26.9-33.5,29.7V88c18.3-3.1,37.3-16,40.4-39.6l0.6-4.8l-4.6,1.6c-5.1,1.6-10.3,2.7-15.6,3.4l0.5-1.3l2-5.3
				L56,43.3z"/>
			<path class="st12" d="M56.7,46.2c-12.5,3-22.2,2.3-33.9,3.2C7.3,50.5,2.4,58.6,2.4,66.8c0,29,67.2,26.3,73.2-18.8
				c0,0-11.3,4-21,3.9L56.7,46.2L56.7,46.2z"/>
			<path class="st13" d="M56.7,46.2c-12.5,3-22.2,2.3-33.9,3.2C14,50,8.6,52.9,5.6,56.8c8.2,14.2,54.3,11.6,70-8.8
				c0,0-11.3,4-21,3.9L56.7,46.2L56.7,46.2z"/>
			<path class="st14" d="M75.6,48c-7.9,29.4-62,40.8-72.8,14.9c-0.3,1.3-0.4,2.7-0.4,4C2.4,95.9,69.6,93.1,75.6,48L75.6,48z"/>
			<path class="st3" d="M40,47.8c-5.6,0.3-11.2,0.4-17.2,0.8c-7.9,0.6-13.2,3-16.5,6.3c-3.1,3.2-4.8,7.5-4.6,11.9
				c0,7.5,4.4,13.1,11,16.3s15.4,4.2,24.2,2.8c1-0.2,2.1-0.3,3.1-0.6v-1.5c-1.1,0.3-2.2,0.5-3.4,0.6c-8.6,1.3-17.1,0.4-23.3-2.7
				s-10.2-8-10.2-15C3,62.8,4.5,58.9,7.3,56c3-3,7.9-5.3,15.6-5.9c6-0.4,11.5-0.5,17.1-0.8L40,47.8L40,47.8z"/>
			<path class="st3" d="M56.5,45.5c-6,1.4-12.2,2.2-18.4,2.4v1.5c5.9-0.2,11.7-1,17.4-2.2l-2,5.5h1.1c9,0,18.3-3,20-3.6
				c-3.3,20.8-20,32.2-36.5,35.2v1.5c17.4-3.1,35.3-15.3,38.2-37.7l0.2-1.2l-1.1,0.4c0,0-10.4,3.6-19.6,3.7l1.7-4.6l0.5-1.3
				L56.5,45.5z"/>
			<path class="st15" d="M179.2,178.3c0-10.7,4.7-12.8,7.9-12.8s7.9,2.1,7.9,12.8s-3.6,25.8-7.9,25.8S179.2,189,179.2,178.3z"/>
			<path class="st3" d="M187.1,163.3c-2.6,0-5.2,1.2-6.9,3.2c-2,2.4-3.3,6.2-3.3,11.8c0,5.9,0.9,11.8,2.4,17.5
				c0.6,2.4,1.5,4.7,2.8,6.9c1.1,1.9,2.6,3.6,5,3.6s3.9-1.7,5-3.6c1.2-2.2,2.1-4.5,2.8-6.9c1.6-5.7,2.4-11.6,2.4-17.5
				c0-5.6-1.2-9.4-3.3-11.8C192.3,164.4,189.8,163.3,187.1,163.3L187.1,163.3z M187.1,167.7c1.4,0,2.7,0.5,3.5,1.6
				c1.1,1.3,2.2,4,2.2,9c-0.1,5.5-0.8,11-2.2,16.3c-0.5,2-1.3,4-2.3,5.8c-0.3,0.5-0.7,1-1.2,1.4c-0.5-0.4-0.9-0.9-1.2-1.4
				c-1-1.8-1.8-3.8-2.3-5.8c-1.4-5.3-2.2-10.8-2.2-16.3c0-5,1.1-7.6,2.2-9C184.5,168.3,185.8,167.7,187.1,167.7z"/>
			<path class="st15" d="M139.1,178.3c0-10.7,4.7-12.8,7.9-12.8s7.9,2.1,7.9,12.8s-3.6,25.8-7.9,25.8S139.1,188.9,139.1,178.3
				L139.1,178.3z"/>
			<path class="st3" d="M147,163.3c-2.6,0-5.2,1.2-6.9,3.2c-2,2.4-3.3,6.2-3.3,11.8c0,5.9,0.9,11.8,2.4,17.5
				c0.6,2.4,1.5,4.7,2.8,6.9c1.1,1.9,2.6,3.6,5,3.6s3.9-1.7,5-3.6c1.2-2.2,2.1-4.5,2.8-6.9c1.6-5.7,2.4-11.6,2.4-17.5
				c0-5.6-1.2-9.4-3.3-11.8C152.2,164.4,149.7,163.3,147,163.3L147,163.3z M147,167.7c1.4,0,2.7,0.6,3.5,1.6c1.1,1.3,2.2,4,2.2,9
				c-0.1,5.5-0.8,11-2.2,16.3c-0.5,2-1.3,4-2.3,5.8c-0.3,0.5-0.7,1-1.2,1.4c-0.5-0.4-0.9-0.9-1.2-1.4c-1-1.8-1.8-3.8-2.3-5.8
				c-1.4-5.3-2.2-10.8-2.2-16.3c0-5,1.1-7.6,2.2-9C144.3,168.3,145.6,167.7,147,167.7z"/>
			<path class="st15" d="M102,120.3c4.1-9.8,9.2-10,12.2-8.8s6.5,5,2.4,14.8s-13.2,22.5-17.2,20.8S97.9,130.2,102,120.3z"/>
			<path class="st3" d="M115.1,109.5c-2.4-1-5.2-0.9-7.6,0.3c-2.8,1.4-5.4,4.4-7.6,9.7c-2.2,5.5-3.7,11.2-4.5,17.1
				c-0.4,2.5-0.4,5-0.1,7.4c0.3,2.2,1,4.3,3.2,5.2s4.2-0.1,6-1.4c2-1.5,3.7-3.3,5.2-5.3c3.6-4.7,6.6-9.8,8.9-15.2
				c2.2-5.2,2.5-9.2,1.5-12.2C119.4,112.5,117.5,110.5,115.1,109.5z M113.4,113.6c1.3,0.5,2.2,1.5,2.6,2.8c0.5,1.7,0.5,4.5-1.4,9.1
				c-2.2,5.1-5,9.8-8.3,14.2c-1.3,1.7-2.7,3.2-4.3,4.5c-0.5,0.4-1,0.7-1.6,0.9c-0.3-0.5-0.5-1.1-0.6-1.8c-0.2-2.1-0.2-4.2,0.1-6.3
				c0.7-5.5,2.1-10.8,4.2-15.9c1.9-4.6,3.9-6.6,5.5-7.4C110.7,113.1,112.2,113,113.4,113.6z"/>
			<path class="st3" d="M167.1,63.4c-34.3,0-62.2,27.8-62.2,62.2s27.8,62.2,62.2,62.2s62.2-27.8,62.2-62.2
				C229.2,91.2,201.4,63.4,167.1,63.4z M167.1,70.5c30.4,0,55.1,24.6,55.1,55.1c0,30.4-24.6,55.1-55.1,55.1S112,156,112,125.6
				c0,0,0,0,0,0c0-30.4,24.5-55,54.9-55.1C167,70.5,167,70.5,167.1,70.5L167.1,70.5z"/>
			<path class="st15" d="M224.8,124.2c0,2.4-0.3,30.8-16.8,38.8c-11.8,5.7-18.3-5.4-42.1-5.1c-22.4,0.3-28.2,10.3-39.2,5.1
				c-16.6-7.8-16.8-36.4-16.8-38.8c0-3.3,0.4-29.9,16.8-38.8c9.7-5.2,14.8,1.2,38.8,1.5c26.2,0.3,32-7.3,42.6-1.5
				C224.4,94.5,224.8,120.8,224.8,124.2z"/>
			<path class="st6" d="M167.7,68c-25.1,0-47.5,15.9-55.8,39.6h111.6C215.2,83.9,192.8,68,167.7,68z"/>
			<path class="st6" d="M164.6,69.3c-23.9,0-45,15.5-52.2,38.2h104.4C209.6,84.8,188.5,69.4,164.6,69.3z"/>
			<path class="st6" d="M111.4,145.9c6.1,11.8,15.5,21.7,27,28.3c8.9,5.3,19,8.2,29.3,8.4c5.6,0.1,11.1-0.7,16.4-2.3
				c10.6-3.3,19.9-9.6,27-18.1c4.2-4.9,7.6-10.4,10.1-16.3H111.4z"/>
			<path class="st6" d="M114.4,146c13,28.6,46.8,41.2,75.4,28.1c12.4-5.7,22.4-15.7,28.1-28.1H114.4z"/>
			<path class="st3" d="M167.1,66c-32.9,0-59.5,26.7-59.5,59.5s26.7,59.5,59.5,59.5s59.5-26.7,59.5-59.5l0,0
				C226.6,92.7,199.9,66,167.1,66z M167.1,67.8c31.9,0,57.8,25.9,57.8,57.8s-25.9,57.8-57.8,57.8s-57.8-25.9-57.8-57.8
				C109.3,93.6,135.1,67.8,167.1,67.8C167,67.8,167.1,67.8,167.1,67.8z"/>
			<path class="st3" d="M185.9,104.3c5,0,9.1,4.1,9.1,9.1c0,0,0,0,0,0v4.6c0.2,5-3.8,9.3-8.8,9.4s-9.3-3.8-9.4-8.8
				c0-0.2,0-0.4,0-0.6v-4.6C176.8,108.4,180.8,104.3,185.9,104.3C185.9,104.3,185.9,104.3,185.9,104.3L185.9,104.3z"/>
			<path class="st6" d="M180.6,110.9c0-1.6,1.3-3,2.9-3c1.6,0,3,1.3,3,2.9c0,0.8-0.3,1.6-0.9,2.2c-1.1,1.2-3,1.2-4.1,0c0,0,0,0,0,0
				C180.9,112.4,180.6,111.6,180.6,110.9L180.6,110.9z"/>
			<path class="st3" d="M148.2,104.3c5,0,9.1,4.1,9.1,9.1c0,0,0,0,0,0v4.6c0,5-4.1,9.1-9.1,9.1s-9.1-4.1-9.1-9.1c0,0,0,0,0,0v-4.6
				C139.1,108.4,143.2,104.3,148.2,104.3C148.2,104.3,148.2,104.3,148.2,104.3L148.2,104.3z"/>
			<path class="st6" d="M142.9,110.9c0-1.6,1.4-2.9,3-2.9c1.6,0,2.9,1.4,2.9,3c0,1.6-1.3,2.9-2.9,2.9
				C144.3,113.9,142.9,112.5,142.9,110.9z"/>
			<path class="st7" d="M157.4,129.9c-1.1,0-2,0.9-2,2v2.3c0,6.5,5.3,11.8,11.8,11.8s11.8-5.3,11.8-11.8v-2.3c0-1.1-0.9-2-2-2H157.4
				z"/>
			<path class="st8" d="M167.1,137.9c-3.4,0-6.6,1.4-8.9,4c4.3,4.9,11.7,5.4,16.6,1.1c0.4-0.3,0.8-0.7,1.1-1.1
				C173.7,139.3,170.5,137.9,167.1,137.9L167.1,137.9z"/>
			<path class="st6" d="M157.4,129.9c-1.1,0-2,0.9-2,2v2.1c7.4,3.6,16.1,3.6,23.5,0v-2c0-1.1-0.9-2-2-2L157.4,129.9z"/>
			<path class="st9" d="M175.7,129.9v3.1c0,1.2-0.1,1.9-0.9,2.5c1.4-0.4,2.8-0.9,4.1-1.5v-2c0-1.1-0.9-2-2-2L175.7,129.9z"/>
			<path class="st9" d="M157.4,129.9c-1.1,0-2,0.9-2,2v2.1c2.5,1.2,5.3,2,8.1,2.4c-1.4-0.4-1.8-1.7-1.8-3.3v-3.1L157.4,129.9z"/>
			<path class="st10" d="M158.5,129.9v3.1c0,1.2,0.1,1.9,1,2.5c-1.4-0.4-2.8-0.9-4.1-1.5v-2c0-1.1,0.9-2,2-2L158.5,129.9z"/>
			<path class="st3" d="M157.4,129c-1.6,0-2.9,1.3-2.9,2.9v2.3c0,7,5.7,12.6,12.6,12.6c7,0,12.6-5.7,12.6-12.6v-2.3
				c0-1.6-1.3-2.9-2.9-2.9H157.4z M176.8,130.8c0.6,0,1.1,0.5,1.1,1.1c0,0,0,0,0,0v2.3c-0.2,6-5.2,10.7-11.2,10.5
				c-5.7-0.2-10.4-4.8-10.5-10.5v-2.3c0-0.6,0.5-1.1,1.1-1.1c0,0,0,0,0.1,0H176.8z"/>
			<path class="st3" d="M178.9,133.4c-7.5,3.6-16.2,3.6-23.6,0l-0.4,0.8c7.7,3.7,16.7,3.7,24.4,0L178.9,133.4z"/>
			<path class="st11" d="M168.4,141c0-0.4,0.2-0.8,0.6-1c0.4-0.3,0.9-0.4,1.4-0.4c1.1,0,1.9,0.6,1.9,1.4s-0.9,1.4-1.9,1.4
				c-0.5,0-1-0.1-1.4-0.4C168.6,141.7,168.4,141.4,168.4,141L168.4,141z"/>
			<path class="st3" d="M155.7,43.5v6c5.7,0.4,11.2,0.4,17,0.9c7.3,0.5,11.6,2.7,14.2,5.2c2.4,2.5,3.7,5.8,3.6,9.3
				c0,6.1-3.3,10.2-9,13s-13.8,3.8-22.1,2.5c-1.2-0.2-2.5-0.4-3.7-0.7v6.2c0.9,0.2,1.9,0.4,2.8,0.5c9.3,1.4,18.5,0.5,25.6-3
				s12.3-10,12.3-18.4c0.1-5-1.8-9.9-5.3-13.5c-3.8-3.8-9.7-6.4-18-7C166.9,43.8,161.3,43.8,155.7,43.5L155.7,43.5z"/>
			<path class="st3" d="M134.1,39.9l2,5.3l0.5,1.3c-5.3-0.7-10.5-1.8-15.6-3.4l-4.6-1.6l0.6,4.8c3.1,23.7,22.2,36.7,40.6,39.8V80
				c-14.7-2.8-29.2-12.4-33.6-29.8c5.5,1.7,11.2,2.6,17,2.6h4.3l-1.7-4.8c4.6,0.8,9.3,1.3,14,1.5v-6c-6.1-0.2-12.1-1-18-2.4
				L134.1,39.9z"/>
			<path class="st12" d="M138.9,44.1l2.1,5.7c-9.7,0-21.1-3.9-21.1-3.9c6,45.3,73.6,48.1,73.6,18.9c0-8.2-5-16.4-20.5-17.5
				C161.2,46.4,151.5,47.2,138.9,44.1L138.9,44.1z"/>
			<path class="st13" d="M138.9,44.1l2.1,5.7c-9.7,0-21.1-3.9-21.1-3.9c15.8,20.5,62.1,23.1,70.3,8.9c-3-3.9-8.5-6.8-17.3-7.5
				C161.2,46.4,151.5,47.2,138.9,44.1L138.9,44.1z"/>
			<path class="st14" d="M120,45.9c6,45.3,73.6,48.1,73.6,18.9c0-1.3-0.1-2.7-0.4-4C182.3,86.9,127.9,75.4,120,45.9L120,45.9z"/>
			<path class="st3" d="M155.7,45.7v1.5c5.7,0.4,11.2,0.4,17.2,0.8c7.6,0.6,12.6,2.8,15.6,5.9c2.8,2.9,4.3,6.8,4.2,10.9
				c0,7-4,12-10.2,15s-14.8,4-23.4,2.7c-1.1-0.2-2.3-0.4-3.4-0.6v1.5c1.1,0.2,2.1,0.4,3.1,0.6c8.9,1.4,17.7,0.4,24.3-2.8
				s11.1-8.8,11.1-16.4c0.1-4.4-1.6-8.7-4.6-12c-3.4-3.4-8.7-5.8-16.6-6.3C166.9,46.1,161.4,46,155.7,45.7L155.7,45.7z"/>
			<path class="st3" d="M137.7,43l0.5,1.3l1.7,4.7c-9.2-0.2-19.7-3.8-19.7-3.8l-1.2-0.4l0.2,1.2c3,22.5,20.9,34.7,38.4,37.8v-1.5
				c-16.6-3-33.4-14.4-36.7-35.3c1.7,0.6,11.1,3.7,20.1,3.6h1.1l-2-5.5c5.8,1.2,11.6,2,17.5,2.2v-1.5c-6.2-0.2-12.4-1-18.5-2.5
				L137.7,43z"/>
		</g>
	</g>
	<path style="clip-path:url(#SVGID_00000005250621910361473230000017061528797339458475_);fill:#9F313A;" d="M150.7,0.1h29h16V16
		c0,7,0,14,0,21c-10.2,12.4-28.5,14.2-41,4S140.5,12.5,150.7,0.1z"/>
	<g style="clip-path:url(#SVGID_00000005250621910361473230000017061528797339458475_);enable-background:new    ;">
		<text transform="matrix(1 0 0 1 159.72 31.85)" class="st6 st4 st18">25</text>
	</g>
</g>
</svg>
