<?xml version="1.0" encoding="utf-8"?>
<!-- Generator: Adobe Illustrator 26.0.3, SVG Export Plug-In . SVG Version: 6.00 Build 0)  -->
<svg version="1.1" id="Слой_1" xmlns="http://www.w3.org/2000/svg" xmlns:xlink="http://www.w3.org/1999/xlink" x="0px" y="0px"
	 viewBox="0 0 195.6 280.6" style="enable-background:new 0 0 195.6 280.6;" xml:space="preserve">
<style type="text/css">
	.st0{clip-path:url(#SVGID_00000148631079995906555770000002870273468341499293_);fill:#E94539;}
	.st1{clip-path:url(#SVGID_00000148631079995906555770000002870273468341499293_);fill:#2E74B3;stroke:#FFFFFF;}
	.st2{clip-path:url(#SVGID_00000148631079995906555770000002870273468341499293_);fill:#FFFFFF;stroke:#424242;}
	.st3{clip-path:url(#SVGID_00000148631079995906555770000002870273468341499293_);fill:#D49E63;stroke:#41382D;}
	.st4{clip-path:url(#SVGID_00000148631079995906555770000002870273468341499293_);fill:#FFFFFF;fill-opacity:0;stroke:#41382D;}
	
		.st5{clip-path:url(#SVGID_00000148631079995906555770000002870273468341499293_);fill:#F7E926;stroke:#41382D;stroke-width:1.05;stroke-opacity:0;}
	.st6{clip-path:url(#SVGID_00000148631079995906555770000002870273468341499293_);fill:#FFFFFF;stroke:#424242;stroke-width:0.99;}
	
		.st7{clip-path:url(#SVGID_00000148631079995906555770000002870273468341499293_);fill:#FFFFFF;fill-opacity:0;stroke:#41382D;stroke-width:0.6;}
	.st8{clip-path:url(#SVGID_00000148631079995906555770000002870273468341499293_);fill:#FFFFFF;stroke:#FFFFFF;}
	.st9{clip-path:url(#SVGID_00000148631079995906555770000002870273468341499293_);fill:#FFFFFF;stroke:#FFFFFF;stroke-width:0.98;}
	.st10{clip-path:url(#SVGID_00000148631079995906555770000002870273468341499293_);fill:none;stroke:#FFFFFF;stroke-width:1.35;}
	.st11{clip-path:url(#SVGID_00000148631079995906555770000002870273468341499293_);fill:none;stroke:#424242;stroke-width:0.5;}
	
		.st12{clip-path:url(#SVGID_00000148631079995906555770000002870273468341499293_);fill-rule:evenodd;clip-rule:evenodd;fill:#D7373D;}
	
		.st13{clip-path:url(#SVGID_00000148631079995906555770000002870273468341499293_);fill-rule:evenodd;clip-rule:evenodd;fill:#FBEA26;}
	
		.st14{clip-path:url(#SVGID_00000148631079995906555770000002870273468341499293_);fill-rule:evenodd;clip-rule:evenodd;fill:#E94539;}
	
		.st15{clip-path:url(#SVGID_00000148631079995906555770000002870273468341499293_);fill-rule:evenodd;clip-rule:evenodd;fill:#FFFFFF;}
	
		.st16{clip-path:url(#SVGID_00000148631079995906555770000002870273468341499293_);fill-rule:evenodd;clip-rule:evenodd;fill:url(#path104_00000005264807801630669650000015325655225983073686_);}
	
		.st17{clip-path:url(#SVGID_00000148631079995906555770000002870273468341499293_);fill-rule:evenodd;clip-rule:evenodd;fill:#222222;}
	
		.st18{clip-path:url(#SVGID_00000148631079995906555770000002870273468341499293_);fill-rule:evenodd;clip-rule:evenodd;fill:#FFFEFE;}
	
		.st19{clip-path:url(#SVGID_00000148631079995906555770000002870273468341499293_);fill-rule:evenodd;clip-rule:evenodd;fill:#367DB4;}
	.st20{clip-path:url(#SVGID_00000148631079995906555770000002870273468341499293_);fill:#FFFFFF;}
	.st21{clip-path:url(#SVGID_00000148631079995906555770000002870273468341499293_);enable-background:new    ;}
	.st22{fill:#E94539;}
	.st23{font-family:'Impact';}
	.st24{font-size:24.77px;}
	.st25{font-size:20px;}
</style>
<g>
	<defs>
		<rect id="SVGID_1_" x="0" y="0" width="195.6" height="280.6"/>
	</defs>
	<clipPath id="SVGID_00000047739778045347666850000003281162567980143804_">
		<use xlink:href="#SVGID_1_"  style="overflow:visible;"/>
	</clipPath>
	
		<rect x="-6.2" y="-8.4" style="clip-path:url(#SVGID_00000047739778045347666850000003281162567980143804_);fill:#E94539;" width="214" height="297.9"/>
	
		<path id="path5145" style="clip-path:url(#SVGID_00000047739778045347666850000003281162567980143804_);fill:#2E74B3;stroke:#FFFFFF;" d="
		M152.5,262.5v-31.6c-3.2-6.3-6.3-9.5-6.3-19s3.2-12.6,6.3-19c0-9.5,0-19-10-28.7c-12.1-15.6-38.7-9.2-45.4-25.1
		c-9.8,15.8-33.2,9.5-45.8,25.3c-9.5,9.5-9.5,19-9.5,28.5c3.2,6.3,6.3,9.5,6.3,19s-3.2,12.7-6.3,19v31.6c17.3,7.4,38,9.5,55.4,9.5
		C117.1,271.8,135.4,270.1,152.5,262.5z"/>
	
		<path id="path5113" style="clip-path:url(#SVGID_00000047739778045347666850000003281162567980143804_);fill:#FFFFFF;stroke:#424242;" d="
		M97.2,185.2l0.1-11h-3.8v11.1C94.7,185.4,96,186.4,97.2,185.2L97.2,185.2z"/>
	
		<path id="path5097" style="clip-path:url(#SVGID_00000047739778045347666850000003281162567980143804_);fill:#FFFFFF;stroke:#424242;" d="
		M108.4,165.8v-7.7h-3.5l0.2,7.7C106.2,165.9,107.3,165.9,108.4,165.8L108.4,165.8z"/>
	
		<path id="path5105" style="clip-path:url(#SVGID_00000047739778045347666850000003281162567980143804_);fill:#FFFFFF;stroke:#424242;" d="
		M82.3,170.2l-0.1-11.9l4.1-3.5v13.4c-1,0.1-4.3-2.5-4.1,1.9L82.3,170.2z"/>
	
		<path id="path5109" style="clip-path:url(#SVGID_00000047739778045347666850000003281162567980143804_);fill:#FFFFFF;stroke:#424242;" d="
		M86.2,184.8l0.1-5.3l-4.1-0.1l-0.1,5.8v1.2c0.2,1.3,0.9,2.5,1.9,3.4c1.1-0.8,1.8-2,2.2-3.3L86.2,184.8z"/>
	
		<path id="path2987" style="clip-path:url(#SVGID_00000047739778045347666850000003281162567980143804_);fill:#D49E63;stroke:#41382D;" d="
		M133.8,192.2l-14,0.2c-0.9-0.4-2.5,3.9-3.8,3.7c-2.3-0.1-4.6,0.2-6.8,0.9l-8.8,4c-2.8,1-7.2,0.6-10.6,0.9c-0.8-0.2-4.3,1.3-8.1,4
		c-1,0.2-1.8,0.9-3.1,0c-0.5-1.8-1.4-3.5-2.6-5c-1.6-1.9-3.7-3.5-5.9-4.6c-2.1-0.8-4.2-1.5-6.4-2c-1.7-0.3-3.3,0.1-4.7-0.5
		c-1.4-0.7-4.4-5-5.6-7.6c-0.1-2.3-0.1-3.5,0-5.5c-0.1-2-1.1-3.8-2.6-5l-2.2,3.5c0.1,1,0.4,1.9,0.9,2.7c0.4,0.5,0,1.1,0.1,2
		c-0.1,0.9,0,1.8,0.4,2.6l1.8,3.8l2.5,3.8c1.5,2.7-1.2,1.6-1.6,0.4c-1.3-1.4-2.2-3.1-2.6-4.9c-0.2-1.6,0.1-4.1-0.9-5.4
		s-1.8-3.4-3.3-3.5l-0.8,5.5c-0.1,0.4,1.9,1.9,1.9,2.9c-0.9,1-1.5,2.2-1.1,2.7c2.3,3.8,5,7.8,5.9,8.4c1.5,0.7,3.4,0.5,5.2,0.6
		c1.7,0.3,3.2,1.3,4,2.8c0.7,1.1,1.3,2.3,1.8,3.5c0.7,2.6,0.6,5.1,2.8,7.8l0.8,0.8c2.6,2-0.6,0.3-1.5,0.3c-2.2,0,3.7,4.9,5.7,4.7
		c2.9,0.1,5.8,0,8.8-0.3L87,220c3.1-0.4,6.2-0.5,9.3-0.2l8.3,1.1c2.3,0.6,4.7,0.8,7.1,0.5c1.8-0.1,5.7-3.4,5.6-1.6
		c-1.2,1.6-2.3,3.3-2.5,5.4c-0.3,2.4-0.1,4.7,0.7,7c-0.9-0.1-2.2-1-2.2,0.4c0.1,1.6,1,3.2,2.3,4.1c2.6,3-3.5-2-5.7-3.3
		c-3-3-5.7-5.9-8.6-8.7l-2.3-1.7c-1.8,0,0.3,3-0.8,2.2c-0.9-0.8-1.3-2.1-2.9-2.4c-1.3-0.4-2.7-0.6-4.1-0.4c-1.5,0.4-3.1,0.7-4,1.9
		c-0.6,0.6-1.5,1.9,1,1.1l1.8-0.3c1.3-0.1,2.7,0.1,3.9,0.5c0.6,0.3,1.2,0.7,1.6,1.2c-0.4,0.8-1.1,1.4-1.8,1.8
		c-1.8,0.8-1.6,0.2-4.3,0.7c-0.2,0.5,2.3,1.7,4.4,1c1.1-0.4,2.2-1,3.2-1.7c0.4-0.3,0.9-0.3,1.3-0.2c1.8,0.3,2.8,1.3,4.1,2.5
		c1.3,0.8-2.3,0.5-4.5,1.5c-0.3,1,0.8,2,1.6,2c1.6,0.1,3.8-0.1,4.6-0.6c1-0.7,5,2.6,3.6,2.8l-1.4,0.8c-2.7,0.1-2.8,1.8,1,2.4
		c1.2,0.2,2.4-0.9,3.7-1.2c1.2,0.1,2.3,0.5,3.3,1c0.8,0.4,1.9,0.9,2.2,1.7c0.3,0.6,0.4,1.3,0.3,2c-0.2,0.8-1.2,1.8-3,2.7
		c-1.1,0.6-2.4,0.9-3.7,0.7l-7.3-0.6c-2.9,0-4.9,1.2-7,1.9l-4.4,0.4c-1.6,0.3-2.9,1.3-3.8,2.6c-1.5,1.8-1.7,6.2-0.1,3.8
		c0.7-0.5,1.9-1.8,2.5-2.3c1.3-0.9,1.6-0.9,3.2-0.6c2.5,1.3-4.5,4.3-2.3,4.7c1.1-0.1,2.1-0.4,3.1-1c1.6-0.6,2.8-1.8,3.4-3.4
		c-0.1-1.2,0.9-2.5,1.8-2.5l2.3,0.2c0.9,0.2,0.1,2.7-2.3,4c-0.9,0.4-0.6,1.3,0.7,1.2c1.1-0.3,2.1-0.8,2.9-1.6l3-3.7
		c0.4-0.3,0.8-0.5,1.3-0.5l3.1,0.8c1.5,0.7-0.2,1.5-1.1,2.7c-1,1,0.4,1.2,1.6,0.6c0.9-1,2.1-1.3,3-2.3c0.8-0.4,0.8-1.5,1.9-2.1
		c0.8-0.3,1.6-0.8,2.2-1.5c0.7-0.6,1.3-1.4,1.7-2.3c0.7-1,1.5,2.4,3.5,2.8c2.8,0.5,2.6-0.2,2-1l-0.8-1c-0.6-0.7-1.3-1.7,0.6-2.2
		l1.9-0.6c1.6-0.8,1.6-1.8,2.5-2.7c1-0.8,2.1-1.4,3.3-2l2.8-1.2c1.5-0.6,0.2-2.3-1.8-2.4c-1.9,0.1-1.9,0.2-0.5-0.3
		c1.8-0.7,0.1-1.3-1.1-1.5c-0.6-0.1-1.4,0.4-1.8,0.6c-1,0.3-2,0.3-3,0.1c-1.3-0.3-3.1-0.4-1.9-1.5l1.9-2.5c1.2-1.8,0.9-3.6,1-5.4
		c0.8-1.8,2.5-2.6,3.4-3.9c1.4-1.4,2.8-7.8,1.2-11.4c-0.4-1.4-2.5-4.1-1.6-4.3c1.4-0.4,2.8-1,4-1.7c0.8-0.6,1.8-1,2.8-1.1
		c1.1-0.1,2.2-0.3,3.2-0.8c1.9-0.9,2.2-1.7,2.3-2.5c0.2-2.6,0.7-5.2,1.5-7.7c0.6-1,1.2-2,1.9-2.8c1.1-2.8,0.9-6.5,0.9-8.2
		c-0.4-0.6-1.1-0.6-1.8,0.3l-2.6,3.4c-0.6,0.4,0,2-0.1,2.7c-0.4,0.8-0.9,1.4-1.6,1.9l-0.7,4.7c-0.1,1.3-0.6,2.6-1.4,3.7
		c-1.6,1.1-3.4,1.8-5.3,2.2c-7.1,2.3-10.7,0.6-7.8-0.3l4-1.1c0.9-0.3,2.2-0.5,3.6-0.8l2.4-0.3c2.9-0.6,2.6-2.5,2.9-3.9
		c0.2-1.4,0.6-2.7,1-4l2.2-6.1l1.2-3.1c0.5-1.4,0.2-2.6-1.2-2.5c-0.8,0-1.6,0.2-2.2,0.6c-1,0.4-1.7,1.2-2,2.2
		c0.4,3.6-1.2,1.9-0.9,3.8c-0.2,1.8-0.5,4.5-0.6,5.4C137.1,190.1,135.2,192.2,133.8,192.2L133.8,192.2z"/>
	
		<path id="path2995" style="clip-path:url(#SVGID_00000047739778045347666850000003281162567980143804_);fill:#FFFFFF;fill-opacity:0;stroke:#41382D;" d="
		M79.6,206.4c-0.4,1-1.9,0.2-2.4-0.2l-2.3-2.4c-1.6-1.3-3.2-2.6-4.9-3.7c-1.7-0.9-3.6-1.7-5.5-2.1c-1.5-0.3-3.6-1.1-5.2-0.7
		c-1.7,0-3.8-0.2-4.7-1.1"/>
	
		<path id="path5069" style="clip-path:url(#SVGID_00000047739778045347666850000003281162567980143804_);fill:#FFFFFF;stroke:#424242;" d="
		M105.2,173.9l-0.1-2.8c-6.4,0.2-12.5,0.4-18.9,0.6l-0.3,2.6c2.9,0,6,0.1,9.2,0S101.9,174.1,105.2,173.9L105.2,173.9z"/>
	
		<path id="path2997" style="clip-path:url(#SVGID_00000047739778045347666850000003281162567980143804_);fill:#FFFFFF;fill-opacity:0;stroke:#41382D;" d="
		M119.8,215c0.7-1.2,1-2.6,0.8-4"/>
	
		<path id="path2999" style="clip-path:url(#SVGID_00000047739778045347666850000003281162567980143804_);fill:#FFFFFF;fill-opacity:0;stroke:#41382D;" d="
		M118.2,214.9c0.4-1,1.2-2.7,1-3.9"/>
	
		<path id="path3001" style="clip-path:url(#SVGID_00000047739778045347666850000003281162567980143804_);fill:#FFFFFF;fill-opacity:0;stroke:#41382D;" d="
		M85.9,206.3c0.1,0.7-1,1-0.6,2"/>
	
		<path id="path3003" style="clip-path:url(#SVGID_00000047739778045347666850000003281162567980143804_);fill:#FFFFFF;fill-opacity:0;stroke:#41382D;" d="
		M84.1,207.3c0.2,0.7-0.9,1-0.6,1.8"/>
	
		<path id="path3005" style="clip-path:url(#SVGID_00000047739778045347666850000003281162567980143804_);fill:#FFFFFF;fill-opacity:0;stroke:#41382D;" d="
		M82.2,208c0.2,0.7-0.8,1.1-0.6,1.6"/>
	
		<path id="path3007" style="clip-path:url(#SVGID_00000047739778045347666850000003281162567980143804_);fill:#FFFFFF;fill-opacity:0;stroke:#41382D;" d="
		M80.5,208.1c0,0.9-1.3,0.9-1.1,1.8"/>
	
		<path id="path3009" style="clip-path:url(#SVGID_00000047739778045347666850000003281162567980143804_);fill:#FFFFFF;fill-opacity:0;stroke:#41382D;" d="
		M71.5,201.2c-1.6,0.2-4.4-0.1-4.7,0.6"/>
	
		<path id="path3011" style="clip-path:url(#SVGID_00000047739778045347666850000003281162567980143804_);fill:#FFFFFF;fill-opacity:0;stroke:#41382D;" d="
		M69.4,200c-1.5,0.1-3.1,0.3-4.6,0.7"/>
	
		<path id="path3013" style="clip-path:url(#SVGID_00000047739778045347666850000003281162567980143804_);fill:#FFFFFF;fill-opacity:0;stroke:#41382D;" d="
		M66.5,198.5c-1.2,0.8-2.6,1.4-4,1.6"/>
	
		<path id="path3015" style="clip-path:url(#SVGID_00000047739778045347666850000003281162567980143804_);fill:#FFFFFF;fill-opacity:0;stroke:#41382D;" d="
		M63.5,197.6c0.3,0.5-2.4,0.9-2.5,1.9"/>
	
		<path id="path3019" style="clip-path:url(#SVGID_00000047739778045347666850000003281162567980143804_);fill:#FFFFFF;fill-opacity:0;stroke:#41382D;" d="
		M118.3,238.2c-0.3-1.5,0.2-3.1-1.2-4.4c-0.7-0.7-1.5-1.3-2.3-1.8"/>
	
		<path id="path3021" style="clip-path:url(#SVGID_00000047739778045347666850000003281162567980143804_);fill:#FFFFFF;fill-opacity:0;stroke:#41382D;" d="
		M119.3,221.2c-1.2,1.2-2.2,2.6-2.9,4.2c-0.4,1.5-0.5,3.4,0.3,4.6"/>
	
		<path id="path3023" style="clip-path:url(#SVGID_00000047739778045347666850000003281162567980143804_);fill:#FFFFFF;fill-opacity:0;stroke:#41382D;" d="
		M118.9,221.6c-0.5,1.2-1.4,2.3-0.6,4"/>
	
		<path id="path3025" style="clip-path:url(#SVGID_00000047739778045347666850000003281162567980143804_);fill:#FFFFFF;fill-opacity:0;stroke:#41382D;" d="
		M122.4,243c-0.9-0.9-1.7-1.9-2.3-3.1"/>
	
		<path id="path3027" style="clip-path:url(#SVGID_00000047739778045347666850000003281162567980143804_);fill:#FFFFFF;fill-opacity:0;stroke:#41382D;" d="
		M123.1,241.9c-0.8-0.7-1.4-1.5-1.8-2.5"/>
	
		<path id="path3029" style="clip-path:url(#SVGID_00000047739778045347666850000003281162567980143804_);fill:#FFFFFF;fill-opacity:0;stroke:#41382D;" d="
		M124,234.7c0,0.8-0.8,1.2-1.1,1.8"/>
	
		<path id="path3031" style="clip-path:url(#SVGID_00000047739778045347666850000003281162567980143804_);fill:#FFFFFF;fill-opacity:0;stroke:#41382D;" d="
		M120.9,234.9c0.3,0.6-0.2,1.3-0.7,1.9"/>
	
		<path id="path3033" style="clip-path:url(#SVGID_00000047739778045347666850000003281162567980143804_);fill:#FFFFFF;fill-opacity:0;stroke:#41382D;" d="
		M122.6,234.6c-0.1,0.7-0.4,1.4-1,1.9"/>
	
		<path id="path3035" style="clip-path:url(#SVGID_00000047739778045347666850000003281162567980143804_);fill:#FFFFFF;fill-opacity:0;stroke:#41382D;" d="
		M119.4,235.2c0.5,0.9-0.2,1.6-0.6,2.1"/>
	
		<path id="path3037" style="clip-path:url(#SVGID_00000047739778045347666850000003281162567980143804_);fill:#FFFFFF;fill-opacity:0;stroke:#41382D;" d="
		M125.6,234.1c-0.2,0.9-0.7,1.7-1.5,2.2"/>
	
		<path id="path3039" style="clip-path:url(#SVGID_00000047739778045347666850000003281162567980143804_);fill:#FFFFFF;fill-opacity:0;stroke:#41382D;" d="
		M109.3,198.6c0.1,1.1-1.8,1.1-1.5,3.4"/>
	
		<path id="path3041" style="clip-path:url(#SVGID_00000047739778045347666850000003281162567980143804_);fill:#FFFFFF;fill-opacity:0;stroke:#41382D;" d="
		M107.2,199.1c0.1,1.2-1.3,1.4-1.3,3.5"/>
	
		<path id="path3043" style="clip-path:url(#SVGID_00000047739778045347666850000003281162567980143804_);fill:#FFFFFF;fill-opacity:0;stroke:#41382D;" d="
		M105.3,199.9c-0.4,1.3-1.5,1.4-1.4,2.9"/>
	
		<path id="path3045" style="clip-path:url(#SVGID_00000047739778045347666850000003281162567980143804_);fill:#FFFFFF;fill-opacity:0;stroke:#41382D;" d="
		M102.8,201.4c0,0.9-0.8,1.5-1,2.5"/>
	
		<path id="path3049" style="clip-path:url(#SVGID_00000047739778045347666850000003281162567980143804_);fill:#FFFFFF;fill-opacity:0;stroke:#41382D;" d="
		M124.5,215.2c0.5-1.4,0.5-2.9-0.1-4.2"/>
	
		<path id="path3053" style="clip-path:url(#SVGID_00000047739778045347666850000003281162567980143804_);fill:#FFFFFF;fill-opacity:0;stroke:#41382D;" d="
		M123.4,215.4c-0.1-0.9-0.2-1.7-0.4-2.6"/>
	
		<path id="path3055" style="clip-path:url(#SVGID_00000047739778045347666850000003281162567980143804_);fill:#FFFFFF;fill-opacity:0;stroke:#41382D;" d="
		M120.1,219.9c1-1.2,3.6-2.9,3.3-4.4"/>
	
		<path id="path3051" style="clip-path:url(#SVGID_00000047739778045347666850000003281162567980143804_);fill:#FFFFFF;fill-opacity:0;stroke:#41382D;" d="
		M121,219c0.5-1.3,1.3-2.3,1.1-4.2"/>
	
		<path id="path3065" style="clip-path:url(#SVGID_00000047739778045347666850000003281162567980143804_);fill:#FFFFFF;fill-opacity:0;stroke:#41382D;" d="
		M131.1,205.4l-4.8-5.4"/>
	
		<path id="path3067" style="clip-path:url(#SVGID_00000047739778045347666850000003281162567980143804_);fill:#FFFFFF;fill-opacity:0;stroke:#41382D;" d="
		M101.1,202.1c0.3,0.7-1.2,1.2-1.2,2.4"/>
	
		<path id="path3069" style="clip-path:url(#SVGID_00000047739778045347666850000003281162567980143804_);fill:#FFFFFF;fill-opacity:0;stroke:#41382D;" d="
		M99,202.7c0.3,0.7-1,1.3-1,2.3"/>
	
		<path id="path3071" style="clip-path:url(#SVGID_00000047739778045347666850000003281162567980143804_);fill:#FFFFFF;fill-opacity:0;stroke:#41382D;" d="
		M113.8,218.2c0,1-1.3,1.1-1.5,2.3"/>
	
		<path id="path3073" style="clip-path:url(#SVGID_00000047739778045347666850000003281162567980143804_);fill:#FFFFFF;fill-opacity:0;stroke:#41382D;" d="
		M111.7,218.6c0,0.8-0.2,1.3-1.3,1.9"/>
	
		<path id="path3075" style="clip-path:url(#SVGID_00000047739778045347666850000003281162567980143804_);fill:#FFFFFF;fill-opacity:0;stroke:#41382D;" d="
		M108,218.4c0,0.7-0.4,1.2-1.1,1.4"/>
	
		<path id="path3077" style="clip-path:url(#SVGID_00000047739778045347666850000003281162567980143804_);fill:#FFFFFF;fill-opacity:0;stroke:#41382D;" d="
		M110.1,218.6c-0.1,0.7-0.5,1.4-1.1,1.8"/>
	
		<path id="path3079" style="clip-path:url(#SVGID_00000047739778045347666850000003281162567980143804_);fill:#FFFFFF;fill-opacity:0;stroke:#41382D;" d="
		M126.3,198.8c-1.9,0.5-1.1,0-4.5,0.5"/>
	
		<path id="path3081" style="clip-path:url(#SVGID_00000047739778045347666850000003281162567980143804_);fill:#FFFFFF;fill-opacity:0;stroke:#41382D;" d="
		M123.8,201.7c0.3-0.8,0.4-1.8,0.3-2.6"/>
	
		<path id="path3083" style="clip-path:url(#SVGID_00000047739778045347666850000003281162567980143804_);fill:#FFFFFF;fill-opacity:0;stroke:#41382D;" d="
		M122.4,204.1c0.3-1.5,0.3-3.1,0.1-4.6"/>
	
		<path id="path3085" style="clip-path:url(#SVGID_00000047739778045347666850000003281162567980143804_);fill:#FFFFFF;fill-opacity:0;stroke:#41382D;" d="
		M116.8,197.7c-0.3,0.4-1.3,1.2-1.2,2.2c1.2,2.8,1,2.7,1.1,3.9"/>
	
		<path id="path3087-1" style="clip-path:url(#SVGID_00000047739778045347666850000003281162567980143804_);fill:#F7E926;stroke:#41382D;stroke-width:1.05;stroke-opacity:0;" d="
		M96.4,243.1l-0.2,3.4l-3.2-0.2l0.2-3.4c-1.5-0.1,6.4,0.5-3.2-0.2l0.2-3.4l3.2,0.2l0.2-3.4l3.2,0.2l-0.2,3.4l18.7,1.3
		c1.8,0.2,1.5,3.3,0.2,3.2"/>
	
		<path id="path5065" style="clip-path:url(#SVGID_00000047739778045347666850000003281162567980143804_);fill:#FFFFFF;stroke:#424242;" d="
		M115.8,168.5l6.9-3.3c-5.9,0.3-24.2,1.2-30.1,1.1l-1.9,2.8C97.2,169.2,109.7,169.2,115.8,168.5z"/>
	
		<path id="path5067" style="clip-path:url(#SVGID_00000047739778045347666850000003281162567980143804_);fill:#FFFFFF;stroke:#424242;" d="
		M115.9,155.1c-5,0-14.9,0.1-24.6,0.1l5.8,3c6.6,0.1,12.8,0,18.8-0.1C116.1,157.1,116,156.1,115.9,155.1L115.9,155.1z"/>
	
		<path id="path5071" style="clip-path:url(#SVGID_00000047739778045347666850000003281162567980143804_);fill:#FFFFFF;stroke:#424242;" d="
		M93.4,179.8v-3c-6.2-0.1-12.5-0.2-19-0.6l-0.1,2.8C81.4,179.5,87.3,179.7,93.4,179.8L93.4,179.8z"/>
	
		<path id="path5119" style="clip-path:url(#SVGID_00000047739778045347666850000003281162567980143804_);fill:#FFFFFF;stroke:#424242;" d="
		M74.4,180.8v-6.4h-3.2v6.3L74.4,180.8z"/>
	
		<path id="path5079" style="clip-path:url(#SVGID_00000047739778045347666850000003281162567980143804_);fill:#FFFFFF;stroke:#424242;" d="
		M93.4,158.1l-0.1-2.9l-19,0.2v2.7H93.4z"/>
	
		<path id="path5143" style="clip-path:url(#SVGID_00000047739778045347666850000003281162567980143804_);fill:#FFFFFF;stroke:#424242;" d="
		M74.3,160.4l-0.1-8.3l-3.2,0.9v7.5L74.3,160.4z"/>
	
		<path id="path5123" style="clip-path:url(#SVGID_00000047739778045347666850000003281162567980143804_);fill:#FFFFFF;stroke:#424242;" d="
		M74.4,171.6l-0.1-9.4h-3.1l-0.1,9.4L74.4,171.6z"/>
	
		<path id="path5117" style="clip-path:url(#SVGID_00000047739778045347666850000003281162567980143804_);fill:#FFFFFF;stroke:#424242;" d="
		M82.1,171.7c-5.3-0.1-11.8-0.1-17.5-0.1l-0.1-2.6c5.8,0.2,7.9,0,9,0.1l2.4-2.8c-3.1,0-9.5,0-11.3-0.2v-2.8c9.4-0.1,11.8,0,17.5,0.1
		v-2.9c-4-0.1-11.8,0.1-17.6-0.3l-0.1-2c0.4,0,0.7,0,1.1,0c2.3,0.1,3.8,0,4.7,0c1.8,0.1,0.9-0.4,1-3l-6.1,0.1
		c-1.4,0.1-2.7,0.6-3.8,1.3c-0.3,4.2,0.2,19.4,0.6,26.6c0.1,2.3,0.2,3.8,0.2,3.7c1.3-0.4,2.1-2,2.5-3.4c6.7,0.4,11.5,0.7,17.5,1V181
		c-5.8-0.3-11.2-0.6-17.3-1.1v-1.6l6.4,0.3v-2.7l-6.4-0.3v-1.6c6.1,0.2,22.2,0.2,23.5,0.1c0-1,6.4-1.8,6.4-2.8L82.1,171.7z"/>
	
		<path id="path5107" style="clip-path:url(#SVGID_00000047739778045347666850000003281162567980143804_);fill:#FFFFFF;stroke:#424242;stroke-width:0.99;" d="
		M86.4,176.6l-0.1-10.5l-4.1,3.1v7.3L86.4,176.6z"/>
	
		<path id="path5141" style="clip-path:url(#SVGID_00000047739778045347666850000003281162567980143804_);fill:#FFFFFF;stroke:#424242;" d="
		M97.3,164.3l-0.1-14.5l-3.8,3v7.5L97.3,164.3z"/>
	
		<path id="path5077" style="clip-path:url(#SVGID_00000047739778045347666850000003281162567980143804_);fill:#FFFFFF;stroke:#424242;" d="
		M93.5,168.1l-0.1-1.9c-6.1,0.2-13,0-19.1,0v2.8c5.6,0.2,13.7,0.3,19.2,0.1L93.5,168.1z"/>
	
		<path id="path5115" style="clip-path:url(#SVGID_00000047739778045347666850000003281162567980143804_);fill:#FFFFFF;stroke:#424242;" d="
		M97.3,171.4v-8h-3.8v8.1C94.7,171.5,96,171.4,97.3,171.4z"/>
	
		<path id="path5081" style="clip-path:url(#SVGID_00000047739778045347666850000003281162567980143804_);fill:#FFFFFF;stroke:#424242;" d="
		M104.9,163.4v-3l-18.6-0.1v3.1H104.9z"/>
	
		<path id="path5091" style="clip-path:url(#SVGID_00000047739778045347666850000003281162567980143804_);fill:#FFFFFF;stroke:#424242;" d="
		M119.9,160.3l0.1-7.8l-4-1.4l0.1,13.2L119.9,160.3z"/>
	
		<path id="path5093" style="clip-path:url(#SVGID_00000047739778045347666850000003281162567980143804_);fill:#FFFFFF;stroke:#424242;" d="
		M119.9,170.3l-0.1-7h-3.7l0.1,12.1C117.7,175.5,118.6,170.4,119.9,170.3z"/>
	
		<path id="path5089" style="clip-path:url(#SVGID_00000047739778045347666850000003281162567980143804_);fill:#FFFFFF;stroke:#424242;" d="
		M116.2,178.9v1.4c-1.7,0.2-5,0.9-7.7,1v2.8c2.5-0.2,5.4-0.8,8-1.2c0.2,1.4,1,2.5,2.2,3.3c1-1.1,1.6-2.6,1.4-4.1
		c2.7-0.2,5.4-0.7,8-1.3c0.1,1.2,0.7,2.3,1.5,3.1c1-0.8,1.7-2,1.9-3.2l0.3-24l-4.3-1.8l-7.6,0.3v2.9l8.3-0.1v2
		c-6,0.5-13.6,0.4-19.9,0.6v2.9c6.6-0.1,13.4-0.1,20-0.6v1.8c-2.8,0.4-5.8,0.7-8.5,0.9v2.8c2.9-0.1,5.7-0.4,8.5-0.8v1.8
		c-1.2,0.6-16.6,1.9-23.1,2l0.2,2.6c6.5-0.3,16.6-0.6,22.9-1.9v1.8c-2.7,0.6-5.4,1.1-8.2,1.5v2.7c2.8-0.3,5.5-0.9,8.1-1.7v2
		c-2.7,0.7-5.4,1.2-8.1,1.4l-0.1-6.6l-3.8,0.2L116.2,178.9z"/>
	
		<path id="path5087" style="clip-path:url(#SVGID_00000047739778045347666850000003281162567980143804_);fill:#FFFFFF;stroke:#424242;" d="
		M108.5,179.3l0.1,6.3c0.1,1.3-0.3,2.7-1.3,3.7c-1.3-0.7-2-2.1-1.9-3.6v-6.4"/>
	
		<path id="path5095" style="clip-path:url(#SVGID_00000047739778045347666850000003281162567980143804_);fill:#FFFFFF;stroke:#424242;" d="
		M108.4,176.4V169l-3.2,0.1l0.1,7.9L108.4,176.4z"/>
	
		<path id="path5133" style="clip-path:url(#SVGID_00000047739778045347666850000003281162567980143804_);fill:#FFFFFF;stroke:#424242;" d="
		M106.1,147.9c-2.5,0.1-6.5,0-9-0.1l0.1-1.9l5.4,0.1L106.1,147.9z"/>
	
		<path id="path5103" style="clip-path:url(#SVGID_00000047739778045347666850000003281162567980143804_);fill:#FFFFFF;stroke:#424242;" d="
		M118.3,152.1c-3.3,0.5-6.7,0.8-10,0.9c0-1-5.7-2.1-5.6-2.6c1,0,5.8,0,9-0.1c1,0,1.9,0.1,2.8,0.4C117,151.5,119.9,152.1,118.3,152.1
		L118.3,152.1z"/>
	
		<path id="path5083" style="clip-path:url(#SVGID_00000047739778045347666850000003281162567980143804_);fill:#FFFFFF;stroke:#424242;" d="
		M109.9,152.7l-0.6-2.3c-6.2,0.1-17.1-0.1-23-0.5l0.1,2.7C104.5,153.6,108.3,153,109.9,152.7z"/>
	
		<path id="path5101" style="clip-path:url(#SVGID_00000047739778045347666850000003281162567980143804_);fill:#FFFFFF;stroke:#424242;" d="
		M108.2,155.1l0.1-6.2l-3.7-1.8l0.2,7.9L108.2,155.1z"/>
	
		<path id="path5111" style="clip-path:url(#SVGID_00000047739778045347666850000003281162567980143804_);fill:#FFFFFF;stroke:#424242;" d="
		M97.1,184.8h-3.8v2.6c-0.1,1.7,0.6,3.4,1.9,4.5c1.3-1.2,2.1-2.9,2-4.7L97.1,184.8z"/>
	
		<path id="path5085" style="clip-path:url(#SVGID_00000047739778045347666850000003281162567980143804_);fill:#FFFFFF;stroke:#424242;" d="
		M105.3,184.6l0.1-3.1c-6.4,0.5-12.7,0.5-19.1,0v3.1C92.6,185.2,99,185.2,105.3,184.6L105.3,184.6z"/>
	
		<path id="path5063" style="clip-path:url(#SVGID_00000047739778045347666850000003281162567980143804_);fill:#FFFFFF;stroke:#424242;" d="
		M116.2,178.5l-0.1-2.7c-6.3,0.7-12.5,1-18.8,1v2.9c3.4,0,7.3-0.1,10.3-0.4C110.2,179.1,114.6,178.8,116.2,178.5z"/>
	
		<path id="path5121" style="clip-path:url(#SVGID_00000047739778045347666850000003281162567980143804_);fill:#FFFFFF;stroke:#424242;" d="
		M74.6,184.1l-3.5-0.2c-0.1,1.8,0.5,3.7,1.7,5.1C73.9,187.6,74.5,185.9,74.6,184.1z"/>
	
		<path id="path5125" style="clip-path:url(#SVGID_00000047739778045347666850000003281162567980143804_);fill:#FFFFFF;stroke:#424242;" d="
		M82,155.1V150l4.4-1.9l-0.1,7C84.9,155.2,83.5,155.2,82,155.1L82,155.1z"/>
	
		<path id="path5131" style="clip-path:url(#SVGID_00000047739778045347666850000003281162567980143804_);fill:#FFFFFF;stroke:#424242;" d="
		M97.2,150.4v-6.8l-3.8,0.1v6.5L97.2,150.4z"/>
	
		<path id="path5129" style="clip-path:url(#SVGID_00000047739778045347666850000003281162567980143804_);fill:#FFFFFF;stroke:#424242;" d="
		M82,150l-7,1.9c2.5-0.1,4.9,0.3,7,0.3C82.1,151.5,82.1,150.7,82,150z"/>
	
		<path id="path3068" style="clip-path:url(#SVGID_00000047739778045347666850000003281162567980143804_);fill:#FFFFFF;fill-opacity:0;stroke:#41382D;" d="
		M127.8,239.1c-0.6,0.4-1.2,0.6-1.8,0.8c-0.7,0.2-1.4,0.6-1.8,0.4s-0.9-1.1,0.3-1.6c0.4-0.2,0.8-0.1,1.4,0
		C126.7,238.9,128,238.8,127.8,239.1z"/>
	
		<path id="path3840-1" style="clip-path:url(#SVGID_00000047739778045347666850000003281162567980143804_);fill:#FFFFFF;fill-opacity:0;stroke:#41382D;" d="
		M126.4,239.5c0.6-0.1,0.9-0.8-0.1-0.5S125.8,239.7,126.4,239.5z"/>
	
		<path id="path3860" style="clip-path:url(#SVGID_00000047739778045347666850000003281162567980143804_);fill:#FFFFFF;fill-opacity:0;stroke:#41382D;" d="
		M116.2,200.9c0.5-0.9,1.1-1.7,1.8-2.3"/>
	
		<path id="path3862" style="clip-path:url(#SVGID_00000047739778045347666850000003281162567980143804_);fill:#FFFFFF;fill-opacity:0;stroke:#41382D;stroke-width:0.6;" d="
		M78.4,205.4c0.2,1,1.1,1,1.7,1.1"/>
	
		<path id="path3849-4" style="clip-path:url(#SVGID_00000047739778045347666850000003281162567980143804_);fill:#FFFFFF;stroke:#FFFFFF;" d="
		M102,157.6h-4.2v-1.7c0.9,0.1,3-0.1,4,0L102,157.6z"/>
	
		<path id="path3849-0" style="clip-path:url(#SVGID_00000047739778045347666850000003281162567980143804_);fill:#FFFFFF;stroke:#FFFFFF;stroke-width:0.98;" d="
		M97.9,168.4h3.3l0.4-1.6c-0.8,0-2.8,0.1-3.8,0.1C97.9,167.4,97.9,167.9,97.9,168.4L97.9,168.4z"/>
	
		<path id="path3849-48" style="clip-path:url(#SVGID_00000047739778045347666850000003281162567980143804_);fill:#FFFFFF;stroke:#FFFFFF;" d="
		M75.2,168.3h-3.4l0.4-1.3c0.9,0,1.8,0,2.9,0L75.2,168.3z"/>
	
		<path id="path3849-8" style="clip-path:url(#SVGID_00000047739778045347666850000003281162567980143804_);fill:#FFFFFF;stroke:#FFFFFF;" d="
		M91.4,173.4c-1.1,0.3-2.3,0.4-3.5,0.3l0.8-1.4c0.9,0,5.7-0.2,6.8-0.3L91.4,173.4z"/>
	
		<path id="path5123-5" style="clip-path:url(#SVGID_00000047739778045347666850000003281162567980143804_);fill:#FFFFFF;stroke:#424242;" d="
		M74.4,171.6l-0.1-8.3h-3.1v8.3H74.4z"/>
	
		<path id="path5143-1" style="clip-path:url(#SVGID_00000047739778045347666850000003281162567980143804_);fill:#FFFFFF;stroke:#424242;" d="
		M74.4,160.4V152l-3.2,0.9c0,2.5-0.1,5,0,7.4L74.4,160.4z"/>
	
		<path id="path3982" style="clip-path:url(#SVGID_00000047739778045347666850000003281162567980143804_);fill:#FFFFFF;stroke:#FFFFFF;" d="
		M111.2,152.2c-0.5,0.1-0.8,0.1-1.3,0.1s-0.8,0-1.1,0V151h1c0.6,0,1.1,0.1,1.6,0.3L111.2,152.2z"/>
	
		<path id="path3865-7" style="clip-path:url(#SVGID_00000047739778045347666850000003281162567980143804_);fill:none;stroke:#FFFFFF;stroke-width:1.35;" d="
		M79.6,157c-0.8,0-1.7,0-2.6,0"/>
	
		<path id="path3903" style="clip-path:url(#SVGID_00000047739778045347666850000003281162567980143804_);fill:none;stroke:#424242;stroke-width:0.5;" d="
		M78.2,157.9h-1"/>
	
		<path id="path74" style="clip-path:url(#SVGID_00000047739778045347666850000003281162567980143804_);fill-rule:evenodd;clip-rule:evenodd;fill:#D7373D;" d="
		M57.3,0.7c-2.7,0.9-5.2,2.3-7.5,4c-0.3,3,0.6,4.9,3.9,4.5L59.8,6C58,4.3,57,2.5,57.3,0.7"/>
	
		<path id="path76" style="clip-path:url(#SVGID_00000047739778045347666850000003281162567980143804_);fill-rule:evenodd;clip-rule:evenodd;fill:#D7373D;" d="
		M135.8,0.2c2.7,0.9,5.3,2.2,7.6,3.9c0.3,3-0.6,4.9-3.9,4.6l-6.2-3.1C135.1,3.9,136.1,2,135.8,0.2"/>
	
		<path id="path78" style="clip-path:url(#SVGID_00000047739778045347666850000003281162567980143804_);fill-rule:evenodd;clip-rule:evenodd;fill:#D7373D;" d="
		M68.2-2.4c-3.2,0.4-6.4,1.2-9.5,2.3C57,2.1,60,4.6,61.2,5.8l8.7-2.3C68.1,2,67.5-0.3,68.2-2.4"/>
	
		<path id="path80" style="clip-path:url(#SVGID_00000047739778045347666850000003281162567980143804_);fill-rule:evenodd;clip-rule:evenodd;fill:#D7373D;" d="
		M124.9-2.8c3.3,0.4,6.5,1.1,9.5,2.2c1.6,2.2-1.2,4.7-2.5,5.9l-8.7-2.2C124.9,1.7,125.6-0.6,124.9-2.8"/>
	
		<path id="path82" style="clip-path:url(#SVGID_00000047739778045347666850000003281162567980143804_);fill-rule:evenodd;clip-rule:evenodd;fill:#D7373D;" d="
		M69.6-2.5c4.2-1.4,8.7-2.1,13.1-2.2C81.9-2.9,82-0.7,83,1L71.4,3C69.1,1.3,68.9-0.6,69.6-2.5"/>
	
		<path id="path84" style="clip-path:url(#SVGID_00000047739778045347666850000003281162567980143804_);fill-rule:evenodd;clip-rule:evenodd;fill:#D7373D;" d="
		M123.4-2.8c-4.3-1.3-8.7-2-13.2-2.1c0.9,1.8,0.8,4-0.2,5.7l11.7,1.9C124,1,124.2-0.9,123.4-2.8"/>
	
		<path id="path86" style="clip-path:url(#SVGID_00000047739778045347666850000003281162567980143804_);fill-rule:evenodd;clip-rule:evenodd;fill:#D7373D;" d="
		M84.6-5.2c-2.2,2.2-2.3,4.3-0.2,6.3l11.7-0.6l0.1-6C92.2-5.8,88.4-5.2,84.6-5.2"/>
	
		<path id="path88" style="clip-path:url(#SVGID_00000047739778045347666850000003281162567980143804_);fill-rule:evenodd;clip-rule:evenodd;fill:#D7373D;" d="
		M108.4-5.3c2.2,2.1,2.3,4.2,0.3,6.3L97,0.5l-0.2-6C100.8-5.9,104.6-5.4,108.4-5.3"/>
	
		<path id="path90" style="clip-path:url(#SVGID_00000047739778045347666850000003281162567980143804_);fill-rule:evenodd;clip-rule:evenodd;fill:#FBEA26;" d="
		M42.3,80.9v11.6c0,1.1,0.1,2.8,0.2,4.2c2.1,28.4,25.6,51,54.2,51s52.1-22.5,54.2-51c0.1-2.2,0.2-2.8,0.1-4.2V80.9H42.3"/>
	
		<path id="path92" style="clip-path:url(#SVGID_00000047739778045347666850000003281162567980143804_);fill-rule:evenodd;clip-rule:evenodd;fill:#E94539;" d="
		M151,14.4H42.3V62c0,0.1,0,18.1,0,18.1H151c0,0,0-18.2,0-18.3V14.4"/>
	
		<path id="path94" style="clip-path:url(#SVGID_00000047739778045347666850000003281162567980143804_);fill-rule:evenodd;clip-rule:evenodd;fill:#FFFFFF;" d="
		M153.6,11H39.3l2.8,2.6h108.8L153.6,11"/>
	
		<linearGradient id="path104_00000117667924051159844230000012202355758949776518_" gradientUnits="userSpaceOnUse" x1="-328.41" y1="1462.7012" x2="-328.41" y2="1484.2611" gradientTransform="matrix(1 0 0 1 425.01 -1458.9912)">
		<stop  offset="0" style="stop-color:#E73B33"/>
		<stop  offset="1" style="stop-color:#D7373D;stop-opacity:0"/>
	</linearGradient>
	
		<path id="path104" style="clip-path:url(#SVGID_00000047739778045347666850000003281162567980143804_);fill-rule:evenodd;clip-rule:evenodd;fill:url(#path104_00000117667924051159844230000012202355758949776518_);" d="
		M58.7,8c24.9-8.9,50.1-8.5,75.7-0.6c0,0.9,0.1,1.8,0.5,2.6H58.3C58.7,9.5,58.8,8.7,58.7,8"/>
	
		<path id="path108" style="clip-path:url(#SVGID_00000047739778045347666850000003281162567980143804_);fill-rule:evenodd;clip-rule:evenodd;fill:#E94539;" d="
		M140.3,0.9c1.4,0.7,2.8,1.6,4,2.6l2.2-3.2c1.2-2.5-2.8-3.6-4-4.3L140.3,0.9L140.3,0.9z M132.3-7.6c3.2,0.7,6.3,1.8,9.3,3.2l-2.2,5
		c-2.8-1.2-5.7-2.3-8.7-3.2L132.3-7.6L132.3-7.6z M118.8-10.6c4.3,0.5,8.5,1.4,12.6,2.7l-1.5,5.1c-3.9-1-7.8-1.8-11.8-2.3
		C118.1-5.1,118.8-10.6,118.8-10.6z M101.8-12.1c5.4,0,10.8,0.5,16.2,1.5l-0.8,5.7c-5.1-0.9-10.2-1.4-15.3-1.6L101.8-12.1z
		 M91.8-12.2c3.1-0.3,6.2-0.3,9.4,0v5.8c-3.1-0.1-6.2-0.1-9.4,0V-12.2z M91-12.1c-5.4,0.1-10.8,0.7-16,1.7l0.8,5.7
		c5-0.9,10.1-1.5,15.3-1.7L91-12.1L91-12.1z M74-10.3c-4.3,0.5-8.4,1.5-12.5,2.8l1.6,5.1c3.9-1,7.8-1.9,11.7-2.5L74-10.3z M60.7-7.2
		c-3.2,0.7-6.3,1.8-9.3,3.3l2.3,5c2.8-1.3,5.7-2.4,8.7-3.3L60.7-7.2z M52.8,1.4C51.4,2.1,50,3,48.8,4l-2.2-3.1
		c-1.2-2.5,2.8-3.7,3.9-4.3L52.8,1.4z M152.6-5.4l-0.1-2c-1.6-1.7-3.5-3.1-5.6-4.1l0.5,1.7C149.4-8.7,151.2-7.2,152.6-5.4z
		 M146.2-10.4l-0.8-1.9c-3-1.3-6.1-2.4-9.2-3.2l0.1,1.1C139.6-13.3,142.9-12,146.2-10.4z M135.2-14.6l-0.4-1.4
		c-5.4-1.8-10.9-3.3-16.5-4.3l0.4,1.6C124.3-17.7,129.8-16.3,135.2-14.6L135.2-14.6z M117.4-20.5c-5.1-0.9-10.3-1.4-15.5-1.4
		c0.3,0.5,0.5,1,0.5,1.6c5.2,0.2,10.4,0.7,15.5,1.5L117.4-20.5L117.4-20.5z M91.9-22c-0.3,0.5-0.4,1.1-0.5,1.7
		c3.4-0.2,6.9-0.2,10.3,0c-0.1-0.6-0.3-1.2-0.7-1.7C98-22.2,94.9-22.2,91.9-22z M75.4-20.3c5.1-1,10.3-1.5,15.5-1.6
		c-0.4,0.4-0.5,1-0.5,1.6c-5.2,0.3-10.4,0.8-15.5,1.7L75.4-20.3L75.4-20.3z M57.7-14.2l0.3-1.4c5.4-1.9,10.9-3.4,16.4-4.5L74-18.5
		C68.5-17.3,63-15.9,57.7-14.2z M46.8-9.8l0.8-1.9c3-1.4,6-2.5,9.2-3.4L56.6-14C53.3-12.8,50-11.4,46.8-9.8z M40.4-4.8l0.1-2
		c1.5-1.7,3.4-3.1,5.5-4.1l-0.5,1.7C43.6-8.1,41.8-6.6,40.4-4.8z M139-48l-6.7-2.2l-1.7,5.8l6.8,2.1L139-48z M131.4-50.2
		c-2.4-1-4.9-1.6-7.4-1.8l-1,5.7l6.8,1.8L131.4-50.2z M137.2-41.3l-14.3-4.1l-1.4,5.9l14.2,3.8C135.7-35.7,137.2-41.3,137.2-41.3z
		 M127.7-36.9l-6.4-1.7l-1.1,5.8l6.2,1.7L127.7-36.9z M135.4-34.6l-6.9-2l-1.1,5.8l6.7,1.8L135.4-34.6z M111.4-26.8
		c5.4,0.5,10.7,1.4,15.9,2.8c-0.1,1.6-0.5,3.1-1.2,4.5c-5-1.2-10.2-2.1-15.2-2.8L111.4-26.8L111.4-26.8z M155.3-18.2L153-20
		l-2.5,3.8c1.7,1,3.1,2.5,4.2,4.2l0.5-0.8c0.1-1.8-0.7-3.5-2.2-4.5C153.6-17.9,154.4-18.2,155.3-18.2L155.3-18.2z M152.2-20.6
		c-4.5-2.5-9.2-4.6-14.1-6.2l-1.5,4.5c4.5,1.6,8.8,3.4,13,5.6L152.2-20.6L152.2-20.6z M141.8-14.6c-4.9-1.7-9.7-3.3-14.6-4.6l1-4.6
		c5.2,1.1,10.2,2.8,15.1,5C143.2-17.3,142.7-15.9,141.8-14.6L141.8-14.6z M152.4-8.9c0.5-0.8,1.2-1.6,1.9-2.2
		c-0.3-0.5-0.6-0.9-1-1.3c-0.6,0.9-0.7,2-1.7,2.6L152.4-8.9z M152.7-13.2c-0.6,1-0.5,2.5-1.8,3c-2.6-1.5-5.4-2.9-8.2-4
		c0.7-1.3,1.2-2.6,1.5-4C147.4-17.2,150.3-15.5,152.7-13.2z M40.6-8.2c-0.5-0.8-1.2-1.6-2-2.2c0.3-0.5,0.6-1,1-1.3
		c0.6,0.9,0.7,2,1.7,2.6L40.6-8.2z M37.6-17.5l2.2-1.8l2.5,3.8c-1.7,1-3.1,2.5-4.1,4.2l-0.5-0.8c-0.1-1.8,0.7-3.5,2.2-4.5
		C39.3-17.2,38.5-17.5,37.6-17.5z M40.2-12.5c0.6,1,0.6,2.5,1.8,2.9c2.6-1.6,5.3-3,8.1-4.1c-0.7-1.3-1.2-2.6-1.6-4
		C45.5-16.7,42.6-14.9,40.2-12.5L40.2-12.5z M40.7-20c4.5-2.6,9.2-4.7,14-6.4l1.6,4.5c-4.5,1.6-8.8,3.5-13,5.7L40.7-20z M51.1-14.1
		c4.8-1.8,9.7-3.4,14.5-4.8l-1.1-4.6c-5.2,1.2-10.2,2.9-15,5.2C49.7-16.8,50.2-15.3,51.1-14.1L51.1-14.1z M81.3-26.6
		c-5.4,0.5-10.7,1.5-15.9,2.9c0.2,1.6,0.6,3.1,1.2,4.5c5-1.2,10.1-2.2,15.2-2.9L81.3-26.6z M87.5-33.6c-5.3,0.6-10.6,1.4-15.8,2.5
		l1.1,5c5-1,10-1.7,15.1-2L87.5-33.6z M104.6-34.6l0.1-6.3l-7.8-0.3v6.3L104.6-34.6L104.6-34.6z M104.9-48.7L97-48.8l-0.2-6.6
		l8.1,0.1L104.9-48.7L104.9-48.7z M87.7-48.7l8.4-0.1v-6.6l-8.7,0.2L87.7-48.7z M87.7-47.8c5.7-0.3,11.4-0.4,17-0.2v6.4
		c-2.6-0.1-5.3-0.2-8-0.2c-2.9,0-5.8,0.3-8.9,0.4L87.7-47.8L87.7-47.8z M88.2-34.5L88-40.8l8.1-0.4v6.3L88.2-34.5z M88.4-33.7
		c5.3-0.5,10.6-0.5,15.9,0l-0.3,5.6c-5.1,0.1-10.2,0.1-15.2,0L88.4-33.7L88.4-33.7z M96-27.2c-4.6-0.2-9.3-0.1-13.8,0.5l0.4,4.7
		c4.4-0.3,8.7-0.8,13.4-0.8L96-27.2z M96.7-27.2c4.6-0.3,9.2-0.2,13.8,0.3l-0.4,4.7c-4.4-0.2-8.6-0.7-13.3-0.6L96.7-27.2L96.7-27.2z
		 M105.1-33.7c5.3,0.5,10.6,1.2,15.9,2.2l-1.1,5c-5-0.9-10-1.5-15.1-1.7L105.1-33.7z M149.6-28.5c2.1,0.7,4.1,1.6,6,2.8
		c2.3,1.2,4.4,2.8,5.2,4.6l-2.6,4c-0.4-0.6-1.1-0.9-1.9-0.9c-2.7-3-6.1-4-9.2-6.1L149.6-28.5L149.6-28.5z M150.2-29.4l2.9-5.3
		l5.9,2.9l-3.3,5.4L150.2-29.4L150.2-29.4z M156.5-26.1l3.2-5.2c1.8,1.3,4.4,1.9,4.9,4.4l-3.2,4.7C160-23.9,158.4-25.2,156.5-26.1
		L156.5-26.1z M156.6-40.8c2.6,1.2,11.2,4.5,11.8,7.2l-3.1,5.5c-2.9-3.8-7.9-5.1-11.8-7.6L156.6-40.8L156.6-40.8z M137.1-27
		c-5-1.8-10.1-3.3-15.3-4.3l-1.1,4.9c5,0.9,10.2,2.3,15.1,3.6L137.1-27z M43.1-28c-2.1,0.7-4.1,1.7-6,2.8c-2.2,1.3-4.4,2.9-5.1,4.7
		l2.6,3.9c0.4-0.6,1.1-1,1.8-1c2.6-3.1,6-4.1,9.1-6.2L43.1-28z M36.2-25.5L33-30.7c-1.8,1.3-4.4,2-4.9,4.5l3.3,4.6
		C32.8-23.2,34.4-24.5,36.2-25.5L36.2-25.5z M42.4-28.9l-2.9-5.3l-5.9,2.9l3.4,5.4L42.4-28.9z M36-40.2c-2.6,1.2-11.2,4.6-11.8,7.4
		l3.2,5.5c2.9-3.9,7.8-5.2,11.7-7.7L36-40.2z M61.2-49.8c2.4-1,4.8-1.7,7.4-1.9l1,5.7l-6.8,1.9L61.2-49.8z M53.5-47.5l6.7-2.3
		l1.7,5.7l-6.7,2.2L53.5-47.5L53.5-47.5z M55.4-40.8L69.7-45l1.4,5.9L57-35.2L55.4-40.8z M57.2-34.1l6.9-2.1l1.2,5.8l-6.7,1.9
		L57.2-34.1z M65-36.5l6.3-1.8l1.2,5.7l-6.2,1.7L65-36.5z M55.7-26.5c5-1.9,10.1-3.4,15.3-4.5l1.1,4.9c-4.9,0.9-10.1,2.4-15.1,3.8
		L55.7-26.5L55.7-26.5z M28.3-4.4c-4.8,3.1-7.1-1.1-10-2.5c-2.8,1.5-5.3,3.5-7.3,6C9.9,0.5,10.8,1.5,11.9,0c2.3-3.8,5.3-5.2,9.4-3.1
		C24.8-0.4,27-1.2,28.3-4.4z M164.7-5.2c4.8,3.1,7.1-1.2,9.9-2.7c2.8,1.5,5.3,3.5,7.4,5.9c1.2,1.5,0.3,2.4-0.8,1
		c-2.3-3.8-5.3-5.1-9.4-3C168.2-1.2,166-2,164.7-5.2"/>
	
		<path id="path130" style="clip-path:url(#SVGID_00000047739778045347666850000003281162567980143804_);fill-rule:evenodd;clip-rule:evenodd;fill:#FFFFFF;" d="
		M151.7,77.2v15.4c0.1,1.4-0.1,2.1-0.1,4.3c-2.2,28.7-26,51.5-54.9,51.5s-52.7-22.8-54.9-51.5c-0.1-1.4-0.1-3.1-0.2-4.3v-15
		c-0.4,0-0.9,0-1.3,0.1c-0.4,0.5-0.9,0.9-1.5,1.2v14.4c0,1.2,0.1,2.9,0.2,4.4c2.3,31.8,30,55.8,61.8,53.5
		c28.6-2.1,51.4-24.8,53.5-53.5c0.1-2.3,0.2-3,0.2-4.5V77.8c-0.3-0.2-0.5-0.5-0.7-0.8C153.1,76.9,152.3,76.9,151.7,77.2L151.7,77.2z
		 M151.7,14v46.5c0.7-0.9,1.7-1.5,2.8-1.7c-0.8-1.4-0.8-3.1,0-4.5V11.5L151.7,14L151.7,14z M38.8,11.7v47.9c1.1-0.1,2.1,0.3,2.8,1.2
		V14.5L38.8,11.7"/>
	
		<path id="path168" style="clip-path:url(#SVGID_00000047739778045347666850000003281162567980143804_);fill-rule:evenodd;clip-rule:evenodd;fill:#222222;" d="
		M86.6,95.4c-0.8-0.5-1.6-0.9-2.5-1.1c-0.9-0.6-1.5-1.2-2.4-1.2c-0.3-0.5-0.8-0.7-1.4-0.6c-1.1-0.7-2-1.6-2.7-2.7
		c-0.2,0.6,0,1.1-0.4,1.8c-0.9-0.1-1.7-0.6-2.1-1.4c-0.3,1-0.2,2.1,1,3.7c-1.3,2.1-3,0.2-2-0.8c-1.2,0-1.9,1.5-0.6,2.8
		c-0.5,0.1-0.8,0.5-0.7,1c0,0,0,0,0,0c0.8-0.4,1.3,0.1,2,0.2v0.5c-0.7,0.5-1.4,1.1-2,1.8c-0.4,0.2-0.8,0.6-1,1
		c-1.1,0.7-1.5,1.6-1,2.6c0.1,0.4,0.2,0.7,0.4,1c0.4,0.4,0.8,0.7,1.2,1c0.5,0,0.8-0.2,0.8-0.6c0-0.4,0.1-0.7,0.4-0.9
		c0.1,0.1,0.2,0.2,0.4,0.2c0.1,0.3-0.8,1.1-0.6,1.4c0.8,0.7,1.5,1,2.1,0.3l0.6-0.9c0.4,0.9,0,1.7,0,2.5c-1,0.3-1,1.1-0.4,1.5
		s1.2,0.1,1.2-0.8l0.6,0.3c-0.3,0.7-0.8,1.4-1.4,1.9c-0.2,1.1-0.9,1.6-1.4,2.3c-1.7-0.6-3.4-1.4-4.9-2.3c-2.2-1.3-2.4,0.1-4,0.7
		c-0.6,0.8-1,1.7-1.3,2.7c-0.3,0.9-0.7,1.8-1.3,2.5c-0.4,0.4-0.5,1-0.2,1.5c0.3,0.8,0.4,1.6,0.2,2.5c0,1.1,0.5,1.3,0.7,2l0.4,1.4
		c-0.1,0.5,0.2,0.9,0.6,1.1c0.9-0.1,1.6-0.6,2.1-1.4c0.3,0.7,0,1.5,0.8,2.1c0.9,0.6,1.5,1.5,1.8,2.5c0.6,1.6,1.4,1.3,2.2,2.1
		c1.7,1.4,2.7,1.6,3.1,0.6c0.3-1.8,0-3.4-1.6-4.4c-0.5-0.2-1-0.1-1.3,0.2c-0.6,0.1-0.9-0.4-0.5-0.6c0.4,0,0.8-0.2,0.9-0.6
		c-0.2-1.2-1.9-1.8-2.6-2.6c0-0.9-0.1-1.8-0.5-2.6c0.4-0.1,0.7-0.3,0.9-0.6c1.5,0.4,2.9,1.1,4.2,2c1.1,0.5,2.2,0.9,3.3,1.3
		c1.4,0.2,2.4,0,2.8-1.2c0.7,0.5,1.5,0.9,2.2,1.2l-0.4,1.8c-0.7,0.1-0.8,0.7-0.6,1.5c-0.4,0-0.7,0.2-1,0.4c-0.4,0.1-0.8,0.4-1.1,0.7
		c-0.4,0.2-0.8,0.5-1,0.9c-0.1,0.3-0.2,0.6-0.3,0.8l-0.2,0.7c-0.1,1,0.2,1.2,0.9,0.8c0.5-0.6,1.1-1,1.8-1.2c1.1,0.1,2.1-0.2,3-0.8
		h0.5c0.4,0.5,1,0.7,1.6,0.6c0.6,4.1,3,6.8,6.9,8.2c-1.9-1.8-2-5.1-1.6-7.6c0.3,2.6,1.1,4.5,2.3,5c2.4,0.9,4.7,4.3,2.2,6.5
		c2.6-0.1,4.9-4.6,1.8-8.9c1.3,0.4,2.6,0.9,3.9,1.5c1.7,0.9,2.3,2.9-0.7,4.9c2.5,0.4,6-1.8,4.4-6.5c-1.7-3.1-5.4-3.3-6.6-5.7h2.6
		c1.4,3.4,4,2.8,5.3,3.2c2.1,0.1,3.7,2.3,2.6,5c-0.5,1.3-1.4,2.4-2.5,3.3c-0.8,0.5-1.5,1.1-2.1,1.8c-0.3,0.5-0.7,0.9-1.2,1.3
		c-0.3,0.4-0.2,1,0.2,1.3c1,0.3,2.1,0.5,3.1,0.4c-0.7,1-0.8,1.8-0.1,2.2c1.6,0,3.2-0.4,4.6-1.2c0.8-1.2,1-2.2,0-2.6
		c0.2-1.1,0.4-1.7,0.8-0.9c0.3,0.2,0.6,0,0.8-0.2c0.9-0.4,0.8-1.8,1.1-2.7c0.2-2.4,1.8-4.2,2.7-6.3c0.4-1.4,0.3-2.5-0.9-2.7
		c-1.3,0.3-1.4-1-1.2-3c1-1,0.3-2.2,0.4-3.3c0-1.9-0.2-3.7-0.7-5.5c5.3,0.1,0.9,6.7,7.7,6.9c-2.1-2-2.3-3.3-1.7-4.2
		c0.2,3,4.3,2,6.2,1c1.5-0.9,4.5,0.6,3.3,2.1c1.9-0.7,1.3-4-2.2-4.5c1.4-0.7,5.2-0.7,6.5-3.5c0.6-2.9-2.3-3.3-2.5-2.1
		c1.4-0.7,1.7,0.7,1.1,1.4c-0.5,0.5-1.3,0.6-1.9,0.3c-1-0.4-2-0.7-3.1-0.9c0.1-1-0.5-1.9-1.4-2.3c0.2,0.4,0.2,0.9-0.1,1.3
		c-1.8-3.2-5.9-2.3-6,0c0.9-1,3-0.8,2.9,0.9c-0.6,2.3-3.9,1.3-5.7,0.9c-1.4-0.3-2.8,0.4-4.2,1.3c-3-1.4-3.7-2-7.7-2.2
		c0.3-0.9,0.2-1.7-1.1-1.7c0-0.3,0-0.6-0.2-0.9c1.5,1.1,3.1,1.9,4.9,2.3c3.5-4.6,3.2-10.6-1.4-16.4c-0.5,1-1.4,1.8-2.5,2.1
		c-0.4-0.7-1.2-1.2-2-1.3c-1.1-0.5,0.9-1.8,1.1-2.7c0.4-1.1,0.2-2.4-0.4-3.4c0.2-0.3,0.4-0.4,0.8-0.4c1.5,0,2.8,0.9,3.4,2.2l0.4-0.5
		c1,0.5,1.5,1.6,1.4,2.7c0.2-0.3,0.4-1,0.7-0.9c0.6,0.3,0.3,1.2,0.4,1.8c0.6-0.2,0.6-0.7,0.8-0.6c0.5,1.2,0.5,2-0.8,1.9
		c0.5,0.5,1.2,0.5,1.7,0l0.3-0.7l0.8,1.4c-0.2,0.5,0.1,1.1,0.6,1.3c0.6,0.9,1.7,1,3.1,0.4c0.3,0.1,0.7,0,1-0.3
		c1.5,0.9,4,0.5,4.6-1.2c0.3-1.5-0.5-3.1-1.9-3.7c-0.1-0.9-0.7-1.6-1.6-1.8c-1.9-0.3-2.3,0.6-1.9,2c-0.3,0-0.7,0-1-0.2l0.4-0.1
		c0.3-0.5,0.3-1.1-0.1-1.5c0-0.8-0.5-1.4-1.2-1.7c0,1.6-0.5,2.4-1.8,2.1c0.2-0.3,0.7-0.5,0.7-1c-0.4-0.4-1.2,0.1-1.5,0
		c0.3-0.7,0.9-0.7,0.7-1.8c-0.7,0.7-1.7,1.1-2.7,0.9c0.3-0.5,0.2-1.1-0.3-1.4c0,0.6-0.5,1-1.1,1c0,0,0,0-0.1,0c0-0.2,0.9-1.4,0-1.8
		c0.1,1.2-1.1,1.5-2.6,0.5c-0.9-0.3-1.8-0.3-2.7,0c-0.4,0.1-0.8,0.3-1.1,0.7c-0.8-0.3-1.7-0.4-2.6-0.2c-0.4-0.2-0.7-0.4-1-0.8
		c-1.4,0.4-2.4,1.6-2.5,3.1l0.3,0.1l-0.1,0.5c-0.3,0.3-1.1,0.3-0.8,1.2c-0.4,0.1-0.6,0.5-0.5,0.9c-0.1,0.6-0.1,1.1,0.1,1.7
		c-0.1,0.2-0.2,0.4-0.5,0.5l-1.7-1.6c0-0.4-0.2-0.8-0.5-1.1L92.4,91c0.2-0.1,0.4-0.2,0.5-0.4l0.3-2.9c0.3-0.1,0.7-0.3,0.9-0.6
		L94,88.7l2-0.1l-0.2-2l17-1.2c1.5-0.1,2.9-0.6,4.1-1.5c-1.8-0.7-3.7-1.1-5.6-1l-15.8,0.6l0.1-2.3l-2.2,0.1l0.4,2l-0.9-0.1
		c-0.4-0.3-0.6-0.5-1-0.2c-0.3-0.2-0.7-0.2-1,0.1c-0.1-0.1-0.4-0.2-0.5,0c0,0,0,0-0.1,0.1c-0.7-0.2-1,0-1.2,0.7
		c-2.5-0.7-2.8,3.7,0.2,2.7c-0.1,0.3-0.1,0.6,0,0.9l-1.4,2.7c0,0.5,0.3,1,0.7,1.2L88.4,96c0.1,0.8,0.5,1.5,1.9,2.1
		c0.8,1,1.7,1.9,2.7,2.6l0.1,0.4l1.1,0.7l0.7,2.3c-0.6,0.2-1,0.5-0.9,1.3c-0.4,0.4-1,0.6-1.6,0.5c0-0.8-0.5-1.5-1.1-2
		c0.3-1.3,0-2.6-1-3.5c-0.3-0.8-0.8-1.6-1.5-2.1C88.5,97.1,87.7,96,86.6,95.4L86.6,95.4z M88.8,84.9h0.1c0,0.3,0,0.7,0.2,0.9
		c-0.1,0-0.2,0.1-0.3,0.1c-0.3,0-0.6-0.2-0.7-0.5C88.1,85.1,88.4,84.9,88.8,84.9L88.8,84.9z M83.7,122.5l-0.8,1.7
		c0.1,0.2,0.2,0.3,0.3,0.6l0.2-0.4L83.7,122.5L83.7,122.5z M93.6,107.4h0.2c0.1,0.3,0.4,0.4,0.7,0.4l0.4,0.5c-0.5,0.4-1,0.8-1.7,1
		c-0.3-0.5-0.1-1.1-0.4-1.6L93.6,107.4L93.6,107.4z M77.4,103c-1-0.4-0.6,0.3-0.8,0.5l0.1,0.6c0.9,0.5,1.9,1,3,1.2
		c0.6-0.6,0.8-1.5,0.5-2.3C79.3,103.3,78.3,103.3,77.4,103L77.4,103z M66.3,116.9c0.1-0.3,0-0.6-0.1-0.9c0.4-0.7,0.7-1.4,0.8-2.2
		c0.6-0.1,1.1-0.4,1.6-0.6c-0.1,0.6,1.3,2,2.3,2.8c-0.3,0.1-0.6,0.1-0.8,0C68.3,114.9,67.3,116.2,66.3,116.9"/>
	
		<path id="path170" style="clip-path:url(#SVGID_00000047739778045347666850000003281162567980143804_);fill-rule:evenodd;clip-rule:evenodd;fill:#222222;" d="
		M100.3,26.3c1.5,0.6,0.7,3.7,2.1,4.5l-0.8-0.1c0.8,1.7,0.1,2.9,1,4.1l-0.5-0.1c0.6,1.5-0.2,2.7,0.9,4.1c-0.4,0-0.7-0.1-1.1-0.2
		c1.5,1.6,0.8,3.2,1.7,5l-0.7-0.1c0,0.2,0.1,0.5,0.3,0.6c4.5-1.2,5.9-3.3,5.3-6c-0.2-0.3-0.6-0.5-0.9-0.4c-1.9,0.3-1.7-3.2,0.8-5.2
		c0.5-0.8,1.3-1.3,2.3-1.5c2.4-0.9,4.6-2.3,6.4-4c0.4,0,0.5,0.5,0.5,0.9c4.3-2.6,7.8-6.5,11.2-10.5c3.8,3-1.5,9.3-12.3,14.3
		l-0.4,0.6c7.5-3.4,10.9-6.4,13.4-9.3c0.4-0.4,0.7-0.3,0.9,0.2c1.2,4.8-2.9,8.9-13.9,12.1l-0.3,0.3c4.9-0.6,9.4-2.7,13.1-5.9
		c0.5-0.3,0.8,0.1,0.7,0.7c-0.5,5.7-7,7.6-13.5,8.7c3.8,0.3,7.9-1,12.3-3.5c0.4-0.2,0.6,0.2,0.3,1c-1.8,3.6-6.2,5.4-12.2,6.3
		c3.3,0.2,6.5-0.3,9.6-1.5c0.5-0.2,0.7-0.1,0.5,0.9c-1.9,4.2-6.3,4.8-12.3,3.1c1.6,1.1,4.2,2,9.1,2c0.5-0.1,0.7,0.2,0.5,1.1
		c-3.2,3.4-7.3,2.7-12.1-0.6c2.4,3.1,8.6,3.4,9.1,4.7c-3.8,3.3-8.7,1.8-12.3-3.1c1.3,2.7,3.3,5,7.8,6.5c-1.2,1.6-3.6,1.7-5.2,0.9
		c-2-1-4-2.9-5.5-6.4c0.4,2.6,1.8,5.5,5.5,9l-0.9,0.1c0.6,0.9,1.4,1.8,2.2,2.5c-1.1,0.2-2.1,0.2-3.2-0.1c1.4,1.4,1.8,2.8,4.1,4.4
		c0.4,0.2,0.8,0.2,1.1,0c1.4-0.9,2.4-2.4,2.7-4c1-1.5,2.3-1.3,3.6-0.5c2,0.1,2.7,1,2.2,2.4c-0.5-0.5-1.2-0.7-1.9-0.7
		c-0.4,0.9-1.4,1.3-2.2,1c0,0.5-0.4,0.9-0.9,1.1l-1.6,1.3c1.1-0.1,2.1-0.3,3.2-0.6c1.8-0.8,3.2-0.1,3.2,1.8c0.9,0.8,1,2.3,0.2,3.2
		c-0.1,0.1-0.2,0.2-0.3,0.2c-0.1-0.8-0.4-1.5-1-2c-0.8,0.5-1.8,0.3-2.3-0.5c-0.1-0.1-0.1-0.2-0.2-0.4c-1,0-2.2-0.4-3.2-0.2
		c0.8,0.8,1.9,1.4,3.1,1.5c1,0.5,1.5,1.7,1.1,2.8c0.2,1.2-0.6,2.4-1.8,2.8c0.3-0.6,0.3-1.3,0-1.9c-1.1-0.3-1.9-1.2-1.9-2.4l-1.6-1.4
		c-0.5-0.4-0.6-0.5-1.4-0.3c-0.8,0.8-2,0.2-2.5,2.4c0.2,0.8,0.6,1.4,1.3,1.8c-1.4,0.6-2.3,0-2.8-1.8c-0.9-0.2-1.5-1.2-1.3-2.1
		c0.1-0.5,0.4-0.9,0.8-1.1c0.7-0.5,1.8-0.3,3.3-0.5l-4.4-2.6c-0.2,0.3,0,0.9,0.4,1.6c-3.1,0.2-2.8-2.3-3.2-3.7
		c-0.2,0.7-0.4,1.5-0.3,2.3c-1-0.4-1.7-1.3-2-2.3c-0.3,0.8-0.9,1.3-1.7,1.4c0.9-1.7-0.6-3.1-1.3-4.3c-0.3,2.4,0.5,2.2,1,3.3
		c-0.2,0.4-0.7,0.5-1.2,0.3c0.2,2.5,2.8,3.4,3,0.6c1.7,2.2,1.7,4-1.3,5.1c1.5,2.5,4.5,1.3,4.7-1.6c2.6,2.1,1.1,5.8-1.3,6.7
		c-1.8,0.7-3.6-0.7-5.3-2.9c-0.1,3.6-1.2,4.1-2.3,6.2c-1-2.2-2.1-2.8-2.2-6.4c-1.3,2.4-3.5,4-5.3,3.3c-2.3-1-3.3-3.7-2.3-6
		c0.2-0.4,0.4-0.7,0.6-1c0.2,2.9,2.9,5,4.8,1.8c-3.1-0.4-3.2-2.7-1.5-4.8c-0.2,3.1,3.3,1.8,3.5-0.7c-0.5,0.2-1,0-1.3-0.4
		c0.7-0.9,1.6-1.4,1.1-3.5c-1.3,1.1-1.8,2.9-1.3,4.5c-0.9-0.3-1.6-1-1.7-2c-0.4,1.2-1.3,2.2-2.5,2.7c0-0.9,0.6-0.7,0.2-2.1
		c-0.3,1.4-0.9,3.8-4.1,3.6c0.6-0.9,1.3-1.5,0.9-1.7l-3.3,2.2c-0.8,0.6-0.6,0.8-0.2,0.9c0.8,0.3,1.5,0.2,2.2,0.6
		c0.8,0.4,1.2,1.4,0.8,2.2c-0.2,0.5-0.7,0.8-1.2,0.9c-0.8,1.6-1.9,1.8-2.9,1.3c0.6-0.4,1.1-1,1.3-1.8c-0.9-0.6-0.4-1.3-0.7-1.6
		s-0.9-0.4-1.3-0.8c-0.5-0.2-1.2-0.1-1.5,0.4c-0.2,0.3-0.5,0.6-0.8,0.7c-0.2,0.4-0.4,0.7-0.8,1c-0.2,1.2-0.5,1.9-1.9,2
		c-0.4,0.6,0,0.8,0.3,1.6c-1.7,0.2-2.4-1-2.1-2.5c-0.5-0.9-0.1-2,0.8-2.5c0.1,0,0.1-0.1,0.2-0.1c1.7-0.1,2.2-1.5,3-1.7
		c-1-0.2-2.1-0.2-3.1,0.1c-0.5,1.2-1.2,1.8-2.8,0.8c-0.6,0.6-0.9,1.3-1,2.1c-1.4-1.8-1.3-3,0.1-3.9c0.3-1.1,1.4-1.8,2.5-1.6
		c0.2,0.1,0.5,0.1,0.7,0.3c0.9,0.4,1.9,0.6,2.9,0.5l-1.2-1.1c-0.6-0.2-0.8-0.1-0.8-0.6c-1.1,0.4-2-0.6-2.5-1.3
		c-0.6-0.2-1.1,0.2-1.8,0.8c-0.3-1.1,0.3-2.2,1.4-2.6c0.4-0.1,0.8-0.1,1.1,0c1.4-0.7,3.7-0.3,3.9,1.8c0.1,1.1,0.8,2.1,1.7,2.7
		c0.6,0.2,1.2,0.2,1.8,0c2.3-1.7,1.9-2,3.4-3.5c-1.2-0.2-1.9,0.2-2.7-0.7c1.3-0.4,2.4-1.3,3-2.6c-0.5,0-0.9-0.1-1.3-0.3
		c1-0.2,1.8-0.8,2.4-1.6l-1.1-0.2c2.8-1.9,2.7-3.3,3.7-5c-1.9,3-2.9,3.1-4.8,4.2c-1.6,0.9-4.1,1.3-5.6-0.8c3.1-0.7,5.9-2.7,7.4-5.5
		c0.2-0.3,0.1-0.7,0.2-1c-1.8,4.6-9.5,6.7-12,3.1c0-1.2,5.4-0.5,9.2-4.7c-4.8,3.3-9.7,4.3-12.7,0.7c-0.2-0.8-0.1-1.2,0.5-1.1
		c4.9-0.1,7.6-0.5,9.2-1.6c-4.8,2-11.3,0.5-12.2-3.2c-0.2-0.9,0.1-1,0.5-0.9c3.3,1.2,6.8,1.7,10.3,1.5v-0.1c-2.8,0-5.7-0.5-8.3-1.5
		c-2.2-0.9-3.9-2.7-4.6-5c-0.3-0.9,0.1-1,0.5-0.8c1.6,1,3.3,1.8,5,2.5c2.4,0.9,5,1.2,7.6,1c-2.7-0.2-5.3-0.7-7.9-1.6
		C66.7,36.4,64,34.5,64,31c-0.1-0.6,0.2-1,0.7-0.7c5.9,4.1,9.6,5.3,13.2,5.9l-0.3-0.3c-11.3-3-15.6-7.6-14.4-12.4
		c0.2-0.5,0.5-0.5,0.9-0.2c0.8,0.9,1.9,1.6,2.9,2.6c2.4,2.3,5.6,4.2,10.7,6.4l-0.4-0.6c-4.4-2-7.4-3.7-9.6-5.9
		c-2.7-2.8-3.3-5.2-3.1-6.8c0-0.9,0.4-1,1-0.7C69,23,72.3,25,76.7,27.6c0-0.5,0.7-0.2,1.1,0.1c2,2,2.6,2.7,5.4,3.2
		c0.9,0.3,1.6,0.8,2.2,1.4c1.8,2.2,3.1,4.4,1,5.3c-0.4,0.2-1,0.2-1.1,0.8c-0.2,2.1,1.4,4.3,5.3,5.6c0.2-0.1,0.4-0.3,0.4-0.6
		l-0.6,0.1c0.4-1.8,1.2-3.5,2.3-5c-0.2-0.4-0.6-0.1-0.9-0.3c0.7-0.9,0.4-1.3,1.7-2.6c1.7-1.8,1.7-3.5-0.5-4.7c-1.7,1.1-2.7-1-4-1.5
		c-1.5,1.3-2.8,0.8-4.1-1.8c0.7,0.7,1.6,1.1,2.6,1.1c0.7-0.1,1.4-0.5,1.9-0.9c-1.3-0.3-1.2,0.5-1.8,0.8c-0.9-0.9-0.9-2.4,0-3.3
		c0.7-0.6,2.3-0.7,4.3,0c0.1-0.2,0.2-0.4,0.4-0.6l-0.2-1.5c-0.2-1.2-0.8-2.4-1.7-3.3c0.4-0.6,0.9-0.5,1.6-0.1
		c0.4-0.5,1.1-0.5,1.5-0.1c0.1,0.1,0.2,0.2,0.2,0.3c0-1.3,0.8-1.7,1.7-1.4c0.1-0.6,0.3-1.1,0.8-1.6c0.4,0.4,0.6,0.9,0.7,1.5
		c0.6-0.3,1.4,0,1.7,0.6c0.1,0.2,0.1,0.4,0.1,0.6c0.7-0.6,1.2-0.5,1.6,0.1c0.8-0.5,1.5-0.6,1.9,0.1c-1,0.8-1.6,2-1.8,3.2l-0.2,1.3
		l1.1,0C101.4,25.2,101,25.9,100.3,26.3L100.3,26.3z M99.2,21.1c0.6-0.1,0.7,0.6,0.1,0.8C99.4,21.6,99.3,21.3,99.2,21.1z M97.7,20.3
		c-0.4,0.2-0.6,0.6-0.2,1.1c0-0.3,0.1-0.5,0.4-0.7h-0.2L97.7,20.3L97.7,20.3z M94.9,20.7c0.2-0.5,1,0,0.5,0.8
		C95.3,21.1,95.1,20.6,94.9,20.7z M93.5,21c-0.9-0.1-0.6,1.4,0.3,1.1C93.4,21.8,93.2,21.5,93.5,21"/>
	
		<path id="path172" style="clip-path:url(#SVGID_00000047739778045347666850000003281162567980143804_);fill-rule:evenodd;clip-rule:evenodd;fill:#E94539;" d="
		M96.8,139.9c1.3-0.6,1.8-3.6,1.4-5.4s-2.5-2.9-2.6-4.8c0.1-0.4,0.4-0.4,0.5,0c0.1,2,3.3,2.3,5.3,3.3c1.5,0.9,2.3,2.8,0,4.9
		c3.2-1.3,4.9-4,2-7.3c-2.1-1.8-5.6-3-6.2-5.5c-0.7-4.6,0.4-7.5,2.4-9.5c1.5-1.2,3-2.3,4.7-3.2c0.8-1.4-0.2-1.6-1.3-0.5
		c-0.6,1.6-1.9,2.4-4.5,2.2c-2.9,1-5,2.9-8.6,3.2c-0.3,0.4-0.8,0.7-1.3,0.8c-0.1,4-2.9,5.1-2.8,7.6h1.1l-0.7-1.4l1.6,0.8l0.7-2.3
		l0.8,2.2l2.1-0.3l-1.5,1.4l1.7,1.3l-2-0.3l0.3,1.7l-1.7-1.5l-1.3,1.1l0.2-1.5l-1.3,0.1c0.5,0.8,0.1,1.3,0.2,2
		c0.1,0.6,0.2,1.1,0.5,1.7c0.6,2.3,2.4,3.9,4.7,5.2c-1.1-2.3-1.3-5-0.5-7.5c0.1-0.3,0.3-0.3,0.3,0c0.1,2.4,0.8,4.3,2.2,5.5
		c2.4,0.9,3.8,3.4,3.3,5.9"/>
	
		<path id="path174" style="clip-path:url(#SVGID_00000047739778045347666850000003281162567980143804_);fill-rule:evenodd;clip-rule:evenodd;fill:#E94539;" d="
		M92.6,29.1c-3.5-2.7-3.5,1.2-6.9-0.5c2.4,2.5,2.6-0.2,4.8-0.2C91.1,28.5,91.8,29.1,92.6,29.1"/>
	
		<path id="path176" style="clip-path:url(#SVGID_00000047739778045347666850000003281162567980143804_);fill-rule:evenodd;clip-rule:evenodd;fill:#FBEA26;" d="
		M82.9,72.5c0.3-0.2,0.8-0.1,1,0.2c-0.7,0.9-1.2,1.2-1.8,1.1C82.6,73.3,82.9,73.1,82.9,72.5L82.9,72.5z M75.2,73.8
		c-0.5-0.1-0.9-0.4-1.2-0.8c-0.2,0.9,0.4,1.9,1.3,2.1C75.1,74.5,75,74.2,75.2,73.8L75.2,73.8z M70.7,70.7c0.1-0.8,0.6-1,0.9-1.5
		c-0.1-0.3-0.2-0.9-0.6-1.1C70,68.6,70,69.7,70.7,70.7z M71,64c0-0.9,0.7-1.7,1.7-1.7c0.1,0,0.1,0,0.2,0c0.1,0.4,0,0.9-0.3,1.2
		C72,63.4,71.4,63.6,71,64z M111,72.3c-0.3-0.2-0.8-0.1-1,0.2c0.6,1.1,1.3,1.6,1.8,1.2C111.3,73.2,111,72.8,111,72.3L111,72.3z
		 M119,73.5c0.4-0.4,0.7-0.6,0.9-0.4c0.2,0.7-0.2,1.5-0.8,1.9C119.2,74.3,119.2,73.9,119,73.5L119,73.5z M123.2,71
		c-0.1-0.6-0.3-1.1-0.7-1.6c0-0.3,0.2-0.6,0.5-0.7C123.6,69.1,123.8,69.9,123.2,71z M123.2,63.9c0-0.9-0.8-1.7-1.7-1.7
		c-0.1,0-0.1,0-0.2,0c-0.3,0.2-0.3,0.6,0.1,1C122.1,63.2,122.7,63.4,123.2,63.9z M92.6,23.3c2.5-0.8,5.1-0.8,7.6-0.1l-0.1,1.1
		c-2.5,0.1-4.9-1.1-7.4,0.1L92.6,23.3z M93,29.4c-0.4,3.4-2.5,0.3-3.6-0.2C90.7,28.1,91.8,29.9,93,29.4z M92.7,28.6
		c0.1-0.6,0-1.2-0.3-1.7c-0.5-0.2-0.6-0.6-0.5-1.2c-3-1-5.1-0.2-4.1,2.3C89.8,26.3,91.8,28.5,92.7,28.6z M91,19.9
		c0.5-0.1,1-0.1,1.2,0.5c0.4-1,1.7-0.8,1.6,0.3c-1-0.3-1.5,0.9-0.5,1.7c0.4,0.2,1,0.1,1.2-0.3c-0.3,0.1-0.7-0.1-0.8-0.4
		s0.1-0.7,0.4-0.8l0,0c0.7-0.2,1.2,0.5,0.6,1.1c1.2,0.4,1-0.6,1-1c0-0.8-0.8-1.5-1.1-0.5c-1.1-1.1,0.3-2.4,1.3-1.3
		c-0.1-0.6,0.1-1.2,0.5-1.6c0.4,0.4,0.6,1,0.4,1.6c0.9-1.2,2.6,0.5,1.2,1.3c-0.4-1.4-1.3-0.1-1.2,0.5c0,0.3,0,1.8,1.3,1.1
		c-0.7-0.5-0.3-1.4,0.4-1.2s0.6,1.1-0.2,1.1c0.1,0.3,0.4,0.5,0.7,0.4c0,0,0,0,0.1,0c0.7,0,1.8-2.2-0.2-1.7c-0.2-1.3,1.2-1.5,1.6-0.4
		c0.2-0.6,1-0.6,1.4-0.5c-0.9,0.9-1.5,2-1.8,3.2L99,22.7l0,0c-1.8-0.3-3.7-0.3-5.5,0l-1,0.3C92.3,21.9,91.8,20.8,91,19.9"/>
	
		<path id="path178" style="clip-path:url(#SVGID_00000047739778045347666850000003281162567980143804_);fill-rule:evenodd;clip-rule:evenodd;fill:#FFFEFE;" d="
		M76.5,29.2c-0.1-0.4-0.2-0.7-0.2-1.1c-4.4-2.7-8.2-5.5-11-9.4c-0.4-0.3-0.6,0.7-0.4,1.9c0.4,3.2,5.1,7.9,12.4,10.9
		c-0.4-0.5-0.7-1.1-0.7-1.8c-4.9-2.7-5.9-3.1-7.9-5.4c-0.2-0.2,0-0.2,0.2-0.1C71.7,26.8,72.7,27,76.5,29.2L76.5,29.2z M77,32.4
		c-5.1-1.7-9.6-4.8-13-8.9c-0.8-0.1-0.5,1.4-0.5,2c0.1,4.4,7.1,8.3,14.7,10.1L76.7,34c-7.3-3.4-8.3-4.1-9.7-5.9
		c3.3,2.7,6.3,3.8,9.6,5.3c-0.2-0.2-0.3-0.4-0.3-0.7C76.6,32.5,76.7,32.4,77,32.4L77,32.4z M78,36.4c-4.9-0.6-9.6-2.6-13.4-5.8
		c-1.7,4,6.6,8.7,14.5,8.5c-0.8-0.4-1.4-0.9-2-1.5c-3.3,0-6.4-1.1-9.1-3c-0.2-0.2-0.1-0.4,0.2-0.2c2.6,1.7,5.7,2.7,8.8,2.8L76.9,37
		C77.4,36.7,77.4,36.5,78,36.4L78,36.4z M77.6,39.9c-4.4,0.1-8.7-1.2-12.3-3.7c0.3,2.3,2.5,4.5,5.9,5.7c2.3,0.7,4.6,1,7,1
		c0.3-0.4,0.6-0.7,1-1l-1.1-0.2c-2.6,0-5,0.1-8.2-1.7c-0.4-0.3-0.2-0.3,0-0.2c2.5,1.2,5.2,1.8,7.9,1.7c-0.4-0.2-0.7-0.4-1-0.7
		C77.3,40.4,77.3,40.1,77.6,39.9L77.6,39.9z M84.8,49.6c-2.3,4.8-9.4,5.7-11.2,3c1.4-0.6,5.2-0.9,8.5-4c-0.2,0.5-0.2,1.1-0.1,1.6
		c-1.9,1.6-2.5,1.5-4.8,2.5c-0.3,0.1-0.1,0.2,0.3,0.2c1-0.5,2.5-0.2,4.6-2.2C82.6,51,84.1,49.9,84.8,49.6L84.8,49.6z M82.5,47.4
		c-2.4,2-5.4,3.1-8.5,3.2c-2.1,0-4.1-1.4-4.2-2.7c3.2,0,6.5-0.1,9.2-1.3c-0.1,0.4,0,0.8,0.2,1c-1.5,1-2.8,1-5.5,1.2
		c-0.2,0.1-0.2,0.2,0.2,0.2c2.6-0.1,3.8-0.1,5.9-1.3C80.7,47.9,81.6,47.8,82.5,47.4L82.5,47.4z M77.7,43.7c-0.2,0.5,0.7,0.7,1.1,1.1
		c-1.6,0.4-4.5,0.2-7.5-0.5c-0.4-0.2-0.5,0-0.1,0.3c2.6,0.7,5.3,0.8,7.9,0.5l0.8,0.1c-2.7,2.4-11.7,1.7-12.6-2.9
		C70.6,43.5,74.2,44,77.7,43.7L77.7,43.7z M91,53.5c0.5-0.3,0.8-0.7,1-1.2l-0.8,0.2c0-2.2-0.8-2.2-0.6-4.4c-1.1,0.4-0.8,3-1.7,3.1
		c0.8-1.9,0.3-2.2,1.5-3.7l-0.1-0.3c-0.7,0.6-1.4,0.3-2.4,0.3c-0.2,0.9-0.4,1.5-1.1,1.8c0.6-0.6,0.5-1.1,0.7-2
		c-0.2-0.2,0.1-1.2,0-1.5c-0.7,0.2-1.4,0.3-2.1,0.3c-0.4,0.7-1,1.3-1.6,1.8c0.6-0.6,1-1.3,1.3-2.1c-0.4-0.5-0.3-1.4-0.5-2h-0.5
		c-0.5,0.9-1.4,1.5-2.4,1.6c0.8-0.4,1.5-1,2-1.7c-1.2-0.4-1.2-0.3-1.3-1.2c-0.8,0.3-1.6,0.4-2.4,0.4c0.7-0.1,1.5-0.4,2.1-0.8
		c0-0.4,0.6-0.7,1-1.3c-0.5,0-1-0.4-1.2-0.9c-0.8,0.2-1.5,0.3-2.3,0.3c0.7-0.1,1.4-0.3,2-0.6c-0.3-0.7,0.1-1.1,0.6-1.6
		c-1.1,0.1-2.1-0.1-3.1-0.5c1.1,0.1,2.2,0.2,3.3,0.1c-1.3-1.1-1.1-1.3-0.8-2c-1.3-0.6-1.9-0.4-2.6-1.3c0.7,0.3,2,0.5,3,1
		c0.2-0.3,0.6-0.5,0.9-0.6c-0.5-0.5-0.8-1.2-0.8-1.9c-1.3-0.9-3-1.4-3.5-2.7c1.1,0.9,2.3,1.6,3.6,2.3c0.2-0.5,1.2-0.7,1.6-0.6
		l0.2-0.1c-2.2-1-2.6-0.5-3.5-1c-1.6-0.9-2.3-2.2-3.6-3c0,2,0.2,3,1.4,4.2c0.9,0.8,2.1,1.1,2.9,2c-1-0.2-2.8-1.3-4.4-1.1
		c0.2,2.3,2,2.5,3.7,3.8c-1.4-0.2-2.8-0.2-3.2,0.4c0.8,2,2.2,1.5,3.6,2c-1.4,0.2-2.8,0-3.2,1.6c1.6,1.7,2.5,0.4,3.6,0.7
		c-1.3,0.3-2.8,0.8-3.2,2.4c2.1,1.7,2.3,0.2,3.7,0c-0.3,0.3-0.8,0.6-1.3,1.1c-0.7,0.6-1.1,1.5-1,2.4c1.4,0.6,2.9,0.3,4-0.7
		c-0.3,1.2-1.7,1.5-1.2,3.8c1.2,0.1,2.7-1.6,3.6-2.1c0,1.1-0.8,1.6-0.3,3.5c0.9,0.2,2.2-1,3-2.2c0.5,0.2-1.2,1.8,0.1,3.1
		c1.2-0.1,1.1-1.2,1.6-1.8C90.2,51.8,90.4,52.7,91,53.5z M84.4,32.1c0.4,0,0.3,0,0.7,0.5c0.7,0.8,0.5,1.5,1.4,2.6s0.6,2.1-0.6,2.4
		c-0.5,0.1-0.8,0.2-1.1,1c-0.2,3.2,2.6,5,5.6,5.8c0.3,0-0.1,1,0,2.3c-0.4,1.3-1.6,0.5-2.4,0.8c-0.5-0.9,0.2-1.8,0-2.2
		c-0.6,0.2-1,1.1-2.6,0.6c-0.7-0.8-0.4-1.4-0.3-2c-2.8-0.1-2.9-1.5-1.4-3c-1.4-0.2-2.6-1.9-0.2-2.6c-2.2-1.6-2-2.4,0.4-3
		c-1.1-1.5-2-2.8-0.8-3C83.8,32.2,84.2,32.2,84.4,32.1L84.4,32.1z M89.8,45.3c0-0.1-0.4-0.3-0.5-0.2L89,46.2c-0.1,0.3,0,0.4,0.2,0.2
		L89.8,45.3z M87.2,44.2c0-0.2-0.2-0.4-0.3-0.3l-0.7,0.8c-0.1,0.3,0,0.3,0.1,0.2C86.4,44.9,87.2,44.2,87.2,44.2z M85.1,42.1
		c0.2-0.1,0.2-0.5-0.1-0.4c-0.3,0.2-0.6,0.3-0.9,0.4c-0.3,0-0.4,0.2,0,0.3C84.5,42.4,84.9,42.3,85.1,42.1L85.1,42.1z M84.3,39.5
		c0.2-0.1,0.3-0.3,0-0.3l-1,0.1c-0.3,0-0.4,0.1-0.1,0.3L84.3,39.5L84.3,39.5z M83.6,36.3c-0.2,0-0.4,0.2-0.2,0.3
		c0.4,0,0.7,0.1,1,0.4c0.3,0.1,0.5,0,0.2-0.2C84.4,36.4,84,36.2,83.6,36.3z M85.4,35c0.2,0.1,0.4-0.1,0.2-0.2
		c-0.3-0.1-0.6-0.3-0.8-0.6c-0.2-0.2-0.4-0.2-0.2,0.1C84.8,34.6,85.1,34.8,85.4,35z M87.9,50.8c-0.3,4.3-7.8,8.1-9.9,5.5
		c2.8-0.4,5.6-2.9,7.1-5.8c0,0.4-0.2,1.8,0.3,1.8c-0.8,1.6-1.9,2.3-3.9,3.4c-0.2,0.2-0.2,0.2,0.3,0.1c1.8-0.9,2.7-1,4-3.4
		C86.4,52.3,87.6,51.1,87.9,50.8L87.9,50.8z M84.1,59.2c2.8-2,3.6-4.6,6.7-4.2c1.4,0.2,3.3,1.5,3.1,5.4l0.6-0.2v0.2
		c-1.1,0.7-1.8,2-1.9,4.2c-1.4-1-0.3-3.5-0.5-5.2c-0.8,1.9,0.2,3.2-2.3,5.8c-0.3-1.8-1-2.8,0.7-6.1c-0.7,0.6-1.4,0.7-2.1,1.7
		c-0.3-1-0.4-2.1-0.1-3.2C87.1,58.2,86,59.8,84.1,59.2L84.1,59.2z M92.9,54.7l-0.4,0.7c0.4,0.3,0.7,0.6,0.9,1
		C93.2,55.9,93.3,54.9,92.9,54.7L92.9,54.7z M91.2,54.7v-0.8c0.5-0.4,0.8-0.9,1-1.5l0.6,1.9l-0.6,1.1C92,55.1,91.6,54.9,91.2,54.7z
		 M86.2,56.2c0.8-1.1,1.4-2.3,1.8-3.5c0.1,0.3,0.3,0.5,0.7,0.5c0.5-0.2,0.8-0.6,1.1-1c-0.2,0.6-0.4,1.2-0.8,1.8
		c-0.1,0.3,0.2,0.3,0.4,0.2l0.8-1.5c0.1,0.5,0.4,0.8,0.8,1.1c0,0.3,0.2,0.8-0.2,0.8C89.2,54.5,87.6,55.1,86.2,56.2L86.2,56.2z
		 M85.8,61.5c-1.8,1.3-2.5,3-4,4.5c-1.2,0.7-2.1,1.3-3,0.9c-1.2-0.5-2.1-1.7-2.3-3c-0.1-1.8-2.4-2.1-3.4-1.5c0,0.5-0.2,0.9-0.4,1.3
		c0.3,0.7,1.6,1.9,2.4,0.5c0.4-0.1,0.5,0,0.4,0.2c-0.7,0.4-0.6,1.2,0.6,0.7c0,0.3-0.3,0.4,0.1,0.8l0.5-0.1c0,0.3-0.2,0.2,0.1,0.6
		h0.8c-0.6,0.7,0.7,0.5,0.5,1l-1-0.3c-1,0.1-2,0-2.9-0.4c-2-0.9-2.7,0-3,1.1c0.3,0.4,0.5,0.8,0.5,1.3c1.5,0.8,2.1,0.3,2.4-1.1
		c0.5-0.2,0.1,0.4,0.6,0.3s0.4-0.4,0.6-0.6c0.4,0.1,0,0.3,0.2,0.5c0.2-0.1,0.6,0,0.6-0.5c0.4-0.1,0.2,0.5,0.5,0.4s0.4-0.2,0.6-0.4
		c0.3,0.4,0.5,0.7,1.6,0.1c0.3,0.2-0.5,0.7-1.1,1.1l-1.9,1.4c-1.6,0-2.2,1-1.8,2.4c0.3,0.5,0.8,0.8,1.4,0.8c1.8-0.2,1.5-1.9,1.4-2.4
		c0-0.3,0.3-0.4,0.3-0.2s0.2,0.4,0.3,0.2l0.3-1.2c0.2,0,0.2,0.7,0.5,0.4s0.2-0.7,0.2-0.9c0.3,0,0.1,0.6,0.6,0.3s0.2-0.5,0.3-0.7
		l0.5,0.4c0.3,0,0.3-0.4,0.4-0.6c0.7,0.1,0.1,0.7,0.9,0.8c0.3,0,0.3-0.3,0.4-0.5l0.4,0.7c0.5,0,0-0.6,0.5-0.3l-0.1,0.9
		c-0.1,0.7,0.3,1.3,0.8,1.6c0.4,0,0.8,0.1,1.2,0.3c1.6-0.7,1.1-2.5-0.4-3c-2.7-0.2-2.4-1.1-1.5-1.5c0.4-0.4,0-0.8,0.3-1.2
		c0,0.3,0.3,0.2,0.4,0.6c0.3-0.5,0.4-0.4,0.3-1c0.5-0.1,0.2,0.8,0.7,0.5s0.1-0.5,0.3-0.7c0.2,0,0.2,0.4,0.5,0.1
		c0.4-0.3,0.1-0.5,0.2-0.8c0.2,0,0.3,0.5,0.6,0.1c0.3-0.1,0-0.4,0-0.7l0.4,0.3C85.9,63.8,85.1,63.4,85.8,61.5L85.8,61.5z M82.1,62.3
		c1-0.5,1.8-1.4,2.2-2.5c1.2,0,2.4-0.5,3.3-1.3c-0.1,1.1,0.2,2.2,0.7,3.2c0.2-0.8,0.7-1.5,1.5-1.9c-0.9,1.8-0.6,2.4-0.9,3.7
		c-0.4,1.8-1.1,3.4-3.2,3.7c1.6-2.1-0.9-4.2,1.1-6.9C85.1,60.9,84.4,63.7,82.1,62.3L82.1,62.3z M92.6,38c0.3-1.3,1.4-1.8,1.9-2.7
		c1.1-2,1.3-3.7-1.2-4.6c0.1-0.7,0.1-1.4-0.1-2c0-0.9-0.2-1.9-0.8-2.6c0.1-1.2,1.1-1.7,2.8-1.8c1.9,0.3,3.9,0.5,5.8,0.5
		c-0.3,1.3-1.2,1-1.8,1.4c2.5,0.9,1.4,2.7,2.4,4.1c-1-0.2-1.9-0.9-2.3-1.9c-0.3,0.1,0.1,1.3-0.3,1.8c-0.3,0.1-0.8-0.5-1.1-0.8
		c0.1,0.5-0.1,1.1-0.5,1.4c0.4,0.1,0.7-0.1,0.9-0.8c0.2,0.5,0.5,0.5,0.9,0.6c0.5-0.8,0.2-1,0.3-1.5c0.4,0.7,1,1.3,1.7,1.6
		c0.8,1.4,0.5,2.1,0.7,3.2c-0.9-0.2-1.6-0.9-2-1.7c0.2,1,0.9,1.9,1.8,2.4c0.8,1.3-0.1,2.8,0.9,3.8c-2.3-0.3-2.7-1-3.6-2.3
		c-0.5,1.2-0.5,2.8-1.6,3.5c-0.7-0.4-1.2-1.5-1.5-3.1C94.7,37.8,93.7,38.4,92.6,38L92.6,38z M94,26.4c0.1,0.2,0.1,0.5,0.1,0.8
		c0.3-0.2,0.5-0.1,1-0.3C94.8,26.5,94.4,26.4,94,26.4z M96,27.2c-0.7-0.9-1.7-1.4-2.8-1.3c-0.2,0.1,0.1,0.4,0.3,0.4
		c-0.2,0.5-0.3,0.7,0.1,0.9s-0.1,0.4-0.1,0.6C94.3,27.6,94.8,26.7,96,27.2L96,27.2z M91,43.2c0.3-1.7,1-3.3,2.2-4.7
		c0.9-0.2,1.7-0.7,2.2-1.4c0.2,1.2,0.8,2.3,1.6,3.1c1.3-0.9,1.3-2.2,1.8-3.5c0.5,0.8,1.4,1.5,2.3,1.8c0.9,1.1,1.4,1.7,1.4,4.3
		c-1.4-0.2-2.4-1.4-3.3-2.8c-0.4,1.5-1.2,2.8-2.3,3.8c-1.2-0.7-1.9-2.1-2.4-3.6C93.4,41.3,93,42.8,91,43.2L91,43.2z M90.8,47.5
		c-0.2-1.3,0-2.7,0.7-3.9c1.3-0.6,2.3-1.5,3.1-2.6c0.4,1.4,1.2,2.8,2.3,3.7c1.3-1,2.2-2.4,2.6-4c0.5,1.3,1.5,2.3,2.8,2.8
		c0.1,0.4,0.3,0.8,0.6,1.1c0.1,1,0.1,2.1,0,3.2c-1.6-0.3-2.5-1.6-3.3-3.1c-0.6,1.1-1.4,2.2-2.4,3c-1.3-0.7-2.4-1.9-2.8-3.4
		C93.2,45.3,92.9,47.1,90.8,47.5L90.8,47.5z M93.5,55.7l-1-3.9l0.8-1.8c0.5,0.8,0.4,1.5,1.5,2.4c1.1-0.8,1.4-1.9,2-3.1
		c0.5,1.1,0,1.3,1.5,3.3c1.4-1.2,1.1-1.9,1.7-2.8c0.3,0.8,0.7,1.5,1.2,2.1c0.2,1.2,0.1,2.4-0.4,3.5c-1-0.6-1.2-1.5-1.8-2.3
		c-0.7,0.9-0.7,2.1-2,2.6c-1.4-1-1.2-1.7-1.8-2.5C94.7,54.1,94.4,55.5,93.5,55.7L93.5,55.7z M94,64.3c2-2.5,0.6-3.2,0.7-4.8l0.8-1.4
		c0.2,1.1,0.7,2.2,1.5,3.1c1.4-1.8,1.1-2.2,1.7-3.2c0.2,0.6,0.6,1.2,1,1.8c-0.4,1.4-0.7,2.7,0.6,4.3c-0.8,0.2-1.6-0.2-2-0.9
		c0,1.1-0.4,2.2-1.2,3.1c-1.3-1.1-0.6-2.1-1-3.1C95.4,63.6,95.4,64.8,94,64.3L94,64.3z M94.4,59.2c-0.1-1-0.3-2-0.6-3
		c1-0.9,1-1.6,1.6-2.4c0.6,0.9,0.1,1,1.7,2.8c1-0.8,1.7-1.8,2.2-3c0.4,0.7,0.3,1.4,1.3,2.1c-0.4,1.1-0.5,2.2-0.5,3.3
		c-1.2-0.6-0.9-1.2-1.3-1.8c-0.5,1-0.8,2.6-1.6,2.9c-0.8-0.7-1.3-1.7-1.5-2.7C95.2,58,95.2,58.7,94.4,59.2L94.4,59.2z M91.6,52
		c-0.1-1.8-0.8-2.3-0.6-4.1c1.6-0.5,2.9-1.8,3.4-3.4c0.4,1.5,1.4,2.8,2.8,3.6c1-0.9,1.8-1.9,2.5-3.1c0.5,1.1,1.3,2.1,2.3,2.7
		c0.2,1.3,0.1,2.7-0.3,4c-1.2-0.5-1.2-1.7-1.8-2.5c-0.5,0.9-0.8,2.2-1.6,2.6c-0.7-0.9-1.3-2-1.5-3.2c-0.4,1.2-1,2.8-1.9,3
		c-0.7,0.1-1.2-1.7-1.7-2.5C92.7,50.2,93,50.7,91.6,52L91.6,52z M101.7,64.7c-0.1-1.9-0.5-3.4-1.7-4.5v-0.4l0.8,0.5
		c-0.6-2.2-0.1-2.8-0.1-4.2l0.5,0.4l0.4-0.6c2.1-1.6,4.1-1.3,6,0.2c1.1,1,2.1,2.1,3,3.2c-3,0.2-3.6-1.6-5.3-2.6
		c0.2,1.2,1,1.2,0.5,3.5c-1-0.4-1.3-1-3-1.2c2.7,1.4,2.4,2.9,2,4.8c-0.2,0.5-0.4,1-0.4,1.5c-2.3-2-1.2-3.4-1.7-5
		C102.1,61,103.2,63.8,101.7,64.7L101.7,64.7z M108,56c-1.3-1.4-2.1-3.2-2.3-5.1c-0.2,0.4-0.2,1.1-0.7,1.3c-0.1,0.6,0.5,1.2,0.6,1.8
		c-0.5-0.2-0.7-1.2-1.1-1.9c-0.6-0.3-1.2-0.7-1.7-1.2l1.2,3.5C105.4,54.5,106.9,55,108,56z M102.5,47.9c0.4,0.1,0.8,0.3,1.1,0.5
		c-0.2-0.5-0.4-1.1-0.3-1.6l0.6,0.7c0,0.8,0.2,1.6,0.5,2.4v-2.2c0.4,0.3,0.8,0.5,1.3,0.6c0.3-0.2,0.5-0.4,0.7-0.6
		c0.2,0.8,0.7,1.5,1.4,1.8c-0.6-0.7-1-1.4-1.2-2.3c0.2-0.2,0.3-0.5,0.3-0.8c0.6,0.2,1.2,0.3,1.8,0.3c0.3,0.7,1.2,1,1.8,1.5
		c-0.5-0.7-1.3-1.1-1.6-2c0.3-0.5,0.5-1.1,0.5-1.8h0.7c0.6,0.9,1.6,1.5,2.7,1.6c-0.8-0.6-1.7-0.8-2.3-1.7c1.2-0.4,1.2-0.5,1.4-1.7
		c1,0.3,2,0.5,3,0.4c-1-0.2-2-0.4-3-0.8c-0.1-0.5-0.3-1-0.7-1.5c0.3-0.1,0.6-0.2,0.8-0.5c0.9,0.1,1.8,0,2.7-0.1
		c-0.8,0-1.6-0.1-2.4-0.3c-0.1-0.6-0.3-1.2-0.6-1.7c1.2-0.1,2.4-0.4,3.5-0.9c-1.1,0.3-2.1,0.4-3.2,0.5c0.6-0.7,0.8-1.6,0.6-2.4
		c1.3-0.6,2.3-0.9,3-1.8c-0.6,0.3-1.2,0.7-1.8,0.9s-1,0.4-1.5,0.6c-0.2-0.3-0.5-0.5-0.9-0.5c0.5-0.6,0.8-1.3,0.8-2
		c1.3-0.9,2.8-1.2,3.3-2.5c-1.2,1.2-2.2,1.3-3.2,2c-0.2-0.5-0.6-0.7-1-0.6l-0.4-0.2c2.6-0.3,4-2.4,6-3.6c0.7,2.2-0.8,4-2.5,5.5
		c1-0.2,1.4-0.7,3-0.5c-0.3,1.3-1.8,2.5-3.5,3.8c1.3-0.5,2.7-0.5,3.9,0c-0.1,1-2.5,1.8-3.8,2.4c1,0.5,2.6,0,3,1.6
		c-0.6,0.8-2.2,0.6-3.2,0.9c1.2,0.2,2.3,1,2.8,2.1c-0.7,0.8-1.9,1-3.3,1c0.8,0.7,1.6,1.6,1.2,2.6c-1.3,0.6-2.8,0.2-3.7-0.8
		c0.3,1.2,1.3,1.3,0.8,3.5c-2.7,0.2-2.4-1-3.3-2c0,1.1,0.5,1.3,0,3.2c-1.1,0.4-2.3-0.8-2.5-2.4c-0.5,0.2,0.2,2.1-0.8,3.1
		c-1.5-0.2-2.3-2.2-2.5-3.8L102.5,47.9z M103.5,54.6l-1.2-3.6c-0.1,0.6-0.2,1.3-0.1,2l-0.4-0.2c0.1,0.7,0.2,1.4,0.4,2.1
		c-0.3-0.1-0.5-0.3-0.6-0.5c-0.1,0.4-0.2,0.8-0.1,1.2C102,55.2,102.8,54.8,103.5,54.6L103.5,54.6z M96.3,33c0.4,0.7,0.4,1.8,1.3,2.1
		c0.8-0.2,0.7-1.5,1.1-2.2c0.3,1.1-0.2,2.3-1.2,2.9C96.6,35.2,96.2,34.1,96.3,33L96.3,33z M110.5,31.4c-0.5,0-0.9,0.3-1.2,0.6
		c-0.6,1.1-1.4,2.1-2.3,3c-0.7,1.3-0.6,2.6,0.8,2.4c0.5-0.1,1.1,0.2,1.2,0.8c0,0,0,0.1,0,0.1c0.1,4.3-2.7,5.4-5.8,6.1
		c-0.2,1.5,0.8,3,2.3,3.3c0.9-0.5,0.9-1.5,1.2-2.2c0.6,0.2,0.2,0.8,1.7,0.7c0.4-0.6,0.6-1.4,0.4-2.2c2.4,0.4,3.2-0.6,2-3.5
		c1.5-0.4,1-1.1,0.2-2.5c1.5-1.4,1.4-2.6-0.4-3.4c1.1-1.5,1.6-2.6,0.4-2.7C110.5,31.9,110.7,31.6,110.5,31.4L110.5,31.4z
		 M104.7,45.3c0-0.1,0.3-0.3,0.4-0.2V46c0.1,0.3,0,0.4-0.2,0.2L104.7,45.3z M107,44c0-0.2,0.2-0.4,0.3-0.3l0.4,1
		c0.1,0.3,0,0.3-0.1,0.2L107,44z M109.3,42.4c-0.2-0.2-0.1-0.5,0.1-0.4l0.8,0.5c0.3,0.1,0.3,0.3,0,0.3L109.3,42.4z M110,39.6
		c-0.2-0.1-0.3-0.3,0-0.3l1,0.1c0.3,0,0.4,0.1,0.1,0.3L110,39.6z M110,37.2c-0.2,0.1-0.4-0.1-0.2-0.2c0.3-0.1,0.7-0.3,0.9-0.6
		c0.3-0.2,0.4-0.2,0.2,0.1C110.7,36.8,110.4,37,110,37.2z M108.8,35c-0.2,0.1-0.4-0.1-0.2-0.2c0.4-0.1,0.7-0.4,1-0.7
		c0.2-0.2,0.4-0.2,0.2,0.1C109.5,34.5,109.1,34.8,108.8,35z M112.5,47.7c3.8,3.2,9.8,3.7,11.5,0.2c-3.2-0.2-6.4-0.4-9-1.6
		c0,0.3,0.2,0.7-0.1,1c1.5,1,4.1,1.3,6.7,1.5c0.2,0.1,0.2,0.2-0.2,0.2c-2.6-0.1-5.1-0.3-7.2-1.4C113.6,47.7,113.1,47.8,112.5,47.7
		L112.5,47.7z M117.2,43.3c0.2,0.2,0.4,0.5,0.6,0.8c-0.5,0.1-1,0.2-1.6,0.2c2,0.9,4.9,0.5,7.5-0.6c0.4-0.2,0.5,0,0.1,0.3
		c-2.5,1.2-5.4,1.4-8,0.5c-0.5,0.2-0.9,0.2-1.4,0.1c3.7,2.1,11.2,1.8,12.2-2.9C123.6,43.2,120.4,43.6,117.2,43.3L117.2,43.3z
		 M117.2,39.7c4.1-0.1,8.1-1.4,11.5-3.6c-0.7,3.2-5,5.8-12.1,6.6c-0.3-0.4-0.6-0.7-1-1l0.7-0.2c3,0.2,6-0.6,8.5-2.3
		c0.4-0.3,0.2-0.3,0-0.2c-2.4,1.2-5.1,1.9-7.8,2.1c0.3-0.1,0.5-0.3,0.7-0.5C117.6,40.3,117.4,40,117.2,39.7L117.2,39.7z M117,35.9
		c4.6-0.5,8.9-2.5,12.3-5.6c0.5,3.7-6.1,8.5-13.8,8.4c0.8-0.4,1.7-0.8,2.4-1.3c3.3-0.5,6.3-1.8,8.9-3.9c0.2-0.2,0.1-0.4-0.2-0.2
		c-2.4,1.8-5.2,3-8.2,3.6l0.3-0.6C118.2,36.1,117.6,35.9,117,35.9L117,35.9z M117.3,32.4c5.7-2.4,9.3-5.5,12.7-8.8
		c1.5,4.9-4.7,8.8-13.7,11.6l0.8-0.8c7.3-3.4,9.4-5.4,10.7-7.2c-3,2.6-6.4,4.8-10,6.5c0.2-0.3,0.3-0.7,0.4-1.1
		C117.9,32.4,117.6,32.3,117.3,32.4L117.3,32.4z M117.5,29.3c0.1-0.4,0.2-0.7,0.2-1.1c4.3-2.5,8-5.9,11-9.9c2.9,3-2.9,8.6-12.1,13.2
		c0.4-0.5,0.7-1.1,0.7-1.8c5.1-2.5,8.5-5.3,10.3-7.8c0.2-0.2,0-0.2-0.2-0.1C124.5,24.8,121.2,27.4,117.5,29.3L117.5,29.3z
		 M107.9,61.1c1.9,1.2,2.9,3.1,4.4,4.7c0.9,0.9,1.8,1.4,2.8,0.9c1-0.8,1.9-1.8,2.5-2.9c0.5-2.2,1.7-2.3,3.1-1.9
		c0,0.6,0.1,1.3,0.5,1.8c-0.7,0.7-1.4,1-2.2,0.2c-0.4-0.1-0.4,0-0.3,0.3c0.7,0.4,0.1,1-0.8,0.9c0,0.2,0.4,0.3,0.1,0.6h-1.1
		c0,0.2,0.6,0.3,0.2,0.7h-1.2c0.9,0.9-0.8,0.8-0.6,1.4l1.5-0.7c1,0,1.9-0.1,2.8-0.4c2.4-1.1,3.4,0.2,3.3,1.5c-0.4,0.2-0.8,0.5-0.9,1
		c-1.7,0.6-2.3-0.1-2.5-1.4c-0.5-0.2-0.1,0.6-0.5,0.4c-0.4,0-0.4-0.3-0.6-0.5c-0.4,0.1,0,0.3-0.1,0.5c-0.2-0.2-0.7,0-0.8-0.6
		c-0.4-0.1,0,0.6-0.4,0.4c-0.3,0-0.6-0.1-0.7-0.3c-0.3,0.4-0.8,0.6-1.6,0.5c-0.3,0.2,0.9,0.4,1.3,0.6l2,1.3c1.6,0,2.2,0.9,1.9,2.3
		c-0.6,0.1-1.1,0.3-1.4,0.8c-2.3-1-1.4-2.1-1.3-2.6c0-0.3-0.3-0.4-0.3-0.2s-0.2,0.4-0.3,0.2v-0.6c-0.2,0-0.4,0.2-0.7,0
		s-0.1-0.4-0.1-0.6c-0.3,0-0.3,0.3-0.8,0s-0.3-0.4-0.4-0.7l-0.6,0.5c-0.3,0-0.2-0.3-0.3-0.4c-0.3,0.2,0,0.5-0.8,0.7l-0.2-0.3
		l-0.3,0.5l-0.4,0.1c-0.5,0-0.1-0.7-0.6-0.4l0.2,0.8c-0.5,0.4-0.8,1-0.7,1.6c-0.4-0.1-0.9-0.1-1.3,0c-1.6-0.7-0.9-1.8,0-2.9
		c0.9,0,2.2-0.4,2.8-0.1c0.3,0.1,0.6-0.1,0.8-0.5c-0.3-0.5-0.8-0.1-1.2-0.4l0.5-0.4c-0.7-0.3-0.8,0.3-1.4-0.1
		c-0.3-0.3,0.1-0.4,0.2-0.6l-1,0.1l-0.3-0.2c-0.2-0.2,0.5-0.2,0.6-0.6c-0.5-0.1-0.8,0.4-1.2,0.1l-0.3-0.2c0.1-0.3,0.6-0.3,0.5-0.7
		l-0.9,0.4l-0.8-0.3c0-1.4,0.7-2.3,0-4.3L107.9,61.1z M107.9,67c-0.3-0.8-0.3-1.7-0.1-2.6c0.4-1.7-0.1-3.5-1.4-4.6
		c0,0.5-0.1,1.1-0.3,1.5c-0.2-0.5-0.7-0.9-1.2-1.1C106.3,62.9,104.4,65.9,107.9,67L107.9,67z M111.9,61.9l-1.6-2.2
		c-1.6-0.1-3.1-0.8-4.1-1.9c0.1,0.5,0.2,1,0.2,1.5C108,60.1,108.6,62.1,111.9,61.9z M106.8,51c2,5,6.1,7.2,9.4,5.2
		c-2.7-0.5-5.7-3-7.3-5.8c-0.1,0.3,0,1-0.3,1.1c1.1,1.8,2.7,3.3,4.6,4.2c0.2,0.2,0.2,0.2-0.3,0.1c-2-0.8-3.7-2.3-4.7-4.2
		C107.6,51.5,107.2,51.3,106.8,51z M109.8,50c2.9,4.5,9.6,4.8,10.9,2.6c-1.7-1-5.2-1-8.4-3.9c0,0.4,0,0.8-0.1,1.2
		c1.7,1.9,4,2.2,6.6,2.8c0.3,0.1,0.1,0.2-0.3,0.2c-2.3-0.7-4.7-0.4-6.7-2.8C111,50.2,110.4,50.1,109.8,50z M93.6,70
		c-2.7,3.3-4.8,3.3-5.9-0.5c-1.7,6,4.2,8.3,7.4,1.5c0.6,2,0,3.3,2.1,6.7c2.2-3.8,1.3-4.4,2-6.7c3.3,6.6,9.2,3.9,7.3-1.4
		c-1.2,2.6-4,3.2-5.6,0.5c-0.3,0-0.6-0.1-0.8-0.3c0,0.7,0.3,1.4,0.7,2c-0.7-0.6-1.2-1.4-1.3-2.4L99,68.7c-0.4,1.4-0.1,2.5-1.7,4
		L97.1,75l-0.3-2.5c-0.9-1.1-1.5-2.4-1.6-3.8l-0.5,0.6c-0.3,1-0.8,1.9-1.4,2.7l1.1-2.6C94.2,69.6,93.9,69.8,93.6,70L93.6,70z
		 M90.8,66.7c1.7,2.1,4,1.1,4.3-2c0.3-0.2,0.6-0.5,0.9-0.9c-0.1,1.1,0.2,2.2,1,3c-0.1,0.7,0,1.5,0.2,2.1c0.1-0.7,0.2-1.4,0.1-2.2
		c1.1-0.7,1-2.1,1.2-3c0.2,0.4,0.5,0.6,0.9,0.8c0.1,3.1,2.7,3.4,3.6,1.5c2,3.1-3.1,5.9-4,1.6l-0.4,0.2c0.2,1.6-0.3,3.3-1.5,4.4
		c-1.1-1.3-1.7-2.9-1.6-4.6l-0.2-0.2l-0.2,0.2c-0.7,2-2.2,2.4-3.2,2.1c-1.1-0.3-1.7-1.4-1.4-2.5c0.1-0.2,0.1-0.4,0.2-0.5"/>
	
		<path id="path180" style="clip-path:url(#SVGID_00000047739778045347666850000003281162567980143804_);fill-rule:evenodd;clip-rule:evenodd;fill:#FBEA26;" d="
		M96.5,93.8c-0.2,0.1-0.4,0.1-0.6,0c-0.2,0.2-0.3,0.4-0.4,0.6c0,0.1,0.3,0.2,0.4,0.1C96,94.1,96.3,94,96.5,93.8z M96.8,94.9l0.1-0.8
		c-0.2-0.1-0.3,0-0.4-0.1c-0.2,0.2-0.2,0.6-0.1,0.9C96.5,94.9,96.6,95,96.8,94.9C96.8,94.9,96.8,94.9,96.8,94.9L96.8,94.9z
		 M97.4,95.3v-1.1c-0.1-0.1-0.2-0.2-0.3-0.2l-0.2,1.1C97.1,95.3,97.3,95.3,97.4,95.3L97.4,95.3z M98,95.3l-0.4-0.5v0.5
		C97.8,95.4,97.9,95.4,98,95.3L98,95.3z M96.3,94.2c-0.2,0.1-0.3,0.2-0.3,0.4l0.3,0.1C96.3,94.6,96.3,94.4,96.3,94.2"/>
	
		<path id="path182" style="clip-path:url(#SVGID_00000047739778045347666850000003281162567980143804_);fill-rule:evenodd;clip-rule:evenodd;fill:#FFFEFE;" d="
		M103.4,100.2l0.6,1.7l-1.5,0.6l0.4,1.1l1.5-0.6l1.1,2.9l-1.4,0.6l0.4,1.2l1.5-0.6l0.9,2.3l1.3-0.4l-1-2.4l1.6-0.6l-0.4-1.1
		l-1.5,0.7l-1.1-3l1.6-0.6l-0.4-1.1l-1.7,0.6l-0.7-1.6L103.4,100.2L103.4,100.2z M97.8,91.9v1.3c0.3-0.2,0-1.4,0.7-0.4
		c0.3-0.2,0.6-0.2,0.9,0l0.1-0.4c0.4,0.1,0.8,0.3,1,0.6c-1.5,0.4-1,1.8-2.1,2.3c-0.4-0.4-0.6-1-1.2-1.3c0.1-0.2,0.1-0.4,0-0.6
		c0,0.8-0.4,0.6-0.6,0.3c-0.5,0-0.8-0.3-0.3-0.6l0.7-0.6v-0.5C97.2,91.8,97.5,91.8,97.8,91.9L97.8,91.9z M116.6,98
		c-0.2,0.8-1,1.3-1.8,1c-0.3-0.1-0.5-0.2-0.7-0.4c0.8-0.2,1.4-0.5,1.4-1.1c-0.6,0.8-1.7,1.1-2.1,0.1c0.3,0.2,0.6,0.1,0.8-0.1
		c0,0,0-0.1,0.1-0.1c-1,0-1.2-0.9-1.5-1.4c-0.3-0.4-0.6-0.4-0.8,0.1c0-0.8-0.3-1.6-0.8-2.2l-0.2,0.8c-0.2-1-1.1-1.3-1.3-2.3
		c-0.1,0.3-0.1,0.7,0,1c-0.4-0.8-1-1.5-1.8-2l-0.1,0.5c-0.8-1.2-2.1-1.9-3.5-2c0-0.2,0-0.4-0.1-0.6c0.8-0.3,1.8-0.2,2.6,0.1
		c0.7,0.6,1.8,0.6,2.6,0c0,0.3-0.3,0.6-0.9,0.9c0.6,0.5,1.5,0.4,2.1-0.1c0.2,0.3-0.1,0.6-0.4,0.8c1,0.1,2,0,3-0.3
		c-0.4,0.6-1.1,1.1-1.9,1.3c0.9,0.1,1.8,0.1,2.7-0.1c-0.1,0.3-0.4,0.6-1.1,0.9c0.4,0.3,1,0.4,1.5,0.3c0.8-0.2,1.3-1,1.2-1.8
		c0.5,0.2,0.8,0.9,0.6,1.4c-0.1,0.1-0.1,0.2-0.2,0.3c0.2,0.1,0.4,0.1,0.7,0.1c0.1,0.5-0.3,0.7-1.1,0.6c0.7,0.6,1.6,0.8,2.4,0.6
		c-1.5-0.6,0-2,0.5-2c0.9-0.1,1.7,0.5,1.8,1.4c0,0.1,0,0.1,0,0.2c-0.5,0.2-0.9,0.1-1-0.3c-0.3,0.3,0.1,0.5,0,0.8c-1,0.6-1,1.3-0.4,2
		c-0.3-2,1.6-3.2,3.1-1.1c0.9,1.2,0.6,3-0.3,3.4c0-0.3,0.2-0.6,0-0.9c0,0.3-0.1,0.7-0.3,0.9c-0.5,0.2-0.3-0.1-0.5-0.2
		c-0.1,0.4-0.4,0.5-0.8,0.4c0.5-0.5,0.7-1.3,0.6-2c-0.1-0.2-0.3-0.3-0.3,0c0.1,1.3-0.2,2.4-1.8,1.9c0.1-0.1,0.1-0.2,0.1-0.4
		c0.3,0,0.7-0.1,0.9-0.3c0.2-0.2,0.1-0.3-0.1-0.2c-0.2,0.2-0.5,0.3-0.8,0.3c0-2.1-1.4-2.8-2.7-2c-0.3,0.3-0.2,0.4,0.1,0.3
		c1.5-0.9,2.5,0.4,2.2,2.2l-0.3-0.2c0.1,0.3,0,0.4-0.5,0.5c0-0.2,0-0.4,0-0.6c-0.2,0.2-0.1,0.7-0.4,0.8h-0.6c0.3-0.2,0.5-0.6,0.6-1
		L116.6,98z M105.1,89.5c-0.3,0-0.3,0.1,0.1,0.2c3.5,0.9,6.6,3,8.6,6l-0.1-0.8c0.7,0.2,1,0.6,1.4,0.6s0.7-0.3,1-0.7
		c-1.7,0.6-2.3,0-3.4-0.9c0.5-0.2,1-0.2,1.4-0.1c-0.4-0.2-1-0.2-1.1-0.5c-0.1,0.5-0.2,0.3-0.4,0.4C109.8,91.3,106.9,89.7,105.1,89.5
		"/>
	
		<path id="path184" style="clip-path:url(#SVGID_00000047739778045347666850000003281162567980143804_);fill-rule:evenodd;clip-rule:evenodd;fill:#367DB4;" d="
		M101.8,92.9c1.7-0.3,0.3,2.1-0.3,0.8c-0.8-1.5-2.7-2.3-4.8-2.2c0-0.2,0.1-0.4,0.3-0.6c0.5,0.1,1,0.2,1.5,0.5c0.3,0.1,0.3-0.2,0-0.4
		c-0.4-0.2-0.9-0.3-1.3-0.4c0-0.2,0.1-0.3,0.3-0.3c0.6,0.1,1.2,0.4,1.7,0.7c0.2,0.2,0.3-0.1,0-0.4c-0.5-0.3-1-0.5-1.5-0.6
		c0-0.1,0.1-0.2,0.2-0.3l1.3,0.8c0.3,0.2,0.4,0,0.1-0.4l-1.2-0.6c0.7-0.5,1.7,0.5,2.1,0.9L101.8,92.9L101.8,92.9z M95.5,94.7
		c1.2,1.1,2.4,1.3,3.5,0.3c0.5-0.4,0.3-1.4,1.5-2l0.3,0.3c-0.8,0.7-1.2,1.7-1.1,2.7c-2,1.1-3.3,0.9-4.2-0.2L95.5,94.7z M95.7,96.5
		c1.3,0.6,2.9,0.6,4.2-0.1c0.1,0.4,0.3,0.8,0.6,1.1c-1,2.1-4.4,2-5.5-0.1C95,96.8,95.5,96.8,95.7,96.5z M95,98l0.7,0.8l-1.4,2.7
		l-0.9-0.6C93.7,99.9,94.3,98.9,95,98z M93.6,99.6c-1-0.7-1.9-1.6-2.6-2.6l-0.3,1.1c0.7,0.9,1.5,1.7,2.3,2.4L93.6,99.6L93.6,99.6z
		 M94.6,96.7c-0.1,0.4-0.1,0.8,0,1.1l-0.8,1.4c-1.1-0.8-2-1.7-2.8-2.8c0.2-0.9,1.1-1.4,2-1.2C93.5,95.8,94,96.3,94.6,96.7L94.6,96.7
		z M92.6,94.5l0.1,0.2c-1.3-0.1-2.1,0.9-2.4,2.8c-0.3,0-1.1-0.5-1.1-0.8C90.4,94.9,91.5,94.5,92.6,94.5z M92.2,94.2v-0.3
		c-2.1-0.1-2.2,0.6-3.4,1c0.1,0.5-0.3,1.1,0.2,1.4C90,95.5,90.3,94.1,92.2,94.2L92.2,94.2z M89.8,93.8l-0.2-3.4
		c-0.3-0.1-0.6,0.1-0.8,0.4l0.1,3.4C89,94.4,89.6,94.2,89.8,93.8L89.8,93.8z M92.2,93.4L92,90.5c-0.6-0.5-1.3-0.6-2-0.2
		c-0.1,1.2,0,2.3,0.1,3.5C90.8,93.5,91.4,93.4,92.2,93.4L92.2,93.4z M88.6,84.3c0.1,0,0.3,0,0.4,0.1l-0.1,0.3h-0.1
		c-0.4-0.1-0.8,0.2-0.9,0.6c-0.1,0.4,0.2,0.8,0.6,0.9c0.1,0,0.2,0,0.2,0c0.2,0,0.4-0.1,0.6-0.2h0.1l0.1,0.1
		c-0.2,0.3-0.6,0.4-0.9,0.4c-0.6,0-1.1-0.5-1.1-1.1C87.5,84.8,88,84.3,88.6,84.3L88.6,84.3z M89.9,84.2c0-0.5-0.3-0.7-0.5-0.3
		l-0.3,1.2c0,0.4,0.6,0.6,0.6,0.2L89.9,84.2z M90.8,84.5c0-0.5-0.3-0.7-0.5-0.3L90,85.4c0,0.4,0.8,0,0.8-0.4L90.8,84.5L90.8,84.5z
		 M91.7,83.7c0-0.5-0.6-0.4-0.7,0l0.1,0.9c0,0.4,0.6,0.6,0.6,0.2V83.7L91.7,83.7z M92.4,84c0-0.5-0.4-0.7-0.5-0.3V85
		c0,0.4,0.8,0.3,0.8,0L92.4,84z M93.7,81.8c0.6,2.1,0.8,4.3,0.5,6.5l1.3-0.1c-0.4-2.2-0.6-4.4-0.4-6.6L93.7,81.8z M95.4,85.4
		l20.2-1.1c-0.4,0.3-0.9,0.6-1.4,0.7l-18.7,1.2L95.4,85.4L95.4,85.4z M95.5,84.3l17.7-0.9c0.9,0,1.7,0.2,2.5,0.6L95.4,85L95.5,84.3
		L95.5,84.3z M92.6,83.9c1.5-0.2,1.2,1.8,1,2.7c-0.2,0.4-0.5,0.6-0.9,0.8l-0.3,2.9c-1.3-0.7-2.9-0.8-4.2-0.1l1.2-2.5
		c0.5,0.1,0.9,0,1.2-0.5c-1,0.5-1.3-0.1-1.1-1.1c0.2,0.1,0.5,0.1,0.8,0c0.1,0.5,0.6,0.9,1.1,0.9c-0.3-0.3-0.8-0.4-0.8-1
		c0.2-0.1,0.4-0.3,0.4-0.6c0.2,0.1,0.5,0.1,0.7-0.1c0.5,0.3,1.2-0.1,1.8,0C93.5,85,92.7,84.8,92.6,83.9L92.6,83.9z M100.7,97.4
		c-1.1-1.6-0.8-2.8,0.3-3.6c0.9,2,2.9-1,0.8-1.2l-1.5-2.7c2-0.3,3.3,0.4,3.2,3.5c-0.2,0.8-0.6,1.6-1.2,2.2c-0.3,0.3-0.4,0.8-0.1,1.2
		C101.6,96.7,101.1,96.9,100.7,97.4L100.7,97.4z M100.6,99c-0.1-1,0.7-1.9,1.7-2c0.8-0.1,1.5,0.4,1.8,1.1
		C102.9,98.5,101.8,98.6,100.6,99z M100.1,98.8c-1.2,0.9-2.8,1-4.1,0.2l-1.5,2.7l1,2.5c2.2,0,3.2,1.2,4.8,1.1
		c1.8-2.5-1.3-4.4-1.9-1.5l-0.7-1.7c0-1,1.2-2,2.6-2.8L100.1,98.8L100.1,98.8z M102.8,89.9c0.2-0.3,0.5-0.5,0.8-0.6
		c0.1,0.2,0.2,0.4,0.2,0.6c-0.3,0.1-0.5,0.2-0.7,0.4C103.1,90.1,103,90,102.8,89.9L102.8,89.9z M98.3,102.7l-0.3-0.9
		c2-3.4,6.7-2.1,9.3-5.1c3.3,4.8,4.5,9.7,1.2,15.3c-3.5-0.8-6.4-3.4-7.7-6.8C102.6,103,99.6,100.3,98.3,102.7L98.3,102.7z
		 M102.8,99.9l0.6,1.7l-1.5,0.6l0.7,1.8l1.5-0.6l0.8,2.2l-1.5,0.6l0.7,2l1.5-0.6l0.9,2.4l2-1l-1-2.3l1.7-0.6l-1-1.8l-1.5,0.6
		l-0.8-2.2l1.7-0.7l-0.8-1.7l-1.6,0.6l-0.7-1.6L102.8,99.9z M84,125.5c1.1-2.5,1.8-5.1,1.8-7.8c-0.4-0.1-0.8-0.2-1.1-0.5
		c-0.3,2.7-0.8,5.4-1.4,8L84,125.5L84,125.5z M85.4,125.8c0.4-3.4,3-4.8,2.8-7.6c-0.6-0.2-1.3-0.3-1.9-0.3c-0.4,5-1.2,5.5-1.8,8.1
		L85.4,125.8z M88.9,117.6l-4.2-2.6c-0.2,0.6-0.1,1.1,0.1,1.7C85.5,117.2,87.3,117.5,88.9,117.6L88.9,117.6z M89.1,117l-2.3-3.4
		c-1.2-0.1-2.2,0.2-2,0.8C86.1,115.5,87.5,116.4,89.1,117L89.1,117z M88.8,115.8l0.9,1.2l0.6-0.2l-0.2-1.1L88.8,115.8L88.8,115.8z
		 M92.8,114.8c-0.8,0.3-1.6,0.5-2.4,0.6l0.3,1.1c0.7-0.1,1.5-0.2,2.2-0.4L92.8,114.8z M95.5,113.6c-0.8,0.4-1.7,0.7-2.4,1l0.2,1.3
		c0.8-0.2,1.5-0.4,2.2-0.7C95.7,114.7,95.7,114.1,95.5,113.6L95.5,113.6z M98.5,111.9c-0.8,0.6-1.6,1.1-2.5,1.6c0.1,0.5,0.1,1,0,1.5
		l2.2-1.1L98.5,111.9L98.5,111.9z M88.2,115.2c2.8-0.2,5.3-0.6,9.7-3.6c-1.1-1.2-2.5-2.4-3.7-2.4c-3.6,1.8-7.3,3.5-6.8,4.6
		L88.2,115.2L88.2,115.2z M103.4,111.2c-4.7,2.3-5.8-1.6-8.7-2.4l0.3-0.3c0.4,0.2,1,0.2,1.4,0c0.5,0,1-0.1,1.4-0.4
		c0.2,0.3,0.5,0.6,0.9,0.6l0.7,1.4l1.1-0.6l2.4,0.1C103.4,110.1,103.5,110.6,103.4,111.2L103.4,111.2z M99.8,109.5
		c0.8-0.4,1.5-1.1,1.9-1.9c-0.5-0.6-0.9-1.2-1.2-1.9c-0.9-0.1-1.8-0.3-2.6-0.8c-0.9-0.3-1.8-0.5-2.7-0.5c-0.9,0.1-1.1,0.5-0.6,0.8
		c0.8-0.4,1-0.2,1.2,0.2c-0.7-0.2-1.5,0.1-1.8,0.7c-0.2,0.1-0.2,0.3-0.1,0.5c0,0,0,0,0,0.1c0.2,0.1,0.4-0.3,0.8-0.4
		c-0.2,0.3-0.4,0.5-0.5,0.8c0,0.3,0.1,0.3,0.4,0.3l0.3-0.4c0.2-0.2,0.3-0.1,0.2,0.2l-0.4,0.6l0.7,0.5c0.3,0.1,0.7,0,1-0.2
		c0.4,0,0.8,0,1.2-0.2c0.1-0.6,0.2-1.1,0.4-1.7c0.3,0.6-0.3,1.6,0.3,1.9c0.5,0.1,0.3-0.5,0.4-0.8s0.3-0.1,0.3,0.2
		c-0.1,0.4-0.1,0.8,0,1.1L99.8,109.5L99.8,109.5z M99,112c1.1,0.2,2.3,0.3,3.4,0.2c0.1,1.2-2.1,1.6-3.7,1.4L99,112z M101,109.2
		c0.3-0.3,0.6-0.7,0.8-1.1c0.3,0.4,0.6,0.7,0.9,1.1L101,109.2z M85.6,127h-1.2l-0.1,0.8c0.3,0.4,0.8,0.4,1.2,0.2V127L85.6,127z
		 M83.4,127.2l0.1,0.6l0.5-0.1l0.1-0.6C84.1,127.1,83.4,127.2,83.4,127.2z M83.3,125.5l0.6,0.3l-0.2,0.3h-0.4l-0.2-0.3L83.3,125.5z
		 M78.9,129.4c-0.3,0.1-0.6-0.1-0.8-0.4c-0.1,0.3-0.1,0.6-0.1,1C78.3,129.9,78.6,129.7,78.9,129.4L78.9,129.4z M80.2,128.5
		c-0.5-0.3-0.8-0.8-0.8-1.4l-0.4,0.3c0,0.6,0.3,1,0.9,1.2L80.2,128.5z M79.4,129c-0.5-0.4-0.8-0.5-0.8-0.9l-0.2,0.4
		c0,0.6,0.1,0.6,0.8,0.8L79.4,129z M80.3,126.4c0.1,0.3,0.4,0.6,0.7,0.7c0,0.4-0.2,0.7-0.5,1c-0.5-0.3-0.8-0.8-0.7-1.3L80.3,126.4z
		 M81.5,126c0,0.3-0.1,0.6-0.2,0.9c-0.3-0.1-0.4-0.3-0.5-0.6C81,126.1,81.2,126,81.5,126"/>
	
		<path id="path186" style="clip-path:url(#SVGID_00000047739778045347666850000003281162567980143804_);fill-rule:evenodd;clip-rule:evenodd;fill:#FBEA26;" d="
		M83.2,126.4v0.4l4.4-0.2l-0.2,1.1l0.9-0.9l1.2,1.1l-0.3-1.1l1.4,0.2l-1.2-0.8l1-0.8l-1.5,0.1l-0.3-1.7l-0.5,2l-1.1-0.6l0.6,1
		C86.2,126.2,84.7,126.2,83.2,126.4L83.2,126.4z M82.3,124.6c0.3,0,0.5,0.2,0.5,0.5c0,0,0,0,0,0c0,0.3-0.2,0.5-0.5,0.5
		c-0.3,0-0.5-0.2-0.5-0.5C81.8,124.9,82,124.6,82.3,124.6C82.3,124.6,82.3,124.6,82.3,124.6z M82.7,125.9l0.4,2.1
		c-1.1,0-1.5,0.4-2.4,0.4c0.5-0.8,0.8-1.7,1.1-2.6C82.1,126.1,82.5,126.1,82.7,125.9L82.7,125.9z M84.3,118.7
		c-0.7,1.7-1.2,3.4-1.7,5.2h0.2l1.3-3.3C84.1,119.9,84.1,119.3,84.3,118.7"/>
	
		<path id="path188" style="clip-path:url(#SVGID_00000047739778045347666850000003281162567980143804_);fill-rule:evenodd;clip-rule:evenodd;fill:#FBEA26;" d="
		M80.2,97.9c0.4,0,0.7,0.3,0.7,0.6c0,0.4-0.3,0.7-0.6,0.7c-0.4,0-0.7-0.3-0.7-0.6c0,0,0,0,0,0C79.6,98.2,79.8,97.9,80.2,97.9z
		 M79.3,98.9c0,0.3,0.2,0.5,0.4,0.6c-1.3,1.1-2.7,2.2-4.2,3c-0.1-0.3-0.2-0.5-0.4-0.7C76.5,101,77.9,100,79.3,98.9z M81.1,99
		l0.4,0.2c0,0.5,0.1,1.1,0.4,1.5c-0.1,0.3-0.3,0.6-0.6,0.8c0-0.7-0.1-1.4-0.4-2.1C81,99.3,81.1,99.2,81.1,99z M80.9,96.2l0.5,0.5
		c0.1,0.5,0,1-0.3,1.4c-0.2-0.3-0.3-0.5-0.5-0.6C80.8,97.4,80.8,96.7,80.9,96.2z M77.4,95.2c1.1,0.6,2,1.4,2.7,2.4
		c-0.3,0.1-0.6,0.2-0.7,0.4c-0.8-0.9-1.7-1.7-2.8-2.2C76.7,95.4,77,95.2,77.4,95.2z M74.4,101.6c-0.4-0.7-1-1.3-1.6-1.8
		c-0.3,0.1-0.4,0.5-0.6,0.7c0.6,0.4,1,0.9,1.4,1.5C73.8,101.8,74.1,101.7,74.4,101.6L74.4,101.6z M75.5,102.8
		c0.2,0.3,0.4,0.5,0.7,0.6c0,0.2-0.1,0.4-0.3,0.5c-0.2-0.1-0.5-0.3-0.6-0.5C75.5,103.2,75.5,103,75.5,102.8"/>
	
		<path id="path190" style="clip-path:url(#SVGID_00000047739778045347666850000003281162567980143804_);fill-rule:evenodd;clip-rule:evenodd;fill:#FBEA26;" d="
		M74.4,101.9c0.4,0,0.8,0.4,0.8,0.8c0,0.4-0.4,0.8-0.8,0.8c-0.4,0-0.8-0.4-0.8-0.8C73.6,102.3,73.9,101.9,74.4,101.9z M74.4,102.2
		c0.3-0.1,0.5,0.1,0.6,0.4c0.1,0.3-0.1,0.5-0.4,0.6c-0.1,0-0.1,0-0.2,0c-0.3,0.1-0.5-0.1-0.6-0.4c-0.1-0.3,0.1-0.5,0.4-0.6
		C74.3,102.2,74.3,102.2,74.4,102.2"/>
	
		<path id="path192" style="clip-path:url(#SVGID_00000047739778045347666850000003281162567980143804_);fill-rule:evenodd;clip-rule:evenodd;fill:#FBEA26;" d="
		M74.3,113.5c1.8-1.4,5.2-2,8.7-2.1c1.8-0.1,3.6,0,5.4,0.2l-0.2,0.3c-0.1,0-0.1-0.1-0.2-0.1c-0.2,0-0.4,0.1-0.4,0.3c0,0,0,0,0,0
		c0,0.1,0.1,0.2,0.2,0.3l-0.1,0.2l-0.9,0.1c-4.9-0.3-10,1.3-12.1,3.3C74.6,115.2,74.5,114.3,74.3,113.5L74.3,113.5z M86.1,111.8
		c0.2,0,0.3,0.2,0.3,0.3c0,0.2-0.1,0.4-0.3,0.4c-0.2,0-0.4-0.1-0.4-0.3c0,0,0-0.1,0-0.1C85.8,112,85.9,111.8,86.1,111.8z
		 M84.2,111.6c0.2,0,0.5,0.1,0.5,0.4s-0.1,0.5-0.4,0.5s-0.5-0.1-0.5-0.4c0,0,0,0,0-0.1C83.8,111.9,84,111.7,84.2,111.6z M82.3,111.8
		c0.3,0,0.5,0.2,0.4,0.5c0,0.2-0.2,0.4-0.4,0.5c-0.2,0-0.5-0.2-0.5-0.5l0,0C81.8,112,82,111.8,82.3,111.8z M80.4,111.8
		c0.2,0,0.5,0.3,0.5,0.6s-0.2,0.6-0.5,0.6s-0.5-0.3-0.5-0.6S80.2,111.8,80.4,111.8L80.4,111.8z M78.4,112.1c0.3,0,0.5,0.3,0.5,0.8
		s-0.2,0.8-0.5,0.8s-0.5-0.3-0.5-0.8S78.1,112.2,78.4,112.1L78.4,112.1z M76.7,112.7c0.3,0,0.6,0.3,0.6,0.8s-0.2,0.8-0.5,0.8
		s-0.6-0.3-0.6-0.8S76.3,112.8,76.7,112.7L76.7,112.7z M75.1,113.5c0.2,0,0.4,0.4,0.4,0.8s-0.2,0.8-0.4,0.8s-0.4-0.3-0.4-0.8
		S74.9,113.5,75.1,113.5"/>
	
		<path id="path194" style="clip-path:url(#SVGID_00000047739778045347666850000003281162567980143804_);fill-rule:evenodd;clip-rule:evenodd;fill:#FFFEFE;" d="
		M86.1,111.9c0.1,0,0.2,0.1,0.2,0.2c0,0.1-0.1,0.2-0.2,0.2c0,0,0,0,0,0c-0.1,0-0.2-0.1-0.2-0.2c0,0,0,0,0,0
		C85.9,112,86,111.9,86.1,111.9C86.1,111.9,86.1,111.9,86.1,111.9z M84.2,111.9c0.1,0,0.2,0.1,0.2,0.2c0,0.1-0.1,0.2-0.2,0.2
		s-0.2-0.1-0.2-0.2C84,112,84.1,111.9,84.2,111.9z M82.3,112c0.2,0,0.3,0.1,0.3,0.3l0,0c0,0.2-0.1,0.3-0.3,0.3
		c-0.2,0-0.3-0.2-0.2-0.3C82.1,112.1,82.2,112,82.3,112z M80.4,112.1c0.2,0,0.3,0.2,0.3,0.3c0,0.2-0.2,0.3-0.3,0.3
		c-0.2,0-0.3-0.2-0.3-0.3c0,0,0,0,0,0C80.1,112.2,80.2,112.1,80.4,112.1C80.4,112.1,80.4,112.1,80.4,112.1z M78.4,112.5
		c0.2,0,0.3,0.2,0.3,0.4s-0.1,0.4-0.3,0.4s-0.3-0.2-0.3-0.4S78.2,112.5,78.4,112.5L78.4,112.5z M76.7,113c0.2,0,0.3,0.2,0.3,0.4
		s-0.1,0.4-0.3,0.4s-0.3-0.2-0.3-0.4S76.5,113,76.7,113z M75.1,113.9c0.2,0,0.3,0.2,0.3,0.5s-0.1,0.5-0.3,0.5s-0.2-0.2-0.2-0.5
		S74.9,113.9,75.1,113.9L75.1,113.9z M88,112c0.1,0,0.2,0,0.2,0.1s0,0.2-0.1,0.2c0,0-0.1,0-0.1,0c-0.1,0-0.2,0-0.2-0.1
		S87.8,112,88,112C87.9,112,88,112,88,112"/>
	
		<path id="path196" style="clip-path:url(#SVGID_00000047739778045347666850000003281162567980143804_);fill-rule:evenodd;clip-rule:evenodd;fill:#FBEA26;" d="
		M76.4,104.4c1.1,0.6,2.2,1.1,3.4,1.4c4.6,1.3,9.2,1,13.5,0.3l0.1,0.8c-5.5,1.8-13.4,2.6-17-0.1C76.6,106.1,76.6,105.2,76.4,104.4
		L76.4,104.4z M77.8,105.8c0.4,0,0.7,0.4,0.7,0.8c0.1,0.3-0.1,0.7-0.5,0.8c0,0-0.1,0-0.1,0c-0.4,0-0.7-0.4-0.7-0.8
		C77.1,106.2,77.4,105.9,77.8,105.8C77.7,105.8,77.8,105.8,77.8,105.8z M79.9,106.6c0.4,0,0.6,0.3,0.6,0.6s-0.3,0.6-0.6,0.6
		s-0.6-0.3-0.6-0.6l0,0C79.3,106.9,79.6,106.6,79.9,106.6z M81.8,107c0.3,0,0.6,0.3,0.6,0.6c0,0.4-0.3,0.6-0.6,0.6
		c-0.4,0-0.7-0.2-0.7-0.6c0-0.4,0.2-0.7,0.6-0.7C81.6,107,81.7,107,81.8,107z M83.7,107.2c0.3,0,0.6,0.2,0.6,0.6
		c0,0.3-0.2,0.6-0.6,0.6c-0.3,0-0.6-0.2-0.6-0.6c0,0,0,0,0,0C83.1,107.5,83.4,107.2,83.7,107.2z M85.5,107.3c0.3,0,0.5,0.2,0.6,0.5
		c0,0.3-0.3,0.5-0.6,0.5c0,0,0,0,0,0c-0.3,0-0.5-0.2-0.5-0.5S85.3,107.2,85.5,107.3L85.5,107.3z M87.3,107.2c0.3,0,0.5,0.2,0.5,0.4
		c0,0.3-0.3,0.5-0.5,0.5c-0.3,0-0.5-0.1-0.5-0.4s0.1-0.5,0.4-0.5C87.2,107.2,87.3,107.2,87.3,107.2z M89,107.1
		c0.3,0,0.4,0.3,0.4,0.5c0,0.3-0.3,0.4-0.5,0.4c-0.2,0-0.4-0.2-0.4-0.5C88.5,107.3,88.7,107.1,89,107.1L89,107.1z M90.7,107
		c0.2,0,0.4,0.2,0.4,0.4c0,0,0,0,0,0c0,0.3-0.1,0.5-0.4,0.5c-0.3,0-0.5-0.1-0.5-0.4C90.2,107.2,90.4,107,90.7,107
		C90.6,107,90.7,107,90.7,107z M91.9,106.8c0.1,0,0.3,0.1,0.3,0.2c0,0,0,0,0,0c0,0.1-0.1,0.3-0.3,0.2c-0.1,0-0.3-0.1-0.3-0.2
		C91.6,106.9,91.7,106.8,91.9,106.8C91.9,106.8,91.9,106.8,91.9,106.8"/>
	
		<path id="path198" style="clip-path:url(#SVGID_00000047739778045347666850000003281162567980143804_);fill-rule:evenodd;clip-rule:evenodd;fill:#FFFEFE;" d="
		M90.7,107.2c0.1,0,0.2,0.1,0.3,0.2c0,0.1-0.1,0.2-0.3,0.2c0,0,0,0,0,0c-0.1,0-0.2-0.1-0.3-0.2C90.4,107.3,90.5,107.2,90.7,107.2
		C90.6,107.2,90.6,107.2,90.7,107.2z M89,107.4c0.1,0,0.3,0.1,0.3,0.2c0,0.1-0.1,0.3-0.2,0.3c0,0-0.1,0-0.1,0
		c-0.2,0-0.3-0.1-0.3-0.3C88.7,107.5,88.8,107.3,89,107.4C89,107.4,89,107.4,89,107.4L89,107.4z M87.3,107.4c0.1,0,0.2,0.2,0.2,0.3
		c0,0.1-0.2,0.2-0.3,0.2c-0.1,0-0.2-0.1-0.2-0.3C87,107.5,87.2,107.4,87.3,107.4L87.3,107.4z M85.5,107.5c0.2,0,0.3,0.1,0.3,0.3
		c0,0,0,0,0,0c0,0.2-0.2,0.3-0.3,0.3c-0.2,0-0.3-0.1-0.3-0.2c0-0.2,0.1-0.3,0.2-0.3C85.4,107.5,85.5,107.5,85.5,107.5z M83.7,107.5
		c0.2,0,0.3,0.2,0.3,0.3c0,0.2-0.2,0.3-0.3,0.3c-0.2,0-0.3-0.2-0.3-0.3c0,0,0,0,0,0C83.3,107.6,83.5,107.5,83.7,107.5L83.7,107.5z
		 M81.7,107.2c0.2,0,0.4,0.1,0.4,0.3s-0.1,0.4-0.3,0.4c0,0-0.1,0-0.1,0c-0.2,0-0.4-0.1-0.4-0.3s0.1-0.4,0.3-0.4
		C81.6,107.2,81.7,107.2,81.7,107.2z M79.9,106.9c0.2,0,0.4,0.2,0.4,0.4c0,0.2-0.2,0.4-0.4,0.4c-0.2,0-0.4-0.2-0.4-0.4
		C79.5,107.1,79.7,106.9,79.9,106.9z M77.8,106.1c0.2,0,0.4,0.2,0.4,0.4c0,0.2-0.1,0.4-0.3,0.4c0,0,0,0-0.1,0
		c-0.2,0-0.4-0.2-0.4-0.4C77.4,106.4,77.6,106.2,77.8,106.1C77.8,106.1,77.8,106.1,77.8,106.1"/>
	
		<path id="path200" style="clip-path:url(#SVGID_00000047739778045347666850000003281162567980143804_);fill-rule:evenodd;clip-rule:evenodd;fill:#FBEA26;" d="
		M105,112.9l-0.3,0.2c1.7,1.1,2.7,2.9,2.9,4.8l-4.1-0.9c-0.2-1.6-0.7-2-1-2.9c-0.4,0.1-0.8,0.4-1.1,0.7c0.5,0.5,0.8,1.1,1,1.8h0.2
		c0.6,0,1.2,0.5,1.2,1.2s-0.5,1.2-1.2,1.2c-0.1,0-0.2,0-0.3,0c0.4,1.5-0.1,2.9,1.9,4.4l0.7-0.2l-0.3-0.4c-0.6-1.1-0.9-2.4-0.9-3.6
		c1.2,0.1,2.4,0.3,3.5,0.6c-0.1-0.2-0.1-0.4-0.1-0.5c0-0.6,0.5-1.2,1.2-1.2c0,0,0,0,0,0c0.3,0,0.6,0.1,0.8,0.3l-0.1-0.4
		c0.1-1.6-0.6-3.2-2.1-4.8C106.3,112.9,105.7,112.9,105,112.9L105,112.9z M102.4,116.7h-2.8c-0.5,0.4-0.8,0.9-1,1.5
		c1.2,0.1,2.3,0.3,3.1,0.3c-0.1-0.2-0.2-0.4-0.2-0.6C101.5,117.3,101.9,116.9,102.4,116.7L102.4,116.7z M107.8,120.2
		c0.2,2.3,0.7,3.6,1.5,4.2l0.5,0.2l0.5-0.3l-0.5-0.6c-0.6-1.1-0.8-2.3-0.6-3.4c2.1,0.7,3.8,2.2,4.7,4.2c0.6-0.6,0.1-1.8,0.2-2.7
		c-1.3-1.4-2.8-2.4-4.5-3.1l-0.4-0.1c0.1,0.2,0.1,0.4,0.2,0.6c0,0.7-0.6,1.2-1.3,1.1C108,120.3,107.9,120.3,107.8,120.2L107.8,120.2
		z M110.4,119.6c0.1,0,0.3,0.1,0.3,0.2c0,0.1-0.1,0.3-0.2,0.3c0,0-0.1,0-0.1,0c-0.1,0-0.3-0.1-0.3-0.2
		C110.1,119.8,110.2,119.6,110.4,119.6C110.3,119.6,110.4,119.6,110.4,119.6z M111.7,120.5c0.1,0,0.2,0.1,0.2,0.2
		c0,0.1-0.1,0.2-0.2,0.2c0,0,0,0,0,0c-0.1,0-0.2-0.1-0.2-0.2C111.4,120.6,111.6,120.5,111.7,120.5
		C111.7,120.5,111.7,120.5,111.7,120.5z M113,121.6c0.1,0,0.3,0.1,0.3,0.2c0,0.1-0.1,0.3-0.2,0.3c0,0-0.1,0-0.1,0
		c-0.1,0-0.3-0.1-0.3-0.2C112.7,121.8,112.8,121.6,113,121.6C112.9,121.6,113,121.6,113,121.6z M113.7,123c0-0.1,0-0.3,0.2-0.3
		c0.1,0,0.3,0.1,0.3,0.2c0,0,0,0,0,0c0,0.1,0,0.3-0.2,0.3C113.9,123.2,113.7,123.1,113.7,123L113.7,123z M108.6,121.2
		c0.1,0,0.2,0.1,0.2,0.2c0,0.1-0.1,0.2-0.2,0.2c0,0,0,0,0,0c-0.1,0-0.3-0.1-0.3-0.2C108.3,121.3,108.4,121.2,108.6,121.2
		C108.5,121.2,108.5,121.2,108.6,121.2L108.6,121.2z M108.8,122.4c0.1,0,0.3,0.1,0.3,0.2c0,0.1-0.1,0.2-0.3,0.2c0,0,0,0,0,0
		c-0.1,0-0.3-0.1-0.3-0.2C108.5,122.5,108.6,122.4,108.8,122.4L108.8,122.4z M106.6,113.5c0.1,0,0.2,0.1,0.2,0.2
		c0,0.1-0.1,0.2-0.2,0.2c0,0,0,0,0,0c-0.1,0-0.2-0.1-0.2-0.2C106.4,113.6,106.5,113.5,106.6,113.5
		C106.6,113.5,106.6,113.5,106.6,113.5z M107.2,114.5c0.1,0,0.2,0.1,0.2,0.2c0,0.1-0.1,0.2-0.2,0.2c0,0,0,0,0,0
		c-0.1,0-0.3,0-0.3-0.2c0-0.1,0-0.3,0.2-0.3C107.1,114.5,107.2,114.5,107.2,114.5z M107.9,115.7c0.1,0,0.2,0.1,0.3,0.2
		c0,0.1-0.1,0.3-0.2,0.3c-0.1,0-0.3-0.1-0.3-0.2C107.6,115.9,107.7,115.7,107.9,115.7C107.8,115.7,107.8,115.7,107.9,115.7z
		 M108.3,116.8c0.1,0,0.2,0.1,0.3,0.2c0,0.1-0.2,0.2-0.3,0.2c-0.1,0-0.2-0.1-0.2-0.2C108,116.9,108.1,116.8,108.3,116.8L108.3,116.8
		z M106.3,118.2c0.1,0,0.3,0.1,0.3,0.3c0,0.1-0.1,0.3-0.3,0.3s-0.3-0.1-0.3-0.3C106,118.3,106.1,118.2,106.3,118.2z M104.8,117.8
		c0.1,0,0.3,0.1,0.3,0.3c0,0,0,0,0,0c0,0.2-0.1,0.3-0.3,0.3s-0.3-0.1-0.3-0.3C104.6,117.9,104.7,117.8,104.8,117.8
		C104.8,117.8,104.8,117.8,104.8,117.8z M100.8,117.3c0.1,0,0.2,0.1,0.2,0.2c0,0.1-0.1,0.2-0.2,0.2c0,0,0,0,0,0
		c-0.1,0-0.2-0.1-0.2-0.2C100.6,117.4,100.7,117.3,100.8,117.3C100.8,117.3,100.8,117.3,100.8,117.3z M99.8,117.3
		c0.1,0,0.2,0.1,0.2,0.2c0,0.1-0.1,0.2-0.2,0.2c0,0,0,0,0,0c-0.1,0-0.2-0.1-0.2-0.2C99.5,117.4,99.6,117.3,99.8,117.3z M103.4,121.1
		c0.1,0,0.2,0.1,0.2,0.2c0,0.1-0.1,0.2-0.2,0.2c0,0,0,0,0,0c-0.1,0-0.2-0.1-0.2-0.2C103.2,121.2,103.3,121.1,103.4,121.1
		C103.4,121.1,103.4,121.1,103.4,121.1z M103.1,119.8c0.1,0,0.2,0.1,0.2,0.2c0,0.1-0.1,0.2-0.2,0.2c0,0,0,0,0,0
		c-0.1,0-0.3-0.1-0.3-0.2C102.8,119.9,102.9,119.8,103.1,119.8C103.1,119.8,103.1,119.8,103.1,119.8z M102.6,115.4
		c0.1,0,0.3,0.1,0.3,0.2c0,0.1-0.1,0.3-0.2,0.3c0,0-0.1,0-0.1,0c-0.1,0-0.2-0.2-0.2-0.3C102.4,115.5,102.5,115.4,102.6,115.4"/>
	
		<path id="path202" style="clip-path:url(#SVGID_00000047739778045347666850000003281162567980143804_);fill-rule:evenodd;clip-rule:evenodd;fill:#FFFEFE;" d="
		M108.3,118.3c0.5,0,0.8,0.4,0.8,0.8c0,0.5-0.4,0.8-0.8,0.8c-0.4,0-0.8-0.4-0.8-0.8C107.4,118.7,107.8,118.3,108.3,118.3z
		 M102.7,117c0.5,0,0.8,0.4,0.8,0.8c0,0.5-0.4,0.8-0.8,0.8c-0.4,0-0.8-0.4-0.8-0.8C101.9,117.4,102.3,117,102.7,117"/>
	
		<path id="path204" style="clip-path:url(#SVGID_00000047739778045347666850000003281162567980143804_);fill-rule:evenodd;clip-rule:evenodd;fill:#FFFEFE;" d="
		M98.3,118.6c1.2-0.1,2.5,0,3.6,0.4c0.3,2.7,0.6,4.2,2.5,4.5l0.8-0.3c-1.2-1.7-1.4-2.9-1.2-3.8c1.1,0.1,2.2,0.3,3.3,0.7
		c0.6,1.6,0,3,1.9,4.7c1,0.3,1.5,0.1,1.3-0.7c-0.8-0.9-1.2-2.1-1-3.4c1.9,0.7,3.4,2.2,4.3,4v2.5c0.3,0.6,0.7,1,1.1,1
		c1,0,1.4,0.4,1.2,1.3c-0.4,1.3-1,2.6-1.8,3.8c-0.6,0.9-1,2-1.1,3.1c-0.2,0.9,0.1,2.3-1.3,2.9c-0.4-0.5-0.7-0.5-1.1-0.1
		c-0.3,0.4-0.4,0.9-0.4,1.4c-0.9,0.5-1.9,0.7-2.9,0.6c0.6-1.4,1.4-2.7,2.5-3.8c2.1-3.1,3.1-5.9,0.2-7.8c-1.6-0.6-3.4-1-5.1-1.1
		c-4.7-0.2-3.3-4.4-5.4-5.3c-0.6-0.2-0.6,0.4,0,0.5c0.6,0.4,0.7,1.2,1,1.8h-2.7C97.1,123.4,97.1,120.8,98.3,118.6L98.3,118.6z
		 M102,116.5c-0.1-0.6-0.4-1.1-0.8-1.4c-0.6,0.4-1,0.8-1.4,1.4L102,116.5z M104.3,113.2c1.5,1,2.6,2.6,2.9,4.4l-3.5-0.8
		c-0.1-1-0.5-2-1-2.8L104.3,113.2L104.3,113.2z M107.5,113.2c1.5,0,3.5,1.4,5.3,2c1-1.3,2.8-1.9,4.3-1.3c1.4,0.3,2.8,0.3,4.2,0.2
		c2.7-0.9,1.6-4.2-1.2-3.2c1.4-1.9,4-1.4,5.5,1.2c0.6-0.2,0.3-0.9,0.4-1.4c0.5,0.5,0.8,1.2,0.9,1.9c-0.7-0.1-1.1,0.2-1.1,1
		c0.2-0.4,0.6-0.6,1.1-0.7c1.3,0.2,2.6,0.5,3.8,1.1c2.1,0.4,2.7-1.6,1.4-2.6c2,0.4,1.5,4.5-3.6,5.1c-2,0.5-3.4,1.1-4.7,0.7
		c-0.5-0.2-1.1-0.7-1.4-0.6c1.2,1.7,3.4,0.8,5.3,1.2c1.9,0.7,2.6,2.4,2.1,3.4c-0.2-1.7-1.9-2.4-3.7-1.9c-1.4,0.5-3.2,1.3-4.8,1
		c-2-0.6-0.7-3-2.2-2.7c0.4,0.5,0.4,1.1,0.1,1.6c-0.3,1.1,0.1,2.4,1,3.1c-1.4-0.3-2.5-1.3-2.8-2.7c-0.1-2.1-0.7-3.8-3-4.1
		c-0.8-0.1-1.2,0.1-1,0.8c0.3,1.7,0.8,2.9,0.8,5c-1.2-1.4-2.8-2.5-4.6-3.1C109.4,116.4,108.7,114.7,107.5,113.2L107.5,113.2z
		 M80.5,120.5v0.5c0.7,0.5,1.5,0.9,2.3,1.2c0.3-1.7,0.9-3.3,1.7-4.8c-0.1-1-0.2-1.9-0.1-2.9c-0.1-0.9,1.5-1.2,2.8-1.4
		c-4.4-0.2-11.6,1.6-12.1,3.4c0.7,0.3,1.4,0.5,2.2,0.4c0.4,0.1,0.3,0.5-0.3,0.5c-1.3-0.2-1.7-0.6-2.8-0.7c-1.3-0.2-2.7-0.3-4-0.3
		c-0.7-0.5-1.6-0.5-2.4,0l-1.5,1.2c-0.4,0.9-0.3,2,0.2,2.8c0.6,1.4,1,2.9,1.1,4.4c2.4,1.5,1.7,3.5,4.2,4.6c0.2-0.8,0.1-1.5-0.1-2.3
		c-0.2-0.4-0.5-0.6-0.8-0.6c-0.2-0.6-0.4-1.1,0.3-1.2s1-0.3,0.2-1.1c-0.8-1-2.3-1-2.2-2.8c0.2-1.4-0.6-1.4-0.6-2.2L69,119
		c0.4,0.6,0.7,0.5,0.9-0.2c0.2-0.2,0.4-0.4,0.5-0.1v0.3c2.5,0.4,3.1,1.4,5,2.3c2.3,1.3,4,1.3,4.8-0.1v-0.5
		C80.2,120.2,80.5,120.2,80.5,120.5L80.5,120.5z M72,126.6l-0.3,0.1c0.8,1.1,0.2,2,0.3,2.9c0.6,0.4,0.8,0.9,1.7,1.2
		C74,129.4,73.5,128,72,126.6z M72.4,126.2c0.9-0.5,2.8,2.1,2.1,4.3l-0.4,0.2C74.3,129,73.7,127.4,72.4,126.2z M64,121.5
		c-0.9-0.7-0.5-2.4-0.7-3.6c-0.5-1.2,0-1.1,0-1.6c0.8-1.7,1.4-1.8,1.8-3.2c0.3-0.9,0.3-1.7,1.2-2.3c1-0.2,1.4-1.3,3.1-0.5
		c1.9,1.3,3.6,1.6,5.2,2.4l-0.7,0.6c0,1,0.3,0.5,0.3,2.9l-2.7-0.2c-1.1-1.1-2.7-2-2.7-3.6c-0.6,0.5-1.4,0.9-2.2,1
		c-0.2,1-0.6,1.9-1.2,2.8c0.5,0,0.5,0.4,0.4,0.9l-0.4,0.4c-0.2,1.2,0.2,1.4,0.1,2.7C64.9,120.3,64.8,121.3,64,121.5L64,121.5z
		 M66,120.3c-0.2,0.4-0.5,0.3-0.7,0.6c-0.4,0.4-0.8,0.7-1.2,1c0.2,0.4,0.3,0.9,0.5,1.4c1-0.1,1.8-1,1.8-2
		C66.4,120.9,66.3,120.5,66,120.3L66,120.3z M66.6,122c-0.2,0.9-1,1.6-2,1.6c-0.3,0.1-0.1,0.4,0.2,0.6c0.8-0.3,1.5-0.8,2-1.5
		L66.6,122L66.6,122z M84.6,101.1c-2.3-1.6-0.1-4.6-2-6.1c1,2.2,0.5,3.8-0.3,3.6c0.6-3.3-2.1-0.8-1.9-5.9c0.7,0,0.8,0.4,1.2,0.6
		c0.1,0.6,0.4,0.9,0.4,1.5c0.2-0.5-0.1-0.9,0-1.4c1.8,0.3,2.9,2,2.6,3.8c0,0.1,0,0.2-0.1,0.3c0.6-0.8,0.6-2,0-2.8
		c1.4,0.3,1.9,1.2,1.8,2.9c0.4-0.3,0-1.6,0.3-1.9c0.8,0.5,1.3,1.3,1.5,2.2c0.2,0.1,0.3,0.4,0.4,0.9c0.3,0.1,0.6,0.3,0.7,0.6
		c0.8,0.7,0.9,1.8,0.4,2.8c0.4-0.1,0.6-0.5,0.7-1.2c0.6,0.9,0.8,2,0.5,3c0.8,0.4,1.3,1.2,1.3,2.1c-0.8,0.2-1.6,0.3-2.4,0.2
		c0-1,1.1-1,0.5-2.6c-0.2,2.2-1,1.7-1.1,2.8c-0.5,0.2-1,0.2-1.5,0c0.4-2.1,1.6-2.7,1.1-6.1c-0.2,1.9-0.7,3.3-1.7,3.6
		c-0.3-0.5,0.4-0.9,0.5-1.4c0.5-1.8,0.4-3.7-0.4-4.6c0.8,2,0.4,3.5-1.2,4.2c0.7-1,0.7-2.3,0-3.3c-0.4-0.5-0.2-1.8-0.5-2.1
		c-0.1,0.7,0.2,1.4-0.1,2.2C84.5,99.2,84.3,100,84.6,101.1L84.6,101.1z M80.5,103c1.3-0.7,2-2.1,2-3.6c-0.3,0.1-0.2,1.1-0.6,0.8
		c-0.2-0.3-0.3-0.8-0.1-0.9c0.5-0.1,1-0.4,1.3-0.8c0,2,1,3.2,2.3,3c-1-0.5-0.8-0.9-0.8-1.4c0-0.7,0.7-0.8,0.9-1.2
		c1,2.3,0.1,3.3-1.7,3.7c1.3,0.3,2.6-0.2,3.5-1.2c0,1.8-1.4,1.5-0.9,4.1c0.2-1.6,1-1.2,1.7-2.2c-0.4,1.6-1,2-1.1,3.3
		c-3.4,0-6.1-0.3-7.2-1.1C80.7,104.8,80.9,103.9,80.5,103L80.5,103z M75.2,112.4c0.4-0.9,1-0.9,1.2-2.2c0.6-0.6,1.2-1.3,1.6-2
		c3,0.8,6.2,1,9.3,0.6c-0.1,1.5,1,1.8,1.4,2.5C84.1,110.9,79.3,110.8,75.2,112.4L75.2,112.4z M75.8,107.6c0.1-0.2,0.4-0.3,0.7-0.2
		c0.2,0.1,0.3,0.4,0.2,0.7c-0.1,0.2-0.4,0.3-0.7,0.2c0,0-0.1,0-0.1-0.1C75.7,108,75.6,107.8,75.8,107.6L75.8,107.6z M88.7,108.6
		l-1,0.2c0,0.9,0.4,1.7,1.2,2.2C88.7,110.2,88.6,109.4,88.7,108.6L88.7,108.6z M90.5,110.6c0-1.1-0.8-0.8-0.8-2.2l-0.6,0.2
		c-0.2,0.9-0.1,1.9,0.2,2.7L90.5,110.6z M91.3,110.2c-0.1-1.2,0.6-1.2,0.8-2.4l-2.1,0.6c0,1,0.8,0.9,0.8,2.2L91.3,110.2z M91.7,110
		c0.1-1.4,0.6-1.6,0.9-2.3c0.3,0.7,0,1.2,0.3,1.8C92.9,109.5,91.7,110,91.7,110z M81.8,97.1c0.4,0.3,0.3,1.1,0.2,1.8
		c-0.3,0.1-0.6,0.1-0.8-0.1l0.1-0.4C81.5,98.2,81.7,97.8,81.8,97.1z M73.5,103.4c-0.2-0.4-0.2-0.8-0.2-1.2c-0.4-0.6-0.9-1.1-1.5-1.4
		c-0.6,0.3-0.9,0.9-1,1.6c0.3,0.3,0.5-1.2,1.5-0.5c0.2,0.3-0.5,1.1-1.1,1.2c0.1,1,0.8,1.9,1.6,1.5C72.8,103.8,73.1,103.4,73.5,103.4
		L73.5,103.4z M74.2,103.8c0.4,0.1,0.7-0.1,1-0.3c0.1,0.3,0.4,0.5,0.7,0.6c-0.5,0.4-0.5,1.9-1.7,1.3
		C73.2,104.9,74.3,104.3,74.2,103.8z M76.5,103c-0.3,0.3-0.7-0.1-0.7-0.3c1.5-0.8,2.9-1.9,4.1-3.1c0.2,0.1,0.5,0.1,0.8,0
		c0.2,0.7,0.3,1.5,0.2,2.3c-0.2,0.8-0.3,0.9-1.2,1.1C78.3,103.2,76.7,101.9,76.5,103L76.5,103z M72,102c-0.3-0.4-0.7,0.6-0.8,0.7
		C71.4,102.7,72.2,102.5,72,102z M73,99.7l2-1.9c0.1-0.8,0.6-1.5,1.4-1.8c0.7,0.1,1.3,0.6,1.7,1.2c-0.8,0.7-1.7-1.5-2.6,1.1
		c0.2-0.1,0.4-0.4,0.6-0.3c0.3,0.8,1.2,0.2,1.6,0c-0.1-0.8,0.4-0.5,0.6-0.7l0.8,0.7c-0.1,0.2-0.1,0.4-0.1,0.5
		c-1.3,1.2-2.8,2.2-4.3,3C74.4,100.8,73.7,100.2,73,99.7L73,99.7z M76.5,97.4c0.4,0.1,0.8-0.1,1,0.5c-0.1,0.1-0.3,0.2-0.5,0.2
		C77.1,97.6,76.8,97.6,76.5,97.4L76.5,97.4z M77.9,91c1.1,1.3,3.2,2,1.6,3.7c0.1,0.1,0.5-0.1,0.6,0.1c0.5,0.8,0.6,1.8,0.1,2.6
		c-0.5-1-1.4-1.9-2.5-2.3c0.3-0.4,0.7-0.7,1.2-0.8C79.4,93.8,77.8,92.3,77.9,91L77.9,91z M77.1,93.2c-0.3,0.2-0.6,0.4-0.8,0.6
		c-0.7-0.8-1.1-1.9-1.2-2.9C75.7,91.8,76.4,92.6,77.1,93.2L77.1,93.2z M77.7,91c0.2,1,0.5,1.9,1.1,2.7c0,0.3-0.2,0.4-0.5,0.2
		C77.3,93.3,77.1,92,77.7,91L77.7,91z M73.4,93.5c0.8,4,3.2-0.3,4.2-0.1l0.8,0.8c-1.5,0.8-1.9,0.6-3.1,1.3S72.3,95.2,73.4,93.5
		L73.4,93.5z M73.4,96.4c0.4-0.5,1.4-0.2,3-1c-0.4,0.6-1.2,0.9-1.5,1.4C74.1,96.8,73.9,96.4,73.4,96.4L73.4,96.4z M108.5,129.8
		c3.8,0.7,3.3,3.6,1.9,6.2c-0.8,1.5-2.2,2.6-2.7,3.8c-1,0.2-2,0-2.9-0.5c0.3-0.8,1.3-1.1,1.9-1.7
		C110.3,134.2,109.9,131.2,108.5,129.8L108.5,129.8z M107,141.8c-0.2,0.4-1.5,1.7-0.5,1.7c1.7,0.1,3.4-0.7,4.4-2
		c0.1-0.2-0.2-0.5-0.4-0.4C109.4,141.5,108.2,141.8,107,141.8L107,141.8z M107.5,140.1c-1.1,0.2-2.2-0.1-3-0.8
		c-0.3,0.5-0.7,0.9-1.2,1.3c1.2,0.5,2.5,0.6,3.8,0.4L107.5,140.1z M106,143.5c1.3,0.8,3.7-0.2,4.9-1.6l0.1,0.5
		c-1.3,1.3-3.1,1.9-4.9,1.7L106,143.5L106,143.5z M103.3,140.9c1.1,0.4,2.2,0.6,3.4,0.6c0.1,0.3-0.1,0.4-0.5,0.5
		c-0.9,0.2-1.9,0.1-2.8-0.3C103,141.3,102.9,141,103.3,140.9L103.3,140.9z M77.2,92c-0.1,0.4,0,0.7,0.1,1.1l-1.1-1.4
		C76.4,91.9,76.8,92,77.2,92"/>
	
		<rect x="151.7" y="51.6" style="clip-path:url(#SVGID_00000047739778045347666850000003281162567980143804_);fill:#FFFFFF;" width="2.8" height="28.9"/>
	
		<rect x="38.8" y="51.6" style="clip-path:url(#SVGID_00000047739778045347666850000003281162567980143804_);fill:#FFFFFF;" width="2.8" height="28.9"/>
	<path style="clip-path:url(#SVGID_00000047739778045347666850000003281162567980143804_);fill:#FFFFFF;" d="M80.4,99.6
		c-12.6,0-22.9,10.2-22.9,30.5c0,25.4,18.2,50.9,40.7,50.9s40.7-25.4,40.7-50.9c0-20.3-10.2-30.5-22.9-30.5
		c-6.9,0-13.5,3.1-17.8,8.5C93.9,102.8,87.3,99.6,80.4,99.6z"/>
	<path style="clip-path:url(#SVGID_00000047739778045347666850000003281162567980143804_);fill:#FFFFFF;" d="M30.8,112.8h134.7
		c3,0,5.5,2.4,5.5,5.5v44c0,3-2.4,5.5-5.5,5.5H30.8c-3,0-5.5-2.4-5.5-5.5v-44C25.4,115.3,27.8,112.8,30.8,112.8z"/>
	<g style="clip-path:url(#SVGID_00000047739778045347666850000003281162567980143804_);enable-background:new    ;">
		<text transform="matrix(1 0 0 1 61.36 160.6901)" class="st22 st23 st24">Hrodna</text>
	</g>
	<g style="clip-path:url(#SVGID_00000047739778045347666850000003281162567980143804_);enable-background:new    ;">
		<text transform="matrix(1 0 0 1 62.5 133.9301)" class="st22 st23 st24">Słupsk</text>
	</g>
	<path style="clip-path:url(#SVGID_00000047739778045347666850000003281162567980143804_);fill:#FFFFFF;" d="M44.9,0h-29H0v16
		c0,7,0,14,0,21c10.3,12.3,28.7,14,41,3.7c6.6-5.5,10.4-13.7,10.4-22.4C51.4,11.6,49.1,5.2,44.9,0z"/>
	<text transform="matrix(1 0 0 1 15.54 31.75)" class="st22 st23 st25">4</text>
	<text transform="matrix(1 0 0 1 25.09 31.75)" class="st22 st23 st25">1</text>
</g>
</svg>
