<?xml version="1.0" encoding="utf-8"?>
<!-- Generator: Adobe Illustrator 26.0.3, SVG Export Plug-In . SVG Version: 6.00 Build 0)  -->
<svg version="1.1" id="Слой_1" xmlns="http://www.w3.org/2000/svg" xmlns:xlink="http://www.w3.org/1999/xlink" x="0px" y="0px"
	 viewBox="0 0 195.6 280.6" style="enable-background:new 0 0 195.6 280.6;" xml:space="preserve">
<style type="text/css">
	
		.st0{clip-path:url(#SVGID_00000137813033481513405400000018379183818216932225_);fill:#4153A0;stroke:#1166B0;stroke-width:1.49;stroke-miterlimit:5.97;}
	.st1{clip-path:url(#SVGID_00000137813033481513405400000018379183818216932225_);}
	.st2{fill:#FFFFFF;}
	.st3{fill:#FFFFFF;stroke:#202020;stroke-width:0.75;stroke-miterlimit:5.97;}
	.st4{fill:#1166B0;stroke:#1166B0;stroke-width:1.49;stroke-miterlimit:5.97;}
	.st5{clip-path:url(#SVGID_00000137813033481513405400000018379183818216932225_);fill:#FFFFFF;}
	
		.st6{clip-path:url(#SVGID_00000137813033481513405400000018379183818216932225_);fill-rule:evenodd;clip-rule:evenodd;fill:#202020;}
	
		.st7{clip-path:url(#SVGID_00000137813033481513405400000018379183818216932225_);fill-rule:evenodd;clip-rule:evenodd;fill:#E84431;}
	
		.st8{clip-path:url(#SVGID_00000137813033481513405400000018379183818216932225_);fill-rule:evenodd;clip-rule:evenodd;fill:#FFFEFE;}
	
		.st9{clip-path:url(#SVGID_00000137813033481513405400000018379183818216932225_);fill-rule:evenodd;clip-rule:evenodd;fill:#69B42E;}
	
		.st10{clip-path:url(#SVGID_00000137813033481513405400000018379183818216932225_);fill-rule:evenodd;clip-rule:evenodd;fill:#EDC282;}
	
		.st11{clip-path:url(#SVGID_00000137813033481513405400000018379183818216932225_);fill-rule:evenodd;clip-rule:evenodd;fill:#FAE042;}
	.st12{clip-path:url(#SVGID_00000137813033481513405400000018379183818216932225_);enable-background:new    ;}
	.st13{fill:#4153A0;}
	.st14{font-family:'Impact';}
	.st15{font-size:21px;}
	.st16{font-size:24.77px;}
	.st17{font-size:20px;}
</style>
<g>
	<defs>
		<rect id="SVGID_1_" x="0" y="0" width="195.6" height="280.6"/>
	</defs>
	<clipPath id="SVGID_00000055699542320336322280000009961799849850908032_">
		<use xlink:href="#SVGID_1_"  style="overflow:visible;"/>
	</clipPath>
	
		<rect x="-9.2" y="-8.6" style="clip-path:url(#SVGID_00000055699542320336322280000009961799849850908032_);fill:#4153A0;stroke:#1166B0;stroke-width:1.49;stroke-miterlimit:5.97;" width="214" height="297.9"/>
	<g id="g3564" style="clip-path:url(#SVGID_00000055699542320336322280000009961799849850908032_);">
		<g id="g3503">
			<path id="path2644" class="st2" d="M96,11.6c-8.7,0-17.4,0.2-20.2,0.8c-7.8,1.5-15.4,3.6-22.8,6.2c-2.8,1.1-6.2,2.3-7.6,2.8
				l-2.5,0.9V51l2.6,2.7c5.8,6,5.7,14.9-0.2,21l-2.4,2.4V86c0,12.1,1,17.4,4.3,23.6c3.4,6.4,9.3,10.4,23.1,16
				c4.7,1.9,9.2,4,12.9,5.9c4.5,2.3,8.7,5.1,12.6,8.2c4.7-3.5,9.7-6.7,14.9-9.4c1.9-0.9,7.4-3.3,12.3-5.3c10.8-4.5,14-6.3,17.8-10.5
				c6.2-6.6,7.9-12.8,8-28.2v-9.2l-2-2.1c-6.2-6.4-6.4-15.2-0.4-21.3l2.5-2.6V22.1l-2.5-0.9c-1.4-0.5-4.8-1.7-7.6-2.8
				c-7.4-2.6-15.1-4.7-22.8-6.2C113.4,11.8,104.7,11.6,96,11.6z M95.5,14.2c17.6,0,21.3,0.3,31.1,2.9c5.9,1.6,18.5,6,19.7,7
				c0.5,0.4,0.7,3.7,0.7,13.3v12.7l-2.1,2.4c-3.3,3.8-4.5,6.7-4.5,11.3s1.4,8.1,4.7,12l1.9,2.2v7.2c0,12.4-1.5,19.5-5.3,25.2
				c-3.4,5.1-7.9,7.9-22,13.6c-8.6,3.5-13.7,6.2-19.5,10.2c-1.4,1-2.8,1.9-4.2,2.8c-0.1,0-2.2-1.4-4.6-3.1
				c-5.4-3.8-10.6-6.5-19.5-10.1c-22.2-8.9-25.9-14-26.6-36.2l-0.3-9.4l2-2.2c3.1-3.3,4.8-7.6,4.8-12.2c0.2-4.2-1.4-8.3-4.4-11.3
				L45,50.2V37.5c0-9.6,0.2-12.9,0.7-13.3c0.9-0.8,13-5.1,18.4-6.7C73.9,14.7,78.1,14.3,95.5,14.2L95.5,14.2z"/>
			<path id="path2640" class="st3" d="M96.1,25.1c-1.8,4.2-2.8,8.9-4.9,12.9c-0.4,1.2-1.5,2.5-1,3.7c1.2,0.5,2.7-1,3.8-0.2
				c0.9,2.7,0.4,5.7,0.6,8.5c-0.2,2.7,0.5,5.7-0.6,8.2c-1,1.3-2.9-0.2-4.1-0.6c-3.7-2.1-8.9-3.5-12.6-0.5c-4.6,3.3-6.4,9-7.4,14.4
				c-0.9,3.8-2.1,8.2-5.8,10c-1.9,1-4.4-1.4-3-3.2c0.8-1.5,3.3-1.4,3.7-3.1c-0.6-2.2-3.5-2.8-5.2-1.6c-4,1.6-5.5,7.2-2.6,10.4
				c1.4,1.7,3.5,2.7,5.7,2.6c3.2,1.6,5.4,4.6,8,6.9c8.5,8.4,16.7,17.3,25.4,25.4c10.6-9.7,20.2-20.5,30.7-30.3
				c1.2-1.1,2.5-2.3,4.2-2.1c4.8-0.6,7.2-6.9,4.4-10.8c-1.6-2.3-5.5-3.7-7.6-1.4c-0.5,0.7-0.4,1.7,0.3,2.2c0.3,0.2,0.7,0.4,1.1,0.3
				c2,0.3,3.4,3.5,1.3,4.6c-2.5,1.1-5-1-5.8-3.3c-2.9-5.9-2.7-13.3-7.1-18.4c-2.5-3.1-6.6-5.4-10.6-4.1c-2.8,0.5-5.1,2.8-7.9,3.3
				c-1.6-0.4-1.2-2.8-1.3-4c0.2-4.4-0.2-8.8,0.6-13.1c0.6-1.1,2,0.1,3,0c0.6,0.2,1.7,0.1,1-0.8c-2.1-4.4-3.8-8.9-5.3-13.5
				C96.9,26.6,96.5,25.8,96.1,25.1z M84,63.5c3.5,0,6.7,1.4,9.8,2.6c0,9.6,0.4,19.2,0,28.8c0.1,1.9-1.8,3.1-1.7,5.1
				c-0.3,2.8,0.3,5.9-0.6,8.6c-1,0.3-1.8-1.4-2.6-1.9c-6.5-6.7-13-13.4-19.2-20.4c-0.9-0.9-1.2-2.2,0-3.1c2.9-3.9,5.2-8.3,6.6-13
				c1.1-3,3-6.5,6.7-6.7C83.2,63.5,83.7,63.5,84,63.5z M108,63.5c2.8-0.2,5.5,1.3,6.8,3.8c2.2,3.8,2.7,8.4,5.2,12
				c1,2,2.8,3.5,3.8,5.5c-5.2,6.2-11,12.1-16.6,18c-2,1.9-3.8,4.2-6,5.9c-1.1-0.9-0.5-2.8-0.8-4c0-2.7,0.3-5.8-1.8-8
				c-1.6-1.6-0.6-3.9-0.9-5.9c0.1-8.2,0.2-16.4,0.2-24.7C101.3,65,104.6,63.5,108,63.5L108,63.5z"/>
		</g>
		<path id="path3535" class="st4" d="M95.5,14.2c17.6,0,21.3,0.3,31.1,2.9c5.9,1.6,19.2,6.1,20.4,7.1v25.9l-2.1,2.4
			c-3.3,3.8-4.5,6.7-4.5,11.3s1.4,8.1,4.7,12l1.9,2.2v7.2c0,12.4-1.5,19.5-5.3,25.2c-3.4,5.1-7.9,7.9-22,13.6
			c-8.6,3.5-13.7,6.2-19.5,10.2c-1.4,1-2.8,1.9-4.2,2.8c-0.1,0-2.2-1.4-4.6-3.1c-5.4-3.8-10.6-6.5-19.5-10.1
			c-22.2-8.9-25.9-14-26.6-36.2l-0.3-9.4l2-2.2c3.1-3.3,4.8-7.6,4.8-12.2c0.2-4.2-1.4-8.3-4.4-11.3L45,50.2v-26
			c1-0.8,13.8-5.2,19.1-6.7C73.9,14.7,78.1,14.3,95.5,14.2z"/>
		<path id="path3531" class="st3" d="M95.8,24.1c-2.4,10.5-3,10.8-6.5,17.6c3.3,0,5.3-1.5,5.3-5.2V60c-2.4,0-7.6-4.6-12.5-4.5
			c-1.7-0.1-3.4,0.4-4.8,1.5c-4.6,3.3-6.4,9-7.4,14.4c-0.9,3.7-2.3,9.6-6.3,10.6c-3.1,0.8-3.8-1.3-3.4-3.6c0.7-3.6,4.2-1.7,4.1-3.4
			c-0.1-2.2-2.8-2.5-4.7-1.5c-2.4,1.2-4,3.5-4.2,6.2c0,1.5,0.6,3,1.6,4.2c1.4,1.8,4.5,2,6.7,2.1l32.1,32.8l32-32.7
			c6.5,0.5,9.9-4.5,7.5-10.2c-1.6-2.3-5.3-4-7.4-1.7c-1,1.1,0.3,2.3,1.6,2.3c2,0.3,3.1,3.7,1.1,4.9c-2.5,1.1-6-1.3-7-3.5
			c-2.7-6-2.1-12.6-6.4-17.8c-2.2-2.6-4.9-4.7-8.2-4.7c-3.4,0-7.7,3.6-12,4.6V36.5c0,3.8,2.2,5.2,5.3,5.2
			C99.2,35.7,98.7,35.1,95.8,24.1z M83.5,62.7c3.5-0.1,8,1.6,11.1,2.9v30.7l-2.4,2.6v12.1L67,84.7c4.6-3.1,6.6-9.5,8-14.3
			C76.2,66.6,79.4,62.8,83.5,62.7z M107.9,62.7c4.4-0.2,6.7,3.8,8.2,7.4c2,5,4.7,10.9,8.8,14.6l-25.4,26.2V99l-2.4-2.7V65.6
			C100.4,64.4,104.4,62.9,107.9,62.7L107.9,62.7z M92.2,100.7l2.1-1.7 M92.2,104.6l2.1-1.8 M92.2,108.3l2.1-1.8 M92.2,111.2l2.1-1.8
			 M97.4,109.4l2.1,1.8 M97.4,106.3l2.1,1.8 M97.4,102.8l2.1,1.8 M97.4,99.2l2.1,1.8"/>
	</g>
	<path style="clip-path:url(#SVGID_00000055699542320336322280000009961799849850908032_);fill:#FFFFFF;" d="M149.5,268.8v-75
		c0-29.5-24.3-53.6-54-53.6s-53.9,24-54,53.5l0,0v75.1L149.5,268.8z"/>
	
		<path id="path14" style="clip-path:url(#SVGID_00000055699542320336322280000009961799849850908032_);fill-rule:evenodd;clip-rule:evenodd;fill:#202020;" d="
		M46.6,194.3c0-27.3,22.5-49.6,50.1-49.6s50.1,22.3,50.1,49.7V264H46.5L46.6,194.3"/>
	
		<path id="path16" style="clip-path:url(#SVGID_00000055699542320336322280000009961799849850908032_);fill-rule:evenodd;clip-rule:evenodd;fill:#E84431;" d="
		M43.4,194.2c0.4-28.9,24.2-51.9,53-51.5c28.3,0.4,51.1,23.3,51.5,51.6v73.2H43.4L43.4,194.2L43.4,194.2z M73.5,205.1
		c0.9,0.2,1.9,0.3,2.8,0.3c0.4,0,0.8,0,1.1,0l-1.2,9.9L73.5,205.1L73.5,205.1z M88.9,240.7c-1.2,0.4-2.3,0.9-3.4,1.5
		c-0.7,0.4-1.3,0.9-1.9,1.4c-0.5,0.4-0.9,1-0.8,1.6c0.4,1.4,0.4,2.8,0.1,4.2c-0.5,1.8-1.7,3.4-3.2,4.6c-2.1,1.3-4.4,2.1-6.8,2.4
		c-1.2,0.2-2.5,0.3-3.8,0.4c-0.5,0-0.9,0.1-1.3,0.4c-0.1,0.1-0.2-0.5-0.1-0.7c-1,0.3-2,0.4-3.1,0.3c-1.3,0-2.6,0.2-3.8,0.6
		c-0.4,0.1-0.7,0.2-1.1,0.4c-0.1,0-0.2-0.3-0.1-0.6c-1.1,0.4-2.2,0.7-3.3,1c-1.6,0.5-3.2,0.8-4.9,1c-1,0-1.9-0.1-2.8-0.3
		c-0.3-0.1-0.5-0.2-0.7-0.4c0.1-0.2,0.2-0.4,0.3-0.6c0.7-0.8,1.5-1.4,2.5-1.8c1-0.5,2.1-1,3.3-1.3c-1.2-0.1-2.4-0.3-3.6-0.6
		c-0.4-0.1-1.1-0.4-1.1-0.6s0.6-0.7,1-1c0.9-0.6,2-1.1,3-1.5c1.5-0.6,3.1-1,4.7-1.2c-1.2-0.2-2.4-0.4-3.5-0.8
		c-0.6-0.2-1.2-0.4-1.8-0.7c-0.3-0.2-0.7-0.5-0.7-0.6s0.5-0.4,0.9-0.6c1-0.5,2-0.8,3.1-1c1.2-0.2,2.3-0.3,3.5-0.4
		c0.8-0.1,1.6-0.1,2.3-0.1c-1.1-0.4-2.3-0.8-3.4-1.3c-0.7-0.3-1.4-0.7-2-1.2c-0.3-0.2-0.8-0.6-0.8-0.8s0.8-0.5,1.3-0.5
		c1.6-0.3,3.2-0.5,4.8-0.4c1.4,0,2.8,0.3,4.2,0.5c-1-0.6-2.2-1.1-3.2-1.7c-0.8-0.5-1.5-1.2-2.2-1.9c-0.2-0.2-0.7-0.7-0.6-0.8
		c0.4-0.1,0.8-0.2,1.2-0.2c1.5-0.1,2.9,0,4.4,0.3c1.4,0.2,2.8,0.7,4.2,1.1c-1-0.7-1.9-1.4-2.7-2.2c-0.6-0.6-1.1-1.3-1.6-2
		c-0.2-0.3-0.3-0.6-0.4-1c0.1-0.1,0.7-0.1,1.1-0.1c1.4,0,2.8,0.4,4.1,0.9c1.3,0.5,2.5,1.2,3.7,1.8c-0.9-0.7-1.7-1.5-2.5-2.3
		c-0.5-0.6-0.9-1.4-1.2-2.1c-0.1-0.4-0.2-0.7-0.2-1.1c0.4-0.1,0.9-0.1,1.3,0c1,0.1,1.9,0.4,2.8,0.8c0.4,0.2,0.9,0.5,1.3,0.8
		c-0.5-0.8-0.9-1.7-1.2-2.6c-0.1-0.3-0.1-0.7,0-1c0.4,0,0.8,0,1.2,0.1c0.9,0.1,1.7,0.5,2.3,1c0.6,0.5,1.1,1,1.7,1.5
		c-0.3-0.5-0.6-1.1-0.8-1.6c-0.2-0.6-0.4-1.2-0.4-1.8c0-0.3,0-0.5,0.1-0.8c0.4,0,0.8,0.1,1.2,0.2c1.1,0.5,2,1.1,2.9,1.9
		c0.9,0.8,1.7,1.7,2.4,2.6c0.1,0.1,0.2,0.1,0.3,0.1c-0.1-0.2-0.1-0.5-0.2-0.7c-0.3-1.2-0.5-2.3-0.8-3.5c-0.2-0.7-0.3-1.3-0.4-1.9
		c-0.4,0.2-0.8,0.3-1.3,0.2c-0.6-0.1-0.6-0.8-0.8-0.7c-0.5,0.2-0.9,0.3-1.4,0.5c-1.1,0.4-2.2,0.8-3.3,1.2s-2.1,0.8-3.2,1.2
		c-0.3,0.1-0.7,0.5-0.9,0.2c-0.6,0.2-1.2,0.5-1.7,0.9c-0.7,0.6-1.4,1.1-2.1,1.6s-1,0.4-1.8,0.1c-0.5-0.1-1.1-0.3-1.6-0.5
		c-0.5-0.2-0.9-0.7-1.1-1.2c-0.3-0.5-0.4-1.1-0.3-1.6c0.1-0.5,0.2-1,0.5-1.2c0-0.1,0-0.1,0-0.2c0-0.6,0.2-1.1,0.4-1.6
		c0.2-0.9,0.2-1.7,0.2-2.6c0.1-0.9,0-1.8-0.2-2.6c-0.1-0.2-0.1-0.4-0.2-0.6c-1.3-0.1-2.6-0.3-3.4-0.4c-1.6-0.2-4-0.5-4.8-0.5
		s-0.8,0.4-1.1,0.9c-0.3,0.4-0.8,0.7-1.3,0.7c-0.6,0.1-0.1-1.2,0.4-2c0.2-0.5,0.6-0.8,1.1-1l-3.4-11.4c-0.5-0.2-0.7-0.4-0.7-0.7l0,0
		c0-2,2.1-3.7,4.6-3.7s4.6,1.7,4.6,3.7l0,0c0,0.3-0.5,0.6-1.2,0.9l-3,11.1c1,0,3.2,0.3,5,0.3c1.4,0.1,2.4,0.1,3.4,0.1l0.1-0.2
		c0.3-0.9,0.6-1.7,1.1-2.5c0.5,0.8,0.8,1.6,1.1,2.5c0,0.1,0,0.1,0.1,0.2c0.9,0,2,0,3.3-0.1c1.8-0.1,4-0.3,5-0.3L73,205
		c-0.7-0.2-1.2-0.5-1.2-0.9l0,0c0-2,2.1-3.7,4.6-3.7s4.6,1.7,4.6,3.7l0,0c0,0.2-0.2,0.4-0.3,0.5l-3.8,11.6c0.5,0.2,0.9,0.5,1.1,1
		c0.5,0.8,1,2,0.4,2c-0.5,0-1-0.3-1.3-0.7c-0.3-0.5-0.3-0.9-1.1-0.9s-3.1,0.3-4.8,0.5c-0.8,0.1-2.1,0.3-3.4,0.4
		c-0.1,0.2-0.2,0.4-0.2,0.6c-0.2,0.9-0.3,1.8-0.3,2.6c0,0.9,0,1.7,0.2,2.6c0.1,0.5,0.3,0.8,0.4,1.2c0.3,0,0.5,0,0.8,0
		c0.2,0,0.4-0.1,0.7-0.1c0.5-0.1,1-0.1,1.5,0c0.2,0,0.4,0,0.6,0c0.1,0,0.3-0.1,0.4-0.1c0-0.1,0.2-0.3,0.3-0.4c0.7-0.6,1.3-1,2-1.5
		c1.2-0.8,2.2-1.7,3.4-2.4c1-0.6,2.1-1.2,3.2-1.6c0.1,0-0.2-0.4,0.1-0.7s0.8-0.1,0.8-0.2c0.8-0.6,1.7-1.2,2.7-1.5
		c0.8-0.2,1.3-0.2,1.7,0.4c0.5,0.8,0.9,1.6,1,2.5c0,0.2,0.3,0.2,0.5,0.5s-0.2,0.4-0.1,0.4c0.6,1.2,1.1,2.3,1.8,3.5
		c0.4,0.9,0.9,1.7,1.3,2.5s0.2,0.8,0.4,0c0.6-2.2,1.3-4.1,2.1-6.2c0.2-0.4,0.2-0.8,0-1.1c-0.2-0.5-0.5-1-0.7-1.4
		c-0.1-0.2,0-0.5,0.2-0.6c-0.1-0.4-0.3-0.7-0.4-1.1c-0.4-0.6-0.8-1.1-1.2-1.6c-0.2-0.2-0.1-0.5,0-0.6c0,0,0,0,0,0
		c-0.2-0.4-0.5-1-0.7-1.4c-0.3-0.4-0.6-0.7-1-1c-0.2-0.1,0-0.4,0.2-0.5c-0.2-0.5-0.5-0.9-0.8-1.4c-0.4-0.6-0.7-0.6-0.7-1
		c0-0.1,0.2-0.3,0.4-0.4l0,0c-0.5-0.8-1-1.7-1.3-2.6c-0.3-0.9-0.5-1.5-0.8-2.3c-0.4-0.2-0.7-0.5-0.9-0.8c-0.3-0.4-0.4-0.9-0.5-1.4
		c-0.1-0.6-0.2-0.6-0.6-1c-1-0.8-1.7-2-2-3.3c-0.1-1.3,0.1-2.6,0.7-3.8c0.2-0.4,0.2-0.9,0.1-1.4c-0.1-0.6-0.2-1.2-0.2-1.9
		c0-0.2,0.1-0.4,0.2-0.5c0-0.6-0.1-1.2-0.1-1.8c0-0.9,0-1.9,0.1-2.9c0-1.4,0-2.9-0.1-4.3c-0.1-1.2-0.2-2.4-0.4-3.6
		c-0.1-0.6-0.2-1.3-0.4-1.9c0-0.1,0-0.1,0-0.2l-1.2-0.8c-0.4-0.3-0.8-0.5-1.3-0.7c-0.7-0.3-1.2-0.9-1.5-1.5
		c-0.3-0.6-0.4-1.2-0.4-1.8c0-0.4-0.1-0.8-0.2-1.1c-0.8,0.1-1.6,0.3-2.1,0.4c-0.7,0.2-1.8,0.1-2.2,0.2l-0.7,0.2
		c-0.2,0.2-0.2,0.5-0.1,0.8c0.2,0.5,0.4,1.1,0.6,1.8s0.8,2.7,0.9,3.1c0.2,0.7,0.1,0.7,0.5,0.9c0.2,0.1,0.5,0.3,0.7,0.5
		c0.1,0.1,0.3,0.3,0.4,0.4c0.3,0.4,0.6,0.9,0.9,1.4c0.1,0.3,0.4,0.6,0.7,0.8c0.2,0.2,0.4,0.3,0.6,0.6c0.2,0.2,0.4,0.3,0.7,0.4
		c0.2,0.1,0.3,0,0.5,0.1s0.1,0.4,0.2,0.4c0.2,0.1,0.5,0.1,0.7,0c0.3-0.1,0.5-0.2,0.5,0.1c-0.2,0.5-0.3,0.7-0.7,0.9
		c-0.2,0.1-0.3,0.1-0.5,0.1c-0.2,0-0.2,0.1-0.3,0.2c-0.2,0.3-0.5,0.3-0.8,0.2c0,0,0,0,0,0c-0.1-0.1-0.2-0.2-0.3-0.2
		c-0.2-0.1-0.3-0.1-0.2,0.1c0.1,0.1,0.1,0.2,0.2,0.3c0.3,0.2,0.4,0.4,0.3,0.7c-0.1,0.1-0.1,0.2,0,0.3c0.1,0.1,0.2,0.2,0.4,0.3
		c0.4,0,1,0.2,0.5,0.5c-0.4,0.3-0.8,0.4-1.3,0.3c-0.2,0-0.4-0.1-0.6-0.1s-0.3,0.1-0.5,0.2s-0.3,0-0.4-0.3c-0.1-0.1-0.2-0.2-0.2-0.2
		s-0.1,0.1-0.1,0.2c0,0.1,0.1,0.2,0.2,0.3c0.1,0.2,0.3,0.3,0.5,0.4c0.2,0.1,0.4,0.3,0,0.4c-0.4,0.2-0.8,0.1-1.2-0.1
		c-0.2-0.1-0.3-0.3-0.4-0.5c-0.1-0.1-0.2-0.1-0.3-0.1c-0.3-0.1-0.4-0.2-0.5-0.6c-0.1-0.4-0.3-0.7-0.5-1c-0.2-0.3-0.4-0.5-0.6-0.8
		c-0.2-0.4-0.1-0.5-0.3-0.8c0-0.1-0.1-0.2-0.1-0.2c-0.1,0.1-0.2,0.2-0.3,0.3c-0.3,0.2-0.6,0.3-0.9,0.2c-0.4-0.2-0.7-0.7-0.9-1.1
		c-0.1-0.4,0.1-0.8,0.4-1.1c0.3-0.2,0.3-0.3,0.2-0.7c-0.2-0.8-0.5-0.8-0.8-1.4s-0.6-1.3-0.9-2.1c-0.3-0.8-0.7-1.6-1.1-2.3
		c-0.4-0.5-0.8-0.9-1.2-1.3l-0.1-0.1c-0.4,0.2-0.7,0.4-0.9,0.6c-0.6,0.4-1.8,1.9-2.1,2.2c-0.3,0.3-0.6,0.6-0.8,1
		c-0.2,0.5-1,1-1.3,1.6c-0.2,0.4-0.2,0.7-0.3,0.9c0,0.2,0.1,0.4,0.2,0.6c0.2,0.4,0.2,0.5,0.3,0.7l0.7,0.6c0.5,0.5,1.1,1,1.8,1.4
		c0.7,0.4,1.5,0.7,2,1.1s1.2,0.7,1.8,1s0.4,0.6,0.8,0.8s1.5,0.3,1.7,0.8s0.5,1.3,0.1,1.3h-0.6c0,0.2,0,0.4,0,0.7
		c0.7,0.2,1.4,0.5,2,0.8c0.4,0.3,0.8,0.6,1.1,1c0.4,0.5,0.7,1.1,0.7,1.8c-0.1,0.7-0.4,0.5-0.5,0s-0.8-0.8-1.3-1
		c-0.7-0.2-1.4-0.4-2.1-0.6c0,0,0,0,0,0.1c0,0.4,0,0.8,0,1.2c0,0.3-0.1,0.6-0.1,0.8c0.6,0.3,1.1,0.7,0.8,1.2
		c-0.1,0.1-0.1,0.2-0.2,0.3c-0.3,0.3-0.6,0.6-0.8,1c-0.3,0.5-0.7,0.9-1.2,1s-0.5,0.4-0.8,0.6c-0.3,0.2-0.6,0.3-0.9,0.2
		c-0.3-0.1-0.4-0.3-0.7-0.4c-0.3,0.1-0.7,0.1-1,0c-0.3-0.1-0.6-0.3-0.9-0.5c-0.4-0.4-0.8-0.7-1.3-1c-0.3-0.2-0.6-0.1-1.4-0.4
		c-0.5-0.2-1-0.4-1.5-0.7c-0.3-0.1-1,0.3-1.6,0.2s-0.8-0.4-1.1-0.7c-0.7,0-1.3-0.2-1.8-0.6c-0.3-0.3-0.5-0.6-0.7-0.8
		c-0.4,0.1-0.8,0.1-1.2-0.1c-0.1,0.1-0.2,0.5-0.4,0.8c-0.2,0.4-0.5,0.8-0.8,1.2c-0.4,0.4-0.6,0.8-0.9,1.1s-0.8,0.2-0.7-0.3
		s0.2-1.5,0.2-2c0-0.5,0.1-1.1,0.2-1.6c0-0.2,0.1-0.5,0.1-0.6c-0.2,0-0.3,0.1-0.5,0.2c-0.5,0.3-1.1,0.6-1.6,1
		c-0.4,0.4-1,0.7-1.5,1.1c-0.9,0.6-1.3,0.5-1.2-0.3c0.1-0.7,0.2-1.5,0.4-2.2c0.2-0.7,0.7-1.7,0.9-2.5c0.2-0.7,0.5-1.3,1-1.8
		c0.3-0.3,0.6-0.4,1-0.6c0-0.2,0-0.4,0-0.5c-0.1-0.6-0.3-1.2-0.7-1.8c-0.3-0.6-0.5-1,0-1.3c0.4-0.4,0.8-0.7,1.3-1
		c0.5-0.3,0.5-0.4,0.5-1.1s-0.1-1.6-0.1-2.2c0-0.8-0.1-1,0.5-1.4s1.5-1.1,2-1.4c0.4-0.3,0.7-0.8,0.6-1.4c0-0.6,0.1-1.6,0.2-2.5
		s0-1.1,0.8-1.4s1.4-0.4,1.7-0.6c0.5-0.1,0.9-0.5,1.1-1c0.1-0.8,0.4-1.8,0.6-2.8s0.4-1.1,1.2-1.4c0.7-0.2,1.3-0.4,2-0.5
		c0.8-0.1,1.1-0.4,1.1-0.9c0-0.4,0-0.8,0.1-1.2c0.1-0.4,0.1-0.6-0.2-0.9c-0.4-0.5-0.1-1.2,0.3-1.6c0.5-0.5,1.2-0.8,1.8-1
		c0.6-0.1,1.1-0.5,1.5-1c0.5-0.6,1.2-1.1,2-1.4c0.5-0.2,0.9-0.5,1.3-0.9c0.5-0.4,1-0.6,1.6-0.8c0.6-0.3,0.6-0.4,0.8-0.9
		c0.4-0.4,0.9-0.8,1.4-1c0.6-0.3,1.3-0.5,2-0.7c1.1-0.2,1.8,0,2.8-0.6s8.2-1.9,11.3-2c3.3-0.1,6.5-0.7,8.3-0.6s7.2,0.9,9.4,1
		c3.5,0.4,7,1,10.5,2c1.7,0.6,3.7,1.8,3.7,3.1c0.1,0.5-0.2,1.1-0.7,1.4c-1.1,0.5-1,0-0.7-0.4s0-1.2-0.6-1.6
		c-0.6-0.4-1.3-0.6-2.1-0.6c-0.7,0-1.4,0.2-2,0.5l0,0c0.3,0.3,0.7,0.5,1,0.8c1.1,0.9,2.4,1.6,3.7,2.1c1.5,0.6,4.2,2.2,6.8,3.6
		c2.7,1.5,5.3,3.3,7.5,5.5c1.9,1.9,3.4,4.2,4.3,6.7c0.8,2.4,1.1,5,0.8,7.6c-0.2,1.9-0.8,3.8-1.8,5.4c-1.1,1.9-2.8,3.4-4.8,4.2
		c-2.1,0.9-4.4,1.3-6.7,1.4c0.7,1,1.6,1.9,2.7,2.4c2.1,1,4.2,1.9,6.5,2.5c1.6,0.4,3.1,1.2,4.3,2.2c1.1,1,1.7,2.5,1.4,4
		c-0.6,2-1,1.2-0.9,0.3c0.1-0.7-0.1-1.4-0.5-1.9c-0.7-1-1.9-1.7-3.2-1.7c-1.5-0.2-3.9-0.5-5.3-0.8c-1.5-0.3-2.9-0.9-4.2-1.6
		c-1.3-0.8-2.5-1.7-3.5-2.8c-0.6-0.8-1.5-1.9-2.3-2.9c-1.2-0.2-2.1-0.4-3-0.6s-1.6-0.4-2.4-0.6c0,0.1,0,0.2,0,0.3
		c-0.1,0.8-0.3,1.6-0.5,2.3c-0.1,0.4-0.2,0.9-0.3,1.3c0,0.2,0,0.4,0.1,0.6c0,0.4,0,0.7-0.1,1.1c-0.1,0.3-0.1,0.6,0.1,0.9
		c0.3,0.7,0.4,1.6,0.3,2.4c-0.1,1-0.5,1.9-1.1,2.6c-0.2,0.2-0.3,0.4-0.3,0.6c0,0.1,0,0.2-0.1,0.3c0,0.1,0,0.1,0,0.1
		c-0.2,1.8-0.5,3.6-0.9,5.4c-0.2,0.6-0.3,1.1-0.4,1.7c0.3,0.1,0.6,0.3,0.8,0.5c0.2,0.1,0.5,0.4,0.5,0.6s-0.3,0.3-0.5,0.7
		s-0.6,1-0.8,1.4c0,0,0.2,0.2,0.3,0.3s-0.3,0.4-0.4,0.6c-0.2,0.3-0.4,0.7-0.6,1c-0.3,0.7-0.5,1.5-0.8,2.2c0.1,0.1,0.3,0.2,0.3,0.4
		c-0.1,0.3-0.2,0.6-0.4,0.8c-0.2,0.5-0.4,0.9-0.6,1.4s-0.5,1-0.8,1.6c0.3,0.2,0.2,0.5,0,1c-0.2,0.5-0.5,0.9-0.8,1.3
		c-0.4,0.5-0.6,0.5-0.5,1.4c0.1,0.6,0.1,1.2,0.2,1.9c0.2,1.6,0.3,3.1,0.4,4.7c0,0.3,0,0.9,0,0.8c0.4-0.4,0.7-0.8,1.1-1.2
		c0.9-1.1,1.8-2.2,2.8-3.2c0.7-0.7,1.6-1.4,2.3-2.1c0,0-0.2-0.3-0.1-0.5s0.4-0.2,0.5-0.3c0.1-0.8,0.2-1.5,0.4-2.2
		c0.1-0.5,0.6-0.9,1.2-0.9c1.2,0,1.7,0,2.1,0c0.1,0,0.4-0.4,0.6-0.5c0.4-0.1,0.6,0.2,0.6,0.2c1.4-1.1,3-2,4.6-2.8
		c1.4-0.6,2.7-1.3,4.1-2c0.1-0.1,0.3-0.2,0.5-0.3s0.2-0.1,0.2,0s0.1,0,0.2-0.1c0.1-0.1,0.1-0.2,0.2-0.3c0.2-0.3,0.5-0.5,0.8-0.7
		c0.4-0.2,0.8-0.3,1.2-0.4c-0.1-0.5-0.1-0.9-0.2-1.4c-0.3-0.2-0.6-0.4-0.7-0.8c-0.1-0.9,0.6-1.8,1.5-1.9c0.7-0.1,1.4,0.3,1.7,0.9
		c0.1,0.3,0,0.7-0.1,1c0.1,0.2,0.5,1.1,0.6,1.3c0.1,0,0.3,0,0.4-0.1c0.3,0,0.5,0.2,0.6,0.5c0.1,0.2,0.1,0.3,0.1,0.4s0,0.1,0.1,0.1
		c0.3,0,0.5,0.2,0.6,0.5c0.1,0.3,0.2,0.5,0.1,0.6s-0.1,0.1,0,0.1s0.3,0.3,0.4,0.7s0.1,0.5-0.1,0.7s-0.1,0.1,0.1,0.1s0.2,0.3,0.2,0.7
		c0,0.4-0.2,0.7-0.6,0.8l0.1,0.4c1.4-0.3,2.8-0.6,4.2-0.8l0.8,2.1c-1.3-0.2-2.6-0.2-3.8,0l-0.4,0.1l0.3,1.1l7.1,25.2
		c0.7,2.6,0.3,6.9,0.1,7s-2.9-3.3-3.7-5.9l-7.5-25.1l-0.3-1.1l-0.3,0.1c-1.2,0.5-2.3,1.2-3.2,2l-0.4-2.2c1.3-0.5,2.6-1.1,4-1.6
		c0-0.1,0-0.2-0.1-0.2c-0.4,0-0.9,0-1.3-0.2c-0.1-0.1-0.4-0.1-0.5-0.1s-0.2-0.1-0.2,0c0,0.1-0.1,0.2-0.2,0.2
		c-0.8,0.3-1.5,0.6-2.2,1.1c-1.2,0.8-2.4,2.1-3.5,3s-2.2,1.7-3.4,2.6c-0.1,0.1,0.4,1.2-0.4,1.9s-1.8,0-1.8,0.1
		c-0.6,0.7-1,1.6-1.6,2.4c-0.3,0.4-0.6,0.8-0.9,1.2c-0.2,0.5-0.4,1-0.7,1.5c-0.3,0.5-0.7,1-1.1,1.5c0.7-0.4,1.3-0.8,2-1.2
		c0.8-0.4,1.6-0.6,2.5-0.6c0.4,0,0.8,0,1.2,0.1c0,0.3,0,0.7-0.2,1c-0.4,0.9-1,1.7-1.6,2.4c0.4-0.2,0.9-0.4,1.4-0.5
		c0.9-0.3,1.9-0.4,2.9-0.3c0.4,0,0.9,0.1,1.3,0.3c-0.1,0.4-0.2,0.7-0.4,1c-0.4,0.7-1,1.4-1.6,1.9c-0.9,0.7-1.9,1.3-2.8,1.8
		c1.3-0.4,2.6-0.8,4-1.1c1.4-0.3,2.8-0.4,4.2-0.2c0.3,0.1,1,0.2,1,0.3c-0.1,0.3-0.3,0.7-0.6,0.9c-0.6,0.6-1.2,1.2-1.9,1.7
		c-1,0.6-2,1.2-3.1,1.7c1.4-0.1,2.9-0.3,4.3-0.3c1.5,0,2.9,0.2,4.4,0.5c0.4,0.1,0.8,0.2,1.2,0.4c0,0.1-0.5,0.5-0.7,0.7
		c-0.8,0.6-1.6,1.1-2.5,1.5c-1.1,0.5-2.3,0.8-3.4,1.1c1.4,0,2.8,0.1,4.2,0.3c1.6,0.3,3.2,0.7,4.7,1.3c0.4,0.2,1.1,0.6,1.1,0.8
		s-0.6,0.4-0.9,0.6c-0.7,0.4-1.4,0.6-2.2,0.9c-1.2,0.3-2.4,0.5-3.6,0.6c0.8,0.1,1.5,0.4,2.3,0.5c1.1,0.3,2.3,0.6,3.4,1
		c1,0.4,2,0.9,2.9,1.6c0.3,0.2,0.8,0.6,0.8,0.7c-0.2,0.2-0.5,0.4-0.8,0.5c-0.6,0.2-1.2,0.3-1.9,0.4c-1.2,0.1-2.4,0.2-3.6,0.1
		c1.5,0.5,3,1.2,4.4,2c1,0.6,1.9,1.2,2.7,2c0.3,0.3,0.6,0.7,0.8,1.1c-0.4,0.2-0.8,0.3-1.2,0.4c-1.2,0.1-2.4,0.1-3.6,0
		c1.1,0.5,2.1,1.1,3,1.8c0.8,0.6,1.6,1.4,2.1,2.3c0.1,0.2,0.2,0.4,0.2,0.7c-0.2,0.2-0.5,0.2-0.8,0.3c-0.9,0-1.9,0-2.8-0.2
		c-1.6-0.4-3.2-1-4.7-1.8c-1.1-0.4-2.1-0.9-3.1-1.5c0,0.4-0.1,0.6-0.2,0.6c-0.3-0.2-0.6-0.4-1-0.6c-1.1-0.6-2.4-1-3.6-1.2
		c-1-0.1-2.1-0.4-3-0.9c0.1,0.3-0.1,0.8-0.2,0.7c-0.4-0.3-0.8-0.5-1.2-0.6c-1.2-0.4-2.4-0.7-3.6-1.1c-2.3-0.7-4.4-2-6.2-3.6
		c-1.3-1.4-2.1-3.2-2.3-5.1c0-1.4,0.2-2.8,0.8-4.1c0.1-0.6-0.1-1.3-0.5-1.8c-0.5-0.6-1.1-1.2-1.7-1.7l-0.1-0.1l-0.1,0.2
		c-0.2,0.4-0.6,0.7-1.1,0.8c-0.5-0.1-1-0.3-1.3-0.7c-0.5-0.6-0.9-1.2-1.2-1.8c-0.2-0.3,0.2,1,0.1,1.5s-0.2,1-0.2,1.5
		c3.9,4.9,3.2,12-1.7,16c-4.9,3.9-12,3.2-16-1.7c-3.9-4.9-3.2-12,1.7-16c0.5-0.4,1.1-0.8,1.7-1.1c-0.1-0.2-0.2-0.4-0.2-0.6
		C89,240.9,89,240.8,88.9,240.7L88.9,240.7z M59.2,205.2c-0.8,0.1-1.6,0.2-2.5,0.2l-0.1,9.7L59.2,205.2L59.2,205.2z M56.1,205.4
		c-0.9,0-1.8-0.1-2.7-0.3l2.6,9.4L56.1,205.4L56.1,205.4z M78,205.3c0.6-0.1,1.2-0.2,1.8-0.4l-3,9.6L78,205.3z M67.6,227
		c-0.3,0.4-0.7,0.6-1.2,0.6l0,0c-0.1,0-0.3,0-0.4-0.1l0,0c0,0.2,0.4,0.8,0.4,1c0.4,0.1,0.8,0.1,1.2,0.1c0.4-0.1,0.6-0.6,0.6-1
		S67.9,227.2,67.6,227L67.6,227z M112.5,169.8c-0.4,0.5-1.1,1.5-1.6,2.2c-0.7,1-1.3,2.1-1.8,3.3c-0.1,0.4-0.2,0.7-0.4,1.1
		c0,0.2,0,0.4,0,0.5c-0.1,0.5-0.4,0.9-0.8,1.2c-0.5,0.3-1.1,0.5-1.6,0.6c-0.2,0.1-0.4,0.1-0.7,0.2s-0.2,0.2-0.3,0.3
		s-0.3,0.2-0.4,0.4c-0.1,0.2-0.3,0.4-0.6,0.6c-0.4,0.2-0.5,0.3-0.6,0.5s0.1,0.3,0.2,0.6c0.1,0.2,0,0.5-0.2,0.7
		c-0.2,0.1-0.3,0.2-0.3,0.4c-0.1,0.2,0,0.5,0.1,0.6c0.2,0.2,0.3,0.3,0,0.4c-0.3,0.2-0.7,0.2-1,0c-0.3-0.1-0.5-0.3-0.6-0.6
		c-0.1-0.3-0.1-0.4-0.3-0.4c-0.1,0-0.3-0.1-0.3-0.2c0,0,0,0,0,0c0-0.1,0-0.1,0-0.2c-0.1,0.1-0.2,0.1-0.3,0.2s-0.1,0.3-0.1,0.6
		c0,0.2,0.1,0.4,0.2,0.6c0.2,0.2,0.2,0.3-0.2,0.3c-0.3,0-0.7-0.2-0.8-0.4c-0.2-0.3-0.4-0.6-0.3-1c0-0.3,0-0.3-0.1-0.5
		s-0.3-0.3-0.3-0.5c0-0.1,0-0.2,0.1-0.3c-0.1-0.1-0.3-0.1-0.4,0.1c-0.2,0.1-0.2,0.4-0.2,0.6c0,0.3,0,0.4-0.3,0.2
		c-0.3-0.1-0.5-0.4-0.6-0.7c-0.1-0.3,0-0.6,0.1-0.9c0.2-0.2,0.2-0.3,0.2-0.5c0-0.2,0-0.5,0.1-0.7c0.2-0.2,0.4-0.4,0.7-0.6
		c0.3-0.2,0.5-0.4,0.8-0.6c0.2-0.3,0.5-0.5,0.9-0.6c0.4-0.1,0.7-0.3,1.1-0.5c0.4-0.2,0.7-0.5,1.1-0.8c0.4-0.3,0.7-0.6,1.2-0.8
		c0.4-0.3,0.8-0.6,1.1-1.1c0.1-0.4,0.3-0.7,0.4-1.1c0.3-0.6,0.5-1.2,0.7-1.8c0.2-0.6,0.4-0.9,0.6-1.4c0.1-0.3,0-0.5-0.1-0.7
		c-0.6,0.1-1.1,0.1-1.7,0.2c-1.7,0.1-3.4,0.6-5.4,0.8l0,0c-1.6,0.2-3.1,0.2-4.7,0.1c-1-0.2-4.2-0.4-5.1-0.6s-1.5-0.2-1.9-0.3
		c0.3,0.3,0.4,0.6,0.4,1c0,0.7-0.1,1.4-0.2,2.1c-0.2,0.6-0.3,1.2-0.3,1.8c0.1-0.1,0.3-0.2,0.4-0.3c0.2-0.2,0.2-0.4,0.3-0.7
		c0.1-0.2,0.2-0.5,0.4-0.6c0.2-0.1,0.4-0.1,0.5,0c0.2,0,0.4-0.1,0.6-0.2c0.2-0.2,0.3-0.5,0.3-0.8c-0.1-0.4,0.2-0.3,0.5-0.2
		c0.2,0.1,0.4,0.3,0.5,0.5c0.2,0.3,0.2,0.7,0.1,1c-0.1,0.2,0,0.4,0,0.5c0.1,0,0.2,0,0.4,0.1c0.2-0.1,0.4-0.2,0.5-0.3
		c0.1-0.1,0.2-0.3,0.2-0.5c0-0.2,0.2-0.2,0.4,0.1c0.2,0.2,0.3,0.5,0.2,0.9c0,0.3-0.1,0.5-0.2,0.8c-0.1,0.1-0.1,0.2,0,0.3
		c0.1,0.1,0.1,0.3,0,0.4c-0.1,0.3,0.2,0.2,0.4,0.2c0.3-0.1,0.5-0.3,0.5-0.6c0.1-0.3,0.4,0.1,0.4,0.5c0.1,0.3,0,0.7-0.2,1
		c-0.1,0.2-0.3,0.4-0.6,0.6c-0.2,0.1-0.2,0.4-0.3,0.6c-0.2,0.1-0.4,0.2-0.7,0.3c-0.2,0-0.7,0.1-1,0.1s-0.7,0-1,0
		c-0.4,0-0.8,0.1-1.2,0.1c-0.3,0.1-0.6,0.2-0.8,0.4c0.2,0.6,0.4,1.2,0.6,1.7c0.3,0.9,0.7,1.7,0.9,2.6c0.4,1.2,0.7,2.3,0.9,3.5
		c0.2,1,0.3,2.1,0.3,3.1c0,1-0.1,1.9-0.2,2.9c0,0,0,0.1,0,0.1c0.8,0,1.3,1.1,1.5,1.8s0.3,1.8-0.2,2.1c-0.1,0.1-0.2,0.1-0.3,0.1
		c0.2,0.3,0.5,0.6,0.7,0.9c0.9,1,1.7,2.1,2.5,3.2c0.7,1.1,1.5,2.3,2.1,3.4c0.3,0.5,0.6,1,0.8,1.6l0,0c0.9-0.2,1.8-0.2,2.6-0.2
		c0.8,0,1.5,0.3,2.2,0.4h0.1c0.2-0.9,0.5-1.7,0.8-2.6c0.5-1.5,1-3,1.5-4.4l0.9-2.1c-0.1,0-0.2,0-0.3,0c-0.5-0.1-0.5-1.8-0.3-2.6
		s0.7-1.8,1.5-1.7c0.2,0,0.3,0.2,0.4,0.4c0-0.2,0-0.5,0.1-0.8c0.1-1.1,0.2-2.3,0.3-3.5c0.1-0.8,0.3-1.5,0.6-2.3
		c0-0.1,0.1-0.1,0.1-0.2c-1.2-0.4-2.1-1.3-2.6-2.5c-0.4-0.9-0.2-2,0.3-2.8c0.6-0.7,1.5-1.1,2.4-1.2c0.8-0.2,1.6-0.3,2.5-0.3
		c0.2-0.7,0.6-1.5,0.8-2.2c0.4-1.1,0.6-2.2,0.9-3.4c0.1-0.7,0.1-1.5,0.1-2.2C112.5,170.5,112.5,170.1,112.5,169.8L112.5,169.8z
		 M69.2,186.4c-0.2,0-0.4-0.1-0.6-0.2l-0.4-0.2c-0.1,0.2-0.3,0.4-0.4,0.6l0,0l0.4,0.1l0.9,0.1C69.2,186.7,69.2,186.5,69.2,186.4
		L69.2,186.4z M61.8,182.4c-0.2-0.2-0.5-0.4-0.7-0.6c-0.5-0.6-1.3-0.9-2-0.7H59c0.2,0.1,0.3,0.3,0.6,0.5c0.5,0.5,1,1,1.5,1.6
		c0.6,0.7,1.3,1.3,2.1,1.8c0.9,0.5,1.8,1,2.8,1.3c0.3,0.1,0.6,0.1,0.9,0.2c0.1-0.2,0.1-0.4,0.2-0.5c0.1-0.2,0.1-0.4-0.2-0.4
		c-0.3,0-0.5,0.1-0.7,0.2c-0.3,0.2-0.4,0.2-0.4-0.1s-0.1-0.3-0.1-0.5s0.1-0.2-0.2-0.2c-0.2,0-0.3,0-0.5,0.1
		c-0.3,0.2-0.3,0.1-0.3-0.1s-0.2-0.4-0.2-0.6s0.1-0.4,0-0.4s-0.4,0-0.6,0.1s-0.2,0.1-0.4,0.1s-0.3,0.1-0.3-0.1c0-0.2,0-0.4-0.1-0.6
		c0-0.2,0.1-0.5-0.1-0.4s-0.4,0-0.5,0.1s-0.4,0-0.4-0.1s-0.1-0.3-0.1-0.5C61.8,182.6,61.8,182.5,61.8,182.4L61.8,182.4z M67.9,190.7
		L67.9,190.7c0.1-0.3,0.1-0.7,0.2-1c0.1-0.4,0.2-0.6,0.3-0.9l0,0l0.7,0.1h0.1c0,0.4-0.1,0.8-0.2,1.1c-0.1,0.2-0.2,0.5-0.3,0.7
		C68.4,190.7,68.2,190.7,67.9,190.7L67.9,190.7z M67.4,188.7l-0.1,0.1c-0.1,0.2-0.3,0.6-0.5,1c-0.1,0.2-0.2,0.4-0.3,0.6l0,0h-0.1
		v-0.1c0-0.3,0-0.7-0.1-1c0-0.3-0.2-0.5-0.3-0.3s-0.2,0.1-0.5,0.3s-0.3,0.2-0.3-0.1c0-0.2,0-0.3-0.1-0.5c0-0.1-0.2-0.2-0.3-0.3
		c-0.1,0-0.3,0-0.4,0c-0.2,0-0.2,0-0.2-0.2s0-0.3-0.2-0.4s-0.3-0.3-0.5-0.3c-0.2,0-0.3,0-0.5,0.1c-0.2,0.1-0.3,0-0.3-0.2
		c0-0.2-0.1-0.3-0.1-0.4c0-0.2-0.1-0.2-0.3-0.2s-0.4-0.1-0.6-0.1c-0.2,0-0.3,0-0.5,0.1h-0.1c-0.2-0.2-0.4-0.5-0.7-0.7
		c-0.8-0.7-1.4-1.6-1.9-2.5c-0.1-0.5-0.2-0.9-0.1-1.4l0.4,0.4c0.5,0.5,1.2,1.1,1.7,1.8c0.7,0.8,1.5,1.5,2.4,2.2c0.9,0.8,2,1.5,3.1,2
		C66.6,188.5,67,188.6,67.4,188.7L67.4,188.7z M116.6,179.5c0.6,0.2,1.2,0.5,1.8,0.9c1.5,0.9,2.8,2.1,3.9,3.4
		c0.2,0.2,0.3,0.4,0.5,0.6c1.4,0.3,2.9,0.4,4.4,0.2c1.9-0.2,3.5-1.2,4.7-2.7c1-1.5,1.6-3.3,1.5-5.1c-0.1-1.9-0.6-3.7-1.4-5.4
		c-0.8-1.7-2.2-2.9-3.9-3.5c-1.6-0.7-3.3-1.1-5.1-1.1c-0.9,0-1.8,0.2-2.7,0.4c-0.2,0.4-0.5,0.8-0.8,1.2c-0.4,0.6-1,1.2-1.4,1.8
		c-0.7,1-1.1,2.1-1.2,3.3c-0.2,1.4-0.2,2.9-0.2,4.3C116.7,178.4,116.7,178.9,116.6,179.5"/>
	
		<path id="path18" style="clip-path:url(#SVGID_00000055699542320336322280000009961799849850908032_);fill-rule:evenodd;clip-rule:evenodd;fill:#FFFEFE;" d="
		M96.8,251.4c0-0.1,0-0.2,0-0.3c0-0.1,0-0.2-0.1-0.3c-0.1-0.1,0.1,0,0.2,0c0.1,0.1,0.2,0.1,0.2,0.2c0,0.1,0.1,0.1,0.1,0.2
		c0,0.1,0,0.1-0.1,0.1L96.8,251.4L96.8,251.4z M91.3,249.7c0-0.1,0.1-0.2,0.1-0.2c0.1-0.1,0.2-0.2,0.3-0.2c0,0-0.1,0-0.2,0
		c-0.1,0-0.2,0-0.3,0l-0.2,0.1c-0.1,0-0.1,0,0,0.2S91.2,249.7,91.3,249.7L91.3,249.7z M96.3,250.7c-0.1,0-0.2,0.1-0.3,0.2
		c-0.1,0.1-0.1,0.1-0.1,0.2c0,0,0,0-0.1-0.1l-0.1-0.2c0-0.1-0.2-0.2,0-0.2c0.1,0,0.2,0,0.2,0h0.3C96.3,250.6,96.3,250.6,96.3,250.7
		L96.3,250.7z M92.2,249.4c0.1,0.1,0.1,0.2,0.1,0.2c0,0.1,0,0.1,0,0.2c0,0,0,0,0.1,0l0.2-0.1c0.1,0,0.2-0.1,0.1-0.1l-0.2-0.1
		L92.2,249.4C92.2,249.4,92.1,249.4,92.2,249.4L92.2,249.4z M67.7,190.6c0-0.2,0.1-0.6,0.2-0.8s0.1-0.6,0.2-0.9
		c0.1-0.2,0.1-0.4,0.2-0.6c0-0.2,0-0.3-0.2-0.1c-0.2,0.2-0.4,0.4-0.6,0.7c-0.2,0.4-0.5,0.9-0.6,1.1s-0.2,0.4-0.2,0.4
		C67.1,190.5,67.4,190.6,67.7,190.6L67.7,190.6z M69.6,191.1c-0.2-0.1-0.5-0.2-0.6-0.2s0.1-0.3,0.1-0.5s0.3-1.1,0.3-1.4l0.4,0.1
		c0,0.3,0,0.7,0,1s0,0.5-0.1,0.7S69.6,191.1,69.6,191.1L69.6,191.1z M68,186c-0.2-0.1-0.5-0.2-0.7-0.3c-0.1,0.1-0.2,0.3-0.2,0.4
		c-0.1,0.3-0.3,0.7-0.4,1c-0.1,0.3-0.2,0.6-0.2,0.9c0,0.2,0.1,0.4,0.3,0c0.2-0.3,0.3-0.6,0.5-0.9c0.2-0.3,0.3-0.5,0.4-0.7
		C67.9,186.4,67.9,186.2,68,186z M66.2,190.3c-0.3-0.1-0.6-0.3-0.9-0.5c-0.2-0.1,0-0.2,0.1-0.3s0.3-0.2,0.5-0.4s0.3-0.2,0.3-0.1
		s0.1,0.6,0.1,0.8S66.2,190.3,66.2,190.3L66.2,190.3z M64.9,189.6c-0.3-0.2-0.8-0.5-1.1-0.7c-0.4-0.3-0.8-0.6-1.1-0.9
		c0,0,0.1,0,0.3-0.1c0.2-0.1,0.3-0.1,0.5-0.1c0.2,0,0.5,0.1,0.5,0.3c0,0.2,0,0.4,0,0.5s0,0.2,0.2,0.1c0.2-0.1,0.3-0.1,0.5-0.1
		c0.2,0,0.4,0,0.4,0.2c0,0.2,0,0.4,0,0.6C65,189.5,65,189.7,64.9,189.6L64.9,189.6z M62.5,187.8c-0.3-0.3-0.7-0.6-1-0.9
		c-0.1-0.1,0.1-0.1,0.3-0.1s0.3,0.1,0.5,0.1s0.3,0.1,0.3,0.3c0,0.2,0,0.4,0,0.5C62.6,187.8,62.5,187.8,62.5,187.8L62.5,187.8z
		 M66.7,185.4c-0.2-0.1-0.5-0.3-0.8-0.5s-1-0.6-1.3-0.8s-1.2-0.5-1.4-0.7s-0.2-0.2-0.2,0s0,0.3,0,0.6s0,0.4,0.2,0.3
		c0.2-0.1,0.4-0.1,0.6-0.2c0.1,0,0.3,0,0.4,0c0.2,0,0.3,0,0.3,0.1c0,0.2-0.1,0.3-0.1,0.5c0,0.1,0,0.2,0.1,0.3c0,0,0,0.1,0,0.1
		c0,0.1,0,0.1,0.1,0c0.1-0.1,0.3-0.1,0.4-0.1c0.2,0,0.2,0,0.4,0s0.2,0,0.1,0.2s0,0.2,0,0.4s0,0.4,0.2,0.2c0.2-0.1,0.4-0.1,0.6-0.2
		C66.6,185.6,66.8,185.6,66.7,185.4L66.7,185.4z M62.7,183c-0.3-0.1-0.5-0.3-0.8-0.4c-0.1-0.1-0.1,0.1,0,0.2s0,0.2,0.1,0.3
		s0,0.2,0.2,0.1S62.9,183.1,62.7,183L62.7,183z M57.3,190.2c0.2-0.2,0.2-0.5,0.2-0.8c0-0.1,0-0.1,0.1,0c0.1,0.1,0.2,0.3,0.2,0.4
		c0.1,0.3,0,0.3-0.2,0.4C57.6,190.3,57.4,190.3,57.3,190.2L57.3,190.2z M56.3,189.5c0-0.3,0.3-0.5,0.6-0.6c0.3,0,0.2,0,0-0.1
		c-0.2-0.1-0.4-0.2-0.6-0.3c-0.2-0.1-0.2-0.2-0.2,0.1c0,0.2,0,0.4,0,0.5C56.1,189.3,56.2,189.4,56.3,189.5L56.3,189.5z M110.2,239.9
		c-0.4,0.3-0.8,0.6-1.3,0.9c-0.8,0.3-1.4,0.9-1.7,1.7c0.9,0.7,1.7,1.5,2.3,2.4c0.4,0.5,0.5,1.3,0.1,1.9c-0.6,1.3-0.8,2.8-0.6,4.3
		c0.2,1.9,1.1,3.6,2.6,4.8c1.7,1.3,3.6,2.4,5.6,3.1c1.2,0.5,2.5,0.7,3.7,1.1c0.5,0.1,0.6,0.5,0.6,0.3c0.1-0.4,0-0.8-0.2-1.1
		c-0.4-0.6-0.9-1.2-1.6-1.6c-1-0.7-2.2-1.2-3.3-1.5c-0.5-0.1-1.1-0.3-1.6-0.5c0.8,0,1.6-0.2,2.4-0.6c0.4-0.2,0.7-0.5,0.9-0.8
		c-0.2-0.3-0.5-0.6-0.8-0.7c-0.8-0.4-1.7-0.7-2.6-0.9c0.6-0.2,1.1-0.5,1.6-0.9c0.2-0.2,0.3-0.4,0.4-0.6c-0.2-0.3-0.5-0.6-0.9-0.8
		c-0.6-0.3-1.3-0.5-2-0.5c0.7-0.2,1.3-0.6,1.8-1c0.3-0.3,0.4-0.6,0.6-0.9c0-0.1-0.5-0.4-0.7-0.5c-0.6-0.2-1.3-0.3-1.9-0.2
		c0.6-0.4,1.1-0.9,1.5-1.4c0.2-0.3,0.4-0.6,0.5-0.9c-0.3-0.2-0.6-0.4-1-0.4c-0.7-0.1-1.4-0.1-2,0.2c0.5-0.4,0.9-0.8,1.2-1.3
		c0.2-0.3,0.5-0.8,0.4-0.9c-0.3-0.2-0.6-0.3-0.9-0.3c-0.7-0.1-1.5,0-2.2,0.2c0.4-0.5,0.7-1,1-1.5c0.1-0.3,0.2-0.7,0.2-1
		c-0.3-0.1-0.6-0.2-0.9-0.1C111,239.7,110.6,239.8,110.2,239.9L110.2,239.9z M117.1,250.5c0.2,0,2.9-0.1,3.8,0
		c1.6,0.1,3.1,0.7,4.4,1.6c0.2,0.2,0.6,0.5,0.6,0.6c-0.2,0.2-0.5,0.3-0.8,0.4c-1.2,0.4-2.4,0.6-3.7,0.5c-0.4,0-0.8,0-1.2,0
		c0.4,0.2,1,0.3,1.4,0.4c1.9,0.6,3.9,1,5.3,2.3c0.2,0.2,0.6,0.5,0.6,0.6c-0.2,0.2-0.5,0.4-0.8,0.4c-0.7,0.2-1.5,0.3-2.3,0.2
		c-0.9-0.1-1.9-0.2-2.8-0.4c-0.2,0-0.7-0.1-0.8-0.1c0.3,0.1,0.5,0.2,0.8,0.3c1.3,0.4,2.6,0.7,3.9,1.2c1.5,0.4,2.7,1.4,3.5,2.7
		c0.2,0.3,0.2,0.7,0.2,1c0,0.3-0.3-0.2-0.8-0.4c-0.8-0.4-1.7-0.7-2.6-0.9c-1-0.2-2-0.3-2.9-0.6c-0.3-0.1-0.8-0.3-0.9-0.6
		c0-0.3-0.2-0.7-0.4-0.9c-0.6-0.7-1.3-1.3-2-1.8c-0.7-0.4-1.3-0.7-2.1-1c-0.3-0.1-0.5-0.1-0.8-0.3c0.5-0.2,1-0.5,1.4-0.8
		c0.2-0.2,0.4-0.4,0.5-0.6c-0.1-0.3-0.3-0.6-0.6-0.8c-0.4-0.3-0.9-0.6-1.3-0.8c-0.3-0.1-0.6-0.2-0.8-0.3c0.3-0.2,0.6-0.4,0.8-0.6
		c0.2-0.2,0.6-0.6,0.6-0.7C117.4,250.9,117.3,250.7,117.1,250.5L117.1,250.5z M123.8,252.4c-0.3-0.1-0.5-0.2-0.8-0.2
		c-1.2-0.2-2.5-0.3-3.7-0.4c-0.2,0-0.8-0.1-0.8,0.1c0,0.3,0.5,0.3,0.8,0.3c1.2,0.1,2.5,0.1,3.7,0.2
		C123.2,252.4,124,252.5,123.8,252.4L123.8,252.4z M125.6,256.5c-0.2-0.2-0.4-0.3-0.6-0.3c-1-0.3-2.1-0.5-3.1-0.7
		c-0.6-0.1-1.3-0.2-1.9-0.3c-0.2,0-0.5,0-0.5,0.1s0.3,0.2,0.5,0.3c0.6,0.2,1.3,0.2,1.9,0.3c1,0.1,2,0.2,2.9,0.5
		C125.1,256.4,125.7,256.6,125.6,256.5L125.6,256.5z M122.7,259.4c0.8,0.3,1.5,0.4,2.3,0.5c0.5,0.1,1.1,0.3,1.6,0.4
		c0.2,0.1,0.6,0.4,0.5,0.2c-0.1-0.2-0.3-0.3-0.4-0.4c-0.5-0.2-1.1-0.4-1.7-0.6c-0.7-0.1-1.4-0.3-2.2-0.5c-0.2-0.1-0.6-0.2-0.6-0.1
		S122.6,259.3,122.7,259.4L122.7,259.4z M117,250.2c-0.4-0.2-0.6-0.3-1-0.4s-0.5-0.2-0.7-0.3c0.3-0.1,0.5-0.3,0.7-0.5
		c0.3-0.3,0.6-0.6,0.8-1c0-0.1-0.2-0.4-0.4-0.6c0.7,0,1.6-0.1,2.3-0.1c1.4-0.1,2.7,0.1,4,0.6c0.4,0.1,0.8,0.3,1.2,0.5
		c0,0.1-0.6,0.5-1,0.6c-0.7,0.3-1.5,0.6-2.2,0.8C119.5,250.1,118.3,250.2,117,250.2L117,250.2z M122.4,248.5
		c-0.3-0.1-0.6-0.1-0.9-0.1c-1.1,0-2.2,0-3.3,0.1c-0.2,0-0.6,0-0.6,0.2s0.4,0.2,0.6,0.2c1.1-0.1,2.2-0.1,3.3-0.2
		C121.9,248.7,122.6,248.6,122.4,248.5L122.4,248.5z M115.1,246.7c0.4,0.1,0.7,0.2,1.1,0.4c0.8-0.1,1.7-0.3,2.5-0.5
		c1-0.3,2-0.9,2.8-1.6c0.2-0.2,0.6-0.5,0.6-0.6s-0.4-0.2-0.7-0.3c-1.1-0.2-2.2-0.3-3.3-0.2c-0.8,0.1-1.6,0.3-2.3,0.6
		c0.2,0.1,0.3,0.2,0.4,0.3c0,0.2-0.1,0.4-0.2,0.6C115.8,245.7,115.4,246.2,115.1,246.7L115.1,246.7z M120.8,244.6
		c-0.3,0-0.6,0-0.8,0.1c-1,0.2-1.9,0.4-2.9,0.6c-0.2,0.1-0.6,0.1-0.6,0.3s0.5,0.1,0.7,0.1c1-0.2,1.9-0.4,2.9-0.7
		C120.3,244.9,121.1,244.6,120.8,244.6L120.8,244.6z M114,244c0.5,0,1,0.1,1.5,0.2c0.8-0.2,1.5-0.5,2.2-0.9c0.8-0.4,1.5-1,2-1.7
		c0.1-0.2,0.3-0.5,0.3-0.6c-0.1-0.1-0.3-0.2-0.5-0.2c-0.9-0.1-1.8-0.1-2.7,0.1c-1,0.2-2,0.5-2.9,0.8c0.2,0,0.4,0.1,0.7,0.2
		c0.1,0.1,0.3,0.1,0.4,0.2c0,0.2-0.1,0.4-0.2,0.6C114.6,243.2,114.3,243.6,114,244z M118.9,241.4c0.2-0.1-0.4,0-0.6,0.1
		c-0.8,0.2-1.6,0.5-2.4,0.8c-0.2,0.1-0.4,0.1-0.4,0.3s0.4,0.1,0.6,0c0.8-0.2,1.5-0.5,2.3-0.9C118.5,241.7,118.7,241.6,118.9,241.4
		L118.9,241.4z M112.1,241.8c0.4-0.1,0.8-0.1,1.1-0.1c0.7-0.4,1.4-0.8,2-1.3c0.6-0.5,1.1-1.2,1.5-1.9c0.1-0.2,0.4-0.6,0.3-0.7
		s-0.5-0.1-0.8-0.1c-0.6,0-1.2,0.1-1.7,0.3c-0.7,0.2-1.3,0.4-1.9,0.7c-0.4,0.2-0.8,0.4-1.2,0.5c0.2,0,0.5,0,0.7,0.1
		c0.2,0,0.4,0.1,0.6,0.2c0,0.3-0.1,0.7-0.2,1C112.5,241,112.4,241.4,112.1,241.8L112.1,241.8z M116,238.5c-0.1,0.1-0.3,0.3-0.4,0.4
		c-0.6,0.3-1.1,0.7-1.7,1c-0.2,0.1-0.6,0.4-0.6,0.2c0-0.3,0.2-0.5,0.4-0.6c0.5-0.3,1.1-0.6,1.7-0.8
		C115.6,238.6,116.1,238.4,116,238.5L116,238.5z M112.9,235.9c0.2-0.1,0.5-0.3,0.4-0.2c-0.1,0.2-0.3,0.4-0.4,0.5c0,0,0,0,0,0.1
		c-0.1,0.3-0.2,0.6-0.3,0.9c-0.4,0.8-1,1.5-1.6,2.2h0.3c0.6-0.5,1.2-1.1,1.7-1.7c0.4-0.6,0.8-1.2,1.1-1.9c0.1-0.2,0.2-0.5,0.2-0.5
		c-0.2,0-0.4,0-0.6,0l-0.6,0.1C113,235.5,112.9,235.7,112.9,235.9L112.9,235.9z M130,262c0.9,0.6,1.9,1.1,3,1.5
		c1.3,0.6,2.6,1.1,3.9,1.6c1,0.3,2,0.4,2.9,0.5c0.2,0,0.6,0,0.7-0.1s-0.2-0.6-0.4-0.8c-0.4-0.5-0.9-1-1.4-1.4
		c-0.9-0.7-1.8-1.3-2.8-1.7c-1.6-0.8-3.3-1.5-5-2.2c-0.7-0.3-1.5-0.6-2.2-0.9c-0.2-0.1-0.7-0.3-0.5-0.3c0.3,0.1,0.7,0.1,1,0.2
		c1.1,0.3,2.2,0.7,3.3,1.1c2,0.8,4.1,1.1,6.2,0.9c0.3,0,0.7,0,1-0.1c0-0.1-0.4-0.6-0.7-0.8c-0.8-0.8-1.7-1.4-2.7-2
		c-1.6-0.9-3.3-1.6-5.1-2.1c-1.6-0.5-3.3-0.8-5-1.1c-0.2,0-0.8,0-0.7-0.1c0.2-0.1,0.5-0.1,0.7,0c1.2,0.1,2.5,0.2,3.8,0.4
		c1.6,0.3,3.1,0.4,4.7,0.4c0.9,0,1.8-0.2,2.7-0.4c0.3-0.1,0.8-0.1,0.8-0.2s-0.5-0.4-0.8-0.5c-1-0.6-2.1-1.1-3.3-1.5
		c-1.2-0.4-2.4-0.8-3.7-1.1c-2-0.4-4-0.6-6-0.8c-0.4,0-0.7-0.1-1.1-0.2c-0.3-0.1,0.7-0.1,1.1-0.1c1.8,0,3.5,0,5.2-0.1
		c1.6-0.2,3.2-0.6,4.8-1.1c0.3-0.1,0.8-0.3,0.8-0.4s-0.7-0.4-1.1-0.5c-1.6-0.6-3.4-1-5.1-1.1c-1.9-0.1-3.8-0.1-5.7-0.1
		c-0.8,0-1.7,0.1-2.3,0c0.6,0.3,1.3,0.5,1.9,0.6c0.5,0.2,1,0.5,1.4,0.8c-0.1,0.3-0.3,0.5-0.5,0.7c-0.8,0.5-1.6,0.9-2.5,1.2
		c0.9,0.2,1.7,0.4,2.6,0.8c0.7,0.3,1.4,0.8,2,1.3c0.2,0.1,0.4,0.3,0.4,0.6c-0.2,0.3-0.5,0.5-0.8,0.6c-0.7,0.3-1.5,0.4-2.1,0.6
		c0.6,0.3,1.6,0.5,2.4,0.9c0.7,0.4,1.4,0.9,2,1.6c0.1,0.2,0.3,0.4,0.4,0.5c0.1,0.1-0.4,0.4-0.6,0.5c-0.6,0.2-1.2,0.3-1.8,0.4
		c1.1,0.5,2.2,1.3,3.1,2.1C129.7,260.7,129.9,261.3,130,262z M138.5,264.5c-0.3-0.3-0.6-0.6-0.9-0.8c-0.5-0.3-2.6-1.2-3.4-1.6
		l-2.2-1c-0.4-0.2-1.1-0.4-0.9-0.1s0.4,0.4,0.9,0.6s1.6,0.8,2.2,1s2.6,1,3,1.2S138.6,264.7,138.5,264.5L138.5,264.5z M137.9,259.6
		c-0.2-0.1-0.5-0.4-1-0.6s-3-1.2-3.6-1.4l-2.7-1c-0.4-0.1-1.4-0.6-1.3-0.2s0.6,0.5,1.1,0.7l2.8,0.9c0.7,0.2,2.7,0.9,3.3,1.1
		C137,259.4,137.4,259.6,137.9,259.6L137.9,259.6z M136.5,254c-0.2-0.1-0.9-0.2-1.4-0.4s-1.9-0.5-3.3-0.8s-2.3-0.4-3-0.5
		s-1.3-0.2-1.1,0s0.5,0.3,1.1,0.4s1.8,0.2,3,0.4s2.6,0.5,3.3,0.6S136.7,254.1,136.5,254L136.5,254z M133.5,248.4
		c-0.3,0-1-0.1-1.7-0.1s-3.2-0.1-4.2-0.1s-2.1-0.1-1.8,0.1c0.6,0.3,1.2,0.4,1.8,0.3c0.8,0,3.5,0,4.1,0
		C132.4,248.6,133,248.5,133.5,248.4L133.5,248.4z M119.5,246.9l3.1-0.5c1.5-0.3,3.1-0.5,4.7-0.9c1.5-0.4,2.9-1,4.2-1.7
		c0.3-0.1,0.9-0.4,0.9-0.6c-0.3-0.1-0.6-0.2-0.9-0.3c-1.2-0.3-2.3-0.4-3.5-0.4c-1.6,0-3.1,0.1-4.6,0.3c-1.1,0.2-2.2,0.4-3.2,0.6
		c0.6,0.1,1.2,0.2,1.7,0.3c0.4,0.1,0.8,0.3,1.1,0.5c-0.2,0.3-0.4,0.6-0.6,0.9c-0.5,0.4-0.9,0.7-1.5,1
		C120.4,246.4,120,246.6,119.5,246.9L119.5,246.9z M130,243.4c-0.3,0-1,0.1-1.5,0.1s-3,0.3-3.5,0.4s-1.6,0.1-1.4,0.3
		s0.8,0.1,1.4,0.1s2.9-0.4,3.4-0.5S130.3,243.4,130,243.4L130,243.4z M119.3,243.1c0.8-0.3,1.7-0.5,2.5-0.8c1.2-0.4,2.4-1,3.5-1.6
		c0.8-0.5,1.6-1,2.3-1.6c0.3-0.2,0.8-0.7,0.8-0.8s-0.6-0.2-0.9-0.2c-1.2,0-2.3,0-3.5,0.3c-1.3,0.3-2.6,0.6-3.9,1.1
		c-1,0.3-2,0.7-2.9,1.1c0.7-0.1,1.4-0.1,2.1-0.1c0.5,0.1,1,0.2,1.4,0.4c-0.1,0.4-0.3,0.8-0.5,1.2
		C119.9,242.3,119.6,242.7,119.3,243.1L119.3,243.1z M126.7,238.6c-0.6,0.1-1.2,0.2-1.7,0.4c-0.5,0.2-1.8,0.7-2.3,0.9
		s-1.5,0.4-1.1,0.5c0.4,0.1,0.9,0,1.2-0.2c0.3-0.2,1.9-0.7,2.2-0.9S127,238.6,126.7,238.6L126.7,238.6z M116,240.5
		c0.6-0.4,1.3-0.7,1.9-1c1.2-0.6,2.4-1.3,3.4-2.1c0.8-0.7,1.6-1.4,2.3-2.2c0.2-0.2,0.5-0.6,0.5-0.7c-0.3-0.1-0.6-0.2-0.8-0.1
		c-1,0-2,0.2-2.9,0.4c-1,0.3-1.9,0.6-2.8,1.1c-0.7,0.5-1.3,1-2,1.4c0.4,0,0.8,0,1.2,0c0.4,0,0.8,0.1,1.2,0.2c-0.1,0.3-0.2,0.7-0.4,1
		c-0.2,0.4-0.5,0.9-0.8,1.3C116.4,240,116.2,240.3,116,240.5L116,240.5z M122.5,235.1c-0.3,0.1-0.9,0.4-1.4,0.5
		c-0.7,0.3-1.4,0.5-2,0.9c-0.4,0.3-0.8,0.4-0.5,0.6s0.5-0.1,0.8-0.2s1.6-0.7,1.9-0.9S122.8,235,122.5,235.1L122.5,235.1z
		 M113.3,237.9c0.5-0.2,1.1-0.5,1.6-0.6c0.8-0.7,1.8-1.3,2.6-1.9c0.9-0.8,1.7-1.6,2.3-2.6c0.2-0.3,0.5-0.9,0.5-1
		c-0.4-0.1-0.8-0.1-1.2,0c-1.1,0.2-2.1,0.6-3.1,1.1c-1,0.6-2,1.1-3,1.7c0.6,0,1.1,0,1.7,0.1c0,0.4-0.1,0.8-0.3,1.1
		C114.1,236.5,113.6,237.2,113.3,237.9L113.3,237.9z M118.9,232.6c-0.2,0.1-0.7,0.3-1,0.6l-1.8,1.1c-0.4,0.2-0.6,0.4-0.4,0.5
		s0.4,0.1,0.7-0.2s1.2-0.8,1.6-1.1S119.1,232.5,118.9,232.6L118.9,232.6z M88.6,240c-1.1,0.4-2.1,0.9-3.1,1.5c-1,0.5-1.9,1.2-2.8,2
		c-0.5,0.4-0.7,1.2-0.4,1.8c0.3,1.4,0.3,2.9-0.2,4.3c-0.5,1.8-1.8,3.4-3.4,4.3c-1.9,1-3.9,1.7-6.1,2c-1.3,0.2-2.6,0.3-3.8,0.4
		c-0.5,0.1-0.7,0.4-0.7,0.2c0-0.4,0.1-0.8,0.4-1.1c0.5-0.6,1.1-1,1.8-1.3c1.1-0.5,2.3-0.8,3.6-0.9c0.6,0,1.1-0.1,1.6-0.2
		c-0.8-0.2-1.6-0.5-2.2-1c-0.3-0.3-0.6-0.6-0.7-0.9c0.3-0.3,0.6-0.5,1-0.6c0.9-0.3,1.8-0.4,2.7-0.4c-0.6-0.3-1-0.6-1.4-1.1
		c-0.2-0.2-0.3-0.4-0.3-0.7c0.3-0.3,0.6-0.5,1-0.6c0.7-0.2,1.4-0.2,2.1-0.2c-0.6-0.3-1.2-0.8-1.6-1.3c-0.2-0.3-0.3-0.6-0.4-1
		c0.2-0.2,0.5-0.3,0.8-0.4c0.7-0.1,1.3-0.1,1.9,0.2c-0.5-0.5-0.9-1-1.3-1.6c-0.2-0.3-0.3-0.6-0.3-1c0.3-0.2,0.7-0.2,1.1-0.2
		c0.7,0,1.4,0.2,2,0.5c-0.4-0.4-0.7-0.9-1-1.4c-0.1-0.3-0.3-0.9-0.2-0.9c0.3-0.1,0.7-0.2,1-0.2c0.7,0,1.5,0.2,2.1,0.6
		c-0.3-0.5-0.6-1.1-0.7-1.7c-0.1-0.3-0.1-0.7,0-1c0.3-0.1,0.6-0.1,0.9,0c0.7,0.2,1.4,0.5,2,0.8c-0.3-0.5-0.6-1-0.7-1.6
		c-0.1-0.3-0.1-0.9,0-1c0.3-0.1,0.7,0,1,0.1c0.6,0.1,1.1,0.3,1.6,0.7c0-0.2,0-0.4,0.1-0.6c0.3,1.3,1.1,2.4,2.2,3.1
		C88.2,239.7,88.4,239.9,88.6,240L88.6,240z M84.8,235.3c-0.2-0.3-0.4-0.6-0.6-0.9c-0.3-0.6-0.4-1.2-0.5-1.8c0-0.2,0-0.4,0-0.6
		c0-0.1,0.4,0,0.6,0.1c0.4,0.2,0.7,0.4,1,0.6c-0.1,1.3,0.1,2.5,0.5,3.7C85.5,236.1,85.1,235.7,84.8,235.3L84.8,235.3z M74.5,247.7
		c-0.2-0.1-2.9-0.6-3.8-0.7c-1.6-0.2-3.2,0.1-4.6,0.8c-0.2,0.1-0.7,0.4-0.7,0.5s0.4,0.4,0.7,0.5c1.1,0.7,2.3,1.1,3.5,1.2
		c0.4,0,0.8,0.1,1.1,0.2c-0.4,0.1-1,0.1-1.5,0.2c-2,0.2-4,0.3-5.6,1.3c-0.2,0.1-0.7,0.4-0.7,0.5s0.4,0.4,0.7,0.6
		c0.7,0.3,1.4,0.5,2.2,0.6c0.9,0.1,1.9,0.1,2.8,0.1c0.3,0,0.7,0,0.8,0.1c-0.3,0.1-0.6,0.1-0.9,0.2c-1.3,0.2-2.7,0.2-4,0.5
		c-1.5,0.2-2.9,0.9-3.9,2c-0.2,0.3-0.3,0.6-0.4,1c0,0.3,0.3-0.1,0.8-0.3c0.9-0.2,1.8-0.4,2.7-0.4c1-0.1,2,0.1,3,0
		c0.4,0,0.8-0.2,1-0.5c0.1-0.3,0.3-0.6,0.6-0.9c0.7-0.6,1.4-1,2.2-1.4c0.7-0.3,1.5-0.5,2.2-0.6c0.3-0.1,0.6-0.1,0.8-0.1
		c-0.4-0.3-0.8-0.6-1.2-1c-0.2-0.2-0.3-0.4-0.4-0.7c0.2-0.3,0.4-0.5,0.7-0.7c0.5-0.2,1-0.4,1.5-0.5c0.3-0.1,0.6-0.1,0.9-0.1
		c-0.2-0.2-0.5-0.5-0.7-0.8c-0.2-0.2-0.3-0.5-0.4-0.8C74.1,248.1,74.3,247.9,74.5,247.7L74.5,247.7z M67.4,255.4
		c-0.8,0.1-1.6,0.1-2.4,0.1c-0.5,0-1.1,0.1-1.6,0.1c-0.2,0-0.7,0.2-0.5,0.1c0.1-0.1,0.3-0.2,0.5-0.3c0.6-0.1,1.1-0.2,1.7-0.3
		c0.7,0,1.5,0,2.2-0.1c0.2,0,0.6-0.1,0.6,0C67.7,255.3,67.6,255.4,67.4,255.4L67.4,255.4z M65.1,252.1c0.2-0.1,0.4-0.2,0.6-0.2
		c1-0.1,2.1-0.1,3.2-0.1c0.7,0,1.3,0,2,0c0.2,0,0.5,0,0.4,0.2s-0.3,0.2-0.5,0.2c-0.6,0-1.3,0-2,0c-1,0-2-0.1-3-0.1
		C65.5,252,64.9,252.1,65.1,252.1L65.1,252.1z M67.6,248.3c0.3-0.1,0.6-0.1,0.8-0.1c1.2,0.1,2.5,0.2,3.7,0.3c0.2,0,0.8,0.1,0.7,0.2
		c-0.1,0.3-0.5,0.2-0.8,0.2c-1.2-0.1-2.4-0.3-3.7-0.4C68.1,248.5,67.3,248.4,67.6,248.3z M74.6,247.4c0.4-0.1,0.6-0.2,1-0.2
		c0.3-0.1,0.5-0.1,0.8-0.1c-0.2-0.2-0.5-0.4-0.7-0.6c-0.3-0.3-0.5-0.7-0.6-1.1c0-0.1,0.2-0.4,0.5-0.5c-0.7-0.2-1.5-0.3-2.2-0.5
		c-1.3-0.3-2.7-0.4-4-0.2c-0.4,0-0.9,0.1-1.3,0.3c0,0.1,0.6,0.6,0.9,0.8c0.6,0.5,1.3,0.9,2,1.2C72.1,246.9,73.3,247.2,74.6,247.4
		L74.6,247.4z M69.6,244.8c0.3,0,0.6,0,0.9,0c1.1,0.2,2.2,0.4,3.3,0.7c0.2,0,0.6,0.1,0.6,0.4s-0.4,0.1-0.7,0
		c-1.1-0.3-2.2-0.5-3.2-0.8C70.1,244.9,69.4,244.7,69.6,244.8L69.6,244.8z M77.1,244.3c-0.4,0.1-0.7,0.1-1.1,0.2
		c-0.8-0.3-1.6-0.6-2.4-0.9c-1-0.5-1.8-1.2-2.5-2.1c-0.2-0.2-0.5-0.6-0.5-0.7s0.5-0.2,0.7-0.2c1.1,0,2.2,0.1,3.2,0.4
		c0.8,0.3,1.5,0.6,2.2,1c-0.2,0-0.3,0.1-0.5,0.2c0,0.2,0,0.4,0.1,0.6C76.6,243.3,76.9,243.8,77.1,244.3L77.1,244.3z M71.9,241.3
		c0.3,0,0.6,0.1,0.8,0.2c0.9,0.3,1.8,0.7,2.7,1.1c0.2,0.1,0.6,0.2,0.5,0.4s-0.5,0-0.7-0.1c-0.9-0.4-1.8-0.8-2.7-1.2
		C72.3,241.6,71.6,241.2,71.9,241.3z M78.7,241.9c-0.5-0.1-1-0.1-1.5-0.1c-0.7-0.4-1.4-0.8-2-1.3c-0.7-0.5-1.2-1.2-1.6-2
		c-0.1-0.2-0.2-0.5-0.2-0.6c0.2-0.1,0.3-0.1,0.5-0.1c0.9,0,1.8,0.2,2.7,0.6c1,0.4,1.9,0.8,2.8,1.3c-0.2,0-0.5,0-0.7,0.1
		c-0.2,0-0.3,0.1-0.4,0.1c0,0.2,0,0.4,0.1,0.6C78.3,241,78.5,241.5,78.7,241.9L78.7,241.9z M74.4,238.5c-0.1-0.1,0.4,0.1,0.6,0.2
		c0.8,0.4,1.5,0.8,2.2,1.2c0.2,0.1,0.3,0.2,0.4,0.4s-0.4,0-0.6-0.1c-0.7-0.4-1.4-0.8-2.1-1.3C74.7,238.7,74.5,238.6,74.4,238.5
		L74.4,238.5z M81,240c-0.3-0.2-0.7-0.3-1.1-0.3c-0.7-0.5-1.3-1.1-1.8-1.7c-0.5-0.6-0.8-1.3-1.1-2.1c-0.1-0.2-0.2-0.5-0.2-0.7
		c0.1-0.1,0.5,0,0.7,0.1c0.6,0.1,1.1,0.3,1.7,0.6c0.6,0.3,1.2,0.6,1.8,1.1c0.4,0.2,0.7,0.5,1,0.7c-0.2,0-0.5,0-0.7,0
		c-0.2,0-0.4,0-0.6,0.1c0,0.3,0,0.7,0,1C80.7,239.2,80.8,239.6,81,240L81,240z M77.7,236c0.1,0.2,0.2,0.3,0.4,0.4
		c0.5,0.4,1,0.9,1.5,1.3c0.2,0.1,0.5,0.4,0.5,0.3c0-0.3-0.1-0.5-0.3-0.7c-0.5-0.4-1-0.8-1.5-1.1C78.1,236.2,77.7,235.9,77.7,236z
		 M83.1,238c-0.1-0.4-0.2-0.8-0.3-1.2c0-0.3,0.1-0.5,0.2-0.8c0.3,0,0.5,0,0.7,0c0.3,0,0.7,0,1,0.1c-0.2-0.3-0.4-0.6-0.6-0.8
		c-0.5-0.6-1.1-1.1-1.8-1.5c-0.5-0.2-0.9-0.4-1.4-0.6c-0.2-0.1-0.4-0.1-0.6-0.1c0,0,0,0.4,0.1,0.5c0.1,0.7,0.4,1.4,0.7,2.1
		c0.4,0.7,0.8,1.3,1.3,1.9C82.7,237.8,83,237.9,83.1,238L83.1,238z M81,233.8c-0.1-0.2,0.3,0.2,0.5,0.4c0.4,0.4,0.7,0.8,1,1.2
		c0.1,0.1,0.2,0.3,0.1,0.4s-0.3,0-0.4-0.2c-0.3-0.4-0.6-0.8-0.8-1.2C81.2,234.2,81.1,234,81,233.8z M59.8,256.7
		c-1,0.4-2.1,0.7-3.3,0.9c-1.4,0.4-2.8,0.7-4.2,0.9c-1,0.1-2,0.1-3-0.1c-0.2,0-0.6-0.1-0.7-0.2s0.3-0.5,0.5-0.8
		c0.5-0.4,1-0.8,1.6-1.1c1-0.5,2-0.9,3.1-1.2c1.8-0.5,3.6-0.9,5.3-1.2c0.8-0.2,1.6-0.3,2.4-0.5c0.2,0,0.8-0.2,0.6-0.2
		c-0.3,0-0.7,0-1,0c-1.2,0.1-2.3,0.3-3.5,0.5c-2.1,0.4-4.3,0.3-6.3-0.3c-0.3-0.1-0.7-0.2-1-0.3c0-0.1,0.5-0.5,0.8-0.6
		c0.9-0.6,2-1.1,3-1.5c1.8-0.6,3.6-1,5.4-1.2c1.7-0.2,3.4-0.2,5.1-0.2c0.2,0,0.8,0.1,0.7,0c-0.2-0.1-0.4-0.2-0.7-0.2
		c-1.2-0.1-2.5-0.2-3.8-0.3c-1.6,0-3.1-0.2-4.7-0.5c-0.9-0.2-1.8-0.5-2.6-0.9c-0.3-0.1-0.8-0.3-0.8-0.4s0.5-0.3,0.8-0.4
		c1.1-0.4,2.3-0.7,3.5-0.9c1.3-0.2,2.5-0.3,3.8-0.4c2-0.1,4,0.2,6,0.3c0.4,0,0.7,0,1.1,0c0.3-0.1-0.7-0.2-1-0.2
		c-1.7-0.4-3.4-0.6-5.1-1.1c-1.6-0.5-3.1-1.2-4.5-2c-0.3-0.1-0.8-0.4-0.7-0.5s0.8-0.3,1.2-0.3c1.7-0.3,3.5-0.3,5.2-0.2
		c1.9,0.2,3.8,0.6,5.6,0.9c0.8,0.1,1.6,0.4,2.3,0.5c-0.7,0.1-1.3,0.2-2,0.3c-0.5,0.1-1,0.3-1.5,0.5c0.1,0.3,0.2,0.5,0.4,0.8
		c0.7,0.6,1.4,1.2,2.2,1.7c-0.9,0-1.8,0.1-2.7,0.3c-0.8,0.2-1.5,0.5-2.2,0.9c-0.2,0.1-0.4,0.3-0.5,0.5c0.1,0.3,0.4,0.6,0.7,0.8
		c0.6,0.4,1.4,0.7,1.9,1c-0.6,0.2-1.7,0.2-2.5,0.5c-0.8,0.3-1.5,0.7-2.2,1.2c-0.2,0.1-0.3,0.3-0.4,0.5c-0.1,0.1,0.3,0.4,0.5,0.6
		c0.8,0.4,1.3,0.6,1.6,0.8c-1.3,0.3-2.5,0.9-3.6,1.6C60.3,255.5,60,256.1,59.8,256.7L59.8,256.7z M58.8,242.6c0.3,0,1,0.1,1.7,0.2
		s3.1,0.5,4.1,0.6c1,0.1,2.1,0.2,1.8,0.4c-0.6,0.2-1.3,0.2-1.9,0c-0.8-0.1-3.5-0.6-4-0.7C59.9,243,59.4,242.9,58.8,242.6L58.8,242.6
		z M51,257.6c0.3-0.2,0.6-0.5,1-0.6c0.5-0.2,2.8-0.7,3.7-0.9s1.9-0.5,2.3-0.6s1.1-0.2,0.9,0.1s-0.5,0.3-1,0.4
		c-0.5,0.1-1.7,0.5-2.4,0.6s-2.8,0.6-3.2,0.7S50.8,257.8,51,257.6L51,257.6z M52.4,253c0.2-0.1,0.6-0.3,1.1-0.4s3.1-0.6,3.8-0.7
		s2.4-0.4,2.9-0.4s1.5-0.3,1.3,0s-0.7,0.4-1.3,0.5l-2.9,0.4c-0.7,0.1-2.8,0.4-3.4,0.5C53.4,252.9,52.9,253,52.4,253L52.4,253z
		 M54.8,247.7c0.5-0.1,1-0.1,1.5-0.1c0.6,0,1.9-0.1,3.4-0.1h3.1c0.7,0,1.3,0,1.1,0.2s-0.5,0.2-1.2,0.2s-1.9-0.1-3-0.1s-2.7,0-3.3,0
		S54.6,247.7,54.8,247.7L54.8,247.7z M72.8,243.7c-1-0.3-2-0.7-2.9-1c-1.5-0.5-3-1.1-4.4-1.8c-1.4-0.7-2.6-1.5-3.8-2.4
		c-0.2-0.2-0.8-0.6-0.8-0.7s0.6-0.1,0.9-0.1c1.2-0.1,2.4,0,3.6,0.2c1.5,0.3,3,0.6,4.5,1.1c1,0.4,2,0.8,3.1,1.1
		c-0.6-0.1-1.2-0.1-1.8,0c-0.4,0-0.8,0.2-1.2,0.3c0.1,0.3,0.2,0.7,0.4,1c0.4,0.5,0.8,0.9,1.2,1.3C72.1,243.1,72.4,243.3,72.8,243.7
		L72.8,243.7z M63.2,238.4l1.4,0.4c0.5,0.1,2.9,0.9,3.4,1s1.6,0.4,1.3,0.6s-0.9,0-1.4-0.2s-2.8-0.9-3.3-1.1S62.9,238.2,63.2,238.4
		L63.2,238.4z M73.8,240c-0.8-0.4-1.5-0.8-2.3-1.3c-1.1-0.6-2.2-1.4-3.2-2.2c-0.7-0.6-1.4-1.3-1.9-2c-0.2-0.3-0.6-0.8-0.6-0.9
		s0.6-0.1,1-0.1c1.2,0.2,2.3,0.5,3.4,0.9c1.2,0.5,2.5,1.1,3.6,1.7c0.9,0.5,1.8,1,2.7,1.6c-0.7-0.2-1.4-0.4-2.1-0.4
		c-0.5,0-1,0-1.5,0.1c0,0.4,0.1,0.9,0.2,1.3C73.4,239.2,73.6,239.6,73.8,240L73.8,240z M67.3,234.3c0.6,0.2,1.1,0.4,1.6,0.7
		c0.4,0.2,1.7,1,2.1,1.3s1.4,0.7,1,0.7c-0.4,0-0.9-0.1-1.2-0.4c-0.3-0.2-1.7-1.1-2-1.3S67.1,234.2,67.3,234.3L67.3,234.3z
		 M77.5,238.1c-0.5-0.5-1.1-0.9-1.7-1.4c-1.1-0.8-2.1-1.7-3-2.7c-0.7-0.8-1.3-1.7-1.8-2.7c-0.1-0.3-0.4-0.7-0.3-0.8
		c0.3-0.1,0.6-0.1,0.9,0c1,0.2,1.9,0.5,2.8,0.9c0.9,0.4,1.8,1,2.6,1.6c0.6,0.6,1.2,1.2,1.8,1.8c-0.4-0.1-0.8-0.2-1.2-0.2
		c-0.4,0-0.8-0.1-1.2-0.1c0,0.4,0.1,0.7,0.2,1.1c0.2,0.5,0.4,1,0.6,1.4C77.2,237.4,77.3,237.7,77.5,238.1L77.5,238.1z M72,231.5
		c0.3,0.1,0.8,0.5,1.2,0.8c0.6,0.4,1.2,0.8,1.8,1.2c0.4,0.3,0.7,0.6,0.4,0.6s-0.5-0.2-0.7-0.4s-1.4-1-1.7-1.2S71.7,231.4,72,231.5z
		 M80.6,236c-0.5-0.3-1-0.6-1.4-0.9c-0.7-0.8-1.5-1.6-2.2-2.4c-0.7-0.9-1.4-1.9-1.8-3c-0.2-0.3-0.3-0.7-0.3-1c0.4,0,0.8,0.1,1.2,0.2
		c1,0.4,2,0.9,2.8,1.7c0.9,0.8,1.8,1.5,2.6,2.2c-0.6-0.1-1.1-0.2-1.7-0.2c0,0.4,0,0.8,0.1,1.2C80.1,234.5,80.3,235.3,80.6,236
		L80.6,236z M76,229.8c0.2,0.1,0.6,0.4,0.9,0.7l1.6,1.4c0.3,0.3,0.5,0.5,0.3,0.6s-0.4,0-0.7-0.3s-1.1-1-1.3-1.4S75.8,229.6,76,229.8
		L76,229.8z M83.6,234.1c-0.4-0.4-0.8-0.7-1.3-1c-0.7-0.8-1.4-1.6-2.1-2.4c-0.6-0.8-1-1.6-1.2-2.5c-0.1-0.3-0.1-0.7-0.1-1
		c0.3,0,0.7,0.1,1,0.3c0.9,0.5,1.8,1.1,2.6,1.9c0.8,0.8,1.5,1.7,2.3,2.5c-0.5-0.2-0.9-0.3-1.4-0.5c-0.1,0.4-0.2,0.8-0.1,1.3
		C83.4,233.1,83.5,233.6,83.6,234.1L83.6,234.1z M79.8,228.1c0.3,0.2,0.6,0.4,0.9,0.7c0.3,0.3,1.4,1.6,1.6,1.9s0.2,0.3,0.1,0.4
		s-0.3-0.1-0.5-0.3s-1.4-1.7-1.7-2S79.6,228,79.8,228.1L79.8,228.1z M92.3,257.6c0.2,0.4,0.5,0.7,1,0.8c0.5,0.1,0.9,0.1,1.4-0.1
		l1.7-0.4c0.6-0.1,1.1-0.4,1.5-0.8c0.4-0.4,0.8-0.9,1.1-1.5c0.2-0.5,0.5-1.1,0.8-1.8c0.3-0.8,0.8-1.6,1.3-2.2
		c0.5-0.4,0.9-0.9,1.1-1.5c0.3-0.6,0.4-1.1,0.5-1.8c0.1-0.4,0.2-1.3,0.2-1.6c0.1-0.2,0.1-0.4,0-0.6c-0.1-0.6-0.1-1.2,0-1.8
		c0.1-0.6,0.1-1.4,0.1-1.8s0-0.9-0.1-0.5c-0.1,0.5-0.3,0.9-0.4,1.4c-0.2,0.3-0.3,0.7-0.4,1c0,0.3-0.2,0.1-0.3-0.2
		c-0.1-0.4,0-0.8,0.2-1.1c0.2-0.4,0.6-0.9,0.5-1.2s-0.1-0.4-0.3-0.2c-0.3,0.1-0.6,0.3-0.8,0.5c-0.2,0.4-0.3,0.9-0.4,1.3
		c-0.1,0.4,0,0.8-0.2,0.7c-0.2-0.2-0.3-0.5-0.3-0.7c0-0.2,0-0.5,0-0.7c0-0.3,0-0.3-0.2-0.2s-0.3,0.4-0.4,0.6s-0.3,0.7-0.4,1
		c-0.1,0.2-0.1,0.5,0,0.8c0.2,0.6,0.3,1.2,0.3,1.7c0,0.5,0.1,2.2,0.2,2.6s0,0.3,0.2,0s0.2-0.4,0.3-0.5s0.1-0.3,0.2,0
		c0.1,0.2,0.1,0.5,0,0.8c-0.1,0.3-0.3,0.6-0.6,0.8c-0.3,0.3-0.6,0.7-0.8,1.1c-0.2,0.4-0.8,1.5-1,1.7c-0.1,0.2-0.3,0.4-0.4,0.6
		c-0.1,0.1-0.1,0.4-0.2,0.7s-0.4,0.6-0.8,0.6s-0.2-0.1,0-0.3s0.3-0.3,0.3-0.4s-0.1-0.1-0.3,0c-0.3,0.2-0.6,0.4-0.9,0.4
		c-0.2,0-0.5,0.1-0.7,0.2c-0.2,0.1-0.2,0.4-0.4,0.5s-0.4,0.1-0.5,0.1s-0.1-0.2,0.1-0.3c0.2-0.1,0.3-0.2,0.5-0.4
		c0.1-0.2,0.5-0.4,0.1-0.3c-0.5,0-0.9,0.2-1.3,0.4c-0.2,0.2-0.5,0.8-0.8,1.1c-0.2,0.3-0.3,0.7-0.5,1.1
		C92.3,257.1,92.4,257.4,92.3,257.6L92.3,257.6z M100.7,244.6c0,0.3,0,0.7,0,1c0.1,0.5,0.1,0.9,0.1,1.4c0,0.4-0.1,0.8-0.1,1.2
		c-0.1,0.2,0,0.2,0.2,0c0.2-0.2,0.4-0.4,0.5-0.7c0.1-0.4,0.1-0.7,0-1.1c-0.1-0.4-0.2-0.7-0.3-1.1C100.9,245,100.8,244.5,100.7,244.6
		L100.7,244.6z M89.8,247.8c0.1-0.3,0.2-0.5,0.3-0.7c0.1-0.4,0.2-0.7,0.3-1.1c0-0.5,0.1-1,0.2-1.6c0.1-0.3,0.2-0.6,0.3-0.9
		c0.2-0.2,0.3-0.4,0.4-0.7c0.1-0.2,0-0.3-0.2-0.1s-0.4,0.3-0.6,0.5c-0.2,0.3-0.4,0.6-0.5,0.9c-0.1,0.4-0.1,0.8-0.1,1.2
		c0.1,0.4,0.1,0.8,0,1.1c-0.1,0.3-0.1,0.6-0.2,0.9C89.7,247.7,89.8,247.9,89.8,247.8L89.8,247.8z M91.7,257.5
		c-0.4,0.2-1,0.1-1.3-0.2c-0.3-0.3-0.8-0.7-1.1-1.1c-0.4-0.4-0.7-0.9-0.8-1.5c-0.1-0.7-0.2-1.3-0.2-2c0-0.5,0.1-1.8,0.2-2.4
		c0-0.7,0-1.4,0-2.1c-0.1-0.7-0.1-1.5,0-2.2c0.2-0.6,0.4-1.3,0.7-1.9c0.3-0.4,0.6-0.8,1-1.2c0.4-0.5,0.8-1,1.2-1.5
		c0.1-0.2,0.3-0.5,0.5-0.6c0.3-0.3,0.6-0.4,0.8-0.6s0.1-0.1,0.3,0s0.3,0.1,0.3,0.4c0,0.4-0.1,0.8-0.2,1.2c-0.1,0.3-0.4,0.8-0.5,1.1
		s-0.1,0.3-0.1,0.4s0.1,0,0.2-0.1c0.2-0.2,0.4-0.4,0.6-0.6c0.3-0.2,0.5-0.5,0.6-0.9c0.1-0.3,0-0.6-0.1-0.9c-0.1-0.3-0.1-0.3,0.1-0.2
		c0.2,0.1,0.3,0.2,0.5,0.3c0.2,0.1,0.3,0.2,0.4,0.4c0,0.2,0,0.3,0,0.5c0,0.2-0.1,0.4-0.1,0.6c0,0.2-0.1,0.2-0.3,0.4
		c-0.3,0.2-0.5,0.4-0.8,0.6c-0.2,0.2-0.8,1-1,1.1c-0.3,0.3-0.6,0.7-0.8,1.1c-0.2,0.3-0.6,1-0.7,1.3s-0.5,1.1-0.6,1.6s-0.3,1-0.4,1.5
		s-0.2,0.5,0,0.9c0.3,0.5,0.5,1,0.8,1.5c0.3,0.5,0.5,1.1,0.6,1.7c0,0.6,0.1,0.3,0.2,0.1s0-0.4,0.1-0.3c0.3,0.4,0.5,0.8,0.6,1.2
		c0,0.4,0.2,0.6,0.2,0.8c0,0.3-0.1,0.5-0.2,0.8c0,0.2-0.1,0.4-0.2,0.5C91.8,257.4,91.7,257.5,91.7,257.5L91.7,257.5z M112.1,236.3
		c-0.2,0.8-0.6,1.6-1.2,2.2c-0.9,0.9-1.8,1.6-2.9,2.2c-0.7,0.3-1,0.5-1.1,0.9c0,0.5-0.2,1-0.5,1.5c-0.3,0.4-0.6,0.5-1,0.2
		c-0.6-0.7-1.1-1.4-1.5-2.2c-0.5-1.1-0.9-2.2-1.1-3.4c-0.2-1.2-0.3-2.5-0.2-3.7c0-1,0.4-2.1,1-2.9c0.5-0.6,1.2-1,2-1.2
		c0.7-0.3,1.4-0.3,2.1-0.1c0.6,0.2,1.1,0.7,1.3,1.3c0.3,1.2,0.9,2.2,1.5,3.2c0.4,0.5,0.9,0.8,1.5,1c0.4,0.1,0.3,0.2,0.3,0.4
		C112.2,235.9,112.2,236.1,112.1,236.3L112.1,236.3z M106.5,241.1c-0.6-0.4-1-0.9-1.4-1.4c-0.4-0.7-0.8-1.4-1-2.1
		c-0.2-0.9-0.4-1.7-0.4-2.6c0-0.6,0-0.4,0.2,0.1s0.4,1.6,0.7,2.4c0.3,0.8,0.6,1.5,1.1,2.1c0.3,0.4,0.6,0.9,0.9,1.3
		C106.7,241,106.7,241.1,106.5,241.1L106.5,241.1z M98.7,243.7c-0.3-0.3-0.6-0.6-1-0.8c-0.5-0.3-1-0.5-1.6-0.6c-0.3,0-0.7,0-1,0.2
		c-0.2,0.1-0.2,0.1-0.2-0.1c0.1-0.4,0.1-0.9,0.1-1.3c0-0.4-0.1-0.4,0.2-0.6c0.3-0.2,0.7-0.4,1.1-0.6c0.3-0.1,0.7-0.1,1-0.1
		c0.5,0.1,1,0.3,1.4,0.5c0.4,0.2,0.7,0.5,1,0.8c0.2,0.1,0.3,0.3,0.3,0.6c0.1,0.1,0.1,0.1-0.1,0.2c-0.2,0.2-0.4,0.4-0.5,0.7
		c-0.2,0.3-0.3,0.7-0.4,1C98.9,243.9,98.9,244,98.7,243.7L98.7,243.7z M100.5,241.4c-0.2-0.4-0.4-0.8-0.8-1.1
		c-0.4-0.4-0.8-0.6-1.3-0.8c-0.6-0.2-1.3-0.3-1.9-0.2c-0.5,0-1,0.2-1.5,0.6c-0.2,0.2-0.4,0.4-0.5,0.6c-0.1,0.2-0.1,0.2-0.4,0
		s-0.6-0.4-0.9-0.6s-0.3-0.1-0.1-0.6s0.6-1,0.7-1.3s0-0.3,0.4-0.5c0.5-0.3,1.1-0.5,1.7-0.6c0.8-0.1,1.6,0,2.4,0.1
		c0.8,0.2,1.7,0.6,2.4,1c0.5,0.3,1,0.7,1.4,1.1c0.2,0.1,0.3,0.3,0.4,0.5c0.1,0.2,0.3,0.6,0.4,0.9s0.2,0.2-0.1,0.2
		c-0.4,0.1-0.8,0.2-1.1,0.3c-0.3,0.1-0.7,0.2-1,0.3S100.6,241.7,100.5,241.4L100.5,241.4z M102.1,238.5c-0.2-0.1-1.4-0.8-1.9-1.1
		c-0.7-0.4-1.5-0.6-2.3-0.7c-1-0.1-2,0-3,0.2c-0.5,0.2-0.3,0.2-0.3-0.4s0.2-1.2,0.3-1.7s0-0.5,0.3-0.7c0.4-0.3,0.9-0.5,1.3-0.6
		c0.7-0.1,1.3-0.2,2-0.1c0.7,0.1,1.3,0.4,1.9,0.8c0.5,0.3,0.9,0.7,1.3,1.1c0.3,0.2,0.3,0.2,0.3,0.7s0.2,1.8,0.2,2.2
		S102.4,238.6,102.1,238.5L102.1,238.5z M90.3,241.2c-0.4,0.2-0.7,0.2-0.9-0.1c-0.2-0.2-0.2-0.5-0.2-0.8c0-0.3-0.1-0.6-0.3-0.9
		c-0.3-0.3-0.6-0.5-1-0.8c-0.5-0.5-0.9-1.1-1.2-1.7c-0.4-0.8-0.6-1.7-0.7-2.5c-0.1-0.9-0.1-1.3-0.1-1.9s-0.1-0.5,0.5-0.6
		c0.9-0.2,1.6-0.7,2.2-1.3c0.8-0.8,1.3-1.8,1.8-2c0.5-0.3,1-0.4,1.6-0.2c0.7,0.4,1.3,1,1.6,1.8c0.5,1.1,0.8,2.3,0.8,3.5
		c0,1.3-0.3,2.6-0.8,3.8c-0.4,1-1,1.8-1.7,2.6C91.4,240.6,90.9,241,90.3,241.2L90.3,241.2z M89.3,239.5c0.1-0.3,0.3-0.5,0.5-0.6
		c0.4-0.3,0.8-0.7,1.2-1.1c0.4-0.7,0.8-1.3,1.2-2.1c0.2-0.5,0.3-0.7,0.4-1.2s0.2-0.9,0.3-1.1s0.2-0.3,0.2,0.1c0,0.6-0.1,1.2-0.3,1.8
		c-0.2,0.7-0.5,1.4-0.8,2c-0.4,0.6-0.8,1.2-1.3,1.7C90.2,239.3,89.3,239.7,89.3,239.5L89.3,239.5z M112.2,234.6
		c-0.5-0.2-1-0.5-1.4-1c-0.4-0.7-0.7-1.4-1-2.1c-0.2-0.4-0.3-0.8-0.5-1.2c-0.1-0.3-0.3-0.3,0-0.6c0.2-0.4,0.5-0.7,0.7-1.1
		c0.3-0.4,0.9-1.2,1.2-1.5l1.6-1.7c0.7-0.7,1.4-1.3,2.1-1.8c0.4-0.2,0.4-0.1,0.8,0c0.6,0.2,1.1,0.5,1.7,0.8c0.5,0.4,1,0.9,1.4,1.5
		c0.2,0.3,0.1,0.3-0.1,0.6s-0.8,1.1-1.1,1.6s-0.9,1.3-1.4,2s-1.4,1.9-1.9,2.5s-1.3,1.4-1.6,1.8S112.4,234.6,112.2,234.6L112.2,234.6
		z M115.7,225.1c-0.2,0.1-1.3,1.1-1.6,1.4s-1.2,1.2-1.7,1.8s-1,1.3-1.3,1.7s-0.2,0.5,0.2,0.1s0.9-1,1.3-1.4s0.9-1,1.6-1.7
		c0.4-0.4,0.9-0.9,1.2-1.4C115.6,225.4,115.8,225,115.7,225.1z M90,228.2c-0.4,0.5-0.8,1-1.1,1.6c-0.4,0.6-0.9,1-1.4,1.4
		c-0.3,0.2-0.6,0.3-1,0.4c-0.1,0.1-0.3,0.1-0.4,0c0-0.1-0.1-0.3-0.2-0.5c-0.1-0.4-0.4-1.3-0.5-1.9s-0.5-1.9-0.7-2.4
		s-0.2-0.9-0.3-1.4s-0.1-0.6-0.1-0.6c0-0.1,0.1-0.3,0.1-0.4c0.3-0.5,0.6-1,1-1.5c0.4-0.4,0.9-0.9,1.4-1.2c0.1-0.1,0.3-0.2,0.4-0.3
		c0.2,0.2,0.3,0.3,0.4,0.6c0.3,0.5,0.7,1.5,1.3,2.6c0.5,1,0.9,2,1.3,3.1c0,0.1,0.1,0.2,0.1,0.4C90.2,228.1,90.1,228.1,90,228.2
		L90,228.2z M89,228.4c0-0.1-0.4-1-0.6-1.6s-0.7-1.6-0.8-2.1s-0.3-0.8-0.5-1.1s0.1-0.4,0.2-0.1s0.6,1.2,0.9,1.7s0.5,1.4,0.7,1.9
		c0.1,0.4,0.2,0.8,0.3,1.2C89.2,228.5,89.1,228.5,89,228.4z M82.9,225.2c-0.4-0.1-0.6-0.5-0.5-0.9c0.1-0.8,0-1.6-0.1-2.4
		c-0.2-0.7-0.4-1.5-0.7-2.2c-0.2-0.4-0.5-0.8-0.4-0.9s0.2-0.1,0.4,0s0.3,0,0.4-0.2c0.6-0.5,1.2-0.9,1.9-1.3c1-0.4,1.3-0.4,1.8,0.2
		c0.5,0.7,0.8,1.4,1.1,2.2c0.1,0.4,0.1,0.5,0.3,0.5c0.1,0,0.2,0,0.3,0.1c0.1,0.1-0.1,0.2-0.3,0.4c-0.7,0.5-1.3,1-1.9,1.7
		c-0.6,0.6-1,1.4-1.3,2.1C83.7,225.1,83.3,225.3,82.9,225.2L82.9,225.2z M84.7,217.9c-0.2,0.4-0.3,0.8-0.4,1.2
		c-0.2,0.5-0.3,1.1-0.4,1.7c0,0.5,0.1,0.6,0.2,0.2s0.4-1.2,0.6-1.6s0.2-0.9,0.3-1.2S84.8,217.5,84.7,217.9L84.7,217.9z M82,224.5
		c0,0-1.3,0.6-1.7,0.7s-1.5,0.6-2.2,0.8s-2.1,0.7-2.9,1l-1.4,0.5c-0.1,0.1-0.3,0.1-0.4,0.1c-0.1-0.4-0.2-0.7-0.4-1.1
		c-0.2-0.4-0.4-0.8-0.7-1.1c0,0,0.1-0.1,0.4-0.3s1.4-1.1,1.9-1.5s1.7-1.2,2.2-1.6s1.9-1.2,2.4-1.5s1-0.5,1.2-0.6
		c0.2-0.1,0.4-0.2,0.6-0.2c0.3,0.6,0.5,1.2,0.7,1.9c0.2,0.7,0.3,1.3,0.3,2C82.1,223.9,82.1,224.2,82,224.5L82,224.5z M102.1,234.9
		c-0.2-0.2-0.5-0.4-1.1-0.8c-0.8-0.5-1.7-0.9-2.6-1.1c-0.9,0-1.8,0.1-2.7,0.3c-0.2,0.1-0.5,0.2-0.7,0.4c-0.1-0.3-0.1-0.7-0.1-1
		c-0.1-0.8-0.3-1.6-0.6-2.4c-0.4-0.8-0.9-1.5-1.5-2.1c-0.3-0.2-0.7-0.4-1.1-0.6c-0.1,0,0-0.2,0.1-0.7s0.6-2.4,0.9-3.2s0.8-2.1,1-2.6
		c0.1-0.3,0.2-0.6,0.3-0.9c0.4-0.3,1.4-1,2.1-1.4s1.5-0.9,2.1-1.2s0.8-0.4,1.3-0.6c0.2-0.1,0.4-0.2,0.7-0.2c0.8,0.3,1.5,0.6,2.2,1
		c0.8,0.4,1.6,0.9,2.4,1.4c0.8,0.6,1.4,1,1.9,1.4s0.8,0.6,0.8,0.7c0.1,0.5,0.2,1.7,0.3,2.8c0.2,1.1,0.3,2.3,0.3,3.4
		c0,0.7,0.1,1.9,0,1.9s-0.3-0.1-0.7-0.2c-0.7-0.1-1.4,0-2,0.2c-0.8,0.3-1.6,0.9-2.2,1.5c-0.5,0.6-0.8,1.3-0.9,2
		c-0.1,0.7-0.2,1.4-0.2,1.5C102.1,234.7,102.1,234.8,102.1,234.9L102.1,234.9z M99.7,218.1c-0.2,0.7-0.4,1.4-0.5,2.2
		c-0.2,0.6-0.3,1.9-0.4,2.6s-0.3,2-0.5,2.9s-0.2,1.7-0.3,2.6s-0.2,1.6-0.2,2.2s0,0.6,0,1s0.2,0.7,0.3,0.1s0.2-1.5,0.2-2.2
		s0.3-2.8,0.5-3.8s0.3-2,0.4-3s0.3-2.1,0.4-2.8s0.1-0.8,0.2-1.2S99.9,217.7,99.7,218.1L99.7,218.1z M93.7,219.9
		c-0.2-0.3-0.3-0.7-0.5-1c-0.2-0.2-0.3-0.5-0.3-0.7c0-0.2,0.3-0.5,0.6-0.7c0.4-0.4,1.9-1.6,2.6-2.2s2.9-2.4,3.8-3
		c0.1,0.4,0.1,0.7,0,1.1c0,0.5,0,1.8,0,2.2s0,0.5-0.1,0.5c-0.6,0.3-1.5,0.7-2.3,1.2s-2.4,1.4-2.8,1.8S94,219.7,93.7,219.9
		L93.7,219.9z M107.6,221.1c-0.1-0.1-0.7-0.7-1.1-1c-0.8-0.7-1.6-1.3-2.4-1.9c-0.8-0.5-1.7-1-2.6-1.4l-1.1-0.5c0-0.3,0-0.6,0-0.9
		c0-0.4,0.1-1.8,0.1-2.1s0-0.9,0.1-0.8c0.3,0.2,0.7,0.6,1.2,1.1s1.4,1.2,2,1.7s1.7,1.3,2.2,1.7c0.7,0.5,1.5,1,2.3,1.5
		c0.4,0.2,0.7,0.4,0.7,0.6c-0.2,0.5-0.4,0.9-0.8,1.3c-0.3,0.4-0.7,0.8-0.7,0.8H107.6z M109,218.2c-0.6-0.3-1.3-0.6-1.9-1
		c-0.8-0.5-1.5-1.1-2.3-1.7c-0.5-0.4-1.7-1.4-2.2-1.9l-1.4-1.4c-0.1-0.1,0.3-0.3,0.7-0.6c0.3-0.3,0.8-0.4,1.2-0.4
		c0.5,0.1,1.1,0.2,1.6,0.4c0.8,0.3,1.7,0.6,2.4,1c0.8,0.4,1.5,0.8,2.2,1.3c0.4,0.3,0.7,0.5,1.1,0.9c0.2,0.2-0.3,0.7-0.4,1
		c-0.1,0.5-0.3,1-0.5,1.5C109.2,217.7,109,218.3,109,218.2L109,218.2z M110.4,214.1c-0.4-0.3-1-0.8-1.7-1.1c-1-0.6-2-1.1-3-1.5
		c-0.9-0.3-1.8-0.6-2.7-0.9c0.1-0.3,0.2-0.7,0.3-1c0.1-0.3,0.3-0.6,0.6-0.8c0.3-0.2,0.6-0.3,1-0.2c0.8,0.1,1.7,0.2,2.5,0.3
		c0.8,0.1,1.6,0.4,2.3,0.7c0.7,0.3,1.4,0.7,2.1,1.1c0.1,0.1,0.1,0.2-0.1,0.4c-0.3,0.5-0.5,1-0.7,1.6c-0.1,0.3-0.2,0.7-0.3,1
		C110.7,213.8,110.6,214,110.4,214.1L110.4,214.1z M111.8,210.2c-0.1-0.1-1-0.5-1.4-0.7c-0.7-0.3-1.5-0.5-2.2-0.7
		c-0.8-0.2-1.6-0.4-2.4-0.5c-0.6-0.1-1.1-0.2-1.6-0.2c0.1-0.2,0.2-0.4,0.2-0.7c0.1-0.3,0.2-0.6,0.4-0.8c0.3-0.3,0.6-0.5,1-0.5
		c0.5-0.1,0.9-0.2,1.4-0.2c0.5,0,1,0,1.5,0.2c0.6,0.2,1.2,0.4,1.8,0.6c0.5,0.2,1.1,0.5,1.5,0.8s0.7,0.4,1,0.6s0,0.3-0.1,0.5
		c-0.2,0.3-0.4,0.7-0.6,1C112.2,209.7,112,210.3,111.8,210.2L111.8,210.2z M93.1,217.2c0.4-0.4,0.9-0.7,1.3-1.1s1.4-1.2,1.9-1.6
		s1.2-1,1.8-1.4s1.1-0.9,1.4-1.1c0,0-0.2-0.3-0.4-0.5c-0.2-0.2-0.4-0.4-0.7-0.6c-0.3-0.1-0.6-0.1-0.9,0c-0.4,0.1-0.9,0.3-1.3,0.5
		c-0.6,0.3-1.2,0.6-1.8,0.9c-0.5,0.3-0.9,0.6-1.4,0.9c-0.5,0.3-0.9,0.6-1.3,1c-0.2,0.2,0.1,0.4,0.3,0.6c0.2,0.4,0.4,0.8,0.6,1.2
		C92.8,216.5,93.1,217.2,93.1,217.2L93.1,217.2z M91.5,213.8c0.5-0.4,1.1-0.8,1.7-1.2c0.6-0.4,1.2-0.7,1.8-1
		c0.7-0.3,1.4-0.6,2.1-0.9c0.6-0.2,1-0.3,1.2-0.4c0,0-0.2-0.2-0.4-0.6c-0.2-0.3-0.4-0.6-0.6-0.8c-0.2-0.3-0.5-0.4-0.9-0.3
		c-0.5,0-1,0.1-1.4,0.3c-0.6,0.2-1.2,0.4-1.8,0.7c-0.5,0.2-1,0.5-1.5,0.8c-0.3,0.2-0.6,0.4-0.9,0.6c-0.2,0.2-0.4,0.3-0.5,0.5
		s-0.2,0.4,0.1,0.5c0.2,0.2,0.3,0.4,0.4,0.6c0.1,0.3,0.2,0.5,0.4,0.7C91.2,213.5,91.4,213.8,91.5,213.8L91.5,213.8z M90,210.9
		c0.3-0.2,1.2-0.8,1.6-1.1c0.5-0.3,1.1-0.6,1.7-0.8c0.6-0.2,1.2-0.4,1.8-0.6c0.5-0.1,1.1-0.2,1.6-0.3c0,0-0.1-0.2-0.3-0.6
		c-0.1-0.3-0.3-0.6-0.6-0.9c-0.2-0.2-0.5-0.3-0.8-0.3c-0.4-0.1-0.9-0.1-1.3,0c-0.5,0.1-1.1,0.2-1.6,0.4c-0.5,0.2-1,0.4-1.4,0.7
		c-0.4,0.3-1.3,0.9-1.7,1.2c-0.3,0.2-0.1,0.4,0.1,0.6c0.2,0.3,0.4,0.6,0.6,0.9C89.7,210.4,89.8,210.7,90,210.9L90,210.9z
		 M100.7,211.7c-0.4-0.3-0.5-0.3-0.8,0c-0.2-0.2-0.4-0.4-0.5-0.6c-0.1-0.2-0.3-0.4-0.5-0.6c-0.2-0.1-0.2-0.1-0.4-0.6l-0.3-0.6
		c-0.1-0.3-0.3-0.5-0.5-0.7c-0.4-0.3-0.3-0.2-0.5-0.5s-0.3-0.7-0.6-1.1c-0.2-0.4-0.5-0.7-0.8-0.9c-0.5-0.2-0.7-0.1,0-0.2
		c0.5-0.1,1.2-0.2,1.8-0.3c0.7-0.1,1.4-0.2,2.1-0.3c0.6,0,1.2,0.1,1.8,0.3c0.6,0.1,1.3,0.1,1.9,0.1c0.5,0,1.1,0.1,1.5,0.1
		s0.6,0,0.2,0.1c-0.4,0.2-0.8,0.5-0.9,1c-0.2,0.4-0.3,0.8-0.4,1.1s0,0.1-0.3,0.4c-0.2,0.2-0.4,0.5-0.5,0.8c-0.2,0.4-0.3,0.8-0.5,1.2
		s0,0.3-0.4,0.4c-0.3,0.1-0.6,0.3-0.8,0.6C101.1,211.5,101,211.6,100.7,211.7L100.7,211.7z M111.8,206.7c-0.5-0.2-0.9-0.4-1.2-0.5
		s-1-0.3-1.4-0.5c-0.5-0.2-1.1-0.2-1.6-0.3c-0.2,0-0.3,0-0.4,0c-0.3,0-0.5,0-0.8,0c-0.4,0-1-0.1-1.3-0.1s-1.7-0.1-2.1-0.1
		c0-0.2,0.1-0.4,0.2-0.6c0.1-0.5,0.3-0.9,0.4-1.5s0.9-2.8,1.1-3.5s0.6-1.3,0.9-1.9c0.3-0.6,0.6-1.1,1-1.6c0.1,0.2,0.2,0.4,0.2,0.6
		c0.2,0.3,0.6,1.1,0.9,1.6s0.8,1.3,1.2,1.8l1.2,1.7c0.3,0.5,0.4,0.5,0.8,0.1c0.4-0.3,0.8-0.6,1.1-1c0.4-0.4,0.8-0.9,1.2-1.4
		c0,0.3,0,0.7-0.1,1c-0.1,0.4-0.3,2-0.5,2.8s-0.4,1.7-0.6,2.2C112.1,206.1,112,206.4,111.8,206.7L111.8,206.7z M106.5,198
		c-0.2,0.3-0.4,0.6-0.6,1c-0.1,0.4-0.4,1.3-0.6,1.8s-0.4,1.3-0.6,1.9s-0.2,1-0.3,1.3s0.2,0.4,0.3,0s0.2-0.9,0.4-1.6s0.4-1.5,0.7-2.2
		s0.3-1,0.4-1.4S106.6,197.8,106.5,198L106.5,198z M105.9,196c-0.3-0.1-0.6-1-0.3-2s0.8-1.7,1.1-1.6s0.4,0.4,0.4,0.7
		c0,0.5,0.3,0.2,0.4-0.2c0.2-0.4,0.5-0.7,0.8-1c0.4-0.4,0.9-0.7,1.3-1c0.5-0.3,1.1-0.6,1.4-0.8c0.5-0.2,0.9-0.5,1.4-0.8
		c0.4-0.3,0.3-0.3,0.6,0.1c0.3,0.4,0.6,0.9,0.9,1.4c0.2,0.4,0.3,0.8,0.4,1.3c0.1,0.5,0.1,1,0,1.4c0,0.1-0.1-0.1-0.3-0.4
		c-0.3-0.3-0.6-0.5-1-0.6c-0.4-0.1-0.8-0.1-1.2-0.1c-0.4,0-0.8,0.1-1.2,0.3c-0.3,0.1-0.3,0.3-0.1,0.2s0.5,0,0.7-0.1
		c0.5,0,1,0,1.4,0.1c0.4,0.1,0.7,0.3,1,0.5c0.3,0.2,0.4,0.3,0.6,1c0.3,0.8,0.4,1.6,0.2,2.4c-0.1,0.6-0.3,1.1-0.7,1.6
		c-0.2,0.2-0.5,0.6-0.7,0.6c-0.3,0-0.5,0.1-0.8,0.1c-0.4,0-0.8-0.1-1.2-0.1c-0.3-0.1-0.7-0.2-1-0.3c-0.3-0.1-0.5-0.3-0.3,0
		c0.2,0.3,0.5,0.5,0.8,0.6c0.4,0.2,0.8,0.3,1.2,0.3c0.4,0.1,0.8,0,1.2-0.1c-0.2,0.4-0.4,0.8-0.8,1.1c-0.4,0.5-1.3,1.2-1.6,1.5
		s-0.3,0.2-0.5,0s-0.5-0.7-0.7-1.1s-0.8-1.2-1.2-1.8c-0.3-0.6-0.6-1.1-0.9-1.7c-0.2-0.5-0.4-0.9-0.5-1.4c-0.1-0.4-0.2-0.5-0.4-0.3
		S106.1,196.1,105.9,196L105.9,196z M97.1,205.3c-0.6,0.1-1.3,0.2-1.9,0.4c-0.6,0.1-0.7,0.2-1,0.3s-0.7,0-1,0.1
		c-0.4,0-0.8,0.1-1.2,0.3c-0.6,0.2-1.2,0.5-1.8,0.9c-0.4,0.3-0.9,0.6-1.3,1c-0.2-0.2-0.4-0.5-0.6-0.8c-0.3-0.6-0.6-1.2-0.8-1.8
		c-0.3-0.9-0.6-1.6-0.8-2.2c0.1-0.2,0.2-0.4,0.4-0.6c0.3-0.4,0.7-1,1-1.5c0.4-0.6,0.7-1.2,1-1.8c0.3-0.7,0.6-1.4,0.8-2.2
		c0.2-0.6,0.2-0.9,0.3-1.1s0.3-0.2,0.7,0.2s0.8,1,1.4,1.9s1,1.4,1.7,2.3s1.3,1.9,1.8,2.8C96.3,204,96.7,204.6,97.1,205.3L97.1,205.3
		z M90.6,197.9c0.4,0.3,0.7,0.7,1,1.1c0.4,0.5,0.8,1,1.2,1.6s0.9,1.3,1.2,2c0.3,0.5,0.5,1,0.7,1.5c0.2,0.5,0,0.5-0.2,0.1
		s-0.7-1.2-0.9-1.6s-0.6-0.8-0.9-1.4s-0.7-1.1-1.1-1.8l-0.7-1C90.7,198.3,90.4,197.8,90.6,197.9L90.6,197.9z M91.3,195.8
		c-0.4,0-0.8-0.3-1.2-0.7c-0.1-0.1-0.3-0.1-0.3,0.3c-0.1,0.5-0.2,1.1-0.3,1.6c-0.2,0.8-0.5,1.5-0.8,2.2c-0.4,0.8-0.9,1.5-1.4,2.2
		c-0.4,0.6-0.8,1.2-1,1.5c-0.1,0.1-0.3-0.2-0.5-0.5c-0.2-0.3-0.4-0.7-0.5-1.1c-0.1-0.4,0-0.5,0.1-0.6c0.3-0.2,0.7-0.3,1-0.5
		c0.4-0.3,0.7-0.6,0.9-1.1c0.2-0.5,0.2-0.8-0.3-0.2c-0.3,0.3-0.6,0.5-0.9,0.7c-0.3,0.2-0.6,0.3-1,0.4c-0.2,0-0.4-0.1-0.5-0.2
		c-0.3-0.2-0.6-0.5-0.8-0.8c-0.4-0.7-0.7-1.5-0.9-2.2c-0.1-0.6-0.1-1.3,0.1-1.9c0.1-0.6,0.3-1.1,0.5-1.6c0.1-0.2,0.3-0.3,0.6-0.3
		c0.4,0,0.7,0.1,1.1,0.2c0.4,0.2,0.7,0.4,1,0.6s0.2-0.1-0.1-0.4c-0.3-0.4-0.7-0.7-1.2-0.8c-0.4-0.1-0.9-0.2-1.3-0.2
		c-0.1-0.4-0.2-0.9-0.3-1.3c0-0.4,0-0.8,0-1.1c0-0.3,0.1-0.3,0.6,0.2c0.6,0.4,1.2,0.8,1.9,1.1c0.7,0.4,1.4,0.8,2.1,1.3
		c0.5,0.3,1,0.7,1.5,1.2c0.2,0.2,0.4,0.2,0.4,0.1c0-0.6,0.1-1.2,0.5-1.4s1.1,0.6,1.4,1.4S91.8,195.8,91.3,195.8L91.3,195.8z
		 M66.4,217.8c-0.2,0-0.4-0.2-0.4-0.4s0.2-0.4,0.4-0.4s0.4,0.2,0.4,0.4S66.6,217.8,66.4,217.8z M120.7,226c-0.3,0.2-0.7,0.2-1,0.1
		c-0.2-0.2-0.7-0.7-1-1c-0.5-0.6-1.1-1.2-1.8-1.5c-0.5-0.2-1-0.4-1.6-0.5c-0.4,0-0.4,0-0.3-0.3s0.2-0.1,0.3-0.2
		c0.1-0.1,0.2-0.2,0.2-0.3c0.1-0.6,0.2-1.2,0.3-1.8c0.2-0.7,0.2-0.8,1-0.8c0.5,0,1.1,0,1.6,0.1c0.4,0.1,0.6,0,0.7-0.3
		s0.1-0.3,0.3-0.4s0.2-0.1,0.2,0.2c0,0.6,0,1.2,0.2,1.7c0.1,0.5,0.7,2.3,1,3s0.5,1.7,0.1,1.9L120.7,226z M116.6,220
		c0.4,0.2,0.7,0.5,0.9,0.9c0.3,0.4,0.5,0.9,0.7,1.2s0,0.4-0.3,0.1s-0.5-0.7-0.7-1l-0.7-0.9C116.3,220,116.3,219.9,116.6,220
		L116.6,220z M121.2,224.1c-0.3-0.5-0.6-1.1-0.8-1.7c-0.3-0.9-0.5-1.8-0.6-2.8c0-0.5,0-0.4,0.3-0.6s0.9-0.7,1.4-0.9s1.7-1,2.4-1.3
		s1.9-0.8,2.7-1.2s1.6-0.8,2.1-1.1s0.4-0.2,0.6,0.3c0.3,0.7,0.6,1.4,0.9,2c0.2,0.4,0.3,0.5-0.1,0.7l-2,1.1c-0.5,0.3-1,0.7-1.4,1.1
		c-0.5,0.4-1.7,1.6-2.2,2s-1.5,1.3-2.1,1.7c-0.3,0.2-0.6,0.4-0.9,0.7C121.4,224.1,121.3,224.2,121.2,224.1L121.2,224.1z
		 M115.7,184.2c-0.6-0.2-1.1-0.3-1.7-0.4c-0.6-0.1-1.3-0.2-1.9-0.1c-1,0-2.1,0.3-3,0.7c-0.2,0.3-0.3,0.6-0.4,1
		c-0.5,1.2-0.8,2.5-0.9,3.8c-0.1,0.7-0.1,1.4-0.1,1.9s0,0.7,0,0.6c0.3-0.3,0.7-0.6,1.1-0.9c0.5-0.3,1.4-0.8,2-1.1
		c0.6-0.3,1.3-0.7,1.8-1.1c0.4-0.3,0.4-0.3,0.7,0.2c0.3,0.4,0.6,0.8,0.9,1.2c0.2,0.4,0.2,0.5,0.4,0.9c0.1-0.3,0.2-0.6,0.3-0.9
		c0.1-0.4,0.3-1.2,0.4-1.9s0.2-1.6,0.3-2.3S115.6,184.3,115.7,184.2L115.7,184.2z M108.7,190c-0.1-0.5-0.1-1.1,0-1.6
		c0.1-0.6,0.3-1.3,0.5-1.9c0.2-0.5,0.3-1,0.5-1.4s0.2-0.5,0.3-0.6s0.3-0.4,0.1,0.1s-0.3,1-0.5,1.4s-0.3,1-0.5,1.6
		c-0.1,0.5-0.2,1.1-0.3,1.6C108.8,189.7,108.7,190.3,108.7,190L108.7,190z M116.5,173.6c-0.5-0.3-1-0.4-1.5-0.5
		c-0.7,0-1.5,0.1-2.1,0.4c0.1-0.3,0.2-0.7,0.2-1.1c0-0.6,0-1.1,0-1.7c-0.1-0.5,0-1.1,0.2-1.6c0.2-0.4,0.4-0.7,0.7-1
		c0.3-0.4,0.6-0.8,0.7-1.2c0.3-0.6,0.6-1.6,0.8-2.2c0.1-0.5,0.4-1,0.7-1.4c0.4-0.5,0.8-0.9,1.3-1.3c0.5-0.3,1-0.6,1.5-0.9
		c0.4-0.2,0.8-0.2,1.2-0.1c0.3,0.1,0.3,0.5,0.4,1.1c0.1,0.9,0.1,1.8,0,2.7c-0.1,0.7-0.4,1.5-0.7,2.2c-0.5,0.7-1,1.4-1.5,2
		c-0.5,0.6-0.9,1.3-1.3,2.1c-0.2,0.5-0.4,1.1-0.5,1.7C116.6,173.2,116.6,173.6,116.5,173.6L116.5,173.6z M86.9,174.3
		c-0.6-0.3-1.3-0.4-1.9-0.5c-0.6-0.1-1.2,0-1.8,0.1c-0.3,0.1-0.5,0.1-0.8,0.2c-0.1-0.2-0.3-0.5-0.4-0.6c-0.5-0.6-0.9-1.1-1.3-1.8
		c-0.3-0.4-0.6-0.9-0.9-1.3c-0.3-0.4-0.7-0.8-1.2-1.1c-0.3-0.2-0.3-0.3-0.2-0.5s0.1-0.3-0.4-0.3c-0.3,0-0.4-0.2-0.6-0.5
		s-0.4-0.6-0.7-0.9c-0.2-0.2-0.3-0.6-0.1-0.8c0.2-0.2,0.5-0.4,0.8-0.4c0.4-0.1,0.7-0.2,1.1-0.3c0.5-0.1,0.9,0,1.4,0.2
		c0.5,0.2,1,0.5,1.5,0.9c0.6,0.6,1.1,1.2,1.7,1.8c0.3,0.4,0.7,0.7,1.1,0.9c0.3,0.2,0.6,0.5,0.9,0.6c0.4,0.2,0.5,0.1,0.2-0.2
		c-0.2-0.2-0.4-0.4-0.6-0.6c-0.2-0.2,0-0.2,0.6-0.1c0.5,0.1,1.1,0.2,1.6,0.4c0.4,0.3,0.6,0.7,0.6,1.2c0,0.6-0.1,1.3-0.2,1.9
		c-0.1,0.6-0.2,1.1-0.2,1.3C87,174.1,87,174.3,86.9,174.3L86.9,174.3z M89.1,193c-0.2-0.2-1-0.8-1.5-1.1s-1.6-1-2.2-1.3
		c-0.6-0.2-1.1-0.6-1.5-1c-0.3-0.4-0.3-0.6-0.3-1.3s-0.1-1.3-0.1-2.2s0-3,0-4.2c-0.1-1.5-0.2-3-0.4-4.5c-0.1-1-0.2-1.4-0.3-1.9
		s-0.1-0.7-0.1-0.7c0.5-0.2,1-0.4,1.5-0.4c0.6,0,1.2,0,1.9,0.1c0.3,0,0.7,0.1,1,0.1c0,0.3,0,0.7,0,1c0.1,1,0.3,2,0.6,3
		c0.3,1,1.4,3.7,1.7,4.8c0.4,1.6,0.7,3.2,0.8,4.8c0,1.2,0,2.3,0,2.8s-0.1,0.8-0.1,1s-0.1,0.2-0.2,0.3c-0.2,0.2-0.3,0.4-0.3,0.6
		C89.4,193.3,89.5,193.3,89.1,193L89.1,193z M86.8,178.4c0.2,0.4,0.3,0.7,0.3,1.1c0.2,0.6,0.4,1.2,0.5,1.6c0.2,0.7,0.5,1.8,0.8,3
		c0.3,1.1,0.5,2.2,0.6,3.4c0.1,1,0.1,2,0,3c0,0.9-0.2,2.2-0.2,1.4s0-1.8,0-2.5s-0.2-1.9-0.3-2.7s-0.3-1.8-0.5-2.7s-0.4-1.6-0.6-2.4
		s-0.3-1.3-0.4-1.9C86.8,179.3,86.8,178.8,86.8,178.4L86.8,178.4z M116.2,179.3c-0.6-0.2-1.2-0.3-1.8-0.4c-0.6-0.1-1.9-0.2-2.4-0.2
		c0-0.3,0.1-0.6,0.2-0.9c0.1-0.4,0.4-0.9,0.4-1.3c0.1-0.2,0.1-0.5,0-0.8c-0.1-0.2-0.1,0.2-0.1,0.5c-0.1,0.3-0.2,0.6-0.3,0.9
		c-0.1,0.3-0.3,0.7-0.3,0.9c0,0.2-0.1,0.4-0.1,0.7c-0.2,0-0.4,0-0.6,0c0,0,0.1-0.4,0.2-0.8s0.3-0.9,0.4-1.2s0.3-0.7,0.5-1.3
		s0.5-1.6,0.5-1.6c0.5-0.2,1.1-0.3,1.7-0.3c0.7,0,1.4,0.2,2,0.4c0,0-0.1,0.6-0.1,1.1s0,1.8,0,2.4S116.3,179.3,116.2,179.3"/>
	
		<path id="path20" style="clip-path:url(#SVGID_00000055699542320336322280000009961799849850908032_);fill-rule:evenodd;clip-rule:evenodd;fill:#69B42E;" d="
		M120.9,188.2c-0.4-0.6-0.8-1.1-1.3-1.6c-0.5-0.5-1.1-1-1.8-1.4c-0.6-0.3-1.1-0.6-1.8-0.8c0,0.3-0.1,0.8-0.2,1.4s-0.1,0.9-0.2,1.3
		c0.6,0.1,1.2,0.3,1.9,0.5s1.5,0.4,2,0.4S120.6,188.1,120.9,188.2L120.9,188.2z M140.7,200.1c0.2-0.8,0.1-1.6-0.3-2.3
		c-0.3-0.7-0.8-1.3-1.4-1.8c-0.6-0.5-1.3-0.9-2-1.1c-1-0.4-2.4-0.8-3.9-1.3c-1.2-0.4-2.4-0.9-3.6-1.4c-1-0.4-2-1-2.8-1.7
		c-0.9-0.9-1.7-2-2.4-3.1c-1.4-2.3-3.2-4.3-5.3-5.9c-1-0.7-2-1.2-3.2-1.6c-0.9-0.3-1.9-0.5-2.9-0.5c-0.9-0.1-1.8-0.1-2.8,0
		c-0.9,0.1-1.8,0.2-2.7,0.5c-0.6,0.1-1.1,0.4-1.5,0.9c-0.4,0.5-0.5,1.1-0.4,1.8c0.1,0.6,0.3,1.1,0.7,1.6c0.3,0.4,0.7,0.8,1.2,1.1
		c0.2,0.1,0.4,0.2,0.7,0.3l0.5-1.2c0.4-0.2,0.9-0.4,1.3-0.5c0.6-0.2,1.2-0.3,1.8-0.3c0.9,0,1.7,0.1,2.6,0.3c0.8,0.1,1.6,0.4,2.3,0.7
		c0.9,0.4,1.8,0.9,2.5,1.5c0.7,0.7,1.4,1.5,2,2.3c0.5,0.8,1,1.5,1.6,2.2c1.6,2.1,3.7,3.7,6.1,4.7c1.4,0.5,2.9,0.8,4.4,1.1
		c1.4,0.1,2.9,0.4,4.3,0.7c0.9,0.3,1.6,0.8,2.1,1.6c0.3,0.4,0.5,0.8,0.5,1.3C140.3,201.6,140.6,201,140.7,200.1L140.7,200.1z
		 M120.3,153c0.1-0.5,0-0.9-0.3-1.3c-0.5-0.5-1.1-0.9-1.8-1.1c-0.9-0.1-1.9,0-2.7,0.4c-0.4,0.4-1.2,0.3-1.6,0.5s-0.5,0.9-0.9,0.7
		c-0.6-0.3-1.3-0.5-1.9-0.6c-0.5,0-1.1-0.2-1.6-0.3c-0.7-0.2-1.5-0.1-2.2,0.4c-0.6,0.4-1.2,0.7-1.9,1c-0.5,0.3-1.2,1-1.1,1.5
		s0.4,0.8,0.3,1s0,0.3-0.6,0.1c-0.5-0.2-1.1-0.3-1.7-0.3c-0.7,0-1.6,0.3-2.3,0.4c-0.8,0-1.7,0.1-2.5,0.3c-0.7,0.4-1.3,1.1-1.6,1.9
		c-0.1,0.5-0.3,1-0.7,1.3c-0.3,0.3-0.1,0.6,0,1.1c0.2,0.5,0.3,1.1,0.4,1.6c0,0.5,0.3,0.6-0.2,0.6s-1.5-0.1-2.1-0.1s-1.9,0-2.6-0.1
		s-1.9-0.3-3-0.5s-3.3-0.7-4-0.9s-2.1-0.3-3-0.5s-2.8-0.9-3.9-1.2c-1.1-0.2-2.3-0.4-3.5-0.4c-0.9,0-3.5-0.1-4.4-0.1
		s-4.3,0.1-5.1,0.2s-1.2,0.2-1.3-0.4c-0.1-0.5,0.1-1,0.5-1.3c0.9-0.4,1.8-0.7,2.7-1c0.6-0.2,0.3-0.1,0.5-0.5s0.5-0.6,1-0.9
		s1-0.4,1.2-0.8c0.2-0.4,0.5-0.7,0.9-0.9c0.4-0.2,1.3-0.4,1.6-0.7c0.4-0.3,0.8-0.7,1.2-1.1c0.3-0.5,0.8-0.9,1.3-1.1
		c1-0.2,2-0.4,3-0.5c0.7-0.1,1.4-0.3,2-0.6c0.7-0.3,2.8-0.7,3.7-0.9s3.4-0.6,4.7-0.8s5.6-0.6,7-0.6c2.3-0.1,4.5-0.1,6.8,0.1
		c2.4,0.3,10.6,1.2,12,1.5c1.5,0.2,2.9,0.6,4.4,1.1c1.1,0.3,2.2,0.8,3.1,1.6c0.4,0.5,0.6,1.2,0.4,1.8c-0.2,0.5-0.5,0.4-0.4,0.2
		L120.3,153z M93.6,153.4c-0.3-0.1-1-0.1-1.7-0.2s-1.5-0.2-2.1-0.3s-1.2-0.1-1.7-0.1c-0.7,0-1.5,0-2.2,0c-0.7,0-2,0.1-2.6,0.1
		s-0.7,0.2,0,0.3s1.7,0.1,2.3,0.1s1.7-0.1,2.3,0s1.1,0.1,1.8,0.1s1.4,0.1,2,0.2c0.5,0.1,1.1,0.1,1.7,0.2
		C93.8,153.7,93.9,153.5,93.6,153.4L93.6,153.4z M105.1,149.6c-0.7-0.2-1.3-0.4-2-0.6c-0.6-0.1-1.5-0.2-2.5-0.3s-2-0.1-3-0.2
		c-1.2-0.1-2.4-0.1-3.6,0c-0.8,0.1-1.3,0.1-1.7,0.1s-0.5,0.1,0.1,0.2c0.7,0.1,1.4,0.1,2.2,0.1h2.6c0.7,0,1.8,0.1,3,0.2
		s2.1,0.2,2.9,0.3s1.3,0.2,1.7,0.3S105.4,149.7,105.1,149.6L105.1,149.6z M103.3,181.8c-0.5,0-0.9,0.1-1.3,0.2
		c-0.3,0.1-0.5-0.1-0.5-0.4s0.1-0.4,0.2-0.7c0.1-0.3,0.1-0.6,0.1-0.9c0-0.3,0.2-0.6,0.5-0.8c0.3-0.2,0.5-0.4,0.6-0.6
		c0.1-0.2,0.2-0.4,0.3-0.6c0.1-0.3-0.1-0.4-0.3-0.1s-0.3,0.4-0.6,0.7c-0.3,0.3-0.6,0.6-0.8,1c-0.2,0.4-0.3,0.9-0.3,1.3
		c0,0.4,0,0.9-0.3,0.8c-0.3-0.2-0.6-0.3-0.9-0.3c-0.4-0.1-0.3-0.3-0.3-0.6s0.3-0.6,0.4-0.8c0.3-0.4,0.5-0.8,0.7-1.3
		c0.1-0.3,0.2-0.6,0.4-0.9c0.2-0.3,0.4-0.4,0.6-0.6c0.3-0.3,0.6-0.5,0.9-0.8c0.3-0.3,0.8-0.7,1.3-1.1s0.6-0.4,0.9-0.6
		s0.4-0.1,0.7-0.2s0.6-0.4,0.3-0.3s-0.6,0-0.5-0.3s0.4-0.8,0.5-1.2s0.3-0.8,0.5-1.3s0.4-1,0.5-1.3c0.1-0.3,0.2-0.5,0.1-0.8
		c-0.1-0.3-0.3-0.6-0.6-0.9c-0.5-0.3-0.9-0.7-1.3-1.1c-0.2-0.3-0.6-0.2-1.1-0.4c-0.7-0.2-1.3-0.5-1.8-1c-0.5-0.5-0.9-1.1-1.2-1.8
		c-0.3-0.6-0.4-1.2-0.4-1.8c0.1-0.6,0.2-1.2,0.5-1.8c0.2-0.4,0.3-0.8,0.4-1.2c0.3-0.6,0.6-1.1,1.1-1.5c0.4-0.4,0.6-0.5,0.9-0.9
		c0.3-0.2,0.5-0.5,0.6-0.9c0-0.1,0-0.1,0-0.2c-0.1,0.1-0.3,0.1-0.4,0.2c-0.4,0.3-0.8,0.6-1.1,1c-0.3,0.3-0.7,0.8-1,1.1
		c-0.4,0.5-0.6,1-0.8,1.5c-0.4,0.7-0.7,1.5-0.8,2.3c0,0.8,0.2,1.6,0.5,2.4c0.2,0.7,0.6,1.2,1.2,1.7c0.5,0.4,1.1,0.7,1.7,0.9
		c0.7,0.2,1.2,0.1,1.6,0.4s0.6,0.6,0.8,0.7s0.3,0.3,0.4,0.4s-2.8,0.2-3.5,0.4s-3.7,0.6-4.7,0.6c-1,0.1-2,0.1-3,0.1
		c-0.7-0.1-1.3-0.2-2-0.3c-0.7-0.1-1.9-0.1-2.9-0.2s-2.3-0.4-3.2-0.5s-1.7-0.3-2.3-0.4s-0.7,0-1.1-0.4s-0.9-1-1.5-1.5
		c-0.5-0.5-1.1-0.9-1.7-1.1c-0.5-0.2-1-0.3-1.5-0.4c0.1-0.6,0.2-1.1,0.1-1.7c-0.1-0.4-0.1-0.8-0.1-1.3c0.1-0.6,0.3-0.8,0.1-1.2
		c0-0.1-0.1-0.2-0.1-0.3c-0.3,0.3-0.4,0.7-0.4,1.2c0,0.6,0,1.1,0,1.7c0.1,0.5,0.1,1.1-0.1,1.5c-0.3,0.4-0.7,0.6-1.2,0.8
		c-0.4,0.1-0.8,0.3-1.1,0.5c-0.4,0.4-0.8,0.6-1.2,1s-0.8,0.9-1.1,1.2s-0.7,0.5-1,0.7s-0.7,0.4-0.8,0.7c-0.1,0.4,0,0.8,0.2,1.1
		c0.2,0.3,0.3,0.7,0.4,1.1c0.2,0.6,0.4,1.2,0.6,1.9s0.4,1.4,0.4,1.8s0.2,0.7,0.5,0.8c0.3,0.1,0.6,0.3,0.9,0.5
		c0.3,0.3,0.6,0.7,0.8,1.1c0.1,0.3,0.3,0.6,0.5,0.9c0.2,0.2,0.5,0.5,0.7,0.8c0.3,0.4,0.5,0.6,0.8,0.7s0.5,0,0.7,0.1s0.3,0.1,0.2,0.3
		c-0.2,0.3-0.3,0.7-0.2,1.1c0.1,0.2,0,0.3-0.2,0.3s-0.4-0.2-0.6-0.4c-0.2-0.2-0.3-0.3-0.5-0.4c-0.3-0.1-0.6-0.2-0.8-0.4
		c-0.1-0.2-0.6-0.5-0.7-0.8s-0.3-0.2-0.2,0c0.1,0.3,0.2,0.5,0.4,0.7c0.2,0.2,0.5,0.5,0.7,0.7c0.2,0.2,0.4,0.4,0.6,0.7
		c0.1,0.1,0.3,0.1,0.4,0.3c0.1,0.1,0.1,0.3,0,0.4c0,0,0,0,0,0c-0.4,0.2-0.6,0.6-0.7,1.1c0,0.1-0.1,0.2-0.3,0.2c0,0-0.1,0-0.1,0
		c-0.2-0.1-0.4-0.3-0.4-0.6c-0.1-0.3-0.3-0.4-0.4-0.7s-0.4-0.4-0.6-0.7s-0.3-0.5-0.5-0.8c-0.1-0.2-0.2-0.4-0.3-0.6
		c-0.1-0.2-0.2-0.1-0.2,0.1c0,0.3,0.1,0.6,0.3,0.9c0.1,0.1,0.3,0.4,0.5,0.7c0.2,0.3,0.4,0.6,0.6,0.9c0.2,0.2,0.3,0.4,0.3,0.6
		c-0.2,0.2-0.5,0.4-0.9,0.5c-0.2,0.1-0.4,0-0.5-0.2c-0.1-0.2-0.2-0.5-0.3-0.8c-0.1-0.2-0.2-0.4-0.3-0.6c-0.1-0.2-0.3-0.2-0.4-0.6
		c-0.1-0.3-0.2-0.5-0.3-0.8c-0.1-0.3-0.3-0.5-0.5-0.8c-0.1-0.1-0.3-0.3-0.4-0.4c-0.2,0-0.2,0-0.1,0.2s0.3,0.3,0.3,0.5
		c0,0.2-0.1,0.4-0.3,0.4c-0.2,0.1-0.5,0.1-0.7,0c-0.2-0.1-0.4-0.4-0.5-0.6c-0.1-0.3-0.2-0.6,0-0.8c0.1-0.2,0.2-0.3,0.3-0.4
		c0.1,0,0.3,0,0.3,0.1s0.1,0.3,0.2,0.1c0-0.3,0-0.6-0.1-0.8c-0.1-0.3-0.2-0.6-0.4-0.9c-0.2-0.3-0.4-0.6-0.6-1
		c-0.1-0.3-0.4-0.7-0.6-1.2s-0.5-1.1-0.7-1.7c-0.2-0.6-0.5-1.2-0.8-1.7c-0.2-0.4-0.4-0.7-0.7-0.9c-0.3-0.3-0.5-0.6-0.7-1
		c-0.1-0.5-0.1-0.9,0-1.4c0-0.4,0.1-0.9,0.2-1.3c0.1-0.3,0.3-0.6,0.6-0.9c0.4-0.3,0.7-0.6,0.9-0.9c0.3-0.3,0.5-0.6,0.7-0.9
		c0.2-0.3,0.8-1.1,1.1-1.5s0.6-0.9,0.8-1.3c0.3-0.4,0.6-0.7,1-0.9c0.3-0.3,0.7-0.5,1.1-0.6c0.4-0.2,0.5-0.3,0.2-0.3
		c-0.3,0.1-0.7,0.2-1,0.3c-0.3,0.1-0.3,0.1-0.2-0.2c0.1-0.3,0.2-0.5,0.3-0.7c0.1-0.2,0.2-0.4,0.3-0.5c0.1-0.2-0.1-0.2-0.3,0.1
		c-0.2,0.2-0.4,0.4-0.6,0.6c-0.2,0.3-0.3,0.6-0.2,0.9c0,0.3-0.2,0.5-0.4,0.7c-0.3,0.3-0.6,0.7-0.9,1.1c-0.3,0.5-0.5,0.9-0.8,1.3
		s-0.4,0.6-0.7,1c-0.3,0.4-0.6,0.8-1,1.2c-0.3,0.4-0.7,0.5-0.9,0.9c-0.2,0.4-0.4,0.8-0.4,1.2c-0.1,0.5-0.2,1-0.2,1.5
		c0,0.4,0.1,0.8,0.2,1.2c0,0-0.5,0.2-0.9,0.6c-0.4,0.3-0.7,0.6-1,1c-0.4,0.5-1.5,1.6-1.8,2c-0.3,0.5-0.7,1-1.1,1.5
		c-0.4,0.3-0.6,0.8-0.6,1.3c0,0.4,0,0.3-0.3,0.1s-0.4-0.2-0.5-0.3s-0.2,0.1,0.1,0.3c0.2,0.2,0.4,0.3,0.5,0.6
		c0.1,0.3,0.3,0.5,0.5,0.8c0.3,0.3-0.2,0.2-0.4,0s-0.2,0.2,0.1,0.4c0.2,0.1,0.4,0.2,0.7,0.3c0.3,0.2,0.6,0.3,0.9,0.6
		c0.3,0.2,0.6,0.5,1,0.8c0.4,0.3,0.7,0.5,1.1,0.7c0.5,0.3,0.9,0.5,1.3,0.8s0.8,0.4,1.1,0.6c0.4,0.2,0.7,0.4,1,0.6
		c0.3,0.2,0.2,0.3,0,0.2s-0.3,0-0.3-0.1s-0.2,0,0,0.2c0.2,0.1,0.4,0.2,0.6,0.2c0.4,0,0.8,0.1,1.2,0.2c0.3,0.1,0.6,0.3,0.7,0.6
		c0.2,0.3,0.4,0.7,0.1,0.8c-0.3,0.1-0.7,0.1-1,0.1c-0.5-0.1-1.1-0.2-1.6-0.4c-0.6-0.3-1.3-0.7-1.9-1.1c-0.6-0.4-1.3-0.8-2-1.1
		c-0.6-0.2-1.1-0.5-1.6-0.8c-0.5-0.3-1.4-1.1-2-1.6c-0.5-0.4-1.2-0.4-1.8-0.1c-0.3,0.3-0.5,0.8-0.5,1.3c0,0.6,0.2,1.3,0.4,1.8
		c0.4,0.7,0.8,1.3,1.4,1.8l1.9,1.8c0.6,0.5,1.2,1,1.9,1.5c0.5,0.4,1.1,0.7,1.7,1c0.6,0.3,1.2,0.5,1.8,0.6c0.5,0.1,1.1,0.2,1.6,0.3
		c0.5,0.1,0.9,0.4,1.2,0.7c0.1,0.2,0,0.5-0.2,0.7c0,0-0.1,0-0.1,0c-0.3,0.1-0.5,0.7-0.8,1.1s-0.5,0.6-0.9,0.7
		c-0.3,0-0.4,0.1-0.5,0.3c-0.1,0.1-0.2,0.2-0.3,0.3c-0.3,0.1-0.6,0.1-0.8,0c-0.3-0.2-0.1-0.3,0-0.4s-0.1-0.2-0.5,0
		c-0.5,0.1-1,0.1-1.4-0.2c-0.3-0.2-0.6-0.4-1-0.8c-0.2-0.2-0.5-0.4-0.7-0.5c-0.4-0.2-0.8-0.2-1.3-0.4c-0.5-0.2-1-0.4-1.5-0.7
		c-0.4-0.2-0.9-0.4-1.4-0.6c-0.4-0.1-0.7-0.2-1.1-0.1c-0.4,0.1-0.8,0.1-1.2-0.1c-0.4-0.2-0.8-0.4-1.1-0.8c-0.2-0.3-0.4-0.6-0.6-0.9
		s-0.3-0.2-0.1,0.2c0,0.1,0.1,0.2,0,0.2c-0.3,0.1-0.6,0-0.9-0.1c-0.4-0.1-0.8-0.3-1.1-0.6c-0.3-0.2-0.6-0.5-0.8-0.8
		c0,0,0.1-0.1,0.2-0.4c0.2-0.2,0.3-0.4,0.4-0.6c0.1-0.4,0-0.4-0.2,0c-0.2,0.3-0.5,0.5-0.8,0.7c-0.4,0.3-0.9,0.6-1.4,0.8
		c-0.6,0.4-1.1,0.8-1.6,1.2c-0.5,0.4-0.8,0.6-1.1,0.8s-0.5,0.1-0.5-0.4s0.1-0.7,0.2-1.2c0.1-0.4,0.2-0.9,0.4-1.3
		c0.2-0.6,0.3-0.8,0.6-1.3s0.3-0.7,0.6-1.3c0.2-0.4,0.5-0.8,0.9-1.2c0.3-0.3,0.7-0.5,1.1-0.5c0.3,0,0.5,0,0.8-0.1
		c0.3-0.1,0.3-0.4-0.1-0.3c-0.2,0.1-0.5,0.1-0.7,0c-0.3,0-0.3,0-0.3-0.3c0-1.5,0.3-2.9,0.9-4.2c0.4-0.9,1-2.4,1.5-3.4
		s0.9-1.8,1.3-2.7s1.5-2.4,1.9-3.2c0.5-0.8,1.1-1.7,1.7-2.4c0.5-0.7,1.1-1.2,1.6-1.9s2.2-2.6,2.8-3.3s1.6-1.7,2-2.2
		c0.4-0.4,0.7-0.7,1-0.8s1.9-0.1,2.8-0.1s2.9-0.2,3.6-0.2c0.7,0,1.4,0.1,2.2,0.2l0,0l1.7,0.2c0.6,0.1,1.4,0.3,1.9,0.4
		s1.2,0.3,1.4,0.4l0,0c0.6,0.2,1.1,0.3,1.7,0.4c0.7,0.2,1.4,0.3,2.1,0.4c0.9,0.1,3.2,0.7,4.1,0.9s2,0.5,3.5,0.6
		c1.1,0.1,2.2,0.2,3.2,0.2c0.9,0,1.9,0.1,2.6,0.1c0.6,0,1.1-0.1,1.6-0.4c0.5-0.3,0.6-0.7,0.1-0.7c-0.3,0-0.7,0-1-0.1
		c-0.2,0-0.4-0.1-0.6-0.3c-0.1-0.5-0.2-0.9-0.3-1.3c-0.2-0.4-0.3-0.8,0-1.1c0.3-0.4,0.6-0.9,0.8-1.4c0.3-0.5,0.7-0.9,1.2-1.2
		c0.4-0.2,0.9-0.3,1.3-0.3c0.6-0.1,1.2-0.2,1.8-0.4c0.5-0.1,0.9-0.2,1.4-0.1c0.6,0.1,1,0.1,1.4,0.2c0.3,0.1,0.7,0.2,1,0.1l0,0
		c0.2,0,0.3-0.2,0.3-0.4c0-0.2,0.1-0.4-0.1-0.6c-0.2-0.2-0.2-0.6-0.1-0.9c0.2-0.4,0.5-0.7,0.9-0.8c0.5-0.2,0.9-0.4,1.1-0.5
		c0.4-0.2,0.8-0.5,1.1-0.8c0.4-0.3,0.9-0.4,1.4-0.3c0.5,0.2,1.1,0.3,1.6,0.4c0.4,0,0.8,0.1,1.2,0.2c0.4,0.1,0.7,0.3,1,0.4
		c0.3,0.2,0.4,0.2,0.5-0.1c0.2-0.5,0.7-0.8,1.2-0.9c0.3,0.2,0.6,0.4,0.8,0.6c0.2,0.2,0.5,0.4,0.9,0.8c0.3,0.3,0.7,0.6,1.1,0.8
		c0.5,0.3,0.9,0.6,1.3,0.7c1,0.4,2,1,3,1.5s2.7,1.3,4.1,2.1s2.7,1.7,4.3,2.8c1.3,1,2.6,2,3.7,3.2c2.5,2.6,4.2,5.9,4.7,9.5
		c0.2,1.7,0.2,3.4,0,5.1c-0.3,1.5-0.8,3-1.6,4.3c-0.6,1-1.3,1.9-2.2,2.6c-1,0.9-2.2,1.5-3.5,1.8c-1.1,0.4-2.3,0.6-3.4,0.8
		c-0.7,0.1-1.4,0.2-2.2,0.2c-0.4-0.5-0.7-1-1-1.6c-0.4-0.8-1-1.5-1.6-2.2c0.6,0.1,1.3,0.2,1.9,0.2c1.2,0,2.5-0.1,3.7-0.5
		c1.2-0.4,2.3-1,3.2-2c0.7-0.9,1.2-2,1.6-3.1c0.3-1.3,0.4-2.6,0.3-3.9c-0.2-1.2-0.6-2.5-1-3.7c-0.4-1-1-1.9-1.8-2.7
		c-0.8-0.8-1.7-1.5-2.8-1.8c-1.1-0.5-2.2-0.8-3.4-1c-1.1-0.2-2.2-0.2-3.3,0c-0.4,0.1-0.7,0.2-1.1,0.3c0.3-0.7,0.5-1.4,0.6-2.1
		c0.2-0.9,0.2-1.8,0-2.7c-0.2-0.8-0.4-1.2-1.2-1.2c-0.7,0-1.4,0.3-1.9,0.7c-0.7,0.4-1.3,0.9-1.8,1.4c-0.5,0.5-0.8,1.1-1,1.7
		c-0.1,0.7-0.3,1.3-0.6,1.9c-0.2,0.3-0.3,0.6-0.4,0.8s-0.5,0.2-0.5-0.2c-0.1-0.3-0.2-0.5-0.5-0.7c-0.3-0.2-0.6-0.2-0.8-0.4
		c-0.5-0.3-0.9-0.7-1.2-1.2c-0.2-0.4-0.2-0.8,0-1.2c0.1-0.4,0.3-0.8,0.6-1.2c0.5-0.5,1.1-0.9,1.8-1.1c0.4-0.1,0.8-0.4,1-0.8
		c-0.1,0.1-0.2,0.2-0.4,0.2c-0.5,0.2-1.4,0.6-1.8,0.8c-0.4,0.3-0.8,0.6-1,1.1c-0.3,0.5-0.5,1-0.7,1.5c0,0.4,0.1,0.8,0.4,1.1
		c0.3,0.3,0.6,0.6,0.9,0.8c0.3,0.3,0.7,0.5,1.1,0.6c0.3,0.1,0.5,0.7,0.5,1.1c0,0.4-0.1,0.9-0.4,1.2c-0.3,0.2-0.6,0.4-0.8,0.7
		c-0.2,0.3-0.8,1-0.9,1.2s-0.8,1.1-1,1.5c-0.3,0.5-0.6,1-0.8,1.6c-0.2,0.4-0.4,1-0.5,1.3s-0.4,1.1-0.5,1c-0.3-0.2-0.2,0-0.1,0.3
		c0.1,0.3,0,0.6-0.2,0.9c-0.3,0.3-0.7,0.6-1.2,0.7c-0.4,0.2-0.9,0.4-1.4,0.5c-0.2-0.1-0.3-0.1-0.2,0.1s-0.5,0.6-0.7,0.8
		c-0.3,0.3-0.6,0.6-1,0.8c-0.2,0.2-0.3,0.2-0.3,0.4s0.2,0.4,0.2,0.6S103.4,181.8,103.3,181.8L103.3,181.8z M88.2,168.8
		c-0.5-0.3-0.9-0.7-1.2-1.2c-0.3-0.5-0.5-1.1-0.6-1.7c0-0.8,0.1-0.8,0.2-0.3c0.1,0.5,0.2,1,0.4,1.4c0.2,0.5,0.5,0.9,0.8,1.2
		C88.3,168.6,88.5,169.1,88.2,168.8L88.2,168.8z M92.3,169c-0.2-0.4-0.4-0.8-0.5-1.2c-0.1-0.6-0.1-1.2-0.2-1.8
		c0-0.6,0.3-0.8,0.3-0.2s0.1,1.1,0.2,1.7c0.1,0.5,0.2,0.9,0.3,1.4C92.6,169.4,92.5,169.4,92.3,169L92.3,169z M100.2,168.9
		c0-0.4,0.1-1.2,0.2-1.7s0-0.8,0-1.2s0.2-0.5,0.3,0c0.1,0.4,0.1,0.8,0.1,1.2c0,0.4-0.1,0.6-0.2,1.3S100.1,169.3,100.2,168.9
		L100.2,168.9z M57.9,190.5c-0.2,0.1-0.5,0.1-0.8,0.1c-0.4,0-0.7-0.2-1-0.4c-0.3-0.3-0.4-0.8-0.5-1.2c0-0.3,0-0.6,0-0.9
		c0-0.3,0.2-0.3,0.4-0.2c0.3,0.1,0.7,0.3,1,0.4c0.4,0.2,0.7,0.5,0.9,0.9c0.1,0.2,0.2,0.5,0.2,0.8c0.1,0.2,0,0.4-0.2,0.4
		C58,190.6,58,190.6,57.9,190.5L57.9,190.5z M51.7,185.8c0,0.4-0.1,0.8-0.3,1.2c-0.4,0.4-0.8,0.8-1.3,1.1c-0.4,0.3-0.8,0.6-1.2,1
		c-0.4,0.3-0.8,0.8-1.2,1.1c-0.2,0.2-0.3,0.2-0.4,0.2s0-0.1,0.1-0.3c0.3-0.4,0.7-0.9,1.1-1.2c0.4-0.4,0.8-0.9,1.3-1.2
		c0.3-0.3,0.6-0.5,0.9-0.9c0.2-0.3,0.4-0.6,0.5-0.9C51.3,185.5,51.6,185.4,51.7,185.8L51.7,185.8z M66.1,194
		c-0.1,0.2-0.5,0.3-0.8,0.2c-0.3-0.1-0.5-0.2-0.8-0.4c-0.1-0.1-0.2-0.3-0.3-0.5c-0.1-0.2,0-0.3,0.2-0.1c0.1,0.2,0.3,0.3,0.5,0.4
		c0.1,0.1,0.3,0.2,0.4-0.1c0-0.1,0.2-0.1,0.3-0.1c0.1,0,0.2,0.1,0.3,0.1C66.1,193.7,66.1,193.9,66.1,194z M58.4,189.8
		c0-0.1-0.1-0.4-0.2-0.7c0-0.2,0-0.4,0.1-0.6c0.1-0.3,0.1-0.6,0.2-0.9c0-0.4,0.1-0.7,0.2-0.4c0.1,0.3,0.2,0.7,0.1,1.1
		c0,0.3-0.1,0.7-0.2,1C58.5,189.7,58.4,190,58.4,189.8L58.4,189.8z M103.1,182.1c-0.2,0-0.4,0-0.6,0c-0.2,0-0.4,0.1-0.6,0.2
		c0,0.1,0,0.3,0.1,0.4c0.1,0.2,0.2,0.4,0.4,0.5c0.2,0.1,0.4,0.1,0.5,0.1c0.2,0,0.4-0.1,0.2-0.2s-0.2-0.2-0.2-0.4
		c0-0.1,0-0.3,0.1-0.4C103.1,182.3,103.2,182.1,103.1,182.1L103.1,182.1z M100.7,182.2c-0.1-0.1-0.3-0.2-0.4-0.2c-0.1,0-0.3,0-0.4,0
		c0,0-0.1,0.1-0.1,0.3c0,0.2,0,0.4,0.1,0.6c0,0.2,0.1,0.3,0.3,0.4c0.1,0.1,0.3,0.2,0.5,0.3c0.2,0,0.3,0,0.2-0.1
		c-0.1-0.1-0.2-0.3-0.2-0.4c0-0.2,0-0.3,0-0.5C100.6,182.5,100.7,182.4,100.7,182.2L100.7,182.2z M98.9,180.8
		c-0.1-0.1-0.2-0.3-0.3-0.4c-0.1-0.1-0.3-0.2-0.4-0.3c0,0-0.1,0.1-0.2,0.3c-0.1,0.1-0.1,0.3-0.1,0.5c0,0.2,0,0.3,0.1,0.5
		c0.1,0.1,0.1,0.2,0.2,0.3c0.1,0.1,0.3,0.2,0.2,0c0-0.1,0-0.3,0-0.4c0-0.1,0.1-0.2,0.2-0.3C98.8,180.9,98.9,180.8,98.9,180.8
		L98.9,180.8z M99.1,180.6c-0.2-0.3-0.4-0.6-0.7-0.8c-0.1-0.1-0.1-0.4,0-0.5s0.3-0.2,0.4-0.4s0.4-0.4,0.6-0.5
		c0.2-0.1,0.4-0.3,0.6-0.4c0.2-0.2,0.4-0.3,0.7-0.3c0.5-0.1,0.6-0.2,0.3,0.1c-0.2,0.2-0.4,0.4-0.6,0.7c-0.1,0.3-0.2,0.6-0.3,0.8
		c-0.1,0.2-0.4,0.6-0.5,0.8c-0.1,0.2-0.1,0.3-0.2,0.5C99.2,180.7,99.2,180.7,99.1,180.6L99.1,180.6z M87.8,177.8
		c-0.1-0.4-0.2-0.7-0.2-1.1c0,0,0.2-0.1,0.4-0.2s0.6-0.3,0.9-0.5s0.7-0.3,0.8-0.5s0.4-0.5,0.7-0.8c0.1-0.2,0.2-0.5,0.3-0.7
		c0.1-0.1,0.2-0.2,0.3,0.1c0.2,0.3,0.4,0.5,0.7,0.7c0.2,0.1,0.3,0.3,0.2,0.5c-0.1,0.2-0.3,0.4-0.5,0.4c-0.3,0.1-0.5,0.3-0.7,0.5
		c-0.2,0.2-0.2,0.5-0.5,0.7c-0.3,0.2-0.6,0.3-0.9,0.4c-0.3,0.1-0.6,0.2-0.8,0.2C88.2,177.6,88,177.7,87.8,177.8z M90.2,173.4
		c-0.4,0-0.8-0.2-1.2-0.4c-0.2-0.2-0.3-0.2-0.5-0.1s-0.2,0.3-0.2,0.6c-0.1,0.3-0.2,0.6-0.4,0.8c-0.2,0.1-0.4,0.3-0.5,0.4
		c0,0.5,0.1,1.1,0.2,1.6c0.2-0.1,0.3-0.2,0.5-0.3c0.3-0.2,0.5-0.3,0.8-0.4c0.3-0.1,0.5-0.3,0.7-0.5c0.2-0.3,0.3-0.6,0.4-0.7
		s0.4-0.2,0.4-0.4S90.3,173.4,90.2,173.4L90.2,173.4z M90.3,173.2c-0.2,0-0.4,0-0.5-0.1c-0.2-0.1-0.3-0.1-0.5-0.3
		c-0.1-0.1,0.1-0.1,0.2-0.2c0.1-0.1,0.2-0.3,0.3-0.4c0.1-0.1,0.1-0.3,0.1-0.4c0-0.1,0-0.2,0-0.3c0-0.1,0-0.2,0.1-0.1
		c0.1,0.1,0.3,0.2,0.3,0.3c0.1,0.1,0.2,0.3,0.2,0.5c0.1,0.2,0.1,0.4,0,0.6C90.6,173,90.5,173.2,90.3,173.2L90.3,173.2z M91.9,174.5
		c-0.2-0.1-0.3-0.1-0.4-0.3c-0.1-0.1-0.3-0.3-0.3-0.5c0-0.1,0.1-0.1,0.2-0.1c0.2-0.1,0.3-0.2,0.4-0.3c0.1-0.1,0.1-0.3,0.1-0.4
		c0-0.2,0-0.2,0.1-0.1c0.1,0.1,0.2,0.3,0.2,0.5c0.1,0.2,0.1,0.5,0,0.7c0,0.1-0.1,0.3-0.2,0.4C92,174.4,92,174.5,91.9,174.5
		L91.9,174.5z M92.6,176.5c-0.1-0.1-0.3-0.2-0.3-0.3c-0.1-0.2-0.1-0.4-0.1-0.6c0-0.2,0.1-0.1,0.3-0.1c0.2,0,0.3-0.1,0.4-0.2
		c0.1-0.1,0.3-0.2,0.3-0.4c0-0.2,0.1-0.3,0.2-0.1c0.1,0.2,0.1,0.4,0.1,0.6c0,0.2-0.1,0.5-0.3,0.6c-0.1,0.1-0.2,0.2-0.3,0.3
		C92.8,176.5,92.7,176.6,92.6,176.5L92.6,176.5z M92.5,176.7c-0.3-0.2-0.5-0.5-0.6-0.9c0-0.2-0.2-0.1-0.3,0
		c-0.2,0.1-0.4,0.2-0.6,0.4c-0.1,0.1-0.2,0.4-0.3,0.6c-0.1,0.2-0.3,0.3-0.5,0.4c-0.4,0.2-0.4,0.2,0,0.2s0.5,0,0.8,0s0.5-0.1,0.8-0.1
		c0.2,0,0.4-0.1,0.6-0.1C92.5,177.1,92.5,176.9,92.5,176.7L92.5,176.7z M82,174.4c-0.2-0.4-0.4-0.7-0.6-1c-0.4-0.5-0.7-1-1-1.5
		c-0.3-0.5-0.6-1-1-1.4c-0.3-0.4-0.6-0.7-1-1c-0.3-0.2-0.5-0.6-0.4-0.3c0.1,0.4,0.2,0.7,0.2,1.1c0,0.4,0.1,0.8,0.2,1.2
		c0.1,0.4,0.3,0.7,0.6,1c0.3,0.2,0.6,0.4,0.9,0.6c0.3,0.2,0.7,0.5,1.1,0.7S82,174.5,82,174.4L82,174.4z M77.5,168.8
		c-0.4,0-0.8,0.1-1.1,0.1l-1.5,0.3c-0.3,0.1-0.6,0.1-0.9,0.2h-0.7c-0.3,0,0-0.1,0.2-0.3c0.2-0.2,0.4-0.4,0.6-0.6
		c0.2-0.3,0.4-0.5,0.7-0.8c0.2-0.3,0.5-0.5,0.8-0.7c0.3-0.2,0.6-0.4,0.6-0.4c0.1,0.3,0.2,0.6,0.5,0.9c0.2,0.2,0.4,0.7,0.6,0.9
		S77.6,168.7,77.5,168.8L77.5,168.8z M73.5,190c-0.1-0.3-0.3-0.6-0.5-0.9c-0.3-0.3-0.5-0.6-0.9-0.8c-0.4-0.3-0.8-0.5-1.2-0.7
		c-0.5-0.2-0.9-0.3-1.4-0.4c-0.5-0.1-1.7-0.2-1.9-0.2c-0.2,0.2-0.3,0.3-0.4,0.5c-0.2,0.2-0.3,0.5-0.4,0.7c0.2,0.1,0.5,0.1,0.8,0.1
		c0.2-0.2,0.4-0.4,0.6-0.4c0.2-0.1,0.2,0.4,0.2,0.5c0.1,0.1,0.3,0.1,0.4,0.1c0.4,0.1,0.7,0.1,1.3,0.2s1,0.2,1.5,0.3
		c0.4,0.1,0.7,0.3,1.1,0.5c0.2,0.1,0.4,0.3,0.5,0.5C73.5,190.3,73.6,190.4,73.5,190L73.5,190z M53.1,190c-0.5-0.2-1-0.6-1.3-1
		c0-0.1-0.2,0.5-0.2,0.9s-0.2,1.2-0.3,1.6s-0.2,0.8-0.2,1.1s0.1,0.5,0.3,0.2c0.2-0.4,0.4-0.7,0.7-1c0.3-0.3,0.5-0.6,0.7-1
		C52.9,190.6,53,190.3,53.1,190L53.1,190z M59.6,191.9c-0.3-0.2-0.7-0.3-1-0.4c-0.3-0.1-0.7-0.1-1,0.1c0.2,0.2,0.4,0.3,0.6,0.4
		c0.3,0.2,0.6,0.2,0.9,0.1C59.5,192,59.8,192.1,59.6,191.9L59.6,191.9z M50.1,182.2c0.1-0.8,0.2-1.6,0.5-2.4c0.2-0.5,0-0.3-0.3-0.1
		c-0.3,0.2-0.5,0.4-0.8,0.7c-0.2,0.2-0.2,0.2-0.1,0.7s0.3,0.6,0.4,0.9S50,182.4,50.1,182.2z M51.5,177.4c0.3-0.8,1-2.4,1.5-3.4
		c0.2-0.5,0-0.2-0.3,0c-0.3,0.2-0.7,0.5-1,0.8c-0.4,0.3-0.3,0.2-0.3,0.7s0.1,0.9,0.1,1.4S51.4,177.7,51.5,177.4L51.5,177.4z
		 M56.6,168c-0.4,0.5-1.6,2.4-2,3.1s-0.3,0.5-0.3-0.1c0-0.8,0-1.3,0.1-1.8s0-0.6,0.5-0.8c0.5-0.2,0.9-0.3,1.4-0.5
		C56.7,167.7,56.8,167.7,56.6,168L56.6,168z M61.4,162.3c-0.3,0.3-2.7,3.1-3,3.6s-0.2,0.2-0.2-0.2c0.1-0.6,0.3-1.8,0.4-2.3
		s0.1-0.6,0.6-0.8s1-0.3,1.6-0.5S61.7,162,61.4,162.3L61.4,162.3z M63.1,160.6c0.2-0.3,0.6-0.6,0.8-0.8c0.2-0.3,0.5-0.6,0.2-0.5
		s-0.5,0-0.7,0s-0.4-0.2-0.4,0.1c0,0.4,0,0.5-0.1,1S62.8,161,63.1,160.6L63.1,160.6z M97.5,162.4c-0.3,0.2-0.7,0.3-1,0.4
		c-0.2,0-0.2,0-0.2-0.1c0-0.2,0-0.3-0.1-0.5c-0.1-0.3-0.1-0.2,0.2-0.1c0.2,0.1,0.4,0.1,0.6,0.1h0.5C97.8,162,97.8,162.2,97.5,162.4
		L97.5,162.4z M66.4,188.1c-0.2-0.1-0.6-0.3-0.9-0.4s-0.7-0.4-1-0.6s-0.7-0.4-1-0.7c-0.4-0.3-0.7-0.6-1.1-0.9
		c-0.2-0.2-0.7-0.6-1-0.9s-0.6-0.6-0.9-0.9c-0.3-0.4-0.6-0.7-1-1c-0.3-0.3-0.7-0.6-1-0.8c0-0.2,0.1-0.3,0.2-0.5
		c0.3,0.2,0.7,0.5,0.9,0.8c0.4,0.4,0.7,0.7,1,1.1c0.3,0.4,0.7,0.7,1.1,1c0.6,0.5,1.3,1,2,1.4c0.5,0.2,1.3,0.7,1.8,0.9l1,0.3
		c0,0-0.1,0.3-0.1,0.5s-0.1,0.7-0.1,0.7L66.4,188.1z M79.6,181.1c-0.2,0.1-0.4,0.1-0.5,0.1c-0.2,0-0.3-0.2-0.4-0.1
		c-0.2,0.2-0.2,0.5-0.2,0.8c0.1,0.1,0.2,0.1,0.5,0c0.3-0.1,0.5-0.3,0.7-0.5C79.9,181,79.7,181.1,79.6,181.1L79.6,181.1z M78.4,184.1
		c-0.2,0-0.4,0-0.6-0.1c-0.2-0.1-0.3-0.5-0.4-0.4c-0.4,0.1-0.6,0.4-0.6,0.8c0,0.1,0.1,0.1,0.3,0.2c0.2,0,0.5,0,0.7,0
		c0.2,0,0.4-0.1,0.5-0.2C78.6,184.4,78.8,184.2,78.4,184.1L78.4,184.1z M76.1,185.6c-0.2,0-0.4,0-0.7,0c-0.2,0-0.3-0.1-0.5-0.3
		c-0.1-0.1-0.3-0.4-0.2-0.4c0.3,0,0.5-0.1,0.7-0.3c0,0,0.1,0.2,0.2,0.3c0.1,0.1,0.2,0.3,0.3,0.3l0.3,0.1
		C76.3,185.6,76.3,185.6,76.1,185.6"/>
	
		<path id="path22" style="clip-path:url(#SVGID_00000055699542320336322280000009961799849850908032_);fill-rule:evenodd;clip-rule:evenodd;fill:#EDC282;" d="
		M92.6,255.5c0-0.3-0.1-0.6-0.2-0.9c-0.2-0.4-0.3-0.7-0.5-1s-0.3-0.4-0.3-0.3s-0.1,0.2-0.1,0c-0.1-0.2-0.1-0.5-0.2-0.7
		c-0.1-0.2-0.3-0.6-0.4-0.7s-0.3-0.4-0.4-0.5c-0.1-0.2-0.2-0.4-0.3-0.6c0-0.2,0-0.4,0-0.5c0-0.2,0.1-0.6,0.2-0.8s0.2-0.6,0.3-0.9
		s0.1-0.6,0.2-0.8s0.4-0.7,0.6-1s0.5-0.8,0.7-1.1c0.3-0.4,0.5-0.8,0.8-1.2c0.3-0.3,0.6-0.6,1-0.9c0.3-0.2,0.6-0.4,1-0.5
		c0.3-0.1,0.7-0.2,1-0.2c0.4,0,0.9,0.1,1.3,0.3c0.4,0.2,0.7,0.5,1,0.8c0.3,0.3,0.5,0.6,0.7,0.9c0.2,0.3,0.3,0.7,0.4,1.1
		c0.1,0.5,0.2,1.1,0.2,1.6c0,0.5,0,0.9,0,1.4c0,0.3,0,0.6-0.1,0.9c0,0.2-0.1,0.4-0.2,0.5c-0.1,0.1-0.5,0.8-0.6,0.9
		c-0.1,0.3-0.3,0.6-0.4,0.9c-0.1,0.2-0.4,0.7-0.5,0.9s-0.1,0.2-0.4,0.4s-0.5,0.5-0.8,0.6c-0.2,0.1-0.5,0.2-0.8,0.2
		c-0.2,0.1-0.3,0.1-0.3-0.1s0.2-0.3-0.2-0.3c-0.3,0-0.7,0.1-1,0.2c-0.3,0.1-0.6,0.3-0.9,0.5c-0.2,0.2-0.4,0.4-0.6,0.6
		C92.6,255.5,92.6,255.6,92.6,255.5L92.6,255.5z M95.9,248.5c0.1,0,0.2-0.1,0.3-0.2c0.1-0.1,0.2-0.3,0.2-0.5c0-0.2,0-0.3-0.2-0.4
		c-0.2,0-0.4-0.1-0.5-0.3c-0.2-0.1-0.4-0.3-0.6-0.3c-0.2-0.1-0.4-0.1-0.6-0.1c-0.1,0-0.3,0-0.4,0c-0.1-0.1-0.3-0.1-0.4,0
		c-0.1,0.1-0.2,0.3-0.3,0.5c0,0.2,0,0.3,0,0.5c0,0.1,0.1,0.2,0.2,0.1s0-0.3,0-0.4c0-0.1,0.1-0.3,0.2-0.4c0.2-0.2,0.3-0.1,0.5-0.1
		c0.2,0,0.5,0,0.7,0c0.2,0,0.3,0.1,0.5,0.2c0.1,0.1,0.3,0.2,0.4,0.3c0.1,0,0.2,0,0.3,0.2c0,0.1,0,0.3,0,0.4c0,0.1-0.1,0.2-0.2,0.2
		S95.8,248.4,95.9,248.5C95.8,248.6,95.9,248.5,95.9,248.5L95.9,248.5z M97.1,246l-0.8,0.1l-0.5,0.1c-0.1,0-0.2,0-0.3-0.1
		c-0.1-0.1-0.3-0.2-0.4-0.2c-0.2,0-0.2,0.1-0.3-0.1s-0.2-0.2-0.3-0.4s-0.1-0.2-0.2-0.3s0-0.1,0.1-0.1c0.2,0,0.4,0.1,0.5,0.2
		c0.1,0.1,0.3,0.1,0.4,0.1c0.2,0,0.4,0.1,0.6,0.2c0.1,0.1,0.3,0.2,0.4,0.2c0.2,0,0.4,0.1,0.5,0.2C97,245.9,97.2,246,97.1,246z
		 M95.9,244.8l-0.5-0.2c-0.1-0.1-0.1-0.1-0.1-0.1c0-0.1,0-0.1,0-0.2c0-0.1,0-0.1,0.2,0c0.2,0.1,0.3,0.2,0.5,0.2l0.5,0.1
		c0.2,0,0.3,0,0.4,0s0.2,0.1,0,0.2c-0.1,0-0.2,0.1-0.3,0.2c-0.1,0-0.2,0-0.2,0L95.9,244.8L95.9,244.8z M94.7,251.8
		c-0.2,0.1-0.2,0.1,0,0.2s0.3,0.2,0.6,0.4l0.6,0.4c0.1,0.1,0.2,0.1,0.3,0.1c0.2,0,0.3,0,0.5,0c0.2,0,0.3,0,0.5-0.1
		c0.2,0,0.5-0.2,0.1-0.2c-0.2,0-0.5,0-0.8,0c-0.2,0-0.4-0.1-0.5-0.1c-0.2-0.1-0.3-0.2-0.4-0.3c-0.1-0.1-0.3-0.2-0.5-0.3
		c-0.2-0.1-0.2-0.1-0.3-0.1C94.8,251.7,94.7,251.7,94.7,251.8L94.7,251.8z M92.7,251.1c-0.1,0.1-0.3,0.2-0.5,0.2
		c-0.3,0-0.6-0.1-0.8-0.1c-0.3,0-0.5-0.1-0.7-0.2c-0.1-0.1-0.2-0.2-0.3-0.4c-0.1-0.1-0.1-0.4,0-0.3c0.1,0.1,0.3,0.2,0.4,0.4
		c0.2,0.1,0.3,0.2,0.5,0.2c0.2,0,0.3,0,0.6,0.1c0.2,0,0.4,0,0.6,0.1C92.6,250.9,92.7,251,92.7,251.1L92.7,251.1z M92.9,250.9
		c0.2-0.1,0.3-0.2,0.5-0.3c0.2-0.2,0.3-0.4,0.3-0.7c0.1-0.2,0.2-0.7,0.2-0.9c0-0.2,0.1-0.4,0.1-0.6c0-0.1,0-0.3,0-0.4
		c0-0.1-0.1-0.3-0.1-0.1c0,0.3,0,0.5-0.1,0.8c-0.1,0.3-0.1,0.6-0.2,0.9c-0.1,0.3-0.2,0.6-0.3,0.8c-0.1,0.2-0.2,0.2-0.2,0.3
		S92.8,251,92.9,250.9L92.9,250.9z M95.4,250.8c0.1,0.3,0.3,0.5,0.6,0.7c0.2,0.1,0.5,0.2,0.7,0.2c0.2,0,0.4,0,0.6-0.1
		c0.3-0.1,0.2-0.1,0.1-0.2c-0.1-0.1-0.1-0.3-0.3-0.4c-0.2-0.2-0.4-0.3-0.6-0.3c-0.2,0-0.4-0.1-0.6-0.1c-0.2,0-0.3,0-0.4,0
		s-0.2,0-0.2,0S95.3,250.7,95.4,250.8L95.4,250.8z M92.8,249.9c-0.2,0.2-0.5,0.3-0.8,0.3c-0.2,0-0.5-0.1-0.7-0.2
		c-0.2-0.1-0.3-0.2-0.4-0.4c-0.1-0.2-0.1-0.2,0-0.3c0.1-0.1,0.3-0.1,0.4-0.1c0.2,0,0.4,0,0.7,0.1c0.2,0.1,0.4,0.2,0.6,0.3
		c0.2,0.1,0.2,0.1,0.3,0.2s0.2,0.1,0.2,0.1S92.9,249.8,92.8,249.9L92.8,249.9z M130.9,217.1c-0.1-0.2-0.4-0.7-0.6-1.2
		s-0.4-0.8-0.5-1.2c-0.1-0.1-0.2-0.5-0.2-0.7c0.1-0.2,0.2-0.3,0.3-0.5c0.2-0.3,0.5-0.5,0.8-0.6c0.4-0.1,0.8-0.3,1.2-0.3
		c0,0.2,0.1,0.8,0.2,1.1s0.1,0.6,0.2,0.8c0,0.1,0.1,0.3,0.1,0.4c-0.1-0.1-0.2-0.1-0.4-0.1c-0.2,0-0.4,0-0.6,0
		c-0.2,0.1-0.3,0.1-0.1,0.1c0.3,0,0.5,0,0.8,0.1c0.3,0.1,0.5,0.2,0.8,0.3c0.3,0.1,0.5,0.3,0.6,0.6c0.1,0.1,0.2,0.3,0.2,0.3
		c0,0.1,0,0.2-0.1,0.3c0,0.1-0.1,0.2-0.2,0.2c-0.1,0.2,0,0.2,0.1,0.1c0.1-0.1,0.1-0.1,0.2-0.2c0.2-0.2,0-0.4,0.2-0.4
		c0.2-0.1,0.3-0.1,0.5-0.1c0.2,0,0.3,0,0.4,0.1c0.1,0.1,0.1,0.2,0.3,0.2s0.2,0,0.1-0.1c-0.1,0-0.2-0.1-0.3-0.2
		c-0.1-0.1-0.2-0.3-0.1-0.4c0-0.2,0-0.3,0.1-0.5c0.1-0.1,0.2-0.2,0.4-0.2c0.1,0,0.2,0.2,0.2,0.4c0,0.2,0,0.3,0,0.5
		c0.1,0.2,0,0.4,0.1,0.6c0.1,0.2,0,0.4-0.1,0.4c0,0,0,0,0,0c-0.2,0.1-0.7,0.2-0.9,0.3c-0.3,0.1-0.5,0.2-0.8,0.2c-0.4,0-0.8,0-1,0
		c-0.3,0-0.5-0.1-0.8-0.1c-0.2-0.1-0.4-0.1-0.6-0.1C131.1,217.2,131,217.1,130.9,217.1L130.9,217.1z M135.3,212.5
		c0.1-0.1,0.1-0.3,0.1-0.5c0-0.1-0.2-0.3-0.3-0.3c-0.2,0-0.4,0-0.5,0c-0.3,0-0.5,0.1-0.8,0.2c-0.2,0.1-0.4,0.2-0.5,0.3
		c-0.1,0.1-0.1,0.2-0.1,0.4c0,0.1,0.1,0.2,0.2,0.3c0.2,0.1,0.4,0.1,0.6,0c0.2-0.1,0.6-0.1,0.8-0.2
		C134.9,212.6,135.1,212.5,135.3,212.5L135.3,212.5z M136,213.7c-0.2,0.1-0.4,0.2-0.6,0.2l-0.6,0.1c-0.3,0.1-0.5,0.1-0.8,0.2
		c-0.2,0.1-0.5,0.1-0.7,0.1c-0.2,0-0.4-0.1-0.4-0.3c-0.1-0.2,0-0.4,0.1-0.6c0.2-0.1,0.4-0.2,0.7-0.3l0.9-0.2
		c0.2-0.1,0.4-0.1,0.6-0.2c0.2-0.1,0.4-0.1,0.6,0c0.2,0.1,0.3,0.2,0.3,0.4C136.2,213.3,136.2,213.5,136,213.7L136,213.7z
		 M136.2,215.1c-0.2,0.1-0.3,0.1-0.5,0.2c0-0.3-0.1-0.6-0.4-0.5c-0.4,0.1-0.6,0.3-0.7,0.7c-0.3,0-0.5,0-0.8,0
		c-0.2,0-0.4-0.2-0.5-0.4c-0.1-0.2-0.1-0.4,0.1-0.6c0.2-0.1,0.5-0.2,0.7-0.2l1-0.2c0.3-0.1,0.7-0.2,0.8-0.2c0.1,0,0.2,0,0.4,0
		c0.1,0.1,0.2,0.3,0.2,0.4c0,0.2,0,0.3-0.1,0.5C136.4,215,136.3,215.1,136.2,215.1L136.2,215.1z M136.6,215.4
		c-0.1-0.1-0.2-0.1-0.4,0c-0.2,0-0.3,0.1-0.5,0.1c0,0.2,0,0.3,0.1,0.5c0.1,0.2,0.1,0.4,0.1,0.6c0.1,0,0.3,0,0.4-0.1
		c0.3-0.1,0.4-0.3,0.4-0.6C136.7,215.7,136.7,215.5,136.6,215.4L136.6,215.4z M134.5,215.7c0,0.1,0,0.2,0,0.3c0,0-0.1,0-0.3,0
		c-0.1,0-0.2,0-0.3,0.1c0,0,0-0.1,0-0.1c0-0.1,0.1-0.2,0.2-0.2C134.3,215.7,134.4,215.6,134.5,215.7L134.5,215.7z M73.1,227.8
		c-0.1-0.3-0.2-0.7-0.4-1c-0.2-0.4-0.5-0.9-0.7-1.1s-0.2,0-0.4,0c-0.3,0-0.5,0-0.8-0.1c-0.2,0-0.5,0-0.7,0c-0.3,0-0.6,0.1-0.8,0.1
		c-0.2,0-0.4,0.1-0.6,0.1c-0.2,0-0.6,0-0.8-0.1l-0.8-0.2c-0.2,0-0.5,0-0.7,0.1c-0.2,0-0.3,0.2-0.4,0.3c-0.1,0.2,0,0.3,0.1,0.4
		c0.2,0.2,0.4,0.3,0.6,0.3c0.2,0,0.4,0.1,0.6,0.1c0.2,0,0.4,0.1,0.6,0.2c0.2,0.1,0.3,0.2,0.5,0.3c0.1,0.1,0.2,0.2,0.3,0.3
		c0.1,0.2,0.1,0.3,0,0.2s-0.2,0.1-0.2,0.2c-0.1,0.2-0.1,0.3-0.2,0.5c-0.1,0.2-0.2,0.2-0.4,0.3c-0.2,0.1-0.3,0.1-0.4,0.2
		c-0.1,0.1-0.2,0.2-0.3,0.3c-0.1,0.1-0.2,0.1-0.1,0c0-0.1,0.1-0.1,0.1-0.2c0.2-0.2,0-0.2-0.3-0.2h-0.6c-0.2,0-0.3,0-0.5,0
		c-0.2,0-0.2,0-0.1-0.1c0.1-0.1,0.2-0.1,0.4-0.1c0.2,0,0.3-0.1,0.2-0.2c-0.1-0.2-0.1-0.3-0.2-0.4c-0.1-0.1-0.1-0.3-0.1-0.3
		c-0.2-0.1-0.3-0.2-0.5-0.3c-0.1-0.1-0.2-0.3-0.3-0.4c-0.1-0.2-0.2,0-0.2,0.2s-0.1,0.4-0.1,0.6c0,0.2,0,0.4,0.1,0.6l0.4,0.9
		c0.1,0.2,0.2,0.4,0.4,0.6c0.2,0.1,0.4,0.2,0.6,0.3c0.3,0.1,0.5,0.2,0.8,0.3s0.6,0.1,0.8,0.2c0.3,0.1,0.6,0.2,0.9,0.2
		c0.3,0,0.5-0.2,0.7-0.4c0.2-0.2,0.9-0.7,1.2-0.9l0.9-0.7c0.3-0.2,0.5-0.4,0.8-0.5C72.6,228,73.1,227.8,73.1,227.8"/>
	
		<path id="path24" style="clip-path:url(#SVGID_00000055699542320336322280000009961799849850908032_);fill-rule:evenodd;clip-rule:evenodd;fill:#FAE042;" d="
		M76.3,205c-2.1,0-3.9-0.4-3.9-0.9s1.8-0.9,3.9-0.9s3.9,0.4,3.9,0.9S78.4,205,76.3,205z M76.3,200.7c-2.1,0-3.8,1.2-4,2.7
		c1.4-0.5,2.9-0.7,4.3-0.6c1.2,0,2.5,0.2,3.6,0.6C80.1,201.9,78.4,200.8,76.3,200.7L76.3,200.7z M56.5,205c2.1,0,3.9-0.4,3.9-0.9
		s-1.8-0.9-3.9-0.9s-3.9,0.4-3.9,0.9S54.4,205,56.5,205z M56.5,200.7c2.1,0,3.8,1.2,4,2.7c-1.4-0.5-2.9-0.7-4.3-0.6
		c-1.2,0-2.5,0.2-3.6,0.6C52.7,201.9,54.5,200.8,56.5,200.7L56.5,200.7z M64.9,218c-0.1-0.1-0.1-0.2-0.2-0.2c0.2-0.3,0.3-0.7,0.4-1
		c-1.8,0-4.4-0.1-5-0.1c-0.7,0-3.2-0.3-3.8-0.2s-0.8,0.3-1.1,0.9s-0.7,1.3-0.2,1.2s0.8-0.8,1-1.2s0.6-0.3,1.3-0.2s2.6,0.4,4,0.6
		C62.2,217.8,63.7,217.9,64.9,218L64.9,218z M68,218c1.1-0.1,2.5-0.2,3.4-0.2c1.4-0.1,3.3-0.5,4-0.6s1.1-0.1,1.3,0.2s0.5,1.1,1,1.2
		s0.1-0.6-0.2-1.2s-0.6-0.8-1.1-0.9s-3,0.2-3.8,0.2c-0.5,0-3.2,0.1-4.9,0.1c0.1,0.3,0.4,0.8,0.5,1C68.2,217.9,68.1,218,68,218
		L68,218z M66.4,214.6L66.4,214.6c0,0,1,2.3,1.1,2.7s0.2,0.3-0.1,0.6c-0.3,0.6-0.5,1.2-0.6,1.9c0,0.5-0.1,1.4-0.1,1.9
		s0.1,2.3,0.2,2.7c0.1,0.3,0.2,0.6,0.3,0.9c-0.3,0-0.5,0-0.8,0c-0.4,0.1-0.7,0.3-0.8,0.5c0,0.3,0.1,0.5,0.3,0.7
		c0.3,0.2,0.6,0.3,0.9,0.4c-0.1,0.1-0.4,0.2-0.5,0.2l0,0c-0.6-0.1-1-0.6-1-1.1c0-0.5,0.4-1.2,0.5-1.6s0.1-2.2,0.2-2.7s0-1.4-0.1-1.9
		c-0.1-0.7-0.3-1.3-0.6-1.9c-0.2-0.2-0.2-0.1-0.1-0.6S66.4,214.6,66.4,214.6L66.4,214.6z M66.4,218.1c-0.4,0-0.7-0.3-0.7-0.7
		c0,0,0,0,0,0c0-0.4,0.2-0.7,0.6-0.8c0.4,0,0.7,0.2,0.8,0.6c0,0.1,0,0.1,0,0.2C67.1,217.8,66.8,218.1,66.4,218.1
		C66.4,218.1,66.4,218.1,66.4,218.1L66.4,218.1z M94.6,262.4c-6,0-10.8-4.8-10.8-10.8c0-4.4,2.6-8.3,6.7-10
		c-0.2,0.3-0.3,0.6-0.5,0.8c-0.7,0.7-1.3,1.4-1.7,2.3c-0.3,1-0.5,2.1-0.5,3.2c0,1,0.2,1.9,0.1,2.8c-0.1,1-0.2,2-0.1,3
		c0.1,0.9,0.4,1.8,0.9,2.5c0.5,0.7,1.2,1.3,2,1.7c0.4,0.2,0.9,0.2,1.3-0.1c0.1,0,0.1,0.7,1,0.9c1.3,0.2,2.8-0.3,4.2-0.6
		c1.1-0.3,2-1.1,2.4-2.1c0.6-1.2,1.3-2.3,1.8-3.5c0.6-1.5,1.4-1.7,1.7-2.6c0.3-0.9,0.5-1.8,0.6-2.7c0-0.5,0.1-1.1,0.1-1.6
		c3.3,5,2,11.7-3,15C98.9,261.8,96.7,262.4,94.6,262.4L94.6,262.4z M144.3,250.8c0.2-0.1,0.3-4.2-0.4-6.7l-6.8-24.3l-0.4-1.4
		c-0.6,0.1-1.1,0.2-1.7,0.4s-1.1,0.4-1.6,0.6l0.4,1.4l7.2,24.1C141.8,247.4,144.1,250.9,144.3,250.8L144.3,250.8z M134.7,217.8
		c1.8-0.5,3.7-0.9,5.5-1.2l0.6,1.4c-1.2-0.2-2.4-0.2-3.6,0c-1,0.2-1.9,0.4-2.3,0.6s-1.3,0.4-2.2,0.8c-1.1,0.5-2.1,1.1-3,1.8
		l-0.3-1.5C131.2,219,133,218.3,134.7,217.8L134.7,217.8z M132.7,210.8c-0.6,0.1-1.1-0.4-1.2-1c-0.1-0.6,0.4-1.1,1-1.2
		c0.5-0.1,1,0.3,1.2,0.8C133.8,210,133.3,210.6,132.7,210.8L132.7,210.8z M133.7,210.5c-0.2,0.3-0.5,0.4-0.8,0.5
		c-0.4,0.1-0.8,0.1-1.1,0c0,0,0.1,0.5,0.1,0.7s0.1,0.9,0.2,1.2s0.3,1.2,0.4,1.4l0.2,0.6c0.1,0,0.1,0,0.2,0c0.1,0,0.2,0.1,0.2,0.1
		c0-0.1,0-0.3,0-0.4c0-0.1,0-0.2,0.1-0.3c0.1-0.1,0.2-0.1,0-0.1c-0.2-0.1-0.4-0.2-0.4-0.4c0-0.2,0-0.4,0.1-0.6
		c0.1-0.1,0.1-0.1,0.2-0.2c0.2-0.1,0.2-0.1,0-0.1s-0.2-0.2-0.2-0.4c0-0.2,0-0.3,0.1-0.4c0.1-0.1,0.3-0.2,0.5-0.3
		c0.2-0.1,0.4-0.2,0.6-0.2l0.3-0.1l-0.4-0.7C133.9,210.7,133.9,210.5,133.7,210.5"/>
	<path style="clip-path:url(#SVGID_00000055699542320336322280000009961799849850908032_);fill:#FFFFFF;" d="M77.4,99.4
		c-12.6,0-22.9,10.2-22.9,30.5c0,25.4,18.2,50.9,40.7,50.9s40.7-25.4,40.7-50.9c0-20.3-10.2-30.5-22.9-30.5
		c-6.9,0-13.5,3.1-17.8,8.5C90.9,102.5,84.3,99.4,77.4,99.4z"/>
	<path style="clip-path:url(#SVGID_00000055699542320336322280000009961799849850908032_);fill:#FFFFFF;" d="M27.8,112.6h134.7
		c3,0,5.5,2.4,5.5,5.5v44c0,3-2.4,5.5-5.5,5.5H27.8c-3,0-5.5-2.4-5.5-5.5v-44C22.4,115.1,24.8,112.6,27.8,112.6z"/>
	<g style="clip-path:url(#SVGID_00000055699542320336322280000009961799849850908032_);enable-background:new    ;">
		<text transform="matrix(1 0 0 1 34.18 159.52)" class="st13 st14 st15">Biała Podlaska</text>
	</g>
	<g style="clip-path:url(#SVGID_00000055699542320336322280000009961799849850908032_);enable-background:new    ;">
		<text transform="matrix(1 0 0 1 48.87 137.67)" class="st13 st14 st16">Bieraście</text>
	</g>
	<path style="clip-path:url(#SVGID_00000055699542320336322280000009961799849850908032_);fill:#FFFFFF;" d="M150.6,0h29h16v16
		c0,7,0,14,0,21c-10.2,12.4-28.6,14.2-41,4S140.4,12.4,150.6,0z"/>
	<g style="clip-path:url(#SVGID_00000055699542320336322280000009961799849850908032_);enable-background:new    ;">
		<text transform="matrix(1 0 0 1 159.7 31.75)" class="st13 st14 st17">40</text>
	</g>
</g>
</svg>
