<svg id="Слой_1" data-name="Слой 1" xmlns="http://www.w3.org/2000/svg" viewBox="0 0 195.59 280.63"><defs><style>.cls-1{fill:#3a81c3;}.cls-2{fill:#dc2d1a;}.cls-10,.cls-15,.cls-2,.cls-3,.cls-5,.cls-6,.cls-7,.cls-9{fill-rule:evenodd;}.cls-3,.cls-4,.cls-7,.cls-8{fill:#fff;}.cls-11,.cls-5,.cls-6{fill:#eaa518;}.cls-11,.cls-13,.cls-6,.cls-7,.cls-8{stroke:#424242;}.cls-11,.cls-13,.cls-14,.cls-6,.cls-7,.cls-8{stroke-miterlimit:10;stroke-width:0.75px;}.cls-12,.cls-9{fill:#424242;}.cls-10,.cls-16,.cls-17{fill:#1d528d;}.cls-13,.cls-14{fill:none;}.cls-14{stroke:#fff;}.cls-15{fill:#feca0d;}.cls-16{font-size:22.08px;}.cls-16,.cls-17{font-family:Impact;}.cls-17{font-size:20px;}</style></defs><rect class="cls-1" x="-9.21" y="-8.4" width="214.01" height="297.89"/><g id="layer5"><path id="path1481" class="cls-2" d="M98,138.07c7.67,7.66,24,12.14,35.74,18.46,16.91,9.13,16,19.61,16,33.24l0,78.22H97.87C90.37,204,91.16,144.87,98,138.07Z"/><path id="path1483" class="cls-2" d="M97.79,138.07c-7.67,7.66-24,12.14-35.74,18.46-16.91,9.13-15.95,19.61-16,33.24l0,78.22H97.87"/></g><g id="layer4"><path id="path2505" class="cls-3" d="M149.15,177.26H46.61c-1.13-22.26,40-27.33,51.17-39C108.59,148.93,149.83,155,149.15,177.26Z"/><g id="g2749"><path id="path2509" class="cls-3" d="M98.3,220.69,124,174.33H95.16C96.19,189.85,93.56,219,98.3,220.69Z"/><path id="path2512" class="cls-3" d="M97.84,221.73l-26.27-47.4h28.82C99.34,189.79,103,198.56,97.84,221.73Z"/></g><rect id="rect2514" class="cls-4" x="130.01" y="174.06" width="7.05" height="5.91"/><rect id="rect2520" class="cls-4" x="58.68" y="174.44" width="7.2" height="5.47"/><rect id="rect2753" class="cls-4" x="62.22" y="173.07" width="14.43" height="9.75"/><rect id="rect2755" class="cls-4" x="119.29" y="175.95" width="14.14" height="7.24"/></g><g id="layer3"><g id="g3751"><path id="rect3705" class="cls-5" d="M97.1,237.16V221.39c.49.14,1.62-.35,1.53.36v15.41Z"/><path id="rect2830" class="cls-5" d="M103.39,232.36H92.22c.13-.46-.29-1.48.26-1.53h10.91Z"/><g id="g2802"><path id="path2776" class="cls-6" d="M97.18,237.16c-.79-.13-1.8.28-2.44-.28a.85.85,0,0,1,1.06-1.25l1.38,0"/><path id="path2778" class="cls-6" d="M98.48,235.61c.8.13,1.81-.29,2.45.27.55.89-.41,1.53-1.23,1.27H97"/><path id="path2780" class="cls-6" d="M97.06,235.88v-3.65m1.55-10.87c0,3.26,0,6.52,0,9.78m-1.5-.06v-9.72m1.5,10.87,0,3.55"/></g><path id="path2812" class="cls-6" d="M92.21,231c.13-.8-.28-1.81.27-2.45a.85.85,0,0,1,1.26,1.06l0,1.39"/><path id="path2814" class="cls-6" d="M93.76,232.2c-.13.83.29,1.88-.27,2.56a.87.87,0,0,1-1.28-1.07c0-1.09,0-2.17,0-3.26"/><path id="path2816" class="cls-6" d="M93.65,230.88h3.54m0,1.55-3.54-.06"/><path id="path2822" class="cls-6" d="M103.43,231c-.13-.8.28-1.81-.27-2.45a.85.85,0,0,0-1.26,1.06l0,1.39"/><path id="path2824" class="cls-6" d="M101.88,232.31c.13.79-.28,1.81.27,2.45.91.55,1.53-.44,1.27-1.26v-2.86"/><path id="path2826" class="cls-6" d="M102,230.88H98.45m0,1.55,3.54-.06"/></g><g id="g2646"><path id="rect2611" class="cls-7" d="M133.55,179.76v46.57H119.31V182.48"/><rect id="rect2617" class="cls-8" x="118.18" y="207.43" width="16.5" height="2.92" rx="1.04"/><rect id="rect2619" class="cls-8" x="118.18" y="201.69" width="16.5" height="2.92" rx="1.04"/><rect id="rect2621" class="cls-8" x="118.18" y="195.95" width="16.5" height="2.92" rx="1.04"/><g id="g2625"><path id="rect2593" class="cls-9" d="M131.5,221.21c0,3.29-4.4,3.3-4.46,0v-7.89h4.33Z"/><path id="path2623" class="cls-9" d="M125.82,221.21c0,3.29-4.4,3.3-4.46,0v-7.89h4.33Z"/></g><g id="g2629"><path id="path2631" class="cls-9" d="M131.5,192.08a2.24,2.24,0,1,1-4.46,0v-7.89h4.33Z"/><path id="path2633" class="cls-9" d="M125.82,192.08a2.24,2.24,0,1,1-4.46,0v-7.89h4.33Z"/></g><path id="path2635" class="cls-7" d="M133.62,225.36l2,4.11H117.18l2.06-4.11Z"/><path id="path2637" class="cls-10" d="M135.81,229.45,126.43,251l-9.38-21.56Z"/><rect id="rect2639" class="cls-11" x="124.88" y="250.15" width="3.1" height="2.21" rx="1.04"/></g><g id="g2661"><path id="rect2663" class="cls-7" d="M76.33,182.9v43.43H62.09V180"/><rect id="rect2665" class="cls-8" x="60.96" y="207.43" width="16.5" height="2.92" rx="1.04"/><rect id="rect2667" class="cls-8" x="60.96" y="201.69" width="16.5" height="2.92" rx="1.04"/><rect id="rect2669" class="cls-8" x="60.96" y="195.95" width="16.5" height="2.92" rx="1.04"/><g id="g2671"><path id="path2673" class="cls-9" d="M74.28,221.21c0,3.29-4.4,3.3-4.46,0v-7.89h4.34Z"/><path id="path2675" class="cls-9" d="M68.6,221.21c0,3.29-4.4,3.3-4.46,0v-7.89h4.33Z"/></g><g id="g2677"><path id="path2679" class="cls-9" d="M74.28,192.08a2.24,2.24,0,1,1-4.46,0v-7.89h4.34Z"/><path id="path2681" class="cls-9" d="M68.6,192.08a2.24,2.24,0,1,1-4.46,0v-7.89h4.33Z"/></g><path id="path2683" class="cls-7" d="M76.4,225.36l2.06,4.11H60L62,225.36Z"/><path id="path2685" class="cls-10" d="M78.59,229.45,69.21,251l-9.38-21.56Z"/><rect id="rect2687" class="cls-11" x="67.66" y="250.15" width="3.1" height="2.21" rx="1.04"/></g><g id="g2491"><path id="path2428" class="cls-8" d="M98,200.52c1.58-.07,3.15-.87,3.2-2.46,1.45.77,3-.22,3.79-1.65s.94-3.16-.45-4c1.39-.86,1.27-2.78.45-4.21s-2.25-2.32-3.69-1.55c-.05-1.64-1.79-2.56-3.43-2.56s-3.19.83-3.24,2.46c-1.45-.77-3.07.23-3.89,1.65s-.74,3.25.65,4.11c-1.39.87-1.47,2.69-.65,4.12S93,198.73,94.42,198c0,1.63,1.79,2.56,3.44,2.56Z"/><path id="path2360" class="cls-12" d="M99.45,191.37a2.63,2.63,0,1,1,3.6,1A2.62,2.62,0,0,1,99.45,191.37Z"/><path id="path2362" class="cls-12" d="M91.7,195.85a2.63,2.63,0,1,1,3.59,1A2.63,2.63,0,0,1,91.7,195.85Z"/><path id="path2394" class="cls-12" d="M97.85,190.45a2.63,2.63,0,1,1,2.64-2.63A2.63,2.63,0,0,1,97.85,190.45Z"/><path id="path2396" class="cls-12" d="M97.85,199.4a2.63,2.63,0,1,1,2.64-2.63A2.63,2.63,0,0,1,97.85,199.4Z"/><path id="path2400" class="cls-12" d="M96.26,191.37a2.63,2.63,0,1,0-3.6,1A2.62,2.62,0,0,0,96.26,191.37Z"/><path id="path2402" class="cls-12" d="M103.91,195.85a2.63,2.63,0,1,0-3.59,1A2.63,2.63,0,0,0,103.91,195.85Z"/><path id="path2406" class="cls-12" d="M97.85,194.93a2.64,2.64,0,1,1,2.64-2.63A2.63,2.63,0,0,1,97.85,194.93Z"/></g><path id="path2487" class="cls-13" d="M104.08,201.31a10.88,10.88,0,0,1-6.19,1.91,9.82,9.82,0,0,1-6.6-2.08M87,193.22c0-.3,0-.61,0-.92a10.93,10.93,0,1,1,21.85,0,5.62,5.62,0,0,1-.07.92"/><path id="path2489" class="cls-13" d="M87.92,192.3a10,10,0,1,1,20,0h0a10,10,0,0,1-20,0Z"/><path id="path2530" class="cls-13" d="M147.94,172.87H47.28"/><path id="path2532" class="cls-13" d="M147.52,170.78H48.12"/><path id="path2534" class="cls-13" d="M142.74,163.27H52.9"/><path id="path2536" class="cls-13" d="M131.72,155.75h-68"/><path id="path2538" class="cls-13" d="M149.29,177.05H137.08v2.8h-7.14v-2.8H122.8v2.8h-7.13v-2.8h-7.14v2.8h-7.14v-2.8H94.25v2.8H87.11v-2.8H80v2.8H72.84v-2.8H65.7v2.8H58.56v-2.8H46.45"/><path id="path2540" class="cls-13" d="M133.53,170.78l-.21-7.3"/><path id="path2543" class="cls-13" d="M61.17,170.78l-.21-7.3"/><path id="path2545" class="cls-13" d="M69.73,170.78l-.21-7.3"/><path id="path2547" class="cls-13" d="M78.29,170.78l-.2-7.3"/><path id="path2549" class="cls-13" d="M124.59,170.78l-.21-7.3"/><path id="path2551" class="cls-13" d="M115.64,170.78l-.21-7.3"/><path id="path2553" class="cls-13" d="M106.7,170.78l-.21-7.3"/><path id="path2555" class="cls-13" d="M86.86,170.78l-.21-7.3"/><path id="path2557" class="cls-13" d="M129.06,163.16l-.21-7.31"/><path id="path2559" class="cls-13" d="M120.11,163.16l-.21-7.31"/><path id="path2561" class="cls-13" d="M74,163.27,73.8,156"/><path id="path2563" class="cls-13" d="M65.45,163.37l-.21-7.31"/><path id="path2565" class="cls-13" d="M124.32,156l-.2-3.75"/><path id="path2567" class="cls-13" d="M115.38,155.85l-.21-7.31"/><path id="path2569" class="cls-13" d="M69.63,156l-.21-3"/><path id="path2571" class="cls-13" d="M78.19,155.88,78,149.36"/><path id="path2575" class="cls-13" d="M74.74,179.71l23.08,41.72,23-41.51"/><path id="path2577" class="cls-13" d="M77.05,179.7l20.77,37.55,20.77-37.55"/><path id="path2579" class="cls-13" d="M79.53,179.67,87,193.32m21.67-.24L116,179.87M91.5,201.32l6.32,11.42,6.33-11.44"/><path id="path2584" class="cls-7" d="M111.48,146.71v10.15a13.66,13.66,0,0,1-27.32,0V146.71"/><path id="path2587" class="cls-13" d="M108.9,145.38v11.48a11.08,11.08,0,0,1-22.16,0V145.23"/><path id="path2597" class="cls-9" d="M105.13,157.8c.05,5.43-7.29,5.45-7.38,0L97.6,138a26.72,26.72,0,0,0,7.53,5.31Z"/><path id="path2599" class="cls-9" d="M97.89,157.8c0,5.43-7.28,5.45-7.38,0V143.32A89.47,89.47,0,0,0,97.89,138Z"/><path id="path2601" class="cls-9" d="M101.51,161.24c0,5.44-7.28,5.46-7.38,0V148.39h7.38Z"/><rect id="rect2757" class="cls-11" x="95.21" y="219.2" width="5.21" height="2.42" rx="1.04"/></g><g id="layer2"><path id="path3989" class="cls-14" d="M98,138.07c7.67,7.66,24,12.14,35.74,18.46,16.91,9.13,16,19.61,16,33.24l0,78.22H97.87"/><path id="path1478" class="cls-14" d="M97.79,138.07c-7.67,7.66-24,12.14-35.74,18.46-16.91,9.13-15.95,19.61-16,33.24l0,78.22H97.87"/></g><path id="_50117184-1" data-name=" 50117184-1" class="cls-10" d="M46.62,107.43a73.46,73.46,0,0,0,99.95,0V11.1H46.62Z"/><path id="path3826" class="cls-4" d="M46.62,82.7h.2c1.22-.06,2.92-1,4.85-2.17,3.11-1.82,6.73-3.93,11.12-3.9,3.83,0,6.39,1.65,9,3.27,2.25,1.43,4.51,2.86,7.63,2.8s4.87-1.35,6.79-2.67c2.4-1.64,4.84-3.31,9.18-3.4s7.05,1.64,9.73,3.34c2.19,1.4,4.36,2.78,7.4,2.73s4.94-1.31,6.89-2.61c2.43-1.61,4.9-3.26,9.34-3.33,4.63-.08,7.56,1.75,10.32,3.47,2,1.26,4,2.46,6.33,2.47a11.73,11.73,0,0,0,1.21,0v6.06h-.64c-2.36,0-4.29-1.22-6.32-2.48-2.76-1.72-5.7-3.54-10.33-3.47-4.43.07-6.91,1.72-9.33,3.34-2,1.29-3.86,2.56-6.89,2.61s-5.21-1.34-7.41-2.73c-2.68-1.71-5.39-3.43-9.73-3.34S89.14,84.4,86.75,86c-1.93,1.33-3.82,2.62-6.8,2.68s-5.37-1.38-7.63-2.8c-2.56-1.63-5.12-3.25-8.95-3.27-4.4,0-8,2.08-11.13,3.89-1.93,1.12-3.62,2.11-4.85,2.17h-.77v-6Z"/><path id="path3824" class="cls-4" d="M46.62,107.43l.29.26H47c2-.1,4-1.27,6.33-2.61,2.76-1.61,6-3.48,9.48-3.46,2.89,0,5.06,1.4,7.23,2.77,2.67,1.69,5.34,3.38,9.42,3.31s6.25-1.64,8.58-3.24c2-1.37,4-2.77,7.4-2.84s5.65,1.4,7.92,2.84c2.6,1.66,5.18,3.29,9.19,3.24s6.3-1.59,8.65-3.15c2-1.36,4.12-2.74,7.59-2.8,3.67-.06,6.18,1.51,8.55,3s4.73,3,8,3l1,0,.27-.25v-5.19h-.64c-2.36,0-4.29-1.21-6.32-2.48-2.76-1.72-5.7-3.54-10.33-3.46-4.43.07-6.91,1.72-9.33,3.33-2,1.3-3.86,2.57-6.89,2.61s-5.21-1.33-7.41-2.73c-2.68-1.7-5.39-3.43-9.73-3.34s-6.78,1.76-9.17,3.4c-1.93,1.32-3.82,2.62-6.8,2.67s-5.37-1.38-7.63-2.8c-2.56-1.63-5.12-3.25-8.95-3.27-4.4,0-8,2.08-11.13,3.89-1.93,1.13-3.62,2.12-4.85,2.18h-.06c-.25,0-.49,0-.71,0v5.18Z"/><path id="_160033752" data-name=" 160033752" class="cls-4" d="M146.57,98.58V92.32h-.65c-3.3,0-5.6-1.45-8-3s-4.88-3-8.55-3c-3.47.06-5.55,1.44-7.59,2.8-2.34,1.56-4.64,3.09-8.64,3.15s-6.59-1.58-9.2-3.23c-2.27-1.45-4.57-2.91-7.92-2.84s-5.39,1.46-7.4,2.83C86.26,90.69,84,92.26,80,92.33s-6.75-1.62-9.41-3.3c-2.18-1.38-4.35-2.75-7.24-2.77-3.51,0-6.72,1.85-9.47,3.45-2.29,1.34-4.31,2.51-6.34,2.62h-.11q-.42,0-.81,0v6.26h.77c1.23-.06,2.92-1,4.85-2.17,3.11-1.81,6.73-3.92,11.13-3.89,3.83,0,6.39,1.64,8.95,3.27,2.26,1.42,4.52,2.85,7.63,2.8s4.87-1.35,6.8-2.67c2.39-1.65,4.83-3.32,9.17-3.4s7,1.64,9.73,3.34c2.2,1.39,4.37,2.77,7.41,2.73S118,97.27,120,96c2.42-1.62,4.9-3.26,9.33-3.34,4.63-.07,7.57,1.75,10.33,3.47,2,1.27,4,2.46,6.32,2.48Z"/><path id="_160033320" data-name=" 160033320" class="cls-15" d="M135.58,65.51h-78c7.19,5.22,15.11,9,24.28,8.26,8-.63,12.57-3.66,14.71-7.79,2.13,4.13,6.68,7.16,14.7,7.79,9.17.73,17.09-3,24.28-8.26Z"/><path id="_160034136" data-name=" 160034136" class="cls-15" d="M96.6,50.52a36,36,0,0,1,1.86-4.94A46.83,46.83,0,0,0,96.6,40a45.15,45.15,0,0,0-1.87,5.54A37.39,37.39,0,0,1,96.6,50.52Z"/><path id="_159703344" data-name=" 159703344" class="cls-3" d="M96.14,39a58.92,58.92,0,0,0-2.78-6.18,58.62,58.62,0,0,0-2.57,6.12,58.23,58.23,0,0,1,3.46,5.53A50.71,50.71,0,0,1,96.14,39Z"/><path id="_159703128" data-name=" 159703128" class="cls-3" d="M83.07,56.45c-3.22-8.13-3.64-18.69-2.52-27.8a78.56,78.56,0,0,1,8.77,10.11A33.26,33.26,0,0,0,87.14,52.4c.41,4.6,3.35,8.07,7.49,7-.66.62-.1.71-2.35,1.53S84.47,60.25,83.07,56.45Z"/><path id="_159702384" data-name=" 159702384" class="cls-3" d="M93.14,30.21c-1.17-1.94-2.39-3.79-3.61-5.48a77.2,77.2,0,0,0-2.06,9.49c.81,1,1.61,2.06,2.37,3.13A62,62,0,0,1,93.14,30.21Zm8,22.26a7.13,7.13,0,0,0,0-1.79C101.14,51.29,101.13,51.88,101.11,52.47Z"/><path id="_160035048" data-name=" 160035048" class="cls-3" d="M78.63,42.38a83.72,83.72,0,0,0-8.43-6C72.05,48.9,75.12,55.62,80.41,60,82.92,62,87.16,63,90,61.74A9,9,0,0,1,82,57c-2.15-4-3.06-9.24-3.36-14.62Z"/><path id="_159703440" data-name=" 159703440" class="cls-3" d="M90.22,40.16a49.71,49.71,0,0,1,5.46,10.08c.23.6.61,1.48.8,2.09a11.33,11.33,0,0,0-.11,3.91c-.37,2.26-3,3.14-5.05,1.92a7.16,7.16,0,0,1-3-6.11,44.49,44.49,0,0,1,1.88-11.89Z"/><path id="_159703656" data-name=" 159703656" class="cls-3" d="M97.05,39a58.92,58.92,0,0,1,2.78-6.18,58.62,58.62,0,0,1,2.57,6.12,58.23,58.23,0,0,0-3.46,5.53A50.71,50.71,0,0,0,97.05,39Z"/><path id="_160109872" data-name=" 160109872" class="cls-3" d="M110.12,56.45c3.22-8.13,3.64-18.69,2.52-27.8a78.56,78.56,0,0,0-8.77,10.11,33.26,33.26,0,0,1,2.18,13.64c-.41,4.6-3.35,8.07-7.49,7,.66.62.1.71,2.36,1.53s7.8-.7,9.2-4.5Z"/><path id="_159703848" data-name=" 159703848" class="cls-3" d="M96.6,37.52a53.61,53.61,0,0,1,3.17-7,80.12,80.12,0,0,0-3.17-8,77.76,77.76,0,0,0-3.18,8A55,55,0,0,1,96.6,37.52Z"/><path id="_160110304" data-name=" 160110304" class="cls-3" d="M100.05,30.21c1.17-1.94,2.39-3.79,3.62-5.48a79.12,79.12,0,0,1,2,9.49c-.81,1-1.61,2.06-2.37,3.13A62,62,0,0,0,100.05,30.21Z"/><path id="_160136120" data-name=" 160136120" class="cls-3" d="M114.56,42.38a83.72,83.72,0,0,1,8.43-6c-1.85,12.5-4.92,19.22-10.21,23.56-2.51,2.06-6.75,3-9.55,1.78a9,9,0,0,0,8-4.74c2.15-4,3.06-9.24,3.36-14.62Z"/><path id="_159703368" data-name=" 159703368" class="cls-3" d="M96.6,58.11a7,7,0,0,0,4.5,5.52l.07,0H92l.07,0a7,7,0,0,0,4.51-5.52Z"/><path id="_160110016" data-name=" 160110016" class="cls-3" d="M103,40.16a49.71,49.71,0,0,0-5.46,10.08c-.23.6-.61,1.48-.8,2.09a11.33,11.33,0,0,1,.11,3.91c.37,2.26,3,3.14,5.05,1.92a7.16,7.16,0,0,0,3-6.11A44.49,44.49,0,0,0,103,40.16Z"/><path class="cls-4" d="M80,99.63c-12.64,0-22.89,10.17-22.89,30.51C57.11,155.57,75.33,181,97.8,181s40.68-25.43,40.68-50.86c0-20.34-10.24-30.51-22.88-30.51a22.86,22.86,0,0,0-17.8,8.5A22.89,22.89,0,0,0,80,99.63Zm0,0"/><rect class="cls-4" x="24.97" y="112.84" width="145.64" height="54.95" rx="5.46"/><text class="cls-16" transform="translate(72.67 161.59)">Płock</text><text class="cls-16" transform="translate(44.99 136.57)">Navapołack</text><path class="cls-4" d="M150.57,0l29,0h16l0,16q0,10.48,0,21A29.09,29.09,0,0,1,150.57,0Z"/><text class="cls-17" transform="translate(159.63 31.75)">36</text></svg>