<svg id="Слой_1" data-name="Слой 1" xmlns="http://www.w3.org/2000/svg" xmlns:xlink="http://www.w3.org/1999/xlink" viewBox="0 0 195.59 280.63"><defs><style>.cls-1,.cls-10,.cls-19{fill:#424242;}.cls-2{fill:#a91916;}.cls-10,.cls-11,.cls-14,.cls-15,.cls-18,.cls-2,.cls-3{fill-rule:evenodd;}.cls-21,.cls-3{fill:#3d82c3;}.cls-13,.cls-3{stroke:#fff;}.cls-3{stroke-width:1.46px;}.cls-4{fill:#e30d13;}.cls-5{fill:url(#Безымянный_градиент_2);}.cls-6{fill:url(#Безымянный_градиент_2-2);}.cls-7{fill:url(#Безымянный_градиент_4);}.cls-8{fill:#fbba10;}.cls-9{fill:url(#Безымянный_градиент_4-2);}.cls-11,.cls-12,.cls-22{fill:#fff;}.cls-13{fill:none;stroke-width:1.22px;}.cls-14{fill:#029340;}.cls-15{fill:#86bd31;}.cls-16,.cls-18{fill:#ba9850;}.cls-17{fill:#e52521;}.cls-19{font-size:24.77px;}.cls-19,.cls-22{font-family:Impact;}.cls-20{letter-spacing:0.02em;}.cls-22{font-size:20px;}</style><linearGradient id="Безымянный_градиент_2" x1="-291.1" y1="478.29" x2="-291.57" y2="477.85" gradientTransform="matrix(-3.54, 0, 0, 3.54, -929.02, -1463.43)" gradientUnits="userSpaceOnUse"><stop offset="0" stop-color="#f4e600"/><stop offset="1" stop-color="#fbba10"/></linearGradient><linearGradient id="Безымянный_градиент_2-2" x1="-258.46" y1="391.8" x2="-258.81" y2="392.24" gradientTransform="matrix(-4.87, 0, 0, 4.87, -1152.73, -1671.82)" xlink:href="#Безымянный_градиент_2"/><radialGradient id="Безымянный_градиент_4" cx="-476.83" cy="359.4" r="4.05" gradientTransform="translate(1400.64 -818.73) scale(2.77)" xlink:href="#Безымянный_градиент_2"/><radialGradient id="Безымянный_градиент_4-2" cx="-195.45" cy="359.4" r="4.05" gradientTransform="matrix(-2.77, 0, 0, 2.77, -425.09, -818.73)" xlink:href="#Безымянный_градиент_2"/></defs><rect class="cls-1" x="-9.21" y="-8.4" width="214.01" height="297.89"/><g id="layer1"><path id="path3029" class="cls-2" d="M71,203a2,2,0,0,1-2-2v-2a2,2,0,0,1,2-2h2V203Zm0-7.93a4,4,0,0,0-4,4v2a4,4,0,0,0,4,4h4v-9.91ZM79,205H77v-9.91h2Zm4,0H81v-9.91h2l4,6.22v-6.22h2V205h-2l-4-6.22Zm29.73,0h-6v-2h4v-2h-4v-2h4v-2h-4v-2h6Zm7.93,0h-2v-7.93h-4v-2h6Zm-20.81-7.93h-2a3,3,0,1,0,0,5.95h2v-2h-2a1,1,0,1,1,0-2h2Zm-2,9.91a6.94,6.94,0,1,1,6.93-6.93A6.94,6.94,0,0,1,97.8,207Zm5-6.93a5,5,0,1,0-5,5A5,5,0,0,0,102.75,200Z"/><path id="щит" class="cls-3" d="M97.79,133.07c-3.41,5.84-8.74,9.37-15.17,11.74-12.52,4.61-26.34,5.62-34.5,17.89-4.77,7.16-6.36,16.15-5.92,26.31,4.15,4.37,6.83,11.24,6.83,19s-2.67,14.58-6.81,18.94v31.84a202.79,202.79,0,0,0,55.58,8,202.78,202.78,0,0,0,55.57-8V226.92c-4.14-4.36-6.81-11.23-6.81-18.94s2.68-14.6,6.83-19c.44-10.16-1.15-19.15-5.92-26.31-8.16-12.27-22-13.28-34.5-17.89-6.42-2.37-11.75-5.9-15.17-11.74Z"/><path id="_158253176" data-name=" 158253176" class="cls-1" d="M103.43,233.44l-1.72-.92c1.4-1.54,5-2.42,6.29-.15-1.7-.65-3.06-.16-4.57,1.07Z"/><path id="_48675496" data-name=" 48675496" class="cls-4" d="M107.46,232c-1.24-1.32-4.23-.69-5.33.53l1.4.56a4.41,4.41,0,0,1,3.93-1.09Z"/><path id="_158281688" data-name=" 158281688" class="cls-1" d="M106.08,230.87c-1.22-.06-3.3.19-4.27,1.42l-1.23.3-.73-1.34c1.87-1.91,4.36-2.53,6.23-.38Z"/><path id="_159040976" data-name=" 159040976" class="cls-5" d="M100.23,231.3l.52.95.8-.06c.7-1.24,2.84-1.48,3.81-1.59-1.66-1.46-3.73-.73-5.13.7Z"/><path id="_158281376" data-name=" 158281376" class="cls-1" d="M103.11,237.19l-2.76-4.89a4.5,4.5,0,0,1,4.05.82,2.47,2.47,0,0,0,3.36,0c.63,3.57-2.14,4.67-4.65,4.1Z"/><path id="_158281424" data-name=" 158281424" class="cls-6" d="M107.57,233.56a2.72,2.72,0,0,1-3.44-.33,4.14,4.14,0,0,0-3.24-.77l2.41,4.45a5.73,5.73,0,0,0,1.6.1h0a3,3,0,0,0,2.67-3.45Z"/><path id="_158221176" data-name=" 158221176" class="cls-1" d="M72.9,175.77a1.39,1.39,0,0,1-.62-1c-1.4-1-1.12-2.52-.24-3.69l.1.34a2.74,2.74,0,0,0,1.27,1.82,1.73,1.73,0,0,0,.1-.24,1.71,1.71,0,0,1,2.34,1.15,14.37,14.37,0,0,1,1.41.72l-.22-.27h0c-.38-.44-.68-.63-.77-1.32a1.78,1.78,0,0,1,.11-.92c-.71-1.32-.14-2.44,1.29-3.16-.17.84-.26,1.7.5,2.26l.06-.07a1.53,1.53,0,0,1,1.53.68,1.76,1.76,0,0,1,.13,1.76l.82,1.31c.55.87,1,1.14,1.87.4a1.59,1.59,0,0,1,2.83-.86,3.8,3.8,0,0,0,2.07-1.44,2.49,2.49,0,0,1-1,3.23c-.25,1.28-1.39,1.4-2.56,1.43-.62,0-1.24.36-.83,1l3,4.76L83.23,185l-3.64-5.42c-.83-1.24-2.44-1-3.7-.78-1,.14-2.66.52-3.46-.34-1.89,0-2.59-1.2-2.6-2.87a2.48,2.48,0,0,0,2.41.92,1.06,1.06,0,0,1,.66-.71Z"/><path id="_158295352-4" data-name=" 158295352-4" class="cls-7" d="M72.55,176.51a2.17,2.17,0,0,1,.11,1.73c.53.6,1.92.4,3.18.22s3.09-.45,4,.92l3.49,5.2,2.22-1.05-2.77-4.45c-.55-.88.22-1.47,1.08-1.5s2-.1,2.25-1.14a1.75,1.75,0,0,1-1-1.65,1.28,1.28,0,0,0-2.21.88c-1,.94-1.72.76-2.44-.38l-.92-1.46a1.46,1.46,0,0,0,0-1.59,1.22,1.22,0,0,0-1.11-.57,2.05,2.05,0,0,1-1.71.77,1.48,1.48,0,0,0-.1.79c.08.68.58,1,1,1.49a6,6,0,0,1,1,1.82l-.3.1a5.46,5.46,0,0,0-.49-1.08,11.46,11.46,0,0,0-2.14-1.19c-.27-.85-.94-1.45-1.85-1.13a2.51,2.51,0,0,1-1.17,1.39,1.1,1.1,0,0,0,.78,1,6.64,6.64,0,0,1,.92.31,16,16,0,0,1,2.09,1.09l-.32.18a12.61,12.61,0,0,0-1.89-1c-.51-.22-1.34-.51-1.61.25Z"/><path id="_48676072" data-name=" 48676072" class="cls-8" d="M72.37,178.12a1.93,1.93,0,0,0,0-1.34,2.86,2.86,0,0,1-2.13-.43,2,2,0,0,0,2.16,1.77Zm0-3.72a2.25,2.25,0,0,0,.94-.89A2.9,2.9,0,0,1,72,171.84a1.93,1.93,0,0,0,.38,2.56Zm4.28-2.28a1.6,1.6,0,0,0,1.33-.45,1.93,1.93,0,0,1-.7-1.85A1.72,1.72,0,0,0,76.61,172.12ZM85.42,175a1.36,1.36,0,0,0,.9,1.18,2.21,2.21,0,0,0,1-2.29A3.46,3.46,0,0,1,85.42,175Z"/><path id="_158207592" data-name=" 158207592" class="cls-1" d="M122.68,175.77a1.39,1.39,0,0,0,.62-1c1.4-1,1.12-2.52.24-3.69l-.09.34h0a2.74,2.74,0,0,1-1.27,1.82c0-.08-.07-.15-.1-.24a1.71,1.71,0,0,0-2.34,1.15,14.37,14.37,0,0,0-1.41.72l.22-.27h0c.39-.44.69-.63.77-1.32a1.68,1.68,0,0,0-.11-.92c.71-1.32.14-2.44-1.29-3.16.17.84.26,1.7-.49,2.26a.46.46,0,0,1-.07-.07,1.53,1.53,0,0,0-1.53.68,1.74,1.74,0,0,0-.12,1.76l-.83,1.31c-.55.87-1,1.14-1.86.4a1.59,1.59,0,0,0-2.84-.86,3.74,3.74,0,0,1-2.06-1.44,2.48,2.48,0,0,0,1,3.23c.24,1.28,1.38,1.4,2.55,1.43.62,0,1.24.36.83,1l-3,4.76,2.77,1.3,3.64-5.42c.83-1.24,2.45-1,3.71-.78,1,.14,2.65.52,3.45-.34,1.89,0,2.59-1.2,2.6-2.87a2.48,2.48,0,0,1-2.41.92,1.06,1.06,0,0,0-.66-.71Z"/><path id="_158281304" data-name=" 158281304" class="cls-8" d="M123.21,178.12a1.93,1.93,0,0,1,0-1.34,2.87,2.87,0,0,0,2.14-.43,2,2,0,0,1-2.17,1.77Zm.05-3.72a2.22,2.22,0,0,1-1-.89,2.9,2.9,0,0,0,1.32-1.67A1.94,1.94,0,0,1,123.26,174.4ZM119,172.12a1.61,1.61,0,0,1-1.33-.45,1.93,1.93,0,0,0,.7-1.85,1.71,1.71,0,0,1,.63,2.3ZM110.16,175a1.35,1.35,0,0,1-.9,1.18,2.21,2.21,0,0,1-1-2.29A3.5,3.5,0,0,0,110.16,175Z"/><path id="_158295352" data-name=" 158295352" class="cls-9" d="M123,176.51a2.17,2.17,0,0,0-.11,1.73c-.53.6-1.92.4-3.18.22s-3.09-.45-4,.92l-3.49,5.2L110,183.53l2.77-4.45c.55-.88-.22-1.47-1.08-1.5s-2-.1-2.25-1.14a1.73,1.73,0,0,0,1-1.65,1.28,1.28,0,0,1,2.21.88c1,.94,1.73.76,2.44-.38l.92-1.46a1.47,1.47,0,0,1,0-1.59,1.22,1.22,0,0,1,1.11-.57,2.06,2.06,0,0,0,1.72.77,1.49,1.49,0,0,1,.09.79c-.08.68-.58,1-1,1.49a5.8,5.8,0,0,0-1,1.82l.29.1a5.46,5.46,0,0,1,.49-1.08,11.46,11.46,0,0,1,2.14-1.19,1.43,1.43,0,0,1,1.85-1.13,2.51,2.51,0,0,0,1.17,1.39,1.1,1.1,0,0,1-.78,1,6.64,6.64,0,0,0-.92.31,16.7,16.7,0,0,0-2.09,1.09l.33.18a12.51,12.51,0,0,1,1.88-1c.51-.22,1.34-.51,1.61.25Z"/><path id="path40" class="cls-10" d="M103.53,227a1.2,1.2,0,0,0-.87-.63c.68-1.24,1-2.73,2.08-3.1a1.34,1.34,0,0,0-1-.73c1.36-1.26,2.38-3.71,4.29-3.52,1.41.14,2.39.87.92,2.06-1.66,1.35-2.42,3.64-.92,5.52a21.49,21.49,0,0,0,5.29,4.59c1.23.78,2.42,1.89,2.17,3.7a2.08,2.08,0,0,0,1.28-1.66c4.23,2.48,7.81,6.09,7.66,8.29a2.61,2.61,0,0,0,1.14-2.09c5.08,4.13,9.35,8.56,11.41,12.56.73,1.4,1.19,1.17,1.65.11,1.12-2.51.06-5.46-1.2-8a37.72,37.72,0,0,0-5.78-8.23,13.69,13.69,0,0,1,6.75,5.44c1,1.39,1.63.82,1.56-.51-.24-4.2-3.46-8.82-8.21-13.53a17.14,17.14,0,0,1,5.08,3.15c1.3,1.32,1.87.66,1.38-1-1.53-5.05-6-8.19-9.81-11.29a17.31,17.31,0,0,1,5.55,2.18c.79.51,1.44.66.84-1-1.46-4.07-5.86-6.34-10.76-8.09a10.15,10.15,0,0,1,3.84-.13c.94.14,1.52.16.46-1.25-2.3-3.09-7.2-3.71-12-4.55a17.72,17.72,0,0,1,5.72.12c.58.07.66-.32.16-.95-2.53-3.2-6.77-2.55-10.51-2.92.49-1.08,1.54-1.58,2-2.45-2.93-.42-5.77,1.16-8.8-.27-1.64-.78-1-4.16,1.14-3,2.34,1.2,4.06.78,5.33-1.35,1.53-2.58,2.71-5.72,4.1-6.09l-1-.65a4.75,4.75,0,0,1,2.37-2.05,4.09,4.09,0,0,0-2.49-.92,5.63,5.63,0,0,1,.31-2.17,10.94,10.94,0,0,0-3,.55,7.32,7.32,0,0,0-2.24-3.27,4.56,4.56,0,0,1-1,2.36,3.83,3.83,0,0,0-2-1.84,6.37,6.37,0,0,1-.35,2.71l-.83-.72a6.3,6.3,0,0,1-1.18,3.42c-1.19,1.34-1.94.52-2-.62,0-3.94.43-7.38,2.51-9.85a5.38,5.38,0,0,0-2.51-.45,14.59,14.59,0,0,1,6.53-6.54,10.51,10.51,0,0,0-3.22-1.33c2.54-1.64,6.85-1.49,10.68-.81-1.26-4.25-5.88-6.45-13.12-6.56a9.19,9.19,0,0,1,5.65-3.44c-1.29-2-5.33-2.62-8.81-1.52a8.48,8.48,0,0,1,3-2.73,15.78,15.78,0,0,1-5-9.82A15.78,15.78,0,0,1,92.74,152a8.48,8.48,0,0,1,3,2.73c-3.47-1.1-7.51-.51-8.81,1.52,2.21.47,4.57,1.65,5.65,3.44-7.24.11-11.86,2.31-13.12,6.56,3.83-.68,8.14-.83,10.68.81a10.51,10.51,0,0,0-3.22,1.33,14.59,14.59,0,0,1,6.53,6.54,5.43,5.43,0,0,0-2.51.45c2.09,2.47,2.52,5.91,2.51,9.85,0,1.14-.76,2-2,.62a6.3,6.3,0,0,1-1.18-3.42l-.83.72a6.37,6.37,0,0,1-.35-2.71,3.83,3.83,0,0,0-2,1.84,4.65,4.65,0,0,1-1-2.36A7.32,7.32,0,0,0,84,183.16a10.94,10.94,0,0,0-3-.55,5.82,5.82,0,0,1,.32,2.17,4.09,4.09,0,0,0-2.5.92,4.75,4.75,0,0,1,2.37,2.05c-.33.22-.66.44-1,.65,1.39.37,2.58,3.51,4.11,6.09,1.26,2.13,3,2.55,5.32,1.35,2.18-1.12,2.78,2.26,1.14,3-3,1.43-5.87-.15-8.8.27.42.87,1.47,1.37,2,2.45-3.75.37-8-.28-10.52,2.92-.5.63-.42,1,.16.95a17.73,17.73,0,0,1,5.72-.12c-4.83.84-9.73,1.46-12,4.55-1.06,1.41-.48,1.39.46,1.25a10.15,10.15,0,0,1,3.84.13c-4.9,1.75-9.3,4-10.76,8.09-.6,1.68,0,1.53.85,1a17.17,17.17,0,0,1,5.54-2.18c-3.85,3.1-8.28,6.24-9.81,11.29-.48,1.62.08,2.28,1.38,1a17.14,17.14,0,0,1,5.08-3.15c-4.75,4.71-8,9.33-8.21,13.53-.07,1.33.61,1.9,1.57.51a13.67,13.67,0,0,1,6.74-5.44,38.07,38.07,0,0,0-5.78,8.23c-1.26,2.5-2.32,5.45-1.2,8,.47,1.06.92,1.29,1.65-.11,2.06-4,6.33-8.43,11.41-12.56a2.61,2.61,0,0,0,1.14,2.09c-.15-2.2,3.43-5.81,7.66-8.29a2.08,2.08,0,0,0,1.28,1.66c-.25-1.8,1-2.92,2.17-3.7a21.49,21.49,0,0,0,5.29-4.59c1.5-1.89.74-4.17-.92-5.52-1.47-1.19-.5-2.15.92-2.06A3.44,3.44,0,0,1,91,222.59a1.27,1.27,0,0,0-1.16.38c.87.68.73,2.2,1,3.59a1.24,1.24,0,0,0-1,.32,2.92,2.92,0,0,1,.9,1.68c.81,2.65.44,5.28,2.19,7.49-1.53.95-2.54,2.19-2.33,3.93a9.61,9.61,0,0,1,5.37-.29c4.3,1,6.66-.64,8-2.57-1.18-.94-.89-1.88-1.37-3.12a4.86,4.86,0,0,0-2.56-2.84c1.6-1,2.5-3.89,3.55-4.16Z"/><circle id="circle42" class="cls-4" cx="101.17" cy="236" r="0.87"/><path id="path44" class="cls-11" d="M97.79,154.67a5.81,5.81,0,0,1,2.63-3.17A9,9,0,0,1,97.79,147a9,9,0,0,1-2.63,4.48A5.81,5.81,0,0,1,97.79,154.67Zm0,8.5c1.81-3.19,4.19-5.93,7.59-6.83-2.16-1.28-5.81-.21-7.59,2.23-1.91-2.31-5.11-3.38-7.59-2.23C93.69,157.29,96,160,97.79,163.17Zm0,2.37c4.36-4,11.41-5.32,15.6-1-6-.56-11.52.88-15.6,6.51-4.08-5.63-9.56-7.07-15.59-6.51C86.38,160.22,93.43,161.5,97.79,165.54Zm0,6.85c2.23-2.58,4.4-3.95,7.21-3.4a19.21,19.21,0,0,0-7.21,9.38A19.25,19.25,0,0,0,90.58,169C93.39,168.44,95.56,169.81,97.79,172.39Z"/><path id="path46" class="cls-12" d="M102.18,237a2.42,2.42,0,0,1-3-.2l.21-.6a2.06,2.06,0,0,0,2.57.34l.19.46Z"/><path id="path48" class="cls-13" d="M125.47,237a9,9,0,0,0-2.48-4,9,9,0,0,0,3.45-.49c.18-2-1.7-3.83-3-5.63,1.17-.6,2.62-1,3.39-2.23-1.31-2.62-3.28-2.89-5-3.87.86-1,1.88-1.79,2.11-3.39-1.25-1.45-3-1.57-4.68-2,.52-1.26,1.26-2.46,1-3.93-1.76-.85-3.11-.4-4.47-.38a9.1,9.1,0,0,0-.22-3.36,9.9,9.9,0,0,0-4.2.18,9.7,9.7,0,0,0-.38-3.46,4.77,4.77,0,0,0-4.42,1m10.26,26.23a2.08,2.08,0,0,0-.67-1.62,6.92,6.92,0,0,0,3-1.49,8.16,8.16,0,0,0-1.81-3.4c1-.51,2-.83,2.15-1.55-.31-1.09-1.59-2-2.9-2.88a6.32,6.32,0,0,0,.92-2.49c-1.12-1.08-2.25-.85-3.37-.88a6.61,6.61,0,0,0,.55-3.17,4.92,4.92,0,0,0-3-.57,8.17,8.17,0,0,0-.33-3.21,4.72,4.72,0,0,0-3.19.67,15,15,0,0,0-.65-2.81,3.07,3.07,0,0,0-2.59,2.12m.4,8a6.61,6.61,0,0,0-3.17,1.1,5.23,5.23,0,0,0-1.71-2.53c-1,.18-2,1.19-2.94,2a8.86,8.86,0,0,0-2.81-2,6.88,6.88,0,0,0-1.8,2.21,2.66,2.66,0,0,0-2-.74m11.51,4.78a2.5,2.5,0,0,0-1.85.47,6.69,6.69,0,0,0-1.61-1.57,6.21,6.21,0,0,0-2,1.42,4.3,4.3,0,0,0-1.72-1.33,5.72,5.72,0,0,0-1.67,1.45,2,2,0,0,0-1.41-.5m9.53,3.79a3.25,3.25,0,0,0-2,.57A6.9,6.9,0,0,0,98,226.34a6.13,6.13,0,0,0-1.82,1.33,4.86,4.86,0,0,0-1.72-1.2,5.77,5.77,0,0,0-1.68,1.46,1.15,1.15,0,0,0-1.08-.5M99,230.21a1.61,1.61,0,0,0-.74-.39c-.42.09-.84.62-1.26,1.21a4.26,4.26,0,0,0-1.86-.92A2.82,2.82,0,0,0,94,231.84m-15.2-.09a2,2,0,0,1,.68-1.61,7,7,0,0,1-3-1.5,8.09,8.09,0,0,1,1.82-3.39c-1-.52-2-.84-2.16-1.55.31-1.09,1.59-2,2.9-2.89a6.38,6.38,0,0,1-.92-2.48c1.13-1.09,2.25-.85,3.37-.89a6.83,6.83,0,0,1-.55-3.16,4.85,4.85,0,0,1,3-.57,8.62,8.62,0,0,1,.33-3.22,4.82,4.82,0,0,1,3.2.68,14.33,14.33,0,0,1,.64-2.82,3.07,3.07,0,0,1,2.59,2.12M70.11,237a9.09,9.09,0,0,1,2.48-4,8.82,8.82,0,0,1-3.45-.5c-.18-2,1.7-3.82,3-5.62-1.17-.6-2.62-1-3.38-2.24,1.3-2.61,3.27-2.88,5-3.87-.87-1-1.89-1.78-2.12-3.39,1.25-1.44,3-1.57,4.69-2-.53-1.26-1.27-2.46-1-3.93,1.76-.85,3.11-.39,4.48-.37a9.16,9.16,0,0,1,.21-3.37,10.06,10.06,0,0,1,4.2.18,9.9,9.9,0,0,1,.38-3.45,4.77,4.77,0,0,1,4.42,1m-6.64-17.24a6.31,6.31,0,0,1,1.84.05,5.92,5.92,0,0,1,1-2.65,7,7,0,0,1,2.79.22,6.23,6.23,0,0,1,.81-1.61m14.51,8.77a9.64,9.64,0,0,0-1.87-2.15,2.32,2.32,0,0,0-.95.81,17.19,17.19,0,0,0-2.72-2.47A12.4,12.4,0,0,0,95.11,192a3.23,3.23,0,0,0-1.24-.92,7.08,7.08,0,0,0-1.52,1.77m20.79-4.54a6.37,6.37,0,0,0-1.85.05,5.92,5.92,0,0,0-1-2.65,7,7,0,0,0-2.79.22,6.54,6.54,0,0,0-.8-1.61"/></g><g id="g1319"><path id="path1309" class="cls-11" d="M38.7,11.15H156.89c-.16,46.91-1.87,98.95-58.8,123.54C39.15,107.64,38.71,56.19,38.7,11.15Z"/><g id="g2440"><g id="g2217"><g id="g2208"><path id="path2194" class="cls-14" d="M98.05,35.26a9.54,9.54,0,0,0,.18,4.94c1.08,3.1.76,6.11.31,9.08l2.45.81c-.91-2.63.18-5.22-.46-7.42a21.66,21.66,0,0,1-1.42-7.41Z"/><path id="path2196" class="cls-14" d="M101,44.85c9.06,3.75,8.65-2.63,9.3-7.2A32.2,32.2,0,0,1,101,44.85Z"/><path id="path2198" class="cls-15" d="M101.06,44.75a26,26,0,0,0,8.47-6.46c-2.49,1.08-5.07-.12-7,1.17-2,1.9-1.36,4.73-1.61,5.34"/></g><path id="path2213" class="cls-14" d="M99,47.1A34.7,34.7,0,0,1,89.17,38C96.24,37.42,98.38,41.53,99,47.1Z"/><path id="path2215" class="cls-15" d="M89.07,38c2.81,3.14,5.06,6.38,9.84,9.15C90.49,47.79,89.82,41.68,89.07,38Z"/></g><path id="path2513" class="cls-16" d="M84.75,50.26c-4.22,6-5.81,7.26-7.64,10.33-4.83.07-15.62-9.9-14.37-18.88,1.41-10.1,11-13.12,16.78-15.92,8.29-6,6.59-7.7,7.47-10,3.23,1.3,2,10.16-3,15.18-1.92,1.94-9.25,6.73-6.21,13.21,1.54,3.3,4.7,4.53,7,6.07M113.5,52c1.8-.85,10-2.59,8.93-10-1.13-8-10.35-12.69-11.7-15-.65-1.08-2.49-8.89,1.06-10.25a11.57,11.57,0,0,0,7.82,9.9c6.26,2.39,13,5.69,16.06,13.43,3.62,9-3.52,17.38-11.23,20.37Z"/><path id="path2500" class="cls-17" d="M98.2,36.48c-2.55,4-7.79,0-6-4,.68-1.58,3.73-.25,4.38-1.3.55-.89-.3-1.13-1.54-.54-1.45.7-3.06.94-3.93,0-1.69-1.89-.42-6.44,2.88-6.51,2.1-.05,2.34,5.28,3.27,4.24s-2.87-3.16-1.69-5.35c.78-1.44,5.89-2.25,6.52,1.63.3,1.85-3.32,2.76-2,3.7,1.62,1.14.72-3.5,3.36-3.65,3.23-.19,5.67,5.43,2.07,7.3-2,1-3.79-2.32-4.11-.34s3.06-.83,4.06,2.25c.71,2.21-1.67,4.31-3,4.58a3.24,3.24,0,0,1-3.48-2c-.83-1.19,1.71-3.75-.17-3.74C97.53,32.68,98.87,35.47,98.2,36.48Zm1.92-6.55c-.42-1.66-2.7-1.44-2.53.55S100.5,31.44,100.12,29.93Z"/><path id="path1311" class="cls-12" d="M90.83,112.5c-6.18-6.61-1.58-7.14-1.44-10.38C90,100.27,84.16,86,82,84.8c-2.59-6.93-4.57-4.78-3.35-13.48.51-3.64-7.44-2.18-8.7-2.18-1,0-10.61-4-11-4.5-2.51-3.7,9.73-6.34,13.88-3.77,10.87-9.66,23.74-8.39,25.51-8.53,21-1.61,20.61,5.88,26.76,9.2,4.45-2,13.74,2.18,13.11,4.57-1.33,5-20.2,3.58-18.44,6.92,1.84,3.52-3.06,15.19-6,17l-4.18,12.54s4.15,5.47-2.66,11.18C106.15,114.24,95.14,116.28,90.83,112.5Z"/><path id="path2238" class="cls-10" d="M81.3,89.85c-3.36-1.47-2-6.65-4.26-9.27-3-2.41-2.4-5.84-1.83-9.28l-3.5.91c-7.35.5-9.28-7-15.21-6.24-2.25,0-2.51-3-1.06-4.71,7.69-4.35,12.83-4.46,16.88-2.74a19.2,19.2,0,0,1,10.5-9.59,45.68,45.68,0,0,0,7.6.31c4.24-2.35,8.15.79,11.26-.46,2-1.31,4.06-.86,6.09.15,11.78.65,16.55,5.9,17.79,9.59,5.65-.57,12.42,2.94,15.37,5.32a2.33,2.33,0,0,1-.46,4c-4.38-.43-9.65,7.78-15.35,6.14-1.37-.6-3.29-1.25-4.42-.67,1.12,5.66-.15,9-3,10.86a13.26,13.26,0,0,1-4.86,8.61c-.5,3.88-1.2,7.47-2.89,9.74.46,2.08,1.63,4.53,1.44,6.52-.16,1.75-1.77,2.13-2.21,3.37-8.39,7.67-18.48,4.35-23-1.16-6.83-6.38,2.56-6.31-1.53-12.84C82.74,96.19,84.52,91.64,81.3,89.85Zm-20-28.42c.4-2.12,10.5-1.86,11.43-.84,2.83.85.69,2.16-1,1.69a17,17,0,0,0-8.79-.64C62.06,62.14,60.8,61.71,61.25,61.43ZM78.56,60c.6,0,.81,2.47,1.35,2.78.52-.07,1.17-2,1.57-1.57.36.22.07,1-.53,2.12-.45.86-.78,2.32-1.47,2.07C78.58,63.5,77.52,61.64,78.56,60ZM93,52.23c-.56.09-.43,1-1.34,2.39-.79,1.17-1.35,2.35-.1,3.34.53.2.65-2.08,1.21-3.24C93.55,53.5,93.9,52.51,93,52.23ZM82.88,60.35c-.65.44-.87-.29-.75-.75A6.25,6.25,0,0,1,84.49,57c.54-.3.65,0,.75.52l.06,4.74H86l2.29-4.77c.34-.71,1-1.31,1.77-.13l2.25,5.23c.71,1.3-.07,1.65-.52.92a11,11,0,0,1-2.32-3.67c-.26-.74-.53-.52-.79-.42-1.1,1.4-2,5.16-3,5.17-2.26-.55-.72-5.83-2.06-5Zm10.9.59c-.43,1,.22,1.29.78.65,1.4-.64,2.19-4,4-5.53.31.58.64,1.13.1,3-1.31,2.14-1.63,3.51-1.05,3.4,2-.87,1.36-4,4.19-5.92.85-1,.12-1.86-.59-1.24l-.68.65c-.59.38-1.18.22-1.15-.42l.17-1.74c-.05-.45-.51-1.15-1.25.23C95.14,56.92,94.71,58.79,93.78,60.94ZM102,56.62c.72.31,0,2.2-.45,2.32C100.9,58.41,101.18,57.27,102,56.62Zm6.88-2.39c-.83.26-.81,2.21-.07,2.29C109.77,56.51,109.7,54.17,108.9,54.23Zm1.66-.13c-.37.25,0,.89.33,1.47.26.87.62,1.13,1,1s.31-.82-.33-1.47C111,54,110.77,53.93,110.56,54.1Zm-4.81-1.47c-1.09,1.19-.38,2.25-2,4.22C103,58,102.44,59,103,59.37c1,.74,2-1.91,3.14-2.75.26-1.25-.74-2,.13-3.54C106.23,52.58,106.06,52.43,105.75,52.63Zm1.8,5.53c.15,1.12-1,2.51-.42,2.78s1.55.17,1.6-1.74l-.29-1.5C107.92,57.57,107.74,57.86,107.55,58.16Zm15.94,5c.3-2.27,3.43-1.79,5.07-1.67,3.24.57,7.87,1.9,7.13,2.64-.06.38-.6.45-1.05,0a13.64,13.64,0,0,0-9-.33A1.4,1.4,0,0,1,123.49,63.11Zm-3.39,1.76c-1.33,0-1.18,4-3.4,5.07L115,71.36c-.88.63-.15,1.36.52.93C120,70.36,120.06,68.36,120.1,64.87ZM118,74l-2.09,1c.22,5-3.45,5-5.89,3.13l-1.08,2C113.65,83,118.29,82.07,118,74Zm-6.38,3.24a1.47,1.47,0,0,0,2.13.93,1.33,1.33,0,0,0,.89-1.53c0-.58-.26-.8-.85-.59Zm3.29-6.64c-.13-.77-1.07-.5-1.68-.15-2.42,2.5-1.92,3.08-1.87,4,.61.23,1.38,0,1.46-1.53C113.71,71.75,115.48,71.17,114.88,70.61Zm-4.59,2.72c-.79-.13-1.08.7-1.49,1.31s-1,1.54-.3,1.9c.31,0,.8-.7,1.3-1.49S110.77,73.65,110.29,73.33Zm-.49-1.64c-.88-.17-1.46.58-2,1.27-1.37,2.62-.64,2.92-.07,2.76C107.84,73.74,110.93,72.69,109.8,71.69Zm-3.65-.07c-.8.4-1,2.62-2.39,4.33a3.83,3.83,0,0,0-.37,3.43,18.87,18.87,0,0,1,.56,6.11c-.08.52.25,1,.74.45.55-1.12.87-2.67.23-6.15a3.48,3.48,0,0,1,.26-3.06C107,73.52,106.86,72.54,106.15,71.62ZM106.6,79a29.66,29.66,0,0,1-.23,7.23c-.5.56,0,.8.45.49.71-.44,1.61-5,.48-8C107.07,78.17,106.59,78.32,106.6,79Zm3.54,8.72a.48.48,0,0,1,.41.82l-2.43,1.68c-.83.26-1.36-.45-.78-1.19ZM106.37,90q-.65,4.45-.86,8.62c-.19,1-.73.92-.87.35-1.06-3.29-.46-7.24,1.17-9.12C106.08,89.62,106.39,89.31,106.37,90ZM109,91.69l-1.27,1.82c-.49.54-1.31.33-1-.63.91-1.58,1.87-2.73,3.25-2.28C110.24,91.1,109.73,91.6,109,91.69Zm-1.09,2.61c.73-.07.81.33.45.74a13.09,13.09,0,0,0-1.16,1.78c-.81,1.24-1.57.44-1.08-.55C106.66,95.6,107.13,94.59,107.86,94.3ZM78.51,72.63l2.4.81c-.74,3.59,2.57,5.61,5.84,3.41l1,2.16C83.21,81.86,76.79,79,78.51,72.63Zm3.87,2,2.42,1.41a.58.58,0,0,1,0,.93C82.59,78.36,81.28,75.76,82.38,74.67Zm-2.29-5.45c-.32-.42-1-.08-.69.67,2.62,5.23,8.26,2.67,9.93,8,.07,1.32,1.15,1.3,1.22.23C90.9,71.76,82.87,73.43,80.09,69.22Zm8.84,12.39c-.24-1.11.1-1.42.87-1.08.89,1,1.57,3.44.6,4C89.37,84.67,90.13,82.55,88.93,81.61Zm.55,3.71c.43.82-.65,1.26-.93.32,0-1.32-.81-1.77-.49-2.5C88.8,83.22,89.45,83.52,89.48,85.32ZM92,87.17c-2.72,3.34,1,8.57-.54,12-1,.24-1.34-2.29-2.29-1.58s-1,2.43-.33,2.67.66-1.39,1.31-.76A3.35,3.35,0,0,0,91.49,102c1.65-.2,1-2.24,1.44-3.47,1.14-4.12-1.32-7.26-.48-10.35A.84.84,0,0,0,92,87.17Zm5.3,16.38c1.93.85,6-1.57,8-.2.5.65.11.85-.45.86-2.3-.06-6.12,1.71-7.86-.08C96.53,103.63,96.93,103.39,97.28,103.55Zm-4.34,8.15c-.71-.07-1.34.74-.57,1.18,1,.68,3.7,1.37,3.93.5C96.33,112,94.06,112.35,92.94,111.7Zm10.11-3.07a1.46,1.46,0,0,1,.37-1.8c.88-.9,1.54-.51,1.47.24C104.31,107.82,103.44,109.14,103.05,108.63Zm4.17-2.5c-.64.47.16.78.78,1.15.31.67.59,1.47,1.11,1C109.59,107.58,109,105.23,107.22,106.13Zm-15-.41c-.65-.25-2.37.26-1.39-1.08.83-1.13,3.9.4,2.67,2.26C92.84,107.78,92.59,106.25,92.26,105.72Z"/><path id="path1317" class="cls-18" d="M107.31,107.36a11.36,11.36,0,0,1,1.94,6.37,11.13,11.13,0,1,1-22.26,0,11.38,11.38,0,0,1,2.77-7.46m0,0c1.84-1.09,3.41.41,2.46,2.1a7.93,7.93,0,1,0,12.56,1,1.62,1.62,0,0,1,2.53-2"/></g></g><rect class="cls-12" x="24.97" y="112.84" width="145.64" height="54.95" rx="5.46"/><path class="cls-12" d="M80,99.63c-12.64,0-22.89,10.17-22.89,30.51C57.11,155.57,75.33,181,97.8,181s40.68-25.43,40.68-50.86c0-20.34-10.24-30.51-22.88-30.51a22.86,22.86,0,0,0-17.8,8.5A22.89,22.89,0,0,0,80,99.63Zm0,0"/><text class="cls-19" transform="translate(55.79 137.99)">Chònice</text><text class="cls-19" transform="translate(68.07 162.7)">Ma<tspan class="cls-20" x="30.24" y="0">z</tspan><tspan x="39.48" y="0">yr</tspan></text><path class="cls-21" d="M45,0,16,0H.07l0,16c0,7,0,14,0,21A29.11,29.11,0,0,0,51.54,18.3,28.92,28.92,0,0,0,45,0Z"/><text class="cls-22" transform="translate(15.64 31.75)">34</text></svg>