<?xml version="1.0" encoding="utf-8"?>
<!-- Generator: Adobe Illustrator 26.0.1, SVG Export Plug-In . SVG Version: 6.00 Build 0)  -->
<svg version="1.1" id="Слой_1" xmlns="http://www.w3.org/2000/svg" xmlns:xlink="http://www.w3.org/1999/xlink" x="0px" y="0px"
	 viewBox="0 0 195.6 280.6" style="enable-background:new 0 0 195.6 280.6;" xml:space="preserve">
<style type="text/css">
	.st0{clip-path:url(#SVGID_00000028302546974627739640000015189933516060210307_);fill:#3A81C3;}
	.st1{clip-path:url(#SVGID_00000140694692253991449780000017197838849956752524_);}
	.st2{fill-rule:evenodd;clip-rule:evenodd;fill:#DC2D1A;}
	.st3{clip-path:url(#SVGID_00000144330963114280152470000015927954278600491672_);}
	.st4{fill-rule:evenodd;clip-rule:evenodd;fill:#FFFFFF;}
	.st5{fill:#FFFFFF;}
	.st6{clip-path:url(#SVGID_00000132808188300973893330000012308541583342843315_);}
	.st7{fill-rule:evenodd;clip-rule:evenodd;fill:#EAA518;}
	.st8{fill-rule:evenodd;clip-rule:evenodd;fill:#EAA518;stroke:#424242;stroke-width:0.75;stroke-miterlimit:10;}
	.st9{fill-rule:evenodd;clip-rule:evenodd;fill:#FFFFFF;stroke:#424242;stroke-width:0.75;stroke-miterlimit:10;}
	.st10{fill:#FFFFFF;stroke:#424242;stroke-width:0.75;stroke-miterlimit:10;}
	.st11{fill-rule:evenodd;clip-rule:evenodd;fill:#424242;}
	.st12{fill-rule:evenodd;clip-rule:evenodd;fill:#1D528D;}
	.st13{fill:#EAA518;stroke:#424242;stroke-width:0.75;stroke-miterlimit:10;}
	.st14{fill:#424242;}
	.st15{fill:none;stroke:#424242;stroke-width:0.75;stroke-miterlimit:10;}
	.st16{clip-path:url(#SVGID_00000125597129295817697320000016725839338432907957_);}
	.st17{fill:none;stroke:#FFFFFF;stroke-width:0.75;stroke-miterlimit:10;}
	
		.st18{clip-path:url(#SVGID_00000099658465551179851730000009499098664800148144_);fill-rule:evenodd;clip-rule:evenodd;fill:#1D528D;}
	.st19{clip-path:url(#SVGID_00000059305973521351386530000007333092550248576665_);fill:#FFFFFF;}
	.st20{clip-path:url(#SVGID_00000101805317381169789250000007443434083613907364_);fill:#FFFFFF;}
	.st21{clip-path:url(#SVGID_00000118396941881476399030000002967775713829698712_);fill:#FFFFFF;}
	
		.st22{clip-path:url(#SVGID_00000023266185876404650230000001862269897695402406_);fill-rule:evenodd;clip-rule:evenodd;fill:#FECA0D;}
	
		.st23{clip-path:url(#SVGID_00000060731332911630633040000009398841312138695842_);fill-rule:evenodd;clip-rule:evenodd;fill:#FECA0D;}
	
		.st24{clip-path:url(#SVGID_00000034782304910866807910000008942611863964920509_);fill-rule:evenodd;clip-rule:evenodd;fill:#FFFFFF;}
	
		.st25{clip-path:url(#SVGID_00000124152780989024973130000001398141686908282531_);fill-rule:evenodd;clip-rule:evenodd;fill:#FFFFFF;}
	
		.st26{clip-path:url(#SVGID_00000109728933926628370000000018096641594793911226_);fill-rule:evenodd;clip-rule:evenodd;fill:#FFFFFF;}
	
		.st27{clip-path:url(#SVGID_00000011733463429432528500000002645826363840958355_);fill-rule:evenodd;clip-rule:evenodd;fill:#FFFFFF;}
	
		.st28{clip-path:url(#SVGID_00000013162432462008309210000009115676423882877882_);fill-rule:evenodd;clip-rule:evenodd;fill:#FFFFFF;}
	
		.st29{clip-path:url(#SVGID_00000163033384700254940070000016605520859997554564_);fill-rule:evenodd;clip-rule:evenodd;fill:#FFFFFF;}
	
		.st30{clip-path:url(#SVGID_00000142869713815544678470000004703910383984636083_);fill-rule:evenodd;clip-rule:evenodd;fill:#FFFFFF;}
	
		.st31{clip-path:url(#SVGID_00000142144402826173309740000012822228024199647621_);fill-rule:evenodd;clip-rule:evenodd;fill:#FFFFFF;}
	
		.st32{clip-path:url(#SVGID_00000008117689036689448320000001405525046811448710_);fill-rule:evenodd;clip-rule:evenodd;fill:#FFFFFF;}
	
		.st33{clip-path:url(#SVGID_00000144331061169425062470000008397121733588721564_);fill-rule:evenodd;clip-rule:evenodd;fill:#FFFFFF;}
	
		.st34{clip-path:url(#SVGID_00000130608639519012662060000001935850008838985405_);fill-rule:evenodd;clip-rule:evenodd;fill:#FFFFFF;}
	
		.st35{clip-path:url(#SVGID_00000025423196076373796460000018419170141105879680_);fill-rule:evenodd;clip-rule:evenodd;fill:#FFFFFF;}
	.st36{clip-path:url(#SVGID_00000137130903509093681630000012153092528262699919_);fill:#FFFFFF;}
	.st37{clip-path:url(#SVGID_00000119830262619030946600000006297503990529703814_);fill:#FFFFFF;}
	.st38{clip-path:url(#SVGID_00000048460538516506845570000007608641462221946807_);fill:#FFFFFF;}
	.st39{enable-background:new    ;}
	.st40{fill:#1D528D;}
</style>
<g>
	<g>
		<defs>
			<rect id="SVGID_1_" width="195.6" height="280.6"/>
		</defs>
		<clipPath id="SVGID_00000113339556377981398460000007516494114366839171_">
			<use xlink:href="#SVGID_1_"  style="overflow:visible;"/>
		</clipPath>
		
			<rect x="-9.3" y="-8.4" style="clip-path:url(#SVGID_00000113339556377981398460000007516494114366839171_);fill:#3A81C3;" width="214" height="297.9"/>
	</g>
	<g>
		<defs>
			<rect id="SVGID_00000142156608753530996350000016815567274447735438_" width="195.6" height="280.6"/>
		</defs>
		<clipPath id="SVGID_00000009584365910555394050000004067757425051072420_">
			<use xlink:href="#SVGID_00000142156608753530996350000016815567274447735438_"  style="overflow:visible;"/>
		</clipPath>
		<g id="layer5" style="clip-path:url(#SVGID_00000009584365910555394050000004067757425051072420_);">
			<path id="path1481" class="st2" d="M97.8,141c-7.7-7.7-24-12.1-35.7-18.5c-16.9-9.1-16-19.6-16-33.2V11.1h51.8
				C105.4,75.1,104.6,134.2,97.8,141z"/>
			<path id="path1483" class="st2" d="M98,141c7.7-7.7,24-12.1,35.7-18.5c16.9-9.1,16-19.6,16-33.2V11.1H97.9"/>
		</g>
	</g>
	<g>
		<defs>
			<rect id="SVGID_00000069396050270205241300000009279506388812583571_" width="195.6" height="280.6"/>
		</defs>
		<clipPath id="SVGID_00000039112309358288962260000000462414181710442392_">
			<use xlink:href="#SVGID_00000069396050270205241300000009279506388812583571_"  style="overflow:visible;"/>
		</clipPath>
		<g id="layer4" style="clip-path:url(#SVGID_00000039112309358288962260000000462414181710442392_);">
			<path id="path2505" class="st4" d="M46.6,101.8h102.5c1.1,22.3-40,27.3-51.2,39.1C87.2,130.2,45.9,124.1,46.6,101.8z"/>
			<g id="g2749">
				<path id="path2509" class="st4" d="M97.4,58.4l-25.7,46.4h28.8C99.6,89.2,102.2,60.1,97.4,58.4z"/>
				<path id="path2512" class="st4" d="M97.9,57.4l26.3,47.4H95.4C96.4,89.3,92.7,80.5,97.9,57.4z"/>
			</g>
			<rect id="rect2514" x="58.7" y="99.1" class="st5" width="7.1" height="5.9"/>
			<rect id="rect2520" x="129.9" y="99.2" class="st5" width="7.2" height="5.5"/>
			<rect id="rect2753" x="119.1" y="96.3" class="st5" width="14.4" height="9.8"/>
			<rect id="rect2755" x="62.3" y="95.9" class="st5" width="14.1" height="7.2"/>
		</g>
	</g>
	<g>
		<defs>
			<rect id="SVGID_00000098182637175034390830000017711595325761944751_" width="195.6" height="280.6"/>
		</defs>
		<clipPath id="SVGID_00000145025102059742498470000002004703192250888873_">
			<use xlink:href="#SVGID_00000098182637175034390830000017711595325761944751_"  style="overflow:visible;"/>
		</clipPath>
		<g id="layer3" style="clip-path:url(#SVGID_00000145025102059742498470000002004703192250888873_);">
			<g id="g3751">
				<path id="rect3705" class="st7" d="M98.6,41.9v15.8c-0.5-0.2-1.6,0.3-1.5-0.4V41.9H98.6z"/>
				<path id="rect2830" class="st7" d="M92.4,46.7h11.2c-0.1,0.5,0.3,1.5-0.3,1.5H92.4V46.7z"/>
				<g id="g2802">
					<path id="path2776" class="st8" d="M98.6,41.9c0.8,0.1,1.8-0.3,2.4,0.3c0.3,0.4,0.1,0.9-0.2,1.2c-0.2,0.1-0.5,0.2-0.8,0.1h-1.4
						"/>
					<path id="path2778" class="st8" d="M97.3,43.5c-0.8-0.1-1.8,0.3-2.4-0.3c-0.5-0.9,0.4-1.5,1.2-1.3h2.7"/>
					<path id="path2780" class="st8" d="M98.7,43.2v3.7 M97.1,57.7c0-3.2,0-6.5,0-9.8 M98.6,48v9.7 M97.2,46.8v-3.5"/>
				</g>
				<path id="path2812" class="st8" d="M103.5,48.1c-0.1,0.8,0.3,1.8-0.3,2.5c-0.4,0.3-0.9,0.2-1.2-0.2c-0.2-0.3-0.2-0.6-0.1-0.9
					v-1.4"/>
				<path id="path2814" class="st8" d="M102,46.9c0.1-0.8-0.3-1.9,0.3-2.5c0.4-0.3,0.9-0.1,1.2,0.3c0.2,0.2,0.2,0.5,0.1,0.8
					c0,1.1,0,2.2,0,3.3"/>
				<path id="path2816" class="st8" d="M102.1,48.2h-3.5 M98.6,46.7l3.6,0.1"/>
				<path id="path2822" class="st8" d="M92.3,48.1c0.1,0.8-0.3,1.8,0.3,2.5c0.4,0.3,0.9,0.2,1.2-0.2c0.2-0.3,0.2-0.6,0.1-0.9v-1.4"
					/>
				<path id="path2824" class="st8" d="M93.9,46.8c-0.1-0.8,0.3-1.8-0.3-2.5c-0.9-0.5-1.5,0.4-1.3,1.3v2.9"/>
				<path id="path2826" class="st8" d="M93.8,48.2h3.6 M97.3,46.7l-3.6,0.1"/>
			</g>
			<g id="g2646">
				<path id="rect2611" class="st9" d="M62.2,99.3V52.8h14.3v43.9"/>
				<path id="rect2617" class="st10" d="M62.1,68.7h14.4c0.6,0,1,0.5,1,1v0.8c0,0.6-0.5,1-1,1H62.1c-0.6,0-1-0.5-1-1v-0.8
					C61.1,69.2,61.5,68.7,62.1,68.7z"/>
				<path id="rect2619" class="st10" d="M62.1,74.5h14.4c0.6,0,1,0.5,1,1v0.8c0,0.6-0.5,1-1,1H62.1c-0.6,0-1-0.5-1-1v-0.8
					C61.1,74.9,61.5,74.5,62.1,74.5z"/>
				<path id="rect2621" class="st10" d="M62.1,80.2h14.4c0.6,0,1,0.5,1,1V82c0,0.6-0.5,1-1,1H62.1c-0.6,0-1-0.5-1-1v-0.8
					C61.1,80.7,61.5,80.2,62.1,80.2z"/>
				<g id="g2625">
					<path id="rect2593" class="st11" d="M64.2,57.9c0-3.3,4.4-3.3,4.5,0v7.9h-4.3L64.2,57.9z"/>
					<path id="path2623" class="st11" d="M69.9,57.9c0-3.3,4.4-3.3,4.5,0v7.9h-4.3L69.9,57.9z"/>
				</g>
				<g id="g2629">
					<path id="path2631" class="st11" d="M64.2,87c0-3.3,4.4-3.3,4.5,0v7.9h-4.3L64.2,87z"/>
					<path id="path2633" class="st11" d="M69.9,87c0-3.3,4.4-3.3,4.5,0v7.9h-4.3L69.9,87z"/>
				</g>
				<path id="path2635" class="st9" d="M62.1,53.7l-2-4.1h18.4l-2,4.1H62.1z"/>
				<path id="path2637" class="st12" d="M59.9,49.6L69.3,28l9.4,21.6H59.9z"/>
				<path id="rect2639" class="st13" d="M68.8,26.7h1c0.6,0,1,0.5,1,1v0.1c0,0.6-0.5,1-1,1h-1c-0.6,0-1-0.5-1-1v-0.1
					C67.8,27.2,68.2,26.7,68.8,26.7z"/>
			</g>
			<g id="g2661">
				<path id="rect2663" class="st9" d="M119.4,96.2V52.8h14.2v46.4"/>
				<path id="rect2665" class="st10" d="M119.3,68.7h14.4c0.6,0,1,0.5,1,1v0.8c0,0.6-0.5,1-1,1h-14.4c-0.6,0-1-0.5-1-1v-0.8
					C118.3,69.2,118.8,68.7,119.3,68.7z"/>
				<path id="rect2667" class="st10" d="M119.3,74.5h14.4c0.6,0,1,0.5,1,1v0.8c0,0.6-0.5,1-1,1h-14.4c-0.6,0-1-0.5-1-1v-0.8
					C118.3,74.9,118.8,74.5,119.3,74.5z"/>
				<path id="rect2669" class="st10" d="M119.3,80.2h14.4c0.6,0,1,0.5,1,1V82c0,0.6-0.5,1-1,1h-14.4c-0.6,0-1-0.5-1-1v-0.8
					C118.3,80.7,118.8,80.2,119.3,80.2z"/>
				<g id="g2671">
					<path id="path2673" class="st11" d="M121.5,57.9c0-3.3,4.4-3.3,4.5,0v7.9h-4.3L121.5,57.9z"/>
					<path id="path2675" class="st11" d="M127.2,57.9c0-3.3,4.4-3.3,4.5,0v7.9h-4.3L127.2,57.9z"/>
				</g>
				<g id="g2677">
					<path id="path2679" class="st11" d="M121.5,87c0-3.3,4.4-3.3,4.5,0v7.9h-4.3L121.5,87z"/>
					<path id="path2681" class="st11" d="M127.2,87c0-3.3,4.4-3.3,4.5,0v7.9h-4.3L127.2,87z"/>
				</g>
				<path id="path2683" class="st9" d="M119.3,53.7l-2-4.1h18.5l-2.1,4.1H119.3z"/>
				<path id="path2685" class="st12" d="M117.2,49.6l9.4-21.6l9.4,21.6H117.2z"/>
				<path id="rect2687" class="st13" d="M126,26.7h1c0.6,0,1,0.5,1,1v0.1c0,0.6-0.5,1-1,1h-1c-0.6,0-1-0.5-1-1v-0.1
					C125,27.2,125.4,26.7,126,26.7z"/>
			</g>
			<g id="g2491">
				<path id="path2428" class="st10" d="M97.8,78.6c-1.6,0.1-3.2,0.9-3.2,2.5c-1.4-0.8-3,0.2-3.8,1.7s-1,3.2,0.4,4
					c-1.4,0.9-1.3,2.8-0.4,4.2s2.2,2.3,3.7,1.6c0.1,1.6,1.8,2.6,3.4,2.6s3.2-0.8,3.2-2.5c1.4,0.8,3.1-0.2,3.9-1.7s0.7-3.2-0.7-4.1
					c1.4-0.9,1.5-2.7,0.7-4.1s-2.3-2.3-3.7-1.6C101.3,79.6,99.5,78.6,97.8,78.6L97.8,78.6z"/>
				<path id="path2360" class="st14" d="M96.3,87.7c0.7,1.3,0.3,2.9-1,3.6s-2.9,0.3-3.6-1s-0.3-2.9,1-3.6C94,86,95.6,86.4,96.3,87.7
					L96.3,87.7z"/>
				<path id="path2362" class="st14" d="M104.1,83.2c0.7,1.3,0.3,2.9-1,3.6s-2.9,0.3-3.6-1s-0.3-2.9,1-3.6
					C101.7,81.5,103.3,82,104.1,83.2C104,83.2,104,83.2,104.1,83.2z"/>
				<path id="path2394" class="st14" d="M97.9,88.6c1.5,0,2.6,1.2,2.6,2.6c0,1.5-1.2,2.6-2.6,2.6s-2.6-1.2-2.6-2.6l0,0
					C95.3,89.8,96.4,88.6,97.9,88.6z"/>
				<path id="path2396" class="st14" d="M97.9,79.7c1.5,0,2.6,1.2,2.6,2.6c0,1.5-1.2,2.6-2.6,2.6s-2.6-1.2-2.6-2.6l0,0
					C95.3,80.9,96.4,79.7,97.9,79.7z"/>
				<path id="path2400" class="st14" d="M99.5,87.7c-0.7,1.3-0.3,2.9,1,3.6s2.9,0.3,3.6-1s0.3-2.9-1-3.6
					C101.8,86,100.2,86.4,99.5,87.7L99.5,87.7z"/>
				<path id="path2402" class="st14" d="M91.8,83.2c-0.7,1.3-0.3,2.9,1,3.6s2.9,0.3,3.6-1s0.3-2.9-1-3.6
					C94.2,81.5,92.6,81.9,91.8,83.2L91.8,83.2z"/>
				<path id="path2406" class="st14" d="M97.9,84.2c1.5,0,2.6,1.2,2.6,2.6s-1.2,2.6-2.6,2.6c-1.5,0-2.6-1.2-2.6-2.6l0,0
					C95.3,85.3,96.4,84.2,97.9,84.2z"/>
			</g>
			<path id="path2487" class="st15" d="M91.7,77.8c1.8-1.3,4-1.9,6.2-1.9c2.4-0.1,4.7,0.6,6.6,2.1 M108.7,85.9c0,0.3,0,0.6,0,0.9
				c0,6-4.9,10.9-10.9,10.9s-10.9-4.9-10.9-10.9c0-0.3,0-0.6,0.1-0.9"/>
			<path id="path2489" class="st15" d="M107.8,86.8c0,5.5-4.5,10-10,10s-10-4.5-10-10l0,0c0-5.5,4.5-10,10-10S107.8,81.3,107.8,86.8
				z"/>
			<path id="path2530" class="st15" d="M47.8,106.2h100.7"/>
			<path id="path2532" class="st15" d="M48.2,108.3h99.4"/>
			<path id="path2534" class="st15" d="M53,115.8h89.9"/>
			<path id="path2536" class="st15" d="M64,123.3h68"/>
			<path id="path2538" class="st15" d="M46.5,102h12.2v-2.8h7.1v2.8h7.1v-2.8H80v2.8h7.1v-2.8h7.1v2.8h7.1v-2.8h7.1v2.8h7.1v-2.8
				h7.1v2.8h7.1v-2.8h7.1v2.8h12.1"/>
			<path id="path2540" class="st15" d="M62.2,108.3l0.2,7.3"/>
			<path id="path2543" class="st15" d="M134.6,108.3l0.2,7.3"/>
			<path id="path2545" class="st15" d="M126,108.3l0.2,7.3"/>
			<path id="path2547" class="st15" d="M117.4,108.3l0.2,7.3"/>
			<path id="path2549" class="st15" d="M71.2,108.3l0.2,7.3"/>
			<path id="path2551" class="st15" d="M80.1,108.3l0.2,7.3"/>
			<path id="path2553" class="st15" d="M89.1,108.3l0.2,7.3"/>
			<path id="path2555" class="st15" d="M108.9,108.3l0.2,7.3"/>
			<path id="path2557" class="st15" d="M66.7,115.9l0.2,7.3"/>
			<path id="path2559" class="st15" d="M75.6,115.9l0.2,7.3"/>
			<path id="path2561" class="st15" d="M121.7,115.8l0.2,7.3"/>
			<path id="path2563" class="st15" d="M130.3,115.7l0.2,7.3"/>
			<path id="path2565" class="st15" d="M71.4,123.1l0.2,3.8"/>
			<path id="path2567" class="st15" d="M80.4,123.2l0.2,7.3"/>
			<path id="path2569" class="st15" d="M126.1,123.1l0.2,3"/>
			<path id="path2571" class="st15" d="M117.6,123.2l0.2,6.5"/>
			<path id="path2575" class="st15" d="M121,99.4L97.9,57.7L75,99.2"/>
			<path id="path2577" class="st15" d="M118.7,99.4L97.9,61.8L77.2,99.4"/>
			<path id="path2579" class="st15" d="M116.2,99.4l-7.5-13.7 M87.1,86l-7.3,13.2 M104.2,77.8l-6.3-11.4l-6.3,11.4"/>
			<path id="path2584" class="st9" d="M84.3,132.4v-10.2c-0.2-7.5,5.7-13.8,13.3-14c7.5-0.2,13.8,5.7,14,13.3c0,0.2,0,0.5,0,0.7
				v10.2"/>
			<path id="path2587" class="st15" d="M86.8,133.7v-11.5c0-6.1,5-11.1,11.1-11.1s11.1,5,11.1,11.1v11.6"/>
			<path id="path2597" class="st11" d="M90.6,121.3c-0.1-5.4,7.3-5.5,7.4,0l0.2,19.8c-2.2-2.2-4.7-4-7.5-5.3L90.6,121.3L90.6,121.3z
				"/>
			<path id="path2599" class="st11" d="M97.8,121.3c0-5.4,7.3-5.5,7.4,0v14.5c-2.5,1.6-5,3.4-7.4,5.3V121.3z"/>
			<path id="path2601" class="st11" d="M94.2,117.8c0-5.4,7.3-5.4,7.4,0v12.9h-7.4V117.8z"/>
			<path id="rect2757" class="st13" d="M96.4,57.5h3.1c0.6,0,1,0.5,1,1v0.3c0,0.6-0.5,1-1,1h-3.1c-0.6,0-1-0.5-1-1v-0.3
				C95.3,57.9,95.8,57.5,96.4,57.5z"/>
		</g>
	</g>
	<g>
		<defs>
			<rect id="SVGID_00000099663035315235461620000012651075180324498050_" width="195.6" height="280.6"/>
		</defs>
		<clipPath id="SVGID_00000025441336534440173300000011434526588324746134_">
			<use xlink:href="#SVGID_00000099663035315235461620000012651075180324498050_"  style="overflow:visible;"/>
		</clipPath>
		<g id="layer2" style="clip-path:url(#SVGID_00000025441336534440173300000011434526588324746134_);">
			<path id="path3989" class="st17" d="M97.8,141c-7.7-7.7-24-12.1-35.7-18.5c-16.9-9.1-16-19.6-16-33.2V11.1h51.8"/>
			<path id="path1478" class="st17" d="M98,141c7.7-7.7,24-12.1,35.7-18.5c16.9-9.1,16-19.6,16-33.2V11.1H97.9"/>
		</g>
	</g>
	<g>
		<defs>
			<rect id="SVGID_00000136387046664690762510000007550470111803703193_" width="195.6" height="280.6"/>
		</defs>
		<clipPath id="SVGID_00000050651072653582685980000012857760631826075071_">
			<use xlink:href="#SVGID_00000136387046664690762510000007550470111803703193_"  style="overflow:visible;"/>
		</clipPath>
		
			<path id="_50117184-1" style="clip-path:url(#SVGID_00000050651072653582685980000012857760631826075071_);fill-rule:evenodd;clip-rule:evenodd;fill:#1D528D;" d="
			M147.9,171.7c-28.2-26.2-71.8-26.2-100,0V268h100V171.7z"/>
	</g>
	<g>
		<defs>
			<rect id="SVGID_00000007394553780674430990000011571955740825070782_" width="195.6" height="280.6"/>
		</defs>
		<clipPath id="SVGID_00000075163771000969767140000005249096715149019790_">
			<use xlink:href="#SVGID_00000007394553780674430990000011571955740825070782_"  style="overflow:visible;"/>
		</clipPath>
		<path id="path3826" style="clip-path:url(#SVGID_00000075163771000969767140000005249096715149019790_);fill:#FFFFFF;" d="
			M147.9,196.4h-0.2c-1.2,0.1-2.9,1-4.9,2.2c-3.1,1.8-6.7,3.9-11.1,3.9c-3.8,0-6.4-1.6-9-3.3c-2.2-1.4-4.5-2.9-7.6-2.8
			s-4.9,1.4-6.8,2.7c-2.4,1.6-4.8,3.3-9.2,3.4s-7-1.6-9.7-3.4c-2.2-1.4-4.4-2.8-7.4-2.7s-4.9,1.3-6.9,2.6c-2.4,1.6-4.9,3.3-9.3,3.3
			c-4.6,0.1-7.6-1.8-10.3-3.5c-2-1.3-4-2.5-6.3-2.5c-0.4,0-0.8,0-1.2,0.1v-6.1h0.6c2.4,0,4.3,1.2,6.3,2.5c2.8,1.7,5.7,3.5,10.3,3.5
			c4.4-0.1,6.9-1.7,9.3-3.3c2-1.3,3.9-2.6,6.9-2.6s5.2,1.3,7.4,2.7c2.7,1.7,5.4,3.4,9.7,3.3s6.8-1.8,9.2-3.4
			c1.9-1.3,3.8-2.6,6.8-2.7s5.4,1.4,7.6,2.8c2.6,1.6,5.1,3.2,9,3.3c4.4,0,8-2.1,11.1-3.9c1.9-1.1,3.6-2.1,4.9-2.2h0.8L147.9,196.4
			L147.9,196.4z"/>
	</g>
	<g>
		<defs>
			<rect id="SVGID_00000085929558510895483150000016981961984541162900_" width="195.6" height="280.6"/>
		</defs>
		<clipPath id="SVGID_00000120528849663918327240000000731213267947999145_">
			<use xlink:href="#SVGID_00000085929558510895483150000016981961984541162900_"  style="overflow:visible;"/>
		</clipPath>
		<path id="path3824" style="clip-path:url(#SVGID_00000120528849663918327240000000731213267947999145_);fill:#FFFFFF;" d="
			M147.9,171.7l-0.3-0.3h-0.1c-2,0.1-4.1,1.3-6.3,2.6c-2.8,1.6-6,3.5-9.5,3.4c-2.9,0-5.1-1.4-7.2-2.8c-2.7-1.7-5.3-3.4-9.4-3.3
			s-6.3,1.6-8.6,3.2c-2,1.4-4,2.8-7.4,2.8s-5.7-1.4-7.9-2.8c-2.6-1.6-5.2-3.3-9.2-3.2s-6.3,1.6-8.7,3.1c-2,1.4-4.1,2.7-7.6,2.8
			c-3.7,0.1-6.2-1.5-8.5-3s-4.7-3-8-3h-1l-0.3,0.2v5.2h0.6c2.4,0,4.3,1.2,6.3,2.5c2.8,1.7,5.7,3.6,10.3,3.5c4.4-0.1,6.9-1.7,9.3-3.3
			c2-1.3,3.9-2.6,6.9-2.6s5.2,1.3,7.4,2.7c2.7,1.7,5.4,3.4,9.7,3.3s6.8-1.8,9.2-3.4c1.9-1.3,3.8-2.6,6.8-2.7s5.4,1.4,7.6,2.8
			c2.6,1.6,5.1,3.2,9,3.3c4.4,0,8-2.1,11.1-3.9c1.9-1.1,3.6-2.1,4.9-2.2h0.8L147.9,171.7L147.9,171.7z"/>
	</g>
	<g>
		<defs>
			<rect id="SVGID_00000021799033027541169280000004426131925716175025_" width="195.6" height="280.6"/>
		</defs>
		<clipPath id="SVGID_00000177459297574192958410000014663203810643035321_">
			<use xlink:href="#SVGID_00000021799033027541169280000004426131925716175025_"  style="overflow:visible;"/>
		</clipPath>
		<path id="_160033752" style="clip-path:url(#SVGID_00000177459297574192958410000014663203810643035321_);fill:#FFFFFF;" d="
			M48,180.5v6.3h0.7c3.3,0,5.6,1.4,8,3s4.9,3,8.5,3c3.5,0,5.6-1.4,7.6-2.8c2.3-1.6,4.7-3.1,8.7-3.1s6.5,1.5,9.2,3.2
			c2.3,1.4,4.6,2.9,7.9,2.8s5.4-1.5,7.4-2.8c2.3-1.6,4.6-3.2,8.6-3.2s6.8,1.6,9.4,3.3c2.2,1.4,4.3,2.8,7.2,2.8
			c3.5,0,6.7-1.9,9.5-3.5c2.3-1.4,4.3-2.5,6.3-2.6h0.9v-6.3h-0.8c-1.2,0.1-2.9,1.1-4.9,2.2c-3.1,1.8-6.7,3.9-11.1,3.9
			c-3.8,0-6.4-1.6-9-3.3c-2.2-1.4-4.5-2.9-7.6-2.8s-4.9,1.4-6.8,2.7c-2.4,1.6-4.8,3.3-9.2,3.4s-7.1-1.6-9.7-3.3
			c-2.2-1.4-4.4-2.8-7.4-2.7s-4.9,1.3-6.9,2.6c-2.4,1.6-4.9,3.3-9.3,3.3c-4.6,0.1-7.6-1.8-10.3-3.5c-2-1.3-4-2.5-6.3-2.5L48,180.5z"
			/>
	</g>
	<g>
		<defs>
			<rect id="SVGID_00000039837393171775615900000008397163926083809192_" width="195.6" height="280.6"/>
		</defs>
		<clipPath id="SVGID_00000148660285297645379530000004823721132590944925_">
			<use xlink:href="#SVGID_00000039837393171775615900000008397163926083809192_"  style="overflow:visible;"/>
		</clipPath>
		
			<path id="_160033320" style="clip-path:url(#SVGID_00000148660285297645379530000004823721132590944925_);fill-rule:evenodd;clip-rule:evenodd;fill:#FECA0D;" d="
			M59,213.6h78c-7.2-5.2-15.1-9-24.3-8.3c-8,0.6-12.6,3.7-14.7,7.8c-2.1-4.1-6.7-7.2-14.7-7.8C74.1,204.6,66.2,208.4,59,213.6
			L59,213.6z"/>
	</g>
	<g>
		<defs>
			<rect id="SVGID_00000123404952773084575490000012007311809832842914_" width="195.6" height="280.6"/>
		</defs>
		<clipPath id="SVGID_00000078013979003749998380000018249055083079744167_">
			<use xlink:href="#SVGID_00000123404952773084575490000012007311809832842914_"  style="overflow:visible;"/>
		</clipPath>
		
			<path id="_160034136" style="clip-path:url(#SVGID_00000078013979003749998380000018249055083079744167_);fill-rule:evenodd;clip-rule:evenodd;fill:#FECA0D;" d="
			M98,228.6c-0.5,1.7-1.1,3.3-1.9,4.9c0.5,1.9,1.1,3.7,1.9,5.5c0.7-1.8,1.4-3.7,1.9-5.5C99.1,231.9,98.5,230.3,98,228.6z"/>
	</g>
	<g>
		<defs>
			<rect id="SVGID_00000091724283689921259870000005842116471237860535_" width="195.6" height="280.6"/>
		</defs>
		<clipPath id="SVGID_00000141455751690028459150000000935419628298351234_">
			<use xlink:href="#SVGID_00000091724283689921259870000005842116471237860535_"  style="overflow:visible;"/>
		</clipPath>
		
			<path id="_159703344" style="clip-path:url(#SVGID_00000141455751690028459150000000935419628298351234_);fill-rule:evenodd;clip-rule:evenodd;fill:#FFFFFF;" d="
			M98.4,240.1c0.8,2.1,1.7,4.2,2.8,6.2c1-2,1.8-4,2.6-6.1c-1.3-1.8-2.4-3.6-3.5-5.5C99.8,236.5,99.1,238.3,98.4,240.1z"/>
	</g>
	<g>
		<defs>
			<rect id="SVGID_00000065773418411391550790000003104576852140160159_" width="195.6" height="280.6"/>
		</defs>
		<clipPath id="SVGID_00000151507511938744085490000011368994098946284679_">
			<use xlink:href="#SVGID_00000065773418411391550790000003104576852140160159_"  style="overflow:visible;"/>
		</clipPath>
		
			<path id="_159703128" style="clip-path:url(#SVGID_00000151507511938744085490000011368994098946284679_);fill-rule:evenodd;clip-rule:evenodd;fill:#FFFFFF;" d="
			M111.5,222.6c3.2,8.1,3.7,18.7,2.5,27.8c-3.2-3.1-6.1-6.5-8.8-10.1c1.7-4.3,2.4-9,2.2-13.6c-0.4-4.6-3.3-8.1-7.5-7
			c0.7-0.6,0.1-0.7,2.4-1.5S110.1,218.8,111.5,222.6z"/>
	</g>
	<g>
		<defs>
			<rect id="SVGID_00000065788512714656477280000012372631255031817915_" width="195.6" height="280.6"/>
		</defs>
		<clipPath id="SVGID_00000077287854129985715380000012855541314782871717_">
			<use xlink:href="#SVGID_00000065788512714656477280000012372631255031817915_"  style="overflow:visible;"/>
		</clipPath>
		
			<path id="_159702384" style="clip-path:url(#SVGID_00000077287854129985715380000012855541314782871717_);fill-rule:evenodd;clip-rule:evenodd;fill:#FFFFFF;" d="
			M101.4,248.9c1.2,1.9,2.4,3.8,3.6,5.5c0.9-3.1,1.6-6.3,2.1-9.5c-0.8-1-1.6-2.1-2.4-3.1C103.7,244.2,102.6,246.6,101.4,248.9z
			 M93.4,226.6c-0.1,0.6-0.1,1.2,0,1.8C93.4,227.8,93.4,227.2,93.4,226.6L93.4,226.6z"/>
	</g>
	<g>
		<defs>
			<rect id="SVGID_00000008133257621616747490000005629321799906031504_" width="195.6" height="280.6"/>
		</defs>
		<clipPath id="SVGID_00000084516500722271771150000006065815976933470098_">
			<use xlink:href="#SVGID_00000008133257621616747490000005629321799906031504_"  style="overflow:visible;"/>
		</clipPath>
		
			<path id="_160035048" style="clip-path:url(#SVGID_00000084516500722271771150000006065815976933470098_);fill-rule:evenodd;clip-rule:evenodd;fill:#FFFFFF;" d="
			M115.9,236.7c2.7,2.2,5.5,4.2,8.4,6c-1.8-12.5-4.9-19.2-10.2-23.6c-2.5-2.1-6.8-3-9.6-1.8c3.3,0,6.4,1.8,8,4.7
			C114.7,226.1,115.6,231.4,115.9,236.7L115.9,236.7z"/>
	</g>
	<g>
		<defs>
			<rect id="SVGID_00000155144647688955487020000005457114851814219392_" width="195.6" height="280.6"/>
		</defs>
		<clipPath id="SVGID_00000083787713558990838990000007374593207386030223_">
			<use xlink:href="#SVGID_00000155144647688955487020000005457114851814219392_"  style="overflow:visible;"/>
		</clipPath>
		
			<path id="_159703440" style="clip-path:url(#SVGID_00000083787713558990838990000007374593207386030223_);fill-rule:evenodd;clip-rule:evenodd;fill:#FFFFFF;" d="
			M104.3,238.9c-2.2-3.1-4-6.5-5.5-10.1c-0.2-0.6-0.6-1.5-0.8-2.1c0.3-1.3,0.3-2.6,0.1-3.9c0.4-2.3,3-3.1,5-1.9c2,1.4,3.1,3.7,3,6.1
			C106.1,231.1,105.4,235.1,104.3,238.9L104.3,238.9z"/>
	</g>
	<g>
		<defs>
			<rect id="SVGID_00000082353634165880088070000009704209910062127791_" width="195.6" height="280.6"/>
		</defs>
		<clipPath id="SVGID_00000111894301669014956410000010519180246555647125_">
			<use xlink:href="#SVGID_00000082353634165880088070000009704209910062127791_"  style="overflow:visible;"/>
		</clipPath>
		
			<path id="_159703656" style="clip-path:url(#SVGID_00000111894301669014956410000010519180246555647125_);fill-rule:evenodd;clip-rule:evenodd;fill:#FFFFFF;" d="
			M97.5,240.1c-0.8,2.1-1.7,4.2-2.8,6.2c-1-2-1.8-4-2.6-6.1c1.3-1.8,2.4-3.6,3.5-5.5C96.1,236.5,96.8,238.3,97.5,240.1z"/>
	</g>
	<g>
		<defs>
			<rect id="SVGID_00000071551803652979822540000004922418900217129387_" width="195.6" height="280.6"/>
		</defs>
		<clipPath id="SVGID_00000109008568043395074310000006952064382989899421_">
			<use xlink:href="#SVGID_00000071551803652979822540000004922418900217129387_"  style="overflow:visible;"/>
		</clipPath>
		
			<path id="_160109872" style="clip-path:url(#SVGID_00000109008568043395074310000006952064382989899421_);fill-rule:evenodd;clip-rule:evenodd;fill:#FFFFFF;" d="
			M84.4,222.6c-3.2,8.1-3.7,18.7-2.5,27.8c3.2-3.1,6.1-6.5,8.8-10.1c-1.7-4.3-2.4-9-2.2-13.6c0.4-4.6,3.3-8.1,7.5-7
			c-0.7-0.6-0.1-0.7-2.4-1.5S85.8,218.9,84.4,222.6L84.4,222.6z"/>
	</g>
	<g>
		<defs>
			<rect id="SVGID_00000005241643979826965650000003910026292118094978_" width="195.6" height="280.6"/>
		</defs>
		<clipPath id="SVGID_00000090261524944343289290000012119832804866515338_">
			<use xlink:href="#SVGID_00000005241643979826965650000003910026292118094978_"  style="overflow:visible;"/>
		</clipPath>
		
			<path id="_159703848" style="clip-path:url(#SVGID_00000090261524944343289290000012119832804866515338_);fill-rule:evenodd;clip-rule:evenodd;fill:#FFFFFF;" d="
			M98,241.6c-0.9,2.4-2,4.7-3.2,7c0.9,2.7,2,5.4,3.2,8c1.2-2.6,2.3-5.3,3.2-8C100,246.3,98.9,244,98,241.6z"/>
	</g>
	<g>
		<defs>
			<rect id="SVGID_00000128463423848282280870000016387501532694163884_" width="195.6" height="280.6"/>
		</defs>
		<clipPath id="SVGID_00000076583246058095134990000010585776510723255461_">
			<use xlink:href="#SVGID_00000128463423848282280870000016387501532694163884_"  style="overflow:visible;"/>
		</clipPath>
		
			<path id="_160110304" style="clip-path:url(#SVGID_00000076583246058095134990000010585776510723255461_);fill-rule:evenodd;clip-rule:evenodd;fill:#FFFFFF;" d="
			M94.5,248.9c-1.2,1.9-2.4,3.8-3.6,5.5c-0.9-3.1-1.6-6.3-2.1-9.5c0.8-1,1.6-2.1,2.4-3.1C92.1,244.2,93.2,246.6,94.5,248.9z"/>
	</g>
	<g>
		<defs>
			<rect id="SVGID_00000038412176676103356050000012141630855477142684_" width="195.6" height="280.6"/>
		</defs>
		<clipPath id="SVGID_00000004532308378554244250000003011969563954841533_">
			<use xlink:href="#SVGID_00000038412176676103356050000012141630855477142684_"  style="overflow:visible;"/>
		</clipPath>
		
			<path id="_160136120" style="clip-path:url(#SVGID_00000004532308378554244250000003011969563954841533_);fill-rule:evenodd;clip-rule:evenodd;fill:#FFFFFF;" d="
			M80,236.7c-2.7,2.2-5.5,4.2-8.4,6c1.8-12.5,4.9-19.2,10.2-23.6c2.5-2.1,6.8-3,9.6-1.8c-3.3,0-6.4,1.8-8,4.7
			C81.2,226.1,80.3,231.4,80,236.7L80,236.7z"/>
	</g>
	<g>
		<defs>
			<rect id="SVGID_00000005966208609401835290000006946258378385572004_" width="195.6" height="280.6"/>
		</defs>
		<clipPath id="SVGID_00000141448636570432668990000013052326614817764780_">
			<use xlink:href="#SVGID_00000005966208609401835290000006946258378385572004_"  style="overflow:visible;"/>
		</clipPath>
		
			<path id="_159703368" style="clip-path:url(#SVGID_00000141448636570432668990000013052326614817764780_);fill-rule:evenodd;clip-rule:evenodd;fill:#FFFFFF;" d="
			M98,221c-0.4-2.5-2.1-4.6-4.5-5.5h-0.1h9.1h-0.1C100.1,216.4,98.4,218.5,98,221z"/>
	</g>
	<g>
		<defs>
			<rect id="SVGID_00000036949336569756278650000017799330252873176487_" width="195.6" height="280.6"/>
		</defs>
		<clipPath id="SVGID_00000013913911699897196750000005734673669607575963_">
			<use xlink:href="#SVGID_00000036949336569756278650000017799330252873176487_"  style="overflow:visible;"/>
		</clipPath>
		
			<path id="_160110016" style="clip-path:url(#SVGID_00000013913911699897196750000005734673669607575963_);fill-rule:evenodd;clip-rule:evenodd;fill:#FFFFFF;" d="
			M91.6,238.9c2.2-3.1,4-6.5,5.4-10.1c0.2-0.6,0.6-1.5,0.8-2.1c-0.3-1.3-0.3-2.6-0.1-3.9c-0.4-2.3-3-3.1-5-1.9c-2,1.4-3.1,3.7-3,6.1
			C89.8,231.1,90.4,235.1,91.6,238.9z"/>
	</g>
	<g>
		<defs>
			<rect id="SVGID_00000036954998158258089190000017254093447137389198_" width="195.6" height="280.6"/>
		</defs>
		<clipPath id="SVGID_00000002365371060747425770000009527530263736500385_">
			<use xlink:href="#SVGID_00000036954998158258089190000017254093447137389198_"  style="overflow:visible;"/>
		</clipPath>
		<path style="clip-path:url(#SVGID_00000002365371060747425770000009527530263736500385_);fill:#FFFFFF;" d="M79.9,99.6
			c-12.6,0-22.9,10.2-22.9,30.5c0,25.4,18.2,50.9,40.7,50.9s40.7-25.4,40.7-50.9c0-20.3-10.2-30.5-22.9-30.5
			c-6.9,0-13.5,3.1-17.8,8.5C93.3,102.8,86.8,99.6,79.9,99.6z"/>
	</g>
	<g>
		<defs>
			<rect id="SVGID_00000041275392735259899300000011166979803247933372_" width="195.6" height="280.6"/>
		</defs>
		<clipPath id="SVGID_00000101084762388817190930000009949991645908885692_">
			<use xlink:href="#SVGID_00000041275392735259899300000011166979803247933372_"  style="overflow:visible;"/>
		</clipPath>
		<path style="clip-path:url(#SVGID_00000101084762388817190930000009949991645908885692_);fill:#FFFFFF;" d="M30.3,112.8H165
			c3,0,5.5,2.4,5.5,5.5v44c0,3-2.4,5.5-5.5,5.5H30.3c-3,0-5.5-2.4-5.5-5.5v-44C24.9,115.3,27.3,112.8,30.3,112.8z"/>
	</g>
	<g>
		<defs>
			<rect id="SVGID_00000162337466579597750200000012433530867420399240_" width="195.6" height="280.6"/>
		</defs>
		<clipPath id="SVGID_00000082350846450753864650000008415297472822044344_">
			<use xlink:href="#SVGID_00000162337466579597750200000012433530867420399240_"  style="overflow:visible;"/>
		</clipPath>
	</g>
	<g>
		<defs>
			<rect id="SVGID_00000060715737329111549860000009018438382578211984_" width="195.6" height="280.6"/>
		</defs>
		<clipPath id="SVGID_00000114777981977606272800000003403328534284260766_">
			<use xlink:href="#SVGID_00000060715737329111549860000009018438382578211984_"  style="overflow:visible;"/>
		</clipPath>
	</g>
	<g>
		<defs>
			<rect id="SVGID_00000000223296290924138100000013473663637760922760_" width="195.6" height="280.6"/>
		</defs>
		<clipPath id="SVGID_00000010282359456470760550000011063263008408389028_">
			<use xlink:href="#SVGID_00000000223296290924138100000013473663637760922760_"  style="overflow:visible;"/>
		</clipPath>
		<path style="clip-path:url(#SVGID_00000010282359456470760550000011063263008408389028_);fill:#FFFFFF;" d="M44.9,0h-29h-16L0,16
			c0,7,0,14,0,21c10.5,12.2,28.9,13.5,41,3C52.8,29.9,54.5,12.2,44.9,0z"/>
	</g>
	<g>
		<defs>
			<rect id="SVGID_00000034061712481488374680000017386970732739002811_" width="195.6" height="280.6"/>
		</defs>
		<clipPath id="SVGID_00000082358435702118576780000009878114553152524458_">
			<use xlink:href="#SVGID_00000034061712481488374680000017386970732739002811_"  style="overflow:visible;"/>
		</clipPath>
	</g>
</g>
<g class="st39">
	<path class="st40" d="M73.6,119.1h4.6c1.2,0,2.2,0.1,2.9,0.3c0.7,0.2,1.2,0.5,1.5,0.8c0.3,0.4,0.6,0.8,0.7,1.3s0.2,1.3,0.2,2.4v1.5
		c0,1.1-0.1,1.9-0.3,2.4c-0.2,0.5-0.7,0.9-1.3,1.2c-0.6,0.3-1.4,0.4-2.4,0.4h-1.2v7h-4.5V119.1z M78.1,122.1v4.4c0.1,0,0.2,0,0.3,0
		c0.4,0,0.7-0.1,0.9-0.3c0.2-0.2,0.2-0.6,0.2-1.3v-1.4c0-0.6-0.1-1-0.3-1.2S78.7,122.1,78.1,122.1z"/>
	<path class="st40" d="M89.1,125.3l0.8-0.2v1.9l-0.8,0.2v9.4h-4.5v-8l-0.8,0.2v-1.9l0.8-0.2v-7.6h4.5V125.3z"/>
	<path class="st40" d="M100.7,127.3v3.5c0,1.3-0.1,2.2-0.2,2.8c-0.1,0.6-0.4,1.2-0.8,1.7c-0.4,0.5-1,0.9-1.6,1.2s-1.4,0.4-2.3,0.4
		c-1,0-1.8-0.1-2.4-0.3s-1.2-0.5-1.6-1s-0.6-0.9-0.8-1.6c-0.2-0.6-0.2-1.5-0.2-2.7v-3.7c0-1.3,0.1-2.4,0.4-3.1
		c0.3-0.7,0.8-1.3,1.6-1.8c0.7-0.5,1.7-0.7,2.9-0.7c1,0,1.8,0.1,2.5,0.4c0.7,0.3,1.2,0.7,1.6,1.1c0.4,0.5,0.6,0.9,0.8,1.4
		C100.6,125.5,100.7,126.3,100.7,127.3z M96.3,126.2c0-0.7,0-1.2-0.1-1.4c-0.1-0.2-0.2-0.3-0.5-0.3s-0.4,0.1-0.5,0.3
		s-0.1,0.7-0.1,1.4v6.5c0,0.7,0,1.1,0.1,1.3s0.3,0.3,0.5,0.3c0.3,0,0.4-0.1,0.5-0.3c0.1-0.2,0.1-0.6,0.1-1.2V126.2z"/>
	<path class="st40" d="M111.8,127.7h-4.1V126c0-0.6,0-1-0.1-1.2c-0.1-0.2-0.3-0.3-0.5-0.3c-0.3,0-0.4,0.1-0.5,0.3
		c-0.1,0.2-0.1,0.6-0.1,1.2v6.7c0,0.5,0.1,0.9,0.2,1.1c0.1,0.3,0.3,0.4,0.6,0.4c0.3,0,0.5-0.1,0.6-0.4c0.1-0.3,0.2-0.8,0.2-1.5v-1.7
		h3.9c0,1.1,0,2-0.1,2.6c-0.1,0.6-0.3,1.2-0.7,1.8c-0.4,0.6-0.9,1.1-1.6,1.4s-1.5,0.5-2.4,0.5c-1.2,0-2.2-0.2-2.9-0.6
		c-0.7-0.4-1.2-1-1.5-1.8c-0.3-0.8-0.4-1.8-0.4-3.2v-4.1c0-1.2,0.1-2.1,0.4-2.7c0.2-0.6,0.8-1.2,1.6-1.7s1.8-0.7,2.9-0.7
		c1.1,0,2.1,0.2,2.9,0.7s1.3,1.1,1.6,1.8C111.6,125.3,111.8,126.3,111.8,127.7z"/>
	<path class="st40" d="M122.4,122.3l-1.8,5.7l2.3,8.6h-4.2l-1.4-6.2l0,6.2H113v-17.5h4.4l0,7.3l1.4-4.2H122.4z"/>
</g>
<g class="st39">
	<path class="st40" d="M56,141.9v17.5h-4l-2.4-7.9v7.9h-3.8v-17.5h3.8l2.5,7.9v-7.9H56z"/>
	<path class="st40" d="M61.6,150.6h-4.1v-1c0-1.1,0.1-2,0.4-2.6s0.8-1.1,1.5-1.6c0.8-0.5,1.8-0.7,3-0.7c1.5,0,2.6,0.3,3.3,0.8
		c0.7,0.5,1.2,1.2,1.3,1.9c0.2,0.8,0.2,2.3,0.2,4.7v7.2h-4.2v-1.3c-0.3,0.5-0.6,0.9-1,1.1c-0.4,0.3-0.9,0.4-1.5,0.4
		c-0.8,0-1.5-0.2-2.1-0.6c-0.6-0.4-1-1.4-1-2.8V155c0-1.1,0.2-1.8,0.5-2.2c0.3-0.4,1.2-0.8,2.5-1.4c1.4-0.6,2.2-0.9,2.3-1.1
		c0.1-0.2,0.2-0.6,0.2-1.2c0-0.7-0.1-1.2-0.2-1.5c-0.1-0.2-0.3-0.3-0.6-0.3c-0.3,0-0.5,0.1-0.5,0.3c-0.1,0.2-0.1,0.7-0.1,1.5V150.6z
		 M63,152.6c-0.7,0.5-1.1,0.9-1.2,1.3c-0.1,0.3-0.2,0.8-0.2,1.5c0,0.7,0,1.2,0.1,1.4c0.1,0.2,0.3,0.3,0.6,0.3c0.3,0,0.5-0.1,0.5-0.3
		c0.1-0.2,0.1-0.6,0.1-1.3V152.6z"/>
	<path class="st40" d="M77.9,145.1l-2,14.3h-5.7l-2.2-14.3h3.9l1.2,10.4c0.1-0.8,0.3-2.6,0.5-5.6c0.1-1.7,0.3-3.3,0.4-4.8H77.9z"/>
	<path class="st40" d="M82.4,150.6h-4.1v-1c0-1.1,0.1-2,0.4-2.6s0.8-1.1,1.5-1.6c0.8-0.5,1.8-0.7,3-0.7c1.5,0,2.6,0.3,3.3,0.8
		c0.7,0.5,1.2,1.2,1.3,1.9c0.2,0.8,0.2,2.3,0.2,4.7v7.2h-4.2v-1.3c-0.3,0.5-0.6,0.9-1,1.1c-0.4,0.3-0.9,0.4-1.5,0.4
		c-0.8,0-1.5-0.2-2.1-0.6c-0.6-0.4-1-1.4-1-2.8V155c0-1.1,0.2-1.8,0.5-2.2c0.3-0.4,1.2-0.8,2.5-1.4c1.4-0.6,2.2-0.9,2.3-1.1
		c0.1-0.2,0.2-0.6,0.2-1.2c0-0.7-0.1-1.2-0.2-1.5c-0.1-0.2-0.3-0.3-0.6-0.3c-0.3,0-0.5,0.1-0.5,0.3c-0.1,0.2-0.1,0.7-0.1,1.5V150.6z
		 M83.8,152.6c-0.7,0.5-1.1,0.9-1.2,1.3c-0.1,0.3-0.2,0.8-0.2,1.5c0,0.7,0,1.2,0.1,1.4c0.1,0.2,0.3,0.3,0.6,0.3
		c0.3,0,0.5-0.1,0.5-0.3c0.1-0.2,0.1-0.6,0.1-1.3V152.6z"/>
	<path class="st40" d="M94.1,145.1l-0.1,1.3c0.4-0.5,0.8-0.9,1.3-1.1s1-0.4,1.5-0.4c0.7,0,1.3,0.2,1.8,0.5c0.5,0.4,0.8,0.8,0.9,1.3
		c0.1,0.5,0.2,1.3,0.2,2.4v6c0,1.3-0.1,2.2-0.2,2.8s-0.5,1-0.9,1.3c-0.5,0.3-1.1,0.5-1.7,0.5c-0.5,0-1-0.1-1.5-0.4s-0.9-0.6-1.3-1.1
		v3.3h-4.4v-16.3H94.1z M95.3,149.3c0-0.9,0-1.4-0.1-1.6c-0.1-0.2-0.2-0.3-0.5-0.3c-0.3,0-0.5,0.1-0.6,0.3c-0.1,0.2-0.1,0.7-0.1,1.6
		v5.9c0,0.9,0,1.4,0.1,1.6c0.1,0.2,0.3,0.3,0.6,0.3c0.3,0,0.5-0.1,0.5-0.3s0.1-0.7,0.1-1.4V149.3z"/>
	<path class="st40" d="M110.9,150.1v3.5c0,1.3-0.1,2.2-0.2,2.8c-0.1,0.6-0.4,1.2-0.8,1.7c-0.4,0.5-1,0.9-1.6,1.2s-1.4,0.4-2.3,0.4
		c-1,0-1.8-0.1-2.4-0.3c-0.7-0.2-1.2-0.5-1.6-1s-0.6-0.9-0.8-1.6s-0.2-1.5-0.2-2.7v-3.7c0-1.3,0.1-2.4,0.4-3.1
		c0.3-0.7,0.8-1.3,1.6-1.8c0.7-0.5,1.7-0.7,2.9-0.7c1,0,1.8,0.1,2.5,0.4s1.2,0.7,1.6,1.1c0.4,0.5,0.6,0.9,0.8,1.4
		C110.9,148.3,110.9,149.1,110.9,150.1z M106.6,149c0-0.7,0-1.2-0.1-1.4c-0.1-0.2-0.2-0.3-0.5-0.3s-0.4,0.1-0.5,0.3
		c-0.1,0.2-0.1,0.7-0.1,1.4v6.5c0,0.7,0,1.1,0.1,1.3c0.1,0.2,0.3,0.3,0.5,0.3c0.3,0,0.4-0.1,0.5-0.3c0.1-0.2,0.1-0.6,0.1-1.2V149z"
		/>
	<path class="st40" d="M117,148.1l0.8-0.2v1.9L117,150v9.4h-4.5v-8l-0.8,0.2v-1.9l0.8-0.2v-7.6h4.5V148.1z"/>
	<path class="st40" d="M122.6,150.6h-4.1v-1c0-1.1,0.1-2,0.4-2.6s0.8-1.1,1.5-1.6c0.8-0.5,1.8-0.7,3-0.7c1.5,0,2.6,0.3,3.3,0.8
		c0.7,0.5,1.2,1.2,1.3,1.9c0.2,0.8,0.2,2.3,0.2,4.7v7.2h-4.2v-1.3c-0.3,0.5-0.6,0.9-1,1.1c-0.4,0.3-0.9,0.4-1.5,0.4
		c-0.8,0-1.5-0.2-2.1-0.6c-0.6-0.4-1-1.4-1-2.8V155c0-1.1,0.2-1.8,0.5-2.2c0.3-0.4,1.2-0.8,2.5-1.4c1.4-0.6,2.2-0.9,2.3-1.1
		c0.1-0.2,0.2-0.6,0.2-1.2c0-0.7-0.1-1.2-0.2-1.5c-0.1-0.2-0.3-0.3-0.6-0.3c-0.3,0-0.5,0.1-0.5,0.3c-0.1,0.2-0.1,0.7-0.1,1.5V150.6z
		 M124,152.6c-0.7,0.5-1.1,0.9-1.2,1.3c-0.1,0.3-0.2,0.8-0.2,1.5c0,0.7,0,1.2,0.1,1.4c0.1,0.2,0.3,0.3,0.6,0.3
		c0.3,0,0.5-0.1,0.5-0.3c0.1-0.2,0.1-0.6,0.1-1.3V152.6z"/>
	<path class="st40" d="M139.4,150.5h-4.1v-1.6c0-0.6,0-1-0.1-1.2c-0.1-0.2-0.3-0.3-0.5-0.3c-0.3,0-0.4,0.1-0.5,0.3
		c-0.1,0.2-0.1,0.6-0.1,1.2v6.7c0,0.5,0.1,0.9,0.2,1.1c0.1,0.3,0.3,0.4,0.6,0.4c0.3,0,0.5-0.1,0.6-0.4c0.1-0.3,0.2-0.8,0.2-1.5v-1.7
		h3.9c0,1.1,0,2-0.1,2.6c-0.1,0.6-0.3,1.2-0.7,1.8c-0.4,0.6-0.9,1.1-1.6,1.4s-1.5,0.5-2.4,0.5c-1.2,0-2.2-0.2-2.9-0.6
		c-0.7-0.4-1.2-1-1.5-1.8c-0.3-0.8-0.4-1.8-0.4-3.2V150c0-1.2,0.1-2.1,0.4-2.7c0.2-0.6,0.8-1.2,1.6-1.7s1.8-0.7,2.9-0.7
		c1.1,0,2.1,0.2,2.9,0.7s1.3,1.1,1.6,1.8C139.3,148.1,139.4,149.2,139.4,150.5z"/>
	<path class="st40" d="M150.1,145.1l-1.8,5.7l2.3,8.6h-4.2l-1.4-6.2l0,6.2h-4.4v-17.5h4.4l0,7.3l1.4-4.2H150.1z"/>
</g>
<g class="st39">
	<path class="st40" d="M23.6,22.8c0.6,0.2,1,0.5,1.3,1c0.3,0.5,0.4,1.5,0.4,3.2c0,1.3-0.1,2.2-0.4,2.9c-0.3,0.7-0.8,1.2-1.5,1.6
		s-1.6,0.5-2.7,0.5c-1.2,0-2.2-0.2-2.9-0.6s-1.2-0.9-1.4-1.5s-0.3-1.7-0.3-3.2v-1.2H20V28c0,0.7,0,1.1,0.1,1.3
		c0.1,0.2,0.3,0.3,0.5,0.3c0.3,0,0.5-0.1,0.6-0.4s0.1-0.8,0.1-1.8v-1.1c0-0.6-0.1-1-0.2-1.3s-0.3-0.5-0.6-0.6
		c-0.3-0.1-0.8-0.1-1.6-0.2V22c0.9,0,1.5,0,1.7-0.1c0.2-0.1,0.4-0.2,0.5-0.5s0.1-0.6,0.1-1.1v-0.9c0-0.6-0.1-0.9-0.2-1.1
		c-0.1-0.2-0.3-0.3-0.5-0.3c-0.3,0-0.5,0.1-0.6,0.3c-0.1,0.2-0.2,0.6-0.2,1.2v1.3h-3.9v-1.3c0-1.5,0.3-2.5,1-3.1
		c0.7-0.5,1.8-0.8,3.3-0.8c1.9,0,3.2,0.4,3.8,1.1c0.7,0.7,1,1.8,1,3.1c0,0.9-0.1,1.5-0.4,1.9C24.7,22.1,24.2,22.5,23.6,22.8z"/>
	<path class="st40" d="M36.3,20.1h-3.9c0-0.7,0-1.2,0-1.4c0-0.2-0.1-0.4-0.2-0.5c-0.1-0.1-0.3-0.2-0.6-0.2c-0.2,0-0.4,0.1-0.5,0.2
		c-0.1,0.1-0.2,0.3-0.2,0.5s0,0.6,0,1.2v2.5c0.2-0.4,0.5-0.7,0.9-1s0.9-0.3,1.4-0.3c0.7,0,1.4,0.2,1.9,0.6c0.6,0.4,0.9,0.9,1.1,1.4
		c0.2,0.5,0.2,1.3,0.2,2.2v1.3c0,1.1,0,1.9-0.1,2.5c-0.1,0.5-0.3,1-0.7,1.5c-0.4,0.5-0.9,0.8-1.5,1.1c-0.6,0.3-1.4,0.4-2.2,0.4
		c-1.1,0-1.9-0.1-2.6-0.4c-0.7-0.3-1.2-0.7-1.6-1.3c-0.4-0.5-0.6-1.1-0.6-1.7c-0.1-0.6-0.1-1.8-0.1-3.5v-2.2c0-1.9,0-3.1,0.1-3.8
		c0.1-0.6,0.3-1.2,0.7-1.8c0.4-0.6,0.9-1,1.6-1.3c0.7-0.3,1.5-0.4,2.4-0.4c1.1,0,2,0.2,2.7,0.5c0.7,0.4,1.2,0.9,1.5,1.5
		C36.1,18.3,36.3,19.1,36.3,20.1z M32.3,25.1c0-0.6-0.1-0.9-0.2-1.2c-0.1-0.2-0.3-0.3-0.6-0.3c-0.3,0-0.5,0.1-0.6,0.3
		s-0.2,0.6-0.2,1.2v2.9c0,0.7,0.1,1.2,0.2,1.4c0.1,0.2,0.3,0.3,0.6,0.3c0.2,0,0.3-0.1,0.5-0.2c0.2-0.2,0.3-0.6,0.3-1.3V25.1z"/>
</g>
</svg>
