<svg id="Слой_1" data-name="Слой 1" xmlns="http://www.w3.org/2000/svg" xmlns:xlink="http://www.w3.org/1999/xlink" viewBox="0 0 195.59 280.63"><defs><style>.cls-1{fill:#e94539;}.cls-2{fill:#a91916;}.cls-11,.cls-2,.cls-3,.cls-4,.cls-5,.cls-6,.cls-9{fill-rule:evenodd;}.cls-13,.cls-3{fill:#fff;}.cls-14,.cls-18,.cls-19,.cls-4{fill:#e0232d;}.cls-10,.cls-5,.cls-6,.cls-7,.cls-8,.cls-9{stroke:#424242;}.cls-5,.cls-6,.cls-7{stroke-width:0.75px;}.cls-5{fill:url(#Безымянный_градиент_2);}.cls-6,.cls-8{fill:#f1e743;}.cls-10,.cls-7{fill:none;}.cls-10,.cls-8{stroke-width:1.89px;}.cls-9{fill:#f2f2f2;stroke-width:0.21px;}.cls-11,.cls-16,.cls-20{fill:#097cc1;}.cls-12{fill:#424242;}.cls-15{fill:#fad000;}.cls-17{fill:#ffd405;}.cls-18{font-size:19.11px;}.cls-18,.cls-19,.cls-20{font-family:Impact;}.cls-19{font-size:24.77px;}.cls-20{font-size:20px;}</style><linearGradient id="Безымянный_градиент_2" x1="106.68" y1="52.26" x2="106.68" y2="94.1" gradientTransform="translate(196.49 276.35) rotate(180)" gradientUnits="userSpaceOnUse"><stop offset="0" stop-color="#f1e743"/><stop offset="0.5" stop-color="#fbba10"/><stop offset="1" stop-color="#f1e743"/></linearGradient></defs><rect class="cls-1" x="-8.9" y="-8.4" width="214.01" height="297.89"/><g id="layer1"><path id="path3040" class="cls-2" d="M72.17,203.42a2.05,2.05,0,0,1-2-2v-2.05a2.05,2.05,0,0,1,2-2.06h2.06v6.16Zm0-8.21a4.1,4.1,0,0,0-4.1,4.11v2.05a4.1,4.1,0,0,0,4.1,4.11h4.11V195.21Zm8.21,10.27h-2V195.21h2Zm4.11,0h-2V195.21h2l4.11,6.45v-6.45h2.05v10.27H88.6L84.49,199Zm30.8,0h-6.16v-2.06h4.1v-2h-4.1v-2.05h4.1v-2.06h-4.1v-2h6.16v10.27Zm8.21,0h-2v-8.22h-4.11v-2h6.16Zm-21.56-8.22h-2a3.08,3.08,0,0,0,0,6.16h2v-2h-2a1,1,0,1,1,0-2.05h2v-2.06Zm-2,10.27a7.19,7.19,0,1,1,7.19-7.19A7.19,7.19,0,0,1,99.89,207.53Zm0-2.05a5.14,5.14,0,1,1,5.13-5.14A5.14,5.14,0,0,1,99.89,205.48Z"/><path id="path19" class="cls-3" d="M99.89,269.88c-20.2,0-38.49-3.5-51.74-9.15-2.18-.93-4.23-1.92-6.12-3V229.33a18.19,18.19,0,0,0,0-28.82c0-11.78-1.16-24.2,5.12-34.85s18.5-16,29.44-20.73c8.34-3.61,17.2-7,23.3-14.12,6.09,7.08,15,10.51,23.29,14.12,10.95,4.73,23.1,10,29.44,20.73s5.13,23.07,5.13,34.85a18.17,18.17,0,0,0,0,28.82v28.44q-2.85,1.56-6.12,3c-13.25,5.65-31.55,9.15-51.74,9.15Z"/><path id="path21" class="cls-4" d="M99.89,269c18.71,0,40.09-2.66,57-11.75V229.77a19.1,19.1,0,0,1,0-29.7c0-11.44,1.09-23.64-5-33.95-6.26-10.59-18.26-15.71-29-20.36-8.16-3.54-16.75-6.88-22.94-13.6-6.19,6.72-14.78,10.06-22.94,13.6-10.76,4.65-22.77,9.77-29,20.36-6.09,10.31-5,22.51-5,33.95a19.1,19.1,0,0,1,0,29.7v27.46c16.86,9.09,38.25,11.75,57,11.75Z"/><path id="path23" class="cls-5" d="M99.31,264.49a5.71,5.71,0,0,1-5.89-2.91,17.92,17.92,0,0,1-2.5-11L60.87,205.1v-3.85L90.92,155.8a17.93,17.93,0,0,1,2.5-11,5.72,5.72,0,0,1,5.89-2.91,4.53,4.53,0,0,1,4.2,4.34,4.11,4.11,0,0,1-5.24,3.91l-.29.4c1.46,1,1.87,2.42.42,3.81-.69.67-3,2.32-2.93,3.23.68,11.88,23.14,15,23.26,28.72,0,4.4-3.07,8-9.12,11v11.83c6,2.95,9.16,6.59,9.12,11-.12,13.76-22.58,16.84-23.26,28.72,0,.92,2.24,2.57,2.93,3.23,1.45,1.39,1,2.79-.42,3.82l.29.4a4.1,4.1,0,0,1,5.24,3.91,4.52,4.52,0,0,1-4.2,4.33ZM62.14,203.18l29.29,44.29a26.15,26.15,0,0,1,5.67-11c4.08-4.62,10.56-9.84,11.47-15.08.55-3.21-1-6.22-5.6-8.23v-20c4.64-2,6.15-5,5.6-8.23-.91-5.24-7.47-10.53-11.55-15.15a25.68,25.68,0,0,1-5.59-10.93l-29.29,44.3Z"/><path id="path25" class="cls-6" d="M86.26,202.61C85.14,190.55,57.39,189,57.41,197c0,2.67,2.26,4.5,4.6,5.73v1.21c-2.34,1.23-4.59,3.07-4.6,5.74,0,8,27.73,6.4,28.85-5.65v-1.38Z"/><path id="path27" class="cls-7" d="M65.16,214.46l3.73-11.16-3.73-11.16m3.52,22.41,3.76-11.25L68.68,192m3.67,22.15L76,203.3l-3.64-10.9m3.84,20.91,3.35-10-3.35-10m4.11,18.36,2.79-8.34L80.29,195M61.82,213.84l3.52-10.54-3.52-10.55"/><rect id="rect29" class="cls-8" x="60.25" y="201.61" width="59.19" height="3.38"/><polygon id="polygon31" class="cls-9" points="118.57 200.51 127.65 200.75 127.65 205.68 118.57 206.06 118.57 200.51"/><polygon id="polygon33" class="cls-9" points="126.15 203.3 120.71 190.04 143.32 203.3 120.71 216.53 126.15 203.3"/><line id="line35" class="cls-10" x1="143.14" y1="203.3" x2="125.94" y2="203.3"/></g><g id="Warstwa_1"><g id="_74930080" data-name=" 74930080"><path id="_75002600" data-name=" 75002600" class="cls-3" d="M158,93.86c0,31.77-26.85,57.68-59.77,57.68s-59.76-26-59.76-57.68V12.48H158Z"/><path id="_75002528" data-name=" 75002528" class="cls-11" d="M156.81,93.65h0c0,31.2-26.31,56.64-58.57,56.64S39.68,124.85,39.68,93.65h0V13.73H156.81V93.65Z"/><path id="path44" class="cls-12" d="M44.32,86.84V95.1c-1.57-.84-3.12-1.7-4.64-2.6v1.15h0c0,31.2,26.31,56.64,58.56,56.64s58.57-25.44,58.57-56.64h0V92.49c-1.52.91-3.08,1.77-4.65,2.61V86.84l-.37.22q-4.31,2.55-8.86,4.68V67.87h1.81V64.58h1.83V55h-3.76l-13.17-7.88-13,7.88h-3.7v9.54h1.81v3.29h1.83v32.2c-1.8.32-3.6.59-5.43.81V81.49h1V78.35h1.17L99.41,60.15V57.59a2.4,2.4,0,0,0,1.26-2.11,2.43,2.43,0,1,0-4.86,0A2.41,2.41,0,0,0,97,57.54V60.2L83.16,78.35h1.22v3.14h1.17V100.9c-1.92-.23-3.83-.52-5.73-.85V67.87h1.81V64.58h1.83V55H79.71L66.54,47.16,53.5,55H49.78v9.54h1.81v3.29h1.83V91.69q-4.5-2.11-8.76-4.63l-.34-.22Z"/><path id="path44_0" data-name="path44 0" class="cls-13" d="M142.43,92l-1.27.57-.13.07v7.71c-1.63.66-3.31,1.26-5,1.85V94.69l-.33.1a103.67,103.67,0,0,1-10.63,3.42l-.18.05v7.21c-1.65.39-3.31.74-5,1.07V99.43l-.29,0c-.87.18-1.75.35-2.63.51V67.87h25.42V92Zm-31.83,9-1.59.17-.22,0v7c-1.64.15-3.32.24-5,.32v-7l-.27,0c-1.76.08-3.53.13-5.31.13s-3.55,0-5.32-.13l-.24,0v7c-1.67-.08-3.33-.17-5-.32v-7l-.22,0L86,101V81.49H110.6Zm-31.28-1c-.83-.15-1.66-.31-2.48-.48l-.28,0v7.11c-1.68-.33-3.34-.68-5-1.07V98.26l-.18-.05a103.67,103.67,0,0,1-10.63-3.42l-.32-.1v7.51q-2.53-.89-5-1.87V92.62l-.15-.07-1.4-.63v-24H79.32V100ZM52.11,64.58h29v2.79h-29Zm-1.82-9h7.82v5.27H62.7V55.54h7.82v5.27h4.6V55.54H83v8.54H50.29V55.54Zm47.18,2.23a2.37,2.37,0,0,0,.76.12,2.32,2.32,0,0,0,.7-.1v2H97.47v-2ZM84.85,78.35h26.78V81H84.85V78.35ZM98.23,53.54a1.94,1.94,0,1,1-1.94,1.94A1.94,1.94,0,0,1,98.23,53.54Zm17,11h29v2.79h-29Zm-1.83-9h7.82v5.27h4.6V55.54h7.82v5.27h4.59V55.54H146v8.54H113.39Zm-15.2,66.05a10.58,10.58,0,0,0-1.8.15l-1.82-6.39c1.21,0,2.43.05,3.66.05s2.4,0,3.6-.05l-1.83,6.4a9.83,9.83,0,0,0-1.81-.16Zm-2.28.25a10.51,10.51,0,0,0-8.2,10.25v17.28q-1.6-.28-3.18-.66V132.09A13.7,13.7,0,0,1,95,118.77Zm12.78,27.54V132.09a10.52,10.52,0,0,0-8.23-10.25l.88-3.06a13.69,13.69,0,0,1,10.53,13.31v16.65c-1.05.24-2.11.46-3.18.64Zm-14.62-34,.84,3a14.2,14.2,0,0,0-7.8,5c-.93-.08-1.85-.17-2.78-.27V114.6C87.54,115,90.79,115.22,94.07,115.33Zm-7.31,8.41A14,14,0,0,0,84,131.86q-3.57-.36-7.08-.92v-8.45q4.85.81,9.81,1.25ZM84,132.36v8.33c-2-.2-4.08-.43-6.1-.72q-4.23-.58-8.37-1.43v-8.47A132.54,132.54,0,0,0,84,132.36Zm0,8.82v7.41a58,58,0,0,1-7.21-2.23v-6.07c2.38.36,4.79.65,7.21.89Zm28.32,7.44v-7.43q3.15-.3,6.27-.74l1-.14v6.08A58.78,58.78,0,0,1,112.35,148.62Zm0-7.92v-8.34a137.75,137.75,0,0,0,14.48-2.29v8.48Q119.71,140,112.35,140.7Zm0-8.83a14.06,14.06,0,0,0-2.72-8.13c1.19-.11,2.37-.23,3.55-.37,2.11-.24,4.2-.54,6.28-.88V131q-3.53.54-7.11.92Zm-3.07-8.58a14.14,14.14,0,0,0-7.8-5l.86-3c3.28-.11,6.54-.36,9.75-.73V123c-.93.1-1.87.19-2.81.27ZM54.34,107v9c-2-.72-3.87-1.48-5.78-2.29s-4.08-1.81-6.08-2.78a54.37,54.37,0,0,1-2.4-10.69A117.2,117.2,0,0,0,54.34,107Zm.48,9.14v-9a118.44,118.44,0,0,0,14.26,4.57v8.62a126.24,126.24,0,0,1-13.89-4.1Zm86.76-8.93v9a126.71,126.71,0,0,1-14.27,4.22v-8.62a116.8,116.8,0,0,0,14.27-4.56Zm.5,8.78v-9a119.86,119.86,0,0,0,14.33-6.82,54.73,54.73,0,0,1-2.4,10.71c-2,1-4,1.91-6.09,2.78s-3.87,1.59-5.84,2.31Zm-72.52,4.5v-8.61a120,120,0,0,0,14.27,2.62V123l-.48-.06c-2.44-.28-4.85-.62-7.25-1q-3.3-.59-6.54-1.32Zm57.27-8.6v8.62A128.36,128.36,0,0,1,112.56,123v-8.43A117.67,117.67,0,0,0,126.83,111.93Zm21.46,2.13v9a.83.83,0,0,0-.08.12,137.39,137.39,0,0,1-13.52,4.52V119A126.35,126.35,0,0,0,148.29,114.06Zm.5,8.14v-8.36q2.53-1.09,5-2.29A55.41,55.41,0,0,1,148.79,122.2ZM47.63,113.84v8.25a55.08,55.08,0,0,1-4.94-10.54C44.32,112.34,46,113.12,47.63,113.84Zm.48,9v-8.82l.26.11c2.19.93,4.41,1.81,6.66,2.61s4.42,1.51,6.67,2.18v8.69l-2-.56q-5.84-1.72-11.44-3.94c-.06-.09-.12-.18-.17-.27Zm14.09,4.91V119.1c2.19.64,4.43,1.22,6.67,1.75s4.73,1.06,7.14,1.48l.46.08v8.46c-1.45-.23-2.88-.49-4.31-.76q-5.05-1-10-2.33Zm72-8.68v8.69A138.08,138.08,0,0,1,120,130.87V122.4c2.58-.44,5.14-1,7.66-1.55q3.35-.8,6.61-1.75ZM55.3,126.18v5.91a57.57,57.57,0,0,1-6.59-8.28q3.26,1.26,6.59,2.37Zm.47,6.4v-6.24q6.52,2.13,13.31,3.62v8.48c-3.2-.66-6.36-1.43-9.48-2.29C58.27,135,57,133.83,55.77,132.58Zm84.85-6.23v6.33q-1.8,1.83-3.76,3.49c-3.14.86-6.33,1.63-9.55,2.28V130a135.21,135.21,0,0,0,13.31-3.61Zm.48,5.83v-6q3.38-1.12,6.68-2.41a56.82,56.82,0,0,1-6.68,8.39Zm-64.76,8v5.95a59,59,0,0,1-15.86-9.29c2.48.67,5,1.29,7.51,1.83,2.76.58,5.54,1.09,8.35,1.51Zm43.74,6v-5.95q4.24-.65,8.41-1.53c2.54-.54,5-1.16,7.52-1.83A59.22,59.22,0,0,1,120.08,146.19ZM44.8,87.67A103.84,103.84,0,0,0,55,92.92v7.73l.15.07q2.7,1.09,5.47,2l.32.13V95.36a105.81,105.81,0,0,0,10.18,3.25v7.25l.17,0c1.81.44,3.65.83,5.49,1.18l.28.07V100c3.34.68,6.73,1.19,10.18,1.55v7l.21,0c1.82.17,3.64.31,5.47.4h.26v-7c1.69.08,3.38.15,5.08.15s3.41-.07,5.1-.15v7h.26c1.84-.09,3.65-.23,5.47-.4l.21,0v-7c3.45-.36,6.84-.87,10.18-1.55v7.15l.28-.07q2.76-.52,5.47-1.18l.19,0V98.61a105.81,105.81,0,0,0,10.18-3.25v7.54l.32-.13q2.78-1,5.47-2l.15-.07V92.9a105.92,105.92,0,0,0,10.17-5.23v8.26l.35-.2q2.43-1.29,4.78-2.69v.61h0c0,1,0,2-.09,3a115.74,115.74,0,0,1-58.49,15.76A115.63,115.63,0,0,1,39.76,96.71c0-1-.08-2-.08-3.06h0V93q2.34,1.39,4.77,2.69l.35.2V87.67Zm111.68,12a118.17,118.17,0,0,1-58.25,15.26A118,118,0,0,1,40,99.66c-.09-.79-.16-1.58-.21-2.38A116.18,116.18,0,0,0,98.23,113a116.18,116.18,0,0,0,58.46-15.71c-.06.81-.12,1.61-.21,2.41Z"/><path id="path32" class="cls-12" d="M131,94.55h-2.63V83.91H131ZM67.94,80.84H65.31V70.2h2.63Zm-2.63,0h0Zm2.63,13.71H65.31V83.91h2.63Zm-2.63,0h0ZM98.2,83.84h0s-2,2-2,3.66V99h3.9V87.5C100.15,85.79,98.2,83.84,98.2,83.84Zm32.84-3h-2.63V70.2H131Zm-2.63,0h0Zm0,13.71h0Z"/><path id="path44_1" data-name="path44 1" class="cls-14" d="M54.42,55l12.12-7.3L78.77,55H74.62v5.25H71V55H62.2v5.25H58.63V55Zm43.12,5.23h1.33l13.41,17.6H84.14l13.4-17.6Zm20-5.23,12.11-7.32L141.89,55h-4.17v5.25h-3.57V55h-8.87v5.25h-3.55V55Z"/><path id="path44_2" data-name="path44 2" class="cls-15" d="M102.76,127.53v1.73H99.32v-1.73Zm-5.92,5.93v1.72H93.39v-1.72Zm5.92,0v1.72H99.32v-1.72Zm2.46,1.72v-1.72h2.94v1.72Zm0-5.92v-1.73h1.84a8.92,8.92,0,0,1,.69,1.73Zm-.37-4.59v14l-.87,1.42-.85-1.37V123.42A9.7,9.7,0,0,1,104.85,124.67ZM99,122.14v16.5l-.87,1.42-.87-1.42V122.16c.32,0,.65,0,1,0s.51,0,.76,0Zm-2.11,5.39v1.73H93.39v-1.73Zm-3.82-4v15.08l-.87,1.4-.85-1.35V124.88A10.47,10.47,0,0,1,93,123.56Zm-2.09,5.7H88.64a10.4,10.4,0,0,1,.69-1.73h1.6Zm0,4.2v1.72h-2.7v-1.72Z"/><path id="path44_3" data-name="path44 3" class="cls-16" d="M88.23,135.55h2.7v3.2l0,.05,1,1.7.15.26.18-.26,1-1.7,0-.05v-3.2h3.45v3.2l0,.05,1.06,1.7.16.26.15-.26,1-1.7,0-.05v-3.2h3.44v3.2l0,.05,1,1.7.15.26.15-.26,1.07-1.7,0-.05v-3.2h2.94v13.92a60,60,0,0,1-9.92.82,61.18,61.18,0,0,1-10-.83V135.55Zm.31-5.92h2.39v3.46h-2.7v-1a9.93,9.93,0,0,1,.31-2.46Zm8.3,0v3.46H93.39v-3.46Zm5.92,0v3.46H99.32v-3.46Zm5.4,3.46h-2.94v-3.46h2.64a9.93,9.93,0,0,1,.3,2.46v1Zm-17.23-7.83v1.9h-1.4A9.71,9.71,0,0,1,90.93,125.26Zm5.91-3.06v5H93.39v-3.82a9.89,9.89,0,0,1,3.45-1.14Zm5.92,1v3.94H99.32v-5A9.77,9.77,0,0,1,102.76,123.22Zm4.1,3.94h-1.64V125A9.81,9.81,0,0,1,106.86,127.16Z"/><g id="g20"><path id="path146" class="cls-12" d="M69.9,19.26a2.62,2.62,0,0,1-1.56.08l-.28-.09.07.28a2.2,2.2,0,0,0,.54,1,1.69,1.69,0,0,0,1.41.49,2.21,2.21,0,0,0-.18.34l-.25.18a2.64,2.64,0,0,1-2.42.48L67,21.91a2.26,2.26,0,0,0,.5,1.22,1.89,1.89,0,0,0,1.88.54,5.88,5.88,0,0,0-.7,1.18,1.71,1.71,0,0,1-.83.83,2,2,0,0,1-1.59,0L66,25.55a2.35,2.35,0,0,0,.5,1.43,1.8,1.8,0,0,0,2.06.39,1.49,1.49,0,0,0-.12,1.32,8.45,8.45,0,0,1-3.59,2.21,49.55,49.55,0,0,0-6.63,2.6A15.15,15.15,0,0,0,55,35.63a3.78,3.78,0,0,1-1.26.85,6.68,6.68,0,0,1-2.46.33,4,4,0,0,1-1.9-.61,1.52,1.52,0,0,1-.46-2.2,4.8,4.8,0,0,1,1.62-1.4,14.42,14.42,0,0,1,2.89-1.22l7.15-2.2a7.28,7.28,0,0,0,3.4-2A3.87,3.87,0,0,0,64.47,23v0a2.61,2.61,0,0,1-.27-1.61c.17-.61.93-.77,1.5-.63a2.73,2.73,0,0,1,.93.51A2.53,2.53,0,0,0,66.36,20a2.14,2.14,0,0,0-1.52-1.14,1.83,1.83,0,0,0-1.81.63,1.43,1.43,0,0,0-.28.47A1.43,1.43,0,0,1,63,19a2,2,0,0,1,.94-.59l-.59-.11a1.9,1.9,0,0,0-1.83.46,1.38,1.38,0,0,0-.24.33,1.15,1.15,0,0,1,.66-1.22,3.43,3.43,0,0,1,1.61-.31,3.51,3.51,0,0,0-2.25-.61,2.21,2.21,0,0,0-1.78,1.22,2.68,2.68,0,0,0-.22,1.9,1.6,1.6,0,0,0,.24.56,2.06,2.06,0,0,0-1,.66,1.83,1.83,0,0,0-.38,1.22,3.21,3.21,0,0,0,1.62,2.18,4.74,4.74,0,0,1,.05-2A.87.87,0,0,1,60.5,22a1.48,1.48,0,0,0-.64,1.22,1.68,1.68,0,0,0,1.07,1.49,3.21,3.21,0,0,0,1.56.33c-.35-.3-.82-.55-1.12-.86a1,1,0,0,1-.28-.48.59.59,0,0,1,.23-.53c.26-.28.46-.29.66-.22a1.2,1.2,0,0,1,.55.58,2.86,2.86,0,0,1,.26,2,2.51,2.51,0,0,1-.66,1,5.59,5.59,0,0,1-1.76.87l-.47.16c-.06-.68.65-1,1.12-1.19l.53-.19c-.2-.06-.42-.1-.61-.15a2,2,0,0,0-1.81.23,1.41,1.41,0,0,0-.48,1,4.19,4.19,0,0,1,0,.44.56.56,0,0,1-.39.41,1.07,1.07,0,0,0,.23-.45,1,1,0,0,0-.17-.85.8.8,0,0,1-.13-.92.84.84,0,0,1,.68-.37,1.7,1.7,0,0,1,.87.08h0a.54.54,0,0,0-.16-.24A1.85,1.85,0,0,0,58.21,25a2,2,0,0,0-1.74,1.54,8.85,8.85,0,0,0-.39,1.64.87.87,0,0,1-.42.64.85.85,0,0,1-.21-1,2.39,2.39,0,0,1,.82-.79,3.22,3.22,0,0,0-1.51.27,1,1,0,0,0-.42.52,11,11,0,0,1-.26,1.09,3.15,3.15,0,0,1-.22.29A1.11,1.11,0,0,0,53.77,28c-.19-.3-.33-.64-.08-.93a1.15,1.15,0,0,1,.81-.3,1.56,1.56,0,0,1,.76.11.76.76,0,0,0-.21-.27,1.78,1.78,0,0,0-1.32-.34A2,2,0,0,0,52,27.92a8.54,8.54,0,0,0-.35,1.59.76.76,0,0,1-.3.63,1.06,1.06,0,0,1-.45-.5.78.78,0,0,1,0-.54,2.33,2.33,0,0,1,.81-.87,1.57,1.57,0,0,0-1.72.61,4.33,4.33,0,0,0-.33,1.08c0,.13-.06.3-.09.46a.92.92,0,0,1-.11.33,8.67,8.67,0,0,1-1,.78,3.85,3.85,0,0,0-1.85,2.64,3.75,3.75,0,0,0,2.87,4.38,8.68,8.68,0,0,0,3.31.34,6.09,6.09,0,0,0-.26,4.58c.13.33.41.83.59,1.31a2.47,2.47,0,0,1,.18.65.47.47,0,0,1-.14.39,2.32,2.32,0,0,1-.5.24,2.6,2.6,0,0,1-.8.26,3.29,3.29,0,0,0-1.26.18,1.41,1.41,0,0,0-.9,1.5,2.18,2.18,0,0,0,.39,1,14.84,14.84,0,0,0,.05,2,6.33,6.33,0,0,0,.71,2.19,1.61,1.61,0,0,0-.65,1.25,1.36,1.36,0,0,0,.82,1.29,2.32,2.32,0,0,0,.37.13c.14.07.43.25.38.45s-.34.36-.53.48a1.94,1.94,0,0,0,1,.3,1.18,1.18,0,0,0,1.1-.65,1,1,0,0,0,1,.31c.11,0,.43.07.39.25a1.84,1.84,0,0,1-.46.65,2,2,0,0,0,1.05,0,1.27,1.27,0,0,0,.92-1.13,1.47,1.47,0,0,0-.12-.9,2,2,0,0,0,.25-.11c.14,0,.36,0,.39.2a1.53,1.53,0,0,1-.13.66,2.13,2.13,0,0,0,1-.42,1.24,1.24,0,0,0,.37-1.4,1.37,1.37,0,0,0-1.16-1.06,1.3,1.3,0,0,0-1-.54,1.25,1.25,0,0,0-.48.07c-.06,0-.1,0-.16,0a2.1,2.1,0,0,0-.78-.45A8,8,0,0,1,54,50.64a2.32,2.32,0,0,1,.78-1.86,6.19,6.19,0,0,1,1.44-1,14.87,14.87,0,0,0,2.62-1.67,7.81,7.81,0,0,0,2.38-2.88,5,5,0,0,0,1.47,1c.14.06.35.14.34.32a.87.87,0,0,1-.34.44,11.48,11.48,0,0,1-1.41.94c-.16.1-.61.23-1,.45a1.67,1.67,0,0,0-1,1.14,1.48,1.48,0,0,0,.37,1.16,1.64,1.64,0,0,0,.52.43,1.14,1.14,0,0,0,.9,0,8,8,0,0,0,3.82.72,2,2,0,0,1,.37,0,.67.67,0,0,1,.5.22,1.33,1.33,0,0,1,.09.42,1.17,1.17,0,0,0,.41.84,1.4,1.4,0,0,0,.8.38c.06.53-.32.56-.67.65a2.35,2.35,0,0,0,1.27.52,1.06,1.06,0,0,0,.79-.27,1.84,1.84,0,0,0,.44-.94,1.17,1.17,0,0,0,.61,0c.31.5,0,.6-.26.91a2.46,2.46,0,0,0,1.41-.28,1.18,1.18,0,0,0,.52-.73,1.81,1.81,0,0,0-.22-1l.14-.1a.47.47,0,0,1,.21.13c.29.29.1.79,0,1.14a2.34,2.34,0,0,0,1-.45,1.54,1.54,0,0,0,.46-1.64,1.7,1.7,0,0,0-1.24-1.06,1.3,1.3,0,0,0-.78-.82,3.72,3.72,0,0,0-1.05-.22c-.94-.07-2.12.41-3.44-.62a4.77,4.77,0,0,0,1.13-.28,3,3,0,0,0,1.94-2.09,4.39,4.39,0,0,0-.7-3.29,7.11,7.11,0,0,0-.84-1.06,12.22,12.22,0,0,0,1.34-.19,1.59,1.59,0,0,0,.78,1.2c.07-.4.11-.8.51-1,.1.44.46.64.87.83a1,1,0,0,1,.3-1.06,1,1,0,0,0,1,.64.9.9,0,0,1,.24-1,1.63,1.63,0,0,0,1.13.65c-.19-.39-.42-.77,0-1.09a1,1,0,0,0,.34.56.92.92,0,0,0,.61.27,2.64,2.64,0,0,0,1.31-.31c-.24-.17-.62-.39-.71-.68a.47.47,0,0,1,0-.32,3,3,0,0,1,.49-.68c.11.28.36.94.5,1.26a1.27,1.27,0,0,0,.74.63,2.27,2.27,0,0,0,1.26.11,2.4,2.4,0,0,1,.28,0,6.22,6.22,0,0,1,1.22.3,37.47,37.47,0,0,0,4.23,1.16,12.91,12.91,0,0,0,2.06.25,2.4,2.4,0,0,0,1.28-.24,1.62,1.62,0,0,0,1.32.73,1.28,1.28,0,0,0,1.18-.69,1.87,1.87,0,0,1,1.27.67,3.48,3.48,0,0,0,0-1.28,1.42,1.42,0,0,0-.94-1,2,2,0,0,0,.15-.28,1.17,1.17,0,0,1,.46-.07c.45,0,.53.35.72.68a3.55,3.55,0,0,0,0-1.3,1,1,0,0,0-1-.84,1.37,1.37,0,0,0-.5.1,1.68,1.68,0,0,0,0-.51.87.87,0,0,1,.39-.22c.32-.1.48.11.68.32a2.25,2.25,0,0,0,0-1,1.14,1.14,0,0,0-1.27-.8,2.67,2.67,0,0,0-.7.21,1.62,1.62,0,0,0-1.63.55,2,2,0,0,0-.37.61l0,.06a1.64,1.64,0,0,1-1.26.46,6.11,6.11,0,0,1-1.2-.13,6.58,6.58,0,0,1-2.72-1,10.19,10.19,0,0,1-.91-.6,6.77,6.77,0,0,0,1.26-.15c-.77-.28-1.42-.51-1.71-1.4a1.7,1.7,0,0,0,.31.18,2.32,2.32,0,0,0,2.07,0,11.16,11.16,0,0,1-.91-.91l-.09-.1c.26-.17.51-.34.74-.51a20.06,20.06,0,0,0,2.2-1.92,17.66,17.66,0,0,0,2-2.29,7.78,7.78,0,0,0,.81-1.33,2,2,0,0,0,.17-.91,1.25,1.25,0,0,0,1.24-.35,1.1,1.1,0,0,0,.31-.82.68.68,0,0,1,.52-.25c.19,0,.26.14.39.26l0-.32A1.28,1.28,0,0,0,89.82,24a1.1,1.1,0,0,0-1.11,0,5.41,5.41,0,0,0-.17-.52s0,0,0,0a1.16,1.16,0,0,1,.15-.4c.2-.3.52-.19.83-.15a2,2,0,0,0-.53-.76A1.33,1.33,0,0,0,87.62,22a2,2,0,0,0-.67.54,1.08,1.08,0,0,1-.35-.28c-.06-.09-.07-.12,0-.2a1,1,0,0,1,.56-.32l.31-.09a2.4,2.4,0,0,0-.87-.48,1.45,1.45,0,0,0-1.27.28.93.93,0,0,0-.26,1.09.78.78,0,0,0-.33.35,2.14,2.14,0,0,0,0,1.59,1.69,1.69,0,0,1-.32,1.72A15.47,15.47,0,0,1,82,28.14a10.55,10.55,0,0,1-1.88,1L80,29a3.31,3.31,0,0,0,1.26-1.58,7.34,7.34,0,0,1-1.85.44,3.1,3.1,0,0,1-1.83-.32,1.43,1.43,0,0,1-.66-.73,1.4,1.4,0,0,1-.06-.61,1.31,1.31,0,0,1,.24.22,1.18,1.18,0,0,1,.24.39l0,.07.06,0a1.22,1.22,0,0,0,1.14-.13,1.41,1.41,0,0,0,.54-.57,1,1,0,0,0-.13-.89,1.32,1.32,0,0,0-.48-.43L78.6,24l.05-.39-.31.24-.88.65a1.76,1.76,0,0,1-.29-.24.44.44,0,0,1-.14-.37.65.65,0,0,1,.37-.45,1.46,1.46,0,0,1,1.18-.09,1.32,1.32,0,0,1,.74.43l.26.32h0a.53.53,0,0,1-.17.31,3.71,3.71,0,0,1-.72.43A1.32,1.32,0,0,0,80,25.2a2.82,2.82,0,0,0,.72-.46l.07-.06a1.27,1.27,0,0,0,.54-.38A3.54,3.54,0,0,0,82,23.22c.13,0,.27-.09.32-.18a.77.77,0,0,0,.1-.23.75.75,0,0,0,0-.3,1,1,0,0,0-.17-.51,9.46,9.46,0,0,0-1.11-1.36,2,2,0,0,0-.44-1.13,4.49,4.49,0,0,0-.78-.65,6.24,6.24,0,0,1-.59-.46c-.16-.21-.24-.41-.39-.63a2.82,2.82,0,0,0-.74-.72,4.32,4.32,0,0,0-1.66-.8,3,3,0,0,0-1.24-1.18.23.23,0,0,0-.18,0,1.77,1.77,0,0,0-.73.41,2.37,2.37,0,0,0-.78,1.15l-.27,0a1.59,1.59,0,0,1-.87-.69A4.43,4.43,0,0,1,72,15l-.17.18a1.82,1.82,0,0,0-.55,2.07,2.13,2.13,0,0,0,1,.92,1.45,1.45,0,0,1-.85.06,4.58,4.58,0,0,1-1.61-1.11l-.26-.24,0,.35a3,3,0,0,0,.42,2Z"/><path id="path146_4" data-name="path146 4" class="cls-15" d="M61.4,42.9l.26-.65a3.19,3.19,0,0,1,1.55-2A3.93,3.93,0,0,1,65,40c.52,0,1.52.08,2,.09h.31a6.25,6.25,0,0,1,1,1.22,4,4,0,0,1,.65,3,2.61,2.61,0,0,1-1.74,1.85,4.67,4.67,0,0,1-1.42.29H65.8a7.92,7.92,0,0,0-1.82,0,2.64,2.64,0,0,0-.95.26.84.84,0,0,0-.48.84c.11.62,1.09.89,1.59,1a12.11,12.11,0,0,0,1.9.29h0a11,11,0,0,1-1.89-.34c-.46-.13-1.41-.42-1.5-1a.74.74,0,0,1,.44-.71,2.29,2.29,0,0,1,.9-.22,7.62,7.62,0,0,1,1.84.19c1.53,1.43,3,.86,3.89.92a3.39,3.39,0,0,1,.91.18.93.93,0,0,1,.66.8,1.48,1.48,0,0,1,1.21.88,1.22,1.22,0,0,1-.71,1.51,1.1,1.1,0,0,0-.23-.88.89.89,0,0,0-.24-.17,1.18,1.18,0,0,0,.17-.55.54.54,0,0,0-.09-.26.66.66,0,0,1-.26.64,2.83,2.83,0,0,1-.45.32.84.84,0,0,0-.45-.18,1.26,1.26,0,0,0-.32-.83.82.82,0,0,0-.46-.24L69,48.89l.48.14a.72.72,0,0,1,.37.27,1.11,1.11,0,0,1,.15.87l0,.19.19,0a.43.43,0,0,1,.33.11,1,1,0,0,1,.33.43,1.2,1.2,0,0,1,.07.59c-.09.45-.53.57-.91.66a.91.91,0,0,0-.18-.73,1.32,1.32,0,0,0,.21-.66,1.12,1.12,0,0,1-.5.53.74.74,0,0,1-.59,0,1.17,1.17,0,0,0-.35-.5,1.08,1.08,0,0,0-.12-1.17c.29.36.08.88-.14,1.22a1,1,0,0,1,.32.6,1.46,1.46,0,0,1-.37.9,1,1,0,0,1-1.07.05.82.82,0,0,0,.23-.79,2.4,2.4,0,0,0,.5-.39,2,2,0,0,1-.68.15,1,1,0,0,1-.66-.25.94.94,0,0,1-.36-.67c0-.09,0-.2,0-.31a1.15,1.15,0,0,1,0-.26.88.88,0,0,1,.43-.57h0a.94.94,0,0,0-.59.53,1,1,0,0,0-.69-.34,3,3,0,0,0-.55,0,8.24,8.24,0,0,1-3.7-.75.83.83,0,0,1-1.16-.28,1.21,1.21,0,0,1-.3-.89,1.28,1.28,0,0,1,.78-.9c.39-.2.81-.3,1.07-.46a13,13,0,0,0,1.46-1c.29-.25.64-.68.33-1a1.1,1.1,0,0,0-.42-.28,4.86,4.86,0,0,1-1.45-1Zm20.5-9.53a2.68,2.68,0,0,1-.49-.92c-.12-.64,0-2.16-1-3.09a10.8,10.8,0,0,0,1.78-.94,15.12,15.12,0,0,0,2.46-2A2.05,2.05,0,0,0,85,24.41,1.82,1.82,0,0,1,85,23a.67.67,0,0,1,.39-.35c-.12-.36-.2-.68.13-1a1,1,0,0,1,1.22-.08,1.2,1.2,0,0,0-.46.28.5.5,0,0,0,0,.49,1.62,1.62,0,0,0-.71.24h0a1.23,1.23,0,0,1,1,.05h0a1,1,0,0,0-.6.9,1.34,1.34,0,0,0,.58,1.2h0a1.24,1.24,0,0,1-.41-1.18.84.84,0,0,1,.28-.52A.61.61,0,0,1,87,23a2.22,2.22,0,0,1,.74-.66.92.92,0,0,1,1.22.33.51.51,0,0,0-.56.22,1.13,1.13,0,0,0-.15.32.94.94,0,0,0-.66-.05.77.77,0,0,1,.4.14,1,1,0,0,1,.37.67,1.09,1.09,0,0,0-.65.2,1,1,0,0,0-.45.84.92.92,0,0,1,.53-.7.87.87,0,0,1,.89.1l.09-.09a.89.89,0,0,1,1.37.64,1,1,0,0,0-.64.16.88.88,0,0,0-.57-.31.68.68,0,0,1,.36.63.85.85,0,0,1-.26.67,1.06,1.06,0,0,1-1.07.26l-.28-.11.06.29a1.65,1.65,0,0,1-.22.93,7.08,7.08,0,0,1-.76,1.27,16.86,16.86,0,0,1-2,2.24,19.59,19.59,0,0,1-2.16,1.9,8.88,8.88,0,0,1-.75.5ZM68.55,29.05a1.12,1.12,0,0,1-.1.81,1.38,1.38,0,0,1-1.15.61l-.33,0a1.78,1.78,0,0,0,2,.68,2.89,2.89,0,0,0,1.27-.91.75.75,0,0,1,.18.34,1,1,0,0,1-.18.76L70,31.8l.45-.18a2.8,2.8,0,0,0,1.35-1.15,1.15,1.15,0,0,1-.65,1.37,2.11,2.11,0,0,0,1.22.07,2.17,2.17,0,0,0,1.32-1.25A1,1,0,0,1,74,31.75a1,1,0,0,0,.63-.32,1.57,1.57,0,0,0,.33-.66,1,1,0,0,1,.32.68.75.75,0,0,1-.19.5l-.29.33a1.65,1.65,0,0,0,.87-.24,2.51,2.51,0,0,0,.47-.43,4.85,4.85,0,0,1-1,1.45,3.41,3.41,0,0,0,1.63-.75,1.94,1.94,0,0,0,.07,1.49l.13.26.16-.26A11.3,11.3,0,0,1,78,32.52a3,3,0,0,1-.58,1.72l-.26.35.44-.09a1.22,1.22,0,0,0,.45-.24,3.46,3.46,0,0,0,.63-.58A2.79,2.79,0,0,0,79.15,35a2.53,2.53,0,0,0,1.34.95,10.35,10.35,0,0,0,1.42,1,7.1,7.1,0,0,0,2.84,1,5.67,5.67,0,0,0,1.26.15,2,2,0,0,0,1.57-.66l0,0a2.07,2.07,0,0,1,.34-.54A1.26,1.26,0,0,1,89,36.32c.24,0,.3.07.43,0a2.1,2.1,0,0,1,.62-.18A.84.84,0,0,1,91,37a.79.79,0,0,0-.48,0,1.38,1.38,0,0,0-.42.21,1.87,1.87,0,0,0-.64-.64,1.65,1.65,0,0,1,.4.72,1.22,1.22,0,0,1,0,.6,1.15,1.15,0,0,0-.68-.12.84.84,0,0,0-.71.71h0a.76.76,0,0,1,.72-.55,1,1,0,0,1,.84.57,1.05,1.05,0,0,1,.64-.22.79.79,0,0,1,.74.93,1.14,1.14,0,0,0-.92-.06,1.13,1.13,0,0,0-.27-.49,1.11,1.11,0,0,1,0,.65,1.17,1.17,0,0,1-.24.39,1.44,1.44,0,0,0-1-.35c-.3,0-.81.21-.88.54h0c.12-.29.6-.39.88-.37a1.12,1.12,0,0,1,.81.44c.63.11,1,.28,1.23,1a1.22,1.22,0,0,1,0,.47,1.6,1.6,0,0,0-.9-.32,1.6,1.6,0,0,0-.14-.72h0a1.18,1.18,0,0,1,0,.42,1.94,1.94,0,0,1-.25.57.9.9,0,0,1-.87.4,1.43,1.43,0,0,1-1.21-.87c-.26.29-.61.39-1.32.39a11.77,11.77,0,0,1-2-.25,35.86,35.86,0,0,1-4.19-1.15,6.85,6.85,0,0,0-1.6-.34h-.05a1.85,1.85,0,0,1-1.08-.08,1.07,1.07,0,0,1-.57-.47c-.11-.24-.36-.89-.49-1.25-.08-.19-.11-.39-.18-.58a1,1,0,0,0-.31-.46,3.08,3.08,0,0,0-.44-.27,2.9,2.9,0,0,1-.41-.27,2.4,2.4,0,0,1-.89-1.69h0a2.5,2.5,0,0,0,.8,1.8,3.9,3.9,0,0,0,.4.31,4.18,4.18,0,0,1,.38.29,1,1,0,0,1,.25.59,4.43,4.43,0,0,0-.7,1,.89.89,0,0,0,0,.55,1.22,1.22,0,0,0,.36.5,1.11,1.11,0,0,1-1-.13,1.66,1.66,0,0,1-.31-.87c-.44.29-.84.48-.82,1.1A.73.73,0,0,1,73,39,1.38,1.38,0,0,0,72.21,40a.8.8,0,0,1-.33-.71,1.38,1.38,0,0,0-.91,1c-.2-.15-.23-.5-.26-.73-.55.24-.78.37-1,.9a2.33,2.33,0,0,1-.28-.74,12.89,12.89,0,0,0,1.59-.53,9.52,9.52,0,0,0,2.7-1.59A9.44,9.44,0,0,1,71,39.05a12.82,12.82,0,0,1-1.5.42,10.26,10.26,0,0,1-2.4.31c-.51,0-1.54-.08-2.07-.1a5.94,5.94,0,0,0-1.1,0l.45-.31a13.78,13.78,0,0,1,1.44-.16c.5,0,1-.07,1.49-.13a11.88,11.88,0,0,0,2.9-.74A11.61,11.61,0,0,1,67.3,39c-.49,0-1,.06-1.49.07s-1,0-1.53.11l-1.44.93a3.72,3.72,0,0,0-1.49,2,7.36,7.36,0,0,1-2.7,3.71,15.3,15.3,0,0,1-2.57,1.65,6.61,6.61,0,0,0-1.47,1,2.81,2.81,0,0,0-.91,2.15,9,9,0,0,0,.48,2.07l0,.13a.91.91,0,0,1,.53.18c.16.11.3.23.3.23a.4.4,0,0,0,.26.08.85.85,0,0,0,.25-.05.7.7,0,0,1,.41,0,.87.87,0,0,1,.7.51,1,1,0,0,1,1,.81,1,1,0,0,1-.55,1.26v-.21a.58.58,0,0,0-.43-.46.89.89,0,0,0,.11-.35,1,1,0,0,0-.23-.59.69.69,0,0,1-.07.78,1.32,1.32,0,0,1-.51.28,1,1,0,0,0-.75-.37,1.86,1.86,0,0,0-.08-.41,1.18,1.18,0,0,0-.68-.78,1.43,1.43,0,0,0-.5-.09,1.56,1.56,0,0,1,.48.14,1.1,1.1,0,0,1,.54.77,2,2,0,0,1,0,.59.89.89,0,0,1,.5.13A1.18,1.18,0,0,1,56,56.46a.92.92,0,0,1-.54.81,1.14,1.14,0,0,1-.48.09,1.68,1.68,0,0,0,.15-.3.57.57,0,0,0-.09-.47.75.75,0,0,0-.27-.18.75.75,0,0,0,.1-.2,1,1,0,0,0,0-.52.94.94,0,0,1-.17.45.77.77,0,0,1-.79.23.65.65,0,0,1-.38-.32,1.56,1.56,0,0,0,0-.83,1.24,1.24,0,0,0-.44-.69,1.12,1.12,0,0,0,.12-.54.89.89,0,0,0-.26-.54.83.83,0,0,1,.19.54.94.94,0,0,1-.24.57,1,1,0,0,1,.4.7,1.7,1.7,0,0,1-.19.86.93.93,0,0,1-1.19.55,1,1,0,0,0,.2-.34.68.68,0,0,0-.28-.67.73.73,0,0,0,.19-.07,1,1,0,0,0,.5-.58.92.92,0,0,1-.56.43,1.17,1.17,0,0,1-.74-.07,1,1,0,0,1-.68-1,1.31,1.31,0,0,1,.42-.92,1.51,1.51,0,0,1,.88-.42,2.11,2.11,0,0,1,.78.11,2,2,0,0,0-.77-.27,1.38,1.38,0,0,0-.7.07,6.22,6.22,0,0,1-.68-2,17.06,17.06,0,0,1,0-2l0-.11a1.36,1.36,0,0,1-.35-.83,1.09,1.09,0,0,1,.7-1.18,3.13,3.13,0,0,1,1.13-.15,2.69,2.69,0,0,0,1-.28,5.61,5.61,0,0,0,.54-.29.81.81,0,0,0,.26-.67,2,2,0,0,0-.17-.74c-.19-.51-.51-1-.61-1.31a6.51,6.51,0,0,1,.37-4.62l.13-.27-.31,0a8.49,8.49,0,0,1-3.46-.3,3.37,3.37,0,0,1-2.63-4,3.52,3.52,0,0,1,1.69-2.39A10.3,10.3,0,0,0,49.76,31a.76.76,0,0,0,.22-.5c0-.19.05-.38.07-.44a4.3,4.3,0,0,1,.3-1,.81.81,0,0,1,.57-.41,1.21,1.21,0,0,0-.31,1.13,1.41,1.41,0,0,0,.79.82,1.14,1.14,0,0,0,.61-1A7.49,7.49,0,0,1,52.33,28a1.83,1.83,0,0,1,1.43-1.37.89.89,0,0,0-.53.8,1.36,1.36,0,0,0,.26.74.72.72,0,0,1,.08.77,6.9,6.9,0,0,1-.43.67l-.28.48.5-.24a2,2,0,0,0,1-.89,5.27,5.27,0,0,0,.28-1.13c.11-.32.36-.4.65-.48a.87.87,0,0,0-.15.21,1.24,1.24,0,0,0-.11.7,1.68,1.68,0,0,0,.58.89,1.3,1.3,0,0,0,.8-1,7.9,7.9,0,0,1,.37-1.59,1.79,1.79,0,0,1,1-1.22,1.11,1.11,0,0,1,.51-.1,1,1,0,0,0-.45.39A1.12,1.12,0,0,0,58,27a.67.67,0,0,1,.13.57,1.63,1.63,0,0,1-.8.91,3.43,3.43,0,0,0-.49.36,1.86,1.86,0,0,0,.93-.17c.43-.15,1-.38,1.16-.88a4,4,0,0,0,0-.5c.09-.79.67-1,1.4-1a1.58,1.58,0,0,0-.75.82,1.1,1.1,0,0,0,0,.88l.8-.26a5.71,5.71,0,0,0,1.87-1,2.75,2.75,0,0,0,.74-1.14,2.9,2.9,0,0,0-.26-2.28,1.51,1.51,0,0,0-.74-.77,1.1,1.1,0,0,0-1.33,1.14,1.37,1.37,0,0,0,.37.69,1.32,1.32,0,0,1-.93-1.22,1.14,1.14,0,0,1,.45-.93,2.82,2.82,0,0,1,1-.43,2,2,0,0,0-1.54-.08,1.35,1.35,0,0,0-.64.79A4.11,4.11,0,0,0,59.3,24a2.34,2.34,0,0,1-.87-1.49,1.59,1.59,0,0,1,1.51-1.64,3,3,0,0,1,1.12,0,1.55,1.55,0,0,0-1.2-.3,1.56,1.56,0,0,1-.27-.57,2.33,2.33,0,0,1,.19-1.66,1.87,1.87,0,0,1,1.53-1,2.56,2.56,0,0,1,1,.1,1.91,1.91,0,0,0-.58.2,1.62,1.62,0,0,0-.72.72,2.58,2.58,0,0,0,.22,1.94l.11-.61a1.67,1.67,0,0,1,.37-.65,1.53,1.53,0,0,1,1.23-.4,1.77,1.77,0,0,0-.42,2l.15.45a3.34,3.34,0,0,1,.61-1.24,1.42,1.42,0,0,1,1.48-.52,1.79,1.79,0,0,1,1.44,1.39A1.86,1.86,0,0,0,65,20.41a1.34,1.34,0,0,0-1.15.91,3,3,0,0,0,.28,1.83A3.53,3.53,0,0,1,63.73,27a7.13,7.13,0,0,1-3.25,1.87l-7.12,2.18a14.72,14.72,0,0,0-3,1.26,5.27,5.27,0,0,0-1.72,1.5,1.85,1.85,0,0,0,.55,2.64,4.16,4.16,0,0,0,2.07.67,6.83,6.83,0,0,0,2.59-.34,4.38,4.38,0,0,0,1.37-.92,14.89,14.89,0,0,1,3.14-2.07,49.79,49.79,0,0,1,6.57-2.59,9.16,9.16,0,0,0,3.61-2.16Zm9.62-4.24-.09,0a1,1,0,0,1-.29-.09l.42-.32,0,.44Zm-1.59,1.25a1.74,1.74,0,0,0,0,.92,1.93,1.93,0,0,0,.84.9,3.47,3.47,0,0,0,2,.35A4.82,4.82,0,0,0,80.56,28a5,5,0,0,1-1.22,1.08l.26.11c1.54.69,1.32,2.4,1.49,3.31A3.33,3.33,0,0,0,82,34c.26.3.38.45.51.57a1.79,1.79,0,0,1-1.27-.15,2.46,2.46,0,0,1-1-1.1,4.43,4.43,0,0,1-.56-1.41,1.94,1.94,0,0,1,0-.76,2,2,0,0,0-.08.77A4.93,4.93,0,0,0,80,33.38a6.67,6.67,0,0,0,.35.71h0v0a2.13,2.13,0,0,0,.9,1.58,2.23,2.23,0,0,1-1.84-.93,2.37,2.37,0,0,1-.39-.87,1,1,0,0,1,0-.55,1.06,1.06,0,0,0,.06-.19.27.27,0,0,0,0-.13l-.1-.29-.17.25a4.34,4.34,0,0,1-.79.88,3.45,3.45,0,0,0,.31-1.78l0-.3L78,32a5.19,5.19,0,0,0-.74,1c-.08.14-.17.26-.23.36a2.35,2.35,0,0,1,0-.79,3,3,0,0,1,.41-.92,2.1,2.1,0,0,0,.22-.34A.21.21,0,0,0,77.6,31l-.11,0-.06.11a3.52,3.52,0,0,1-1.31,1.32,3,3,0,0,0,.41-.93,1.21,1.21,0,0,0-.11-.89l-.17.31a2.42,2.42,0,0,1-.65.78,1.12,1.12,0,0,0-.16-.83,2.4,2.4,0,0,0-.76-.76,1.4,1.4,0,0,1-.31,1.14,1.29,1.29,0,0,0-.3-.62,2,2,0,0,0-.83-.57,3,3,0,0,0-.87-.19,3.32,3.32,0,0,1,.8.34,2.48,2.48,0,0,1,.26.19,1.76,1.76,0,0,1-1.59,1.27,1.38,1.38,0,0,0,.29-1,2,2,0,0,0-.3-.82,3,3,0,0,0-.07-.85,2.71,2.71,0,0,1-.17,1.09h0a.36.36,0,0,1,0,.09,2.14,2.14,0,0,1-.85.94,1.11,1.11,0,0,0-.28-1.1,2.16,2.16,0,0,0,.17-.75,3.31,3.31,0,0,0-.07-.89,3.07,3.07,0,0,1-.09.86,2.21,2.21,0,0,1-.34.73,2.27,2.27,0,0,1-1.79,1,1.5,1.5,0,0,1-.57-.2,1.73,1.73,0,0,0,1-.73,1.55,1.55,0,0,0,0-1.39,1.46,1.46,0,0,1,.37-1.48h0l0,0a5.42,5.42,0,0,1,.85-1h0a9.39,9.39,0,0,0,.37,1.49l.17.51.15-.51a2.76,2.76,0,0,1,.43-.8A2.22,2.22,0,0,0,72.35,29h0a2.61,2.61,0,0,1-.76-2.68l.12-.5-.39.34a3.23,3.23,0,0,0-.71.9,5.87,5.87,0,0,1-.26-1.3v-.23a2.76,2.76,0,0,0,.06-.4,3.31,3.31,0,0,0-.07-.89,3,3,0,0,1-.1.86,2.2,2.2,0,0,1-.23.57,5.07,5.07,0,0,0-1.11,1.26,2.57,2.57,0,0,1-1.41.3,1.2,1.2,0,0,1-.76-.41,1.63,1.63,0,0,1-.33-.71A2.18,2.18,0,0,0,68,26a2.06,2.06,0,0,0,1-1,9,9,0,0,1,.77-1.26l0,.24.24-.48a5.1,5.1,0,0,1,1.07-1.42A5,5,0,0,1,72,21.4a12.29,12.29,0,0,1-1.06,1.69,2.27,2.27,0,0,0-.36,1.06,2.58,2.58,0,0,0,.34,1.27l.33.61v-.61a2.35,2.35,0,0,1,1.22-1.88,2.75,2.75,0,0,0,0,1.88,2.61,2.61,0,0,1,.11,1.91l-.13.37a2,2,0,0,0,1.12-.79,2.93,2.93,0,0,0,.32-1.45c0-.32,0-.59,0-.85a.88.88,0,0,0,.24.48,5.08,5.08,0,0,0,1.87.74,4,4,0,0,1,.57.23Zm-6.93-2.79a1.57,1.57,0,0,1-2.23-.87,3.06,3.06,0,0,0,2.3-.51,4,4,0,0,0-.07,1.38Zm.77-2.67a1.37,1.37,0,0,1-1.48-.3,1.41,1.41,0,0,1-.37-.56,3.32,3.32,0,0,0,1.57-.21,2.62,2.62,0,0,0,1,.55,3.13,3.13,0,0,0-.77.52Zm10.37-.18-.46-.18-.43-.16a10,10,0,0,1-1-.43,5.83,5.83,0,0,1-.86-.57,4.23,4.23,0,0,1-.72-.75s-.05,0-.08,0a.08.08,0,0,0,0,.09,4.84,4.84,0,0,0,.68.83,4.49,4.49,0,0,0,.46.39,1.92,1.92,0,0,0,.18.74,1.58,1.58,0,0,0,.24.39.87.87,0,0,0,.74.29.77.77,0,0,0,.51-.4l0,0,.94.44A7.93,7.93,0,0,1,82,22.17a1.12,1.12,0,0,1,.12.27.37.37,0,0,0-.15,0,.48.48,0,0,0-.37.21l-.07.12a2.26,2.26,0,0,1-.26-.16,2.13,2.13,0,0,1-.6-.56h0a2.36,2.36,0,0,0,.48.7,5.8,5.8,0,0,0,.52.47,3.63,3.63,0,0,1-.54.91.94.94,0,0,1-.42.28.5.5,0,0,1-.46-.11,4.41,4.41,0,0,1-.65-.67,1.67,1.67,0,0,0-.89-.53h0a1.84,1.84,0,0,0-1.38.11.92.92,0,0,0-.56.7.72.72,0,0,0,.19.57,2.25,2.25,0,0,0,.46.41,2.33,2.33,0,0,0,.65.26,1.1,1.1,0,0,1,.66.44.62.62,0,0,1,0,.69,1.48,1.48,0,0,1-.35.31.87.87,0,0,1-.8.11,1.27,1.27,0,0,0-.24-.42,2.6,2.6,0,0,0-1.22-.74,5.45,5.45,0,0,1-1.74-.67.53.53,0,0,1-.2-.37,2.23,2.23,0,0,1,.11-.72l.11-.42a1.47,1.47,0,0,0-.81,1.09,9.11,9.11,0,0,0,0,1.05,2.54,2.54,0,0,1-.12,1A1.83,1.83,0,0,1,73,27a3.66,3.66,0,0,0-.23-1.75,2.55,2.55,0,0,1,.08-2.09l.22-.5c-.17.12-.35.26-.52.37A3.71,3.71,0,0,0,71,24.84a1.73,1.73,0,0,1,.15-1.56,9.3,9.3,0,0,0,1.22-2.09l.07-.24-.24,0a2.74,2.74,0,0,0-1.39.86,5.36,5.36,0,0,0-.84,1,3,3,0,0,1,.16-1.35,2.52,2.52,0,0,1,1.53-1.33l.52-.2-.55-.11a2.33,2.33,0,0,1-1.48-.8,2.61,2.61,0,0,1-.34-1.45,4.23,4.23,0,0,0,1.45.92,2,2,0,0,0,1.44-.26l.61-.28-.59,0a1.49,1.49,0,0,1-1.17-.83,1.44,1.44,0,0,1,.35-1.53,2.16,2.16,0,0,0,.26.48,1.58,1.58,0,0,0,1.36.86,1.63,1.63,0,0,0,.21.89,1.76,1.76,0,0,1-.06-.82,2.24,2.24,0,0,1,.88-1.31,1.77,1.77,0,0,1,.6-.33,3.08,3.08,0,0,1,1.2,1.12,4.05,4.05,0,0,1,.5,1.66,3.32,3.32,0,0,0-.15-1.53,4.19,4.19,0,0,1,1.27.68,2.69,2.69,0,0,1,.66.66,7.21,7.21,0,0,0,.43.65,3.23,3.23,0,0,0,.63.52,4.25,4.25,0,0,1,.74.59,1.86,1.86,0,0,1,.34.69Zm1.3,2.13a.5.5,0,0,1-.09.3.22.22,0,0,1-.11.1l-.35-.19.09-.09a.43.43,0,0,1,.41-.14l0,0Zm-8.34-4.71,6.1,6.54.17.14a1,1,0,0,0,.25.14,1.62,1.62,0,0,1-.36.21.49.49,0,0,1-.48-.06,1.21,1.21,0,0,0,.2-.14A1,1,0,0,0,79.85,24.38Z"/><path id="polygon222" class="cls-17" d="M53.76,38.39l.56-.32Z"/><path id="path146_5" data-name="path146 5" class="cls-13" d="M78.55,19.73l.25.17c.19.12.39.23.62.35l0,.05a.37.37,0,0,0,0,.46.18.18,0,0,0,.07,0l-.11,0h0a1,1,0,0,1-.55-.5,2.31,2.31,0,0,1-.19-.56Zm1.06.62.13.07.09,0a.69.69,0,0,1-.14.22.12.12,0,0,1-.09-.05.23.23,0,0,1,0-.28Z"/><path id="path190" class="cls-12" d="M78.77,30.76a3,3,0,0,1-.72-.65,3.51,3.51,0,0,1-.59-1.05,1.45,1.45,0,0,0-.18.89l.06.55L77,30.08a3.16,3.16,0,0,1-.55-1,1,1,0,0,0-.26.95h0l0,0h0s-.62-.16-.78-1.29a.3.3,0,0,0,0,.08l-.1.22-.61-.61a8.16,8.16,0,0,0,.44,1.12l.19.36-.39-.12a2.32,2.32,0,0,1-1.2-1l-.35.71h0a4.78,4.78,0,0,1,.25-1.16l.17-.2.11.25a1.83,1.83,0,0,0,.72.85c-.25-.62-.45-1.36-.47-1.4L74,27.23l1.19,1.21a2.84,2.84,0,0,0,.2-.76,4.19,4.19,0,0,0,0-.5,3.82,3.82,0,0,0-.28-1,4.3,4.3,0,0,1,.48.93,3,3,0,0,1,.12.52c0,.15,0,.29,0,.44A4.92,4.92,0,0,0,76,29.66a0,0,0,0,0,0,0,1.84,1.84,0,0,1,.32-1.3c.08-.13.37-.48.37-.48v.61a2.13,2.13,0,0,0,.29,1,1.28,1.28,0,0,1,.47-.84l.19-.14h0l.07.22a3.65,3.65,0,0,0,.84,1.47c0-.24.32-.68.39-.9h0a6.66,6.66,0,0,0-.11,1.19,1.65,1.65,0,0,1,0,.32Zm-27,18.61A7.42,7.42,0,0,0,51.9,51a10.28,10.28,0,0,0,.41,1.61A10.94,10.94,0,0,1,51.76,51a7.28,7.28,0,0,1-.27-1.67.14.14,0,0,1,.28,0Zm.64-1.93a1.51,1.51,0,0,0-.82.42.86.86,0,0,0-.2.43,1,1,0,0,0,0,.49,1.19,1.19,0,0,1-.12-.5,1.08,1.08,0,0,1,.15-.52,1.59,1.59,0,0,1,.62-.53,1.92,1.92,0,0,1,.25-.12.18.18,0,0,1,.22.11.16.16,0,0,1-.1.21Zm23.81-25-.4.55a4.45,4.45,0,0,0-.33.55,1.4,1.4,0,0,0-.18.58.91.91,0,0,0,.23.58.71.71,0,0,1-.41-.56,1.23,1.23,0,0,1,.14-.71,2.31,2.31,0,0,1,.41-.56,2.49,2.49,0,0,1,.54-.43Zm2.88-1.05a1,1,0,0,1-.53.46,1.86,1.86,0,0,1-.7.14l-.35,0a1.86,1.86,0,0,0-.33,0h-.34a.58.58,0,0,0-.3.13.53.53,0,0,1,.29-.19,2,2,0,0,1,.35-.05c.23,0,.45,0,.67,0a4.5,4.5,0,0,0,.64-.11,2,2,0,0,0,.6-.27Zm-3.64-3a2.54,2.54,0,0,0-.59-.19,1.3,1.3,0,0,0-.59,0,.94.94,0,0,0-.46.32,2.22,2.22,0,0,0-.28.5l-.22-.2a2.59,2.59,0,0,1,.52-.16,2,2,0,0,1,.54,0,1.81,1.81,0,0,1,1,.4l.45.35-.57-.08a4.52,4.52,0,0,0-.64,0,2.12,2.12,0,0,0-.62.11,1,1,0,0,0-.49.31.81.81,0,0,0-.18.53l-.24-.13a2.7,2.7,0,0,1,.44-.24,2.46,2.46,0,0,1,.48-.16,1.73,1.73,0,0,1,.51-.05,1.34,1.34,0,0,1,.52.14l.43.23-.48.07a3.2,3.2,0,0,0-.61.15,2,2,0,0,0-.55.28.9.9,0,0,0-.34.44.87.87,0,0,0,0,.55l-.25-.06a1.57,1.57,0,0,1,.21-.17,1.71,1.71,0,0,1,.23-.13,1.69,1.69,0,0,1,.5-.2l.57-.12-.43.4a2,2,0,0,0-.31.34,1.69,1.69,0,0,0-.22.39,1,1,0,0,0-.07.42.8.8,0,0,0,.14.38l-.27,0c0-.13.11-.25.17-.37a3.24,3.24,0,0,1,.21-.35,2.61,2.61,0,0,1,.27-.31,1.32,1.32,0,0,1,.36-.26l.33-.15-.11.34a3.74,3.74,0,0,0-.16.66,2,2,0,0,0,0,.34.7.7,0,0,0,.08.3l-.12,0a2.46,2.46,0,0,1,.25-.45,1.37,1.37,0,0,1,.36-.36,1.14,1.14,0,0,0-.29.4,2.62,2.62,0,0,0-.19.46l0,.12-.09-.11a.85.85,0,0,1-.14-.36,2.43,2.43,0,0,1,0-.38,2.19,2.19,0,0,1,0-.36c0-.13,0-.25.06-.37l.22.19a1.2,1.2,0,0,0-.27.19,2.15,2.15,0,0,0-.23.28,1.61,1.61,0,0,0-.19.31,2.49,2.49,0,0,0-.16.33l-.1.27L73.63,23a1,1,0,0,1-.2-.54,1.14,1.14,0,0,1,.09-.55,2.16,2.16,0,0,1,.26-.47,3.25,3.25,0,0,1,.35-.39l.14.27a1.52,1.52,0,0,0-.42.16l-.2.12a1.41,1.41,0,0,0-.18.14l-.18.15-.08-.22a1.27,1.27,0,0,1,0-.75,1.22,1.22,0,0,1,.45-.59,2.38,2.38,0,0,1,.63-.33,3.75,3.75,0,0,1,.68-.16l-.06.29a1.17,1.17,0,0,0-.81-.07,3.12,3.12,0,0,0-.43.15,2.93,2.93,0,0,0-.39.21l-.24.16v-.29a1.1,1.1,0,0,1,.25-.73,1.31,1.31,0,0,1,.63-.41,2.85,2.85,0,0,1,.7-.12,4.21,4.21,0,0,1,.71,0l-.12.28a1.51,1.51,0,0,0-.83-.33,1.76,1.76,0,0,0-.46,0,1.45,1.45,0,0,0-.43.14l-.38.18.15-.39a1.67,1.67,0,0,1,.39-.56,1.22,1.22,0,0,1,.6-.32,1.46,1.46,0,0,1,.66.05,1.89,1.89,0,0,1,.57.28Zm.32-.45a2.14,2.14,0,0,0-.24-1.54A1,1,0,0,1,75.78,18Z"/></g><g id="g27"><path id="path302" class="cls-12" d="M139.84,16.68a4,4,0,0,0-1.77.17h0a2.59,2.59,0,0,0-1.09.66,4,4,0,0,0-.68,3.88,2,2,0,0,0,1.18,1.22.18.18,0,0,1,.15.15.58.58,0,0,1,0,.37,4.36,4.36,0,0,1-1.07,1.41,20.71,20.71,0,0,1-6.53,3.9h0l-.7.24c-.06-.06-.11-.13-.17-.2l.36-.21a.16.16,0,0,0-.08-.29c-.49-.09-.83-.64-1-.92a1.16,1.16,0,0,0,1.1-.42.16.16,0,0,0-.05-.27,1.55,1.55,0,0,1-.85-1,1.24,1.24,0,0,0,1.07-.46.15.15,0,0,0-.09-.24,1.49,1.49,0,0,1-.8-.76,1,1,0,0,0,1.13-.85c0-.09,0-.15-.13-.17a2,2,0,0,1-1.07-.57,1.47,1.47,0,0,0,1-.53,1.83,1.83,0,0,0,.27-1.36.15.15,0,0,0-.08-.12.21.21,0,0,0-.18,0,2.61,2.61,0,0,1-1.28.34,1.81,1.81,0,0,0,.63-.6,1.16,1.16,0,0,0,.19-.79,2,2,0,0,0-.73-1.19.15.15,0,0,0-.12-.05c-.08,0-.12.07-.15.13a1.8,1.8,0,0,1-1.61,1.29,1.2,1.2,0,0,0-.32-1.49.17.17,0,0,0-.15,0,.2.2,0,0,0-.12.13.85.85,0,0,1-.21.36,1.28,1.28,0,0,1-1,.32,7,7,0,0,0-1.84.08,1.58,1.58,0,0,0-.72.36.91.91,0,0,0-.28.57,6.84,6.84,0,0,0-2.07.62,2.42,2.42,0,0,0-1.16,1.14,2.1,2.1,0,0,0,.3,1.92.15.15,0,0,0,.28,0,1.48,1.48,0,0,1,.3-.48.71.71,0,0,1,.44-.19,1.18,1.18,0,0,1,.74.21.15.15,0,0,0,.2,0,1,1,0,0,1,.45-.19,2.39,2.39,0,0,1,1.61.45,1.79,1.79,0,0,1,.53.41s.09.1.06.16l-.09.07a1.17,1.17,0,0,1-.37.1c-.35.06-.71.1-1.07.14l-2.17.26a.68.68,0,0,0-.31.11.36.36,0,0,0-.17.3.39.39,0,0,0,.27.32,2,2,0,0,0,.64.14c.61.06,1.38,0,2.09.08a4.73,4.73,0,0,1,1.35.24c.48.2.55.58.33,1.06a4.65,4.65,0,0,1-1.69,1.67.13.13,0,0,0-.06.16.15.15,0,0,0,.1.11,2.89,2.89,0,0,0,.53.13,6.77,6.77,0,0,0-.33.66,20.4,20.4,0,0,1-7.26-.95,4.42,4.42,0,0,1-1.57-.89c-.14-.14-.28-.36-.09-.53a1.93,1.93,0,0,0,.59-1.59,3.74,3.74,0,0,0-.15-.91v0a3.58,3.58,0,0,0-2-2.33,3.4,3.4,0,0,0-2.9.36,3.59,3.59,0,0,0-1.21,1.21,6.31,6.31,0,0,0-.81,3.62A25.78,25.78,0,0,1,106.18,35a23,23,0,0,1-1.85,4.45,7.42,7.42,0,0,1-1.72,2.13.7.7,0,0,0-.31.63.8.8,0,0,0,.48.57c.53.23,1.43.14,2.7-.68a8.15,8.15,0,0,0,1.64-1.37c1.62-1.75,2.82-4.73,3.58-7a18.2,18.2,0,0,1-.62,2.58,23,23,0,0,1-1.85,4.45A7.83,7.83,0,0,1,106.49,43a.68.68,0,0,0-.29.63.78.78,0,0,0,.48.57c.53.23,1.43.14,2.7-.68A7.78,7.78,0,0,0,111,42.1c1.94-2.09,3.26-5.79,4-8a20.3,20.3,0,0,1-.66,3.1,21.59,21.59,0,0,1-1.7,4.33A7,7,0,0,1,111,43.58a.69.69,0,0,0-.28.63.75.75,0,0,0,.48.55c.52.21,1.39.09,2.61-.72a7.9,7.9,0,0,0,1.55-1.37c1.77-2,3.06-5.8,3.76-8.13a22.53,22.53,0,0,1-.3,2.7,13.73,13.73,0,0,1-2.18,5.28.73.73,0,0,0-.12.65.72.72,0,0,0,.54.43c.52.11,1.32-.16,2.37-1.06a7.71,7.71,0,0,0,1.29-1.44,17.45,17.45,0,0,0,2.06-4.62,11.86,11.86,0,0,0,.88,1.74,7,7,0,0,0,1.17,1.46,12.88,12.88,0,0,0,2.62,5.8.16.16,0,0,0,.18.07l.06,0,0,.13a5.18,5.18,0,0,1-.52,1.26c-.11.2-.23.39-.32.52a1.3,1.3,0,0,1-.2.24,2.45,2.45,0,0,1-1.09.35l-.21,0a1.57,1.57,0,0,0-.94.09.83.83,0,0,0-.55.6,1,1,0,0,0,0,.26c-.23.15-.73.56-.58,1.09a1.15,1.15,0,0,0,.46.62,1,1,0,0,0,.63.19.25.25,0,0,0,.14-.08.16.16,0,0,0,0-.15,3.48,3.48,0,0,1-.1-.38.17.17,0,0,1,0-.16.45.45,0,0,1,.16-.14.84.84,0,0,1,.28-.11l-.05.09a1.12,1.12,0,0,0-.08.6,1.61,1.61,0,0,0-.27.36,1.06,1.06,0,0,0-.13.86.92.92,0,0,0,.9.66.31.31,0,0,0,.24-.08.17.17,0,0,0,0-.18s-.07-.06-.1-.11a.86.86,0,0,1-.13-.24.21.21,0,0,1,0-.15.91.91,0,0,1,.41-.28.26.26,0,0,0,.14-.07,1.24,1.24,0,0,0,.31-.18.86.86,0,0,0,.26-.32.83.83,0,0,0,.08-.39l0,0s0,0,0,0a1,1,0,0,0,0,.68.59.59,0,0,0,0,.08,1.52,1.52,0,0,0-.1.47,1,1,0,0,0,.25.84.91.91,0,0,0,1.08.21c.07,0,.16-.06.19-.14a.17.17,0,0,0,0-.14c-.05-.1-.12-.08-.2-.12a.61.61,0,0,1-.21-.16.15.15,0,0,1,0-.15.64.64,0,0,1,.09-.22,1.55,1.55,0,0,1,.22-.26h0a.83.83,0,0,0,.33-.22,1.25,1.25,0,0,0,.25-.78,2.5,2.5,0,0,1,.61-1.85l.17-.16a3.71,3.71,0,0,0,.47.16.82.82,0,0,0,.35,0,.86.86,0,0,0,.56-.39,1.46,1.46,0,0,1,.24-.15.42.42,0,0,1,.18-.06c.05,0,.06,0,.08,0a.49.49,0,0,1,.09.18.5.5,0,0,0,0,.12.13.13,0,0,0,.07.08.26.26,0,0,0,.12,0c.07,0,.12-.08.16-.14a.87.87,0,0,0,.07-.92.72.72,0,0,0-.36-.35,1,1,0,0,0-.43-.1,1.5,1.5,0,0,0-.51,0,.66.66,0,0,0-.47-.12,1.1,1.1,0,0,0-.41.17,1,1,0,0,1-.21.12c-.07,0-.08,0-.08,0a3.26,3.26,0,0,1,0-.56c0-.25.1-.55.16-.85l.06-.26a4.38,4.38,0,0,0,.26.37.16.16,0,0,0,.26,0,10,10,0,0,0,.63-1.21,18.2,18.2,0,0,0,1,1.64.15.15,0,0,0,.19.05h0l.45-.23a13.1,13.1,0,0,1-.28,2.13,3,3,0,0,1-.55,1.1.9.9,0,0,1-.35.2,3.49,3.49,0,0,1-.57.2,2.49,2.49,0,0,0-.69.17.89.89,0,0,0-.46.56,2.51,2.51,0,0,0,0,.27,2,2,0,0,0-.25.35,1.11,1.11,0,0,0-.13.9.92.92,0,0,0,.93.62c.09,0,.18,0,.23-.09a.14.14,0,0,0,0-.15s0-.06-.08-.09-.22-.29-.13-.42a.86.86,0,0,1,.48-.32.85.85,0,0,0,.65-.34.62.62,0,0,0,.11-.28,1.8,1.8,0,0,0,.58-.16,2.43,2.43,0,0,1-.37.52,1,1,0,0,0-.48.38.93.93,0,0,0-.15.35.75.75,0,0,0,.11.5,1.51,1.51,0,0,0-.14.35,1,1,0,0,0,.08.9.91.91,0,0,0,1,.41.34.34,0,0,0,.14-.05.16.16,0,0,0,.08-.19.14.14,0,0,0-.11-.11l-.06,0a.54.54,0,0,1-.17-.19c-.07-.11,0-.26.1-.34a2.32,2.32,0,0,1,.28-.23l0,0a1.15,1.15,0,0,0,.66-.36,1,1,0,0,0,.25-.76.85.85,0,0,0-.12-.36,1.4,1.4,0,0,0,.1-.16,1.41,1.41,0,0,0,.23.21,1.27,1.27,0,0,0,.27.85.65.65,0,0,0,.44.2.88.88,0,0,1,.34.38.16.16,0,0,1,0,.16.53.53,0,0,1-.25.24.15.15,0,0,0-.09.17.17.17,0,0,0,.1.13l.11,0a.94.94,0,0,0,1.05-.41,1.08,1.08,0,0,0,.07-.89,1.37,1.37,0,0,0-.15-.37.76.76,0,0,0,.09-.28,1,1,0,0,0-.38-.77,1.84,1.84,0,0,0-.53-.38.42.42,0,0,1-.12-.19c-.05-.1-.09-.24-.17-.38h.14a.4.4,0,0,1,.28,0,.86.86,0,0,1,.18.14,1.38,1.38,0,0,0,1,.58,1.23,1.23,0,0,1,.37.07c.19.06.35.16.38.29a1,1,0,0,0,.11.33c.06.12.12.19.26.15a.64.64,0,0,0,.38-.34,1.16,1.16,0,0,0,0-.65,1.43,1.43,0,0,0-.39-.73,1.37,1.37,0,0,0-.29-.25,1.15,1.15,0,0,0-1.15-.73h-.19a1.91,1.91,0,0,1-1-.3,1.07,1.07,0,0,1-.29-.31c0-.08.14-.94.21-1.41a2.49,2.49,0,0,0,.7.71.17.17,0,0,0,.12,0,.15.15,0,0,0,.1-.19h0a3.76,3.76,0,0,1-.1-1.91,14.09,14.09,0,0,0,.51-2c0-.13,0-.26,0-.38a.87.87,0,0,0,.23.2,4.15,4.15,0,0,1,1.5,1.11.78.78,0,0,1,.06.59,2.94,2.94,0,0,1-.45.93,1.91,1.91,0,0,0-.37,1.09,1.27,1.27,0,0,0,.3.79,2.29,2.29,0,0,0,1,.63.67.67,0,0,0,.37,0,.65.65,0,0,0,.35-.13.39.39,0,0,0,.11-.39.82.82,0,0,0-.35-.41.47.47,0,0,1-.21-.27s0-.1.06-.17a1.21,1.21,0,0,1,.43-.29A1.86,1.86,0,0,0,139.38,45a6.18,6.18,0,0,1,.36.85,2.11,2.11,0,0,1,0,1.53,4.47,4.47,0,0,1-.43.56.49.49,0,0,0-.15.35.43.43,0,0,0,.28.35,1.22,1.22,0,0,0,1.22-.07,3.16,3.16,0,0,0,1.06-1.9,3.4,3.4,0,0,1,.36,1,4.11,4.11,0,0,0,.08,1.15,1,1,0,0,0,.42.5,1.26,1.26,0,0,0,.83.11.94.94,0,0,0,.67-.41,1,1,0,0,0,.15-.61,1.72,1.72,0,0,0,.88.56,1,1,0,0,0,.87-.31.89.89,0,0,0,.29-.84,1.67,1.67,0,0,0-.6-.86.84.84,0,0,0,.44-.13,1,1,0,0,0,.43-.63.92.92,0,0,0-.06-.74,1,1,0,0,0-.44-.39,1.4,1.4,0,0,0-.36-.13,2.07,2.07,0,0,0,.91-1.29,1.38,1.38,0,0,0-.42-1.22.43.43,0,0,0-.43-.13.55.55,0,0,0-.28.26,6.09,6.09,0,0,1-.33.61,2.33,2.33,0,0,1-1.7.61A7,7,0,0,1,142,43.7a2.08,2.08,0,0,0,.87-.53,2.29,2.29,0,0,0,.47-1c.09-.35.11-.69.16-1a1,1,0,0,1,.21-.55.32.32,0,0,1,.48.05,1.29,1.29,0,0,1,.24.37.17.17,0,0,0,.26.05,1.32,1.32,0,0,0,.67-1,1.09,1.09,0,0,0-.25-.76,1.4,1.4,0,0,0-1.46-.59,2.39,2.39,0,0,0-1.11.7c-.33.35-.51.75-.89,1s-1,.33-2.27-.06a14.73,14.73,0,0,1-6.19-4.64,14.49,14.49,0,0,1-1.32-2.39,20.24,20.24,0,0,0,4.92,4.91,7.06,7.06,0,0,0,1.74.81,3.08,3.08,0,0,0,2.59,0,.7.7,0,0,0,.31-.61.69.69,0,0,0-.35-.54,13.94,13.94,0,0,1-4.1-4c-.29-.41-.92-1.51-1.38-2.39,1.57,1.89,4.3,4.87,6.72,6a8.5,8.5,0,0,0,2,.63c1.45.25,2.29,0,2.68-.39a.72.72,0,0,0,.22-.68.69.69,0,0,0-.5-.48,7.3,7.3,0,0,1-2.33-1.24,21.75,21.75,0,0,1-3.29-3.3,24.12,24.12,0,0,1-1.86-2.62c1.53,1.81,4.24,4.69,6.85,5.83a8.44,8.44,0,0,0,2,.61c1.5.24,2.37,0,2.77-.43a.75.75,0,0,0,.19-.72.71.71,0,0,0-.52-.48,7.85,7.85,0,0,1-2.44-1.24v0a21.94,21.94,0,0,1-3.48-3.33c-.37-.4-1.12-1.44-1.6-2.13,1.59,1.77,3.88,4,6.08,5a8.5,8.5,0,0,0,2,.61h0c1.5.23,2.35,0,2.75-.46a.73.73,0,0,0,.19-.7.71.71,0,0,0-.52-.48,7.47,7.47,0,0,1-2.44-1.26A22.39,22.39,0,0,1,147.66,27a25.81,25.81,0,0,1-4.1-6.69,6.33,6.33,0,0,0-2.18-3,3.78,3.78,0,0,0-1.54-.63Z"/><path id="path302_6" data-name="path302 6" class="cls-15" d="M124.78,50.89l.06.1a.94.94,0,0,0,.29.27,1,1,0,0,0-.21.24.46.46,0,0,0,0,.4,1.09,1.09,0,0,0,0,.14.62.62,0,0,1-.35-.4A.88.88,0,0,1,124.78,50.89Zm.86-29.41,5,26.34V47.7a.89.89,0,0,0-.12-.38,1,1,0,0,1,.48.06.52.52,0,0,1,.27.56c-.15-.2-.33-.23-.63-.12Zm-3.9,3.63a1.33,1.33,0,0,0,.52.13,1.19,1.19,0,0,0-.16.39.58.58,0,0,0,.13.41l.11.1a.63.63,0,0,1-.58-.33,1.05,1.05,0,0,1,0-.7Zm-2.92-2.12a.84.84,0,0,0,.34.46l-.11.13a.51.51,0,0,0-.06.39c0,.1,0,.12,0,.19a1.13,1.13,0,0,1-.2-.09.88.88,0,0,1-.34-.45C123.43,49.7,123.65,49.47,123.83,49.33ZM128,45.39a3.63,3.63,0,0,0,.95-.54s.06.13.11.23-.09.4-.14.62-.12.6-.16.87a2.53,2.53,0,0,0,0,.64.37.37,0,0,0,.11.24.43.43,0,0,0,.28.09.73.73,0,0,0,.4-.17.55.55,0,0,1,.46-.1.56.56,0,0,1,.35.45.94.94,0,0,1-.1.4.51.51,0,0,1-.42.26l-.16,0-.36-.13-.08,0a.15.15,0,0,0-.18,0,1,1,0,0,0-.29.23,2.77,2.77,0,0,0-.72,2.08.94.94,0,0,1-.17.57.53.53,0,0,1-.44.18,1.88,1.88,0,0,1-.31,0,.4.4,0,0,1-.35-.23.68.68,0,0,1,0-.44,1.92,1.92,0,0,1,.24-.5,1.51,1.51,0,0,0,.11-.22.15.15,0,0,0,0-.23.17.17,0,0,0-.23.06,1,1,0,0,1-.61.45.23.23,0,0,0-.13.06.19.19,0,0,0,0,.15.43.43,0,0,1,0,.32.67.67,0,0,1-.18.22.65.65,0,0,1-.39.17.44.44,0,0,1-.37-.24.86.86,0,0,1-.11-.24.79.79,0,0,1,0-.49,1.26,1.26,0,0,1,.75-.58,2.26,2.26,0,0,0,.58-.32.17.17,0,0,0,0-.26.16.16,0,0,0-.2,0,1.37,1.37,0,0,1-.63.16.65.65,0,0,1-.21,0,.16.16,0,0,0-.2.09.66.66,0,0,1-.33.35.82.82,0,0,1-.37.11.36.36,0,0,1-.24-.13.64.64,0,0,1-.13-.35,1.1,1.1,0,0,1,0-.32c0-.12.14-.26.35-.35a1.3,1.3,0,0,1,.74-.07,1.27,1.27,0,0,0,.28,0,2.53,2.53,0,0,0,1.26-.4,1,1,0,0,0,.3-.33,4.58,4.58,0,0,0,.34-.56,5.3,5.3,0,0,0,.56-1.35l.06-.33Zm2.88,7.38a1,1,0,0,0,.48.23.75.75,0,0,0-.21.32.5.5,0,0,0,0,.41.67.67,0,0,0,.09.14.62.62,0,0,1-.44-.31.72.72,0,0,1,0-.61l.06-.18Zm3.28-.21a1.44,1.44,0,0,0,.48-.24,1.18,1.18,0,0,1,.07.2.72.72,0,0,1,0,.61.57.57,0,0,1-.43.3.54.54,0,0,0,.12-.54A.85.85,0,0,0,134.16,52.56Zm1.71-2a1.34,1.34,0,0,0,.11-.14,1.08,1.08,0,0,0,.17-.36,1.12,1.12,0,0,1,.38,1.09.27.27,0,0,1-.08.1l0-.19A.76.76,0,0,0,135.87,50.58Zm-6.64.57a.56.56,0,0,0,.05.08.7.7,0,0,0,.32.24.57.57,0,0,0-.17.78.57.57,0,0,1-.37-.39.73.73,0,0,1,.11-.6l.06-.11Zm-.45-22.55a2.35,2.35,0,0,0,.19.25,4.36,4.36,0,0,0-1.19.89,3.41,3.41,0,0,0-.6.81,3.35,3.35,0,0,0-.37.92h0a3.49,3.49,0,0,1,.43-.89,4,4,0,0,1,.63-.74,4.45,4.45,0,0,1,1.34-.84h0c.39-.11.78-.22,1.17-.37a20.61,20.61,0,0,0,6.36-3.85,4.65,4.65,0,0,0,1.16-1.54,1,1,0,0,0,0-.59.58.58,0,0,0-.39-.37,1.61,1.61,0,0,1-1-1,3,3,0,0,1-.2-.8,3.25,3.25,0,0,1,.81-2.7,2.28,2.28,0,0,1,.94-.59h0a3.27,3.27,0,0,1,3,.44,6.08,6.08,0,0,1,2.07,2.83,25.45,25.45,0,0,0,4.16,6.79,22.59,22.59,0,0,0,3.5,3.38,7.51,7.51,0,0,0,2.55,1.33.38.38,0,0,1,.31.24.42.42,0,0,1-.13.39c-.27.29-1,.58-2.47.35a8.19,8.19,0,0,1-2-.59c-2.47-1.08-5.21-4-6.75-5.76a1.53,1.53,0,0,0,1.11-.21c.79.77,1.6,1.51,2.44,2.22a32.67,32.67,0,0,0,2.69,2,29.39,29.39,0,0,1-2.58-2.15c-.81-.75-1.59-1.52-2.34-2.32a.7.7,0,0,0,.12-.33,1.59,1.59,0,0,0-.06-.58,3.67,3.67,0,0,0-.46-1,8.49,8.49,0,0,0-1.34-1.65,18.69,18.69,0,0,1,1.12,1.77,5,5,0,0,1,.38.94c.08.32.07.64-.16.79a1.28,1.28,0,0,1-.9.16,4.25,4.25,0,0,1-1-.24,14.15,14.15,0,0,1-1.91-.86,8,8,0,0,0,1.81,1.1l.43.16A23.26,23.26,0,0,0,144.37,30a22.44,22.44,0,0,0,3.53,3.4,7.75,7.75,0,0,0,2.54,1.31.36.36,0,0,1,.29.23.44.44,0,0,1-.13.4c-.27.29-1,.57-2.47.35a8.33,8.33,0,0,1-1.93-.59c-2.81-1.23-6-4.78-7.3-6.4a4.45,4.45,0,0,0,.88.34A1.71,1.71,0,0,0,141,29c.74.8,1.5,1.56,2.29,2.29a29.25,29.25,0,0,0,2.57,2.15,29.28,29.28,0,0,1-2.46-2.26c-.75-.76-1.48-1.56-2.16-2.38a1.08,1.08,0,0,0,.12-.88,4,4,0,0,0-.43-1,9,9,0,0,0-1.31-1.7h0c.39.6.76,1.21,1.08,1.83a3.82,3.82,0,0,1,.35,1c.06.29.05.59-.25.74a1.38,1.38,0,0,1-.93.06,5.09,5.09,0,0,1-1-.34,15.28,15.28,0,0,1-1.84-1,9.91,9.91,0,0,0,1,.82,24.88,24.88,0,0,0,2.79,4.23,22,22,0,0,0,3.32,3.32,7.38,7.38,0,0,0,2.46,1.33.32.32,0,0,1,.26.24.39.39,0,0,1-.13.37c-.27.27-1,.52-2.37.28a7.44,7.44,0,0,1-1.9-.59c-2.69-1.23-6.12-5.24-7.38-6.84l-.11-.13a10.54,10.54,0,0,0-.5-1.43h0a19.51,19.51,0,0,1,.37,2.09,5.08,5.08,0,0,1,0,1c0,.33-.16.63-.44.69a1.17,1.17,0,0,1-.88-.2,4.89,4.89,0,0,1-.81-.63,16.28,16.28,0,0,1-1.4-1.58h0a17.08,17.08,0,0,1,.15,2.13,5,5,0,0,1-.11,1c-.07.29-.21.57-.54.61a1.45,1.45,0,0,1-.9-.31,5.15,5.15,0,0,1-.81-.67,16.87,16.87,0,0,1-1.41-1.62,9.81,9.81,0,0,0,1.23,1.79,4.51,4.51,0,0,0,.82.75,1.62,1.62,0,0,0,1.1.38.79.79,0,0,0,.57-.3,1.21,1.21,0,0,0,.22-.46A15,15,0,0,0,133,36a14.57,14.57,0,0,0,6.34,4.77,3.07,3.07,0,0,0,2.55,0c.49-.29.69-.76,1-1a1.92,1.92,0,0,1,.93-.59,1.05,1.05,0,0,1,1.15.46.8.8,0,0,1,.17.54,1,1,0,0,1-.39.61.92.92,0,0,0-.62-.52.64.64,0,0,0-.52.17,1.18,1.18,0,0,0-.33.74,3.3,3.3,0,0,1-.57,1.79,1.61,1.61,0,0,1-1,.5,3.39,3.39,0,0,1-1.42-.12,4,4,0,0,1-1-.41,4.05,4.05,0,0,1-1.52-1.5,4.2,4.2,0,0,0,1.42,1.66,4.64,4.64,0,0,0,1,.51,3.57,3.57,0,0,0,1.17.26,7.07,7.07,0,0,0,2.15.32,2.12,2.12,0,0,0,2.31-1.37.31.31,0,0,1,.11-.12s0,0,.11.06a1,1,0,0,1,.3.93,1.75,1.75,0,0,1-.78,1.07,2.94,2.94,0,0,1-1.22.44,2.75,2.75,0,0,1-1,0,2.81,2.81,0,0,0,1,.18,5.39,5.39,0,0,0,1.05-.09,1.84,1.84,0,0,1,.55.14.67.67,0,0,1,.32.27.62.62,0,0,1,0,.5.67.67,0,0,1-.29.43.7.7,0,0,1-.39.09,2,2,0,0,1-.58-.15.12.12,0,0,0-.14,0,.17.17,0,0,0,0,.3,3.85,3.85,0,0,1,.8.57,1.09,1.09,0,0,1,.31.53.53.53,0,0,1-.2.54.63.63,0,0,1-.57.21,1.09,1.09,0,0,1-.54-.3,3.73,3.73,0,0,1-.61-.77.15.15,0,0,0-.18-.08.18.18,0,0,0-.09,0,.17.17,0,0,0,0,.2,1.94,1.94,0,0,1,.18.65.73.73,0,0,1-.09.45.64.64,0,0,1-.46.27,1,1,0,0,1-.64-.06.61.61,0,0,1-.24-.34,4.1,4.1,0,0,1-.06-1,1.94,1.94,0,0,0-.12-.56,6.88,6.88,0,0,0-1-1.82,1.89,1.89,0,0,0-.55-.47h0a1.91,1.91,0,0,1,.51.88,2,2,0,0,1,.06,1,2.61,2.61,0,0,1-.87,1.5.88.88,0,0,1-.92.06c-.1,0-.08,0-.08-.06s0-.07.08-.15a3.46,3.46,0,0,0,.46-.61,2.45,2.45,0,0,0,0-1.77,6.78,6.78,0,0,0-.89-1.76c-.06-.07-.11-.14-.21-.13a.19.19,0,0,0-.14.12.23.23,0,0,0,0,.14,2.59,2.59,0,0,1,.22,1A1.48,1.48,0,0,1,138,46.63a1.3,1.3,0,0,0-.56.39.53.53,0,0,0-.12.44.75.75,0,0,0,.33.46.62.62,0,0,1,.23.23s0,0,0,.06a.44.44,0,0,1-.37,0,2.29,2.29,0,0,1-.85-.55,1,1,0,0,1-.22-.59,1.69,1.69,0,0,1,.33-.89,3.2,3.2,0,0,0,.48-1,1.14,1.14,0,0,0-.09-.82,3.93,3.93,0,0,0-1.61-1.24,1.53,1.53,0,0,1-.36-.43,4.47,4.47,0,0,0-.09-1.15,3.58,3.58,0,0,0-.9-1.8,3.68,3.68,0,0,1,.79,1.82,6,6,0,0,1-.09,2,13.27,13.27,0,0,1-.56,1.93,3.08,3.08,0,0,0-.11,1,5.93,5.93,0,0,0,.07.59,2.7,2.7,0,0,1-.53-.86,3.29,3.29,0,0,1-.19-.7,3.68,3.68,0,0,1-.07-.73c0-.13,0-.25,0-.38s0-.33-.16-.4c.08.1,0,.28,0,.38a2.16,2.16,0,0,1-.85,1.08,7.11,7.11,0,0,1-.83.51,14.43,14.43,0,0,1-1.13-1.94,16.3,16.3,0,0,1-.91-2.21,11.5,11.5,0,0,1-.49-2.33,8.27,8.27,0,0,1,.1-2.38,8,8,0,0,0-.24,2.39,9.82,9.82,0,0,0,.29,1.88,7.13,7.13,0,0,1-5.34-3.37,9.53,9.53,0,0,1-1.46-6.67,8.42,8.42,0,0,1,.95-2.69h.23a2.1,2.1,0,0,0,.93-.21,1.51,1.51,0,0,0,.52-.44,2.49,2.49,0,0,0,.88,1.54.21.21,0,0,0,.11,0,.14.14,0,0,0,.12-.08,5.82,5.82,0,0,0,.68-1.5,1.64,1.64,0,0,0,.8.6,1.71,1.71,0,0,0,1.13,0Zm-2.53-10.22a.85.85,0,0,1,.21.76,1.11,1.11,0,0,1-.81.62,1.46,1.46,0,0,1-.69,0,1.73,1.73,0,0,0,.72.12,2.26,2.26,0,0,0,.68-.17,1.74,1.74,0,0,0,1.67-.63,2.4,2.4,0,0,0,.43-.65,1.49,1.49,0,0,1,.48.85.91.91,0,0,1-.2.7,2.56,2.56,0,0,1-.83.6,1.72,1.72,0,0,1-.9,0,1.33,1.33,0,0,0,.44.23,5.14,5.14,0,0,0,.76.16,2.62,2.62,0,0,0,1.47-.27,1.17,1.17,0,0,1-.56,1.19.9.9,0,0,1-1,0,.81.81,0,0,1-.26-.26.91.91,0,0,0,.15.37,1.32,1.32,0,0,0,.24.29,1.89,1.89,0,0,0,1.26.86.62.62,0,0,1-.5.44.81.81,0,0,1-.75-.18,2.91,2.91,0,0,1-.31-.3,2.93,2.93,0,0,0,.19.4,1.26,1.26,0,0,0,.25.32,1.46,1.46,0,0,0,.83,1,1.26,1.26,0,0,1-.73.2.67.67,0,0,1-.46-.18,1,1,0,0,1-.26-.39A1.1,1.1,0,0,0,128,25a.86.86,0,0,0,.31.32,1.59,1.59,0,0,0,.85,1.24.86.86,0,0,1-.62.22.66.66,0,0,1-.47-.26,1.16,1.16,0,0,1-.21-.48,1.42,1.42,0,0,0,.06.7,5.24,5.24,0,0,0,.23.48,2.15,2.15,0,0,0,.9,1,1.45,1.45,0,0,1-1.53.06,1.77,1.77,0,0,1-.54-.66.15.15,0,0,0-.16-.1c-.07,0-.12.05-.14.15a5,5,0,0,1-.63,1.63,2.18,2.18,0,0,1-.54-.92,5.44,5.44,0,0,1-.17-.74.14.14,0,0,0-.11-.12.15.15,0,0,0-.18.08,1.33,1.33,0,0,1-.61.68,2.34,2.34,0,0,1-1.48.08,3.68,3.68,0,0,0,1.65-2,1.08,1.08,0,0,0-.17-.76,2.54,2.54,0,0,0,.87-.32.88.88,0,0,0,.41-1.15,2.9,2.9,0,0,0-.76-.95l-.86-.84h0l.8.9a2.88,2.88,0,0,1,.67.95.67.67,0,0,1-.38.87,2.92,2.92,0,0,1-1.11.26h0A4,4,0,0,0,122.5,25c-.73,0-1.53,0-2.1-.09a2.09,2.09,0,0,1-.55-.12l-.07-.05,0,0a.44.44,0,0,1,.17-.07c.52-.05,1.68-.19,2.39-.28.29,0,.57-.06.86-.11a1.65,1.65,0,0,0,.48-.15.5.5,0,0,0,.21-.2.35.35,0,0,0,0-.3,1.55,1.55,0,0,0-.69-.66,2.7,2.7,0,0,0-1.83-.49,1.18,1.18,0,0,0-.53.2,1.74,1.74,0,0,0-.85-.21,1,1,0,0,0-.6.27,1.34,1.34,0,0,0-.27.33,1.67,1.67,0,0,1-.14-1.38,2.14,2.14,0,0,1,1-1,6.3,6.3,0,0,1,2-.6,1.59,1.59,0,0,0,.49.54.81.81,0,0,0-.34.62.75.75,0,0,0,.12.48,1.1,1.1,0,0,0,.38.33,1,1,0,0,0,.95,0,.87.87,0,0,0,.46-.66,3.43,3.43,0,0,0,.44.09,4.84,4.84,0,0,0,1.14,0,5.19,5.19,0,0,1-1.12-.12,2.28,2.28,0,0,1-.52-.18,1,1,0,0,1-.41-.32s0,0-.06,0a1.9,1.9,0,0,1-.4-.14,1.72,1.72,0,0,1-.37-.22,1.45,1.45,0,0,1-.49-.61.63.63,0,0,1,.2-.45,1.32,1.32,0,0,1,.57-.27,7.56,7.56,0,0,1,1.74-.08,1.57,1.57,0,0,0,1.28-.42.91.91,0,0,0,.19-.25Zm6.16,27.52.22-.14a4,4,0,0,0,.54-.46,4,4,0,0,0,.26,1.07l0,.07c-.11.71-.21,1.39-.28,1.87,0,.06,0,.11.12.3a1.89,1.89,0,0,0,.32.3,2.21,2.21,0,0,0,1.22.36H135a.81.81,0,0,1,.87.56,1.33,1.33,0,0,1-.17.42.43.43,0,0,1-.35.22c-.19,0-.45-.14-.77-.5a1.62,1.62,0,0,0-.23-.18.78.78,0,0,0-.5-.06s-.22,0-.32,0a.16.16,0,0,0-.18.06.17.17,0,0,0,0,.22l.12.19c.06.1.11.24.17.37a.64.64,0,0,0,.3.37,2.16,2.16,0,0,1,.43.31.67.67,0,0,1,.27.5.34.34,0,0,1-.14.26,1.33,1.33,0,0,1-.49.22.79.79,0,0,1-.25.05.31.31,0,0,1-.24-.09,1.19,1.19,0,0,1-.18-.74.13.13,0,0,0-.08-.13.7.7,0,0,1-.33-.35.18.18,0,0,0-.15-.12.17.17,0,0,0-.16.1,1.53,1.53,0,0,1-.27.44.16.16,0,0,0,0,.23.46.46,0,0,1,.13.28.65.65,0,0,1-.17.51.93.93,0,0,1-1.36,0,.37.37,0,0,1,0-.5.64.64,0,0,1,.34-.27l.09-.06a2.78,2.78,0,0,0,.61-1,.22.22,0,0,0,0-.26.18.18,0,0,0-.21,0,1.53,1.53,0,0,1-.79.32c-.14,0-.34,0-.33.19a.53.53,0,0,1,0,.24.49.49,0,0,1-.3.19.74.74,0,0,1-.72-.24c-.06-.07-.14-.14-.07-.4a.54.54,0,0,1,.29-.36,1.74,1.74,0,0,1,.42-.11l.16,0a3.53,3.53,0,0,0,.65-.21,1,1,0,0,0,.49-.32,3.1,3.1,0,0,0,.6-1.2,12.89,12.89,0,0,0,.31-2.43Zm-7.23-5.85a7.48,7.48,0,0,0,4.13,1.71l.05.17a14.39,14.39,0,0,0,.86,2.26.93.93,0,0,1,.05.1,8.67,8.67,0,0,1-.6,1.18,5.7,5.7,0,0,1-.5-.93,1.3,1.3,0,0,0,0-.34.82.82,0,0,0,0-.22.27.27,0,0,0-.1-.19.25.25,0,0,1,0,.19,1.06,1.06,0,0,1-.06.19,1.25,1.25,0,0,1-.21.35,3.26,3.26,0,0,1-1.23.67,12.42,12.42,0,0,1-2.41-5.14Zm-2.61-10.4a8.63,8.63,0,0,0-.47,1.67,9,9,0,0,0-.11,1.9l-.15.38a5.66,5.66,0,0,1-.49.91,1.2,1.2,0,0,1-.73.53c-.28.06-.51-.17-.68-.46a4.75,4.75,0,0,1-.4-.95,19.35,19.35,0,0,1-.5-2.06h0a10.69,10.69,0,0,0,.12,1.49.93.93,0,0,0-.06.18c-.52,2-2.06,7-4,9.21a7.82,7.82,0,0,1-1.48,1.31c-1.18.77-2,.84-2.31.69a.44.44,0,0,1-.29-.3.37.37,0,0,1,.16-.33,7.54,7.54,0,0,0,1.72-2.18,21.57,21.57,0,0,0,1.74-4.37,24.86,24.86,0,0,0,.86-5,10.4,10.4,0,0,0,.59-1.15,15.34,15.34,0,0,1-1.27,1.7,5,5,0,0,1-.76.7,1.38,1.38,0,0,1-.87.32c-.34,0-.46-.29-.53-.58a3.86,3.86,0,0,1,0-1,16.85,16.85,0,0,1,.25-2.11h0a8.81,8.81,0,0,0-.52,2.08,3.76,3.76,0,0,0,0,1.11,1.08,1.08,0,0,0,.47.76c-.31,1-.65,2-1,3a28.56,28.56,0,0,1-1.35,3.05,29.81,29.81,0,0,0,1.5-3c.43-1,.83-2,1.19-3h0a1.62,1.62,0,0,0,1.08-.41,3.69,3.69,0,0,0,.66-.65c-.59,2-2,6.52-4.11,8.75a8.16,8.16,0,0,1-1.55,1.33c-1.23.78-2,.83-2.4.68a.44.44,0,0,1-.28-.33.36.36,0,0,1,.17-.33A7.5,7.5,0,0,0,108.51,41a23.25,23.25,0,0,0,1.87-4.51,23.19,23.19,0,0,0,.91-4.29c.11-.1.22-.2.32-.31a8,8,0,0,0,1.22-1.73,13.79,13.79,0,0,1-1.4,1.55,4.65,4.65,0,0,1-.81.61,1.34,1.34,0,0,1-.89.21c-.27,0-.41-.33-.46-.66a4.25,4.25,0,0,1,0-1,18.47,18.47,0,0,1,.31-2.07,9.1,9.1,0,0,0-.57,2,4.41,4.41,0,0,0,0,1.09,1.24,1.24,0,0,0,.42.81c-.37,1-.77,2.06-1.22,3.06a29,29,0,0,1-1.51,3,32.45,32.45,0,0,0,1.66-2.93c.49-1,.94-2,1.35-3a1.52,1.52,0,0,0,1.08-.24c-.69,2.25-2,6-3.88,8a8.16,8.16,0,0,1-1.55,1.33c-1.23.78-2,.84-2.4.68a.46.46,0,0,1-.28-.33.36.36,0,0,1,.17-.33,7.61,7.61,0,0,0,1.83-2.24,22.61,22.61,0,0,0,1.88-4.51,25.83,25.83,0,0,0,1.09-7.86,6,6,0,0,1,.76-3.44A3.25,3.25,0,0,1,111,22.24a2.23,2.23,0,0,1,1.11.15,3.17,3.17,0,0,1,1.81,2.13,2.78,2.78,0,0,1,.15.83,1.64,1.64,0,0,1-.48,1.34.59.59,0,0,0-.2.49.91.91,0,0,0,.29.53,4.33,4.33,0,0,0,1.66.95,20.72,20.72,0,0,0,7.26,1ZM122,33.79a9.88,9.88,0,0,0,.49,2.15,17.34,17.34,0,0,1-2.14,5,7.2,7.2,0,0,1-1.22,1.4c-1,.87-1.71,1.05-2.06,1a.34.34,0,0,1-.25-.56,14,14,0,0,0,2.23-5.4,21.69,21.69,0,0,0,.34-3.14,4.7,4.7,0,0,0,.25.57,1.17,1.17,0,0,0,.75.63,14.17,14.17,0,0,1-.12,1.45c-.08.54-.18,1.07-.31,1.6a14.79,14.79,0,0,1-1.12,3.06,15.7,15.7,0,0,0,1.27-3,14.84,14.84,0,0,0,.59-3.1,1.54,1.54,0,0,0,.87-.68,4.29,4.29,0,0,0,.43-.89Zm12.12,6,1-8.25a21.68,21.68,0,0,0,1.56,2.74,13.87,13.87,0,0,0,4.18,4,.35.35,0,0,1,.2.28.36.36,0,0,1-.17.33,2.89,2.89,0,0,1-2.31-.07,7,7,0,0,1-1.66-.78,21.58,21.58,0,0,1-5.23-5.37v-.2a9.36,9.36,0,0,0-.41-2.12,8.61,8.61,0,0,0,1.21,1.74,4.38,4.38,0,0,0,.83.72,1.45,1.45,0,0,0,1.07.27,12.09,12.09,0,0,0,.78,1.3,16.05,16.05,0,0,0,1,1.31A14.9,14.9,0,0,0,138.59,38a14.73,14.73,0,0,1-2.24-2.36,13.8,13.8,0,0,1-.92-1.34,12.11,12.11,0,0,1-.69-1.28,1.17,1.17,0,0,0,.43-.88,4,4,0,0,0,0-.6Z"/><path id="path434" class="cls-13" d="M122.54,20.64a.81.81,0,0,0-.23.58.72.72,0,0,0,.43.62,1.07,1.07,0,0,0,.38.1,1.14,1.14,0,0,0,.41-.07.88.88,0,0,0,.5-.52l-.09,0a1.11,1.11,0,0,1-.47-.31l-.12,0a.46.46,0,0,1,0,.38.47.47,0,0,1-.63.2.46.46,0,0,1-.24-.61.39.39,0,0,1,.21-.21l-.08-.06-.07,0Zm.54.59a.17.17,0,0,1-.17.17.17.17,0,1,1,0-.34A.17.17,0,0,1,123.08,21.23Z"/><path id="path338" class="cls-12" d="M138.27,31.05c.61.85,1.26,1.68,1.94,2.48a27,27,0,0,0,2.26,2.4,30.24,30.24,0,0,1-2.38-2.29c-.72-.79-1.42-1.6-2.09-2.44a1.57,1.57,0,0,1-1.12-.17,4.58,4.58,0,0,1-.91-.59,9.31,9.31,0,0,1-1.5-1.51,15,15,0,0,0,1.62,1.36,5.3,5.3,0,0,0,.89.52,1.36,1.36,0,0,0,.93.14c.34-.11.37-.42.33-.73a4,4,0,0,0-.28-1,16.48,16.48,0,0,0-.92-1.89h0a9,9,0,0,1,1.12,1.81,3.9,3.9,0,0,1,.34,1,1,1,0,0,1-.23.86Zm-21.55,4c-.28,1-.6,2.07-1,3.08a28,28,0,0,1-1.27,3,28.66,28.66,0,0,0,1.12-3.1c.3-1,.56-2,.78-3.05a1,1,0,0,1-.54-.7,3.61,3.61,0,0,1-.11-1.08,8.82,8.82,0,0,1,.31-2.11h0a18.63,18.63,0,0,0-.1,2.11,4.82,4.82,0,0,0,.14,1c.09.3.24.57.59.53a1.34,1.34,0,0,0,.81-.5,6.27,6.27,0,0,0,.6-.83,15.9,15.9,0,0,0,1-1.89,9.59,9.59,0,0,1-.78,2,4.89,4.89,0,0,1-.59.91,1.55,1.55,0,0,1-1,.59Zm-5.44-5.63-1.38,2.65,1.1-2.78a.16.16,0,0,1,.2-.09.17.17,0,0,1,.09.21Zm3,1.33-1.08,2.65.78-2.75a.15.15,0,0,1,.2-.11.15.15,0,0,1,.1.19v0Zm3.17.81-.8,2.75.5-2.82a.15.15,0,0,1,.18-.13.16.16,0,0,1,.13.18v0Zm3.37,0-.32,3v-3a.16.16,0,1,1,.32,0Zm9-.75,1,2.86-1.29-2.74a.16.16,0,0,1,.07-.21.16.16,0,0,1,.21.07v0Zm3.29-1.28,1.21,2.79-1.49-2.65a.15.15,0,0,1,.06-.22.16.16,0,0,1,.21.06v0Zm3-1.41,1.59,2.38-1.84-2.2a.15.15,0,0,1,0-.22.17.17,0,0,1,.22,0v0Zm2.57-2,1.81,2.22-2-2a.15.15,0,0,1,0-.22.16.16,0,0,1,.22,0Zm2.23-2.45,2.12,2.11-2.33-1.88a.15.15,0,0,1,0-.22.17.17,0,0,1,.22,0Z"/></g></g></g><path class="cls-13" d="M80.3,99.63c-12.64,0-22.88,10.17-22.88,30.51C57.42,155.57,75.63,181,98.1,181s40.69-25.43,40.69-50.86c0-20.34-10.25-30.51-22.89-30.51a22.89,22.89,0,0,0-17.8,8.5,22.86,22.86,0,0,0-17.8-8.5Zm0,0"/><rect class="cls-13" x="25.28" y="115.84" width="145.64" height="54.95" rx="5.46"/><text class="cls-18" transform="translate(46.46 138.85)">Częstochowa</text><text class="cls-19" transform="translate(70.2 163.74)">Pinsk</text><path class="cls-13" d="M45,0,16,0H.05l0,16c0,7,0,14,0,21A29.09,29.09,0,0,0,45,0Z"/><text class="cls-20" transform="translate(15.63 31.75)">35</text></svg>