<svg id="Слой_1" data-name="Слой 1" xmlns="http://www.w3.org/2000/svg" viewBox="0 0 195.59 280.63"><defs><style>.cls-1{fill:#4daf50;stroke:#1d1d1b;stroke-miterlimit:10;}.cls-2{font-size:39.99px;}.cls-2,.cls-6,.cls-7{fill:#fffefe;}.cls-2,.cls-8{font-family:Impact;}.cls-3{fill:#222;}.cls-3,.cls-4,.cls-5,.cls-6{fill-rule:evenodd;}.cls-4{fill:#2bafe5;}.cls-5,.cls-8{fill:#3aa66e;}.cls-8{font-size:20px;}</style></defs><rect class="cls-1" x="-273.57" y="-12.57" width="478.17" height="297.89"/><text class="cls-2" transform="translate(19.5 263.97)">Hajnówka </text><path class="cls-3" d="M174.74,43V152.24c0,93-153.89,93-153.89,0V43H174.74"/><path class="cls-4" d="M26,170.55a70.73,70.73,0,0,1-2.54-19.21V46H169.27l-6.51,3.26L165.29,52l-7.78,2.59,2.4,2.21-8.35,3.29L153.65,63l-8.92,3.35,2.6,2.46L139,72.36l2.21,1.9-2.38,1-5.39-11-7.5,13,2.89.37-3,8.15-2.5.89,2.78,1.65-5.94,2.6,1.71,1.57-6,2,2.24,1.92-2.86,1-2.41-4.73h3.94l-7.6-15.07h4l-7.75-14.17-6.3,13.78,3.44.25L95.06,92l3.21-.06-6,16.45,3.33-.1-3.21,9.37L88.06,109l4.29-.2L84.23,92.12l4.52-.37L81,77.69h3.9L77.53,64.25l-6.79,13.1,3-.08L67.37,91.41l4.14.08-8,17.32,4.37-.1-4,11.11-5.53-10.55,4.65-.19L54.68,93l5-.3-7-15,3.44-.06L48.78,63.82,42.52,77.37l2.52.09L38.86,92.15,42,92.3l-7.36,16.36,5.66-.07L31,128.71l5,.09L25.81,149.67l8,0c.38,9.19-6.42,14.25-6.67,24.74-.39-.36-.76-3.29-1.11-3.9"/><path class="cls-5" d="M98.53,146a3,3,0,1,1-3,3A3,3,0,0,1,98.53,146Zm26.19-29.2,8.08,3.77-1.51,2.72,6.35,3.63-1.81,1.51,4.39,5.3-2.12,1.06,4.23,6.36-2.11.45,2.57,7-2.72.15,2.72,6.81h-2.88v7.11l-2.42-.6c.15,2.37.31,4.74.46,7.11l-3-.15q-.45,2.88-.91,5.75l-2.72-.91c-.91,2.32-2.27,4.92-3.18,7.24-1-.45-1.46-1.18-2.42-1.63l-4.54,5-1.21-1.82-6.2,6.06c-.15-1-.31-2-.46-3l-6.81,4.24-.75-2.42-7.12,2.87.15-2.87-7.56,2,.3-2.57-8.17.45,1.51-2.87-8.47-.61,2.27-2.42-8.18-1.21c.61-.9,1.22-1.81,1.82-2.72-2.32-1-4.83-2.34-7.15-3.35-7.58,7.19-16,15.68-23.63,23,39.61,39.69,130.79,24.45,130.79-45.73V70.63l-47.56,46.15Zm13.2-41.17-4,1.63,1.52,2-7.05,3.18,1.86,1.63-2.85,1,3-8.14-2.77-.46,5.74-10.23,4.52,9.36ZM114.05,97.88,110,99.37l2.53,2.15-7.78,3.67,2.46,1.58-7.77,3.92,2.71,2-7.65,2.91,2.6,2.4-4.14,1.7,4.34-12.57H93.82l5.81-16.24-2.92.1,7.51-14.67h-3.44l4.78-10.44,6,10.91-3.9-.08L115,91.61l-4.11-.1L114,97.87ZM63.8,148.13l-6.24-.45,9.59-20.62-5.59.23c-.36,1,6.4-12,8-19.73H65.53l7.56-17-4-.1L75.28,76.5l-2.58,0,4.8-9.8,5.55,10.13L79.44,77,87,90.93l-4.59.35,8.37,16.52-4.48.22,6,11.92-4.55,1.88,1.9,2.21-7.91,3L84,129.72l-7.58,2.72,2.27,3-8.47,3.1,2.53,2.15L64.24,144l2.81,2.78-3.25,1.4Zm-5.47,2.19L60,152.74l-6.77,2.15,1.71,2.53-7.21,2.65,2.41,2.47-8.41,3,2.53,3-8.85,2.46,2.2,2a29.49,29.49,0,0,1-8.76,2.74c-1.69-3,1-7.62,1.67-10.82,2.71-5.28,4.62-10.11,4.51-16.35l-7.23-.19,10.05-21H32.78l9.39-19.91H36.65L44.05,91l-3.5,0,6.32-14.72-2.81.09,4.69-10.14,5.82,10.52H51l7.32,15.11-5.07.1,8.08,16.16-4.43.54,6.39,12.57-3.65,7.24,6-.44-10,20.72,6.32.16-3.62,1.42"/><path class="cls-6" d="M65.89,173.29,73.78,177l-1.67,2.72,8,.91-1.51,2.42,7.57.3-1.06,2.75,7.57-.33-.31,2.12,7.23-2v2.27l6.85-2.69.63,2.57,7.54-4.84v2.87l5.48-5.41,1.24,1.54,4-4.6,2.27,1.51,2.72-7,2.43,1.21.9-5.6,3,.15-.15-7.11,2.33.45-.15-6.75,2.18-.21-2.7-6.66,3.18-.15-3.33-7,2.45-.3-4.26-6.05,2-1-4-4.94,1.36-1.21-6.35-3.32,1.72-2.67-7.13-3.36-58,55.59ZM172.27,46V68.6L40.42,195.35a53,53,0,0,1-11.86-17.92l12-3.76-2.53-1.83,8.6-2.6-2.47-3,8.48-3.41-2.34-2.15,7-2.91-1.9-2.27,6.89-2L60.51,151,69,147.05l-2.34-2.46,8-3.29L73,139.09l8.09-3.16L79,133.21l7.21-3L84,127.64l8.6-3.22-2.46-2.09L99.59,118l-2.53-1.89,7.4-3.23-2.41-2.08,8-3.86-3.1-1.71,7.78-3.35-2.47-2.08,8.29-3-2.34-2,6.19-2-1.78-1.38,6.72-2.73L126.4,86.8l6.83-2.33-2.53-1.9,7.08-2.78L136,77.51l7.84-2.78-2.4-1.9,8.22-3.47-2.28-2.6,8.29-3.35-1.77-2.75L162.32,57l-2.09-1.66,7.34-2.65-2-2.53,6.08-4.14h.65ZM98.53,144.92A4.07,4.07,0,1,1,94.47,149a4.08,4.08,0,0,1,4.06-4.07"/><path class="cls-7" d="M44.83,0l-29,0h-16l0,16c0,7,0,14,0,21A29.11,29.11,0,0,0,51.35,18.3,28.92,28.92,0,0,0,44.83,0Z"/><text class="cls-8" transform="translate(15.45 31.75)">21</text></svg>