<?xml version="1.0" encoding="utf-8"?>
<!-- Generator: Adobe Illustrator 26.0.3, SVG Export Plug-In . SVG Version: 6.00 Build 0)  -->
<svg version="1.1" id="Слой_1" xmlns="http://www.w3.org/2000/svg" xmlns:xlink="http://www.w3.org/1999/xlink" x="0px" y="0px"
	 viewBox="0 0 195.6 280.6" style="enable-background:new 0 0 195.6 280.6;" xml:space="preserve">
<style type="text/css">
	.st0{clip-path:url(#SVGID_00000021830139717608796820000014584368285487066551_);fill:#549FD7;}
	
		.st1{clip-path:url(#SVGID_00000021830139717608796820000014584368285487066551_);fill-rule:evenodd;clip-rule:evenodd;fill:#A91916;}
	.st2{clip-path:url(#SVGID_00000021830139717608796820000014584368285487066551_);}
	.st3{fill-rule:evenodd;clip-rule:evenodd;fill:#424242;}
	.st4{fill:#3D82C3;}
	.st5{fill:#424242;}
	.st6{fill:#F7E73E;}
	.st7{fill-rule:evenodd;clip-rule:evenodd;fill:#FFFFFF;}
	.st8{fill-rule:evenodd;clip-rule:evenodd;fill:#D3361C;}
	.st9{fill-rule:evenodd;clip-rule:evenodd;fill:#201B18;}
	.st10{fill-rule:evenodd;clip-rule:evenodd;fill:#DA271E;}
	.st11{fill-rule:evenodd;clip-rule:evenodd;fill:#C0A062;}
	.st12{clip-path:url(#SVGID_00000021830139717608796820000014584368285487066551_);fill:#FFFFFF;}
	.st13{clip-path:url(#SVGID_00000021830139717608796820000014584368285487066551_);enable-background:new    ;}
	.st14{font-family:'Impact';}
	.st15{font-size:24.77px;}
	.st16{font-size:20px;}
</style>
<g>
	<defs>
		<rect id="SVGID_1_" x="0" y="0" width="195.6" height="280.6"/>
	</defs>
	<clipPath id="SVGID_00000102502441659205443780000017114613303786908571_">
		<use xlink:href="#SVGID_1_"  style="overflow:visible;"/>
	</clipPath>
	
		<rect x="-6.6" y="-8.4" style="clip-path:url(#SVGID_00000102502441659205443780000017114613303786908571_);fill:#549FD7;" width="214" height="297.9"/>
	
		<path id="path3250" style="clip-path:url(#SVGID_00000102502441659205443780000017114613303786908571_);fill-rule:evenodd;clip-rule:evenodd;fill:#A91916;" d="
		M122.2,67.7c1,0,1.8,0.8,1.8,1.8v1.8c0,1-0.8,1.8-1.8,1.8h-1.8v-5.4H122.2z M122.2,75c2,0,3.6-1.6,3.6-3.6v-1.8
		c0-2-1.6-3.6-3.6-3.6h-3.6v9L122.2,75z M115,66h1.8v9H115L115,66z M111.4,66h1.8v9h-1.8l-3.6-5.7V75h-1.8v-9h1.8l3.6,5.7V66z
		 M84.2,66h5.4v1.8H86v1.8h3.6v1.8H86v1.8h3.6V75h-5.4V66z M77,66h1.8v7.2h3.6V75H77L77,66z M96,73.2h1.8c1.5,0,2.7-1.2,2.7-2.7
		c0-1.5-1.2-2.7-2.7-2.7H96v1.8h1.8c0.5,0.1,0.9,0.5,0.8,1c0,0.4-0.4,0.8-0.8,0.8H96L96,73.2z M97.8,64.2c3.5,0,6.3,2.8,6.3,6.3
		s-2.8,6.3-6.3,6.3c-3.5,0-6.3-2.8-6.3-6.3c-0.1-3.5,2.7-6.4,6.2-6.4C97.7,64.1,97.8,64.1,97.8,64.2L97.8,64.2z M97.8,66
		c2.5,0,4.5,2,4.5,4.5s-2,4.5-4.5,4.5c-2.5,0-4.5-2-4.5-4.5l0,0c-0.1-2.5,1.9-4.6,4.4-4.6C97.7,65.9,97.8,65.9,97.8,66L97.8,66z"/>
	<g id="Слой_1-2" style="clip-path:url(#SVGID_00000102502441659205443780000017114613303786908571_);">
		<path id="path10" class="st3" d="M97.7,129.5c-3.6-6.4-10.4-10.3-17.7-10.2H57.7c-5.9,0.1-10.9-4.6-11-10.5c0,0,0,0,0,0V11.4
			h102.2v97.4c-0.1,5.9-5,10.7-11,10.6c0,0,0,0,0,0h-22.2c-7.3-0.1-14.1,3.9-17.7,10.2L97.7,129.5z"/>
		<path id="path12" class="st4" d="M97.8,128.6c-2.1-3.5-5.3-6.3-9-8c-2.8-1.3-5.8-1.9-8.8-1.9H57.7c-5.6,0.1-10.2-4.4-10.4-10l0,0
			V11.9h101.1v96.9l0,0c-0.1,5.6-4.8,10.1-10.4,10h-22.3c-3,0-6,0.6-8.8,1.9C103.1,122.4,99.9,125.2,97.8,128.6L97.8,128.6z"/>
		<path id="path14" class="st5" d="M73.1,38.1c0-0.5,0.1-1,0.2-1.5c0.2-1.3,0.5-2.5,1-3.7l-1.2-2.6l0.5-0.2l0.2,0.4l-0.1-0.4
			l0.5-0.1l0.1,0.4V30h0.5l0.1,2.9c0.3,0.3,0.6,0.6,0.8,1c0.1-0.4,0.3-0.8,0.6-1.2L75,29.9l0.5-0.2l0.2,0.4l-0.1-0.4l0.5-0.1
			l0.1,0.4v-0.4h0.5l0.1,3c0.9,1.1,1.6,2.5,2.5,3.7l0,0c1,1.2,2.1,2.3,3.3,3.3c1.3,0.9,2.5,2.1,3.5,3.3l-1.2,0.3
			c0.7,0.7,1.2,1.5,1.6,2.4c-0.3,0-0.7,0-1,0c0.6,0.8,1,1.8,1.1,2.7c-0.4-0.1-0.8-0.3-1.2-0.3c0.5,1.1,0.9,2.4,1,3.6
			c-0.4-0.2-0.9-0.3-1.3-0.3c-0.2,1.1-0.4,2.3-0.4,3.4c-0.1,1.2,0,2.4,0.3,3.5c0.6,0,1.1,0.1,1.7,0.3c0.7,0.3,1.3,0.7,1.8,1.1
			c0.8,0.6,1.6,1.1,2.6,1.3c0.9,0.2,1.9,0.4,2.8,0.3c1,0,2,0,3,0.2c1,0.1,2,0.3,3,0.5c1.7,0.4,3.5,0.6,5.3,0.6
			c1.7,0,3.4-0.2,5.1-0.5l0,0c0.7-0.1,1.5-0.2,2.2-0.2l0,0c0.7,0,1.5,0,2.2,0.2c3.8,0.6,7.6,3.1,11.3,7.2c1.8,2.2,3.9,4,6.2,5.6
			c2.1,1.3,4.5,1.9,7,1.7c0.8-0.1,1.6,0,2.4,0.2c0.3,0.1,0.5,0.3,0.7,0.5c0.2,0.2,0.3,0.5,0.3,0.8c0,0.4,0,0.7-0.2,1.1
			c-0.3,0.8-0.8,1.6-1.5,2.2c-0.6,0.5-1.4,0.9-2.2,1.1l0,0c-0.4,0.1-0.8,0.1-1.3,0.2c-0.4,0-0.9,0-1.3,0c-2.2,0-4.4-0.4-6.5-1.3
			c0,0.8-0.5,1.6-1.2,2c0.3,0.6,0.4,1.3,0.6,1.9c0.1,0.7,0.1,1.3,0,2c-0.1,0.6-0.3,1.2-0.6,1.7l0,0c-0.4,0.5-1,0.9-1.7,1
			c-1.5,0.2-3.1,0.2-4.6,0l-1.2-0.1l0,0c-1.2-0.1-2.4-0.2-3.6-0.3s-2.4-0.3-3.6-0.4c-0.4,0-0.9-0.2-1.5-0.3c-1-0.3-2.1-0.4-3.2-0.4
			l0,0c-0.2,0-0.3,0.1-0.4,0.3c-0.5,0.5-0.6,1.1-1.6,1.3c-0.3,0-0.6,0-0.9-0.2c-0.4,0.5-0.9,0.8-1.4,0.9c-0.5,0.1-1,0.1-1.4-0.2
			c-0.2-0.1-0.4-0.2-0.5-0.4c-0.3,0.2-0.7,0.3-1.1,0.3c-0.7-0.1-1.3-0.5-1.6-1.1c-0.5-0.8-0.9-1.7-1-2.7c-2.1-0.2-4.2-0.3-6.3-0.3
			c0.3,1.6-0.2,2.4-1.2,2.7c-1.2,0.4-2.7,0.2-4.1,0.2c-1.5,0-3,0.1-4.6,0.1s-3,0-4.6,0c-1.3,0-2.5-0.1-3.8-0.2s-2.5-0.2-3.8-0.4
			c-0.9-0.1-1.8-0.2-2.7-0.4l0,0c-0.5-0.1-1.1-0.2-1.6-0.3c-0.3-0.1-0.7-0.1-1-0.1c-0.4-0.1-0.8,0-1.1,0.4c-0.9,0.7-2,1.1-3.2,1.1
			c-0.5,0.6-1.2,1-1.9,1.1c-0.4,0.1-0.8,0-1.2-0.1c-0.4-0.1-0.8-0.4-1.1-0.7c-0.4,0.2-0.8,0.3-1.2,0.3c-0.6-0.1-1.1-0.4-1.3-0.9
			c-0.5-0.8-0.9-1.7-0.9-2.7c0-0.6,0.1-1.2,0.3-1.7c-0.2-0.2-0.3-0.4-0.4-0.7c-0.2-0.8-0.1-1.7,0.4-2.4c0.3-0.5,0.7-1,1.1-1.4
			c0.4-0.5,0.9-0.9,1.4-1.3l0,0c0.1-0.1,0.2-0.2,0.3-0.2c0.7-0.4,1.6-0.4,2.3-0.2c0.8,0.3,1.6,0.4,2.5,0.3c0.9-0.1,1.7-0.4,2.5-0.8
			c1-0.5,2.1-0.7,3.2-0.7c0.1-0.4,0.1-0.7,0-1.1c-0.2-0.8-0.2-1.6,0-2.4l-0.8,0.5c-0.1-1.1,0-2.1,0.1-3.2l-1,0.4
			c0-1.8,0.3-3.5,0.9-5.2c0.5-1.5,1.2-2.9,2-4.2c0.9-1.5,1.6-3,2.2-4.6c0.5-1.4,0.9-2.9,1-4.4c-0.2,0.1-0.3,0.2-0.5,0.2l0,0
			c-0.8,0.5-1.8,0.5-2.6-0.1l0,0c-0.7-0.5-1-1.4-0.9-2.3c-0.2,0-0.3-0.1-0.5-0.1c-1.1-0.4-1.9-1.4-2.2-2.5c-0.2-0.1-0.4-0.3-0.5-0.5
			c-0.5-0.6-0.5-1.5,0.1-2c0,0,0.1-0.1,0.1-0.1c0.1-0.1,0.2-0.2,0.3-0.3l0,0c0.5-0.5,1.1-0.9,1.7-1.2l0,0c0.9-0.5,1.7-1.3,2.1-2.2
			c0.2-0.6,0.6-1.1,1-1.6C70.7,39.2,71.8,38.5,73.1,38.1L73.1,38.1z"/>
		<path id="path16" class="st6" d="M72.1,52.6c-0.1,1.6-0.4,3.2-1,4.7c-0.6,1.6-1.4,3.2-2.3,4.7c-0.8,1.3-1.5,2.7-2,4.2
			C66.3,67.5,66,69,66,70.4l1-0.4c-0.2,1-0.2,2-0.2,3.1l1.1-0.7c-0.4,1.1-0.5,2.2-0.3,3.4c0.1,0.6,0.1,0.9,0.1,1.2
			c0.2,0.5,0.4,0.9,0.7,1.3c0.4,0.8,1.1,1.5,1.9,1.9c0.6,0,1.2-0.1,1.9-0.1c-0.1-0.8,0.2-1.7,0.9-2.2c-0.4,0.7-0.5,1.4-0.4,2.2h1.6
			c-0.1-1.2,0.8-2.4,2-2.6c-1.1,0.6-1.6,1.8-1.4,3l-0.1,0.1c-3.3-0.1-6.5,0.1-9.7,0.8c-1,0.2-2.1,0.7-3.1,0.8c-0.5,0.1-1,0.1-1.4,0
			c-1.5-0.2-2.9-0.1-4.3,0.3c-1.5,0.6-2.4,2-2.3,3.5c0,0.9,0.3,1.8,0.8,2.5c0.2,0.4,0.6,0.7,1,0.7c0.3,0,0.5,0,0.8-0.2
			c-0.3-0.4-0.5-0.8-0.6-1.3c0-0.3,0-0.6,0-0.9c0-0.2,0-0.3,0.1-0.4c0.2-0.6,0.6-0.2,0.5,0c-0.1,0.1-0.1,0.3-0.1,0.5
			c0,0.3,0,0.5,0,0.8c0.1,0.6,0.4,1.1,0.9,1.4c0.3,0.2,0.6,0.4,0.9,0.5c0.3,0.1,0.7,0.1,1,0.1c0.7-0.1,1.3-0.5,1.7-1.1
			c1.1,0,2.2-0.4,3.1-1.1c0.4-0.4,0.9-0.6,1.5-0.5c0.3,0,0.7,0.1,1,0.1c0.6,0.1,1.1,0.2,1.6,0.4l0,0c0.9,0.2,1.8,0.4,2.7,0.5
			c1.3,0.2,2.5,0.3,3.8,0.4s2.5,0.2,3.8,0.2c1.5,0,3,0,4.5,0s3,0,4.6-0.1c1.2,0,2.7,0.3,3.9-0.2c1.7-0.6,0.7-3.1,0.3-4.2l1,0.1
			c-0.2-1.5-0.8-2.9-1.8-4.1c0.5-0.3,1.1-0.5,1.6-0.6c-1-1.2-2.1-2.2-3.4-3c0.5-0.4,1.1-0.7,1.7-0.9c-0.8-0.7-1.9-1.6-2.7-2.2
			c1.4,0.5,2.6,1.3,3.6,2.4c-0.3,0.1-0.6,0.2-0.9,0.3l0,0c-0.3,0.1-0.6,0.2-0.8,0.4c1.3,0.9,2.4,2,3.3,3.3c-0.6,0.1-1.2,0.2-1.8,0.5
			c1,1.3,1.5,2.9,1.7,4.5l-0.8-0.1c0.1,0.3,0.2,0.6,0.3,0.9c2.1-0.1,4.2-0.1,6.3,0.1c0-1,0.4-2,1.1-2.7c1-1.2,2.4-2,4-2.2
			c1.1-0.2,2.3-0.1,3.4,0.1c-2.6-1.8-4-3.7-4.4-5.6c-0.5-2.8,0.5-5.7,2.6-7.6c-1.7,2.3-2.6,5.4-2.1,7.5c0.7,3.2,3.8,5.1,6.4,6.8
			c-1.9-0.6-3.9-0.8-5.8-0.7c-1.5,0.2-2.8,1-3.7,2.1c-0.7,0.7-1,1.7-1,2.6c0.1,0.9,0.4,1.8,0.9,2.6c0.3,0.5,0.7,0.8,1.3,0.9
			c0.2,0.1,0.5,0,0.7-0.2c0-0.1-0.1-0.1-0.1-0.2c-0.2-0.4-0.3-0.8-0.3-1.3c0-0.3,0.1-0.5,0.1-0.7c0.2-0.5,0.6-0.2,0.5,0
			c-0.1,0.2-0.2,0.5-0.2,0.8c0,0.3,0.1,0.7,0.2,1c0.2,0.3,0.4,0.5,0.7,0.7c0.3,0.2,0.7,0.2,1.1,0.1c0.5-0.1,0.9-0.3,1.2-0.7
			c-0.1-0.1-0.1-0.2-0.2-0.2l0,0c-0.2-0.4-0.3-0.8-0.3-1.2c0-0.5,0.5-0.4,0.5-0.1c-0.1,0.4,0,0.7,0.2,1.1l0,0
			c0.1,0.2,0.2,0.3,0.4,0.4c0.2,0.1,0.4,0.1,0.5,0.1c0.7-0.1,0.9-0.7,1.3-1.1c0.2-0.2,0.4-0.3,0.7-0.4l0,0c1.2,0,2.3,0.1,3.4,0.5
			c0.6,0.1,1.1,0.2,1.4,0.3c1.2,0.2,2.4,0.3,3.6,0.4s2.4,0.2,3.6,0.3l0,0l1.2,0.1c1.5,0.2,3,0.2,4.5,0.1c0.6-0.1,1.1-0.4,1.4-0.8
			l0,0c0.3-0.4,0.5-0.9,0.6-1.4c0.1-0.6,0.1-1.2,0-1.8c-0.3-1.6-1-3-2-4.3c-0.2-0.3,0.1-0.4,0.3-0.2c0.5,0.6,1,1.3,1.3,2l0,0
			c1.4-0.8,1.1-2.9,0.5-3.8c-0.3-0.4,0.2-0.3,0.4,0c0.3,0.5,0.5,1.2,0.5,1.8c2,0.9,4.2,1.3,6.4,1.3c0.4,0,0.9,0,1.3,0
			c0.4,0,0.8-0.1,1.2-0.2l0,0c0.7-0.1,1.4-0.5,2-1c0.6-0.5,1.1-1.2,1.4-2c0.1-0.3,0.2-0.6,0.2-0.9c0-0.2-0.1-0.4-0.2-0.5
			c-0.1-0.2-0.3-0.3-0.5-0.3c-0.7-0.2-1.4-0.3-2.1-0.2c-2.5,0.3-5.1-0.3-7.3-1.7c-2.3-1.6-4.5-3.5-6.3-5.7c-3.6-4-7.3-6.4-11-7
			c-1.4-0.2-2.8-0.2-4.2,0.1l0,0c-1.7,0.4-3.5,0.5-5.2,0.5c-1.8,0-3.6-0.2-5.4-0.6c-1-0.2-1.9-0.4-2.9-0.5c-1-0.1-1.9-0.1-2.9-0.1
			c-1,0-1.9-0.2-2.8-0.4c-1-0.3-2-0.8-2.8-1.4c-0.5-0.4-1.1-0.8-1.7-1c-0.5-0.2-1.1-0.3-1.7-0.3h-0.2l-0.1-0.2
			c-0.3-1.3-0.5-2.6-0.4-3.9c0.1-1.3,0.2-2.6,0.5-3.9c0.4,0,0.8,0,1.2,0.1c-0.2-1.2-0.6-2.4-1.2-3.5c0.4,0,0.8,0.1,1.2,0.2
			c-0.2-0.8-0.7-1.6-1.3-2.2c0.3-0.2,0.7-0.2,1.1-0.3c-0.5-0.8-1.1-1.5-1.8-2.1l1.3-0.3c-0.9-1-1.8-1.9-2.9-2.7l0,0
			c-1.2-1-2.4-2.2-3.4-3.4l0,0c-0.8-1.1-1.5-2.4-2.4-3.5c-0.6,1.4-0.6,2.9-0.1,4.3c0.1,1.2,0.9,2.1,2,2.5c0.8,0.2,0.7,1.1,0.2,1.6
			c-1.1,1-4.3,0.5-2.7-1c0.4-0.4,0.4-0.9,0.2-1.5c-0.1-0.3-0.2-0.7-0.2-1c-0.9,0.1-1.8,0.3-2.7,0.7c-1.2,0.4-2.3,1.1-3.2,1.9
			c-0.4,0.4-0.7,0.9-1,1.5c-0.5,1.1-1.3,1.9-2.3,2.5l0,0c-0.6,0.4-1.1,0.8-1.6,1.2l0,0l-0.3,0.3c-0.4,0.3-0.5,1-0.2,1.4
			c0,0,0,0,0,0.1c0.1,0.1,0.3,0.3,0.4,0.4h0.1h0.1c0.1,0,0.3-0.1,0.3-0.2c0.3-0.3,0.8-0.2,0.4,0.2c-0.2,0.2-0.4,0.4-0.7,0.4
			c0.3,0.9,1,1.6,1.9,2c0.8,0.2,1.6,0.1,2.3-0.2c0.4-0.2,0.7,0.2,0.4,0.3c-0.6,0.3-1.3,0.5-1.9,0.5c-0.2,0.7,0.1,1.4,0.7,1.9l0,0
			c0.2,0.1,0.4,0.2,0.6,0.3c0.5,0.1,1.1,0,1.5-0.3l0,0c0.2-0.1,0.4-0.2,0.6-0.3c0.2-0.1,0.4-0.2,0.7-0.2c1.5-0.3,3.1-0.2,4.6,0.3
			c1.3,0.4,2.6,0.8,3.9,0.4c-0.3-0.3-0.5-0.6-0.6-1c0.4,0,0.8-0.1,1.2-0.2l0,0c-0.3-0.2-0.5-0.5-0.7-0.9c0.2-0.3,0.5-0.5,0.8-0.7
			c-0.7-0.3-1.4-0.6-2.2-0.8l0.2-0.3l0,0c0.2-0.5,0.5-0.9,0.8-1.3c-0.7,0-1.3,0-2,0h-0.6c0.2-0.6,0.6-1.1,1-1.5l-0.1,0l0,0
			c-1-0.4-2.2-0.4-3.2-0.3c1.1-0.5,2.3-0.6,3.4-0.2l0,0c0.2,0.1,0.3,0.1,0.5,0.2l0,0l0.3,0.2c-0.4,0.3-0.7,0.7-1,1.2
			c0.9,0,1.8,0,2.8,0.2c-0.4,0.5-0.8,1-1.2,1.6c0.8,0.2,1.5,0.6,2.4,0.7c-0.3,0.4-0.6,0.8-1,1.1c0.1,0.2,0.3,0.3,0.4,0.5l0,0
			c0.2,0.2,0.4,0.3,0.7,0.5c-0.5,0.2-1,0.4-1.5,0.5c0.2,0.3,0.5,0.6,0.8,0.8c-1.7,0.8-3.1,0.4-4.9-0.1c-1.5-0.5-3-0.6-4.5-0.3
			L72.1,52.6z M67.1,77.4L67.1,77.4c-1,0-2.1,0.2-3,0.7c-0.8,0.5-1.7,0.8-2.7,0.9c-0.9,0.1-1.8,0-2.7-0.4c-0.5-0.2-1.1-0.2-1.7,0
			l-0.3,0.1c-0.1,0.1-0.2,0.1-0.3,0.2l0,0c-0.5,0.4-0.9,0.8-1.3,1.2c-0.4,0.4-0.8,0.9-1.1,1.4c-0.4,0.6-0.5,1.3-0.3,2
			c0,0.1,0.1,0.2,0.2,0.3c0.5-0.8,1.2-1.4,2.1-1.7c1.5-0.5,3-0.6,4.6-0.4c0.4,0.1,0.9,0.1,1.3,0c1-0.2,2.1-0.5,3.1-0.8
			c1.5-0.3,3.1-0.5,4.6-0.6c-0.6-0.5-1.1-1.1-1.5-1.7C67.8,78.1,67.4,77.7,67.1,77.4L67.1,77.4z M75.6,34.7c-0.3-0.5-0.7-1-1.1-1.4
			c-0.4,1.1-0.7,2.2-0.9,3.4c-0.1,0.4-0.1,0.8-0.1,1.2c0.7-0.2,1.5-0.4,2.2-0.5C75.7,36.5,75.6,35.6,75.6,34.7z"/>
		<path id="path18" class="st5" d="M125.2,85.1c0.2,0.9-0.2,1.4-0.7,1.7c-0.7,0.2-1.3,0.2-2,0c-0.6-0.1-1.3-0.2-1.9-0.3
			c0.7-0.2,1.5-0.3,2.2-0.2c0.6,0.1,1.2,0.1,1.7-0.2c0.6-0.4,0.1-1.7-0.1-2.5C124.7,84,125.1,84.5,125.2,85.1L125.2,85.1z"/>
		<path id="path20" class="st5" d="M69.3,44.4c0.2-0.5,0.6-0.8,1.2-0.8c0.6,0,1.1,0,1.7,0c0.4,0,0.7-0.1,1.1-0.2
			c-0.1,0.3-0.3,0.5-0.6,0.6c0.1,0.4-0.1,0.9-0.4,1.2l0,0c-0.2,0.2-0.5,0.4-0.8,0.4c-0.4,0-0.7-0.1-1-0.4c-0.3-0.3-0.4-0.7-0.4-1.1
			C69.8,44.1,69.5,44.2,69.3,44.4L69.3,44.4z M70.5,44.1c0,0.3,0.1,0.5,0.2,0.7c0.2,0.2,0.5,0.3,0.7,0.3c0.5-0.1,0.8-0.5,0.7-1
			c0,0,0,0,0,0C71.7,44.1,71.1,44.1,70.5,44.1z"/>
		<circle id="circle22" class="st5" cx="68.9" cy="48.8" r="0.3"/>
		<circle id="circle24" class="st5" cx="68.2" cy="48" r="0.3"/>
		<circle id="circle26" class="st5" cx="69" cy="47.2" r="0.3"/>
		<circle id="circle28" class="st5" cx="67.2" cy="48.4" r="0.3"/>
		<ellipse id="ellipse30" class="st5" cx="86" cy="69" rx="0.7" ry="0.6"/>
		<ellipse id="ellipse32" class="st5" cx="69.4" cy="74.6" rx="0.7" ry="0.6"/>
		<ellipse id="ellipse34" class="st5" cx="83.6" cy="71.4" rx="0.7" ry="0.6"/>
		<ellipse id="ellipse36" class="st5" cx="88.2" cy="71.2" rx="0.7" ry="0.6"/>
		<ellipse id="ellipse38" class="st5" cx="75.2" cy="74.6" rx="0.7" ry="0.6"/>
		<ellipse id="ellipse40" class="st5" cx="73.6" cy="76.3" rx="0.7" ry="0.6"/>
		<ellipse id="ellipse42" class="st5" cx="79.1" cy="72.8" rx="0.7" ry="0.6"/>
		<ellipse id="ellipse44" class="st5" cx="95.6" cy="74" rx="0.7" ry="0.6"/>
		<ellipse id="ellipse46" class="st5" cx="99.2" cy="74.1" rx="0.7" ry="0.6"/>
		<ellipse id="ellipse48" class="st5" cx="106.5" cy="75.1" rx="0.7" ry="0.6"/>
		<ellipse id="ellipse50" class="st5" cx="119" cy="69.9" rx="0.7" ry="0.6"/>
		<ellipse id="ellipse52" class="st5" cx="123.9" cy="71.5" rx="0.7" ry="0.6"/>
		<ellipse id="ellipse54" class="st5" cx="121.1" cy="71.5" rx="0.7" ry="0.6"/>
		<ellipse id="ellipse56" class="st5" cx="117.5" cy="72.5" rx="0.7" ry="0.6"/>
		<ellipse id="ellipse58" class="st5" cx="114.7" cy="73.3" rx="0.7" ry="0.6"/>
		<ellipse id="ellipse60" class="st5" cx="109" cy="76.3" rx="0.7" ry="0.6"/>
		<ellipse id="ellipse62" class="st5" cx="112.1" cy="75.5" rx="0.7" ry="0.6"/>
		<ellipse id="ellipse64" class="st5" cx="109" cy="85.1" rx="0.9" ry="0.8"/>
		<ellipse id="ellipse66" class="st5" cx="109.8" cy="79.2" rx="0.9" ry="0.8"/>
		<ellipse id="ellipse68" class="st5" cx="91.2" cy="72.6" rx="0.9" ry="0.8"/>
		<ellipse id="ellipse70" class="st5" cx="97.4" cy="72.1" rx="0.9" ry="0.8"/>
		<ellipse id="ellipse72" class="st5" cx="93.3" cy="75.8" rx="0.9" ry="0.8"/>
		<ellipse id="ellipse74" class="st5" cx="97.9" cy="76.7" rx="0.9" ry="0.8"/>
		<ellipse id="ellipse76" class="st5" cx="101" cy="78.7" rx="0.9" ry="0.8"/>
		<ellipse id="ellipse78" class="st5" cx="97.9" cy="80" rx="0.9" ry="0.8"/>
		<ellipse id="ellipse80" class="st5" cx="94.8" cy="79" rx="0.9" ry="0.8"/>
		<ellipse id="ellipse82" class="st5" cx="95.2" cy="82.3" rx="0.9" ry="0.8"/>
		<ellipse id="ellipse84" class="st5" cx="114" cy="85.3" rx="0.9" ry="0.8"/>
		<ellipse id="ellipse86" class="st5" cx="117.6" cy="86.7" rx="0.9" ry="0.8"/>
		<ellipse id="ellipse88" class="st5" cx="113.8" cy="82.3" rx="0.9" ry="0.8"/>
		<ellipse id="ellipse90" class="st5" cx="117.9" cy="82.9" rx="0.9" ry="0.8"/>
		<ellipse id="ellipse92" class="st5" cx="122.9" cy="81.5" rx="1" ry="0.8"/>
		<ellipse id="ellipse94" class="st5" cx="125.9" cy="76.1" rx="1" ry="0.8"/>
		<ellipse id="ellipse96" class="st5" cx="114.1" cy="79" rx="1" ry="0.8"/>
		<ellipse id="ellipse98" class="st5" cx="119.5" cy="79.1" rx="1" ry="0.8"/>
		<ellipse id="ellipse100" class="st5" cx="121.7" cy="76.7" rx="1" ry="0.8"/>
		<ellipse id="ellipse102" class="st5" cx="119" cy="75.2" rx="0.9" ry="0.8"/>
		<ellipse id="ellipse104" class="st5" cx="123" cy="74" rx="0.9" ry="0.8"/>
		<ellipse id="ellipse106" class="st5" cx="124.1" cy="78.6" rx="0.9" ry="0.8"/>
		<ellipse id="ellipse108" class="st5" cx="105.7" cy="72.1" rx="0.7" ry="0.6"/>
		<ellipse id="ellipse110" class="st5" cx="108.6" cy="72.1" rx="0.7" ry="0.6"/>
		<ellipse id="ellipse112" class="st5" cx="87.8" cy="81.7" rx="1" ry="0.8"/>
		<ellipse id="ellipse114" class="st5" cx="80.6" cy="76.4" rx="1" ry="0.8"/>
		<ellipse id="ellipse116" class="st5" cx="71.9" cy="85.3" rx="1" ry="0.8"/>
		<ellipse id="ellipse118" class="st5" cx="77.9" cy="85.8" rx="1" ry="0.8"/>
		<ellipse id="ellipse120" class="st5" cx="83.8" cy="85.8" rx="1" ry="0.8"/>
		<ellipse id="ellipse122" class="st5" cx="86.9" cy="78" rx="1" ry="0.8"/>
		<ellipse id="ellipse124" class="st5" cx="69.8" cy="77.4" rx="0.9" ry="0.8"/>
		<ellipse id="ellipse126" class="st5" cx="85.1" cy="73.3" rx="0.9" ry="0.8"/>
		<ellipse id="ellipse128" class="st5" cx="78.7" cy="79.2" rx="0.9" ry="0.8"/>
		<ellipse id="ellipse130" class="st5" cx="84.3" cy="80.6" rx="0.9" ry="0.8"/>
		<ellipse id="ellipse132" class="st5" cx="87.8" cy="85.1" rx="0.9" ry="0.8"/>
		<ellipse id="ellipse134" class="st5" cx="80.4" cy="83" rx="0.9" ry="0.8"/>
		<ellipse id="ellipse136" class="st5" cx="74.6" cy="82.9" rx="0.9" ry="0.8"/>
		<ellipse id="ellipse138" class="st5" cx="69.1" cy="83.4" rx="0.9" ry="0.8"/>
		<ellipse id="ellipse140" class="st5" cx="115.9" cy="76.3" rx="0.9" ry="0.8"/>
	</g>
	<g id="Warstwa_1" style="clip-path:url(#SVGID_00000102502441659205443780000017114613303786908571_);">
		<path id="path10-2" class="st3" d="M41.5,267.6v-79.1c0.1-18.5,11.9-30.6,29-39.3c3.7-1.9,7.4-3.6,11.3-5l0,0
			c5.8-2.1,11.9-5.4,15.2-8.9l0.8-0.9l0.8,0.9c3.3,3.7,9,6.6,14.5,8.8l0,0c3.7,1.5,7.9,2.8,12.2,5c17.1,8.5,28.7,20.9,28.7,39.4
			v79.1L41.5,267.6z"/>
		<path id="path10_0" class="st7" d="M118.2,148.4l-1.4-0.5l-0.2,29.2l0,0v0.8c-0.3,3.3-1.2,6.5-2.8,9.4c-1.5,3.1-3.4,6-5.8,8.5
			c-2.7,2.9-6.1,5.4-10.2,5.9l0,0c-3.2-0.5-6.1-2-8.3-4.3c-3-2.8-5.4-6.1-7.2-9.8c-1.8-3.2-2.9-6.8-3.3-10.5v-29.4l-1.4,0.6v28.8
			c0.3,3.7,1.3,7.2,2.9,10.5c1.8,3.9,4.4,7.3,7.5,10.2c2.7,2.5,6.1,4.4,9.7,5.3c3.9-0.6,7.5-2.4,10.5-5c3.2-2.9,5.7-6.4,7.5-10.4
			c1.5-3.3,2.3-6.9,2.6-10.5L118.2,148.4L118.2,148.4z M115.8,177.1l0.2-29.5l-1.3-0.5l-0.1,28.7c-0.2,3.7-1.1,7.3-2.9,10.6
			c-1.5,3-3.6,5.8-6,8.2c-2.2,2.3-5,3.9-8,4.9c-2.6-0.8-4.9-2.1-6.9-3.9c-2.6-2.3-4.8-5.1-6.4-8.3c-1.9-3.5-2.9-7.4-3-11.4v-29.3
			l-1.8,0.7v29.7c0.4,3.6,1.5,7.1,3.3,10.3c1.8,3.6,4.2,6.8,7.1,9.6c2.1,2.1,4.8,3.5,7.8,4c3.8-0.4,7.2-2.8,9.7-5.6
			c2.3-2.5,4.1-5.3,5.6-8.3C114.7,184,115.7,180.6,115.8,177.1L115.8,177.1L115.8,177.1z M73.3,212.2h5.8v5.1h-5.8V212.2z
			 M61.6,217.3v-5.1H73v5.1H61.6z M55.5,217.3v-5.1h5.7v5.1H55.5z M67.5,207h11.6v4.9H67.5V207z M55.5,207h11.7v4.9H55.5L55.5,207z
			 M139.5,217.7v5.1h-11.6v-5.1L139.5,217.7z M139.5,212.2v5.1h-5.7v-5.1H139.5z M116.4,222.8v-5.1h11.1v5.1H116.4z M127.9,207h11.6
			v4.9h-11.6V207z M116.4,207h11.1v4.9h-11.1V207z M91.6,217.7v5.1h-6.2v-5.1L91.6,217.7z M121.7,217.3h-5.3v-5.1h5.3V217.3z
			 M122.1,212.2h11.3v5.1h-11.3V212.2z M67.1,222.8H55.5v-5.1h11.6V222.8z M109.9,217.7v5.1h-6.2v-5.1L109.9,217.7z M103.8,217.3
			h-0.4v5.4H92v-5.4h-6.6v-5.1h24.5v5.1L103.8,217.3z M73,150.4c1.4-0.7,2.6-1.3,3.8-1.8v1.8H73z M61.6,177.2h11.3v5H61.6V177.2z
			 M61.6,166.8h11.3v5H61.6V166.8z M55.5,172.1h11.7v4.8H55.5C55.5,176.9,55.5,172.1,55.5,172.1z M49.9,177.2h11.3v5H49.9
			L49.9,177.2z M55.5,187.5v-4.9h11.7v4.9H55.5z M61.6,193v-5.1h11.3v5.1L61.6,193z M49.9,193v-5.1h11.3v5.1L49.9,193z M61.2,198.6
			v5.1H49.9v-5.1H61.2z M72.9,198.6v5.1H61.6v-5.1H72.9z M55.5,198.2v-4.9h11.7v4.9H55.5z M85.1,203.6H73.2v-5.1h11.9V203.6z
			 M79.1,198.2H67.5v-4.9h11.6V198.2z M118.9,150.3v-1.6c1.3,0.5,2.6,1,3.8,1.6H118.9z M133.9,177.2h11.5v5h-11.5L133.9,177.2z
			 M128,161.3h11.5v5h-11.6L128,161.3z M128,172.1h11.6v4.8h-11.6L128,172.1z M122.1,156.1h11l0.5,0.3v4.6H122L122.1,156.1z
			 M122.1,166.8h11.5v5H122L122.1,166.8L122.1,166.8z M122.1,177.3h11.4v5H122L122.1,177.3L122.1,177.3z M128,187.5v-4.9h11.6v4.9
			H128z M133.9,193v-5.1h11.5v5.1H133.9z M122,193v-5.1h11.4v5.1H122z M133.4,198.6v5.1H122v-5.1H133.4z M145.3,198.6v5.1h-11.5
			v-5.1H145.3z M127.9,198.2v-4.8h11.6v4.8H127.9z M116.4,193.4h11.1v4.8h-11.1L116.4,193.4z M87.7,198.6c2.6,2.3,5.7,4.1,9.1,5.1
			H85.5v-5.1H87.7z M83,193.3c1.3,1.8,2.7,3.4,4.3,4.9h-7.8v-4.9H83z M79.8,187.9c0.8,1.8,1.8,3.5,2.9,5.1h-9.4v-5.1L79.8,187.9z
			 M77.8,182.6c0.5,1.7,1.1,3.3,1.8,4.9H67.5v-4.9L77.8,182.6L77.8,182.6z M76.9,177.2c0.1,1.7,0.4,3.4,0.8,5h-4.5v-5H76.9z
			 M76.9,172.1v4.8h-9.4v-4.8H76.9z M76.9,166.8v5h-3.6v-5H76.9z M76.9,161.4v5h-9.4v-5H76.9z M76.9,156.1v4.9h-3.6v-4.9L76.9,156.1
			z M67.5,153.3c1.3-0.7,2.7-1.5,4-2.2l0,0l0.8-0.4h4.6v5h-9.3L67.5,153.3L67.5,153.3z M63.6,155.7c1.1-0.7,2.3-1.5,3.5-2.2v2.2
			H63.6z M61.6,157.1c0.5-0.3,1-0.7,1.5-1h9.8v4.9H61.6L61.6,157.1z M56.6,161c1.5-1.3,3-2.5,4.6-3.6v3.7L56.6,161z M55.5,162
			l0.7-0.6h11v5H55.5L55.5,162z M51.4,166.4c1.1-1.4,2.4-2.7,3.7-4v4H51.4z M49.9,168.4c0.4-0.6,0.8-1.1,1.2-1.6h10.1v5H49.9
			L49.9,168.4L49.9,168.4z M47.9,171.7c0.5-1,1.1-1.9,1.7-2.8v2.8H47.9z M45.6,176.8c0.5-1.6,1.2-3.2,2-4.8h7.5v4.8H45.6z
			 M44.3,182.2c0.3-1.7,0.7-3.4,1.2-5h4.1v5H44.3z M43.8,187.5c0-1.6,0.2-3.3,0.5-4.9h10.9v4.9H43.8z M43.8,192.9v-4.4
			c0-0.2,0-0.4,0-0.6h5.8v5.1L43.8,192.9z M43.8,198.2v-4.9h11.3v4.9H43.8z M43.8,203.6v-5.1h5.8v5.1H43.8z M151.9,198.5v5.1h-6.1
			v-5.1H151.9z M151.9,193.3v4.8h-12v-4.8H151.9z M151.9,187.9v5.1h-6.1v-5.1L151.9,187.9z M151.5,182.6c0.2,1.6,0.4,3.2,0.4,4.9
			h-12v-4.9H151.5z M150.2,177.2c0.5,1.6,0.9,3.3,1.2,5h-5.7v-5H150.2z M148.1,172.1c0.8,1.5,1.5,3.1,2,4.8h-10.3v-4.8H148.1z
			 M145.8,168.1c0.8,1.1,1.5,2.3,2.2,3.6h-2.2V168.1z M144.8,166.7c0.2,0.3,0.5,0.6,0.7,0.9l0,0v4.1h-11.6v-5L144.8,166.7z
			 M139.9,161.4c1.7,1.5,3.2,3.2,4.6,5h-4.6V161.4z M133.9,156.6c1.9,1.3,3.8,2.8,5.5,4.3h-5.5V156.6z M127.9,152.9
			c1.6,0.9,3.1,1.8,4.5,2.7h-4.5L127.9,152.9L127.9,152.9z M118.9,155.7v-5h4.6l0.9,0.4l0,0c1,0.5,2.1,1.1,3.1,1.6v2.9L118.9,155.7z
			 M118.9,161V156h2.8v5L118.9,161z M118.9,166.3v-5h8.6v5H118.9z M118.9,171.7v-5h2.8v5H118.9z M118.9,176.8v-4.8h8.6v4.8H118.9z
			 M118.2,182.2c0.4-1.6,0.6-3.3,0.7-5v-0.1h2.7v5L118.2,182.2z M116.5,187.5c0.7-1.6,1.2-3.2,1.6-4.9h9.4v4.9H116.5z M113.6,193
			c1.1-1.6,2-3.3,2.8-5.1h5.3v5.1H113.6z M109.2,198.2c1.6-1.4,3-3.1,4.2-4.8h2.6v4.8H109.2z M109.9,203.7H99.1
			c3.6-0.8,7-2.6,9.7-5.1h1.1L109.9,203.7z M110.2,198.6h11.4v5.1h-11.4L110.2,198.6z M116.3,241.8c0-0.6,0.2-1.1,0.6-1.6
			c0.4-0.5,1.1-0.8,1.8-0.7h18.5c0.7,0,1.3,0.2,1.8,0.7c0.4,0.4,0.6,1,0.6,1.6L116.3,241.8L116.3,241.8z M121.7,247.7v6.9h-5.4v-6.9
			H121.7z M130.5,247.7v6.9H125v-6.9H130.5z M139.4,247.7v6.9h-5.6v-6.9H139.4z M133.8,247.4v-5.2h5.6v5.2H133.8z M127.8,247.4v-5.2
			h5.6v5.2H127.8z M122,247.4v-5.2h5.5v5.2H122L122,247.4z M116.2,247.4v-5.2h5.4v5.2H116.2z M131.6,228.2v-5h5.8v5H131.6z
			 M118.7,228.2v-5h5.6v5H118.7z M124.3,233.9v5.2h-5.6v-5.2L124.3,233.9z M137.4,233.9v5.2h-5.8v-5.2H137.4z M128.5,233.9h2.8v5.2
			h-6.6v-5.2h2.1v2.1h1.7L128.5,233.9L128.5,233.9z M130,228.6h7.4v4.9h-8.9v-1.7c1.3-0.4,2-1.8,1.6-3.1
			C130,228.7,130,228.6,130,228.6z M125.4,228.2h-0.7v-5h6.6v5h-1.4c-0.7-1.2-2.3-1.6-3.5-0.9C125.9,227.6,125.6,227.8,125.4,228.2z
			 M126.7,231.9L126.7,231.9v1.7h-8.1v-4.9h6.5c-0.1,0.3-0.2,0.6-0.2,0.9C125.1,230.6,125.8,231.5,126.7,231.9L126.7,231.9z
			 M104.4,247.7h5.4v5.3h-5.4V247.7z M90.9,253h-5.4v-5.3h5.4V253z M104.5,260.1v-6.7h5.4v6.7H104.5z M94.9,260.1v-6.7h5.6v6.7H94.9
			z M85.5,260.1v-6.7h5.4v6.7H85.5z M97.6,253h-6.4v-5.3h6.4V253z M98,247.7h6.1v5.3H98L98,247.7z M107.6,244.9
			c0.6,0,1.3,0.2,1.7,0.7c0.4,0.5,0.6,1.1,0.6,1.7H85.4c0-0.6,0.2-1.2,0.6-1.7c0.4-0.5,1-0.7,1.6-0.7L107.6,244.9z M97.6,228.1H88
			v-5h9.6L97.6,228.1z M98,223.1h9.4v5H98L98,223.1L98,223.1z M101.8,228.5h5.6v4.9h-5.6V228.5z M93.8,233.5H88v-4.9h5.8L93.8,233.5
			z M101.8,239.5h5.6v5.1h-5.6V239.5z M93.8,244.6H88v-5.1h5.8L93.8,244.6z M98.7,239.5h2.7v5.1h-7.2v-5.1H97v2.4h1.7L98.7,239.5z
			 M99.8,233.9h7.5v5.2h-8.6v-1.4c1.3-0.5,2-1.9,1.5-3.2C100.1,234.3,100,234.1,99.8,233.9L99.8,233.9z M96.1,233.5h-2v-4.9h7.3v4.9
			h-1.8C98.5,232.6,97.1,232.6,96.1,233.5L96.1,233.5z M96.9,237.8L96.9,237.8v1.4H88v-5.2h7.8c-0.3,0.4-0.5,1-0.5,1.5
			C95.3,236.5,96,237.4,96.9,237.8L96.9,237.8z M69.9,247.8v6.9h-5.4v-6.9H69.9z M55.4,254.7v-6.9h5.7v6.9H55.4z M61.1,242.2v5.2
			h-5.7v-5.2H61.1z M79.1,242.2v5.2h-5.9v-5.2H79.1z M67.1,247.4h-5.6v-5.2h5.6L67.1,247.4z M67.5,242.2H73v5.2h-5.5L67.5,242.2
			L67.5,242.2z M73.3,254.7v-6.9h5.9v6.9H73.3z M58.1,223.1h6v5h-6V223.1z M76.7,228.1h-6.4v-5h6.4V228.1z M151.9,217.7v5.1h-6.2
			v-5.1H151.9z M151.9,212.2v5.1h-6.2v-5.1H151.9z M151.9,206.9v4.9h-12V207L151.9,206.9z M43.7,206.6V204h108.1v2.6h-44.3v0.4h8.5
			v4.9H79.5V207H88v-0.4L43.7,206.6z M43.7,211.9V207h11.4v4.9L43.7,211.9z M43.7,217.3v-5.1h5.8v5.1H43.7z M43.7,222.8v-5.1h5.8
			v5.1L43.7,222.8z M70.3,233.9h6.4v5.2h-6.4V233.9z M64.1,239.1h-5.9v-5.2h5.9V239.1L64.1,239.1z M68.1,233.9h1.8v5.2h-5.5v-5.2h2
			v2.1h1.7L68.1,233.9L68.1,233.9z M69.7,228.5h7v4.9h-8.5v-1.7c1-0.4,1.7-1.3,1.7-2.4C69.8,229.1,69.8,228.8,69.7,228.5z
			 M65.1,228.2h-0.6v-5h5.5v5h-0.5c-0.7-1.2-2.3-1.6-3.5-0.9C65.6,227.5,65.3,227.8,65.1,228.2z M66.4,231.8L66.4,231.8v1.7h-8.3
			v-4.9h6.8c-0.5,1.3,0.1,2.7,1.4,3.2C66.3,231.8,66.4,231.8,66.4,231.8z M57.8,239.5c-0.7,0-1.3,0.2-1.7,0.7
			c-0.4,0.4-0.6,1-0.6,1.6h23.7c0-0.6-0.2-1.1-0.6-1.6c-0.4-0.5-1.1-0.8-1.7-0.7L57.8,239.5z M67.5,217.7h11.6v5.1H67.5L67.5,217.7z
			"/>
		<path id="path10_1" class="st8" d="M79.5,241.8V255h-6.6v-7.3h-2.7v7.3H64v-7.3h-2.5v7.3h-6.4v-13.2c0-0.7,0.2-1.3,0.7-1.8
			c0.5-0.6,1.2-0.9,2-0.9l0,0v-16h-2.7v-10.9h-5.2v10.9h-6.2v42.3h108.1v-42.2h-6.5v-0.4l0,0v-10.5h-5.5v10.5l0,0v0.4h-2v16l0,0v0.1
			c0.5,0.1,1,0.4,1.4,0.8c0.4,0.5,0.7,1.1,0.6,1.8V255h-6.3v-7.3h-2.6v6.9l0,0v0.4h-6.3v-7.2H122v6.9l0,0v0.4h-6.1v-13.2
			c0-0.7,0.2-1.3,0.7-1.8c0.5-0.5,1.1-0.8,1.8-0.8l0,0v-16H116v-10.9h-5.8v10.9h-2.6v21.4c0.7,0,1.4,0.3,1.9,0.9
			c0.4,0.5,0.7,1.2,0.7,1.9v13.2h-6.1v-7.1h-3.2v7.1h-6.3v-7.1h-3.3v7.1h-6.2v-13.1c0-0.7,0.2-1.3,0.7-1.9c0.5-0.5,1.2-0.9,1.9-0.9
			l0,0v-21.4h-2.5v-0.4l0,0v-10.5h-5.6v10.9h-2.4v16l0,0c0.7,0,1.3,0.3,1.8,0.8C79.3,240.5,79.5,241.1,79.5,241.8L79.5,241.8z
			 M114,146.9l-0.1,29c-0.2,3.6-1.2,7.1-2.8,10.3c-1.5,2.9-3.4,5.6-5.8,7.9c-2.1,2.2-4.6,3.7-7.5,4.6c-2.5-0.8-4.7-2.1-6.6-3.8
			c-2.5-2.3-4.6-5-6.1-8c-1.7-3.4-2.7-7.1-2.9-10.9v-29.6l0.3-0.1c5.6-2,11.4-5,15.2-8.7c3.8,3.7,9.2,6.5,14.5,8.6
			C112.8,146.4,113.4,146.6,114,146.9L114,146.9z"/>
		<path id="path1021" class="st3" d="M107.1,181.4l2.7-1l-2.2-2.6v-17.5l3.4-3.2l-0.3-0.2c-2.4-1.3-4.1-3.4-4.9-6l-0.1-0.4l-7.9,5.3
			l0.6,0.9l-0.7,0.4l0.9,1.2l4.1-2.5c0.3,0.6,0.8,1.9,2.1,1.9l-2.8,2.8l-0.1,4.7l-3.7,0.8c-3.2-3.8-5.5-8.4-6.6-13.3l-0.1-0.4
			l-6.4,4l0.4,1l-0.6,0.5l0.4,1.2l2.4-1.2c0.9,3.8,2.9,7.2,5.7,9.8l-2.7,1c-3.2,1.1-1.7,13.7,4.7,12.4l7.8-1.5l2,1.8l0,0l1.3-0.6
			L107.1,181.4L107.1,181.4z"/>
		<path id="path1021_2" class="st7" d="M107.2,180.8l-2.8-2.9h-0.1c-1.2,0.2-3.6,0.9-5.9,1.4c-1.1,0.2-2.2,0.4-3.3,0.5
			c-0.3,0-0.6,0-0.9,0c-0.8-0.1-1.5-0.4-2-1c-0.4-0.4-0.7-0.9-0.9-1.4c-0.5-1.1-0.8-2.3-0.9-3.5c-0.1-1.1-0.1-2.2,0-3.3
			c0-0.4,0.1-0.7,0.2-1.1c0.1-0.3,0.2-0.4,0.3-0.4l4.6-1.7l-0.3-0.3c-3-3-5.1-6.9-6-11.1l-0.1-0.3l-0.3,0.2l-2.9,1.6l-0.3-0.9
			l5.4-3.4c1.2,4.9,3.5,9.5,6.8,13.3l0.1,0.1l5.8-1.1v-4.7l3-3l-0.3-0.1c-1.4-0.5-2.5-1.6-2.9-3.1l-0.1-0.3l-4.5,2.6l-0.5-0.8l7-4.6
			c0.8,2.5,2.5,4.5,4.7,5.9l-3.1,2.9V178l1.8,2.2L107.2,180.8z"/>
		<path id="path1021_3" class="st9" d="M95.8,178.3c0.7,0,1.4,0,2.2-0.2l3.6-0.7l2.2-0.4v-10.3l-8.8,2.2l0,0c-0.5,0.2-0.8,0.5-1,1
			c-0.1,0.2-0.2,0.4-0.3,0.6l-0.2,0.4c-0.7,2.2-0.4,4.5,0.8,6.5c0.4,0.5,1,0.8,1.6,0.9L95.8,178.3z"/>
		<path id="path1021_4" class="st10" d="M101.5,169l-7.5,1.8c-0.8,2.1-0.5,4.4,0.6,6.3c0.3,0.4,0.7,0.7,1.2,0.7c0.7,0,1.3,0,2-0.2
			l3.7-0.7L101.5,169z"/>
		<path id="path1037" class="st11" d="M130,282.4c1.5,5.4-3.6,10.9-10.4,13.8c-6.6,2.6-13.6,3.7-20.7,3.4c-0.3-2.9-0.2-5.6,1.7-7.5
			c-0.7-1.2-1.8-2.4-1.9-3.7c2.2,2,4.6,2.5,5.4-0.5c0.2-2.1-1.6-4.2-0.9-6.8c-4,0.8-2.1,2.8-3.1,4.1c-1.8-3.4-1.5-9.5,3.3-7.6
			c1.7,1.7,2.3,3.4,0.8,4.7l2.3,5.9l1.2-5.7l-1.2-1.4c-0.1-2.1,0.1-3.7,1.1-4.6c4.3-1,5.6,3.7,3.8,6.7c-1-0.9,0.6-3-3.1-2.5
			c2.3,1.9-2.4,7.1,2.1,8c2.5,0,2.2-1.2,3.2-1.9l-0.2,1.1l-1.2,2.6l3.4,4.5l1.5-5.3l-2.2-2.9l-0.5-0.9c2.7,1.3,4.6,0.6,4.7-1.6
			c-0.1-1.6-2.4-3.5-2.3-5.5c-2.9,1.4-0.9,2.5-1.4,3.7c-2.7-1.6-3.1-7.2,0.3-7.1c2.7,0.6,3.6,2.7,2.6,4.6l3,4.6v-5.9
			c-1.8-1.5-0.7-4.4,1.7-5.9c2-0.3,3.6,1.7,3.9,3.7c0.3,1.5-1.3,2.8-0.9,3.9c-1.3-1.1,0.2-3.5-3.9-3.2c2.5,1.4-0.3,5,1.7,7.7
			C126.2,286.6,128.1,285,130,282.4L130,282.4z M66,282.2c-1.3,5.2,3.8,11.4,10.5,14.2c6.3,2.6,14.4,3.4,20.6,3.2
			c0.3-2.9-0.2-5.7-2-7.6c1-1,1.8-2.2,2.2-3.6c-2.2,2-4.6,2.5-5.4-0.5c-0.2-2.1,1.4-3.9,0.7-6.5c2.8,0.6,1.9,3.2,2.7,3.8
			c2.9-3.3,1.9-9.7-2.9-7.8c-1.5,0.9-2,2.8-1.1,4.2c0.1,0.3,0.3,0.5,0.5,0.7c-0.9,1.8-1.7,3.7-2.4,5.7c-0.1-2.1-0.6-4.2-1.4-6.1
			l1.1-0.7c0.7-1.4,0.3-3.2-0.9-4.2c-3.6-1-6,3.8-4.3,6.8c1-0.8-0.1-2.8,3.2-2.9c-2.9,1.8,2.7,7-1.6,8c-2.5,0-1.1-1.1-2.8-1.8
			l-0.1,1.6l0.7,1.5l-3.7,4.3l-0.7-5l1.4-1.4l0.8-1.6c-2.7,1.3-4.5,0.7-4.6-1.5s4.4-2.7,2.3-5.8c2.9,1.4,1.5,2.9,2,4.1
			c2.6-1.9,2.7-8.1-0.8-8c-2.7-0.5-3.6,2.1-2.4,4.2c-1.3,1.3-2.4,2.9-3.2,4.6v-5.7c2.2-1.5,1.8-3.7-1.4-5.2c-2-0.8-4,1.1-4.3,3.2
			c-0.2,1.5,0.6,2.3,0.7,3.4c1.2-0.6-0.1-3,3.5-2.7c-2.5,1.4,1.5,4.2-0.4,6.9c-2,1.8-4.4,0.7-6.4-1.9L66,282.2z M97.2,311h1.3
			l-0.4-1.7l2.3,0.3v-1h-2.3v-2.5h1c1.2,0,2.2-0.9,2.2-2.1l0,0c0-1.2-1-2.1-2.2-2.1c0,0,0,0,0,0h-0.4v-0.5
			c14.1-0.2,24.3-3.7,31.4-9.9c2.4-3.2,4.5-2.2,6.5,0.5l0.9,0.5l-13.8-28.8c-8.7,2.1-16.6,3.5-24.5,3.7c-8.7,0-17.4-1.2-25.8-3.6
			l-15.1,28.8c2.4-0.8,4.4-4.9,7.1-2.4c7.1,8,17.9,11.4,31.5,11.2v0.4c-1.1,0-2.1,1-2.1,2.1l0,0c0,1.2,1,2.1,2.2,2.1h0.5v2.4
			l-1.7-0.2l0.1,1.1l1.6-0.2L97.2,311z"/>
		<path id="path1013" class="st3" d="M98.5,220.2l-0.2-0.6l0.8,0.2v-1.5l-0.9,0.2V218h0.1c0.8-0.2,1.3-0.9,1.3-1.8v-0.1
			c0.1,0.1,0.3,0.1,0.4,0.1h0.2c0,0,0,0.1,0,0.1c0,0.4,0.3,0.7,0.7,0.7l0,0c0.1,0,0.2,0,0.3-0.1c0,0.4,0.3,0.7,0.7,0.7
			c0.2,0,0.3-0.1,0.5-0.2c0.1,0.3,0.4,0.5,0.7,0.5c0.2,0,0.5-0.1,0.6-0.3c0.1,0.2,0.4,0.3,0.6,0.3c0.3,0,0.6-0.2,0.7-0.6
			c0.1,0.1,0.3,0.1,0.4,0.1c0.4,0,0.7-0.3,0.7-0.7c0,0,0,0,0,0l0,0h0.2c0.4,0,0.7-0.3,0.7-0.7l0,0c0-0.1,0-0.2,0-0.3h0.1
			c0.4,0,0.7-0.4,0.7-0.8c0-0.1,0-0.2-0.1-0.3c0.4,0,0.6-0.3,0.6-0.7c0-0.2-0.1-0.5-0.3-0.6c0.3-0.1,0.5-0.4,0.5-0.7
			c0-0.2-0.1-0.5-0.3-0.6c0.2-0.1,0.3-0.4,0.3-0.6c0-0.3-0.1-0.5-0.4-0.6c0.2-0.1,0.3-0.3,0.3-0.6c0-0.3-0.2-0.6-0.5-0.7
			c0.1-0.1,0.2-0.3,0.2-0.5c-0.4-0.1-0.6-0.5-0.6-0.8c0-0.1,0.1-0.2,0.1-0.3c0-0.3-0.2-0.6-0.5-0.7c0.3-0.3,0.3-0.7,0.1-1
			c-0.1-0.2-0.3-0.2-0.5-0.2c-0.2,0-0.3,0.1-0.5,0.2c0-0.4-0.2-0.8-0.4-1.1c-0.3-0.3-0.7-0.5-1.1-0.5c-0.1,0-0.1,0-0.2,0
			c-0.9,0.4-1.3,0.7-1.6,0.8c-0.3,0.1-0.6,0.1-0.9,0c-0.1,0-0.3,0-0.4,0.1c-0.2,0.1-0.3,0.1-0.4,0.2c-0.2,0.1-0.5,0.3-0.8,0.4
			c-0.2,0.1-0.4,0.1-0.6,0c-0.2,0-0.5,0-0.7,0c-0.5,0.2-1,0.3-1.5,0.4c-0.2,0-0.5-0.1-0.7-0.2c-0.2-0.1-0.5-0.2-0.8-0.1
			c-0.6,0.1-1.2,0-1.8-0.4c-0.4-0.3-0.9-0.5-1.5-0.4c-0.5,0.2-1.1,0.1-1.5-0.2c-0.2-0.1-0.3-0.2-0.5-0.4c-0.2-0.1-0.4-0.2-0.7-0.2
			c-0.4,0-0.8,0.2-1,0.6c-0.2,0.3-0.4,0.6-0.4,1c-0.1-0.1-0.3-0.1-0.4-0.1c-0.4,0-0.7,0.3-0.7,0.7c0,0.2,0.1,0.4,0.2,0.6
			c-0.3,0.1-0.5,0.4-0.5,0.7c0,0.2,0.1,0.3,0.2,0.4c-0.3,0.1-0.6,0.4-0.6,0.7c0,0.2,0.1,0.3,0.2,0.5c-0.3,0.1-0.4,0.4-0.4,0.7
			c0,0.2,0.1,0.4,0.3,0.6c-0.2,0.1-0.4,0.4-0.4,0.6c0,0.2,0.1,0.5,0.3,0.6c-0.2,0.1-0.3,0.4-0.3,0.6c0,0.3,0.2,0.5,0.4,0.6
			c-0.2,0.1-0.3,0.4-0.3,0.6c0,0.4,0.3,0.7,0.6,0.7c-0.1,0.1-0.1,0.2-0.1,0.3c0,0.4,0.3,0.7,0.7,0.7h0.1c0,0.1,0,0.2,0,0.3
			c0,0.4,0.3,0.7,0.7,0.7l0,0h0.2l0,0c0,0.4,0.3,0.7,0.7,0.7c0,0,0,0,0,0c0.2,0,0.3,0,0.4-0.1c0.1,0.3,0.4,0.6,0.7,0.6
			c0.3,0,0.5-0.1,0.6-0.3c0.1,0.2,0.4,0.3,0.6,0.3c0.3,0,0.6-0.2,0.7-0.5c0.1,0.1,0.3,0.2,0.5,0.2c0.4,0,0.7-0.3,0.7-0.7
			c0.1,0,0.2,0.1,0.3,0.1c0.4,0,0.7-0.3,0.7-0.7l0,0c0-0.1,0-0.1,0-0.2c0.1,0,0.2,0.1,0.3,0.1c0.1,0,0.2,0,0.3-0.1v0.1
			c-0.1,0.8,0.4,1.5,1.2,1.8h0.1v0.5l-0.9-0.2v1.5l0.7-0.2l-0.2,0.7L98.5,220.2z"/>
		<path id="path1013_5" class="st11" d="M94.7,215.6l0.2-0.1c0,0.1,0,0.1,0,0.2L94.7,215.6z M95.5,214.7l0.1-0.1
			C95.6,214.7,95.6,214.7,95.5,214.7L95.5,214.7L95.5,214.7z M96.2,213.7c0-0.1,0.1-0.2,0.1-0.2c0,0.1,0,0.2,0.1,0.2L96.2,213.7
			L96.2,213.7z M97.1,211.8c0.2-0.4,0.3-0.8,0.4-1.1s0.2-0.6,0.3-0.9c0.1,0.3,0.2,0.7,0.3,1s0.2,0.6,0.4,1c-0.2-0.1-0.5-0.2-0.8-0.2
			C97.5,211.7,97.3,211.7,97.1,211.8L97.1,211.8z M87.5,212.2c-0.3,0-0.5-0.2-0.5-0.4c0,0,0,0,0,0c0-0.3,0.2-0.5,0.5-0.5l0,0
			c0.3,0,0.5,0.2,0.5,0.5c0,0,0,0,0,0C88,212,87.8,212.2,87.5,212.2C87.5,212.2,87.5,212.2,87.5,212.2L87.5,212.2z M87.6,210
			c0.1,0,0.2,0.1,0.3,0.1l0,0c0.2,0.1,0.3,0.2,0.3,0.4c0,0.3-0.2,0.5-0.5,0.5c0,0,0,0,0,0c-0.3,0-0.5-0.2-0.5-0.5c0,0,0,0,0,0
			C87.2,210.2,87.4,210,87.6,210L87.6,210z M87.9,209.8c-0.3,0-0.5-0.2-0.5-0.5c0-0.3,0.2-0.5,0.5-0.5c0,0,0,0,0,0
			c0.3,0,0.5,0.2,0.5,0.4c0,0,0,0,0,0C88.4,209.6,88.2,209.8,87.9,209.8z M88.3,208.7c-0.3,0-0.5-0.2-0.5-0.5c0-0.3,0.2-0.5,0.5-0.5
			c0,0,0,0,0,0c0.3,0,0.5,0.2,0.5,0.5C88.8,208.5,88.6,208.7,88.3,208.7C88.4,208.7,88.4,208.7,88.3,208.7z M88.6,207.5
			c-0.3,0-0.5-0.2-0.5-0.5c0-0.3,0.2-0.5,0.5-0.5c0,0,0,0,0,0c0.2,0,0.3,0.1,0.4,0.3c0,0.1,0,0.1,0,0.2
			C89,207.2,88.9,207.4,88.6,207.5z M96.6,214.1l0.1,0.1c0,0.1,0.1,0.1,0.1,0.2c0,0.1,0,0.2,0,0.2l0,0l-0.3,0.2l0,0
			c-0.2,0.1-0.5,0-0.6-0.3c0-0.1,0-0.1,0-0.2c0-0.3,0.2-0.5,0.5-0.5c0,0,0,0,0,0C96.5,214,96.6,214,96.6,214.1L96.6,214.1z
			 M97.1,214.4L97.1,214.4L97.1,214.4z M96.3,215.2L96.3,215.2z M96.1,215.5c0,0.1,0,0.1-0.1,0.2c0,0.1-0.1,0.1-0.1,0.1
			c-0.1,0-0.2,0.1-0.3,0.1c-0.3,0-0.5-0.2-0.5-0.4c0,0,0,0,0,0c0-0.3,0.2-0.5,0.5-0.5C95.8,215,96.1,215.2,96.1,215.5
			C96.1,215.5,96.1,215.5,96.1,215.5L96.1,215.5z M94.6,216.8c-0.3,0-0.5-0.2-0.5-0.5c0-0.3,0.2-0.5,0.5-0.5c0,0,0,0,0,0
			c0.3,0,0.5,0.2,0.5,0.4c0,0,0,0,0,0C95.1,216.6,94.9,216.8,94.6,216.8L94.6,216.8z M93.6,217.5c-0.3,0-0.5-0.2-0.5-0.4
			c0,0,0,0,0,0c0-0.3,0.2-0.5,0.5-0.5c0,0,0,0,0,0c0.2,0,0.4,0.2,0.4,0.5C94,217.3,93.8,217.5,93.6,217.5L93.6,217.5z M92.4,217.8
			c-0.3,0-0.5-0.2-0.5-0.5c0,0,0,0,0,0c0-0.3,0.2-0.5,0.5-0.5c0,0,0,0,0,0c0.3,0,0.5,0.2,0.5,0.4c0,0,0,0,0,0
			C92.9,217.6,92.7,217.8,92.4,217.8C92.4,217.8,92.4,217.8,92.4,217.8L92.4,217.8z M91.2,217.8c-0.3,0-0.5-0.2-0.5-0.4c0,0,0,0,0,0
			c0-0.3,0.2-0.5,0.5-0.5l0,0c0.3,0,0.5,0.2,0.5,0.5c0,0,0,0,0,0C91.7,217.6,91.4,217.8,91.2,217.8
			C91.2,217.8,91.1,217.8,91.2,217.8L91.2,217.8z M90,217.4c-0.3,0-0.5-0.2-0.5-0.4c0,0,0,0,0,0c0-0.1,0-0.2,0.1-0.3l0,0
			c0.1-0.1,0.2-0.2,0.4-0.2c0.3,0,0.5,0.2,0.5,0.5C90.5,217.2,90.3,217.4,90,217.4C90,217.4,90,217.4,90,217.4L90,217.4z
			 M89.1,216.7c-0.3,0-0.5-0.2-0.5-0.5c0-0.3,0.2-0.5,0.5-0.5c0,0,0,0,0,0c0.3,0,0.5,0.2,0.5,0.4c0,0,0,0,0,0
			C89.5,216.5,89.3,216.7,89.1,216.7C89,216.7,89,216.7,89.1,216.7L89.1,216.7z M88.3,215.7c-0.3,0-0.5-0.2-0.5-0.5
			c0-0.1,0.1-0.3,0.2-0.4c0.1,0,0.1,0,0.2-0.1l0,0l0,0h0.1c0.3,0,0.5,0.2,0.5,0.4c0,0,0,0,0,0C88.7,215.5,88.5,215.7,88.3,215.7
			L88.3,215.7z M87.7,214.6c-0.3,0-0.5-0.2-0.5-0.4c0,0,0,0,0,0c0-0.3,0.2-0.5,0.5-0.5l0,0c0.3,0,0.5,0.2,0.5,0.5c0,0,0,0,0,0
			C88.2,214.4,88,214.6,87.7,214.6C87.7,214.6,87.7,214.6,87.7,214.6L87.7,214.6z M87.6,213.3c-0.3,0-0.5-0.2-0.5-0.4c0,0,0,0,0,0
			c0-0.3,0.2-0.5,0.5-0.5c0,0,0,0,0,0c0.3,0,0.5,0.2,0.5,0.5l0,0C88.1,213.1,87.9,213.4,87.6,213.3
			C87.6,213.4,87.6,213.4,87.6,213.3L87.6,213.3z M98.8,209.3c-0.3-0.2-0.7-0.3-1-0.3c-0.3,0-0.5,0.1-0.8,0.2
			c-0.2,0.1-0.4,0.1-0.7,0.1c-0.6,0-1.1-0.3-1.4-0.7c-0.1-0.1-0.3-0.1-0.4-0.1c-0.1,0-0.3,0-0.4,0.1c-0.2,0.1-0.5,0.2-0.7,0.2
			c-0.2,0-0.5-0.1-0.7-0.2c-0.3-0.2-0.5-0.4-0.7-0.6c-0.1-0.1-0.2-0.2-0.3-0.2c-0.1,0-0.2,0-0.4,0c-0.2,0.1-0.5,0.1-0.7,0.1
			c-0.4,0-0.8-0.1-1-0.4c-0.2-0.3-0.3-0.6-0.3-1c0-0.4,0.1-0.7,0.3-1c0.2-0.3,0.5-0.4,0.8-0.4c0.2,0,0.4,0,0.5,0.2
			c0.2,0.1,0.3,0.2,0.4,0.4c0.5,0.4,1.1,0.5,1.7,0.2c0.4-0.1,0.8,0.1,1.3,0.4c0.6,0.3,1.3,0.5,1.9,0.4c0.2,0,0.4,0,0.6,0.1
			c0.2,0.1,0.5,0.2,0.8,0.2c0.5-0.1,1-0.2,1.5-0.4c0.2,0,0.4,0,0.7,0c0.2,0.1,0.5,0.1,0.7,0c0.3-0.1,0.5-0.2,0.8-0.4
			c0.1-0.1,0.3-0.1,0.4-0.2c0.1,0,0.2-0.1,0.3-0.1c0.3,0.1,0.7,0.1,1-0.1c0.3-0.1,0.7-0.4,1.6-0.8c0.6-0.3,0.6-0.3,0.1,0
			c0.4,0,0.7,0.1,0.9,0.4c0.2,0.3,0.4,0.6,0.4,1c0,0.4-0.1,0.7-0.3,1c-0.2,0.3-0.6,0.5-1,0.5c-0.2,0-0.5-0.1-0.7-0.2
			c-0.1-0.1-0.3-0.1-0.4-0.1c-0.2,0-0.3,0.1-0.5,0.2c-0.2,0.2-0.4,0.4-0.6,0.6c-0.2,0.2-0.4,0.3-0.7,0.3c-0.2,0-0.5-0.1-0.7-0.2
			c-0.1-0.1-0.3-0.1-0.5-0.2c-0.1,0-0.2,0-0.3,0c-0.1,0.1-0.1,0.1-0.2,0.2c-0.2,0.3-0.4,0.5-0.6,0.6
			C99.5,209.4,99.1,209.4,98.8,209.3L98.8,209.3z M99.3,209c0.5-0.1,0.9-0.7,0.7-1.2c-0.1-0.4-0.4-0.6-0.7-0.7
			c-0.5-0.1-1.1,0.2-1.2,0.7c-0.1,0.5,0.2,1.1,0.7,1.2C99,209,99.2,209,99.3,209z M96.3,209c0.5-0.1,0.9-0.7,0.7-1.2
			c-0.1-0.4-0.4-0.6-0.7-0.7c-0.5-0.1-1.1,0.2-1.2,0.7c-0.1,0.5,0.2,1.1,0.7,1.2C96,209,96.2,209,96.3,209z M102.2,208.3
			c0.6,0,1-0.4,1-1c-0.1-0.5-0.7-0.9-1.2-0.7c-0.4,0.1-0.6,0.4-0.7,0.7C101.2,207.8,101.6,208.2,102.2,208.3L102.2,208.3z
			 M93.5,208.3c0.6,0,1-0.4,1-1c0-0.5-0.5-0.9-1-0.9c-0.5,0-1,0.4-1,0.9C92.5,207.8,92.9,208.3,93.5,208.3L93.5,208.3z M104.9,207.5
			c0.5,0,1-0.4,1-0.9c-0.1-0.5-0.7-0.9-1.2-0.7c-0.4,0.1-0.6,0.4-0.7,0.7C104,207,104.4,207.4,104.9,207.5L104.9,207.5z M90.7,207.5
			c0.5,0,1-0.4,1-0.9c-0.1-0.5-0.7-0.9-1.2-0.7c-0.4,0.1-0.6,0.4-0.7,0.7C89.7,207,90.1,207.4,90.7,207.5L90.7,207.5z M99.4,215.2
			h0.1c0,0-0.1,0.1-0.1,0.1L99.4,215.2z M99.8,214.9c0-0.1,0.1-0.2,0.1-0.2l0.1,0.2C100,214.8,99.9,214.8,99.8,214.9L99.8,214.9z
			 M99.4,213.7H99c0-0.1,0.1-0.2,0.1-0.3C99.2,213.5,99.2,213.6,99.4,213.7L99.4,213.7z M98.5,214.4L98.5,214.4
			C98.5,214.4,98.5,214.4,98.5,214.4l-0.1,0.1L98.5,214.4L98.5,214.4z M99.2,214.9h-0.1c-0.1-0.1-0.2-0.2-0.4-0.3c0-0.1,0-0.1,0-0.2
			c0-0.3,0.2-0.5,0.5-0.5c0,0,0,0,0,0c0.2,0,0.3,0.1,0.4,0.2v0.1c0,0.1,0,0.1,0,0.2c0,0.3-0.2,0.5-0.5,0.5l0,0L99.2,214.9z
			 M97.8,214.3c-0.7,0-1.3-0.5-1.3-1.2c0-0.7,0.5-1.3,1.2-1.3c0.7,0,1.3,0.5,1.3,1.2c0,0,0,0,0,0.1C99,213.8,98.4,214.3,97.8,214.3
			C97.8,214.3,97.7,214.3,97.8,214.3L97.8,214.3z M102.2,216.5L102.2,216.5c0.2,0.1,0.3,0.3,0.3,0.4c0,0.3-0.2,0.5-0.5,0.5
			c0,0,0,0,0,0c-0.3,0-0.5-0.2-0.5-0.4c0,0,0,0,0,0c0-0.3,0.2-0.5,0.5-0.5l0,0C102.1,216.5,102.1,216.5,102.2,216.5L102.2,216.5z
			 M107,207.5c-0.3,0-0.5-0.2-0.5-0.5c0-0.3,0.2-0.5,0.5-0.5c0,0,0,0,0,0c0.2,0,0.5,0.2,0.5,0.4c0,0,0,0,0,0
			C107.4,207.3,107.2,207.5,107,207.5C106.9,207.5,106.9,207.5,107,207.5L107,207.5z M107.2,208.7c-0.3,0-0.5-0.2-0.5-0.5
			c0-0.3,0.2-0.5,0.5-0.5c0,0,0,0,0,0c0.3,0,0.5,0.2,0.5,0.5C107.7,208.5,107.5,208.7,107.2,208.7z M107.6,209.8
			c-0.3,0-0.5-0.2-0.5-0.5c0-0.3,0.2-0.5,0.5-0.5c0,0,0,0,0,0c0.3,0,0.5,0.2,0.5,0.4c0,0,0,0,0,0
			C108.1,209.6,107.9,209.8,107.6,209.8C107.6,209.8,107.6,209.8,107.6,209.8L107.6,209.8z M107.9,211c-0.3,0-0.5-0.2-0.5-0.4
			c0,0,0,0,0,0c0-0.2,0.2-0.4,0.4-0.5c0.3-0.1,0.5,0.1,0.6,0.4c0,0,0,0.1,0,0.1C108.4,210.7,108.2,211,107.9,211
			C107.9,211,107.9,211,107.9,211L107.9,211z M108,212.2c-0.2,0-0.5-0.2-0.5-0.4c0,0,0,0,0,0c0-0.3,0.2-0.5,0.4-0.5c0,0,0,0,0,0
			c0.3,0,0.5,0.2,0.5,0.5l0,0C108.5,212,108.3,212.2,108,212.2C108,212.2,108,212.2,108,212.2L108,212.2z M108,213.4
			c-0.3,0-0.5-0.2-0.5-0.4c0,0,0,0,0,0c0-0.3,0.2-0.5,0.5-0.5l0,0c0.3,0,0.5,0.2,0.5,0.5c0,0,0,0,0,0
			C108.5,213.2,108.3,213.4,108,213.4C108,213.4,108,213.4,108,213.4L108,213.4z M107.4,214.7c0.1,0.1,0.1,0.1,0.2,0.1
			c0.1,0.1,0.1,0.2,0.1,0.4c0,0.3-0.2,0.5-0.5,0.5c-0.3,0-0.5-0.2-0.5-0.5c0-0.3,0.2-0.5,0.5-0.5c0,0,0,0,0,0H107.4z M107.9,214.6
			c-0.3,0-0.5-0.2-0.5-0.4c0,0,0,0,0,0c0-0.3,0.2-0.5,0.5-0.5c0,0,0,0,0,0c0.3,0,0.5,0.2,0.5,0.5l0,0
			C108.4,214.4,108.2,214.6,107.9,214.6C107.9,214.6,107.8,214.6,107.9,214.6L107.9,214.6z M106.6,216.6c-0.3,0-0.5-0.2-0.5-0.5
			c0,0,0,0,0,0c0-0.2,0.2-0.5,0.4-0.5c0,0,0,0,0,0c0.3,0,0.5,0.2,0.5,0.4c0,0,0,0,0,0C107.1,216.4,106.9,216.7,106.6,216.6
			C106.6,216.7,106.5,216.7,106.6,216.6L106.6,216.6z M105.6,217.4c-0.2,0.1-0.5,0-0.6-0.3c0,0,0-0.1,0-0.1c0-0.3,0.2-0.5,0.5-0.5
			s0.5,0.2,0.5,0.5C106,217.2,105.8,217.4,105.6,217.4L105.6,217.4z M104.5,217.8c-0.3,0-0.5-0.2-0.5-0.4c0,0,0,0,0,0
			c0-0.3,0.2-0.5,0.5-0.5c0,0,0,0,0,0c0.3,0,0.5,0.2,0.5,0.5l0,0C105,217.6,104.8,217.8,104.5,217.8
			C104.5,217.8,104.4,217.8,104.5,217.8L104.5,217.8z M103.2,217.8c-0.3,0-0.5-0.2-0.5-0.5c0,0,0,0,0,0c0-0.3,0.2-0.5,0.5-0.5
			s0.5,0.2,0.5,0.5c0,0.3-0.1,0.5-0.4,0.5C103.3,217.9,103.2,217.8,103.2,217.8L103.2,217.8z M101,216.8c-0.3,0-0.5-0.2-0.5-0.5
			c0-0.3,0.2-0.5,0.5-0.5c0,0,0,0,0,0c0.3,0,0.5,0.2,0.5,0.4c0,0,0,0,0,0C101.5,216.6,101.3,216.8,101,216.8
			C101,216.8,101,216.8,101,216.8L101,216.8z M100,216c-0.1,0-0.3-0.1-0.3-0.2c0-0.1-0.1-0.2-0.1-0.3c0-0.3,0.2-0.5,0.5-0.5
			c0.3,0,0.5,0.2,0.5,0.5C100.5,215.8,100.3,216,100,216C100,216,100,216,100,216L100,216z M98.1,220h-0.8l0.2-0.8l-0.9,0.2v-0.8
			l0.9,0.2V218c0,0,0-0.1,0-0.1c-0.1-0.1-0.2-0.1-0.3-0.1c-0.8-0.2-1.3-1.1-1.1-2c0.2-0.7,0.8-1.2,1.5-1.1c0.9,0,1.6,0.6,1.6,1.5
			c0,0,0,0.1,0,0.1c0,0.7-0.5,1.3-1.2,1.5c-0.1,0-0.2,0.1-0.3,0.1c0,0,0,0.1,0,0.1v0.9l0.9-0.3v0.9l-0.9-0.2L98.1,220L98.1,220z"/>
		<path id="path1013_6" class="st8" d="M105.7,208l0.1-0.1c0.1,0.4,0.2,0.8,0.4,1.1c0.5,1.3,0.6,2.8,0.4,4.2
			c-0.2,1.1-0.9,2.1-1.8,2.6c-0.5,0.2-1,0.3-1.5,0.2c-0.1,0-0.2,0-0.2-0.1c0.5,0.1,1,0,1.5-0.2c1-0.5,1.7-1.5,1.9-2.7
			c0.3-1.4,0.1-2.8-0.4-4.2C105.9,208.7,105.8,208.4,105.7,208z M99.3,209.7c0.2,0,0.4-0.1,0.6-0.2c0.3-0.2,0.5-0.4,0.7-0.7
			c0-0.1,0.1-0.1,0.1-0.1c0,0,0,0,0.1,0s0.2,0.1,0.4,0.2c0.3,0.1,0.5,0.2,0.8,0.2c0.3,0,0.6-0.1,0.9-0.4c0.2-0.2,0.4-0.4,0.6-0.6
			c0.1-0.1,0.2-0.1,0.3-0.1c0.1,0,0.2,0,0.3,0.1c0.2,0.1,0.5,0.2,0.8,0.2c0.2,0,0.4,0,0.6-0.1c0.1,0.3,0.2,0.7,0.3,1
			c0.5,1.3,0.6,2.7,0.3,4c-0.2,1.1-0.8,2-1.8,2.5c-0.9,0.4-2,0.2-2.8-0.4c-1.1-0.8-1.9-1.9-2.3-3.2c-0.3-0.7-0.6-1.5-0.8-2.3
			c0,0,0-0.1,0-0.2l0.3,0.1C99,209.6,99.2,209.7,99.3,209.7L99.3,209.7z M106.1,207.7c0.1,0.4,0.2,0.9,0.4,1.2
			c0.6,1.4,0.7,3,0.4,4.6c-0.2,1.2-0.9,2.3-2,2.8c-0.5,0.2-1.1,0.3-1.6,0.2c-0.6-0.1-1.1-0.3-1.6-0.7c-0.6-0.4-1.1-1-1.5-1.6
			c-0.5-0.6-0.8-1.3-1.1-2c-0.2-0.5-0.4-1-0.6-1.6c-0.2-0.4-0.2-0.8-0.3-1.3l0,0c0,0.1,0,0.3,0,0.3c0.2,0.8,0.5,1.6,0.8,2.4
			c0,0,0,0.1,0,0.1c0.5,1.4,1.3,2.5,2.5,3.4c0.5,0.3,1,0.6,1.6,0.7c0.5,0.1,1.1,0,1.6-0.2c1.1-0.6,1.8-1.6,2-2.8
			c0.3-1.5,0.2-3-0.4-4.4c-0.1-0.3-0.2-0.8-0.4-1.2l0.1-0.1L106.1,207.7z M96.9,209.5L96.9,209.5c0,0.4-0.1,0.8-0.2,1.2
			c-0.2,0.5-0.4,1-0.6,1.5c-0.5,1.3-1.3,2.5-2.4,3.3c-0.4,0.3-0.9,0.5-1.5,0.6c-0.5,0.1-1,0-1.5-0.2c0,0-0.1-0.1-0.1-0.1
			c1,0.4,2.1,0.2,3-0.4c1.1-0.8,1.9-2,2.3-3.3c0.1-0.4,0.3-0.9,0.5-1.4c0.2-0.4,0.2-0.8,0.3-1.2L96.9,209.5L96.9,209.5z M96.6,209.5
			c-0.1,0.4-0.1,0.8-0.3,1.1c-0.2,0.5-0.4,0.9-0.5,1.4c-0.4,1.3-1.2,2.3-2.3,3.1c-0.8,0.6-1.9,0.8-2.8,0.4c-0.9-0.5-1.6-1.4-1.8-2.5
			c-0.1-0.7-0.2-1.4-0.1-2.1c0.1-0.7,0.2-1.3,0.4-1.9c0.1-0.3,0.2-0.8,0.4-1.1c0.3,0.2,0.5,0.2,0.8,0.2c0.3,0,0.5-0.1,0.8-0.1
			c0.1,0,0.2,0,0.3,0c0.1,0,0.1,0,0.2,0.1c0.2,0.3,0.5,0.5,0.8,0.7c0.2,0.2,0.5,0.2,0.8,0.2c0.3,0,0.5-0.1,0.8-0.2
			c0.1,0,0.2-0.1,0.3-0.1c0.1,0,0.2,0,0.2,0.1c0.4,0.5,1,0.8,1.6,0.8C96.4,209.6,96.5,209.6,96.6,209.5L96.6,209.5z M97.3,209.4
			L97.3,209.4c0,0.4-0.1,0.9-0.3,1.3c-0.2,0.6-0.4,1.1-0.6,1.6c-0.3,0.7-0.7,1.4-1.1,2c-0.4,0.6-0.9,1.1-1.5,1.6
			c-0.5,0.3-1.1,0.6-1.6,0.7c-0.5,0.1-1.1,0-1.6-0.2c-1.1-0.6-1.8-1.6-2-2.8c-0.3-1.5-0.2-3.1,0.4-4.6c0.1-0.4,0.3-0.8,0.4-1.2
			l0.1,0.1c-0.2,0.4-0.3,0.9-0.4,1.2l0,0c-0.3,0.7-0.4,1.4-0.5,2.1c-0.1,0.7,0,1.5,0.1,2.2c0.2,1.2,0.9,2.2,2,2.8
			c0.5,0.2,1.1,0.3,1.6,0.2c0.6-0.1,1.1-0.3,1.6-0.7c1.2-0.8,2-2,2.5-3.4c0.2-0.4,0.4-1,0.6-1.5C97.2,210.2,97.3,209.8,97.3,209.4
			L97.3,209.4z"/>
		<path id="path737" class="st7" d="M97.8,209.4L97.8,209.4c-0.1-0.1-0.1-0.2-0.1-0.2h0.1C97.8,209.2,97.8,209.3,97.8,209.4
			L97.8,209.4z M93.8,216.3L93.8,216.3L93.8,216.3z M92.8,216.8L92.8,216.8L92.8,216.8L92.8,216.8z M91.7,216.9L91.7,216.9
			L91.7,216.9L91.7,216.9L91.7,216.9z M90.7,216.7L90.7,216.7L90.7,216.7C90.7,216.7,90.7,216.7,90.7,216.7L90.7,216.7z M89.8,216.2
			L89.8,216.2L89.8,216.2L89.8,216.2L89.8,216.2z M89,215.3l0.1,0.1H89C89,215.4,89,215.4,89,215.3L89,215.3z M88.5,214.2
			c0,0.1,0.1,0.3,0.1,0.4c-0.1,0-0.1,0-0.2-0.1C88.4,214.4,88.4,214.3,88.5,214.2L88.5,214.2z M88.3,213.2c0,0.1,0,0.2,0.1,0.4
			c0,0.1,0,0.1,0,0.2c-0.1-0.1-0.2-0.2-0.3-0.3C88.1,213.4,88.2,213.3,88.3,213.2L88.3,213.2z M88.2,212.1c0,0.1,0,0.2,0,0.3
			l-0.2-0.1C88,212.2,88.1,212.2,88.2,212.1L88.2,212.1z M88.2,211c0,0.1,0,0.2,0,0.2c0-0.1-0.1-0.1-0.1-0.1
			C88.1,211.1,88.1,211.1,88.2,211L88.2,211z M88.3,209.9c0,0.1,0,0.1,0,0.2C88.3,210.1,88.3,210,88.3,209.9L88.3,209.9z
			 M88.6,208.8l-0.1,0.2c0,0,0-0.1-0.1-0.1L88.6,208.8z M89.1,207.6l-0.1,0.3c-0.1,0-0.2-0.1-0.2-0.2
			C88.8,207.6,88.9,207.5,89.1,207.6C89,207.5,89,207.6,89.1,207.6z M106.4,207.6c0.1,0.1,0.1,0.1,0.2,0.1c-0.1,0-0.1,0.1-0.1,0.2
			C106.5,207.8,106.4,207.6,106.4,207.6z M106.8,208.9h0.2c0,0-0.1,0.1-0.1,0.1L106.8,208.9z M107.2,209.9l0.1,0.1l-0.1,0.1
			C107.2,210.1,107.2,210,107.2,209.9L107.2,209.9z M107.3,211c0,0,0.1,0.1,0.2,0.1c-0.1,0-0.1,0.1-0.1,0.1L107.3,211L107.3,211z
			 M107.3,212.1l0.1,0.1c-0.1,0-0.1,0.1-0.2,0.1C107.4,212.3,107.4,212.2,107.3,212.1L107.3,212.1z M107.2,213.2
			c0.1,0.1,0.1,0.2,0.2,0.2c-0.1,0.1-0.3,0.2-0.3,0.3c0-0.1,0-0.2,0.1-0.3C107.2,213.4,107.2,213.3,107.2,213.2L107.2,213.2z
			 M107,214.2c0,0.1,0,0.2,0.1,0.3c-0.1,0-0.2,0-0.2,0.1C106.9,214.4,107,214.3,107,214.2L107,214.2z M106.4,215.3c0,0,0,0.1,0,0.1
			h-0.1L106.4,215.3z M105.7,216.2L105.7,216.2L105.7,216.2L105.7,216.2L105.7,216.2z M104.8,216.7L104.8,216.7L104.8,216.7z
			 M103.8,216.9L103.8,216.9C103.8,217,103.8,217,103.8,216.9z M102.7,216.8L102.7,216.8L102.7,216.8z M101.7,216.3L101.7,216.3
			L101.7,216.3L101.7,216.3z M100.8,215.6L100.8,215.6L100.8,215.6L100.8,215.6z M90.6,207.2c-0.4,0-0.7-0.3-0.7-0.7c0,0,0,0,0,0
			c0-0.4,0.2-0.8,0.6-0.8c0.4,0,0.8,0.2,0.8,0.6c0,0.1,0,0.1,0,0.2C91.3,206.9,91,207.2,90.6,207.2L90.6,207.2z M93.4,208.1
			c-0.4,0-0.7-0.3-0.7-0.7c0,0,0,0,0,0c0-0.4,0.3-0.7,0.7-0.7c0.4,0,0.7,0.3,0.7,0.7c0,0,0,0,0,0C94.1,207.7,93.8,208.1,93.4,208.1
			L93.4,208.1z M96.2,208.7c-0.4,0-0.7-0.3-0.7-0.7s0.3-0.7,0.7-0.7s0.7,0.3,0.7,0.7S96.6,208.7,96.2,208.7z M99.2,208.7
			c-0.4,0-0.7-0.3-0.7-0.7s0.3-0.7,0.7-0.7l0,0c0.4,0,0.7,0.3,0.7,0.7S99.6,208.7,99.2,208.7z M102,208.1c-0.4,0-0.7-0.3-0.7-0.7
			c0,0,0,0,0,0c0-0.4,0.4-0.7,0.8-0.6c0.3,0,0.6,0.3,0.6,0.6C102.8,207.7,102.5,208,102,208.1L102,208.1z M104.8,207.2
			c-0.4,0-0.7-0.3-0.7-0.7c0,0,0,0,0,0c0-0.4,0.3-0.7,0.7-0.7l0,0c0.4,0,0.7,0.3,0.7,0.7c0,0,0,0,0,0
			C105.5,206.9,105.2,207.2,104.8,207.2L104.8,207.2z"/>
	</g>
	<path style="clip-path:url(#SVGID_00000102502441659205443780000017114613303786908571_);fill:#FFFFFF;" d="M80,99.6
		c-12.6,0-22.9,10.2-22.9,30.5c0,25.4,18.2,50.9,40.7,50.9s40.7-25.4,40.7-50.9c0-20.3-10.2-30.5-22.9-30.5
		c-6.9,0-13.5,3.1-17.8,8.5C93.5,102.8,86.9,99.6,80,99.6z"/>
	<path style="clip-path:url(#SVGID_00000102502441659205443780000017114613303786908571_);fill:#FFFFFF;" d="M30.4,112.8h134.7
		c3,0,5.5,2.4,5.5,5.5v44c0,3-2.4,5.5-5.5,5.5H30.4c-3,0-5.5-2.4-5.5-5.5v-44C25,115.3,27.4,112.8,30.4,112.8z"/>
	<g style="clip-path:url(#SVGID_00000102502441659205443780000017114613303786908571_);enable-background:new    ;">
		<text transform="matrix(1 0 0 1 62.26 162.64)" class="st4 st14 st15">Radom</text>
	</g>
	<g style="clip-path:url(#SVGID_00000102502441659205443780000017114613303786908571_);enable-background:new    ;">
		<text transform="matrix(1 0 0 1 61.92 137.98)" class="st4 st14 st15">Homiel</text>
	</g>
	<path style="clip-path:url(#SVGID_00000102502441659205443780000017114613303786908571_);fill:#FFFFFF;" d="M150.6-0.3h29h16v16
		c0,7,0,14,0,21c-10.2,12.4-28.5,14.2-41,4S140.4,12.2,150.6-0.3L150.6-0.3z"/>
	<g style="clip-path:url(#SVGID_00000102502441659205443780000017114613303786908571_);enable-background:new    ;">
		<text transform="matrix(1 0 0 1 159.63 31.45)" class="st4 st14 st16">42</text>
	</g>
</g>
</svg>
