<?xml version="1.0" encoding="utf-8"?>
<!-- Generator: Adobe Illustrator 26.0.1, SVG Export Plug-In . SVG Version: 6.00 Build 0)  -->
<svg version="1.1" id="Слой_1" xmlns="http://www.w3.org/2000/svg" xmlns:xlink="http://www.w3.org/1999/xlink" x="0px" y="0px"
	 viewBox="0 0 195.6 280.6" style="enable-background:new 0 0 195.6 280.6;" xml:space="preserve">
<style type="text/css">
	.st0{clip-path:url(#SVGID_00000179641823298676403130000008350124035708494242_);}
	.st1{fill:#E52521;}
	.st2{fill-rule:evenodd;clip-rule:evenodd;fill:#010101;}
	.st3{fill-rule:evenodd;clip-rule:evenodd;fill:#2F4F9E;}
	.st4{fill-rule:evenodd;clip-rule:evenodd;fill:#FFFFFF;}
	.st5{fill-rule:evenodd;clip-rule:evenodd;fill:#FFDD08;}
	.st6{fill:none;}
	.st7{fill:#FFDD08;}
	.st8{fill:#FFFFFF;}
	.st9{fill:#F4E600;}
	.st10{fill-rule:evenodd;clip-rule:evenodd;fill:#F4E600;}
	.st11{clip-path:url(#SVGID_00000150781327361278403260000012805423772842483390_);fill:#010101;}
	.st12{enable-background:new    ;}
	.st13{fill:#010101;}
</style>
<g>
	<g>
		<defs>
			<rect id="SVGID_1_" width="195.6" height="280.6"/>
		</defs>
		<clipPath id="SVGID_00000115504989487321651540000017842410865982537355_">
			<use xlink:href="#SVGID_1_"  style="overflow:visible;"/>
		</clipPath>
	</g>
	<g>
		<defs>
			<rect id="SVGID_00000088100381754016805540000001088384359262998430_" width="195.6" height="280.6"/>
		</defs>
		<clipPath id="SVGID_00000056399439537576909120000006048898711709359234_">
			<use xlink:href="#SVGID_00000088100381754016805540000001088384359262998430_"  style="overflow:visible;"/>
		</clipPath>
		<g id="g4362" style="clip-path:url(#SVGID_00000056399439537576909120000006048898711709359234_);">
			<g id="g4307">
				<g id="layer1">
					<path id="path3405" class="st1" d="M24.2,27.9v109.3v0.1c0.4,29.5,26,70.5,74.6,70.5c46.7,0,74.3-38.1,74.5-70.6V27.9H24.2z"/>
				</g>
				<g id="g4301">
					<path id="path4288" class="st2" d="M112.7,142.1c-0.6,2.1-2.6,3.4-4.8,3.2c-0.7,9.6,17.3-1.4,13.4,9.6c-4-4-4.8,1.5-8.7-1.2
						c-1.2-0.9-2.8-1.1-4.2-0.5c0.6,3,5.3,6.6,15,6.9c4.4,0.7,12,1.1,11.4,9.9c-0.7,5.7-8,3.7-7.8,9.6c-3.7-2-4.4-5.7,0.1-8.2
						c-5.6,1.2-7.1-2.5-2.9-6.7c-4.7,1-11,1.7-16.3-7.2c-0.9-0.5-1.2-0.5-1.5,1.5c0.5,3.3,2.2,7,7.6,7.2c0,2-3.3,2-6.3,1.9
						c1.4,3.4,7.3,1,9.4,2.3c3.3,2,3,8.6-1.6,9.3c0.7-1.7,0.9-3.3-1.1-4c-2.1-0.2-6.6-2-7,0.4c1.2,3.6,3.2,3.4,5.4,2.1
						c-0.3,4.3-3.2,4.8-6.1,4.9c0.1,3.7-0.6,5.4-3.2,7c-2.6-1.4-3.4-3.4-3.3-7.1c-3-0.2-5.8-0.7-6.1-4.9c2.2,1.3,4.2,1.4,5.4-2.1
						c-0.3-2.3-4.3-1.4-6.4-1.2c-2,0.8-1.8,2.3-1.1,4c-4.6-0.7-5.1-6.8-1.7-8.9c2.1-1.3,7.7,0.4,9-1.9c-3,0.1-5.8-1.3-5.8-3.3
						c5.3-0.2,6.2-3.3,6.8-6.6c-0.3-1.9-0.6-2-1.5-1.5c-5.4,8.9-10.2,9.5-14.8,8.5c1,5.2-1.3,7.1-5.8,7c3.2,2.6,2.8,5.4,0.1,8.2
						c0.8-4.4-7.5-5.4-7.8-9.6c-1.2-12.2,8.6-10,13-10.7c9.7-0.3,12-3.7,12.5-6.7c-1.5-0.7-1.8-0.1-2.9,0.7
						c-8.2,3.1-7.9-4.2-11.9-0.3c-0.8-10.6,16.6,0.9,15.9-8.7c-2.4,0.2-3.2-1.1-3.9-3.1c6-0.4,5.4-6.5,4.2-12.4
						c-4.2,4.1-6.1,11.9-4.7,16.3c-4.4-1.2-4.7-5.7-4-11.1c-2.4,0.8-4.6,2-6.4,3.8c-1.2-5.1,5.3-8.2,8.6-13.5
						c2.5-4.3,2.7-9.3-1.4-15.8c-0.1,10-3,16.3-10.2,17.3c3.1-5,2.8-10.5,1.8-16c-2.1,11.7-4.3,25.3-5.8,22
						c1.5-4.3,2.4-8.8,2.8-13.4c-2.5,8-2.8,18.6-11.7,18.6c3.3-7,3.6-18.3,4.1-29.3c-3,9.3-4.3,27.9-9.1,27.8
						c3.9-6.1,4.7-15.9,6.9-24.7c-4.9,14.2-9.5,38-24.9,35.5c7.8-13.3,18.2-38.2,14.3-42.3c-1.6,12.4-10.5,32-14.6,33.4
						C46,135,58,109.7,55.8,104.9c-2.9,9.6-6.3,18.6-17.1,16.5c5.8-6.2,9-14.8,10.3-24.9c0,0.2-6.9,15.3-7.7,12
						c2.7-4.5,6-9.2,5.7-12.3c-1.9,2.8-4.2,5-8.3,4.1c2.9-4.5,4.6-9.7,4.9-15c-1,1.6-2.1,5.8-3.3,4c0.4-0.1,2.5-3.7,1.8-6.2
						c-0.8,1.6-7.9,2-7.6,0.7c19.4-9.9,7.4-27.1,21.6-27.2C65,56.8,65,65.7,61,69.1c5,5.2,2.9,9,1.3,12.2c4,0.6,6.4,1.6,6,7
						c1.8,0.3,5.8-2.1,9,4.4c2.8-0.5,6.4-0.8,9.5,2c0.2-2.6,1.8-4.8,4.2-5.8c-0.1,0.2-3.2-0.2-2.7-0.8c1.5-0.2,2.9-1.2,3.6-2.6
						c-2.6-1.6-8.1-1.3-8.7,0.6c-0.6-4.2,4.9-0.7,10.2-6.1c-1.2-1-4.5-1.1-4.7-0.8c0.4-2.8,5.7-1.3,8.9-1.7
						c-0.5-1.4-1.9-2.2-4.8-2.4c1.6-3.9,6.8,0.7,8-3.5c-2.7-1.4-10,1.4-9.7-1.6c-0.7-2.1,8.4,0.2,10.9-1.7c-5-0.6-9.7-0.6-13,0.7
						c-4.7,1.9-11.6,1-8.6-4.8c1.3,8.3,12.6,1.4,19,1.8c-3.9-1.7-8.4-1.4-12,0.8c-2.8-7.8,3.6-7.8,7.4-10c0.8-4,9.8-0.8,14.7-1.2
						c2,0.2,4.7,1.3,4.9-1c1.2,3.1-0.2,4.4-2.7,4.8c-0.1,0.7,1,5.2,5.4,3.4c-0.8,1.3-0.2,3.6-3.5,3.1c1.3,2.9,3,4.8,5.9,3.4
						c-0.8,2.3-1.1,5.2-5.7,3.5c-0.1,3.4,1.7,5.2,4.5,6.1c-1.5,2.6-3.3,2.3-5.3,1.2c-0.3,1.7-1.4,4.7,2.1,4.5
						c-1.3,0.4-2.2,2-4.5-0.1c0.6,4.4,6,4.1,6.8,9.2c3.1-2.2,5.8-1.2,8.1,1.5c3.1,1.8,3.7-0.1,4.5-1.8c0.1-6.1,3.2-5.1,5.9-5.3
						c1-4.5,2.2-8.4,4.4-9.3c0.3-0.9,0.1-1.9-0.5-2.7c-3-1.7-1.5-7.4,1.8-7.9c-4.1-9.1,4.3-12.5,9.7-10.1
						c8.4,3.8,1.1,13.4,13.9,24.4c-2.6,1.3-5,0.7-7.1-0.9c0.8,3.6,2.9,5.7,4.4,8.4c-2,0.5-2.8-4.4-4.5-4.8c2,6,2.1,8.2,9.1,17.4
						c-4.9,0.7-7.4-3.2-10.4-6.2c0.7,4.6,6.3,14.8,9.3,18.5c-1.2,3.2-6-8.8-9-13.3c0.7,8.7,4.9,15,7.8,22.1
						c-7.9,2.1-9.8-8.5-14.2-13.7c3.6,9.6,6,22.7,11.1,27.5c-4.7-0.1-8.7-18.7-13.1-28.1c2.1,8,0.1,21.9,12.4,38.3
						c-17.1,4.6-17.4-21.6-22.9-37.9c-0.2,0.2,5.4,32.6,6.9,31.6c-1,7.7-8.4-29.8-8.4-29.8c-0.7,9.8-0.7,17.9,1.8,25.1
						c-12-1.5-9.1-12.8-12.4-20.8c1.3,7.2,0,15.8,4,21c-4.7-1.3-4.3-16.1-6.4-24.1c-3.1,4.9-0.8,10.2,0.3,15.4
						c-7.2-2-6.9-12-10.1-18.4c-3.9,20,10.9,21,9.3,30.6c-1.3-1.7-3.1-3-5.1-3.8c1.1,9.2-2,9.5-4.7,11c5.6-8.1-2.5-12.7-5.5-18.7
						C108.9,134,107.2,142.3,112.7,142.1z"/>
					<g id="g4297">
						<path id="path4293" class="st3" d="M94.2,58.2c-3.5,1.4-8.6,1.5-6.4,7.8c3.7-2.5,8.5-2.5,12.2-0.1c1.5-0.2,2.9,0.7,3.3,2.2
							c-2.3,2.7-11.9,0.3-11.4,2.1c-0.9,2.4,6.3-0.1,9.8,1.2c3.1-0.8,3.3-3.7,2.1-5.1C101.4,63.6,95.9,62.6,94.2,58.2z"/>
						<path id="path4295" class="st4" d="M97.3,59.7c3.9-1,6,1.6,10.1,2c-1.6,0.4-3.6-0.2-5.1-0.5c-0.1,1.2-2.7,1.6-2.2-0.5
							C100,59.6,98.3,60,97.3,59.7z"/>
					</g>
				</g>
				<g id="g4267">
					<g id="g4214">
						<path id="path2186" class="st2" d="M132.9,163.9c1,0.3,1.3,1,2.2,1.2c2.8-6.6,5.3-13.2,9.6-19.1c0.6-0.7,1.5-1.2,2.4-1.2
							c1.9,0.5,6.1-3.4,5.9-5.2c1.6-1.2,3-2.7,4.1-4.4c0-0.5-0.4-0.3-0.7-0.6c1.6-1.1,3-2.6,4.1-4.2c0.2-0.4-0.5,0-0.6-0.5
							c0.6-1,2.1-1.7,4.5-4.3c0.1-0.3-0.1-0.4-0.2-0.6c2.8-3.1,5.6-5.9,8.4-8.8c-1.6-4.4-4.2-7.7-9.2-9.2c-2.2,3.6-4.1,7.4-6.6,10.8
							l-0.1-0.6c-1.1,2.3-2.6,3.8-3.4,6.7l-0.2-0.4c-1.5,1.7-2.6,3.6-3.4,5.7l-0.1-1c-1.2,2.3-3,4.1-3.6,7.1
							c-1.1-0.3-3.6,3.4-3.1,4.8c0.6,2.5-0.9,5.4-1.8,7.2C137.3,152,135.2,158.1,132.9,163.9z"/>
						<path id="path3168" class="st5" d="M160.8,123.6c0.6,0.8,1.7,1,2.7,1.2c2.6-3,5.2-6,8.1-9c0.1-0.4-0.1-0.8-0.4-1
							c-2.7,2.4-5.4,5.2-8.1,7.9c2.4-2.9,4.9-5.7,7.7-8.7c0.1-0.5-0.2-0.8-0.4-1.1c-2.5,2.7-5.4,5.9-7.7,8.4
							C162.3,122.2,161.6,123,160.8,123.6z"/>
						<path id="path3170" class="st5" d="M162.9,120.8c2.3-2.3,4.7-6.2,7.2-8.4c0-0.4-0.4-0.8-0.8-0.9c-1.7,1.9-3.6,4.4-5.4,6.2
							C163.7,118.6,163.2,119.8,162.9,120.8z"/>
						<path id="path3172" class="st5" d="M163.2,116.7c1.6-2.1,3.1-4.2,5-6.3c0.4,0.1,0.7,0.2,0.6,0.7c-1.4,2.1-3,4.1-4.7,6.1
							C164.1,116.5,163.8,116.4,163.2,116.7z"/>
						<path id="path3174" class="st5" d="M158.1,121.1c-0.6-0.7-0.3-1.8-1-2.5c-0.1-0.3-0.3-0.6,0.3-1.2c2.2-2.9,4.2-6.2,6.3-9.4
							c0.9-0.4,1,0.1,1,0.5l-5.9,9.3c2.1-2.6,4.4-5.7,6.6-9c0.5,0,1,0,0.9,0.6c-1.6,2.2-3.3,4.6-5.1,7.4l5.6-7.1
							c0.4-0.1,0.7,0,0.8,0.5l-4.8,6.6C161.2,118.1,159.2,117.9,158.1,121.1z"/>
						<path id="path3176" class="st5" d="M134.9,164.5l-1.6-0.9c2.3-6.3,5.4-12.3,9-17.9c1-1.5,1.5-3.3,1.4-5.1
							c-0.9-2.3,1.1-5,2.3-5.4c1.5,2.3-0.4,4.8-0.9,6.1c1.3-1.3,2.4-2.8,2-5.1c-1.3-2.8,1.4-4.8,2.4-7.1c1.4,2.6,0.1,5.2-1.1,7.8
							c1.3-1.8,2.8-3.2,2.1-6.3c-1-2.8,1.4-4.6,2.6-6.6c2.5,3.9-1.9,7.7-1.6,8.4c1-1.8,3.5-3.8,2.6-6.5c-1.1-3.5,1.4-5.1,2.4-7.4
							c1.4,2.8,0.5,5.5-1.1,8.2c1.5-1.2,2.5-3,2.8-4.9c1.2-3.8,3.5-3.9,5-4.7c-0.1,1-0.6,5.1-3.6,6.4c-1.3,0.9-2.3,2-3.1,3.3
							c1.4-0.4,2.4-3.9,6.5-1.7c-1.2,1.7-2.1,3.6-5.4,3.5c-2.3-0.1-3.4,2-4.6,3.7c1.4-0.6,2.1-4.2,6.1-2.4c-0.1,0.9-1.7,4.3-5.2,4.1
							c-1.9,0.3-3.5,1.5-4.3,3.2c0.8-0.3,2.4-3.8,6.3-1.9c-1.6,1.1-1.1,3.6-5,3.4c-3-0.3-3.9,2.3-5.2,3.7c1.5-0.5,2.2-3.8,6.6-3
							c-0.8,1.7-1.6,4.1-5.5,4.2c-1.3,0.1-2.3,1.2-3.3,2.5C139.9,152.2,137.5,158.4,134.9,164.5z"/>
					</g>
					<path id="path4254" class="st2" d="M118.2,136.7c-0.5,2.1-0.6,4.2-0.1,6.3c5.8,4,11.3,10,16.8,15.5c1.7-4,3.8-7.8,6.3-11.4
						c0.6-0.9,1.2-1.4,1.4-1.4c-0.5-0.6-1.3-0.8-2-0.7c-2.1-0.5-5.4,0.2-5.7,3.6c0,1.7-0.8,1.9-1.8,1.6c-4.6-4.2-8-7.9-12-11.9
						C120.1,138.1,119,137.6,118.2,136.7z M142.5,151c2.5-2.2,5.9,3.5,1.9,4.6c2.4,1.5-0.5,6.4-1.9,5.4c0.4,5.7-5.4,4.1-6.1,1.1
						c1.6-0.4,3.5-1.6,3.1-3.1l2.1,1.3l-2-1.5c1.5-0.6,2.3-2.2,1.8-3.8l2.1,0.5l-2.1-0.4C143.2,154.2,143.1,152.2,142.5,151z
						 M136.3,162c-0.8-1.1-1.1-2.4-0.8-3.8c1.5-0.4,3-0.1,4.2,0.8C139.5,160.7,138.3,161.6,136.3,162z M139.7,158.8
						c-0.7-1-2.1-1.7-1.8-3.1c1-0.7,2.4-0.5,3.7-0.5C141.9,156.7,141.2,158.2,139.7,158.8L139.7,158.8z M141.6,155.1
						c-0.7-0.6-1.5-1.1-2.4-1.5c0.4-2.2,2-2.3,3.3-2.7C143.2,152.8,143,154.2,141.6,155.1L141.6,155.1z"/>
					<path id="path4265" class="st6" d="M140.8,144.8c-0.8,0.9,0,1.7,0.5,2.1"/>
				</g>
				<g id="g4278">
					<g id="g4149">
						<g id="g4134">
							
								<rect id="rect4132" x="64.4" y="131.9" transform="matrix(0.9226 -0.3857 0.3857 0.9226 -54.4659 37.5994)" class="st7" width="4.2" height="45.3"/>
							<path id="rect4129" class="st8" d="M26.1,128.1c7.4-5,16.8-7.4,27.4-11.6l9.8,23.5l-6.8-2.9l-5.6-13.6
								c-1.8,0.5-3.4,1.4-4.9,2.4c-3.2,1.5-6.1,9.9-4.2,13.8c1.7,6.3,4.5,13.8,3.8,17.5c-1.2,2.3-2.7,4.4-4.5,6.3
								C36.2,156.9,28.3,136.7,26.1,128.1z"/>
						</g>
					</g>
					<path id="path4242" class="st2" d="M88.8,134.4c-1.8,0.3-3.5,1-5,2.1c-3.4,4.2-7.1,8.1-11,11.8c-1.2,1.4-2.2,0.6-2.4,0
						c-0.2-2.3,0.2-4.9-2.4-4.8l-3.6-0.1l5.8,14.2c5.5-6.6,12-11.7,18.3-17C88.8,138.3,89.4,135.9,88.8,134.4z M61.5,148.4
						c-3.1,1.4-2.2,4.4-0.9,5.2c-1.2,2.7-0.1,5.4,2.8,5.4c-1.1,3.3,3.1,4.6,3.8,4c0.7-0.5,0.9-1.5,0.5-2.3c-0.8-0.6-1.1-1.6-0.9-2.6
						c-1.5-0.9-2.4,0.1-3.3,0.8c0.8-0.7,2.1-0.9,1.5-2.6c-0.7-0.5-0.9-1.5-0.5-2.3c-0.5-0.8-2.3-0.5-3.5-0.4
						c1.3-0.1,2.6,0.2,3.2-0.8c-1-1.4-0.4-2.2,0.1-3.2C63.9,148.4,62.9,148.1,61.5,148.4L61.5,148.4z M64.4,149.8
						c0.8,0.3,1.7-0.3,2.2,1.5c-0.4,1-1.4,1.6-2.4,1.5C63.2,151.6,63.7,150.7,64.4,149.8L64.4,149.8z M64.5,153.9
						c-0.4,0.8-0.1,1.8,0.6,2.4c1.5,0.1,2.7,0,2.7-2.2C66.8,153.7,65.6,153.6,64.5,153.9L64.5,153.9z M66.7,158c1,0.3,2.2,0,2.8-0.8
						c0.5,1.6-0.3,2.8-1.8,3.4C66.7,160.1,66.8,159,66.7,158z"/>
				</g>
			</g>
			<g id="g4354">
				<path id="path4337" class="st6" d="M95.2,54.8l14.6-0.2"/>
				<path id="rect4349" class="st9" d="M101.6,40.6v1.5h-1.5V44h1.5v1.4h1.9V44h1.2v-1.9h-1.2v-1.5H101.6z"/>
				<path id="path4345" class="st10" d="M104.4,46.6c-0.1,1-1,1.8-2,1.7c-0.9-0.1-1.7-0.8-1.7-1.7l0,0c0.1-1,1-1.8,2-1.7
					C103.6,44.9,104.3,45.7,104.4,46.6z"/>
				<rect id="rect4347" x="101.3" y="46.4" class="st9" width="2.5" height="4.6"/>
				<path id="path4343" class="st10" d="M93.8,51.4c-1.2-7.6,5.6-4.8,8.6-4.1c3.4-0.7,10.8-3,8.8,4.4l-0.6-0.1c2-7.1-5-4.4-8.2-3.9
					c-3.4-0.7-9.1-3.5-8.1,3.8L93.8,51.4z"/>
				<path id="path4335" class="st4" d="M109.4,55.6h-14c0-2.1-2.5-3.3-2.6-5c1.3,1.4,4-0.4,4.3,1.9c-0.6-0.2-1.3,0-1.4,0.6
					c0.1,0.3,0.1,0.9,1,0.9c1.5,0,1.2-1.2,1.5-1.8c0.3,0.7,0.3,1.5,1.2,1.7c0.9-0.1,1.5-0.4,1.5-1.3c-0.2-0.8-0.9-0.6-1.5-0.2
					c-0.1-2.5,3.1-1.4,3.3-3c0.3,1.5,2.9,0.8,2.7,2.9c-0.5-0.3-1.5-0.4-1.5,0.4s0,1.3,1.1,1.3s1.2-1,1.5-1.4
					c0.4,0.7-0.1,1.6,1.2,1.6c0.8,0,1.5-0.3,1.5-1.3c-0.9-0.9-1.1-0.4-1.6-0.3c0.4-2.4,3,0,4.7-1.4
					C111.6,53.1,109.9,53.6,109.4,55.6z M102.7,52.6c0,0.5-0.2,1-0.4,1s-0.4-0.4-0.4-1s0.2-1,0.4-1S102.7,52,102.7,52.6z"/>
			</g>
		</g>
	</g>
	<g>
		<defs>
			<rect id="SVGID_00000140007191722165267370000017065971916534157444_" width="195.6" height="280.6"/>
		</defs>
		<clipPath id="SVGID_00000041267035387300323210000013637507141668514469_">
			<use xlink:href="#SVGID_00000140007191722165267370000017065971916534157444_"  style="overflow:visible;"/>
		</clipPath>
		<path style="clip-path:url(#SVGID_00000041267035387300323210000013637507141668514469_);fill:#010101;" d="M44.9,0h-29H0v16
			c0,7,0,14,0,21c10.2,12.4,28.6,14.2,41,4S55.1,12.4,44.9,0z"/>
	</g>
	<g>
		<defs>
			<rect id="SVGID_00000151507580922593385450000005118957310525332100_" width="195.6" height="280.6"/>
		</defs>
		<clipPath id="SVGID_00000027586241100229486900000013009301637627092656_">
			<use xlink:href="#SVGID_00000151507580922593385450000005118957310525332100_"  style="overflow:visible;"/>
		</clipPath>
	</g>
</g>
<g class="st12">
	<path class="st13" d="M76.8,245.7c0,5-0.1,8.6-0.4,10.7c-0.2,2.1-1,4-2.2,5.7c-1.2,1.7-2.9,3.1-5.1,4c-2.1,0.9-4.6,1.4-7.4,1.4
		c-2.7,0-5.1-0.4-7.2-1.3c-2.1-0.9-3.9-2.2-5.2-3.9c-1.3-1.8-2.1-3.7-2.3-5.7c-0.2-2.1-0.4-5.7-0.4-10.8v-8.6c0-5,0.1-8.6,0.4-10.7
		c0.2-2.1,1-4,2.2-5.7c1.2-1.7,2.9-3.1,5.1-4c2.1-0.9,4.6-1.4,7.4-1.4c2.7,0,5.1,0.4,7.2,1.3c2.1,0.9,3.9,2.2,5.2,3.9
		c1.3,1.8,2.1,3.7,2.3,5.7c0.2,2.1,0.4,5.7,0.4,10.8V245.7z M63.8,229.2c0-2.3-0.1-3.8-0.4-4.5c-0.3-0.7-0.8-1-1.6-1
		c-0.7,0-1.2,0.3-1.6,0.8s-0.5,2.1-0.5,4.7v23.4c0,2.9,0.1,4.7,0.4,5.4c0.2,0.7,0.8,1,1.7,1c0.9,0,1.5-0.4,1.7-1.2
		c0.2-0.8,0.4-2.7,0.4-5.6V229.2z"/>
	<path class="st13" d="M93.8,225.3l-0.5,5.4c1.8-3.9,4.5-5.9,7.9-6.1v14.5c-2.3,0-4,0.3-5,0.9c-1.1,0.6-1.7,1.5-2,2.6
		c-0.2,1.1-0.4,3.7-0.4,7.6v16.2H81.3v-41.1H93.8z"/>
	<path class="st13" d="M116.9,216.3v50.2H104v-50.2H116.9z"/>
	<path class="st13" d="M132.6,241.3h-11.7v-2.8c0-3.2,0.4-5.6,1.1-7.4c0.7-1.7,2.2-3.2,4.4-4.6c2.2-1.3,5.1-2,8.6-2
		c4.2,0,7.4,0.7,9.6,2.2c2.1,1.5,3.4,3.3,3.9,5.5s0.7,6.7,0.7,13.5v20.6h-12.2v-3.7c-0.8,1.5-1.8,2.6-3,3.3s-2.6,1.1-4.3,1.1
		c-2.2,0-4.2-0.6-6-1.8c-1.8-1.2-2.7-3.9-2.7-8.1v-3.4c0-3.1,0.5-5.2,1.5-6.3s3.4-2.4,7.2-3.9c4.1-1.6,6.3-2.7,6.6-3.3
		s0.4-1.7,0.4-3.4c0-2.1-0.2-3.5-0.5-4.2c-0.3-0.7-0.9-1-1.6-1c-0.8,0-1.4,0.3-1.6,0.8c-0.2,0.5-0.3,2-0.3,4.3V241.3z M136.6,246.9
		c-2,1.5-3.2,2.7-3.5,3.7c-0.3,1-0.5,2.4-0.5,4.3c0,2.1,0.1,3.5,0.4,4.1c0.3,0.6,0.8,0.9,1.7,0.9c0.8,0,1.3-0.2,1.5-0.7
		s0.4-1.8,0.4-3.8V246.9z"/>
</g>
<g class="st12">
	<path class="st8" d="M24.8,29.1v2.7h-8.7l0-2.3c2.6-4.2,4.1-6.8,4.6-7.8s0.7-1.8,0.7-2.3c0-0.4-0.1-0.8-0.2-1
		c-0.1-0.2-0.4-0.3-0.7-0.3c-0.3,0-0.5,0.1-0.7,0.4c-0.1,0.2-0.2,0.7-0.2,1.4v1.5h-3.5v-0.6c0-0.9,0-1.6,0.1-2.1s0.3-1,0.7-1.5
		s0.8-0.9,1.4-1.1s1.3-0.4,2.1-0.4c1.6,0,2.8,0.4,3.6,1.2s1.2,1.8,1.2,3c0,0.9-0.2,1.9-0.7,2.9s-1.8,3.2-4,6.4H24.8z"/>
	<path class="st8" d="M33.7,22.8c0.6,0.2,1,0.5,1.3,1c0.3,0.5,0.4,1.5,0.4,3.2c0,1.3-0.1,2.2-0.4,2.9s-0.8,1.2-1.5,1.6
		s-1.6,0.5-2.7,0.5c-1.2,0-2.2-0.2-2.9-0.6s-1.2-0.9-1.4-1.5s-0.3-1.7-0.3-3.2v-1.2h3.9V28c0,0.7,0,1.1,0.1,1.3s0.3,0.3,0.5,0.3
		c0.3,0,0.5-0.1,0.6-0.4s0.1-0.8,0.1-1.8v-1.1c0-0.6-0.1-1-0.2-1.3s-0.3-0.5-0.6-0.6s-0.8-0.1-1.6-0.2V22c0.9,0,1.5,0,1.7-0.1
		s0.4-0.2,0.5-0.5s0.1-0.6,0.1-1.1v-0.9c0-0.6-0.1-0.9-0.2-1.1s-0.3-0.3-0.5-0.3c-0.3,0-0.5,0.1-0.6,0.3s-0.2,0.6-0.2,1.2v1.3h-3.9
		v-1.3c0-1.5,0.3-2.5,1-3.1s1.8-0.8,3.3-0.8c1.9,0,3.2,0.4,3.8,1.1s1,1.8,1,3.1c0,0.9-0.1,1.5-0.4,1.9S34.3,22.5,33.7,22.8z"/>
</g>
</svg>
