<?xml version="1.0" encoding="utf-8"?>
<!-- Generator: Adobe Illustrator 26.0.3, SVG Export Plug-In . SVG Version: 6.00 Build 0)  -->
<svg version="1.1" id="Слой_1" xmlns="http://www.w3.org/2000/svg" xmlns:xlink="http://www.w3.org/1999/xlink" x="0px" y="0px"
	 viewBox="0 0 195.6 280.6" style="enable-background:new 0 0 195.6 280.6;" xml:space="preserve">
<style type="text/css">
	.st0{clip-path:url(#SVGID_00000170272304789891307280000007694327003103992511_);fill:#E94539;}
	.st1{clip-path:url(#SVGID_00000170272304789891307280000007694327003103992511_);fill:#2E74B3;stroke:#FFFFFF;}
	.st2{clip-path:url(#SVGID_00000170272304789891307280000007694327003103992511_);fill:#FFFFFF;stroke:#424242;}
	.st3{clip-path:url(#SVGID_00000170272304789891307280000007694327003103992511_);fill:#D49E63;stroke:#41382D;}
	.st4{clip-path:url(#SVGID_00000170272304789891307280000007694327003103992511_);fill:#FFFFFF;fill-opacity:0;stroke:#41382D;}
	
		.st5{clip-path:url(#SVGID_00000170272304789891307280000007694327003103992511_);fill:#F7E926;stroke:#41382D;stroke-width:1.05;stroke-opacity:0;}
	.st6{clip-path:url(#SVGID_00000170272304789891307280000007694327003103992511_);fill:#FFFFFF;stroke:#424242;stroke-width:0.99;}
	
		.st7{clip-path:url(#SVGID_00000170272304789891307280000007694327003103992511_);fill:#FFFFFF;fill-opacity:0;stroke:#41382D;stroke-width:0.6;}
	.st8{clip-path:url(#SVGID_00000170272304789891307280000007694327003103992511_);fill:#FFFFFF;stroke:#FFFFFF;}
	.st9{clip-path:url(#SVGID_00000170272304789891307280000007694327003103992511_);fill:#FFFFFF;stroke:#FFFFFF;stroke-width:0.98;}
	.st10{clip-path:url(#SVGID_00000170272304789891307280000007694327003103992511_);fill:none;stroke:#FFFFFF;stroke-width:1.35;}
	.st11{clip-path:url(#SVGID_00000170272304789891307280000007694327003103992511_);fill:none;stroke:#424242;stroke-width:0.5;}
	
		.st12{clip-path:url(#SVGID_00000170272304789891307280000007694327003103992511_);fill-rule:evenodd;clip-rule:evenodd;fill:#D7373D;}
	
		.st13{clip-path:url(#SVGID_00000170272304789891307280000007694327003103992511_);fill-rule:evenodd;clip-rule:evenodd;fill:#FBEA26;}
	
		.st14{clip-path:url(#SVGID_00000170272304789891307280000007694327003103992511_);fill-rule:evenodd;clip-rule:evenodd;fill:#E94539;}
	
		.st15{clip-path:url(#SVGID_00000170272304789891307280000007694327003103992511_);fill-rule:evenodd;clip-rule:evenodd;fill:#FFFFFF;}
	
		.st16{clip-path:url(#SVGID_00000170272304789891307280000007694327003103992511_);fill-rule:evenodd;clip-rule:evenodd;fill:url(#path104_00000151526655023620331630000000326796251688800689_);}
	
		.st17{clip-path:url(#SVGID_00000170272304789891307280000007694327003103992511_);fill-rule:evenodd;clip-rule:evenodd;fill:#222222;}
	
		.st18{clip-path:url(#SVGID_00000170272304789891307280000007694327003103992511_);fill-rule:evenodd;clip-rule:evenodd;fill:#FFFEFE;}
	
		.st19{clip-path:url(#SVGID_00000170272304789891307280000007694327003103992511_);fill-rule:evenodd;clip-rule:evenodd;fill:#367DB4;}
	.st20{clip-path:url(#SVGID_00000170272304789891307280000007694327003103992511_);fill:#FFFFFF;}
	.st21{clip-path:url(#SVGID_00000170272304789891307280000007694327003103992511_);enable-background:new    ;}
	.st22{fill:#E94539;}
	.st23{font-family:'Impact';}
	.st24{font-size:24.77px;}
	.st25{font-size:20px;}
</style>
<g>
	<defs>
		<rect id="SVGID_1_" x="0" y="0" width="195.6" height="280.6"/>
	</defs>
	<clipPath id="SVGID_00000054260839188176427680000004936443589223099833_">
		<use xlink:href="#SVGID_1_"  style="overflow:visible;"/>
	</clipPath>
	
		<rect x="-5.3" y="-8.4" style="clip-path:url(#SVGID_00000054260839188176427680000004936443589223099833_);fill:#E94539;" width="214" height="297.9"/>
	
		<path id="path5145" style="clip-path:url(#SVGID_00000054260839188176427680000004936443589223099833_);fill:#2E74B3;stroke:#FFFFFF;" d="
		M41.2,14.8v31.6c3.2,6.3,6.3,9.5,6.3,19s-3.2,12.6-6.3,19c0,9.5,0,19,10,28.7c12.1,15.6,38.7,9.2,45.4,25.1
		c9.8-15.8,33.2-9.5,45.8-25.3c9.5-9.5,9.5-19,9.5-28.5c-3.2-6.3-6.3-9.5-6.3-19s3.2-12.7,6.3-19V14.8c-17.4-7.4-38-9.5-55.4-9.5
		C76.6,5.4,58.3,7.2,41.2,14.8z"/>
	
		<path id="path5113" style="clip-path:url(#SVGID_00000054260839188176427680000004936443589223099833_);fill:#FFFFFF;stroke:#424242;" d="
		M96.6,92.1l-0.1,11h3.8V91.9C99,91.8,97.7,90.9,96.6,92.1L96.6,92.1z"/>
	
		<path id="path5097" style="clip-path:url(#SVGID_00000054260839188176427680000004936443589223099833_);fill:#FFFFFF;stroke:#424242;" d="
		M85.3,111.5v7.7h3.5l-0.2-7.7C87.5,111.3,86.4,111.3,85.3,111.5L85.3,111.5z"/>
	
		<path id="path5105" style="clip-path:url(#SVGID_00000054260839188176427680000004936443589223099833_);fill:#FFFFFF;stroke:#424242;" d="
		M111.4,107.1V119l-4.1,3.5v-13.3c1-0.2,4.3,2.5,4.1-1.9L111.4,107.1z"/>
	
		<path id="path5109" style="clip-path:url(#SVGID_00000054260839188176427680000004936443589223099833_);fill:#FFFFFF;stroke:#424242;" d="
		M107.4,92.4l-0.1,5.3l4.1,0.1l0.1-5.8v-1.3c-0.2-1.3-0.9-2.5-1.9-3.4c-1.1,0.8-1.8,2-2.2,3.3L107.4,92.4z"/>
	
		<path id="path2987" style="clip-path:url(#SVGID_00000054260839188176427680000004936443589223099833_);fill:#D49E63;stroke:#41382D;" d="
		M59.9,85l13.9-0.2c0.9,0.3,2.5-3.9,3.8-3.7c2.3,0.1,4.6-0.2,6.8-0.8l8.8-4c2.8-1,7.2-0.6,10.6-0.8c0.8,0.2,4.3-1.3,8.1-4
		c1-0.2,1.8-0.9,3.1,0c0.5,1.8,1.4,3.5,2.6,5c1.6,1.9,3.6,3.5,5.9,4.6c2.1,0.8,4.2,1.5,6.4,2c1.7,0.3,3.3-0.1,4.7,0.5s4.4,5,5.6,7.6
		c0.1,2.3,0.1,3.5,0,5.5c0.1,2,1,3.8,2.6,5l2.2-3.5c-0.1-1-0.4-1.9-0.9-2.8c-0.4-0.5,0-1.1-0.1-2c0.1-0.9,0-1.8-0.4-2.7l-1.8-3.8
		l-2.5-3.8c-1.5-2.7,1.2-1.6,1.6-0.4c1.3,1.4,2.2,3.1,2.6,4.9c0.1,1.6-0.1,4.2,0.9,5.4s1.9,3.5,3.3,3.6l0.8-5.5
		c0.1-0.4-1.9-1.9-1.9-2.9c0.9-1,1.5-2.2,1.1-2.7c-2.3-3.8-5-7.8-5.9-8.4c-1.5-0.7-3.4-0.5-5.2-0.6c-1.7-0.3-3.2-1.3-4-2.8
		c-0.7-1.1-1.3-2.3-1.8-3.5c-0.7-2.6-0.6-5.1-2.8-7.8l-0.8-0.8c-2.6-2,0.6-0.3,1.6-0.3c2.2,0-3.7-4.8-5.7-4.7
		c-2.9-0.1-5.9,0-8.8,0.3l-7.4,0.6c-3.1,0.4-6.2,0.5-9.3,0.2l-8.3-1.1c-2.3-0.6-4.8-0.9-7.2-0.7c-1.8,0.1-5.7,3.4-5.6,1.6
		c1.2-1.7,2.3-3.3,2.6-5.4c0.3-2.4,0.1-4.7-0.7-7c0.9,0.1,2.2,1,2.2-0.4c-0.1-1.7-1-3.2-2.3-4.1c-2.6-3,3.5,2,5.7,3.3
		c3,3,5.7,5.9,8.6,8.7l2.3,1.7c1.8,0-0.3-3,0.8-2.2c0.9,0.8,1.3,2.1,2.9,2.4c1.3,0.5,2.7,0.6,4.1,0.4c1.5-0.4,3.1-0.7,4-1.9
		c0.6-0.6,1.5-1.9-1-1.1l-1.8,0.2c-1.3,0.1-2.7-0.1-3.9-0.5c-0.6-0.3-1.2-0.7-1.6-1.2c0.4-0.8,1-1.4,1.8-1.8
		c1.8-0.8,1.6-0.2,4.3-0.7c0.2-0.5-2.3-1.7-4.4-1c-1.1,0.4-2.2,1-3.2,1.7c-0.4,0.3-0.9,0.3-1.3,0.2c-1.8-0.3-2.8-1.3-4.1-2.5
		c-1.3-0.8,2.3-0.5,4.5-1.5c0.3-1-0.8-2-1.6-2c-1.6-0.1-3.8,0.1-4.6,0.6c-1,0.7-5-2.7-3.6-2.8l1.4-0.8c2.7-0.1,2.8-1.8-1-2.4
		c-1.2-0.2-2.4,0.9-3.7,1.2c-1.2-0.1-2.3-0.4-3.3-1c-0.8-0.4-1.9-0.9-2.2-1.7c-0.3-0.6-0.4-1.3-0.3-2c0.2-0.8,1.2-1.8,3-2.7
		c1.1-0.6,2.4-0.9,3.7-0.7l7.3,0.6c2.9,0,4.9-1.2,6.9-1.9l4.4-0.4c1.6-0.3,2.9-1.3,3.8-2.6c1.5-1.8,1.7-6.2,0.1-3.8
		c-0.7,0.5-1.9,1.8-2.5,2.3c-1.3,0.9-1.6,0.9-3.2,0.5c-2.5-1.4,4.5-4.3,2.3-4.7c-1.1,0.1-2.1,0.4-3.1,1c-1.6,0.6-2.8,1.8-3.3,3.4
		c0.1,1.2-0.9,2.5-1.8,2.5L92,27.3c-0.9-0.2-0.1-2.7,2.3-4c1-0.4,0.6-1.3-0.7-1.2c-1.1,0.3-2.1,0.9-2.9,1.6l-3,3.7
		c-0.4,0.3-0.8,0.5-1.3,0.5l-3-0.9c-1.5-0.7,0.2-1.5,1.1-2.7c1-1-0.4-1.2-1.6-0.6c-0.9,1-2.1,1.3-3,2.3c-0.8,0.4-0.8,1.5-1.9,2.1
		c-0.8,0.3-1.6,0.9-2.2,1.5c-0.8,0.7-1.4,1.5-1.7,2.4c-0.7,1-1.5-2.5-3.5-2.8c-2.8-0.5-2.6,0.2-2,1l0.8,1c0.6,0.7,1.3,1.7-0.6,2.2
		L67,33.9c-1.6,0.8-1.6,1.8-2.5,2.7c-1,0.8-2.1,1.4-3.3,2l-2.8,1.2c-1.5,0.6-0.2,2.3,1.8,2.4c1.9-0.2,1.9-0.2,0.5,0.3
		c-1.8,0.7,0,1.3,1.1,1.5c0.6,0,1.3-0.2,1.8-0.6c1-0.3,2-0.3,3-0.1c1.3,0.3,3.1,0.3,1.9,1.5l-1.9,2.5c-1.2,1.8-0.9,3.6-1,5.4
		c-0.8,1.8-2.5,2.6-3.4,3.9c-1.4,1.4-2.8,7.8-1.2,11.4c0.4,1.4,2.5,4,1.7,4.3c-1.4,0.4-2.8,1-4,1.7c-0.8,0.6-1.8,1-2.8,1.2
		c-1.1,0.1-2.2,0.3-3.2,0.8c-1.9,0.9-2.2,1.7-2.3,2.5c-0.3,2.6-0.8,5.1-1.6,7.6c-0.6,1-1.2,2-1.9,2.8c-1.1,2.8-0.9,6.5-0.9,8.2
		c0.3,0.6,1.1,0.6,1.8-0.3l2.6-3.4c0.7-0.4,0-2,0.1-2.7c0.4-0.8,0.9-1.4,1.6-2l0.7-4.7c0.2-1.3,0.6-2.6,1.4-3.7
		c1.6-1.1,3.4-1.8,5.3-2.2c7.1-2.3,10.7-0.6,7.8,0.3l-4,1.1c-0.8,0.3-2.2,0.5-3.6,0.8l-2.4,0.3c-2.9,0.6-2.6,2.5-2.9,3.9
		c-0.2,1.4-0.6,2.7-1,4L51,94.8l-1.2,3c-0.5,1.4-0.2,2.6,1.2,2.5c0.8,0,1.6-0.2,2.2-0.6c0.9-0.4,1.7-1.2,2-2.2
		c-0.3-3.6,1.2-1.9,0.9-3.8c0.2-1.8,0.5-4.5,0.7-5.4C56.6,87.1,58.5,85,59.9,85z"/>
	
		<path id="path2995" style="clip-path:url(#SVGID_00000054260839188176427680000004936443589223099833_);fill:#FFFFFF;fill-opacity:0;stroke:#41382D;" d="
		M114.1,70.8c0.4-1,1.9-0.2,2.4,0.2l2.3,2.4c1.5,1.4,3.2,2.6,4.9,3.7c1.7,0.9,3.6,1.7,5.5,2.1c1.5,0.3,3.6,1.1,5.2,0.7
		c1.7,0,3.8,0.2,4.7,1.2"/>
	
		<path id="path5069" style="clip-path:url(#SVGID_00000054260839188176427680000004936443589223099833_);fill:#FFFFFF;stroke:#424242;" d="
		M88.5,103.3l0.1,2.8c6.4-0.2,12.5-0.4,18.9-0.6l0.2-2.6c-3,0-6-0.1-9.2,0S91.8,103.2,88.5,103.3L88.5,103.3z"/>
	
		<path id="path2997" style="clip-path:url(#SVGID_00000054260839188176427680000004936443589223099833_);fill:#FFFFFF;fill-opacity:0;stroke:#41382D;" d="
		M73.9,62.2c-0.7,1.2-0.9,2.6-0.8,4"/>
	
		<path id="path2999" style="clip-path:url(#SVGID_00000054260839188176427680000004936443589223099833_);fill:#FFFFFF;fill-opacity:0;stroke:#41382D;" d="
		M75.6,62.3c-0.4,1-1.3,2.7-1,3.9"/>
	
		<path id="path3001" style="clip-path:url(#SVGID_00000054260839188176427680000004936443589223099833_);fill:#FFFFFF;fill-opacity:0;stroke:#41382D;" d="
		M107.8,70.9c-0.1-0.7,1-1,0.6-2.1"/>
	
		<path id="path3003" style="clip-path:url(#SVGID_00000054260839188176427680000004936443589223099833_);fill:#FFFFFF;fill-opacity:0;stroke:#41382D;" d="
		M109.7,69.9c-0.2-0.7,0.9-1,0.6-1.8"/>
	
		<path id="path3005" style="clip-path:url(#SVGID_00000054260839188176427680000004936443589223099833_);fill:#FFFFFF;fill-opacity:0;stroke:#41382D;" d="
		M111.5,69.3c-0.2-0.7,0.8-1.1,0.6-1.7"/>
	
		<path id="path3007" style="clip-path:url(#SVGID_00000054260839188176427680000004936443589223099833_);fill:#FFFFFF;fill-opacity:0;stroke:#41382D;" d="
		M113.2,69.2c0-0.9,1.3-1,1.1-1.8"/>
	
		<path id="path3009" style="clip-path:url(#SVGID_00000054260839188176427680000004936443589223099833_);fill:#FFFFFF;fill-opacity:0;stroke:#41382D;" d="
		M122.2,76.1c1.6-0.2,4.4,0.1,4.7-0.6"/>
	
		<path id="path3011" style="clip-path:url(#SVGID_00000054260839188176427680000004936443589223099833_);fill:#FFFFFF;fill-opacity:0;stroke:#41382D;" d="
		M124.3,77.3c1.5-0.1,3.1-0.3,4.6-0.7"/>
	
		<path id="path3013" style="clip-path:url(#SVGID_00000054260839188176427680000004936443589223099833_);fill:#FFFFFF;fill-opacity:0;stroke:#41382D;" d="
		M127.2,78.8c1.2-0.8,2.6-1.4,4-1.6"/>
	
		<path id="path3015" style="clip-path:url(#SVGID_00000054260839188176427680000004936443589223099833_);fill:#FFFFFF;fill-opacity:0;stroke:#41382D;" d="
		M130.2,79.7c-0.3-0.5,2.4-0.8,2.5-1.9"/>
	
		<path id="path3019" style="clip-path:url(#SVGID_00000054260839188176427680000004936443589223099833_);fill:#FFFFFF;fill-opacity:0;stroke:#41382D;" d="
		M75.3,39.1c0.3,1.5-0.2,3.1,1.2,4.4c0.7,0.7,1.5,1.3,2.3,1.8"/>
	
		<path id="path3021" style="clip-path:url(#SVGID_00000054260839188176427680000004936443589223099833_);fill:#FFFFFF;fill-opacity:0;stroke:#41382D;" d="
		M74.4,56c1.2-1.2,2.2-2.6,2.9-4.2c0.4-1.5,0.5-3.4-0.3-4.6"/>
	
		<path id="path3023" style="clip-path:url(#SVGID_00000054260839188176427680000004936443589223099833_);fill:#FFFFFF;fill-opacity:0;stroke:#41382D;" d="
		M74.8,55.6c0.6-1.2,1.4-2.3,0.6-4"/>
	
		<path id="path3025" style="clip-path:url(#SVGID_00000054260839188176427680000004936443589223099833_);fill:#FFFFFF;fill-opacity:0;stroke:#41382D;" d="
		M71.3,34.3c0.9,0.9,1.7,1.9,2.3,3.1"/>
	
		<path id="path3027" style="clip-path:url(#SVGID_00000054260839188176427680000004936443589223099833_);fill:#FFFFFF;fill-opacity:0;stroke:#41382D;" d="
		M70.6,35.3c0.8,0.7,1.4,1.5,1.8,2.5"/>
	
		<path id="path3029" style="clip-path:url(#SVGID_00000054260839188176427680000004936443589223099833_);fill:#FFFFFF;fill-opacity:0;stroke:#41382D;" d="
		M69.7,42.6c0-0.8,0.8-1.2,1.1-1.8"/>
	
		<path id="path3031" style="clip-path:url(#SVGID_00000054260839188176427680000004936443589223099833_);fill:#FFFFFF;fill-opacity:0;stroke:#41382D;" d="
		M72.8,42.3c-0.3-0.7,0.2-1.3,0.7-2"/>
	
		<path id="path3033" style="clip-path:url(#SVGID_00000054260839188176427680000004936443589223099833_);fill:#FFFFFF;fill-opacity:0;stroke:#41382D;" d="
		M71.1,42.7c0.1-0.7,0.4-1.4,1-1.9"/>
	
		<path id="path3035" style="clip-path:url(#SVGID_00000054260839188176427680000004936443589223099833_);fill:#FFFFFF;fill-opacity:0;stroke:#41382D;" d="
		M74.3,42c-0.6-0.9,0.2-1.5,0.6-2.1"/>
	
		<path id="path3037" style="clip-path:url(#SVGID_00000054260839188176427680000004936443589223099833_);fill:#FFFFFF;fill-opacity:0;stroke:#41382D;" d="
		M68.2,43.1c0.2-0.9,0.7-1.7,1.5-2.2"/>
	
		<path id="path3039" style="clip-path:url(#SVGID_00000054260839188176427680000004936443589223099833_);fill:#FFFFFF;fill-opacity:0;stroke:#41382D;" d="
		M84.4,78.6c-0.2-1.2,1.8-1.1,1.5-3.4"/>
	
		<path id="path3041" style="clip-path:url(#SVGID_00000054260839188176427680000004936443589223099833_);fill:#FFFFFF;fill-opacity:0;stroke:#41382D;" d="
		M86.6,78.1c-0.1-1.2,1.3-1.4,1.3-3.5"/>
	
		<path id="path3043" style="clip-path:url(#SVGID_00000054260839188176427680000004936443589223099833_);fill:#FFFFFF;fill-opacity:0;stroke:#41382D;" d="
		M88.4,77.3c0.4-1.3,1.5-1.4,1.4-2.9"/>
	
		<path id="path3045" style="clip-path:url(#SVGID_00000054260839188176427680000004936443589223099833_);fill:#FFFFFF;fill-opacity:0;stroke:#41382D;" d="
		M90.9,75.8c0-0.9,0.8-1.5,1-2.5"/>
	
		<path id="path3049" style="clip-path:url(#SVGID_00000054260839188176427680000004936443589223099833_);fill:#FFFFFF;fill-opacity:0;stroke:#41382D;" d="
		M69.2,62c-0.5,1.4-0.5,2.9,0.1,4.2"/>
	
		<path id="path3053" style="clip-path:url(#SVGID_00000054260839188176427680000004936443589223099833_);fill:#FFFFFF;fill-opacity:0;stroke:#41382D;" d="
		M70.3,61.8c0.1,0.9,0.2,1.7,0.4,2.6"/>
	
		<path id="path3055" style="clip-path:url(#SVGID_00000054260839188176427680000004936443589223099833_);fill:#FFFFFF;fill-opacity:0;stroke:#41382D;" d="
		M73.6,57.4c-1,1.2-3.6,2.9-3.3,4.4"/>
	
		<path id="path3051" style="clip-path:url(#SVGID_00000054260839188176427680000004936443589223099833_);fill:#FFFFFF;fill-opacity:0;stroke:#41382D;" d="
		M72.8,58.3c-0.5,1.3-1.3,2.3-1.1,4.2"/>
	
		<path id="path3065" style="clip-path:url(#SVGID_00000054260839188176427680000004936443589223099833_);fill:#FFFFFF;fill-opacity:0;stroke:#41382D;" d="
		M62.7,71.9l4.8,5.4"/>
	
		<path id="path3067" style="clip-path:url(#SVGID_00000054260839188176427680000004936443589223099833_);fill:#FFFFFF;fill-opacity:0;stroke:#41382D;" d="
		M92.6,75.1c-0.3-0.8,1.2-1.2,1.2-2.4"/>
	
		<path id="path3069" style="clip-path:url(#SVGID_00000054260839188176427680000004936443589223099833_);fill:#FFFFFF;fill-opacity:0;stroke:#41382D;" d="
		M94.7,74.6c-0.3-0.8,1-1.3,1-2.3"/>
	
		<path id="path3071" style="clip-path:url(#SVGID_00000054260839188176427680000004936443589223099833_);fill:#FFFFFF;fill-opacity:0;stroke:#41382D;" d="
		M79.9,59c0-1,1.3-1.1,1.5-2.3"/>
	
		<path id="path3073" style="clip-path:url(#SVGID_00000054260839188176427680000004936443589223099833_);fill:#FFFFFF;fill-opacity:0;stroke:#41382D;" d="
		M82,58.7c0-0.8,0.2-1.3,1.3-1.9"/>
	
		<path id="path3075" style="clip-path:url(#SVGID_00000054260839188176427680000004936443589223099833_);fill:#FFFFFF;fill-opacity:0;stroke:#41382D;" d="
		M85.7,58.9c0-0.7,0.4-1.3,1.1-1.4"/>
	
		<path id="path3077" style="clip-path:url(#SVGID_00000054260839188176427680000004936443589223099833_);fill:#FFFFFF;fill-opacity:0;stroke:#41382D;" d="
		M83.7,58.7c0.1-0.7,0.5-1.4,1.1-1.8"/>
	
		<path id="path3079" style="clip-path:url(#SVGID_00000054260839188176427680000004936443589223099833_);fill:#FFFFFF;fill-opacity:0;stroke:#41382D;" d="
		M67.4,78.5c1.9-0.5,1,0,4.5-0.5"/>
	
		<path id="path3081" style="clip-path:url(#SVGID_00000054260839188176427680000004936443589223099833_);fill:#FFFFFF;fill-opacity:0;stroke:#41382D;" d="
		M69.9,75.5c-0.3,0.8-0.4,1.8-0.3,2.6"/>
	
		<path id="path3083" style="clip-path:url(#SVGID_00000054260839188176427680000004936443589223099833_);fill:#FFFFFF;fill-opacity:0;stroke:#41382D;" d="
		M71.3,73.2c-0.3,1.5-0.3,3.1-0.1,4.6"/>
	
		<path id="path3085" style="clip-path:url(#SVGID_00000054260839188176427680000004936443589223099833_);fill:#FFFFFF;fill-opacity:0;stroke:#41382D;" d="
		M76.9,79.5c0.3-0.4,1.3-1.2,1.2-2.2c-1.2-2.8-1-2.7-1.1-3.9"/>
	
		<path id="path3087-1" style="clip-path:url(#SVGID_00000054260839188176427680000004936443589223099833_);fill:#F7E926;stroke:#41382D;stroke-width:1.05;stroke-opacity:0;" d="
		M97.3,34.2l0.2-3.4l3.2,0.2l-0.2,3.4c1.5,0.1-6.4-0.5,3.2,0.2l-0.2,3.4l-3.2-0.2l-0.2,3.4l-3.2-0.2l0.2-3.4l-18.7-1.3
		c-1.8-0.2-1.5-3.3-0.2-3.2"/>
	
		<path id="path5065" style="clip-path:url(#SVGID_00000054260839188176427680000004936443589223099833_);fill:#FFFFFF;stroke:#424242;" d="
		M77.9,108.7L71,112c5.9-0.3,24.2-1.2,30.1-1.1l1.9-2.8C96.6,108.1,84,108,77.9,108.7L77.9,108.7z"/>
	
		<path id="path5067" style="clip-path:url(#SVGID_00000054260839188176427680000004936443589223099833_);fill:#FFFFFF;stroke:#424242;" d="
		M77.8,122.1c5,0,14.9-0.1,24.6-0.1l-5.8-3c-6.6-0.1-12.8,0-18.8,0.1C77.6,120.1,77.7,121.1,77.8,122.1L77.8,122.1z"/>
	
		<path id="path5071" style="clip-path:url(#SVGID_00000054260839188176427680000004936443589223099833_);fill:#FFFFFF;stroke:#424242;" d="
		M100.3,97.5v3c6.2,0.1,12.5,0.2,19,0.6l0.1-2.8C112.4,97.8,106.5,97.6,100.3,97.5L100.3,97.5z"/>
	
		<path id="path5119" style="clip-path:url(#SVGID_00000054260839188176427680000004936443589223099833_);fill:#FFFFFF;stroke:#424242;" d="
		M119.3,96.4v6.4h3.2v-6.3L119.3,96.4z"/>
	
		<path id="path5079" style="clip-path:url(#SVGID_00000054260839188176427680000004936443589223099833_);fill:#FFFFFF;stroke:#424242;" d="
		M100.3,119.2l0.1,2.9l19-0.2v-2.7L100.3,119.2z"/>
	
		<path id="path5143" style="clip-path:url(#SVGID_00000054260839188176427680000004936443589223099833_);fill:#FFFFFF;stroke:#424242;" d="
		M119.4,116.8l0.1,8.3l3.2-0.9v-7.5L119.4,116.8z"/>
	
		<path id="path5123" style="clip-path:url(#SVGID_00000054260839188176427680000004936443589223099833_);fill:#FFFFFF;stroke:#424242;" d="
		M119.3,105.7l0.1,9.4h3.1l0.1-9.4L119.3,105.7z"/>
	
		<path id="path5117" style="clip-path:url(#SVGID_00000054260839188176427680000004936443589223099833_);fill:#FFFFFF;stroke:#424242;" d="
		M111.6,105.6c5.4,0,11.8,0.1,17.5,0.1l0.1,2.6c-5.8-0.2-7.9,0-9.1-0.1l-2.3,2.8c3.1,0,9.5,0,11.3,0.2v2.8c-9.4,0.1-11.8,0-17.5,0
		v2.9c4,0.1,11.8-0.1,17.6,0.3l0.1,2c-0.6,0-0.2,0-1.1,0c-2.3-0.1-3.8,0-4.6,0c-1.8,0-0.9,0.4-1,3l6.1-0.1c1.4-0.1,2.7-0.6,3.9-1.3
		c0.3-4.2-0.2-19.5-0.6-26.6c-0.1-2.3-0.2-3.8-0.2-3.7c-1.4,0.4-2.1,2-2.5,3.4c-6.7-0.4-11.5-0.7-17.5-1v3.4
		c5.8,0.3,11.2,0.6,17.3,1.1V99l-6.4-0.3v2.7l6.4,0.3v1.6c-6.1-0.2-22.2-0.2-23.5-0.1c0,1-6.4,1.8-6.4,2.8L111.6,105.6z"/>
	
		<path id="path5107" style="clip-path:url(#SVGID_00000054260839188176427680000004936443589223099833_);fill:#FFFFFF;stroke:#424242;stroke-width:0.99;" d="
		M107.3,100.6l0.1,10.5l4.1-3.1v-7.3L107.3,100.6z"/>
	
		<path id="path5141" style="clip-path:url(#SVGID_00000054260839188176427680000004936443589223099833_);fill:#FFFFFF;stroke:#424242;" d="
		M96.4,112.9l0.1,14.5l3.8-3v-7.5L96.4,112.9z"/>
	
		<path id="path5077" style="clip-path:url(#SVGID_00000054260839188176427680000004936443589223099833_);fill:#FFFFFF;stroke:#424242;" d="
		M100.2,109.1l0.1,1.9c6.1-0.2,13,0,19.1,0v-2.8c-5.6-0.2-13.7-0.3-19.2-0.1L100.2,109.1z"/>
	
		<path id="path5115" style="clip-path:url(#SVGID_00000054260839188176427680000004936443589223099833_);fill:#FFFFFF;stroke:#424242;" d="
		M96.4,105.9v8h3.8v-8.1C99,105.8,97.7,105.8,96.4,105.9z"/>
	
		<path id="path5081" style="clip-path:url(#SVGID_00000054260839188176427680000004936443589223099833_);fill:#FFFFFF;stroke:#424242;" d="
		M88.8,113.9v3l18.6,0.1v-3.1H88.8z"/>
	
		<path id="path5091" style="clip-path:url(#SVGID_00000054260839188176427680000004936443589223099833_);fill:#FFFFFF;stroke:#424242;" d="
		M73.8,116.9l-0.1,7.8l4,1.4l-0.1-13.2L73.8,116.9z"/>
	
		<path id="path5093" style="clip-path:url(#SVGID_00000054260839188176427680000004936443589223099833_);fill:#FFFFFF;stroke:#424242;" d="
		M73.8,107l0.1,7h3.7l-0.1-12.1C76.1,101.8,75.1,106.8,73.8,107z"/>
	
		<path id="path5089" style="clip-path:url(#SVGID_00000054260839188176427680000004936443589223099833_);fill:#FFFFFF;stroke:#424242;" d="
		M77.5,98.4V97c1.7-0.2,5-0.9,7.7-1v-2.8c-2.5,0.2-5.4,0.8-8,1.2c-0.2-1.3-1-2.5-2.1-3.3c-1.1,1.1-1.6,2.6-1.4,4.1
		c-2.7,0.2-5.4,0.7-8,1.3c-0.2-1.2-0.7-2.3-1.6-3.1c-1,0.8-1.7,2-2,3.2l-0.3,24l4.3,1.8l7.6-0.3v-3l-8.3,0.1v-2
		c6-0.5,13.6-0.4,19.9-0.6v-2.9c-6.6,0.1-13.4,0.1-20,0.6v-1.8c2.8-0.4,5.8-0.7,8.5-0.9V109c-2.8,0.1-5.7,0.4-8.5,0.8V108
		c1.2-0.6,16.6-1.9,23.1-2l-0.2-2.6c-6.5,0.3-16.6,0.6-22.9,1.9v-1.8c2.7-0.6,5.4-1.1,8.2-1.5v-2.7c-2.7,0.4-5.4,0.9-8,1.7v-2
		c2.7-0.7,5.4-1.2,8.1-1.4l0.1,6.6l3.8-0.2L77.5,98.4z"/>
	
		<path id="path5087" style="clip-path:url(#SVGID_00000054260839188176427680000004936443589223099833_);fill:#FFFFFF;stroke:#424242;" d="
		M85.2,98l-0.1-6.3C85,90.3,85.4,89,86.4,88c1.3,0.7,2,2.1,1.9,3.6V98"/>
	
		<path id="path5095" style="clip-path:url(#SVGID_00000054260839188176427680000004936443589223099833_);fill:#FFFFFF;stroke:#424242;" d="
		M85.3,100.9v7.3l3.2-0.1l-0.1-7.8L85.3,100.9z"/>
	
		<path id="path5133" style="clip-path:url(#SVGID_00000054260839188176427680000004936443589223099833_);fill:#FFFFFF;stroke:#424242;" d="
		M87.7,129.3c2.5-0.1,6.5,0,9,0.1l-0.1,1.9l-5.4-0.1L87.7,129.3z"/>
	
		<path id="path5103" style="clip-path:url(#SVGID_00000054260839188176427680000004936443589223099833_);fill:#FFFFFF;stroke:#424242;" d="
		M75.4,125.1c3.3-0.5,6.7-0.8,10-0.8c0,1,5.7,2,5.6,2.6c-1,0-5.8,0-9,0.1c-1,0-1.9-0.1-2.8-0.4C76.7,125.7,73.8,125.2,75.4,125.1
		L75.4,125.1z"/>
	
		<path id="path5083" style="clip-path:url(#SVGID_00000054260839188176427680000004936443589223099833_);fill:#FFFFFF;stroke:#424242;" d="
		M83.8,124.5l0.6,2.3c6.2-0.2,17.1,0.1,23,0.5l-0.1-2.7C89.2,123.6,85.4,124.3,83.8,124.5z"/>
	
		<path id="path5101" style="clip-path:url(#SVGID_00000054260839188176427680000004936443589223099833_);fill:#FFFFFF;stroke:#424242;" d="
		M85.6,122.1l-0.1,6.2l3.7,1.8l-0.2-7.9L85.6,122.1z"/>
	
		<path id="path5111" style="clip-path:url(#SVGID_00000054260839188176427680000004936443589223099833_);fill:#FFFFFF;stroke:#424242;" d="
		M96.6,92.4h3.8v-2.7c0.1-1.7-0.6-3.4-1.9-4.5c-1.3,1.2-2.1,2.9-2,4.7L96.6,92.4z"/>
	
		<path id="path5085" style="clip-path:url(#SVGID_00000054260839188176427680000004936443589223099833_);fill:#FFFFFF;stroke:#424242;" d="
		M88.3,92.6l-0.1,3c6.4-0.5,12.7-0.5,19.1,0v-3C101.1,92.1,94.7,92.1,88.3,92.6L88.3,92.6z"/>
	
		<path id="path5063" style="clip-path:url(#SVGID_00000054260839188176427680000004936443589223099833_);fill:#FFFFFF;stroke:#424242;" d="
		M77.6,98.8l0.1,2.7c6.3-0.7,12.5-1,18.8-1v-2.9c-3.4,0-7.3,0.1-10.3,0.4C83.6,98.2,79.1,98.4,77.6,98.8z"/>
	
		<path id="path5121" style="clip-path:url(#SVGID_00000054260839188176427680000004936443589223099833_);fill:#FFFFFF;stroke:#424242;" d="
		M119.1,93.2l3.5,0.2c0.1-1.8-0.5-3.7-1.7-5.1C119.8,89.6,119.2,91.4,119.1,93.2z"/>
	
		<path id="path5125" style="clip-path:url(#SVGID_00000054260839188176427680000004936443589223099833_);fill:#FFFFFF;stroke:#424242;" d="
		M111.7,122.1v5.2l-4.4,1.9l0.1-7C108.8,122,110.2,122,111.7,122.1L111.7,122.1z"/>
	
		<path id="path5131" style="clip-path:url(#SVGID_00000054260839188176427680000004936443589223099833_);fill:#FFFFFF;stroke:#424242;" d="
		M96.5,126.9v6.8l3.8-0.1V127L96.5,126.9z"/>
	
		<path id="path5129" style="clip-path:url(#SVGID_00000054260839188176427680000004936443589223099833_);fill:#FFFFFF;stroke:#424242;" d="
		M111.8,127.3l7-1.9c-2.5,0.2-4.9-0.3-7-0.3C111.7,125.8,111.7,126.5,111.8,127.3z"/>
	
		<path id="path3068" style="clip-path:url(#SVGID_00000054260839188176427680000004936443589223099833_);fill:#FFFFFF;fill-opacity:0;stroke:#41382D;" d="
		M65.9,38.2c0.6-0.4,1.2-0.6,1.8-0.8c0.7-0.2,1.4-0.6,1.8-0.5s0.9,1.1-0.3,1.6c-0.4,0.2-0.8,0.2-1.4,0C67,38.4,65.7,38.5,65.9,38.2z
		"/>
	
		<path id="path3840-1" style="clip-path:url(#SVGID_00000054260839188176427680000004936443589223099833_);fill:#FFFFFF;fill-opacity:0;stroke:#41382D;" d="
		M67.3,37.7c-0.6,0.1-0.9,0.7,0,0.5S67.9,37.6,67.3,37.7z"/>
	
		<path id="path3860" style="clip-path:url(#SVGID_00000054260839188176427680000004936443589223099833_);fill:#FFFFFF;fill-opacity:0;stroke:#41382D;" d="
		M77.5,76.3c-0.5,0.9-1.1,1.7-1.8,2.3"/>
	
		<path id="path3862" style="clip-path:url(#SVGID_00000054260839188176427680000004936443589223099833_);fill:#FFFFFF;fill-opacity:0;stroke:#41382D;stroke-width:0.6;" d="
		M115.3,71.9c-0.3-1-1.1-1-1.7-1.1"/>
	
		<path id="path3849-4" style="clip-path:url(#SVGID_00000054260839188176427680000004936443589223099833_);fill:#FFFFFF;stroke:#FFFFFF;" d="
		M91.7,119.7h4.2v1.7c-0.9-0.1-3,0-3.9,0L91.7,119.7z"/>
	
		<path id="path3849-0" style="clip-path:url(#SVGID_00000054260839188176427680000004936443589223099833_);fill:#FFFFFF;stroke:#FFFFFF;stroke-width:0.98;" d="
		M95.8,108.9h-3.3l-0.4,1.6c0.8,0,2.8-0.1,3.8-0.1C95.8,109.8,95.8,109.3,95.8,108.9L95.8,108.9z"/>
	
		<path id="path3849-48" style="clip-path:url(#SVGID_00000054260839188176427680000004936443589223099833_);fill:#FFFFFF;stroke:#FFFFFF;" d="
		M118.5,109h3.4l-0.4,1.3c-0.9,0-1.8,0-2.9,0L118.5,109z"/>
	
		<path id="path3849-8" style="clip-path:url(#SVGID_00000054260839188176427680000004936443589223099833_);fill:#FFFFFF;stroke:#FFFFFF;" d="
		M102.3,103.8c1.1-0.3,2.3-0.4,3.5-0.3l-0.8,1.4c-0.9,0-5.7,0.2-6.8,0.3L102.3,103.8z"/>
	
		<path id="path5123-5" style="clip-path:url(#SVGID_00000054260839188176427680000004936443589223099833_);fill:#FFFFFF;stroke:#424242;" d="
		M119.3,105.7l0.1,8.3h3.1v-8.3L119.3,105.7z"/>
	
		<path id="path5143-1" style="clip-path:url(#SVGID_00000054260839188176427680000004936443589223099833_);fill:#FFFFFF;stroke:#424242;" d="
		M119.3,116.9v8.3l3.2-0.9c0-2.5,0.1-5,0-7.4L119.3,116.9z"/>
	
		<path id="path3982" style="clip-path:url(#SVGID_00000054260839188176427680000004936443589223099833_);fill:#FFFFFF;stroke:#FFFFFF;" d="
		M82.5,125.1c0.4-0.1,0.9-0.1,1.3-0.1h1.1v1.3h-1c-0.6,0-1.1-0.1-1.7-0.3L82.5,125.1z"/>
	
		<path id="path3865-7" style="clip-path:url(#SVGID_00000054260839188176427680000004936443589223099833_);fill:none;stroke:#FFFFFF;stroke-width:1.35;" d="
		M114.1,120.2h2.6"/>
	
		<path id="path3903" style="clip-path:url(#SVGID_00000054260839188176427680000004936443589223099833_);fill:none;stroke:#424242;stroke-width:0.5;" d="
		M115.5,119.3h1"/>
	
		<path id="path58" style="clip-path:url(#SVGID_00000054260839188176427680000004936443589223099833_);fill-rule:evenodd;clip-rule:evenodd;fill:#D7373D;" d="
		M143.1,287.9c-0.5-1.8-1.5-3.5-2.8-4.9l5.5-2.6c3,1.1,3.8,2.3,4.3,3.6C147.8,285.6,145.5,286.9,143.1,287.9"/>
	
		<path id="path62" style="clip-path:url(#SVGID_00000054260839188176427680000004936443589223099833_);fill-rule:evenodd;clip-rule:evenodd;fill:#D7373D;" d="
		M150.9,283.4c1-0.5,1.5-1.5,1.4-2.6c-0.4-1.3-1.5-2.5-3.5-3.5l-2.1,2.4C148.4,280.5,149.9,281.8,150.9,283.4"/>
	
		<path id="path64" style="clip-path:url(#SVGID_00000054260839188176427680000004936443589223099833_);fill-rule:evenodd;clip-rule:evenodd;fill:#D7373D;" d="
		M43.5,284c-1-0.5-1.6-1.5-1.5-2.6c0.3-1.3,1.5-2.5,3.5-3.5l2.1,2.3C46,281.1,44.5,282.4,43.5,284"/>
	
		<path id="path74" style="clip-path:url(#SVGID_00000054260839188176427680000004936443589223099833_);fill-rule:evenodd;clip-rule:evenodd;fill:#D7373D;" d="
		M136.4,276.6c2.7-0.9,5.2-2.3,7.5-4c0.2-3-0.6-4.9-3.9-4.5l-6.2,3.1C135.7,272.9,136.7,274.7,136.4,276.6"/>
	
		<path id="path76" style="clip-path:url(#SVGID_00000054260839188176427680000004936443589223099833_);fill-rule:evenodd;clip-rule:evenodd;fill:#D7373D;" d="
		M57.9,277c-2.7-0.9-5.3-2.2-7.6-3.9c-0.3-2.9,0.5-4.9,3.9-4.6l6.2,3.1C58.6,273.3,57.6,275.2,57.9,277"/>
	
		<path id="path78" style="clip-path:url(#SVGID_00000054260839188176427680000004936443589223099833_);fill-rule:evenodd;clip-rule:evenodd;fill:#D7373D;" d="
		M125.5,279.7c3.2-0.4,6.4-1.2,9.5-2.3c1.6-2.2-1.3-4.7-2.6-5.9l-8.7,2.3C125.6,275.2,126.2,277.6,125.5,279.7"/>
	
		<path id="path80" style="clip-path:url(#SVGID_00000054260839188176427680000004936443589223099833_);fill-rule:evenodd;clip-rule:evenodd;fill:#D7373D;" d="
		M68.8,280c-3.3-0.4-6.5-1.2-9.6-2.2c-1.6-2.2,1.2-4.7,2.5-5.9l8.7,2.2C68.8,275.5,68.1,277.9,68.8,280"/>
	
		<path id="path82" style="clip-path:url(#SVGID_00000054260839188176427680000004936443589223099833_);fill-rule:evenodd;clip-rule:evenodd;fill:#D7373D;" d="
		M124.1,279.8c-4.2,1.4-8.6,2.1-13.1,2.2c0.9-1.8,0.8-4-0.3-5.7l11.6-2C124.7,276,124.9,277.8,124.1,279.8"/>
	
		<path id="path84" style="clip-path:url(#SVGID_00000054260839188176427680000004936443589223099833_);fill-rule:evenodd;clip-rule:evenodd;fill:#D7373D;" d="
		M70.3,280.1c4.3,1.3,8.7,2,13.2,2.1c-0.9-1.8-0.8-4,0.2-5.7L72,274.6C69.7,276.3,69.6,278.1,70.3,280.1"/>
	
		<path id="path86" style="clip-path:url(#SVGID_00000054260839188176427680000004936443589223099833_);fill-rule:evenodd;clip-rule:evenodd;fill:#D7373D;" d="
		M109.1,282.4c2.2-2.2,2.3-4.3,0.2-6.3l-11.7,0.6l-0.1,6C101.5,283.1,105.3,282.5,109.1,282.4"/>
	
		<path id="path88" style="clip-path:url(#SVGID_00000054260839188176427680000004936443589223099833_);fill-rule:evenodd;clip-rule:evenodd;fill:#D7373D;" d="
		M85.3,282.5c-2.2-2.1-2.3-4.2-0.3-6.3l11.7,0.5l0.2,6C92.9,283.1,89.1,282.6,85.3,282.5"/>
	
		<path id="path90" style="clip-path:url(#SVGID_00000054260839188176427680000004936443589223099833_);fill-rule:evenodd;clip-rule:evenodd;fill:#FBEA26;" d="
		M151.4,196.4v-11.6c0-1.1-0.1-2.8-0.2-4.2c-2.1-28.4-25.6-51-54.2-51s-52,22.5-54.2,51c0,2.1-0.2,2.8-0.2,4.2v11.6H151.4"/>
	
		<path id="path92" style="clip-path:url(#SVGID_00000054260839188176427680000004936443589223099833_);fill-rule:evenodd;clip-rule:evenodd;fill:#E94539;" d="
		M42.7,262.8h108.7v-47.6c0-0.1,0-18.1,0-18.1H42.7c0,0,0,18.2,0,18.3V262.8"/>
	
		<path id="path94" style="clip-path:url(#SVGID_00000054260839188176427680000004936443589223099833_);fill-rule:evenodd;clip-rule:evenodd;fill:#FFFFFF;" d="
		M40,266.2h114.4l-2.8-2.6H42.9L40,266.2"/>
	
		<linearGradient id="path104_00000073690011925376783730000006385588892451980199_" gradientUnits="userSpaceOnUse" x1="-971.15" y1="494.0211" x2="-971.15" y2="515.5712" gradientTransform="matrix(-1 0 0 -1 -874.04 767.5511)">
		<stop  offset="0" style="stop-color:#E73B33"/>
		<stop  offset="1" style="stop-color:#D7373D;stop-opacity:0"/>
	</linearGradient>
	
		<path id="path104" style="clip-path:url(#SVGID_00000054260839188176427680000004936443589223099833_);fill-rule:evenodd;clip-rule:evenodd;fill:url(#path104_00000073690011925376783730000006385588892451980199_);" d="
		M135,269.3c-24.9,8.9-50.1,8.5-75.7,0.5c0-0.9-0.1-1.8-0.5-2.6h76.6C135,267.8,134.9,268.5,135,269.3"/>
	
		<path id="path108" style="clip-path:url(#SVGID_00000054260839188176427680000004936443589223099833_);fill-rule:evenodd;clip-rule:evenodd;fill:#E94539;" d="
		M53.4,276.4c-1.4-0.7-2.8-1.6-4-2.6l-2.2,3.2c-1.2,2.5,2.8,3.6,4,4.3L53.4,276.4L53.4,276.4z M61.4,284.9c-3.2-0.7-6.3-1.8-9.3-3.2
		l2.2-5c2.8,1.2,5.7,2.3,8.7,3.2L61.4,284.9z M74.8,287.8c-4.3-0.5-8.5-1.4-12.6-2.7l1.5-5.1c3.9,1,7.8,1.8,11.8,2.3L74.8,287.8
		L74.8,287.8z M91.8,289.4c-5.4,0-10.8-0.5-16.1-1.5l0.8-5.7c5.1,0.9,10.2,1.4,15.3,1.6L91.8,289.4z M101.8,289.5
		c-3.1,0.3-6.3,0.3-9.4,0v-5.8c3.1,0.1,6.2,0.1,9.4,0V289.5z M102.6,289.3c5.4-0.1,10.8-0.7,16.1-1.7l-0.8-5.7
		c-5,0.9-10.1,1.5-15.2,1.7V289.3L102.6,289.3z M119.6,287.5c4.3-0.5,8.5-1.5,12.5-2.8l-1.6-5.1c-3.9,1-7.8,1.9-11.7,2.5
		L119.6,287.5z M133,284.4c3.2-0.7,6.3-1.8,9.3-3.3l-2.3-5c-2.8,1.3-5.7,2.4-8.7,3.3L133,284.4z M140.9,275.8c1.4-0.7,2.8-1.6,4-2.6
		l2.2,3.1c1.2,2.5-2.8,3.7-3.9,4.4L140.9,275.8z M41.1,282.7l0.1,2c1.6,1.7,3.5,3.1,5.6,4.1l-0.5-1.7
		C44.3,285.9,42.5,284.5,41.1,282.7L41.1,282.7z M47.5,287.7l0.8,1.9c3,1.3,6.1,2.4,9.2,3.2l-0.1-1
		C54.1,290.6,50.8,289.2,47.5,287.7L47.5,287.7z M58.5,291.9l0.4,1.5c5.4,1.8,10.9,3.3,16.5,4.3l-0.4-1.7
		C69.4,294.9,63.9,293.5,58.5,291.9L58.5,291.9z M76.3,297.8c5.1,0.9,10.3,1.4,15.5,1.4c-0.3-0.5-0.5-1-0.5-1.6
		c-5.2-0.2-10.4-0.7-15.5-1.5L76.3,297.8L76.3,297.8z M101.8,299.3c0.3-0.5,0.4-1.1,0.5-1.7c-3.4,0.2-6.9,0.2-10.3,0
		c0.1,0.6,0.3,1.2,0.7,1.7C95.8,299.5,98.8,299.5,101.8,299.3L101.8,299.3z M118.3,297.5c-5.1,1-10.3,1.5-15.5,1.6
		c0.4-0.5,0.5-1,0.5-1.6c5.2-0.3,10.4-0.8,15.5-1.7L118.3,297.5L118.3,297.5z M136.1,291.4l-0.4,1.5c-5.4,1.9-10.9,3.4-16.4,4.5
		l0.4-1.6C125.2,294.6,130.7,293.1,136.1,291.4L136.1,291.4z M147,287.1l-0.8,1.9c-3,1.4-6,2.5-9.2,3.4l0.1-1
		C140.4,290.1,143.7,288.7,147,287.1z M153.3,282l-0.1,2c-1.5,1.7-3.4,3.1-5.5,4.1l0.5-1.7C150.2,285.3,151.9,283.8,153.3,282
		L153.3,282z M54.7,325.2l6.7,2.2l1.7-5.8l-6.8-2.1L54.7,325.2z M62.4,327.5c2.4,1,4.9,1.6,7.4,1.8l1-5.7l-6.8-1.8L62.4,327.5z
		 M56.5,318.5l14.3,4.1l1.4-5.9l-14.2-3.8L56.5,318.5L56.5,318.5z M66,314.1l6.4,1.7l1.1-5.8l-6.2-1.7L66,314.1z M58.3,311.9l6.9,2
		l1.1-5.8l-6.8-1.8L58.3,311.9z M82.3,304c-5.4-0.5-10.7-1.4-15.9-2.7c0.1-1.6,0.5-3.1,1.2-4.5c5,1.2,10.1,2.1,15.2,2.7L82.3,304
		L82.3,304z M38.5,295.5l2.2,1.8l2.5-3.8c-1.7-1-3.2-2.4-4.2-4.1l-0.5,0.8c-0.1,1.8,0.7,3.5,2.2,4.5
		C40.1,295.1,39.3,295.4,38.5,295.5L38.5,295.5z M41.5,297.9c4.5,2.5,9.2,4.6,14.1,6.2l1.5-4.5c-4.5-1.6-8.8-3.4-13-5.6L41.5,297.9
		L41.5,297.9z M51.9,291.9c4.9,1.7,9.7,3.3,14.6,4.7l-1,4.6c-5.2-1.1-10.2-2.8-15-5C50.5,294.6,51,293.1,51.9,291.9L51.9,291.9z
		 M41.3,286.2c-0.5,0.8-1.2,1.6-2,2.2c0.3,0.5,0.6,0.9,1,1.3c0.6-0.9,0.7-2,1.7-2.6L41.3,286.2z M41,290.5c0.6-1,0.5-2.5,1.8-2.9
		c2.6,1.5,5.4,2.9,8.2,4c-0.7,1.3-1.2,2.6-1.5,4C46.3,294.5,43.4,292.8,41,290.5z M153.1,285.5c0.5,0.8,1.2,1.6,2,2.1
		c-0.3,0.5-0.6,1-1,1.3c-0.6-0.9-0.8-2-1.7-2.6L153.1,285.5z M156.1,294.7l-2.2,1.8l-2.5-3.8c1.7-1,3.1-2.5,4.1-4.2l0.5,0.8
		c0.1,1.8-0.7,3.5-2.2,4.5C154.4,294.4,155.2,294.7,156.1,294.7L156.1,294.7z M153.4,289.8c-0.6-1-0.6-2.5-1.8-2.9
		c-2.6,1.6-5.3,3-8.1,4.1c0.7,1.3,1.2,2.6,1.6,4C148.2,293.9,151.1,292.2,153.4,289.8L153.4,289.8z M153,297.2
		c-4.5,2.6-9.2,4.7-14,6.4l-1.6-4.5c4.5-1.6,8.8-3.5,13-5.7L153,297.2z M142.5,291.3c-4.8,1.8-9.7,3.4-14.5,4.8l1.1,4.6
		c5.2-1.2,10.2-2.9,15-5.2C144,294,143.5,292.5,142.5,291.3L142.5,291.3z M112.3,303.8c5.4-0.5,10.7-1.5,15.9-2.9
		c-0.2-1.6-0.6-3.1-1.2-4.5c-5,1.2-10.1,2.2-15.2,2.9L112.3,303.8z M106.2,310.9c5.3-0.5,10.6-1.4,15.8-2.4l-1.1-5
		c-5,1-10,1.6-15.1,1.9L106.2,310.9z M89.1,311.9l-0.1,6.3l7.8,0.3v-6.3L89.1,311.9L89.1,311.9z M88.8,326l7.9,0.1l0.2,6.6l-8.1-0.1
		L88.8,326L88.8,326z M106,326l-8.4,0.1v6.6l8.7-0.2L106,326z M106,325.1c-5.7,0.3-11.4,0.4-17,0.2v-6.4c2.6,0.1,5.3,0.3,8,0.2
		c2.9,0,5.8-0.3,8.9-0.4L106,325.1L106,325.1z M105.6,311.8l0.1,6.3l-8.1,0.4v-6.3L105.6,311.8z M105.3,311
		c-5.3,0.5-10.6,0.5-15.9,0l0.3-5.6c5.1-0.2,10.2-0.2,15.2,0L105.3,311L105.3,311z M97.7,304.5c4.6,0.2,9.3,0.1,13.8-0.4l-0.4-4.7
		c-4.4,0.3-8.7,0.8-13.4,0.8L97.7,304.5z M97,304.5c-4.6,0.3-9.2,0.2-13.8-0.3l0.4-4.7c4.4,0.2,8.6,0.7,13.3,0.6L97,304.5L97,304.5z
		 M88.5,311c-5.3-0.5-10.6-1.3-15.8-2.3l1.1-5c5,1,10,1.5,15.1,1.7L88.5,311z M44.1,305.8c-2.1-0.7-4.1-1.6-6-2.8
		c-2.3-1.2-4.4-2.8-5.2-4.6l2.6-4c0.5,0.6,1.1,0.9,1.8,0.9c2.7,3,6.1,4,9.2,6L44.1,305.8L44.1,305.8z M43.4,306.7l-2.9,5.3l-5.9-2.9
		l3.3-5.4L43.4,306.7L43.4,306.7z M37.2,303.4l-3.2,5.3c-1.8-1.3-4.4-1.9-4.9-4.4l3.2-4.7C33.7,301.2,35.3,302.5,37.2,303.4
		L37.2,303.4z M37.1,318.1c-2.6-1.1-11.2-4.5-11.8-7.2l3.1-5.5c2.9,3.8,7.9,5.1,11.8,7.6L37.1,318.1L37.1,318.1z M56.6,304.2
		c5,1.8,10.1,3.3,15.4,4.3l1.1-4.9c-4.9-0.9-10.2-2.3-15.1-3.6L56.6,304.2z M150.6,305.2c2.1-0.7,4.1-1.7,6-2.8
		c2.3-1.3,4.4-2.8,5.1-4.7l-2.6-3.9c-0.4,0.6-1.1,0.9-1.8,1c-2.6,3.1-6.1,4.1-9.1,6.2L150.6,305.2z M157.5,302.7l3.2,5.2
		c1.8-1.3,4.4-1.9,4.9-4.4l-3.3-4.6C161,300.4,159.3,301.7,157.5,302.7z M151.3,306.1l2.9,5.3l5.9-2.9l-3.4-5.3L151.3,306.1z
		 M157.8,317.4c2.6-1.2,11.1-4.6,11.8-7.4l-3.2-5.5c-2.9,3.9-7.8,5.2-11.7,7.8L157.8,317.4z M132.6,327c-2.4,1-4.9,1.6-7.4,1.9
		l-1-5.7l6.8-1.9L132.6,327z M140.2,324.7l-6.7,2.3l-1.7-5.7l6.7-2.2L140.2,324.7L140.2,324.7z M138.3,318l-14.3,4.3l-1.4-5.9
		l14.1-3.9L138.3,318z M136.5,311.4l-6.9,2.1l-1.2-5.8l6.7-1.9L136.5,311.4z M128.8,313.7l-6.3,1.8l-1.2-5.7l6.2-1.7L128.8,313.7z
		 M138.1,303.7c-5,1.9-10.1,3.4-15.3,4.5l-1.1-4.9c4.9-0.9,10.1-2.4,15.1-3.8L138.1,303.7L138.1,303.7z M165.4,281.6
		c4.8-3.1,7.1,1.1,10,2.5c2.8-1.5,5.3-3.5,7.3-6c1.1-1.5,0.3-2.4-0.8-1c-2.3,3.8-5.3,5.2-9.4,3.1
		C168.9,277.6,166.7,278.4,165.4,281.6L165.4,281.6z M29,282.5c-4.8-3.1-7.1,1.2-9.9,2.6c-2.8-1.5-5.3-3.5-7.4-5.9
		c-1.1-1.5-0.3-2.4,0.8-1c2.3,3.8,5.3,5.1,9.4,3C25.5,278.5,27.7,279.2,29,282.5"/>
	
		<path id="path130" style="clip-path:url(#SVGID_00000054260839188176427680000004936443589223099833_);fill-rule:evenodd;clip-rule:evenodd;fill:#FFFFFF;" d="
		M42,200.1v-15.4c0-1.4,0.1-2.1,0.2-4.3c2.2-28.8,26-51.5,54.9-51.5s52.7,22.8,54.9,51.5c0.1,1.4,0.1,3.1,0.2,4.3v15
		c0.4,0,0.9,0,1.3-0.1c0.4-0.5,0.9-0.9,1.5-1.2V184c0-1.2-0.1-2.9-0.2-4.4c-2.3-30-27.3-53.7-57.6-53.7s-55.4,23.7-57.7,53.7
		c0,2.3-0.2,2.9-0.2,4.4v15.5c0.3,0.2,0.5,0.5,0.7,0.8C40.6,200.4,41.3,200.3,42,200.1z M42,263.2v-46.5c-0.7,0.9-1.7,1.5-2.8,1.6
		c0.8,1.4,0.8,3.1,0,4.5v42.9L42,263.2L42,263.2z M154.9,265.5v-47.9c-1.1,0.1-2.1-0.3-2.8-1.2v46.3L154.9,265.5"/>
	
		<path id="path168" style="clip-path:url(#SVGID_00000054260839188176427680000004936443589223099833_);fill-rule:evenodd;clip-rule:evenodd;fill:#222222;" d="
		M107.1,181.8c0.8,0.5,1.6,0.9,2.5,1.1c0.9,0.6,1.5,1.2,2.4,1.2c0.3,0.5,0.8,0.7,1.4,0.6c1.1,0.7,2,1.6,2.7,2.7
		c0.2-0.6,0-1.1,0.4-1.8c0.9,0.1,1.6,0.6,2.1,1.4c0.3-1,0.2-2.1-1-3.7c1.3-2.1,3-0.2,2,0.8c1.2,0,1.9-1.5,0.5-2.8
		c0.5-0.1,0.8-0.5,0.7-0.9c0,0,0,0,0,0c-0.8,0.4-1.3-0.1-2-0.2v-0.5c0.7-0.5,1.4-1.1,2-1.8c0.4-0.2,0.8-0.6,1-1
		c1.1-0.8,1.5-1.6,1-2.6c-0.1-0.4-0.2-0.7-0.4-1c-0.4-0.4-0.8-0.7-1.2-1c-0.5,0-0.8,0.2-0.8,0.6c0,0.4-0.1,0.7-0.4,0.9
		c-0.1-0.1-0.2-0.2-0.4-0.2c-0.1-0.3,0.9-1.1,0.6-1.4c-0.8-0.7-1.4-1-2-0.3l-0.6,0.9c-0.4-0.9,0-1.6,0-2.5c1-0.3,1-1.1,0.4-1.5
		s-1.2-0.1-1.2,0.7l-0.6-0.4c0.4-0.7,0.9-1.3,1.5-1.9c0.2-1.1,0.9-1.6,1.4-2.3c1.7,0.6,3.4,1.3,4.9,2.3c2.3,1.3,2.4-0.1,4-0.7
		c0.6-0.8,1.1-1.7,1.3-2.7c0.3-0.9,0.7-1.7,1.3-2.4c0.4-0.4,0.5-1,0.2-1.4c-0.3-0.8-0.4-1.7-0.2-2.5c0-1.1-0.5-1.3-0.7-2l-0.4-1.5
		c0.1-0.5-0.2-0.9-0.6-1.1c-0.9,0.1-1.6,0.6-2.1,1.4c-0.3-0.7,0-1.5-0.8-2.1c-0.9-0.6-1.5-1.5-1.8-2.5c-0.6-1.6-1.4-1.3-2.2-2.1
		c-1.7-1.4-2.7-1.6-3.1-0.6c-0.3,1.8,0,3.4,1.6,4.4c0.5,0.2,1,0.1,1.3-0.2c0.6-0.1,0.9,0.4,0.5,0.6c-0.4,0-0.8,0.2-0.9,0.6
		c0.2,1.2,1.9,1.8,2.6,2.6c0,0.9,0.1,1.8,0.5,2.6c-0.4,0.1-0.7,0.3-0.9,0.6c-1.5-0.4-2.9-1-4.2-2c-1.1-0.5-2.2-0.9-3.3-1.3
		c-1.4-0.2-2.4,0.1-2.8,1.2c-0.7-0.4-1.5-0.8-2.2-1.2l0.4-1.8c0.7-0.1,0.8-0.6,0.6-1.5c0.4,0,0.7-0.2,1-0.4c0.4-0.1,0.8-0.4,1.1-0.7
		c0.4-0.2,0.8-0.5,1-0.9c0.1-0.3,0.2-0.6,0.3-0.8l0.2-0.7c0.1-1-0.2-1.2-0.9-0.8c-0.5,0.6-1.1,1-1.8,1.2c-1.1-0.1-2.1,0.2-3,0.8
		h-0.6c-0.4-0.5-1-0.7-1.6-0.6c-0.6-4.1-3-6.8-6.9-8.2c1.9,1.8,2,5.1,1.5,7.6c-0.3-2.6-1.1-4.5-2.3-5c-2.4-0.9-4.7-4.3-2.2-6.5
		c-2.6,0.1-4.9,4.6-1.8,8.9c-1.3-0.4-2.6-0.9-3.9-1.5c-1.7-0.9-2.3-2.9,0.7-4.9c-2.5-0.4-6,1.8-4.4,6.5c1.7,3.1,5.4,3.2,6.6,5.6
		h-2.6c-1.4-3.4-4-2.8-5.2-3.2c-2.1-0.1-3.7-2.3-2.6-5c0.5-1.3,1.4-2.4,2.4-3.3c0.8-0.5,1.5-1.1,2.1-1.8c0.3-0.5,0.7-0.9,1.2-1.3
		c0.3-0.4,0.2-1-0.2-1.3c-1-0.3-2.1-0.5-3.1-0.4c0.7-0.9,0.8-1.8,0.1-2.2c-1.7-0.1-3.3,0.3-4.7,1.2c-0.8,1.2-1,2.2,0,2.6
		c-0.2,1.1-0.4,1.6-0.8,0.9c-0.3-0.2-0.5,0-0.8,0.2c-0.9,0.4-0.8,1.8-1.1,2.8c-0.2,2.4-1.8,4.2-2.7,6.2c-0.4,1.4-0.3,2.5,0.9,2.7
		c1.3-0.2,1.4,1,1.2,3c-1,1.1-0.3,2.2-0.4,3.3c-0.1,1.9,0.2,3.7,0.7,5.5c-5.3-0.1-0.9-6.7-7.6-6.9c2.1,2,2.3,3.3,1.7,4.2
		c-0.2-3-4.3-2-6.2-1c-1.5,0.9-4.5-0.6-3.3-2.1c-1.9,0.6-1.3,4,2.2,4.6c-1.3,0.6-5.2,0.6-6.5,3.5c-0.6,2.9,2.3,3.3,2.5,2.1
		c-1.4,0.7-1.7-0.7-1.1-1.4c0.5-0.5,1.3-0.6,2-0.3c1,0.4,2,0.7,3.1,0.9c-0.1,1,0.5,1.9,1.4,2.2c-0.2-0.4-0.2-0.9,0.1-1.3
		c1.9,3.2,5.9,2.3,6,0c-0.9,1-3,0.8-2.9-0.9c0.6-2.3,3.9-1.3,5.7-0.9c1.4,0.3,2.8-0.4,4.2-1.3c3,1.4,3.7,2,7.7,2.2
		c-0.3,0.9-0.2,1.7,1.1,1.7c0,0.3,0,0.6,0.2,0.9c-1.5-1.1-3.1-1.9-4.9-2.3c-3.5,4.6-3.2,10.6,1.4,16.4c0.5-1,1.4-1.8,2.5-2.1
		c0.4,0.7,1.2,1.2,2,1.4c1.1,0.5-0.9,1.8-1.1,2.7c-0.4,1.1-0.2,2.4,0.4,3.4c-0.2,0.3-0.4,0.4-0.8,0.4c-1.5,0-2.8-0.9-3.4-2.2
		l-0.4,0.4c-1-0.5-1.5-1.6-1.4-2.7c-0.2,0.3-0.4,1-0.7,0.9c-0.6-0.3-0.3-1.2-0.4-1.8c-0.6,0.1-0.6,0.7-0.8,0.6
		c-0.5-1.2-0.5-2,0.8-1.9c-0.5-0.5-1.2-0.5-1.7,0l-0.3,0.7l-0.8-1.4c0.2-0.5,0-1.1-0.6-1.3c0,0,0,0,0,0c-0.6-0.9-1.7-0.9-3.1-0.4
		c-0.3-0.1-0.7,0.1-1,0.3c-1.5-0.9-4-0.5-4.6,1.1c-0.4,1.5,0.5,3.1,1.9,3.7c0.1,0.9,0.7,1.6,1.6,1.8c1.9,0.3,2.3-0.5,1.9-2
		c0.3,0,0.7,0,1,0.2l-0.4,0.1c-0.3,0.5-0.3,1.1,0.1,1.5c0,0.7,0.5,1.4,1.2,1.6c0-1.6,0.5-2.4,1.8-2.1c-0.2,0.3-0.7,0.5-0.7,1
		c0.4,0.4,1.2-0.1,1.5,0.1c-0.2,0.6-0.9,0.7-0.7,1.8c0.7-0.7,1.7-1.1,2.7-0.9c-0.3,0.7-0.1,1.1,0.3,1.4c0.1-0.6,0.6-1,1.1-1
		c0,0,0,0,0,0c0,0.2-0.9,1.4,0,1.8c-0.1-1.2,1.1-1.5,2.6-0.5c0.9,0.3,1.8,0.3,2.7,0c0.4-0.1,0.8-0.3,1.1-0.6
		c0.8,0.3,1.7,0.4,2.6,0.2c0.4,0.2,0.7,0.4,1,0.8c1.4-0.4,2.5-1.6,2.6-3.1l-0.3-0.1l0.1-0.5c0.3-0.3,1.1-0.3,0.8-1.2
		c0.4-0.1,0.6-0.5,0.5-0.9c0.1-0.6,0.1-1.1-0.1-1.7c0.1-0.2,0.2-0.4,0.5-0.5l1.7,1.6c0,0.4,0.2,0.8,0.5,1.1l0.3,3.1
		c-0.2,0.1-0.4,0.2-0.5,0.4l-0.3,2.9c-0.3,0.1-0.6,0.3-0.8,0.6l0.1-1.8l-2,0.1l0.2,2l-17,1.2c-1.5,0.1-2.9,0.6-4.2,1.4
		c1.8,0.7,3.7,1.1,5.6,1l15.8-0.6l-0.1,2.3l2.2-0.1l-0.4-2l0.9,0.1c0.4,0.3,0.6,0.5,1,0.2c0.3,0.2,0.7,0.2,1-0.1
		c0.1,0.2,0.4,0.2,0.5,0c0,0,0,0,0.1-0.1c0.7,0.2,1,0,1.2-0.7c2.5,0.7,2.8-3.7-0.2-2.7c0.1-0.3,0.1-0.6,0-0.9l1.4-2.6
		c0-0.5-0.3-0.9-0.7-1.2l0.2-4.7c-0.1-0.8-0.5-1.5-1.9-2.1c-0.8-1-1.7-1.9-2.7-2.6l-0.1-0.4l-1.1-0.7l-0.7-2.3
		c0.6-0.2,1-0.5,0.9-1.3c0.4-0.4,1-0.6,1.6-0.5c0,0.8,0.4,1.6,1.1,2c-0.3,1.3,0,2.6,1,3.5c0.3,0.8,0.8,1.6,1.5,2.1
		C105.3,180.2,106.1,181.3,107.1,181.8L107.1,181.8z M104.9,192.3h-0.1c0-0.3,0-0.7-0.2-0.9c0.1,0,0.2-0.1,0.3-0.1
		c0.4,0,0.7,0.2,0.7,0.5S105.3,192.3,104.9,192.3L104.9,192.3z M110,154.7l0.8-1.8c-0.1-0.2-0.2-0.3-0.3-0.6l-0.2,0.4L110,154.7
		L110,154.7z M100.1,169.9H100c-0.1-0.3-0.4-0.4-0.7-0.4l-0.4-0.5c0.5-0.4,1-0.7,1.7-0.9c0.3,0.5,0.1,1.1,0.3,1.6L100.1,169.9
		L100.1,169.9z M116.3,174.2c1,0.4,0.6-0.3,0.9-0.5l-0.1-0.6c-1-0.6-2-1-3.1-1.3c-0.6,0.6-0.8,1.5-0.5,2.3
		C114.4,173.9,115.4,174,116.3,174.2L116.3,174.2z M127.5,160.4c-0.1,0.3,0,0.6,0.1,0.9c-0.4,0.7-0.7,1.4-0.8,2.2
		c-0.6,0.1-1.1,0.4-1.6,0.6c0.1-0.6-1.3-2-2.3-2.8c0.3-0.1,0.6-0.1,0.8,0C125.5,162.3,126.4,161.1,127.5,160.4"/>
	
		<path id="path170" style="clip-path:url(#SVGID_00000054260839188176427680000004936443589223099833_);fill-rule:evenodd;clip-rule:evenodd;fill:#222222;" d="
		M93.4,251c-1.5-0.6-0.7-3.7-2.1-4.5l0.8,0.1c-0.8-1.7-0.1-2.9-1-4.2l0.5,0.1c-0.6-1.6,0.2-2.7-0.9-4.1c0.4,0,0.7,0.1,1.1,0.2
		c-1.5-1.6-0.8-3.2-1.7-5l0.7,0.1c0-0.2-0.1-0.5-0.3-0.6c-4.5,1.2-5.9,3.3-5.3,6c0.2,0.3,0.6,0.5,0.9,0.4c1.9-0.3,1.7,3.2-0.8,5.2
		c-0.5,0.8-1.3,1.4-2.2,1.6c-2.4,0.9-4.5,2.2-6.4,3.9c-0.4,0-0.5-0.5-0.5-0.9c-4.3,2.6-7.8,6.4-11.2,10.4c-3.8-3,1.5-9.3,12.3-14.3
		l0.4-0.6c-7.6,3.4-11,6.4-13.5,9.3c-0.4,0.4-0.7,0.3-0.9-0.2c-1.2-4.8,2.9-8.9,13.9-12.1l0.3-0.3c-4.9,0.6-9.4,2.7-13.1,5.9
		c-0.5,0.3-0.8-0.1-0.7-0.7c0.5-5.7,6.9-7.6,13.5-8.7c-3.8-0.3-7.9,1-12.3,3.5c-0.4,0.2-0.6-0.2-0.3-1c1.7-3.6,6.2-5.4,12.2-6.3
		c-3.3-0.2-6.5,0.3-9.6,1.5c-0.5,0.2-0.7,0.1-0.5-0.9c1.9-4.2,6.3-4.7,12.3-3.1c-1.6-1.1-4.2-1.9-9.2-2c-0.5,0.1-0.7-0.3-0.4-1.1
		c3.2-3.4,7.3-2.7,12.1,0.6c-2.4-3.1-8.6-3.4-9.1-4.7c3.8-3.4,8.7-1.8,12.3,3.1c-1.3-2.6-3.3-5-7.8-6.5c1.2-1.6,3.6-1.7,5.3-0.9
		c2,1,4,2.9,5.5,6.4c-0.4-2.6-1.8-5.5-5.5-9l0.9-0.1c-0.6-1-1.3-1.8-2.2-2.6c1.1-0.2,2.1-0.2,3.2,0.1c-1.4-1.4-1.8-2.8-4.1-4.4
		c-0.4-0.2-0.8-0.2-1.1,0c-1.4,0.9-2.4,2.4-2.7,4c-1.1,1.5-2.3,1.3-3.6,0.5c-1.9-0.1-2.7-1-2.2-2.4c0.5,0.5,1.2,0.7,1.9,0.7
		c0.4-0.9,1.3-1.3,2.2-1c0.1-0.5,0.4-0.9,0.9-1l1.6-1.4c-1.1,0.1-2.1,0.3-3.2,0.6c-1.8,0.8-3.2,0.1-3.2-1.8c-0.9-0.8-1-2.3-0.2-3.2
		c0.1-0.1,0.2-0.2,0.3-0.2c0.1,0.8,0.4,1.5,1,2c0.8-0.5,1.8-0.3,2.4,0.5c0.1,0.1,0.1,0.2,0.2,0.4c1,0.1,2.2,0.5,3.2,0.2
		c-0.8-0.8-1.9-1.4-3-1.5c-1-0.5-1.5-1.7-1.1-2.8c-0.2-1.2,0.6-2.4,1.8-2.8c-0.3,0.6-0.3,1.3,0,1.9c1.1,0.3,1.8,1.2,1.9,2.3l1.6,1.4
		c0.5,0.4,0.6,0.5,1.4,0.3c0.8-0.8,2-0.1,2.5-2.4c-0.2-0.8-0.6-1.4-1.3-1.8c1.3-0.6,2.3,0,2.8,1.7c0.9,0.2,1.5,1.1,1.3,2.1
		c-0.1,0.5-0.4,0.9-0.8,1.1c-0.7,0.5-1.8,0.3-3.3,0.5l4.4,2.6c0.2-0.3,0-0.9-0.4-1.6c3.1-0.2,2.8,2.3,3.3,3.6
		c0.2-0.7,0.4-1.5,0.3-2.3c0.9,0.4,1.7,1.3,1.9,2.3c0.3-0.8,0.9-1.3,1.8-1.4c-0.9,1.8,0.5,3.1,1.3,4.3c0.3-2.4-0.5-2.2-1-3.3
		c0.2-0.4,0.7-0.5,1.2-0.3c-0.2-2.5-2.8-3.4-3-0.6c-1.7-2.2-1.7-4,1.3-5.1c-1.5-2.5-4.4-1.3-4.7,1.6c-2.7-2.1-1.1-5.8,1.3-6.7
		c1.8-0.7,3.5,0.7,5.3,2.9c0.1-3.6,1.2-4.1,2.3-6.2c1,2.2,2.1,2.8,2.2,6.4c1.3-2.5,3.5-4,5.3-3.3c2.3,1,3.3,3.7,2.3,6
		c-0.2,0.4-0.4,0.7-0.6,1c-0.2-2.9-2.9-5-4.8-1.8c3.2,0.4,3.2,2.7,1.5,4.9c0.2-3.1-3.3-1.8-3.5,0.7c0.5-0.2,1,0,1.3,0.4
		c-0.7,0.9-1.6,1.4-1.1,3.5c1.3-1.1,1.8-2.9,1.3-4.5c0.9,0.3,1.6,1,1.7,2c0.4-1.2,1.3-2.3,2.6-2.8c0,0.9-0.6,0.7-0.2,2.1
		c0.3-1.4,0.9-3.8,4.1-3.6c-0.7,0.9-1.3,1.5-0.9,1.7l3.3-2.2c0.8-0.6,0.5-0.8,0.2-0.9c-0.8-0.3-1.5-0.1-2.2-0.6
		c-0.8-0.4-1.2-1.4-0.8-2.2c0.2-0.5,0.7-0.8,1.2-0.9c0.8-1.6,1.9-1.8,2.9-1.3c-0.7,0.4-1.1,1-1.3,1.8c0.9,0.6,0.5,1.4,0.7,1.6
		s0.9,0.4,1.4,0.8c0.5,0.2,1.1,0.1,1.5-0.3c0.2-0.3,0.5-0.6,0.8-0.7c0.2-0.4,0.4-0.7,0.8-1c0.2-1.2,0.5-1.9,1.9-2
		c0.3-0.6,0-0.8-0.3-1.6c1.7-0.2,2.4,1,2.1,2.5c0.5,0.9,0.1,2-0.8,2.5c-0.1,0-0.1,0-0.2,0.1c-1.7,0.1-2.2,1.4-3,1.7
		c1,0.2,2.1,0.2,3.1-0.1c0.5-1.1,1.2-1.8,2.8-0.8c0.6-0.6,0.9-1.3,1-2.1c1.4,1.8,1.3,3-0.1,3.9c-0.2,1.1-1.3,1.9-2.4,1.6
		c-0.3-0.1-0.5-0.2-0.8-0.3c-0.9-0.4-1.9-0.6-2.9-0.5l1.2,1.1c0.6,0.2,0.8,0.1,0.8,0.6c1.1-0.4,2,0.6,2.5,1.3
		c0.6,0.2,1.1-0.2,1.8-0.8c0.4,1.1-0.2,2.3-1.3,2.6c-0.4,0.1-0.8,0.1-1.2,0c-1.4,0.7-3.7,0.3-3.9-1.8c-0.1-1.1-0.8-2.1-1.7-2.6
		c-0.6-0.2-1.2-0.2-1.7,0c-2.3,1.6-2,2-3.4,3.5c1.2,0.2,1.9-0.2,2.7,0.8c-1.3,0.4-2.4,1.3-3,2.6c0.5,0,0.9,0.1,1.3,0.4
		c-1,0.2-1.8,0.8-2.4,1.6l1.1,0.2c-2.8,1.9-2.7,3.3-3.7,5c1.9-3,2.9-3.1,4.8-4.2c1.6-0.9,4.1-1.3,5.6,0.8c-3.1,0.7-5.9,2.7-7.4,5.5
		c-0.2,0.3-0.1,0.6-0.2,0.9c1.8-4.6,9.5-6.6,12-3.1c0,1.2-5.4,0.5-9.2,4.7c4.8-3.3,9.7-4.3,12.7-0.7c0.2,0.8,0.1,1.2-0.5,1.1
		c-5,0.1-7.6,0.5-9.2,1.6c4.8-2,11.3-0.5,12.2,3.2c0.2,0.9-0.1,1-0.5,0.9c-3.3-1.2-6.9-1.7-10.4-1.5v0.1c2.8,0,5.7,0.5,8.3,1.5
		c2.2,0.9,3.9,2.7,4.6,5c0.3,0.9-0.1,1-0.5,0.8c-1.6-1-3.3-1.8-5-2.4c-2.4-0.9-5-1.3-7.6-1.1c2.7,0.2,5.3,0.7,7.9,1.6
		c3.5,1.4,6.3,3.3,6.3,6.8c0.1,0.6-0.2,1-0.7,0.7c-5.9-4.1-9.6-5.3-13.2-5.9l0.3,0.3c11.2,2.9,15.5,7.5,14.4,12.4
		c-0.2,0.5-0.5,0.5-0.9,0.2c-0.8-0.9-1.9-1.6-2.9-2.6c-2.4-2.3-5.6-4.2-10.7-6.4l0.4,0.6c4.4,2,7.4,3.7,9.6,5.9
		c2.7,2.8,3.2,5.2,3.1,6.8c0,0.9-0.4,1-0.9,0.7c-3.5-4.6-6.8-6.7-11.1-9.3c0,0.5-0.7,0.2-1.1-0.1c-2-2-2.6-2.7-5.4-3.2
		c-0.9-0.3-1.6-0.8-2.2-1.4c-1.8-2.2-3.1-4.4-1-5.3c0.4-0.2,1-0.2,1.1-0.8c0.2-2.1-1.4-4.3-5.3-5.6c-0.2,0.1-0.4,0.3-0.4,0.6
		l0.7-0.1c-0.4,1.8-1.2,3.5-2.3,5c0.2,0.4,0.6,0.1,0.9,0.3c-0.7,0.9-0.4,1.3-1.7,2.6c-1.7,1.8-1.7,3.5,0.5,4.7c1.7-1.1,2.7,1,4,1.6
		c1.5-1.3,2.8-0.8,4.1,1.8c-0.7-0.7-1.6-1.1-2.6-1.1c-0.7,0.1-1.4,0.5-1.9,0.9c1.3,0.3,1.2-0.6,1.8-0.8c0.9,0.9,0.9,2.4,0,3.3
		c-0.7,0.6-2.3,0.7-4.3,0c-0.1,0.2-0.2,0.5-0.4,0.6l0.2,1.5c0.2,1.2,0.8,2.4,1.7,3.3c-0.4,0.6-0.9,0.5-1.6,0.1
		c-0.4,0.5-1.1,0.5-1.5,0.1c-0.1-0.1-0.2-0.2-0.2-0.3c0,1.3-0.8,1.7-1.7,1.4c-0.1,0.6-0.4,1.2-0.8,1.6c-0.4-0.4-0.6-1-0.7-1.5
		c-0.6,0.3-1.4,0-1.7-0.6c-0.1-0.2-0.1-0.4-0.1-0.6c-0.7,0.6-1.2,0.5-1.6-0.1c-0.8,0.5-1.5,0.6-1.9-0.1c1-0.8,1.6-2,1.8-3.2l0.2-1.2
		h-1.1C92.3,252.1,92.8,251.4,93.4,251z M94.5,256.2c-0.6,0.1-0.7-0.6-0.1-0.8C94.3,255.7,94.4,256,94.5,256.2L94.5,256.2z
		 M96.1,257c0.4-0.2,0.6-0.6,0.2-1.1c0,0.3-0.2,0.5-0.4,0.7h0.2L96.1,257L96.1,257z M98.8,256.6c-0.2,0.5-1,0-0.5-0.8
		C98.4,256.2,98.6,256.6,98.8,256.6L98.8,256.6z M100.2,256.2c0.9,0.1,0.6-1.4-0.3-1.2C100.3,255.4,100.5,255.7,100.2,256.2"/>
	
		<path id="path172" style="clip-path:url(#SVGID_00000054260839188176427680000004936443589223099833_);fill-rule:evenodd;clip-rule:evenodd;fill:#E94539;" d="
		M97,137.3c-1.3,0.6-1.8,3.6-1.4,5.4s2.4,2.9,2.6,4.8c-0.1,0.4-0.4,0.4-0.5,0c-0.1-2-3.3-2.3-5.3-3.3c-1.5-0.9-2.3-2.8-0.1-4.9
		c-3.2,1.3-4.9,4-2,7.3c2.1,1.9,5.6,3,6.2,5.6c0.7,4.6-0.4,7.5-2.4,9.5c-1.5,1.2-3,2.3-4.7,3.2c-0.8,1.4,0.2,1.6,1.3,0.5
		c0.6-1.6,1.9-2.4,4.5-2.1c2.9-1.1,5-2.9,8.6-3.2c0.3-0.4,0.8-0.7,1.3-0.8c0.1-4,2.9-5.1,2.8-7.6h-1.1l0.7,1.4l-1.6-0.8l-0.7,2.3
		l-0.9-2.2l-2.1,0.3l1.5-1.4l-1.7-1.4l2,0.3l-0.2-1.7l1.7,1.5l1.3-1.1l-0.2,1.4l1.3-0.1c-0.5-0.8-0.1-1.4-0.2-2
		c-0.1-0.6-0.2-1.1-0.5-1.7c-0.6-2.3-2.4-3.9-4.7-5.2c1.1,2.3,1.3,5,0.5,7.5c-0.1,0.3-0.3,0.3-0.3,0c-0.1-2.4-0.8-4.3-2.2-5.5
		C97.9,142.4,96.5,139.9,97,137.3"/>
	
		<path id="path174" style="clip-path:url(#SVGID_00000054260839188176427680000004936443589223099833_);fill-rule:evenodd;clip-rule:evenodd;fill:#E94539;" d="
		M101.1,248.1c3.5,2.8,3.5-1.1,6.9,0.5c-2.4-2.5-2.6,0.2-4.8,0.2C102.6,248.8,102,248.2,101.1,248.1"/>
	
		<path id="path176" style="clip-path:url(#SVGID_00000054260839188176427680000004936443589223099833_);fill-rule:evenodd;clip-rule:evenodd;fill:#FBEA26;" d="
		M110.8,204.7c-0.3,0.2-0.8,0.1-1-0.2c0.7-0.9,1.2-1.2,1.8-1.1C111.1,203.9,110.8,204.1,110.8,204.7L110.8,204.7z M118.5,203.4
		c0.5,0.1,0.9,0.4,1.2,0.8c0.2-0.9-0.4-1.9-1.3-2.1c0,0,0,0,0,0C118.6,202.7,118.8,203.1,118.5,203.4z M123,206.5
		c-0.1,0.8-0.6,1-0.8,1.5c0,0.4,0.2,0.9,0.6,1.1C123.7,208.7,123.7,207.6,123,206.5L123,206.5z M122.7,213.2c0,0.9-0.7,1.7-1.7,1.7
		c-0.1,0-0.1,0-0.2,0c-0.1-0.4,0-0.9,0.3-1.2C121.7,213.8,122.3,213.6,122.7,213.2z M82.7,204.9c0.3,0.2,0.8,0.1,1-0.2
		c-0.6-1.1-1.3-1.6-1.8-1.2C82.4,204,82.7,204.4,82.7,204.9L82.7,204.9z M74.7,203.7c-0.4,0.4-0.7,0.6-0.9,0.4
		c-0.2-0.7,0.2-1.5,0.8-1.9C74.5,202.9,74.5,203.3,74.7,203.7L74.7,203.7z M70.5,206.2c0.1,0.6,0.3,1.1,0.7,1.6
		c0,0.3-0.2,0.6-0.5,0.7C70.1,208.1,69.9,207.3,70.5,206.2L70.5,206.2z M70.5,213.4c0,0.9,0.8,1.7,1.7,1.7c0.1,0,0.1,0,0.2,0
		c0.3-0.2,0.3-0.6-0.1-1.1C71.6,214,71,213.8,70.5,213.4L70.5,213.4z M101.2,253.9c-2.5,0.8-5.1,0.8-7.6,0.1l0.1-1.1
		c2.5-0.1,4.9,1.1,7.4-0.1L101.2,253.9z M100.8,247.8c0.4-3.4,2.5-0.3,3.6,0.2C103,249.1,102,247.3,100.8,247.8L100.8,247.8z
		 M101,248.7c0,0.6,0,1.2,0.2,1.7c0.5,0.2,0.6,0.6,0.5,1.2c3,1,5.1,0.2,4.1-2.3C104,251,102,248.8,101,248.7L101,248.7z
		 M102.8,257.4c-0.5,0.1-1,0.1-1.2-0.5c-0.4,1-1.7,0.8-1.6-0.3c1,0.2,1.5-0.9,0.5-1.7c-0.4-0.2-1-0.1-1.2,0.3c0.4,0,0.7,0.2,0.7,0.6
		c0,0.3-0.1,0.6-0.4,0.7c-0.7,0.2-1.2-0.5-0.6-1.1c-1.2-0.4-1,0.6-1,1c0,0.8,0.8,1.5,1.1,0.5c1.2,1.1-0.3,2.4-1.3,1.3
		c0.1,0.6-0.1,1.2-0.5,1.6c-0.4-0.4-0.6-1-0.4-1.6c-0.9,1.2-2.6-0.6-1.2-1.3c0.4,1.4,1.3,0.1,1.2-0.5c0-0.3,0-1.8-1.3-1.1
		c0.7,0.5,0.3,1.4-0.4,1.1s-0.6-1.1,0.2-1.1c-0.1-0.3-0.4-0.5-0.6-0.4c0,0-0.1,0-0.1,0c-0.7,0-1.8,2.2,0.2,1.7
		c0.2,1.3-1.2,1.5-1.6,0.4c-0.2,0.6-1,0.6-1.5,0.5c0.9-0.9,1.5-2,1.8-3.2l1.1,0.3l0,0c1.8,0.3,3.7,0.3,5.5,0l1-0.3
		c0.2,1.2,0.8,2.3,1.6,3.2"/>
	
		<path id="path178" style="clip-path:url(#SVGID_00000054260839188176427680000004936443589223099833_);fill-rule:evenodd;clip-rule:evenodd;fill:#FFFEFE;" d="
		M117.2,248.1c0.1,0.4,0.2,0.7,0.2,1.1c4.4,2.7,8.2,5.5,11,9.4c0.4,0.3,0.6-0.7,0.4-1.9c-0.4-3.2-5.1-7.9-12.4-10.9
		c0.4,0.5,0.6,1.1,0.7,1.8c4.9,2.7,5.9,3.1,8,5.4c0.2,0.2,0,0.2-0.2,0.1C122,250.5,121,250.3,117.2,248.1L117.2,248.1z M116.7,244.8
		c5.1,1.7,9.6,4.7,13,8.9c0.8,0.1,0.5-1.4,0.5-2c-0.1-4.4-7.1-8.3-14.7-10.1l1.5,1.7c7.3,3.4,8.3,4.1,9.7,5.9
		c-3.3-2.7-6.3-3.8-9.6-5.3c0.2,0.2,0.3,0.4,0.3,0.7C117.1,244.8,117,244.9,116.7,244.8L116.7,244.8z M115.7,240.8
		c4.9,0.6,9.6,2.6,13.4,5.8c1.7-4-6.6-8.7-14.5-8.5c0.8,0.4,1.4,0.9,2,1.5c3.3,0,6.4,1.1,9.1,3c0.2,0.2,0.1,0.4-0.2,0.2
		c-2.6-1.7-5.7-2.7-8.8-2.8l0.2,0.3C116.3,240.5,116.3,240.7,115.7,240.8L115.7,240.8z M116.1,237.4c4.4-0.1,8.7,1.2,12.3,3.7
		c-0.3-2.3-2.5-4.5-5.9-5.7c-2.3-0.7-4.6-1-7-1c-0.3,0.4-0.6,0.7-1,1l1.1,0.1c2.6,0,5-0.1,8.2,1.7c0.4,0.3,0.2,0.3,0,0.2
		c-2.5-1.2-5.2-1.8-7.9-1.7c0.4,0.2,0.7,0.4,1,0.7C116.4,236.8,116.5,237.1,116.1,237.4L116.1,237.4z M109,227.6
		c2.3-4.8,9.4-5.7,11.2-3c-1.4,0.6-5.1,0.9-8.5,4c0.2-0.5,0.2-1.1,0.1-1.6c1.9-1.6,2.5-1.5,4.8-2.4c0.3-0.1,0.1-0.2-0.3-0.2
		c-1,0.5-2.5,0.2-4.6,2.2C111.2,226.2,109.7,227.3,109,227.6L109,227.6z M111.3,229.8c2.4-2,5.4-3.1,8.5-3.2c2.1,0,4.1,1.4,4.2,2.7
		c-3.2,0-6.5,0.1-9.2,1.3c0.1-0.3,0-0.7-0.2-0.9c1.5-1,2.8-1,5.5-1.2c0.2-0.1,0.2-0.2-0.2-0.2c-2.6,0.1-3.8,0.1-5.9,1.3
		C113.1,229.4,112.1,229.5,111.3,229.8L111.3,229.8z M116,233.6c0.2-0.5-0.7-0.7-1.1-1.1c1.6-0.4,4.5-0.2,7.5,0.5
		c0.4,0.2,0.5,0,0.1-0.3c-2.6-0.7-5.3-0.8-7.9-0.4l-0.8-0.1c2.7-2.4,11.7-1.8,12.6,2.9C123.1,233.8,119.5,233.2,116,233.6L116,233.6
		z M102.8,223.8c-0.5,0.2-0.8,0.7-1,1.2l0.8-0.2c0,2.2,0.8,2.2,0.6,4.4c1.2-0.4,0.8-3,1.7-3.1c-0.8,1.9-0.3,2.2-1.5,3.7l0.1,0.2
		c0.7-0.6,1.4-0.3,2.4-0.3c0.2-0.9,0.4-1.5,1.1-1.8c-0.6,0.6-0.5,1.1-0.8,2c0.2,0.2-0.1,1.2,0,1.5c0.7-0.2,1.4-0.3,2.1-0.3
		c0.4-0.7,1-1.3,1.6-1.8c-0.5,0.6-0.9,1.3-1.2,2.1c0.4,0.5,0.3,1.4,0.5,1.9h0.5c0.5-0.9,1.4-1.4,2.4-1.6c-0.8,0.4-1.5,1-2,1.7
		c1.2,0.4,1.2,0.3,1.3,1.2c0.8-0.3,1.6-0.4,2.4-0.4c-0.7,0.2-1.5,0.4-2.1,0.8c0,0.4-0.6,0.7-1,1.3c0.5,0,1,0.4,1.2,0.9
		c0.8-0.2,1.5-0.3,2.3-0.3c-0.7,0.1-1.4,0.3-2,0.6c0.3,0.7-0.1,1.1-0.6,1.6c1.1-0.1,2.1,0.1,3.1,0.5c-1.1-0.1-2.2-0.2-3.3-0.1
		c1.3,1.1,1.1,1.3,0.8,2c1.3,0.6,1.9,0.4,2.6,1.3c-0.7-0.3-2-0.5-2.9-0.9c-0.2,0.3-0.6,0.5-0.9,0.6c0.5,0.5,0.8,1.2,0.8,1.9
		c1.3,0.9,3,1.4,3.5,2.7c-1.2-1.2-2.5-1.5-3.6-2.3c-0.2,0.5-1.2,0.7-1.6,0.6l-0.2,0.1c2.2,0.9,2.6,0.5,3.5,1c1.6,0.9,2.3,2.2,3.6,3
		c0-2-0.2-3.1-1.4-4.2c-0.9-0.8-2.1-1.1-2.9-2c1,0.2,2.8,1.3,4.4,1.1c-0.2-2.3-2-2.6-3.7-3.8c1.4,0.2,2.8,0.2,3.2-0.4
		c-0.8-2-2.2-1.5-3.6-2c1.4-0.2,2.8,0,3.2-1.6c-1.6-1.7-2.5-0.4-3.6-0.7c1.3-0.3,2.8-0.8,3.2-2.4c-2.1-1.6-2.3-0.2-3.7,0
		c0.3-0.3,0.8-0.6,1.3-1.1c0.7-0.5,1.1-1.5,1-2.4c-1.4-0.6-2.9-0.3-4,0.7c0.2-1.1,1.7-1.6,1.2-3.8c-1.2-0.1-2.7,1.6-3.6,2.1
		c0-1.1,0.8-1.6,0.3-3.5c-0.9-0.2-2.2,1-3,2.2c-0.5-0.2,1.2-1.9-0.1-3.1c-1.2,0.1-1.1,1.2-1.6,1.7
		C103.6,225.4,103.3,224.5,102.8,223.8L102.8,223.8z M109.3,245.2c-0.4,0-0.3,0-0.7-0.5c-0.7-0.8-0.5-1.5-1.4-2.6s-0.6-2.1,0.6-2.4
		c0.5-0.1,0.9-0.5,1-1c0.2-3.2-2.6-5.1-5.6-5.8c-0.3,0,0.1-1,0-2.3c0.4-1.3,1.6-0.5,2.4-0.8c0.5,0.9-0.2,1.8,0,2.2
		c0.5-0.2,1-1.1,2.6-0.6c0.7,0.8,0.4,1.4,0.3,2.1c2.8,0.1,2.9,1.5,1.4,3c1.4,0.2,2.6,1.9,0.2,2.6c2.2,1.6,2,2.4-0.4,3.1
		c1.1,1.5,2,2.8,0.8,2.9c-0.7,0-1.1,0-1.3,0.1L109.3,245.2z M103.9,231.9c0,0.1,0.4,0.4,0.5,0.2l0.3-1.1c0.1-0.3,0-0.4-0.2-0.2
		L103.9,231.9z M106.5,233.1c0,0.2,0.2,0.4,0.3,0.3l0.7-0.8c0.1-0.3,0-0.3-0.1-0.2C107.4,232.3,106.5,233.1,106.5,233.1z
		 M108.6,235.1c-0.2,0.1-0.2,0.5,0,0.4c0.3-0.2,0.6-0.3,0.9-0.4c0.3-0.1,0.4-0.3,0-0.3C109.2,234.8,108.8,234.9,108.6,235.1
		L108.6,235.1z M109.4,237.7c-0.2,0.1-0.3,0.3,0,0.3l1-0.1c0.3,0,0.4-0.1,0.1-0.3L109.4,237.7L109.4,237.7z M110.1,241
		c0.2,0,0.4-0.2,0.2-0.3c-0.4,0-0.8-0.1-1-0.4c-0.3-0.1-0.5,0-0.2,0.2C109.3,240.9,109.7,241.1,110.1,241L110.1,241z M108.4,242.3
		c-0.2-0.1-0.4,0.1-0.2,0.2c0.3,0.1,0.6,0.3,0.7,0.6c0.3,0.2,0.4,0.2,0.2-0.1C108.9,242.7,108.6,242.4,108.4,242.3L108.4,242.3z
		 M105.8,226.5c0.3-4.3,7.8-8.1,9.9-5.5c-2.8,0.4-5.6,2.9-7.1,5.8c0-0.4,0.1-1.8-0.3-1.8c0.8-1.6,1.9-2.3,3.9-3.4
		c0.2-0.2,0.2-0.2-0.3-0.1c-1.8,0.9-2.7,1-4,3.4C107.3,225,106.1,226.2,105.8,226.5L105.8,226.5z M109.6,218.1
		c-2.8,2.1-3.6,4.6-6.7,4.2c-1.4-0.2-3.3-1.6-3.1-5.4l-0.6,0.2v-0.2c1.1-0.7,1.8-2,1.9-4.2c1.4,1,0.3,3.5,0.5,5.3
		c0.8-1.9-0.2-3.2,2.3-5.8c0.3,1.8,1,2.8-0.7,6.1c0.7-0.6,1.4-0.7,2.1-1.7c0.3,1,0.4,2.1,0.1,3.1C106.6,219,107.7,217.5,109.6,218.1
		L109.6,218.1z M100.8,222.6l0.4-0.8c-0.4-0.3-0.6-0.6-0.9-1C100.5,221.4,100.4,222.4,100.8,222.6L100.8,222.6z M102.5,222.6v0.8
		c-0.5,0.4-0.8,0.9-1,1.5l-0.6-1.9l0.6-1.1C101.8,222.2,102.1,222.4,102.5,222.6L102.5,222.6z M107.5,221.1
		c-0.8,1.1-1.4,2.3-1.8,3.6c-0.1-0.3-0.3-0.5-0.7-0.6c-0.5,0.2-0.8,0.6-1.1,1c0.2-0.6,0.5-1.3,0.9-1.8c0.1-0.2-0.2-0.3-0.4-0.2
		l-0.8,1.5c-0.1-0.4-0.4-0.8-0.8-1.1c0-0.3-0.2-0.8,0.2-0.8C104.6,222.7,106.3,222.2,107.5,221.1L107.5,221.1z M107.9,215.8
		c1.8-1.3,2.5-3,4-4.5c1.2-0.7,2.1-1.3,3-0.9c1.2,0.5,2.1,1.7,2.3,3c0.1,1.8,2.4,2.1,3.4,1.5c0-0.5,0.2-0.9,0.4-1.3
		c-0.3-0.7-1.6-1.9-2.3-0.5c-0.4,0.1-0.6,0-0.4-0.3c0.7-0.4,0.6-1.2-0.6-0.6c0-0.3,0.3-0.4-0.1-0.8l-0.5,0.1c0-0.3,0.2-0.2-0.1-0.6
		H116c0.6-0.7-0.7-0.5-0.5-1l1,0.3c1-0.1,2,0,2.9,0.4c2,0.9,2.7,0.1,3-1.1c-0.3-0.4-0.5-0.8-0.5-1.3c-1.5-0.8-2.2-0.3-2.4,1.1
		c-0.5,0.2-0.1-0.4-0.6-0.2s-0.4,0.4-0.6,0.6c-0.4-0.1,0-0.3-0.2-0.5c-0.2,0.1-0.6,0-0.7,0.5c-0.4,0.1-0.2-0.5-0.5-0.4
		s-0.4,0.2-0.6,0.4c-0.3-0.4-0.5-0.7-1.6-0.1c-0.3-0.2,0.5-0.7,1.1-1.1l1.8-1.4c1.6-0.1,2.2-1,1.8-2.4c-0.3-0.5-0.8-0.8-1.4-0.8
		c-1.8,0.2-1.5,1.9-1.3,2.4c0,0.3-0.3,0.4-0.3,0.2s-0.2-0.4-0.3-0.2l-0.2,1.2c-0.2,0-0.2-0.7-0.5-0.4s-0.2,0.7-0.2,0.9
		c-0.3,0-0.1-0.6-0.6-0.3s-0.2,0.5-0.3,0.7l-0.5-0.4c-0.3,0-0.3,0.4-0.4,0.5c-0.7-0.1-0.1-0.7-0.9-0.8c-0.3,0-0.3,0.3-0.4,0.5
		l-0.4-0.7c-0.5,0,0,0.6-0.5,0.3l0.1-0.9c0.1-0.7-0.3-1.3-0.8-1.6c-0.4,0-0.8-0.1-1.2-0.3c-1.6,0.7-1.1,2.5,0.4,3
		c2.7,0.2,2.4,1.1,1.5,1.5c-0.4,0.4,0,0.8-0.3,1.2c0-0.3-0.3-0.2-0.4-0.6c-0.3,0.5-0.4,0.4-0.3,1c-0.5,0.1-0.2-0.8-0.7-0.5
		s-0.1,0.5-0.3,0.7c-0.2,0-0.2-0.4-0.5-0.1c-0.4,0.3-0.1,0.5-0.2,0.8c-0.2,0-0.3-0.5-0.6-0.1c-0.3,0.1,0,0.4,0,0.6l-0.4-0.3
		C107.9,213.6,108.7,213.9,107.9,215.8L107.9,215.8z M111.6,215c-1,0.5-1.8,1.4-2.2,2.5c-1.2,0-2.4,0.5-3.3,1.3
		c0.1-1.1-0.2-2.2-0.7-3.2c-0.2,0.8-0.7,1.5-1.5,1.9c0.9-1.9,0.6-2.4,0.9-3.7c0.4-1.8,1.1-3.4,3.2-3.7c-1.6,2.1,0.9,4.2-1.1,6.9
		C108.7,216.4,109.3,213.6,111.6,215z M101.2,239.2c-0.4,1.3-1.4,1.8-1.9,2.7c-1.1,2-1.3,3.7,1.2,4.6c-0.1,0.7-0.1,1.4,0.1,2
		c0,0.9,0.2,1.9,0.8,2.6c-0.1,1.2-1.1,1.8-2.8,1.8c-1.9-0.3-3.9-0.5-5.8-0.6c0.3-1.3,1.2-1,1.9-1.4c-2.5-0.9-1.4-2.7-2.4-4.1
		c1,0.2,1.9,0.9,2.3,1.9c0.3-0.1-0.1-1.3,0.3-1.8c0.3-0.1,0.8,0.5,1.1,0.8c-0.1-0.5,0.1-1.1,0.5-1.4c-0.4-0.1-0.7,0.1-0.9,0.8
		c-0.2-0.4-0.5-0.5-0.9-0.6c-0.5,0.8-0.2,1-0.3,1.5c-0.4-0.7-1-1.3-1.7-1.6c-0.8-1.4-0.5-2.1-0.7-3.2c0.9,0.3,1.6,0.9,1.9,1.7
		c-0.2-1-0.9-1.9-1.8-2.4c-0.8-1.2,0.1-2.8-0.9-3.8c2.3,0.3,2.7,1,3.6,2.3c0.5-1.2,0.5-2.8,1.6-3.5c0.7,0.4,1.2,1.5,1.5,3.1
		C99,239.5,100,238.9,101.2,239.2L101.2,239.2z M99.8,250.8c-0.1-0.3-0.1-0.5,0-0.8c-0.3,0.2-0.5,0.1-1,0.4
		C99.1,250.7,99.4,250.8,99.8,250.8L99.8,250.8z M97.8,250c0.6,0.9,1.7,1.4,2.8,1.3c0.2-0.1,0-0.4-0.3-0.4c0.2-0.5,0.3-0.7-0.1-0.9
		s0.1-0.4,0.1-0.6C99.5,249.7,99.1,250.6,97.8,250z M102.8,234c-0.3,1.7-1,3.3-2.2,4.7c-0.9,0.2-1.7,0.7-2.3,1.4
		c-0.3-1.2-0.8-2.2-1.7-3.1c-1.3,0.9-1.3,2.2-1.8,3.5c-0.5-0.8-1.4-1.5-2.3-1.8c-0.9-1.1-1.4-1.7-1.4-4.3c1.4,0.2,2.4,1.4,3.3,2.8
		c0.4-1.5,1.2-2.8,2.3-3.8c1.2,0.7,1.9,2.1,2.4,3.6c1.2-1,1.6-2.6,3.6-2.9L102.8,234z M103,229.8c0.2,1.3,0,2.7-0.7,3.9
		c-1.3,0.6-2.3,1.5-3.1,2.6c-0.4-1.5-1.2-2.8-2.3-3.8c-1.3,1-2.2,2.4-2.6,4c-0.5-1.3-1.5-2.3-2.8-2.8c-0.1-0.4-0.3-0.8-0.6-1.1
		c-0.1-1-0.1-2.1,0-3.1c1.6,0.3,2.5,1.6,3.3,3.1c0.6-1.1,1.4-2.2,2.4-3c1.3,0.7,2.3,1.9,2.8,3.4C100.6,232,100.8,230.1,103,229.8
		L103,229.8z M100.2,221.5l1,3.9l-0.8,1.8c-0.5-0.8-0.4-1.4-1.5-2.4c-1.1,0.8-1.4,1.9-2,3.1c-0.5-1.1,0-1.3-1.5-3.3
		c-1.4,1.1-1.1,1.9-1.7,2.8c-0.3-0.8-0.7-1.5-1.3-2.1c-0.3-1.2-0.1-2.4,0.4-3.5c1,0.6,1.2,1.6,1.8,2.3c0.7-0.9,0.7-2.1,2-2.6
		c1.4,0.9,1.2,1.6,1.8,2.5c0.6-0.8,0.9-2.2,1.7-2.4H100.2z M99.9,212.9c-2,2.6-0.6,3.2-0.7,4.8l-0.8,1.4c-0.3-1.1-0.8-2.2-1.6-3.1
		c-1.4,1.8-1.1,2.2-1.7,3.2c-0.2-0.6-0.6-1.2-1-1.8c0.4-1.4,0.7-2.7-0.6-4.3c0.8-0.2,1.6,0.2,2,0.9c0-1.1,0.5-2.2,1.2-3.1
		c1.3,1.1,0.6,2.1,1,3.1C98.3,213.7,98.3,212.5,99.9,212.9L99.9,212.9z M99.4,218.1c0.1,1,0.3,2,0.6,3c-1,0.9-1,1.6-1.6,2.4
		c-0.6-0.9-0.1-1-1.7-2.8c-1,0.8-1.7,1.8-2.2,3c-0.4-0.7-0.3-1.4-1.3-2.1c0.3-1.1,0.5-2.2,0.5-3.3c1.2,0.6,0.9,1.2,1.3,1.8
		c0.5-0.9,0.8-2.6,1.6-2.9c0.7,0.7,1.3,1.7,1.5,2.7C98.6,219.2,98.6,218.5,99.4,218.1L99.4,218.1z M102.2,225.2
		c0.1,1.8,0.8,2.3,0.6,4.1c-1.6,0.5-2.9,1.8-3.4,3.4c-0.4-1.5-1.4-2.8-2.8-3.6c-1,0.9-1.9,2-2.5,3.2c-0.5-1.1-1.3-2.1-2.4-2.7
		c-0.2-1.3-0.1-2.7,0.3-4c1.2,0.5,1.2,1.7,1.8,2.5c0.5-0.9,0.8-2.3,1.6-2.6c0.7,0.9,1.2,2,1.5,3.1c0.4-1.2,1-2.8,1.9-3
		c0.7-0.1,1.1,1.6,1.7,2.5C101.1,227.1,100.8,226.5,102.2,225.2L102.2,225.2z M92.2,212.6c0.1,1.9,0.5,3.4,1.7,4.5v0.4L93,217
		c0.6,2.1,0.1,2.8,0.1,4.3l-0.5-0.4l-0.4,0.6c-2.1,1.6-4.1,1.3-6-0.2c-1.1-1-2.1-2.1-3-3.2c3-0.1,3.6,1.6,5.3,2.6
		c-0.2-1.2-1-1.2-0.5-3.5c1,0.4,1.3,1,3,1.2c-2.7-1.4-2.4-2.9-2-4.8c0.1-0.4,0.4-0.6,0.4-1.4c2.3,2,1.2,3.4,1.7,5
		c0.6-0.8-0.6-3.7,0.9-4.5L92.2,212.6z M85.8,221.2c1.2,1.4,2,3.2,2.2,5.1c0.2-0.4,0.2-1.1,0.7-1.3c0.1-0.6-0.4-1.2-0.6-1.8
		c0.5,0.2,0.7,1.2,1.1,1.9c0.7,0.3,1.3,0.7,1.8,1.2l-1.2-3.5c-1.5,0.1-3-0.5-4.1-1.5L85.8,221.2z M91.4,229.3
		c-0.4-0.1-0.8-0.3-1.1-0.5c0.2,0.5,0.3,1.1,0.3,1.6l-0.6-0.7c0-0.8-0.2-1.6-0.5-2.4v2.2c-0.4-0.3-0.8-0.5-1.3-0.6
		c-0.3,0.2-0.5,0.4-0.7,0.6c-0.2-0.8-0.7-1.5-1.4-1.8c0.6,0.6,1,1.4,1.2,2.3c-0.2,0.2-0.3,0.5-0.3,0.8c-0.6-0.2-1.1-0.3-1.8-0.4
		c-0.3-0.7-1.2-1-1.8-1.5c0.5,0.7,1.3,1.1,1.6,2c-0.3,0.5-0.5,1.1-0.5,1.7h-0.7c-0.6-0.9-1.6-1.5-2.8-1.6c0.8,0.6,1.7,0.8,2.3,1.7
		c-1.2,0.4-1.2,0.5-1.5,1.7c-1-0.3-2-0.5-3-0.4c1,0.2,2,0.5,3,0.9c0.1,0.5,0.3,1,0.7,1.4c-0.3,0.1-0.6,0.2-0.8,0.5
		c-0.9-0.1-1.8,0-2.7,0.1c0.8,0,1.6,0.1,2.4,0.3c0,0.6,0.2,1.1,0.5,1.6c-1.2,0.1-2.4,0.4-3.5,0.9c1.1-0.2,2.1-0.4,3.2-0.5
		c-0.6,0.7-0.8,1.6-0.6,2.4c-1.3,0.6-2.3,0.9-3,1.8c0.6-0.3,1.2-0.6,1.8-0.9s1-0.4,1.5-0.6c0.2,0.3,0.5,0.5,0.9,0.5
		c-0.5,0.5-0.8,1.3-0.8,2c-1.3,0.9-2.8,1.2-3.3,2.5c1.2-1.2,2.2-1.3,3.2-2.1c0.2,0.5,0.6,0.7,1,0.6l0.4,0.2c-2.6,0.4-4,2.4-6,3.6
		c-0.7-2.2,0.8-4,2.5-5.5c-1,0.2-1.4,0.7-3.1,0.5c0.3-1.3,1.8-2.5,3.5-3.8c-1.3,0.5-2.6,0.5-3.9,0c0.1-1,2.5-1.8,3.8-2.4
		c-1-0.5-2.6,0-3-1.6c0.6-0.8,2.2-0.6,3.3-0.9c-1.2-0.2-2.3-1-2.8-2.1c0.7-0.8,1.9-1,3.3-1c-0.8-0.7-1.6-1.6-1.2-2.6
		c1.3-0.5,2.8-0.2,3.7,0.8c-0.3-1.1-1.3-1.3-0.8-3.5c2.7-0.2,2.4,1,3.3,2c0-1.1-0.5-1.3,0-3.2c1.1-0.4,2.3,0.8,2.5,2.4
		c0.5-0.2-0.2-2.1,0.8-3.1c1.5,0.2,2.3,2.1,2.5,3.8L91.4,229.3z M90.4,222.6l1.2,3.7c0.2-0.6,0.2-1.3,0.1-1.9l0.4,0.2
		c-0.1-0.7-0.2-1.4-0.4-2.1c0.3,0.1,0.5,0.3,0.6,0.5c0.1-0.4,0.2-0.8,0.1-1.2C91.8,222.1,91.1,222.4,90.4,222.6z M97.6,244.2
		c-0.4-0.7-0.4-1.8-1.3-2.1c-0.8,0.2-0.7,1.5-1.1,2.2c-0.3-1.1,0.2-2.3,1.2-2.9C97.2,242,97.7,243.1,97.6,244.2L97.6,244.2z
		 M83.4,245.9c0.5,0,0.9-0.3,1.2-0.6c0.6-1.1,1.4-2.1,2.3-3c0.7-1.3,0.6-2.6-0.8-2.4c-0.5,0.1-1.1-0.2-1.2-0.8c0,0,0-0.1,0-0.1
		c-0.1-4.3,2.7-5.4,5.8-6.1c0.2-1.5-0.8-3-2.3-3.3c-0.9,0.5-0.9,1.5-1.2,2.2c-0.6-0.2-0.2-0.8-1.7-0.7c-0.4,0.7-0.6,1.5-0.4,2.2
		c-2.4-0.4-3.2,0.6-2,3.5c-1.5,0.4-1,1.1-0.2,2.5c-1.5,1.4-1.4,2.6,0.4,3.4c-1.1,1.5-1.6,2.6-0.4,2.7
		C83.4,245.4,83.1,245.7,83.4,245.9L83.4,245.9z M89,232c0,0.1-0.3,0.3-0.4,0.2v-0.9c-0.1-0.3,0-0.4,0.2-0.2L89,232z M86.7,233.2
		c0,0.2-0.2,0.4-0.3,0.3l-0.4-1c-0.1-0.3,0-0.3,0.1-0.2L86.7,233.2L86.7,233.2z M84.4,234.9c0.2,0.2,0.1,0.5-0.1,0.4l-0.8-0.5
		c-0.3-0.1-0.3-0.3,0-0.3L84.4,234.9z M83.7,237.7c0.2,0.1,0.3,0.3,0,0.3l-1-0.1c-0.3,0.1-0.4-0.1-0.1-0.3L83.7,237.7z M83.7,240.1
		c0.2-0.1,0.4,0.1,0.2,0.2c-0.3,0.1-0.6,0.3-0.9,0.6c-0.3,0.2-0.4,0.2-0.2-0.1C83,240.5,83.3,240.2,83.7,240.1z M85,242.3
		c0.2-0.1,0.4,0.1,0.2,0.2c-0.4,0.2-0.7,0.4-0.9,0.7c-0.2,0.2-0.4,0.2-0.2-0.1C84.3,242.7,84.6,242.4,85,242.3L85,242.3z
		 M81.2,229.6c-3.8-3.2-9.8-3.7-11.5-0.2c3.2,0.1,6.4,0.4,9,1.6c0-0.3-0.2-0.7,0.1-1c-1.5-1-4.1-1.3-6.7-1.5
		c-0.2-0.1-0.2-0.2,0.2-0.2c2.6,0.1,5,0.3,7.2,1.4C80.1,229.6,80.6,229.5,81.2,229.6L81.2,229.6z M76.6,234
		c-0.2-0.2-0.5-0.5-0.6-0.8c0.5-0.1,1-0.2,1.6-0.2c-2-0.9-4.9-0.6-7.5,0.6c-0.4,0.2-0.5,0-0.1-0.3c2.5-1.2,5.4-1.4,8-0.5
		c0.5-0.1,1-0.2,1.4-0.1c-3.7-2.1-11.2-1.8-12.2,2.9C70.1,234.1,73.3,233.7,76.6,234L76.6,234z M76.6,237.6
		c-4.1,0.1-8.1,1.3-11.6,3.6c0.7-3.2,5-5.8,12.1-6.6c0.3,0.4,0.6,0.7,1,1l-0.7,0.2c-3-0.2-6,0.6-8.5,2.3c-0.4,0.3-0.2,0.3,0,0.2
		c2.4-1.2,5-2,7.7-2.1c-0.3,0.1-0.5,0.3-0.7,0.5C76,236.9,76.2,237.3,76.6,237.6L76.6,237.6z M76.7,241.4c-4.6,0.5-8.9,2.5-12.3,5.6
		c-0.5-3.7,6.1-8.5,13.8-8.4c-0.8,0.4-1.7,0.9-2.4,1.4c-3.3,0.5-6.3,1.8-8.9,3.9c-0.2,0.2-0.1,0.4,0.2,0.2c2.4-1.8,5.2-3,8.2-3.6
		L75,241C75.5,241.2,76.1,241.4,76.7,241.4L76.7,241.4z M76.4,244.9c-4.8,2-9.1,5-12.7,8.8c-1.5-4.9,4.7-8.8,13.7-11.6l-0.8,0.8
		c-7.3,3.4-9.4,5.4-10.7,7.2c3-2.6,6.4-4.8,10-6.4c-0.2,0.3-0.3,0.7-0.4,1.1C75.8,244.9,76.1,245,76.4,244.9L76.4,244.9z M76.2,248
		c-0.1,0.4-0.2,0.7-0.2,1.1c-4.3,2.5-8,5.9-11,9.9c-3-3,2.9-8.6,12-13.3c-0.4,0.5-0.6,1.1-0.7,1.8c-5.1,2.5-8.5,5.3-10.3,7.8
		c-0.2,0.2,0,0.2,0.2,0.1C69.1,252.4,72.5,249.9,76.2,248L76.2,248z M85.8,216.2c-1.9-1.2-2.9-3.1-4.4-4.7c-0.9-0.9-1.8-1.4-2.8-0.9
		c-1,0.8-1.9,1.8-2.5,2.9c-0.5,2.2-1.7,2.3-3.1,1.9c0.1-0.6-0.1-1.3-0.5-1.8c0.7-0.7,1.4-1,2.2-0.3c0.4,0.1,0.4,0,0.3-0.2
		c-0.7-0.4-0.1-1,0.8-0.9c0-0.2-0.4-0.3-0.1-0.6H77c0-0.3-0.6-0.3-0.2-0.7h1.2c-0.9-0.9,0.8-0.8,0.6-1.4l-1.5,0.7
		c-1,0-1.9,0.1-2.8,0.4c-2.4,1.1-3.4-0.2-3.3-1.5c0.4-0.2,0.7-0.5,0.8-1c1.7-0.6,2.3,0.1,2.5,1.4c0.5,0.2,0-0.6,0.5-0.4
		s0.4,0.3,0.6,0.5c0.4-0.1,0-0.3,0.1-0.5c0.2,0.1,0.7,0,0.8,0.5c0.4,0.1,0-0.6,0.4-0.4c0.3,0,0.6,0.1,0.7,0.3
		c0.3-0.4,0.8-0.6,1.5-0.5c0.3-0.2-0.9-0.4-1.3-0.6l-2-1.3c-1.6-0.1-2.2-0.9-1.9-2.3c0.6-0.1,1.1-0.4,1.4-0.8
		c2.3,1.1,1.4,2.1,1.3,2.6c0,0.3,0.3,0.4,0.3,0.2s0.2-0.4,0.3-0.2v0.6c0.2,0,0.4-0.2,0.7,0s0.1,0.4,0.1,0.6c0.3,0,0.3-0.4,0.8-0.1
		s0.2,0.4,0.4,0.7l0.6-0.5c0.3,0,0.2,0.3,0.3,0.4c0.2-0.2,0-0.6,0.8-0.6l0.2,0.3l0.3-0.5l0.4-0.1c0.5,0,0.1,0.7,0.6,0.4l-0.1-0.8
		c0.5-0.3,0.8-1,0.8-1.6c0.4,0.2,0.9,0.2,1.3,0c1.6,0.7,1,1.8,0,2.9c-0.9,0-2.2,0.4-2.8,0.1c-0.3-0.1-0.6,0.1-0.8,0.5
		c0.3,0.5,0.8,0.1,1.2,0.4l-0.5,0.4c0.7,0.3,0.8-0.3,1.4,0.1c0.3,0.3-0.1,0.4-0.2,0.6l1-0.1l0.3,0.2c0.2,0.2-0.5,0.2-0.6,0.6
		c0.5,0.1,0.8-0.4,1.2-0.1l0.3,0.2c0,0.3-0.6,0.3-0.5,0.7l0.9-0.4l0.8,0.3C85.8,213.3,85,214.2,85.8,216.2L85.8,216.2z M85.8,210.3
		c0.3,0.8,0.3,1.7,0.1,2.6c-0.4,1.7,0.1,3.5,1.4,4.6c0-0.5,0.1-1.1,0.3-1.6c0.2,0.5,0.7,0.9,1.2,1.1
		C87.4,214.4,89.3,211.4,85.8,210.3L85.8,210.3z M81.8,215.4l1.6,2.2c1.6,0.1,3.1,0.8,4.1,1.9c-0.1-0.5-0.2-1-0.2-1.5
		C85.7,217.2,85.1,215.2,81.8,215.4L81.8,215.4z M87,226.2c-2-5-6.1-7.2-9.4-5.2c2.7,0.5,5.7,3,7.3,5.8c0.1-0.3,0-1,0.3-1.1
		c-1.1-1.8-2.7-3.3-4.6-4.2c-0.2-0.2-0.2-0.2,0.3-0.1c2,0.8,3.7,2.3,4.7,4.2C86.1,225.8,86.6,226,87,226.2L87,226.2z M84,227.2
		c-2.9-4.5-9.6-4.8-10.9-2.6c1.7,1,5.3,1,8.4,3.9c0-0.4,0-0.8,0.1-1.2c-1.7-1.9-4-2.3-6.6-2.8c-0.3-0.1-0.2-0.2,0.3-0.2
		c2.3,0.7,4.7,0.4,6.7,2.8C82.8,227,83.4,227.1,84,227.2L84,227.2z M100.1,207.2c2.7-3.3,4.8-3.3,5.9,0.5c1.8-6-4.1-8.3-7.4-1.5
		c-0.6-2,0-3.3-2.1-6.7c-2.2,3.8-1.3,4.4-2,6.7c-3.2-6.6-9.2-3.9-7.3,1.4c1.2-2.6,4-3.2,5.6-0.5c0.3,0,0.6,0.1,0.8,0.3
		c0-0.7-0.3-1.4-0.7-2c0.7,0.6,1.2,1.4,1.2,2.4l0.6,0.8c0.4-1.4,0.1-2.5,1.7-4l0.2-2.3l0.3,2.5c0.9,1.1,1.5,2.4,1.6,3.8L99,208
		c0.3-1,0.8-1.9,1.4-2.8l-1.1,2.6C99.5,207.6,99.8,207.4,100.1,207.2L100.1,207.2z M103,210.5c-1.7-2.1-4-1.1-4.2,2.1
		c-0.4,0.2-0.7,0.5-0.9,0.9c0.1-1.1-0.2-2.2-1-3c0.1-0.7,0-1.5-0.2-2.2c-0.1,0.7-0.1,1.4-0.1,2.1c-1.1,0.7-1,2-1.2,3
		c-0.2-0.4-0.5-0.6-0.9-0.8c-0.1-3.1-2.7-3.4-3.6-1.5c-2-3.1,3.1-5.9,4-1.6l0.4-0.2c-0.2-1.6,0.3-3.2,1.4-4.3
		c1.1,1.3,1.7,2.9,1.6,4.6l0.2,0.2l0.2-0.2c0.7-2,2.2-2.4,3.2-2.1c1.1,0.3,1.7,1.4,1.4,2.4C103.2,210.2,103.1,210.4,103,210.5"/>
	
		<path id="path180" style="clip-path:url(#SVGID_00000054260839188176427680000004936443589223099833_);fill-rule:evenodd;clip-rule:evenodd;fill:#FBEA26;" d="
		M97.2,183.5c0.2-0.1,0.4-0.1,0.6,0c0.2-0.2,0.3-0.4,0.4-0.6c0-0.1-0.3-0.2-0.4-0.1C97.8,183.2,97.4,183.3,97.2,183.5z M96.9,182.4
		l-0.1,0.8c0.1,0.1,0.3,0,0.4,0.1c0.2-0.2,0.2-0.6,0.1-0.9C97.2,182.3,97.1,182.3,96.9,182.4C96.9,182.3,96.9,182.4,96.9,182.4
		L96.9,182.4z M96.3,181.9l0.1,1.1c0.1,0.1,0.2,0.2,0.3,0.2l0.2-1.1C96.7,182,96.5,181.9,96.3,181.9z M95.7,182l0.4,0.5v-0.5
		C95.9,181.9,95.7,181.9,95.7,182L95.7,182z M97.4,183.1c0.2-0.1,0.3-0.2,0.3-0.4l-0.3-0.1C97.4,182.7,97.4,182.9,97.4,183.1"/>
	
		<path id="path182" style="clip-path:url(#SVGID_00000054260839188176427680000004936443589223099833_);fill-rule:evenodd;clip-rule:evenodd;fill:#FFFEFE;" d="
		M90.3,177l-0.6-1.7l1.5-0.6l-0.4-1.1l-1.5,0.6l-1.1-2.9l1.4-0.6l-0.4-1.2l-1.5,0.6l-0.9-2.3l-1.3,0.4l1,2.4l-1.6,0.6l0.4,1.1
		l1.5-0.7l1.1,3l-1.6,0.6l0.4,1.1l1.7-0.6l0.7,1.6L90.3,177L90.3,177z M96,185.3v-1.3c-0.3,0.2,0,1.4-0.7,0.4
		c-0.3,0.2-0.6,0.2-0.9,0.1v0.4c-0.4-0.1-0.8-0.3-1-0.6c1.5-0.4,1-1.9,2.1-2.3c0.4,0.4,0.6,1,1.2,1.3c-0.1,0.1-0.1,0.4,0,0.6
		c0-0.8,0.4-0.6,0.6-0.3c0.5,0,0.8,0.3,0.3,0.6l-0.7,0.6v0.5C96.6,185.5,96.3,185.5,96,185.3L96,185.3z M77.2,179.2
		c0.2-0.8,1-1.3,1.8-1c0.3,0.1,0.5,0.2,0.7,0.4c-0.8,0.2-1.4,0.5-1.4,1.1c0.6-0.8,1.7-1.1,2.1-0.1c-0.3-0.2-0.6-0.1-0.8,0.1
		c0,0,0,0.1-0.1,0.1c1,0,1.2,0.9,1.5,1.5c0.3,0.4,0.6,0.4,0.8-0.1c0,0.8,0.3,1.6,0.8,2.2l0.2-0.8c0.2,1,1.1,1.3,1.3,2.3
		c0.1-0.3,0.1-0.7,0-1.1c0.4,0.8,1,1.5,1.8,2l0.1-0.5c0.8,1.2,2.1,1.9,3.5,2c0,0.2,0,0.4,0.1,0.6c-0.8,0.3-1.8,0.2-2.6-0.1
		c-0.7-0.6-1.8-0.6-2.6,0c0-0.3,0.3-0.6,0.9-0.9c-0.6-0.5-1.5-0.4-2.1,0.1c-0.2-0.3,0.1-0.6,0.4-0.8c-1,0-2,0.1-3,0.3
		c0.4-0.6,1.1-1,1.8-1.2c-0.9-0.2-1.8-0.2-2.7,0c0.1-0.3,0.4-0.6,1.1-0.9c-0.7-0.6-1.8-0.4-2.4,0.3c-0.3,0.3-0.4,0.8-0.3,1.2
		c-0.5-0.3-0.8-0.9-0.5-1.4c0.1-0.1,0.1-0.2,0.2-0.3c-0.2-0.1-0.4-0.1-0.7-0.1c-0.1-0.5,0.3-0.7,1.1-0.6c-0.7-0.6-1.6-0.8-2.4-0.6
		c1.5,0.6,0,2-0.5,2c-0.9,0.1-1.7-0.5-1.8-1.4c0-0.1,0-0.1,0-0.2c0.5-0.2,0.8-0.1,1,0.3c0.2-0.3-0.1-0.5,0.1-0.8c1-0.6,1-1.3,0.4-2
		c0.3,2-1.6,3.2-3,1.1c-0.9-1.2-0.6-3,0.3-3.4c0,0.3-0.2,0.6,0,0.9c0-0.3,0.1-0.7,0.3-0.9c0.5-0.2,0.3,0.1,0.5,0.2
		c0.1-0.4,0.4-0.5,0.8-0.4c-0.5,0.5-0.7,1.3-0.6,2c0.1,0.2,0.3,0.3,0.3,0c-0.2-1.3,0.2-2.4,1.8-1.9c-0.1,0.1-0.1,0.2-0.1,0.4
		c-0.3-0.1-0.7,0.1-0.9,0.3c-0.2,0.2-0.1,0.4,0.1,0.2c0.2-0.2,0.5-0.3,0.8-0.3c0,2.1,1.4,2.7,2.7,2c0.3-0.3,0.2-0.4-0.1-0.3
		c-1.5,0.9-2.5-0.4-2.2-2.1l0.3,0.2c-0.1-0.3,0-0.4,0.5-0.5c0,0.2,0,0.4,0,0.6c0.1-0.2,0.1-0.7,0.4-0.8h0.6
		c-0.4,0.2-0.6,0.6-0.6,1.1L77.2,179.2z M88.6,187.7c0.3,0,0.3-0.1-0.1-0.2c-3.5-0.9-6.6-3-8.6-6l0.1,0.8c-0.7-0.3-1-0.6-1.4-0.6
		s-0.7,0.3-1,0.7c1.7-0.6,2.3,0,3.4,0.9c-0.5,0.2-1,0.2-1.4,0.1c0.3,0.1,1,0.2,1.1,0.5c0.1-0.5,0.2-0.3,0.4-0.4
		C83.9,185.9,86.9,187.5,88.6,187.7"/>
	
		<path id="path184" style="clip-path:url(#SVGID_00000054260839188176427680000004936443589223099833_);fill-rule:evenodd;clip-rule:evenodd;fill:#367DB4;" d="
		M91.9,184.4c-1.7,0.3-0.2-2.1,0.3-0.9c0.8,1.5,2.8,2.3,4.8,2.2c0,0.2-0.1,0.4-0.3,0.6c-0.5-0.1-1-0.2-1.5-0.5
		c-0.3-0.1-0.3,0.2,0,0.4c0.4,0.2,0.9,0.3,1.3,0.4c0,0.2-0.1,0.3-0.3,0.4c-0.6-0.1-1.2-0.4-1.7-0.7c-0.3-0.2-0.3,0.1,0,0.4
		c0.5,0.3,1,0.5,1.6,0.7c0,0.1-0.1,0.2-0.2,0.3l-1.3-0.8c-0.3-0.2-0.4,0.1-0.1,0.4l1.2,0.6c-0.7,0.5-1.7-0.5-2.1-0.9L91.9,184.4
		L91.9,184.4z M98.2,182.5c-1.2-1.1-2.4-1.4-3.5-0.3c-0.5,0.4-0.3,1.4-1.5,2l-0.3-0.3c0.8-0.7,1.2-1.7,1.1-2.7
		c2-1.1,3.3-0.9,4.1,0.2L98.2,182.5L98.2,182.5z M98,180.8c-1.3-0.6-2.9-0.6-4.2,0.1c-0.1-0.4-0.3-0.8-0.6-1.1c1-2.1,4.4-2,5.5,0.1
		C98.8,180.4,98.2,180.5,98,180.8L98,180.8z M98.8,179.3l-0.7-0.8l1.4-2.6l0.9,0.6C100,177.4,99.5,178.4,98.8,179.3L98.8,179.3z
		 M100.2,177.7c1,0.7,1.9,1.5,2.6,2.6l0.3-1.1c-0.8-0.9-1.5-1.7-2.4-2.4L100.2,177.7L100.2,177.7z M99.2,180.5
		c0.1-0.4,0.1-0.8,0-1.1l0.7-1.4c1.1,0.8,2,1.7,2.8,2.8c-0.2,0.9-1.1,1.4-2,1.2C100.2,181.5,99.7,181,99.2,180.5L99.2,180.5z
		 M101.2,182.7l-0.1-0.2c1.3,0.1,2.1-0.9,2.4-2.8c0.3,0.1,1.1,0.5,1.1,0.8C103.4,182.3,102.2,182.8,101.2,182.7z M101.5,183v0.3
		c2.1,0.1,2.2-0.6,3.5-1c-0.1-0.5,0.2-1.1-0.2-1.4C103.8,181.7,103.5,183.2,101.5,183L101.5,183z M104,183.5l0.2,3.4
		c0.3,0.1,0.6-0.1,0.8-0.4v-3.4c-0.3-0.2-0.9,0-1.1,0.4H104z M101.6,183.9l0.1,2.9c0.6,0.5,1.3,0.6,2,0.2c0.1-1.2,0-2.3-0.1-3.5
		C103,183.7,102.3,183.9,101.6,183.9L101.6,183.9z M105.2,192.9c-0.1,0-0.3,0-0.4-0.1c0-0.1,0-0.2,0.1-0.3h0.2
		c0.4,0,0.8-0.3,0.9-0.7c0-0.4-0.3-0.8-0.7-0.9c-0.1,0-0.1,0-0.2,0c-0.2,0-0.4,0.1-0.6,0.2l-0.1-0.1h-0.1c0.2-0.3,0.6-0.4,0.9-0.4
		c0.6-0.1,1.2,0.4,1.2,1s-0.4,1.2-1,1.2C105.3,193,105.3,193,105.2,192.9L105.2,192.9z M103.9,193c0,0.5,0.3,0.7,0.5,0.3l0.3-1.2
		c0-0.4-0.6-0.6-0.6-0.2L103.9,193z M103,192.8c0,0.5,0.3,0.7,0.5,0.3l0.3-1.3c0-0.4-0.8,0-0.8,0.4L103,192.8L103,192.8z M102,193.5
		c0,0.5,0.6,0.4,0.7,0l-0.1-0.9c0-0.4-0.6-0.6-0.6-0.2L102,193.5L102,193.5z M101.3,193.2c0,0.5,0.4,0.7,0.5,0.3v-1.2
		c0-0.4-0.8-0.3-0.8,0L101.3,193.2z M100,195.4c-0.6-2.1-0.8-4.3-0.5-6.5l-1.3,0.1c0.4,2.2,0.6,4.4,0.4,6.6L100,195.4z M98.3,191.9
		L78.1,193c0.4-0.3,0.9-0.6,1.4-0.7l18.7-1.2L98.3,191.9L98.3,191.9z M98.3,192.9l-17.7,0.9c-0.9,0-1.7-0.2-2.5-0.6l20.3-1
		L98.3,192.9L98.3,192.9z M101.1,193.3c-1.5,0.2-1.3-1.8-1-2.7c0.2-0.4,0.5-0.7,0.9-0.8l0.3-2.9c1.3,0.7,2.9,0.8,4.2,0.1l-1.2,2.5
		c-0.5-0.2-1,0-1.3,0.5c1-0.5,1.3,0.1,1.1,1.1c-0.3-0.1-0.5-0.1-0.8,0c-0.1-0.5-0.6-0.9-1.1-0.9c0.3,0.3,0.8,0.4,0.8,0.9
		c-0.2,0.1-0.4,0.3-0.4,0.6c-0.2-0.1-0.5-0.1-0.7,0.1c-0.5-0.3-1.2,0.1-1.8,0C100.2,192.2,101,192.4,101.1,193.3L101.1,193.3z
		 M93,179.9c1.1,1.6,0.8,2.8-0.3,3.6c-0.9-2-2.9,1-0.8,1.2l1.6,2.7c-2,0.3-3.3-0.4-3.2-3.4c0.2-0.8,0.6-1.6,1.2-2.2
		c0.3-0.3,0.4-0.8,0.1-1.2C92.2,180.5,92.7,180.3,93,179.9z M93.2,178.2c0.1,1-0.7,1.9-1.7,2c-0.8,0-1.5-0.4-1.8-1.1
		C90.8,178.7,91.9,178.7,93.2,178.2L93.2,178.2z M93.7,178.4c1.2-0.9,2.9-0.9,4.2-0.2l1.5-2.6l-1-2.5c-2.2,0-3.2-1.2-4.8-1.1
		c-1.8,2.5,1.3,4.4,1.9,1.5l0.7,1.7c0,1-1.2,2-2.6,2.8L93.7,178.4L93.7,178.4z M91,187.3c-0.2,0.3-0.6,0.6-1,0.7
		c-0.1-0.2-0.2-0.4-0.2-0.6c0.3-0.1,0.5-0.2,0.7-0.4C90.6,187.1,90.7,187.3,91,187.3L91,187.3z M95.5,174.5l0.3,0.9
		c-2,3.4-6.7,2.1-9.3,5.1c-3.3-4.8-4.5-9.6-1.2-15.2c3.5,0.8,6.4,3.4,7.7,6.8C91.2,174.2,94.2,176.8,95.5,174.5L95.5,174.5z
		 M90.9,177.3l-0.6-1.7l1.4-0.5l-0.7-1.8l-1.5,0.6l-0.8-2.2l1.5-0.6l-0.7-2l-1.5,0.6l-0.9-2.4l-2.1,1l1,2.3l-1.7,0.6l0.9,1.8
		l1.5-0.6l0.8,2.2l-1.7,0.7l0.8,1.7l1.6-0.6l0.7,1.6L90.9,177.3z M109.8,151.7c-1.1,2.5-1.7,5.1-1.8,7.9c0.4,0.1,0.8,0.2,1.1,0.5
		c0.3-2.7,0.8-5.4,1.4-8L109.8,151.7L109.8,151.7z M108.4,151.4c-0.4,3.4-3,4.8-2.8,7.6c0.6,0.2,1.3,0.3,1.9,0.3
		c0.4-5,1.2-5.5,1.8-8.1L108.4,151.4z M104.9,159.6l4.2,2.6c0.1-0.6,0.1-1.1-0.1-1.7C108.2,160,106.4,159.8,104.9,159.6L104.9,159.6
		z M104.7,160.2l2.3,3.4c1.2,0.1,2.2-0.2,2-0.7C107.7,161.7,106.3,160.7,104.7,160.2L104.7,160.2z M105,161.4l-0.9-1.2l-0.6,0.2
		l0.2,1.1L105,161.4z M101,162.4c0.8-0.3,1.6-0.5,2.4-0.6l-0.3-1.1c-0.7,0.1-1.5,0.2-2.2,0.4L101,162.4L101,162.4z M98.2,163.6
		c0.8-0.4,1.7-0.7,2.4-1l-0.2-1.3c-0.7,0.2-1.5,0.4-2.2,0.7C98.1,162.5,98.1,163.1,98.2,163.6L98.2,163.6z M95.2,165.3
		c0.8-0.6,1.6-1.2,2.5-1.6c-0.1-0.5-0.1-1,0-1.5l-2.2,1.1L95.2,165.3L95.2,165.3z M105.5,162c-2.8,0.2-5.3,0.6-9.7,3.6
		c1.1,1.1,2.5,2.4,3.7,2.4c3.6-1.8,7.3-3.5,6.8-4.6C106.3,163.4,105.5,162,105.5,162z M90.3,166c4.7-2.3,5.8,1.6,8.7,2.4l-0.3,0.3
		c-0.4-0.2-1-0.2-1.4,0c-0.5,0-1,0.1-1.4,0.4c-0.2-0.3-0.5-0.6-0.9-0.6l-0.7-1.4l-1.1,0.6l-2.4-0.1C90.3,167.1,90.2,166.6,90.3,166z
		 M93.9,167.7c-0.8,0.4-1.5,1.1-1.9,1.9c0.5,0.6,0.9,1.2,1.2,1.9c0.9,0.1,1.8,0.3,2.6,0.8c0.9,0.3,1.8,0.5,2.7,0.5
		c0.9-0.1,1.1-0.5,0.6-0.9c-0.8,0.4-1,0.2-1.2-0.2c0.7,0.2,1.5-0.1,1.8-0.7c0.2-0.1,0.2-0.3,0.1-0.5c0,0,0,0,0,0
		c-0.2-0.1-0.4,0.3-0.8,0.4c0.2-0.3,0.4-0.5,0.5-0.8c0-0.3-0.1-0.4-0.4-0.3l-0.3,0.4c-0.2,0.1-0.3,0.1-0.2-0.2l0.4-0.6l-0.7-0.5
		c-0.3-0.1-0.7,0-1,0.2c-0.4,0-0.9,0-1.2,0.2c-0.1,0.6-0.2,1.1-0.4,1.7c-0.3-0.6,0.2-1.6-0.3-1.9s-0.3,0.5-0.4,0.8s-0.3,0.1-0.3-0.2
		c0.1-0.4,0.1-0.8,0-1.1L93.9,167.7L93.9,167.7z M94.7,165.2c-1.1-0.2-2.3-0.3-3.4-0.2c-0.1-1.2,2.1-1.6,3.7-1.4L94.7,165.2
		L94.7,165.2z M92.7,168c-0.3,0.3-0.6,0.7-0.8,1.1c-0.3-0.4-0.6-0.7-0.9-1.1L92.7,168z M108.1,150.2l1.2-0.1l0.1-0.8
		c-0.3-0.3-0.8-0.4-1.2-0.1V150.2L108.1,150.2z M110.3,150l-0.2-0.6l-0.5,0.1l-0.1,0.6L110.3,150L110.3,150z M110.4,151.7l-0.6-0.4
		l0.2-0.3h0.4l0.2,0.3L110.4,151.7z M114.8,147.8c0.3-0.1,0.6,0.1,0.8,0.4c0.1-0.3,0.1-0.6,0.1-0.9
		C115.4,147.3,115.1,147.5,114.8,147.8L114.8,147.8z M113.5,148.7c0.5,0.3,0.8,0.8,0.8,1.4l0.4-0.3c0-0.6-0.3-1-0.9-1.3L113.5,148.7
		z M114.3,148.2c0.5,0.4,0.7,0.5,0.8,0.9l0.2-0.4c0-0.6-0.1-0.6-0.8-0.8L114.3,148.2z M113.3,150.8c-0.1-0.3-0.3-0.6-0.7-0.7
		c0-0.4,0.2-0.7,0.5-1c0.5,0.3,0.8,0.8,0.7,1.4L113.3,150.8z M112.2,151.2c0-0.3,0.1-0.6,0.2-0.9c0.3,0.1,0.4,0.3,0.5,0.6
		C112.7,151.1,112.5,151.2,112.2,151.2"/>
	
		<path id="path186" style="clip-path:url(#SVGID_00000054260839188176427680000004936443589223099833_);fill-rule:evenodd;clip-rule:evenodd;fill:#FBEA26;" d="
		M110.5,150.8v-0.4l-4.4,0.2l0.2-1.1l-0.9,0.9l-1.1-1.1l0.3,1.1l-1.4-0.2l1.2,0.8l-1,0.8l1.5-0.1l0.3,1.7l0.5-2l1.1,0.6l-0.6-1
		C107.6,151.1,109.1,151,110.5,150.8L110.5,150.8z M111.4,152.6c-0.3,0-0.5-0.2-0.5-0.5c0-0.3,0.2-0.5,0.5-0.5
		c0.3,0,0.5,0.2,0.5,0.5C111.9,152.4,111.7,152.6,111.4,152.6C111.4,152.6,111.4,152.6,111.4,152.6z M111,151.3l-0.4-2.1
		c1.1,0,1.5-0.4,2.4-0.5c-0.5,0.8-0.8,1.7-1.1,2.6C111.6,151.1,111.2,151.1,111,151.3L111,151.3z M109.4,158.5
		c0.7-1.7,1.3-3.4,1.7-5.2h-0.2l-1.3,3.3C109.6,157.3,109.6,157.9,109.4,158.5"/>
	
		<path id="path188" style="clip-path:url(#SVGID_00000054260839188176427680000004936443589223099833_);fill-rule:evenodd;clip-rule:evenodd;fill:#FBEA26;" d="
		M113.5,179.4c-0.4,0-0.7-0.3-0.7-0.6c0-0.4,0.3-0.7,0.6-0.7s0.7,0.3,0.7,0.6c0,0,0,0,0,0C114.2,179.1,113.9,179.4,113.5,179.4z
		 M114.4,178.3c0-0.3-0.2-0.5-0.4-0.6c1.3-1.1,2.7-2.1,4.2-3c0,0.3,0.2,0.5,0.4,0.7C117.2,176.3,115.8,177.2,114.4,178.3z
		 M112.6,178.2l-0.4-0.1c0-0.5-0.1-1.1-0.4-1.5c0.1-0.3,0.3-0.6,0.6-0.8c0,0.7,0.1,1.4,0.4,2.1C112.7,177.9,112.6,178.1,112.6,178.2
		L112.6,178.2z M112.8,181l-0.5-0.5c-0.1-0.5,0-1,0.3-1.4c0.1,0.3,0.3,0.5,0.5,0.6C112.9,179.8,113,180.5,112.8,181L112.8,181z
		 M116.3,182.1c-1.1-0.6-2-1.4-2.7-2.4c0.3-0.1,0.6-0.2,0.7-0.4c0.8,0.9,1.7,1.7,2.8,2.2C117,181.8,116.7,182,116.3,182.1z
		 M119.3,175.6c0.4,0.7,1,1.3,1.6,1.8c0.3-0.1,0.4-0.5,0.6-0.7c-0.6-0.4-1.1-0.9-1.5-1.4C119.9,175.5,119.6,175.6,119.3,175.6
		L119.3,175.6z M118.2,174.4c-0.2-0.3-0.4-0.4-0.7-0.6c0-0.2,0.1-0.4,0.3-0.5c0.2,0.1,0.5,0.3,0.6,0.5
		C118.3,174,118.2,174.2,118.2,174.4"/>
	
		<path id="path190" style="clip-path:url(#SVGID_00000054260839188176427680000004936443589223099833_);fill-rule:evenodd;clip-rule:evenodd;fill:#FBEA26;" d="
		M119.3,175.3c-0.4,0-0.8-0.4-0.8-0.8s0.4-0.8,0.8-0.8c0.4,0,0.8,0.4,0.8,0.8C120.1,175,119.8,175.3,119.3,175.3
		C119.3,175.3,119.3,175.3,119.3,175.3z M119.3,175c-0.3,0-0.5-0.2-0.5-0.5c0,0,0,0,0,0c0-0.3,0.2-0.5,0.5-0.5c0,0,0,0,0,0
		c0.3,0,0.5,0.2,0.5,0.5c0,0,0,0,0,0C119.8,174.8,119.6,175,119.3,175C119.3,175,119.3,175,119.3,175"/>
	
		<path id="path192" style="clip-path:url(#SVGID_00000054260839188176427680000004936443589223099833_);fill-rule:evenodd;clip-rule:evenodd;fill:#FBEA26;" d="
		M119.4,163.7c-1.8,1.4-5.2,2-8.7,2.1c-1.8,0.1-3.6,0-5.4-0.2l0.2-0.3c0.1,0,0.1,0.1,0.2,0.1c0.2,0,0.3-0.1,0.4-0.3
		c0-0.1-0.1-0.2-0.2-0.3l0.2-0.2l0.9-0.1c4.9,0.3,10-1.3,12.1-3.3C119.1,162.1,119.2,162.9,119.4,163.7L119.4,163.7z M107.6,165.4
		c-0.2,0-0.3-0.2-0.3-0.4c0-0.2,0.1-0.4,0.3-0.4c0.2,0,0.4,0.1,0.4,0.3c0,0,0,0.1,0,0.1C107.9,165.3,107.8,165.4,107.6,165.4
		C107.6,165.4,107.6,165.4,107.6,165.4z M109.5,165.6c-0.2,0-0.4-0.2-0.4-0.4c0-0.2,0.2-0.4,0.4-0.4c0.2,0,0.4,0.3,0.4,0.5
		C109.9,165.4,109.7,165.6,109.5,165.6z M111.4,165.5c-0.2,0-0.4-0.2-0.4-0.5c0-0.3,0.1-0.5,0.4-0.5s0.5,0.1,0.5,0.4
		c0,0,0,0.1,0,0.1C111.9,165.3,111.7,165.5,111.4,165.5C111.4,165.5,111.4,165.5,111.4,165.5L111.4,165.5z M113.3,165.5
		c-0.3,0-0.5-0.3-0.5-0.6c0-0.3,0.2-0.6,0.5-0.6c0.2,0,0.5,0.3,0.5,0.6S113.6,165.4,113.3,165.5L113.3,165.5z M115.3,165.1
		c-0.3,0-0.5-0.4-0.5-0.8s0.2-0.8,0.5-0.8s0.5,0.3,0.5,0.8S115.6,165.1,115.3,165.1L115.3,165.1z M117.1,164.5
		c-0.3,0-0.6-0.3-0.6-0.8s0.2-0.8,0.5-0.8s0.6,0.3,0.6,0.8S117.4,164.5,117.1,164.5L117.1,164.5z M118.6,163.8
		c-0.2,0-0.4-0.4-0.4-0.8s0.2-0.8,0.4-0.8s0.4,0.4,0.4,0.8S118.9,163.8,118.6,163.8"/>
	
		<path id="path194" style="clip-path:url(#SVGID_00000054260839188176427680000004936443589223099833_);fill-rule:evenodd;clip-rule:evenodd;fill:#FFFEFE;" d="
		M107.6,165.3c-0.1,0-0.2-0.1-0.2-0.2c0,0,0,0,0,0c0-0.1,0.1-0.2,0.2-0.2c0,0,0,0,0,0c0.1,0,0.2,0.1,0.2,0.2
		C107.8,165.2,107.7,165.3,107.6,165.3C107.6,165.3,107.6,165.3,107.6,165.3z M109.5,165.4c-0.1,0-0.2-0.1-0.2-0.2c0,0,0,0,0,0
		c0-0.1,0.1-0.2,0.2-0.2s0.2,0.1,0.2,0.2c0,0,0,0,0,0C109.7,165.3,109.6,165.4,109.5,165.4C109.5,165.4,109.5,165.4,109.5,165.4z
		 M111.4,165.3c-0.2,0-0.3-0.1-0.3-0.3c0-0.2,0.1-0.3,0.3-0.3s0.3,0.1,0.3,0.3l0,0C111.7,165.2,111.6,165.3,111.4,165.3z
		 M113.3,165.2c-0.2,0-0.3-0.2-0.3-0.3c0-0.2,0.1-0.3,0.3-0.4s0.3,0.1,0.4,0.3c0,0,0,0.1,0,0.1C113.6,165,113.5,165.2,113.3,165.2z
		 M115.3,164.8c-0.2,0-0.3-0.2-0.3-0.4s0.1-0.4,0.3-0.4s0.3,0.2,0.3,0.4S115.5,164.8,115.3,164.8L115.3,164.8z M117,164.2
		c-0.2,0-0.3-0.2-0.3-0.4s0.1-0.4,0.3-0.4s0.3,0.2,0.3,0.4S117.2,164.2,117,164.2z M118.6,163.4c-0.1,0-0.3-0.2-0.3-0.5
		s0.1-0.5,0.3-0.5s0.3,0.2,0.3,0.5S118.8,163.4,118.6,163.4L118.6,163.4z M105.7,165.3c-0.1,0-0.2-0.1-0.2-0.2s0.1-0.2,0.2-0.2
		s0.2,0.1,0.2,0.2S105.8,165.3,105.7,165.3L105.7,165.3"/>
	
		<path id="path196" style="clip-path:url(#SVGID_00000054260839188176427680000004936443589223099833_);fill-rule:evenodd;clip-rule:evenodd;fill:#FBEA26;" d="
		M117.3,172.8c-1.1-0.6-2.2-1.1-3.4-1.4c-4.5-1.3-9.2-1-13.5-0.4v-0.9c5.5-1.8,13.4-2.6,17,0.1C117.1,171.1,117.1,172,117.3,172.8
		L117.3,172.8z M115.9,171.5c-0.4,0-0.7-0.4-0.7-0.8c-0.1-0.3,0.1-0.7,0.5-0.8c0,0,0.1,0,0.1,0c0.4,0,0.7,0.4,0.7,0.8
		C116.6,171.1,116.3,171.4,115.9,171.5C116,171.5,115.9,171.5,115.9,171.5L115.9,171.5z M113.8,170.6c-0.3,0-0.6-0.3-0.6-0.6l0,0
		c0-0.4,0.3-0.6,0.6-0.6s0.6,0.3,0.6,0.6S114.2,170.6,113.8,170.6C113.8,170.6,113.8,170.6,113.8,170.6z M111.9,170.3
		c-0.4,0-0.6-0.3-0.6-0.6c0-0.4,0.3-0.6,0.6-0.6c0.4,0,0.6,0.3,0.6,0.6C112.6,170,112.3,170.3,111.9,170.3L111.9,170.3z M110,170.1
		c-0.3,0-0.6-0.3-0.6-0.6c0-0.3,0.3-0.6,0.6-0.6c0.3,0,0.6,0.3,0.6,0.6C110.6,169.8,110.3,170.1,110,170.1
		C110,170.1,110,170.1,110,170.1L110,170.1z M108.2,170c-0.3,0-0.5-0.3-0.4-0.6c0-0.3,0.3-0.5,0.6-0.4c0.2,0,0.4,0.3,0.4,0.5
		C108.7,169.8,108.5,170,108.2,170C108.2,170,108.2,170,108.2,170L108.2,170z M106.4,170.1c-0.3,0-0.5-0.2-0.5-0.5
		c0-0.3,0.3-0.5,0.6-0.5c0.2,0,0.4,0.2,0.5,0.5C106.9,169.9,106.6,170.1,106.4,170.1z M104.7,170.1c-0.3,0-0.5-0.2-0.5-0.5
		c0-0.3,0.2-0.6,0.5-0.6c0.3,0,0.6,0.2,0.6,0.5C105.3,169.7,105.1,170,104.7,170.1C104.8,170,104.7,170,104.7,170.1z M103,170.2
		c-0.2,0-0.4-0.2-0.3-0.5c0-0.2,0.2-0.4,0.5-0.3c0.2,0,0.3,0.2,0.3,0.4C103.5,170.1,103.3,170.3,103,170.2
		C103,170.3,103,170.3,103,170.2L103,170.2z M101.8,170.4c-0.1,0-0.3-0.1-0.3-0.2c0-0.2,0.1-0.3,0.3-0.3s0.3,0.1,0.3,0.3
		C102.1,170.3,102,170.4,101.8,170.4"/>
	
		<path id="path198" style="clip-path:url(#SVGID_00000054260839188176427680000004936443589223099833_);fill-rule:evenodd;clip-rule:evenodd;fill:#FFFEFE;" d="
		M103,170.1c-0.1,0-0.3-0.1-0.3-0.2c0-0.1,0.1-0.2,0.3-0.2c0.1,0,0.2,0.1,0.3,0.2C103.3,169.9,103.2,170.1,103,170.1
		C103.1,170.1,103,170.1,103,170.1z M104.7,169.9c-0.1,0-0.3-0.1-0.3-0.2c0-0.1,0.1-0.3,0.2-0.3c0,0,0.1,0,0.1,0
		c0.2,0,0.3,0.1,0.3,0.2c0,0,0,0,0,0C105,169.8,104.9,169.9,104.7,169.9L104.7,169.9z M106.3,169.9c-0.1,0-0.3-0.1-0.3-0.2
		c0-0.1,0.1-0.3,0.2-0.3c0,0,0.1,0,0.1,0c0.2,0,0.3,0.1,0.3,0.3c0,0,0,0,0,0C106.6,169.7,106.5,169.8,106.3,169.9L106.3,169.9z
		 M108.2,169.8c-0.2,0-0.3-0.2-0.2-0.3c0-0.2,0.2-0.3,0.3-0.2c0.1,0,0.2,0.1,0.2,0.3C108.5,169.6,108.3,169.7,108.2,169.8
		L108.2,169.8z M110,169.8c-0.2,0-0.4-0.1-0.4-0.3s0.1-0.4,0.3-0.4c0,0,0.1,0,0.1,0c0.2,0,0.3,0.2,0.3,0.4
		C110.3,169.7,110.1,169.8,110,169.8z M112,170c-0.2,0-0.4-0.2-0.4-0.4c0-0.2,0.2-0.4,0.4-0.4s0.4,0.2,0.4,0.4
		C112.4,169.8,112.2,170,112,170L112,170L112,170z M113.8,170.3c-0.2,0-0.4-0.2-0.4-0.4c0-0.2,0.2-0.4,0.4-0.4s0.4,0.2,0.4,0.4l0,0
		C114.2,170.2,114,170.3,113.8,170.3C113.8,170.3,113.8,170.3,113.8,170.3L113.8,170.3z M115.9,171.1c-0.2,0-0.4-0.2-0.4-0.4
		c0-0.2,0.1-0.4,0.3-0.4c0,0,0,0,0,0c0.2,0,0.4,0.2,0.4,0.4C116.3,170.9,116.1,171.1,115.9,171.1
		C115.9,171.1,115.9,171.1,115.9,171.1"/>
	
		<path id="path200" style="clip-path:url(#SVGID_00000054260839188176427680000004936443589223099833_);fill-rule:evenodd;clip-rule:evenodd;fill:#FBEA26;" d="
		M88.8,164.3l0.3-0.2c-1.6-1.1-2.7-2.9-2.9-4.8l4.1,0.9c0.2,1.6,0.7,2,1,2.9c0.4-0.1,0.8-0.4,1.1-0.8c-0.5-0.5-0.8-1.1-1-1.8H91
		c-0.6,0-1.2-0.5-1.2-1.1c0-0.6,0.5-1.2,1.2-1.2c0.1,0,0.2,0,0.3,0c-0.4-1.5,0.1-2.9-1.9-4.4l-0.7,0.2l0.3,0.4
		c0.6,1.1,0.9,2.4,0.9,3.6c-1.2-0.1-2.4-0.3-3.5-0.6c0.1,0.2,0.1,0.3,0.1,0.5c0,0.6-0.5,1.2-1.2,1.1c0,0,0,0,0,0
		c-0.3,0-0.6-0.1-0.8-0.3l0.1,0.4c-0.1,1.6,0.6,3.2,2.1,4.8C87.4,164.3,88.1,164.4,88.8,164.3L88.8,164.3z M91.3,160.5h2.8
		c0.4-0.4,0.8-0.9,1-1.5c-1.3-0.1-2.3-0.3-3.1-0.3c0.1,0.2,0.2,0.4,0.2,0.6C92.3,159.9,91.9,160.4,91.3,160.5L91.3,160.5z M86,157
		c-0.2-2.3-0.7-3.6-1.5-4.2l-0.5-0.2l-0.5,0.3l0.5,0.6c0.6,1.1,0.8,2.3,0.6,3.4c-2.1-0.7-3.8-2.2-4.7-4.2c-0.6,0.6-0.2,1.8-0.2,2.7
		c1.3,1.4,2.8,2.4,4.5,3.1l0.4,0.1c-0.1-0.2-0.1-0.4-0.1-0.6c0.1-0.6,0.6-1.1,1.2-1.1C85.7,157,85.8,157,86,157z M83.4,157.6
		c-0.1,0-0.3,0-0.3-0.2s0-0.3,0.2-0.3c0,0,0.1,0,0.1,0c0.1,0,0.2,0.1,0.2,0.2C83.6,157.5,83.5,157.6,83.4,157.6z M82.1,156.7
		c-0.1,0-0.3-0.1-0.3-0.2c0-0.1,0.1-0.2,0.3-0.2c0.1,0,0.3,0.1,0.3,0.2C82.4,156.6,82.3,156.7,82.1,156.7
		C82.1,156.7,82.1,156.7,82.1,156.7L82.1,156.7z M80.7,155.6c-0.1,0-0.3,0-0.3-0.2s0-0.3,0.2-0.3c0,0,0.1,0,0.1,0
		c0.1,0,0.2,0.1,0.2,0.2C81,155.5,80.9,155.6,80.7,155.6z M80,154.3c0,0.1,0,0.3-0.2,0.3c-0.1,0-0.3-0.1-0.3-0.2
		c0-0.1,0-0.3,0.2-0.3C79.9,154,80,154.1,80,154.3z M85.2,156.1c-0.1,0-0.3-0.1-0.3-0.2c0-0.1,0.1-0.3,0.2-0.3c0,0,0.1,0,0.1,0
		c0.1,0,0.3,0.1,0.3,0.2C85.5,155.9,85.4,156,85.2,156.1C85.2,156.1,85.2,156.1,85.2,156.1z M84.9,154.8c-0.1,0-0.2-0.1-0.2-0.2
		c0-0.1,0.1-0.2,0.2-0.2c0.1,0,0.3,0,0.3,0.2s0,0.3-0.2,0.3C85,154.8,85,154.8,84.9,154.8z M87.1,163.7c-0.1,0-0.3,0-0.3-0.2
		s0-0.3,0.2-0.3c0,0,0.1,0,0.1,0c0.1,0,0.2,0.1,0.2,0.2C87.4,163.6,87.3,163.7,87.1,163.7z M86.5,162.7c-0.1,0-0.3-0.1-0.3-0.2
		c0-0.2,0.1-0.3,0.2-0.3s0.3,0.1,0.3,0.2C86.9,162.5,86.8,162.7,86.5,162.7C86.6,162.7,86.6,162.7,86.5,162.7z M85.9,161.5
		c-0.1,0-0.2-0.1-0.2-0.3s0.1-0.2,0.3-0.2c0.1,0,0.2,0.1,0.2,0.2C86.1,161.5,86,161.6,85.9,161.5C85.9,161.6,85.9,161.6,85.9,161.5
		L85.9,161.5z M85.5,160.4c-0.1,0-0.2-0.1-0.2-0.2c0,0,0,0,0,0c0-0.1,0.1-0.2,0.2-0.2c0.1,0,0.2,0.1,0.3,0.2
		C85.7,160.3,85.6,160.4,85.5,160.4C85.5,160.5,85.5,160.5,85.5,160.4L85.5,160.4z M87.5,159c-0.2,0-0.3-0.1-0.3-0.3
		c0-0.2,0.1-0.3,0.3-0.3c0.2,0,0.3,0.1,0.3,0.3C87.7,158.9,87.6,159,87.5,159C87.5,159,87.5,159,87.5,159z M88.9,159.4
		c-0.1,0-0.3-0.1-0.3-0.3c0-0.1,0.1-0.3,0.3-0.3c0.1,0,0.3,0.1,0.3,0.3C89.2,159.3,89.1,159.4,88.9,159.4L88.9,159.4z M92.9,159.9
		c-0.1,0-0.2-0.1-0.2-0.2c0-0.1,0.1-0.2,0.2-0.2c0.1,0,0.2,0.1,0.2,0.2C93.2,159.8,93.1,160,92.9,159.9
		C92.9,160,92.9,160,92.9,159.9L92.9,159.9z M93.9,159.9c-0.1,0-0.2-0.1-0.2-0.2c0-0.1,0.1-0.2,0.2-0.2c0.1,0,0.2,0.1,0.2,0.2
		C94.2,159.8,94.1,159.9,93.9,159.9C93.9,159.9,93.9,159.9,93.9,159.9L93.9,159.9z M90.3,156.2c-0.1,0-0.3-0.1-0.3-0.2
		c0-0.1,0.1-0.3,0.2-0.3c0,0,0.1,0,0.1,0c0.1,0,0.3,0.1,0.3,0.2C90.6,156,90.5,156.2,90.3,156.2C90.4,156.2,90.3,156.2,90.3,156.2z
		 M90.6,157.4c-0.1,0-0.2-0.1-0.2-0.2c0-0.1,0.1-0.2,0.2-0.2s0.2,0.1,0.2,0.2C90.8,157.3,90.7,157.4,90.6,157.4z M91.2,161.9
		c-0.1,0-0.2-0.1-0.2-0.2c0-0.1,0.1-0.2,0.2-0.2c0.1,0,0.2,0.1,0.2,0.2C91.4,161.8,91.3,161.9,91.2,161.9
		C91.2,161.9,91.2,161.9,91.2,161.9"/>
	
		<path id="path202" style="clip-path:url(#SVGID_00000054260839188176427680000004936443589223099833_);fill-rule:evenodd;clip-rule:evenodd;fill:#FFFEFE;" d="
		M85.4,158.9c-0.5,0-0.8-0.4-0.8-0.8c0-0.5,0.4-0.8,0.8-0.8c0.4,0,0.8,0.4,0.8,0.8C86.3,158.5,85.9,158.9,85.4,158.9z M91,160.2
		c-0.5,0-0.8-0.4-0.8-0.8c0-0.5,0.4-0.8,0.8-0.8c0.4,0,0.8,0.4,0.8,0.8C91.8,159.8,91.5,160.2,91,160.2C91,160.2,91,160.2,91,160.2"
		/>
	
		<path id="path204" style="clip-path:url(#SVGID_00000054260839188176427680000004936443589223099833_);fill-rule:evenodd;clip-rule:evenodd;fill:#FFFEFE;" d="
		M95.4,158.7c-1.2,0.1-2.5,0-3.6-0.4c-0.3-2.7-0.6-4.3-2.5-4.5l-0.8,0.3c1.2,1.7,1.4,2.9,1.2,3.8c-1.1-0.1-2.2-0.3-3.3-0.7
		c-0.6-1.6,0-3-1.9-4.7c-1-0.3-1.5-0.1-1.3,0.7c0.8,0.9,1.2,2.1,1,3.4c-1.9-0.7-3.4-2.2-4.3-4V150c-0.3-0.6-0.7-1-1.1-1.1
		c-1,0-1.4-0.4-1.2-1.3c0.4-1.3,1-2.6,1.8-3.8c0.6-0.9,1-2,1.1-3.1c0.2-0.9-0.1-2.3,1.3-2.9c0.4,0.5,0.7,0.6,1.1,0.1
		c0.3-0.4,0.4-0.9,0.4-1.4c0.9-0.5,1.9-0.7,2.9-0.6c-0.6,1.4-1.4,2.7-2.5,3.8c-2.1,3.1-3.1,5.9-0.2,7.8c1.6,0.6,3.3,1,5.1,1.1
		c4.7,0.2,3.3,4.4,5.4,5.3c0.6,0.2,0.6-0.4,0-0.5c-0.6-0.4-0.7-1.2-1-1.9h2.6C96.6,153.8,96.5,156.4,95.4,158.7L95.4,158.7z
		 M91.7,160.8c0.1,0.6,0.4,1.1,0.8,1.4c0.6-0.4,1-0.8,1.4-1.4L91.7,160.8L91.7,160.8z M89.4,164.1c-1.5-1-2.6-2.6-2.9-4.4l3.5,0.8
		c0.1,1,0.5,2,1,2.9L89.4,164.1L89.4,164.1z M86.2,164c-1.5,0-3.5-1.4-5.3-2c-1,1.3-2.8,1.8-4.3,1.3c-1.4-0.3-2.8-0.3-4.2-0.2
		c-2.7,0.9-1.6,4.2,1.2,3.2c-1.4,1.9-4,1.4-5.5-1.2c-0.6,0.2-0.4,0.9-0.4,1.4c-0.5-0.5-0.8-1.2-0.9-1.9c0.7,0.1,1.1-0.2,1.1-1
		c-0.2,0.4-0.6,0.6-1.1,0.6c-1.3-0.2-2.6-0.5-3.8-1.1c-2.1-0.4-2.7,1.6-1.4,2.6c-2-0.4-1.5-4.5,3.6-5.1c1.9-0.5,3.4-1.1,4.7-0.7
		c0.5,0.2,1.1,0.7,1.4,0.6c-1.2-1.7-3.4-0.8-5.3-1.2c-1.9-0.7-2.6-2.4-2-3.4c0.2,1.7,1.8,2.4,3.7,1.9c1.4-0.5,3.2-1.3,4.8-1
		c2,0.6,0.7,3,2.3,2.7c-0.4-0.4-0.4-1-0.1-1.5c0.3-1.1-0.1-2.4-1-3.1c1.4,0.2,2.5,1.3,2.8,2.7c0.1,2.1,0.7,3.8,3.1,4.1
		c0.8,0.1,1.2-0.1,1-0.8c-0.3-1.7-0.8-2.9-0.8-5c1.2,1.4,2.8,2.5,4.6,3.1C84.4,160.8,85.1,162.6,86.2,164L86.2,164z M113.2,156.7
		v-0.5c-0.7-0.5-1.5-0.9-2.3-1.2c-0.3,1.7-0.9,3.3-1.7,4.8c0.1,1,0.2,1.9,0.1,2.9c0.1,0.9-1.5,1.2-2.8,1.4
		c4.3,0.2,11.6-1.6,12.1-3.4c-0.7-0.3-1.4-0.5-2.2-0.4c-0.4-0.1-0.3-0.5,0.3-0.5c1.3,0.2,1.7,0.6,2.8,0.7c1.3,0.2,2.7,0.3,4,0.4
		c0.7,0.5,1.7,0.5,2.4,0l1.4-1.2c0.4-0.9,0.3-2-0.2-2.9c-0.6-1.4-1-2.9-1.1-4.4c-2.4-1.5-1.7-3.5-4.2-4.6c-0.2,0.8-0.1,1.5,0.1,2.3
		c0.2,0.4,0.5,0.6,0.8,0.6c0.2,0.5,0.4,1.1-0.3,1.2c-0.6,0-1,0.3-0.2,1.1s2.3,1,2.2,2.8c-0.2,1.4,0.6,1.4,0.6,2.1l-0.2,0.1
		c-0.4-0.6-0.7-0.5-0.9,0.2c-0.2,0.2-0.4,0.4-0.5,0.1v-0.2c-2.5-0.4-3.1-1.4-5-2.3c-2.3-1.3-4-1.3-4.8,0.1l-0.1,0.5
		C113.5,157.1,113.2,157.1,113.2,156.7L113.2,156.7z M121.7,150.6l0.3-0.1c-0.8-1.1-0.2-2-0.3-2.9c-0.6-0.4-0.8-0.9-1.7-1.2
		C119.7,147.9,120.2,149.3,121.7,150.6L121.7,150.6z M121.3,151c-0.9,0.5-2.8-2.1-2.2-4.3l0.4-0.2C119.4,148.2,120,149.9,121.3,151z
		 M129.7,155.8c0.9,0.7,0.4,2.4,0.7,3.6c0.5,1.2,0,1.1,0,1.6c-0.8,1.7-1.4,1.8-1.8,3.1c-0.3,0.9-0.3,1.7-1.2,2.3
		c-1,0.2-1.4,1.3-3.1,0.5c-1.9-1.3-3.6-1.5-5.2-2.4l0.7-0.6c0-1-0.3-0.4-0.3-2.9l2.7,0.2c1.1,1.1,2.7,2,2.7,3.6
		c0.6-0.5,1.4-0.9,2.2-1c0.2-1,0.6-1.9,1.2-2.8c-0.5,0-0.5-0.4-0.4-0.9l0.4-0.4c0.2-1.2-0.2-1.4-0.1-2.7
		C128.9,156.9,128.9,156,129.7,155.8L129.7,155.8z M127.7,156.9c0.2-0.4,0.5-0.4,0.7-0.6c0.4-0.4,0.8-0.7,1.2-1
		c-0.2-0.4-0.3-0.9-0.5-1.4c-1,0.1-1.8,1-1.8,2C127.3,156.4,127.5,156.7,127.7,156.9L127.7,156.9z M127.1,155.2
		c0.2-0.9,1.1-1.6,2-1.6c0.3-0.1,0-0.4-0.2-0.6c-0.8,0.3-1.5,0.8-2,1.5L127.1,155.2L127.1,155.2z M109.1,176.1
		c2.3,1.6,0.1,4.6,2,6.1c-1-2.2-0.6-3.8,0.3-3.6c-0.6,3.3,2.1,0.8,1.9,5.9c-0.7,0-0.8-0.4-1.2-0.6c-0.1-0.6-0.4-0.9-0.4-1.5
		c-0.2,0.5,0.1,0.9,0,1.4c-1.8-0.3-2.9-2-2.6-3.8c0-0.1,0-0.2,0.1-0.3c-0.6,0.8-0.7,2-0.1,2.8c-1.4-0.3-1.9-1.2-1.8-2.9
		c-0.4,0.3,0,1.6-0.3,1.9c-0.8-0.5-1.3-1.3-1.5-2.2c-0.2-0.1-0.3-0.4-0.4-0.9c-0.3-0.1-0.6-0.3-0.7-0.6c-0.7-0.7-0.9-1.8-0.4-2.7
		c-0.4,0.1-0.6,0.5-0.7,1.2c-0.6-0.9-0.8-1.9-0.5-2.9c-0.8-0.4-1.2-1.2-1.3-2.1c0.8-0.2,1.6-0.3,2.4-0.2c0,1-1.1,1-0.5,2.6
		c0.2-2.1,1-1.7,1.1-2.8c0.5-0.1,1-0.1,1.5,0.1c-0.4,2.1-1.6,2.7-1.1,6.1c0.2-1.9,0.7-3.3,1.7-3.6c0.3,0.5-0.4,0.9-0.5,1.4
		c-0.5,1.8-0.4,3.7,0.4,4.6c-0.8-2-0.4-3.5,1.2-4.2c-0.7,1-0.7,2.3,0,3.3c0.4,0.5,0.2,1.8,0.5,2.1c0.1-0.7-0.2-1.4,0.1-2.1
		C109.1,178.2,109.3,177.4,109.1,176.1L109.1,176.1z M113.2,174.2c-1.3,0.7-2,2.1-2,3.6c0.3-0.1,0.2-1.1,0.6-0.9
		c0.2,0.3,0.3,0.8,0.1,0.9s-0.7,0.3-1.3,0.8c0-1.9-1-3.2-2.3-2.9c1,0.5,0.8,0.9,0.8,1.4c0,0.7-0.7,0.9-0.9,1.3
		c-1-2.3-0.1-3.3,1.7-3.7c-1.3-0.3-2.6,0.2-3.5,1.2c0-1.8,1.4-1.5,0.9-4.1c-0.2,1.6-1,1.2-1.7,2.2c0.4-1.6,1-2,1.1-3.4
		c3.4,0,6.1,0.3,7.2,1.1C113.1,172.4,112.9,173.4,113.2,174.2L113.2,174.2z M118.6,164.8c-0.4,0.9-1,0.9-1.2,2.1
		c-0.6,0.6-1.2,1.3-1.6,2c-3-0.8-6.2-1-9.3-0.6c0.1-1.5-1-1.8-1.4-2.5C109.6,166.4,114.4,166.4,118.6,164.8L118.6,164.8z M118,169.7
		c-0.2,0.2-0.4,0.2-0.6,0c-0.1-0.2-0.1-0.4,0.1-0.5c0.2-0.1,0.4-0.1,0.5,0.1C118.1,169.3,118.1,169.5,118,169.7z M105,168.6l1-0.1
		c0-0.9-0.4-1.7-1.2-2.2C105,167,105.1,167.8,105,168.6z M103.2,166.6c0,1.1,0.8,0.8,0.8,2.2l0.6-0.2c0.2-0.9,0.1-1.8-0.2-2.7
		L103.2,166.6L103.2,166.6z M102.4,167c0.1,1.2-0.6,1.2-0.8,2.4l2.1-0.6c0-1-0.8-0.9-0.8-2.1L102.4,167z M102,167.2
		c-0.1,1.5-0.6,1.6-0.9,2.4c-0.3-0.7,0-1.2-0.3-1.8L102,167.2L102,167.2z M111.9,180.1c-0.4-0.3-0.3-1.1-0.2-1.8
		c0.3-0.1,0.6-0.1,0.8,0.1l-0.1,0.5C112.2,179,112,179.4,111.9,180.1z M120.2,173.9c0.2,0.4,0.2,0.8,0.1,1.2
		c0.4,0.6,0.9,1.1,1.5,1.4c0.6-0.3,0.9-0.9,1-1.6c-0.3-0.3-0.5,1.2-1.5,0.5c-0.2-0.3,0.5-1.1,1.1-1.2c0-1-0.8-1.9-1.6-1.5
		C120.9,173.4,120.6,173.9,120.2,173.9L120.2,173.9z M119.5,173.4c-0.3,0-0.7,0.1-0.9,0.3c-0.1-0.3-0.4-0.5-0.7-0.6
		c0.5-0.4,0.5-1.9,1.7-1.3C120.6,172.4,119.4,172.9,119.5,173.4L119.5,173.4z M117.2,174.3c0.3-0.3,0.6,0.1,0.7,0.3
		c-1.5,0.8-2.9,1.9-4.1,3.1c-0.2-0.1-0.5-0.1-0.7,0.1c-0.3-0.7-0.3-1.5-0.2-2.3c0.2-0.8,0.3-0.9,1.2-1.1
		C115.4,174.1,117.1,175.3,117.2,174.3z M121.7,175.3c0.3,0.4,0.8-0.6,0.8-0.7C122.3,174.6,121.5,174.7,121.7,175.3L121.7,175.3z
		 M120.7,177.5l-2,1.9c-0.1,0.8-0.6,1.5-1.4,1.8c-0.7-0.2-1.3-0.6-1.7-1.2c0.8-0.7,1.7,1.5,2.6-1.1c-0.2,0.1-0.4,0.4-0.6,0.3
		c-0.3-0.8-1.2-0.1-1.6,0c0.1,0.8-0.4,0.5-0.6,0.7l-0.9-0.7c0.1-0.2,0.1-0.4,0.1-0.5c1.3-1.2,2.8-2.2,4.3-3
		C119.3,176.4,120,177,120.7,177.5L120.7,177.5z M117.2,179.9c-0.4-0.1-0.8,0.1-0.9-0.5c0.1-0.1,0.3-0.2,0.5-0.2
		C116.7,179.7,116.9,179.7,117.2,179.9L117.2,179.9z M115.8,186.2c-1.1-1.3-3.2-2.1-1.6-3.7c-0.1-0.1-0.6,0.1-0.6-0.1
		c-0.5-0.8-0.6-1.8-0.1-2.6c0.5,1,1.4,1.9,2.5,2.3c-0.3,0.4-0.7,0.7-1.2,0.8C114.3,183.4,115.9,184.8,115.8,186.2L115.8,186.2z
		 M116.6,184c0.3-0.2,0.6-0.4,0.8-0.6c0.7,0.8,1.1,1.9,1.2,2.9C118,185.5,117.3,184.7,116.6,184L116.6,184z M116.1,186.2
		c-0.2-1-0.6-1.9-1.2-2.7c0-0.3,0.2-0.4,0.5-0.2C116.4,183.9,116.7,185.2,116.1,186.2L116.1,186.2z M120.3,183.7
		c-0.8-4-3.2,0.3-4.2,0.1l-0.8-0.8c1.5-0.8,1.9-0.6,3.1-1.3S121.3,182,120.3,183.7L120.3,183.7z M120.4,180.8
		c-0.4,0.5-1.4,0.2-3,1.1c0.4-0.6,1.2-0.9,1.5-1.4C119.6,180.4,119.8,180.9,120.4,180.8z M85.2,147.4c-3.8-0.7-3.3-3.6-1.9-6.2
		c0.8-1.5,2.2-2.6,2.7-3.8c1-0.2,2,0,2.9,0.5c-0.3,0.8-1.3,1.1-1.9,1.7C83.4,143,83.8,146,85.2,147.4z M86.7,135.4
		c0.2-0.4,1.5-1.7,0.5-1.7c-1.7-0.1-3.4,0.7-4.4,2c-0.1,0.2,0.2,0.5,0.4,0.3C84.3,135.6,85.5,135.4,86.7,135.4z M86.2,137.1
		c1.1-0.2,2.2,0.1,3,0.8c0.3-0.5,0.7-0.9,1.2-1.2c-1.2-0.5-2.5-0.6-3.8-0.4L86.2,137.1z M87.7,133.7c-1.3-0.8-3.7,0.2-4.9,1.6
		l-0.1-0.5c1.3-1.3,3.1-1.9,4.9-1.7L87.7,133.7L87.7,133.7z M90.4,136.3c-1.1-0.4-2.2-0.6-3.4-0.6c0-0.2,0.1-0.4,0.5-0.5
		c0.9-0.2,1.9-0.1,2.8,0.3C90.7,135.9,90.8,136.2,90.4,136.3z M116.5,185.2c0.1-0.4,0-0.7-0.1-1.1l1.1,1.4
		C117.3,185.3,116.9,185.2,116.5,185.2"/>
	
		<rect x="39.2" y="196.7" style="clip-path:url(#SVGID_00000054260839188176427680000004936443589223099833_);fill:#FFFFFF;" width="2.8" height="28.9"/>
	
		<rect x="152.1" y="196.7" style="clip-path:url(#SVGID_00000054260839188176427680000004936443589223099833_);fill:#FFFFFF;" width="2.8" height="28.9"/>
	<path style="clip-path:url(#SVGID_00000054260839188176427680000004936443589223099833_);fill:#FFFFFF;" d="M81.3,99.6
		c-12.6,0-22.9,10.2-22.9,30.5c0,25.4,18.2,50.9,40.7,50.9s40.7-25.4,40.7-50.9c0-20.3-10.2-30.5-22.9-30.5
		c-6.9,0-13.5,3.1-17.8,8.5C94.8,102.8,88.3,99.6,81.3,99.6z"/>
	<path style="clip-path:url(#SVGID_00000054260839188176427680000004936443589223099833_);fill:#FFFFFF;" d="M31.8,112.8h134.7
		c3,0,5.5,2.4,5.5,5.5v44c0,3-2.4,5.5-5.5,5.5H31.8c-3,0-5.5-2.4-5.5-5.5v-44C26.3,115.3,28.8,112.8,31.8,112.8z"/>
	<g style="clip-path:url(#SVGID_00000054260839188176427680000004936443589223099833_);enable-background:new    ;">
		<text transform="matrix(1 0 0 1 62 135.0699)" class="st22 st23 st24">Hrodna</text>
	</g>
	<g style="clip-path:url(#SVGID_00000054260839188176427680000004936443589223099833_);enable-background:new    ;">
		<text transform="matrix(1 0 0 1 63.45 162.26)" class="st22 st23 st24">Słupsk</text>
	</g>
	<path style="clip-path:url(#SVGID_00000054260839188176427680000004936443589223099833_);fill:#FFFFFF;" d="M150.6,0h29h16v16
		c0,7,0,14,0,21c-10.2,12.4-28.6,14.2-41,4S140.4,12.4,150.6,0z"/>
	<text transform="matrix(1 0 0 1 159.67 31.75)" class="st22 st23 st25">4</text>
	<text transform="matrix(1 0 0 1 169.22 31.75)" class="st22 st23 st25">1</text>
</g>
</svg>
