<svg id="Слой_1" data-name="Слой 1" xmlns="http://www.w3.org/2000/svg" viewBox="0 0 195.59 280.63"><defs><style>.cls-1,.cls-11,.cls-12,.cls-13{fill:#4153a0;}.cls-1,.cls-4{stroke:#1166b0;stroke-width:1.49px;}.cls-1,.cls-3,.cls-4{stroke-miterlimit:5.97;}.cls-2,.cls-3{fill:#fff;}.cls-3{stroke:#202020;stroke-width:0.75px;}.cls-4{fill:#1166b0;}.cls-5{fill:#202020;}.cls-10,.cls-5,.cls-6,.cls-7,.cls-8,.cls-9{fill-rule:evenodd;}.cls-6{fill:#e84431;}.cls-7{fill:#fffefe;}.cls-8{fill:#69b42e;}.cls-9{fill:#edc282;}.cls-10{fill:#fae042;}.cls-11{font-size:21px;}.cls-11,.cls-12,.cls-13{font-family:Impact;}.cls-12{font-size:24.77px;}.cls-13{font-size:20px;}</style></defs><rect class="cls-1" x="-9.21" y="-8.63" width="214.01" height="297.89"/><g id="g3564"><g id="g3503"><path id="path2644" class="cls-2" d="M95,268.83c8.7,0,17.39-.25,20.17-.75A161.58,161.58,0,0,0,138,261.89c2.77-1.06,6.18-2.33,7.56-2.82l2.53-.87V229.33l-2.59-2.67c-5.81-6-5.72-14.91.23-21l2.36-2.42,0-8.87c-.05-12.08-1-17.43-4.31-23.57-3.4-6.37-9.28-10.45-23.07-16-4.75-1.91-9.22-4-13-5.87a75,75,0,0,1-12.63-8.21,104.69,104.69,0,0,1-14.94,9.39c-1.9.9-7.44,3.3-12.33,5.32-10.82,4.48-14,6.32-17.84,10.47-6.2,6.63-7.93,12.76-8,28.23l0,9.15L44,205.38c6.19,6.38,6.38,15.26.45,21.35L42,229.33v28.92l2.52.86c1.39.47,4.79,1.72,7.57,2.78a160.24,160.24,0,0,0,22.82,6.19C77.64,268.58,86.34,268.83,95,268.83Zm.53-2.69c-17.59,0-21.26-.33-31.08-2.92-5.93-1.56-18.52-6-19.74-7-.5-.4-.67-3.72-.67-13.26V230.21l2.08-2.35c3.31-3.77,4.49-6.72,4.53-11.35s-1.39-8.14-4.73-12l-1.88-2.19v-7.16c0-12.41,1.51-19.47,5.33-25.18,3.43-5.12,7.93-7.93,22-13.64,8.58-3.48,13.73-6.17,19.46-10.18a47.65,47.65,0,0,1,4.24-2.8c.1,0,2.16,1.42,4.56,3.12,5.44,3.83,10.63,6.51,19.51,10.1,22.17,8.94,25.9,14,26.64,36.22l.31,9.41-2,2.2a17.24,17.24,0,0,0-4.78,12.16,14.85,14.85,0,0,0,4.45,11.3l2.17,2.35v12.74c0,9.56-.16,12.89-.66,13.29-.94.74-13.06,5.14-18.45,6.68C117.09,265.69,113,266.12,95.57,266.14Z"/><path id="path2640" class="cls-3" d="M94.92,255.26c1.84-4.15,2.76-8.83,4.92-12.83.37-1.15,1.54-2.54,1-3.73-1.22-.54-2.7,1-3.77.2-.87-2.67-.41-5.66-.63-8.46.18-2.71-.54-5.68.57-8.22,1-1.27,2.94.15,4.08.63,3.73,2.1,8.86,3.48,12.57.55,4.61-3.31,6.39-9,7.4-14.37.85-3.75,2.07-8.24,5.8-10.05,1.91-1,4.39,1.39,3,3.2-.83,1.47-3.34,1.4-3.71,3.12.58,2.16,3.49,2.82,5.24,1.61,4-1.59,5.51-7.22,2.59-10.4a7.37,7.37,0,0,0-5.74-2.62c-3.16-1.58-5.37-4.59-8-6.92-8.5-8.43-16.68-17.28-25.43-25.36C84.25,171.29,74.61,182.15,64.1,192c-1.2,1.09-2.5,2.28-4.23,2.1-4.84.56-7.24,6.93-4.38,10.82,1.56,2.34,5.48,3.71,7.61,1.36a1.58,1.58,0,0,0-1.36-2.54c-2-.34-3.35-3.51-1.31-4.65,2.5-1.11,5,1,5.84,3.27,2.91,5.88,2.74,13.28,7,18.43,2.53,3.12,6.61,5.37,10.63,4.1,2.85-.54,5.06-2.83,7.86-3.29,1.62.42,1.16,2.74,1.31,4-.17,4.36.19,8.82-.56,13.12-.58,1.1-2-.13-3,0-.63-.15-1.73-.12-1,.81a111.57,111.57,0,0,1,5.29,13.55A11.71,11.71,0,0,0,94.92,255.26ZM107,216.89c-3.46,0-6.67-1.37-9.84-2.64,0-9.59-.41-19.19,0-28.77,0-1.93,1.93-3.09,1.8-5.06.31-2.84-.31-5.93.61-8.63,1-.27,1.74,1.4,2.57,1.89,6.48,6.72,13,13.46,19.24,20.39.89.87,1.2,2.21,0,3.07a41.75,41.75,0,0,0-6.56,13c-1.1,3-3.06,6.51-6.66,6.72C107.78,216.87,107.38,216.87,107,216.89Zm-24,0a6.86,6.86,0,0,1-6.75-3.76c-2.16-3.8-2.71-8.36-5.24-12-1-2-2.85-3.52-3.83-5.54,5.22-6.22,11-12.08,16.59-18,2-1.93,3.84-4.2,6-5.89,1.08.89.46,2.76.75,4,0,2.73-.26,5.81,1.75,8,1.64,1.57.64,3.94.88,5.93q-.11,12.35-.24,24.68C89.68,215.42,86.48,216.85,83,216.87Z"/></g><path id="path3535" class="cls-4" d="M95.57,266.14c-17.59,0-21.26-.33-31.08-2.92-5.93-1.56-19.21-6.11-20.43-7.09V230.21l2.1-2.35c3.31-3.77,4.49-6.72,4.53-11.35s-1.39-8.14-4.73-12l-1.88-2.19v-7.16c0-12.41,1.51-19.47,5.33-25.18,3.43-5.12,7.93-7.93,22-13.64,8.58-3.48,13.73-6.17,19.46-10.18a47.65,47.65,0,0,1,4.24-2.8c.1,0,2.16,1.42,4.56,3.12,5.44,3.83,10.63,6.51,19.51,10.1,22.17,8.94,25.9,14,26.64,36.22l.31,9.41-2,2.2a17.24,17.24,0,0,0-4.78,12.16,14.85,14.85,0,0,0,4.45,11.3l2.17,2.35v26c-.93.74-13.72,5.14-19.11,6.68C117.09,265.69,113,266.12,95.57,266.14Z"/><path id="path3531" class="cls-3" d="M95.19,256.32c2.46-10.5,3-10.78,6.52-17.62-3.32,0-5.31,1.52-5.31,5.21V220.42c2.43,0,7.64,4.54,12.46,4.43a7.53,7.53,0,0,0,4.83-1.45c4.61-3.31,6.39-9,7.4-14.37.85-3.75,2.33-9.61,6.34-10.67,3.09-.81,3.81,1.35,3.36,3.59-.73,3.54-4.2,1.72-4.1,3.42.11,2.18,2.8,2.47,4.7,1.54a7.39,7.39,0,0,0,4.21-6.23,6.14,6.14,0,0,0-1.62-4.17c-1.38-1.79-4.54-2-6.72-2.08L95.13,161.61l-31.95,32.7c-6.46-.55-9.93,4.54-7.47,10.23,1.56,2.34,5.26,4,7.39,1.69,1-1.11-.31-2.35-1.58-2.32-2-.35-3.13-3.73-1.09-4.87,2.5-1.11,6,1.32,7,3.49,2.74,5.95,2.11,12.6,6.39,17.77C76,222.91,78.76,225,82,225c3.44.05,7.75-3.62,12-4.61v23.49c0-3.85-2.16-5.18-5.31-5.18C91.84,244.66,92.3,245.28,95.19,256.32Zm12.34-38.66c-3.46.07-8-1.59-11.13-2.86V184.14l2.42-2.61V169.47L124,195.65c-4.6,3.15-6.6,9.53-8,14.3C114.81,213.81,111.65,217.58,107.53,217.66Zm-24.45,0c-4.4.17-6.74-3.78-8.19-7.38-2-5-4.66-10.91-8.83-14.61l25.38-26.18v12l2.45,2.71v30.61C90.66,216,86.58,217.5,83.08,217.64Zm15.7-38-2.08,1.77m2.08-5.55-2.08,1.77M98.78,172,96.7,173.8m2.08-4.64-2.08,1.77m-3.07,0-2.08-1.77M93.63,174l-2.08-1.77m2.08,5.33-2.08-1.77m2.08,5.4-2.08-1.77"/></g><path class="cls-2" d="M43.79,11.56v75c0,29.5,24.26,53.55,54,53.55s53.91-24,54-53.46h0l0-75.06Z"/><path id="path14" class="cls-5" d="M146.74,86.07c0,27.32-22.5,49.6-50.06,49.6S46.55,113.35,46.55,86V16.43H146.76l0,69.64"/><path id="path16" class="cls-6" d="M149.89,86.15a52.27,52.27,0,0,1-104.53-.09V12.87H149.91l0,73.28ZM119.8,75.25A14.17,14.17,0,0,0,117,75c-.38,0-.75,0-1.1,0l1.23-9.89,2.66,10.11ZM104.4,39.71a15.17,15.17,0,0,0,3.37-1.49,19,19,0,0,0,1.93-1.36,1.92,1.92,0,0,0,.85-1.63,9.05,9.05,0,0,1-.09-4.17,8.55,8.55,0,0,1,3.2-4.56,16.86,16.86,0,0,1,6.76-2.42c1.25-.22,2.53-.26,3.78-.44a2.7,2.7,0,0,0,1.33-.39c.09-.08.24.48.06.73a8.84,8.84,0,0,1,3.09-.31,14.66,14.66,0,0,0,3.77-.58,5.36,5.36,0,0,0,1.08-.41c.05,0,.19.29.08.62a26.16,26.16,0,0,1,3.31-.94,23.16,23.16,0,0,1,4.91-.95,11.34,11.34,0,0,1,2.84.3,1.44,1.44,0,0,1,.7.39,1.91,1.91,0,0,1-.35.61,7.63,7.63,0,0,1-2.46,1.85,18.38,18.38,0,0,1-3.23,1.24,15.31,15.31,0,0,1,3.58.64c.41.12,1.14.46,1.14.58s-.58.72-1,1a16.81,16.81,0,0,1-3,1.52,23,23,0,0,1-4.75,1.21,22.38,22.38,0,0,1,3.52.79,7.36,7.36,0,0,1,1.75.7c.27.16.73.5.73.61s-.55.41-.9.57a13.25,13.25,0,0,1-3.16,1,31.54,31.54,0,0,1-3.52.35c-.76.06-1.56.14-2.32.13a35.39,35.39,0,0,1,3.38,1.27,10.86,10.86,0,0,1,2,1.23c.29.23.79.63.76.78s-.84.45-1.27.54a23,23,0,0,1-4.83.44c-1.36,0-2.84-.29-4.19-.47,1,.54,2.19,1.07,3.18,1.72a11.45,11.45,0,0,1,2.15,1.91c.23.24.66.72.62.79a4.47,4.47,0,0,1-1.23.17,19.08,19.08,0,0,1-4.4-.26c-1.43-.22-2.81-.7-4.21-1a20.69,20.69,0,0,1,2.72,2.19,10,10,0,0,1,1.58,2,2.74,2.74,0,0,1,.39,1c-.06.11-.74.14-1.09.13a11.29,11.29,0,0,1-4.09-.91c-1.28-.53-2.46-1.21-3.73-1.81a25.07,25.07,0,0,1,2.46,2.28A7.67,7.67,0,0,1,122.87,49a2.75,2.75,0,0,1,.18,1.09,4,4,0,0,1-1.31,0,8.82,8.82,0,0,1-2.82-.84,6.79,6.79,0,0,1-1.25-.77,10.86,10.86,0,0,1,1.17,2.62,1.94,1.94,0,0,1,0,1,5.9,5.9,0,0,1-1.22-.11,4.71,4.71,0,0,1-2.33-1c-.56-.47-1.12-1-1.71-1.51a16.56,16.56,0,0,1,.79,1.64,6.68,6.68,0,0,1,.44,1.76,2.63,2.63,0,0,1-.09.79,4,4,0,0,1-1.16-.2,9.52,9.52,0,0,1-2.88-1.91A20.19,20.19,0,0,1,108.25,49a2.2,2.2,0,0,0-.31-.15c0,.24.11.48.17.72.34,1.18.54,2.3.82,3.48.16.67.34,1.29.44,1.91a2.35,2.35,0,0,1,1.26-.2c.56.13.64.76.77.71.46-.19.93-.31,1.36-.46,1.11-.38,2.17-.77,3.26-1.19s2.12-.83,3.2-1.23c.34-.13.72-.46.9-.22a7.94,7.94,0,0,0,1.72-.93c.72-.56,1.44-1.08,2.13-1.65s1-.35,1.84-.11c.52.15,1.12.34,1.57.5a1.75,1.75,0,0,1,1.11,1.23,3.33,3.33,0,0,1,.35,1.62c-.08.51-.22,1-.5,1.19,0,.07,0,.13,0,.19a4.64,4.64,0,0,1-.45,1.64,11.54,11.54,0,0,0-.19,2.57,8.14,8.14,0,0,0,.23,2.62,5.87,5.87,0,0,0,.24.63c1.31.09,2.57.27,3.41.37,1.64.19,4,.53,4.76.51s.8-.42,1.06-.88a1.46,1.46,0,0,1,1.27-.71c.62-.06.09,1.23-.37,2a1.93,1.93,0,0,1-1.08,1l3.43,11.41c.46.2.72.43.72.68h0c0,2-2.07,3.72-4.61,3.72s-4.61-1.67-4.61-3.72h0c0-.33.45-.62,1.19-.85l3-11.15c-1,0-3.2-.27-5-.33-1.37-.06-2.43-.06-3.37-.06,0,.07-.06.14-.08.2a12.09,12.09,0,0,1-1.08,2.5,12.89,12.89,0,0,1-1.12-2.51c0-.06,0-.12-.08-.19-.93,0-2,0-3.32.06-1.77.06-4,.3-5,.33l3,11.15c.74.23,1.19.52,1.19.85h0c0,2-2.07,3.72-4.61,3.72s-4.61-1.67-4.61-3.72h0a.63.63,0,0,1,.34-.48l3.81-11.61a2,2,0,0,1-1.08-1c-.46-.76-1-2-.37-2a1.46,1.46,0,0,1,1.27.71c.26.46.31.87,1.06.89s3.12-.33,4.76-.51c.84-.1,2.08-.29,3.38-.38a2.85,2.85,0,0,0,.22-.6,11.06,11.06,0,0,0,.28-2.64,11.67,11.67,0,0,0-.19-2.58c-.14-.49-.36-.83-.43-1.25a2.21,2.21,0,0,0-.81,0c-.23,0-.43.07-.67.1a6.49,6.49,0,0,1-1.46.05c-.15,0-.41-.05-.61-.05s-.31.12-.42.15-.16.26-.3.37c-.71.56-1.29,1-2,1.52-1.15.81-2.25,1.68-3.45,2.43A27,27,0,0,1,112.45,61c-.07,0,.2.43-.07.67s-.75.15-.83.21a9.16,9.16,0,0,1-2.69,1.5c-.78.24-1.29.17-1.69-.44a5.8,5.8,0,0,1-1.08-2.53c0-.18-.34-.23-.53-.53s.18-.35.13-.44c-.63-1.24-1.12-2.29-1.76-3.5-.45-.85-.91-1.68-1.26-2.53s-.24-.77-.44,0c-.6,2.17-1.32,4.14-2.07,6.19a1.14,1.14,0,0,0,0,1.15c.22.46.48,1,.7,1.45a.61.61,0,0,1-.18.64,10.58,10.58,0,0,0,.44,1.08,15.68,15.68,0,0,0,1.19,1.67.43.43,0,0,1-.06.62c.21.45.49,1,.73,1.41a3.76,3.76,0,0,0,1,1c.19.14,0,.39-.15.53a12.28,12.28,0,0,0,.75,1.38c.36.62.65.65.68,1.06,0,.13-.22.29-.4.4l0,0a13.61,13.61,0,0,1,1.33,2.64c.32.86.51,1.45.83,2.33a3.28,3.28,0,0,1,.93.76,3.6,3.6,0,0,1,.5,1.38c.12.61.15.64.56,1a5.54,5.54,0,0,1,2,3.29,7.16,7.16,0,0,1-.69,3.75,1.91,1.91,0,0,0-.07,1.35,7.69,7.69,0,0,1,.18,1.85,1.9,1.9,0,0,1-.18.52c0,.59.1,1.19.11,1.79,0,1,0,1.92-.06,2.88,0,1.41,0,2.85.1,4.26.06,1.21.24,2.41.41,3.61.09.65.22,1.27.36,1.91,0,.07,0,.14,0,.21l1.2.78a7,7,0,0,0,1.27.66,3.59,3.59,0,0,1,1.51,1.51,4.75,4.75,0,0,1,.43,1.8,3.47,3.47,0,0,0,.24,1.11c.85-.11,1.58-.26,2.14-.38.73-.15,1.78-.13,2.24-.22l.72-.19a.75.75,0,0,0,.12-.8c-.2-.49-.4-1.12-.63-1.76s-.78-2.68-.88-3.11c-.17-.72-.14-.73-.49-.93a4.18,4.18,0,0,1-.7-.46A3.65,3.65,0,0,1,118,103a8,8,0,0,1-.86-1.42,1.86,1.86,0,0,0-.66-.8,3.35,3.35,0,0,1-.6-.54,1.41,1.41,0,0,0-.71-.36c-.25-.06-.35,0-.49-.12s-.09-.36-.17-.4a.88.88,0,0,0-.71,0c-.28.15-.54.18-.46-.11.15-.49.26-.72.65-.9a1.44,1.44,0,0,1,.51-.15c.16,0,.21-.1.29-.22a.56.56,0,0,1,.78-.15c.12.09.21.17.28.21s.28.07.22-.09a.75.75,0,0,0-.22-.26c-.3-.25-.46-.45-.34-.69a.3.3,0,0,0,0-.33.46.46,0,0,0-.4-.26c-.39,0-1-.16-.54-.52a1.52,1.52,0,0,1,1.27-.34c.21,0,.43.06.59.06s.33-.14.47-.17.26,0,.45.25c.07.1.17.23.22.23s.14-.1.13-.23a.83.83,0,0,0-.18-.35,1.18,1.18,0,0,0-.46-.34c-.21-.08-.36-.26.05-.38a1.19,1.19,0,0,1,1.15.12,3.22,3.22,0,0,1,.44.5c.12.13.23.1.33.14.3.09.4.23.46.61a2.89,2.89,0,0,0,.49,1,10.09,10.09,0,0,1,.6.83c.18.37.11.5.26.84.05.13.07.2.1.19a1.33,1.33,0,0,1,.31-.33,1,1,0,0,1,.94-.23,1.82,1.82,0,0,1,.86,1.13,1.25,1.25,0,0,1-.4,1.09c-.27.25-.28.32-.18.72.21.84.52.8.77,1.43s.58,1.33.89,2.09a16.33,16.33,0,0,0,1.11,2.32,11.42,11.42,0,0,0,1.19,1.32l.07.08c.39-.22.73-.44.94-.59.56-.41,1.76-1.87,2.09-2.17a2.49,2.49,0,0,0,.79-1c.2-.47.95-1,1.26-1.57.2-.39.23-.68.35-.94a2.91,2.91,0,0,0-.15-.56l-.35-.66-.68-.6A10.56,10.56,0,0,0,129,99c-.71-.39-1.46-.69-2-1.08s-1.22-.7-1.79-1.05-.43-.59-.85-.78-1.45-.31-1.65-.79-.54-1.29-.06-1.32l.58,0c0-.22,0-.44,0-.66a13.29,13.29,0,0,1-2-.82,3.67,3.67,0,0,1-1.11-1,2.48,2.48,0,0,1-.65-1.74c.1-.72.36-.5.52,0s.8.8,1.31,1a17.63,17.63,0,0,0,2.09.57.13.13,0,0,1,0-.06,7.82,7.82,0,0,1,0-1.18,8.34,8.34,0,0,1,.1-.84c-.64-.31-1.06-.74-.85-1.16a.7.7,0,0,1,.24-.32,3.42,3.42,0,0,0,.84-1c.33-.47.68-.94,1.16-1s.53-.38.78-.6a.86.86,0,0,1,.93-.17c.33.12.43.32.67.43a1.9,1.9,0,0,1,1,.06,2.79,2.79,0,0,1,.91.51,6,6,0,0,0,1.26,1c.35.17.63.15,1.36.41a13.71,13.71,0,0,1,1.51.69c.3.14,1.05-.3,1.6-.18s.75.42,1.12.69a2.7,2.7,0,0,1,1.81.65c.3.28.48.65.73.77a1.65,1.65,0,0,1,1.22.11c.08-.15.24-.48.41-.8a5.29,5.29,0,0,1,.79-1.18c.4-.42.57-.75.87-1.1s.75-.24.71.31-.2,1.46-.24,2a14.2,14.2,0,0,1-.21,1.58c0,.19-.09.5-.11.59a3.15,3.15,0,0,0,.48-.18,15.23,15.23,0,0,0,1.58-1c.41-.36,1-.74,1.49-1.11.91-.63,1.3-.49,1.22.3a9.86,9.86,0,0,1-.43,2.2c-.24.71-.69,1.68-.93,2.48a4.41,4.41,0,0,1-1,1.8,2.66,2.66,0,0,1-1,.55,1.18,1.18,0,0,0,0,.55,5.93,5.93,0,0,0,.66,1.78c.32.63.49,1,0,1.33a12.85,12.85,0,0,1-1.29,1c-.45.27-.52.4-.47,1.11s.09,1.56.13,2.19c0,.78.08,1-.45,1.35S140.5,107,140,107.29a1.63,1.63,0,0,0-.63,1.36c-.05.55-.09,1.64-.17,2.51s0,1.13-.79,1.39-1.38.45-1.73.58a1.51,1.51,0,0,0-1.07,1c-.13.77-.38,1.81-.56,2.81s-.36,1.09-1.24,1.35a17,17,0,0,1-2,.46c-.81.13-1.11.37-1.11.92a8.05,8.05,0,0,1-.07,1.23c-.06.41-.09.56.19.88.44.48.08,1.19-.3,1.58a4.8,4.8,0,0,1-1.82,1,2.59,2.59,0,0,0-1.47,1,4.79,4.79,0,0,1-2,1.38,3,3,0,0,0-1.28.91,5.29,5.29,0,0,1-1.56.83c-.64.27-.55.41-.82.91a4.09,4.09,0,0,1-1.46,1.07,8.57,8.57,0,0,1-2,.67c-1.1.2-1.78,0-2.84.56s-8.25,1.93-11.28,2c-3.27.09-6.51.68-8.35.64s-7.15-.84-9.44-1a59.9,59.9,0,0,1-10.46-2c-1.72-.59-3.65-1.79-3.67-3.11a1.45,1.45,0,0,1,.65-1.38c1.06-.53,1,0,.65.37s0,1.19.59,1.56a3.92,3.92,0,0,0,2.06.6,4.07,4.07,0,0,0,2-.52h0a12,12,0,0,1-1-.82,13.57,13.57,0,0,0-3.7-2.16c-1.53-.61-4.2-2.15-6.77-3.59A32.7,32.7,0,0,1,59,116.69,17.5,17.5,0,0,1,54.75,110a18.42,18.42,0,0,1-.84-7.57A12.51,12.51,0,0,1,55.71,97a9.57,9.57,0,0,1,4.81-4.22,19.5,19.5,0,0,1,6.76-1.37A7.11,7.11,0,0,0,64.55,89a41,41,0,0,0-6.46-2.51,10.75,10.75,0,0,1-4.31-2.21,4.3,4.3,0,0,1-1.43-4c.58-2,1-1.22.92-.3a2.54,2.54,0,0,0,.51,1.94A4.12,4.12,0,0,0,57,83.66c1.54.17,3.85.51,5.34.82a13.23,13.23,0,0,1,4.2,1.64A13.58,13.58,0,0,1,70,89c.63.79,1.54,1.85,2.31,2.91,1.16.21,2.1.41,3,.61s1.55.4,2.4.57c0-.11,0-.22,0-.33.11-.78.28-1.55.46-2.32.1-.45.24-.88.34-1.31,0-.2,0-.4-.06-.56a2.93,2.93,0,0,1,.12-1.09,1.37,1.37,0,0,0-.06-.91,4.52,4.52,0,0,1-.31-2.38,4.29,4.29,0,0,1,1.13-2.58,1,1,0,0,0,.29-.65.86.86,0,0,1,.09-.3s0-.08,0-.12a47.58,47.58,0,0,1,.93-5.42c.15-.59.27-1.09.42-1.68a5.09,5.09,0,0,1-.82-.53c-.19-.14-.48-.43-.47-.62s.26-.26.53-.73.61-1,.79-1.45c0,0-.19-.17-.27-.26s.27-.37.38-.57a6.76,6.76,0,0,0,.55-1c.28-.7.53-1.49.81-2.16-.1-.09-.3-.19-.28-.35a2.53,2.53,0,0,1,.39-.79c.23-.46.39-1,.6-1.39s.49-1.06.75-1.65c-.3-.19-.2-.53,0-1a6.43,6.43,0,0,1,.84-1.26c.43-.53.56-.5.48-1.43-.06-.66-.13-1.24-.2-1.85a44,44,0,0,1-.39-4.71c0-.27,0-.89,0-.84A14,14,0,0,0,83.7,52c-.92,1.09-1.79,2.2-2.75,3.22-.71.74-1.55,1.41-2.27,2.07,0,0,.2.31.07.49s-.46.18-.47.3a13.8,13.8,0,0,1-.39,2.24,1.14,1.14,0,0,1-1.17.9c-1.23,0-1.74,0-2.14,0-.09,0-.36.45-.55.49-.37.1-.57-.19-.61-.15a20,20,0,0,1-4.63,2.75c-1.4.62-2.72,1.32-4.11,2-.14.06-.29.18-.45.26s-.2.11-.24,0-.15,0-.19.13a2,2,0,0,1-.19.31,2.1,2.1,0,0,1-.76.67,6.45,6.45,0,0,1-1.22.37c.09.54.15.88.22,1.37a1.3,1.3,0,0,1,.66.78,1.72,1.72,0,0,1-3.25,1,1.3,1.3,0,0,1,.14-1c-.09-.2-.53-1.07-.62-1.28a3,3,0,0,1-.42,0,.61.61,0,0,1-.56-.47c-.09-.21-.12-.3-.06-.41s0-.09-.11-.09a.67.67,0,0,1-.59-.47c-.13-.31-.21-.47-.06-.65s.1-.09,0-.11-.32-.34-.37-.67-.07-.5.14-.69.12-.06-.05-.11-.2-.3-.17-.68a.8.8,0,0,1,.61-.8l-.1-.37c-1.39.32-2.8.56-4.19.8L52,62.12a12.61,12.61,0,0,0,3.83,0l.36-.08L55.86,61l-7-25.2c-.73-2.59-.34-6.87-.06-6.95s2.9,3.33,3.67,5.9l7.52,25.07.32,1.08.34-.15a12.63,12.63,0,0,0,3.24-2l.4,2.18c-1.3.54-2.63,1.09-4,1.56,0,.08,0,.15.07.23a3.5,3.5,0,0,1,1.29.16c.09,0,.42,0,.53.1s.22.06.25,0a.35.35,0,0,1,.25-.25,9,9,0,0,0,2.24-1.12c1.24-.79,2.36-2.08,3.54-2.95s2.2-1.68,3.37-2.63c.06,0-.36-1.17.45-1.88s1.75,0,1.8-.1c.58-.7,1-1.61,1.57-2.37.3-.43.6-.84.9-1.25a7.34,7.34,0,0,1,.7-1.47,13.24,13.24,0,0,1,1.08-1.47c-.68.36-1.33.82-2,1.18a4.71,4.71,0,0,1-2.47.57A6.27,6.27,0,0,1,72.65,49a2,2,0,0,1,.17-1,10.85,10.85,0,0,1,1.62-2.36,6.17,6.17,0,0,1-1.37.53,8.71,8.71,0,0,1-2.91.32,4.24,4.24,0,0,1-1.29-.28,2.85,2.85,0,0,1,.37-1,8.08,8.08,0,0,1,1.59-1.9,26.88,26.88,0,0,1,2.83-1.8c-1.35.36-2.63.81-4,1.11a11.18,11.18,0,0,1-4.19.16c-.35-.06-1-.21-1-.33a2.88,2.88,0,0,1,.57-.92,10.35,10.35,0,0,1,1.92-1.7A20.2,20.2,0,0,1,70,38.16c-1.44.09-2.89.32-4.34.28a19.93,19.93,0,0,1-4.36-.53,4.5,4.5,0,0,1-1.18-.4c0-.08.48-.46.74-.67a11.52,11.52,0,0,1,2.47-1.49c1.08-.46,2.33-.76,3.43-1.12a41.91,41.91,0,0,1-4.2-.29,23.06,23.06,0,0,1-4.68-1.3c-.41-.16-1.15-.61-1.15-.76s.56-.46.89-.63a10.8,10.8,0,0,1,2.19-.85,33.46,33.46,0,0,1,3.55-.64,22.53,22.53,0,0,1-2.26-.55,29.9,29.9,0,0,1-3.39-1,13.39,13.39,0,0,1-2.93-1.58c-.31-.21-.82-.59-.79-.72a2.32,2.32,0,0,1,.83-.47,7.31,7.31,0,0,1,1.86-.37A21.57,21.57,0,0,1,60.26,25a23.5,23.5,0,0,1-4.45-2,16.41,16.41,0,0,1-2.66-2,2.87,2.87,0,0,1-.78-1.12,2.8,2.8,0,0,1,1.23-.36,14.77,14.77,0,0,1,3.64,0,18.18,18.18,0,0,1-3-1.8,7.5,7.5,0,0,1-2.09-2.26,1.75,1.75,0,0,1-.24-.67,1.51,1.51,0,0,1,.76-.26,11.24,11.24,0,0,1,2.84.22,24.13,24.13,0,0,1,4.67,1.81A26.77,26.77,0,0,1,63.31,18c0-.35.14-.64.19-.6a4.66,4.66,0,0,0,1,.6,15,15,0,0,0,3.61,1.25,8.63,8.63,0,0,1,3,.86c-.13-.28.11-.8.19-.7a2.79,2.79,0,0,0,1.24.62c1.2.4,2.45.67,3.64,1.11a17.2,17.2,0,0,1,6.21,3.59,8.48,8.48,0,0,1,2.32,5.07,9,9,0,0,1-.83,4.09,1.89,1.89,0,0,0,.54,1.75A19,19,0,0,0,86,37.31l.07.06.06-.19a1.38,1.38,0,0,1,1.1-.79,1.83,1.83,0,0,1,1.27.71,14.47,14.47,0,0,1,1.24,1.8c.19.3-.17-1-.13-1.46s.23-1,.25-1.52a11.34,11.34,0,1,1,14.24,2.8,1.16,1.16,0,0,1,.22.7,2.48,2.48,0,0,0,0,.29Zm29.71,35.52a13.46,13.46,0,0,1,2.45-.24l.1-9.74-2.55,10ZM137.2,75a12.89,12.89,0,0,1,2.65.32l-2.62-9.37,0,9Zm-21.89.09a9.43,9.43,0,0,0-1.82.36l3-9.6-1.15,9.24Zm10.41-21.67a1.29,1.29,0,0,1,1.18-.61h0a1.46,1.46,0,0,1,.44.06h0c0-.21-.4-.76-.4-1a3.31,3.31,0,0,0-1.2-.07c-.43.07-.59.59-.59,1s.21.45.53.57l0,0ZM80.83,110.64c.39-.5,1.08-1.49,1.62-2.25a19.07,19.07,0,0,0,1.77-3.27,8.93,8.93,0,0,1,.4-1.09c0-.19,0-.4,0-.53a1.84,1.84,0,0,1,.83-1.22,7.7,7.7,0,0,1,1.63-.65c.24-.08.45-.14.65-.22s.24-.22.35-.34.33-.18.44-.39a2.28,2.28,0,0,1,.56-.62c.36-.26.47-.31.55-.5s-.13-.3-.2-.61a.55.55,0,0,1,.21-.66c.21-.11.29-.2.32-.35a.65.65,0,0,0-.11-.63c-.21-.21-.32-.28,0-.41a1.11,1.11,0,0,1,1,0c.34.16.53.3.62.6s.11.35.26.35a.24.24,0,0,1,.27.22.38.38,0,0,0,.05.17c.07-.13.24-.1.31-.18a.72.72,0,0,0,.13-.55.81.81,0,0,0-.18-.55c-.18-.21-.17-.34.22-.31a1.12,1.12,0,0,1,.85.44,1.34,1.34,0,0,1,.33,1c0,.29,0,.34,0,.49s.3.27.29.53a1.31,1.31,0,0,1-.06.29.36.36,0,0,0,.45-.08.62.62,0,0,0,.19-.58c0-.29,0-.41.32-.21a1,1,0,0,1,.56.71,1.37,1.37,0,0,1-.07.86c-.16.23-.21.27-.18.53a1,1,0,0,1-.09.67,2.29,2.29,0,0,1-.69.56,5.1,5.1,0,0,0-.78.58,1.8,1.8,0,0,1-.9.59,5.34,5.34,0,0,0-1.07.5,6.94,6.94,0,0,0-1.06.79,5.91,5.91,0,0,1-1.16.83,5.6,5.6,0,0,0-1.11,1.06,6.06,6.06,0,0,1-.44,1.09,15.37,15.37,0,0,0-.66,1.78c-.17.56-.42.91-.56,1.45a1,1,0,0,0,.14.74,16.2,16.2,0,0,1,1.7-.18c1.73-.1,3.37-.64,5.43-.8h0a27.07,27.07,0,0,1,4.67-.06c1,.18,4.22.36,5.14.55s1.49.18,1.94.27a1.42,1.42,0,0,1-.38-1,9.19,9.19,0,0,1,.21-2.14,11.16,11.16,0,0,0,.32-1.76,1.9,1.9,0,0,0-.36.32,1.3,1.3,0,0,0-.26.7,1,1,0,0,1-.39.6.66.66,0,0,1-.52,0,.6.6,0,0,0-.55.24,1.5,1.5,0,0,0-.32.81c.06.38-.25.34-.47.19a1.53,1.53,0,0,1-.47-.48,1.22,1.22,0,0,1-.08-1c.12-.21,0-.38,0-.49a1,1,0,0,1-.36-.09,1.18,1.18,0,0,0-.49.3.88.88,0,0,0-.21.53c0,.21-.17.17-.38-.11a1.32,1.32,0,0,1-.24-.85A1.91,1.91,0,0,1,101,106a.29.29,0,0,0,0-.27.42.42,0,0,1,0-.38c.11-.33-.21-.25-.41-.18a.8.8,0,0,0-.5.6c-.06.29-.38-.1-.43-.47a1.48,1.48,0,0,1,.15-1,2.08,2.08,0,0,1,.57-.58c.21-.14.16-.39.32-.55a1.32,1.32,0,0,1,.68-.27,7.72,7.72,0,0,1,1-.15c.34,0,.73,0,1,0a9.87,9.87,0,0,0,1.2-.14,3.47,3.47,0,0,0,.84-.37c-.18-.58-.39-1.16-.61-1.73-.33-.86-.66-1.69-.91-2.57a33.94,33.94,0,0,1-.89-3.54,20.73,20.73,0,0,1-.3-3.14,19,19,0,0,1,.2-2.91.25.25,0,0,1,0-.08c-.78,0-1.3-1.14-1.51-1.8s-.35-1.75.23-2.14a.66.66,0,0,1,.32-.08c-.23-.29-.46-.58-.71-.86a31.15,31.15,0,0,1-2.47-3.18C98,79.12,97.28,78,96.62,76.8c-.3-.52-.59-1-.85-1.59h0a11.22,11.22,0,0,1-2.64.22c-.76,0-1.51-.34-2.23-.37h-.06c-.25.88-.52,1.73-.82,2.59-.49,1.46-.95,3-1.54,4.36l-.9,2.12a.82.82,0,0,1,.27,0c.53.07.51,1.83.35,2.64s-.74,1.81-1.46,1.74a.5.5,0,0,1-.39-.39c0,.25,0,.5-.06.76-.11,1.15-.17,2.32-.32,3.47a11.24,11.24,0,0,1-.59,2.28c0,.07,0,.14-.07.21a4.14,4.14,0,0,1,2.57,2.52,2.94,2.94,0,0,1-.34,2.77,4.05,4.05,0,0,1-2.43,1.2,15.46,15.46,0,0,1-2.47.3c-.25.74-.57,1.47-.81,2.23a26.29,26.29,0,0,0-.86,3.39,17.91,17.91,0,0,0-.12,2.2c0,.41,0,.83,0,1.22ZM124.14,94a1.7,1.7,0,0,1,.55.16l.36.16c.14-.17.3-.41.4-.56v0l-.44-.07-.92-.15c0,.16,0,.33,0,.5Zm7.42,4c.23.18.46.37.7.58.63.55,1.35,1,2,.73l.1,0c-.17-.13-.35-.3-.6-.53a15.49,15.49,0,0,1-1.49-1.59,10.41,10.41,0,0,0-2.07-1.68,13.87,13.87,0,0,0-2.75-1.34c-.23-.07-.54-.14-.87-.21a3.31,3.31,0,0,1-.23.52c-.13.23-.12.43.21.35a2.19,2.19,0,0,0,.73-.2c.34-.2.45-.17.43.08s.07.3.06.47-.14.25.23.19a1.34,1.34,0,0,0,.48-.11c.33-.18.32-.11.32.07s.25.38.19.62-.11.41,0,.38.43,0,.61-.11.25-.09.41-.13.31-.1.29.15a1.57,1.57,0,0,0,.1.57c0,.16-.1.49.1.42s.39,0,.52-.08.36,0,.36.15.12.32.14.46a2.33,2.33,0,0,1,0,.29Zm-6.13-8.25v0a9,9,0,0,1-.21,1c-.09.35-.17.61-.26.88v0l-.74-.12-.14,0a6.2,6.2,0,0,1,.29-1.1c.08-.22.19-.48.29-.74l.78.11Zm.45,2,.06-.12c.11-.22.33-.62.47-1a5,5,0,0,1,.26-.64l0-.06.14,0v.12a7.61,7.61,0,0,0,.1,1c0,.28.15.48.33.34s.22-.12.49-.3.31-.16.31.08a1.57,1.57,0,0,0,.07.48.35.35,0,0,0,.29.25,1.15,1.15,0,0,0,.45,0c.18,0,.18,0,.18.18a.42.42,0,0,0,.16.41c.17.12.32.29.47.3a1,1,0,0,0,.46-.06c.16-.06.26,0,.28.23a1.89,1.89,0,0,0,.14.44c.05.18.1.25.26.25s.39.1.59.1a1,1,0,0,0,.51-.06l.09,0c.22.23.44.47.7.7a9.22,9.22,0,0,1,1.87,2.5,3.57,3.57,0,0,1,.13,1.42l-.43-.35c-.52-.47-1.15-1.15-1.74-1.8a26.78,26.78,0,0,0-2.36-2.2,14.53,14.53,0,0,0-3.07-2,8.5,8.5,0,0,0-1.25-.33Zm-49.19,9.18a12.27,12.27,0,0,1-1.8-.88A13.82,13.82,0,0,1,71,96.61c-.19-.22-.33-.43-.48-.63a12,12,0,0,0-4.41-.19,7.29,7.29,0,0,0-4.72,2.67,8.93,8.93,0,0,0-1.53,5.13A13.37,13.37,0,0,0,61.28,109a6.57,6.57,0,0,0,4,3.47,13.08,13.08,0,0,0,5.08,1.09,11.93,11.93,0,0,0,2.67-.4,10.65,10.65,0,0,1,.77-1.2c.43-.59,1-1.19,1.43-1.81a6.89,6.89,0,0,0,1.18-3.31c.15-1.44.15-2.89.24-4.33,0-.53.05-1.06.08-1.58"/><path id="path18" class="cls-7" d="M96.5,29a.78.78,0,0,0,0,.29.58.58,0,0,0,.09.28c.06.08-.08,0-.18,0a.76.76,0,0,1-.21-.19,1.3,1.3,0,0,1-.12-.21c0-.06,0-.09.1-.1a1.55,1.55,0,0,1,.35,0ZM102,30.7a.77.77,0,0,1-.14.23.48.48,0,0,1-.27.18s.1,0,.2,0a1.24,1.24,0,0,0,.27,0l.19-.07c.06,0,.09,0,0-.17s-.22-.21-.23-.18Zm-5-1a.73.73,0,0,0,.27-.15,1.29,1.29,0,0,0,.14-.18s0,0,.08.07l.12.19c0,.05.15.19,0,.17s-.17,0-.24,0l-.28,0c-.12,0-.17-.05-.11-.07Zm4.1,1.25a.76.76,0,0,1-.12-.24.56.56,0,0,1,0-.21s0,0-.1,0l-.2.09c-.07,0-.21.07-.1.13a1.73,1.73,0,0,0,.2.12,1.08,1.08,0,0,0,.24.11c.1,0,.14,0,.1,0Zm24.5,58.82c-.06.22-.11.55-.17.81s-.14.58-.25.87a4.31,4.31,0,0,0-.18.57c0,.18,0,.31.21.13a2.06,2.06,0,0,0,.57-.72c.18-.35.46-.88.55-1.11s.16-.38.15-.38A3.12,3.12,0,0,0,125.67,89.78Zm-1.93-.45c.17.08.49.18.64.23s-.07.26-.13.51-.28,1.08-.33,1.35l-.37-.06c0-.33,0-.67,0-1s0-.52.08-.7.07-.38.1-.37Zm1.54,5.06c.15.09.49.2.69.31a3.23,3.23,0,0,0,.22-.45,7.15,7.15,0,0,0,.37-1,6.11,6.11,0,0,0,.2-.94c0-.2-.09-.35-.27,0a9.12,9.12,0,0,1-.5.85c-.18.29-.32.54-.45.72a1.78,1.78,0,0,0-.26.47Zm1.8-4.28a3.84,3.84,0,0,1,.93.46c.19.13.05.15-.11.28s-.33.22-.47.35-.27.23-.3,0-.06-.56-.08-.74,0-.42,0-.39Zm1.34.69c.29.21.78.47,1.09.71a7,7,0,0,1,1.09.93s-.08,0-.31.13a2.53,2.53,0,0,1-.5.12c-.18,0-.5-.14-.52-.34s0-.37,0-.49.05-.16-.17-.08a1.65,1.65,0,0,1-.48.09c-.15,0-.36,0-.37-.23a3.19,3.19,0,0,1,0-.62c0-.14,0-.31.15-.22Zm2.41,1.78c.35.33.71.64,1,1,.11.11-.06.12-.3.14s-.28-.06-.48,0-.34-.09-.33-.28a4.7,4.7,0,0,1,0-.53c0-.18.11-.24.13-.22ZM126.54,95c.15.1.51.31.84.54s1,.62,1.28.81,1.16.5,1.39.67.17.21.19,0,0-.29,0-.58,0-.4-.2-.3a2.82,2.82,0,0,1-.58.16,1.46,1.46,0,0,1-.4,0c-.18,0-.29,0-.29-.13a2.55,2.55,0,0,0,.06-.51,1.13,1.13,0,0,0-.07-.3.42.42,0,0,1,0-.15c0-.1,0-.11-.14,0a.77.77,0,0,1-.45.16c-.18,0-.21,0-.4,0s-.2,0-.13-.16,0-.21,0-.45,0-.34-.22-.23a4.11,4.11,0,0,1-.56.19c-.21.09-.41.11-.26.2Zm4,2.37a6.19,6.19,0,0,1,.75.45c.14.13.08-.08,0-.2s0-.19-.06-.29,0-.17-.25-.11-.59.08-.48.15ZM136,90.14a1.14,1.14,0,0,0-.21.8c0,.16,0,.09-.09,0a1.42,1.42,0,0,1-.2-.41c-.06-.25,0-.31.15-.37a.5.5,0,0,1,.35,0Zm1,.72c-.06.23-.23.54-.56.55s-.2,0,0,.11a2.91,2.91,0,0,0,.58.32c.2.08.22.17.24-.08a1.58,1.58,0,0,0,0-.54.74.74,0,0,0-.19-.36ZM83,40.5a5.6,5.6,0,0,1,1.27-.87,2.65,2.65,0,0,0,1.65-1.71,13.43,13.43,0,0,1-2.35-2.43,1.62,1.62,0,0,1-.11-1.86A7.76,7.76,0,0,0,84,29.37a7.21,7.21,0,0,0-2.57-4.84,18.19,18.19,0,0,0-5.62-3.07c-1.21-.45-2.48-.74-3.69-1.13-.47-.15-.58-.51-.64-.28a1.51,1.51,0,0,0,.2,1.13,5.56,5.56,0,0,0,1.57,1.6,12.18,12.18,0,0,0,3.34,1.53,5.44,5.44,0,0,1,1.57.49,6.11,6.11,0,0,0-2.38.57,2.67,2.67,0,0,0-.89.8,2.3,2.3,0,0,0,.83.74,10,10,0,0,0,2.61.91,4.09,4.09,0,0,0-1.58.9,2.09,2.09,0,0,0-.45.6,2.6,2.6,0,0,0,.88.78,5,5,0,0,0,2,.53,5.29,5.29,0,0,0-1.77,1,2.33,2.33,0,0,0-.56.92c0,.11.46.4.71.5a3.48,3.48,0,0,0,1.94.16A9.73,9.73,0,0,0,78,34.54a2.35,2.35,0,0,0-.48.94,2.3,2.3,0,0,0,1,.43,3.92,3.92,0,0,0,2-.16A6.17,6.17,0,0,0,79.35,37c-.18.26-.46.79-.39.89a2.69,2.69,0,0,0,1,.34,4.67,4.67,0,0,0,2.2-.22,5.85,5.85,0,0,0-1,1.51,2,2,0,0,0-.17,1,2.08,2.08,0,0,0,.94.15A11.82,11.82,0,0,0,83,40.49ZM76.18,29.88c-.21,0-2.94.08-3.82,0A8.53,8.53,0,0,1,68,28.24c-.22-.17-.63-.5-.6-.58a2.63,2.63,0,0,1,.78-.39,8.05,8.05,0,0,1,3.69-.49,4.42,4.42,0,0,0,1.15,0c-.42-.17-1-.28-1.44-.42-1.89-.56-3.87-1-5.33-2.27-.2-.18-.56-.49-.55-.56a1.8,1.8,0,0,1,.79-.43,6.17,6.17,0,0,1,2.26-.2,26.12,26.12,0,0,1,2.77.43c.25,0,.65.15.8.06a4.14,4.14,0,0,0-.81-.32c-1.28-.39-2.62-.73-3.86-1.21a6.17,6.17,0,0,1-3.5-2.72,1.88,1.88,0,0,1-.2-1c0-.26.27.18.78.42a13.75,13.75,0,0,0,2.59.92c1,.25,2,.3,2.92.57.3.08.79.34.87.64a2.06,2.06,0,0,0,.39.94,10.06,10.06,0,0,0,2,1.77,12.73,12.73,0,0,0,2.06,1,7.41,7.41,0,0,1,.79.28,15,15,0,0,0-1.41.77,1.61,1.61,0,0,0-.49.63,2.21,2.21,0,0,0,.55.76,5.59,5.59,0,0,0,1.35.8c.27.11.55.18.82.28a8.9,8.9,0,0,0-.81.63c-.19.2-.55.57-.55.67a1.81,1.81,0,0,0,.44.65ZM69.5,28a3.54,3.54,0,0,0,.82.23c1.23.15,2.48.27,3.72.35.25,0,.79.07.76-.06,0-.3-.48-.29-.75-.31-1.2-.07-2.47-.12-3.69-.23-.29,0-1.14-.08-.86,0ZM67.69,23.9a1.28,1.28,0,0,0,.57.34,28.94,28.94,0,0,0,3.13.66c.64.12,1.28.26,1.92.34.16,0,.47,0,.46-.12s-.3-.23-.48-.27a17.91,17.91,0,0,0-1.92-.33c-1-.15-2-.26-2.94-.45-.24-.05-.82-.27-.74-.17ZM70.59,21a13.25,13.25,0,0,0-2.34-.54A12.29,12.29,0,0,1,66.67,20c-.17-.06-.61-.36-.51-.21a1,1,0,0,0,.45.38,9.5,9.5,0,0,0,1.65.58,16.69,16.69,0,0,1,2.15.5c.18.06.6.25.56.06S70.75,21.07,70.59,21Zm5.65,9.15c.38.2.6.26,1,.43s.5.18.74.26a3.25,3.25,0,0,0-.74.48,3,3,0,0,0-.84,1c0,.09.15.41.38.58-.71,0-1.57.06-2.29.1a10.82,10.82,0,0,1-4-.55,5,5,0,0,1-1.23-.54c0-.14.64-.46,1-.65a11.81,11.81,0,0,1,2.22-.81,22.83,22.83,0,0,1,3.79-.32Zm-5.41,1.72a2.54,2.54,0,0,0,.88.1c1.12,0,2.23,0,3.32-.07.22,0,.64,0,.61-.23s-.42-.19-.64-.18c-1.12.08-2.22.12-3.31.19-.29,0-1.07.11-.86.19Zm7.34,1.86c-.35-.1-.7-.27-1-.4a23.89,23.89,0,0,0-2.52.5,8,8,0,0,0-2.81,1.61c-.21.17-.6.48-.57.57s.44.25.68.28a17,17,0,0,0,3.26.25,12.53,12.53,0,0,0,2.3-.59,1.75,1.75,0,0,1-.44-.28,1.87,1.87,0,0,1,.18-.55,10.46,10.46,0,0,1,1-1.39Zm-5.69,2a3.18,3.18,0,0,0,.86,0,29.23,29.23,0,0,0,2.89-.63c.21,0,.64-.1.57-.3s-.47-.13-.71-.07c-1,.23-1.92.45-2.87.72C73,35.53,72.22,35.75,72.48,35.79Zm6.81.64a8.56,8.56,0,0,1-1.51-.2,13.15,13.15,0,0,0-2.22.88,5.81,5.81,0,0,0-2,1.7c-.13.16-.33.47-.29.54a1.17,1.17,0,0,0,.48.19,8.29,8.29,0,0,0,2.72-.09,18.5,18.5,0,0,0,2.94-.8,4.24,4.24,0,0,1-.66-.19,3.48,3.48,0,0,1-.43-.22,3,3,0,0,1,.18-.61,4.62,4.62,0,0,1,.75-1.2ZM74.42,39c-.15.12.41,0,.6-.09.81-.25,1.61-.51,2.39-.82.17-.06.36-.09.44-.3s-.43-.07-.64,0a24.07,24.07,0,0,0-2.26.89,2.62,2.62,0,0,0-.53.33Zm6.74-.32a3.33,3.33,0,0,1-1.13.09,9.39,9.39,0,0,0-2,1.34A8,8,0,0,0,76.55,42c-.12.22-.38.6-.35.67s.49.06.74.06a7.22,7.22,0,0,0,1.73-.31,12.9,12.9,0,0,0,1.94-.73c.39-.18.77-.35,1.15-.55A4.3,4.3,0,0,1,81,41a3.09,3.09,0,0,1-.59-.18,4,4,0,0,1,.16-1,4.56,4.56,0,0,1,.55-1.18ZM77.27,42a1.5,1.5,0,0,1,.43-.36c.56-.34,1.12-.66,1.69-1,.18-.09.55-.35.56-.24a.75.75,0,0,1-.43.62c-.54.28-1.1.55-1.65.8-.19.08-.7.3-.6.16Zm3.16,2.59c-.19.13-.46.29-.39.18a2,2,0,0,1,.42-.49l.05,0a3.43,3.43,0,0,1,.34-.85,13.26,13.26,0,0,1,1.55-2.23l-.27,0a11.33,11.33,0,0,0-1.66,1.66,8.45,8.45,0,0,0-1.06,1.9c-.07.17-.21.49-.17.51a1.61,1.61,0,0,0,.56,0l.57-.06a3.5,3.5,0,0,1,.06-.62ZM63.33,18.4a15.36,15.36,0,0,0-3-1.5,38.23,38.23,0,0,0-3.94-1.6,11.34,11.34,0,0,0-3-.46c-.24,0-.63,0-.73.08s.21.58.39.83a8.45,8.45,0,0,0,1.35,1.39,12.58,12.58,0,0,0,2.8,1.73c1.64.82,3.34,1.52,5,2.19.74.3,1.49.6,2.23.92.19.07.74.29.54.26A6.47,6.47,0,0,1,64,22c-1.12-.33-2.22-.72-3.33-1.14A13,13,0,0,0,54.44,20a8.28,8.28,0,0,0-1,.1c0,.1.4.56.66.77a16.05,16.05,0,0,0,2.67,2A31.13,31.13,0,0,0,61.82,25a36,36,0,0,0,5,1.08c.22,0,.85,0,.65.12a1.3,1.3,0,0,1-.68,0c-1.25-.14-2.52-.24-3.76-.42a28.34,28.34,0,0,0-4.69-.37,12.21,12.21,0,0,0-2.73.38c-.28.07-.8.14-.84.23s.49.36.75.52a16.73,16.73,0,0,0,3.28,1.51,35.61,35.61,0,0,0,3.66,1.06c2,.41,4,.56,6,.79a6.74,6.74,0,0,1,1.1.21c.33.12-.71.05-1.06.06-1.76.06-3.48,0-5.25.13a27.82,27.82,0,0,0-4.81,1.15c-.29.07-.82.27-.82.37s.7.39,1.08.52a19.13,19.13,0,0,0,5.11,1.1c1.9.11,3.8.11,5.72.08.77,0,1.68-.08,2.32,0a14.32,14.32,0,0,0-1.9-.65,6.37,6.37,0,0,1-1.38-.75,1.68,1.68,0,0,1,.54-.66,13.65,13.65,0,0,1,2.5-1.23,20.58,20.58,0,0,1-2.55-.76,7.32,7.32,0,0,1-2-1.29,1.21,1.21,0,0,1-.44-.58,1.76,1.76,0,0,1,.79-.62c.66-.29,1.52-.4,2.09-.63-.58-.28-1.62-.51-2.36-.93a9,9,0,0,1-2-1.57,2.78,2.78,0,0,1-.35-.54c-.07-.13.37-.38.59-.45a17.51,17.51,0,0,1,1.75-.45,11.8,11.8,0,0,1-3.12-2.13,3.87,3.87,0,0,1-.76-1.88Zm-8.52-2.53a3.5,3.5,0,0,0,.91.82c.5.31,2.65,1.23,3.43,1.59s1.78.83,2.16,1,1,.38.94.07-.42-.4-.89-.61-1.62-.77-2.24-1-2.61-1-3-1.25S54.66,15.69,54.81,15.87Zm.62,4.87c.2.12.52.38,1,.64s3,1.18,3.57,1.37l2.74.95c.42.14,1.42.6,1.28.21s-.61-.49-1.15-.68L60.1,22.3c-.7-.23-2.73-.92-3.28-1.13a7.17,7.17,0,0,0-1.39-.43Zm1.42,5.69c.23.1.87.24,1.44.39s1.89.49,3.33.75,2.3.4,3,.53,1.3.22,1.14,0-.46-.3-1.14-.42-1.84-.26-3-.42-2.61-.52-3.27-.64-1.76-.28-1.54-.17Zm2.93,5.63c.32,0,1,.11,1.68.12s3.16,0,4.16.1,2.1.15,1.81-.11a3.64,3.64,0,0,0-1.83-.32c-.78,0-3.51,0-4.08,0a6.8,6.8,0,0,0-1.74.21Zm14,1.51-3.06.48c-1.54.26-3.13.52-4.65.93a18.77,18.77,0,0,0-4.19,1.72c-.27.15-.86.42-.88.57a3.5,3.5,0,0,0,.88.25,16.28,16.28,0,0,0,3.54.46,28.8,28.8,0,0,0,4.64-.32c1.09-.17,2.15-.4,3.22-.56a8.64,8.64,0,0,1-1.74-.34,4.26,4.26,0,0,1-1.09-.54,5.31,5.31,0,0,1,.6-.91,8.57,8.57,0,0,1,1.46-1c.43-.26.82-.48,1.27-.71ZM63.39,37c.32,0,1-.09,1.5-.15s3-.34,3.5-.42,1.63-.09,1.37-.32-.84-.14-1.43-.07-2.92.4-3.4.48-1.85.5-1.54.48Zm10.7.32c-.82.3-1.65.55-2.47.84a24.7,24.7,0,0,0-3.51,1.6,11.77,11.77,0,0,0-2.27,1.63c-.26.25-.76.67-.75.76s.61.24.93.25a15.45,15.45,0,0,0,3.46-.27,32.53,32.53,0,0,0,3.9-1.06c1-.33,2-.7,2.94-1a10.84,10.84,0,0,1-2.13,0,5.85,5.85,0,0,1-1.44-.36,4.79,4.79,0,0,1,.46-1.21,9.77,9.77,0,0,1,.88-1.18Zm-7.4,4.45a15.67,15.67,0,0,0,1.73-.4c.48-.17,1.81-.71,2.31-.88s1.47-.41,1.07-.54a1.74,1.74,0,0,0-1.24.19c-.31.16-1.9.72-2.25.91s-1.93.77-1.62.72ZM77.4,39.89c-.61.39-1.26.69-1.87,1A27.35,27.35,0,0,0,72.08,43a14.25,14.25,0,0,0-2.29,2.23c-.18.23-.53.65-.47.72a1.83,1.83,0,0,0,.85.13,16.8,16.8,0,0,0,2.92-.39,14.83,14.83,0,0,0,2.8-1.07c.67-.53,1.35-1,2-1.45a11.81,11.81,0,0,1-1.19,0A6.83,6.83,0,0,1,75.56,43a5.46,5.46,0,0,1,.38-1,12.25,12.25,0,0,1,.82-1.29,10.19,10.19,0,0,1,.64-.83Zm-6.56,5.47c.31-.09.92-.37,1.38-.54a21.91,21.91,0,0,0,2-.88c.45-.26.77-.41.53-.57s-.49.09-.8.26-1.55.7-1.9.91-1.52.9-1.22.82Zm9.27-2.83c-.53.22-1.06.48-1.58.64-.82.65-1.78,1.26-2.62,1.93a12.43,12.43,0,0,0-2.32,2.6c-.21.29-.53.9-.47,1a3.74,3.74,0,0,0,1.17,0,8.59,8.59,0,0,0,3.1-1.13c1-.59,2-1.14,3-1.72a7,7,0,0,1-1.71-.1,5,5,0,0,1,.28-1.14c.33-.71.79-1.35,1.18-2ZM74.46,47.8a11.41,11.41,0,0,0,1.05-.55l1.82-1.09c.36-.21.6-.38.38-.48s-.43-.06-.73.16-1.25.84-1.56,1.1S74.26,47.91,74.46,47.8Zm30.22-7.44a20.91,20.91,0,0,0,3.08-1.51,13.32,13.32,0,0,0,2.76-2,1.59,1.59,0,0,0,.45-1.81,7.79,7.79,0,0,1,.22-4.29,7.18,7.18,0,0,1,3.41-4.29,18.1,18.1,0,0,1,6.07-2c1.27-.23,2.58-.28,3.84-.45.49-.07.66-.4.68-.16a1.54,1.54,0,0,1-.4,1.07,5.61,5.61,0,0,1-1.83,1.3,12.33,12.33,0,0,1-3.57.9,5.36,5.36,0,0,0-1.63.2,6.18,6.18,0,0,1,2.24,1,2.52,2.52,0,0,1,.73.94,2.06,2.06,0,0,1-1,.58,10.23,10.23,0,0,1-2.73.43,4,4,0,0,1,1.39,1.17,2.2,2.2,0,0,1,.34.67,2.47,2.47,0,0,1-1,.61,5.31,5.31,0,0,1-2.06.17,5.1,5.1,0,0,1,1.56,1.28,2.38,2.38,0,0,1,.39,1,1.82,1.82,0,0,1-.79.36,3.39,3.39,0,0,1-1.94-.19,10.32,10.32,0,0,1,1.26,1.6,2.32,2.32,0,0,1,.3,1,2.46,2.46,0,0,1-1.06.24,3.93,3.93,0,0,1-2-.52,6,6,0,0,1,1,1.45c.13.29.3.86.22.95a2.69,2.69,0,0,1-1,.17,4.67,4.67,0,0,1-2.12-.62,5.81,5.81,0,0,1,.73,1.67,1.93,1.93,0,0,1,0,1,2,2,0,0,1-.94,0,9,9,0,0,1-2-.81A5.58,5.58,0,0,1,110,43c.09.35.12.95,0,1a2.21,2.21,0,0,1-1-.06,4.24,4.24,0,0,1-1.61-.68,2.27,2.27,0,0,1,0,.63,5.7,5.7,0,0,0-2.16-3.15c-.22-.18-.42-.29-.57-.44Zm3.79,4.69A3.62,3.62,0,0,1,109,46a7.62,7.62,0,0,1,.54,1.8,1.53,1.53,0,0,1,0,.61c0,.08-.42,0-.59-.1a4.72,4.72,0,0,1-1-.59,9.08,9.08,0,0,0-.5-3.7,7.13,7.13,0,0,1,1,1Zm10.35-12.36c.21.07,2.88.61,3.76.69a8.64,8.64,0,0,0,4.62-.82c.25-.13.72-.38.7-.47a3,3,0,0,0-.7-.53,8,8,0,0,0-3.54-1.13,4.45,4.45,0,0,1-1.12-.22c.43-.09,1-.1,1.48-.16,2-.22,4-.28,5.65-1.27.23-.14.65-.39.65-.46a1.89,1.89,0,0,0-.7-.56,6.22,6.22,0,0,0-2.18-.6,26.3,26.3,0,0,0-2.81-.08c-.26,0-.67,0-.8-.08a4,4,0,0,1,.86-.17c1.33-.16,2.71-.25,4-.5a6.12,6.12,0,0,0,3.93-2,1.79,1.79,0,0,0,.38-.94c0-.27-.3.13-.84.27a13.8,13.8,0,0,1-2.71.44c-1,.07-2-.06-3,0-.31,0-.83.19-1,.48a2.2,2.2,0,0,1-.56.85,10.18,10.18,0,0,1-2.25,1.39,13.77,13.77,0,0,1-2.22.63c-.27.06-.55.05-.82.13a14.78,14.78,0,0,1,1.24,1,1.71,1.71,0,0,1,.38.71,2.22,2.22,0,0,1-.68.66,6,6,0,0,1-1.47.53c-.29.06-.58.09-.86.13.21.25.48.48.68.77a2.57,2.57,0,0,1,.42.75,1.69,1.69,0,0,1-.55.57Zm7.1-7.72a13.74,13.74,0,0,1,2.4-.11,14.72,14.72,0,0,0,1.63-.14c.18,0,.66-.25.54-.11a1.12,1.12,0,0,1-.51.29,9.16,9.16,0,0,1-1.73.27,16.6,16.6,0,0,0-2.21.11c-.18,0-.62.13-.56,0a.57.57,0,0,1,.44-.27Zm2.33,3.36a1.23,1.23,0,0,1-.61.23,28.43,28.43,0,0,1-3.2.09c-.65,0-1.31,0-2,0-.15,0-.46-.05-.43-.2s.34-.17.52-.18c.65,0,1.31,0,2,0,1,0,2,.11,3,.09.25,0,.86-.12.76,0Zm-2.51,3.73a4.72,4.72,0,0,1-.85.07c-1.25-.07-2.49-.18-3.73-.33-.25,0-.79-.07-.74-.2.11-.28.53-.19.8-.16,1.19.15,2.45.32,3.67.43C125.18,31.9,126,32,125.74,32.06Zm-7,.89c-.41.13-.64.15-1,.25a7,7,0,0,1-.78.12,3.81,3.81,0,0,1,.65.61,3.29,3.29,0,0,1,.64,1.14c0,.1-.22.38-.48.51.69.17,1.54.33,2.23.51a10.76,10.76,0,0,0,4,.17,4.85,4.85,0,0,0,1.31-.3c0-.14-.55-.57-.88-.82a11.18,11.18,0,0,0-2-1.2,23.48,23.48,0,0,0-3.67-1Zm5,2.67a2.64,2.64,0,0,1-.88-.06c-1.1-.21-2.19-.44-3.26-.67-.21,0-.62-.13-.56-.34s.45-.11.67,0c1.08.27,2.15.51,3.22.78.28.07,1,.3.81.34Zm-7.56.51a10.16,10.16,0,0,0,1.1-.21,23.77,23.77,0,0,1,2.39.95A8,8,0,0,1,122.14,39c.17.21.5.59.46.67s-.48.17-.72.15a16.08,16.08,0,0,1-3.25-.34,12.73,12.73,0,0,1-2.16-1,2.09,2.09,0,0,0,.48-.19,1.66,1.66,0,0,0-.08-.58,9.7,9.7,0,0,0-.7-1.54Zm5.23,3a2.87,2.87,0,0,1-.83-.2,27.11,27.11,0,0,1-2.73-1.14c-.2-.09-.62-.21-.51-.39s.49,0,.71,0c.92.4,1.81.79,2.69,1.23.24.12.94.47.67.45Zm-6.82-.59a8.67,8.67,0,0,0,1.53.08,13.33,13.33,0,0,1,2,1.26,5.82,5.82,0,0,1,1.63,2c.09.18.23.53.19.59a1.18,1.18,0,0,1-.52.1,8.33,8.33,0,0,1-2.65-.57A19.31,19.31,0,0,1,114,40.73a5,5,0,0,0,.69-.08,3.81,3.81,0,0,0,.45-.13,2.25,2.25,0,0,0-.06-.63,4.4,4.4,0,0,0-.53-1.32ZM118.92,42c.13.15-.4-.1-.58-.2-.75-.38-1.49-.78-2.2-1.22-.15-.1-.34-.17-.38-.38s.44,0,.63.1a23,23,0,0,1,2.06,1.29A2.27,2.27,0,0,1,118.92,42Zm-6.57-1.52a3.45,3.45,0,0,0,1.09.29,9.5,9.5,0,0,1,1.73,1.68,7.84,7.84,0,0,1,1.11,2.1,2.65,2.65,0,0,1,.23.72c-.06.09-.5,0-.75-.07a7.74,7.74,0,0,1-1.64-.61,12.61,12.61,0,0,1-1.77-1.07c-.36-.25-.69-.49-1-.75a3.48,3.48,0,0,0,.72,0,2.48,2.48,0,0,0,.61-.07,4.18,4.18,0,0,0,0-1,5.3,5.3,0,0,0-.32-1.26Zm3.23,4a1.73,1.73,0,0,0-.37-.44c-.48-.43-1-.85-1.48-1.26-.15-.13-.48-.45-.5-.35a.73.73,0,0,0,.3.69c.49.38,1,.75,1.49,1.09.17.11.63.42.56.27Zm-5.41-2a6.25,6.25,0,0,1,.31,1.24,2.58,2.58,0,0,1-.12.8,5.77,5.77,0,0,1-.72,0,3.35,3.35,0,0,1-1-.13,7,7,0,0,0,.64.8,7.6,7.6,0,0,0,1.79,1.49,6,6,0,0,0,1.43.55,2.29,2.29,0,0,0,.55.1s0-.36-.07-.54a8.25,8.25,0,0,0-.71-2.06,10.68,10.68,0,0,0-1.33-1.93,3.94,3.94,0,0,1-.77-.34Zm2.19,4.24c0,.16-.33-.22-.47-.36-.36-.36-.7-.79-1-1.18-.1-.11-.21-.31-.09-.41s.33,0,.41.16c.29.42.55.83.85,1.23A2,2,0,0,1,112.36,46.61Zm21.17-22.9a15.45,15.45,0,0,1,3.26-.93,37.16,37.16,0,0,1,4.17-.86,11,11,0,0,1,3,.08c.24,0,.63.09.71.21s-.32.53-.54.74a8.06,8.06,0,0,1-1.58,1.12,12.68,12.68,0,0,1-3.06,1.21c-1.76.51-3.57.88-5.35,1.24-.79.16-1.58.32-2.36.5-.2,0-.79.15-.58.16a5.82,5.82,0,0,0,1-.06c1.16-.12,2.32-.3,3.48-.52a13,13,0,0,1,6.31.26,9.24,9.24,0,0,1,1,.28c0,.11-.5.48-.79.65a16.79,16.79,0,0,1-3,1.46,30.22,30.22,0,0,1-5.39,1.21,35.28,35.28,0,0,1-5.14.16c-.22,0-.85-.12-.66,0a1.35,1.35,0,0,0,.66.17c1.25.09,2.52.22,3.77.26a29.6,29.6,0,0,1,4.69.48,12.5,12.5,0,0,1,2.61.87c.26.12.77.28.79.38s-.55.27-.83.37a17,17,0,0,1-3.5.9,37.32,37.32,0,0,1-3.8.38c-2,0-4-.16-6-.29a6,6,0,0,0-1.12,0c-.35.06.69.18,1,.26,1.71.37,3.42.6,5.14,1.07a28.34,28.34,0,0,1,4.52,2c.27.13.76.41.74.52s-.76.26-1.16.31a19,19,0,0,1-5.22.16c-1.89-.23-3.76-.57-5.64-1-.76-.16-1.64-.38-2.28-.46a14.49,14.49,0,0,1,2-.29,6.35,6.35,0,0,0,1.49-.49,1.67,1.67,0,0,0-.41-.75,13.53,13.53,0,0,0-2.24-1.66,20.12,20.12,0,0,0,2.65-.29,7.35,7.35,0,0,0,2.16-.91,1.3,1.3,0,0,0,.54-.5,1.79,1.79,0,0,0-.67-.74c-.6-.41-1.43-.67-2-1,.63-.17,1.69-.22,2.49-.49a9.15,9.15,0,0,0,2.22-1.19,2.76,2.76,0,0,0,.43-.47c.1-.12-.28-.44-.49-.55A16,16,0,0,0,129,27a11.87,11.87,0,0,0,3.45-1.55,3.65,3.65,0,0,0,1.08-1.71Zm1,14.08c-.33,0-1-.08-1.67-.19s-3.12-.52-4.12-.65-2.09-.23-1.76-.44a3.75,3.75,0,0,1,1.86,0c.77.1,3.45.62,4,.73a6.4,6.4,0,0,1,1.67.52Zm7.8-15a3.41,3.41,0,0,1-1.05.65c-.54.21-2.82.73-3.66.94s-1.9.5-2.3.61-1.1.19-.94-.11.48-.31,1-.44,1.73-.46,2.38-.58,2.76-.57,3.2-.69,1.56-.52,1.38-.38Zm-1.49,4.69c-.21.07-.58.27-1.1.44s-3.14.62-3.77.71-2.42.37-2.86.44-1.51.33-1.3,0,.69-.38,1.26-.46l2.9-.42c.73-.11,2.85-.42,3.43-.52a6.86,6.86,0,0,1,1.44-.17Zm-2.42,5.33c-.24.06-.9.08-1.49.12S135,33,133.56,33l-3.05,0c-.71,0-1.31,0-1.11-.23s.51-.21,1.2-.21,1.86.09,3,.13,2.65,0,3.32,0,1.79,0,1.55.1Zm-18,4c1,.34,2,.67,2.92,1a46.48,46.48,0,0,1,4.41,1.75A18,18,0,0,1,131.61,42c.24.2.78.57.77.72a3.38,3.38,0,0,1-.91.09,15.79,15.79,0,0,1-3.57-.19,28.14,28.14,0,0,1-4.51-1.15c-1-.36-2-.77-3.06-1.12a9.52,9.52,0,0,0,1.77,0,4.24,4.24,0,0,0,1.17-.33,4.8,4.8,0,0,0-.43-1,9.32,9.32,0,0,0-1.24-1.27c-.38-.33-.73-.62-1.13-.93ZM130.11,42c-.3-.07-1-.27-1.44-.41s-2.88-.88-3.37-1-1.58-.38-1.29-.56.86,0,1.42.18,2.8.92,3.26,1.09,1.73.83,1.42.75Zm-10.57-1.6c.75.43,1.52.83,2.27,1.27A23.43,23.43,0,0,1,125,43.9a11.6,11.6,0,0,1,2,2c.21.29.62.79.59.89s-.64.12-1,.07A15.15,15.15,0,0,1,123.2,46a32,32,0,0,1-3.64-1.75c-.92-.5-1.8-1-2.71-1.55a11.76,11.76,0,0,0,2.09.43,6.08,6.08,0,0,0,1.48-.1,4.26,4.26,0,0,0-.24-1.27,8.35,8.35,0,0,0-.64-1.31Zm6.48,5.7a12.91,12.91,0,0,1-1.64-.71c-.43-.25-1.65-1-2.11-1.27s-1.38-.67-1-.73a1.74,1.74,0,0,1,1.19.41c.27.21,1.74,1.05,2,1.3s1.76,1.11,1.47,1Zm-10.2-3.81c.54.49,1.12.9,1.66,1.36a27.52,27.52,0,0,1,3,2.69A14.28,14.28,0,0,1,122.34,49c.13.26.4.73.33.79a1.93,1.93,0,0,1-.86,0,17,17,0,0,1-2.8-.91,14.84,14.84,0,0,1-2.56-1.56c-.56-.65-1.15-1.22-1.75-1.8.39.09.78.17,1.17.22a6.88,6.88,0,0,0,1.2,0,5.58,5.58,0,0,0-.19-1.07,14.57,14.57,0,0,0-.58-1.42,10.28,10.28,0,0,0-.48-.93Zm5.47,6.55c-.28-.13-.84-.52-1.26-.77a20.63,20.63,0,0,1-1.81-1.23c-.4-.34-.69-.55-.42-.65s.46.16.73.39,1.4,1,1.71,1.24S121.57,49,121.29,48.87Zm-8.61-4.44c.48.3,1,.65,1.44.91.7.79,1.53,1.55,2.23,2.37a12.48,12.48,0,0,1,1.82,3,2.69,2.69,0,0,1,.29,1,3.82,3.82,0,0,1-1.15-.21,8.76,8.76,0,0,1-2.85-1.68c-.87-.75-1.75-1.48-2.61-2.23a7,7,0,0,0,1.7.22,4.66,4.66,0,0,0-.08-1.18,22.21,22.21,0,0,0-.79-2.2Zm4.61,6.2c-.17-.14-.58-.42-.94-.73l-1.58-1.4c-.32-.27-.53-.48-.3-.55s.44,0,.69.3,1.09,1,1.34,1.35,1,1.17.79,1Zm-7.6-4.33a6.59,6.59,0,0,0,1.27,1c.68.81,1.43,1.58,2.06,2.44a8,8,0,0,1,1.22,2.54,2.79,2.79,0,0,1,.12,1,2.92,2.92,0,0,1-1-.26,11.57,11.57,0,0,1-2.59-1.87c-.83-.78-1.55-1.68-2.32-2.52a11,11,0,0,0,1.41.46,2.58,2.58,0,0,0,.07-1.27,9.78,9.78,0,0,0-.28-1.51Zm3.86,6a7.72,7.72,0,0,1-.88-.69c-.35-.31-1.4-1.63-1.63-1.88s-.23-.31-.14-.44.31.08.5.31,1.42,1.65,1.67,2S113.74,52.37,113.55,52.26ZM101,22.7a1.19,1.19,0,0,0-1-.76,2.17,2.17,0,0,0-1.36.13l-1.74.44a3.49,3.49,0,0,0-1.5.78,8.05,8.05,0,0,0-1.09,1.5c-.23.52-.52,1.1-.83,1.75a8.84,8.84,0,0,1-1.3,2.25,5.27,5.27,0,0,0-1.14,1.51,5,5,0,0,0-.5,1.76c0,.44-.18,1.31-.23,1.62a.9.9,0,0,0,0,.57,8.39,8.39,0,0,1,0,1.81c-.07.55-.12,1.35-.13,1.77s0,.91.11.52A8.28,8.28,0,0,1,90.84,37a5.53,5.53,0,0,0,.44-1c0-.28.23-.11.3.19a1.49,1.49,0,0,1-.17,1.09c-.22.34-.6.91-.53,1.22s.06.34.32.21a1.69,1.69,0,0,0,.75-.53,6.21,6.21,0,0,0,.39-1.34c.06-.35,0-.81.18-.7a1.16,1.16,0,0,1,.31.75,3.6,3.6,0,0,1,0,.73c0,.28,0,.3.2.2s.34-.39.42-.57.29-.71.39-1a.9.9,0,0,0,0-.77,8.5,8.5,0,0,1-.3-1.74c0-.53-.12-2.16-.17-2.55s0-.33-.19,0-.21.38-.26.49-.13.26-.21,0a1,1,0,0,1,0-.76,2.47,2.47,0,0,1,.56-.8A5.61,5.61,0,0,0,94.08,29c.21-.38.79-1.48,1-1.74a5.36,5.36,0,0,1,.45-.62c.12-.13.08-.36.23-.67s.44-.63.75-.57.16.13,0,.35-.3.26-.28.45.07.11.28,0a3.05,3.05,0,0,1,.92-.46,2.11,2.11,0,0,0,.67-.22c.24-.12.15-.36.41-.49s.37-.15.52-.08.14.18,0,.27a1.27,1.27,0,0,0-.46.43c-.11.16-.52.4-.11.32a3.26,3.26,0,0,0,1.35-.45c.23-.25.54-.8.75-1.09s.26-.72.53-1.06c.1-.11,0-.41,0-.61ZM92.59,35.79a3.56,3.56,0,0,0,0-1,6.38,6.38,0,0,1-.13-1.39,8.3,8.3,0,0,1,.12-1.16c.06-.18,0-.22-.15,0a2,2,0,0,0-.53.69,2.35,2.35,0,0,0,0,1.1,5.56,5.56,0,0,0,.35,1.11C92.37,35.42,92.56,35.93,92.59,35.79Zm10.86-3.19a2.89,2.89,0,0,1-.28.74,3.92,3.92,0,0,0-.26,1.1,12.38,12.38,0,0,1-.16,1.55,2.93,2.93,0,0,1-.32.88,2.41,2.41,0,0,0-.42.67c-.07.25,0,.34.19.05s.41-.28.58-.45a2.47,2.47,0,0,0,.5-.9,5,5,0,0,0,.14-1.24,3.89,3.89,0,0,1,0-1.13,4.72,4.72,0,0,0,.16-.88c0-.3-.12-.59-.13-.39Zm-1.83-9.73a1.27,1.27,0,0,1,1.32.22c.27.31.75.66,1.1,1.05a4.66,4.66,0,0,1,.83,1.5,9.55,9.55,0,0,1,.18,2c0,.48-.13,1.75-.18,2.37a15.58,15.58,0,0,0,0,2.06,9.38,9.38,0,0,1,0,2.2,8.67,8.67,0,0,1-.71,1.84,7.33,7.33,0,0,1-1,1.19,11,11,0,0,0-1.15,1.54,1.51,1.51,0,0,1-.48.61c-.26.27-.64.45-.75.61s-.14.12-.34,0-.33-.08-.31-.38a5.76,5.76,0,0,1,.24-1.25c.13-.27.35-.78.52-1.06s.1-.31.07-.42-.09,0-.19.15a4,4,0,0,1-.58.59,2.54,2.54,0,0,0-.58.89,1.63,1.63,0,0,0,.1.93c.14.25.13.29-.06.2a3,3,0,0,1-.49-.33c-.17-.14-.35-.24-.42-.39a1,1,0,0,1,0-.52,5.13,5.13,0,0,1,.12-.59c0-.19.08-.2.33-.36a6.55,6.55,0,0,0,.78-.61c.22-.2.77-.95,1-1.14a9.52,9.52,0,0,0,.85-1.07c.17-.29.55-1,.7-1.31s.48-1.13.64-1.58.31-1,.42-1.52.18-.49,0-.93-.62-1.14-.84-1.52a3.73,3.73,0,0,1-.58-1.66c0-.58-.14-.3-.18-.1s0,.45-.11.31a3.51,3.51,0,0,1-.61-1.23c0-.42-.17-.55-.15-.81a3.59,3.59,0,0,1,.17-.79,1.77,1.77,0,0,1,.17-.52,1.08,1.08,0,0,1,.18-.2ZM81.15,44.07a5.74,5.74,0,0,1,1.18-2.23,12.72,12.72,0,0,1,2.91-2.22c.72-.32,1-.46,1.13-.87a3.63,3.63,0,0,1,.46-1.5c.31-.36.59-.5,1-.18a9,9,0,0,1,1.5,2.18,18.12,18.12,0,0,1,1.14,3.41,12.42,12.42,0,0,1,.18,3.73,5.28,5.28,0,0,1-1,2.91,4.53,4.53,0,0,1-2,1.23,3.36,3.36,0,0,1-2.09.13,1.71,1.71,0,0,1-1.32-1.27,11.28,11.28,0,0,0-1.54-3.23,3.23,3.23,0,0,0-1.46-1c-.41-.09-.27-.22-.27-.45a2.73,2.73,0,0,1,.14-.64Zm5.68-4.77a5.55,5.55,0,0,1,1.41,1.45,9,9,0,0,1,1,2.09,13,13,0,0,1,.43,2.64c0,.54,0,.45-.19-.09A23.05,23.05,0,0,0,88.85,43a12.93,12.93,0,0,0-2-3.41c-.25-.26-.28-.41,0-.32Zm7.75-2.66a8.43,8.43,0,0,0,1,.8,4.27,4.27,0,0,0,1.6.64,1.8,1.8,0,0,0,1-.17c.21-.09.2-.09.15.15a6.19,6.19,0,0,0-.08,1.34c0,.36.06.38-.15.55a3.81,3.81,0,0,1-1.08.56,2.8,2.8,0,0,1-1,.11,3.43,3.43,0,0,1-1.43-.53,6.91,6.91,0,0,1-1-.84,1.06,1.06,0,0,1-.29-.55c-.07-.15-.08-.15.11-.23a1.46,1.46,0,0,0,.54-.67,5.72,5.72,0,0,0,.43-1C94.37,36.46,94.38,36.44,94.58,36.64ZM92.75,39a2.87,2.87,0,0,0,.78,1,3.26,3.26,0,0,0,1.33.8,4.68,4.68,0,0,0,1.89.23,2.53,2.53,0,0,0,1.46-.57,2.3,2.3,0,0,0,.51-.59c.13-.19.11-.21.38,0s.62.36.89.55.32.16.09.55-.58,1-.72,1.27,0,.31-.39.5a5.09,5.09,0,0,1-1.69.58,7.82,7.82,0,0,1-2.41-.13,12.65,12.65,0,0,1-2.42-1A9.28,9.28,0,0,1,91,41.09a.9.9,0,0,1-.4-.51c-.1-.22-.29-.64-.4-.91s-.17-.17.13-.24a11.67,11.67,0,0,0,1.12-.34c.34-.14.68-.24,1-.34s.22-.12.3.2Zm-1.59,2.9c.16.11,1.36.82,1.93,1.1a8.84,8.84,0,0,0,2.33.74,10.49,10.49,0,0,0,3-.23c.52-.19.35-.17.27.38s-.21,1.16-.27,1.67,0,.47-.3.66a5.69,5.69,0,0,1-1.34.61,6,6,0,0,1-2,.09,5.76,5.76,0,0,1-1.9-.75A15,15,0,0,1,91.63,45c-.26-.25-.3-.21-.34-.69s-.17-1.78-.22-2.19-.07-.39.09-.29ZM103,39.12c.43-.18.74-.2.94.06a1.4,1.4,0,0,1,.23.78,1.16,1.16,0,0,0,.29.85c.26.26.62.49,1,.81a5.88,5.88,0,0,1,1.17,1.69,8.46,8.46,0,0,1,.69,2.54c.06.84.13,1.33.13,1.89s.06.48-.49.61a4.78,4.78,0,0,0-2.24,1.3c-.75.78-1.27,1.79-1.76,2.05a1.89,1.89,0,0,1-1.56.2,4,4,0,0,1-1.63-1.76,7.59,7.59,0,0,1-.78-3.48,9.42,9.42,0,0,1,.81-3.81,7.24,7.24,0,0,1,1.7-2.56A5.52,5.52,0,0,1,103,39.11Zm1,1.74a1,1,0,0,1-.49.59,8.46,8.46,0,0,0-1.12,1.13,13.63,13.63,0,0,0-1.17,2.06c-.16.51-.28.69-.42,1.22s-.23.92-.27,1.12-.24.29-.22-.14a8.82,8.82,0,0,1,.26-1.76,11.29,11.29,0,0,1,.82-2,7.35,7.35,0,0,1,1.34-1.7C103.12,41.06,104,40.66,104,40.86ZM81.1,45.8a2.9,2.9,0,0,1,1.36,1,22.77,22.77,0,0,1,1,2A12.67,12.67,0,0,0,84,50c.14.29.26.29.05.61a9.78,9.78,0,0,1-.72,1.1c-.29.34-.89,1.15-1.21,1.5L80.49,55a16,16,0,0,1-2.14,1.8c-.4.23-.37.14-.78,0A7.32,7.32,0,0,1,75.9,56a6.39,6.39,0,0,1-1.39-1.48c-.23-.31-.14-.26.06-.54s.78-1.07,1.12-1.59.87-1.3,1.39-2,1.39-1.85,1.91-2.45,1.27-1.42,1.62-1.79.34-.32.49-.29Zm-3.47,9.45c.15-.08,1.27-1.13,1.59-1.42S80.43,52.59,81,52s1-1.33,1.3-1.67.18-.47-.17-.15-.9,1-1.3,1.39-.92,1-1.56,1.67A17.26,17.26,0,0,0,78,54.61c-.29.35-.51.72-.35.64Zm25.71-3a8.51,8.51,0,0,0,1.13-1.56,5.44,5.44,0,0,1,1.41-1.42,3.13,3.13,0,0,1,1-.39c.23-.06.43,0,.45,0s.12.32.16.48c.12.42.36,1.26.48,1.85s.54,1.92.66,2.4.2,1,.3,1.37.13.6.13.63a1.8,1.8,0,0,1-.13.39,6.46,6.46,0,0,1-1,1.49,12.55,12.55,0,0,1-1.38,1.26,2.35,2.35,0,0,1-.41.31,2.59,2.59,0,0,1-.42-.55c-.34-.51-.72-1.49-1.26-2.57a29.14,29.14,0,0,1-1.32-3.11,1.24,1.24,0,0,1-.06-.36,1.26,1.26,0,0,1,.24-.24Zm1-.19c0,.13.39,1,.59,1.56s.66,1.59.84,2.14.35.79.47,1.11-.06.38-.18.12-.63-1.19-.87-1.74-.51-1.35-.69-1.87a12,12,0,0,1-.32-1.19c-.06-.25.11-.25.16-.13Zm6.09,3.17A.75.75,0,0,1,111,56a9.57,9.57,0,0,0,.07,2.35,21.11,21.11,0,0,0,.71,2.19c.17.41.49.78.36.88s-.24.09-.45,0-.27,0-.43.17a10.47,10.47,0,0,1-1.93,1.24c-1,.42-1.27.38-1.77-.23a9.11,9.11,0,0,1-1-2.21c-.07-.38-.1-.47-.3-.49a.43.43,0,0,1-.34-.14c-.06-.08.06-.19.34-.34a9.87,9.87,0,0,0,1.9-1.69,7.5,7.5,0,0,0,1.34-2.14.86.86,0,0,1,1-.48Zm-1.79,7.35a7.55,7.55,0,0,0,.41-1.21,11,11,0,0,0,.38-1.66c.05-.54-.07-.62-.21-.2s-.45,1.17-.58,1.62-.25.89-.32,1.2S108.5,62.85,108.67,62.53Zm2.69-6.63a17.17,17.17,0,0,1,1.65-.72c.38-.14,1.48-.62,2.17-.83s2.08-.67,2.93-1l1.38-.52a2,2,0,0,1,.42-.14,7.52,7.52,0,0,0,.38,1.08A4.51,4.51,0,0,0,121,54.9s-.1.11-.41.35-1.42,1.14-1.87,1.48-1.69,1.17-2.2,1.55-1.86,1.21-2.42,1.52-1,.49-1.24.63a2.15,2.15,0,0,1-.56.23c-.12-.29-.51-1.27-.68-1.89a9.94,9.94,0,0,1-.31-2,5,5,0,0,1,0-.83ZM91.24,45.45c.2.16.51.36,1.14.82A6.8,6.8,0,0,0,95,47.36,7.76,7.76,0,0,0,97.65,47a7.39,7.39,0,0,0,.72-.39,7.12,7.12,0,0,1,.12,1,8.33,8.33,0,0,0,.59,2.4,6.55,6.55,0,0,0,1.53,2.09,5.13,5.13,0,0,0,1.1.56c.07,0,0,.16-.08.74s-.64,2.36-.88,3.19-.83,2.11-1,2.65a5,5,0,0,1-.34.88,25.42,25.42,0,0,1-2.14,1.43c-.68.4-1.46.86-2.08,1.17s-.84.45-1.28.64a2.34,2.34,0,0,1-.69.25,14.07,14.07,0,0,1-2.24-1,21.56,21.56,0,0,1-2.42-1.41c-.84-.58-1.37-1-1.86-1.42s-.8-.62-.81-.73c-.06-.5-.16-1.72-.31-2.8a34.52,34.52,0,0,1-.31-3.44c0-.68-.06-1.89,0-1.88a4.37,4.37,0,0,0,.68.2,4.2,4.2,0,0,0,2-.23A6.38,6.38,0,0,0,90.1,49.4a3.75,3.75,0,0,0,.88-2c.1-.73.2-1.37.21-1.51a4,4,0,0,1,0-.43Zm2.39,16.87a20,20,0,0,0,.54-2.16c.15-.64.35-1.92.45-2.6s.34-2,.49-3,.19-1.67.29-2.65.2-1.57.25-2.21,0-.63,0-1-.19-.73-.29-.14-.2,1.52-.25,2.16-.34,2.74-.49,3.82-.34,2-.44,3-.29,2.11-.39,2.75-.13.83-.2,1.17-.11,1.17,0,.84Zm6-1.84a8.74,8.74,0,0,1,.48,1,1.56,1.56,0,0,1,.29.73c0,.22-.35.48-.57.67-.44.39-1.93,1.59-2.62,2.18s-2.86,2.4-3.77,3a4.69,4.69,0,0,1,0-1.09c0-.49,0-1.83,0-2.22s0-.5.06-.53A24.39,24.39,0,0,0,95.87,63c.79-.49,2.38-1.42,2.82-1.76l.93-.76ZM85.78,59.29c.14.14.74.71,1.11,1.05a28,28,0,0,0,2.41,1.85,26.4,26.4,0,0,0,2.57,1.43c.37.17.89.44,1.12.55a5.33,5.33,0,0,1,0,.88c0,.37-.13,1.76-.13,2.07s0,.89-.12.83c-.3-.23-.71-.64-1.19-1.1s-1.45-1.25-2-1.74-1.65-1.26-2.18-1.67A22.47,22.47,0,0,0,85,62c-.4-.23-.7-.42-.68-.58a3,3,0,0,1,.8-1.27c.34-.37.68-.85.69-.83Zm-1.46,2.85c.59.31,1.26.59,1.91,1a23.78,23.78,0,0,1,2.27,1.69c.49.43,1.69,1.44,2.18,1.94l1.45,1.44c.08.08-.33.33-.66.55a2,2,0,0,1-1.2.38,11.53,11.53,0,0,1-1.6-.37,17.94,17.94,0,0,1-2.44-1A19.2,19.2,0,0,1,84,66.51c-.43-.33-.71-.55-1.06-.86-.19-.17.3-.67.41-1a12.94,12.94,0,0,1,.54-1.52c.22-.44.41-1,.44-1ZM83,66.27c.38.28,1,.75,1.66,1.13a20.18,20.18,0,0,0,3,1.5,25.37,25.37,0,0,0,2.72.85,7.58,7.58,0,0,1-.33,1,2.24,2.24,0,0,1-.56.82,1.31,1.31,0,0,1-1,.22,18.85,18.85,0,0,1-2.47-.33,10.55,10.55,0,0,1-2.3-.66,18.24,18.24,0,0,1-2.11-1.06c-.09-.07-.09-.19.1-.42a6.18,6.18,0,0,0,.7-1.62c.1-.33.19-.72.28-1a1.68,1.68,0,0,1,.22-.46Zm-1.43,3.94c.13.08,1,.5,1.43.71a19.23,19.23,0,0,0,2.22.75,16.82,16.82,0,0,0,2.43.47c.64.1,1.12.17,1.57.21a5,5,0,0,1-.25.65,2.87,2.87,0,0,1-.44.84,1.75,1.75,0,0,1-1,.51,5.43,5.43,0,0,1-1.39.19,5.34,5.34,0,0,1-1.49-.15,11.65,11.65,0,0,1-1.84-.61A15.43,15.43,0,0,1,81.28,73l-1-.58c-.22-.12,0-.26.14-.47a6.46,6.46,0,0,0,.59-1c.18-.35.35-.86.47-.78Zm18.68-7c-.44.41-.94.74-1.35,1.08s-1.43,1.21-1.9,1.6-1.17,1-1.76,1.41-1.12.88-1.45,1.08c0,0,.22.28.43.51a2,2,0,0,0,.72.58,1,1,0,0,0,.87,0c.4-.13.87-.33,1.28-.51a16.91,16.91,0,0,0,1.83-1c.52-.32.93-.57,1.45-.93a12.93,12.93,0,0,0,1.29-1c.25-.22-.08-.41-.29-.66a8.8,8.8,0,0,1-.62-1.2c-.16-.34-.44-1-.5-1Zm1.65,3.43c-.51.37-1.07.78-1.67,1.17s-1.17.74-1.76,1a17.08,17.08,0,0,1-2.14.86c-.59.17-1,.3-1.23.35,0,0,.21.21.42.57a4.54,4.54,0,0,0,.58.84.9.9,0,0,0,.85.31,6.73,6.73,0,0,0,1.46-.27,15,15,0,0,0,1.84-.67,14.49,14.49,0,0,0,1.54-.82,7.69,7.69,0,0,0,.88-.61,6.55,6.55,0,0,0,.51-.47c.22-.25.14-.34-.08-.52a1.29,1.29,0,0,1-.43-.6,7.53,7.53,0,0,0-.38-.74c-.1-.19-.33-.48-.38-.44Zm1.51,2.88c-.31.21-1.17.8-1.63,1.06a15.31,15.31,0,0,1-1.67.81,17.36,17.36,0,0,1-1.75.6,15.74,15.74,0,0,1-1.64.32s.08.2.28.57a3,3,0,0,0,.58.87,1.46,1.46,0,0,0,.83.32,4.86,4.86,0,0,0,1.35,0,7.43,7.43,0,0,0,1.6-.35,6.17,6.17,0,0,0,1.41-.69c.42-.26,1.3-.91,1.74-1.25.26-.2.11-.37-.1-.59a3.45,3.45,0,0,1-.56-.9,2.63,2.63,0,0,0-.44-.73Zm-10.71-.81c.43.32.49.3.75,0a5.94,5.94,0,0,1,.51.61,2.22,2.22,0,0,0,.53.56c.24.15.16.14.39.59l.34.59a2.85,2.85,0,0,0,.5.71c.45.3.29.19.46.54s.34.73.56,1.13a2,2,0,0,0,.84.86c.47.18.7.14,0,.22-.48.06-1.18.25-1.77.35a17.38,17.38,0,0,1-2.14.27,8.65,8.65,0,0,1-1.75-.28A11.78,11.78,0,0,0,90,74.68c-.54,0-1.13-.05-1.51-.05s-.61,0-.22-.1a1.61,1.61,0,0,0,.93-1l.41-1.09c.11-.27,0-.14.27-.39a2.37,2.37,0,0,0,.52-.78c.17-.39.34-.83.49-1.22s0-.32.37-.44a2.52,2.52,0,0,0,.83-.58,1.66,1.66,0,0,1,.52-.41Zm-11.13,5c.46.18.94.41,1.23.52s1,.34,1.39.46a6.75,6.75,0,0,0,1.59.26l.44,0a2.26,2.26,0,0,1,.78,0c.39,0,1,0,1.3.06s1.67.11,2.1.08a3.35,3.35,0,0,1-.19.63c-.14.46-.26.86-.44,1.49s-.9,2.83-1.14,3.48-.59,1.31-.86,1.91a12.5,12.5,0,0,1-1,1.63,5.92,5.92,0,0,0-.25-.56c-.18-.31-.59-1.1-.92-1.64s-.84-1.31-1.19-1.84l-1.17-1.73c-.34-.49-.43-.48-.85-.15a13.37,13.37,0,0,0-1.13,1,11.16,11.16,0,0,0-1.16,1.36,5.54,5.54,0,0,1,.08-1c.06-.42.33-2,.51-2.77s.43-1.7.55-2.19a3.41,3.41,0,0,1,.3-.95Zm5.28,8.74a4,4,0,0,0,.56-1c.15-.39.45-1.34.6-1.82s.42-1.31.57-1.87.23-1,.29-1.31-.18-.39-.29,0-.21.86-.42,1.64-.45,1.48-.66,2.2-.29,1-.41,1.4-.37.92-.24.77Zm.61,2c.32.07.55,1,.32,2S86.93,88.1,86.6,88s-.41-.42-.42-.74c0-.48-.29-.19-.41.24a2.63,2.63,0,0,1-.84,1,9,9,0,0,1-1.35,1c-.52.32-1.06.62-1.42.81a12.19,12.19,0,0,0-1.37.83c-.42.3-.35.27-.63-.08a8.92,8.92,0,0,1-.88-1.36A5,5,0,0,1,78.85,87s.06.14.32.45a2.15,2.15,0,0,0,1,.61,3.32,3.32,0,0,0,1.18.11,2.79,2.79,0,0,0,1.22-.27c.3-.16.33-.26.09-.22s-.49,0-.67.07a5.65,5.65,0,0,1-1.43-.07,2,2,0,0,1-1-.53c-.32-.26-.37-.32-.6-1a4.68,4.68,0,0,1-.24-2.44,3.83,3.83,0,0,1,.66-1.56c.21-.23.47-.58.7-.6a6.08,6.08,0,0,1,.82-.07,5.22,5.22,0,0,1,1.22.15,5,5,0,0,1,1,.33c.32.13.53.32.27,0a2.39,2.39,0,0,0-.85-.66,3.48,3.48,0,0,0-1.18-.3,2.31,2.31,0,0,0-1.2.14,3.58,3.58,0,0,1,.76-1.08c.44-.48,1.34-1.25,1.57-1.46s.33-.24.48,0,.48.68.74,1.1.81,1.2,1.17,1.83a15.1,15.1,0,0,1,.91,1.74,11.6,11.6,0,0,1,.49,1.42c.08.35.25.51.44.25s.41-.65.73-.58Zm8.83-9.29a18,18,0,0,0,1.87-.37c.59-.15.72-.21,1-.28s.65,0,1-.06a4.48,4.48,0,0,0,1.25-.27,8.91,8.91,0,0,0,1.78-.87,11.29,11.29,0,0,0,1.26-1,2.81,2.81,0,0,1,.56.77,13.36,13.36,0,0,1,.77,1.82c.3.86.57,1.65.8,2.2,0,0-.09.17-.36.6s-.69,1-1,1.53a13,13,0,0,0-1,1.85,17,17,0,0,0-.83,2.19c-.19.64-.23.85-.29,1.06s-.35.26-.69-.17-.78-1-1.39-1.88-1-1.35-1.73-2.34S97.87,78,97.35,77.11s-1.15-2-1.11-2Zm6.48,7.34a8.59,8.59,0,0,1-1-1.11c-.39-.5-.77-1-1.15-1.58s-.86-1.3-1.24-2a8.8,8.8,0,0,1-.72-1.47c-.18-.48,0-.48.18-.08s.7,1.21.94,1.59.6.8.92,1.36.7,1.1,1.14,1.76.57.85.69,1,.47.65.28.48ZM102,84.57c.38,0,.77.28,1.18.73.12.13.26,0,.3-.3a11,11,0,0,1,.32-1.61,12.11,12.11,0,0,1,.82-2.25A23.41,23.41,0,0,1,106,78.89c.38-.57.8-1.24,1-1.48.07-.09.28.16.54.47a2.31,2.31,0,0,1,.49,1.06c.1.44,0,.52-.06.56a7.17,7.17,0,0,0-1,.53,2.53,2.53,0,0,0-.93,1.08c-.25.48-.22.74.3.22a3.72,3.72,0,0,1,.92-.7,3.67,3.67,0,0,1,1-.44.94.94,0,0,1,.51.22,2.79,2.79,0,0,1,.76.82,8.18,8.18,0,0,1,.91,2.25,5.26,5.26,0,0,1-.06,1.9,9.66,9.66,0,0,1-.51,1.61c-.09.22-.28.31-.6.31a2,2,0,0,1-1.07-.24c-.38-.22-.67-.41-1-.64s-.23,0,.1.45a1.92,1.92,0,0,0,1.17.79,8,8,0,0,0,1.33.22,6.3,6.3,0,0,1,.28,1.3,6.14,6.14,0,0,1,0,1.14c0,.32-.11.31-.6-.16a8.44,8.44,0,0,0-1.87-1.08,21.69,21.69,0,0,1-2.12-1.29A8.06,8.06,0,0,1,104,86.63c-.21-.26-.37-.18-.37-.08,0,.65-.11,1.24-.46,1.36s-1.07-.58-1.37-1.44-.27-1.86.22-1.9Zm24.9-22a.36.36,0,0,1,0,.72.36.36,0,0,1,0-.72ZM72.57,54.38a.94.94,0,0,1,1-.06c.2.18.67.67,1,1a6.1,6.1,0,0,0,1.82,1.53,8.56,8.56,0,0,0,1.59.47c.42,0,.42,0,.32.28s-.19.15-.3.22a.35.35,0,0,0-.16.3,10.21,10.21,0,0,1-.35,1.8c-.2.68-.25.75-1,.78A10.2,10.2,0,0,1,75,60.68c-.44-.06-.57,0-.67.26s-.13.32-.29.37-.23.09-.2-.23a6.7,6.7,0,0,0-.17-1.73c-.14-.52-.69-2.34-1-3s-.54-1.69-.12-1.93Zm4.17,6a3,3,0,0,1-.9-.86c-.26-.41-.46-.87-.67-1.22s0-.43.26-.11.47.69.73,1,.5.67.66.89.15.39-.08.26Zm-4.66-4.1a8.46,8.46,0,0,1,.81,1.7,19.29,19.29,0,0,1,.58,2.78c0,.46,0,.4-.26.6s-.9.67-1.36,1-1.73,1-2.43,1.33-1.88.8-2.71,1.24-1.59.84-2.06,1.07-.43.17-.6-.32a17.9,17.9,0,0,0-.93-2c-.23-.41-.31-.46.12-.7l2-1.09a8.31,8.31,0,0,0,1.39-1.07c.46-.41,1.67-1.65,2.17-2s1.53-1.3,2.08-1.67a7.68,7.68,0,0,0,.86-.69c.2-.18.25-.24.32-.12Zm5.57,39.85a9.9,9.9,0,0,0,1.73.39,10.27,10.27,0,0,0,1.93.13,8,8,0,0,0,3-.7,3.48,3.48,0,0,0,.43-1,13.32,13.32,0,0,0,.91-3.84c.07-.68.1-1.36.13-1.91s0-.68,0-.65a5.61,5.61,0,0,1-1.1.89c-.46.29-1.43.79-2.05,1.12a20.65,20.65,0,0,0-1.85,1.07c-.35.26-.38.26-.68-.16a13.81,13.81,0,0,1-.86-1.25c-.19-.37-.25-.53-.4-.86a3.58,3.58,0,0,0-.28.91c-.12.45-.26,1.23-.37,1.91s-.22,1.62-.32,2.31-.21,1.59-.19,1.6Zm7-5.73a5.66,5.66,0,0,1,0,1.63,11.36,11.36,0,0,1-.48,1.91c-.2.49-.34,1-.51,1.39s-.22.48-.28.63-.29.36-.14-.12.34-.95.5-1.43.33-1,.48-1.64a10.24,10.24,0,0,0,.27-1.62C84.55,90.71,84.59,90.13,84.65,90.38ZM76.79,106.7a3.84,3.84,0,0,0,1.54.51,4.93,4.93,0,0,0,2.12-.39,6,6,0,0,0-.21,1.05,9.93,9.93,0,0,0,0,1.72,3.55,3.55,0,0,1-.18,1.56,4.66,4.66,0,0,1-.74.95,3.83,3.83,0,0,0-.72,1.21c-.27.61-.57,1.56-.84,2.25a4.5,4.5,0,0,1-.68,1.44,6.11,6.11,0,0,1-1.33,1.3,9.09,9.09,0,0,1-1.52.87,1.8,1.8,0,0,1-1.22.12c-.3-.12-.27-.5-.42-1.15a8.4,8.4,0,0,1,0-2.74,9.74,9.74,0,0,1,.68-2.16,21.75,21.75,0,0,1,1.49-2,11.86,11.86,0,0,0,1.29-2,8,8,0,0,0,.53-1.7c.08-.38.13-.77.14-.77Zm29.57-.67a8.56,8.56,0,0,0,2,.52,5.71,5.71,0,0,0,1.79-.1c.35-.1.49-.12.78-.23a3.3,3.3,0,0,0,.42.65,16.62,16.62,0,0,1,1.33,1.75,15.4,15.4,0,0,0,.87,1.3,5.33,5.33,0,0,0,1.17,1.1c.32.21.26.3.16.49s-.1.28.43.29c.26,0,.45.23.64.49s.44.64.69.94a.6.6,0,0,1,.09.81,1.53,1.53,0,0,1-.78.4,5.5,5.5,0,0,1-1.1.27,2.61,2.61,0,0,1-1.37-.16,5.26,5.26,0,0,1-1.46-.86,20,20,0,0,1-1.67-1.75,4.5,4.5,0,0,0-1.08-.91,5.05,5.05,0,0,0-.91-.59c-.39-.17-.51-.07-.23.16a5.46,5.46,0,0,1,.62.55c.21.22,0,.25-.62.15a4.74,4.74,0,0,1-1.57-.43,1.44,1.44,0,0,1-.62-1.18,14.71,14.71,0,0,1,.18-2c.13-.61.22-1.06.25-1.26a3.65,3.65,0,0,1,0-.45Zm-2.1-18.63c.21.17,1,.81,1.48,1.1s1.58,1,2.25,1.33a4.1,4.1,0,0,1,1.49,1c.34.43.29.6.32,1.26s0,1.34,0,2.2.05,3,.05,4.16a44.06,44.06,0,0,0,.43,4.54c.13,1,.2,1.43.28,1.91s.14.67.1.69a4.8,4.8,0,0,1-1.48.41,10.76,10.76,0,0,1-1.86-.1c-.58-.07-.77-.1-1-.14a9.68,9.68,0,0,1,0-1,15.54,15.54,0,0,0-.62-3c-.33-1-1.38-3.69-1.72-4.82a24,24,0,0,1-.76-4.83c0-1.19-.05-2.34,0-2.82s.11-.79.14-1,.06-.18.19-.3a1.34,1.34,0,0,0,.31-.62c.08-.26,0-.31.36,0ZM106.51,102a4.58,4.58,0,0,1-.34-1.09c-.17-.59-.38-1.25-.47-1.59-.19-.71-.48-1.77-.81-3a20.18,20.18,0,0,1-.58-3.39,17.23,17.23,0,0,1,0-3c0-.91.24-2.25.24-1.43s0,1.76,0,2.53.19,1.86.29,2.67.3,1.77.49,2.68.37,1.57.56,2.39.3,1.29.45,1.86a5.17,5.17,0,0,1,.22,1.34Zm-29.45-1a11.48,11.48,0,0,0,1.77.4c.59.08,1.92.18,2.41.21a5,5,0,0,1-.16.91c-.11.39-.37.87-.45,1.28a1.27,1.27,0,0,0,0,.77c.07.21.09-.18.14-.52a3.73,3.73,0,0,1,.3-.89c.13-.29.26-.7.33-.9a5,5,0,0,0,.1-.66,3.19,3.19,0,0,0,.61,0s-.09.4-.21.78-.29.86-.42,1.19-.3.75-.49,1.31-.5,1.61-.52,1.61a4.1,4.1,0,0,1-1.65.34,7.45,7.45,0,0,1-2-.41s.06-.62.06-1.16,0-1.8,0-2.42.11-1.82.14-1.82"/><path id="path20" class="cls-8" d="M72.45,92.21a10.92,10.92,0,0,0,1.32,1.6,7.53,7.53,0,0,0,1.76,1.36,11.12,11.12,0,0,0,1.75.8c0-.3.09-.84.16-1.36s.12-.86.18-1.27c-.61-.13-1.15-.3-1.89-.48s-1.48-.34-2-.43-1-.17-1.23-.22ZM52.65,80.27a3.41,3.41,0,0,0,.27,2.32,4.59,4.59,0,0,0,1.43,1.84,6.8,6.8,0,0,0,2,1.15c1,.38,2.41.8,3.87,1.28a34.36,34.36,0,0,1,3.62,1.42A8.35,8.35,0,0,1,66.59,90,13.6,13.6,0,0,1,69,93.17a20.64,20.64,0,0,0,2.19,3,20.24,20.24,0,0,0,3.12,2.95,10.15,10.15,0,0,0,3.14,1.56,10.73,10.73,0,0,0,2.92.51,15.81,15.81,0,0,0,2.77,0,18.19,18.19,0,0,0,2.74-.46,2.8,2.8,0,0,0,1.47-.88A2.46,2.46,0,0,0,87.73,98,3.51,3.51,0,0,0,87,96.42a3.24,3.24,0,0,0-1.19-1.06l-.66-.3c-.09.19-.44,1-.52,1.18a9.09,9.09,0,0,1-1.35.54,7.45,7.45,0,0,1-1.82.27,12.69,12.69,0,0,1-2.6-.28,10.26,10.26,0,0,1-2.32-.7,10.64,10.64,0,0,1-2.52-1.52,17.11,17.11,0,0,1-2-2.27,21.23,21.23,0,0,0-1.61-2.18A15.26,15.26,0,0,0,68,87.5a15.65,15.65,0,0,0-3.58-2.1A29.08,29.08,0,0,0,60,84.34a38.28,38.28,0,0,1-4.27-.66,4.28,4.28,0,0,1-2.12-1.58A2.21,2.21,0,0,1,53,80.78c.08-1.94-.21-1.33-.39-.51ZM73,127.34a1.54,1.54,0,0,0,.3,1.3,4.54,4.54,0,0,0,1.82,1.08,4.48,4.48,0,0,0,2.69-.41c.45-.37,1.16-.26,1.61-.52s.48-.93.89-.71a4.67,4.67,0,0,0,1.94.56,6.94,6.94,0,0,1,1.61.34A2.5,2.5,0,0,0,86,128.6a9.67,9.67,0,0,1,1.9-1c.49-.3,1.2-1,1.12-1.53s-.45-.75-.33-1,0-.26.56-.15a7.12,7.12,0,0,0,1.68.3c.67,0,1.64-.3,2.31-.37a7.74,7.74,0,0,0,2.46-.34,3.71,3.71,0,0,0,1.61-1.9,2.78,2.78,0,0,1,.7-1.35c.32-.3.1-.59,0-1.08a9.48,9.48,0,0,1-.39-1.64c0-.51-.3-.59.15-.57s1.53.12,2.09.08,1.86,0,2.57.08,1.9.3,3,.48,3.32.75,4,.9,2.09.26,3,.52,2.84.93,3.89,1.16a24.65,24.65,0,0,0,3.47.45c.93,0,3.47.07,4.4.07s4.33-.11,5.08-.19,1.15-.22,1.26.38a1.23,1.23,0,0,1-.48,1.3,18,18,0,0,1-2.72,1c-.64.19-.34.07-.49.52s-.48.6-1,.9-1,.45-1.19.78a2.27,2.27,0,0,1-.9.86c-.37.22-1.27.37-1.6.67a8.51,8.51,0,0,0-1.2,1.12,2.64,2.64,0,0,1-1.3,1.12,22.35,22.35,0,0,1-3,.52,7.73,7.73,0,0,0-2,.6c-.74.26-2.76.71-3.69.93s-3.4.63-4.67.78-5.56.56-7,.64a49.13,49.13,0,0,1-6.79-.15c-2.39-.26-10.57-1.23-12-1.46A25.88,25.88,0,0,1,76,130.91,8.07,8.07,0,0,1,73,129.35a2,2,0,0,1-.41-1.83c.22-.49.5-.39.44-.19ZM99.7,127c.29.06,1,.15,1.7.23s1.54.23,2.08.27l1.7.15a20,20,0,0,0,2.19,0c.7,0,2-.11,2.55-.11s.69-.23,0-.27-1.7-.08-2.32-.08-1.73.08-2.27,0-1.12-.12-1.81-.15-1.43-.12-2-.2-1.31-.15-1.65-.15-.49.21-.2.27ZM88.21,130.8a16.6,16.6,0,0,0,2,.58c.58.07,1.5.23,2.47.3s2,.16,3,.2,2.74.07,3.55,0,1.35-.12,1.73-.12.5-.11-.07-.19a18.18,18.18,0,0,0-2.16-.08c-.73,0-1.85,0-2.55,0s-1.81-.07-3-.15-2.09-.19-2.86-.31-1.35-.23-1.73-.31-.64,0-.39.12ZM90,98.57a3.86,3.86,0,0,0,1.33-.24c.31-.13.47.1.47.36s-.14.36-.19.66a6.15,6.15,0,0,0-.11.9,1,1,0,0,1-.47.77,1.87,1.87,0,0,0-.63.62,1.73,1.73,0,0,0-.27.59c-.06.32.11.44.3.08s.31-.37.61-.72a4.92,4.92,0,0,0,.8-1,3.11,3.11,0,0,0,.3-1.34c0-.43,0-.94.29-.78a2.75,2.75,0,0,0,.93.3c.38.06.32.3.32.55s-.26.56-.42.83a13.19,13.19,0,0,0-.69,1.29,2.61,2.61,0,0,1-.38.86c-.22.26-.42.4-.63.65a7.24,7.24,0,0,1-.91.79c-.34.29-.8.71-1.3,1.06s-.6.42-.9.64-.39.13-.69.21-.6.39-.3.35.59,0,.47.34-.37.77-.5,1.16-.33.8-.5,1.28-.37,1-.5,1.34a1.09,1.09,0,0,0-.08.82,1.52,1.52,0,0,0,.55.86,13.83,13.83,0,0,1,1.29,1.07c.25.28.63.19,1.11.36a5.32,5.32,0,0,1,1.83,1A4.78,4.78,0,0,1,92.36,116a4.62,4.62,0,0,1,.39,1.82,5.84,5.84,0,0,1-.49,1.74,9.29,9.29,0,0,0-.42,1.16,4.16,4.16,0,0,1-1.13,1.48c-.37.34-.56.52-.9.86a2.21,2.21,0,0,0-.64.87.58.58,0,0,0,0,.16,2.47,2.47,0,0,0,.37-.22,8.25,8.25,0,0,0,1.13-1c.29-.26.73-.78,1-1.11a4.9,4.9,0,0,0,.82-1.51,6.09,6.09,0,0,0,.8-2.3,6.25,6.25,0,0,0-.5-2.4,4,4,0,0,0-1.15-1.7A5.58,5.58,0,0,0,90,113c-.66-.2-1.22-.11-1.56-.4s-.63-.56-.76-.68-.29-.26-.45-.38,2.76-.22,3.52-.36,3.67-.59,4.66-.63a17.07,17.07,0,0,1,3-.05,20,20,0,0,0,2,.27c.72.09,1.94.09,2.94.23s2.32.35,3.22.49,1.71.32,2.34.41.73,0,1.13.36.88,1,1.46,1.48a6.1,6.1,0,0,0,1.73,1.12,9.35,9.35,0,0,0,1.47.42,5.29,5.29,0,0,0-.09,1.69,3.76,3.76,0,0,1,.09,1.26c-.09.59-.27.82-.13,1.18a2,2,0,0,0,.12.26,2,2,0,0,0,.42-1.17,11,11,0,0,0,0-1.67c-.08-.68-.15-1.17.11-1.54a2.37,2.37,0,0,1,1.22-.76,3,3,0,0,0,1.12-.55c.45-.36.77-.56,1.2-1s.76-1,1.13-1.22.65-.45,1-.67.7-.36.79-.73a1.37,1.37,0,0,0-.17-1.09,5,5,0,0,1-.42-1.07c-.22-.61-.44-1.24-.64-1.93s-.38-1.39-.45-1.83-.15-.66-.49-.82a2.45,2.45,0,0,1-.91-.5,3.56,3.56,0,0,1-.83-1.08,3.28,3.28,0,0,0-.52-.89,5.28,5.28,0,0,1-.67-.76c-.28-.35-.51-.62-.77-.69s-.45,0-.64-.08-.29-.07-.17-.25a1.31,1.31,0,0,0,.23-1.08c-.08-.22,0-.33.2-.33s.41.21.56.35a1.65,1.65,0,0,0,.54.36,2.34,2.34,0,0,1,.78.37c.14.17.55.55.72.79s.29.24.21,0a2.08,2.08,0,0,0-.39-.71,7.53,7.53,0,0,0-.7-.68,7.1,7.1,0,0,1-.62-.68c-.09-.12-.28-.15-.43-.3a.26.26,0,0,1,0-.41,1.71,1.71,0,0,0,.72-1.07.24.24,0,0,1,.36-.18.86.86,0,0,1,.44.57c.06.26.28.44.41.72s.39.39.59.74.33.49.49.82a6.73,6.73,0,0,0,.33.61c.14.2.2.12.17-.13a2.27,2.27,0,0,0-.3-.91c-.13-.13-.31-.43-.5-.69a6.92,6.92,0,0,0-.61-.89,1,1,0,0,1-.31-.57,1.85,1.85,0,0,1,.87-.46.38.38,0,0,1,.48.18c.1.23.15.54.29.82a3.5,3.5,0,0,0,.35.6,1.39,1.39,0,0,1,.4.6,4.11,4.11,0,0,0,.35.78,2.51,2.51,0,0,0,.46.77,1.26,1.26,0,0,0,.45.36c.2,0,.24,0,.11-.18s-.27-.28-.27-.48a.44.44,0,0,1,.28-.42.61.61,0,0,1,.67,0,1.17,1.17,0,0,1,.49.6c.06.26.15.62,0,.79a1.89,1.89,0,0,1-.34.41c-.1,0-.29,0-.29-.14s-.13-.34-.15-.12a2,2,0,0,0,.14.81,3.27,3.27,0,0,0,.38.92,3.52,3.52,0,0,1,.55,1c.1.32.37.74.56,1.21s.5,1.13.72,1.67a12.52,12.52,0,0,0,.84,1.72,3,3,0,0,0,.7.93,1.89,1.89,0,0,1,.65,1,3.45,3.45,0,0,1,0,1.39,5.7,5.7,0,0,1-.24,1.31,1.65,1.65,0,0,1-.62.85,4.54,4.54,0,0,0-.93.93,10.08,10.08,0,0,0-.72.89c-.2.28-.8,1.09-1.06,1.52s-.57.93-.81,1.28a3.88,3.88,0,0,1-1,.89,4.91,4.91,0,0,1-1.06.61c-.43.17-.5.32-.17.26s.76-.18,1-.26.3-.07.24.19a1.92,1.92,0,0,1-.33.72,3.57,3.57,0,0,0-.33.54c0,.2.1.17.3-.09a8.48,8.48,0,0,1,.62-.6,1.11,1.11,0,0,0,.21-.89,1.13,1.13,0,0,1,.41-.71,5,5,0,0,0,.88-1.11c.28-.48.5-.88.78-1.32s.39-.57.68-1a13.5,13.5,0,0,1,1-1.2c.35-.39.71-.52,1-.91a2.83,2.83,0,0,0,.45-1.25,8.24,8.24,0,0,0,.21-1.48,2.25,2.25,0,0,0-.25-1.18s.52-.24.92-.56a8.24,8.24,0,0,0,1-1c.44-.48,1.5-1.58,1.8-2a10.59,10.59,0,0,1,1.06-1.47,1.77,1.77,0,0,0,.61-1.28c0-.36,0-.33.28-.08s.38.2.54.33.25,0-.09-.3a2.39,2.39,0,0,1-.48-.56,3.91,3.91,0,0,0-.53-.76c-.28-.33.17-.2.41,0s.21-.19-.12-.4c-.17-.12-.38-.16-.68-.32a4.94,4.94,0,0,1-.89-.55c-.28-.24-.62-.52-.95-.77a9.2,9.2,0,0,0-1.12-.72c-.46-.28-.92-.52-1.35-.76s-.78-.4-1.1-.6a6.52,6.52,0,0,1-1-.6c-.26-.25-.16-.28.06-.2s.28,0,.35.09.21,0,0-.24c-.1-.12-.27-.17-.59-.19a4.38,4.38,0,0,1-1.2-.23,1.29,1.29,0,0,1-.72-.58c-.24-.32-.39-.72-.14-.77a3.23,3.23,0,0,1,1-.08,5.46,5.46,0,0,1,1.54.43,15.1,15.1,0,0,1,1.87,1.15,22.75,22.75,0,0,0,2,1.14,16.58,16.58,0,0,1,1.64.84c.51.32,1.38,1.15,2,1.55a1.6,1.6,0,0,0,1.68.13,1.7,1.7,0,0,0,.49-1.29,4.25,4.25,0,0,0-.43-1.84,8.56,8.56,0,0,0-1.36-1.79l-1.88-1.88a23.74,23.74,0,0,0-1.88-1.52,11.18,11.18,0,0,0-1.73-1,9.32,9.32,0,0,0-1.83-.6c-.47-.11-1.07-.17-1.59-.34a3.05,3.05,0,0,1-1.22-.65.49.49,0,0,1,.28-.7c.32-.11.5-.71.77-1.07s.47-.66.88-.72c.26,0,.37,0,.5-.31a.85.85,0,0,1,.33-.32.9.9,0,0,1,.83,0c.29.18.11.33,0,.36s.09.16.53,0a1.67,1.67,0,0,1,1.44.24c.33.23.56.42,1,.82a2.72,2.72,0,0,0,.73.48c.4.16.84.24,1.26.39a8.46,8.46,0,0,1,1.48.67,6.79,6.79,0,0,0,1.36.58,2,2,0,0,0,1.12.1,2.18,2.18,0,0,1,1.24.08,2.66,2.66,0,0,1,1.08.8c.19.29.38.62.6.92s.27.18.12-.23c0-.12-.06-.23,0-.25a1.47,1.47,0,0,1,.89.09,3.9,3.9,0,0,1,1.14.55,2.72,2.72,0,0,1,.77.8s-.06.14-.24.34a1.7,1.7,0,0,0-.41.66c-.12.36,0,.36.23,0a2.16,2.16,0,0,1,.77-.68c.4-.27.88-.56,1.4-.84a15.25,15.25,0,0,0,1.64-1.2c.47-.36.77-.62,1.12-.84s.51-.12.45.36-.08.68-.17,1.2a4.87,4.87,0,0,1-.4,1.28c-.24.56-.35.82-.6,1.29s-.35.7-.64,1.27a3.93,3.93,0,0,1-.87,1.17,1.75,1.75,0,0,1-1.13.48,1.82,1.82,0,0,0-.8.13c-.31.14-.27.35.12.25a1.8,1.8,0,0,1,.73,0c.32,0,.27,0,.27.31a11,11,0,0,1-.2,2.09,10.8,10.8,0,0,1-.68,2.15c-.36.88-1,2.43-1.48,3.43s-.91,1.84-1.31,2.68-1.47,2.34-1.94,3.16a22,22,0,0,1-1.72,2.42c-.53.66-1.13,1.25-1.64,1.91s-2.22,2.66-2.79,3.33-1.57,1.7-2,2.16-.67.72-1,.76-1.91.07-2.83.13-2.93.19-3.57.19a21.38,21.38,0,0,1-2.16-.2h0l-1.71-.25c-.59-.09-1.37-.29-1.89-.41l-1.4-.37h0c-.57-.17-1.08-.29-1.71-.42a17.79,17.79,0,0,0-2.08-.45c-.91-.12-3.16-.69-4.07-.87s-2-.46-3.49-.64a25.83,25.83,0,0,0-3.25-.21c-.91,0-1.94-.12-2.63-.11a2.8,2.8,0,0,0-1.59.38c-.5.32-.58.68-.13.68a5.5,5.5,0,0,1,1,.07.81.81,0,0,1,.56.33,6.39,6.39,0,0,0,.35,1.31c.22.46.29.78,0,1.09a6.14,6.14,0,0,0-.84,1.45,2.77,2.77,0,0,1-1.17,1.2,5.17,5.17,0,0,1-1.33.33,14.75,14.75,0,0,0-1.81.37,3,3,0,0,1-1.4.09c-.55-.09-1-.08-1.36-.18a1.71,1.71,0,0,0-1-.09h0a.34.34,0,0,0-.28.36c0,.25-.06.38.09.58a.75.75,0,0,1,.08.86,1.74,1.74,0,0,1-.85.82c-.48.2-.86.39-1.12.51a4.7,4.7,0,0,0-1.08.78,1.39,1.39,0,0,1-1.41.25,15.63,15.63,0,0,0-1.59-.38,5.27,5.27,0,0,1-1.22-.19,4.22,4.22,0,0,1-1-.46c-.3-.17-.43-.17-.51.09a1.54,1.54,0,0,1-1.18.87,4.55,4.55,0,0,1-.84-.61c-.22-.19-.52-.42-.91-.76a4.73,4.73,0,0,0-1.08-.78c-.48-.25-.9-.54-1.31-.72-1-.43-2-1-3-1.47s-2.72-1.31-4.1-2.12-2.67-1.67-4.26-2.77a25.22,25.22,0,0,1-3.68-3.23,17.27,17.27,0,0,1-4.71-9.53,19.6,19.6,0,0,1,0-5.14,12.72,12.72,0,0,1,1.64-4.27,9.31,9.31,0,0,1,2.23-2.64,8.34,8.34,0,0,1,3.51-1.81,20.42,20.42,0,0,1,3.42-.81,12.26,12.26,0,0,1,2.17-.2,10,10,0,0,1,1,1.55,13.44,13.44,0,0,0,1.57,2.21,12.9,12.9,0,0,0-1.94-.2,10.87,10.87,0,0,0-3.66.49,6.83,6.83,0,0,0-3.18,2,9.09,9.09,0,0,0-1.57,3.08,10.08,10.08,0,0,0-.26,3.88,23.75,23.75,0,0,0,1,3.67,8.22,8.22,0,0,0,1.76,2.7A6.76,6.76,0,0,0,65,112.93a12,12,0,0,0,3.37.94,9.15,9.15,0,0,0,3.29,0,9,9,0,0,1,1.09-.27,8.42,8.42,0,0,0-.56,2.1,8,8,0,0,0,0,2.74c.16.75.45,1.17,1.18,1.17a3.8,3.8,0,0,0,1.92-.65,7.27,7.27,0,0,0,1.83-1.43,4.06,4.06,0,0,0,1-1.71,9.14,9.14,0,0,1,.61-2c.17-.33.29-.63.42-.82s.47-.23.53.19a1,1,0,0,0,.46.67c.27.16.58.2.85.38a3.45,3.45,0,0,1,1.24,1.22,1.2,1.2,0,0,1,0,1.21,4.32,4.32,0,0,1-.58,1.2A4.73,4.73,0,0,1,80,119.12a1.78,1.78,0,0,0-1,.84,1.34,1.34,0,0,1,.39-.23c.52-.22,1.36-.62,1.75-.83a2.6,2.6,0,0,0,1-1.09,12.57,12.57,0,0,0,.66-1.54,1.25,1.25,0,0,0-.39-1.07,8.36,8.36,0,0,0-.86-.8,3.44,3.44,0,0,0-1.08-.6c-.35-.13-.48-.7-.48-1.09a1.56,1.56,0,0,1,.41-1.18,3.52,3.52,0,0,0,.84-.71c.23-.3.74-.95.92-1.25s.75-1.12,1-1.54a14.85,14.85,0,0,0,.81-1.58c.18-.39.36-1,.53-1.33s.38-1.09.49-1c.27.17.22,0,.1-.27a1,1,0,0,1,.21-.88,4.19,4.19,0,0,1,1.17-.73,8.69,8.69,0,0,1,1.4-.52c.23.11.27.13.18-.12s.49-.63.71-.84a8.38,8.38,0,0,1,1-.81c.25-.17.31-.24.27-.46s-.22-.34-.22-.55,0-.37.26-.35Zm15.07,13a4.88,4.88,0,0,1,1.21,1.23,3.74,3.74,0,0,1,.57,1.65c0,.77-.1.85-.25.35a5.78,5.78,0,0,0-.41-1.41,3.5,3.5,0,0,0-.85-1.24c-.36-.29-.56-.79-.27-.58Zm-4.08-.21a2.88,2.88,0,0,1,.46,1.22,16.2,16.2,0,0,1,.15,1.78c0,.65-.26.82-.3.24s-.14-1.08-.21-1.66a9.48,9.48,0,0,0-.29-1.37C100.7,111,100.84,111,101,111.33Zm-7.92.08c0,.35-.14,1.21-.19,1.71s0,.78,0,1.19-.22.47-.27,0a5.84,5.84,0,0,1-.08-1.21c0-.4.12-.65.25-1.29s.35-.72.3-.37Zm42.28-21.6a3.69,3.69,0,0,1,.76-.14,1.4,1.4,0,0,1,1,.45,2.3,2.3,0,0,1,.46,1.18,3.42,3.42,0,0,1,0,.9c0,.26-.15.26-.4.18a7.93,7.93,0,0,1-1-.45,2.75,2.75,0,0,1-.94-.92,1.79,1.79,0,0,1-.18-.77C135.07,90,135.21,89.83,135.39,89.81Zm6.26,4.73a1.8,1.8,0,0,1,.34-1.18,5.66,5.66,0,0,1,1.27-1.07,15.34,15.34,0,0,0,1.23-1c.38-.33.85-.79,1.15-1.11.15-.16.3-.23.36-.21s.05.13-.11.34a14.42,14.42,0,0,1-1.09,1.24c-.4.39-.85.85-1.28,1.2a5.12,5.12,0,0,0-.92.86,2.27,2.27,0,0,0-.46.88C142,94.89,141.67,95,141.65,94.54Zm-14.44-8.2c.09-.21.46-.3.79-.2a1.67,1.67,0,0,1,.76.4A.66.66,0,0,1,129,87c0,.25-.05.28-.19.08a1.28,1.28,0,0,0-.46-.35c-.12-.07-.29-.18-.39.07,0,.06-.19.12-.35.11a.64.64,0,0,1-.33-.13.49.49,0,0,1-.09-.45Zm7.72,4.17c0,.14.11.44.15.66a1.2,1.2,0,0,1-.07.55,5.88,5.88,0,0,0-.17,1c0,.35-.13.73-.23.37A2.47,2.47,0,0,1,134.5,92a4,4,0,0,1,.21-1c.09-.31.21-.63.22-.49ZM90.16,98.24a2.41,2.41,0,0,0,.6,0,1.83,1.83,0,0,0,.58-.24,1.16,1.16,0,0,0-.09-.42.83.83,0,0,0-.44-.5.86.86,0,0,0-.54-.11c-.22,0-.4.11-.21.18s.21.21.23.37a1.08,1.08,0,0,1-.06.44c0,.09-.11.27-.07.28Zm2.42-.11a1.13,1.13,0,0,0,.41.25,1,1,0,0,0,.45,0s0-.09.06-.3a1.89,1.89,0,0,0-.06-.62.79.79,0,0,0-.26-.42,1.17,1.17,0,0,0-.49-.26c-.16,0-.29,0-.17.08a.65.65,0,0,1,.18.42,1.51,1.51,0,0,1,0,.48,2.77,2.77,0,0,1-.1.34Zm1.83,1.47a1.18,1.18,0,0,0,.26.37,1.71,1.71,0,0,0,.42.28s.1-.14.15-.28a1.12,1.12,0,0,0,.1-.47,1.16,1.16,0,0,0-.1-.47A.81.81,0,0,0,95,98.7c-.12-.11-.25-.18-.18,0a.7.7,0,0,1,0,.38.6.6,0,0,1-.18.33C94.53,99.51,94.4,99.57,94.41,99.6Zm-.23.17a3.11,3.11,0,0,0,.72.79c.13.06.08.38,0,.52s-.28.25-.44.36-.36.36-.59.52a5.17,5.17,0,0,0-.54.46,1.7,1.7,0,0,1-.66.34c-.46.15-.58.18-.33-.07a2.42,2.42,0,0,0,.55-.73,4.81,4.81,0,0,1,.32-.82c.12-.19.38-.6.5-.83a1.43,1.43,0,0,1,.25-.47c.11-.12.2-.08.21-.06Zm11.35,2.82a7.59,7.59,0,0,1,.23,1.09s-.2.06-.45.21-.62.34-.91.52-.68.29-.85.52-.44.54-.65.79a2.05,2.05,0,0,0-.3.7c-.06.14-.17.21-.3,0a2.18,2.18,0,0,0-.66-.72.4.4,0,0,1-.21-.5.81.81,0,0,1,.54-.44,1.84,1.84,0,0,0,.66-.52c.19-.21.18-.5.53-.73a2.91,2.91,0,0,1,.93-.35,7.7,7.7,0,0,0,.83-.25,4.84,4.84,0,0,1,.61-.26Zm-2.39,4.33a2.16,2.16,0,0,1,1.14.44c.21.21.35.2.52.11s.15-.28.23-.58a1.61,1.61,0,0,1,.45-.81,2,2,0,0,0,.5-.42,13.24,13.24,0,0,0-.15-1.6,3.09,3.09,0,0,0-.49.27,5.23,5.23,0,0,1-.81.44,1.28,1.28,0,0,0-.66.49c-.17.26-.3.55-.45.74s-.38.25-.44.44,0,.47.16.48Zm-.16.26a1.37,1.37,0,0,1,.54.1,1.69,1.69,0,0,1,.47.26c.09.07-.1.12-.19.22a1.58,1.58,0,0,0-.31.42.83.83,0,0,0-.11.42,1.88,1.88,0,0,0,0,.28c0,.1,0,.17-.13.06a1.78,1.78,0,0,1-.35-.32,1,1,0,0,1-.24-.53,1.15,1.15,0,0,1,0-.59c.07-.15.19-.33.24-.32Zm-1.55-1.35a.92.92,0,0,1,.39.28,1.55,1.55,0,0,1,.33.54c0,.13-.1.08-.25.15a.8.8,0,0,0-.4.33.78.78,0,0,0-.13.42c0,.17,0,.21-.1.1a1.06,1.06,0,0,1-.24-.51,1.54,1.54,0,0,1,0-.71,1.5,1.5,0,0,1,.2-.42c.06-.1.11-.19.16-.18Zm-.73-2a.67.67,0,0,1,.33.33,1.13,1.13,0,0,1,.12.59c0,.16-.12.08-.3.13a1.6,1.6,0,0,0-.45.16.76.76,0,0,0-.32.39c0,.16-.08.34-.16.1a1,1,0,0,1-.07-.63,1.2,1.2,0,0,1,.27-.64,1.11,1.11,0,0,1,.32-.31c.1-.07.18-.16.26-.12Zm.15-.2a1.23,1.23,0,0,1,.6.84c0,.21.15.12.33,0a1.84,1.84,0,0,0,.57-.4c.13-.15.17-.43.3-.57a1.57,1.57,0,0,1,.47-.4c.38-.18.4-.23,0-.2s-.48,0-.75,0-.52.07-.76.12a1.55,1.55,0,0,0-.59.14c-.17.1-.24.34-.14.4ZM111.31,106a5.06,5.06,0,0,0,.6,1,14.87,14.87,0,0,1,1,1.46c.2.36.72,1.09,1,1.4a6.13,6.13,0,0,0,1,1c.28.22.52.64.43.33a6,6,0,0,1-.21-1.12,4.51,4.51,0,0,0-.24-1.17,2.05,2.05,0,0,0-.58-1,5.46,5.46,0,0,0-.91-.6c-.33-.18-.7-.47-1.1-.74s-1-.67-1-.52Zm4.53,5.66a10.86,10.86,0,0,0,1.14-.15l1.47-.31c.3-.06.66-.13.86-.15l.74,0c.28,0,0,.14-.22.3a2.47,2.47,0,0,0-.62.59,7.8,7.8,0,0,1-.66.76,6,6,0,0,1-.79.72c-.28.19-.56.45-.57.4a2,2,0,0,0-.46-.86c-.19-.22-.45-.68-.61-.86s-.41-.41-.27-.42Zm3.93-21.28a3.29,3.29,0,0,0,.47.87,4.84,4.84,0,0,0,.86.81,6.87,6.87,0,0,0,1.2.66,7.81,7.81,0,0,0,1.44.44,17,17,0,0,0,1.89.22,2.77,2.77,0,0,0,.4-.51,7.19,7.19,0,0,0,.43-.71,2.25,2.25,0,0,0-.76-.11,1.53,1.53,0,0,1-.64.45c-.2.07-.21-.36-.2-.5a2.13,2.13,0,0,0-.43-.11c-.43-.07-.72-.11-1.29-.23s-1-.18-1.53-.32a3.44,3.44,0,0,1-1.07-.48,1.76,1.76,0,0,1-.54-.5c-.19-.28-.3-.4-.23,0Zm20.46,0a3.73,3.73,0,0,1,1.32,1c0,.06.17-.51.25-1s.18-1.22.26-1.63.15-.77.19-1.14-.13-.49-.27-.18a5.11,5.11,0,0,1-.67,1,5.89,5.89,0,0,0-.71,1,3.62,3.62,0,0,0-.37.92Zm-6.47-1.94a4.83,4.83,0,0,0,1,.41,1.75,1.75,0,0,0,1-.07,3.58,3.58,0,0,0-.57-.44,1.08,1.08,0,0,0-.92-.08C133.77,88.42,133.55,88.34,133.76,88.44Zm9.48,9.78a10.07,10.07,0,0,1-.49,2.38c-.18.48,0,.32.26.07a6.5,6.5,0,0,0,.75-.66c.19-.23.21-.23.06-.67s-.26-.62-.39-.93-.16-.45-.19-.19ZM141.81,103c-.27.78-1,2.44-1.48,3.41-.23.46,0,.21.34,0s.67-.47,1.05-.77.3-.24.29-.72-.07-.93-.08-1.37,0-.83-.12-.57Zm-5.09,9.46c.4-.48,1.62-2.42,2-3s.28-.47.26.12,0,1.32-.08,1.82,0,.6-.49.81a11.75,11.75,0,0,1-1.4.48c-.42.12-.51.1-.28-.18Zm-4.79,5.68c.3-.33,2.68-3.11,3-3.55s.25-.24.19.17c-.09.57-.33,1.84-.43,2.26s-.1.62-.64.79-1,.31-1.6.46-.84.19-.54-.14Zm-1.73,1.69c-.25.32-.59.59-.83.85s-.52.55-.17.54.51,0,.71,0,.4.15.43-.1c0-.42,0-.52.07-1s.06-.61-.21-.27Zm-34.39-1.72a3.72,3.72,0,0,1,1-.36c.22,0,.15,0,.16.14a2.49,2.49,0,0,0,.07.5c.06.26.07.25-.15.15a1.58,1.58,0,0,0-.6-.13,4,4,0,0,0-.49,0C95.53,118.37,95.55,118.21,95.81,118.06ZM126.9,92.31a8.2,8.2,0,0,1,.87.42c.26.14.65.36,1,.57s.66.43,1.05.72a12.73,12.73,0,0,1,1.09.91c.25.26.66.63,1,.92s.58.58.89,1a8,8,0,0,0,1,1c.33.28.73.62,1,.79a1.41,1.41,0,0,1-.2.49,6.33,6.33,0,0,1-.94-.81c-.27-.24-.81-.91-1-1.11a8.25,8.25,0,0,0-1.06-1,16.73,16.73,0,0,0-2-1.42c-.47-.21-1.33-.7-1.79-.86l-1-.33s.07-.31.12-.52.09-.68.1-.68Zm-13.16,6.94a1.32,1.32,0,0,1,.54-.11c.2,0,.28.21.39.08a1.08,1.08,0,0,0,.15-.81c0-.12-.23-.11-.52,0a1,1,0,0,0-.66.54C113.43,99.35,113.57,99.34,113.74,99.25Zm1.14-3a1.1,1.1,0,0,1,.55.09c.17.1.3.46.37.44a.87.87,0,0,0,.64-.82c0-.08-.12-.13-.31-.18a2.69,2.69,0,0,0-.7,0,1,1,0,0,0-.54.19C114.69,96,114.56,96.18,114.88,96.2Zm2.36-1.51a1.63,1.63,0,0,1,.66,0,.86.86,0,0,1,.45.29c.12.13.31.35.22.36a1,1,0,0,0-.67.31s-.09-.18-.18-.32a.78.78,0,0,0-.3-.33l-.26-.12c-.19-.09-.15-.15.08-.2"/><path id="path22" class="cls-9" d="M100.76,24.86a3.5,3.5,0,0,0,.25.91c.19.4.28.71.47,1s.26.39.29.27.08-.23.12,0a2.27,2.27,0,0,0,.25.69c.12.22.27.55.39.74a6.45,6.45,0,0,1,.37.54,2.06,2.06,0,0,1,.28.62,1.49,1.49,0,0,1,0,.54c0,.23-.13.61-.19.83s-.21.62-.28.86-.12.6-.21.81-.4.74-.55,1-.47.75-.71,1.1a10.7,10.7,0,0,1-.84,1.16,6.15,6.15,0,0,1-1,.91,5.16,5.16,0,0,1-1,.54,2.59,2.59,0,0,1-1,.23,3,3,0,0,1-1.28-.32,5.14,5.14,0,0,1-1-.84,6,6,0,0,1-.72-.92A2.88,2.88,0,0,1,94,34.5a9.07,9.07,0,0,1-.18-1.66,12.32,12.32,0,0,0,0-1.38,3.24,3.24,0,0,1,.07-.92,1.88,1.88,0,0,1,.17-.51c.06-.12.52-.77.64-1a9,9,0,0,0,.37-.85c.12-.25.36-.71.49-.92s.08-.24.39-.36.54-.46.83-.62a2.27,2.27,0,0,1,.75-.25c.22,0,.34,0,.31.14s-.15.32.18.27a5.63,5.63,0,0,0,1-.25,2.69,2.69,0,0,0,.9-.52,4.47,4.47,0,0,0,.62-.61c.11-.14.18-.25.18-.25Zm-3.35,7a.4.4,0,0,0-.32.2.78.78,0,0,0-.16.51c0,.24,0,.32.2.4a1.46,1.46,0,0,1,.53.26,1.56,1.56,0,0,0,.57.31,1.31,1.31,0,0,0,.56.09,1.17,1.17,0,0,1,.39,0,.39.39,0,0,0,.36,0,1,1,0,0,0,.3-.54,1.34,1.34,0,0,0,0-.49c-.05-.13-.08-.21-.15-.11s0,.29,0,.43a.72.72,0,0,1-.16.39c-.16.23-.33.15-.54.11a5,5,0,0,1-.58,0,1.19,1.19,0,0,1-.46-.24,1.14,1.14,0,0,0-.43-.27c-.12,0-.24,0-.26-.21a1,1,0,0,1,.05-.43c0-.1.07-.18.17-.21s.19,0,.18-.1-.09-.08-.2-.06Zm-1.2,2.51.77-.06.48-.06a.23.23,0,0,1,.28.11.45.45,0,0,0,.41.18c.19,0,.24,0,.35.1s.19.23.3.38.14.2.21.28,0,.14-.1.11a2.34,2.34,0,0,1-.51-.2.81.81,0,0,0-.4-.12,1,1,0,0,1-.58-.2.71.71,0,0,0-.4-.19,3.81,3.81,0,0,1-.53-.16c-.22-.07-.38-.16-.28-.17Zm1.24,1.23.51.17c.14,0,.11,0,.09.12a.89.89,0,0,0,0,.23c0,.07,0,.14-.15,0a1.47,1.47,0,0,0-.54-.22,4.13,4.13,0,0,0-.49-.07c-.17,0-.31,0-.43,0s-.17-.1,0-.16a1.06,1.06,0,0,0,.28-.17.21.21,0,0,1,.22-.05,5.7,5.7,0,0,1,.55.16Zm1.21-7c.16-.05.22-.12,0-.26s-.35-.22-.6-.36l-.6-.36a.58.58,0,0,0-.31-.11,2.72,2.72,0,0,0-.49,0,2.24,2.24,0,0,0-.52.06c-.19,0-.49.22-.14.22a5,5,0,0,1,.75,0,1.4,1.4,0,0,1,.54.15,3.41,3.41,0,0,1,.42.28,2.22,2.22,0,0,0,.46.29.55.55,0,0,0,.31.11.63.63,0,0,0,.18,0Zm2,.68a.5.5,0,0,1,.48-.19c.28,0,.63.12.84.14a1.34,1.34,0,0,1,.72.21,2.28,2.28,0,0,1,.35.37c.11.14.12.41,0,.32a4.1,4.1,0,0,0-.41-.34,1.16,1.16,0,0,0-.54-.19l-.61-.06a5.14,5.14,0,0,1-.58-.09c-.18,0-.32-.11-.29-.17Zm-.28.16a1.45,1.45,0,0,0-.49.34,1.87,1.87,0,0,0-.34.66c-.06.23-.2.68-.24.9a3,3,0,0,0-.06.58,2.15,2.15,0,0,0,0,.4c0,.14.11.33.12.1a3.93,3.93,0,0,1,.07-.78c.08-.32.13-.6.21-.87A5.28,5.28,0,0,1,100,30a2,2,0,0,1,.24-.31c.07-.09.26-.23.14-.2Zm-2.51.17A1.5,1.5,0,0,0,97.3,29a1.29,1.29,0,0,0-.73-.17,3.39,3.39,0,0,0-.57.09c-.26.05-.2.09-.13.24a1,1,0,0,0,.26.39,1.33,1.33,0,0,0,.61.32,4,4,0,0,0,.65.09,2.94,2.94,0,0,1,.39,0c.09,0,.2,0,.22,0s0-.15-.09-.27Zm2.62.84a1.55,1.55,0,0,1,.85-.26,1.56,1.56,0,0,1,.68.23,1.28,1.28,0,0,1,.41.39c.14.17.1.2,0,.28a1,1,0,0,1-.42.15,1.29,1.29,0,0,1-.65-.06,4.59,4.59,0,0,1-.57-.26,3.6,3.6,0,0,0-.33-.17c-.08,0-.18-.07-.17-.12s.09-.12.21-.18ZM62.46,63.3c.1.2.42.72.63,1.17s.4.81.53,1.18c.06.15.18.53.22.66a1.94,1.94,0,0,1-.32.47,2.64,2.64,0,0,1-.78.63,6.3,6.3,0,0,1-1.16.33c0-.17-.15-.75-.22-1.11s-.14-.64-.18-.81a3,3,0,0,1-.09-.38,1.1,1.1,0,0,0,.38.09,1.52,1.52,0,0,0,.62,0c.2-.07.27-.15.07-.13a2.64,2.64,0,0,1-.81-.07,5.49,5.49,0,0,1-.81-.27,1.36,1.36,0,0,1-.61-.57c-.08-.15-.21-.29-.2-.33a1.68,1.68,0,0,1,.06-.27,1.93,1.93,0,0,1,.17-.21c.11-.23,0-.22-.08,0s-.13.09-.18.17c-.16.24,0,.35-.21.44a1.23,1.23,0,0,1-.53.14.67.67,0,0,1-.45-.12c-.12-.1-.12-.17-.27-.18s-.25,0-.07.06a.5.5,0,0,1,.32.2.54.54,0,0,1,.14.42.73.73,0,0,1-.15.47.82.82,0,0,1-.41.25c-.13,0-.25-.22-.25-.45a2.56,2.56,0,0,0,0-.47c-.08-.16,0-.37-.08-.6s0-.36.19-.46.72-.21.91-.3a2,2,0,0,1,.84-.18c.35,0,.79,0,1,0a3.8,3.8,0,0,1,.75.13,5.1,5.1,0,0,0,.65.12,2.65,2.65,0,0,1,.38.06ZM58,68c-.12.09-.1.34,0,.49s.15.27.31.3a1.08,1.08,0,0,0,.53,0,4.23,4.23,0,0,0,.78-.2,2.43,2.43,0,0,0,.51-.3.4.4,0,0,0,.12-.37c0-.15-.06-.25-.21-.3a1.14,1.14,0,0,0-.6,0c-.21.07-.56.09-.82.16A2.52,2.52,0,0,0,58,68Zm-.69-1.18a1.44,1.44,0,0,1,.55-.21l.57-.14c.26-.07.5-.1.79-.17a2.29,2.29,0,0,1,.71,0,.51.51,0,0,1,.46.3.54.54,0,0,1-.13.55,1.91,1.91,0,0,1-.66.28l-.85.19c-.17,0-.38.12-.59.16a1,1,0,0,1-.57,0,.73.73,0,0,1-.34-.41.44.44,0,0,1,.06-.5Zm-.16-1.47a2,2,0,0,1,.52-.18c0,.28.07.58.39.5a.91.91,0,0,0,.72-.68,4.4,4.4,0,0,1,.81,0,.52.52,0,0,1,.47.4c0,.19.12.39-.09.55a1.61,1.61,0,0,1-.73.23l-1,.17c-.34.07-.7.2-.84.23a.65.65,0,0,1-.37,0,.51.51,0,0,1-.23-.44.82.82,0,0,1,.05-.49c.06-.13.21-.2.32-.27Zm-.41-.24c.08.07.22.07.43,0a1.76,1.76,0,0,0,.48-.15,1.47,1.47,0,0,0-.06-.47,1.84,1.84,0,0,1-.09-.64,1.49,1.49,0,0,0-.39.09.61.61,0,0,0-.43.59c0,.29,0,.5.06.56Zm2.06-.31a1,1,0,0,0,0-.3,1.06,1.06,0,0,0,.27,0,.71.71,0,0,0,.26-.09.23.23,0,0,1,0,.13.31.31,0,0,1-.18.22A1,1,0,0,1,58.81,64.75Zm61.43-12.12a5,5,0,0,0,.4,1c.2.38.52.87.67,1.09s.16,0,.44,0a2.18,2.18,0,0,1,.78.1,2.93,2.93,0,0,0,.74,0c.35,0,.6-.08.8-.1a2.14,2.14,0,0,1,.56,0c.24,0,.55,0,.8.07l.85.18a1.47,1.47,0,0,0,.68-.06.58.58,0,0,0,.39-.31.39.39,0,0,0-.13-.45,1.52,1.52,0,0,0-.64-.34,5,5,0,0,0-.55-.1,2,2,0,0,1-.57-.16,3.57,3.57,0,0,1-.48-.28.62.62,0,0,1-.26-.29c-.11-.2-.06-.26,0-.21s.2-.07.23-.22a2.63,2.63,0,0,1,.21-.51c.1-.19.22-.21.41-.29a1.33,1.33,0,0,0,.45-.24,2.2,2.2,0,0,0,.26-.27c.09-.11.16-.14.13,0a.52.52,0,0,1-.16.29c-.15.16,0,.21.27.24a5.58,5.58,0,0,0,.61.05,1.43,1.43,0,0,0,.47,0c.17,0,.2,0,.12.06a.56.56,0,0,1-.36.12c-.25,0-.27,0-.2.22a2.56,2.56,0,0,0,.24.44c.08.11.08.26.12.27a1.52,1.52,0,0,1,.49.32,1.23,1.23,0,0,1,.31.44c.06.16.19,0,.23-.23s.07-.41.09-.55a1.3,1.3,0,0,0-.11-.63l-.36-.88a1.63,1.63,0,0,0-.38-.58,1.47,1.47,0,0,0-.59-.3c-.27-.08-.52-.2-.85-.3s-.56-.13-.83-.2a2.54,2.54,0,0,0-.9-.19,1.11,1.11,0,0,0-.66.37c-.24.25-.91.74-1.19,1s-.56.42-.86.65a5,5,0,0,1-.83.55c-.42.24-.89.38-.89.41"/><path id="path24" class="cls-10" d="M117,75.34c2.14,0,3.89.41,3.89.92s-1.75.91-3.89.91-3.89-.41-3.89-.91S114.87,75.34,117,75.34Zm0,4.3c2.07,0,3.77-1.19,4-2.72a11.84,11.84,0,0,1-4.32.6,10,10,0,0,1-3.64-.6C113.23,78.45,114.94,79.64,117,79.64Zm19.78-4.3c-2.14,0-3.89.41-3.89.92s1.75.91,3.89.91,3.89-.41,3.89-.91S138.94,75.34,136.79,75.34Zm0,4.3c-2.06,0-3.77-1.19-4-2.72a11.84,11.84,0,0,0,4.32.6,10,10,0,0,0,3.64-.6C140.57,78.45,138.86,79.64,136.79,79.64Zm-8.35-17.32a1,1,0,0,0,.23.22l-.45,1c1.75,0,4.43.06,5,.09.71,0,3.22.3,3.76.23s.75-.33,1.09-.91.7-1.26.2-1.17-.76.84-1,1.21-.58.26-1.3.19-2.58-.42-4-.56c-.9-.09-2.32-.2-3.47-.26Zm-3.14,0c-1.14.07-2.53.17-3.41.26-1.41.14-3.27.49-4,.56s-1.07.14-1.31-.19-.52-1.12-1-1.21-.14.6.2,1.18.56.83,1.09.9,3-.2,3.76-.23c.53,0,3.15-.1,4.9-.12-.13-.33-.37-.76-.46-1A.92.92,0,0,0,125.3,62.32Zm1.6,3.42h0s-1-2.3-1.1-2.73-.15-.3.06-.55a5.21,5.21,0,0,0,.58-1.87c0-.49.09-1.38.06-1.9s-.06-2.33-.15-2.73c0-.23-.23-.58-.35-.92a5.57,5.57,0,0,0,.82,0c.44-.08.72-.29.75-.49a.82.82,0,0,0-.29-.7,1.78,1.78,0,0,0-.91-.37c.06-.15.36-.21.53-.21h0a1.11,1.11,0,0,1,1,1.13c0,.52-.4,1.17-.49,1.57s-.12,2.2-.15,2.72,0,1.41.06,1.9a5.34,5.34,0,0,0,.58,1.88c.22.24.22.12.06.55s-1.09,2.7-1.1,2.72Zm0-3.46a.69.69,0,0,1,.69.69.69.69,0,1,1-.69-.69ZM98.71,18a10.8,10.8,0,0,1,4.12,20.79,6.15,6.15,0,0,1,.53-.82,10.69,10.69,0,0,0,1.73-2.26,10.23,10.23,0,0,0,.47-3.17c0-.95-.15-1.9-.07-2.84a14.2,14.2,0,0,0,.12-3,5.83,5.83,0,0,0-.86-2.55,6.4,6.4,0,0,0-2-1.71c-.81-.39-1.21.12-1.33.07s-.11-.69-1-.85c-1.35-.25-2.8.32-4.19.57a3.69,3.69,0,0,0-2.38,2.11c-.6,1.2-1.26,2.28-1.77,3.47-.62,1.45-1.36,1.66-1.73,2.65a10.75,10.75,0,0,0-.57,2.69c0,.52-.07,1.15-.07,1.63a10.79,10.79,0,0,1,9-16.8ZM49,29.6c-.23.07-.33,4.19.39,6.73l6.8,24.28.4,1.35a16.16,16.16,0,0,0,1.67-.39c.55-.16,1.1-.35,1.64-.55l-.39-1.37L52.25,35.5c-.74-2.53-3-6-3.27-5.9Zm9.59,33.05c-1.81.53-3.69.89-5.52,1.25l-.6-1.43a14.32,14.32,0,0,0,3.58,0c1-.22,1.91-.44,2.31-.55s1.27-.39,2.25-.78a13.94,13.94,0,0,0,3-1.8l.28,1.46c-1.74.68-3.53,1.37-5.34,1.89Zm2,7a1.1,1.1,0,1,1-.93,1.4A1.21,1.21,0,0,1,60.59,69.64Zm-1,.27a1.66,1.66,0,0,1,.81-.52,2.49,2.49,0,0,1,1.14,0s-.06-.49-.09-.72-.11-.85-.18-1.23S61,66.22,60.93,66l-.16-.57s-.08,0-.22,0-.24-.11-.23-.09a1.81,1.81,0,0,1,0,.4.37.37,0,0,1-.13.28c-.15.12-.22.12,0,.15a.52.52,0,0,1,.38.45.77.77,0,0,1-.14.58.79.79,0,0,1-.21.2c-.22.1-.17.07,0,.11s.18.24.19.37a.65.65,0,0,1-.11.43,1.62,1.62,0,0,1-.46.31,2.33,2.33,0,0,1-.55.22c-.17,0-.29,0-.29.06l.35.72a1.64,1.64,0,0,0,.23.36"/><path class="cls-2" d="M77.4,99.39c-12.64,0-22.88,10.17-22.88,30.52,0,25.43,18.21,50.86,40.68,50.86s40.69-25.43,40.69-50.86c0-20.35-10.25-30.52-22.89-30.52a22.92,22.92,0,0,0-17.8,8.5,22.9,22.9,0,0,0-17.8-8.5Zm0,0"/><rect class="cls-2" x="22.38" y="112.61" width="145.64" height="54.95" rx="5.46"/><text class="cls-11" transform="translate(34.18 134.35)">Biała Podlaska</text><text class="cls-12" transform="translate(48.87 160.61)">Bieraście</text><path class="cls-2" d="M45,0,16,0H0L0,16c0,7,0,14,0,21A29.11,29.11,0,0,0,51.48,18.3,28.92,28.92,0,0,0,45,0Z"/><text class="cls-13" transform="translate(15.58 31.75)">40</text></svg>