<?xml version="1.0" encoding="utf-8"?>
<!-- Generator: Adobe Illustrator 26.0.1, SVG Export Plug-In . SVG Version: 6.00 Build 0)  -->
<svg version="1.1" id="Слой_1" xmlns="http://www.w3.org/2000/svg" xmlns:xlink="http://www.w3.org/1999/xlink" x="0px" y="0px"
	 viewBox="0 0 195.6 280.6" style="enable-background:new 0 0 195.6 280.6;" xml:space="preserve">
<style type="text/css">
	
		.st0{clip-path:url(#SVGID_00000127006653501623605480000009245679875724447160_);fill:#3E64AD;stroke:#010101;stroke-miterlimit:10;}
	.st1{clip-path:url(#SVGID_00000108992694498601707800000016080368614332627117_);}
	.st2{fill:#089939;stroke:#010101;stroke-miterlimit:10;}
	.st3{fill:#3E64AD;stroke:#010101;stroke-miterlimit:10;}
	.st4{fill:none;stroke:#010101;stroke-miterlimit:10;}
	.st5{fill-rule:evenodd;clip-rule:evenodd;fill:#FFFFFF;stroke:#010101;stroke-miterlimit:10;}
	.st6{fill-rule:evenodd;clip-rule:evenodd;fill:#97A69B;}
	.st7{fill-rule:evenodd;clip-rule:evenodd;fill:#94A499;}
	.st8{fill:#010101;}
	.st9{fill-rule:evenodd;clip-rule:evenodd;fill:#010101;stroke:#010101;stroke-miterlimit:10;}
	.st10{clip-path:url(#SVGID_00000183237011125027808140000006430949947572190624_);fill:#FFFFFF;}
	.st11{enable-background:new    ;}
	.st12{fill:#FFFFFF;}
	.st13{fill:#089939;}
</style>
<g>
	<g>
		<defs>
			<rect id="SVGID_1_" width="195.6" height="280.6"/>
		</defs>
		<clipPath id="SVGID_00000102518567384383917730000011024127667939027896_">
			<use xlink:href="#SVGID_1_"  style="overflow:visible;"/>
		</clipPath>
		
			<rect x="-270.4" y="-5.9" style="clip-path:url(#SVGID_00000102518567384383917730000011024127667939027896_);fill:#3E64AD;stroke:#010101;stroke-miterlimit:10;" width="479.8" height="294.3"/>
	</g>
	<g>
		<defs>
			<rect id="SVGID_00000094603708068845231170000009707703255282904731_" width="195.6" height="280.6"/>
		</defs>
		<clipPath id="SVGID_00000138535255200052888100000008063803729293731200_">
			<use xlink:href="#SVGID_00000094603708068845231170000009707703255282904731_"  style="overflow:visible;"/>
		</clipPath>
	</g>
	<g>
		<defs>
			<rect id="SVGID_00000114047032598631284290000018321939390502395834_" width="195.6" height="280.6"/>
		</defs>
		<clipPath id="SVGID_00000045615323617091439070000002999712548939314848_">
			<use xlink:href="#SVGID_00000114047032598631284290000018321939390502395834_"  style="overflow:visible;"/>
		</clipPath>
		<g id="g3172" style="clip-path:url(#SVGID_00000045615323617091439070000002999712548939314848_);">
			<g id="g5191">
				<g id="layer1">
					<path id="path2972" class="st2" d="M14.5,51v105.8h0.2c1.3,30.4,39.6,65.7,83.1,65.7s81.2-35.3,83.1-65.7h0.2V51H14.5z"/>
				</g>
				<g id="g3245">
					<path id="path3247" class="st3" d="M17.9,171.3c3.8,9.1,9.3,17.4,16.4,24.3c18.5-11.8,32.9-8.3,45.9,0
						c10.9,4.1,21.7,8.5,37.4,0c16.2-11.8,30.2-8.4,43.4,0c6.8-6.7,12.3-14.6,16.1-23.3c-5,0.1-10.4-1.4-16.1-4.4
						c-14.8-9.2-29.2-7.6-43.4-0.3c-14.9,8.1-27.8,6.4-39.7-0.3c-16.3-8.6-28.7-5.7-40.1-0.3C31.1,169.6,24.5,173.3,17.9,171.3z"/>
				</g>
				<g id="g5187">
					<path id="path5189" class="st4" d="M14.5,51v105.8h0.2c1.3,30.4,39.6,65.7,83.1,65.7s81.2-35.3,83.1-65.7h0.2V51H14.5z"/>
				</g>
			</g>
			<g id="g3158">
				<path id="path5199" class="st5" d="M39.8,90.6c18.8-21,40.9-31.4,71.2-16.8c9.9,6.4,23.2,8.6,37.7,9.3
					c12.4,0.1,21.6,4.1,23.7,16.8c-0.1,5.4,0.2,11.3,0.9,14.3c0.9,2.3,1.4,6.2-0.1,7c-8.2,5.2-4.2-18.5-8.4-23.9
					c-0.5,8.1-7.4,12.2-12.1,17.7c-2.9,3-6.6,5.6-0.6,12.5c0.9,1.6,1.4,3.4-1.1,5.6c-7.6,4.3-11.3,12-13.4,16.5
					c-1.1-0.8-2.2-1-3.2,0.5l-1.1,3c-11.5,0.2-9.2-2-8-3.7c6.2-3.6,11.1-8.9,14.2-15.3c2.7-5,0.4-5.8-0.6-7.5
					c-6.2-3.2-9-9.8-9.1-18.3c-0.1,2.9,0.3,5.8,1.2,8.6c-3.1,0.1-5.9,0.5-7.2,2.2c-6.2,3.6-8.3,2.3-9.7,0.2
					c-2.6-4-13.6-2.4-20.3-1.1c1.1-2.9,1.4-5.7-1.9-8c2.2,1.8,3.8,3.8,2,7.8c-3.3,2.1-3.9,7.1-4.3,12.3c-1.9,6.1-0.3,12.2,0.2,18.3
					c-2.3,0.2-4,1.1-3.7,4.8c-3.1,2.4-9,1.4-10.1-0.2c1.6-3.9,6.3-4.1,6.3-8.4c1-3.4,0.4-10-0.5-10.2c-1.7-1.1-2.1-3.9-2.2-7.3
					c0.1-9.3-3.9-14.1-7-17.9c3.1,3.9,6.2,7.8,6.7,13.6c-4.5,0.3-9,0.8-12-1.1c-6.7-2.7-9.3,0.6-12.7,2.8c-6.1,1.8-5.1,3.5-6.9,5.2
					c-4.8,2.2-5.8,1-8.6-0.3c-2.1-0.3-3.8-1.9-4.3-4c2.9-1.1,5.2-1.9,6.8-5c-1.8,3.1-4.5,4.1-6.9,5c-2.8-1.1-5.5-2.2-6.9-6
					c-1.3-2.3-0.5-4.6,0.4-6.9c0.9-3.3,1.1-6.5-0.2-9.5c-12.1-1.8-6.9-9.9-2.8-12.5c1.8,0.2-3.5,5.2-0.4,7.1
					C29.5,99.1,27.8,92.2,39.8,90.6z"/>
				<path id="path2165" class="st5" d="M59.9,121.2c2.2,2.4,2.3,5.8,0.4,11.1c-1.8,0.5-1.7,2.6-1.9,4.3c-2.9,8.4-6.1,7-7.3,10.1
					c-0.3,1.5,0.5,3.1,8.8,1.6c0.3-2.4,0.5-3.5,3.7-3.6c1.4-5.3,1.6-11.6,4.7-15.4c2.7-3.1,5.8-4,8.8-6.4
					C67,124.7,66.8,119.1,59.9,121.2z"/>
				<path id="path3138" class="st5" d="M164.6,96.7c1.7,5.8,1.1,11-0.5,16.1c-2.4,7.4,0,9.5,3.7,10.8c2,0.5,3.4,1.2,3.1,5.3
					c-2.1,7-2.2,11.5-2,14.6c1.1,1,1.6,2.4,1.5,3.8c-3.3-1.2-4,0.9-4.3,3.6c-12,2.6-9.2-0.5-9.2-1.6c0.9-2.2,5.3-3.6,6.6-6.1
					c1.1-5.8,0.1-8.1-0.6-9.9c-3.8-5.7-10.5-8.2-13.2-15.1C155.5,111.4,164.4,106.8,164.6,96.7z"/>
				<path id="path3140" class="st6" d="M56,142.5c1.3,1.4,3.2,2.2,5.1,2.2c-1.1,0.7-1.7,1.9-1.6,3.2c-3.3,0.4-7.5,1.1-8-0.5
					C51.1,145.7,54.3,144.3,56,142.5z"/>
				<path id="path3142" class="st6" d="M82.2,147.6c1.2,1.1,2.7,1.8,4.3,2c-0.8,1-1.1,2.3-0.9,3.6c-3.6,1.6-6.5,1.4-9-0.1
					C77.6,151,80.5,149.4,82.2,147.6z"/>
				<path id="path3144" class="st7" d="M131.1,146.2c0.6,1.4,1.9,2.6,3.4,3.1c-0.5-0.1-0.8,2.1-1.5,3.3c-2.5,0-10.3,0.7-7.2-2.6
					C127.6,148.8,129.4,147.5,131.1,146.2z"/>
				<path id="path3146" class="st7" d="M162.9,144.9c1,1.1,2.3,2,3.8,2.4c-0.6,0.9-1,2-1.1,3.2c-2.6,0.6-7.9,1.7-8.4,0.5
					C156.7,148.2,161,146.9,162.9,144.9z"/>
				<path id="path3148" class="st4" d="M28.9,102.6c5.9-3.3,15.2-1.8,17.9-0.5c-2.5-5.2,10.4-1.7,4.5-11.3c4.3,1.7,5.6,4.3,4.2,8.3
					c-2.3,4.2-9.3,5.5-8.7,3.1l-1.9-0.9c-2.8,0.8-6-2.5-6.2,2.4c0.1-4.5-5.2-2.6-4.8,0.3C34.8,100.8,31.9,102,28.9,102.6z"/>
				<path id="path3150" class="st8" d="M43.6,106.5c-0.1,0.6-0.6,1.1-1.3,1.1c-0.6-0.1-1-0.5-1.1-1.1l0,0c0-0.6,0.5-1.1,1.1-1.1l0,0
					C43,105.4,43.5,105.9,43.6,106.5L43.6,106.5z"/>
				<path id="path3152" class="st4" d="M29,119.2c2.5-2.8,7.8-1.9,8.6,0.7"/>
				<path id="path3154" class="st9" d="M46.3,115c-0.6,0.9-0.6,1.6,0.4,1.7c2.2-0.7,4.7-3.2,5.7-5.8c0.9-1.7,0-1.5-0.4-1.9
					C50.4,112.2,48.5,114.4,46.3,115z"/>
				<path id="path3156" class="st8" d="M35.5,120.4c0,0.6-0.3,1.1-0.8,1.1s-0.8-0.5-0.8-1.1s0.4-1.1,0.8-1.1S35.5,119.8,35.5,120.4z
					"/>
			</g>
		</g>
	</g>
	<g>
		<defs>
			<rect id="SVGID_00000128486962625650641410000008876630085978988171_" width="195.6" height="280.6"/>
		</defs>
		<clipPath id="SVGID_00000173882145213585772500000003022796556160110231_">
			<use xlink:href="#SVGID_00000128486962625650641410000008876630085978988171_"  style="overflow:visible;"/>
		</clipPath>
		<path style="clip-path:url(#SVGID_00000173882145213585772500000003022796556160110231_);fill:#FFFFFF;" d="M44.9,0h-29h-16L0,16
			c0,7,0,14,0,21c10.3,12.3,28.7,13.9,41,3.6c6.6-5.5,10.4-13.7,10.4-22.3C51.4,11.6,49.1,5.2,44.9,0z"/>
	</g>
	<g>
		<defs>
			<rect id="SVGID_00000036251031684812124810000015324986224690041244_" width="195.6" height="280.6"/>
		</defs>
		<clipPath id="SVGID_00000040556589769991990220000008050216007479247264_">
			<use xlink:href="#SVGID_00000036251031684812124810000015324986224690041244_"  style="overflow:visible;"/>
		</clipPath>
	</g>
</g>
<g class="st11">
	<path class="st12" d="M42.4,230.2v34.1h-7.8L30,248.8v15.5h-7.4v-34.1H30l5,15.4v-15.4H42.4z"/>
	<path class="st12" d="M53.3,247.2h-8v-1.9c0-2.2,0.2-3.8,0.7-5c0.5-1.2,1.5-2.2,3-3.1c1.5-0.9,3.5-1.3,5.9-1.3
		c2.9,0,5.1,0.5,6.5,1.5c1.5,1,2.3,2.3,2.6,3.8c0.3,1.5,0.4,4.5,0.4,9.2v14h-8.3v-2.5c-0.5,1-1.2,1.7-2,2.2
		c-0.8,0.5-1.8,0.8-2.9,0.8c-1.5,0-2.9-0.4-4.1-1.3s-1.9-2.7-1.9-5.5v-2.3c0-2.1,0.3-3.5,1-4.3s2.3-1.6,4.9-2.7
		c2.8-1.1,4.3-1.8,4.5-2.2c0.2-0.4,0.3-1.2,0.3-2.3c0-1.5-0.1-2.4-0.3-2.9s-0.6-0.7-1.1-0.7c-0.6,0-0.9,0.2-1.1,0.6
		c-0.1,0.4-0.2,1.3-0.2,2.9V247.2z M56,251c-1.4,1-2.2,1.8-2.4,2.5c-0.2,0.7-0.3,1.6-0.3,2.9c0,1.4,0.1,2.4,0.3,2.8
		c0.2,0.4,0.6,0.6,1.1,0.6c0.5,0,0.9-0.2,1-0.5c0.2-0.3,0.2-1.2,0.2-2.6V251z"/>
	<path class="st12" d="M76,236.3l-0.3,3.7c1.2-2.6,3-4,5.4-4.2v9.8c-1.6,0-2.7,0.2-3.4,0.6c-0.7,0.4-1.2,1-1.3,1.8s-0.3,2.5-0.3,5.2
		v11h-8.5v-28H76z"/>
	<path class="st12" d="M102.2,250.8h-11v6c0,1.3,0.1,2.1,0.3,2.4c0.2,0.4,0.5,0.5,1.1,0.5c0.6,0,1.1-0.2,1.3-0.7
		c0.2-0.5,0.3-1.4,0.3-2.8v-3.7h8.1v2.1c0,1.7-0.1,3.1-0.3,4s-0.7,1.9-1.5,3c-0.8,1.1-1.8,1.8-3,2.4c-1.2,0.5-2.8,0.8-4.6,0.8
		c-1.8,0-3.4-0.3-4.8-0.8c-1.4-0.5-2.4-1.2-3.2-2.1c-0.8-0.9-1.3-1.9-1.6-3c-0.3-1.1-0.4-2.7-0.4-4.8V246c0-2.4,0.3-4.4,1-5.8
		c0.7-1.4,1.7-2.5,3.2-3.2c1.5-0.8,3.2-1.1,5.2-1.1c2.4,0,4.4,0.5,5.9,1.4s2.6,2.1,3.3,3.6c0.6,1.5,0.9,3.6,0.9,6.3V250.8z
		 M93.7,246.3v-2c0-1.4-0.1-2.4-0.2-2.8c-0.2-0.4-0.5-0.6-0.9-0.6c-0.6,0-1,0.2-1.1,0.5c-0.1,0.4-0.2,1.3-0.2,2.9v2H93.7z"/>
	<path class="st12" d="M132.5,236.3l-3.4,28h-9.2c-0.5-3.4-1.1-7.9-1.8-13.5c-0.2,2.5-0.5,4.9-1,7.4l-0.9,6.1H107l-3.6-28h7.3
		c0.1,0.7,0.7,6.1,1.9,16c0.1-1,0.7-6.4,1.9-16h7.1l1.7,16c0.3-4.7,0.9-10,2-16H132.5z"/>
	<path class="st12" d="M152.2,236.3l-3.5,11.1l4.5,16.8h-8.2l-2.7-12.2l0,12.2h-8.5v-34.1h8.5l0,14.3l2.7-8.2H152.2z"/>
	<path class="st12" d="M162.1,247.2h-8v-1.9c0-2.2,0.2-3.8,0.7-5c0.5-1.2,1.5-2.2,3-3.1s3.5-1.3,5.9-1.3c2.9,0,5.1,0.5,6.5,1.5
		c1.5,1,2.3,2.3,2.6,3.8c0.3,1.5,0.4,4.5,0.4,9.2v14h-8.3v-2.5c-0.5,1-1.2,1.7-2,2.2c-0.8,0.5-1.8,0.8-2.9,0.8
		c-1.5,0-2.9-0.4-4.1-1.3c-1.2-0.8-1.9-2.7-1.9-5.5v-2.3c0-2.1,0.3-3.5,1-4.3c0.7-0.8,2.3-1.6,4.9-2.7c2.8-1.1,4.3-1.8,4.5-2.2
		c0.2-0.4,0.3-1.2,0.3-2.3c0-1.5-0.1-2.4-0.3-2.9s-0.6-0.7-1.1-0.7c-0.6,0-0.9,0.2-1.1,0.6c-0.1,0.4-0.2,1.3-0.2,2.9V247.2z
		 M164.8,251c-1.4,1-2.2,1.8-2.4,2.5c-0.2,0.7-0.3,1.6-0.3,2.9c0,1.4,0.1,2.4,0.3,2.8s0.6,0.6,1.1,0.6c0.5,0,0.9-0.2,1-0.5
		c0.2-0.3,0.2-1.2,0.2-2.6V251z"/>
</g>
<g class="st11">
	<path class="st13" d="M24.7,29.1v2.7H16l0-2.3c2.6-4.2,4.1-6.8,4.6-7.8c0.5-1,0.7-1.8,0.7-2.3c0-0.4-0.1-0.8-0.2-1
		c-0.1-0.2-0.4-0.3-0.7-0.3c-0.3,0-0.5,0.1-0.7,0.4c-0.1,0.2-0.2,0.7-0.2,1.4v1.5H16v-0.6c0-0.9,0-1.6,0.1-2.1
		c0.1-0.5,0.3-1,0.7-1.5c0.4-0.5,0.8-0.9,1.4-1.1c0.6-0.3,1.3-0.4,2.1-0.4c1.6,0,2.8,0.4,3.6,1.2c0.8,0.8,1.2,1.8,1.2,3
		c0,0.9-0.2,1.9-0.7,2.9c-0.5,1-1.8,3.2-4,6.4H24.7z"/>
	<path class="st13" d="M34.8,29.1v2.7h-8.7l0-2.3c2.6-4.2,4.1-6.8,4.6-7.8c0.5-1,0.7-1.8,0.7-2.3c0-0.4-0.1-0.8-0.2-1
		c-0.1-0.2-0.4-0.3-0.7-0.3c-0.3,0-0.5,0.1-0.7,0.4c-0.1,0.2-0.2,0.7-0.2,1.4v1.5h-3.5v-0.6c0-0.9,0-1.6,0.1-2.1
		c0.1-0.5,0.3-1,0.7-1.5c0.4-0.5,0.8-0.9,1.4-1.1c0.6-0.3,1.3-0.4,2.1-0.4c1.6,0,2.8,0.4,3.6,1.2c0.8,0.8,1.2,1.8,1.2,3
		c0,0.9-0.2,1.9-0.7,2.9c-0.5,1-1.8,3.2-4,6.4H34.8z"/>
</g>
</svg>
