<?xml version="1.0" encoding="utf-8"?>
<!-- Generator: Adobe Illustrator 26.0.3, SVG Export Plug-In . SVG Version: 6.00 Build 0)  -->
<svg version="1.1" id="Слой_1" xmlns="http://www.w3.org/2000/svg" xmlns:xlink="http://www.w3.org/1999/xlink" x="0px" y="0px"
	 viewBox="0 0 195.6 280.6" style="enable-background:new 0 0 195.6 280.6;" xml:space="preserve">
<style type="text/css">
	.st0{clip-path:url(#SVGID_00000124129026570493691090000005312340544624374442_);fill:#1A1A1A;}
	.st1{clip-path:url(#SVGID_00000124129026570493691090000005312340544624374442_);enable-background:new    ;}
	.st2{fill:#E83E3E;}
	.st3{font-family:'Impact';}
	.st4{font-size:63.44px;}
	.st5{clip-path:url(#SVGID_00000124129026570493691090000005312340544624374442_);fill:#E83E3E;}
	.st6{fill:#1A1A1A;}
	.st7{font-size:20px;}
	.st8{clip-path:url(#SVGID_00000124129026570493691090000005312340544624374442_);fill:#423D3D;}
	.st9{clip-path:url(#SVGID_00000124129026570493691090000005312340544624374442_);fill:#7F6D6B;}
	.st10{clip-path:url(#SVGID_00000124129026570493691090000005312340544624374442_);fill:#4481C3;}
	.st11{clip-path:url(#SVGID_00000124129026570493691090000005312340544624374442_);fill:#CCCCCC;}
	.st12{clip-path:url(#SVGID_00000124129026570493691090000005312340544624374442_);fill:#FFFFFF;}
	.st13{clip-path:url(#SVGID_00000124129026570493691090000005312340544624374442_);fill:#CB1A24;}
	.st14{clip-path:url(#SVGID_00000124129026570493691090000005312340544624374442_);fill:#767676;}
	.st15{clip-path:url(#SVGID_00000124129026570493691090000005312340544624374442_);fill:#AF1739;}
	.st16{clip-path:url(#SVGID_00000124129026570493691090000005312340544624374442_);fill:#EB5775;}
	.st17{clip-path:url(#SVGID_00000124129026570493691090000005312340544624374442_);fill:#BADBE9;}
	.st18{clip-path:url(#SVGID_00000124129026570493691090000005312340544624374442_);fill:#8BB0CC;}
	.st19{clip-path:url(#SVGID_00000124129026570493691090000005312340544624374442_);fill:#F293A2;}
	.st20{clip-path:url(#SVGID_00000124129026570493691090000005312340544624374442_);fill:#FFD740;}
	.st21{clip-path:url(#SVGID_00000124129026570493691090000005312340544624374442_);fill:#5A5252;}
	.st22{clip-path:url(#SVGID_00000124129026570493691090000005312340544624374442_);fill:#E83B54;}
	.st23{clip-path:url(#SVGID_00000124129026570493691090000005312340544624374442_);fill:#797979;}
	.st24{clip-path:url(#SVGID_00000124129026570493691090000005312340544624374442_);fill:#545454;}
	.st25{clip-path:url(#SVGID_00000124129026570493691090000005312340544624374442_);fill:#444444;}
	.st26{clip-path:url(#SVGID_00000124129026570493691090000005312340544624374442_);fill:#EFA85D;}
	.st27{clip-path:url(#SVGID_00000124129026570493691090000005312340544624374442_);fill:#636363;}
	.st28{clip-path:url(#SVGID_00000124129026570493691090000005312340544624374442_);fill:#A0A0A0;}
	.st29{clip-path:url(#SVGID_00000124129026570493691090000005312340544624374442_);fill:#FDD083;}
	.st30{clip-path:url(#SVGID_00000124129026570493691090000005312340544624374442_);fill:#DC773D;}
	.st31{clip-path:url(#SVGID_00000124129026570493691090000005312340544624374442_);fill:#3D3D3D;}
</style>
<g>
	<defs>
		<rect id="SVGID_1_" x="0" y="0" width="195.6" height="280.6"/>
	</defs>
	<clipPath id="SVGID_00000042717138278906186090000001657754638541128576_">
		<use xlink:href="#SVGID_1_"  style="overflow:visible;"/>
	</clipPath>
	
		<rect x="-270.1" y="-4" style="clip-path:url(#SVGID_00000042717138278906186090000001657754638541128576_);fill:#1A1A1A;" width="488.6" height="290.7"/>
	<g style="clip-path:url(#SVGID_00000042717138278906186090000001657754638541128576_);enable-background:new    ;">
		<text transform="matrix(1 0 0 1 30.44 264.55)" class="st2 st3 st4">rosja</text>
	</g>
	<path style="clip-path:url(#SVGID_00000042717138278906186090000001657754638541128576_);fill:#E83E3E;" d="M45,0H16H0.1v16
		c0,7,0,14,0,21c10.3,12.3,28.7,14,41,3.7c6.6-5.5,10.5-13.8,10.5-22.4C51.6,11.6,49.2,5.2,45,0z"/>
	<g style="clip-path:url(#SVGID_00000042717138278906186090000001657754638541128576_);enable-background:new    ;">
		<text transform="matrix(1 0 0 1 15.66 31.76)" class="st6 st3 st7">27</text>
	</g>
	<path style="clip-path:url(#SVGID_00000042717138278906186090000001657754638541128576_);fill:#1A1A1A;" d="M107.2,22.1
		c-1.7,0-11.3-0.4-19.3,4.1c-3.9,2.1-6.3,6.1-6.4,10.5l5.5,0.2c0.1-3.4,1.5-4.8,3.6-5.9c6.2-3.5,14.4-3.4,16.6-3.4
		s10.4-0.1,16.6,3.4c2.1,1.1,3.5,2.5,3.6,5.9l5.6-0.2c-0.1-4.4-2.6-8.4-6.4-10.5C118.5,21.7,108.8,22.1,107.2,22.1L107.2,22.1z"/>
	<path style="clip-path:url(#SVGID_00000042717138278906186090000001657754638541128576_);fill:#423D3D;" d="M130.1,36.8
		c0-3.5-1.9-6.6-5-8.2c-7.1-4-16-3.7-17.9-3.7s-10.8-0.3-17.9,3.7c-3.1,1.6-5,4.8-5,8.2H130.1z"/>
	<path style="clip-path:url(#SVGID_00000042717138278906186090000001657754638541128576_);fill:#1A1A1A;" d="M107.2,24.2
		c-1.8,0-10.9-0.3-18.3,3.8c-3.3,1.7-5.4,5.1-5.4,8.8l1.4,0.1c0-3.2,1.8-6.2,4.6-7.6c6.9-3.8,15.6-3.6,17.6-3.6s10.7-0.2,17.6,3.6
		c2.9,1.4,4.7,4.4,4.6,7.6l1.4-0.1c0-3.7-2.1-7.1-5.4-8.8C118.1,23.9,109,24.2,107.2,24.2L107.2,24.2z"/>
	<path style="clip-path:url(#SVGID_00000042717138278906186090000001657754638541128576_);fill:#7F6D6B;" d="M105.9,29.4
		c-3.9,0-13.4,0.2-21.2,3.7c-3.3,1.4-6,3.8-6.3,8c1.3-1.5,3-2.7,4.9-3.4c9.5-3.9,21.3-3.7,23.9-3.7s14.4-0.3,23.9,3.7
		c1.9,0.7,3.6,1.9,4.9,3.4c-0.3-4.2-3-6.6-6.3-8c-8.9-3.9-20.1-3.7-22.5-3.7C106.9,29.4,106.4,29.4,105.9,29.4L105.9,29.4z"/>
	<path style="clip-path:url(#SVGID_00000042717138278906186090000001657754638541128576_);fill:#423D3D;" d="M116.4,39.3
		c0,0.3-0.1,0.5-0.3,0.7c-0.2,0.2-0.4,0.3-0.7,0.3c-0.6,0-1-0.4-1-1c0-0.3,0.1-0.5,0.3-0.7c0.2-0.2,0.4-0.3,0.7-0.3
		C116,38.3,116.4,38.8,116.4,39.3L116.4,39.3z"/>
	<path style="clip-path:url(#SVGID_00000042717138278906186090000001657754638541128576_);fill:#E83E3E;" d="M121.4,182.9
		c0-11.6,5.1-13.9,8.7-13.9s8.6,2.3,8.6,13.9s-3.9,28.1-8.6,28.1S121.4,194.6,121.4,182.9z"/>
	<path style="clip-path:url(#SVGID_00000042717138278906186090000001657754638541128576_);fill:#1A1A1A;" d="M130.1,166.6
		c-2.9,0-5.6,1.3-7.5,3.5c-2.2,2.6-3.6,6.7-3.6,12.9c0.1,6.4,0.9,12.8,2.6,19.1c0.7,2.6,1.7,5.2,3,7.5c1.2,2,2.9,3.9,5.5,3.9
		c2.6,0,4.2-1.9,5.4-3.9c1.3-2.4,2.3-4.9,3-7.5c1.7-6.2,2.6-12.6,2.6-19.1c0-6.2-1.4-10.3-3.6-12.9
		C135.7,167.8,132.9,166.6,130.1,166.6L130.1,166.6z M130.1,171.4c1.5-0.1,2.9,0.6,3.8,1.8c1.2,1.4,2.4,4.3,2.4,9.8
		c-0.1,6-0.9,12-2.4,17.8c-0.6,2.2-1.4,4.3-2.5,6.4c-0.3,0.6-0.8,1.1-1.3,1.5c-0.5-0.4-1-0.9-1.3-1.5c-1.1-2-1.9-4.1-2.5-6.4
		c-1.6-5.8-2.4-11.8-2.4-17.8c0-5.5,1.2-8.3,2.4-9.8C127.2,172,128.6,171.4,130.1,171.4z"/>
	<path style="clip-path:url(#SVGID_00000042717138278906186090000001657754638541128576_);fill:#E83E3E;" d="M77.6,182.9
		c0-11.6,5.1-13.9,8.7-13.9s8.7,2.3,8.7,13.9s-3.9,28.1-8.7,28.1S77.6,194.6,77.6,182.9z"/>
	<path style="clip-path:url(#SVGID_00000042717138278906186090000001657754638541128576_);fill:#1A1A1A;" d="M86.3,166.6
		c-2.9,0-5.6,1.3-7.5,3.5c-2.2,2.6-3.6,6.7-3.6,12.9c0.1,6.4,0.9,12.8,2.6,19.1c0.7,2.6,1.7,5.2,3,7.5c1.2,2,2.8,3.9,5.4,3.9
		s4.2-1.9,5.4-3.9c1.3-2.4,2.3-4.9,3-7.5c1.7-6.2,2.6-12.6,2.6-19.1c0-6.2-1.4-10.3-3.6-12.9C91.9,167.8,89.1,166.6,86.3,166.6
		L86.3,166.6z M86.3,171.4c1.5-0.1,2.9,0.6,3.8,1.8c1.2,1.4,2.4,4.3,2.4,9.8c-0.1,6-0.9,12-2.4,17.8c-0.6,2.2-1.4,4.3-2.5,6.4
		c-0.3,0.6-0.8,1.1-1.3,1.5c-0.5-0.4-1-0.9-1.3-1.5c-1.1-2-1.9-4.1-2.5-6.4c-1.6-5.8-2.4-11.8-2.5-17.8c0-5.5,1.2-8.3,2.4-9.8
		C83.3,172,84.8,171.4,86.3,171.4L86.3,171.4z"/>
	<path style="clip-path:url(#SVGID_00000042717138278906186090000001657754638541128576_);fill:#4481C3;" d="M164.9,125.2
		c-3.4-11.1,0.9-14.8,4.2-15.8s9-0.3,12.3,10.8s4.4,28.1-0.1,29.4S168.3,136.4,164.9,125.2z"/>
	<path style="clip-path:url(#SVGID_00000042717138278906186090000001657754638541128576_);fill:#1A1A1A;" d="M168.4,108.3
		c-2.8,0.8-5,2.8-6.2,5.5c-1.4,3.2-1.5,7.5,0.3,13.4c1.9,6.2,4.6,12,8,17.5c1.4,2.3,3.1,4.5,5.1,6.4c1.8,1.6,3.9,2.9,6.4,2.2
		s3.5-3,4.1-5.4c0.6-2.7,0.8-5.4,0.7-8.1c-0.2-6.4-1.2-12.8-3-19c-1.8-5.9-4.3-9.4-7.2-11.3C174.1,108,171.2,107.5,168.4,108.3
		L168.4,108.3z M169.8,113c1.4-0.5,2.9-0.3,4.2,0.6c1.6,1,3.6,3.4,5.1,8.7c1.7,5.8,2.6,11.7,2.8,17.7c0.1,2.3-0.1,4.6-0.6,6.8
		c-0.1,0.7-0.4,1.3-0.8,1.9c-0.6-0.2-1.2-0.6-1.7-1.1c-1.6-1.6-3-3.4-4.2-5.4c-3.2-5.1-5.7-10.6-7.5-16.3c-1.6-5.2-1.2-8.3-0.5-10.1
		C167.2,114.4,168.4,113.4,169.8,113z"/>
	<path style="clip-path:url(#SVGID_00000042717138278906186090000001657754638541128576_);fill:#4481C3;" d="M37.2,119.7
		c4.4-10.7,10.1-10.9,13.3-9.6s7.1,5.5,2.7,16.2s-14.4,24.5-18.8,22.7S32.8,130.5,37.2,119.7z"/>
	<path style="clip-path:url(#SVGID_00000042717138278906186090000001657754638541128576_);fill:#1A1A1A;" d="M51.5,107.9
		c-2.7-1.1-5.7-1-8.3,0.3c-3.1,1.6-5.9,4.8-8.2,10.6c-2.4,6-4.1,12.2-4.9,18.6c-0.4,2.7-0.4,5.4-0.1,8.1c0.3,2.4,1.1,4.7,3.5,5.7
		s4.6-0.1,6.5-1.6c2.1-1.7,4-3.6,5.7-5.8c3.9-5.1,7.2-10.7,9.7-16.6c2.4-5.7,2.7-10,1.6-13.3C56.2,111.3,54.1,109,51.5,107.9z
		 M49.6,112.4c1.4,0.5,2.4,1.7,2.8,3.1c0.6,1.8,0.6,4.9-1.5,10c-2.4,5.5-5.4,10.7-9.1,15.5c-1.4,1.8-3,3.5-4.8,4.9
		c-0.5,0.4-1.1,0.7-1.8,0.9c-0.3-0.6-0.5-1.2-0.6-1.9c-0.2-2.3-0.2-4.6,0.1-6.8c0.8-6,2.3-11.8,4.5-17.4c2.1-5,4.3-7.2,6-8.1
		C46.7,111.9,48.3,111.8,49.6,112.4L49.6,112.4z"/>
	<path style="clip-path:url(#SVGID_00000042717138278906186090000001657754638541128576_);fill:#1A1A1A;" d="M108.2,57.6
		c-37.5,0-67.8,30.4-67.8,67.8s30.4,67.8,67.8,67.8c37.4,0,67.8-30.4,67.8-67.8C176,88,145.6,57.7,108.2,57.6L108.2,57.6z
		 M108.2,65.4c33.2,0,60.1,26.9,60.1,60.1s-26.9,60.1-60.1,60.1s-60.1-26.9-60.1-60.1c0-33.1,26.8-60,59.9-60.1
		C108.1,65.4,108.1,65.4,108.2,65.4z"/>
	<path style="clip-path:url(#SVGID_00000042717138278906186090000001657754638541128576_);fill:#4481C3;" d="M171.1,123.9
		c0,2.7-0.3,33.6-18.4,42.3c-12.8,6.2-20-5.9-45.9-5.5c-24.4,0.3-30.8,11.2-42.8,5.5c-18-8.5-18.4-39.7-18.4-42.3
		c0-3.6,0.4-32.6,18.4-42.3c10.6-5.7,16.1,1.3,42.3,1.6c28.6,0.3,34.9-8,46.4-1.6C170.7,91.6,171.1,120.3,171.1,123.9z"/>
	<path style="clip-path:url(#SVGID_00000042717138278906186090000001657754638541128576_);fill:#CCCCCC;" d="M108.8,62.7
		C81.5,62.7,57.1,80,48,105.8h121.7C160.6,80,136.2,62.7,108.8,62.7L108.8,62.7z"/>
	<path style="clip-path:url(#SVGID_00000042717138278906186090000001657754638541128576_);fill:#FFFFFF;" d="M105.5,64.2
		c-26,0-49.1,16.9-56.9,41.7h113.8C154.5,81,131.5,64.2,105.5,64.2z"/>
	<path style="clip-path:url(#SVGID_00000042717138278906186090000001657754638541128576_);fill:#CB1A24;" d="M47.5,147.6
		c6.6,12.9,16.9,23.6,29.4,30.9c9.7,5.8,20.7,8.9,32,9.2c6.1,0.1,12.1-0.8,17.9-2.5c11.5-3.6,21.8-10.4,29.5-19.8
		c4.6-5.3,8.3-11.3,11-17.8H47.5z"/>
	<path style="clip-path:url(#SVGID_00000042717138278906186090000001657754638541128576_);fill:#E83E3E;" d="M50.7,147.7
		c14.2,31.2,51,44.9,82.1,30.7c13.6-6.2,24.5-17.1,30.7-30.7H50.7z"/>
	<path style="clip-path:url(#SVGID_00000042717138278906186090000001657754638541128576_);fill:#1A1A1A;" d="M108.2,60.5
		c-35.8,0-64.9,29.1-64.9,64.9s29.1,64.9,64.9,64.9s64.9-29.1,64.9-64.9c0,0,0,0,0,0C173.1,89.6,144,60.5,108.2,60.5z M108.2,62.5
		c34.8,0,63,28.2,63,63s-28.2,63-63,63s-63-28.2-63-63C45.2,90.7,73.4,62.5,108.2,62.5z"/>
	<path style="clip-path:url(#SVGID_00000042717138278906186090000001657754638541128576_);fill:#767676;" d="M107.4,129.7
		c0-1.4,1.1-2.5,2.4-2.5s2.5,1.1,2.5,2.5c0,1.4-1.1,2.4-2.4,2.4h0C108.5,132.2,107.4,131.1,107.4,129.7z"/>
	<path style="clip-path:url(#SVGID_00000042717138278906186090000001657754638541128576_);fill:#767676;" d="M95.2,127.4
		c1.3-0.4,2.7,0.3,3.1,1.6c0,0,0,0,0,0c0.4,1.3-0.3,2.7-1.5,3.1c0,0,0,0,0,0c-1.3,0.4-2.7-0.3-3.1-1.6
		C93.2,129.2,93.9,127.8,95.2,127.4L95.2,127.4z"/>
	<path style="clip-path:url(#SVGID_00000042717138278906186090000001657754638541128576_);fill:#1A1A1A;" d="M119.1,101.2v3.9
		c0,5.7,4.6,10.2,10.2,10.2c5.7,0,10.2-4.6,10.2-10.2V100c0-2.3-0.8-4.6-2.2-6.4L119.1,101.2z"/>
	<path style="clip-path:url(#SVGID_00000042717138278906186090000001657754638541128576_);fill:#FFFFFF;" d="M123.3,102.8
		c0-1.8,1.5-3.3,3.3-3.3c1.8,0,3.3,1.5,3.3,3.3c0,1.8-1.5,3.3-3.3,3.3c-0.9,0-1.7-0.3-2.3-0.9C123.7,104.6,123.3,103.7,123.3,102.8z
		"/>
	<path style="clip-path:url(#SVGID_00000042717138278906186090000001657754638541128576_);fill:#1A1A1A;" d="M79,93.6
		c-1.4,1.8-2.2,4.1-2.2,6.4v5.1c0.2,5.7,4.9,10.1,10.6,9.9c5.4-0.2,9.8-4.5,9.9-9.9v-3.9L79,93.6z"/>
	<path style="clip-path:url(#SVGID_00000042717138278906186090000001657754638541128576_);fill:#FFFFFF;" d="M81.1,102.8
		c0-1.8,1.5-3.3,3.3-3.3c1.8,0,3.3,1.5,3.3,3.3c0,1.8-1.5,3.3-3.3,3.3c-0.9,0-1.7-0.3-2.3-0.9C81.4,104.6,81.1,103.7,81.1,102.8z"/>
	<path style="clip-path:url(#SVGID_00000042717138278906186090000001657754638541128576_);fill:#AF1739;" d="M85.1,156.2
		c-2.6,0-4.8-2.1-4.8-4.8c0,0,0,0,0,0V146c0-15.4,12.5-27.8,27.8-27.8S136,130.6,136,146v5.4c0,2.6-2.1,4.8-4.8,4.8c0,0,0,0,0,0
		L85.1,156.2z"/>
	<path style="clip-path:url(#SVGID_00000042717138278906186090000001657754638541128576_);fill:#EB5775;" d="M108.2,141.6
		c-10.1,0-19.5,5.5-24.4,14.4c0.4,0.1,0.9,0.2,1.3,0.2h46c0.5,0,0.9-0.1,1.4-0.2C127.6,147.2,118.3,141.7,108.2,141.6L108.2,141.6z"
		/>
	<path style="clip-path:url(#SVGID_00000042717138278906186090000001657754638541128576_);fill:#FFFFFF;" d="M108.2,118.2
		c-9.1,0-17.5,4.4-22.8,11.8c14.7,5.6,30.8,5.6,45.5,0C125.7,122.6,117.2,118.2,108.2,118.2L108.2,118.2z"/>
	<path style="clip-path:url(#SVGID_00000042717138278906186090000001657754638541128576_);fill:#BADBE9;" d="M123.8,123.1
		c2.8,1.9,5.2,4.3,7.1,7c-3,1.1-6,2-9.1,2.6c0,0,2-0.9,2-4.8L123.8,123.1L123.8,123.1z"/>
	<path style="clip-path:url(#SVGID_00000042717138278906186090000001657754638541128576_);fill:#BADBE9;" d="M101.4,119.1
		c-6.5,1.6-12.2,5.5-16,11c6.4,2.4,13.2,3.7,20,4c-3-1-4-4.8-4-8.4V119.1L101.4,119.1z"/>
	<path style="clip-path:url(#SVGID_00000042717138278906186090000001657754638541128576_);fill:#8BB0CC;" d="M92.5,123.1
		c-2.8,1.9-5.2,4.3-7.1,7c3,1.1,6,2,9.1,2.6c0,0-2-0.9-2-4.8L92.5,123.1L92.5,123.1z"/>
	<path style="clip-path:url(#SVGID_00000042717138278906186090000001657754638541128576_);fill:#1A1A1A;" d="M108.2,117.2
		c-15.9,0-28.8,12.9-28.8,28.8v5.4c0,3.2,2.6,5.8,5.8,5.8h46c3.2,0,5.8-2.6,5.8-5.8V146C136.9,130.1,124,117.2,108.2,117.2
		L108.2,117.2z M108.2,119.2c14.8,0,26.8,12,26.8,26.8c0,0,0,0,0,0v5.4c0,2.1-1.7,3.8-3.8,3.8c0,0,0,0-0.1,0h-46
		c-2.1,0-3.8-1.7-3.8-3.7c0,0,0,0,0-0.1V146C81.4,131.2,93.4,119.2,108.2,119.2C108.2,119.2,108.2,119.2,108.2,119.2L108.2,119.2z"
		/>
	<path style="clip-path:url(#SVGID_00000042717138278906186090000001657754638541128576_);fill:#1A1A1A;" d="M131.2,129.4
		c-14.8,5.7-31.3,5.7-46.1,0l-0.3,0.9c15.1,5.8,31.7,5.8,46.8,0L131.2,129.4z"/>
	<path style="clip-path:url(#SVGID_00000042717138278906186090000001657754638541128576_);fill:#F293A2;" d="M111.2,149.1
		c0-1.8,2.1-3.3,4.6-3.3s4.6,1.5,4.6,3.3s-2.1,3.3-4.6,3.3S111.2,150.9,111.2,149.1z"/>
	<path style="clip-path:url(#SVGID_00000042717138278906186090000001657754638541128576_);fill:#FFD740;" d="M100.4,72.3
		c-1.2,1.4-2.9,2.1-4.8,2c-4.5-0.3-8.4-3.3-9.8-7.6c-0.6-1.7-0.4-3.6,0.7-5.1c2.1-2.8,7-2.6,10.8,0.3
		C101.1,64.9,102.5,69.6,100.4,72.3L100.4,72.3z"/>
	<path style="clip-path:url(#SVGID_00000042717138278906186090000001657754638541128576_);fill:#FFD740;" d="M88.4,61.3H88h-0.1
		h-0.1h-0.1h-0.1h-0.1h-0.1l0,0l-0.1,0l0,0l0,0v0v0.1v0c0,0,0,0,0,0.1v0.1v0.1v0.1v0.1c0,0,0,0,0,0.1c0,0,0,0,0,0.1c0,0,0,0,0,0.1
		c0,0,0,0,0,0.1s0,0,0,0.1s0,0,0,0.1v0.2c0,0,0,0,0,0.1s0,0,0,0.1s0,0,0,0.1c0,0,0,0,0,0.1l0,0l0,0v0.1c0,0,0,0,0,0.1v0.1V63v0.1
		v0.1c0,0,0,0,0,0.1l0,0v0.1h0.1c0,0,0,0,0,0l0,0h0.1l0,0h0.1h0.1c0,0,0,0,0.1,0h0.1L88,64h0.1h0.1h0.1h0.1c0,0,0,0,0.1,0h0.3h0.1
		h0.1h0.1H89h0h0.1h0.1h0.1l0,0h0.1l0,0v0l0,0l0,0v-0.1v0c0,0,0,0,0-0.1v-0.1v-0.1c0,0,0,0,0-0.1v-0.1c0,0,0,0,0-0.1s0,0,0-0.1
		s0,0,0-0.1s0,0,0-0.1c0,0,0,0,0-0.1V63c0,0,0,0,0-0.1c0,0,0,0,0-0.1s0,0,0-0.1c0,0,0,0,0-0.1l0,0l0,0v-0.1c0,0,0,0,0-0.1v-0.1
		c0,0,0,0,0-0.1v-0.1v-0.1l0,0v-0.1l0,0l-0.1,0l0,0l0,0h-0.1l0,0h-0.1H89h-0.1h-0.1h-0.1h-0.1h-0.1h-0.3L88.4,61.3z"/>
	<path style="clip-path:url(#SVGID_00000042717138278906186090000001657754638541128576_);fill:#FFD740;" d="M88.4,61.3H88h-0.1
		h-0.1h-0.1h-0.1h-0.1h-0.1l0,0l-0.1,0l0,0l0,0v0v0.1v0c0,0,0,0,0,0.1v0.1v0.1v0.1v0.1c0,0,0,0,0,0.1c0,0,0,0,0,0.1c0,0,0,0,0,0.1
		c0,0,0,0,0,0.1s0,0,0,0.1s0,0,0,0.1v0.2c0,0,0,0,0,0.1s0,0,0,0.1s0,0,0,0.1c0,0,0,0,0,0.1l0,0l0,0v0.1c0,0,0,0,0,0.1v0.1V63v0.1
		v0.1c0,0,0,0,0,0.1l0,0v0.1h0.1c0,0,0,0,0,0l0,0h0.1l0,0h0.1h0.1c0,0,0,0,0.1,0h0.1L88,64h0.1h0.1h0.7h0.1H89h0h0.1h0.1h0.1l0,0
		h0.1l0,0v0l0,0l0,0v-0.1v-0.1v-0.1v-0.1v-0.1c0,0,0,0,0-0.1v-0.1c0,0,0,0,0-0.1c0,0,0,0,0-0.1c0,0,0,0,0-0.1c0,0,0,0,0-0.1
		c0,0,0,0,0-0.1V63c0,0,0,0,0-0.1c0,0,0,0,0-0.1c0,0,0,0,0-0.1v-0.1l0,0l0,0v-0.1c0,0,0,0,0-0.1v-0.1c0,0,0,0,0-0.1v-0.1v-0.1
		c0,0,0,0,0-0.1v0l0,0c0,0,0,0-0.1,0l0,0l0,0h-0.1l0,0h-0.1H89h-0.1h-0.1h-0.1h-0.1h-0.1h-0.3L88.4,61.3z"/>
	<path style="clip-path:url(#SVGID_00000042717138278906186090000001657754638541128576_);fill:#FFD740;" d="M88.4,61.3H88h-0.1
		h-0.1h-0.1h-0.1h-0.1h-0.1l0,0l-0.1,0l0,0l0,0v0v0.1v0c0,0,0,0,0,0.1v0.1v0.1v0.1v0.1c0,0,0,0,0,0.1c0,0,0,0,0,0.1c0,0,0,0,0,0.1
		c0,0,0,0,0,0.1s0,0,0,0.1s0,0,0,0.1v0.2c0,0,0,0,0,0.1s0,0,0,0.1s0,0,0,0.1c0,0,0,0,0,0.1l0,0l0,0v0.1c0,0,0,0,0,0.1v0.1V63v0.1
		v0.1c0,0,0,0,0,0.1l0,0v0.1h0.1c0,0,0,0,0,0l0,0h0.1l0,0h0.1h0.1c0,0,0,0,0.1,0h0.1L88,64h0.1h0.1h0.7h0.1H89h0h0.1h0.1h0.1l0,0
		h0.1l0,0v0l0,0l0,0v-0.1v-0.1v-0.1v-0.1v-0.1c0,0,0,0,0-0.1v-0.1c0,0,0,0,0-0.1c0,0,0,0,0-0.1c0,0,0,0,0-0.1c0,0,0,0,0-0.1
		c0,0,0,0,0-0.1V63c0,0,0,0,0-0.1c0,0,0,0,0-0.1c0,0,0,0,0-0.1v-0.1l0,0l0,0v-0.1c0,0,0,0,0-0.1v-0.1c0,0,0,0,0-0.1v-0.1v-0.1
		c0,0,0,0,0-0.1v0l0,0c0,0,0,0-0.1,0l0,0l0,0h-0.1l0,0h-0.1H89h-0.1h-0.1h-0.1h-0.1h-0.1h-0.3L88.4,61.3z"/>
	<path style="clip-path:url(#SVGID_00000042717138278906186090000001657754638541128576_);fill:#FFD740;" d="M88.4,61.3H88h-0.1
		h-0.1h-0.1h-0.1h-0.1h-0.1l0,0l-0.1,0l0,0l0,0v0v0.1v0c0,0,0,0,0,0.1v0.1v0.1v0.1v0.1c0,0,0,0,0,0.1c0,0,0,0,0,0.1c0,0,0,0,0,0.1
		c0,0,0,0,0,0.1s0,0,0,0.1s0,0,0,0.1v0.2c0,0,0,0,0,0.1s0,0,0,0.1s0,0,0,0.1c0,0,0,0,0,0.1l0,0l0,0v0.1c0,0,0,0,0,0.1v0.1V63v0.1
		v0.1c0,0,0,0,0,0.1l0,0v0.1h0.1c0,0,0,0,0,0l0,0h0.1l0,0h0.1h0.1c0,0,0,0,0.1,0h0.1L88,64h0.1h0.1h0.7h0.1H89h0h0.1h0.1h0.1l0,0
		h0.1l0,0v0l0,0l0,0v-0.1v-0.1v-0.1v-0.1v-0.1c0,0,0,0,0-0.1v-0.1c0,0,0,0,0-0.1c0,0,0,0,0-0.1c0,0,0,0,0-0.1c0,0,0,0,0-0.1
		c0,0,0,0,0-0.1V63c0,0,0,0,0-0.1c0,0,0,0,0-0.1c0,0,0,0,0-0.1v-0.1l0,0l0,0v-0.1c0,0,0,0,0-0.1v-0.1c0,0,0,0,0-0.1v-0.1v-0.1
		c0,0,0,0,0-0.1v0l0,0c0,0,0,0-0.1,0l0,0l0,0h-0.1l0,0h-0.1H89h-0.1h-0.1h-0.1h-0.1h-0.1h-0.3L88.4,61.3z"/>
	<path style="clip-path:url(#SVGID_00000042717138278906186090000001657754638541128576_);fill:#FFD740;" d="M88.4,61.3H88h-0.1
		h-0.1h-0.1h-0.1h-0.1h-0.1l0,0l-0.1,0l0,0l0,0v0v0.1v0c0,0,0,0,0,0.1v0.1v0.1v0.1v0.1c0,0,0,0,0,0.1c0,0,0,0,0,0.1c0,0,0,0,0,0.1
		c0,0,0,0,0,0.1s0,0,0,0.1s0,0,0,0.1v0.2c0,0,0,0,0,0.1s0,0,0,0.1s0,0,0,0.1c0,0,0,0,0,0.1l0,0l0,0v0.1c0,0,0,0,0,0.1v0.1V63v0.1
		v0.1c0,0,0,0,0,0.1l0,0v0.1h0.1c0,0,0,0,0,0l0,0h0.1l0,0h0.1h0.1c0,0,0,0,0.1,0h0.1L88,64h0.1h0.1h0.7h0.1H89h0h0.1h0.1h0.1l0,0
		h0.1l0,0v0l0,0l0,0v-0.1v-0.1v-0.1v-0.1v-0.1c0,0,0,0,0-0.1v-0.1c0,0,0,0,0-0.1c0,0,0,0,0-0.1c0,0,0,0,0-0.1c0,0,0,0,0-0.1
		c0,0,0,0,0-0.1V63c0,0,0,0,0-0.1c0,0,0,0,0-0.1c0,0,0,0,0-0.1v-0.1l0,0l0,0v-0.1c0,0,0,0,0-0.1v-0.1c0,0,0,0,0-0.1v-0.1v-0.1
		c0,0,0,0,0-0.1v0l0,0c0,0,0,0-0.1,0l0,0l0,0h-0.1l0,0h-0.1H89h-0.1h-0.1h-0.1h-0.1h-0.1h-0.3L88.4,61.3z"/>
	<path style="clip-path:url(#SVGID_00000042717138278906186090000001657754638541128576_);fill:#FFD740;" d="M88.4,61.3H88h-0.1
		h-0.1h-0.1h-0.1h-0.1h-0.1l0,0l-0.1,0l0,0l0,0v0v0.1v0c0,0,0,0,0,0.1v0.1v0.1v0.1v0.1c0,0,0,0,0,0.1c0,0,0,0,0,0.1c0,0,0,0,0,0.1
		c0,0,0,0,0,0.1s0,0,0,0.1s0,0,0,0.1v0.2c0,0,0,0,0,0.1s0,0,0,0.1s0,0,0,0.1c0,0,0,0,0,0.1l0,0l0,0v0.1c0,0,0,0,0,0.1v0.1V63v0.1
		v0.1c0,0,0,0,0,0.1l0,0v0.1h0.1c0,0,0,0,0,0l0,0h0.1l0,0h0.1h0.1c0,0,0,0,0.1,0h0.1L88,64h0.1h0.1h0.7h0.1H89h0h0.1h0.1h0.1l0,0
		h0.1l0,0v0l0,0l0,0v-0.1v-0.1v-0.1v-0.1v-0.1c0,0,0,0,0-0.1v-0.1c0,0,0,0,0-0.1c0,0,0,0,0-0.1c0,0,0,0,0-0.1c0,0,0,0,0-0.1
		c0,0,0,0,0-0.1V63c0,0,0,0,0-0.1c0,0,0,0,0-0.1c0,0,0,0,0-0.1v-0.1l0,0l0,0v-0.1c0,0,0,0,0-0.1v-0.1c0,0,0,0,0-0.1v-0.1v-0.1
		c0,0,0,0,0-0.1v0l0,0c0,0,0,0-0.1,0l0,0l0,0h-0.1l0,0h-0.1H89h-0.1h-0.1h-0.1h-0.1h-0.1h-0.3L88.4,61.3z"/>
	<path style="clip-path:url(#SVGID_00000042717138278906186090000001657754638541128576_);fill:#FFD740;" d="M88.4,61.3H88h-0.1
		h-0.1h-0.1h-0.1h-0.1h-0.1l0,0l-0.1,0l0,0l0,0v0v0.1v0c0,0,0,0,0,0.1v0.1v0.1v0.1v0.1c0,0,0,0,0,0.1c0,0,0,0,0,0.1c0,0,0,0,0,0.1
		c0,0,0,0,0,0.1s0,0,0,0.1s0,0,0,0.1v0.2c0,0,0,0,0,0.1s0,0,0,0.1s0,0,0,0.1c0,0,0,0,0,0.1l0,0l0,0v0.1c0,0,0,0,0,0.1v0.1V63v0.1
		v0.1c0,0,0,0,0,0.1l0,0v0.1h0.1c0,0,0,0,0,0l0,0h0.1l0,0h0.1h0.1c0,0,0,0,0.1,0h0.1L88,64h0.1h0.1h0.7h0.1H89h0h0.1h0.1h0.1l0,0
		h0.1l0,0v0l0,0l0,0v-0.1v-0.1v-0.1v-0.1v-0.1c0,0,0,0,0-0.1v-0.1c0,0,0,0,0-0.1c0,0,0,0,0-0.1c0,0,0,0,0-0.1c0,0,0,0,0-0.1
		c0,0,0,0,0-0.1V63c0,0,0,0,0-0.1c0,0,0,0,0-0.1c0,0,0,0,0-0.1v-0.1l0,0l0,0v-0.1c0,0,0,0,0-0.1v-0.1c0,0,0,0,0-0.1v-0.1v-0.1
		c0,0,0,0,0-0.1v0l0,0c0,0,0,0-0.1,0l0,0l0,0h-0.1l0,0h-0.1H89h-0.1h-0.1h-0.1h-0.1h-0.1h-0.3L88.4,61.3z"/>
	<path style="clip-path:url(#SVGID_00000042717138278906186090000001657754638541128576_);fill:#FFD740;" d="M88.4,61.3H88h-0.1
		h-0.1h-0.1h-0.1h-0.1h-0.1l0,0l-0.1,0l0,0l0,0v0v0.1v0c0,0,0,0,0,0.1v0.1v0.1v0.1v0.1c0,0,0,0,0,0.1c0,0,0,0,0,0.1c0,0,0,0,0,0.1
		c0,0,0,0,0,0.1s0,0,0,0.1s0,0,0,0.1v0.2c0,0,0,0,0,0.1s0,0,0,0.1s0,0,0,0.1c0,0,0,0,0,0.1l0,0l0,0v0.1c0,0,0,0,0,0.1v0.1V63v0.1
		v0.1c0,0,0,0,0,0.1l0,0v0.1h0.1c0,0,0,0,0,0l0,0h0.1l0,0h0.1h0.1c0,0,0,0,0.1,0h0.1L88,64h0.1h0.1h0.7h0.1H89h0h0.1h0.1h0.1l0,0
		h0.1l0,0v0l0,0l0,0v-0.1v-0.1v-0.1v-0.1v-0.1c0,0,0,0,0-0.1v-0.1c0,0,0,0,0-0.1c0,0,0,0,0-0.1c0,0,0,0,0-0.1c0,0,0,0,0-0.1
		c0,0,0,0,0-0.1V63c0,0,0,0,0-0.1c0,0,0,0,0-0.1c0,0,0,0,0-0.1v-0.1l0,0l0,0v-0.1c0,0,0,0,0-0.1v-0.1c0,0,0,0,0-0.1v-0.1v-0.1
		c0,0,0,0,0-0.1v0l0,0c0,0,0,0-0.1,0l0,0l0,0h-0.1l0,0h-0.1H89h-0.1h-0.1h-0.1h-0.1h-0.1h-0.3L88.4,61.3z"/>
	<path style="clip-path:url(#SVGID_00000042717138278906186090000001657754638541128576_);fill:#FFD740;" d="M88.4,61.3H88h-0.1
		h-0.1h-0.1h-0.1h-0.1h-0.1l0,0l-0.1,0l0,0l0,0v0v0.1v0c0,0,0,0,0,0.1v0.1v0.1v0.1v0.1c0,0,0,0,0,0.1c0,0,0,0,0,0.1c0,0,0,0,0,0.1
		c0,0,0,0,0,0.1s0,0,0,0.1s0,0,0,0.1v0.2c0,0,0,0,0,0.1s0,0,0,0.1s0,0,0,0.1c0,0,0,0,0,0.1l0,0l0,0v0.1c0,0,0,0,0,0.1v0.1V63v0.1
		v0.1c0,0,0,0,0,0.1l0,0v0.1h0.1c0,0,0,0,0,0l0,0h0.1l0,0h0.1h0.1c0,0,0,0,0.1,0h0.1L88,64h0.1h0.1h0.7h0.1H89h0h0.1h0.1h0.1l0,0
		h0.1l0,0v0l0,0l0,0v-0.1v-0.1v-0.1v-0.1v-0.1c0,0,0,0,0-0.1v-0.1c0,0,0,0,0-0.1c0,0,0,0,0-0.1c0,0,0,0,0-0.1c0,0,0,0,0-0.1
		c0,0,0,0,0-0.1V63c0,0,0,0,0-0.1c0,0,0,0,0-0.1c0,0,0,0,0-0.1v-0.1l0,0l0,0v-0.1c0,0,0,0,0-0.1v-0.1c0,0,0,0,0-0.1v-0.1v-0.1
		c0,0,0,0,0-0.1v0l0,0c0,0,0,0-0.1,0l0,0l0,0h-0.1l0,0h-0.1H89h-0.1h-0.1h-0.1h-0.1h-0.1h-0.3L88.4,61.3z"/>
	<path style="clip-path:url(#SVGID_00000042717138278906186090000001657754638541128576_);fill:#FFD740;" d="M88.4,61.3H88h-0.1
		h-0.1h-0.1h-0.1h-0.1h-0.1l0,0l-0.1,0l0,0l0,0v0v0.1v0c0,0,0,0,0,0.1v0.1v0.1v0.1v0.1c0,0,0,0,0,0.1c0,0,0,0,0,0.1c0,0,0,0,0,0.1
		c0,0,0,0,0,0.1s0,0,0,0.1s0,0,0,0.1v0.2c0,0,0,0,0,0.1s0,0,0,0.1s0,0,0,0.1c0,0,0,0,0,0.1l0,0l0,0v0.1c0,0,0,0,0,0.1v0.1V63v0.1
		v0.1c0,0,0,0,0,0.1l0,0v0.1h0.1c0,0,0,0,0,0l0,0h0.1l0,0h0.1h0.1c0,0,0,0,0.1,0h0.1L88,64h0.1h0.1h0.7h0.1H89h0h0.1h0.1h0.1l0,0
		h0.1l0,0v0l0,0l0,0v-0.1v-0.1v-0.1v-0.1v-0.1c0,0,0,0,0-0.1v-0.1c0,0,0,0,0-0.1c0,0,0,0,0-0.1c0,0,0,0,0-0.1c0,0,0,0,0-0.1
		c0,0,0,0,0-0.1V63c0,0,0,0,0-0.1c0,0,0,0,0-0.1c0,0,0,0,0-0.1v-0.1l0,0l0,0v-0.1c0,0,0,0,0-0.1v-0.1c0,0,0,0,0-0.1v-0.1v-0.1
		c0,0,0,0,0-0.1v0l0,0c0,0,0,0-0.1,0l0,0l0,0h-0.1l0,0h-0.1H89h-0.1h-0.1h-0.1h-0.1h-0.1h-0.3L88.4,61.3z"/>
	<path style="clip-path:url(#SVGID_00000042717138278906186090000001657754638541128576_);fill:#FFD740;" d="M88.4,61.3H88h-0.1
		h-0.1h-0.1h-0.1h-0.1h-0.1l0,0l-0.1,0l0,0l0,0v0v0.1v0c0,0,0,0,0,0.1v0.1v0.1v0.1v0.1c0,0,0,0,0,0.1c0,0,0,0,0,0.1c0,0,0,0,0,0.1
		c0,0,0,0,0,0.1s0,0,0,0.1s0,0,0,0.1v0.2c0,0,0,0,0,0.1s0,0,0,0.1s0,0,0,0.1c0,0,0,0,0,0.1l0,0l0,0v0.1c0,0,0,0,0,0.1v0.1V63v0.1
		v0.1c0,0,0,0,0,0.1l0,0v0.1h0.1c0,0,0,0,0,0l0,0h0.1l0,0h0.1h0.1c0,0,0,0,0.1,0h0.1L88,64h0.1h0.1h0.1h0.1c0,0,0,0,0.1,0h0.3h0.1
		h0.1h0.1H89h0h0.1h0.1h0.1l0,0h0.1l0,0v0l0,0l0,0v-0.1v0c0,0,0,0,0-0.1v-0.1v-0.1c0,0,0,0,0-0.1v-0.1c0,0,0,0,0-0.1s0,0,0-0.1
		s0,0,0-0.1s0,0,0-0.1c0,0,0,0,0-0.1V63c0,0,0,0,0-0.1c0,0,0,0,0-0.1s0,0,0-0.1c0,0,0,0,0-0.1l0,0l0,0v-0.1c0,0,0,0,0-0.1v-0.1
		c0,0,0,0,0-0.1v-0.1v-0.1l0,0v-0.1l0,0l-0.1,0l0,0l0,0h-0.1l0,0h-0.1H89h-0.1h-0.1h-0.1h-0.1h-0.1h-0.3L88.4,61.3z"/>
	<path style="clip-path:url(#SVGID_00000042717138278906186090000001657754638541128576_);fill:#FFD740;" d="M88.4,61.3H88h-0.1
		h-0.1h-0.1h-0.1h-0.1h-0.1l0,0l-0.1,0l0,0l0,0v0v0.1v0c0,0,0,0,0,0.1v0.1v0.1v0.1v0.1c0,0,0,0,0,0.1c0,0,0,0,0,0.1c0,0,0,0,0,0.1
		c0,0,0,0,0,0.1s0,0,0,0.1s0,0,0,0.1v0.2c0,0,0,0,0,0.1s0,0,0,0.1s0,0,0,0.1c0,0,0,0,0,0.1l0,0l0,0v0.1c0,0,0,0,0,0.1v0.1V63v0.1
		v0.1c0,0,0,0,0,0.1l0,0v0.1h0.1c0,0,0,0,0,0l0,0h0.1l0,0h0.1h0.1c0,0,0,0,0.1,0h0.1L88,64h0.1h0.1h0.7h0.1H89h0h0.1h0.1h0.1l0,0
		h0.1l0,0v0l0,0l0,0v-0.1v-0.1v-0.1v-0.1v-0.1c0,0,0,0,0-0.1v-0.1c0,0,0,0,0-0.1c0,0,0,0,0-0.1c0,0,0,0,0-0.1c0,0,0,0,0-0.1
		c0,0,0,0,0-0.1V63c0,0,0,0,0-0.1c0,0,0,0,0-0.1c0,0,0,0,0-0.1v-0.1l0,0l0,0v-0.1c0,0,0,0,0-0.1v-0.1c0,0,0,0,0-0.1v-0.1v-0.1
		c0,0,0,0,0-0.1v0l0,0c0,0,0,0-0.1,0l0,0l0,0h-0.1l0,0h-0.1H89h-0.1h-0.1h-0.1h-0.1h-0.1h-0.3L88.4,61.3z"/>
	<path style="clip-path:url(#SVGID_00000042717138278906186090000001657754638541128576_);fill:#FFD740;" d="M88.4,61.3H88h-0.1
		h-0.1h-0.1h-0.1h-0.1h-0.1l0,0l-0.1,0l0,0l0,0v0v0.1v0c0,0,0,0,0,0.1v0.1v0.1v0.1v0.1c0,0,0,0,0,0.1c0,0,0,0,0,0.1c0,0,0,0,0,0.1
		c0,0,0,0,0,0.1s0,0,0,0.1s0,0,0,0.1v0.2c0,0,0,0,0,0.1s0,0,0,0.1s0,0,0,0.1c0,0,0,0,0,0.1l0,0l0,0v0.1c0,0,0,0,0,0.1v0.1V63v0.1
		v0.1c0,0,0,0,0,0.1l0,0v0.1h0.1c0,0,0,0,0,0l0,0h0.1l0,0h0.1h0.1c0,0,0,0,0.1,0h0.1L88,64h0.1h0.1h0.7h0.1H89h0h0.1h0.1h0.1l0,0
		h0.1l0,0v0l0,0l0,0v-0.1v-0.1v-0.1v-0.1v-0.1c0,0,0,0,0-0.1v-0.1c0,0,0,0,0-0.1c0,0,0,0,0-0.1c0,0,0,0,0-0.1c0,0,0,0,0-0.1
		c0,0,0,0,0-0.1V63c0,0,0,0,0-0.1c0,0,0,0,0-0.1c0,0,0,0,0-0.1v-0.1l0,0l0,0v-0.1c0,0,0,0,0-0.1v-0.1c0,0,0,0,0-0.1v-0.1v-0.1
		c0,0,0,0,0-0.1v0l0,0c0,0,0,0-0.1,0l0,0l0,0h-0.1l0,0h-0.1H89h-0.1h-0.1h-0.1h-0.1h-0.1h-0.3L88.4,61.3z"/>
	<path style="clip-path:url(#SVGID_00000042717138278906186090000001657754638541128576_);fill:#FFD740;" d="M88.4,61.3H88h-0.1
		h-0.1h-0.1h-0.1h-0.1h-0.1l0,0l-0.1,0l0,0l0,0v0v0.1v0c0,0,0,0,0,0.1v0.1v0.1v0.1v0.1c0,0,0,0,0,0.1c0,0,0,0,0,0.1c0,0,0,0,0,0.1
		c0,0,0,0,0,0.1s0,0,0,0.1s0,0,0,0.1v0.2c0,0,0,0,0,0.1s0,0,0,0.1s0,0,0,0.1c0,0,0,0,0,0.1l0,0l0,0v0.1c0,0,0,0,0,0.1v0.1V63v0.1
		v0.1c0,0,0,0,0,0.1l0,0v0.1h0.1c0,0,0,0,0,0l0,0h0.1l0,0h0.1h0.1c0,0,0,0,0.1,0h0.1L88,64h0.1h0.1h0.7h0.1H89h0h0.1h0.1h0.1l0,0
		h0.1l0,0v0l0,0l0,0v-0.1v-0.1v-0.1v-0.1v-0.1c0,0,0,0,0-0.1v-0.1c0,0,0,0,0-0.1c0,0,0,0,0-0.1c0,0,0,0,0-0.1c0,0,0,0,0-0.1
		c0,0,0,0,0-0.1V63c0,0,0,0,0-0.1c0,0,0,0,0-0.1c0,0,0,0,0-0.1v-0.1l0,0l0,0v-0.1c0,0,0,0,0-0.1v-0.1c0,0,0,0,0-0.1v-0.1v-0.1
		c0,0,0,0,0-0.1v0l0,0c0,0,0,0-0.1,0l0,0l0,0h-0.1l0,0h-0.1H89h-0.1h-0.1h-0.1h-0.1h-0.1h-0.3L88.4,61.3z"/>
	<path style="clip-path:url(#SVGID_00000042717138278906186090000001657754638541128576_);fill:#FFD740;" d="M88.4,61.3H88h-0.1
		h-0.1h-0.1h-0.1h-0.1h-0.1l0,0l-0.1,0l0,0l0,0v0v0.1v0c0,0,0,0,0,0.1v0.1v0.1v0.1v0.1c0,0,0,0,0,0.1c0,0,0,0,0,0.1c0,0,0,0,0,0.1
		c0,0,0,0,0,0.1s0,0,0,0.1s0,0,0,0.1v0.2c0,0,0,0,0,0.1s0,0,0,0.1s0,0,0,0.1c0,0,0,0,0,0.1l0,0l0,0v0.1c0,0,0,0,0,0.1v0.1V63v0.1
		v0.1c0,0,0,0,0,0.1l0,0v0.1h0.1c0,0,0,0,0,0l0,0h0.1l0,0h0.1h0.1c0,0,0,0,0.1,0h0.1L88,64h0.1h0.1h0.7h0.1H89h0h0.1h0.1h0.1l0,0
		h0.1l0,0v0l0,0l0,0v-0.1v-0.1v-0.1v-0.1v-0.1c0,0,0,0,0-0.1v-0.1c0,0,0,0,0-0.1c0,0,0,0,0-0.1c0,0,0,0,0-0.1c0,0,0,0,0-0.1
		c0,0,0,0,0-0.1V63c0,0,0,0,0-0.1c0,0,0,0,0-0.1c0,0,0,0,0-0.1v-0.1l0,0l0,0v-0.1c0,0,0,0,0-0.1v-0.1c0,0,0,0,0-0.1v-0.1v-0.1
		c0,0,0,0,0-0.1v0l0,0c0,0,0,0-0.1,0l0,0l0,0h-0.1l0,0h-0.1H89h-0.1h-0.1h-0.1h-0.1h-0.1h-0.3L88.4,61.3z"/>
	<path style="clip-path:url(#SVGID_00000042717138278906186090000001657754638541128576_);fill:#FFD740;" d="M88.4,61.3H88h-0.1
		h-0.1h-0.1h-0.1h-0.1h-0.1l0,0l-0.1,0l0,0l0,0v0v0.1v0c0,0,0,0,0,0.1v0.1v0.1v0.1v0.1c0,0,0,0,0,0.1c0,0,0,0,0,0.1c0,0,0,0,0,0.1
		c0,0,0,0,0,0.1s0,0,0,0.1s0,0,0,0.1v0.2c0,0,0,0,0,0.1s0,0,0,0.1s0,0,0,0.1c0,0,0,0,0,0.1l0,0l0,0v0.1c0,0,0,0,0,0.1v0.1V63v0.1
		v0.1c0,0,0,0,0,0.1l0,0v0.1h0.1c0,0,0,0,0,0l0,0h0.1l0,0h0.1h0.1c0,0,0,0,0.1,0h0.1L88,64h0.1h0.1h0.7h0.1H89h0h0.1h0.1h0.1l0,0
		h0.1l0,0v0l0,0l0,0v-0.1v-0.1v-0.1v-0.1v-0.1c0,0,0,0,0-0.1v-0.1c0,0,0,0,0-0.1c0,0,0,0,0-0.1c0,0,0,0,0-0.1c0,0,0,0,0-0.1
		c0,0,0,0,0-0.1V63c0,0,0,0,0-0.1c0,0,0,0,0-0.1c0,0,0,0,0-0.1v-0.1l0,0l0,0v-0.1c0,0,0,0,0-0.1v-0.1c0,0,0,0,0-0.1v-0.1v-0.1
		c0,0,0,0,0-0.1v0l0,0c0,0,0,0-0.1,0l0,0l0,0h-0.1l0,0h-0.1H89h-0.1h-0.1h-0.1h-0.1h-0.1h-0.3L88.4,61.3z"/>
	<path style="clip-path:url(#SVGID_00000042717138278906186090000001657754638541128576_);fill:#FFD740;" d="M88.4,61.3H88h-0.1
		h-0.1h-0.1h-0.1h-0.1h-0.1l0,0l-0.1,0l0,0l0,0v0v0.1v0c0,0,0,0,0,0.1v0.1v0.1v0.1v0.1c0,0,0,0,0,0.1c0,0,0,0,0,0.1c0,0,0,0,0,0.1
		c0,0,0,0,0,0.1s0,0,0,0.1s0,0,0,0.1v0.2c0,0,0,0,0,0.1s0,0,0,0.1s0,0,0,0.1c0,0,0,0,0,0.1l0,0l0,0v0.1c0,0,0,0,0,0.1v0.1V63v0.1
		v0.1c0,0,0,0,0,0.1l0,0v0.1h0.1c0,0,0,0,0,0l0,0h0.1l0,0h0.1h0.1c0,0,0,0,0.1,0h0.1L88,64h0.1h0.1h0.7h0.1H89h0h0.1h0.1h0.1l0,0
		h0.1l0,0v0l0,0l0,0v-0.1v-0.1v-0.1v-0.1v-0.1c0,0,0,0,0-0.1v-0.1c0,0,0,0,0-0.1c0,0,0,0,0-0.1c0,0,0,0,0-0.1c0,0,0,0,0-0.1
		c0,0,0,0,0-0.1V63c0,0,0,0,0-0.1c0,0,0,0,0-0.1c0,0,0,0,0-0.1v-0.1l0,0l0,0v-0.1c0,0,0,0,0-0.1v-0.1c0,0,0,0,0-0.1v-0.1v-0.1
		c0,0,0,0,0-0.1v0l0,0c0,0,0,0-0.1,0l0,0l0,0h-0.1l0,0h-0.1H89h-0.1h-0.1h-0.1h-0.1h-0.1h-0.3L88.4,61.3z"/>
	<path style="clip-path:url(#SVGID_00000042717138278906186090000001657754638541128576_);fill:#FFD740;" d="M88.4,61.3H88h-0.1
		h-0.1h-0.1h-0.1h-0.1h-0.1l0,0l-0.1,0l0,0l0,0v0v0.1v0c0,0,0,0,0,0.1v0.1v0.1v0.1v0.1c0,0,0,0,0,0.1c0,0,0,0,0,0.1c0,0,0,0,0,0.1
		c0,0,0,0,0,0.1s0,0,0,0.1s0,0,0,0.1v0.2c0,0,0,0,0,0.1s0,0,0,0.1s0,0,0,0.1c0,0,0,0,0,0.1l0,0l0,0v0.1c0,0,0,0,0,0.1v0.1V63v0.1
		v0.1c0,0,0,0,0,0.1l0,0v0.1h0.1c0,0,0,0,0,0l0,0h0.1l0,0h0.1h0.1c0,0,0,0,0.1,0h0.1L88,64h0.1h0.1h0.7h0.1H89h0h0.1h0.1h0.1l0,0
		h0.1l0,0v0l0,0l0,0v-0.1v-0.1v-0.1v-0.1v-0.1c0,0,0,0,0-0.1v-0.1c0,0,0,0,0-0.1c0,0,0,0,0-0.1c0,0,0,0,0-0.1c0,0,0,0,0-0.1
		c0,0,0,0,0-0.1V63c0,0,0,0,0-0.1c0,0,0,0,0-0.1c0,0,0,0,0-0.1v-0.1l0,0l0,0v-0.1c0,0,0,0,0-0.1v-0.1c0,0,0,0,0-0.1v-0.1v-0.1
		c0,0,0,0,0-0.1v0l0,0c0,0,0,0-0.1,0l0,0l0,0h-0.1l0,0h-0.1H89h-0.1h-0.1h-0.1h-0.1h-0.1h-0.3L88.4,61.3z"/>
	<path style="clip-path:url(#SVGID_00000042717138278906186090000001657754638541128576_);fill:#FFD740;" d="M88.4,61.3H88h-0.1
		h-0.1h-0.1h-0.1h-0.1h-0.1l0,0l-0.1,0l0,0l0,0v0v0.1v0c0,0,0,0,0,0.1v0.1v0.1v0.1v0.1c0,0,0,0,0,0.1c0,0,0,0,0,0.1c0,0,0,0,0,0.1
		c0,0,0,0,0,0.1s0,0,0,0.1s0,0,0,0.1v0.2c0,0,0,0,0,0.1s0,0,0,0.1s0,0,0,0.1c0,0,0,0,0,0.1l0,0l0,0v0.1c0,0,0,0,0,0.1v0.1V63v0.1
		v0.1c0,0,0,0,0,0.1l0,0v0.1h0.1c0,0,0,0,0,0l0,0h0.1l0,0h0.1h0.1c0,0,0,0,0.1,0h0.1L88,64h0.1h0.1h0.7h0.1H89h0h0.1h0.1h0.1l0,0
		h0.1l0,0v0l0,0l0,0v-0.1v-0.1v-0.1v-0.1v-0.1c0,0,0,0,0-0.1v-0.1c0,0,0,0,0-0.1c0,0,0,0,0-0.1c0,0,0,0,0-0.1c0,0,0,0,0-0.1
		c0,0,0,0,0-0.1V63c0,0,0,0,0-0.1c0,0,0,0,0-0.1c0,0,0,0,0-0.1v-0.1l0,0l0,0v-0.1c0,0,0,0,0-0.1v-0.1c0,0,0,0,0-0.1v-0.1v-0.1
		c0,0,0,0,0-0.1v0l0,0c0,0,0,0-0.1,0l0,0l0,0h-0.1l0,0h-0.1H89h-0.1h-0.1h-0.1h-0.1h-0.1h-0.3L88.4,61.3z"/>
	<path style="clip-path:url(#SVGID_00000042717138278906186090000001657754638541128576_);fill:#FFD740;" d="M88.4,61.3H88h-0.1
		h-0.1h-0.1h-0.1h-0.1h-0.1l0,0l-0.1,0l0,0l0,0v0v0.1v0c0,0,0,0,0,0.1v0.1v0.1v0.1v0.1c0,0,0,0,0,0.1c0,0,0,0,0,0.1c0,0,0,0,0,0.1
		c0,0,0,0,0,0.1s0,0,0,0.1s0,0,0,0.1v0.2c0,0,0,0,0,0.1s0,0,0,0.1s0,0,0,0.1c0,0,0,0,0,0.1l0,0l0,0v0.1c0,0,0,0,0,0.1v0.1V63v0.1
		v0.1c0,0,0,0,0,0.1l0,0v0.1h0.1c0,0,0,0,0,0l0,0h0.1l0,0h0.1h0.1c0,0,0,0,0.1,0h0.1L88,64h0.1h0.1h0.7h0.1H89h0h0.1h0.1h0.1l0,0
		h0.1l0,0v0l0,0l0,0v-0.1v-0.1v-0.1v-0.1v-0.1c0,0,0,0,0-0.1v-0.1c0,0,0,0,0-0.1c0,0,0,0,0-0.1c0,0,0,0,0-0.1c0,0,0,0,0-0.1
		c0,0,0,0,0-0.1V63c0,0,0,0,0-0.1c0,0,0,0,0-0.1c0,0,0,0,0-0.1v-0.1l0,0l0,0v-0.1c0,0,0,0,0-0.1v-0.1c0,0,0,0,0-0.1v-0.1v-0.1
		c0,0,0,0,0-0.1v0l0,0c0,0,0,0-0.1,0l0,0l0,0h-0.1l0,0h-0.1H89h-0.1h-0.1h-0.1h-0.1h-0.1h-0.3L88.4,61.3z"/>
	<path style="clip-path:url(#SVGID_00000042717138278906186090000001657754638541128576_);fill:#FFD740;" d="M88.4,61.3H88h-0.1
		h-0.1h-0.1h-0.1h-0.1h-0.1l0,0l-0.1,0l0,0l0,0v0v0.1v0c0,0,0,0,0,0.1v0.1v0.1v0.1v0.1c0,0,0,0,0,0.1c0,0,0,0,0,0.1c0,0,0,0,0,0.1
		c0,0,0,0,0,0.1s0,0,0,0.1s0,0,0,0.1v0.2c0,0,0,0,0,0.1s0,0,0,0.1s0,0,0,0.1c0,0,0,0,0,0.1l0,0l0,0v0.1c0,0,0,0,0,0.1v0.1V63v0.1
		v0.1c0,0,0,0,0,0.1l0,0v0.1h0.1c0,0,0,0,0,0l0,0h0.1l0,0h0.1h0.1c0,0,0,0,0.1,0h0.1L88,64h0.1h0.1h0.1h0.1c0,0,0,0,0.1,0h0.3h0.1
		h0.1h0.1H89h0h0.1h0.1h0.1l0,0h0.1l0,0v0l0,0l0,0v-0.1v0c0,0,0,0,0-0.1v-0.1v-0.1c0,0,0,0,0-0.1v-0.1c0,0,0,0,0-0.1s0,0,0-0.1
		s0,0,0-0.1s0,0,0-0.1c0,0,0,0,0-0.1V63c0,0,0,0,0-0.1c0,0,0,0,0-0.1s0,0,0-0.1c0,0,0,0,0-0.1l0,0l0,0v-0.1c0,0,0,0,0-0.1v-0.1
		c0,0,0,0,0-0.1v-0.1v-0.1l0,0v-0.1l0,0l-0.1,0l0,0l0,0h-0.1l0,0h-0.1H89h-0.1h-0.1h-0.1h-0.1h-0.1h-0.3L88.4,61.3z"/>
	<path style="clip-path:url(#SVGID_00000042717138278906186090000001657754638541128576_);fill:#FFD740;" d="M88.4,61.3H88h-0.1
		h-0.1h-0.1h-0.1h-0.1h-0.1l0,0l-0.1,0l0,0l0,0v0v0.1v0c0,0,0,0,0,0.1v0.1v0.1v0.1v0.1c0,0,0,0,0,0.1c0,0,0,0,0,0.1c0,0,0,0,0,0.1
		c0,0,0,0,0,0.1s0,0,0,0.1s0,0,0,0.1v0.2c0,0,0,0,0,0.1s0,0,0,0.1s0,0,0,0.1c0,0,0,0,0,0.1l0,0l0,0v0.1c0,0,0,0,0,0.1v0.1V63v0.1
		v0.1c0,0,0,0,0,0.1l0,0v0.1h0.1c0,0,0,0,0,0l0,0h0.1l0,0h0.1h0.1c0,0,0,0,0.1,0h0.1L88,64h0.1h0.1h0.7h0.1H89h0h0.1h0.1h0.1l0,0
		h0.1l0,0v0l0,0l0,0v-0.1v-0.1v-0.1v-0.1v-0.1c0,0,0,0,0-0.1v-0.1c0,0,0,0,0-0.1c0,0,0,0,0-0.1c0,0,0,0,0-0.1c0,0,0,0,0-0.1
		c0,0,0,0,0-0.1V63c0,0,0,0,0-0.1c0,0,0,0,0-0.1c0,0,0,0,0-0.1v-0.1l0,0l0,0v-0.1c0,0,0,0,0-0.1v-0.1c0,0,0,0,0-0.1v-0.1v-0.1
		c0,0,0,0,0-0.1v0l0,0c0,0,0,0-0.1,0l0,0l0,0h-0.1l0,0h-0.1H89h-0.1h-0.1h-0.1h-0.1h-0.1h-0.3L88.4,61.3z"/>
	<path style="clip-path:url(#SVGID_00000042717138278906186090000001657754638541128576_);fill:#FFD740;" d="M88.4,61.3H88h-0.1
		h-0.1h-0.1h-0.1h-0.1h-0.1l0,0l-0.1,0l0,0l0,0v0v0.1v0c0,0,0,0,0,0.1v0.1v0.1v0.1v0.1c0,0,0,0,0,0.1c0,0,0,0,0,0.1c0,0,0,0,0,0.1
		c0,0,0,0,0,0.1s0,0,0,0.1s0,0,0,0.1v0.2c0,0,0,0,0,0.1s0,0,0,0.1s0,0,0,0.1c0,0,0,0,0,0.1l0,0l0,0v0.1c0,0,0,0,0,0.1v0.1V63v0.1
		v0.1c0,0,0,0,0,0.1l0,0v0.1h0.1c0,0,0,0,0,0l0,0h0.1l0,0h0.1h0.1c0,0,0,0,0.1,0h0.1L88,64h0.1h0.1h0.7h0.1H89h0h0.1h0.1h0.1l0,0
		h0.1l0,0v0l0,0l0,0v-0.1v-0.1v-0.1v-0.1v-0.1c0,0,0,0,0-0.1v-0.1c0,0,0,0,0-0.1c0,0,0,0,0-0.1c0,0,0,0,0-0.1c0,0,0,0,0-0.1
		c0,0,0,0,0-0.1V63c0,0,0,0,0-0.1c0,0,0,0,0-0.1c0,0,0,0,0-0.1v-0.1l0,0l0,0v-0.1c0,0,0,0,0-0.1v-0.1c0,0,0,0,0-0.1v-0.1v-0.1
		c0,0,0,0,0-0.1v0l0,0c0,0,0,0-0.1,0l0,0l0,0h-0.1l0,0h-0.1H89h-0.1h-0.1h-0.1h-0.1h-0.1h-0.3L88.4,61.3z"/>
	<path style="clip-path:url(#SVGID_00000042717138278906186090000001657754638541128576_);fill:#FFD740;" d="M88.4,61.3H88h-0.1
		h-0.1h-0.1h-0.1h-0.1h-0.1l0,0l-0.1,0l0,0l0,0v0v0.1v0c0,0,0,0,0,0.1v0.1v0.1v0.1v0.1c0,0,0,0,0,0.1c0,0,0,0,0,0.1c0,0,0,0,0,0.1
		c0,0,0,0,0,0.1s0,0,0,0.1s0,0,0,0.1v0.2c0,0,0,0,0,0.1s0,0,0,0.1s0,0,0,0.1c0,0,0,0,0,0.1l0,0l0,0v0.1c0,0,0,0,0,0.1v0.1V63v0.1
		v0.1c0,0,0,0,0,0.1l0,0v0.1h0.1c0,0,0,0,0,0l0,0h0.1l0,0h0.1h0.1c0,0,0,0,0.1,0h0.1L88,64h0.1h0.1h0.7h0.1H89h0h0.1h0.1h0.1l0,0
		h0.1l0,0v0l0,0l0,0v-0.1v-0.1v-0.1v-0.1v-0.1c0,0,0,0,0-0.1v-0.1c0,0,0,0,0-0.1c0,0,0,0,0-0.1c0,0,0,0,0-0.1c0,0,0,0,0-0.1
		c0,0,0,0,0-0.1V63c0,0,0,0,0-0.1c0,0,0,0,0-0.1c0,0,0,0,0-0.1v-0.1l0,0l0,0v-0.1c0,0,0,0,0-0.1v-0.1c0,0,0,0,0-0.1v-0.1v-0.1
		c0,0,0,0,0-0.1v0l0,0c0,0,0,0-0.1,0l0,0l0,0h-0.1l0,0h-0.1H89h-0.1h-0.1h-0.1h-0.1h-0.1h-0.3L88.4,61.3z"/>
	<path style="clip-path:url(#SVGID_00000042717138278906186090000001657754638541128576_);fill:#FFD740;" d="M88.4,61.3H88h-0.1
		h-0.1h-0.1h-0.1h-0.1h-0.1l0,0l-0.1,0l0,0l0,0v0v0.1v0c0,0,0,0,0,0.1v0.1v0.1v0.1v0.1c0,0,0,0,0,0.1c0,0,0,0,0,0.1c0,0,0,0,0,0.1
		c0,0,0,0,0,0.1s0,0,0,0.1s0,0,0,0.1v0.2c0,0,0,0,0,0.1s0,0,0,0.1s0,0,0,0.1c0,0,0,0,0,0.1l0,0l0,0v0.1c0,0,0,0,0,0.1v0.1V63v0.1
		v0.1c0,0,0,0,0,0.1l0,0v0.1h0.1c0,0,0,0,0,0l0,0h0.1l0,0h0.1h0.1c0,0,0,0,0.1,0h0.1L88,64h0.1h0.1h0.7h0.1H89h0h0.1h0.1h0.1l0,0
		h0.1l0,0v0l0,0l0,0v-0.1v-0.1v-0.1v-0.1v-0.1c0,0,0,0,0-0.1v-0.1c0,0,0,0,0-0.1c0,0,0,0,0-0.1c0,0,0,0,0-0.1c0,0,0,0,0-0.1
		c0,0,0,0,0-0.1V63c0,0,0,0,0-0.1c0,0,0,0,0-0.1c0,0,0,0,0-0.1v-0.1l0,0l0,0v-0.1c0,0,0,0,0-0.1v-0.1c0,0,0,0,0-0.1v-0.1v-0.1
		c0,0,0,0,0-0.1v0l0,0c0,0,0,0-0.1,0l0,0l0,0h-0.1l0,0h-0.1H89h-0.1h-0.1h-0.1h-0.1h-0.1h-0.3L88.4,61.3z"/>
	<path style="clip-path:url(#SVGID_00000042717138278906186090000001657754638541128576_);fill:#FFD740;" d="M88.4,61.3H88h-0.1
		h-0.1h-0.1h-0.1h-0.1h-0.1l0,0l-0.1,0l0,0l0,0v0v0.1v0c0,0,0,0,0,0.1v0.1v0.1v0.1v0.1c0,0,0,0,0,0.1c0,0,0,0,0,0.1c0,0,0,0,0,0.1
		c0,0,0,0,0,0.1s0,0,0,0.1s0,0,0,0.1v0.2c0,0,0,0,0,0.1s0,0,0,0.1s0,0,0,0.1c0,0,0,0,0,0.1l0,0l0,0v0.1c0,0,0,0,0,0.1v0.1V63v0.1
		v0.1c0,0,0,0,0,0.1l0,0v0.1h0.1c0,0,0,0,0,0l0,0h0.1l0,0h0.1h0.1c0,0,0,0,0.1,0h0.1L88,64h0.1h0.1h0.7h0.1H89h0h0.1h0.1h0.1l0,0
		h0.1l0,0v0l0,0l0,0v-0.1v-0.1v-0.1v-0.1v-0.1c0,0,0,0,0-0.1v-0.1c0,0,0,0,0-0.1c0,0,0,0,0-0.1c0,0,0,0,0-0.1c0,0,0,0,0-0.1
		c0,0,0,0,0-0.1V63c0,0,0,0,0-0.1c0,0,0,0,0-0.1c0,0,0,0,0-0.1v-0.1l0,0l0,0v-0.1c0,0,0,0,0-0.1v-0.1c0,0,0,0,0-0.1v-0.1v-0.1
		c0,0,0,0,0-0.1v0l0,0c0,0,0,0-0.1,0l0,0l0,0h-0.1l0,0h-0.1H89h-0.1h-0.1h-0.1h-0.1h-0.1h-0.3L88.4,61.3z"/>
	<path style="clip-path:url(#SVGID_00000042717138278906186090000001657754638541128576_);fill:#FFD740;" d="M88.4,61.3H88h-0.1
		h-0.1h-0.1h-0.1h-0.1h-0.1l0,0l-0.1,0l0,0l0,0v0v0.1v0c0,0,0,0,0,0.1v0.1v0.1v0.1v0.1c0,0,0,0,0,0.1c0,0,0,0,0,0.1c0,0,0,0,0,0.1
		c0,0,0,0,0,0.1s0,0,0,0.1s0,0,0,0.1v0.2c0,0,0,0,0,0.1s0,0,0,0.1s0,0,0,0.1c0,0,0,0,0,0.1l0,0l0,0v0.1c0,0,0,0,0,0.1v0.1V63v0.1
		v0.1c0,0,0,0,0,0.1l0,0v0.1h0.1c0,0,0,0,0,0l0,0h0.1l0,0h0.1h0.1c0,0,0,0,0.1,0h0.1L88,64h0.1h0.1h0.7h0.1H89h0h0.1h0.1h0.1l0,0
		h0.1l0,0v0l0,0l0,0v-0.1v-0.1v-0.1v-0.1v-0.1c0,0,0,0,0-0.1v-0.1c0,0,0,0,0-0.1c0,0,0,0,0-0.1c0,0,0,0,0-0.1c0,0,0,0,0-0.1
		c0,0,0,0,0-0.1V63c0,0,0,0,0-0.1c0,0,0,0,0-0.1c0,0,0,0,0-0.1v-0.1l0,0l0,0v-0.1c0,0,0,0,0-0.1v-0.1c0,0,0,0,0-0.1v-0.1v-0.1
		c0,0,0,0,0-0.1v0l0,0c0,0,0,0-0.1,0l0,0l0,0h-0.1l0,0h-0.1H89h-0.1h-0.1h-0.1h-0.1h-0.1h-0.3L88.4,61.3z"/>
	<path style="clip-path:url(#SVGID_00000042717138278906186090000001657754638541128576_);fill:#FFD740;" d="M88.4,61.3H88h-0.1
		h-0.1h-0.1h-0.1h-0.1h-0.1l0,0l-0.1,0l0,0l0,0v0v0.1v0c0,0,0,0,0,0.1v0.1v0.1v0.1v0.1c0,0,0,0,0,0.1c0,0,0,0,0,0.1c0,0,0,0,0,0.1
		c0,0,0,0,0,0.1s0,0,0,0.1s0,0,0,0.1v0.2c0,0,0,0,0,0.1s0,0,0,0.1s0,0,0,0.1c0,0,0,0,0,0.1l0,0l0,0v0.1c0,0,0,0,0,0.1v0.1V63v0.1
		v0.1c0,0,0,0,0,0.1l0,0v0.1h0.1c0,0,0,0,0,0l0,0h0.1l0,0h0.1h0.1c0,0,0,0,0.1,0h0.1L88,64h0.1h0.1h0.7h0.1H89h0h0.1h0.1h0.1l0,0
		h0.1l0,0v0l0,0l0,0v-0.1v-0.1v-0.1v-0.1v-0.1c0,0,0,0,0-0.1v-0.1c0,0,0,0,0-0.1c0,0,0,0,0-0.1c0,0,0,0,0-0.1c0,0,0,0,0-0.1
		c0,0,0,0,0-0.1V63c0,0,0,0,0-0.1c0,0,0,0,0-0.1c0,0,0,0,0-0.1v-0.1l0,0l0,0v-0.1c0,0,0,0,0-0.1v-0.1c0,0,0,0,0-0.1v-0.1v-0.1
		c0,0,0,0,0-0.1v0l0,0c0,0,0,0-0.1,0l0,0l0,0h-0.1l0,0h-0.1H89h-0.1h-0.1h-0.1h-0.1h-0.1h-0.3L88.4,61.3z"/>
	<path style="clip-path:url(#SVGID_00000042717138278906186090000001657754638541128576_);fill:#FFD740;" d="M88.4,61.3H88h-0.1
		h-0.1h-0.1h-0.1h-0.1h-0.1l0,0l-0.1,0l0,0l0,0v0v0.1v0c0,0,0,0,0,0.1v0.1v0.1v0.1v0.1c0,0,0,0,0,0.1c0,0,0,0,0,0.1c0,0,0,0,0,0.1
		c0,0,0,0,0,0.1s0,0,0,0.1s0,0,0,0.1v0.2c0,0,0,0,0,0.1s0,0,0,0.1s0,0,0,0.1c0,0,0,0,0,0.1l0,0l0,0v0.1c0,0,0,0,0,0.1v0.1V63v0.1
		v0.1c0,0,0,0,0,0.1l0,0v0.1h0.1c0,0,0,0,0,0l0,0h0.1l0,0h0.1h0.1c0,0,0,0,0.1,0h0.1L88,64h0.1h0.1h0.7h0.1H89h0h0.1h0.1h0.1l0,0
		h0.1l0,0v0l0,0l0,0v-0.1v-0.1v-0.1v-0.1v-0.1c0,0,0,0,0-0.1v-0.1c0,0,0,0,0-0.1c0,0,0,0,0-0.1c0,0,0,0,0-0.1c0,0,0,0,0-0.1
		c0,0,0,0,0-0.1V63c0,0,0,0,0-0.1c0,0,0,0,0-0.1c0,0,0,0,0-0.1v-0.1l0,0l0,0v-0.1c0,0,0,0,0-0.1v-0.1c0,0,0,0,0-0.1v-0.1v-0.1
		c0,0,0,0,0-0.1v0l0,0c0,0,0,0-0.1,0l0,0l0,0h-0.1l0,0h-0.1H89h-0.1h-0.1h-0.1h-0.1h-0.1h-0.3L88.4,61.3z"/>
	<path style="clip-path:url(#SVGID_00000042717138278906186090000001657754638541128576_);fill:#FFD740;" d="M88.4,61.3H88h-0.1
		h-0.1h-0.1h-0.1h-0.1h-0.1l0,0l-0.1,0l0,0l0,0v0v0.1v0c0,0,0,0,0,0.1v0.1v0.1v0.1v0.1c0,0,0,0,0,0.1c0,0,0,0,0,0.1c0,0,0,0,0,0.1
		c0,0,0,0,0,0.1s0,0,0,0.1s0,0,0,0.1v0.2c0,0,0,0,0,0.1s0,0,0,0.1s0,0,0,0.1c0,0,0,0,0,0.1l0,0l0,0v0.1c0,0,0,0,0,0.1v0.1V63v0.1
		v0.1c0,0,0,0,0,0.1l0,0v0.1h0.1c0,0,0,0,0,0l0,0h0.1l0,0h0.1h0.1c0,0,0,0,0.1,0h0.1L88,64h0.1h0.1h0.7h0.1H89h0h0.1h0.1h0.1l0,0
		h0.1l0,0v0l0,0l0,0v-0.1v-0.1v-0.1v-0.1v-0.1c0,0,0,0,0-0.1v-0.1c0,0,0,0,0-0.1c0,0,0,0,0-0.1c0,0,0,0,0-0.1c0,0,0,0,0-0.1
		c0,0,0,0,0-0.1V63c0,0,0,0,0-0.1c0,0,0,0,0-0.1c0,0,0,0,0-0.1v-0.1l0,0l0,0v-0.1c0,0,0,0,0-0.1v-0.1c0,0,0,0,0-0.1v-0.1v-0.1
		c0,0,0,0,0-0.1v0l0,0c0,0,0,0-0.1,0l0,0l0,0h-0.1l0,0h-0.1H89h-0.1h-0.1h-0.1h-0.1h-0.1h-0.3L88.4,61.3z"/>
	<path style="clip-path:url(#SVGID_00000042717138278906186090000001657754638541128576_);fill:#1A1A1A;" d="M107.2,26.6
		c-2.2,0-13.9-0.4-23.6,3.9c-3.8,1.7-7.7,5.1-7.9,10.6c-0.2,7-1.1,14-2.5,20.9c-0.6,3.2,0,6.2,1.8,8.1c1.8,1.7,4.1,2.7,6.5,2.9
		c8.6,0.9,17.2,1.4,25.8,1.5c8.6,0,17.2-0.5,25.8-1.5c2.4-0.2,4.7-1.2,6.5-2.9c1.8-1.9,2.4-4.9,1.8-8.1c-1.4-6.9-2.3-13.8-2.5-20.8
		c-0.3-5.5-4.1-8.9-7.9-10.6C121.1,26.2,109.4,26.6,107.2,26.6L107.2,26.6z M107.2,32.2c2.6,0,13.3-0.1,21.4,3.5
		c2.8,1.2,4.5,2.6,4.6,5.8c0.3,7.3,1.1,14.5,2.6,21.6c0.4,2.2,0.1,2.8-0.4,3.3c-0.9,0.7-2,1.1-3.2,1.2c-6.2,0.9-19.5,1.4-25,1.4
		s-18.8-0.6-25-1.4c-1.2-0.1-2.3-0.5-3.2-1.2c-0.4-0.5-0.8-1.1-0.4-3.3c1.5-7.1,2.3-14.4,2.6-21.6c0.2-3.2,1.8-4.5,4.6-5.8
		C93.9,32,104.6,32.2,107.2,32.2L107.2,32.2z"/>
	<path style="clip-path:url(#SVGID_00000042717138278906186090000001657754638541128576_);fill:#1A1A1A;" d="M94.4,19
		c-2,0-3.9,0.6-5.6,1.6c-5.1,3.1-8.7,5.5-14.2,9.4c-3.4,2.3-5.7,5.8-6.4,9.9c-0.5,4.2-1.1,9.7-1.2,15S66.9,65,68.4,68.6
		c0.9,2.2,2.5,4,4.6,5c1.7,0.8,3.6,1.2,5.5,1c2.1-0.2,4.1-0.7,6-1.6l-2.4-5c-1.3,0.5-2.6,0.9-4,1c-0.9,0.1-1.9,0-2.7-0.4
		c-0.9-0.4-1.6-1.2-1.9-2.2c-0.7-1.7-1.1-6.4-1-11.4s0.7-10.4,1.2-14.5c0.5-2.5,2-4.6,4.1-6c5.4-3.9,8.8-6.1,13.8-9.1
		c2.6-1.5,4.9-1,5.9,0.6l2.8,4.8l4.8-2.8l-2.8-4.8C100.6,20.5,97.6,18.9,94.4,19z"/>
	<path style="clip-path:url(#SVGID_00000042717138278906186090000001657754638541128576_);fill:#1A1A1A;" d="M120,19
		c-3.2-0.2-6.3,1.5-7.9,4.2l-2.8,4.8l4.8,2.8l2.7-4.8c0.9-1.6,3.3-2.1,5.9-0.6c5,3,8.4,5.2,13.8,9.1c2.1,1.4,3.6,3.5,4.1,6
		c0.5,4,1,9.5,1.2,14.5s-0.3,9.7-1,11.4c-0.3,1-0.9,1.8-1.8,2.2c-0.9,0.4-1.8,0.5-2.7,0.4c-1.4-0.1-2.7-0.5-4-1l-2.4,5
		c1.9,0.9,3.9,1.4,6,1.6c1.9,0.2,3.8-0.2,5.5-1c2.1-1.1,3.8-2.9,4.6-5.1c1.5-3.6,1.6-8.4,1.4-13.7s-0.7-10.8-1.2-15
		c-0.7-4-3-7.6-6.4-9.8c-5.5-3.9-9-6.3-14.2-9.3C123.9,19.6,122,19.1,120,19z"/>
	<path style="clip-path:url(#SVGID_00000042717138278906186090000001657754638541128576_);fill:#5A5252;" d="M83.3,70.4
		c0,0-9.3,4.6-12.3-3c-2.2-5.3-1-19.1,0-27.3c0.4-3.3,2.7-6.1,5.3-8c5.4-3.9,8.9-6.2,14-9.2c3.6-2.1,7.9-1.5,9.7,1.6l2.8,4.8
		L83.3,70.4z"/>
	<path style="clip-path:url(#SVGID_00000042717138278906186090000001657754638541128576_);fill:#7F6D6B;" d="M94.7,21.8
		c-1.6,0-3.2,0.4-4.5,1.2c-5.1,3-8.5,5.4-14,9.2c-2.6,1.8-4.8,4.7-5.3,8c-1,8.2-2.2,22,0,27.3c0.5,1.5,1.6,2.7,2.9,3.5
		c-2-6-0.8-20.3,0.2-28.9c0.6-3.5,2.5-6.6,5.4-8.6c5.6-4.2,9.1-6.7,14.3-9.9c1-0.7,2.2-1.1,3.4-1.3C96.4,22,95.5,21.8,94.7,21.8
		L94.7,21.8z"/>
	<path style="clip-path:url(#SVGID_00000042717138278906186090000001657754638541128576_);fill:#1A1A1A;" d="M94.4,20.8
		c-1.6,0-3.2,0.5-4.7,1.4c-5.1,3-8.6,5.4-14,9.2c-3,1.9-5.1,5.1-5.7,8.6c-0.5,4.1-1.1,9.6-1.2,14.8s0,10,1.3,12.9
		c0.7,1.8,2,3.3,3.7,4.1c1.4,0.6,3,0.9,4.6,0.8c1.9-0.2,3.7-0.6,5.4-1.4l-0.8-1.7c-1.5,0.7-3.1,1.1-4.7,1.2
		c-1.2,0.1-2.5-0.1-3.6-0.6c-1.3-0.7-2.3-1.8-2.8-3.2c-1-2.3-1.3-7.1-1.1-12.2s0.7-10.6,1.2-14.6c0.6-3,2.4-5.6,4.9-7.3
		c5.4-3.9,8.9-6.1,13.9-9.2c3.2-2,6.9-1.4,8.4,1.3l2.8,4.8l1.6-0.9l-2.8-4.8C99.4,22,96.9,20.7,94.4,20.8L94.4,20.8z"/>
	<path style="clip-path:url(#SVGID_00000042717138278906186090000001657754638541128576_);fill:#423D3D;" d="M131,70.4
		c0,0,9.3,4.5,12.4-3c2.2-5.3,1-19.1,0-27.3c-0.4-3.3-2.7-6.1-5.3-8c-5.4-3.9-8.9-6.2-14-9.2c-3.6-2.1-7.9-1.5-9.7,1.6l-2.8,4.8
		L131,70.4z"/>
	<path style="clip-path:url(#SVGID_00000042717138278906186090000001657754638541128576_);fill:#1A1A1A;" d="M120,20.8
		c-2.6-0.2-5,1.1-6.3,3.3l-2.8,4.8l1.6,0.9l2.8-4.8c1.5-2.6,5.2-3.2,8.4-1.3c5.1,3,8.5,5.3,13.9,9.2c2.6,1.7,4.3,4.3,4.9,7.3
		c0.5,4.1,1,9.5,1.2,14.6s-0.2,9.8-1.1,12.2c-0.5,1.4-1.5,2.5-2.8,3.2c-1.1,0.5-2.4,0.7-3.6,0.6c-1.6-0.1-3.2-0.6-4.7-1.2l-0.8,1.7
		c1.7,0.8,3.5,1.3,5.4,1.4c1.6,0.2,3.1-0.1,4.6-0.8c1.7-0.9,3-2.3,3.7-4.1c1.2-3,1.4-7.7,1.3-12.9s-0.7-10.7-1.2-14.8
		c-0.6-3.5-2.7-6.6-5.6-8.6c-5.5-3.9-9-6.2-14-9.2C123.3,21.4,121.7,20.9,120,20.8z"/>
	<path style="clip-path:url(#SVGID_00000042717138278906186090000001657754638541128576_);fill:#5A5252;" d="M84.7,33.1
		c-3.3,1.5-6.1,3.9-6.3,8.2c-0.3,7.1-1.1,14.2-2.5,21.2c-1.1,5.4,1.9,7.2,5.9,7.8c8.4,0.9,16.9,1.4,25.4,1.4
		c8.5-0.1,17-0.5,25.4-1.4c4-0.6,7-2.4,5.9-7.8c-1.4-7-2.3-14.1-2.5-21.2c-0.2-4.3-3-6.7-6.3-8.2c-8.9-3.9-20.1-3.7-22.5-3.7
		S93.7,29.1,84.7,33.1L84.7,33.1z"/>
	<path style="clip-path:url(#SVGID_00000042717138278906186090000001657754638541128576_);fill:#7F6D6B;" d="M97.9,29.8
		c-3.4,0.4-6.8,1.1-10.1,2.1c-1.5,2-2.4,4.5-2.4,7c-0.3,8.9-1.1,17.8-2.5,26.6c-0.3,1.6-0.3,3.3,0,4.9c2.4,0.3,5.6,0.5,8.8,0.8
		c-0.3-1.7-0.4-3.4,0-5.1c1.4-9.1,2.3-18.2,2.6-27.4C94.1,35.3,95.4,32.1,97.9,29.8L97.9,29.8z"/>
	<path style="clip-path:url(#SVGID_00000042717138278906186090000001657754638541128576_);fill:#423D3D;" d="M116.5,29.8
		c2.4,2.3,3.8,5.4,3.8,8.7c0.2,9.2,1.1,18.4,2.5,27.5c0.3,1.7,0.3,3.5-0.1,5.2c3.7-0.2,7.3-0.5,9.9-0.9c4-0.6,7-2.4,5.9-7.8
		c-1.4-7-2.3-14.1-2.5-21.3c-0.2-4.3-3-6.7-6.3-8.2C125.5,31.3,121.1,30.2,116.5,29.8L116.5,29.8z"/>
	<path style="clip-path:url(#SVGID_00000042717138278906186090000001657754638541128576_);fill:#1A1A1A;" d="M107.2,28.5
		c-2.3,0-13.7-0.3-22.9,3.8c-3.5,1.5-6.6,4.3-6.8,9c-0.2,7.1-1.1,14.1-2.5,21.1c-0.6,2.9,0,5.1,1.3,6.5c1.5,1.4,3.4,2.2,5.4,2.3
		c8.5,0.9,17,1.4,25.5,1.5c8.5,0,17.1-0.5,25.6-1.5c2-0.1,3.9-1,5.4-2.3c1.3-1.4,1.9-3.6,1.3-6.5c-1.4-7-2.3-14-2.5-21.1
		c-0.2-4.7-3.4-7.5-6.8-9C120.9,28.1,109.5,28.4,107.2,28.5L107.2,28.5z M107.2,30.3c2.4,0,13.5-0.2,22.1,3.6
		c3.1,1.4,5.5,3.4,5.7,7.4c0.3,7.2,1.1,14.3,2.6,21.4c0.5,2.5,0,3.9-0.8,4.9c-1.2,1-2.7,1.7-4.3,1.8c-8.4,0.9-16.8,1.4-25.3,1.4
		c-8.4-0.1-16.9-0.5-25.3-1.4c-1.6-0.1-3.1-0.7-4.3-1.8c-0.9-1-1.3-2.4-0.8-4.9c1.4-7,2.3-14.2,2.6-21.4c0.2-4,2.6-6,5.7-7.4
		C93.7,30.1,104.7,30.3,107.2,30.3z"/>
	<path style="clip-path:url(#SVGID_00000042717138278906186090000001657754638541128576_);fill:#E83B54;" d="M111.9,55.1
		c-1,0.8-3.4-1.6-4.7-1.6s-3.6,2.4-4.7,1.6s0.5-3.7,0.1-5s-3.4-2.7-3-4s3.7-0.7,4.7-1.4s1.6-4.1,2.8-4.1s1.8,3.3,2.8,4.1
		s4.3,0.2,4.7,1.4s-2.6,2.7-3,4S112.9,54.4,111.9,55.1L111.9,55.1z"/>
	<path style="clip-path:url(#SVGID_00000042717138278906186090000001657754638541128576_);fill:#1A1A1A;" d="M107.2,40.3
		c-0.5,0-0.9,0.3-1.2,0.7c-0.3,0.4-0.5,0.8-0.7,1.3c-0.2,0.5-0.4,1-0.6,1.3c-0.1,0.3-0.3,0.6-0.6,0.8c-0.3,0.2-0.6,0.3-0.9,0.3
		c-0.4,0.1-1,0.1-1.5,0.2c-0.5,0-1,0.1-1.5,0.3c-0.5,0.1-0.8,0.5-1,0.9c-0.1,0.5,0,1,0.3,1.4c0.3,0.4,0.6,0.8,1,1.1
		c0.4,0.3,0.8,0.7,1.1,1c0.2,0.2,0.4,0.5,0.6,0.8c0.1,0.3,0.1,0.7,0,1c-0.1,0.4-0.2,0.9-0.3,1.5c-0.1,0.5-0.2,1-0.2,1.5
		c0,0.5,0.2,1,0.6,1.3c0.4,0.3,0.9,0.3,1.4,0.1c0.5-0.2,0.9-0.4,1.3-0.7c0.4-0.3,0.9-0.5,1.3-0.7c0.3-0.2,0.6-0.3,0.9-0.3
		c0.3,0,0.6,0.2,0.9,0.3c0.4,0.2,0.8,0.5,1.3,0.7c0.4,0.3,0.9,0.5,1.3,0.6c0.7,0.3,1.5,0.1,1.9-0.6c0.1-0.3,0.2-0.5,0.1-0.8
		c0-0.5-0.1-1-0.2-1.5c-0.1-0.5-0.2-1-0.3-1.5c-0.1-0.3-0.1-0.7,0-1c0.1-0.3,0.3-0.6,0.6-0.8c0.3-0.3,0.7-0.6,1.1-1
		c0.4-0.3,0.7-0.7,1-1.1c0.3-0.4,0.4-0.9,0.3-1.4c-0.2-0.4-0.5-0.8-1-0.9c-0.5-0.2-1-0.2-1.5-0.3c-0.5-0.1-1-0.1-1.5-0.2
		c-0.3,0-0.6-0.1-0.9-0.3c-0.2-0.2-0.4-0.5-0.6-0.8c-0.2-0.4-0.4-0.9-0.6-1.3c-0.2-0.4-0.5-0.9-0.8-1.2
		C108.1,40.6,107.7,40.3,107.2,40.3L107.2,40.3z M107.2,41.2c0.1,0,0.3,0.1,0.5,0.3c0.3,0.4,0.5,0.7,0.6,1.1
		c0.2,0.5,0.4,0.9,0.6,1.4c0.2,0.4,0.5,0.8,0.8,1.1c0.4,0.3,0.9,0.4,1.3,0.5c0.5,0.1,1,0.1,1.5,0.2c0.4,0,0.8,0.1,1.3,0.2
		c0.3,0.1,0.4,0.2,0.5,0.3s0,0.3-0.2,0.6c-0.3,0.3-0.6,0.6-0.9,0.9c-0.4,0.3-0.8,0.7-1.1,1c-0.4,0.3-0.6,0.7-0.8,1.2
		c-0.1,0.5-0.1,0.9,0,1.4c0.1,0.5,0.2,1,0.3,1.5c0.1,0.4,0.2,0.8,0.2,1.3c0,0.3-0.1,0.5-0.2,0.5s-0.3,0.1-0.6,0
		c-0.4-0.1-0.8-0.3-1.2-0.5c-0.4-0.2-0.9-0.5-1.3-0.7c-0.8-0.5-1.9-0.5-2.7,0c-0.4,0.2-0.9,0.5-1.3,0.7c-0.4,0.2-0.8,0.4-1.2,0.5
		c-0.3,0.1-0.5,0.1-0.6,0s-0.2-0.2-0.2-0.6c0-0.4,0.1-0.9,0.2-1.3c0.1-0.5,0.2-1,0.3-1.5c0.1-0.5,0.1-0.9,0-1.4
		c-0.2-0.4-0.4-0.8-0.8-1.2c-0.3-0.3-0.8-0.7-1.1-1c-0.3-0.3-0.6-0.6-0.9-0.9c-0.2-0.3-0.2-0.4-0.2-0.6s0.2-0.2,0.5-0.3
		c0.4-0.1,0.8-0.2,1.3-0.2c0.5-0.1,1-0.1,1.5-0.2c0.5,0,0.9-0.2,1.3-0.5c0.4-0.3,0.7-0.7,0.8-1.1c0.2-0.4,0.4-0.9,0.6-1.4
		c0.2-0.4,0.4-0.8,0.6-1.1C107,41.2,107.1,41.2,107.2,41.2L107.2,41.2z"/>
	<path style="clip-path:url(#SVGID_00000042717138278906186090000001657754638541128576_);fill:#423D3D;" d="M119.8,66.3
		c0,1-0.8,1.8-1.8,1.8c-0.5,0-0.9-0.2-1.3-0.5c-0.3-0.3-0.5-0.8-0.5-1.3c0-1,0.8-1.8,1.8-1.8C119,64.5,119.8,65.3,119.8,66.3z"/>
	<path style="clip-path:url(#SVGID_00000042717138278906186090000001657754638541128576_);fill:#423D3D;" d="M114.4,60.7
		c0,0.6-0.4,1-1,1c-0.6,0-1-0.5-0.9-1c0-0.2,0.1-0.4,0.3-0.6c0.2-0.2,0.4-0.3,0.7-0.3C113.9,59.7,114.4,60.2,114.4,60.7L114.4,60.7z
		"/>
	<path style="clip-path:url(#SVGID_00000042717138278906186090000001657754638541128576_);fill:#423D3D;" d="M106.6,60.1
		c0,0.3-0.1,0.5-0.3,0.7c-0.2,0.2-0.4,0.3-0.7,0.3c-0.6,0-1-0.4-1-1c0-0.3,0.1-0.5,0.3-0.7c0.4-0.4,1-0.4,1.4,0
		C106.5,59.6,106.6,59.8,106.6,60.1L106.6,60.1z"/>
	<path style="clip-path:url(#SVGID_00000042717138278906186090000001657754638541128576_);fill:#7F6D6B;" d="M83.3,50.1
		c0,0.3-0.1,0.5-0.3,0.7c-0.2,0.2-0.4,0.3-0.7,0.3c-0.6,0-1-0.4-1-1c0-0.3,0.1-0.5,0.3-0.7c0.2-0.2,0.4-0.3,0.7-0.3
		c0.3,0,0.5,0.1,0.7,0.3C83.2,49.6,83.3,49.8,83.3,50.1L83.3,50.1z"/>
	<path style="clip-path:url(#SVGID_00000042717138278906186090000001657754638541128576_);fill:#7F6D6B;" d="M85.3,58.5
		c0,1-0.8,1.8-1.8,1.8c-1,0-1.8-0.8-1.8-1.8s0.8-1.8,1.8-1.8C84.5,56.8,85.3,57.6,85.3,58.5z"/>
	
		<rect x="21.4" y="146.6" style="clip-path:url(#SVGID_00000042717138278906186090000001657754638541128576_);fill:#1A1A1A;" width="15.5" height="28.1"/>
	<path style="clip-path:url(#SVGID_00000042717138278906186090000001657754638541128576_);fill:#1A1A1A;" d="M11.4,104
		c0-1.8,1.5-3.2,3.2-3.2h5.8c1.8,0,3.2,1.4,3.2,3.2l0,0v3.4c0,1.8-1.4,3.2-3.2,3.2h0h-5.8c-1.8,0-3.2-1.4-3.2-3.2V104z"/>
	
		<rect x="12.5" y="79.8" style="clip-path:url(#SVGID_00000042717138278906186090000001657754638541128576_);fill:#1A1A1A;" width="10.1" height="24.2"/>
	<path style="clip-path:url(#SVGID_00000042717138278906186090000001657754638541128576_);fill:#1A1A1A;" d="M7.1,79.8H19v10.5h-6.5
		l-5.4-2.5V79.8z"/>
	<path style="clip-path:url(#SVGID_00000042717138278906186090000001657754638541128576_);fill:#1A1A1A;" d="M23.6,169.1
		c0-1.8,1.5-3.2,3.2-3.2c0,0,0,0,0,0h4c1.1,0,2.1,0.4,2.9,1.1c0.5,0.4,0.9,0.9,1.2,1.5l12,4.9c1,0.4,1.7,1.3,1.9,2.3
		c0.9,4.4-0.4,9-3.5,12.2c-0.9,0.8-2.2,1-3.4,0.6l-9.6-4c0,0,0,0-0.1,0l-1.1,0.7c-0.5,0.3-1.1,0.4-1.6,0.4h-2
		c-1.7,0-3.2-1.4-3.2-3.1l-0.6-13.2L23.6,169.1L23.6,169.1z M30.3,173.1l0.2,5c1.4-0.3,2.9-0.2,4.3,0.3l7.4,3.1
		c0.4-0.9,0.6-1.9,0.5-2.8l-11-4.6C31.2,173.8,30.7,173.5,30.3,173.1L30.3,173.1z"/>
	<path style="clip-path:url(#SVGID_00000042717138278906186090000001657754638541128576_);fill:#1A1A1A;" d="M24.9,135.6l29.7-3.9
		l2.5,18.7l-30.6,4l-0.8-6.4l24.2-3.2l-0.7-5.9L25.7,142L24.9,135.6z"/>
	<path style="clip-path:url(#SVGID_00000042717138278906186090000001657754638541128576_);fill:#1A1A1A;" d="M7.1,108.3
		c0-1.1,0.5-2.2,1.3-3c0.8-0.7,1.8-1.1,2.8-1.1h9.1c0.9-0.1,1.8,0.1,2.6,0.4c1.9,1,3.1,3,3.2,5.1v6.5l2.8,8.4c0.7,1.9,0.4,4-0.8,5.6
		l1.1,21.9l1,1v6.2l-0.6,0.6l1.4,25.4H17.5l-10.4-6L7.1,108.3z M13.6,110.6v65.1l5.6,3.3h4.9L23,157.5l0.7-0.7v-0.8l-0.9-0.9
		l-1.5-28.9l1.1-0.2l-2.8-8.6v-6.7L13.6,110.6z M20.7,110.6c0.1,0,0.1,0,0.2,0H20.7z"/>
	<path style="clip-path:url(#SVGID_00000042717138278906186090000001657754638541128576_);fill:#1A1A1A;" d="M12.7,188.2l0.9-0.9
		l1.5-1.5V179H30l7.6,27.9c0.4,1.6,0,3.3-1.1,4.5c-1.1,1.1-2.6,1.6-4.1,1.4l-15.3-2c-2.5-0.2-4.3-2.3-4.2-4.8L12.7,188.2z
		 M19.2,190.9v13.6l11.4,1.5L25,185.5h-3.4v3L19.2,190.9z"/>
	
		<rect x="14.7" y="104" style="clip-path:url(#SVGID_00000042717138278906186090000001657754638541128576_);fill:#797979;" width="5.8" height="3.4"/>
	<path style="clip-path:url(#SVGID_00000042717138278906186090000001657754638541128576_);fill:#545454;" d="M10.4,83h5.4v4h-2.5
		l-2.9-1.3V83z"/>
	
		<rect x="15.8" y="83" style="clip-path:url(#SVGID_00000042717138278906186090000001657754638541128576_);fill:#545454;" width="3.6" height="21"/>
	<path style="clip-path:url(#SVGID_00000042717138278906186090000001657754638541128576_);fill:#444444;" d="M26.8,168.8
		c1.1-2.2,1.9-1.7,3.1-2.2c2.3-1,1.8-4.1,1.8-4.1h-0.9c-0.8,1.5-1,2-3.1,1.8l-1.3-1L26.8,168.8z"/>
	<path style="clip-path:url(#SVGID_00000042717138278906186090000001657754638541128576_);fill:#444444;" d="M27,158.1h4.6v-2.4
		c0-0.8-0.5-1.1-1.2-1.1H27V158.1z"/>
	<path style="clip-path:url(#SVGID_00000042717138278906186090000001657754638541128576_);fill:#EFA85D;" d="M26.9,169.1h4.1
		c1.4,0,1,1.6,2,2l12.7,5.3c0.8,3.2-0.1,6.6-2.4,9l-9.7-4c-0.8-0.5-1.8-0.5-2.6,0l-1.4,0.8h-2L26.9,169.1z"/>
	<path style="clip-path:url(#SVGID_00000042717138278906186090000001657754638541128576_);fill:#636363;" d="M25.9,151.2l27.4-3.6
		l-1.6-12.3l-26.5,3.5L25.9,151.2z"/>
	<path style="clip-path:url(#SVGID_00000042717138278906186090000001657754638541128576_);fill:#797979;" d="M10.4,108.3
		c0-0.4,0.3-0.8,0.7-0.9c0,0,0.1,0,0.1,0h9.2c1.2-0.2,2.2,0.6,2.4,1.8c0,0.2,0,0.4,0,0.5v7.1l3,8.9c0.9,2.7-1.1,3.1-1.1,3.1
		l1.3,24.9l0.9,0.9v3.5l-0.7,0.7l1.2,23.5h-9.2l-8-4.6L10.4,108.3z"/>
	<path style="clip-path:url(#SVGID_00000042717138278906186090000001657754638541128576_);fill:#A0A0A0;" d="M16,107.4v73.4l1.5,0.9
		v-74.3H16z"/>
	<path style="clip-path:url(#SVGID_00000042717138278906186090000001657754638541128576_);fill:#545454;" d="M20.5,107.4
		c1.2-0.2,2.2,0.6,2.4,1.8c0,0.2,0,0.4,0,0.5v7.1l3,8.9c0.9,2.7-1.1,3.1-1.1,3.1l1.3,24.9l0.9,0.9v3.5l-0.7,0.7l1.2,23.5h-7.1V107.4
		z"/>
	<path style="clip-path:url(#SVGID_00000042717138278906186090000001657754638541128576_);fill:#545454;" d="M10.4,108.3
		c0-0.4,0.3-0.8,0.7-0.9c0,0,0.1,0,0.1,0h3.4v72.7l-4.3-2.5L10.4,108.3z"/>
	<path style="clip-path:url(#SVGID_00000042717138278906186090000001657754638541128576_);fill:#EFA85D;" d="M10.4,108.3
		c0-0.4,0.3-0.8,0.7-0.9c0,0,0.1,0,0.1,0h9.2c1.2-0.2,2.2,0.6,2.4,1.8c0,0.2,0,0.4,0,0.5v7.1l3,8.9c0.9,2.7-1.1,3.1-1.1,3.1H10.4
		V108.3z"/>
	
		<rect x="16" y="107.4" style="clip-path:url(#SVGID_00000042717138278906186090000001657754638541128576_);fill:#FDD083;" width="1.5" height="21.4"/>
	<path style="clip-path:url(#SVGID_00000042717138278906186090000001657754638541128576_);fill:#DC773D;" d="M20.5,128.8v-21.4
		c1.2-0.2,2.2,0.6,2.4,1.8c0,0.2,0,0.4,0,0.5v7.1l3,8.9c0.9,2.7-1.1,3.1-1.1,3.1H20.5z"/>
	<path style="clip-path:url(#SVGID_00000042717138278906186090000001657754638541128576_);fill:#DC773D;" d="M10.4,108.3
		c0-0.4,0.3-0.8,0.7-0.9c0,0,0.1,0,0.1,0h3.4v21.4h-4.3V108.3z"/>
	<path style="clip-path:url(#SVGID_00000042717138278906186090000001657754638541128576_);fill:#EFA85D;" d="M16,189.6l2.4-2.4v-4.9
		h9.1l6.9,25.5c0.3,0.7-0.1,1.5-0.8,1.8c-0.3,0.1-0.6,0.1-0.8,0l-15.3-2c-0.8,0-1.4-0.6-1.4-1.4c0,0,0-0.1,0-0.1V189.6z"/>
	<path style="clip-path:url(#SVGID_00000042717138278906186090000001657754638541128576_);fill:#1A1A1A;" d="M14.2,103.5h6.7v4.3
		h-6.7V103.5z M15.1,104.5v2.5H20v-2.5L15.1,104.5z"/>
	<path style="clip-path:url(#SVGID_00000042717138278906186090000001657754638541128576_);fill:#1A1A1A;" d="M15.3,82.6h4.5V104
		h-0.9V83.5h-2.7V104h-0.9L15.3,82.6z"/>
	<path style="clip-path:url(#SVGID_00000042717138278906186090000001657754638541128576_);fill:#1A1A1A;" d="M9.9,82.6h6.3v5h-3.1
		L9.9,86V82.6z M10.8,83.5v1.9l2.5,1.2h2v-3.1H10.8z"/>
	
		<rect x="14.2" y="107.4" style="clip-path:url(#SVGID_00000042717138278906186090000001657754638541128576_);fill:#1A1A1A;" width="0.9" height="72.7"/>
	
		<rect x="10.4" y="128.3" style="clip-path:url(#SVGID_00000042717138278906186090000001657754638541128576_);fill:#1A1A1A;" width="14.4" height="0.9"/>
	<path style="clip-path:url(#SVGID_00000042717138278906186090000001657754638541128576_);fill:#DC773D;" d="M26.9,169.1h3.9l1.6,12
		c-0.5,0-1,0.1-1.4,0.3l-1.4,0.8h-2L26.9,169.1z"/>
	<path style="clip-path:url(#SVGID_00000042717138278906186090000001657754638541128576_);fill:#444444;" d="M30.9,168.6
		c0.5,0,1-0.1,1.4-0.4c0.4-0.4,0.6-0.9,0.5-1.4l-0.1-7.2c0-0.7-0.2-0.8-0.5-1c-0.2-0.1-0.4-0.1-0.5-0.1v-0.9c0.3,0,0.7,0.1,1,0.2
		c0.6,0.4,1,1,1,1.8l0.1,7.2c0.1,0.8-0.3,1.6-0.8,2.1c-0.6,0.4-1.2,0.6-2,0.6L30.9,168.6z"/>
	<path style="clip-path:url(#SVGID_00000042717138278906186090000001657754638541128576_);fill:#1A1A1A;" d="M26.4,168.6h4.5
		c0.4,0,0.8,0.1,1.1,0.4c0.2,0.2,0.4,0.5,0.5,0.8c0.1,0.2,0.2,0.4,0.3,0.6c0.1,0.1,0.2,0.3,0.3,0.3l12.9,5.3v0.2
		c0.9,3.4-0.1,7-2.6,9.5l-0.2,0.2l-9.9-4.1c-0.7-0.4-1.6-0.4-2.2,0l-1.5,0.9H27L26.4,168.6z M27.4,169.5l0.6,12.2h1.4l1.3-0.8
		c1-0.5,2.1-0.5,3.1,0l9.4,3.9c2-2.2,2.8-5.3,2.1-8.2l-12.5-5.2c-0.3-0.1-0.6-0.4-0.8-0.7c-0.1-0.2-0.2-0.5-0.3-0.7
		c-0.1-0.2-0.2-0.3-0.3-0.4c-0.1-0.1-0.3-0.2-0.5-0.1L27.4,169.5z"/>
	<path style="clip-path:url(#SVGID_00000042717138278906186090000001657754638541128576_);fill:#444444;" d="M27,154.1h3.5
		c0.4,0,0.8,0.1,1.2,0.4c0.3,0.3,0.5,0.7,0.5,1.2v2.9H27v-0.9h4.2v-1.9c0-0.3-0.1-0.4-0.2-0.5c-0.2-0.1-0.4-0.2-0.6-0.1H27V154.1z"
		/>
	<path style="clip-path:url(#SVGID_00000042717138278906186090000001657754638541128576_);fill:#1A1A1A;" d="M26.3,163.6l0.6-0.7
		l1.1,0.9c0.5,0.1,1.1,0,1.6-0.2c0.4-0.4,0.7-0.9,1-1.4l0.1-0.2h1.5l0.1,0.4c0.1,0.6,0.1,1.3-0.1,1.9c-0.1,1.2-0.9,2.3-2.1,2.8
		c-0.7,0.3-1.2,0.3-1.6,0.5s-0.8,0.5-1.3,1.5l-0.8-0.4c0.3-0.9,0.9-1.6,1.7-2c0.6-0.3,1.1-0.2,1.6-0.5c0.8-0.4,1.4-1.2,1.5-2.1
		c0.1-0.4,0.1-0.8,0.1-1.2h-0.2c-0.2,0.6-0.6,1-1.1,1.4c-0.7,0.4-1.5,0.5-2.3,0.4h-0.1L26.3,163.6z"/>
	<path style="clip-path:url(#SVGID_00000042717138278906186090000001657754638541128576_);fill:#797979;" d="M23.1,161.3
		c0.6,0,1.1-0.5,1.1-1.1s-0.5-1.1-1.1-1.1l0,0c-0.6,0-1.1,0.5-1.1,1.1c0,0,0,0,0,0c0,0.3,0.1,0.6,0.3,0.8
		C22.5,161.2,22.8,161.3,23.1,161.3L23.1,161.3z"/>
	<path style="clip-path:url(#SVGID_00000042717138278906186090000001657754638541128576_);fill:#797979;" d="M23.1,168.7
		c0.6,0,1.1-0.5,1.1-1.1c0-0.6-0.5-1.1-1.1-1.1c-0.3,0-0.6,0.1-0.8,0.3c-0.2,0.2-0.3,0.5-0.3,0.8C22,168.2,22.5,168.7,23.1,168.7
		C23.1,168.7,23.1,168.7,23.1,168.7z"/>
	<path style="clip-path:url(#SVGID_00000042717138278906186090000001657754638541128576_);fill:#444444;" d="M25.3,138.8l4.3-0.6
		l1.6,12.3l-5.3,0.7L25.3,138.8z"/>
	<path style="clip-path:url(#SVGID_00000042717138278906186090000001657754638541128576_);fill:#3D3D3D;" d="M48.4,135.7l3.3-0.4
		l1.6,12.3L50,148L48.4,135.7z"/>
	<path style="clip-path:url(#SVGID_00000042717138278906186090000001657754638541128576_);fill:#1A1A1A;" d="M25.2,138.3l26.9-3.5
		l1.7,13.2L26,151.7l-0.1-0.9l27-3.6l-1.5-11.4l-26,3.4L25.2,138.3z"/>
	<path style="clip-path:url(#SVGID_00000042717138278906186090000001657754638541128576_);fill:#1A1A1A;" d="M9.9,108.3
		c0-0.4,0.1-0.7,0.4-1c0.3-0.2,0.6-0.4,0.9-0.3h9.2c0.5,0,1,0,1.4,0.2c1,0.5,1.6,1.5,1.5,2.6v7l2.9,8.9c0.5,1,0.3,2.1-0.3,3
		c-0.2,0.2-0.5,0.4-0.7,0.6l1.3,24.4l0.9,0.9v3.9l-0.6,0.7l1.2,23.7h-9.8l-8.3-4.8L9.9,108.3z M10.8,108.3v69.1l7.6,4.4h8.6
		l-1.2-23.2l0.7-0.7v-3.1l-0.9-0.9l-1.3-25.4l0.4-0.1c0.2-0.1,0.5-0.2,0.6-0.4c0.3-0.3,0.5-0.8,0.1-2.1l-3-9v-7.1
		c0-1.2-0.5-1.5-0.9-1.7c-0.3-0.1-0.7-0.2-1-0.2h-9.3c-0.1,0-0.2,0-0.3,0.1C10.8,108,10.8,108.2,10.8,108.3L10.8,108.3z"/>
	<path style="clip-path:url(#SVGID_00000042717138278906186090000001657754638541128576_);fill:#DC773D;" d="M18.4,182.2h9.1
		l6.9,25.5c0.3,0.7-0.1,1.5-0.8,1.8c-0.3,0.1-0.6,0.1-0.8,0l-2.9-0.4c0.6-0.3,0.8-1,0.6-1.6l-5.4-25.3L18.4,182.2L18.4,182.2z"/>
	<path style="clip-path:url(#SVGID_00000042717138278906186090000001657754638541128576_);fill:#FDD083;" d="M16,189.6l2.4-2.4v-4.9
		h2v5.8l-2.4,2.6V207c0,0.2,0,0.4,0.1,0.6l-0.7-0.1c-0.8,0-1.4-0.7-1.4-1.4c0,0,0-0.1,0-0.1V189.6z"/>
	<path style="clip-path:url(#SVGID_00000042717138278906186090000001657754638541128576_);fill:#1A1A1A;" d="M15.5,189.4l0.1-0.1
		l2.3-2.2v-5.2h9.9l7,25.9c0.2,0.6,0,1.4-0.4,1.9c-0.5,0.5-1.1,0.7-1.8,0.5l-15.3-2c-0.5,0-1-0.3-1.4-0.6c-0.3-0.4-0.5-0.9-0.5-1.4
		L15.5,189.4z M16.4,189.8V206c0,0.3,0.1,0.6,0.2,0.8c0.2,0.2,0.5,0.3,0.8,0.3l15.3,2c0.4,0.1,0.7,0,1-0.3c0.3-0.3,0.3-0.7,0.2-1
		l-6.8-25.2h-8.3v4.7L16.4,189.8z"/>
	<path style="clip-path:url(#SVGID_00000042717138278906186090000001657754638541128576_);fill:#1A1A1A;" d="M48,135.8l0.9-0.1
		l1.6,12.3l-0.9,0.1L48,135.8z"/>
	<path style="clip-path:url(#SVGID_00000042717138278906186090000001657754638541128576_);fill:#1A1A1A;" d="M21.5,160.2
		c0-0.9,0.7-1.6,1.6-1.6c0.9,0,1.6,0.7,1.6,1.6s-0.7,1.6-1.6,1.6c0,0,0,0,0,0C22.2,161.8,21.5,161.1,21.5,160.2z M22.4,160.2
		c0,0.4,0.3,0.7,0.6,0.7s0.7-0.3,0.7-0.6c0-0.4-0.3-0.7-0.6-0.7c0,0,0,0,0,0C22.7,159.6,22.4,159.9,22.4,160.2
		C22.4,160.2,22.4,160.2,22.4,160.2z"/>
	<path style="clip-path:url(#SVGID_00000042717138278906186090000001657754638541128576_);fill:#1A1A1A;" d="M21.5,167.5
		c0-0.9,0.7-1.6,1.6-1.6s1.6,0.7,1.6,1.6c0,0.9-0.7,1.6-1.6,1.6S21.5,168.4,21.5,167.5L21.5,167.5z M22.4,167.5
		c0,0.4,0.3,0.7,0.6,0.7c0.4,0,0.7-0.3,0.7-0.6c0,0,0,0,0,0c0-0.4-0.3-0.7-0.6-0.7C22.7,166.9,22.4,167.2,22.4,167.5
		C22.4,167.5,22.4,167.5,22.4,167.5z"/>
</g>
</svg>
