<?xml version="1.0" encoding="utf-8"?>
<!-- Generator: Adobe Illustrator 26.0.3, SVG Export Plug-In . SVG Version: 6.00 Build 0)  -->
<svg version="1.1" id="Слой_1" xmlns="http://www.w3.org/2000/svg" xmlns:xlink="http://www.w3.org/1999/xlink" x="0px" y="0px"
	 viewBox="0 0 195.6 280.6" style="enable-background:new 0 0 195.6 280.6;" xml:space="preserve">
<style type="text/css">
	
		.st0{clip-path:url(#SVGID_00000127766096864264038520000006431448743060121517_);fill:#3E64AD;stroke:#010101;stroke-miterlimit:10;}
	.st1{clip-path:url(#SVGID_00000127766096864264038520000006431448743060121517_);enable-background:new    ;}
	.st2{fill:#FFFFFF;}
	.st3{font-family:'Impact';}
	.st4{font-size:43.17px;}
	.st5{clip-path:url(#SVGID_00000127766096864264038520000006431448743060121517_);}
	.st6{fill:#089939;stroke:#010101;stroke-miterlimit:10;}
	.st7{fill:#3E64AD;stroke:#010101;stroke-miterlimit:10;}
	.st8{fill:none;stroke:#010101;stroke-miterlimit:10;}
	.st9{fill-rule:evenodd;clip-rule:evenodd;fill:#FFFFFF;stroke:#010101;stroke-miterlimit:10;}
	.st10{fill-rule:evenodd;clip-rule:evenodd;fill:#97A69B;}
	.st11{fill-rule:evenodd;clip-rule:evenodd;fill:#94A499;}
	.st12{fill:#010101;}
	.st13{fill-rule:evenodd;clip-rule:evenodd;fill:#010101;stroke:#010101;stroke-miterlimit:10;}
	.st14{clip-path:url(#SVGID_00000127766096864264038520000006431448743060121517_);fill:#FFFFFF;}
	.st15{fill:#089939;}
	.st16{font-size:20px;}
</style>
<g>
	<defs>
		<rect id="SVGID_1_" x="0" y="0" width="195.6" height="280.6"/>
	</defs>
	<clipPath id="SVGID_00000117674697168637822640000010128528808138742662_">
		<use xlink:href="#SVGID_1_"  style="overflow:visible;"/>
	</clipPath>
	
		<rect x="-270.4" y="-5.9" style="clip-path:url(#SVGID_00000117674697168637822640000010128528808138742662_);fill:#3E64AD;stroke:#010101;stroke-miterlimit:10;" width="479.8" height="294.3"/>
	<g style="clip-path:url(#SVGID_00000117674697168637822640000010128528808138742662_);enable-background:new    ;">
		<text transform="matrix(1 0 0 1 20.82 264.32)" class="st2 st3 st4">Narewka</text>
	</g>
	<g id="g3172" style="clip-path:url(#SVGID_00000117674697168637822640000010128528808138742662_);">
		<g id="g5191">
			<g id="layer1">
				<path id="path2972" class="st6" d="M14.5,51v105.8h0.2c1.3,30.4,39.6,65.7,83.1,65.7s81.2-35.3,83.1-65.7h0.2V51H14.5z"/>
			</g>
			<g id="g3245">
				<path id="path3247" class="st7" d="M17.9,171.3c3.8,9.1,9.3,17.4,16.4,24.3c18.5-11.8,32.9-8.3,45.9,0c10.9,4.1,21.7,8.5,37.4,0
					c16.2-11.8,30.2-8.4,43.4,0c6.8-6.7,12.3-14.6,16.1-23.3c-5,0.1-10.4-1.4-16.1-4.4c-14.8-9.2-29.2-7.6-43.4-0.3
					c-14.9,8.1-27.8,6.4-39.7-0.3c-16.3-8.6-28.7-5.7-40.1-0.3C31.1,169.6,24.5,173.3,17.9,171.3z"/>
			</g>
			<g id="g5187">
				<path id="path5189" class="st8" d="M14.5,51v105.8h0.2c1.3,30.4,39.6,65.7,83.1,65.7s81.2-35.3,83.1-65.7h0.2V51H14.5z"/>
			</g>
		</g>
		<g id="g3158">
			<path id="path5199" class="st9" d="M39.8,90.6c18.8-21,40.9-31.4,71.2-16.8c9.9,6.4,23.2,8.6,37.7,9.3
				c12.4,0.1,21.6,4.1,23.7,16.8c-0.1,5.4,0.2,11.3,0.9,14.3c0.9,2.3,1.4,6.2-0.1,7c-8.2,5.2-4.2-18.5-8.4-23.9
				c-0.5,8.1-7.4,12.2-12.1,17.7c-2.9,3-6.6,5.6-0.6,12.5c0.9,1.6,1.4,3.4-1.1,5.6c-7.6,4.3-11.3,12-13.4,16.5
				c-1.1-0.8-2.2-1-3.2,0.5l-1.1,3c-11.5,0.2-9.2-2-8-3.7c6.2-3.6,11.1-8.9,14.2-15.3c2.7-5,0.4-5.8-0.6-7.5
				c-6.2-3.2-9-9.8-9.1-18.3c-0.1,2.9,0.3,5.8,1.2,8.6c-3.1,0.1-5.9,0.5-7.2,2.2c-6.2,3.6-8.3,2.3-9.7,0.2c-2.6-4-13.6-2.4-20.3-1.1
				c1.1-2.9,1.4-5.7-1.9-8c2.2,1.8,3.8,3.8,2,7.8c-3.3,2.1-3.9,7.1-4.3,12.3c-1.9,6.1-0.3,12.2,0.2,18.3c-2.3,0.2-4,1.1-3.7,4.8
				c-3.1,2.4-9,1.4-10.1-0.2c1.6-3.9,6.3-4.1,6.3-8.4c1-3.4,0.4-10-0.5-10.2c-1.7-1.1-2.1-3.9-2.2-7.3c0.1-9.3-3.9-14.1-7-17.9
				c3.1,3.9,6.2,7.8,6.7,13.6c-4.5,0.3-9,0.8-12-1.1c-6.7-2.7-9.3,0.6-12.7,2.8c-6.1,1.8-5.1,3.5-6.9,5.2c-4.8,2.2-5.8,1-8.6-0.3
				c-2.1-0.3-3.8-1.9-4.3-4c2.9-1.1,5.2-1.9,6.8-5c-1.8,3.1-4.5,4.1-6.9,5c-2.8-1.1-5.5-2.2-6.9-6c-1.3-2.3-0.5-4.6,0.4-6.9
				c0.9-3.3,1.1-6.5-0.2-9.5c-12.1-1.8-6.9-9.9-2.8-12.5c1.8,0.2-3.5,5.2-0.4,7.1C29.5,99.1,27.8,92.2,39.8,90.6z"/>
			<path id="path2165" class="st9" d="M59.9,121.2c2.2,2.4,2.3,5.8,0.4,11.1c-1.8,0.5-1.7,2.6-1.9,4.3c-2.9,8.4-6.1,7-7.3,10.1
				c-0.3,1.5,0.5,3.1,8.8,1.6c0.3-2.4,0.5-3.5,3.7-3.6c1.4-5.3,1.6-11.6,4.7-15.4c2.7-3.1,5.8-4,8.8-6.4
				C67,124.7,66.8,119.1,59.9,121.2z"/>
			<path id="path3138" class="st9" d="M164.6,96.7c1.7,5.8,1.1,11-0.5,16.1c-2.4,7.4,0,9.5,3.7,10.8c2,0.5,3.4,1.2,3.1,5.3
				c-2.1,7-2.2,11.5-2,14.6c1.1,1,1.6,2.4,1.5,3.8c-3.3-1.2-4,0.9-4.3,3.6c-12,2.6-9.2-0.5-9.2-1.6c0.9-2.2,5.3-3.6,6.6-6.1
				c1.1-5.8,0.1-8.1-0.6-9.9c-3.8-5.7-10.5-8.2-13.2-15.1C155.5,111.4,164.4,106.8,164.6,96.7z"/>
			<path id="path3140" class="st10" d="M56,142.5c1.3,1.4,3.2,2.2,5.1,2.2c-1.1,0.7-1.7,1.9-1.6,3.2c-3.3,0.4-7.5,1.1-8-0.5
				C51.1,145.7,54.3,144.3,56,142.5z"/>
			<path id="path3142" class="st10" d="M82.2,147.6c1.2,1.1,2.7,1.8,4.3,2c-0.8,1-1.1,2.3-0.9,3.6c-3.6,1.6-6.5,1.4-9-0.1
				C77.6,151,80.5,149.4,82.2,147.6z"/>
			<path id="path3144" class="st11" d="M131.1,146.2c0.6,1.4,1.9,2.6,3.4,3.1c-0.5-0.1-0.8,2.1-1.5,3.3c-2.5,0-10.3,0.7-7.2-2.6
				C127.6,148.8,129.4,147.5,131.1,146.2z"/>
			<path id="path3146" class="st11" d="M162.9,144.9c1,1.1,2.3,2,3.8,2.4c-0.6,0.9-1,2-1.1,3.2c-2.6,0.6-7.9,1.7-8.4,0.5
				C156.7,148.2,161,146.9,162.9,144.9z"/>
			<path id="path3148" class="st8" d="M28.9,102.6c5.9-3.3,15.2-1.8,17.9-0.5c-2.5-5.2,10.4-1.7,4.5-11.3c4.3,1.7,5.6,4.3,4.2,8.3
				c-2.3,4.2-9.3,5.5-8.7,3.1l-1.9-0.9c-2.8,0.8-6-2.5-6.2,2.4c0.1-4.5-5.2-2.6-4.8,0.3C34.8,100.8,31.9,102,28.9,102.6z"/>
			<path id="path3150" class="st12" d="M43.6,106.5c-0.1,0.6-0.6,1.1-1.3,1.1c-0.6-0.1-1-0.5-1.1-1.1l0,0c0-0.6,0.5-1.1,1.1-1.1
				c0,0,0,0,0,0C43,105.4,43.5,105.9,43.6,106.5L43.6,106.5z"/>
			<path id="path3152" class="st8" d="M29,119.2c2.5-2.8,7.8-1.9,8.6,0.7"/>
			<path id="path3154" class="st13" d="M46.3,115c-0.6,0.9-0.6,1.6,0.4,1.7c2.2-0.7,4.7-3.2,5.7-5.8c0.9-1.7,0-1.5-0.4-1.9
				C50.4,112.2,48.5,114.4,46.3,115z"/>
			<path id="path3156" class="st12" d="M35.5,120.4c0,0.6-0.3,1.1-0.8,1.1s-0.8-0.5-0.8-1.1s0.4-1.1,0.8-1.1S35.5,119.8,35.5,120.4z
				"/>
		</g>
	</g>
	<path style="clip-path:url(#SVGID_00000117674697168637822640000010128528808138742662_);fill:#FFFFFF;" d="M44.9,0h-29h-16L0,16
		c0,7,0,14,0,21c10.3,12.3,28.7,13.9,41,3.6c6.6-5.5,10.4-13.7,10.4-22.3C51.4,11.6,49.1,5.2,44.9,0z"/>
	<g style="clip-path:url(#SVGID_00000117674697168637822640000010128528808138742662_);enable-background:new    ;">
		<text transform="matrix(1 0 0 1 15.51 31.75)" class="st15 st3 st16">22</text>
	</g>
</g>
</svg>
