<?xml version="1.0" encoding="utf-8"?>
<!-- Generator: Adobe Illustrator 26.0.1, SVG Export Plug-In . SVG Version: 6.00 Build 0)  -->
<svg version="1.1" id="Слой_1" xmlns="http://www.w3.org/2000/svg" xmlns:xlink="http://www.w3.org/1999/xlink" x="0px" y="0px"
	 viewBox="0 0 195.6 280.6" style="enable-background:new 0 0 195.6 280.6;" xml:space="preserve">
<style type="text/css">
	.st0{clip-path:url(#SVGID_00000111897843603828467930000014205763733091647631_);fill:#E94539;}
	.st1{clip-path:url(#SVGID_00000150809880292447993540000017002340898055285951_);enable-background:new    ;}
	.st2{clip-path:url(#SVGID_00000083077765285927612440000006704466448316099254_);}
	.st3{fill-rule:evenodd;clip-rule:evenodd;fill:#FFFFFF;}
	.st4{fill-rule:evenodd;clip-rule:evenodd;fill:#1C1A19;}
	.st5{fill-rule:evenodd;clip-rule:evenodd;fill:#DA261D;}
	.st6{clip-path:url(#SVGID_00000140724871454353009810000002857702025311836842_);fill:#FFFFFF;}
	.st7{clip-path:url(#SVGID_00000049196351400150389290000011517396814063036054_);fill:#FFFFFF;}
	.st8{clip-path:url(#SVGID_00000017502749611515099610000000843272574709644208_);fill:#1C1A19;}
	.st9{enable-background:new    ;}
	.st10{fill:#DA261D;}
	.st11{fill:#FFFFFF;}
</style>
<g>
	<g>
		<defs>
			<rect id="SVGID_1_" width="195.6" height="280.6"/>
		</defs>
		<clipPath id="SVGID_00000175313477310988793390000010330393738540391354_">
			<use xlink:href="#SVGID_1_"  style="overflow:visible;"/>
		</clipPath>
		
			<rect x="-9.2" y="-8.4" style="clip-path:url(#SVGID_00000175313477310988793390000010330393738540391354_);fill:#E94539;" width="214" height="297.9"/>
	</g>
	<g>
		<defs>
			<rect id="SVGID_00000141434819262349217190000013513854265100744328_" width="195.6" height="280.6"/>
		</defs>
		<clipPath id="SVGID_00000052790771141388155770000011663553811165833403_">
			<use xlink:href="#SVGID_00000141434819262349217190000013513854265100744328_"  style="overflow:visible;"/>
		</clipPath>
		<g style="clip-path:url(#SVGID_00000052790771141388155770000011663553811165833403_);enable-background:new    ;">
		</g>
	</g>
	<g>
		<defs>
			<rect id="SVGID_00000050638270205017554070000014840361595073684125_" width="195.6" height="280.6"/>
		</defs>
		<clipPath id="SVGID_00000013902838020609620740000005778831431987727765_">
			<use xlink:href="#SVGID_00000050638270205017554070000014840361595073684125_"  style="overflow:visible;"/>
		</clipPath>
		<g id="g1031" style="clip-path:url(#SVGID_00000013902838020609620740000005778831431987727765_);">
			<g id="g1023">
				<path id="rect1000" class="st3" d="M151.6,267.1l-0.1-79.4c-1.9-28.1-25.8-49.8-54.1-49.8c-28.2,0.1-51.7,21.8-53.6,49.8v79.4
					H151.6z"/>
			</g>
			<g id="g992">
				<path id="path15-2" class="st4" d="M116.6,248.9c0.9-0.1,1.8-0.4,2.7-0.8c0.7-0.2,1.3-0.6,2.3-1c0.8-0.5,1.7-1.1,2.4-1.8
					c1.6-1.6,2-4.1,1-6.2c-0.5-0.9-0.9-1.9-1.2-2.9c-0.1-0.3-0.1-0.7,0.2-1c0.2-0.4,0.2-0.1,0.6-0.4c0.2,0,0.5,0.1,0.7,0.2
					c0.8,0.4,1.8,0.5,2.6,0.3c0.5-0.1,1.1-0.1,1.6,0c0.7,0,1.5,0.2,2.1,0.6c0.5,0.2,1,0.3,1.5,0.4c0.6,0.2,0.9,0,1.5-0.1
					c0.9-0.3,1.8-0.6,2.6-1.1c0.1-0.1,0.3,0.1,0.4,0c0.4-0.1,0.7,0.1,1.2-0.2c0.4-0.3,0.9-0.4,1.4-0.4c0.7,0.1,1.5-0.3,2,0.3
					c-0.3,1.9-2,3.5-1.5,7c0.3,4,3.8,7,7.8,6.7c0.1,0,0.2,0,0.4,0c0.4-0.3-4.5-3.1-3.9-7.9c1.4-3.8,3.8-7.1,0.8-10
					c-0.3-0.4-0.7-0.7-1.1-0.9c0.3,0,0.6-0.1,0.9-0.2c0.4-0.1,0.8-0.3,1.2-0.5c0.5-0.2,1.1-0.6,1.2-1.1c0-0.1-0.8,0-0.8-0.1
					c0,0.1-1.1-0.3-1.6-0.4c-0.9-0.2-1.3-1.4-1.9-2c-0.7-0.8-0.7,0.4-1.8-1.4c-0.1-0.1-0.4-0.4-0.1-0.5s1.3-0.1,1.4-0.2
					c0.1-0.6-1.2-0.2-1.6-1.1s-0.2-2.8-0.2-3.5c0-1.2,0.1-2.4,0.4-3.5c0.2-0.8,0.5-1.7,0.8-2.5c0.3-0.3,1-0.8,1.1-1
					c0.3-0.7,0.1-1.5-0.4-2c-0.3-0.4,0.1-0.2-0.2-1c-0.6-0.9-1.3-1.8-2.2-2.4c-0.5-0.4-1.1-0.7-1.7-0.8c-1.1-0.2-2.2-0.1-3.1,0.5
					c-0.4,0.3-0.7,0.6-0.9,1s-0.3,0.8-0.3,1.2c-3,0.3-3.6,0.3-4.2,0c-1.9-0.7-6-0.9-6.1-1c-0.2-1.2-1.2-4.6-2.1-5
					c-1-1.5-2.3-2.8-3.6-3.9c-0.6-0.7-1.2-1.5-1.7-2.3c-0.5-1-0.5-0.7-0.6-1.4c0-0.4,0-0.8-0.1-1.2c0.4-1.6,0-5.4-0.6-5.7
					c0.3-3.4,0.9-6.7,1.6-10.1c0.7-0.2,7.6-4.9,5.3-5.8c-0.5-0.2-0.4,0.2-0.5-0.3c-3-1.4-6.5-0.5-6.8,0c0,0,0,0,0,0.1c0,0,0,0,0,0.1
					c0,0,0,0,0-0.1c0,0,0,0,0-0.1s0-0.2-1.3-0.3c0-0.3,0-0.1-0.2-0.5s-6.8-1.8-7.8,0.6c-0.5,1.1-0.7,2.3-0.6,3.5
					c-0.8-0.3-1.6,0.4-2.1,1.2c0.7,1.7,1.4,2.9,1.4,4.3c0.1,1-0.1,2.1-0.5,3c-2.2,0.5-1.6,2.7-1.2,3.7c1.1,1.1-0.1,3.2-0.7,4.9
					c-0.4-0.1-0.3,0.2-0.7,0.2c-1.2-0.1-2.4,0-3.5,0.2c-0.7,0.2-1.5,0.3-2.2,0.4c-1.2-0.1-2.3,0-3.5,0.1c-1.6,0.4-3.1,0.9-4.7,1.6
					c-1.7,0.3-6,2.9-7.6,3.2c0.7-0.6,3.2-2.4,3.2-3.2c-1.5,0.2-6.4,2.6-8.6,2.6c-0.4,0-0.7-0.2-0.9-0.4c-1.2,0.4-5.4-6.5-5.2-8.9
					c1.6-3.6,3.4-7.8,5.2-11.3c1.5-0.6,5.1-2.8,4.3-3.4c0-0.3-0.6-0.7-0.6-0.7c0-0.8-1.6-1.2-2.9-1.2c-3.8-0.1-5-0.4-6.4,3.6
					c-0.7-0.5-1.2,0.1-1.8,0.8c0.2,2.2,0.2,1.5,0.1,2.2c-0.3,2.2-1.1,4.3-2.5,6c-0.4,0.1-0.8,0.2-1.2,0.2c-1.2,0.1-1.8,2.3-1.3,3.1
					c1.6,2.1,2,2,1.7,6.5c-0.2-0.2-0.4-0.4-0.5-0.6c-0.3-0.6-0.8-1-1.1-1.6c-0.7-1.2-1.6-2.1-2.3-3.3s-1.2-1.3-1-2.9
					c0.4-2,1-3.9,1.6-5.8l0,0c0.6-1.1,2.1-3.4,2.4-4s0.5-0.5,1.3-1s2.7-2,3-3.2c0.1-0.4-0.1-0.8-1-0.8c0-0.1,0.3-0.5,0.2-0.5
					s-0.4-0.3-0.5-0.3c-0.9-0.2-1.9-0.3-2.8-0.3c-3.5,0.3-4.2,0.5-5,1.1c-1.1,0.8-1.3,2.9-1.3,3.5c-0.3-0.2-0.7-0.3-1.1-0.2
					c-0.3,0.4-0.6,1-0.9,1.4c0.7,2.4,0.4,4.9-1,7c0,0.2,0.1-0.6,0-0.7c-0.1-1-0.6-1.9-1.2-2.6c0.1,0.5,0,1-0.1,1.6
					c-0.3-0.7-1.5-2.1-2.8-1.5c0,0.1,0.4,1.3,0.7,2.6c0.2,1,0.3,2,0.2,3c0,0.4-0.5-1.8-2.2-2.8c0.8,1.5,1.2,3.2,1,4.9
					c-0.7-2.1-1-1.1-1.3-1.6c0.9,2.4,0.8,3.2,0.7,3.6c-0.2,5.2,0.5,4.4,3,8.1c1.3,9-2.8,18-0.4,26.7c3.5,5.6,6.4,5.1,10.5,4.6
					c3.6,2.5,3.6,1.7,6.2,2c3.7-0.7,7.5-1.1,11.3-1c3,0.1,5.8-0.7,8.9-0.5c4.3,0.2,8.6,0.9,12.8,2.1c3.6,1.5,5.3,2.5,8.2,2.6
					c2.3,0.5,6.7-1.2,9.2,0.4c-0.4,1.5-0.1,3.1,0.8,4.4c0.7,1.1,1.2,2.1,1.8,3c0.8,1,0.9,2.4,0.4,3.5c-0.2,0.5-0.4,0.9-0.8,1.3
					c-0.5,0.6-1.1,1.2-1.7,1.8C118.1,247.6,116.7,248.9,116.6,248.9L116.6,248.9z M57.5,224.8c-6.2-0.2-4.2-6.5-3.8-11.6
					c0.1,0,0.3,0.9,0.4,0.9c0.8,3.1-1.3,3.6,0.6,7.4c0.6,1.3,2.6,3.1,3.5,3.3L57.5,224.8z M54,202.6c-0.1-8-0.2-7.1-0.2-11.1
					c0.1,0,0.2,0.6,0.3,0.5c1.7,6.5,1.8,3.9,0.1,9.9C54.1,202,54.1,202.6,54,202.6z M110,185.3c-0.5-1-0.7-2.1-0.4-3.2
					c0.2-0.9,0.7-3.4,0.8-4.1c0.5,0.6,1,2.3,0.5,4.9c-0.1,0.7-0.4,0.8-0.9,1.4C110.2,183.9,110.3,185.5,110,185.3z"/>
				<path id="path15-1" class="st5" d="M147.3,248.2c-0.6-1.3-3.4-1.5-3.4-7.6c1.4-3.7,5-8.3-1.2-10.6c-0.6,0.1-1.2,0.1-1.9,0.2
					c-0.1,0.9-0.2,1.8-0.4,2.7c-0.1,0.3-0.3,1-0.4,1.3c0.7,0.2,1.4-0.1,1.8,0c1.6,0.5,1.1,1.6-0.1,4.3
					C140.3,241.5,141.9,248.1,147.3,248.2L147.3,248.2z M118.2,248L118.2,248c1.2-0.5,2.4-1,3.5-1.7c0.6-0.4,1.1-0.8,1.6-1.3
					c1.8-2,1.9-3.6,1.2-5.2c-0.3-0.6-0.6-1.3-0.9-1.9c-0.3-0.4-0.5-0.9-0.7-1.4c-0.2-0.7,0.1-1.5,0.7-1.9c0.3-0.2,0.5-0.2,0.8-0.5
					c0.5-0.6,0.9-1.3,1.1-2.1c0.2-0.4,0.2-0.9,0-1.4c-0.2-0.7-0.6-1.2-1.2-1.5c-0.7,0.4-1.5,0.7-2.3,0.8c-0.7,0.2-1.3,0.5-1.8,1.1
					c-0.2,0.2-0.4,0.4-0.6,0.6c-3.4,5.3,3.9,8.4,2.3,12.3c-0.1,0.5-0.4,0.9-0.6,1.3C120.2,246.3,119.2,247.2,118.2,248L118.2,248z
					 M119.5,231.8L119.5,231.8l-0.2-0.1L119.5,231.8z M119.3,231.7c-0.2-0.1-0.4-0.2-0.6-0.2C118.9,231.5,119.1,231.6,119.3,231.7
					L119.3,231.7z M118.7,231.5L118.7,231.5L118.7,231.5L118.7,231.5z M118.6,231.5c0.4-0.6,0.9-1.1,1.5-1.5c-0.9-0.2-1.8-0.5-2.7-1
					c-0.4-0.3-0.8-0.6-1.3-0.9s-1.6-0.7-2.3-1.1c0.1,0,0.6-0.5,1.1-0.7c0.2-0.1,0.7,0,0.9-0.1s0.6-0.4,0.9-0.6
					c0.7-0.4,1.3-1,1.8-1.7c0.4-0.1,0.8-0.1,1.2-0.1c1.4,0.2,0.5,0.2,1.4,0.2c0.5,0,1,0.1,1.4,0.4c0.3,0.2,0.3,0.6,0.6,0.7
					c0.2,0.2,0.4,0.4,0.5,0.7c-0.1-0.1-0.2,0-0.3-0.1c-0.3-0.1-0.5-0.1-0.7-0.4c-0.2-0.1-0.4-0.4-0.6-0.5c-0.4-0.2-1-0.1-1.4-0.1
					s-1.2-0.4-1.7-0.1c-0.1,0.1-0.3,0.4-0.4,0.4c-0.4,0.4-0.8,0.7-1.2,1c-0.5,0.3-0.9,0.6-1.3,0.9s-0.6,0-0.9,0
					c0,0.1-0.3,0.2-0.3,0.3c0.3,0.1,0.7,0.2,1,0.4s0.6,0.4,0.9,0.6c0.6,0.4,1.2,0.8,1.9,1.1c1.6,0.8,3.4,0.8,5,0.1
					c0.5-0.2,0.5-0.4,0.6-0.6s-0.2-0.8-0.1-1.3s0.2-1,0.5-1.2s0.9-1,1.6-1c-0.4,1.1-0.6,1-0.4,1.6s0.1,0.1,0.4,0.5
					c0.1,0.2,0.7,0.2,0.9,0.2c0.5,0,1,0.2,1.3,0.6c0.1,0.2,0.2,0.4,0.4,0.5c0.1,0.2,0,0.9,0.4,0.3c0.1-0.1,0.1-0.1,0.2-0.2
					c0.3-0.3,0.5-0.6,0.7-0.9c0.2-0.3,0.4-0.5,0.6-0.8c0.2-0.4,0.4-0.8,0.6-1.2c0.6-0.6,1.3-1.1,2-1.5c0.3-0.2,0.7-0.1,0.9,0.1l0,0
					c-0.1,0-0.4,0.1-0.8,0.6c-0.2,0.4-0.6,3.1-0.3,2.8c0,0,1.4-0.9,1.4-0.6c0,0.8-0.1,1.6-0.4,2.3c-0.2,0.4-0.5,0.5-0.4,1.2
					c0.1,0.8,0.4,1.7,0.2,2c-0.3-0.8-0.4-0.8-0.4-0.7c0,0.3-0.1,0.1,0,0s0,0,0-0.1s-0.2,0.1-0.4-1c-0.1-0.6-0.3-0.2-0.5,0.2
					c0,0.2,0,0.4,0,0.6c0.1,0.3,0.3,0.5,0.1,0.5s-0.4-0.2-0.2,0.3s0.8,1.1,0.7,1c-0.5-0.2-0.9-0.5-1.3-0.9c-0.1-0.3-0.2-0.7-0.2-1
					c0.3-0.8,0.8-1.5,1.4-2c0.4-0.4,0.7-0.9,0.7-1.5c-0.1-0.2-0.9,0.2-1.3,1.2c-0.1,0.4-0.4,0.5-0.7,0.9s-0.6,0.4-0.9,0.9
					s-0.2,0.2-0.4,1c-0.1-0.5-0.1-1,0.2-1.4c0.1-0.3-1,0.1-1,0c0.2-0.3,0.4-0.5,0.7-0.6c0.4-0.2,0.7-0.4,1-0.6
					c1.1-1.2,0.8-3,1.1-4.2c-0.9,0.6-1.6,1.6-1.8,2.6c-0.5,0.5-1,1.1-1.4,1.6c-0.2,0.3-0.4,0.6-0.6,1c-0.1,0.3-0.2,0.5-0.3,0.7
					s-0.1,0.4-0.2,0.6s-0.2,0.4-0.4,0.4c0.2-0.9,0.2-1.9-0.1-2.8c-0.3-0.5-0.6-0.9-1.1-1.2c0.1,0.4,0.1,0.8,0.2,1.2
					c0,0.8-0.2,1.6-0.3,1.6c0-0.7,0-1.4-0.2-2.1c-0.2-0.6-0.1-0.7-0.5-0.9c-0.7-0.3-1.1-0.9-1.1-1.6c-0.7,1-0.2,1.9-0.4,2
					s-0.1,0.2-0.1,0.3c2.8,2.4,1.3,3.9,0.5,5.7c1.1,0.6,2.3,0.7,3.5,0.4c0.7-0.2,1.5-0.2,2.1,0.1c0.7,0.5,1.5,0.7,2.3,0.8
					c0.6,0.1,1.1,0,1.6-0.2c0.2-0.1,1.4-0.1,1.9-0.5c0.3-0.3,0.3-0.3,0.5-0.4s0.4-0.6,0.5-0.8c0.2-0.4,0.4-0.8,0.7-1.1
					c-0.2,0.5-0.2,0.4-0.3,0.7s-0.5,1.2-0.4,1.2c0.5,0.2,1.1,0.1,1.5-0.3c0.2-0.2,0.4-0.4,0.6-0.7c0.6-1.4,0.8-2.9,0.5-4.4
					c-0.1-0.4-0.3,0.1-0.5,0.2c-0.4,0.4-0.6,0.9-0.8,1.4c-0.2,0.7,0,1.4-0.2,1.2s-0.1-1-0.1-1.8s0.6-1.1,0.6-1.4
					c-0.3-1.5-0.6-1.1-0.1-3.1c0.2-1-2.1,2.1-1.9,3.3c-0.1,0.5-0.2,1.1-0.1,1.7c0.1,0.4,0.3,0.7,0.4,1.2c-0.9-0.8-0.3-0.3-0.8-1
					c-0.2-0.3,0.1-0.9,0-1.1c-0.3-1.1-0.5-2-0.9-2.2s0.8,0.2,0.8,0.9c0.4-0.5,0.3-0.8,0.3-0.8c0.3-0.4,0.6-0.8,0.9-1.2
					c0.4-0.7,1-1.2,1.6-1.6c0.1-0.1,0.2-0.1,0.4-0.2c-0.4-0.7-0.8-1.4-1.1-2.1c-1-2.4,1.3-8.5,1.8-10.7c0-0.2-1,0-2.4-0.7
					c-0.3-0.1-1.2,7.3-5.1,10.1c-1,0.7,2.1-2.2,2.8-4.3s1.3-4.2,1.6-6.4c0.9,0.1,2.4,1.1,3.6,0.6c-0.3,0.9-3,9.2-1.8,11.6
					c0.8,1.6,0.6,1.4,0.8,1.8c0.2,0,0.3,0,0.7,0c-0.1,0.1-0.3,0.3-0.4,0.4l0.1,0.1c-0.1,0-0.1,0-0.2,0.1h0.3
					c-0.1,0.1-0.3,0.2-0.4,0.3c-0.4,0.5-0.6,1.1-0.4,1.8c0.1,0.3,0.1,1.1,0.2,1.3s0.6-0.4,0.6-0.3c0.3,0.2,1.5-1.2,1.8-2.2
					c0-0.1-0.1-0.1-0.4-0.6c-0.3-0.7-1.1-1.3-1.1-2c-0.2-6.9,0.6-8.6,0.9-9.5c0.1-0.4,0.3-0.8,0.6-1.2c-0.1-0.1-0.3-0.3-0.5-0.5
					s-0.3-0.6-0.1-0.4c0.8,0.2,0.6,0.2,1,0c0.1-0.1,0.3-0.1,0.5-0.1l0,0c0-0.1,0.1-0.2,0.1-0.3c0.1-0.4-0.7-1.2-1-0.6
					c-0.1,0.1-0.1,0.2,0,0.1c0,0,0,0,0-0.1c0.1-0.3,0.5-1.2,0.2-1.6s-0.5-0.9-0.9-1.1c-0.5-0.4-1.1-0.7-1.7-0.8
					c-0.5-0.1-1.1-0.1-1.6-0.1s-0.9,0.2-1.3,0.4c-0.3,0.2-0.6,0.2-0.9,0.6l-0.1,0.1V208c0.6-0.9,1.6-1.4,2.7-1.4
					c0.6-0.1,1.3,0,1.9,0.3c-0.2-0.5-0.4-0.4-1-0.7c-0.3-0.1-0.5-0.1-0.8-0.1c-1.5-0.3-2.9,0.6-3.4,2c-0.1,0.1-0.1,0.5,0.2,2.1
					c-0.6-0.4-0.6-0.9-0.8-0.7c-0.4,0.3-0.8,0.7-1.1,1.1c-1.2,1.4-2.6,2.6-4.2,3.4c-1.2,0.7-2.3,1.5-3.4,2.3c-2.1,2-4.3,7.1-2.6,7.5
					c-0.1,0-1-0.1-1.2-0.1c-1.2-1.7,1.4-7.2,4.7-9.1c0.7-0.4,2-1.3,3-1.8c1.2-0.7,2.2-1.6,3.2-2.6l1.1-1l0.5-0.2v-0.3
					c-1.1,0.2-2.1,0.4-3.2,0.7c-0.9,0.4-1.6,0.9-2.3,1.6c0.4-0.8,1-1.3,1.8-1.6c-1-0.6-7.6-2.8-7.6,2.2c-0.3-1.5,0.5-3.4-0.8-7.6
					c-0.4-0.9-0.9-1.6-1.6-2.4c-1.5-1.7-0.6,3.9,0.4,5.8c-2-2.5-2-5.9-1.6-6.8c-0.2-0.7-1.3-1.3-1.7-1.7c-1.3,4.9,1.6,9.6,2.4,11.1
					c-3.1-2.8-3.3-8.6-3-11.5c-0.7-1.7-1.7-3.4-3-4.7c-0.6-0.3-1.1-0.5-1.8-0.6c-1.4-0.1-1.1-0.6-0.2,0.9c0.5,0.6,0.9,1.3,1.2,2
					c0.4,0.6,0.7,1.3,1,2.1c0.3,1,1,2,0.8,3.2c-0.4,3.6-0.9,4.2,0.6,6.3c0.8,1.1,1.4,2.2,1.8,3.5c0.9,2.4,0.3,5.5-0.2,7.8
					c-0.1,0.4-0.1,0.7-0.2,1.1c0.1-0.4,0.1-0.7,0.2-1.1c0.6-3.3,0-6.7-1.6-9.6c-0.6-0.8-1.1-1.7-1.5-2.6c-1.7-5.3,1.6-3.8-0.9-8.1
					c-1-1.6-1.6-2.8-3-5.5c-0.4-0.8,0.2-2.3,0-3.3c-0.4-2-1.1-3.9-2.1-5.6c0.1-2.5,0.6-5,1.4-7.4c-0.2-1-1.2-1.2-2.3-1.3
					c1.2-0.1,2.6-0.5,2.7,0.2c1.3-0.3,3.1-2.2,4.2-3.1c0-0.1,0.2-0.2,0.2-0.4c-0.4-0.4-0.7-0.2-1-0.3c-0.8,0.9-1.8,1.8-2.9,2.5
					c-0.1,0-0.2,0.1-0.3,0.1c0.7-0.8,2.7-1.9,2.7-3c-0.9-0.6-5-1.3-6.3-0.2c-0.3,0-1.1,2-1.2,4c0.2,0.8,0.6,1.5,1.3,2
					c-0.3,0.1-1.6-1.3-2-1.7c-0.4,0.1-0.8,0.3-1.1,0.7c0.4,0.9,0.8,1.8,1.1,2.7c0.4,1.7,0.3,3.4-0.2,5c-1.5,1-1.7,1.2-1,2.6
					c0.3,0.6,0.5,1.2,0.6,1.9c-0.6,4.2-4.2,9.5-5.3,13.3c0,2.2,0,4.3-0.1,6.5c0.5,1.6,2.2,3.6,2.2,4.5c-4.3-4.7-3.6-4.7-3.1-11.1
					c0.8-3.4,2.5-6.4,3.4-8.6c-0.6-0.1-0.6,0.1-1.4,0.1c-1,0.1-3.3,0.3-4.5,0.4s-2.1-0.1-3.1,0c-0.4,0.1-0.7,0.1-1.1,0.2
					c-0.3,0.1-0.6,0.1-0.8,0.2c-1.5,0.5-3.1,1.1-4.5,1.8c-2.7,0.9-5.2,2.5-7.6,3.1c0.4-1,2.4-2.5,3.3-3.5c0-0.1,0.4-0.2,0.2-0.4
					c-1,0.5-8.3,4-8.5,2.3c-0.6-0.2-1.3-0.1-1.9,0.3c-0.2,0.2-0.6,0.3-0.8,0.6c0.7,0.5,1.5,1,2.3,1.4c4.5,1.4,4.2,7.2,4.5,10.6
					c0,2.9-1.4,5.6-1.7,8.4c-1.1-1.3,0.7-5.3,1-7.1c-0.1-4.1,0.2-8.2-3.2-11c-0.7-0.3-1.4-0.9-2.3-1.2c-2.6-1.2-5.1-2.5-7.4-4.1
					c-1.2-0.9-2.2-2-2.9-3.3c-1.1-1.8-2.3-3-3.5-4.9c-0.8-1.1,1.1-6.8,1.7-7.9l0.4-0.9c0.7-1.4,2.1-3.3,1.8-3.8
					c-0.8,0.3-1.8,0.2-2.6-0.1c1,0.2,2,0,2.9-0.5c0.2,0.2,0.3-0.3,0.3,0.4c0.9,0.2,3.8-2.2,3.6-3.1c0-0.1-0.1-0.2-0.3-0.2
					c-0.1,0-0.1,0-0.2,0.1c-0.8,0.8-1.7,1.5-2.7,1.9c0.8-0.6,1.5-1.2,2.2-2c-0.1-0.1,0.2-0.5,0.2-0.6s-0.1-0.2-0.3-0.2
					c-0.7-0.1-1.4-0.2-2.1-0.2c-1.5,0-2.9,0.3-4.3,0.9c-0.1,0.1-0.5,0.1-0.7,0.6c-0.4,0.9-0.7,1.8-0.7,2.7c0.9,1.6,0.5,0.8,1,1.4
					c-0.5-0.1-0.9-0.6-1.4-1c-0.3-0.2-0.7-0.3-1.1-0.2c-0.1,0.2-0.2,0.4-0.3,0.6c0.9,2.6,0,7.6-2.8,9c-0.9,1-0.3,1.8,1,3.5
					c1.6,3.6,3.6,9.1,3.6,12.8c-0.4-1.6-0.4-1.6-0.5-1.8l-0.2,0.1c-0.7,2.6-1.6,5.2-2.6,7.7c-0.5,5.3,2.4,8.4,2.2,11.5
					c-0.2-0.3-0.4-0.7-0.6-1c-1.2,4.7,3.3,7.7,4,7.9c0,0.4-0.2,0.8-0.5,1.1c-7.7-0.2-6-5.8-5.3-12.7c-1-4.4-1.6-5.6,0.1-8.9
					c0-8.1-0.1-6.8-0.3-14.4c-0.4-1-0.9-2-1.6-2.8c-1-1.6-1.5-2.7,0.7-3.7c0-0.1,0.5-0.5,0.5-0.6c0.1-0.4,0.1-0.9-0.1-1.3
					c-0.1-0.5-0.2-0.9-0.5-1.3c0-0.2-0.2,1.8-0.5,1.4c-0.6-1.3-1.8-2.4-2.3-2c0.3,1,0.6,2.1,0.8,3.2c0.2,2.1-0.5,4.5,1.7,6.4
					c-1.3,0.5-2.7-3.6-3-4.7c0.3,1.7,0,3.2,0.4,3.8c0.8,1.1,1.8,2,3,2.6c-1.7-0.3-1.7-0.1-3.5-1.8c0.7,3.1,2.1,3.1,3.4,3.7
					c-0.7,0.4-2.9,0.1-3.6-2.5c-0.3,2.1,0.1,2.2,0.2,2.8c1.4,2.1,2.7,3,3.2,5.1c0.1,6.6-0.8,12.9-1.5,19.3c0.2,5.6,0.9,8.2,5.8,10.4
					c2.3,0.4,3.5-0.4,5.2-0.4c5.3,3.4,7.9,1.2,13.6,0.9c3.8,0.4,9.1-0.4,13.2-0.5c4.4,0.2,8.7,0.9,12.8,2.1c1.5,0.6,0.4,0.4,5.5,2.3
					c1.2,0.3,2.4,0.4,3.6,0.4c1.7-0.2,3.3-0.3,5-0.4c1.1-0.4,2.3,0.3,3.1,0.2C118.7,231.9,118.6,231.6,118.6,231.5L118.6,231.5z
					 M127.1,228.2L127.1,228.2C127,228.1,127,228.2,127.1,228.2L127.1,228.2z M135.9,233.3l-0.8-0.6l-0.2-0.7l-0.1-1.5l0.4-1.4
					l0.7-0.6l-0.7,2.1h0.7l-0.3,0.6v0.9L135.9,233.3z M108.7,231.5c-0.3,0-0.6-0.1-0.9-0.1c-0.4-0.1-0.8-0.4-1.1-0.7
					c1.2,0.4,2.4,0.3,3.5-0.1c0.6-0.2,1.2-0.5,1.7-0.9s1-0.9,1.4-1.4c-0.3,0.6-0.8,1.1-1.3,1.6c-0.6,0.6-1.4,1.1-2.2,1.4
					C109.5,231.4,109.1,231.5,108.7,231.5L108.7,231.5z M142.6,229.6c1.5,0,3.1-0.3,4.5-1c-1.6,0.2-3.1-0.7-3.6-2.1
					c-0.2-0.5-0.7-0.5-0.9-0.6s-0.1,0-0.5,0.8c-0.3,0.6-0.5,1.2-0.7,1.8c1.1,0.1,2.1,0.5,3,0.4c-1,0.3-3,0-3.3,0.1
					c0,0.2,0,0.4,0,0.7c0.3,0,0.5,0,0.8,0L142.6,229.6z M121.7,229c-1.1,0-2.2-0.3-3.2-0.9c-0.6-0.3-1.3-0.6-1.9-0.9
					c1.2,0,2.2,0.7,3.2,1.1c1,0.4,2.2,0.3,3.1-0.3c0-0.2,0-0.5,0-0.7c0,0.1-0.2-0.5-0.2-0.4c0.7,0.6,0.9,0.6,1,1.2
					C123.2,228.7,122.5,229,121.7,229z M128.4,225.7c-0.3,0-0.7-0.1-0.9-0.3c1.8,0.3,1.8-0.5,3.8-3.6c0.8-1,1-0.5,0.2,0.3
					C130.4,224,129.6,225.7,128.4,225.7L128.4,225.7z M127.5,225c-0.3,0-0.6-0.1-0.9-0.2c0.5,0,1.6-0.1,1.6-0.5
					c-1.1-0.9-0.6-3.9,2.4-3c0.3-0.4,0.7-0.7,1.2-0.8c-1,0.8-1.8,1.9-2.4,3C128.9,224.6,128.2,225,127.5,225L127.5,225z M128.5,224
					c-0.4-1.5-0.1-2.4,1.6-2.2c0.2-0.1,0.3-0.3-0.1-0.4c-0.2-0.1-0.4-0.1-0.6-0.1C127.9,221.2,127.3,223.5,128.5,224L128.5,224z
					 M124,223.9l-0.1-0.5c1.4-5.5,8.3-4.8,11-9.9l1.7-2.5l-0.1,0.4c-1.9,3.4-2.7,4.7-6.2,6.7C127.1,219.6,125.5,220.5,124,223.9
					L124,223.9z M136.8,210.6c0.2-0.9,0.4-1.9,1.5-2c0.3,0.1,0.5,0.4,0.4,0.7c0,0.1-0.1,0.2-0.2,0.3c-0.6-0.3-0.3-0.1-0.6-0.2
					C137.3,209.9,137.4,210.1,136.8,210.6L136.8,210.6z M69.8,197.6c0.6-0.6,1.4-1,2.2-1.3c-1-2.2-4.4-5.4-4.1-8.9
					c1.6-3.5,2.6-5.5,4.8-10.2c0.7-1.2,0.5-0.6,0.6-1.7c-0.8,0.2-1.7,0.2-2.5,0c0.9-0.1,1.8-0.3,2.9-0.5c-0.2,0.2,0.1,0.5,0.1,0.6
					c0.6-0.1,3.5-1.6,3.7-2.6c0.1-0.3-0.5-0.2-0.3-0.5c-0.2-0.3-1.2,1.1-2.2,1.1c0.8-0.4,1.5-1,1.9-1.7c-0.7-0.4-1-0.3-2.2-0.4
					c-1.4-0.1-2.7,0.1-4,0.5c-1,0.8-1.7,1.9-2,3.1c0.2,0.2,0.7,0.6,0.9,0.8c-0.3,0.1-0.7,0-1.2-0.6c-0.2-0.1-0.5-0.2-0.8-0.2
					c-0.2,0.2-0.4,0.2-0.4,0.5c0.1,1.1,0,2.2-0.2,3.3c-0.4,1.8-1.2,3.5-2.4,5c-0.5,0.4-1.1,0.3-1.4,0.4c-0.4,0.1-0.7,0.4-0.8,0.9
					c-0.2,0.6-0.1,1.4,0.9,2.2c0.2,0.3,0.5,0.4,0.6,0.8c0.6,1.8,0.3,4.6,0.3,6C67,196,68.6,197.4,69.8,197.6L69.8,197.6z
					 M115.6,193.6c0.3-0.6,0.2-3.6,0-4.4c-0.2-0.5-0.3-1-0.4-1.5c0.1-1.1,0.2-2.2,0.3-2.4c0.2-2.6,0.6-5.1,1.1-7.7
					c0.8-1.3-1.8-1.7-2.4-1.4c1.2-0.6,3.8-0.2,3.4,0.7c3.5-2.4,5.4-4,4.4-4.4c-1,0.9-2.1,1.8-3.2,2.5c-0.5,0.4,3.1-2.7,2.5-3
					c-0.7-0.4-1.5-0.6-2.3-0.5c-0.9,0-3,0.1-3.4,0.6c0.3,0.2-2.8,3.1-3.4,3.3c-0.3,0.4,0.7,1.1,1.1,1.6c-0.9-0.2-1.8-1.4-1.8-1.2
					c-1.2,0.2-0.6,0.8-0.9,1c1,1.2,1.5,2.8,1.3,4.4c-0.1,1.2,0,2.1-0.7,2.8c0,0.2-0.8,0.8-0.4,1.2c0.7,0.7,0.8,1.7,0.3,2.6
					c0.5,1.4,0.6,3,0.3,4.5C112.5,191.9,114.1,193,115.6,193.6L115.6,193.6z"/>
			</g>
		</g>
	</g>
	<g>
		<defs>
			<rect id="SVGID_00000034068579643208634240000000924737085723472036_" width="195.6" height="280.6"/>
		</defs>
		<clipPath id="SVGID_00000150782820809081641640000002998320281011887020_">
			<use xlink:href="#SVGID_00000034068579643208634240000000924737085723472036_"  style="overflow:visible;"/>
		</clipPath>
		<path style="clip-path:url(#SVGID_00000150782820809081641640000002998320281011887020_);fill:#FFFFFF;" d="M80,99.6
			c-12.6,0-22.9,10.2-22.9,30.5c0,25.4,18.2,50.9,40.7,50.9s40.7-25.4,40.7-50.9c0-20.3-10.2-30.5-22.9-30.5
			c-6.9,0-13.5,3.1-17.8,8.5C93.5,102.8,86.9,99.6,80,99.6z"/>
	</g>
	<g>
		<defs>
			<rect id="SVGID_00000135649688918012409990000007892489936515023292_" width="195.6" height="280.6"/>
		</defs>
		<clipPath id="SVGID_00000088829829820164664000000002851648525147503241_">
			<use xlink:href="#SVGID_00000135649688918012409990000007892489936515023292_"  style="overflow:visible;"/>
		</clipPath>
		<path style="clip-path:url(#SVGID_00000088829829820164664000000002851648525147503241_);fill:#FFFFFF;" d="M30.4,112.8h134.7
			c3,0,5.5,2.4,5.5,5.5v44c0,3-2.4,5.5-5.5,5.5H30.4c-3,0-5.5-2.4-5.5-5.5v-44C25,115.3,27.4,112.8,30.4,112.8z"/>
	</g>
	<g>
		<defs>
			<rect id="SVGID_00000163779030378949103680000010162864593716547716_" width="195.6" height="280.6"/>
		</defs>
		<clipPath id="SVGID_00000006683708362624811400000004728900204420287128_">
			<use xlink:href="#SVGID_00000163779030378949103680000010162864593716547716_"  style="overflow:visible;"/>
		</clipPath>
	</g>
	<g>
		<defs>
			<rect id="SVGID_00000117673955012838459690000016096657907296031620_" width="195.6" height="280.6"/>
		</defs>
		<clipPath id="SVGID_00000073722686541736871830000018419868884425370506_">
			<use xlink:href="#SVGID_00000117673955012838459690000016096657907296031620_"  style="overflow:visible;"/>
		</clipPath>
		<path style="clip-path:url(#SVGID_00000073722686541736871830000018419868884425370506_);fill:#1C1A19;" d="M150.5,0h29h16v16
			c0,7,0,14,0,21c-10.2,12.4-28.6,14.2-41,4S140.3,12.4,150.5,0z"/>
	</g>
	<g>
		<defs>
			<rect id="SVGID_00000112594552738001636480000001646022420038630319_" width="195.6" height="280.6"/>
		</defs>
		<clipPath id="SVGID_00000156575157940108322310000010886337215037993376_">
			<use xlink:href="#SVGID_00000112594552738001636480000001646022420038630319_"  style="overflow:visible;"/>
		</clipPath>
	</g>
</g>
<g class="st9">
	<path class="st10" d="M32.8,145h4.3c1.4,0,2.4,0.1,3.1,0.3c0.7,0.2,1.3,0.6,1.7,1.3s0.6,1.7,0.6,3.1c0,1-0.2,1.6-0.5,2
		c-0.3,0.4-0.9,0.7-1.8,0.9c1,0.2,1.7,0.6,2,1.1s0.5,1.3,0.5,2.4v1.5c0,1.1-0.1,2-0.4,2.5c-0.3,0.5-0.7,0.9-1.2,1.1
		s-1.7,0.3-3.4,0.3h-5V145z M37.1,147.8v3.7c0.2,0,0.3,0,0.4,0c0.4,0,0.7-0.1,0.8-0.3c0.1-0.2,0.2-0.8,0.2-1.8c0-0.5,0-0.9-0.1-1.1
		c-0.1-0.2-0.2-0.3-0.4-0.4C37.9,147.8,37.6,147.8,37.1,147.8z M37.1,154.1v4.6c0.6,0,1-0.1,1.2-0.3s0.3-0.6,0.3-1.3v-1.5
		c0-0.7-0.1-1.1-0.2-1.3S37.8,154.1,37.1,154.1z"/>
	<path class="st10" d="M48.6,145v2.2h-4.3V145H48.6z M48.6,148v13.6h-4.3V148H48.6z"/>
	<path class="st10" d="M59.4,155h-5.4v2.9c0,0.6,0,1,0.1,1.2s0.3,0.3,0.5,0.3c0.3,0,0.5-0.1,0.6-0.4c0.1-0.2,0.2-0.7,0.2-1.4v-1.8
		h3.9v1c0,0.8-0.1,1.5-0.2,1.9c-0.1,0.5-0.4,0.9-0.7,1.4s-0.9,0.9-1.5,1.2c-0.6,0.3-1.3,0.4-2.3,0.4c-0.9,0-1.6-0.1-2.3-0.4
		c-0.7-0.3-1.2-0.6-1.6-1c-0.4-0.4-0.6-0.9-0.8-1.5c-0.1-0.5-0.2-1.3-0.2-2.3v-4c0-1.2,0.2-2.1,0.5-2.8c0.3-0.7,0.8-1.2,1.6-1.6
		c0.7-0.4,1.6-0.5,2.5-0.5c1.2,0,2.1,0.2,2.9,0.7c0.8,0.4,1.3,1,1.6,1.8c0.3,0.7,0.5,1.8,0.5,3.1V155z M55.3,152.8v-1
		c0-0.7,0-1.2-0.1-1.4s-0.2-0.3-0.5-0.3c-0.3,0-0.5,0.1-0.5,0.3c-0.1,0.2-0.1,0.6-0.1,1.4v1H55.3z"/>
	<path class="st10" d="M65.1,145v16.6h-4.3V145H65.1z"/>
	<path class="st10" d="M75,152.3h-3.7v-0.7c0-0.6,0-1-0.1-1.2c-0.1-0.2-0.3-0.3-0.5-0.3c-0.2,0-0.4,0.1-0.5,0.2
		c-0.1,0.2-0.2,0.4-0.2,0.7c0,0.4,0,0.7,0.1,0.9c0.1,0.2,0.2,0.4,0.5,0.6c0.3,0.2,0.9,0.6,1.8,1c1.2,0.6,2,1.1,2.4,1.7
		s0.6,1.3,0.6,2.3c0,1.1-0.1,1.9-0.4,2.5c-0.3,0.6-0.8,1-1.4,1.3c-0.7,0.3-1.5,0.5-2.4,0.5c-1.1,0-2-0.2-2.7-0.5
		c-0.7-0.3-1.3-0.8-1.5-1.3s-0.4-1.4-0.4-2.5v-0.7H70v0.9c0,0.7,0,1.2,0.1,1.4c0.1,0.2,0.3,0.3,0.5,0.3c0.3,0,0.5-0.1,0.6-0.2
		c0.1-0.1,0.2-0.5,0.2-0.9c0-0.6-0.1-1.1-0.2-1.2c-0.2-0.2-1-0.6-2.4-1.5c-1.2-0.7-2-1.3-2.2-1.9c-0.3-0.6-0.4-1.2-0.4-2
		c0-1.1,0.1-1.9,0.4-2.4c0.3-0.5,0.8-0.9,1.5-1.2c0.7-0.3,1.5-0.4,2.4-0.4c0.9,0,1.7,0.1,2.3,0.3c0.6,0.2,1.1,0.5,1.5,0.9
		c0.3,0.4,0.5,0.7,0.6,1c0.1,0.3,0.1,0.8,0.1,1.5V152.3z"/>
	<path class="st10" d="M85.4,148l-1.7,5.4l2.2,8.2h-4l-1.3-5.9l0,5.9h-4.1V145h4.1l0,7l1.3-4H85.4z"/>
	<path class="st10" d="M90.3,145h4.3c1.2,0,2.1,0.1,2.7,0.3s1.1,0.5,1.4,0.8c0.3,0.3,0.5,0.8,0.6,1.3c0.1,0.5,0.2,1.3,0.2,2.3v1.4
		c0,1.1-0.1,1.8-0.3,2.3c-0.2,0.5-0.6,0.9-1.2,1.1c-0.6,0.3-1.3,0.4-2.3,0.4h-1.2v6.7h-4.3V145z M94.6,147.8v4.2c0.1,0,0.2,0,0.3,0
		c0.4,0,0.7-0.1,0.8-0.3c0.2-0.2,0.2-0.6,0.2-1.2v-1.4c0-0.6-0.1-0.9-0.3-1.1S95.2,147.8,94.6,147.8z"/>
	<path class="st10" d="M110.1,152.7v3.3c0,1.2-0.1,2.1-0.2,2.7c-0.1,0.6-0.4,1.1-0.8,1.6c-0.4,0.5-0.9,0.9-1.6,1.1
		c-0.6,0.2-1.4,0.4-2.2,0.4c-0.9,0-1.7-0.1-2.3-0.3c-0.6-0.2-1.1-0.5-1.5-0.9c-0.4-0.4-0.6-0.9-0.8-1.5c-0.2-0.6-0.2-1.4-0.2-2.6
		V153c0-1.3,0.1-2.3,0.4-3s0.8-1.3,1.5-1.7s1.6-0.6,2.7-0.6c0.9,0,1.7,0.1,2.4,0.4c0.7,0.3,1.2,0.6,1.5,1.1s0.6,0.9,0.7,1.4
		C110,151.1,110.1,151.8,110.1,152.7z M105.9,151.7c0-0.7,0-1.1-0.1-1.3c-0.1-0.2-0.2-0.3-0.5-0.3s-0.4,0.1-0.5,0.3
		c-0.1,0.2-0.1,0.6-0.1,1.3v6.1c0,0.6,0,1.1,0.1,1.3c0.1,0.2,0.2,0.3,0.5,0.3c0.2,0,0.4-0.1,0.5-0.3c0.1-0.2,0.1-0.6,0.1-1.1V151.7z
		"/>
	<path class="st10" d="M120.9,145v16.6h-4.1v-1c-0.4,0.4-0.8,0.7-1.3,0.9c-0.4,0.2-0.9,0.3-1.4,0.3c-0.6,0-1.2-0.2-1.7-0.5
		c-0.5-0.3-0.8-0.7-0.9-1.2c-0.1-0.4-0.2-1.2-0.2-2.2v-6.4c0-1,0.1-1.8,0.2-2.2c0.1-0.4,0.4-0.8,0.9-1.2c0.5-0.3,1-0.5,1.7-0.5
		c0.5,0,1,0.1,1.4,0.3c0.4,0.2,0.8,0.5,1.2,0.8V145H120.9z M116.7,151.4c0-0.5,0-0.8-0.1-1c-0.1-0.2-0.3-0.3-0.5-0.3
		c-0.2,0-0.4,0.1-0.5,0.2c-0.1,0.2-0.1,0.5-0.1,1v6.7c0,0.6,0,0.9,0.1,1.1c0.1,0.2,0.2,0.3,0.5,0.3c0.3,0,0.4-0.1,0.5-0.3
		c0.1-0.2,0.1-0.7,0.1-1.4V151.4z"/>
	<path class="st10" d="M126.6,145v16.6h-4.3V145H126.6z"/>
	<path class="st10" d="M131.8,153.2h-3.9v-0.9c0-1.1,0.1-1.9,0.4-2.4c0.2-0.6,0.7-1.1,1.5-1.5c0.7-0.4,1.7-0.7,2.9-0.7
		c1.4,0,2.5,0.2,3.2,0.7c0.7,0.5,1.1,1.1,1.3,1.8c0.1,0.7,0.2,2.2,0.2,4.5v6.8h-4v-1.2c-0.3,0.5-0.6,0.9-1,1.1
		c-0.4,0.2-0.9,0.4-1.4,0.4c-0.7,0-1.4-0.2-2-0.6c-0.6-0.4-0.9-1.3-0.9-2.7v-1.1c0-1,0.2-1.7,0.5-2.1s1.1-0.8,2.4-1.3
		c1.4-0.5,2.1-0.9,2.2-1.1c0.1-0.2,0.1-0.6,0.1-1.1c0-0.7-0.1-1.2-0.2-1.4c-0.1-0.2-0.3-0.3-0.5-0.3c-0.3,0-0.5,0.1-0.5,0.3
		c-0.1,0.2-0.1,0.7-0.1,1.4V153.2z M133.1,155.1c-0.7,0.5-1,0.9-1.2,1.2c-0.1,0.3-0.2,0.8-0.2,1.4c0,0.7,0,1.2,0.1,1.4
		c0.1,0.2,0.3,0.3,0.5,0.3c0.3,0,0.4-0.1,0.5-0.2c0.1-0.2,0.1-0.6,0.1-1.3V155.1z"/>
	<path class="st10" d="M147.2,152.3h-3.7v-0.7c0-0.6,0-1-0.1-1.2c-0.1-0.2-0.3-0.3-0.5-0.3c-0.2,0-0.4,0.1-0.5,0.2
		c-0.1,0.2-0.2,0.4-0.2,0.7c0,0.4,0,0.7,0.1,0.9c0.1,0.2,0.2,0.4,0.5,0.6c0.3,0.2,0.9,0.6,1.8,1c1.2,0.6,2,1.1,2.4,1.7
		s0.6,1.3,0.6,2.3c0,1.1-0.1,1.9-0.4,2.5c-0.3,0.6-0.8,1-1.4,1.3c-0.7,0.3-1.5,0.5-2.4,0.5c-1.1,0-2-0.2-2.7-0.5
		c-0.7-0.3-1.3-0.8-1.5-1.3s-0.4-1.4-0.4-2.5v-0.7h3.7v0.9c0,0.7,0,1.2,0.1,1.4c0.1,0.2,0.3,0.3,0.5,0.3c0.3,0,0.5-0.1,0.6-0.2
		c0.1-0.1,0.2-0.5,0.2-0.9c0-0.6-0.1-1.1-0.2-1.2c-0.2-0.2-1-0.6-2.4-1.5c-1.2-0.7-2-1.3-2.2-1.9c-0.3-0.6-0.4-1.2-0.4-2
		c0-1.1,0.1-1.9,0.4-2.4c0.3-0.5,0.8-0.9,1.5-1.2c0.7-0.3,1.5-0.4,2.4-0.4c0.9,0,1.7,0.1,2.3,0.3c0.6,0.2,1.1,0.5,1.5,0.9
		c0.3,0.4,0.5,0.7,0.6,1c0.1,0.3,0.1,0.8,0.1,1.5V152.3z"/>
	<path class="st10" d="M157.5,148l-1.7,5.4l2.2,8.2h-4l-1.3-5.9l0,5.9h-4.1V145h4.1l0,7l1.3-4H157.5z"/>
	<path class="st10" d="M162.9,145v2.2h-4.3V145H162.9z M162.9,148v13.6h-4.3V148H162.9z"/>
</g>
<g class="st9">
	<path class="st10" d="M73,118.3l-2.9,8.8l3.2,10.7H68l-2.1-8.4v8.4h-5.1v-19.6h5.1v7.6l2.3-7.6H73z"/>
	<path class="st10" d="M85.1,127.5v3.9c0,1.4-0.1,2.5-0.2,3.2c-0.1,0.7-0.5,1.3-0.9,1.9c-0.5,0.6-1.1,1-1.8,1.3
		c-0.7,0.3-1.6,0.4-2.6,0.4c-1.1,0-2-0.1-2.7-0.4c-0.8-0.2-1.3-0.6-1.7-1.1c-0.4-0.5-0.7-1.1-0.9-1.7c-0.2-0.7-0.3-1.7-0.3-3.1v-4.1
		c0-1.5,0.2-2.7,0.5-3.5c0.3-0.8,0.9-1.5,1.7-2c0.8-0.5,1.9-0.8,3.2-0.8c1.1,0,2,0.2,2.8,0.5c0.8,0.3,1.4,0.8,1.8,1.3
		s0.7,1.1,0.9,1.6C85,125.5,85.1,126.4,85.1,127.5z M80.2,126.3c0-0.8,0-1.3-0.1-1.6c-0.1-0.2-0.3-0.3-0.6-0.3
		c-0.3,0-0.5,0.1-0.6,0.3c-0.1,0.2-0.1,0.7-0.1,1.6v7.2c0,0.8,0,1.3,0.1,1.5c0.1,0.2,0.3,0.3,0.6,0.3c0.3,0,0.5-0.1,0.6-0.3
		s0.1-0.7,0.1-1.4V126.3z"/>
	<path class="st10" d="M91.6,118.3v4.6c0.4-0.5,0.9-0.8,1.3-1c0.5-0.2,1-0.3,1.6-0.3c0.7,0,1.2,0.1,1.7,0.3s0.9,0.5,1.1,0.9
		c0.3,0.4,0.4,0.8,0.5,1.1c0.1,0.4,0.1,1.1,0.1,2.3v7.2c0,1.2-0.1,2.1-0.2,2.6c-0.2,0.6-0.5,1.1-1.1,1.5c-0.6,0.4-1.3,0.6-2.1,0.6
		c-0.6,0-1.1-0.1-1.6-0.4c-0.5-0.3-0.9-0.6-1.4-1.1l-0.3,1.2h-4.6v-19.6H91.6z M93,126.4c0-0.8-0.1-1.4-0.2-1.6
		c-0.1-0.3-0.3-0.4-0.6-0.4c-0.3,0-0.5,0.1-0.6,0.3s-0.1,0.8-0.1,1.7v6.9c0,0.9,0,1.4,0.2,1.7c0.1,0.2,0.3,0.4,0.6,0.4
		c0.3,0,0.5-0.1,0.6-0.4s0.1-0.9,0.1-1.8V126.4z"/>
</g>
<g class="st9">
	<path class="st10" d="M104.4,121.9l-0.2,2.1c0.7-1.5,1.7-2.3,3.1-2.4v5.6c-0.9,0-1.6,0.1-2,0.4c-0.4,0.2-0.7,0.6-0.8,1
		c-0.1,0.4-0.1,1.4-0.1,3v6.3h-4.9v-16H104.4z"/>
</g>
<g class="st9">
	<path class="st10" d="M119.1,121.9l-1.4,11.6c-0.2,1.8-0.4,3.1-0.6,3.8c-0.1,0.7-0.4,1.2-0.7,1.7s-0.8,0.8-1.4,1
		c-0.6,0.2-1.6,0.3-3,0.3h-3v-2.6c0.8,0,1.2,0,1.5-0.1c0.2-0.1,0.3-0.2,0.3-0.5c0-0.1-0.1-0.7-0.3-1.7l-2.7-13.4h4.4l1.6,10.8
		l0.8-10.8H119.1z"/>
	<path class="st10" d="M124.9,121.9l-0.1,1.5c0.4-0.6,0.8-1,1.3-1.3c0.5-0.3,1.1-0.4,1.8-0.4c0.8,0,1.5,0.2,2.1,0.6
		c0.5,0.4,0.9,0.9,1,1.5c0.2,0.6,0.2,1.6,0.2,3v11.2h-4.9v-11.1c0-1.1,0-1.8-0.1-2c-0.1-0.2-0.3-0.4-0.6-0.4c-0.3,0-0.6,0.1-0.7,0.4
		c-0.1,0.3-0.1,1-0.1,2.2v10.8H120v-16H124.9z"/>
</g>
<g class="st9">
	<path class="st11" d="M167.7,22.8c0.6,0.2,1,0.5,1.3,1c0.3,0.5,0.4,1.5,0.4,3.2c0,1.3-0.1,2.2-0.4,2.9c-0.3,0.7-0.8,1.2-1.5,1.6
		s-1.6,0.5-2.7,0.5c-1.2,0-2.2-0.2-2.9-0.6s-1.2-0.9-1.4-1.5s-0.3-1.7-0.3-3.2v-1.2h3.9V28c0,0.7,0,1.1,0.1,1.3
		c0.1,0.2,0.3,0.3,0.5,0.3c0.3,0,0.5-0.1,0.6-0.4s0.1-0.8,0.1-1.8v-1.1c0-0.6-0.1-1-0.2-1.3s-0.3-0.5-0.6-0.6
		c-0.3-0.1-0.8-0.1-1.6-0.2V22c0.9,0,1.5,0,1.7-0.1c0.2-0.1,0.4-0.2,0.5-0.5s0.1-0.6,0.1-1.1v-0.9c0-0.6-0.1-0.9-0.2-1.1
		c-0.1-0.2-0.3-0.3-0.5-0.3c-0.3,0-0.5,0.1-0.6,0.3c-0.1,0.2-0.2,0.6-0.2,1.2v1.3h-3.9v-1.3c0-1.5,0.3-2.5,1-3.1
		c0.7-0.5,1.8-0.8,3.3-0.8c1.9,0,3.2,0.4,3.8,1.1c0.7,0.7,1,1.8,1,3.1c0,0.9-0.1,1.5-0.4,1.9C168.7,22.1,168.3,22.5,167.7,22.8z"/>
	<path class="st11" d="M180.2,21.3v5.3c0,1.2-0.1,2.1-0.2,2.6c-0.1,0.5-0.4,1.1-0.8,1.5s-0.9,0.8-1.5,1c-0.6,0.2-1.2,0.3-1.9,0.3
		c-0.9,0-1.7-0.1-2.4-0.3s-1.1-0.6-1.5-1s-0.6-0.9-0.8-1.5s-0.2-1.3-0.2-2.4v-5.5c0-1.5,0.1-2.5,0.4-3.3c0.3-0.7,0.7-1.3,1.5-1.7
		c0.7-0.4,1.6-0.7,2.7-0.7c0.9,0,1.6,0.2,2.3,0.5s1.2,0.7,1.5,1.1c0.3,0.4,0.6,0.9,0.7,1.5C180.1,19.2,180.2,20.1,180.2,21.3z
		 M176.3,20c0-0.8,0-1.4-0.1-1.6c-0.1-0.2-0.3-0.3-0.6-0.3c-0.3,0-0.5,0.1-0.6,0.3c-0.1,0.2-0.1,0.7-0.1,1.6v7.7
		c0,0.9,0,1.5,0.1,1.7s0.3,0.3,0.6,0.3s0.5-0.1,0.6-0.3c0.1-0.2,0.1-0.7,0.1-1.5V20z"/>
</g>
</svg>
