<?xml version="1.0" encoding="utf-8"?>
<!-- Generator: Adobe Illustrator 26.0.3, SVG Export Plug-In . SVG Version: 6.00 Build 0)  -->
<svg version="1.1" id="Слой_1" xmlns="http://www.w3.org/2000/svg" xmlns:xlink="http://www.w3.org/1999/xlink" x="0px" y="0px"
	 viewBox="0 0 195.6 280.6" style="enable-background:new 0 0 195.6 280.6;" xml:space="preserve">
<style type="text/css">
	.st0{clip-path:url(#SVGID_00000081612375960844810470000009092269911610797241_);fill:#428ECC;}
	.st1{clip-path:url(#SVGID_00000081612375960844810470000009092269911610797241_);enable-background:new    ;}
	.st2{fill:#FFFFFF;}
	.st3{font-family:'Impact';}
	.st4{font-size:47.39px;}
	.st5{clip-path:url(#SVGID_00000081612375960844810470000009092269911610797241_);fill:#1A1A1A;}
	.st6{clip-path:url(#SVGID_00000081612375960844810470000009092269911610797241_);fill:#9D8070;}
	.st7{clip-path:url(#SVGID_00000081612375960844810470000009092269911610797241_);fill:#B6A293;}
	.st8{clip-path:url(#SVGID_00000081612375960844810470000009092269911610797241_);fill:#83665A;}
	.st9{clip-path:url(#SVGID_00000081612375960844810470000009092269911610797241_);fill:#F8AF5E;}
	.st10{clip-path:url(#SVGID_00000081612375960844810470000009092269911610797241_);fill:#FDD495;}
	.st11{clip-path:url(#SVGID_00000081612375960844810470000009092269911610797241_);fill:#F1844D;}
	.st12{clip-path:url(#SVGID_00000081612375960844810470000009092269911610797241_);fill:#F49955;}
	.st13{clip-path:url(#SVGID_00000081612375960844810470000009092269911610797241_);fill:#ED6B2F;}
	.st14{clip-path:url(#SVGID_00000081612375960844810470000009092269911610797241_);fill:#89A3AA;}
	.st15{clip-path:url(#SVGID_00000081612375960844810470000009092269911610797241_);fill:#647D8A;}
	.st16{clip-path:url(#SVGID_00000081612375960844810470000009092269911610797241_);fill:#FFFFFF;}
	.st17{clip-path:url(#SVGID_00000081612375960844810470000009092269911610797241_);fill:#B3B3B3;}
	.st18{clip-path:url(#SVGID_00000081612375960844810470000009092269911610797241_);fill:#97D6F2;}
	.st19{clip-path:url(#SVGID_00000081612375960844810470000009092269911610797241_);fill:#7F6456;}
	.st20{clip-path:url(#SVGID_00000081612375960844810470000009092269911610797241_);fill:#EB5A53;}
	.st21{fill:#428ECC;}
	.st22{font-size:20px;}
</style>
<g>
	<defs>
		<rect id="SVGID_1_" x="0" y="0" width="195.6" height="280.6"/>
	</defs>
	<clipPath id="SVGID_00000076579369959455787790000014446203119725100423_">
		<use xlink:href="#SVGID_1_"  style="overflow:visible;"/>
	</clipPath>
	
		<rect x="-285" y="-28.2" style="clip-path:url(#SVGID_00000076579369959455787790000014446203119725100423_);fill:#428ECC;" width="514.4" height="313.3"/>
	<g style="clip-path:url(#SVGID_00000076579369959455787790000014446203119725100423_);enable-background:new    ;">
		<text transform="matrix(1 0 0 1 27.4 252.45)" class="st2 st3 st4">Śvislač</text>
	</g>
	
		<rect x="12.1" y="27.8" style="clip-path:url(#SVGID_00000076579369959455787790000014446203119725100423_);fill:#1A1A1A;" width="38.7" height="4.8"/>
	<path style="clip-path:url(#SVGID_00000076579369959455787790000014446203119725100423_);fill:#1A1A1A;" d="M25,120.6
		c-0.6,3.3-0.9,6.7-0.9,10.1l0,0c0,19.6,9.3,34.9,23.9,44.8s34.3,14.8,55.9,14.8h1.2v-7.8h-1.2c-20.4,0-38.6-4.7-51.5-13.4
		s-20.5-21.2-20.5-38.4c0.1-1.9,0.2-3.8,0.5-5.6h72.8v-7.8H25.6L25,120.6z"/>
	<path style="clip-path:url(#SVGID_00000076579369959455787790000014446203119725100423_);fill:#1A1A1A;" d="M109.2,104.2v13.2H53.7
		v-13.2h-7.8v20.9h71v-20.9H109.2z"/>
	<path style="clip-path:url(#SVGID_00000076579369959455787790000014446203119725100423_);fill:#1A1A1A;" d="M41.2,76.4v17h41.5
		v-7.8H48.9v-1.5h33.7v-7.8H41.2z"/>
	<path style="clip-path:url(#SVGID_00000076579369959455787790000014446203119725100423_);fill:#1A1A1A;" d="M67.6,56.5v27.6h15
		v-7.8h-7.2V64.3h7.3v-7.8H67.6z"/>
	
		<rect x="45.9" y="44.1" style="clip-path:url(#SVGID_00000076579369959455787790000014446203119725100423_);fill:#1A1A1A;" width="4.8" height="50.8"/>
	
		<rect x="45.9" y="28.5" style="clip-path:url(#SVGID_00000076579369959455787790000014446203119725100423_);fill:#1A1A1A;" width="4.8" height="50.8"/>
	<path style="clip-path:url(#SVGID_00000076579369959455787790000014446203119725100423_);fill:#1A1A1A;" d="M80.2,56.5v7.8h7.3
		v12.1h-7.3v7.8h15V56.5H80.2z"/>
	<path style="clip-path:url(#SVGID_00000076579369959455787790000014446203119725100423_);fill:#1A1A1A;" d="M102.7,125.1h72.8
		c0.3,1.9,0.4,3.8,0.5,5.6c0,17.1-7.7,29.6-20.5,38.4s-31.1,13.4-51.5,13.4h-1.2v7.8h1.2c21.6,0,41.3-4.8,55.9-14.8
		s23.9-25.3,23.9-44.8l0,0c0-3.4-0.3-6.8-0.9-10.1l-0.6-3.2h-79.5V125.1z"/>
	<path style="clip-path:url(#SVGID_00000076579369959455787790000014446203119725100423_);fill:#1A1A1A;" d="M45.9,85.8v20.9h7.8
		V93.5h55.5v13.2h7.8V85.8H45.9z"/>
	<path style="clip-path:url(#SVGID_00000076579369959455787790000014446203119725100423_);fill:#1A1A1A;" d="M80.2,76.4v7.8h33.7
		v1.5H80.2v7.8h41.5v-17L80.2,76.4z"/>
	<path style="clip-path:url(#SVGID_00000076579369959455787790000014446203119725100423_);fill:#9D8070;" d="M28.8,121.3
		c-0.5,3.1-0.8,6.3-0.9,9.5c0,36.7,34,55.7,75.9,55.7s75.9-19,75.9-55.7c0-3.2-0.3-6.4-0.9-9.5H28.8z"/>
	<path style="clip-path:url(#SVGID_00000076579369959455787790000014446203119725100423_);fill:#B6A293;" d="M59.7,121.3
		c-6.9,52.1,87.8,55,118,24.8c1.5-5,2.2-10.1,2.2-15.3c0-3.2-0.3-6.4-0.9-9.5L59.7,121.3z"/>
	<path style="clip-path:url(#SVGID_00000076579369959455787790000014446203119725100423_);fill:#83665A;" d="M28.8,121.3
		c-0.5,3.1-0.8,6.3-0.9,9.5c0,36.7,34,55.7,75.9,55.7c29.9,0,55.7-9.6,68.1-28.4c-37.4,32.4-137.7,25-129.6-36.7L28.8,121.3z"/>
	<path style="clip-path:url(#SVGID_00000076579369959455787790000014446203119725100423_);fill:#F8AF5E;" d="M28.8,121.3
		c-0.5,3.1-0.8,6.3-0.9,9.5h151.9c0-3.2-0.3-6.4-0.9-9.5H28.8z"/>
	<path style="clip-path:url(#SVGID_00000076579369959455787790000014446203119725100423_);fill:#FDD495;" d="M59.7,121.3
		c-0.4,3.1-0.5,6.3-0.1,9.5h120.3c0-3.2-0.3-6.4-0.9-9.5H59.7z"/>
	<path style="clip-path:url(#SVGID_00000076579369959455787790000014446203119725100423_);fill:#F1844D;" d="M28.8,121.3
		c-0.5,3.1-0.8,6.3-0.9,9.5h14c-0.2-3.2,0-6.3,0.4-9.5H28.8z"/>
	<path style="clip-path:url(#SVGID_00000076579369959455787790000014446203119725100423_);fill:#1A1A1A;" d="M28,120.3l-0.1,0.8
		c-0.6,3.2-0.9,6.4-0.9,9.6c0,18.6,8.7,32.9,22.7,42.4s33.1,14.3,54.2,14.3h1.2v-1.9h-1.2c-20.8,0-39.6-4.7-53.2-13.9
		S29,148.8,29,130.8c0-2.9,0.3-5.7,0.8-8.5h75.4v-1.9H28z"/>
	
		<rect x="28" y="129.8" style="clip-path:url(#SVGID_00000076579369959455787790000014446203119725100423_);fill:#1A1A1A;" width="151.9" height="1.9"/>
	
		<rect x="49.8" y="89.6" style="clip-path:url(#SVGID_00000076579369959455787790000014446203119725100423_);fill:#F49955;" width="63.3" height="31.6"/>
	
		<rect x="49.8" y="89.6" style="clip-path:url(#SVGID_00000076579369959455787790000014446203119725100423_);fill:#ED6B2F;" width="63.3" height="4.4"/>
	
		<rect x="45.1" y="80.3" style="clip-path:url(#SVGID_00000076579369959455787790000014446203119725100423_);fill:#FDD495;" width="72.8" height="9.2"/>
	<path style="clip-path:url(#SVGID_00000076579369959455787790000014446203119725100423_);fill:#1A1A1A;" d="M44.1,79.3v11.2h38.6
		v-1.9H46v-7.3h36.7v-1.9H44.1z"/>
	
		<rect x="71.5" y="60.4" style="clip-path:url(#SVGID_00000076579369959455787790000014446203119725100423_);fill:#89A3AA;" width="19.9" height="19.9"/>
	
		<rect x="71.5" y="60.4" style="clip-path:url(#SVGID_00000076579369959455787790000014446203119725100423_);fill:#647D8A;" width="7.1" height="19.9"/>
	
		<rect x="84.8" y="60.4" style="clip-path:url(#SVGID_00000076579369959455787790000014446203119725100423_);fill:#FFFFFF;" width="2.9" height="19.9"/>
	
		<rect x="71.5" y="60.4" style="clip-path:url(#SVGID_00000076579369959455787790000014446203119725100423_);fill:#FFFFFF;" width="19.9" height="5.6"/>
	
		<rect x="71.5" y="60.4" style="clip-path:url(#SVGID_00000076579369959455787790000014446203119725100423_);fill:#B3B3B3;" width="7.1" height="5.6"/>
	
		<rect x="71.5" y="65.1" style="clip-path:url(#SVGID_00000076579369959455787790000014446203119725100423_);fill:#1A1A1A;" width="19.9" height="1.9"/>
	<path style="clip-path:url(#SVGID_00000076579369959455787790000014446203119725100423_);fill:#1A1A1A;" d="M70.5,59.4v21.8h12.1
		v-1.9H72.5V61.4h10.2v-1.9H70.5z"/>
	<path style="clip-path:url(#SVGID_00000076579369959455787790000014446203119725100423_);fill:#ED6B2F;" d="M90.9,96.1
		c-5.1,0-9.2,4.2-9.2,9.4c0,5.1,4.2,9.2,9.4,9.2c5.1,0,9.2-4.2,9.2-9.3C100.2,100.3,96,96.1,90.9,96.1z"/>
	<path style="clip-path:url(#SVGID_00000076579369959455787790000014446203119725100423_);fill:#FFFFFF;" d="M93.6,97.1
		c-4.6,0-8.3,3.8-8.2,8.4c0,4.6,3.8,8.3,8.4,8.2c4.6,0,8.2-3.8,8.2-8.3c0-2.2-0.9-4.3-2.5-5.9C97.9,98,95.8,97.1,93.6,97.1
		L93.6,97.1z"/>
	<path style="clip-path:url(#SVGID_00000076579369959455787790000014446203119725100423_);fill:#97D6F2;" d="M93.6,101.4
		c-2.2,0-4,1.7-4.1,3.9c0,1.1,0.4,2.2,1.2,2.9c1.5,1.6,4,1.7,5.7,0.2c0.8-0.8,1.3-1.9,1.3-3C97.6,103.2,95.8,101.5,93.6,101.4
		L93.6,101.4z"/>
	<path style="clip-path:url(#SVGID_00000076579369959455787790000014446203119725100423_);fill:#1A1A1A;" d="M96.4,104.2
		c0.2,0.4,0.3,0.8,0.3,1.2c-0.1,1.7-1.6,3-3.3,2.9c-1.6-0.1-2.8-1.3-2.9-2.9c0-0.4,0.1-0.8,0.3-1.2h-2c-0.7,2.7,1,5.4,3.7,6.1
		s5.4-1,6.1-3.7c0.2-0.8,0.2-1.6,0-2.4H96.4z"/>
	<path style="clip-path:url(#SVGID_00000076579369959455787790000014446203119725100423_);fill:#1A1A1A;" d="M100.9,104.2
		c0.1,0.4,0.1,0.8,0.1,1.2c-0.2,4.1-3.6,7.3-7.7,7.2c-3.9-0.1-7-3.3-7.2-7.2c0-0.4,0-0.8,0.1-1.2h-2c-0.1,0.4-0.1,0.8-0.1,1.2
		c0.2,5.2,4.5,9.2,9.7,9.1c4.9-0.2,8.9-4.1,9.1-9.1c0-0.4,0-0.8-0.1-1.2H100.9z"/>
	<path style="clip-path:url(#SVGID_00000076579369959455787790000014446203119725100423_);fill:#ED6B2F;" d="M66.6,96.1
		c-5.1,0-9.3,4.1-9.3,9.3c0,2.5,1,4.8,2.7,6.6c3.7,3.6,9.6,3.6,13.3,0c3.6-3.6,3.7-9.5,0.1-13.1C71.6,97.1,69.2,96.1,66.6,96.1
		L66.6,96.1z"/>
	<path style="clip-path:url(#SVGID_00000076579369959455787790000014446203119725100423_);fill:#FFFFFF;" d="M69.3,97.1
		c-4.6,0-8.4,3.7-8.4,8.3c0,2.2,0.9,4.4,2.5,6c1.6,1.6,3.7,2.4,6,2.4c4.6,0.2,8.5-3.4,8.6-8.1c0.2-4.6-3.4-8.5-8.1-8.6
		C69.7,97.1,69.5,97.1,69.3,97.1z"/>
	<path style="clip-path:url(#SVGID_00000076579369959455787790000014446203119725100423_);fill:#97D6F2;" d="M69.3,101.4
		c-2.2,0-4,1.7-4.1,3.9c0,1.1,0.4,2.2,1.2,2.9c1.6,1.6,4.1,1.6,5.7,0c0.8-0.8,1.2-1.8,1.2-2.8C73.4,103.2,71.6,101.5,69.3,101.4
		L69.3,101.4z"/>
	<path style="clip-path:url(#SVGID_00000076579369959455787790000014446203119725100423_);fill:#1A1A1A;" d="M72.1,104.2
		c0.2,0.4,0.3,0.8,0.3,1.2c0,1.7-1.4,3.1-3.1,3.1c-1.7,0-3.1-1.4-3.1-3.1c0-0.4,0.1-0.8,0.3-1.2h-2c-0.7,2.7,1,5.4,3.7,6.1
		s5.4-1,6.1-3.7c0.2-0.8,0.2-1.6,0-2.4H72.1z"/>
	<path style="clip-path:url(#SVGID_00000076579369959455787790000014446203119725100423_);fill:#1A1A1A;" d="M76.7,104.2
		c0.1,0.4,0.1,0.8,0.1,1.2c0,4.1-3.3,7.4-7.4,7.4c-4.1,0-7.4-3.3-7.4-7.4c0-0.4,0-0.8,0.1-1.2h-2c-0.1,0.4-0.1,0.8-0.1,1.2
		c0,5.2,4.2,9.4,9.4,9.4c5.2,0,9.4-4.2,9.4-9.4l0,0c0-0.4,0-0.8-0.1-1.2H76.7z"/>
	<path style="clip-path:url(#SVGID_00000076579369959455787790000014446203119725100423_);fill:#1A1A1A;" d="M112.1,104.2v16.1H50.8
		v-16.1h-1.9v18H114v-18H112.1z"/>
	<path style="clip-path:url(#SVGID_00000076579369959455787790000014446203119725100423_);fill:#9D8070;" d="M119,137.9
		c-6.4,0-11.6,5.2-11.6,11.6S112.6,161,119,161c6.4,0,11.6-5.2,11.6-11.6c0-3.1-1.2-6-3.4-8.2C125,139.1,122.1,137.9,119,137.9z"/>
	<path style="clip-path:url(#SVGID_00000076579369959455787790000014446203119725100423_);fill:#7F6456;" d="M122.8,138.9
		c-5.9,0-10.6,4.7-10.6,10.6s4.7,10.6,10.6,10.6c5.9,0,10.6-4.7,10.6-10.6C133.5,143.6,128.7,138.9,122.8,138.9
		C122.9,138.9,122.9,138.9,122.8,138.9z"/>
	<path style="clip-path:url(#SVGID_00000076579369959455787790000014446203119725100423_);fill:#97D6F2;" d="M117.5,149.4
		c0-2.9,2.4-5.3,5.3-5.3s5.3,2.4,5.3,5.3s-2.4,5.3-5.3,5.3S117.5,152.4,117.5,149.4L117.5,149.4z"/>
	<path style="clip-path:url(#SVGID_00000076579369959455787790000014446203119725100423_);fill:#1A1A1A;" d="M132.4,148.2
		c0.1,0.4,0.1,0.8,0.1,1.2c0,5.3-4.3,9.6-9.6,9.6c-5.3,0-9.6-4.3-9.6-9.6c0-0.4,0-0.8,0.1-1.2h-2c0,0.4-0.1,0.8-0.1,1.2
		c0,6.4,5.2,11.6,11.6,11.6c6.4,0,11.6-5.2,11.6-11.6c0-0.4,0-0.8-0.1-1.2H132.4z"/>
	<path style="clip-path:url(#SVGID_00000076579369959455787790000014446203119725100423_);fill:#1A1A1A;" d="M127,148.2
		c0.1,0.4,0.2,0.8,0.2,1.2c0,2.4-2,4.4-4.4,4.4s-4.4-2-4.4-4.4c0-0.4,0.1-0.8,0.2-1.2h-2c-0.7,3.4,1.5,6.7,5,7.4
		c3.4,0.7,6.7-1.5,7.4-5c0.1-0.4,0.1-0.8,0.1-1.2c0-0.4,0-0.8-0.1-1.2H127z"/>
	<path style="clip-path:url(#SVGID_00000076579369959455787790000014446203119725100423_);fill:#9D8070;" d="M87.8,137.9
		c-6.4,0-11.6,5.2-11.6,11.6c0,6.4,5.2,11.6,11.6,11.6c6.4,0,11.6-5.2,11.6-11.6S94.2,137.9,87.8,137.9L87.8,137.9z"/>
	<path style="clip-path:url(#SVGID_00000076579369959455787790000014446203119725100423_);fill:#7F6456;" d="M91.6,138.9
		c-5.9,0-10.6,4.7-10.6,10.6c0,5.9,4.7,10.6,10.6,10.6c5.9,0,10.6-4.7,10.6-10.6c0,0,0,0,0,0C102.2,143.6,97.5,138.9,91.6,138.9
		L91.6,138.9z"/>
	<path style="clip-path:url(#SVGID_00000076579369959455787790000014446203119725100423_);fill:#97D6F2;" d="M86.3,149.4
		c0-2.9,2.4-5.3,5.3-5.3s5.3,2.4,5.3,5.3c0,2.9-2.4,5.3-5.3,5.3S86.3,152.4,86.3,149.4L86.3,149.4z"/>
	<path style="clip-path:url(#SVGID_00000076579369959455787790000014446203119725100423_);fill:#1A1A1A;" d="M80.1,148.2
		c0,0.4-0.1,0.8-0.1,1.2c0,6.4,5.2,11.6,11.6,11.6c6.4,0,11.6-5.2,11.6-11.6c0-0.4,0-0.8-0.1-1.2h-2c0,0.4,0.1,0.8,0.1,1.2
		c0,5.3-4.3,9.6-9.6,9.6c-5.3,0-9.6-4.3-9.6-9.6c0-0.4,0-0.8,0.1-1.2H80.1z"/>
	<path style="clip-path:url(#SVGID_00000076579369959455787790000014446203119725100423_);fill:#1A1A1A;" d="M85.4,148.2
		c-0.7,3.4,1.5,6.7,5,7.4c3.4,0.7,6.7-1.5,7.4-5c0.2-0.8,0.2-1.6,0-2.4h-2c0.1,0.4,0.2,0.8,0.2,1.2c0,2.4-2,4.4-4.4,4.4
		s-4.4-2-4.4-4.4c0-0.4,0.1-0.8,0.2-1.2H85.4z"/>
	<path style="clip-path:url(#SVGID_00000076579369959455787790000014446203119725100423_);fill:#83665A;" d="M56.6,137.9
		c-6.4,0-11.6,5.2-11.6,11.6c0,6.4,5.2,11.6,11.6,11.6s11.6-5.2,11.6-11.6C68.2,143.1,63,137.9,56.6,137.9
		C56.6,137.9,56.6,137.9,56.6,137.9z"/>
	<path style="clip-path:url(#SVGID_00000076579369959455787790000014446203119725100423_);fill:#7F6456;" d="M60.4,138.9
		c-5.9,0-10.6,4.7-10.6,10.6s4.7,10.6,10.6,10.6S71,155.3,71,149.5c0,0,0,0,0,0C71,143.6,66.3,138.8,60.4,138.9
		C60.4,138.8,60.4,138.8,60.4,138.9L60.4,138.9z"/>
	<path style="clip-path:url(#SVGID_00000076579369959455787790000014446203119725100423_);fill:#97D6F2;" d="M55.1,149.4
		c0-2.9,2.4-5.3,5.3-5.3s5.3,2.4,5.3,5.3c0,2.9-2.4,5.3-5.3,5.3S55.1,152.4,55.1,149.4L55.1,149.4z"/>
	<path style="clip-path:url(#SVGID_00000076579369959455787790000014446203119725100423_);fill:#1A1A1A;" d="M70,148.2
		c0.1,0.4,0.1,0.8,0.1,1.2c-0.2,5.3-4.6,9.5-9.9,9.3c-5.1-0.2-9.2-4.2-9.3-9.3c0-0.4,0-0.8,0.1-1.2h-2c0,0.4-0.1,0.8-0.1,1.2
		c0,6.4,5.2,11.6,11.6,11.6c6.4,0,11.6-5.2,11.6-11.6c0-0.4,0-0.8-0.1-1.2H70z"/>
	<path style="clip-path:url(#SVGID_00000076579369959455787790000014446203119725100423_);fill:#1A1A1A;" d="M64.6,148.2
		c0.1,0.4,0.2,0.8,0.2,1.2c0,2.4-2,4.4-4.4,4.4s-4.4-2-4.4-4.4c0-0.4,0.1-0.8,0.2-1.2h-2c-0.1,0.4-0.1,0.8-0.1,1.2
		c0,3.5,2.8,6.3,6.3,6.3c3.5,0,6.3-2.8,6.3-6.3c0-0.4,0-0.8-0.1-1.2H64.6z"/>
	<path style="clip-path:url(#SVGID_00000076579369959455787790000014446203119725100423_);fill:#1A1A1A;" d="M122.8,137.9
		c-6.4,0-11.6,5.2-11.6,11.6c0,0.4,0,0.8,0.1,1.2h2c-0.1-0.4-0.1-0.8-0.1-1.2c0-5.3,4.3-9.6,9.6-9.6s9.6,4.3,9.6,9.6c0,0,0,0,0,0
		c0,0.4,0,0.8-0.1,1.2h2c0-0.4,0.1-0.8,0.1-1.2C134.5,143.1,129.3,137.9,122.8,137.9L122.8,137.9z"/>
	<path style="clip-path:url(#SVGID_00000076579369959455787790000014446203119725100423_);fill:#1A1A1A;" d="M122.8,143.1
		c-3.5,0-6.3,2.8-6.3,6.3c0,0.4,0,0.8,0.1,1.2h2c-0.1-0.4-0.2-0.8-0.2-1.2c0-2.4,2-4.4,4.4-4.4s4.4,2,4.4,4.4l0,0
		c0,0.4-0.1,0.8-0.2,1.2h2c0.1-0.4,0.1-0.8,0.1-1.2C129.1,146,126.3,143.2,122.8,143.1z"/>
	<path style="clip-path:url(#SVGID_00000076579369959455787790000014446203119725100423_);fill:#1A1A1A;" d="M91.6,137.9
		c-6.4,0-11.6,5.2-11.6,11.6c0,0.4,0,0.8,0.1,1.2h2c-0.1-0.4-0.1-0.8-0.1-1.2c0-5.3,4.3-9.6,9.6-9.6c5.3,0,9.6,4.3,9.6,9.6l0,0
		c0,0.4,0,0.8-0.1,1.2h2c0-0.4,0.1-0.8,0.1-1.2C103.3,143.1,98.1,137.9,91.6,137.9L91.6,137.9z"/>
	<path style="clip-path:url(#SVGID_00000076579369959455787790000014446203119725100423_);fill:#1A1A1A;" d="M91.6,143.1
		c-3.5,0-6.3,2.8-6.3,6.3c0,0.4,0,0.8,0.1,1.2h2c-0.1-0.4-0.2-0.8-0.2-1.2c0-2.4,2-4.4,4.4-4.4s4.4,2,4.4,4.4l0,0
		c0,0.4-0.1,0.8-0.2,1.2h2c0.1-0.4,0.1-0.8,0.1-1.2C97.9,146,95.1,143.2,91.6,143.1L91.6,143.1z"/>
	<path style="clip-path:url(#SVGID_00000076579369959455787790000014446203119725100423_);fill:#1A1A1A;" d="M60.4,137.9
		c-6.4,0-11.6,5.2-11.6,11.6c0,0.4,0,0.8,0.1,1.2h2c-0.1-0.4-0.1-0.8-0.1-1.2c-0.2-5.3,4-9.8,9.3-9.9c5.3-0.2,9.8,4,9.9,9.3
		c0,0.2,0,0.4,0,0.6c0,0.4,0,0.8-0.1,1.2h2c0-0.4,0.1-0.8,0.1-1.2C72.1,143.1,66.9,137.9,60.4,137.9L60.4,137.9z"/>
	<path style="clip-path:url(#SVGID_00000076579369959455787790000014446203119725100423_);fill:#1A1A1A;" d="M60.4,143.1
		c-3.5,0-6.3,2.8-6.3,6.3c0,0.4,0,0.8,0.1,1.2h2c-0.1-0.4-0.2-0.8-0.2-1.2c0-2.4,2-4.4,4.4-4.4c2.4,0,4.4,2,4.4,4.4
		c0,0.4-0.1,0.8-0.2,1.2h2c0.1-0.4,0.1-0.8,0.1-1.2C66.7,146,63.9,143.2,60.4,143.1L60.4,143.1z"/>
	<path style="clip-path:url(#SVGID_00000076579369959455787790000014446203119725100423_);fill:#1A1A1A;" d="M93.6,100.5
		c-2.8,0-5,2.2-5,5c0,0.4,0.1,0.8,0.2,1.2h2c-0.2-0.4-0.3-0.8-0.3-1.2c0.1-1.7,1.6-3,3.3-2.9c1.6,0.1,2.8,1.3,2.9,2.9
		c0,0.4-0.1,0.8-0.3,1.2h2c0.1-0.4,0.2-0.8,0.2-1.2C98.5,102.7,96.3,100.5,93.6,100.5L93.6,100.5z"/>
	<path style="clip-path:url(#SVGID_00000076579369959455787790000014446203119725100423_);fill:#1A1A1A;" d="M93.6,96.1
		c-5.2,0-9.4,4.2-9.4,9.3c0,0.4,0,0.8,0.1,1.2h2c-0.1-0.4-0.1-0.8-0.1-1.2c0.2-4.1,3.6-7.3,7.7-7.2c3.9,0.1,7,3.3,7.2,7.2
		c0,0.4,0,0.8-0.1,1.2h2c0.1-0.4,0.1-0.8,0.1-1.2C103,100.3,98.8,96.1,93.6,96.1L93.6,96.1z"/>
	<path style="clip-path:url(#SVGID_00000076579369959455787790000014446203119725100423_);fill:#1A1A1A;" d="M69.3,100.5
		c-2.8,0-5,2.2-5,5c0,0.4,0.1,0.8,0.2,1.2h2c-0.2-0.4-0.3-0.8-0.3-1.2c0-1.7,1.4-3.1,3.1-3.1s3.1,1.4,3.1,3.1c0,0.4-0.1,0.8-0.3,1.2
		h2c0.1-0.4,0.2-0.8,0.2-1.2C74.3,102.7,72,100.5,69.3,100.5L69.3,100.5z"/>
	<path style="clip-path:url(#SVGID_00000076579369959455787790000014446203119725100423_);fill:#1A1A1A;" d="M69.3,96.1
		c-5.2,0-9.4,4.2-9.4,9.3c0,0.4,0,0.8,0.1,1.2h2c-0.1-0.4-0.1-0.8-0.1-1.2c0-4.1,3.3-7.4,7.4-7.4c4.1,0,7.4,3.3,7.4,7.4l0,0
		c0,0.4,0,0.8-0.1,1.2h2c0.1-0.4,0.1-0.8,0.1-1.2C78.8,100.3,74.6,96.1,69.3,96.1L69.3,96.1z"/>
	<path style="clip-path:url(#SVGID_00000076579369959455787790000014446203119725100423_);fill:#1A1A1A;" d="M80.2,59.4v1.9h10.2
		v17.9H80.2v1.9h12.1V59.4H80.2z"/>
	<path style="clip-path:url(#SVGID_00000076579369959455787790000014446203119725100423_);fill:#1A1A1A;" d="M80.2,79.3v1.9h36.6
		v7.3H80.2v1.9h38.6V79.3H80.2z"/>
	<path style="clip-path:url(#SVGID_00000076579369959455787790000014446203119725100423_);fill:#1A1A1A;" d="M48.8,88.7v18h1.9V90.6
		h61.3v16.1h1.9v-18L48.8,88.7z"/>
	<path style="clip-path:url(#SVGID_00000076579369959455787790000014446203119725100423_);fill:#1A1A1A;" d="M102.7,120.3v1.9h75.4
		c0.5,2.8,0.7,5.7,0.8,8.5c0,18-8.3,31.6-21.8,40.8s-32.3,13.9-53.1,13.9h-1.2v1.9h1.2c21.1,0,40.3-4.8,54.2-14.3
		s22.7-23.8,22.7-42.4l0,0c0-3.2-0.3-6.5-0.9-9.6l-0.1-0.8L102.7,120.3z"/>
	
		<rect x="12.1" y="57" style="clip-path:url(#SVGID_00000076579369959455787790000014446203119725100423_);fill:#1A1A1A;" width="38.7" height="4.8"/>
	
		<rect x="12" y="32.6" style="clip-path:url(#SVGID_00000076579369959455787790000014446203119725100423_);fill:#FFFFFF;" width="33.9" height="24.4"/>
	
		<rect x="12" y="40.6" style="clip-path:url(#SVGID_00000076579369959455787790000014446203119725100423_);fill:#EB5A53;" width="33.9" height="8.4"/>
	
		<rect x="11.9" y="28.5" style="clip-path:url(#SVGID_00000076579369959455787790000014446203119725100423_);fill:#1A1A1A;" width="4.8" height="33.3"/>
	<path style="clip-path:url(#SVGID_00000076579369959455787790000014446203119725100423_);fill:#FFFFFF;" d="M150.9,0h29h16v16
		c0,7,0,14,0,21c-10.2,12.4-28.6,14.2-41,4S140.6,12.4,150.9,0z"/>
	<g style="clip-path:url(#SVGID_00000076579369959455787790000014446203119725100423_);enable-background:new    ;">
		<text transform="matrix(1 0 0 1 159.92 31.7)" class="st21 st3 st22">19</text>
	</g>
</g>
</svg>
