<?xml version="1.0" encoding="utf-8"?>
<!-- Generator: Adobe Illustrator 26.0.3, SVG Export Plug-In . SVG Version: 6.00 Build 0)  -->
<svg version="1.1" id="Слой_1" xmlns="http://www.w3.org/2000/svg" xmlns:xlink="http://www.w3.org/1999/xlink" x="0px" y="0px"
	 viewBox="0 0 195.6 280.6" style="enable-background:new 0 0 195.6 280.6;" xml:space="preserve">
<style type="text/css">
	.st0{clip-path:url(#SVGID_00000170972061769068677090000004812357859060932993_);fill:#3A81C3;}
	.st1{clip-path:url(#SVGID_00000170972061769068677090000004812357859060932993_);}
	.st2{fill-rule:evenodd;clip-rule:evenodd;fill:#DC2D1A;}
	.st3{fill-rule:evenodd;clip-rule:evenodd;fill:#FFFFFF;}
	.st4{fill:#FFFFFF;}
	.st5{fill-rule:evenodd;clip-rule:evenodd;fill:#EAA518;}
	.st6{fill-rule:evenodd;clip-rule:evenodd;fill:#EAA518;stroke:#424242;stroke-width:0.75;stroke-miterlimit:10;}
	.st7{fill-rule:evenodd;clip-rule:evenodd;fill:#FFFFFF;stroke:#424242;stroke-width:0.75;stroke-miterlimit:10;}
	.st8{fill:#FFFFFF;stroke:#424242;stroke-width:0.75;stroke-miterlimit:10;}
	.st9{fill-rule:evenodd;clip-rule:evenodd;fill:#424242;}
	.st10{fill-rule:evenodd;clip-rule:evenodd;fill:#1D528D;}
	.st11{fill:#EAA518;stroke:#424242;stroke-width:0.75;stroke-miterlimit:10;}
	.st12{fill:#424242;}
	.st13{fill:none;stroke:#424242;stroke-width:0.75;stroke-miterlimit:10;}
	.st14{fill:none;stroke:#FFFFFF;stroke-width:0.75;stroke-miterlimit:10;}
	
		.st15{clip-path:url(#SVGID_00000170972061769068677090000004812357859060932993_);fill-rule:evenodd;clip-rule:evenodd;fill:#1D528D;}
	.st16{clip-path:url(#SVGID_00000170972061769068677090000004812357859060932993_);fill:#FFFFFF;}
	
		.st17{clip-path:url(#SVGID_00000170972061769068677090000004812357859060932993_);fill-rule:evenodd;clip-rule:evenodd;fill:#FECA0D;}
	
		.st18{clip-path:url(#SVGID_00000170972061769068677090000004812357859060932993_);fill-rule:evenodd;clip-rule:evenodd;fill:#FFFFFF;}
	.st19{clip-path:url(#SVGID_00000170972061769068677090000004812357859060932993_);enable-background:new    ;}
	.st20{fill:#1D528D;}
	.st21{font-family:'Impact';}
	.st22{font-size:22.08px;}
	.st23{font-size:20px;}
</style>
<g>
	<defs>
		<rect id="SVGID_1_" x="0" y="0" width="195.6" height="280.6"/>
	</defs>
	<clipPath id="SVGID_00000034785034324232816080000002246141769208311707_">
		<use xlink:href="#SVGID_1_"  style="overflow:visible;"/>
	</clipPath>
	
		<rect x="-9.3" y="-8.4" style="clip-path:url(#SVGID_00000034785034324232816080000002246141769208311707_);fill:#3A81C3;" width="214" height="297.9"/>
	<g id="layer5" style="clip-path:url(#SVGID_00000034785034324232816080000002246141769208311707_);">
		<path id="path1481" class="st2" d="M97.8,141c-7.7-7.7-24-12.1-35.7-18.5c-16.9-9.1-16-19.6-16-33.2V11.1h51.8
			C105.4,75.1,104.6,134.2,97.8,141z"/>
		<path id="path1483" class="st2" d="M98,141c7.7-7.7,24-12.1,35.7-18.5c16.9-9.1,16-19.6,16-33.2V11.1H97.9"/>
	</g>
	<g id="layer4" style="clip-path:url(#SVGID_00000034785034324232816080000002246141769208311707_);">
		<path id="path2505" class="st3" d="M46.6,101.8h102.5c1.1,22.3-40,27.3-51.2,39.1C87.2,130.2,45.9,124.1,46.6,101.8z"/>
		<g id="g2749">
			<path id="path2509" class="st3" d="M97.4,58.4l-25.7,46.4h28.8C99.6,89.2,102.2,60.1,97.4,58.4z"/>
			<path id="path2512" class="st3" d="M97.9,57.4l26.3,47.4H95.4C96.4,89.3,92.7,80.5,97.9,57.4z"/>
		</g>
		<rect id="rect2514" x="58.7" y="99.1" class="st4" width="7.1" height="5.9"/>
		<rect id="rect2520" x="129.9" y="99.2" class="st4" width="7.2" height="5.5"/>
		<rect id="rect2753" x="119.1" y="96.3" class="st4" width="14.4" height="9.8"/>
		<rect id="rect2755" x="62.3" y="95.9" class="st4" width="14.1" height="7.2"/>
	</g>
	<g id="layer3" style="clip-path:url(#SVGID_00000034785034324232816080000002246141769208311707_);">
		<g id="g3751">
			<path id="rect3705" class="st5" d="M98.6,41.9v15.8c-0.5-0.2-1.6,0.3-1.5-0.4V41.9H98.6z"/>
			<path id="rect2830" class="st5" d="M92.4,46.7h11.2c-0.1,0.5,0.3,1.5-0.3,1.5H92.4V46.7z"/>
			<g id="g2802">
				<path id="path2776" class="st6" d="M98.6,41.9c0.8,0.1,1.8-0.3,2.4,0.3c0.3,0.4,0.1,0.9-0.2,1.2c-0.2,0.1-0.5,0.2-0.8,0.1
					l-1.4,0"/>
				<path id="path2778" class="st6" d="M97.3,43.5c-0.8-0.1-1.8,0.3-2.4-0.3c-0.5-0.9,0.4-1.5,1.2-1.3h2.7"/>
				<path id="path2780" class="st6" d="M98.7,43.2v3.7 M97.1,57.7c0-3.2,0-6.5,0-9.8 M98.6,48v9.7 M97.2,46.8v-3.5"/>
			</g>
			<path id="path2812" class="st6" d="M103.5,48.1c-0.1,0.8,0.3,1.8-0.3,2.5c-0.4,0.3-0.9,0.2-1.2-0.2c-0.2-0.3-0.2-0.6-0.1-0.9
				v-1.4"/>
			<path id="path2814" class="st6" d="M102,46.9c0.1-0.8-0.3-1.9,0.3-2.5c0.4-0.3,0.9-0.1,1.2,0.3c0.2,0.2,0.2,0.5,0.1,0.8
				c0,1.1,0,2.2,0,3.3"/>
			<path id="path2816" class="st6" d="M102.1,48.2h-3.5 M98.6,46.7l3.6,0.1"/>
			<path id="path2822" class="st6" d="M92.3,48.1c0.1,0.8-0.3,1.8,0.3,2.5c0.4,0.3,0.9,0.2,1.2-0.2c0.2-0.3,0.2-0.6,0.1-0.9v-1.4"/>
			<path id="path2824" class="st6" d="M93.9,46.8c-0.1-0.8,0.3-1.8-0.3-2.5c-0.9-0.5-1.5,0.4-1.3,1.3v2.9"/>
			<path id="path2826" class="st6" d="M93.8,48.2h3.6 M97.3,46.7l-3.6,0.1"/>
		</g>
		<g id="g2646">
			<path id="rect2611" class="st7" d="M62.2,99.3V52.8h14.3v43.9"/>
			<path id="rect2617" class="st8" d="M62.1,68.7h14.4c0.6,0,1,0.5,1,1v0.8c0,0.6-0.5,1-1,1H62.1c-0.6,0-1-0.5-1-1v-0.8
				C61.1,69.2,61.5,68.7,62.1,68.7z"/>
			<path id="rect2619" class="st8" d="M62.1,74.5h14.4c0.6,0,1,0.5,1,1v0.8c0,0.6-0.5,1-1,1H62.1c-0.6,0-1-0.5-1-1v-0.8
				C61.1,74.9,61.5,74.5,62.1,74.5z"/>
			<path id="rect2621" class="st8" d="M62.1,80.2h14.4c0.6,0,1,0.5,1,1v0.8c0,0.6-0.5,1-1,1H62.1c-0.6,0-1-0.5-1-1v-0.8
				C61.1,80.7,61.5,80.2,62.1,80.2z"/>
			<g id="g2625">
				<path id="rect2593" class="st9" d="M64.2,57.9c0-3.3,4.4-3.3,4.5,0v7.9h-4.3L64.2,57.9z"/>
				<path id="path2623" class="st9" d="M69.9,57.9c0-3.3,4.4-3.3,4.5,0v7.9h-4.3L69.9,57.9z"/>
			</g>
			<g id="g2629">
				<path id="path2631" class="st9" d="M64.2,87c0-3.3,4.4-3.3,4.5,0v7.9h-4.3L64.2,87z"/>
				<path id="path2633" class="st9" d="M69.9,87c0-3.3,4.4-3.3,4.5,0v7.9h-4.3L69.9,87z"/>
			</g>
			<path id="path2635" class="st7" d="M62.1,53.7l-2-4.1h18.4l-2,4.1H62.1z"/>
			<path id="path2637" class="st10" d="M59.9,49.6l9.4-21.6l9.4,21.6H59.9z"/>
			<path id="rect2639" class="st11" d="M68.8,26.7h1c0.6,0,1,0.5,1,1v0.1c0,0.6-0.5,1-1,1h-1c-0.6,0-1-0.5-1-1v-0.1
				C67.8,27.2,68.2,26.7,68.8,26.7z"/>
		</g>
		<g id="g2661">
			<path id="rect2663" class="st7" d="M119.4,96.2V52.8h14.2v46.4"/>
			<path id="rect2665" class="st8" d="M119.3,68.7h14.4c0.6,0,1,0.5,1,1v0.8c0,0.6-0.5,1-1,1h-14.4c-0.6,0-1-0.5-1-1v-0.8
				C118.3,69.2,118.8,68.7,119.3,68.7z"/>
			<path id="rect2667" class="st8" d="M119.3,74.5h14.4c0.6,0,1,0.5,1,1v0.8c0,0.6-0.5,1-1,1h-14.4c-0.6,0-1-0.5-1-1v-0.8
				C118.3,74.9,118.8,74.5,119.3,74.5z"/>
			<path id="rect2669" class="st8" d="M119.3,80.2h14.4c0.6,0,1,0.5,1,1v0.8c0,0.6-0.5,1-1,1h-14.4c-0.6,0-1-0.5-1-1v-0.8
				C118.3,80.7,118.8,80.2,119.3,80.2z"/>
			<g id="g2671">
				<path id="path2673" class="st9" d="M121.5,57.9c0-3.3,4.4-3.3,4.5,0v7.9h-4.3L121.5,57.9z"/>
				<path id="path2675" class="st9" d="M127.2,57.9c0-3.3,4.4-3.3,4.5,0v7.9h-4.3L127.2,57.9z"/>
			</g>
			<g id="g2677">
				<path id="path2679" class="st9" d="M121.5,87c0-3.3,4.4-3.3,4.5,0v7.9h-4.3L121.5,87z"/>
				<path id="path2681" class="st9" d="M127.2,87c0-3.3,4.4-3.3,4.5,0v7.9h-4.3L127.2,87z"/>
			</g>
			<path id="path2683" class="st7" d="M119.3,53.7l-2-4.1h18.5l-2.1,4.1H119.3z"/>
			<path id="path2685" class="st10" d="M117.2,49.6l9.4-21.6l9.4,21.6H117.2z"/>
			<path id="rect2687" class="st11" d="M126,26.7h1c0.6,0,1,0.5,1,1v0.1c0,0.6-0.5,1-1,1h-1c-0.6,0-1-0.5-1-1v-0.1
				C125,27.2,125.4,26.7,126,26.7z"/>
		</g>
		<g id="g2491">
			<path id="path2428" class="st8" d="M97.8,78.6c-1.6,0.1-3.2,0.9-3.2,2.5c-1.4-0.8-3,0.2-3.8,1.7s-1,3.2,0.4,4
				c-1.4,0.9-1.3,2.8-0.4,4.2s2.2,2.3,3.7,1.6c0.1,1.6,1.8,2.6,3.4,2.6s3.2-0.8,3.2-2.5c1.4,0.8,3.1-0.2,3.9-1.7s0.7-3.2-0.7-4.1
				c1.4-0.9,1.5-2.7,0.7-4.1s-2.3-2.3-3.7-1.6c0-1.6-1.8-2.6-3.4-2.6L97.8,78.6z"/>
			<path id="path2360" class="st12" d="M96.3,87.7c0.7,1.3,0.3,2.9-1,3.6s-2.9,0.3-3.6-1c-0.7-1.3-0.3-2.9,1-3.6
				C94,86,95.6,86.4,96.3,87.7C96.3,87.7,96.3,87.7,96.3,87.7z"/>
			<path id="path2362" class="st12" d="M104.1,83.2c0.7,1.3,0.3,2.9-1,3.6c-1.3,0.7-2.9,0.3-3.6-1c-0.7-1.3-0.3-2.9,1-3.6
				C101.7,81.5,103.3,82,104.1,83.2C104,83.2,104,83.2,104.1,83.2z"/>
			<path id="path2394" class="st12" d="M97.9,88.6c1.5,0,2.6,1.2,2.6,2.6c0,1.5-1.2,2.6-2.6,2.6s-2.6-1.2-2.6-2.6c0,0,0,0,0,0
				C95.3,89.8,96.4,88.6,97.9,88.6z"/>
			<path id="path2396" class="st12" d="M97.9,79.7c1.5,0,2.6,1.2,2.6,2.6c0,1.5-1.2,2.6-2.6,2.6s-2.6-1.2-2.6-2.6c0,0,0,0,0,0
				C95.3,80.9,96.4,79.7,97.9,79.7z"/>
			<path id="path2400" class="st12" d="M99.5,87.7c-0.7,1.3-0.3,2.9,1,3.6s2.9,0.3,3.6-1c0.7-1.3,0.3-2.9-1-3.6
				C101.8,86,100.2,86.4,99.5,87.7C99.5,87.7,99.5,87.7,99.5,87.7z"/>
			<path id="path2402" class="st12" d="M91.8,83.2c-0.7,1.3-0.3,2.9,1,3.6c1.3,0.7,2.9,0.3,3.6-1c0.7-1.3,0.3-2.9-1-3.6
				C94.2,81.5,92.6,81.9,91.8,83.2C91.8,83.2,91.8,83.2,91.8,83.2z"/>
			<path id="path2406" class="st12" d="M97.9,84.2c1.5,0,2.6,1.2,2.6,2.6s-1.2,2.6-2.6,2.6c-1.5,0-2.6-1.2-2.6-2.6v0
				C95.3,85.3,96.4,84.2,97.9,84.2z"/>
		</g>
		<path id="path2487" class="st13" d="M91.7,77.8c1.8-1.3,4-1.9,6.2-1.9c2.4-0.1,4.7,0.6,6.6,2.1 M108.7,85.9c0,0.3,0,0.6,0,0.9
			c0,6-4.9,10.9-10.9,10.9s-10.9-4.9-10.9-10.9c0-0.3,0-0.6,0.1-0.9"/>
		<path id="path2489" class="st13" d="M107.8,86.8c0,5.5-4.5,10-10,10s-10-4.5-10-10l0,0c0-5.5,4.5-10,10-10S107.8,81.3,107.8,86.8z
			"/>
		<path id="path2530" class="st13" d="M47.8,106.2h100.7"/>
		<path id="path2532" class="st13" d="M48.2,108.3h99.4"/>
		<path id="path2534" class="st13" d="M53,115.8h89.9"/>
		<path id="path2536" class="st13" d="M64,123.3h68"/>
		<path id="path2538" class="st13" d="M46.5,102h12.2v-2.8h7.1v2.8h7.1v-2.8h7.1v2.8h7.1v-2.8h7.1v2.8h7.1v-2.8h7.1v2.8h7.1v-2.8
			h7.1v2.8h7.1v-2.8h7.1v2.8h12.1"/>
		<path id="path2540" class="st13" d="M62.2,108.3l0.2,7.3"/>
		<path id="path2543" class="st13" d="M134.6,108.3l0.2,7.3"/>
		<path id="path2545" class="st13" d="M126,108.3l0.2,7.3"/>
		<path id="path2547" class="st13" d="M117.4,108.3l0.2,7.3"/>
		<path id="path2549" class="st13" d="M71.2,108.3l0.2,7.3"/>
		<path id="path2551" class="st13" d="M80.1,108.3l0.2,7.3"/>
		<path id="path2553" class="st13" d="M89.1,108.3l0.2,7.3"/>
		<path id="path2555" class="st13" d="M108.9,108.3l0.2,7.3"/>
		<path id="path2557" class="st13" d="M66.7,115.9l0.2,7.3"/>
		<path id="path2559" class="st13" d="M75.6,115.9l0.2,7.3"/>
		<path id="path2561" class="st13" d="M121.7,115.8l0.2,7.3"/>
		<path id="path2563" class="st13" d="M130.3,115.7l0.2,7.3"/>
		<path id="path2565" class="st13" d="M71.4,123.1l0.2,3.8"/>
		<path id="path2567" class="st13" d="M80.4,123.2l0.2,7.3"/>
		<path id="path2569" class="st13" d="M126.1,123.1l0.2,3"/>
		<path id="path2571" class="st13" d="M117.6,123.2l0.2,6.5"/>
		<path id="path2575" class="st13" d="M121,99.4L97.9,57.7L75,99.2"/>
		<path id="path2577" class="st13" d="M118.7,99.4L97.9,61.8L77.2,99.4"/>
		<path id="path2579" class="st13" d="M116.2,99.4l-7.5-13.7 M87.1,86l-7.3,13.2 M104.2,77.8l-6.3-11.4l-6.3,11.4"/>
		<path id="path2584" class="st7" d="M84.3,132.4v-10.2c-0.2-7.5,5.7-13.8,13.3-14c7.5-0.2,13.8,5.7,14,13.3c0,0.2,0,0.5,0,0.7v10.2
			"/>
		<path id="path2587" class="st13" d="M86.8,133.7v-11.5c0-6.1,5-11.1,11.1-11.1s11.1,5,11.1,11.1v11.6"/>
		<path id="path2597" class="st9" d="M90.6,121.3c-0.1-5.4,7.3-5.5,7.4,0l0.2,19.8c-2.2-2.2-4.7-4-7.5-5.3V121.3z"/>
		<path id="path2599" class="st9" d="M97.8,121.3c0-5.4,7.3-5.5,7.4,0v14.5c-2.5,1.6-5,3.4-7.4,5.3V121.3z"/>
		<path id="path2601" class="st9" d="M94.2,117.8c0-5.4,7.3-5.4,7.4,0v12.9h-7.4V117.8z"/>
		<path id="rect2757" class="st11" d="M96.4,57.5h3.1c0.6,0,1,0.5,1,1v0.3c0,0.6-0.5,1-1,1h-3.1c-0.6,0-1-0.5-1-1v-0.3
			C95.3,57.9,95.8,57.5,96.4,57.5z"/>
	</g>
	<g id="layer2" style="clip-path:url(#SVGID_00000034785034324232816080000002246141769208311707_);">
		<path id="path3989" class="st14" d="M97.8,141c-7.7-7.7-24-12.1-35.7-18.5c-16.9-9.1-16-19.6-16-33.2V11.1h51.8"/>
		<path id="path1478" class="st14" d="M98,141c7.7-7.7,24-12.1,35.7-18.5c16.9-9.1,16-19.6,16-33.2V11.1H97.9"/>
	</g>
	
		<path id="_50117184-1" style="clip-path:url(#SVGID_00000034785034324232816080000002246141769208311707_);fill-rule:evenodd;clip-rule:evenodd;fill:#1D528D;" d="
		M147.9,171.7c-28.2-26.2-71.8-26.2-100,0V268h100V171.7z"/>
	<path id="path3826" style="clip-path:url(#SVGID_00000034785034324232816080000002246141769208311707_);fill:#FFFFFF;" d="
		M147.9,196.4h-0.2c-1.2,0.1-2.9,1-4.9,2.2c-3.1,1.8-6.7,3.9-11.1,3.9c-3.8,0-6.4-1.6-9-3.3c-2.2-1.4-4.5-2.9-7.6-2.8
		s-4.9,1.4-6.8,2.7c-2.4,1.6-4.8,3.3-9.2,3.4s-7-1.6-9.7-3.4c-2.2-1.4-4.4-2.8-7.4-2.7s-4.9,1.3-6.9,2.6c-2.4,1.6-4.9,3.3-9.3,3.3
		c-4.6,0.1-7.6-1.8-10.3-3.5c-2-1.3-4-2.5-6.3-2.5c-0.4,0-0.8,0-1.2,0.1v-6.1h0.6c2.4,0,4.3,1.2,6.3,2.5c2.8,1.7,5.7,3.5,10.3,3.5
		c4.4-0.1,6.9-1.7,9.3-3.3c2-1.3,3.9-2.6,6.9-2.6s5.2,1.3,7.4,2.7c2.7,1.7,5.4,3.4,9.7,3.3s6.8-1.8,9.2-3.4c1.9-1.3,3.8-2.6,6.8-2.7
		s5.4,1.4,7.6,2.8c2.6,1.6,5.1,3.2,9,3.3c4.4,0,8-2.1,11.1-3.9c1.9-1.1,3.6-2.1,4.9-2.2h0.8L147.9,196.4L147.9,196.4z"/>
	<path id="path3824" style="clip-path:url(#SVGID_00000034785034324232816080000002246141769208311707_);fill:#FFFFFF;" d="
		M147.9,171.7l-0.3-0.3h-0.1c-2,0.1-4.1,1.3-6.3,2.6c-2.8,1.6-6,3.5-9.5,3.4c-2.9,0-5.1-1.4-7.2-2.8c-2.7-1.7-5.3-3.4-9.4-3.3
		s-6.3,1.6-8.6,3.2c-2,1.4-4,2.8-7.4,2.8s-5.7-1.4-7.9-2.8c-2.6-1.6-5.2-3.3-9.2-3.2s-6.3,1.6-8.7,3.1c-2,1.4-4.1,2.7-7.6,2.8
		c-3.7,0.1-6.2-1.5-8.5-3s-4.7-3-8-3h-1l-0.3,0.2v5.2h0.6c2.4,0,4.3,1.2,6.3,2.5c2.8,1.7,5.7,3.6,10.3,3.5c4.4-0.1,6.9-1.7,9.3-3.3
		c2-1.3,3.9-2.6,6.9-2.6s5.2,1.3,7.4,2.7c2.7,1.7,5.4,3.4,9.7,3.3s6.8-1.8,9.2-3.4c1.9-1.3,3.8-2.6,6.8-2.7s5.4,1.4,7.6,2.8
		c2.6,1.6,5.1,3.2,9,3.3c4.4,0,8-2.1,11.1-3.9c1.9-1.1,3.6-2.1,4.9-2.2h0.8V171.7L147.9,171.7z"/>
	<path id="_160033752" style="clip-path:url(#SVGID_00000034785034324232816080000002246141769208311707_);fill:#FFFFFF;" d="
		M48,180.5v6.3h0.7c3.3,0,5.6,1.4,8,3s4.9,3,8.5,3c3.5,0,5.6-1.4,7.6-2.8c2.3-1.6,4.7-3.1,8.7-3.1s6.5,1.5,9.2,3.2
		c2.3,1.4,4.6,2.9,7.9,2.8s5.4-1.5,7.4-2.8c2.3-1.6,4.6-3.2,8.6-3.2s6.8,1.6,9.4,3.3c2.2,1.4,4.3,2.8,7.2,2.8c3.5,0,6.7-1.9,9.5-3.5
		c2.3-1.4,4.3-2.5,6.3-2.6h0.9v-6.3h-0.8c-1.2,0.1-2.9,1.1-4.9,2.2c-3.1,1.8-6.7,3.9-11.1,3.9c-3.8,0-6.4-1.6-9-3.3
		c-2.2-1.4-4.5-2.9-7.6-2.8s-4.9,1.4-6.8,2.7c-2.4,1.6-4.8,3.3-9.2,3.4s-7.1-1.6-9.7-3.3c-2.2-1.4-4.4-2.8-7.4-2.7s-4.9,1.3-6.9,2.6
		c-2.4,1.6-4.9,3.3-9.3,3.3c-4.6,0.1-7.6-1.8-10.3-3.5c-2-1.3-4-2.5-6.3-2.5L48,180.5z"/>
	
		<path id="_160033320" style="clip-path:url(#SVGID_00000034785034324232816080000002246141769208311707_);fill-rule:evenodd;clip-rule:evenodd;fill:#FECA0D;" d="
		M59,213.6h78c-7.2-5.2-15.1-9-24.3-8.3c-8,0.6-12.6,3.7-14.7,7.8c-2.1-4.1-6.7-7.2-14.7-7.8C74.1,204.6,66.2,208.4,59,213.6
		L59,213.6z"/>
	
		<path id="_160034136" style="clip-path:url(#SVGID_00000034785034324232816080000002246141769208311707_);fill-rule:evenodd;clip-rule:evenodd;fill:#FECA0D;" d="
		M98,228.6c-0.5,1.7-1.1,3.3-1.9,4.9c0.5,1.9,1.1,3.7,1.9,5.5c0.7-1.8,1.4-3.7,1.9-5.5C99.1,231.9,98.5,230.3,98,228.6z"/>
	
		<path id="_159703344" style="clip-path:url(#SVGID_00000034785034324232816080000002246141769208311707_);fill-rule:evenodd;clip-rule:evenodd;fill:#FFFFFF;" d="
		M98.4,240.1c0.8,2.1,1.7,4.2,2.8,6.2c1-2,1.8-4,2.6-6.1c-1.3-1.8-2.4-3.6-3.5-5.5C99.8,236.5,99.1,238.3,98.4,240.1z"/>
	
		<path id="_159703128" style="clip-path:url(#SVGID_00000034785034324232816080000002246141769208311707_);fill-rule:evenodd;clip-rule:evenodd;fill:#FFFFFF;" d="
		M111.5,222.6c3.2,8.1,3.7,18.7,2.5,27.8c-3.2-3.1-6.1-6.5-8.8-10.1c1.7-4.3,2.4-9,2.2-13.6c-0.4-4.6-3.3-8.1-7.5-7
		c0.7-0.6,0.1-0.7,2.4-1.5S110.1,218.8,111.5,222.6z"/>
	
		<path id="_159702384" style="clip-path:url(#SVGID_00000034785034324232816080000002246141769208311707_);fill-rule:evenodd;clip-rule:evenodd;fill:#FFFFFF;" d="
		M101.4,248.9c1.2,1.9,2.4,3.8,3.6,5.5c0.9-3.1,1.6-6.3,2.1-9.5c-0.8-1-1.6-2.1-2.4-3.1C103.7,244.2,102.6,246.6,101.4,248.9z
		 M93.4,226.6c-0.1,0.6-0.1,1.2,0,1.8C93.4,227.8,93.4,227.2,93.4,226.6L93.4,226.6z"/>
	
		<path id="_160035048" style="clip-path:url(#SVGID_00000034785034324232816080000002246141769208311707_);fill-rule:evenodd;clip-rule:evenodd;fill:#FFFFFF;" d="
		M115.9,236.7c2.7,2.2,5.5,4.2,8.4,6c-1.8-12.5-4.9-19.2-10.2-23.6c-2.5-2.1-6.8-3-9.6-1.8c3.3,0,6.4,1.8,8,4.7
		C114.7,226.1,115.6,231.4,115.9,236.7L115.9,236.7z"/>
	
		<path id="_159703440" style="clip-path:url(#SVGID_00000034785034324232816080000002246141769208311707_);fill-rule:evenodd;clip-rule:evenodd;fill:#FFFFFF;" d="
		M104.3,238.9c-2.2-3.1-4-6.5-5.5-10.1c-0.2-0.6-0.6-1.5-0.8-2.1c0.3-1.3,0.3-2.6,0.1-3.9c0.4-2.3,3-3.1,5-1.9c2,1.4,3.1,3.7,3,6.1
		C106.1,231.1,105.4,235.1,104.3,238.9L104.3,238.9z"/>
	
		<path id="_159703656" style="clip-path:url(#SVGID_00000034785034324232816080000002246141769208311707_);fill-rule:evenodd;clip-rule:evenodd;fill:#FFFFFF;" d="
		M97.5,240.1c-0.8,2.1-1.7,4.2-2.8,6.2c-1-2-1.8-4-2.6-6.1c1.3-1.8,2.4-3.6,3.5-5.5C96.1,236.5,96.8,238.3,97.5,240.1z"/>
	
		<path id="_160109872" style="clip-path:url(#SVGID_00000034785034324232816080000002246141769208311707_);fill-rule:evenodd;clip-rule:evenodd;fill:#FFFFFF;" d="
		M84.4,222.6c-3.2,8.1-3.7,18.7-2.5,27.8c3.2-3.1,6.1-6.5,8.8-10.1c-1.7-4.3-2.4-9-2.2-13.6c0.4-4.6,3.3-8.1,7.5-7
		c-0.7-0.6-0.1-0.7-2.4-1.5S85.8,218.9,84.4,222.6L84.4,222.6z"/>
	
		<path id="_159703848" style="clip-path:url(#SVGID_00000034785034324232816080000002246141769208311707_);fill-rule:evenodd;clip-rule:evenodd;fill:#FFFFFF;" d="
		M98,241.6c-0.9,2.4-2,4.7-3.2,7c0.9,2.7,2,5.4,3.2,8c1.2-2.6,2.3-5.3,3.2-8C100,246.3,98.9,244,98,241.6z"/>
	
		<path id="_160110304" style="clip-path:url(#SVGID_00000034785034324232816080000002246141769208311707_);fill-rule:evenodd;clip-rule:evenodd;fill:#FFFFFF;" d="
		M94.5,248.9c-1.2,1.9-2.4,3.8-3.6,5.5c-0.9-3.1-1.6-6.3-2.1-9.5c0.8-1,1.6-2.1,2.4-3.1C92.1,244.2,93.2,246.6,94.5,248.9z"/>
	
		<path id="_160136120" style="clip-path:url(#SVGID_00000034785034324232816080000002246141769208311707_);fill-rule:evenodd;clip-rule:evenodd;fill:#FFFFFF;" d="
		M80,236.7c-2.7,2.2-5.5,4.2-8.4,6c1.8-12.5,4.9-19.2,10.2-23.6c2.5-2.1,6.8-3,9.6-1.8c-3.3,0-6.4,1.8-8,4.7
		C81.2,226.1,80.3,231.4,80,236.7L80,236.7z"/>
	
		<path id="_159703368" style="clip-path:url(#SVGID_00000034785034324232816080000002246141769208311707_);fill-rule:evenodd;clip-rule:evenodd;fill:#FFFFFF;" d="
		M98,221c-0.4-2.5-2.1-4.6-4.5-5.5h-0.1h9.1h-0.1C100.1,216.4,98.4,218.5,98,221z"/>
	
		<path id="_160110016" style="clip-path:url(#SVGID_00000034785034324232816080000002246141769208311707_);fill-rule:evenodd;clip-rule:evenodd;fill:#FFFFFF;" d="
		M91.6,238.9c2.2-3.1,4-6.5,5.4-10.1c0.2-0.6,0.6-1.5,0.8-2.1c-0.3-1.3-0.3-2.6-0.1-3.9c-0.4-2.3-3-3.1-5-1.9c-2,1.4-3.1,3.7-3,6.1
		C89.8,231.1,90.4,235.1,91.6,238.9z"/>
	<path style="clip-path:url(#SVGID_00000034785034324232816080000002246141769208311707_);fill:#FFFFFF;" d="M79.9,99.6
		c-12.6,0-22.9,10.2-22.9,30.5c0,25.4,18.2,50.9,40.7,50.9s40.7-25.4,40.7-50.9c0-20.3-10.2-30.5-22.9-30.5
		c-6.9,0-13.5,3.1-17.8,8.5C93.3,102.8,86.8,99.6,79.9,99.6z"/>
	<path style="clip-path:url(#SVGID_00000034785034324232816080000002246141769208311707_);fill:#FFFFFF;" d="M30.3,112.8H165
		c3,0,5.5,2.4,5.5,5.5v44c0,3-2.4,5.5-5.5,5.5H30.3c-3,0-5.5-2.4-5.5-5.5v-44C24.9,115.3,27.3,112.8,30.3,112.8z"/>
	<g style="clip-path:url(#SVGID_00000034785034324232816080000002246141769208311707_);enable-background:new    ;">
		<text transform="matrix(1 0 0 1 72.67 136.5699)" class="st20 st21 st22">Płock</text>
	</g>
	<g style="clip-path:url(#SVGID_00000034785034324232816080000002246141769208311707_);enable-background:new    ;">
		<text transform="matrix(1 0 0 1 44.99 159.4)" class="st20 st21 st22">Navapołack</text>
	</g>
	<path style="clip-path:url(#SVGID_00000034785034324232816080000002246141769208311707_);fill:#FFFFFF;" d="M44.9,0h-29h-16L0,16
		c0,7,0,14,0,21c10.5,12.2,28.9,13.5,41,3C52.8,29.9,54.5,12.2,44.9,0z"/>
	<g style="clip-path:url(#SVGID_00000034785034324232816080000002246141769208311707_);enable-background:new    ;">
		<text transform="matrix(1 0 0 1 15.51 31.75)" class="st20 st21 st23">36</text>
	</g>
</g>
</svg>
