<svg id="Слой_1" data-name="Слой 1" xmlns="http://www.w3.org/2000/svg" viewBox="0 0 195.59 280.63"><defs><style>.cls-1{font-size:54.62px;}.cls-1,.cls-2{fill:#9f313a;}.cls-1,.cls-15{font-family:Impact;}.cls-3{fill:#1a1a1a;}.cls-15,.cls-4{fill:#fff;}.cls-5{fill:#af1739;}.cls-6{fill:#eb5775;}.cls-7{fill:#badbe9;}.cls-8{fill:#8bb0cc;}.cls-9{fill:#f293a2;}.cls-10{fill:#595959;}.cls-11{fill:#797979;}.cls-12{fill:#3e3e3e;}.cls-13{fill:#eb5a53;}.cls-14{fill:none;}.cls-15{font-size:20px;}</style></defs><text class="cls-1" transform="translate(36.64 262.59)">łotwa</text><path class="cls-2" d="M8.93,211.19c4.43,0,6.68-3.76,7.42-5a31.56,31.56,0,0,0,3-7.6c.56-2,1.05-4.21,1.45-6.5a64,64,0,0,0,16.28,0,64.6,64.6,0,0,0,1.44,6.5,31.39,31.39,0,0,0,3,7.6c.74,1.23,3,5,7.43,5s6.68-3.76,7.42-5a31.56,31.56,0,0,0,3.05-7.6,71.58,71.58,0,0,0,2.41-15,64.89,64.89,0,0,0,27.35-31.79l.44.34a10.22,10.22,0,0,0,6,2.33,7.28,7.28,0,0,0,2.79-.56l.31-.14a7.35,7.35,0,0,0,1.68.2,10.25,10.25,0,0,0,6-2.32l.42-.33A64.64,64.64,0,0,0,134.1,183a71.56,71.56,0,0,0,2.4,14.9,31.31,31.31,0,0,0,3,7.57c.74,1.23,3,5,7.4,5s6.66-3.74,7.4-5a31.31,31.31,0,0,0,3-7.57,64.36,64.36,0,0,0,1.44-6.46,63.27,63.27,0,0,0,16.19,0,64.36,64.36,0,0,0,1.44,6.46,30.91,30.91,0,0,0,3,7.57c.73,1.23,3,5,7.4,5s6.66-3.74,7.4-5a31.31,31.31,0,0,0,3-7.57,71.67,71.67,0,0,0,2.4-14.9,64.79,64.79,0,0,0,26.72-30.42l.16.15a9.69,9.69,0,0,0,6.41,2.93,7.24,7.24,0,0,0,2.11-.31c4.24-1.28,5.3-5.51,5.64-6.91a30.84,30.84,0,0,0,.72-8.12,71.45,71.45,0,0,0-2.87-18.13c-1.73-5.68-4.32-9.68-7.71-11.87a11,11,0,0,0-1.8-.95,65,65,0,0,0-30.45-38.49A22.2,22.2,0,0,0,199,66.8a21.7,21.7,0,0,0-6.1-15.46c-4.5-4.54-11.14-7.16-19.73-7.79-3.59-.26-6.95-.39-10.21-.51-2.22-.08-4.4-.16-6.58-.28a86.71,86.71,0,0,1-16.15-2.23L129.62,38,132.24,45a90.38,90.38,0,0,1-10.34-2.57L113,39.33l1.23,9.39a46.57,46.57,0,0,0,13.29,27.21,64.7,64.7,0,0,0-23.07,34.31A21.53,21.53,0,0,0,98,119a21.27,21.27,0,0,0-6.32-8.38A65,65,0,0,0,68.51,76.1,46.69,46.69,0,0,0,81.86,48.78l1.24-9.41-9,3.14a93.7,93.7,0,0,1-10.35,2.57L66.42,38,55.76,40.57A87.1,87.1,0,0,1,39.58,42.8c-2.2.13-4.36.21-6.66.29-3.26.12-6.64.24-10.25.51-8.62.63-15.28,3.27-19.81,7.82A21.82,21.82,0,0,0-3.26,66.94,22.5,22.5,0,0,0-2.88,71,65.22,65.22,0,0,0-33.47,109.7a11.14,11.14,0,0,0-1.81,1c-3.4,2.2-6,6.21-7.73,11.92a71.57,71.57,0,0,0-2.89,18.2,31.17,31.17,0,0,0,.72,8.16c.35,1.4,1.41,5.64,5.66,6.93a7.24,7.24,0,0,0,2.11.31h0A9.75,9.75,0,0,0-31,153.23l.17-.16A65.11,65.11,0,0,0-4,183.63a72.24,72.24,0,0,0,2.41,15,31.14,31.14,0,0,0,3.06,7.6C2.24,207.43,4.49,211.19,8.93,211.19Z"/><path class="cls-3" d="M-40.3,123.39c1.64-5.41,3.91-8.65,6.56-10.36a8.87,8.87,0,0,1,2.61-1.14A62.38,62.38,0,0,1,.39,72.49a19.24,19.24,0,0,1-.81-5.55,18.9,18.9,0,0,1,5.3-13.52c3.81-3.84,9.73-6.38,18-7,6-.45,11.43-.49,16.86-.8a89.82,89.82,0,0,0,16.69-2.31L61.91,42l-2,5.3-.49,1.29a88.44,88.44,0,0,0,15.62-3.39l4.61-1.62-.64,4.84a43.69,43.69,0,0,1-15,28,62.3,62.3,0,0,1,25.16,35.95c2.52,1.56,4.86,4.47,6.84,9.25.72,1.73,1.38,3.62,2,5.56a61.63,61.63,0,0,1,2.09-5.94c2-4.75,4.3-7.64,6.81-9.2A62.11,62.11,0,0,1,132,76.19a43.56,43.56,0,0,1-14.93-27.84l-.63-4.82L121,45.14a88.61,88.61,0,0,0,15.55,3.39l-.48-1.3-2-5.26,5.46,1.32a90.19,90.19,0,0,0,16.66,2.3c5.39.3,10.76.35,16.75.79,8.23.6,14.13,3.14,17.92,7A18.84,18.84,0,0,1,196.2,66.8a19.1,19.1,0,0,1-.81,5.53,62.06,62.06,0,0,1,31.38,39.23,8.71,8.71,0,0,1,2.6,1.14c2.64,1.7,4.9,4.93,6.53,10.31a68.68,68.68,0,0,1,2.76,17.37,28.78,28.78,0,0,1-.64,7.38c-.52,2.1-1.45,4.19-3.71,4.88s-4.19-.55-5.79-2a23,23,0,0,1-3-3.47A62.16,62.16,0,0,1,197,181.32a69,69,0,0,1-2.36,15.81,28.5,28.5,0,0,1-2.75,6.89c-1.11,1.85-2.6,3.59-5,3.59s-3.86-1.74-5-3.59a28.92,28.92,0,0,1-2.74-6.89,67.16,67.16,0,0,1-1.8-8.91,61.35,61.35,0,0,1-20.94,0,65.61,65.61,0,0,1-1.79,8.91,28.92,28.92,0,0,1-2.74,6.89c-1.11,1.85-2.61,3.59-5,3.59s-3.85-1.74-5-3.59a28.92,28.92,0,0,1-2.74-6.89,69,69,0,0,1-2.36-15.81,62.14,62.14,0,0,1-28.82-35,22.87,22.87,0,0,1-3.29,3.1c-1.74,1.29-3.79,2.32-6,1.42l-.3-.16a4.22,4.22,0,0,1-1.09.66c-2.19.91-4.24-.13-6-1.43a23.06,23.06,0,0,1-3.31-3.11A62.4,62.4,0,0,1,59.16,182a69.06,69.06,0,0,1-2.37,15.88A28.5,28.5,0,0,1,54,204.74c-1.11,1.87-2.61,3.61-5,3.61s-3.88-1.74-5-3.61a28.5,28.5,0,0,1-2.76-6.91,67.45,67.45,0,0,1-1.8-9,61.21,61.21,0,0,1-21,0,64.39,64.39,0,0,1-1.8,9,28.92,28.92,0,0,1-2.75,6.91c-1.12,1.87-2.62,3.61-5,3.61s-3.87-1.74-5-3.61a28.91,28.91,0,0,1-2.76-6.91A69.06,69.06,0,0,1-1.19,182a62.41,62.41,0,0,1-28.65-34.31,23.27,23.27,0,0,1-3,3.49c-1.61,1.47-3.55,2.7-5.82,2s-3.2-2.79-3.73-4.9a28.61,28.61,0,0,1-.63-7.41A68.84,68.84,0,0,1-40.3,123.39Z"/><path class="cls-2" d="M179,179.72c0-10.61,4.67-12.73,7.9-12.73s7.9,2.12,7.9,12.73-3.54,25.68-7.9,25.68-7.9-15.07-7.9-25.68Zm0,0"/><path class="cls-3" d="M186.89,164.79A9,9,0,0,0,180,168c-2,2.4-3.26,6.14-3.26,11.77a68.34,68.34,0,0,0,2.4,17.42,29,29,0,0,0,2.74,6.88c1.11,1.85,2.61,3.59,5,3.59s3.85-1.74,5-3.59a28.58,28.58,0,0,0,2.75-6.88A68.77,68.77,0,0,0,197,179.72c0-5.63-1.23-9.37-3.26-11.77a9,9,0,0,0-6.84-3.16Zm0,4.41a4.25,4.25,0,0,1,3.48,1.6c1.11,1.32,2.21,3.94,2.21,8.92a65.26,65.26,0,0,1-2.23,16.22,25.38,25.38,0,0,1-2.28,5.81,4.69,4.69,0,0,1-1.18,1.41,4.64,4.64,0,0,1-1.19-1.41,25.85,25.85,0,0,1-2.28-5.81,65.26,65.26,0,0,1-2.23-16.22c0-5,1.1-7.6,2.22-8.92a4.22,4.22,0,0,1,3.48-1.6Zm0,0"/><path class="cls-2" d="M139,179.72c0-10.61,4.67-12.73,7.9-12.73s7.9,2.12,7.9,12.73-3.54,25.68-7.9,25.68-7.9-15.07-7.9-25.68Zm0,0"/><path class="cls-3" d="M146.94,164.79A8.94,8.94,0,0,0,140.1,168c-2,2.4-3.27,6.14-3.27,11.77a68.34,68.34,0,0,0,2.4,17.42A29,29,0,0,0,142,204c1.12,1.85,2.61,3.59,5,3.59s3.86-1.74,5-3.59a29,29,0,0,0,2.74-6.88,68.34,68.34,0,0,0,2.4-17.42c0-5.63-1.24-9.37-3.26-11.77a9,9,0,0,0-6.85-3.16Zm0,4.41a4.25,4.25,0,0,1,3.48,1.6c1.12,1.32,2.22,3.94,2.22,8.92a64.81,64.81,0,0,1-2.24,16.22,25.38,25.38,0,0,1-2.28,5.81,4.53,4.53,0,0,1-1.18,1.41,4.69,4.69,0,0,1-1.18-1.41,25.38,25.38,0,0,1-2.28-5.81,64.8,64.8,0,0,1-2.23-16.22c0-5,1.1-7.6,2.21-8.92a4.25,4.25,0,0,1,3.48-1.6Zm0,0"/><path class="cls-4" d="M102.16,122c4.06-9.8,9.19-10,12.17-8.74s6.49,5,2.43,14.79-13.09,22.37-17.13,20.7-1.52-16.95,2.53-26.75Zm0,0"/><path class="cls-3" d="M115.18,111.27a9,9,0,0,0-7.54.3c-2.78,1.44-5.36,4.43-7.51,9.62a67.84,67.84,0,0,0-4.45,17,28.54,28.54,0,0,0-.1,7.41c.31,2.14,1,4.32,3.21,5.22s4.23-.13,6-1.42a28.48,28.48,0,0,0,5.16-5.31,67.84,67.84,0,0,0,8.88-15.17c2.15-5.2,2.45-9.13,1.49-12.12a8.93,8.93,0,0,0-5.11-5.54Zm-1.69,4.07a4.26,4.26,0,0,1,2.6,2.82c.53,1.64.54,4.48-1.36,9.08a65.21,65.21,0,0,1-8.27,14.14,25.76,25.76,0,0,1-4.33,4.49,4.73,4.73,0,0,1-1.63.85,4.61,4.61,0,0,1-.56-1.76,25.57,25.57,0,0,1,.12-6.23,65.09,65.09,0,0,1,4.14-15.85c1.91-4.6,3.93-6.6,5.46-7.39a4.27,4.27,0,0,1,3.83-.15Zm0,0"/><path class="cls-3" d="M166.91,65.37a61.88,61.88,0,1,0,61.88,61.88,61.92,61.92,0,0,0-61.88-61.88Zm0,7.06a54.82,54.82,0,1,1-54.82,54.82,54.76,54.76,0,0,1,54.82-54.82Zm0,0"/><path class="cls-4" d="M224.38,125.86c0,2.41-.28,30.62-16.76,38.56-11.7,5.64-18.22-5.37-41.87-5-22.25.31-28.06,10.22-39.06,5-16.47-7.75-16.77-36.2-16.76-38.56,0-3.32.37-29.73,16.76-38.57,9.67-5.21,14.68,1.21,38.56,1.46,26.13.28,31.84-7.28,42.37-1.46C224,96.35,224.38,122.53,224.38,125.86Zm0,0"/><path class="cls-2" d="M167.54,70A59,59,0,0,0,112,109.35H223.08A58.94,58.94,0,0,0,167.54,70Zm0,0"/><path class="cls-2" d="M164.47,71.32a54.52,54.52,0,0,0-52,38H216.38a54.53,54.53,0,0,0-51.91-38Zm0,0"/><path class="cls-2" d="M111.53,147.5a68.89,68.89,0,0,0,26.88,28.16A59.54,59.54,0,0,0,167.58,184,55.59,55.59,0,0,0,184,181.76a56.83,56.83,0,0,0,26.91-18,61.4,61.4,0,0,0,10-16.23Zm0,0"/><path class="cls-2" d="M114.47,147.6m0,0a56.6,56.6,0,0,0,103,0Z"/><path class="cls-3" d="M166.91,68a59.24,59.24,0,1,0,59.24,59.24A59.25,59.25,0,0,0,166.91,68Zm0,1.77a57.47,57.47,0,1,1-57.46,57.47,57.46,57.46,0,0,1,57.46-57.47Zm0,0"/><path class="cls-3" d="M185.66,106.1a9.07,9.07,0,0,1,9.09,9.09v4.56a9.09,9.09,0,0,1-18.17,0v-4.56a9.07,9.07,0,0,1,9.08-9.09Zm0,0"/><path class="cls-4" d="M180.37,112.62a2.94,2.94,0,1,1,.86,2.07,2.94,2.94,0,0,1-.86-2.07Zm0,0"/><path class="cls-3" d="M148.16,106.1a9.07,9.07,0,0,1,9.09,9.09v4.56a9.09,9.09,0,0,1-18.17,0v-4.56a9.07,9.07,0,0,1,9.08-9.09Zm0,0"/><path class="cls-4" d="M142.87,112.62a2.94,2.94,0,1,1,.86,2.07,2.94,2.94,0,0,1-.86-2.07Zm0,0"/><path class="cls-5" d="M157.24,131.52a2,2,0,0,0-2,2v2.27a11.7,11.7,0,1,0,23.39,0v-2.27a2,2,0,0,0-2-2Zm19.35,0"/><path class="cls-6" d="M166.91,139.5a11.69,11.69,0,0,0-8.81,4,11.68,11.68,0,0,0,17.62,0,11.66,11.66,0,0,0-8.81-4Zm0,0"/><path class="cls-4" d="M157.24,131.52a2,2,0,0,0-2,2v2.05a27,27,0,0,0,23.39,0v-2a2,2,0,0,0-2-2Zm19.35,0"/><path class="cls-7" d="M175.47,131.52v3.13c0,1.17-.15,1.91-.95,2.45a27.2,27.2,0,0,0,4.09-1.53v-2a2,2,0,0,0-2-2Zm1.12,0"/><path class="cls-7" d="M157.24,131.52a2,2,0,0,0-2,2v2.05a27.53,27.53,0,0,0,8,2.38c-1.35-.37-1.76-1.74-1.76-3.31v-3.13Zm4.25,0"/><path class="cls-8" d="M158.36,131.52v3.13c0,1.17.15,1.91.95,2.45a26.8,26.8,0,0,1-4.09-1.53v-2a2,2,0,0,1,2-2Zm-1.12,0"/><path class="cls-3" d="M157.24,130.63a2.92,2.92,0,0,0-2.9,2.9v2.28a12.58,12.58,0,1,0,25.15,0v-2.28a2.92,2.92,0,0,0-2.9-2.9Zm19.35,1.77a1.11,1.11,0,0,1,1.14,1.13v2.28a10.82,10.82,0,0,1-21.63,0v-2.28a1.11,1.11,0,0,1,1.14-1.13Zm0,0"/><path class="cls-3" d="M178.66,135.09a26.78,26.78,0,0,1-23.5,0l-.38.79a27.65,27.65,0,0,0,24.27,0l-.39-.79Zm0,0"/><path class="cls-9" d="M168.21,142.65a1.19,1.19,0,0,1,.57-1,2.38,2.38,0,0,1,1.37-.4c1.08,0,1.95.61,1.95,1.37s-.87,1.37-1.95,1.37a2.46,2.46,0,0,1-1.37-.4,1.21,1.21,0,0,1-.57-1Zm0,0"/><path class="cls-3" d="M155.6,45.56v5.91c5.68.37,11.16.44,17,.87,7.24.53,11.56,2.64,14.12,5.21a12.59,12.59,0,0,1,3.54,9.25c0,6.1-3.25,10.19-8.92,13s-13.73,3.74-22,2.47c-1.23-.19-2.47-.43-3.7-.72v6.12q1.4.28,2.79.51c9.28,1.42,18.4.46,25.53-3S196.2,75.21,196.2,66.8a18.84,18.84,0,0,0-5.28-13.46c-3.79-3.82-9.69-6.36-17.92-7-6.23-.46-11.79-.49-17.4-.82Zm0,0"/><path class="cls-3" d="M134.13,42l2,5.26.48,1.3A88.61,88.61,0,0,1,121,45.14l-4.59-1.61.63,4.82C120.17,72,139.2,84.86,157.49,88V81.91c-14.65-2.8-29.09-12.37-33.44-29.66a59.93,59.93,0,0,0,17,2.62l4.28,0-1.77-4.76a117.84,117.84,0,0,0,14,1.5V45.66a92.06,92.06,0,0,1-17.9-2.37Zm0,0"/><path class="cls-10" d="M138.89,46.19,141,51.88c-9.66.06-21-3.92-21-3.92C126,93.08,193.21,95.81,193.21,66.8c0-8.16-5-16.3-20.43-17.44-11.65-.86-21.35-.13-33.89-3.17Zm0,0"/><path class="cls-11" d="M138.89,46.19,141,51.88c-9.66.06-21-3.92-21-3.92,15.68,20.44,61.81,23,70,8.86-3-3.9-8.42-6.81-17.23-7.46-11.65-.86-21.35-.13-33.89-3.17Zm0,0"/><path class="cls-12" d="M120,48C126,93.08,193.21,95.81,193.21,66.8a18.35,18.35,0,0,0-.43-4C182,88.8,127.91,77.36,120,48Zm0,0"/><path class="cls-3" d="M155.6,47.81v1.46c5.66.35,11.16.4,17.12.83,7.62.56,12.53,2.83,15.55,5.87a14.91,14.91,0,0,1,4.19,10.83c0,7-4,11.94-10.18,15s-14.67,4-23.32,2.67q-1.68-.25-3.36-.63v1.53c1,.23,2.09.42,3.13.58,8.9,1.37,17.63.4,24.21-2.81s11-8.77,11-16.31a16.47,16.47,0,0,0-4.63-11.88c-3.33-3.35-8.63-5.73-16.5-6.31-6.07-.44-11.59-.47-17.23-.8Zm0,0"/><path class="cls-3" d="M137.7,45.14l.49,1.31,1.7,4.59c-9.21-.23-19.62-3.78-19.62-3.78l-1.14-.4.16,1.2c2.94,22.39,20.78,34.55,38.2,37.65V84.19C141,81.17,124.27,69.84,121,49c1.71.58,11,3.67,20,3.62h1.07l-2-5.45a101.48,101.48,0,0,0,17.44,2.21V47.91a94.84,94.84,0,0,1-18.43-2.44Zm0,0"/><path class="cls-13" d="M16.86,180.34c0,10.65-3.55,25.8-7.93,25.8S1,191,1,180.34s4.69-12.78,7.94-12.78,7.93,2.13,7.93,12.78Zm0,0"/><path class="cls-3" d="M8.93,165.35a9,9,0,0,0-6.88,3.18c-2,2.4-3.27,6.16-3.27,11.81a68.81,68.81,0,0,0,2.4,17.49,28.91,28.91,0,0,0,2.76,6.91c1.12,1.87,2.62,3.61,5,3.61s3.87-1.74,5-3.61a28.92,28.92,0,0,0,2.75-6.91,68.82,68.82,0,0,0,2.41-17.49c0-5.65-1.24-9.41-3.28-11.81a9,9,0,0,0-6.87-3.18Zm0,4.43a4.24,4.24,0,0,1,3.49,1.61c1.12,1.32,2.23,4,2.23,9a65.9,65.9,0,0,1-2.24,16.3,26,26,0,0,1-2.29,5.83,4.64,4.64,0,0,1-1.19,1.41,4.35,4.35,0,0,1-1.19-1.41,25.55,25.55,0,0,1-2.29-5.83,65.44,65.44,0,0,1-2.24-16.3c0-5,1.1-7.63,2.22-9a4.25,4.25,0,0,1,3.5-1.61Zm0,0"/><path class="cls-13" d="M57,180.34c0,10.65-3.55,25.8-7.94,25.8s-7.93-15.15-7.93-25.8S45.8,167.56,49,167.56,57,169.69,57,180.34Zm0,0"/><path class="cls-3" d="M49.05,165.35a9,9,0,0,0-6.88,3.18c-2,2.4-3.27,6.16-3.27,11.81a68.81,68.81,0,0,0,2.4,17.49,28.5,28.5,0,0,0,2.76,6.91c1.11,1.87,2.61,3.61,5,3.61s3.87-1.74,5-3.61a28.5,28.5,0,0,0,2.76-6.91,68.81,68.81,0,0,0,2.4-17.49c0-5.65-1.24-9.41-3.27-11.81a9,9,0,0,0-6.87-3.18Zm0,4.43a4.25,4.25,0,0,1,3.49,1.61c1.12,1.32,2.23,4,2.23,9a65.45,65.45,0,0,1-2.25,16.3,25.55,25.55,0,0,1-2.29,5.83,4.54,4.54,0,0,1-1.18,1.41,4.35,4.35,0,0,1-1.19-1.41,25.55,25.55,0,0,1-2.29-5.83,65.45,65.45,0,0,1-2.25-16.3c0-5,1.11-7.63,2.23-9a4.25,4.25,0,0,1,3.5-1.61Zm0,0"/><path class="cls-13" d="M94,122.41c4.08,9.85,6.59,25.2,2.55,26.87s-13.13-10.95-17.21-20.79-.56-13.61,2.44-14.85,8.15-1.07,12.22,8.77Zm0,0"/><path class="cls-3" d="M80.94,111.6a9,9,0,0,0-5.13,5.56c-1,3-.67,7,1.5,12.17a68.81,68.81,0,0,0,8.91,15.24,28.73,28.73,0,0,0,5.19,5.33c1.75,1.3,3.8,2.34,6,1.43s2.91-3.09,3.23-5.25a28.69,28.69,0,0,0-.1-7.43,68.6,68.6,0,0,0-4.47-17.08c-2.16-5.23-4.75-8.23-7.55-9.67a9,9,0,0,0-7.57-.3Zm1.7,4.09a4.28,4.28,0,0,1,3.85.15c1.54.79,3.56,2.8,5.48,7.42a65.47,65.47,0,0,1,4.16,15.91,25.9,25.9,0,0,1,.12,6.27,4.61,4.61,0,0,1-.56,1.76,4.73,4.73,0,0,1-1.64-.85,26,26,0,0,1-4.35-4.51,65.58,65.58,0,0,1-8.3-14.2c-1.92-4.62-1.9-7.47-1.37-9.13a4.25,4.25,0,0,1,2.61-2.82Zm0,0"/><path class="cls-3" d="M29,65.5a62.15,62.15,0,1,0,62.14,62.14A62.2,62.2,0,0,0,29,65.5Zm0,7.09a55.06,55.06,0,1,1-55.06,55.05A55,55,0,0,1,29,72.59Zm0,0"/><path class="cls-13" d="M87.59,127.64A58.62,58.62,0,1,1,70.42,86.21a58.6,58.6,0,0,1,17.17,41.43Zm0,0"/><path class="cls-13" d="M80.14,124.59A54.22,54.22,0,1,1,64.26,86.26a54.19,54.19,0,0,1,15.88,38.33Zm0,0"/><path class="cls-4" d="M-29.61,127.64a58.6,58.6,0,0,0,117.2,0Zm0,0"/><path class="cls-4" d="M-28.17,127.64a54.17,54.17,0,0,0,108.16,0Zm0,0"/><path class="cls-3" d="M29,68.16a59.49,59.49,0,1,0,59.48,59.48A59.49,59.49,0,0,0,29,68.16Zm0,1.77a57.72,57.72,0,1,1-57.72,57.71A57.7,57.7,0,0,1,29,69.93Zm0,0"/><path class="cls-3" d="M10.16,106.41a9.11,9.11,0,0,1,9.12,9.13v4.57a9.13,9.13,0,1,1-18.25,0v-4.57a9.11,9.11,0,0,1,9.13-9.13Zm0,0"/><path class="cls-4" d="M15.47,113a2.95,2.95,0,1,1-3-2.94,3,3,0,0,1,3,2.94Zm0,0"/><path class="cls-3" d="M47.82,106.41a9.11,9.11,0,0,1,9.12,9.13v4.57a9.13,9.13,0,1,1-18.25,0v-4.57a9.11,9.11,0,0,1,9.13-9.13Zm0,0"/><path class="cls-4" d="M53.13,113a2.95,2.95,0,1,1-3-2.94,3,3,0,0,1,3,2.94Zm0,0"/><path class="cls-5" d="M19.27,131.93a2,2,0,0,0-2,2v2.29a11.75,11.75,0,0,0,23.49,0V134a2,2,0,0,0-2-2Zm0,0"/><path class="cls-6" d="M29,140a11.7,11.7,0,0,0-8.85,4,11.74,11.74,0,0,0,17.69,0A11.67,11.67,0,0,0,29,140Zm0,0"/><path class="cls-4" d="M19.27,131.93a2,2,0,0,0-2,2v2a27,27,0,0,0,23.49,0v-2a2,2,0,0,0-2-2Zm0,0"/><path class="cls-7" d="M19.27,131.93a2,2,0,0,0-2,2v2a27.77,27.77,0,0,0,4.1,1.54c-.8-.54-.95-1.29-.95-2.46v-3.15Zm0,0"/><path class="cls-7" d="M34.43,131.93v3.15c0,1.58-.41,2.95-1.77,3.32A27.4,27.4,0,0,0,40.73,136v-2a2,2,0,0,0-2-2Zm0,0"/><path class="cls-8" d="M38.7,131.93a2,2,0,0,1,2,2v2a27.36,27.36,0,0,1-4.1,1.54c.8-.54.95-1.29.95-2.46v-3.15Zm0,0"/><path class="cls-3" d="M19.27,131.05A2.93,2.93,0,0,0,16.35,134v2.29a12.64,12.64,0,0,0,25.27,0V134a2.93,2.93,0,0,0-2.92-2.91Zm0,1.77H38.7A1.11,1.11,0,0,1,39.84,134v2.29a10.86,10.86,0,0,1-21.71,0V134a1.11,1.11,0,0,1,1.14-1.14Zm0,0"/><path class="cls-3" d="M17.19,135.52l-.39.8a27.8,27.8,0,0,0,24.37,0l-.38-.8a26.93,26.93,0,0,1-23.6,0Zm0,0"/><path class="cls-9" d="M27.69,143.11a1.2,1.2,0,0,1-.58,1,2.39,2.39,0,0,1-1.38.41c-1.08,0-1.95-.62-1.95-1.38s.87-1.38,1.95-1.38a2.39,2.39,0,0,1,1.38.41,1.22,1.22,0,0,1,.58,1Zm0,0"/><path class="cls-3" d="M40.35,45.6c-5.64.34-11.22.37-17.47.83-8.27.61-14.19,3.15-18,7A18.9,18.9,0,0,0-.42,66.94c0,8.44,5.17,14.92,12.33,18.41s16.32,4.45,25.63,3c.94-.14,1.87-.31,2.81-.5V81.71q-1.86.44-3.72.72c-8.31,1.28-16.4.29-22.09-2.48s-9-6.89-9-13a12.66,12.66,0,0,1,3.56-9.29C11.7,55.06,16,53,23.32,52.41c5.82-.42,11.32-.49,17-.87V45.6Zm0,0"/><path class="cls-3" d="M56.43,43.32a92.21,92.21,0,0,1-18,2.38v6a116.82,116.82,0,0,0,14-1.51l-1.77,4.78L55,55a60.47,60.47,0,0,0,17-2.64c-4.37,17.37-18.88,27-33.59,29.79v6.11c18.37-3.14,37.48-16.1,40.6-39.81l.64-4.84-4.61,1.62a88.44,88.44,0,0,1-15.62,3.39L60,47.29l2-5.29ZM61.91,42"/><path class="cls-10" d="M57.13,46.24c-12.59,3-22.34,2.32-34,3.18C7.55,50.56,2.58,58.74,2.58,66.94,2.58,96.07,70.11,93.33,76.07,48c0,0-11.35,4-21.06,3.93l2.12-5.71Zm0,0"/><path class="cls-11" d="M57.13,46.24c-12.59,3-22.34,2.32-34,3.18-8.85.65-14.28,3.58-17.31,7.5C14,71.13,60.32,68.54,76.07,48c0,0-11.35,4-21.06,3.93l2.12-5.71Zm0,0"/><path class="cls-12" d="M76.07,48C68.16,77.55,13.81,89,3,63a18.46,18.46,0,0,0-.42,4C2.58,96.07,70.11,93.33,76.07,48Zm0,0"/><path class="cls-3" d="M40.35,47.86c-5.66.34-11.21.36-17.31.81-7.89.58-13.22,3-16.57,6.34A16.54,16.54,0,0,0,1.83,66.94c0,7.57,4.46,13.16,11.06,16.38s15.37,4.19,24.31,2.82c1-.16,2.1-.36,3.15-.58V84c-1.12.25-2.25.46-3.38.63C28.29,86,19.79,85,13.55,82s-10.22-8-10.22-15A15,15,0,0,1,7.54,56.06c3-3.05,8-5.33,15.61-5.89,6-.44,11.52-.49,17.2-.84V47.86Zm0,0"/><path class="cls-3" d="M57,45.51A95.72,95.72,0,0,1,38.45,48v1.47A101.42,101.42,0,0,0,56,47.22l-2,5.48H55c9.05,0,18.4-3.05,20.12-3.63C71.82,70,55.05,81.36,38.45,84.41v1.52C56,82.81,73.86,70.6,76.82,48.12L77,46.91l-1.15.4s-10.46,3.57-19.7,3.8l1.71-4.61.49-1.32Zm1.37-.33"/><rect class="cls-14" x="-9.08" y="-8.91" width="213.74" height="298.44" transform="translate(195.59 280.63) rotate(-180)"/><path class="cls-2" d="M45,.1l-29,0H0l0,15.95c0,7,0,14,0,21A29.11,29.11,0,0,0,51.5,18.4,28.92,28.92,0,0,0,45,.1Z"/><text class="cls-15" transform="translate(15.6 31.85)">25</text></svg>