<?xml version="1.0" encoding="utf-8"?>
<!-- Generator: Adobe Illustrator 26.0.3, SVG Export Plug-In . SVG Version: 6.00 Build 0)  -->
<svg version="1.1" id="Слой_1" xmlns="http://www.w3.org/2000/svg" xmlns:xlink="http://www.w3.org/1999/xlink" x="0px" y="0px"
	 viewBox="0 0 195.6 280.6" style="enable-background:new 0 0 195.6 280.6;" xml:space="preserve">
<style type="text/css">
	.st0{fill:#EB5A53;}
	.st1{font-family:'Impact';}
	.st2{font-size:63.44px;}
	.st3{letter-spacing:1;}
	.st4{clip-path:url(#SVGID_00000133528158204389430340000005810337391176068239_);enable-background:new    ;}
	.st5{font-size:53.95px;}
	.st6{clip-path:url(#SVGID_00000133528158204389430340000005810337391176068239_);fill:#EB5A53;}
	.st7{fill:#FFFFFF;}
	.st8{font-size:20px;}
</style>
<g>
	<defs>
		<rect id="SVGID_1_" x="0.2" y="0" width="195.6" height="280.6"/>
	</defs>
	<clipPath id="SVGID_00000183938423862621511740000017503586261160929932_">
		<use xlink:href="#SVGID_1_"  style="overflow:visible;"/>
	</clipPath>
	<text transform="matrix(1 0 0 1 26.58 259.55)" class="st0 st1 st2">C</text>
	<text transform="matrix(1 0 0 1 61.71 259.55)" class="st0 st1 st2 st3">z</text>
	<text transform="matrix(1 0 0 1 85.37 259.55)" class="st0 st1 st2">yże</text>
	<text transform="matrix(1 0 0 1 26.58 134.24)" class="st0 st1 st2">C</text>
	<text transform="matrix(1 0 0 1 61.71 134.24)" class="st0 st1 st2 st3">z</text>
	<text transform="matrix(1 0 0 1 85.37 134.24)" class="st0 st1 st2">yże</text>
	<g style="clip-path:url(#SVGID_00000183938423862621511740000017503586261160929932_);enable-background:new    ;">
		<text transform="matrix(1 0 0 1 20 189.92)" class="st0 st1 st5">Чыжы</text>
	</g>
	<g style="clip-path:url(#SVGID_00000183938423862621511740000017503586261160929932_);enable-background:new    ;">
		<text transform="matrix(1 0 0 1 20 71.58)" class="st0 st1 st5">Чыжы</text>
	</g>
	<path style="clip-path:url(#SVGID_00000183938423862621511740000017503586261160929932_);fill:#EB5A53;" d="M150.7,0h29h16v16
		c0,7,0,14,0,21c-10.2,12.4-28.6,14.2-41,4S140.5,12.4,150.7,0z"/>
	<g style="clip-path:url(#SVGID_00000183938423862621511740000017503586261160929932_);enable-background:new    ;">
		<text transform="matrix(1 0 0 1 159.79 31.75)" class="st7 st1 st8">20</text>
	</g>
</g>
</svg>
