<?xml version="1.0" encoding="utf-8"?>
<!-- Generator: Adobe Illustrator 26.0.3, SVG Export Plug-In . SVG Version: 6.00 Build 0)  -->
<svg version="1.1" id="Слой_1" xmlns="http://www.w3.org/2000/svg" xmlns:xlink="http://www.w3.org/1999/xlink" x="0px" y="0px"
	 viewBox="0 0 195.6 280.6" style="enable-background:new 0 0 195.6 280.6;" xml:space="preserve">
<style type="text/css">
	
		.st0{clip-path:url(#SVGID_00000023962291089508490620000005160962831413875105_);fill:#4153A0;stroke:#1166B0;stroke-width:1.49;stroke-miterlimit:5.97;}
	.st1{clip-path:url(#SVGID_00000023962291089508490620000005160962831413875105_);}
	.st2{fill:#FFFFFF;}
	.st3{fill:#FFFFFF;stroke:#202020;stroke-width:0.75;stroke-miterlimit:5.97;}
	.st4{fill:#1166B0;stroke:#1166B0;stroke-width:1.49;stroke-miterlimit:5.97;}
	.st5{clip-path:url(#SVGID_00000023962291089508490620000005160962831413875105_);fill:#FFFFFF;}
	
		.st6{clip-path:url(#SVGID_00000023962291089508490620000005160962831413875105_);fill-rule:evenodd;clip-rule:evenodd;fill:#202020;}
	
		.st7{clip-path:url(#SVGID_00000023962291089508490620000005160962831413875105_);fill-rule:evenodd;clip-rule:evenodd;fill:#E84431;}
	
		.st8{clip-path:url(#SVGID_00000023962291089508490620000005160962831413875105_);fill-rule:evenodd;clip-rule:evenodd;fill:#FFFEFE;}
	
		.st9{clip-path:url(#SVGID_00000023962291089508490620000005160962831413875105_);fill-rule:evenodd;clip-rule:evenodd;fill:#69B42E;}
	
		.st10{clip-path:url(#SVGID_00000023962291089508490620000005160962831413875105_);fill-rule:evenodd;clip-rule:evenodd;fill:#EDC282;}
	
		.st11{clip-path:url(#SVGID_00000023962291089508490620000005160962831413875105_);fill-rule:evenodd;clip-rule:evenodd;fill:#FAE042;}
	.st12{clip-path:url(#SVGID_00000023962291089508490620000005160962831413875105_);enable-background:new    ;}
	.st13{fill:#4153A0;}
	.st14{font-family:'Impact';}
	.st15{font-size:21px;}
	.st16{font-size:24.77px;}
	.st17{font-size:20px;}
</style>
<g>
	<defs>
		<rect id="SVGID_1_" x="0" y="0" width="195.6" height="280.6"/>
	</defs>
	<clipPath id="SVGID_00000183207324672396339270000017274577678707523222_">
		<use xlink:href="#SVGID_1_"  style="overflow:visible;"/>
	</clipPath>
	
		<rect x="-9.2" y="-8.6" style="clip-path:url(#SVGID_00000183207324672396339270000017274577678707523222_);fill:#4153A0;stroke:#1166B0;stroke-width:1.49;stroke-miterlimit:5.97;" width="214" height="297.9"/>
	<g id="g3564" style="clip-path:url(#SVGID_00000183207324672396339270000017274577678707523222_);">
		<g id="g3503">
			<path id="path2644" class="st2" d="M95,268.8c8.7,0,17.4-0.2,20.2-0.8c7.8-1.5,15.4-3.6,22.8-6.2c2.8-1.1,6.2-2.3,7.6-2.8
				l2.5-0.9v-28.9l-2.6-2.7c-5.8-6-5.7-14.9,0.2-21l2.4-2.4v-8.9c-0.1-12.1-1-17.4-4.3-23.6c-3.4-6.4-9.3-10.4-23.1-16
				c-4.8-1.9-9.2-4-13-5.9c-4.5-2.3-8.7-5.1-12.6-8.2c-4.7,3.5-9.7,6.7-14.9,9.4c-1.9,0.9-7.4,3.3-12.3,5.3
				c-10.8,4.5-14,6.3-17.8,10.5c-6.2,6.6-7.9,12.8-8,28.2v9.1l2,2.1c6.2,6.4,6.4,15.3,0.5,21.4l-2.5,2.6v28.9l2.5,0.9
				c1.4,0.5,4.8,1.7,7.6,2.8c7.4,2.6,15.1,4.7,22.8,6.2C77.6,268.6,86.3,268.8,95,268.8z M95.5,266.1c-17.6,0-21.3-0.3-31.1-2.9
				c-5.9-1.6-18.5-6-19.7-7c-0.5-0.4-0.7-3.7-0.7-13.3v-12.7l2.1-2.4c3.3-3.8,4.5-6.7,4.5-11.4s-1.4-8.1-4.7-12l-1.9-2.2v-7.2
				c0-12.4,1.5-19.5,5.3-25.2c3.4-5.1,7.9-7.9,22-13.6c8.6-3.5,13.7-6.2,19.5-10.2c1.4-1,2.8-1.9,4.2-2.8c0.1,0,2.2,1.4,4.6,3.1
				c5.4,3.8,10.6,6.5,19.5,10.1c22.2,8.9,25.9,14,26.6,36.2l0.3,9.4l-2,2.2c-3.1,3.3-4.8,7.6-4.8,12.2c-0.2,4.2,1.4,8.3,4.4,11.3
				l2.2,2.4V243c0,9.6-0.2,12.9-0.7,13.3c-0.9,0.7-13.1,5.1-18.4,6.7C117.1,265.7,113,266.1,95.5,266.1L95.5,266.1z"/>
			<path id="path2640" class="st3" d="M94.9,255.3c1.8-4.1,2.8-8.8,4.9-12.8c0.4-1.1,1.5-2.5,1-3.7c-1.2-0.5-2.7,1-3.8,0.2
				c-0.9-2.7-0.4-5.7-0.6-8.5c0.2-2.7-0.5-5.7,0.6-8.2c1-1.3,2.9,0.1,4.1,0.6c3.7,2.1,8.9,3.5,12.6,0.6c4.6-3.3,6.4-9,7.4-14.4
				c0.8-3.8,2.1-8.2,5.8-10.1c1.9-1,4.4,1.4,3,3.2c-0.8,1.5-3.3,1.4-3.7,3.1c0.6,2.2,3.5,2.8,5.2,1.6c4-1.6,5.5-7.2,2.6-10.4
				c-1.4-1.7-3.5-2.7-5.7-2.6c-3.2-1.6-5.4-4.6-8-6.9c-8.5-8.4-16.7-17.3-25.4-25.4c-10.6,9.7-20.2,20.5-30.7,30.4
				c-1.2,1.1-2.5,2.3-4.2,2.1c-4.8,0.6-7.2,6.9-4.4,10.8c1.6,2.3,5.5,3.7,7.6,1.4c0.5-0.7,0.4-1.7-0.3-2.2c-0.3-0.2-0.7-0.4-1.1-0.3
				c-2-0.3-3.3-3.5-1.3-4.6c2.5-1.1,5,1,5.8,3.3c2.9,5.9,2.7,13.3,7,18.4c2.5,3.1,6.6,5.4,10.6,4.1c2.8-0.5,5.1-2.8,7.9-3.3
				c1.6,0.4,1.2,2.7,1.3,4c-0.2,4.4,0.2,8.8-0.6,13.1c-0.6,1.1-2-0.1-3,0c-0.6-0.1-1.7-0.1-1,0.8c2.1,4.4,3.8,8.9,5.3,13.6
				C94.1,253.8,94.5,254.6,94.9,255.3z M107,216.9c-3.5,0-6.7-1.4-9.8-2.6c0-9.6-0.4-19.2,0-28.8c0-1.9,1.9-3.1,1.8-5.1
				c0.3-2.8-0.3-5.9,0.6-8.6c1-0.3,1.7,1.4,2.6,1.9c6.5,6.7,13,13.5,19.2,20.4c0.9,0.9,1.2,2.2,0,3.1c-2.9,3.9-5.2,8.3-6.6,13
				c-1.1,3-3.1,6.5-6.7,6.7C107.8,216.9,107.4,216.9,107,216.9z M83,216.9c-2.8,0.3-5.5-1.2-6.8-3.8c-2.2-3.8-2.7-8.4-5.2-12
				c-1-2-2.8-3.5-3.8-5.5c5.2-6.2,11-12.1,16.6-18c2-1.9,3.8-4.2,6-5.9c1.1,0.9,0.5,2.8,0.8,4c0,2.7-0.3,5.8,1.8,8
				c1.6,1.6,0.6,3.9,0.9,5.9c-0.1,8.2-0.2,16.5-0.2,24.7C89.7,215.4,86.5,216.9,83,216.9L83,216.9z"/>
		</g>
		<path id="path3535" class="st4" d="M95.6,266.1c-17.6,0-21.3-0.3-31.1-2.9c-5.9-1.6-19.2-6.1-20.4-7.1v-25.9l2.1-2.4
			c3.3-3.8,4.5-6.7,4.5-11.4s-1.4-8.1-4.7-12l-1.9-2.2v-7.2c0-12.4,1.5-19.5,5.3-25.2c3.4-5.1,7.9-7.9,22-13.6
			c8.6-3.5,13.7-6.2,19.5-10.2c1.4-1,2.8-1.9,4.2-2.8c0.1,0,2.2,1.4,4.6,3.1c5.4,3.8,10.6,6.5,19.5,10.1c22.2,8.9,25.9,14,26.6,36.2
			l0.3,9.4l-2,2.2c-3.1,3.3-4.8,7.6-4.8,12.2c-0.2,4.2,1.4,8.3,4.4,11.3l2.2,2.4v26c-0.9,0.7-13.7,5.1-19.1,6.7
			C117.1,265.7,113,266.1,95.6,266.1z"/>
		<path id="path3531" class="st3" d="M95.2,256.3c2.5-10.5,3-10.8,6.5-17.6c-3.3,0-5.3,1.5-5.3,5.2v-23.5c2.4,0,7.6,4.5,12.5,4.4
			c1.7,0.1,3.4-0.4,4.8-1.4c4.6-3.3,6.4-9,7.4-14.4c0.8-3.8,2.3-9.6,6.3-10.7c3.1-0.8,3.8,1.4,3.4,3.6c-0.7,3.5-4.2,1.7-4.1,3.4
			c0.1,2.2,2.8,2.5,4.7,1.5c2.4-1.2,4-3.5,4.2-6.2c0-1.5-0.6-3-1.6-4.2c-1.4-1.8-4.5-2-6.7-2.1l-32.1-32.8l-32,32.7
			c-6.5-0.6-9.9,4.5-7.5,10.2c1.6,2.3,5.3,4,7.4,1.7c1-1.1-0.3-2.4-1.6-2.3c-2-0.4-3.1-3.7-1.1-4.9c2.5-1.1,6,1.3,7,3.5
			c2.7,5.9,2.1,12.6,6.4,17.8c2.2,2.6,4.9,4.7,8.2,4.7c3.4,0.1,7.8-3.6,12-4.6v23.5c0-3.9-2.2-5.2-5.3-5.2
			C91.8,244.7,92.3,245.3,95.2,256.3z M107.5,217.7c-3.5,0.1-8-1.6-11.1-2.9v-30.7l2.4-2.6v-12.1l25.2,26.2c-4.6,3.1-6.6,9.5-8,14.3
			C114.8,213.8,111.7,217.6,107.5,217.7z M83.1,217.7c-4.4,0.2-6.7-3.8-8.2-7.4c-2-5-4.7-10.9-8.8-14.6l25.4-26.2v12l2.4,2.7v30.6
			C90.7,216,86.6,217.5,83.1,217.7L83.1,217.7z M98.8,179.7l-2.1,1.8 M98.8,175.9l-2.1,1.8 M98.8,172l-2.1,1.8 M98.8,169.2l-2.1,1.8
			 M93.6,170.9l-2.1-1.8 M93.6,174l-2.1-1.8 M93.6,177.6l-2.1-1.8 M93.6,181.2l-2.1-1.8"/>
	</g>
	<path style="clip-path:url(#SVGID_00000183207324672396339270000017274577678707523222_);fill:#FFFFFF;" d="M43.8,11.6v75
		c0,29.5,24.3,53.6,54,53.6s53.9-24,54-53.5l0,0V11.6L43.8,11.6z"/>
	
		<path id="path14" style="clip-path:url(#SVGID_00000183207324672396339270000017274577678707523222_);fill-rule:evenodd;clip-rule:evenodd;fill:#202020;" d="
		M146.7,86.1c0,27.3-22.5,49.6-50.1,49.6S46.5,113.3,46.5,86V16.4h100.2L146.7,86.1"/>
	
		<path id="path16" style="clip-path:url(#SVGID_00000183207324672396339270000017274577678707523222_);fill-rule:evenodd;clip-rule:evenodd;fill:#E84431;" d="
		M149.9,86.2c-0.4,28.9-24.2,51.9-53,51.5c-28.3-0.4-51.1-23.3-51.5-51.6V12.9h104.6L149.9,86.2L149.9,86.2z M119.8,75.2
		c-0.9-0.2-1.9-0.3-2.8-0.2c-0.4,0-0.8,0-1.1,0l1.2-9.9L119.8,75.2L119.8,75.2z M104.4,39.7c1.2-0.4,2.3-0.9,3.4-1.5
		c0.7-0.4,1.3-0.9,1.9-1.4c0.5-0.4,0.9-1,0.8-1.6c-0.4-1.4-0.4-2.8-0.1-4.2c0.5-1.8,1.7-3.4,3.2-4.6c2.1-1.3,4.4-2.1,6.8-2.4
		c1.2-0.2,2.5-0.3,3.8-0.4c0.5,0,0.9-0.1,1.3-0.4c0.1-0.1,0.2,0.5,0.1,0.7c1-0.3,2-0.4,3.1-0.3c1.3,0,2.5-0.2,3.8-0.6
		c0.4-0.1,0.7-0.2,1.1-0.4c0.1,0,0.2,0.3,0.1,0.6c1.1-0.4,2.2-0.7,3.3-0.9c1.6-0.5,3.2-0.8,4.9-1c1,0,1.9,0.1,2.8,0.3
		c0.3,0.1,0.5,0.2,0.7,0.4c-0.1,0.2-0.2,0.4-0.4,0.6c-0.7,0.8-1.5,1.4-2.5,1.9c-1,0.5-2.1,0.9-3.2,1.2c1.2,0.1,2.4,0.3,3.6,0.6
		c0.4,0.1,1.1,0.5,1.1,0.6s-0.6,0.7-1,1c-0.9,0.6-2,1.1-3,1.5c-1.5,0.6-3.1,1-4.8,1.2c1.2,0.2,2.4,0.4,3.5,0.8
		c0.6,0.2,1.2,0.4,1.8,0.7c0.3,0.2,0.7,0.5,0.7,0.6s-0.6,0.4-0.9,0.6c-1,0.5-2.1,0.8-3.2,1c-1.2,0.2-2.3,0.3-3.5,0.3
		c-0.8,0.1-1.6,0.1-2.3,0.1c1.1,0.4,2.3,0.8,3.4,1.3c0.7,0.3,1.4,0.7,2,1.2c0.3,0.2,0.8,0.6,0.8,0.8s-0.8,0.5-1.3,0.5
		c-1.6,0.3-3.2,0.5-4.8,0.4c-1.4,0-2.8-0.3-4.2-0.5c1,0.5,2.2,1.1,3.2,1.7c0.8,0.5,1.5,1.2,2.1,1.9c0.2,0.2,0.7,0.7,0.6,0.8
		c-0.4,0.1-0.8,0.2-1.2,0.2c-1.5,0.1-2.9,0-4.4-0.3c-1.4-0.2-2.8-0.7-4.2-1c1,0.7,1.9,1.4,2.7,2.2c0.6,0.6,1.1,1.3,1.6,2
		c0.2,0.3,0.3,0.6,0.4,1c-0.1,0.1-0.7,0.1-1.1,0.1c-1.4,0-2.8-0.4-4.1-0.9c-1.3-0.5-2.5-1.2-3.7-1.8c0.9,0.7,1.7,1.5,2.5,2.3
		c0.5,0.6,1,1.3,1.3,2.1c0.1,0.3,0.2,0.7,0.2,1.1c-0.4,0.1-0.9,0.1-1.3,0c-1-0.1-1.9-0.4-2.8-0.8c-0.4-0.2-0.9-0.5-1.2-0.8
		c0.5,0.8,0.9,1.7,1.2,2.6c0.1,0.3,0.1,0.7,0,1c-0.4,0-0.8,0-1.2-0.1c-0.9-0.1-1.7-0.5-2.3-1c-0.6-0.5-1.1-1-1.7-1.5
		c0.3,0.5,0.6,1.1,0.8,1.6c0.2,0.6,0.4,1.2,0.4,1.8c0,0.3,0,0.5-0.1,0.8c-0.4,0-0.8-0.1-1.2-0.2c-1.1-0.5-2-1.1-2.9-1.9
		c-0.9-0.8-1.7-1.6-2.4-2.6c-0.1-0.1-0.2-0.1-0.3-0.2c0,0.2,0.1,0.5,0.2,0.7c0.3,1.2,0.5,2.3,0.8,3.5c0.2,0.7,0.3,1.3,0.4,1.9
		c0.4-0.2,0.8-0.3,1.3-0.2c0.6,0.1,0.6,0.8,0.8,0.7c0.5-0.2,0.9-0.3,1.4-0.5c1.1-0.4,2.2-0.8,3.3-1.2s2.1-0.8,3.2-1.2
		c0.3-0.1,0.7-0.5,0.9-0.2c0.6-0.2,1.2-0.6,1.7-0.9c0.7-0.6,1.4-1.1,2.1-1.7s1-0.3,1.8-0.1c0.5,0.2,1.1,0.3,1.6,0.5
		c0.6,0.2,1,0.7,1.1,1.2c0.3,0.5,0.4,1.1,0.4,1.6c-0.1,0.5-0.2,1-0.5,1.2c0,0.1,0,0.1,0,0.2c0,0.6-0.2,1.1-0.4,1.6
		c-0.2,0.8-0.2,1.7-0.2,2.6c-0.1,0.9,0,1.8,0.2,2.6c0.1,0.2,0.1,0.4,0.2,0.6c1.3,0.1,2.6,0.3,3.4,0.4c1.6,0.2,4,0.5,4.8,0.5
		s0.8-0.4,1.1-0.9c0.3-0.4,0.8-0.7,1.3-0.7c0.6-0.1,0.1,1.2-0.4,2c-0.2,0.5-0.6,0.8-1.1,1l3.4,11.4c0.5,0.2,0.7,0.4,0.7,0.7l0,0
		c0,2-2.1,3.7-4.6,3.7s-4.6-1.7-4.6-3.7l0,0c0-0.3,0.4-0.6,1.2-0.8l3-11.2c-1,0-3.2-0.3-5-0.3c-1.4-0.1-2.4-0.1-3.4-0.1
		c0,0.1-0.1,0.1-0.1,0.2c-0.3,0.9-0.6,1.7-1.1,2.5c-0.5-0.8-0.8-1.6-1.1-2.5c0-0.1,0-0.1-0.1-0.2c-0.9,0-2,0-3.3,0.1
		c-1.8,0.1-4,0.3-5,0.3l3,11.2c0.7,0.2,1.2,0.5,1.2,0.8l0,0c0,2-2.1,3.7-4.6,3.7s-4.6-1.7-4.6-3.7l0,0c0-0.2,0.2-0.4,0.3-0.5
		l3.8-11.6c-0.5-0.2-0.9-0.5-1.1-1c-0.5-0.8-1-2-0.4-2c0.5,0,1,0.3,1.3,0.7c0.3,0.5,0.3,0.9,1.1,0.9s3.1-0.3,4.8-0.5
		c0.8-0.1,2.1-0.3,3.4-0.4c0.1-0.2,0.2-0.4,0.2-0.6c0.2-0.9,0.3-1.8,0.3-2.6c0-0.9,0-1.7-0.2-2.6c-0.1-0.5-0.4-0.8-0.4-1.2
		c-0.3,0-0.5,0-0.8,0c-0.2,0-0.4,0.1-0.7,0.1c-0.5,0.1-1,0.1-1.5,0c-0.2,0-0.4,0-0.6,0s-0.3,0.1-0.4,0.2s-0.2,0.3-0.3,0.4
		c-0.7,0.6-1.3,1-2,1.5c-1.2,0.8-2.2,1.7-3.4,2.4c-1,0.6-2.1,1.2-3.1,1.6c-0.1,0,0.2,0.4-0.1,0.7s-0.8,0.2-0.8,0.2
		c-0.8,0.6-1.7,1.2-2.7,1.5c-0.8,0.2-1.3,0.2-1.7-0.4c-0.6-0.7-0.9-1.6-1.1-2.5c0-0.2-0.3-0.2-0.5-0.5s0.2-0.3,0.1-0.4
		c-0.6-1.2-1.1-2.3-1.8-3.5c-0.4-0.8-0.9-1.7-1.3-2.5s-0.2-0.8-0.4,0c-0.6,2.2-1.3,4.1-2.1,6.2c-0.2,0.4-0.2,0.8,0,1.2
		c0.2,0.5,0.5,1,0.7,1.5c0.1,0.2,0,0.5-0.2,0.6c0.1,0.4,0.3,0.7,0.4,1.1c0.4,0.6,0.8,1.1,1.2,1.7c0.2,0.2,0.1,0.5,0,0.6c0,0,0,0,0,0
		c0.2,0.4,0.5,1,0.7,1.4c0.3,0.4,0.6,0.7,1,1c0.2,0.1,0,0.4-0.2,0.5c0.2,0.5,0.5,0.9,0.8,1.4c0.4,0.6,0.7,0.7,0.7,1.1
		c0,0.1-0.2,0.3-0.4,0.4l0,0c0.5,0.8,1,1.7,1.3,2.6c0.3,0.9,0.5,1.4,0.8,2.3c0.4,0.2,0.7,0.5,0.9,0.8c0.3,0.4,0.4,0.9,0.5,1.4
		c0.1,0.6,0.2,0.6,0.6,1c1,0.8,1.7,2,2,3.3c0.1,1.3-0.1,2.6-0.7,3.8c-0.2,0.4-0.2,0.9-0.1,1.3c0.1,0.6,0.2,1.2,0.2,1.8
		c0,0.2-0.1,0.4-0.2,0.5c0,0.6,0.1,1.2,0.1,1.8c0,1,0,1.9-0.1,2.9c0,1.4,0,2.8,0.1,4.3c0.1,1.2,0.2,2.4,0.4,3.6
		c0.1,0.7,0.2,1.3,0.4,1.9c0,0.1,0,0.1,0,0.2l1.2,0.8c0.4,0.3,0.8,0.5,1.3,0.7c0.6,0.3,1.2,0.9,1.5,1.5c0.3,0.6,0.4,1.2,0.4,1.8
		c0,0.4,0.1,0.8,0.2,1.1c0.8-0.1,1.6-0.3,2.1-0.4c0.7-0.2,1.8-0.1,2.2-0.2l0.7-0.2c0.2-0.2,0.2-0.5,0.1-0.8
		c-0.2-0.5-0.4-1.1-0.6-1.8s-0.8-2.7-0.9-3.1c-0.2-0.7-0.1-0.7-0.5-0.9c-0.2-0.1-0.5-0.3-0.7-0.5c-0.1-0.2-0.2-0.3-0.3-0.5
		c-0.3-0.4-0.6-0.9-0.9-1.4c-0.1-0.3-0.4-0.6-0.7-0.8c-0.2-0.2-0.4-0.3-0.6-0.5c-0.2-0.2-0.4-0.3-0.7-0.4c-0.2-0.1-0.3,0-0.5-0.1
		s-0.1-0.4-0.2-0.4c-0.2-0.1-0.5-0.1-0.7,0c-0.3,0.2-0.5,0.2-0.5-0.1c0.2-0.5,0.3-0.7,0.7-0.9c0.2-0.1,0.3-0.1,0.5-0.2
		c0.2,0,0.2-0.1,0.3-0.2c0.2-0.3,0.5-0.3,0.8-0.2c0,0,0,0,0,0c0.1,0.1,0.2,0.2,0.3,0.2s0.3,0.1,0.2-0.1c-0.1-0.1-0.1-0.2-0.2-0.3
		c-0.3-0.2-0.5-0.4-0.3-0.7c0.1-0.1,0.1-0.2,0-0.3c-0.1-0.2-0.2-0.3-0.4-0.3c-0.4,0-1-0.2-0.5-0.5c0.3-0.3,0.8-0.4,1.3-0.3
		c0.2,0,0.4,0.1,0.6,0.1s0.3-0.1,0.5-0.2s0.3,0,0.4,0.2c0.1,0.1,0.2,0.2,0.2,0.2s0.1-0.1,0.1-0.2c0-0.1-0.1-0.2-0.2-0.3
		c-0.1-0.1-0.3-0.3-0.5-0.3c-0.2-0.1-0.4-0.3,0.1-0.4c0.4-0.2,0.8-0.1,1.2,0.1c0.2,0.2,0.3,0.3,0.4,0.5c0.1,0.1,0.2,0.1,0.3,0.1
		c0.3,0.1,0.4,0.2,0.5,0.6c0.1,0.4,0.3,0.7,0.5,1c0.2,0.3,0.4,0.5,0.6,0.8c0.2,0.4,0.1,0.5,0.3,0.8c0.1,0.1,0.1,0.2,0.1,0.2
		c0.1-0.1,0.2-0.2,0.3-0.3c0.3-0.2,0.6-0.3,0.9-0.2c0.4,0.2,0.7,0.7,0.9,1.1c0.1,0.4-0.1,0.8-0.4,1.1c-0.3,0.2-0.3,0.3-0.2,0.7
		c0.2,0.8,0.5,0.8,0.8,1.4s0.6,1.3,0.9,2.1c0.3,0.8,0.7,1.6,1.1,2.3c0.4,0.5,0.8,0.9,1.2,1.3l0.1,0.1c0.4-0.2,0.7-0.4,0.9-0.6
		c0.6-0.4,1.8-1.9,2.1-2.2c0.3-0.3,0.6-0.6,0.8-1c0.2-0.5,0.9-1,1.3-1.6c0.2-0.4,0.2-0.7,0.4-0.9c0-0.2-0.1-0.4-0.1-0.6l-0.4-0.7
		l-0.7-0.6c-0.5-0.5-1.1-1-1.8-1.4c-0.7-0.4-1.5-0.7-2-1.1s-1.2-0.7-1.8-1.1s-0.4-0.6-0.8-0.8s-1.4-0.3-1.7-0.8s-0.5-1.3-0.1-1.3
		h0.6c0-0.2,0-0.4,0-0.7c-0.7-0.2-1.4-0.5-2-0.8c-0.4-0.3-0.8-0.6-1.1-1c-0.4-0.5-0.7-1.1-0.7-1.7c0.1-0.7,0.4-0.5,0.5,0
		s0.8,0.8,1.3,1c0.7,0.2,1.4,0.4,2.1,0.6c0,0,0,0,0-0.1c0-0.4,0-0.8,0-1.2c0-0.3,0.1-0.6,0.1-0.8c-0.6-0.3-1.1-0.7-0.8-1.2
		c0-0.1,0.1-0.2,0.2-0.3c0.3-0.3,0.6-0.6,0.8-1c0.3-0.5,0.7-0.9,1.2-1s0.5-0.4,0.8-0.6c0.2-0.2,0.6-0.3,0.9-0.2
		c0.3,0.1,0.4,0.3,0.7,0.4c0.3-0.1,0.7,0,1,0.1c0.3,0.1,0.6,0.3,0.9,0.5c0.4,0.4,0.8,0.7,1.3,1c0.4,0.2,0.6,0.2,1.4,0.4
		c0.5,0.2,1,0.4,1.5,0.7c0.3,0.1,1.1-0.3,1.6-0.2s0.8,0.4,1.1,0.7c0.7,0,1.3,0.2,1.8,0.7c0.3,0.3,0.5,0.7,0.7,0.8
		c0.4-0.1,0.8-0.1,1.2,0.1c0.1-0.2,0.2-0.5,0.4-0.8c0.2-0.4,0.5-0.8,0.8-1.2c0.4-0.4,0.6-0.8,0.9-1.1s0.8-0.2,0.7,0.3
		s-0.2,1.5-0.2,2c0,0.5-0.1,1.1-0.2,1.6c0,0.2-0.1,0.5-0.1,0.6c0.2,0,0.3-0.1,0.5-0.2c0.5-0.3,1.1-0.6,1.6-1c0.4-0.4,1-0.7,1.5-1.1
		c0.9-0.6,1.3-0.5,1.2,0.3c-0.1,0.7-0.2,1.5-0.4,2.2c-0.2,0.7-0.7,1.7-0.9,2.5c-0.2,0.7-0.5,1.3-1,1.8c-0.3,0.3-0.6,0.4-1,0.6
		c0,0.2,0,0.4,0,0.6c0.1,0.6,0.3,1.2,0.7,1.8c0.3,0.6,0.5,1,0,1.3c-0.4,0.4-0.8,0.7-1.3,1c-0.4,0.3-0.5,0.4-0.5,1.1s0.1,1.6,0.1,2.2
		c0,0.8,0.1,1-0.4,1.3s-1.5,1.1-2,1.4c-0.4,0.3-0.7,0.8-0.6,1.4c-0.1,0.6-0.1,1.6-0.2,2.5s0,1.1-0.8,1.4s-1.4,0.4-1.7,0.6
		c-0.5,0.1-0.9,0.5-1.1,1c-0.1,0.8-0.4,1.8-0.6,2.8s-0.4,1.1-1.2,1.3c-0.7,0.2-1.3,0.3-2,0.5c-0.8,0.1-1.1,0.4-1.1,0.9
		c0,0.4,0,0.8-0.1,1.2c-0.1,0.4-0.1,0.6,0.2,0.9c0.4,0.5,0.1,1.2-0.3,1.6c-0.5,0.5-1.1,0.8-1.8,1c-0.6,0.1-1.1,0.5-1.5,1
		c-0.5,0.6-1.2,1.1-2,1.4c-0.5,0.2-0.9,0.5-1.3,0.9c-0.5,0.4-1,0.6-1.6,0.8c-0.6,0.3-0.6,0.4-0.8,0.9c-0.4,0.5-0.9,0.8-1.5,1.1
		c-0.6,0.3-1.3,0.5-2,0.7c-1.1,0.2-1.8,0-2.8,0.6s-8.2,1.9-11.3,2c-3.3,0.1-6.5,0.7-8.3,0.6s-7.2-0.8-9.4-1c-3.5-0.4-7-1-10.5-2
		c-1.7-0.6-3.7-1.8-3.7-3.1c-0.1-0.5,0.2-1.1,0.7-1.4c1.1-0.5,1,0,0.7,0.4s0,1.2,0.6,1.6c0.6,0.4,1.3,0.6,2.1,0.6
		c0.7,0,1.4-0.2,2-0.5l0,0c-0.3-0.3-0.7-0.5-1-0.8c-1.1-0.9-2.4-1.6-3.7-2.2c-1.5-0.6-4.2-2.2-6.8-3.6c-2.8-1.5-5.3-3.4-7.5-5.6
		c-1.9-1.9-3.4-4.2-4.2-6.7c-0.8-2.4-1.1-5-0.8-7.6c0.2-1.9,0.8-3.8,1.8-5.4c1.1-1.9,2.8-3.4,4.8-4.2c2.2-0.9,4.4-1.3,6.8-1.4
		c-0.7-1-1.6-1.9-2.7-2.4c-2.1-1-4.2-1.9-6.5-2.5c-1.6-0.4-3.1-1.2-4.3-2.2c-1.1-1-1.7-2.5-1.4-4c0.6-2,1-1.2,0.9-0.3
		c-0.1,0.7,0.1,1.4,0.5,1.9c0.7,1.1,1.9,1.7,3.2,1.7c1.5,0.2,3.8,0.5,5.3,0.8c1.5,0.3,2.9,0.9,4.2,1.6c1.3,0.8,2.5,1.7,3.5,2.9
		c0.6,0.8,1.5,1.8,2.3,2.9c1.2,0.2,2.1,0.4,3,0.6s1.6,0.4,2.4,0.6c0-0.1,0-0.2,0-0.3c0.1-0.8,0.3-1.6,0.5-2.3
		c0.1-0.4,0.2-0.9,0.3-1.3c0-0.2,0-0.4-0.1-0.6c0-0.4,0-0.7,0.1-1.1c0.1-0.3,0.1-0.6-0.1-0.9c-0.3-0.8-0.4-1.6-0.3-2.4
		c0.1-1,0.5-1.9,1.1-2.6c0.2-0.2,0.3-0.4,0.3-0.7c0-0.1,0-0.2,0.1-0.3c0,0,0-0.1,0-0.1c0.2-1.8,0.5-3.6,0.9-5.4
		c0.2-0.6,0.3-1.1,0.4-1.7c-0.3-0.1-0.6-0.3-0.8-0.5c-0.2-0.1-0.5-0.4-0.5-0.6s0.3-0.3,0.5-0.7s0.6-1,0.8-1.4c0,0-0.2-0.2-0.3-0.3
		s0.3-0.4,0.4-0.6c0.2-0.3,0.4-0.7,0.6-1c0.3-0.7,0.5-1.5,0.8-2.2c-0.1-0.1-0.3-0.2-0.3-0.3c0.1-0.3,0.2-0.6,0.4-0.8
		c0.2-0.5,0.4-1,0.6-1.4s0.5-1.1,0.8-1.7c-0.3-0.2-0.2-0.5,0-1c0.2-0.5,0.5-0.9,0.8-1.3c0.4-0.5,0.6-0.5,0.5-1.4
		c-0.1-0.7-0.1-1.2-0.2-1.8c-0.2-1.6-0.3-3.1-0.4-4.7c0-0.3,0-0.9,0-0.8c-0.4,0.4-0.7,0.7-1.1,1.2c-0.9,1.1-1.8,2.2-2.8,3.2
		c-0.7,0.7-1.6,1.4-2.3,2.1c0,0,0.2,0.3,0.1,0.5s-0.5,0.2-0.5,0.3c-0.1,0.8-0.2,1.5-0.4,2.2c-0.1,0.5-0.6,0.9-1.2,0.9
		c-1.2,0-1.7,0-2.1,0c-0.1,0-0.4,0.5-0.6,0.5c-0.4,0.1-0.6-0.2-0.6-0.2c-1.4,1.1-3,2-4.6,2.8c-1.4,0.6-2.7,1.3-4.1,2
		c-0.1,0.1-0.3,0.2-0.4,0.3s-0.2,0.1-0.2,0s-0.2,0-0.2,0.1c-0.1,0.1-0.1,0.2-0.2,0.3c-0.2,0.3-0.5,0.5-0.8,0.7
		c-0.4,0.2-0.8,0.3-1.2,0.4c0.1,0.5,0.2,0.9,0.2,1.4c0.3,0.2,0.6,0.4,0.7,0.8c0.1,0.9-0.5,1.8-1.5,2c-0.7,0.1-1.5-0.3-1.8-1
		c-0.1-0.3,0-0.7,0.1-1c-0.1-0.2-0.5-1.1-0.6-1.3c-0.1,0-0.3,0-0.4,0c-0.3,0-0.5-0.2-0.6-0.5c-0.1-0.2-0.1-0.3-0.1-0.4
		s0-0.1-0.1-0.1c-0.3,0-0.5-0.2-0.6-0.5c-0.1-0.3-0.2-0.5-0.1-0.7s0.1-0.1,0-0.1s-0.3-0.3-0.4-0.7s-0.1-0.5,0.1-0.7s0.1-0.1,0-0.1
		s-0.2-0.3-0.2-0.7c0-0.4,0.2-0.7,0.6-0.8L57,63.4c-1.4,0.3-2.8,0.6-4.2,0.8L52,62.1c1.3,0.2,2.6,0.2,3.8,0l0.4-0.1l-0.3-1l-7-25.2
		c-0.7-2.6-0.3-6.9-0.1-7s2.9,3.3,3.7,5.9L60,59.8l0.3,1.1l0.3-0.2c1.2-0.5,2.3-1.2,3.2-2l0.4,2.2c-1.3,0.5-2.6,1.1-4,1.6
		c0,0.1,0,0.2,0.1,0.2c0.4,0,0.9,0,1.3,0.2c0.1,0,0.4,0,0.5,0.1s0.2,0.1,0.2,0c0-0.1,0.1-0.2,0.2-0.2c0.8-0.3,1.5-0.6,2.2-1.1
		c1.2-0.8,2.4-2.1,3.5-3s2.2-1.7,3.4-2.6c0.1,0-0.4-1.2,0.4-1.9s1.8,0,1.8-0.1c0.6-0.7,1-1.6,1.6-2.4c0.3-0.4,0.6-0.8,0.9-1.2
		c0.2-0.5,0.4-1,0.7-1.5c0.3-0.5,0.7-1,1.1-1.5c-0.7,0.4-1.3,0.8-2,1.2c-0.8,0.4-1.6,0.6-2.5,0.6c-0.4,0-0.8-0.1-1.2-0.2
		c0-0.3,0-0.7,0.2-1c0.4-0.9,1-1.6,1.6-2.4c-0.4,0.2-0.9,0.4-1.4,0.5c-0.9,0.3-1.9,0.4-2.9,0.3c-0.4,0-0.9-0.1-1.3-0.3
		c0.1-0.4,0.2-0.7,0.4-1c0.4-0.7,1-1.4,1.6-1.9c0.9-0.7,1.9-1.3,2.8-1.8c-1.3,0.4-2.6,0.8-4,1.1c-1.4,0.3-2.8,0.4-4.2,0.2
		c-0.3-0.1-1-0.2-1-0.3c0.1-0.3,0.3-0.7,0.6-0.9c0.6-0.6,1.2-1.2,1.9-1.7c1-0.6,2-1.2,3-1.7c-1.4,0.1-2.9,0.3-4.3,0.3
		c-1.5,0-2.9-0.2-4.4-0.5c-0.4-0.1-0.8-0.2-1.2-0.4c0-0.1,0.5-0.5,0.7-0.7c0.8-0.6,1.6-1.1,2.5-1.5c1.1-0.5,2.3-0.8,3.4-1.1
		c-1.4,0-2.8-0.1-4.2-0.3c-1.6-0.3-3.2-0.7-4.7-1.3c-0.4-0.2-1.2-0.6-1.2-0.8s0.6-0.5,0.9-0.6c0.7-0.4,1.4-0.6,2.2-0.9
		c1.2-0.3,2.4-0.5,3.5-0.6c-0.8-0.1-1.5-0.3-2.3-0.5c-1.1-0.3-2.3-0.6-3.4-1c-1-0.4-2-0.9-2.9-1.6C54.5,26.4,54,26,54,25.9
		c0.2-0.2,0.5-0.4,0.8-0.5c0.6-0.2,1.2-0.3,1.9-0.4c1.2-0.1,2.4-0.1,3.6-0.1c-1.5-0.5-3-1.2-4.5-2c-1-0.6-1.8-1.2-2.7-2
		c-0.3-0.3-0.6-0.7-0.8-1.1c0.4-0.2,0.8-0.3,1.2-0.4c1.2-0.2,2.4-0.2,3.6,0c-1.1-0.5-2.1-1.1-3-1.8c-0.8-0.6-1.6-1.4-2.1-2.3
		c-0.1-0.2-0.2-0.4-0.2-0.7c0.2-0.2,0.5-0.2,0.8-0.3c1,0,1.9,0,2.8,0.2c1.6,0.4,3.2,1,4.7,1.8c1.1,0.4,2.1,0.9,3.1,1.4
		c0-0.4,0.1-0.6,0.2-0.6c0.3,0.2,0.6,0.4,1,0.6c1.1,0.6,2.4,1,3.6,1.2c1,0.1,2.1,0.4,3,0.9c-0.1-0.3,0.1-0.8,0.2-0.7
		c0.4,0.3,0.8,0.5,1.2,0.6c1.2,0.4,2.4,0.7,3.6,1.1c2.3,0.7,4.4,2,6.2,3.6c1.3,1.4,2.1,3.2,2.3,5.1c0,1.4-0.2,2.8-0.8,4.1
		c-0.1,0.6,0.1,1.3,0.5,1.8c0.5,0.6,1,1.1,1.6,1.7l0.1,0.1l0.1-0.2c0.2-0.4,0.6-0.7,1.1-0.8c0.5,0.1,1,0.3,1.3,0.7
		c0.5,0.6,0.9,1.2,1.2,1.8c0.2,0.3-0.2-1-0.1-1.5s0.2-1,0.2-1.5c-3.9-4.9-3.2-12,1.7-16s12-3.2,16,1.7s3.2,12-1.7,16
		c-0.5,0.4-1.1,0.8-1.7,1.1c0.1,0.2,0.2,0.4,0.2,0.7C104.3,39.5,104.3,39.6,104.4,39.7L104.4,39.7z M134.1,75.2
		c0.8-0.2,1.6-0.2,2.4-0.2l0.1-9.7L134.1,75.2L134.1,75.2z M137.2,75c0.9,0,1.8,0.1,2.6,0.3l-2.6-9.4L137.2,75L137.2,75z
		 M115.3,75.1c-0.6,0.1-1.2,0.2-1.8,0.4l3-9.6L115.3,75.1L115.3,75.1z M125.7,53.4c0.3-0.4,0.7-0.6,1.2-0.6l0,0c0.1,0,0.3,0,0.4,0.1
		l0,0c0-0.2-0.4-0.8-0.4-1c-0.4-0.1-0.8-0.1-1.2-0.1c-0.4,0.1-0.6,0.6-0.6,1S125.4,53.2,125.7,53.4L125.7,53.4L125.7,53.4z
		 M80.8,110.6c0.4-0.5,1.1-1.5,1.6-2.2c0.7-1,1.3-2.1,1.8-3.3c0.1-0.4,0.2-0.7,0.4-1.1c0-0.2,0-0.4,0-0.5c0.1-0.5,0.4-0.9,0.8-1.2
		c0.5-0.3,1.1-0.5,1.6-0.7c0.2-0.1,0.4-0.1,0.7-0.2s0.2-0.2,0.3-0.3s0.3-0.2,0.4-0.4c0.1-0.2,0.3-0.4,0.6-0.6
		c0.4-0.3,0.5-0.3,0.6-0.5s-0.1-0.3-0.2-0.6c-0.1-0.2,0-0.5,0.2-0.7c0.2-0.1,0.3-0.2,0.3-0.3c0.1-0.2,0-0.5-0.1-0.6
		c-0.2-0.2-0.3-0.3,0-0.4c0.3-0.2,0.7-0.2,1,0c0.3,0.2,0.5,0.3,0.6,0.6s0.1,0.3,0.3,0.3c0.1,0,0.3,0.1,0.3,0.2c0,0,0,0,0,0
		c0,0.1,0,0.1,0.1,0.2c0.1-0.1,0.2-0.1,0.3-0.2c0.1-0.2,0.2-0.4,0.1-0.6c0-0.2-0.1-0.4-0.2-0.6c-0.2-0.2-0.2-0.3,0.2-0.3
		c0.3,0,0.6,0.2,0.8,0.4c0.2,0.3,0.4,0.6,0.3,1c0,0.3,0,0.3,0,0.5s0.3,0.3,0.3,0.5c0,0.1,0,0.2-0.1,0.3c0.1,0.1,0.3,0.1,0.4-0.1
		c0.2-0.1,0.2-0.4,0.2-0.6c0-0.3,0-0.4,0.3-0.2c0.3,0.1,0.5,0.4,0.6,0.7c0.1,0.3,0,0.6-0.1,0.9c-0.2,0.2-0.2,0.3-0.2,0.5
		c0,0.2,0,0.5-0.1,0.7c-0.2,0.2-0.4,0.4-0.7,0.6c-0.3,0.2-0.5,0.4-0.8,0.6c-0.2,0.3-0.5,0.5-0.9,0.6c-0.4,0.1-0.7,0.3-1.1,0.5
		c-0.4,0.2-0.7,0.5-1.1,0.8c-0.4,0.3-0.7,0.6-1.2,0.8c-0.4,0.3-0.8,0.7-1.1,1.1c-0.1,0.4-0.3,0.7-0.4,1.1c-0.3,0.6-0.5,1.2-0.7,1.8
		c-0.2,0.6-0.4,0.9-0.6,1.4c-0.1,0.3,0,0.5,0.1,0.7c0.6-0.1,1.1-0.1,1.7-0.2c1.7-0.1,3.4-0.6,5.4-0.8l0,0c1.6-0.2,3.1-0.2,4.7-0.1
		c1,0.2,4.2,0.4,5.1,0.6s1.5,0.2,1.9,0.3c-0.3-0.3-0.4-0.6-0.4-1c0-0.7,0.1-1.4,0.2-2.1c0.2-0.6,0.3-1.2,0.3-1.8
		c-0.1,0.1-0.3,0.2-0.4,0.3c-0.2,0.2-0.2,0.4-0.3,0.7c-0.1,0.2-0.2,0.5-0.4,0.6c-0.2,0.1-0.4,0.1-0.5,0c-0.2,0-0.4,0.1-0.6,0.2
		c-0.2,0.2-0.3,0.5-0.3,0.8c0.1,0.4-0.2,0.3-0.5,0.2c-0.2-0.1-0.4-0.3-0.5-0.5c-0.2-0.3-0.2-0.7-0.1-1c0.1-0.2,0-0.4,0-0.5
		c-0.1,0-0.2,0-0.4-0.1c-0.2,0.1-0.4,0.2-0.5,0.3c-0.1,0.1-0.2,0.3-0.2,0.5c0,0.2-0.2,0.2-0.4-0.1c-0.2-0.2-0.3-0.5-0.2-0.8
		c0-0.3,0.1-0.6,0.2-0.8c0-0.1,0-0.2,0-0.3c-0.1-0.1-0.1-0.3,0-0.4c0.1-0.3-0.2-0.2-0.4-0.2c-0.3,0.1-0.4,0.3-0.5,0.6
		c-0.1,0.3-0.4-0.1-0.4-0.5c-0.1-0.3,0-0.7,0.2-1c0.1-0.2,0.3-0.4,0.6-0.6c0.2-0.1,0.2-0.4,0.3-0.6c0.2-0.2,0.4-0.2,0.7-0.3
		c0.3-0.1,0.7-0.1,1-0.2c0.3,0,0.7,0,1,0c0.4,0,0.8-0.1,1.2-0.1c0.3-0.1,0.6-0.2,0.8-0.4c-0.2-0.6-0.4-1.2-0.6-1.7
		c-0.3-0.9-0.7-1.7-0.9-2.6c-0.4-1.2-0.7-2.3-0.9-3.5c-0.2-1-0.3-2.1-0.3-3.1c0-1,0.1-1.9,0.2-2.9c0,0,0-0.1,0-0.1
		c-0.8,0-1.3-1.1-1.5-1.8s-0.3-1.8,0.2-2.1c0.1-0.1,0.2-0.1,0.3-0.1c-0.2-0.3-0.5-0.6-0.7-0.9c-0.9-1-1.7-2.1-2.5-3.2
		c-0.8-1.1-1.5-2.2-2.1-3.4c-0.3-0.5-0.6-1-0.8-1.6l0,0c-0.9,0.2-1.8,0.3-2.6,0.2c-0.8,0-1.5-0.3-2.2-0.4h-0.1
		c-0.2,0.9-0.5,1.7-0.8,2.6c-0.5,1.5-0.9,3-1.5,4.4l-0.9,2.1c0.1,0,0.2,0,0.3,0c0.5,0.1,0.5,1.8,0.3,2.6s-0.7,1.8-1.5,1.7
		c-0.2,0-0.3-0.2-0.4-0.4c0,0.2,0,0.5-0.1,0.8c-0.1,1.2-0.2,2.3-0.3,3.5c-0.1,0.8-0.3,1.5-0.6,2.3c0,0.1,0,0.1-0.1,0.2
		c1.2,0.4,2.1,1.3,2.6,2.5c0.4,0.9,0.2,2-0.3,2.8c-0.6,0.7-1.5,1.1-2.4,1.2c-0.8,0.2-1.6,0.3-2.5,0.3c-0.2,0.7-0.6,1.5-0.8,2.2
		c-0.4,1.1-0.6,2.2-0.9,3.4c-0.1,0.7-0.1,1.5-0.1,2.2C80.9,109.9,80.9,110.3,80.8,110.6L80.8,110.6z M124.1,94
		c0.2,0,0.4,0.1,0.6,0.2l0.4,0.2c0.1-0.2,0.3-0.4,0.4-0.6l0,0l-0.4-0.1l-0.9-0.2C124.1,93.7,124.1,93.9,124.1,94L124.1,94z
		 M131.6,98c0.2,0.2,0.5,0.4,0.7,0.6c0.6,0.6,1.4,1,2,0.7h0.1c-0.2-0.1-0.4-0.3-0.6-0.5c-0.5-0.5-1-1-1.5-1.6
		c-0.6-0.6-1.3-1.2-2.1-1.7c-0.9-0.5-1.8-1-2.8-1.3c-0.2-0.1-0.5-0.1-0.9-0.2c-0.1,0.2-0.1,0.4-0.2,0.5c-0.1,0.2-0.1,0.4,0.2,0.3
		c0.3,0,0.5-0.1,0.7-0.2c0.3-0.2,0.4-0.2,0.4,0.1s0.1,0.3,0.1,0.5s-0.1,0.2,0.2,0.2c0.2,0,0.3,0,0.5-0.1c0.3-0.2,0.3-0.1,0.3,0.1
		s0.2,0.4,0.2,0.6s-0.1,0.4,0,0.4s0.4,0,0.6-0.1s0.2-0.1,0.4-0.1s0.3-0.1,0.3,0.2c0,0.2,0,0.4,0.1,0.6c0,0.2-0.1,0.5,0.1,0.4
		s0.4,0,0.5-0.1s0.4,0,0.4,0.2s0.1,0.3,0.1,0.5C131.5,97.9,131.5,98,131.6,98L131.6,98z M125.4,89.8L125.4,89.8
		c-0.1,0.3-0.1,0.7-0.2,1c-0.1,0.3-0.2,0.6-0.3,0.9l0,0l-0.7-0.1h-0.1c0.1-0.4,0.2-0.7,0.3-1.1c0.1-0.2,0.2-0.5,0.3-0.7L125.4,89.8
		L125.4,89.8z M125.9,91.8l0.1-0.1c0.1-0.2,0.3-0.6,0.5-1c0.1-0.2,0.2-0.4,0.3-0.6v-0.1h0.1v0.1c0,0.3,0,0.7,0.1,1
		c0,0.3,0.2,0.5,0.3,0.3s0.2-0.1,0.5-0.3s0.3-0.2,0.3,0.1c0,0.2,0,0.3,0.1,0.5c0,0.1,0.2,0.2,0.3,0.2c0.1,0,0.3,0,0.4,0
		c0.2,0,0.2,0,0.2,0.2c0,0.2,0,0.3,0.2,0.4c0.2,0.1,0.3,0.3,0.5,0.3c0.2,0,0.3,0,0.5-0.1c0.2-0.1,0.3,0,0.3,0.2
		c0,0.2,0.1,0.3,0.1,0.4c0.1,0.2,0.1,0.2,0.3,0.2s0.4,0.1,0.6,0.1c0.2,0,0.3,0,0.5-0.1h0.1c0.2,0.2,0.4,0.5,0.7,0.7
		c0.8,0.7,1.4,1.6,1.9,2.5c0.1,0.5,0.2,0.9,0.1,1.4l-0.4-0.3c-0.5-0.5-1.1-1.2-1.7-1.8c-0.7-0.8-1.5-1.5-2.4-2.2
		c-0.9-0.8-2-1.5-3.1-2c-0.4-0.1-0.8-0.3-1.2-0.3L125.9,91.8z M76.7,100.9c-0.6-0.2-1.2-0.5-1.8-0.9c-1.5-0.9-2.8-2.1-3.9-3.4
		c-0.2-0.2-0.3-0.4-0.5-0.6c-1.4-0.3-2.9-0.4-4.4-0.2c-1.9,0.2-3.5,1.2-4.7,2.7c-1,1.5-1.6,3.3-1.5,5.1c0.1,1.9,0.6,3.7,1.4,5.4
		c0.8,1.7,2.2,2.9,4,3.5c1.6,0.7,3.3,1.1,5.1,1.1c0.9,0,1.8-0.2,2.7-0.4c0.2-0.4,0.5-0.8,0.8-1.2c0.4-0.6,1-1.2,1.4-1.8
		c0.7-1,1.1-2.1,1.2-3.3c0.2-1.4,0.2-2.9,0.2-4.3C76.6,102,76.7,101.5,76.7,100.9"/>
	
		<path id="path18" style="clip-path:url(#SVGID_00000183207324672396339270000017274577678707523222_);fill-rule:evenodd;clip-rule:evenodd;fill:#FFFEFE;" d="
		M96.5,29c0,0.1,0,0.2,0,0.3c0,0.1,0,0.2,0.1,0.3c0.1,0.1-0.1,0-0.2,0c-0.1,0-0.2-0.1-0.2-0.2c0-0.1-0.1-0.1-0.1-0.2
		c0-0.1,0-0.1,0.1-0.1C96.3,29.1,96.4,29.1,96.5,29L96.5,29z M102,30.7c0,0.1-0.1,0.2-0.1,0.2c-0.1,0.1-0.2,0.2-0.3,0.2
		c0,0,0.1,0,0.2,0c0.1,0,0.2,0,0.3,0l0.2-0.1c0.1,0,0.1,0,0-0.2S102,30.7,102,30.7L102,30.7z M97,29.7c0.1,0,0.2-0.1,0.3-0.1
		c0.1-0.1,0.1-0.1,0.1-0.2c0,0,0,0,0.1,0.1l0.1,0.2c0,0,0.2,0.2,0,0.2s-0.2,0-0.2,0h-0.3C97,29.8,96.9,29.8,97,29.7L97,29.7z
		 M101.1,31c-0.1-0.1-0.1-0.2-0.1-0.2c0-0.1,0-0.1,0-0.2c0,0,0,0-0.1,0l-0.2,0.1c-0.1,0-0.2,0.1-0.1,0.1c0.1,0,0.1,0.1,0.2,0.1
		C100.9,30.9,100.9,30.9,101.1,31C101.1,31,101.2,31,101.1,31L101.1,31z M125.6,89.8c-0.1,0.2-0.1,0.6-0.2,0.8s-0.1,0.6-0.2,0.9
		c-0.1,0.2-0.1,0.4-0.2,0.6c0,0.2,0,0.3,0.2,0.1c0.2-0.2,0.4-0.4,0.6-0.7c0.2-0.3,0.5-0.9,0.6-1.1s0.2-0.4,0.2-0.4
		C126.2,89.9,125.9,89.8,125.6,89.8L125.6,89.8z M123.7,89.3c0.2,0.1,0.5,0.2,0.6,0.2s-0.1,0.3-0.1,0.5s-0.3,1.1-0.3,1.3l-0.4-0.1
		c0-0.3,0-0.7,0-1s0-0.5,0.1-0.7S123.6,89.3,123.7,89.3L123.7,89.3z M125.2,94.4c0.2,0.1,0.5,0.2,0.7,0.3c0.1-0.1,0.2-0.3,0.2-0.4
		c0.1-0.3,0.3-0.7,0.4-1c0.1-0.3,0.2-0.6,0.2-0.9c0-0.2-0.1-0.3-0.3,0c-0.2,0.3-0.3,0.6-0.5,0.8c-0.2,0.3-0.3,0.5-0.4,0.7
		C125.4,94,125.3,94.2,125.2,94.4L125.2,94.4z M127,90.1c0.3,0.1,0.6,0.3,0.9,0.5c0.2,0.1,0.1,0.2-0.1,0.3s-0.3,0.2-0.5,0.3
		s-0.3,0.2-0.3,0s-0.1-0.6-0.1-0.7S127,90,127,90.1L127,90.1z M128.4,90.8c0.3,0.2,0.8,0.5,1.1,0.7c0.4,0.3,0.8,0.6,1.1,0.9
		c0,0-0.1,0-0.3,0.1c-0.2,0.1-0.3,0.1-0.5,0.1c-0.2,0-0.5-0.1-0.5-0.3s0-0.4,0-0.5s0.1-0.2-0.2-0.1c-0.2,0.1-0.3,0.1-0.5,0.1
		c-0.1,0-0.4,0-0.4-0.2c0-0.2,0-0.4,0-0.6C128.2,90.9,128.2,90.7,128.4,90.8L128.4,90.8z M130.8,92.6c0.4,0.3,0.7,0.6,1,1
		c0.1,0.1-0.1,0.1-0.3,0.1s-0.3-0.1-0.5,0s-0.3-0.1-0.3-0.3c0-0.2,0-0.4,0-0.5c0-0.2,0.1-0.2,0.1-0.2L130.8,92.6z M126.5,95
		c0.2,0.1,0.5,0.3,0.8,0.5s1,0.6,1.3,0.8s1.2,0.5,1.4,0.7s0.2,0.2,0.2,0s0-0.3,0-0.6s0-0.4-0.2-0.3c-0.2,0.1-0.4,0.1-0.6,0.2
		c-0.1,0-0.3,0-0.4,0c-0.2,0-0.3,0-0.3-0.1c0-0.2,0.1-0.3,0.1-0.5c0-0.1,0-0.2-0.1-0.3c0,0,0-0.1,0-0.2c0-0.1,0-0.1-0.1,0
		c-0.1,0.1-0.3,0.2-0.4,0.2c-0.2,0-0.2,0-0.4,0s-0.2,0-0.1-0.2s0-0.2,0-0.4s0-0.3-0.2-0.2c-0.2,0.1-0.4,0.1-0.6,0.2
		C126.7,94.8,126.5,94.8,126.5,95L126.5,95z M130.5,97.4c0.3,0.1,0.5,0.3,0.8,0.4c0.1,0.1,0.1-0.1,0-0.2s0-0.2-0.1-0.3
		s0-0.2-0.2-0.1S130.4,97.3,130.5,97.4L130.5,97.4z M136,90.1c-0.2,0.2-0.2,0.5-0.2,0.8c0,0.2,0,0.1-0.1,0c-0.1-0.1-0.2-0.3-0.2-0.4
		c-0.1-0.2,0-0.3,0.1-0.4C135.8,90.1,135.9,90.1,136,90.1L136,90.1z M137,90.9c-0.1,0.2-0.2,0.5-0.6,0.6s-0.2,0,0,0.1
		c0.2,0.1,0.4,0.2,0.6,0.3c0.2,0.1,0.2,0.2,0.2-0.1c0-0.2,0-0.4,0-0.5C137.2,91.1,137.2,91,137,90.9L137,90.9z M83,40.5
		c0.4-0.3,0.8-0.6,1.3-0.9c0.8-0.3,1.4-0.9,1.7-1.7c-0.9-0.7-1.7-1.5-2.3-2.4c-0.4-0.5-0.5-1.3-0.1-1.9c0.6-1.3,0.8-2.8,0.5-4.3
		c-0.2-1.9-1.1-3.6-2.6-4.8c-1.7-1.3-3.6-2.4-5.6-3.1c-1.2-0.5-2.5-0.7-3.7-1.1c-0.5-0.1-0.6-0.5-0.6-0.3c-0.1,0.4,0,0.8,0.2,1.1
		c0.4,0.6,0.9,1.2,1.6,1.6c1,0.7,2.2,1.2,3.3,1.5c0.5,0.1,1.1,0.2,1.6,0.5c-0.8,0-1.6,0.2-2.4,0.6c-0.4,0.2-0.7,0.5-0.9,0.8
		c0.2,0.3,0.5,0.6,0.8,0.7c0.8,0.4,1.7,0.7,2.6,0.9c-0.6,0.2-1.1,0.5-1.6,0.9c-0.2,0.2-0.3,0.4-0.4,0.6c0.2,0.3,0.5,0.6,0.9,0.8
		c0.6,0.3,1.3,0.5,2,0.5c-0.6,0.2-1.3,0.6-1.8,1c-0.3,0.3-0.4,0.6-0.6,0.9c0,0.1,0.5,0.4,0.7,0.5c0.6,0.2,1.3,0.3,1.9,0.2
		c-0.5,0.4-1,0.8-1.5,1.3c-0.2,0.3-0.4,0.6-0.5,0.9c0.3,0.2,0.6,0.4,1,0.4c0.7,0.1,1.4,0.1,2-0.2c-0.4,0.4-0.8,0.8-1.2,1.2
		c-0.2,0.3-0.5,0.8-0.4,0.9c0.3,0.2,0.6,0.3,1,0.3c0.7,0.1,1.5,0,2.2-0.2c-0.4,0.4-0.7,1-1,1.5c-0.1,0.3-0.2,0.7-0.2,1
		c0.3,0.1,0.6,0.2,0.9,0.2C82.3,40.6,82.6,40.6,83,40.5L83,40.5z M76.2,29.9c-0.2,0-2.9,0.1-3.8,0c-1.6-0.1-3.1-0.7-4.4-1.6
		c-0.2-0.2-0.6-0.5-0.6-0.6c0.2-0.2,0.5-0.3,0.8-0.4c1.2-0.4,2.4-0.6,3.7-0.5c0.4,0.1,0.8,0.1,1.2,0c-0.4-0.2-1-0.3-1.4-0.4
		c-1.9-0.6-3.9-1-5.3-2.3c-0.2-0.2-0.6-0.5-0.6-0.6c0.2-0.2,0.5-0.4,0.8-0.4c0.7-0.2,1.5-0.3,2.3-0.2c0.9,0.1,1.9,0.2,2.8,0.4
		c0.2,0,0.7,0.1,0.8,0.1c-0.3-0.1-0.5-0.2-0.8-0.3c-1.3-0.4-2.6-0.7-3.9-1.2c-1.5-0.4-2.7-1.4-3.5-2.7c-0.2-0.3-0.2-0.7-0.2-1
		c0-0.3,0.3,0.2,0.8,0.4c0.8,0.4,1.7,0.7,2.6,0.9c1,0.2,2,0.3,2.9,0.6c0.3,0.1,0.8,0.3,0.9,0.6c0,0.3,0.2,0.7,0.4,0.9
		c0.6,0.7,1.3,1.3,2,1.8c0.7,0.4,1.3,0.7,2.1,1c0.3,0.1,0.5,0.2,0.8,0.3c-0.5,0.2-1,0.5-1.4,0.8c-0.2,0.2-0.4,0.4-0.5,0.6
		c0.1,0.3,0.3,0.5,0.6,0.8c0.4,0.3,0.9,0.6,1.3,0.8c0.3,0.1,0.6,0.2,0.8,0.3c-0.3,0.2-0.6,0.4-0.8,0.6c-0.2,0.2-0.6,0.6-0.6,0.7
		C75.9,29.5,76.1,29.7,76.2,29.9L76.2,29.9z M69.5,28c0.3,0.1,0.5,0.2,0.8,0.2c1.2,0.1,2.5,0.3,3.7,0.4c0.2,0,0.8,0.1,0.8-0.1
		c0-0.3-0.5-0.3-0.8-0.3c-1.2-0.1-2.5-0.1-3.7-0.2C70.1,28,69.2,27.9,69.5,28L69.5,28z M67.7,23.9c0.2,0.2,0.4,0.3,0.6,0.3
		c1,0.3,2.1,0.5,3.1,0.7c0.6,0.1,1.3,0.3,1.9,0.3c0.2,0,0.5,0,0.5-0.1s-0.3-0.2-0.5-0.3c-0.6-0.1-1.3-0.3-1.9-0.3
		c-1-0.1-2-0.3-2.9-0.5C68.2,24,67.6,23.8,67.7,23.9z M70.6,21c-0.8-0.3-1.5-0.4-2.3-0.5c-0.5-0.1-1.1-0.3-1.6-0.5
		c-0.2-0.1-0.6-0.4-0.5-0.2c0.1,0.2,0.3,0.3,0.4,0.4c0.5,0.2,1.1,0.4,1.7,0.6c0.7,0.1,1.4,0.3,2.2,0.5c0.2,0.1,0.6,0.2,0.6,0.1
		S70.8,21.1,70.6,21z M76.2,30.1c0.4,0.2,0.6,0.3,1,0.4s0.5,0.2,0.7,0.3c-0.3,0.1-0.5,0.3-0.7,0.5c-0.4,0.3-0.6,0.6-0.8,1
		c0,0.1,0.2,0.4,0.4,0.6c-0.7,0-1.6,0.1-2.3,0.1c-1.4,0.1-2.7-0.1-4-0.5c-0.4-0.1-0.8-0.3-1.2-0.5c0-0.1,0.6-0.5,1-0.6
		c0.7-0.3,1.5-0.6,2.2-0.8C73.7,30.2,75,30.1,76.2,30.1L76.2,30.1z M70.8,31.9c0.3,0.1,0.6,0.1,0.9,0.1c1.1,0,2.2,0,3.3-0.1
		c0.2,0,0.6,0,0.6-0.2s-0.4-0.2-0.6-0.2c-1.1,0.1-2.2,0.1-3.3,0.2C71.4,31.7,70.6,31.8,70.8,31.9z M78.2,33.7
		c-0.3-0.1-0.7-0.3-1-0.4c-0.8,0.1-1.7,0.3-2.5,0.5c-1,0.3-2,0.9-2.8,1.6c-0.2,0.2-0.6,0.5-0.6,0.6s0.4,0.2,0.7,0.3
		c1.1,0.2,2.2,0.3,3.3,0.2c0.8-0.1,1.6-0.3,2.3-0.6c-0.2-0.1-0.3-0.2-0.4-0.3c0-0.2,0.1-0.4,0.2-0.5C77.5,34.6,77.9,34.2,78.2,33.7
		L78.2,33.7z M72.5,35.7c0.3,0,0.6,0,0.9,0c1-0.2,1.9-0.4,2.9-0.6c0.2,0,0.6-0.1,0.6-0.3s-0.5-0.1-0.7-0.1c-1,0.2-1.9,0.5-2.9,0.7
		C73,35.5,72.2,35.8,72.5,35.7L72.5,35.7z M79.3,36.4c-0.5,0-1-0.1-1.5-0.2c-0.8,0.2-1.5,0.5-2.2,0.9c-0.8,0.4-1.5,1-2,1.7
		c-0.1,0.2-0.3,0.5-0.3,0.5c0.1,0.1,0.3,0.2,0.5,0.2c0.9,0.1,1.8,0.1,2.7-0.1c1-0.2,2-0.5,2.9-0.8c-0.2,0-0.4-0.1-0.7-0.2
		c-0.1-0.1-0.3-0.1-0.4-0.2c0-0.2,0.1-0.4,0.2-0.6C78.7,37.1,78.9,36.7,79.3,36.4L79.3,36.4z M74.4,39c-0.2,0.1,0.4,0,0.6-0.1
		c0.8-0.2,1.6-0.5,2.4-0.8c0.2-0.1,0.4-0.1,0.4-0.3s-0.4-0.1-0.6,0c-0.8,0.3-1.5,0.6-2.3,0.9C74.8,38.8,74.6,38.9,74.4,39L74.4,39z
		 M81.2,38.7c-0.4,0.1-0.8,0.1-1.1,0.1c-0.7,0.4-1.4,0.8-2,1.3c-0.6,0.6-1.1,1.2-1.5,1.9c-0.1,0.2-0.4,0.6-0.3,0.7s0.5,0.1,0.7,0.1
		c0.6,0,1.2-0.1,1.7-0.3c0.7-0.2,1.3-0.4,1.9-0.7c0.4-0.2,0.8-0.3,1.2-0.5c-0.3,0-0.5-0.1-0.8-0.1c-0.2,0-0.4-0.1-0.6-0.2
		c0-0.3,0.1-0.7,0.2-1C80.7,39.4,80.9,39,81.2,38.7L81.2,38.7z M77.3,42c0.1-0.1,0.3-0.3,0.4-0.4c0.6-0.3,1.1-0.7,1.7-1
		c0.2-0.1,0.6-0.3,0.6-0.2c0,0.3-0.2,0.5-0.4,0.6c-0.5,0.3-1.1,0.5-1.7,0.8C77.7,41.9,77.2,42.1,77.3,42L77.3,42z M80.4,44.6
		c-0.2,0.1-0.5,0.3-0.4,0.2c0.1-0.2,0.3-0.4,0.4-0.5h0.1c0.1-0.3,0.2-0.6,0.3-0.8c0.4-0.8,1-1.5,1.6-2.2h-0.3
		c-0.6,0.5-1.2,1.1-1.7,1.7c-0.4,0.6-0.8,1.2-1.1,1.9c-0.1,0.2-0.2,0.5-0.2,0.5c0.2,0,0.4,0,0.6,0l0.6-0.1
		C80.4,45,80.4,44.8,80.4,44.6z M63.3,18.4c-0.9-0.6-1.9-1.1-3-1.5c-1.3-0.6-2.6-1.1-3.9-1.6c-1-0.3-2-0.4-3-0.5
		c-0.2,0-0.6,0-0.7,0.1s0.2,0.6,0.4,0.8c0.4,0.5,0.8,1,1.3,1.4c0.9,0.7,1.8,1.3,2.8,1.7c1.6,0.8,3.3,1.5,5,2.2
		c0.7,0.3,1.5,0.6,2.2,0.9c0.2,0.1,0.7,0.3,0.5,0.3c-0.3-0.1-0.7-0.1-1-0.2c-1.1-0.3-2.2-0.7-3.3-1.1c-2-0.8-4.1-1.1-6.2-0.9
		c-0.3,0-0.7,0-1,0.1c0,0.1,0.4,0.6,0.7,0.8c0.8,0.8,1.7,1.4,2.7,2c1.6,0.9,3.3,1.6,5.1,2.1c1.6,0.5,3.3,0.8,5,1.1
		c0.2,0,0.8,0,0.7,0.1c-0.2,0.1-0.5,0.1-0.7,0c-1.2-0.1-2.5-0.2-3.8-0.4c-1.6-0.3-3.1-0.4-4.7-0.4c-0.9,0-1.8,0.2-2.7,0.4
		c-0.3,0.1-0.8,0.1-0.8,0.2s0.5,0.4,0.8,0.5c1,0.6,2.1,1.1,3.3,1.5c1.2,0.4,2.4,0.8,3.7,1.1c2,0.4,4,0.6,6,0.8
		c0.4,0,0.7,0.1,1.1,0.2c0.3,0.1-0.7,0-1.1,0.1c-1.8,0.1-3.5,0-5.2,0.1c-1.6,0.2-3.2,0.6-4.8,1.1c-0.3,0.1-0.8,0.3-0.8,0.4
		s0.7,0.4,1.1,0.5c1.6,0.6,3.4,1,5.1,1.1c1.9,0.1,3.8,0.1,5.7,0.1c0.8,0,1.7-0.1,2.3,0c-0.6-0.3-1.3-0.5-1.9-0.7
		c-0.5-0.2-1-0.4-1.4-0.8c0.1-0.3,0.3-0.5,0.5-0.7c0.8-0.5,1.6-0.9,2.5-1.2c-0.9-0.2-1.7-0.5-2.6-0.8c-0.7-0.3-1.4-0.8-2-1.3
		c-0.2-0.1-0.4-0.3-0.4-0.6c0.2-0.3,0.5-0.5,0.8-0.6c0.7-0.3,1.5-0.4,2.1-0.6c-0.6-0.3-1.6-0.5-2.4-0.9c-0.7-0.4-1.4-1-2-1.6
		c-0.1-0.2-0.3-0.3-0.3-0.5c-0.1-0.1,0.4-0.4,0.6-0.5c0.6-0.2,1.2-0.3,1.8-0.5c-1.1-0.5-2.2-1.3-3.1-2.1
		C63.6,19.7,63.3,19.1,63.3,18.4L63.3,18.4z M54.8,15.9c0.3,0.3,0.6,0.6,0.9,0.8c0.5,0.3,2.7,1.2,3.4,1.6s1.8,0.8,2.2,1
		s1,0.4,0.9,0.1s-0.4-0.4-0.9-0.6s-1.6-0.8-2.2-1s-2.6-1-3-1.2S54.7,15.7,54.8,15.9z M55.4,20.7c0.2,0.1,0.5,0.4,1,0.6
		s3,1.2,3.6,1.4l2.7,1c0.4,0.1,1.4,0.6,1.3,0.2s-0.6-0.5-1.2-0.7l-2.8-0.9c-0.7-0.2-2.7-0.9-3.3-1.1C56.4,21,55.9,20.8,55.4,20.7z
		 M56.8,26.4c0.2,0.1,0.9,0.2,1.4,0.4s1.9,0.5,3.3,0.8s2.3,0.4,3,0.5c0.7,0.1,1.3,0.2,1.1,0s-0.5-0.3-1.1-0.4s-1.8-0.3-3-0.4
		s-2.6-0.5-3.3-0.6S56.6,26.3,56.8,26.4L56.8,26.4z M59.8,32.1c0.3,0,1,0.1,1.7,0.1s3.2,0,4.2,0.1s2.1,0.2,1.8-0.1
		c-0.6-0.3-1.2-0.4-1.8-0.3c-0.8,0-3.5,0-4.1,0C60.9,31.8,60.3,31.9,59.8,32.1L59.8,32.1z M73.8,33.6L70.7,34
		c-1.5,0.3-3.1,0.5-4.7,0.9c-1.5,0.4-2.9,1-4.2,1.7c-0.3,0.2-0.9,0.4-0.9,0.6c0.3,0.1,0.6,0.2,0.9,0.2c1.2,0.3,2.3,0.4,3.5,0.5
		c1.6,0,3.1-0.1,4.6-0.3c1.1-0.2,2.2-0.4,3.2-0.6c-0.6-0.1-1.2-0.2-1.7-0.3c-0.4-0.1-0.8-0.3-1.1-0.5c0.2-0.3,0.4-0.6,0.6-0.9
		c0.5-0.4,0.9-0.7,1.5-1C72.9,34,73.3,33.8,73.8,33.6L73.8,33.6z M63.4,37c0.3,0,1-0.1,1.5-0.2s3-0.3,3.5-0.4s1.6-0.1,1.4-0.3
		S68.9,36,68.3,36s-2.9,0.4-3.4,0.5S63.1,37,63.4,37z M74.1,37.3c-0.8,0.3-1.7,0.5-2.5,0.8c-1.2,0.4-2.4,1-3.5,1.6
		c-0.8,0.5-1.6,1-2.3,1.6c-0.3,0.2-0.8,0.7-0.8,0.8s0.6,0.2,0.9,0.2c1.2,0,2.3-0.1,3.5-0.3c1.3-0.3,2.6-0.6,3.9-1.1
		c1-0.3,2-0.7,2.9-1c-0.7,0.1-1.4,0.1-2.1,0c-0.5-0.1-1-0.2-1.4-0.4c0.1-0.4,0.3-0.8,0.5-1.2C73.5,38.1,73.8,37.7,74.1,37.3z
		 M66.7,41.8c0.6-0.1,1.2-0.2,1.7-0.4c0.5-0.2,1.8-0.7,2.3-0.9s1.5-0.4,1.1-0.5c-0.4-0.1-0.9,0-1.2,0.2c-0.3,0.2-1.9,0.7-2.2,0.9
		S66.4,41.8,66.7,41.8z M77.4,39.9c-0.6,0.4-1.3,0.7-1.9,1c-1.2,0.6-2.4,1.3-3.4,2.1c-0.8,0.7-1.6,1.4-2.3,2.2
		c-0.2,0.2-0.5,0.7-0.5,0.7c0.3,0.1,0.6,0.2,0.8,0.1c1,0,2-0.2,2.9-0.4c1-0.3,1.9-0.6,2.8-1.1c0.7-0.5,1.3-1,2-1.5
		c-0.4,0-0.8,0-1.2,0c-0.4,0-0.8-0.1-1.1-0.2c0.1-0.3,0.2-0.7,0.4-1c0.2-0.4,0.5-0.9,0.8-1.3C77,40.4,77.2,40.1,77.4,39.9L77.4,39.9
		z M70.8,45.4c0.3-0.1,0.9-0.4,1.4-0.5c0.7-0.3,1.3-0.6,2-0.9c0.4-0.3,0.8-0.4,0.5-0.6s-0.5,0.1-0.8,0.3s-1.6,0.7-1.9,0.9
		S70.5,45.4,70.8,45.4L70.8,45.4z M80.1,42.5c-0.5,0.2-1.1,0.5-1.6,0.6c-0.8,0.7-1.8,1.3-2.6,1.9c-0.9,0.8-1.7,1.6-2.3,2.6
		c-0.2,0.3-0.5,0.9-0.5,1c0.4,0.1,0.8,0.1,1.2,0c1.1-0.2,2.1-0.6,3.1-1.1c1-0.6,2-1.1,3-1.7c-0.6,0-1.1,0-1.7-0.1
		c0-0.4,0.1-0.8,0.3-1.1C79.3,43.9,79.7,43.3,80.1,42.5L80.1,42.5z M74.5,47.8c0.4-0.2,0.7-0.3,1.1-0.5l1.8-1.1
		c0.4-0.2,0.6-0.4,0.4-0.5s-0.4-0.1-0.7,0.2s-1.2,0.8-1.6,1.1S74.3,47.9,74.5,47.8z M104.7,40.4c1.1-0.4,2.1-0.9,3.1-1.5
		c1-0.5,1.9-1.2,2.8-2c0.5-0.4,0.7-1.2,0.4-1.8c-0.3-1.4-0.3-2.9,0.2-4.3c0.5-1.8,1.8-3.4,3.4-4.3c1.9-1,3.9-1.7,6.1-2
		c1.3-0.2,2.6-0.3,3.8-0.5c0.5-0.1,0.7-0.4,0.7-0.2c0,0.4-0.1,0.8-0.4,1.1c-0.5,0.6-1.1,1-1.8,1.3c-1.1,0.5-2.3,0.8-3.6,0.9
		c-0.6,0-1.1,0.1-1.6,0.2c0.8,0.2,1.6,0.5,2.2,1c0.3,0.3,0.6,0.6,0.7,0.9c-0.3,0.3-0.6,0.5-1,0.6c-0.9,0.3-1.8,0.4-2.7,0.4
		c0.5,0.3,1,0.7,1.4,1.2c0.2,0.2,0.3,0.4,0.3,0.7c-0.3,0.3-0.6,0.5-1,0.6c-0.7,0.2-1.4,0.2-2.1,0.2c0.6,0.3,1.1,0.8,1.6,1.3
		c0.2,0.3,0.3,0.6,0.4,1c-0.2,0.2-0.5,0.3-0.8,0.4c-0.7,0.1-1.3,0.1-1.9-0.2c0.5,0.5,0.9,1,1.3,1.6c0.2,0.3,0.3,0.6,0.3,1
		c-0.3,0.2-0.7,0.2-1.1,0.2c-0.7,0-1.4-0.2-2-0.5c0.4,0.4,0.7,0.9,1,1.5c0.1,0.3,0.3,0.9,0.2,1c-0.3,0.1-0.7,0.2-1,0.2
		c-0.7,0-1.5-0.2-2.1-0.6c0.3,0.5,0.6,1.1,0.7,1.7c0.1,0.3,0.1,0.7,0,1c-0.3,0.1-0.6,0.1-0.9,0c-0.7-0.2-1.4-0.5-2-0.8
		c0.3,0.5,0.6,1,0.7,1.5c0.1,0.3,0.1,1,0,1c-0.3,0.1-0.7,0-1-0.1c-0.6-0.1-1.1-0.3-1.6-0.7c0,0.2,0,0.4,0,0.6
		c-0.3-1.3-1.1-2.4-2.2-3.2C105,40.6,104.8,40.4,104.7,40.4L104.7,40.4z M108.5,45c0.2,0.3,0.4,0.6,0.5,1c0.3,0.6,0.4,1.2,0.5,1.8
		c0,0.2,0,0.4,0,0.6c0,0.1-0.4,0-0.6-0.1c-0.4-0.2-0.7-0.4-1-0.6c0.1-1.3-0.1-2.5-0.5-3.7C107.8,44.3,108.2,44.7,108.5,45L108.5,45z
		 M118.8,32.7c0.2,0.1,2.9,0.6,3.8,0.7c1.6,0.2,3.2-0.1,4.6-0.8c0.2-0.1,0.7-0.4,0.7-0.5c-0.2-0.2-0.4-0.4-0.7-0.5
		c-1.1-0.6-2.3-1-3.5-1.1c-0.4,0-0.8-0.1-1.1-0.2c0.4-0.1,1-0.1,1.5-0.2c2-0.2,4-0.3,5.6-1.3c0.2-0.1,0.6-0.4,0.6-0.5
		c-0.2-0.2-0.4-0.4-0.7-0.6c-0.7-0.3-1.4-0.5-2.2-0.6c-0.9-0.1-1.9-0.1-2.8-0.1c-0.3,0-0.7,0-0.8-0.1c0.3-0.1,0.6-0.1,0.9-0.2
		c1.3-0.2,2.7-0.2,4-0.5c1.5-0.2,2.9-0.9,3.9-2c0.2-0.3,0.3-0.6,0.4-0.9c0-0.3-0.3,0.1-0.8,0.3c-0.9,0.2-1.8,0.4-2.7,0.4
		c-1,0.1-2-0.1-3,0c-0.3,0-0.8,0.2-1,0.5c-0.1,0.3-0.3,0.6-0.6,0.9c-0.7,0.6-1.4,1-2.2,1.4c-0.7,0.3-1.5,0.5-2.2,0.6
		c-0.3,0.1-0.6,0-0.8,0.1c0.4,0.3,0.8,0.6,1.2,1c0.2,0.2,0.3,0.4,0.4,0.7c-0.2,0.3-0.4,0.5-0.7,0.7c-0.5,0.2-1,0.4-1.5,0.5
		c-0.3,0.1-0.6,0.1-0.9,0.1c0.2,0.2,0.5,0.5,0.7,0.8c0.2,0.2,0.3,0.5,0.4,0.8C119.2,32.4,119,32.6,118.8,32.7L118.8,32.7z M125.9,25
		c0.8-0.1,1.6-0.1,2.4-0.1c0.5,0,1.1-0.1,1.6-0.1c0.2,0,0.7-0.2,0.5-0.1c-0.1,0.1-0.3,0.2-0.5,0.3c-0.6,0.1-1.1,0.2-1.7,0.3
		c-0.7,0-1.5,0-2.2,0.1c-0.2,0-0.6,0.1-0.6,0C125.6,25.1,125.7,25,125.9,25L125.9,25z M128.2,28.3c-0.2,0.1-0.4,0.2-0.6,0.2
		c-1.1,0.1-2.1,0.1-3.2,0.1c-0.7,0-1.3,0-2,0c-0.2,0-0.5,0-0.4-0.2s0.3-0.2,0.5-0.2c0.7,0,1.3,0,2,0c1,0,2,0.1,3,0.1
		C127.8,28.4,128.4,28.2,128.2,28.3L128.2,28.3z M125.7,32.1c-0.3,0-0.6,0.1-0.8,0.1c-1.2-0.1-2.5-0.2-3.7-0.3
		c-0.2,0-0.8-0.1-0.7-0.2c0.1-0.3,0.5-0.2,0.8-0.2c1.2,0.1,2.4,0.3,3.7,0.4C125.2,31.9,126,32,125.7,32.1z M118.7,33
		c-0.4,0.1-0.6,0.2-1,0.2c-0.3,0.1-0.5,0.1-0.8,0.1c0.2,0.2,0.5,0.4,0.7,0.6c0.3,0.3,0.5,0.7,0.6,1.1c0,0.1-0.2,0.4-0.5,0.5
		c0.7,0.2,1.5,0.3,2.2,0.5c1.3,0.3,2.7,0.4,4,0.2c0.4,0,0.9-0.1,1.3-0.3c0-0.1-0.6-0.6-0.9-0.8c-0.6-0.5-1.3-0.9-2-1.2
		C121.2,33.5,120,33.2,118.7,33L118.7,33z M123.7,35.6c-0.3,0-0.6,0-0.9-0.1c-1.1-0.2-2.2-0.4-3.3-0.7c-0.2,0-0.6-0.1-0.6-0.3
		s0.4-0.1,0.7,0c1.1,0.3,2.2,0.5,3.2,0.8C123.2,35.4,123.9,35.6,123.7,35.6L123.7,35.6z M116.2,36.1c0.4,0,0.7-0.1,1.1-0.2
		c0.8,0.3,1.6,0.6,2.4,1c1,0.5,1.8,1.3,2.5,2.1c0.2,0.2,0.5,0.6,0.5,0.7s-0.5,0.2-0.7,0.2c-1.1,0-2.2-0.1-3.2-0.3
		c-0.7-0.3-1.5-0.6-2.2-1c0.2,0,0.3-0.1,0.5-0.2c0-0.2,0-0.4-0.1-0.6C116.7,37.2,116.4,36.7,116.2,36.1L116.2,36.1z M121.4,39.1
		c-0.3,0-0.6-0.1-0.8-0.2c-0.9-0.3-1.8-0.7-2.7-1.1c-0.2-0.1-0.6-0.2-0.5-0.4s0.5,0,0.7,0c0.9,0.4,1.8,0.8,2.7,1.2
		C121,38.8,121.7,39.1,121.4,39.1L121.4,39.1z M114.6,38.5c0.5,0.1,1,0.1,1.5,0.1c0.7,0.4,1.4,0.8,2,1.3c0.7,0.5,1.2,1.2,1.6,2
		c0.1,0.2,0.2,0.5,0.2,0.6c-0.2,0.1-0.3,0.1-0.5,0.1c-0.9,0-1.8-0.2-2.7-0.6c-1-0.3-1.9-0.8-2.8-1.3c0.2,0,0.5,0,0.7-0.1
		c0.2,0,0.3-0.1,0.4-0.1c0-0.2,0-0.4-0.1-0.6C115,39.4,114.8,39,114.6,38.5L114.6,38.5z M118.9,42c0.1,0.2-0.4-0.1-0.6-0.2
		c-0.8-0.4-1.5-0.8-2.2-1.2c-0.2-0.1-0.3-0.2-0.4-0.4s0.4,0,0.6,0.1c0.7,0.4,1.4,0.8,2.1,1.3C118.6,41.7,118.8,41.8,118.9,42z
		 M112.3,40.5c0.3,0.2,0.7,0.3,1.1,0.3c0.6,0.5,1.2,1,1.7,1.7c0.5,0.6,0.8,1.3,1.1,2.1c0.1,0.2,0.2,0.5,0.2,0.7
		c-0.1,0.1-0.5,0-0.8-0.1c-0.6-0.1-1.1-0.3-1.6-0.6c-0.6-0.3-1.2-0.7-1.8-1.1c-0.4-0.2-0.7-0.5-1-0.8c0.2,0,0.5,0,0.7,0
		c0.2,0,0.4,0,0.6-0.1c0-0.3,0-0.7,0-1C112.6,41.3,112.5,40.8,112.3,40.5L112.3,40.5z M115.6,44.5c-0.1-0.2-0.2-0.3-0.4-0.4
		c-0.5-0.4-1-0.8-1.5-1.3c-0.2-0.1-0.5-0.5-0.5-0.3c0,0.3,0.1,0.5,0.3,0.7c0.5,0.4,1,0.8,1.5,1.1C115.2,44.3,115.6,44.6,115.6,44.5z
		 M110.2,42.5c0.1,0.4,0.2,0.8,0.3,1.2c0,0.3,0,0.5-0.1,0.8c-0.2,0-0.5,0-0.7,0c-0.3,0-0.7,0-1-0.1c0.2,0.3,0.4,0.5,0.6,0.8
		c0.5,0.6,1.1,1.1,1.8,1.5c0.5,0.2,0.9,0.4,1.4,0.5c0.2,0.1,0.4,0.1,0.6,0.1c0,0,0-0.4-0.1-0.5c-0.1-0.7-0.4-1.4-0.7-2.1
		c-0.4-0.7-0.8-1.3-1.3-1.9C110.7,42.7,110.4,42.6,110.2,42.5L110.2,42.5z M112.4,46.7c0,0.2-0.3-0.2-0.5-0.4
		c-0.4-0.4-0.7-0.8-1-1.2c-0.1-0.1-0.2-0.3-0.1-0.4s0.3,0,0.4,0.2c0.3,0.4,0.6,0.8,0.8,1.2c0.1,0.1,0.2,0.3,0.3,0.5V46.7z
		 M133.5,23.8c1-0.4,2.1-0.7,3.3-0.9c1.4-0.4,2.8-0.7,4.2-0.9c1-0.1,2-0.1,3,0.1c0.2,0,0.6,0.1,0.7,0.2s-0.3,0.5-0.5,0.7
		c-0.5,0.4-1,0.8-1.6,1.1c-1,0.5-2,0.9-3.1,1.2c-1.8,0.5-3.6,0.9-5.4,1.2c-0.8,0.2-1.6,0.3-2.4,0.5c-0.2,0-0.8,0.1-0.6,0.2
		c0.3,0,0.7,0,1-0.1c1.2-0.1,2.3-0.3,3.5-0.5c2.1-0.4,4.3-0.3,6.3,0.3c0.3,0.1,0.7,0.2,1,0.3c0,0.1-0.5,0.5-0.8,0.6
		c-0.9,0.6-2,1.1-3,1.5c-1.8,0.6-3.6,1-5.4,1.2c-1.7,0.2-3.4,0.2-5.1,0.2c-0.2,0-0.8-0.1-0.7,0c0.2,0.1,0.4,0.2,0.7,0.2
		c1.2,0.1,2.5,0.2,3.8,0.3c1.6,0,3.1,0.2,4.7,0.5c0.9,0.2,1.8,0.5,2.6,0.9c0.3,0.1,0.8,0.3,0.8,0.4s-0.6,0.3-0.8,0.4
		c-1.1,0.4-2.3,0.7-3.5,0.9c-1.3,0.2-2.5,0.3-3.8,0.4c-2,0-4-0.2-6-0.3c-0.4,0-0.7,0-1.1,0c-0.3,0.1,0.7,0.2,1,0.3
		c1.7,0.4,3.4,0.6,5.1,1.1c1.6,0.5,3.1,1.2,4.5,2c0.3,0.1,0.8,0.4,0.7,0.5s-0.8,0.3-1.2,0.3c-1.7,0.3-3.5,0.3-5.2,0.2
		c-1.9-0.2-3.8-0.6-5.6-1c-0.8-0.2-1.6-0.4-2.3-0.5c0.7-0.1,1.3-0.2,2-0.3c0.5-0.1,1-0.3,1.5-0.5c-0.1-0.3-0.2-0.5-0.4-0.8
		c-0.7-0.6-1.4-1.2-2.2-1.7c0.9,0,1.8-0.1,2.7-0.3c0.8-0.2,1.5-0.5,2.2-0.9c0.2-0.1,0.4-0.3,0.5-0.5c-0.1-0.3-0.4-0.6-0.7-0.7
		c-0.6-0.4-1.4-0.7-2-1c0.6-0.2,1.7-0.2,2.5-0.5c0.8-0.3,1.5-0.7,2.2-1.2c0.2-0.1,0.3-0.3,0.4-0.5c0.1-0.1-0.3-0.4-0.5-0.5
		c-0.5-0.3-1-0.5-1.5-0.8c1.2-0.3,2.4-0.9,3.4-1.5C133,25,133.3,24.4,133.5,23.8L133.5,23.8z M134.5,37.9c-0.3,0-1-0.1-1.7-0.2
		s-3.1-0.5-4.1-0.7s-2.1-0.2-1.8-0.4c0.6-0.2,1.2-0.2,1.9,0c0.8,0.1,3.4,0.6,4,0.7C133.4,37.4,134,37.6,134.5,37.9L134.5,37.9z
		 M142.3,22.9c-0.3,0.3-0.7,0.5-1.1,0.6c-0.5,0.2-2.8,0.7-3.7,0.9s-1.9,0.5-2.3,0.6s-1.1,0.2-0.9-0.1s0.5-0.3,1-0.4s1.7-0.5,2.4-0.6
		s2.8-0.6,3.2-0.7S142.5,22.8,142.3,22.9L142.3,22.9z M140.8,27.6c-0.2,0.1-0.6,0.3-1.1,0.4s-3.1,0.6-3.8,0.7s-2.4,0.4-2.9,0.4
		s-1.5,0.3-1.3,0s0.7-0.4,1.3-0.5l2.9-0.4c0.7-0.1,2.9-0.4,3.4-0.5C139.9,27.7,140.4,27.6,140.8,27.6L140.8,27.6z M138.4,32.9
		c-0.2,0.1-0.9,0.1-1.5,0.1s-1.9,0-3.4,0h-3.1c-0.7,0-1.3,0-1.1-0.2s0.5-0.2,1.2-0.2s1.9,0.1,3,0.1s2.6,0,3.3,0s1.8,0,1.6,0.1
		L138.4,32.9z M120.4,36.9c1,0.3,2,0.7,2.9,1c1.5,0.5,3,1.1,4.4,1.8c1.4,0.6,2.7,1.4,3.9,2.3c0.2,0.2,0.8,0.6,0.8,0.7
		c-0.3,0.1-0.6,0.1-0.9,0.1c-1.2,0.1-2.4,0-3.6-0.2c-1.5-0.3-3-0.6-4.5-1.2c-1-0.4-2-0.8-3.1-1.1c0.6,0.1,1.2,0.1,1.8,0
		c0.4-0.1,0.8-0.2,1.2-0.3c-0.1-0.3-0.2-0.7-0.4-1c-0.4-0.5-0.8-0.9-1.2-1.3c-0.4-0.3-0.7-0.6-1.1-0.9L120.4,36.9z M130.1,42
		c-0.3-0.1-1-0.3-1.4-0.4s-2.9-0.9-3.4-1s-1.6-0.4-1.3-0.6s0.9,0,1.4,0.2s2.8,0.9,3.3,1.1S130.4,42.1,130.1,42L130.1,42z
		 M119.5,40.4c0.8,0.4,1.5,0.8,2.3,1.3c1.1,0.7,2.2,1.4,3.2,2.2c0.7,0.6,1.4,1.3,2,2c0.2,0.3,0.6,0.8,0.6,0.9s-0.6,0.1-1,0.1
		c-1.2-0.2-2.3-0.4-3.4-0.9c-1.2-0.5-2.5-1.1-3.6-1.8c-0.9-0.5-1.8-1-2.7-1.5c0.7,0.2,1.4,0.4,2.1,0.4c0.5,0,1,0,1.5-0.1
		c0-0.4-0.1-0.9-0.2-1.3C120,41.3,119.8,40.9,119.5,40.4L119.5,40.4z M126,46.1c-0.6-0.2-1.1-0.4-1.6-0.7c-0.4-0.2-1.7-1-2.1-1.3
		s-1.4-0.7-1-0.7c0.4,0,0.9,0.1,1.2,0.4c0.3,0.2,1.7,1,2,1.3S126.2,46.2,126,46.1L126,46.1z M115.8,42.3c0.5,0.5,1.1,0.9,1.7,1.4
		c1.1,0.8,2.1,1.7,3,2.7c0.7,0.8,1.3,1.7,1.9,2.7c0.1,0.3,0.4,0.7,0.3,0.8c-0.3,0.1-0.6,0.1-0.9,0c-1-0.2-1.9-0.5-2.8-0.9
		c-0.9-0.4-1.8-1-2.6-1.6c-0.6-0.7-1.2-1.2-1.8-1.8c0.4,0.1,0.8,0.2,1.2,0.2c0.4,0,0.8,0,1.2,0c0-0.4-0.1-0.7-0.2-1.1
		c-0.2-0.5-0.4-1-0.6-1.4C116.2,42.9,116,42.6,115.8,42.3L115.8,42.3z M121.3,48.8c-0.3-0.1-0.8-0.5-1.3-0.8
		c-0.6-0.4-1.2-0.8-1.8-1.2c-0.4-0.3-0.7-0.5-0.4-0.7s0.5,0.2,0.7,0.4s1.4,1,1.7,1.2S121.6,49,121.3,48.8L121.3,48.8z M112.7,44.4
		c0.5,0.3,1,0.7,1.4,0.9c0.7,0.8,1.5,1.5,2.2,2.4c0.7,0.9,1.4,1.9,1.8,3c0.2,0.3,0.3,0.7,0.3,1c-0.4,0-0.8-0.1-1.2-0.2
		c-1-0.4-2-0.9-2.8-1.7c-0.9-0.8-1.8-1.5-2.6-2.2c0.6,0.1,1.1,0.2,1.7,0.2c0-0.4,0-0.8-0.1-1.2C113.2,45.9,113,45.1,112.7,44.4z
		 M117.3,50.6c-0.2-0.1-0.6-0.4-0.9-0.7l-1.6-1.4c-0.3-0.3-0.5-0.5-0.3-0.5s0.4,0,0.7,0.3s1.1,1,1.3,1.3S117.5,50.7,117.3,50.6
		L117.3,50.6z M109.7,46.3c0.4,0.4,0.8,0.7,1.3,1c0.7,0.8,1.4,1.6,2.1,2.4c0.6,0.8,1,1.6,1.2,2.5c0.1,0.3,0.1,0.7,0.1,1
		c-0.3,0-0.7-0.1-1-0.3c-0.9-0.5-1.8-1.1-2.6-1.9c-0.8-0.8-1.6-1.7-2.3-2.5c0.5,0.2,0.9,0.3,1.4,0.5c0.1-0.4,0.2-0.8,0.1-1.3
		C109.9,47.3,109.8,46.8,109.7,46.3L109.7,46.3z M113.6,52.3c-0.3-0.2-0.6-0.4-0.9-0.7c-0.3-0.3-1.4-1.6-1.6-1.9s-0.2-0.3-0.1-0.4
		s0.3,0.1,0.5,0.3s1.4,1.7,1.7,2S113.7,52.4,113.6,52.3L113.6,52.3z M101,22.7c-0.2-0.4-0.5-0.7-1-0.8c-0.5-0.1-0.9-0.1-1.4,0.1
		l-1.7,0.4c-0.6,0.1-1.1,0.4-1.5,0.8c-0.4,0.5-0.8,1-1.1,1.5c-0.2,0.5-0.5,1.1-0.8,1.8c-0.3,0.8-0.8,1.6-1.3,2.2
		c-0.5,0.4-0.9,0.9-1.1,1.5c-0.3,0.6-0.4,1.1-0.5,1.8c0,0.4-0.2,1.3-0.2,1.6c-0.1,0.2-0.1,0.4,0,0.6c0.1,0.6,0.1,1.2,0,1.8
		c-0.1,0.5-0.1,1.3-0.1,1.8s0,0.9,0.1,0.5c0.1-0.5,0.3-0.9,0.5-1.4c0.2-0.3,0.3-0.7,0.4-1c0-0.3,0.2-0.1,0.3,0.2
		c0.1,0.4,0,0.8-0.2,1.1c-0.2,0.3-0.6,0.9-0.5,1.2s0.1,0.3,0.3,0.2c0.3-0.1,0.6-0.3,0.8-0.5c0.2-0.4,0.3-0.9,0.4-1.3
		c0.1-0.3,0-0.8,0.2-0.7c0.2,0.2,0.3,0.5,0.3,0.8c0,0.2,0,0.5,0,0.7c0,0.3,0,0.3,0.2,0.2s0.3-0.4,0.4-0.6s0.3-0.7,0.4-1
		c0.1-0.2,0.1-0.5,0-0.8c-0.2-0.6-0.3-1.2-0.3-1.7c0-0.5-0.1-2.2-0.2-2.5s0-0.3-0.2,0s-0.2,0.4-0.3,0.5s-0.1,0.3-0.2,0
		c-0.1-0.2-0.1-0.5,0-0.8c0.1-0.3,0.3-0.6,0.6-0.8c0.3-0.3,0.6-0.7,0.8-1.1c0.2-0.4,0.8-1.5,1-1.7c0.1-0.2,0.3-0.4,0.4-0.6
		c0.1-0.1,0.1-0.4,0.2-0.7s0.4-0.6,0.8-0.6s0.2,0.1,0,0.4s-0.3,0.3-0.3,0.5s0.1,0.1,0.3,0c0.3-0.2,0.6-0.4,0.9-0.5
		c0.2,0,0.5-0.1,0.7-0.2c0.2-0.1,0.2-0.4,0.4-0.5s0.4-0.1,0.5-0.1s0.1,0.2,0,0.3c-0.2,0.1-0.3,0.3-0.5,0.4c-0.1,0.2-0.5,0.4-0.1,0.3
		c0.5,0,0.9-0.2,1.3-0.5c0.2-0.2,0.5-0.8,0.8-1.1s0.3-0.7,0.5-1.1C101.2,23.3,101.1,23,101,22.7L101,22.7z M92.6,35.8
		c0-0.3,0-0.7,0-1c-0.1-0.5-0.1-0.9-0.1-1.4c0-0.4,0.1-0.8,0.1-1.2c0.1-0.2,0-0.2-0.2,0c-0.2,0.2-0.4,0.4-0.5,0.7
		c-0.1,0.4-0.1,0.7,0,1.1c0.1,0.4,0.2,0.8,0.3,1.1C92.4,35.4,92.6,35.9,92.6,35.8z M103.4,32.6c-0.1,0.3-0.2,0.5-0.3,0.7
		c-0.1,0.4-0.2,0.7-0.3,1.1c0,0.5-0.1,1-0.2,1.5c-0.1,0.3-0.2,0.6-0.3,0.9c-0.2,0.2-0.3,0.4-0.4,0.7c-0.1,0.2,0,0.3,0.2,0
		s0.4-0.3,0.6-0.5c0.2-0.3,0.4-0.6,0.5-0.9c0.1-0.4,0.1-0.8,0.1-1.2c-0.1-0.4-0.1-0.8,0-1.1c0.1-0.3,0.1-0.6,0.2-0.9
		C103.6,32.7,103.5,32.4,103.4,32.6z M101.6,22.9c0.4-0.2,1-0.1,1.3,0.2c0.3,0.3,0.8,0.7,1.1,1c0.4,0.4,0.6,1,0.8,1.5
		c0.1,0.7,0.2,1.3,0.2,2c0,0.5-0.1,1.8-0.2,2.4c0,0.7,0,1.4,0,2.1c0.1,0.7,0.1,1.5,0,2.2c-0.2,0.6-0.4,1.3-0.7,1.8
		c-0.3,0.4-0.6,0.8-1,1.2c-0.4,0.5-0.8,1-1.2,1.5c-0.1,0.2-0.3,0.5-0.5,0.6c-0.3,0.3-0.6,0.5-0.8,0.6s-0.1,0.1-0.3,0
		s-0.3-0.1-0.3-0.4c0-0.4,0.1-0.8,0.2-1.2c0.1-0.3,0.3-0.8,0.5-1.1s0.1-0.3,0.1-0.4s-0.1,0-0.2,0.2c-0.2,0.2-0.4,0.4-0.6,0.6
		c-0.3,0.3-0.5,0.6-0.6,0.9c-0.1,0.3,0,0.6,0.1,0.9c0.1,0.2,0.1,0.3-0.1,0.2c-0.2-0.1-0.3-0.2-0.5-0.3c-0.2-0.1-0.3-0.2-0.4-0.4
		c0-0.2,0-0.3,0-0.5c0-0.2,0.1-0.4,0.1-0.6c0-0.2,0.1-0.2,0.3-0.4c0.3-0.2,0.5-0.4,0.8-0.6c0.2-0.2,0.8-1,1-1.1
		c0.3-0.3,0.6-0.7,0.8-1.1c0.2-0.3,0.6-1,0.7-1.3s0.5-1.1,0.6-1.6s0.3-1,0.4-1.5s0.2-0.5,0-0.9s-0.6-1.1-0.8-1.5
		c-0.3-0.5-0.5-1.1-0.6-1.7c0-0.6-0.1-0.3-0.2-0.1s0,0.5-0.1,0.3c-0.3-0.4-0.5-0.8-0.6-1.2c0-0.4-0.2-0.5-0.2-0.8
		c0-0.3,0.1-0.5,0.2-0.8c0-0.2,0.1-0.4,0.2-0.5C101.5,23,101.6,22.9,101.6,22.9L101.6,22.9z M81.2,44.1c0.2-0.8,0.6-1.6,1.2-2.2
		c0.9-0.9,1.8-1.6,2.9-2.2c0.7-0.3,1-0.5,1.1-0.9c0-0.5,0.2-1,0.5-1.5c0.3-0.4,0.6-0.5,1-0.2c0.6,0.6,1.1,1.4,1.5,2.2
		c0.5,1.1,0.9,2.2,1.1,3.4c0.2,1.2,0.3,2.5,0.2,3.7c0,1-0.4,2.1-1,2.9c-0.5,0.6-1.2,1-2,1.2c-0.7,0.3-1.4,0.3-2.1,0.1
		c-0.6-0.1-1.2-0.6-1.3-1.3c-0.3-1.2-0.9-2.2-1.5-3.2c-0.4-0.5-0.9-0.8-1.5-1c-0.4-0.1-0.3-0.2-0.3-0.5C81,44.5,81,44.3,81.2,44.1
		L81.2,44.1z M86.8,39.3c0.6,0.4,1,0.9,1.4,1.5c0.4,0.7,0.8,1.4,1,2.1c0.2,0.9,0.4,1.7,0.4,2.6c0,0.5,0,0.5-0.2-0.1
		c-0.2-0.8-0.4-1.6-0.6-2.4c-0.5-1.2-1.2-2.4-2-3.4C86.6,39.3,86.6,39.2,86.8,39.3L86.8,39.3z M94.6,36.6c0.3,0.3,0.6,0.6,1,0.8
		c0.5,0.3,1,0.5,1.6,0.6c0.3,0,0.7,0,1-0.2c0.2-0.1,0.2-0.1,0.2,0.2c-0.1,0.4-0.1,0.9-0.1,1.3c0,0.4,0.1,0.4-0.2,0.5
		c-0.3,0.2-0.7,0.4-1.1,0.6c-0.3,0.1-0.7,0.1-1,0.1c-0.5-0.1-1-0.2-1.4-0.5c-0.4-0.2-0.7-0.5-1-0.8c-0.1-0.2-0.3-0.3-0.3-0.5
		c-0.1-0.2-0.1-0.2,0.1-0.2c0.2-0.2,0.4-0.4,0.5-0.7c0.2-0.3,0.3-0.7,0.4-1C94.4,36.5,94.4,36.4,94.6,36.6z M92.8,39
		c0.2,0.4,0.4,0.7,0.8,1c0.4,0.4,0.8,0.6,1.3,0.8c0.6,0.2,1.3,0.3,1.9,0.2c0.5,0,1-0.2,1.5-0.6c0.2-0.2,0.4-0.4,0.5-0.6
		c0.1-0.2,0.1-0.2,0.4,0s0.6,0.4,0.9,0.5s0.3,0.2,0.1,0.5s-0.6,1-0.7,1.3s0,0.3-0.4,0.5c-0.5,0.3-1.1,0.5-1.7,0.6
		c-0.8,0.1-1.6,0-2.4-0.1c-0.8-0.2-1.7-0.6-2.4-1c-0.5-0.3-1-0.7-1.4-1.1c-0.2-0.1-0.3-0.3-0.4-0.5c-0.1-0.2-0.3-0.6-0.4-0.9
		s-0.2-0.2,0.1-0.2c0.4-0.1,0.8-0.2,1.1-0.3c0.3-0.1,0.7-0.2,1-0.3S92.7,38.6,92.8,39L92.8,39z M91.2,41.9c0.2,0.1,1.4,0.8,1.9,1.1
		c0.7,0.4,1.5,0.6,2.3,0.7c1,0.1,2,0,3-0.2c0.5-0.2,0.3-0.2,0.3,0.4s-0.2,1.2-0.3,1.7s0,0.5-0.3,0.7c-0.4,0.3-0.9,0.5-1.3,0.6
		c-0.7,0.1-1.3,0.2-2,0.1c-0.7-0.1-1.3-0.4-1.9-0.8c-0.4-0.4-0.9-0.8-1.3-1.2c-0.3-0.2-0.3-0.2-0.3-0.7s-0.2-1.8-0.2-2.2
		S91,41.7,91.2,41.9L91.2,41.9z M103,39.1c0.4-0.2,0.7-0.2,0.9,0.1c0.2,0.2,0.2,0.5,0.2,0.8c0,0.3,0.1,0.6,0.3,0.8
		c0.3,0.3,0.6,0.5,1,0.8c0.5,0.5,0.9,1.1,1.2,1.7c0.4,0.8,0.6,1.7,0.7,2.5c0.1,0.8,0.1,1.3,0.1,1.9s0.1,0.5-0.5,0.6
		c-0.9,0.2-1.6,0.7-2.2,1.3c-0.8,0.8-1.3,1.8-1.8,2c-0.5,0.3-1,0.4-1.6,0.2c-0.7-0.4-1.3-1-1.6-1.8c-0.5-1.1-0.8-2.3-0.8-3.5
		c0-1.3,0.3-2.6,0.8-3.8c0.4-1,1-1.8,1.7-2.6C101.9,39.8,102.4,39.4,103,39.1L103,39.1z M104,40.9c-0.1,0.3-0.3,0.5-0.5,0.6
		c-0.4,0.3-0.8,0.7-1.1,1.1c-0.4,0.7-0.8,1.3-1.2,2.1c-0.2,0.5-0.3,0.7-0.4,1.2s-0.2,0.9-0.3,1.1s-0.2,0.3-0.2-0.1
		c0-0.6,0.1-1.2,0.3-1.8c0.2-0.7,0.5-1.4,0.8-2c0.4-0.6,0.8-1.2,1.3-1.7C103.1,41.1,104,40.7,104,40.9z M81.1,45.8
		c0.5,0.2,1,0.5,1.4,1c0.4,0.6,0.7,1.3,1,2c0.2,0.4,0.3,0.8,0.5,1.2c0.1,0.3,0.3,0.3,0.1,0.6c-0.2,0.4-0.5,0.7-0.7,1.1
		c-0.3,0.3-0.9,1.2-1.2,1.5L80.5,55c-0.7,0.7-1.4,1.3-2.1,1.8c-0.4,0.2-0.4,0.1-0.8,0c-0.6-0.2-1.1-0.5-1.7-0.8
		c-0.5-0.4-1-0.9-1.4-1.5c-0.2-0.3-0.1-0.3,0.1-0.5s0.8-1.1,1.1-1.6s0.9-1.3,1.4-2s1.4-1.8,1.9-2.5s1.3-1.4,1.6-1.8
		S81,45.8,81.1,45.8L81.1,45.8z M77.6,55.2c0.2-0.1,1.3-1.1,1.6-1.4s1.2-1.2,1.8-1.8s1-1.3,1.3-1.7s0.2-0.5-0.2-0.2s-0.9,1-1.3,1.4
		s-0.9,1-1.6,1.7c-0.4,0.4-0.9,0.9-1.3,1.4C77.7,55,77.5,55.3,77.6,55.2L77.6,55.2z M103.3,52.2c0.4-0.5,0.8-1,1.1-1.6
		c0.4-0.6,0.9-1,1.4-1.4c0.3-0.2,0.6-0.3,1-0.4c0.2-0.1,0.4,0,0.4,0s0.1,0.3,0.2,0.5c0.1,0.4,0.4,1.3,0.5,1.8s0.5,1.9,0.7,2.4
		s0.2,1,0.3,1.4s0.1,0.6,0.1,0.6c0,0.1-0.1,0.3-0.1,0.4c-0.3,0.5-0.6,1-1,1.5c-0.4,0.5-0.9,0.9-1.4,1.3c-0.1,0.1-0.3,0.2-0.4,0.3
		c-0.2-0.2-0.3-0.3-0.4-0.5c-0.3-0.5-0.7-1.5-1.3-2.6c-0.5-1-0.9-2-1.3-3.1c0-0.1-0.1-0.2-0.1-0.4C103.1,52.4,103.2,52.3,103.3,52.2
		L103.3,52.2z M104.3,52.1c0,0.1,0.4,1,0.6,1.6s0.7,1.6,0.8,2.1s0.3,0.8,0.5,1.1s-0.1,0.4-0.2,0.1s-0.6-1.2-0.9-1.7
		s-0.5-1.3-0.7-1.9c-0.1-0.4-0.2-0.8-0.3-1.2C104.1,51.9,104.3,51.9,104.3,52.1z M110.4,55.2c0.4,0.1,0.6,0.4,0.6,0.8
		c-0.1,0.8,0,1.6,0.1,2.3c0.2,0.7,0.4,1.5,0.7,2.2c0.2,0.4,0.5,0.8,0.4,0.9s-0.2,0.1-0.4,0s-0.3,0-0.4,0.2c-0.6,0.5-1.2,0.9-1.9,1.2
		c-1,0.4-1.3,0.4-1.8-0.2c-0.4-0.7-0.8-1.4-1-2.2c-0.1-0.4-0.1-0.5-0.3-0.5c-0.1,0-0.3,0-0.3-0.1c-0.1-0.1,0.1-0.2,0.3-0.3
		c0.7-0.5,1.3-1,1.9-1.7c0.6-0.6,1-1.4,1.3-2.1c0.2-0.4,0.6-0.6,1-0.5L110.4,55.2z M108.6,62.6c0.2-0.4,0.3-0.8,0.4-1.2
		c0.2-0.5,0.3-1.1,0.4-1.7c0.1-0.5-0.1-0.6-0.2-0.2s-0.4,1.2-0.6,1.6s-0.2,0.9-0.3,1.2S108.5,62.8,108.6,62.6L108.6,62.6z M111.3,56
		c0.5-0.3,1.1-0.5,1.7-0.7c0.4-0.1,1.5-0.6,2.2-0.8s2.1-0.7,2.9-1l1.4-0.5c0.1-0.1,0.3-0.1,0.4-0.1c0.1,0.4,0.2,0.7,0.4,1.1
		c0.2,0.4,0.4,0.8,0.7,1.1c0,0-0.1,0.1-0.4,0.3s-1.4,1.1-1.9,1.5s-1.7,1.2-2.2,1.5s-1.9,1.2-2.4,1.5s-1,0.5-1.2,0.6
		c-0.2,0.1-0.4,0.2-0.6,0.2c-0.1-0.3-0.5-1.3-0.7-1.9c-0.2-0.7-0.3-1.3-0.3-2C111.3,56.5,111.3,56.2,111.3,56L111.3,56z M91.2,45.5
		c0.2,0.2,0.5,0.4,1.1,0.8c0.8,0.5,1.7,0.9,2.6,1.1c0.9,0,1.8-0.1,2.7-0.4c0.2-0.1,0.5-0.2,0.7-0.4c0.1,0.3,0.1,0.7,0.1,1
		c0.1,0.8,0.3,1.6,0.6,2.4c0.4,0.8,0.9,1.5,1.5,2.1c0.3,0.2,0.7,0.4,1.1,0.6c0.1,0,0,0.2-0.1,0.7s-0.6,2.4-0.9,3.2s-0.8,2.1-1,2.7
		c-0.1,0.3-0.2,0.6-0.3,0.9c-0.7,0.5-1.4,1-2.1,1.4c-0.7,0.4-1.5,0.9-2.1,1.2s-0.8,0.5-1.3,0.6c-0.2,0.1-0.4,0.2-0.7,0.2
		c-0.8-0.3-1.5-0.6-2.2-1c-0.8-0.4-1.6-0.9-2.4-1.4c-0.8-0.6-1.4-1-1.9-1.4s-0.8-0.6-0.8-0.7c-0.1-0.5-0.2-1.7-0.3-2.8
		c-0.2-1.1-0.3-2.3-0.3-3.4c0-0.7-0.1-1.9,0-1.9c0.2,0.1,0.4,0.2,0.7,0.2c0.7,0.1,1.4,0,2-0.2c0.8-0.3,1.5-0.9,2.1-1.5
		c0.5-0.6,0.8-1.3,0.9-2c0.1-0.7,0.2-1.4,0.2-1.5C91.2,45.7,91.2,45.6,91.2,45.5L91.2,45.5z M93.6,62.3c0.2-0.7,0.4-1.4,0.5-2.2
		c0.2-0.6,0.3-1.9,0.4-2.6s0.3-2,0.5-3s0.2-1.7,0.3-2.7s0.2-1.6,0.2-2.2s0-0.6,0-1s-0.2-0.7-0.3-0.1s-0.2,1.5-0.2,2.2
		s-0.3,2.7-0.5,3.8s-0.3,2-0.4,3s-0.3,2.1-0.4,2.8s-0.1,0.8-0.2,1.2S93.5,62.6,93.6,62.3L93.6,62.3z M99.6,60.5
		c0.2,0.3,0.3,0.7,0.5,1c0.2,0.2,0.3,0.5,0.3,0.7c0,0.2-0.3,0.5-0.6,0.7c-0.4,0.4-1.9,1.6-2.6,2.2s-2.9,2.4-3.8,3c0-0.4,0-0.7,0-1.1
		c0-0.5,0-1.8,0-2.2s0-0.5,0.1-0.5c0.8-0.4,1.6-0.8,2.4-1.2c0.8-0.5,2.4-1.4,2.8-1.8L99.6,60.5L99.6,60.5z M85.8,59.3
		c0.1,0.1,0.7,0.7,1.1,1c0.8,0.7,1.6,1.3,2.4,1.8c0.8,0.5,1.7,1,2.6,1.4c0.4,0.2,0.9,0.4,1.1,0.5c0,0.3,0,0.6,0,0.9
		c0,0.4-0.1,1.8-0.1,2.1s0,0.9-0.1,0.8c-0.3-0.2-0.7-0.6-1.2-1.1s-1.4-1.2-2-1.7s-1.7-1.3-2.2-1.7c-0.8-0.5-1.6-1-2.4-1.4
		c-0.4-0.2-0.7-0.4-0.7-0.6c0.2-0.5,0.4-0.9,0.8-1.3C85.5,59.8,85.8,59.3,85.8,59.3L85.8,59.3z M84.3,62.1c0.6,0.3,1.3,0.6,1.9,1
		c0.8,0.5,1.5,1.1,2.3,1.7c0.5,0.4,1.7,1.4,2.2,1.9l1.4,1.4c0.1,0.1-0.3,0.3-0.7,0.6c-0.3,0.3-0.8,0.4-1.2,0.4
		c-0.5-0.1-1.1-0.2-1.6-0.4c-0.8-0.3-1.7-0.6-2.4-1c-0.8-0.4-1.5-0.8-2.2-1.3c-0.4-0.3-0.7-0.6-1.1-0.9c-0.2-0.2,0.3-0.7,0.4-1
		c0.1-0.5,0.3-1,0.5-1.5C84.1,62.7,84.3,62.1,84.3,62.1L84.3,62.1z M83,66.3c0.4,0.3,1,0.8,1.7,1.1c1,0.6,2,1.1,3,1.5
		c0.9,0.3,1.8,0.6,2.7,0.8c-0.1,0.3-0.2,0.7-0.3,1c-0.1,0.3-0.3,0.6-0.6,0.8c-0.3,0.2-0.7,0.3-1,0.2c-0.8-0.1-1.7-0.2-2.5-0.3
		c-0.8-0.1-1.6-0.4-2.3-0.7c-0.7-0.3-1.4-0.7-2.1-1.1c-0.1-0.1-0.1-0.2,0.1-0.4c0.3-0.5,0.5-1,0.7-1.6c0.1-0.3,0.2-0.7,0.3-1
		C82.7,66.5,82.8,66.4,83,66.3L83,66.3z M81.6,70.2c0.1,0.1,1,0.5,1.4,0.7c0.7,0.3,1.5,0.5,2.2,0.8c0.8,0.2,1.6,0.4,2.4,0.5
		c0.6,0.1,1.1,0.2,1.6,0.2c-0.1,0.2-0.2,0.4-0.2,0.7c-0.1,0.3-0.2,0.6-0.4,0.8c-0.3,0.3-0.6,0.5-1,0.5c-0.5,0.1-0.9,0.2-1.4,0.2
		c-0.5,0-1,0-1.5-0.2c-0.6-0.2-1.2-0.4-1.8-0.6c-0.5-0.2-1-0.5-1.5-0.8l-1-0.6c-0.2-0.1,0-0.3,0.1-0.5c0.2-0.3,0.4-0.6,0.6-1
		C81.2,70.6,81.4,70.1,81.6,70.2L81.6,70.2z M100.2,63.2c-0.4,0.4-0.9,0.7-1.3,1.1c-0.4,0.3-1.4,1.2-1.9,1.6s-1.2,1-1.8,1.4
		s-1.1,0.9-1.4,1.1c0,0,0.2,0.3,0.4,0.5c0.2,0.2,0.4,0.4,0.7,0.6c0.3,0.1,0.6,0.1,0.9,0c0.4-0.1,0.9-0.3,1.3-0.5
		c0.6-0.3,1.2-0.6,1.8-1c0.5-0.3,0.9-0.6,1.4-0.9c0.5-0.3,0.9-0.6,1.3-1c0.2-0.2-0.1-0.4-0.3-0.7c-0.2-0.4-0.4-0.8-0.6-1.2
		C100.6,63.8,100.3,63.2,100.2,63.2L100.2,63.2z M101.9,66.6c-0.5,0.4-1.1,0.8-1.7,1.2s-1.2,0.7-1.8,1c-0.7,0.3-1.4,0.6-2.1,0.9
		c-0.6,0.2-1,0.3-1.2,0.3c0,0,0.2,0.2,0.4,0.6c0.2,0.3,0.4,0.6,0.6,0.8c0.2,0.2,0.5,0.4,0.8,0.3c0.5,0,1-0.1,1.5-0.3
		c0.6-0.2,1.2-0.4,1.8-0.7c0.5-0.2,1-0.5,1.5-0.8c0.3-0.2,0.6-0.4,0.9-0.6c0.2-0.1,0.3-0.3,0.5-0.5c0.2-0.2,0.1-0.3-0.1-0.5
		c-0.2-0.2-0.3-0.4-0.4-0.6c-0.1-0.3-0.2-0.5-0.4-0.7C102.2,66.8,102,66.6,101.9,66.6L101.9,66.6z M103.4,69.5
		c-0.3,0.2-1.2,0.8-1.6,1.1c-0.5,0.3-1.1,0.6-1.7,0.8c-0.6,0.2-1.2,0.4-1.8,0.6c-0.5,0.1-1.1,0.2-1.6,0.3c0,0,0.1,0.2,0.3,0.6
		c0.1,0.3,0.3,0.6,0.6,0.9c0.2,0.2,0.5,0.3,0.8,0.3c0.4,0.1,0.9,0.1,1.3,0c0.5-0.1,1.1-0.2,1.6-0.3c0.5-0.2,1-0.4,1.4-0.7
		c0.4-0.3,1.3-0.9,1.7-1.2c0.3-0.2,0.1-0.4-0.1-0.6c-0.2-0.3-0.4-0.6-0.6-0.9C103.7,70,103.6,69.8,103.4,69.5L103.4,69.5z
		 M92.7,68.7c0.4,0.3,0.5,0.3,0.8,0c0.2,0.2,0.4,0.4,0.5,0.6c0.1,0.2,0.3,0.4,0.5,0.6c0.2,0.2,0.2,0.1,0.4,0.6l0.3,0.6
		c0.1,0.3,0.3,0.5,0.5,0.7c0.4,0.3,0.3,0.2,0.5,0.5s0.3,0.7,0.6,1.1c0.2,0.4,0.5,0.7,0.8,0.9c0.5,0.2,0.7,0.1,0,0.2
		c-0.5,0.1-1.2,0.2-1.8,0.3c-0.7,0.1-1.4,0.2-2.1,0.3c-0.6,0-1.2-0.1-1.8-0.3c-0.6-0.1-1.3-0.2-1.9-0.2c-0.5,0-1.1-0.1-1.5-0.1
		s-0.6,0-0.2-0.1c0.4-0.2,0.8-0.5,0.9-1l0.4-1.1c0.1-0.3,0-0.1,0.3-0.4c0.2-0.2,0.4-0.5,0.5-0.8c0.2-0.4,0.3-0.8,0.5-1.2
		s0-0.3,0.4-0.4c0.3-0.1,0.6-0.3,0.8-0.6C92.2,68.9,92.4,68.7,92.7,68.7L92.7,68.7z M81.6,73.7c0.5,0.2,0.9,0.4,1.2,0.5
		s1,0.3,1.4,0.5c0.5,0.1,1.1,0.2,1.6,0.3h0.4c0.3,0,0.5,0,0.8,0c0.4,0,1,0,1.3,0.1s1.7,0.1,2.1,0.1c0,0.2-0.1,0.4-0.2,0.6
		c-0.1,0.5-0.3,0.9-0.4,1.5s-0.9,2.8-1.1,3.5S88,82,87.8,82.6c-0.3,0.6-0.6,1.1-1,1.6c-0.1-0.2-0.2-0.4-0.2-0.6
		c-0.2-0.3-0.6-1.1-0.9-1.6s-0.8-1.3-1.2-1.8l-1.2-1.7c-0.3-0.5-0.4-0.5-0.8-0.2c-0.4,0.3-0.8,0.6-1.1,1c-0.4,0.4-0.8,0.9-1.2,1.4
		c0-0.3,0-0.7,0.1-1c0.1-0.4,0.3-2,0.5-2.8s0.4-1.7,0.6-2.2C81.3,74.4,81.4,74.1,81.6,73.7L81.6,73.7z M86.9,82.4
		c0.2-0.3,0.4-0.6,0.6-1c0.2-0.4,0.4-1.3,0.6-1.8s0.4-1.3,0.6-1.9s0.2-1,0.3-1.3s-0.2-0.4-0.3,0s-0.2,0.9-0.4,1.6s-0.4,1.5-0.7,2.2
		s-0.3,1-0.4,1.4S86.7,82.6,86.9,82.4L86.9,82.4z M87.5,84.4c0.3,0.1,0.6,1,0.3,2s-0.9,1.7-1.2,1.6s-0.4-0.4-0.4-0.7
		c0-0.5-0.3-0.2-0.4,0.2c-0.2,0.4-0.5,0.7-0.8,1c-0.4,0.4-0.9,0.7-1.3,1c-0.5,0.3-1.1,0.6-1.4,0.8c-0.5,0.2-0.9,0.5-1.4,0.8
		c-0.4,0.3-0.3,0.3-0.6-0.1c-0.3-0.4-0.6-0.9-0.9-1.4c-0.4-0.8-0.5-1.8-0.4-2.7c0,0,0.1,0.1,0.3,0.4c0.3,0.3,0.6,0.5,1,0.6
		c0.4,0.1,0.8,0.1,1.2,0.1c0.4,0,0.8-0.1,1.2-0.3c0.3-0.2,0.3-0.3,0.1-0.2s-0.5,0-0.7,0.1c-0.5,0-1,0-1.4-0.1
		c-0.4-0.1-0.7-0.3-1-0.5c-0.3-0.3-0.4-0.3-0.6-1c-0.3-0.8-0.4-1.6-0.2-2.4c0.1-0.6,0.3-1.1,0.7-1.6c0.2-0.2,0.5-0.6,0.7-0.6
		c0.3,0,0.5-0.1,0.8-0.1c0.4,0,0.8,0.1,1.2,0.2c0.3,0.1,0.7,0.2,1,0.3c0.3,0.1,0.5,0.3,0.3,0c-0.2-0.3-0.5-0.5-0.8-0.7
		c-0.4-0.2-0.8-0.3-1.2-0.3c-0.4-0.1-0.8,0-1.2,0.1c0.2-0.4,0.4-0.8,0.8-1.1c0.4-0.5,1.3-1.2,1.6-1.5s0.3-0.2,0.5,0s0.5,0.7,0.7,1.1
		s0.8,1.2,1.2,1.8c0.3,0.6,0.6,1.1,0.9,1.7c0.2,0.5,0.4,0.9,0.5,1.4c0.1,0.3,0.2,0.5,0.4,0.2S87.1,84.3,87.5,84.4L87.5,84.4z
		 M96.3,75.2c0.6-0.1,1.3-0.2,1.9-0.4c0.6-0.2,0.7-0.2,1-0.3s0.7,0,1-0.1c0.4,0,0.8-0.1,1.2-0.3c0.6-0.2,1.2-0.5,1.8-0.9
		c0.4-0.3,0.9-0.6,1.3-1c0.2,0.2,0.4,0.5,0.6,0.8c0.3,0.6,0.6,1.2,0.8,1.8c0.3,0.9,0.6,1.7,0.8,2.2c0,0-0.1,0.2-0.4,0.6
		s-0.7,1-1,1.5c-0.4,0.6-0.7,1.2-1,1.8c-0.3,0.7-0.6,1.4-0.8,2.2c-0.2,0.6-0.2,0.8-0.3,1.1s-0.3,0.3-0.7-0.2s-0.8-1-1.4-1.9
		s-1-1.3-1.7-2.3s-1.4-1.9-1.9-2.8S96.2,75.1,96.3,75.2L96.3,75.2z M102.8,82.5c-0.4-0.3-0.7-0.7-1-1.1c-0.4-0.5-0.8-1-1.2-1.6
		s-0.9-1.3-1.2-2c-0.3-0.5-0.5-1-0.7-1.5c-0.2-0.5,0-0.5,0.2-0.1s0.7,1.2,0.9,1.6s0.6,0.8,0.9,1.4s0.7,1.1,1.1,1.8s0.6,0.8,0.7,1
		S103,82.6,102.8,82.5L102.8,82.5z M102,84.6c0.4,0,0.8,0.3,1.2,0.7c0.1,0.1,0.3,0,0.3-0.3c0.1-0.5,0.2-1.1,0.3-1.6
		c0.2-0.8,0.5-1.5,0.8-2.2c0.4-0.8,0.9-1.5,1.4-2.2c0.4-0.6,0.8-1.2,1-1.5c0.1-0.1,0.3,0.2,0.5,0.5c0.3,0.3,0.4,0.7,0.5,1.1
		c0.1,0.4,0,0.5-0.1,0.6c-0.3,0.2-0.7,0.3-1,0.5c-0.4,0.3-0.7,0.6-0.9,1.1c-0.2,0.5-0.2,0.7,0.3,0.2c0.3-0.3,0.6-0.5,0.9-0.7
		c0.3-0.2,0.6-0.3,1-0.4c0.2,0,0.4,0.1,0.5,0.2c0.3,0.2,0.6,0.5,0.8,0.8c0.4,0.7,0.7,1.5,0.9,2.2c0.1,0.6,0.1,1.3-0.1,1.9
		c-0.1,0.6-0.3,1.1-0.5,1.6c-0.1,0.2-0.3,0.3-0.6,0.3c-0.4,0-0.7-0.1-1.1-0.2c-0.4-0.2-0.7-0.4-1-0.6s-0.2,0,0.1,0.4
		c0.3,0.4,0.7,0.7,1.2,0.8c0.4,0.1,0.9,0.2,1.3,0.2c0.1,0.4,0.2,0.9,0.3,1.3c0,0.4,0,0.8,0,1.1c0,0.3-0.1,0.3-0.6-0.2
		c-0.6-0.4-1.2-0.8-1.9-1.1c-0.7-0.4-1.4-0.8-2.1-1.3c-0.5-0.3-1-0.7-1.5-1.2c-0.2-0.3-0.4-0.2-0.4-0.1c0,0.7-0.1,1.2-0.5,1.4
		s-1.1-0.6-1.4-1.4S101.5,84.6,102,84.6L102,84.6z M126.9,62.6c0.2,0,0.4,0.2,0.4,0.4s-0.2,0.4-0.4,0.4s-0.4-0.2-0.4-0.4
		S126.7,62.6,126.9,62.6z M72.6,54.4c0.3-0.2,0.7-0.2,1-0.1c0.2,0.2,0.7,0.7,1,1c0.5,0.6,1.1,1.1,1.8,1.5c0.5,0.2,1,0.4,1.6,0.5
		c0.4,0,0.4,0,0.3,0.3s-0.2,0.2-0.3,0.2c-0.1,0.1-0.2,0.2-0.2,0.3c-0.1,0.6-0.2,1.2-0.3,1.8c-0.2,0.7-0.2,0.8-1,0.8
		c-0.5,0-1,0-1.5,0c-0.4-0.1-0.6,0-0.7,0.3s-0.1,0.3-0.3,0.4s-0.2,0.1-0.2-0.2c0-0.6,0-1.2-0.2-1.7c-0.1-0.5-0.7-2.3-1-3
		S72.1,54.7,72.6,54.4L72.6,54.4z M76.7,60.4c-0.4-0.2-0.7-0.5-0.9-0.9c-0.3-0.4-0.5-0.9-0.7-1.2s0-0.4,0.3-0.1s0.5,0.7,0.7,1
		s0.5,0.7,0.7,0.9S77,60.5,76.7,60.4L76.7,60.4z M72.1,56.3c0.3,0.5,0.6,1.1,0.8,1.7c0.3,0.9,0.5,1.8,0.6,2.8c0,0.5,0,0.4-0.3,0.6
		s-0.9,0.7-1.4,1s-1.7,1-2.4,1.3s-1.9,0.8-2.7,1.2s-1.6,0.8-2.1,1.1s-0.4,0.2-0.6-0.3c-0.3-0.7-0.6-1.4-0.9-2
		c-0.2-0.4-0.3-0.5,0.1-0.7l2-1.1c0.5-0.3,1-0.7,1.4-1.1c0.5-0.4,1.7-1.7,2.2-2s1.5-1.3,2.1-1.7c0.3-0.2,0.6-0.4,0.9-0.7
		C71.9,56.3,72,56.2,72.1,56.3L72.1,56.3z M77.7,96.1c0.6,0.2,1.1,0.3,1.7,0.4c0.6,0.1,1.3,0.1,1.9,0.1c1,0,2.1-0.3,3-0.7
		c0.2-0.3,0.3-0.6,0.4-1c0.5-1.2,0.8-2.5,0.9-3.8c0.1-0.7,0.1-1.4,0.1-1.9s0-0.7,0-0.7c-0.3,0.3-0.7,0.6-1.1,0.9
		c-0.5,0.3-1.4,0.8-2.1,1.1c-0.6,0.3-1.3,0.7-1.8,1.1c-0.3,0.3-0.4,0.3-0.7-0.2c-0.3-0.4-0.6-0.8-0.9-1.2c-0.2-0.4-0.2-0.5-0.4-0.9
		c-0.1,0.3-0.2,0.6-0.3,0.9c-0.1,0.4-0.3,1.2-0.4,1.9s-0.2,1.6-0.3,2.3S77.7,96.1,77.7,96.1L77.7,96.1z M84.7,90.4
		c0.1,0.5,0.1,1.1,0,1.6c-0.1,0.6-0.3,1.3-0.5,1.9c-0.2,0.5-0.3,1-0.5,1.4s-0.2,0.5-0.3,0.6s-0.3,0.4-0.1-0.1s0.3-0.9,0.5-1.4
		s0.3-1,0.5-1.6c0.1-0.5,0.2-1.1,0.3-1.6C84.6,90.7,84.6,90.1,84.7,90.4L84.7,90.4z M76.8,106.7c0.5,0.3,1,0.5,1.5,0.5
		c0.7,0,1.5-0.1,2.1-0.4c-0.1,0.3-0.2,0.7-0.2,1.1c0,0.6,0,1.1,0,1.7c0.1,0.5,0,1.1-0.2,1.6c-0.2,0.3-0.5,0.7-0.7,0.9
		c-0.3,0.4-0.6,0.8-0.7,1.2c-0.3,0.6-0.6,1.6-0.8,2.2c-0.1,0.5-0.4,1-0.7,1.4c-0.4,0.5-0.8,0.9-1.3,1.3c-0.5,0.3-1,0.6-1.5,0.9
		c-0.4,0.2-0.8,0.2-1.2,0.1c-0.3-0.1-0.3-0.5-0.4-1.2c-0.1-0.9-0.1-1.8,0-2.7c0.1-0.7,0.4-1.5,0.7-2.2c0.5-0.7,1-1.4,1.5-2
		c0.5-0.6,0.9-1.3,1.3-2c0.2-0.5,0.4-1.1,0.5-1.7C76.7,107.2,76.7,106.8,76.8,106.7L76.8,106.7z M106.4,106c0.6,0.3,1.3,0.4,2,0.5
		c0.6,0.1,1.2,0,1.8-0.1c0.3-0.1,0.5-0.1,0.8-0.2c0.1,0.2,0.3,0.5,0.4,0.7c0.5,0.6,0.9,1.1,1.3,1.8c0.3,0.4,0.6,0.9,0.9,1.3
		c0.3,0.4,0.7,0.8,1.2,1.1c0.3,0.2,0.3,0.3,0.2,0.5s-0.1,0.3,0.4,0.3c0.3,0,0.4,0.2,0.6,0.5s0.4,0.6,0.7,0.9
		c0.2,0.2,0.3,0.6,0.1,0.8c-0.2,0.2-0.5,0.3-0.8,0.4c-0.4,0.1-0.7,0.2-1.1,0.3c-0.5,0.1-0.9,0-1.4-0.2c-0.5-0.2-1-0.5-1.5-0.9
		c-0.6-0.5-1.1-1.1-1.7-1.8c-0.3-0.4-0.7-0.7-1.1-0.9c-0.3-0.2-0.6-0.4-0.9-0.6c-0.4-0.2-0.5-0.1-0.2,0.2c0.2,0.2,0.4,0.4,0.6,0.6
		c0.2,0.2,0,0.2-0.6,0.2c-0.5-0.1-1.1-0.2-1.6-0.4c-0.4-0.3-0.6-0.7-0.6-1.2c0-0.7,0.1-1.3,0.2-2c0.1-0.6,0.2-1.1,0.2-1.3
		C106.4,106.3,106.4,106.1,106.4,106L106.4,106z M104.3,87.4c0.2,0.2,1,0.8,1.5,1.1s1.6,1,2.2,1.3c0.6,0.2,1.1,0.6,1.5,1
		c0.3,0.4,0.3,0.6,0.3,1.3s0,1.3,0,2.2s0.1,3,0.1,4.2c0.1,1.5,0.2,3,0.4,4.5c0.1,1,0.2,1.4,0.3,1.9s0.1,0.7,0.1,0.7
		c-0.5,0.2-1,0.4-1.5,0.4c-0.6,0-1.2,0-1.9-0.1c-0.6-0.1-0.8-0.1-1-0.1c0-0.3,0-0.7,0-1c-0.1-1-0.3-2-0.6-3c-0.3-1-1.4-3.7-1.7-4.8
		c-0.4-1.6-0.7-3.2-0.8-4.8c0-1.2-0.1-2.3,0-2.8s0.1-0.8,0.1-1s0.1-0.2,0.2-0.3c0.2-0.2,0.3-0.4,0.3-0.6
		C103.9,87.1,103.9,87.1,104.3,87.4L104.3,87.4z M106.5,102c-0.2-0.3-0.3-0.7-0.3-1.1c-0.2-0.6-0.4-1.2-0.5-1.6
		c-0.2-0.7-0.5-1.8-0.8-3c-0.3-1.1-0.5-2.2-0.6-3.4c-0.1-1-0.1-2,0-3c0-0.9,0.2-2.2,0.2-1.4s0,1.8,0,2.5s0.2,1.9,0.3,2.7
		s0.3,1.8,0.5,2.7s0.4,1.6,0.6,2.4s0.3,1.3,0.4,1.9C106.5,101.1,106.5,101.5,106.5,102L106.5,102z M77.1,101
		c0.6,0.2,1.2,0.3,1.8,0.4c0.6,0.1,1.9,0.2,2.4,0.2c0,0.3-0.1,0.6-0.2,0.9c-0.1,0.4-0.4,0.9-0.4,1.3c-0.1,0.3-0.1,0.5,0,0.8
		c0.1,0.2,0.1-0.2,0.1-0.5c0.1-0.3,0.2-0.6,0.3-0.9c0.1-0.3,0.3-0.7,0.3-0.9c0-0.2,0.1-0.4,0.1-0.7c0.2,0,0.4,0,0.6,0
		c0,0-0.1,0.4-0.2,0.8s-0.3,0.9-0.4,1.2s-0.3,0.8-0.5,1.3s-0.5,1.6-0.5,1.6c-0.5,0.2-1.1,0.3-1.7,0.3c-0.7,0-1.4-0.2-2-0.4
		c0,0,0.1-0.6,0.1-1.2s0-1.8,0-2.4S77,101,77.1,101"/>
	
		<path id="path20" style="clip-path:url(#SVGID_00000183207324672396339270000017274577678707523222_);fill-rule:evenodd;clip-rule:evenodd;fill:#69B42E;" d="
		M72.4,92.2c0.4,0.6,0.8,1.1,1.3,1.6c0.5,0.5,1.1,1,1.8,1.4c0.6,0.3,1.1,0.6,1.8,0.8c0-0.3,0.1-0.8,0.2-1.4s0.1-0.9,0.2-1.3
		c-0.6-0.1-1.2-0.3-1.9-0.5s-1.5-0.3-2-0.4S72.7,92.3,72.4,92.2L72.4,92.2z M52.7,80.3c-0.2,0.8-0.1,1.6,0.3,2.3
		c0.3,0.7,0.8,1.4,1.4,1.8c0.6,0.5,1.3,0.9,2,1.2c1,0.4,2.4,0.8,3.9,1.3c1.2,0.4,2.4,0.9,3.6,1.4c1,0.4,2,1,2.7,1.7
		c1,0.9,1.8,2,2.4,3.2c0.6,1.1,1.4,2.1,2.2,3c0.9,1.1,2,2.1,3.1,2.9c0.9,0.7,2,1.2,3.1,1.6c0.9,0.3,1.9,0.5,2.9,0.5
		c0.9,0.1,1.8,0.1,2.8,0c0.9-0.1,1.8-0.2,2.7-0.5c0.6-0.1,1.1-0.4,1.5-0.9c0.4-0.5,0.5-1.2,0.4-1.8c-0.1-0.6-0.4-1.1-0.7-1.6
		c-0.3-0.4-0.7-0.8-1.2-1.1l-0.7-0.3c-0.1,0.2-0.4,1-0.5,1.2c-0.4,0.2-0.9,0.4-1.3,0.5c-0.6,0.2-1.2,0.3-1.8,0.3
		c-0.9,0-1.7-0.1-2.6-0.3c-0.8-0.1-1.6-0.4-2.3-0.7c-0.9-0.4-1.8-0.9-2.5-1.5c-0.7-0.7-1.4-1.5-2-2.3c-0.5-0.8-1-1.5-1.6-2.2
		c-0.7-1-1.5-1.8-2.4-2.6c-1.1-0.9-2.3-1.6-3.6-2.1c-1.4-0.5-2.9-0.8-4.4-1.1c-1.4-0.1-2.9-0.4-4.3-0.7c-0.9-0.3-1.6-0.8-2.1-1.6
		c-0.3-0.4-0.6-0.8-0.6-1.3C53.1,78.8,52.8,79.4,52.7,80.3L52.7,80.3z M73,127.3c-0.1,0.5,0,0.9,0.3,1.3c0.5,0.5,1.1,0.9,1.8,1.1
		c0.9,0.1,1.9,0,2.7-0.4c0.4-0.4,1.2-0.3,1.6-0.5s0.5-0.9,0.9-0.7c0.6,0.3,1.3,0.5,1.9,0.6c0.5,0,1.1,0.2,1.6,0.3
		c0.7,0.2,1.5,0.1,2.1-0.4c0.6-0.4,1.2-0.7,1.9-1c0.5-0.3,1.2-1,1.1-1.5s-0.4-0.8-0.3-1s0-0.3,0.6-0.2c0.5,0.2,1.1,0.3,1.7,0.3
		c0.7,0,1.6-0.3,2.3-0.4c0.8,0,1.7-0.1,2.5-0.3c0.7-0.4,1.3-1.1,1.6-1.9c0.1-0.5,0.3-1,0.7-1.3c0.3-0.3,0.1-0.6,0-1.1
		c-0.2-0.5-0.3-1.1-0.4-1.6c0-0.5-0.3-0.6,0.2-0.6s1.5,0.1,2.1,0.1s1.9,0,2.6,0.1s1.9,0.3,3,0.5s3.3,0.8,4,0.9s2.1,0.3,3,0.5
		s2.8,0.9,3.9,1.2c1.1,0.2,2.3,0.4,3.5,0.4c0.9,0,3.5,0.1,4.4,0.1s4.3-0.1,5.1-0.2s1.1-0.2,1.3,0.4c0.1,0.5-0.1,1-0.5,1.3
		c-0.9,0.4-1.8,0.7-2.7,1c-0.6,0.2-0.3,0.1-0.5,0.5s-0.5,0.6-1,0.9s-1,0.4-1.2,0.8c-0.2,0.4-0.5,0.7-0.9,0.9
		c-0.4,0.2-1.3,0.4-1.6,0.7c-0.4,0.3-0.8,0.7-1.2,1.1c-0.3,0.5-0.8,0.9-1.3,1.1c-1,0.2-2,0.4-3,0.5c-0.7,0.1-1.4,0.3-2,0.6
		c-0.7,0.3-2.8,0.7-3.7,0.9s-3.4,0.6-4.7,0.8s-5.6,0.6-7,0.6c-2.3,0.1-4.5,0.1-6.8-0.1c-2.4-0.3-10.6-1.2-12-1.5
		c-1.5-0.2-3-0.6-4.5-1.1c-1.1-0.3-2.1-0.8-3-1.6c-0.4-0.5-0.6-1.2-0.4-1.8C72.8,127,73.1,127.1,73,127.3L73,127.3z M99.7,127
		c0.3,0.1,1,0.2,1.7,0.2s1.5,0.2,2.1,0.3l1.7,0.2c0.7,0,1.5,0,2.2,0c0.7,0,2-0.1,2.6-0.1s0.7-0.2,0-0.3s-1.7-0.1-2.3-0.1
		s-1.7,0.1-2.3,0s-1.1-0.1-1.8-0.2s-1.4-0.1-2-0.2s-1.3-0.2-1.7-0.2S99.4,126.9,99.7,127L99.7,127z M88.2,130.8
		c0.7,0.2,1.3,0.4,2,0.6c0.6,0.1,1.5,0.2,2.5,0.3s2,0.2,3,0.2s2.7,0.1,3.6,0s1.3-0.1,1.7-0.1s0.5-0.1-0.1-0.2
		c-0.7-0.1-1.4-0.1-2.2-0.1c-0.7,0-1.8,0-2.6,0s-1.8-0.1-3-0.1s-2.1-0.2-2.9-0.3s-1.3-0.2-1.7-0.3S87.9,130.7,88.2,130.8L88.2,130.8
		z M90,98.6c0.5,0,0.9-0.1,1.3-0.2c0.3-0.1,0.5,0.1,0.5,0.4s-0.1,0.4-0.2,0.7c-0.1,0.3-0.1,0.6-0.1,0.9c0,0.3-0.2,0.6-0.5,0.8
		c-0.3,0.2-0.5,0.4-0.6,0.6c-0.1,0.2-0.2,0.4-0.3,0.6c-0.1,0.3,0.1,0.4,0.3,0.1s0.3-0.4,0.6-0.7c0.3-0.3,0.6-0.6,0.8-1
		c0.2-0.4,0.3-0.9,0.3-1.3c0-0.4,0-0.9,0.3-0.8c0.3,0.2,0.6,0.3,0.9,0.3c0.4,0.1,0.3,0.3,0.3,0.6s-0.3,0.6-0.4,0.8
		c-0.3,0.4-0.5,0.8-0.7,1.3c-0.1,0.3-0.2,0.6-0.4,0.9c-0.2,0.3-0.4,0.4-0.6,0.7c-0.3,0.3-0.6,0.6-0.9,0.8c-0.3,0.3-0.8,0.7-1.3,1.1
		s-0.6,0.4-0.9,0.6s-0.4,0.1-0.7,0.2s-0.6,0.4-0.3,0.3s0.6,0,0.5,0.3s-0.4,0.8-0.5,1.2s-0.3,0.8-0.5,1.3s-0.4,1-0.5,1.3
		c-0.1,0.3-0.2,0.5-0.1,0.8c0.1,0.3,0.3,0.6,0.6,0.9c0.5,0.3,0.9,0.7,1.3,1.1c0.2,0.3,0.6,0.2,1.1,0.4c0.7,0.2,1.3,0.5,1.8,1
		c0.5,0.5,1,1.1,1.2,1.8c0.3,0.6,0.4,1.2,0.4,1.8c-0.1,0.6-0.2,1.2-0.5,1.7c-0.2,0.4-0.3,0.8-0.4,1.2c-0.3,0.6-0.6,1.1-1.1,1.5
		c-0.4,0.3-0.6,0.5-0.9,0.9c-0.3,0.2-0.5,0.5-0.6,0.9c0,0.1,0,0.1,0,0.2c0.1-0.1,0.3-0.1,0.4-0.2c0.4-0.3,0.8-0.6,1.1-1
		c0.3-0.3,0.7-0.8,1-1.1c0.4-0.5,0.6-1,0.8-1.5c0.4-0.7,0.7-1.5,0.8-2.3c0-0.8-0.2-1.6-0.5-2.4c-0.2-0.7-0.6-1.2-1.2-1.7
		c-0.5-0.4-1-0.7-1.6-0.9c-0.7-0.2-1.2-0.1-1.6-0.4s-0.6-0.6-0.8-0.7s-0.3-0.3-0.4-0.4s2.8-0.2,3.5-0.4s3.7-0.6,4.7-0.6
		c1-0.1,2-0.1,3-0.1c0.7,0.1,1.3,0.2,2,0.3c0.7,0.1,1.9,0.1,2.9,0.2s2.3,0.3,3.2,0.5s1.7,0.3,2.3,0.4s0.7,0,1.1,0.4s0.9,1,1.5,1.5
		c0.5,0.5,1.1,0.8,1.7,1.1c0.5,0.2,1,0.3,1.5,0.4c-0.1,0.6-0.2,1.1-0.1,1.7c0.1,0.4,0.1,0.8,0.1,1.3c-0.1,0.6-0.3,0.8-0.1,1.2
		c0,0.1,0.1,0.2,0.1,0.3c0.3-0.3,0.4-0.7,0.4-1.2c0-0.6,0-1.1,0-1.7c-0.1-0.7-0.2-1.2,0.1-1.5c0.3-0.4,0.7-0.6,1.2-0.8
		c0.4-0.1,0.8-0.3,1.1-0.6c0.4-0.4,0.8-0.6,1.2-1s0.8-1,1.1-1.2s0.7-0.4,1-0.7s0.7-0.4,0.8-0.7c0.1-0.4,0-0.8-0.2-1.1
		c-0.2-0.3-0.3-0.7-0.4-1.1c-0.2-0.6-0.4-1.2-0.6-1.9s-0.4-1.4-0.4-1.8s-0.2-0.7-0.5-0.8c-0.3-0.1-0.6-0.3-0.9-0.5
		c-0.3-0.3-0.6-0.7-0.8-1.1c-0.1-0.3-0.3-0.6-0.5-0.9c-0.2-0.2-0.5-0.5-0.7-0.8c-0.3-0.3-0.5-0.6-0.8-0.7s-0.4,0-0.6-0.1
		s-0.3-0.1-0.2-0.2c0.2-0.3,0.3-0.7,0.2-1.1c-0.1-0.2,0-0.3,0.2-0.3s0.4,0.2,0.6,0.3c0.2,0.2,0.3,0.3,0.5,0.4
		c0.3,0.1,0.5,0.2,0.8,0.4c0.1,0.2,0.6,0.6,0.7,0.8s0.3,0.2,0.2,0c-0.1-0.3-0.2-0.5-0.4-0.7c-0.2-0.2-0.5-0.5-0.7-0.7
		c-0.2-0.2-0.4-0.4-0.6-0.7c-0.1-0.1-0.3-0.2-0.4-0.3c-0.1-0.1-0.1-0.3,0-0.4c0,0,0,0,0,0c0.4-0.2,0.6-0.6,0.7-1.1
		c0-0.1,0.1-0.2,0.3-0.2c0,0,0.1,0,0.1,0c0.2,0.1,0.4,0.3,0.4,0.6c0.1,0.3,0.3,0.4,0.4,0.7s0.4,0.4,0.6,0.7s0.3,0.5,0.5,0.8
		c0.1,0.2,0.2,0.4,0.3,0.6c0.1,0.2,0.2,0.1,0.2-0.1c0-0.3-0.1-0.6-0.3-0.9c-0.1-0.1-0.3-0.4-0.5-0.7c-0.2-0.3-0.4-0.6-0.6-0.9
		c-0.2-0.2-0.3-0.4-0.3-0.6c0.2-0.2,0.5-0.4,0.9-0.5c0.2-0.1,0.4,0,0.5,0.2c0.1,0.2,0.2,0.5,0.3,0.8c0.1,0.2,0.2,0.4,0.3,0.6
		c0.2,0.2,0.3,0.4,0.4,0.6c0.1,0.3,0.2,0.5,0.3,0.8c0.1,0.3,0.3,0.5,0.5,0.8c0.1,0.2,0.3,0.3,0.4,0.4c0.2,0,0.2,0,0.1-0.2
		s-0.3-0.3-0.3-0.5c0-0.2,0.1-0.4,0.3-0.4c0.2-0.1,0.5-0.1,0.7,0c0.2,0.1,0.4,0.4,0.5,0.6c0.1,0.3,0.2,0.6,0,0.8
		c-0.1,0.2-0.2,0.3-0.3,0.4c-0.1,0-0.3,0-0.3-0.1s-0.1-0.3-0.2-0.1c0,0.3,0,0.6,0.1,0.8c0.1,0.3,0.2,0.6,0.4,0.9
		c0.2,0.3,0.4,0.6,0.6,1c0.1,0.3,0.4,0.7,0.6,1.2s0.5,1.1,0.7,1.7c0.2,0.6,0.5,1.2,0.8,1.7c0.2,0.4,0.4,0.7,0.7,0.9
		c0.3,0.3,0.5,0.6,0.7,1c0.1,0.5,0.1,0.9,0,1.4c0,0.4-0.1,0.9-0.2,1.3c-0.1,0.3-0.3,0.6-0.6,0.8c-0.4,0.3-0.7,0.6-0.9,0.9
		c-0.3,0.3-0.5,0.6-0.7,0.9c-0.2,0.3-0.8,1.1-1.1,1.5s-0.6,0.9-0.8,1.3c-0.3,0.4-0.6,0.7-1,0.9c-0.3,0.2-0.7,0.5-1.1,0.6
		c-0.4,0.2-0.5,0.3-0.2,0.3s0.8-0.2,1-0.3s0.3-0.1,0.2,0.2c-0.1,0.3-0.2,0.5-0.3,0.7c-0.1,0.2-0.2,0.4-0.3,0.5
		c0,0.2,0.1,0.2,0.3-0.1c0.2-0.2,0.4-0.4,0.6-0.6c0.2-0.3,0.3-0.6,0.2-0.9c0-0.3,0.2-0.5,0.4-0.7c0.3-0.3,0.6-0.7,0.9-1.1
		c0.3-0.5,0.5-0.9,0.8-1.3s0.4-0.6,0.7-1c0.3-0.4,0.6-0.8,1-1.2c0.3-0.4,0.7-0.5,1-0.9c0.2-0.4,0.4-0.8,0.4-1.2
		c0.1-0.5,0.2-1,0.2-1.5c0-0.4-0.1-0.8-0.2-1.2c0,0,0.5-0.2,0.9-0.6c0.4-0.3,0.7-0.6,1-1c0.4-0.5,1.5-1.6,1.8-2
		c0.3-0.5,0.7-1,1.1-1.5c0.4-0.3,0.6-0.8,0.6-1.3c0-0.4,0-0.3,0.3-0.1s0.4,0.2,0.5,0.3s0.2,0-0.1-0.3c-0.2-0.2-0.3-0.3-0.5-0.6
		c-0.1-0.3-0.3-0.5-0.5-0.8c-0.3-0.3,0.2-0.2,0.4,0s0.2-0.2-0.1-0.4c-0.2-0.1-0.4-0.2-0.7-0.3c-0.3-0.2-0.6-0.3-0.9-0.6
		c-0.3-0.2-0.6-0.5-0.9-0.8c-0.4-0.3-0.7-0.5-1.1-0.7c-0.5-0.3-0.9-0.5-1.3-0.8s-0.8-0.4-1.1-0.6c-0.4-0.2-0.7-0.4-1-0.6
		c-0.3-0.2-0.2-0.3,0.1-0.2s0.3,0,0.3,0.1s0.2,0,0-0.2c-0.1-0.1-0.3-0.2-0.6-0.2c-0.4,0-0.8-0.1-1.2-0.2c-0.3-0.1-0.6-0.3-0.7-0.6
		c-0.2-0.3-0.4-0.7-0.1-0.8c0.3-0.1,0.7-0.1,1-0.1c0.5,0.1,1.1,0.2,1.5,0.4c0.7,0.3,1.3,0.7,1.9,1.2c0.6,0.4,1.3,0.8,2,1.1
		c0.6,0.2,1.1,0.5,1.6,0.8c0.5,0.3,1.4,1.2,2,1.6c0.5,0.4,1.1,0.4,1.7,0.1c0.3-0.3,0.5-0.8,0.5-1.3c0-0.6-0.2-1.3-0.4-1.8
		c-0.4-0.7-0.8-1.3-1.4-1.8l-1.9-1.9c-0.6-0.5-1.2-1-1.9-1.5c-0.5-0.4-1.1-0.7-1.7-1c-0.6-0.3-1.2-0.5-1.8-0.6
		c-0.5-0.1-1.1-0.2-1.6-0.3c-0.5-0.1-0.9-0.3-1.2-0.7c-0.1-0.2,0-0.5,0.2-0.7c0,0,0.1,0,0.1,0c0.3-0.1,0.5-0.7,0.8-1.1
		s0.5-0.7,0.9-0.7c0.3,0,0.4,0,0.5-0.3c0.1-0.1,0.2-0.2,0.3-0.3c0.3-0.1,0.6-0.1,0.8,0c0.3,0.2,0.1,0.3,0,0.4s0.1,0.2,0.5,0
		c0.5-0.1,1-0.1,1.4,0.2c0.3,0.2,0.6,0.4,1,0.8c0.2,0.2,0.5,0.4,0.7,0.5c0.4,0.2,0.8,0.2,1.3,0.4c0.5,0.2,1,0.4,1.5,0.7
		c0.4,0.2,0.9,0.4,1.4,0.6c0.4,0.1,0.7,0.2,1.1,0.1c0.4-0.1,0.8-0.1,1.2,0.1c0.4,0.2,0.8,0.4,1.1,0.8c0.2,0.3,0.4,0.6,0.6,0.9
		s0.3,0.2,0.1-0.2c0-0.1-0.1-0.2,0-0.2c0.3-0.1,0.6,0,0.9,0.1c0.4,0.1,0.8,0.3,1.1,0.6c0.3,0.2,0.6,0.5,0.8,0.8c0,0-0.1,0.1-0.2,0.3
		c-0.2,0.2-0.3,0.4-0.4,0.7c-0.1,0.4,0,0.4,0.2,0c0.2-0.3,0.5-0.5,0.8-0.7c0.4-0.3,0.9-0.6,1.4-0.8c0.6-0.4,1.1-0.8,1.6-1.2
		c0.5-0.4,0.8-0.6,1.1-0.8s0.5-0.1,0.4,0.4s-0.1,0.7-0.2,1.2c-0.1,0.4-0.2,0.9-0.4,1.3c-0.2,0.6-0.4,0.8-0.6,1.3s-0.4,0.7-0.6,1.3
		c-0.2,0.4-0.5,0.8-0.9,1.2c-0.3,0.3-0.7,0.5-1.1,0.5c-0.3,0-0.5,0-0.8,0.1c-0.3,0.1-0.3,0.3,0.1,0.2c0.2,0,0.5,0,0.7,0
		c0.3,0,0.3,0,0.3,0.3c0,0.7-0.1,1.4-0.2,2.1c-0.2,0.7-0.4,1.5-0.7,2.2c-0.4,0.9-1,2.4-1.5,3.4s-0.9,1.8-1.3,2.7s-1.5,2.3-1.9,3.2
		c-0.5,0.8-1.1,1.7-1.7,2.4c-0.5,0.7-1.1,1.2-1.6,1.9s-2.2,2.7-2.8,3.3s-1.6,1.7-2,2.2s-0.7,0.7-1,0.8s-1.9,0.1-2.8,0.1
		s-2.9,0.2-3.6,0.2c-0.7,0-1.4-0.1-2.2-0.2l0,0L118,121c-0.6-0.1-1.4-0.3-1.9-0.4l-1.4-0.4l0,0c-0.6-0.2-1.1-0.3-1.7-0.4
		c-0.7-0.2-1.4-0.3-2.1-0.4c-0.9-0.1-3.2-0.7-4.1-0.9s-2-0.5-3.5-0.6c-1.1-0.1-2.2-0.2-3.2-0.2c-0.9,0-1.9-0.1-2.6-0.1
		c-0.6,0-1.1,0.1-1.6,0.4c-0.5,0.3-0.6,0.7-0.1,0.7c0.3,0,0.7,0,1,0.1c0.2,0,0.4,0.1,0.6,0.3c0.1,0.4,0.2,0.9,0.3,1.3
		c0.2,0.5,0.3,0.8,0,1.1c-0.3,0.4-0.6,0.9-0.8,1.4c-0.3,0.5-0.7,0.9-1.2,1.2c-0.4,0.2-0.9,0.3-1.3,0.3c-0.6,0.1-1.2,0.2-1.8,0.4
		c-0.5,0.1-0.9,0.2-1.4,0.1c-0.6-0.1-1-0.1-1.4-0.2c-0.3-0.1-0.7-0.2-1-0.1l0,0c-0.2,0-0.3,0.2-0.3,0.4c0,0.2-0.1,0.4,0.1,0.6
		c0.2,0.2,0.2,0.6,0.1,0.9c-0.2,0.4-0.5,0.7-0.8,0.8c-0.5,0.2-0.9,0.4-1.1,0.5c-0.4,0.2-0.8,0.5-1.1,0.8c-0.4,0.3-0.9,0.4-1.4,0.2
		c-0.5-0.2-1.1-0.3-1.6-0.4c-0.4,0-0.8-0.1-1.2-0.2c-0.4-0.1-0.7-0.3-1-0.5c-0.3-0.2-0.4-0.2-0.5,0.1c-0.2,0.5-0.7,0.8-1.2,0.9
		c-0.3-0.2-0.6-0.4-0.8-0.6c-0.2-0.2-0.5-0.4-0.9-0.8c-0.3-0.3-0.7-0.6-1.1-0.8c-0.5-0.2-0.9-0.5-1.3-0.7c-1-0.4-2-1-3-1.5
		s-2.7-1.3-4.1-2.1s-2.7-1.7-4.3-2.8c-1.3-1-2.6-2-3.7-3.2c-2.5-2.6-4.2-5.9-4.7-9.5c-0.2-1.7-0.2-3.4,0-5.1c0.3-1.5,0.8-3,1.6-4.3
		c0.6-1,1.3-1.9,2.2-2.6c1-0.9,2.2-1.5,3.5-1.8c1.1-0.4,2.3-0.6,3.4-0.8c0.7-0.1,1.4-0.2,2.2-0.2c0.4,0.5,0.7,1,1,1.6
		c0.4,0.8,1,1.5,1.6,2.2c-0.6-0.1-1.3-0.2-1.9-0.2c-1.2,0-2.5,0.1-3.7,0.5c-1.2,0.4-2.3,1-3.2,2c-0.7,0.9-1.2,2-1.6,3.1
		c-0.3,1.3-0.4,2.6-0.3,3.9c0.2,1.2,0.6,2.5,1,3.7c0.4,1,1,1.9,1.8,2.7c0.7,0.8,1.5,1.4,2.5,1.8c1.1,0.5,2.2,0.8,3.4,0.9
		c1.1,0.2,2.2,0.2,3.3,0c0.4-0.1,0.7-0.2,1.1-0.3c-0.3,0.7-0.5,1.4-0.6,2.1c-0.2,0.9-0.2,1.8,0,2.7c0.2,0.8,0.4,1.2,1.2,1.2
		c0.7,0,1.4-0.3,1.9-0.7c0.7-0.4,1.3-0.9,1.8-1.4c0.5-0.5,0.8-1.1,1-1.7c0.1-0.7,0.3-1.4,0.6-2c0.2-0.3,0.3-0.6,0.4-0.8
		s0.5-0.2,0.5,0.2c0.1,0.3,0.2,0.5,0.5,0.7c0.3,0.2,0.6,0.2,0.8,0.4c0.5,0.3,0.9,0.7,1.2,1.2c0.2,0.4,0.2,0.8,0,1.2
		c-0.1,0.4-0.3,0.8-0.6,1.2c-0.5,0.5-1,1-1.6,1.3c-0.4,0.1-0.8,0.4-1,0.8c0.1-0.1,0.2-0.2,0.4-0.2c0.5-0.2,1.4-0.6,1.8-0.8
		c0.4-0.3,0.8-0.6,1-1.1c0.3-0.5,0.5-1,0.7-1.5c0-0.4-0.1-0.8-0.4-1.1c-0.3-0.3-0.6-0.6-0.9-0.8c-0.3-0.3-0.7-0.5-1.1-0.6
		c-0.3-0.1-0.5-0.7-0.5-1.1c0-0.4,0.1-0.9,0.4-1.2c0.3-0.2,0.6-0.4,0.8-0.7c0.2-0.3,0.7-0.9,0.9-1.2s0.8-1.1,1-1.5
		c0.3-0.5,0.6-1,0.8-1.6c0.2-0.4,0.4-1,0.5-1.3s0.4-1.1,0.5-1c0.3,0.2,0.2,0,0.1-0.3c-0.1-0.3,0-0.6,0.2-0.9
		c0.3-0.3,0.7-0.6,1.2-0.7c0.5-0.2,0.9-0.4,1.4-0.5c0.2,0.1,0.3,0.1,0.2-0.1s0.5-0.6,0.7-0.8c0.3-0.3,0.6-0.6,1-0.8
		c0.2-0.2,0.3-0.2,0.3-0.5s-0.2-0.3-0.2-0.6S89.8,98.6,90,98.6L90,98.6z M105.1,111.6c0.5,0.3,0.9,0.8,1.2,1.2
		c0.3,0.5,0.5,1.1,0.6,1.7c0,0.8-0.1,0.8-0.2,0.3c-0.1-0.5-0.2-1-0.4-1.4c-0.2-0.5-0.5-0.9-0.8-1.2
		C105,111.9,104.8,111.4,105.1,111.6z M101,111.4c0.2,0.4,0.4,0.8,0.5,1.2c0.1,0.6,0.1,1.2,0.2,1.8c0,0.7-0.3,0.8-0.3,0.2
		s-0.1-1.1-0.2-1.7c-0.1-0.5-0.2-0.9-0.3-1.4C100.7,111,100.8,111,101,111.4L101,111.4z M93.1,111.4c0,0.3-0.1,1.2-0.2,1.7
		s0,0.8,0,1.2s-0.2,0.5-0.3,0c-0.1-0.4-0.1-0.8-0.1-1.2c0-0.4,0.1-0.7,0.2-1.3S93.1,111.1,93.1,111.4L93.1,111.4z M135.4,89.8
		c0.2-0.1,0.5-0.1,0.8-0.1c0.4,0,0.7,0.2,1,0.4c0.3,0.3,0.4,0.8,0.5,1.2c0,0.3,0,0.6,0,0.9c0,0.3-0.1,0.3-0.4,0.2
		c-0.3-0.1-0.7-0.3-1-0.4c-0.4-0.2-0.7-0.5-0.9-0.9c-0.1-0.2-0.2-0.5-0.2-0.8C135.1,90,135.2,89.8,135.4,89.8L135.4,89.8z
		 M141.6,94.6c0-0.4,0.1-0.8,0.3-1.2c0.4-0.4,0.8-0.8,1.3-1.1c0.4-0.3,0.8-0.6,1.2-1c0.4-0.3,0.9-0.8,1.1-1.1
		c0.1-0.2,0.3-0.2,0.4-0.2s0.1,0.1-0.1,0.3c-0.3,0.4-0.7,0.8-1.1,1.2c-0.4,0.4-0.9,0.8-1.3,1.2c-0.3,0.2-0.6,0.5-0.9,0.9
		c-0.2,0.3-0.4,0.6-0.5,0.9C142,94.9,141.7,95,141.6,94.6L141.6,94.6z M127.2,86.4c0.1-0.2,0.5-0.3,0.8-0.2c0.3,0.1,0.5,0.2,0.8,0.4
		c0.1,0.1,0.2,0.3,0.3,0.4c0,0.2-0.1,0.3-0.2,0.1c-0.1-0.2-0.3-0.3-0.5-0.3c-0.1-0.1-0.3-0.2-0.4,0.1c0,0.1-0.2,0.1-0.3,0.1
		c-0.1,0-0.2-0.1-0.3-0.1C127.2,86.7,127.1,86.5,127.2,86.4L127.2,86.4z M134.9,90.5c0,0.1,0.1,0.4,0.1,0.7c0,0.2,0,0.4-0.1,0.6
		c-0.1,0.3-0.1,0.7-0.2,1c0,0.3-0.1,0.7-0.2,0.4c-0.1-0.4-0.1-0.7-0.1-1.1c0-0.3,0.1-0.7,0.2-1C134.8,90.7,134.9,90.4,134.9,90.5
		L134.9,90.5z M90.2,98.2c0.2,0,0.4,0,0.6,0c0.2,0,0.4-0.1,0.6-0.2c0-0.1,0-0.3-0.1-0.4c-0.1-0.2-0.2-0.4-0.4-0.5
		c-0.2-0.1-0.4-0.1-0.5-0.1c-0.2,0-0.4,0.1-0.2,0.2s0.2,0.2,0.2,0.4c0,0.1,0,0.3-0.1,0.4C90.2,98.1,90.1,98.2,90.2,98.2z M92.6,98.1
		c0.1,0.1,0.3,0.2,0.4,0.2c0.1,0,0.3,0,0.4,0c0,0,0-0.1,0.1-0.3c0-0.2,0-0.4-0.1-0.6c0-0.2-0.1-0.3-0.3-0.4
		c-0.1-0.1-0.3-0.2-0.5-0.3c-0.2,0-0.3,0-0.2,0.1c0.1,0.1,0.2,0.3,0.2,0.4c0,0.2,0,0.3,0,0.5C92.7,97.9,92.6,98,92.6,98.1L92.6,98.1
		z M94.4,99.6c0.1,0.1,0.2,0.3,0.3,0.4c0.1,0.1,0.3,0.2,0.4,0.3c0,0,0.1-0.1,0.2-0.3c0.1-0.1,0.1-0.3,0.1-0.5c0-0.2,0-0.3-0.1-0.5
		c-0.1-0.1-0.1-0.2-0.2-0.3c-0.1-0.1-0.2-0.2-0.2,0c0,0.1,0,0.3,0,0.4c0,0.1-0.1,0.2-0.2,0.3C94.5,99.5,94.4,99.6,94.4,99.6z
		 M94.2,99.8c0.2,0.3,0.4,0.6,0.7,0.8c0.1,0.1,0.1,0.4,0,0.5s-0.3,0.2-0.4,0.4s-0.4,0.4-0.6,0.5c-0.2,0.1-0.4,0.3-0.5,0.5
		c-0.2,0.2-0.4,0.3-0.7,0.3c-0.5,0.2-0.6,0.2-0.3-0.1c0.2-0.2,0.4-0.5,0.6-0.7c0.1-0.3,0.2-0.6,0.3-0.8c0.1-0.2,0.4-0.6,0.5-0.8
		c0.1-0.2,0.1-0.3,0.2-0.5C94.1,99.7,94.2,99.8,94.2,99.8L94.2,99.8z M105.5,102.6c0.1,0.4,0.2,0.7,0.2,1.1c0,0-0.2,0.1-0.4,0.2
		s-0.6,0.3-0.9,0.5s-0.7,0.3-0.8,0.5s-0.4,0.5-0.7,0.8c-0.1,0.2-0.2,0.4-0.3,0.7c-0.1,0.1-0.2,0.2-0.3,0c-0.2-0.3-0.4-0.5-0.7-0.7
		c-0.2-0.1-0.3-0.3-0.2-0.5c0.1-0.2,0.3-0.4,0.5-0.4c0.3-0.1,0.5-0.3,0.7-0.5c0.2-0.2,0.2-0.5,0.5-0.7c0.3-0.2,0.6-0.3,0.9-0.3
		c0.3-0.1,0.6-0.2,0.8-0.2C105.1,102.8,105.3,102.7,105.5,102.6L105.5,102.6z M103.1,106.9c0.4,0,0.8,0.2,1.1,0.4
		c0.2,0.2,0.3,0.2,0.5,0.1s0.2-0.3,0.2-0.6c0.1-0.3,0.2-0.6,0.4-0.8c0.2-0.1,0.4-0.3,0.5-0.4c0-0.5-0.1-1.1-0.2-1.6
		c-0.2,0.1-0.3,0.2-0.5,0.3c-0.3,0.2-0.5,0.3-0.8,0.4c-0.3,0.1-0.5,0.3-0.7,0.5c-0.2,0.3-0.3,0.6-0.4,0.7s-0.4,0.2-0.4,0.4
		S103,106.9,103.1,106.9z M103,107.2c0.2,0,0.4,0,0.5,0.1c0.2,0.1,0.3,0.1,0.5,0.3c0.1,0.1-0.1,0.1-0.2,0.2
		c-0.1,0.1-0.2,0.3-0.3,0.4c-0.1,0.1-0.1,0.3-0.1,0.4c0,0.1,0,0.2,0,0.3c0,0.1,0,0.2-0.1,0.1c-0.1-0.1-0.2-0.2-0.3-0.3
		c-0.1-0.1-0.2-0.3-0.2-0.5c-0.1-0.2-0.1-0.4,0-0.6C102.7,107.3,102.9,107.2,103,107.2L103,107.2z M101.4,105.8
		c0.2,0.1,0.3,0.2,0.4,0.3c0.1,0.2,0.3,0.3,0.3,0.5c0,0.1-0.1,0.1-0.2,0.2c-0.2,0.1-0.3,0.2-0.4,0.3c-0.1,0.1-0.1,0.3-0.1,0.4
		c0,0.2,0,0.2-0.1,0.1c-0.1-0.1-0.2-0.3-0.2-0.5c-0.1-0.2-0.1-0.5,0-0.7c0-0.1,0.1-0.3,0.2-0.4C101.3,105.9,101.3,105.8,101.4,105.8
		L101.4,105.8z M100.7,103.8c0.1,0.1,0.3,0.2,0.3,0.3c0.1,0.2,0.1,0.4,0.1,0.6c0,0.2-0.1,0.1-0.3,0.1c-0.2,0-0.3,0.1-0.4,0.2
		c-0.1,0.1-0.3,0.2-0.3,0.4c0,0.2-0.1,0.3-0.2,0.1c-0.1-0.2-0.1-0.4-0.1-0.6c0-0.2,0.1-0.5,0.3-0.6c0.1-0.1,0.2-0.2,0.3-0.3
		C100.5,103.9,100.6,103.8,100.7,103.8z M100.8,103.6c0.3,0.2,0.5,0.5,0.6,0.8c0,0.2,0.2,0.1,0.3,0c0.2-0.1,0.4-0.2,0.6-0.4
		c0.1-0.2,0.2-0.4,0.3-0.6c0.1-0.2,0.3-0.3,0.5-0.4c0.4-0.2,0.4-0.2,0-0.2s-0.5,0-0.8,0s-0.5,0.1-0.8,0.1c-0.2,0-0.4,0.1-0.6,0.1
		C100.8,103.3,100.8,103.5,100.8,103.6L100.8,103.6z M111.3,106c0.2,0.4,0.4,0.7,0.6,1c0.4,0.5,0.7,1,1,1.5c0.2,0.4,0.7,1.1,1,1.4
		c0.3,0.4,0.6,0.7,1,1c0.3,0.2,0.5,0.6,0.4,0.3c-0.1-0.4-0.2-0.7-0.2-1.1c0-0.4-0.1-0.8-0.2-1.2c-0.1-0.4-0.3-0.7-0.6-1
		c-0.3-0.2-0.6-0.4-0.9-0.6c-0.3-0.2-0.7-0.5-1.1-0.7S111.3,105.9,111.3,106L111.3,106z M115.8,111.7c0.4,0,0.8-0.1,1.1-0.2l1.5-0.3
		c0.3-0.1,0.7-0.1,0.9-0.2h0.7c0.3,0,0,0.1-0.2,0.3c-0.2,0.2-0.4,0.4-0.6,0.6c-0.2,0.3-0.4,0.5-0.7,0.8c-0.2,0.3-0.5,0.5-0.8,0.7
		c-0.3,0.2-0.6,0.4-0.6,0.4c-0.1-0.3-0.2-0.6-0.5-0.9c-0.2-0.2-0.4-0.7-0.6-0.9S115.7,111.7,115.8,111.7L115.8,111.7z M119.8,90.4
		c0.1,0.3,0.3,0.6,0.5,0.9c0.3,0.3,0.5,0.6,0.9,0.8c0.4,0.3,0.8,0.5,1.2,0.7c0.5,0.2,0.9,0.3,1.4,0.4c0.6,0.1,1.3,0.2,1.9,0.2
		c0.2-0.2,0.3-0.3,0.4-0.5c0.2-0.2,0.3-0.5,0.4-0.7c-0.2-0.1-0.5-0.1-0.8-0.1c-0.2,0.2-0.4,0.4-0.6,0.4c-0.2,0.1-0.2-0.4-0.2-0.5
		c-0.1-0.1-0.3-0.1-0.4-0.1c-0.4-0.1-0.7-0.1-1.3-0.2s-1-0.2-1.5-0.3c-0.4-0.1-0.7-0.3-1.1-0.5c-0.2-0.1-0.4-0.3-0.5-0.5
		C119.8,90.1,119.7,90,119.8,90.4L119.8,90.4z M140.2,90.4c0.5,0.2,1,0.6,1.3,1c0,0.1,0.2-0.5,0.2-1s0.2-1.2,0.3-1.6
		s0.1-0.8,0.2-1.1s-0.1-0.5-0.3-0.2c-0.2,0.4-0.4,0.7-0.7,1c-0.3,0.3-0.5,0.6-0.7,1C140.4,89.7,140.3,90,140.2,90.4L140.2,90.4z
		 M133.8,88.4c0.3,0.2,0.7,0.3,1,0.4c0.3,0.1,0.7,0.1,1-0.1c-0.2-0.2-0.4-0.3-0.6-0.4c-0.3-0.2-0.6-0.2-0.9-0.1
		C133.8,88.4,133.6,88.3,133.8,88.4z M143.2,98.2c-0.1,0.8-0.2,1.6-0.5,2.4c-0.2,0.5,0,0.3,0.3,0.1c0.3-0.2,0.5-0.4,0.8-0.7
		c0.2-0.2,0.2-0.2,0.1-0.7s-0.3-0.6-0.4-0.9S143.3,98,143.2,98.2L143.2,98.2z M141.8,103c-0.3,0.8-1,2.4-1.5,3.4
		c-0.2,0.5,0,0.2,0.3,0s0.7-0.5,1.1-0.8s0.3-0.2,0.3-0.7s-0.1-0.9-0.1-1.4S141.9,102.7,141.8,103L141.8,103z M136.7,112.5
		c0.4-0.5,1.6-2.4,2-3s0.3-0.5,0.3,0.1s0,1.3-0.1,1.8s0,0.6-0.5,0.8c-0.5,0.2-0.9,0.3-1.4,0.5C136.6,112.8,136.5,112.8,136.7,112.5
		L136.7,112.5z M131.9,118.1c0.3-0.3,2.7-3.1,3-3.6s0.2-0.2,0.2,0.2c-0.1,0.6-0.3,1.8-0.4,2.3s-0.1,0.6-0.6,0.8s-1,0.3-1.6,0.5
		S131.6,118.5,131.9,118.1L131.9,118.1z M130.2,119.8c-0.2,0.3-0.6,0.6-0.8,0.8s-0.5,0.6-0.2,0.5s0.5,0,0.7,0s0.4,0.2,0.4-0.1
		c0-0.4,0-0.5,0.1-1S130.5,119.5,130.2,119.8L130.2,119.8z M95.8,118.1c0.3-0.2,0.7-0.3,1-0.4c0.2,0,0.2,0,0.2,0.1
		c0,0.2,0,0.3,0.1,0.5c0.1,0.3,0.1,0.2-0.2,0.2c-0.2-0.1-0.4-0.1-0.6-0.1c-0.2,0-0.3,0-0.5,0C95.5,118.4,95.6,118.2,95.8,118.1
		L95.8,118.1z M126.9,92.3c0.3,0.1,0.6,0.3,0.9,0.4c0.3,0.1,0.6,0.4,1,0.6s0.7,0.4,1.1,0.7c0.4,0.3,0.7,0.6,1.1,0.9
		c0.2,0.3,0.7,0.6,1,0.9s0.6,0.6,0.9,1c0.3,0.4,0.6,0.7,1,1c0.3,0.3,0.7,0.6,1,0.8c0,0.2-0.1,0.3-0.2,0.5c-0.3-0.2-0.7-0.5-0.9-0.8
		c-0.3-0.2-0.8-0.9-1-1.1c-0.3-0.4-0.7-0.7-1.1-1c-0.6-0.5-1.3-1-2-1.4c-0.5-0.2-1.3-0.7-1.8-0.9l-1-0.3c0,0,0.1-0.3,0.1-0.5
		s0.1-0.7,0.1-0.7L126.9,92.3z M113.7,99.2c0.2-0.1,0.4-0.1,0.5-0.1c0.2,0,0.3,0.2,0.4,0.1c0.2-0.2,0.2-0.5,0.2-0.8
		c0-0.1-0.2-0.1-0.5,0c-0.3,0.1-0.5,0.3-0.7,0.5C113.4,99.3,113.6,99.3,113.7,99.2z M114.9,96.2c0.2,0,0.4,0,0.6,0.1
		c0.2,0.1,0.3,0.5,0.4,0.4c0.4-0.1,0.6-0.4,0.6-0.8c0-0.1-0.1-0.1-0.3-0.2c-0.2,0-0.5,0-0.7,0c-0.2,0-0.4,0.1-0.5,0.2
		C114.7,96,114.6,96.2,114.9,96.2L114.9,96.2z M117.2,94.7c0.2,0,0.4,0,0.7,0c0.2,0,0.3,0.1,0.4,0.3c0.1,0.1,0.3,0.3,0.2,0.4
		c-0.3,0-0.5,0.1-0.7,0.3c0,0-0.1-0.2-0.2-0.3c-0.1-0.1-0.2-0.3-0.3-0.3l-0.3-0.1C117,94.8,117,94.8,117.2,94.7"/>
	
		<path id="path22" style="clip-path:url(#SVGID_00000183207324672396339270000017274577678707523222_);fill-rule:evenodd;clip-rule:evenodd;fill:#EDC282;" d="
		M100.8,24.9c0,0.3,0.1,0.6,0.2,0.9c0.2,0.4,0.3,0.7,0.5,1s0.3,0.4,0.3,0.3s0.1-0.2,0.1,0c0,0.2,0.1,0.5,0.2,0.7
		c0.1,0.2,0.3,0.5,0.4,0.7c0.1,0.2,0.3,0.4,0.4,0.5c0.1,0.2,0.2,0.4,0.3,0.6c0,0.2,0,0.4,0,0.5c0,0.2-0.1,0.6-0.2,0.8
		s-0.2,0.6-0.3,0.9c-0.1,0.2-0.1,0.6-0.2,0.8s-0.4,0.7-0.6,1s-0.5,0.8-0.7,1.1c-0.3,0.4-0.5,0.8-0.8,1.2c-0.3,0.3-0.6,0.6-1,0.9
		c-0.3,0.2-0.6,0.4-1,0.5c-0.3,0.1-0.7,0.2-1,0.2c-0.4,0-0.9-0.1-1.3-0.3c-0.4-0.2-0.7-0.5-1-0.8c-0.3-0.3-0.5-0.6-0.7-0.9
		c-0.2-0.3-0.3-0.7-0.4-1c-0.1-0.5-0.2-1.1-0.2-1.7c0-0.5,0-0.9,0-1.4c0-0.3,0-0.6,0.1-0.9c0-0.2,0.1-0.3,0.2-0.5
		c0.1-0.1,0.5-0.8,0.6-1c0.1-0.3,0.3-0.6,0.4-0.9c0.1-0.2,0.4-0.7,0.5-0.9s0.1-0.2,0.4-0.4s0.5-0.5,0.8-0.6c0.2-0.1,0.5-0.2,0.8-0.2
		c0.2,0,0.3,0,0.3,0.1s-0.2,0.3,0.2,0.3c0.3-0.1,0.7-0.1,1-0.2c0.3-0.1,0.6-0.3,0.9-0.5c0.2-0.2,0.4-0.4,0.6-0.6
		C100.7,24.9,100.7,24.8,100.8,24.9L100.8,24.9z M97.4,31.9c-0.1,0-0.3,0.1-0.3,0.2c-0.1,0.1-0.2,0.3-0.2,0.5c0,0.2,0,0.3,0.2,0.4
		c0.2,0,0.4,0.1,0.5,0.3c0.2,0.1,0.4,0.2,0.6,0.3c0.2,0.1,0.4,0.1,0.6,0.1c0.1,0,0.3,0,0.4,0c0.1,0.1,0.2,0.1,0.4,0
		c0.2-0.1,0.3-0.3,0.3-0.5c0-0.2,0-0.3,0-0.5c-0.1-0.1-0.1-0.2-0.2-0.1s0,0.3,0,0.4c0,0.1-0.1,0.3-0.2,0.4c-0.2,0.2-0.3,0.2-0.5,0.1
		c-0.2,0-0.4,0-0.6,0c-0.2,0-0.3-0.1-0.5-0.2c-0.1-0.1-0.3-0.2-0.4-0.3c-0.1,0-0.2,0-0.3-0.2c0-0.1,0-0.3,0.1-0.4
		c0-0.1,0.1-0.2,0.2-0.2s0.2,0,0.2-0.1S97.6,31.9,97.4,31.9L97.4,31.9z M96.2,34.4l0.8-0.1l0.5-0.1c0.1,0,0.2,0,0.3,0.1
		c0.1,0.1,0.3,0.2,0.4,0.2c0.2,0,0.2,0,0.3,0.1s0.2,0.2,0.3,0.4s0.1,0.2,0.2,0.3s0,0.1-0.1,0.1c-0.2,0-0.3-0.1-0.5-0.2
		c-0.1-0.1-0.3-0.1-0.4-0.1c-0.2,0-0.4-0.1-0.6-0.2c-0.1-0.1-0.2-0.2-0.4-0.2c-0.2,0-0.4-0.1-0.5-0.2C96.3,34.5,96.1,34.4,96.2,34.4
		z M97.5,35.6l0.5,0.2c0.1,0,0.1,0,0.1,0.1c0,0.1,0,0.2,0,0.2c0,0.1,0,0.1-0.2,0c-0.2-0.1-0.3-0.2-0.5-0.2c-0.2,0-0.3-0.1-0.5-0.1
		c-0.2,0-0.3,0-0.4,0s-0.2-0.1,0-0.2c0.1,0,0.2-0.1,0.3-0.2c0.1-0.1,0.1-0.1,0.2,0C97.1,35.5,97.3,35.5,97.5,35.6L97.5,35.6z
		 M98.7,28.6c0.2,0,0.2-0.1,0-0.3s-0.3-0.2-0.6-0.4l-0.6-0.4c-0.1-0.1-0.2-0.1-0.3-0.1c-0.2,0-0.3,0-0.5,0c-0.2,0-0.3,0-0.5,0.1
		c-0.2,0-0.5,0.2-0.1,0.2c0.2,0,0.5,0,0.8,0c0.2,0,0.4,0.1,0.5,0.1c0.1,0.1,0.3,0.2,0.4,0.3c0.1,0.1,0.3,0.2,0.5,0.3
		c0.1,0.1,0.2,0.1,0.3,0.1C98.5,28.6,98.6,28.6,98.7,28.6L98.7,28.6z M100.7,29.3c0.1-0.1,0.3-0.2,0.5-0.2c0.3,0,0.6,0.1,0.8,0.1
		c0.3,0,0.5,0.1,0.7,0.2c0.1,0.1,0.2,0.2,0.3,0.4c0.1,0.1,0.1,0.4,0,0.3c-0.1-0.1-0.3-0.2-0.4-0.3c-0.2-0.1-0.3-0.2-0.5-0.2
		l-0.6-0.1c-0.2,0-0.4,0-0.6-0.1C100.7,29.4,100.6,29.3,100.7,29.3L100.7,29.3z M100.4,29.4c-0.2,0.1-0.4,0.2-0.5,0.3
		c-0.2,0.2-0.3,0.4-0.3,0.7c-0.1,0.2-0.2,0.7-0.2,0.9c0,0.2-0.1,0.4-0.1,0.6c0,0.1,0,0.3,0,0.4c0,0.1,0.1,0.3,0.1,0.1
		c0-0.3,0-0.5,0.1-0.8c0.1-0.3,0.1-0.6,0.2-0.9c0.1-0.3,0.2-0.5,0.3-0.8c0.1-0.1,0.2-0.2,0.2-0.3C100.3,29.6,100.5,29.5,100.4,29.4
		L100.4,29.4z M97.9,29.6c-0.1-0.3-0.3-0.5-0.6-0.6c-0.2-0.1-0.5-0.2-0.7-0.2c-0.2,0-0.4,0-0.6,0.1c-0.3,0-0.2,0.1-0.1,0.2
		c0.1,0.1,0.1,0.3,0.3,0.4c0.2,0.2,0.4,0.3,0.6,0.3c0.2,0,0.4,0.1,0.7,0.1c0.1,0,0.3,0,0.4,0c0.1,0,0.2,0,0.2,0S98,29.8,97.9,29.6
		L97.9,29.6z M100.5,30.4c0.3-0.2,0.5-0.3,0.8-0.3c0.2,0,0.5,0.1,0.7,0.2c0.2,0.1,0.3,0.2,0.4,0.4c0.1,0.2,0.1,0.2,0,0.3
		c-0.1,0.1-0.3,0.1-0.4,0.1c-0.2,0-0.4,0-0.7-0.1c-0.2-0.1-0.4-0.2-0.6-0.3c-0.1-0.1-0.2-0.1-0.3-0.2c-0.1,0-0.2-0.1-0.2-0.1
		S100.4,30.5,100.5,30.4L100.5,30.4z M62.5,63.3c0.1,0.2,0.4,0.7,0.6,1.2s0.4,0.8,0.5,1.2c0.1,0.2,0.2,0.5,0.2,0.7
		c-0.1,0.2-0.2,0.3-0.3,0.5c-0.2,0.3-0.5,0.5-0.8,0.6c-0.4,0.1-0.8,0.3-1.2,0.3c0-0.2-0.2-0.8-0.2-1.1s-0.1-0.6-0.2-0.8
		c0-0.1-0.1-0.3-0.1-0.4c0.1,0.1,0.2,0.1,0.4,0.1c0.2,0,0.4,0,0.6,0c0.2-0.1,0.3-0.2,0.1-0.1c-0.3,0-0.5,0-0.8-0.1
		c-0.3-0.1-0.5-0.2-0.8-0.3c-0.3-0.1-0.5-0.3-0.6-0.6c-0.1-0.2-0.2-0.3-0.2-0.3c0-0.1,0-0.2,0.1-0.3c0.1-0.1,0.1-0.1,0.2-0.2
		c0.1-0.2,0-0.2-0.1,0s-0.1,0.1-0.2,0.2c-0.2,0.2,0,0.4-0.2,0.4c-0.2,0.1-0.3,0.1-0.5,0.1c-0.2,0-0.3,0-0.5-0.1
		c-0.1-0.1-0.1-0.2-0.3-0.2s-0.2,0-0.1,0.1c0.1,0,0.2,0.1,0.3,0.2c0.1,0.1,0.2,0.3,0.1,0.4c0,0.2,0,0.3-0.2,0.5
		c-0.1,0.1-0.3,0.2-0.4,0.2c-0.1,0-0.2-0.2-0.2-0.4c0-0.2,0-0.3,0-0.5c-0.1-0.2,0-0.4-0.1-0.6s0-0.4,0.2-0.5s0.7-0.2,0.9-0.3
		c0.3-0.1,0.6-0.2,0.8-0.2c0.3,0,0.8,0,1,0c0.3,0,0.5,0.1,0.8,0.1c0.2,0.1,0.4,0.1,0.7,0.1C62.2,63.3,62.3,63.4,62.5,63.3L62.5,63.3
		z M58,68c-0.1,0.1-0.1,0.3,0,0.5s0.2,0.3,0.3,0.3c0.2,0,0.4,0,0.5,0c0.3,0,0.5-0.1,0.8-0.2c0.2-0.1,0.4-0.2,0.5-0.3
		c0.1-0.1,0.1-0.2,0.1-0.4c0-0.2-0.1-0.2-0.2-0.3c-0.2-0.1-0.4-0.1-0.6,0c-0.2,0.1-0.6,0.1-0.8,0.2C58.4,67.8,58.2,67.9,58,68z
		 M57.3,66.8c0.2-0.1,0.4-0.2,0.5-0.2l0.6-0.1c0.3-0.1,0.5-0.1,0.8-0.2c0.2,0,0.5,0,0.7,0c0.2,0,0.4,0.1,0.5,0.3
		c0.1,0.2,0,0.4-0.1,0.6c-0.2,0.1-0.4,0.2-0.7,0.3l-0.8,0.2c-0.2,0-0.4,0.1-0.6,0.2c-0.2,0.1-0.4,0.1-0.6,0
		c-0.2-0.1-0.3-0.2-0.3-0.4C57.2,67.2,57.2,67,57.3,66.8L57.3,66.8z M57.2,65.3c0.2-0.1,0.3-0.1,0.5-0.2c0,0.3,0.1,0.6,0.4,0.5
		c0.4-0.1,0.6-0.3,0.7-0.7c0.3,0,0.5,0,0.8,0c0.2,0,0.4,0.2,0.5,0.4c0,0.2,0.1,0.4-0.1,0.6c-0.2,0.1-0.5,0.2-0.7,0.2l-1,0.2
		c-0.3,0.1-0.7,0.2-0.8,0.2c-0.1,0-0.2,0-0.4,0c-0.1-0.1-0.2-0.3-0.2-0.4c0-0.2,0-0.3,0-0.5C56.9,65.5,57.1,65.4,57.2,65.3
		L57.2,65.3z M56.7,65.1c0.1,0.1,0.2,0.1,0.4,0c0.2,0,0.3-0.1,0.5-0.2c0-0.2,0-0.3-0.1-0.5c-0.1-0.2-0.1-0.4-0.1-0.6
		c-0.1,0-0.3,0-0.4,0.1c-0.3,0.1-0.4,0.3-0.4,0.6C56.7,64.8,56.7,65,56.7,65.1L56.7,65.1z M58.8,64.8c0-0.1,0-0.2,0-0.3
		c0.1,0,0.2,0,0.3,0c0.1,0,0.2,0,0.3-0.1c0,0,0,0.1,0,0.1c0,0.1-0.1,0.2-0.2,0.2C59,64.8,58.9,64.8,58.8,64.8L58.8,64.8z
		 M120.2,52.7c0.1,0.3,0.2,0.7,0.4,1c0.2,0.4,0.5,0.9,0.7,1.1s0.2,0,0.4,0c0.3,0,0.5,0,0.8,0.1c0.2,0,0.5,0,0.7,0
		c0.3,0,0.6-0.1,0.8-0.1c0.2,0,0.4,0,0.6,0c0.2,0,0.6,0,0.8,0.1l0.8,0.2c0.2,0,0.5,0,0.7-0.1c0.2,0,0.3-0.2,0.4-0.3
		c0.1-0.2,0-0.3-0.1-0.5c-0.2-0.2-0.4-0.3-0.6-0.3c-0.2,0-0.4-0.1-0.6-0.1c-0.2,0-0.4-0.1-0.6-0.2c-0.2-0.1-0.3-0.2-0.5-0.3
		c-0.1-0.1-0.2-0.2-0.3-0.3c-0.1-0.2-0.1-0.3,0-0.2s0.2-0.1,0.2-0.2c0.1-0.2,0.1-0.3,0.2-0.5c0.1-0.2,0.2-0.2,0.4-0.3
		c0.2-0.1,0.3-0.1,0.4-0.2c0.1-0.1,0.2-0.2,0.3-0.3c0.1-0.1,0.2-0.1,0.1,0c0,0.1-0.1,0.2-0.2,0.3c-0.2,0.2,0,0.2,0.3,0.2
		c0.2,0,0.4,0,0.6,0c0.2,0,0.3,0,0.5,0c0.2,0,0.2,0,0.1,0.1c-0.1,0.1-0.2,0.1-0.4,0.1c-0.2,0-0.3,0-0.2,0.2c0.1,0.2,0.1,0.3,0.2,0.4
		c0.1,0.1,0.1,0.3,0.1,0.3c0.2,0.1,0.3,0.2,0.5,0.3c0.1,0.1,0.2,0.3,0.3,0.4c0.1,0.2,0.2,0,0.2-0.2s0.1-0.4,0.1-0.5
		c0-0.2,0-0.4-0.1-0.6l-0.4-0.9c-0.1-0.2-0.2-0.4-0.4-0.6c-0.2-0.1-0.4-0.2-0.6-0.3c-0.3-0.1-0.5-0.2-0.8-0.3s-0.6-0.1-0.8-0.2
		c-0.3-0.1-0.6-0.2-0.9-0.2c-0.3,0-0.5,0.2-0.7,0.4c-0.2,0.2-0.9,0.7-1.2,1s-0.6,0.4-0.9,0.7c-0.3,0.2-0.5,0.4-0.8,0.5
		c-0.4,0.2-0.9,0.4-0.9,0.4"/>
	
		<path id="path24" style="clip-path:url(#SVGID_00000183207324672396339270000017274577678707523222_);fill-rule:evenodd;clip-rule:evenodd;fill:#FAE042;" d="
		M117,75.3c2.1,0,3.9,0.4,3.9,0.9s-1.8,0.9-3.9,0.9s-3.9-0.4-3.9-0.9S114.9,75.3,117,75.3z M117,79.6c2.1,0,3.8-1.2,4-2.7
		c-1.4,0.5-2.9,0.7-4.3,0.6c-1.2,0-2.5-0.2-3.6-0.6C113.2,78.4,114.9,79.6,117,79.6z M136.8,75.3c-2.1,0-3.9,0.4-3.9,0.9
		s1.8,0.9,3.9,0.9s3.9-0.4,3.9-0.9S138.9,75.3,136.8,75.3L136.8,75.3z M136.8,79.6c-2.1,0-3.8-1.2-4-2.7c1.4,0.5,2.9,0.7,4.3,0.6
		c1.2,0,2.5-0.2,3.6-0.6C140.6,78.4,138.9,79.6,136.8,79.6L136.8,79.6z M128.4,62.3c0.1,0.1,0.1,0.2,0.2,0.2l-0.4,1
		c1.8,0,4.4,0.1,5,0.1c0.7,0,3.2,0.3,3.8,0.2s0.8-0.3,1.1-0.9s0.7-1.3,0.2-1.2s-0.8,0.8-1,1.2s-0.6,0.3-1.3,0.2s-2.6-0.4-4-0.6
		C131.1,62.5,129.6,62.4,128.4,62.3L128.4,62.3z M125.3,62.3c-1.1,0.1-2.5,0.2-3.4,0.3c-1.4,0.1-3.3,0.5-4,0.6s-1.1,0.1-1.3-0.2
		s-0.5-1.1-1-1.2s-0.1,0.6,0.2,1.2s0.6,0.8,1.1,0.9s3-0.2,3.8-0.2c0.5,0,3.2-0.1,4.9-0.1c-0.1-0.3-0.4-0.8-0.5-1
		C125.1,62.4,125.2,62.4,125.3,62.3L125.3,62.3z M126.9,65.7L126.9,65.7c0,0-1-2.3-1.1-2.7s-0.2-0.3,0.1-0.5
		c0.3-0.6,0.5-1.2,0.6-1.9c0-0.5,0.1-1.4,0.1-1.9s-0.1-2.3-0.2-2.7c0-0.2-0.2-0.6-0.3-0.9c0.3,0,0.5,0,0.8,0
		c0.4-0.1,0.7-0.3,0.8-0.5c0-0.3-0.1-0.5-0.3-0.7c-0.3-0.2-0.6-0.3-0.9-0.4c0.1-0.2,0.4-0.2,0.5-0.2l0,0c0.6,0.1,1,0.5,1,1.1
		c0,0.5-0.4,1.2-0.5,1.6s-0.1,2.2-0.2,2.7s0,1.4,0.1,1.9c0.1,0.7,0.3,1.3,0.6,1.9c0.2,0.2,0.2,0.1,0.1,0.5S126.9,65.7,126.9,65.7
		L126.9,65.7z M126.9,62.3c0.4,0,0.7,0.3,0.7,0.7l0,0c0,0.4-0.3,0.7-0.7,0.7c-0.4,0-0.7-0.3-0.7-0.7S126.5,62.3,126.9,62.3z
		 M98.7,18c6,0,10.8,4.8,10.8,10.8c0,4.4-2.6,8.3-6.7,10c0.2-0.3,0.3-0.6,0.5-0.8c0.7-0.7,1.3-1.4,1.7-2.3c0.3-1,0.5-2.1,0.5-3.2
		c0-1-0.2-1.9-0.1-2.8c0.1-1,0.2-2,0.1-3c-0.1-0.9-0.4-1.8-0.9-2.5c-0.5-0.7-1.2-1.3-2-1.7c-0.8-0.4-1.2,0.1-1.3,0.1s-0.1-0.7-1-0.9
		c-1.3-0.2-2.8,0.3-4.2,0.6c-1.1,0.3-1.9,1.1-2.4,2.1c-0.6,1.2-1.3,2.3-1.8,3.5c-0.6,1.5-1.4,1.7-1.7,2.6c-0.3,0.9-0.5,1.8-0.6,2.7
		c0,0.5-0.1,1.2-0.1,1.6c-3.3-4.9-2-11.7,3-15C94.4,18.6,96.6,18,98.7,18L98.7,18z M49,29.6c-0.2,0.1-0.3,4.2,0.4,6.7l6.8,24.3
		l0.4,1.3c0.6-0.1,1.1-0.2,1.7-0.4c0.5-0.2,1.1-0.3,1.6-0.5l-0.4-1.4l-7.3-24.2C51.5,33,49.2,29.5,49,29.6L49,29.6z M58.6,62.7
		c-1.8,0.5-3.7,0.9-5.5,1.2l-0.6-1.4c1.2,0.1,2.4,0.1,3.6,0c1-0.2,1.9-0.4,2.3-0.5s1.3-0.4,2.2-0.8c1.1-0.5,2.1-1.1,3-1.8l0.3,1.5
		C62.2,61.5,60.4,62.2,58.6,62.7L58.6,62.7z M60.6,69.7c0.6-0.1,1.1,0.4,1.2,1s-0.4,1.1-1,1.2c-0.5,0.1-1-0.3-1.2-0.8
		C59.5,70.4,59.9,69.8,60.6,69.7L60.6,69.7z M59.6,69.9c0.2-0.2,0.5-0.4,0.8-0.5c0.4-0.1,0.8-0.1,1.1,0c0,0-0.1-0.5-0.1-0.7
		s-0.1-0.8-0.2-1.2S61,66.2,60.9,66l-0.2-0.6c0,0-0.1,0-0.2,0s-0.2-0.1-0.2-0.1c0,0.1,0,0.3,0,0.4c0,0.1,0,0.2-0.1,0.3
		c-0.2,0.1-0.2,0.1,0,0.2c0.2,0.1,0.4,0.2,0.4,0.4c0,0.2,0,0.4-0.1,0.6c-0.1,0.1-0.1,0.1-0.2,0.2c-0.2,0.1-0.2,0.1,0,0.1
		s0.2,0.2,0.2,0.4c0,0.2,0,0.3-0.1,0.4c-0.1,0.1-0.3,0.2-0.5,0.3c-0.2,0.1-0.4,0.2-0.5,0.2c-0.2,0-0.3,0-0.3,0.1l0.3,0.7
		C59.4,69.7,59.5,69.9,59.6,69.9"/>
	<path style="clip-path:url(#SVGID_00000183207324672396339270000017274577678707523222_);fill:#FFFFFF;" d="M77.4,99.4
		c-12.6,0-22.9,10.2-22.9,30.5c0,25.4,18.2,50.9,40.7,50.9s40.7-25.4,40.7-50.9c0-20.3-10.2-30.5-22.9-30.5
		c-6.9,0-13.5,3.1-17.8,8.5C90.9,102.5,84.3,99.4,77.4,99.4z"/>
	<path style="clip-path:url(#SVGID_00000183207324672396339270000017274577678707523222_);fill:#FFFFFF;" d="M27.8,112.6h134.7
		c3,0,5.5,2.4,5.5,5.5v44c0,3-2.4,5.5-5.5,5.5H27.8c-3,0-5.5-2.4-5.5-5.5v-44C22.4,115.1,24.8,112.6,27.8,112.6z"/>
	<g style="clip-path:url(#SVGID_00000183207324672396339270000017274577678707523222_);enable-background:new    ;">
		<text transform="matrix(1 0 0 1 34.18 134.35)" class="st13 st14 st15">Biała Podlaska</text>
	</g>
	<g style="clip-path:url(#SVGID_00000183207324672396339270000017274577678707523222_);enable-background:new    ;">
		<text transform="matrix(1 0 0 1 48.87 160.61)" class="st13 st14 st16">Bieraście</text>
	</g>
	<path style="clip-path:url(#SVGID_00000183207324672396339270000017274577678707523222_);fill:#FFFFFF;" d="M45,0H16H0v16
		c0,7,0,14,0,21c10.3,12.4,28.6,14,41,3.7c6.7-5.5,10.5-13.8,10.5-22.4C51.5,11.6,49.2,5.2,45,0z"/>
	<g style="clip-path:url(#SVGID_00000183207324672396339270000017274577678707523222_);enable-background:new    ;">
		<text transform="matrix(1 0 0 1 15.58 31.75)" class="st13 st14 st17">40</text>
	</g>
</g>
</svg>
