<?xml version="1.0" encoding="utf-8"?>
<!-- Generator: Adobe Illustrator 26.0.3, SVG Export Plug-In . SVG Version: 6.00 Build 0)  -->
<svg version="1.1" id="Слой_1" xmlns="http://www.w3.org/2000/svg" xmlns:xlink="http://www.w3.org/1999/xlink" x="0px" y="0px"
	 viewBox="0 0 195.6 280.6" style="enable-background:new 0 0 195.6 280.6;" xml:space="preserve">
<style type="text/css">
	.st0{clip-path:url(#SVGID_00000114037854542391660650000016660476344380311480_);fill:#3A81C3;}
	.st1{clip-path:url(#SVGID_00000114037854542391660650000016660476344380311480_);}
	.st2{fill-rule:evenodd;clip-rule:evenodd;fill:#DC2D1A;}
	.st3{fill-rule:evenodd;clip-rule:evenodd;fill:#FFFFFF;}
	.st4{fill:#FFFFFF;}
	.st5{fill-rule:evenodd;clip-rule:evenodd;fill:#EAA518;}
	.st6{fill-rule:evenodd;clip-rule:evenodd;fill:#EAA518;stroke:#424242;stroke-width:0.75;stroke-miterlimit:10;}
	.st7{fill-rule:evenodd;clip-rule:evenodd;fill:#FFFFFF;stroke:#424242;stroke-width:0.75;stroke-miterlimit:10;}
	.st8{fill:#FFFFFF;stroke:#424242;stroke-width:0.75;stroke-miterlimit:10;}
	.st9{fill-rule:evenodd;clip-rule:evenodd;fill:#424242;}
	.st10{fill-rule:evenodd;clip-rule:evenodd;fill:#1D528D;}
	.st11{fill:#EAA518;stroke:#424242;stroke-width:0.75;stroke-miterlimit:10;}
	.st12{fill:#424242;}
	.st13{fill:none;stroke:#424242;stroke-width:0.75;stroke-miterlimit:10;}
	.st14{fill:none;stroke:#FFFFFF;stroke-width:0.75;stroke-miterlimit:10;}
	
		.st15{clip-path:url(#SVGID_00000114037854542391660650000016660476344380311480_);fill-rule:evenodd;clip-rule:evenodd;fill:#1D528D;}
	.st16{clip-path:url(#SVGID_00000114037854542391660650000016660476344380311480_);fill:#FFFFFF;}
	
		.st17{clip-path:url(#SVGID_00000114037854542391660650000016660476344380311480_);fill-rule:evenodd;clip-rule:evenodd;fill:#FECA0D;}
	
		.st18{clip-path:url(#SVGID_00000114037854542391660650000016660476344380311480_);fill-rule:evenodd;clip-rule:evenodd;fill:#FFFFFF;}
	.st19{clip-path:url(#SVGID_00000114037854542391660650000016660476344380311480_);enable-background:new    ;}
	.st20{fill:#1D528D;}
	.st21{font-family:'Impact';}
	.st22{font-size:22.08px;}
	.st23{font-size:20px;}
</style>
<g>
	<defs>
		<rect id="SVGID_1_" x="0" y="0" width="195.6" height="280.6"/>
	</defs>
	<clipPath id="SVGID_00000154418530806472836970000015853670799702084737_">
		<use xlink:href="#SVGID_1_"  style="overflow:visible;"/>
	</clipPath>
	
		<rect x="-9.2" y="-8.4" style="clip-path:url(#SVGID_00000154418530806472836970000015853670799702084737_);fill:#3A81C3;" width="214" height="297.9"/>
	<g id="layer5" style="clip-path:url(#SVGID_00000154418530806472836970000015853670799702084737_);">
		<path id="path1481" class="st2" d="M98,138.1c7.7,7.7,24,12.1,35.7,18.5c16.9,9.1,16,19.6,16,33.2V268H97.9
			C90.4,204,91.2,144.9,98,138.1z"/>
		<path id="path1483" class="st2" d="M97.8,138.1c-7.7,7.7-24,12.1-35.7,18.5c-16.9,9.1-16,19.6-16,33.2V268h51.8"/>
	</g>
	<g id="layer4" style="clip-path:url(#SVGID_00000154418530806472836970000015853670799702084737_);">
		<path id="path2505" class="st3" d="M149.1,177.3H46.6c-1.1-22.3,40-27.3,51.2-39C108.6,148.9,149.8,155,149.1,177.3z"/>
		<g id="g2749">
			<path id="path2509" class="st3" d="M98.3,220.7l25.7-46.4H95.2C96.2,189.9,93.6,219,98.3,220.7z"/>
			<path id="path2512" class="st3" d="M97.8,221.7l-26.3-47.4h28.8C99.3,189.8,103,198.6,97.8,221.7z"/>
		</g>
		<rect id="rect2514" x="130" y="174.1" class="st4" width="7.1" height="5.9"/>
		<rect id="rect2520" x="58.7" y="174.4" class="st4" width="7.2" height="5.5"/>
		<rect id="rect2753" x="62.2" y="173.1" class="st4" width="14.4" height="9.8"/>
		<rect id="rect2755" x="119.3" y="175.9" class="st4" width="14.1" height="7.2"/>
	</g>
	<g id="layer3" style="clip-path:url(#SVGID_00000154418530806472836970000015853670799702084737_);">
		<g id="g3751">
			<path id="rect3705" class="st5" d="M97.1,237.2v-15.8c0.5,0.1,1.6-0.4,1.5,0.4v15.4H97.1z"/>
			<path id="rect2830" class="st5" d="M103.4,232.4H92.2c0.1-0.5-0.3-1.5,0.3-1.5h10.9V232.4z"/>
			<g id="g2802">
				<path id="path2776" class="st6" d="M97.2,237.2c-0.8-0.1-1.8,0.3-2.4-0.3c-0.3-0.4-0.2-0.9,0.2-1.2c0.2-0.2,0.6-0.2,0.8-0.1h1.4
					"/>
				<path id="path2778" class="st6" d="M98.5,235.6c0.8,0.1,1.8-0.3,2.4,0.3c0.6,0.9-0.4,1.5-1.2,1.3H97"/>
				<path id="path2780" class="st6" d="M97.1,235.9v-3.6 M98.6,221.4c0,3.3,0,6.5,0,9.8 M97.1,231.1v-9.7 M98.6,232.2v3.6"/>
			</g>
			<path id="path2812" class="st6" d="M92.2,231c0.1-0.8-0.3-1.8,0.3-2.4c0.4-0.3,0.9-0.2,1.2,0.2c0.2,0.3,0.2,0.6,0.1,0.9v1.4"/>
			<path id="path2814" class="st6" d="M93.8,232.2c-0.1,0.8,0.3,1.9-0.3,2.6c-0.4,0.3-0.9,0.2-1.2-0.2c-0.2-0.2-0.2-0.6-0.1-0.8
				c0-1.1,0-2.2,0-3.3"/>
			<path id="path2816" class="st6" d="M93.7,230.9h3.5 M97.2,232.4l-3.5-0.1"/>
			<path id="path2822" class="st6" d="M103.4,231c-0.1-0.8,0.3-1.8-0.3-2.4c-0.4-0.3-0.9-0.2-1.2,0.2c-0.2,0.3-0.2,0.6-0.1,0.9v1.4"
				/>
			<path id="path2824" class="st6" d="M101.9,232.3c0.1,0.8-0.3,1.8,0.3,2.4c0.9,0.6,1.5-0.4,1.3-1.3v-2.9"/>
			<path id="path2826" class="st6" d="M102,230.9h-3.6 M98.4,232.4l3.5-0.1"/>
		</g>
		<g id="g2646">
			<path id="rect2611" class="st7" d="M133.6,179.8v46.6h-14.2v-43.8"/>
			<path id="rect2617" class="st8" d="M119.2,207.4h14.4c0.6,0,1,0.5,1,1v0.8c0,0.6-0.5,1-1,1h-14.4c-0.6,0-1-0.5-1-1v-0.8
				C118.2,207.9,118.6,207.4,119.2,207.4z"/>
			<path id="rect2619" class="st8" d="M119.2,201.7h14.4c0.6,0,1,0.5,1,1v0.8c0,0.6-0.5,1-1,1h-14.4c-0.6,0-1-0.5-1-1v-0.8
				C118.2,202.2,118.6,201.7,119.2,201.7z"/>
			<path id="rect2621" class="st8" d="M119.2,195.9h14.4c0.6,0,1,0.5,1,1v0.8c0,0.6-0.5,1-1,1h-14.4c-0.6,0-1-0.5-1-1V197
				C118.2,196.4,118.6,195.9,119.2,195.9z"/>
			<g id="g2625">
				<path id="rect2593" class="st9" d="M131.5,221.2c0,3.3-4.4,3.3-4.5,0v-7.9h4.3L131.5,221.2z"/>
				<path id="path2623" class="st9" d="M125.8,221.2c0,3.3-4.4,3.3-4.5,0v-7.9h4.3L125.8,221.2z"/>
			</g>
			<g id="g2629">
				<path id="path2631" class="st9" d="M131.5,192.1c0.1,1.2-0.8,2.3-2,2.4c-1.2,0.1-2.3-0.8-2.4-2c0-0.1,0-0.3,0-0.4v-7.9h4.3
					L131.5,192.1z"/>
				<path id="path2633" class="st9" d="M125.8,192.1c0.1,1.2-0.8,2.3-2,2.4c-1.2,0.1-2.3-0.8-2.4-2c0-0.1,0-0.3,0-0.4v-7.9h4.3
					L125.8,192.1z"/>
			</g>
			<path id="path2635" class="st7" d="M133.6,225.4l2,4.1h-18.4l2.1-4.1H133.6z"/>
			<path id="path2637" class="st10" d="M135.8,229.4l-9.4,21.6l-9.4-21.6L135.8,229.4z"/>
			<path id="rect2639" class="st11" d="M125.9,250.1h1c0.6,0,1,0.5,1,1v0.1c0,0.6-0.5,1-1,1h-1c-0.6,0-1-0.5-1-1v-0.1
				C124.9,250.6,125.3,250.1,125.9,250.1z"/>
		</g>
		<g id="g2661">
			<path id="rect2663" class="st7" d="M76.3,182.9v43.4H62.1V180"/>
			<path id="rect2665" class="st8" d="M62,207.4h14.4c0.6,0,1,0.5,1,1v0.8c0,0.6-0.5,1-1,1H62c-0.6,0-1-0.5-1-1v-0.8
				C61,207.9,61.4,207.4,62,207.4z"/>
			<path id="rect2667" class="st8" d="M62,201.7h14.4c0.6,0,1,0.5,1,1v0.8c0,0.6-0.5,1-1,1H62c-0.6,0-1-0.5-1-1v-0.8
				C61,202.2,61.4,201.7,62,201.7z"/>
			<path id="rect2669" class="st8" d="M62,195.9h14.4c0.6,0,1,0.5,1,1v0.8c0,0.6-0.5,1-1,1H62c-0.6,0-1-0.5-1-1V197
				C61,196.4,61.4,195.9,62,195.9z"/>
			<g id="g2671">
				<path id="path2673" class="st9" d="M74.3,221.2c0,3.3-4.4,3.3-4.5,0v-7.9h4.3L74.3,221.2z"/>
				<path id="path2675" class="st9" d="M68.6,221.2c0,3.3-4.4,3.3-4.5,0v-7.9h4.3L68.6,221.2z"/>
			</g>
			<g id="g2677">
				<path id="path2679" class="st9" d="M74.3,192.1c0.1,1.2-0.8,2.3-2,2.4c-1.2,0.1-2.3-0.8-2.4-2c0-0.1,0-0.3,0-0.4v-7.9h4.3
					L74.3,192.1z"/>
				<path id="path2681" class="st9" d="M68.6,192.1c0.1,1.2-0.8,2.3-2,2.4c-1.2,0.1-2.3-0.8-2.4-2c0-0.1,0-0.3,0-0.4v-7.9h4.3
					L68.6,192.1z"/>
			</g>
			<path id="path2683" class="st7" d="M76.4,225.4l2.1,4.1H60l2-4.1H76.4z"/>
			<path id="path2685" class="st10" d="M78.6,229.4L69.2,251l-9.4-21.6L78.6,229.4z"/>
			<path id="rect2687" class="st11" d="M68.7,250.1h1c0.6,0,1,0.5,1,1v0.1c0,0.6-0.5,1-1,1h-1c-0.6,0-1-0.5-1-1v-0.1
				C67.7,250.6,68.1,250.1,68.7,250.1z"/>
		</g>
		<g id="g2491">
			<path id="path2428" class="st8" d="M98,200.5c1.6-0.1,3.2-0.9,3.2-2.5c1.4,0.8,3-0.2,3.8-1.6s0.9-3.2-0.4-4
				c1.4-0.9,1.3-2.8,0.4-4.2s-2.2-2.3-3.7-1.6c-0.1-1.6-1.8-2.6-3.4-2.6s-3.2,0.8-3.2,2.5c-1.4-0.8-3.1,0.2-3.9,1.6
				s-0.7,3.2,0.7,4.1c-1.4,0.9-1.5,2.7-0.7,4.1s2.3,2.3,3.7,1.6c0,1.6,1.8,2.6,3.4,2.6L98,200.5z"/>
			<path id="path2360" class="st12" d="M99.4,191.4c-0.7-1.3-0.3-2.9,1-3.6s2.9-0.3,3.6,1c0.7,1.3,0.3,2.9-1,3.6
				C101.8,193.1,100.2,192.7,99.4,191.4C99.5,191.4,99.5,191.4,99.4,191.4z"/>
			<path id="path2362" class="st12" d="M91.7,195.9c-0.7-1.3-0.3-2.9,1-3.6c1.3-0.7,2.9-0.3,3.6,1c0.7,1.3,0.3,2.9-1,3.6
				C94,197.6,92.4,197.1,91.7,195.9C91.7,195.9,91.7,195.9,91.7,195.9z"/>
			<path id="path2394" class="st12" d="M97.8,190.4c-1.5,0-2.6-1.2-2.6-2.6s1.2-2.6,2.6-2.6c1.4,0,2.6,1.2,2.6,2.6
				C100.5,189.3,99.3,190.4,97.8,190.4C97.9,190.5,97.9,190.5,97.8,190.4z"/>
			<path id="path2396" class="st12" d="M97.8,199.4c-1.5,0-2.6-1.2-2.6-2.6s1.2-2.6,2.6-2.6c1.4,0,2.6,1.2,2.6,2.6
				C100.5,198.2,99.3,199.4,97.8,199.4C97.9,199.4,97.9,199.4,97.8,199.4z"/>
			<path id="path2400" class="st12" d="M96.3,191.4c0.7-1.3,0.3-2.9-1-3.6s-2.9-0.3-3.6,1c-0.7,1.3-0.3,2.9,1,3.6
				C93.9,193.1,95.5,192.7,96.3,191.4C96.2,191.4,96.3,191.4,96.3,191.4z"/>
			<path id="path2402" class="st12" d="M103.9,195.9c0.7-1.3,0.3-2.9-1-3.6c-1.3-0.7-2.9-0.3-3.6,1c-0.7,1.3-0.3,2.9,1,3.6
				C101.6,197.6,103.2,197.1,103.9,195.9C103.9,195.9,103.9,195.9,103.9,195.9z"/>
			<path id="path2406" class="st12" d="M97.8,194.9c-1.5,0-2.6-1.2-2.6-2.6c0-1.5,1.2-2.6,2.6-2.6s2.6,1.2,2.6,2.6c0,0,0,0,0,0
				C100.5,193.8,99.3,194.9,97.8,194.9C97.9,194.9,97.9,194.9,97.8,194.9z"/>
		</g>
		<path id="path2487" class="st13" d="M104.1,201.3c-1.8,1.3-4,1.9-6.2,1.9c-2.4,0.1-4.7-0.6-6.6-2.1 M87,193.2c0-0.3,0-0.6,0-0.9
			c-0.2-6,4.6-11.1,10.6-11.3c6-0.2,11.1,4.6,11.3,10.6c0,0.2,0,0.4,0,0.7c0,0.3,0,0.6-0.1,0.9"/>
		<path id="path2489" class="st13" d="M87.9,192.3c0-5.5,4.5-10,10-10s10,4.5,10,10l0,0c0,5.5-4.5,10-10,10S87.9,197.8,87.9,192.3z"
			/>
		<path id="path2530" class="st13" d="M147.9,172.9H47.3"/>
		<path id="path2532" class="st13" d="M147.5,170.8H48.1"/>
		<path id="path2534" class="st13" d="M142.7,163.3H52.9"/>
		<path id="path2536" class="st13" d="M131.7,155.8h-68"/>
		<path id="path2538" class="st13" d="M149.3,177.1h-12.2v2.8h-7.1v-2.8h-7.1v2.8h-7.1v-2.8h-7.1v2.8h-7.1v-2.8h-7.1v2.8h-7.1v-2.8
			H80v2.8h-7.2v-2.8h-7.1v2.8h-7.1v-2.8H46.5"/>
		<path id="path2540" class="st13" d="M133.5,170.8l-0.2-7.3"/>
		<path id="path2543" class="st13" d="M61.2,170.8l-0.2-7.3"/>
		<path id="path2545" class="st13" d="M69.7,170.8l-0.2-7.3"/>
		<path id="path2547" class="st13" d="M78.3,170.8l-0.2-7.3"/>
		<path id="path2549" class="st13" d="M124.6,170.8l-0.2-7.3"/>
		<path id="path2551" class="st13" d="M115.6,170.8l-0.2-7.3"/>
		<path id="path2553" class="st13" d="M106.7,170.8l-0.2-7.3"/>
		<path id="path2555" class="st13" d="M86.9,170.8l-0.2-7.3"/>
		<path id="path2557" class="st13" d="M129.1,163.2l-0.2-7.3"/>
		<path id="path2559" class="st13" d="M120.1,163.2l-0.2-7.3"/>
		<path id="path2561" class="st13" d="M74,163.3l-0.2-7.3"/>
		<path id="path2563" class="st13" d="M65.4,163.4l-0.2-7.3"/>
		<path id="path2565" class="st13" d="M124.3,156l-0.2-3.8"/>
		<path id="path2567" class="st13" d="M115.4,155.9l-0.2-7.3"/>
		<path id="path2569" class="st13" d="M69.6,156l-0.2-3"/>
		<path id="path2571" class="st13" d="M78.2,155.9l-0.2-6.5"/>
		<path id="path2575" class="st13" d="M74.7,179.7l23.1,41.7l23-41.5"/>
		<path id="path2577" class="st13" d="M77.1,179.7l20.8,37.6l20.8-37.6"/>
		<path id="path2579" class="st13" d="M79.5,179.7l7.5,13.7 M108.7,193.1l7.3-13.2 M91.5,201.3l6.3,11.4l6.3-11.4"/>
		<path id="path2584" class="st7" d="M111.5,146.7v10.1c0,7.5-6.1,13.7-13.7,13.7c-7.5,0-13.7-6.1-13.7-13.7v-10.1"/>
		<path id="path2587" class="st13" d="M108.9,145.4v11.5c0,6.1-5,11.1-11.1,11.1c-6.1,0-11.1-5-11.1-11.1v-11.6"/>
		<path id="path2597" class="st9" d="M105.1,157.8c0.1,5.4-7.3,5.4-7.4,0L97.6,138c2.2,2.2,4.7,4,7.5,5.3V157.8z"/>
		<path id="path2599" class="st9" d="M97.9,157.8c0,5.4-7.3,5.4-7.4,0v-14.5c2.5-1.6,5-3.4,7.4-5.3V157.8z"/>
		<path id="path2601" class="st9" d="M101.5,161.2c0,5.4-7.3,5.5-7.4,0v-12.9h7.4V161.2z"/>
		<path id="rect2757" class="st11" d="M96.2,219.2h3.1c0.6,0,1,0.5,1,1v0.3c0,0.6-0.5,1-1,1h-3.1c-0.6,0-1-0.5-1-1v-0.3
			C95.2,219.7,95.7,219.2,96.2,219.2z"/>
	</g>
	<g id="layer2" style="clip-path:url(#SVGID_00000154418530806472836970000015853670799702084737_);">
		<path id="path3989" class="st14" d="M98,138.1c7.7,7.7,24,12.1,35.7,18.5c16.9,9.1,16,19.6,16,33.2V268H97.9"/>
		<path id="path1478" class="st14" d="M97.8,138.1c-7.7,7.7-24,12.1-35.7,18.5c-16.9,9.1-16,19.6-16,33.2V268h51.8"/>
	</g>
	
		<path id="_50117184-1" style="clip-path:url(#SVGID_00000154418530806472836970000015853670799702084737_);fill-rule:evenodd;clip-rule:evenodd;fill:#1D528D;" d="
		M46.6,107.4c28.2,26.2,71.8,26.2,99.9,0V11.1H46.6V107.4z"/>
	<path id="path3826" style="clip-path:url(#SVGID_00000154418530806472836970000015853670799702084737_);fill:#FFFFFF;" d="
		M46.6,82.7h0.2c1.2-0.1,2.9-1,4.8-2.2c3.1-1.8,6.7-3.9,11.1-3.9c3.8,0,6.4,1.7,9,3.3c2.2,1.4,4.5,2.9,7.6,2.8s4.9-1.3,6.8-2.7
		c2.4-1.6,4.8-3.3,9.2-3.4s7.1,1.6,9.7,3.3c2.2,1.4,4.4,2.8,7.4,2.7s4.9-1.3,6.9-2.6c2.4-1.6,4.9-3.3,9.3-3.3
		c4.6-0.1,7.6,1.8,10.3,3.5c2,1.3,4,2.5,6.3,2.5c0.4,0,0.8,0,1.2,0v6.1H146c-2.4,0-4.3-1.2-6.3-2.5c-2.8-1.7-5.7-3.5-10.3-3.5
		c-4.4,0.1-6.9,1.7-9.3,3.3c-2,1.3-3.9,2.6-6.9,2.6s-5.2-1.3-7.4-2.7c-2.7-1.7-5.4-3.4-9.7-3.3s-6.8,1.7-9.2,3.3
		c-1.9,1.3-3.8,2.6-6.8,2.7s-5.4-1.4-7.6-2.8c-2.6-1.6-5.1-3.2-9-3.3c-4.4,0-8,2.1-11.1,3.9c-1.9,1.1-3.6,2.1-4.8,2.2h-0.8V82.7
		L46.6,82.7z"/>
	<path id="path3824" style="clip-path:url(#SVGID_00000154418530806472836970000015853670799702084737_);fill:#FFFFFF;" d="
		M46.6,107.4l0.3,0.3H47c2-0.1,4-1.3,6.3-2.6c2.8-1.6,6-3.5,9.5-3.5c2.9,0,5.1,1.4,7.2,2.8c2.7,1.7,5.3,3.4,9.4,3.3s6.2-1.6,8.6-3.2
		c2-1.4,4-2.8,7.4-2.8s5.7,1.4,7.9,2.8c2.6,1.7,5.2,3.3,9.2,3.2s6.3-1.6,8.7-3.2c2-1.4,4.1-2.7,7.6-2.8c3.7-0.1,6.2,1.5,8.6,3
		s4.7,3,8,3h1l0.3-0.2v-5.2H146c-2.4,0-4.3-1.2-6.3-2.5c-2.8-1.7-5.7-3.5-10.3-3.5c-4.4,0.1-6.9,1.7-9.3,3.3c-2,1.3-3.9,2.6-6.9,2.6
		s-5.2-1.3-7.4-2.7c-2.7-1.7-5.4-3.4-9.7-3.3s-6.8,1.8-9.2,3.4c-1.9,1.3-3.8,2.6-6.8,2.7s-5.4-1.4-7.6-2.8c-2.6-1.6-5.1-3.2-9-3.3
		c-4.4,0-8,2.1-11.1,3.9c-1.9,1.1-3.6,2.1-4.8,2.2h-0.1c-0.2,0-0.5,0-0.7,0L46.6,107.4L46.6,107.4z"/>
	<path id="_160033752" style="clip-path:url(#SVGID_00000154418530806472836970000015853670799702084737_);fill:#FFFFFF;" d="
		M146.6,98.6v-6.3h-0.6c-3.3,0-5.6-1.4-8-3s-4.9-3-8.6-3c-3.5,0.1-5.6,1.4-7.6,2.8c-2.3,1.6-4.6,3.1-8.6,3.2s-6.6-1.6-9.2-3.2
		c-2.3-1.4-4.6-2.9-7.9-2.8s-5.4,1.5-7.4,2.8c-2.4,1.7-4.6,3.2-8.6,3.3s-6.8-1.6-9.4-3.3c-2.2-1.4-4.3-2.8-7.2-2.8
		c-3.5,0-6.7,1.8-9.5,3.4c-2.3,1.3-4.3,2.5-6.3,2.6h-0.1c-0.3,0-0.6,0-0.8,0v6.3h0.8c1.2-0.1,2.9-1,4.8-2.2
		c3.1-1.8,6.7-3.9,11.1-3.9c3.8,0,6.4,1.6,8.9,3.3c2.3,1.4,4.5,2.8,7.6,2.8s4.9-1.3,6.8-2.7c2.4-1.7,4.8-3.3,9.2-3.4s7,1.6,9.7,3.3
		c2.2,1.4,4.4,2.8,7.4,2.7s4.9-1.3,6.9-2.6c2.4-1.6,4.9-3.3,9.3-3.3c4.6-0.1,7.6,1.8,10.3,3.5c2,1.3,4,2.5,6.3,2.5L146.6,98.6z"/>
	
		<path id="_160033320" style="clip-path:url(#SVGID_00000154418530806472836970000015853670799702084737_);fill-rule:evenodd;clip-rule:evenodd;fill:#FECA0D;" d="
		M135.6,65.5h-78c7.2,5.2,15.1,9,24.3,8.3c8-0.6,12.6-3.7,14.7-7.8c2.1,4.1,6.7,7.2,14.7,7.8C120.4,74.5,128.4,70.8,135.6,65.5
		L135.6,65.5z"/>
	
		<path id="_160034136" style="clip-path:url(#SVGID_00000154418530806472836970000015853670799702084737_);fill-rule:evenodd;clip-rule:evenodd;fill:#FECA0D;" d="
		M96.6,50.5c0.5-1.7,1.1-3.3,1.9-4.9c-0.5-1.9-1.1-3.8-1.9-5.6c-0.7,1.8-1.4,3.7-1.9,5.5C95.5,47.2,96.1,48.8,96.6,50.5z"/>
	
		<path id="_159703344" style="clip-path:url(#SVGID_00000154418530806472836970000015853670799702084737_);fill-rule:evenodd;clip-rule:evenodd;fill:#FFFFFF;" d="
		M96.1,39c-0.8-2.1-1.7-4.2-2.8-6.2c-1,2-1.8,4-2.6,6.1c1.3,1.8,2.4,3.6,3.5,5.5C94.8,42.6,95.4,40.8,96.1,39z"/>
	
		<path id="_159703128" style="clip-path:url(#SVGID_00000154418530806472836970000015853670799702084737_);fill-rule:evenodd;clip-rule:evenodd;fill:#FFFFFF;" d="
		M83.1,56.5c-3.2-8.1-3.6-18.7-2.5-27.8c3.2,3.1,6.1,6.5,8.8,10.1c-1.7,4.3-2.4,9-2.2,13.6c0.4,4.6,3.3,8.1,7.5,7
		c-0.7,0.6-0.1,0.7-2.3,1.5S84.5,60.2,83.1,56.5z"/>
	
		<path id="_159702384" style="clip-path:url(#SVGID_00000154418530806472836970000015853670799702084737_);fill-rule:evenodd;clip-rule:evenodd;fill:#FFFFFF;" d="
		M93.1,30.2c-1.2-1.9-2.4-3.8-3.6-5.5c-0.9,3.1-1.6,6.3-2.1,9.5c0.8,1,1.6,2.1,2.4,3.1C90.8,34.9,91.9,32.5,93.1,30.2z M101.1,52.5
		c0.1-0.6,0.1-1.2,0-1.8C101.1,51.3,101.1,51.9,101.1,52.5L101.1,52.5z"/>
	
		<path id="_160035048" style="clip-path:url(#SVGID_00000154418530806472836970000015853670799702084737_);fill-rule:evenodd;clip-rule:evenodd;fill:#FFFFFF;" d="
		M78.6,42.4c-2.7-2.2-5.5-4.2-8.4-6c1.9,12.5,4.9,19.2,10.2,23.6c2.5,2,6.8,3,9.6,1.7c-3.3,0-6.4-1.8-8-4.7
		C79.8,53,78.9,47.8,78.6,42.4L78.6,42.4z"/>
	
		<path id="_159703440" style="clip-path:url(#SVGID_00000154418530806472836970000015853670799702084737_);fill-rule:evenodd;clip-rule:evenodd;fill:#FFFFFF;" d="
		M90.2,40.2c2.2,3.1,4,6.5,5.5,10.1c0.2,0.6,0.6,1.5,0.8,2.1c-0.3,1.3-0.3,2.6-0.1,3.9c-0.4,2.3-3,3.1-5.1,1.9c-2-1.4-3.1-3.7-3-6.1
		C88.4,48,89,44,90.2,40.2L90.2,40.2z"/>
	
		<path id="_159703656" style="clip-path:url(#SVGID_00000154418530806472836970000015853670799702084737_);fill-rule:evenodd;clip-rule:evenodd;fill:#FFFFFF;" d="
		M97.1,39c0.8-2.1,1.7-4.2,2.8-6.2c1,2,1.8,4,2.6,6.1c-1.3,1.8-2.4,3.6-3.5,5.5C98.4,42.6,97.8,40.8,97.1,39z"/>
	
		<path id="_160109872" style="clip-path:url(#SVGID_00000154418530806472836970000015853670799702084737_);fill-rule:evenodd;clip-rule:evenodd;fill:#FFFFFF;" d="
		M110.1,56.5c3.2-8.1,3.6-18.7,2.5-27.8c-3.2,3.1-6.1,6.5-8.8,10.1c1.7,4.3,2.4,9,2.2,13.6c-0.4,4.6-3.3,8.1-7.5,7
		c0.7,0.6,0.1,0.7,2.4,1.5S108.7,60.2,110.1,56.5L110.1,56.5z"/>
	
		<path id="_159703848" style="clip-path:url(#SVGID_00000154418530806472836970000015853670799702084737_);fill-rule:evenodd;clip-rule:evenodd;fill:#FFFFFF;" d="
		M96.6,37.5c0.9-2.4,1.9-4.7,3.2-7c-0.9-2.7-2-5.4-3.2-8c-1.2,2.6-2.3,5.3-3.2,8C94.6,32.8,95.7,35.1,96.6,37.5z"/>
	
		<path id="_160110304" style="clip-path:url(#SVGID_00000154418530806472836970000015853670799702084737_);fill-rule:evenodd;clip-rule:evenodd;fill:#FFFFFF;" d="
		M100.1,30.2c1.2-1.9,2.4-3.8,3.6-5.5c0.9,3.1,1.5,6.3,2,9.5c-0.8,1-1.6,2.1-2.4,3.1C102.4,34.9,101.3,32.5,100.1,30.2z"/>
	
		<path id="_160136120" style="clip-path:url(#SVGID_00000154418530806472836970000015853670799702084737_);fill-rule:evenodd;clip-rule:evenodd;fill:#FFFFFF;" d="
		M114.6,42.4c2.7-2.2,5.5-4.2,8.4-6c-1.8,12.5-4.9,19.2-10.2,23.6c-2.5,2.1-6.8,3-9.6,1.8c3.3,0,6.4-1.8,8-4.7
		C113.4,53,114.3,47.7,114.6,42.4L114.6,42.4z"/>
	
		<path id="_159703368" style="clip-path:url(#SVGID_00000154418530806472836970000015853670799702084737_);fill-rule:evenodd;clip-rule:evenodd;fill:#FFFFFF;" d="
		M96.6,58.1c0.4,2.5,2.1,4.6,4.5,5.5h0.1H92h0.1C94.5,62.8,96.2,60.6,96.6,58.1L96.6,58.1z"/>
	
		<path id="_160110016" style="clip-path:url(#SVGID_00000154418530806472836970000015853670799702084737_);fill-rule:evenodd;clip-rule:evenodd;fill:#FFFFFF;" d="
		M103,40.2c-2.2,3.1-4,6.5-5.5,10.1c-0.2,0.6-0.6,1.5-0.8,2.1c0.3,1.3,0.3,2.6,0.1,3.9c0.4,2.3,3,3.1,5.1,1.9c2-1.4,3.1-3.7,3-6.1
		C104.8,48,104.2,44,103,40.2z"/>
	<path style="clip-path:url(#SVGID_00000154418530806472836970000015853670799702084737_);fill:#FFFFFF;" d="M80,99.6
		c-12.6,0-22.9,10.2-22.9,30.5c0,25.4,18.2,50.9,40.7,50.9s40.7-25.4,40.7-50.9c0-20.3-10.2-30.5-22.9-30.5
		c-6.9,0-13.5,3.1-17.8,8.5C93.5,102.8,86.9,99.6,80,99.6z"/>
	<path style="clip-path:url(#SVGID_00000154418530806472836970000015853670799702084737_);fill:#FFFFFF;" d="M30.4,112.8h134.7
		c3,0,5.5,2.4,5.5,5.5v44c0,3-2.4,5.5-5.5,5.5H30.4c-3,0-5.5-2.4-5.5-5.5v-44C25,115.3,27.4,112.8,30.4,112.8z"/>
	<g style="clip-path:url(#SVGID_00000154418530806472836970000015853670799702084737_);enable-background:new    ;">
		<text transform="matrix(1 0 0 1 72.67 161.59)" class="st20 st21 st22">Płock</text>
	</g>
	<g style="clip-path:url(#SVGID_00000154418530806472836970000015853670799702084737_);enable-background:new    ;">
		<text transform="matrix(1 0 0 1 44.99 136.5699)" class="st20 st21 st22">Navapołack</text>
	</g>
	<path style="clip-path:url(#SVGID_00000154418530806472836970000015853670799702084737_);fill:#FFFFFF;" d="M150.6,0h29h16v16
		c0,7,0,14,0,21c-10.2,12.4-28.6,14.2-41,4S140.4,12.4,150.6,0z"/>
	<g style="clip-path:url(#SVGID_00000154418530806472836970000015853670799702084737_);enable-background:new    ;">
		<text transform="matrix(1 0 0 1 159.63 31.75)" class="st20 st21 st23">36</text>
	</g>
</g>
</svg>
