<svg id="Слой_1" data-name="Слой 1" xmlns="http://www.w3.org/2000/svg" viewBox="0 0 195.59 280.63"><defs><style>.cls-1{fill:#e94539;}.cls-13,.cls-2{fill:#fff;}.cls-3{fill:#0f66b0;}.cls-4{fill:#f08224;}.cls-5{fill:#1166b0;}.cls-15,.cls-17,.cls-19,.cls-5,.cls-6{fill-rule:evenodd;}.cls-11,.cls-6{fill:#424242;}.cls-10,.cls-14,.cls-16,.cls-18,.cls-20,.cls-21,.cls-22,.cls-7,.cls-8,.cls-9{fill:none;}.cls-10,.cls-14,.cls-16,.cls-18,.cls-19,.cls-20,.cls-21,.cls-22,.cls-7,.cls-8,.cls-9{stroke:#424242;}.cls-8{stroke-width:1px;}.cls-9{stroke-width:1.03px;}.cls-10{stroke-width:0.88px;}.cls-12,.cls-23,.cls-24{fill:#e00814;}.cls-13{stroke:#333;stroke-width:1.06px;}.cls-13,.cls-20,.cls-22{stroke-linecap:round;stroke-linejoin:round;}.cls-14,.cls-16,.cls-19,.cls-21{stroke-miterlimit:5.63;}.cls-14{stroke-width:1.87px;}.cls-15{fill:#ffe407;}.cls-17{fill:#fee308;}.cls-18{stroke-width:1.4px;}.cls-19{fill:#ffe209;}.cls-19,.cls-21{stroke-width:0.75px;}.cls-20{stroke-width:1.26px;}.cls-22{stroke-width:0.72px;}.cls-23{font-size:24.77px;}.cls-23,.cls-24{font-family:Impact;}.cls-24{font-size:20px;}</style></defs><rect class="cls-1" x="-9.21" y="-8.4" width="214.01" height="297.89"/><path class="cls-2" d="M148.63,73.77c-3.36-3.8-4.79-7.18-4.78-11.36s1.18-7,4.48-10.56l2.42-2.59V35.4c0-10.45-.16-14-.66-14.38-.92-.72-8.57-3.62-15.31-5.8C122.35,11.2,111.6,10,93,10.4c-17.41.41-25.34,1.94-41.13,7.93l-7,2.68V49.25L47,51.6c6.31,6.85,6.27,14.45-.12,22.08L44.67,76.3,45,86.52c.31,11.49,1.21,16.13,4.19,21.74,3.29,6.17,8.62,9.78,23.09,15.63,9,3.64,16.23,7.4,21.49,11.2l3.93,2.83,4.86-3.36c5.75-4,11.9-7.11,21.36-10.93,20.33-8.2,25.2-13.51,26.46-32.52,0-.31,0-.63.06-.94.08-1.28.14-2.63.19-4l.34-9.8Z"/><g id="g2500"><path id="path2567" class="cls-2" d="M87.89,78.94a42.08,42.08,0,0,1-1.4-5.86,42.68,42.68,0,0,1-.29-10.14,37.92,37.92,0,0,1,1.33-6.75,25,25,0,0,1,4-7.09l.33-.39L93,49l1.76.39.68.15-.13,1.56a90.15,90.15,0,0,1-3.18,16.62A73.86,73.86,0,0,1,89.3,76.1c-1.15,2.6-1.35,3-1.41,2.84Z"/><path id="path3333" class="cls-3" d="M47.49,74.13c6.38-7.58,6.52-15.64.4-22.8l-2.44-2.86L45.59,35l.14-13.43,5.59-2.1c18.17-6.83,30.14-8.78,50.31-8.21,16.92.48,24.45,1.84,39.19,7.07l8.31,2.94.34,4.36c.18,2.4.34,8.52.34,13.6v9.24l-2.58,3.27c-3.45,4.37-3.79,5.11-4.16,9.06-.43,4.63.78,8.26,4.26,12.75l2.75,3.55-.41,8.65c1.92,5.28-.4,9-1.63,13.56a8.18,8.18,0,0,0-4.23.34c-2,.61-4.08.43-6.11.89s-5.77-1.36-6.46-1.73c-2.37,0-58.51.28-65.08.28a8.71,8.71,0,0,0-2.62.4c-2,.73-4.31,2.07-5.69,1.67-1.93-.54-3.82-1.33-5.81-2-1.47-.46-2.93.92-4.5.75C46.91,93.34,41.91,80.79,47.49,74.13Z"/><path id="path2559" class="cls-2" d="M75,79.68l-1-1.72-1-1.5c4.17-5.72,5.35-12.11,6.77-18.73,0,0,2.17.74,2.3.83s-.16.79-.38,1.73S81,63,80.71,64.18c-1.47,7-2.34,9.76-4.56,14.57a8.77,8.77,0,0,1-.77,1.48,2.48,2.48,0,0,1-.42-.55Z"/><path id="path2557" class="cls-2" d="M76.34,80.76l-.81-.48.45-1c2.42-5.35,3.46-8.77,5-16.54.37-1.84.71-3.48.75-3.65.09-.37.1,8,0,14.74v5.09l-.58.24a15.6,15.6,0,0,0-3.42,1.77l-.6.48Z"/><path id="path2551" class="cls-2" d="M88.19,79.78c0-.18.68-1.76,1.34-3.33,3.39-8.94,5-19.13,6.39-27.2.15,0,1.68.17,1.73.38.12.45-.06.19-.17,4.23a59.57,59.57,0,0,1-1.16,10.71c-.46,2.24-2.32,9.32-3.21,12.22-1,3.4-2.92,8.32-3.24,8.32C89.23,83.42,88.9,81.45,88.19,79.78Z"/><path id="path2563" class="cls-2" d="M90.8,83.12a134.47,134.47,0,0,0,6-19.9,62.6,62.6,0,0,0,1-10.26c0-1.62,0-3.15,0-3.18s.46-.19.71.23c.12.2,0,.61,0,1,.09,2.57-.12,8.32-.12,13.82L98.25,80A12,12,0,0,0,91,83.77C91,83.49,90.91,83.47,90.8,83.12Z"/><path id="path2549" class="cls-2" d="M108,80.89a18.62,18.62,0,0,0-5.69-1h-1.65l0-9.77c0-9.18,0-9.68.34-8.31,1.32,6,3,11.59,5.21,14.9.53.79,2.58,3.39,3.13,4.44.14.25-.41.08-1.36-.29Z"/><path id="path2498" class="cls-2" d="M150.75,49.26l-2.42,2.59c-3.3,3.53-4.47,6.29-4.48,10.56s1.42,7.56,4.78,11.36l2.29,2.57-.34,9.8c-.81,23.14-4.71,28.62-26.71,37.49-9.46,3.82-15.61,7-21.36,10.93l-4.86,3.36-3.93-2.83c-5.26-3.8-12.47-7.56-21.49-11.2-14.47-5.85-19.8-9.46-23.09-15.63-3-5.61-3.88-10.25-4.19-21.74L44.67,76.3l2.19-2.62c6.39-7.63,6.43-15.23.12-22.08l-2.17-2.35V21l7-2.68c15.79-6,23.72-7.52,41.13-7.93,18.61-.44,29.36.8,41.79,4.82,6.74,2.18,14.39,5.08,15.31,5.8.5.4.66,3.93.66,14.38m-48.81,98.7c5-3.6,11.41-6.89,20.86-10.74,11-4.49,15.52-7,19.06-10.47,5.63-5.58,7.51-11.82,8.13-26.84l.37-9.11-2.46-3c-3-3.72-3.78-5.16-4.53-8.7a15.87,15.87,0,0,1,1.21-9.63,28.09,28.09,0,0,1,3.21-4.21l2.43-2.7L150.16,40c0-4.79-.21-11-.4-13.71l-.34-5L143.3,18.9C129,13.36,119.65,11.51,103.6,11c-21.76-.7-34.45,1.32-52.77,8.42l-5.49,2.13v27.4l2.2,2.31c6.39,6.72,6.35,15.59-.11,22.6l-2.25,2.44.32,10c.45,14.29,2.27,20.5,7.72,26.32,3.35,3.58,7.75,6.06,18.74,10.54,10.4,4.23,16,7.14,21.56,11.1a35.28,35.28,0,0,0,4.1,2.7A30.3,30.3,0,0,0,101.94,134.1Z"/><path id="path2547" class="cls-2" d="M103.58,71.15a59.92,59.92,0,0,1-2.4-8.92c-.49-2.27-.42-3.27-.49-7.32-.09-4.46-.4-4.18,0-4.31s.37,0,1.32-.14c.32,1.43,1,6.59,1.48,8.42.84,3.11.88,3.39.66,4.52a19,19,0,0,0,.44,7.67c.35,1.37,2.23,6.48,1.55,4.94Z"/><path id="path2555" class="cls-2" d="M84.24,68.16c0-5.88,0-10.7,0-10.71s2.37.42,2.43.47a7.77,7.77,0,0,1-.22,1.34,35.19,35.19,0,0,0-.17,13.53,39.58,39.58,0,0,0,1.64,5.93c0,.09-.36.12-1.79.12H84.27Z"/><path id="path2496" class="cls-2" d="M92.94,10.85a114.36,114.36,0,0,0-42.36,8.67l-5.26,2V49c4.33,4,8,9.56,6.81,15.71-.63,4.68-3.79,8.36-7,11.64.34,7.6.16,15.27,1.49,22.78,0,.1.34,1.55.36,1.66a7.51,7.51,0,0,1,1.51-.58c1.94-.76,1.76-.68,4.68-.5,1.91.7,3.43,2,5.71,1.85h0a12.39,12.39,0,0,0,2.91-1.17,5.94,5.94,0,0,1,2.81-.75h0a6.84,6.84,0,0,1,3.31.52l.15-.5a8.43,8.43,0,0,0-3.51-.55,6.47,6.47,0,0,0-3,.8A12.41,12.41,0,0,1,58.9,101c-2.08.1-3.5-1.11-5.54-1.84h-.08a12,12,0,0,0-5.53.79c-1.69-7.47-1.59-16-1.79-23.61,3.47-3.69,6.84-7.92,6.84-13.12.64-5.66-2.86-10.74-6.72-14.46,0-8.75-.17-17.16,0-26.48,32.72-15.93,76.32-12.8,102.63-.34.65,8.68.82,18,.73,26.66-6.18,7-6.72,9.57-6.84,14.3s1.67,7.37,7.12,14.51c-.22,7.65-.23,15.76-1.66,22.05-.45-.05-1.8-.24-2.21-.24a65.68,65.68,0,0,0-6.65,1,10.18,10.18,0,0,1-6.59-.81l-.33-.15c-.21-.09-.52-.2-1-.37l-.17.5c.5.16.81.27,1,.35a1.12,1.12,0,0,1,.26.14,10.77,10.77,0,0,0,6.93.88,62.31,62.31,0,0,1,6.58-1,8.32,8.32,0,0,1,2.7.37,75.69,75.69,0,0,0,1.21-9.23c.27-4.63.4-9.26.6-13.9-3.41-4.11-7.34-8.44-7.25-14.14-.42-4.88,3.21-10.21,5.69-12.45a5.47,5.47,0,0,0,1.4-4.44c0-8.23-.11-16.45-.79-24.66-11.79-4.75-24-9-36.76-9.78-5.59-.46-11.2-.61-16.81-.63C94.87,10.85,93.91,10.84,92.94,10.85Z"/><path id="path2535" class="cls-2" d="M117.19,60.26c-3.31-1.26-5-2.17-6-3.26-.48-.49-1-1.22-.83-1.22l3.25.86c1.76.47,3.4.9,3.63,1l.42.11,0,1.35a5.7,5.7,0,0,1,0,1.34,2.79,2.79,0,0,1-.4-.13Z"/><path id="path2533" class="cls-2" d="M88,78.17c-.08-.25-.21-.7-.3-1a38.77,38.77,0,0,1-1.43-8.12c-.08-1-.08-4.2,0-5.2a44.94,44.94,0,0,1,.93-6.22,21,21,0,0,1,3.51-7.4c.81-1.16,1.13-1.56,1.25-1.54s3.36.7,3.37.72-.14,2.21-.25,3.28A91.23,91.23,0,0,1,93,64.5c-.83,3.32-2.54,9-3.11,10.29-1,2.26-1.65,3.78-1.67,3.81s-.1-.17-.17-.43Z"/><path id="path2561" class="cls-2" d="M72.44,75.38a22.5,22.5,0,0,1-1.78-5.95,14.84,14.84,0,0,1-.11-3.06,17.77,17.77,0,0,1,1-6l2.55-4.9a27.06,27.06,0,0,1,6,2.39c-1.89,9.26-4,13.44-6.92,18.29a8.44,8.44,0,0,1-.75-.78Z"/><path id="path3369" class="cls-4" d="M88.46,110.9c-5.75-2.08-13.17-.06-17.61-5.19-4.36-4.54-2.64-11.21-2.79-16.81-.24-2.6.71-4.57-1.07-6.28a29.23,29.23,0,0,1-5.67-6.45C58.78,73.69,57.41,64.8,63.41,70,68.73,75.09,73.92,80.68,81,83.34,89.2,86.61,98.3,86.92,107,86.27c.31-.1,1,0,1.19-.2,2.79-2.55,1.29-8.8,5.62-10.55,4.93-1.87,11.83,1.91,16.09-2.26,1.77-4.26,8.48-4.67,6.74.34-1.58,4.37-5.41,8.17-5.16,13.11-.76,5.94.05,12.21-.14,18.17a13.13,13.13,0,0,0-3.23.36c-2.63.89-5.44,3-9.46,5.09-.75.4-1.39-.52-2.43-.5-5.09.23-10.8,2.64-15.62-.23C96.48,108.47,92.6,111.44,88.46,110.9ZM75.15,80.18c-5.77-3.45-9.3-11.92-12.34-17.48l.34-2.37Zm42.44-5.1c0-1.87.27-9.25,0-17.49-1.09-.27-8.54-2-7.09-2.45,1.1-1.19,5.46.2,7.06.59,0-1-.08-1.48-.12-2.44-.23-.19-3.55-2.84-4-3.81-1.14-.41-1.8-.64-1.65-2.33a45.27,45.27,0,0,1,4.54-.06c-.17-4.54.17-9.68.16-11,1.27-.11.4,0,2.1-.23.1,1.69-.17,5.87,0,11,1.41.17,5.54-.46,5.29.94-.31.43-.14,1.2-1.24,1.56a29.84,29.84,0,0,1-3.21,3.86c0,1,0,1.72,0,2.73,0,.33,4.7,1,7.15,1.83,0,.19.54,1.09.08,1.63-1.52-.22-7.16-1.57-7.15-1.39.27,7.73.43,14.66.26,17.09A14.34,14.34,0,0,1,117.59,75.08ZM98.09,25c.64-.08.77-.07,1.86-.21,0,.26.17,11.29.19,14.18.81.06,3,.13,3.59.15a13.37,13.37,0,0,1,0,2c-1.1-.55-2.73,3.08-3.11,3.59.17,15.64-.12,35.52-.08,41.63-.82-.56-2.17.64-2.15-.2.08-3.35.07-8.53.13-11.37.2-4.48-.09-28.22-.3-30.15-.09-.08-2.6-3-4-3.71a8.5,8.5,0,0,1,0-1.89c2,0,3.8.48,3.8,0C98,33.81,98,26.67,98.09,25ZM82,83.57c.1-9.68.4-19.45-.16-29.25.71,0,1.39,0,2.22,0C84.17,62.87,84,75.41,84,84,83.71,83.92,82.28,83.65,82,83.57ZM76.14,48.31c1.74,0,10.55.23,12.76.14,0,.19-.07.7-.12,1.4-1,0-4,3.76-4.49,4.38a26.67,26.67,0,0,1-2.7,0c-.54-.46-4.49-4.34-5.44-4.34C76.13,49.05,76.15,48.93,76.14,48.31Zm34.25,3.92c-5.56-1.3-14.58-2.5-19.88-4.21,0-1-.12-1.29,1.55-1.5,5.1.72,15.22,2.63,19.28,4.35C111.06,51.87,111,51.57,110.39,52.23ZM81.92,58.4c-1.18-.41-8.21-3.43-9.4-3.85,0-.55.48-.78,1-1.08,1.26.38,7.12,2.33,8.44,2.84C81.86,57.1,82,56.69,81.92,58.4ZM81,48.21a86.52,86.52,0,0,0-.33-9.41c2.81-.19.09,0,2.85-.2.06,3.77,0,5.78.07,9.63C82.2,48.26,82.18,48.2,81,48.21Z"/><path id="path2690" class="cls-5" d="M68.23,103.87a12.94,12.94,0,0,0-5.39.72,12.22,12.22,0,0,1-4.24,1c-2.18.1-3.38-.73-6.52-1.53a1.5,1.5,0,0,0-.22,0l-.33,0-1,0-.95,0-.33,0h-.13a.84.84,0,0,0-.18.25,1.08,1.08,0,0,0,.08.37,1.25,1.25,0,0,0,.21,0l.34,0,.94,0,.95,0,.33,0H52c3.09.78,4.36,1.65,6.66,1.54a12.48,12.48,0,0,0,4.37-1,12.5,12.5,0,0,1,5.19-.67h0l2,.54,0-.64-2-.52v0Z"/><path id="path2696" class="cls-5" d="M146,103.87c-4.28,1.49-9.11,3-13.24.32a.62.62,0,0,0-.25-.1,4.05,4.05,0,0,0-.84,0v.63a4.42,4.42,0,0,1,.77,0c.07,0,0,0,.06,0,4.36,2.83,9.37,1.21,13.66-.28a1,1,0,0,0,0-.35C146.2,104,146,103.87,146,103.87Z"/><path id="path2708" class="cls-5" d="M98.13,131.42a5.27,5.27,0,0,0-3.79,1.76,1.63,1.63,0,0,0,0,.37.89.89,0,0,0,.27.23,4.86,4.86,0,0,1,7-.18s.23-.09.28-.19a1.32,1.32,0,0,0,0-.44A5.63,5.63,0,0,0,98.13,131.42Z"/><path id="path2726" class="cls-6" d="M128.81,82.49c-.4,0-.85,0-1.5.06-2.6.86-5.17,2.26-7.58,2.73a49.62,49.62,0,0,1-8.17.94v.53a50.59,50.59,0,0,0,8.27-1A65.21,65.21,0,0,0,129,83s.09-.23,0-.32S128.81,82.49,128.81,82.49Z"/><path id="path2866" class="cls-7" d="M82,83.56c-.15-9.39.1-19.57-.05-29"/><path id="path2870" class="cls-8" d="M84.09,54.1c0,.29,0,.58,0,.86,0,9.46,0,19.87,0,29.26"/><path id="path2876" class="cls-7" d="M98.45,49.94c0,11.71.06,24.61,0,36.33"/><path id="path2878" class="cls-7" d="M100.58,86.49c-.07-11.8.07-24.38,0-36.18"/><path id="path2880" class="cls-7" d="M75.37,80c-.11-.18-.37-.39-.49-.58-3.31-5.12-8.4-13.76-11.54-18.83-.05-.08-.57-.63-.55-.46"/><path id="path2886" class="cls-7" d="M62.79,60.09c0,.69,0,1.68,0,2.39a20.22,20.22,0,0,0,1.61,3.75c1.84,3.1,5.09,9.13,7.94,12"/><path id="path2888" class="cls-7" d="M76.16,48.32H88.87v1.39"/><path id="path2892" class="cls-7" d="M89.14,49.9c-4.28,0-8.7-.07-13-.07,0-.47,0-1.31,0-1.78"/><path id="path2894" class="cls-7" d="M76.82,49.86l.57.49c1.49,1.29,3.12,3,4.57,4.2"/><path id="path2898" class="cls-9" d="M88,49.88c-1.29,1.38-2.22,2.64-3.41,4-.17.19-.34.39-.52.58"/><path id="path2902" class="cls-7" d="M81.76,54.38c1.07-.06,1.38,0,2.44,0"/><path id="path2553" class="cls-2" d="M87.87,78.18c-.3-.81-.75-3.5-1.11-5.45a34.81,34.81,0,0,1-.34-6.22,30.09,30.09,0,0,1,.42-6.68,21.34,21.34,0,0,1,2-6.28,30.91,30.91,0,0,1,3-4.66,7.37,7.37,0,0,1,1.86.22l1.68.32-.11,1.25A93.87,93.87,0,0,1,91.68,69,63.48,63.48,0,0,1,89,77.27c-.72,1.62-.87,1.9-1.06,1.41Z"/><path id="path2904" class="cls-7" d="M90.67,48.12c6.67,1.39,13.08,2.79,19.76,4.19.63-.62,1.06-.86.67-1.53-.19-.33-2.67-1.24-4.64-1.62-4.23-.81-9-2-12.83-2.62-1.76-.27-2.44-.1-2.66.23A3.22,3.22,0,0,0,90.67,48.12Z"/><path id="path2543" class="cls-2" d="M79.36,38.53a22.1,22.1,0,0,0-3.55-.3A6.15,6.15,0,0,1,73.6,38a2.76,2.76,0,0,1,.54-.87c1.06-1.31,2.69-1.66,6.74-1.41l2.59.16v2.7l-.77.13a7.63,7.63,0,0,1-3.34-.2Z"/><path id="path2906" class="cls-7" d="M83.57,48.12c-.07-3.93.07-8.54,0-12.46-4.47.18-8.49-1.37-9.94,2.64"/><path id="path2910" class="cls-7" d="M81,48.18c0-3-.13-6.16-.11-9.18-1-.2-1.65-.28-2.71-.5-1.58-.15-3.12.07-4.75-.09h0"/><path id="path2541" class="cls-2" d="M88.25,25.19l-.69-.27,1.37-1.1a6.49,6.49,0,0,1,1.7-1.11c.17,0,1.59-.15,3.13-.32s3.56-.31,4.47-.31h1.66v1.39a9.39,9.39,0,0,1,0,1.39c-1.66.16-9.18.62-9.9.61a5.92,5.92,0,0,1-1.69-.27Z"/><path id="path2920" class="cls-7" d="M87.16,25.09c1.46-1.23,1.89-1.4,3-2.36a33,33,0,0,1,4.5-.58A40.58,40.58,0,0,1,100,22c0,5.52,0,11.73,0,17.25"/><path id="path2926" class="cls-6" d="M97.66,25c0,4.81,0,9.3,0,14.11h.53c0-4.81,0-9.33,0-14.14H98Z"/><path id="path2936" class="cls-7" d="M95.15,41.17c1.28,1.4,2.15,2.69,3.43,4.09"/><path id="path2938" class="cls-7" d="M100.57,45.05c.86-1.37,1.32-2.42,2.19-3.79"/><path id="path2940" class="cls-7" d="M98.52,44.7c-.09.69,0,2.28-.06,3"/><path id="path2942" class="cls-7" d="M100.58,48.12c0-1,0-2.41,0-3.43"/><path id="path2537" class="cls-2" d="M120.2,60.4h-.27V58.27l.07,0s1.29.26,2.78.57l3.34.69c.74.15.74.12.09.31a14.25,14.25,0,0,1-3.35.53c-.41,0-2,0-2.66,0Z"/><path id="path2952" class="cls-7" d="M119.78,75c0-5.23,0-8.87,0-14V58.12"/><path id="path2956" class="cls-7" d="M117.67,75.15c0-5.41,0-12.35,0-17.77"/><path id="path2980" class="cls-7" d="M123.62,49.34a14.54,14.54,0,0,0,.23-2.35c-1.08,0-2.87,0-3.71,0-2.87,0-5.5-.08-8.38,0,0,.83,0,.54,0,1.64.34.48.88.7,1.91.88"/><path id="path2539" class="cls-2" d="M109.47,35.4a2.09,2.09,0,0,1,1.37-1.89,27,27,0,0,1,4.14-.19h3.69v2.74c-1.78.06-3.68.09-5.53.1h-3.67Z"/><path id="path2984" class="cls-7" d="M116.57,36.11c.11,3.42,0,7.34.08,10.75"/><path id="path2986" class="cls-7" d="M118.66,46.84c0-4.33,0-9.34,0-13.66l-7.13,0a2.76,2.76,0,0,0-1.78.93c-.77.7-.51,1.12-.52,2.23,2-.18,5,0,7.49,0"/><path id="path2990" class="cls-7" d="M82.09,58.66l-9.68-4.09"/><path id="path2996" class="cls-7" d="M63.84,61.46c3.35.85,8.31-3.08,10.23-6"/><path id="path2998" class="cls-7" d="M72.23,75.16c-2.37-6.25-1.79-9.73-1.07-13.77a19.84,19.84,0,0,1,2.4-5.19"/><path id="path3000" class="cls-7" d="M73.08,76.21a33.07,33.07,0,0,0,4.71-10.32c.61-2.57,1.3-5.56,1.71-8.1"/><path id="path3002" class="cls-7" d="M75.48,80.19A55.42,55.42,0,0,0,79,71.39c1.37-4.67,1.65-7.87,2.9-12.66"/><path id="path3004" class="cls-7" d="M77.49,81.35c1.38-1.59,3.87-2.57,4.57-2.34"/><path id="path3006" class="cls-7" d="M89.86,85.56c1.56-3.67,7.28-5.64,8.53-5.52"/><path id="path3008" class="cls-7" d="M89.77,85.4c2.14-3.78,3.61-8.91,4.67-12.9,2.21-7.89,3.32-12.7,3.2-22.93"/><path id="path3010" class="cls-7" d="M95.67,49.38a69,69,0,0,1-.9,7.9A112.18,112.18,0,0,1,90.48,74.1c-.64,1.52-1.55,3.57-2.21,5.08"/><path id="path3012" class="cls-6" d="M88.08,78.9c-.31,2.12-1.75,3.75-2.39,5.75l.5.13c.86-2.18,2.12-4.09,2.71-6.41Z"/><path id="path3016" class="cls-7" d="M96.48,86.34c-.8-1.5-1.43-3.49-2.23-5"/><path id="path3018" class="cls-7" d="M104.16,86.4c1.25-1.65,1.81-3.87,2.49-5.66"/><path id="path2545" class="cls-2" d="M104.34,61.5c-.11-.18-1.47-6.37-2.06-9.37a3.67,3.67,0,0,1-.13-1.36c.1-.1,7.7,1.41,7.92,1.57a5.61,5.61,0,0,1-.88,1.15,26.83,26.83,0,0,0-4.52,7.69c-.11.29-.26.43-.33.32Z"/><path id="path3020" class="cls-7" d="M107.77,78.38a166.32,166.32,0,0,0,6-19.26"/><path id="path3026" class="cls-7" d="M100.55,80c4.52-.09,7.5.81,9.76,2.24-3-3.46-5.7-9.49-5.89-13.25-1.21-6.91,2-12.53,6-16.71"/><path id="path3028" class="cls-7" d="M102,50.65a127.87,127.87,0,0,0,3.48,14.84c.18.63,2.83,9.12,5.41,13.63"/><path id="path3030" class="cls-7" d="M112.24,76.31c1.27-1.36,3.35-11,3.86-16.2"/><path id="path3032" class="cls-7" d="M107.23,77.49c-4-4.84-6-13.47-6.64-20"/><path id="path3034" class="cls-7" d="M89.81,85.39a69.74,69.74,0,0,1-2-6.84,38.66,38.66,0,0,1-1.15-19.7c.53-3.84,2.62-7.39,5-10.44"/><path id="path3036" class="cls-7" d="M84,57.24l3,.68"/><path id="path3038" class="cls-7" d="M84.13,79c1.15,0,3.64,0,4.24,0"/><path id="path3042" class="cls-7" d="M83.45,46.5C89.66,41.8,93.74,34.14,98,27.78"/><path id="path3046" class="cls-10" d="M103.23,39c-.83-.48-2.23-2.7-3.3-5.37"/><path id="path3048" class="cls-7" d="M116.44,46.71c-7.5-3.93-11.86-10.63-16.09-17.78l-.33-.6"/><path id="path3050" class="cls-7" d="M128.68,73.92c-3.32-3.66-5.1-8.47-6.24-13.23"/><path id="path3052" class="cls-7" d="M121.21,60.69c.2,5.45,1.43,9.65,3.06,14.61"/><path id="path3237" class="cls-5" d="M130.23,114.87a10.71,10.71,0,0,0-4,.8c-1.75.6-3.47,1.24-5.2,1-3.65-1.52-7.73-2.24-11.49-.57-2.61,1.67-4.95.9-7.08-.15v0a10.1,10.1,0,0,0-9.33.39h0a5.14,5.14,0,0,1-4.29.43c-1.47-.38-3-1.1-4.45-1.49,0,0,0,0,0,0-2.14-.82-4.19-.07-6.17.65s-3.91,1.4-5.87.58v0c-3.64-2.48-8-1.66-11.6.22a1.31,1.31,0,0,0,0,.39.83.83,0,0,0,.19.23c3.54-1.85,7.76-2.62,11.2-.25h0l0,0c2.14.9,4.2.15,6.19-.57s3.92-1.45,5.89-.68l0,0h0c1.42.38,2.92,1.1,4.46,1.5a5.69,5.69,0,0,0,4.64-.47h0a9.62,9.62,0,0,1,8.92-.39v0c2.33,1,5.08,1.75,7.44.1l0,0c3.59-1.57,7.56-.86,11.13.64l0,0h0c1.88.3,3.66-.39,5.41-1s3.44-1.11,5.19-.55v0h0c1.14.27,2.27.75,3.45,1.07a.93.93,0,0,0,.19-.28,1,1,0,0,0-.09-.38c-1.13-.31-2.25-.78-3.43-1.07h0A5.34,5.34,0,0,0,130.23,114.87Z"/><path id="path3239" class="cls-5" d="M83,125.93c-.19.15-.24.32-.08.46a24.64,24.64,0,0,0,3.09,1.3,9.84,9.84,0,0,0,5,1c1.76.09,3.22-1.41,4.95-1.62a9.79,9.79,0,0,1,5.77.18c1.18.33,2.18,1.3,3.38,1.49a8.4,8.4,0,0,0,5.4-1.29c.48-.33,2.4-.84,1.06-1.2-1,.37-1.91,1.07-2.94,1.41a5.31,5.31,0,0,1-5.11-.25,8.88,8.88,0,0,0-6.58-1.14,10.61,10.61,0,0,0-4.24,1.39c-2.33,1-4.8.14-7-.77C84.78,126.54,83.92,126.21,83,125.93Z"/><path id="path3241" class="cls-5" d="M113.64,120.43a9.46,9.46,0,0,0-5,1.71s0,0,0,0c-2.66,1-5.36-.5-8-1.36a7.53,7.53,0,0,0-6.25.7h0a9.7,9.7,0,0,1-7.42.29v0c-2.37-1.06-5.12-2.14-7.65-.66h0c-2,1.34-4.51,1.88-6.54.43l0,0-.08,0c-.26.17-.13.51-.12.57,2.23,1.57,4.9,1,7-.43,2.32-1.36,4.9-.38,7.25.68h0a10.13,10.13,0,0,0,7.79-.31v0h0a7.13,7.13,0,0,1,5.91-.66h0c2.62.84,5.42,2.42,8.31,1.34h0l0,0a9.06,9.06,0,0,1,4.86-1.65h0a9.8,9.8,0,0,1,4.13,1,6.71,6.71,0,0,0,4.37.56,1.39,1.39,0,0,0,.06-.4A.91.91,0,0,0,122,122a6.24,6.24,0,0,1-4.09-.54,9.92,9.92,0,0,0-4.28-1Z"/><path id="path3176" class="cls-7" d="M119.56,60.65c2.43.1,4.7.15,6.92-.9.49-.94.27-1.94-.17-2.16-2.79-.59-4.1-1-6.5-1.52"/><path id="path3190" class="cls-7" d="M110.39,55.74c.57.33,16.33,3.9,16.33,3.9"/><path id="path3192" class="cls-7" d="M112.19,54.48l5.43,1.17,0-2.24"/><path id="path3194" class="cls-7" d="M119.76,56.34l0-3.07"/><path id="path3196" class="cls-7" d="M121,51.56a21.36,21.36,0,0,0,.57,4.82"/><path id="path3198" class="cls-7" d="M119.68,53.42l3.19-4.24"/><path id="path3200" class="cls-7" d="M113.36,49.45l4.26,4.07"/><path id="path3204" class="cls-7" d="M117.53,60.41c-2.35-.86-7-2.14-7.31-4.78a2.8,2.8,0,0,1,2.07-1.14"/><path id="path3210" class="cls-7" d="M112.54,49.18l11.33-.08"/><path id="path3212" class="cls-7" d="M94.2,41.15H104"/><path id="path3214" class="cls-7" d="M103.76,41.42V39.16"/><path id="path3216" class="cls-7" d="M104,39l-9.82.05v2.36"/><path id="path3218" class="cls-6" d="M97.86,33.18c-.86,2.91-2,4-3.41,5.69l.35.36c1.4-1.66,2.56-2.67,3.42-5.7Z"/><path id="path3220" class="cls-6" d="M87.47,24.53l-.8.53c.7.31,2,.61,2.56.88l.07,0h0c3.2,0,6.18-.43,8.7-.49L98,25c-2.55.05-5.49.47-8.61.46C88.74,25.13,87.58,25,87.47,24.53Z"/><path id="path3224" class="cls-7" d="M72.57,54.81v-.89l.92-.48,8.63,2.73h0"/><path id="path3228" class="cls-7" d="M98.48,45l2.13,0"/><path id="path3230" class="cls-7" d="M117.59,53.4l2,0"/><path id="path2893" class="cls-6" d="M71.16,100s-.31,0-.38.11,0,.31,0,.31a21.34,21.34,0,0,0,8,4.27,54.74,54.74,0,0,0,19.8,3.13,142.53,142.53,0,0,0,19.07-1.75,30,30,0,0,0,3.37-.76,13.56,13.56,0,0,0,4.81-2.21s0-.29,0-.37-.38,0-.38,0a12.44,12.44,0,0,1-4.53,2.08,29.17,29.17,0,0,1-3.31.77,142.11,142.11,0,0,1-19,1.73A54.37,54.37,0,0,1,79,104.18,20.89,20.89,0,0,1,71.16,100Z"/><path id="path2905" class="cls-6" d="M71,96.38a.79.79,0,0,0-.3.11.54.54,0,0,0,0,.31A18.42,18.42,0,0,0,74,99a62.71,62.71,0,0,0,10.51,3.7h0A49.38,49.38,0,0,0,97.4,104h0c7.89-.3,19.17-.59,27.71-4.79,0,0,.06-.25,0-.33s-.25-.16-.25-.16c-8.39,4.13-19.59,4.47-27.49,4.76v0c-4.29,0-8.61-.14-12.73-1.31h0a62,62,0,0,1-10.42-3.66h0A17.54,17.54,0,0,1,71,96.38Z"/><path id="path2911" class="cls-6" d="M71,92s-.21,0-.27.13,0,.3,0,.3c7.51,5.31,16.8,7.44,25.82,7.92h0c8.06-.19,20.81-.57,27.92-4.31l.63-.35s.12-.22.07-.31-.33-.15-.33-.15l-.62.35c-6.87,3.6-19.56,4-27.67,4.24h0C87.52,99.37,78.34,97.26,71,92Z"/><path id="path2919" class="cls-6" d="M70.4,87.66a.83.83,0,0,0-.27.1.86.86,0,0,0-.06.34h0a41.88,41.88,0,0,0,15.27,7,50.74,50.74,0,0,0,16,2h0c5,.12,9.8-.92,14.62-1.71a21.09,21.09,0,0,0,8.84-3s0-.23,0-.3-.32-.08-.32-.08a22.43,22.43,0,0,1-8.55,2.85c-4.84.79-9.67,1.83-14.56,1.71a50.11,50.11,0,0,1-15.83-2A41.25,41.25,0,0,1,70.43,87.7Z"/><path id="path2931" class="cls-6" d="M62.61,73.52s-.25,0-.32,0,0,.35,0,.35l1.3,1.22a50.94,50.94,0,0,0,11.82,9.35c7.19,4.55,15.76,6.35,24.16,6.45,9,.2,17.82-1.73,26.6-3.24l-.08-.53c-8.8,1.51-17.59,3.43-26.52,3.24C91.2,90.29,82.72,88.5,75.64,84v0a50.46,50.46,0,0,1-11.73-9.25h0Z"/><path id="path3158" class="cls-11" d="M126.93,77.38c-1.12,0-1.33.24-1.33,1.59s.21,1.6,1.33,1.6,1.33-.25,1.33-1.6S128.05,77.38,126.93,77.38Z"/><path id="path3160" class="cls-11" d="M115.75,79.27c-1.12,0-1.33.25-1.33,1.6s.21,1.6,1.33,1.6,1.33-.25,1.33-1.6S116.87,79.27,115.75,79.27Z"/><path id="path3164" class="cls-11" d="M90.8,91.53c-1.16,0-1.17,0-1.18,1.27,0,1,0,1.06,1.21,1.06s1.14,0,1.14-1.12S91.94,91.53,90.8,91.53Z"/><path id="path3166" class="cls-11" d="M99.1,92.33c-1.17,0-1.18,0-1.18,1.29,0,1,0,1.08,1.21,1.08s1.15,0,1.15-1.13S100.25,92.33,99.1,92.33Z"/><path id="path3168" class="cls-11" d="M106.52,92.32c-1.12,0-1.13,0-1.16,1.22,0,1,0,1,1.16,1.06s1.1,0,1.12-1.08S107.63,92.33,106.52,92.32Z"/><path id="path3170" class="cls-11" d="M113.74,91.52c-1.17,0-1.18,0-1.19,1.3,0,1,0,1.08,1.22,1.08s1.16,0,1.16-1.14S114.89,91.52,113.74,91.52Z"/><path id="path3172" class="cls-11" d="M121.48,89.94c-1.13,0-1.14,0-1.15,1.15,0,.93,0,1.08,1.19,1.08s1.11-.16,1.11-1.13S122.6,89.94,121.48,89.94Z"/><path id="path2748" class="cls-7" d="M132.12,83.58c-1.4,6.86-.66,14.3-.67,21.24"/><path id="path2742" class="cls-7" d="M96.49,86.38c.32,0,8.77,0,11.41,0,.33,0,.49-.45.7-.74a14.64,14.64,0,0,0,2.4-7.33c.51-1.43,1.82-3.08,3.18-3.09,1.21,0,9.74,0,10.68,0a8.94,8.94,0,0,0,6.89-4.28c.79-1.48,6.27-1.51,5.18,2.56-2.62,4.43-4,6.31-4.81,10.34"/><path id="path3154" class="cls-11" d="M121.32,78.78c-1.12,0-1.33.25-1.33,1.6s.21,1.6,1.33,1.6,1.33-.25,1.33-1.6S122.44,78.78,121.32,78.78Z"/><path id="path2714" class="cls-6" d="M67.55,83.37c0,.07.14.38.14.45,0,4,0,7.09,0,10.86-.17,3.39,0,6.73,1.78,9.64h0a12.39,12.39,0,0,0,6.2,4.82,17.28,17.28,0,0,0,3.83.82h0a16.63,16.63,0,0,0,3.46.15l.42,0v0c.21,0,.42,0,.63,0h0a8.18,8.18,0,0,1,2.61.67,7.31,7.31,0,0,0,2.78.58h0a15.65,15.65,0,0,0,6.55-1.18,7.28,7.28,0,0,1,5,.23l0,0h0c2.87.91,6.1,1.53,9.06.33h0a10.43,10.43,0,0,1,6-.4h0c.79.11,1.58.3,2.39.45v0l0,.06,5.61-3.44,0,0,4.8-2.19s0,0,0,0a.32.32,0,0,0,.15.13l.12,0a.86.86,0,0,0,.23,0c.35,0,.87,0,1.32,0a.87.87,0,0,0,.66-.28.31.31,0,0,0,.09-.26l-.2-.42a1.49,1.49,0,0,0-.29.33c-.07.08-.1.1-.25.1h-1a32.81,32.81,0,0,1-2.09-10.47,21.67,21.67,0,0,1,1.66-9.28l-.63.22a20.24,20.24,0,0,0-1.57,9.08,32.78,32.78,0,0,0,2,10.12l-.18.08-5,2.3h0l-5.42,3.33c-.76-.14-1.53-.32-2.32-.43h0a11,11,0,0,0-6.3.42h0a12,12,0,0,1-8.6-.47,8.53,8.53,0,0,0-5.64-.23c-2.09.7-4.07,1.51-6.24,1.27h0a6.76,6.76,0,0,1-2.61-.55,11.73,11.73,0,0,0-4-.62,21.81,21.81,0,0,1-7-1A11.81,11.81,0,0,1,70,104h0c-1.68-2.77-1.86-6-1.7-9.32,0-3.55-.06-7,0-10.88C68.26,83.36,67.87,82.77,67.55,83.37Z"/><path id="path3150" class="cls-11" d="M75.93,86.75c-1.19,0-1.19,0-1.2,1.24,0,1,0,1,1.23,1s1.16,0,1.16-1.08S77.09,86.75,75.93,86.75Z"/><path id="path3162" class="cls-11" d="M82.92,90c-1.23,0-1.24,0-1.25,1.2,0,1,0,1.23,1.28,1.23s1.21-.27,1.22-1.28S84.13,90,82.92,90Z"/><path id="path2716" class="cls-7" d="M67.9,83.44c-6.48-4.59-13.16-18.37-5.73-14.36,4.59,3.33,9,8.73,11.88,10.39,6.28,4.34,14.29,6.28,21.9,6.86l.58,0"/><path id="path2499" class="cls-7" d="M85.52,52.71A15.71,15.71,0,0,0,87,57.13"/><path id="path2515" class="cls-7" d="M114.9,55a31.23,31.23,0,0,0,.88-3.2"/><path id="path3235" class="cls-5" d="M98.17,109c-2.53.11-6.64,3.26-10.26,1.71a13.88,13.88,0,0,0-11.43,0c-4.33,2-9-3.34-13.38-.55a12.6,12.6,0,0,1-10.5-.73c.45,2.05,4.13,2,5.94,2.24,2.42.25,4.67-1,6.95-1.66,4.13-.27,8.19,3.53,12.21.89,2.91-1.52,6.07-1.31,9.49.11s7-.19,10.22-1.26c3.62-.47,6.93,2.81,10.62,1.8,3.56-1.45,7.51-2.28,11.08-.3,4.71,2.62,9.55-3.79,14.18-.52,2.62,1.62,8.41,2.47,9.4-1-3.34,3.23-7.61,1.2-11.09-.47-4.28-1.17-8.74,4.06-12.91,1.33-3.41-1.66-6.44-.89-10.47.26C103.77,111.9,100.69,108.86,98.17,109Z"/></g><path class="cls-12" d="M152.16,267.4l.11,0a.28.28,0,0,0,.12-.23s-.21-76.57-.21-79c0-27.86-24.45-50.46-54.59-50.46-28,0-51.08,19.51-54.22,44.61l-.17,84.83a.27.27,0,0,0,.27.28H152.16Z"/><path class="cls-13" d="M104.23,217.68a9.39,9.39,0,0,1-3.1-6.32v-7.05h7.07c2.73-.1,4.61,1.34,6.31,3.1V195a7.25,7.25,0,0,1-6.31,3.1h-7.07v-7.06c-.09-2.73,1.35-4.61,3.1-6.31H91.85a7.29,7.29,0,0,1,3.1,6.31v7.06H88a9.47,9.47,0,0,1-6.41-3.1v12.39a9.39,9.39,0,0,1,6.33-3.1h7v7a9.52,9.52,0,0,1-3.1,6.4Zm0-36.11a9.42,9.42,0,0,1-3.1-6.33v-7.05h7.07c2.73-.09,4.61,1.34,6.31,3.1V158.91a7.27,7.27,0,0,1-6.31,3.1h-7.07v-7.07c-.09-2.72,1.35-4.61,3.1-6.31H91.85a7.3,7.3,0,0,1,3.1,6.31V162H88a9.52,9.52,0,0,1-6.41-3.1v12.38a9.44,9.44,0,0,1,6.33-3.1h7v7a9.56,9.56,0,0,1-3.1,6.41Z"/><path class="cls-14" d="M69,248c1.63-.39,3.7,0,4.48,1.21-.28.48-1,.59-1.54.75,1.13.12,2.45.61,2.38,1.54-.26,1.4-1.24,1.33-2.38,1.1a1.64,1.64,0,0,1,.06,1.52,5.55,5.55,0,0,1-3.67-.45c.39,2.13.33,3.87-.88,5.19-.84-.2-1.52-.54-1.63-1.29a3.91,3.91,0,0,1-1,2.89,2.94,2.94,0,0,1-1-1.82l1.19-3M130,248.26l-.73-.16c-1.64-.4-3.53-.14-4.3,1.07.28.48,1.12.64,1.65.8-1.14.12-2.58.56-2.5,1.49.26,1.4,1.31,1.44,2.39,1.1a2,2,0,0,0,0,1.67,5.6,5.6,0,0,0,3.69-.46c-.4,2.13-.31,3.91.91,5.23a1.93,1.93,0,0,0,1.66-1.42,3.76,3.76,0,0,0,.91,2.84,2.94,2.94,0,0,0,1-1.82l-1.21-3.46"/><path class="cls-15" d="M134.83,258.5l-1.12-3.08L129.8,248c-1.48-.21-3.09-.56-4.59,1,0,.57.76.66,1.5.91-1.3.07-2.5.54-2.45,1.55.21,1,1.17,1.22,2.49.91a1.91,1.91,0,0,0-.07,1.63c2.12.2,3.06,0,3.68-.66-.45,2.37-.25,4.34.82,5.31.85,0,1.21-.55,1.57-1.16a3.5,3.5,0,0,0,.91,2.7,2.43,2.43,0,0,0,1.17-1.76Z"/><path class="cls-16" d="M63.89,258.47a2.9,2.9,0,0,0,1,1.82,3.35,3.35,0,0,0,1-2.67c.11.76.74,1.06,1.57,1.26,1.22-1.33,1.36-3,1-5.16a5.31,5.31,0,0,0,3.61.38,2,2,0,0,0,0-1.67c1.08.35,2.13.3,2.39-1.1.07-.93-.91-1.42-2-1.54A1.7,1.7,0,0,0,73.6,249c-.77-1.21-2.67-1.46-4.3-1.07"/><path class="cls-15" d="M63.75,258.37l1.13-3.07,3.91-7.4c1.48-.21,3.08-.55,4.59,1,0,.57-.76.66-1.51.91,1.31.08,2.51.54,2.45,1.55s-1.17,1.22-2.48.91a2,2,0,0,1,.07,1.63c-2.12.21-3.07,0-3.68-.66.45,2.37.25,4.34-.82,5.31-.85.05-1.21-.55-1.57-1.16a3.5,3.5,0,0,1-.92,2.71,2.51,2.51,0,0,1-1.17-1.77Z"/><path class="cls-14" d="M99.36,248.54a23.21,23.21,0,0,1,6.59-.81,3.19,3.19,0,0,1-.81,2.22c1.41.07,2.23,0,2.48,1.13-.2.91-.8,1.32-2.36,1.33a2.6,2.6,0,0,1,.9,1.89,10.11,10.11,0,0,1-4.36-.32c.72,1.92.49,3.84.49,5.77-.84.44-1.24-.31-1.79-.65,0,2-.47,3-1.28,3.27-.82-.31-1.29-1.25-1.28-3.27-.55.34-1,1.09-1.79.65,0-1.93-.23-3.85.49-5.77a10.11,10.11,0,0,1-4.36.32,2.62,2.62,0,0,1,.89-1.89c-1.56,0-2.15-.42-2.36-1.33C91.07,250,91.89,250,93.3,250a3.16,3.16,0,0,1-.82-2.22A23.6,23.6,0,0,1,99.36,248.54Z"/><path class="cls-17" d="M99.34,248.61a21.85,21.85,0,0,1,6.3-.79,3.07,3.07,0,0,1-.77,2.15c1.35.07,2.12,0,2.37,1.09-.19.88-.77,1.27-2.26,1.28a2.52,2.52,0,0,1,.86,1.84,9.7,9.7,0,0,1-4.17-.32c.69,1.86.46,3.72.47,5.57-.81.43-1.19-.29-1.72-.62,0,2-.44,2.86-1.22,3.15-.78-.29-1.23-1.19-1.23-3.15-.52.33-.9,1.05-1.71.62,0-1.85-.22-3.71.47-5.57a9.7,9.7,0,0,1-4.17.32,2.59,2.59,0,0,1,.85-1.84c-1.49,0-2.06-.4-2.25-1.28.24-1.07,1-1,2.37-1.09a3.14,3.14,0,0,1-.78-2.15A22.26,22.26,0,0,1,99.34,248.61Z"/><path class="cls-18" d="M116.87,245.3a21.77,21.77,0,0,1,6.26-.77,3.1,3.1,0,0,1-.77,2.12c1.33.07,2.11,0,2.35,1.08-.19.87-.76,1.26-2.24,1.27a2.5,2.5,0,0,1,.85,1.81,9.51,9.51,0,0,1-4.13-.31c.68,1.84.46,3.68.46,5.51-.8.43-1.18-.29-1.7-.61,0,1.93-.44,2.83-1.21,3.12-.78-.29-1.23-1.19-1.22-3.12-.52.32-.9,1-1.7.61,0-1.83-.22-3.67.46-5.51a9.5,9.5,0,0,1-4.13.31A2.54,2.54,0,0,1,111,249c-1.48,0-2-.4-2.24-1.27.25-1.06,1-1,2.36-1.08a3.06,3.06,0,0,1-.78-2.12A22.09,22.09,0,0,1,116.87,245.3Z"/><path class="cls-17" d="M116.85,245.36a20.47,20.47,0,0,1,6-.74,3,3,0,0,1-.74,2c1.28.06,2,0,2.26,1-.19.84-.73,1.22-2.14,1.23a2.44,2.44,0,0,1,.81,1.75,9.14,9.14,0,0,1-4-.3c.65,1.78.43,3.55.44,5.32-.77.42-1.13-.28-1.63-.59,0,1.87-.42,2.73-1.16,3-.74-.28-1.17-1.14-1.17-3-.5.31-.85,1-1.62.59,0-1.77-.21-3.54.44-5.32a9.15,9.15,0,0,1-4,.3,2.44,2.44,0,0,1,.81-1.75c-1.41,0-2-.39-2.14-1.23.23-1,1-1,2.25-1a3,3,0,0,1-.74-2,20.78,20.78,0,0,1,6.25.74Z"/><path class="cls-18" d="M82.17,245.3a21.71,21.71,0,0,1,6.25-.77,3.05,3.05,0,0,1-.77,2.12c1.34.07,2.11,0,2.36,1.08-.2.87-.76,1.26-2.24,1.27a2.54,2.54,0,0,1,.85,1.81,9.56,9.56,0,0,1-4.14-.31c.69,1.84.46,3.68.47,5.51-.81.43-1.18-.29-1.7-.61,0,1.93-.44,2.83-1.22,3.12-.77-.29-1.22-1.19-1.21-3.12-.53.32-.9,1-1.7.61,0-1.83-.22-3.67.46-5.51a9.51,9.51,0,0,1-4.13.31A2.5,2.5,0,0,1,76.3,249c-1.48,0-2-.4-2.24-1.27.24-1.06,1-1,2.35-1.08a3.1,3.1,0,0,1-.77-2.12A22.12,22.12,0,0,1,82.17,245.3Z"/><path class="cls-17" d="M82.14,245.36a20.5,20.5,0,0,1,6-.74,3,3,0,0,1-.74,2c1.28.06,2,0,2.26,1-.19.84-.73,1.22-2.15,1.23a2.41,2.41,0,0,1,.81,1.75,9.16,9.16,0,0,1-4-.3c.65,1.78.44,3.55.44,5.32-.76.42-1.12-.28-1.62-.59,0,1.87-.43,2.73-1.16,3-.75-.28-1.18-1.14-1.17-3-.5.31-.86,1-1.63.59,0-1.77-.21-3.54.45-5.32a9.2,9.2,0,0,1-4,.3,2.44,2.44,0,0,1,.81-1.75c-1.41,0-2-.39-2.14-1.23.24-1,1-1,2.26-1a3,3,0,0,1-.74-2,20.71,20.71,0,0,1,6.24.74Z"/><path class="cls-19" d="M99.49,256.65c.39-1,.25-5.18,3.64-5.47a20.83,20.83,0,0,1-2.34-1.56,3.45,3.45,0,0,1,.13-3c3.52-6.19,11.27-5.22,14.58-1.43A10,10,0,0,1,113,247.7c2.06.78,2.91,3.35,3.52,5,.61-1.77,1.1-4.09,3.55-5a7.33,7.33,0,0,1-2.34-2.47c1.8-1.67,4.31-4.15,7-3.91,4.07,0,7.1,6.71,3.26,9.64,3.48.55,4.2,2.88,5.73,4.69l-8.47-28.92a154.5,154.5,0,0,1-52,0l-8.46,28.92c1.52-1.81,2.24-4.14,5.73-4.69-3.84-2.93-.82-9.62,3.25-9.64,2.72-.24,5.24,2.24,7,3.91a7.37,7.37,0,0,1-2.35,2.47c2.45.86,3,3.18,3.55,5,.61-1.69,1.46-4.26,3.53-5a10,10,0,0,1-2.52-2.51c3.32-3.79,11.07-4.76,14.59,1.43a3.48,3.48,0,0,1,.13,3,21.11,21.11,0,0,1-2.35,1.56c3.39.29,3.26,4.48,4,5.47Z"/><path class="cls-20" d="M116.51,235.57l-5,.43a2.34,2.34,0,0,1-2.47-2h0a2.1,2.1,0,0,1,1.9-2.4l5-.43a2.34,2.34,0,0,1,2.47,2h0A2.1,2.1,0,0,1,116.51,235.57Z"/><path class="cls-20" d="M81.41,235.57l5,.42a2.33,2.33,0,0,0,2.47-2h0a2.12,2.12,0,0,0-1.9-2.41l-5-.42a2.34,2.34,0,0,0-2.47,2h0A2.11,2.11,0,0,0,81.41,235.57Z"/><path class="cls-21" d="M104.1,234.14,99.32,237l-4.8-2.85,5-2.67,4.6,2.67Zm23.21.55-4.61-2.21,2.86-3.41m-54.24,5.62,4.6-2.21-2.85-3.41"/><path class="cls-19" d="M73.9,227a86.72,86.72,0,0,1,51.38-.09A161.55,161.55,0,0,1,73.9,227Z"/><path class="cls-21" d="M125.66,228.65a165.62,165.62,0,0,1-52.35,0m54.44,7.55a195.28,195.28,0,0,1-56.92,0"/><path class="cls-21" d="M128.27,237.9a201.36,201.36,0,0,1-58,.13"/><path class="cls-21" d="M130.26,251.79c1.19-1.76,2-11-5.32-12.24a9,9,0,0,0-8,4.31,10,10,0,0,0-8.15-3.51c-4.52.13-7.78,2.13-9.29,5.66-1.51-3.53-4.77-5.53-9.29-5.66A10,10,0,0,0,82,243.86,9,9,0,0,0,74,239.55c-7.83,1.49-6.51,9.81-5.32,12.24"/><path class="cls-22" d="M97.63,251.11a1.63,1.63,0,1,1,1.62,1.6,1.62,1.62,0,0,1-1.62-1.6"/><path class="cls-22" d="M80.46,247.77a1.63,1.63,0,0,1,3.25,0,1.59,1.59,0,0,1-1.63,1.58,1.61,1.61,0,0,1-1.62-1.58"/><path class="cls-22" d="M114.92,247.77a1.63,1.63,0,1,1,1.62,1.59,1.61,1.61,0,0,1-1.62-1.59"/><path class="cls-2" d="M80,99.63c-12.64,0-22.89,10.17-22.89,30.51C57.11,155.57,75.33,181,97.8,181s40.68-25.43,40.68-50.86c0-20.34-10.24-30.51-22.88-30.51a22.86,22.86,0,0,0-17.8,8.5A22.89,22.89,0,0,0,80,99.63Zm0,0"/><rect class="cls-2" x="24.97" y="112.84" width="145.64" height="54.95" rx="5.46"/><text class="cls-23" transform="translate(60 162.57)">Gdańsk</text><text class="cls-23" transform="translate(59.84 137.92)">Slonim</text><path class="cls-2" d="M150.51,0l29,0h16l0,16c0,7,0,14,0,21A29.09,29.09,0,0,1,150.51,0Z"/><text class="cls-24" transform="translate(159.56 31.75)">33</text></svg>