<svg id="Слой_1" data-name="Слой 1" xmlns="http://www.w3.org/2000/svg" viewBox="0 0 195.59 280.63"><defs><style>.cls-1{fill:#549fd7;}.cls-2{fill:#a91916;}.cls-10,.cls-11,.cls-2,.cls-3,.cls-7,.cls-8,.cls-9{fill-rule:evenodd;}.cls-3,.cls-5{fill:#424242;}.cls-13,.cls-14,.cls-4{fill:#3d82c3;}.cls-6{fill:#f7e73e;}.cls-12,.cls-7{fill:#fff;}.cls-8{fill:#d3361c;}.cls-9{fill:#201b18;}.cls-10{fill:#da271e;}.cls-11{fill:#c0a062;}.cls-13{font-size:24.77px;}.cls-13,.cls-14{font-family:Impact;}.cls-14{font-size:20px;}</style></defs><rect class="cls-1" x="-6.62" y="-8.4" width="214.01" height="297.89"/><path id="path3250" class="cls-2" d="M122.23,67.73A1.81,1.81,0,0,1,124,69.54v1.81a1.81,1.81,0,0,1-1.81,1.81h-1.81V67.73Zm0,7.24a3.63,3.63,0,0,0,3.63-3.62V69.54a3.63,3.63,0,0,0-3.63-3.62h-3.62v9Zm-7.24-9h1.81v9H115Zm-3.62,0h1.81v9h-1.81l-3.62-5.68V75h-1.81v-9h1.81l3.62,5.68Zm-27.15,0h5.43v1.81H86v1.81h3.62v1.81H86v1.81h3.62V75H84.22Zm-7.24,0h1.81v7.24h3.62V75H77Zm19,7.24H97.8a2.71,2.71,0,0,0,2.71-2.71,2.74,2.74,0,0,0-2.71-2.72H96v1.81H97.8a.91.91,0,0,1,0,1.81H96Zm1.81-9a6.34,6.34,0,1,1-6.34,6.34A6.34,6.34,0,0,1,97.8,64.11Zm0,1.81a4.53,4.53,0,1,1-4.53,4.53A4.53,4.53,0,0,1,97.8,65.92Z"/><g id="Слой_1-2" data-name="Слой_1"><path id="path10" class="cls-3" d="M97.68,129.54A20.24,20.24,0,0,0,80,119.31H57.66a10.77,10.77,0,0,1-11-10.55V11.35H148.89v97.42a10.77,10.77,0,0,1-11,10.55H115.64a20.24,20.24,0,0,0-17.73,10.23Z"/><path id="path12" class="cls-4" d="M97.8,128.65a20.5,20.5,0,0,0-9-8,21.16,21.16,0,0,0-8.81-1.9H57.65a10.27,10.27,0,0,1-10.39-10h0V11.89H148.33v96.88h0a10.27,10.27,0,0,1-10.39,10H115.63a21.16,21.16,0,0,0-8.81,1.9,20.43,20.43,0,0,0-9,8Z"/><path id="path14" class="cls-5" d="M73.13,38.09c0-.49.08-1,.15-1.46a15.33,15.33,0,0,1,1-3.72L73.11,30.3l.47-.21.15.35-.09-.39.5-.11.08.35V30l.51,0,.12,2.94a5.08,5.08,0,0,1,.82,1,7,7,0,0,1,.55-1.24L75,29.92l.47-.21.15.35-.08-.36.5-.12.08.36,0-.36.51,0,.13,3c.93,1.14,1.61,2.5,2.5,3.67h0A25.63,25.63,0,0,0,82.6,39.6a17.44,17.44,0,0,1,3.47,3.34l-1.16.27a8,8,0,0,1,1.6,2.38,5,5,0,0,0-1,0,6.27,6.27,0,0,1,1.11,2.74A6.39,6.39,0,0,0,85.46,48a11.75,11.75,0,0,1,1,3.62,4.51,4.51,0,0,0-1.35-.32,23.15,23.15,0,0,0-.42,3.42A12.78,12.78,0,0,0,85,58.24a3.91,3.91,0,0,1,1.67.29,7.37,7.37,0,0,1,1.85,1.12A7.29,7.29,0,0,0,91.08,61a9.86,9.86,0,0,0,2.8.34,26.85,26.85,0,0,1,3,.15,23.61,23.61,0,0,1,3,.5,23.33,23.33,0,0,0,5.26.6,26.14,26.14,0,0,0,5.14-.53h0a12.68,12.68,0,0,1,2.21-.25h0a12.73,12.73,0,0,1,2.21.17c3.79.64,7.59,3.06,11.26,7.18a30.27,30.27,0,0,0,6.18,5.63,10.71,10.71,0,0,0,7,1.67,5.19,5.19,0,0,1,2.35.21,1.8,1.8,0,0,1,.68.47,1.4,1.4,0,0,1,.31.75,2.29,2.29,0,0,1-.2,1.09,5.46,5.46,0,0,1-1.48,2.15,4.68,4.68,0,0,1-2.23,1.06h0a12.32,12.32,0,0,1-1.26.18,11.74,11.74,0,0,1-1.34,0,17.09,17.09,0,0,1-6.48-1.27,2.47,2.47,0,0,1-1.24,2,8.7,8.7,0,0,1,.56,1.93,6.21,6.21,0,0,1,0,2,3.78,3.78,0,0,1-.64,1.65h0a2.5,2.5,0,0,1-1.67,1,21.23,21.23,0,0,1-4.64,0l-1.17-.09h0c-1.2-.08-2.41-.19-3.61-.32s-2.4-.28-3.61-.44c-.4,0-.92-.17-1.47-.29a10.1,10.1,0,0,0-3.2-.39h0a.84.84,0,0,0-.44.26c-.52.54-.64,1.14-1.57,1.26a1.47,1.47,0,0,1-.89-.2,2.47,2.47,0,0,1-1.44.88,2.17,2.17,0,0,1-1.42-.15,2,2,0,0,1-.52-.37,1.32,1.32,0,0,1-1.05.26,2.36,2.36,0,0,1-1.6-1.14,6.56,6.56,0,0,1-1-2.68A45.27,45.27,0,0,0,92.53,86c.28,1.62-.24,2.36-1.16,2.7-1.24.45-2.74.16-4.05.19-1.51,0-3,.07-4.55.08s-3,0-4.56,0c-1.27,0-2.53-.07-3.78-.16s-2.52-.23-3.78-.37A26,26,0,0,1,67.91,88h0c-.53-.12-1.06-.25-1.6-.35a7.87,7.87,0,0,0-1-.12,1.2,1.2,0,0,0-1.13.36A5.15,5.15,0,0,1,61,89a3.09,3.09,0,0,1-1.92,1.11,2.73,2.73,0,0,1-1.24-.1,3.34,3.34,0,0,1-1.14-.66,2.51,2.51,0,0,1-1.18.27,1.74,1.74,0,0,1-1.32-.92A5.21,5.21,0,0,1,53.3,86a4.6,4.6,0,0,1,.35-1.72,1.63,1.63,0,0,1-.39-.66,2.89,2.89,0,0,1,.39-2.4,13.79,13.79,0,0,1,1.14-1.41,9.67,9.67,0,0,1,1.42-1.26h0a1.86,1.86,0,0,1,.35-.22,3,3,0,0,1,2.34-.16,5.86,5.86,0,0,0,2.49.33,6.28,6.28,0,0,0,2.5-.82,7,7,0,0,1,3.19-.73,1.68,1.68,0,0,0,0-1.09,5.39,5.39,0,0,1,0-2.4l-.75.48a18.64,18.64,0,0,1,.1-3.17l-1,.4A14.21,14.21,0,0,1,66.35,66a27.36,27.36,0,0,1,2-4.22,30.37,30.37,0,0,0,2.21-4.62,16.18,16.18,0,0,0,1-4.38,4.47,4.47,0,0,0-.49.25h0a2.23,2.23,0,0,1-2.6-.06h0a2.29,2.29,0,0,1-.87-2.27,2.77,2.77,0,0,1-.48-.11,3.89,3.89,0,0,1-2.24-2.48,2.62,2.62,0,0,1-.54-.5,1.42,1.42,0,0,1,.22-2.11c.13-.09.22-.17.33-.26h0A14.37,14.37,0,0,1,66.58,44h0a4.7,4.7,0,0,0,2.14-2.24,5.61,5.61,0,0,1,1-1.61,8.82,8.82,0,0,1,3.37-2.07Z"/><path id="path16" class="cls-6" d="M72.06,52.64a16.54,16.54,0,0,1-1,4.7A31.79,31.79,0,0,1,68.79,62a26.49,26.49,0,0,0-2,4.15,13.45,13.45,0,0,0-.84,4.27L67,70a21,21,0,0,0-.23,3.07l1.13-.72a6.29,6.29,0,0,0-.34,3.38c.1.6.07.92.13,1.19a4.18,4.18,0,0,0,.74,1.33,4.88,4.88,0,0,0,1.88,1.95c.62,0,1.25-.06,1.87-.07a2.41,2.41,0,0,1,.89-2.21,3.08,3.08,0,0,0-.39,2.2l1.55,0a2.56,2.56,0,0,1,2-2.63,2.9,2.9,0,0,0-1.42,3l-.05.06a42.34,42.34,0,0,0-9.74.76c-1,.24-2.07.68-3.13.82a6.1,6.1,0,0,1-1.43,0,10.1,10.1,0,0,0-4.35.33A3.68,3.68,0,0,0,53.76,86a4.68,4.68,0,0,0,.85,2.49,1.27,1.27,0,0,0,1,.7,1.77,1.77,0,0,0,.79-.16,2.61,2.61,0,0,1-.59-1.3,3.44,3.44,0,0,1,0-.9,1.64,1.64,0,0,1,.09-.44c.19-.57.63-.24.49,0a1.36,1.36,0,0,0-.12.46,3.67,3.67,0,0,0,0,.8,2.35,2.35,0,0,0,.86,1.44,2.72,2.72,0,0,0,.9.49,2.27,2.27,0,0,0,1,.09,2.78,2.78,0,0,0,1.74-1.09,5,5,0,0,0,3.14-1.07A1.54,1.54,0,0,1,65.37,87a6.93,6.93,0,0,1,1,.12c.57.11,1.1.23,1.63.36h0A24.46,24.46,0,0,0,70.7,88c1.26.15,2.51.28,3.76.37s2.51.16,3.76.17c1.51,0,3,0,4.54,0s3,0,4.55-.08c1.25,0,2.73.26,3.9-.17,1.68-.61.66-3.1.26-4.19l1,.13a8.25,8.25,0,0,0-1.78-4.09,4.46,4.46,0,0,1,1.64-.64,16,16,0,0,0-3.37-3,7,7,0,0,1,1.66-.88c-.77-.69-1.89-1.64-2.65-2.18a8.3,8.3,0,0,1,3.58,2.39,8.54,8.54,0,0,0-.9.27h0a4.77,4.77,0,0,0-.85.41,16.48,16.48,0,0,1,3.35,3.27,5.29,5.29,0,0,0-1.81.48A8.55,8.55,0,0,1,93,84.77l-.84-.1c.11.32.2.63.27.91a46.4,46.4,0,0,1,6.35.11A4,4,0,0,1,99.88,83a6.62,6.62,0,0,1,4-2.24,10.25,10.25,0,0,1,3.4.07c-2.55-1.79-4-3.65-4.39-5.62a8.44,8.44,0,0,1,2.55-7.63c-1.65,2.34-2.56,5.43-2.1,7.53.73,3.25,3.82,5.13,6.44,6.77a14.38,14.38,0,0,0-5.82-.66,6.19,6.19,0,0,0-3.74,2.09,3.54,3.54,0,0,0-1,2.63,5.88,5.88,0,0,0,.93,2.63,1.87,1.87,0,0,0,1.26.91.83.83,0,0,0,.7-.15,1,1,0,0,1-.1-.17,2.51,2.51,0,0,1-.28-1.28,3.32,3.32,0,0,1,.14-.74c.17-.48.6-.22.51,0a2.21,2.21,0,0,0-.18.78,2,2,0,0,0,.22,1,1.61,1.61,0,0,0,.7.69,1.73,1.73,0,0,0,1.12.12,2.06,2.06,0,0,0,1.19-.72,1.88,1.88,0,0,1-.18-.24h0a2.06,2.06,0,0,1-.26-1.24c0-.49.52-.39.47-.06a1.71,1.71,0,0,0,.19,1.06h0a1.07,1.07,0,0,0,.42.4.85.85,0,0,0,.54.1c.67-.08.89-.69,1.3-1.11a1.32,1.32,0,0,1,.67-.4h0A10.22,10.22,0,0,1,112,88c.56.12,1.07.23,1.44.28,1.19.15,2.39.3,3.6.43s2.39.24,3.59.32h0l1.18.09a20.28,20.28,0,0,0,4.53.05,2,2,0,0,0,1.38-.82h0a3.18,3.18,0,0,0,.56-1.44,6.24,6.24,0,0,0,0-1.83,9.62,9.62,0,0,0-2-4.28c-.25-.33.08-.4.34-.15a7.68,7.68,0,0,1,1.32,2h0c1.4-.82,1.14-2.86.54-3.75-.26-.4.24-.27.4,0a3.76,3.76,0,0,1,.54,1.79,16.78,16.78,0,0,0,6.44,1.3c.43,0,.87,0,1.3,0a11.35,11.35,0,0,0,1.21-.18h0a4.18,4.18,0,0,0,2-1,5,5,0,0,0,1.36-2,1.87,1.87,0,0,0,.17-.86.87.87,0,0,0-.21-.5,1.26,1.26,0,0,0-.5-.34,4.8,4.8,0,0,0-2.13-.18,11.13,11.13,0,0,1-7.26-1.73,30.47,30.47,0,0,1-6.27-5.73c-3.61-4-7.32-6.39-11-7a11.68,11.68,0,0,0-4.25.07h0a26.31,26.31,0,0,1-5.23.55,24.4,24.4,0,0,1-5.37-.62,23.88,23.88,0,0,0-2.91-.49,26,26,0,0,0-2.92-.14A10.67,10.67,0,0,1,91,61.41,7.76,7.76,0,0,1,88.2,60a6.85,6.85,0,0,0-1.73-1,3.54,3.54,0,0,0-1.65-.26l-.2,0-.05-.19a12.92,12.92,0,0,1-.4-3.86,26.72,26.72,0,0,1,.51-3.89,5.94,5.94,0,0,1,1.19.13,13,13,0,0,0-1.16-3.48,4.78,4.78,0,0,1,1.25.18,5.11,5.11,0,0,0-1.28-2.22,3.44,3.44,0,0,1,1.09-.28A8.72,8.72,0,0,0,84,43l1.26-.29A15.42,15.42,0,0,0,82.32,40h0a26.87,26.87,0,0,1-3.4-3.43h0c-.85-1.14-1.52-2.4-2.38-3.53a6,6,0,0,0-.07,4.29,3.09,3.09,0,0,0,2,2.55c.8.24.71,1.08.15,1.6-1.14,1-4.3.51-2.65-1,.45-.42.4-.92.2-1.55a7.77,7.77,0,0,1-.24-1,13.06,13.06,0,0,0-2.66.65,8.28,8.28,0,0,0-3.18,1.93,5.57,5.57,0,0,0-1,1.49,5.11,5.11,0,0,1-2.32,2.45h0a16,16,0,0,0-1.63,1.21h0l-.32.27a1,1,0,0,0-.16,1.45,2.28,2.28,0,0,0,.42.39h.05l.13,0a.58.58,0,0,0,.35-.19c.28-.28.75-.22.43.21a1.14,1.14,0,0,1-.68.44,3.3,3.3,0,0,0,1.86,2,3.36,3.36,0,0,0,2.31-.25c.44-.19.73.18.43.32a4.89,4.89,0,0,1-1.93.5,1.83,1.83,0,0,0,.68,1.88h0a1.84,1.84,0,0,0,.57.3,1.79,1.79,0,0,0,1.5-.26h0a3.64,3.64,0,0,1,.59-.3,3.73,3.73,0,0,1,.67-.21,9.37,9.37,0,0,1,4.6.34c1.27.36,2.62.84,3.93.37a3.43,3.43,0,0,1-.64-1,7,7,0,0,0,1.19-.23h0a2.57,2.57,0,0,1-.69-.88c.23-.27.5-.49.75-.74A13.23,13.23,0,0,0,79,49.31l.15-.3h0A8,8,0,0,1,80,47.68a15.25,15.25,0,0,0-2,0h-.59a5.39,5.39,0,0,1,1-1.52l-.13-.05h0a6.74,6.74,0,0,0-3.24-.27,4.41,4.41,0,0,1,3.4-.17h0a3.31,3.31,0,0,1,.47.22h0l.27.15a6.46,6.46,0,0,0-1,1.16,14.89,14.89,0,0,1,2.75.17,10.54,10.54,0,0,0-1.15,1.59c.82.17,1.52.58,2.36.72a6.8,6.8,0,0,1-1,1.13,2.53,2.53,0,0,0,.43.45h0a6.54,6.54,0,0,0,.69.48,6.68,6.68,0,0,1-1.47.49,5.26,5.26,0,0,0,.75.81c-1.72.81-3.13.43-4.86-.07a8.7,8.7,0,0,0-4.52-.3Zm-5,24.75h0a6.49,6.49,0,0,0-3,.67,6.79,6.79,0,0,1-2.68.87,6.11,6.11,0,0,1-2.68-.36,2.49,2.49,0,0,0-1.66,0l-.31.13a2.2,2.2,0,0,0-.3.19h0a9.24,9.24,0,0,0-1.35,1.2A11.89,11.89,0,0,0,54,81.46a2.39,2.39,0,0,0-.33,2,1.33,1.33,0,0,0,.16.34,3.84,3.84,0,0,1,2.06-1.73,10.64,10.64,0,0,1,4.56-.37,5.85,5.85,0,0,0,1.33,0,30.41,30.41,0,0,0,3.08-.82,28.53,28.53,0,0,1,4.61-.61A6.57,6.57,0,0,1,68,78.52a3.1,3.1,0,0,0-1-1.13Zm8.59-42.67a7.51,7.51,0,0,0-1.07-1.43,14.75,14.75,0,0,0-.87,3.41c-.06.4-.1.82-.12,1.23a14,14,0,0,1,2.23-.5,18.52,18.52,0,0,1-.17-2.71Z"/><path id="path18" class="cls-5" d="M125.16,85.12c.16.92-.17,1.44-.72,1.66a3.73,3.73,0,0,1-2,0,11.15,11.15,0,0,0-1.9-.27,5,5,0,0,1,2.19-.25,2.48,2.48,0,0,0,1.69-.19c.6-.44.1-1.69-.11-2.48a3.08,3.08,0,0,1,.89,1.49Z"/><path id="path20" class="cls-5" d="M69.31,44.38a1.16,1.16,0,0,1,1.15-.79,10.85,10.85,0,0,0,1.71,0,5.68,5.68,0,0,0,1.07-.18.84.84,0,0,1-.55.58,1.34,1.34,0,0,1-.37,1.16h0a1.39,1.39,0,0,1-.83.38,1.31,1.31,0,0,1-1-.37,1.48,1.48,0,0,1-.43-1.06,1.29,1.29,0,0,0-.74.27Zm1.21-.32a1.06,1.06,0,0,0,.23.72.84.84,0,0,0,.74.29.86.86,0,0,0,.73-1A10.72,10.72,0,0,1,70.52,44.06Z"/><circle id="circle22" class="cls-5" cx="68.89" cy="48.82" r="0.32"/><circle id="circle24" class="cls-5" cx="68.22" cy="47.98" r="0.32"/><circle id="circle26" class="cls-5" cx="69" cy="47.22" r="0.32"/><circle id="circle28" class="cls-5" cx="67.25" cy="48.41" r="0.32"/><ellipse id="ellipse30" class="cls-5" cx="85.97" cy="69.04" rx="0.66" ry="0.55"/><ellipse id="ellipse32" class="cls-5" cx="69.43" cy="74.56" rx="0.66" ry="0.55"/><ellipse id="ellipse34" class="cls-5" cx="83.56" cy="71.41" rx="0.66" ry="0.55"/><ellipse id="ellipse36" class="cls-5" cx="88.23" cy="71.25" rx="0.66" ry="0.55"/><ellipse id="ellipse38" class="cls-5" cx="75.21" cy="74.56" rx="0.66" ry="0.55"/><ellipse id="ellipse40" class="cls-5" cx="73.63" cy="76.35" rx="0.66" ry="0.55"/><ellipse id="ellipse42" class="cls-5" cx="79.09" cy="72.83" rx="0.66" ry="0.55"/><ellipse id="ellipse44" class="cls-5" cx="95.64" cy="74.04" rx="0.66" ry="0.55"/><ellipse id="ellipse46" class="cls-5" cx="99.21" cy="74.09" rx="0.66" ry="0.55"/><ellipse id="ellipse48" class="cls-5" cx="106.51" cy="75.14" rx="0.66" ry="0.55"/><ellipse id="ellipse50" class="cls-5" cx="118.96" cy="69.94" rx="0.66" ry="0.55"/><ellipse id="ellipse52" class="cls-5" cx="123.89" cy="71.46" rx="0.66" ry="0.55"/><ellipse id="ellipse54" class="cls-5" cx="121.11" cy="71.46" rx="0.66" ry="0.55"/><ellipse id="ellipse56" class="cls-5" cx="117.49" cy="72.51" rx="0.66" ry="0.55"/><ellipse id="ellipse58" class="cls-5" cx="114.65" cy="73.35" rx="0.66" ry="0.55"/><ellipse id="ellipse60" class="cls-5" cx="109.03" cy="76.35" rx="0.66" ry="0.55"/><ellipse id="ellipse62" class="cls-5" cx="112.13" cy="75.51" rx="0.66" ry="0.55"/><ellipse id="ellipse64" class="cls-5" cx="109" cy="85.13" rx="0.89" ry="0.75"/><ellipse id="ellipse66" class="cls-5" cx="109.84" cy="79.24" rx="0.89" ry="0.75"/><ellipse id="ellipse68" class="cls-5" cx="91.25" cy="72.57" rx="0.89" ry="0.75"/><ellipse id="ellipse70" class="cls-5" cx="97.45" cy="72.1" rx="0.89" ry="0.75"/><ellipse id="ellipse72" class="cls-5" cx="93.35" cy="75.83" rx="0.89" ry="0.75"/><ellipse id="ellipse74" class="cls-5" cx="97.87" cy="76.67" rx="0.89" ry="0.75"/><ellipse id="ellipse76" class="cls-5" cx="101.02" cy="78.66" rx="0.89" ry="0.75"/><ellipse id="ellipse78" class="cls-5" cx="97.87" cy="80.03" rx="0.89" ry="0.75"/><ellipse id="ellipse80" class="cls-5" cx="94.77" cy="78.98" rx="0.89" ry="0.75"/><ellipse id="ellipse82" class="cls-5" cx="95.24" cy="82.34" rx="0.89" ry="0.75"/><ellipse id="ellipse84" class="cls-5" cx="114.04" cy="85.34" rx="0.89" ry="0.75"/><ellipse id="ellipse86" class="cls-5" cx="117.56" cy="86.65" rx="0.89" ry="0.75"/><ellipse id="ellipse88" class="cls-5" cx="113.83" cy="82.34" rx="0.89" ry="0.75"/><ellipse id="ellipse90" class="cls-5" cx="117.93" cy="82.87" rx="0.89" ry="0.75"/><ellipse id="ellipse92" class="cls-5" cx="122.9" cy="81.49" rx="0.96" ry="0.81"/><ellipse id="ellipse94" class="cls-5" cx="125.95" cy="76.08" rx="0.96" ry="0.81"/><ellipse id="ellipse96" class="cls-5" cx="114.08" cy="79.02" rx="0.96" ry="0.81"/><ellipse id="ellipse98" class="cls-5" cx="119.49" cy="79.08" rx="0.96" ry="0.81"/><ellipse id="ellipse100" class="cls-5" cx="121.69" cy="76.71" rx="0.96" ry="0.81"/><ellipse id="ellipse102" class="cls-5" cx="118.98" cy="75.2" rx="0.89" ry="0.75"/><ellipse id="ellipse104" class="cls-5" cx="123.03" cy="74.04" rx="0.89" ry="0.75"/><ellipse id="ellipse106" class="cls-5" cx="124.13" cy="78.61" rx="0.89" ry="0.75"/><ellipse id="ellipse108" class="cls-5" cx="105.72" cy="72.09" rx="0.66" ry="0.55"/><ellipse id="ellipse110" class="cls-5" cx="108.56" cy="72.14" rx="0.66" ry="0.55"/><ellipse id="ellipse112" class="cls-5" cx="87.82" cy="81.7" rx="0.96" ry="0.81"/><ellipse id="ellipse114" class="cls-5" cx="80.62" cy="76.4" rx="0.96" ry="0.81"/><ellipse id="ellipse116" class="cls-5" cx="71.91" cy="85.28" rx="0.96" ry="0.81"/><ellipse id="ellipse118" class="cls-5" cx="77.89" cy="85.85" rx="0.96" ry="0.81"/><ellipse id="ellipse120" class="cls-5" cx="83.78" cy="85.8" rx="0.96" ry="0.81"/><ellipse id="ellipse122" class="cls-5" cx="86.87" cy="77.97" rx="0.96" ry="0.81"/><ellipse id="ellipse124" class="cls-5" cx="69.82" cy="77.4" rx="0.89" ry="0.75"/><ellipse id="ellipse126" class="cls-5" cx="85.11" cy="73.3" rx="0.89" ry="0.75"/><ellipse id="ellipse128" class="cls-5" cx="78.7" cy="79.19" rx="0.89" ry="0.75"/><ellipse id="ellipse130" class="cls-5" cx="84.32" cy="80.55" rx="0.89" ry="0.75"/><ellipse id="ellipse132" class="cls-5" cx="87.79" cy="85.13" rx="0.89" ry="0.75"/><ellipse id="ellipse134" class="cls-5" cx="80.38" cy="83.02" rx="0.89" ry="0.75"/><ellipse id="ellipse136" class="cls-5" cx="74.55" cy="82.87" rx="0.89" ry="0.75"/><ellipse id="ellipse138" class="cls-5" cx="69.14" cy="83.39" rx="0.89" ry="0.75"/><ellipse id="ellipse140" class="cls-5" cx="115.94" cy="76.31" rx="0.89" ry="0.75"/></g><g id="Warstwa_1"><path id="path10-2" data-name="path10" class="cls-3" d="M41.51,267.61V188.5c.06-18.54,11.88-30.59,29-39.28a88.38,88.38,0,0,1,11.33-5h0c5.8-2.12,11.94-5.37,15.24-8.92l.81-.87.82.88c3.35,3.66,9,6.64,14.47,8.83h0c3.71,1.52,7.91,2.81,12.23,5,17.07,8.49,28.69,20.92,28.68,39.36v79.11Z"/><path id="path10_0" data-name="path10 0" class="cls-7" d="M118.15,148.45l-1.4-.53-.22,29.21h0v.79a25.61,25.61,0,0,1-2.77,9.43,34.92,34.92,0,0,1-5.78,8.54c-2.74,2.91-6.1,5.44-10.2,5.85h0a15.26,15.26,0,0,1-8.32-4.28,34.15,34.15,0,0,1-7.19-9.76A26.62,26.62,0,0,1,79,177.16l0-29.42-1.4.56,0,28.8a30.81,30.81,0,0,0,2.89,10.52A32.44,32.44,0,0,0,88,197.84a22.28,22.28,0,0,0,9.68,5.28,20.5,20.5,0,0,0,10.47-5,30.55,30.55,0,0,0,7.46-10.36,29.91,29.91,0,0,0,2.55-10.48l0-28.82Zm-2.36,28.68.22-29.49-1.3-.49-.06,28.72a25.09,25.09,0,0,1-2.88,10.61,30.83,30.83,0,0,1-6,8.17,19,19,0,0,1-8,4.86,18.6,18.6,0,0,1-6.94-3.85,27.36,27.36,0,0,1-6.37-8.3,25.68,25.68,0,0,1-3-11.35l0-29.27-1.83.72,0,29.68A26.67,26.67,0,0,0,82.9,187.4,34.26,34.26,0,0,0,90,197a14.06,14.06,0,0,0,7.78,4c3.83-.4,7.18-2.83,9.69-5.61a35.33,35.33,0,0,0,5.62-8.29,23.55,23.55,0,0,0,2.73-10h0Zm-42.47,35.1h5.79v5.09H73.32Zm-11.75,5.09v-5.09H73v5.09Zm-6.11,0v-5.09H61.2v5.09ZM67.51,207h11.6v4.89H67.51Zm-12.05,0H67.14v4.89H55.46Zm84,10.71v5.08H127.9v-5.07Zm0-5.46v5.1h-5.66v-5.1Zm-23.06,10.54v-5.07h11.12v5.07ZM127.89,207h11.58v4.88H127.89V207Zm-11.48,0h11.11v4.88H116.41ZM91.6,217.68v5.08H85.45v-5.07Zm30.13-.36h-5.32v-5.1h5.32Zm.37-5.1h11.35v5.1H122.1v-5.1Zm-55,10.54H55.46v-5.08H67.1Zm42.81-5.08v5.08h-6.15v-5.07Zm-6.15-.36h-.37v5.44H92v-5.45H85.45v-5.09h24.46v5.1ZM73,150.39c1.41-.72,2.64-1.28,3.83-1.78v1.78ZM61.58,177.22h11.3v5H61.58v-5Zm0-10.47h11.3v5H61.58Zm-6.1,5.33H67.14v4.77H55.48v-4.77Zm-5.54,5.14H61.21v5H49.94Zm5.54,10.31v-4.91H67.14v4.91Zm6.1,5.43V187.9h11.3V193Zm-11.64,0V187.9H61.21V193Zm11.27,5.61v5.08H49.94v-5.08Zm11.67,0v5.08H61.58v-5.08Zm-17.4-.37v-4.87H67.14v4.87Zm29.63,5.45H73.25v-5.08H85.11Zm-6-5.45H67.51v-4.87h11.6v4.87Zm39.78-47.87v-1.6c1.27.49,2.56,1,3.84,1.6Zm15,26.9h11.49v5H133.84Zm-5.93-15.89h11.54v5H127.91Zm0,10.75h11.57v4.77H127.9Zm-5.86-16h11l.49.34V161H122Zm0,10.67h11.45v5H122v-5Zm0,10.5h11.44v5H122v-5Zm5.88,10.27v-4.88h11.55v4.88Zm5.91,5.47v-5.1h11.52V193ZM122,193v-5.1h11.43V193Zm11.44,5.58v5.1H122v-5.1Zm11.87,0v5.1h-11.5v-5.1Zm-17.43-.37v-4.84h11.56v4.84Zm-11.5-4.84h11.13v4.84H116.41ZM87.7,198.57a24.25,24.25,0,0,0,9.09,5.08H85.48v-5.08ZM83,193.33a29.08,29.08,0,0,0,4.33,4.87h-7.8v-4.87Zm-3.19-5.43A38,38,0,0,0,82.69,193H73.25V187.9Zm-2-5.31a30.52,30.52,0,0,0,1.82,4.94H67.51v-4.91H77.77Zm-.94-5.37a28.58,28.58,0,0,0,.85,5H73.25v-5Zm0-5.14v4.77H67.51v-4.77Zm0-5.33v5H73.25v-5Zm0-5.4v5H67.51v-5Zm0-5.28V161H73.25v-4.92Zm-9.34-2.73q2-1.11,4-2.16h0l.76-.41h4.55v5H67.51v-2.37Zm-3.9,2.37c1.14-.74,2.32-1.46,3.53-2.16v2.16Zm-2,1.37c.48-.34,1-.68,1.47-1h9.83V161H61.58Zm-5,3.91a55,55,0,0,1,4.62-3.65V161Zm-1.11,1,.7-.65h11v5H55.48Zm-4.07,4.38a42.24,42.24,0,0,1,3.7-4v4Zm-1.5,2c.38-.56.79-1.1,1.21-1.64H61.21v5H49.94v-3.32Zm-2.06,3.32c.53-1,1.1-1.91,1.72-2.83v2.83Zm-2.25,5.14a33.59,33.59,0,0,1,2-4.77h7.46v4.77Zm-1.36,5.4a35.19,35.19,0,0,1,1.23-5h4.1v5Zm-.5,5.28a38.6,38.6,0,0,1,.45-4.91H55.11v4.91Zm0,5.43v-4.45c0-.21,0-.41,0-.61h5.83V193Zm0,5.24v-4.87H55.11v4.87Zm0,5.45v-5.08h5.84v5.08Zm108.13-5.1v5.1h-6.15v-5.1Zm0-5.21v4.84h-12v-4.84Zm0-5.47V193h-6.15v-5.1Zm-.43-5.25a38.35,38.35,0,0,1,.42,4.88h-12v-4.88Zm-1.25-5.39a33.73,33.73,0,0,1,1.2,5H145.7v-5Zm-2.11-5.14a32.84,32.84,0,0,1,2,4.77H139.84v-4.77Zm-2.35-3.93a34.77,34.77,0,0,1,2.16,3.56h-2.16Zm-1-1.43c.23.3.46.6.67.91h0v4.08H133.84v-5Zm-4.86-5.32a41.66,41.66,0,0,1,4.58,5h-4.58Zm-6-4.77a54.69,54.69,0,0,1,5.5,4.33h-5.5Zm-6-3.68q2.37,1.31,4.54,2.73h-4.54V153Zm-9,2.73v-5h4.64l.89.43h0c1,.52,2.08,1.06,3.09,1.61v2.94Zm0,5.28v-4.91h2.77V161Zm0,5.39v-5h8.64v5Zm0,5.36v-5h2.75v5Zm0,5.14v-4.77h8.63v4.77Zm-.66,5.39a27.76,27.76,0,0,0,.67-5v-.05h2.74v5Zm-1.72,5.25a30.06,30.06,0,0,0,1.63-4.88h9.39v4.88ZM113.61,193a35.35,35.35,0,0,0,2.76-5.1h5.29V193Zm-4.42,5.21a27.48,27.48,0,0,0,4.17-4.84H116v4.84Zm.68,5.47H99.07a21.67,21.67,0,0,0,9.7-5.1h1.1Zm.37-5.1h11.42v5.1H110.24Zm6.07,43.22a2.42,2.42,0,0,1,.56-1.59,2.22,2.22,0,0,1,1.75-.72h18.5a2.22,2.22,0,0,1,1.75.72,2.39,2.39,0,0,1,.56,1.58H116.31Zm5.35,5.92v6.9H116.3v-6.9Zm8.85,0v6.89H125v-6.89Zm8.93,0v6.9h-5.6v-6.9Zm-5.6-.37v-5.19h5.6v5.19Zm-6,0v-5.19h5.58v5.19Zm-5.86,0v-5.19h5.49v5.19H122Zm-5.73,0v-5.19h5.36v5.19Zm15.36-19.16v-5h5.77v5Zm-12.93,0v-5h5.6v5Zm5.6,5.69v5.24h-5.6v-5.25Zm13.1,0v5.24h-5.76v-5.24Zm-8.92,0h2.79v5.24h-6.6v-5.24h2.09V236h1.72v-2.11Zm1.51-5.32h7.41v4.95h-8.92v-1.67a2.48,2.48,0,0,0,1.51-3.28Zm-4.58-.37h-.74v-5h6.59v5h-1.45a2.58,2.58,0,0,0-4.4,0Zm1.35,3.66h0v1.66h-8.06v-4.95h6.53a2.32,2.32,0,0,0-.18.92A2.51,2.51,0,0,0,126.79,231.82Zm-22.32,15.87h5.44V253h-5.44ZM90.88,253H85.45v-5.33h5.43V253Zm13.59,7.08v-6.71h5.44v6.71Zm-9.53,0v-6.71h5.58v6.71Zm-9.49,0v-6.71h5.43v6.71ZM97.61,253H91.25v-5.33h6.36Zm.37-5.33h6.13V253H98Zm9.62-2.76a2.31,2.31,0,0,1,1.72.72,2.58,2.58,0,0,1,.59,1.67H85.45a2.65,2.65,0,0,1,.61-1.69,2.2,2.2,0,0,1,1.61-.71Zm-10-16.77H88v-5h9.63Zm.37-5h9.36v5H98v-5Zm3.78,5.4h5.58v4.95h-5.58v-4.95Zm-8,4.95H88v-4.95h5.77Zm8,6h5.6v5.09h-5.6Zm-8,5.09H88v-5.09h5.79Zm4.9-5.09h2.7v5.09H94.15v-5.09H97v2.41h1.72Zm1.18-5.61h7.49v5.24H98.68v-1.37a2.51,2.51,0,0,0,1.18-3.87Zm-3.76-.37h-2v-4.95h7.27v4.95H99.51a2.56,2.56,0,0,0-3.41,0Zm.86,4.25h0v1.36H88v-5.24h7.76a2.46,2.46,0,0,0-.5,1.5A2.52,2.52,0,0,0,97,237.73Zm-27.08,10v6.9H64.41v-6.9Zm-14.42,6.9v-6.9h5.7v6.9Zm5.7-12.45v5.18h-5.7v-5.18Zm18,0v5.18H73.27v-5.18Zm-12,5.18H61.53v-5.18h5.56Zm.37-5.18h5.45v5.18H67.46v-5.18Zm5.81,12.45v-6.9h5.86v6.9ZM58.14,223.13h6v5h-6Zm18.55,5H70.3v-5h6.39v5Zm75.17-10.48v5.07H145.7v-5.07Zm0-5.46v5.1H145.7v-5.1Zm0-5.25v4.88h-12V207ZM43.73,206.6V204H151.86v2.58H107.52V207H116v4.88H79.49V207H88v-.37Zm0,5.26V207H55.1v4.89Zm0,5.46v-5.09h5.83v5.09Zm0,5.44v-5.07h5.83v5.08ZM70.3,233.85h6.39v5.24H70.3v-5.24Zm-6.22,5.24H58.14v-5.25h5.94v5.24Zm4.06-5.24h1.79v5.24H64.45v-5.24h2V236h1.72v-2.11Zm1.51-5.32h7v4.95H68.14v-1.66a2.52,2.52,0,0,0,1.69-2.37,2.32,2.32,0,0,0-.18-.92Zm-4.57-.37h-.61v-5h5.46v5h-.46a2.57,2.57,0,0,0-4.39,0Zm1.34,3.66h0v1.66H58.14v-4.95h6.75a2.49,2.49,0,0,0,1.53,3.29Zm-8.65,7.65a2.18,2.18,0,0,0-1.73.71,2.43,2.43,0,0,0-.58,1.59H79.13a2.48,2.48,0,0,0-.57-1.59,2.21,2.21,0,0,0-1.74-.72Zm9.7-21.79H79.11v5.08H67.47Z"/><path id="path10_1" data-name="path10 1" class="cls-8" d="M79.5,241.78V255H72.91v-7.26H70.24V255H64v-7.26H61.52V255H55.1V241.78a2.81,2.81,0,0,1,.67-1.83,2.59,2.59,0,0,1,2-.85h0v-16H55.1v-10.9H49.92v10.9H43.73v42.26H151.86V223.12h-6.52v-.37h0V212.22h-5.5v10.54h0v.37h-2v16h0v.08a2.49,2.49,0,0,1,1.35.78,2.81,2.81,0,0,1,.65,1.81V255h-6.33v-7.26h-2.59v6.89h0V255h-6.27v-7.25H122v6.9h0V255h-6.1V241.76a2.79,2.79,0,0,1,.65-1.83,2.51,2.51,0,0,1,1.77-.82h0v-16H116V212.22h-5.76v10.91h-2.56v21.43a2.56,2.56,0,0,1,1.88.86,3,3,0,0,1,.67,1.9v13.15H104.1v-7.08h-3.21v7.08H94.57v-7.08H91.25v7.08H85.08V247.32a2.88,2.88,0,0,1,.65-1.87,2.65,2.65,0,0,1,1.89-.89h0V223.13H85.08v-.37h0V212.23h-5.6v10.9H77.05v16h0a2.59,2.59,0,0,1,1.8.83,2.79,2.79,0,0,1,.65,1.85ZM114,146.87l-.06,29a26.08,26.08,0,0,1-2.83,10.32,30.25,30.25,0,0,1-5.79,7.91,17.73,17.73,0,0,1-7.48,4.64,17.08,17.08,0,0,1-6.64-3.82,26.85,26.85,0,0,1-6.05-8A26.21,26.21,0,0,1,82.28,176l0-29.56.32-.13c5.6-2,11.44-5,15.25-8.68,3.78,3.7,9.24,6.48,14.47,8.59.53.22,1.08.43,1.63.64Z"/><path id="path1021" class="cls-3" d="M107.1,181.41l2.7-1-2.15-2.59V160.37l3.42-3.16-.32-.16a10.3,10.3,0,0,1-4.9-6l-.09-.35L97.84,156l.55.9-.72.45.93,1.2,4.07-2.53c.3.64.75,1.86,2.1,1.87L102,160.64l-.06,4.69-3.71.75A31.34,31.34,0,0,1,91.6,152.8l-.09-.35-6.4,4,.43,1-.61.48.45,1.16,2.4-1.17a19.83,19.83,0,0,0,5.71,9.8l-2.65,1c-3.21,1.09-1.66,13.67,4.66,12.44l7.83-1.51,2,1.81h0l1.26-.55.53.56Z"/><path id="path1021_2" data-name="path1021 2" class="cls-7" d="M107.24,180.83l-2.75-2.91-.14,0c-1.15.23-3.57.91-5.91,1.38a21.74,21.74,0,0,1-3.26.46,6.44,6.44,0,0,1-.88,0,3,3,0,0,1-2-1,5.47,5.47,0,0,1-.87-1.41,13.21,13.21,0,0,1-.9-3.46,13.37,13.37,0,0,1,0-3.33,4,4,0,0,1,.25-1.08c.12-.26.25-.39.35-.42l4.62-1.68-.3-.28a22.26,22.26,0,0,1-6-11.11l-.07-.32-.3.16-2.91,1.59-.35-.85,5.43-3.35A31.62,31.62,0,0,0,98,166.52l.09.11,5.75-1.15,0-4.67,3-3-.35-.14a4.71,4.71,0,0,1-2.93-3.07l-.09-.33L99,156.91l-.51-.81,7-4.64a10.64,10.64,0,0,0,4.73,5.86l-3.07,2.85V178l1.83,2.2Z"/><path id="path1021_3" data-name="path1021 3" class="cls-9" d="M95.85,178.27a7.48,7.48,0,0,0,2.15-.21l3.58-.69,2.19-.44V166.61L95,168.86h0a1.77,1.77,0,0,0-1,1,6.46,6.46,0,0,0-.27.6l-.16.44a8,8,0,0,0,.78,6.47,2.36,2.36,0,0,0,1.62.92Z"/><path id="path1021_4" data-name="path1021 4" class="cls-10" d="M101.53,169,94,170.75a7.35,7.35,0,0,0,.61,6.3,1.65,1.65,0,0,0,1.25.71,7.23,7.23,0,0,0,2-.18l3.69-.72Z"/><path id="path1037" class="cls-11" d="M130,282.4c1.53,5.38-3.6,10.91-10.44,13.76A50.93,50.93,0,0,1,98.9,299.6c-.29-2.89-.15-5.6,1.72-7.54-.65-1.24-1.75-2.41-1.89-3.68,2.24,2,4.63,2.46,5.42-.46.17-2.08-1.55-4.18-.86-6.84-4,.79-2.08,2.83-3.08,4.14-1.84-3.42-1.48-9.55,3.35-7.63,1.67,1.72,2.34,3.35.78,4.74l2.27,5.86,1.22-5.7-1.22-1.41c-.14-2.06.12-3.66,1.06-4.64,4.27-1.05,5.59,3.66,3.84,6.68-1-.87.55-3-3.06-2.52,2.3,1.94-2.43,7.13,2.11,7.95,2.48,0,2.17-1.2,3.25-1.85l-.17,1.06-1.15,2.63,3.42,4.47,1.48-5.26-2.2-2.85-.5-.93c2.65,1.29,4.59.62,4.73-1.58-.09-1.65-2.39-3.49-2.29-5.53-2.94,1.41-.93,2.47-1.39,3.69-2.7-1.61-3.1-7.16.34-7.11,2.7.58,3.56,2.66,2.63,4.57l3,4.64,0-5.88c-1.84-1.53-.74-4.36,1.72-5.87,2-.31,3.58,1.7,3.89,3.67.27,1.55-1.34,2.82-.91,3.87-1.29-1.07.24-3.47-3.87-3.23,2.49,1.44-.28,5,1.68,7.71,2,1.84,3.91.26,5.87-2.37Zm-64-.24c-1.34,5.17,3.8,11.39,10.54,14.24,6.33,2.65,14.41,3.35,20.57,3.2.32-2.89-.19-5.69-2-7.63a9.64,9.64,0,0,0,2.23-3.59c-2.25,2-4.64,2.46-5.45-.46-.15-2.08,1.38-3.85.69-6.5,2.84.6,1.94,3.16,2.68,3.75,2.94-3.27,1.88-9.69-2.94-7.77a3.11,3.11,0,0,0-.6,4.93A47.24,47.24,0,0,0,89.36,288,21.07,21.07,0,0,0,88,281.87l1.1-.69a3.49,3.49,0,0,0-.93-4.21c-3.56-1-6,3.8-4.28,6.82,1-.82-.12-2.78,3.23-2.85-2.9,1.79,2.7,7-1.56,8-2.46,0-1.14-1.1-2.75-1.79l-.14,1.57.69,1.49-3.65,4.33-.74-5,1.45-1.41.75-1.6c-2.66,1.29-4.5.72-4.64-1.48s4.37-2.68,2.32-5.82c2.94,1.41,1.5,2.9,2,4.12,2.56-1.87,2.65-8.11-.79-8-2.7-.53-3.58,2.11-2.39,4.19a16.18,16.18,0,0,0-3.18,4.64l0-5.74c2.24-1.53,1.79-3.69-1.41-5.19-2-.82-4,1.1-4.31,3.23-.23,1.55.6,2.29.65,3.44,1.15-.6-.12-3,3.51-2.7-2.48,1.43,1.53,4.18-.4,6.94-2,1.84-4.4.69-6.36-1.94ZM97.2,311l1.29,0-.36-1.72,2.27.28,0-1-2.32,0,0-2.49h1a2.16,2.16,0,0,0,2.18-2.11h0A2.14,2.14,0,0,0,99,301.9h-.43v-.46c14.06-.16,24.29-3.66,31.36-9.9,2.41-3.16,4.52-2.18,6.48.52l.93.51-13.82-28.76c-8.67,2.1-16.6,3.54-24.52,3.68a94,94,0,0,1-25.85-3.61L58.08,292.69c2.36-.79,4.37-4.93,7.1-2.37,7.14,8,17.87,11.44,31.54,11.22v.36a2.12,2.12,0,0,0-2.08,2.1h0a2.16,2.16,0,0,0,2.18,2.11h.5l0,2.39-1.74-.19.05,1.08,1.64-.17L97.2,311Z"/><path id="path1013" class="cls-3" d="M98.48,220.25l-.18-.64.78.18v-1.5l-.9.25V218l.12,0a1.84,1.84,0,0,0,1.34-1.76v-.07a.65.65,0,0,0,.39.12l.15,0a.41.41,0,0,0,0,.11.74.74,0,0,0,.74.74.6.6,0,0,0,.3-.07.72.72,0,0,0,.74.69.78.78,0,0,0,.47-.16.74.74,0,0,0,.71.53.72.72,0,0,0,.61-.34.74.74,0,0,0,.63.34.72.72,0,0,0,.72-.55.72.72,0,0,0,.44.14.73.73,0,0,0,.74-.72.07.07,0,0,0,0,0l.21,0a.74.74,0,0,0,.74-.74.58.58,0,0,0,0-.26h.08a.75.75,0,0,0,.66-1.07.72.72,0,0,0,.63-.7.75.75,0,0,0-.32-.61.72.72,0,0,0,.46-.66.75.75,0,0,0-.31-.6.71.71,0,0,0,.33-.6.75.75,0,0,0-.37-.64.72.72,0,0,0,.28-.57.74.74,0,0,0-.46-.67.75.75,0,0,0,.18-.48.72.72,0,0,1-.44-1.13.7.7,0,0,0-.5-.68.71.71,0,0,0-.49-1.24.73.73,0,0,0-.46.16,2,2,0,0,0-.44-1.11,1.42,1.42,0,0,0-1.13-.48.33.33,0,0,0-.21,0c-.9.43-1.32.68-1.59.79a1.74,1.74,0,0,1-.93,0,1,1,0,0,0-.41.09,4.39,4.39,0,0,0-.44.21,6.19,6.19,0,0,1-.76.37.91.91,0,0,1-.56,0,2.23,2.23,0,0,0-.71,0,13.9,13.9,0,0,1-1.48.37,2.34,2.34,0,0,1-.7-.21,1.43,1.43,0,0,0-.78-.14,2.57,2.57,0,0,1-1.76-.37,2.17,2.17,0,0,0-1.47-.41,1.42,1.42,0,0,1-1.46-.21c-.15-.12-.28-.25-.46-.37a1.28,1.28,0,0,0-.69-.21,1.32,1.32,0,0,0-1,.56,2,2,0,0,0-.39,1,.75.75,0,0,0-.42-.13.71.71,0,0,0-.5,1.24.72.72,0,0,0-.51.68.66.66,0,0,0,.15.43.71.71,0,0,0-.59.7.75.75,0,0,0,.18.48.74.74,0,0,0-.44.67.72.72,0,0,0,.27.56.76.76,0,0,0-.38.65.7.7,0,0,0,.35.6.75.75,0,0,0-.31.6.72.72,0,0,0,.45.65.75.75,0,0,0-.33.62.73.73,0,0,0,.64.71.67.67,0,0,0-.09.33.74.74,0,0,0,.74.73h.08a.58.58,0,0,0,0,.26.74.74,0,0,0,.74.74l.21,0a.07.07,0,0,0,0,0,.73.73,0,0,0,.74.72.77.77,0,0,0,.44-.14.72.72,0,0,0,.72.55.75.75,0,0,0,.63-.34.72.72,0,0,0,.61.34.74.74,0,0,0,.71-.53.76.76,0,0,0,.47.16.72.72,0,0,0,.74-.69.6.6,0,0,0,.3.07.74.74,0,0,0,.74-.74.78.78,0,0,0,0-.22.64.64,0,0,0,.28.06.79.79,0,0,0,.35-.09v.11A1.82,1.82,0,0,0,97.26,218l.14,0v.53l-.88-.25v1.48l.72-.19-.23.67Z"/><path id="path1013_5" data-name="path1013 5" class="cls-11" d="M94.69,215.64l.15-.14a.58.58,0,0,0,0,.19Zm.84-.9.09-.12a.61.61,0,0,0,0,.12h-.14Zm.68-1c0-.08.08-.16.13-.24a.9.9,0,0,0,.08.23h-.21Zm.85-1.92c.15-.36.3-.75.41-1.06s.21-.57.28-.85c.09.34.22.7.33,1s.25.63.39,1a1.4,1.4,0,0,0-.75-.22A1.35,1.35,0,0,0,97.06,211.81Zm-9.52.34a.47.47,0,0,1-.49-.46.49.49,0,0,1,.49-.49.48.48,0,0,1,.48.49A.46.46,0,0,1,87.54,212.15ZM87.6,210a.77.77,0,0,0,.26.07h0a.49.49,0,0,1,.28.41.47.47,0,0,1-.49.47.47.47,0,0,1-.48-.47.47.47,0,0,1,.43-.48Zm.31-.19a.49.49,0,0,1-.49-.48.47.47,0,0,1,.49-.46.46.46,0,0,1,.48.46A.48.48,0,0,1,87.91,209.81Zm.44-1.15a.46.46,0,1,1,0-.92.46.46,0,1,1,0,.92Zm.27-1.2a.48.48,0,0,1-.48-.46.47.47,0,0,1,.48-.46.46.46,0,0,1,.42.27.43.43,0,0,1,0,.19A.45.45,0,0,1,88.62,207.46Zm8,6.59.14.15a.48.48,0,0,1,.07.23.41.41,0,0,1,0,.23h0l-.26.2h0a.48.48,0,0,1-.65-.44.47.47,0,0,1,.49-.46.53.53,0,0,1,.27.08Zm.46.39.1,0-.1,0Zm-.82.72h0Zm-.2.36c0,.07,0,.14-.07.21a.42.42,0,0,1-.13.14.64.64,0,0,1-.28.06.46.46,0,0,1-.48-.46.48.48,0,0,1,.48-.48.49.49,0,0,1,.49.48A.07.07,0,0,1,96.05,215.52Zm-1.47,1.32a.49.49,0,0,1-.48-.49.46.46,0,0,1,.48-.46.47.47,0,0,1,.49.46A.5.5,0,0,1,94.58,216.84Zm-1,.62a.46.46,0,0,1-.48-.46.48.48,0,0,1,.48-.49A.49.49,0,0,1,94,217,.47.47,0,0,1,93.54,217.46Zm-1.18.37a.48.48,0,0,1-.48-.49.46.46,0,0,1,.48-.46.47.47,0,0,1,.49.46A.49.49,0,0,1,92.36,217.83Zm-1.24,0a.47.47,0,0,1-.49-.46.49.49,0,0,1,.49-.49.48.48,0,0,1,.48.49A.46.46,0,0,1,91.12,217.83ZM90,217.41a.46.46,0,0,1-.48-.46.42.42,0,0,1,.1-.28l0,0a.46.46,0,0,1,.36-.17.49.49,0,0,1,.49.48.47.47,0,0,1-.49.46Zm-.94-.74a.49.49,0,0,1-.49-.48.47.47,0,0,1,.49-.46.46.46,0,0,1,.48.46A.48.48,0,0,1,89,216.67Zm-.77-1a.48.48,0,0,1-.48-.48.47.47,0,0,1,.18-.37.6.6,0,0,0,.16-.08h0l0,0h.11a.47.47,0,0,1,.49.47.49.49,0,0,1-.49.48Zm-.55-1.06a.47.47,0,0,1-.49-.46.49.49,0,0,1,.49-.49.48.48,0,0,1,.48.49A.46.46,0,0,1,87.7,214.62Zm-.12-1.27a.46.46,0,0,1-.48-.46.48.48,0,0,1,.48-.49.49.49,0,0,1,.49.49A.47.47,0,0,1,87.58,213.35Zm11.23-4a3.72,3.72,0,0,0-1-.32,2.59,2.59,0,0,0-.8.16,1.68,1.68,0,0,1-.67.11,1.91,1.91,0,0,1-1.41-.74.56.56,0,0,0-.42-.13,1.16,1.16,0,0,0-.41.09,2.68,2.68,0,0,1-.7.23,1.18,1.18,0,0,1-.69-.19,3.81,3.81,0,0,1-.74-.64.52.52,0,0,0-.34-.16,1.14,1.14,0,0,0-.37,0,2.94,2.94,0,0,1-.7.12,1.22,1.22,0,0,1-1-.44,1.52,1.52,0,0,1-.28-1,1.85,1.85,0,0,1,.35-1,1,1,0,0,1,.83-.44.8.8,0,0,1,.53.16,4.55,4.55,0,0,1,.44.37,1.78,1.78,0,0,0,1.69.25c.38-.09.78.14,1.29.4a2.93,2.93,0,0,0,1.92.37,1.3,1.3,0,0,1,.64.13,2.24,2.24,0,0,0,.79.23,8.81,8.81,0,0,0,1.5-.39,1.82,1.82,0,0,1,.65,0,1.35,1.35,0,0,0,.67,0,6.37,6.37,0,0,0,.8-.39,3.7,3.7,0,0,1,.42-.19.86.86,0,0,1,.3-.06,2,2,0,0,0,1-.05c.32-.12.7-.36,1.59-.79t.12,0a1.12,1.12,0,0,1,.92.42,1.59,1.59,0,0,1,.39,1,1.44,1.44,0,0,1-.27,1,1.3,1.3,0,0,1-1,.51,1.62,1.62,0,0,1-.67-.23.83.83,0,0,0-.39-.09.69.69,0,0,0-.46.21,8.4,8.4,0,0,0-.6.62.93.93,0,0,1-.7.28,1.88,1.88,0,0,1-.69-.19,2.85,2.85,0,0,0-.46-.18.38.38,0,0,0-.3,0,.77.77,0,0,0-.19.21,2.15,2.15,0,0,1-.62.64,1,1,0,0,1-1,.05Zm.46-.37a1,1,0,0,0,0-1.94,1,1,0,1,0,0,1.94Zm-3,0a1,1,0,0,0,0-1.94,1,1,0,1,0,0,1.94Zm5.85-.65a1,1,0,0,0,1-1,1,1,0,0,0-1.94,0A1,1,0,0,0,102.09,208.31Zm-8.69,0a1,1,0,0,0,1-1,1,1,0,0,0-1-.94,1,1,0,0,0-1,.94A1,1,0,0,0,93.4,208.31Zm11.46-.83a1,1,0,0,0,1-.94,1,1,0,0,0-1.94,0A1,1,0,0,0,104.86,207.48Zm-14.27,0a1,1,0,0,0,1-.94,1,1,0,0,0-1.94,0A1,1,0,0,0,90.59,207.48Zm8.72,7.68.13,0a.61.61,0,0,0-.07.14Zm.45-.3a.88.88,0,0,0,.11-.24l.14.18A.92.92,0,0,0,99.76,214.86Zm-.47-1.13H99a1.19,1.19,0,0,0,.1-.32C99.18,213.52,99.23,213.63,99.29,213.73Zm-.88.68v0s0,0,0,.07l-.11,0,.1-.05Zm.74.51H99.1a2.19,2.19,0,0,0-.39-.29.41.41,0,0,1,0-.19.46.46,0,0,1,.48-.46.5.5,0,0,1,.39.18l0,.07a.54.54,0,0,1,0,.21.49.49,0,0,1-.49.49Zm-1.43-.58a1.23,1.23,0,1,1,1.18-1.22A1.2,1.2,0,0,1,97.72,214.34Zm4.4,2.2.06,0a.5.5,0,0,1,.25.43.46.46,0,0,1-.48.46.47.47,0,0,1-.49-.46.49.49,0,0,1,.49-.49.47.47,0,0,1,.17,0Zm4.77-9.08a.48.48,0,0,1-.49-.46.47.47,0,0,1,.49-.46.45.45,0,0,1,.46.46A.46.46,0,0,1,106.89,207.46Zm.28,1.2a.46.46,0,1,1,0-.92.46.46,0,0,1,0,.92Zm.41,1.15a.48.48,0,0,1-.48-.48.46.46,0,0,1,.48-.46.47.47,0,0,1,.49.46A.49.49,0,0,1,107.58,209.81Zm.28,1.14a.47.47,0,0,1-.49-.47.46.46,0,0,1,.38-.47.49.49,0,0,1,.59.47A.47.47,0,0,1,107.86,211Zm.09,1.2a.45.45,0,0,1-.46-.46.47.47,0,0,1,.46-.49.49.49,0,0,1,.49.49A.47.47,0,0,1,108,212.15Zm0,1.2a.47.47,0,0,1-.49-.46.49.49,0,0,1,.49-.49.48.48,0,0,1,.48.49A.46.46,0,0,1,107.93,213.35Zm-.58,1.38a.61.61,0,0,0,.23.11.51.51,0,0,1,.14.36.48.48,0,0,1-.48.48.49.49,0,0,1-.49-.48.47.47,0,0,1,.49-.47Zm.44-.11a.46.46,0,0,1-.48-.46.48.48,0,0,1,.48-.49.49.49,0,0,1,.49.49A.47.47,0,0,1,107.79,214.62Zm-1.32,2a.46.46,0,0,1-.46-.48.45.45,0,0,1,.46-.46.47.47,0,0,1,.49.46A.49.49,0,0,1,106.47,216.67Zm-.94.74A.47.47,0,0,1,105,217a.49.49,0,0,1,1,0A.46.46,0,0,1,105.53,217.41Zm-1.16.42a.46.46,0,0,1-.48-.46.48.48,0,0,1,.48-.49.49.49,0,0,1,.49.49A.47.47,0,0,1,104.37,217.83Zm-1.24,0a.48.48,0,0,1-.49-.49.49.49,0,0,1,1,0A.48.48,0,0,1,103.13,217.83Zm-2.22-1a.5.5,0,0,1-.49-.49.47.47,0,0,1,.49-.46.46.46,0,0,1,.48.46A.49.49,0,0,1,100.91,216.84ZM100,216a.46.46,0,0,1-.35-.16,1.21,1.21,0,0,0-.11-.32.47.47,0,0,1,.46-.46.49.49,0,0,1,.49.48.47.47,0,0,1-.49.46Zm-1.87,4h-.78l.25-.76-.86.2v-.8l.88.23V218a.2.2,0,0,0,0-.12.86.86,0,0,0-.28-.11,1.58,1.58,0,0,1,.44-3.1,1.55,1.55,0,0,1,1.61,1.57,1.6,1.6,0,0,1-1.15,1.53.56.56,0,0,0-.28.13.33.33,0,0,0,0,.12v.88l.9-.26v.86l-.9-.21.23.74Z"/><path id="path1013_6" data-name="path1013 6" class="cls-8" d="M105.7,208l.11-.07c.12.39.24.78.36,1.11a7.6,7.6,0,0,1,.37,4.21,3.62,3.62,0,0,1-1.84,2.63,2.53,2.53,0,0,1-1.46.18A2.18,2.18,0,0,1,103,216a2.68,2.68,0,0,0,1.48-.18,3.64,3.64,0,0,0,1.89-2.66A7.49,7.49,0,0,0,106,209C105.91,208.73,105.81,208.36,105.7,208Zm-6.36,1.67a1.1,1.1,0,0,0,.62-.19,2.34,2.34,0,0,0,.67-.71.46.46,0,0,1,.12-.14s0,0,.09,0,.21.12.41.21a2.49,2.49,0,0,0,.81.18,1.17,1.17,0,0,0,.86-.35c.21-.19.38-.44.6-.62a.53.53,0,0,1,.3-.14,1,1,0,0,1,.3.09,1.47,1.47,0,0,0,.78.23,1.71,1.71,0,0,0,.58-.12c.1.34.2.67.3,1a7.18,7.18,0,0,1,.35,4,3.44,3.44,0,0,1-1.76,2.5,2.8,2.8,0,0,1-2.79-.42A6.52,6.52,0,0,1,99.32,212a15.27,15.27,0,0,1-.82-2.31s0-.15,0-.23l.26.09a2,2,0,0,0,.6.12Zm6.75-2c.13.41.25.85.38,1.2a8.27,8.27,0,0,1,.4,4.55,3.88,3.88,0,0,1-2,2.84,2.8,2.8,0,0,1-1.59.21,4,4,0,0,1-1.62-.67,6.73,6.73,0,0,1-1.5-1.55,8.56,8.56,0,0,1-1.11-2c-.17-.47-.42-1-.62-1.6a3.93,3.93,0,0,1-.26-1.26h0c0,.12,0,.29,0,.32a13.16,13.16,0,0,0,.82,2.41s0,.1,0,.14a7,7,0,0,0,2.49,3.39,3.73,3.73,0,0,0,1.59.67,2.74,2.74,0,0,0,1.6-.18,3.81,3.81,0,0,0,2-2.79,7.81,7.81,0,0,0-.37-4.35c-.12-.34-.24-.8-.38-1.23l.07-.08Zm-9.16,1.8h0a3.63,3.63,0,0,1-.23,1.18c-.19.52-.41,1-.58,1.5a6.89,6.89,0,0,1-2.4,3.28,3.75,3.75,0,0,1-1.48.64,2.6,2.6,0,0,1-1.48-.18s-.05-.07-.09-.09a3.16,3.16,0,0,0,3-.44A6.74,6.74,0,0,0,96,212.1c.14-.39.35-.87.53-1.36a4.15,4.15,0,0,0,.27-1.25h.09Zm-.3.06a4.88,4.88,0,0,1-.29,1.12c-.18.47-.39.95-.54,1.36a6.61,6.61,0,0,1-2.28,3.14,2.82,2.82,0,0,1-2.8.42,3.43,3.43,0,0,1-1.75-2.5,6.18,6.18,0,0,1-.07-2.1,7.94,7.94,0,0,1,.44-1.92c.12-.34.23-.75.36-1.15a1.55,1.55,0,0,0,.84.25,2.53,2.53,0,0,0,.78-.14,1,1,0,0,1,.28,0,.32.32,0,0,1,.19.07,3.85,3.85,0,0,0,.78.69,1.51,1.51,0,0,0,.83.23,2.43,2.43,0,0,0,.79-.25.84.84,0,0,1,.32-.07.28.28,0,0,1,.23.07,2.31,2.31,0,0,0,1.57.81,1.13,1.13,0,0,0,.32,0Zm.66-.17h0a4.24,4.24,0,0,1-.28,1.3c-.2.55-.45,1.1-.62,1.57a8.56,8.56,0,0,1-1.11,2,6.47,6.47,0,0,1-1.48,1.55,4.11,4.11,0,0,1-1.64.67,2.75,2.75,0,0,1-1.57-.21,3.9,3.9,0,0,1-2-2.84,8.27,8.27,0,0,1,.4-4.55c.13-.36.27-.8.41-1.22l.07.08c-.15.44-.29.9-.42,1.25,0,0,0,0,0,0a8.29,8.29,0,0,0-.48,2.12,7.24,7.24,0,0,0,.12,2.2,3.81,3.81,0,0,0,2,2.79,2.72,2.72,0,0,0,1.59.18,3.71,3.71,0,0,0,1.6-.67,7,7,0,0,0,2.49-3.39c.16-.43.41-1,.6-1.52a3.65,3.65,0,0,0,.29-1.35Z"/><path id="path737" class="cls-7" d="M97.79,209.37h-.08a1.77,1.77,0,0,0,0-.23h.06a1.85,1.85,0,0,0,0,.23Zm-4,6.94,0,0v0Zm-1,.45.06,0,0,0Zm-1.09.16h.07l0,.05,0-.05Zm-1-.19,0,0,0,0S90.67,216.74,90.67,216.73Zm-.92-.55.06,0-.06,0v-.06Zm-.77-.85.1.15h-.14A.83.83,0,0,0,89,215.33Zm-.54-1.16c0,.13.09.26.14.38a.9.9,0,0,0-.22-.06A.72.72,0,0,0,88.44,214.17Zm-.22-.92a3.29,3.29,0,0,0,.07.36.75.75,0,0,0,0,.16.77.77,0,0,0-.33-.29.8.8,0,0,0,.22-.23Zm-.1-1.12a2.26,2.26,0,0,0,0,.26l-.15-.13A.57.57,0,0,0,88.12,212.13Zm0-1.12a2,2,0,0,0,0,.25.62.62,0,0,0-.14-.14.91.91,0,0,0,.16-.11Zm.17-1.07a1.16,1.16,0,0,0,0,.18.48.48,0,0,0-.09-.11Zm.31-1.09-.06.18a.57.57,0,0,0-.08-.13Zm.42-1.28-.09.27a.15.15,0,1,1,.09-.27Zm17.38,0a.78.78,0,0,0,.22.12.65.65,0,0,0-.13.16l-.09-.28Zm.41,1.29.15,0a1,1,0,0,0-.09.13Zm.32,1.09.13.07-.09.13C107.2,210.07,107.18,210,107.17,209.94Zm.17,1.06a.91.91,0,0,0,.16.11.47.47,0,0,0-.13.15l0-.26Zm0,1.13.14.14a.47.47,0,0,0-.15.13C107.38,212.31,107.39,212.22,107.39,212.13Zm-.11,1.11a.84.84,0,0,0,.23.23.74.74,0,0,0-.34.29c0-.1,0-.2.07-.3a1.7,1.7,0,0,0,0-.22Zm-.23.92a.73.73,0,0,0,.08.33.62.62,0,0,0-.23.07A3.25,3.25,0,0,0,107.05,214.16Zm-.54,1.17a.83.83,0,0,0,0,.15h-.14Zm-.75.85h0v.06l-.07,0Zm-.94.55s0,0,0,0l0,0Zm-1,.19,0,.05s0,0,0-.05Zm-1.09-.16,0,0s0,0,0,0Zm-1-.45h0a.06.06,0,0,0,0,0l0,0Zm-.88-.67h0v0l0,0Zm-10.22-8.41a.69.69,0,0,1-.72-.69.72.72,0,1,1,1.43,0A.69.69,0,0,1,90.59,207.23Zm2.81.83a.73.73,0,0,1-.74-.72.72.72,0,0,1,.74-.69.69.69,0,0,1,.72.69A.71.71,0,0,1,93.4,208.06Zm2.84.65a.72.72,0,1,1,0-1.44.72.72,0,0,1,0,1.44Zm3,0a.72.72,0,1,1,0-1.44.72.72,0,0,1,0,1.44Zm2.82-.65a.71.71,0,0,1-.72-.72.72.72,0,0,1,1.43,0A.71.71,0,0,1,102.09,208.06Zm2.77-.83a.7.7,0,0,1-.72-.69.72.72,0,0,1,.72-.72.71.71,0,0,1,.71.72A.69.69,0,0,1,104.86,207.23Z"/></g><path class="cls-12" d="M80,99.63c-12.64,0-22.89,10.17-22.89,30.51C57.11,155.57,75.33,181,97.8,181s40.68-25.43,40.68-50.86c0-20.34-10.24-30.51-22.88-30.51a22.86,22.86,0,0,0-17.8,8.5A22.89,22.89,0,0,0,80,99.63Zm0,0"/><rect class="cls-12" x="24.97" y="112.84" width="145.64" height="54.95" rx="5.46"/><text class="cls-13" transform="translate(62.26 162.64)">Radom</text><text class="cls-13" transform="translate(61.92 137.98)">Homiel</text><path class="cls-12" d="M150.57-.3l29,0,16,0,0,16q0,10.47,0,21a29.09,29.09,0,0,1-45-36.94Z"/><text class="cls-14" transform="translate(159.63 31.45)">42</text></svg>