<?xml version="1.0" encoding="utf-8"?>
<!-- Generator: Adobe Illustrator 26.0.3, SVG Export Plug-In . SVG Version: 6.00 Build 0)  -->
<svg version="1.1" id="Слой_1" xmlns="http://www.w3.org/2000/svg" xmlns:xlink="http://www.w3.org/1999/xlink" x="0px" y="0px"
	 viewBox="0 0 195.6 280.6" style="enable-background:new 0 0 195.6 280.6;" xml:space="preserve">
<style type="text/css">
	.st0{clip-path:url(#SVGID_00000139260978798128650070000007755671311529922442_);fill:#E94539;}
	.st1{clip-path:url(#SVGID_00000139260978798128650070000007755671311529922442_);fill:#FFFFFF;}
	.st2{clip-path:url(#SVGID_00000139260978798128650070000007755671311529922442_);}
	.st3{fill:#FFFFFF;}
	.st4{fill:#0F66B0;}
	.st5{fill:#F08224;}
	.st6{fill-rule:evenodd;clip-rule:evenodd;fill:#1166B0;}
	.st7{fill-rule:evenodd;clip-rule:evenodd;fill:#424242;}
	.st8{fill:none;stroke:#424242;}
	.st9{fill:none;stroke:#424242;stroke-width:1.03;}
	.st10{fill:none;stroke:#424242;stroke-width:0.88;}
	.st11{fill:#424242;}
	.st12{clip-path:url(#SVGID_00000139260978798128650070000007755671311529922442_);fill:#E00814;}
	
		.st13{clip-path:url(#SVGID_00000139260978798128650070000007755671311529922442_);fill:#FFFFFF;stroke:#333333;stroke-width:1.06;stroke-linecap:round;stroke-linejoin:round;}
	
		.st14{clip-path:url(#SVGID_00000139260978798128650070000007755671311529922442_);fill:none;stroke:#424242;stroke-width:1.87;stroke-miterlimit:5.63;}
	
		.st15{clip-path:url(#SVGID_00000139260978798128650070000007755671311529922442_);fill-rule:evenodd;clip-rule:evenodd;fill:#FFE407;}
	
		.st16{clip-path:url(#SVGID_00000139260978798128650070000007755671311529922442_);fill:none;stroke:#424242;stroke-miterlimit:5.63;}
	
		.st17{clip-path:url(#SVGID_00000139260978798128650070000007755671311529922442_);fill-rule:evenodd;clip-rule:evenodd;fill:#FEE308;}
	.st18{clip-path:url(#SVGID_00000139260978798128650070000007755671311529922442_);fill:none;stroke:#424242;stroke-width:1.4;}
	
		.st19{clip-path:url(#SVGID_00000139260978798128650070000007755671311529922442_);fill-rule:evenodd;clip-rule:evenodd;fill:#FFE209;stroke:#424242;stroke-width:0.75;stroke-miterlimit:5.63;}
	
		.st20{clip-path:url(#SVGID_00000139260978798128650070000007755671311529922442_);fill:none;stroke:#424242;stroke-width:1.26;stroke-linecap:round;stroke-linejoin:round;}
	
		.st21{clip-path:url(#SVGID_00000139260978798128650070000007755671311529922442_);fill:none;stroke:#424242;stroke-width:0.75;stroke-miterlimit:5.63;}
	
		.st22{clip-path:url(#SVGID_00000139260978798128650070000007755671311529922442_);fill:none;stroke:#424242;stroke-width:0.72;stroke-linecap:round;stroke-linejoin:round;}
	.st23{clip-path:url(#SVGID_00000139260978798128650070000007755671311529922442_);enable-background:new    ;}
	.st24{fill:#E00814;}
	.st25{font-family:'Impact';}
	.st26{font-size:24.77px;}
	.st27{font-size:20px;}
</style>
<g>
	<defs>
		<rect id="SVGID_1_" x="0" y="0" width="195.6" height="280.6"/>
	</defs>
	<clipPath id="SVGID_00000030479966598316968600000009091154953044273797_">
		<use xlink:href="#SVGID_1_"  style="overflow:visible;"/>
	</clipPath>
	
		<rect x="-9.2" y="-8.4" style="clip-path:url(#SVGID_00000030479966598316968600000009091154953044273797_);fill:#E94539;" width="214" height="297.9"/>
	<path style="clip-path:url(#SVGID_00000030479966598316968600000009091154953044273797_);fill:#FFFFFF;" d="M47,204
		c3.4,3.8,4.8,7.2,4.8,11.4s-1.2,7-4.5,10.6l-2.4,2.6v13.9c0,10.4,0.2,14,0.7,14.4c0.9,0.7,8.6,3.6,15.3,5.8
		c12.4,4,23.2,5.3,41.8,4.8c17.4-0.4,25.3-2,41.1-7.9l7.1-2.7v-28.3l-2.2-2.4c-6.3-6.9-6.3-14.5,0.1-22.1l2.2-2.6l-0.3-10.2
		c-0.3-11.5-1.2-16.1-4.2-21.7c-3.3-6.2-8.6-9.8-23.1-15.6c-9-3.6-16.2-7.4-21.5-11.2l-3.9-2.8l-4.8,3.4c-5.8,4-11.9,7.1-21.4,10.9
		c-20.3,8.2-25.2,13.5-26.5,32.5c0,0.3,0,0.6-0.1,0.9c-0.1,1.3-0.1,2.6-0.2,4l-0.3,9.8L47,204z"/>
	<g id="g2500" style="clip-path:url(#SVGID_00000030479966598316968600000009091154953044273797_);">
		<path id="path2567" class="st3" d="M107.7,198.8c0.6,1.9,1.1,3.9,1.4,5.9c0.5,3.4,0.6,6.8,0.3,10.1c-0.2,2.3-0.7,4.6-1.3,6.8
			c-0.9,2.6-2.3,5-4,7.1l-0.3,0.4l-1.1-0.2l-1.8-0.4l-0.7-0.2l0.1-1.6c0.5-5.6,1.6-11.2,3.2-16.6c0.8-2.9,1.7-5.7,2.8-8.4
			C107.5,199,107.7,198.6,107.7,198.8L107.7,198.8z"/>
		<path id="path3333" class="st4" d="M148.1,203.6c-6.4,7.6-6.5,15.6-0.4,22.8l2.4,2.9l-0.1,13.4l-0.1,13.4l-5.6,2.1
			c-18.2,6.8-30.1,8.8-50.3,8.2c-16.9-0.5-24.4-1.8-39.2-7.1l-8.3-3l-0.3-4.4c-0.2-2.4-0.3-8.5-0.3-13.6v-9.2l2.6-3.3
			c3.5-4.4,3.8-5.1,4.2-9.1c0.4-4.6-0.8-8.2-4.3-12.8l-2.8-3.6l0.4-8.6c-1.9-5.3,0.4-9,1.6-13.6c1.4,0.3,2.9,0.2,4.2-0.3
			c2-0.6,4.1-0.4,6.1-0.9s5.8,1.4,6.5,1.7c2.4,0,58.5-0.3,65.1-0.3c0.9,0,1.8-0.1,2.6-0.4c2-0.7,4.3-2.1,5.7-1.7
			c1.9,0.6,3.8,1.3,5.8,2c1.5,0.5,2.9-0.9,4.5-0.7C148.7,184.4,153.7,196.9,148.1,203.6z"/>
		<path id="path2559" class="st3" d="M120.6,198l1,1.7l1,1.5c-4.2,5.7-5.3,12.1-6.8,18.7c0,0-2.2-0.8-2.3-0.8s0.2-0.8,0.4-1.7
			s0.6-2.7,0.9-3.9c1.5-7,2.3-9.8,4.6-14.6c0.2-0.5,0.5-1,0.8-1.5C120.3,197.6,120.5,197.8,120.6,198L120.6,198z"/>
		<path id="path2557" class="st3" d="M119.2,197l0.8,0.5l-0.5,1c-2.4,5.4-3.5,8.8-5,16.6c-0.4,1.8-0.7,3.5-0.8,3.6
			c-0.1,0.4-0.1-8,0-14.8v-5.1l0.6-0.2c1.2-0.4,2.4-1,3.4-1.8l0.6-0.5L119.2,197z"/>
		<path id="path2551" class="st3" d="M107.4,197.9c0,0.2-0.7,1.8-1.3,3.3c-3.4,9-5,19.1-6.4,27.2c-0.2,0-1.7-0.2-1.7-0.4
			c-0.1-0.4,0.1-0.2,0.2-4.2c0.1-3.6,0.5-7.2,1.2-10.7c0.5-2.2,2.3-9.3,3.2-12.2c1-3.4,2.9-8.3,3.2-8.3
			C106.4,194.3,106.7,196.3,107.4,197.9z"/>
		<path id="path2563" class="st3" d="M104.8,194.6c-2.5,6.5-4.5,13.1-6,19.9c-0.6,3.4-0.9,6.8-1,10.3c0,1.6,0,3.2,0,3.2
			s-0.5,0.2-0.7-0.2c-0.1-0.2,0-0.6,0-1c-0.1-2.6,0.1-8.3,0.1-13.8l0.1-15.2c2.8-0.4,5.4-1.7,7.3-3.8
			C104.6,194.2,104.7,194.2,104.8,194.6z"/>
		<path id="path2549" class="st3" d="M87.6,196.8c1.8,0.6,3.8,1,5.7,1H95v9.8c0,9.2,0,9.7-0.3,8.3c-1.3-6-3-11.6-5.2-14.9
			c-0.5-0.8-2.6-3.4-3.1-4.4C86.2,196.3,86.7,196.5,87.6,196.8L87.6,196.8z"/>
		<path id="path2498" class="st3" d="M44.8,228.5l2.4-2.6c3.3-3.5,4.5-6.3,4.5-10.6s-1.4-7.6-4.7-11.3l-2.3-2.6l0.3-9.8
			c0.8-23.1,4.7-28.6,26.7-37.5c9.5-3.8,15.6-7,21.4-10.9l4.8-3.4l3.9,2.8c5.3,3.8,12.5,7.6,21.5,11.2c14.5,5.9,19.8,9.5,23.1,15.6
			c3,5.6,3.9,10.2,4.2,21.7l0.3,10.2l-2.2,2.5c-6.4,7.6-6.4,15.2-0.1,22.1l2.2,2.4v28.2l-7.1,2.7c-15.8,6-23.7,7.5-41.1,7.9
			c-18.6,0.4-29.4-0.8-41.8-4.8c-6.7-2.2-14.4-5.1-15.3-5.8c-0.5-0.4-0.7-3.9-0.7-14.4 M93.6,143.6c-5,3.6-11.4,6.9-20.9,10.7
			c-11,4.5-15.5,7-19.1,10.5c-5.6,5.6-7.5,11.8-8.1,26.8l-0.4,9.1l2.5,3c3,3.7,3.8,5.2,4.5,8.7c0.6,3.3,0.2,6.7-1.2,9.7
			c-0.9,1.5-2,2.9-3.2,4.2l-2.4,2.7l0.1,8.7c0,4.8,0.2,11,0.4,13.7l0.3,5l6.1,2.4c14.3,5.5,23.7,7.4,39.7,7.9
			c21.8,0.7,34.4-1.3,52.8-8.4l5.5-2.1v-27.4l-2.2-2.3c-6.4-6.7-6.4-15.6,0.1-22.6l2.2-2.4l-0.3-10c-0.4-14.3-2.3-20.5-7.7-26.3
			c-3.4-3.6-7.8-6.1-18.7-10.5c-10.4-4.2-16-7.1-21.6-11.1c-1.3-1-2.7-1.8-4.1-2.6C96.5,141.6,95,142.6,93.6,143.6L93.6,143.6z"/>
		<path id="path2547" class="st3" d="M92,206.6c1,2.9,1.8,5.9,2.4,8.9c0.5,2.3,0.4,3.3,0.5,7.3c0.1,4.5,0.4,4.2,0,4.3
			s-0.4,0-1.3,0.1c-0.3-1.4-1-6.6-1.5-8.4c-0.8-3.1-0.9-3.4-0.7-4.5c0.4-2.6,0.2-5.2-0.4-7.7c-0.3-1.4-2.2-6.5-1.6-4.9L92,206.6z"/>
		<path id="path2555" class="st3" d="M111.3,209.6c0,5.9,0,10.7,0,10.7c-0.8-0.1-1.6-0.3-2.4-0.5c0-0.4,0.1-0.9,0.2-1.3
			c0.9-4.5,1-9.1,0.2-13.5c-0.4-2-0.9-4-1.6-5.9c0-0.1,0.4-0.1,1.8-0.1h1.8L111.3,209.6z"/>
		<path id="path2496" class="st3" d="M102.7,266.9c14.5-0.2,28.9-3.1,42.3-8.7l5.3-2v-27.4c-4.3-4-8-9.6-6.8-15.7
			c0.6-4.7,3.8-8.4,7-11.6c-0.3-7.6-0.2-15.3-1.5-22.8c0-0.1-0.3-1.6-0.4-1.7c-0.5,0.2-1,0.4-1.5,0.6c-1.9,0.8-1.8,0.7-4.7,0.5
			c-1.9-0.7-3.4-1.9-5.7-1.9l0,0c-1,0.3-2,0.7-2.9,1.2c-0.9,0.5-1.8,0.7-2.8,0.7l0,0c-1.1,0.1-2.3-0.1-3.3-0.5l-0.2,0.5
			c1.1,0.4,2.3,0.6,3.5,0.6c1,0,2.1-0.3,3-0.8c0.9-0.5,1.8-0.9,2.7-1.1c2.1-0.1,3.5,1.1,5.5,1.9h0.1c1.9,0.2,3.8-0.1,5.5-0.8
			c1.7,7.5,1.6,16,1.8,23.6c-3.5,3.7-6.8,7.9-6.8,13.1c-0.6,5.7,2.9,10.7,6.7,14.4c0,8.8,0.2,17.2,0,26.5
			c-32.7,15.9-76.3,12.8-102.6,0.3c-0.7-8.7-0.8-18-0.7-26.6c6.2-7,6.7-9.6,6.8-14.3s-1.7-7.4-7.1-14.5c0.2-7.7,0.2-15.8,1.7-22.1
			c0.5,0.1,1.8,0.2,2.2,0.2c2.2-0.2,4.5-0.5,6.7-1c2.2-0.5,4.5-0.2,6.6,0.8l0.3,0.1c0.2,0.1,0.5,0.2,1,0.4l0.2-0.5
			c-0.3-0.1-0.7-0.2-1-0.4c-0.1,0-0.2-0.1-0.3-0.1c-2.1-1.1-4.6-1.4-6.9-0.9c-2.2,0.4-4.4,0.8-6.6,1c-0.9,0-1.8-0.1-2.7-0.4
			c-0.6,3-1,6.1-1.2,9.2c-0.3,4.6-0.4,9.3-0.6,13.9c3.4,4.1,7.3,8.4,7.2,14.1c0.4,4.9-3.2,10.2-5.7,12.4c-1.1,1.2-1.6,2.8-1.4,4.4
			c0,8.2,0.1,16.4,0.8,24.6c11.8,4.8,24,9,36.8,9.8c5.6,0.5,11.2,0.6,16.8,0.6C100.7,266.9,101.7,266.9,102.7,266.9z"/>
		<path id="path2535" class="st3" d="M78.4,217.5c3.3,1.2,5,2.2,6,3.2c0.5,0.5,1,1.2,0.8,1.2l-3.2-0.9l-3.6-1L78,220v-1.4
			c-0.1-0.4-0.1-0.9,0-1.3C78.1,217.3,78.3,217.4,78.4,217.5L78.4,217.5z"/>
		<path id="path2533" class="st3" d="M107.6,199.5c0.1,0.2,0.2,0.7,0.3,1c0.8,2.6,1.2,5.4,1.4,8.1c0.1,1,0.1,4.2,0,5.2
			c-0.2,2.1-0.5,4.2-0.9,6.2c-0.7,2.7-1.9,5.2-3.5,7.4c-0.8,1.1-1.1,1.6-1.2,1.5s-3.4-0.7-3.4-0.7s0.1-2.2,0.2-3.3
			c0.5-4,1.2-7.9,2.1-11.8c0.8-3.3,2.5-9,3.1-10.3c1-2.3,1.7-3.8,1.7-3.8S107.5,199.3,107.6,199.5L107.6,199.5z"/>
		<path id="path2561" class="st3" d="M123.2,202.3c0.9,1.9,1.5,3.9,1.8,5.9c0.1,1,0.2,2,0.1,3.1c0,2-0.3,4.1-1,6l-2.6,4.9
			c-2.1-0.6-4.1-1.4-6-2.4c1.9-9.3,4-13.4,6.9-18.3C122.7,201.8,122.9,202.1,123.2,202.3L123.2,202.3z"/>
		<path id="path3369" class="st5" d="M107.1,166.8c5.8,2.1,13.2,0.1,17.6,5.2c4.4,4.5,2.6,11.2,2.8,16.8c0.2,2.6-0.7,4.6,1.1,6.3
			c2.2,1.9,4.1,4,5.7,6.4c2.5,2.5,3.9,11.4-2.1,6.1c-5.3-5.1-10.5-10.6-17.6-13.3c-8.2-3.3-17.3-3.6-26.1-2.9c-0.3,0.1-1,0-1.2,0.2
			c-2.8,2.5-1.3,8.8-5.6,10.6c-4.9,1.9-11.8-1.9-16.1,2.3c-1.8,4.3-8.5,4.7-6.7-0.3c1.6-4.4,5.4-8.2,5.2-13.1
			c0.8-5.9,0-12.2,0.1-18.2c1.1,0,2.2-0.1,3.2-0.4c2.6-0.9,5.4-2.9,9.5-5.1c0.8-0.4,1.4,0.5,2.4,0.5c5.1-0.2,10.8-2.6,15.6,0.2
			C99.1,169.2,103,166.3,107.1,166.8z M120.4,197.5c5.8,3.4,9.3,11.9,12.3,17.5l-0.3,2.4L120.4,197.5z M78,202.6
			c0,1.9-0.3,9.2,0,17.5c1.1,0.3,8.5,2,7.1,2.4c-1.1,1.2-5.5-0.2-7.1-0.6c0,1,0.1,1.5,0.1,2.4c0.2,0.2,3.6,2.8,4,3.8
			c1.1,0.4,1.8,0.6,1.6,2.3c-1.5,0.1-3,0.1-4.5,0.1c0.2,4.5-0.2,9.7-0.2,11c-1.3,0.1-0.4,0-2.1,0.2c-0.1-1.7,0.2-5.9,0-11
			c-1.4-0.2-5.5,0.4-5.3-0.9c0.3-0.4,0.1-1.2,1.2-1.6c0.9-1.4,1.9-2.7,3.1-3.9c0-1,0-1.7,0-2.7c0-0.3-4.7-1-7.2-1.8
			c0-0.2-0.5-1.1-0.1-1.6c1.5,0.2,7.2,1.6,7.2,1.4c-0.3-7.7-0.4-14.7-0.3-17.1C76.4,202.5,77.2,202.6,78,202.6z M97.5,252.7
			c-0.6,0.1-0.8,0.1-1.9,0.2c0-0.3-0.2-11.3-0.2-14.2c-0.8-0.1-3-0.1-3.6-0.2c-0.1-0.7-0.1-1.3,0-2c1.1,0.6,2.7-3.1,3.1-3.6
			c-0.2-15.6,0.1-35.5,0.1-41.6c0.8,0.6,2.2-0.6,2.2,0.2c-0.1,3.3-0.1,8.5-0.1,11.4c-0.2,4.5,0.1,28.2,0.3,30.1c0.1,0.1,2.6,3,4,3.7
			c0.1,0.6,0.1,1.3,0,1.9c-2,0-3.8-0.5-3.8,0C97.6,243.9,97.6,251,97.5,252.7L97.5,252.7z M113.6,194.1c-0.1,9.7-0.4,19.4,0.2,29.2
			c-0.7,0-1.4,0-2.2,0c-0.1-8.5,0.1-21.1,0.1-29.7C111.9,193.8,113.3,194.1,113.6,194.1z M119.4,229.4c-1.7,0-10.6-0.2-12.8-0.1
			c0-0.2,0.1-0.7,0.1-1.4c1,0,4-3.8,4.5-4.4c0.9,0,1.9,0,2.7,0c0.5,0.5,4.5,4.4,5.4,4.3C119.5,228.7,119.4,228.8,119.4,229.4z
			 M85.2,225.5c5.6,1.3,14.6,2.5,19.9,4.2c0,1,0.1,1.3-1.6,1.5c-5.1-0.7-15.2-2.6-19.3-4.3C84.5,225.9,84.6,226.1,85.2,225.5z
			 M113.7,219.3c1.2,0.4,8.2,3.4,9.4,3.9c0,0.5-0.5,0.8-1,1.1c-1.3-0.4-7.1-2.3-8.4-2.8C113.7,220.6,113.6,221,113.7,219.3
			L113.7,219.3z M114.6,229.5c-0.1,3.1,0,6.3,0.3,9.4c-2.8,0.2-0.1,0-2.8,0.2c-0.1-3.8,0-5.8-0.1-9.6
			C113.4,229.5,113.4,229.5,114.6,229.5z"/>
		<path id="path2690" class="st6" d="M127.4,173.8c1.8,0.2,3.7-0.1,5.4-0.7c1.3-0.6,2.8-0.9,4.2-1c2.2-0.1,3.4,0.7,6.5,1.5
			c0.1,0,0.1,0,0.2,0h0.3h0.9h1h0.3h0.1c0.1-0.1,0.1-0.1,0.2-0.2c0-0.1,0-0.3-0.1-0.4c-0.1,0-0.1,0-0.2,0H146h-0.9h-0.9h-0.3h-0.1
			c-3.1-0.8-4.4-1.6-6.7-1.6c-1.5,0.1-3,0.4-4.4,1c-1.7,0.6-3.4,0.8-5.2,0.7l0,0l-2-0.6v0.6l2,0.5l0,0L127.4,173.8z"/>
		<path id="path2696" class="st6" d="M49.6,173.9c4.3-1.5,9.1-3,13.2-0.3c0.1,0,0.2,0.1,0.2,0.1c0.3,0,0.6,0,0.8,0V173
			c-0.3,0-0.5,0-0.8,0c-0.1,0,0,0-0.1,0c-4.4-2.8-9.4-1.2-13.7,0.3c0,0.1,0,0.2,0,0.4C49.4,173.7,49.6,173.9,49.6,173.9z"/>
		<path id="path2708" class="st6" d="M97.5,146.3c1.5,0,2.8-0.7,3.8-1.8c0-0.1,0-0.2,0-0.4c-0.1-0.1-0.2-0.2-0.3-0.2
			c-1.8,2-4.9,2.1-6.9,0.3c0,0-0.1-0.1-0.1-0.1c0,0-0.2,0.1-0.3,0.2c0,0.1,0,0.3,0,0.4C94.7,145.7,96.1,146.3,97.5,146.3z"/>
		<path id="path2726" class="st7" d="M66.8,195.2c0.4,0,0.8,0,1.5-0.1c2.6-0.9,5.2-2.3,7.6-2.7c2.7-0.5,5.4-0.8,8.1-0.9V191
			c-2.8,0.1-5.5,0.4-8.3,0.9c-3.1,0.7-6.2,1.6-9.2,2.8c0,0-0.1,0.2,0,0.3S66.8,195.2,66.8,195.2z"/>
		<path id="path2866" class="st8" d="M113.6,194.2c0.2,9.4-0.1,19.6,0,29"/>
		<path id="path2870" class="st8" d="M111.5,223.6v-0.9c0-9.4-0.1-19.9,0-29.3"/>
		<path id="path2876" class="st8" d="M97.1,227.8c0-11.7-0.1-24.6,0-36.3"/>
		<path id="path2878" class="st8" d="M95,191.2c0.1,11.8-0.1,24.4,0,36.2"/>
		<path id="path2880" class="st8" d="M120.2,197.8c0.1,0.2,0.4,0.4,0.5,0.6c3.3,5.1,8.4,13.8,11.5,18.8c0.1,0.1,0.6,0.6,0.6,0.5"/>
		<path id="path2886" class="st8" d="M132.8,217.6c0-0.7,0-1.7,0-2.4c-0.4-1.3-0.9-2.6-1.6-3.8c-1.8-3.1-5.1-9.1-7.9-12"/>
		<path id="path2888" class="st8" d="M119.4,229.4h-12.7V228"/>
		<path id="path2892" class="st8" d="M106.4,227.8c4.3,0,8.7,0.1,13,0.1c0,0.5,0,1.3,0,1.8"/>
		<path id="path2894" class="st8" d="M118.8,227.9l-0.6-0.5c-1.5-1.3-3.1-3-4.6-4.2"/>
		<path id="path2898" class="st9" d="M107.6,227.8c1.3-1.4,2.2-2.6,3.4-4l0.5-0.6"/>
		<path id="path2902" class="st8" d="M113.8,223.3c-1.1,0.1-1.4,0-2.4,0"/>
		<path id="path2553" class="st3" d="M107.7,199.5c0.3,0.8,0.8,3.5,1.1,5.5c0.3,2.1,0.4,4.1,0.3,6.2c0.1,2.2,0,4.5-0.4,6.7
			c-0.3,2.2-1,4.3-2,6.3c-0.9,1.6-1.9,3.2-3,4.7c-0.6,0-1.3-0.1-1.9-0.2l-1.7-0.3l0.1-1.2c0.6-6.2,1.8-12.3,3.6-18.3
			c0.7-2.8,1.6-5.6,2.7-8.3c0.7-1.6,0.9-1.9,1.1-1.4L107.7,199.5z"/>
		<path id="path2904" class="st8" d="M104.9,229.6c-6.7-1.4-13.1-2.8-19.8-4.2c-0.6,0.6-1.1,0.9-0.7,1.5c0.2,0.3,2.7,1.2,4.6,1.6
			c4.2,0.8,9,2,12.8,2.6c1.8,0.3,2.4,0.1,2.7-0.2C104.8,230.5,104.9,230.1,104.9,229.6z"/>
		<path id="path2543" class="st3" d="M116.2,239.2c1.2,0.2,2.4,0.3,3.6,0.3c0.7-0.1,1.5,0,2.2,0.2c-0.1,0.3-0.3,0.6-0.5,0.9
			c-1.1,1.3-2.7,1.7-6.7,1.4l-2.6-0.2v-2.7l0.8-0.1C114,238.8,115.1,238.9,116.2,239.2L116.2,239.2z"/>
		<path id="path2906" class="st8" d="M112,229.6c0.1,3.9-0.1,8.5,0,12.5c4.5-0.2,8.5,1.4,9.9-2.6"/>
		<path id="path2910" class="st8" d="M114.6,229.5c0,3,0.1,6.2,0.1,9.2c1,0.2,1.7,0.3,2.7,0.5c1.6,0.1,3.1-0.1,4.7,0.1l0,0"/>
		<path id="path2541" class="st3" d="M107.3,252.5l0.7,0.3l-1.4,1.1c-0.5,0.4-1.1,0.8-1.7,1.1c-0.2,0-1.6,0.1-3.1,0.3
			s-3.6,0.3-4.5,0.3h-1.7v-1.4c0-0.5,0-0.9,0-1.4c1.7-0.2,9.2-0.6,9.9-0.6C106.2,252.3,106.7,252.3,107.3,252.5L107.3,252.5z"/>
		<path id="path2920" class="st8" d="M108.4,252.6c-1.5,1.2-1.9,1.4-3,2.4c-1.5,0.3-3,0.5-4.5,0.6c-1.8,0.2-3.6,0.2-5.4,0.2
			c0-5.5,0-11.7,0-17.2"/>
		<path id="path2926" class="st7" d="M97.9,252.7c0-4.8,0-9.3,0-14.1h-0.5c0,4.8,0,9.3,0,14.1h0.2L97.9,252.7z"/>
		<path id="path2936" class="st8" d="M100.4,236.5c-1.3-1.4-2.1-2.7-3.4-4.1"/>
		<path id="path2938" class="st8" d="M95,232.7c-0.9,1.4-1.3,2.4-2.2,3.8"/>
		<path id="path2940" class="st8" d="M97.1,233c0.1-0.7,0-2.3,0.1-3"/>
		<path id="path2942" class="st8" d="M95,229.6c0,1,0,2.4,0,3.4"/>
		<path id="path2537" class="st3" d="M75.4,217.3h0.3v2.1h-0.1l-2.8-0.6l-3.3-0.7c-0.7-0.1-0.7-0.1-0.1-0.3c1.1-0.3,2.2-0.5,3.3-0.5
			C73.1,217.3,74.7,217.3,75.4,217.3L75.4,217.3z"/>
		<path id="path2952" class="st8" d="M75.8,202.8c0,5.2,0,8.9,0,14v2.8"/>
		<path id="path2956" class="st8" d="M77.9,202.6c0,5.4,0,12.4,0,17.8"/>
		<path id="path2980" class="st8" d="M72,228.4c-0.1,0.8-0.2,1.6-0.2,2.3c1.1,0,2.9,0,3.7,0c2.9,0,5.5,0.1,8.4,0c0-0.8,0-0.5,0-1.6
			c-0.3-0.5-0.9-0.7-1.9-0.9"/>
		<path id="path2539" class="st3" d="M86.1,242.3c0,0.9-0.6,1.6-1.4,1.9c-1.4,0.2-2.8,0.2-4.1,0.2h-3.7v-2.7
			c1.8-0.1,3.7-0.1,5.5-0.1h3.7L86.1,242.3z"/>
		<path id="path2984" class="st8" d="M79,241.6c-0.1-3.4,0-7.3-0.1-10.8"/>
		<path id="path2986" class="st8" d="M76.9,230.9c0,4.3,0,9.3-0.1,13.7H84c0.7-0.1,1.3-0.4,1.8-0.9c0.8-0.7,0.5-1.1,0.5-2.2
			c-2,0.2-5,0-7.5,0"/>
		<path id="path2990" class="st8" d="M113.5,219.1l9.7,4.1"/>
		<path id="path2996" class="st8" d="M131.8,216.3c-3.3-0.9-8.3,3.1-10.2,6"/>
		<path id="path2998" class="st8" d="M123.4,202.6c2.4,6.3,1.8,9.7,1.1,13.8c-0.5,1.8-1.4,3.6-2.4,5.2"/>
		<path id="path3000" class="st8" d="M122.5,201.5c-2.2,3.1-3.7,6.6-4.7,10.3c-0.6,2.6-1.3,5.6-1.7,8.1"/>
		<path id="path3002" class="st8" d="M120.1,197.5c-1.4,2.8-2.6,5.8-3.5,8.8c-1.4,4.7-1.7,7.9-2.9,12.6"/>
		<path id="path3004" class="st8" d="M118.1,196.4c-1.4,1.6-3.9,2.6-4.6,2.4"/>
		<path id="path3006" class="st8" d="M105.7,192.2c-1.6,3.7-7.3,5.6-8.5,5.5"/>
		<path id="path3008" class="st8" d="M105.8,192.3c-2.1,3.8-3.6,8.9-4.7,12.9c-2.2,7.9-3.3,12.7-3.2,22.9"/>
		<path id="path3010" class="st8" d="M99.9,228.3c0.1-2.6,0.4-5.3,0.9-7.9c1-5.7,2.4-11.3,4.3-16.8c0.6-1.5,1.6-3.6,2.2-5.1"/>
		<path id="path3012" class="st7" d="M107.5,198.8c0.3-2.1,1.8-3.8,2.4-5.8l-0.5-0.1c-0.9,2.2-2.1,4.1-2.7,6.4L107.5,198.8z"/>
		<path id="path3016" class="st8" d="M99.1,191.4c0.8,1.5,1.4,3.5,2.2,5"/>
		<path id="path3018" class="st8" d="M91.4,191.3c-1.2,1.6-1.8,3.9-2.5,5.6"/>
		<path id="path2545" class="st3" d="M91.2,216.2c0.1,0.2,1.5,6.4,2.1,9.4c0.1,0.4,0.2,0.9,0.1,1.4c-0.1,0.1-7.7-1.4-7.9-1.6
			c0.2-0.4,0.5-0.8,0.9-1.1c1.9-2.3,3.4-4.9,4.5-7.7C91,216.2,91.2,216.1,91.2,216.2L91.2,216.2z"/>
		<path id="path3020" class="st8" d="M87.8,199.3c-2.4,6.3-4.4,12.7-6,19.2"/>
		<path id="path3026" class="st8" d="M95,197.8c-4.5,0.1-7.5-0.8-9.8-2.2c3,3.5,5.7,9.5,5.9,13.3c1.2,6.9-2,12.5-6,16.7"/>
		<path id="path3028" class="st8" d="M93.6,227.1c-0.9-5-2-10-3.5-14.8c-0.2-0.6-2.8-9.1-5.4-13.6"/>
		<path id="path3030" class="st8" d="M83.3,201.4c-1.3,1.4-3.3,11-3.8,16.2"/>
		<path id="path3032" class="st8" d="M88.4,200.2c4,4.8,6,13.5,6.6,20"/>
		<path id="path3034" class="st8" d="M105.8,192.3c0.8,2.2,1.4,4.5,2,6.9c2.1,6.4,2.5,13.1,1.2,19.7c-0.5,3.8-2.6,7.4-5,10.4"/>
		<path id="path3036" class="st8" d="M111.6,220.5l-3-0.7"/>
		<path id="path3038" class="st8" d="M111.5,198.8c-1.2,0-3.6,0-4.2,0"/>
		<path id="path3042" class="st8" d="M112.1,231.2c-6.2,4.7-10.3,12.4-14.5,18.7"/>
		<path id="path3046" class="st10" d="M92.4,238.7c0.8,0.5,2.2,2.7,3.3,5.4"/>
		<path id="path3048" class="st8" d="M79.2,231c7.5,3.9,11.9,10.6,16.1,17.8c0.1,0.1,0.3,0.5,0.3,0.6"/>
		<path id="path3050" class="st8" d="M66.9,203.8c3.3,3.6,5.1,8.5,6.2,13.2"/>
		<path id="path3052" class="st8" d="M74.4,217c-0.2-5.4-1.4-9.6-3.1-14.6"/>
		<path id="path3237" class="st6" d="M65.4,162.9c1.4,0,2.7-0.3,4-0.8c1.8-0.6,3.5-1.2,5.2-1c3.7,1.5,7.7,2.2,11.5,0.6
			c2.6-1.7,5-0.9,7.1,0.1l0,0c3,1.4,6.5,1.3,9.3-0.4l0,0c1.3-0.8,2.9-0.9,4.3-0.4c1.5,0.4,3,1.1,4.4,1.5l0,0
			c2.1,0.8,4.2,0.1,6.2-0.7s3.9-1.4,5.9-0.6l0,0c3.6,2.5,8,1.7,11.6-0.2c0-0.1,0-0.3,0-0.4c0-0.1-0.1-0.2-0.2-0.2
			c-3.5,1.9-7.8,2.6-11.2,0.2l0,0l0,0c-2.1-0.9-4.2-0.1-6.2,0.6s-3.9,1.4-5.9,0.7l0,0l0,0c-1.4-0.4-2.9-1.1-4.5-1.5
			c-1.5-0.5-3.2-0.3-4.6,0.5l0,0c-2.7,1.6-6.1,1.7-8.9,0.4l0,0c-2.3-1-5.1-1.8-7.4-0.1l0,0c-3.6,1.6-7.6,0.9-11.1-0.6l0,0l0,0
			c-1.9-0.3-3.7,0.4-5.4,1s-3.4,1.1-5.2,0.6l0,0l0,0c-1.1-0.3-2.3-0.8-3.5-1.1c-0.1,0.1-0.1,0.2-0.2,0.3c0,0.1,0,0.3,0.1,0.4
			c1.1,0.3,2.2,0.8,3.4,1.1l0,0C64.5,162.8,64.9,162.9,65.4,162.9z"/>
		<path id="path3239" class="st6" d="M112.6,151.8c0.2-0.1,0.2-0.3,0.1-0.5c-1-0.5-2-0.9-3.1-1.3c-1.5-0.8-3.3-1.1-5-1
			c-1.8-0.1-3.2,1.4-5,1.6c-1.9,0.5-3.9,0.5-5.8-0.2c-1.2-0.3-2.2-1.3-3.4-1.5c-1.9-0.2-3.8,0.3-5.4,1.3c-0.5,0.3-2.4,0.8-1.1,1.2
			c1-0.4,1.9-1.1,2.9-1.4c1.6-0.8,3.6-0.7,5.1,0.2c2,1.2,4.3,1.6,6.6,1.1c1.5-0.2,2.9-0.6,4.2-1.4c2.3-1,4.8-0.1,7,0.8
			C110.8,151.2,111.7,151.5,112.6,151.8z"/>
		<path id="path3241" class="st6" d="M82,157.3c1.8-0.1,3.5-0.7,5-1.7l0,0c2.7-1,5.4,0.5,8,1.4c2.1,0.7,4.4,0.4,6.2-0.7l0,0
			c2.3-1.1,5-1.2,7.4-0.3l0,0c2.4,1.1,5.1,2.1,7.7,0.7l0,0c2-1.3,4.5-1.9,6.5-0.4l0,0h0.1c0.3-0.2,0.1-0.5,0.1-0.6
			c-2.2-1.6-4.9-1-7,0.4c-2.3,1.4-4.9,0.4-7.2-0.7l0,0c-2.5-0.9-5.3-0.8-7.8,0.3l0,0l0,0c-1.8,1.1-3.9,1.3-5.9,0.7l0,0
			c-2.6-0.8-5.4-2.4-8.3-1.4l0,0l0,0c-1.4,1-3.1,1.6-4.9,1.7l0,0c-1.4,0-2.8-0.4-4.1-1c-1.3-0.7-2.9-0.9-4.4-0.6
			c0,0.1-0.1,0.3-0.1,0.4c0,0.1,0.1,0.2,0.2,0.3c1.4-0.3,2.8-0.1,4.1,0.5C79,156.9,80.5,157.3,82,157.3L82,157.3z"/>
		<path id="path3176" class="st8" d="M76,217.1c-2.4-0.1-4.7-0.1-6.9,0.9c-0.5,0.9-0.3,1.9,0.2,2.2c2.8,0.6,4.1,1,6.5,1.5"/>
		<path id="path3190" class="st8" d="M85.2,222c-0.6-0.3-16.3-3.9-16.3-3.9"/>
		<path id="path3192" class="st8" d="M83.4,223.2l-5.4-1.2v2.2"/>
		<path id="path3194" class="st8" d="M75.8,221.4v3.1"/>
		<path id="path3196" class="st8" d="M74.6,226.2c0-1.6-0.2-3.2-0.6-4.8"/>
		<path id="path3198" class="st8" d="M75.9,224.3l-3.2,4.2"/>
		<path id="path3200" class="st8" d="M82.2,228.3l-4.2-4.1"/>
		<path id="path3204" class="st8" d="M78.1,217.3c2.3,0.9,7,2.1,7.3,4.8c-0.5,0.7-1.2,1.1-2.1,1.1"/>
		<path id="path3210" class="st8" d="M83.1,228.5l-11.3,0.1"/>
		<path id="path3212" class="st8" d="M101.4,236.6h-9.8"/>
		<path id="path3214" class="st8" d="M91.8,236.3v2.2"/>
		<path id="path3216" class="st8" d="M91.6,238.7l9.8-0.1v-2.4"/>
		<path id="path3218" class="st7" d="M97.7,244.5c0.9-2.9,2-4,3.4-5.7l-0.3-0.4c-1.4,1.7-2.6,2.7-3.4,5.7L97.7,244.5z"/>
		<path id="path3220" class="st7" d="M108.1,253.2l0.8-0.5c-0.7-0.3-2-0.6-2.6-0.9h-0.1h-0.1c-3.2,0-6.2,0.4-8.7,0.5v0.5
			c2.6-0.1,5.5-0.5,8.6-0.5C106.8,252.6,108,252.8,108.1,253.2z"/>
		<path id="path3224" class="st8" d="M123,222.9v0.9l-0.9,0.5l-8.6-2.7l0,0"/>
		<path id="path3228" class="st8" d="M97.1,232.7H95"/>
		<path id="path3230" class="st8" d="M78,224.3h-2"/>
		<path id="path2893" class="st7" d="M124.4,177.7c0,0,0.3,0,0.4-0.1s0-0.3,0-0.3c-2.3-2-5.1-3.4-8-4.3c-6.4-2.2-13.1-3.3-19.8-3.1
			c-6.4,0.2-12.8,0.7-19.1,1.8c-1.1,0.2-2.3,0.4-3.4,0.8c-1.7,0.4-3.4,1.2-4.8,2.2c0,0,0,0.3,0,0.4s0.4,0,0.4,0
			c1.4-1,2.9-1.7,4.5-2.1c1.1-0.3,2.2-0.6,3.3-0.8c6.3-1,12.6-1.6,19-1.7c6.7-0.2,13.3,0.9,19.6,3.1
			C119.5,174.3,122.1,175.8,124.4,177.7z"/>
		<path id="path2905" class="st7" d="M124.6,181.3c0.1,0,0.2-0.1,0.3-0.1c0.1-0.1,0-0.3,0-0.3c-1-0.9-2.1-1.6-3.3-2.2
			c-3.4-1.5-6.9-2.8-10.5-3.7l0,0c-4.2-1.2-8.6-1.3-12.9-1.3l0,0c-7.9,0.3-19.2,0.6-27.7,4.8c0,0.1,0,0.2,0,0.3
			c0,0.1,0.3,0.1,0.3,0.1c8.4-4.1,19.6-4.5,27.5-4.8l0,0c4.3,0.1,8.6,0.1,12.7,1.3l0,0c3.6,0.9,7.1,2.1,10.4,3.7l0,0
			C122.5,179.8,123.6,180.5,124.6,181.3z"/>
		<path id="path2911" class="st7" d="M124.6,185.7c0.1,0,0.2-0.1,0.3-0.1c0.1-0.1,0-0.3,0-0.3c-7.5-5.3-16.8-7.4-25.8-7.9l0,0
			c-8.1,0.2-20.8,0.6-27.9,4.3l-0.6,0.3c0,0-0.1,0.2-0.1,0.3s0.3,0.1,0.3,0.1l0.6-0.4c6.9-3.6,19.6-4,27.7-4.2l0,0
			C108.1,178.3,117.2,180.5,124.6,185.7z"/>
		<path id="path2919" class="st7" d="M125.2,190.1c0,0,0.2,0,0.3-0.1c0-0.1,0.1-0.2,0.1-0.3l0,0c-4.6-3.3-9.8-5.7-15.3-7
			c-5.2-1.5-10.6-2.2-16-2l0,0c-5-0.1-9.8,0.9-14.6,1.7c-3.1,0.3-6.2,1.4-8.8,3c0,0,0,0.2,0,0.3s0.3,0.1,0.3,0.1
			c2.6-1.5,5.5-2.5,8.6-2.8c4.8-0.8,9.7-1.8,14.6-1.7c5.3-0.2,10.7,0.5,15.8,1.9C115.5,184.4,120.6,186.7,125.2,190.1L125.2,190.1z"
			/>
		<path id="path2931" class="st7" d="M133,204.2c0,0,0.2,0.1,0.3,0s0-0.4,0-0.4l-1.3-1.2c-3.5-3.7-7.4-6.8-11.8-9.4
			c-7.2-4.6-15.8-6.4-24.2-6.5c-9-0.2-17.8,1.7-26.6,3.2l0.1,0.5c8.8-1.5,17.6-3.4,26.5-3.2c8.3,0.1,16.8,1.9,23.9,6.4l0,0
			c4.4,2.5,8.3,5.6,11.7,9.3l0,0L133,204.2z"/>
		<path id="path3158" class="st11" d="M68.7,200.3c1.1,0,1.3-0.2,1.3-1.6s-0.2-1.6-1.3-1.6s-1.3,0.2-1.3,1.6S67.5,200.3,68.7,200.3z
			"/>
		<path id="path3160" class="st11" d="M79.8,198.4c1.1,0,1.3-0.2,1.3-1.6s-0.2-1.6-1.3-1.6s-1.3,0.2-1.3,1.6S78.7,198.4,79.8,198.4z
			"/>
		<path id="path3164" class="st11" d="M104.8,186.2c1.2,0,1.2,0,1.2-1.3c0-1,0-1.1-1.2-1.1s-1.1,0-1.1,1.1S103.7,186.2,104.8,186.2z
			"/>
		<path id="path3166" class="st11" d="M96.5,185.4c1.2,0,1.2,0,1.2-1.3c0-1,0-1.1-1.2-1.1s-1.2,0-1.2,1.1S95.3,185.4,96.5,185.4z"/>
		<path id="path3168" class="st11" d="M89.1,185.4c1.1,0,1.1,0,1.2-1.2c0-1,0-1-1.2-1s-1.1,0-1.1,1.1S88,185.4,89.1,185.4z"/>
		<path id="path3170" class="st11" d="M81.8,186.2c1.2,0,1.2,0,1.2-1.3c0-1,0-1.1-1.2-1.1s-1.2,0-1.2,1.1S80.7,186.2,81.8,186.2z"/>
		<path id="path3172" class="st11" d="M74.1,187.8c1.1,0,1.1,0,1.2-1.2c0-0.9,0-1.1-1.2-1.1s-1.1,0.2-1.1,1.1S73,187.8,74.1,187.8z"
			/>
		<path id="path2748" class="st8" d="M63.5,194.1c1.4-6.9,0.7-14.3,0.7-21.2"/>
		<path id="path2742" class="st8" d="M99.1,191.3c-0.3,0-8.8,0-11.4,0c-0.3,0-0.5,0.4-0.7,0.7c-1.4,2.2-2.3,4.7-2.4,7.3
			c-0.5,1.4-1.8,3.1-3.2,3.1H70.7c-2.8,0.2-5.4,1.8-6.9,4.3c-0.8,1.5-6.3,1.5-5.2-2.6c2.6-4.4,4-6.3,4.8-10.3"/>
		<path id="path3154" class="st11" d="M74.3,198.9c1.1,0,1.3-0.2,1.3-1.6s-0.2-1.6-1.3-1.6s-1.3,0.2-1.3,1.6S73.2,198.9,74.3,198.9z
			"/>
		<path id="path2714" class="st7" d="M128,194.4c0-0.1-0.1-0.4-0.1-0.4c0-4-0.1-7.1,0-10.9c0.2-3.4,0-6.7-1.8-9.6l0,0
			c-1.5-2.2-3.7-3.9-6.2-4.8c-1.2-0.4-2.5-0.7-3.8-0.8l0,0c-1.1-0.2-2.3-0.2-3.5-0.1h-0.4l0,0c-0.2,0-0.4,0-0.6,0.1l0,0
			c-0.9-0.1-1.8-0.3-2.6-0.7c-0.9-0.4-1.8-0.6-2.8-0.6l0,0c-2.2-0.1-4.5,0.3-6.6,1.2c-1.6,0.5-3.4,0.4-5-0.2l0,0l0,0
			c-2.9-0.9-6.1-1.5-9-0.3l0,0c-1.9,0.7-4,0.8-6,0.4l0,0c-0.8-0.1-1.6-0.3-2.4-0.4l0,0l-0.1-0.1l-5.6,3.4l0,0l-4.8,2.2l0,0
			c0-0.1-0.1-0.1-0.2-0.1h-0.1H66c-0.3,0-0.9,0-1.3,0c-0.3,0-0.5,0.1-0.7,0.3c-0.1,0.1-0.1,0.2-0.1,0.3l0.2,0.4
			c0.1-0.1,0.2-0.2,0.3-0.3c0.1-0.1,0.2-0.1,0.2-0.1c0.4,0,0.7,0,1,0c1.3,3.3,2,6.9,2.1,10.5c0.1,3.2-0.4,6.3-1.7,9.3l0.6-0.2
			c1.2-2.9,1.8-6,1.6-9.1c-0.1-3.5-0.8-6.9-2-10.1l0.2-0.1l5-2.3l0,0l0,0l5.4-3.3c0.8,0.1,1.5,0.3,2.3,0.4l0,0
			c2.1,0.5,4.3,0.3,6.3-0.4l0,0c2.8-0.9,5.9-0.8,8.6,0.5c1.8,0.7,3.8,0.8,5.6,0.2c2.1-0.7,4.1-1.5,6.2-1.3l0,0
			c0.9,0,1.8,0.2,2.6,0.6c1.3,0.4,2.6,0.6,4,0.6c2.4-0.1,4.7,0.2,7,0.9c2.4,0.9,4.5,2.5,5.9,4.6l0,0c1.7,2.8,1.9,6,1.7,9.3
			c0,3.6,0.1,6.9,0,10.9C127.3,194.4,127.7,194.9,128,194.4z"/>
		<path id="path3150" class="st11" d="M119.7,191c1.2,0,1.2,0,1.2-1.2c0-1,0-1-1.2-1s-1.2,0-1.2,1.1S118.5,191,119.7,191z"/>
		<path id="path3162" class="st11" d="M112.7,187.8c1.2,0,1.2,0,1.2-1.2c0-1,0-1.2-1.3-1.2s-1.2,0.3-1.2,1.3
			S111.5,187.8,112.7,187.8z"/>
		<path id="path2716" class="st8" d="M127.7,194.3c6.5,4.6,13.2,18.4,5.7,14.4c-4.6-3.3-9-8.7-11.9-10.4c-6.3-4.3-14.3-6.3-21.9-6.9
			h-0.6"/>
		<path id="path2499" class="st8" d="M110.1,225c-0.3-1.5-0.7-3-1.4-4.4"/>
		<path id="path2515" class="st8" d="M80.7,222.7c-0.4,1-0.6,2.1-0.9,3.2"/>
		<path id="path3235" class="st6" d="M97.4,168.7c2.5-0.1,6.6-3.3,10.2-1.7c3.6,1.6,7.8,1.6,11.4,0c4.3-2,9,3.3,13.4,0.6
			c3.4-1.3,7.3-1,10.5,0.7c-0.4-2-4.1-1.9-5.9-2.2c-2.4-0.2-4.7,1-7,1.6c-4.1,0.3-8.2-3.5-12.2-0.9c-2.9,1.5-6.1,1.3-9.5-0.1
			s-7,0.2-10.2,1.3c-3.6,0.5-6.9-2.8-10.6-1.8c-3.6,1.4-7.5,2.3-11.1,0.3c-4.7-2.6-9.6,3.8-14.2,0.5c-2.6-1.6-8.4-2.5-9.4,1
			c3.3-3.2,7.6-1.2,11.1,0.5c4.3,1.2,8.7-4.1,12.9-1.3c3.4,1.7,6.4,0.9,10.5-0.3C91.8,165.8,94.9,168.9,97.4,168.7z"/>
	</g>
	<path style="clip-path:url(#SVGID_00000030479966598316968600000009091154953044273797_);fill:#E00814;" d="M43.4,10.3
		C43.4,10.3,43.4,10.3,43.4,10.3c-0.2,0.1-0.2,0.1-0.2,0.2c0,0,0.2,76.6,0.2,79c0,27.9,24.5,50.4,54.6,50.4
		c28,0,51.1-19.5,54.2-44.6l0.2-84.8c0-0.1-0.1-0.3-0.2-0.3c0,0,0,0,0,0L43.4,10.3L43.4,10.3z"/>
	
		<path style="clip-path:url(#SVGID_00000030479966598316968600000009091154953044273797_);fill:#FFFFFF;stroke:#333333;stroke-width:1.06;stroke-linecap:round;stroke-linejoin:round;" d="
		M91.4,60c1.8,1.6,2.9,3.9,3.1,6.3v7h-7.1c-2.7,0.1-4.6-1.3-6.3-3.1v12.5c1.4-2,3.8-3.2,6.3-3.1h7.1v7.1c0.1,2.7-1.3,4.6-3.1,6.3
		h12.4c-2-1.4-3.2-3.8-3.1-6.3v-7.1h7c2.5,0.2,4.8,1.3,6.4,3.1V70.3c-1.6,1.8-3.9,2.9-6.3,3.1h-7v-7c0.2-2.5,1.3-4.8,3.1-6.4
		L91.4,60z M91.4,96.1c1.8,1.6,2.9,3.9,3.1,6.3v7h-7.1c-2.7,0.1-4.6-1.3-6.3-3.1v12.4c1.4-2.1,3.8-3.2,6.3-3.1h7.1v7.1
		c0.1,2.7-1.3,4.6-3.1,6.3h12.4c-2-1.4-3.2-3.8-3.1-6.3v-7.1h7c2.5,0.2,4.8,1.3,6.4,3.1v-12.3c-1.6,1.8-3.9,2.9-6.3,3.1h-7v-7
		c0.2-2.5,1.3-4.7,3.1-6.4H91.4z"/>
	
		<path style="clip-path:url(#SVGID_00000030479966598316968600000009091154953044273797_);fill:none;stroke:#424242;stroke-width:1.87;stroke-miterlimit:5.63;" d="
		M126.6,29.8c-1.6,0.4-3.7,0-4.5-1.2c0.3-0.5,1-0.6,1.5-0.8c-1.1-0.1-2.4-0.6-2.4-1.5c0.3-1.4,1.2-1.3,2.4-1.1
		c-0.3-0.5-0.3-1-0.1-1.5c1.2-0.3,2.5-0.1,3.7,0.5c-0.4-2.1-0.3-3.9,0.9-5.2c0.8,0.2,1.5,0.5,1.6,1.3c-0.1-1.1,0.3-2.1,1-2.9
		c0.5,0.5,0.9,1.1,1,1.8l-1.2,3 M65.6,29.5l0.7,0.2c1.6,0.4,3.5,0.1,4.3-1.1c-0.3-0.5-1.1-0.6-1.7-0.8c1.1-0.1,2.6-0.6,2.5-1.5
		c-0.2-1.4-1.3-1.4-2.4-1.1c0.3-0.5,0.3-1.1,0-1.7c-1.2-0.3-2.5-0.1-3.7,0.5c0.4-2.1,0.3-3.9-0.9-5.2c-0.8,0.1-1.4,0.7-1.7,1.4
		c0.1-1-0.2-2.1-0.9-2.8c-0.5,0.5-0.9,1.1-1,1.8l1.2,3.5"/>
	
		<path style="clip-path:url(#SVGID_00000030479966598316968600000009091154953044273797_);fill-rule:evenodd;clip-rule:evenodd;fill:#FFE407;" d="
		M60.8,19.2l1.1,3.1l3.9,7.4c1.5,0.2,3.1,0.6,4.6-1c0-0.6-0.8-0.7-1.5-0.9c1.3-0.1,2.5-0.5,2.4-1.5c-0.2-1-1.2-1.2-2.5-0.9
		c0.3-0.5,0.3-1.1,0.1-1.6c-2.1-0.2-3.1,0-3.7,0.7c0.4-2.4,0.2-4.3-0.8-5.3c-0.8,0-1.2,0.6-1.6,1.2c0.1-1-0.2-2-0.9-2.7
		C61.3,17.9,60.9,18.5,60.8,19.2L60.8,19.2z"/>
	
		<path style="clip-path:url(#SVGID_00000030479966598316968600000009091154953044273797_);fill:none;stroke:#424242;stroke-miterlimit:5.63;" d="
		M131.7,19.2c-0.1-0.7-0.5-1.4-1-1.8c-0.7,0.7-1.1,1.7-1,2.7c-0.1-0.8-0.7-1.1-1.6-1.3c-1.2,1.3-1.4,3-1,5.2
		c-1.1-0.6-2.4-0.7-3.6-0.4c-0.3,0.5-0.3,1.1,0,1.7c-1.1-0.3-2.1-0.3-2.4,1.1c-0.1,0.9,0.9,1.4,2,1.5c-0.5,0.1-0.9,0.3-1.2,0.8
		c0.8,1.2,2.7,1.5,4.3,1.1"/>
	
		<path style="clip-path:url(#SVGID_00000030479966598316968600000009091154953044273797_);fill-rule:evenodd;clip-rule:evenodd;fill:#FFE407;" d="
		M131.8,19.4l-1.1,3.1l-3.9,7.4c-1.5,0.2-3.1,0.6-4.6-1c0.1-0.6,0.8-0.6,1.5-0.9c-1.3-0.1-2.5-0.5-2.4-1.5s1.2-1.2,2.5-0.9
		c-0.3-0.5-0.3-1.1-0.1-1.6c2.1-0.2,3.1,0,3.7,0.7c-0.4-2.4-0.2-4.3,0.8-5.3c0.9,0,1.2,0.6,1.6,1.2c-0.1-1,0.2-2,0.9-2.7
		C131.3,18,131.7,18.7,131.8,19.4L131.8,19.4z"/>
	
		<path style="clip-path:url(#SVGID_00000030479966598316968600000009091154953044273797_);fill:none;stroke:#424242;stroke-width:1.87;stroke-miterlimit:5.63;" d="
		M96.2,29.2c-2.1,0.6-4.4,0.9-6.6,0.8c0-0.8,0.3-1.6,0.8-2.2c-1.4-0.1-2.2,0-2.5-1.1c0.2-0.9,0.8-1.3,2.4-1.3
		c-0.6-0.5-0.9-1.2-0.9-1.9c1.5-0.2,2.9-0.1,4.4,0.3c-0.7-1.9-0.5-3.9-0.5-5.8c0.8-0.4,1.2,0.3,1.8,0.6c0-2,0.5-3,1.3-3.3
		c0.8,0.3,1.3,1.2,1.3,3.3c0.6-0.3,0.9-1.1,1.8-0.6c0,1.9,0.2,3.8-0.5,5.8c1.4-0.4,2.9-0.5,4.3-0.3c0,0.7-0.3,1.4-0.9,1.9
		c1.6,0,2.2,0.4,2.4,1.3c-0.3,1.1-1.1,1.1-2.5,1.1c0.5,0.6,0.8,1.4,0.8,2.2C100.8,30.1,98.5,29.8,96.2,29.2z"/>
	
		<path style="clip-path:url(#SVGID_00000030479966598316968600000009091154953044273797_);fill-rule:evenodd;clip-rule:evenodd;fill:#FEE308;" d="
		M96.2,29.1c-2.1,0.6-4.2,0.8-6.3,0.8c0-0.8,0.2-1.6,0.8-2.1c-1.3-0.1-2.1,0-2.4-1.1c0.2-0.9,0.8-1.3,2.3-1.3
		c-0.5-0.5-0.8-1.1-0.9-1.8c1.4-0.2,2.8-0.1,4.2,0.3c-0.7-1.9-0.5-3.7-0.5-5.6c0.8-0.4,1.2,0.3,1.7,0.6c0-2,0.4-2.9,1.2-3.2
		c0.8,0.3,1.2,1.2,1.2,3.2c0.5-0.3,0.9-1.1,1.7-0.6c0,1.9,0.2,3.7-0.5,5.6c1.4-0.4,2.8-0.5,4.2-0.3c0,0.7-0.3,1.4-0.8,1.8
		c1.5,0,2.1,0.4,2.2,1.3c-0.2,1.1-1,1-2.4,1.1c0.5,0.6,0.8,1.4,0.8,2.1C100.6,30,98.4,29.7,96.2,29.1z"/>
	
		<path style="clip-path:url(#SVGID_00000030479966598316968600000009091154953044273797_);fill:none;stroke:#424242;stroke-width:1.4;" d="
		M78.7,32.4c-2,0.6-4.1,0.8-6.3,0.8c0-0.8,0.3-1.5,0.8-2.1c-1.3-0.1-2.1,0-2.3-1.1c0.2-0.9,0.8-1.3,2.2-1.3
		c-0.5-0.5-0.8-1.1-0.8-1.8c1.4-0.2,2.8-0.1,4.1,0.3c-0.7-1.8-0.5-3.7-0.5-5.5c0.8-0.4,1.2,0.3,1.7,0.6c0-1.9,0.4-2.8,1.2-3.1
		c0.8,0.3,1.2,1.2,1.2,3.1c0.5-0.3,0.9-1,1.7-0.6c0,1.8,0.2,3.7-0.5,5.5c1.3-0.4,2.7-0.5,4.1-0.3c0,0.7-0.3,1.4-0.8,1.8
		c1.5,0,2,0.4,2.2,1.3c-0.2,1.1-1,1-2.4,1.1c0.5,0.6,0.8,1.3,0.8,2.1C83,33.3,80.8,33,78.7,32.4z"/>
	
		<path style="clip-path:url(#SVGID_00000030479966598316968600000009091154953044273797_);fill-rule:evenodd;clip-rule:evenodd;fill:#FEE308;" d="
		M78.7,32.3c-2,0.5-4,0.8-6,0.8c0-0.8,0.2-1.5,0.7-2c-1.3-0.1-2,0-2.3-1c0.2-0.8,0.7-1.2,2.1-1.2c-0.5-0.5-0.8-1.1-0.8-1.8
		c1.3-0.2,2.7-0.1,4,0.3c-0.7-1.8-0.4-3.5-0.4-5.3c0.8-0.4,1.1,0.3,1.6,0.6c0-1.9,0.4-2.7,1.2-3c0.7,0.3,1.2,1.1,1.2,3
		c0.5-0.3,0.8-1,1.6-0.6c0,1.8,0.2,3.5-0.4,5.3c1.3-0.4,2.7-0.5,4-0.3c0,0.7-0.3,1.3-0.8,1.8c1.4,0,2,0.4,2.1,1.2c-0.2,1-1,1-2.2,1
		c0.5,0.6,0.7,1.4,0.7,2.1C82.9,33.2,80.8,32.9,78.7,32.3L78.7,32.3z"/>
	
		<path style="clip-path:url(#SVGID_00000030479966598316968600000009091154953044273797_);fill:none;stroke:#424242;stroke-width:1.4;" d="
		M113.4,32.4c-2,0.6-4.1,0.8-6.2,0.8c0-0.8,0.2-1.5,0.8-2.1c-1.3-0.1-2.1,0-2.4-1.1c0.2-0.9,0.8-1.3,2.2-1.3
		c-0.5-0.5-0.8-1.1-0.8-1.8c1.4-0.2,2.8-0.1,4.1,0.3c-0.7-1.8-0.5-3.7-0.5-5.5c0.8-0.4,1.2,0.3,1.7,0.6c0-1.9,0.4-2.8,1.2-3.1
		c0.8,0.3,1.2,1.2,1.2,3.1c0.5-0.3,0.9-1,1.7-0.6c0,1.8,0.2,3.7-0.5,5.5c1.3-0.4,2.7-0.5,4.1-0.3c0,0.7-0.3,1.4-0.8,1.8
		c1.5,0,2,0.4,2.2,1.3c-0.2,1.1-1,1-2.3,1.1c0.5,0.6,0.8,1.3,0.8,2.1C117.8,33.3,115.6,33,113.4,32.4z"/>
	
		<path style="clip-path:url(#SVGID_00000030479966598316968600000009091154953044273797_);fill-rule:evenodd;clip-rule:evenodd;fill:#FEE308;" d="
		M113.4,32.3c-2,0.5-4,0.8-6,0.8c0-0.8,0.2-1.5,0.7-2c-1.3-0.1-2,0-2.3-1c0.2-0.8,0.7-1.2,2.2-1.2c-0.5-0.4-0.8-1.1-0.8-1.8
		c1.3-0.2,2.7-0.1,4,0.3c-0.7-1.8-0.4-3.5-0.4-5.3c0.8-0.4,1.1,0.3,1.6,0.6c0-1.9,0.4-2.7,1.2-3c0.7,0.3,1.2,1.1,1.2,3
		c0.5-0.3,0.9-1,1.6-0.6c0,1.8,0.2,3.5-0.4,5.3c1.3-0.4,2.7-0.5,4-0.3c0,0.7-0.3,1.3-0.8,1.8c1.4,0,2,0.4,2.1,1.2c-0.2,1-1,1-2.3,1
		c0.5,0.6,0.8,1.3,0.7,2C117.7,33.2,115.6,32.9,113.4,32.3L113.4,32.3z"/>
	
		<path style="clip-path:url(#SVGID_00000030479966598316968600000009091154953044273797_);fill-rule:evenodd;clip-rule:evenodd;fill:#FFE209;stroke:#424242;stroke-width:0.75;stroke-miterlimit:5.63;" d="
		M96.1,21.1c-0.4,1-0.2,5.2-3.6,5.5c0.8,0.5,1.6,1,2.3,1.6c0.4,1,0.4,2.1-0.1,3c-3.5,6.2-11.3,5.2-14.6,1.4c0.7-1,1.5-1.9,2.5-2.5
		c-2.1-0.8-2.9-3.4-3.5-5c-0.6,1.8-1.1,4.1-3.6,4.9c1,0.6,1.8,1.5,2.3,2.5c-1.8,1.7-4.3,4.2-7,3.9c-4.1,0-7.1-6.7-3.3-9.6
		c-3.5-0.6-4.2-2.9-5.7-4.7l8.5,28.9c17.2-2.9,34.8-2.9,52,0l8.4-28.9c-1.5,1.8-2.2,4.1-5.7,4.7c3.8,2.9,0.8,9.6-3.2,9.6
		c-2.7,0.2-5.2-2.2-7-3.9c0.6-1,1.4-1.8,2.3-2.5c-2.4-0.9-2.9-3.2-3.6-4.9c-0.6,1.7-1.5,4.3-3.5,5c1,0.7,1.8,1.5,2.5,2.5
		c-3.3,3.8-11.1,4.8-14.6-1.4c-0.5-0.9-0.5-2-0.1-3c0.7-0.6,1.5-1.1,2.3-1.6C96.8,26.2,96.9,22,96.1,21.1L96.1,21.1z"/>
	
		<path style="clip-path:url(#SVGID_00000030479966598316968600000009091154953044273797_);fill:none;stroke:#424242;stroke-width:1.26;stroke-linecap:round;stroke-linejoin:round;" d="
		M79.1,42.1l5-0.4c1.2-0.1,2.3,0.8,2.5,2l0,0c0.2,1.1-0.6,2.2-1.8,2.4c0,0-0.1,0-0.1,0l-5,0.4c-1.2,0.1-2.3-0.8-2.5-2l0,0
		c-0.2-1.2,0.6-2.2,1.8-2.4C79,42.1,79,42.1,79.1,42.1z"/>
	
		<path style="clip-path:url(#SVGID_00000030479966598316968600000009091154953044273797_);fill:none;stroke:#424242;stroke-width:1.26;stroke-linecap:round;stroke-linejoin:round;" d="
		M114.2,42.2l-5-0.4c-1.2-0.1-2.3,0.8-2.5,2l0,0c-0.2,1.1,0.6,2.2,1.8,2.4c0,0,0.1,0,0.1,0l5,0.4c1.2,0.1,2.3-0.8,2.5-2l0,0
		c0.2-1.1-0.6-2.2-1.8-2.4C114.3,42.2,114.2,42.2,114.2,42.2z"/>
	
		<path style="clip-path:url(#SVGID_00000030479966598316968600000009091154953044273797_);fill:none;stroke:#424242;stroke-width:0.75;stroke-miterlimit:5.63;" d="
		M91.5,43.6l4.8-2.8l4.8,2.8l-5,2.7L91.5,43.6L91.5,43.6z M68.3,43l4.6,2.2L70,48.6 M124.3,43l-4.6,2.2l2.8,3.4"/>
	
		<path style="clip-path:url(#SVGID_00000030479966598316968600000009091154953044273797_);fill-rule:evenodd;clip-rule:evenodd;fill:#FFE209;stroke:#424242;stroke-width:0.75;stroke-miterlimit:5.63;" d="
		M121.7,50.8C105,56,87.1,56,70.3,50.9C87.3,48.1,104.7,48.1,121.7,50.8z"/>
	
		<path style="clip-path:url(#SVGID_00000030479966598316968600000009091154953044273797_);fill:none;stroke:#424242;stroke-width:0.75;stroke-miterlimit:5.63;" d="
		M69.9,49.1c17.3-2.8,35-2.8,52.3,0 M67.8,41.5c18.9-2.8,38-2.8,56.9,0"/>
	
		<path style="clip-path:url(#SVGID_00000030479966598316968600000009091154953044273797_);fill:none;stroke:#424242;stroke-width:0.75;stroke-miterlimit:5.63;" d="
		M67.3,39.8c19.2-2.8,38.8-2.9,58-0.1"/>
	
		<path style="clip-path:url(#SVGID_00000030479966598316968600000009091154953044273797_);fill:none;stroke:#424242;stroke-width:0.75;stroke-miterlimit:5.63;" d="
		M65.3,25.9c-1.2,1.8-2,11,5.3,12.2c3.2,0.1,6.3-1.5,8-4.3c2,2.4,5,3.7,8.2,3.5c4.5-0.1,7.8-2.1,9.3-5.7c1.5,3.5,4.8,5.5,9.3,5.7
		c3.1,0.2,6.1-1.1,8.2-3.5c1.7,2.8,4.8,4.4,8,4.3c7.8-1.5,6.5-9.8,5.3-12.2"/>
	
		<path style="clip-path:url(#SVGID_00000030479966598316968600000009091154953044273797_);fill:none;stroke:#424242;stroke-width:0.72;stroke-linecap:round;stroke-linejoin:round;" d="
		M98,26.6c0,0.9-0.7,1.6-1.6,1.6c-0.9,0-1.6-0.8-1.5-1.6c0-0.9,0.8-1.6,1.6-1.5C97.3,25,98,25.7,98,26.6"/>
	
		<path style="clip-path:url(#SVGID_00000030479966598316968600000009091154953044273797_);fill:none;stroke:#424242;stroke-width:0.72;stroke-linecap:round;stroke-linejoin:round;" d="
		M115.1,30c0,0.9-0.7,1.6-1.6,1.7c-0.9,0-1.6-0.7-1.7-1.6c0-0.9,0.7-1.6,1.6-1.7c0,0,0,0,0,0C114.4,28.4,115.1,29.1,115.1,30"/>
	
		<path style="clip-path:url(#SVGID_00000030479966598316968600000009091154953044273797_);fill:none;stroke:#424242;stroke-width:0.72;stroke-linecap:round;stroke-linejoin:round;" d="
		M80.7,30c0,0.9-0.7,1.6-1.6,1.7c-0.9,0-1.6-0.7-1.7-1.6c0-0.9,0.7-1.6,1.6-1.7c0,0,0,0,0,0C79.9,28.4,80.7,29.1,80.7,30
		C80.7,30,80.7,30,80.7,30"/>
	<path style="clip-path:url(#SVGID_00000030479966598316968600000009091154953044273797_);fill:#FFFFFF;" d="M80,99.6
		c-12.6,0-22.9,10.2-22.9,30.5c0,25.4,18.2,50.9,40.7,50.9s40.7-25.4,40.7-50.9c0-20.3-10.2-30.5-22.9-30.5
		c-6.9,0-13.5,3.1-17.8,8.5C93.5,102.8,86.9,99.6,80,99.6z"/>
	<path style="clip-path:url(#SVGID_00000030479966598316968600000009091154953044273797_);fill:#FFFFFF;" d="M30.4,112.8h134.7
		c3,0,5.5,2.4,5.5,5.5v44c0,3-2.4,5.5-5.5,5.5H30.4c-3,0-5.5-2.4-5.5-5.5v-44C25,115.3,27.4,112.8,30.4,112.8z"/>
	<g style="clip-path:url(#SVGID_00000030479966598316968600000009091154953044273797_);enable-background:new    ;">
		<text transform="matrix(1 0 0 1 60 138.8099)" class="st24 st25 st26">Gdańsk</text>
	</g>
	<g style="clip-path:url(#SVGID_00000030479966598316968600000009091154953044273797_);enable-background:new    ;">
		<text transform="matrix(1 0 0 1 59.84 161.89)" class="st24 st25 st26">Slonim</text>
	</g>
	<path style="clip-path:url(#SVGID_00000030479966598316968600000009091154953044273797_);fill:#FFFFFF;" d="M44.8,0h-29h-16v16
		c0,7,0,14,0,21c10.3,12.4,28.6,14.1,41,3.8c6.7-5.6,10.6-13.8,10.5-22.5C51.3,11.6,49,5.2,44.8,0z"/>
	<g style="clip-path:url(#SVGID_00000030479966598316968600000009091154953044273797_);enable-background:new    ;">
		<text transform="matrix(1 0 0 1 15.44 31.75)" class="st24 st25 st27">33</text>
	</g>
</g>
</svg>
