<svg id="Слой_1" data-name="Слой 1" xmlns="http://www.w3.org/2000/svg" xmlns:xlink="http://www.w3.org/1999/xlink" viewBox="0 0 195.59 280.63"><defs><style>.cls-1,.cls-17,.cls-22{fill:none;}.cls-2{fill:#10a651;}.cls-2,.cls-3,.cls-5,.cls-6{stroke:#010101;}.cls-12,.cls-13,.cls-14,.cls-15,.cls-16,.cls-17,.cls-18,.cls-19,.cls-2,.cls-20,.cls-23,.cls-3,.cls-5{stroke-linecap:round;}.cls-12,.cls-13,.cls-14,.cls-15,.cls-16,.cls-17,.cls-18,.cls-19,.cls-2,.cls-20,.cls-23,.cls-3{stroke-linejoin:round;}.cls-3{fill:#1986c8;stroke-width:2px;}.cls-14,.cls-23,.cls-4,.cls-5,.cls-6{fill:#e8e7e7;}.cls-6{stroke-linecap:square;}.cls-20,.cls-25,.cls-26,.cls-27,.cls-7{fill:#e94539;}.cls-8{fill:#424242;}.cls-10,.cls-11,.cls-8,.cls-9{fill-rule:evenodd;}.cls-9{fill:#dc2d28;}.cls-10,.cls-24{fill:#fff;}.cls-11{fill:#f3b303;}.cls-12,.cls-13,.cls-14,.cls-15,.cls-16,.cls-17,.cls-18,.cls-19,.cls-20,.cls-21,.cls-22,.cls-23{stroke:#424242;}.cls-12,.cls-13,.cls-14,.cls-15,.cls-16,.cls-17,.cls-18,.cls-19,.cls-20{stroke-width:0.75px;}.cls-12{fill:url(#d);}.cls-13{fill:url(#ee);}.cls-15{fill:url(#e);}.cls-16{fill:url(#f);}.cls-18{fill:url(#e-3);}.cls-19{fill:url(#f-3);}.cls-21{fill:#efefef;}.cls-21,.cls-22{stroke-miterlimit:10;stroke-width:0.25px;}.cls-23{stroke-width:0.5px;}.cls-25{font-size:19.11px;}.cls-25,.cls-26,.cls-27{font-family:Impact;}.cls-26{font-size:24.77px;}.cls-27{font-size:20px;}</style><pattern id="d" data-name="d" width="302" height="362" patternTransform="translate(249.3 -261.25) scale(0.33)" patternUnits="userSpaceOnUse" viewBox="0 0 302 362"><rect class="cls-1" width="302" height="362"/><path class="cls-2" d="M0,57H302V-3H0"/><path class="cls-3" d="M0,362H302V57H0"/></pattern><pattern id="ee" data-name="ee" width="28" height="30" patternTransform="matrix(0.33, 0, 0, -0.33, 27.33, 271.13)" patternUnits="userSpaceOnUse" viewBox="0 0 28 30"><rect class="cls-1" width="28" height="30"/><path class="cls-4" d="M0,30H30V0H0"/><path class="cls-5" d="M14.5,14.5V-.5m-14,30h28v-15H.5Z"/></pattern><pattern id="e" data-name="e" width="28" height="30" patternTransform="matrix(0.33, 0, 0, -0.33, 26.33, 271.13)" patternUnits="userSpaceOnUse" viewBox="0 0 28 30"><rect class="cls-1" width="28" height="30"/><path class="cls-4" d="M0,30H30V0H0"/><path class="cls-5" d="M14.5,14.5V-.5m-14,30h28v-15H.5Z"/></pattern><pattern id="f" data-name="f" width="15" height="15" patternTransform="matrix(0.24, -0.24, -0.24, -0.24, -6.41, 281.1)" patternUnits="userSpaceOnUse" viewBox="0 0 15 15"><rect class="cls-1" width="15" height="15"/><rect class="cls-6" width="15" height="15"/></pattern><pattern id="e-3" data-name="e" width="28" height="30" patternTransform="translate(114.58 271.13) rotate(-180) scale(0.33)" patternUnits="userSpaceOnUse" viewBox="0 0 28 30"><rect class="cls-1" width="28" height="30"/><path class="cls-4" d="M0,30H30V0H0"/><path class="cls-5" d="M14.5,14.5V-.5m-14,30h28v-15H.5Z"/></pattern><pattern id="f-3" data-name="f" width="15" height="15" patternTransform="translate(101.58 281.1) rotate(-135) scale(0.33)" patternUnits="userSpaceOnUse" viewBox="0 0 15 15"><rect class="cls-1" width="15" height="15"/><rect class="cls-6" width="15" height="15"/></pattern></defs><rect class="cls-7" x="-6.62" y="-8.4" width="214.01" height="297.89"/><g id="Warstwa_1"><g id="_52208184" data-name=" 52208184"><path id="_52208472" data-name=" 52208472" class="cls-8" d="M46.75,267.92V146.15c0-10.53,4.76-16.34,16.18-16.32h21c6.12,0,10.59-3,13.87-8,3.27,5,7.74,8,13.86,8h21c11.42,0,16.16,5.79,16.18,16.32V267.92Z"/><path id="_52208400" data-name=" 52208400" class="cls-9" d="M148,197V267.1H47.57V197h2.86v-5.85h1.83V228.3H50.92v7h3.8v-3.71h.81v3.71h3.79v-3.71h.81v3.71h3.79v-3.71h.82v3.71h3.79v-3.71h.81v3.71h3.78v-7H71.78V197h4.09v-5.85h5.44V197h2.14v37.57H82.11v7h3.8v-3.71h.82v3.71h3.78v-3.71h.82v3.71h3.79v-3.71h.81v3.71h3.73v-3.71h.81v3.71h3.79v-3.71h.82v3.71h3.79v-3.71h.81v3.71h3.8v-7h-1.34V197H114v-5.85h5.43V197h4.34V228.3h-1.34v7h3.78v-3.71h.81v3.71h3.79v-3.71h.82v3.71h3.79v-3.71h.81v3.71h3.79v-3.71h.81v3.71h3.8v-7h-1.34V191.13h1.59V197ZM113.31,242.2l5.12,6.07c-4.77,6.45-11.62,11.92-20.63,16.38-9-4.46-15.87-9.93-20.64-16.38l5.12-6.07Z"/><path id="_52208328" data-name=" 52208328" class="cls-10" d="M96.73,240.76v-3.71H94.29v3.71H92.13v-3.71H89.69v3.71H87.53v-3.71H85.09v3.71H82.93v-5.4h29.73v5.4H110.5v-3.71h-2.44v3.71H105.9v-3.71h-2.44v3.71H101.3v-3.71H98.86v3.71Zm5-30.52v5h-.44v-5Zm-7.37,5h-.58v-5h.58Zm7.37,7.4v5h-8v-5Zm0-24.71v5H93.84v-5ZM135,186v-5H123.1v5Zm-74.31,0v-5H72.49v5ZM135,149v-5H123.1v5Zm-74.31,0v-5H72.49v5ZM110,186v-5h11.85v5Zm-24.47,0v-5H73.71v5Zm33.15-42h3.17v5h-4.14V144.8h1v-.73Zm-41.83,0H73.71v5h4.14V144.8h-1v-.73Zm40.45,24.64h4.55v5h-6.17A19.25,19.25,0,0,0,117.33,168.71Zm-39.07,0H73.71v5h6.17A19.64,19.64,0,0,1,78.26,168.71Zm39.48-37h4.14v5h-4.14Zm-39.89,0H73.71v5h4.14Zm39.89,24.64h4.14v5h-4.14Zm-39.89,0H73.71v5h4.14Zm70.17,0v5H136.17v-5Zm-100.45,0v5H59.42v-5ZM148,181.07v5H136.17v-5Zm-100.45,0v5H59.42v-5ZM148,146.54V149H136.17v-5h11.74c.07.79.11,1.61.11,2.47Zm-100.45,0V149H59.42v-5H47.68C47.61,144.86,47.57,145.68,47.57,146.54ZM148,168.72v5H136.17v-5Zm-100.45,0v5H59.42v-5Zm98.22-32h-9.62v-5h3.62A11.36,11.36,0,0,1,145.79,136.68Zm-96,0h9.62v-5H55.8a11.36,11.36,0,0,0-6,5ZM135,156.35H123.1v5H135Zm-74.31,0H72.49v5H60.64ZM135,173.67v-1.38a3,3,0,0,1-1.71,1.38Zm-6.57-5H123.1v5h7.35a2.92,2.92,0,0,1-2.07-2.86v-2.1Zm-67.74,5V172.3a2.94,2.94,0,0,0,.8,1.37Zm6.82-5h5v5H66.54a3.07,3.07,0,0,0,.92-2.29Zm67.49-32v-5H123.1v5Zm-74.31,0v-5H72.49v5Zm48.16,44.56V186h-8.69v-1.94a20.82,20.82,0,0,0,8.69-2.86Zm-22,0V186h8.69v-1.94a20.87,20.87,0,0,1-8.69-2.86Zm28.27-6.34h.3v5h-4.57A17.82,17.82,0,0,0,115.06,174.89Zm1.53,5v-5h11.85v5Zm24.92,0v-5H129.66v5Zm6.51,0h-5.29v-5H148Zm-67.49-5h-.3v5H84.8A17.82,17.82,0,0,1,80.53,174.89Zm-1.53,5v-5H67.15v5Zm-24.92,0v-5H65.93v5Zm-6.51,0h5.29v-5H47.57Zm70.17-42h10.7v5h-9.73V140.3h-1v-2.42Zm23.77,5v-5H129.66v5Zm6.27,0h-5.05v-5h3.68a17.75,17.75,0,0,1,1.37,5Zm-69.93-5H67.15v5h9.73V140.3h1v-2.42Zm-23.77,5v-5H65.93v5Zm-6.26,0h5v-5H49.18A17.75,17.75,0,0,0,47.82,142.84Zm70.89,19.7h9.67v5H117.52c0-.37.09-.75.13-1.13h1.06v-3.83Zm22.85,5v-5h-6.25v5Zm6.46,0h-5.24v-5H148Zm-71.14-5H67.46v5H78.07c0-.37-.09-.75-.13-1.13H76.88v-3.83ZM54,167.5v-5h6.5v5Zm-6.46,0h5.24v-5H47.57Zm70.17-17.3h10.8v5h-10.8Zm23.87,5v-5H129.76v5Zm6.41,0h-5.19v-5H148Zm-70.17-5H67.05v5h10.8Zm-23.87,5v-5H65.83v5Zm-6.41,0h5.19v-5H47.57Zm98.14,41v-5.85h-7.16v5.85h-5.43v-5.85h-7.29v5.85H120.4v-5.85h-7.29v5.85h-5.43v-5.85h-7.29v5.85H95v-5.85H87.67v5.85H82.23v-5.85H75v5.85H69.51v-5.85H62.22v5.85H56.79v-5.85H49.5v5.85H47.57v-8.9H148v8.9Zm-3.19.43h-3v-5.47h3Zm-89.45,0h3v-5.47h-3Zm58.26,1.28v5H103v-5Zm-27.07,0v5h8.36v-5Zm42.5-1.28v-5.47h5.43v5.47Zm-57.93,0v-5.47H63.4v5.47Zm32.49.09h5.41v-5.56h-5.41v5.56Zm-7.31,0H88.6v-5.56H94Zm47.68,34.11h-2.44v3.71h-2.16V230.8h-2.44v3.71h-2.16V230.8h-2.44v3.71h-2.16V230.8h-2.44v3.71h-2.16v-5.4h20.57v5.4h-2.17V230.8Zm-87.79,0h2.44v3.71H58.5V230.8h2.44v3.71H63.1V230.8h2.44v3.71H67.7V230.8h2.44v3.71h2.17v-5.4H51.73v5.4H53.9Zm83.67-15.67v-5h-8v5Zm-79.54,0v-5h8v5Zm48.34,6.25v-5h-5v2.8a3.39,3.39,0,0,1-.7,2.16Zm-17.15,0v-5H94.4v2.8a3.39,3.39,0,0,0,.71,2.16Zm48.35-23.57h-8v5h8v-5Zm-79.54,0h8v5H58Zm48.34,6.25h-8v5h8Zm-17.15,0h8v5h-8Zm53.3,18.47v5h-3.73v-5Zm-89.45,0v5h3.74v-5Zm58.26,6.25v5h-3.74v-5Zm-27.07,0v5H88v-5Zm58.26-12.43v5h-8.34v-5Zm-89.45,0v5h8.34v-5Zm58.26,6.25v5H103v-5Zm-27.07,0v5H92.6v-5Zm58.26-12.43v5h-3.73v-5Zm-89.45,0v5h3.74v-5Zm58.26,6.25v5h-3.74v-5Zm-27.07,0v5H88v-5ZM142.52,204v5h-8.34v-5Zm-89.45,0v5h8.34v-5Zm58.26,6.25v5H103v-5Zm-27.07,0v5H92.6v-5Zm58.26-12.43v5h-3.73v-5Zm-89.45,0v5h3.74v-5Zm58.26,6.25v5h-3.74v-5Zm-27.06,0v5H88v-5Zm40.35-1.29v-5h3.72v5Zm-53.65,0v-5H67.26v5ZM124.62,209v-5H133v5ZM71,209v-5H62.63v5Zm53.65,6.18v-5h3.72v5Zm-53.65,0v-5H67.26v5Zm53.65,6.18v-5H133v5Zm-53.65,0v-5H62.63v5Zm53.65,6.18v-5h3.72v5Zm-53.65,0v-5H67.26v5Zm66.6,0v-5h-8v5Zm-79.54,0v-5h8v5Zm48.34,6.25v-5h-8v5Zm-17.15,0v-5h8v5Z"/><path id="_52208256" data-name=" 52208256" class="cls-11" d="M98.82,252.59v1.75h1.74v2.14H98.82v1.75H96.67v-1.75H94.93v-2.14h1.74v-1.75Zm7.09,4.64v-12.6h6.47l3.21,3.69a58.71,58.71,0,0,1-9.68,8.91Zm-16.23,0v-12.6H83.21L80,248.32a58.71,58.71,0,0,0,9.68,8.91Zm11.69.07H99.63V259H95.86V257.3H94.11v-3.78h1.75v-1.74h3.77v1.74h1.74v3.78Zm1.84-12.67v14.14A23.82,23.82,0,0,1,97.8,262a23.69,23.69,0,0,1-5.42-3.22V244.63ZM82.7,242.9l-4.56,5.46a56.81,56.81,0,0,0,19.65,15.4,56.76,56.76,0,0,0,19.66-15.4l-4.56-5.46Zm7.82,15.87v-15H82.93l-3.82,4.53a57.31,57.31,0,0,0,11.41,10.45Zm.88-14.94v15.45a34.87,34.87,0,0,0,6.39,3.64,34.63,34.63,0,0,0,6.4-3.64V243.83Zm13.67,14.94v-15h7.59l3.82,4.53A57.31,57.31,0,0,1,105.07,258.77ZM117.87,144h-3.71v-2.83h3.71V144Zm-40.15,0h3.71v-2.83H77.72V144Zm40.15,21.56h-3.71V162.7h3.71Zm-40.15,0h3.71V162.7H77.72Zm36.44-35v9.75h2.76v-9.75Zm-14,52.72c8.11-.87,15.67-6.5,16.69-16.9h-2.92c-1.32,8.52-7.3,13.23-13.77,14.11v2.79Zm16.81-21.4V144.8h-2.76v17.07ZM81.43,130.55v9.75H78.67v-9.75Zm14,52.72c-8.11-.87-15.67-6.5-16.69-16.9h2.92C83,174.89,89,179.6,95.48,180.48v2.79Zm-16.81-21.4V144.8h2.76v17.07Zm20.56,23H96.36V180h2.87Zm14.12-54.33v10.83h-.66l-5.13-4.69-1.43,1.51,2.91,3.18h-2.38l-3-3.06L102,139.67l1.32,1.71H99.49V125.21A16.4,16.4,0,0,0,112,130.55Zm0,13.64V162.4c0,.1,0,.2,0,.3h-.65L107.56,158l-1.43,1.5L109,162.7h-2.38l-3-3.06L102,161l1.32,1.72H99.49V144.19h3.87L102,146l1.71,1.35,3-3.15h2.37l-3,3.27,1.43,1.51,5.22-4.78Zm-.2,21.32c-1.12,8.52-6.83,13.23-13,14.15v-.49h-.62V165.51h3.87l-1.38,1.8,1.71,1.34,3-3.14h2.37l-3,3.26,1.43,1.51,5.22-4.77Zm-30.91-35v10.83h.66L88,136.69l1.43,1.51-2.91,3.18h2.38l3-3.06,1.71,1.35-1.32,1.71H96.1V125.21a16.4,16.4,0,0,1-12.54,5.34Zm0,13.64V162.4c0,.1,0,.2,0,.3h.65L88,158l1.43,1.5-2.91,3.19h2.38l3-3.06L93.61,161l-1.32,1.72H96.1V144.19H92.23l1.38,1.8-1.71,1.35-3.05-3.15H86.48l3,3.27L88,149l-5.22-4.78Zm.2,21.32c1.12,8.52,6.83,13.23,13,14.15v-.49h.62V165.51H92.23l1.38,1.8-1.71,1.34-3.05-3.14H86.48l3,3.26L88,170.28l-5.22-4.77Zm17-2h5.25l-1.86-2.36.77-.62,2.87,3h4.09L107,159.6l.61-.7,5.07,4.61h.61c0,.4,0,.8-.08,1.18h-.44l-5.16,4.7-.61-.7,3.65-4H106.6l-2.95,3.06-.77-.61,1.92-2.45H99.49v-1.18Zm-3.39,0H90.85l1.86-2.36-.77-.62-2.87,3H85l3.58-3.91-.61-.7-5.07,4.61h-.61c0,.4,0,.8.08,1.18h.44l5.16,4.7.61-.7-3.65-4H89l3,3.06.77-.61-1.92-2.45H96.1v-1.18Zm3.39-21.31h5.25l-1.86-2.37.77-.61,2.87,3h4.09L107,138.28l.61-.69,5.07,4.61h.64v1.18h-.55l-5.16,4.69-.61-.69,3.65-4H106.6l-2.95,3.06-.77-.61,1.92-2.45H99.49V142.2Zm-3.39,0H90.85l1.86-2.37-.77-.61-2.87,3H85l3.58-3.92-.61-.69-5.07,4.61h-.64v1.18h.55L88,148.07l.61-.69-3.65-4H89l3,3.06.77-.61-1.92-2.45H96.1V142.2Zm.81-18v54.94h1.77V124.23c-.31-.4-.61-.82-.89-1.26a14.15,14.15,0,0,1-.88,1.26Z"/><path id="_52208112" data-name=" 52208112" class="cls-10" d="M57.07,131.3h2.76v5.78H49.58l-.21.4h3.87v5.78H47.76c0,.13,0,.27,0,.4H59.83v5.78H47.57v.4h5.6v5.7h-5.6V156H59.83v5.77H47.57v.41h5.67v5.77H47.57v.41H59.83v5.77H47.57v.41h5.67v5.77H47.57v.4H59.83v5.78H47.57v.41H148v-.41H135.76v-5.78H148v-.4h-5.67v-5.77H148v-.41H135.76v-5.77H148v-.41h-5.67v-5.77H148v-.41H135.76V156H148v-.41h-5.6v-5.7H148v-.4H135.76v-5.78h12.11c0-.13,0-.27,0-.4h-5.48v-5.78h3.87c-.06-.13-.14-.27-.21-.4H135.76V131.3h2.76a18.34,18.34,0,0,0-1.8-.4h-7.46v-.35h-.41v.35H117.74v.4h4.54v5.78h-4.54v.4h11.11v5.78H118.71v.4h3.57v5.78h-4.54v.4h11.19v5.7H117.74V156h4.54v5.77h-4.54v.15h1v.26H142v5.77h-6.64v.41h0v5.77H122.69v-5.77h5.69v-.41H117.47c0,.14,0,.27-.07.41h4.88v5.77h-6.77l-.22.41h.45v5.77h-5.5c-.18.14-.37.27-.57.4h12.61v5.78H109.61v-5.73l-.41.27v5.46H86.39V181l-.41-.27v5.73H73.31v-5.78H85.92l-.58-.4H79.85v-5.77h.45l-.22-.41H73.31v-5.77h4.88c0-.14,0-.27-.07-.41H67.46v.41H72.9v5.77H66a3.64,3.64,0,0,1-.92.41h1.23v5.77H53.64v-5.77h9.24a4,4,0,0,1-.92-.41H60.24v-5.77h.29v-.41H53.64v-5.77H76.88v-.26h1v-.15H73.31V156h4.54v-.41H66.66v-5.7H77.85v-.4H73.31v-5.78h3.57v-.4H66.74v-5.78H77.85v-.4H73.31V131.3h4.54v-.4H66.74v-.35h-.41v.35H58.87a18.34,18.34,0,0,0-1.8.4Zm4.22,31.24v8.53a1,1,0,0,0,2,0v-8.53Zm67.86,0v8c0,1.17,2,1.17,2,0v-8Zm-75.57-12.7H66.25v5.7H53.58Zm88.43,0H129.34v5.7H142v-5.7Zm-12.75,30.42v-5.77H142v5.77Zm-.41-5.77v5.77H116.14v-5.77Zm-6.16,11.95h12.66v-5.78H122.69Zm12.66-24.72V156H122.69v5.77ZM66.74,174.49v5.77H79.45v-5.77Zm6.16,11.95H60.24v-5.78H72.9ZM60.24,161.72V156H72.9v5.77Zm69-18.46v-5.78H142v5.78Zm-6.57-6.18h12.66V131.3H122.69Zm0,12.36h12.66v-5.78H122.69Zm-56.36-6.18v-5.78H53.64v5.78Zm6.57-6.18H60.24V131.3H72.9v5.78Zm0,12.36H60.24v-5.78H72.9v5.78Zm20.52,72.75V228h8.76v-5.77H99.64a3.36,3.36,0,0,0,.6-.41h6.54V216h-5.45v-.41h.85v-5.77H93.42v5.77h1V216H88.81v5.77H95.5a2.77,2.77,0,0,0,.6.41Zm3.71-11.95v8.66a1,1,0,0,1-2,0v-8.66ZM84.29,197.07v.41H93v5.76H84.26v.41H88.4v5.77H84.26v.41H93v5.77H84.26V216H88.4v5.77H84.26v.41H93V228H84.26v.41H88.4v5.77H84.26v.41h27.07v-.41h-4.14v-5.77h4.14V228h-8.75v-5.77h8.75v-.41h-4.14V216h4.14v-.41h-8.75v-5.77h8.75v-.41h-4.14v-5.77h4.14v-.41h-8.77v-5.76h8.74v-.41Zm9.15,6.17v-5.76h8.71v5.76Zm-4.63,6.18v-5.77h8.83v5.77Zm8.83,24.72H88.81v-5.77h8.83Zm9.14-24.72v-5.77H98v5.77ZM98,234.14h8.83v-5.77H98Zm40-31V197.4h-8.82v5.77Zm-9.23-5.77h-4.12V197h17.9v.4h-4.14v5.77h4.14v.41h-8.74v5.78h8.74v.4h-4.14v5.77h4.14v.41h-8.74v5.77h8.74v.41h-4.14v5.77h4.14v.41h-17.9v-.41h4.12v-5.77h-4.12v-.41h8.75v-5.77h-8.75v-.41h4.12v-5.77h-4.12v-.4h8.75v-5.78h-8.75v-.41h4.12Zm.41,18.13H138v-5.77h-8.82Zm0,12.36H138v-5.77h-8.82ZM57.62,203.17V197.4h8.82v5.77Zm9.23-5.77H71V197H53.07v.4h4.14v5.77H53.07v.41h8.75v5.78H53.07v.4h4.14v5.77H53.07v.41h8.75v5.77H53.07v.41h4.14v5.77H53.07v.41H71v-.41H66.85v-5.77H71v-.41H62.22v-5.77H71v-.41H66.85v-5.77H71v-.4H62.22v-5.78H71v-.41H66.85Zm-.41,18.13H57.62v-5.77h8.82Zm0,12.36H57.62v-5.77h8.82Z"/></g></g><path class="cls-12" d="M97.8,131c24.31-19.65,50-6.66,50-59.95q-12.5-12.48,0-25V21.72A116.21,116.21,0,0,0,97.8,11.07M97.8,131c-24.32-19.65-50-6.66-50-59.95q12.49-12.48,0-25V21.72a116.23,116.23,0,0,1,50-10.65"/><path class="cls-13" d="M109.45,73.34l-11.65-3-11.66,3v-18h23.31Z"/><path class="cls-14" d="M106.12,28.05l-8.32-12-8.33,12"/><path class="cls-14" d="M102.79,29.12l-5-7.33-5,7.33m10-2.4-5-7.33-5,7.33"/><circle class="cls-14" cx="97.8" cy="16.06" r="2.33"/><g id="h"><path class="cls-15" d="M61.83,50.7H80.48v61.61H61.83Z"/><path class="cls-16" d="M71.15,22.39,63.49,44.7H78.81Z"/><g id="i"><path class="cls-14" d="M71.49,44.7h-10V48H59.83v5h2.66V50.7h2.33V53h2.67V50.7h2.33V53h1.67"/><path class="cls-14" d="M65.82,47V45.7h1.67V47Zm3,0V45.7h1.67V47Zm-6,0V45.7h1.66V47Z"/></g><g id="i-2" data-name="i"><path class="cls-14" d="M70.82,44.7h10V48h1.67v5H79.81V50.7H77.48V53H74.82V50.7H72.48V53H70.82"/><path class="cls-14" d="M76.48,47V45.7H74.82V47Zm-3,0V45.7H71.82V47Zm6,0V45.7H77.81V47Z"/></g><path class="cls-14" d="M97.8,71.68c-10,0-13.66,5.66-13.66,8.32v32.31H69.82V71s8.66,1,13,4.66c0,0,3.76-6.32,15.09-6.32"/><g id="j"><path id="g" class="cls-17" d="M82.14,83.67c-.66,0-5,.33-1.66-2.33,0,0-4.33-.67-3.33,2.33,0,0-1.34-.67-2.67,1"/><path id="g-2" data-name="g" class="cls-17" d="M82.14,85.67c-.66,0-5-.34-1.66,2.33,0,0-4.33.66-3.33-2.33,0,0-1.34.66-2.67-1"/></g><g id="j-2" data-name="j"><path id="g-3" data-name="g" class="cls-17" d="M82.14,102c-.66,0-5,.34-1.66-2.33,0,0-4.33-.66-3.33,2.33,0,0-1.34-.66-2.67,1"/><path id="g-4" data-name="g" class="cls-17" d="M82.14,104c-.66,0-5-.33-1.66,2.33,0,0-4.33.67-3.33-2.33,0,0-1.34.67-2.67-1"/></g><path class="cls-17" d="M82.14,104v8.33H71.82V73.68A21.63,21.63,0,0,1,82.14,78v5.66m0,2V102"/><path class="cls-14" d="M98.46,55.69h-2V58H94.13V55.69H91.8V58H89.47V55.69H87.14V58H84.47V53h14"/><circle class="cls-14" cx="71.15" cy="22.39" r="2.33"/></g><g id="h-2" data-name="h"><path class="cls-18" d="M133.76,50.7H115.11v61.61h18.65Z"/><path class="cls-19" d="M124.44,22.39,132.1,44.7H116.78Z"/><g id="i-3" data-name="i"><path class="cls-14" d="M124.11,44.7h10V48h1.66v5H133.1V50.7h-2.33V53H128.1V50.7h-2.33V53h-1.66"/><path class="cls-14" d="M129.77,47V45.7H128.1V47Zm-3,0V45.7H125.1V47Zm6,0V45.7H131.1V47Z"/></g><g id="i-4" data-name="i"><path class="cls-14" d="M124.77,44.7h-10V48h-1.66v5h2.66V50.7h2.33V53h2.66V50.7h2.34V53h1.66"/><path class="cls-14" d="M119.11,47V45.7h1.66V47Zm3,0V45.7h1.66V47Zm-6,0V45.7h1.67V47Z"/></g><path class="cls-14" d="M97.8,71.68c10,0,13.65,5.66,13.65,8.32v32.31h14.32V71s-8.66,1-13,4.66c0,0-3.76-6.32-15.08-6.32"/><g id="j-3" data-name="j"><path id="g-5" data-name="g" class="cls-17" d="M113.45,83.67c.66,0,5,.33,1.66-2.33,0,0,4.33-.67,3.33,2.33,0,0,1.34-.67,2.67,1"/><path id="g-6" data-name="g" class="cls-17" d="M113.45,85.67c.66,0,5-.34,1.66,2.33,0,0,4.33.66,3.33-2.33,0,0,1.34.66,2.67-1"/></g><g id="j-4" data-name="j"><path id="g-7" data-name="g" class="cls-17" d="M113.45,102c.66,0,5,.34,1.66-2.33,0,0,4.33-.66,3.33,2.33,0,0,1.34-.66,2.67,1"/><path id="g-8" data-name="g" class="cls-17" d="M113.45,104c.66,0,5-.33,1.66,2.33,0,0,4.33.67,3.33-2.33,0,0,1.34.67,2.67-1"/></g><path class="cls-17" d="M113.45,104v8.33h10.32V73.68A21.63,21.63,0,0,0,113.45,78v5.66m0,2V102"/><path class="cls-14" d="M97.13,55.69h2V58h2.33V55.69h2.33V58h2.33V55.69h2.33V58h2.67V53h-14"/><circle class="cls-14" cx="124.44" cy="22.39" r="2.33"/></g><path class="cls-14" d="M86.34,29.35l1.53,2.2a17.77,17.77,0,0,0-2.26,2L97.8,45.87,110,33.55a17.43,17.43,0,0,0-2.26-2l1.53-2.19a19.23,19.23,0,0,0-22.91,0Z"/><path class="cls-17" d="M97.8,26.88a18,18,0,0,0-9.33,2.64l.67,1.16a16.46,16.46,0,0,1,17.31,0l.67-1.16A17.94,17.94,0,0,0,97.8,26.88Zm10.25,6.63a15.26,15.26,0,0,0-20.51,0L97.8,45.87Z"/><path class="cls-14" d="M97.8,31.05A14,14,0,0,0,86.34,53h23a14,14,0,0,0-11.46-22Z"/><path class="cls-20" d="M97.8,32.71A12.3,12.3,0,0,0,87.67,52h20.25A12.3,12.3,0,0,0,97.8,32.71Z"/><g id="pahonia"><path class="cls-21" d="M101.73,50.53c-.2.13-.37.6-.54.8,0,.77,1.4.4,1.4.2s.1-.77.37-.8c.66-.07.76-1.2,1.76-2.6-.36-.66-.8-.7-1.1-1.4.57-1,1.2-1.46.77-3.39,1.3.1,2.1.46,1.73,2-.3,1.3-.23,2.73,1.5,2.7-.63-1,.2-2.33.57-3.46A1.81,1.81,0,0,0,106,42.3c-1.33.3-1.19.7-1.89.3-2.43-2.09-4.87.24-7.4-.9-.06-2.76-1.56-5.42-4.79-5.19l0,.37c.07-.6-.77-1.44-.77-.77s0,.63-.5.17a2.08,2.08,0,0,0,.1,1.13,2.17,2.17,0,0,0-.66,1.13,11.61,11.61,0,0,0-.53,2.3c0,.3,0,.6.33.7s.47-.2.6.2c0,0,.53-.07.53-.27.17-.7.6-.76.9-1a1.34,1.34,0,0,0,1-1.76c.4.66-.27,1.83-.7,2.43-.7,1-1.4,1.4-1.44,2.36a4.61,4.61,0,0,1-1.46-.73,1,1,0,0,0-.9.2c-.27.67-.43,1.8-.63,2.46-.14.27.33.84.33,1.6a1.07,1.07,0,0,0,1,.4c.33-1,.3-.8-.27-1.63A5.07,5.07,0,0,1,89,44.07c.44-.27.9.4,1.2.73a3.18,3.18,0,0,0,1.87.33,2.81,2.81,0,0,1-2-.43c-.84-.53-.57,1.7-1,3,0,.8.4,1.07.83,1.63,1.3-.73.6-1.39.23-1.46,0-.6.14-1.33.17-1.9,1.33.5,1.1.8,2.9,1.1A3.84,3.84,0,0,0,94.1,46l-.27.47a22.21,22.21,0,0,0,6.56.56,4.84,4.84,0,0,0,2,1.07l-1-.37c-.14.8-.67,2.4-1.54,2.63a2.49,2.49,0,0,0-.46.9c0,.47,1.36.37,1.33.14.07-.8.27-.57.53-.8a5.58,5.58,0,0,1,1.13-2.5s.5.17,1.1.33c-.3.77-.9,1.8-1.69,2Z"/><path class="cls-21" d="M90.73,43.47a3.62,3.62,0,0,0,.34,1.63"/><path class="cls-21" d="M97.13,49.6c-1.13-1.13-3.1-5.33-1-8.1l3.86.14a13.06,13.06,0,0,0,.44,7.06c-.77,0-1.27-1-1.94-2.1l.7,2.93a4,4,0,0,1-2-2.83C97.06,48.37,97.53,48.47,97.13,49.6Z"/><path class="cls-21" d="M91,40.74l.5,2.23A12.74,12.74,0,0,0,96.16,41c-1.63.33-4.09,1.2-4.46.66l-.53-1.29"/><path class="cls-21" d="M99.76,37.81l-.37-.47c-.06-.36.24-1,.2-1.43a1.34,1.34,0,0,0-.7-1.2c-.36.1-1.23.17-1.39,1.1.1.2.16.27-.17.9.33.47-.13.57.47.93-.27,0-.84-.83-1.47-1,.17-.7-.5-1.8-.2-2.2.87-1.66-1.47-1.3-.93-.07A17.14,17.14,0,0,1,95.06,37l1.7,1.53.47,2.63a4.07,4.07,0,0,0-1.57,2.23.81.81,0,0,0-.56,1,17.43,17.43,0,0,1,.13,2.8,2.74,2.74,0,0,0-1.6.7,15.86,15.86,0,0,1,2.53.4,5.61,5.61,0,0,1,.1-1.87,2.44,2.44,0,0,0,.3-1.79l.1-.57,1.93-1.5"/><path class="cls-21" d="M95.06,48.2l-.13-1.43-.6,1.33Z"/><path class="cls-21" d="M95,46.67l.23-.74"/><path class="cls-21" d="M99.06,38.61l-.6.13.1.53-.53.1.1.5.53-.1.1.54-.63.13.1.5.63-.13.2.93.6-.14-.2-.93.67-.13L100,40l-.67.13-.1-.53.57-.13-.1-.5-.57.13Zm1.4-.87-3.7.77c.6,3.09,1,4,3,4.59C101.23,41.67,101.16,41,100.46,37.74Zm-3.73-4.59h-.4v1.63h.4v-.54l4.4,0,1-.3-1-.2-4.4,0Zm2.13,1.56c2.93-.73,2.37,2,5.36,2.3C101.49,39,100.93,35.28,98.86,34.71Zm-1.36,1.1,2,.6m-1.76,1.26-1,.84m.34,1.6-.77.23c-.7.23-.7.47-.47,1s1,.26.8-.07l.77-.13-.57.1.57,5.06.5,1,.23-1.1-.33-4.29L97,42l.83-.1"/><path class="cls-22" d="M89.64,40.47a2,2,0,0,1,1,0m5,2.86,1,.7m-1.46.67,1.36-.1m.9-7.76c.34,0,.27.2.54.1m-.2-.77H98m1,.07c.14,1.26-1.16,1.23-1.19,1.46a2.38,2.38,0,0,0,1.53-.4m-3.87,0a2.18,2.18,0,0,1,.87-.7m-1.2-.4a2.19,2.19,0,0,1,1.17.23m4.23,5.9c.7.93.6,2.2.43,3.56l.4.63.07-.6c.13-1.16.43-2.69-.67-4m-1,2.34a12.2,12.2,0,0,0,4.79.06m-4.76-.46a11.56,11.56,0,0,0,4.66.06m-2.69-2.16a5.37,5.37,0,0,1,1,4.19l.4.64.07-.6a5.22,5.22,0,0,0-.9-4.2M91.4,44.7a13.6,13.6,0,0,0,3.83-1.1m-3.9.5a15.21,15.21,0,0,0,4.1-1.26m-4.7-5.46a3.56,3.56,0,0,1,2.14,1.33m-2.4-1a3.57,3.57,0,0,1,2.46,1.76m-1.8.8c.84-.93,1.94-2.53,1.6-3.26m-2.86,4,.1-.2m.37.66.2-.3m-.8-1.1a2.12,2.12,0,0,1,1,0c.66-.87,1.93-2.24,1.53-3.17m-1.2-.46a1,1,0,0,0,.1.5m.7-.1c3.16.06,3.6,2.26,4.1,3.59m-5.5-1.63.2-.33.3-.14-.2.4Zm4.7-4.7c.46.2.36-.23.76-.16"/><ellipse class="cls-21" cx="91.17" cy="44.37" rx="0.3" ry="0.57"/><circle class="cls-21" cx="94.93" cy="46.93" r="0.27"/><circle class="cls-21" cx="94.83" cy="33.94" r="0.27"/><circle class="cls-21" cx="90.9" cy="40.34" r="0.27"/><circle class="cls-21" cx="92.3" cy="38.34" r="0.27"/><circle class="cls-21" cx="101.29" cy="44.24" r="0.27"/><circle class="cls-21" cx="102.96" cy="44.27" r="0.27"/></g><path class="cls-23" d="M97.46,78.67c-1.66-3.33,0-4.66,2-4.33s4.66,4,6.66,3c.33.33-1.66,3-4,1.66s-3.66-4.66-4-.33"/><path class="cls-23" d="M94.13,88.66l-2.33,2s-1.33,2.33-3-.33h-.33l-1-3.33a1.3,1.3,0,0,1-1.33-1.33s.33-1.34,1.33-1.34a2.07,2.07,0,0,1,1.67,1.34c1.33,1.66,1.33,3.33,2.33,2l1-1.33"/><g id="defender"><path class="cls-23" d="M97.8,92.49l-3-.33s-.67-4.66-2.33-6c0,0,0-1.67,2.33-1.67,0,0,1.33-.33,1-2.66,0,0-.67-3.33,2.1-3.33"/><path class="cls-23" d="M95.8,104.48c.33,1.33.33,2.67-1,5-.34,1.33,1.33,1.33.33,2.66h-5s-1-.66,0-1a10.32,10.32,0,0,0,2.66-.66c.67-2.67-.33-3.67.33-6.33,0,0-.66-1.33.34-2,0,0-.67-4.16.33-6.33l3.66.67C97.46,101.82,96.13,100.15,95.8,104.48Z"/><path class="cls-14" d="M97.86,97a9.87,9.87,0,0,1-2.73-.33c0-1.67-.33-4.5,2.67-4.17"/><circle class="cls-23" cx="96.96" cy="81.24" r="0.17"/><path class="cls-17" d="M94.8,84.5a4.38,4.38,0,0,0,3,1"/><path class="cls-22" d="M97.2,97l.5-4.5-1.57,4.33M92.8,110.48a2.07,2.07,0,0,1,2,1.66m-1.33,0s.33-.66-.67-1.66m-.67.33a2.34,2.34,0,0,1,.67,1.33m-1,0a1.36,1.36,0,0,0-.67-1.16m4.67-6.5a5.08,5.08,0,0,0-2.67-.33m.3-7a15,15,0,0,0,4,.66m-.13,1a11.53,11.53,0,0,1-4-.67m0,1.17a8.66,8.66,0,0,0,3.76.57m-.43,1.16a8.9,8.9,0,0,1-3.23-.46m.07,1.23a9.2,9.2,0,0,0,2.66.33m-.33,1s-1,0-1.34-.67a.72.72,0,0,0-1-.33m0-15s2-.66,2-2.16m.67.33s.67,1.5-2.16,3.17m2.56-7.3a.79.79,0,0,1,.9,0m.37,1.47c-.34.33-1,0-1,.33"/><path class="cls-23" d="M97.8,94.16c-2.67,0-2.34,3.33-2.34,3.33a6.59,6.59,0,0,1-2.66-.67s1-4,2-4.66l3,.33"/></g><g id="defender-2" data-name="defender"><path class="cls-23" d="M97.8,92.49l3-.33s.67-4.66,2.33-6c0,0,0-1.67-2.33-1.67,0,0-1.33-.33-1-2.66,0,0,.67-3.33-2.09-3.33"/><path class="cls-23" d="M99.79,104.48c-.33,1.33-.33,2.67,1,5,.34,1.33-1.33,1.33-.33,2.66h5s1-.66,0-1a10.38,10.38,0,0,1-2.67-.66c-.67-2.67.33-3.67-.33-6.33,0,0,.66-1.33-.34-2,0,0,.67-4.16-.33-6.33l-3.66.67C98.13,101.82,99.46,100.15,99.79,104.48Z"/><path class="cls-14" d="M97.73,97a9.87,9.87,0,0,0,2.73-.33c0-1.67.33-4.5-2.66-4.17"/><circle class="cls-23" cx="98.63" cy="81.24" r="0.17"/><path class="cls-17" d="M100.79,84.5a4.37,4.37,0,0,1-3,1"/><path class="cls-22" d="M98.39,97l-.49-4.5,1.56,4.33m3.33,13.66a2.07,2.07,0,0,0-2,1.66m1.33,0s-.33-.66.67-1.66m.67.33a2.34,2.34,0,0,0-.67,1.33m1,0a1.36,1.36,0,0,1,.67-1.16m-4.67-6.5a5.08,5.08,0,0,1,2.67-.33m-.3-7a15,15,0,0,1-4,.66m.13,1a11.53,11.53,0,0,0,4-.67m0,1.17a8.66,8.66,0,0,1-3.76.57m.43,1.16a8.9,8.9,0,0,0,3.23-.46m-.07,1.23a9.2,9.2,0,0,1-2.66.33m.33,1s1,0,1.34-.67a.72.72,0,0,1,1-.33m0-15s-2-.66-2-2.16m-.67.33s-.67,1.5,2.17,3.17m-2.57-7.3a.79.79,0,0,0-.9,0m-.36,1.47c.33.33,1,0,1,.33"/><path class="cls-23" d="M97.8,94.16c2.66,0,2.33,3.33,2.33,3.33a6.59,6.59,0,0,0,2.66-.67s-1-4-2-4.66l-3,.33"/></g><path class="cls-23" d="M103.12,86.17a24.5,24.5,0,0,1,3.8,2.79s1.43.74,0,2.27l-3.8,1.86-.83.9s.47.2-.13.73c0,0-.7.07-1.7-1.59,0,0-.33-.67,1-1l3-1.84s-.44-.16,0-.53l-2.8-1.13A5.45,5.45,0,0,1,103.12,86.17Z"/><path class="cls-14" d="M88.14,83.33l6.32-8a5.47,5.47,0,0,1,2-1.66,5.12,5.12,0,0,1-1,2.33l-6.32,8.32"/><path class="cls-14" d="M89.5,85.53s-1.8-1.36-2.66-2.13l.53-.63L90,84.87Z"/><path class="cls-14" d="M99.79,81a4.27,4.27,0,0,0-4,0"/><path class="cls-22" d="M97.6,83.4h.33m-.13,2.1v7m-.54-9.32a2.17,2.17,0,0,1,1,0m-.93-2.37s.3,0,.3.57v.87s-.33.26.17.26c.2,0,.3-.06.26-.3M106.92,89a4.91,4.91,0,0,1-2.46.77m1.1,2.06a10.87,10.87,0,0,1-1.47-1.2m.3-.4s2.53,1.4,2.53,1m-.87-3.07a3.76,3.76,0,0,1-1.93,1.4m-2,2.27a1.62,1.62,0,0,1,1,1.16m-9-16.32-5.4,7M91.13,88s1.34,1.33,1.34,2m-.67.66a5.65,5.65,0,0,0-1-2.33S90.47,91,89.47,91m-.67-.66A8.18,8.18,0,0,0,90.47,88m-3.66-3.4s-.34.73.66.73c0,0,2,.34,0,1.67m2-.67a3.73,3.73,0,0,1-1.67,1.33m8.5-6.79c-.17,1.3.5,3.13,1.5,3.13s1.66-1.83,1.49-3.13A4.17,4.17,0,0,0,96.3,80.87Z"/><circle class="cls-14" cx="86.14" cy="87" r="0.67"/><path class="cls-24" d="M80,99.63c-12.64,0-22.89,10.17-22.89,30.51C57.11,155.57,75.33,181,97.8,181s40.68-25.43,40.68-50.86c0-20.34-10.24-30.51-22.88-30.51a22.86,22.86,0,0,0-17.8,8.5A22.89,22.89,0,0,0,80,99.63Zm0,0"/><rect class="cls-24" x="24.97" y="112.84" width="145.64" height="54.95" rx="5.46"/><text class="cls-25" transform="translate(54.24 160.57)">Włocławek</text><text class="cls-26" transform="translate(56.6 139.92)">Mahiloŭ</text><path class="cls-24" d="M150.61,0l29,0h16l0,16c0,7,0,14,0,21A29.09,29.09,0,0,1,150.61,0Z"/><text class="cls-27" transform="translate(159.66 31.75)">39</text></svg>