<?xml version="1.0" encoding="utf-8"?>
<!-- Generator: Adobe Illustrator 26.0.3, SVG Export Plug-In . SVG Version: 6.00 Build 0)  -->
<svg version="1.1" id="Слой_1" xmlns="http://www.w3.org/2000/svg" xmlns:xlink="http://www.w3.org/1999/xlink" x="0px" y="0px"
	 viewBox="0 0 195.6 280.6" style="enable-background:new 0 0 195.6 280.6;" xml:space="preserve">
<style type="text/css">
	.st0{clip-path:url(#SVGID_00000093870355348747877860000013224343844072924088_);fill:#388E3C;}
	.st1{clip-path:url(#SVGID_00000093870355348747877860000013224343844072924088_);fill:#FFFFFF;}
	
		.st2{clip-path:url(#SVGID_00000093870355348747877860000013224343844072924088_);fill-rule:evenodd;clip-rule:evenodd;fill:#202020;}
	
		.st3{clip-path:url(#SVGID_00000093870355348747877860000013224343844072924088_);fill-rule:evenodd;clip-rule:evenodd;fill:#D3302F;}
	
		.st4{clip-path:url(#SVGID_00000093870355348747877860000013224343844072924088_);fill-rule:evenodd;clip-rule:evenodd;fill:#FFFEFE;}
	
		.st5{clip-path:url(#SVGID_00000093870355348747877860000013224343844072924088_);fill-rule:evenodd;clip-rule:evenodd;fill:#69B42E;}
	
		.st6{clip-path:url(#SVGID_00000093870355348747877860000013224343844072924088_);fill-rule:evenodd;clip-rule:evenodd;fill:#EDC282;}
	
		.st7{clip-path:url(#SVGID_00000093870355348747877860000013224343844072924088_);fill-rule:evenodd;clip-rule:evenodd;fill:#FAE042;}
	.st8{clip-path:url(#SVGID_00000093870355348747877860000013224343844072924088_);enable-background:new    ;}
	.st9{fill:#388E3C;}
	.st10{font-family:'Impact';}
	.st11{font-size:21px;}
	.st12{clip-path:url(#SVGID_00000093870355348747877860000013224343844072924088_);fill:#D3302F;}
	.st13{fill:#FFFFFF;}
	.st14{font-size:20px;}
</style>
<g>
	<defs>
		<rect id="SVGID_1_" x="0" y="0" width="195.6" height="280.6"/>
	</defs>
	<clipPath id="SVGID_00000070828219189441603090000016615202822664152977_">
		<use xlink:href="#SVGID_1_"  style="overflow:visible;"/>
	</clipPath>
	
		<rect x="-9.2" y="-8.6" style="clip-path:url(#SVGID_00000070828219189441603090000016615202822664152977_);fill:#388E3C;" width="214" height="297.9"/>
	<path style="clip-path:url(#SVGID_00000070828219189441603090000016615202822664152977_);fill:#FFFFFF;" d="M148.1,269v-69.8
		c0-27.4-22.6-49.8-50.3-49.8s-50.2,22.3-50.2,49.7l0,0V269L148.1,269z"/>
	
		<path id="path14" style="clip-path:url(#SVGID_00000070828219189441603090000016615202822664152977_);fill-rule:evenodd;clip-rule:evenodd;fill:#202020;" d="
		M52.2,199.6c0-25.4,20.9-46.2,46.6-46.2s46.7,20.8,46.7,46.2v64.7H52.2L52.2,199.6"/>
	
		<path id="path16" style="clip-path:url(#SVGID_00000070828219189441603090000016615202822664152977_);fill-rule:evenodd;clip-rule:evenodd;fill:#D3302F;" d="
		M49.3,199.6c0.4-26.9,22.5-48.3,49.4-47.9c26.3,0.4,47.5,21.7,47.9,48v68.1H49.3L49.3,199.6L49.3,199.6z M77.3,209.7
		c0.9,0.2,1.7,0.2,2.6,0.2c0.4,0,0.7,0,1,0l-1.2,9.2L77.3,209.7L77.3,209.7z M91.7,242.8c-1.1,0.3-2.2,0.8-3.1,1.4
		c-0.6,0.4-1.2,0.8-1.8,1.3c-0.5,0.3-0.8,0.9-0.8,1.5c0.3,1.3,0.4,2.6,0.1,3.9c-0.5,1.7-1.6,3.2-3,4.2c-1.9,1.2-4.1,2-6.3,2.3
		c-1.2,0.2-2.3,0.2-3.5,0.4c-0.4,0-0.9,0.1-1.2,0.4c-0.1,0.1-0.2-0.5-0.1-0.7c-0.9,0.3-1.9,0.4-2.9,0.3c-1.2,0-2.4,0.2-3.5,0.5
		c-0.3,0.1-0.7,0.2-1,0.4c-0.1,0-0.2-0.3-0.1-0.6c-1,0.4-2,0.7-3.1,0.9c-1.5,0.5-3,0.8-4.6,0.9c-0.9,0-1.8-0.1-2.6-0.3
		c-0.2-0.1-0.5-0.2-0.7-0.4c0.1-0.2,0.2-0.4,0.3-0.6c0.6-0.7,1.4-1.3,2.3-1.7c1-0.5,2-0.9,3-1.2c-1.1-0.1-2.2-0.3-3.3-0.6
		c-0.4-0.1-1.1-0.4-1.1-0.5s0.5-0.7,0.9-0.9c0.9-0.6,1.8-1,2.8-1.4c1.4-0.5,2.9-0.9,4.4-1.1c-1.1-0.2-2.2-0.4-3.3-0.7
		c-0.6-0.1-1.1-0.4-1.6-0.7c-0.2-0.1-0.7-0.5-0.7-0.6s0.5-0.4,0.8-0.5c0.9-0.4,1.9-0.8,2.9-0.9c1.1-0.2,2.2-0.3,3.3-0.3
		c0.7-0.1,1.5-0.1,2.2-0.1c-1.1-0.3-2.1-0.7-3.2-1.2c-0.7-0.3-1.3-0.7-1.8-1.1c-0.3-0.2-0.7-0.6-0.7-0.7s0.8-0.4,1.2-0.5
		c1.5-0.3,3-0.4,4.5-0.4c1.3,0,2.6,0.3,3.9,0.4c-0.9-0.5-2-1-3-1.6c-0.7-0.5-1.4-1.1-2-1.8c-0.2-0.2-0.6-0.7-0.6-0.7
		c0.4-0.1,0.8-0.2,1.2-0.2c1.4-0.1,2.7,0,4.1,0.2c1.3,0.2,2.6,0.6,3.9,1c-0.9-0.6-1.7-1.3-2.5-2c-0.5-0.6-1-1.3-1.4-2
		c-0.2-0.3-0.3-0.6-0.4-0.9c0.3-0.1,0.7-0.2,1-0.1c1.3,0,2.6,0.3,3.8,0.9c1.2,0.5,2.3,1.1,3.5,1.7c-0.8-0.7-1.6-1.4-2.3-2.1
		c-0.5-0.6-0.9-1.3-1.1-2c-0.1-0.3-0.2-0.7-0.2-1c0.4-0.1,0.8-0.1,1.2,0c0.9,0.1,1.8,0.4,2.6,0.8c0.4,0.2,0.8,0.4,1.2,0.7
		c-0.5-0.8-0.8-1.6-1.1-2.4c-0.1-0.3-0.1-0.6,0-0.9c0.4,0,0.8,0,1.1,0.1c0.8,0.1,1.5,0.4,2.2,0.9c0.5,0.4,1,1,1.6,1.4
		c-0.3-0.5-0.5-1-0.7-1.5c-0.2-0.5-0.3-1.1-0.4-1.6c0-0.2,0-0.5,0.1-0.7c0.4,0,0.7,0.1,1.1,0.2c1,0.4,1.9,1,2.7,1.8
		c0.8,0.7,1.6,1.5,2.2,2.4l0.3,0.1c0-0.2-0.1-0.4-0.2-0.7c-0.3-1.1-0.5-2.1-0.8-3.2c-0.2-0.6-0.3-1.2-0.4-1.8
		c-0.4,0.2-0.8,0.2-1.2,0.2c-0.5-0.1-0.6-0.7-0.7-0.6c-0.4,0.2-0.9,0.3-1.3,0.4c-1,0.4-2,0.7-3,1.1s-2,0.8-3,1.1
		c-0.3,0.1-0.7,0.4-0.8,0.2c-0.6,0.2-1.1,0.5-1.6,0.9c-0.7,0.5-1.3,1-2,1.5s-1,0.3-1.7,0.1c-0.5-0.1-1-0.3-1.5-0.5
		c-0.5-0.2-0.9-0.6-1-1.1c-0.2-0.5-0.3-1-0.3-1.5c0.1-0.5,0.2-1,0.5-1.1c0-0.1,0-0.1,0-0.2c0-0.5,0.2-1,0.4-1.5
		c0.1-0.8,0.2-1.6,0.2-2.4c0.1-0.8,0-1.6-0.2-2.4c-0.1-0.2-0.1-0.4-0.2-0.6c-1.2-0.1-2.4-0.2-3.2-0.4c-1.5-0.2-3.7-0.5-4.4-0.5
		s-0.7,0.4-1,0.8c-0.2,0.4-0.7,0.7-1.2,0.7c-0.6,0.1-0.1-1.1,0.3-1.9c0.2-0.4,0.6-0.7,1-0.9l-3.2-10.6c-0.4-0.2-0.7-0.4-0.7-0.6l0,0
		c0-1.9,1.9-3.5,4.3-3.5s4.3,1.6,4.3,3.5l0,0c0,0.3-0.4,0.6-1.1,0.8L61.9,220c0.9,0,3,0.2,4.6,0.3c1.3,0,2.2,0.1,3.1,0l0.1-0.2
		c0.2-0.8,0.6-1.6,1-2.3c0.4,0.7,0.8,1.5,1,2.3c0,0.1,0,0.1,0.1,0.2c0.9,0,1.8,0,3.1,0c1.7-0.1,3.7-0.3,4.6-0.3l-2.8-10.4
		c-0.7-0.2-1.1-0.5-1.1-0.8l0,0c0-1.9,1.9-3.5,4.3-3.5s4.3,1.6,4.3,3.5l0,0c0,0.2-0.1,0.4-0.3,0.4L80.3,220c0.4,0.2,0.8,0.5,1,0.9
		c0.4,0.7,0.9,1.9,0.3,1.9c-0.5,0-0.9-0.2-1.2-0.7c-0.2-0.4-0.3-0.8-1-0.8s-2.9,0.3-4.4,0.5c-0.8,0.1-1.9,0.3-3.1,0.4
		c-0.1,0.2-0.2,0.4-0.2,0.6c-0.2,0.8-0.3,1.6-0.3,2.5c0,0.8,0,1.6,0.2,2.4c0.2,0.4,0.3,0.8,0.4,1.2c0.3,0,0.5,0,0.8,0
		c0.2,0,0.4-0.1,0.6-0.1c0.4,0,0.9,0,1.3,0c0.1,0,0.4,0,0.6,0c0.1,0,0.3-0.1,0.4-0.1c0-0.1,0.2-0.2,0.3-0.4c0.7-0.5,1.2-0.9,1.9-1.4
		c1.1-0.8,2.1-1.6,3.2-2.3c1-0.6,2-1.1,3-1.5c0.1,0-0.2-0.4,0.1-0.6s0.7-0.1,0.8-0.2c0.7-0.6,1.6-1.1,2.5-1.4
		c0.7-0.2,1.2-0.1,1.6,0.4c0.5,0.7,0.9,1.5,1,2.4c0,0.2,0.3,0.2,0.5,0.5s-0.2,0.3-0.1,0.4c0.6,1.2,1,2.1,1.6,3.3
		c0.4,0.8,0.8,1.6,1.2,2.4c0.3,0.7,0.2,0.7,0.4,0c0.6-2,1.2-3.9,1.9-5.8c0.2-0.3,0.2-0.7,0-1.1c-0.2-0.4-0.4-0.9-0.7-1.4
		c-0.1-0.2,0-0.4,0.2-0.6c-0.1-0.3-0.3-0.7-0.4-1c-0.3-0.5-0.7-1.1-1.1-1.6c-0.1-0.2-0.1-0.4,0.1-0.6c0,0,0,0,0,0
		c-0.2-0.4-0.4-0.9-0.7-1.3c-0.2-0.4-0.5-0.7-0.9-0.9c-0.2-0.1,0-0.4,0.1-0.5c-0.2-0.4-0.4-0.9-0.7-1.3c-0.3-0.6-0.6-0.6-0.6-1
		c0-0.1,0.2-0.3,0.4-0.4l0,0c-0.5-0.7-0.9-1.5-1.3-2.4c-0.3-0.8-0.5-1.4-0.8-2.2c-0.3-0.2-0.6-0.4-0.9-0.7c-0.2-0.4-0.4-0.8-0.5-1.3
		c-0.1-0.6-0.1-0.6-0.5-0.9c-1-0.7-1.6-1.8-1.9-3c-0.1-1.2,0.1-2.4,0.6-3.5c0.2-0.4,0.2-0.8,0.1-1.3c-0.1-0.6-0.2-1.1-0.2-1.7
		c0-0.2,0.1-0.3,0.2-0.5c0-0.6-0.1-1.1-0.1-1.7c0-0.9,0-1.8,0.1-2.7c0-1.3,0-2.6-0.1-4c0-1.1-0.2-2.2-0.4-3.4
		c-0.1-0.6-0.2-1.2-0.3-1.8c0-0.1,0-0.1,0-0.2c-0.4-0.3-0.8-0.5-1.1-0.7c-0.4-0.2-0.8-0.5-1.2-0.6c-0.6-0.3-1.1-0.8-1.4-1.4
		c-0.2-0.5-0.4-1.1-0.4-1.7c0-0.3-0.1-0.7-0.2-1c-0.8,0.1-1.5,0.2-2,0.4c-0.7,0.1-1.7,0.1-2.1,0.2c-0.1,0-0.4,0.1-0.7,0.2
		c-0.2,0.2-0.2,0.5-0.1,0.8c0.2,0.4,0.4,1,0.6,1.6s0.7,2.5,0.8,2.9c0.2,0.7,0.1,0.7,0.4,0.9c0.2,0.1,0.5,0.3,0.7,0.4
		c0.1,0.1,0.2,0.3,0.3,0.4c0.3,0.4,0.6,0.9,0.8,1.3c0.1,0.3,0.3,0.6,0.6,0.7c0.2,0.1,0.4,0.3,0.6,0.5c0.2,0.2,0.4,0.3,0.7,0.3
		c0.2,0.1,0.3,0,0.5,0.1s0.1,0.3,0.2,0.4c0.2,0.1,0.4,0.1,0.7,0c0.3-0.1,0.5-0.2,0.4,0.1c-0.1,0.5-0.2,0.7-0.6,0.8
		c-0.2,0.1-0.3,0.1-0.5,0.1c-0.2,0-0.2,0.1-0.3,0.2c-0.2,0.2-0.5,0.3-0.7,0.2c0,0,0,0,0,0c-0.1-0.1-0.2-0.1-0.3-0.2
		c-0.2-0.1-0.3-0.1-0.2,0.1c0,0.1,0.1,0.2,0.2,0.2c0.3,0.2,0.4,0.4,0.3,0.6c-0.1,0.1-0.1,0.2,0,0.3c0.1,0.1,0.2,0.2,0.4,0.2
		c0.4,0,1,0.1,0.5,0.5c-0.3,0.3-0.8,0.4-1.2,0.3c-0.2,0-0.4-0.1-0.6-0.1s-0.3,0.1-0.4,0.2s-0.2,0-0.4-0.2c-0.1-0.1-0.2-0.2-0.2-0.2
		s-0.1,0.1-0.1,0.2c0,0.1,0.1,0.2,0.2,0.3c0.1,0.1,0.3,0.2,0.4,0.3c0.2,0.1,0.3,0.2,0,0.4c-0.4,0.2-0.8,0.1-1.1-0.1
		c-0.2-0.1-0.3-0.3-0.4-0.4c-0.1-0.1-0.2-0.1-0.3-0.1c-0.3-0.1-0.4-0.2-0.4-0.6c-0.1-0.3-0.2-0.7-0.4-0.9c-0.2-0.2-0.4-0.5-0.6-0.8
		c-0.1-0.3-0.2-0.5-0.2-0.8c0-0.1-0.1-0.2-0.1-0.2c-0.1,0.1-0.2,0.2-0.3,0.3c-0.2,0.2-0.6,0.3-0.9,0.2c-0.4-0.2-0.7-0.6-0.8-1.1
		c0-0.4,0.1-0.7,0.4-1c0.3-0.2,0.3-0.3,0.2-0.7c-0.2-0.8-0.5-0.7-0.7-1.3s-0.5-1.2-0.8-1.9c-0.3-0.7-0.6-1.5-1-2.2
		c-0.3-0.4-0.7-0.8-1.1-1.2l-0.1-0.1c-0.4,0.2-0.7,0.4-0.9,0.6c-0.5,0.4-1.6,1.7-2,2c-0.3,0.3-0.6,0.6-0.7,1
		c-0.2,0.4-0.9,0.9-1.2,1.5c-0.1,0.3-0.2,0.6-0.3,0.9c0,0.2,0.1,0.4,0.1,0.5c0.2,0.3,0.2,0.4,0.3,0.6s0.3,0.3,0.6,0.6
		c0.5,0.5,1.1,0.9,1.7,1.3c0.6,0.3,1.3,0.6,1.9,1c0.5,0.4,1.1,0.6,1.7,1s0.4,0.6,0.8,0.7s1.3,0.3,1.5,0.7s0.5,1.2,0.1,1.2h-0.5
		c0,0.2,0,0.4,0,0.6c0.6,0.2,1.2,0.5,1.8,0.8c0.4,0.2,0.7,0.5,1,0.9c0.4,0.4,0.6,1,0.6,1.6c-0.1,0.7-0.3,0.5-0.5,0s-0.7-0.8-1.2-0.9
		c-0.6-0.2-1.3-0.4-1.9-0.5c0,0,0,0,0,0.1c0,0.4,0,0.7,0,1.1c0,0.3-0.1,0.5-0.1,0.8c0.6,0.3,1,0.7,0.8,1.1c-0.1,0.1-0.1,0.2-0.2,0.3
		c-0.3,0.2-0.6,0.5-0.8,0.9c-0.3,0.4-0.6,0.9-1.1,0.9s-0.5,0.4-0.7,0.6c-0.2,0.2-0.6,0.3-0.9,0.2c-0.3-0.1-0.4-0.3-0.6-0.4
		c-0.3,0.1-0.6,0.1-0.9,0c-0.3-0.1-0.6-0.3-0.8-0.5c-0.3-0.4-0.7-0.7-1.2-1c-0.3-0.2-0.6-0.1-1.3-0.4s-1-0.5-1.4-0.6s-1,0.3-1.5,0.2
		s-0.7-0.4-1-0.6c-0.6,0-1.2-0.2-1.7-0.6c-0.3-0.2-0.4-0.6-0.7-0.7c-0.4,0.1-0.8,0.1-1.1-0.1c-0.1,0.1-0.2,0.4-0.4,0.7
		c-0.2,0.4-0.4,0.8-0.7,1.1c-0.4,0.4-0.5,0.7-0.8,1s-0.7,0.2-0.7-0.3s0.2-1.4,0.2-1.8s0.1-1.1,0.2-1.5c0-0.2,0.1-0.5,0.1-0.6
		c-0.2,0-0.3,0.1-0.5,0.2c-0.5,0.3-1,0.6-1.5,1c-0.4,0.3-0.9,0.7-1.4,1c-0.8,0.6-1.2,0.5-1.1-0.3c0.1-0.7,0.2-1.3,0.4-2
		c0.2-0.7,0.6-1.6,0.9-2.3c0.2-0.6,0.5-1.2,0.9-1.7c0.3-0.2,0.6-0.4,1-0.5c0-0.2,0-0.3,0-0.5c-0.1-0.6-0.3-1.1-0.6-1.7
		c-0.3-0.6-0.5-0.9,0-1.2c0.4-0.3,0.8-0.6,1.2-0.9c0.4-0.2,0.5-0.4,0.4-1s-0.1-1.4-0.1-2s-0.1-0.9,0.4-1.3s1.4-1,1.8-1.3
		c0.4-0.3,0.6-0.8,0.6-1.3c0-0.5,0.1-1.5,0.2-2.3s0-1.1,0.7-1.3s1.3-0.4,1.6-0.5c0.5-0.1,0.8-0.5,1-0.9c0.1-0.7,0.3-1.7,0.5-2.6
		s0.3-1,1.1-1.3c0.6-0.2,1.2-0.3,1.9-0.4c0.8-0.1,1-0.3,1-0.9c0-0.4,0-0.8,0.1-1.1c0.1-0.4,0.1-0.5-0.2-0.8
		c-0.4-0.4-0.1-1.1,0.3-1.5c0.5-0.5,1.1-0.8,1.7-1c0.5-0.1,1-0.4,1.4-0.9c0.5-0.6,1.2-1,1.9-1.3c0.5-0.2,0.9-0.5,1.2-0.9
		c0.4-0.3,0.9-0.6,1.4-0.8c0.6-0.3,0.5-0.4,0.8-0.9c0.4-0.4,0.8-0.8,1.4-1c0.6-0.3,1.2-0.5,1.9-0.6c1-0.2,1.7,0,2.6-0.5
		s7.7-1.8,10.5-1.9c3-0.1,6.1-0.6,7.8-0.6s6.7,0.8,8.8,0.9c3.3,0.3,6.5,1,9.7,1.9c1.6,0.6,3.4,1.7,3.4,2.9c0.1,0.5-0.2,1-0.6,1.3
		c-1,0.5-0.9,0-0.6-0.4s0-1.1-0.6-1.4c-0.6-0.4-1.2-0.6-1.9-0.6c-0.7,0-1.3,0.2-1.9,0.5l0,0c0.3,0.2,0.7,0.5,1,0.8
		c1,0.8,2.2,1.5,3.4,2c1.4,0.6,3.9,2,6.3,3.3c2.6,1.4,4.9,3.1,7,5.2c1.8,1.7,3.2,3.9,4,6.3c0.8,2.3,1,4.6,0.8,7
		c-0.2,1.8-0.7,3.5-1.7,5c-1,1.8-2.6,3.2-4.5,3.9c-2,0.8-4.1,1.2-6.3,1.3c0.6,1,1.5,1.7,2.5,2.3c1.9,0.9,3.9,1.7,6,2.3
		c1.5,0.4,2.8,1.1,4,2.1c1.1,0.9,1.6,2.3,1.3,3.7c-0.5,1.9-0.9,1.1-0.9,0.3c0.1-0.6-0.1-1.3-0.5-1.8c-0.7-1-1.8-1.6-3-1.6
		c-1.4-0.2-3.6-0.5-5-0.8c-1.4-0.3-2.7-0.8-3.9-1.5c-1.2-0.7-2.4-1.6-3.3-2.7c-0.6-0.7-1.4-1.7-2.2-2.7c-1.1-0.2-2-0.4-2.8-0.6
		s-1.4-0.4-2.2-0.5c0,0.1,0,0.2,0,0.3c-0.1,0.7-0.3,1.4-0.4,2.2c-0.1,0.4-0.2,0.8-0.3,1.2c0,0.2,0,0.3,0,0.5c0,0.3,0,0.7-0.1,1
		c-0.1,0.3-0.1,0.6,0,0.9c0.3,0.7,0.4,1.5,0.3,2.2c-0.1,0.9-0.4,1.7-1,2.4c-0.2,0.2-0.3,0.4-0.3,0.6c0,0.1,0,0.2-0.1,0.3
		c0,0,0,0.1,0,0.1c-0.2,1.7-0.5,3.4-0.9,5.1c-0.1,0.6-0.2,1-0.4,1.6c0.3,0.1,0.5,0.3,0.8,0.5c0.2,0.1,0.4,0.4,0.4,0.6
		s-0.2,0.2-0.5,0.7c-0.3,0.4-0.5,0.9-0.7,1.4c0,0,0.2,0.1,0.2,0.2s-0.2,0.4-0.4,0.5c-0.2,0.3-0.4,0.6-0.5,0.9
		c-0.3,0.6-0.5,1.4-0.8,2c0.1,0.1,0.3,0.2,0.3,0.3c-0.1,0.3-0.2,0.5-0.4,0.7c-0.2,0.4-0.4,0.9-0.6,1.3s-0.4,1-0.7,1.5
		c0.3,0.2,0.2,0.5,0,0.9c-0.2,0.4-0.5,0.8-0.8,1.2c-0.4,0.5-0.5,0.5-0.4,1.3c0.1,0.6,0.1,1.1,0.2,1.7c0.2,1.5,0.3,2.9,0.4,4.4
		c0,0.2,0,0.8,0,0.8c0.4-0.3,0.7-0.7,1-1.1c0.9-1,1.7-2,2.6-3c0.7-0.7,1.4-1.3,2.1-1.9c0,0-0.2-0.3-0.1-0.4s0.4-0.2,0.4-0.3
		c0.1-0.7,0.2-1.4,0.4-2.1c0.1-0.5,0.6-0.9,1.1-0.8c1.2,0,1.6,0,2,0c0.1,0,0.3-0.4,0.5-0.5c0.3-0.1,0.5,0.2,0.6,0.1
		c1.3-1,2.8-1.9,4.3-2.6c1.3-0.6,2.5-1.2,3.8-1.9c0.1-0.1,0.3-0.2,0.4-0.2s0.2-0.1,0.2,0s0.1,0,0.2-0.1c0-0.1,0.1-0.2,0.2-0.3
		c0.2-0.3,0.4-0.5,0.7-0.6c0.4-0.2,0.7-0.3,1.1-0.3c-0.1-0.5-0.1-0.8-0.2-1.3c-0.3-0.2-0.5-0.4-0.6-0.7c-0.1-0.9,0.6-1.6,1.5-1.7
		c0.6,0,1.2,0.3,1.5,0.8c0.1,0.3,0,0.7-0.1,1c0.1,0.2,0.5,1,0.6,1.2c0.1,0,0.3,0,0.4,0c0.3,0,0.5,0.2,0.5,0.4c0.1,0.2,0.1,0.3,0,0.4
		s0,0.1,0.1,0.1c0.3,0,0.5,0.2,0.6,0.4c0.1,0.3,0.2,0.4,0.1,0.6s-0.1,0.1,0,0.1s0.3,0.3,0.3,0.6s0.1,0.5-0.1,0.6s-0.1,0.1,0.1,0.1
		s0.2,0.3,0.1,0.6c0,0.3-0.2,0.7-0.6,0.7l0.1,0.4c1.3-0.3,2.6-0.5,3.9-0.8l0.8,1.9c-1.2-0.2-2.4-0.2-3.6,0l-0.3,0.1l0.3,1l6.6,23.5
		c0.7,2.4,0.3,6.4,0.1,6.5s-2.7-3.1-3.4-5.5l-7-23.3l-0.3-1l-0.3,0.1c-1.1,0.5-2.1,1.1-3,1.9l-0.4-2c1.2-0.5,2.4-1,3.7-1.4
		c0-0.1,0-0.1-0.1-0.2c-0.4,0-0.8,0-1.2-0.1c-0.1,0-0.4,0-0.5-0.1s-0.2-0.1-0.2,0c0,0.1-0.1,0.2-0.2,0.2c-0.7,0.2-1.4,0.6-2.1,1.1
		c-1.2,0.7-2.2,1.9-3.3,2.7s-2,1.6-3.1,2.4c0,0,0.3,1.1-0.4,1.8s-1.6,0-1.7,0.1c-0.6,0.6-1,1.5-1.5,2.2c-0.3,0.4-0.6,0.8-0.8,1.2
		c-0.2,0.5-0.4,0.9-0.7,1.4c-0.3,0.5-0.6,0.9-1,1.4c0.6-0.3,1.2-0.8,1.8-1.1c0.7-0.4,1.5-0.6,2.3-0.5c0.4,0,0.8,0,1.1,0.1
		c0,0.3,0,0.6-0.2,0.9c-0.4,0.8-0.9,1.5-1.5,2.2c0.4-0.2,0.8-0.4,1.3-0.5c0.9-0.3,1.8-0.3,2.7-0.3c0.4,0,0.8,0.1,1.2,0.3
		c-0.1,0.4-0.2,0.7-0.3,1c-0.4,0.7-0.9,1.3-1.5,1.8c-0.8,0.6-1.7,1.2-2.6,1.7c1.3-0.3,2.5-0.8,3.7-1c1.3-0.3,2.6-0.4,3.9-0.2
		c0.4,0,0.7,0.1,1,0.3c-0.1,0.3-0.3,0.6-0.5,0.9c-0.5,0.6-1.1,1.1-1.8,1.6c-0.9,0.6-1.9,1.1-2.9,1.6c1.3-0.1,2.7-0.3,4-0.3
		c1.4,0,2.7,0.2,4.1,0.5c0.4,0.1,0.8,0.2,1.1,0.4c0,0.1-0.4,0.4-0.7,0.6c-0.7,0.6-1.5,1-2.3,1.4c-1,0.4-2.2,0.7-3.2,1
		c1.3,0.1,2.7,0.1,3.9,0.3c1.5,0.3,2.9,0.7,4.4,1.2c0.4,0.1,1.1,0.6,1.1,0.7s-0.5,0.4-0.8,0.6c-0.6,0.3-1.3,0.6-2,0.8
		c-1.1,0.3-2.2,0.5-3.3,0.6c0.7,0.1,1.4,0.3,2.1,0.5c1.1,0.2,2.1,0.5,3.2,0.9c1,0.4,1.9,0.9,2.7,1.5c0.3,0.2,0.8,0.6,0.7,0.7
		c-0.2,0.2-0.5,0.3-0.8,0.4c-0.6,0.2-1.1,0.3-1.7,0.4c-1.1,0.1-2.2,0.2-3.4,0.1c1.4,0.5,2.8,1.1,4.1,1.9c0.9,0.5,1.7,1.2,2.5,1.9
		c0.3,0.3,0.6,0.6,0.7,1c-0.4,0.2-0.7,0.3-1.1,0.3c-1.1,0.1-2.3,0.1-3.4,0c1,0.5,1.9,1,2.8,1.7c0.8,0.6,1.4,1.3,1.9,2.1
		c0.1,0.2,0.2,0.4,0.2,0.6c-0.2,0.1-0.5,0.2-0.7,0.2c-0.9,0-1.8,0-2.6-0.2c-1.5-0.4-3-1-4.3-1.7c-1-0.4-1.9-0.9-2.9-1.4
		c0,0.3-0.1,0.6-0.2,0.6c-0.3-0.2-0.6-0.4-0.9-0.6c-1.1-0.5-2.2-0.9-3.4-1.2c-1-0.1-1.9-0.4-2.8-0.8c0.1,0.3-0.1,0.7-0.2,0.6
		c-0.3-0.3-0.7-0.5-1.2-0.6c-1.1-0.4-2.3-0.6-3.4-1c-2.1-0.7-4.1-1.8-5.8-3.3c-1.3-1.3-2-3.1-2.2-4.9c0-1.3,0.2-2.6,0.8-3.8
		c0.1-0.6-0.1-1.2-0.5-1.6c-0.5-0.6-1-1.1-1.5-1.6l-0.1-0.1c0,0.1,0,0.1,0,0.2c-0.2,0.4-0.6,0.7-1,0.7c-0.5,0-0.9-0.3-1.2-0.7
		c-0.4-0.5-0.8-1.1-1.2-1.7c-0.2-0.3,0.2,0.9,0.1,1.4s-0.2,1-0.2,1.4c3.7,4.5,3,11.2-1.5,14.8c-4.5,3.7-11.2,3-14.8-1.5
		c-3.7-4.5-3-11.2,1.5-14.8c0.5-0.4,1-0.8,1.6-1.1c-0.1-0.2-0.2-0.4-0.2-0.6c0-0.1,0-0.2,0-0.3L91.7,242.8z M64,209.7
		c-0.8,0.1-1.5,0.2-2.3,0.2l-0.1,9.1L64,209.7z M61.1,209.9c-0.8,0-1.7-0.1-2.5-0.3l2.4,8.7L61.1,209.9L61.1,209.9z M81.5,209.9
		c0.6-0.1,1.1-0.2,1.7-0.3l-2.8,8.9L81.5,209.9z M71.8,230c-0.2,0.4-0.7,0.6-1.1,0.6l0,0c-0.1,0-0.3,0-0.4,0l0,0
		c0,0.2,0.4,0.7,0.4,0.9c0.4,0.1,0.7,0.1,1.1,0.1c0.4-0.1,0.6-0.6,0.6-1S72.1,230.1,71.8,230L71.8,230L71.8,230z M113.6,176.7
		c-0.4,0.5-1,1.4-1.5,2.1c-0.6,0.9-1.2,1.9-1.6,3c-0.1,0.3-0.2,0.7-0.4,1c0,0.2,0,0.4,0,0.5c-0.1,0.5-0.4,0.9-0.8,1.1
		c-0.5,0.3-1,0.5-1.5,0.6l-0.6,0.2l-0.3,0.3c-0.1,0.1-0.3,0.2-0.4,0.4c-0.1,0.2-0.3,0.4-0.5,0.6c-0.3,0.2-0.4,0.3-0.5,0.5
		s0.1,0.3,0.2,0.6s0,0.5-0.2,0.6s-0.3,0.2-0.3,0.3c-0.1,0.2,0,0.4,0.1,0.6c0.2,0.2,0.3,0.2,0,0.4c-0.3,0.1-0.6,0.1-0.9,0
		c-0.3-0.1-0.5-0.3-0.6-0.6s-0.1-0.3-0.2-0.3s-0.2,0-0.2-0.2c0-0.1,0-0.1,0-0.2c-0.1,0.1-0.2,0.1-0.3,0.2c-0.1,0.1-0.2,0.3-0.1,0.5
		c0,0.2,0.1,0.4,0.2,0.5c0.2,0.2,0.2,0.3-0.2,0.3c-0.3,0-0.6-0.2-0.8-0.4c-0.2-0.3-0.3-0.6-0.3-0.9c0-0.3,0.1-0.3,0-0.4
		s-0.3-0.3-0.3-0.5c0-0.1,0-0.2,0.1-0.3c-0.1-0.1-0.3,0-0.4,0.1c-0.2,0.1-0.2,0.3-0.2,0.5c0,0.3,0,0.4-0.3,0.2
		c-0.3-0.1-0.5-0.4-0.5-0.7c-0.1-0.3,0-0.5,0.1-0.8c0.1-0.2,0.2-0.2,0.2-0.5c-0.1-0.2,0-0.4,0.1-0.6c0.2-0.2,0.4-0.4,0.6-0.5
		c0.3-0.2,0.5-0.3,0.7-0.5c0.2-0.3,0.5-0.5,0.8-0.6c0.4-0.1,0.7-0.3,1-0.5c0.4-0.2,0.7-0.5,1-0.7c0.3-0.3,0.7-0.6,1.1-0.8
		c0.4-0.3,0.7-0.6,1-1c0.1-0.3,0.2-0.7,0.4-1c0.2-0.5,0.5-1.1,0.6-1.7c0.2-0.5,0.4-0.8,0.5-1.4c0-0.2,0-0.5-0.1-0.7
		c-0.5,0.1-1.1,0.2-1.6,0.2c-1.6,0.1-3.1,0.6-5,0.7l0,0c-1.4,0.1-2.9,0.2-4.3,0.1c-0.9-0.2-3.9-0.3-4.8-0.5s-1.4-0.2-1.8-0.3
		c0.3,0.3,0.4,0.6,0.4,1c0,0.7-0.1,1.3-0.2,2c-0.1,0.5-0.2,1.1-0.3,1.6c0.3-0.2,0.6-0.5,0.6-0.9c0-0.2,0.2-0.4,0.4-0.6
		c0.2-0.1,0.3-0.1,0.5,0c0.2,0,0.4-0.1,0.5-0.2c0.2-0.2,0.3-0.5,0.3-0.8c0-0.4,0.2-0.3,0.4-0.2c0.2,0.1,0.3,0.3,0.4,0.4
		c0.2,0.3,0.2,0.6,0.1,0.9c-0.1,0.2,0,0.4,0,0.5c0.1,0,0.2,0,0.3,0.1c0.2-0.1,0.3-0.1,0.5-0.3c0.1-0.1,0.2-0.3,0.2-0.5
		c0-0.2,0.2-0.2,0.3,0.1c0.2,0.2,0.2,0.5,0.2,0.8c0,0.2-0.1,0.5-0.2,0.7c-0.1,0.1-0.1,0.2,0,0.2c0.1,0.1,0.1,0.2,0,0.4
		c-0.1,0.3,0.2,0.2,0.4,0.2c0.2-0.1,0.4-0.3,0.5-0.6c0.1-0.3,0.3,0.1,0.4,0.4c0.1,0.3,0,0.6-0.1,0.9c-0.1,0.2-0.3,0.4-0.5,0.5
		c-0.2,0.1-0.2,0.4-0.3,0.5c-0.2,0.1-0.4,0.2-0.6,0.2c-0.2,0-0.6,0.1-0.9,0.1h-0.9c-0.4,0-0.7,0.1-1.1,0.1c-0.3,0.1-0.5,0.2-0.8,0.3
		c0.2,0.5,0.4,1.1,0.6,1.6c0.3,0.8,0.6,1.6,0.8,2.4c0.3,1.1,0.6,2.2,0.8,3.3c0.2,1,0.3,1.9,0.3,2.9c0,0.9-0.1,1.8-0.2,2.7
		c0,0,0,0.1,0,0.1c0.7,0,1.2,1.1,1.4,1.7s0.3,1.6-0.2,2c-0.1,0-0.2,0.1-0.3,0.1c0.2,0.3,0.4,0.5,0.7,0.8c0.8,1,1.6,2,2.3,3
		c0.7,1,1.3,2.1,2,3.2c0.3,0.5,0.6,1,0.8,1.5l0,0c0.8-0.2,1.6-0.2,2.5-0.2c0.7,0,1.4,0.3,2.1,0.3h0.1c0.2-0.8,0.5-1.6,0.8-2.4
		c0.5-1.4,0.9-2.8,1.4-4.1c0.2-0.5,0.6-1.3,0.8-2c-0.1,0-0.2,0-0.2,0c-0.5-0.1-0.5-1.7-0.3-2.4s0.7-1.7,1.4-1.6
		c0.2,0,0.3,0.2,0.4,0.4c0-0.2,0-0.5,0-0.7c0.1-1.1,0.2-2.2,0.3-3.2c0.1-0.7,0.3-1.4,0.6-2.1l0.1-0.2c-1.1-0.4-2-1.2-2.4-2.4
		c-0.3-0.9-0.2-1.8,0.3-2.6c0.6-0.6,1.4-1,2.2-1.1c0.8-0.2,1.5-0.3,2.3-0.3c0.2-0.7,0.5-1.4,0.8-2.1c0.3-1,0.6-2.1,0.8-3.2
		c0.1-0.7,0.1-1.3,0.1-2c0-0.4,0-0.8,0-1.1L113.6,176.7z M73.3,192.2c-0.2,0-0.4-0.1-0.5-0.1l-0.3-0.1c-0.1,0.2-0.3,0.4-0.4,0.5l0,0
		l0.4,0.1c0.3,0.1,0.6,0.1,0.8,0.1C73.3,192.5,73.3,192.4,73.3,192.2L73.3,192.2z M66.4,188.5l-0.7-0.6c-0.5-0.5-1.2-0.8-1.8-0.7
		h-0.1c0.2,0.1,0.3,0.3,0.6,0.5c0.5,0.5,1,1,1.4,1.5c0.6,0.6,1.2,1.1,1.9,1.6c0.8,0.5,1.7,0.9,2.6,1.2c0.3,0.1,0.5,0.1,0.8,0.2
		c0.1-0.2,0.1-0.3,0.2-0.5c0.1-0.2,0.1-0.4-0.2-0.3c-0.2,0-0.5,0.1-0.7,0.2c-0.3,0.2-0.4,0.2-0.4-0.1s-0.1-0.3-0.1-0.4
		s0.1-0.2-0.2-0.2c-0.2,0-0.3,0-0.4,0.1c-0.3,0.2-0.3,0.1-0.3-0.1s-0.2-0.3-0.2-0.6s0.1-0.4,0-0.4s-0.4,0-0.6,0.1s-0.2,0.1-0.4,0.1
		s-0.3,0.1-0.3-0.1c0-0.2,0-0.4-0.1-0.5c0-0.1,0.1-0.4-0.1-0.4s-0.4,0-0.5,0.1s-0.3,0-0.3-0.1s-0.1-0.3-0.1-0.4
		C66.4,188.7,66.4,188.6,66.4,188.5L66.4,188.5z M72.1,196.2L72.1,196.2c0-0.3,0.1-0.6,0.2-0.9c0.1-0.3,0.2-0.6,0.2-0.8l0,0l0.7,0.1
		h0.1c-0.1,0.3-0.2,0.7-0.3,1c-0.1,0.2-0.2,0.4-0.3,0.7C72.6,196.3,72.3,196.2,72.1,196.2L72.1,196.2z M71.7,194.3l-0.1,0.1
		c-0.2,0.3-0.3,0.6-0.4,0.9c-0.1,0.3-0.2,0.4-0.2,0.6l0,0h-0.1c0,0,0-0.1,0-0.1c0-0.3,0-0.7-0.1-1c0-0.3-0.1-0.4-0.3-0.3
		s-0.2,0.1-0.4,0.3s-0.3,0.1-0.3-0.1c0-0.1,0-0.3-0.1-0.4c0-0.1-0.1-0.2-0.3-0.2c-0.1,0-0.3,0-0.4,0c-0.2,0-0.2,0-0.2-0.2
		s0-0.3-0.2-0.4s-0.3-0.3-0.4-0.3c-0.1,0-0.3,0-0.4,0.1c-0.1,0-0.2,0-0.2-0.2c0-0.1-0.1-0.3-0.1-0.4c0-0.2-0.1-0.2-0.2-0.2
		s-0.4-0.1-0.6-0.1c-0.2,0-0.3,0-0.5,0.1H66c-0.2-0.2-0.4-0.4-0.6-0.6c-0.7-0.7-1.3-1.5-1.8-2.3c-0.1-0.4-0.2-0.9-0.1-1.3l0.4,0.3
		c0.5,0.4,1.1,1.1,1.6,1.7c0.7,0.7,1.4,1.4,2.2,2.1c0.9,0.8,1.8,1.4,2.8,1.9C70.9,194.1,71.3,194.2,71.7,194.3L71.7,194.3z
		 M117.4,185.8c0.6,0.2,1.1,0.5,1.7,0.8c1.4,0.8,2.6,1.9,3.6,3.2c0.2,0.2,0.3,0.4,0.4,0.6c1.3,0.3,2.7,0.4,4.1,0.2
		c1.7-0.2,3.3-1.1,4.4-2.5c1-1.4,1.5-3.1,1.4-4.8c-0.1-1.8-0.5-3.5-1.3-5.1c-0.7-1.5-2.1-2.7-3.7-3.2c-1.5-0.6-3.1-1-4.7-1
		c-0.8,0-1.7,0.2-2.5,0.4c-0.2,0.4-0.5,0.8-0.7,1.1c-0.4,0.5-0.9,1.1-1.3,1.7c-0.6,0.9-1,2-1.1,3.1c-0.1,1.3-0.1,2.7-0.2,4
		C117.5,184.8,117.5,185.3,117.4,185.8"/>
	
		<path id="path18" style="clip-path:url(#SVGID_00000070828219189441603090000016615202822664152977_);fill-rule:evenodd;clip-rule:evenodd;fill:#FFFEFE;" d="
		M99,252.8c0-0.1,0-0.2,0-0.3c0-0.1,0-0.2-0.1-0.3c0-0.1,0.1,0,0.2,0c0.1,0.1,0.1,0.1,0.2,0.2c0,0.1,0.1,0.1,0.1,0.2
		c0,0.1,0,0.1-0.1,0.1C99.2,252.7,99.1,252.7,99,252.8L99,252.8z M93.8,251.2c0-0.1,0.1-0.1,0.2-0.2c0.1-0.1,0.1-0.1,0.2-0.2
		c0,0-0.1,0-0.2,0c-0.1,0-0.2,0-0.2,0c-0.1,0-0.1,0-0.2,0.1c0,0-0.1,0,0,0.1S93.8,251.2,93.8,251.2L93.8,251.2z M98.5,252.1
		c-0.1,0-0.2,0.1-0.2,0.1c-0.1,0-0.1,0.1-0.1,0.2c0,0,0,0-0.1-0.1s-0.1-0.1-0.1-0.2s-0.1-0.2,0-0.2c0.1,0,0.2,0,0.2,0L98.5,252.1
		C98.5,252,98.5,252,98.5,252.1L98.5,252.1z M94.7,250.9c0.1,0.1,0.1,0.1,0.1,0.2c0,0.1,0,0.1,0,0.2c0,0,0,0,0.1,0l0.2-0.1
		c0.1,0,0.2-0.1,0.1-0.1c-0.1,0-0.1-0.1-0.2-0.1l-0.2-0.1C94.7,250.9,94.7,250.9,94.7,250.9L94.7,250.9z M71.9,196.2
		c0-0.2,0.1-0.5,0.2-0.8s0.1-0.6,0.2-0.8c0.1-0.2,0.1-0.4,0.2-0.5c0-0.2,0-0.3-0.2-0.1c-0.2,0.2-0.4,0.4-0.5,0.7
		c-0.2,0.3-0.4,0.8-0.5,1c-0.1,0.1-0.1,0.2-0.2,0.4C71.3,196.1,71.6,196.2,71.9,196.2z M73.7,196.6c-0.2-0.1-0.4-0.2-0.6-0.2
		c0,0,0.1-0.2,0.1-0.5s0.3-1,0.3-1.3l0.3,0.1c0,0.3,0,0.6,0,0.9s0,0.5-0.1,0.6S73.7,196.6,73.7,196.6L73.7,196.6z M72.2,191.9
		c-0.1-0.1-0.5-0.2-0.6-0.3c0,0-0.1,0.1-0.2,0.4c-0.1,0.3-0.3,0.6-0.3,0.9c-0.1,0.3-0.1,0.6-0.2,0.9c0,0.2,0.1,0.3,0.2,0
		c0.1-0.3,0.3-0.5,0.5-0.8c0.2-0.3,0.3-0.5,0.4-0.7C72.1,192.2,72.2,192.1,72.2,191.9L72.2,191.9z M70.5,195.9
		c-0.3-0.1-0.6-0.3-0.9-0.4c-0.2-0.1,0-0.1,0.1-0.3s0.3-0.2,0.4-0.3s0.2-0.2,0.3-0.1s0.1,0.5,0.1,0.7S70.6,195.9,70.5,195.9
		L70.5,195.9z M69.3,195.2c-0.3-0.2-0.7-0.4-1-0.7c-0.4-0.2-0.7-0.5-1-0.9c0,0,0.1,0,0.3-0.1c0.1-0.1,0.3-0.1,0.5-0.1
		c0.2,0,0.5,0.1,0.5,0.3s0,0.3,0,0.4s0,0.1,0.2,0.1c0.1,0,0.3-0.1,0.4-0.1c0.1,0,0.3,0,0.3,0.2c0,0.2,0,0.4,0,0.6
		C69.5,195.2,69.5,195.3,69.3,195.2L69.3,195.2z M67.1,193.6c-0.3-0.3-0.7-0.6-0.9-0.9c-0.1-0.1,0.1-0.1,0.3-0.1s0.3,0.1,0.4,0.1
		c0.1,0,0.3,0.1,0.3,0.2c0,0,0,0,0,0c0,0.2,0,0.3,0,0.5S67,193.6,67.1,193.6L67.1,193.6z M71.1,191.3c-0.1-0.1-0.5-0.3-0.8-0.5
		s-0.9-0.6-1.2-0.8s-1.1-0.5-1.3-0.6s-0.2-0.2-0.2,0s0,0.3,0,0.5s0,0.4,0.2,0.3c0.2-0.1,0.3-0.1,0.5-0.1c0.1,0,0.3,0,0.4,0
		c0.2,0,0.3,0,0.3,0.1c0,0.2,0,0.3,0,0.5c0,0.1,0,0.2,0.1,0.3c0,0,0,0.1,0,0.1c0,0.1,0,0.1,0.1,0c0.1-0.1,0.3-0.1,0.4-0.1
		c0.2,0,0.2,0,0.4,0s0.2,0,0.1,0.1s0,0.2,0,0.4s0,0.3,0.2,0.2c0.2-0.1,0.3-0.1,0.5-0.2C71,191.5,71.2,191.5,71.1,191.3L71.1,191.3z
		 M67.3,189.1c-0.2-0.1-0.5-0.3-0.7-0.4c-0.1-0.1-0.1,0.1,0,0.2s0,0.2,0.1,0.3s0,0.2,0.2,0.1S67.5,189.2,67.3,189.1L67.3,189.1z
		 M62.3,195.9c0.2-0.2,0.2-0.5,0.2-0.8c0-0.1,0-0.1,0.1,0c0.1,0.1,0.1,0.2,0.2,0.4c0.1,0.2,0,0.3-0.1,0.4
		C62.5,195.9,62.4,195.9,62.3,195.9L62.3,195.9z M61.4,195.2c0.1-0.2,0.2-0.5,0.5-0.5s0.2,0,0-0.1c-0.2-0.1-0.4-0.2-0.5-0.3
		c-0.2-0.1-0.2-0.1-0.2,0.1c0,0.2,0,0.3,0,0.5C61.2,195,61.2,195.1,61.4,195.2L61.4,195.2z M111.6,242.1c-0.4,0.3-0.8,0.6-1.2,0.8
		c-0.7,0.3-1.3,0.8-1.5,1.6c0.8,0.7,1.6,1.4,2.2,2.3c0.4,0.5,0.4,1.2,0.1,1.7c-0.5,1.3-0.7,2.6-0.5,4c0.2,1.8,1,3.4,2.4,4.5
		c1.6,1.3,3.3,2.2,5.2,2.9c1.1,0.4,2.3,0.7,3.4,1.1c0.4,0.1,0.5,0.5,0.6,0.3c0.1-0.4,0-0.7-0.2-1c-0.4-0.6-0.9-1.1-1.5-1.5
		c-1-0.6-2-1.1-3.1-1.4c-0.5-0.1-1-0.2-1.5-0.5c0.8,0,1.5-0.2,2.2-0.5c0.3-0.2,0.6-0.4,0.8-0.8c-0.2-0.3-0.5-0.5-0.8-0.7
		c-0.8-0.4-1.6-0.7-2.4-0.9c0.5-0.2,1-0.5,1.5-0.8c0.2-0.2,0.3-0.3,0.4-0.6c-0.2-0.3-0.5-0.5-0.8-0.7c-0.6-0.3-1.2-0.5-1.9-0.5
		c0.6-0.2,1.2-0.5,1.7-0.9c0.2-0.2,0.4-0.5,0.5-0.9c0-0.1-0.4-0.4-0.7-0.5c-0.6-0.2-1.2-0.3-1.8-0.1c0.5-0.4,1-0.8,1.4-1.2
		c0.2-0.3,0.4-0.6,0.4-0.9c-0.3-0.2-0.6-0.3-0.9-0.4c-0.6-0.1-1.3-0.1-1.9,0.1c0.4-0.4,0.8-0.8,1.1-1.2c0.2-0.2,0.4-0.7,0.4-0.8
		c-0.3-0.2-0.6-0.3-0.9-0.3c-0.7-0.1-1.4,0-2,0.2c0.4-0.4,0.7-0.9,1-1.4c0.1-0.3,0.2-0.6,0.2-0.9c-0.3-0.1-0.6-0.2-0.9-0.1
		c-0.4,0-0.7,0.1-1.1,0.2L111.6,242.1z M117.9,252c0.2,0,2.7-0.1,3.6,0c1.5,0.1,2.9,0.6,4.1,1.5c0.2,0.2,0.6,0.5,0.6,0.5
		c-0.2,0.2-0.5,0.3-0.7,0.4c-1.1,0.4-2.3,0.6-3.4,0.4c-0.4,0-0.7,0-1.1,0c0.4,0.2,0.9,0.3,1.3,0.4c1.8,0.5,3.6,0.9,5,2.1
		c0.2,0.2,0.5,0.5,0.5,0.5s-0.5,0.3-0.7,0.4c-0.7,0.2-1.4,0.2-2.1,0.2c-0.9-0.1-1.7-0.2-2.6-0.4c-0.2,0-0.6-0.1-0.7-0.1
		c0.2,0.1,0.5,0.2,0.8,0.3c1.2,0.4,2.4,0.7,3.6,1.1c1.4,0.4,2.5,1.3,3.2,2.5c0.2,0.3,0.2,0.6,0.2,0.9c0,0.2-0.2-0.2-0.7-0.4
		c-0.8-0.4-1.6-0.6-2.4-0.9c-0.9-0.2-1.8-0.3-2.7-0.5c-0.3-0.1-0.7-0.3-0.8-0.6c-0.1-0.3-0.2-0.6-0.4-0.9c-0.5-0.6-1.2-1.2-1.8-1.6
		c-0.6-0.4-1.3-0.7-1.9-1c-0.3-0.1-0.5-0.2-0.7-0.3c0.4-0.2,0.9-0.4,1.3-0.7c0.2-0.2,0.4-0.4,0.5-0.6c-0.1-0.3-0.3-0.5-0.5-0.7
		c-0.4-0.3-0.8-0.6-1.2-0.7c-0.2-0.1-0.5-0.2-0.8-0.3c0.3-0.2,0.5-0.4,0.8-0.6c0.2-0.2,0.5-0.5,0.5-0.6
		C118.3,252.3,118.1,252.1,117.9,252L117.9,252z M124.1,253.7c-0.2-0.1-0.5-0.2-0.8-0.2c-1.2-0.1-2.3-0.2-3.5-0.3
		c-0.2,0-0.7-0.1-0.7,0.1c0,0.3,0.4,0.3,0.7,0.3c1.1,0.1,2.3,0.1,3.4,0.2C123.6,253.7,124.4,253.8,124.1,253.7L124.1,253.7z
		 M125.8,257.5c-0.1-0.2-0.3-0.3-0.5-0.3c-1-0.3-1.9-0.5-2.9-0.6c-0.6-0.1-1.2-0.2-1.8-0.3c-0.2,0-0.4,0-0.4,0.1s0.3,0.2,0.4,0.2
		c0.6,0.1,1.2,0.2,1.8,0.3c0.9,0.1,1.9,0.2,2.7,0.4C125.4,257.4,125.9,257.6,125.8,257.5z M123.1,260.2c0.7,0.2,1.4,0.4,2.2,0.5
		c0.5,0.1,1,0.2,1.5,0.4c0.2,0,0.6,0.3,0.5,0.2c-0.1-0.1-0.3-0.3-0.4-0.4c-0.5-0.2-1-0.4-1.5-0.5c-0.7-0.1-1.3-0.3-2-0.5
		c-0.2,0-0.6-0.2-0.5-0.1C122.8,260,123,260.1,123.1,260.2L123.1,260.2z M117.9,251.7c-0.3-0.1-0.6-0.3-0.9-0.4
		c-0.2-0.1-0.5-0.2-0.7-0.2c0.3-0.1,0.5-0.3,0.7-0.4c0.3-0.3,0.6-0.6,0.8-0.9c0-0.1-0.1-0.4-0.4-0.5c0.7,0,1.5,0,2.1-0.1
		c1.3-0.1,2.5,0.1,3.7,0.5c0.4,0.1,0.8,0.3,1.2,0.5c0,0.1-0.6,0.4-0.9,0.6c-0.7,0.3-1.4,0.6-2.1,0.8
		C120.2,251.6,119,251.7,117.9,251.7z M122.9,250.1c-0.3-0.1-0.5-0.1-0.8-0.1c-1,0-2.1,0-3.1,0.1c-0.2,0-0.6,0-0.6,0.2
		s0.4,0.2,0.6,0.2c1-0.1,2.1-0.1,3.1-0.2C122.3,250.3,123.1,250.2,122.9,250.1L122.9,250.1z M116,248.4c0.3,0.1,0.7,0.2,1,0.4
		c0.8-0.1,1.6-0.3,2.3-0.5c1-0.3,1.9-0.8,2.6-1.5c0.2-0.2,0.6-0.4,0.5-0.5s-0.4-0.2-0.6-0.3c-1-0.2-2-0.3-3-0.2
		c-0.7,0.1-1.4,0.3-2.1,0.5c0.2,0,0.4,0.2,0.4,0.4c0,0.1-0.1,0.3-0.2,0.4C116.7,247.5,116.4,248,116,248.4L116,248.4z M121.3,246.5
		c-0.3,0-0.5,0-0.8,0c-0.9,0.1-1.8,0.3-2.7,0.6c-0.2,0.1-0.6,0.1-0.5,0.3s0.4,0.1,0.7,0.1c0.9-0.2,1.8-0.4,2.7-0.7
		C120.9,246.7,121.6,246.5,121.3,246.5L121.3,246.5z M115,245.9c0.5,0,0.9,0.1,1.4,0.2c0.7-0.2,1.4-0.5,2.1-0.8
		c0.7-0.4,1.3-0.9,1.8-1.6c0.1-0.1,0.3-0.4,0.3-0.5c-0.1-0.1-0.3-0.1-0.5-0.2c-0.8-0.1-1.7-0.1-2.5,0.1c-0.9,0.2-1.8,0.4-2.7,0.7
		c0.2,0,0.4,0.1,0.6,0.2c0.1,0.1,0.3,0.1,0.4,0.2c0,0.2-0.1,0.4-0.2,0.6C115.5,245.1,115.3,245.5,115,245.9L115,245.9z M119.5,243.5
		c0.1-0.1-0.4,0-0.6,0.1c-0.8,0.2-1.5,0.5-2.2,0.8c-0.2,0.1-0.3,0.1-0.4,0.3s0.4,0.1,0.6,0c0.7-0.2,1.4-0.5,2.1-0.8
		C119.2,243.7,119.4,243.6,119.5,243.5L119.5,243.5z M113.3,243.8c0.3-0.1,0.7-0.1,1-0.1c0.7-0.3,1.3-0.8,1.9-1.2
		c0.5-0.5,1-1.1,1.4-1.7c0.1-0.2,0.4-0.6,0.3-0.6s-0.5-0.1-0.7-0.1c-0.5,0-1.1,0.1-1.6,0.3c-0.6,0.2-1.2,0.4-1.8,0.7
		c-0.4,0.2-0.7,0.3-1.1,0.5c0.2,0,0.5,0,0.7,0.1c0.2,0,0.4,0.1,0.6,0.2c0,0.3-0.1,0.6-0.2,0.9C113.6,243,113.4,243.4,113.3,243.8
		L113.3,243.8z M116.9,240.7c-0.1,0.1-0.3,0.2-0.4,0.3c-0.5,0.3-1,0.6-1.6,0.9c-0.2,0.1-0.5,0.3-0.5,0.2c0-0.3,0.2-0.5,0.4-0.6
		c0.5-0.3,1-0.5,1.5-0.7C116.5,240.8,117,240.6,116.9,240.7z M113.9,238.3c0.2-0.1,0.4-0.3,0.4-0.2c-0.1,0.2-0.2,0.3-0.4,0.5h-0.1
		c-0.1,0.3-0.2,0.5-0.3,0.8c-0.4,0.7-0.9,1.4-1.4,2.1h0.2c0.6-0.5,1.1-1,1.6-1.5c0.4-0.5,0.7-1.1,1-1.8c0.1-0.2,0.2-0.4,0.2-0.5
		c-0.2,0-0.4,0-0.5,0c-0.2,0-0.3,0-0.5,0.1C114,237.9,114,238.1,113.9,238.3L113.9,238.3z M129.8,262.6c0.9,0.6,1.9,1,2.9,1.4
		c1.2,0.6,2.4,1.1,3.7,1.5c0.9,0.3,1.8,0.4,2.7,0.4c0.2,0,0.6,0,0.7-0.1s-0.2-0.5-0.4-0.8c-0.4-0.5-0.8-0.9-1.3-1.3
		c-0.8-0.7-1.7-1.2-2.6-1.6c-1.5-0.8-3.1-1.4-4.7-2l-2.1-0.9c-0.2-0.1-0.7-0.3-0.5-0.2c0.3,0.1,0.6,0.1,0.9,0.2
		c1.1,0.3,2.1,0.7,3.1,1.1c1.8,0.7,3.8,1,5.8,0.8c0.3,0,0.6,0,0.9-0.1c0.1-0.1-0.4-0.5-0.6-0.7c-0.8-0.7-1.6-1.3-2.5-1.8
		c-1.5-0.8-3.1-1.5-4.7-2c-1.5-0.4-3.1-0.8-4.7-1c-0.2,0-0.8,0-0.6-0.1c0.2-0.1,0.4-0.1,0.6,0c1.2,0.1,2.3,0.2,3.5,0.4
		c1.4,0.2,2.9,0.4,4.4,0.3c0.9,0,1.7-0.1,2.5-0.4c0.3-0.1,0.8-0.1,0.8-0.2s-0.4-0.3-0.7-0.5c-1-0.6-2-1.1-3.1-1.4
		c-1.1-0.4-2.3-0.7-3.4-1c-1.8-0.4-3.7-0.5-5.6-0.7c-0.3,0-0.7-0.1-1-0.2c-0.3-0.1,0.7-0.1,1-0.1c1.6-0.1,3.2,0,4.9-0.1
		c1.5-0.2,3-0.6,4.5-1.1c0.3-0.1,0.8-0.2,0.8-0.4s-0.7-0.4-1-0.5c-1.5-0.5-3.1-0.9-4.8-1c-1.8-0.1-3.5-0.1-5.3-0.1
		c-0.7,0-1.6,0.1-2.2,0c0.6,0.2,1.2,0.4,1.8,0.6c0.5,0.2,0.9,0.4,1.3,0.7c-0.1,0.2-0.3,0.5-0.5,0.6c-0.7,0.5-1.5,0.8-2.3,1.1
		c0.8,0.2,1.6,0.4,2.4,0.7c0.7,0.3,1.3,0.7,1.8,1.2c0.2,0.1,0.3,0.3,0.4,0.5c-0.2,0.3-0.4,0.5-0.7,0.6c-0.6,0.3-1.4,0.4-2,0.6
		c0.5,0.3,1.5,0.5,2.2,0.9c0.7,0.4,1.3,0.9,1.8,1.5c0.1,0.2,0.2,0.3,0.3,0.5c0.1,0.1-0.3,0.4-0.5,0.4c-0.8,0.2-1.3,0.3-1.6,0.4
		c1.1,0.5,2,1.2,2.9,2C129.5,261.4,129.8,262,129.8,262.6L129.8,262.6z M137.8,265c-0.2-0.3-0.5-0.6-0.9-0.8
		c-0.5-0.3-2.5-1.1-3.2-1.5s-1.7-0.8-2-0.9s-1-0.4-0.9-0.1s0.4,0.4,0.8,0.6s1.5,0.7,2.1,0.9s2.4,1,2.8,1.2S137.9,265.1,137.8,265z
		 M137.2,260.5c-0.2-0.1-0.5-0.3-0.9-0.6s-2.8-1.1-3.3-1.3s-2.2-0.8-2.6-0.9s-1.3-0.6-1.2-0.2s0.6,0.5,1.1,0.6s1.9,0.7,2.6,0.9
		s2.5,0.9,3.1,1.1C136.3,260.2,136.8,260.4,137.2,260.5L137.2,260.5z M135.9,255.2c-0.2-0.1-0.8-0.2-1.3-0.4s-1.8-0.5-3.1-0.7
		l-2.8-0.5c-0.7-0.1-1.2-0.2-1.1,0s0.4,0.3,1.1,0.4s1.7,0.2,2.8,0.4s2.4,0.5,3,0.6S136.1,255.2,135.9,255.2L135.9,255.2z
		 M133.2,249.9c-0.3,0-1-0.1-1.6-0.1s-2.9,0-3.9-0.1s-2-0.1-1.7,0.1c0.5,0.2,1.1,0.3,1.7,0.3c0.7,0,3.3,0,3.8,0
		C132.1,250.1,132.7,250.1,133.2,249.9L133.2,249.9z M120.1,248.5l2.8-0.4c1.4-0.2,2.9-0.5,4.3-0.9c1.4-0.4,2.7-0.9,3.9-1.6
		c0.2-0.1,0.8-0.4,0.8-0.5c-0.3-0.1-0.5-0.2-0.8-0.2c-1.1-0.3-2.2-0.4-3.3-0.4c-1.4,0-2.9,0.1-4.3,0.3c-1,0.1-2,0.4-3,0.5
		c0.5,0.1,1.1,0.2,1.6,0.3c0.4,0.1,0.7,0.3,1,0.5c-0.2,0.3-0.3,0.6-0.6,0.9c-0.4,0.4-0.9,0.7-1.4,1
		C120.9,248.2,120.5,248.4,120.1,248.5L120.1,248.5z M129.8,245.3c-0.3,0-0.9,0.1-1.4,0.1s-2.8,0.3-3.3,0.4s-1.5,0.1-1.3,0.3
		s0.8,0.1,1.3,0.1s2.7-0.4,3.2-0.4C128.8,245.7,130.1,245.3,129.8,245.3L129.8,245.3z M119.8,245c0.8-0.3,1.5-0.5,2.3-0.8
		c1.1-0.4,2.2-0.9,3.3-1.5c0.8-0.4,1.5-0.9,2.1-1.5c0.2-0.2,0.7-0.6,0.7-0.7s-0.6-0.2-0.9-0.2c-1.1,0-2.2,0-3.2,0.2
		c-1.2,0.3-2.4,0.6-3.6,1c-0.9,0.3-1.8,0.6-2.7,1c0.7-0.1,1.3-0.1,2,0c0.5,0.1,0.9,0.2,1.3,0.3c-0.1,0.4-0.2,0.8-0.4,1.1
		C120.4,244.4,120.1,244.7,119.8,245L119.8,245z M126.7,240.9c-0.5,0.1-1.1,0.2-1.6,0.4c-0.4,0.2-1.7,0.7-2.1,0.8s-1.4,0.4-1,0.5
		c0.4,0.1,0.8,0,1.2-0.2c0.3-0.1,1.8-0.7,2.1-0.8S127,240.8,126.7,240.9L126.7,240.9z M116.7,242.6c0.6-0.4,1.2-0.6,1.7-1
		c1.1-0.6,2.2-1.2,3.2-1.9c0.8-0.6,1.5-1.3,2.1-2.1c0.2-0.2,0.5-0.6,0.4-0.7c-0.3-0.1-0.5-0.1-0.8-0.1c-0.9,0-1.8,0.2-2.7,0.4
		c-0.9,0.2-1.8,0.6-2.6,1c-0.6,0.5-1.3,0.9-1.9,1.4c0.4,0,0.7,0,1.1,0c0.4,0,0.7,0.1,1.1,0.1c-0.1,0.3-0.2,0.7-0.4,1
		c-0.2,0.4-0.5,0.8-0.8,1.2C117.1,242.2,116.9,242.4,116.7,242.6L116.7,242.6z M122.8,237.6c-0.3,0.1-0.9,0.3-1.3,0.5
		c-0.6,0.2-1.3,0.5-1.9,0.8c-0.4,0.2-0.7,0.4-0.5,0.5s0.4-0.1,0.7-0.2s1.4-0.6,1.8-0.8S123.1,237.5,122.8,237.6L122.8,237.6z
		 M114.2,240.2c0.5-0.2,1-0.4,1.5-0.6c0.8-0.6,1.7-1.2,2.4-1.8c0.8-0.7,1.6-1.5,2.2-2.4c0.2-0.3,0.5-0.8,0.4-0.9
		c-0.4-0.1-0.7-0.1-1.1,0c-1,0.2-2,0.5-2.9,1.1c-0.9,0.5-1.8,1.1-2.8,1.6c0.5,0,1.1,0,1.6,0.1c0,0.4-0.1,0.7-0.3,1.1
		C115,238.9,114.5,239.5,114.2,240.2L114.2,240.2z M119.4,235.3c-0.3,0.2-0.7,0.3-1,0.5l-1.7,1c-0.3,0.2-0.6,0.4-0.4,0.4
		c0.2,0.1,0.5,0,0.7-0.2c0.3-0.2,1.2-0.8,1.5-1S119.7,235.2,119.4,235.3L119.4,235.3z M91.3,242.2c-1,0.4-2,0.9-2.9,1.4
		c-0.9,0.5-1.7,1.1-2.4,1.8c-0.5,0.4-0.6,1.1-0.4,1.7c0.3,1.3,0.2,2.7-0.2,4c-0.5,1.7-1.6,3.1-3.2,4c-1.8,1-3.7,1.6-5.7,1.9
		c-1.2,0.2-2.4,0.3-3.6,0.4c-0.5,0.1-0.6,0.4-0.6,0.1c0-0.4,0.1-0.7,0.4-1c0.5-0.5,1.1-0.9,1.7-1.2c1.1-0.4,2.2-0.7,3.3-0.8
		c0.5,0,1,0,1.5-0.2c-0.8-0.2-1.5-0.5-2.1-0.9c-0.3-0.2-0.5-0.5-0.7-0.9c0.2-0.3,0.5-0.4,0.9-0.5c0.8-0.3,1.7-0.4,2.6-0.4
		c-0.5-0.3-1-0.6-1.3-1.1c-0.1-0.2-0.2-0.4-0.3-0.6c0.3-0.3,0.6-0.5,0.9-0.6c0.6-0.2,1.3-0.2,1.9-0.1c-0.6-0.3-1-0.7-1.4-1.2
		c-0.2-0.3-0.3-0.6-0.4-0.9c0.2-0.2,0.5-0.3,0.7-0.3c0.6-0.1,1.2-0.1,1.8,0.2c-0.4-0.5-0.8-1-1.2-1.5c-0.2-0.3-0.3-0.6-0.3-1
		c0.3-0.1,0.7-0.2,1-0.2c0.6,0,1.3,0.2,1.8,0.5c-0.4-0.4-0.7-0.9-0.9-1.4c-0.1-0.3-0.3-0.8-0.2-0.9c0.3-0.1,0.6-0.2,0.9-0.2
		c0.7,0,1.4,0.2,2,0.6c-0.3-0.5-0.5-1-0.7-1.6c-0.1-0.3-0.1-0.6,0-0.9c0.3-0.1,0.6-0.1,0.9,0c0.6,0.2,1.3,0.4,1.9,0.8
		c-0.3-0.4-0.5-0.9-0.7-1.4c-0.1-0.3-0.1-0.7,0-1c0.3,0,0.6,0,0.9,0.1c0.5,0.1,1.1,0.3,1.5,0.6c0-0.2,0-0.4,0-0.6
		c0.3,1.2,1,2.2,2,2.9c0.2,0.1,0.4,0.3,0.5,0.4L91.3,242.2z M87.8,237.8c-0.2-0.3-0.4-0.6-0.5-0.9c-0.2-0.5-0.4-1.1-0.5-1.7
		c0-0.2,0-0.4,0-0.6c0.1-0.1,0.4,0,0.6,0.1c0.4,0.1,0.7,0.3,1,0.6c-0.1,1.2,0.1,2.3,0.5,3.4C88.4,238.5,88.1,238.2,87.8,237.8
		L87.8,237.8z M78.1,249.3c-0.2-0.1-2.7-0.6-3.5-0.6c-1.5-0.1-3,0.1-4.3,0.8c-0.2,0.1-0.7,0.4-0.7,0.4c0.2,0.2,0.4,0.4,0.7,0.5
		c1,0.6,2.1,1,3.3,1.1c0.3,0,0.7,0.1,1,0.2c-0.4,0.1-0.9,0.1-1.4,0.1c-1.8,0.2-3.7,0.3-5.3,1.2c-0.2,0.1-0.6,0.4-0.6,0.4
		s0.4,0.4,0.7,0.5c0.6,0.3,1.3,0.5,2,0.6c0.9,0.1,1.7,0.1,2.6,0.1c0.3,0,0.5,0,0.8,0.1c-0.3,0.1-0.5,0.1-0.8,0.2
		c-1.2,0.1-2.5,0.2-3.7,0.5c-1.4,0.2-2.7,0.8-3.7,1.9c-0.1,0.3-0.2,0.5-0.2,0.8c0,0.2,0.3-0.1,0.8-0.3c0.8-0.2,1.7-0.3,2.5-0.4
		c0.9-0.1,1.8,0,2.8,0c0.3,0,0.8-0.2,0.9-0.4c0.1-0.3,0.3-0.6,0.5-0.8c0.6-0.5,1.3-1,2.1-1.3c0.7-0.3,1.4-0.5,2.1-0.6
		c0.2-0.1,0.5,0,0.8-0.1c-0.4-0.3-0.8-0.6-1.2-0.9c-0.2-0.2-0.3-0.4-0.3-0.7c0.2-0.2,0.4-0.5,0.6-0.6c0.4-0.2,0.9-0.4,1.4-0.5
		c0.3-0.1,0.5-0.1,0.8-0.1c-0.2-0.2-0.4-0.5-0.6-0.7c-0.2-0.2-0.3-0.4-0.4-0.7C77.8,249.6,78,249.5,78.1,249.3L78.1,249.3z
		 M71.5,256.5c-0.7,0.1-1.5,0.1-2.2,0.1c-0.5,0-1,0.1-1.5,0.1c-0.2,0-0.6,0.2-0.5,0.1c0.1-0.1,0.3-0.2,0.5-0.3
		c0.5-0.1,1.1-0.2,1.6-0.2c0.7,0,1.4,0,2.1-0.1c0.2,0,0.6-0.1,0.5,0C71.8,256.4,71.7,256.5,71.5,256.5L71.5,256.5z M69.4,253.4
		c0.2-0.1,0.4-0.2,0.6-0.2c1-0.1,2-0.1,3-0.1c0.6,0,1.2,0,1.8,0c0.2,0,0.4,0,0.4,0.2s-0.3,0.2-0.5,0.2c-0.6,0-1.2,0-1.8,0
		c-0.9,0-1.9-0.1-2.8-0.1C69.9,253.4,69.3,253.5,69.4,253.4L69.4,253.4z M71.7,249.9c0.3-0.1,0.5-0.1,0.8-0.1
		c1.2,0.1,2.3,0.2,3.5,0.3c0.2,0,0.7,0.1,0.7,0.2s-0.5,0.2-0.7,0.1c-1.1-0.1-2.3-0.3-3.4-0.4C72.3,250.1,71.5,250,71.7,249.9
		L71.7,249.9z M78.2,249.1c0.3-0.1,0.7-0.2,1-0.2c0.2-0.1,0.5-0.1,0.7-0.1c-0.2-0.2-0.4-0.4-0.6-0.6c-0.3-0.3-0.5-0.7-0.6-1.1
		c0-0.1,0.2-0.4,0.4-0.5c-0.7-0.2-1.4-0.3-2.1-0.5c-1.2-0.3-2.5-0.3-3.8-0.2c-0.4,0-0.8,0.1-1.2,0.3c0,0.1,0.5,0.5,0.8,0.8
		c0.6,0.4,1.2,0.8,1.9,1.1C76,248.6,77.1,248.9,78.2,249.1L78.2,249.1z M73.6,246.6c0.3,0,0.5,0,0.8,0l3,0.6c0.2,0,0.6,0.1,0.5,0.3
		s-0.4,0.1-0.6,0c-1-0.2-2-0.5-3-0.7c-0.3-0.1-1-0.3-0.8-0.3L73.6,246.6z M80.6,246.1c-0.3,0-0.7,0.1-1,0.2
		c-0.8-0.3-1.5-0.5-2.2-0.9c-0.9-0.5-1.7-1.1-2.3-1.9c-0.2-0.2-0.5-0.6-0.4-0.6s0.4-0.1,0.7-0.1c1,0,2,0.1,3,0.3
		c0.7,0.2,1.4,0.6,2,0.9c-0.2,0-0.3,0.1-0.4,0.2c0,0.2,0,0.4,0.1,0.5C80.1,245.2,80.3,245.7,80.6,246.1z M75.7,243.3
		c0.3,0,0.5,0.1,0.8,0.2c0.9,0.3,1.7,0.7,2.5,1.1c0.2,0.1,0.6,0.2,0.5,0.4s-0.4,0-0.7,0c-0.9-0.4-1.7-0.7-2.5-1.1
		C76.1,243.7,75.4,243.4,75.7,243.3L75.7,243.3z M82,243.9c-0.5-0.1-0.9-0.1-1.4-0.1c-0.7-0.3-1.3-0.7-1.9-1.2
		c-0.6-0.5-1.2-1.1-1.5-1.9c-0.1-0.2-0.2-0.5-0.2-0.6c0.2-0.1,0.3-0.1,0.5-0.1c0.8,0,1.7,0.2,2.5,0.5c0.9,0.3,1.7,0.7,2.6,1.2
		c-0.2,0-0.4,0-0.6,0.1c-0.1,0-0.3,0.1-0.4,0.1c0,0.2,0,0.4,0.1,0.6C81.6,243.1,81.8,243.5,82,243.9L82,243.9z M78,240.7
		c-0.1-0.1,0.4,0.1,0.5,0.2c0.7,0.4,1.4,0.7,2.1,1.1c0.1,0.1,0.3,0.1,0.3,0.4s-0.4,0-0.6-0.1c-0.7-0.4-1.3-0.8-1.9-1.2
		c-0.1-0.1-0.2-0.3-0.3-0.4L78,240.7z M84.1,242.1c-0.3-0.1-0.7-0.2-1-0.3c-0.6-0.4-1.1-1-1.6-1.6c-0.4-0.6-0.8-1.3-1-2
		c-0.1-0.2-0.2-0.4-0.2-0.7c0.1-0.1,0.5,0,0.7,0.1c0.5,0.1,1,0.3,1.5,0.6c0.6,0.3,1.1,0.6,1.7,1c0.3,0.2,0.6,0.5,1,0.7
		c-0.2,0-0.4,0-0.7,0c-0.2,0-0.3,0-0.5,0c0,0.3,0,0.6,0,0.9c0,0.4,0.1,0.8,0.3,1.2L84.1,242.1z M81.1,238.5c0.1,0.2,0.2,0.3,0.3,0.4
		c0.4,0.4,0.9,0.8,1.4,1.2c0.2,0.1,0.4,0.4,0.5,0.3c0-0.2-0.1-0.5-0.3-0.6c-0.5-0.4-0.9-0.7-1.4-1C81.5,238.6,81.1,238.3,81.1,238.5
		L81.1,238.5z M86.1,240.3c-0.1-0.4-0.2-0.8-0.3-1.1c0-0.3,0-0.5,0.1-0.7c0.2,0,0.4,0,0.7,0c0.3,0,0.6,0,0.9,0.1
		c-0.2-0.3-0.4-0.5-0.6-0.8c-0.5-0.5-1-1-1.7-1.4c-0.4-0.2-0.9-0.4-1.3-0.5c-0.2-0.1-0.3-0.1-0.5-0.1c0,0.2,0,0.3,0.1,0.5
		c0.1,0.7,0.3,1.3,0.7,1.9c0.4,0.6,0.8,1.2,1.2,1.8C85.7,240.1,85.9,240.2,86.1,240.3L86.1,240.3z M84.1,236.4
		c0-0.1,0.3,0.2,0.4,0.3c0.3,0.3,0.7,0.7,1,1.1c0.1,0.1,0.2,0.3,0.1,0.4s-0.3,0-0.4-0.1c-0.3-0.4-0.5-0.8-0.8-1.1
		C84.4,236.7,84.3,236.6,84.1,236.4L84.1,236.4z M64.4,257.7c-1,0.4-2,0.7-3,0.9c-1.3,0.3-2.6,0.6-3.9,0.8c-0.9,0.1-1.9,0.1-2.8-0.1
		c-0.2,0-0.6-0.1-0.7-0.2s0.3-0.5,0.5-0.7c0.5-0.4,0.9-0.7,1.5-1c0.9-0.5,1.9-0.9,2.9-1.2c1.6-0.5,3.3-0.8,5-1.1
		c0.7-0.1,1.5-0.3,2.2-0.5c0.2,0,0.7-0.1,0.5-0.1c-0.3,0-0.7,0-1,0.1c-1.1,0.1-2.2,0.3-3.2,0.5c-1.9,0.4-4,0.3-5.9-0.2
		c-0.3-0.1-0.6-0.2-0.9-0.3c0-0.1,0.5-0.4,0.7-0.6c0.9-0.5,1.8-1,2.8-1.4c1.6-0.5,3.3-0.9,5-1.1c1.6-0.2,3.2-0.2,4.8-0.1
		c0.2,0,0.8,0.1,0.6,0c-0.2-0.1-0.4-0.2-0.6-0.1c-1.2-0.1-2.3-0.2-3.5-0.2c-1.5,0-2.9-0.2-4.4-0.4c-0.8-0.2-1.7-0.4-2.4-0.8
		c-0.2-0.1-0.7-0.2-0.7-0.3s0.5-0.3,0.8-0.4c1.1-0.4,2.1-0.7,3.3-0.8c1.2-0.1,2.3-0.3,3.5-0.4c1.9,0,3.7,0.2,5.6,0.3
		c0.3,0,0.7,0,1,0c0.3-0.1-0.7-0.2-1-0.2c-1.6-0.4-3.2-0.6-4.8-1c-1.5-0.5-2.9-1.1-4.2-1.9c-0.2-0.1-0.7-0.4-0.7-0.5
		s0.7-0.2,1.1-0.3c1.6-0.3,3.3-0.3,5-0.1c1.8,0.2,3.5,0.5,5.2,0.9c0.7,0.1,1.5,0.4,2.1,0.4c-0.6,0.1-1.2,0.2-1.8,0.3
		c-0.5,0.1-0.9,0.3-1.4,0.5c0.1,0.3,0.2,0.5,0.4,0.7c0.6,0.6,1.3,1.1,2.1,1.5c-0.8,0-1.7,0.1-2.5,0.3c-0.7,0.2-1.4,0.5-2,0.9
		c-0.2,0.1-0.4,0.3-0.5,0.5c0.1,0.3,0.3,0.5,0.6,0.7c0.6,0.4,1.3,0.6,1.8,0.9c-0.6,0.2-1.6,0.2-2.3,0.5c-0.7,0.3-1.4,0.6-2.1,1.1
		c-0.2,0.1-0.3,0.3-0.4,0.4c-0.1,0.1,0.3,0.4,0.5,0.5c0.5,0.3,1,0.5,1.5,0.7c-1.1,0.3-2.2,0.8-3.2,1.4c-0.5,0.4-0.8,1-1,1.6
		L64.4,257.7z M63.4,244.6c0.3,0,1,0.1,1.6,0.2s2.9,0.5,3.8,0.6s2,0.2,1.6,0.4c-0.6,0.1-1.2,0.1-1.7,0c-0.7-0.1-3.2-0.6-3.7-0.7
		C64.5,245,63.9,244.9,63.4,244.6L63.4,244.6z M56.2,258.6c0.3-0.3,0.6-0.5,1-0.6c0.5-0.2,2.6-0.7,3.4-0.9s1.8-0.5,2.1-0.6
		s1-0.2,0.9,0.1s-0.5,0.3-0.9,0.4s-1.6,0.4-2.2,0.5s-2.6,0.5-3,0.6S56,258.7,56.2,258.6L56.2,258.6z M57.6,254.2
		c0.2-0.1,0.5-0.2,1-0.4s2.9-0.6,3.5-0.7s2.3-0.4,2.7-0.4s1.4-0.3,1.2,0s-0.6,0.4-1.2,0.4l-2.7,0.4c-0.7,0.1-2.7,0.4-3.2,0.5
		C58.4,254.2,58,254.2,57.6,254.2L57.6,254.2z M59.8,249.2c0.5-0.1,0.9-0.1,1.4-0.1c0.5,0,1.8-0.1,3.2-0.1h2.8c0.7,0,1.2,0,1,0.2
		s-0.5,0.2-1.1,0.2s-1.7-0.1-2.8-0.1s-2.5,0-3.1,0S59.6,249.3,59.8,249.2L59.8,249.2z M76.6,245.5l-2.7-1c-1.4-0.5-2.8-1-4.1-1.6
		c-1.3-0.6-2.5-1.4-3.6-2.3c-0.2-0.2-0.7-0.5-0.7-0.7c0.3-0.1,0.6-0.1,0.8-0.1c1.1-0.1,2.2,0,3.3,0.2c1.5,0.2,2.9,0.6,4.3,1.1
		c1,0.3,1.9,0.7,2.9,1c-0.5-0.1-1.1-0.1-1.7,0c-0.4,0-0.7,0.2-1.1,0.3c0.1,0.3,0.2,0.6,0.4,0.9c0.3,0.4,0.7,0.8,1.2,1.2
		c0.3,0.3,0.7,0.6,1,0.9L76.6,245.5z M67.6,240.6c0.3,0.1,0.9,0.2,1.3,0.4s2.7,0.8,3.1,1s1.5,0.4,1.2,0.5s-0.8,0-1.3-0.2
		s-2.6-0.9-3-1S67.3,240.6,67.6,240.6L67.6,240.6z M77.4,242.1c-0.7-0.4-1.4-0.8-2.1-1.2c-1-0.6-2-1.3-2.9-2.1
		c-0.6-0.6-1.2-1.2-1.6-1.9c-0.2-0.3-0.6-0.7-0.6-0.8s0.6-0.1,0.9-0.1c1.1,0.2,2.1,0.4,3.1,0.8c1.2,0.5,2.3,1,3.4,1.6
		c0.9,0.5,1.7,1,2.5,1.4c-0.6-0.2-1.3-0.3-1.9-0.4c-0.5,0-0.9,0-1.4,0.1c0,0.4,0.1,0.8,0.2,1.2c0.2,0.4,0.4,0.8,0.6,1.2L77.4,242.1z
		 M71.4,236.8c0.5,0.2,1,0.4,1.5,0.7c0.4,0.2,1.5,0.9,2,1.2s1.3,0.6,0.9,0.7c-0.4,0-0.7-0.1-1-0.3c-0.2-0.2-1.6-1-1.9-1.2
		c-0.5-0.3-0.9-0.6-1.4-0.9L71.4,236.8z M81,240.4c-0.5-0.4-1-0.8-1.5-1.3c-1-0.8-1.9-1.6-2.8-2.5c-0.6-0.8-1.2-1.6-1.7-2.4
		c-0.1-0.2-0.4-0.7-0.3-0.7c0.3-0.1,0.5-0.1,0.8,0c0.9,0.2,1.8,0.5,2.6,0.9c0.8,0.4,1.6,0.9,2.4,1.4c0.5,0.6,1.1,1.1,1.6,1.7
		c-0.4-0.1-0.7-0.2-1.1-0.2c-0.4,0-0.7,0-1.1,0c0,0.3,0.1,0.7,0.2,1c0.2,0.4,0.3,0.9,0.5,1.3C80.8,239.8,80.9,240.1,81,240.4
		L81,240.4z M75.9,234.3c0.3,0.1,0.8,0.5,1.2,0.7c0.6,0.3,1.1,0.7,1.7,1.1c0.4,0.3,0.6,0.5,0.4,0.6s-0.4-0.2-0.7-0.4
		s-1.3-0.9-1.6-1.1S75.7,234.1,75.9,234.3L75.9,234.3z M83.9,238.4c-0.4-0.3-0.9-0.6-1.3-0.9c-0.6-0.7-1.4-1.4-2.1-2.2
		c-0.7-0.8-1.3-1.8-1.7-2.8c-0.1-0.3-0.3-0.9-0.3-1c0.4,0,0.7,0.1,1.1,0.2c1,0.3,1.9,0.9,2.7,1.6c0.8,0.7,1.6,1.4,2.4,2.1
		c-0.5-0.1-1-0.2-1.6-0.2c0,0.4,0,0.7,0.1,1.1C83.4,237,83.7,237.7,83.9,238.4L83.9,238.4z M79.6,232.6c0.2,0.1,0.5,0.4,0.9,0.7
		l1.5,1.3c0.3,0.2,0.5,0.4,0.3,0.5s-0.4,0-0.6-0.3s-1-1-1.2-1.3S79.5,232.5,79.6,232.6L79.6,232.6z M86.7,236.6
		c-0.4-0.4-0.7-0.7-1.2-1c-0.6-0.8-1.3-1.5-1.9-2.3c-0.5-0.7-0.9-1.5-1.1-2.4c-0.1-0.3-0.1-0.6-0.1-0.9c0.3,0,0.6,0.1,0.9,0.2
		c0.9,0.5,1.7,1,2.4,1.7c0.8,0.7,1.4,1.6,2.2,2.3c-0.4-0.2-0.9-0.3-1.3-0.4c-0.1,0.4-0.1,0.8-0.1,1.2
		C86.5,235.7,86.6,236.1,86.7,236.6L86.7,236.6z M83.1,231.1c0.3,0.2,0.6,0.4,0.8,0.6c0.3,0.3,1.3,1.5,1.5,1.8s0.2,0.3,0.1,0.4
		s-0.3-0.1-0.5-0.3s-1.3-1.5-1.6-1.8S83,231,83.1,231.1L83.1,231.1z M94.8,258.6c0.1,0.4,0.5,0.7,0.9,0.7c0.4,0.1,0.9,0.1,1.3-0.1
		l1.6-0.4c0.5-0.1,1-0.4,1.4-0.7c0.4-0.4,0.7-0.9,1-1.4c0.2-0.5,0.5-1,0.8-1.6c0.3-0.7,0.7-1.4,1.2-2c0.4-0.4,0.8-0.9,1.1-1.4
		c0.3-0.5,0.4-1.1,0.5-1.6c0-0.4,0.2-1.2,0.2-1.5c0.1-0.2,0.1-0.4,0-0.5c-0.1-0.6-0.1-1.1,0-1.7c0.1-0.5,0.1-1.2,0.1-1.6
		s0-0.8-0.1-0.5c-0.1,0.4-0.2,0.9-0.4,1.3c-0.2,0.3-0.3,0.6-0.4,0.9c0,0.3-0.2,0.1-0.3-0.2c-0.1-0.3,0-0.7,0.2-1
		c0.2-0.3,0.6-0.9,0.5-1.1s-0.1-0.3-0.3-0.2c-0.3,0.1-0.5,0.3-0.7,0.5c-0.2,0.4-0.3,0.8-0.4,1.2c-0.1,0.3,0,0.8-0.2,0.6
		c-0.2-0.2-0.3-0.4-0.3-0.7c0-0.2,0-0.5,0-0.7c0-0.3,0-0.3-0.2-0.2c-0.2,0.1-0.3,0.3-0.4,0.5c-0.1,0.3-0.3,0.6-0.4,0.9
		c-0.1,0.2-0.1,0.5,0,0.7c0.2,0.5,0.2,1.1,0.3,1.6c0,0.5,0.1,2,0.2,2.4s0,0.3,0.2,0c0.1-0.1,0.2-0.3,0.2-0.4c0-0.1,0.1-0.2,0.2,0
		c0.1,0.2,0.1,0.5-0.1,0.7c-0.1,0.3-0.3,0.5-0.5,0.8c-0.3,0.3-0.5,0.6-0.7,1c-0.2,0.4-0.7,1.4-0.9,1.6c-0.1,0.2-0.3,0.4-0.4,0.6
		c-0.1,0.1-0.1,0.3-0.2,0.6s-0.4,0.6-0.7,0.5s-0.2-0.1,0-0.3s0.3-0.2,0.3-0.4s-0.1-0.1-0.3,0c-0.3,0.2-0.6,0.3-0.9,0.4
		c-0.2,0-0.4,0.1-0.6,0.2c-0.2,0.1-0.1,0.3-0.4,0.5s-0.3,0.1-0.5,0.1s-0.1-0.2,0-0.3c0.2-0.1,0.3-0.2,0.4-0.4
		c0.1-0.1,0.5-0.4,0.1-0.3c-0.4,0-0.9,0.2-1.3,0.4c-0.2,0.2-0.5,0.7-0.7,1s-0.2,0.7-0.5,1C94.8,258.2,94.8,258.5,94.8,258.6
		L94.8,258.6z M102.6,246.4c0,0.3,0,0.6,0,0.9c0.1,0.4,0.1,0.9,0.1,1.3c0,0.4,0,0.7-0.1,1.1c-0.1,0.2,0,0.2,0.1,0
		c0.2-0.2,0.4-0.4,0.5-0.6c0.1-0.3,0.1-0.7,0-1c-0.1-0.3-0.2-0.7-0.3-1C102.8,246.8,102.7,246.3,102.6,246.4L102.6,246.4z
		 M92.5,249.4c0-0.2,0.2-0.5,0.3-0.7c0.1-0.3,0.2-0.7,0.2-1c0-0.5,0.1-1,0.2-1.4c0-0.3,0.1-0.6,0.3-0.8c0.2-0.2,0.3-0.4,0.4-0.6
		c0.1-0.2-0.1-0.3-0.2-0.1s-0.4,0.3-0.5,0.4c-0.2,0.2-0.4,0.5-0.5,0.8c-0.1,0.4-0.1,0.8-0.1,1.1c0.1,0.3,0.1,0.7,0,1.1
		c-0.1,0.3-0.1,0.5-0.2,0.8C92.4,249.3,92.5,249.6,92.5,249.4L92.5,249.4z M94.2,258.4c-0.4,0.2-0.9,0.1-1.2-0.2
		c-0.2-0.3-0.7-0.6-1-1c-0.3-0.4-0.6-0.9-0.8-1.4c-0.1-0.6-0.2-1.2-0.2-1.8c0-0.4,0.1-1.6,0.2-2.2c0-0.6,0-1.3,0-1.9
		c-0.1-0.7-0.1-1.3,0-2c0.1-0.6,0.4-1.2,0.7-1.7c0.3-0.4,0.6-0.8,0.9-1.1c0.4-0.4,0.7-0.9,1.1-1.4c0.1-0.2,0.3-0.4,0.4-0.6
		c0.2-0.2,0.6-0.4,0.7-0.6s0.1-0.1,0.3,0s0.3,0.1,0.3,0.4c0,0.4-0.1,0.8-0.2,1.2c-0.1,0.2-0.3,0.7-0.5,1s-0.1,0.3-0.1,0.4
		s0.1,0,0.2-0.1c0.2-0.2,0.3-0.4,0.5-0.6c0.2-0.2,0.4-0.5,0.5-0.8c0.1-0.3,0-0.6-0.1-0.9c-0.1-0.2-0.1-0.3,0-0.2
		c0.2,0.1,0.3,0.2,0.5,0.3c0.2,0.1,0.3,0.2,0.4,0.4s0,0.3,0,0.5s-0.1,0.4-0.1,0.6s-0.1,0.2-0.3,0.3c-0.3,0.2-0.5,0.4-0.7,0.6
		c-0.2,0.2-0.7,0.9-0.9,1.1c-0.3,0.3-0.5,0.7-0.8,1c-0.2,0.3-0.5,0.9-0.7,1.2c-0.2,0.5-0.4,1-0.6,1.5c-0.2,0.5-0.3,0.9-0.4,1.4
		c-0.1,0.5-0.2,0.5,0,0.9s0.6,1.1,0.8,1.4c0.3,0.5,0.5,1,0.5,1.6c0,0.5,0.1,0.3,0.2,0.1s0-0.4,0.1-0.3c0.3,0.3,0.5,0.7,0.6,1.1
		c0,0.4,0.2,0.5,0.1,0.8c0,0.3-0.1,0.5-0.2,0.7c0,0.2-0.1,0.3-0.2,0.5c0,0.1-0.1,0.1-0.2,0.2L94.2,258.4z M113.3,238.7
		c-0.2,0.8-0.6,1.5-1.1,2.1c-0.8,0.8-1.7,1.5-2.7,2.1c-0.7,0.3-1,0.4-1,0.8c0,0.5-0.2,1-0.4,1.4c-0.3,0.3-0.6,0.5-0.9,0.2
		c-0.6-0.6-1-1.3-1.4-2c-0.5-1-0.8-2.1-1.1-3.2c-0.2-1.1-0.3-2.3-0.2-3.5c0-1,0.3-1.9,0.9-2.7c0.5-0.5,1.1-0.9,1.8-1.1
		c0.6-0.3,1.3-0.3,1.9-0.1c0.6,0.1,1.1,0.6,1.2,1.2c0.3,1.1,0.8,2.1,1.4,3c0.4,0.4,0.8,0.8,1.3,0.9c0.4,0.1,0.3,0.2,0.3,0.4
		C113.4,238.3,113.4,238.5,113.3,238.7L113.3,238.7z M108,243.2c-0.5-0.4-1-0.8-1.3-1.4c-0.4-0.6-0.8-1.3-1-1.9
		c-0.2-0.8-0.4-1.6-0.4-2.5c0-0.5,0-0.4,0.2,0.1s0.3,1.5,0.6,2.2c0.3,0.7,0.6,1.4,1,2c0.3,0.4,0.5,0.8,0.8,1.2
		C108.1,243.1,108.2,243.3,108,243.2L108,243.2z M100.8,245.6c-0.3-0.3-0.6-0.5-0.9-0.8c-0.5-0.3-1-0.5-1.5-0.6
		c-0.3-0.1-0.7,0-1,0.1c-0.2,0.1-0.2,0.1-0.1-0.1c0.1-0.4,0.1-0.8,0.1-1.2c0-0.3-0.1-0.4,0.1-0.5c0.3-0.2,0.6-0.4,1-0.5
		c0.3-0.1,0.7-0.1,1-0.1c0.5,0.1,0.9,0.2,1.3,0.5c0.3,0.2,0.7,0.5,0.9,0.8c0.1,0.1,0.2,0.3,0.3,0.5c0.1,0.1,0.1,0.1-0.1,0.2
		c-0.2,0.1-0.4,0.4-0.5,0.6c-0.2,0.3-0.3,0.7-0.4,1C101,245.8,101,245.8,100.8,245.6z M102.5,243.5c-0.2-0.4-0.4-0.7-0.7-1
		c-0.3-0.3-0.8-0.6-1.2-0.7c-0.6-0.2-1.2-0.3-1.8-0.2c-0.5,0-1,0.2-1.4,0.5c-0.2,0.2-0.3,0.3-0.5,0.6c-0.1,0.2-0.1,0.2-0.4,0
		s-0.6-0.3-0.8-0.5s-0.3-0.1-0.1-0.5s0.5-0.9,0.7-1.2s0-0.3,0.4-0.5c0.5-0.3,1-0.5,1.6-0.5c0.7-0.1,1.5,0,2.2,0.1
		c0.8,0.2,1.5,0.5,2.2,0.9c0.5,0.3,0.9,0.6,1.3,1c0.2,0.1,0.3,0.3,0.4,0.5c0.1,0.2,0.3,0.6,0.4,0.9s0.2,0.1-0.1,0.2
		c-0.3,0.1-0.7,0.2-1,0.3c-0.3,0.1-0.6,0.2-0.9,0.3S102.6,243.7,102.5,243.5L102.5,243.5z M104,240.8c-0.2-0.1-1.3-0.8-1.8-1
		c-0.7-0.3-1.4-0.6-2.2-0.7c-1-0.1-1.9,0-2.8,0.2c-0.5,0.2-0.3,0.2-0.2-0.4s0.2-1.1,0.2-1.6s0-0.4,0.3-0.6c0.4-0.2,0.8-0.4,1.2-0.6
		c0.6-0.1,1.2-0.2,1.8-0.1c0.6,0.1,1.2,0.4,1.8,0.7c0.4,0.3,0.8,0.6,1.2,1c0.2,0.2,0.3,0.2,0.3,0.6s0.2,1.7,0.2,2
		S104.1,240.8,104,240.8L104,240.8z M93,243.3c-0.4,0.2-0.7,0.2-0.9-0.1c-0.1-0.2-0.2-0.5-0.2-0.7c0-0.3-0.1-0.6-0.3-0.8
		c-0.2-0.2-0.6-0.4-0.9-0.8c-0.5-0.5-0.8-1-1.1-1.6c-0.3-0.7-0.6-1.5-0.6-2.4c-0.1-0.8-0.1-1.2-0.1-1.8s-0.1-0.4,0.4-0.6
		c0.8-0.2,1.5-0.6,2.1-1.2c0.7-0.7,1.2-1.7,1.6-1.9c0.4-0.3,1-0.3,1.4-0.2c0.7,0.4,1.2,0.9,1.5,1.6c0.5,1,0.7,2.1,0.7,3.2
		c0,1.2-0.3,2.4-0.8,3.6c-0.4,0.9-0.9,1.7-1.6,2.4C94,242.7,93.5,243.1,93,243.3L93,243.3z M92.1,241.7c0.1-0.2,0.2-0.4,0.5-0.6
		c0.4-0.3,0.7-0.6,1-1c0.4-0.6,0.8-1.2,1.1-1.9c0.2-0.5,0.3-0.6,0.4-1.1s0.2-0.9,0.2-1s0.2-0.3,0.2,0.1c0,0.6-0.1,1.1-0.2,1.6
		c-0.2,0.6-0.4,1.3-0.8,1.9c-0.3,0.6-0.8,1.1-1.2,1.6C92.8,241.5,92,241.9,92.1,241.7z M113.3,237.1c-0.5-0.2-0.9-0.5-1.3-0.9
		c-0.3-0.6-0.7-1.3-0.9-1.9c-0.2-0.5-0.3-0.9-0.5-1.1s-0.2-0.3-0.1-0.6c0.2-0.3,0.4-0.7,0.7-1c0.3-0.3,0.8-1.1,1.1-1.4l1.5-1.6
		c0.6-0.6,1.3-1.2,2-1.7c0.4-0.2,0.3-0.1,0.7,0c0.6,0.2,1.1,0.5,1.6,0.8c0.5,0.4,0.9,0.8,1.3,1.4c0.2,0.3,0.1,0.2,0,0.5
		s-0.7,1-1,1.5s-0.8,1.2-1.3,1.9s-1.3,1.7-1.8,2.3s-1.2,1.3-1.5,1.7s-0.3,0.3-0.4,0.3L113.3,237.1z M116.6,228.3
		c-0.1,0.1-1.2,1.1-1.5,1.3s-1.1,1.2-1.6,1.7s-1,1.2-1.2,1.6s-0.2,0.4,0.2,0.1s0.8-0.9,1.2-1.3s0.9-1,1.4-1.6
		c0.4-0.4,0.8-0.8,1.2-1.3C116.5,228.6,116.7,228.3,116.6,228.3L116.6,228.3z M92.6,231.2c-0.4,0.4-0.7,0.9-1,1.4
		c-0.4,0.5-0.8,1-1.3,1.3c-0.3,0.2-0.6,0.3-0.9,0.4c-0.2,0-0.4,0-0.4,0s-0.1-0.3-0.2-0.4c-0.1-0.4-0.3-1.2-0.4-1.7s-0.5-1.8-0.6-2.2
		s-0.2-0.9-0.3-1.3s-0.1-0.6-0.1-0.6c0-0.1,0.1-0.2,0.1-0.4c0.2-0.5,0.5-1,0.9-1.4c0.4-0.4,0.8-0.8,1.3-1.2c0.1-0.1,0.2-0.2,0.4-0.3
		c0.2,0.1,0.3,0.3,0.4,0.5c0.3,0.5,0.7,1.4,1.2,2.4c0.5,0.9,0.9,1.9,1.2,2.9c0,0.1,0.1,0.2,0.1,0.3
		C92.9,231.1,92.8,231.1,92.6,231.2L92.6,231.2z M91.6,231.3l-0.5-1.4c-0.2-0.5-0.6-1.5-0.8-2s-0.3-0.7-0.4-1s0.1-0.4,0.2-0.1
		s0.6,1.1,0.8,1.6s0.5,1.3,0.6,1.8s0.2,0.9,0.3,1.1S91.7,231.5,91.6,231.3L91.6,231.3z M86,228.4c-0.3-0.1-0.5-0.5-0.5-0.8
		c0.1-0.7,0.1-1.5-0.1-2.2c-0.2-0.7-0.4-1.3-0.7-2c-0.2-0.4-0.5-0.7-0.3-0.8s0.2-0.1,0.4,0s0.2,0,0.4-0.2c0.6-0.4,1.2-0.8,1.8-1.1
		c0.9-0.4,1.2-0.4,1.6,0.2c0.4,0.6,0.8,1.3,1,2.1c0.1,0.4,0.1,0.4,0.3,0.5c0.1,0,0.2,0,0.3,0.1c0.1,0.1-0.1,0.2-0.3,0.3
		c-0.7,0.4-1.3,1-1.8,1.6c-0.5,0.6-0.9,1.3-1.2,2C86.8,228.4,86.4,228.6,86,228.4L86,228.4z M87.7,221.6c-0.2,0.4-0.3,0.7-0.4,1.1
		c-0.1,0.5-0.3,1-0.3,1.5c0,0.5,0.1,0.6,0.2,0.2s0.4-1.1,0.6-1.5s0.2-0.8,0.3-1.1S87.8,221.2,87.7,221.6L87.7,221.6z M85.2,227.7
		c-0.5,0.3-1,0.5-1.5,0.7c-0.4,0.1-1.4,0.6-2,0.8s-1.9,0.6-2.7,0.9l-1.3,0.5c-0.1,0.1-0.3,0.1-0.4,0.1c-0.1-0.3-0.2-0.7-0.3-1
		c-0.2-0.4-0.4-0.7-0.7-1.1c0,0,0.1-0.1,0.4-0.3s1.3-1.1,1.7-1.4s1.6-1.1,2-1.4s1.7-1.1,2.2-1.4s0.9-0.5,1.2-0.6
		c0.2-0.1,0.3-0.2,0.5-0.2c0.2,0.6,0.5,1.2,0.6,1.8c0.2,0.6,0.3,1.3,0.3,1.9C85.2,227.2,85.2,227.5,85.2,227.7L85.2,227.7z
		 M103.9,237.4c-0.2-0.1-0.5-0.3-1.1-0.8c-0.7-0.5-1.6-0.8-2.4-1c-0.8,0-1.7,0.1-2.5,0.3c-0.2,0.1-0.5,0.2-0.7,0.4
		c-0.1-0.3-0.1-0.7-0.1-1c-0.1-0.8-0.3-1.5-0.6-2.2c-0.3-0.7-0.8-1.4-1.4-1.9c-0.3-0.2-0.6-0.4-1-0.5c-0.1,0,0-0.1,0.1-0.7
		s0.6-2.2,0.8-3s0.8-2,1-2.5c0.1-0.3,0.2-0.6,0.3-0.8c0.4-0.3,1.3-1,2-1.3s1.4-0.8,1.9-1.1s0.8-0.4,1.2-0.6c0.2-0.1,0.4-0.2,0.6-0.2
		c0.7,0.3,1.4,0.6,2.1,1c0.8,0.4,1.5,0.8,2.2,1.3c0.8,0.6,1.3,1,1.7,1.3s0.7,0.6,0.8,0.7c0.1,0.5,0.2,1.6,0.3,2.6s0.3,2.6,0.3,3.2
		s0.1,1.8,0,1.8c-0.2-0.1-0.4-0.1-0.6-0.2c-0.6-0.1-1.2,0-1.8,0.2c-0.8,0.3-1.5,0.8-2.1,1.4c-0.4,0.5-0.7,1.2-0.8,1.9
		c-0.1,0.7-0.2,1.3-0.2,1.4C104,237.2,104,237.3,103.9,237.4L103.9,237.4z M101.7,221.7c-0.2,0.5-0.4,1.4-0.5,2s-0.3,1.8-0.4,2.4
		s-0.3,1.9-0.4,2.7s-0.2,1.6-0.3,2.5s-0.2,1.5-0.2,2.1c0,0.3,0,0.6,0,0.9c0,0.4,0.2,0.7,0.3,0.1s0.2-1.4,0.2-2s0.3-2.6,0.5-3.6
		s0.3-1.8,0.4-2.8s0.3-2,0.4-2.6s0.1-0.8,0.2-1.1S101.8,221.4,101.7,221.7L101.7,221.7z M96.1,223.5c-0.2-0.3-0.3-0.6-0.4-0.9
		c-0.1-0.2-0.3-0.5-0.3-0.7s0.3-0.4,0.5-0.6c0.4-0.4,1.8-1.5,2.4-2s2.7-2.2,3.5-2.8c0,0.3,0,0.7,0,1c0,0.5,0,1.7,0,2.1s0,0.5,0,0.5
		c-0.7,0.3-1.5,0.7-2.2,1.1c-0.7,0.4-2.2,1.3-2.6,1.6S96.4,223.3,96.1,223.5L96.1,223.5z M109,224.6l-1-1c-0.7-0.6-1.5-1.2-2.2-1.7
		c-0.8-0.5-1.6-0.9-2.4-1.3c-0.3-0.2-0.8-0.4-1-0.5c0-0.3,0-0.5,0-0.8c0-0.3,0.1-1.6,0.1-1.9s0-0.8,0.1-0.8c0.3,0.2,0.7,0.6,1.1,1
		s1.3,1.2,1.9,1.6s1.5,1.2,2,1.6c0.7,0.5,1.4,1,2.2,1.4c0.4,0.2,0.7,0.4,0.6,0.5c-0.1,0.5-0.4,0.9-0.7,1.2
		C109.3,224.1,109,224.5,109,224.6L109,224.6z M110.4,221.9c-0.6-0.3-1.2-0.6-1.8-0.9c-0.7-0.5-1.4-1-2.1-1.6
		c-0.5-0.4-1.6-1.4-2-1.8l-1.3-1.3c-0.1-0.1,0.3-0.3,0.6-0.5c0.3-0.2,0.7-0.4,1.1-0.4c0.5,0.1,1,0.2,1.5,0.4
		c0.8,0.2,1.5,0.5,2.3,0.9c0.7,0.4,1.4,0.7,2.1,1.2c0.4,0.3,0.7,0.5,1,0.8c0.2,0.2-0.3,0.6-0.4,0.9c-0.1,0.5-0.3,1-0.5,1.4
		C110.6,221.4,110.4,221.9,110.4,221.9L110.4,221.9z M111.6,218.1c-0.3-0.3-1-0.7-1.5-1.1c-0.9-0.5-1.9-1-2.8-1.4
		c-0.9-0.3-1.9-0.6-2.5-0.8c0.1-0.3,0.2-0.6,0.3-0.9c0.1-0.3,0.3-0.6,0.5-0.8c0.3-0.2,0.6-0.3,0.9-0.2c0.8,0.1,1.5,0.2,2.3,0.3
		c0.7,0.1,1.5,0.3,2.1,0.6c0.7,0.3,1.4,0.6,2,1c0.1,0.1,0.1,0.2-0.1,0.4c-0.3,0.5-0.5,1-0.7,1.5c-0.1,0.3-0.2,0.7-0.3,0.9
		C111.8,217.8,111.8,217.9,111.6,218.1L111.6,218.1z M113,214.4l-1.3-0.7c-0.7-0.3-1.4-0.5-2.1-0.7c-0.7-0.2-1.5-0.3-2.3-0.4
		c-0.6-0.1-1-0.2-1.5-0.2c0.1-0.2,0.1-0.4,0.2-0.6c0.1-0.3,0.2-0.5,0.4-0.8c0.2-0.3,0.5-0.4,0.9-0.5c0.4-0.1,0.9-0.2,1.3-0.2
		c0.5,0,0.9,0,1.4,0.1c0.6,0.1,1.2,0.3,1.7,0.6c0.5,0.2,1,0.4,1.4,0.7c0.4,0.2,0.7,0.4,0.9,0.5s0,0.2-0.1,0.4
		c-0.2,0.3-0.4,0.6-0.6,0.9C113.2,214,113.1,214.5,113,214.4L113,214.4z M95.6,221c0.4-0.4,0.9-0.7,1.3-1s1.3-1.1,1.8-1.5
		s1.1-0.9,1.6-1.3s1-0.8,1.3-1c-0.1-0.2-0.2-0.3-0.4-0.5c-0.2-0.2-0.4-0.4-0.7-0.5c-0.3-0.1-0.6-0.1-0.8,0c-0.4,0.1-0.8,0.3-1.2,0.5
		c-0.6,0.3-1.2,0.6-1.7,0.9c-0.5,0.3-0.9,0.5-1.3,0.9c-0.4,0.3-0.8,0.6-1.2,1c-0.2,0.2,0.1,0.4,0.3,0.6c0.2,0.4,0.4,0.7,0.6,1.1
		C95.2,220.4,95.5,221.1,95.6,221L95.6,221z M94,217.8c0.5-0.4,1-0.7,1.6-1.1c0.5-0.4,1.1-0.7,1.6-1c0.6-0.3,1.3-0.6,2-0.8
		c0.5-0.2,0.9-0.3,1.1-0.3c0,0-0.2-0.2-0.4-0.5c-0.1-0.3-0.3-0.5-0.5-0.8c-0.2-0.2-0.5-0.3-0.8-0.3c-0.5,0-0.9,0.1-1.3,0.2
		c-0.6,0.2-1.2,0.4-1.7,0.6c-0.5,0.2-1,0.5-1.4,0.8c-0.3,0.2-0.6,0.4-0.8,0.6c-0.2,0.1-0.3,0.3-0.5,0.4c-0.2,0.2-0.1,0.3,0.1,0.5
		c0.2,0.1,0.3,0.3,0.4,0.6c0.1,0.2,0.2,0.5,0.3,0.7C93.7,217.5,93.9,217.8,94,217.8L94,217.8z M92.6,215.1c0.3-0.2,1.1-0.8,1.5-1
		c0.5-0.3,1-0.5,1.6-0.8c0.5-0.2,1.2-0.4,1.6-0.6s1.1-0.2,1.5-0.3c0,0-0.1-0.2-0.3-0.5c-0.1-0.3-0.3-0.6-0.5-0.8
		c-0.2-0.2-0.5-0.3-0.8-0.3c-0.4-0.1-0.8-0.1-1.2,0c-0.5,0.1-1,0.2-1.5,0.3c-0.5,0.2-0.9,0.4-1.3,0.6c-0.4,0.2-1.2,0.8-1.6,1.2
		c-0.2,0.2-0.1,0.3,0.1,0.6c0.2,0.3,0.4,0.5,0.5,0.8C92.3,214.6,92.4,214.8,92.6,215.1L92.6,215.1z M102.6,215.8
		c-0.4-0.3-0.5-0.3-0.7,0c-0.2-0.2-0.3-0.4-0.5-0.6c-0.1-0.2-0.3-0.4-0.5-0.5c-0.2-0.1-0.1-0.1-0.4-0.6l-0.3-0.6
		c-0.1-0.2-0.3-0.5-0.5-0.7c-0.4-0.3-0.3-0.2-0.4-0.5s-0.3-0.7-0.5-1c-0.2-0.3-0.4-0.6-0.8-0.8c-0.4-0.2-0.7-0.1,0-0.2
		c0.4-0.1,1.1-0.2,1.6-0.3c0.7-0.1,1.3-0.2,2-0.2c0.5,0,1.1,0.1,1.6,0.2c0.6,0.1,1.2,0.1,1.8,0.1c0.5,0,1.1,0.1,1.4,0.1
		s0.6,0,0.2,0.1c-0.4,0.2-0.7,0.5-0.9,0.9l-0.4,1c-0.1,0.3,0,0.1-0.2,0.4c-0.2,0.2-0.4,0.5-0.5,0.7c-0.2,0.4-0.3,0.8-0.5,1.1
		s0,0.3-0.3,0.4c-0.3,0.1-0.6,0.3-0.8,0.5C103,215.6,102.8,215.8,102.6,215.8L102.6,215.8z M112.9,211.2c-0.4-0.2-0.9-0.4-1.1-0.5
		s-0.9-0.3-1.3-0.4c-0.5-0.1-1-0.2-1.5-0.2h-0.4c-0.2,0-0.5,0-0.7,0c-0.4,0-0.9,0-1.2,0s-1.5-0.1-2-0.1c0-0.2,0.1-0.4,0.2-0.6
		c0.1-0.4,0.2-0.8,0.4-1.4s0.8-2.6,1.1-3.2s0.6-1.2,0.8-1.8c0.3-0.5,0.6-1,0.9-1.5c0,0,0.1,0.2,0.2,0.5s0.6,1,0.9,1.5
		s0.8,1.2,1.1,1.7l1.1,1.6c0.3,0.5,0.4,0.4,0.8,0.1c0.4-0.3,0.7-0.6,1-0.9c0.4-0.4,0.8-0.8,1.1-1.3c0,0.3,0,0.6-0.1,0.9
		c-0.1,0.4-0.3,1.9-0.5,2.6s-0.4,1.6-0.5,2C113.1,210.6,113,210.9,112.9,211.2L112.9,211.2z M108,203.1c-0.2,0.3-0.4,0.6-0.5,0.9
		c-0.1,0.4-0.4,1.2-0.6,1.7s-0.4,1.2-0.5,1.8c-0.1,0.4-0.2,0.8-0.3,1.2c-0.1,0.3,0.2,0.4,0.3,0s0.2-0.8,0.4-1.5s0.4-1.4,0.6-2
		s0.3-0.9,0.4-1.3S108.1,203,108,203.1L108,203.1z M107.4,201.2c-0.3-0.1-0.5-0.9-0.3-1.8s0.8-1.6,1-1.5s0.4,0.4,0.4,0.7
		s0.3,0.2,0.4-0.2c0.2-0.4,0.4-0.7,0.8-1c0.4-0.3,0.8-0.7,1.2-0.9c0.5-0.3,1-0.6,1.3-0.8c0.4-0.2,0.9-0.5,1.3-0.8
		c0.4-0.3,0.3-0.2,0.6,0.1c0.3,0.4,0.6,0.8,0.8,1.3c0.4,0.8,0.5,1.7,0.4,2.5c0,0,0-0.1-0.3-0.4c-0.3-0.3-0.6-0.5-1-0.6
		c-0.4-0.1-0.7-0.1-1.1-0.1c-0.4,0-0.8,0.1-1.1,0.2c-0.3,0.1-0.3,0.2-0.1,0.2s0.4,0,0.6-0.1c0.4,0,0.9,0,1.3,0.1
		c0.4,0.1,0.7,0.2,1,0.5c0.3,0.2,0.3,0.3,0.6,0.9c0.3,0.7,0.4,1.5,0.2,2.3c-0.1,0.5-0.3,1-0.6,1.4c-0.2,0.2-0.4,0.5-0.7,0.6
		s-0.4,0.1-0.8,0.1c-0.4,0-0.8,0-1.1-0.1c-0.3-0.1-0.6-0.2-0.9-0.3c-0.3-0.1-0.5-0.3-0.2,0c0.2,0.3,0.5,0.5,0.8,0.6
		c0.3,0.2,0.7,0.3,1.1,0.3c0.4,0.1,0.8,0,1.1-0.1c-0.2,0.4-0.4,0.7-0.7,1c-0.4,0.4-1.2,1.2-1.5,1.4s-0.3,0.2-0.4,0s-0.4-0.6-0.7-1
		s-0.8-1.1-1.1-1.7c-0.3-0.5-0.6-1.1-0.8-1.6c-0.2-0.4-0.3-0.9-0.5-1.3c-0.1-0.3-0.2-0.5-0.4-0.2S107.7,201.3,107.4,201.2
		L107.4,201.2z M99.2,209.8c-0.6,0.1-1.2,0.2-1.8,0.3c-0.6,0.1-0.7,0.2-0.9,0.3c-0.3,0-0.6,0-0.9,0.1c-0.4,0-0.8,0.1-1.2,0.2
		c-0.6,0.2-1.1,0.5-1.7,0.8c-0.4,0.3-0.8,0.6-1.2,0.9c-0.2-0.2-0.4-0.4-0.5-0.7c-0.3-0.5-0.5-1.1-0.7-1.7c-0.3-0.8-0.5-1.5-0.7-2.1
		c0.1-0.2,0.2-0.4,0.3-0.6c0.3-0.4,0.6-1,0.9-1.4c0.4-0.5,0.7-1.1,1-1.7c0.3-0.7,0.6-1.3,0.8-2c0.2-0.6,0.2-0.8,0.3-1
		s0.3-0.2,0.6,0.2s0.7,1,1.3,1.7s1,1.3,1.6,2.2s1.2,1.8,1.7,2.6C98.6,208.6,98.9,209.2,99.2,209.8L99.2,209.8z M93.2,203
		c0.4,0.3,0.7,0.6,1,1c0.4,0.5,0.7,1,1.1,1.5s0.8,1.2,1.2,1.8c0.3,0.4,0.5,0.9,0.7,1.4c0.2,0.4,0,0.4-0.2,0.1s-0.7-1.1-0.9-1.5
		s-0.6-0.7-0.9-1.3s-0.7-1-1.1-1.6s-0.5-0.8-0.6-0.9S93.1,202.8,93.2,203L93.2,203z M93.9,201c-0.3,0-0.7-0.3-1.1-0.7
		c-0.1-0.1-0.2-0.1-0.3,0.3c-0.1,0.5-0.2,1-0.3,1.5c-0.2,0.7-0.4,1.4-0.8,2.1c-0.4,0.7-0.8,1.4-1.3,2.1c-0.3,0.5-0.7,1.2-0.9,1.4
		s-0.3-0.1-0.5-0.4c-0.2-0.3-0.4-0.6-0.5-1c-0.1-0.4,0-0.5,0-0.5c0.3-0.1,0.6-0.3,0.9-0.5c0.4-0.2,0.7-0.6,0.9-1
		c0.2-0.4,0.2-0.7-0.3-0.2c-0.3,0.3-0.5,0.5-0.8,0.6c-0.3,0.2-0.6,0.3-0.9,0.4c-0.2,0-0.3-0.1-0.5-0.2c-0.3-0.2-0.5-0.5-0.7-0.8
		c-0.4-0.7-0.7-1.4-0.9-2.1c-0.1-0.6-0.1-1.2,0.1-1.8c0.1-0.5,0.3-1,0.5-1.5c0.1-0.2,0.3-0.3,0.6-0.3c0.3,0,0.7,0.1,1,0.2
		c0.4,0.2,0.6,0.4,0.9,0.6s0.2-0.1-0.1-0.4c-0.3-0.4-0.6-0.6-1.1-0.7c-0.4-0.1-0.8-0.2-1.2-0.2c-0.1-0.4-0.2-0.8-0.3-1.2
		c0-0.4,0-0.7,0-1.1c0-0.3,0.1-0.3,0.6,0.1c0.5,0.4,1.1,0.7,1.7,1c0.7,0.4,1.4,0.8,2,1.2c0.5,0.3,0.9,0.7,1.4,1.1
		c0.2,0.2,0.3,0.2,0.3,0.1c0-0.6,0.1-1.1,0.4-1.3s1,0.5,1.3,1.3S94.3,201,93.9,201L93.9,201z M70.7,221.5c-0.2,0-0.3-0.1-0.3-0.3
		c0-0.2,0.1-0.3,0.3-0.3c0.2,0,0.3,0.1,0.3,0.3c0,0,0,0,0,0C71,221.3,70.9,221.5,70.7,221.5z M121.3,229.1c-0.3,0.2-0.7,0.2-1,0.1
		c-0.2-0.2-0.6-0.6-0.9-1c-0.5-0.6-1-1.1-1.7-1.4c-0.5-0.2-1-0.3-1.5-0.4c-0.4,0-0.4,0-0.3-0.3s0.2-0.1,0.3-0.2
		c0.1-0.1,0.2-0.2,0.2-0.3c0.1-0.6,0.2-1.1,0.3-1.7c0.2-0.6,0.2-0.7,0.9-0.7c0.5,0,1,0,1.5,0.1c0.4,0,0.5,0,0.6-0.2s0.1-0.3,0.3-0.4
		s0.2-0.1,0.2,0.2c0,0.5,0,1.1,0.2,1.6c0.1,0.5,0.6,2.2,0.9,2.8S121.6,228.9,121.3,229.1L121.3,229.1z M117.4,223.6
		c0.3,0.2,0.6,0.5,0.8,0.8c0.2,0.4,0.4,0.8,0.6,1.1s0,0.4-0.2,0.1s-0.4-0.6-0.7-1s-0.5-0.6-0.6-0.8S117.2,223.4,117.4,223.6
		L117.4,223.6z M121.7,227.4c-0.3-0.5-0.6-1-0.8-1.6c-0.2-0.8-0.4-1.7-0.5-2.6c0-0.4-0.1-0.4,0.2-0.6s0.8-0.6,1.3-0.9
		s1.6-0.9,2.3-1.2s1.8-0.8,2.5-1.1l1.9-1c0.4-0.2,0.4-0.2,0.6,0.3c0.3,0.6,0.5,1.3,0.9,1.9c0.2,0.4,0.3,0.4-0.1,0.6l-1.9,1
		c-0.5,0.3-0.9,0.6-1.3,1c-0.4,0.4-1.6,1.5-2,1.9s-1.4,1.2-1.9,1.6c-0.3,0.2-0.6,0.4-0.8,0.6C121.9,227.4,121.8,227.5,121.7,227.4
		L121.7,227.4z M116.5,190.3c-0.5-0.2-1.1-0.3-1.6-0.4c-0.6-0.1-1.2-0.1-1.8-0.1c-1,0-1.9,0.3-2.8,0.6c-0.2,0.3-0.3,0.6-0.4,0.9
		c-0.2,0.5-0.4,1.1-0.5,1.6c-0.2,0.7-0.3,1.3-0.3,2c-0.1,0.6-0.1,1.3-0.1,1.8s0,0.6,0,0.6c0.3-0.3,0.6-0.6,1-0.8
		c0.4-0.3,1.3-0.7,1.9-1c0.6-0.3,1.2-0.6,1.7-1c0.3-0.2,0.4-0.2,0.6,0.1c0.3,0.4,0.6,0.8,0.8,1.2c0.2,0.4,0.2,0.5,0.4,0.8
		c0.1-0.3,0.2-0.6,0.3-0.9c0.1-0.4,0.2-1.1,0.3-1.8s0.2-1.5,0.3-2.1S116.5,190.4,116.5,190.3L116.5,190.3z M110,195.6
		c-0.1-0.5-0.1-1,0-1.5c0.1-0.6,0.3-1.2,0.4-1.8c0.2-0.4,0.3-0.9,0.5-1.3s0.2-0.4,0.3-0.6s0.3-0.3,0.1,0.1s-0.3,0.9-0.5,1.3
		s-0.3,0.9-0.4,1.5c-0.1,0.5-0.2,1-0.2,1.5C110.1,195.3,110.1,195.9,110,195.6z M117.3,180.4c-0.4-0.3-0.9-0.4-1.4-0.5
		c-0.7,0-1.4,0.1-2,0.4c0.1-0.3,0.2-0.7,0.2-1c0-0.5,0-1.1,0-1.6c-0.1-0.5,0-1,0.2-1.4c0.2-0.3,0.4-0.6,0.7-0.9
		c0.3-0.3,0.5-0.7,0.7-1.1c0.2-0.6,0.5-1.4,0.8-2.1c0.1-0.5,0.4-0.9,0.6-1.4c0.3-0.5,0.8-0.9,1.2-1.2c0.4-0.3,0.9-0.6,1.4-0.8
		c0.4-0.2,0.8-0.2,1.1-0.1c0.3,0.1,0.2,0.5,0.4,1.1c0.1,0.8,0.1,1.7,0,2.6c-0.1,0.7-0.4,1.4-0.6,2c-0.4,0.7-0.9,1.3-1.4,1.9
		c-0.5,0.6-0.9,1.2-1.2,1.9c-0.2,0.5-0.4,1-0.5,1.6C117.4,180,117.3,180.4,117.3,180.4L117.3,180.4z M89.8,181.1
		c-0.6-0.2-1.2-0.4-1.8-0.5c-0.6-0.1-1.1,0-1.7,0.1c-0.3,0.1-0.5,0.1-0.7,0.2c-0.1-0.2-0.2-0.4-0.4-0.6c-0.4-0.5-0.8-1.1-1.2-1.6
		c-0.2-0.4-0.5-0.8-0.8-1.2c-0.3-0.4-0.7-0.7-1.1-1c-0.3-0.2-0.2-0.3-0.2-0.4s0.1-0.2-0.4-0.3c-0.2,0-0.4-0.2-0.6-0.4
		s-0.4-0.6-0.6-0.9c-0.2-0.2-0.2-0.5-0.1-0.8c0.2-0.2,0.4-0.3,0.7-0.4c0.3-0.1,0.7-0.2,1-0.2c0.4-0.1,0.9,0,1.3,0.1
		c0.5,0.2,0.9,0.5,1.3,0.8c0.6,0.5,1.1,1.1,1.6,1.6c0.3,0.3,0.6,0.6,1,0.8c0.3,0.2,0.6,0.4,0.9,0.6c0.4,0.2,0.5,0.1,0.2-0.1
		c-0.2-0.2-0.4-0.3-0.6-0.5c-0.2-0.2,0-0.2,0.6-0.1c0.5,0,1,0.2,1.5,0.4c0.4,0.3,0.6,0.7,0.6,1.1c0,0.6-0.1,1.2-0.2,1.8
		c-0.1,0.6-0.2,1-0.2,1.2S89.9,181.1,89.8,181.1L89.8,181.1z M91.8,198.4c-0.2-0.2-1-0.8-1.4-1s-1.5-0.9-2.1-1.2
		c-0.5-0.2-1-0.6-1.4-1c-0.3-0.4-0.3-0.6-0.3-1.2s0-1.2,0-2s0-2.8,0-3.9c-0.1-1.4-0.2-2.8-0.4-4.2c-0.1-0.9-0.2-1.3-0.3-1.8
		s-0.1-0.6-0.1-0.6c0.4-0.2,0.9-0.3,1.4-0.4c0.6,0,1.2,0,1.7,0.1c0.5,0.1,0.7,0.1,0.9,0.1c0,0.3,0,0.6,0,0.9
		c0.1,0.9,0.3,1.9,0.5,2.8c0.3,0.9,1.3,3.4,1.6,4.5c0.4,1.5,0.6,3,0.7,4.5c0,1.1,0,2.2,0,2.6s-0.1,0.7-0.1,0.9s-0.1,0.2-0.2,0.3
		c-0.1,0.2-0.2,0.4-0.3,0.6C92,198.6,92.1,198.7,91.8,198.4L91.8,198.4z M89.7,184.8c0.1,0.3,0.2,0.7,0.3,1c0.2,0.6,0.4,1.2,0.4,1.5
		c0.2,0.7,0.4,1.6,0.8,2.8c0.3,1,0.4,2.1,0.5,3.2c0.1,0.9,0.1,1.9,0,2.8c0,0.9-0.2,2.1-0.2,1.3s0-1.6,0-2.4s-0.2-1.7-0.3-2.5
		s-0.3-1.6-0.5-2.5s-0.3-1.5-0.5-2.2s-0.3-1.2-0.4-1.7C89.7,185.6,89.7,185.2,89.7,184.8L89.7,184.8z M117.1,185.7
		c-0.5-0.2-1.1-0.3-1.6-0.4c-0.6-0.1-1.8-0.2-2.2-0.2c0-0.3,0.1-0.6,0.2-0.8c0.1-0.4,0.3-0.8,0.4-1.2c0.1-0.2,0.1-0.5,0-0.7
		c-0.1-0.2-0.1,0.2-0.1,0.5c-0.1,0.3-0.2,0.6-0.3,0.8c-0.1,0.3-0.2,0.6-0.3,0.8c-0.1,0.2-0.1,0.4-0.1,0.6c-0.2,0-0.4,0-0.6,0
		c0-0.2,0.1-0.5,0.2-0.7c0.1-0.4,0.3-0.8,0.4-1.1s0.3-0.7,0.4-1.2s0.5-1.5,0.5-1.5c0.5-0.2,1-0.3,1.5-0.3c0.6,0,1.3,0.2,1.9,0.4
		c0,0-0.1,0.6-0.1,1.1s0,1.7,0,2.2S117.2,185.7,117.1,185.7"/>
	
		<path id="path20" style="clip-path:url(#SVGID_00000070828219189441603090000016615202822664152977_);fill-rule:evenodd;clip-rule:evenodd;fill:#69B42E;" d="
		M121.4,193.9c-0.4-0.5-0.8-1-1.2-1.5c-0.5-0.5-1-0.9-1.6-1.3c-0.5-0.3-1.1-0.5-1.6-0.8c0,0.3-0.1,0.8-0.1,1.3s-0.1,0.8-0.2,1.2
		c0.6,0.1,1.1,0.3,1.8,0.4s1.4,0.3,1.9,0.4S121.1,193.9,121.4,193.9L121.4,193.9z M139.8,205c0.2-0.7,0.1-1.5-0.2-2.2
		c-0.3-0.7-0.8-1.3-1.3-1.7c-0.6-0.5-1.2-0.8-1.9-1.1c-0.9-0.4-2.2-0.7-3.6-1.2c-1.1-0.4-2.3-0.8-3.4-1.3c-1-0.4-1.8-0.9-2.6-1.6
		c-0.9-0.9-1.6-1.8-2.2-2.9c-0.6-1-1.3-1.9-2-2.8c-0.9-1-1.9-1.9-2.9-2.7c-0.9-0.7-1.9-1.1-2.9-1.4c-0.9-0.3-1.8-0.4-2.7-0.5
		c-0.9-0.1-1.7-0.1-2.6,0c-0.9,0.1-1.7,0.2-2.6,0.4c-0.5,0.1-1,0.4-1.4,0.8c-0.3,0.5-0.5,1.1-0.4,1.6c0.1,0.5,0.3,1.1,0.6,1.5
		c0.3,0.4,0.7,0.8,1.1,1l0.6,0.3c0.1-0.2,0.4-0.9,0.5-1.1c0.4-0.2,0.8-0.4,1.2-0.5c0.6-0.2,1.1-0.2,1.7-0.2c0.8,0,1.6,0.1,2.4,0.3
		c0.7,0.1,1.5,0.4,2.2,0.7c0.8,0.3,1.6,0.8,2.3,1.4c0.7,0.7,1.3,1.4,1.8,2.1c0.5,0.7,1,1.4,1.5,2c0.7,0.9,1.5,1.7,2.3,2.4
		c1,0.8,2.1,1.5,3.3,2c1.3,0.4,2.7,0.8,4.1,1c1.3,0.1,2.7,0.3,4,0.6c0.8,0.3,1.5,0.8,2,1.5c0.3,0.3,0.5,0.8,0.5,1.2
		C139.5,206.4,139.7,205.8,139.8,205L139.8,205z M120.9,161.2c0.1-0.4,0-0.9-0.3-1.2c-0.5-0.5-1.1-0.8-1.7-1c-0.9-0.1-1.7,0-2.5,0.4
		c-0.4,0.3-1.1,0.2-1.5,0.5s-0.4,0.9-0.8,0.7c-0.6-0.3-1.2-0.5-1.8-0.5c-0.5,0-1-0.1-1.5-0.3c-0.7-0.2-1.4-0.1-2,0.3
		c-0.5,0.4-1.1,0.7-1.8,1c-0.4,0.3-1.1,0.9-1,1.4s0.4,0.7,0.3,0.9s0,0.2-0.5,0.1c-0.5-0.2-1-0.2-1.6-0.3c-0.6,0-1.5,0.3-2.2,0.4
		c-0.8,0-1.5,0.1-2.3,0.3c-0.7,0.4-1.2,1-1.5,1.8c-0.1,0.5-0.3,0.9-0.7,1.2c-0.3,0.3-0.1,0.6,0.1,1c0.2,0.5,0.3,1,0.4,1.5
		c0.1,0.5,0.3,0.6-0.1,0.5s-1.4-0.1-1.9-0.1s-1.7,0-2.4-0.1s-1.8-0.3-2.8-0.4s-3.1-0.7-3.7-0.8s-2-0.2-2.8-0.5s-2.6-0.9-3.6-1.1
		c-1.1-0.2-2.1-0.4-3.2-0.4c-0.9,0-3.2-0.1-4.1-0.1s-4,0.1-4.7,0.2s-1.1,0.2-1.2-0.3c-0.1-0.5,0.1-0.9,0.4-1.2
		c0.8-0.4,1.7-0.7,2.5-0.9c0.6-0.2,0.3-0.1,0.4-0.5s0.4-0.6,0.9-0.8s1-0.4,1.1-0.7c0.2-0.3,0.5-0.6,0.8-0.8c0.3-0.2,1.2-0.4,1.5-0.6
		c0.4-0.3,0.8-0.6,1.1-1c0.3-0.5,0.7-0.8,1.2-1c0.9-0.2,1.9-0.4,2.8-0.5c0.7-0.1,1.3-0.3,1.9-0.6c0.7-0.2,2.6-0.7,3.4-0.9
		s3.2-0.6,4.3-0.7s5.2-0.5,6.6-0.6c2.1-0.1,4.2-0.1,6.3,0.1c2.2,0.2,9.8,1.1,11.1,1.4c1.4,0.2,2.7,0.6,4.1,1c1,0.3,2,0.8,2.8,1.4
		c0.4,0.5,0.5,1.1,0.4,1.7C121.1,161.6,120.9,161.5,120.9,161.2L120.9,161.2z M96,161.5c-0.3-0.1-0.9-0.1-1.6-0.2s-1.4-0.2-1.9-0.3
		s-1.1-0.1-1.6-0.1s-1.4,0-2.1,0S87,161,86.5,161s-0.6,0.2,0,0.2s1.6,0.1,2.2,0.1s1.6-0.1,2.1,0s1,0.1,1.7,0.1s1.3,0.1,1.9,0.2
		s1.2,0.1,1.5,0.1S96.3,161.6,96,161.5L96,161.5z M106.7,158c-0.6-0.2-1.2-0.4-1.8-0.5c-0.5-0.1-1.4-0.2-2.3-0.3s-1.9-0.1-2.8-0.2
		c-1.1-0.1-2.2-0.1-3.3,0c-0.8,0.1-1.3,0.1-1.6,0.1s-0.5,0.1,0.1,0.2c0.7,0.1,1.3,0.1,2,0.1h2.4c0.7,0,1.7,0.1,2.8,0.1
		s1.9,0.2,2.7,0.3s1.3,0.2,1.6,0.3S106.9,158.1,106.7,158L106.7,158z M105,188c-0.4,0-0.8,0.1-1.2,0.2c-0.3,0.1-0.4-0.1-0.4-0.3
		s0.1-0.3,0.2-0.6c0.1-0.3,0.1-0.6,0.1-0.8c0-0.3,0.2-0.6,0.4-0.7c0.2-0.1,0.4-0.3,0.6-0.6c0.1-0.2,0.2-0.4,0.3-0.6
		c0-0.3-0.1-0.4-0.3-0.1s-0.3,0.4-0.6,0.7c-0.3,0.3-0.5,0.6-0.7,0.9c-0.2,0.4-0.3,0.8-0.3,1.2c0,0.4,0,0.9-0.3,0.7
		c-0.3-0.2-0.6-0.2-0.9-0.3c-0.3-0.1-0.3-0.3-0.3-0.5s0.2-0.5,0.4-0.8c0.2-0.4,0.4-0.8,0.6-1.2c0.1-0.3,0.2-0.6,0.4-0.8
		c0.2-0.2,0.4-0.4,0.6-0.6c0.3-0.3,0.5-0.5,0.8-0.7c0.3-0.3,0.8-0.7,1.2-1s0.6-0.4,0.8-0.6s0.3-0.1,0.6-0.2s0.6-0.4,0.3-0.3
		s-0.5,0-0.4-0.3s0.3-0.7,0.5-1.1s0.3-0.8,0.5-1.2s0.3-1,0.5-1.2c0.1-0.2,0.2-0.5,0.1-0.8c-0.1-0.3-0.3-0.6-0.5-0.8
		c-0.4-0.3-0.8-0.6-1.2-1c-0.2-0.3-0.6-0.2-1-0.3c-0.6-0.2-1.2-0.5-1.7-0.9c-0.5-0.5-0.9-1-1.1-1.6c-0.2-0.5-0.4-1.1-0.4-1.7
		c0.1-0.6,0.2-1.1,0.5-1.6c0.2-0.3,0.3-0.7,0.4-1.1c0.2-0.5,0.6-1,1.1-1.4c0.3-0.3,0.5-0.5,0.8-0.8c0.3-0.2,0.5-0.5,0.6-0.8
		c0,0,0-0.1,0-0.1c-0.1,0.1-0.2,0.1-0.3,0.2c-0.4,0.3-0.7,0.6-1,0.9c-0.3,0.2-0.7,0.7-1,1c-0.3,0.4-0.6,0.9-0.8,1.4
		c-0.9,1.3-1,3-0.3,4.4c0.2,0.6,0.6,1.2,1.1,1.6c0.5,0.4,1,0.7,1.6,0.9c0.6,0.2,1.1,0.1,1.5,0.4s0.6,0.5,0.7,0.6
		c0.1,0.1,0.3,0.2,0.4,0.4c0.1,0-2.6,0.2-3.3,0.3s-3.4,0.5-4.3,0.6c-0.9,0.1-1.9,0.1-2.8,0c-0.6-0.1-1.2-0.2-1.8-0.2
		c-0.7-0.1-1.8-0.1-2.7-0.2s-2.2-0.3-3-0.5s-1.6-0.3-2.2-0.4s-0.7,0-1.1-0.3s-0.8-0.9-1.4-1.4c-0.5-0.4-1-0.8-1.6-1.1
		c-0.4-0.2-0.9-0.3-1.4-0.4c0.1-0.5,0.1-1,0.1-1.6c-0.1-0.4-0.1-0.8-0.1-1.2c0.1-0.5,0.2-0.8,0.1-1.1c0-0.1-0.1-0.2-0.1-0.2
		c-0.2,0.3-0.4,0.7-0.4,1.1c0,0.5,0,1,0,1.6c0.1,0.5,0.1,1-0.1,1.4c-0.3,0.3-0.7,0.6-1.1,0.7c-0.4,0.1-0.7,0.3-1,0.5
		c-0.4,0.3-0.7,0.5-1.1,0.9s-0.7,0.9-1,1.1s-0.6,0.4-0.9,0.6s-0.6,0.3-0.7,0.7c-0.1,0.3,0,0.7,0.2,1c0.2,0.3,0.3,0.7,0.4,1
		c0.2,0.6,0.4,1.1,0.6,1.8s0.4,1.3,0.4,1.7s0.1,0.6,0.4,0.8c0.3,0.1,0.6,0.3,0.8,0.5c0.3,0.3,0.6,0.6,0.8,1c0.1,0.3,0.3,0.6,0.5,0.8
		c0.2,0.2,0.4,0.4,0.6,0.7c0.3,0.3,0.5,0.6,0.7,0.6s0.4,0,0.6,0.1s0.3,0.1,0.2,0.2c-0.2,0.3-0.3,0.7-0.2,1c0.1,0.2,0,0.3-0.2,0.3
		s-0.4-0.2-0.5-0.3c-0.1-0.1-0.3-0.3-0.5-0.3c-0.2-0.1-0.6-0.2-0.7-0.3s-0.5-0.5-0.7-0.7s-0.3-0.2-0.2,0c0.1,0.2,0.2,0.5,0.4,0.7
		c0.2,0.2,0.4,0.4,0.6,0.6c0.2,0.2,0.4,0.4,0.6,0.6c0.1,0.1,0.3,0.1,0.4,0.3c0.1,0.1,0.1,0.2,0.1,0.3c0,0,0,0-0.1,0.1
		c-0.3,0.2-0.6,0.6-0.7,1c0,0.1-0.1,0.2-0.3,0.2c0,0-0.1,0-0.1,0c-0.2-0.1-0.4-0.3-0.4-0.5c-0.1-0.2-0.3-0.4-0.4-0.7
		s-0.4-0.4-0.6-0.7s-0.3-0.4-0.5-0.8c-0.1-0.2-0.2-0.4-0.3-0.6c-0.1-0.2-0.2-0.1-0.2,0.1c0,0.3,0.1,0.6,0.3,0.9
		c0.2,0.2,0.3,0.4,0.5,0.6c0.2,0.3,0.4,0.6,0.6,0.8c0.2,0.1,0.3,0.3,0.3,0.5c-0.2,0.2-0.5,0.4-0.8,0.4c-0.2,0.1-0.4,0-0.4-0.2
		c-0.1-0.2-0.1-0.5-0.3-0.8c-0.1-0.2-0.2-0.4-0.3-0.6c-0.2-0.2-0.3-0.3-0.4-0.6c-0.1-0.3-0.2-0.5-0.3-0.7c-0.1-0.3-0.2-0.5-0.4-0.7
		c-0.1-0.1-0.3-0.3-0.4-0.3c-0.2,0-0.2,0-0.1,0.2s0.3,0.3,0.3,0.4c0,0.2-0.1,0.3-0.3,0.4c-0.2,0.1-0.4,0.1-0.6,0
		c-0.2-0.1-0.4-0.3-0.5-0.6c-0.1-0.2-0.1-0.6,0-0.7c0.1-0.1,0.2-0.3,0.3-0.4c0.1-0.1,0.3,0,0.3,0.1s0.1,0.3,0.1,0.1
		c0-0.3,0-0.5-0.1-0.8c-0.1-0.3-0.2-0.6-0.3-0.9c-0.2-0.3-0.4-0.6-0.5-0.9c-0.1-0.3-0.3-0.7-0.5-1.1s-0.5-1-0.7-1.6
		c-0.2-0.5-0.5-1.1-0.8-1.6c-0.2-0.3-0.4-0.6-0.7-0.9c-0.3-0.2-0.5-0.5-0.6-0.9c-0.1-0.4-0.1-0.9,0-1.3c0-0.4,0.1-0.8,0.2-1.2
		c0.1-0.3,0.3-0.6,0.6-0.8c0.3-0.3,0.6-0.5,0.9-0.9c0.3-0.4,0.5-0.6,0.7-0.8s0.7-1,1-1.4s0.5-0.9,0.7-1.2c0.3-0.3,0.6-0.6,0.9-0.8
		c0.3-0.2,0.6-0.4,1-0.6c0.4-0.2,0.5-0.3,0.2-0.2s-0.7,0.2-1,0.2s-0.3,0.1-0.2-0.2c0.1-0.2,0.2-0.5,0.3-0.7c0.2-0.2,0.2-0.3,0.3-0.5
		s-0.1-0.2-0.3,0.1c-0.2,0.2-0.4,0.4-0.6,0.6c-0.2,0.2-0.3,0.5-0.2,0.8c0,0.3-0.2,0.5-0.4,0.7c-0.3,0.3-0.6,0.6-0.8,1
		c-0.3,0.4-0.5,0.8-0.7,1.2s-0.4,0.5-0.6,0.9c-0.3,0.4-0.6,0.8-0.9,1.1c-0.3,0.4-0.7,0.5-0.9,0.9c-0.2,0.4-0.4,0.7-0.4,1.2
		c-0.1,0.5-0.2,0.9-0.2,1.4c0,0.4,0.1,0.8,0.2,1.1c0,0-0.5,0.2-0.8,0.5c-0.4,0.3-0.7,0.6-1,1c-0.4,0.4-1.4,1.5-1.7,1.9
		c-0.3,0.5-0.6,0.9-1,1.4c-0.3,0.3-0.6,0.7-0.6,1.2c0,0.3,0,0.3-0.3,0.1s-0.3-0.2-0.5-0.3s-0.2,0,0.1,0.3c0.2,0.1,0.3,0.3,0.4,0.5
		c0.1,0.3,0.3,0.5,0.5,0.7c0.3,0.3-0.2,0.2-0.4,0s-0.2,0.2,0.1,0.4c0.2,0.1,0.4,0.1,0.6,0.3c0.3,0.1,0.6,0.3,0.8,0.5
		c0.3,0.2,0.6,0.5,0.9,0.7c0.3,0.2,0.7,0.5,1,0.7c0.4,0.3,0.8,0.5,1.3,0.7s0.7,0.4,1,0.6c0.3,0.2,0.6,0.3,0.9,0.6
		c0.2,0.2,0.2,0.3-0.1,0.2s-0.3,0-0.3-0.1s-0.2,0,0,0.2s0.2,0.2,0.5,0.2c0.4,0,0.8,0.1,1.1,0.2c0.3,0.1,0.5,0.3,0.7,0.5
		c0.2,0.3,0.4,0.7,0.1,0.7c-0.3,0.1-0.6,0.1-0.9,0.1c-0.5-0.1-1-0.2-1.4-0.4c-0.6-0.3-1.2-0.7-1.7-1.1c-0.6-0.4-1.2-0.7-1.9-1.1
		c-0.5-0.2-1-0.5-1.5-0.8c-0.5-0.3-1.3-1.1-1.9-1.4c-0.5-0.3-1.1-0.4-1.6-0.1c-0.3,0.3-0.5,0.8-0.5,1.2c0,0.6,0.1,1.2,0.4,1.7
		c0.3,0.6,0.8,1.2,1.3,1.7c0.4,0.4,1.3,1.3,1.8,1.8s1.3,1.1,1.8,1.4c0.5,0.4,1,0.7,1.6,1c0.5,0.2,1.1,0.4,1.7,0.6
		c0.5,0.1,1,0.2,1.5,0.3c0.4,0.1,0.8,0.3,1.1,0.6c0.2,0.2,0.1,0.5-0.1,0.6c0,0,0,0,0,0c-0.3,0.1-0.5,0.7-0.7,1s-0.4,0.6-0.8,0.7
		s-0.3,0.1-0.5,0.3c-0.1,0.1-0.2,0.2-0.3,0.3c-0.2,0.1-0.5,0.1-0.8,0c-0.3-0.2-0.1-0.3,0-0.3s-0.1-0.1-0.5,0c-0.5,0.1-1,0-1.3-0.2
		c-0.3-0.2-0.5-0.4-1-0.8c-0.2-0.2-0.4-0.3-0.7-0.4c-0.4-0.1-0.8-0.2-1.2-0.4c-0.5-0.2-0.9-0.4-1.4-0.6c-0.4-0.2-0.8-0.4-1.3-0.6
		c-0.3-0.1-0.7-0.1-1-0.1c-0.4,0.1-0.8,0.1-1.2-0.1c-0.4-0.2-0.7-0.4-1-0.7c-0.2-0.3-0.3-0.6-0.6-0.9s-0.2-0.2-0.1,0.2
		c0,0.1,0.1,0.2,0,0.2c-0.3,0.1-0.6,0-0.8-0.1c-0.4-0.1-0.7-0.3-1.1-0.5c-0.3-0.2-0.5-0.4-0.7-0.7c0,0,0.1-0.1,0.2-0.3
		c0.2-0.2,0.3-0.4,0.4-0.6c0.1-0.3,0-0.3-0.2,0c-0.2,0.3-0.4,0.5-0.7,0.6c-0.4,0.3-0.9,0.6-1.3,0.8c-0.5,0.3-1.1,0.7-1.5,1.1
		c-0.4,0.3-0.7,0.6-1,0.8s-0.5,0.1-0.4-0.3s0.1-0.6,0.2-1.1c0-0.4,0.1-0.8,0.3-1.2c0.2-0.4,0.3-0.8,0.6-1.2c0.2-0.4,0.3-0.7,0.6-1.2
		c0.2-0.4,0.5-0.8,0.8-1.1c0.3-0.3,0.6-0.4,1-0.4c0.3,0,0.5,0,0.8-0.1c0.3-0.1,0.2-0.3-0.1-0.2c-0.2,0-0.5,0-0.7,0
		c-0.3,0-0.2,0-0.2-0.3c0-0.6,0.1-1.3,0.2-1.9c0.1-0.7,0.4-1.4,0.6-2c0.3-0.8,1-2.3,1.4-3.2s0.8-1.7,1.2-2.5s1.4-2.2,1.8-2.9
		c0.5-0.8,1-1.5,1.6-2.2c0.5-0.6,1-1.2,1.5-1.8s2.1-2.5,2.6-3.1s1.5-1.6,1.9-2s0.6-0.7,1-0.7s1.8-0.1,2.6-0.1s2.7-0.2,3.3-0.2
		c0.7,0,1.3,0.1,2,0.2l0,0l1.6,0.2c0.6,0.1,1.3,0.3,1.8,0.4l1.3,0.3l0,0c0.5,0.2,1,0.3,1.6,0.4s1.1,0.3,1.9,0.4s2.9,0.6,3.8,0.8
		s1.9,0.4,3.2,0.6c1,0.1,2,0.2,3,0.2c0.8,0,1.8,0.1,2.4,0.1c0.5,0,1-0.1,1.5-0.4c0.5-0.3,0.5-0.6,0.1-0.6c-0.3,0-0.7,0-1-0.1
		c-0.2,0-0.5-0.2-0.5-0.3c-0.1-0.4-0.2-0.8-0.3-1.2c-0.2-0.4-0.3-0.7,0-1c0.3-0.4,0.6-0.9,0.8-1.4c0.2-0.5,0.6-0.9,1.1-1.1
		c0.4-0.2,0.8-0.3,1.2-0.3c0.6-0.1,1.1-0.2,1.7-0.3c0.4-0.1,0.9-0.2,1.3-0.1c0.5,0.1,0.9,0.1,1.3,0.2c0.3,0.1,0.6,0.2,0.9,0.1l0,0
		c0.2,0,0.3-0.2,0.3-0.3c0-0.2,0-0.4-0.1-0.5c-0.2-0.2-0.2-0.5-0.1-0.8c0.2-0.3,0.5-0.6,0.8-0.8c0.4-0.2,0.8-0.4,1-0.5
		c0.4-0.2,0.7-0.4,1-0.7c0.4-0.3,0.9-0.4,1.3-0.2c0.5,0.1,1,0.3,1.5,0.4c0.4,0,0.8,0.1,1.1,0.2c0.3,0.1,0.6,0.2,0.9,0.4
		c0.3,0.2,0.4,0.2,0.5-0.1c0.2-0.4,0.6-0.8,1.1-0.8c0.3,0.2,0.5,0.4,0.8,0.6c0.2,0.2,0.5,0.4,0.8,0.7c0.3,0.3,0.6,0.5,1,0.7
		c0.4,0.2,0.8,0.5,1.2,0.7c0.9,0.4,1.9,0.9,2.8,1.4s2.5,1.2,3.8,2s2.5,1.6,4,2.6c1.2,0.9,2.4,1.9,3.4,3c1.1,1.2,2.1,2.5,2.8,4
		c0.8,1.5,1.3,3.2,1.6,4.9c0.2,1.6,0.2,3.2,0,4.8c-0.3,1.4-0.8,2.8-1.5,4c-0.5,0.9-1.2,1.8-2.1,2.4c-0.9,0.8-2.1,1.4-3.3,1.7
		c-1,0.3-2.1,0.6-3.2,0.8c-0.7,0.1-1.3,0.2-2,0.2c-0.4-0.4-0.7-0.9-0.9-1.4c-0.4-0.7-0.9-1.4-1.5-2.1c0.6,0.1,1.2,0.2,1.8,0.2
		c1.2,0,2.3-0.1,3.4-0.4c1.2-0.3,2.2-1,3-1.9c0.7-0.9,1.2-1.8,1.5-2.9c0.3-1.2,0.4-2.4,0.2-3.6c-0.2-1.2-0.5-2.3-0.9-3.4
		c-0.4-0.9-0.9-1.8-1.6-2.5c-0.7-0.8-1.6-1.4-2.6-1.7c-1-0.4-2.1-0.7-3.1-0.9c-1-0.2-2.1-0.2-3.1,0c-0.3,0.1-0.7,0.2-1,0.2
		c0.3-0.6,0.4-1.3,0.5-1.9c0.2-0.8,0.2-1.7,0-2.6c-0.2-0.7-0.4-1.1-1.1-1.1c-0.6,0-1.3,0.2-1.8,0.6c-0.6,0.4-1.2,0.8-1.7,1.3
		c-0.4,0.4-0.7,1-0.9,1.6c-0.1,0.6-0.3,1.2-0.6,1.8c-0.1,0.3-0.2,0.5-0.4,0.8c-0.2,0.2-0.4,0.2-0.5-0.2c0-0.3-0.2-0.5-0.4-0.6
		c-0.2-0.1-0.6-0.2-0.8-0.4c-0.5-0.3-0.9-0.7-1.2-1.1c-0.2-0.3-0.2-0.8,0-1.1c0.1-0.4,0.3-0.8,0.5-1.1c0.5-0.5,1-0.8,1.6-1.1
		c0.4-0.1,0.8-0.4,1-0.8c-0.1,0.1-0.2,0.2-0.4,0.2c-0.5,0.2-1.3,0.6-1.6,0.8c-0.4,0.2-0.8,0.6-1,1c-0.2,0.5-0.4,0.9-0.6,1.4
		c0,0.4,0.1,0.7,0.4,1c0.2,0.3,0.5,0.5,0.8,0.8c0.3,0.2,0.6,0.4,1,0.6c0.3,0.1,0.4,0.7,0.4,1c0,0.4-0.1,0.8-0.4,1.1
		c-0.3,0.2-0.6,0.4-0.8,0.7c-0.2,0.3-0.7,0.9-0.8,1.2s-0.7,1-1,1.4c-0.3,0.5-0.5,1-0.8,1.5c-0.2,0.4-0.3,0.9-0.5,1.2s-0.3,1-0.4,1
		s-0.2,0-0.1,0.2c0.1,0.3,0,0.6-0.2,0.8c-0.3,0.3-0.7,0.5-1.1,0.7c-0.4,0.2-0.9,0.4-1.3,0.5c-0.2-0.1-0.2-0.1-0.2,0.1
		s-0.4,0.6-0.7,0.8c-0.3,0.3-0.6,0.5-0.9,0.8c-0.2,0.2-0.3,0.2-0.2,0.4s0.2,0.3,0.2,0.5s0,0.3-0.2,0.3L105,188z M91,175.9
		c-0.4-0.3-0.8-0.7-1.1-1.1c-0.3-0.5-0.5-1-0.5-1.5c0-0.7,0.1-0.8,0.2-0.3c0.1,0.5,0.2,0.9,0.4,1.3c0.2,0.4,0.4,0.8,0.8,1.2
		C91.1,175.7,91.3,176.1,91,175.9z M94.8,176.1c-0.2-0.3-0.4-0.7-0.4-1.1c-0.1-0.5-0.1-1.1-0.1-1.6c0-0.6,0.2-0.8,0.3-0.2
		s0.1,1,0.2,1.5c0,0.4,0.1,0.9,0.3,1.3C95.1,176.4,95,176.4,94.8,176.1L94.8,176.1z M102.2,176.1c0-0.3,0.1-1.1,0.2-1.6
		c0-0.4,0-0.7,0-1.1c0-0.4,0.2-0.4,0.2,0c0.1,0.4,0.1,0.7,0.1,1.1c-0.1,0.4-0.1,0.8-0.2,1.2C102.3,176.3,102.1,176.4,102.2,176.1
		L102.2,176.1z M62.8,196.2c-0.2,0.1-0.5,0.1-0.7,0.1c-0.4,0-0.7-0.1-1-0.4c-0.2-0.3-0.4-0.7-0.4-1.1c0-0.3,0-0.6,0-0.8
		c0-0.2,0.1-0.2,0.4-0.2c0.3,0.1,0.6,0.3,0.9,0.4c0.3,0.2,0.6,0.5,0.9,0.9c0.1,0.2,0.2,0.5,0.2,0.7C63.1,196,63,196.1,62.8,196.2
		L62.8,196.2z M57,191.8c0,0.4-0.1,0.8-0.3,1.1c-0.3,0.4-0.7,0.7-1.2,1c-0.4,0.3-0.8,0.6-1.1,0.9s-0.8,0.7-1.1,1
		c-0.1,0.1-0.3,0.2-0.3,0.2s0-0.1,0.1-0.3c0.3-0.4,0.6-0.8,1-1.2c0.4-0.4,0.8-0.8,1.2-1.1c0.3-0.2,0.6-0.5,0.9-0.8
		c0.2-0.2,0.3-0.5,0.4-0.8C56.7,191.4,57,191.3,57,191.8z M70.4,199.4c-0.1,0.2-0.4,0.3-0.7,0.2c-0.3-0.1-0.5-0.2-0.7-0.4
		c-0.1-0.1-0.2-0.3-0.2-0.4c0-0.2,0-0.3,0.2-0.1c0.1,0.1,0.3,0.3,0.4,0.3c0.1,0.1,0.3,0.2,0.4-0.1c0-0.1,0.2-0.1,0.3-0.1
		c0.1,0,0.2,0.1,0.3,0.1C70.5,199.1,70.5,199.2,70.4,199.4L70.4,199.4z M63.3,195.5c0-0.1-0.1-0.4-0.1-0.6c0-0.2,0-0.3,0.1-0.5
		c0.1-0.3,0.1-0.6,0.2-0.9c0-0.3,0.1-0.7,0.2-0.4c0.1,0.3,0.1,0.7,0.1,1c0,0.3-0.1,0.6-0.2,0.9C63.4,195.3,63.3,195.6,63.3,195.5
		L63.3,195.5z M104.9,188.3c-0.2,0-0.4,0-0.6,0c-0.2,0-0.4,0.1-0.5,0.2c0,0.1,0,0.3,0.1,0.4c0.1,0.2,0.2,0.4,0.4,0.5
		c0.1,0.1,0.3,0.1,0.5,0.1c0.2,0,0.4-0.1,0.2-0.2s-0.2-0.2-0.2-0.3c0-0.1,0-0.3,0-0.4C104.8,188.5,104.9,188.3,104.9,188.3
		L104.9,188.3z M102.7,188.4c-0.1-0.1-0.2-0.2-0.4-0.2c-0.1,0-0.3,0-0.4,0c0,0,0,0.1,0,0.3c0,0.2,0,0.4,0,0.6c0,0.2,0.1,0.3,0.2,0.4
		c0.1,0.1,0.3,0.2,0.5,0.2c0.1,0.1,0.3,0,0.2-0.1c-0.1-0.1-0.2-0.3-0.2-0.4c0-0.1,0-0.3,0-0.4C102.6,188.6,102.7,188.5,102.7,188.4
		L102.7,188.4z M101,187.1c-0.1-0.1-0.1-0.3-0.2-0.4c-0.1-0.1-0.2-0.2-0.4-0.2c0,0-0.1,0.1-0.2,0.2c-0.1,0.1-0.1,0.3-0.1,0.4
		c0,0.2,0,0.3,0.1,0.4c0,0.1,0.1,0.2,0.2,0.3c0.1,0.1,0.2,0.2,0.2,0c0-0.1,0-0.2,0-0.4c0-0.1,0.1-0.2,0.2-0.3
		C100.8,187.1,101,187.1,101,187.1L101,187.1z M101.2,186.9c-0.2-0.3-0.4-0.5-0.7-0.7c-0.1-0.1-0.1-0.4,0-0.5s0.3-0.2,0.4-0.3
		s0.3-0.3,0.6-0.5c0.2-0.1,0.3-0.3,0.5-0.4c0.2-0.2,0.4-0.3,0.6-0.3c0.4-0.1,0.5-0.2,0.3,0.1c-0.2,0.2-0.4,0.4-0.5,0.7
		c-0.1,0.3-0.2,0.5-0.3,0.8c-0.1,0.2-0.3,0.6-0.5,0.8s-0.1,0.3-0.2,0.4S101.2,186.9,101.2,186.9L101.2,186.9z M90.6,184.3
		c-0.1-0.3-0.2-0.7-0.2-1c0,0,0.2-0.1,0.4-0.2s0.6-0.3,0.8-0.5s0.6-0.3,0.8-0.5s0.4-0.5,0.6-0.7c0.1-0.2,0.2-0.4,0.3-0.7
		c0.1-0.1,0.2-0.2,0.3,0.1c0.2,0.3,0.4,0.5,0.6,0.7c0.2,0.1,0.3,0.3,0.2,0.5c-0.1,0.2-0.3,0.4-0.5,0.4c-0.2,0.1-0.5,0.3-0.6,0.5
		c-0.2,0.2-0.2,0.5-0.5,0.7c-0.3,0.2-0.6,0.3-0.9,0.3c-0.3,0.1-0.5,0.1-0.8,0.2C90.9,184.1,90.6,184.3,90.6,184.3L90.6,184.3z
		 M92.8,180.3c-0.4,0-0.8-0.2-1.1-0.4c-0.2-0.2-0.3-0.2-0.5-0.1s-0.1,0.3-0.2,0.5c-0.1,0.3-0.2,0.6-0.4,0.8
		c-0.2,0.1-0.3,0.2-0.5,0.4c0,0.5,0.1,1,0.2,1.5c0.2-0.1,0.3-0.2,0.5-0.2c0.2-0.2,0.5-0.3,0.8-0.4c0.2-0.1,0.5-0.2,0.6-0.5
		c0.2-0.2,0.3-0.5,0.4-0.7s0.4-0.2,0.4-0.4S93,180.3,92.8,180.3L92.8,180.3z M93,180c-0.2,0-0.3,0-0.5-0.1c-0.2-0.1-0.3-0.1-0.4-0.2
		c-0.1-0.1,0.1-0.1,0.2-0.2c0.1-0.1,0.2-0.2,0.3-0.4c0.1-0.1,0.1-0.3,0.1-0.4c0-0.1,0-0.2,0-0.3c0-0.1,0-0.2,0.1,0
		c0.1,0.1,0.2,0.2,0.3,0.3c0.1,0.1,0.2,0.3,0.2,0.5c0.1,0.2,0.1,0.4,0,0.6C93.2,179.9,93.1,180,93,180L93,180z M94.4,181.2
		c-0.1-0.1-0.3-0.1-0.4-0.3c-0.1-0.1-0.2-0.3-0.3-0.5c0-0.1,0.1-0.1,0.2-0.1c0.2-0.1,0.3-0.2,0.4-0.3c0.1-0.1,0.1-0.3,0.1-0.4
		c0-0.2,0-0.2,0.1-0.1c0.1,0.1,0.2,0.3,0.2,0.5c0.1,0.2,0.1,0.4,0,0.7c0,0.1-0.1,0.3-0.2,0.4C94.6,181.2,94.5,181.3,94.4,181.2
		L94.4,181.2z M95.1,183.1c-0.1-0.1-0.2-0.2-0.3-0.3c-0.1-0.2-0.1-0.4-0.1-0.6c0-0.1,0.1-0.1,0.3-0.1c0.1,0,0.3-0.1,0.4-0.1
		c0.1-0.1,0.2-0.2,0.3-0.4c0-0.1,0.1-0.3,0.2-0.1c0.1,0.2,0.1,0.4,0.1,0.6c0,0.2-0.1,0.4-0.2,0.6c-0.1,0.1-0.2,0.2-0.3,0.3
		C95.3,183,95.2,183.1,95.1,183.1L95.1,183.1z M95,183.2c-0.3-0.2-0.5-0.5-0.6-0.8c0-0.2-0.2-0.1-0.3,0c-0.2,0.1-0.4,0.2-0.5,0.4
		c-0.1,0.1-0.2,0.4-0.3,0.5c-0.1,0.2-0.3,0.3-0.4,0.4c-0.3,0.2-0.4,0.2,0,0.2s0.4,0,0.7,0l0.7-0.1c0.2,0,0.4-0.1,0.5-0.1
		C95,183.6,95.1,183.4,95,183.2L95,183.2z M85.2,181.1c-0.1-0.3-0.3-0.6-0.6-0.9c-0.4-0.4-0.7-0.9-1-1.4c-0.3-0.5-0.6-0.9-0.9-1.3
		c-0.3-0.3-0.6-0.6-0.9-0.9c-0.3-0.2-0.5-0.6-0.4-0.3c0.1,0.3,0.2,0.7,0.2,1c0,0.4,0.1,0.7,0.2,1.1c0.1,0.4,0.3,0.7,0.5,0.9
		c0.3,0.2,0.6,0.4,0.8,0.6c0.3,0.2,0.7,0.4,1,0.7C84.7,180.8,85.3,181.2,85.2,181.1L85.2,181.1z M81,175.9c-0.1,0-0.6,0.1-1,0.1
		l-1.4,0.3c-0.3,0.1-0.6,0.1-0.8,0.1h-0.7c-0.3,0,0-0.1,0.2-0.3c0.2-0.2,0.4-0.3,0.6-0.6c0.2-0.2,0.4-0.5,0.6-0.7
		c0.2-0.2,0.5-0.5,0.7-0.7c0.3-0.2,0.5-0.4,0.5-0.4c0.1,0.3,0.2,0.6,0.4,0.8c0.2,0.2,0.4,0.6,0.6,0.8S81.2,175.8,81,175.9L81,175.9z
		 M77.3,195.7c-0.1-0.3-0.2-0.6-0.4-0.8c-0.2-0.3-0.5-0.5-0.8-0.8c-0.3-0.2-0.7-0.4-1.1-0.6c-0.4-0.2-0.9-0.3-1.3-0.4
		c-0.4-0.1-1.5-0.2-1.8-0.2c-0.1,0.1-0.3,0.3-0.4,0.5c-0.1,0.2-0.3,0.4-0.4,0.7c0.2,0.1,0.5,0.1,0.7,0.1c0.2-0.2,0.4-0.3,0.6-0.4
		c0.2-0.1,0.2,0.3,0.2,0.5c0.1,0,0.3,0.1,0.4,0.1c0.4,0.1,0.7,0.1,1.2,0.2s1,0.2,1.4,0.3c0.4,0.1,0.7,0.2,1,0.4
		c0.2,0.1,0.4,0.3,0.5,0.5C77.3,195.9,77.4,196.1,77.3,195.7L77.3,195.7z M58.3,195.7c-0.5-0.2-0.9-0.5-1.2-0.9
		c-0.1,0.3-0.2,0.6-0.2,0.9c-0.1,0.4-0.2,1.1-0.2,1.5s-0.1,0.7-0.2,1.1s0.1,0.5,0.2,0.2c0.2-0.3,0.4-0.6,0.6-0.9
		c0.3-0.3,0.5-0.6,0.7-1C58.1,196.2,58.3,195.9,58.3,195.7L58.3,195.7z M64.3,197.5c-0.3-0.2-0.6-0.3-1-0.4c-0.3-0.1-0.7-0.1-1,0.1
		c0.2,0.2,0.3,0.3,0.5,0.4c0.3,0.1,0.6,0.2,0.9,0.1C64.3,197.4,64.5,197.5,64.3,197.5L64.3,197.5z M55.5,188.4
		c0.1-0.8,0.2-1.5,0.5-2.2c0.2-0.4,0-0.3-0.2-0.1c-0.2,0.2-0.5,0.4-0.7,0.6c-0.2,0.2-0.2,0.2,0,0.6s0.2,0.6,0.3,0.9
		S55.5,188.6,55.5,188.4z M56.8,184c0.4-1.1,0.9-2.1,1.4-3.2c0.2-0.4,0-0.2-0.3,0s-0.6,0.4-1,0.7s-0.3,0.2-0.3,0.7s0.1,0.9,0.1,1.3
		S56.7,184.2,56.8,184L56.8,184z M61.6,175.2c-0.4,0.4-1.5,2.2-1.8,2.8s-0.3,0.4-0.2-0.1s0-1.2,0.1-1.7s0-0.6,0.5-0.8
		c0.4-0.2,0.9-0.3,1.3-0.4C61.7,174.9,61.8,174.9,61.6,175.2z M66,169.8c-0.3,0.3-2.5,2.9-2.8,3.3S63,173.4,63,173s0.3-1.7,0.4-2.1
		s0.1-0.6,0.6-0.7s0.9-0.3,1.5-0.4S66.3,169.5,66,169.8L66,169.8z M67.6,168.3c0.2-0.3,0.6-0.5,0.8-0.8s0.5-0.5,0.2-0.5
		s-0.5,0-0.7,0s-0.4-0.1-0.4,0.1s0,0.5-0.1,0.9S67.4,168.6,67.6,168.3L67.6,168.3z M99.6,169.9c-0.3,0.2-0.6,0.3-0.9,0.3
		c-0.2,0-0.1,0-0.2-0.1c0-0.2,0-0.3-0.1-0.5c-0.1-0.2-0.1-0.2,0.1-0.1c0.2,0.1,0.4,0.1,0.6,0.1h0.4
		C99.9,169.6,99.9,169.7,99.6,169.9L99.6,169.9z M70.7,193.9c-0.3-0.1-0.5-0.2-0.8-0.4c-0.2-0.1-0.6-0.3-0.9-0.5s-0.6-0.4-1-0.7
		c-0.3-0.3-0.7-0.5-1-0.9c-0.2-0.2-0.6-0.6-0.9-0.9s-0.5-0.5-0.8-0.9c-0.3-0.3-0.6-0.6-0.9-0.9c-0.3-0.3-0.7-0.6-0.9-0.7
		c0-0.2,0.1-0.3,0.2-0.4c0.3,0.2,0.6,0.5,0.9,0.8c0.2,0.2,0.8,0.9,0.9,1c0.3,0.3,0.6,0.7,1,0.9c0.6,0.5,1.2,0.9,1.9,1.3
		c0.4,0.2,1.2,0.6,1.7,0.8l1,0.3l-0.1,0.5C70.8,193.4,70.7,193.8,70.7,193.9L70.7,193.9z M83,187.4c-0.2,0.1-0.3,0.1-0.5,0.1
		c-0.2,0-0.3-0.2-0.4-0.1c-0.1,0.2-0.2,0.5-0.1,0.8c0,0.1,0.2,0.1,0.5,0c0.3-0.1,0.5-0.2,0.6-0.5C83.2,187.3,83.1,187.3,83,187.4z
		 M81.9,190.2c-0.2,0-0.3,0-0.5-0.1c-0.2-0.1-0.3-0.4-0.3-0.4c-0.3,0.1-0.6,0.4-0.6,0.8c0,0.1,0.1,0.1,0.3,0.2c0.2,0,0.4,0,0.7,0
		c0.2,0,0.4-0.1,0.5-0.2C82.1,190.4,82.2,190.2,81.9,190.2L81.9,190.2z M79.8,191.6c-0.2,0-0.4,0-0.6,0c-0.2,0-0.3-0.1-0.4-0.3
		c-0.1-0.1-0.3-0.3-0.2-0.3c0.2,0,0.5-0.1,0.6-0.3c0,0,0.1,0.2,0.2,0.3c0.1,0.1,0.2,0.2,0.3,0.3l0.2,0.1
		C80,191.5,80,191.6,79.8,191.6"/>
	
		<path id="path22" style="clip-path:url(#SVGID_00000070828219189441603090000016615202822664152977_);fill-rule:evenodd;clip-rule:evenodd;fill:#EDC282;" d="
		M95,256.6c0-0.3-0.1-0.6-0.2-0.8c-0.2-0.4-0.3-0.7-0.4-1s-0.2-0.4-0.3-0.3s-0.1,0.2-0.1,0c0-0.2-0.1-0.4-0.2-0.6
		c-0.1-0.2-0.2-0.5-0.4-0.7s-0.2-0.3-0.3-0.5c-0.1-0.2-0.2-0.4-0.3-0.6c0-0.2,0-0.3,0-0.5c0-0.2,0.1-0.6,0.2-0.8s0.2-0.6,0.3-0.8
		s0.1-0.6,0.2-0.8s0.4-0.7,0.5-0.9c0.2-0.3,0.4-0.7,0.7-1c0.2-0.4,0.5-0.7,0.8-1.1c0.3-0.3,0.6-0.6,0.9-0.8c0.3-0.2,0.6-0.4,0.9-0.5
		c0.3-0.1,0.6-0.2,0.9-0.2c0.4,0,0.8,0.1,1.2,0.3c0.3,0.2,0.7,0.5,0.9,0.8c0.3,0.3,0.5,0.5,0.7,0.9c0.2,0.3,0.3,0.6,0.4,1
		c0.1,0.5,0.2,1,0.2,1.5c0,0.5,0,0.9,0,1.3c0,0.3,0,0.6-0.1,0.9c0,0.2-0.1,0.3-0.2,0.5l-0.6,0.9c-0.1,0.2-0.2,0.6-0.3,0.8
		c-0.1,0.3-0.3,0.6-0.5,0.9c-0.1,0.2-0.1,0.2-0.4,0.3s-0.5,0.4-0.8,0.6c-0.2,0.1-0.4,0.2-0.7,0.2c-0.2,0-0.3,0-0.3-0.1
		s0.1-0.3-0.2-0.2c-0.3,0-0.7,0.1-1,0.2c-0.3,0.1-0.6,0.3-0.8,0.5c-0.2,0.2-0.4,0.4-0.6,0.6C95,256.4,95,256.5,95,256.6L95,256.6z
		 M98.1,250.1c0.1,0,0.2-0.1,0.3-0.2c0.1-0.1,0.2-0.3,0.2-0.5c0-0.2,0-0.3-0.2-0.4c-0.2-0.1-0.3-0.1-0.5-0.2
		c-0.2-0.1-0.3-0.2-0.5-0.3c-0.2-0.1-0.3-0.1-0.5-0.1c-0.1,0-0.2,0-0.4,0c-0.1,0-0.2,0-0.3,0c-0.1,0.1-0.2,0.3-0.3,0.5
		c0,0.2,0,0.3,0,0.5c0,0.1,0.1,0.2,0.1,0.1s0-0.3,0-0.4c0-0.1,0.1-0.3,0.1-0.4c0.2-0.2,0.3-0.1,0.5-0.1c0.2,0,0.4,0,0.5,0
		c0.2,0,0.3,0.1,0.4,0.2c0.1,0.1,0.3,0.2,0.4,0.2c0.1,0,0.2,0,0.2,0.2c0,0.1,0,0.3,0,0.4c0,0.1-0.1,0.2-0.2,0.2s-0.2,0-0.2,0.1
		S98,250,98.1,250.1L98.1,250.1z M99.2,247.7l-0.7,0.1l-0.4,0.1c-0.1,0-0.2,0-0.3-0.1c-0.1-0.1-0.2-0.2-0.4-0.2
		c-0.2,0-0.2,0-0.3-0.1s-0.2-0.2-0.3-0.4s-0.1-0.2-0.2-0.3s0-0.1,0.1-0.1c0.2,0,0.3,0.1,0.5,0.2c0.1,0.1,0.2,0.1,0.4,0.1
		c0.2,0,0.4,0.1,0.5,0.2c0.1,0.1,0.2,0.2,0.4,0.2c0.2,0,0.3,0.1,0.5,0.1C99.2,247.6,99.3,247.7,99.2,247.7L99.2,247.7z M98.1,246.6
		l-0.5-0.2c-0.1,0-0.1,0-0.1-0.1c0-0.1,0-0.1,0-0.2c0-0.1,0-0.1,0.1,0c0.1,0.1,0.3,0.2,0.5,0.2l0.5,0.1c0.2,0,0.3,0,0.4,0
		s0.2,0.1,0,0.1c-0.1,0-0.2,0.1-0.3,0.2c0,0.1-0.1,0.1-0.2,0.1C98.4,246.7,98.2,246.6,98.1,246.6L98.1,246.6z M97,253.1
		c-0.2,0.1-0.2,0.1,0,0.2l0.6,0.3l0.6,0.3c0.1,0.1,0.2,0.1,0.3,0.1c0.2,0,0.3,0,0.5,0c0.2,0,0.3,0,0.5-0.1c0.2,0,0.4-0.2,0.1-0.2
		c-0.2,0-0.5,0-0.7,0c-0.2,0-0.3-0.1-0.5-0.1c-0.1-0.1-0.3-0.2-0.4-0.3c-0.1-0.1-0.3-0.2-0.4-0.3c-0.1-0.1-0.2-0.1-0.3-0.1
		C97.1,253,97.1,253,97,253.1L97,253.1z M95.1,252.4c-0.1,0.1-0.3,0.2-0.4,0.2c-0.3,0-0.6-0.1-0.8-0.1c-0.2,0-0.5-0.1-0.7-0.2
		c-0.1-0.1-0.2-0.2-0.3-0.4c-0.1-0.1-0.1-0.4,0-0.3s0.2,0.2,0.4,0.3c0.2,0.1,0.3,0.2,0.5,0.2c0.2,0,0.4,0.1,0.6,0.1
		c0.2,0,0.4,0,0.6,0.1C95,252.3,95.2,252.4,95.1,252.4L95.1,252.4z M95.4,252.3c0.2-0.1,0.3-0.2,0.5-0.3c0.1-0.2,0.2-0.4,0.3-0.6
		c0.1-0.2,0.2-0.6,0.2-0.8s0-0.4,0.1-0.5c0-0.1,0-0.3,0-0.4c0-0.1-0.1-0.3-0.1-0.1c0,0.2,0,0.5-0.1,0.7c-0.1,0.3-0.1,0.6-0.2,0.8
		c-0.1,0.3-0.2,0.5-0.3,0.8c-0.1,0.1-0.1,0.2-0.2,0.3C95.5,252.2,95.3,252.3,95.4,252.3L95.4,252.3z M97.7,252.1
		c0.1,0.3,0.3,0.5,0.6,0.7c0.2,0.1,0.4,0.2,0.7,0.2c0.2,0,0.4,0,0.5-0.1c0.2,0,0.2-0.1,0.1-0.2c0-0.1-0.1-0.3-0.2-0.4
		c-0.2-0.1-0.4-0.2-0.6-0.3c-0.2-0.1-0.4-0.1-0.6-0.1c-0.2,0-0.3,0-0.4,0s-0.2,0-0.2,0S97.6,252,97.7,252.1L97.7,252.1z M95.3,251.3
		c-0.2,0.2-0.5,0.2-0.8,0.2c-0.2,0-0.4-0.1-0.6-0.2c-0.2-0.1-0.3-0.2-0.4-0.4c-0.1-0.2-0.1-0.2,0-0.3c0.1-0.1,0.3-0.1,0.4-0.1
		c0.2,0,0.4,0,0.6,0.1c0.2,0.1,0.4,0.1,0.5,0.2c0.1,0.1,0.2,0.1,0.3,0.1c0.1,0,0.2,0.1,0.2,0.1S95.4,251.3,95.3,251.3L95.3,251.3z
		 M130.7,220.8c-0.1-0.2-0.4-0.7-0.6-1.1s-0.4-0.8-0.5-1.1c0-0.1-0.2-0.5-0.2-0.6s0.2-0.3,0.3-0.4c0.2-0.2,0.5-0.4,0.7-0.6
		c0.4-0.1,0.7-0.2,1.1-0.3c0,0.2,0.1,0.7,0.2,1s0.1,0.6,0.2,0.8c0,0.1,0.1,0.2,0.1,0.4c-0.1,0-0.2-0.1-0.4-0.1c-0.2,0-0.4,0-0.6,0
		c-0.2,0.1-0.2,0.1-0.1,0.1c0.3,0,0.5,0,0.8,0.1c0.3,0.1,0.5,0.1,0.8,0.2c0.2,0.1,0.4,0.3,0.6,0.5c0.1,0.1,0.2,0.3,0.2,0.3
		c0,0.1,0,0.2-0.1,0.3c0,0-0.1,0.2-0.2,0.2c-0.1,0.2,0,0.2,0.1,0.1s0.1-0.1,0.2-0.2c0.1-0.2,0-0.3,0.2-0.4c0.2-0.1,0.3-0.1,0.5-0.1
		c0.1,0,0.3,0,0.4,0.1c0.1,0.1,0.1,0.1,0.3,0.2s0.2,0,0.1,0c-0.3-0.1-0.4-0.3-0.4-0.6c0-0.2,0-0.3,0.1-0.4c0.1-0.1,0.2-0.2,0.4-0.2
		c0.1,0,0.2,0.2,0.2,0.4c0,0.1,0,0.3,0,0.4c0.1,0.2,0,0.4,0.1,0.6s0,0.3-0.2,0.4s-0.7,0.2-0.9,0.3c-0.2,0.1-0.5,0.2-0.8,0.2
		c-0.3,0-0.7,0-1,0c-0.2,0-0.5-0.1-0.7-0.1c-0.2-0.1-0.4-0.1-0.6-0.1C130.9,220.9,130.7,220.9,130.7,220.8L130.7,220.8z
		 M134.8,216.5c0.1-0.1,0.1-0.3,0-0.4c0-0.1-0.2-0.2-0.3-0.3c-0.2,0-0.3,0-0.5,0c-0.2,0-0.5,0.1-0.7,0.2c-0.2,0.1-0.3,0.2-0.5,0.3
		c-0.1,0.1-0.1,0.2-0.1,0.4c0,0.1,0.1,0.2,0.2,0.3c0.2,0.1,0.4,0.1,0.6,0c0.2-0.1,0.5-0.1,0.8-0.1
		C134.4,216.7,134.6,216.6,134.8,216.5L134.8,216.5z M135.5,217.6c-0.2,0.1-0.3,0.2-0.5,0.2l-0.5,0.1c-0.2,0.1-0.5,0.1-0.7,0.1
		c-0.2,0-0.4,0-0.7,0c-0.2,0-0.3-0.1-0.4-0.3c-0.1-0.2,0-0.4,0.1-0.5c0.2-0.1,0.4-0.2,0.6-0.3l0.8-0.2c0.2,0,0.4-0.1,0.6-0.1
		c0.2-0.1,0.4-0.1,0.5,0c0.1,0.1,0.3,0.2,0.3,0.4C135.6,217.2,135.6,217.4,135.5,217.6L135.5,217.6z M135.6,219
		c-0.2,0.1-0.3,0.1-0.5,0.2c0-0.2-0.1-0.5-0.4-0.5c-0.3,0.1-0.6,0.3-0.7,0.6c-0.2,0-0.5,0-0.8,0c-0.3-0.1-0.4-0.2-0.4-0.4
		s-0.1-0.4,0.1-0.5c0.2-0.1,0.4-0.2,0.7-0.2l1-0.2c0.3-0.1,0.6-0.2,0.8-0.2c0.1,0,0.2,0,0.4,0c0.1,0.1,0.2,0.2,0.2,0.4
		c0,0.2,0,0.3-0.1,0.4C135.9,218.8,135.8,218.9,135.6,219L135.6,219z M136,219.2c-0.1-0.1-0.3-0.1-0.4,0c-0.2,0-0.3,0.1-0.5,0.1
		c0,0.1,0,0.3,0.1,0.4c0.1,0.2,0.1,0.4,0.1,0.6c0.1,0,0.2,0,0.4-0.1c0.2-0.1,0.4-0.3,0.4-0.6C136.1,219.5,136.1,219.3,136,219.2
		L136,219.2z M134.1,219.5c0,0.1,0,0.2,0,0.3c0,0-0.1,0-0.3,0c-0.1,0-0.2,0-0.2,0.1c0,0,0-0.1,0-0.1c0-0.1,0.1-0.2,0.2-0.2
		C133.9,219.5,134,219.5,134.1,219.5L134.1,219.5z M76.9,230.8c-0.1-0.3-0.2-0.6-0.4-0.9c-0.2-0.3-0.5-0.8-0.6-1s-0.2,0-0.4,0
		c-0.2,0-0.5,0-0.7-0.1c-0.2,0-0.5,0-0.7,0l-0.8,0.1c-0.2,0-0.3,0-0.5,0c-0.2,0-0.5,0-0.7-0.1s-0.5-0.1-0.8-0.2
		c-0.2,0-0.4,0-0.6,0.1c-0.2,0-0.3,0.1-0.4,0.3c-0.1,0.2,0,0.3,0.1,0.4c0.2,0.1,0.4,0.3,0.6,0.3c0.2,0,0.4,0.1,0.5,0.1
		c0.2,0,0.4,0.1,0.5,0.1c0.2,0.1,0.3,0.2,0.4,0.3c0.1,0.1,0.2,0.2,0.2,0.3c0.1,0.2,0.1,0.2,0,0.2s-0.2,0.1-0.2,0.2
		c0,0.2-0.1,0.3-0.2,0.5c-0.1,0.2-0.2,0.2-0.4,0.3c-0.2,0.1-0.3,0.1-0.4,0.2c-0.1,0.1-0.2,0.2-0.2,0.2c-0.1,0.1-0.2,0.1-0.1,0
		c0-0.1,0.1-0.2,0.2-0.3c0.1-0.1,0-0.2-0.2-0.2c-0.2,0-0.4,0-0.6,0c-0.1,0-0.3,0-0.4,0c-0.2,0-0.2,0-0.1,0c0.1-0.1,0.2-0.1,0.3-0.1
		c0.2,0,0.3,0,0.2-0.2c-0.1-0.1-0.1-0.3-0.2-0.4c-0.1-0.1-0.1-0.2-0.1-0.2c-0.2-0.1-0.3-0.2-0.5-0.3c-0.1-0.1-0.2-0.3-0.3-0.4
		c0-0.1-0.2,0-0.2,0.2s-0.1,0.4-0.1,0.5c0,0.2,0,0.4,0.1,0.6c0.1,0.2,0.3,0.6,0.3,0.8c0.1,0.2,0.2,0.4,0.3,0.6
		c0.2,0.1,0.3,0.2,0.6,0.3c0.2,0.1,0.5,0.2,0.8,0.3s0.5,0.1,0.8,0.2c0.3,0.1,0.6,0.2,0.8,0.2c0.2,0,0.5-0.2,0.6-0.3
		c0.2-0.2,0.8-0.7,1.1-0.9s0.5-0.4,0.8-0.6c0.2-0.2,0.5-0.4,0.8-0.5C76.5,230.9,77,230.8,76.9,230.8"/>
	
		<path id="path24" style="clip-path:url(#SVGID_00000070828219189441603090000016615202822664152977_);fill-rule:evenodd;clip-rule:evenodd;fill:#FAE042;" d="
		M79.9,209.6c-2,0-3.6-0.4-3.6-0.9s1.6-0.9,3.6-0.9s3.6,0.4,3.6,0.9S81.9,209.6,79.9,209.6z M79.9,205.6c-1.9,0-3.5,1.1-3.7,2.5
		c1.3-0.4,2.6-0.6,4-0.6c1.2,0,2.3,0.2,3.4,0.6C83.4,206.7,81.8,205.6,79.9,205.6z M61.5,209.6c2,0,3.6-0.4,3.6-0.9
		s-1.6-0.9-3.6-0.9s-3.6,0.4-3.6,0.9S59.5,209.6,61.5,209.6z M61.5,205.6c1.9,0,3.5,1.1,3.7,2.5c-1.3-0.4-2.6-0.6-4-0.6
		c-1.2,0-2.3,0.2-3.4,0.6C58,206.7,59.6,205.6,61.5,205.6z M69.3,221.7c-0.1-0.1-0.1-0.2-0.2-0.2c0.2-0.3,0.3-0.7,0.4-0.9
		c-1.6,0-4.1-0.1-4.6-0.1c-0.7,0-3-0.3-3.5-0.2s-0.7,0.3-1,0.8s-0.7,1.2-0.2,1.1s0.7-0.8,0.9-1.1s0.5-0.2,1.2-0.2s2.4,0.4,3.7,0.5
		C66.9,221.6,68.2,221.7,69.3,221.7L69.3,221.7z M72.2,221.7c1.1-0.1,2.3-0.2,3.2-0.2c1.3-0.1,3-0.4,3.7-0.5s1-0.1,1.2,0.2
		s0.5,1,1,1.1s0.1-0.6-0.2-1.1s-0.5-0.8-1-0.8s-2.8,0.2-3.5,0.2c-0.5,0-2.9,0.1-4.6,0.1c0.1,0.3,0.3,0.7,0.4,0.9
		C72.4,221.6,72.3,221.7,72.2,221.7L72.2,221.7z M70.7,218.6L70.7,218.6c0,0,0.9,2.1,1,2.5s0.2,0.3,0,0.5c-0.3,0.5-0.5,1.1-0.5,1.7
		c-0.1,0.6-0.1,1.2-0.1,1.8c0,0.5,0.1,2.2,0.1,2.5c0.1,0.3,0.2,0.6,0.3,0.9c-0.3,0-0.5,0-0.8,0c-0.4,0.1-0.7,0.3-0.7,0.4
		c0,0.3,0.1,0.5,0.3,0.7c0.2,0.2,0.5,0.3,0.8,0.3c-0.1,0.1-0.3,0.2-0.5,0.2l0,0c-0.6,0-1-0.4-1-1c0-0.5,0.4-1.1,0.5-1.5
		s0.1-2.1,0.1-2.5c0-0.6,0-1.2-0.1-1.8c-0.1-0.6-0.2-1.2-0.5-1.7c-0.2-0.2-0.2-0.1-0.1-0.5S70.7,218.6,70.7,218.6L70.7,218.6z
		 M70.7,221.8c-0.3,0-0.6-0.3-0.6-0.6c0,0,0,0,0,0c0-0.4,0.2-0.7,0.6-0.7c0.4,0,0.7,0.2,0.7,0.6c0,0.1,0,0.1,0,0.2
		C71.3,221.5,71.1,221.8,70.7,221.8L70.7,221.8z M96.9,263c-5.5,0.1-10.1-4.2-10.3-9.7c-0.1-4.2,2.5-8.1,6.4-9.6
		c-0.1,0.3-0.3,0.5-0.5,0.8c-1.5,1.2-2.3,3.1-2.1,5.1c0,0.9,0.1,1.8,0.1,2.6c-0.1,0.9-0.2,1.8-0.1,2.8c0.1,0.8,0.3,1.7,0.8,2.4
		c0.5,0.6,1.1,1.2,1.8,1.6c0.8,0.4,1.1-0.1,1.2-0.1s0.1,0.6,0.9,0.8c1.3,0.2,2.6-0.3,3.9-0.5c1-0.3,1.8-1,2.2-2
		c0.6-1.1,1.2-2.1,1.7-3.2c0.6-1.4,1.3-1.5,1.6-2.5c0.3-0.8,0.5-1.7,0.5-2.5c0-0.5,0.1-1.1,0.1-1.5c3.1,4.5,2,10.8-2.6,13.9
		C101,262.4,99,263,96.9,263z M143.2,252.2c0.2-0.1,0.3-3.9-0.4-6.3l-6.3-22.6l-0.4-1.3c-0.5,0.1-1,0.2-1.6,0.4
		c-0.5,0.1-1,0.3-1.5,0.5l0.4,1.3l6.7,22.5C140.9,249,143,252.2,143.2,252.2L143.2,252.2z M134.3,221.4c1.7-0.5,3.4-0.8,5.1-1.2
		l0.6,1.3c-1.1-0.1-2.2-0.1-3.3,0c-0.9,0.2-1.8,0.4-2.1,0.5s-1.2,0.4-2.1,0.7c-1,0.4-2,1-2.8,1.7l-0.3-1.4
		C131,222.5,132.6,221.9,134.3,221.4L134.3,221.4z M132.4,214.9c-0.6,0.2-1.2-0.1-1.4-0.6c-0.3-0.6,0-1.3,0.6-1.6
		c0.6-0.3,1.3,0,1.6,0.6c0.3,0.6,0,1.3-0.6,1.6C132.5,214.9,132.5,214.9,132.4,214.9z M133.3,214.7c-0.2,0.2-0.5,0.4-0.8,0.5
		c-0.4,0.1-0.7,0.1-1.1,0c0,0,0.1,0.4,0.1,0.7s0.1,0.8,0.2,1.1s0.2,1.1,0.3,1.3s0.1,0.4,0.1,0.5s0.1,0,0.2,0c0.1,0,0.1,0.1,0.2,0.1
		c0-0.1,0-0.3,0-0.4c0-0.1,0-0.2,0.1-0.2c0.1-0.1,0.2-0.1,0-0.1c-0.2,0-0.3-0.2-0.4-0.4c0-0.2,0-0.4,0.1-0.5
		c0.1-0.1,0.1-0.1,0.2-0.2c0.2-0.1,0.1-0.1,0-0.1s-0.2-0.2-0.2-0.4c0-0.1,0-0.3,0.1-0.4c0.1-0.1,0.3-0.2,0.4-0.3
		c0.2-0.1,0.5-0.2,0.8-0.2c-0.1-0.2-0.2-0.5-0.3-0.7C133.5,214.8,133.4,214.7,133.3,214.7"/>
	
		<g transform="matrix(1 0 0 1 0 0)" style="clip-path:url(#SVGID_00000070828219189441603090000016615202822664152977_);enable-background:new    ;">
		
			<image style="overflow:visible;" width="237" height="281" xlink:href="6891FF97.png"  transform="matrix(0.42 0 0 0.42 46.36 11.35)">
		</image>
	</g>
	<path style="clip-path:url(#SVGID_00000070828219189441603090000016615202822664152977_);fill:#FFFFFF;" d="M77.4,99.4
		c-12.6,0-22.9,10.2-22.9,30.5c0,25.4,18.2,50.9,40.7,50.9s40.7-25.4,40.7-50.9c0-20.3-10.2-30.5-22.9-30.5
		c-6.9,0-13.5,3.1-17.8,8.5C90.9,102.5,84.3,99.4,77.4,99.4z"/>
	<path style="clip-path:url(#SVGID_00000070828219189441603090000016615202822664152977_);fill:#FFFFFF;" d="M27.8,112.6h134.7
		c3,0,5.5,2.4,5.5,5.5v44c0,3-2.4,5.5-5.5,5.5H27.8c-3,0-5.5-2.4-5.5-5.5v-44C22.4,115.1,24.8,112.6,27.8,112.6z"/>
	<g style="clip-path:url(#SVGID_00000070828219189441603090000016615202822664152977_);enable-background:new    ;">
		<text transform="matrix(1 0 0 1 34.18 159.35)" class="st9 st10 st11">Biała Podlaska</text>
	</g>
	<g style="clip-path:url(#SVGID_00000070828219189441603090000016615202822664152977_);enable-background:new    ;">
		<text transform="matrix(1 0 0 1 49.51 133.98)" class="st9 st10 st11">Baranavičy</text>
	</g>
	<path style="clip-path:url(#SVGID_00000070828219189441603090000016615202822664152977_);fill:#D3302F;" d="M150.6,0h29h16v16
		c0,7,0,14,0,21c-10.2,12.4-28.6,14.2-41,4S140.4,12.4,150.6,0z"/>
	<g style="clip-path:url(#SVGID_00000070828219189441603090000016615202822664152977_);enable-background:new    ;">
		<text transform="matrix(1 0 0 1 159.66 31.75)" class="st13 st10 st14">29</text>
	</g>
</g>
</svg>
