<?xml version="1.0" encoding="utf-8"?>
<!-- Generator: Adobe Illustrator 26.0.1, SVG Export Plug-In . SVG Version: 6.00 Build 0)  -->
<svg version="1.1" id="Слой_1" xmlns="http://www.w3.org/2000/svg" xmlns:xlink="http://www.w3.org/1999/xlink" x="0px" y="0px"
	 viewBox="0 0 195.6 280.6" style="enable-background:new 0 0 195.6 280.6;" xml:space="preserve">
<style type="text/css">
	.st0{clip-path:url(#SVGID_00000084497823101927757400000006859577790520698033_);fill:#EB5A53;}
	.st1{enable-background:new    ;}
	.st2{fill:#EB5A53;}
	.st3{fill:#FFFFFF;}
</style>
<g>
	<g>
		<defs>
			<rect id="SVGID_1_" width="195.6" height="280.6"/>
		</defs>
		<clipPath id="SVGID_00000150789291433568914730000008840730398153558688_">
			<use xlink:href="#SVGID_1_"  style="overflow:visible;"/>
		</clipPath>
	</g>
	<g>
		<defs>
			<rect id="SVGID_00000035499386986354066430000007364345394777348520_" width="195.6" height="280.6"/>
		</defs>
		<clipPath id="SVGID_00000009550219902465264010000015903031133051394723_">
			<use xlink:href="#SVGID_00000035499386986354066430000007364345394777348520_"  style="overflow:visible;"/>
		</clipPath>
	</g>
	<g>
		<defs>
			<rect id="SVGID_00000078746461680709552840000013416390107886844062_" width="195.6" height="280.6"/>
		</defs>
		<clipPath id="SVGID_00000170967406647500796710000000959846727445168288_">
			<use xlink:href="#SVGID_00000078746461680709552840000013416390107886844062_"  style="overflow:visible;"/>
		</clipPath>
		<path style="clip-path:url(#SVGID_00000170967406647500796710000000959846727445168288_);fill:#EB5A53;" d="M45,0H16H0v16
			c0,7,0,14,0,21c10.3,12.4,28.6,14,41,3.8c6.7-5.5,10.5-13.8,10.5-22.5C51.6,11.6,49.3,5.2,45,0z"/>
	</g>
	<g>
		<defs>
			<rect id="SVGID_00000177468838513999761550000009722722256173780407_" width="195.6" height="280.6"/>
		</defs>
		<clipPath id="SVGID_00000034065569426104884200000004806229811387436196_">
			<use xlink:href="#SVGID_00000177468838513999761550000009722722256173780407_"  style="overflow:visible;"/>
		</clipPath>
	</g>
</g>
<g class="st1">
	<path class="st2" d="M59.9,174.4h-13v-8.7c0-2.5-0.1-4.1-0.4-4.7c-0.3-0.6-0.9-0.9-1.8-0.9c-1.1,0-1.8,0.4-2,1.1
		c-0.3,0.8-0.4,2.4-0.4,5v23.3c0,2.4,0.1,4,0.4,4.8c0.3,0.7,0.9,1.1,2,1.1c1,0,1.6-0.4,1.9-1.1s0.4-2.5,0.4-5.2v-6.3h13v2
		c0,5.2-0.4,8.9-1.1,11s-2.4,4.1-4.9,5.7c-2.5,1.6-5.6,2.5-9.3,2.5c-3.8,0-7-0.7-9.4-2.1c-2.5-1.4-4.1-3.3-4.9-5.7
		c-0.8-2.4-1.2-6.1-1.2-11v-14.7c0-3.6,0.1-6.3,0.4-8.1c0.2-1.8,1-3.5,2.2-5.2c1.2-1.7,2.9-3,5.1-3.9c2.2-1,4.7-1.4,7.5-1.4
		c3.8,0,7,0.7,9.5,2.2c2.5,1.5,4.1,3.3,4.9,5.6c0.8,2.2,1.2,5.7,1.2,10.3V174.4z"/>
</g>
<g class="st1">
	<path class="st2" d="M83.7,161.6v9.1l-9.2,23.8h9.2v8.2H62.3v-8.6l9.4-24.3h-8.5v-8.2H83.7z"/>
</g>
<g class="st1">
	<path class="st2" d="M114,161.6l-3.6,29.7c-0.6,4.7-1,7.9-1.4,9.6c-0.4,1.7-1,3.1-1.9,4.2s-2.1,1.9-3.7,2.5
		c-1.6,0.5-4.1,0.8-7.6,0.8h-7.6v-6.6c1.9,0,3.2-0.1,3.8-0.3s0.8-0.6,0.8-1.3c0-0.3-0.3-1.8-0.8-4.3l-6.9-34.4h11.4l4.1,27.8l2-27.8
		H114z"/>
	<path class="st2" d="M135.8,161.6v9.1l-9.2,23.8h9.2v8.2h-21.3v-8.6l9.4-24.3h-8.5v-8.2H135.8z M129.3,150.8v8.1h-8.1v-8.1H129.3z"
		/>
	<path class="st2" d="M166.9,182.9h-16.2v8.9c0,1.9,0.1,3.1,0.4,3.6c0.3,0.5,0.8,0.8,1.5,0.8c0.9,0,1.6-0.4,1.9-1.1
		c0.3-0.7,0.5-2.1,0.5-4.1v-5.4h11.9v3c0,2.5-0.2,4.5-0.5,5.9c-0.3,1.4-1.1,2.8-2.2,4.4c-1.2,1.5-2.7,2.7-4.5,3.5
		c-1.8,0.8-4.1,1.2-6.8,1.2c-2.6,0-5-0.4-7-1.1c-2-0.8-3.6-1.8-4.7-3.1c-1.1-1.3-1.9-2.8-2.3-4.4c-0.4-1.6-0.7-3.9-0.7-7v-12
		c0-3.6,0.5-6.4,1.5-8.5s2.6-3.7,4.8-4.8c2.2-1.1,4.8-1.7,7.6-1.7c3.5,0,6.4,0.7,8.7,2c2.3,1.3,3.9,3.1,4.8,5.3s1.4,5.3,1.4,9.3
		V182.9z M154.4,176.2v-3c0-2.1-0.1-3.5-0.3-4.1s-0.7-0.9-1.4-0.9c-0.9,0-1.4,0.3-1.6,0.8c-0.2,0.5-0.3,1.9-0.3,4.3v3H154.4z"/>
</g>
<g class="st1">
	<path class="st2" d="M59.9,49.1h-13v-8.7c0-2.5-0.1-4.1-0.4-4.7c-0.3-0.6-0.9-0.9-1.8-0.9c-1.1,0-1.8,0.4-2,1.1
		c-0.3,0.8-0.4,2.4-0.4,5v23.3c0,2.4,0.1,4,0.4,4.8c0.3,0.7,0.9,1.1,2,1.1c1,0,1.6-0.4,1.9-1.1s0.4-2.5,0.4-5.2v-6.3h13v2
		c0,5.2-0.4,8.9-1.1,11s-2.4,4.1-4.9,5.7c-2.5,1.6-5.6,2.5-9.3,2.5c-3.8,0-7-0.7-9.4-2.1c-2.5-1.4-4.1-3.3-4.9-5.7
		c-0.8-2.4-1.2-6.1-1.2-11V44.9c0-3.6,0.1-6.3,0.4-8.1c0.2-1.8,1-3.5,2.2-5.2c1.2-1.7,2.9-3,5.1-3.9c2.2-1,4.7-1.4,7.5-1.4
		c3.8,0,7,0.7,9.5,2.2c2.5,1.5,4.1,3.3,4.9,5.6c0.8,2.2,1.2,5.7,1.2,10.3V49.1z"/>
</g>
<g class="st1">
	<path class="st2" d="M83.7,36.3v9.1l-9.2,23.8h9.2v8.2H62.3v-8.6l9.4-24.3h-8.5v-8.2H83.7z"/>
</g>
<g class="st1">
	<path class="st2" d="M114,36.3L110.5,66c-0.6,4.7-1,7.9-1.4,9.6c-0.4,1.7-1,3.1-1.9,4.2s-2.1,1.9-3.7,2.5c-1.6,0.5-4.1,0.8-7.6,0.8
		h-7.6v-6.6c1.9,0,3.2-0.1,3.8-0.3s0.8-0.6,0.8-1.3c0-0.3-0.3-1.8-0.8-4.3l-6.9-34.4h11.4l4.1,27.8l2-27.8H114z"/>
	<path class="st2" d="M135.8,36.3v9.1l-9.2,23.8h9.2v8.2h-21.3v-8.6l9.4-24.3h-8.5v-8.2H135.8z M129.3,25.5v8.1h-8.1v-8.1H129.3z"/>
	<path class="st2" d="M166.9,57.6h-16.2v8.9c0,1.9,0.1,3.1,0.4,3.6c0.3,0.5,0.8,0.8,1.5,0.8c0.9,0,1.6-0.4,1.9-1.1
		c0.3-0.7,0.5-2.1,0.5-4.1v-5.4h11.9v3c0,2.5-0.2,4.5-0.5,5.9c-0.3,1.4-1.1,2.8-2.2,4.4c-1.2,1.5-2.7,2.7-4.5,3.5
		c-1.8,0.8-4.1,1.2-6.8,1.2c-2.6,0-5-0.4-7-1.1c-2-0.8-3.6-1.8-4.7-3.1c-1.1-1.3-1.9-2.8-2.3-4.4c-0.4-1.6-0.7-3.9-0.7-7v-12
		c0-3.6,0.5-6.4,1.5-8.5s2.6-3.7,4.8-4.8c2.2-1.1,4.8-1.7,7.6-1.7c3.5,0,6.4,0.7,8.7,2c2.3,1.3,3.9,3.1,4.8,5.3s1.4,5.3,1.4,9.3
		V57.6z M154.4,50.9v-3c0-2.1-0.1-3.5-0.3-4.1s-0.7-0.9-1.4-0.9c-0.9,0-1.4,0.3-1.6,0.8c-0.2,0.5-0.3,1.9-0.3,4.3v3H154.4z"/>
</g>
<g class="st1">
	<path class="st2" d="M37.4,119.2c-0.9,0.9-2.1,1.7-3.5,2.3c-1.4,0.6-2.9,0.9-4.4,0.9c-2.7,0-4.6-0.7-5.8-2.2
		c-1.2-1.5-1.8-3.8-1.8-6.8V92.8H33V112c0,1.7,0.1,2.8,0.4,3.4c0.3,0.6,0.8,0.9,1.4,0.9c1.7,0,2.5-1.4,2.5-4.3V92.8h11.1v42.7H37.4
		V119.2z"/>
	<path class="st2" d="M77.3,125.5c0,3.2-0.4,5.5-1.1,6.9c-0.7,1.4-1.9,2.3-3.5,2.6s-4.2,0.5-7.8,0.5H52.6v-35h10.6v11.6h1.7
		c3.4,0,5.9,0.2,7.6,0.6c1.7,0.4,2.9,1.3,3.7,2.7c0.8,1.4,1.2,3.5,1.2,6.5V125.5z M66.8,124.2v-1.4c0-1.8-0.2-2.9-0.5-3.3
		c-0.4-0.4-1.4-0.6-3.1-0.7v9.3c1.4,0,2.4-0.2,2.9-0.5C66.5,127.3,66.8,126.1,66.8,124.2z M91.2,135.5H80.6v-35h10.6V135.5z"/>
	<path class="st2" d="M133,135.5h-10.3c-0.8-1.1-1.2-2.4-1.2-4.1V124c0-2.4-1.1-3.6-3.4-3.6v15h-10.5v-15c-1.9,0-2.9,1.2-2.9,3.6
		v7.4c0,2.4-0.4,3.8-1.2,4.1H93.3c0.8-1.1,1.2-2.8,1.2-5.1v-6.1c0-2.9,1.8-4.9,5.5-6.1c1-0.3,2.2-0.6,3.5-0.9
		c-0.6,0-1.8-0.3-3.6-0.9c-1.8-0.8-2.9-1.5-3.5-1.9c-1.2-1-1.8-2.4-1.8-4.1v-4.7c0-2.2-0.4-3.9-1.2-5.1h10.2
		c0.8,1.1,1.2,2.4,1.2,4.1v5.9c0,2.4,0.9,3.6,2.8,3.6v-13.6h10.5v13.6c2.2,0,3.3-1.2,3.3-3.6v-5.9c0-2.4,0.4-3.8,1.2-4.1h10.3
		c-0.8,1.1-1.2,2.8-1.2,5.1v4.7c0,1.7-0.6,3.1-1.8,4.1c-0.5,0.5-1.7,1.1-3.5,1.9c-1.1,0.5-2.3,0.8-3.6,0.9c0.6,0.1,1.7,0.4,3.5,0.9
		c3.6,1.2,5.5,3.2,5.5,6.1v6.1C131.8,132.7,132.2,134.4,133,135.5z"/>
	<path class="st2" d="M160,125.5c0,3.2-0.4,5.5-1.1,6.9c-0.7,1.4-1.9,2.3-3.5,2.6c-1.6,0.3-4.2,0.5-7.8,0.5h-12.3v-35h10.6v11.6h1.7
		c3.4,0,5.9,0.2,7.6,0.6c1.7,0.4,2.9,1.3,3.7,2.7c0.8,1.4,1.2,3.5,1.2,6.5V125.5z M149.4,124.2v-1.4c0-1.8-0.2-2.9-0.5-3.3
		c-0.4-0.4-1.4-0.6-3.1-0.7v9.3c1.4,0,2.4-0.2,2.9-0.5C149.1,127.3,149.4,126.1,149.4,124.2z M173.8,135.5h-10.6v-35h10.6V135.5z"/>
</g>
<g class="st1">
	<path class="st2" d="M37.4,249c-0.9,0.9-2.1,1.7-3.5,2.3c-1.4,0.6-2.9,0.9-4.4,0.9c-2.7,0-4.6-0.7-5.8-2.2
		c-1.2-1.5-1.8-3.8-1.8-6.8v-20.4H33v19.2c0,1.7,0.1,2.8,0.4,3.4c0.3,0.6,0.8,0.9,1.4,0.9c1.7,0,2.5-1.4,2.5-4.3v-19.3h11.1v42.7
		H37.4V249z"/>
	<path class="st2" d="M77.3,255.4c0,3.2-0.4,5.5-1.1,6.9c-0.7,1.4-1.9,2.3-3.5,2.6s-4.2,0.5-7.8,0.5H52.6v-35h10.6v11.6h1.7
		c3.4,0,5.9,0.2,7.6,0.6c1.7,0.4,2.9,1.3,3.7,2.7c0.8,1.4,1.2,3.5,1.2,6.5V255.4z M66.8,254.1v-1.4c0-1.8-0.2-2.9-0.5-3.3
		c-0.4-0.4-1.4-0.6-3.1-0.7v9.3c1.4,0,2.4-0.2,2.9-0.5C66.5,257.1,66.8,256,66.8,254.1z M91.2,265.4H80.6v-35h10.6V265.4z"/>
	<path class="st2" d="M133,265.4h-10.3c-0.8-1.1-1.2-2.4-1.2-4.1v-7.4c0-2.4-1.1-3.6-3.4-3.6v15h-10.5v-15c-1.9,0-2.9,1.2-2.9,3.6
		v7.4c0,2.4-0.4,3.8-1.2,4.1H93.3c0.8-1.1,1.2-2.8,1.2-5.1v-6.1c0-2.9,1.8-4.9,5.5-6.1c1-0.3,2.2-0.6,3.5-0.9
		c-0.6,0-1.8-0.3-3.6-0.9c-1.8-0.8-2.9-1.5-3.5-1.9c-1.2-1-1.8-2.4-1.8-4.1v-4.7c0-2.2-0.4-3.9-1.2-5.1h10.2
		c0.8,1.1,1.2,2.4,1.2,4.1v5.9c0,2.4,0.9,3.6,2.8,3.6v-13.6h10.5V244c2.2,0,3.3-1.2,3.3-3.6v-5.9c0-2.4,0.4-3.8,1.2-4.1h10.3
		c-0.8,1.1-1.2,2.8-1.2,5.1v4.7c0,1.7-0.6,3.1-1.8,4.1c-0.5,0.5-1.7,1.1-3.5,1.9c-1.1,0.5-2.3,0.8-3.6,0.9c0.6,0.1,1.7,0.4,3.5,0.9
		c3.6,1.2,5.5,3.2,5.5,6.1v6.1C131.8,262.5,132.2,264.2,133,265.4z"/>
	<path class="st2" d="M160,255.4c0,3.2-0.4,5.5-1.1,6.9c-0.7,1.4-1.9,2.3-3.5,2.6c-1.6,0.3-4.2,0.5-7.8,0.5h-12.3v-35h10.6v11.6h1.7
		c3.4,0,5.9,0.2,7.6,0.6c1.7,0.4,2.9,1.3,3.7,2.7c0.8,1.4,1.2,3.5,1.2,6.5V255.4z M149.4,254.1v-1.4c0-1.8-0.2-2.9-0.5-3.3
		c-0.4-0.4-1.4-0.6-3.1-0.7v9.3c1.4,0,2.4-0.2,2.9-0.5C149.1,257.1,149.4,256,149.4,254.1z M173.8,265.4h-10.6v-35h10.6V265.4z"/>
</g>
<g class="st1">
	<path class="st3" d="M24.9,29.1v2.7h-8.7l0-2.3c2.6-4.2,4.1-6.8,4.6-7.8s0.7-1.8,0.7-2.3c0-0.4-0.1-0.8-0.2-1
		c-0.1-0.2-0.4-0.3-0.7-0.3c-0.3,0-0.5,0.1-0.7,0.4c-0.1,0.2-0.2,0.7-0.2,1.4v1.5h-3.5v-0.6c0-0.9,0-1.6,0.1-2.1s0.3-1,0.7-1.5
		s0.8-0.9,1.4-1.1s1.3-0.4,2.1-0.4c1.6,0,2.8,0.4,3.6,1.2s1.2,1.8,1.2,3c0,0.9-0.2,1.9-0.7,2.9s-1.8,3.2-4,6.4H24.9z"/>
	<path class="st3" d="M35.7,21.3v5.3c0,1.2-0.1,2.1-0.2,2.6s-0.4,1.1-0.8,1.5s-0.9,0.8-1.5,1s-1.2,0.3-1.9,0.3
		c-0.9,0-1.7-0.1-2.4-0.3s-1.1-0.6-1.5-1s-0.6-0.9-0.8-1.5s-0.2-1.3-0.2-2.4v-5.5c0-1.5,0.1-2.5,0.4-3.3s0.7-1.3,1.5-1.7
		s1.6-0.7,2.7-0.7c0.9,0,1.6,0.2,2.3,0.5s1.2,0.7,1.5,1.1s0.6,0.9,0.7,1.5S35.7,20.1,35.7,21.3z M31.8,20c0-0.8,0-1.4-0.1-1.6
		s-0.3-0.3-0.6-0.3c-0.3,0-0.5,0.1-0.6,0.3s-0.1,0.7-0.1,1.6v7.7c0,0.9,0,1.5,0.1,1.7s0.3,0.3,0.6,0.3s0.5-0.1,0.6-0.3
		s0.1-0.7,0.1-1.5V20z"/>
</g>
</svg>
