<?xml version="1.0" encoding="utf-8"?>
<!-- Generator: Adobe Illustrator 26.0.3, SVG Export Plug-In . SVG Version: 6.00 Build 0)  -->
<svg version="1.1" id="Слой_1" xmlns="http://www.w3.org/2000/svg" xmlns:xlink="http://www.w3.org/1999/xlink" x="0px" y="0px"
	 viewBox="0 0 195.6 280.6" style="enable-background:new 0 0 195.6 280.6;" xml:space="preserve">
<style type="text/css">
	.st0{fill:none;}
	.st1{fill:#10A651;stroke:#010101;stroke-linecap:round;stroke-linejoin:round;}
	.st2{fill:#1986C8;stroke:#010101;stroke-width:2;stroke-linecap:round;stroke-linejoin:round;}
	.st3{fill:#E8E7E7;}
	.st4{fill:#E8E7E7;stroke:#010101;stroke-linecap:round;}
	.st5{fill:#E8E7E7;stroke:#010101;stroke-linecap:square;}
	.st6{clip-path:url(#SVGID_00000034773508683590370140000006140984250724699812_);fill:#E94539;}
	.st7{clip-path:url(#SVGID_00000034773508683590370140000006140984250724699812_);}
	.st8{fill-rule:evenodd;clip-rule:evenodd;fill:#424242;}
	.st9{fill-rule:evenodd;clip-rule:evenodd;fill:#DC2D28;}
	.st10{fill-rule:evenodd;clip-rule:evenodd;fill:#FFFFFF;}
	.st11{fill-rule:evenodd;clip-rule:evenodd;fill:#F3B303;}
	
		.st12{clip-path:url(#SVGID_00000034773508683590370140000006140984250724699812_);fill:url(#SVGID_00000119831064498424764910000008269127324658301833_);stroke:#424242;stroke-width:0.75;stroke-linecap:round;stroke-linejoin:round;}
	
		.st13{clip-path:url(#SVGID_00000034773508683590370140000006140984250724699812_);fill:url(#SVGID_00000125603284727777654200000000334040439537263270_);stroke:#424242;stroke-width:0.75;stroke-linecap:round;stroke-linejoin:round;}
	
		.st14{clip-path:url(#SVGID_00000034773508683590370140000006140984250724699812_);fill:#E8E7E7;stroke:#424242;stroke-width:0.75;stroke-linecap:round;stroke-linejoin:round;}
	
		.st15{fill:url(#SVGID_00000074437214112438942360000008642418443762076058_);stroke:#424242;stroke-width:0.75;stroke-linecap:round;stroke-linejoin:round;}
	
		.st16{fill:url(#SVGID_00000093148315584663192480000006035687041461091235_);stroke:#424242;stroke-width:0.75;stroke-linecap:round;stroke-linejoin:round;}
	.st17{fill:#E8E7E7;stroke:#424242;stroke-width:0.75;stroke-linecap:round;stroke-linejoin:round;}
	.st18{fill:none;stroke:#424242;stroke-width:0.75;stroke-linecap:round;stroke-linejoin:round;}
	
		.st19{fill:url(#SVGID_00000036967238270837015190000007671735921083001738_);stroke:#424242;stroke-width:0.75;stroke-linecap:round;stroke-linejoin:round;}
	
		.st20{fill:url(#SVGID_00000125599467422951982200000006052292167079615166_);stroke:#424242;stroke-width:0.75;stroke-linecap:round;stroke-linejoin:round;}
	
		.st21{clip-path:url(#SVGID_00000034773508683590370140000006140984250724699812_);fill:none;stroke:#424242;stroke-width:0.75;stroke-linecap:round;stroke-linejoin:round;}
	
		.st22{clip-path:url(#SVGID_00000034773508683590370140000006140984250724699812_);fill:#E94539;stroke:#424242;stroke-width:0.75;stroke-linecap:round;stroke-linejoin:round;}
	.st23{fill:#EFEFEF;stroke:#424242;stroke-width:0.25;stroke-miterlimit:10;}
	.st24{fill:none;stroke:#424242;stroke-width:0.25;stroke-miterlimit:10;}
	
		.st25{clip-path:url(#SVGID_00000034773508683590370140000006140984250724699812_);fill:#E8E7E7;stroke:#424242;stroke-width:0.5;stroke-linecap:round;stroke-linejoin:round;}
	.st26{fill:#E8E7E7;stroke:#424242;stroke-width:0.5;stroke-linecap:round;stroke-linejoin:round;}
	
		.st27{clip-path:url(#SVGID_00000034773508683590370140000006140984250724699812_);fill:none;stroke:#424242;stroke-width:0.25;stroke-miterlimit:10;}
	.st28{clip-path:url(#SVGID_00000034773508683590370140000006140984250724699812_);fill:#FFFFFF;}
	.st29{clip-path:url(#SVGID_00000034773508683590370140000006140984250724699812_);enable-background:new    ;}
	.st30{fill:#E94539;}
	.st31{font-family:'Impact';}
	.st32{font-size:19.11px;}
	.st33{font-size:24.77px;}
	.st34{font-size:20px;}
</style>
<pattern  y="280.6" width="302" height="362" patternUnits="userSpaceOnUse" id="d" viewBox="1 -365.5 302 362" style="overflow:visible;">
	<g>
		<rect x="1" y="-365.5" class="st0" width="302" height="362"/>
		<rect x="1" y="-365.5" class="st0" width="302" height="362"/>
		<path class="st1" d="M1-60.5h302v60H1"/>
		<path class="st2" d="M1-365.5h302v305H1"/>
	</g>
</pattern>
<pattern  y="280.6" width="28" height="30" patternUnits="userSpaceOnUse" id="e" viewBox="0 -31 28 30" style="overflow:visible;">
	<g>
		<rect y="-31" class="st0" width="28" height="30"/>
		<rect y="-31" class="st0" width="28" height="30"/>
		<path class="st3" d="M0-31h30v30H0"/>
		<path class="st4" d="M14.5-15.5v15 M0.5-30.5h28v15h-28V-30.5z"/>
	</g>
</pattern>
<pattern  y="280.6" width="28" height="30" patternUnits="userSpaceOnUse" id="e-3" viewBox="0 -31 28 30" style="overflow:visible;">
	<g>
		<rect y="-31" class="st0" width="28" height="30"/>
		<rect y="-31" class="st0" width="28" height="30"/>
		<path class="st3" d="M0-31h30v30H0"/>
		<path class="st4" d="M14.5-15.5v15 M0.5-30.5h28v15h-28V-30.5z"/>
	</g>
</pattern>
<pattern  y="280.6" width="28" height="30" patternUnits="userSpaceOnUse" id="ee" viewBox="0 -31 28 30" style="overflow:visible;">
	<g>
		<rect y="-31" class="st0" width="28" height="30"/>
		<rect y="-31" class="st0" width="28" height="30"/>
		<path class="st3" d="M0-31h30v30H0"/>
		<path class="st4" d="M14.5-15.5v15 M0.5-30.5h28v15h-28V-30.5z"/>
	</g>
</pattern>
<pattern  y="280.6" width="15" height="15" patternUnits="userSpaceOnUse" id="f" viewBox="0.5 -15.5 15 15" style="overflow:visible;">
	<g>
		<rect x="0.5" y="-15.5" class="st0" width="15" height="15"/>
		<rect x="0.5" y="-15.5" class="st0" width="15" height="15"/>
		<rect x="0.5" y="-15.5" class="st5" width="15" height="15"/>
	</g>
</pattern>
<pattern  y="280.6" width="15" height="15" patternUnits="userSpaceOnUse" id="f-3" viewBox="0.5 -15.5 15 15" style="overflow:visible;">
	<g>
		<rect x="0.5" y="-15.5" class="st0" width="15" height="15"/>
		<rect x="0.5" y="-15.5" class="st0" width="15" height="15"/>
		<rect x="0.5" y="-15.5" class="st5" width="15" height="15"/>
	</g>
</pattern>
<g>
	<defs>
		<rect id="SVGID_1_" x="0" y="0" width="195.6" height="280.6"/>
	</defs>
	<clipPath id="SVGID_00000125568472325217739910000013987696635138182554_">
		<use xlink:href="#SVGID_1_"  style="overflow:visible;"/>
	</clipPath>
	
		<rect x="-6.6" y="-8.4" style="clip-path:url(#SVGID_00000125568472325217739910000013987696635138182554_);fill:#E94539;" width="214" height="297.9"/>
	<g id="Warstwa_1" style="clip-path:url(#SVGID_00000125568472325217739910000013987696635138182554_);">
		<g id="_52208184">
			<path id="_52208472" class="st8" d="M46.8,267.9V146.1c0-10.5,4.8-16.3,16.2-16.3h21c6.1,0,10.6-3,13.9-8c3.3,5,7.7,8,13.9,8h21
				c11.4,0,16.2,5.8,16.2,16.3v121.8H46.8z"/>
			<path id="_52208400" class="st9" d="M148,197v70.1H47.6V197h2.9v-5.9h1.8v37.2h-1.3v7h3.8v-3.7h0.8v3.7h3.8v-3.7h0.8v3.7h3.8
				v-3.7h0.8v3.7h3.8v-3.7h0.8v3.7h3.8v-7h-1.3V197h4.1v-5.9h5.4v5.9h2.1v37.6h-1.3v7h3.8v-3.7h0.8v3.7h3.8v-3.7h0.8v3.7h3.8v-3.7
				h0.8v3.7h3.7v-3.7h0.8v3.7h3.8v-3.7h0.8v3.7h3.8v-3.7h0.8v3.7h3.8v-7h-1.3V197h1.9v-5.9h5.4v5.9h4.3v31.3h-1.3v7h3.8v-3.7h0.8
				v3.7h3.8v-3.7h0.8v3.7h3.8v-3.7h0.8v3.7h3.8v-3.7h0.8v3.7h3.8v-7h-1.3v-37.2h1.6v5.9H148z M113.3,242.2l5.1,6.1
				c-4.8,6.4-11.6,11.9-20.6,16.4c-9-4.5-15.9-9.9-20.6-16.4l5.1-6.1L113.3,242.2z"/>
			<path id="_52208328" class="st10" d="M96.7,240.8V237h-2.4v3.7h-2.2V237h-2.4v3.7h-2.2V237h-2.4v3.7h-2.2v-5.4h29.7v5.4h-2.2V237
				h-2.4v3.7h-2.2V237h-2.4v3.7h-2.2V237h-2.4v3.7H96.7z M101.7,210.2v5h-0.4v-5H101.7z M94.4,215.2h-0.6v-5h0.6V215.2z
				 M101.7,222.6v5h-8v-5H101.7z M101.7,197.9v5h-7.9v-5H101.7z M135,186v-5h-11.9v5H135z M60.7,186v-5h11.8v5H60.7z M135,149v-5
				h-11.9v5H135z M60.7,149v-5h11.8v5H60.7z M110,186v-5h11.8v5H110z M85.5,186v-5H73.7v5H85.5z M118.7,144h3.2v5h-4.1v-4.2h1
				L118.7,144L118.7,144z M76.8,144h-3.1v5h4.1v-4.2h-1V144L76.8,144z M117.3,168.6h4.6v5h-6.2C116.5,172.1,117,170.4,117.3,168.6
				L117.3,168.6z M78.2,168.6h-4.5v5h6.2C79.1,172.1,78.6,170.4,78.2,168.6L78.2,168.6z M117.7,131.6h4.1v5h-4.1V131.6z M77.8,131.6
				h-4.1v5h4.1L77.8,131.6z M117.7,156.3h4.1v5h-4.1V156.3z M77.8,156.3h-4.1v5h4.1L77.8,156.3z M148,156.3v5h-11.8v-5H148z
				 M47.5,156.3v5h11.9v-5H47.5z M148,181.1v5h-11.8v-5H148z M47.6,181.1v5h11.9v-5H47.6z M148,146.5v2.5h-11.8v-5h11.7
				C148,144.8,148,145.6,148,146.5L148,146.5z M47.6,146.5v2.5h11.9v-5H47.7C47.6,144.9,47.6,145.7,47.6,146.5L47.6,146.5z
				 M148,168.7v5h-11.8v-5H148z M47.6,168.7v5h11.9v-5H47.6z M145.8,136.7h-9.6v-5h3.6C142.3,132.6,144.4,134.4,145.8,136.7
				L145.8,136.7z M49.8,136.7h9.6v-5h-3.6C53.3,132.6,51.1,134.4,49.8,136.7L49.8,136.7z M135,156.4h-11.9v5H135V156.4z M60.7,156.4
				h11.8v5H60.6L60.7,156.4z M135,173.7v-1.4c-0.4,0.7-1,1.2-1.7,1.4H135z M128.4,168.7h-5.3v5h7.3c-1.3-0.4-2.1-1.6-2.1-2.9
				L128.4,168.7L128.4,168.7z M60.7,173.7v-1.4c0.1,0.5,0.4,1,0.8,1.4H60.7z M67.5,168.7h5v5h-6c0.6-0.6,0.9-1.4,0.9-2.3L67.5,168.7
				z M135,136.7v-5h-11.9v5H135z M60.7,136.7v-5h11.8v5H60.7z M108.9,181.2v4.8h-8.7v-1.9C103.2,183.8,106.2,182.8,108.9,181.2
				L108.9,181.2z M86.9,181.2v4.8h8.7v-1.9C92.5,183.8,89.5,182.8,86.9,181.2L86.9,181.2z M115.1,174.9h0.3v5h-4.6
				C112.5,178.5,114,176.8,115.1,174.9L115.1,174.9z M116.7,179.9v-5h11.9v5H116.7z M141.6,179.9v-5h-11.9v5H141.6z M148.1,179.9
				h-5.3v-5h5.2L148.1,179.9z M80.6,174.9h-0.3v5h4.5C83.1,178.5,81.6,176.8,80.6,174.9L80.6,174.9z M79.1,179.9v-5H67.2v5H79.1z
				 M54.1,179.9v-5h11.8v5H54.1z M47.6,179.9h5.3v-5h-5.4L47.6,179.9z M117.8,137.9h10.7v5h-9.7v-2.6h-1L117.8,137.9L117.8,137.9z
				 M141.6,142.9v-5h-11.9v5H141.6z M147.8,142.9h-5.1v-5h3.7C147.2,139.5,147.6,141.2,147.8,142.9L147.8,142.9z M77.9,137.9H67.2v5
				h9.7v-2.6h1L77.9,137.9L77.9,137.9z M54.1,142.9v-5h11.8v5H54.1z M47.9,142.9h5v-5h-3.7C48.5,139.5,48,141.1,47.9,142.9
				L47.9,142.9z M118.8,162.6h9.7v5h-10.9c0-0.4,0.1-0.8,0.1-1.1h1.1L118.8,162.6L118.8,162.6z M141.6,167.6v-5h-6.2v5H141.6z
				 M148.1,167.6h-5.2v-5h5.2L148.1,167.6z M76.9,162.6h-9.5v5h10.6c0-0.4-0.1-0.8-0.1-1.1h-1.1L76.9,162.6L76.9,162.6z M54,167.5
				v-5h6.5v5H54z M47.5,167.5h5.2v-5h-5.2L47.5,167.5z M117.7,150.2h10.8v5h-10.8L117.7,150.2z M141.6,155.2v-5h-11.8v5H141.6z
				 M148,155.2h-5.2v-5h5.2L148,155.2z M77.8,150.2H67.1v5h10.8L77.8,150.2z M54,155.2v-5h11.9v5H54z M47.5,155.2h5.2v-5h-5.2
				L47.5,155.2z M145.7,196.2v-5.9h-7.2v5.9h-5.4v-5.9h-7.3v5.9h-5.4v-5.9h-7.3v5.9h-5.4v-5.9h-7.3v5.9H95v-5.9h-7.3v5.9h-5.4v-5.9
				H75v5.9h-5.5v-5.9h-7.3v5.9h-5.4v-5.9h-7.3v5.9h-1.9v-8.9H148v8.9H145.7z M142.5,196.6h-3v-5.5h3V196.6z M53,196.6h3v-5.5h-3
				V196.6z M111.3,197.9v5H103v-5H111.3z M84.2,197.9v5h8.4v-5H84.2z M126.7,196.6v-5.5h5.4v5.5H126.7z M68.8,196.6v-5.5h-5.4v5.5
				H68.8z M101.3,196.7h5.4v-5.6h-5.4V196.7z M94,196.7h-5.4v-5.6H94L94,196.7z M141.7,230.8h-2.4v3.7h-2.2v-3.7h-2.4v3.7h-2.2v-3.7
				H130v3.7h-2.2v-3.7h-2.4v3.7h-2.2v-5.4h20.6v5.4h-2.2L141.7,230.8L141.7,230.8z M53.9,230.8h2.4v3.7h2.2v-3.7h2.4v3.7h2.2v-3.7
				h2.4v3.7h2.2v-3.7h2.4v3.7h2.2v-5.4H51.7v5.4h2.2L53.9,230.8z M137.5,215.2v-5h-8v5H137.5z M58,215.2v-5h8v5H58z M106.3,221.4v-5
				h-5v2.8c0,0.8-0.2,1.5-0.7,2.2L106.3,221.4z M89.2,221.4v-5h5.2v2.8c0,0.8,0.2,1.5,0.7,2.2L89.2,221.4z M137.5,197.8h-8v5h8
				V197.8z M58,197.8h8v5h-8L58,197.8z M106.3,204.1h-8v5h8V204.1z M89.2,204.1h8v5h-8V204.1z M142.5,222.6v5h-3.7v-5H142.5z
				 M53,222.6v5h3.7v-5H53z M111.3,228.8v5h-3.7v-5H111.3z M84.2,228.8v5H88v-5H84.2z M142.5,216.4v5h-8.3v-5H142.5z M53,216.4v5
				h8.3v-5H53z M111.3,222.6v5H103v-5H111.3z M84.2,222.6v5h8.4v-5H84.2z M142.5,210.2v5h-3.7v-5H142.5z M53,210.2v5h3.7v-5H53z
				 M111.3,216.5v5h-3.7v-5H111.3z M84.2,216.5v5H88v-5H84.2z M142.5,204v5h-8.3v-5H142.5z M53.1,204v5h8.3v-5H53.1z M111.3,210.2v5
				H103v-5H111.3z M84.3,210.2v5h8.3v-5H84.3z M142.5,197.8v5h-3.7v-5H142.5z M53.1,197.8v5h3.7v-5H53.1z M111.3,204.1v5h-3.7v-5
				H111.3z M84.3,204.1v5H88v-5H84.3z M124.6,202.8v-5h3.7v5H124.6z M71,202.8v-5h-3.7v5H71z M124.6,209v-5h8.4v5H124.6z M71,209v-5
				h-8.4v5H71z M124.7,215.2v-5h3.7v5H124.7z M71,215.2v-5h-3.7v5H71z M124.7,221.4v-5h8.3v5H124.7z M71,221.4v-5h-8.4v5H71z
				 M124.7,227.5v-5h3.7v5H124.7z M71,227.5v-5h-3.7v5H71z M137.6,227.5v-5h-8v5H137.6z M58.1,227.5v-5h8v5H58.1z M106.4,233.8v-5
				h-8v5H106.4z M89.3,233.8v-5h8v5H89.3z"/>
			<path id="_52208256" class="st11" d="M98.8,252.6v1.8h1.7v2.1h-1.7v1.8h-2.2v-1.8h-1.7v-2.1h1.7v-1.8L98.8,252.6z M105.9,257.2
				v-12.6h6.5l3.2,3.7C112.7,251.6,109.5,254.6,105.9,257.2z M89.7,257.2v-12.6h-6.5l-3.2,3.7C82.9,251.6,86.1,254.6,89.7,257.2z
				 M101.4,257.3h-1.7v1.7h-3.8v-1.7h-1.8v-3.8h1.8v-1.7h3.8v1.7h1.7L101.4,257.3L101.4,257.3z M103.2,244.6v14.1
				c-1.7,1.3-3.5,2.4-5.4,3.2c-1.9-0.8-3.8-1.9-5.4-3.2v-14.1L103.2,244.6z M82.7,242.9l-4.6,5.5c5.3,6.5,12,11.8,19.7,15.4
				c7.6-3.6,14.3-8.9,19.7-15.4l-4.6-5.5L82.7,242.9z M90.5,258.8v-15h-7.6l-3.8,4.5C82.4,252.3,86.3,255.8,90.5,258.8L90.5,258.8z
				 M91.4,243.8v15.5c2,1.4,4.1,2.7,6.4,3.6c2.3-1,4.4-2.2,6.4-3.6v-15.4L91.4,243.8z M105.1,258.8v-15h7.6l3.8,4.5
				C113.2,252.3,109.3,255.8,105.1,258.8z M117.9,144h-3.7v-2.8h3.7V144z M77.7,144h3.7v-2.8h-3.7V144z M117.9,165.6h-3.7v-2.9h3.7
				V165.6z M77.7,165.6h3.7v-2.9h-3.7V165.6z M114.2,130.6v9.8h2.8v-9.8H114.2z M100.2,183.3c8.1-0.9,15.7-6.5,16.7-16.9h-2.9
				c-1.3,8.5-7.3,13.2-13.8,14.1V183.3z M117,161.9v-17.1h-2.8v17.1L117,161.9z M81.4,130.6v9.8h-2.8v-9.8H81.4z M95.4,183.3
				c-8.1-0.9-15.7-6.5-16.7-16.9h2.9c1.3,8.5,7.3,13.2,13.8,14.1L95.4,183.3L95.4,183.3z M78.6,161.9v-17.1h2.8v17.1L78.6,161.9z
				 M99.2,184.9h-2.8V180h2.9L99.2,184.9z M113.3,130.5v10.8h-0.7l-5.1-4.7l-1.4,1.5l2.9,3.2h-2.4l-3-3.1l-1.6,1.4l1.3,1.7h-3.8
				v-16.2c3.2,3.5,7.8,5.5,12.5,5.3L113.3,130.5z M113.3,144.2v18.2c0,0.1,0,0.2,0,0.3h-0.7l-5.1-4.7l-1.4,1.5l2.9,3.2h-2.4l-3-3.1
				L102,161l1.3,1.7h-3.8v-18.5h3.9L102,146l1.7,1.4l3-3.1h2.4l-3,3.3l1.4,1.5l5.2-4.8L113.3,144.2z M113.1,165.5
				c-1.1,8.5-6.8,13.2-13,14.1v-0.5h-0.6v-13.6h3.9l-1.4,1.8l1.7,1.3l3-3.1h2.4l-3,3.3l1.4,1.5l5.2-4.8L113.1,165.5z M82.2,130.5
				v10.8h0.7l5.1-4.6l1.4,1.5l-2.9,3.2h2.4l3-3.1l1.7,1.4l-1.3,1.7h3.8v-16.2c-3.2,3.5-7.8,5.5-12.5,5.3L82.2,130.5z M82.2,144.1
				v18.3c0,0.1,0,0.2,0,0.3h0.7L88,158l1.4,1.5l-2.9,3.2h2.4l3-3.1l1.7,1.4l-1.3,1.7h3.8v-18.5h-3.9l1.4,1.8l-1.7,1.4l-3.1-3.1h-2.4
				l3,3.3L88,149l-5.2-4.8L82.2,144.1z M82.4,165.5c1.1,8.5,6.8,13.2,13,14.1v-0.5H96v-13.6h-3.8l1.4,1.8l-1.7,1.3l-3.1-3.1h-2.4
				l3,3.3l-1.5,1.5l-5.2-4.8L82.4,165.5z M99.4,163.5h5.2l-1.9-2.4l0.8-0.6l2.9,3h4.1l-3.5-3.9l0.6-0.7l5.1,4.6h0.6
				c0,0.4,0,0.8-0.1,1.2h-0.4l-5.2,4.7l-0.6-0.7l3.7-4h-4.1l-2.9,3.1l-0.8-0.6l1.9-2.4h-5.3L99.4,163.5L99.4,163.5z M96,163.5h-5.2
				l1.9-2.4l-0.8-0.6l-2.9,3H85l3.6-3.9l-0.6-0.7l-5.1,4.6h-0.6c0,0.4,0,0.8,0.1,1.2h0.4l5.2,4.7l0.6-0.7l-3.7-4H89l3,3.1l0.8-0.6
				l-1.9-2.4h5.2L96,163.5L96,163.5z M99.4,142.1h5.2l-1.9-2.4l0.8-0.6l2.9,3h4.1l-3.5-3.9l0.6-0.7l5.1,4.6h0.6v1.2h-0.6l-5.2,4.7
				l-0.6-0.7l3.7-4h-4.1l-2.9,3.1l-0.8-0.6l1.9-2.4h-5.3L99.4,142.1L99.4,142.1z M96,142.1h-5.2l1.9-2.4l-0.8-0.6l-2.9,3H85l3.6-3.9
				l-0.6-0.7l-5.1,4.6h-0.6v1.2h0.6l5.2,4.7l0.6-0.7l-3.7-4h4l3,3.1l0.8-0.6l-1.9-2.4h5.2L96,142.1L96,142.1z M96.8,124.1v54.9h1.8
				v-54.9c-0.3-0.4-0.6-0.8-0.9-1.3C97.4,123.4,97.1,123.8,96.8,124.1L96.8,124.1z"/>
			<path id="_52208112" class="st10" d="M57.1,131.3h2.8v5.8H49.6l-0.2,0.4h3.9v5.8h-5.5c0,0.1,0,0.3,0,0.4h12.1v5.8H47.6v0.4h5.6
				v5.7h-5.6v0.5h12.3v5.8H47.6v0.4h5.7v5.8h-5.7v0.4h12.3v5.8H47.6v0.4h5.7v5.8h-5.7v0.4h12.3v5.8H47.6v0.4H148v-0.4h-12.2v-5.8
				H148v-0.4h-5.7v-5.8h5.7v-0.4h-12.2v-5.8H148V168h-5.7v-5.8h5.7v-0.4h-12.2V156H148v-0.4h-5.6v-5.7h5.6v-0.4h-12.2v-5.8h12.1
				c0-0.1,0-0.3,0-0.4h-5.5v-5.8h3.9c-0.1-0.1-0.1-0.3-0.2-0.4h-10.3v-5.8h2.8c-0.6-0.2-1.2-0.3-1.8-0.4h-7.5v-0.4h-0.4v0.4h-11.1
				v0.4h4.5v5.8h-4.5v0.4h11.1v5.8h-10.1v0.4h3.6v5.8h-4.5v0.4h11.2v5.7h-11.2v0.5h4.5v5.8h-4.5v0.1h1v0.3H142v5.8h-6.6v0.4l0,0v5.8
				h-12.7v-5.8h5.7v-0.4h-10.9c0,0.1,0,0.3-0.1,0.4h4.9v5.8h-6.8l-0.2,0.4h0.4v5.8h-5.5c-0.2,0.1-0.4,0.3-0.6,0.4h12.6v5.8h-12.7
				v-5.7l-0.4,0.3v5.5H86.4V181l-0.4-0.3v5.7H73.3v-5.8h12.6l-0.6-0.4h-5.5v-5.8h0.4l-0.2-0.4h-6.8v-5.8h4.9c0-0.1,0-0.3-0.1-0.4
				H67.5v0.4h5.4v5.8H66c-0.3,0.2-0.6,0.3-0.9,0.4h1.2v5.8H53.6v-5.8h9.2c-0.3-0.1-0.6-0.2-0.9-0.4h-1.7v-5.8h0.3v-0.4h-6.9v-5.8
				h23.2v-0.3h1v-0.1h-4.6V156h4.5v-0.4H66.7v-5.7h11.2v-0.4h-4.5v-5.8h3.6v-0.4H66.7v-5.8h11.1v-0.4h-4.5v-5.8h4.5v-0.4H66.7v-0.4
				h-0.4v0.4h-7.5C58.3,131,57.7,131.1,57.1,131.3z M61.3,162.5v8.5c0,0.6,0.4,1,1,1s1-0.4,1-1v-8.5H61.3z M129.1,162.5v8
				c0,1.2,2,1.2,2,0v-8H129.1z M53.6,149.8h12.7v5.7H53.6L53.6,149.8z M142,149.8h-12.7v5.7H142L142,149.8L142,149.8z M129.3,180.3
				v-5.8H142v5.8H129.3z M128.8,174.5v5.8h-12.7v-5.8H128.8z M122.7,186.4h12.7v-5.8h-12.7L122.7,186.4z M135.3,161.7V156h-12.7v5.8
				L135.3,161.7z M66.7,174.5v5.8h12.7v-5.8H66.7z M72.9,186.4H60.2v-5.8h12.7L72.9,186.4z M60.2,161.7V156h12.7v5.8L60.2,161.7z
				 M129.2,143.3v-5.8H142v5.8H129.2z M122.7,137.1h12.7v-5.8h-12.6L122.7,137.1z M122.7,149.4h12.7v-5.8h-12.6L122.7,149.4z
				 M66.3,143.3v-5.8H53.6v5.8H66.3z M72.9,137.1H60.2v-5.8h12.7L72.9,137.1L72.9,137.1z M72.9,149.4H60.2v-5.8h12.7L72.9,149.4
				L72.9,149.4z M93.4,222.2v5.8h8.8v-5.8h-2.5c0.2-0.1,0.4-0.3,0.6-0.4h6.5V216h-5.4v-0.4h0.8v-5.8h-8.8v5.8h1v0.4h-5.6v5.8h6.7
				c0.2,0.2,0.4,0.3,0.6,0.4L93.4,222.2z M97.1,210.2v8.7c0,0.6-0.4,1-1,1s-1-0.4-1-1v-8.7H97.1z M84.3,197.1v0.4H93v5.8h-8.7v0.4
				h4.1v5.8h-4.1v0.4H93v5.8h-8.7v0.4h4.1v5.8h-4.1v0.4H93v5.8h-8.7v0.4h4.1v5.8h-4.1v0.4h27.1v-0.4h-4.1v-5.8h4.1V228h-8.8v-5.8
				h8.8v-0.4h-4.1V216h4.1v-0.4h-8.8v-5.8h8.8v-0.4h-4.1v-5.8h4.1v-0.4h-8.8v-5.8h8.7v-0.4L84.3,197.1z M93.4,203.2v-5.8h8.7v5.8
				H93.4z M88.8,209.4v-5.8h8.8v5.8H88.8z M97.6,234.1h-8.8v-5.8h8.8L97.6,234.1z M106.8,209.4v-5.8H98v5.8H106.8z M98,234.1h8.8
				v-5.8H98V234.1z M138,203.1v-5.7h-8.8v5.8L138,203.1z M128.8,197.4h-4.1V197h17.9v0.4h-4.1v5.8h4.1v0.4h-8.7v5.8h8.7v0.4h-4.1
				v5.8h4.1v0.4h-8.7v5.8h8.7v0.4h-4.1v5.8h4.1v0.4h-17.9v-0.4h4.1v-5.8h-4.1v-0.4h8.7v-5.8h-8.8v-0.4h4.1v-5.8h-4.1v-0.4h8.8v-5.8
				h-8.8v-0.4h4.1L128.8,197.4z M129.2,215.5h8.8v-5.8h-8.8L129.2,215.5z M129.2,227.9h8.8v-5.8h-8.8L129.2,227.9z M57.6,203.2v-5.8
				h8.8v5.8H57.6z M66.8,197.4H71V197H53.1v0.4h4.1v5.8h-4.1v0.4h8.8v5.8h-8.8v0.4h4.1v5.8h-4.1v0.4h8.8v5.8h-8.8v0.4h4.1v5.8h-4.1
				v0.4H71v-0.4h-4.2v-5.8H71v-0.4h-8.8v-5.8H71v-0.4h-4.2v-5.8H71v-0.4h-8.8v-5.8H71v-0.4h-4.2V197.4z M66.4,215.5h-8.8v-5.8h8.8
				L66.4,215.5z M66.4,227.9h-8.8v-5.8h8.8L66.4,227.9z"/>
		</g>
	</g>
	
		<pattern  id="SVGID_00000009574792285039103460000014368045607456494754_" xlink:href="#d" patternTransform="matrix(0.33 0 0 -0.33 -5149.3198 -10019.0293)">
	</pattern>
	
		<path style="clip-path:url(#SVGID_00000125568472325217739910000013987696635138182554_);fill:url(#SVGID_00000009574792285039103460000014368045607456494754_);stroke:#424242;stroke-width:0.75;stroke-linecap:round;stroke-linejoin:round;" d="
		M97.8,131c24.3-19.7,50-6.7,50-59.9c-8.3-8.3-8.3-16.7,0-25V21.7c-15.7-7.2-32.7-10.9-50-10.6 M97.8,131c-24.3-19.7-50-6.7-50-59.9
		c8.3-8.3,8.3-16.7,0-25V21.7c15.7-7.2,32.7-10.9,50-10.6"/>
	
		<pattern  id="SVGID_00000098181193749330702250000000560350553196691352_" xlink:href="#ee" patternTransform="matrix(0.33 0 0 0.33 -5387.1401 -4674.6714)">
	</pattern>
	
		<path style="clip-path:url(#SVGID_00000125568472325217739910000013987696635138182554_);fill:url(#SVGID_00000098181193749330702250000000560350553196691352_);stroke:#424242;stroke-width:0.75;stroke-linecap:round;stroke-linejoin:round;" d="
		M109.4,73.3l-11.7-3l-11.7,3v-18h23.3V73.3z"/>
	
		<path style="clip-path:url(#SVGID_00000125568472325217739910000013987696635138182554_);fill:#E8E7E7;stroke:#424242;stroke-width:0.75;stroke-linecap:round;stroke-linejoin:round;" d="
		M106.1,28l-8.3-12l-8.3,12"/>
	
		<path style="clip-path:url(#SVGID_00000125568472325217739910000013987696635138182554_);fill:#E8E7E7;stroke:#424242;stroke-width:0.75;stroke-linecap:round;stroke-linejoin:round;" d="
		M102.8,29.1l-5-7.3l-5,7.3 M102.8,26.7l-5-7.3l-5,7.3"/>
	
		<circle style="clip-path:url(#SVGID_00000125568472325217739910000013987696635138182554_);fill:#E8E7E7;stroke:#424242;stroke-width:0.75;stroke-linecap:round;stroke-linejoin:round;" cx="97.8" cy="16.1" r="2.3"/>
	<g id="h" style="clip-path:url(#SVGID_00000125568472325217739910000013987696635138182554_);">
		
			<pattern  id="SVGID_00000121260930467147524590000006497856237889204097_" xlink:href="#e" patternTransform="matrix(0.33 0 0 0.33 -5388.1401 -4674.6714)">
		</pattern>
		
			<path style="fill:url(#SVGID_00000121260930467147524590000006497856237889204097_);stroke:#424242;stroke-width:0.75;stroke-linecap:round;stroke-linejoin:round;" d="
			M61.8,50.7h18.7v61.6H61.8V50.7z"/>
		
			<pattern  id="SVGID_00000153672294220565467090000005946636522753575296_" xlink:href="#f" patternTransform="matrix(0.24 -0.24 0.24 0.24 -4151.9312 -7372.1489)">
		</pattern>
		
			<path style="fill:url(#SVGID_00000153672294220565467090000005946636522753575296_);stroke:#424242;stroke-width:0.75;stroke-linecap:round;stroke-linejoin:round;" d="
			M71.2,22.4l-7.7,22.3h15.3L71.2,22.4z"/>
		<g id="i">
			<path class="st17" d="M71.5,44.7h-10V48h-1.7v5h2.7v-2.3h2.3V53h2.7v-2.3h2.3V53h1.7"/>
			<path class="st17" d="M65.8,47v-1.3h1.7V47H65.8z M68.8,47v-1.3h1.7V47H68.8z M62.8,47v-1.3h1.7V47H62.8z"/>
		</g>
		<g id="i-2">
			<path class="st17" d="M70.8,44.7h10V48h1.7v5h-2.7v-2.3h-2.3V53h-2.7v-2.3h-2.3V53h-1.7"/>
			<path class="st17" d="M76.5,47v-1.3h-1.7V47H76.5z M73.5,47v-1.3h-1.7V47H73.5z M79.5,47v-1.3h-1.7V47H79.5z"/>
		</g>
		<path class="st17" d="M97.8,71.7c-10,0-13.7,5.7-13.7,8.3v32.3H69.8V71c0,0,8.7,1,13,4.7c0,0,3.8-6.3,15.1-6.3"/>
		<g id="j">
			<path id="g" class="st18" d="M82.1,83.7c-0.7,0-5,0.3-1.7-2.3c0,0-4.3-0.7-3.3,2.3c0,0-1.3-0.7-2.7,1"/>
			<path id="g-2" class="st18" d="M82.1,85.7c-0.7,0-5-0.3-1.7,2.3c0,0-4.3,0.7-3.3-2.3c0,0-1.3,0.7-2.7-1"/>
		</g>
		<g id="j-2">
			<path id="g-3" class="st18" d="M82.1,102c-0.7,0-5,0.3-1.7-2.3c0,0-4.3-0.7-3.3,2.3c0,0-1.3-0.7-2.7,1"/>
			<path id="g-4" class="st18" d="M82.1,104c-0.7,0-5-0.3-1.7,2.3c0,0-4.3,0.7-3.3-2.3c0,0-1.3,0.7-2.7-1"/>
		</g>
		<path class="st18" d="M82.1,104v8.3H71.8V73.7c3.8,0.5,7.3,2,10.3,4.3v5.7 M82.1,85.7V102"/>
		<path class="st17" d="M98.5,55.7h-2V58h-2.3v-2.3h-2.3V58h-2.3v-2.3h-2.3V58h-2.7v-5h14"/>
		<circle class="st17" cx="71.2" cy="22.4" r="2.3"/>
	</g>
	<g id="h-2" style="clip-path:url(#SVGID_00000125568472325217739910000013987696635138182554_);">
		
			<pattern  id="SVGID_00000122716501355436918620000009329207164716136349_" xlink:href="#e-3" patternTransform="matrix(-0.33 0 0 0.33 -10641.2705 -4674.6714)">
		</pattern>
		
			<path style="fill:url(#SVGID_00000122716501355436918620000009329207164716136349_);stroke:#424242;stroke-width:0.75;stroke-linecap:round;stroke-linejoin:round;" d="
			M133.8,50.7h-18.6v61.6h18.6V50.7z"/>
		
			<pattern  id="SVGID_00000173119928921379923540000008142933715160714668_" xlink:href="#f-3" patternTransform="matrix(-0.2333 -0.2333 -0.2333 0.2333 -11826.917 -7371.8623)">
		</pattern>
		
			<path style="fill:url(#SVGID_00000173119928921379923540000008142933715160714668_);stroke:#424242;stroke-width:0.75;stroke-linecap:round;stroke-linejoin:round;" d="
			M124.4,22.4l7.7,22.3h-15.3L124.4,22.4z"/>
		<g id="i-3">
			<path class="st17" d="M124.1,44.7h10V48h1.7v5h-2.7v-2.3h-2.3V53h-2.7v-2.3h-2.3V53h-1.7"/>
			<path class="st17" d="M129.8,47v-1.3h-1.7V47H129.8z M126.8,47v-1.3h-1.7V47H126.8z M132.8,47v-1.3h-1.7V47H132.8z"/>
		</g>
		<g id="i-4">
			<path class="st17" d="M124.8,44.7h-10V48h-1.7v5h2.7v-2.3h2.3V53h2.7v-2.3h2.3V53h1.7"/>
			<path class="st17" d="M119.1,47v-1.3h1.7V47H119.1z M122.1,47v-1.3h1.7V47H122.1z M116.1,47v-1.3h1.7V47H116.1z"/>
		</g>
		<path class="st17" d="M97.8,71.7c10,0,13.7,5.7,13.7,8.3v32.3h14.3V71c0,0-8.7,1-13,4.7c0,0-3.8-6.3-15.1-6.3"/>
		<g id="j-3">
			<path id="g-5" class="st18" d="M113.4,83.7c0.7,0,5,0.3,1.7-2.3c0,0,4.3-0.7,3.3,2.3c0,0,1.3-0.7,2.7,1"/>
			<path id="g-6" class="st18" d="M113.4,85.7c0.7,0,5-0.3,1.7,2.3c0,0,4.3,0.7,3.3-2.3c0,0,1.3,0.7,2.7-1"/>
		</g>
		<g id="j-4">
			<path id="g-7" class="st18" d="M113.4,102c0.7,0,5,0.3,1.7-2.3c0,0,4.3-0.7,3.3,2.3c0,0,1.3-0.7,2.7,1"/>
			<path id="g-8" class="st18" d="M113.4,104c0.7,0,5-0.3,1.7,2.3c0,0,4.3,0.7,3.3-2.3c0,0,1.3,0.7,2.7-1"/>
		</g>
		<path class="st18" d="M113.4,104v8.3h10.3V73.7c-3.8,0.5-7.3,2-10.3,4.3v5.7 M113.4,85.7V102"/>
		<path class="st17" d="M97.1,55.7h2V58h2.3v-2.3h2.3V58h2.3v-2.3h2.3V58h2.7v-5h-14"/>
		<circle class="st17" cx="124.4" cy="22.4" r="2.3"/>
	</g>
	
		<path style="clip-path:url(#SVGID_00000125568472325217739910000013987696635138182554_);fill:#E8E7E7;stroke:#424242;stroke-width:0.75;stroke-linecap:round;stroke-linejoin:round;" d="
		M86.3,29.4l1.5,2.2c-0.8,0.6-1.6,1.3-2.3,2l12.2,12.3L110,33.5c-0.7-0.7-1.5-1.4-2.3-2l1.5-2.2C102.5,24.3,93.2,24.3,86.3,29.4
		L86.3,29.4z"/>
	
		<path style="clip-path:url(#SVGID_00000125568472325217739910000013987696635138182554_);fill:none;stroke:#424242;stroke-width:0.75;stroke-linecap:round;stroke-linejoin:round;" d="
		M97.8,26.9c-3.3,0-6.5,0.9-9.3,2.6l0.7,1.2c5.3-3.3,12-3.3,17.3,0l0.7-1.2C104.3,27.8,101.1,26.9,97.8,26.9z M108.1,33.5
		c-5.8-5.3-14.7-5.3-20.5,0l10.3,12.4L108.1,33.5z"/>
	
		<path style="clip-path:url(#SVGID_00000125568472325217739910000013987696635138182554_);fill:#E8E7E7;stroke:#424242;stroke-width:0.75;stroke-linecap:round;stroke-linejoin:round;" d="
		M97.8,31c-7.7,0-14,6.3-13.9,14.1c0,2.8,0.9,5.6,2.5,7.9h23c4.4-6.3,2.9-15.1-3.5-19.5C103.5,31.9,100.7,31,97.8,31L97.8,31z"/>
	
		<path style="clip-path:url(#SVGID_00000125568472325217739910000013987696635138182554_);fill:#E94539;stroke:#424242;stroke-width:0.75;stroke-linecap:round;stroke-linejoin:round;" d="
		M97.8,32.7c-6.8,0-12.3,5.5-12.3,12.3c0,2.5,0.8,4.9,2.2,7h20.2c3.9-5.6,2.5-13.3-3.1-17.1C102.7,33.5,100.3,32.7,97.8,32.7z"/>
	<g id="pahonia" style="clip-path:url(#SVGID_00000125568472325217739910000013987696635138182554_);">
		<path class="st23" d="M101.7,50.5c-0.2,0.1-0.4,0.6-0.5,0.8c0,0.8,1.4,0.4,1.4,0.2s0.1-0.8,0.4-0.8c0.7-0.1,0.8-1.2,1.8-2.6
			c-0.4-0.7-0.8-0.7-1.1-1.4c0.6-1,1.2-1.5,0.8-3.4c1.3,0.1,2.1,0.5,1.7,2c-0.3,1.3-0.2,2.7,1.5,2.7c-0.6-1,0.2-2.3,0.6-3.5
			c0.3-1-0.2-2-1.2-2.3c-0.3-0.1-0.7-0.1-1,0c-1.3,0.3-1.2,0.7-1.9,0.3c-2.4-2.1-4.9,0.2-7.4-0.9c-0.1-2.8-1.6-5.4-4.8-5.2v0.4
			c0.1-0.6-0.8-1.4-0.8-0.8s0,0.6-0.5,0.2c-0.1,0.4,0,0.8,0.1,1.1c-0.3,0.3-0.6,0.7-0.7,1.1c-0.3,0.7-0.4,1.5-0.5,2.3
			c0,0.3,0,0.6,0.3,0.7s0.5-0.2,0.6,0.2c0,0,0.5-0.1,0.5-0.3c0.2-0.7,0.6-0.8,0.9-1c0.7-0.1,1.2-0.9,1.1-1.6c0-0.1,0-0.1-0.1-0.2
			c0.4,0.7-0.3,1.8-0.7,2.4c-0.7,1-1.4,1.4-1.4,2.4c-0.5-0.2-1-0.4-1.5-0.7c-0.3-0.1-0.7,0-0.9,0.2c-0.3,0.7-0.4,1.8-0.6,2.5
			c-0.1,0.3,0.3,0.8,0.3,1.6c0.2,0.3,0.6,0.5,1,0.4c0.3-1,0.3-0.8-0.3-1.6c0-0.6,0-1.2,0.1-1.7c0.4-0.3,0.9,0.4,1.2,0.7
			c0.6,0.3,1.2,0.4,1.9,0.3c-0.7,0.1-1.4,0-2-0.4c-0.8-0.5-0.6,1.7-1,3c0,0.8,0.4,1.1,0.8,1.6c1.3-0.7,0.6-1.4,0.2-1.5
			c0-0.6,0.1-1.3,0.2-1.9c1.3,0.5,1.1,0.8,2.9,1.1c0.4-0.3,0.7-0.7,0.9-1.1l-0.3,0.5c2.1,0.5,4.4,0.7,6.6,0.6c0.6,0.5,1.3,0.9,2,1.1
			l-1-0.4c-0.1,0.8-0.7,2.4-1.5,2.6c-0.2,0.3-0.4,0.6-0.5,0.9c0,0.5,1.4,0.4,1.3,0.1c0.1-0.8,0.3-0.6,0.5-0.8
			c0.2-0.9,0.6-1.8,1.1-2.5c0,0,0.5,0.2,1.1,0.3C103.2,49.2,102.6,50.2,101.7,50.5L101.7,50.5z"/>
		<path class="st23" d="M90.7,43.5c0,0.6,0.1,1.1,0.3,1.6"/>
		<path class="st23" d="M97.1,49.6c-1.1-1.1-3.1-5.3-1-8.1l3.9,0.1c-0.5,2.3-0.4,4.8,0.4,7.1c-0.8,0-1.3-1-1.9-2.1l0.7,2.9
			c-1.1-0.6-1.8-1.6-2-2.8C97.1,48.4,97.5,48.5,97.1,49.6z"/>
		<path class="st23" d="M91,40.7l0.5,2.2c1.7-0.3,3.3-1,4.7-2c-1.6,0.3-4.1,1.2-4.5,0.7l-0.5-1.3"/>
		<path class="st23" d="M99.8,37.8l-0.4-0.5c-0.1-0.4,0.2-1,0.2-1.4c0-0.5-0.3-1-0.7-1.2c-0.4,0.1-1.2,0.2-1.4,1.1
			c0.1,0.2,0.2,0.3-0.2,0.9c0.3,0.5-0.1,0.6,0.5,0.9c-0.3,0-0.8-0.8-1.5-1c0.2-0.7-0.5-1.8-0.2-2.2c0.9-1.7-1.5-1.3-0.9-0.1
			c0,0.9,0,1.8-0.1,2.6l1.7,1.5l0.5,2.6c-0.8,0.5-1.3,1.3-1.6,2.2c-0.4,0.1-0.7,0.6-0.6,1c0,0,0,0,0,0c0.1,0.9,0.2,1.9,0.1,2.8
			c-0.6,0.1-1.2,0.3-1.6,0.7c0.9,0.1,1.7,0.2,2.5,0.4c-0.1-0.6,0-1.3,0.1-1.9c0.3-0.5,0.4-1.2,0.3-1.8l0.1-0.6l1.9-1.5"/>
		<path class="st23" d="M95.1,48.2l-0.1-1.4l-0.6,1.3L95.1,48.2z"/>
		<path class="st23" d="M95,46.7l0.2-0.7"/>
		<path class="st23" d="M99.1,38.6l-0.6,0.1l0.1,0.5L98,39.4l0.1,0.5l0.5-0.1l0.1,0.5l-0.6,0.1l0.1,0.5l0.6-0.1l0.2,0.9l0.6-0.1
			l-0.2-0.9l0.7-0.1L100,40l-0.7,0.1l-0.1-0.5l0.6-0.1L99.7,39l-0.6,0.1L99.1,38.6z M100.5,37.7l-3.7,0.8c0.6,3.1,1,4,3,4.6
			C101.2,41.7,101.2,41,100.5,37.7z M96.7,33.2h-0.4v1.6h0.4v-0.5h4.4l1-0.3l-1-0.2h-4.4V33.2z M98.9,34.7c2.9-0.7,2.4,2,5.4,2.3
			C101.5,39,100.9,35.3,98.9,34.7z M97.5,35.8l2,0.6 M97.7,37.7l-1,0.8 M97.1,40.1l-0.8,0.2c-0.7,0.2-0.7,0.5-0.5,1s1,0.3,0.8-0.1
			l0.8-0.1l-0.6,0.1l0.6,5.1l0.5,1l0.2-1.1l-0.3-4.3L97,42l0.8-0.1"/>
		<path class="st24" d="M89.6,40.5c0.3-0.1,0.7-0.1,1,0 M95.6,43.3l1,0.7 M95.2,44.7l1.4-0.1 M97.4,36.8c0.3,0,0.3,0.2,0.5,0.1
			 M97.8,36.2H98 M99,36.2c0.1,1.3-1.2,1.2-1.2,1.5c0.5,0,1.1-0.1,1.5-0.4 M95.5,37.3c0.2-0.3,0.5-0.5,0.9-0.7 M95.1,36.2
			c0.4,0,0.8,0,1.2,0.2 M100.5,42.3c0.7,0.9,0.6,2.2,0.4,3.6l0.4,0.6l0.1-0.6c0.1-1.2,0.4-2.7-0.7-4 M99.8,44.3
			c1.6,0.3,3.2,0.4,4.8,0.1 M99.8,43.9c1.5,0.3,3.1,0.4,4.7,0.1 M101.8,41.8c0.9,1.2,1.3,2.7,1,4.2l0.4,0.6l0.1-0.6
			c0.3-1.5,0-3-0.9-4.2 M91.4,44.7c1.3-0.2,2.6-0.5,3.8-1.1 M91.3,44.1c1.4-0.2,2.8-0.6,4.1-1.3 M90.7,37.4c0.9,0.2,1.6,0.6,2.1,1.3
			 M90.5,37.7c1,0.2,1.9,0.8,2.5,1.8 M91.1,40.3c0.8-0.9,1.9-2.5,1.6-3.3 M89.9,41l0.1-0.2 M90.3,41.5l0.2-0.3 M89.7,40.1
			c0.3-0.1,0.7-0.1,1,0c0.7-0.9,1.9-2.2,1.5-3.2 M91.1,36.4c0,0.2,0,0.3,0.1,0.5 M91.9,36.8c3.2,0.1,3.6,2.3,4.1,3.6 M90.5,38.8
			l0.2-0.3l0.3-0.1l-0.2,0.4L90.5,38.8z M95.2,34.1c0.5,0.2,0.4-0.2,0.8-0.2"/>
		<ellipse class="st23" cx="91.2" cy="44.4" rx="0.3" ry="0.6"/>
		<circle class="st23" cx="94.9" cy="46.9" r="0.3"/>
		<circle class="st23" cx="94.8" cy="33.9" r="0.3"/>
		<circle class="st23" cx="90.9" cy="40.3" r="0.3"/>
		<circle class="st23" cx="92.3" cy="38.3" r="0.3"/>
		<circle class="st23" cx="101.3" cy="44.2" r="0.3"/>
		<circle class="st23" cx="103" cy="44.3" r="0.3"/>
	</g>
	
		<path style="clip-path:url(#SVGID_00000125568472325217739910000013987696635138182554_);fill:#E8E7E7;stroke:#424242;stroke-width:0.5;stroke-linecap:round;stroke-linejoin:round;" d="
		M97.5,78.7c-1.7-3.3,0-4.7,2-4.3s4.7,4,6.7,3c0.3,0.3-1.7,3-4,1.7s-3.7-4.7-4-0.3"/>
	
		<path style="clip-path:url(#SVGID_00000125568472325217739910000013987696635138182554_);fill:#E8E7E7;stroke:#424242;stroke-width:0.5;stroke-linecap:round;stroke-linejoin:round;" d="
		M94.1,88.7l-2.3,2c0,0-1.3,2.3-3-0.3h-0.3l-1-3.3c-0.7,0-1.3-0.6-1.3-1.3c0,0,0,0,0-0.1c0,0,0.3-1.3,1.3-1.3
		c0.8,0.1,1.4,0.6,1.7,1.3c1.3,1.7,1.3,3.3,2.3,2l1-1.3"/>
	<g id="defender" style="clip-path:url(#SVGID_00000125568472325217739910000013987696635138182554_);">
		<path class="st26" d="M97.8,92.5l-3-0.3c0,0-0.7-4.7-2.3-6c0,0,0-1.7,2.3-1.7c0,0,1.3-0.3,1-2.7c0,0-0.7-3.3,2.1-3.3"/>
		<path class="st26" d="M95.8,104.5c0.3,1.3,0.3,2.7-1,5c-0.3,1.3,1.3,1.3,0.3,2.7h-5c0,0-1-0.7,0-1c0.9-0.1,1.8-0.3,2.7-0.7
			c0.7-2.7-0.3-3.7,0.3-6.3c0,0-0.7-1.3,0.3-2c0,0-0.7-4.2,0.3-6.3l3.7,0.7C97.5,101.8,96.1,100.2,95.8,104.5z"/>
		<path class="st17" d="M97.9,97c-0.9,0-1.8-0.1-2.7-0.3c0-1.7-0.3-4.5,2.7-4.2"/>
		<circle class="st26" cx="97" cy="81.2" r="0.2"/>
		<path class="st18" d="M94.8,84.5c0.8,0.7,1.9,1.1,3,1"/>
		<path class="st24" d="M97.2,97l0.5-4.5l-1.6,4.3 M92.8,110.5c1,0,1.8,0.7,2,1.7 M93.5,112.1c0,0,0.3-0.7-0.7-1.7 M92.1,110.8
			c0.4,0.4,0.6,0.8,0.7,1.3 M91.8,112.1c0-0.5-0.3-0.9-0.7-1.2 M95.8,104.5c-0.8-0.3-1.8-0.5-2.7-0.3 M93.4,97.2
			c1.3,0.4,2.6,0.6,4,0.7 M97.3,98.8c-1.4,0-2.7-0.2-4-0.7 M93.3,99.3c1.2,0.5,2.5,0.7,3.8,0.6 M96.6,101c-1.1,0-2.2-0.1-3.2-0.5
			 M93.5,101.8c0.9,0.2,1.8,0.4,2.7,0.3 M95.8,103.1c0,0-1,0-1.3-0.7c-0.2-0.4-0.6-0.5-1-0.4c0,0,0,0,0,0 M93.5,87.1
			c0,0,2-0.7,2-2.2 M96.1,85.3c0,0,0.7,1.5-2.2,3.2 M96.5,81.2c0.3-0.2,0.6-0.2,0.9,0 M97.8,82.7c-0.3,0.3-1,0-1,0.3"/>
		<path class="st26" d="M97.8,94.2c-2.7,0-2.3,3.3-2.3,3.3c-0.9,0-1.8-0.3-2.7-0.7c0,0,1-4,2-4.7l3,0.3"/>
	</g>
	<g id="defender-2" style="clip-path:url(#SVGID_00000125568472325217739910000013987696635138182554_);">
		<path class="st26" d="M97.8,92.5l3-0.3c0,0,0.7-4.7,2.3-6c0,0,0-1.7-2.3-1.7c0,0-1.3-0.3-1-2.7c0,0,0.7-3.3-2.1-3.3"/>
		<path class="st26" d="M99.8,104.5c-0.3,1.3-0.3,2.7,1,5c0.3,1.3-1.3,1.3-0.3,2.7h5c0,0,1-0.7,0-1c-0.9-0.1-1.8-0.3-2.7-0.7
			c-0.7-2.7,0.3-3.7-0.3-6.3c0,0,0.7-1.3-0.3-2c0,0,0.7-4.2-0.3-6.3l-3.7,0.7C98.1,101.8,99.5,100.2,99.8,104.5z"/>
		<path class="st17" d="M97.7,97c0.9,0,1.8-0.1,2.7-0.3c0-1.7,0.3-4.5-2.7-4.2"/>
		<circle class="st26" cx="98.6" cy="81.2" r="0.2"/>
		<path class="st18" d="M100.8,84.5c-0.8,0.7-1.9,1.1-3,1"/>
		<path class="st24" d="M98.4,97l-0.5-4.5l1.6,4.3 M102.8,110.5c-1,0-1.8,0.7-2,1.7 M102.1,112.2c0,0-0.3-0.7,0.7-1.7 M103.5,110.8
			c-0.4,0.4-0.6,0.8-0.7,1.3 M103.8,112.2c0-0.5,0.3-0.9,0.7-1.2 M99.8,104.5c0.8-0.3,1.8-0.5,2.7-0.3 M102.2,97.2
			c-1.3,0.4-2.6,0.6-4,0.7 M98.3,98.8c1.4,0,2.7-0.2,4-0.7 M102.3,99.3c-1.2,0.5-2.5,0.7-3.8,0.6 M99,101.1c1.1,0,2.2-0.1,3.2-0.5
			 M102.1,101.8c-0.9,0.2-1.8,0.4-2.7,0.3 M99.8,103.2c0,0,1,0,1.3-0.7c0.2-0.4,0.6-0.5,1-0.4c0,0,0,0,0,0 M102.1,87.2
			c0,0-2-0.7-2-2.2 M99.5,85.3c0,0-0.7,1.5,2.2,3.2 M99.1,81.2c-0.3-0.2-0.6-0.2-0.9,0 M97.8,82.7c0.3,0.3,1,0,1,0.3"/>
		<path class="st26" d="M97.8,94.2c2.7,0,2.3,3.3,2.3,3.3c0.9,0,1.8-0.3,2.7-0.7c0,0-1-4-2-4.7l-3,0.3"/>
	</g>
	
		<path style="clip-path:url(#SVGID_00000125568472325217739910000013987696635138182554_);fill:#E8E7E7;stroke:#424242;stroke-width:0.5;stroke-linecap:round;stroke-linejoin:round;" d="
		M103.1,86.2c1.4,0.8,2.6,1.7,3.8,2.8c0,0,1.4,0.7,0,2.3l-3.8,1.9l-0.8,0.9c0,0,0.5,0.2-0.1,0.7c0,0-0.7,0.1-1.7-1.6
		c0,0-0.3-0.7,1-1l3-1.8c0,0-0.4-0.2,0-0.5l-2.8-1.1C101.9,87.7,102.4,86.8,103.1,86.2z"/>
	
		<path style="clip-path:url(#SVGID_00000125568472325217739910000013987696635138182554_);fill:#E8E7E7;stroke:#424242;stroke-width:0.75;stroke-linecap:round;stroke-linejoin:round;" d="
		M88.1,83.3l6.3-8c0.5-0.7,1.2-1.3,2-1.7c-0.1,0.8-0.5,1.6-1,2.3l-6.3,8.3"/>
	
		<path style="clip-path:url(#SVGID_00000125568472325217739910000013987696635138182554_);fill:#E8E7E7;stroke:#424242;stroke-width:0.75;stroke-linecap:round;stroke-linejoin:round;" d="
		M89.5,85.5c0,0-1.8-1.4-2.7-2.1l0.5-0.6l2.6,2.1L89.5,85.5z"/>
	
		<path style="clip-path:url(#SVGID_00000125568472325217739910000013987696635138182554_);fill:#E8E7E7;stroke:#424242;stroke-width:0.75;stroke-linecap:round;stroke-linejoin:round;" d="
		M99.8,81c-1.3-0.7-2.7-0.7-4,0"/>
	
		<path style="clip-path:url(#SVGID_00000125568472325217739910000013987696635138182554_);fill:none;stroke:#424242;stroke-width:0.25;stroke-miterlimit:10;" d="
		M97.6,83.4h0.3 M97.8,85.5v7 M97.3,83.2c0.3-0.1,0.7-0.1,1,0 M97.3,80.8c0,0,0.3,0,0.3,0.6v0.9c0,0-0.3,0.3,0.2,0.3
		c0.2,0,0.3-0.1,0.3-0.3 M106.9,89c-0.7,0.5-1.6,0.7-2.5,0.8 M105.6,91.8c-0.5-0.4-1-0.8-1.5-1.2 M104.4,90.2c0,0,2.5,1.4,2.5,1
		 M106,88.2c-0.5,0.7-1.2,1.2-1.9,1.4 M102.1,91.8c0.5,0.2,0.9,0.6,1,1.2 M94.1,76.7l-5.4,7 M91.1,88c0,0,1.3,1.3,1.3,2 M91.8,90.7
		c-0.2-0.8-0.5-1.6-1-2.3c0,0-0.3,2.7-1.3,2.7 M88.8,90.3c0.7-0.7,1.3-1.5,1.7-2.3 M86.8,84.6c0,0-0.3,0.7,0.7,0.7c0,0,2,0.3,0,1.7
		 M89.5,86.3c-0.4,0.6-1,1.1-1.7,1.3 M96.3,80.9c-0.2,1.3,0.5,3.1,1.5,3.1s1.7-1.8,1.5-3.1C98.3,80.5,97.3,80.5,96.3,80.9z"/>
	
		<circle style="clip-path:url(#SVGID_00000125568472325217739910000013987696635138182554_);fill:#E8E7E7;stroke:#424242;stroke-width:0.75;stroke-linecap:round;stroke-linejoin:round;" cx="86.1" cy="87" r="0.7"/>
	<path style="clip-path:url(#SVGID_00000125568472325217739910000013987696635138182554_);fill:#FFFFFF;" d="M80,99.6
		c-12.6,0-22.9,10.2-22.9,30.5c0,25.4,18.2,50.9,40.7,50.9s40.7-25.4,40.7-50.9c0-20.3-10.2-30.5-22.9-30.5
		c-6.9,0-13.5,3.1-17.8,8.5C93.5,102.8,86.9,99.6,80,99.6z"/>
	<path style="clip-path:url(#SVGID_00000125568472325217739910000013987696635138182554_);fill:#FFFFFF;" d="M30.4,112.8h134.7
		c3,0,5.5,2.4,5.5,5.5v44c0,3-2.4,5.5-5.5,5.5H30.4c-3,0-5.5-2.4-5.5-5.5v-44C25,115.3,27.4,112.8,30.4,112.8z"/>
	<g style="clip-path:url(#SVGID_00000125568472325217739910000013987696635138182554_);enable-background:new    ;">
		<text transform="matrix(1 0 0 1 54.24 160.5699)" class="st30 st31 st32">Włocławek</text>
	</g>
	<g style="clip-path:url(#SVGID_00000125568472325217739910000013987696635138182554_);enable-background:new    ;">
		<text transform="matrix(1 0 0 1 56.6 139.92)" class="st30 st31 st33">Mahiloŭ</text>
	</g>
	<path style="clip-path:url(#SVGID_00000125568472325217739910000013987696635138182554_);fill:#FFFFFF;" d="M150.6,0h29h16v16
		c0,7,0,14,0,21c-10.2,12.4-28.6,14.2-41,4S140.4,12.4,150.6,0z"/>
	<g style="clip-path:url(#SVGID_00000125568472325217739910000013987696635138182554_);enable-background:new    ;">
		<text transform="matrix(1 0 0 1 159.66 31.75)" class="st30 st31 st34">39</text>
	</g>
</g>
</svg>
