<svg id="Слой_1" data-name="Слой 1" xmlns="http://www.w3.org/2000/svg" xmlns:xlink="http://www.w3.org/1999/xlink" viewBox="0 0 195.59 280.63"><defs><style>.cls-1{fill:none;}.cls-19,.cls-2{fill:#3377bc;}.cls-3{clip-path:url(#clip-path);}.cls-18,.cls-4{fill:#ffdc24;}.cls-5{fill:#1a1a1a;}.cls-6{fill:#1f57a4;}.cls-7{fill:#f1ad11;}.cls-8{fill:#fff;}.cls-9{fill:#af1739;}.cls-10{fill:#eb5775;}.cls-11{fill:#badbe9;}.cls-12{fill:#8bb0cc;}.cls-13{fill:#f293a2;}.cls-14{fill:#3e3e3e;}.cls-15{fill:#595959;}.cls-16{fill:#797979;}.cls-17{fill:#eb5a53;}.cls-18{font-size:52.93px;}.cls-18,.cls-19{font-family:Impact;}.cls-19{font-size:20px;}</style><clipPath id="clip-path"><rect class="cls-1" x="-5.54" y="-8" width="213.74" height="298.44"/></clipPath></defs><rect class="cls-2" x="-37.2" y="-43.66" width="257.22" height="357.25"/><g class="cls-3"><path class="cls-4" d="M47.82,221.26c-3.53,0-6.48-1.93-8.75-5.73a32.08,32.08,0,0,1-3.16-7.84c-.43-1.53-.82-3.18-1.16-4.89a65,65,0,0,1-6.51.33c-2.15,0-4.33-.11-6.52-.33-.33,1.71-.72,3.36-1.15,4.89a32.08,32.08,0,0,1-3.16,7.84c-2.27,3.8-5.22,5.73-8.75,5.73s-6.48-1.93-8.75-5.73a32.08,32.08,0,0,1-3.16-7.84,71.68,71.68,0,0,1-2.36-14.06,65.05,65.05,0,0,1-28.33-36.14c-.41.29-.82.55-1.23.8a12.14,12.14,0,0,1-6.23,2,8.85,8.85,0,0,1-4.18-1.05c-3.12-1.66-4.81-4.75-5-9.17a32.28,32.28,0,0,1,.91-8.41,71.41,71.41,0,0,1,6.39-17.32c3-5.6,6.44-9.11,10.57-10.75l.62-.23a64.66,64.66,0,0,1,10-16.77,24,24,0,0,1-1.64-8.71A24.23,24.23,0,0,1-16,70.19c0-.51-.05-1-.05-1.49A24.14,24.14,0,0,1,8.06,44.59h.38a26.72,26.72,0,0,1,19.67-8.86h.19A26.65,26.65,0,0,1,48,44.6h.38A24.14,24.14,0,0,1,72.53,68.7c0,.49,0,1,0,1.49a24,24,0,0,1,6.08,26.38,65.07,65.07,0,0,1,13.16,26.58,33.4,33.4,0,0,1,3.63,4l.09-.21c1.93-4.66,4.27-8.06,7.12-10.34a67.25,67.25,0,0,1,22.32-33.89,48.72,48.72,0,0,1-12.62-27.14l-1.6-12.17,11.53,4.05c.38.12,3.4,1.07,7.33,1.95l-2.7-7.28,13.78,3.35a85.89,85.89,0,0,0,16,2.2c2.19.13,4.35.21,6.64.29,3.31.12,6.73.25,10.39.52,9.1.67,16.17,3.48,21,8.37a24.32,24.32,0,0,1,6.43,20.06,67.34,67.34,0,0,1,30.37,38.61,12.67,12.67,0,0,1,1.35.76c3.82,2.47,6.6,6.7,8.48,12.92a74.36,74.36,0,0,1,3,18.79,33.21,33.21,0,0,1-.78,8.66c-1.09,4.37-3.39,7.12-6.83,8.16a9,9,0,0,1-2.61.39,10.42,10.42,0,0,1-6-2.11A67.13,67.13,0,0,1,202,192.18a74.31,74.31,0,0,1-2.43,14.55,33.05,33.05,0,0,1-3.25,8.06c-2.32,3.88-5.31,5.84-8.91,5.84s-6.58-2-8.9-5.84a33.05,33.05,0,0,1-3.25-8.06c-.45-1.61-.86-3.35-1.21-5.16a65.16,65.16,0,0,1-13.68,0c-.35,1.81-.76,3.55-1.21,5.16a33.05,33.05,0,0,1-3.25,8.06c-2.32,3.88-5.32,5.84-8.91,5.84s-6.59-2-8.9-5.84a32.66,32.66,0,0,1-3.25-8.06,73.32,73.32,0,0,1-2.44-14.55,67.09,67.09,0,0,1-26.68-30.44,10.83,10.83,0,0,1-5.72,1.79,9.06,9.06,0,0,1-2.32-.3,13.6,13.6,0,0,1-4.66-1,24.71,24.71,0,0,1-3.56-1.79,65.76,65.76,0,0,1-27.35,33.24,71.68,71.68,0,0,1-2.36,14.06,32.08,32.08,0,0,1-3.16,7.84C54.3,219.33,51.35,221.26,47.82,221.26Z"/><path class="cls-4" d="M16.4,189.39c0,10.4-3.46,25.18-7.74,25.18S.91,199.79.91,189.39s4.58-12.47,7.75-12.47S16.4,179,16.4,189.39Zm0,0"/><path class="cls-5" d="M8.66,174.76A8.76,8.76,0,0,0,2,177.86c-2,2.35-3.2,6-3.2,11.53A67.45,67.45,0,0,0,1.1,206.47a28.42,28.42,0,0,0,2.69,6.74c1.09,1.82,2.56,3.52,4.87,3.52s3.78-1.7,4.87-3.52a28.42,28.42,0,0,0,2.69-6.74,67.45,67.45,0,0,0,2.35-17.08c0-5.51-1.21-9.18-3.2-11.53a8.76,8.76,0,0,0-6.71-3.1Zm0,4.32a4.16,4.16,0,0,1,3.41,1.57c1.09,1.3,2.17,3.86,2.17,8.74a64.24,64.24,0,0,1-2.18,15.91A25.13,25.13,0,0,1,9.82,211a4.43,4.43,0,0,1-1.16,1.38A4.43,4.43,0,0,1,7.5,211a25.13,25.13,0,0,1-2.24-5.69,64.24,64.24,0,0,1-2.18-15.91c0-4.88,1.08-7.44,2.17-8.74a4.16,4.16,0,0,1,3.41-1.57Zm0,0"/><path class="cls-4" d="M55.56,189.39c0,10.4-3.46,25.18-7.74,25.18s-7.75-14.78-7.75-25.18,4.58-12.47,7.75-12.47,7.74,2.07,7.74,12.47Zm0,0"/><path class="cls-5" d="M47.82,174.76a8.76,8.76,0,0,0-6.71,3.1c-2,2.35-3.2,6-3.2,11.53a67,67,0,0,0,2.35,17.08A28,28,0,0,0,43,213.21c1.09,1.82,2.55,3.52,4.87,3.52s3.78-1.7,4.87-3.52a28.42,28.42,0,0,0,2.69-6.74,67.45,67.45,0,0,0,2.35-17.08c0-5.51-1.22-9.18-3.2-11.53a8.77,8.77,0,0,0-6.71-3.1Zm0,4.32a4.16,4.16,0,0,1,3.41,1.57c1.09,1.3,2.17,3.86,2.17,8.74a63.78,63.78,0,0,1-2.19,15.91A24.71,24.71,0,0,1,49,211a4.43,4.43,0,0,1-1.16,1.38A4.43,4.43,0,0,1,46.66,211a25.13,25.13,0,0,1-2.24-5.69,64.25,64.25,0,0,1-2.19-15.91c0-4.88,1.08-7.44,2.18-8.74a4.16,4.16,0,0,1,3.41-1.57Zm0,0"/><path class="cls-2" d="M90.18,131.4c6.33,8.25,12.58,22.09,9.18,24.69s-15.14-7-21.47-15.26-4-12.68-1.45-14.61,7.41-3.07,13.74,5.18Zm0,0"/><path class="cls-5" d="M75.12,124.5a8.79,8.79,0,0,0-3.43,6.55c-.15,3.07,1.13,6.72,4.48,11.1a67.57,67.57,0,0,0,12.26,12.11A28.42,28.42,0,0,0,94.67,158c2,.78,4.17,1.24,6-.17s2-3.65,1.72-5.76a28.41,28.41,0,0,0-2-7,66.94,66.94,0,0,0-8.53-15c-3.35-4.37-6.55-6.55-9.55-7.2a8.81,8.81,0,0,0-7.22,1.62Zm2.64,3.43a4.17,4.17,0,0,1,3.66-.82c1.65.35,4.07,1.73,7,5.61a63.58,63.58,0,0,1,8,13.95,24.9,24.9,0,0,1,1.69,5.87,4.35,4.35,0,0,1-.08,1.8,4.5,4.5,0,0,1-1.76-.38A25.37,25.37,0,0,1,91,150.8,63.56,63.56,0,0,1,79.6,139.51c-3-3.87-3.67-6.56-3.59-8.25a4.16,4.16,0,0,1,1.75-3.33Zm0,0"/><path class="cls-5" d="M28.24,77.3A60.66,60.66,0,1,0,88.9,138,60.71,60.71,0,0,0,28.24,77.3Zm0,6.92A53.74,53.74,0,1,1-25.5,138,53.69,53.69,0,0,1,28.24,84.22Zm0,0"/><path class="cls-6" d="M85.44,138A57.21,57.21,0,1,1,68.68,97.51,57.18,57.18,0,0,1,85.44,138Zm0,0"/><path class="cls-2" d="M78.17,135a52.92,52.92,0,1,1-15.5-37.41A52.92,52.92,0,0,1,78.17,135Zm0,0"/><path class="cls-7" d="M-29,138a57.2,57.2,0,0,0,114.4,0Zm0,0"/><path class="cls-4" d="M-27.55,138A52.87,52.87,0,0,0,78,138Zm0,0"/><path class="cls-5" d="M28.24,79.89A58.07,58.07,0,1,0,86.3,138,58.08,58.08,0,0,0,28.24,79.89Zm0,1.73A56.34,56.34,0,1,1-28.09,138,56.32,56.32,0,0,1,28.24,81.62Zm0,0"/><path class="cls-8" d="M28.24,85.6A52.26,52.26,0,0,0-20.06,158,55.49,55.49,0,0,1,48.87,89.85,52.47,52.47,0,0,0,28.24,85.6Zm0,0"/><path class="cls-7" d="M83,138.17h-.22l-.06,0h-.09l-.08,0-.06,0-.06,0-.06,0-.05,0-.06,0a.1.1,0,0,1-.05,0l0,0,0,.05,0,0,0,.05,0,0,0,.05,0,.06a.1.1,0,0,0,0,0l0,.06,0,.06s0,0,0,.06a309063205124.67,309063205124.67,0,0,0,0,.12s0,0,0,.06,0,0,0,.07,0,0,0,.06,0,0,0,.07v.17s0,0,0,.06,0,0,0,.07,0,0,0,.06l0,.06h0v0l0,.08,0,.06a.14.14,0,0,0,0,.06l0,.06,0,.06a.1.1,0,0,1,0,0,369475445349.35,369475445349.35,0,0,0,.08.1l0,0,0,.05,0,0,.06,0a.1.1,0,0,0,0,0l0,0,.06,0,0,0,.06,0,.06,0,.06,0,.07,0h.7l.09,0,.06,0,.06,0,.05,0,.06,0,.06,0,.05,0,0,0,0,0,0,0,0-.05,0,0a.1.1,0,0,1,0-.05l0-.06,0,0,0-.06a.14.14,0,0,0,0-.06l0-.06s0,0,0-.06,0,0,0-.06,0,0,0-.06a.17.17,0,0,1,0-.07s0,0,0-.06a.2.2,0,0,1,0-.07v-.17a.15.15,0,0,1,0-.07s0,0,0-.06a.13.13,0,0,1,0-.06s0,0,0-.06h0v0a.19.19,0,0,0,0-.08l0-.06a.14.14,0,0,1,0-.06l0-.06,0-.06,0-.05,0,0,0-.05,0,0,0-.05-.05,0a186227543017.66,186227543017.66,0,0,0-.1-.08l0,0-.06,0-.06,0-.06,0,0,0-.07,0-.06,0H83Zm0,0"/><path class="cls-7" d="M83,138.17h-.22l-.06,0h-.09l-.08,0-.06,0-.06,0-.06,0-.05,0-.06,0a.1.1,0,0,1-.05,0l0,0,0,.05,0,0,0,.05,0,0,0,.05,0,.06a.1.1,0,0,0,0,0l0,.06,0,.06s0,0,0,.06a309063205124.67,309063205124.67,0,0,0,0,.12s0,0,0,.06,0,0,0,.07,0,0,0,.06,0,0,0,.07v.17s0,0,0,.06,0,0,0,.07,0,0,0,.06l0,.06h0v0l0,.08,0,.06a.14.14,0,0,0,0,.06l0,.06,0,.06a.1.1,0,0,1,0,0,369475445349.35,369475445349.35,0,0,0,.08.1l0,0,0,.05,0,0,.06,0a.1.1,0,0,0,0,0l0,0,.06,0,0,0,.06,0,.06,0,.06,0,.07,0h.7l.09,0,.06,0,.06,0,.05,0,.06,0,.06,0,.05,0,0,0,0,0,0,0,0,0a.1.1,0,0,1,0,0l0-.05,0-.06,0,0,0-.06a.14.14,0,0,0,0-.06l0-.06s0,0,0-.06,0,0,0-.06,0,0,0-.06a.15.15,0,0,1,0-.07s0,0,0-.06a.17.17,0,0,1,0-.07v-.17a.17.17,0,0,1,0-.07s0,0,0-.06a.15.15,0,0,1,0-.07s0,0,0-.05h0v0a.29.29,0,0,0,0-.09l0-.06,0,0,0-.06,0-.06,0-.05,0,0,0-.05,0,0,0-.05-.05,0a186227543017.66,186227543017.66,0,0,0-.1-.08l0,0-.06,0-.06,0-.06,0,0,0-.07,0-.06,0h-.06l-.06,0H83Zm0,0"/><path class="cls-7" d="M83,138.17h-.22l-.06,0h-.09l-.08,0-.06,0-.06,0-.06,0-.05,0-.06,0a.1.1,0,0,1-.05,0l0,0,0,.05,0,0,0,.05,0,0,0,.05,0,.06a.1.1,0,0,0,0,0l0,.06,0,.06s0,0,0,.06a309063205124.67,309063205124.67,0,0,0,0,.12s0,0,0,.06,0,0,0,.07,0,0,0,.06,0,0,0,.07v.17s0,0,0,.06,0,0,0,.07,0,0,0,.06l0,.06h0v0l0,.08,0,.06a.14.14,0,0,0,0,.06l0,.06,0,.06a.1.1,0,0,1,0,0,369475445349.35,369475445349.35,0,0,0,.08.1l0,0,0,.05,0,0,.06,0a.1.1,0,0,0,0,0l0,0,.06,0,0,0,.06,0,.06,0,.06,0,.07,0h.7l.09,0,.06,0,.06,0,.05,0,.06,0,.06,0,.05,0,0,0,0,0,0,0,0,0a.1.1,0,0,1,0,0l0-.05,0-.06,0,0,0-.06a.14.14,0,0,0,0-.06l0-.06s0,0,0-.06,0,0,0-.06,0,0,0-.06a.15.15,0,0,1,0-.07s0,0,0-.06a.17.17,0,0,1,0-.07v-.17a.17.17,0,0,1,0-.07s0,0,0-.06a.15.15,0,0,1,0-.07s0,0,0-.05h0v0a.29.29,0,0,0,0-.09l0-.06,0,0,0-.06,0-.06,0-.05,0,0,0-.05,0,0,0-.05-.05,0a186227543017.66,186227543017.66,0,0,0-.1-.08l0,0-.06,0-.06,0-.06,0,0,0-.07,0-.06,0h-.06l-.06,0H83Zm0,0"/><path class="cls-7" d="M83,138.17h-.22l-.06,0h-.09l-.08,0-.06,0-.06,0-.06,0-.05,0-.06,0a.1.1,0,0,1-.05,0l0,0,0,.05,0,0,0,.05,0,0,0,.05,0,.06a.1.1,0,0,0,0,0l0,.06,0,.06s0,0,0,.06a309063205124.67,309063205124.67,0,0,0,0,.12s0,0,0,.06,0,0,0,.07,0,0,0,.06,0,0,0,.07v.17s0,0,0,.06,0,0,0,.07,0,0,0,.06l0,.06h0v0l0,.08,0,.06a.14.14,0,0,0,0,.06l0,.06,0,.06a.1.1,0,0,1,0,0,369475445349.35,369475445349.35,0,0,0,.08.1l0,0,0,.05,0,0,.06,0a.1.1,0,0,0,0,0l0,0,.06,0,0,0,.06,0,.06,0,.06,0,.07,0h.7l.09,0,.06,0,.06,0,.05,0,.06,0,.06,0,.05,0,0,0,0,0,0,0,0,0a.1.1,0,0,1,0,0l0-.05,0-.06,0,0,0-.06a.14.14,0,0,0,0-.06l0-.06s0,0,0-.06,0,0,0-.06,0,0,0-.06a.15.15,0,0,1,0-.07s0,0,0-.06a.17.17,0,0,1,0-.07v-.17a.17.17,0,0,1,0-.07s0,0,0-.06a.15.15,0,0,1,0-.07s0,0,0-.05h0v0a.29.29,0,0,0,0-.09l0-.06,0,0,0-.06,0-.06,0-.05,0,0,0-.05,0,0,0-.05-.05,0a186227543017.66,186227543017.66,0,0,0-.1-.08l0,0-.06,0-.06,0-.06,0,0,0-.07,0-.06,0h-.06l-.06,0H83Zm0,0"/><path class="cls-7" d="M83,138.17h-.22l-.06,0h-.09l-.08,0-.06,0-.06,0-.06,0-.05,0-.06,0a.1.1,0,0,1-.05,0l0,0,0,.05,0,0,0,.05,0,0,0,.05,0,.06a.1.1,0,0,0,0,0l0,.06,0,.06s0,0,0,.06a309063205124.67,309063205124.67,0,0,0,0,.12s0,0,0,.06,0,0,0,.07,0,0,0,.06,0,0,0,.07v.17s0,0,0,.06,0,0,0,.07,0,0,0,.06l0,.06h0v0l0,.08,0,.06a.14.14,0,0,0,0,.06l0,.06,0,.06a.1.1,0,0,1,0,0,369475445349.35,369475445349.35,0,0,0,.08.1l0,0,0,.05,0,0,.06,0a.1.1,0,0,0,0,0l0,0,.06,0,0,0,.06,0,.06,0,.06,0,.07,0h.7l.09,0,.06,0,.06,0,.05,0,.06,0,.06,0,.05,0,0,0,0,0,0,0,0,0a.1.1,0,0,1,0,0l0-.05,0-.06,0,0,0-.06a.14.14,0,0,0,0-.06l0-.06s0,0,0-.06,0,0,0-.06,0,0,0-.06a.15.15,0,0,1,0-.07s0,0,0-.06a.17.17,0,0,1,0-.07v-.17a.17.17,0,0,1,0-.07s0,0,0-.06a.15.15,0,0,1,0-.07s0,0,0-.05h0v0a.29.29,0,0,0,0-.09l0-.06,0,0,0-.06,0-.06,0-.05,0,0,0-.05,0,0,0-.05-.05,0a186227543017.66,186227543017.66,0,0,0-.1-.08l0,0-.06,0-.06,0-.06,0,0,0-.07,0-.06,0h-.06l-.06,0H83Zm0,0"/><path class="cls-7" d="M83,138.17h-.22l-.06,0h-.09l-.08,0-.06,0-.06,0-.06,0-.05,0-.06,0a.1.1,0,0,1-.05,0l0,0,0,.05,0,0,0,.05,0,0,0,.05,0,.06a.1.1,0,0,0,0,0l0,.06,0,.06s0,0,0,.06a309063205124.67,309063205124.67,0,0,0,0,.12s0,0,0,.06,0,0,0,.07,0,0,0,.06,0,0,0,.07v.17s0,0,0,.06,0,0,0,.07,0,0,0,.06l0,.06h0v0l0,.08,0,.06a.14.14,0,0,0,0,.06l0,.06,0,.06a.1.1,0,0,1,0,0,369475445349.35,369475445349.35,0,0,0,.08.1l0,0,0,.05,0,0,.06,0a.1.1,0,0,0,0,0l0,0,.06,0,0,0,.06,0,.06,0,.06,0,.07,0h.7l.09,0,.06,0,.06,0,.05,0,.06,0,.06,0,.05,0,0,0,0,0,0,0,0,0a.1.1,0,0,1,0,0l0-.05,0-.06,0,0,0-.06a.14.14,0,0,0,0-.06l0-.06s0,0,0-.06,0,0,0-.06,0,0,0-.06a.15.15,0,0,1,0-.07s0,0,0-.06a.17.17,0,0,1,0-.07v-.17a.17.17,0,0,1,0-.07s0,0,0-.06a.15.15,0,0,1,0-.07s0,0,0-.05h0v0a.29.29,0,0,0,0-.09l0-.06,0,0,0-.06,0-.06,0-.05,0,0,0-.05,0,0,0-.05-.05,0a186227543017.66,186227543017.66,0,0,0-.1-.08l0,0-.06,0-.06,0-.06,0,0,0-.07,0-.06,0h-.06l-.06,0H83Zm0,0"/><path class="cls-7" d="M83,138.17h-.22l-.06,0h-.09l-.08,0-.06,0-.06,0-.06,0-.05,0-.06,0a.1.1,0,0,1-.05,0l0,0,0,.05,0,0,0,.05,0,0,0,.05,0,.06a.1.1,0,0,0,0,0l0,.06,0,.06s0,0,0,.06a309063205124.67,309063205124.67,0,0,0,0,.12s0,0,0,.06,0,0,0,.07,0,0,0,.06,0,0,0,.07v.17s0,0,0,.06,0,0,0,.07,0,0,0,.06l0,.06h0v0l0,.08,0,.06a.14.14,0,0,0,0,.06l0,.06,0,.06a.1.1,0,0,1,0,0,369475445349.35,369475445349.35,0,0,0,.08.1l0,0,0,.05,0,0,.06,0a.1.1,0,0,0,0,0l0,0,.06,0,0,0,.06,0,.06,0,.06,0,.07,0h.7l.09,0,.06,0,.06,0,.05,0,.06,0,.06,0,.05,0,0,0,0,0,0,0,0,0a.1.1,0,0,1,0,0l0-.05,0-.06,0,0,0-.06a.14.14,0,0,0,0-.06l0-.06s0,0,0-.06,0,0,0-.06,0,0,0-.06a.15.15,0,0,1,0-.07s0,0,0-.06a.17.17,0,0,1,0-.07v-.17a.17.17,0,0,1,0-.07s0,0,0-.06a.15.15,0,0,1,0-.07s0,0,0-.05h0v0a.29.29,0,0,0,0-.09l0-.06,0,0,0-.06,0-.06,0-.05,0,0,0-.05,0,0,0-.05-.05,0a186227543017.66,186227543017.66,0,0,0-.1-.08l0,0-.06,0-.06,0-.06,0,0,0-.07,0-.06,0h-.06l-.06,0H83Zm0,0"/><path class="cls-7" d="M83,138.17h-.22l-.06,0h-.09l-.08,0-.06,0-.06,0-.06,0-.05,0-.06,0a.1.1,0,0,1-.05,0l0,0,0,.05,0,0,0,.05,0,0,0,.05,0,.06a.1.1,0,0,0,0,0l0,.06,0,.06s0,0,0,.06a309063205124.67,309063205124.67,0,0,0,0,.12s0,0,0,.06,0,0,0,.07,0,0,0,.06,0,0,0,.07v.17s0,0,0,.06,0,0,0,.07,0,0,0,.06l0,.06h0v0l0,.08,0,.06a.14.14,0,0,0,0,.06l0,.06,0,.06a.1.1,0,0,1,0,0,369475445349.35,369475445349.35,0,0,0,.08.1l0,0,0,.05,0,0,.06,0a.1.1,0,0,0,0,0l0,0,.06,0,0,0,.06,0,.06,0,.06,0,.07,0h.7l.09,0,.06,0,.06,0,.05,0,.06,0,.06,0,.05,0,0,0,0,0,0,0,0,0a.1.1,0,0,1,0,0l0-.05,0-.06,0,0,0-.06a.14.14,0,0,0,0-.06l0-.06s0,0,0-.06,0,0,0-.06,0,0,0-.06a.15.15,0,0,1,0-.07s0,0,0-.06a.17.17,0,0,1,0-.07v-.17a.17.17,0,0,1,0-.07s0,0,0-.06a.15.15,0,0,1,0-.07s0,0,0-.05h0v0a.29.29,0,0,0,0-.09l0-.06,0,0,0-.06,0-.06,0-.05,0,0,0-.05,0,0,0-.05-.05,0a186227543017.66,186227543017.66,0,0,0-.1-.08l0,0-.06,0-.06,0-.06,0,0,0-.07,0-.06,0h-.06l-.06,0H83Zm0,0"/><path class="cls-7" d="M83,138.17h-.22l-.06,0h-.09l-.08,0-.06,0-.06,0-.06,0-.05,0-.06,0a.1.1,0,0,1-.05,0l0,0,0,.05,0,0,0,.05,0,0,0,.05,0,.06a.1.1,0,0,0,0,0l0,.06,0,.06s0,0,0,.06a309063205124.67,309063205124.67,0,0,0,0,.12s0,0,0,.06,0,0,0,.07,0,0,0,.06,0,0,0,.07v.17s0,0,0,.06,0,0,0,.07,0,0,0,.06l0,.06h0v0l0,.08,0,.06a.14.14,0,0,0,0,.06l0,.06,0,.06a.1.1,0,0,1,0,0,369475445349.35,369475445349.35,0,0,0,.08.1l0,0,0,.05,0,0,.06,0a.1.1,0,0,0,0,0l0,0,.06,0,0,0,.06,0,.06,0,.06,0,.07,0h.7l.09,0,.06,0,.06,0,.05,0,.06,0,.06,0,.05,0,0,0,0,0,0,0,0,0a.1.1,0,0,1,0,0l0-.05,0-.06,0,0,0-.06a.14.14,0,0,0,0-.06l0-.06s0,0,0-.06,0,0,0-.06,0,0,0-.06a.15.15,0,0,1,0-.07s0,0,0-.06a.17.17,0,0,1,0-.07v-.17a.17.17,0,0,1,0-.07s0,0,0-.06a.15.15,0,0,1,0-.07s0,0,0-.05h0v0a.29.29,0,0,0,0-.09l0-.06,0,0,0-.06,0-.06,0-.05,0,0,0-.05,0,0,0-.05-.05,0a186227543017.66,186227543017.66,0,0,0-.1-.08l0,0-.06,0-.06,0-.06,0,0,0-.07,0-.06,0h-.06l-.06,0H83Zm0,0"/><path class="cls-7" d="M83,138.17h-.22l-.06,0h-.09l-.08,0-.06,0-.06,0-.06,0-.05,0-.06,0a.1.1,0,0,1-.05,0l0,0,0,.05,0,0,0,.05,0,0,0,.05,0,.06a.1.1,0,0,0,0,0l0,.06,0,.06s0,0,0,.06a309063205124.67,309063205124.67,0,0,0,0,.12s0,0,0,.06,0,0,0,.07,0,0,0,.06,0,0,0,.07v.17s0,0,0,.06,0,0,0,.07,0,0,0,.06l0,.06h0v0l0,.08,0,.06a.14.14,0,0,0,0,.06l0,.06,0,.06a.1.1,0,0,1,0,0,369475445349.35,369475445349.35,0,0,0,.08.1l0,0,0,.05,0,0,.06,0a.1.1,0,0,0,0,0l0,0,.06,0,0,0,.06,0,.06,0,.06,0,.07,0h.7l.09,0,.06,0,.06,0,.05,0,.06,0,.06,0,.05,0,0,0,0,0,0,0,0,0a.1.1,0,0,1,0,0l0-.05,0-.06,0,0,0-.06a.14.14,0,0,0,0-.06l0-.06s0,0,0-.06,0,0,0-.06,0,0,0-.06a.15.15,0,0,1,0-.07s0,0,0-.06a.17.17,0,0,1,0-.07v-.17a.17.17,0,0,1,0-.07s0,0,0-.06a.15.15,0,0,1,0-.07s0,0,0-.05h0v0a.29.29,0,0,0,0-.09l0-.06,0,0,0-.06,0-.06,0-.05,0,0,0-.05,0,0,0-.05-.05,0a186227543017.66,186227543017.66,0,0,0-.1-.08l0,0-.06,0-.06,0-.06,0,0,0-.07,0-.06,0h-.06l-.06,0H83Zm0,0"/><path class="cls-7" d="M83,138.17h-.22l-.06,0h-.09l-.08,0-.06,0-.06,0-.06,0-.05,0-.06,0a.1.1,0,0,1-.05,0l0,0,0,.05,0,0,0,.05,0,0,0,.05,0,.06a.1.1,0,0,0,0,0l0,.06,0,.06s0,0,0,.06a309063205124.67,309063205124.67,0,0,0,0,.12s0,0,0,.06,0,0,0,.07,0,0,0,.06,0,0,0,.07v.17s0,0,0,.06,0,0,0,.07,0,0,0,.06,0,0,0,.06h0v0l0,.08,0,.06a.14.14,0,0,0,0,.06l0,.06,0,.06,0,0a369475445349.35,369475445349.35,0,0,0,.08.1l0,0,0,.05,0,0,.06,0a.1.1,0,0,0,0,0l0,0,.06,0,0,0,.06,0,.06,0,.06,0,.07,0h.7l.09,0,.06,0,.06,0,.05,0,.06,0,.06,0,.05,0,0,0,0,0,0,0,0-.05,0,0a.1.1,0,0,1,0-.05l0-.06,0,0,0-.06,0-.06a.14.14,0,0,1,0-.06s0,0,0-.06,0,0,0-.06,0,0,0-.06a.17.17,0,0,1,0-.07s0,0,0-.06a.2.2,0,0,1,0-.07v-.17a.15.15,0,0,1,0-.07s0,0,0-.06a.13.13,0,0,1,0-.06s0,0,0-.06h0v0a.19.19,0,0,0,0-.08l0-.06a.14.14,0,0,1,0-.06l0-.06,0-.06,0-.05,0,0,0-.05,0,0,0-.05-.05,0a186227543017.66,186227543017.66,0,0,0-.1-.08l0,0-.06,0-.06,0-.06,0,0,0-.07,0-.06,0H83Zm0,0"/><path class="cls-7" d="M83,138.17h-.22l-.06,0h-.09l-.08,0-.06,0-.06,0-.06,0-.05,0-.06,0a.1.1,0,0,1-.05,0l0,0,0,.05,0,0,0,.05,0,0,0,.05,0,.06a.1.1,0,0,0,0,0l0,.06,0,.06s0,0,0,.06a309063205124.67,309063205124.67,0,0,0,0,.12s0,0,0,.06,0,0,0,.07,0,0,0,.06,0,0,0,.07v.17s0,0,0,.06,0,0,0,.07,0,0,0,.06,0,0,0,.06h0v0l0,.08,0,.06a.14.14,0,0,0,0,.06l0,.06,0,.06,0,0a369475445349.35,369475445349.35,0,0,0,.08.1l0,0,0,.05,0,0,.06,0a.1.1,0,0,0,0,0l0,0,.06,0,0,0,.06,0,.06,0,.06,0,.07,0h.7l.09,0,.06,0,.06,0,.05,0,.06,0,.06,0,.05,0,0,0,0,0,0,0,0,0a615792408915.75,615792408915.75,0,0,0,.08-.1l0-.06,0,0,0-.06,0-.06a.14.14,0,0,1,0-.06s0,0,0-.06,0,0,0-.06,0,0,0-.06a.15.15,0,0,1,0-.07s0,0,0-.06a.17.17,0,0,1,0-.07v-.17a.17.17,0,0,1,0-.07s0,0,0-.06a.15.15,0,0,1,0-.07s0,0,0-.05h0v0a.29.29,0,0,0,0-.09l0-.06,0,0,0-.06,0-.06,0-.05,0,0,0-.05,0,0,0-.05-.05,0a186227543017.66,186227543017.66,0,0,0-.1-.08l0,0-.06,0-.06,0-.06,0,0,0-.07,0-.06,0h-.06l-.06,0H83Zm0,0"/><path class="cls-7" d="M83,138.17h-.22l-.06,0h-.09l-.08,0-.06,0-.06,0-.06,0-.05,0-.06,0a.1.1,0,0,1-.05,0l0,0,0,.05,0,0,0,.05,0,0,0,.05,0,.06a.1.1,0,0,0,0,0l0,.06,0,.06s0,0,0,.06a309063205124.67,309063205124.67,0,0,0,0,.12s0,0,0,.06,0,0,0,.07,0,0,0,.06,0,0,0,.07v.17s0,0,0,.06,0,0,0,.07,0,0,0,.06,0,0,0,.06h0v0l0,.08,0,.06a.14.14,0,0,0,0,.06l0,.06,0,.06,0,0a369475445349.35,369475445349.35,0,0,0,.08.1l0,0,0,.05,0,0,.06,0a.1.1,0,0,0,0,0l0,0,.06,0,0,0,.06,0,.06,0,.06,0,.07,0h.7l.09,0,.06,0,.06,0,.05,0,.06,0,.06,0,.05,0,0,0,0,0,0,0,0,0a615792408915.75,615792408915.75,0,0,0,.08-.1l0-.06,0,0,0-.06,0-.06a.14.14,0,0,1,0-.06s0,0,0-.06,0,0,0-.06,0,0,0-.06a.15.15,0,0,1,0-.07s0,0,0-.06a.17.17,0,0,1,0-.07v-.17a.17.17,0,0,1,0-.07s0,0,0-.06a.15.15,0,0,1,0-.07s0,0,0-.05h0v0a.29.29,0,0,0,0-.09l0-.06,0,0,0-.06,0-.06,0-.05,0,0,0-.05,0,0,0-.05-.05,0a186227543017.66,186227543017.66,0,0,0-.1-.08l0,0-.06,0-.06,0-.06,0,0,0-.07,0-.06,0h-.06l-.06,0H83Zm0,0"/><path class="cls-7" d="M83,138.17h-.22l-.06,0h-.09l-.08,0-.06,0-.06,0-.06,0-.05,0-.06,0a.1.1,0,0,1-.05,0l0,0,0,.05,0,0,0,.05,0,0,0,.05,0,.06a.1.1,0,0,0,0,0l0,.06,0,.06s0,0,0,.06a309063205124.67,309063205124.67,0,0,0,0,.12s0,0,0,.06,0,0,0,.07,0,0,0,.06,0,0,0,.07v.17s0,0,0,.06,0,0,0,.07,0,0,0,.06,0,0,0,.06h0v0l0,.08,0,.06a.14.14,0,0,0,0,.06l0,.06,0,.06,0,0a369475445349.35,369475445349.35,0,0,0,.08.1l0,0,0,.05,0,0,.06,0a.1.1,0,0,0,0,0l0,0,.06,0,0,0,.06,0,.06,0,.06,0,.07,0h.7l.09,0,.06,0,.06,0,.05,0,.06,0,.06,0,.05,0,0,0,0,0,0,0,0,0a615792408915.75,615792408915.75,0,0,0,.08-.1l0-.06,0,0,0-.06,0-.06a.14.14,0,0,1,0-.06s0,0,0-.06,0,0,0-.06,0,0,0-.06a.15.15,0,0,1,0-.07s0,0,0-.06a.17.17,0,0,1,0-.07v-.17a.17.17,0,0,1,0-.07s0,0,0-.06a.15.15,0,0,1,0-.07s0,0,0-.05h0v0a.29.29,0,0,0,0-.09l0-.06,0,0,0-.06,0-.06,0-.05,0,0,0-.05,0,0,0-.05-.05,0a186227543017.66,186227543017.66,0,0,0-.1-.08l0,0-.06,0-.06,0-.06,0,0,0-.07,0-.06,0h-.06l-.06,0H83Zm0,0"/><path class="cls-7" d="M83,138.17h-.22l-.06,0h-.09l-.08,0-.06,0-.06,0-.06,0-.05,0-.06,0a.1.1,0,0,1-.05,0l0,0,0,.05,0,0,0,.05,0,0,0,.05,0,.06a.1.1,0,0,0,0,0l0,.06,0,.06s0,0,0,.06a309063205124.67,309063205124.67,0,0,0,0,.12s0,0,0,.06,0,0,0,.07,0,0,0,.06,0,0,0,.07v.17s0,0,0,.06,0,0,0,.07,0,0,0,.06,0,0,0,.06h0v0l0,.08,0,.06a.14.14,0,0,0,0,.06l0,.06,0,.06,0,0a369475445349.35,369475445349.35,0,0,0,.08.1l0,0,0,.05,0,0,.06,0a.1.1,0,0,0,0,0l0,0,.06,0,0,0,.06,0,.06,0,.06,0,.07,0h.7l.09,0,.06,0,.06,0,.05,0,.06,0,.06,0,.05,0,0,0,0,0,0,0,0,0a615792408915.75,615792408915.75,0,0,0,.08-.1l0-.06,0,0,0-.06,0-.06a.14.14,0,0,1,0-.06s0,0,0-.06,0,0,0-.06,0,0,0-.06a.15.15,0,0,1,0-.07s0,0,0-.06a.17.17,0,0,1,0-.07v-.17a.17.17,0,0,1,0-.07s0,0,0-.06a.15.15,0,0,1,0-.07s0,0,0-.05h0v0a.29.29,0,0,0,0-.09l0-.06,0,0,0-.06,0-.06,0-.05,0,0,0-.05,0,0,0-.05-.05,0a186227543017.66,186227543017.66,0,0,0-.1-.08l0,0-.06,0-.06,0-.06,0,0,0-.07,0-.06,0h-.06l-.06,0H83Zm0,0"/><path class="cls-7" d="M83,138.17h-.22l-.06,0h-.09l-.08,0-.06,0-.06,0-.06,0-.05,0-.06,0a.1.1,0,0,1-.05,0l0,0,0,.05,0,0,0,.05,0,0,0,.05,0,.06a.1.1,0,0,0,0,0l0,.06,0,.06s0,0,0,.06a309063205124.67,309063205124.67,0,0,0,0,.12s0,0,0,.06,0,0,0,.07,0,0,0,.06,0,0,0,.07v.17s0,0,0,.06,0,0,0,.07,0,0,0,.06,0,0,0,.06h0v0l0,.08,0,.06a.14.14,0,0,0,0,.06l0,.06,0,.06,0,0a369475445349.35,369475445349.35,0,0,0,.08.1l0,0,0,.05,0,0,.06,0a.1.1,0,0,0,0,0l0,0,.06,0,0,0,.06,0,.06,0,.06,0,.07,0h.7l.09,0,.06,0,.06,0,.05,0,.06,0,.06,0,.05,0,0,0,0,0,0,0,0,0a615792408915.75,615792408915.75,0,0,0,.08-.1l0-.06,0,0,0-.06,0-.06a.14.14,0,0,1,0-.06s0,0,0-.06,0,0,0-.06,0,0,0-.06a.15.15,0,0,1,0-.07s0,0,0-.06a.17.17,0,0,1,0-.07v-.17a.17.17,0,0,1,0-.07s0,0,0-.06a.15.15,0,0,1,0-.07s0,0,0-.05h0v0a.29.29,0,0,0,0-.09l0-.06,0,0,0-.06,0-.06,0-.05,0,0,0-.05,0,0,0-.05-.05,0a186227543017.66,186227543017.66,0,0,0-.1-.08l0,0-.06,0-.06,0-.06,0,0,0-.07,0-.06,0h-.06l-.06,0H83Zm0,0"/><path class="cls-7" d="M83,138.17h-.22l-.06,0h-.09l-.08,0-.06,0-.06,0-.06,0-.05,0-.06,0a.1.1,0,0,1-.05,0l0,0,0,.05,0,0,0,.05,0,0,0,.05,0,.06a.1.1,0,0,0,0,0l0,.06,0,.06s0,0,0,.06a309063205124.67,309063205124.67,0,0,0,0,.12s0,0,0,.06,0,0,0,.07,0,0,0,.06,0,0,0,.07v.17s0,0,0,.06,0,0,0,.07,0,0,0,.06,0,0,0,.06h0v0l0,.08,0,.06a.14.14,0,0,0,0,.06l0,.06,0,.06,0,0a369475445349.35,369475445349.35,0,0,0,.08.1l0,0,0,.05,0,0,.06,0a.1.1,0,0,0,0,0l0,0,.06,0,0,0,.06,0,.06,0,.06,0,.07,0h.7l.09,0,.06,0,.06,0,.05,0,.06,0,.06,0,.05,0,0,0,0,0,0,0,0,0a615792408915.75,615792408915.75,0,0,0,.08-.1l0-.06,0,0,0-.06,0-.06a.14.14,0,0,1,0-.06s0,0,0-.06,0,0,0-.06,0,0,0-.06a.15.15,0,0,1,0-.07s0,0,0-.06a.17.17,0,0,1,0-.07v-.17a.17.17,0,0,1,0-.07s0,0,0-.06a.15.15,0,0,1,0-.07s0,0,0-.05h0v0a.29.29,0,0,0,0-.09l0-.06,0,0,0-.06,0-.06,0-.05,0,0,0-.05,0,0,0-.05-.05,0a186227543017.66,186227543017.66,0,0,0-.1-.08l0,0-.06,0-.06,0-.06,0,0,0-.07,0-.06,0h-.06l-.06,0H83Zm0,0"/><path class="cls-7" d="M83,138.17h-.22l-.06,0h-.09l-.08,0-.06,0-.06,0-.06,0-.05,0-.06,0a.1.1,0,0,1-.05,0l0,0,0,.05,0,0,0,.05,0,0,0,.05,0,.06a.1.1,0,0,0,0,0l0,.06,0,.06s0,0,0,.06a309063205124.67,309063205124.67,0,0,0,0,.12s0,0,0,.06,0,0,0,.07,0,0,0,.06,0,0,0,.07v.17s0,0,0,.06,0,0,0,.07,0,0,0,.06,0,0,0,.06h0v0l0,.08,0,.06a.14.14,0,0,0,0,.06l0,.06,0,.06,0,0a369475445349.35,369475445349.35,0,0,0,.08.1l0,0,0,.05,0,0,.06,0a.1.1,0,0,0,0,0l0,0,.06,0,0,0,.06,0,.06,0,.06,0,.07,0h.7l.09,0,.06,0,.06,0,.05,0,.06,0,.06,0,.05,0,0,0,0,0,0,0,0,0a615792408915.75,615792408915.75,0,0,0,.08-.1l0-.06,0,0,0-.06,0-.06a.14.14,0,0,1,0-.06s0,0,0-.06,0,0,0-.06,0,0,0-.06a.15.15,0,0,1,0-.07s0,0,0-.06a.17.17,0,0,1,0-.07v-.17a.17.17,0,0,1,0-.07s0,0,0-.06a.15.15,0,0,1,0-.07s0,0,0-.05h0v0a.29.29,0,0,0,0-.09l0-.06,0,0,0-.06,0-.06,0-.05,0,0,0-.05,0,0,0-.05-.05,0a186227543017.66,186227543017.66,0,0,0-.1-.08l0,0-.06,0-.06,0-.06,0,0,0-.07,0-.06,0h-.06l-.06,0H83Zm0,0"/><path class="cls-7" d="M83,138.17h-.22l-.06,0h-.09l-.08,0-.06,0-.06,0-.06,0-.05,0-.06,0a.1.1,0,0,1-.05,0l0,0,0,.05,0,0,0,.05,0,0,0,.05,0,.06a.1.1,0,0,0,0,0l0,.06,0,.06s0,0,0,.06a309063205124.67,309063205124.67,0,0,0,0,.12s0,0,0,.06,0,0,0,.07,0,0,0,.06,0,0,0,.07v.17s0,0,0,.06,0,0,0,.07,0,0,0,.06,0,0,0,.06h0v0l0,.08,0,.06a.14.14,0,0,0,0,.06l0,.06,0,.06,0,0a369475445349.35,369475445349.35,0,0,0,.08.1l0,0,0,.05,0,0,.06,0a.1.1,0,0,0,0,0l0,0,.06,0,0,0,.06,0,.06,0,.06,0,.07,0h.7l.09,0,.06,0,.06,0,.05,0,.06,0,.06,0,.05,0,0,0,0,0,0,0,0,0a615792408915.75,615792408915.75,0,0,0,.08-.1l0-.06,0,0,0-.06,0-.06a.14.14,0,0,1,0-.06s0,0,0-.06,0,0,0-.06,0,0,0-.06a.15.15,0,0,1,0-.07s0,0,0-.06a.17.17,0,0,1,0-.07v-.17a.17.17,0,0,1,0-.07s0,0,0-.06a.15.15,0,0,1,0-.07s0,0,0-.05h0v0a.29.29,0,0,0,0-.09l0-.06,0,0,0-.06,0-.06,0-.05,0,0,0-.05,0,0,0-.05-.05,0a186227543017.66,186227543017.66,0,0,0-.1-.08l0,0-.06,0-.06,0-.06,0,0,0-.07,0-.06,0h-.06l-.06,0H83Zm0,0"/><path class="cls-7" d="M83,138.17h-.22l-.06,0h-.09l-.08,0-.06,0-.06,0-.06,0-.05,0-.06,0a.1.1,0,0,1-.05,0l0,0,0,.05,0,0,0,.05,0,0,0,.05,0,.06a.1.1,0,0,0,0,0l0,.06,0,.06s0,0,0,.06a309063205124.67,309063205124.67,0,0,0,0,.12s0,0,0,.06,0,0,0,.07,0,0,0,.06,0,0,0,.07v.17s0,0,0,.06,0,0,0,.07,0,0,0,.06,0,0,0,.06h0v0l0,.08,0,.06a.14.14,0,0,0,0,.06l0,.06,0,.06,0,0a369475445349.35,369475445349.35,0,0,0,.08.1l0,0,0,.05,0,0,.06,0a.1.1,0,0,0,0,0l0,0,.06,0,0,0,.06,0,.06,0,.06,0,.07,0h.7l.09,0,.06,0,.06,0,.05,0,.06,0,.06,0,.05,0,0,0,0,0,0,0,0,0a615792408915.75,615792408915.75,0,0,0,.08-.1l0-.06,0,0,0-.06,0-.06a.14.14,0,0,1,0-.06s0,0,0-.06,0,0,0-.06,0,0,0-.06a.15.15,0,0,1,0-.07s0,0,0-.06a.17.17,0,0,1,0-.07v-.17a.17.17,0,0,1,0-.07s0,0,0-.06a.15.15,0,0,1,0-.07s0,0,0-.05h0v0a.29.29,0,0,0,0-.09l0-.06,0,0,0-.06,0-.06,0-.05,0,0,0-.05,0,0,0-.05-.05,0a186227543017.66,186227543017.66,0,0,0-.1-.08l0,0-.06,0-.06,0-.06,0,0,0-.07,0-.06,0h-.06l-.06,0H83Zm0,0"/><path class="cls-7" d="M83,138.17h-.22l-.06,0h-.09l-.08,0-.06,0-.06,0-.06,0-.05,0-.06,0a.1.1,0,0,1-.05,0l0,0,0,.05,0,0,0,.05,0,0,0,.05,0,.06a.1.1,0,0,0,0,0l0,.06,0,.06s0,0,0,.06a309063205124.67,309063205124.67,0,0,0,0,.12s0,0,0,.06,0,0,0,.07,0,0,0,.06,0,0,0,.07v.17s0,0,0,.06,0,0,0,.07,0,0,0,.06,0,0,0,.06h0v0l0,.08,0,.06a.14.14,0,0,0,0,.06l0,.06,0,.06,0,0a369475445349.35,369475445349.35,0,0,0,.08.1l0,0,0,.05,0,0,.06,0a.1.1,0,0,0,0,0l0,0,.06,0,0,0,.06,0,.06,0,.06,0,.07,0h.7l.09,0,.06,0,.06,0,.05,0,.06,0,.06,0,.05,0,0,0,0,0,0,0,0-.05,0,0a.1.1,0,0,1,0-.05l0-.06,0,0,0-.06,0-.06a.14.14,0,0,1,0-.06s0,0,0-.06,0,0,0-.06,0,0,0-.06a.17.17,0,0,1,0-.07s0,0,0-.06a.2.2,0,0,1,0-.07v-.17a.15.15,0,0,1,0-.07s0,0,0-.06a.13.13,0,0,1,0-.06s0,0,0-.06h0v0a.19.19,0,0,0,0-.08l0-.06a.14.14,0,0,1,0-.06l0-.06,0-.06,0-.05,0,0,0-.05,0,0,0-.05-.05,0a186227543017.66,186227543017.66,0,0,0-.1-.08l0,0-.06,0-.06,0-.06,0,0,0-.07,0-.06,0H83Zm0,0"/><path class="cls-7" d="M83,138.17h-.22l-.06,0h-.09l-.08,0-.06,0-.06,0-.06,0-.05,0-.06,0a.1.1,0,0,1-.05,0l0,0,0,.05,0,0,0,.05,0,0,0,.05,0,.06a.1.1,0,0,0,0,0l0,.06,0,.06s0,0,0,.06a309063205124.67,309063205124.67,0,0,0,0,.12s0,0,0,.06,0,0,0,.07,0,0,0,.06,0,0,0,.07v.17s0,0,0,.06,0,0,0,.07,0,0,0,.06,0,0,0,.06h0v0l0,.08,0,.06a.14.14,0,0,0,0,.06l0,.06,0,.06,0,0a369475445349.35,369475445349.35,0,0,0,.08.1l0,0,0,.05,0,0,.06,0a.1.1,0,0,0,0,0l0,0,.06,0,0,0,.06,0,.06,0,.06,0,.07,0h.7l.09,0,.06,0,.06,0,.05,0,.06,0,.06,0,.05,0,0,0,0,0,0,0,0,0a615792408915.75,615792408915.75,0,0,0,.08-.1l0-.06,0,0,0-.06,0-.06a.14.14,0,0,1,0-.06s0,0,0-.06,0,0,0-.06,0,0,0-.06a.15.15,0,0,1,0-.07s0,0,0-.06a.17.17,0,0,1,0-.07v-.17a.17.17,0,0,1,0-.07s0,0,0-.06a.15.15,0,0,1,0-.07s0,0,0-.05h0v0a.29.29,0,0,0,0-.09l0-.06,0,0,0-.06,0-.06,0-.05,0,0,0-.05,0,0,0-.05-.05,0a186227543017.66,186227543017.66,0,0,0-.1-.08l0,0-.06,0-.06,0-.06,0,0,0-.07,0-.06,0h-.06l-.06,0H83Zm0,0"/><path class="cls-7" d="M83,138.17h-.22l-.06,0h-.09l-.08,0-.06,0-.06,0-.06,0-.05,0-.06,0a.1.1,0,0,1-.05,0l0,0,0,.05,0,0,0,.05,0,0,0,.05,0,.06a.1.1,0,0,0,0,0l0,.06,0,.06s0,0,0,.06a309063205124.67,309063205124.67,0,0,0,0,.12s0,0,0,.06,0,0,0,.07,0,0,0,.06,0,0,0,.07v.17s0,0,0,.06,0,0,0,.07,0,0,0,.06,0,0,0,.06h0v0l0,.08,0,.06a.14.14,0,0,0,0,.06l0,.06,0,.06,0,0a369475445349.35,369475445349.35,0,0,0,.08.1l0,0,0,.05,0,0,.06,0a.1.1,0,0,0,0,0l0,0,.06,0,0,0,.06,0,.06,0,.06,0,.07,0h.7l.09,0,.06,0,.06,0,.05,0,.06,0,.06,0,.05,0,0,0,0,0,0,0,0,0a615792408915.75,615792408915.75,0,0,0,.08-.1l0-.06,0,0,0-.06,0-.06a.14.14,0,0,1,0-.06s0,0,0-.06,0,0,0-.06,0,0,0-.06a.15.15,0,0,1,0-.07s0,0,0-.06a.17.17,0,0,1,0-.07v-.17a.17.17,0,0,1,0-.07s0,0,0-.06a.15.15,0,0,1,0-.07s0,0,0-.05h0v0a.29.29,0,0,0,0-.09l0-.06,0,0,0-.06,0-.06,0-.05,0,0,0-.05,0,0,0-.05-.05,0a186227543017.66,186227543017.66,0,0,0-.1-.08l0,0-.06,0-.06,0-.06,0,0,0-.07,0-.06,0h-.06l-.06,0H83Zm0,0"/><path class="cls-7" d="M83,138.17h-.22l-.06,0h-.09l-.08,0-.06,0-.06,0-.06,0-.05,0-.06,0a.1.1,0,0,1-.05,0l0,0,0,.05,0,0,0,.05,0,0,0,.05,0,.06a.1.1,0,0,0,0,0l0,.06,0,.06s0,0,0,.06a309063205124.67,309063205124.67,0,0,0,0,.12s0,0,0,.06,0,0,0,.07,0,0,0,.06,0,0,0,.07v.17s0,0,0,.06,0,0,0,.07,0,0,0,.06,0,0,0,.06h0v0l0,.08,0,.06a.14.14,0,0,0,0,.06l0,.06,0,.06,0,0a369475445349.35,369475445349.35,0,0,0,.08.1l0,0,0,.05,0,0,.06,0a.1.1,0,0,0,0,0l0,0,.06,0,0,0,.06,0,.06,0,.06,0,.07,0h.7l.09,0,.06,0,.06,0,.05,0,.06,0,.06,0,.05,0,0,0,0,0,0,0,0,0a615792408915.75,615792408915.75,0,0,0,.08-.1l0-.06,0,0,0-.06,0-.06a.14.14,0,0,1,0-.06s0,0,0-.06,0,0,0-.06,0,0,0-.06a.15.15,0,0,1,0-.07s0,0,0-.06a.17.17,0,0,1,0-.07v-.17a.17.17,0,0,1,0-.07s0,0,0-.06a.15.15,0,0,1,0-.07s0,0,0-.05h0v0a.29.29,0,0,0,0-.09l0-.06,0,0,0-.06,0-.06,0-.05,0,0,0-.05,0,0,0-.05-.05,0a186227543017.66,186227543017.66,0,0,0-.1-.08l0,0-.06,0-.06,0-.06,0,0,0-.07,0-.06,0h-.06l-.06,0H83Zm0,0"/><path class="cls-7" d="M83,138.17h-.22l-.06,0h-.09l-.08,0-.06,0-.06,0-.06,0-.05,0-.06,0a.1.1,0,0,1-.05,0l0,0,0,.05,0,0,0,.05,0,0,0,.05,0,.06a.1.1,0,0,0,0,0l0,.06,0,.06s0,0,0,.06a309063205124.67,309063205124.67,0,0,0,0,.12s0,0,0,.06,0,0,0,.07,0,0,0,.06,0,0,0,.07v.17s0,0,0,.06,0,0,0,.07,0,0,0,.06,0,0,0,.06h0v0l0,.08,0,.06a.14.14,0,0,0,0,.06l0,.06,0,.06,0,0a369475445349.35,369475445349.35,0,0,0,.08.1l0,0,0,.05,0,0,.06,0a.1.1,0,0,0,0,0l0,0,.06,0,0,0,.06,0,.06,0,.06,0,.07,0h.7l.09,0,.06,0,.06,0,.05,0,.06,0,.06,0,.05,0,0,0,0,0,0,0,0,0a615792408915.75,615792408915.75,0,0,0,.08-.1l0-.06,0,0,0-.06,0-.06a.14.14,0,0,1,0-.06s0,0,0-.06,0,0,0-.06,0,0,0-.06a.15.15,0,0,1,0-.07s0,0,0-.06a.17.17,0,0,1,0-.07v-.17a.17.17,0,0,1,0-.07s0,0,0-.06a.15.15,0,0,1,0-.07s0,0,0-.05h0v0a.29.29,0,0,0,0-.09l0-.06,0,0,0-.06,0-.06,0-.05,0,0,0-.05,0,0,0-.05-.05,0a186227543017.66,186227543017.66,0,0,0-.1-.08l0,0-.06,0-.06,0-.06,0,0,0-.07,0-.06,0h-.06l-.06,0H83Zm0,0"/><path class="cls-7" d="M83,138.17h-.22l-.06,0h-.09l-.08,0-.06,0-.06,0-.06,0-.05,0-.06,0a.1.1,0,0,1-.05,0l0,0,0,.05,0,0,0,.05,0,0,0,.05,0,.06a.1.1,0,0,0,0,0l0,.06,0,.06s0,0,0,.06a309063205124.67,309063205124.67,0,0,0,0,.12s0,0,0,.06,0,0,0,.07,0,0,0,.06,0,0,0,.07v.17s0,0,0,.06,0,0,0,.07,0,0,0,.06,0,0,0,.06h0v0l0,.08,0,.06a.14.14,0,0,0,0,.06l0,.06,0,.06,0,0a369475445349.35,369475445349.35,0,0,0,.08.1l0,0,0,.05,0,0,.06,0a.1.1,0,0,0,0,0l0,0,.06,0,0,0,.06,0,.06,0,.06,0,.07,0h.7l.09,0,.06,0,.06,0,.05,0,.06,0,.06,0,.05,0,0,0,0,0,0,0,0,0a615792408915.75,615792408915.75,0,0,0,.08-.1l0-.06,0,0,0-.06,0-.06a.14.14,0,0,1,0-.06s0,0,0-.06,0,0,0-.06,0,0,0-.06a.15.15,0,0,1,0-.07s0,0,0-.06a.17.17,0,0,1,0-.07v-.17a.17.17,0,0,1,0-.07s0,0,0-.06a.15.15,0,0,1,0-.07s0,0,0-.05h0v0a.29.29,0,0,0,0-.09l0-.06,0,0,0-.06,0-.06,0-.05,0,0,0-.05,0,0,0-.05-.05,0a186227543017.66,186227543017.66,0,0,0-.1-.08l0,0-.06,0-.06,0-.06,0,0,0-.07,0-.06,0h-.06l-.06,0H83Zm0,0"/><path class="cls-7" d="M83,138.17h-.22l-.06,0h-.09l-.08,0-.06,0-.06,0-.06,0-.05,0-.06,0a.1.1,0,0,1-.05,0l0,0,0,.05,0,0,0,.05,0,0,0,.05,0,.06a.1.1,0,0,0,0,0l0,.06,0,.06s0,0,0,.06a309063205124.67,309063205124.67,0,0,0,0,.12s0,0,0,.06,0,0,0,.07,0,0,0,.06,0,0,0,.07v.17s0,0,0,.06,0,0,0,.07,0,0,0,.06,0,0,0,.06h0v0l0,.08,0,.06a.14.14,0,0,0,0,.06l0,.06,0,.06,0,0a369475445349.35,369475445349.35,0,0,0,.08.1l0,0,0,.05,0,0,.06,0a.1.1,0,0,0,0,0l0,0,.06,0,0,0,.06,0,.06,0,.06,0,.07,0h.7l.09,0,.06,0,.06,0,.05,0,.06,0,.06,0,.05,0,0,0,0,0,0,0,0,0a615792408915.75,615792408915.75,0,0,0,.08-.1l0-.06,0,0,0-.06,0-.06a.14.14,0,0,1,0-.06s0,0,0-.06,0,0,0-.06,0,0,0-.06a.15.15,0,0,1,0-.07s0,0,0-.06a.17.17,0,0,1,0-.07v-.17a.17.17,0,0,1,0-.07s0,0,0-.06a.15.15,0,0,1,0-.07s0,0,0-.05h0v0a.29.29,0,0,0,0-.09l0-.06,0,0,0-.06,0-.06,0-.05,0,0,0-.05,0,0,0-.05-.05,0a186227543017.66,186227543017.66,0,0,0-.1-.08l0,0-.06,0-.06,0-.06,0,0,0-.07,0-.06,0h-.06l-.06,0H83Zm0,0"/><path class="cls-7" d="M83,138.17h-.22l-.06,0h-.09l-.08,0-.06,0-.06,0-.06,0-.05,0-.06,0a.1.1,0,0,1-.05,0l0,0,0,.05,0,0,0,.05,0,0,0,.05,0,.06a.1.1,0,0,0,0,0l0,.06,0,.06s0,0,0,.06a309063205124.67,309063205124.67,0,0,0,0,.12s0,0,0,.06,0,0,0,.07,0,0,0,.06,0,0,0,.07v.17s0,0,0,.06,0,0,0,.07,0,0,0,.06,0,0,0,.06h0v0l0,.08,0,.06a.14.14,0,0,0,0,.06l0,.06,0,.06,0,0a369475445349.35,369475445349.35,0,0,0,.08.1l0,0,0,.05,0,0,.06,0a.1.1,0,0,0,0,0l0,0,.06,0,0,0,.06,0,.06,0,.06,0,.07,0h.7l.09,0,.06,0,.06,0,.05,0,.06,0,.06,0,.05,0,0,0,0,0,0,0,0,0a615792408915.75,615792408915.75,0,0,0,.08-.1l0-.06,0,0,0-.06,0-.06a.14.14,0,0,1,0-.06s0,0,0-.06,0,0,0-.06,0,0,0-.06a.15.15,0,0,1,0-.07s0,0,0-.06a.17.17,0,0,1,0-.07v-.17a.17.17,0,0,1,0-.07s0,0,0-.06a.15.15,0,0,1,0-.07s0,0,0-.05h0v0a.29.29,0,0,0,0-.09l0-.06,0,0,0-.06,0-.06,0-.05,0,0,0-.05,0,0,0-.05-.05,0a186227543017.66,186227543017.66,0,0,0-.1-.08l0,0-.06,0-.06,0-.06,0,0,0-.07,0-.06,0h-.06l-.06,0H83Zm0,0"/><path class="cls-7" d="M83,138.17h-.22l-.06,0h-.09l-.08,0-.06,0-.06,0-.06,0-.05,0-.06,0a.1.1,0,0,1-.05,0l0,0,0,.05,0,0,0,.05,0,0,0,.05,0,.06a.1.1,0,0,0,0,0l0,.06,0,.06s0,0,0,.06a309063205124.67,309063205124.67,0,0,0,0,.12s0,0,0,.06,0,0,0,.07,0,0,0,.06,0,0,0,.07v.17s0,0,0,.06,0,0,0,.07,0,0,0,.06,0,0,0,.06h0v0l0,.08,0,.06a.14.14,0,0,0,0,.06l0,.06,0,.06,0,0a369475445349.35,369475445349.35,0,0,0,.08.1l0,0,0,.05,0,0,.06,0a.1.1,0,0,0,0,0l0,0,.06,0,0,0,.06,0,.06,0,.06,0,.07,0h.7l.09,0,.06,0,.06,0,.05,0,.06,0,.06,0,.05,0,0,0,0,0,0,0,0,0a615792408915.75,615792408915.75,0,0,0,.08-.1l0-.06,0,0,0-.06,0-.06a.14.14,0,0,1,0-.06s0,0,0-.06,0,0,0-.06,0,0,0-.06a.15.15,0,0,1,0-.07s0,0,0-.06a.17.17,0,0,1,0-.07v-.17a.17.17,0,0,1,0-.07s0,0,0-.06a.15.15,0,0,1,0-.07s0,0,0-.05h0v0a.29.29,0,0,0,0-.09l0-.06,0,0,0-.06,0-.06,0-.05,0,0,0-.05,0,0,0-.05-.05,0a186227543017.66,186227543017.66,0,0,0-.1-.08l0,0-.06,0-.06,0-.06,0,0,0-.07,0-.06,0h-.06l-.06,0H83Zm0,0"/><path class="cls-7" d="M83,138.17h-.22l-.06,0h-.09l-.08,0-.06,0-.06,0-.06,0-.05,0-.06,0a.1.1,0,0,1-.05,0l0,0,0,.05,0,0,0,.05,0,0,0,.05,0,.06a.1.1,0,0,0,0,0l0,.06,0,.06s0,0,0,.06a309063205124.67,309063205124.67,0,0,0,0,.12s0,0,0,.06,0,0,0,.07,0,0,0,.06,0,0,0,.07v.17s0,0,0,.06,0,0,0,.07,0,0,0,.06,0,0,0,.06h0v0l0,.08,0,.06a.14.14,0,0,0,0,.06l0,.06,0,.06,0,0a369475445349.35,369475445349.35,0,0,0,.08.1l0,0,0,.05,0,0,.06,0a.1.1,0,0,0,0,0l0,0,.06,0,0,0,.06,0,.06,0,.06,0,.07,0h.7l.09,0,.06,0,.06,0,.05,0,.06,0,.06,0,.05,0,0,0,0,0,0,0,0,0a615792408915.75,615792408915.75,0,0,0,.08-.1l0-.06,0,0,0-.06,0-.06a.14.14,0,0,1,0-.06s0,0,0-.06,0,0,0-.06,0,0,0-.06a.15.15,0,0,1,0-.07s0,0,0-.06a.17.17,0,0,1,0-.07v-.17a.17.17,0,0,1,0-.07s0,0,0-.06a.15.15,0,0,1,0-.07s0,0,0-.05h0v0a.29.29,0,0,0,0-.09l0-.06,0,0,0-.06,0-.06,0-.05,0,0,0-.05,0,0,0-.05-.05,0a186227543017.66,186227543017.66,0,0,0-.1-.08l0,0-.06,0-.06,0-.06,0,0,0-.07,0-.06,0h-.06l-.06,0H83Zm0,0"/><path class="cls-9" d="M15.24,145a2.71,2.71,0,0,0-2.71,2.71v3.06a15.71,15.71,0,0,0,31.42,0v-3.06A2.71,2.71,0,0,0,41.24,145Zm0,0"/><path class="cls-10" d="M28.24,155.73a15.67,15.67,0,0,0-11.84,5.38,15.71,15.71,0,0,0,23.67,0,15.65,15.65,0,0,0-11.83-5.38Zm0,0"/><path class="cls-8" d="M15.24,145a2.71,2.71,0,0,0-2.71,2.71v2.74a36.21,36.21,0,0,0,31.42,0v-2.75A2.71,2.71,0,0,0,41.24,145Zm0,0"/><path class="cls-11" d="M15.24,145a2.71,2.71,0,0,0-2.71,2.71v2.74A37,37,0,0,0,18,152.52c-1.07-.73-1.28-1.73-1.28-3.3V145Zm0,0"/><path class="cls-11" d="M35.52,145v4.21c0,2.12-.54,3.95-2.36,4.44A36.66,36.66,0,0,0,44,150.47v-2.75A2.71,2.71,0,0,0,41.24,145Zm0,0"/><path class="cls-12" d="M41.24,145A2.71,2.71,0,0,1,44,147.72v2.74a37,37,0,0,1-5.49,2.06c1.07-.73,1.28-1.73,1.28-3.3V145Zm0,0"/><path class="cls-5" d="M15.24,144.15a3.59,3.59,0,0,0-3.57,3.57v3.06a16.57,16.57,0,1,0,33.14,0v-3.06a3.59,3.59,0,0,0-3.57-3.57Zm0,1.73h26a1.82,1.82,0,0,1,1.84,1.84v3.06a14.84,14.84,0,1,1-29.68,0v-3.06a1.82,1.82,0,0,1,1.84-1.84Zm0,0"/><path class="cls-5" d="M12.39,150l-.38.77a37,37,0,0,0,32.46,0l-.38-.77a36.15,36.15,0,0,1-31.7,0Zm0,0"/><path class="cls-13" d="M26.5,160c0,1-1.17,1.84-2.61,1.84S21.28,161,21.28,160s1.17-1.84,2.61-1.84S26.5,159,26.5,160Zm0,0"/><path class="cls-5" d="M9.86,117.71a8.89,8.89,0,0,1,8.91,8.91v4.46a8.91,8.91,0,0,1-17.82,0v-4.46a8.89,8.89,0,0,1,8.91-8.91Zm0,0"/><path class="cls-8" d="M15.05,124.09a2.88,2.88,0,1,1-2.88-2.87,2.88,2.88,0,0,1,2.88,2.87Zm0,0"/><path class="cls-5" d="M46.62,140a8.89,8.89,0,0,1-8.91-8.91v-7.36H55.53v7.36A8.89,8.89,0,0,1,46.62,140Zm0,0"/><path class="cls-8" d="M53.18,128.73a2.88,2.88,0,1,1-2.88-2.87,2.88,2.88,0,0,1,2.88,2.87Zm0,0"/><path class="cls-5" d="M28.14,40.26a22.11,22.11,0,0,0-17.68,9,19.21,19.21,0,0,0-2.4-.15A19.64,19.64,0,0,0-11.53,68.7a19.26,19.26,0,0,0,.31,3.39,19.6,19.6,0,0,0-8,15.77A19.62,19.62,0,0,0,.38,107.44a19.72,19.72,0,0,0,7-1.3,27.7,27.7,0,0,0,41.68,0,19.58,19.58,0,0,0,18.62-34A20.25,20.25,0,0,0,68,68.7,19.63,19.63,0,0,0,48.42,49.12a19.21,19.21,0,0,0-2.4.15,22.09,22.09,0,0,0-17.78-9Zm0,6.92h.06a15.14,15.14,0,0,1,13.15,7.63l1.32,2.28,2.55-.65A12.64,12.64,0,0,1,61.08,68.7h0a12.64,12.64,0,0,1-.62,3.91l-.89,2.74,2.53,1.37A12.66,12.66,0,1,1,49.79,98.85l-2.74-1.57-1.81,2.58a20.83,20.83,0,0,1-34,0L9.41,97.28,6.68,98.85a12.67,12.67,0,0,1-6.3,1.68A12.62,12.62,0,0,1-12.29,87.86,12.64,12.64,0,0,1-5.64,76.72l2.53-1.37L-4,72.61a12.64,12.64,0,0,1-.62-3.91h0A12.62,12.62,0,0,1,8.05,56a12.45,12.45,0,0,1,3.16.41l2.56.65,1.31-2.28a15.16,15.16,0,0,1,13.08-7.63Zm0,0"/><path class="cls-14" d="M52.51,87.86A24.27,24.27,0,1,1,28.24,63.59,24.27,24.27,0,0,1,52.51,87.86Zm0,0"/><path class="cls-14" d="M72.22,87.86A16.13,16.13,0,1,1,56.09,71.74,16.13,16.13,0,0,1,72.22,87.86Zm0,0"/><path class="cls-14" d="M16.51,87.86A16.13,16.13,0,1,1,.38,71.74,16.13,16.13,0,0,1,16.51,87.86Zm0,0"/><path class="cls-15" d="M64.54,68.7A16.12,16.12,0,1,1,48.42,52.57,16.12,16.12,0,0,1,64.54,68.7Zm0,0"/><path class="cls-15" d="M24.18,68.7A16.13,16.13,0,1,1,8.06,52.57,16.12,16.12,0,0,1,24.18,68.7Zm0,0"/><path class="cls-15" d="M46.86,62.34A18.62,18.62,0,1,1,28.24,43.72,18.62,18.62,0,0,1,46.86,62.34Zm0,0"/><path class="cls-15" d="M13.86,83.5A13.35,13.35,0,1,1,.52,70.15,13.35,13.35,0,0,1,13.86,83.5Zm0,0"/><path class="cls-15" d="M69.31,83.5A13.35,13.35,0,1,1,56,70.15,13.35,13.35,0,0,1,69.31,83.5Zm0,0"/><path class="cls-15" d="M46.26,85.84a18,18,0,1,1-18-18,18,18,0,0,1,18,18Zm0,0"/><path class="cls-5" d="M28.15,42.86a19.47,19.47,0,0,0-16.48,9.25A16.94,16.94,0,0,0-8.93,68.7a16.86,16.86,0,0,0,.64,4.57A17,17,0,0,0-16.6,87.86a17,17,0,0,0,17,17A17,17,0,0,0,8.16,103a25.1,25.1,0,0,0,40.16,0A17,17,0,0,0,64.77,73.27a17.27,17.27,0,0,0,.64-4.57A16.95,16.95,0,0,0,44.8,52.11a19.45,19.45,0,0,0-16.56-9.25Zm0,1.73h.08a17.73,17.73,0,0,1,15.4,8.93l.33.57.64-.17A15.27,15.27,0,0,1,63.68,68.7a15.07,15.07,0,0,1-.75,4.71l-.22.69.63.34A15.26,15.26,0,1,1,48.5,101.1l-.68-.39-.46.64a23.4,23.4,0,0,1-38.25,0l-.45-.64L8,101.1a15.29,15.29,0,0,1-7.59,2A15.25,15.25,0,0,1-14.88,87.86a15.26,15.26,0,0,1,8-13.42l.64-.34-.23-.69A15.36,15.36,0,0,1-7.2,68.7,15.27,15.27,0,0,1,11.87,53.92l.64.17.32-.57a17.75,17.75,0,0,1,15.32-8.93Zm0,0"/><path class="cls-16" d="M35.47,82.55a9.27,9.27,0,1,1-9.26-9.27,9.27,9.27,0,0,1,9.26,9.27Zm0,0"/><path class="cls-16" d="M59.11,81.92A6.08,6.08,0,1,1,53,75.84a6.07,6.07,0,0,1,6.07,6.08Zm0,0"/><path class="cls-16" d="M5.45,81.92A6.08,6.08,0,0,1-.63,88,6.07,6.07,0,0,1-6.7,81.92,6.08,6.08,0,0,1-.63,75.84a6.08,6.08,0,0,1,6.08,6.08Zm0,0"/><path class="cls-16" d="M51.24,62.36a2.76,2.76,0,1,1-2.76-2.76,2.76,2.76,0,0,1,2.76,2.76Zm0,0"/><path class="cls-16" d="M6.69,62.36A2.76,2.76,0,1,1,3.93,59.6a2.75,2.75,0,0,1,2.76,2.76Zm0,0"/><path class="cls-17" d="M179.2,187.39c0-10.66,4.7-12.79,7.94-12.79s7.94,2.13,7.94,12.79-3.55,25.82-7.94,25.82-7.94-15.16-7.94-25.82Zm0,0"/><path class="cls-5" d="M187.14,172.39a9,9,0,0,0-6.87,3.18c-2,2.4-3.28,6.17-3.28,11.82a68.39,68.39,0,0,0,2.41,17.5,28.76,28.76,0,0,0,2.75,6.92c1.12,1.87,2.62,3.61,5,3.61s3.88-1.74,5-3.61a29.17,29.17,0,0,0,2.75-6.92,68.39,68.39,0,0,0,2.41-17.5c0-5.65-1.24-9.42-3.28-11.82a9,9,0,0,0-6.88-3.18Zm0,4.43a4.28,4.28,0,0,1,3.5,1.61c1.12,1.33,2.23,4,2.23,9a65.06,65.06,0,0,1-2.25,16.31,25.36,25.36,0,0,1-2.29,5.83,4.6,4.6,0,0,1-1.19,1.42,4.93,4.93,0,0,1-1.19-1.42,25.83,25.83,0,0,1-2.29-5.83,65.52,65.52,0,0,1-2.24-16.31c0-5,1.11-7.63,2.23-9a4.27,4.27,0,0,1,3.49-1.61Zm0,0"/><path class="cls-17" d="M139.06,187.39c0-10.66,4.69-12.79,7.94-12.79s7.94,2.13,7.94,12.79-3.56,25.82-7.94,25.82-7.94-15.16-7.94-25.82Zm0,0"/><path class="cls-5" d="M147,172.39a9,9,0,0,0-6.88,3.18c-2,2.4-3.28,6.17-3.28,11.82a68.84,68.84,0,0,0,2.41,17.5,28.75,28.75,0,0,0,2.76,6.92c1.12,1.87,2.62,3.61,5,3.61s3.87-1.74,5-3.61a28.75,28.75,0,0,0,2.76-6.92,68.84,68.84,0,0,0,2.41-17.5c0-5.65-1.25-9.42-3.28-11.82a9,9,0,0,0-6.88-3.18Zm0,4.43a4.3,4.3,0,0,1,3.5,1.61c1.12,1.33,2.22,4,2.22,9a65.52,65.52,0,0,1-2.24,16.31,25.36,25.36,0,0,1-2.29,5.83A4.76,4.76,0,0,1,147,211a4.76,4.76,0,0,1-1.19-1.42,25.36,25.36,0,0,1-2.29-5.83,65.52,65.52,0,0,1-2.24-16.31c0-5,1.1-7.63,2.22-9a4.28,4.28,0,0,1,3.5-1.61Zm0,0"/><path class="cls-17" d="M102,129.43c4.08-9.85,9.23-10,12.23-8.78s6.52,5,2.44,14.85S103.51,158,99.46,156.31s-1.54-17,2.54-26.88Zm0,0"/><path class="cls-5" d="M115.08,118.6a9,9,0,0,0-7.57.31c-2.8,1.44-5.39,4.44-7.56,9.67a68.79,68.79,0,0,0-4.47,17.09,28.77,28.77,0,0,0-.1,7.44c.32,2.16,1,4.34,3.23,5.25s4.25-.13,6-1.43a28.73,28.73,0,0,0,5.19-5.33,68.76,68.76,0,0,0,8.92-15.25c2.16-5.22,2.46-9.18,1.5-12.18a9,9,0,0,0-5.14-5.57Zm-1.7,4.1a4.24,4.24,0,0,1,2.62,2.82c.53,1.66.54,4.51-1.37,9.14a65.66,65.66,0,0,1-8.32,14.2,24.94,24.94,0,0,1-4.35,4.51,4.21,4.21,0,0,1-1.64.85,4.62,4.62,0,0,1-.55-1.76,25.23,25.23,0,0,1,.11-6.26,65.19,65.19,0,0,1,4.17-15.93c1.91-4.62,3.94-6.63,5.49-7.42a4.22,4.22,0,0,1,3.84-.15Zm0,0"/><path class="cls-5" d="M167.07,72.47a62.19,62.19,0,1,0,62.19,62.19,62.24,62.24,0,0,0-62.19-62.19Zm0,7.1A55.09,55.09,0,1,1,112,134.66a55,55,0,0,1,55.09-55.09Zm0,0"/><path class="cls-17" d="M224.82,133.26c0,2.43-.28,30.78-16.84,38.76-11.76,5.67-18.31-5.4-42.08-5.07-22.36.31-28.19,10.27-39.25,5.07-16.55-7.79-16.85-36.38-16.85-38.76,0-3.34.38-29.87,16.85-38.75,9.71-5.24,14.75,1.21,38.75,1.47,26.25.28,32-7.33,42.58-1.47C224.44,103.61,224.82,129.92,224.82,133.26Zm0,0"/><path class="cls-8" d="M167.7,77.1a59.25,59.25,0,0,0-55.81,39.57H223.52A59.27,59.27,0,0,0,167.7,77.1Zm0,0"/><path class="cls-8" d="M164.61,78.45a54.85,54.85,0,0,0-52.22,38.22H216.78a54.83,54.83,0,0,0-52.17-38.22Zm0,0"/><path class="cls-8" d="M111.42,155a69.09,69.09,0,0,0,27,28.3,59.89,59.89,0,0,0,29.31,8.41,55.88,55.88,0,0,0,16.45-2.28,57.08,57.08,0,0,0,27-18.11A61.92,61.92,0,0,0,221.28,155Zm0,0"/><path class="cls-8" d="M114.37,155.11m0,0a56.87,56.87,0,0,0,103.46,0Z"/><path class="cls-5" d="M167.07,75.13a59.53,59.53,0,1,0,59.53,59.53,59.54,59.54,0,0,0-59.53-59.53Zm0,1.78a57.75,57.75,0,1,1-57.75,57.75,57.73,57.73,0,0,1,57.75-57.75Zm0,0"/><path class="cls-5" d="M185.91,113.41a9.12,9.12,0,0,1,9.14,9.14v4.57a9.14,9.14,0,1,1-18.27,0v-4.57a9.12,9.12,0,0,1,9.13-9.14Zm0,0"/><path class="cls-8" d="M180.6,120a2.95,2.95,0,1,1,5,2.08,2.93,2.93,0,0,1-4.17,0,2.94,2.94,0,0,1-.86-2.08Zm0,0"/><path class="cls-5" d="M148.23,113.41a9.12,9.12,0,0,1,9.13,9.14v4.57a9.13,9.13,0,1,1-18.26,0v-4.57a9.12,9.12,0,0,1,9.13-9.14Zm0,0"/><path class="cls-8" d="M142.91,120a2.95,2.95,0,1,1,3,3,3,3,0,0,1-3-3Zm0,0"/><path class="cls-9" d="M157.35,139a2,2,0,0,0-2,2v2.29a11.75,11.75,0,1,0,23.5,0V141a2,2,0,0,0-2-2Zm19.45,0"/><path class="cls-10" d="M167.07,147a11.7,11.7,0,0,0-8.85,4,11.76,11.76,0,0,0,17.71,0,11.74,11.74,0,0,0-8.86-4Zm0,0"/><path class="cls-8" d="M157.35,139a2,2,0,0,0-2,2V143a27.05,27.05,0,0,0,23.5,0v-2a2,2,0,0,0-2-2Zm19.45,0"/><path class="cls-11" d="M175.67,139v3.15c0,1.17-.15,1.92-.95,2.46a27,27,0,0,0,4.1-1.54v-2a2,2,0,0,0-2-2Zm1.13,0"/><path class="cls-11" d="M157.35,139a2,2,0,0,0-2,2V143a27.11,27.11,0,0,0,8.07,2.39c-1.36-.36-1.77-1.74-1.77-3.32V139Zm4.27,0"/><path class="cls-12" d="M158.47,139v3.15c0,1.17.15,1.92,1,2.46a27.07,27.07,0,0,1-4.11-1.54v-2a2,2,0,0,1,2-2Zm-1.12,0"/><path class="cls-5" d="M157.35,138.06a2.94,2.94,0,0,0-2.92,2.92v2.29a12.64,12.64,0,1,0,25.28,0V141a2.93,2.93,0,0,0-2.91-2.92Zm19.45,1.78a1.12,1.12,0,0,1,1.14,1.14v2.29a10.87,10.87,0,0,1-21.73,0V141a1.11,1.11,0,0,1,1.14-1.14Zm0,0"/><path class="cls-5" d="M178.88,142.54a26.91,26.91,0,0,1-23.62,0l-.38.8a27.85,27.85,0,0,0,24.39,0l-.39-.8Zm0,0"/><path class="cls-13" d="M168.37,150.14a1.23,1.23,0,0,1,.57-1,2.45,2.45,0,0,1,1.39-.4c1.08,0,1.95.62,1.95,1.38s-.87,1.37-1.95,1.37a2.45,2.45,0,0,1-1.39-.4,1.23,1.23,0,0,1-.57-1Zm0,0"/><path class="cls-5" d="M155.7,52.56v5.95c5.71.37,11.21.44,17,.87,7.28.54,11.63,2.65,14.19,5.24a12.62,12.62,0,0,1,3.56,9.3c0,6.12-3.27,10.24-9,13s-13.79,3.76-22.11,2.49q-1.86-.28-3.72-.72v6.15c.94.19,1.87.36,2.81.5,9.32,1.44,18.49.47,25.65-3s12.34-10,12.34-18.41a18.92,18.92,0,0,0-5.3-13.53c-3.82-3.85-9.74-6.39-18-7-6.26-.46-11.84-.49-17.48-.83Zm0,0"/><path class="cls-5" d="M134.13,49l2,5.29.48,1.3A89,89,0,0,1,121,52.15l-4.61-1.62.63,4.84c3.13,23.73,22.25,36.69,40.63,39.84V89.1C142.88,86.28,128.37,76.67,124,59.29a60.17,60.17,0,0,0,17,2.63l4.3,0-1.78-4.78a114.88,114.88,0,0,0,14,1.5V52.67a93.76,93.76,0,0,1-18-2.38Zm0,0"/><path class="cls-15" d="M138.91,53.21,141,58.92C131.32,59,120,55,120,55c6,45.35,73.55,48.09,73.55,18.94,0-8.21-5-16.39-20.54-17.53-11.7-.87-21.45-.13-34.05-3.18Zm0,0"/><path class="cls-16" d="M138.91,53.21,141,58.92C131.32,59,120,55,120,55c15.76,20.54,62.12,23.13,70.33,8.91-3-3.92-8.46-6.85-17.32-7.5-11.7-.87-21.45-.13-34.05-3.18Zm0,0"/><path class="cls-14" d="M120,55c6,45.35,73.55,48.09,73.55,18.94a18.47,18.47,0,0,0-.43-4C182.26,96,127.87,84.53,120,55Zm0,0"/><path class="cls-5" d="M155.7,54.83v1.46c5.69.36,11.22.4,17.21.84,7.65.57,12.59,2.85,15.62,5.9a15,15,0,0,1,4.22,10.89c0,7-4,12-10.23,15s-14.75,4-23.44,2.68c-1.13-.17-2.26-.38-3.38-.63v1.54c1.05.22,2.1.42,3.15.58,8.94,1.37,17.71.4,24.32-2.82s11.08-8.81,11.08-16.39a16.61,16.61,0,0,0-4.65-12c-3.35-3.37-8.68-5.75-16.58-6.33-6.11-.45-11.65-.47-17.32-.81Zm0,0"/><path class="cls-5" d="M137.71,52.14l.49,1.33,1.71,4.61c-9.25-.23-19.71-3.81-19.71-3.81l-1.15-.4.16,1.21c3,22.5,20.88,34.72,38.39,37.84V91.39C141,88.35,124.21,77,120.9,56c1.71.58,11.07,3.68,20.13,3.63h1.07l-2-5.48A100.68,100.68,0,0,0,157.6,56.4V54.93a95.86,95.86,0,0,1-18.52-2.45Zm0,0"/></g><text class="cls-18" transform="translate(14.09 268.28)">ukraina</text><path class="cls-4" d="M150.6,0l29,0h16l0,16c0,7,0,14,0,21A29.09,29.09,0,0,1,150.6,0Z"/><text class="cls-19" transform="translate(159.66 31.75)">26</text></svg>