<?xml version="1.0" encoding="utf-8"?>
<!-- Generator: Adobe Illustrator 26.0.1, SVG Export Plug-In . SVG Version: 6.00 Build 0)  -->
<svg version="1.1" id="Слой_1" xmlns="http://www.w3.org/2000/svg" xmlns:xlink="http://www.w3.org/1999/xlink" x="0px" y="0px"
	 viewBox="0 0 195.6 280.6" style="enable-background:new 0 0 195.6 280.6;" xml:space="preserve">
<style type="text/css">
	.st0{fill:none;}
	.st1{fill:#E8E7E7;}
	.st2{fill:#E8E7E7;stroke:#010101;stroke-linecap:round;}
	.st3{fill:#10A651;stroke:#010101;stroke-linecap:round;stroke-linejoin:round;}
	.st4{fill:#1986C8;stroke:#010101;stroke-width:2;stroke-linecap:round;stroke-linejoin:round;}
	.st5{fill:#E8E7E7;stroke:#010101;stroke-linecap:square;}
	.st6{clip-path:url(#SVGID_00000166666691621190070560000009778755340472327047_);fill:#E94539;}
	.st7{clip-path:url(#SVGID_00000061465975334236655650000012606071748418396067_);}
	.st8{fill-rule:evenodd;clip-rule:evenodd;fill:#424242;}
	.st9{fill-rule:evenodd;clip-rule:evenodd;fill:#DC2D28;}
	.st10{fill-rule:evenodd;clip-rule:evenodd;fill:#FFFFFF;}
	.st11{fill-rule:evenodd;clip-rule:evenodd;fill:#F3B303;}
	
		.st12{clip-path:url(#SVGID_00000011727432204410761030000008351488383260261050_);fill:url(#SVGID_00000041993533722861006210000016292390075367689142_);stroke:#424242;stroke-width:0.75;stroke-linecap:round;stroke-linejoin:round;}
	
		.st13{clip-path:url(#SVGID_00000139280612299840770770000008059596240560838075_);fill:url(#SVGID_00000094579355304307128370000002874555928787654800_);stroke:#424242;stroke-width:0.75;stroke-linecap:round;stroke-linejoin:round;}
	
		.st14{clip-path:url(#SVGID_00000042006318890480202470000005465378778779163805_);fill:#E8E7E7;stroke:#424242;stroke-width:0.75;stroke-linecap:round;stroke-linejoin:round;}
	
		.st15{clip-path:url(#SVGID_00000026150916426670152790000009812741825721829269_);fill:#E8E7E7;stroke:#424242;stroke-width:0.75;stroke-linecap:round;stroke-linejoin:round;}
	
		.st16{clip-path:url(#SVGID_00000178177643970137205140000007636319445799691941_);fill:#E8E7E7;stroke:#424242;stroke-width:0.75;stroke-linecap:round;stroke-linejoin:round;}
	.st17{clip-path:url(#SVGID_00000028316885222225997210000006416315103741280169_);}
	
		.st18{fill:url(#SVGID_00000119107734386493005510000003452517853205784504_);stroke:#424242;stroke-width:0.75;stroke-linecap:round;stroke-linejoin:round;}
	
		.st19{fill:url(#SVGID_00000060005411034245388750000004950783530841279367_);stroke:#424242;stroke-width:0.75;stroke-linecap:round;stroke-linejoin:round;}
	.st20{fill:#E8E7E7;stroke:#424242;stroke-width:0.75;stroke-linecap:round;stroke-linejoin:round;}
	.st21{fill:none;stroke:#424242;stroke-width:0.75;stroke-linecap:round;stroke-linejoin:round;}
	.st22{clip-path:url(#SVGID_00000076588635108588486790000004277478716518271906_);}
	
		.st23{fill:url(#SVGID_00000017513171827669883950000000992338546324518275_);stroke:#424242;stroke-width:0.75;stroke-linecap:round;stroke-linejoin:round;}
	
		.st24{fill:url(#SVGID_00000038403491946069137700000002904080313515037097_);stroke:#424242;stroke-width:0.75;stroke-linecap:round;stroke-linejoin:round;}
	
		.st25{clip-path:url(#SVGID_00000027591047646740792250000011140822328590778276_);fill:#E8E7E7;stroke:#424242;stroke-width:0.75;stroke-linecap:round;stroke-linejoin:round;}
	
		.st26{clip-path:url(#SVGID_00000156577370658534873430000003592122143122258604_);fill:none;stroke:#424242;stroke-width:0.75;stroke-linecap:round;stroke-linejoin:round;}
	
		.st27{clip-path:url(#SVGID_00000027581050701313592050000006638451781805829017_);fill:#E8E7E7;stroke:#424242;stroke-width:0.75;stroke-linecap:round;stroke-linejoin:round;}
	
		.st28{clip-path:url(#SVGID_00000156554459407425074380000017373244001786307256_);fill:#E94539;stroke:#424242;stroke-width:0.75;stroke-linecap:round;stroke-linejoin:round;}
	.st29{clip-path:url(#SVGID_00000043423420555061621300000016263789243265516475_);}
	.st30{fill:#EFEFEF;stroke:#424242;stroke-width:0.25;stroke-miterlimit:10;}
	.st31{fill:none;stroke:#424242;stroke-width:0.25;stroke-miterlimit:10;}
	
		.st32{clip-path:url(#SVGID_00000044144094071906655380000003443431449910528656_);fill:#E8E7E7;stroke:#424242;stroke-width:0.5;stroke-linecap:round;stroke-linejoin:round;}
	
		.st33{clip-path:url(#SVGID_00000007387261028398032570000012115615302774516368_);fill:#E8E7E7;stroke:#424242;stroke-width:0.5;stroke-linecap:round;stroke-linejoin:round;}
	.st34{clip-path:url(#SVGID_00000052815975962655805160000000304960706317466500_);}
	.st35{fill:#E8E7E7;stroke:#424242;stroke-width:0.5;stroke-linecap:round;stroke-linejoin:round;}
	.st36{clip-path:url(#SVGID_00000042710412826180555980000016399569078374902972_);}
	
		.st37{clip-path:url(#SVGID_00000145029095587304215550000005125645757532144032_);fill:#E8E7E7;stroke:#424242;stroke-width:0.5;stroke-linecap:round;stroke-linejoin:round;}
	
		.st38{clip-path:url(#SVGID_00000023998721761569420140000017585064301093649831_);fill:#E8E7E7;stroke:#424242;stroke-width:0.75;stroke-linecap:round;stroke-linejoin:round;}
	
		.st39{clip-path:url(#SVGID_00000127032249669516100100000010139339279230755229_);fill:#E8E7E7;stroke:#424242;stroke-width:0.75;stroke-linecap:round;stroke-linejoin:round;}
	
		.st40{clip-path:url(#SVGID_00000055683169662706847110000004668929367590779543_);fill:#E8E7E7;stroke:#424242;stroke-width:0.75;stroke-linecap:round;stroke-linejoin:round;}
	
		.st41{clip-path:url(#SVGID_00000171694180831142413590000011979715818716238739_);fill:none;stroke:#424242;stroke-width:0.25;stroke-miterlimit:10;}
	
		.st42{clip-path:url(#SVGID_00000076602116250418439510000011591384414817324961_);fill:#E8E7E7;stroke:#424242;stroke-width:0.75;stroke-linecap:round;stroke-linejoin:round;}
	.st43{clip-path:url(#SVGID_00000124158233148626278250000000702806743349948318_);fill:#FFFFFF;}
	.st44{clip-path:url(#SVGID_00000137816035242347320640000006750743393481235072_);fill:#FFFFFF;}
	.st45{clip-path:url(#SVGID_00000168814114145918103750000003146270544216664198_);fill:#FFFFFF;}
	.st46{enable-background:new    ;}
	.st47{fill:#E94539;}
</style>
<pattern  y="280.6" width="28" height="30" patternUnits="userSpaceOnUse" id="SVGID_0000001316129418930172006" viewBox="0 -30 28 30" style="overflow:visible;">
	<g>
		<rect y="-30" class="st0" width="28" height="30"/>
		<g>
			<rect y="-30" class="st0" width="28" height="30"/>
			<rect y="-30" class="st0" width="28" height="30"/>
			<path class="st1" d="M0,0h30v-30H0"/>
			<path class="st2" d="M14.5-15.5v-15 M0.5-0.5h28v-15h-28V-0.5z"/>
		</g>
	</g>
</pattern>
<pattern  y="280.6" width="28" height="30" patternUnits="userSpaceOnUse" id="SVGID_0000002471184314870541417" viewBox="0 -30 28 30" style="overflow:visible;">
	<g>
		<rect y="-30" class="st0" width="28" height="30"/>
		<g>
			<rect y="-30" class="st0" width="28" height="30"/>
			<rect y="-30" class="st0" width="28" height="30"/>
			<path class="st1" d="M0,0h30v-30H0"/>
			<path class="st2" d="M14.5-15.5v-15 M0.5-0.5h28v-15h-28V-0.5z"/>
		</g>
	</g>
</pattern>
<pattern  y="280.6" width="302" height="362" patternUnits="userSpaceOnUse" id="SVGID_0000002975526559178513877" viewBox="1 -363 302 362" style="overflow:visible;">
	<g>
		<rect x="1" y="-363" class="st0" width="302" height="362"/>
		<g>
			<rect x="1" y="-363" class="st0" width="302" height="362"/>
			<rect x="1" y="-363" class="st0" width="302" height="362"/>
			<path class="st3" d="M1-306h302v-60H1"/>
			<path class="st4" d="M1-1h302v-305H1"/>
		</g>
	</g>
</pattern>
<pattern  y="280.6" width="15" height="15" patternUnits="userSpaceOnUse" id="SVGID_0000003767466916348882447" viewBox="0.5 -15.5 15 15" style="overflow:visible;">
	<g>
		<rect x="0.5" y="-15.5" class="st0" width="15" height="15"/>
		<g>
			<rect x="0.5" y="-15.5" class="st0" width="15" height="15"/>
			<rect x="0.5" y="-15.5" class="st0" width="15" height="15"/>
			<rect x="0.5" y="-15.5" class="st5" width="15" height="15"/>
		</g>
	</g>
</pattern>
<pattern  y="280.6" width="28" height="30" patternUnits="userSpaceOnUse" id="SVGID_0000003911935248346396430" viewBox="0 -30 28 30" style="overflow:visible;">
	<g>
		<rect y="-30" class="st0" width="28" height="30"/>
		<g>
			<rect y="-30" class="st0" width="28" height="30"/>
			<rect y="-30" class="st0" width="28" height="30"/>
			<path class="st1" d="M0,0h30v-30H0"/>
			<path class="st2" d="M14.5-15.5v-15 M0.5-0.5h28v-15h-28V-0.5z"/>
		</g>
	</g>
</pattern>
<pattern  y="280.6" width="15" height="15" patternUnits="userSpaceOnUse" id="SVGID_0000011406864375973708493" viewBox="0.5 -15.5 15 15" style="overflow:visible;">
	<g>
		<rect x="0.5" y="-15.5" class="st0" width="15" height="15"/>
		<g>
			<rect x="0.5" y="-15.5" class="st0" width="15" height="15"/>
			<rect x="0.5" y="-15.5" class="st0" width="15" height="15"/>
			<rect x="0.5" y="-15.5" class="st5" width="15" height="15"/>
		</g>
	</g>
</pattern>
<g>
	<g>
		<defs>
			<rect id="SVGID_1_" width="195.6" height="280.6"/>
		</defs>
		<clipPath id="SVGID_00000139264916420232482090000002272223932043800714_">
			<use xlink:href="#SVGID_1_"  style="overflow:visible;"/>
		</clipPath>
		
			<rect x="-6.2" y="-8.4" style="clip-path:url(#SVGID_00000139264916420232482090000002272223932043800714_);fill:#E94539;" width="214" height="297.9"/>
	</g>
	<g>
		<defs>
			<rect id="SVGID_00000175319995172605264450000013953718045421319041_" width="195.6" height="280.6"/>
		</defs>
		<clipPath id="SVGID_00000109744604348898110630000010362500006652318396_">
			<use xlink:href="#SVGID_00000175319995172605264450000013953718045421319041_"  style="overflow:visible;"/>
		</clipPath>
		<g id="Warstwa_1" style="clip-path:url(#SVGID_00000109744604348898110630000010362500006652318396_);">
			<g id="_52208184">
				<path id="_52208472" class="st8" d="M149.2,11.1v121.8c0,10.5-4.8,16.3-16.2,16.3h-21c-6.1,0-10.6,2.9-13.9,8
					c-3.3-5-7.7-8-13.9-8h-21c-11.4,0-16.2-5.8-16.2-16.3V11.1H149.2z"/>
				<path id="_52208400" class="st9" d="M48,82V11.9h100.4V82h-2.9v5.8h-1.8V50.7h1.3v-7h-3.8v3.7h-0.8v-3.7h-3.8v3.7h-0.8v-3.7H132
					v3.7h-0.8v-3.7h-3.8v3.7h-0.8v-3.7h-3.8v7h1.3V82H120v5.8h-5.4V82h-2.1V44.4h1.3v-7H110v3.7h-0.8v-3.7h-3.8v3.7h-0.8v-3.7h-3.8
					v3.7H100v-3.7h-3.7v3.7h-0.8v-3.7h-3.8v3.7h-0.8v-3.7h-3.8v3.7h-0.8v-3.7h-3.8v7h1.3V82H82v5.8h-5.5V82h-4.3V50.7h1.3v-7h-3.8
					v3.7h-0.8v-3.7h-3.8v3.7h-0.8v-3.7h-3.8v3.7h-0.8v-3.7h-3.8v3.7h-0.8v-3.7h-3.8v7h1.3v37.2H51V82H48z M82.7,36.8l-5.1-6.1
					c4.8-6.5,11.6-11.9,20.6-16.4c9,4.4,15.9,9.9,20.6,16.4l-5.1,6.1H82.7z"/>
				<path id="_52208328" class="st10" d="M99.3,38.2v3.7h2.4v-3.7h2.2v3.7h2.4v-3.7h2.2v3.7h2.4v-3.7h2.2v5.4H83.3v-5.4h2.2v3.7h2.4
					v-3.7h2.2v3.7h2.4v-3.7h2.2v3.7h2.4v-3.7H99.3z M94.3,68.8v-5h0.4v5H94.3z M101.6,63.8h0.6v5h-0.6V63.8z M94.3,56.3v-5h8v5H94.3
					z M94.3,81.1v-5h7.9v5H94.3z M61,93v5h11.9v-5H61z M135.4,93v5h-11.9v-5H135.4z M61.1,130v5h11.8v-5H61.1z M135.4,130v5h-11.9
					v-5H135.4z M86,93v5H74.1v-5H86z M110.5,93v5h11.8v-5H110.5z M77.3,135h-3.2v-5h4.1v4.2h-1L77.3,135L77.3,135z M119.2,135h3.2
					v-5h-4.1v4.2h1L119.2,135L119.2,135z M78.7,110.3h-4.5v-5h6.2C79.5,106.9,79,108.5,78.7,110.3z M117.7,110.3h4.5v-5H116
					C116.9,106.9,117.4,108.5,117.7,110.3z M78.3,147.3h-4.1v-5h4.1V147.3z M118.1,147.3h4.1v-5h-4.1V147.3z M78.3,122.6h-4.1v-5
					h4.1V122.6z M118.1,122.6h4.1v-5h-4.1V122.6z M48,122.6v-5h11.9v5H48z M148.4,122.6v-5h-11.9v5H148.4z M48,97.9V93h11.8v5
					L48,97.9z M148.4,97.9V93h-11.9v5L148.4,97.9z M48,132.4V130h11.8v5H48.1C48,134.2,48,133.4,48,132.4L48,132.4z M148.4,132.4
					V130h-11.9v5h11.8C148.4,134.1,148.4,133.3,148.4,132.4L148.4,132.4z M48,110.3v-5h11.8v5H48z M148.4,110.3v-5h-11.9v5H148.4z
					 M50.2,142.3h9.6v5h-3.6C53.7,146.4,51.6,144.6,50.2,142.3L50.2,142.3z M146.2,142.3h-9.6v5h3.6
					C142.7,146.4,144.9,144.6,146.2,142.3L146.2,142.3z M61,122.6h11.9v-5H61V122.6z M135.4,122.6h-11.9v-5h11.9V122.6z M61.1,105.3
					v1.4c0.4-0.7,1-1.1,1.7-1.4H61.1z M67.6,110.3h5.3v-5h-7.4c1.3,0.4,2.1,1.6,2.1,2.9V110.3L67.6,110.3z M135.4,105.3v1.4
					c-0.1-0.5-0.4-1-0.8-1.4H135.4z M128.5,110.3h-5v-5h6c-0.6,0.6-0.9,1.4-0.9,2.3L128.5,110.3z M61.1,142.3v5h11.8v-5H61.1z
					 M135.4,142.3v5h-11.9v-5H135.4z M87.2,97.8V93h8.7v1.9C92.8,95.2,89.8,96.2,87.2,97.8L87.2,97.8z M109.2,97.8V93h-8.7v1.9
					C103.6,95.2,106.5,96.2,109.2,97.8L109.2,97.8z M80.9,104.1h-0.3v-5h4.6C83.5,100.5,82,102.2,80.9,104.1z M79.4,99.1v5H67.6v-5
					H79.4z M54.5,99.1v5h11.8v-5H54.5z M48,99.1h5.3v5H48V99.1z M115.5,104.1h0.3v-5h-4.6C112.9,100.5,114.4,102.2,115.5,104.1z
					 M117,99.1v5h11.8v-5H117z M141.9,99.1v5H130v-5H141.9z M148.4,99.1h-5.3v5h5.3V99.1z M78.3,141.1H67.6v-5h9.7v2.5h1L78.3,141.1
					L78.3,141.1z M54.5,136.1v5h11.8v-5H54.5z M48.2,136.1h5v5h-3.7C48.9,139.5,48.4,137.8,48.2,136.1z M118.1,141.1h10.7v-5h-9.7
					v2.5h-1L118.1,141.1L118.1,141.1z M141.9,136.1v5H130v-5H141.9z M148.2,136.1h-5.1v5h3.7C147.5,139.5,148,137.9,148.2,136.1
					L148.2,136.1z M77.3,116.4h-9.7v-5h10.9c0,0.4-0.1,0.8-0.1,1.1h-1.1L77.3,116.4L77.3,116.4z M54.4,111.4v5h6.2v-5H54.4z
					 M48,111.4h5.2v5H48V111.4z M119.1,116.4h9.4v-5h-10.6c0,0.4,0.1,0.8,0.1,1.1h1.1V116.4L119.1,116.4z M142,111.4v5h-6.5v-5H142z
					 M148.4,111.4h-5.2v5h5.2V111.4z M78.3,128.8H67.5v-5h10.8V128.8z M54.4,123.8v5h11.8v-5H54.4z M48,123.8h5.2v5H48V123.8z
					 M118.1,128.8h10.8v-5h-10.8C118.1,123.8,118.1,128.8,118.1,128.8z M142,123.8v5h-11.8v-5H142z M148.4,123.8h-5.2v5h5.2V123.8z
					 M50.3,82.8v5.8h7.2v-5.8h5.4v5.8h7.3v-5.8h5.4v5.8h7.3v-5.8h5.4v5.8h7.3v-5.8h5.4v5.8h7.3v-5.8h5.4v5.8h7.3v-5.8h5.4v5.8h7.3
					v-5.8h5.4v5.8h7.3v-5.8h1.9v8.9H48v-8.9H50.3z M53.5,82.4h3v5.5h-3V82.4z M142.9,82.4h-3v5.5h3V82.4z M84.7,81.1v-5H93v5H84.7z
					 M111.7,81.1v-5h-8.4v5H111.7z M69.2,82.4v5.5h-5.4v-5.5H69.2z M127.2,82.4v5.5h5.4v-5.5H127.2z M94.7,82.3h-5.4v5.6h5.4V82.3z
					 M102,82.3h5.4v5.6H102V82.3z M54.3,48.2h2.4v-3.7h2.2v3.7h2.4v-3.7h2.2v3.7H66v-3.7h2.2v3.7h2.4v-3.7h2.2v5.4H52.1v-5.4h2.2
					V48.2z M142.1,48.2h-2.4v-3.7h-2.2v3.7h-2.4v-3.7h-2.2v3.7h-2.4v-3.7h-2.2v3.7h-2.4v-3.7h-2.2v5.4h20.6v-5.4h-2.2L142.1,48.2
					L142.1,48.2z M58.4,63.8v5h8v-5C66.4,63.8,58.4,63.8,58.4,63.8z M138,63.8v5h-8v-5C130,63.8,138,63.8,138,63.8z M89.6,57.6v5h5
					v-2.9c0-0.8,0.2-1.5,0.7-2.2L89.6,57.6z M106.8,57.6v5h-5.2v-2.9c0-0.8-0.2-1.5-0.7-2.2L106.8,57.6z M58.4,81.2h8v-5h-8V81.2z
					 M138,81.2h-8v-5h8V81.2z M89.6,74.9h8V70h-8V74.9z M106.8,74.9h-8V70h8V74.9z M53.5,56.5v-5h3.7v5H53.5z M142.9,56.5v-5h-3.7v5
					H142.9z M84.7,50.2v-5h3.7v5H84.7z M111.7,50.2v-5H108v5H111.7z M53.5,62.6v-5h8.3v5H53.5z M142.9,62.6v-5h-8.3v5H142.9z
					 M84.7,56.4v-5H93v5H84.7z M111.7,56.4v-5h-8.3v5H111.7z M53.5,68.8v-5h3.7v5H53.5z M142.9,68.8v-5h-3.7v5H142.9z M84.7,62.6v-5
					h3.7v5H84.7z M111.7,62.6v-5H108v5H111.7z M53.5,75v-5h8.3v5H53.5z M142.9,75v-5h-8.3v5H142.9z M84.7,68.8v-5H93v5H84.7z
					 M111.7,68.8v-5h-8.3v5H111.7z M53.5,81.2v-5h3.7v5H53.5z M142.9,81.2v-5h-3.7v5H142.9z M84.7,74.9V70h3.7v5L84.7,74.9z
					 M111.7,74.9V70H108v5L111.7,74.9z M71.4,76.2v5h-3.7v-5H71.4z M125,76.2v5h3.7v-5H125z M71.4,70v5H63v-5H71.4z M125,70v5h8.3
					v-5H125z M71.4,63.8v5h-3.7v-5C67.7,63.8,71.4,63.8,71.4,63.8z M125,63.8v5h3.7v-5C128.7,63.8,125,63.8,125,63.8z M71.4,57.7v5
					H63v-5H71.4z M125,57.7v5h8.3v-5H125z M71.4,51.5v5h-3.7v-5H71.4z M125,51.5v5h3.7v-5H125z M58.4,51.5v5h8v-5H58.4z M138,51.5v5
					h-8v-5H138z M89.6,45.2v5h8v-5H89.6z M106.8,45.2v5h-8v-5H106.8z"/>
				<path id="_52208256" class="st11" d="M97.2,26.4v-1.7h-1.7v-2.1h1.7v-1.7h2.2v1.7h1.7v2.1h-1.7v1.7H97.2z M90.1,21.8v12.6h-6.5
					l-3.2-3.7C83.3,27.3,86.5,24.3,90.1,21.8z M106.3,21.8v12.6h6.5l3.2-3.7C113.1,27.3,109.9,24.4,106.3,21.8z M94.6,21.7h1.7V20
					h3.8v1.7h1.7v3.8h-1.7v1.7h-3.8v-1.7h-1.7V21.7z M92.8,34.3V20.2c1.7-1.3,3.5-2.4,5.4-3.2c1.9,0.8,3.8,1.9,5.4,3.2v14.1
					C103.6,34.3,92.8,34.3,92.8,34.3z M113.3,36.1l4.6-5.5c-5.3-6.5-12.1-11.8-19.7-15.4c-7.6,3.6-14.3,8.9-19.7,15.4l4.6,5.5H113.3
					z M105.5,20.2v15h7.6l3.8-4.5C113.6,26.7,109.7,23.2,105.5,20.2L105.5,20.2z M104.6,35.1V19.7c-2-1.4-4.1-2.7-6.4-3.6
					c-2.3,1-4.4,2.2-6.4,3.6v15.5L104.6,35.1z M90.9,20.2v15h-7.6l-3.8-4.5C82.8,26.7,86.7,23.2,90.9,20.2z M78.1,135h3.7v2.8h-3.7
					V135z M118.3,135h-3.7v2.8h3.7V135z M78.1,113.4h3.7v2.8h-3.7V113.4z M118.3,113.4h-3.7v2.8h3.7V113.4z M81.8,148.4v-9.8H79v9.8
					H81.8z M95.8,95.7c-8.1,0.9-15.7,6.5-16.7,16.9H82c1.3-8.5,7.3-13.2,13.8-14.1C95.8,98.5,95.8,95.7,95.8,95.7z M79,117.1v17.1
					h2.8v-17.1H79z M114.5,148.4v-9.8h2.8v9.8H114.5z M100.5,95.7c8.1,0.9,15.7,6.5,16.7,16.9h-2.9c-1.3-8.5-7.3-13.2-13.8-14.1
					C100.5,98.5,100.5,95.7,100.5,95.7z M117.3,117.1v17.1h-2.8v-17.1H117.3z M96.8,94.1h2.9V99h-2.9V94.1z M82.7,148.4v-10.8h0.7
					l5.1,4.7l1.4-1.5l-2.9-3.2h2.4l3,3.1l1.6-1.4l-1.3-1.7h3.8v16.2c-3.2-3.5-7.8-5.5-12.5-5.4L82.7,148.4L82.7,148.4z M82.7,134.8
					v-18.5h0.7l5.1,4.7l1.4-1.5l-2.9-3.2h2.4l3,3.1L94,118l-1.3-1.7h3.8v18.5h-3.9L94,133l-1.7-1.3l-3,3.1h-2.4l3-3.3l-1.4-1.5
					l-5.2,4.8H82.7z M82.8,113.5c1.1-8.5,6.8-13.2,13-14.2v0.5h0.6v13.7h-3.8l1.4-1.8l-1.7-1.3l-3,3.2h-2.4l3-3.3l-1.4-1.5l-5.2,4.8
					L82.8,113.5L82.8,113.5z M113.8,148.5v-10.9h-0.7l-5.1,4.7l-1.4-1.5l2.9-3.2h-2.4l-3,3.1l-1.7-1.4l1.3-1.7h-3.8v16.2
					c3.2-3.5,7.8-5.5,12.5-5.4L113.8,148.5z M113.8,134.8v-18.6h-0.7L108,121l-1.4-1.5l2.9-3.2h-2.4l-3,3.1l-1.7-1.4l1.3-1.7h-3.8
					v18.5h3.9l-1.4-1.8l1.7-1.3l3,3.1h2.4l-3-3.3l1.5-1.5l5.2,4.8H113.8z M113.6,113.5c-1.1-8.5-6.8-13.2-13-14.2v0.5h-0.7v13.7h3.9
					l-1.4-1.8l1.7-1.3l3,3.2h2.4l-3-3.3l1.5-1.6l5.2,4.8L113.6,113.5z M96.6,115.5h-5.3l1.9,2.4l-0.8,0.6l-2.9-3h-4.1l3.6,3.9
					l-0.6,0.7l-5.1-4.6h-0.6c0-0.4,0-0.8,0.1-1.2h0.4l5.2-4.7l0.6,0.7l-3.7,4h4.1l2.9-3.1l0.8,0.6l-1.9,2.4h5.3L96.6,115.5
					L96.6,115.5z M99.9,115.5h5.2l-1.9,2.4l0.8,0.6l2.9-3h4l-3.6,3.9l0.6,0.7l5.1-4.6h0.6c0-0.4,0-0.8-0.1-1.2h-0.4l-5.2-4.7
					l-0.6,0.7l3.7,4h-4l-2.9-3.1l-0.8,0.6l1.9,2.4h-5.3L99.9,115.5L99.9,115.5z M96.6,136.9h-5.3l1.9,2.4l-0.8,0.6l-2.9-3h-4.1
					l3.6,3.9l-0.6,0.7l-5.1-4.6h-0.6v-1.2h0.6l5.2-4.7l0.6,0.7l-3.7,4h4.1l2.9-3.1l0.8,0.6l-1.9,2.4h5.3V136.9L96.6,136.9z
					 M99.9,136.9h5.2l-1.9,2.4l0.8,0.6l2.9-3h4l-3.6,3.9l0.6,0.7l5.1-4.6h0.6v-1.2h-0.5l-5.2-4.7l-0.6,0.7l3.7,4h-4l-2.9-3.1
					l-0.8,0.6l1.9,2.4h-5.3L99.9,136.9L99.9,136.9z M99.1,154.9v-55h-1.8v54.9c0.3,0.4,0.6,0.8,0.9,1.3c0.3-0.4,0.6-0.9,0.9-1.3
					V154.9z"/>
				<path id="_52208112" class="st10" d="M138.9,147.7h-2.8v-5.8h10.2l0.2-0.4h-3.9v-5.8h5.5c0-0.1,0-0.3,0.1-0.4h-12.1v-5.8h12.3
					v-0.4h-5.6v-5.7h5.6V123h-12.3v-5.8h12.3v-0.4h-5.7V111h5.7v-0.4h-12.3v-5.7h12.3v-0.4h-5.7v-5.8h5.7v-0.4h-12.3v-5.8h12.3v-0.4
					H48v0.4h12.2v5.8H48v0.4h5.7v5.8H48v0.4h12.2v5.8H48v0.4h5.7v5.8H48v0.4h12.2v5.7H48v0.4h5.6v5.7H48v0.4h12.2v5.8H48.1
					c0,0.1,0,0.3,0,0.4h5.5v5.8h-3.9l0.2,0.4h10.2v5.8h-2.8c0.6,0.2,1.2,0.3,1.8,0.4h7.5v0.3H67v-0.3h11.1v-0.4h-4.6v-5.8h4.6v-0.4
					H67.2v-5.8h10.1v-0.4h-3.6v-5.8h4.6v-0.4H67.1v-5.7h11.2V123h-4.6v-5.8h4.6V117h-1v-0.2H54V111h6.6v-0.4l0,0v-5.7h12.6v5.8h-5.7
					v0.4h10.9l0.1-0.4h-4.9v-5.8h6.8c0.1-0.1,0.1-0.3,0.2-0.4h-0.4v-5.8h5.5l0.6-0.4H73.7v-5.8h12.7v5.7l0.4-0.3v-5.4h22.8V98
					l0.4,0.3v-5.7h12.7v5.8h-12.6l0.6,0.4h5.5v5.8h-0.4l0.2,0.4h6.8v5.8h-4.9l0.1,0.4h10.7v-0.4h-5.4V105h6.9
					c0.3-0.2,0.6-0.3,0.9-0.4h-1.2v-5.8h12.7v5.8h-9.2c0.3,0.1,0.6,0.2,0.9,0.4h1.7v5.8h-0.3v0.4h6.9v5.8h-23.3v0.2h-1v0.2h4.6v5.7
					h-4.6v0.4h11.2v5.7h-11.2v0.4h4.6v5.8h-3.6v0.4h10.1v5.8h-11.1v0.4h4.6v5.8h-4.6v0.4h11.1v0.3h0.4v-0.3h7.5
					C137.7,147.9,138.3,147.8,138.9,147.7L138.9,147.7z M134.7,116.4v-8.5c0-0.6-0.4-1-1-1s-1,0.4-1,1v8.5H134.7z M66.8,116.4v-8
					c0-1.2-2-1.2-2,0v8H66.8z M142.4,129.1h-12.7v-5.7h12.7V129.1z M54,129.1h12.7v-5.7H54V129.1L54,129.1z M66.7,98.7v5.8H54v-5.8
					H66.7z M67.2,104.5v-5.8h12.7v5.8H67.2z M73.3,92.5H60.6v5.8h12.7C73.3,98.3,73.3,92.5,73.3,92.5z M60.6,117.3v5.7h12.7v-5.8
					L60.6,117.3z M129.2,104.5v-5.8h-12.7v5.8H129.2z M123.1,92.5h12.7v5.8h-12.7C123.1,98.3,123.1,92.5,123.1,92.5z M135.8,117.2
					v5.8h-12.7v-5.8H135.8z M66.8,135.7v5.8H54v-5.8H66.8z M73.3,141.9H60.6v5.8h12.7L73.3,141.9z M73.3,129.5H60.6v5.8h12.7
					L73.3,129.5z M129.7,135.7v5.8h12.7v-5.8H129.7z M123.1,141.9h12.7v5.8h-12.7L123.1,141.9L123.1,141.9z M123.1,129.5h12.7v5.8
					h-12.7L123.1,129.5L123.1,129.5z M102.6,56.8V51h-8.8v5.8h2.5c-0.2,0.1-0.4,0.3-0.6,0.4h-6.5V63h5.4v0.4h-0.8v5.8h8.8v-5.8h-1
					V63h5.6v-5.8h-6.7c-0.2-0.2-0.4-0.3-0.6-0.4H102.6z M98.9,68.8v-8.7c0-0.6,0.4-1,1-1s1,0.4,1,1v8.7H98.9z M111.7,81.9v-0.4H103
					v-5.8h8.8v-0.4h-4.1v-5.8h4.1v-0.4H103v-5.8h8.7V63h-4.1v-5.8h4.1v-0.4H103V51h8.7v-0.4h-4.1v-5.8h4.1v-0.4h-27v0.4h4.1v5.8
					h-4.1V51h8.8v5.8h-8.8v0.4h4.1V63h-4.1v0.4h8.8v5.8h-8.8v0.4h4.1v5.8h-4.1v0.4h8.8v5.8h-8.8V82L111.7,81.9z M102.6,75.8v5.8
					h-8.7v-5.8H102.6z M107.2,69.6v5.8h-8.8v-5.8H107.2z M98.4,44.8h8.8v5.8h-8.8V44.8z M89.2,69.6v5.8H98v-5.8H89.2z M98,44.8h-8.8
					v5.8H98V44.8z M58,75.8v5.8h8.8v-5.8H58z M67.2,81.6h4.1V82H53.5v-0.4h4.1v-5.8h-4.1v-0.4h8.7v-5.8h-8.7v-0.4h4.1v-5.8h-4.1V63
					h8.7v-5.7h-8.7v-0.4h4.1v-5.8h-4.1v-0.4h17.9v0.4h-4.1v5.8h4.1v0.4h-8.7V63h8.7v0.4h-4.1v5.8h4.1v0.4h-8.7v5.8h8.7v0.4h-4.1
					L67.2,81.6z M66.8,63.5H58v5.8h8.8V63.5z M66.8,51.1H58v5.8h8.8V51.1z M138.3,75.8v5.8h-8.8v-5.8H138.3z M129.1,81.6H125V82
					h17.9v-0.4h-4.1v-5.8h4.1v-0.4h-8.8v-5.8h8.8v-0.4h-4.1v-5.8h4.1V63h-8.8v-5.7h8.8v-0.4h-4.1v-5.8h4.1v-0.4H125v0.4h4.1v5.8H125
					v0.4h8.8V63H125v0.4h4.1v5.8H125v0.4h8.8v5.8H125v0.4h4.1V81.6z M129.5,63.5h8.8v5.8h-8.8V63.5z M129.5,51.1h8.8v5.8h-8.8V51.1z
					"/>
			</g>
		</g>
	</g>
	<g>
		<defs>
			<rect id="SVGID_00000164515870491960220020000016392393008340038322_" width="195.6" height="280.6"/>
		</defs>
		<clipPath id="SVGID_00000063606695610237055640000001197976214365145513_">
			<use xlink:href="#SVGID_00000164515870491960220020000016392393008340038322_"  style="overflow:visible;"/>
		</clipPath>
		
			<pattern  id="SVGID_00000069398935306422960140000016821742976377640875_" xlink:href="#SVGID_0000002975526559178513877" patternTransform="matrix(-0.33 0 0 -0.33 -21897.3398 -6197.5518)">
		</pattern>
		
			<path style="clip-path:url(#SVGID_00000063606695610237055640000001197976214365145513_);fill:url(#SVGID_00000069398935306422960140000016821742976377640875_);stroke:#424242;stroke-width:0.75;stroke-linecap:round;stroke-linejoin:round;" d="
			M98.2,148c-24.3,19.7-49.9,6.7-49.9,60c8.3,8.3,8.3,16.7,0,25v24.3c15.7,7.2,32.7,10.9,50,10.7 M98.2,148.1
			c24.3,19.6,50,6.7,50,59.9c-8.3,8.3-8.3,16.7,0,25v24.3c-15.7,7.2-32.7,10.9-50,10.7"/>
	</g>
	<g>
		<defs>
			<rect id="SVGID_00000135655293627360204510000016618287787859033988_" width="195.6" height="280.6"/>
		</defs>
		<clipPath id="SVGID_00000160896881712760175200000007814240894382787731_">
			<use xlink:href="#SVGID_00000135655293627360204510000016618287787859033988_"  style="overflow:visible;"/>
		</clipPath>
		
			<pattern  id="SVGID_00000003063511857216360510000000350481193030365875_" xlink:href="#SVGID_0000003911935248346396430" patternTransform="matrix(-0.33 0 0 0.33 -21546.0098 4820.5522)">
		</pattern>
		
			<path style="clip-path:url(#SVGID_00000160896881712760175200000007814240894382787731_);fill:url(#SVGID_00000003063511857216360510000000350481193030365875_);stroke:#424242;stroke-width:0.75;stroke-linecap:round;stroke-linejoin:round;" d="
			M86.6,205.6l11.7,3l11.7-3v18H86.6V205.6z"/>
	</g>
	<g>
		<defs>
			<rect id="SVGID_00000130636747438278882620000008253308817876876173_" width="195.6" height="280.6"/>
		</defs>
		<clipPath id="SVGID_00000081639534163009851080000007670577126638474375_">
			<use xlink:href="#SVGID_00000130636747438278882620000008253308817876876173_"  style="overflow:visible;"/>
		</clipPath>
		
			<path style="clip-path:url(#SVGID_00000081639534163009851080000007670577126638474375_);fill:#E8E7E7;stroke:#424242;stroke-width:0.75;stroke-linecap:round;stroke-linejoin:round;" d="
			M89.9,250.9l8.3,12l8.3-12"/>
	</g>
	<g>
		<defs>
			<rect id="SVGID_00000131334403119152174110000002846731847271721393_" width="195.6" height="280.6"/>
		</defs>
		<clipPath id="SVGID_00000067199147156066997540000012277063414735401405_">
			<use xlink:href="#SVGID_00000131334403119152174110000002846731847271721393_"  style="overflow:visible;"/>
		</clipPath>
		
			<path style="clip-path:url(#SVGID_00000067199147156066997540000012277063414735401405_);fill:#E8E7E7;stroke:#424242;stroke-width:0.75;stroke-linecap:round;stroke-linejoin:round;" d="
			M93.2,249.9l5,7.3l5-7.3 M93.2,252.3l5,7.3l5-7.3"/>
	</g>
	<g>
		<defs>
			<rect id="SVGID_00000178884029011626919250000000317352740640331190_" width="195.6" height="280.6"/>
		</defs>
		<clipPath id="SVGID_00000152959922557038528750000013294402135325501089_">
			<use xlink:href="#SVGID_00000178884029011626919250000000317352740640331190_"  style="overflow:visible;"/>
		</clipPath>
		
			<circle style="clip-path:url(#SVGID_00000152959922557038528750000013294402135325501089_);fill:#E8E7E7;stroke:#424242;stroke-width:0.75;stroke-linecap:round;stroke-linejoin:round;" cx="98.2" cy="262.9" r="2.3"/>
	</g>
	<g>
		<defs>
			<rect id="SVGID_00000132772861905261066130000013350547376010239628_" width="195.6" height="280.6"/>
		</defs>
		<clipPath id="SVGID_00000102535079955715744720000000918823185493512616_">
			<use xlink:href="#SVGID_00000132772861905261066130000013350547376010239628_"  style="overflow:visible;"/>
		</clipPath>
		<g id="h" style="clip-path:url(#SVGID_00000102535079955715744720000000918823185493512616_);">
			
				<pattern  id="SVGID_00000180363223752957649170000001401204416279456905_" xlink:href="#SVGID_0000001316129418930172006" patternTransform="matrix(-0.33 0 0 0.33 -21545.0098 4820.5522)">
			</pattern>
			
				<path style="fill:url(#SVGID_00000180363223752957649170000001401204416279456905_);stroke:#424242;stroke-width:0.75;stroke-linecap:round;stroke-linejoin:round;" d="
				M134.2,228.3h-18.7v-61.6h18.7V228.3z"/>
			
				<pattern  id="SVGID_00000170256273727993030020000013847290677966954113_" xlink:href="#SVGID_0000003767466916348882447" patternTransform="matrix(-0.24 0.24 0.24 0.24 -20059.9336 3317.0505)">
			</pattern>
			
				<path style="fill:url(#SVGID_00000170256273727993030020000013847290677966954113_);stroke:#424242;stroke-width:0.75;stroke-linecap:round;stroke-linejoin:round;" d="
				M124.8,256.6l7.7-22.3h-15.3L124.8,256.6z"/>
			<g id="i">
				<path class="st20" d="M124.5,234.3h10V231h1.7v-5h-2.7v2.3h-2.3V226h-2.7v2.3h-2.3V226h-1.7"/>
				<path class="st20" d="M130.2,232v1.3h-1.7V232H130.2z M127.2,232v1.3h-1.7V232H127.2z M133.2,232v1.3h-1.7V232H133.2z"/>
			</g>
			<g id="i-2">
				<path class="st20" d="M125.2,234.3h-10V231h-1.7v-5h2.7v2.3h2.3V226h2.7v2.3h2.3V226h1.7"/>
				<path class="st20" d="M119.5,232v1.3h1.7V232H119.5z M122.5,232v1.3h1.7V232H122.5z M116.5,232v1.3h1.7V232H116.5z"/>
			</g>
			<path class="st20" d="M98.2,207.3c10,0,13.7-5.7,13.7-8.3v-32.3h14.3V208c0,0-8.7-1-13-4.7c0,0-3.8,6.3-15.1,6.3"/>
			<g id="j">
				<path id="g" class="st21" d="M113.8,195.3c0.7,0,5-0.3,1.7,2.3c0,0,4.3,0.7,3.3-2.3c0,0,1.3,0.7,2.7-1"/>
				<path id="g-2" class="st21" d="M113.8,193.3c0.7,0,5,0.3,1.7-2.3c0,0,4.3-0.7,3.3,2.3c0,0,1.3-0.7,2.7,1"/>
			</g>
			<g id="j-2">
				<path id="g-3" class="st21" d="M113.8,177c0.7,0,5-0.3,1.7,2.3c0,0,4.3,0.7,3.3-2.3c0,0,1.3,0.7,2.7-1"/>
				<path id="g-4" class="st21" d="M113.8,175c0.7,0,5,0.3,1.7-2.3c0,0,4.3-0.7,3.3,2.3c0,0,1.3-0.7,2.7,1"/>
			</g>
			<path class="st21" d="M113.8,175v-8.3h10.3v38.6c-3.8-0.5-7.3-2-10.3-4.3v-5.7 M113.8,193.3V177"/>
			<path class="st20" d="M97.5,223.3h2V221h2.3v2.3h2.3V221h2.3v2.3h2.3V221h2.7v5h-14"/>
			<circle class="st20" cx="124.8" cy="256.6" r="2.3"/>
		</g>
	</g>
	<g>
		<defs>
			<rect id="SVGID_00000060729883085148682010000004255450227999547794_" width="195.6" height="280.6"/>
		</defs>
		<clipPath id="SVGID_00000145756007334874505310000001265856103868766603_">
			<use xlink:href="#SVGID_00000060729883085148682010000004255450227999547794_"  style="overflow:visible;"/>
		</clipPath>
		<g id="h-2" style="clip-path:url(#SVGID_00000145756007334874505310000001265856103868766603_);">
			
				<pattern  id="SVGID_00000159463549523204927880000008944695784398451349_" xlink:href="#SVGID_0000002471184314870541417" patternTransform="matrix(0.33 0 0 0.33 -10950.5098 4820.5522)">
			</pattern>
			
				<path style="fill:url(#SVGID_00000159463549523204927880000008944695784398451349_);stroke:#424242;stroke-width:0.75;stroke-linecap:round;stroke-linejoin:round;" d="
				M62.2,228.3h18.6v-61.6H62.2V228.3z"/>
			
				<pattern  id="SVGID_00000167371543209687121780000016233907233568448648_" xlink:href="#SVGID_0000011406864375973708493" patternTransform="matrix(0.2333 0.2333 -0.2333 0.2333 -12514.0205 3203.8943)">
			</pattern>
			
				<path style="fill:url(#SVGID_00000167371543209687121780000016233907233568448648_);stroke:#424242;stroke-width:0.75;stroke-linecap:round;stroke-linejoin:round;" d="
				M71.6,256.6l-7.7-22.3h15.3L71.6,256.6z"/>
			<g id="i-3">
				<path class="st20" d="M71.9,234.3h-10V231h-1.6v-5H63v2.3h2.3V226H68v2.3h2.3V226H72"/>
				<path class="st20" d="M66.2,232v1.3h1.7V232H66.2z M69.2,232v1.3h1.7V232H69.2z M63.2,232v1.3h1.7V232H63.2z"/>
			</g>
			<g id="i-4">
				<path class="st20" d="M71.2,234.3h10V231h1.7v-5h-2.7v2.3h-2.3V226h-2.7v2.3h-2.3V226h-1.7"/>
				<path class="st20" d="M76.9,232v1.3h-1.7V232H76.9z M73.9,232v1.3h-1.7V232H73.9z M79.9,232v1.3h-1.7V232H79.9z"/>
			</g>
			<path class="st20" d="M98.2,207.3c-10,0-13.7-5.7-13.7-8.3v-32.3H70.2V208c0,0,8.7-1,13-4.7c0,0,3.8,6.3,15.1,6.3"/>
			<g id="j-3">
				<path id="g-5" class="st21" d="M82.6,195.3c-0.7,0-5-0.3-1.7,2.3c0,0-4.3,0.7-3.3-2.3c0,0-1.3,0.7-2.7-1"/>
				<path id="g-6" class="st21" d="M82.6,193.3c-0.7,0-5,0.3-1.7-2.3c0,0-4.3-0.7-3.3,2.3c0,0-1.3-0.7-2.7,1"/>
			</g>
			<g id="j-4">
				<path id="g-7" class="st21" d="M82.6,177c-0.7,0-5-0.3-1.7,2.3c0,0-4.3,0.7-3.3-2.3c0,0-1.3,0.7-2.7-1"/>
				<path id="g-8" class="st21" d="M82.6,175c-0.7,0-5,0.3-1.7-2.3c0,0-4.3-0.7-3.3,2.3c0,0-1.3-0.7-2.7,1"/>
			</g>
			<path class="st21" d="M82.6,175v-8.3H72.2v38.6c3.8-0.5,7.3-2,10.3-4.3v-5.7 M82.6,193.3V177"/>
			<path class="st20" d="M98.9,223.3h-2V221h-2.3v2.3h-2.3V221H90v2.3h-2.3V221H85v5h14"/>
			<circle class="st20" cx="71.6" cy="256.6" r="2.3"/>
		</g>
	</g>
	<g>
		<defs>
			<rect id="SVGID_00000097497399492726074270000003476609642518505128_" width="195.6" height="280.6"/>
		</defs>
		<clipPath id="SVGID_00000008850098875867848260000004755519175332167315_">
			<use xlink:href="#SVGID_00000097497399492726074270000003476609642518505128_"  style="overflow:visible;"/>
		</clipPath>
		
			<path style="clip-path:url(#SVGID_00000008850098875867848260000004755519175332167315_);fill:#E8E7E7;stroke:#424242;stroke-width:0.75;stroke-linecap:round;stroke-linejoin:round;" d="
			M109.7,249.6l-1.5-2.2c0.8-0.6,1.6-1.3,2.3-2l-12.2-12.3L86,245.4c0.7,0.7,1.5,1.4,2.3,2l-1.5,2.2
			C93.5,254.7,102.8,254.7,109.7,249.6L109.7,249.6z"/>
	</g>
	<g>
		<defs>
			<rect id="SVGID_00000181051893109692992580000001470408956121392794_" width="195.6" height="280.6"/>
		</defs>
		<clipPath id="SVGID_00000078766722570861911120000000071590454703203263_">
			<use xlink:href="#SVGID_00000181051893109692992580000001470408956121392794_"  style="overflow:visible;"/>
		</clipPath>
		
			<path style="clip-path:url(#SVGID_00000078766722570861911120000000071590454703203263_);fill:none;stroke:#424242;stroke-width:0.75;stroke-linecap:round;stroke-linejoin:round;" d="
			M98.2,252.1c3.3,0,6.5-0.9,9.3-2.6l-0.7-1.2c-5.3,3.3-12,3.3-17.3,0l-0.7,1.2C91.7,251.2,94.9,252.1,98.2,252.1z M87.9,245.5
			c5.8,5.3,14.7,5.3,20.5,0l-10.3-12.4L87.9,245.5z"/>
	</g>
	<g>
		<defs>
			<rect id="SVGID_00000179624142893128219730000018223573599631293328_" width="195.6" height="280.6"/>
		</defs>
		<clipPath id="SVGID_00000070808846433475378140000006154036394669253774_">
			<use xlink:href="#SVGID_00000179624142893128219730000018223573599631293328_"  style="overflow:visible;"/>
		</clipPath>
		
			<path style="clip-path:url(#SVGID_00000070808846433475378140000006154036394669253774_);fill:#E8E7E7;stroke:#424242;stroke-width:0.75;stroke-linecap:round;stroke-linejoin:round;" d="
			M98.2,247.9c7.7,0,14-6.3,14-14c0-2.9-0.9-5.6-2.5-8h-23c-4.4,6.3-2.9,15.1,3.5,19.5C92.5,247.1,95.3,247.9,98.2,247.9L98.2,247.9
			z"/>
	</g>
	<g>
		<defs>
			<rect id="SVGID_00000062169828805673322100000006526741810147083655_" width="195.6" height="280.6"/>
		</defs>
		<clipPath id="SVGID_00000052804767701282360130000014204856897169879476_">
			<use xlink:href="#SVGID_00000062169828805673322100000006526741810147083655_"  style="overflow:visible;"/>
		</clipPath>
		
			<path style="clip-path:url(#SVGID_00000052804767701282360130000014204856897169879476_);fill:#E94539;stroke:#424242;stroke-width:0.75;stroke-linecap:round;stroke-linejoin:round;" d="
			M98.2,246.3c6.8,0,12.3-5.5,12.3-12.3c0-2.5-0.8-4.9-2.2-6.9H88.1c-3.8,5.6-2.4,13.3,3.2,17.1C93.3,245.5,95.7,246.3,98.2,246.3z"
			/>
	</g>
	<g>
		<defs>
			<rect id="SVGID_00000059299663388600695250000016749186248828984463_" width="195.6" height="280.6"/>
		</defs>
		<clipPath id="SVGID_00000034065931946753894710000000947019637449043889_">
			<use xlink:href="#SVGID_00000059299663388600695250000016749186248828984463_"  style="overflow:visible;"/>
		</clipPath>
		<g id="pahonia" style="clip-path:url(#SVGID_00000034065931946753894710000000947019637449043889_);">
			<path class="st30" d="M94.3,228.4c0.2-0.1,0.4-0.6,0.5-0.8c0-0.8-1.4-0.4-1.4-0.2s-0.1,0.8-0.4,0.8c-0.7,0.1-0.8,1.2-1.8,2.6
				c0.4,0.7,0.8,0.7,1.1,1.4c-0.6,1-1.2,1.5-0.8,3.4c-1.3-0.1-2.1-0.5-1.7-2c0.3-1.3,0.2-2.7-1.5-2.7c0.6,1-0.2,2.3-0.6,3.5
				c-0.3,1,0.2,2,1.2,2.2c0.3,0.1,0.7,0.1,1,0c1.3-0.3,1.2-0.7,1.9-0.3c2.4,2.1,4.9-0.2,7.4,0.9c0.1,2.8,1.6,5.4,4.8,5.2V242
				c-0.1,0.6,0.8,1.4,0.8,0.8s0-0.6,0.5-0.2c0.1-0.4,0-0.8-0.1-1.1c0.3-0.3,0.6-0.7,0.7-1.1c0.3-0.7,0.4-1.5,0.5-2.3
				c0-0.3,0-0.6-0.3-0.7s-0.5,0.2-0.6-0.2c0,0-0.5,0.1-0.5,0.3c-0.2,0.7-0.6,0.8-0.9,1c-0.7,0.1-1.2,0.8-1.1,1.6
				c0,0.1,0,0.1,0.1,0.2c-0.4-0.7,0.3-1.8,0.7-2.4c0.7-1,1.4-1.4,1.4-2.4c0.5,0.2,1,0.4,1.5,0.7c0.3,0.1,0.7,0,0.9-0.2
				c0.3-0.7,0.4-1.8,0.6-2.5c0.1-0.3-0.3-0.8-0.3-1.6c-0.2-0.3-0.6-0.5-1-0.4c-0.3,1-0.3,0.8,0.3,1.6c0,0.6-0.1,1.2-0.2,1.7
				c-0.4,0.3-0.9-0.4-1.2-0.7c-0.6-0.3-1.2-0.4-1.9-0.3c0.7-0.1,1.4,0,2,0.4c0.8,0.5,0.6-1.7,1-3c0-0.8-0.4-1.1-0.8-1.6
				c-1.3,0.7-0.6,1.4-0.2,1.5c0,0.6-0.1,1.3-0.2,1.9c-1.3-0.5-1.1-0.8-2.9-1.1c-0.4,0.3-0.7,0.7-0.9,1.1l0.3-0.5
				c-2.1-0.5-4.3-0.7-6.5-0.5c-0.6-0.5-1.3-0.9-2-1.1l1,0.4c0.1-0.8,0.7-2.4,1.5-2.6c0.2-0.3,0.4-0.6,0.5-0.9c0-0.5-1.4-0.4-1.3-0.1
				c-0.1,0.8-0.3,0.6-0.5,0.8c-0.2,0.9-0.6,1.8-1.1,2.5l-1.1-0.3c0.3-0.8,0.9-1.8,1.7-2L94.3,228.4z"/>
			<path class="st30" d="M105.3,235.5c0-0.6-0.1-1.1-0.3-1.6"/>
			<path class="st30" d="M98.9,229.4c1.1,1.1,3.1,5.3,1,8.1l-3.9-0.1c0.5-2.4,0.4-4.8-0.4-7.1c0.8,0,1.3,1,1.9,2.1l-0.7-2.9
				c1.1,0.6,1.8,1.6,2,2.8C98.9,230.6,98.5,230.5,98.9,229.4z"/>
			<path class="st30" d="M105,238.2l-0.5-2.2c-1.7,0.3-3.3,1-4.7,1.9c1.6-0.3,4.1-1.2,4.5-0.7l0.5,1.3"/>
			<path class="st30" d="M96.2,241.2l0.4,0.5c0.1,0.4-0.2,1-0.2,1.4c0,0.5,0.3,1,0.7,1.2c0.4-0.1,1.2-0.2,1.4-1.1
				c-0.1-0.2-0.2-0.3,0.2-0.9c-0.3-0.5,0.1-0.6-0.5-0.9c0.3,0,0.8,0.8,1.5,1c-0.2,0.7,0.5,1.8,0.2,2.2c-0.9,1.7,1.5,1.3,0.9,0.1
				c0-0.9,0-1.8,0.1-2.6l-1.7-1.5l-0.5-2.6c0.8-0.5,1.3-1.3,1.6-2.2c0.4-0.1,0.7-0.6,0.6-1c-0.1-0.9-0.2-1.9-0.1-2.8
				c0.6-0.1,1.2-0.3,1.6-0.7c-0.9-0.1-1.7-0.2-2.5-0.4c0.1,0.6,0,1.3-0.1,1.9c-0.3,0.5-0.4,1.2-0.3,1.8l-0.1,0.6l-1.9,1.5"/>
			<path class="st30" d="M100.9,230.8l0.1,1.4l0.6-1.3L100.9,230.8z"/>
			<path class="st30" d="M101,232.3l-0.2,0.7"/>
			<path class="st30" d="M96.9,240.4l0.6-0.1l-0.1-0.5l0.5-0.1l-0.1-0.5l-0.5,0.1l-0.1-0.5l0.6-0.1l-0.1-0.5l-0.6,0.1l-0.2-0.9
				l-0.6,0.1l0.2,0.9l-0.7,0.1l0.1,0.5l0.7-0.1l0.1,0.5l-0.6,0.1l0.1,0.5l0.6-0.1L96.9,240.4z M95.5,241.2l3.7-0.8
				c-0.6-3.1-1-4-3-4.6C94.8,237.3,94.8,238,95.5,241.2z M99.3,245.8h0.4v-1.6h-0.4v0.5h-4.4l-1,0.3l1,0.2h4.4V245.8z M97.1,244.3
				c-2.9,0.7-2.4-2-5.4-2.3C94.5,240,95.1,243.7,97.1,244.3z M98.5,243.2l-2-0.6 M98.3,241.3l1-0.8 M98.9,238.9l0.8-0.2
				c0.7-0.2,0.7-0.5,0.5-1s-1-0.3-0.8,0.1l-0.8,0.1l0.6-0.1l-0.6-5.1l-0.5-1l-0.2,1.1l0.3,4.3L99,237l-0.8,0.1"/>
			<path class="st31" d="M106.4,238.5c-0.3,0.1-0.7,0.1-1,0 M100.4,235.6l-1-0.7 M100.8,234.3l-1.4,0.1 M98.6,242.1
				c-0.3,0-0.3-0.2-0.5-0.1 M98.2,242.8H98 M97,242.7c-0.1-1.3,1.2-1.2,1.2-1.5c-0.5,0-1.1,0.1-1.5,0.4 M100.5,241.7
				c-0.2,0.3-0.5,0.6-0.9,0.7 M100.9,242.8c-0.4,0-0.8,0-1.2-0.2 M95.5,236.6c-0.7-0.9-0.6-2.2-0.4-3.6l-0.4-0.6l-0.1,0.6
				c-0.1,1.2-0.4,2.7,0.7,4 M96.2,234.7c-1.6-0.3-3.2-0.4-4.8-0.1 M96.2,235.1c-1.5-0.3-3.1-0.4-4.7-0.1 M94.2,237.2
				c-0.9-1.2-1.3-2.7-1-4.2l-0.4-0.6l-0.1,0.6c-0.3,1.5,0,3,0.9,4.2 M104.5,234.2c-1.3,0.2-2.6,0.6-3.8,1.1 M104.6,234.8
				c-1.4,0.2-2.8,0.7-4.1,1.3 M105.2,241.6c-0.8-0.2-1.6-0.6-2.1-1.3 M105.5,241.2c-1-0.2-1.9-0.8-2.5-1.8 M104.8,238.7
				c-0.8,0.9-1.9,2.5-1.6,3.3 M106.1,237.9l-0.1,0.2 M105.6,237.5l-0.2,0.3 M106.2,238.9c-0.3,0.1-0.7,0.1-1,0
				c-0.7,0.9-1.9,2.2-1.5,3.2 M104.9,242.5c0-0.2,0-0.3-0.1-0.5 M104.1,242.1c-3.2-0.1-3.6-2.3-4.1-3.6 M105.5,240.1l-0.2,0.3
				l-0.3,0.1l0.2-0.4L105.5,240.1z M100.8,244.8c-0.5-0.2-0.4,0.2-0.8,0.2"/>
			<ellipse class="st30" cx="104.8" cy="234.6" rx="0.3" ry="0.6"/>
			<circle class="st30" cx="101.1" cy="232.1" r="0.3"/>
			<circle class="st30" cx="101.2" cy="245" r="0.3"/>
			<circle class="st30" cx="105.1" cy="238.6" r="0.3"/>
			<circle class="st30" cx="103.7" cy="240.6" r="0.3"/>
			<circle class="st30" cx="94.7" cy="234.8" r="0.3"/>
			<circle class="st30" cx="93" cy="234.7" r="0.3"/>
		</g>
	</g>
	<g>
		<defs>
			<rect id="SVGID_00000062187055957858030800000016528336223309347713_" width="195.6" height="280.6"/>
		</defs>
		<clipPath id="SVGID_00000078025879608421694610000007264948159418333330_">
			<use xlink:href="#SVGID_00000062187055957858030800000016528336223309347713_"  style="overflow:visible;"/>
		</clipPath>
		
			<path style="clip-path:url(#SVGID_00000078025879608421694610000007264948159418333330_);fill:#E8E7E7;stroke:#424242;stroke-width:0.5;stroke-linecap:round;stroke-linejoin:round;" d="
			M98.5,200.3c1.7,3.3,0,4.7-2,4.3s-4.7-4-6.7-3c-0.3-0.3,1.7-3,4-1.7s3.7,4.7,4,0.3"/>
	</g>
	<g>
		<defs>
			<rect id="SVGID_00000042719946905400032870000010985053989892184747_" width="195.6" height="280.6"/>
		</defs>
		<clipPath id="SVGID_00000013173431922637319650000003730128680658735005_">
			<use xlink:href="#SVGID_00000042719946905400032870000010985053989892184747_"  style="overflow:visible;"/>
		</clipPath>
		
			<path style="clip-path:url(#SVGID_00000013173431922637319650000003730128680658735005_);fill:#E8E7E7;stroke:#424242;stroke-width:0.5;stroke-linecap:round;stroke-linejoin:round;" d="
			M101.9,190.3l2.3-2c0,0,1.3-2.3,3,0.3h0.3l1,3.3c0.7,0,1.3,0.6,1.3,1.3c0,0,0,0,0,0.1c0,0-0.3,1.3-1.3,1.3
			c-0.8-0.1-1.4-0.6-1.7-1.3c-1.3-1.7-1.3-3.3-2.3-2l-1,1.3"/>
	</g>
	<g>
		<defs>
			<rect id="SVGID_00000028298178543416592710000017839917570010182020_" width="195.6" height="280.6"/>
		</defs>
		<clipPath id="SVGID_00000053525524976294873780000018188212242080734121_">
			<use xlink:href="#SVGID_00000028298178543416592710000017839917570010182020_"  style="overflow:visible;"/>
		</clipPath>
		<g id="defender" style="clip-path:url(#SVGID_00000053525524976294873780000018188212242080734121_);">
			<path class="st35" d="M98.2,186.5l3,0.3c0,0,0.7,4.7,2.3,6c0,0,0,1.7-2.3,1.7c0,0-1.3,0.3-1,2.7c0,0,0.7,3.3-2.1,3.3"/>
			<path class="st35" d="M100.2,174.5c-0.3-1.3-0.3-2.7,1-5c0.3-1.3-1.3-1.3-0.3-2.7h5c0,0,1,0.7,0,1c-0.9,0.1-1.8,0.3-2.7,0.7
				c-0.7,2.7,0.3,3.7-0.3,6.3c0,0,0.7,1.3-0.3,2c0,0,0.7,4.2-0.3,6.3l-3.7-0.7C98.5,177.2,99.9,178.8,100.2,174.5z"/>
			<path class="st20" d="M98.1,182c0.9,0,1.8,0.1,2.7,0.3c0,1.7,0.3,4.5-2.7,4.2"/>
			<circle class="st35" cx="99" cy="197.8" r="0.2"/>
			<path class="st21" d="M101.2,194.5c-0.8-0.7-1.9-1.1-3-1"/>
			<path class="st31" d="M98.8,182l-0.5,4.5l1.6-4.3 M103.2,168.5c-1,0-1.8-0.7-2-1.7 M102.5,166.9c0,0-0.3,0.7,0.7,1.7
				 M103.9,168.2c-0.4-0.4-0.6-0.8-0.7-1.3 M104.2,166.9c0,0.5,0.3,0.9,0.7,1.2 M100.2,174.5c0.8,0.4,1.8,0.5,2.7,0.3 M102.6,181.8
				c-1.3-0.4-2.6-0.6-4-0.7 M98.7,180.2c1.4,0,2.7,0.2,4,0.7 M102.7,179.7c-1.2-0.5-2.5-0.7-3.8-0.6 M99.4,177.9
				c1.1,0,2.2,0.1,3.2,0.5 M102.5,177.2c-0.9-0.2-1.8-0.4-2.7-0.3 M100.2,175.8c0,0,1,0,1.3,0.7c0.2,0.4,0.6,0.5,1,0.4l0,0
				 M102.5,191.8c0,0-2,0.7-2,2.2 M99.9,193.7c0,0-0.7-1.5,2.2-3.2 M99.5,197.8c-0.3,0.2-0.6,0.2-0.9,0 M98.2,196.3
				c0.3-0.3,1,0,1-0.3"/>
			<path class="st35" d="M98.2,184.8c2.7,0,2.3-3.3,2.3-3.3c0.9,0,1.8,0.3,2.7,0.7c0,0-1,4-2,4.7l-3-0.3"/>
		</g>
	</g>
	<g>
		<defs>
			<rect id="SVGID_00000067939401587766688340000003494147131085117091_" width="195.6" height="280.6"/>
		</defs>
		<clipPath id="SVGID_00000160911200617243253630000000136390411590038448_">
			<use xlink:href="#SVGID_00000067939401587766688340000003494147131085117091_"  style="overflow:visible;"/>
		</clipPath>
		<g id="defender-2" style="clip-path:url(#SVGID_00000160911200617243253630000000136390411590038448_);">
			<path class="st35" d="M98.2,186.5l-3,0.3c0,0-0.7,4.7-2.3,6c0,0,0,1.7,2.3,1.7c0,0,1.3,0.3,1,2.7c0,0-0.7,3.3,2.1,3.3"/>
			<path class="st35" d="M96.2,174.5c0.3-1.3,0.3-2.7-1-5c-0.3-1.3,1.3-1.3,0.3-2.7h-5c0,0-1,0.7,0,1c0.9,0.1,1.8,0.3,2.7,0.7
				c0.7,2.7-0.3,3.7,0.3,6.3c0,0-0.7,1.3,0.3,2c0,0-0.7,4.2,0.3,6.3l3.7-0.7C97.9,177.2,96.5,178.8,96.2,174.5z"/>
			<path class="st20" d="M98.3,182c-0.9,0-1.8,0.1-2.7,0.3c0,1.7-0.3,4.5,2.7,4.2"/>
			<circle class="st35" cx="97.4" cy="197.8" r="0.2"/>
			<path class="st21" d="M95.2,194.5c0.8-0.7,1.9-1.1,3-1"/>
			<path class="st31" d="M97.6,182l0.5,4.5l-1.6-4.3 M93.2,168.5c1,0,1.8-0.7,2-1.7 M93.9,166.9c0,0,0.3,0.7-0.7,1.7 M92.5,168.2
				c0.4-0.4,0.6-0.8,0.7-1.3 M92.2,166.9c0,0.5-0.3,0.9-0.7,1.2 M96.2,174.5c-0.8,0.4-1.8,0.5-2.7,0.3 M93.8,181.8
				c1.3-0.4,2.6-0.6,4-0.7 M97.7,180.2c-1.4,0-2.7,0.2-4,0.7 M93.7,179.7c1.2-0.5,2.5-0.7,3.8-0.6 M97,177.9c-1.1,0-2.2,0.1-3.2,0.5
				 M93.8,177.2c0.9-0.2,1.8-0.4,2.7-0.3 M96.2,175.8c0,0-1,0-1.3,0.7c-0.2,0.4-0.6,0.5-1,0.4l0,0 M93.8,191.8c0,0,2,0.7,2,2.2
				 M96.5,193.7c0,0,0.7-1.5-2.2-3.2 M96.9,197.8c0.3,0.2,0.6,0.2,0.9,0 M98.2,196.3c-0.3-0.3-1,0-1-0.3"/>
			<path class="st35" d="M98.2,184.8c-2.7,0-2.3-3.3-2.3-3.3c-0.9,0-1.8,0.3-2.7,0.7c0,0,1,4,2,4.7l3-0.3"/>
		</g>
	</g>
	<g>
		<defs>
			<rect id="SVGID_00000034055025366173307310000015233500616053681078_" width="195.6" height="280.6"/>
		</defs>
		<clipPath id="SVGID_00000057861181259332515150000008461623506471732901_">
			<use xlink:href="#SVGID_00000034055025366173307310000015233500616053681078_"  style="overflow:visible;"/>
		</clipPath>
		
			<path style="clip-path:url(#SVGID_00000057861181259332515150000008461623506471732901_);fill:#E8E7E7;stroke:#424242;stroke-width:0.5;stroke-linecap:round;stroke-linejoin:round;" d="
			M92.9,192.8c-1.3-0.8-2.6-1.8-3.8-2.8c0,0-1.4-0.7,0-2.3l3.8-1.9l0.8-0.9c0,0-0.5-0.2,0.1-0.7c0,0,0.7-0.1,1.7,1.6
			c0,0,0.3,0.7-1,1l-3,1.8c0,0,0.4,0.2,0,0.5l2.8,1.1C94.1,191.3,93.6,192.1,92.9,192.8z"/>
	</g>
	<g>
		<defs>
			<rect id="SVGID_00000114757340527785888420000006649870890244335499_" width="195.6" height="280.6"/>
		</defs>
		<clipPath id="SVGID_00000050659811883344683840000011862928497373477050_">
			<use xlink:href="#SVGID_00000114757340527785888420000006649870890244335499_"  style="overflow:visible;"/>
		</clipPath>
		
			<path style="clip-path:url(#SVGID_00000050659811883344683840000011862928497373477050_);fill:#E8E7E7;stroke:#424242;stroke-width:0.75;stroke-linecap:round;stroke-linejoin:round;" d="
			M107.9,195.6l-6.3,8c-0.5,0.7-1.2,1.3-2,1.7c0.1-0.8,0.5-1.6,1-2.3l6.3-8.3"/>
	</g>
	<g>
		<defs>
			<rect id="SVGID_00000132809072353407656830000012386168809853758381_" width="195.6" height="280.6"/>
		</defs>
		<clipPath id="SVGID_00000039833667242360736200000004218151242948171444_">
			<use xlink:href="#SVGID_00000132809072353407656830000012386168809853758381_"  style="overflow:visible;"/>
		</clipPath>
		
			<path style="clip-path:url(#SVGID_00000039833667242360736200000004218151242948171444_);fill:#E8E7E7;stroke:#424242;stroke-width:0.75;stroke-linecap:round;stroke-linejoin:round;" d="
			M106.5,193.4c0,0,1.8,1.4,2.7,2.1l-0.5,0.6l-2.6-2.1L106.5,193.4z"/>
	</g>
	<g>
		<defs>
			<rect id="SVGID_00000050636325447459405930000002413517492902763166_" width="195.6" height="280.6"/>
		</defs>
		<clipPath id="SVGID_00000100358157618579791950000002447584618814910612_">
			<use xlink:href="#SVGID_00000050636325447459405930000002413517492902763166_"  style="overflow:visible;"/>
		</clipPath>
		
			<path style="clip-path:url(#SVGID_00000100358157618579791950000002447584618814910612_);fill:#E8E7E7;stroke:#424242;stroke-width:0.75;stroke-linecap:round;stroke-linejoin:round;" d="
			M96.2,198c1.2,0.7,2.8,0.7,4,0"/>
	</g>
	<g>
		<defs>
			<rect id="SVGID_00000136388060895906964340000009560614938006701206_" width="195.6" height="280.6"/>
		</defs>
		<clipPath id="SVGID_00000127044909686178692420000017192299085861227710_">
			<use xlink:href="#SVGID_00000136388060895906964340000009560614938006701206_"  style="overflow:visible;"/>
		</clipPath>
		
			<path style="clip-path:url(#SVGID_00000127044909686178692420000017192299085861227710_);fill:none;stroke:#424242;stroke-width:0.25;stroke-miterlimit:10;" d="
			M98.4,195.6h-0.3 M98.2,193.5v-7 M98.7,195.8c-0.3,0.1-0.7,0.1-1,0 M98.7,198.2c0,0-0.3,0-0.3-0.6v-0.9c0,0,0.3-0.3-0.2-0.3
			c-0.2,0-0.3,0.1-0.3,0.3 M89.1,190c0.7-0.5,1.6-0.7,2.5-0.8 M90.4,187.2c0.5,0.4,1,0.8,1.5,1.2 M91.6,188.8c0,0-2.5-1.4-2.5-1
			 M89.9,190.8c0.5-0.7,1.2-1.1,1.9-1.4 M93.9,187.2c-0.5-0.2-0.9-0.6-1-1.2 M101.9,202.3l5.4-7 M104.9,191c0,0-1.3-1.3-1.3-2
			 M104.2,188.3c0.2,0.8,0.5,1.6,1,2.3c0,0,0.3-2.7,1.3-2.7 M107.2,188.7c-0.7,0.7-1.2,1.5-1.7,2.3 M109.2,194.4
			c0,0,0.3-0.7-0.7-0.7c0,0-2-0.3,0-1.7 M106.5,192.7c0.4-0.6,1-1.1,1.7-1.3 M99.7,198.1c0.2-1.3-0.5-3.1-1.5-3.1s-1.7,1.8-1.5,3.1
			C97.7,198.5,98.7,198.5,99.7,198.1L99.7,198.1z"/>
	</g>
	<g>
		<defs>
			<rect id="SVGID_00000075126909477577490530000000965316371497346711_" width="195.6" height="280.6"/>
		</defs>
		<clipPath id="SVGID_00000127005574332871904590000002759153580435403165_">
			<use xlink:href="#SVGID_00000075126909477577490530000000965316371497346711_"  style="overflow:visible;"/>
		</clipPath>
		
			<circle style="clip-path:url(#SVGID_00000127005574332871904590000002759153580435403165_);fill:#E8E7E7;stroke:#424242;stroke-width:0.75;stroke-linecap:round;stroke-linejoin:round;" cx="109.9" cy="192" r="0.7"/>
	</g>
	<g>
		<defs>
			<rect id="SVGID_00000151537502161215321890000004724231854260558484_" width="195.6" height="280.6"/>
		</defs>
		<clipPath id="SVGID_00000177442525192856633870000003594583749612042160_">
			<use xlink:href="#SVGID_00000151537502161215321890000004724231854260558484_"  style="overflow:visible;"/>
		</clipPath>
		<path style="clip-path:url(#SVGID_00000177442525192856633870000003594583749612042160_);fill:#FFFFFF;" d="M80.4,99.6
			c-12.6,0-22.9,10.2-22.9,30.5c0,25.4,18.2,50.9,40.7,50.9s40.7-25.4,40.7-50.9c0-20.3-10.2-30.5-22.9-30.5
			c-6.9,0-13.5,3.1-17.8,8.5C93.9,102.8,87.3,99.6,80.4,99.6z"/>
	</g>
	<g>
		<defs>
			<rect id="SVGID_00000003786382026799050340000001154978967851952779_" width="195.6" height="280.6"/>
		</defs>
		<clipPath id="SVGID_00000099633588204828573540000000719761288676836230_">
			<use xlink:href="#SVGID_00000003786382026799050340000001154978967851952779_"  style="overflow:visible;"/>
		</clipPath>
		<path style="clip-path:url(#SVGID_00000099633588204828573540000000719761288676836230_);fill:#FFFFFF;" d="M30.8,112.8h134.7
			c3,0,5.5,2.4,5.5,5.5v44c0,3-2.4,5.5-5.5,5.5H30.8c-3,0-5.5-2.4-5.5-5.5v-44C25.4,115.3,27.8,112.8,30.8,112.8z"/>
	</g>
	<g>
		<defs>
			<rect id="SVGID_00000065760800320729363790000015020122005804167572_" width="195.6" height="280.6"/>
		</defs>
		<clipPath id="SVGID_00000170987869969070847050000005931666399423142590_">
			<use xlink:href="#SVGID_00000065760800320729363790000015020122005804167572_"  style="overflow:visible;"/>
		</clipPath>
	</g>
	<g>
		<defs>
			<rect id="SVGID_00000052083870881950202130000011592024622608420274_" width="195.6" height="280.6"/>
		</defs>
		<clipPath id="SVGID_00000047764582686176021350000011387844566811734709_">
			<use xlink:href="#SVGID_00000052083870881950202130000011592024622608420274_"  style="overflow:visible;"/>
		</clipPath>
	</g>
	<g>
		<defs>
			<rect id="SVGID_00000093874700879220089520000000545163634544160666_" width="195.6" height="280.6"/>
		</defs>
		<clipPath id="SVGID_00000000217709993840375210000004685459531498251454_">
			<use xlink:href="#SVGID_00000093874700879220089520000000545163634544160666_"  style="overflow:visible;"/>
		</clipPath>
		<path style="clip-path:url(#SVGID_00000000217709993840375210000004685459531498251454_);fill:#FFFFFF;" d="M44.9,0h-29H0v16
			c0,7,0,14,0,21c10.3,12.3,28.7,14,41,3.7c6.6-5.5,10.4-13.7,10.4-22.4C51.4,11.6,49.1,5.2,44.9,0z"/>
	</g>
	<g>
		<defs>
			<rect id="SVGID_00000078735882168337332530000011878136403067950982_" width="195.6" height="280.6"/>
		</defs>
		<clipPath id="SVGID_00000137131383209590128460000014764763445185091501_">
			<use xlink:href="#SVGID_00000078735882168337332530000011878136403067950982_"  style="overflow:visible;"/>
		</clipPath>
	</g>
</g>
<g class="st46">
	<path class="st47" d="M70.2,119.4l-1.7,15.1h-4.9c-0.4-2.3-0.8-5-1.2-7.9c-0.2,1.3-0.5,3.9-1.1,7.9h-4.9l-1.8-15.1h3.8l0.4,5.3
		l0.4,5.1c0.1-2.6,0.5-6.1,1.1-10.4h4.1c0.1,0.4,0.2,2.1,0.4,5l0.4,5.7c0.2-3.7,0.6-7.2,1.1-10.7H70.2z"/>
	<path class="st47" d="M74.9,124.7l0.7-0.2v1.6l-0.7,0.2v8.1H71v-7l-0.7,0.2v-1.6l0.7-0.2v-6.5h3.9V124.7z"/>
	<path class="st47" d="M84.9,126.5v3c0,1.1-0.1,1.9-0.2,2.4c-0.1,0.5-0.4,1-0.7,1.5c-0.4,0.5-0.8,0.8-1.4,1c-0.6,0.2-1.2,0.3-2,0.3
		c-0.8,0-1.5-0.1-2.1-0.3c-0.6-0.2-1-0.5-1.3-0.8c-0.3-0.4-0.5-0.8-0.7-1.3s-0.2-1.3-0.2-2.4v-3.2c0-1.2,0.1-2,0.4-2.7
		c0.2-0.6,0.7-1.2,1.3-1.6s1.5-0.6,2.5-0.6c0.8,0,1.6,0.1,2.2,0.4s1.1,0.6,1.4,1s0.6,0.8,0.7,1.3C84.8,124.9,84.9,125.6,84.9,126.5z
		 M81.1,125.5c0-0.6,0-1-0.1-1.2c-0.1-0.2-0.2-0.2-0.4-0.2c-0.2,0-0.4,0.1-0.4,0.2s-0.1,0.6-0.1,1.2v5.6c0,0.6,0,1,0.1,1.1
		c0.1,0.2,0.2,0.3,0.4,0.3c0.2,0,0.4-0.1,0.4-0.2c0.1-0.2,0.1-0.5,0.1-1V125.5z"/>
	<path class="st47" d="M94.4,126.8h-3.6v-1.4c0-0.5,0-0.8-0.1-1c-0.1-0.2-0.2-0.3-0.4-0.3c-0.2,0-0.4,0.1-0.4,0.2
		c-0.1,0.2-0.1,0.5-0.1,1v5.8c0,0.4,0.1,0.8,0.2,1s0.3,0.3,0.5,0.3c0.3,0,0.4-0.1,0.5-0.3c0.1-0.2,0.1-0.7,0.1-1.3v-1.5h3.4
		c0,1,0,1.7-0.1,2.2c-0.1,0.5-0.3,1-0.6,1.5c-0.4,0.5-0.8,0.9-1.4,1.2c-0.6,0.3-1.3,0.4-2.1,0.4c-1.1,0-1.9-0.2-2.5-0.5
		c-0.6-0.4-1.1-0.9-1.3-1.5c-0.3-0.7-0.4-1.6-0.4-2.8v-3.5c0-1.1,0.1-1.8,0.3-2.4s0.7-1,1.4-1.4s1.5-0.6,2.5-0.6
		c1,0,1.8,0.2,2.5,0.6c0.7,0.4,1.2,0.9,1.4,1.6S94.4,125.6,94.4,126.8z"/>
	<path class="st47" d="M99.6,124.7l0.7-0.2v1.6l-0.7,0.2v8.1h-3.9v-7l-0.7,0.2v-1.6l0.7-0.2v-6.5h3.9V124.7z"/>
	<path class="st47" d="M104.4,126.9h-3.5v-0.8c0-1,0.1-1.7,0.3-2.2s0.7-1,1.3-1.4c0.7-0.4,1.5-0.6,2.6-0.6c1.3,0,2.2,0.2,2.9,0.7
		c0.6,0.5,1,1,1.2,1.7s0.2,2,0.2,4.1v6.2h-3.7v-1.1c-0.2,0.4-0.5,0.8-0.9,1c-0.4,0.2-0.8,0.3-1.3,0.3c-0.7,0-1.3-0.2-1.8-0.6
		s-0.8-1.2-0.8-2.4v-1c0-0.9,0.1-1.6,0.4-1.9c0.3-0.3,1-0.7,2.2-1.2c1.2-0.5,1.9-0.8,2-1s0.1-0.5,0.1-1c0-0.6,0-1.1-0.1-1.3
		c-0.1-0.2-0.3-0.3-0.5-0.3c-0.3,0-0.4,0.1-0.5,0.2s-0.1,0.6-0.1,1.3V126.9z M105.6,128.6c-0.6,0.4-1,0.8-1,1.1
		c-0.1,0.3-0.1,0.7-0.1,1.3c0,0.6,0,1.1,0.1,1.2s0.2,0.3,0.5,0.3c0.2,0,0.4-0.1,0.5-0.2c0.1-0.1,0.1-0.5,0.1-1.2V128.6z"/>
	<path class="st47" d="M122.8,122.1l-1.5,12.4h-4.1c-0.2-1.5-0.5-3.5-0.8-6c-0.1,1.1-0.2,2.2-0.4,3.3l-0.4,2.7h-4.1l-1.6-12.4h3.2
		c0,0.3,0.3,2.7,0.8,7.1c0-0.5,0.3-2.8,0.8-7.1h3.1l0.8,7.1c0.1-2.1,0.4-4.4,0.9-7.1H122.8z"/>
	<path class="st47" d="M132,128.5h-4.9v2.7c0,0.6,0,0.9,0.1,1.1c0.1,0.2,0.2,0.2,0.5,0.2c0.3,0,0.5-0.1,0.6-0.3s0.1-0.6,0.1-1.2
		v-1.6h3.6v0.9c0,0.8,0,1.4-0.1,1.8c-0.1,0.4-0.3,0.8-0.7,1.3s-0.8,0.8-1.3,1s-1.2,0.3-2,0.3c-0.8,0-1.5-0.1-2.1-0.3
		c-0.6-0.2-1.1-0.5-1.4-0.9s-0.6-0.8-0.7-1.3c-0.1-0.5-0.2-1.2-0.2-2.1v-3.6c0-1.1,0.1-1.9,0.4-2.6s0.8-1.1,1.4-1.4
		c0.7-0.3,1.4-0.5,2.3-0.5c1.1,0,1.9,0.2,2.6,0.6c0.7,0.4,1.2,0.9,1.4,1.6c0.3,0.7,0.4,1.6,0.4,2.8V128.5z M128.2,126.5v-0.9
		c0-0.6,0-1.1-0.1-1.2c-0.1-0.2-0.2-0.3-0.4-0.3c-0.3,0-0.4,0.1-0.5,0.2c-0.1,0.2-0.1,0.6-0.1,1.3v0.9H128.2z"/>
	<path class="st47" d="M141.3,122.1l-1.5,4.9l2,7.5h-3.6l-1.2-5.4l0,5.4h-3.8v-15.1h3.8l0,6.3l1.2-3.6H141.3z"/>
</g>
<g class="st46">
	<path class="st47" d="M73.7,141v19.6h-4.5l0-13.2l-1.8,13.2h-3.2l-1.9-12.9l0,12.9H58V141h6.6c0.2,1.2,0.4,2.6,0.6,4.2l0.7,5
		l1.2-9.1H73.7z"/>
	<path class="st47" d="M80,150.7h-4.6v-1.1c0-1.2,0.1-2.2,0.4-2.9c0.3-0.7,0.9-1.3,1.7-1.8c0.9-0.5,2-0.8,3.4-0.8
		c1.7,0,2.9,0.3,3.7,0.9c0.8,0.6,1.3,1.3,1.5,2.2c0.2,0.9,0.3,2.6,0.3,5.3v8.1h-4.8v-1.4c-0.3,0.6-0.7,1-1.2,1.3
		c-0.5,0.3-1,0.4-1.7,0.4c-0.9,0-1.6-0.2-2.4-0.7c-0.7-0.5-1.1-1.5-1.1-3.2v-1.3c0-1.2,0.2-2,0.6-2.5c0.4-0.4,1.3-0.9,2.8-1.5
		c1.6-0.6,2.5-1.1,2.6-1.3s0.2-0.7,0.2-1.3c0-0.8-0.1-1.4-0.2-1.6c-0.1-0.3-0.3-0.4-0.6-0.4c-0.3,0-0.5,0.1-0.6,0.3
		c-0.1,0.2-0.1,0.8-0.1,1.7V150.7z M81.5,152.9c-0.8,0.6-1.2,1.1-1.4,1.4S80,155.3,80,156c0,0.8,0.1,1.4,0.2,1.6
		c0.1,0.2,0.3,0.4,0.6,0.4c0.3,0,0.5-0.1,0.6-0.3s0.1-0.7,0.1-1.5V152.9z"/>
	<path class="st47" d="M93,141v4.4c0.4-0.4,0.9-0.7,1.4-0.9s1-0.3,1.6-0.3c0.9,0,1.6,0.2,2.2,0.7c0.6,0.4,1,0.9,1.1,1.5
		c0.1,0.6,0.2,1.6,0.2,3.1v11.1h-4.9v-11.3c0-0.9,0-1.5-0.1-1.8c-0.1-0.3-0.3-0.4-0.6-0.4c-0.3,0-0.5,0.1-0.6,0.4
		c-0.1,0.3-0.2,0.8-0.2,1.6v11.5h-4.9V141H93z"/>
	<path class="st47" d="M106.1,141v2.6h-5V141H106.1z M106.1,144.5v16h-5v-16H106.1z"/>
	<path class="st47" d="M112.9,141v19.6h-5V141H112.9z"/>
	<path class="st47" d="M125.7,150.1v3.9c0,1.4-0.1,2.5-0.2,3.2c-0.1,0.7-0.5,1.3-0.9,1.9c-0.5,0.6-1.1,1-1.8,1.3s-1.6,0.4-2.6,0.4
		c-1.1,0-2-0.1-2.7-0.4c-0.8-0.2-1.3-0.6-1.7-1.1c-0.4-0.5-0.7-1.1-0.9-1.7c-0.2-0.7-0.3-1.7-0.3-3.1v-4.1c0-1.5,0.2-2.7,0.5-3.5
		c0.3-0.8,0.9-1.5,1.7-2c0.8-0.5,1.9-0.8,3.2-0.8c1.1,0,2,0.2,2.8,0.5c0.8,0.3,1.4,0.8,1.8,1.3c0.4,0.5,0.7,1.1,0.9,1.6
		C125.6,148.2,125.7,149,125.7,150.1z M120.8,148.9c0-0.8,0-1.3-0.1-1.6c-0.1-0.2-0.3-0.3-0.6-0.3s-0.5,0.1-0.6,0.3
		c-0.1,0.2-0.1,0.7-0.1,1.6v7.2c0,0.8,0,1.3,0.1,1.5c0.1,0.2,0.3,0.3,0.6,0.3c0.3,0,0.5-0.1,0.6-0.3s0.1-0.7,0.1-1.4V148.9z"/>
	<path class="st47" d="M138.5,144.5v16h-5l0.1-1.3c-0.3,0.5-0.8,0.9-1.3,1.2c-0.5,0.3-1.1,0.4-1.7,0.4c-0.7,0-1.3-0.1-1.8-0.4
		c-0.5-0.3-0.8-0.6-1.1-1c-0.2-0.4-0.4-0.9-0.4-1.3s-0.1-1.4-0.1-2.8v-10.8h4.9v10.9c0,1.2,0,2,0.1,2.2c0.1,0.2,0.3,0.4,0.6,0.4
		c0.4,0,0.6-0.1,0.6-0.4c0.1-0.2,0.1-1,0.1-2.3v-10.8H138.5z M134.2,139.8h2.1c0,1.1-0.4,2-1,2.6c-0.6,0.7-1.4,1-2.5,1
		c-1.1,0-1.9-0.3-2.5-1c-0.6-0.7-0.9-1.6-0.9-2.6h2.1c0.1,1.1,0.6,1.7,1.4,1.7C133.7,141.4,134.2,140.9,134.2,139.8z"/>
</g>
<g class="st46">
	<path class="st47" d="M23.7,22.8c0.6,0.2,1,0.5,1.3,1c0.3,0.5,0.4,1.5,0.4,3.2c0,1.3-0.1,2.2-0.4,2.9s-0.8,1.2-1.5,1.6
		s-1.6,0.5-2.7,0.5c-1.2,0-2.2-0.2-2.9-0.6s-1.2-0.9-1.4-1.5s-0.3-1.7-0.3-3.2v-1.2h3.9V28c0,0.7,0,1.1,0.1,1.3s0.3,0.3,0.5,0.3
		c0.3,0,0.5-0.1,0.6-0.4s0.1-0.8,0.1-1.8v-1.1c0-0.6-0.1-1-0.2-1.3s-0.3-0.5-0.6-0.6s-0.8-0.1-1.6-0.2V22c0.9,0,1.5,0,1.7-0.1
		s0.4-0.2,0.5-0.5s0.1-0.6,0.1-1.1v-0.9c0-0.6-0.1-0.9-0.2-1.1s-0.3-0.3-0.5-0.3c-0.3,0-0.5,0.1-0.6,0.3s-0.2,0.6-0.2,1.2v1.3h-3.9
		v-1.3c0-1.5,0.3-2.5,1-3.1s1.8-0.8,3.3-0.8c1.9,0,3.2,0.4,3.8,1.1s1,1.8,1,3.1c0,0.9-0.1,1.5-0.4,1.9S24.3,22.5,23.7,22.8z"/>
	<path class="st47" d="M26.8,27.6h3.9c0,0.7,0,1.2,0,1.4s0.1,0.4,0.2,0.5s0.3,0.2,0.6,0.2c0.2,0,0.4-0.1,0.5-0.2s0.2-0.3,0.2-0.5
		s0-0.6,0-1.2v-2.5c-0.2,0.4-0.5,0.7-0.9,1s-0.9,0.3-1.5,0.3c-0.7,0-1.4-0.2-1.9-0.6s-0.9-0.9-1.1-1.4s-0.2-1.3-0.2-2.2v-1.3
		c0-1.1,0-1.9,0.1-2.5s0.3-1,0.7-1.5s0.9-0.8,1.5-1.1s1.4-0.4,2.2-0.4c1.1,0,1.9,0.1,2.6,0.4s1.2,0.7,1.6,1.3s0.6,1.1,0.6,1.7
		s0.1,1.8,0.1,3.5v2.2c0,1.9,0,3.1-0.1,3.8s-0.3,1.2-0.7,1.8s-0.9,1-1.6,1.3s-1.5,0.4-2.4,0.4c-1.1,0-2-0.2-2.7-0.5
		s-1.2-0.9-1.5-1.5S26.8,28.5,26.8,27.6z M30.8,22.6c0,0.7,0.1,1.1,0.3,1.2s0.4,0.2,0.5,0.2c0.3,0,0.5-0.1,0.6-0.3s0.2-0.6,0.2-1.2
		v-2.9c0-0.7-0.1-1.2-0.2-1.4s-0.3-0.3-0.6-0.3c-0.2,0-0.3,0.1-0.5,0.2s-0.3,0.6-0.3,1.3V22.6z"/>
</g>
</svg>
