<?xml version="1.0" encoding="utf-8"?>
<!-- Generator: Adobe Illustrator 26.0.3, SVG Export Plug-In . SVG Version: 6.00 Build 0)  -->
<svg version="1.1" id="Слой_1" xmlns="http://www.w3.org/2000/svg" xmlns:xlink="http://www.w3.org/1999/xlink" x="0px" y="0px"
	 viewBox="0 0 195.6 280.6" style="enable-background:new 0 0 195.6 280.6;" xml:space="preserve">
<style type="text/css">
	.st0{fill:#EB5A53;}
	.st1{font-family:'Impact';}
	.st2{font-size:63.44px;}
	.st3{letter-spacing:1;}
	.st4{clip-path:url(#SVGID_00000173880343422262133100000008023375175172263103_);enable-background:new    ;}
	.st5{font-size:53.95px;}
	.st6{clip-path:url(#SVGID_00000173880343422262133100000008023375175172263103_);fill:#EB5A53;}
	.st7{fill:#FFFFFF;}
	.st8{font-size:20px;}
</style>
<g>
	<defs>
		<rect id="SVGID_1_" x="0" y="0" width="195.6" height="280.6"/>
	</defs>
	<clipPath id="SVGID_00000014625695617598055910000002686692390020256408_">
		<use xlink:href="#SVGID_1_"  style="overflow:visible;"/>
	</clipPath>
	<text transform="matrix(1 0 0 1 26.83 202.71)" class="st0 st1 st2">C</text>
	<text transform="matrix(1 0 0 1 61.96 202.71)" class="st0 st1 st2 st3">z</text>
	<text transform="matrix(1 0 0 1 85.62 202.71)" class="st0 st1 st2">yże</text>
	<text transform="matrix(1 0 0 1 26.83 77.4)" class="st0 st1 st2">C</text>
	<text transform="matrix(1 0 0 1 61.96 77.4)" class="st0 st1 st2 st3">z</text>
	<text transform="matrix(1 0 0 1 85.62 77.4)" class="st0 st1 st2">yże</text>
	<g style="clip-path:url(#SVGID_00000014625695617598055910000002686692390020256408_);enable-background:new    ;">
		<text transform="matrix(1 0 0 1 20 135.52)" class="st0 st1 st5">Чыжы</text>
	</g>
	<g style="clip-path:url(#SVGID_00000014625695617598055910000002686692390020256408_);enable-background:new    ;">
		<text transform="matrix(1 0 0 1 20 265.37)" class="st0 st1 st5">Чыжы</text>
	</g>
	<path style="clip-path:url(#SVGID_00000014625695617598055910000002686692390020256408_);fill:#EB5A53;" d="M45,0H16h-16v16
		c0,7,0,14,0,21c10.3,12.4,28.6,14,41,3.8c6.7-5.5,10.5-13.8,10.5-22.5C51.6,11.6,49.3,5.2,45,0z"/>
	<g style="clip-path:url(#SVGID_00000014625695617598055910000002686692390020256408_);enable-background:new    ;">
		<text transform="matrix(1 0 0 1 15.67 31.75)" class="st7 st1 st8">20</text>
	</g>
</g>
</svg>
