<?xml version="1.0" encoding="utf-8"?>
<!-- Generator: Adobe Illustrator 26.0.1, SVG Export Plug-In . SVG Version: 6.00 Build 0)  -->
<svg version="1.1" id="Слой_1" xmlns="http://www.w3.org/2000/svg" xmlns:xlink="http://www.w3.org/1999/xlink" x="0px" y="0px"
	 viewBox="0 0 195.6 280.6" style="enable-background:new 0 0 195.6 280.6;" xml:space="preserve">
<style type="text/css">
	.st0{clip-path:url(#SVGID_00000180330748232285464800000013328326155104724121_);fill:#3A81C3;}
	.st1{clip-path:url(#SVGID_00000001657249245508281380000013901146207685534141_);}
	.st2{fill-rule:evenodd;clip-rule:evenodd;fill:#DC2D1A;}
	.st3{clip-path:url(#SVGID_00000173146518918345896250000008382686801535279002_);}
	.st4{fill-rule:evenodd;clip-rule:evenodd;fill:#FFFFFF;}
	.st5{fill:#FFFFFF;}
	.st6{clip-path:url(#SVGID_00000077311991076970897450000004373550240620998828_);}
	.st7{fill-rule:evenodd;clip-rule:evenodd;fill:#EAA518;}
	.st8{fill-rule:evenodd;clip-rule:evenodd;fill:#EAA518;stroke:#424242;stroke-width:0.75;stroke-miterlimit:10;}
	.st9{fill-rule:evenodd;clip-rule:evenodd;fill:#FFFFFF;stroke:#424242;stroke-width:0.75;stroke-miterlimit:10;}
	.st10{fill:#FFFFFF;stroke:#424242;stroke-width:0.75;stroke-miterlimit:10;}
	.st11{fill-rule:evenodd;clip-rule:evenodd;fill:#424242;}
	.st12{fill-rule:evenodd;clip-rule:evenodd;fill:#1D528D;}
	.st13{fill:#EAA518;stroke:#424242;stroke-width:0.75;stroke-miterlimit:10;}
	.st14{fill:#424242;}
	.st15{fill:none;stroke:#424242;stroke-width:0.75;stroke-miterlimit:10;}
	.st16{clip-path:url(#SVGID_00000161622017707104589360000000417990134980144562_);}
	.st17{fill:none;stroke:#FFFFFF;stroke-width:0.75;stroke-miterlimit:10;}
	
		.st18{clip-path:url(#SVGID_00000049184768563960796040000007547556583645388968_);fill-rule:evenodd;clip-rule:evenodd;fill:#1D528D;}
	.st19{clip-path:url(#SVGID_00000023243378046653680670000014668080488009671832_);fill:#FFFFFF;}
	.st20{clip-path:url(#SVGID_00000014600045973530258970000013658524778249485997_);fill:#FFFFFF;}
	.st21{clip-path:url(#SVGID_00000136369240503068457350000008167566765773509769_);fill:#FFFFFF;}
	
		.st22{clip-path:url(#SVGID_00000044149334520094348670000007816369445875019420_);fill-rule:evenodd;clip-rule:evenodd;fill:#FECA0D;}
	
		.st23{clip-path:url(#SVGID_00000044889025116714565260000012871874754095252923_);fill-rule:evenodd;clip-rule:evenodd;fill:#FECA0D;}
	
		.st24{clip-path:url(#SVGID_00000183235465568660104430000014166229195528298650_);fill-rule:evenodd;clip-rule:evenodd;fill:#FFFFFF;}
	
		.st25{clip-path:url(#SVGID_00000176757212982144202380000005741417093683095472_);fill-rule:evenodd;clip-rule:evenodd;fill:#FFFFFF;}
	
		.st26{clip-path:url(#SVGID_00000170966615698001337860000015463558188600088222_);fill-rule:evenodd;clip-rule:evenodd;fill:#FFFFFF;}
	
		.st27{clip-path:url(#SVGID_00000111187770443744305020000008603739220549805481_);fill-rule:evenodd;clip-rule:evenodd;fill:#FFFFFF;}
	
		.st28{clip-path:url(#SVGID_00000176012486231298198670000017929211627849076136_);fill-rule:evenodd;clip-rule:evenodd;fill:#FFFFFF;}
	
		.st29{clip-path:url(#SVGID_00000049906100392851541820000013381054765904888223_);fill-rule:evenodd;clip-rule:evenodd;fill:#FFFFFF;}
	
		.st30{clip-path:url(#SVGID_00000143583997977334527920000014614004885763866784_);fill-rule:evenodd;clip-rule:evenodd;fill:#FFFFFF;}
	
		.st31{clip-path:url(#SVGID_00000029734218687635033940000009591673728784104596_);fill-rule:evenodd;clip-rule:evenodd;fill:#FFFFFF;}
	
		.st32{clip-path:url(#SVGID_00000104673671146326679230000004205046333843003063_);fill-rule:evenodd;clip-rule:evenodd;fill:#FFFFFF;}
	
		.st33{clip-path:url(#SVGID_00000023281883041365333190000001481456181817770368_);fill-rule:evenodd;clip-rule:evenodd;fill:#FFFFFF;}
	
		.st34{clip-path:url(#SVGID_00000067920592188232221370000013127371928387157645_);fill-rule:evenodd;clip-rule:evenodd;fill:#FFFFFF;}
	
		.st35{clip-path:url(#SVGID_00000011750069163270491580000013894845344671048579_);fill-rule:evenodd;clip-rule:evenodd;fill:#FFFFFF;}
	.st36{clip-path:url(#SVGID_00000114766041732250813130000002438753362449116570_);fill:#FFFFFF;}
	.st37{clip-path:url(#SVGID_00000175316680671436002820000015465583441062636728_);fill:#FFFFFF;}
	.st38{clip-path:url(#SVGID_00000180358237706650280330000010662053114128913029_);fill:#FFFFFF;}
	.st39{enable-background:new    ;}
	.st40{fill:#1D528D;}
</style>
<g>
	<g>
		<defs>
			<rect id="SVGID_1_" width="195.6" height="280.6"/>
		</defs>
		<clipPath id="SVGID_00000036241878980703375120000003446089382982510487_">
			<use xlink:href="#SVGID_1_"  style="overflow:visible;"/>
		</clipPath>
		
			<rect x="-9.2" y="-8.4" style="clip-path:url(#SVGID_00000036241878980703375120000003446089382982510487_);fill:#3A81C3;" width="214" height="297.9"/>
	</g>
	<g>
		<defs>
			<rect id="SVGID_00000000921343053136180370000012052668588132050618_" width="195.6" height="280.6"/>
		</defs>
		<clipPath id="SVGID_00000155861700677284197200000018327074756922407308_">
			<use xlink:href="#SVGID_00000000921343053136180370000012052668588132050618_"  style="overflow:visible;"/>
		</clipPath>
		<g id="layer5" style="clip-path:url(#SVGID_00000155861700677284197200000018327074756922407308_);">
			<path id="path1481" class="st2" d="M98,138.1c7.7,7.7,24,12.1,35.7,18.5c16.9,9.1,16,19.6,16,33.2V268H97.9
				C90.4,204,91.2,144.9,98,138.1z"/>
			<path id="path1483" class="st2" d="M97.8,138.1c-7.7,7.7-24,12.1-35.7,18.5c-16.9,9.1-16,19.6-16,33.2V268h51.8"/>
		</g>
	</g>
	<g>
		<defs>
			<rect id="SVGID_00000000924589663409559040000001034632980142375320_" width="195.6" height="280.6"/>
		</defs>
		<clipPath id="SVGID_00000016038182567488603620000009388221439527080100_">
			<use xlink:href="#SVGID_00000000924589663409559040000001034632980142375320_"  style="overflow:visible;"/>
		</clipPath>
		<g id="layer4" style="clip-path:url(#SVGID_00000016038182567488603620000009388221439527080100_);">
			<path id="path2505" class="st4" d="M149.1,177.3H46.6c-1.1-22.3,40-27.3,51.2-39C108.6,148.9,149.8,155,149.1,177.3z"/>
			<g id="g2749">
				<path id="path2509" class="st4" d="M98.3,220.7l25.7-46.4H95.2C96.2,189.9,93.6,219,98.3,220.7z"/>
				<path id="path2512" class="st4" d="M97.8,221.7l-26.3-47.4h28.8C99.3,189.8,103,198.6,97.8,221.7z"/>
			</g>
			<rect id="rect2514" x="130" y="174.1" class="st5" width="7.1" height="5.9"/>
			<rect id="rect2520" x="58.7" y="174.4" class="st5" width="7.2" height="5.5"/>
			<rect id="rect2753" x="62.2" y="173.1" class="st5" width="14.4" height="9.8"/>
			<rect id="rect2755" x="119.3" y="175.9" class="st5" width="14.1" height="7.2"/>
		</g>
	</g>
	<g>
		<defs>
			<rect id="SVGID_00000172433694105732341660000003575117145451252879_" width="195.6" height="280.6"/>
		</defs>
		<clipPath id="SVGID_00000109718688920557788830000005737524808392076191_">
			<use xlink:href="#SVGID_00000172433694105732341660000003575117145451252879_"  style="overflow:visible;"/>
		</clipPath>
		<g id="layer3" style="clip-path:url(#SVGID_00000109718688920557788830000005737524808392076191_);">
			<g id="g3751">
				<path id="rect3705" class="st7" d="M97.1,237.2v-15.8c0.5,0.1,1.6-0.4,1.5,0.4v15.4L97.1,237.2L97.1,237.2z"/>
				<path id="rect2830" class="st7" d="M103.4,232.4H92.2c0.1-0.5-0.3-1.5,0.3-1.5h10.9V232.4z"/>
				<g id="g2802">
					<path id="path2776" class="st8" d="M97.2,237.2c-0.8-0.1-1.8,0.3-2.4-0.3c-0.3-0.4-0.2-0.9,0.2-1.2c0.2-0.2,0.6-0.2,0.8-0.1
						h1.4"/>
					<path id="path2778" class="st8" d="M98.5,235.6c0.8,0.1,1.8-0.3,2.4,0.3c0.6,0.9-0.4,1.5-1.2,1.3H97"/>
					<path id="path2780" class="st8" d="M97.1,235.9v-3.6 M98.6,221.4c0,3.3,0,6.5,0,9.8 M97.1,231.1v-9.7 M98.6,232.2v3.6"/>
				</g>
				<path id="path2812" class="st8" d="M92.2,231c0.1-0.8-0.3-1.8,0.3-2.4c0.4-0.3,0.9-0.2,1.2,0.2c0.2,0.3,0.2,0.6,0.1,0.9v1.4"/>
				<path id="path2814" class="st8" d="M93.8,232.2c-0.1,0.8,0.3,1.9-0.3,2.6c-0.4,0.3-0.9,0.2-1.2-0.2c-0.2-0.2-0.2-0.6-0.1-0.8
					c0-1.1,0-2.2,0-3.3"/>
				<path id="path2816" class="st8" d="M93.7,230.9h3.5 M97.2,232.4l-3.5-0.1"/>
				<path id="path2822" class="st8" d="M103.4,231c-0.1-0.8,0.3-1.8-0.3-2.4c-0.4-0.3-0.9-0.2-1.2,0.2c-0.2,0.3-0.2,0.6-0.1,0.9v1.4
					"/>
				<path id="path2824" class="st8" d="M101.9,232.3c0.1,0.8-0.3,1.8,0.3,2.4c0.9,0.6,1.5-0.4,1.3-1.3v-2.9"/>
				<path id="path2826" class="st8" d="M102,230.9h-3.6 M98.4,232.4l3.5-0.1"/>
			</g>
			<g id="g2646">
				<path id="rect2611" class="st9" d="M133.6,179.8v46.6h-14.2v-43.8"/>
				<path id="rect2617" class="st10" d="M119.2,207.4h14.4c0.6,0,1,0.5,1,1v0.8c0,0.6-0.5,1-1,1h-14.4c-0.6,0-1-0.5-1-1v-0.8
					C118.2,207.9,118.6,207.4,119.2,207.4z"/>
				<path id="rect2619" class="st10" d="M119.2,201.7h14.4c0.6,0,1,0.5,1,1v0.8c0,0.6-0.5,1-1,1h-14.4c-0.6,0-1-0.5-1-1v-0.8
					C118.2,202.2,118.6,201.7,119.2,201.7z"/>
				<path id="rect2621" class="st10" d="M119.2,195.9h14.4c0.6,0,1,0.5,1,1v0.8c0,0.6-0.5,1-1,1h-14.4c-0.6,0-1-0.5-1-1V197
					C118.2,196.4,118.6,195.9,119.2,195.9z"/>
				<g id="g2625">
					<path id="rect2593" class="st11" d="M131.5,221.2c0,3.3-4.4,3.3-4.5,0v-7.9h4.3L131.5,221.2z"/>
					<path id="path2623" class="st11" d="M125.8,221.2c0,3.3-4.4,3.3-4.5,0v-7.9h4.3L125.8,221.2z"/>
				</g>
				<g id="g2629">
					<path id="path2631" class="st11" d="M131.5,192.1c0.1,1.2-0.8,2.3-2,2.4c-1.2,0.1-2.3-0.8-2.4-2c0-0.1,0-0.3,0-0.4v-7.9h4.3
						L131.5,192.1z"/>
					<path id="path2633" class="st11" d="M125.8,192.1c0.1,1.2-0.8,2.3-2,2.4c-1.2,0.1-2.3-0.8-2.4-2c0-0.1,0-0.3,0-0.4v-7.9h4.3
						L125.8,192.1z"/>
				</g>
				<path id="path2635" class="st9" d="M133.6,225.4l2,4.1h-18.4l2.1-4.1H133.6z"/>
				<path id="path2637" class="st12" d="M135.8,229.4l-9.4,21.6l-9.4-21.6H135.8z"/>
				<path id="rect2639" class="st13" d="M125.9,250.1h1c0.6,0,1,0.5,1,1v0.1c0,0.6-0.5,1-1,1h-1c-0.6,0-1-0.5-1-1v-0.1
					C124.9,250.6,125.3,250.1,125.9,250.1z"/>
			</g>
			<g id="g2661">
				<path id="rect2663" class="st9" d="M76.3,182.9v43.4H62.1V180"/>
				<path id="rect2665" class="st10" d="M62,207.4h14.4c0.6,0,1,0.5,1,1v0.8c0,0.6-0.5,1-1,1H62c-0.6,0-1-0.5-1-1v-0.8
					C61,207.9,61.4,207.4,62,207.4z"/>
				<path id="rect2667" class="st10" d="M62,201.7h14.4c0.6,0,1,0.5,1,1v0.8c0,0.6-0.5,1-1,1H62c-0.6,0-1-0.5-1-1v-0.8
					C61,202.2,61.4,201.7,62,201.7z"/>
				<path id="rect2669" class="st10" d="M62,195.9h14.4c0.6,0,1,0.5,1,1v0.8c0,0.6-0.5,1-1,1H62c-0.6,0-1-0.5-1-1V197
					C61,196.4,61.4,195.9,62,195.9z"/>
				<g id="g2671">
					<path id="path2673" class="st11" d="M74.3,221.2c0,3.3-4.4,3.3-4.5,0v-7.9h4.3L74.3,221.2z"/>
					<path id="path2675" class="st11" d="M68.6,221.2c0,3.3-4.4,3.3-4.5,0v-7.9h4.3L68.6,221.2z"/>
				</g>
				<g id="g2677">
					<path id="path2679" class="st11" d="M74.3,192.1c0.1,1.2-0.8,2.3-2,2.4c-1.2,0.1-2.3-0.8-2.4-2c0-0.1,0-0.3,0-0.4v-7.9h4.3
						L74.3,192.1z"/>
					<path id="path2681" class="st11" d="M68.6,192.1c0.1,1.2-0.8,2.3-2,2.4c-1.2,0.1-2.3-0.8-2.4-2c0-0.1,0-0.3,0-0.4v-7.9h4.3
						L68.6,192.1z"/>
				</g>
				<path id="path2683" class="st9" d="M76.4,225.4l2.1,4.1H60l2-4.1H76.4z"/>
				<path id="path2685" class="st12" d="M78.6,229.4L69.2,251l-9.4-21.6H78.6z"/>
				<path id="rect2687" class="st13" d="M68.7,250.1h1c0.6,0,1,0.5,1,1v0.1c0,0.6-0.5,1-1,1h-1c-0.6,0-1-0.5-1-1v-0.1
					C67.7,250.6,68.1,250.1,68.7,250.1z"/>
			</g>
			<g id="g2491">
				<path id="path2428" class="st10" d="M98,200.5c1.6-0.1,3.2-0.9,3.2-2.5c1.4,0.8,3-0.2,3.8-1.6s0.9-3.2-0.4-4
					c1.4-0.9,1.3-2.8,0.4-4.2s-2.2-2.3-3.7-1.6c-0.1-1.6-1.8-2.6-3.4-2.6s-3.2,0.8-3.2,2.5c-1.4-0.8-3.1,0.2-3.9,1.6
					s-0.7,3.2,0.7,4.1c-1.4,0.9-1.5,2.7-0.7,4.1s2.3,2.3,3.7,1.6C94.5,199.5,96.3,200.5,98,200.5L98,200.5z"/>
				<path id="path2360" class="st14" d="M99.4,191.4c-0.7-1.3-0.3-2.9,1-3.6s2.9-0.3,3.6,1s0.3,2.9-1,3.6
					C101.8,193.1,100.2,192.7,99.4,191.4C99.5,191.4,99.5,191.4,99.4,191.4z"/>
				<path id="path2362" class="st14" d="M91.7,195.9c-0.7-1.3-0.3-2.9,1-3.6c1.3-0.7,2.9-0.3,3.6,1s0.3,2.9-1,3.6
					C94,197.6,92.4,197.1,91.7,195.9L91.7,195.9z"/>
				<path id="path2394" class="st14" d="M97.8,190.4c-1.5,0-2.6-1.2-2.6-2.6s1.2-2.6,2.6-2.6s2.6,1.2,2.6,2.6
					C100.5,189.3,99.3,190.4,97.8,190.4C97.9,190.5,97.9,190.5,97.8,190.4z"/>
				<path id="path2396" class="st14" d="M97.8,199.4c-1.5,0-2.6-1.2-2.6-2.6s1.2-2.6,2.6-2.6s2.6,1.2,2.6,2.6
					C100.5,198.2,99.3,199.4,97.8,199.4C97.9,199.4,97.9,199.4,97.8,199.4z"/>
				<path id="path2400" class="st14" d="M96.3,191.4c0.7-1.3,0.3-2.9-1-3.6s-2.9-0.3-3.6,1s-0.3,2.9,1,3.6
					C93.9,193.1,95.5,192.7,96.3,191.4C96.2,191.4,96.3,191.4,96.3,191.4z"/>
				<path id="path2402" class="st14" d="M103.9,195.9c0.7-1.3,0.3-2.9-1-3.6c-1.3-0.7-2.9-0.3-3.6,1s-0.3,2.9,1,3.6
					C101.6,197.6,103.2,197.1,103.9,195.9L103.9,195.9z"/>
				<path id="path2406" class="st14" d="M97.8,194.9c-1.5,0-2.6-1.2-2.6-2.6c0-1.5,1.2-2.6,2.6-2.6s2.6,1.2,2.6,2.6l0,0
					C100.5,193.8,99.3,194.9,97.8,194.9C97.9,194.9,97.9,194.9,97.8,194.9z"/>
			</g>
			<path id="path2487" class="st15" d="M104.1,201.3c-1.8,1.3-4,1.9-6.2,1.9c-2.4,0.1-4.7-0.6-6.6-2.1 M87,193.2c0-0.3,0-0.6,0-0.9
				c-0.2-6,4.6-11.1,10.6-11.3s11.1,4.6,11.3,10.6c0,0.2,0,0.4,0,0.7s0,0.6-0.1,0.9"/>
			<path id="path2489" class="st15" d="M87.9,192.3c0-5.5,4.5-10,10-10s10,4.5,10,10l0,0c0,5.5-4.5,10-10,10S87.9,197.8,87.9,192.3z
				"/>
			<path id="path2530" class="st15" d="M147.9,172.9H47.3"/>
			<path id="path2532" class="st15" d="M147.5,170.8H48.1"/>
			<path id="path2534" class="st15" d="M142.7,163.3H52.9"/>
			<path id="path2536" class="st15" d="M131.7,155.8h-68"/>
			<path id="path2538" class="st15" d="M149.3,177.1h-12.2v2.8H130v-2.8h-7.1v2.8h-7.1v-2.8h-7.1v2.8h-7.1v-2.8h-7.1v2.8h-7.1v-2.8
				H80v2.8h-7.2v-2.8h-7.1v2.8h-7.1v-2.8H46.5"/>
			<path id="path2540" class="st15" d="M133.5,170.8l-0.2-7.3"/>
			<path id="path2543" class="st15" d="M61.2,170.8l-0.2-7.3"/>
			<path id="path2545" class="st15" d="M69.7,170.8l-0.2-7.3"/>
			<path id="path2547" class="st15" d="M78.3,170.8l-0.2-7.3"/>
			<path id="path2549" class="st15" d="M124.6,170.8l-0.2-7.3"/>
			<path id="path2551" class="st15" d="M115.6,170.8l-0.2-7.3"/>
			<path id="path2553" class="st15" d="M106.7,170.8l-0.2-7.3"/>
			<path id="path2555" class="st15" d="M86.9,170.8l-0.2-7.3"/>
			<path id="path2557" class="st15" d="M129.1,163.2l-0.2-7.3"/>
			<path id="path2559" class="st15" d="M120.1,163.2l-0.2-7.3"/>
			<path id="path2561" class="st15" d="M74,163.3l-0.2-7.3"/>
			<path id="path2563" class="st15" d="M65.4,163.4l-0.2-7.3"/>
			<path id="path2565" class="st15" d="M124.3,156l-0.2-3.8"/>
			<path id="path2567" class="st15" d="M115.4,155.9l-0.2-7.3"/>
			<path id="path2569" class="st15" d="M69.6,156l-0.2-3"/>
			<path id="path2571" class="st15" d="M78.2,155.9l-0.2-6.5"/>
			<path id="path2575" class="st15" d="M74.7,179.7l23.1,41.7l23-41.5"/>
			<path id="path2577" class="st15" d="M77.1,179.7l20.8,37.6l20.8-37.6"/>
			<path id="path2579" class="st15" d="M79.5,179.7l7.5,13.7 M108.7,193.1l7.3-13.2 M91.5,201.3l6.3,11.4l6.3-11.4"/>
			<path id="path2584" class="st9" d="M111.5,146.7v10.1c0,7.5-6.1,13.7-13.7,13.7c-7.5,0-13.7-6.1-13.7-13.7v-10.1"/>
			<path id="path2587" class="st15" d="M108.9,145.4v11.5c0,6.1-5,11.1-11.1,11.1s-11.1-5-11.1-11.1v-11.6"/>
			<path id="path2597" class="st11" d="M105.1,157.8c0.1,5.4-7.3,5.4-7.4,0L97.6,138c2.2,2.2,4.7,4,7.5,5.3V157.8z"/>
			<path id="path2599" class="st11" d="M97.9,157.8c0,5.4-7.3,5.4-7.4,0v-14.5c2.5-1.6,5-3.4,7.4-5.3V157.8z"/>
			<path id="path2601" class="st11" d="M101.5,161.2c0,5.4-7.3,5.5-7.4,0v-12.9h7.4V161.2z"/>
			<path id="rect2757" class="st13" d="M96.2,219.2h3.1c0.6,0,1,0.5,1,1v0.3c0,0.6-0.5,1-1,1h-3.1c-0.6,0-1-0.5-1-1v-0.3
				C95.2,219.7,95.7,219.2,96.2,219.2z"/>
		</g>
	</g>
	<g>
		<defs>
			<rect id="SVGID_00000166658974461803436760000008668266902868528525_" width="195.6" height="280.6"/>
		</defs>
		<clipPath id="SVGID_00000155106362531855420250000007089760231954643628_">
			<use xlink:href="#SVGID_00000166658974461803436760000008668266902868528525_"  style="overflow:visible;"/>
		</clipPath>
		<g id="layer2" style="clip-path:url(#SVGID_00000155106362531855420250000007089760231954643628_);">
			<path id="path3989" class="st17" d="M98,138.1c7.7,7.7,24,12.1,35.7,18.5c16.9,9.1,16,19.6,16,33.2V268H97.9"/>
			<path id="path1478" class="st17" d="M97.8,138.1c-7.7,7.7-24,12.1-35.7,18.5c-16.9,9.1-16,19.6-16,33.2V268h51.8"/>
		</g>
	</g>
	<g>
		<defs>
			<rect id="SVGID_00000123426136375242276540000011500392470572572290_" width="195.6" height="280.6"/>
		</defs>
		<clipPath id="SVGID_00000069395501110711522070000011119743022057757613_">
			<use xlink:href="#SVGID_00000123426136375242276540000011500392470572572290_"  style="overflow:visible;"/>
		</clipPath>
		
			<path id="_50117184-1" style="clip-path:url(#SVGID_00000069395501110711522070000011119743022057757613_);fill-rule:evenodd;clip-rule:evenodd;fill:#1D528D;" d="
			M46.6,107.4c28.2,26.2,71.8,26.2,99.9,0V11.1H46.6V107.4z"/>
	</g>
	<g>
		<defs>
			<rect id="SVGID_00000156558748759176097240000004832498582532609173_" width="195.6" height="280.6"/>
		</defs>
		<clipPath id="SVGID_00000075135904734575410980000017987875874683020199_">
			<use xlink:href="#SVGID_00000156558748759176097240000004832498582532609173_"  style="overflow:visible;"/>
		</clipPath>
		<path id="path3826" style="clip-path:url(#SVGID_00000075135904734575410980000017987875874683020199_);fill:#FFFFFF;" d="
			M46.6,82.7h0.2c1.2-0.1,2.9-1,4.8-2.2c3.1-1.8,6.7-3.9,11.1-3.9c3.8,0,6.4,1.7,9,3.3c2.2,1.4,4.5,2.9,7.6,2.8s4.9-1.3,6.8-2.7
			c2.4-1.6,4.8-3.3,9.2-3.4s7.1,1.6,9.7,3.3c2.2,1.4,4.4,2.8,7.4,2.7s4.9-1.3,6.9-2.6c2.4-1.6,4.9-3.3,9.3-3.3
			c4.6-0.1,7.6,1.8,10.3,3.5c2,1.3,4,2.5,6.3,2.5c0.4,0,0.8,0,1.2,0v6.1H146c-2.4,0-4.3-1.2-6.3-2.5c-2.8-1.7-5.7-3.5-10.3-3.5
			c-4.4,0.1-6.9,1.7-9.3,3.3c-2,1.3-3.9,2.6-6.9,2.6s-5.2-1.3-7.4-2.7c-2.7-1.7-5.4-3.4-9.7-3.3s-6.8,1.7-9.2,3.3
			c-1.9,1.3-3.8,2.6-6.8,2.7s-5.4-1.4-7.6-2.8c-2.6-1.6-5.1-3.2-9-3.3c-4.4,0-8,2.1-11.1,3.9c-1.9,1.1-3.6,2.1-4.8,2.2h-0.8v-6H46.6
			z"/>
	</g>
	<g>
		<defs>
			<rect id="SVGID_00000164486873124968255120000000672390501767422341_" width="195.6" height="280.6"/>
		</defs>
		<clipPath id="SVGID_00000034796376862894096290000013167411475473484198_">
			<use xlink:href="#SVGID_00000164486873124968255120000000672390501767422341_"  style="overflow:visible;"/>
		</clipPath>
		<path id="path3824" style="clip-path:url(#SVGID_00000034796376862894096290000013167411475473484198_);fill:#FFFFFF;" d="
			M46.6,107.4l0.3,0.3H47c2-0.1,4-1.3,6.3-2.6c2.8-1.6,6-3.5,9.5-3.5c2.9,0,5.1,1.4,7.2,2.8c2.7,1.7,5.3,3.4,9.4,3.3
			s6.2-1.6,8.6-3.2c2-1.4,4-2.8,7.4-2.8s5.7,1.4,7.9,2.8c2.6,1.7,5.2,3.3,9.2,3.2s6.3-1.6,8.7-3.2c2-1.4,4.1-2.7,7.6-2.8
			c3.7-0.1,6.2,1.5,8.6,3s4.7,3,8,3h1l0.3-0.2v-5.2H146c-2.4,0-4.3-1.2-6.3-2.5c-2.8-1.7-5.7-3.5-10.3-3.5c-4.4,0.1-6.9,1.7-9.3,3.3
			c-2,1.3-3.9,2.6-6.9,2.6s-5.2-1.3-7.4-2.7c-2.7-1.7-5.4-3.4-9.7-3.3s-6.8,1.8-9.2,3.4c-1.9,1.3-3.8,2.6-6.8,2.7s-5.4-1.4-7.6-2.8
			c-2.6-1.6-5.1-3.2-9-3.3c-4.4,0-8,2.1-11.1,3.9c-1.9,1.1-3.6,2.1-4.8,2.2h-0.1c-0.2,0-0.5,0-0.7,0L46.6,107.4L46.6,107.4z"/>
	</g>
	<g>
		<defs>
			<rect id="SVGID_00000006686967721329671900000008836616148195367316_" width="195.6" height="280.6"/>
		</defs>
		<clipPath id="SVGID_00000021806906250838498250000004407195413111347355_">
			<use xlink:href="#SVGID_00000006686967721329671900000008836616148195367316_"  style="overflow:visible;"/>
		</clipPath>
		<path id="_160033752" style="clip-path:url(#SVGID_00000021806906250838498250000004407195413111347355_);fill:#FFFFFF;" d="
			M146.6,98.6v-6.3H146c-3.3,0-5.6-1.4-8-3s-4.9-3-8.6-3c-3.5,0.1-5.6,1.4-7.6,2.8c-2.3,1.6-4.6,3.1-8.6,3.2s-6.6-1.6-9.2-3.2
			c-2.3-1.4-4.6-2.9-7.9-2.8s-5.4,1.5-7.4,2.8c-2.4,1.7-4.6,3.2-8.6,3.3s-6.8-1.6-9.4-3.3c-2.2-1.4-4.3-2.8-7.2-2.8
			c-3.5,0-6.7,1.8-9.5,3.4c-2.3,1.3-4.3,2.5-6.3,2.6h-0.1c-0.3,0-0.6,0-0.8,0v6.3h0.8c1.2-0.1,2.9-1,4.8-2.2
			c3.1-1.8,6.7-3.9,11.1-3.9c3.8,0,6.4,1.6,8.9,3.3c2.3,1.4,4.5,2.8,7.6,2.8s4.9-1.3,6.8-2.7c2.4-1.7,4.8-3.3,9.2-3.4s7,1.6,9.7,3.3
			c2.2,1.4,4.4,2.8,7.4,2.7s4.9-1.3,6.9-2.6c2.4-1.6,4.9-3.3,9.3-3.3c4.6-0.1,7.6,1.8,10.3,3.5c2,1.3,4,2.5,6.3,2.5L146.6,98.6z"/>
	</g>
	<g>
		<defs>
			<rect id="SVGID_00000170969231053071081530000006314933668216632725_" width="195.6" height="280.6"/>
		</defs>
		<clipPath id="SVGID_00000090974696904993202950000015575872198674716832_">
			<use xlink:href="#SVGID_00000170969231053071081530000006314933668216632725_"  style="overflow:visible;"/>
		</clipPath>
		
			<path id="_160033320" style="clip-path:url(#SVGID_00000090974696904993202950000015575872198674716832_);fill-rule:evenodd;clip-rule:evenodd;fill:#FECA0D;" d="
			M135.6,65.5h-78c7.2,5.2,15.1,9,24.3,8.3c8-0.6,12.6-3.7,14.7-7.8c2.1,4.1,6.7,7.2,14.7,7.8C120.4,74.5,128.4,70.8,135.6,65.5
			L135.6,65.5z"/>
	</g>
	<g>
		<defs>
			<rect id="SVGID_00000063603133162601624750000014087609151319843257_" width="195.6" height="280.6"/>
		</defs>
		<clipPath id="SVGID_00000047020104810845853980000011488423264732106942_">
			<use xlink:href="#SVGID_00000063603133162601624750000014087609151319843257_"  style="overflow:visible;"/>
		</clipPath>
		
			<path id="_160034136" style="clip-path:url(#SVGID_00000047020104810845853980000011488423264732106942_);fill-rule:evenodd;clip-rule:evenodd;fill:#FECA0D;" d="
			M96.6,50.5c0.5-1.7,1.1-3.3,1.9-4.9c-0.5-1.9-1.1-3.8-1.9-5.6c-0.7,1.8-1.4,3.7-1.9,5.5C95.5,47.2,96.1,48.8,96.6,50.5z"/>
	</g>
	<g>
		<defs>
			<rect id="SVGID_00000092438202599775204220000012432414162019970437_" width="195.6" height="280.6"/>
		</defs>
		<clipPath id="SVGID_00000093888822133236209090000003449333475097712314_">
			<use xlink:href="#SVGID_00000092438202599775204220000012432414162019970437_"  style="overflow:visible;"/>
		</clipPath>
		
			<path id="_159703344" style="clip-path:url(#SVGID_00000093888822133236209090000003449333475097712314_);fill-rule:evenodd;clip-rule:evenodd;fill:#FFFFFF;" d="
			M96.1,39c-0.8-2.1-1.7-4.2-2.8-6.2c-1,2-1.8,4-2.6,6.1c1.3,1.8,2.4,3.6,3.5,5.5C94.8,42.6,95.4,40.8,96.1,39z"/>
	</g>
	<g>
		<defs>
			<rect id="SVGID_00000066496729637736916130000018395396507809580463_" width="195.6" height="280.6"/>
		</defs>
		<clipPath id="SVGID_00000050660070440043164670000003989713182225537449_">
			<use xlink:href="#SVGID_00000066496729637736916130000018395396507809580463_"  style="overflow:visible;"/>
		</clipPath>
		
			<path id="_159703128" style="clip-path:url(#SVGID_00000050660070440043164670000003989713182225537449_);fill-rule:evenodd;clip-rule:evenodd;fill:#FFFFFF;" d="
			M83.1,56.5c-3.2-8.1-3.6-18.7-2.5-27.8c3.2,3.1,6.1,6.5,8.8,10.1c-1.7,4.3-2.4,9-2.2,13.6c0.4,4.6,3.3,8.1,7.5,7
			c-0.7,0.6-0.1,0.7-2.3,1.5S84.5,60.2,83.1,56.5z"/>
	</g>
	<g>
		<defs>
			<rect id="SVGID_00000146488537275719638280000011677787114476826005_" width="195.6" height="280.6"/>
		</defs>
		<clipPath id="SVGID_00000103958560982095172530000015272543896787647415_">
			<use xlink:href="#SVGID_00000146488537275719638280000011677787114476826005_"  style="overflow:visible;"/>
		</clipPath>
		
			<path id="_159702384" style="clip-path:url(#SVGID_00000103958560982095172530000015272543896787647415_);fill-rule:evenodd;clip-rule:evenodd;fill:#FFFFFF;" d="
			M93.1,30.2c-1.2-1.9-2.4-3.8-3.6-5.5c-0.9,3.1-1.6,6.3-2.1,9.5c0.8,1,1.6,2.1,2.4,3.1C90.8,34.9,91.9,32.5,93.1,30.2z M101.1,52.5
			c0.1-0.6,0.1-1.2,0-1.8C101.1,51.3,101.1,51.9,101.1,52.5L101.1,52.5z"/>
	</g>
	<g>
		<defs>
			<rect id="SVGID_00000102534432635214554400000000577009300777599403_" width="195.6" height="280.6"/>
		</defs>
		<clipPath id="SVGID_00000156557410302269163430000010925489958712754863_">
			<use xlink:href="#SVGID_00000102534432635214554400000000577009300777599403_"  style="overflow:visible;"/>
		</clipPath>
		
			<path id="_160035048" style="clip-path:url(#SVGID_00000156557410302269163430000010925489958712754863_);fill-rule:evenodd;clip-rule:evenodd;fill:#FFFFFF;" d="
			M78.6,42.4c-2.7-2.2-5.5-4.2-8.4-6c1.9,12.5,4.9,19.2,10.2,23.6c2.5,2,6.8,3,9.6,1.7c-3.3,0-6.4-1.8-8-4.7
			C79.8,53,78.9,47.8,78.6,42.4L78.6,42.4z"/>
	</g>
	<g>
		<defs>
			<rect id="SVGID_00000152232331772110446100000018208812492600831921_" width="195.6" height="280.6"/>
		</defs>
		<clipPath id="SVGID_00000137838428151131774460000017530000280376071608_">
			<use xlink:href="#SVGID_00000152232331772110446100000018208812492600831921_"  style="overflow:visible;"/>
		</clipPath>
		
			<path id="_159703440" style="clip-path:url(#SVGID_00000137838428151131774460000017530000280376071608_);fill-rule:evenodd;clip-rule:evenodd;fill:#FFFFFF;" d="
			M90.2,40.2c2.2,3.1,4,6.5,5.5,10.1c0.2,0.6,0.6,1.5,0.8,2.1c-0.3,1.3-0.3,2.6-0.1,3.9c-0.4,2.3-3,3.1-5.1,1.9
			c-2-1.4-3.1-3.7-3-6.1C88.4,48,89,44,90.2,40.2L90.2,40.2z"/>
	</g>
	<g>
		<defs>
			<rect id="SVGID_00000037667674934889710860000010830998678132726408_" width="195.6" height="280.6"/>
		</defs>
		<clipPath id="SVGID_00000142876201789674418010000008460620891362383744_">
			<use xlink:href="#SVGID_00000037667674934889710860000010830998678132726408_"  style="overflow:visible;"/>
		</clipPath>
		
			<path id="_159703656" style="clip-path:url(#SVGID_00000142876201789674418010000008460620891362383744_);fill-rule:evenodd;clip-rule:evenodd;fill:#FFFFFF;" d="
			M97.1,39c0.8-2.1,1.7-4.2,2.8-6.2c1,2,1.8,4,2.6,6.1c-1.3,1.8-2.4,3.6-3.5,5.5C98.4,42.6,97.8,40.8,97.1,39z"/>
	</g>
	<g>
		<defs>
			<rect id="SVGID_00000121246444367293304630000008904499149729377189_" width="195.6" height="280.6"/>
		</defs>
		<clipPath id="SVGID_00000183956946061536604870000010277567420113214389_">
			<use xlink:href="#SVGID_00000121246444367293304630000008904499149729377189_"  style="overflow:visible;"/>
		</clipPath>
		
			<path id="_160109872" style="clip-path:url(#SVGID_00000183956946061536604870000010277567420113214389_);fill-rule:evenodd;clip-rule:evenodd;fill:#FFFFFF;" d="
			M110.1,56.5c3.2-8.1,3.6-18.7,2.5-27.8c-3.2,3.1-6.1,6.5-8.8,10.1c1.7,4.3,2.4,9,2.2,13.6c-0.4,4.6-3.3,8.1-7.5,7
			c0.7,0.6,0.1,0.7,2.4,1.5S108.7,60.2,110.1,56.5L110.1,56.5z"/>
	</g>
	<g>
		<defs>
			<rect id="SVGID_00000024719509806822013120000010284988189496712589_" width="195.6" height="280.6"/>
		</defs>
		<clipPath id="SVGID_00000137840261520545452810000013256612267192473247_">
			<use xlink:href="#SVGID_00000024719509806822013120000010284988189496712589_"  style="overflow:visible;"/>
		</clipPath>
		
			<path id="_159703848" style="clip-path:url(#SVGID_00000137840261520545452810000013256612267192473247_);fill-rule:evenodd;clip-rule:evenodd;fill:#FFFFFF;" d="
			M96.6,37.5c0.9-2.4,1.9-4.7,3.2-7c-0.9-2.7-2-5.4-3.2-8c-1.2,2.6-2.3,5.3-3.2,8C94.6,32.8,95.7,35.1,96.6,37.5z"/>
	</g>
	<g>
		<defs>
			<rect id="SVGID_00000071562056366064408360000015513865712399644067_" width="195.6" height="280.6"/>
		</defs>
		<clipPath id="SVGID_00000080191281279377425320000008221508964283397257_">
			<use xlink:href="#SVGID_00000071562056366064408360000015513865712399644067_"  style="overflow:visible;"/>
		</clipPath>
		
			<path id="_160110304" style="clip-path:url(#SVGID_00000080191281279377425320000008221508964283397257_);fill-rule:evenodd;clip-rule:evenodd;fill:#FFFFFF;" d="
			M100.1,30.2c1.2-1.9,2.4-3.8,3.6-5.5c0.9,3.1,1.5,6.3,2,9.5c-0.8,1-1.6,2.1-2.4,3.1C102.4,34.9,101.3,32.5,100.1,30.2z"/>
	</g>
	<g>
		<defs>
			<rect id="SVGID_00000142164927505631118670000012005458339503824024_" width="195.6" height="280.6"/>
		</defs>
		<clipPath id="SVGID_00000177458207222636456010000013320039412462980265_">
			<use xlink:href="#SVGID_00000142164927505631118670000012005458339503824024_"  style="overflow:visible;"/>
		</clipPath>
		
			<path id="_160136120" style="clip-path:url(#SVGID_00000177458207222636456010000013320039412462980265_);fill-rule:evenodd;clip-rule:evenodd;fill:#FFFFFF;" d="
			M114.6,42.4c2.7-2.2,5.5-4.2,8.4-6c-1.8,12.5-4.9,19.2-10.2,23.6c-2.5,2.1-6.8,3-9.6,1.8c3.3,0,6.4-1.8,8-4.7
			C113.4,53,114.3,47.7,114.6,42.4L114.6,42.4z"/>
	</g>
	<g>
		<defs>
			<rect id="SVGID_00000172432087150394227570000015871866585517962126_" width="195.6" height="280.6"/>
		</defs>
		<clipPath id="SVGID_00000013152174076639084920000017681064097671876539_">
			<use xlink:href="#SVGID_00000172432087150394227570000015871866585517962126_"  style="overflow:visible;"/>
		</clipPath>
		
			<path id="_159703368" style="clip-path:url(#SVGID_00000013152174076639084920000017681064097671876539_);fill-rule:evenodd;clip-rule:evenodd;fill:#FFFFFF;" d="
			M96.6,58.1c0.4,2.5,2.1,4.6,4.5,5.5h0.1H92h0.1C94.5,62.8,96.2,60.6,96.6,58.1L96.6,58.1z"/>
	</g>
	<g>
		<defs>
			<rect id="SVGID_00000151524412123915452760000015821426266946006969_" width="195.6" height="280.6"/>
		</defs>
		<clipPath id="SVGID_00000026879490787668833820000001688155888537958565_">
			<use xlink:href="#SVGID_00000151524412123915452760000015821426266946006969_"  style="overflow:visible;"/>
		</clipPath>
		
			<path id="_160110016" style="clip-path:url(#SVGID_00000026879490787668833820000001688155888537958565_);fill-rule:evenodd;clip-rule:evenodd;fill:#FFFFFF;" d="
			M103,40.2c-2.2,3.1-4,6.5-5.5,10.1c-0.2,0.6-0.6,1.5-0.8,2.1c0.3,1.3,0.3,2.6,0.1,3.9c0.4,2.3,3,3.1,5.1,1.9c2-1.4,3.1-3.7,3-6.1
			C104.8,48,104.2,44,103,40.2z"/>
	</g>
	<g>
		<defs>
			<rect id="SVGID_00000037662549430718905140000009664830037187055772_" width="195.6" height="280.6"/>
		</defs>
		<clipPath id="SVGID_00000072963325286128230610000000243911879974849440_">
			<use xlink:href="#SVGID_00000037662549430718905140000009664830037187055772_"  style="overflow:visible;"/>
		</clipPath>
		<path style="clip-path:url(#SVGID_00000072963325286128230610000000243911879974849440_);fill:#FFFFFF;" d="M80,99.6
			c-12.6,0-22.9,10.2-22.9,30.5c0,25.4,18.2,50.9,40.7,50.9s40.7-25.4,40.7-50.9c0-20.3-10.2-30.5-22.9-30.5
			c-6.9,0-13.5,3.1-17.8,8.5C93.5,102.8,86.9,99.6,80,99.6z"/>
	</g>
	<g>
		<defs>
			<rect id="SVGID_00000067926438891699412720000010002986080409324708_" width="195.6" height="280.6"/>
		</defs>
		<clipPath id="SVGID_00000179624979194692383100000008098025360688522660_">
			<use xlink:href="#SVGID_00000067926438891699412720000010002986080409324708_"  style="overflow:visible;"/>
		</clipPath>
		<path style="clip-path:url(#SVGID_00000179624979194692383100000008098025360688522660_);fill:#FFFFFF;" d="M30.4,112.8h134.7
			c3,0,5.5,2.4,5.5,5.5v44c0,3-2.4,5.5-5.5,5.5H30.4c-3,0-5.5-2.4-5.5-5.5v-44C25,115.3,27.4,112.8,30.4,112.8z"/>
	</g>
	<g>
		<defs>
			<rect id="SVGID_00000129928257213239508640000017125037250777164707_" width="195.6" height="280.6"/>
		</defs>
		<clipPath id="SVGID_00000005255845225882668470000004834972171423780542_">
			<use xlink:href="#SVGID_00000129928257213239508640000017125037250777164707_"  style="overflow:visible;"/>
		</clipPath>
	</g>
	<g>
		<defs>
			<rect id="SVGID_00000027576256981234398990000008916268030141000363_" width="195.6" height="280.6"/>
		</defs>
		<clipPath id="SVGID_00000036945468067704486900000017765870363315359420_">
			<use xlink:href="#SVGID_00000027576256981234398990000008916268030141000363_"  style="overflow:visible;"/>
		</clipPath>
	</g>
	<g>
		<defs>
			<rect id="SVGID_00000073680995310411799490000011328222203818171784_" width="195.6" height="280.6"/>
		</defs>
		<clipPath id="SVGID_00000007396263416284128510000013152944916623545265_">
			<use xlink:href="#SVGID_00000073680995310411799490000011328222203818171784_"  style="overflow:visible;"/>
		</clipPath>
		<path style="clip-path:url(#SVGID_00000007396263416284128510000013152944916623545265_);fill:#FFFFFF;" d="M150.6,0h29h16v16
			c0,7,0,14,0,21c-10.2,12.4-28.6,14.2-41,4S140.4,12.4,150.6,0z"/>
	</g>
	<g>
		<defs>
			<rect id="SVGID_00000128457421795508793870000016229823526986232753_" width="195.6" height="280.6"/>
		</defs>
		<clipPath id="SVGID_00000051341535825697585530000016416361844725250232_">
			<use xlink:href="#SVGID_00000128457421795508793870000016229823526986232753_"  style="overflow:visible;"/>
		</clipPath>
	</g>
</g>
<g class="st39">
	<path class="st40" d="M73.6,144.1h4.6c1.2,0,2.2,0.1,2.9,0.3c0.7,0.2,1.2,0.5,1.5,0.8c0.3,0.4,0.6,0.8,0.7,1.3s0.2,1.3,0.2,2.4v1.5
		c0,1.1-0.1,1.9-0.3,2.4c-0.2,0.5-0.7,0.9-1.3,1.2c-0.6,0.3-1.4,0.4-2.4,0.4h-1.2v7h-4.5V144.1z M78.1,147.1v4.4c0.1,0,0.2,0,0.3,0
		c0.4,0,0.7-0.1,0.9-0.3c0.2-0.2,0.2-0.6,0.2-1.3v-1.4c0-0.6-0.1-1-0.3-1.2S78.7,147.1,78.1,147.1z"/>
	<path class="st40" d="M89.1,150.3l0.8-0.2v1.9l-0.8,0.2v9.4h-4.5v-8l-0.8,0.2v-1.9l0.8-0.2v-7.6h4.5V150.3z"/>
	<path class="st40" d="M100.7,152.3v3.5c0,1.3-0.1,2.2-0.2,2.8c-0.1,0.6-0.4,1.2-0.8,1.7c-0.4,0.5-1,0.9-1.6,1.2s-1.4,0.4-2.3,0.4
		c-1,0-1.8-0.1-2.4-0.3s-1.2-0.5-1.6-1s-0.6-0.9-0.8-1.6c-0.2-0.6-0.2-1.5-0.2-2.7v-3.7c0-1.3,0.1-2.4,0.4-3.1
		c0.3-0.7,0.8-1.3,1.6-1.8c0.7-0.5,1.7-0.7,2.9-0.7c1,0,1.8,0.1,2.5,0.4c0.7,0.3,1.2,0.7,1.6,1.1c0.4,0.5,0.6,0.9,0.8,1.4
		C100.6,150.5,100.7,151.3,100.7,152.3z M96.3,151.2c0-0.7,0-1.2-0.1-1.4c-0.1-0.2-0.2-0.3-0.5-0.3s-0.4,0.1-0.5,0.3
		s-0.1,0.7-0.1,1.4v6.5c0,0.7,0,1.1,0.1,1.3s0.3,0.3,0.5,0.3c0.3,0,0.4-0.1,0.5-0.3c0.1-0.2,0.1-0.6,0.1-1.2V151.2z"/>
	<path class="st40" d="M111.8,152.7h-4.1V151c0-0.6,0-1-0.1-1.2c-0.1-0.2-0.3-0.3-0.5-0.3c-0.3,0-0.4,0.1-0.5,0.3
		c-0.1,0.2-0.1,0.6-0.1,1.2v6.7c0,0.5,0.1,0.9,0.2,1.1c0.1,0.3,0.3,0.4,0.6,0.4c0.3,0,0.5-0.1,0.6-0.4c0.1-0.3,0.2-0.8,0.2-1.5v-1.7
		h3.9c0,1.1,0,2-0.1,2.6c-0.1,0.6-0.3,1.2-0.7,1.8c-0.4,0.6-0.9,1.1-1.6,1.4s-1.5,0.5-2.4,0.5c-1.2,0-2.2-0.2-2.9-0.6
		c-0.7-0.4-1.2-1-1.5-1.8c-0.3-0.8-0.4-1.8-0.4-3.2v-4.1c0-1.2,0.1-2.1,0.4-2.7c0.2-0.6,0.8-1.2,1.6-1.7s1.8-0.7,2.9-0.7
		c1.1,0,2.1,0.2,2.9,0.7s1.3,1.1,1.6,1.8C111.6,150.3,111.8,151.3,111.8,152.7z"/>
	<path class="st40" d="M122.4,147.3l-1.8,5.7l2.3,8.6h-4.2l-1.4-6.2l0,6.2H113v-17.5h4.4l0,7.3l1.4-4.2H122.4z"/>
</g>
<g class="st39">
	<path class="st40" d="M56,119.1v17.5h-4l-2.4-7.9v7.9h-3.8v-17.5h3.8l2.5,7.9v-7.9H56z"/>
	<path class="st40" d="M61.6,127.8h-4.1v-1c0-1.1,0.1-2,0.4-2.6s0.8-1.1,1.5-1.6c0.8-0.5,1.8-0.7,3-0.7c1.5,0,2.6,0.3,3.3,0.8
		c0.7,0.5,1.2,1.2,1.3,1.9c0.2,0.8,0.2,2.3,0.2,4.7v7.2h-4.2v-1.3c-0.3,0.5-0.6,0.9-1,1.1c-0.4,0.3-0.9,0.4-1.5,0.4
		c-0.8,0-1.5-0.2-2.1-0.6c-0.6-0.4-1-1.4-1-2.8v-1.2c0-1.1,0.2-1.8,0.5-2.2c0.3-0.4,1.2-0.8,2.5-1.4c1.4-0.6,2.2-0.9,2.3-1.1
		c0.1-0.2,0.2-0.6,0.2-1.2c0-0.7-0.1-1.2-0.2-1.5c-0.1-0.2-0.3-0.3-0.6-0.3c-0.3,0-0.5,0.1-0.5,0.3c-0.1,0.2-0.1,0.7-0.1,1.5V127.8z
		 M63,129.8c-0.7,0.5-1.1,0.9-1.2,1.3c-0.1,0.3-0.2,0.8-0.2,1.5c0,0.7,0,1.2,0.1,1.4c0.1,0.2,0.3,0.3,0.6,0.3c0.3,0,0.5-0.1,0.5-0.3
		c0.1-0.2,0.1-0.6,0.1-1.3V129.8z"/>
	<path class="st40" d="M77.9,122.3l-2,14.3h-5.7l-2.2-14.3h3.9l1.2,10.4c0.1-0.8,0.3-2.6,0.5-5.6c0.1-1.7,0.3-3.3,0.4-4.8H77.9z"/>
	<path class="st40" d="M82.4,127.8h-4.1v-1c0-1.1,0.1-2,0.4-2.6s0.8-1.1,1.5-1.6c0.8-0.5,1.8-0.7,3-0.7c1.5,0,2.6,0.3,3.3,0.8
		c0.7,0.5,1.2,1.2,1.3,1.9c0.2,0.8,0.2,2.3,0.2,4.7v7.2h-4.2v-1.3c-0.3,0.5-0.6,0.9-1,1.1c-0.4,0.3-0.9,0.4-1.5,0.4
		c-0.8,0-1.5-0.2-2.1-0.6c-0.6-0.4-1-1.4-1-2.8v-1.2c0-1.1,0.2-1.8,0.5-2.2c0.3-0.4,1.2-0.8,2.5-1.4c1.4-0.6,2.2-0.9,2.3-1.1
		c0.1-0.2,0.2-0.6,0.2-1.2c0-0.7-0.1-1.2-0.2-1.5c-0.1-0.2-0.3-0.3-0.6-0.3c-0.3,0-0.5,0.1-0.5,0.3c-0.1,0.2-0.1,0.7-0.1,1.5V127.8z
		 M83.8,129.8c-0.7,0.5-1.1,0.9-1.2,1.3c-0.1,0.3-0.2,0.8-0.2,1.5c0,0.7,0,1.2,0.1,1.4c0.1,0.2,0.3,0.3,0.6,0.3
		c0.3,0,0.5-0.1,0.5-0.3c0.1-0.2,0.1-0.6,0.1-1.3V129.8z"/>
	<path class="st40" d="M94.1,122.3l-0.1,1.3c0.4-0.5,0.8-0.9,1.3-1.1s1-0.4,1.5-0.4c0.7,0,1.3,0.2,1.8,0.5c0.5,0.4,0.8,0.8,0.9,1.3
		c0.1,0.5,0.2,1.3,0.2,2.4v6c0,1.3-0.1,2.2-0.2,2.8s-0.5,1-0.9,1.3c-0.5,0.3-1.1,0.5-1.7,0.5c-0.5,0-1-0.1-1.5-0.4s-0.9-0.6-1.3-1.1
		v3.3h-4.4v-16.3H94.1z M95.3,126.4c0-0.9,0-1.4-0.1-1.6c-0.1-0.2-0.2-0.3-0.5-0.3c-0.3,0-0.5,0.1-0.6,0.3c-0.1,0.2-0.1,0.7-0.1,1.6
		v5.9c0,0.9,0,1.4,0.1,1.6c0.1,0.2,0.3,0.3,0.6,0.3c0.3,0,0.5-0.1,0.5-0.3s0.1-0.7,0.1-1.4V126.4z"/>
	<path class="st40" d="M110.9,127.3v3.5c0,1.3-0.1,2.2-0.2,2.8c-0.1,0.6-0.4,1.2-0.8,1.7c-0.4,0.5-1,0.9-1.6,1.2s-1.4,0.4-2.3,0.4
		c-1,0-1.8-0.1-2.4-0.3c-0.7-0.2-1.2-0.5-1.6-1s-0.6-0.9-0.8-1.6s-0.2-1.5-0.2-2.7v-3.7c0-1.3,0.1-2.4,0.4-3.1
		c0.3-0.7,0.8-1.3,1.6-1.8c0.7-0.5,1.7-0.7,2.9-0.7c1,0,1.8,0.1,2.5,0.4s1.2,0.7,1.6,1.1c0.4,0.5,0.6,0.9,0.8,1.4
		C110.9,125.5,110.9,126.3,110.9,127.3z M106.6,126.2c0-0.7,0-1.2-0.1-1.4c-0.1-0.2-0.2-0.3-0.5-0.3s-0.4,0.1-0.5,0.3
		c-0.1,0.2-0.1,0.7-0.1,1.4v6.5c0,0.7,0,1.1,0.1,1.3c0.1,0.2,0.3,0.3,0.5,0.3c0.3,0,0.4-0.1,0.5-0.3c0.1-0.2,0.1-0.6,0.1-1.2V126.2z
		"/>
	<path class="st40" d="M117,125.3l0.8-0.2v1.9l-0.8,0.2v9.4h-4.5v-8l-0.8,0.2v-1.9l0.8-0.2v-7.6h4.5V125.3z"/>
	<path class="st40" d="M122.6,127.8h-4.1v-1c0-1.1,0.1-2,0.4-2.6s0.8-1.1,1.5-1.6c0.8-0.5,1.8-0.7,3-0.7c1.5,0,2.6,0.3,3.3,0.8
		c0.7,0.5,1.2,1.2,1.3,1.9c0.2,0.8,0.2,2.3,0.2,4.7v7.2h-4.2v-1.3c-0.3,0.5-0.6,0.9-1,1.1c-0.4,0.3-0.9,0.4-1.5,0.4
		c-0.8,0-1.5-0.2-2.1-0.6c-0.6-0.4-1-1.4-1-2.8v-1.2c0-1.1,0.2-1.8,0.5-2.2c0.3-0.4,1.2-0.8,2.5-1.4c1.4-0.6,2.2-0.9,2.3-1.1
		c0.1-0.2,0.2-0.6,0.2-1.2c0-0.7-0.1-1.2-0.2-1.5c-0.1-0.2-0.3-0.3-0.6-0.3c-0.3,0-0.5,0.1-0.5,0.3c-0.1,0.2-0.1,0.7-0.1,1.5V127.8z
		 M124,129.8c-0.7,0.5-1.1,0.9-1.2,1.3c-0.1,0.3-0.2,0.8-0.2,1.5c0,0.7,0,1.2,0.1,1.4c0.1,0.2,0.3,0.3,0.6,0.3
		c0.3,0,0.5-0.1,0.5-0.3c0.1-0.2,0.1-0.6,0.1-1.3V129.8z"/>
	<path class="st40" d="M139.4,127.7h-4.1V126c0-0.6,0-1-0.1-1.2c-0.1-0.2-0.3-0.3-0.5-0.3c-0.3,0-0.4,0.1-0.5,0.3
		c-0.1,0.2-0.1,0.6-0.1,1.2v6.7c0,0.5,0.1,0.9,0.2,1.1c0.1,0.3,0.3,0.4,0.6,0.4c0.3,0,0.5-0.1,0.6-0.4c0.1-0.3,0.2-0.8,0.2-1.5v-1.7
		h3.9c0,1.1,0,2-0.1,2.6c-0.1,0.6-0.3,1.2-0.7,1.8c-0.4,0.6-0.9,1.1-1.6,1.4s-1.5,0.5-2.4,0.5c-1.2,0-2.2-0.2-2.9-0.6
		c-0.7-0.4-1.2-1-1.5-1.8c-0.3-0.8-0.4-1.8-0.4-3.2v-4.1c0-1.2,0.1-2.1,0.4-2.7c0.2-0.6,0.8-1.2,1.6-1.7s1.8-0.7,2.9-0.7
		c1.1,0,2.1,0.2,2.9,0.7s1.3,1.1,1.6,1.8C139.3,125.3,139.4,126.3,139.4,127.7z"/>
	<path class="st40" d="M150.1,122.3l-1.8,5.7l2.3,8.6h-4.2l-1.4-6.2l0,6.2h-4.4v-17.5h4.4l0,7.3l1.4-4.2H150.1z"/>
</g>
<g class="st39">
	<path class="st40" d="M167.7,22.8c0.6,0.2,1,0.5,1.3,1c0.3,0.5,0.4,1.5,0.4,3.2c0,1.3-0.1,2.2-0.4,2.9c-0.3,0.7-0.8,1.2-1.5,1.6
		s-1.6,0.5-2.7,0.5c-1.2,0-2.2-0.2-2.9-0.6s-1.2-0.9-1.4-1.5s-0.3-1.7-0.3-3.2v-1.2h3.9V28c0,0.7,0,1.1,0.1,1.3
		c0.1,0.2,0.3,0.3,0.5,0.3c0.3,0,0.5-0.1,0.6-0.4s0.1-0.8,0.1-1.8v-1.1c0-0.6-0.1-1-0.2-1.3s-0.3-0.5-0.6-0.6
		c-0.3-0.1-0.8-0.1-1.6-0.2V22c0.9,0,1.5,0,1.7-0.1c0.2-0.1,0.4-0.2,0.5-0.5s0.1-0.6,0.1-1.1v-0.9c0-0.6-0.1-0.9-0.2-1.1
		c-0.1-0.2-0.3-0.3-0.5-0.3c-0.3,0-0.5,0.1-0.6,0.3c-0.1,0.2-0.2,0.6-0.2,1.2v1.3h-3.9v-1.3c0-1.5,0.3-2.5,1-3.1
		c0.7-0.5,1.8-0.8,3.3-0.8c1.9,0,3.2,0.4,3.8,1.1c0.7,0.7,1,1.8,1,3.1c0,0.9-0.1,1.5-0.4,1.9C168.8,22.1,168.4,22.5,167.7,22.8z"/>
	<path class="st40" d="M180.4,20.1h-3.9c0-0.7,0-1.2,0-1.4c0-0.2-0.1-0.4-0.2-0.5c-0.1-0.1-0.3-0.2-0.6-0.2c-0.2,0-0.4,0.1-0.5,0.2
		c-0.1,0.1-0.2,0.3-0.2,0.5s0,0.6,0,1.2v2.5c0.2-0.4,0.5-0.7,0.9-1s0.9-0.3,1.4-0.3c0.7,0,1.4,0.2,1.9,0.6c0.6,0.4,0.9,0.9,1.1,1.4
		c0.2,0.5,0.2,1.3,0.2,2.2v1.3c0,1.1,0,1.9-0.1,2.5c-0.1,0.5-0.3,1-0.7,1.5c-0.4,0.5-0.9,0.8-1.5,1.1c-0.6,0.3-1.4,0.4-2.2,0.4
		c-1.1,0-1.9-0.1-2.6-0.4c-0.7-0.3-1.2-0.7-1.6-1.3c-0.4-0.5-0.6-1.1-0.6-1.7c-0.1-0.6-0.1-1.8-0.1-3.5v-2.2c0-1.9,0-3.1,0.1-3.8
		c0.1-0.6,0.3-1.2,0.7-1.8c0.4-0.6,0.9-1,1.6-1.3c0.7-0.3,1.5-0.4,2.4-0.4c1.1,0,2,0.2,2.7,0.5c0.7,0.4,1.2,0.9,1.5,1.5
		C180.3,18.3,180.4,19.1,180.4,20.1z M176.5,25.1c0-0.6-0.1-0.9-0.2-1.2c-0.1-0.2-0.3-0.3-0.6-0.3c-0.3,0-0.5,0.1-0.6,0.3
		s-0.2,0.6-0.2,1.2v2.9c0,0.7,0.1,1.2,0.2,1.4c0.1,0.2,0.3,0.3,0.6,0.3c0.2,0,0.3-0.1,0.5-0.2c0.2-0.2,0.3-0.6,0.3-1.3V25.1z"/>
</g>
</svg>
