<?xml version="1.0" encoding="utf-8"?>
<!-- Generator: Adobe Illustrator 26.0.3, SVG Export Plug-In . SVG Version: 6.00 Build 0)  -->
<svg version="1.1" id="Слой_1" xmlns="http://www.w3.org/2000/svg" xmlns:xlink="http://www.w3.org/1999/xlink" x="0px" y="0px"
	 viewBox="0 0 195.6 280.6" style="enable-background:new 0 0 195.6 280.6;" xml:space="preserve">
<style type="text/css">
	.st0{clip-path:url(#SVGID_00000080924707702020217860000016331291460033911742_);fill:#134B88;}
	.st1{clip-path:url(#SVGID_00000080924707702020217860000016331291460033911742_);}
	.st2{fill-rule:evenodd;clip-rule:evenodd;fill:#FFFFFF;}
	.st3{fill-rule:evenodd;clip-rule:evenodd;fill:#D82928;}
	.st4{fill-rule:evenodd;clip-rule:evenodd;fill:#EFB42F;}
	.st5{fill-rule:evenodd;clip-rule:evenodd;fill:#F2C08E;}
	.st6{fill-rule:evenodd;clip-rule:evenodd;fill:#901D1A;}
	.st7{fill-rule:evenodd;clip-rule:evenodd;fill:#134B88;}
	.st8{fill-rule:evenodd;clip-rule:evenodd;fill:#2A204F;}
	.st9{clip-path:url(#SVGID_00000080924707702020217860000016331291460033911742_);fill:#2E74B3;stroke:#FFFFFF;}
	.st10{clip-path:url(#SVGID_00000080924707702020217860000016331291460033911742_);fill:#FFFFFF;stroke:#424242;}
	.st11{clip-path:url(#SVGID_00000080924707702020217860000016331291460033911742_);fill:#D49E63;stroke:#41382D;}
	.st12{clip-path:url(#SVGID_00000080924707702020217860000016331291460033911742_);fill:#FFFFFF;fill-opacity:0;stroke:#41382D;}
	
		.st13{clip-path:url(#SVGID_00000080924707702020217860000016331291460033911742_);fill:#F7E926;stroke:#41382D;stroke-width:1.05;stroke-opacity:0;}
	.st14{clip-path:url(#SVGID_00000080924707702020217860000016331291460033911742_);fill:#FFFFFF;stroke:#424242;stroke-width:0.99;}
	
		.st15{clip-path:url(#SVGID_00000080924707702020217860000016331291460033911742_);fill:#FFFFFF;fill-opacity:0;stroke:#41382D;stroke-width:0.6;}
	.st16{clip-path:url(#SVGID_00000080924707702020217860000016331291460033911742_);fill:#FFFFFF;stroke:#FFFFFF;}
	.st17{clip-path:url(#SVGID_00000080924707702020217860000016331291460033911742_);fill:#FFFFFF;stroke:#FFFFFF;stroke-width:0.98;}
	.st18{clip-path:url(#SVGID_00000080924707702020217860000016331291460033911742_);fill:none;stroke:#FFFFFF;stroke-width:1.35;}
	.st19{clip-path:url(#SVGID_00000080924707702020217860000016331291460033911742_);fill:none;stroke:#424242;stroke-width:0.5;}
	.st20{clip-path:url(#SVGID_00000080924707702020217860000016331291460033911742_);fill:#FFFFFF;}
	.st21{clip-path:url(#SVGID_00000080924707702020217860000016331291460033911742_);enable-background:new    ;}
	.st22{fill:#134B88;}
	.st23{font-family:'Impact';}
	.st24{font-size:24.77px;}
	.st25{fill:#2E74B3;}
	.st26{font-size:20px;}
</style>
<g>
	<defs>
		<rect id="SVGID_1_" x="0" y="0" width="195.6" height="280.6"/>
	</defs>
	<clipPath id="SVGID_00000163069088522083405950000011267165379237389990_">
		<use xlink:href="#SVGID_1_"  style="overflow:visible;"/>
	</clipPath>
	
		<rect x="-5.3" y="-8.4" style="clip-path:url(#SVGID_00000163069088522083405950000011267165379237389990_);fill:#134B88;" width="214" height="297.9"/>
	<g id="Warstwa_2" style="clip-path:url(#SVGID_00000163069088522083405950000011267165379237389990_);">
		<g id="_76815456">
			<path id="_76964264" class="st2" d="M165.1,272H30.5l2.3-60.6C34,175.5,61,149.2,97.1,148c34.5-0.5,65.8,26.4,66.2,63.4
				L165.1,272z"/>
			<path id="_76964192" class="st2" d="M164.4,271.4H31.2l2.2-60c1.2-35.5,27.9-61.6,63.7-62.8c34.2-0.5,65.2,26.2,65.5,62.8
				L164.4,271.4L164.4,271.4z"/>
			<path id="_76964120" class="st3" d="M101.5,243.7c-0.5,0.8-0.6,1.7-0.2,2.6c0.5,2.8,2.5,5.2,5.1,7.2c1.8,1.4,3.5,3.1,4.8,5
				c-0.2,0.6-0.9,0.9-1.5,0.7c-0.2-0.1-0.3-0.2-0.5-0.3c-1.9,2.8-5,0.3-8.3,0c-1.2,0.1-1.4,0.5-1.4,1.4c0.2,1.4-0.7,2.2-1.8,1.9
				c-1.7-0.2-4.6-0.1-5.5-0.2c0.6-0.9,2.5-0.6,3.5-0.9c1.9,0.6,2.2-1.3,1.3-1.3c-0.5-0.5-0.4-1.2-0.5-1.8c-1.2,0.1-2.4,0.4-3.5,0.9
				c-0.2-0.3,0.1-0.6,0.5-1.2c-0.8,0.6-2,0.4-2.6-0.4c-1.6-0.5-2.4,0.4-3.6,0.4c-0.9,1.1-1.7,1.6-4,1.2c1.8-0.2,3.4-1.4,4.1-3.1
				c-0.2-0.5,4.7-0.4,5.1-0.9s-0.3-1.4-0.8-1s-0.8,0.7-1.2,0.9c-0.4-0.9-0.1-2.3,0.2-3.2c-1.7-0.1-2.4-0.5-3-1.8
				c0.3-0.1,0.7,0.1,1,0.2c0.6-0.2,0.9-0.8,0.2-1c-0.8-0.3-1.3-1-1.3-1.8c0.2-0.4,0.8-0.6,1.3-0.7c-0.3,0-0.6-0.2-0.8-0.4
				c-0.2-0.6-0.2-1.2,0-1.7c0.3,0,0.7,0.1,1-0.2c0.1-2.1,0.5-4.1,1.2-6.1c0.3-0.7,0.4-1.5,0.2-2.2c0.5-0.8,0.7-1.8,0.7-2.7
				c-0.8-0.8-0.2-1.6,0.8-1.2c0.7-0.4,1.4-0.6,1-1.5c-0.1-1.6,0.1-2.6,1-1.8c0.4-1.8-0.3-3.4-0.4-5c0-1.5-2.3-0.5-3-1.1
				c0.3-0.9,0.9-1.3,1.2-2.2c-2.4-0.3-4.4-0.4-5.1,3.1c1.4,3,2.1,6.3,1.8,9.6c1.4,2,1.8,9.9-2.9,12.6c-1.6,1.6-3.4,2.8-4,4
				c-0.2-0.5-0.3-1.1-0.2-1.7c-1.3,1.9-3.6,2.1-5.3,3.7c-0.4-0.3-0.6-0.8-0.6-1.2c-3.8,2.8-7.3,6-10.6,9.5c1.4-3.5,4-7.1,6.5-10.5
				c-0.8,0.2-1.5,0.6-2,1.2c0.6-0.9,1.3-1.8,2-2.6c-4.5,3.1-8.8,2.2-15.9,10.7c2.3-7.8,5.2-10.6,14.5-15.6c-6,1.4-11,3.7-16.3,5.6
				c5.1-6.5,17.9-7.4,16.3-9.7c-2.7,0.3-5.3,1-7.9,1.9c-0.1-0.3-0.1-0.6,0.2-0.8c-5.5,0.7-10.9,2.5-15.7,5.3
				c1.9-3.2,7.6-10.3,13.1-10c1.1-0.1,2.2-0.5,3.1-1.2c-6.7,0.2-3.3-2.1-15.3,0.6c4.5-2.8,10-3,16.4-2.9c-5.8-2-6.1-5.7-18.5-3.9
				c0.7-1.4,4.7-2.7,7.2-3.2c2.4-0.2,3.1-0.8,3.2,0.3c1.3-0.6,3.3-0.8,2.8,0.2c0.9-0.5,3.4-0.4,4.1,0.7c0.5,0.3,1.1-0.4,2-0.6
				c-6.1-2.8-12.7-4.4-19.4-4.9c6.8-1.7,13.2,0,19.5,1.8c-6.2-4.5-13.6-9.4-20.1-9.7c7.5-1.6,15.3-0.2,21.7,4c2,0.9-1.1-1.4,0.9-0.2
				c0.5,0.3,1.9,0.9,2.5,1.2c-7.4-7.5-14.9-10.4-23.4-12.7c5.4,0.1,11.5,2.1,16.3,4.2c1.4,0.7-0.7-1,1.5,0.1c2.7,1,4.1,2.2,6.8,3.4
				C60.8,202.2,52.4,197,42.1,193c3.4-0.8,6.5,0.1,9.7,1.1c2.2,2.2,2,2.3,2.8,1.3c1.2,0.3,5.1,1.1,5.7,2.2c0.5,2.4,1.4,3.1,1.4,1.1
				c2.5,1,4.9,2.5,6.9,4.3c0.6,2,0.9,2.2,1.8,1c1.5,0.9,2.9,2,4.2,3.2C69.7,200,62,196.7,56,193.3c8.4,2.1,15.8,6.4,24.7,14.7
				c-3.2-7.1-8.6-11-14.5-15c1.7,0.1,3.3,0.5,4.9,1.2c1.7,0.8,3.3,1.7,4.8,2.9c2.1,1.6,4,3.4,5.7,5.4c1.7,1.9,3.2,3.9,4.7,6
				c-1-3.1-2.7-6-4.9-8.4c4.5,2,7.8,6.3,9.8,11.1c0.5,0.7,1,0.6,1.1-0.3c-1.9-4.9-4.8-9.3-8.7-12.9c-5.5-4.1-7.1-8-7.2-12.2
				c2-0.5,4.2-0.2,6,0.8c2.6,1.2,4.8,2.7,7.1,3.8c1.9,0.7,3.9,0.8,5.9,0.2c1.3,0.8,1.9,3.5,2.4,3.9c0.7-0.4,1.6-0.4,2.3,0
				c-0.9,0.9,1.8,3.9,4,5.7c0-0.7,0.1-1.1,0.1-1.8c0.3-0.9,0.9-0.8,1.2-0.3c0.9,1.1,2,2.1,3.2,2.9c0-0.5,0.2-0.9,0.7-1.2
				c1.7,1.4,3.7,3.4,5.1,3.1c0.8,0.5,1.7,0.3,2.4,1.5c0.9,0.5,2.8,0.6,2,3.1c2.8-1.9,5.6-3.7,8.5-5.6c-0.8-0.8-3.2-1.1-5.8-0.1
				c-1.5,1.6-3.3,0.4-3.5-1.8c-0.7-1.4,2.1-3.9,3.7-1.9c1.3-0.6,2.8-0.6,4.1-0.1c1.4-0.6,3-0.4,3.6,0.6c0.7-0.6,1.7-0.7,2.6-0.4
				c0.7-1.3,0.3-2.5,2.5-2.3c0.4-1.4,1.7-1.8,3.3-1c0-1.1,0.5-1.7,2-1.6c2,0.5-0.7,4,2.9,3.7c0,1.7-1.1,2.5-3.3,1.4
				c-0.9-0.2-1.9,0.1-2.5,0.8c1.1-0.1,1.7-0.2,2.6,0.8c2.3,0.1,2.6,0.4,4,1.8c2.4-1,3.5,0.8,2.8,3.1c0.5,1-1.4-1-1.9-0.6
				c-1.9,0.6,1.1,3.2-2.2,2.1c-1.1-0.4-1.6-3-2.9-2.9c0.5,0.5,0.8,1.3,0.8,2c2.6,0.8,1.2,3.1-1,4c-2,0.8-3.4-0.9-2.8-1.9
				c-0.5-0.5-0.7-1.3-0.4-2c-1-0.5-1.7-1.3-1.9-2.4c-0.7-0.6-1.2-0.4-2.2,0.4c-2.3,1.7-4.5,3.7-6.5,5.8c1.5-0.5,3.2-0.3,4.6,0.6
				c-2.1,0.8-3.9,2.2-5.3,3.9c1.1,0.6,2.3-0.7,4.2,0.1c-1.3,1-3.3,3.1-3.1,5.2c0.6-1.5,2-1.8,3.5-1.2c-1.1,1.6-0.9,4.4-1.3,5.8
				c0.8-0.3,1.6-0.3,2.4,0c-0.9,0.7-1.8,1.3-1.8,2.1c2.6,0.1,3.4,3.8,4.4,5.6c-0.9-0.4-2-1.8-2.6-1.1c2.1,2.2,4,4.5,5.7,6.9
				c0.3-0.8,0.1-1.7-0.5-2.3c-1.6,0-1.9-2.1-0.8-2.9c1.1-0.2,1-0.4,2.1-0.6s2.1,0.7,1.2,2c1.1,0.3,1.7,1.4,1.5,2.4
				c0,0.2-0.1,0.3-0.2,0.5c0.6,0.7,0.9,1.7,0.6,2.6c0.6,0.2,1,0.7,1.1,1.3c1.3,0.1,3.3-0.1,3.7,1c1.4-0.6,3.1-0.4,4.3,0.5
				c0.5-0.9,2.6-0.6,2.6,1.3c-0.2,1.2-0.2,0.9-0.4,2.1c-0.9,1.4-2.3,1.2-3.2,0.1c-1.4,0.4-3.7-0.9-5.7-0.5c0.1,1.2,0,2.4-0.4,3.4
				c0.5,1,0.4,2.2-0.4,3c1.2,1.3,1.2,2.6-0.6,3.3c-1-1.2-2.4-1.5-3.1,0.6c-1.1-0.1-2-1-2-2.1c0-0.8,0.5-1.4,1.2-1.8
				c0-1.2,0.3-2.5,0.8-3.6c-0.5-2.4-1.5-1.7-1.3-0.5c0,1.4-0.7,1.9-2.3,1.8c0.1,1-1,2-2.5,1.8c0,1.4-1.2,3-2.7,1.7l-1.9-0.8
				c-1.9-0.1-0.8-2.9,1.7-2.9c0.3-1,2.9-1.1,3.9-2.4c1-0.8,1.6-1.1,1.5-2.2c-0.1-1.1-0.2-2.2-0.1-3.3c-2.2-2.4-4.5-5-6.8-7.4
				c0.3,1.9-0.3,3.7-1.7,3.9c0.1-4.6-2.7-4.1-3.4-6.1c-0.7,0.4-1.6,0.7-2.4,0.6c0.9,0,2.2,0.1,1.9,0.6c-1.4,0.4-2.8,2.1-3.7,2.9
				c-4.1,2.6-5.7,3-9.9,3.4c0.2,1.2,0.1,1.4-1.1,1c-3.1-1-4.7,0.6-5.3,3.3L101.5,243.7z"/>
			<path id="_76964048" class="st4" d="M117.7,201c-1.6,0.2-3.2-0.7-3.7-2.3c1,0.7,2.3,0.8,3.4,0.3
				C117.4,199.8,117.7,200.4,117.7,201z M140.4,196.9c1-0.2,1.9-0.8,2.4-1.7c0.9-2-0.6-2.6-1.4-2.8c0.1,0.6,0.1,1.2-0.2,1.7
				c-0.6,0.9-0.9,1.1-1.7,1.2c-0.3,0.6,0,1.2,0.6,1.5C140.1,196.9,140.2,196.9,140.4,196.9L140.4,196.9z M142.9,205.9
				c2.1,2.6,4.9,0.4,5.5-1.6c-1.9,1.7-2.9,0.1-4.1-0.4C143.2,203.7,142.6,204.8,142.9,205.9L142.9,205.9z M137.9,209.3
				c0.6,1.4,2.9,3.1,4.7,1.1c-1.4-0.6-2.3-0.5-2.7-2.2C139.3,208.8,138.6,209.2,137.9,209.3L137.9,209.3z M135.9,231.5
				c-0.7,0.1-1.4,0.4-2,0.8c-0.2-1.1,0.1-2.7,2.7-3.8C136,229.9,135.5,230.6,135.9,231.5L135.9,231.5z M150.3,245.3
				c2,0.5,3.6-1.5,4-2.6c-1.1,0.6-2.4,0.7-3.6,0.5C150.6,244,150.4,244.6,150.3,245.3L150.3,245.3z M127.4,255.3
				c-0.1-0.9,0.2-1.9,0.8-2.6c-0.7-0.4-1.3-0.5-2-0.9C125.9,253,126.3,254.4,127.4,255.3L127.4,255.3z M101,243.4
				c-1,0.3-0.1,3.5,0.6,4.9c1.4,2.2,3.2,4.1,5.4,5.5c1.3,1.3,2.6,2.7,3.7,4.2c4.2,0.6,5.9-1.9,5.6-5c-2.8,1.4-4.4,0.8-6.1-1
				c-5.5-0.2-8-3.3-7.2-6.1c1.5,1.3,3.3,2,5.3,2c1.9-0.1,3.9,0,5.8,0.2c1.8,0.1,3,0.5,3.8,1.5c0.5,0.2,0.5,0.5,0.3,0.9
				c-0.5,0.7,0,1.1,0.7,1.1c1.1-0.1,1.9-1,1.9-2.1c0,0,0,0,0-0.1c-0.6-1.2-1.7-2-3.1-2.2c-2.5-0.4-5-0.5-7.5-0.2
				c-2.2,0.2-4.5-0.3-6.4-1.4c2.6-0.5,5.4,0,7.6,1.5c-0.1-0.8,0-1.8-1.4-2C107.1,244.1,104,243.5,101,243.4z M136.9,255.2
				c0.8,1.5,2.6,3.8,4.1,3c-0.8-1-1.3-2.2-1.3-3.5C138.5,253.3,137.4,253.9,136.9,255.2L136.9,255.2z"/>
			<path id="_76963976" class="st5" d="M47.8,244.9c3.2-1.6,6.4-3.2,9.5-3.7c0.1-0.4,0.2-0.6,0.2-1.1c6.4-2.1,13.1-2.8,19.8-2
				c-6.6-2-13.8-1.5-20.1,1.4C54.2,241.4,50.8,243,47.8,244.9L47.8,244.9z M51.7,240.7c7.2-4,14.6-5.1,22-5.4
				c-2.1,0-4.3-0.1-6.4-0.1c-1.3-0.2-3.5-0.5-4.8-0.7c-0.7,0.5-1.6,0.9-2.5,1.1c0.2,0.4,0.3,0.9-0.2,1.1c-1.9,0.6-4,1.1-6,1.2
				c0.3,0.4,0,0.4,0.3,0.8C53,239,52.1,239.7,51.7,240.7L51.7,240.7z M62.5,245c5.2-2,10.6-3.4,16.1-4.4c-0.9-0.1-1.8-0.2-2.6-0.4
				C71.5,241.8,65,242.4,62.5,245z M57.5,253.1c4.3-3.8,10.1-7.3,14.9-10.4c-0.9,0.4-1.8,0.6-2.8,0.6
				C65.9,245.4,60.1,249.1,57.5,253.1z M58.3,255.5c1.3-1.3,2.8-2.3,4.3-3.2c-0.4-0.2-0.5-0.6-0.1-0.9c5.3-3.3,10.9-6.1,16.6-8.6
				c-0.3-0.1-0.5-0.2-0.8-0.4c-5.9,2.3-11.5,5.4-16.7,9.1C60.4,252.6,59.2,253.9,58.3,255.5L58.3,255.5z M80.3,242.5
				c-0.8,0.1-1.7-0.2-2.2-0.9c1.2-1.2,2-1.3,2.9-0.9c0.3,0.3,0.1,0.7-0.2,0.7c-0.5,0.2-1.1-0.1-1.5,0.3c0.3,0.1,0.9-0.2,1.1,0
				S80.9,242.3,80.3,242.5L80.3,242.5z M79,236.5c-2.6,0.4-10.3-4-14.2-4c0.9-0.2,2.4-0.1,3.4-0.2c-3.5-0.8-6.6-2.6-9.8-3.7
				c5.3,1.4,16.1,4.2,21.1,7.1c0.2,0.1,0,0.5,0.3,0.6c1-0.4,0.8-1.1,1.6-1.4c-0.3,0.8-0.6,1.5-1,2.2c-0.6,0.1-1.1,0.4-1.5,0.8
				c0.1,0.2,0.1,0.4,0.2,0.6l1.1,0.5c0.5,0.7,1.3,1.2,2.2,1.2c-0.6,0.2-1.3,0.2-1.9,0c-0.6-0.4-1.1-0.8-1.6-1.3
				c-0.4-0.5-1-0.7-1.6-0.6C77.7,237.5,78.3,236.9,79,236.5L79,236.5z M74.9,233.4c-5.3-3.6-12.2-4.7-18.2-5.7
				C63.3,229.6,68.9,230.8,74.9,233.4L74.9,233.4z M45.7,220.9c13.9,0,23.2,6,31.4,10.2c-5.1-4.5-16.4-8.7-20.5-9.4
				C53,220.9,49.3,220.7,45.7,220.9z M81.5,234.6c-1.1-0.7-2.6-1.7-2.9-2.5c-0.2-0.8,0.2-0.9,0-1.6c1.1-1.2,2.1,0.1,3,1
				c0.3-0.3,0.3-0.2,0.6-0.5c-2.4-2.1-3.2-1.7-5-1.4c0.3,1,0.6,2.3,0.8,3.3C78.9,233.8,80.2,234.5,81.5,234.6L81.5,234.6z M52.1,214
				c8.8,3.8,17.3,8.4,25.3,13.6c1,1.3,2,0.9,1.4-0.1c-1.1-0.3-2.1-1-2.9-1.9C68.8,221.8,60.5,215.9,52.1,214z M81,226.2
				c-1.1-0.8-1.8-2.4-3.6-3.1c0-1.4,2-3.4,3.7-3c-2.2,0.4-2.8,1.6-2.3,2.5C79.7,223.8,80.5,225,81,226.2L81,226.2z M55.6,207.8
				c7.9,4,15.2,9.1,21.8,15c0.3-0.3,0.4-0.6,0.4-1c-6.1-5.7-14.4-10.2-21.1-13.7c1.8,0.3,8.2,3,10.4,3.9
				C65.1,210.8,55.9,206.8,55.6,207.8L55.6,207.8z M84.2,214.5c-0.3,0.2-0.6,0.4-0.9,0.6l-13.6-14.6L84.2,214.5L84.2,214.5z
				 M47.6,195.3c13.8,6.7,25,14.5,32.2,23.8c0.1,0.5,0.6,1.6,1.4,0.7c0-0.5,0.5-0.9,1.5-0.9c-1.3-0.6-2.1-0.3-2.4,0
				c-4.8-4.6-7.1-10.2-14.5-14c1.3,0.1,2.5,0.6,3.6,1.2c-2-1.5-4.2-2.7-6.5-3.5c0.4-0.2,1-0.2,1.4,0c-1.3-1.3-3.5-2.4-5.2-3.5
				c0.4,0.1,0.9,0.2,1.3,0.4c-0.6-2.1-2.7-2.8-5.9-4c0.4,1.2,1.3,2.3,2.4,3.1C53.9,197.2,49.9,195.3,47.6,195.3L47.6,195.3z
				 M82.6,222.1c0.4-0.1,0.7-0.4,0.8-0.8c-0.7,0-0.9-0.3-1.3-0.8c-0.5,0-1,0.3-1,0.8c0,0,0,0,0,0C81.5,222,81.9,221.9,82.6,222.1
				L82.6,222.1z M83.4,220.9c-0.6-0.3-0.8-0.8-0.9-1.8c0.2-0.3,0.2-0.2,0.4-0.2c0.5,0.8,0.9,0.4,1.3,0.8
				C84.1,220.2,83.8,220.6,83.4,220.9z M87,217.4l-0.8,0.4c-0.9-0.5-1.2-2.2-2.7-1.6c0.2,1,1.7,1.3,2.1,2.1l-1,1
				c-2.5-0.7-1.2-2.6-2.3-4.1C86,214.3,85.4,216.6,87,217.4L87,217.4z M70.6,195.5c7.6,3.9,12,11.3,16,18.4c-0.1-0.4,0.1-0.9,0.5-1
				c0,0,0,0,0,0C83.2,205.5,77.3,198.2,70.6,195.5z M91.1,216.5c-0.9,0.3-1.8,0.3-2.7,0.2c-0.7,0.1-1-0.4-1.4-0.6
				c-0.1-0.8-0.4-1.3-0.5-2c0.5,0.1,1,0.4,1.3,0.8c0.5,0.5,0.9,0.5,1.6,0c-0.1-0.4,0.1-0.8,0.5-0.9
				C90.3,214.8,90.3,215.7,91.1,216.5L91.1,216.5z M92.2,215.7c-1.7-3.2-3.5-6.5-5.2-9.8l5.9,9.6L92.2,215.7z M114.5,203
				c0.4,0.2,0.7,0.3,1.2,0.5c0.2,1,0.5,2,0.9,2.9c0.3,0.5,0.7-0.2,0.4-0.5c-0.1-0.5-0.2-1-0.3-1.5c0.6,0.3,1,0.4,1.6,0.8
				c-1,0.4-1,2.5-1.1,3.9c-0.2-0.6-0.4-1.2-0.8-1.7c-0.4,0.4-0.8,0.8-1,1.4C115.1,206.7,115.2,204.9,114.5,203L114.5,203z
				 M109.7,204.7c-0.8-2.2-0.6-3.6,0.2-4.3c-0.2-0.2-0.4-0.3-0.6-0.6C108.3,200.6,108.2,202.9,109.7,204.7L109.7,204.7z
				 M104.7,202.9c0.2,0,0.7,0,0.9-0.1c-0.8-1.5-1.2-3.1-1.2-4.8C103.6,199.8,104.5,202.6,104.7,202.9L104.7,202.9z M92.5,208.7
				c0.3,1.2,1.1,1.9,2.8,2.4c2,0.5,5,4.5,6.9,6.7c-1.2-2-5.2-7.4-6.5-7.2c-0.9,0.1-1.9-1.9-2.9-2.6C92.3,207.1,92.4,208,92.5,208.7
				L92.5,208.7z M138.8,244.7c0.6,0.3,0.9-0.1,0.5-0.3c-0.4-0.4-0.7-1.1,0.2-1.2c0.6-0.2,0.7-0.4,0.3-0.7c-1.1-0.2-3.1-1.9-4.1-2.7
				C136.5,241.5,137.5,243.2,138.8,244.7L138.8,244.7z M135.3,201.9c2.1,0,3.2,1,5,2c-0.2-1-0.8-1.8-1.7-2.1
				c-0.9-0.4-1.7-0.8-2.4-1.4c-0.8,0-1.5,0.7-1.8,0.7C134.8,201.1,135.2,201.4,135.3,201.9L135.3,201.9z M129.1,200
				c-0.4-0.2-0.6-0.9,0.1-1.3c-1.1-0.5-2.5-0.5-3.6,0.2c-1.1-0.8-2.6-0.9-3.7-0.1c-0.2,0.7-1,0.8-2.2,0.4c0.6,0.3,0.8,0.7,1.2,1.5
				c0.8-0.1,1.5-0.5,2-1.1c0.7-0.2,1.5-0.1,2.2,0.1c0.7,0.2,1.3,0.6,1.8,1.1c0.6,1.5,2,0.1,2.9,0.4c1.2,0.6,2-0.1,1.9-1.5
				C131,199.5,130.5,200.9,129.1,200L129.1,200z M120.9,217.5c0.7-1.9,4.1-6.2,7-7.4c-1.7,0.4-3.8,2.2-5.1,3
				c0.6,0.3,0.4,0.4-0.4,0.6C121.4,214.7,120.9,216.1,120.9,217.5z M113.5,222.7c1.9-3,6.2-8.8,9.4-9.2c-2.9-2.6-6.3-0.1-7.6,1.3
				c-1.9,2.1-3.5,4.3-2.5,7c0.2-2.5,1.3-4.8,3.1-6.6c1.1-1.2,2.7-1.8,4.3-1.8C117.5,215.5,114.3,219.2,113.5,222.7L113.5,222.7z
				 M111.1,214.2c0,0.3,0.2,0.5,0.4,0.6s0.5-0.2,0.6-0.4c1-2.5,0.8-5.4-0.5-7.8c-0.6-1.1-2-0.6-2.8,0c-0.8-0.7-2.2-0.7-1.8,0.7
				c0.5,0.5,1.3,0.6,1.9,0c0,0,0.1-0.1,0.1-0.1c0.4-0.5,0.9-0.3,1.4,0.2C111.6,209.1,111.3,211.8,111.1,214.2L111.1,214.2z
				 M103.8,213.2c-0.4,0-0.6-0.1-0.9,0c-0.8-1.7-1.7-3.3-2.9-4.8c-0.5-1-0.2-2.2,0.8-2.7c0.2-0.1,0.4-0.2,0.6-0.2
				c0.2,1.7,0.4,2.3,1.5,2.9c1.3,0.6,3.9,3.8,4.5,5.3c-1-1.4-3.5-4.8-5.6-5.3c0.1-1-1.7-0.9-1-0.1C102,210,103.1,211.9,103.8,213.2z
				 M99.6,234.9c1.7-2.7,2.1-10.3-0.2-12.8C100.2,226.3,100.2,230.7,99.6,234.9z M96.4,240.3l0.6-4.6l1.2-5.5l-0.6,5.4l-0.3,3.2
				c1-1.4,1.2-1.1,2.2-2c-1.3,2.8-3.5,5.9-3.8,8.8C95.3,244.4,95.9,242.4,96.4,240.3L96.4,240.3z M92,243.1c-0.3,0.4-0.6,0.5-0.8,0
				l1.7-6L92,243.1z M94,241.7c-0.2,0.5-0.7,0.5-0.8,0.1c0.8-2,1.5-4.1,2.3-6.1C95,237.7,94.5,239.7,94,241.7z M94.9,250.2
				c0.2-0.9,0.7-3.1-0.5-2.9c-0.3-1-0.1-2.1-1.3-2.9c0.1,1-0.1,1.1-0.5,1.5c0.4-0.2,1-0.1,1.3,0.3c0.2,0.5-0.3,1.4,0.1,1.6
				C95,247.3,94.8,249.3,94.9,250.2L94.9,250.2z M94.3,252c0.2,0.4-0.1,0.7-0.5,0.6c-2.7-2.5-2.4-5.6-2.1-7.9
				C91.5,247.4,92.4,250.1,94.3,252z M96.4,244.4c-0.9,2.7-1.1,5.9,0,7.9c0.2-0.1,0.5-0.2,0.7-0.3c-1-2.3-1.1-5-0.1-7.4
				c0.7-1.5,1.6-3.8,3.1-4.9c-1.8,1.7-2.4,8.6-2,10.5c0.2-3.5,0.5-7.9,2.9-10.4c1-1.9,7.8-3.7,10.8-6c-1.3,0.3-2.6,0.4-3.8,0.2
				c-0.7,1.3-4.2,3-5.9,3.5c-0.8,0.4-1.6,0.8-2.3,1.4c0.5-1.2,1.4-2.1,2.5-2.8C99.3,236.9,97.7,240.8,96.4,244.4L96.4,244.4z
				 M98.6,252.3c-0.2,1-1.9,0.6-3.6,2.1c0.5-0.9,0.5-1.1-0.4-1.6c1.5,0.2,3-0.8,3.9-1.3C98.7,251.7,98.8,252.1,98.6,252.3z
				 M92.3,261.8c1.3,0.1,3.2,0,5.5,0.1c0.2,0.1,0.5,0.1,0.7,0c1.7-0.8-0.6-1-1.2-1C95.7,261.5,94,261.8,92.3,261.8L92.3,261.8z
				 M99.4,260c-0.8-0.2-0.8-0.4-1.7-0.6c0.1-0.4,0.2-0.2,0.2-0.6c0.7,0.2,1.4,0.2,2.1,0.1C99.6,259.1,99.3,259.6,99.4,260L99.4,260z
				 M90.8,257c0.6,0.6,1.5,0.7,2.3,0.3c0.6-0.3,0.9-1.2,1.3-1.3c0.6,0.1,0.4,0.6,0.2,1.1C92.6,257.7,91.9,258.3,90.8,257z
				 M106.8,222c-1.2-4.5-4.7-11-8.1-12.5C101.1,212.3,105.4,216.9,106.8,222L106.8,222z M57.1,229c-2.9-2.7-6.2-3.1-9.9-1
				C50,227.8,53.4,227.6,57.1,229L57.1,229z M72.7,234.9c-2.1,0.2-4.2,0.1-6.3-0.2c-0.6-1.6-10.4-3.6-18-0.4
				C56.6,231.5,63.7,231.6,72.7,234.9L72.7,234.9z"/>
			<path id="_76963904" class="st2" d="M107.8,255.7c-0.7,0.5-1.4,0.8-2.2,1.2c-1.1,0.6-2.5,0.4-2.3-1.2c0.2-1.2,1.2-2.1,2.4-2.1
				C106.3,254.4,107.1,254.9,107.8,255.7z"/>
			<path id="_76815600" class="st6" d="M65,258.9c3.6-3.9,7.2-7.2,10.9-11.1c-0.3,0.7-0.5,2,0,2.4c1.6-1.2,3.3-1.4,4.6-3.1
				c1.1-1.1,2.5-1.8,4-2.2c-0.9,1-1.2,2-0.9,2.5c1.3-1.3,3-2.6,4.2-3.9c1.2-2.6,2.6-6.6,0.5-9.9c0.3-3.6-0.4-7.1-1.9-10.4
				c0,3.7,1.3,7.5-0.1,9.8c1.5,2.7,1.8,5.9,0.9,8.8c-0.4,1.5-1.3,2.1-3.5,2.4c-1.5,0.3-3,1-4.1,2c-0.9,0.6-1.8,1.5-2.7,1.6
				c-0.1-0.6,0-1.3,0.3-1.9c-2,0.8-4.9,1.1-6.1,2.3c1.5-0.6,0.1-0.3,1.4-0.3c0.9-0.2,1.2,0.2,1.3,0.7c-0.3,0.6-0.8,1.1-1.4,1.3
				c-0.5,0.3-1.1,0.5-1.6,0.6C68.5,253.3,66.7,256,65,258.9z M80.9,242.1c1.4,0.2,2.7-0.3,3.7-1.3c0.5-1,0.5-2.3-0.1-3.2
				C84.3,240.1,84,240.8,80.9,242.1L80.9,242.1z M77.2,245.4c-0.6-0.1-1.1,0-1.7,0.2c1-0.9,2.9-2.5,4.3-2.8
				C78.9,243.5,78,244.4,77.2,245.4L77.2,245.4z M77.7,237.5c-2.9-1-5.9-1.4-8.9-1.1c2.5-0.4,5.1-0.6,7.6-0.4
				c0.8,0.3,1.6,0.5,2.5,0.6C78.5,236.9,78.2,237,77.7,237.5L77.7,237.5z M81.5,229.2c0.2-0.4,0.3-0.6,0-0.8
				c-0.4-0.4-0.6-0.7-0.8-1.6c-0.2-0.5-0.7-0.9-1.3-1c-0.5,0.3-0.6,0.4-0.3,0.6c0.5-0.2,1,0.5,1.2,0.9
				C80.3,228.2,80.7,228.9,81.5,229.2L81.5,229.2z M83.7,232.3c0.4,1.3-0.5,0.9-0.8-0.3c-0.9-2.9-1-6-0.3-8.9
				c-0.8,0-1.3-0.7-1.8-1.3c0.6,0.5,1.3,0.6,2.1,0.5c1.4-1.5,2.7-3.6,3.1-4.1C83.1,222.3,82.2,227.5,83.7,232.3L83.7,232.3z
				 M148.4,243.3c-0.8-0.9-2.1-1.1-3.1-0.6c-0.4,0.1-0.7-0.6-0.6-1C146.9,240.9,148.8,241.8,148.4,243.3L148.4,243.3z M147.5,245.8
				c0.4-0.2,0.3-0.9,0.2-1.2c-0.7,0.4-1.6,0.6-2.4,0.5C145.8,245.8,146.7,246.1,147.5,245.8z M141.3,248.3c0-1.5-0.6-2.9-1.8-3.8
				c1.5-0.5,3.2-0.2,4.4,0.9c-0.7-0.1-1.3-0.1-2,0.1C142.2,246.4,142,247.5,141.3,248.3L141.3,248.3z M137.2,255
				c0.3-1.1,1.5-1.8,2.6-1.6c0.3,0.1,0.6,0.2,0.8,0.4c0.4-0.7,0.2-1.7-0.5-2.2c0.1-1,0.6-2,0-3.2c0.6-0.3,2.9,0.8,0.9,3.3
				c1.8,1.8,0.5,2.8-0.8,3.5C139.6,253.8,138.2,254.6,137.2,255L137.2,255z M128.4,252.7c1.2-0.1,1.4-0.9,1.7-1.9
				c1.2,0.4,1.4-0.1,1.4-0.8c-1.3,0.1-2.4-0.1-2.9-0.9c1.2-0.6,2.4-1.2,3.6-2c0.9-0.8,2.2-1.4,1.7-2.8c-0.1-0.9,0-1.8-0.1-2.7
				c1,1.7,2.8,3,2.7,4.5c-0.3,0.3-0.9,0.8-0.7,1.5c0.1,1-0.4,1.9-1.9,1.5c-0.5-0.6-0.7-1.4-0.7-2.2c-0.8,0.7-3,2.1-2.5,2.5
				c0.9,0,1.9,0.5,2.7-0.1c1,1.3-1.2,2.2-2.5,2C131.6,252.5,130.2,254.4,128.4,252.7L128.4,252.7z M126.9,227.1
				c0.9,1.4,2.6,4.1,2.2,5.8c2.7,2.5,5.6,5.2,8.3,7.8c-2.5-3.4-5.2-6.6-7.6-10c-0.6,0-1-1.1-1.5-1.6c0.1-0.4,0.4-0.3,0.8-0.3
				C128.5,228,127.8,227.4,126.9,227.1L126.9,227.1z M115.1,233.8c0.5-1,1.3-1.8,2.3-2.3c9.8-1.1,8.4-5.1,11-6.6
				c-1.9,2.1-3.4,4.9-0.7,6.9c-1.2-0.2-2.2-0.9-2.8-1.9c-1.8,1.5-4,2.3-6.3,2.4C116.6,232.5,116.5,233.3,115.1,233.8L115.1,233.8z
				 M112.5,238.5c2.1-1.3,4.1-2.8,6-4.5c0.8-0.7,1.9-1.1,3-1.1c-0.8,0.5-1.6,1.1-2.3,1.7C117.4,236.5,115.1,237.8,112.5,238.5
				L112.5,238.5z M109.1,258.1c0.6,0,0.6,0.1,0.7-0.4c-1.4-2.1-3.1-3.8-5.2-5.2c-0.4-0.2-0.7-0.2-0.2,0.4c0.8,0.4,1.4,1,1.8,1.7
				c-0.9,0.2-1.4,1-1.3,1.8c0.1,0.3,0.2,0.6,0.4,0.8c-0.8,0.7-2,0.5-2.7-0.3c0,0,0,0,0,0c-3.5-2.1-4.5-0.8-9.4,1.3
				c4.2-1.8,6.6-2.4,9.5-0.7c1.2,0.6,3-0.1,3.7-0.5c-1.7-0.1-1.2-1.9,0.3-1.7C107.9,256,108.7,256.9,109.1,258.1L109.1,258.1z
				 M93.9,255.1c-0.4-0.3-0.8-0.5-1.2-0.8c0,0.5-0.6,0.9-1.6,1.1c-0.8,0.1-1.5,0.3-2.2,0.6C92,255.4,93.2,256.5,93.9,255.1
				L93.9,255.1z M93.4,252.7c0.3,0.5,0.3,0.5-0.3,0.4c-3.6-3.2-2.5-6.8-2.5-9.4C90.6,246.8,91.1,250.7,93.4,252.7z M94.6,241.6
				c-0.2,0.5-0.5,0.7-0.6,0c0.2-1.2,0.5-3,1.7-4.1C95.1,238.8,94.7,240.2,94.6,241.6L94.6,241.6z M91.7,234.6
				c0.3,0.7,0.5,0.6,0.8,0.1c0.6-0.9,0.5-1.7-0.6-2.9C92.1,233.2,92.3,233.6,91.7,234.6z M90.9,242.9c-0.1,0.5-0.5,0.7-0.6,0.2
				c0.3-2.1,0.9-4.7,2.3-6.5c1-1.5,0.8-1.1,1.8-2.6c1.8-3.4-0.9-3.9-1.5-5.5c-0.2-0.2,0.4-0.1,0.9,0.1c-0.1-1.2-0.2-2.5-0.2-3.7
				c0.4,1.9,1.1,3.4,1.6,5.2c1,1.4,0.5,3-0.5,4.4C92.9,236.3,90.6,239.8,90.9,242.9L90.9,242.9z M94.7,223c1.2,2.3,1.8,4.9,1.8,7.6
				c0,0.4,0.5,0.3,0.7-0.1C97.7,227.6,96.1,224.5,94.7,223z M89,217.8c-1.8,0.1-3-1.1-3.5-3.2c-0.6-2.3-2.4-5-3.8-7.5
				c1.7,2.2,3.1,4.6,4.4,7.1c1.4,3.9,2.9,2.5,6.3,2.1c0.7-1,1.8-1.7,3-1.8c-0.2-2.7-2.7-2.4-3.2-3.7c-0.8-2-1.8-3.9-2.8-5.7
				c0.8,0.1,3.4,1.2,3.6,1.7c1.1,1,2.5,1.6,4,1.6c0.6,0,0.8,0.6,0.1,1c-1.8,0-3.5-0.7-4.6-2.1c-0.7-0.5-1.6,0.8,0.4,3.3
				c1.2,1.5,3.4,1.7,4.5,4.1c-1.9-0.1-3.7,0-3.9,1.2c1.6,1.2,2.9,2.8,3.6,4.6c-0.9-1-2.2-1.6-3.6-1.7c0.3-0.4,0.2-0.6-0.3-0.9
				C92,217.1,91.1,217.1,89,217.8L89,217.8z M81,208.4c0.9,2.1,2.5,4,3.6,6c-4.7-4.3-9.1-9.7-13.6-14.2
				C74.5,202.6,77.9,205.4,81,208.4L81,208.4z M79.9,216.5c-0.1-0.5,0.3-0.9,0.6-0.6c0.6,1,1.7,1,0.9-0.2c-2.2-2.1-4.7-4.4-6.9-6.6
				c2.8,2.2,5,4.3,7.8,6.5c0.8,1.1,0.6,2.6-1,2.5C80.7,217.8,80.1,217.2,79.9,216.5L79.9,216.5z M79.2,224.8c-3.8-2-6.1-5.3-9.8-6.8
				c-4.4-4.5-11-9-20.7-11.9c7.8,0.9,17.3,7.8,22,11.3C74.1,219.5,76,222.6,79.2,224.8L79.2,224.8z M72,226.2
				c-5.8-4.6-12.3-8.3-19.3-10.9c4.3,2.3,8.4,4.9,12.3,7.7C67.4,223.9,69.8,224.9,72,226.2z M107.5,237.8c1.4,0,2.8-0.4,4.1-1
				c0.4-0.7,0.2-1.2-0.8-0.8C109.8,236.8,108.7,237.4,107.5,237.8L107.5,237.8z M102.9,235.8c1.8,0.1,3.5-0.7,4.6-2.2
				c-1,0.2-2,0.3-3,0.5c0.8-0.8,1.4-1.8,1.6-2.9c-1.4,1.4-2.4,3.9-4.6,4.3c0.8-0.4,1.6-5.1,0.2-6c0.6,2.4-0.4,4.9-1.8,7.2
				C100.8,236.3,101.9,236,102.9,235.8L102.9,235.8z M108.9,232.8h-1.1l3.5-4.6C110.5,229.8,109.7,231.3,108.9,232.8L108.9,232.8z
				 M122.2,212.8c1-1.4,2.3-2.6,3.9-3.4c-0.2,0-0.6,0.1-1.1,0.2c-1.6,0.5-2.9,1.5-3.9,2.9C121.6,212.5,121.6,212.6,122.2,212.8z
				 M129.7,224.2c-1.9,0.6-3.6,1.6-5.1,2.9c0.1-0.4,0.4-0.8,0.3-1.3C126.4,224.9,128,224.3,129.7,224.2z M116.7,228
				c1-0.1,2,0.1,2.9,0.5c0.9,0,1.8-0.3,2.6-0.9c1.8-1.5,3.8-4.2,3.1-6.4c-0.8,0.5-2,2.2-3.3,2c-1,0.6-0.8,0.6,0.1,0.5
				c0.9,0,1.7-0.4,2.3-0.9c0.5,0.8-1.4,4.6-4.6,5.1C118.8,227.5,117.7,227.6,116.7,228z M114.8,226.1c1.6-1,3.4-1.9,5.2-2.5
				c1.2-0.5,1.4-0.7,1.6-1.9c0.9-0.7,1.6-1.7,1.9-2.8c0.1-0.8,0.5-1.5,1.1-2.1c-0.5,0.3-1.2,0.9-1.7,1.2c0.2-0.9,0.6-1.7,1.2-2.4
				l-1.2,0.2c1.4-2.1,3.3-3.8,5.5-5.1c-2.7,1-5,2.9-6.5,5.4c0.2,0.4,0.4,0.4,0.8,0.3c-0.3,0.5-0.5,1.6-1,1.9c-0.8,0.5-1.6,2-1.5,4
				c-1.2-0.5-3.8,2.5-5.5,3.4C114.1,226,114.1,226.2,114.8,226.1L114.8,226.1z M101.6,245.3c0.2-0.3,0.6-0.6,1-0.6
				c2.2,0.1,4.3,0.5,6.3,1.2c-1.8-1.3-4.8-1.6-7.1-1.8C101.6,244.4,101.2,244.9,101.6,245.3L101.6,245.3z M103.1,253.6
				c0.7-0.1,0.6,0,0.5-0.3c-1.1-2.2-2-4.6-2.5-7C100.9,248.4,101.9,251.2,103.1,253.6L103.1,253.6z M98.9,246.9
				c-0.1,1.6,0.1,3.2,0.6,4.7c-1.2-0.2-0.4-0.7-2.1,0.3c-0.1-2.4-0.3-5.5,0.6-7.6c-0.3,2.4-0.4,4.7-0.3,7.1c0.3-0.3,0.8-0.4,1.2-0.4
				C98.3,250.2,98.4,247.4,98.9,246.9z M94,256c1.1-0.9,2.4-1.6,3.9-1.9c0.1-0.5,0.1-0.7-0.3-0.7c-1.8,0.6-2.9,1.9-4.4,2.7
				c-1.7-0.2-2.9-0.5-3.8,0.2c1.1-0.4,2.3-0.3,3.4,0.2C93.5,256.5,93.7,256.5,94,256z M98.3,226.4c-0.1-1.6-0.5-3.2-1-4.8
				c0.2-0.4,0.3-0.3,0.8-0.6c-0.6-1.6-1.4-3.1-2.4-4.5c-0.4-0.4,0.2-1.2,1-1.1c2.3,1.6,3.3,3.6,4.5,5.6c0.3,0.9,0.8,1.7,1.4,2.3
				c-0.1-0.6,0.1-1.2,0.4-1.8c1.3,1.7,2.4,8.2-0.6,13.1c3.2-3.4,2.9-10.8,0.7-14.8c0,0.8-0.2,1.1-0.7,1.2c-0.1,0.5-0.3,0.7-0.7,0.4
				c-0.9-2.2-2.1-4.8-3.9-6.2c-1.3-0.5-2.8-0.3-3.9,0.4c1.6,1.5,2.9,3.3,3.8,5.3c-0.9,0.1-1.5,0.2-1.6,0.8
				C97.1,223.2,97.8,224.7,98.3,226.4L98.3,226.4z M102.7,225.2c-1-2.4-2-5.7-4.5-7.5c1.7,1.7,0.4,3.1,1.6,4.4
				C101.3,222.3,101.9,224.3,102.7,225.2z M108.2,233.7c-0.3,0.7,4.1,0.2,5.6-0.8c0.2-0.5-0.2-0.7-1.1-0.5
				C111.4,233.1,109.8,233.5,108.2,233.7z M107.4,226.1c-0.2-0.7-0.7-0.4-1,0c0.6,0.9,0,2.5,0,3.8c0.7-1.2,1.7-2.1,3-2.5
				c1.3-0.3,2.6-0.9,3.6-1.9c-0.1,1.6,0,4.1-2.1,5.9c1.3-0.5,5.2-3.1,5.2-4.8c-0.9,0.8-2.5,1.7-2.8,1.5c-0.5,0-0.3-0.5-0.3-1
				c0.4-0.9,1-1.7,1.8-2.3c-0.3,0-0.6-0.1-0.8-0.3c1.2-1,2-2.3,2.6-3.7c0.3-0.6,0.7-0.6,0.9,0.2c0.6-1.4,1.6-2.6,3-3.3
				c-0.9-0.5-0.5-2,0.6-3.3c-0.6,0.3-1.2,0.7-1.7,1.3c-0.7,0.9-1.1,2.1-1.1,3.2c-0.3,0-0.5,0.3-0.6,0.8c-0.4-0.5-1-0.4-1.3,0.2
				c-0.8,1.8-2,3.5-3.3,5c-1.1,1.2-2.5,2-4.1,2.2C107.7,227.4,107.5,226.9,107.4,226.1L107.4,226.1z M113.5,211.5
				c0.2,0.8,0,1.7-0.5,2.4c1.3-0.6,2.6-2,2.8-3.2C114.9,211.2,114.4,212.2,113.5,211.5z M110.5,205.4c1.1,0.1,2.1,0.7,2.7,1.6
				c0.4,0.6,1.2,0.7,1.4,0.2c0.1-1.4,0.1-2.8-0.3-4.2c-1.6,0.2-3-1.4-4.4-2.5c0,1.2,1.7,2.5,2.7,3.2c0.6,0.4,0.8,1.1,0.4,1.7
				c0,0,0,0,0,0.1C112.3,204.8,111.5,204.8,110.5,205.4z M104.4,208c-1.1-0.4-1.9-1.2-2.4-2.1C101.6,206.7,101.9,208.3,104.4,208z
				 M100.9,210.7c-0.7-0.8-1.8-1.9-2.7-1.1c0.1-1.5,0-3.1,1-4.3c1-0.6,1.4,0,0.9,0.7C99.3,206.8,98.8,207.4,100.9,210.7L100.9,210.7
				z M104.3,202.8c-0.3-0.8-0.5-1.7-0.5-2.6c-1.4-0.9-2.5-2.1-3.3-3.5C101,198.9,102.8,201.1,104.3,202.8L104.3,202.8z M95.9,192.3
				c-1.2-0.5-1.4,0.9-2.2,1.7c-0.7,0.5-2.4-0.2-2.8,0.1c1.2,0.9-1,1.1-1.4,1.1c1,0.2,2,0.6,2.9,1.2c0.6-0.1-0.2-1.5,0.3-1.6
				c1.2,0.1,2.4,0.6,3.2,1.5c0.4,0.8,0.9,0.7,0.9,0c0-0.7,0.2-1.4,0.7-1.8C96.7,194,96.3,193,95.9,192.3L95.9,192.3z M90.5,214
				c-0.4-0.2-0.9-0.3-1.3-0.3c-0.8-3.1-2.9-6.7-4.5-9.8C87,207.1,89,210.4,90.5,214z M103,218.6c0.2-0.8,0.6-1.5,1.2-2.1
				c-1.8-2-3.6-4.8-5.8-6.3c1.1,1.3,2,2.8,2.6,4.4c0.8,0.3,1.3,1.1,1.4,2C102.6,217.3,102.8,217.9,103,218.6L103,218.6z
				 M106.6,220.9c0.9-2.2,0.9-4.7,0-6.9c-0.6-0.7-1.6-1-2.4-0.7c0.1,0.8,0,0.7-0.8,0.9c0.4,0.7,1,2,1.5,1.6s1,0.2,0.3,1.1
				C105.8,218.1,106.3,219.5,106.6,220.9L106.6,220.9z M107,224.5c0.6-0.5,0.9-1.2,1.9-1c-0.8-2.8-0.1-7.8-1.2-8.7
				c0.4,1.5,0.4,3.1-0.1,4.5C107.2,221,107,222.8,107,224.5L107,224.5z M104.7,208.1c0.7,0,1.4-0.3,1.9-0.9c0.9,1.3,1.6,1,2.9,0.1
				c0.8,1.5,0.9,3.2,0.2,4.7c-0.8,2.1,0.4,3.9,0.2,6.2c0.3-0.5,0.9-0.9,1.5-1.1c1.2-2.1,2.8-4.4,6-4.7c-2.1,1-3.8,2.6-4.9,4.6
				c0,0.6-0.5,1-1.1,0.9c-0.1,0-0.3,0-0.4-0.1c-0.6,0.5-1,1-1.4,1.7c-0.4-0.2-0.8-1.1-0.7-2.8c0.2-2.2-1-4.1-2.2-5.9
				c2.5,1.6,2.8-0.6,2.5-2.3C108.1,209.8,106.2,208.9,104.7,208.1L104.7,208.1z M146.1,205.1c0.9-2.4-0.6-4.1-2.3-3.5
				C145.2,202.4,144.5,205,146.1,205.1L146.1,205.1z M136,207.7c0.3-0.4,0.3-0.4,1.1-0.5c-0.7-0.2-1.2-0.7-1.5-1.4
				C135.4,206.4,135.5,207.2,136,207.7z M138.9,209.6c0.8-1-1.9-0.6-2.8-1.9C135.4,209.2,137.6,210.2,138.9,209.6L138.9,209.6z
				 M138.5,206.3c0.2-0.4,0.7-0.7,1.1-0.6c0.1-1-0.8-2-1.5-2.6c-0.8-0.6-1.9-0.8-2.9-0.7C136.6,203.4,137.7,204.8,138.5,206.3
				L138.5,206.3z M133.8,200.1c-0.8,0.6-0.6,1,0.6,0.5c0.5-0.5,1.8-1.1,2.1-0.6c0.6,0.5,1.3,0.9,2.1,1.1c0.5-0.1,0.9,0.1,1.2,0.5
				c0.4-0.3,0.4-0.5,1-0.6c0.6,0.1,0.9,0.3,0.6,0.7c-0.5,0.6-0.7,1.5-0.2,1.9c0.2-0.6,1.3-1.3,2.1-1.6c-0.9-1.3-2.4-2-3.9-1.8
				c-0.8-1.1-1.6-0.9-2.6-0.8C135.7,199.3,134.7,199.6,133.8,200.1L133.8,200.1z M138.5,197.6c0.8,0.4,1.7,0.6,2.6,0.4
				c0.5-0.2-0.3-0.5,0-0.7c0.6,0,1-0.7,1.3-0.4c0.3,0.9-0.6,2.4-1.6,2C139.9,198.7,139.1,198.3,138.5,197.6L138.5,197.6z
				 M139.6,195.4c0.6,0.4,1.5,0,1.9-0.4c-0.3-0.7-0.9-1.3-1.6-1.6C140.3,194,140.1,194.9,139.6,195.4L139.6,195.4z M137.6,196.8
				c-0.9-0.6-1.3-1.5-2.6-1.9c0.8-0.6,1.8-0.6,2.6,0C137.7,195.6,137.4,196,137.6,196.8L137.6,196.8z M132.3,197.1
				c0.7-0.6,1.7-0.8,2.5-0.5c-0.2-0.4-0.3-0.9-0.1-1.4c-0.2,0.1-0.2,0.5-0.3,0.7C133.2,195.7,132.5,196.1,132.3,197.1L132.3,197.1z
				 M132.2,198.4c-1-0.9-3.3,0-3.2,0.9C129.6,200.9,131.4,198.8,132.2,198.4L132.2,198.4z M120.7,199.2c0.8-0.1,1.2-0.6,0.9-1.3
				c-1.6-1.5-3.2-0.3-3.5,1.1C118.9,198.8,119.8,198.8,120.7,199.2z M118.7,210.4c2.6-3,7.3-6.2,10.8-8.9c-1.3,0.6-1.7,0.7-2.2,0.3
				c-1.7,1-6,4.1-8.6,5.7C119.1,208.4,118.8,209.4,118.7,210.4L118.7,210.4z M108.5,203.9c-1-1-1.3-3.4-2.5-5.1
				c0.8,0.8,1.6,1.5,2.5,2.1C108.2,201.9,108.1,203,108.5,203.9z"/>
			<path id="_76815528" class="st7" d="M140.6,164.4c-4.4-0.6-7.2-0.1-11,2.3c-4.6,2.9-8,3.6-13.9,0.3c-5.2-2.8-7.8-3.8-13.2-1
				c-7.4,3.7-8.8,5.3-16.6,1.2c-5.8-3.1-9.2-3.1-13.6-1.1c-5.5,2.5-7.5,5.5-13.9,1.7c-1.6-0.8-3.3-1.4-5-1.6c1.3-1.2,2.6-2.4,4-3.5
				c0.9,0.2,1.8,0.5,2.5,1c3.5,2.1,7.1,0.1,10.7-2.2c4.3-2.7,10.2-2.7,16.1,0.3c7.6,3.9,7.2,2.9,14-0.9c5.9-3.3,9.1-2.4,14.9,0.6
				c5.9,2.8,8.7,2.2,13.6-0.7c1.5-0.9,3.1-1.3,4.9-1.4c2.3,1.5,4.5,3.2,6.6,4.9L140.6,164.4z M153.6,179.6
				c-2.2,0.9-5.7,0.2-10.4-2.2c-5.7-3-8.2-3.4-11.5-1.4c-5.5,3.4-9.1,5.6-15.5,2c-6.1-3.5-8.7-4.6-15.3-0.9s-6.8,4.6-13.7,0.9
				c-4.8-2.6-8.8-4.4-14.2-1.4s-8.1,4.8-14.8,1.2c-3.8-2-6.8-3.6-11.2-2.7c-0.7,0.1-1.3,0.3-1.8,0.4c1.4-2,2.9-3.9,4.6-5.7
				c2.5,0.1,5,0.8,7.2,2.1c4,2.6,9.1,2.6,13.1,0c5.7-3.6,11.8-3.5,17.6-0.1c7.5,4.5,7.6,1.7,14.5-1.7c4.8-2.4,8.3-2.1,12.6,0.6
				c4.5,2.8,8.5,4.6,14,0.8c4.6-3.2,8.4-3.3,13.1-1.6c2.5,0.9,4.8,2.4,7.4,3.2C150.8,175.3,152.3,177.4,153.6,179.6L153.6,179.6z
				 M158.1,188.6c-3.4,2.6-9.4,2.2-12.9,0c-7.6-4.8-11.6-3.8-16.2-0.2c-4.4,3.8-9.8,2.2-14.3-0.3c-6.8-3.9-8.2-4.9-15.8,1.1
				c-4.1,3.3-8.2,2.1-12.8-0.3c-8.8-4.7-8.2-3.7-15.9,0.2c-5.4,3.2-9.7,1-14-0.9c-4-1.8-6.6-3.7-10.5-2c-3,1.5-6,3.3-8.7,5.4
				c1.2-3.4,2.6-6.7,4.4-9.9c3.4-1.6,8.3-2.6,12.1-0.9c2,1,4.1,1.9,6.1,2.9c3.3,1.5,6.9,1.9,11.6-1.4c4.4-3.6,9.5-3.1,15.9,0.3
				c3.6,1.9,6.9,4.1,11.1,0.4c7.6-5.4,10.5-4.3,16.3-1.4s7.9,4.4,14.4,0.2c5.3-3.4,10.9-2.4,16.6,0.6c3.5,1.8,8.5,1.8,10.1,0.9
				C156.5,185,157.4,186.7,158.1,188.6L158.1,188.6z"/>
			<path id="_76815384" class="st8" d="M140.6,164.4c-2.2-0.4-4.5-0.3-6.7,0.3c-2.1-1.3-4.3-2.2-6.7-2.7c0.6-0.3,1.3-0.7,2-1.1
				c1.5-0.9,3.1-1.3,4.9-1.4C136.4,160.9,138.6,162.6,140.6,164.4L140.6,164.4z M119,168.5c-1.1-0.4-2.2-0.9-3.3-1.5
				c-1.5-0.9-3.1-1.6-4.8-2.2c-0.6-2.1-1.4-4.1-2.5-5.9c2.2,0.2,4.4,1.2,7.2,2.6c0.4,0.2,0.9,0.4,1.3,0.6c-0.3,2.3,0.4,4.5,1.9,6.2
				L119,168.5L119,168.5z M89.9,169c-1.4-0.5-2.7-1.1-4-1.8c-5.9-3.2-9.2-3.2-13.7-1.1c-0.5,0.2-1,0.5-1.5,0.7
				c-0.4-1.6-0.9-3.1-1.4-4.5c0.5-0.3,1-0.6,1.4-0.9c4.2-2.6,9.8-2.7,15.5,0.1C87.7,163.8,89,166.3,89.9,169z M57.2,167.2
				c-1.2-0.5-2.5-0.8-3.8-1c0.8-0.8,1.7-1.6,2.6-2.3C56.4,165.1,56.8,166.2,57.2,167.2L57.2,167.2z M151.2,180c-2.1,0-4.8-0.9-8-2.6
				c-1.3-0.7-2.7-1.4-4.1-1.9c-0.4-0.7-0.7-1.5-0.7-2.4c0-2.2,0.1-3.2-0.2-4c1.3,0.2,2.5,0.5,3.7,1c2.3,0.8,4.4,2.2,6.8,3
				C149.5,175.7,150.4,178.1,151.2,180L151.2,180z M122.4,179.8c-2.2-0.1-4.3-0.7-6.2-1.9c-1.5-0.9-3.1-1.7-4.8-2.4
				c0.3-2.1,0.3-4.1,0.2-6.2c1.1,0.4,2.1,0.9,3.1,1.5c2,1.4,4.2,2.3,6.5,2.9C121.6,175.6,121.9,177.9,122.4,179.8z M91.7,180
				c-1.5-0.5-3-1.2-4.5-2c-4.8-2.6-8.8-4.4-14.2-1.4h-0.1c-0.3-1.9-0.7-3.8-1.2-5.7c5.2-2.6,10.7-2.2,15.8,0.9
				c1.1,0.7,2.2,1.3,3.4,1.8C91.4,175.7,91.6,177.9,91.7,180z M59.7,178.6c-0.5-0.2-1-0.5-1.5-0.8c-3.8-2-6.8-3.6-11.2-2.7
				c-0.7,0.1-1.3,0.3-1.8,0.4c1.4-2,2.9-3.9,4.6-5.7c2.5,0.1,5,0.8,7.2,2.1c0.6,0.4,1.3,0.8,2,1.1C59.3,174.9,59.5,176.7,59.7,178.6
				L59.7,178.6z M149,190.1c-1.3-0.3-2.6-0.8-3.8-1.5c-1.7-1.1-3.5-2-5.4-2.6c-0.2-1.9,1.1-3.1,1.3-5.5c1.5,0.5,3,1.1,4.4,1.9
				c1.7,0.8,3.6,1.3,5.5,1.4c-1,0.9-1.9,1.8-2.8,2.8C146.8,187.9,147.6,189.1,149,190.1L149,190.1z M123.5,190.6
				c-3,0.2-6.1-1-8.8-2.6c-1.8-1.1-3.7-2.1-5.7-2.9c0.7-1.8,1.2-3.6,1.7-5.4c1.3,0.5,2.6,1.1,3.9,1.8c3.8,1.9,6,3.1,8.7,2.8
				C123.3,186.3,123.3,188.8,123.5,190.6L123.5,190.6z M91.7,191c-2-0.4-3.9-1.2-5.6-2.2c-7-3.7-8-3.9-12-1.9
				c-0.1-1.9-0.3-4-0.6-6.2c3.9-1.9,8.3-1.1,13.6,1.7c1.5,0.9,3,1.6,4.7,2.2C91.8,186.7,91.7,188.9,91.7,191L91.7,191z M59.8,189.6
				c-1.2-0.4-2.4-1-3.6-1.5c-2.5-1.1-4.5-2.3-6.5-2.6c0.1-1.9-0.2-3.9-0.7-5.7c1.6,0,3.1,0.3,4.5,0.9c2,1,4.1,1.9,6.1,2.9
				c0.1,0.1,0.2,0.1,0.3,0.1C59.9,185.5,59.9,187.4,59.8,189.6L59.8,189.6z"/>
		</g>
	</g>
	
		<path id="path5145" style="clip-path:url(#SVGID_00000163069088522083405950000011267165379237389990_);fill:#2E74B3;stroke:#FFFFFF;" d="
		M42.2,20.4V52c3.2,6.3,6.3,9.5,6.3,19s-3.2,12.7-6.3,19c0,9.5,0,19,10,28.7c12.1,15.5,38.7,9.2,45.4,25
		c9.7-15.8,33.1-9.5,45.8-25.3c9.5-9.5,9.5-19,9.5-28.5c-3.2-6.3-6.3-9.5-6.3-19s3.2-12.7,6.3-19V20.4c-17.3-7.4-38-9.5-55.4-9.5
		C77.6,11.1,59.2,12.8,42.2,20.4z"/>
	
		<path id="path5113" style="clip-path:url(#SVGID_00000163069088522083405950000011267165379237389990_);fill:#FFFFFF;stroke:#424242;" d="
		M97.5,97.7l-0.1,11h3.8V97.6C100,97.5,98.6,96.5,97.5,97.7L97.5,97.7z"/>
	
		<path id="path5097" style="clip-path:url(#SVGID_00000163069088522083405950000011267165379237389990_);fill:#FFFFFF;stroke:#424242;" d="
		M86.2,117.1v7.7h3.5l-0.2-7.7C88.5,117,87.4,117,86.2,117.1L86.2,117.1z"/>
	
		<path id="path5105" style="clip-path:url(#SVGID_00000163069088522083405950000011267165379237389990_);fill:#FFFFFF;stroke:#424242;" d="
		M112.3,112.7l0.1,11.9l-4.1,3.5v-13.4c1-0.1,4.3,2.5,4.1-1.9L112.3,112.7z"/>
	
		<path id="path5109" style="clip-path:url(#SVGID_00000163069088522083405950000011267165379237389990_);fill:#FFFFFF;stroke:#424242;" d="
		M108.4,98.1l-0.1,5.3l4.1,0.1l0.1-5.8v-1.2c-0.2-1.3-0.9-2.5-1.9-3.4c-1.1,0.8-1.8,2-2.2,3.3L108.4,98.1z"/>
	
		<path id="path2987" style="clip-path:url(#SVGID_00000163069088522083405950000011267165379237389990_);fill:#D49E63;stroke:#41382D;" d="
		M60.8,90.7l14-0.2c0.9,0.3,2.5-3.9,3.8-3.7c2.3,0.1,4.6-0.2,6.8-0.8l8.8-4c2.8-1,7.2-0.7,10.6-0.8c0.8,0.2,4.3-1.3,8.1-4
		c1-0.2,1.8-0.9,3.1,0c0.5,1.8,1.4,3.5,2.6,5c1.6,1.9,3.6,3.5,5.9,4.6c2.1,0.8,4.2,1.5,6.4,2c1.7,0.3,3.3-0.1,4.7,0.5
		c1.4,0.7,4.4,5,5.6,7.6c0.1,2.3,0.1,3.5,0,5.5c0.1,2,1,3.8,2.6,5l2.2-3.5c-0.1-1-0.4-1.9-0.9-2.7c-0.4-0.5,0-1.1-0.1-2
		c0.1-0.9,0-1.8-0.4-2.7l-1.8-3.8l-2.5-3.8c-1.5-2.7,1.2-1.6,1.6-0.5c1.2,1.4,2.1,3,2.5,4.8c0.1,1.6-0.1,4.2,0.9,5.4
		s1.9,3.5,3.3,3.6l0.8-5.5c0.1-0.4-1.9-1.9-1.9-2.9c0.9-1,1.5-2.2,1.1-2.7c-2.3-3.8-5.1-7.8-5.9-8.4c-1.5-0.7-3.4-0.5-5.2-0.6
		c-1.7-0.3-3.2-1.3-4-2.8c-0.7-1.1-1.3-2.3-1.8-3.5c-0.7-2.6-0.6-5.1-2.8-7.8l-0.8-0.8c-2.6-2,0.6-0.3,1.5-0.3
		c2.2,0-3.7-4.8-5.7-4.7c-2.9-0.1-5.9,0-8.8,0.3l-7.4,0.6c-3.1,0.4-6.2,0.5-9.3,0.2L90.1,62c-2.3-0.6-4.7-0.8-7.1-0.6
		c-1.8,0.1-5.7,3.4-5.6,1.6c1.2-1.7,2.3-3.3,2.5-5.4c0.3-2.4,0.1-4.7-0.7-7c0.9,0.1,2.2,1,2.2-0.4c-0.1-1.7-1-3.2-2.3-4.1
		c-2.6-3,3.5,2,5.7,3.3c3,3,5.7,5.9,8.6,8.7l2.3,1.7c1.8,0-0.3-3,0.8-2.2c0.9,0.8,1.3,2.1,2.9,2.4c1.3,0.5,2.7,0.6,4.1,0.4
		c1.5-0.4,3.1-0.7,4-1.9c0.6-0.6,1.5-1.9-1-1.1l-1.8,0.2c-1.3,0.1-2.7,0-3.9-0.5c-0.6-0.3-1.2-0.7-1.6-1.2c0.4-0.8,1.1-1.4,1.9-1.8
		c1.8-0.8,1.6-0.2,4.3-0.7c0.2-0.5-2.3-1.7-4.4-1c-1.1,0.4-2.2,1-3.2,1.7c-0.4,0.3-0.9,0.3-1.3,0.2c-1.8-0.3-2.8-1.3-4.1-2.5
		c-1.3-0.8,2.3-0.5,4.5-1.5c0.3-1-0.8-2-1.6-2c-1.6-0.1-3.8,0.1-4.6,0.6c-1,0.7-5-2.7-3.6-2.8l1.4-0.8c2.7-0.1,2.8-1.8-1-2.4
		c-1.2-0.2-2.4,0.9-3.7,1.2c-1.2-0.1-2.3-0.5-3.3-1c-0.8-0.4-1.9-0.9-2.2-1.7c-0.3-0.6-0.4-1.3-0.3-2c0.2-0.8,1.2-1.8,3-2.7
		c1.1-0.6,2.4-0.9,3.7-0.7l7.3,0.5c2.9,0,4.9-1.2,7-1.9l4.4-0.4c1.5-0.3,2.9-1.2,3.8-2.5c1.5-1.8,1.7-6.2,0.1-3.8
		c-0.7,0.5-1.9,1.8-2.5,2.3c-1.3,0.9-1.6,0.9-3.2,0.5c-2.5-1.4,4.5-4.3,2.3-4.7c-1.1,0.1-2.1,0.4-3.1,1c-1.6,0.6-2.8,1.8-3.4,3.4
		c0.1,1.2-0.9,2.5-1.8,2.5L93,33c-0.9-0.2-0.1-2.7,2.3-4c1-0.4,0.6-1.3-0.7-1.2c-1.1,0.3-2.1,0.8-2.9,1.6l-3,3.7
		c-0.4,0.3-0.8,0.5-1.3,0.5l-3.1-0.8c-1.5-0.7,0.2-1.5,1.1-2.7c1-1-0.4-1.2-1.6-0.6c-0.9,1-2.1,1.3-3,2.3c-0.8,0.4-0.8,1.5-1.9,2.1
		c-0.8,0.3-1.6,0.8-2.2,1.5C76,36,75.4,36.8,75,37.7c-0.7,1-1.5-2.5-3.5-2.8c-2.8-0.5-2.6,0.2-2,1.1l0.8,1c0.6,0.7,1.3,1.7-0.6,2.2
		l-1.9,0.6c-1.6,0.8-1.6,1.8-2.5,2.7c-1,0.8-2.1,1.4-3.3,2l-2.8,1.2c-1.5,0.6-0.2,2.3,1.8,2.4c1.9-0.2,1.9-0.2,0.5,0.3
		c-1.8,0.7,0,1.3,1.1,1.5c0.6,0.1,1.4-0.4,1.8-0.6c1-0.3,2-0.3,3-0.1c1.3,0.3,3.1,0.3,1.9,1.5L67.5,53c-1.2,1.8-0.9,3.6-1,5.4
		C65.6,60.2,64,61,63,62.3c-1.4,1.4-2.8,7.8-1.2,11.4c0.4,1.4,2.5,4.1,1.7,4.3c-1.4,0.4-2.8,1-4,1.7c-0.8,0.7-1.8,1.1-2.8,1.3
		c-1.1,0.1-2.2,0.3-3.2,0.8c-1.9,0.9-2.2,1.7-2.3,2.5c-0.3,2.6-0.8,5.1-1.6,7.6c-0.6,1-1.2,2-1.9,2.8c-1.1,2.8-0.9,6.5-0.9,8.2
		c0.3,0.6,1.1,0.6,1.8-0.3l2.6-3.4c0.7-0.4,0-2,0.1-2.7c0.4-0.8,1-1.4,1.7-2l0.7-4.7c0.1-1.3,0.6-2.6,1.3-3.7
		c1.6-1.1,3.4-1.8,5.3-2.2c7.1-2.3,10.7-0.6,7.8,0.3l-4,1.1c-0.8,0.3-2.2,0.5-3.6,0.8l-2.4,0.3c-2.9,0.6-2.6,2.5-2.9,3.9
		c-0.2,1.4-0.6,2.7-1,4l-2.2,6.1l-1.2,3c-0.5,1.4-0.2,2.6,1.2,2.5c0.8,0,1.6-0.2,2.2-0.6c1-0.4,1.7-1.2,2-2.2
		c-0.3-3.6,1.2-1.9,0.9-3.8c0.2-1.8,0.5-4.5,0.6-5.4C57.5,92.8,59.4,90.6,60.8,90.7L60.8,90.7z"/>
	
		<path id="path2995" style="clip-path:url(#SVGID_00000163069088522083405950000011267165379237389990_);fill:#FFFFFF;fill-opacity:0;stroke:#41382D;" d="
		M115,76.5c0.4-0.9,1.9-0.2,2.4,0.2l2.3,2.4c1.5,1.4,3.2,2.6,4.9,3.7c1.7,0.9,3.5,1.7,5.4,2.1c1.5,0.3,3.6,1.1,5.2,0.7
		c1.7,0,3.8,0.2,4.7,1.2"/>
	
		<path id="path5069" style="clip-path:url(#SVGID_00000163069088522083405950000011267165379237389990_);fill:#FFFFFF;stroke:#424242;" d="
		M89.4,109l0.1,2.8c6.4-0.2,12.5-0.4,18.9-0.6l0.3-2.6c-3,0-6-0.1-9.2,0S92.7,108.8,89.4,109L89.4,109z"/>
	
		<path id="path2997" style="clip-path:url(#SVGID_00000163069088522083405950000011267165379237389990_);fill:#FFFFFF;fill-opacity:0;stroke:#41382D;" d="
		M74.8,67.9c-0.7,1.2-0.9,2.6-0.8,4"/>
	
		<path id="path2999" style="clip-path:url(#SVGID_00000163069088522083405950000011267165379237389990_);fill:#FFFFFF;fill-opacity:0;stroke:#41382D;" d="
		M76.5,68c-0.4,1-1.3,2.7-1,3.9"/>
	
		<path id="path3001" style="clip-path:url(#SVGID_00000163069088522083405950000011267165379237389990_);fill:#FFFFFF;fill-opacity:0;stroke:#41382D;" d="
		M108.7,76.6c-0.1-0.7,1-1,0.6-2"/>
	
		<path id="path3003" style="clip-path:url(#SVGID_00000163069088522083405950000011267165379237389990_);fill:#FFFFFF;fill-opacity:0;stroke:#41382D;" d="
		M110.6,75.6c-0.2-0.7,0.9-1,0.6-1.8"/>
	
		<path id="path3005" style="clip-path:url(#SVGID_00000163069088522083405950000011267165379237389990_);fill:#FFFFFF;fill-opacity:0;stroke:#41382D;" d="
		M112.5,74.9c-0.2-0.7,0.8-1.1,0.6-1.6"/>
	
		<path id="path3007" style="clip-path:url(#SVGID_00000163069088522083405950000011267165379237389990_);fill:#FFFFFF;fill-opacity:0;stroke:#41382D;" d="
		M114.2,74.8c0-0.9,1.3-0.9,1.1-1.8"/>
	
		<path id="path3009" style="clip-path:url(#SVGID_00000163069088522083405950000011267165379237389990_);fill:#FFFFFF;fill-opacity:0;stroke:#41382D;" d="
		M123.1,81.7c1.6-0.2,4.4,0.1,4.7-0.6"/>
	
		<path id="path3011" style="clip-path:url(#SVGID_00000163069088522083405950000011267165379237389990_);fill:#FFFFFF;fill-opacity:0;stroke:#41382D;" d="
		M125.2,83c1.5-0.1,3.1-0.3,4.6-0.7"/>
	
		<path id="path3013" style="clip-path:url(#SVGID_00000163069088522083405950000011267165379237389990_);fill:#FFFFFF;fill-opacity:0;stroke:#41382D;" d="
		M128.1,84.4c1.2-0.8,2.6-1.4,4-1.6"/>
	
		<path id="path3015" style="clip-path:url(#SVGID_00000163069088522083405950000011267165379237389990_);fill:#FFFFFF;fill-opacity:0;stroke:#41382D;" d="
		M131.1,85.3c-0.3-0.5,2.4-0.8,2.5-1.9"/>
	
		<path id="path3019" style="clip-path:url(#SVGID_00000163069088522083405950000011267165379237389990_);fill:#FFFFFF;fill-opacity:0;stroke:#41382D;" d="
		M76.3,44.7c0.3,1.5-0.2,3.1,1.2,4.4c0.7,0.7,1.5,1.3,2.3,1.8"/>
	
		<path id="path3021" style="clip-path:url(#SVGID_00000163069088522083405950000011267165379237389990_);fill:#FFFFFF;fill-opacity:0;stroke:#41382D;" d="
		M75.3,61.7c1.2-1.2,2.2-2.6,2.9-4.2c0.4-1.5,0.5-3.4-0.3-4.6"/>
	
		<path id="path3023" style="clip-path:url(#SVGID_00000163069088522083405950000011267165379237389990_);fill:#FFFFFF;fill-opacity:0;stroke:#41382D;" d="
		M75.7,61.3c0.5-1.2,1.4-2.3,0.6-4"/>
	
		<path id="path3025" style="clip-path:url(#SVGID_00000163069088522083405950000011267165379237389990_);fill:#FFFFFF;fill-opacity:0;stroke:#41382D;" d="
		M72.2,39.9c0.9,0.9,1.7,1.9,2.3,3.1"/>
	
		<path id="path3027" style="clip-path:url(#SVGID_00000163069088522083405950000011267165379237389990_);fill:#FFFFFF;fill-opacity:0;stroke:#41382D;" d="
		M71.6,41c0.8,0.7,1.4,1.5,1.8,2.5"/>
	
		<path id="path3029" style="clip-path:url(#SVGID_00000163069088522083405950000011267165379237389990_);fill:#FFFFFF;fill-opacity:0;stroke:#41382D;" d="
		M70.6,48.2c0-0.8,0.8-1.2,1.1-1.8"/>
	
		<path id="path3031" style="clip-path:url(#SVGID_00000163069088522083405950000011267165379237389990_);fill:#FFFFFF;fill-opacity:0;stroke:#41382D;" d="
		M73.7,48c-0.3-0.7,0.2-1.3,0.7-2"/>
	
		<path id="path3033" style="clip-path:url(#SVGID_00000163069088522083405950000011267165379237389990_);fill:#FFFFFF;fill-opacity:0;stroke:#41382D;" d="
		M72.1,48.3c0.1-0.7,0.4-1.4,1-1.9"/>
	
		<path id="path3035" style="clip-path:url(#SVGID_00000163069088522083405950000011267165379237389990_);fill:#FFFFFF;fill-opacity:0;stroke:#41382D;" d="
		M75.2,47.7c-0.5-0.8,0.2-1.5,0.6-2.1"/>
	
		<path id="path3037" style="clip-path:url(#SVGID_00000163069088522083405950000011267165379237389990_);fill:#FFFFFF;fill-opacity:0;stroke:#41382D;" d="
		M69.1,48.8c0.2-0.9,0.7-1.7,1.5-2.2"/>
	
		<path id="path3039" style="clip-path:url(#SVGID_00000163069088522083405950000011267165379237389990_);fill:#FFFFFF;fill-opacity:0;stroke:#41382D;" d="
		M85.3,84.3c-0.1-1.2,1.8-1.1,1.5-3.4"/>
	
		<path id="path3041" style="clip-path:url(#SVGID_00000163069088522083405950000011267165379237389990_);fill:#FFFFFF;fill-opacity:0;stroke:#41382D;" d="
		M87.5,83.8c-0.1-1.2,1.3-1.4,1.3-3.5"/>
	
		<path id="path3043" style="clip-path:url(#SVGID_00000163069088522083405950000011267165379237389990_);fill:#FFFFFF;fill-opacity:0;stroke:#41382D;" d="
		M89.3,83c0.4-1.3,1.5-1.4,1.4-2.9"/>
	
		<path id="path3045" style="clip-path:url(#SVGID_00000163069088522083405950000011267165379237389990_);fill:#FFFFFF;fill-opacity:0;stroke:#41382D;" d="
		M91.8,81.5c0-0.9,0.8-1.5,1-2.5"/>
	
		<path id="path3049" style="clip-path:url(#SVGID_00000163069088522083405950000011267165379237389990_);fill:#FFFFFF;fill-opacity:0;stroke:#41382D;" d="
		M70.2,67.7c-0.5,1.4-0.5,2.9,0.1,4.2"/>
	
		<path id="path3053" style="clip-path:url(#SVGID_00000163069088522083405950000011267165379237389990_);fill:#FFFFFF;fill-opacity:0;stroke:#41382D;" d="
		M71.3,67.4c0.1,0.9,0.2,1.7,0.4,2.6"/>
	
		<path id="path3055" style="clip-path:url(#SVGID_00000163069088522083405950000011267165379237389990_);fill:#FFFFFF;fill-opacity:0;stroke:#41382D;" d="
		M74.6,63c-1,1.2-3.6,2.9-3.3,4.4"/>
	
		<path id="path3051" style="clip-path:url(#SVGID_00000163069088522083405950000011267165379237389990_);fill:#FFFFFF;fill-opacity:0;stroke:#41382D;" d="
		M73.7,63.9c-0.5,1.3-1.3,2.3-1.1,4.2"/>
	
		<path id="path3065" style="clip-path:url(#SVGID_00000163069088522083405950000011267165379237389990_);fill:#FFFFFF;fill-opacity:0;stroke:#41382D;" d="
		M63.6,77.5l4.8,5.5"/>
	
		<path id="path3067" style="clip-path:url(#SVGID_00000163069088522083405950000011267165379237389990_);fill:#FFFFFF;fill-opacity:0;stroke:#41382D;" d="
		M93.6,80.8c-0.3-0.7,1.2-1.2,1.2-2.4"/>
	
		<path id="path3069" style="clip-path:url(#SVGID_00000163069088522083405950000011267165379237389990_);fill:#FFFFFF;fill-opacity:0;stroke:#41382D;" d="
		M95.6,80.2c-0.3-0.8,1-1.3,1-2.3"/>
	
		<path id="path3071" style="clip-path:url(#SVGID_00000163069088522083405950000011267165379237389990_);fill:#FFFFFF;fill-opacity:0;stroke:#41382D;" d="
		M80.8,64.7c0-1,1.3-1.1,1.5-2.3"/>
	
		<path id="path3073" style="clip-path:url(#SVGID_00000163069088522083405950000011267165379237389990_);fill:#FFFFFF;fill-opacity:0;stroke:#41382D;" d="
		M82.9,64.3c0-0.8,0.2-1.3,1.3-1.9"/>
	
		<path id="path3075" style="clip-path:url(#SVGID_00000163069088522083405950000011267165379237389990_);fill:#FFFFFF;fill-opacity:0;stroke:#41382D;" d="
		M86.6,64.6c0-0.7,0.4-1.3,1.1-1.4"/>
	
		<path id="path3077" style="clip-path:url(#SVGID_00000163069088522083405950000011267165379237389990_);fill:#FFFFFF;fill-opacity:0;stroke:#41382D;" d="
		M84.6,64.3c0.1-0.7,0.5-1.4,1.1-1.8"/>
	
		<path id="path3079" style="clip-path:url(#SVGID_00000163069088522083405950000011267165379237389990_);fill:#FFFFFF;fill-opacity:0;stroke:#41382D;" d="
		M68.4,84.2c1.9-0.5,1,0,4.5-0.5"/>
	
		<path id="path3081" style="clip-path:url(#SVGID_00000163069088522083405950000011267165379237389990_);fill:#FFFFFF;fill-opacity:0;stroke:#41382D;" d="
		M70.8,81.2c-0.3,0.8-0.4,1.7-0.3,2.6"/>
	
		<path id="path3083" style="clip-path:url(#SVGID_00000163069088522083405950000011267165379237389990_);fill:#FFFFFF;fill-opacity:0;stroke:#41382D;" d="
		M72.2,78.9c-0.3,1.5-0.3,3.1-0.1,4.6"/>
	
		<path id="path3085" style="clip-path:url(#SVGID_00000163069088522083405950000011267165379237389990_);fill:#FFFFFF;fill-opacity:0;stroke:#41382D;" d="
		M77.8,85.2c0.3-0.4,1.3-1.2,1.2-2.2c-1.2-2.8-1-2.7-1.1-3.9"/>
	
		<path id="path3087-1" style="clip-path:url(#SVGID_00000163069088522083405950000011267165379237389990_);fill:#F7E926;stroke:#41382D;stroke-width:1.05;stroke-opacity:0;" d="
		M98.2,39.8l0.2-3.4l3.2,0.2l-0.2,3.4c1.5,0.1-6.4-0.5,3.2,0.2l-0.2,3.4l-3.2-0.2l-0.2,3.4l-3.2-0.2l0.2-3.4l-18.7-1.3
		c-1.8-0.2-1.5-3.3-0.2-3.2"/>
	
		<path id="path5065" style="clip-path:url(#SVGID_00000163069088522083405950000011267165379237389990_);fill:#FFFFFF;stroke:#424242;" d="
		M78.8,114.4l-6.9,3.3c5.9-0.3,24.2-1.2,30.1-1.1l1.9-2.8C97.5,113.7,84.9,113.7,78.8,114.4z"/>
	
		<path id="path5067" style="clip-path:url(#SVGID_00000163069088522083405950000011267165379237389990_);fill:#FFFFFF;stroke:#424242;" d="
		M78.7,127.8c5,0,14.9,0,24.6-0.1l-5.8-3c-6.6-0.1-12.8,0-18.8,0.1C78.6,125.8,78.6,126.8,78.7,127.8L78.7,127.8z"/>
	
		<path id="path5071" style="clip-path:url(#SVGID_00000163069088522083405950000011267165379237389990_);fill:#FFFFFF;stroke:#424242;" d="
		M101.2,103.1v3c6.2,0.1,12.5,0.2,19,0.6l0.1-2.8C113.3,103.5,107.4,103.3,101.2,103.1L101.2,103.1z"/>
	
		<path id="path5119" style="clip-path:url(#SVGID_00000163069088522083405950000011267165379237389990_);fill:#FFFFFF;stroke:#424242;" d="
		M120.3,102.1v6.4h3.2v-6.3L120.3,102.1z"/>
	
		<path id="path5079" style="clip-path:url(#SVGID_00000163069088522083405950000011267165379237389990_);fill:#FFFFFF;stroke:#424242;" d="
		M101.3,124.8l0.1,2.9l19-0.2v-2.7H101.3z"/>
	
		<path id="path5143" style="clip-path:url(#SVGID_00000163069088522083405950000011267165379237389990_);fill:#FFFFFF;stroke:#424242;" d="
		M120.3,122.4l0.1,8.3l3.2-0.9v-7.5L120.3,122.4z"/>
	
		<path id="path5123" style="clip-path:url(#SVGID_00000163069088522083405950000011267165379237389990_);fill:#FFFFFF;stroke:#424242;" d="
		M120.2,111.3l0.1,9.4h3.1l0.1-9.4L120.2,111.3z"/>
	
		<path id="path5117" style="clip-path:url(#SVGID_00000163069088522083405950000011267165379237389990_);fill:#FFFFFF;stroke:#424242;" d="
		M112.5,111.2c5.3,0.1,11.8,0.1,17.5,0.1l0,2.6c-5.8-0.2-7.9,0-9-0.1l-2.3,2.8c3.1,0,9.5,0,11.3,0.2v2.8c-9.4,0-11.8,0-17.5,0v2.9
		c4,0.1,11.8-0.1,17.6,0.3l0.1,2c-0.4,0-0.7,0-1.1,0c-2.3,0-3.8,0-4.7,0c-1.8,0-0.9,0.4-1,3l6.1-0.1c1.4-0.1,2.7-0.6,3.9-1.3
		c0.3-4.2-0.2-19.5-0.6-26.6c-0.1-2.3-0.2-3.8-0.2-3.7c-1.4,0.4-2.1,2-2.5,3.4c-6.7-0.4-11.5-0.7-17.5-1v3.4
		c5.8,0.3,11.2,0.6,17.3,1.1v1.6l-6.4-0.3v2.7l6.4,0.3v1.6c-6.1-0.2-22.2-0.2-23.5-0.1c0,1-6.4,1.8-6.4,2.8L112.5,111.2z"/>
	
		<path id="path5107" style="clip-path:url(#SVGID_00000163069088522083405950000011267165379237389990_);fill:#FFFFFF;stroke:#424242;stroke-width:0.99;" d="
		M108.2,106.3l0.1,10.5l4.1-3.1v-7.3L108.2,106.3z"/>
	
		<path id="path5141" style="clip-path:url(#SVGID_00000163069088522083405950000011267165379237389990_);fill:#FFFFFF;stroke:#424242;" d="
		M97.4,118.6l0.1,14.5l3.8-3v-7.5L97.4,118.6z"/>
	
		<path id="path5077" style="clip-path:url(#SVGID_00000163069088522083405950000011267165379237389990_);fill:#FFFFFF;stroke:#424242;" d="
		M101.1,114.8l0.1,1.9c6.1-0.2,13,0,19.1,0v-2.8c-5.6-0.2-13.7-0.3-19.2-0.1L101.1,114.8z"/>
	
		<path id="path5115" style="clip-path:url(#SVGID_00000163069088522083405950000011267165379237389990_);fill:#FFFFFF;stroke:#424242;" d="
		M97.4,111.6v8h3.8v-8.1C99.9,111.4,98.7,111.5,97.4,111.6z"/>
	
		<path id="path5081" style="clip-path:url(#SVGID_00000163069088522083405950000011267165379237389990_);fill:#FFFFFF;stroke:#424242;" d="
		M89.7,119.5v3l18.6,0.1v-3.1H89.7z"/>
	
		<path id="path5091" style="clip-path:url(#SVGID_00000163069088522083405950000011267165379237389990_);fill:#FFFFFF;stroke:#424242;" d="
		M74.8,122.6l-0.1,7.8l4,1.4l-0.1-13.2L74.8,122.6z"/>
	
		<path id="path5093" style="clip-path:url(#SVGID_00000163069088522083405950000011267165379237389990_);fill:#FFFFFF;stroke:#424242;" d="
		M74.8,112.6l0.1,7h3.7l-0.1-12.1C77,107.4,76,112.5,74.8,112.6z"/>
	
		<path id="path5089" style="clip-path:url(#SVGID_00000163069088522083405950000011267165379237389990_);fill:#FFFFFF;stroke:#424242;" d="
		M78.4,104v-1.3c1.7-0.2,5-0.9,7.7-1v-2.8c-2.5,0.2-5.4,0.8-8,1.2c-0.2-1.4-1-2.6-2.2-3.3c-1.1,1.1-1.6,2.6-1.4,4.1
		c-2.7,0.2-5.4,0.7-8,1.3c-0.1-1.2-0.6-2.2-1.4-3.1c-1,0.8-1.7,2-2,3.2l-0.3,24l4.3,1.8l7.6-0.3v-2.9l-8.3,0.1v-2
		c6-0.5,13.6-0.4,19.9-0.6v-2.9c-6.6,0.1-13.4,0.1-20,0.6v-1.8c2.8-0.4,5.8-0.7,8.5-0.9v-2.8c-2.9,0.1-5.7,0.4-8.5,0.8v-1.8
		c1.2-0.6,16.6-1.9,23.1-2l-0.2-2.6c-6.5,0.3-16.6,0.6-22.9,1.9v-1.8c2.7-0.6,5.4-1.1,8.2-1.5V105c-2.8,0.4-5.5,0.9-8.1,1.7v-2
		c2.7-0.7,5.4-1.2,8.1-1.4l0.1,6.6l3.8-0.2L78.4,104z"/>
	
		<path id="path5087" style="clip-path:url(#SVGID_00000163069088522083405950000011267165379237389990_);fill:#FFFFFF;stroke:#424242;" d="
		M86.2,103.7L86,97.3c-0.1-1.3,0.4-2.7,1.3-3.7c1.3,0.7,2,2.1,1.9,3.6v6.4"/>
	
		<path id="path5095" style="clip-path:url(#SVGID_00000163069088522083405950000011267165379237389990_);fill:#FFFFFF;stroke:#424242;" d="
		M86.2,106.5v7.3l3.2-0.1l-0.1-7.8L86.2,106.5z"/>
	
		<path id="path5133" style="clip-path:url(#SVGID_00000163069088522083405950000011267165379237389990_);fill:#FFFFFF;stroke:#424242;" d="
		M88.6,135c2.5-0.1,6.5,0,9,0.1l-0.1,1.9l-5.4-0.1L88.6,135z"/>
	
		<path id="path5103" style="clip-path:url(#SVGID_00000163069088522083405950000011267165379237389990_);fill:#FFFFFF;stroke:#424242;" d="
		M76.4,130.8c3.3-0.5,6.7-0.7,10-0.9c-0.1,1,5.7,2.1,5.6,2.6c-1,0-5.8,0-9,0.1c-1,0-1.9-0.1-2.8-0.4
		C77.6,131.4,74.8,130.8,76.4,130.8L76.4,130.8z"/>
	
		<path id="path5083" style="clip-path:url(#SVGID_00000163069088522083405950000011267165379237389990_);fill:#FFFFFF;stroke:#424242;" d="
		M84.7,130.2l0.6,2.3c6.2-0.1,17.1,0.1,23,0.5l-0.1-2.7C90.1,129.3,86.4,129.9,84.7,130.2z"/>
	
		<path id="path5101" style="clip-path:url(#SVGID_00000163069088522083405950000011267165379237389990_);fill:#FFFFFF;stroke:#424242;" d="
		M86.5,127.8l-0.1,6.2l3.7,1.8l-0.2-7.9L86.5,127.8z"/>
	
		<path id="path5111" style="clip-path:url(#SVGID_00000163069088522083405950000011267165379237389990_);fill:#FFFFFF;stroke:#424242;" d="
		M97.5,98.1h3.8v-2.7c0.1-1.7-0.6-3.4-1.9-4.5c-1.3,1.2-2.1,2.9-2,4.7L97.5,98.1z"/>
	
		<path id="path5085" style="clip-path:url(#SVGID_00000163069088522083405950000011267165379237389990_);fill:#FFFFFF;stroke:#424242;" d="
		M89.3,98.3l-0.1,3c6.4-0.5,12.7-0.5,19.1,0v-3C102,97.7,95.7,97.7,89.3,98.3L89.3,98.3z"/>
	
		<path id="path5063" style="clip-path:url(#SVGID_00000163069088522083405950000011267165379237389990_);fill:#FFFFFF;stroke:#424242;" d="
		M78.5,104.4l0.1,2.7c6.3-0.7,12.5-1,18.8-1v-2.9c-3.4,0-7.3,0.1-10.3,0.4C84.5,103.9,80,104.1,78.5,104.4z"/>
	
		<path id="path5121" style="clip-path:url(#SVGID_00000163069088522083405950000011267165379237389990_);fill:#FFFFFF;stroke:#424242;" d="
		M120,98.8l3.5,0.2c0.1-1.8-0.5-3.7-1.7-5.1C120.7,95.3,120.1,97,120,98.8z"/>
	
		<path id="path5125" style="clip-path:url(#SVGID_00000163069088522083405950000011267165379237389990_);fill:#FFFFFF;stroke:#424242;" d="
		M112.6,127.8v5.2l-4.4,1.9l0.1-7C109.7,127.7,111.1,127.7,112.6,127.8L112.6,127.8z"/>
	
		<path id="path5131" style="clip-path:url(#SVGID_00000163069088522083405950000011267165379237389990_);fill:#FFFFFF;stroke:#424242;" d="
		M97.4,132.6v6.8l3.8-0.1v-6.5L97.4,132.6z"/>
	
		<path id="path5129" style="clip-path:url(#SVGID_00000163069088522083405950000011267165379237389990_);fill:#FFFFFF;stroke:#424242;" d="
		M112.7,132.9l7-1.9c-2.5,0.2-4.9-0.3-7-0.3C112.6,131.5,112.6,132.2,112.7,132.9z"/>
	
		<path id="path3068" style="clip-path:url(#SVGID_00000163069088522083405950000011267165379237389990_);fill:#FFFFFF;fill-opacity:0;stroke:#41382D;" d="
		M66.8,43.8c0.5-0.4,1.2-0.6,1.8-0.8c0.7-0.2,1.4-0.6,1.8-0.4s0.9,1.1-0.3,1.6c-0.4,0.2-0.8,0.2-1.4,0C67.9,44,66.6,44.2,66.8,43.8z
		"/>
	
		<path id="path3840-1" style="clip-path:url(#SVGID_00000163069088522083405950000011267165379237389990_);fill:#FFFFFF;fill-opacity:0;stroke:#41382D;" d="
		M68.2,43.4c-0.6,0.1-0.9,0.7,0.1,0.5S68.8,43.2,68.2,43.4z"/>
	
		<path id="path3860" style="clip-path:url(#SVGID_00000163069088522083405950000011267165379237389990_);fill:#FFFFFF;fill-opacity:0;stroke:#41382D;" d="
		M78.4,82c-0.5,0.9-1.1,1.7-1.8,2.3"/>
	
		<path id="path3862" style="clip-path:url(#SVGID_00000163069088522083405950000011267165379237389990_);fill:#FFFFFF;fill-opacity:0;stroke:#41382D;stroke-width:0.6;" d="
		M116.3,77.5c-0.2-1-1.1-1-1.7-1.1"/>
	
		<path id="path3849-4" style="clip-path:url(#SVGID_00000163069088522083405950000011267165379237389990_);fill:#FFFFFF;stroke:#FFFFFF;" d="
		M92.6,125.3h4.2v1.7c-0.9-0.1-2.9,0.1-3.9,0L92.6,125.3z"/>
	
		<path id="path3849-0" style="clip-path:url(#SVGID_00000163069088522083405950000011267165379237389990_);fill:#FFFFFF;stroke:#FFFFFF;stroke-width:0.98;" d="
		M96.7,114.6h-3.3l-0.4,1.6c0.8,0,2.8-0.1,3.8-0.1C96.8,115.5,96.8,115,96.7,114.6L96.7,114.6z"/>
	
		<path id="path3849-48" style="clip-path:url(#SVGID_00000163069088522083405950000011267165379237389990_);fill:#FFFFFF;stroke:#FFFFFF;" d="
		M119.5,114.6h3.4l-0.4,1.3c-0.9,0-1.8,0-2.9,0L119.5,114.6z"/>
	
		<path id="path3849-8" style="clip-path:url(#SVGID_00000163069088522083405950000011267165379237389990_);fill:#FFFFFF;stroke:#FFFFFF;" d="
		M103.2,109.5c1.1-0.3,2.3-0.4,3.5-0.3l-0.8,1.4c-0.9,0-5.7,0.2-6.8,0.3L103.2,109.5z"/>
	
		<path id="path5123-5" style="clip-path:url(#SVGID_00000163069088522083405950000011267165379237389990_);fill:#FFFFFF;stroke:#424242;" d="
		M120.2,111.3l0.1,8.3h3.1v-8.3L120.2,111.3z"/>
	
		<path id="path5143-1" style="clip-path:url(#SVGID_00000163069088522083405950000011267165379237389990_);fill:#FFFFFF;stroke:#424242;" d="
		M120.3,122.6v8.4l3.2-0.9c0-2.5,0.1-5,0-7.4L120.3,122.6z"/>
	
		<path id="path3982" style="clip-path:url(#SVGID_00000163069088522083405950000011267165379237389990_);fill:#FFFFFF;stroke:#FFFFFF;" d="
		M83.4,130.8c0.4-0.1,0.8-0.1,1.3-0.1h1.1v1.3h-0.9c-0.6,0-1.1-0.1-1.6-0.3L83.4,130.8z"/>
	
		<path id="path3865-7" style="clip-path:url(#SVGID_00000163069088522083405950000011267165379237389990_);fill:none;stroke:#FFFFFF;stroke-width:1.35;" d="
		M115.1,125.9c0.8,0,1.7,0,2.6,0"/>
	
		<path id="path3903" style="clip-path:url(#SVGID_00000163069088522083405950000011267165379237389990_);fill:none;stroke:#424242;stroke-width:0.5;" d="
		M116.4,125h1"/>
	<path style="clip-path:url(#SVGID_00000163069088522083405950000011267165379237389990_);fill:#FFFFFF;" d="M80,97.6
		c-12.6,0-22.9,10.2-22.9,30.5c0,25.4,18.2,50.9,40.7,50.9s40.7-25.4,40.7-50.9c0-20.3-10.2-30.5-22.9-30.5
		c-6.9,0-13.5,3.1-17.8,8.5C93.5,100.8,86.9,97.6,80,97.6z"/>
	<path style="clip-path:url(#SVGID_00000163069088522083405950000011267165379237389990_);fill:#FFFFFF;" d="M30.4,109.8h134.7
		c3,0,5.5,2.4,5.5,5.5v44c0,3-2.4,5.5-5.5,5.5H30.4c-3,0-5.5-2.4-5.5-5.5v-44C25,112.3,27.4,109.8,30.4,109.8z"/>
	<g style="clip-path:url(#SVGID_00000163069088522083405950000011267165379237389990_);enable-background:new    ;">
		<text transform="matrix(1 0 0 1 60.96 134.55)" class="st22 st23 st24">Grodno</text>
	</g>
	<g style="clip-path:url(#SVGID_00000163069088522083405950000011267165379237389990_);enable-background:new    ;">
		<text transform="matrix(1 0 0 1 47.78 160.0699)" class="st22 st23 st24">Białystok</text>
	</g>
	<path style="clip-path:url(#SVGID_00000163069088522083405950000011267165379237389990_);fill:#FFFFFF;" d="M150.7,0h29h16v16
		c0,7,0,14,0,21c-10.2,12.4-28.6,14.2-41,4S140.5,12.4,150.7,0z"/>
	<g style="clip-path:url(#SVGID_00000163069088522083405950000011267165379237389990_);enable-background:new    ;">
		<text transform="matrix(1 0 0 1 159.78 31.75)" class="st25 st23 st26">45</text>
	</g>
</g>
</svg>
