<?xml version="1.0" encoding="utf-8"?>
<!-- Generator: Adobe Illustrator 26.0.3, SVG Export Plug-In . SVG Version: 6.00 Build 0)  -->
<svg version="1.1" id="Слой_1" xmlns="http://www.w3.org/2000/svg" xmlns:xlink="http://www.w3.org/1999/xlink" x="0px" y="0px"
	 viewBox="0 0 195.6 280.6" style="enable-background:new 0 0 195.6 280.6;" xml:space="preserve">
<style type="text/css">
	.st0{clip-path:url(#SVGID_00000089558254266980932770000010421777444985228455_);fill:#388E3C;}
	.st1{clip-path:url(#SVGID_00000089558254266980932770000010421777444985228455_);fill:#FFFFFF;}
	
		.st2{clip-path:url(#SVGID_00000089558254266980932770000010421777444985228455_);fill-rule:evenodd;clip-rule:evenodd;fill:#202020;}
	
		.st3{clip-path:url(#SVGID_00000089558254266980932770000010421777444985228455_);fill-rule:evenodd;clip-rule:evenodd;fill:#D3302F;}
	
		.st4{clip-path:url(#SVGID_00000089558254266980932770000010421777444985228455_);fill-rule:evenodd;clip-rule:evenodd;fill:#FFFEFE;}
	
		.st5{clip-path:url(#SVGID_00000089558254266980932770000010421777444985228455_);fill-rule:evenodd;clip-rule:evenodd;fill:#69B42E;}
	
		.st6{clip-path:url(#SVGID_00000089558254266980932770000010421777444985228455_);fill-rule:evenodd;clip-rule:evenodd;fill:#EDC282;}
	
		.st7{clip-path:url(#SVGID_00000089558254266980932770000010421777444985228455_);fill-rule:evenodd;clip-rule:evenodd;fill:#FAE042;}
	.st8{clip-path:url(#SVGID_00000089558254266980932770000010421777444985228455_);enable-background:new    ;}
	.st9{fill:#388E3C;}
	.st10{font-family:'Impact';}
	.st11{font-size:21px;}
	.st12{clip-path:url(#SVGID_00000089558254266980932770000010421777444985228455_);fill:#D3302F;}
	.st13{fill:#FFFFFF;}
	.st14{font-size:20px;}
</style>
<g>
	<defs>
		<rect id="SVGID_1_" x="0" y="0" width="195.6" height="280.6"/>
	</defs>
	<clipPath id="SVGID_00000083088405204746716230000016573975515675240374_">
		<use xlink:href="#SVGID_1_"  style="overflow:visible;"/>
	</clipPath>
	
		<rect x="-9.2" y="-8.6" style="clip-path:url(#SVGID_00000083088405204746716230000016573975515675240374_);fill:#388E3C;" width="214" height="297.9"/>
	
		<g transform="matrix(1 0 0 1 0 0)" style="clip-path:url(#SVGID_00000083088405204746716230000016573975515675240374_);enable-background:new    ;">
		
			<image style="overflow:visible;" width="237" height="281" xlink:href="62229BA2.png"  transform="matrix(-0.42 0 0 -0.42 147.1 268.77)">
		</image>
	</g>
	<path style="clip-path:url(#SVGID_00000083088405204746716230000016573975515675240374_);fill:#FFFFFF;" d="M47.5,10.8v69.8
		c0,27.5,22.6,49.8,50.3,49.8S148,108,148,80.6l0,0V10.8L47.5,10.8z"/>
	
		<path id="path14" style="clip-path:url(#SVGID_00000083088405204746716230000016573975515675240374_);fill-rule:evenodd;clip-rule:evenodd;fill:#202020;" d="
		M143.4,80.1c0,25.4-20.9,46.2-46.6,46.2S50.1,105.5,50.1,80V15.3h93.3L143.4,80.1"/>
	
		<path id="path16" style="clip-path:url(#SVGID_00000083088405204746716230000016573975515675240374_);fill-rule:evenodd;clip-rule:evenodd;fill:#D3302F;" d="
		M146.3,80.2c-0.4,26.9-22.5,48.3-49.4,47.9c-26.3-0.4-47.5-21.7-47.9-48V12h97.3L146.3,80.2L146.3,80.2z M118.3,70
		c-0.9-0.2-1.7-0.2-2.6-0.2c-0.4,0-0.7,0-1,0l1.2-9.2L118.3,70z M103.9,37c1.1-0.3,2.2-0.8,3.1-1.4c0.6-0.4,1.2-0.8,1.8-1.3
		c0.5-0.3,0.8-0.9,0.8-1.5c-0.3-1.3-0.4-2.6-0.1-3.9c0.5-1.7,1.6-3.2,3-4.2c1.9-1.2,4.1-2,6.3-2.2c1.2-0.2,2.3-0.2,3.5-0.4
		c0.4,0,0.9-0.1,1.2-0.4c0.1-0.1,0.2,0.4,0.1,0.7c0.9-0.3,1.9-0.4,2.9-0.3c1.2,0,2.4-0.2,3.5-0.5c0.3-0.1,0.7-0.2,1-0.4
		c0,0,0.2,0.3,0.1,0.6c1-0.4,2-0.7,3.1-0.9c1.5-0.5,3-0.7,4.6-0.9c0.9,0,1.8,0.1,2.6,0.3c0.2,0.1,0.5,0.2,0.7,0.4
		c-0.1,0.2-0.2,0.4-0.3,0.6c-0.6,0.7-1.4,1.3-2.3,1.7c-1,0.5-2,0.9-3,1.1c1.1,0.1,2.2,0.3,3.3,0.6c0.4,0.1,1.1,0.4,1.1,0.5
		s-0.5,0.7-0.9,0.9c-0.9,0.6-1.8,1-2.8,1.4c-1.4,0.5-2.9,0.9-4.4,1.1c1.1,0.2,2.2,0.4,3.3,0.7c0.6,0.1,1.1,0.4,1.6,0.7
		c0.2,0.1,0.7,0.5,0.7,0.6s-0.5,0.4-0.8,0.5c-0.9,0.4-1.9,0.8-2.9,0.9c-1.1,0.2-2.2,0.3-3.3,0.3c-0.7,0-1.5,0.1-2.2,0.1
		c1.1,0.3,2.1,0.7,3.1,1.2c0.7,0.3,1.3,0.7,1.9,1.2c0.3,0.2,0.7,0.6,0.7,0.7s-0.8,0.4-1.2,0.5c-1.5,0.3-3,0.4-4.5,0.4
		c-1.3,0-2.6-0.3-3.9-0.4c0.9,0.5,2,1,3,1.6c0.7,0.5,1.4,1.1,2,1.8c0.2,0.2,0.6,0.7,0.6,0.7c-0.4,0.1-0.8,0.2-1.1,0.2
		c-1.4,0.1-2.7,0-4.1-0.2c-1.3-0.2-2.6-0.7-3.9-1c0.9,0.6,1.7,1.3,2.5,2c0.5,0.6,1,1.2,1.4,1.9c0.2,0.3,0.3,0.6,0.4,0.9
		c-0.3,0.1-0.7,0.1-1,0.1c-1.3,0-2.6-0.3-3.8-0.8c-1.2-0.5-2.3-1.1-3.5-1.7c0.8,0.6,1.6,1.3,2.3,2.1c0.5,0.6,0.9,1.3,1.1,2
		c0.1,0.3,0.2,0.7,0.2,1c-0.4,0.1-0.8,0.1-1.2,0c-0.9-0.1-1.8-0.4-2.6-0.8c-0.4-0.2-0.8-0.4-1.2-0.7c0.5,0.8,0.8,1.6,1.1,2.4
		c0.1,0.3,0.1,0.6,0,0.9c-0.4,0-0.8,0-1.1-0.1c-0.8-0.1-1.5-0.4-2.2-0.9c-0.5-0.4-1-1-1.6-1.4c0.3,0.5,0.5,1,0.7,1.5
		c0.2,0.5,0.3,1.1,0.4,1.6c0,0.2,0,0.5-0.1,0.7c-0.4,0-0.7-0.1-1.1-0.2c-1-0.4-1.9-1-2.7-1.7c-0.8-0.7-1.6-1.5-2.2-2.4
		c-0.1-0.1-0.2-0.1-0.3-0.2c0,0.2,0.1,0.5,0.2,0.7c0.3,1.1,0.5,2.1,0.8,3.2c0.2,0.6,0.3,1.2,0.4,1.8c0.4-0.2,0.8-0.2,1.2-0.2
		c0.5,0.1,0.6,0.7,0.7,0.7c0.4-0.2,0.9-0.3,1.3-0.4c1-0.3,2-0.7,3-1.1s2-0.8,3-1.1c0.3-0.1,0.7-0.4,0.8-0.2c0.6-0.2,1.1-0.5,1.6-0.9
		c0.7-0.5,1.3-1,2-1.5s1-0.3,1.7-0.1c0.5,0.1,1,0.3,1.5,0.5c0.5,0.2,0.9,0.6,1,1.1c0.2,0.5,0.3,1,0.3,1.5c-0.1,0.5-0.2,1-0.5,1.1
		c0,0.1,0,0.1,0,0.2c0,0.5-0.2,1-0.4,1.5c-0.1,0.8-0.2,1.6-0.2,2.4c-0.1,0.8,0,1.6,0.2,2.4c0.1,0.2,0.1,0.4,0.2,0.6
		c1.2,0.1,2.4,0.3,3.2,0.3c1.5,0.2,3.7,0.5,4.4,0.5s0.7-0.4,1-0.8c0.2-0.4,0.7-0.7,1.2-0.7c0.6-0.1,0.1,1.1-0.4,1.8
		c-0.2,0.4-0.6,0.7-1,0.9l3.2,10.6c0.4,0.2,0.7,0.4,0.7,0.6l0,0c0,1.9-1.9,3.5-4.3,3.5s-4.3-1.6-4.3-3.5l0,0c0-0.3,0.4-0.6,1.1-0.8
		l2.8-10.3c-0.9,0-3-0.2-4.6-0.3c-1.3,0-2.2,0-3.1,0l-0.1,0.2c-0.2,0.8-0.6,1.6-1,2.3c-0.4-0.7-0.8-1.5-1-2.3l-0.1-0.2
		c-0.9,0-1.8,0-3.1,0c-1.6,0.1-3.7,0.3-4.6,0.3l2.8,10.4c0.7,0.2,1.1,0.5,1.1,0.8l0,0c0,1.9-1.9,3.5-4.3,3.5s-4.3-1.6-4.3-3.5l0,0
		c0-0.2,0.1-0.4,0.3-0.4l3.6-10.8c-0.4-0.2-0.8-0.5-1-0.9c-0.4-0.7-0.9-1.9-0.3-1.8c0.5,0,0.9,0.2,1.2,0.7c0.2,0.4,0.3,0.8,1,0.8
		s2.9-0.3,4.4-0.5c0.8-0.1,1.9-0.3,3.1-0.3c0.1-0.2,0.2-0.4,0.2-0.6c0.2-0.8,0.3-1.6,0.3-2.5c0-0.8,0-1.6-0.2-2.4
		c-0.2-0.4-0.3-0.8-0.4-1.2c-0.3,0-0.5,0-0.8,0l-0.6,0.1c-0.5,0-0.9,0-1.4,0c-0.1,0-0.4,0-0.6,0c-0.1,0-0.3,0.1-0.4,0.1
		c0,0.1-0.2,0.2-0.3,0.3c-0.7,0.5-1.2,0.9-1.9,1.4c-1.1,0.8-2.1,1.6-3.2,2.3c-1,0.6-2,1.1-3,1.5c-0.1,0,0.2,0.4-0.1,0.6
		s-0.7,0.1-0.8,0.2c-0.7,0.6-1.6,1.1-2.5,1.4c-0.7,0.2-1.2,0.2-1.6-0.4c-0.5-0.7-0.9-1.5-1-2.4c0-0.2-0.3-0.2-0.5-0.5
		s0.2-0.3,0.1-0.4c-0.6-1.2-1-2.1-1.6-3.3c-0.4-0.8-0.8-1.6-1.2-2.4c-0.3-0.7-0.2-0.7-0.4,0c-0.6,2-1.2,3.8-1.9,5.8
		c-0.2,0.3-0.2,0.7,0,1.1c0.2,0.4,0.4,0.9,0.7,1.3c0.1,0.2,0,0.4-0.2,0.6c0.1,0.3,0.3,0.7,0.4,1c0.3,0.5,0.6,1,1,1.5
		c0.1,0.2,0.1,0.4-0.1,0.6c0,0,0,0,0,0c0.2,0.4,0.4,0.9,0.7,1.3c0.2,0.4,0.5,0.7,0.9,0.9c0.2,0.1,0,0.4-0.2,0.5
		c0.2,0.4,0.4,0.9,0.7,1.3c0.3,0.6,0.6,0.6,0.6,1c0,0.1-0.2,0.3-0.4,0.4l0,0c0.5,0.8,0.9,1.6,1.2,2.4c0.3,0.8,0.5,1.4,0.8,2.2
		c0.3,0.2,0.6,0.4,0.9,0.7c0.2,0.4,0.4,0.8,0.5,1.3c0.1,0.6,0.2,0.6,0.5,0.9c1,0.8,1.6,1.8,1.9,3.1c0.1,1.2-0.1,2.4-0.6,3.5
		c-0.2,0.4-0.2,0.8-0.1,1.2c0.1,0.6,0.2,1.1,0.2,1.7c0,0.2-0.1,0.3-0.2,0.5c0,0.6,0.1,1.1,0.1,1.7c0,0.9,0,1.8-0.1,2.7
		c0,1.3,0,2.7,0.1,4c0,1.1,0.2,2.2,0.4,3.4c0.1,0.6,0.2,1.2,0.3,1.8c0,0.1,0,0.1,0,0.2c0.4,0.3,0.8,0.5,1.1,0.7
		c0.4,0.2,0.8,0.5,1.2,0.6c0.6,0.3,1.1,0.8,1.4,1.4c0.2,0.5,0.4,1.1,0.4,1.7c0,0.3,0.1,0.7,0.2,1c0.8-0.1,1.5-0.2,2-0.3
		c0.7-0.2,1.7-0.1,2.1-0.2l0.7-0.2c0.2-0.2,0.2-0.5,0.1-0.8c-0.2-0.4-0.4-1-0.6-1.6s-0.7-2.5-0.8-2.9c-0.2-0.7-0.1-0.7-0.4-0.9
		c-0.2-0.1-0.5-0.3-0.7-0.4c-0.1-0.1-0.2-0.3-0.3-0.4c-0.3-0.4-0.6-0.9-0.8-1.3c-0.1-0.3-0.3-0.6-0.6-0.7c-0.2-0.1-0.4-0.3-0.6-0.5
		c-0.2-0.2-0.4-0.3-0.6-0.3c-0.2,0-0.3,0-0.5-0.1s-0.1-0.3-0.2-0.4c-0.2-0.1-0.5-0.1-0.7,0c-0.3,0.1-0.5,0.2-0.4-0.1
		c0.1-0.4,0.2-0.7,0.6-0.8c0.2-0.1,0.3-0.1,0.5-0.1c0.2,0,0.2-0.1,0.3-0.2c0.2-0.2,0.5-0.3,0.7-0.1c0.1,0.1,0.2,0.1,0.3,0.2
		c0.2,0.1,0.3,0.1,0.2-0.1c-0.1-0.1-0.1-0.2-0.2-0.2c-0.3-0.2-0.4-0.4-0.3-0.6c0.1-0.1,0.1-0.2,0-0.3c-0.1-0.1-0.2-0.2-0.4-0.2
		c-0.4,0-1-0.2-0.5-0.5c0.3-0.3,0.8-0.4,1.2-0.3c0.2,0,0.4,0.1,0.6,0.1s0.3-0.1,0.4-0.2s0.2,0,0.4,0.2c0.1,0.1,0.2,0.2,0.2,0.2
		s0.1-0.1,0.1-0.2c0-0.1-0.1-0.2-0.2-0.3c-0.1-0.1-0.3-0.2-0.4-0.3c-0.2-0.1-0.3-0.2,0-0.3c0.4-0.1,0.8-0.1,1.1,0.1
		c0.2,0.1,0.3,0.3,0.4,0.5c0.1,0.1,0.2,0.1,0.3,0.1c0.3,0.1,0.4,0.2,0.4,0.6c0.1,0.4,0.2,0.7,0.4,1c0.2,0.2,0.4,0.5,0.6,0.8
		c0.1,0.3,0.2,0.5,0.2,0.8c0,0.1,0.1,0.2,0.1,0.2c0.1-0.1,0.2-0.2,0.3-0.3c0.2-0.2,0.6-0.3,0.9-0.2c0.4,0.2,0.7,0.6,0.8,1.1
		c0,0.4-0.1,0.7-0.4,1c-0.3,0.2-0.3,0.3-0.2,0.7c0.2,0.8,0.5,0.7,0.7,1.3s0.5,1.2,0.8,1.9c0.3,0.7,0.6,1.5,1,2.2
		c0.3,0.4,0.7,0.8,1.1,1.2c0,0,0,0,0.1,0.1c0.4-0.2,0.7-0.4,0.9-0.5c0.5-0.4,1.6-1.8,2-2c0.3-0.3,0.6-0.6,0.7-1
		c0.2-0.4,0.9-0.9,1.2-1.5c0.2-0.4,0.2-0.6,0.3-0.9c0-0.2-0.1-0.4-0.1-0.5l-0.3-0.6l-0.6-0.6c-0.5-0.5-1.1-0.9-1.7-1.3
		c-0.6-0.3-1.3-0.6-1.9-1c-0.5-0.4-1.1-0.7-1.7-1s-0.4-0.6-0.8-0.7s-1.3-0.3-1.5-0.7s-0.5-1.2,0-1.2h0.5c0-0.2,0-0.4,0-0.6
		c-0.6-0.2-1.2-0.5-1.8-0.8c-0.4-0.2-0.7-0.5-1-0.9c-0.4-0.4-0.6-1-0.6-1.6c0.1-0.7,0.3-0.5,0.5,0s0.7,0.8,1.2,0.9
		c0.6,0.2,1.3,0.4,1.9,0.5l0,0c0-0.4,0-0.7,0-1.1c0-0.3,0.1-0.5,0.1-0.8c-0.6-0.3-1-0.7-0.8-1.1c0.1-0.1,0.1-0.2,0.2-0.3
		c0.3-0.2,0.6-0.5,0.8-0.9c0.3-0.4,0.6-0.9,1.1-0.9s0.5-0.3,0.7-0.6c0.2-0.2,0.6-0.3,0.9-0.2c0.3,0.1,0.4,0.3,0.6,0.4
		c0.3-0.1,0.6,0,0.9,0.1c0.3,0.1,0.6,0.3,0.8,0.5c0.3,0.4,0.7,0.7,1.2,1c0.3,0.2,0.6,0.1,1.3,0.4s1,0.5,1.4,0.6s1-0.3,1.5-0.2
		s0.7,0.4,1,0.6c0.6,0,1.2,0.2,1.7,0.6c0.3,0.3,0.4,0.6,0.7,0.7c0.4-0.1,0.8-0.1,1.1,0.1c0.1-0.1,0.2-0.4,0.4-0.7
		c0.2-0.4,0.4-0.8,0.7-1.1c0.4-0.4,0.5-0.7,0.8-1s0.7-0.2,0.7,0.3s-0.2,1.4-0.2,1.8c0,0.5-0.1,1-0.2,1.5c0,0.2-0.1,0.5-0.1,0.6
		c0.2,0,0.3-0.1,0.4-0.2c0.5-0.3,1-0.6,1.5-1c0.4-0.3,0.9-0.7,1.4-1c0.8-0.6,1.2-0.5,1.1,0.3c-0.1,0.7-0.2,1.4-0.4,2.1
		c-0.2,0.7-0.6,1.6-0.9,2.3c-0.2,0.6-0.5,1.2-0.9,1.7c-0.3,0.2-0.6,0.4-0.9,0.5c0,0.2,0,0.3,0,0.5c0.1,0.6,0.3,1.1,0.6,1.7
		c0.3,0.6,0.5,0.9,0,1.2c-0.4,0.3-0.8,0.6-1.2,0.9c-0.4,0.2-0.5,0.4-0.4,1s0.1,1.4,0.1,2s0.1,0.9-0.4,1.2s-1.4,1-1.8,1.3
		c-0.4,0.3-0.6,0.8-0.6,1.3c0,0.5-0.1,1.5-0.1,2.3s0,1.1-0.7,1.3l-1.6,0.5c-0.5,0.1-0.8,0.5-1,0.9c-0.1,0.7-0.4,1.7-0.5,2.6
		s-0.3,1-1.1,1.3c-0.6,0.2-1.2,0.3-1.9,0.4c-0.8,0.1-1,0.3-1,0.9c0,0.4,0,0.8-0.1,1.1c-0.1,0.4-0.1,0.5,0.2,0.8
		c0.4,0.4,0.1,1.1-0.3,1.5c-0.5,0.5-1.1,0.8-1.7,1c-0.5,0.1-1,0.4-1.4,0.9c-0.5,0.6-1.2,1-1.9,1.3c-0.5,0.2-0.9,0.5-1.2,0.8
		c-0.4,0.3-0.9,0.6-1.4,0.8c-0.6,0.2-0.5,0.4-0.8,0.8c-0.4,0.4-0.8,0.8-1.4,1c-0.6,0.3-1.2,0.5-1.9,0.6c-1,0.2-1.7,0-2.6,0.5
		s-7.7,1.8-10.5,1.9c-3,0.1-6.1,0.6-7.8,0.6s-6.7-0.8-8.8-0.9c-3.3-0.3-6.5-1-9.7-1.9c-1.6-0.6-3.4-1.7-3.4-2.9
		c-0.1-0.5,0.2-1,0.6-1.3c1-0.5,0.9,0,0.6,0.3s0,1.1,0.6,1.4c0.6,0.4,1.2,0.6,1.9,0.6c0.7,0,1.3-0.2,1.9-0.5l0,0
		c-0.3-0.2-0.7-0.5-1-0.8c-1-0.8-2.2-1.5-3.4-2c-1.4-0.6-3.9-2-6.3-3.3c-2.6-1.4-4.9-3.1-7-5.2c-1.8-1.8-3.2-3.9-4-6.3
		c-0.7-2.3-1-4.6-0.8-7c0.2-1.8,0.7-3.5,1.7-5c1-1.8,2.6-3.2,4.5-3.9c2-0.8,4.1-1.2,6.3-1.3c-0.6-1-1.5-1.7-2.5-2.2
		c-1.9-0.9-3.9-1.7-6-2.3c-1.5-0.4-2.8-1-4-2c-1.1-0.9-1.6-2.3-1.3-3.7c0.5-1.8,0.9-1.1,0.9-0.3c-0.1,0.6,0.1,1.3,0.5,1.8
		c0.7,1,1.8,1.6,3,1.6c1.4,0.2,3.6,0.5,5,0.8c1.4,0.3,2.7,0.8,3.9,1.5c1.2,0.7,2.3,1.6,3.2,2.6c0.6,0.7,1.4,1.7,2.2,2.7
		c1.1,0.2,1.9,0.4,2.7,0.6s1.4,0.4,2.2,0.5c0-0.1,0-0.2,0-0.3c0.1-0.7,0.3-1.4,0.4-2.2c0.1-0.4,0.2-0.8,0.3-1.2c0-0.2,0-0.3,0-0.5
		c0-0.3,0-0.7,0.1-1c0.1-0.3,0.1-0.6,0-0.8c-0.3-0.7-0.4-1.5-0.3-2.2c0.1-0.9,0.4-1.7,1-2.4c0.2-0.2,0.3-0.4,0.3-0.6
		c0-0.1,0-0.2,0.1-0.3c0,0,0-0.1,0-0.1c0.2-1.7,0.5-3.4,0.9-5c0.1-0.6,0.2-1,0.4-1.6c-0.3-0.1-0.5-0.3-0.8-0.5
		C81.3,68,81,67.7,81,67.5s0.2-0.2,0.5-0.7c0.3-0.4,0.5-0.9,0.7-1.3c0,0-0.2-0.2-0.2-0.2s0.2-0.3,0.4-0.5c0.2-0.3,0.4-0.7,0.5-1
		c0.3-0.7,0.5-1.4,0.8-2c-0.1-0.1-0.3-0.2-0.3-0.3c0.1-0.3,0.2-0.5,0.4-0.7c0.2-0.4,0.4-0.9,0.6-1.3s0.4-1,0.7-1.5
		c-0.3-0.2-0.2-0.5,0-1c0.2-0.4,0.5-0.8,0.8-1.2c0.4-0.5,0.5-0.5,0.4-1.3c0-0.6-0.1-1.2-0.2-1.7c-0.2-1.5-0.3-2.9-0.4-4.4
		c0-0.2,0-0.8,0-0.8c-0.4,0.3-0.7,0.7-1,1.1c-0.9,1-1.7,2-2.6,3c-0.7,0.7-1.4,1.3-2.1,1.9c0,0,0.2,0.3,0.1,0.5s-0.4,0.2-0.4,0.3
		c-0.1,0.7-0.2,1.4-0.4,2.1c-0.1,0.5-0.6,0.9-1.1,0.8h-2c-0.1,0-0.3,0.4-0.5,0.5c-0.3,0.1-0.5-0.2-0.6-0.2c-1.3,1-2.8,1.9-4.3,2.6
		c-1.3,0.4-2.5,1-3.8,1.6c-0.1,0.1-0.3,0.2-0.4,0.2s-0.2,0.1-0.2,0s-0.2,0-0.2,0.1c0,0.1-0.1,0.2-0.2,0.3c-0.2,0.3-0.4,0.5-0.7,0.6
		c-0.4,0.2-0.7,0.3-1.1,0.3c0.1,0.5,0.1,0.8,0.2,1.3c0.3,0.1,0.5,0.4,0.6,0.7c0.1,0.9-0.6,1.6-1.5,1.7c-0.6,0-1.2-0.3-1.5-0.8
		c-0.1-0.3,0-0.7,0.1-0.9c-0.1-0.2-0.5-1-0.6-1.2c-0.1,0-0.3,0-0.4,0.1c-0.3,0-0.5-0.2-0.5-0.4c-0.1-0.2-0.1-0.3,0-0.4
		s0-0.1-0.1-0.1c-0.3,0-0.5-0.2-0.6-0.4c-0.1-0.3-0.2-0.4,0-0.6s0.1-0.1,0-0.1s-0.3-0.3-0.3-0.6s-0.1-0.5,0.1-0.6s0.1-0.1,0-0.1
		s-0.2-0.3-0.2-0.6c0-0.4,0.2-0.7,0.6-0.7L59.8,59c-1.3,0.3-2.6,0.5-3.9,0.8l-0.8-1.9c1.2,0.2,2.4,0.2,3.6,0l0.3-0.1l-0.3-1
		l-6.6-23.5c-0.7-2.4-0.3-6.4-0.1-6.5s2.7,3.1,3.4,5.5l7,23.3l0.3,1l0.3-0.1c1.1-0.5,2.1-1.1,3-1.9l0.4,2c-1.2,0.5-2.4,1-3.7,1.5
		c0,0.1,0,0.1,0.1,0.2c0.4,0,0.8,0,1.2,0.1c0.1,0,0.4,0,0.5,0.1s0.2,0,0.2,0c0-0.1,0.1-0.2,0.2-0.2c0.7-0.2,1.4-0.6,2.1-1
		c1.2-0.7,2.2-1.9,3.3-2.8s2-1.6,3.1-2.4c0,0-0.3-1.1,0.4-1.8s1.6,0,1.7-0.1c0.5-0.7,1-1.5,1.5-2.2c0.3-0.4,0.6-0.8,0.8-1.2
		c0.2-0.5,0.4-0.9,0.7-1.4c0.3-0.5,0.6-0.9,1-1.4c-0.6,0.3-1.2,0.8-1.8,1.1c-0.7,0.4-1.5,0.6-2.3,0.5c-0.4,0-0.8,0-1.1-0.1
		c0-0.3,0-0.6,0.2-0.9c0.4-0.8,0.9-1.5,1.5-2.2c-0.4,0.2-0.8,0.4-1.3,0.5c-0.9,0.2-1.8,0.3-2.7,0.3c-0.4,0-0.8-0.1-1.2-0.3
		c0.1-0.4,0.2-0.7,0.3-1c0.4-0.7,0.9-1.3,1.5-1.8c0.8-0.6,1.7-1.2,2.6-1.7c-1.3,0.3-2.5,0.8-3.7,1C70.3,40,69,40,67.7,39.8
		c-0.3,0-0.9-0.2-1-0.3s0.3-0.6,0.5-0.9c0.5-0.6,1.1-1.1,1.8-1.6c0.9-0.6,1.9-1.1,2.9-1.6c-1.3,0.1-2.7,0.3-4,0.3
		c-1.4,0-2.7-0.2-4.1-0.5c-0.4-0.1-0.8-0.2-1.1-0.4c0-0.1,0.5-0.4,0.7-0.6c0.7-0.6,1.5-1,2.3-1.4c1-0.4,2.2-0.7,3.2-1
		c-1.3-0.1-2.7-0.1-3.9-0.3c-1.5-0.2-2.9-0.7-4.3-1.2c-0.4-0.1-1.1-0.6-1.1-0.7s0.5-0.4,0.8-0.6c0.6-0.3,1.3-0.6,2-0.8
		c1.1-0.3,2.2-0.5,3.3-0.6c-0.7-0.1-1.4-0.3-2.1-0.5c-1.1-0.2-2.1-0.6-3.2-0.9c-1-0.4-1.9-0.9-2.7-1.5c-0.3-0.2-0.8-0.6-0.7-0.7
		c0.2-0.2,0.5-0.3,0.8-0.4c0.6-0.2,1.1-0.3,1.7-0.3c1.1-0.1,2.2-0.2,3.3-0.1c-1.4-0.5-2.8-1.1-4.1-1.9c-0.9-0.5-1.7-1.2-2.5-1.9
		c-0.3-0.3-0.6-0.6-0.7-1c0.4-0.2,0.7-0.3,1.2-0.3c1.1-0.1,2.3-0.1,3.4,0c-0.9-0.5-1.9-1.1-2.7-1.7c-0.8-0.6-1.4-1.3-1.9-2.1
		c-0.1-0.2-0.2-0.4-0.2-0.6c0.2-0.1,0.5-0.2,0.7-0.2c0.9,0,1.8,0,2.6,0.2c1.5,0.4,3,1,4.3,1.7c1,0.4,1.9,0.9,2.9,1.4
		c0-0.3,0.1-0.6,0.2-0.6c0.3,0.2,0.6,0.4,0.9,0.6c1.1,0.5,2.2,0.9,3.4,1.2c1,0.1,1.9,0.4,2.8,0.8C72.8,18.4,73,18,73.1,18
		c0.3,0.3,0.7,0.5,1.2,0.6c1.1,0.4,2.3,0.6,3.4,1c2.1,0.7,4.1,1.8,5.8,3.4c1.2,1.3,2,2.9,2.2,4.7c0,1.3-0.2,2.6-0.8,3.8
		c-0.1,0.6,0.1,1.2,0.5,1.6c0.5,0.6,1,1.1,1.5,1.6l0.1,0.1c0-0.1,0-0.1,0-0.2c0.2-0.4,0.6-0.7,1-0.7c0.5,0,0.9,0.3,1.2,0.7
		c0.4,0.5,0.8,1.1,1.2,1.7c0.2,0.3-0.2-0.9-0.1-1.3s0.2-1,0.2-1.4c-3.7-4.5-3-11.2,1.5-14.8c4.5-3.7,11.2-3,14.8,1.5
		s3,11.2-1.5,14.8c-0.5,0.4-1,0.8-1.6,1.1c0.1,0.2,0.2,0.4,0.2,0.7c0,0.1,0,0.2,0,0.3L103.9,37z M131.6,70c0.8-0.1,1.5-0.2,2.3-0.2
		l0.1-9.1L131.6,70z M134.5,69.8c0.8,0,1.7,0.1,2.5,0.3l-2.4-8.7L134.5,69.8L134.5,69.8z M114.1,69.9c-0.6,0.1-1.1,0.2-1.7,0.3
		l2.8-8.9L114.1,69.9z M123.8,49.7c0.2-0.4,0.7-0.6,1.1-0.6l0,0c0.1,0,0.3,0,0.4,0l0,0c0-0.2-0.4-0.7-0.4-0.9
		c-0.4-0.1-0.7-0.1-1.1-0.1c-0.4,0.1-0.6,0.5-0.6,1S123.4,49.6,123.8,49.7L123.8,49.7z M82,103c0.4-0.5,1-1.4,1.5-2.1
		c0.6-0.9,1.2-1.9,1.6-3c0.1-0.3,0.2-0.7,0.4-1s0-0.4,0-0.5c0.1-0.5,0.4-0.9,0.8-1.1c0.5-0.3,1-0.5,1.5-0.6l0.6-0.2l0.3-0.3
		c0.1-0.1,0.3-0.2,0.4-0.4c0.1-0.2,0.3-0.4,0.5-0.6c0.3-0.2,0.4-0.3,0.5-0.5s-0.1-0.3-0.2-0.6c-0.1-0.2,0-0.5,0.2-0.6
		c0.2-0.1,0.3-0.2,0.3-0.3c0.1-0.2,0-0.4-0.1-0.6c-0.2-0.2-0.3-0.3,0-0.4c0.3-0.1,0.6-0.1,0.9,0c0.3,0.2,0.5,0.3,0.6,0.6
		s0.1,0.3,0.2,0.3s0.2,0,0.2,0.2c0,0,0,0.1,0,0.2c0.1-0.1,0.2-0.1,0.3-0.2s0.1-0.3,0.1-0.5c0-0.2-0.1-0.4-0.2-0.5
		c-0.2-0.2-0.2-0.3,0.2-0.3c0.3,0,0.6,0.2,0.8,0.4c0.2,0.3,0.3,0.6,0.3,0.9c0,0.3,0,0.3,0.1,0.4s0.3,0.3,0.3,0.5c0,0.1,0,0.2,0,0.3
		c0.1,0.1,0.3,0,0.4-0.1c0.2-0.1,0.2-0.3,0.2-0.5c0-0.3,0-0.4,0.3-0.2c0.3,0.1,0.5,0.4,0.5,0.7c0.1,0.3,0,0.6-0.1,0.8
		c-0.1,0.2-0.2,0.2-0.2,0.5c0.1,0.2,0,0.4-0.1,0.6c-0.2,0.2-0.4,0.4-0.6,0.5c-0.3,0.2-0.5,0.3-0.7,0.5c-0.2,0.3-0.5,0.4-0.8,0.5
		c-0.3,0.1-0.7,0.3-1,0.5c-0.4,0.2-0.7,0.5-1,0.8c-0.3,0.3-0.7,0.5-1.1,0.8c-0.4,0.3-0.7,0.6-1,1c-0.1,0.3-0.2,0.7-0.4,1
		c-0.2,0.5-0.4,1.1-0.6,1.7c-0.2,0.5-0.4,0.8-0.5,1.3c0,0.2,0,0.5,0.1,0.7c0.4-0.1,1-0.1,1.6-0.2c1.6-0.1,3.1-0.6,5.1-0.7l0,0
		c1.4-0.1,2.9-0.2,4.3-0.1c0.9,0.2,3.9,0.3,4.8,0.5s1.4,0.2,1.8,0.3c-0.3-0.3-0.4-0.6-0.4-1c0-0.7,0.1-1.3,0.2-2
		c0.1-0.5,0.2-1.1,0.3-1.6c-0.1,0.1-0.2,0.2-0.3,0.3c-0.1,0.2-0.2,0.4-0.2,0.7c0,0.2-0.2,0.4-0.4,0.6c-0.2,0.1-0.3,0.1-0.5,0
		c-0.2,0-0.4,0.1-0.5,0.2c-0.2,0.2-0.3,0.5-0.3,0.8c0,0.4-0.2,0.3-0.4,0.2c-0.2-0.1-0.3-0.3-0.4-0.4c-0.2-0.3-0.2-0.7-0.1-1
		c0.1-0.2,0-0.4,0-0.5c-0.1,0-0.2,0-0.3-0.1c-0.2,0-0.3,0.1-0.5,0.3c-0.1,0.1-0.2,0.3-0.2,0.5c0,0.2-0.2,0.2-0.4-0.1
		c-0.2-0.2-0.2-0.5-0.2-0.8c0-0.2,0.1-0.5,0.2-0.7c0-0.1,0-0.2,0-0.2c-0.1-0.1-0.1-0.2,0-0.3c0.1-0.3-0.2-0.2-0.4-0.2
		c-0.2,0.1-0.4,0.3-0.5,0.6c-0.1,0.3-0.3-0.1-0.4-0.4c-0.1-0.3,0-0.6,0.1-0.9c0.1-0.2,0.3-0.4,0.5-0.5c0.2-0.1,0.2-0.4,0.3-0.5
		c0.2-0.1,0.4-0.2,0.6-0.2c0.2,0,0.6-0.1,0.9-0.1s0.7,0,0.9,0c0.4,0,0.7-0.1,1.1-0.1c0.3-0.1,0.5-0.2,0.8-0.3
		c-0.2-0.5-0.4-1.1-0.6-1.6c-0.3-0.8-0.6-1.6-0.8-2.4c-0.3-1.1-0.6-2.2-0.8-3.3c-0.2-1-0.3-1.9-0.3-2.9c0-0.9,0.1-1.8,0.2-2.7
		c0,0,0-0.1,0-0.1c-0.7,0-1.2-1-1.4-1.7s-0.3-1.6,0.2-2c0.1-0.1,0.2-0.1,0.3-0.1c-0.2-0.3-0.4-0.5-0.7-0.8c-0.8-1-1.6-2-2.3-3
		c-0.7-1-1.3-2.1-2-3.2c-0.3-0.5-0.6-1-0.8-1.5l0,0c-0.8,0.2-1.6,0.2-2.5,0.2c-0.7,0-1.4-0.3-2.1-0.3l0,0c-0.2,0.8-0.5,1.6-0.8,2.4
		c-0.5,1.4-0.9,2.8-1.4,4c-0.2,0.5-0.6,1.3-0.8,2c0.1,0,0.2,0,0.2,0c0.5,0.1,0.5,1.7,0.3,2.4s-0.7,1.7-1.4,1.6
		c-0.2,0-0.3-0.2-0.4-0.4c0,0.2,0,0.5,0,0.7c-0.1,1.1-0.2,2.2-0.3,3.2c-0.1,0.7-0.3,1.4-0.6,2.1l-0.1,0.2c1.1,0.4,2,1.2,2.4,2.3
		c0.3,0.9,0.2,1.8-0.3,2.6c-0.6,0.7-1.4,1.1-2.3,1.2c-0.8,0.2-1.5,0.2-2.3,0.3c-0.2,0.7-0.5,1.4-0.8,2.1c-0.3,1-0.6,2.1-0.8,3.2
		c-0.1,0.7-0.1,1.3-0.1,2C82,102.2,82,102.6,82,103L82,103z M122.3,87.5c0.2,0,0.4,0.1,0.5,0.2l0.3,0.2c0.1-0.2,0.3-0.3,0.4-0.5l0,0
		l-0.4-0.1l-0.8-0.1C122.2,87.2,122.2,87.4,122.3,87.5L122.3,87.5z M129.2,91.2l0.6,0.5c0.5,0.5,1.2,0.8,1.9,0.7h0.1
		c-0.2-0.1-0.3-0.3-0.6-0.5c-0.5-0.5-1-1-1.4-1.5c-0.6-0.6-1.2-1.1-1.9-1.6c-0.8-0.5-1.7-0.9-2.6-1.2c-0.3-0.1-0.5-0.1-0.8-0.2
		c-0.1,0.2-0.1,0.3-0.2,0.5c-0.1,0.2-0.1,0.4,0.2,0.3c0.2,0,0.5-0.1,0.7-0.2c0.3-0.2,0.4-0.2,0.4,0.1s0.1,0.3,0.1,0.4
		s-0.1,0.2,0.2,0.2c0.2,0,0.3,0,0.4-0.1c0.3-0.2,0.3-0.1,0.3,0.1s0.2,0.3,0.2,0.6s-0.1,0.4,0,0.3s0.4,0,0.6-0.1s0.2-0.1,0.4-0.1
		s0.3-0.1,0.3,0.1c0,0.2,0,0.4,0.1,0.5c0,0.2-0.1,0.4,0.1,0.4s0.4,0,0.5-0.1s0.3,0,0.3,0.1s0.1,0.3,0.1,0.4
		C129.2,91.1,129.2,91.2,129.2,91.2L129.2,91.2z M123.5,83.5L123.5,83.5c0,0.2-0.1,0.6-0.2,0.9s-0.2,0.6-0.2,0.8l0,0l-0.7-0.1h-0.1
		c0.1-0.3,0.2-0.7,0.3-1c0.1-0.2,0.2-0.4,0.3-0.7L123.5,83.5L123.5,83.5z M123.9,85.4l0.1-0.1c0.2-0.3,0.3-0.6,0.4-0.9
		c0.1-0.2,0.2-0.4,0.2-0.6c0,0,0,0,0-0.1h0.1c0,0,0,0.1,0,0.1c0,0.3,0,0.7,0.1,1c0,0.3,0.1,0.4,0.3,0.3s0.2-0.1,0.4-0.3
		s0.3-0.2,0.3,0.1c0,0.1,0,0.3,0.1,0.4c0,0.1,0.1,0.2,0.3,0.2c0.1,0,0.3,0,0.4,0c0.2,0,0.2,0,0.2,0.2s0,0.3,0.2,0.4s0.3,0.3,0.4,0.3
		c0.1,0,0.3,0,0.4-0.1c0.1-0.1,0.2,0,0.2,0.2c0,0.1,0.1,0.3,0.1,0.4c0.1,0.2,0.1,0.2,0.2,0.2s0.4,0.1,0.6,0.1c0.2,0,0.3,0,0.5-0.1
		h0.1c0.2,0.2,0.4,0.4,0.6,0.7c0.7,0.7,1.3,1.4,1.7,2.3c0.1,0.4,0.2,0.9,0.1,1.3l-0.4-0.3c-0.5-0.4-1.1-1.1-1.6-1.7
		c-0.7-0.7-1.4-1.4-2.2-2c-0.9-0.7-1.8-1.3-2.9-1.8C124.7,85.6,124.3,85.5,123.9,85.4L123.9,85.4z M78.2,94
		c-0.6-0.2-1.1-0.5-1.7-0.8c-1.4-0.8-2.6-1.9-3.6-3.2c-0.2-0.2-0.3-0.4-0.4-0.6c-1.3-0.3-2.7-0.4-4.1-0.2c-1.7,0.2-3.3,1.1-4.4,2.5
		c-1,1.4-1.5,3.1-1.4,4.8c0.1,1.8,0.5,3.5,1.3,5.1c0.7,1.5,2.1,2.7,3.7,3.2c1.5,0.6,3.1,1,4.7,1c0.8,0,1.7-0.2,2.5-0.4
		c0.2-0.4,0.5-0.8,0.7-1.1c0.4-0.5,0.9-1.1,1.3-1.7c0.6-0.9,1-2,1.1-3.1c0.1-1.3,0.1-2.7,0.2-4C78.1,95,78.1,94.5,78.2,94"/>
	
		<path id="path18" style="clip-path:url(#SVGID_00000083088405204746716230000016573975515675240374_);fill-rule:evenodd;clip-rule:evenodd;fill:#FFFEFE;" d="
		M96.6,27c0,0.1,0,0.2,0,0.3c0,0.1,0,0.2,0.1,0.3c0,0.1-0.1,0-0.2,0c-0.1,0-0.1-0.1-0.2-0.2l-0.1-0.2c0-0.1,0-0.1,0.1-0.1
		C96.4,27.1,96.5,27.1,96.6,27L96.6,27z M101.7,28.6c0,0.1-0.1,0.1-0.1,0.2c-0.1,0.1-0.1,0.1-0.2,0.2c-0.1,0,0.1,0,0.2,0
		c0.1,0,0.2,0,0.2,0c0.1,0,0.1,0,0.2-0.1c0,0,0.1,0,0-0.1S101.8,28.5,101.7,28.6L101.7,28.6z M97.1,27.7c0.1,0,0.2-0.1,0.2-0.1
		c0.1,0,0.1-0.1,0.1-0.2c0,0,0,0,0.1,0.1l0.1,0.2c0,0,0.1,0.2,0,0.2c-0.1,0-0.2,0-0.2,0h-0.3C97.1,27.8,97,27.8,97.1,27.7L97.1,27.7
		z M100.9,28.8c-0.1-0.1-0.1-0.1-0.1-0.2c0-0.1,0-0.1,0-0.2c0,0,0,0-0.1,0l-0.2,0.1c0,0-0.2,0.1-0.1,0.1l0.2,0.1
		C100.7,28.8,100.8,28.8,100.9,28.8C100.9,28.8,101,28.8,100.9,28.8L100.9,28.8z M123.7,83.6c0,0.2-0.1,0.5-0.2,0.8
		s-0.1,0.6-0.2,0.8c-0.1,0.2-0.1,0.3-0.2,0.5c0,0.2,0,0.3,0.2,0.1c0.2-0.2,0.4-0.4,0.5-0.7c0.2-0.3,0.4-0.8,0.5-1s0.2-0.3,0.2-0.3
		C124.3,83.7,124,83.6,123.7,83.6z M121.9,83.1c0.2,0.1,0.4,0.2,0.6,0.2s-0.1,0.2-0.1,0.5s-0.3,1-0.3,1.3l-0.3-0.1
		c0-0.3,0-0.6,0-0.9s0-0.5,0.1-0.7S121.9,83.1,121.9,83.1z M123.4,87.8c0.1,0.1,0.5,0.2,0.7,0.3c0,0,0.1-0.1,0.2-0.4
		c0.1-0.3,0.3-0.6,0.3-0.9c0.1-0.3,0.1-0.6,0.2-0.9c0-0.2-0.1-0.3-0.2,0c-0.1,0.3-0.3,0.5-0.5,0.8c-0.2,0.3-0.3,0.5-0.4,0.7
		C123.5,87.5,123.4,87.7,123.4,87.8L123.4,87.8z M125,83.8c0.3,0.1,0.6,0.2,0.9,0.4c0.2,0.1,0,0.2-0.1,0.3s-0.3,0.2-0.4,0.3
		s-0.2,0.2-0.3,0s-0.1-0.5-0.1-0.7S125,83.8,125,83.8L125,83.8z M126.3,84.5c0.3,0.2,0.7,0.4,1,0.7c0.4,0.3,0.7,0.5,1,0.9
		c0,0-0.1,0-0.3,0.1c-0.1,0.1-0.3,0.1-0.5,0.1c-0.2,0-0.5-0.1-0.5-0.3s0-0.3,0-0.4s0.1-0.2-0.2-0.1c-0.1,0.1-0.3,0.1-0.4,0.1
		c-0.1,0-0.3,0-0.3-0.2c0-0.2,0-0.4,0-0.6C126.1,84.6,126.1,84.4,126.3,84.5L126.3,84.5z M128.5,86.2c0.3,0.3,0.7,0.6,0.9,0.9
		c0.1,0.1-0.1,0.1-0.3,0.1s-0.3-0.1-0.4-0.1s-0.3-0.1-0.3-0.3s0-0.3,0-0.5S128.5,86.1,128.5,86.2L128.5,86.2z M124.5,88.4
		c0.1,0.1,0.5,0.3,0.8,0.5s0.9,0.6,1.2,0.8s1.1,0.5,1.3,0.6s0.2,0.2,0.2,0s0-0.3,0-0.5s0-0.4-0.2-0.3c-0.2,0.1-0.3,0.1-0.5,0.1
		c-0.1,0-0.3,0-0.4,0c-0.2,0-0.3,0-0.3-0.1c0-0.2,0.1-0.3,0.1-0.5c0-0.1,0-0.2-0.1-0.3c0,0,0-0.1,0-0.1c0-0.1,0-0.1-0.1,0
		c-0.1,0.1-0.3,0.1-0.4,0.1c-0.2,0-0.2,0-0.4,0s-0.2,0-0.1-0.2s0-0.2,0-0.4s0-0.3-0.2-0.2c-0.2,0.1-0.3,0.1-0.5,0.2
		C124.7,88.2,124.5,88.2,124.5,88.4L124.5,88.4z M128.3,90.6c0.2,0.1,0.5,0.3,0.7,0.4c0.1,0.1,0.1-0.1,0-0.2s0-0.2-0.1-0.3
		s0-0.2-0.2-0.1S128.1,90.6,128.3,90.6L128.3,90.6z M133.3,83.9c-0.2,0.2-0.2,0.5-0.2,0.8c0,0.1,0,0.1-0.1,0
		c-0.1-0.1-0.1-0.2-0.2-0.4c-0.1-0.2,0-0.3,0.1-0.4C133.1,83.9,133.2,83.9,133.3,83.9L133.3,83.9z M134.2,84.5
		c-0.1,0.2-0.2,0.5-0.5,0.5s-0.2,0,0,0.1c0.2,0.1,0.4,0.2,0.5,0.3c0.2,0.1,0.2,0.2,0.2-0.1c0-0.2,0-0.3,0-0.5
		C134.4,84.8,134.3,84.6,134.2,84.5L134.2,84.5z M84,37.7c0.4-0.3,0.8-0.6,1.2-0.8c0.7-0.3,1.3-0.8,1.5-1.6
		c-0.8-0.7-1.5-1.4-2.1-2.3c-0.4-0.5-0.4-1.2-0.1-1.7c0.5-1.3,0.7-2.6,0.5-4c-0.2-1.8-1-3.4-2.4-4.5c-1.6-1.2-3.3-2.2-5.2-2.8
		c-1.1-0.4-2.3-0.7-3.4-1c-0.4-0.1-0.5-0.5-0.6-0.3c-0.1,0.3,0,0.7,0.2,1c0.4,0.6,0.9,1.1,1.5,1.5c1,0.6,2,1.1,3.1,1.4
		c0.5,0.1,1,0.2,1.5,0.5c-0.8,0-1.5,0.2-2.2,0.5c-0.3,0.2-0.6,0.4-0.8,0.7c0.2,0.3,0.5,0.5,0.8,0.7c0.8,0.4,1.6,0.7,2.4,0.9
		c-0.5,0.2-1,0.5-1.5,0.8c-0.2,0.2-0.4,0.5-0.4,0.5c0.2,0.3,0.5,0.6,0.8,0.7c0.6,0.3,1.2,0.4,1.9,0.5c-0.6,0.2-1.2,0.5-1.7,0.9
		c-0.2,0.2-0.4,0.5-0.5,0.9c0,0.1,0.4,0.4,0.7,0.5c0.6,0.2,1.2,0.3,1.8,0.1c-0.5,0.4-1,0.8-1.4,1.3C79.2,32.4,79,32.7,79,33
		c0.3,0.2,0.6,0.3,0.9,0.4c0.6,0.1,1.3,0.1,1.9-0.2c-0.4,0.3-0.8,0.7-1.1,1.2c-0.2,0.2-0.4,0.7-0.4,0.8c0.3,0.2,0.6,0.3,0.9,0.3
		c0.7,0.1,1.4,0,2-0.2c-0.4,0.4-0.7,0.9-1,1.4C82,37.1,82,37.4,82,37.7c0.3,0.1,0.6,0.2,0.9,0.1C83.3,37.8,83.6,37.8,84,37.7
		L84,37.7z M77.6,27.8c-0.2,0-2.7,0.1-3.6,0c-1.5-0.1-2.9-0.6-4.1-1.5c-0.2-0.1-0.6-0.5-0.6-0.5c0.2-0.2,0.5-0.3,0.7-0.4
		c1.1-0.4,2.3-0.6,3.4-0.4c0.4,0,0.7,0,1.1,0c-0.4-0.1-0.9-0.2-1.3-0.4c-1.8-0.5-3.6-0.9-5-2.1c-0.2-0.2-0.5-0.5-0.5-0.5
		c0.2-0.2,0.5-0.3,0.7-0.4c0.7-0.2,1.4-0.3,2.1-0.2c0.9,0.1,1.7,0.2,2.6,0.4c0.2,0,0.6,0.1,0.7,0.1c-0.2-0.1-0.5-0.2-0.8-0.3
		c-1.2-0.4-2.4-0.7-3.6-1.1c-1.4-0.4-2.5-1.3-3.2-2.5c-0.2-0.3-0.2-0.6-0.2-0.9c0-0.2,0.2,0.2,0.7,0.4c0.8,0.4,1.6,0.6,2.4,0.9
		c0.9,0.2,1.8,0.3,2.7,0.5c0.3,0.1,0.7,0.3,0.8,0.6c0.1,0.3,0.2,0.6,0.4,0.9c0.5,0.6,1.2,1.2,1.8,1.6c0.6,0.4,1.3,0.7,1.9,0.9
		c0.2,0.1,0.5,0.1,0.7,0.3c-0.4,0.3-0.9,0.4-1.3,0.7c-0.2,0.2-0.4,0.4-0.5,0.6c0.1,0.3,0.3,0.5,0.5,0.7c0.4,0.3,0.8,0.6,1.2,0.7
		c0.2,0.1,0.5,0.2,0.8,0.3c-0.3,0.2-0.5,0.4-0.8,0.6c-0.2,0.2-0.4,0.4-0.5,0.6C77.3,27.5,77.4,27.7,77.6,27.8L77.6,27.8z M71.4,26.1
		c0.2,0.1,0.5,0.2,0.8,0.2c1.2,0.1,2.3,0.2,3.5,0.3c0.2,0,0.7,0.1,0.7-0.1c-0.1-0.3-0.4-0.3-0.7-0.3c-1.1-0.1-2.3-0.1-3.4-0.2
		C72,26.1,71.2,26,71.4,26.1L71.4,26.1z M69.7,22.2c0.1,0.2,0.3,0.3,0.5,0.3c0.9,0.3,1.9,0.4,2.9,0.6c0.6,0.1,1.2,0.2,1.8,0.3
		c0.2,0,0.4,0,0.4-0.1s-0.3-0.2-0.4-0.2c-0.6-0.1-1.2-0.2-1.8-0.3c-0.9-0.1-1.9-0.2-2.7-0.4C70.2,22.4,69.7,22.2,69.7,22.2z
		 M72.4,19.6c-0.7-0.2-1.4-0.4-2.2-0.5c-0.5-0.1-1-0.2-1.5-0.4c-0.2,0-0.6-0.3-0.5-0.2c0.1,0.1,0.2,0.3,0.4,0.4
		c0.5,0.2,1,0.4,1.5,0.5c0.7,0.1,1.3,0.3,2,0.5c0.2,0.1,0.6,0.2,0.5,0.1S72.6,19.6,72.4,19.6L72.4,19.6z M77.7,28.1
		c0.3,0.2,0.6,0.3,0.9,0.4c0.2,0.1,0.5,0.2,0.7,0.2c-0.2,0.1-0.5,0.3-0.7,0.4c-0.3,0.3-0.6,0.6-0.8,1c0,0.1,0.1,0.4,0.4,0.5
		c-0.7,0-1.5,0-2.1,0.1c-1.3,0.1-2.5-0.1-3.7-0.5c-0.4-0.1-0.8-0.3-1.2-0.5c0-0.1,0.6-0.4,0.9-0.6c0.7-0.3,1.4-0.6,2.1-0.8
		C75.3,28.2,76.5,28.1,77.7,28.1z M72.7,29.7c0.3,0.1,0.5,0.1,0.8,0.1c1,0,2.1,0,3.1-0.1c0.2,0,0.6,0,0.6-0.2s-0.4-0.2-0.6-0.2
		c-1,0.1-2.1,0.1-3.1,0.2C73.2,29.5,72.5,29.6,72.7,29.7z M79.5,31.4c-0.3-0.1-0.7-0.2-1-0.4c-0.8,0.1-1.6,0.3-2.3,0.5
		c-1,0.3-1.8,0.8-2.6,1.5c-0.2,0.2-0.6,0.5-0.5,0.5s0.4,0.2,0.6,0.3c1,0.2,2,0.3,3,0.2c0.7-0.1,1.4-0.3,2.1-0.5
		c-0.1-0.1-0.3-0.1-0.4-0.2c0-0.2,0.1-0.4,0.2-0.5C78.9,32.3,79.2,31.8,79.5,31.4L79.5,31.4z M74.2,33.3c0.3,0,0.5,0,0.8,0
		c0.9-0.2,1.8-0.3,2.7-0.6c0.2-0.1,0.6-0.1,0.5-0.3s-0.4-0.1-0.7-0.1c-0.9,0.2-1.8,0.4-2.7,0.7C74.7,33.1,74,33.3,74.2,33.3z
		 M80.6,33.9c-0.5,0-0.9-0.1-1.4-0.2c-0.7,0.2-1.4,0.5-2.1,0.8c-0.7,0.4-1.3,0.9-1.8,1.6c-0.1,0.1-0.2,0.3-0.3,0.5
		c0.1,0.1,0.3,0.2,0.5,0.2c0.8,0.1,1.7,0.1,2.5-0.1c0.9-0.2,1.8-0.4,2.7-0.7c-0.2,0-0.4-0.1-0.6-0.2c-0.1-0.1-0.3-0.1-0.4-0.2
		c0-0.2,0.1-0.4,0.2-0.6C80.1,34.6,80.3,34.3,80.6,33.9L80.6,33.9z M76,36.3c-0.1,0.1,0.4,0,0.6-0.1c0.8-0.2,1.5-0.5,2.2-0.8
		c0.2-0.1,0.3-0.1,0.4-0.3s-0.4-0.1-0.6,0c-0.7,0.2-1.4,0.5-2.1,0.8C76.3,36.1,76.2,36.2,76,36.3L76,36.3z M82.3,36
		c-0.3,0.1-0.7,0.1-1,0.1c-0.7,0.3-1.3,0.8-1.9,1.2c-0.6,0.5-1,1.1-1.4,1.7c-0.1,0.2-0.4,0.5-0.3,0.6s0.5,0.1,0.7,0
		c0.6,0,1.1-0.1,1.6-0.3c0.6-0.2,1.2-0.4,1.8-0.7c0.4-0.2,0.7-0.3,1.1-0.5c-0.2,0-0.4,0-0.7-0.1c-0.2,0-0.4-0.1-0.6-0.2
		c0-0.3,0.1-0.6,0.2-0.9C81.9,36.7,82.1,36.3,82.3,36z M78.7,39.1c0.1-0.1,0.3-0.2,0.4-0.3c0.5-0.3,1-0.6,1.6-0.9
		c0.2-0.1,0.5-0.3,0.5-0.2c0,0.2-0.2,0.5-0.4,0.6c-0.5,0.3-1,0.5-1.5,0.8C79.1,39,78.6,39.2,78.7,39.1L78.7,39.1z M81.7,41.5
		c-0.2,0.1-0.4,0.3-0.4,0.2c0.1-0.2,0.2-0.3,0.4-0.5l0,0c0.1-0.3,0.2-0.5,0.3-0.8c0.4-0.7,0.9-1.4,1.4-2.1h-0.2
		c-0.6,0.5-1.1,1-1.5,1.5c-0.4,0.5-0.7,1.1-1,1.8c-0.1,0.2-0.2,0.5-0.2,0.5c0.2,0,0.4,0,0.5,0l0.5-0.1c0-0.2,0-0.4,0-0.6L81.7,41.5z
		 M65.7,17.1c-0.9-0.6-1.8-1-2.8-1.4c-1.2-0.6-2.4-1-3.7-1.5c-0.9-0.3-1.8-0.4-2.7-0.4c-0.2,0-0.6,0-0.7,0.1s0.2,0.5,0.4,0.8
		c0.4,0.5,0.8,0.9,1.3,1.3c0.8,0.6,1.7,1.2,2.6,1.6c1.5,0.8,3.1,1.4,4.7,2c0.7,0.3,1.4,0.6,2.1,0.9c0.2,0.1,0.7,0.3,0.5,0.2
		c-0.3-0.1-0.6-0.1-0.9-0.2c-1-0.3-2.1-0.7-3.1-1.1c-1.8-0.7-3.8-1-5.8-0.8c-0.3,0-0.9,0.1-1,0.1s0.4,0.5,0.6,0.7
		c0.8,0.7,1.6,1.3,2.5,1.8c1.5,0.8,3.1,1.5,4.7,2c1.5,0.4,3.1,0.8,4.7,1c0.2,0,0.8,0,0.6,0.1c-0.2,0.1-0.4,0.1-0.6,0
		c-1.2-0.1-2.3-0.2-3.5-0.4c-1.4-0.2-2.9-0.3-4.4-0.3c-0.9,0-1.7,0.1-2.5,0.4c-0.3,0.1-0.8,0.1-0.8,0.2s0.5,0.3,0.7,0.5
		c1,0.6,2,1.1,3,1.4c1.1,0.4,2.3,0.8,3.4,1c1.8,0.4,3.7,0.5,5.6,0.7c0.3,0,0.7,0.1,1,0.2c0.3,0.1-0.7,0-1,0.1c-1.6,0-3.2,0-4.9,0.1
		c-1.5,0.2-3,0.6-4.5,1.1c-0.3,0.1-0.8,0.3-0.8,0.4s0.7,0.4,1,0.5c1.5,0.5,3.1,0.9,4.8,1c1.8,0.1,3.5,0.1,5.3,0.1
		c0.7,0,1.6-0.1,2.2,0c-0.6-0.2-1.2-0.4-1.8-0.6c-0.5-0.2-0.9-0.4-1.3-0.7c0.1-0.2,0.3-0.5,0.5-0.6c0.7-0.5,1.5-0.9,2.3-1.1
		c-0.8-0.2-1.6-0.4-2.4-0.7c-0.7-0.3-1.3-0.7-1.8-1.2c-0.2-0.1-0.3-0.3-0.4-0.5c0.2-0.3,0.4-0.5,0.7-0.6c0.6-0.3,1.4-0.4,2-0.6
		c-0.5-0.3-1.5-0.5-2.2-0.9c-0.7-0.4-1.3-0.9-1.8-1.5c-0.1-0.2-0.2-0.3-0.3-0.5c-0.1-0.1,0.3-0.4,0.5-0.4c0.5-0.2,1.1-0.3,1.6-0.4
		c-1.1-0.5-2-1.2-2.9-2C66,18.3,65.8,17.7,65.7,17.1L65.7,17.1z M57.8,14.8c0.2,0.3,0.5,0.6,0.8,0.8c0.5,0.3,2.5,1.1,3.2,1.5
		s1.7,0.8,2,0.9s1,0.4,0.9,0.1s-0.4-0.4-0.8-0.6s-1.5-0.7-2.1-0.9s-2.4-1-2.8-1.2S57.7,14.6,57.8,14.8z M58.4,19.3
		c0.2,0.1,0.5,0.3,0.9,0.6s2.8,1.1,3.3,1.3l2.5,0.9c0.4,0.1,1.3,0.5,1.2,0.2s-0.6-0.5-1.1-0.6l-2.6-0.9c-0.7-0.2-2.5-0.9-3-1
		C59.2,19.5,58.8,19.4,58.4,19.3z M59.7,24.6c0.4,0.2,0.9,0.3,1.3,0.4c0.5,0.1,1.8,0.5,3.1,0.7c1.3,0.2,2.1,0.4,2.8,0.5s1.2,0.2,1,0
		s-0.4-0.3-1.1-0.4s-1.7-0.2-2.8-0.4s-2.4-0.5-3-0.6C60.6,24.7,60.1,24.6,59.7,24.6L59.7,24.6z M62.4,29.9c0.3,0,1,0.1,1.6,0.1
		s2.9,0,3.9,0.1s2,0.1,1.7-0.1c-0.5-0.2-1.1-0.3-1.7-0.3c-0.7,0-3.3,0-3.8,0C63.5,29.6,62.9,29.7,62.4,29.9z M75.5,31.2
		c-1,0.1-1.9,0.3-2.8,0.5c-1.4,0.2-2.9,0.5-4.3,0.9c-1.4,0.4-2.7,0.9-3.9,1.6c-0.2,0.1-0.8,0.4-0.8,0.5c0.3,0.1,0.5,0.2,0.8,0.2
		c1.1,0.3,2.2,0.4,3.3,0.4c1.4,0,2.9-0.1,4.3-0.3c1-0.2,2-0.4,3-0.5c-0.5-0.1-1.1-0.2-1.6-0.3c-0.4-0.1-0.7-0.3-1-0.5
		c0.2-0.3,0.3-0.6,0.6-0.8c0.4-0.4,0.9-0.7,1.4-1C74.7,31.6,75.1,31.4,75.5,31.2L75.5,31.2z M65.8,34.5c0.3,0,0.9-0.1,1.4-0.1
		S70,34,70.4,34s1.5-0.1,1.3-0.3s-0.8-0.1-1.3-0.1s-2.7,0.4-3.2,0.5S65.5,34.6,65.8,34.5L65.8,34.5z M75.8,34.8
		c-0.8,0.3-1.5,0.5-2.3,0.8c-1.1,0.4-2.2,0.9-3.3,1.5c-0.8,0.4-1.5,0.9-2.1,1.5c-0.2,0.2-0.7,0.6-0.7,0.7s0.6,0.2,0.9,0.2
		c1.1,0,2.2,0,3.2-0.2c1.2-0.3,2.4-0.6,3.6-1c0.9-0.3,1.8-0.6,2.7-1c-0.7,0.1-1.3,0.1-2,0c-0.5,0-0.9-0.1-1.4-0.3
		c0.1-0.4,0.2-0.8,0.4-1.1C75.2,35.5,75.4,35.1,75.8,34.8L75.8,34.8z M68.9,38.9c0.5-0.1,1.1-0.2,1.6-0.4c0.4-0.2,1.7-0.7,2.1-0.8
		s1.4-0.4,1-0.5c-0.4-0.1-0.8,0-1.2,0.2c-0.3,0.2-1.8,0.7-2.1,0.8S68.6,39,68.9,38.9L68.9,38.9z M78.9,37.1c-0.6,0.3-1.2,0.6-1.7,1
		c-1.1,0.6-2.2,1.3-3.2,2c-0.8,0.6-1.5,1.3-2.1,2.1c-0.2,0.2-0.5,0.6-0.4,0.7c0.3,0.1,0.5,0.1,0.8,0.1c0.9,0,1.8-0.2,2.7-0.4
		c0.9-0.2,1.8-0.6,2.6-1c0.6-0.5,1.2-0.9,1.9-1.3c-0.4,0-0.7,0-1.1,0c-0.4,0-0.7-0.1-1.1-0.2c0.1-0.3,0.2-0.7,0.4-1
		c0.2-0.4,0.5-0.8,0.8-1.2C78.5,37.7,78.7,37.4,78.9,37.1L78.9,37.1z M72.8,42.2c0.3-0.1,0.9-0.3,1.3-0.5c0.6-0.2,1.3-0.5,1.9-0.8
		c0.4-0.2,0.7-0.4,0.5-0.5s-0.4,0.1-0.7,0.2s-1.4,0.6-1.8,0.8S72.5,42.3,72.8,42.2z M81.4,39.6c-0.5,0.2-1,0.4-1.5,0.6
		c-0.8,0.6-1.7,1.2-2.4,1.8c-0.8,0.7-1.6,1.5-2.2,2.4c-0.2,0.3-0.4,0.6-0.4,0.9c0.4,0.1,0.7,0.1,1.1,0c1-0.2,2-0.5,2.9-1.1
		c0.9-0.5,1.8-1.1,2.8-1.6c-0.6,0-1.1,0-1.7-0.1c0-0.4,0.1-0.7,0.3-1.1C80.6,40.8,81,40.2,81.4,39.6L81.4,39.6z M76.1,44.5
		c0.2-0.1,0.6-0.3,1-0.5l1.7-1c0.3-0.2,0.6-0.3,0.4-0.5c-0.2-0.1-0.5,0-0.7,0.2c-0.3,0.2-1.2,0.8-1.5,1S75.9,44.6,76.1,44.5z
		 M104.2,37.6c1-0.4,2-0.9,2.9-1.4c0.9-0.5,1.8-1.1,2.6-1.8c0.5-0.4,0.7-1.1,0.4-1.7c-0.3-1.3-0.2-2.7,0.2-4c0.5-1.7,1.6-3.1,3.2-4
		c1.8-1,3.7-1.6,5.7-1.9c1.2-0.2,2.4-0.3,3.6-0.4c0.5-0.1,0.6-0.4,0.6-0.1c0,0.4-0.1,0.7-0.4,1c-0.5,0.5-1.1,0.9-1.7,1.2
		c-1.1,0.4-2.2,0.7-3.3,0.8c-0.5,0-1,0-1.5,0.2c0.8,0.2,1.5,0.5,2.1,0.9c0.3,0.2,0.5,0.5,0.7,0.9c-0.2,0.3-0.5,0.4-0.9,0.5
		c-0.8,0.3-1.7,0.4-2.6,0.4c0.5,0.3,1,0.6,1.3,1.1c0.1,0.2,0.2,0.4,0.3,0.6c-0.3,0.3-0.6,0.5-0.9,0.6c-0.6,0.2-1.3,0.2-1.9,0.2
		c0.6,0.3,1.1,0.7,1.4,1.2c0.2,0.3,0.3,0.6,0.4,0.9c0,0.1-0.5,0.3-0.7,0.3c-0.6,0.1-1.2,0-1.8-0.2c0.4,0.5,0.8,1,1.2,1.5
		c0.2,0.3,0.3,0.6,0.3,1c-0.3,0.1-0.7,0.2-1,0.2c-0.6,0-1.3-0.2-1.8-0.5c0.4,0.4,0.7,0.9,0.9,1.3c0.1,0.3,0.3,0.8,0.2,0.9
		c-0.3,0.1-0.6,0.2-0.9,0.2c-0.7,0-1.4-0.2-2-0.6c0.3,0.5,0.5,1,0.7,1.6c0.1,0.3,0.1,0.6,0,0.9c-0.3,0.1-0.6,0.1-0.9,0
		c-0.6-0.2-1.3-0.4-1.9-0.8c0.3,0.4,0.5,0.9,0.7,1.5c0.1,0.3,0.1,0.7,0,1c-0.3,0-0.6,0-0.9-0.1c-0.5-0.1-1-0.3-1.5-0.6
		c0,0.2,0,0.4,0,0.6c-0.3-1.2-1-2.2-2-2.9c-0.2-0.1-0.4-0.3-0.5-0.4L104.2,37.6z M107.7,41.9c0.2,0.3,0.4,0.6,0.5,0.9
		c0.2,0.5,0.4,1.1,0.5,1.7c0,0.2,0,0.4,0,0.6c0,0.1-0.4,0-0.6-0.1c-0.4-0.1-0.7-0.3-1-0.5c0.1-1.2-0.1-2.3-0.5-3.4
		C107.1,41.3,107.4,41.6,107.7,41.9L107.7,41.9z M117.4,30.4c0.2,0.1,2.7,0.6,3.5,0.6c1.5,0.2,3-0.1,4.3-0.8
		c0.2-0.1,0.7-0.4,0.7-0.4c-0.2-0.2-0.4-0.4-0.7-0.5c-1-0.6-2.1-1-3.3-1.1c-0.4,0-0.7-0.1-1.1-0.2c0.4-0.1,0.9-0.1,1.4-0.1
		c1.8-0.2,3.7-0.3,5.3-1.2c0.2-0.1,0.4-0.3,0.6-0.4c0-0.1-0.4-0.4-0.7-0.5c-0.6-0.3-1.3-0.5-2-0.5c-0.9-0.1-1.7-0.1-2.6-0.1
		c-0.2,0-0.6,0-0.8-0.1c0.3-0.1,0.5-0.1,0.8-0.1c1.2-0.1,2.5-0.2,3.7-0.5c1.4-0.2,2.7-0.8,3.7-1.9c0.2-0.3,0.3-0.6,0.3-0.9
		c0-0.2-0.3,0.1-0.8,0.3c-0.8,0.2-1.7,0.3-2.5,0.4c-0.9,0.1-1.8,0-2.8,0c-0.3,0-0.8,0.2-0.9,0.4c-0.1,0.3-0.3,0.6-0.5,0.8
		c-0.6,0.5-1.3,1-2.1,1.4c-0.7,0.3-1.4,0.4-2.1,0.6c-0.2,0.1-0.5,0-0.8,0.1c0.4,0.3,0.8,0.6,1.2,0.9c0.2,0.2,0.3,0.4,0.3,0.7
		c-0.2,0.2-0.4,0.4-0.6,0.6c-0.4,0.2-0.9,0.4-1.4,0.5c-0.3,0.1-0.5,0.1-0.8,0.1c0.2,0.2,0.4,0.5,0.6,0.7c0.2,0.2,0.3,0.5,0.4,0.7
		C117.8,30.2,117.6,30.3,117.4,30.4L117.4,30.4z M124,23.2c0.7-0.1,1.5-0.1,2.2-0.1c0.5,0,1-0.1,1.5-0.1c0.2,0,0.6-0.2,0.5-0.1
		c-0.1,0.1-0.3,0.2-0.5,0.3c-0.5,0.1-1.1,0.2-1.6,0.2c-0.7,0-1.4,0-2.1,0.1c-0.2,0-0.6,0.1-0.5,0C123.7,23.4,123.8,23.3,124,23.2
		L124,23.2z M126.2,26.4c-0.2,0.1-0.4,0.2-0.6,0.2c-1,0.1-2,0.1-3,0.1c-0.6,0-1.2,0-1.8,0c-0.2,0-0.4,0-0.4-0.2s0.3-0.2,0.5-0.2
		c0.6,0,1.2,0,1.8,0c0.9,0,1.9,0.1,2.8,0.1C125.7,26.4,126.2,26.3,126.2,26.4L126.2,26.4z M123.8,29.8c-0.3,0.1-0.5,0.1-0.8,0.1
		c-1.2-0.1-2.3-0.2-3.5-0.3c-0.2,0-0.7-0.1-0.7-0.2s0.5-0.2,0.7-0.1c1.1,0.1,2.3,0.3,3.4,0.4C123.3,29.7,124.1,29.8,123.8,29.8
		L123.8,29.8z M117.3,30.7c-0.3,0.1-0.7,0.2-1,0.2c-0.2,0-0.5,0.1-0.7,0.1c0.2,0.2,0.4,0.4,0.6,0.6c0.3,0.3,0.5,0.7,0.6,1.1
		c0,0.1-0.2,0.3-0.4,0.5c0.7,0.2,1.4,0.3,2.1,0.5c1.2,0.3,2.5,0.3,3.8,0.2c0.4,0,0.8-0.1,1.2-0.3c0-0.1-0.5-0.5-0.8-0.8
		c-0.6-0.4-1.2-0.8-1.9-1.1C119.6,31.2,118.4,30.9,117.3,30.7L117.3,30.7z M122,33.2c-0.3,0-0.5,0-0.8,0c-1-0.2-2-0.4-3-0.6
		c-0.2,0-0.6-0.1-0.5-0.3s0.4-0.1,0.6,0c1,0.2,2,0.5,3,0.7C121.5,33,122.2,33.2,122,33.2L122,33.2z M115,33.6c0.3,0,0.7-0.1,1-0.2
		c0.8,0.3,1.5,0.5,2.2,0.9c0.9,0.5,1.7,1.1,2.3,1.9c0.2,0.2,0.5,0.5,0.4,0.6s-0.4,0.2-0.7,0.1c-1,0-2-0.1-3-0.3
		c-0.7-0.2-1.4-0.6-2-0.9c0.2,0,0.3-0.1,0.4-0.2c0-0.2,0-0.4-0.1-0.5C115.4,34.6,115.2,34.1,115,33.6z M119.8,36.5
		c-0.3,0-0.5-0.1-0.8-0.2c-0.9-0.3-1.7-0.7-2.5-1.1c-0.2-0.1-0.6-0.2-0.5-0.4s0.4,0,0.7,0c0.9,0.4,1.7,0.7,2.5,1.1
		C119.4,36.1,120.1,36.4,119.8,36.5L119.8,36.5z M113.5,35.9c0.5,0.1,0.9,0.1,1.4,0.1c0.7,0.3,1.3,0.7,1.9,1.2
		c0.6,0.5,1.1,1.1,1.4,1.9c0.1,0.2,0.2,0.5,0.2,0.5c-0.2,0.1-0.3,0.1-0.5,0.1c-0.8,0-1.7-0.2-2.5-0.5c-0.9-0.3-1.7-0.8-2.6-1.2
		c0.2,0,0.4,0,0.6-0.1c0.1,0,0.3-0.1,0.4-0.1c0-0.2,0-0.4-0.1-0.6C113.8,36.7,113.6,36.3,113.5,35.9L113.5,35.9z M117.5,39.1
		c0.1,0.1-0.4-0.1-0.5-0.2c-0.7-0.4-1.4-0.7-2.1-1.2c-0.1-0.1-0.3-0.2-0.3-0.3s0.4,0,0.6,0.1c0.7,0.4,1.3,0.8,1.9,1.2
		C117.2,38.8,117.3,38.9,117.5,39.1L117.5,39.1z M111.4,37.7c0.3,0.1,0.7,0.2,1,0.3c0.6,0.5,1.2,1,1.6,1.6c0.4,0.6,0.8,1.3,1,2
		c0.1,0.2,0.2,0.4,0.2,0.7c0,0.1-0.5,0-0.7-0.1c-0.5-0.1-1-0.3-1.5-0.6c-0.6-0.3-1.1-0.6-1.7-1c-0.3-0.2-0.6-0.5-1-0.7
		c0.2,0,0.4,0,0.7,0c0.2,0,0.4,0,0.6-0.1c0-0.3,0-0.6,0-0.9C111.5,38.4,111.4,38,111.4,37.7L111.4,37.7z M114.4,41.3
		c-0.1-0.2-0.2-0.3-0.3-0.4c-0.4-0.4-0.9-0.8-1.4-1.2c-0.2-0.1-0.4-0.4-0.5-0.3c0,0.2,0.1,0.5,0.3,0.6c0.5,0.3,0.9,0.7,1.4,1
		C114,41.2,114.4,41.5,114.4,41.3L114.4,41.3z M109.4,39.4c0.1,0.4,0.2,0.8,0.3,1.2c0,0.3,0,0.5-0.1,0.7c-0.2,0-0.4,0-0.7,0
		c-0.3,0-0.6,0-0.9-0.1c0.2,0.3,0.4,0.5,0.6,0.7c0.5,0.5,1,1,1.7,1.4c0.4,0.2,0.9,0.4,1.3,0.5c0.1,0.1,0.3,0.1,0.5,0.1
		c0-0.2,0-0.3-0.1-0.5c-0.1-0.7-0.4-1.3-0.7-1.9c-0.3-0.6-0.8-1.2-1.2-1.8C109.8,39.7,109.5,39.6,109.4,39.4L109.4,39.4z
		 M111.4,43.4c0.1,0.1-0.3-0.2-0.4-0.3c-0.3-0.3-0.7-0.7-1-1.1c-0.1-0.1-0.2-0.3-0.1-0.4s0.3,0,0.4,0.2c0.3,0.4,0.5,0.8,0.8,1.2
		C111.2,43.1,111.3,43.2,111.4,43.4L111.4,43.4z M131.1,22.1c1-0.4,2-0.7,3-0.9c1.3-0.3,2.6-0.6,3.9-0.8c0.9-0.1,1.9-0.1,2.8,0.1
		c0.2,0,0.6,0.1,0.7,0.2s-0.3,0.5-0.5,0.7c-0.4,0.4-0.9,0.7-1.5,1c-0.9,0.5-1.9,0.9-2.9,1.1c-1.6,0.5-3.3,0.8-5,1.2l-2.2,0.5
		c-0.2,0-0.7,0.1-0.5,0.2c0.3,0,0.7,0,1-0.1c1.1-0.1,2.2-0.3,3.2-0.5c1.9-0.4,4-0.3,5.9,0.2c0.3,0.1,0.6,0.2,0.9,0.3
		c0,0.1-0.5,0.5-0.7,0.6c-0.9,0.5-1.8,1-2.8,1.4c-1.6,0.5-3.3,0.9-5,1.1c-1.6,0.2-3.2,0.2-4.8,0.2c-0.2,0-0.8-0.1-0.6,0
		c0.2,0.1,0.4,0.2,0.6,0.1c1.2,0.1,2.3,0.2,3.5,0.2c1.5,0,2.9,0.2,4.4,0.5c0.8,0.2,1.7,0.4,2.4,0.8c0.2,0.1,0.7,0.2,0.7,0.3
		s-0.5,0.3-0.8,0.4c-1.1,0.4-2.1,0.7-3.3,0.8c-1.2,0.2-2.3,0.3-3.5,0.3c-1.9,0-3.7-0.1-5.6-0.3c-0.3,0-0.7,0-1,0
		c-0.3,0.1,0.7,0.2,1,0.2c1.6,0.3,3.2,0.6,4.8,1c1.5,0.5,2.9,1.1,4.2,1.8c0.2,0.1,0.7,0.4,0.7,0.5s-0.7,0.2-1.1,0.3
		c-1.6,0.3-3.2,0.3-4.9,0.1c-1.8-0.2-3.5-0.5-5.2-0.9c-0.7-0.2-1.5-0.4-2.1-0.4c0.6-0.1,1.2-0.2,1.8-0.3c0.5-0.1,0.9-0.2,1.4-0.5
		c-0.1-0.3-0.2-0.5-0.4-0.7c-0.6-0.6-1.3-1.1-2.1-1.5c0.8,0,1.7-0.1,2.5-0.3c0.7-0.2,1.4-0.5,2-0.8c0.2-0.1,0.4-0.3,0.5-0.5
		c-0.1-0.3-0.4-0.5-0.6-0.7c-0.6-0.4-1.3-0.6-1.8-0.9c0.6-0.2,1.6-0.2,2.3-0.5c0.7-0.3,1.4-0.6,2.1-1.1c0.2-0.1,0.3-0.3,0.4-0.4
		c0.1-0.1-0.3-0.4-0.5-0.5c-0.5-0.3-1-0.5-1.5-0.7c1.1-0.3,2.2-0.8,3.2-1.4C130.6,23.2,130.9,22.7,131.1,22.1L131.1,22.1z
		 M132.1,35.2c-0.3,0-1-0.1-1.6-0.2s-2.9-0.5-3.8-0.6s-1.9-0.2-1.6-0.4c0.6-0.1,1.2-0.1,1.7,0c0.7,0.1,3.2,0.6,3.7,0.7
		C131,34.8,131.6,35,132.1,35.2L132.1,35.2z M139.3,21.2c-0.3,0.3-0.6,0.5-1,0.6c-0.5,0.2-2.6,0.7-3.4,0.9l-2.1,0.6
		c-0.4,0.1-1,0.2-0.9-0.1s0.4-0.3,0.9-0.4s1.6-0.4,2.2-0.5s2.6-0.5,3-0.6S139.5,21.1,139.3,21.2L139.3,21.2z M137.9,25.6
		c-0.2,0.1-0.5,0.3-1,0.4s-2.9,0.6-3.5,0.7l-2.7,0.4c-0.4,0.1-1.4,0.3-1.2,0s0.6-0.4,1.2-0.4l2.7-0.4c0.7-0.1,2.6-0.4,3.2-0.5
		C137,25.6,137.4,25.6,137.9,25.6L137.9,25.6z M135.7,30.6c-0.2,0-0.8,0.1-1.4,0.1s-1.8,0.1-3.2,0.1h-2.8c-0.7,0-1.2,0-1-0.2
		s0.5-0.2,1.1-0.2s1.7,0.1,2.8,0.1s2.5,0,3.1,0S135.9,30.5,135.7,30.6L135.7,30.6z M118.9,34.2l2.7,1c1.4,0.5,2.8,1,4.1,1.6
		c1.3,0.6,2.5,1.4,3.6,2.3c0.2,0.2,0.7,0.5,0.7,0.7c-0.3,0.1-0.6,0.1-0.9,0.1c-1.1,0.1-2.2,0-3.3-0.2c-1.4-0.2-2.8-0.6-4.2-1.1
		c-1-0.3-1.9-0.7-2.9-1c0.5,0.1,1.1,0.1,1.7,0c0.4-0.1,0.7-0.2,1.1-0.3c-0.1-0.3-0.2-0.6-0.4-0.9c-0.3-0.4-0.7-0.8-1.2-1.2
		c-0.3-0.3-0.7-0.6-1-0.9L118.9,34.2z M127.9,39.1c-0.3-0.1-0.9-0.2-1.3-0.4s-2.7-0.8-3.1-1s-1.5-0.3-1.2-0.5s0.8,0,1.3,0.2
		s2.6,0.8,3,1S128.1,39.2,127.9,39.1L127.9,39.1z M118,37.6c0.7,0.4,1.4,0.8,2.1,1.2c1,0.6,2,1.3,2.9,2c0.7,0.6,1.3,1.2,1.8,1.9
		c0.2,0.3,0.6,0.7,0.6,0.8s-0.6,0.1-0.9,0.1c-1.1-0.2-2.1-0.4-3.1-0.8c-1.2-0.5-2.3-1-3.4-1.6c-0.9-0.5-1.7-1-2.5-1.5
		c0.6,0.2,1.3,0.3,1.9,0.4c0.5,0,0.9,0,1.4-0.1c0-0.4-0.1-0.8-0.2-1.2C118.4,38.4,118.2,38,118,37.6L118,37.6z M124,42.9
		c-0.5-0.2-1-0.4-1.5-0.7c-0.4-0.2-1.5-1-2-1.2s-1.3-0.6-0.9-0.7c0.4,0,0.8,0.1,1.1,0.4c0.2,0.2,1.6,1,1.9,1.2S124.2,43,124,42.9
		L124,42.9z M114.5,39.4c0.5,0.5,1,0.8,1.5,1.3c1,0.8,1.9,1.6,2.8,2.5c0.7,0.7,1.2,1.6,1.7,2.4c0.1,0.2,0.4,0.7,0.3,0.7
		c-0.3,0.1-0.5,0.1-0.8,0c-0.9-0.2-1.8-0.5-2.6-0.8c-0.8-0.4-1.6-0.9-2.3-1.5c-0.5-0.6-1.1-1.1-1.6-1.7c0.4,0.1,0.7,0.2,1.1,0.2
		c0.4,0,0.7,0,1.1,0c0-0.3-0.1-0.7-0.2-1c-0.1-0.5-0.3-0.9-0.5-1.3C114.9,39.9,114.7,39.6,114.5,39.4L114.5,39.4z M119.6,45.5
		c-0.3-0.1-0.8-0.5-1.2-0.7c-0.6-0.3-1.2-0.7-1.7-1.2c-0.4-0.3-0.6-0.5-0.4-0.6s0.4,0.2,0.7,0.4s1.3,0.9,1.6,1.2
		S119.9,45.6,119.6,45.5L119.6,45.5z M111.6,41.4c0.4,0.3,0.9,0.6,1.3,0.8c0.6,0.7,1.4,1.5,2.1,2.2c0.7,0.8,1.3,1.8,1.7,2.8
		c0.1,0.3,0.3,0.9,0.3,1c-0.4,0-0.7-0.1-1.1-0.2c-1-0.3-1.9-0.9-2.7-1.6c-0.8-0.7-1.6-1.4-2.4-2.1c0.5,0.1,1,0.2,1.6,0.2
		c0-0.4,0-0.7-0.1-1.1C112.1,42.8,111.9,42.1,111.6,41.4L111.6,41.4z M115.9,47.1c-0.2-0.1-0.5-0.4-0.9-0.7l-1.5-1.3
		c-0.3-0.2-0.5-0.5-0.3-0.5s0.4,0,0.6,0.3s1,1,1.2,1.3S116.1,47.2,115.9,47.1L115.9,47.1z M108.8,43.1c0.4,0.4,0.7,0.7,1.2,1
		c0.6,0.8,1.3,1.5,1.9,2.3c0.5,0.7,0.9,1.5,1.1,2.4c0.1,0.3,0.1,0.6,0.1,0.9c-0.3,0-0.6-0.1-0.9-0.2c-0.9-0.5-1.7-1.1-2.4-1.7
		c-0.8-0.7-1.4-1.6-2.2-2.3c0.4,0.2,0.9,0.3,1.3,0.4c0.1-0.4,0.1-0.8,0.1-1.2C109,44.1,108.9,43.6,108.8,43.1z M112.4,48.7
		c-0.3-0.2-0.6-0.4-0.8-0.6c-0.3-0.3-1.3-1.5-1.5-1.8s-0.2-0.3-0.1-0.4s0.3,0.1,0.5,0.3s1.4,1.5,1.6,1.8S112.6,48.8,112.4,48.7
		L112.4,48.7z M100.7,21.2c-0.1-0.4-0.5-0.7-0.9-0.7c-0.4-0.1-0.9-0.1-1.3,0.1L97,21c-0.5,0.1-1,0.4-1.4,0.7c-0.4,0.4-0.7,0.9-1,1.4
		c-0.2,0.5-0.5,1-0.8,1.6c-0.3,0.7-0.7,1.4-1.2,2.1c-0.4,0.4-0.8,0.9-1.1,1.4c-0.3,0.5-0.4,1.1-0.5,1.6c0,0.4-0.2,1.2-0.2,1.5
		c-0.1,0.2-0.1,0.4,0,0.5c0.1,0.6,0.1,1.1,0,1.7c-0.1,0.5-0.1,1.2-0.1,1.7s0,0.8,0.1,0.5c0.1-0.4,0.3-0.9,0.4-1.3
		c0.2-0.3,0.3-0.6,0.4-0.9c0-0.2,0.2-0.1,0.3,0.2c0.1,0.3,0,0.7-0.2,1c-0.2,0.3-0.6,0.8-0.5,1.1s0.1,0.3,0.3,0.2
		c0.3-0.1,0.5-0.3,0.7-0.5c0.2-0.4,0.3-0.8,0.4-1.2c0.1-0.3,0-0.8,0.2-0.7c0.2,0.2,0.3,0.4,0.3,0.7c0,0.2,0,0.5,0,0.7
		c0,0.2,0,0.3,0.2,0.2c0.2-0.1,0.3-0.3,0.4-0.5c0.1-0.2,0.3-0.7,0.4-1c0.1-0.2,0.1-0.5,0-0.7c-0.2-0.5-0.2-1.1-0.3-1.6
		c0-0.5-0.1-2-0.2-2.4s0-0.3-0.2,0s-0.2,0.4-0.2,0.5s-0.1,0.2-0.2,0c-0.1-0.2-0.1-0.5,0-0.7c0.1-0.3,0.3-0.5,0.5-0.7
		c0.3-0.3,0.5-0.6,0.7-1c0.2-0.4,0.7-1.4,0.9-1.6c0.1-0.2,0.3-0.4,0.4-0.6c0.1-0.1,0.1-0.3,0.2-0.6s0.4-0.6,0.7-0.5s0.2,0.1,0,0.3
		s-0.3,0.2-0.3,0.4s0.1,0.1,0.3,0c0.3-0.2,0.6-0.3,0.9-0.4c0.2,0,0.5-0.1,0.7-0.2c0.2-0.1,0.1-0.3,0.4-0.5s0.3-0.1,0.5-0.1
		s0.1,0.2,0,0.3c-0.2,0.1-0.3,0.2-0.4,0.4c-0.1,0.1-0.5,0.4-0.1,0.3c0.4,0,0.9-0.2,1.3-0.4c0.2-0.2,0.5-0.7,0.7-1s0.2-0.7,0.5-1
		C100.9,21.6,100.8,21.3,100.7,21.2L100.7,21.2z M93,33.3c0-0.3,0-0.6,0-0.9c-0.1-0.4-0.1-0.9-0.1-1.3c0-0.4,0-0.7,0.1-1.1
		c0-0.2,0-0.2-0.1,0c-0.2,0.2-0.4,0.4-0.5,0.6c-0.1,0.3-0.1,0.7,0,1c0.1,0.3,0.2,0.7,0.3,1C92.8,33,92.9,33.5,93,33.3z M103.1,30.3
		c-0.1,0.2-0.1,0.5-0.3,0.7c-0.1,0.3-0.2,0.7-0.2,1c0,0.5-0.1,1-0.1,1.4c-0.1,0.3-0.2,0.6-0.3,0.8c-0.2,0.2-0.3,0.4-0.4,0.6
		c-0.1,0.2,0,0.3,0.2,0s0.4-0.3,0.5-0.4c0.2-0.2,0.4-0.5,0.5-0.8c0.1-0.4,0.1-0.8,0.1-1.2c0-0.3,0-0.7,0-1c0.1-0.3,0.1-0.5,0.2-0.8
		C103.2,30.4,103.1,30.1,103.1,30.3L103.1,30.3z M101.4,21.3c0.4-0.2,0.9-0.1,1.2,0.2c0.2,0.3,0.7,0.6,1,1c0.3,0.4,0.6,0.9,0.8,1.4
		c0.1,0.6,0.2,1.2,0.2,1.9c0,0.5-0.1,1.6-0.2,2.2c0,0.6,0,1.3,0,1.9c0.1,0.7,0.1,1.3,0,2c-0.1,0.6-0.4,1.2-0.7,1.7
		c-0.3,0.4-0.6,0.8-0.9,1.1c-0.4,0.4-0.7,0.9-1.1,1.4c-0.1,0.2-0.3,0.4-0.4,0.6c-0.2,0.2-0.6,0.4-0.7,0.6s-0.1,0.1-0.3,0
		s-0.3,0-0.3-0.3c0-0.4,0.1-0.8,0.2-1.2c0.1-0.2,0.3-0.7,0.5-1s0.1-0.3,0.1-0.4s-0.1,0-0.2,0.2c-0.2,0.2-0.3,0.4-0.5,0.5
		c-0.2,0.2-0.4,0.5-0.5,0.8c-0.1,0.3,0,0.6,0.1,0.9c0.1,0.2,0.1,0.3-0.1,0.2c-0.2-0.1-0.3-0.2-0.5-0.3c-0.2-0.1-0.3-0.2-0.4-0.4
		c0-0.2,0-0.3,0-0.5c0-0.2,0.1-0.4,0.1-0.5s0.1-0.2,0.3-0.3c0.3-0.2,0.5-0.4,0.7-0.6c0.2-0.2,0.7-0.9,0.9-1.1c0.3-0.3,0.5-0.6,0.8-1
		c0.2-0.3,0.5-0.9,0.7-1.2c0.2-0.5,0.4-1,0.6-1.5c0.2-0.4,0.3-1,0.4-1.4s0.2-0.5,0-0.9s-0.6-1.1-0.8-1.4c-0.3-0.5-0.5-1-0.5-1.5
		c0-0.5-0.1-0.3-0.2-0.1s0,0.4-0.1,0.3c-0.3-0.3-0.5-0.7-0.6-1.1c0-0.4-0.2-0.5-0.1-0.8c0-0.2,0.1-0.5,0.1-0.7
		c0-0.2,0.1-0.3,0.2-0.5C101.2,21.4,101.3,21.4,101.4,21.3L101.4,21.3z M82.3,41c0.2-0.7,0.6-1.4,1.1-2c0.8-0.8,1.7-1.5,2.7-2.1
		c0.7-0.3,1-0.4,1.1-0.8c0-0.5,0.2-1,0.4-1.4c0.3-0.3,0.6-0.5,0.9-0.2c0.6,0.6,1,1.3,1.4,2c0.5,1,0.8,2.1,1.1,3.2
		c0.2,1.1,0.3,2.3,0.2,3.5c0,1-0.3,1.9-0.9,2.7c-0.5,0.5-1.1,0.9-1.8,1.1c-0.6,0.2-1.3,0.3-1.9,0.1c-0.6-0.1-1.1-0.6-1.2-1.1
		c-0.3-1.1-0.8-2.1-1.4-3c-0.3-0.5-0.8-0.8-1.3-1c-0.4-0.1-0.2-0.2-0.2-0.4C82.2,41.4,82.2,41.2,82.3,41L82.3,41z M87.6,36.6
		c0.5,0.4,1,0.8,1.3,1.4c0.4,0.6,0.7,1.3,1,1.9c0.2,0.8,0.3,1.6,0.4,2.5c0,0.5,0,0.4-0.2-0.1s-0.3-1.5-0.6-2.2c-0.3-0.7-0.6-1.4-1-2
		c-0.3-0.4-0.5-0.8-0.8-1.2C87.4,36.6,87.4,36.5,87.6,36.6L87.6,36.6z M94.8,34.1c0.3,0.3,0.6,0.5,0.9,0.7c0.4,0.3,1,0.5,1.5,0.6
		c0.3,0.1,0.7,0,1-0.2c0.2-0.1,0.2-0.1,0.1,0.1c-0.1,0.4-0.1,0.8-0.1,1.2c0,0.3,0.1,0.3-0.1,0.5c-0.3,0.2-0.6,0.4-1,0.5
		c-0.3,0.1-0.7,0.1-1,0.1c-0.5-0.1-0.9-0.2-1.3-0.5c-0.3-0.2-0.7-0.5-0.9-0.8c-0.1-0.1-0.2-0.3-0.3-0.5c-0.1-0.1-0.1-0.1,0.1-0.2
		c0.2-0.1,0.4-0.4,0.5-0.6c0.2-0.3,0.3-0.7,0.4-1C94.6,33.9,94.6,33.9,94.8,34.1L94.8,34.1z M93.1,36.3c0.2,0.4,0.4,0.7,0.7,1
		c0.3,0.3,0.8,0.6,1.2,0.7c0.6,0.2,1.2,0.3,1.8,0.2c0.5,0,1-0.2,1.4-0.5c0.2-0.2,0.3-0.3,0.5-0.5c0.1-0.2,0.1-0.2,0.3,0
		s0.6,0.3,0.8,0.5s0.3,0.1,0.1,0.5s-0.5,0.9-0.7,1.2s0,0.3-0.4,0.5c-0.5,0.3-1,0.5-1.6,0.5c-0.7,0.1-1.5,0-2.2-0.1
		c-0.8-0.2-1.5-0.5-2.3-0.9c-0.5-0.3-0.9-0.6-1.3-1c-0.2-0.1-0.3-0.3-0.4-0.5c-0.1-0.2-0.3-0.6-0.4-0.8s-0.2-0.2,0.1-0.2
		c0.3-0.1,0.7-0.2,1-0.3c0.3-0.1,0.6-0.2,0.9-0.3S93,36,93.1,36.3L93.1,36.3z M91.6,39c0.2,0.1,1.3,0.8,1.8,1
		c0.7,0.3,1.4,0.6,2.2,0.7c1,0.1,1.9,0,2.8-0.2c0.5-0.2,0.3-0.2,0.2,0.3s-0.2,1.1-0.2,1.5s0,0.4-0.3,0.6c-0.4,0.2-0.8,0.4-1.3,0.6
		c-0.6,0.1-1.2,0.2-1.8,0.1c-0.6-0.1-1.2-0.4-1.8-0.7c-0.4-0.3-0.8-0.6-1.2-1c-0.2-0.2-0.3-0.2-0.3-0.6s-0.2-1.7-0.2-2
		S91.5,38.9,91.6,39L91.6,39z M102.6,36.5c0.4-0.2,0.7-0.2,0.9,0.1c0.2,0.2,0.2,0.5,0.2,0.7c0,0.3,0.1,0.6,0.3,0.8
		c0.2,0.2,0.6,0.5,0.9,0.8c0.4,0.5,0.8,1,1.1,1.6c0.3,0.7,0.5,1.5,0.6,2.4c0.1,0.8,0.1,1.2,0.1,1.8s0.1,0.5-0.4,0.6
		c-0.8,0.2-1.5,0.6-2.1,1.2c-0.7,0.7-1.2,1.7-1.6,1.9c-0.4,0.3-1,0.3-1.4,0.2c-0.7-0.4-1.2-0.9-1.5-1.6c-0.5-1-0.7-2.1-0.7-3.2
		c0-1.2,0.3-2.4,0.8-3.5c0.4-0.9,0.9-1.7,1.6-2.4C101.6,37.1,102.1,36.7,102.6,36.5L102.6,36.5z M103.5,38.1
		c-0.1,0.2-0.2,0.4-0.4,0.5c-0.4,0.3-0.7,0.6-1,1c-0.4,0.6-0.8,1.2-1.1,1.9c-0.2,0.5-0.3,0.6-0.4,1.1s-0.2,0.8-0.2,1
		s-0.2,0.3-0.2-0.1c0-0.6,0.1-1.1,0.2-1.6c0.2-0.6,0.4-1.3,0.8-1.9c0.3-0.6,0.8-1.1,1.2-1.6C102.8,38.2,103.6,37.8,103.5,38.1
		L103.5,38.1z M82.3,42.6c0.5,0.2,0.9,0.5,1.3,0.9c0.3,0.6,0.7,1.3,0.9,1.9c0.2,0.5,0.3,0.9,0.5,1.1s0.2,0.3,0.1,0.6
		c-0.2,0.3-0.4,0.7-0.7,1c-0.3,0.3-0.8,1.1-1.1,1.4l-1.5,1.6c-0.6,0.6-1.3,1.2-2,1.7c-0.4,0.2-0.3,0.1-0.7,0
		c-0.6-0.2-1.1-0.5-1.6-0.8c-0.5-0.4-0.9-0.8-1.3-1.4c-0.2-0.3-0.1-0.2,0.1-0.5s0.7-1,1-1.5s0.8-1.2,1.3-1.9s1.3-1.7,1.8-2.3
		s1.2-1.3,1.5-1.7S82.1,42.6,82.3,42.6L82.3,42.6z M79,51.4c0.1-0.1,1.2-1,1.5-1.3s1.1-1.2,1.6-1.7c0.4-0.5,0.8-1,1.2-1.6
		c0.2-0.3,0.2-0.4-0.2-0.1S82.3,47.6,82,48s-0.9,1-1.4,1.6s-0.9,0.9-1.2,1.3S78.9,51.5,79,51.4L79,51.4z M103,48.6
		c0.4-0.4,0.7-0.9,1-1.5c0.4-0.5,0.8-1,1.3-1.3c0.3-0.2,0.6-0.3,0.9-0.4c0.2-0.1,0.4,0,0.4,0s0.1,0.3,0.2,0.5
		c0.1,0.4,0.3,1.2,0.4,1.7s0.5,1.8,0.6,2.2s0.2,0.9,0.3,1.3s0.1,0.5,0.1,0.6c0,0.1-0.1,0.2-0.1,0.4c-0.2,0.5-0.5,1-0.9,1.4
		c-0.4,0.4-0.8,0.8-1.2,1.2c-0.1,0.1-0.2,0.2-0.4,0.3c-0.2-0.2-0.3-0.3-0.4-0.5c-0.4-0.4-0.7-1.4-1.2-2.4c-0.5-0.9-0.9-1.9-1.2-2.9
		c0-0.1-0.1-0.2-0.1-0.3C102.8,48.7,102.9,48.6,103,48.6L103,48.6z M104,48.4l0.5,1.4c0.2,0.5,0.6,1.5,0.8,2s0.3,0.7,0.4,1
		s-0.1,0.3-0.2,0.1s-0.6-1.1-0.8-1.6s-0.5-1.2-0.6-1.7c-0.1-0.4-0.2-0.7-0.3-1.1C103.8,48.3,104,48.3,104,48.4L104,48.4z
		 M109.7,51.4c0.3,0.1,0.5,0.5,0.5,0.8c-0.1,0.7-0.1,1.5,0.1,2.2c0.2,0.7,0.4,1.3,0.7,2c0.2,0.4,0.5,0.7,0.3,0.8s-0.2,0.1-0.4,0
		s-0.2,0-0.4,0.2c-0.6,0.4-1.2,0.8-1.8,1.2c-0.9,0.4-1.2,0.3-1.6-0.2c-0.4-0.6-0.8-1.3-1-2c-0.1-0.3-0.1-0.4-0.3-0.5
		c-0.1,0-0.2,0-0.3-0.1c-0.1-0.1,0.1-0.2,0.3-0.3c0.7-0.4,1.2-1,1.8-1.6c0.5-0.6,0.9-1.3,1.2-2C108.8,51.4,109.3,51.2,109.7,51.4
		L109.7,51.4z M108,58.2c0.2-0.4,0.3-0.7,0.4-1.1c0.2-0.5,0.3-1,0.3-1.5c0-0.5-0.1-0.6-0.2-0.2s-0.4,1.1-0.6,1.5s-0.2,0.8-0.3,1.1
		S107.8,58.5,108,58.2L108,58.2z M110.5,52c0,0,1.2-0.5,1.6-0.7s1.4-0.6,2-0.8s1.9-0.6,2.7-0.9l1.3-0.5c0.1-0.1,0.3-0.1,0.4-0.1
		c0.1,0.3,0.2,0.7,0.3,1c0.2,0.4,0.4,0.7,0.7,1.1c0,0-0.1,0.1-0.4,0.3s-1.3,1.1-1.7,1.4s-1.6,1.1-2,1.4s-1.7,1.1-2.2,1.4
		s-0.9,0.5-1.2,0.6c-0.2,0.1-0.3,0.2-0.5,0.2c-0.2-0.6-0.5-1.2-0.6-1.8c-0.2-0.6-0.3-1.3-0.3-1.9C110.5,52.6,110.5,52.3,110.5,52
		L110.5,52z M91.7,42.3c0.2,0.1,0.5,0.3,1.1,0.8c0.7,0.5,1.6,0.8,2.4,1c0.8,0,1.7-0.1,2.5-0.3c0.2-0.1,0.5-0.2,0.7-0.4
		c0.1,0.3,0.1,0.7,0.1,1c0.1,0.8,0.3,1.5,0.6,2.2c0.3,0.7,0.8,1.4,1.4,1.9c0.3,0.2,0.6,0.4,1,0.5c0.1,0,0,0.2-0.1,0.7
		s-0.6,2.2-0.8,3s-0.8,2-1,2.5c-0.1,0.3-0.2,0.6-0.3,0.8c-0.4,0.3-1.3,0.9-2,1.3s-1.4,0.8-1.9,1.1s-0.8,0.4-1.2,0.6
		c-0.2,0.1-0.4,0.2-0.6,0.2c-0.7-0.3-1.4-0.6-2.1-1c-0.7-0.4-1.5-0.8-2.2-1.3c-0.8-0.5-1.3-1-1.7-1.3s-0.7-0.6-0.8-0.7
		c-0.1-0.5-0.2-1.6-0.3-2.6c-0.2-1.1-0.2-2.1-0.3-3.2c0-0.6-0.1-1.8,0-1.8c0.2,0.1,0.4,0.1,0.6,0.2c0.6,0.1,1.3,0,1.8-0.2
		c0.8-0.3,1.5-0.8,2.1-1.4c0.5-0.5,0.7-1.2,0.8-1.9c0.1-0.7,0.2-1.3,0.2-1.4C91.6,42.6,91.6,42.5,91.7,42.3L91.7,42.3z M93.9,58
		c0.2-0.5,0.4-1.4,0.5-2s0.3-1.8,0.4-2.4s0.3-1.9,0.4-2.7s0.2-1.5,0.3-2.5s0.2-1.5,0.2-2.1c0-0.3,0-0.7,0-1c0-0.4-0.2-0.7-0.3-0.1
		s-0.2,1.4-0.2,2s-0.3,2.5-0.5,3.6s-0.3,1.8-0.4,2.8s-0.3,2-0.4,2.5s-0.1,0.8-0.2,1.1S93.8,58.3,93.9,58L93.9,58z M99.5,56.3
		c0,0,0.3,0.6,0.4,0.9c0.2,0.2,0.2,0.4,0.3,0.7c0,0.2-0.3,0.4-0.5,0.6c-0.4,0.4-1.8,1.5-2.4,2s-2.7,2.2-3.5,2.8c0-0.3,0-0.7,0-1
		c0-0.5,0-1.7,0-2.1s0-0.5,0-0.5c0.8-0.3,1.5-0.7,2.3-1.1c0.7-0.5,2.2-1.3,2.6-1.6S99.3,56.5,99.5,56.3L99.5,56.3z M86.6,55.2
		c0.1,0.1,0.7,0.7,1,1c0.7,0.6,1.5,1.2,2.2,1.7c0.8,0.5,1.6,0.9,2.4,1.3l1,0.5c0,0.3,0,0.5,0,0.8c0,0.3-0.1,1.7-0.1,1.9
		s0,0.8-0.1,0.8c-0.3-0.2-0.7-0.6-1.1-1s-1.3-1.2-1.9-1.6s-1.5-1.2-2-1.6c-0.7-0.5-1.4-1-2.2-1.4c-0.4-0.2-0.7-0.4-0.6-0.5
		c0.1-0.5,0.4-0.9,0.8-1.2C86.3,55.7,86.6,55.2,86.6,55.2L86.6,55.2z M85.2,57.8c0.6,0.3,1.2,0.5,1.8,0.9c0.7,0.5,1.4,1,2.1,1.6
		c0.5,0.4,1.6,1.3,2,1.8l1.3,1.3c0.1,0.1-0.3,0.3-0.6,0.5c-0.3,0.2-0.7,0.4-1.1,0.4c-0.5-0.1-1-0.2-1.4-0.3
		c-0.8-0.2-1.6-0.5-2.3-0.9c-0.7-0.4-1.4-0.7-2-1.2c-0.4-0.3-0.7-0.5-1-0.8c-0.2-0.2,0.3-0.6,0.4-0.9c0.1-0.5,0.3-1,0.5-1.4
		C85.1,58.4,85.3,57.8,85.2,57.8L85.2,57.8z M84,61.7c0.3,0.3,1,0.7,1.5,1.1c0.9,0.5,1.9,1,2.8,1.4c0.9,0.3,1.9,0.7,2.5,0.8
		c-0.1,0.3-0.2,0.6-0.3,0.9c-0.1,0.3-0.3,0.6-0.5,0.8c-0.3,0.2-0.6,0.3-0.9,0.2c-0.8-0.1-1.5-0.2-2.3-0.3c-0.7-0.1-1.5-0.3-2.1-0.6
		c-0.7-0.3-1.4-0.6-2-1c-0.1-0.1-0.1-0.2,0.1-0.4c0.3-0.5,0.5-1,0.7-1.5c0.1-0.3,0.2-0.7,0.3-0.9C83.8,61.9,83.9,61.8,84,61.7
		L84,61.7z M82.7,65.3c0.1,0.1,0.9,0.5,1.3,0.7c0.7,0.3,1.4,0.5,2.1,0.7c0.7,0.2,1.5,0.3,2.3,0.4c0.6,0.1,1,0.2,1.5,0.2
		c-0.1,0.2-0.1,0.4-0.2,0.6c-0.1,0.3-0.2,0.5-0.4,0.8c-0.2,0.3-0.5,0.4-0.9,0.5c-0.4,0.1-0.9,0.2-1.3,0.2c-0.5,0-0.9,0-1.4-0.1
		c-0.6-0.1-1.2-0.3-1.7-0.6c-0.5-0.2-1-0.4-1.4-0.7c-0.4-0.2-0.7-0.4-0.9-0.5s0-0.2,0.1-0.4c0.2-0.3,0.4-0.6,0.6-0.9
		C82.4,65.8,82.6,65.3,82.7,65.3L82.7,65.3z M100,58.8c-0.4,0.4-0.9,0.7-1.3,1s-1.3,1.1-1.7,1.5s-1.1,0.9-1.6,1.3s-1,0.8-1.3,1
		c0,0,0.2,0.3,0.4,0.5c0.2,0.2,0.4,0.4,0.7,0.6c0.3,0.1,0.6,0.1,0.8,0c0.4-0.1,0.8-0.3,1.2-0.5c0.6-0.3,1.1-0.6,1.7-0.9
		c0.5-0.3,0.9-0.5,1.3-0.9c0.4-0.3,0.8-0.6,1.2-1c0.2-0.2-0.1-0.4-0.3-0.6c-0.2-0.4-0.4-0.7-0.6-1.1C100.3,59.3,100.1,58.7,100,58.8
		L100,58.8z M101.6,62c-0.5,0.3-1,0.7-1.6,1.1c-0.5,0.4-1.1,0.7-1.6,1c-0.6,0.3-1.3,0.6-2,0.8c-0.5,0.2-0.9,0.3-1.1,0.3
		c0,0,0.2,0.2,0.4,0.5c0.1,0.3,0.3,0.5,0.5,0.8c0.2,0.2,0.5,0.3,0.8,0.3c0.5,0,0.9-0.1,1.3-0.2c0.6-0.2,1.2-0.4,1.7-0.6
		c0.5-0.2,1-0.5,1.4-0.8c0.3-0.2,0.6-0.4,0.8-0.6c0.2-0.2,0.4-0.3,0.5-0.4s0.1-0.3-0.1-0.5c-0.2-0.1-0.3-0.3-0.4-0.6
		c-0.1-0.2-0.2-0.5-0.3-0.7C101.8,62.3,101.6,62,101.6,62L101.6,62z M103,64.7c-0.3,0.2-1.1,0.8-1.5,1c-0.5,0.3-1,0.5-1.6,0.8
		c-0.5,0.2-1.1,0.4-1.6,0.6c-0.5,0.1-1.1,0.2-1.5,0.3c0,0,0.1,0.2,0.3,0.5c0.1,0.3,0.3,0.6,0.5,0.8c0.2,0.2,0.5,0.3,0.8,0.3
		c0.4,0.1,0.8,0.1,1.2,0c0.5-0.1,1-0.2,1.5-0.3c0.5-0.2,0.9-0.4,1.3-0.6c0.4-0.2,1.2-0.8,1.6-1.2s0.1-0.3-0.1-0.6
		c-0.2-0.2-0.4-0.5-0.5-0.8C103.3,65.1,103.2,64.9,103,64.7L103,64.7z M93,63.9c0.4,0.3,0.5,0.3,0.7,0c0,0,0.3,0.3,0.5,0.6
		c0.1,0.2,0.3,0.4,0.5,0.5c0.2,0.1,0.1,0.1,0.4,0.5c0.1,0.2,0.2,0.4,0.3,0.6c0.1,0.2,0.3,0.5,0.5,0.7c0.4,0.3,0.3,0.2,0.4,0.5
		s0.3,0.7,0.5,1.1c0.2,0.3,0.4,0.6,0.8,0.8c0.4,0.2,0.7,0.1,0,0.2c-0.4,0-1.1,0.2-1.6,0.3c-0.7,0.1-1.3,0.2-2,0.2
		c-0.5,0-1.1-0.1-1.6-0.3c-0.6-0.1-1.2-0.1-1.8-0.1c-0.5,0-1.1,0-1.4-0.1s-0.6,0-0.2-0.1c0.4-0.2,0.7-0.5,0.9-0.9l0.4-1
		c0.1-0.2,0-0.1,0.2-0.4c0.2-0.2,0.4-0.5,0.5-0.7c0.2-0.4,0.3-0.8,0.5-1.2s0-0.3,0.3-0.4c0.3-0.1,0.6-0.3,0.8-0.5
		C92.6,64.2,92.8,64,93,63.9z M82.7,68.5c0.4,0.2,0.9,0.4,1.1,0.5s0.9,0.3,1.3,0.4c0.5,0.1,1,0.2,1.5,0.2H87c0.2,0,0.5,0,0.7,0
		c0.4,0,0.9,0,1.2,0s1.5,0.1,2,0.1c0,0.2-0.1,0.4-0.2,0.6c-0.1,0.4-0.2,0.8-0.4,1.4s-0.8,2.6-1.1,3.2s-0.6,1.2-0.8,1.8
		c-0.3,0.5-0.6,1-0.9,1.5c0,0-0.1-0.2-0.2-0.5s-0.6-1-0.9-1.5s-0.8-1.2-1.1-1.7s-0.8-1.2-1.1-1.6s-0.4-0.4-0.8-0.1
		c-0.4,0.3-0.7,0.6-1,0.9c-0.4,0.4-0.8,0.8-1.1,1.3c0-0.3,0-0.6,0.1-0.9c0.1-0.4,0.3-1.8,0.5-2.6s0.4-1.6,0.5-2
		C82.5,69.1,82.6,68.8,82.7,68.5L82.7,68.5z M87.6,76.7c0.2-0.3,0.4-0.6,0.5-0.9c0.1-0.4,0.4-1.2,0.6-1.7s0.4-1.2,0.5-1.7
		s0.2-0.9,0.3-1.2s-0.2-0.4-0.3,0s-0.2,0.8-0.4,1.5s-0.4,1.4-0.6,2s-0.3,0.9-0.4,1.3S87.4,76.8,87.6,76.7L87.6,76.7z M88.1,78.5
		c0.3,0.1,0.5,0.9,0.3,1.8s-0.8,1.6-1.1,1.5S87,81.5,87,81.2s-0.3-0.2-0.4,0.2c-0.2,0.4-0.4,0.7-0.8,1c-0.4,0.4-0.8,0.7-1.2,0.9
		c-0.5,0.3-1,0.6-1.3,0.8c-0.4,0.2-0.9,0.5-1.3,0.8c-0.4,0.3-0.3,0.3-0.6-0.1c-0.3-0.4-0.6-0.8-0.8-1.3c-0.2-0.4-0.3-0.8-0.4-1.2
		c-0.1-0.4-0.1-0.9,0-1.3c0-0.1,0,0.1,0.3,0.4c0.3,0.3,0.6,0.5,1,0.6c0.4,0.1,0.7,0.1,1.1,0.1c0.4,0,0.8-0.1,1.1-0.2
		c0.3-0.2,0.3-0.2,0.1-0.2s-0.4,0-0.6,0.1c-0.4,0-0.9,0-1.3-0.1c-0.4-0.1-0.7-0.2-1-0.5c-0.3-0.2-0.3-0.3-0.6-0.9
		c-0.3-0.7-0.4-1.5-0.2-2.3c0.1-0.5,0.3-1,0.6-1.4c0.2-0.2,0.4-0.5,0.7-0.6c0.3,0,0.5-0.1,0.8-0.1c0.4,0,0.8,0.1,1.1,0.1
		c0.3,0.1,0.6,0.2,0.9,0.3c0.3,0.1,0.5,0.3,0.2,0c-0.2-0.3-0.5-0.5-0.8-0.6c-0.3-0.2-0.7-0.3-1.1-0.3c-0.4-0.1-0.8,0-1.1,0.1
		c0.2-0.4,0.4-0.7,0.7-1c0.4-0.4,1.2-1.2,1.5-1.4s0.3-0.2,0.4,0s0.4,0.6,0.7,1s0.8,1.1,1.1,1.7c0.3,0.5,0.6,1.1,0.8,1.6
		c0.2,0.4,0.3,0.9,0.4,1.3c0.1,0.3,0.2,0.5,0.4,0.2S87.8,78.5,88.1,78.5L88.1,78.5z M96.3,69.9c0.6-0.1,1.2-0.2,1.7-0.3
		c0.6-0.2,0.7-0.2,0.9-0.3c0.3,0,0.6,0,0.9,0c0.4,0,0.8-0.1,1.2-0.3c0.6-0.2,1.1-0.5,1.7-0.8c0.4-0.3,0.8-0.6,1.2-0.9
		c0.2,0.2,0.4,0.5,0.5,0.7c0.3,0.5,0.5,1.1,0.7,1.7c0.3,0.8,0.5,1.5,0.7,2.1c0,0-0.1,0.2-0.3,0.6s-0.6,1-0.9,1.4
		c-0.4,0.5-0.7,1.1-1,1.7c-0.3,0.6-0.6,1.3-0.8,2c-0.2,0.6-0.2,0.8-0.3,1s-0.3,0.2-0.6-0.2s-0.7-1-1.3-1.8s-1-1.3-1.6-2.2
		s-1.2-1.8-1.7-2.6S96.3,69.9,96.3,69.9L96.3,69.9z M102.3,76.7c-0.4-0.3-0.7-0.6-1-1c-0.4-0.5-0.7-1-1.1-1.5s-0.8-1.2-1.2-1.8
		c-0.3-0.4-0.5-0.9-0.7-1.4c-0.2-0.4,0-0.4,0.2-0.1s0.7,1.1,0.9,1.5s0.6,0.7,0.9,1.3s0.7,1,1.1,1.7s0.5,0.8,0.6,0.9
		S102.5,76.9,102.3,76.7L102.3,76.7z M101.7,78.7c0.3,0,0.7,0.3,1.1,0.7c0.1,0.1,0.2,0,0.3-0.3c0.1-0.5,0.2-1,0.3-1.5
		c0.2-0.7,0.5-1.4,0.8-2.1c0.4-0.7,0.8-1.4,1.3-2.1c0.3-0.5,0.7-1.2,0.9-1.4s0.3,0.1,0.5,0.4c0.2,0.3,0.4,0.6,0.5,1
		c0.1,0.4,0,0.5,0,0.5c-0.3,0.1-0.6,0.3-0.9,0.5c-0.4,0.2-0.7,0.6-0.9,1c-0.2,0.4-0.2,0.7,0.3,0.2c0.2-0.3,0.5-0.5,0.8-0.7
		c0.3-0.2,0.6-0.3,1-0.4c0.2,0,0.3,0.1,0.5,0.2c0.3,0.2,0.5,0.5,0.7,0.8c0.4,0.7,0.7,1.4,0.9,2.1c0.1,0.6,0.1,1.2-0.1,1.8
		c-0.2,0.5-0.3,1-0.6,1.5c-0.1,0.2-0.3,0.3-0.6,0.3c-0.3,0-0.7-0.1-1-0.2c-0.4-0.2-0.6-0.4-1-0.6s-0.2,0,0.1,0.4
		c0.3,0.4,0.6,0.6,1.1,0.7c0.4,0.1,0.8,0.2,1.2,0.2c0.2,0.4,0.3,0.8,0.3,1.2c0,0.4,0,0.7,0,1.1c0,0.3-0.1,0.3-0.6-0.2
		c-0.5-0.4-1.1-0.7-1.7-1c-0.7-0.4-1.4-0.8-2-1.2c-0.5-0.3-1-0.7-1.4-1.1c-0.2-0.2-0.3-0.2-0.3-0.1c0,0.6-0.1,1.1-0.4,1.3
		s-1-0.5-1.3-1.3S101.2,78.8,101.7,78.7L101.7,78.7z M124.8,58.3c0.2,0,0.3,0.1,0.3,0.3c0,0.2-0.1,0.3-0.3,0.3
		c-0.2,0-0.3-0.1-0.3-0.3c0,0,0,0,0,0C124.5,58.5,124.6,58.3,124.8,58.3C124.8,58.3,124.9,58.3,124.8,58.3L124.8,58.3z M74.3,50.6
		c0.3-0.2,0.7-0.2,1-0.1c0.2,0.2,0.6,0.6,0.9,1c0.5,0.6,1,1.1,1.7,1.4c0.5,0.2,1,0.3,1.5,0.4c0.4,0,0.4,0,0.3,0.3s-0.2,0.1-0.3,0.2
		c-0.1,0.1-0.2,0.2-0.2,0.3c0,0.5-0.1,1.1-0.3,1.6c-0.2,0.6-0.2,0.7-0.9,0.7c-0.5,0-1,0-1.5,0c-0.4-0.1-0.5,0-0.6,0.2
		s-0.1,0.3-0.3,0.3s-0.2,0.1-0.2-0.2c0-0.5,0-1.1-0.2-1.6c-0.1-0.5-0.6-2.2-0.9-2.8S74,50.8,74.3,50.6L74.3,50.6z M78.2,56.2
		c-0.3-0.2-0.6-0.5-0.8-0.8c-0.2-0.4-0.4-0.8-0.6-1.1s0-0.4,0.2-0.1s0.4,0.7,0.7,1l0.6,0.8C78.5,56.2,78.4,56.3,78.2,56.2L78.2,56.2
		z M73.9,52.4c0.3,0.5,0.6,1.1,0.8,1.6c0.2,0.8,0.4,1.7,0.5,2.6c0,0.4,0.1,0.4-0.2,0.6s-0.8,0.6-1.3,0.9S72,59,71.4,59.3
		s-1.8,0.8-2.5,1.2s-1.5,0.8-1.9,1s-0.4,0.2-0.6-0.3c-0.2-0.6-0.5-1.3-0.9-1.9c-0.2-0.4-0.3-0.4,0.1-0.7l1.9-1
		c0.5-0.3,0.9-0.6,1.3-1c0.4-0.4,1.6-1.5,2-1.8s1.4-1.2,1.9-1.6c0.3-0.2,0.6-0.4,0.8-0.7C73.7,52.4,73.8,52.3,73.9,52.4L73.9,52.4z
		 M79.1,89.4c1.1,0.3,2.2,0.5,3.4,0.5c1,0,1.9-0.3,2.8-0.7c0.2-0.3,0.3-0.6,0.4-0.9c0.2-0.5,0.4-1.1,0.5-1.6c0.2-0.7,0.3-1.3,0.3-2
		c0.1-0.6,0.1-1.3,0.1-1.8s0-0.6,0-0.6c-0.3,0.3-0.6,0.6-1,0.8c-0.4,0.3-1.3,0.7-1.9,1s-1.4,0.8-1.7,1s-0.4,0.2-0.6-0.2
		c-0.3-0.3-0.6-0.7-0.8-1.1c-0.2-0.3-0.2-0.5-0.4-0.8c0-0.1-0.2,0.4-0.3,0.8s-0.2,1.2-0.3,1.8s-0.2,1.5-0.3,2.1S79,89.4,79.1,89.4
		L79.1,89.4z M85.6,84.1c0.1,0.5,0.1,1,0,1.5c-0.1,0.6-0.2,1.2-0.4,1.8c-0.2,0.5-0.3,1-0.5,1.3s-0.2,0.4-0.3,0.6s-0.3,0.3-0.1-0.1
		s0.3-0.9,0.5-1.3s0.3-0.9,0.4-1.5c0.1-0.5,0.2-1,0.2-1.5C85.5,84.4,85.5,83.9,85.6,84.1z M78.2,99.3c0.4,0.3,0.9,0.4,1.4,0.5
		c0.7,0,1.4-0.1,2-0.4c-0.1,0.3-0.2,0.7-0.2,1c0,0.5,0,1.1,0,1.6c0.1,0.5,0,1-0.2,1.4c-0.2,0.3-0.4,0.6-0.7,0.9
		c-0.3,0.3-0.5,0.7-0.7,1.1c-0.2,0.6-0.5,1.4-0.8,2.1c-0.1,0.5-0.4,0.9-0.6,1.3c-0.3,0.5-0.8,0.9-1.2,1.2c-0.4,0.3-0.9,0.6-1.4,0.8
		c-0.4,0.2-0.8,0.2-1.1,0.1c-0.3-0.1-0.2-0.5-0.4-1.1c-0.1-0.8-0.1-1.7,0-2.6c0.1-0.7,0.4-1.4,0.6-2c0.4-0.7,0.9-1.3,1.4-1.9
		c0.5-0.6,0.9-1.2,1.2-1.9c0.2-0.5,0.4-1,0.5-1.6C78.2,99.7,78.2,99.3,78.2,99.3L78.2,99.3z M105.8,98.7c0.6,0.2,1.2,0.4,1.8,0.5
		c0.6,0.1,1.1,0,1.7-0.1c0.2-0.1,0.5-0.1,0.7-0.2c0.1,0.2,0.2,0.4,0.4,0.6c0.4,0.5,0.9,1.1,1.2,1.6c0.2,0.4,0.6,0.9,0.8,1.2
		c0.3,0.4,0.7,0.7,1.1,1c0.3,0.2,0.2,0.3,0.2,0.4s-0.1,0.3,0.4,0.3c0.2,0,0.4,0.2,0.6,0.4s0.4,0.6,0.6,0.9c0.2,0.2,0.2,0.5,0.1,0.8
		c-0.2,0.2-0.4,0.3-0.7,0.4c-0.3,0.1-0.7,0.2-1,0.2c-0.4,0.1-0.9,0-1.3-0.1c-0.5-0.2-0.9-0.5-1.3-0.8c-0.6-0.5-1.1-1.1-1.6-1.6
		c-0.3-0.3-0.6-0.6-1-0.8c-0.3-0.2-0.5-0.4-0.8-0.6c-0.4-0.2-0.5-0.1-0.2,0.2c0.2,0.2,0.4,0.3,0.6,0.5c0.2,0.2,0,0.2-0.6,0.1
		c-0.5,0-1-0.2-1.5-0.4c-0.4-0.2-0.6-0.7-0.6-1.1c0-0.6,0.1-1.2,0.2-1.8c0.1-0.6,0.2-1,0.2-1.2S105.8,98.7,105.8,98.7L105.8,98.7z
		 M103.8,81.3c0.2,0.2,1,0.8,1.4,1s1.5,0.9,2.1,1.2c0.5,0.2,1,0.6,1.4,1c0.3,0.4,0.3,0.6,0.3,1.2s0,1.2,0,2.1s0,2.8,0,3.9
		c0.1,1.4,0.2,2.8,0.4,4.2c0.1,0.9,0.2,1.3,0.3,1.8s0.1,0.6,0.1,0.6c-0.4,0.2-0.9,0.3-1.4,0.4c-0.6,0-1.2,0-1.7-0.1
		c-0.5-0.1-0.7-0.1-0.9-0.1c0-0.3,0-0.6,0-0.9c-0.1-0.9-0.3-1.9-0.6-2.8c-0.3-0.9-1.3-3.4-1.6-4.5c-0.4-1.5-0.6-3-0.7-4.5
		c0-1.1,0-2.2,0-2.6s0.1-0.7,0.1-0.9s0.1-0.2,0.2-0.3c0.1-0.2,0.2-0.4,0.3-0.6C103.5,81.1,103.4,81.1,103.8,81.3L103.8,81.3z
		 M105.9,95c-0.1-0.3-0.2-0.7-0.3-1c-0.2-0.6-0.4-1.2-0.4-1.5c-0.2-0.7-0.4-1.6-0.8-2.8c-0.3-1-0.4-2.1-0.5-3.2
		c-0.1-0.9-0.1-1.9,0-2.8c0-0.8,0.2-2.1,0.2-1.3s-0.1,1.7,0,2.4s0.2,1.7,0.3,2.5s0.3,1.6,0.5,2.5s0.3,1.5,0.5,2.2s0.3,1.2,0.4,1.7
		C105.9,94.2,105.9,94.6,105.9,95L105.9,95z M78.5,94.1c0.5,0.2,1.1,0.3,1.6,0.4c0.6,0.1,1.8,0.2,2.2,0.2c0,0.3-0.1,0.6-0.2,0.8
		c-0.1,0.4-0.3,0.8-0.4,1.2c-0.1,0.2-0.1,0.5,0,0.7c0.1,0.2,0.1-0.2,0.1-0.5c0.1-0.3,0.2-0.6,0.3-0.8c0.1-0.3,0.2-0.7,0.3-0.8
		c0.1-0.2,0.1-0.4,0.1-0.6c0.2,0,0.4,0,0.6,0c0,0.2-0.1,0.5-0.2,0.7c-0.1,0.4-0.3,0.8-0.4,1.1s-0.3,0.7-0.4,1.2s-0.5,1.5-0.5,1.5
		c-0.5,0.2-1,0.3-1.5,0.3c-0.6,0-1.3-0.2-1.9-0.4c0,0,0-0.6,0-1.1s0-1.7,0-2.3s0.1-1.7,0.1-1.7"/>
	
		<path id="path20" style="clip-path:url(#SVGID_00000083088405204746716230000016573975515675240374_);fill-rule:evenodd;clip-rule:evenodd;fill:#69B42E;" d="
		M74.2,85.8c0.4,0.5,0.8,1,1.2,1.5c0.5,0.5,1,0.9,1.6,1.3c0.5,0.3,1.1,0.5,1.6,0.7c0-0.3,0.1-0.8,0.1-1.3s0.1-0.8,0.2-1.2
		c-0.6-0.1-1.1-0.3-1.8-0.4s-1.4-0.3-1.9-0.4S74.5,85.9,74.2,85.8z M55.8,74.7c-0.2,0.7-0.1,1.5,0.2,2.2c0.3,0.7,0.7,1.3,1.3,1.7
		c0.6,0.5,1.2,0.8,1.9,1.1c0.9,0.4,2.2,0.7,3.6,1.2c1.1,0.4,2.3,0.8,3.4,1.3c0.9,0.4,1.8,0.9,2.6,1.6c0.9,0.9,1.7,1.8,2.3,2.9
		c0.6,1,1.3,1.9,2,2.8c0.9,1,1.8,1.9,2.9,2.7c0.9,0.6,1.9,1.1,2.9,1.4c0.9,0.3,1.8,0.4,2.7,0.5c0.9,0.1,1.7,0.1,2.6,0
		c0.9-0.1,1.7-0.2,2.6-0.4c0.5-0.1,1-0.4,1.4-0.8c0.3-0.5,0.5-1.1,0.4-1.6c-0.1-0.5-0.3-1.1-0.6-1.5c-0.3-0.4-0.7-0.8-1.1-1
		c-0.2-0.1-0.4-0.2-0.6-0.3l-0.5,1.1c-0.4,0.2-0.8,0.4-1.2,0.5c-0.6,0.2-1.1,0.2-1.7,0.3c-0.8,0-1.6-0.1-2.4-0.3
		c-0.7-0.1-1.5-0.3-2.2-0.7c-0.8-0.4-1.6-0.8-2.3-1.4c-0.7-0.7-1.3-1.4-1.8-2.1c-0.5-0.7-1-1.4-1.5-2c-0.7-0.9-1.5-1.7-2.4-2.4
		c-1-0.8-2.1-1.5-3.3-2c-1.3-0.4-2.7-0.8-4.1-1c-1.3-0.1-2.7-0.3-4-0.6c-0.8-0.3-1.5-0.8-2-1.5c-0.3-0.3-0.5-0.8-0.5-1.2
		C56.1,73.3,55.9,73.9,55.8,74.7L55.8,74.7z M74.7,118.5c-0.1,0.4,0,0.9,0.3,1.2c0.5,0.5,1.1,0.8,1.7,1c0.9,0.1,1.7,0,2.5-0.4
		c0.4-0.3,1.1-0.2,1.5-0.5s0.4-0.9,0.8-0.7c0.6,0.3,1.2,0.5,1.8,0.5c0.5,0,1,0.1,1.5,0.3c0.7,0.2,1.4,0.1,2-0.3
		c0.6-0.4,1.1-0.7,1.8-0.9c0.4-0.3,1.1-0.9,1-1.4s-0.4-0.7-0.3-0.9s0-0.2,0.5-0.1c0.5,0.2,1,0.3,1.6,0.3c0.6,0,1.5-0.3,2.2-0.3
		c0.8,0,1.6-0.1,2.3-0.3c0.7-0.4,1.2-1,1.5-1.8c0.3-0.8,0.4-1,0.7-1.2s0.1-0.6-0.1-1c-0.2-0.5-0.3-1-0.4-1.5c0-0.5-0.3-0.6,0.1-0.5
		s1.4,0.1,1.9,0.1s1.7,0,2.4,0.1s1.8,0.3,2.8,0.5s3.1,0.7,3.7,0.8s1.9,0.2,2.8,0.5s2.6,0.9,3.6,1.1c1.1,0.2,2.1,0.4,3.2,0.4
		c0.9,0,3.2,0.1,4.1,0.1s4-0.1,4.7-0.2s1.1-0.2,1.2,0.3c0.1,0.5-0.1,0.9-0.4,1.2c-0.8,0.4-1.7,0.7-2.5,0.9c-0.6,0.2-0.3,0.1-0.4,0.5
		s-0.4,0.6-0.9,0.8s-1,0.4-1.1,0.7c-0.2,0.3-0.5,0.6-0.8,0.8c-0.5,0.2-1,0.4-1.5,0.6c-0.4,0.3-0.8,0.6-1.1,1c-0.3,0.5-0.7,0.8-1.2,1
		c-0.9,0.2-1.9,0.4-2.8,0.5c-0.7,0.1-1.3,0.3-1.9,0.6c-0.7,0.2-2.6,0.7-3.4,0.9s-3.2,0.6-4.3,0.7s-5.2,0.5-6.6,0.6
		c-2.1,0.1-4.2,0.1-6.3-0.1c-2.2-0.2-9.8-1.2-11.1-1.4c-1.4-0.2-2.7-0.6-4.1-1c-1-0.3-2-0.8-2.8-1.5c-0.4-0.5-0.5-1.1-0.4-1.7
		C74.5,118.2,74.7,118.3,74.7,118.5L74.7,118.5z M99.6,118.2c0.3,0,0.9,0.1,1.6,0.2s1.4,0.2,1.9,0.2l1.6,0.2c0.5,0,1.4,0,2,0
		s1.9-0.1,2.4-0.1s0.6-0.2,0-0.2s-1.6-0.1-2.2-0.1s-1.6,0.1-2.1,0s-1-0.1-1.7-0.1s-1.3-0.1-1.9-0.2s-1.2-0.1-1.5-0.1
		S99.2,118.1,99.6,118.2L99.6,118.2z M88.9,121.7c0.6,0.2,1.2,0.4,1.8,0.5c0.5,0.1,1.4,0.2,2.3,0.3s1.9,0.1,2.8,0.2s2.6,0.1,3.3,0
		s1.3-0.1,1.6-0.1s0.5-0.1-0.1-0.2c-0.7-0.1-1.3-0.1-2-0.1c-0.7,0-1.7,0-2.4,0s-1.7-0.1-2.8-0.1s-1.9-0.2-2.7-0.3s-1.3-0.2-1.6-0.3
		S88.6,121.7,88.9,121.7L88.9,121.7z M90.6,91.7c0.4,0,0.8-0.1,1.2-0.2c0.3-0.1,0.4,0.1,0.4,0.3s-0.1,0.3-0.2,0.6
		C92,92.7,92,93,92,93.3c0,0.3-0.2,0.6-0.4,0.7c-0.2,0.1-0.4,0.3-0.6,0.6c-0.1,0.2-0.2,0.3-0.3,0.5c0,0.3,0.1,0.4,0.3,0.1
		s0.3-0.3,0.6-0.7c0.3-0.3,0.5-0.6,0.7-0.9c0.2-0.4,0.3-0.8,0.3-1.2c0-0.4,0-0.9,0.3-0.7c0.3,0.2,0.6,0.2,0.9,0.3
		c0.3,0.1,0.3,0.3,0.3,0.5s-0.2,0.5-0.4,0.8c-0.2,0.4-0.4,0.8-0.6,1.2c-0.1,0.3-0.2,0.6-0.4,0.8c-0.2,0.2-0.4,0.4-0.6,0.6
		c-0.3,0.3-0.5,0.5-0.8,0.7c-0.3,0.3-0.8,0.7-1.2,1l-0.8,0.6c-0.3,0.2-0.3,0.1-0.6,0.2s-0.6,0.4-0.3,0.3s0.5,0,0.4,0.3
		s-0.3,0.7-0.5,1.1s-0.3,0.8-0.5,1.2s-0.3,1-0.5,1.2c-0.1,0.2-0.2,0.5-0.1,0.8c0.1,0.3,0.3,0.6,0.5,0.8c0.4,0.3,0.8,0.6,1.2,1
		c0.2,0.2,0.6,0.2,1,0.3c0.6,0.2,1.2,0.5,1.7,0.9c0.5,0.5,0.9,1,1.1,1.7c0.2,0.5,0.4,1.1,0.4,1.7c-0.1,0.6-0.2,1.1-0.5,1.6
		c-0.2,0.3-0.3,0.7-0.4,1.1c-0.3,0.5-0.6,1-1.1,1.4c-0.3,0.3-0.5,0.5-0.8,0.8c-0.3,0.2-0.5,0.5-0.6,0.8c0,0,0,0.1,0,0.2
		c0.1-0.1,0.2-0.1,0.3-0.2c0.4-0.3,0.7-0.6,1.1-0.9c0.3-0.2,0.7-0.7,1-1c0.3-0.4,0.6-0.9,0.8-1.4c0.4-0.7,0.6-1.4,0.7-2.2
		c0-0.8-0.2-1.5-0.5-2.2c-0.2-0.6-0.6-1.2-1.1-1.6c-0.5-0.4-1-0.7-1.6-0.8c-0.6-0.2-1.1-0.1-1.5-0.4l-0.7-0.6
		c-0.1-0.1-0.3-0.2-0.4-0.3c-0.1,0,2.6-0.2,3.3-0.3s3.4-0.6,4.3-0.6c0.9-0.1,1.9-0.1,2.8,0c0.6,0.1,1.2,0.2,1.8,0.2s1.8,0.1,2.7,0.2
		s2.2,0.3,3,0.5s1.6,0.3,2.2,0.4s0.7,0,1,0.3s0.8,0.9,1.4,1.4c0.5,0.4,1,0.8,1.6,1.1c0.4,0.2,0.9,0.3,1.4,0.4
		c-0.1,0.5-0.1,1-0.1,1.6c0.1,0.4,0.1,0.8,0.1,1.2c-0.1,0.6-0.2,0.8-0.1,1.1c0,0.1,0.1,0.2,0.1,0.2c0.2-0.3,0.4-0.7,0.4-1.1
		c0-0.5,0-1,0-1.6c-0.1-0.5-0.1-1,0.1-1.4c0.3-0.3,0.7-0.6,1.1-0.7c0.4-0.1,0.7-0.3,1-0.5c0.4-0.3,0.7-0.5,1.1-0.9s0.7-0.9,1-1.1
		s0.6-0.4,0.9-0.6s0.6-0.3,0.7-0.7c0.1-0.3,0-0.7-0.2-1c-0.2-0.3-0.3-0.7-0.4-1c-0.2-0.6-0.4-1.2-0.6-1.8c-0.2-0.6-0.3-1.1-0.4-1.7
		c-0.1-0.4-0.1-0.6-0.5-0.8c-0.3-0.1-0.6-0.3-0.8-0.5c-0.3-0.3-0.6-0.6-0.8-1c-0.1-0.3-0.3-0.6-0.5-0.8c-0.2-0.2-0.4-0.5-0.6-0.7
		c-0.2-0.3-0.4-0.5-0.7-0.6c-0.2,0-0.4,0-0.6-0.1s-0.3-0.1-0.2-0.2c0.2-0.3,0.3-0.7,0.2-1c-0.1-0.2,0-0.3,0.2-0.3s0.4,0.2,0.5,0.3
		c0.1,0.1,0.3,0.3,0.5,0.3c0.3,0.1,0.5,0.2,0.7,0.3c0.1,0.2,0.5,0.5,0.7,0.7s0.3,0.2,0.2,0c-0.1-0.2-0.2-0.5-0.4-0.7
		c-0.2-0.2-0.4-0.4-0.6-0.6c-0.2-0.2-0.4-0.4-0.6-0.6c-0.1-0.1-0.3-0.1-0.4-0.3c-0.1-0.1-0.1-0.2-0.1-0.3c0,0,0,0,0.1-0.1
		c0.3-0.2,0.6-0.6,0.7-1c0-0.1,0.1-0.2,0.3-0.2c0,0,0.1,0,0.1,0c0.2,0.1,0.4,0.3,0.4,0.5c0.1,0.2,0.3,0.4,0.4,0.7s0.4,0.4,0.6,0.7
		s0.3,0.5,0.5,0.8c0.1,0.2,0.2,0.4,0.3,0.6c0.1,0.2,0.2,0.1,0.2-0.1c0-0.3-0.1-0.6-0.3-0.8c-0.1-0.1-0.3-0.4-0.5-0.7
		c-0.2-0.3-0.4-0.6-0.6-0.8c-0.2-0.1-0.3-0.3-0.3-0.5c0.2-0.2,0.5-0.4,0.8-0.4c0.2-0.1,0.4,0,0.4,0.2c0.1,0.2,0.1,0.5,0.3,0.8
		c0.1,0.2,0.2,0.4,0.3,0.6c0.2,0.2,0.3,0.3,0.4,0.6c0.1,0.3,0.2,0.5,0.3,0.7c0.1,0.3,0.2,0.5,0.4,0.7c0.1,0.1,0.3,0.3,0.4,0.3
		c0.2,0,0.2,0,0.1-0.2s-0.3-0.3-0.3-0.4c0-0.2,0.1-0.3,0.3-0.4c0.2-0.1,0.4-0.1,0.6,0c0.2,0.2,0.4,0.3,0.5,0.6s0.1,0.6,0,0.7
		c-0.1,0.1-0.2,0.3-0.3,0.4c-0.1,0-0.2,0-0.3-0.1c0,0,0,0,0,0c0-0.2-0.1-0.3-0.1-0.1c0,0.3,0,0.5,0.1,0.8c0.1,0.3,0.2,0.6,0.3,0.9
		c0.2,0.3,0.4,0.6,0.5,0.9c0.1,0.3,0.3,0.7,0.5,1.1s0.5,1,0.7,1.6c0.2,0.5,0.5,1.1,0.8,1.6c0.2,0.3,0.4,0.6,0.7,0.9
		c0.3,0.2,0.5,0.5,0.6,0.9c0.1,0.4,0.1,0.9,0,1.3c0,0.4-0.1,0.8-0.2,1.2c-0.1,0.3-0.3,0.6-0.6,0.8c-0.3,0.2-0.6,0.5-0.9,0.9
		c-0.3,0.4-0.5,0.6-0.7,0.8s-0.7,1-1,1.4s-0.5,0.9-0.7,1.2c-0.3,0.3-0.6,0.6-0.9,0.8c-0.3,0.2-0.6,0.4-1,0.6
		c-0.4,0.2-0.5,0.3-0.2,0.2s0.7-0.2,1-0.2s0.3-0.1,0.2,0.2c-0.1,0.2-0.2,0.5-0.3,0.7c-0.1,0.2-0.2,0.3-0.3,0.5
		c0,0.2,0.1,0.2,0.3-0.1s0.4-0.4,0.6-0.6c0.2-0.2,0.3-0.5,0.2-0.8c0-0.3,0.2-0.5,0.4-0.7c0.3-0.3,0.6-0.6,0.8-1
		c0.3-0.4,0.5-0.8,0.7-1.2s0.4-0.5,0.6-0.9s0.6-0.7,0.9-1.1s0.7-0.5,0.9-0.8c0.2-0.4,0.4-0.8,0.4-1.2c0.1-0.5,0.2-0.9,0.2-1.4
		c0-0.4-0.1-0.8-0.2-1.1c0,0,0.5-0.2,0.8-0.5c0.4-0.3,0.7-0.6,1-1c0.4-0.4,1.4-1.5,1.7-1.9c0.3-0.5,0.6-0.9,1-1.4
		c0.3-0.3,0.6-0.7,0.6-1.2c0-0.3,0-0.3,0.3-0.1s0.4,0.2,0.5,0.3s0.2,0-0.1-0.3c-0.2-0.1-0.3-0.3-0.4-0.5c-0.1-0.3-0.3-0.5-0.5-0.7
		c-0.3-0.3,0.2-0.2,0.4,0s0.2-0.2-0.1-0.4c-0.2-0.1-0.4-0.2-0.6-0.3c-0.3-0.1-0.6-0.3-0.8-0.5c-0.3-0.2-0.6-0.5-0.9-0.7
		c-0.3-0.3-0.6-0.5-1-0.7c-0.4-0.3-0.8-0.5-1.3-0.7s-0.7-0.4-1-0.6c-0.3-0.2-0.6-0.3-0.9-0.6c-0.2-0.2-0.2-0.3,0-0.2s0.3,0,0.3,0.1
		s0.2,0,0-0.2s-0.2-0.2-0.5-0.2c-0.4,0-0.8-0.1-1.1-0.2c-0.3-0.1-0.5-0.3-0.7-0.5c-0.2-0.3-0.4-0.7-0.1-0.7c0.3-0.1,0.6-0.1,0.9-0.1
		c0.5,0.1,1,0.2,1.4,0.4c0.6,0.3,1.2,0.7,1.7,1.1c0.6,0.4,1.3,0.8,1.9,1.1c0.5,0.2,1,0.5,1.5,0.8c0.5,0.3,1.3,1.1,1.9,1.4
		c0.5,0.3,1.1,0.4,1.6,0.1c0.3-0.3,0.5-0.8,0.5-1.2c0-0.6-0.1-1.2-0.4-1.7c-0.3-0.6-0.8-1.2-1.3-1.7l-1.8-1.8
		c-0.5-0.5-1.3-1.1-1.8-1.4c-0.5-0.4-1-0.7-1.6-1c-0.5-0.2-1.1-0.4-1.7-0.6c-0.4-0.1-1-0.2-1.5-0.3c-0.4-0.1-0.8-0.3-1.1-0.6
		c-0.1-0.2,0-0.5,0.2-0.6c0,0,0.1,0,0.1,0c0.3-0.1,0.5-0.7,0.7-1s0.4-0.6,0.8-0.7s0.3-0.1,0.5-0.3c0.1-0.1,0.2-0.2,0.3-0.3
		c0.2-0.1,0.5-0.1,0.8,0c0.3,0.2,0.1,0.3,0,0.3s0.1,0.2,0.5,0c0.5-0.1,0.9-0.1,1.3,0.2c0.3,0.2,0.5,0.4,1,0.8
		c0.2,0.2,0.4,0.3,0.7,0.4c0.4,0.2,0.8,0.2,1.2,0.4c0.5,0.2,0.9,0.4,1.4,0.6c0.4,0.2,0.8,0.4,1.3,0.5c0.3,0.1,0.7,0.2,1,0.1
		c0.4-0.1,0.8-0.1,1.2,0.1c0.4,0.2,0.7,0.4,1,0.7c0.2,0.3,0.4,0.6,0.6,0.9s0.2,0.2,0.1-0.2c0-0.1-0.1-0.2,0-0.2
		c0.3-0.1,0.6,0,0.8,0.1c0.4,0.1,0.7,0.3,1.1,0.5c0.3,0.2,0.5,0.5,0.7,0.8c0,0-0.1,0.1-0.2,0.3c-0.2,0.2-0.3,0.4-0.4,0.6
		c-0.1,0.3,0,0.3,0.2,0c0.2-0.3,0.4-0.5,0.7-0.6c0.4-0.2,0.9-0.5,1.4-0.7c0.5-0.3,1-0.7,1.5-1.1c0.4-0.3,0.7-0.6,1-0.8
		s0.5-0.1,0.4,0.3s-0.1,0.6-0.2,1.1c-0.1,0.4-0.2,0.8-0.4,1.2c-0.2,0.4-0.3,0.8-0.6,1.2c-0.2,0.4-0.3,0.7-0.6,1.2
		c-0.2,0.4-0.5,0.8-0.8,1.1c-0.3,0.3-0.7,0.4-1.1,0.4c-0.3,0-0.5,0-0.8,0.1c-0.3,0.1-0.2,0.3,0.1,0.2c0.2-0.1,0.5-0.1,0.7,0
		c0.3,0,0.2,0,0.2,0.3c0,0.6-0.1,1.3-0.2,1.9c-0.1,0.7-0.4,1.4-0.6,2c-0.3,0.8-1,2.3-1.4,3.2s-0.8,1.7-1.2,2.5s-1.4,2.2-1.8,2.9
		c-0.5,0.8-1,1.5-1.6,2.2c-0.5,0.6-1,1.2-1.5,1.8s-2.1,2.5-2.6,3.1s-1.5,1.6-1.9,2s-0.6,0.7-1,0.7s-1.8,0.1-2.6,0.1
		s-2.7,0.2-3.3,0.2c-0.7,0-1.3-0.1-2-0.2l0,0c-0.5-0.1-1.2-0.2-1.6-0.2s-1.3-0.3-1.8-0.4s-1.1-0.3-1.3-0.3l0,0
		c-0.5-0.2-1-0.3-1.6-0.4c-0.6-0.2-1.3-0.3-1.9-0.4c-0.8-0.1-2.9-0.6-3.8-0.8s-1.9-0.4-3.2-0.6c-1-0.1-2-0.2-3-0.2
		c-0.8,0-1.8-0.1-2.4-0.1c-0.5,0-1,0.1-1.5,0.4c-0.5,0.3-0.5,0.6-0.1,0.6c0.3,0,0.7,0,1,0.1c0.2,0,0.5,0.2,0.5,0.3
		c0.1,0.4,0.2,0.8,0.3,1.2c0.2,0.4,0.3,0.7,0,1c-0.3,0.4-0.6,0.9-0.8,1.3c-0.2,0.5-0.6,0.9-1.1,1.1c-0.4,0.2-0.8,0.3-1.2,0.3
		c-0.6,0.1-1.1,0.2-1.7,0.3c-0.4,0.1-0.9,0.2-1.3,0.1c-0.5-0.1-0.9-0.1-1.3-0.2c-0.3-0.1-0.6-0.2-0.9-0.1l0,0
		c-0.2,0-0.3,0.2-0.3,0.3c0,0.2,0,0.4,0.1,0.6c0.2,0.2,0.2,0.5,0.1,0.8c-0.2,0.3-0.5,0.6-0.8,0.8c-0.4,0.2-0.8,0.4-1,0.5
		c-0.4,0.2-0.7,0.4-1,0.7c-0.4,0.3-0.9,0.4-1.3,0.2c-0.5-0.1-1-0.3-1.5-0.4c-0.4,0-0.8-0.1-1.1-0.2c-0.3-0.1-0.6-0.2-0.9-0.4
		c-0.3-0.2-0.4-0.2-0.5,0.1c-0.2,0.4-0.6,0.7-1.1,0.8c-0.3-0.2-0.5-0.4-0.8-0.6c-0.2-0.2-0.5-0.4-0.8-0.7c-0.3-0.3-0.6-0.5-1-0.7
		c-0.4-0.2-0.8-0.5-1.2-0.7c-0.9-0.4-1.9-0.9-2.8-1.4s-2.5-1.2-3.8-2s-2.5-1.6-4-2.6c-1.2-0.9-2.4-1.9-3.4-3c-1.1-1.2-2.1-2.5-2.8-4
		c-0.8-1.5-1.3-3.2-1.5-4.9c-0.2-1.6-0.2-3.2,0-4.8c0.3-1.4,0.8-2.8,1.5-4c0.5-0.9,1.2-1.7,2-2.4c0.9-0.8,2.1-1.4,3.3-1.7
		c1-0.3,2.1-0.6,3.2-0.8c0.7-0.1,1.3-0.2,2-0.2c0.4,0.4,0.7,0.9,0.9,1.4c0.4,0.7,0.9,1.4,1.5,2c-0.6-0.1-1.2-0.2-1.8-0.2
		c-1.2,0-2.3,0.1-3.4,0.4c-1.2,0.3-2.2,1-3,1.9c-0.7,0.9-1.2,1.8-1.5,2.9c-0.3,1.2-0.4,2.4-0.2,3.6c0.2,1.2,0.5,2.3,0.9,3.4
		c0.4,0.9,0.9,1.8,1.6,2.5c0.7,0.8,1.6,1.4,2.6,1.7c1,0.4,2.1,0.7,3.1,0.9c1,0.2,2.1,0.2,3.1,0c0.3-0.1,0.7-0.2,1-0.2
		c-0.3,0.6-0.4,1.3-0.5,2c-0.2,0.8-0.2,1.7,0,2.6c0.2,0.7,0.4,1.1,1.1,1.1c0.6,0,1.3-0.3,1.8-0.6c0.6-0.3,1.2-0.8,1.7-1.3
		c0.4-0.5,0.7-1,0.9-1.6c0.1-0.6,0.3-1.2,0.6-1.8c0.2-0.3,0.3-0.6,0.4-0.8s0.4-0.2,0.5,0.2c0,0.3,0.2,0.5,0.4,0.6
		c0.2,0.2,0.6,0.2,0.8,0.3c0.5,0.3,0.9,0.7,1.2,1.1c0.2,0.3,0.2,0.8,0,1.1c-0.1,0.4-0.3,0.8-0.5,1.1c-0.5,0.5-1,0.8-1.6,1.1
		c-0.4,0.1-0.8,0.4-1,0.8c0.1-0.1,0.2-0.2,0.4-0.2c0.5-0.2,1.3-0.6,1.6-0.8c0.4-0.2,0.8-0.6,1-1c0.2-0.5,0.4-0.9,0.6-1.4
		c0-0.4-0.1-0.7-0.4-1c-0.2-0.3-0.5-0.5-0.8-0.8c-0.3-0.2-0.6-0.4-1-0.6c-0.3-0.1-0.4-0.7-0.4-1c0-0.4,0.1-0.8,0.4-1.1
		c0.3-0.2,0.6-0.4,0.8-0.7c0.2-0.3,0.7-0.9,0.8-1.2s0.7-1,1-1.4c0.3-0.5,0.5-1,0.8-1.5c0.2-0.3,0.3-0.9,0.5-1.2s0.3-1,0.4-0.9
		s0.2,0,0.1-0.2c-0.1-0.3,0-0.6,0.2-0.8c0.3-0.3,0.7-0.5,1.1-0.7c0.4-0.2,0.9-0.4,1.3-0.5c0.2,0.1,0.2,0.1,0.2-0.1s0.4-0.6,0.7-0.8
		c0.3-0.3,0.6-0.5,0.9-0.8c0.2-0.2,0.3-0.2,0.2-0.4s-0.2-0.3-0.2-0.5S90.3,91.7,90.6,91.7L90.6,91.7z M104.6,103.8
		c0.4,0.3,0.8,0.7,1.1,1.1c0.3,0.5,0.5,1,0.5,1.6c0,0.7-0.1,0.8-0.2,0.3c-0.1-0.4-0.2-0.9-0.4-1.3c-0.2-0.4-0.4-0.8-0.8-1.2
		C104.5,104.1,104.3,103.6,104.6,103.8z M100.8,103.6c0.2,0.3,0.4,0.7,0.4,1.1c0.1,0.6,0.1,1.1,0.2,1.7c0,0.6-0.2,0.8-0.3,0.2
		s-0.1-1-0.2-1.5c0-0.4-0.1-0.9-0.3-1.3C100.5,103.3,100.6,103.3,100.8,103.6L100.8,103.6z M93.4,103.7c0,0.3-0.1,1.1-0.2,1.6
		c0,0.4,0,0.7,0,1.1c0,0.4-0.2,0.4-0.2,0c-0.1-0.4-0.1-0.7-0.1-1.1c0.1-0.4,0.1-0.8,0.2-1.2C93.3,103.4,93.5,103.4,93.4,103.7
		L93.4,103.7z M132.8,83.6c0.2-0.1,0.5-0.1,0.7-0.1c0.4,0,0.7,0.1,1,0.4c0.2,0.3,0.4,0.7,0.4,1.1c0,0.3,0,0.6,0,0.8
		c0,0.2-0.1,0.2-0.4,0.2c-0.3-0.1-0.6-0.3-0.9-0.4c-0.4-0.2-0.6-0.5-0.9-0.8c-0.1-0.2-0.2-0.5-0.2-0.7
		C132.5,83.7,132.6,83.6,132.8,83.6L132.8,83.6z M138.6,88c0-0.4,0.1-0.8,0.3-1.1c0.3-0.4,0.7-0.7,1.2-1c0.4-0.3,0.8-0.6,1.1-0.9
		c0.4-0.3,0.8-0.7,1.1-1s0.3-0.2,0.3-0.2s0,0.1-0.1,0.3c-0.3,0.4-0.6,0.8-1,1.2c-0.4,0.4-0.8,0.8-1.2,1.1c-0.3,0.2-0.6,0.5-0.9,0.8
		c-0.2,0.2-0.3,0.5-0.4,0.8C139,88.3,138.6,88.4,138.6,88L138.6,88z M125.1,80.3c0.1-0.2,0.4-0.3,0.7-0.2c0.3,0.1,0.5,0.2,0.7,0.4
		c0.1,0.1,0.2,0.3,0.2,0.4c0,0.2,0,0.3-0.2,0.1c-0.1-0.1-0.3-0.3-0.4-0.3c-0.1-0.1-0.3-0.2-0.4,0.1c-0.1,0.1-0.2,0.1-0.3,0.1
		c-0.1,0-0.2-0.1-0.3-0.1C125.1,80.6,125.1,80.5,125.1,80.3z M132.3,84.2c0,0.1,0.1,0.4,0.1,0.6c0,0.2,0,0.3-0.1,0.5
		c-0.1,0.3-0.1,0.6-0.2,0.9c0,0.3-0.1,0.7-0.2,0.3c-0.1-0.3-0.1-0.7-0.1-1c0-0.3,0.1-0.6,0.2-0.9C132.2,84.4,132.3,84.1,132.3,84.2
		L132.3,84.2z M90.7,91.4c0.2,0,0.4,0,0.6,0c0.2,0,0.4-0.1,0.5-0.2c0-0.1,0-0.3-0.1-0.4c-0.1-0.2-0.2-0.4-0.4-0.5
		c-0.2-0.1-0.3-0.1-0.5-0.1c-0.2,0-0.4,0.1-0.2,0.2s0.2,0.2,0.2,0.3c0,0.1,0,0.3,0,0.4C90.8,91.3,90.7,91.4,90.7,91.4L90.7,91.4z
		 M92.9,91.3c0.1,0.1,0.2,0.2,0.4,0.2c0.1,0,0.3,0,0.4,0c0,0,0-0.1,0-0.3c0-0.2,0-0.4,0-0.6c0-0.2-0.1-0.3-0.2-0.4
		c-0.1-0.1-0.3-0.2-0.5-0.2c-0.1,0-0.3,0-0.2,0.1c0.1,0.1,0.2,0.2,0.2,0.4c0,0.1,0,0.3,0,0.4C93,91.2,92.9,91.3,92.9,91.3L92.9,91.3
		z M94.6,92.7c0.1,0.1,0.1,0.3,0.2,0.3c0.1,0.1,0.2,0.2,0.4,0.2c0,0,0.1-0.1,0.1-0.3c0.1-0.1,0.1-0.3,0.1-0.4c0-0.2,0-0.3-0.1-0.4
		c0-0.1-0.1-0.2-0.2-0.3c-0.1-0.1-0.2-0.2-0.2,0c0,0.1,0,0.2,0,0.3c0,0.1-0.1,0.2-0.2,0.3C94.8,92.6,94.6,92.7,94.6,92.7z
		 M94.4,92.9c0.2,0.3,0.4,0.5,0.7,0.7c0.1,0.1,0.1,0.3,0,0.5s-0.3,0.2-0.4,0.3s-0.3,0.3-0.6,0.5c-0.2,0.1-0.3,0.3-0.5,0.4
		c-0.2,0.2-0.4,0.3-0.6,0.3c-0.4,0.1-0.6,0.2-0.3-0.1c0.2-0.2,0.4-0.4,0.5-0.7c0.1-0.3,0.2-0.5,0.3-0.8c0.1-0.2,0.3-0.6,0.5-0.8
		s0.1-0.3,0.2-0.4S94.4,92.9,94.4,92.9z M105,95.5c0.1,0.3,0.2,0.7,0.2,1c0,0-0.2,0.1-0.4,0.2s-0.6,0.3-0.8,0.5s-0.6,0.3-0.8,0.5
		s-0.4,0.5-0.6,0.7c-0.1,0.2-0.2,0.4-0.3,0.7c-0.1,0.1-0.2,0.2-0.3,0c-0.2-0.3-0.4-0.5-0.6-0.7c-0.2-0.1-0.3-0.3-0.2-0.5
		c0.1-0.2,0.3-0.4,0.5-0.4c0.2-0.1,0.5-0.3,0.6-0.5c0.2-0.2,0.2-0.5,0.5-0.7c0.3-0.2,0.6-0.3,0.9-0.3c0.3-0.1,0.5-0.1,0.8-0.2
		C104.6,95.7,104.8,95.6,105,95.5L105,95.5z M102.8,99.5c0.4,0,0.8,0.2,1.1,0.4c0.2,0.2,0.3,0.2,0.5,0.1s0.2-0.3,0.2-0.5
		c0.1-0.3,0.2-0.6,0.4-0.8c0.2-0.1,0.3-0.2,0.5-0.4c0-0.5-0.1-1-0.2-1.5c-0.2,0.1-0.3,0.2-0.4,0.2c-0.2,0.2-0.5,0.3-0.8,0.4
		c-0.2,0.1-0.5,0.2-0.6,0.4c-0.2,0.2-0.3,0.5-0.4,0.7s-0.4,0.2-0.4,0.4S102.6,99.5,102.8,99.5L102.8,99.5z M102.6,99.7
		c0.2,0,0.3,0,0.5,0.1c0.2,0,0.3,0.1,0.4,0.2c0.1,0.1-0.1,0.1-0.2,0.2c-0.1,0.1-0.2,0.3-0.3,0.4c-0.1,0.1-0.1,0.2-0.1,0.4
		c0,0.1,0,0.2,0,0.3c0,0.1,0,0.2-0.1,0c-0.1-0.1-0.2-0.2-0.3-0.3c-0.1-0.1-0.2-0.3-0.2-0.5c-0.1-0.2-0.1-0.4,0-0.6
		C102.4,99.8,102.5,99.7,102.6,99.7L102.6,99.7z M101.2,98.5c0.1,0.1,0.3,0.1,0.4,0.3c0.1,0.1,0.2,0.3,0.3,0.5
		c0,0.1-0.1,0.1-0.2,0.1c-0.2,0.1-0.3,0.2-0.4,0.3c-0.1,0.1-0.1,0.3-0.1,0.4c0,0.2,0,0.2-0.1,0.1c-0.1-0.1-0.2-0.3-0.2-0.5
		c-0.1-0.2-0.1-0.4,0-0.7c0-0.1,0.1-0.3,0.2-0.4C101.1,98.5,101.1,98.5,101.2,98.5L101.2,98.5z M100.5,96.7c0.1,0.1,0.2,0.2,0.3,0.3
		c0.1,0.2,0.1,0.4,0.1,0.6c0,0.1-0.1,0.1-0.3,0.1c-0.1,0-0.3,0.1-0.4,0.2c-0.1,0.1-0.2,0.2-0.3,0.4c0,0.2-0.1,0.3-0.2,0.1
		c-0.1-0.2-0.1-0.4-0.1-0.6c0-0.2,0.1-0.4,0.2-0.6c0.1-0.1,0.2-0.2,0.3-0.3C100.4,96.7,100.4,96.6,100.5,96.7z M100.6,96.5
		c0.3,0.2,0.5,0.5,0.6,0.8c0,0.2,0.1,0.1,0.3,0c0.2-0.1,0.4-0.2,0.5-0.4c0.1-0.1,0.2-0.4,0.3-0.5c0.1-0.2,0.3-0.3,0.4-0.4
		c0.3-0.2,0.4-0.2,0-0.2s-0.4,0-0.7,0l-0.7,0.1c-0.2,0-0.4,0.1-0.6,0.1C100.6,96.1,100.6,96.3,100.6,96.5L100.6,96.5z M110.4,98.6
		c0.1,0.3,0.3,0.7,0.6,0.9c0.4,0.4,0.7,0.9,1,1.3c0.3,0.5,0.6,0.9,0.9,1.3c0.3,0.3,0.6,0.6,0.9,0.9c0.3,0.2,0.5,0.6,0.4,0.3
		c-0.1-0.3-0.2-0.7-0.2-1c0-0.4-0.1-0.7-0.2-1.1c-0.1-0.4-0.3-0.7-0.5-1c-0.3-0.2-0.5-0.4-0.8-0.6c-0.3-0.2-0.7-0.4-1-0.7
		S110.3,98.5,110.4,98.6L110.4,98.6z M114.6,103.9c0.1,0,0.6-0.1,1-0.1l1.4-0.3c0.3-0.1,0.5-0.1,0.8-0.1h0.7c0.3,0,0,0.1-0.2,0.3
		c-0.2,0.1-0.4,0.3-0.6,0.5c-0.2,0.3-0.4,0.5-0.6,0.7c-0.2,0.2-0.5,0.5-0.7,0.7c-0.3,0.2-0.5,0.4-0.5,0.4c-0.1-0.3-0.2-0.6-0.4-0.8
		c-0.2-0.2-0.4-0.6-0.6-0.8S114.4,103.9,114.6,103.9L114.6,103.9z M118.3,84.1c0.1,0.3,0.2,0.6,0.4,0.8c0.2,0.3,0.5,0.5,0.8,0.8
		c0.3,0.2,0.7,0.5,1.1,0.6c0.4,0.2,0.9,0.3,1.3,0.4c0.6,0.1,1.2,0.2,1.8,0.2c0.1-0.1,0.3-0.3,0.4-0.5c0.1-0.2,0.3-0.4,0.4-0.7
		c-0.2-0.1-0.5-0.1-0.7-0.1c-0.2,0.2-0.4,0.3-0.6,0.4c-0.2,0.1-0.2-0.3-0.2-0.5c-0.1-0.1-0.3-0.1-0.4-0.1c-0.4-0.1-0.7-0.1-1.2-0.2
		s-1-0.2-1.4-0.3c-0.4-0.1-0.7-0.2-1-0.4c-0.2-0.1-0.4-0.3-0.5-0.5C118.3,83.8,118.2,83.7,118.3,84.1L118.3,84.1z M137.3,84.1
		c0.5,0.2,0.9,0.5,1.2,0.9c0.1-0.3,0.2-0.6,0.2-0.9c0.1-0.4,0.2-1.1,0.2-1.5s0.1-0.7,0.2-1.1s-0.1-0.5-0.2-0.2
		c-0.2,0.3-0.4,0.6-0.6,0.9c-0.3,0.3-0.5,0.6-0.7,1C137.5,83.5,137.3,83.8,137.3,84.1L137.3,84.1z M131.3,82.3
		c0.3,0.2,0.7,0.3,1,0.4c0.3,0.1,0.7,0.1,1-0.1c-0.2-0.2-0.3-0.3-0.5-0.4c-0.3-0.1-0.6-0.2-0.9-0.1
		C131.3,82.3,131.1,82.2,131.3,82.3L131.3,82.3z M140.1,91.4c-0.1,0.8-0.2,1.5-0.5,2.2c-0.2,0.4,0,0.3,0.2,0.1
		c0.3-0.2,0.5-0.4,0.7-0.6c0.2-0.2,0.2-0.2,0.1-0.6s-0.2-0.6-0.4-0.9S140.1,91.1,140.1,91.4z M138.8,95.8c-0.4,1.1-0.9,2.2-1.4,3.2
		c-0.2,0.4,0,0.2,0.3,0s0.6-0.4,1-0.7s0.3-0.2,0.3-0.7s-0.1-0.9-0.1-1.3S138.9,95.6,138.8,95.8L138.8,95.8z M134,104.6
		c0.4-0.4,1.5-2.2,1.9-2.8s0.3-0.4,0.2,0.1c0,0.7,0,1.2-0.1,1.7s0,0.6-0.5,0.8c-0.4,0.2-0.9,0.3-1.3,0.4
		C133.9,104.8,133.8,104.8,134,104.6z M129.6,109.8c0.3-0.3,2.5-2.9,2.8-3.3s0.2-0.2,0.2,0.2s-0.3,1.7-0.4,2.1s-0.1,0.6-0.6,0.7
		s-0.9,0.3-1.5,0.4S129.3,110.1,129.6,109.8L129.6,109.8z M128,111.4c-0.2,0.3-0.6,0.6-0.8,0.8s-0.5,0.5-0.2,0.5s0.5,0,0.7,0
		s0.4,0.2,0.4-0.1s0-0.5,0.1-1S128.1,111.1,128,111.4L128,111.4z M96,109.8c0.3-0.2,0.6-0.3,0.9-0.3c0.2,0,0.1,0,0.2,0.1
		c0,0.2,0,0.3,0.1,0.5c0.1,0.2,0.1,0.2-0.1,0.1c-0.2-0.1-0.4-0.1-0.6-0.1H96C95.7,110.2,95.7,110,96,109.8L96,109.8z M124.9,85.8
		c0.3,0.1,0.5,0.2,0.8,0.4c0.2,0.1,0.6,0.3,0.9,0.5s0.6,0.4,1,0.7c0.4,0.3,0.7,0.5,1,0.8c0.2,0.2,0.6,0.6,0.9,0.8s0.5,0.5,0.8,0.9
		c0.3,0.3,0.6,0.6,0.9,0.9c0.3,0.2,0.7,0.6,0.9,0.7c0,0.2-0.1,0.3-0.2,0.5c-0.3-0.2-0.6-0.5-0.9-0.8c-0.3-0.3-0.6-0.7-0.9-1
		c-0.3-0.3-0.6-0.7-1-0.9c-0.6-0.5-1.2-0.9-1.9-1.3c-0.4-0.2-1.2-0.7-1.7-0.8s-0.7-0.2-1-0.3l0.1-0.5
		C124.7,86.3,124.8,85.8,124.9,85.8L124.9,85.8z M112.6,92.3c0.2-0.1,0.3-0.1,0.5-0.1c0.2,0,0.3,0.2,0.4,0.1
		c0.1-0.2,0.2-0.5,0.1-0.7c0-0.1-0.2-0.1-0.5,0c-0.3,0.1-0.5,0.3-0.6,0.5C112.3,92.5,112.5,92.4,112.6,92.3L112.6,92.3z M113.7,89.4
		c0.2,0,0.3,0,0.5,0.1c0.2,0.1,0.3,0.4,0.3,0.4c0.3-0.1,0.6-0.4,0.6-0.8c0-0.1-0.1-0.1-0.3-0.2c-0.2,0-0.4,0-0.7,0
		c-0.2,0-0.4,0.1-0.5,0.2C113.5,89.3,113.4,89.5,113.7,89.4L113.7,89.4z M115.9,88c0.2,0,0.4,0,0.6,0c0.2,0,0.3,0.1,0.4,0.3
		c0.1,0.1,0.3,0.3,0.2,0.3c-0.2,0-0.5,0.1-0.6,0.3c0,0-0.1-0.2-0.2-0.3c-0.1-0.1-0.2-0.2-0.3-0.3l-0.2-0.1
		C115.6,88.1,115.7,88.1,115.9,88"/>
	
		<path id="path22" style="clip-path:url(#SVGID_00000083088405204746716230000016573975515675240374_);fill-rule:evenodd;clip-rule:evenodd;fill:#EDC282;" d="
		M100.6,23.1c0,0.3,0.1,0.6,0.2,0.8c0.1,0.3,0.3,0.7,0.4,1c0.2,0.3,0.2,0.4,0.3,0.3s0.1-0.2,0.1,0c0,0.2,0.1,0.4,0.2,0.6
		c0.1,0.2,0.2,0.5,0.4,0.7s0.2,0.3,0.3,0.5c0.1,0.2,0.2,0.4,0.3,0.6c0,0.2,0,0.3,0,0.5c0,0.2-0.1,0.6-0.2,0.8s-0.2,0.6-0.3,0.8
		s-0.1,0.5-0.2,0.8s-0.4,0.7-0.5,1s-0.4,0.7-0.7,1s-0.5,0.8-0.8,1.1c-0.3,0.3-0.6,0.6-0.9,0.8c-0.3,0.2-0.6,0.4-0.9,0.5
		c-0.3,0.1-0.6,0.2-0.9,0.2c-0.4,0-0.8-0.1-1.2-0.3c-0.3-0.2-0.6-0.5-0.9-0.8c-0.2-0.3-0.5-0.6-0.7-0.9c-0.2-0.3-0.3-0.6-0.4-1
		c-0.1-0.5-0.2-1-0.2-1.5c0-0.5,0-0.9,0-1.3c0-0.3,0-0.6,0.1-0.9c0-0.2,0.1-0.3,0.2-0.5l0.6-0.9c0.1-0.3,0.2-0.5,0.3-0.8
		c0.1-0.3,0.3-0.6,0.5-0.9c0.1-0.2,0.1-0.2,0.4-0.3s0.5-0.4,0.8-0.6c0.2-0.1,0.4-0.2,0.7-0.2c0.2,0,0.3,0,0.3,0.1s-0.1,0.3,0.2,0.2
		c0.3,0,0.7-0.1,1-0.2c0.3-0.1,0.6-0.3,0.8-0.5c0.2-0.2,0.4-0.4,0.6-0.6C100.5,23.4,100.6,23.3,100.6,23.1L100.6,23.1z M97.4,29.7
		c-0.1,0-0.2,0.1-0.3,0.2C97,30,97,30.2,97,30.3c0,0.2,0,0.3,0.2,0.4c0.2,0,0.3,0.1,0.5,0.2c0.2,0.1,0.3,0.2,0.5,0.3
		c0.2,0.1,0.3,0.1,0.5,0.1c0.1,0,0.2,0,0.4,0c0.1,0.1,0.2,0.1,0.3,0c0.1-0.1,0.2-0.3,0.3-0.5c0-0.1,0-0.3,0-0.5
		c-0.1-0.1-0.1-0.2-0.1-0.1s0,0.3,0,0.4c0,0.1-0.1,0.3-0.1,0.4c-0.2,0.2-0.3,0.1-0.5,0.1s-0.4,0-0.5,0c-0.2,0-0.3-0.1-0.4-0.2
		c-0.1-0.1-0.2-0.2-0.4-0.2c-0.1,0-0.2,0-0.2-0.2c0-0.1,0-0.3,0-0.4c0-0.1,0.1-0.2,0.2-0.2s0.2,0,0.2-0.1S97.5,29.7,97.4,29.7
		L97.4,29.7z M96.3,32H97h0.4c0.1,0,0.2,0,0.3,0.1c0.1,0.1,0.2,0.2,0.4,0.2c0.2,0,0.2,0,0.3,0.1l0.3,0.4c0.1,0.1,0.1,0.2,0.2,0.3
		s0,0.1-0.1,0.1c-0.2,0-0.3-0.1-0.5-0.2c-0.1-0.1-0.2-0.1-0.4-0.1c-0.2,0-0.4-0.1-0.5-0.2c-0.1-0.1-0.2-0.2-0.4-0.2
		c-0.2,0-0.3-0.1-0.5-0.2s-0.4-0.2-0.3-0.2L96.3,32z M97.5,33.2l0.5,0.2c0.1,0,0.1,0,0.1,0.1c0,0.1,0,0.1,0,0.2c0,0.1,0,0.1-0.1,0
		c-0.2-0.1-0.3-0.2-0.5-0.2c-0.2,0-0.3-0.1-0.5-0.1c-0.2,0-0.3,0-0.4,0s-0.2-0.1,0-0.2c0.1,0,0.2-0.1,0.3-0.2c0.1,0,0.1,0,0.2,0
		L97.5,33.2L97.5,33.2z M98.6,26.7c0.2,0,0.2-0.1,0-0.2L98,26.1l-0.6-0.3c-0.1-0.1-0.2-0.1-0.3-0.1c-0.2,0-0.3,0-0.5,0
		c-0.2,0-0.3,0-0.5,0.1c-0.2,0-0.4,0.2-0.1,0.2c0.2,0,0.5,0,0.7,0c0.2,0,0.3,0.1,0.5,0.1c0.1,0.1,0.3,0.2,0.4,0.3
		c0.1,0.1,0.3,0.2,0.4,0.3c0.2,0.1,0.2,0.1,0.3,0.1C98.4,26.7,98.5,26.7,98.6,26.7L98.6,26.7z M100.5,27.3c0.1-0.1,0.3-0.2,0.4-0.2
		c0.3,0,0.6,0.1,0.8,0.1c0.2,0,0.5,0.1,0.7,0.2c0.1,0.1,0.2,0.2,0.3,0.4c0.1,0.1,0.1,0.4,0,0.3c-0.1-0.1-0.2-0.2-0.4-0.3
		c-0.2-0.1-0.3-0.1-0.5-0.2c-0.2,0-0.4-0.1-0.6-0.1c-0.2,0-0.4,0-0.5-0.1C100.6,27.5,100.4,27.4,100.5,27.3L100.5,27.3z M100.2,27.5
		c-0.2,0.1-0.3,0.2-0.5,0.3c-0.1,0.2-0.2,0.4-0.3,0.6c-0.1,0.2-0.2,0.6-0.2,0.8s0,0.4-0.1,0.5c0,0.1,0,0.2,0,0.4
		c0,0.1,0.1,0.3,0.1,0.1c0-0.2,0-0.5,0.1-0.7c0.1-0.3,0.1-0.6,0.2-0.8c0.1-0.3,0.2-0.5,0.3-0.8c0.1-0.1,0.1-0.2,0.2-0.3
		C100.1,27.6,100.3,27.4,100.2,27.5L100.2,27.5z M97.9,27.6c-0.1-0.3-0.3-0.5-0.6-0.7c-0.2-0.1-0.4-0.2-0.7-0.2
		c-0.2,0-0.4,0-0.5,0.1c-0.2,0-0.2,0.1-0.1,0.2c0.1,0.1,0.1,0.3,0.2,0.4c0.2,0.2,0.4,0.3,0.6,0.3c0.2,0,0.4,0.1,0.6,0.1
		c0.2,0,0.3,0,0.4,0s0.2,0,0.2,0S98,27.7,97.9,27.6L97.9,27.6z M100.3,28.4c0.2-0.2,0.5-0.3,0.8-0.2c0.2,0,0.4,0.1,0.6,0.2
		c0.2,0.1,0.3,0.2,0.4,0.4c0.1,0.2,0.1,0.2,0,0.3c-0.1,0.1-0.3,0.1-0.4,0.1c-0.2,0-0.4,0-0.6-0.1c-0.2-0.1-0.4-0.1-0.5-0.2
		c-0.1-0.1-0.2-0.1-0.3-0.2c-0.1,0-0.2-0.1-0.2-0.1S100.2,28.4,100.3,28.4L100.3,28.4z M64.9,58.9c0.1,0.2,0.4,0.7,0.6,1.1
		s0.4,0.8,0.5,1.1l0.2,0.6c-0.1,0.2-0.2,0.3-0.3,0.4c-0.2,0.2-0.5,0.4-0.7,0.6c-0.4,0.1-0.7,0.2-1.1,0.3c0-0.2-0.1-0.7-0.2-1
		s-0.1-0.6-0.2-0.8c0-0.1-0.1-0.2-0.1-0.3c0.1,0,0.2,0.1,0.4,0.1c0.2,0,0.4,0,0.6,0c0.2-0.1,0.2-0.1,0.1-0.1c-0.3,0-0.5,0-0.8-0.1
		c-0.3-0.1-0.5-0.1-0.8-0.2c-0.2-0.1-0.4-0.3-0.6-0.5c-0.1-0.1-0.2-0.3-0.2-0.3c0-0.1,0-0.2,0.1-0.2c0,0,0.1-0.2,0.2-0.2
		c0.1-0.2,0-0.2-0.1,0c-0.1,0-0.1,0.1-0.2,0.2c-0.2,0.2,0,0.3-0.2,0.4C62,59.9,61.8,60,61.7,60c-0.1,0-0.3,0-0.4-0.1
		c-0.1-0.1-0.1-0.2-0.3-0.2s-0.2,0-0.1,0.1c0.3,0.1,0.4,0.3,0.4,0.6c0,0.2,0,0.3-0.1,0.4C61.1,60.9,61,61,60.8,61
		c-0.1,0-0.2-0.2-0.2-0.4c0-0.1,0-0.3,0-0.4c-0.1-0.2,0-0.3-0.1-0.6c-0.1-0.2,0-0.3,0.2-0.4c0,0,0,0,0,0c0.2-0.1,0.7-0.2,0.8-0.3
		c0.2-0.1,0.5-0.2,0.8-0.2c0.3,0,0.7,0,1,0c0.2,0,0.5,0.1,0.7,0.1c0.2,0,0.4,0.1,0.6,0.1C64.7,58.9,64.9,59,64.9,58.9L64.9,58.9z
		 M60.8,63.2c-0.1,0.1-0.1,0.3,0,0.5s0.1,0.2,0.3,0.3c0.2,0,0.3,0,0.5,0c0.2,0,0.5-0.1,0.7-0.2c0.2-0.1,0.3-0.2,0.5-0.3
		c0.1-0.1,0.1-0.2,0.1-0.3c0-0.1-0.1-0.2-0.2-0.3c-0.2,0-0.4,0-0.6,0c-0.2,0.1-0.5,0.1-0.8,0.2C61.1,63.1,61,63.2,60.8,63.2z
		 M60.1,62.2c0.2-0.1,0.3-0.2,0.5-0.2l0.5-0.1c0.2-0.1,0.5-0.1,0.7-0.2c0.2,0,0.4-0.1,0.7,0c0.2,0,0.3,0.1,0.4,0.3
		c0.1,0.2,0,0.4-0.1,0.5c-0.2,0.1-0.4,0.2-0.6,0.3l-0.8,0.2L60.9,63c-0.2,0.1-0.4,0.1-0.5,0c-0.1-0.1-0.3-0.2-0.3-0.4
		C60,62.5,60,62.3,60.1,62.2L60.1,62.2z M60,60.8c0.1-0.1,0.3-0.1,0.5-0.2c0,0.3,0.1,0.5,0.4,0.5c0.3-0.1,0.6-0.3,0.7-0.6
		c0.2,0,0.5,0,0.8,0c0.2,0,0.4,0.2,0.4,0.4c0,0.2,0.1,0.4-0.1,0.5c-0.2,0.1-0.4,0.2-0.7,0.2l-1,0.2c-0.3,0.1-0.6,0.2-0.8,0.2
		c-0.1,0-0.2,0-0.3,0c-0.1-0.1-0.2-0.2-0.2-0.4c0-0.2,0-0.3,0-0.5c0.1-0.1,0.2-0.2,0.3-0.2L60,60.8z M59.6,60.6
		c0.1,0.1,0.3,0.1,0.4,0c0.2,0,0.3-0.1,0.5-0.2c0-0.1,0-0.3-0.1-0.4c-0.1-0.2-0.1-0.4-0.1-0.6c-0.1,0-0.2,0-0.4,0.1
		c-0.2,0.1-0.4,0.3-0.4,0.5C59.6,60.3,59.6,60.5,59.6,60.6L59.6,60.6z M61.5,60.3c0-0.1,0-0.2,0-0.3h0.3c0.1,0,0.2,0,0.2-0.1
		c0,0,0,0.1,0,0.1c0,0.1-0.1,0.2-0.2,0.2C61.7,60.2,61.6,60.3,61.5,60.3L61.5,60.3z M118.7,49c0.1,0.3,0.2,0.6,0.4,0.9
		c0.2,0.3,0.5,0.8,0.6,1s0.2,0,0.4,0c0.2,0,0.5,0,0.7,0.1c0.2,0,0.5,0,0.7,0l0.7-0.1c0.2,0,0.3-0.1,0.5,0c0.2,0,0.5,0,0.7,0.1
		s0.5,0.1,0.8,0.2c0.2,0,0.4,0,0.6,0c0.2,0,0.3-0.1,0.4-0.3c0.1-0.2,0-0.3-0.1-0.4c-0.2-0.1-0.4-0.3-0.6-0.3c-0.2,0-0.3-0.1-0.5-0.1
		c-0.2,0-0.4-0.1-0.5-0.2c-0.2-0.1-0.3-0.2-0.4-0.3c-0.1-0.1-0.2-0.2-0.2-0.3c-0.1-0.2-0.1-0.2,0-0.2s0.2-0.1,0.2-0.2
		c0-0.2,0.1-0.3,0.2-0.5c0.1-0.2,0.2-0.2,0.4-0.3c0.2-0.1,0.3-0.1,0.4-0.2c0.1-0.1,0.2-0.2,0.2-0.2c0.1-0.1,0.2-0.1,0.1,0
		c0,0.1-0.1,0.2-0.2,0.3c-0.1,0.2,0,0.2,0.3,0.2c0.2,0,0.4,0,0.6,0c0.1,0,0.3,0,0.4,0c0.2,0,0.2,0,0.1,0c-0.1,0.1-0.2,0.1-0.3,0.1
		c-0.2,0-0.3,0-0.2,0.2c0.1,0.1,0.1,0.3,0.2,0.4c0.1,0.1,0.1,0.2,0.1,0.3c0.2,0.1,0.3,0.2,0.5,0.3c0.1,0.1,0.2,0.2,0.3,0.4
		c0.1,0.2,0.2,0,0.2-0.2s0.1-0.4,0.1-0.5c0-0.2,0-0.4-0.1-0.6c-0.1-0.2-0.3-0.6-0.3-0.8c-0.1-0.2-0.2-0.4-0.3-0.5
		c-0.2-0.1-0.3-0.2-0.6-0.3c-0.2-0.1-0.5-0.2-0.8-0.3s-0.5-0.1-0.8-0.2c-0.3-0.1-0.6-0.2-0.8-0.2c-0.2,0-0.5,0.2-0.6,0.3
		c-0.2,0.2-0.8,0.7-1.1,0.9s-0.5,0.4-0.8,0.6c-0.2,0.2-0.5,0.4-0.8,0.5C119.1,48.8,118.6,48.9,118.7,49"/>
	
		<path id="path24" style="clip-path:url(#SVGID_00000083088405204746716230000016573975515675240374_);fill-rule:evenodd;clip-rule:evenodd;fill:#FAE042;" d="
		M115.7,70.1c2,0,3.6,0.4,3.6,0.8s-1.6,0.8-3.6,0.8s-3.6-0.4-3.6-0.8S113.7,70.1,115.7,70.1z M115.7,74.1c1.9,0,3.5-1.1,3.7-2.5
		c-1.3,0.4-2.6,0.6-4,0.6c-1.2,0-2.3-0.2-3.4-0.6C112.2,73,113.8,74.1,115.7,74.1z M134.1,70.1c-2,0-3.6,0.4-3.6,0.8
		s1.6,0.8,3.6,0.8s3.6-0.4,3.6-0.8S136.1,70.1,134.1,70.1z M134.1,74.1c-1.9,0-3.5-1.1-3.7-2.5c1.3,0.4,2.6,0.6,4,0.6
		c1.2,0,2.3-0.2,3.4-0.6C137.6,73,136,74.1,134.1,74.1z M126.3,58c0.1,0.1,0.1,0.1,0.2,0.2c-0.2,0.3-0.3,0.7-0.4,0.9
		c1.6,0,4.1,0.1,4.6,0.1c0.6,0,3,0.3,3.5,0.2s0.7-0.3,1-0.8s0.6-1.2,0.2-1.1s-0.7,0.8-0.9,1.1s-0.5,0.2-1.2,0.2s-2.4-0.4-3.7-0.5
		C128.7,58.2,127.4,58,126.3,58L126.3,58z M123.4,58c-1.1,0.1-2.3,0.2-3.2,0.2c-1.3,0.1-3,0.5-3.7,0.5s-1,0.1-1.2-0.2s-0.5-1-1-1.1
		s-0.1,0.6,0.2,1.1s0.5,0.8,1,0.8s2.8-0.2,3.5-0.2c0.5,0,2.9-0.1,4.6-0.1c-0.1-0.3-0.3-0.7-0.4-0.9C123.2,58.1,123.3,58.1,123.4,58z
		 M124.9,61.2L124.9,61.2c0,0-0.9-2.1-1-2.5s-0.2-0.3,0-0.5c0.3-0.5,0.5-1.1,0.5-1.7c0.1-0.6,0.1-1.2,0.1-1.8c0-0.5-0.1-2.2-0.1-2.5
		c-0.1-0.3-0.2-0.6-0.3-0.8c0.3,0,0.5,0,0.8,0c0.4-0.1,0.7-0.3,0.7-0.5c0-0.2-0.1-0.5-0.3-0.7c-0.2-0.2-0.5-0.3-0.8-0.3
		c0.1-0.1,0.3-0.2,0.5-0.2l0,0c0.6,0,1,0.4,1,1c0,0.5-0.4,1.1-0.5,1.5s-0.1,2.1-0.1,2.5c0,0.6,0,1.2,0.1,1.8
		c0.1,0.6,0.3,1.2,0.5,1.7c0.2,0.2,0.2,0.1,0.1,0.5S124.9,61.1,124.9,61.2L124.9,61.2z M124.9,58c0.4,0,0.6,0.3,0.6,0.6
		c0,0.4-0.3,0.6-0.6,0.6c-0.4,0-0.6-0.3-0.6-0.6c0,0,0,0,0,0C124.3,58.3,124.5,58,124.9,58L124.9,58z M98.7,16.7
		c5.6,0,10,4.5,10,10.1c0,4.1-2.5,7.7-6.2,9.3c0.1-0.3,0.3-0.5,0.5-0.8c0.6-0.6,1.2-1.3,1.6-2.1c0.3-1,0.5-1.9,0.4-3
		c0-0.9-0.1-1.8-0.1-2.6c0.1-0.9,0.2-1.8,0.1-2.8c-0.1-0.8-0.3-1.7-0.8-2.4c-0.5-0.6-1.1-1.2-1.8-1.6c-0.8-0.4-1.1,0.1-1.2,0.1
		s-0.1-0.6-0.9-0.8c-1.3-0.2-2.6,0.3-3.9,0.5c-1,0.3-1.8,1-2.2,2c-0.6,1.1-1.2,2.1-1.7,3.2c-0.6,1.4-1.3,1.5-1.6,2.5
		c-0.3,0.8-0.5,1.7-0.5,2.5c-0.1,0.5-0.1,1.1-0.1,1.5c-3.1-4.6-1.9-10.8,2.6-13.9C94.6,17.4,96.6,16.8,98.7,16.7L98.7,16.7z
		 M52.4,27.6c-0.2,0.1-0.3,3.9,0.4,6.3l6.3,22.6l0.4,1.3c0.5-0.1,1.1-0.2,1.6-0.4c0.5-0.2,1-0.3,1.5-0.5l-0.4-1.3L55.4,33
		C54.7,30.6,52.6,27.5,52.4,27.6L52.4,27.6z M61.3,58.3c-1.7,0.5-3.4,0.8-5.1,1.2l-0.6-1.3c1.1,0.1,2.2,0.1,3.3,0
		c0.9-0.2,1.8-0.4,2.2-0.5s1.2-0.4,2.1-0.7c1-0.5,2-1,2.8-1.7l0.3,1.3C64.6,57.2,63,57.8,61.3,58.3L61.3,58.3z M63.2,64.8
		c0.5-0.1,1,0.4,1.1,0.9c0.1,0.5-0.4,1-0.9,1.1c-0.5,0-0.9-0.2-1-0.7C62.2,65.5,62.6,64.9,63.2,64.8z M62.3,65.1
		c0.2-0.2,0.5-0.4,0.8-0.5c0.3-0.1,0.7-0.1,1.1,0c0,0-0.1-0.5-0.1-0.7s-0.1-0.8-0.2-1.1s-0.2-1.1-0.3-1.3s-0.1-0.4-0.2-0.5
		s-0.1,0-0.2,0c-0.1,0-0.1-0.1-0.2-0.1c0,0.1,0,0.2,0,0.4c0,0.1,0,0.2-0.1,0.3c-0.2,0.1-0.2,0.1,0,0.2c0.2,0,0.3,0.2,0.4,0.4
		c0,0.2,0,0.4-0.1,0.5c-0.1,0.1-0.1,0.1-0.2,0.2c-0.2,0.1-0.2,0.1,0,0.1S63,63,63,63.2c0,0.1,0,0.3-0.1,0.4
		c-0.1,0.1-0.3,0.2-0.4,0.3C62.3,63.9,62.2,64,62,64c-0.2,0-0.3,0-0.3,0c0.1,0.2,0.2,0.5,0.3,0.7C62.1,64.8,62.2,64.9,62.3,65.1"/>
	<path style="clip-path:url(#SVGID_00000083088405204746716230000016573975515675240374_);fill:#FFFFFF;" d="M77.4,99.4
		c-12.6,0-22.9,10.2-22.9,30.5c0,25.4,18.2,50.9,40.7,50.9s40.7-25.4,40.7-50.9c0-20.3-10.2-30.5-22.9-30.5
		c-6.9,0-13.5,3.1-17.8,8.5C90.9,102.5,84.3,99.4,77.4,99.4z"/>
	<path style="clip-path:url(#SVGID_00000083088405204746716230000016573975515675240374_);fill:#FFFFFF;" d="M27.8,112.6h134.7
		c3,0,5.5,2.4,5.5,5.5v44c0,3-2.4,5.5-5.5,5.5H27.8c-3,0-5.5-2.4-5.5-5.5v-44C22.4,115.1,24.8,112.6,27.8,112.6z"/>
	<g style="clip-path:url(#SVGID_00000083088405204746716230000016573975515675240374_);enable-background:new    ;">
		<text transform="matrix(1 0 0 1 34.17 136.35)" class="st9 st10 st11">Biała Podlaska</text>
	</g>
	<g style="clip-path:url(#SVGID_00000083088405204746716230000016573975515675240374_);enable-background:new    ;">
		<text transform="matrix(1 0 0 1 44.01 160.04)" class="st9 st10 st11">Baranavichy</text>
	</g>
	<path style="clip-path:url(#SVGID_00000083088405204746716230000016573975515675240374_);fill:#D3302F;" d="M44.9,0h-29H0v16
		c0,7,0,14,0,21c10.3,12.3,28.7,14,41,3.7c6.6-5.5,10.5-13.7,10.4-22.4C51.4,11.6,49.1,5.2,44.9,0z"/>
	<g style="clip-path:url(#SVGID_00000083088405204746716230000016573975515675240374_);enable-background:new    ;">
		<text transform="matrix(1 0 0 1 15.54 31.75)" class="st13 st10 st14">29</text>
	</g>
</g>
</svg>
