<?xml version="1.0" encoding="utf-8"?>
<!-- Generator: Adobe Illustrator 26.0.1, SVG Export Plug-In . SVG Version: 6.00 Build 0)  -->
<svg version="1.1" id="Слой_1" xmlns="http://www.w3.org/2000/svg" xmlns:xlink="http://www.w3.org/1999/xlink" x="0px" y="0px"
	 viewBox="0 0 195.6 280.6" style="enable-background:new 0 0 195.6 280.6;" xml:space="preserve">
<style type="text/css">
	.st0{clip-path:url(#SVGID_00000021090038028749065880000013993327302674147718_);fill:#3377BC;}
	.st1{clip-path:url(#SVGID_00000112630396610695755360000013695437554586287523_);}
	.st2{clip-path:url(#SVGID_00000183207468683262538200000004337927840903932853_);}
	.st3{fill:#FFDC24;}
	.st4{fill:#1A1A1A;}
	.st5{fill:#3377BC;}
	.st6{fill:#1F57A4;}
	.st7{fill:#F1AD11;}
	.st8{fill:#FFFFFF;}
	.st9{fill:#AF1739;}
	.st10{fill:#EB5775;}
	.st11{fill:#BADBE9;}
	.st12{fill:#8BB0CC;}
	.st13{fill:#F293A2;}
	.st14{fill:#3E3E3E;}
	.st15{fill:#595959;}
	.st16{fill:#797979;}
	.st17{fill:#EB5A53;}
	.st18{clip-path:url(#SVGID_00000000934644377404326940000014430456946655784619_);fill:#FFDC24;}
	.st19{enable-background:new    ;}
</style>
<g>
	<g>
		<defs>
			<rect id="SVGID_1_" width="195.6" height="280.6"/>
		</defs>
		<clipPath id="SVGID_00000048469258332619767090000001666135126570601630_">
			<use xlink:href="#SVGID_1_"  style="overflow:visible;"/>
		</clipPath>
		
			<rect x="-37.2" y="-43.7" style="clip-path:url(#SVGID_00000048469258332619767090000001666135126570601630_);fill:#3377BC;" width="257.2" height="357.2"/>
	</g>
	<g>
		<defs>
			<rect id="SVGID_00000025409964244372435800000009867838853118360716_" width="195.6" height="280.6"/>
		</defs>
		<clipPath id="SVGID_00000069382326093701926750000003898187329557475226_">
			<use xlink:href="#SVGID_00000025409964244372435800000009867838853118360716_"  style="overflow:visible;"/>
		</clipPath>
		<g style="clip-path:url(#SVGID_00000069382326093701926750000003898187329557475226_);">
			<g>
				<defs>
					<rect id="SVGID_00000147216759886824378510000012226583128363280313_" x="-5.5" y="-8" width="213.7" height="298.4"/>
				</defs>
				<clipPath id="SVGID_00000142164806700491339790000012841112057645783216_">
					<use xlink:href="#SVGID_00000147216759886824378510000012226583128363280313_"  style="overflow:visible;"/>
				</clipPath>
				<g style="clip-path:url(#SVGID_00000142164806700491339790000012841112057645783216_);">
					<path class="st3" d="M47.8,221.3c-3.5,0-6.5-1.9-8.8-5.7c-1.4-2.5-2.5-5.1-3.2-7.8c-0.4-1.5-0.8-3.2-1.2-4.9
						c-2.2,0.2-4.3,0.3-6.5,0.3c-2.1,0-4.3-0.1-6.5-0.3c-0.3,1.7-0.7,3.4-1.1,4.9c-0.7,2.7-1.8,5.4-3.2,7.8
						c-2.3,3.8-5.2,5.7-8.8,5.7s-6.5-1.9-8.8-5.7c-1.4-2.5-2.5-5.1-3.2-7.8c-1.3-4.6-2-9.3-2.4-14.1c-13.5-8.2-23.6-21-28.3-36.1
						c-0.4,0.3-0.8,0.6-1.2,0.8c-1.9,1.2-4,1.9-6.2,2c-1.5,0-2.9-0.4-4.2-1.1c-3.1-1.7-4.8-4.8-5-9.2c-0.1-2.8,0.2-5.7,0.9-8.4
						c1.4-6,3.5-11.8,6.4-17.3c3-5.6,6.4-9.1,10.6-10.8l0.6-0.2c2.5-6.1,5.8-11.7,10-16.8c-1.1-2.8-1.6-5.7-1.6-8.7
						c0-6.7,2.8-13.1,7.7-17.7c0-0.5,0-1,0-1.5c0-13.3,10.8-24.1,24.1-24.1h0.4c5-5.6,12.2-8.8,19.7-8.9h0.2
						c7.5,0,14.7,3.3,19.7,8.9h0.4c13.3,0,24.1,10.8,24.1,24.1c0,0.5,0,1,0,1.5c7.3,6.7,9.7,17.2,6.1,26.4
						c6.4,7.7,10.9,16.8,13.2,26.6c1.3,1.2,2.5,2.6,3.6,4l0.1-0.2c1.9-4.7,4.3-8.1,7.1-10.3c3.8-13.3,11.6-25.2,22.3-33.9
						c-7-7.5-11.4-17-12.6-27.1l-1.6-12.2l11.5,4c0.4,0.1,3.4,1.1,7.3,2l-2.7-7.3l13.8,3.3c5.3,1.2,10.6,2,16,2.2
						c2.2,0.1,4.4,0.2,6.6,0.3c3.3,0.1,6.7,0.2,10.4,0.5c9.1,0.7,16.2,3.5,21,8.4c5.1,5.4,7.4,12.7,6.4,20.1
						c14.6,8.6,25.5,22.4,30.4,38.6c0.5,0.2,0.9,0.5,1.4,0.8c3.8,2.5,6.6,6.7,8.5,12.9c1.8,6.1,2.8,12.4,3,18.8
						c0.1,2.9-0.1,5.8-0.8,8.7c-1.1,4.4-3.4,7.1-6.8,8.2c-0.8,0.3-1.7,0.4-2.6,0.4c-2.2-0.1-4.3-0.8-6-2.1
						c-5.6,12.1-14.7,22.2-26.1,29.1c-0.3,4.9-1.1,9.8-2.4,14.6c-0.7,2.8-1.8,5.5-3.2,8.1c-2.3,3.9-5.3,5.8-8.9,5.8s-6.6-2-8.9-5.8
						c-1.4-2.5-2.5-5.2-3.2-8.1c-0.4-1.6-0.9-3.4-1.2-5.2c-4.5,0.5-9.1,0.5-13.7,0c-0.4,1.8-0.8,3.6-1.2,5.2
						c-0.7,2.8-1.8,5.5-3.2,8.1c-2.3,3.9-5.3,5.8-8.9,5.8s-6.6-2-8.9-5.8c-1.4-2.5-2.5-5.2-3.2-8.1c-1.3-4.8-2.1-9.6-2.4-14.6
						c-11.8-7.2-21.1-17.8-26.7-30.4c-1.7,1.1-3.7,1.7-5.7,1.8c-0.8,0-1.6-0.1-2.3-0.3c-1.6-0.1-3.2-0.4-4.7-1
						c-1.2-0.5-2.4-1.1-3.6-1.8c-5.1,13.8-14.8,25.5-27.3,33.2c-0.3,4.8-1.1,9.5-2.4,14.1c-0.7,2.7-1.8,5.4-3.2,7.8
						C54.3,219.3,51.3,221.3,47.8,221.3z"/>
					<path class="st3" d="M16.4,189.4c0,10.4-3.5,25.2-7.7,25.2s-7.8-14.8-7.8-25.2s4.6-12.5,7.8-12.5S16.4,179,16.4,189.4z"/>
					<path class="st4" d="M8.7,174.8c-2.6,0-5,1.1-6.7,3.1c-2,2.4-3.2,6-3.2,11.5c0,5.8,0.8,11.5,2.3,17.1c0.6,2.4,1.5,4.6,2.7,6.7
						c1.1,1.8,2.6,3.5,4.9,3.5s3.8-1.7,4.9-3.5c1.2-2.1,2.1-4.4,2.7-6.7c1.5-5.6,2.3-11.3,2.4-17.1c0-5.5-1.2-9.2-3.2-11.5
						C13.7,175.9,11.2,174.8,8.7,174.8z M8.7,179.1c1.3,0,2.6,0.5,3.4,1.6c1.1,1.3,2.2,3.9,2.2,8.7c-0.1,5.4-0.8,10.7-2.2,15.9
						c-0.5,2-1.3,3.9-2.2,5.7c-0.3,0.5-0.7,1-1.2,1.4c-0.5-0.4-0.9-0.8-1.2-1.4c-1-1.8-1.7-3.7-2.2-5.7c-1.4-5.2-2.1-10.5-2.2-15.9
						c0-4.9,1.1-7.4,2.2-8.7C6.1,179.6,7.3,179,8.7,179.1L8.7,179.1z"/>
					<path class="st3" d="M55.6,189.4c0,10.4-3.5,25.2-7.7,25.2s-7.8-14.8-7.8-25.2s4.6-12.5,7.8-12.5S55.6,179,55.6,189.4
						L55.6,189.4z"/>
					<path class="st4" d="M47.8,174.8c-2.6,0-5,1.1-6.7,3.1c-2,2.4-3.2,6-3.2,11.5c0,5.8,0.8,11.5,2.3,17.1c0.6,2.4,1.5,4.6,2.7,6.7
						c1.1,1.8,2.5,3.5,4.9,3.5s3.8-1.7,4.9-3.5c1.2-2.1,2.1-4.4,2.7-6.7c1.5-5.6,2.3-11.3,2.3-17.1c0-5.5-1.2-9.2-3.2-11.5
						C52.9,175.9,50.5,174.8,47.8,174.8L47.8,174.8z M47.8,179.1c1.3,0,2.6,0.5,3.4,1.6c1.1,1.3,2.2,3.9,2.2,8.7
						c-0.1,5.4-0.8,10.7-2.2,15.9c-0.5,2-1.2,3.9-2.2,5.7c-0.3,0.5-0.7,1-1.2,1.4c-0.5-0.4-0.9-0.8-1.2-1.4c-1-1.8-1.7-3.7-2.2-5.7
						c-1.4-5.2-2.1-10.5-2.2-15.9c0-4.9,1.1-7.4,2.2-8.7C45.2,179.6,46.5,179,47.8,179.1L47.8,179.1z"/>
					<path class="st5" d="M90.2,131.4c6.3,8.2,12.6,22.1,9.2,24.7s-15.1-7-21.5-15.3s-4-12.7-1.4-14.6S83.9,123.2,90.2,131.4z"/>
					<path class="st4" d="M75.1,124.5c-2.1,1.6-3.3,4-3.4,6.6c-0.2,3.1,1.1,6.7,4.5,11.1c3.6,4.5,7.7,8.6,12.3,12.1
						c1.9,1.5,4,2.8,6.2,3.7c2,0.8,4.2,1.2,6-0.2s2-3.6,1.7-5.8c-0.4-2.4-1-4.8-2-7c-2.2-5.3-5.1-10.4-8.5-15
						c-3.3-4.4-6.6-6.6-9.6-7.2C79.8,122.3,77.1,122.9,75.1,124.5L75.1,124.5z M77.8,127.9c1-0.8,2.4-1.1,3.7-0.8
						c1.7,0.3,4.1,1.7,7,5.6c3.2,4.3,5.9,9,8,13.9c0.8,1.9,1.4,3.9,1.7,5.9c0.1,0.6,0.1,1.2-0.1,1.8c-0.6,0-1.2-0.1-1.8-0.4
						c-1.9-0.8-3.6-1.9-5.3-3.2c-4.3-3.3-8.1-7.1-11.4-11.3c-3-3.9-3.7-6.6-3.6-8.2C76,129.9,76.7,128.7,77.8,127.9z"/>
					<path class="st4" d="M28.2,77.3c-33.5,0-60.7,27.2-60.7,60.7s27.2,60.7,60.7,60.7s60.6-27.1,60.7-60.6
						C88.9,104.5,61.7,77.3,28.2,77.3z M28.2,84.2C57.9,84.2,82,108.3,82,138s-24.1,53.7-53.7,53.7c-29.7,0-53.7-24-53.7-53.7
						S-1.5,84.3,28.2,84.2C28.1,84.2,28.2,84.2,28.2,84.2z"/>
					<path class="st6" d="M85.4,138c0,31.6-25.6,57.2-57.2,57.2S-29,169.6-29,138s25.6-57.2,57.2-57.2c15.2,0,29.7,6,40.4,16.8
						C79.4,108.2,85.5,122.8,85.4,138z"/>
					<path class="st5" d="M78.2,135c0,29.2-23.7,52.9-52.9,52.9s-52.9-23.7-52.9-52.9s23.7-52.9,52.9-52.9c14,0,27.5,5.6,37.4,15.5
						S78.2,121,78.2,135z"/>
					<path class="st7" d="M-29,138c0,31.6,25.6,57.2,57.2,57.2s57.2-25.6,57.2-57.2H-29z"/>
					<path class="st3" d="M-27.5,138c1.7,29.1,26.8,51.4,55.9,49.6c26.7-1.6,48-22.9,49.6-49.6H-27.5z"/>
					<path class="st4" d="M28.2,79.9c-32.1,0-58.1,26-58.1,58.1s26,58.1,58.1,58.1s58.1-26,58.1-58C86.3,105.9,60.3,79.9,28.2,79.9
						L28.2,79.9z M28.2,81.6c31.1,0,56.3,25.2,56.3,56.3s-25.2,56.3-56.3,56.3s-56.3-25.2-56.3-56.3C-28.1,106.9-2.9,81.7,28.2,81.6
						L28.2,81.6z"/>
					<path class="st8" d="M28.2,85.6c-28.9,0-52.3,23.3-52.3,52.2c0,6.9,1.4,13.8,4,20.2c-8.2-29.5,9.1-60.1,38.6-68.3
						c9.9-2.8,20.4-2.7,30.3,0.2C42.4,87.1,35.3,85.6,28.2,85.6z"/>
					<path class="st7" d="M83,138.2h-0.2h-0.1h-0.1h-0.1h-0.1h-0.1h-0.1h-0.1H82c0,0,0,0-0.1,0l0,0v0.1l0,0v0.1l0,0v0.1v0.1l0,0v0.1
						v0.1c0,0,0,0,0,0.1c0,0,5424.8,0.1,0,0.1c0,0,0,0,0,0.1s0,0,0,0.1s0,0,0,0.1s0,0,0,0.1v0.2c0,0,0,0,0,0.1s0,0,0,0.1s0,0,0,0.1
						v0.1l0,0l0,0v0.1v0.1c0,0,0,0,0,0.1v0.1v0.1l0,0c0,0,1891-1512.6,0.1,0.1l0,0v0.1l0,0h0.1l0,0l0,0h0.1l0,0h0.1h0.1h0.1h0.1h0.7
						h0.1h0.1h0.1h0.1h0.1h0.1H84l0,0l0,0l0,0v-0.1l0,0c0,0,0,0,0-0.1v-0.1l0,0v-0.1c0,0,0,0,0-0.1v-0.1c0,0,0,0,0-0.1s0,0,0-0.1
						s0,0,0-0.1c0,0,0,0,0-0.1c0,0,0,0,0-0.1c0,0,0,0,0-0.1v-0.2c0,0,0,0,0-0.1c0,0,0,0,0-0.1c0,0,0,0,0-0.1c0,0,0,0,0-0.1l0,0l0,0
						v-0.1v-0.1c0,0,0,0,0-0.1v-0.1v-0.1v-0.1l0,0v-0.1l0,0v-0.1h-0.1c0,0,638.3-798.1-0.1-0.1l0,0h-0.1h-0.1h-0.1l0,0h-0.1h-0.1
						L83,138.2L83,138.2z"/>
					<path class="st7" d="M83,138.2h-0.2h-0.1h-0.1h-0.1h-0.1h-0.1h-0.1h-0.1H82c0,0,0,0-0.1,0l0,0v0.1l0,0v0.1l0,0v0.1v0.1l0,0v0.1
						v0.1c0,0,0,0,0,0.1c0,0,5424.8,0.1,0,0.1c0,0,0,0,0,0.1s0,0,0,0.1s0,0,0,0.1s0,0,0,0.1v0.2c0,0,0,0,0,0.1s0,0,0,0.1s0,0,0,0.1
						v0.1l0,0l0,0v0.1v0.1c0,0,0,0,0,0.1v0.1v0.1l0,0c0,0,1891-1512.6,0.1,0.1l0,0v0.1l0,0h0.1l0,0l0,0h0.1l0,0h0.1h0.1h0.1h0.1h0.7
						h0.1h0.1h0.1h0.1h0.1h0.1H84l0,0l0,0l0,0l0,0l0,0v-0.1v-0.1l0,0v-0.1c0,0,0,0,0-0.1v-0.1c0,0,0,0,0-0.1s0,0,0-0.1s0,0,0-0.1
						c0,0,0,0,0-0.1c0,0,0,0,0-0.1c0,0,0,0,0-0.1V139c0,0,0,0,0-0.1c0,0,0,0,0-0.1c0,0,0,0,0-0.1c0,0,0,0,0-0.1l0,0l0,0v-0.1v-0.1
						l0,0v-0.1v-0.1v-0.1l0,0V138l0,0v-0.1h-0.1c0,0,638.3-798.1-0.1-0.1l0,0h-0.1h-0.1h-0.1l0,0h-0.1h-0.1h-0.1h-0.1L83,138.2
						L83,138.2z"/>
					<path class="st7" d="M83,138.2h-0.2h-0.1h-0.1h-0.1h-0.1h-0.1h-0.1h-0.1H82c0,0,0,0-0.1,0l0,0v0.1l0,0v0.1l0,0v0.1v0.1l0,0v0.1
						v0.1c0,0,0,0,0,0.1c0,0,5424.8,0.1,0,0.1c0,0,0,0,0,0.1s0,0,0,0.1s0,0,0,0.1s0,0,0,0.1v0.2c0,0,0,0,0,0.1s0,0,0,0.1s0,0,0,0.1
						v0.1l0,0l0,0v0.1v0.1c0,0,0,0,0,0.1v0.1v0.1l0,0c0,0,1891-1512.6,0.1,0.1l0,0v0.1l0,0h0.1l0,0l0,0h0.1l0,0h0.1h0.1h0.1h0.1h0.7
						h0.1h0.1h0.1h0.1h0.1h0.1H84l0,0l0,0l0,0l0,0l0,0v-0.1v-0.1l0,0v-0.1c0,0,0,0,0-0.1v-0.1c0,0,0,0,0-0.1s0,0,0-0.1s0,0,0-0.1
						c0,0,0,0,0-0.1c0,0,0,0,0-0.1c0,0,0,0,0-0.1V139c0,0,0,0,0-0.1c0,0,0,0,0-0.1c0,0,0,0,0-0.1c0,0,0,0,0-0.1l0,0l0,0v-0.1v-0.1
						l0,0v-0.1v-0.1v-0.1l0,0V138l0,0v-0.1h-0.1c0,0,638.3-798.1-0.1-0.1l0,0h-0.1h-0.1h-0.1l0,0h-0.1h-0.1h-0.1h-0.1L83,138.2
						L83,138.2z"/>
					<path class="st7" d="M83,138.2h-0.2h-0.1h-0.1h-0.1h-0.1h-0.1h-0.1h-0.1H82c0,0,0,0-0.1,0l0,0v0.1l0,0v0.1l0,0v0.1v0.1l0,0v0.1
						v0.1c0,0,0,0,0,0.1c0,0,5424.8,0.1,0,0.1c0,0,0,0,0,0.1s0,0,0,0.1s0,0,0,0.1s0,0,0,0.1v0.2c0,0,0,0,0,0.1s0,0,0,0.1s0,0,0,0.1
						v0.1l0,0l0,0v0.1v0.1c0,0,0,0,0,0.1v0.1v0.1l0,0c0,0,1891-1512.6,0.1,0.1l0,0v0.1l0,0h0.1l0,0l0,0h0.1l0,0h0.1h0.1h0.1h0.1h0.7
						h0.1h0.1h0.1h0.1h0.1h0.1H84l0,0l0,0l0,0l0,0l0,0v-0.1v-0.1l0,0v-0.1c0,0,0,0,0-0.1v-0.1c0,0,0,0,0-0.1s0,0,0-0.1s0,0,0-0.1
						c0,0,0,0,0-0.1c0,0,0,0,0-0.1c0,0,0,0,0-0.1V139c0,0,0,0,0-0.1c0,0,0,0,0-0.1c0,0,0,0,0-0.1c0,0,0,0,0-0.1l0,0l0,0v-0.1v-0.1
						l0,0v-0.1v-0.1v-0.1l0,0V138l0,0v-0.1h-0.1c0,0,638.3-798.1-0.1-0.1l0,0h-0.1h-0.1h-0.1l0,0h-0.1h-0.1h-0.1h-0.1L83,138.2
						L83,138.2z"/>
					<path class="st7" d="M83,138.2h-0.2h-0.1h-0.1h-0.1h-0.1h-0.1h-0.1h-0.1H82c0,0,0,0-0.1,0l0,0v0.1l0,0v0.1l0,0v0.1v0.1l0,0v0.1
						v0.1c0,0,0,0,0,0.1c0,0,5424.8,0.1,0,0.1c0,0,0,0,0,0.1s0,0,0,0.1s0,0,0,0.1s0,0,0,0.1v0.2c0,0,0,0,0,0.1s0,0,0,0.1s0,0,0,0.1
						v0.1l0,0l0,0v0.1v0.1c0,0,0,0,0,0.1v0.1v0.1l0,0c0,0,1891-1512.6,0.1,0.1l0,0v0.1l0,0h0.1l0,0l0,0h0.1l0,0h0.1h0.1h0.1h0.1h0.7
						h0.1h0.1h0.1h0.1h0.1h0.1H84l0,0l0,0l0,0l0,0l0,0v-0.1v-0.1l0,0v-0.1c0,0,0,0,0-0.1v-0.1c0,0,0,0,0-0.1s0,0,0-0.1s0,0,0-0.1
						c0,0,0,0,0-0.1c0,0,0,0,0-0.1c0,0,0,0,0-0.1V139c0,0,0,0,0-0.1c0,0,0,0,0-0.1c0,0,0,0,0-0.1c0,0,0,0,0-0.1l0,0l0,0v-0.1v-0.1
						l0,0v-0.1v-0.1v-0.1l0,0V138l0,0v-0.1h-0.1c0,0,638.3-798.1-0.1-0.1l0,0h-0.1h-0.1h-0.1l0,0h-0.1h-0.1h-0.1h-0.1L83,138.2
						L83,138.2z"/>
					<path class="st7" d="M83,138.2h-0.2h-0.1h-0.1h-0.1h-0.1h-0.1h-0.1h-0.1H82c0,0,0,0-0.1,0l0,0v0.1l0,0v0.1l0,0v0.1v0.1l0,0v0.1
						v0.1c0,0,0,0,0,0.1c0,0,5424.8,0.1,0,0.1c0,0,0,0,0,0.1s0,0,0,0.1s0,0,0,0.1s0,0,0,0.1v0.2c0,0,0,0,0,0.1s0,0,0,0.1s0,0,0,0.1
						v0.1l0,0l0,0v0.1v0.1c0,0,0,0,0,0.1v0.1v0.1l0,0c0,0,1891-1512.6,0.1,0.1l0,0v0.1l0,0h0.1l0,0l0,0h0.1l0,0h0.1h0.1h0.1h0.1h0.7
						h0.1h0.1h0.1h0.1h0.1h0.1H84l0,0l0,0l0,0l0,0l0,0v-0.1v-0.1l0,0v-0.1c0,0,0,0,0-0.1v-0.1c0,0,0,0,0-0.1s0,0,0-0.1s0,0,0-0.1
						c0,0,0,0,0-0.1c0,0,0,0,0-0.1c0,0,0,0,0-0.1V139c0,0,0,0,0-0.1c0,0,0,0,0-0.1c0,0,0,0,0-0.1c0,0,0,0,0-0.1l0,0l0,0v-0.1v-0.1
						l0,0v-0.1v-0.1v-0.1l0,0V138l0,0v-0.1h-0.1c0,0,638.3-798.1-0.1-0.1l0,0h-0.1h-0.1h-0.1l0,0h-0.1h-0.1h-0.1h-0.1L83,138.2
						L83,138.2z"/>
					<path class="st7" d="M83,138.2h-0.2h-0.1h-0.1h-0.1h-0.1h-0.1h-0.1h-0.1H82c0,0,0,0-0.1,0l0,0v0.1l0,0v0.1l0,0v0.1v0.1l0,0v0.1
						v0.1c0,0,0,0,0,0.1c0,0,5424.8,0.1,0,0.1c0,0,0,0,0,0.1s0,0,0,0.1s0,0,0,0.1s0,0,0,0.1v0.2c0,0,0,0,0,0.1s0,0,0,0.1s0,0,0,0.1
						v0.1l0,0l0,0v0.1v0.1c0,0,0,0,0,0.1v0.1v0.1l0,0c0,0,1891-1512.6,0.1,0.1l0,0v0.1l0,0h0.1l0,0l0,0h0.1l0,0h0.1h0.1h0.1h0.1h0.7
						h0.1h0.1h0.1h0.1h0.1h0.1H84l0,0l0,0l0,0l0,0l0,0v-0.1v-0.1l0,0v-0.1c0,0,0,0,0-0.1v-0.1c0,0,0,0,0-0.1s0,0,0-0.1s0,0,0-0.1
						c0,0,0,0,0-0.1c0,0,0,0,0-0.1c0,0,0,0,0-0.1V139c0,0,0,0,0-0.1c0,0,0,0,0-0.1c0,0,0,0,0-0.1c0,0,0,0,0-0.1l0,0l0,0v-0.1v-0.1
						l0,0v-0.1v-0.1v-0.1l0,0V138l0,0v-0.1h-0.1c0,0,638.3-798.1-0.1-0.1l0,0h-0.1h-0.1h-0.1l0,0h-0.1h-0.1h-0.1h-0.1L83,138.2
						L83,138.2z"/>
					<path class="st7" d="M83,138.2h-0.2h-0.1h-0.1h-0.1h-0.1h-0.1h-0.1h-0.1H82c0,0,0,0-0.1,0l0,0v0.1l0,0v0.1l0,0v0.1v0.1l0,0v0.1
						v0.1c0,0,0,0,0,0.1c0,0,5424.8,0.1,0,0.1c0,0,0,0,0,0.1s0,0,0,0.1s0,0,0,0.1s0,0,0,0.1v0.2c0,0,0,0,0,0.1s0,0,0,0.1s0,0,0,0.1
						v0.1l0,0l0,0v0.1v0.1c0,0,0,0,0,0.1v0.1v0.1l0,0c0,0,1891-1512.6,0.1,0.1l0,0v0.1l0,0h0.1l0,0l0,0h0.1l0,0h0.1h0.1h0.1h0.1h0.7
						h0.1h0.1h0.1h0.1h0.1h0.1H84l0,0l0,0l0,0l0,0l0,0v-0.1v-0.1l0,0v-0.1c0,0,0,0,0-0.1v-0.1c0,0,0,0,0-0.1s0,0,0-0.1s0,0,0-0.1
						c0,0,0,0,0-0.1c0,0,0,0,0-0.1c0,0,0,0,0-0.1V139c0,0,0,0,0-0.1c0,0,0,0,0-0.1c0,0,0,0,0-0.1c0,0,0,0,0-0.1l0,0l0,0v-0.1v-0.1
						l0,0v-0.1v-0.1v-0.1l0,0V138l0,0v-0.1h-0.1c0,0,638.3-798.1-0.1-0.1l0,0h-0.1h-0.1h-0.1l0,0h-0.1h-0.1h-0.1h-0.1L83,138.2
						L83,138.2z"/>
					<path class="st7" d="M83,138.2h-0.2h-0.1h-0.1h-0.1h-0.1h-0.1h-0.1h-0.1H82c0,0,0,0-0.1,0l0,0v0.1l0,0v0.1l0,0v0.1v0.1l0,0v0.1
						v0.1c0,0,0,0,0,0.1c0,0,5424.8,0.1,0,0.1c0,0,0,0,0,0.1s0,0,0,0.1s0,0,0,0.1s0,0,0,0.1v0.2c0,0,0,0,0,0.1s0,0,0,0.1s0,0,0,0.1
						v0.1l0,0l0,0v0.1v0.1c0,0,0,0,0,0.1v0.1v0.1l0,0c0,0,1891-1512.6,0.1,0.1l0,0v0.1l0,0h0.1l0,0l0,0h0.1l0,0h0.1h0.1h0.1h0.1h0.7
						h0.1h0.1h0.1h0.1h0.1h0.1H84l0,0l0,0l0,0l0,0l0,0v-0.1v-0.1l0,0v-0.1c0,0,0,0,0-0.1v-0.1c0,0,0,0,0-0.1s0,0,0-0.1s0,0,0-0.1
						c0,0,0,0,0-0.1c0,0,0,0,0-0.1c0,0,0,0,0-0.1V139c0,0,0,0,0-0.1c0,0,0,0,0-0.1c0,0,0,0,0-0.1c0,0,0,0,0-0.1l0,0l0,0v-0.1v-0.1
						l0,0v-0.1v-0.1v-0.1l0,0V138l0,0v-0.1h-0.1c0,0,638.3-798.1-0.1-0.1l0,0h-0.1h-0.1h-0.1l0,0h-0.1h-0.1h-0.1h-0.1L83,138.2
						L83,138.2z"/>
					<path class="st7" d="M83,138.2h-0.2h-0.1h-0.1h-0.1h-0.1h-0.1h-0.1h-0.1H82c0,0,0,0-0.1,0l0,0v0.1l0,0v0.1l0,0v0.1v0.1l0,0v0.1
						v0.1c0,0,0,0,0,0.1c0,0,5424.8,0.1,0,0.1c0,0,0,0,0,0.1s0,0,0,0.1s0,0,0,0.1s0,0,0,0.1v0.2c0,0,0,0,0,0.1s0,0,0,0.1s0,0,0,0.1
						v0.1l0,0l0,0v0.1v0.1c0,0,0,0,0,0.1v0.1v0.1l0,0c0,0,1891-1512.6,0.1,0.1l0,0v0.1l0,0h0.1l0,0l0,0h0.1l0,0h0.1h0.1h0.1h0.1h0.7
						h0.1h0.1h0.1h0.1h0.1h0.1H84l0,0l0,0l0,0l0,0l0,0v-0.1v-0.1l0,0v-0.1c0,0,0,0,0-0.1v-0.1c0,0,0,0,0-0.1s0,0,0-0.1s0,0,0-0.1
						c0,0,0,0,0-0.1c0,0,0,0,0-0.1c0,0,0,0,0-0.1V139c0,0,0,0,0-0.1c0,0,0,0,0-0.1c0,0,0,0,0-0.1c0,0,0,0,0-0.1l0,0l0,0v-0.1v-0.1
						l0,0v-0.1v-0.1v-0.1l0,0V138l0,0v-0.1h-0.1c0,0,638.3-798.1-0.1-0.1l0,0h-0.1h-0.1h-0.1l0,0h-0.1h-0.1h-0.1h-0.1L83,138.2
						L83,138.2z"/>
					<path class="st7" d="M83,138.2h-0.2h-0.1h-0.1h-0.1h-0.1h-0.1h-0.1h-0.1H82c0,0,0,0-0.1,0l0,0v0.1l0,0v0.1l0,0v0.1v0.1l0,0v0.1
						v0.1c0,0,0,0,0,0.1c0,0,5424.8,0.1,0,0.1c0,0,0,0,0,0.1s0,0,0,0.1s0,0,0,0.1s0,0,0,0.1v0.2c0,0,0,0,0,0.1s0,0,0,0.1s0,0,0,0.1
						s0,0,0,0.1l0,0l0,0v0.1v0.1c0,0,0,0,0,0.1v0.1v0.1l0,0c0,0,1891-1512.6,0.1,0.1l0,0v0.1l0,0h0.1l0,0l0,0h0.1l0,0h0.1h0.1h0.1
						h0.1h0.7h0.1h0.1h0.1h0.1h0.1h0.1H84l0,0l0,0l0,0v-0.1l0,0c0,0,0,0,0-0.1v-0.1l0,0v-0.1v-0.1c0,0,0,0,0-0.1c0,0,0,0,0-0.1
						s0,0,0-0.1s0,0,0-0.1c0,0,0,0,0-0.1c0,0,0,0,0-0.1c0,0,0,0,0-0.1v-0.2c0,0,0,0,0-0.1c0,0,0,0,0-0.1c0,0,0,0,0-0.1
						c0,0,0,0,0-0.1l0,0l0,0v-0.1v-0.1c0,0,0,0,0-0.1v-0.1v-0.1v-0.1l0,0v-0.1l0,0v-0.1h-0.1c0,0,638.3-798.1-0.1-0.1l0,0h-0.1h-0.1
						h-0.1l0,0h-0.1h-0.1L83,138.2L83,138.2z"/>
					<path class="st7" d="M83,138.2h-0.2h-0.1h-0.1h-0.1h-0.1h-0.1h-0.1h-0.1H82c0,0,0,0-0.1,0l0,0v0.1l0,0v0.1l0,0v0.1v0.1l0,0v0.1
						v0.1c0,0,0,0,0,0.1c0,0,5424.8,0.1,0,0.1c0,0,0,0,0,0.1s0,0,0,0.1s0,0,0,0.1s0,0,0,0.1v0.2c0,0,0,0,0,0.1s0,0,0,0.1s0,0,0,0.1
						s0,0,0,0.1l0,0l0,0v0.1v0.1c0,0,0,0,0,0.1v0.1v0.1l0,0c0,0,1891-1512.6,0.1,0.1l0,0v0.1l0,0h0.1l0,0l0,0h0.1l0,0h0.1h0.1h0.1
						h0.1h0.7h0.1h0.1h0.1h0.1h0.1h0.1H84l0,0l0,0l0,0l0,0c0,0,6515.5,5212,0.1-0.1v-0.1l0,0v-0.1v-0.1c0,0,0,0,0-0.1c0,0,0,0,0-0.1
						s0,0,0-0.1s0,0,0-0.1c0,0,0,0,0-0.1c0,0,0,0,0-0.1c0,0,0,0,0-0.1v-0.2c0,0,0,0,0-0.1c0,0,0,0,0-0.1c0,0,0,0,0-0.1
						c0,0,0,0,0-0.1l0,0l0,0v-0.1v-0.1l0,0v-0.1v-0.1v-0.1l0,0v-0.1l0,0v-0.1H84c0,0,638.3-798.1-0.1-0.1l0,0h-0.1h-0.1h-0.1l0,0
						h-0.1h-0.1h-0.1h-0.1H83L83,138.2z"/>
					<path class="st7" d="M83,138.2h-0.2h-0.1h-0.1h-0.1h-0.1h-0.1h-0.1h-0.1H82c0,0,0,0-0.1,0l0,0v0.1l0,0v0.1l0,0v0.1v0.1l0,0v0.1
						v0.1c0,0,0,0,0,0.1c0,0,5424.8,0.1,0,0.1c0,0,0,0,0,0.1s0,0,0,0.1s0,0,0,0.1s0,0,0,0.1v0.2c0,0,0,0,0,0.1s0,0,0,0.1s0,0,0,0.1
						s0,0,0,0.1l0,0l0,0v0.1v0.1c0,0,0,0,0,0.1v0.1v0.1l0,0c0,0,1891-1512.6,0.1,0.1l0,0v0.1l0,0h0.1l0,0l0,0h0.1l0,0h0.1h0.1h0.1
						h0.1h0.7h0.1h0.1h0.1h0.1h0.1h0.1H84l0,0l0,0l0,0l0,0c0,0,6515.5,5212,0.1-0.1v-0.1l0,0v-0.1v-0.1c0,0,0,0,0-0.1c0,0,0,0,0-0.1
						s0,0,0-0.1s0,0,0-0.1c0,0,0,0,0-0.1c0,0,0,0,0-0.1c0,0,0,0,0-0.1v-0.2c0,0,0,0,0-0.1c0,0,0,0,0-0.1c0,0,0,0,0-0.1
						c0,0,0,0,0-0.1l0,0l0,0v-0.1v-0.1l0,0v-0.1v-0.1v-0.1l0,0v-0.1l0,0v-0.1H84c0,0,638.3-798.1-0.1-0.1l0,0h-0.1h-0.1h-0.1l0,0
						h-0.1h-0.1h-0.1h-0.1H83L83,138.2z"/>
					<path class="st7" d="M83,138.2h-0.2h-0.1h-0.1h-0.1h-0.1h-0.1h-0.1h-0.1H82c0,0,0,0-0.1,0l0,0v0.1l0,0v0.1l0,0v0.1v0.1l0,0v0.1
						v0.1c0,0,0,0,0,0.1c0,0,5424.8,0.1,0,0.1c0,0,0,0,0,0.1s0,0,0,0.1s0,0,0,0.1s0,0,0,0.1v0.2c0,0,0,0,0,0.1s0,0,0,0.1s0,0,0,0.1
						s0,0,0,0.1l0,0l0,0v0.1v0.1c0,0,0,0,0,0.1v0.1v0.1l0,0c0,0,1891-1512.6,0.1,0.1l0,0v0.1l0,0h0.1l0,0l0,0h0.1l0,0h0.1h0.1h0.1
						h0.1h0.7h0.1h0.1h0.1h0.1h0.1h0.1H84l0,0l0,0l0,0l0,0c0,0,6515.5,5212,0.1-0.1v-0.1l0,0v-0.1v-0.1c0,0,0,0,0-0.1c0,0,0,0,0-0.1
						s0,0,0-0.1s0,0,0-0.1c0,0,0,0,0-0.1c0,0,0,0,0-0.1c0,0,0,0,0-0.1v-0.2c0,0,0,0,0-0.1c0,0,0,0,0-0.1c0,0,0,0,0-0.1
						c0,0,0,0,0-0.1l0,0l0,0v-0.1v-0.1l0,0v-0.1v-0.1v-0.1l0,0v-0.1l0,0v-0.1H84c0,0,638.3-798.1-0.1-0.1l0,0h-0.1h-0.1h-0.1l0,0
						h-0.1h-0.1h-0.1h-0.1H83L83,138.2z"/>
					<path class="st7" d="M83,138.2h-0.2h-0.1h-0.1h-0.1h-0.1h-0.1h-0.1h-0.1H82c0,0,0,0-0.1,0l0,0v0.1l0,0v0.1l0,0v0.1v0.1l0,0v0.1
						v0.1c0,0,0,0,0,0.1c0,0,5424.8,0.1,0,0.1c0,0,0,0,0,0.1s0,0,0,0.1s0,0,0,0.1s0,0,0,0.1v0.2c0,0,0,0,0,0.1s0,0,0,0.1s0,0,0,0.1
						s0,0,0,0.1l0,0l0,0v0.1v0.1c0,0,0,0,0,0.1v0.1v0.1l0,0c0,0,1891-1512.6,0.1,0.1l0,0v0.1l0,0h0.1l0,0l0,0h0.1l0,0h0.1h0.1h0.1
						h0.1h0.7h0.1h0.1h0.1h0.1h0.1h0.1H84l0,0l0,0l0,0l0,0c0,0,6515.5,5212,0.1-0.1v-0.1l0,0v-0.1v-0.1c0,0,0,0,0-0.1c0,0,0,0,0-0.1
						s0,0,0-0.1s0,0,0-0.1c0,0,0,0,0-0.1c0,0,0,0,0-0.1c0,0,0,0,0-0.1v-0.2c0,0,0,0,0-0.1c0,0,0,0,0-0.1c0,0,0,0,0-0.1
						c0,0,0,0,0-0.1l0,0l0,0v-0.1v-0.1l0,0v-0.1v-0.1v-0.1l0,0v-0.1l0,0v-0.1H84c0,0,638.3-798.1-0.1-0.1l0,0h-0.1h-0.1h-0.1l0,0
						h-0.1h-0.1h-0.1h-0.1H83L83,138.2z"/>
					<path class="st7" d="M83,138.2h-0.2h-0.1h-0.1h-0.1h-0.1h-0.1h-0.1h-0.1H82c0,0,0,0-0.1,0l0,0v0.1l0,0v0.1l0,0v0.1v0.1l0,0v0.1
						v0.1c0,0,0,0,0,0.1c0,0,5424.8,0.1,0,0.1c0,0,0,0,0,0.1s0,0,0,0.1s0,0,0,0.1s0,0,0,0.1v0.2c0,0,0,0,0,0.1s0,0,0,0.1s0,0,0,0.1
						s0,0,0,0.1l0,0l0,0v0.1v0.1c0,0,0,0,0,0.1v0.1v0.1l0,0c0,0,1891-1512.6,0.1,0.1l0,0v0.1l0,0h0.1l0,0l0,0h0.1l0,0h0.1h0.1h0.1
						h0.1h0.7h0.1h0.1h0.1h0.1h0.1h0.1H84l0,0l0,0l0,0l0,0c0,0,6515.5,5212,0.1-0.1v-0.1l0,0v-0.1v-0.1c0,0,0,0,0-0.1c0,0,0,0,0-0.1
						s0,0,0-0.1s0,0,0-0.1c0,0,0,0,0-0.1c0,0,0,0,0-0.1c0,0,0,0,0-0.1v-0.2c0,0,0,0,0-0.1c0,0,0,0,0-0.1c0,0,0,0,0-0.1
						c0,0,0,0,0-0.1l0,0l0,0v-0.1v-0.1l0,0v-0.1v-0.1v-0.1l0,0v-0.1l0,0v-0.1H84c0,0,638.3-798.1-0.1-0.1l0,0h-0.1h-0.1h-0.1l0,0
						h-0.1h-0.1h-0.1h-0.1H83L83,138.2z"/>
					<path class="st7" d="M83,138.2h-0.2h-0.1h-0.1h-0.1h-0.1h-0.1h-0.1h-0.1H82c0,0,0,0-0.1,0l0,0v0.1l0,0v0.1l0,0v0.1v0.1l0,0v0.1
						v0.1c0,0,0,0,0,0.1c0,0,5424.8,0.1,0,0.1c0,0,0,0,0,0.1s0,0,0,0.1s0,0,0,0.1s0,0,0,0.1v0.2c0,0,0,0,0,0.1s0,0,0,0.1s0,0,0,0.1
						s0,0,0,0.1l0,0l0,0v0.1v0.1c0,0,0,0,0,0.1v0.1v0.1l0,0c0,0,1891-1512.6,0.1,0.1l0,0v0.1l0,0h0.1l0,0l0,0h0.1l0,0h0.1h0.1h0.1
						h0.1h0.7h0.1h0.1h0.1h0.1h0.1h0.1H84l0,0l0,0l0,0l0,0c0,0,6515.5,5212,0.1-0.1v-0.1l0,0v-0.1v-0.1c0,0,0,0,0-0.1c0,0,0,0,0-0.1
						s0,0,0-0.1s0,0,0-0.1c0,0,0,0,0-0.1c0,0,0,0,0-0.1c0,0,0,0,0-0.1v-0.2c0,0,0,0,0-0.1c0,0,0,0,0-0.1c0,0,0,0,0-0.1
						c0,0,0,0,0-0.1l0,0l0,0v-0.1v-0.1l0,0v-0.1v-0.1v-0.1l0,0v-0.1l0,0v-0.1H84c0,0,638.3-798.1-0.1-0.1l0,0h-0.1h-0.1h-0.1l0,0
						h-0.1h-0.1h-0.1h-0.1H83L83,138.2z"/>
					<path class="st7" d="M83,138.2h-0.2h-0.1h-0.1h-0.1h-0.1h-0.1h-0.1h-0.1H82c0,0,0,0-0.1,0l0,0v0.1l0,0v0.1l0,0v0.1v0.1l0,0v0.1
						v0.1c0,0,0,0,0,0.1c0,0,5424.8,0.1,0,0.1c0,0,0,0,0,0.1s0,0,0,0.1s0,0,0,0.1s0,0,0,0.1v0.2c0,0,0,0,0,0.1s0,0,0,0.1s0,0,0,0.1
						s0,0,0,0.1l0,0l0,0v0.1v0.1c0,0,0,0,0,0.1v0.1v0.1l0,0c0,0,1891-1512.6,0.1,0.1l0,0v0.1l0,0h0.1l0,0l0,0h0.1l0,0h0.1h0.1h0.1
						h0.1h0.7h0.1h0.1h0.1h0.1h0.1h0.1H84l0,0l0,0l0,0l0,0c0,0,6515.5,5212,0.1-0.1v-0.1l0,0v-0.1v-0.1c0,0,0,0,0-0.1c0,0,0,0,0-0.1
						s0,0,0-0.1s0,0,0-0.1c0,0,0,0,0-0.1c0,0,0,0,0-0.1c0,0,0,0,0-0.1v-0.2c0,0,0,0,0-0.1c0,0,0,0,0-0.1c0,0,0,0,0-0.1
						c0,0,0,0,0-0.1l0,0l0,0v-0.1v-0.1l0,0v-0.1v-0.1v-0.1l0,0v-0.1l0,0v-0.1H84c0,0,638.3-798.1-0.1-0.1l0,0h-0.1h-0.1h-0.1l0,0
						h-0.1h-0.1h-0.1h-0.1H83L83,138.2z"/>
					<path class="st7" d="M83,138.2h-0.2h-0.1h-0.1h-0.1h-0.1h-0.1h-0.1h-0.1H82c0,0,0,0-0.1,0l0,0v0.1l0,0v0.1l0,0v0.1v0.1l0,0v0.1
						v0.1c0,0,0,0,0,0.1c0,0,5424.8,0.1,0,0.1c0,0,0,0,0,0.1s0,0,0,0.1s0,0,0,0.1s0,0,0,0.1v0.2c0,0,0,0,0,0.1s0,0,0,0.1s0,0,0,0.1
						s0,0,0,0.1l0,0l0,0v0.1v0.1c0,0,0,0,0,0.1v0.1v0.1l0,0c0,0,1891-1512.6,0.1,0.1l0,0v0.1l0,0h0.1l0,0l0,0h0.1l0,0h0.1h0.1h0.1
						h0.1h0.7h0.1h0.1h0.1h0.1h0.1h0.1H84l0,0l0,0l0,0l0,0c0,0,6515.5,5212,0.1-0.1v-0.1l0,0v-0.1v-0.1c0,0,0,0,0-0.1c0,0,0,0,0-0.1
						s0,0,0-0.1s0,0,0-0.1c0,0,0,0,0-0.1c0,0,0,0,0-0.1c0,0,0,0,0-0.1v-0.2c0,0,0,0,0-0.1c0,0,0,0,0-0.1c0,0,0,0,0-0.1
						c0,0,0,0,0-0.1l0,0l0,0v-0.1v-0.1l0,0v-0.1v-0.1v-0.1l0,0v-0.1l0,0v-0.1H84c0,0,638.3-798.1-0.1-0.1l0,0h-0.1h-0.1h-0.1l0,0
						h-0.1h-0.1h-0.1h-0.1H83L83,138.2z"/>
					<path class="st7" d="M83,138.2h-0.2h-0.1h-0.1h-0.1h-0.1h-0.1h-0.1h-0.1H82c0,0,0,0-0.1,0l0,0v0.1l0,0v0.1l0,0v0.1v0.1l0,0v0.1
						v0.1c0,0,0,0,0,0.1c0,0,5424.8,0.1,0,0.1c0,0,0,0,0,0.1s0,0,0,0.1s0,0,0,0.1s0,0,0,0.1v0.2c0,0,0,0,0,0.1s0,0,0,0.1s0,0,0,0.1
						s0,0,0,0.1l0,0l0,0v0.1v0.1c0,0,0,0,0,0.1v0.1v0.1l0,0c0,0,1891-1512.6,0.1,0.1l0,0v0.1l0,0h0.1l0,0l0,0h0.1l0,0h0.1h0.1h0.1
						h0.1h0.7h0.1h0.1h0.1h0.1h0.1h0.1H84l0,0l0,0l0,0l0,0c0,0,6515.5,5212,0.1-0.1v-0.1l0,0v-0.1v-0.1c0,0,0,0,0-0.1c0,0,0,0,0-0.1
						s0,0,0-0.1s0,0,0-0.1c0,0,0,0,0-0.1c0,0,0,0,0-0.1c0,0,0,0,0-0.1v-0.2c0,0,0,0,0-0.1c0,0,0,0,0-0.1c0,0,0,0,0-0.1
						c0,0,0,0,0-0.1l0,0l0,0v-0.1v-0.1l0,0v-0.1v-0.1v-0.1l0,0v-0.1l0,0v-0.1H84c0,0,638.3-798.1-0.1-0.1l0,0h-0.1h-0.1h-0.1l0,0
						h-0.1h-0.1h-0.1h-0.1H83L83,138.2z"/>
					<path class="st7" d="M83,138.2h-0.2h-0.1h-0.1h-0.1h-0.1h-0.1h-0.1h-0.1H82c0,0,0,0-0.1,0l0,0v0.1l0,0v0.1l0,0v0.1v0.1l0,0v0.1
						v0.1c0,0,0,0,0,0.1c0,0,5424.8,0.1,0,0.1c0,0,0,0,0,0.1s0,0,0,0.1s0,0,0,0.1s0,0,0,0.1v0.2c0,0,0,0,0,0.1s0,0,0,0.1s0,0,0,0.1
						s0,0,0,0.1l0,0l0,0v0.1v0.1c0,0,0,0,0,0.1v0.1v0.1l0,0c0,0,1891-1512.6,0.1,0.1l0,0v0.1l0,0h0.1l0,0l0,0h0.1l0,0h0.1h0.1h0.1
						h0.1h0.7h0.1h0.1h0.1h0.1h0.1h0.1H84l0,0l0,0l0,0v-0.1l0,0c0,0,0,0,0-0.1v-0.1l0,0v-0.1v-0.1c0,0,0,0,0-0.1c0,0,0,0,0-0.1
						s0,0,0-0.1s0,0,0-0.1c0,0,0,0,0-0.1c0,0,0,0,0-0.1c0,0,0,0,0-0.1v-0.2c0,0,0,0,0-0.1c0,0,0,0,0-0.1c0,0,0,0,0-0.1
						c0,0,0,0,0-0.1l0,0l0,0v-0.1v-0.1c0,0,0,0,0-0.1v-0.1v-0.1v-0.1l0,0v-0.1l0,0v-0.1h-0.1c0,0,638.3-798.1-0.1-0.1l0,0h-0.1h-0.1
						h-0.1l0,0h-0.1h-0.1L83,138.2L83,138.2z"/>
					<path class="st7" d="M83,138.2h-0.2h-0.1h-0.1h-0.1h-0.1h-0.1h-0.1h-0.1H82c0,0,0,0-0.1,0l0,0v0.1l0,0v0.1l0,0v0.1v0.1l0,0v0.1
						v0.1c0,0,0,0,0,0.1c0,0,5424.8,0.1,0,0.1c0,0,0,0,0,0.1s0,0,0,0.1s0,0,0,0.1s0,0,0,0.1v0.2c0,0,0,0,0,0.1s0,0,0,0.1s0,0,0,0.1
						s0,0,0,0.1l0,0l0,0v0.1v0.1c0,0,0,0,0,0.1v0.1v0.1l0,0c0,0,1891-1512.6,0.1,0.1l0,0v0.1l0,0h0.1l0,0l0,0h0.1l0,0h0.1h0.1h0.1
						h0.1h0.7h0.1h0.1h0.1h0.1h0.1h0.1H84l0,0l0,0l0,0l0,0c0,0,6515.5,5212,0.1-0.1v-0.1l0,0v-0.1v-0.1c0,0,0,0,0-0.1c0,0,0,0,0-0.1
						s0,0,0-0.1s0,0,0-0.1c0,0,0,0,0-0.1c0,0,0,0,0-0.1c0,0,0,0,0-0.1v-0.2c0,0,0,0,0-0.1c0,0,0,0,0-0.1c0,0,0,0,0-0.1
						c0,0,0,0,0-0.1l0,0l0,0v-0.1v-0.1l0,0v-0.1v-0.1v-0.1l0,0v-0.1l0,0v-0.1H84c0,0,638.3-798.1-0.1-0.1l0,0h-0.1h-0.1h-0.1l0,0
						h-0.1h-0.1h-0.1h-0.1H83L83,138.2z"/>
					<path class="st7" d="M83,138.2h-0.2h-0.1h-0.1h-0.1h-0.1h-0.1h-0.1h-0.1H82c0,0,0,0-0.1,0l0,0v0.1l0,0v0.1l0,0v0.1v0.1l0,0v0.1
						v0.1c0,0,0,0,0,0.1c0,0,5424.8,0.1,0,0.1c0,0,0,0,0,0.1s0,0,0,0.1s0,0,0,0.1s0,0,0,0.1v0.2c0,0,0,0,0,0.1s0,0,0,0.1s0,0,0,0.1
						s0,0,0,0.1l0,0l0,0v0.1v0.1c0,0,0,0,0,0.1v0.1v0.1l0,0c0,0,1891-1512.6,0.1,0.1l0,0v0.1l0,0h0.1l0,0l0,0h0.1l0,0h0.1h0.1h0.1
						h0.1h0.7h0.1h0.1h0.1h0.1h0.1h0.1H84l0,0l0,0l0,0l0,0c0,0,6515.5,5212,0.1-0.1v-0.1l0,0v-0.1v-0.1c0,0,0,0,0-0.1c0,0,0,0,0-0.1
						s0,0,0-0.1s0,0,0-0.1c0,0,0,0,0-0.1c0,0,0,0,0-0.1c0,0,0,0,0-0.1v-0.2c0,0,0,0,0-0.1c0,0,0,0,0-0.1c0,0,0,0,0-0.1
						c0,0,0,0,0-0.1l0,0l0,0v-0.1v-0.1l0,0v-0.1v-0.1v-0.1l0,0v-0.1l0,0v-0.1H84c0,0,638.3-798.1-0.1-0.1l0,0h-0.1h-0.1h-0.1l0,0
						h-0.1h-0.1h-0.1h-0.1H83L83,138.2z"/>
					<path class="st7" d="M83,138.2h-0.2h-0.1h-0.1h-0.1h-0.1h-0.1h-0.1h-0.1H82c0,0,0,0-0.1,0l0,0v0.1l0,0v0.1l0,0v0.1v0.1l0,0v0.1
						v0.1c0,0,0,0,0,0.1c0,0,5424.8,0.1,0,0.1c0,0,0,0,0,0.1s0,0,0,0.1s0,0,0,0.1s0,0,0,0.1v0.2c0,0,0,0,0,0.1s0,0,0,0.1s0,0,0,0.1
						s0,0,0,0.1l0,0l0,0v0.1v0.1c0,0,0,0,0,0.1v0.1v0.1l0,0c0,0,1891-1512.6,0.1,0.1l0,0v0.1l0,0h0.1l0,0l0,0h0.1l0,0h0.1h0.1h0.1
						h0.1h0.7h0.1h0.1h0.1h0.1h0.1h0.1H84l0,0l0,0l0,0l0,0c0,0,6515.5,5212,0.1-0.1v-0.1l0,0v-0.1v-0.1c0,0,0,0,0-0.1c0,0,0,0,0-0.1
						s0,0,0-0.1s0,0,0-0.1c0,0,0,0,0-0.1c0,0,0,0,0-0.1c0,0,0,0,0-0.1v-0.2c0,0,0,0,0-0.1c0,0,0,0,0-0.1c0,0,0,0,0-0.1
						c0,0,0,0,0-0.1l0,0l0,0v-0.1v-0.1l0,0v-0.1v-0.1v-0.1l0,0v-0.1l0,0v-0.1H84c0,0,638.3-798.1-0.1-0.1l0,0h-0.1h-0.1h-0.1l0,0
						h-0.1h-0.1h-0.1h-0.1H83L83,138.2z"/>
					<path class="st7" d="M83,138.2h-0.2h-0.1h-0.1h-0.1h-0.1h-0.1h-0.1h-0.1H82c0,0,0,0-0.1,0l0,0v0.1l0,0v0.1l0,0v0.1v0.1l0,0v0.1
						v0.1c0,0,0,0,0,0.1c0,0,5424.8,0.1,0,0.1c0,0,0,0,0,0.1s0,0,0,0.1s0,0,0,0.1s0,0,0,0.1v0.2c0,0,0,0,0,0.1s0,0,0,0.1s0,0,0,0.1
						s0,0,0,0.1l0,0l0,0v0.1v0.1c0,0,0,0,0,0.1v0.1v0.1l0,0c0,0,1891-1512.6,0.1,0.1l0,0v0.1l0,0h0.1l0,0l0,0h0.1l0,0h0.1h0.1h0.1
						h0.1h0.7h0.1h0.1h0.1h0.1h0.1h0.1H84l0,0l0,0l0,0l0,0c0,0,6515.5,5212,0.1-0.1v-0.1l0,0v-0.1v-0.1c0,0,0,0,0-0.1c0,0,0,0,0-0.1
						s0,0,0-0.1s0,0,0-0.1c0,0,0,0,0-0.1c0,0,0,0,0-0.1c0,0,0,0,0-0.1v-0.2c0,0,0,0,0-0.1c0,0,0,0,0-0.1c0,0,0,0,0-0.1
						c0,0,0,0,0-0.1l0,0l0,0v-0.1v-0.1l0,0v-0.1v-0.1v-0.1l0,0v-0.1l0,0v-0.1H84c0,0,638.3-798.1-0.1-0.1l0,0h-0.1h-0.1h-0.1l0,0
						h-0.1h-0.1h-0.1h-0.1H83L83,138.2z"/>
					<path class="st7" d="M83,138.2h-0.2h-0.1h-0.1h-0.1h-0.1h-0.1h-0.1h-0.1H82c0,0,0,0-0.1,0l0,0v0.1l0,0v0.1l0,0v0.1v0.1l0,0v0.1
						v0.1c0,0,0,0,0,0.1c0,0,5424.8,0.1,0,0.1c0,0,0,0,0,0.1s0,0,0,0.1s0,0,0,0.1s0,0,0,0.1v0.2c0,0,0,0,0,0.1s0,0,0,0.1s0,0,0,0.1
						s0,0,0,0.1l0,0l0,0v0.1v0.1c0,0,0,0,0,0.1v0.1v0.1l0,0c0,0,1891-1512.6,0.1,0.1l0,0v0.1l0,0h0.1l0,0l0,0h0.1l0,0h0.1h0.1h0.1
						h0.1h0.7h0.1h0.1h0.1h0.1h0.1h0.1H84l0,0l0,0l0,0l0,0c0,0,6515.5,5212,0.1-0.1v-0.1l0,0v-0.1v-0.1c0,0,0,0,0-0.1c0,0,0,0,0-0.1
						s0,0,0-0.1s0,0,0-0.1c0,0,0,0,0-0.1c0,0,0,0,0-0.1c0,0,0,0,0-0.1v-0.2c0,0,0,0,0-0.1c0,0,0,0,0-0.1c0,0,0,0,0-0.1
						c0,0,0,0,0-0.1l0,0l0,0v-0.1v-0.1l0,0v-0.1v-0.1v-0.1l0,0v-0.1l0,0v-0.1H84c0,0,638.3-798.1-0.1-0.1l0,0h-0.1h-0.1h-0.1l0,0
						h-0.1h-0.1h-0.1h-0.1H83L83,138.2z"/>
					<path class="st7" d="M83,138.2h-0.2h-0.1h-0.1h-0.1h-0.1h-0.1h-0.1h-0.1H82c0,0,0,0-0.1,0l0,0v0.1l0,0v0.1l0,0v0.1v0.1l0,0v0.1
						v0.1c0,0,0,0,0,0.1c0,0,5424.8,0.1,0,0.1c0,0,0,0,0,0.1s0,0,0,0.1s0,0,0,0.1s0,0,0,0.1v0.2c0,0,0,0,0,0.1s0,0,0,0.1s0,0,0,0.1
						s0,0,0,0.1l0,0l0,0v0.1v0.1c0,0,0,0,0,0.1v0.1v0.1l0,0c0,0,1891-1512.6,0.1,0.1l0,0v0.1l0,0h0.1l0,0l0,0h0.1l0,0h0.1h0.1h0.1
						h0.1h0.7h0.1h0.1h0.1h0.1h0.1h0.1H84l0,0l0,0l0,0l0,0c0,0,6515.5,5212,0.1-0.1v-0.1l0,0v-0.1v-0.1c0,0,0,0,0-0.1c0,0,0,0,0-0.1
						s0,0,0-0.1s0,0,0-0.1c0,0,0,0,0-0.1c0,0,0,0,0-0.1c0,0,0,0,0-0.1v-0.2c0,0,0,0,0-0.1c0,0,0,0,0-0.1c0,0,0,0,0-0.1
						c0,0,0,0,0-0.1l0,0l0,0v-0.1v-0.1l0,0v-0.1v-0.1v-0.1l0,0v-0.1l0,0v-0.1H84c0,0,638.3-798.1-0.1-0.1l0,0h-0.1h-0.1h-0.1l0,0
						h-0.1h-0.1h-0.1h-0.1H83L83,138.2z"/>
					<path class="st7" d="M83,138.2h-0.2h-0.1h-0.1h-0.1h-0.1h-0.1h-0.1h-0.1H82c0,0,0,0-0.1,0l0,0v0.1l0,0v0.1l0,0v0.1v0.1l0,0v0.1
						v0.1c0,0,0,0,0,0.1c0,0,5424.8,0.1,0,0.1c0,0,0,0,0,0.1s0,0,0,0.1s0,0,0,0.1s0,0,0,0.1v0.2c0,0,0,0,0,0.1s0,0,0,0.1s0,0,0,0.1
						s0,0,0,0.1l0,0l0,0v0.1v0.1c0,0,0,0,0,0.1v0.1v0.1l0,0c0,0,1891-1512.6,0.1,0.1l0,0v0.1l0,0h0.1l0,0l0,0h0.1l0,0h0.1h0.1h0.1
						h0.1h0.7h0.1h0.1h0.1h0.1h0.1h0.1H84l0,0l0,0l0,0l0,0c0,0,6515.5,5212,0.1-0.1v-0.1l0,0v-0.1v-0.1c0,0,0,0,0-0.1c0,0,0,0,0-0.1
						s0,0,0-0.1s0,0,0-0.1c0,0,0,0,0-0.1c0,0,0,0,0-0.1c0,0,0,0,0-0.1v-0.2c0,0,0,0,0-0.1c0,0,0,0,0-0.1c0,0,0,0,0-0.1
						c0,0,0,0,0-0.1l0,0l0,0v-0.1v-0.1l0,0v-0.1v-0.1v-0.1l0,0v-0.1l0,0v-0.1H84c0,0,638.3-798.1-0.1-0.1l0,0h-0.1h-0.1h-0.1l0,0
						h-0.1h-0.1h-0.1h-0.1H83L83,138.2z"/>
					<path class="st7" d="M83,138.2h-0.2h-0.1h-0.1h-0.1h-0.1h-0.1h-0.1h-0.1H82c0,0,0,0-0.1,0l0,0v0.1l0,0v0.1l0,0v0.1v0.1l0,0v0.1
						v0.1c0,0,0,0,0,0.1c0,0,5424.8,0.1,0,0.1c0,0,0,0,0,0.1s0,0,0,0.1s0,0,0,0.1s0,0,0,0.1v0.2c0,0,0,0,0,0.1s0,0,0,0.1s0,0,0,0.1
						s0,0,0,0.1l0,0l0,0v0.1v0.1c0,0,0,0,0,0.1v0.1v0.1l0,0c0,0,1891-1512.6,0.1,0.1l0,0v0.1l0,0h0.1l0,0l0,0h0.1l0,0h0.1h0.1h0.1
						h0.1h0.7h0.1h0.1h0.1h0.1h0.1h0.1H84l0,0l0,0l0,0l0,0c0,0,6515.5,5212,0.1-0.1v-0.1l0,0v-0.1v-0.1c0,0,0,0,0-0.1c0,0,0,0,0-0.1
						s0,0,0-0.1s0,0,0-0.1c0,0,0,0,0-0.1c0,0,0,0,0-0.1c0,0,0,0,0-0.1v-0.2c0,0,0,0,0-0.1c0,0,0,0,0-0.1c0,0,0,0,0-0.1
						c0,0,0,0,0-0.1l0,0l0,0v-0.1v-0.1l0,0v-0.1v-0.1v-0.1l0,0v-0.1l0,0v-0.1H84c0,0,638.3-798.1-0.1-0.1l0,0h-0.1h-0.1h-0.1l0,0
						h-0.1h-0.1h-0.1h-0.1H83L83,138.2z"/>
					<path class="st7" d="M83,138.2h-0.2h-0.1h-0.1h-0.1h-0.1h-0.1h-0.1h-0.1H82c0,0,0,0-0.1,0l0,0v0.1l0,0v0.1l0,0v0.1v0.1l0,0v0.1
						v0.1c0,0,0,0,0,0.1c0,0,5424.8,0.1,0,0.1c0,0,0,0,0,0.1s0,0,0,0.1s0,0,0,0.1s0,0,0,0.1v0.2c0,0,0,0,0,0.1s0,0,0,0.1s0,0,0,0.1
						s0,0,0,0.1l0,0l0,0v0.1v0.1c0,0,0,0,0,0.1v0.1v0.1l0,0c0,0,1891-1512.6,0.1,0.1l0,0v0.1l0,0h0.1l0,0l0,0h0.1l0,0h0.1h0.1h0.1
						h0.1h0.7h0.1h0.1h0.1h0.1h0.1h0.1H84l0,0l0,0l0,0l0,0c0,0,6515.5,5212,0.1-0.1v-0.1l0,0v-0.1v-0.1c0,0,0,0,0-0.1c0,0,0,0,0-0.1
						s0,0,0-0.1s0,0,0-0.1c0,0,0,0,0-0.1c0,0,0,0,0-0.1c0,0,0,0,0-0.1v-0.2c0,0,0,0,0-0.1c0,0,0,0,0-0.1c0,0,0,0,0-0.1
						c0,0,0,0,0-0.1l0,0l0,0v-0.1v-0.1l0,0v-0.1v-0.1v-0.1l0,0v-0.1l0,0v-0.1H84c0,0,638.3-798.1-0.1-0.1l0,0h-0.1h-0.1h-0.1l0,0
						h-0.1h-0.1h-0.1h-0.1H83L83,138.2z"/>
					<path class="st9" d="M15.2,145c-1.5,0-2.7,1.2-2.7,2.7l0,0v3.1c0,8.7,7,15.7,15.7,15.7s15.7-7,15.7-15.7l0,0v-3.1
						c0-1.5-1.2-2.7-2.7-2.7l0,0H15.2z"/>
					<path class="st10" d="M28.2,155.7c-4.5,0-8.9,2-11.8,5.4c5.7,6.5,15.6,7.2,22.2,1.5c0.5-0.5,1-1,1.5-1.5
						C37.1,157.7,32.8,155.7,28.2,155.7z"/>
					<path class="st8" d="M15.2,145c-1.5,0-2.7,1.2-2.7,2.7l0,0v2.7c9.9,4.8,21.5,4.8,31.4,0v-2.8c0-1.5-1.2-2.7-2.7-2.7h-26V145z"
						/>
					<path class="st11" d="M15.2,145c-1.5,0-2.7,1.2-2.7,2.7l0,0v2.7c1.8,0.8,3.6,1.5,5.5,2.1c-1.1-0.7-1.3-1.7-1.3-3.3V145H15.2z"
						/>
					<path class="st11" d="M35.5,145v4.2c0,2.1-0.5,3.9-2.4,4.4c3.8-0.5,7.4-1.6,10.8-3.2v-2.8c0-1.5-1.2-2.7-2.7-2.7c0,0,0,0-0.1,0
						h-5.6V145z"/>
					<path class="st12" d="M41.2,145c1.5,0,2.7,1.2,2.8,2.7c0,0,0,0,0,0.1v2.7c-1.8,0.8-3.6,1.5-5.5,2.1c1.1-0.7,1.3-1.7,1.3-3.3
						V145H41.2z"/>
					<path class="st4" d="M15.2,144.1c-2,0-3.6,1.6-3.6,3.6v3.1c0,9.2,7.4,16.6,16.6,16.6s16.6-7.4,16.6-16.6l0,0v-3.1
						c0-2-1.6-3.6-3.6-3.6H15.2z M15.2,145.9h26c1,0,1.8,0.8,1.8,1.8l0,0v3.1c0,8.2-6.6,14.8-14.8,14.8s-14.8-6.6-14.8-14.8l0,0
						v-3.1C13.4,146.7,14.2,145.9,15.2,145.9L15.2,145.9z"/>
					<path class="st4" d="M12.4,150l-0.4,0.8c10.2,5,22.2,5,32.5,0l-0.4-0.8C34.1,154.9,22.4,154.9,12.4,150z"/>
					<path class="st13" d="M26.5,160c0,1-1.2,1.8-2.6,1.8s-2.6-0.8-2.6-1.8s1.2-1.8,2.6-1.8S26.5,159,26.5,160z"/>
					<path class="st4" d="M9.9,117.7c4.9,0,8.9,4,8.9,8.9l0,0v4.5c0,4.9-4,8.9-8.9,8.9S1,136,1,131.1v-4.5
						C0.9,121.7,4.9,117.7,9.9,117.7C9.8,117.7,9.8,117.7,9.9,117.7z"/>
					<path class="st8" d="M15.1,124.1c0,1.6-1.3,2.9-2.9,2.9s-2.9-1.3-2.9-2.9s1.3-2.9,2.9-2.9l0,0C13.8,121.2,15,122.5,15.1,124.1z
						"/>
					<path class="st4" d="M46.6,140c-4.9,0-8.9-4-8.9-8.9l0,0v-7.4h17.8v7.4C55.5,136,51.6,140,46.6,140L46.6,140z"/>
					<path class="st8" d="M53.2,128.7c0,1.6-1.3,2.9-2.9,2.9c-1.6,0-2.9-1.3-2.9-2.9c0-1.6,1.3-2.9,2.9-2.9l0,0
						C51.9,125.9,53.2,127.1,53.2,128.7z"/>
					<path class="st4" d="M28.1,40.3c-7,0-13.5,3.4-17.7,9c-0.8-0.1-1.6-0.2-2.4-0.2c-10.8,0-19.6,8.8-19.6,19.6
						c0,1.1,0.1,2.3,0.3,3.4c-5,3.7-8,9.5-8,15.8c0,10.8,8.8,19.6,19.6,19.6c2.4,0,4.8-0.4,7-1.3c10.1,11.5,27.6,12.7,39.1,2.6
						c0.9-0.8,1.8-1.7,2.6-2.6c10.1,3.8,21.4-1.3,25.2-11.5c3.1-8.1,0.4-17.3-6.6-22.5c0.2-1.1,0.3-2.3,0.3-3.4
						c0-10.8-8.8-19.6-19.6-19.6c-0.8,0-1.6,0-2.4,0.2C41.9,43.6,35.3,40.3,28.1,40.3L28.1,40.3z M28.1,47.2L28.1,47.2
						c5.5,0,10.5,2.9,13.2,7.6l1.3,2.3l2.5-0.7c6.8-1.8,13.7,2.3,15.4,9c0.3,1.1,0.4,2.2,0.4,3.3l0,0c0,1.3-0.2,2.6-0.6,3.9
						l-0.9,2.7l2.5,1.4c6.1,3.4,8.3,11.1,4.9,17.2s-11.1,8.3-17.2,4.9L47,97.3l-1.8,2.6c-6.6,9.4-19.6,11.6-29,5c-1.9-1.4-3.6-3-5-5
						l-1.8-2.6l-2.7,1.6c-1.9,1.1-4.1,1.7-6.3,1.7c-7,0-12.6-5.6-12.7-12.6v-0.1c0-4.7,2.6-8.9,6.7-11.1l2.5-1.4L-4,72.6
						c-0.4-1.3-0.6-2.6-0.6-3.9l0,0C-4.6,61.7,1,56,7.9,56H8c1.1,0,2.1,0.1,3.2,0.4l2.6,0.7l1.3-2.3C17.8,50.1,22.8,47.2,28.1,47.2
						L28.1,47.2z"/>
					<path class="st14" d="M52.5,87.9c0,13.4-10.9,24.3-24.3,24.3S4,101.3,4,87.9s10.9-24.3,24.3-24.3l0,0
						C41.6,63.6,52.5,74.5,52.5,87.9z"/>
					<path class="st14" d="M72.2,87.9c0,8.9-7.2,16.1-16.1,16.1S40,96.8,40,87.9s7.2-16.1,16.1-16.1l0,0C65,71.7,72.2,79,72.2,87.9z
						"/>
					<path class="st14" d="M16.5,87.9c0,8.9-7.2,16.1-16.1,16.1s-16.1-7.2-16.1-16.1s7.2-16.1,16.1-16.1l0,0
						C9.3,71.7,16.5,79,16.5,87.9z"/>
					<path class="st15" d="M64.5,68.7c0,8.9-7.2,16.1-16.1,16.1s-16.1-7.2-16.1-16.1s7.2-16.1,16.1-16.1S64.5,59.8,64.5,68.7
						L64.5,68.7z"/>
					<path class="st15" d="M24.2,68.7c0,8.9-7.2,16.1-16.1,16.1S-8.1,77.6-8.1,68.7S-0.9,52.6,8,52.6l0,0
						C17,52.6,24.2,59.8,24.2,68.7L24.2,68.7z"/>
					<path class="st15" d="M46.9,62.3c0,10.3-8.3,18.6-18.6,18.6C18,81,9.6,72.6,9.6,62.3S18,43.7,28.2,43.7l0,0
						C38.5,43.7,46.9,52.1,46.9,62.3z"/>
					<path class="st15" d="M13.9,83.5c0,7.4-6,13.3-13.4,13.3s-13.3-6-13.3-13.4s6-13.3,13.4-13.3l0,0C7.9,70.2,13.9,76.1,13.9,83.5
						z"/>
					<path class="st15" d="M69.3,83.5c0,7.4-6,13.3-13.4,13.3s-13.3-6-13.3-13.4s6-13.3,13.4-13.3l0,0
						C63.4,70.2,69.3,76.1,69.3,83.5z"/>
					<path class="st15" d="M46.3,85.8c0,9.9-8.1,18-18,18s-18-8.1-18-18s8.1-18,18-18S46.3,75.9,46.3,85.8z"/>
					<path class="st4" d="M28.1,42.9c-6.7,0-13,3.5-16.5,9.2C2.5,50.1-6.5,55.9-8.5,65c-0.3,1.2-0.4,2.5-0.4,3.7
						c0,1.5,0.2,3.1,0.6,4.6c-5.1,3.1-8.3,8.6-8.3,14.6c0,9.4,7.6,17,17,17c2.7,0,5.4-0.6,7.8-1.9c8.3,11.1,24.1,13.3,35.1,5
						c1.9-1.4,3.6-3.1,5-5c8.4,4.2,18.6,0.9,22.8-7.5c4-7.9,1.2-17.7-6.4-22.3c0.4-1.5,0.6-3,0.6-4.6c0-9.4-7.5-17-16.9-17
						c-1.2,0-2.5,0.1-3.7,0.4C41.3,46.4,35,42.9,28.1,42.9L28.1,42.9z M28.1,44.6L28.1,44.6c6.4,0,12.3,3.4,15.5,8.9l0.3,0.6
						l0.6-0.2c8.2-2.1,16.5,2.8,18.6,11c0.3,1.2,0.5,2.5,0.5,3.8c0,1.6-0.3,3.2-0.8,4.7l-0.2,0.7l0.6,0.3
						c7.5,3.9,10.3,13.2,6.4,20.6c-3.9,7.5-13.2,10.3-20.6,6.4c-0.2-0.1-0.4-0.2-0.6-0.3l-0.7-0.4l-0.5,0.6
						c-7.4,10.6-22,13.1-32.6,5.6c-2.2-1.5-4.1-3.5-5.6-5.6l-0.4-0.6L8,101.1c-2.3,1.3-4.9,2-7.6,2c-8.4,0-15.3-6.8-15.3-15.2l0,0
						c0-5.6,3.1-10.8,8-13.4l0.6-0.3l-0.2-0.7C-7,72-7.2,70.4-7.2,68.8c0-8.4,6.8-15.3,15.3-15.3c1.3,0,2.6,0.2,3.8,0.5l0.6,0.2
						l0.3-0.6C16,48,21.8,44.6,28.1,44.6z"/>
					<path class="st16" d="M35.5,82.6c0,5.1-4.2,9.3-9.3,9.3s-9.3-4.2-9.3-9.3c0-5.1,4.2-9.3,9.3-9.3l0,0
						C31.3,73.3,35.5,77.4,35.5,82.6z"/>
					<path class="st16" d="M59.1,81.9c0,3.4-2.7,6.1-6.1,6.1c-3.4,0-6.1-2.7-6.1-6.1c0-3.3,2.7-6.1,6-6.1
						C56.4,75.8,59.1,78.6,59.1,81.9L59.1,81.9L59.1,81.9z"/>
					<path class="st16" d="M5.4,81.9c0,3.4-2.7,6.1-6.1,6.1l0,0c-3.4,0-6.1-2.7-6.1-6.1l0,0c0-3.4,2.7-6.1,6.1-6.1
						S5.4,78.6,5.4,81.9L5.4,81.9z"/>
					<path class="st16" d="M51.2,62.4c0,1.5-1.2,2.8-2.8,2.8s-2.8-1.2-2.8-2.8s1.2-2.8,2.8-2.8l0,0C50,59.6,51.2,60.8,51.2,62.4z"/>
					<path class="st16" d="M6.7,62.4c0,1.5-1.2,2.8-2.8,2.8c-1.5,0-2.8-1.2-2.8-2.8s1.2-2.8,2.8-2.8C5.4,59.6,6.7,60.8,6.7,62.4
						C6.7,62.3,6.7,62.4,6.7,62.4z"/>
					<path class="st17" d="M179.2,187.4c0-10.7,4.7-12.8,7.9-12.8s7.9,2.1,7.9,12.8s-3.6,25.8-7.9,25.8S179.2,198,179.2,187.4
						L179.2,187.4z"/>
					<path class="st4" d="M187.1,172.4c-2.6,0-5.2,1.2-6.9,3.2c-2,2.4-3.3,6.2-3.3,11.8c0,5.9,0.9,11.8,2.4,17.5
						c0.6,2.4,1.5,4.7,2.8,6.9c1.1,1.9,2.6,3.6,5,3.6s3.9-1.7,5-3.6c1.2-2.2,2.1-4.5,2.8-6.9c1.6-5.7,2.4-11.6,2.4-17.5
						c0-5.6-1.2-9.4-3.3-11.8C192.3,173.5,189.8,172.4,187.1,172.4L187.1,172.4z M187.1,176.8c1.4,0,2.7,0.5,3.5,1.6
						c1.1,1.3,2.2,4,2.2,9c-0.1,5.5-0.8,11-2.2,16.3c-0.5,2-1.3,4-2.3,5.8c-0.3,0.5-0.7,1-1.2,1.4c-0.5-0.4-0.9-0.9-1.2-1.4
						c-1-1.8-1.8-3.8-2.3-5.8c-1.4-5.3-2.2-10.8-2.2-16.3c0-5,1.1-7.6,2.2-9C184.5,177.4,185.8,176.8,187.1,176.8z"/>
					<path class="st17" d="M139.1,187.4c0-10.7,4.7-12.8,7.9-12.8s7.9,2.1,7.9,12.8s-3.6,25.8-7.9,25.8S139.1,198,139.1,187.4
						L139.1,187.4z"/>
					<path class="st4" d="M147,172.4c-2.6,0-5.2,1.2-6.9,3.2c-2,2.4-3.3,6.2-3.3,11.8c0,5.9,0.9,11.8,2.4,17.5
						c0.6,2.4,1.5,4.7,2.8,6.9c1.1,1.9,2.6,3.6,5,3.6s3.9-1.7,5-3.6c1.2-2.2,2.1-4.5,2.8-6.9c1.6-5.7,2.4-11.6,2.4-17.5
						c0-5.6-1.2-9.4-3.3-11.8C152.2,173.5,149.7,172.4,147,172.4L147,172.4z M147,176.8c1.4,0,2.7,0.6,3.5,1.6c1.1,1.3,2.2,4,2.2,9
						c-0.1,5.5-0.8,11-2.2,16.3c-0.5,2-1.3,4-2.3,5.8c-0.3,0.6-0.7,1-1.2,1.4c-0.5-0.4-0.9-0.9-1.2-1.4c-1-1.8-1.8-3.8-2.3-5.8
						c-1.4-5.3-2.2-10.8-2.2-16.3c0-5,1.1-7.6,2.2-9C144.3,177.4,145.6,176.8,147,176.8L147,176.8z"/>
					<path class="st17" d="M102,129.4c4.1-9.8,9.2-10,12.2-8.8s6.5,5,2.4,14.9s-13.2,22.5-17.2,20.8S97.9,139.3,102,129.4z"/>
					<path class="st4" d="M115.1,118.6c-2.4-1-5.2-0.9-7.6,0.3c-2.8,1.4-5.4,4.4-7.6,9.7c-2.2,5.5-3.7,11.2-4.5,17.1
						c-0.4,2.5-0.4,5-0.1,7.4c0.3,2.2,1,4.3,3.2,5.2s4.2-0.1,6-1.4c2-1.5,3.7-3.3,5.2-5.3c3.6-4.7,6.6-9.8,8.9-15.2
						c2.2-5.2,2.5-9.2,1.5-12.2C119.4,121.6,117.5,119.6,115.1,118.6z M113.4,122.7c1.3,0.5,2.2,1.5,2.6,2.8
						c0.5,1.7,0.5,4.5-1.4,9.1c-2.2,5.1-5,9.8-8.3,14.2c-1.3,1.7-2.7,3.2-4.3,4.5c-0.5,0.4-1,0.7-1.6,0.9c-0.3-0.5-0.5-1.1-0.6-1.8
						c-0.2-2.1-0.2-4.2,0.1-6.3c0.7-5.5,2.1-10.8,4.2-15.9c1.9-4.6,3.9-6.6,5.5-7.4C110.7,122.2,112.2,122.1,113.4,122.7
						L113.4,122.7z"/>
					<path class="st4" d="M167.1,72.5c-34.3,0-62.2,27.8-62.2,62.2s27.8,62.2,62.2,62.2s62.2-27.8,62.2-62.2
						C229.2,100.3,201.4,72.5,167.1,72.5z M167.1,79.6c30.4,0,55.1,24.6,55.1,55.1c0,30.4-24.6,55.1-55.1,55.1
						c-30.4,0-55.1-24.6-55.1-55.1l0,0c0-30.4,24.5-55,54.9-55.1C167,79.6,167,79.6,167.1,79.6L167.1,79.6z"/>
					<path class="st17" d="M224.8,133.3c0,2.4-0.3,30.8-16.8,38.8c-11.8,5.7-18.3-5.4-42.1-5.1c-22.4,0.3-28.2,10.3-39.2,5.1
						c-16.6-7.8-16.8-36.4-16.8-38.8c0-3.3,0.4-29.9,16.8-38.8c9.7-5.2,14.8,1.2,38.8,1.5c26.2,0.3,32-7.3,42.6-1.5
						C224.4,103.6,224.8,129.9,224.8,133.3z"/>
					<path class="st8" d="M167.7,77.1c-25.1,0-47.5,15.9-55.8,39.6h111.6C215.2,93,192.8,77.1,167.7,77.1z"/>
					<path class="st8" d="M164.6,78.4c-23.9,0-45,15.5-52.2,38.2h104.4C209.6,93.9,188.5,78.5,164.6,78.4z"/>
					<path class="st8" d="M111.4,155c6.1,11.8,15.5,21.7,27,28.3c8.9,5.3,19,8.2,29.3,8.4c5.6,0.1,11.1-0.7,16.4-2.3
						c10.6-3.3,19.9-9.6,27-18.1c4.2-4.9,7.6-10.4,10.1-16.3L111.4,155L111.4,155z"/>
					<path class="st8" d="M114.4,155.1c13,28.6,46.8,41.2,75.4,28.1c12.4-5.7,22.4-15.7,28.1-28.1H114.4z"/>
					<path class="st4" d="M167.1,75.1c-32.9,0-59.5,26.7-59.5,59.5s26.7,59.5,59.5,59.5s59.5-26.7,59.5-59.5S199.9,75.1,167.1,75.1z
						 M167.1,76.9c31.9,0,57.8,25.9,57.8,57.7s-25.9,57.8-57.8,57.8s-57.7-25.9-57.8-57.7C109.3,102.8,135.1,76.9,167.1,76.9
						C167,76.9,167.1,76.9,167.1,76.9z"/>
					<path class="st4" d="M185.9,113.4c5,0,9.1,4.1,9.1,9.1l0,0v4.6c0.2,5-3.8,9.3-8.8,9.4s-9.3-3.8-9.4-8.8c0-0.2,0-0.4,0-0.6v-4.6
						C176.8,117.5,180.8,113.4,185.9,113.4L185.9,113.4z"/>
					<path class="st8" d="M180.6,120c0-1.6,1.3-3,2.9-3c1.6,0,3,1.3,3,2.9c0,0.8-0.3,1.6-0.9,2.2c-1.1,1.2-3,1.2-4.1,0l0,0
						C180.9,121.5,180.6,120.8,180.6,120L180.6,120z"/>
					<path class="st4" d="M148.2,113.4c5,0,9.1,4.1,9.1,9.1l0,0v4.6c0,5-4.1,9.1-9.1,9.1s-9.1-4.1-9.1-9.1l0,0v-4.6
						C139.1,117.5,143.2,113.4,148.2,113.4L148.2,113.4L148.2,113.4z"/>
					<path class="st8" d="M142.9,120c0-1.6,1.4-2.9,3-2.9s2.9,1.4,2.9,3s-1.3,2.9-2.9,2.9S142.9,121.7,142.9,120z"/>
					<path class="st9" d="M157.4,139c-1.1,0-2,0.9-2,2v2.3c0,6.5,5.3,11.8,11.8,11.8s11.8-5.3,11.8-11.8l0,0V141c0-1.1-0.9-2-2-2
						H157.4z"/>
					<path class="st10" d="M167.1,147c-3.4,0-6.6,1.4-8.9,4c4.3,4.9,11.7,5.4,16.6,1.1c0.4-0.3,0.8-0.7,1.1-1.1
						C173.7,148.4,170.5,147,167.1,147L167.1,147z"/>
					<path class="st8" d="M157.4,139c-1.1,0-2,0.9-2,2v2c7.4,3.6,16.1,3.6,23.5,0v-2c0-1.1-0.9-2-2-2H157.4z"/>
					<path class="st11" d="M175.7,139v3.1c0,1.2-0.1,1.9-0.9,2.5c1.4-0.4,2.8-0.9,4.1-1.5v-2c0-1.1-0.9-2-2-2L175.7,139z"/>
					<path class="st11" d="M157.4,139c-1.1,0-2,0.9-2,2v2c2.5,1.2,5.3,2,8.1,2.4c-1.4-0.4-1.8-1.7-1.8-3.3V139H157.4z"/>
					<path class="st12" d="M158.5,139v3.1c0,1.2,0.1,1.9,1,2.5c-1.4-0.4-2.8-0.9-4.1-1.5v-2c0-1.1,0.9-2,2-2L158.5,139z"/>
					<path class="st4" d="M157.4,138.1c-1.6,0-2.9,1.3-2.9,2.9v2.3c0,7,5.7,12.6,12.6,12.6c7,0,12.6-5.7,12.6-12.6l0,0V141
						c0-1.6-1.3-2.9-2.9-2.9H157.4z M176.8,139.8c0.6,0,1.1,0.5,1.1,1.1l0,0v2.3c-0.2,6-5.2,10.7-11.2,10.5
						c-5.7-0.2-10.4-4.8-10.5-10.5V141c0-0.6,0.5-1.1,1.1-1.1c0,0,0,0,0.1,0L176.8,139.8z"/>
					<path class="st4" d="M178.9,142.5c-7.5,3.6-16.2,3.6-23.6,0l-0.4,0.8c7.7,3.7,16.7,3.7,24.4,0L178.9,142.5z"/>
					<path class="st13" d="M168.4,150.1c0-0.4,0.2-0.8,0.6-1c0.4-0.3,0.9-0.4,1.4-0.4c1.1,0,1.9,0.6,1.9,1.4s-0.9,1.4-1.9,1.4
						c-0.5,0-1-0.1-1.4-0.4C168.6,150.9,168.4,150.5,168.4,150.1L168.4,150.1z"/>
					<path class="st4" d="M155.7,52.6v6c5.7,0.4,11.2,0.4,17,0.9c7.3,0.5,11.6,2.7,14.2,5.2c2.4,2.5,3.7,5.8,3.6,9.3
						c0,6.1-3.3,10.2-9,13s-13.8,3.8-22.1,2.5c-1.2-0.2-2.5-0.4-3.7-0.7V95c0.9,0.2,1.9,0.4,2.8,0.5c9.3,1.4,18.5,0.5,25.6-3
						s12.3-10,12.3-18.4c0.1-5-1.8-9.9-5.3-13.5c-3.8-3.8-9.7-6.4-18-7C166.9,52.9,161.3,52.9,155.7,52.6L155.7,52.6z"/>
					<path class="st4" d="M134.1,49l2,5.3l0.5,1.3c-5.3-0.7-10.5-1.8-15.6-3.4l-4.6-1.6l0.6,4.8c3.1,23.7,22.2,36.7,40.6,39.8v-6.1
						c-14.8-2.8-29.3-12.4-33.6-29.8c5.5,1.7,11.2,2.6,17,2.6h4.3l-1.8-4.8c4.6,0.8,9.3,1.3,14,1.5v-6c-6.1-0.2-12.1-1-18-2.4
						L134.1,49z"/>
					<path class="st15" d="M138.9,53.2l2.1,5.7c-9.7,0.1-21-3.9-21-3.9c6,45.3,73.6,48.1,73.6,18.9c0-8.2-5-16.4-20.5-17.5
						C161.3,55.5,151.6,56.3,138.9,53.2L138.9,53.2z"/>
					<path class="st16" d="M138.9,53.2l2.1,5.7c-9.7,0.1-21-3.9-21-3.9c15.8,20.5,62.1,23.1,70.3,8.9c-3-3.9-8.5-6.8-17.3-7.5
						C161.3,55.5,151.6,56.3,138.9,53.2L138.9,53.2z"/>
					<path class="st14" d="M120,55c6,45.3,73.6,48.1,73.6,18.9c0-1.3-0.1-2.7-0.4-4C182.3,96,127.9,84.5,120,55z"/>
					<path class="st4" d="M155.7,54.8v1.5c5.7,0.4,11.2,0.4,17.2,0.8c7.6,0.6,12.6,2.8,15.6,5.9c2.8,2.9,4.3,6.8,4.2,10.9
						c0,7-4,12-10.2,15s-14.8,4-23.4,2.7c-1.1-0.2-2.3-0.4-3.4-0.6v1.5c1.1,0.2,2.1,0.4,3.1,0.6c8.9,1.4,17.7,0.4,24.3-2.8
						s11.1-8.8,11.1-16.4c0.1-4.5-1.6-8.8-4.6-12c-3.4-3.4-8.7-5.8-16.6-6.3C166.9,55.1,161.4,55.1,155.7,54.8L155.7,54.8z"/>
					<path class="st4" d="M137.7,52.1l0.5,1.3l1.7,4.6c-9.2-0.2-19.7-3.8-19.7-3.8l-1.2-0.4l0.2,1.2c3,22.5,20.9,34.7,38.4,37.8
						v-1.5C141,88.3,124.2,77,120.9,56c1.7,0.6,11.1,3.7,20.1,3.6h1.1l-2-5.5c5.8,1.3,11.6,2,17.5,2.2v-1.5
						c-6.2-0.2-12.4-1-18.5-2.5L137.7,52.1z"/>
				</g>
			</g>
		</g>
	</g>
	<g>
		<defs>
			<rect id="SVGID_00000155860700189822266100000005975688789179628452_" width="195.6" height="280.6"/>
		</defs>
		<clipPath id="SVGID_00000093142241673323606010000013976109798652233117_">
			<use xlink:href="#SVGID_00000155860700189822266100000005975688789179628452_"  style="overflow:visible;"/>
		</clipPath>
	</g>
	<g>
		<defs>
			<rect id="SVGID_00000029746818389259490900000005690371145753443000_" width="195.6" height="280.6"/>
		</defs>
		<clipPath id="SVGID_00000051353560124274561350000009532519660544766865_">
			<use xlink:href="#SVGID_00000029746818389259490900000005690371145753443000_"  style="overflow:visible;"/>
		</clipPath>
		<path style="clip-path:url(#SVGID_00000051353560124274561350000009532519660544766865_);fill:#FFDC24;" d="M150.6,0h29h16v16
			c0,7,0,14,0,21c-10.2,12.4-28.6,14.2-41,4S140.4,12.4,150.6,0z"/>
	</g>
	<g>
		<defs>
			<rect id="SVGID_00000124859751654479273930000011254750938872128136_" width="195.6" height="280.6"/>
		</defs>
		<clipPath id="SVGID_00000079472771823263372790000012938119239460529052_">
			<use xlink:href="#SVGID_00000124859751654479273930000011254750938872128136_"  style="overflow:visible;"/>
		</clipPath>
	</g>
</g>
<g class="st19">
	<path class="st3" d="M39.9,234v34.3H29.2l0.2-2.8c-0.7,1.2-1.6,2-2.7,2.6s-2.3,0.9-3.7,0.9c-1.6,0-2.9-0.3-3.9-0.8
		c-1-0.6-1.8-1.3-2.3-2.2S16.1,264,16,263c-0.1-1-0.2-3-0.2-5.9V234h10.4v23.3c0,2.7,0.1,4.3,0.2,4.8c0.2,0.5,0.6,0.8,1.3,0.8
		c0.8,0,1.2-0.3,1.4-0.8c0.1-0.5,0.2-2.2,0.2-5V234H39.9z"/>
	<path class="st3" d="M66.1,234l-4.2,13.7l5.5,20.6h-10l-3.3-14.9l0,14.9H43.6v-41.8H54l0,17.6l3.3-10H66.1z"/>
	<path class="st3" d="M79.3,234l-0.4,4.5c1.5-3.2,3.7-4.9,6.6-5.1v12.1c-1.9,0-3.3,0.3-4.2,0.8s-1.4,1.2-1.7,2.2
		c-0.2,0.9-0.3,3-0.3,6.4v13.5H68.9V234H79.3z"/>
	<path class="st3" d="M97.2,247.3h-9.8V245c0-2.7,0.3-4.7,0.9-6.1c0.6-1.4,1.8-2.7,3.7-3.8c1.8-1.1,4.2-1.7,7.2-1.7
		c3.5,0,6.2,0.6,8,1.9c1.8,1.2,2.9,2.8,3.2,4.6c0.4,1.8,0.5,5.6,0.5,11.2v17.2h-10.2v-3.1c-0.6,1.2-1.5,2.1-2.5,2.8
		s-2.2,0.9-3.6,0.9c-1.8,0-3.5-0.5-5-1.5c-1.5-1-2.3-3.3-2.3-6.7v-2.8c0-2.6,0.4-4.3,1.2-5.2c0.8-0.9,2.8-2,6-3.3
		c3.4-1.3,5.3-2.2,5.5-2.7c0.2-0.5,0.4-1.4,0.4-2.8c0-1.8-0.1-3-0.4-3.5c-0.3-0.5-0.7-0.8-1.3-0.8c-0.7,0-1.1,0.2-1.3,0.7
		c-0.2,0.5-0.3,1.6-0.3,3.6V247.3z M100.5,252c-1.7,1.2-2.6,2.2-2.9,3.1s-0.4,2-0.4,3.6c0,1.8,0.1,2.9,0.3,3.4
		c0.2,0.5,0.7,0.8,1.4,0.8c0.7,0,1.1-0.2,1.3-0.6c0.2-0.4,0.3-1.5,0.3-3.2V252z"/>
	<path class="st3" d="M125.3,226.4v5.5h-10.8v-5.5H125.3z M125.3,234v34.3h-10.8V234H125.3z"/>
	<path class="st3" d="M139.6,234l-0.2,3.2c0.8-1.3,1.7-2.2,2.8-2.8c1.1-0.6,2.4-0.9,3.8-0.9c1.8,0,3.3,0.4,4.4,1.3
		c1.1,0.8,1.9,1.9,2.2,3.2c0.3,1.3,0.5,3.4,0.5,6.4v24h-10.4v-23.8c0-2.4-0.1-3.8-0.2-4.3c-0.2-0.5-0.6-0.8-1.3-0.8
		c-0.7,0-1.2,0.3-1.4,0.9s-0.3,2.2-0.3,4.8v23.2H129V234H139.6z"/>
	<path class="st3" d="M166,247.3h-9.8V245c0-2.7,0.3-4.7,0.9-6.1s1.8-2.7,3.7-3.8c1.8-1.1,4.2-1.7,7.2-1.7c3.5,0,6.2,0.6,8,1.9
		c1.8,1.2,2.9,2.8,3.2,4.6c0.4,1.8,0.5,5.6,0.5,11.2v17.2h-10.2v-3.1c-0.6,1.2-1.5,2.1-2.5,2.8s-2.2,0.9-3.6,0.9
		c-1.8,0-3.5-0.5-5-1.5c-1.5-1-2.3-3.3-2.3-6.7v-2.8c0-2.6,0.4-4.3,1.2-5.2c0.8-0.9,2.8-2,6-3.3c3.4-1.3,5.3-2.2,5.5-2.7
		c0.2-0.5,0.4-1.4,0.4-2.8c0-1.8-0.1-3-0.4-3.5c-0.3-0.5-0.7-0.8-1.3-0.8c-0.7,0-1.1,0.2-1.3,0.7c-0.2,0.5-0.3,1.6-0.3,3.6V247.3z
		 M169.3,252c-1.7,1.2-2.6,2.2-2.9,3.1c-0.3,0.8-0.4,2-0.4,3.6c0,1.8,0.1,2.9,0.3,3.4c0.2,0.5,0.7,0.8,1.4,0.8
		c0.7,0,1.1-0.2,1.3-0.6c0.2-0.4,0.3-1.5,0.3-3.2V252z"/>
</g>
<g class="st19">
	<path class="st5" d="M168.9,29.1v2.7h-8.7l0-2.3c2.6-4.2,4.1-6.8,4.6-7.8c0.5-1,0.7-1.8,0.7-2.3c0-0.4-0.1-0.8-0.2-1
		s-0.4-0.3-0.7-0.3s-0.5,0.1-0.7,0.4s-0.2,0.7-0.2,1.4v1.5h-3.5v-0.6c0-0.9,0-1.6,0.1-2.1c0.1-0.5,0.3-1,0.7-1.5
		c0.4-0.5,0.8-0.9,1.4-1.1c0.6-0.3,1.3-0.4,2.1-0.4c1.6,0,2.8,0.4,3.6,1.2c0.8,0.8,1.2,1.8,1.2,3c0,0.9-0.2,1.9-0.7,2.9
		c-0.5,1-1.8,3.2-4,6.4H168.9z"/>
	<path class="st5" d="M179.9,20.1h-3.9c0-0.7,0-1.2,0-1.4c0-0.2-0.1-0.4-0.2-0.5c-0.1-0.1-0.3-0.2-0.6-0.2c-0.2,0-0.4,0.1-0.5,0.2
		c-0.1,0.1-0.2,0.3-0.2,0.5s0,0.6,0,1.2v2.5c0.2-0.4,0.5-0.7,0.9-1s0.9-0.3,1.4-0.3c0.7,0,1.4,0.2,1.9,0.6c0.6,0.4,0.9,0.9,1.1,1.4
		c0.1,0.5,0.2,1.3,0.2,2.2v1.3c0,1.1,0,1.9-0.1,2.5c-0.1,0.5-0.3,1-0.7,1.5c-0.4,0.5-0.9,0.8-1.5,1.1c-0.6,0.3-1.4,0.4-2.2,0.4
		c-1.1,0-1.9-0.1-2.6-0.4c-0.7-0.3-1.2-0.7-1.6-1.3c-0.4-0.5-0.6-1.1-0.6-1.7c-0.1-0.6-0.1-1.8-0.1-3.5v-2.2c0-1.9,0-3.1,0.1-3.8
		c0.1-0.6,0.3-1.2,0.7-1.8c0.4-0.6,0.9-1,1.6-1.3c0.7-0.3,1.5-0.4,2.4-0.4c1.1,0,2,0.2,2.7,0.5c0.7,0.4,1.2,0.9,1.5,1.5
		C179.7,18.3,179.9,19.1,179.9,20.1z M175.9,25.1c0-0.6-0.1-0.9-0.2-1.2c-0.1-0.2-0.3-0.3-0.6-0.3c-0.3,0-0.5,0.1-0.6,0.3
		s-0.2,0.6-0.2,1.2v2.9c0,0.7,0.1,1.2,0.2,1.4c0.1,0.2,0.3,0.3,0.6,0.3c0.2,0,0.3-0.1,0.5-0.2c0.2-0.2,0.3-0.6,0.3-1.3V25.1z"/>
</g>
</svg>
