<?xml version="1.0" encoding="utf-8"?>
<!-- Generator: Adobe Illustrator 26.0.3, SVG Export Plug-In . SVG Version: 6.00 Build 0)  -->
<svg version="1.1" id="Слой_1" xmlns="http://www.w3.org/2000/svg" xmlns:xlink="http://www.w3.org/1999/xlink" x="0px" y="0px"
	 viewBox="0 0 195.6 280.6" style="enable-background:new 0 0 195.6 280.6;" xml:space="preserve">
<style type="text/css">
	.st0{clip-path:url(#SVGID_00000056388884949169463900000000658909166454843303_);fill:#428ECC;}
	.st1{clip-path:url(#SVGID_00000056388884949169463900000000658909166454843303_);fill:#FFFFFF;}
	.st2{clip-path:url(#SVGID_00000056388884949169463900000000658909166454843303_);}
	.st3{fill-rule:evenodd;clip-rule:evenodd;fill:#107BC0;}
	.st4{fill-rule:evenodd;clip-rule:evenodd;fill:#424242;}
	.st5{fill-rule:evenodd;clip-rule:evenodd;fill:#FFFFFF;}
	.st6{fill-rule:evenodd;clip-rule:evenodd;fill:#DA271E;}
	.st7{fill:#FFFFFF;}
	.st8{fill:none;}
	.st9{fill-rule:evenodd;clip-rule:evenodd;fill:#8C8B89;}
	.st10{fill:none;stroke:#FFFFFF;stroke-width:3.54;stroke-linecap:round;}
	.st11{fill:#424242;}
	.st12{fill:#F0F0F0;}
	.st13{fill-rule:evenodd;clip-rule:evenodd;fill:#B7B6B4;}
	.st14{fill-rule:evenodd;clip-rule:evenodd;fill:#706F6B;}
	.st15{fill:#706F6B;}
	.st16{fill:#B7B6B4;}
	.st17{fill:#53524E;}
	.st18{fill:#8C8B89;}
	.st19{fill:#D3D3D2;}
	.st20{fill:#C6C5C4;}
	.st21{fill:#A8A8A6;}
	.st22{fill-rule:evenodd;clip-rule:evenodd;fill:#EEE52C;}
	.st23{fill-rule:evenodd;clip-rule:evenodd;fill:#FBFBFB;}
	.st24{fill-rule:evenodd;clip-rule:evenodd;fill:#ECE42F;}
	
		.st25{clip-path:url(#SVGID_00000056388884949169463900000000658909166454843303_);fill:#FFFFFF;stroke:#424242;stroke-width:0.75;stroke-miterlimit:10;}
	
		.st26{clip-path:url(#SVGID_00000056388884949169463900000000658909166454843303_);fill:#107BC0;stroke:#424242;stroke-width:0.75;stroke-miterlimit:10;}
	
		.st27{clip-path:url(#SVGID_00000056388884949169463900000000658909166454843303_);fill:#DF221B;stroke:#424242;stroke-width:0.75;stroke-miterlimit:10;}
	
		.st28{clip-path:url(#SVGID_00000056388884949169463900000000658909166454843303_);fill:#F7C503;stroke:#424242;stroke-width:0.75;stroke-miterlimit:10;}
	
		.st29{clip-path:url(#SVGID_00000056388884949169463900000000658909166454843303_);fill:#F7C503;fill-opacity:0;stroke:#424242;stroke-width:0.75;stroke-miterlimit:10;}
	
		.st30{clip-path:url(#SVGID_00000056388884949169463900000000658909166454843303_);fill:none;stroke:#424242;stroke-width:0.75;stroke-miterlimit:10;}
	.st31{clip-path:url(#SVGID_00000056388884949169463900000000658909166454843303_);fill:#FFFFFF;stroke:#FFFFFF;stroke-width:0.84;}
	
		.st32{clip-path:url(#SVGID_00000056388884949169463900000000658909166454843303_);fill:#010101;stroke:#424242;stroke-width:0.75;stroke-miterlimit:10;}
	.st33{clip-path:url(#SVGID_00000056388884949169463900000000658909166454843303_);enable-background:new    ;}
	.st34{fill:#107BC0;}
	.st35{font-family:'Impact';}
	.st36{font-size:24.77px;}
	.st37{clip-path:url(#SVGID_00000056388884949169463900000000658909166454843303_);fill:#DF221B;}
	.st38{font-size:20px;}
</style>
<g>
	<defs>
		<rect id="SVGID_1_" x="0" y="0" width="195.6" height="280.6"/>
	</defs>
	<clipPath id="SVGID_00000066506158731218688610000014624857029136448187_">
		<use xlink:href="#SVGID_1_"  style="overflow:visible;"/>
	</clipPath>
	
		<rect x="-9.2" y="-8.4" style="clip-path:url(#SVGID_00000066506158731218688610000014624857029136448187_);fill:#428ECC;" width="214" height="297.9"/>
	<path style="clip-path:url(#SVGID_00000066506158731218688610000014624857029136448187_);fill:#FFFFFF;" d="M96.4,135.9
		C74.9,123,59.1,106,49.3,85.1C40,65.1,36,41,37.4,13.6l0.1-2.2h120.3l0.1,2.2c3.7,57-15.7,97-59.2,122.4l-1.2,0.7L96.4,135.9z"/>
	<g id="layer1" style="clip-path:url(#SVGID_00000066506158731218688610000014624857029136448187_);">
		<g id="g3482">
			<path id="path2183" class="st3" d="M39.8,13.7C36.9,67,54.5,108.1,97.6,133.9c38.9-22.7,62-59.3,58.1-120.2L39.8,13.7z"/>
			<g id="g3195">
				<path id="path3184" class="st4" d="M46.8,14c0.8,1.2,1.2,2.6,1.2,4c1.5-0.1,2.7,1.1,2.8,2.6c0,0.1,0,0.1,0,0.2l0.6-0.6L79.6,52
					l0.9-3.5L52.6,19.1l0.7-0.6c-1.8-0.2-2.5-1.2-2.3-2.8C49.5,15.4,48.1,14.8,46.8,14z"/>
				<path id="path3190" class="st5" d="M47.8,15c0.5,0.8,0.7,1.7,0.6,2.6c1.3,0.1,2.4,1.2,2.6,2.5l0.5-0.5l28.3,31.1l0.2-1.3
					L52,19.1l0.5-0.4c-1.2-0.3-2.1-1.4-2-2.7C49.5,15.9,48.6,15.6,47.8,15z"/>
			</g>
			<path id="path2820" class="st4" d="M120.1,20.6c-2.6,1.2-5.7,1.1-8.2-0.1c-5.5-1.5-7.6,2.2-12.5,1.9v2.9c1.8,0.2,3.6,0,5.3-0.5
				c2.8-1.6,6.3-1.4,8.8,0.5c2.4,1.2,4.7,1.5,6.6,0.9c1.8-1,3.6-0.6,5.4,0.2c1.4,0.9,3,0.5,4.5,0.4c1.5-0.6,3.3-0.5,4.7,0.2
				c1.1,0.5,2.4,0.5,3.5,0c1.6-0.9,2.9-0.4,4.3-0.1c1.1,0.6,2.2,0.8,2.9-0.1c2.7-1.7,4.6,0.9,6.9,1.8c-2.8,0.9-3.9-0.3-6.3,0.7
				c-1.2,0.7-2.7,0.9-4.1,0.5c-0.9-0.2-1.7-0.7-2.7,0.1c-1.7,0.7-3.7,0.7-5.4,0c-1.3-0.5-2.8-0.4-4,0.3c-1.7,0.6-3.6,0.5-5.3-0.1
				c-1.5-0.5-3.1-0.4-4.6,0.2c-2.5,0.9-5.2,0.8-7.6-0.4c-4.1-1.6-8.1,1.9-13.2,1.5L99.1,35c0.8,0.4,3.1-0.2,5.2-0.6
				c3.5-1.5,6.7-0.7,9.8,0.7c2,0.4,3.9,1,6.1,0.6c2-0.8,4.4-0.7,6.3,0.4c1.1,0.6,2.4,0.7,3.6,0.4c2-0.9,3.5-0.2,5,0.5
				c1,0.3,2.5,0.7,3.3,0.1c1.7-0.5,3.4-0.8,4.7,0c0.9,0.6,2.1,0.6,3,0.1c1.8-1.9,4.3,1,6.6,1.9c-1.2,0.1-1.9,1.1-3.7,0.2
				c-0.8-0.1-1.6-0.4-2.1,0.2c-1.8,0.6-3.7,0.5-5.4-0.1c-0.9-0.2-1.6-1.1-3.1,0c-1.6,0.8-3.4,0.8-5,0c-1-0.5-2.2-0.5-3.2,0.1
				c-1.8,0.7-3.9,0.7-5.7-0.1c-1.3-0.5-2.7-0.5-4,0c-3,0.8-6.2,0.5-8.9-0.9c-1.8-0.3-3.4-1.2-6-0.1c-2.9,0.9-6.1,1.2-9.1,0.7
				c-3.6-0.4-5.8-0.8-8.8,0.9c-2.6,1.5-5.7,1.9-8.6,1.2c-1.8-0.1-3.1-1.1-6.7,2.1c-1.4,0.1-2.5,0-1.8-1.8l2-2
				c0.4-1.5-0.6-2.5-1.8-2.3l-2.4,1.8c-1.6,0.2-1.8-0.6-1.2-1.7l2.1-2.1c0.4-0.8,0-1.7-0.8-2.1c-0.3-0.1-0.6-0.2-1-0.1l-2.8,1.8
				c-1.3,0-2.3-0.3-1.5-1.9l3-3.1c0.5-1.1-0.8-2.8-2.1-2.2l-3.5,2.4c-1.2,0.2-1.8,0.2-1.4-1.6l3-3.1c0.7-1.6-0.8-2.5-2-1.9l-3.5,2.4
				c-1.2,0.2-1.9,0-1-1.4l3.4-3c0.5-2.3-0.8-2.7-2.1-2.4l-4.5,2.9c-0.6,0-1.7,0.1-1.1-1.5l5.6-4c4.1-2.4,9.1-2.7,13.5-0.8
				c3.9,1.3,8,1.4,11.9,0.2c4.6-2.5,9.2-1.2,13-0.2c2.5,1.2,5.4,1.4,8.1,0.6c2.9-1.4,6.3-1.4,9.1,0c2.2,1.2,4.8,1.4,7.1,0.5
				c1.7-0.7,3.7-1.6,6.5,0c1,0.9,2.6,1,3.7,0.2c1.2-1.3,2.6-1.5,4.4-0.1c1.3,0.3,2.3,1,3.8,0.1c1.2-1.6,3.7-0.9,4.4,0.1
				c0.9,0.6,2.6,0.2,4-0.5c0.8-0.8,2.2-0.8,3,0l3.5,0.2c-0.3,1.9-1.6,2.1-3.2,1.7c-1.1,0-2.1-0.3-3,0.4c-1.8,0.9-3.9,1.2-5.9,0.8
				c-0.5-0.4-1.2-0.4-1.6,0.1c0,0.1-0.1,0.1-0.1,0.2c-1.2,1.2-2.6,0.8-3.9,0.5s-2.8-1.3-4.3-0.1c-1.9,1.2-4.4,1.4-6.4,0.4
				C123,20.2,121.4,19.9,120.1,20.6z"/>
			<path id="path2829" class="st5" d="M141.6,39c1.5,0.8,3.4,0.8,4.9-0.1c1.7-1.2,3.4,0.4,4.6,0.2c-1.4-0.6-2.9-2.9-4.4-1.4
				c-1.2,0.5-2.5,0.5-3.7,0c-1.5-0.5-3.1-0.8-4.5,0c-1.4,0.6-3.1,0.5-4.4-0.5c-1-0.3-1.4-1-3.5-0.2c-1.5,0.5-3.2,0.4-4.6-0.4
				c-2.4-1.9-5-0.6-5.8-0.4c-2.4,0.6-5,0.2-7.2-1c-3-1.2-6.4-1.3-9.4-0.1c-1.8,0.5-3.7,0.7-5.5,0.5l0.2-4.9c2.6-0.1,4.6,0.1,6.9-1
				c2.1-0.7,4.2-1.8,7.8-0.1c2.3,0.9,4.9,0.9,7.1-0.2c1.4-0.4,2.8-0.9,4.4,0c1.4,0.6,3.7,1.2,5.4-0.1c1.3-0.6,2.7-0.5,3.9,0.1
				c1.3,0.2,3.1,1.1,5,0c1.5-0.9,2.2-0.9,3.1-0.3c1.2,0.4,2.6,0.2,3.7-0.5c1.5-0.8,3.3-0.4,4.6-0.5c-1-0.1-2.6-1.8-4-0.6
				c-1.2,0.2-2.3,0.9-3.6,0c-1.1-0.6-2.6-0.5-3.6,0.3c-1.5,0.5-3.1,0.5-4.5-0.2c-1.3-0.7-2.8-0.7-4.1-0.1c-1.8,0.4-3.7,0.2-5.4-0.6
				c-1.4-0.5-2.7-1-4.3-0.2c-2.6,1.1-5.4,0.4-8.3-1.2c-2-0.6-2.9-2-9.4,0.5l-4.6,0.1l0.3-5c-0.1,0,0.3,0.3,0.2,0.4
				c2.5,0,4.6,0,6.7-1.4c2.3-0.9,4.9-0.8,7.1,0.3c2.5,0.4,4.2,1,6.7-0.4c1.6-0.8,3.5-0.9,5.1-0.1c2.7,1.1,4,0.9,5.6-0.2
				c1.4-0.8,2.8-1.2,4.1-0.4c1.4,0.4,2.9,1.1,4.3,0c1-0.7,2.2-1,3-0.5c1.6,0.7,3.5,0.1,5-0.8c2-1.4,4.7,0.7,5.3-0.8
				c-2,0-4.3-1.4-5.8-0.1c-1.2,0.8-2.7,0.8-3.9,0.1c-1.1-1-2.8-1-3.9,0c-1.1,0.8-2.6,0.8-3.7,0c-1.5-1.1-3.4-1.3-4.5,0
				c-1.6,1.1-2.7,0.8-4.6-0.3c-1.9-0.8-3.9-0.6-6.3,0.5c-3.4,0.5-4.6,0.3-7.2-1c-2.5-1.1-5.4-1.1-7.8,0.1c-3,1.2-6.4,1.1-9.2-0.4
				c-3.8-1.1-7.7-1.9-12.5,0.2c-4.3,1.4-9,1.1-11.6-0.1c-5.3-2.6-10.8-1.7-14.1,0.7l-4.9,3.5c-0.1,0.4-0.2,0.9,0.7,0.8l3.9-2.8
				c1.1-0.6,2.5-0.1,3.1,1c0.3,0.6,0.3,1.4,0,2l-3.4,2.9c-0.3,0.8-0.2,1.2,0.4,1.1l3.5-2.8c2-0.7,3.5,0.6,2.7,3l-3,2.9
				c-0.4,0.8-0.2,1.2,0.7,1l3.2-2.6c2.5-0.7,3.6,0.8,2.9,3.2l-3.2,3.1c-0.5,1,0.5,0.8,0.9,1l2.7-1.7c1.8-0.6,3.7,0.7,2.8,2.7
				l-2.3,2.3c-0.2,0.6-0.2,1.2,0.8,1l1.8-1.8c1.8-0.4,3.9,0.8,2.8,3.6l-2,1.7c-0.3,0.7,0.2,1,0.8,0.9c2.2-1.7,4.9-2.9,7.6-2.2
				c2.7,0.7,5.6,0.3,7.9-1.2c3.5-1.8,6.6-1.3,9.5-0.8c2.9,0.5,5.8,0.2,8.6-0.7c2.6-1.2,4.8-0.4,6.9,0.2c2.9,1.9,6.6,1.5,9.2,0.5
				c1.4-0.5,3-0.3,4.3,0.4c1.5,0.4,3.1,0.3,4.6-0.3c1.5-0.7,2-0.4,3.5,0.1c1.2,0.8,2.7,0.8,4,0.1C139.4,38.2,140.2,38,141.6,39z"/>
			<path id="path2457" class="st4" d="M117.9,73c2.4,0.2,4.7,0.6,7,1.2c0.8-0.7,2-0.6,2.6,0.2c0.2,0.2,0.3,0.5,0.4,0.7
				c4.9,1.6,8.5,5.7,9.5,10.7c4.4-1.8-3.1-13.2-9.4-19c-6.1-8.9,0-23.2,15.4-25.1c6.6-0.3,10.2,3.2,10.1,11.2
				c-2.7,5.5-7.6,3.5-8.3,6c-1,0.5-1.9,0.2-1.8-0.9c-0.2-2.6,1-5.1,3-6.7c2-3.2,4.7-5.3,0.2-6.8c-6-0.6-9.1,1.4-10.4,5
				c-2,10.8,8.3,18.4,8,28.9c0.1,6.4-2.1,8.6-4.6,10.4c-1.4,0.5-2.4,1.2-2.1,2.6c0.3,0.8,0.1,1.8-0.6,2.3c-4.4,8.2-11.7,8.9-17.7,13
				c-0.2,0.3-0.7,0.7-0.2,0.9c4.9,0.6,4.3,3.3,1,5.5c-0.7,0.2-1.4,0.2-1.4,1.3c-1.4,0.1-2.2,0.7-2.5,1.7c-1.3-1-1.5,0.2-1.9,1
				c-0.5,0-1.4-1.4-1.9,1.7c-0.6,0-1.4-2.5-2,0.1c-0.3-0.3-1.2-0.9-1.1,0.1c-0.2,1.8-1.7,3.1-3.5,3.1c-0.4-0.8,0.2-1.6-0.2-2.4
				c-1.1-0.6-2,0.2-1.4,0.8c1.1,2,0.6,4.4,0.8,6.7c-1.7,0.8-9.6,2.4-10.4,0.1c-1.3-0.2-2.9-0.1-3.8-0.8c0.1-2.4,0.6-4.8,1.4-7
				c0.9-1.4,3-3.2,6.9-4.5c5.7-3.5,9.4-2.2,12.8-4.3c-0.5-1.9-6.8-0.1-9.1-3c-1.6-0.3-3.1-0.8-4.6-1.3c-1.9-0.5-1.8-2.5-0.9-4
				c1.1-1.7,3-3.2,3-5.3c-1.9,1.3-4,2.4-5.3,4.5c-0.4,0.6-1.2,0.9-1.9,0.7c-0.9-1.8,0.4-2.9,1-4.3h-1.5c-2.4,0.5-2.6,2.8-5.1,2.8
				c0-1.2,0.2-2.5,0.7-3.6l-2.5-1c-1.3,1-2.3,2.8-4.3,2.3c-0.4-1.3,0.5-2.5,1-3.8c-1.1-0.3-2.1-0.8-3-1.4c-3.7,1.4-9.2,2.4-10.4,4.3
				H73c1.1,1.7,2.8,5.2,2.5,8c1-0.3,2.1-0.6,3.5-1.1c0.6-0.3,1.4-0.1,1.8,0.4c3.1,2.8,3.8,5.9,4.8,8.9c-3.2,0.4-6.3,0.3-9.3-1.3
				c-2.9-0.4-5.6-1.1-6.1-3.8c-2.1-5.7-6.6-5.3-8.2-11.4c-2.1-3-3.4-6.5-4.9-9.9c-0.6-1.6,0.3-2,0.9-2.7l3.8-1.1l-1.4-1.7
				c-2-2-1.7-4.1-1.1-6.3c0.2-2.2,0.2-4.4,0.6-6.7c0.1-0.9,0.3-1.9,0.5-2.8c-1.1-0.1-1.5-0.2-2.7-0.2c-0.2,1.8-0.4,3.5-2,3.5l-1-0.5
				c0.2,0.8,0.2,1.5,0.1,2.3c-2.5,0.3-5.5,1.4-6.9-0.2c-1.3-2.2,0.8-2.7,0.4-4.7c-0.9-0.4-1.3-1.4-0.9-2.2c0.1-0.3,0.3-0.5,0.5-0.7
				l-2.4-6.5c-1.3-5,1-6.1,0.2-8c-0.9-0.4-1.4-1.4-1-2.4c0-0.1,0.1-0.2,0.1-0.2l-0.2-3.2c-2.7-1.4-2.2-5.2-3.7-7.1
				c2.4,0.5,4,3.1,5.9,5.1l0.8-0.3c-1.3-2.1-0.6-4.4-1.8-6.8c1.3,1.4,3.7,2.1,5,5.6c0.8-1.4,1.6,0.9,2.6,0c0.4-0.7,1.4,0.2,1.9-0.2
				c0.6-0.1,1.3,0.1,1.8,0.5c0.8-0.2,1.7-0.1,2.4,0.4c0.8-0.1,1.4,0,1.5,0.5c0.7,0,1.4,0.1,2,0.5c1.8-0.5,2.4,1,3.4,0.8
				c1.6-0.3,2.5,0.6,3.3,1.5c0.8,0.4,1.6,1,2.1,1.8c1.2,0.3,1.4,1.4,1.8,2.2c1.3,0.6,2.2,1.7,2.4,3.1c1,0.8,1.6,2,1.8,3.2l0.9,1.6
				c9.5,23.1,12.4,20.7,36.2,17.8C115.8,72.2,116.4,71.3,117.9,73z M57.5,63.4c1.1,0.2,2.3,0.3,3.5,0.3c0.7-3.2,1.3-6.2,0.2-7.8
				c-0.8,2.7-1.5,5.7-3.5,6.4C57.6,62.6,57.5,63,57.5,63.4L57.5,63.4z M67.9,90.1c-0.8,1.3-1.8,2.4-2.9,3.3c-0.4,0.4-1,0.4-1.4,0
				c0,0-0.1-0.1-0.1-0.1c-0.8-1.6-2.1-3.2-2.2-4.5C61.8,88.6,64.1,90.6,67.9,90.1z"/>
			<g id="g2186">
				<path id="path1307" class="st4" d="M79.1,47.9l39.1,0.1c1.3,15.5-2,32.4-19.9,41.5C81.2,77.9,77.8,63.3,79.1,47.9z"/>
				<path id="path2182" class="st6" d="M79.6,49l37.7,0.1c1.2,14.9-2,31.2-19.2,40C81.6,77.9,78.3,63.8,79.6,49z"/>
			</g>
			<path id="path2635" class="st5" d="M57.8,44.4l0.1,3l3.5,6.2c0.8,1.9,1.1,4.1,0.7,6.1C60.8,64.8,60,70,59.7,75.2
				c9.5,2.3,15.8-2.8,21.3-6.6l-1.1-3.2c-1-0.1-2,0.1-1.1,1.5c1.1,1,1,1.9,0,2.7c-1.1,0.2-1.3-1-1.8-1.8c-0.9,0.8-1.5,1.8-2,2.9
				c-0.9-1.3-1.1-2.1-0.4-3.3c0.6-0.7,0.3-1.9,0.3-3c-0.9,0.3-1.8,0.2-2.6-0.3c1.7,0.2,3.3-3,2.9-5l-0.8,0.7c0.2-0.9-0.2-1.9-1-2.4
				c0.1,0.9-0.1,1.9-0.7,2.6c0.1-2-1.2-2.4-1.8-3.3c-0.5,1.8,1.7,3.5-0.1,4.9c-1.5,0.3-2.5,0.1-2.6-1.5c0.1-0.7,0.5-1.3,1.1-1.6
				c0.6,0.3-0.3,3,1.2,1.6c0-1.5-0.8-2.1-3-4.2c-0.3-0.8,0.6-2.5-0.1-2.5c-0.4-0.1-0.8-0.1-1.1,0c-0.3,0.1,0,1.5-0.4,1.5
				c-1-0.6-1.7-1.6-2-2.7c-1.8-0.3-2.2-1.7-2.7-3.5c-0.1-0.5-0.3-1.1-0.6-1.5c-0.1-0.1,0.1-4.2,0-4.3s-0.3-0.6-0.7-0.4
				c-0.2,0.8-0.1,3.8-0.2,3.8L57.8,44.4z"/>
			<path id="path2637" class="st5" d="M59.5,75.7c7.9,2.1,14.6-1.1,21.4-6.6l0.2,0.6c-6.9,5.9-13.9,8.6-21.7,6.7L59.5,75.7z"/>
			<path id="path2642" class="st5" d="M59.4,77.1c8,1.8,15.2-0.8,22-6.8l0.2,0.6c-6.6,6.2-14.2,8.8-22.4,6.8L59.4,77.1z"/>
			<g id="g2486">
				<path id="path2582" class="st5" d="M68,88.9L61.8,84c-1.2,0.2-2.4,0.6-3.6,1c-0.7,0.5-0.8,1.5-0.4,2.2c0.9,3.4,2.3,6.6,4.3,9.5
					c0.4-0.7,0.9-1.3,1.6-1.7c-1.4-1.8-2.5-3.7-3.2-5.8c-0.1-1,0.3-1.3,1.1-1.1C63.7,89,66.4,90.1,68,88.9z"/>
				<path id="path2477" class="st5" d="M43.3,38.3c0.8-0.4,3.4,3.5,2.6,3.2c-0.9,0-1.2-0.8-1.6-1.5C43.8,39.5,43.5,38.9,43.3,38.3z"
					/>
				<path id="path2479" class="st5" d="M43.1,38.9c-0.4,1.2,0.8,3.7,2.2,3C44.4,41.1,43.7,40,43.1,38.9z"/>
				<path id="path2481" class="st5" d="M47.7,37.6c0.3,0.6,0.6,1.1,0.8,1.8c0.4,0.6,0.8,1.2,1.1,1.8C49.2,41.3,47.3,39.5,47.7,37.6z
					"/>
				<path id="path2483" class="st5" d="M47.7,36.5c0.9,0.2,2.2,2.6,2.2,3.7C49.3,40.2,48.9,40,47.7,36.5z"/>
				<path id="path2485" class="st5" d="M46.8,46.8c0,0.3-0.2,0.5-0.4,0.5c0,0,0,0,0,0c-0.3,0-0.5-0.2-0.5-0.5s0.2-0.5,0.5-0.5
					C46.7,46.3,46.9,46.5,46.8,46.8C46.8,46.8,46.8,46.8,46.8,46.8z M46.4,45.6c-0.7,0.1-1.2,0.7-1.2,1.4c0.1,0.6,0.5,1.1,1.2,1.2
					c0.7-0.1,1.2-0.7,1.2-1.4C47.5,46.1,47,45.6,46.4,45.6z M46.4,46L46.4,46c0.5,0,0.8,0.4,0.8,0.8c0,0,0,0,0,0
					c0,0.4-0.3,0.8-0.8,0.8c0,0,0,0,0,0c-0.4,0-0.8-0.3-0.8-0.8S46,46,46.4,46L46.4,46z"/>
				<path id="path2497" class="st5" d="M56.5,46.8c0,0.3-0.2,0.5-0.4,0.5c0,0,0,0,0,0c-0.3,0-0.5-0.2-0.5-0.5s0.2-0.5,0.5-0.5
					C56.4,46.3,56.6,46.5,56.5,46.8C56.6,46.8,56.6,46.8,56.5,46.8z M56.1,45.6c-0.7,0-1.3,0.6-1.3,1.3c0,0.7,0.6,1.3,1.3,1.3
					c0.7,0,1.3-0.6,1.3-1.3C57.4,46.1,56.8,45.6,56.1,45.6C56.1,45.5,56.1,45.5,56.1,45.6z M56.1,46L56.1,46c0.5,0,0.9,0.4,0.9,0.8
					c0,0.4-0.4,0.8-0.8,0.8c-0.4,0-0.8-0.4-0.8-0.8C55.4,46.4,55.7,46,56.1,46L56.1,46z"/>
				<path id="path2499" class="st5" d="M55.3,64.2c0,0.2-0.2,0.4-0.5,0.4s-0.4-0.2-0.4-0.5c0-0.2,0.2-0.4,0.4-0.4
					C55.1,63.7,55.3,63.9,55.3,64.2z M54.8,62.9c-0.7,0-1.3,0.6-1.3,1.3c0,0.7,0.6,1.3,1.3,1.3c0.7,0,1.3-0.6,1.3-1.3
					C56.1,63.5,55.6,62.9,54.8,62.9C54.9,62.9,54.8,62.9,54.8,62.9z M54.8,63.4L54.8,63.4c0.4,0,0.8,0.4,0.8,0.8
					c0,0.4-0.4,0.8-0.8,0.8c-0.4,0-0.8-0.4-0.8-0.8c0,0,0,0,0,0C54,63.7,54.4,63.4,54.8,63.4C54.8,63.4,54.9,63.4,54.8,63.4
					L54.8,63.4z"/>
				<path id="path2501" class="st5" d="M49.5,64.6c0,0.2-0.2,0.4-0.5,0.4c-0.3,0-0.5-0.2-0.5-0.5S48.7,64,49,64
					c0.3,0,0.5,0.2,0.5,0.5C49.5,64.5,49.5,64.5,49.5,64.6z M49,63.3c-0.7,0.1-1.2,0.7-1.2,1.4c0.1,0.6,0.5,1.1,1.2,1.2
					c0.7-0.1,1.2-0.7,1.2-1.4C50.1,63.8,49.6,63.3,49,63.3z M49,63.7L49,63.7c0.4,0,0.8,0.4,0.8,0.8c0,0.4-0.4,0.8-0.8,0.8
					c-0.4,0-0.8-0.4-0.8-0.8c0,0,0,0,0,0C48.2,64.1,48.6,63.7,49,63.7z"/>
				<rect id="rect2503" x="48.1" y="46.6" class="st7" width="6.3" height="0.6"/>
				<rect id="rect2505" x="50.4" y="64.1" class="st7" width="3" height="0.6"/>
				<path id="path2507" class="st5" d="M45.9,41.8c-0.3,0.4-0.1,2.2-0.2,3.5c1,0,1.6,0,2.2,0.7l6.7,0.1c-0.1-0.7,1-1.3,2.5-0.7
					c-0.3-1.4-1.6-2.5-3.1-2.5c-1.1-0.2-1.9-2.4-4.1-2.6c0.1,1.5-0.7,0.7-0.8,4.3l-0.6,0.9c-0.3-0.7-1-1-1.7-0.8c0,0-0.1,0-0.1,0
					C46.5,43.7,46.4,41.3,45.9,41.8z"/>
				<path id="path2514" class="st5" d="M46.9,41.5c-0.9,0.6,0.5,1.9,0.3,2.4C47.3,44,48.4,43.5,46.9,41.5z"/>
				<path id="path2516" class="st5" d="M47.6,41.2c0.3,0.2,0.7,0.6,0.6,1.8C48,43.1,47.5,42.4,47.6,41.2z"/>
				<path id="path2518" class="st5" d="M48.7,41.3c-0.2,0.7-0.2,1.5,0.1,2.2C49.1,42.8,49,42,48.7,41.3z"/>
				<path id="path2520" class="st5" d="M46.4,50.9l1.3,9.3C46.6,57.8,44.6,54.5,46.4,50.9z"/>
				<path id="path2522" class="st5" d="M47.3,48.4l2,14.3h-0.7l-2-14.3L47.3,48.4z"/>
				<path id="path2524" class="st5" d="M55.7,48.5l0.7,0.1l-1.3,14.2l-0.7-0.1L55.7,48.5z"/>
				<path id="path2526" class="st5" d="M48.1,47.8l-0.4,0.5l2,14.4l0.8,0.7h2.9l0.6-0.7l1.3-14.3L54.6,48L48.1,47.8z"/>
				<path id="path2528" class="st5" d="M53.3,49.9c-0.8,1.4-4.4,1.6-3.9,5.5C50.4,53.9,54.1,54.3,53.3,49.9z"/>
				<path id="path2530" class="st4" d="M52.4,52.6c0,0.5-0.4,0.9-0.9,0.9c-0.5,0-0.9-0.4-0.9-0.9c0,0,0,0,0,0l0,0
					c0-0.5,0.4-0.9,0.9-0.9c0,0,0,0,0,0C52,51.6,52.4,52.1,52.4,52.6L52.4,52.6z"/>
				<path id="path2532" class="st8" d="M51.6,50.2c-1,0.2-1.8,0.8-2.3,1.7"/>
				<path id="path2534" class="st8" d="M54.2,51c0,1.9,0,3.8-1.2,4.3"/>
				<path id="path2536" class="st5" d="M57,49.5c1.2,1.8,2.3,3.7,3.4,5.7c-0.5,3.4-1.6,5.5-3.1,6.7l-0.6,1.6c-0.4,0-0.7-0.3-0.9-0.8
					L57,49.5z"/>
				<path id="path2538" class="st8" d="M57.9,55l-1,5.3"/>
				<path id="path2540" class="st5" d="M57.7,47.8L57,48.3l3.7,6.4l0.7-0.5L57.7,47.8z"/>
				<path id="path2542" class="st5" d="M53.7,65.5c-0.2,1.5,0,3.1,0.5,4.5c-0.5,0.5-3.8,1.3-5.1,0.7c-2.1-1-0.1-2.8,0.1-4.3
					c0.7-0.1,1.3-0.2,1.4-1.1C51.6,65.1,52.7,65.1,53.7,65.5z"/>
				<path id="path2544" class="st4" d="M53,68.8c-1.6,0-1.9-0.9-2.8-0.9c-0.6,0.1-1,0.7-0.9,1.3c0.1,0.4,0.4,0.7,0.8,0.9
					c0.4,0,0.7-0.3,0.7-0.7c0,0,0-0.1,0-0.1C51.7,69.2,52.6,69.5,53,68.8z"/>
				<path id="path2546" class="st5" d="M56.2,64.9c-2,1.8-1,3.1-0.2,3.4C56.7,66.8,57.2,65.4,56.2,64.9z"/>
				<path id="path2548" class="st5" d="M56.6,63.7l-0.1,1.4c8,1.3,16.1,1.5,24.1,0.7l-0.3-1.7C72.4,65,64.5,64.8,56.6,63.7z"/>
				<path id="path2630" class="st9" d="M69.1,99.5c-0.3-1.4,1.7-0.9,2.8-1.2c0.6,0.4,0.8,1.2,0.5,1.8L69.1,99.5z"/>
				<path id="path2626" class="st5" d="M75.5,106.3c0.9,1.1,0.6,3.4,0.8,5.1c-1.2-0.3-2.4-0.1-3.5-0.9c-1.6-0.4-1.7-2-2.5-3.1
					c-1.2-3.1-3.1-4.3-4.7-5.9c-2.3-1.1-3.5-3.8-2.6-5.2c2.7-3.4,6.6-6.4,8.1-9.7c0.4-0.2,0.9,0,0.7,0.6c-0.6,1.6,1.3,2.2,2.3,2.6
					c0.3,1.3,1.8,1.8,3.7,2c-0.4,1-2.5,1.1-3.9,1.5c-2.5,1-4.9,2.2-7.1,3.7c-0.6,0.6-0.9,1.1,0,2c1.3,1.4,3.2,3.3,2.5,4.5
					c1.9,0.4,1.6-0.7,3.6-0.2c-1.1,1-1.4,1.8-0.2,2.8C73,106.7,74.6,106.2,75.5,106.3z"/>
				<path id="path2628" class="st5" d="M68.6,99.8c0.6,0.2,1.2,0,1.3,1c1,0.2,1.1,1,0.9,2l2.9,0.1c-0.1-0.5,0.1-1.3-0.5-1.4
					l-1.9-0.1c0-0.7,1.2-0.3,2-0.3c-0.1-0.6,0-0.9-0.3-1.1c-1.2,0-2.4-0.3-3.5-0.9C69.1,99.3,68.5,99.4,68.6,99.8z"/>
				<path id="path2632" class="st9" d="M74.3,103.9c1,1.2-1,1.7-1.5,0.9C73.4,104.6,74.1,104.6,74.3,103.9z"/>
				<g id="g2648">
					<path id="path2634" class="st9" d="M75.8,106c0.4-0.7,1.6-0.7,2.8-0.8c0.2,0.2,0.5,0.4-0.2,1.5c0.3-0.9,1.3-0.9,2.7-0.6
						c0.1,0.7,0.6,1.3,1.2,1.5l-2.2,0.2c0,0.4,1.6,0.3,2.4,0.5c1.3,0.8,1.7,2.3,1.8,4.1c-2.3,0.1-5.6-0.7-6.3-0.5l5.8,1
						c-1.7,1-4.3,0-6.8-0.9C76.9,110.2,77.5,107.8,75.8,106z"/>
					<g id="g2643">
						<path id="path2636" class="st10" d="M76.4,106.2h1.3"/>
						<path id="path2639" class="st10" d="M77.4,107.2h2.9"/>
						<path id="path2641" class="st5" d="M82.6,108.4c-1.8,0.1-4.6-0.4-5.4,0.5c-0.7,2,0.8,1.9,1.7,1.9c2.1,0,2.8,0.1,3,0.4
							l-2.8,0.5c0,0.3,1.2,0.3,2.3,0.2c0.4-0.4,1.6-0.3,2.6-0.4c-0.2-0.7-0.6-1.4-1.3-1.8c-1.7,0-2.1-0.6-3.5-0.6
							C79,108.4,82.6,109.1,82.6,108.4z"/>
					</g>
				</g>
			</g>
			<g id="g2421">
				<g id="g2442">
					<path id="path2410" class="st4" d="M103.7,43.5l-1.8,0.1c-0.9,2.1,0.2,3.8,4.4,4.7L91.2,48c1.9-0.4,3.4-1,3.7-2.2
						c-0.2-0.8-1.7-0.3-2.7-0.3c-0.6-0.1-0.9-0.9-0.3-1.7v-5.1c0.3-0.9,0.9-1.7,1.8-2.3l2.9-2.5c1.1-1.2,5.7-2.3,7.1,0.2l0.9,8.1
						C104.4,42.9,104.3,43.5,103.7,43.5z"/>
					<path id="path2414" class="st5" d="M95.6,45.1c0.1,0.9-0.3,1.7-1,2.2l7.2,0.1c-0.4-0.8-1.4-1.7-0.9-2.5c0.4-1.1-0.5-1.2-0.9-1
						c-0.5,0.6-1.1,1.1-1.8,1.3C97.5,44.9,95.8,44.8,95.6,45.1z"/>
					<path id="path2416" class="st5" d="M99.8,34l1.3,1.1c0.5,0.2,1,0.5,1.4,0.1c0.3-0.2,0.3-0.7-0.1-1.3c-0.7-0.4-1.4-0.7-2.2-0.8
						C100.4,33.7,100.4,34.2,99.8,34z"/>
					<path id="path2418" class="st5" d="M101.8,35.9l0.4,6.9c0.6,0.2,0.8-0.2,1-0.8l-0.4-5.3C102.5,35.8,102.3,35.8,101.8,35.9z"/>
					<rect id="rect2420" x="93.5" y="38.3" class="st7" width="4.6" height="0.7"/>
					<rect id="rect2424" x="94.3" y="37.1" class="st7" width="3.9" height="0.5"/>
					<path id="path2426" class="st5" d="M95.4,36.6c0-0.7,1.1-0.1,1.4-1.2c0.7-0.6,1.2-0.2,1.3,0c0.6,0.3,1.3,0.5,1.9,0.3
						c0.7-0.2,1.1,0.1,1.2,0.7l0.1,6.6c-1,0.1-2,0.6-2.6,1.4h-5.5l0.1-0.3l0.9-0.1l0.1-0.5H95V44h1v-0.5h1v-0.5l-1-0.2l0.1-0.7
						l-0.8-0.1l-0.1,0.8l-0.7-0.1v-0.7l-0.6,0l-0.7,0.4l0.1-2.7l5.5-0.1v-2.8L95.4,36.6z"/>
					<rect id="rect2430" x="100.1" y="36.3" class="st11" width="0.8" height="0.8"/>
					<rect id="rect2432" x="100.1" y="37.5" class="st11" width="0.8" height="0.8"/>
					<rect id="rect2434" x="100.1" y="39" class="st11" width="0.8" height="0.8"/>
					<rect id="rect2436" x="100.1" y="40.2" class="st11" width="0.8" height="0.8"/>
					<rect id="rect2438" x="100.1" y="41.6" class="st11" width="0.8" height="0.8"/>
					<path id="path2440" class="st5" d="M92.3,44v-5.2c0.4-1.5,1.7-2.1,2.6-3l0.2,0.2c-0.8,1-2.2,1.8-2.4,3v3.6l1.1,0.3l-0.1,0.4
						l-1-0.1V44H92.3z"/>
				</g>
				<g id="g2661">
					<path id="path2655" class="st9" d="M91,126.2c0.1-2.1,0.6-4.1,1.3-6.1c1.2-0.3,2.5-0.3,3.7,0c0,0.7-0.2,1.4-0.8,1.9
						c-0.1,0.3-0.4,0.5,0,0.9c1.3,1.4-0.4,3.4-1,3.6C92.6,126.9,92.8,126.2,91,126.2z"/>
					<path id="path2657" class="st5" d="M92,121.6c-0.3,1.3-0.6,2.7-0.7,4.1c0.2,0.1,0.4,0.3,0.6,0c0-1.3,0.2-2.7,0.7-3.9
						C92.4,121.5,92.2,121.5,92,121.6z"/>
					<path id="path2659" class="st5" d="M93.8,120.1c-1.2,2.6-0.8,4.2-1.2,6.2c0.8,0.5,1.6,0.1,2.4-0.9c-0.4-0.8-0.4-1.8-0.1-2.6
						c0.3-0.9,0.3-1.8,0.1-2.7L93.8,120.1z"/>
				</g>
				<g id="g2684">
					<path id="path2666" class="st9" d="M97.3,121c1-0.6,4.3-0.3,5.7-0.1c-1.5,2.1-1,4.1-0.4,6.1c-3.1,0.3-5.2,1.9-6.4,0.2
						C95.6,126.4,95.8,122.3,97.3,121z"/>
					<path id="path2668" class="st9" d="M103.6,120.9c0.6,0.7,0.6,6.1-0.7,5.7C103,124.2,102.9,120.5,103.6,120.9z"/>
					<g id="g2678">
						<rect id="rect2670" x="103.3" y="122.8" class="st12" width="0.4" height="2.3"/>
						<path id="path2672" class="st5" d="M98.8,120.8c-1.3,1.8,0.2,3.2-1.1,6.2c-0.2-1.2-0.5-2.1-1-2.2c0.1,1,0.3,2-0.2,2.6
							c1,0.3,2,0.3,2.9,0.1l1.2-0.5l1.7-0.1c-1.2-0.4-0.9-2.1-0.7-3.7c0.6-0.5,0.4-1.5,0.4-2.3l-1-0.1c-0.5,0.5-0.1,5.6-1.2,5.8
							c0.3-1.9,0.4-3.8,0.3-5.8L98.8,120.8z"/>
						<rect id="rect2674" x="97.3" y="123.2" class="st12" width="0.4" height="1.3"/>
						<rect id="rect2676" x="97.8" y="125.2" class="st12" width="0.6" height="1.3"/>
					</g>
				</g>
				<g id="g2697">
					<path id="path2693" class="st5" d="M106.8,95.1c-1.8,0.7-3.5,1.6-5.5,2l-4.1,6.2c-0.4,1.2-0.3,2,0.5,2.5
						c1.4,0.5,2.8,0.8,4.3,0.9c0.3-1-1.3-2.1,0.6-4.3C104,100,106.4,96.5,106.8,95.1z"/>
					<path id="path2695" class="st5" d="M92.8,119.3l4,0.2c2.3-4.9,10-2.5,16.4-8.5l-1.2-0.1c-1.7,1.5-7.8,1.6-12.7,4.6
						C96.8,116.1,94.5,117.5,92.8,119.3z"/>
				</g>
				<g id="g2753">
					<path id="path2703" class="st5" d="M120,101.2c0,0.3-0.3,0.5-0.5,0.4s-0.5-0.3-0.4-0.5c0-0.3,0.2-0.4,0.5-0.4
						C119.8,100.6,120,100.9,120,101.2z M119.5,99.7c-0.8,0-1.4,0.7-1.4,1.4c0,0.8,0.7,1.4,1.4,1.4c0.8,0,1.4-0.6,1.4-1.4
						C121,100.4,120.3,99.7,119.5,99.7C119.5,99.7,119.5,99.7,119.5,99.7z M119.5,100.2L119.5,100.2c0.5,0,0.9,0.4,0.9,0.9
						c0,0.5-0.4,0.8-0.9,0.8c-0.5,0-0.8-0.4-0.8-0.9C118.7,100.6,119.1,100.3,119.5,100.2z"/>
					<path id="path2705" class="st5" d="M125.2,88.9c0,0.3-0.3,0.5-0.5,0.4c-0.3,0-0.5-0.3-0.4-0.5c0-0.2,0.2-0.4,0.5-0.4
						C125,88.3,125.3,88.6,125.2,88.9z M124.8,87.4c-0.8,0-1.4,0.6-1.4,1.4c0,0.8,0.6,1.4,1.4,1.4c0.8,0,1.4-0.6,1.4-1.4
						C126.2,88.1,125.6,87.4,124.8,87.4C124.8,87.4,124.8,87.4,124.8,87.4z M124.8,88L124.8,88c0.5,0,0.9,0.4,0.9,0.9
						c0,0.5-0.4,0.8-0.9,0.8c-0.5,0-0.8-0.4-0.8-0.9C123.9,88.3,124.3,88,124.8,88z"/>
					<path id="path2707" class="st5" d="M114.9,85.1c0,0.3-0.2,0.5-0.5,0.5s-0.5-0.2-0.5-0.5l0,0c0-0.3,0.2-0.5,0.5-0.5
						S114.9,84.8,114.9,85.1z M114.5,83.7c-0.8,0-1.4,0.7-1.4,1.4c0,0.8,0.7,1.4,1.4,1.4c0.8,0,1.4-0.6,1.4-1.4
						C115.9,84.3,115.3,83.7,114.5,83.7C114.5,83.7,114.5,83.7,114.5,83.7z M114.5,84.2L114.5,84.2c0.5,0,0.9,0.4,0.9,0.9
						c0,0.5-0.4,0.8-0.9,0.8c-0.5,0-0.8-0.4-0.8-0.9C113.6,84.6,114,84.2,114.5,84.2z"/>
					<path id="path2709" class="st5" d="M110.8,96.5c0,0.3-0.2,0.5-0.5,0.6c-0.3,0-0.5-0.3-0.5-0.6c0-0.3,0.2-0.5,0.5-0.6
						C110.6,95.9,110.9,96.2,110.8,96.5C110.9,96.5,110.9,96.5,110.8,96.5z M110.4,95c-0.8,0-1.4,0.7-1.4,1.4c0,0.8,0.7,1.4,1.4,1.4
						c0.8,0,1.4-0.6,1.4-1.4C111.8,95.6,111.2,95,110.4,95C110.4,95,110.4,95,110.4,95z M110.4,95.5L110.4,95.5
						c0.5,0,0.9,0.4,0.9,0.9c0,0.5-0.4,0.9-0.9,0.8c-0.5,0-0.9-0.4-0.8-0.9C109.5,95.9,109.9,95.5,110.4,95.5z"/>
					<path id="path2701" class="st5" d="M110.3,94.6c1.2-1.8,2.1-3.9,2.6-6c0.3-0.7,0.2-1.6-0.3-2.2c-1.2-1-2.6-1.7-4.1-2.2
						c0.3-0.5,1.7,0.4,1.8-0.2c-0.9-0.5-2.5-1-3.4,0.7c-0.8-0.1-1.3,0.5-1.6,1.4c-0.8,3.4-2.5,5.4-3.6,8.4c-0.3,0.7-0.2,1.7,1.2,1.7
						l4-1.6c1.1-0.5,1.3-1.2,1.8-2.7l0.3-4.1c0.2-0.8,0.2-0.4,0.6-0.1c0.2,4.8-1.8,8.7-5.4,13.9c-1.5,2.7-1.1,5.2,1.7,6.5
						c2.8,1,6.7-0.3,8.5,2.3c0,1.7-2.2,3-5.1,4.1c-3.4,2.2-9.9,1-11.7,5.7l5.8-0.1c1.3-1.9,3.9-1.7,3.5,0.6c1.6,0.4,1.6-1.6,1.9-3
						c2-1.4,2.8-1.1,3.4-0.7c0.1-1.8,0.9-1.4,2.2-1.5c0.1-0.8,1-0.9,2-0.8c-0.3-0.6,0-0.8,0.3-1.2c0.9,0.5,1.5,0.1,1.9-1
						c5.1-1.4,3.2-3.9,1-4.1c-2.7-0.8-1.1-2.2,0.5-3.2c5.6-3.5,12.7-5.4,15.7-11.5c-0.1,0,0-0.5-0.4-0.6l-9.5-2.7l-0.5,0.3
						c-0.7,3.4-2.1,6.6-4.1,9.4c0.5,0.9,0.2,2-0.6,2.5c-0.5,0.3-1.2,0.3-1.7,0.1c-1-0.5-1.4-1.6-0.9-2.6c0.2-0.5,0.7-0.9,1.2-1
						c1.9-2.3,3.3-5.6,4.4-8.8l-0.4-0.6l-7.3-3l-0.9,0.4c-0.5,2.9-1.5,5.6-2.9,8.2c0.7,2.4-1.3,3.2-2.6,2.4
						c-0.8-0.7-0.9-1.9-0.2-2.7C109.5,94.9,109.8,94.6,110.3,94.6z"/>
					<path id="path2726" class="st5" d="M113.6,86.8c-0.4,2.8-1.4,5.4-2.8,7.9l0.8,0.4c1.5-2.5,2.4-5.2,2.8-8L113.6,86.8z"/>
					<path id="path2728" class="st5" d="M119.7,99.4c1.9-2.8,3.4-5.8,4.3-9.1l0.8,0.2c-0.9,3.3-2.3,6.4-4.2,9.2L119.7,99.4z"/>
					<path id="path2730" class="st5" d="M109,81.7l-0.6,0.7l4.3,2.8l0.2-0.8L109,81.7z"/>
					<path id="path2732" class="st5" d="M114.5,73.8c-1.5,2.7-3.2,5.2-5.2,7.5l3.6,2.6l1.1-0.7c0.9-3.1,1.5-6.2,1.9-9.4L114.5,73.8z
						"/>
					<path id="path2734" class="st5" d="M116.5,73c-0.3,3.5-1,7-2.1,10.3l1,0.3c0.9-3.5,1.6-7.1,2-10.7
						C117,72.6,116.8,72.9,116.5,73z"/>
					<path id="path2736" class="st5" d="M116.3,85.4l-0.3,0.9l7,2.7l0.3-0.9L116.3,85.4z"/>
					<path id="path2738" class="st5" d="M124.4,87.1c0.8-3.8,1.2-7.8,1.2-11.7c-2.2-0.9-5.2-1.8-7.7-1.2c-0.3,3.3-1,6.5-2,9.7l0.3,1
						l7.3,2.9L124.4,87.1z"/>
					<path id="path2747" class="st5" d="M124.9,87l0.9,0.3c0.8-4,1.3-8.1,1.6-12.2c-0.4-0.3-0.7-0.5-1.1-0.1
						C126.1,79.1,125.6,83.1,124.9,87z"/>
					<path id="path2751" class="st5" d="M126.5,89.2l-0.3,0.8l10.6,3l0.2-0.9L126.5,89.2z"/>
				</g>
				<g id="g2402">
					<path id="path2749" class="st5" d="M135.4,50.6c-2.3,10.2,8,15.1,7.8,27.5c-0.1,3.5,0.6,9.5-6.4,10.7c0.1,0.9,0,1.7-0.3,2.6
						l-10-2.7l-0.2-1.3l2-10.9c0.1-0.4,0.5-0.3,0.9-0.3c5.1,2.6,7.2,6.3,7.6,10.4c3.1-0.6,3.6-3.3,2.6-6.2
						c-2.9-9.6-11-11.3-12.2-19.3c-1.3-6.7,2.1-13.3,8.2-16.2c-0.1,0.9-1.3,1.7-2.1,2.2c1.4,0,3.6-3.1,5.6-3.7
						C138.9,44.3,136,46.8,135.4,50.6z"/>
					<g id="g2777">
						<path id="path2770" class="st5" d="M138.6,44.9l5.6-1.8C143,41.3,139.7,43,138.6,44.9z"/>
						<path id="path2772" class="st4" d="M140.4,43.8c0.8-0.7,1.8-1,2.8-0.8L140.4,43.8z"/>
						<path id="path2775" class="st13" d="M144.4,43c0.4,0.6,3.5,0.3,4.2,1.3C148.4,42.4,145.9,42.1,144.4,43z"/>
					</g>
					<path id="path1500" class="st8" d="M149.6,48.9c-0.9,2.3-2.7,3.2-3.9,5.3"/>
					<g id="g2379">
						<path id="path1493" class="st5" d="M150,44c0.3,7.3-6.1,7.4-5.5,13.7c1.6-1.5,6.7-1.3,8.2-6.3C153.5,47.9,151.3,44.6,150,44z
							 M150.3,45.7c3.4,7.6-2.7,8.9-4.7,10.8C146.8,52.7,152.1,51.8,150.3,45.7L150.3,45.7z"/>
						<path id="path1504" class="st5" d="M150.8,49.7c-1.3,3.2-3.9,4.7-4,5.5C148.1,54.1,150.5,53.5,150.8,49.7z"/>
					</g>
					<g id="g2395">
						<path id="path2383" class="st8" d="M141.4,74.2c0.2,3.7,1.5,8.8-1.9,12.8"/>
						<path id="path2385" class="st8" d="M138.5,67.9c1.5,4.4,2.1,9.1,1.8,13.7"/>
						<path id="path2387" class="st8" d="M132.2,59.3c0.8,4.8,3,8.3,4.6,12.3"/>
						<path id="path2391" class="st8" d="M130.8,50.2c-4.9,12.7,4.5,17.6,6.1,24"/>
						<path id="path2393" class="st8" d="M135.8,47.1c-5.2,5.5-2.9,12.1,0.7,19c1.9,3.9,2.9,8.2,2.9,12.6"/>
					</g>
				</g>
			</g>
			<path id="path1527" class="st5" d="M63.8,46.2c-0.2,1.6-0.3,3.4,1.1,3.4C66,48,64.2,46.8,63.8,46.2z"/>
			<path id="path1513" class="st5" d="M55.4,42.6c-2,0.3-3.2-2.2-4.2-2.5c0.2-0.5,1.2-0.3,1.8-0.2c0,1.4,2.6,1.4,2.5,2.8"/>
			<path id="path1515" class="st5" d="M53.5,40c0.6-0.3,1.3-0.3,1.9,0l2.7,4.7c-2.9-1.1-1.9-3.7-4.4-4C53.5,40.6,53.4,40.3,53.5,40z
				"/>
			<path id="path1517" class="st5" d="M55.8,40c0.2-0.3,0.8,0,1.3,0.2c0.3,0.9,0.5,1.8,0.6,2.7C57.2,43.1,56.6,40.8,55.8,40z"/>
			<path id="path1519" class="st5" d="M57.7,40.4c0.3-0.2,0.6-0.4,1.4,0.1c0.9,0.8,0.3,3.3,0.3,5c-1.4-0.2,0.4-3.8-1.6-4.6
				C57.7,41,57.9,40.5,57.7,40.4z"/>
			<path id="path1521" class="st5" d="M59.9,40.8c1.5-0.8,2.2,1.7,2,3.2c-0.1,0.2,0.1,0.5-0.1,0.7c-0.6,0.4-0.8,1.4-0.1,1.8
				c0.3,0.2-0.1,0.6,0,1c-0.5,0-1.5,0-0.8-3.2C61.1,42.4,59.6,43.1,59.9,40.8z"/>
			<path id="path1525" class="st5" d="M63.4,48.5c-0.1,2.7,1.3,3.2,0.7,3.8c-1-0.2-1.8-1-2.1-2c-0.1-0.8-0.8-1.5-0.6-2.2
				c0.8-0.6,1.3-1.6,1-2.6c-0.2-0.7-0.2-1.3,0-2c0.5,0.2,1.2-0.3,1.2,2.8C63.4,47,63.3,47.8,63.4,48.5z"/>
			<path id="path2423" class="st5" d="M64.6,51.5c-0.5,0-1.1-2.5-0.9-2.3s0.5,0.7,0.9,0.7C64.8,50.7,64.9,51.4,64.6,51.5z"/>
			<path id="path1529" class="st5" d="M61.9,41.4c1.3-0.3,1.2,1.3,1.1,1.7C62.2,43.2,61.7,41.9,61.9,41.4z"/>
			<path id="path1531" class="st5" d="M63.3,41.6c2.4-0.6,3.3,1.8,3.7,3.4c0.8,3.2-0.2,4.9,0,8.3c-0.2,0.3-0.4,0.2-0.6,0v-6.5
				c-0.4-1.6-0.8-4.1-2.9-4.1L63.3,41.6z"/>
			<path id="path1533" class="st5" d="M63.6,43.2c1.3,0.1,2,1.9,2.5,4.1l-0.3,7.4c-0.8-0.4-1.3-1.1-1.4-1.9c0.2-0.9,0.7-1.1,0.6-2.7
				c0.7-0.8,0.5-2.5,0.1-2.8C63.9,46,63.9,44.8,63.6,43.2z"/>
			<path id="path2419" class="st5" d="M57.9,41.5c-0.1,2.8,0.5,2.5,0.9,3.2C58.7,43.6,58.8,41.5,57.9,41.5z"/>
			<path id="path2427" class="st5" d="M83.9,74.6c-1.2,1.2-2.4,0.9-3.5-1.1c2.2,3.5-2,4.9-3.2,1.8c1.8,2.7-2.1,5.3-3.7,2
				c1.1,3.4-2.8,3.9-3.9,1.2c0.5,2.9-4.1,2.8-4.3,0.7c-0.2,2.2-3.8,2-3.7-0.1c-0.3,2.3-3,1-2.2-0.8c8.8,2.3,16.7-1.5,22.7-6.8
				L83.9,74.6z"/>
			<path id="path2498" class="st5" d="M60,80.8c2.4,3.2,5.4,5.8,8.8,7.9c0.4,0.2,1.8-1.1,1-2.1c-0.4-1,0.7-1.7,1.5-1.7
				c0-0.5,0.2-0.9,0.8-0.9c-0.2,0.9,0.8,1.7,2.2,2c0.3-0.6,1-0.8,1.6-0.7l8.4-9c-0.6-1.5-1.3-2.2-0.9-0.2c-0.4-0.7-1.6-1.2-1,0.2
				c-0.9-1.2-2-1.9-0.7,0.5c-0.7-0.8-1.1-0.8-0.5,0.6c-0.6-0.6-1.3-0.8-0.5,0.5c-0.7-0.7-1.4-1-0.9,0.2c-1.3-1.5-1.2-0.6-0.7,0.2
				c-1.1-1.2-1.9-1.6-1.1,0c-1-0.6-0.8-0.2-0.5,0.7c-1-0.7-1.1-0.2-0.7,0.7c-0.7-1.1-1.4-0.7-0.9,0.2c-1.1-1.3-1.2-0.7-1,0
				c-1.3-2.1-1.3-1.1-0.8,0.4c-0.8-1.3-1-0.7-0.7,0.6c-0.9-1.8-0.6-0.2-0.7,0.5c-0.6-2-0.9-0.8-0.8,0c-0.3-1.1-1-1.3-0.8-0.2
				c-0.6-1.6-0.9-1.4-1-0.5c-0.4-1.9-0.7-1.3-0.7,0.3c-0.6-1-0.3-1.5-0.7,0.6c-0.3-1.6-0.6-0.8-0.6,0.4c-0.1-1-0.8-1.8-0.6-0.1
				c-0.3-1.1-0.8-1.4-0.7-0.1c-0.3-1.2-0.5-1.2-0.6-0.2c-0.5-1.6-0.6-0.7-0.6-0.3c-0.8-2-0.5-1-0.7-0.1c-0.1-1-0.6-0.6-0.5,0.2
				c-0.2-0.8-0.5-0.6-0.4,0.3c-0.3-1.2-0.5-0.6-0.5,0c-0.1-1.1-0.5-0.6-0.5,0c0.2-1.1-0.3-0.5-0.4-0.2c0.1-0.9-0.3-0.7-0.4-0.2
				c0.1-0.9-0.2-0.9-0.3-0.3c0-0.2-0.1-0.5-0.2-0.7c-0.1-0.1,0,0.5-0.2,0.4s-0.2-0.7-0.2-0.7S61.3,81,61.3,81c-0.3,0,0-0.6-0.3-0.6
				c-0.1,0-0.1,0.6-0.2,0.6s-0.1-0.5-0.3-0.5s-0.1,0.4-0.2,0.4c-0.1-0.2,0-0.5-0.2-0.4S60.1,80.8,60,80.8z"/>
			<path id="path2737" class="st5" d="M66.1,42.3c1-0.3,2.1,0.5,2.1,3.5c0.2,2.1,0,4.3-0.7,6.4c-0.3,0.4-0.4,0.2-0.6,0
				c0.6-2.1,0.8-4.3,0.6-6.5C67.5,44.5,67,43.3,66.1,42.3z"/>
			<path id="path2739" class="st5" d="M68.4,56.9c-2.3-2,2.1-8.8-0.8-14.6c3.7,0.8,2,6.2,1.6,9.6c0.5-0.3,0.3-1.2,0.7-1.5
				c-0.1,2.2,0.4,2.8,0.7,4.4c0.4-0.3,0.1-1.9,1-2c-0.4,1.7-0.3,3-0.6,3.7c-1.1-1-1.9-2.3-2.2-3.8c-0.3,2-0.2,3.9,0.9,4.8
				c1.4,1.2,2.4,4.2-0.1,4.2c-1.2-0.3-1.5-2-0.3-2.2c-0.1,0.3-0.7,2.1,1,1.4C71.7,59.5,69.1,57.4,68.4,56.9z"/>
			<path id="path2741" class="st5" d="M69.1,54.9c0,1,0.4,2,1.2,2.7C71,57.2,69.5,55.1,69.1,54.9z"/>
			<path id="path2746" class="st5" d="M69.9,43.8c0.7,1.3,0.4,2.7,0.5,4.2c-0.3,1.9-0.2,3.8,0.3,5.7c0.3-1.1,0.8-1.2,0.8-1.6
				s-0.3-1.2-0.6-4c0.3-1,0.3-2,0.3-3.1C70.7,44.2,70.3,43.9,69.9,43.8z"/>
			<path id="path2748" class="st5" d="M71.8,45.5c0.8,0.1,1.4,0.7,1.5,1.5c0.5,1.1,0.2,4.4-0.1,4.5C71.9,50.4,71.6,48.2,71.8,45.5z"
				/>
			<path id="path2750" class="st5" d="M71.5,46.7c-0.2,4.5,1.8,3.2,1.7,8.8c0.5-0.1,0.3-3,0.6-2.8c0.7,0.1,0.2,3.5-0.3,4.3
				c-0.7-0.1-0.9-0.6-0.8-4.1C72.3,51.9,70.4,50.5,71.5,46.7z"/>
			<path id="path2752" class="st5" d="M74,49.6c-0.6,2.1,0,2.7,0.6,3C74.5,50.8,74.5,49.8,74,49.6z"/>
			<path id="path2754" class="st5" d="M73.9,48.3c1.8,2,0.4,5.8,1.4,5.7C75.6,51.7,75.6,47.8,73.9,48.3z"/>
			<path id="path2756" class="st5" d="M75.9,51.3c0.9,0.9,1.6,1.9,2,3.1c0.7,2,1.1,2.8-0.5,5H77c0.3-2.8,0.5-5.7-1.2-7
				C75.8,52,75.8,51.6,75.9,51.3z"/>
			<path id="path2758" class="st5" d="M75.9,53.3c-0.7,1.1,0.4,2,0.6,3.3c0.1,0.6,0.4,0.6,0.4,0.8c0.3-3.2-0.8-3-0.6-3.8
				C76.3,53.2,75.9,53.5,75.9,53.3z"/>
			<path id="path2760" class="st5" d="M75.2,54.7c1.1,1.3,1.3,3.7,0.4,4.5c-0.2-0.1-0.5-1-0.9-0.3c-0.7-1.4-0.7-3-0.2-4.5
				C74.6,54.2,75,54.9,75.2,54.7z"/>
			<path id="path2762" class="st14" d="M75.1,56.4c-0.2,0.3-0.2,0.7,0,1C75.3,57.1,75.3,56.7,75.1,56.4z"/>
			<path id="path2764" class="st5" d="M76.4,58c-0.5,2.1-1.3,4.1-2.4,6c2.2-0.1,2.9-0.7,3.4-2.4C76.3,60.8,77.1,58.2,76.4,58z"/>
			<path id="path2766" class="st5" d="M78.5,58.4l-1.1,1.8c0.1,0.4,0.4,0.3,0.3,0.9c-0.1,0.7-0.2,1.5-0.3,2.3c1.1,0.5-0.2-3,1.9,0.1
				C79.3,61.5,78.6,60.4,78.5,58.4z"/>
			<path id="path2768" class="st5" d="M75.6,66.1c-1.2,2.4-1,3.5-0.4,3.7c0.9-0.9,1.6-2,2-3.1c0.4,1.3,1.2,2.5,2,2.4
				c0.3-0.7-1.1-1.2-1.1-2.9H75.6z"/>
			<path id="path2787" class="st5" d="M71.8,53.1c0.2,4.5-0.6,4.1,1,5.3c0.3-0.1,0.2-0.8,0.2-1.3c-1,0.5-0.3-3.2-0.6-4.3
				C72,52.5,71.9,52.9,71.8,53.1z"/>
			<path id="path2794" class="st5" d="M76.2,86.5c0,0.4-0.3,0.7-0.7,0.7c0,0,0,0,0,0c-0.4,0-0.7-0.3-0.8-0.7l0,0
				c0-0.4,0.4-0.7,0.8-0.7C75.8,85.8,76.2,86.1,76.2,86.5C76.2,86.5,76.2,86.5,76.2,86.5z"/>
			<path id="path2796" class="st5" d="M84.7,76.6l-8.6,9.2l0.3,0.4l8.6-9.1L84.7,76.6z"/>
			<path id="path2798" class="st5" d="M85.2,77.3l-8.5,8.9v0.7l8.9-9.3L85.2,77.3z"/>
			<path id="path2800" class="st5" d="M74.2,87l0.5,0.5c-0.2,0.7-0.6,1.3-1.2,1.7c-0.7-0.2-1.4-0.5-1.2-1.3c0.8-0.1,1.6-0.4,2.2-1"
				/>
			<path id="path2802" class="st5" d="M70.7,85.4c1.4-0.7,2.9,0.8,3.3,1.5c-0.4,0.3-0.8,0.5-1.2,0.6c-0.2-0.8-1-1.3-1.8-1.2
				c-0.2,0-0.4,0.1-0.6,0.3C70,86.2,70.2,85.8,70.7,85.4z"/>
			<path id="path2812" class="st5" d="M75.8,87.4c-0.6,0.5-1.3,0.3-1.2,1.6c1.1-0.6,1.9,0.2,3,0.8c2.6-2.3,7.9-3.7,11.3-7.3
				c0.1-0.8-0.4-1.3-1.3-1.6c0.5-1.4-1.2-1.9-1.8-2.7c-2.9,2.8-7.5,7.5-9,9C76.5,87.4,76.2,87.7,75.8,87.4z"/>
			<rect id="rect2814" x="87.1" y="81.6" class="st15" width="0.5" height="0.4"/>
			<rect id="rect2816" x="86.6" y="82.5" class="st15" width="0.5" height="0.5"/>
			<rect id="rect2818" x="85.2" y="82.8" class="st15" width="0.4" height="0.4"/>
			<rect id="rect2820" x="86.1" y="82.9" class="st15" width="0.4" height="0.4"/>
			<rect id="rect2822" x="85.2" y="83.8" class="st15" width="0.4" height="0.5"/>
			<rect id="rect2824" x="87.1" y="82.9" class="st15" width="0.4" height="0.5"/>
			<rect id="rect2826" x="84.3" y="84.5" class="st15" width="0.5" height="0.4"/>
			<rect id="rect2828" x="83" y="85.2" class="st15" width="0.3" height="0.5"/>
			<rect id="rect2830" x="82.5" y="84.8" class="st15" width="0.4" height="0.4"/>
			<rect id="rect2832" x="86.6" y="82" class="st16" width="0.5" height="0.4"/>
			<rect id="rect2834" x="85.7" y="82.9" class="st16" width="0.5" height="0.4"/>
			<rect id="rect2836" x="85.7" y="83.4" class="st16" width="0.5" height="0.4"/>
			<rect id="rect2838" x="85.7" y="83.4" class="st16" width="0.5" height="0.4"/>
			<rect id="rect2840" x="83.9" y="83.9" class="st16" width="0.5" height="0.4"/>
			<rect id="rect2842" x="83.4" y="84.8" class="st17" width="0.3" height="0.5"/>
			<rect id="rect2844" x="82.9" y="84.8" class="st17" width="0.3" height="0.5"/>
			<rect id="rect2846" x="82.5" y="85.3" class="st17" width="0.3" height="0.5"/>
			<rect id="rect2848" x="82.5" y="85.3" class="st17" width="0.4" height="0.5"/>
			<rect id="rect2850" x="84.3" y="83.4" class="st11" width="0.4" height="0.5"/>
			<rect id="rect2852" x="84.3" y="83.9" class="st11" width="0.4" height="0.5"/>
			<rect id="rect2854" x="78.8" y="87" class="st11" width="0.4" height="0.9"/>
			<rect id="rect2856" x="80.3" y="86.6" class="st11" width="0.4" height="0.5"/>
			<rect id="rect2858" x="79.7" y="86.6" class="st17" width="0.4" height="0.5"/>
			<rect id="rect2860" x="79.3" y="87" class="st17" width="0.4" height="0.5"/>
			<rect id="rect2862" x="82.5" y="84.8" class="st15" width="0.4" height="0.5"/>
			<rect id="rect2864" x="82.9" y="85.3" class="st15" width="0.4" height="0.5"/>
			<rect id="rect2866" x="85.3" y="83.4" class="st18" width="0.4" height="0.4"/>
			<rect id="rect2868" x="87.5" y="82" class="st16" width="0.5" height="0.4"/>
			<rect id="rect2870" x="85.2" y="82.4" class="st19" width="0.4" height="0.4"/>
			<rect id="rect2872" x="84.7" y="83" class="st19" width="0.4" height="0.4"/>
			<rect id="rect2874" x="86.2" y="83.8" class="st19" width="0.4" height="0.4"/>
			<rect id="rect2876" x="86.1" y="83.4" class="st16" width="0.5" height="0.4"/>
			<rect id="rect2878" x="88" y="82" class="st19" width="0.4" height="0.4"/>
			<rect id="rect2880" x="88.3" y="82" class="st20" width="0.4" height="0.4"/>
			<rect id="rect2882" x="81.6" y="85.7" class="st15" width="0.4" height="0.5"/>
			<rect id="rect2884" x="79.2" y="86.6" class="st16" width="0.5" height="0.4"/>
			<rect id="rect2886" x="79.7" y="87.1" class="st16" width="0.5" height="0.4"/>
			<rect id="rect2888" x="80.7" y="86.6" class="st16" width="0.5" height="0.4"/>
			<rect id="rect2890" x="81.1" y="86.6" class="st16" width="0.5" height="0.4"/>
			<rect id="rect2892" x="81.1" y="86.2" class="st16" width="0.5" height="0.4"/>
			<rect id="rect2894" x="81.6" y="85.2" class="st16" width="0.5" height="0.4"/>
			<rect id="rect2896" x="80.2" y="86.2" class="st16" width="0.5" height="0.4"/>
			<rect id="rect2898" x="79.3" y="87.6" class="st16" width="0.5" height="0.4"/>
			<rect id="rect2900" x="78.3" y="88" class="st16" width="0.5" height="0.4"/>
			<rect id="rect2902" x="77" y="88" class="st16" width="0.5" height="0.4"/>
			<rect id="rect2904" x="77.4" y="88" class="st15" width="0.4" height="0.5"/>
			<rect id="rect2906" x="77.8" y="88" class="st15" width="0.4" height="0.5"/>
			<rect id="rect2908" x="78.3" y="87.5" class="st15" width="0.4" height="0.5"/>
			<rect id="rect2910" x="78.3" y="87.1" class="st19" width="0.4" height="0.4"/>
			<rect id="rect2912" x="78.3" y="88" class="st16" width="0.5" height="0.4"/>
			<rect id="rect2914" x="78.7" y="88" class="st16" width="0.5" height="0.4"/>
			<path id="path2970" class="st5" d="M74.5,89.2c1.4-0.8,3.8,1.6,4,2c0.2,0.6-2.4,0.2-2.6-0.4c0.1-0.3,0.1-0.6-0.2-0.7
				c-0.1-0.1-0.3-0.1-0.5,0C74.6,90.8,74.6,90,74.5,89.2z"/>
			<path id="path2972" class="st5" d="M86.1,85c-2.7,2.1-6,3-7.8,4.7c-0.3,0.4-0.2,0.8,0.6,1.3c0,0.4-0.4,0.9,0.8,1
				c1-0.6,2.5-1.1,3.3-1.9c0.2-0.4,0.1-0.6,0.5-1.4C83.5,87.2,84.9,86.5,86.1,85z"/>
			<path id="path2974" class="st5" d="M82.9,90.5c-1.1,0.8-2.3,1.5-3.6,2c0.3,0.5,0.5,0.9,3.1,1.5C83.2,93.2,82.8,91.7,82.9,90.5z"
				/>
			<path id="path2980" class="st5" d="M86.9,84.4l-2.8,3.3c-0.7,2.3-0.4,3.7-1,5.3c-0.4,1.3-1,2.5-1.4,3.5c-0.2,0.4,0,0.8-0.2,1.2
				c5.8-2.7,5-7,7.6-8.2c-0.3,2.1,1.1,3.3,0.3,6.2c-0.8,1.6-1.7,3.2-1.6,4.1c2.5-1.2,4.7-3,6.3-5.2c0.4-1.6,1.1-3,2.3-4.2
				c0.5,2.6,0.1,2.7,0.2,4.5c0.7-0.8,1.1-2.6,0.9-5.6c-5.2,2.3-0.6,4.2-8.3,8.5c-0.5,0-0.4-0.2-0.2-0.7c1.7-1.3,0.7-8,1.7-10.8
				c-3.8,2.6-4,6.8-7.7,9.5c0.9-2.5,1.3-5.1,1.3-7.8l2.7-3.1L86.9,84.4z"/>
			<path id="path2982" class="st5" d="M89.4,82.5c2.4,2.4,5,4.6,7.7,6.7c-4.7,2.2-1.1,4.5-7.7,8.3c2-2.7,0.5-7.9,1.9-11.5
				c-0.1-0.6-0.3,0-0.6,0c-4,2.6-5,7.4-6.8,8.9c0.4-2,1.1-4.8,0.9-6.4c1.9-2.3,2.8-3.1,2.7-3.7C87.3,83.7,87.8,84.1,89.4,82.5z"/>
			<path id="path2988" class="st5" d="M88.7,90.4c-1.4,0.9-1.6,3.3-3.4,5c1,0.8,1.9,0.7,2.9,1C90,94.8,89,92.5,88.7,90.4z"/>
			<path id="path2990" class="st5" d="M96,91.7c-0.8,0.3-1.3,2.8-1.6,3.5s-1.5,1.1-1.9,2.2l1.4-0.1C95.4,96.6,96.6,94.8,96,91.7z"/>
			<path id="path2992" class="st5" d="M96.1,95.5c-0.8,1.6-2.5,2.6-2.8,5.9c0.3,0.3,0.6,0.2,0.9-0.1c2.9-3.9,5.3-3,6.8-7.2
				c0.8-2.5,2.8-5.3,3.5-8.5l-1.9,1.4c0.4,3-1.8,3.9-2.4,6.8c-0.2,2.8-4.1,4-5.7,5.4C95,98.4,96.4,96.8,96.1,95.5z"/>
			<path id="path2994" class="st5" d="M98.3,89.6c1.4-0.7,2.7-1.4,4-2.3c0.3,2.7-2,3.3-2.3,6c-0.2,2-1.8,3.4-3.8,4.4
				c0-1.3,1-2.3,1.7-4.6C98.3,92,97.8,90.8,98.3,89.6z"/>
			<rect id="rect3000" x="88.9" y="85.3" class="st17" width="0.5" height="0.5"/>
			<rect id="rect3002" x="88" y="86.2" class="st17" width="0.5" height="0.5"/>
			<rect id="rect3004" x="88.9" y="86.2" class="st17" width="0.5" height="0.5"/>
			<rect id="rect3006" x="87.5" y="87.1" class="st17" width="0.5" height="0.5"/>
			<rect id="rect3008" x="86.7" y="87.1" class="st17" width="0.5" height="0.5"/>
			<rect id="rect3010" x="91.2" y="85.2" class="st17" width="0.5" height="0.5"/>
			<rect id="rect3012" x="93" y="87.1" class="st17" width="0.5" height="0.5"/>
			<rect id="rect3014" x="100.3" y="88.7" class="st17" width="0.5" height="0.5"/>
			<rect id="rect3016" x="99.4" y="89.8" class="st17" width="0.5" height="0.5"/>
			<rect id="rect3018" x="93.5" y="88.5" class="st17" width="0.5" height="0.9"/>
			<rect id="rect3020" x="92.6" y="92.2" class="st17" width="0.5" height="0.5"/>
			<rect id="rect3024" x="93.1" y="92.7" class="st17" width="0.5" height="0.5"/>
			<rect id="rect3026" x="92.6" y="93.3" class="st17" width="0.5" height="0.5"/>
			<rect id="rect3028" x="98.1" y="91.5" class="st17" width="0.5" height="0.5"/>
			<rect id="rect3030" x="98.3" y="90.1" class="st17" width="0.5" height="0.5"/>
			<rect id="rect3032" x="100.1" y="89.5" class="st17" width="0.5" height="0.5"/>
			<rect id="rect3034" x="90.7" y="84.8" class="st17" width="0.5" height="0.5"/>
			<rect id="rect3036" x="91.7" y="86.2" class="st21" width="0.9" height="0.5"/>
			<rect id="rect3038" x="91.1" y="86.9" class="st21" width="0.5" height="0.5"/>
			<rect id="rect3040" x="91" y="88.2" class="st21" width="0.5" height="0.5"/>
			<rect id="rect3042" x="91.1" y="87.3" class="st18" width="0.5" height="0.9"/>
			<rect id="rect3090" x="92.5" y="91.2" class="st17" width="0.5" height="0.5"/>
			<rect id="rect3092" x="92.4" y="89.6" class="st17" width="0.5" height="0.5"/>
			<rect id="rect3094" x="93.7" y="90" class="st17" width="0.5" height="0.5"/>
			<rect id="rect3096" x="94.7" y="89" class="st17" width="0.5" height="0.5"/>
			<rect id="rect3098" x="86.8" y="88.4" class="st17" width="0.5" height="0.5"/>
			<rect id="rect3100" x="93.7" y="90.5" class="st21" width="0.5" height="0.5"/>
			<rect id="rect3102" x="89.4" y="85.7" class="st21" width="0.5" height="0.5"/>
			<rect id="rect3104" x="88.3" y="87.1" class="st21" width="0.5" height="0.5"/>
			<rect id="rect3106" x="87.5" y="87.6" class="st21" width="0.5" height="0.5"/>
			<rect id="rect3108" x="99.3" y="91.3" class="st21" width="0.5" height="0.5"/>
			<path id="path2521" class="st4" d="M83.8,16.4C82.8,17,82,16.7,82,17c-0.9,0-1.9-0.1-2.4,0.7c-1.2,0-2.6-0.4-2.5,2
				c0.6-0.5,1.4-0.7,2.1-0.5c-0.7,0.2-1.5,0.8-1.9,0.8c-0.4,0.1-1.8-1.7-2.3-0.4c1.2,0.1,1,1,2.1,1.1c1.7,0.1,2-1.9,2.6-0.8
				c-0.2,0.2-0.5,0.2-0.7,0.1c0,0.9,0.6,1.1,1.6,0.7c-0.3,0.6-0.7,0.7-1.3,0.7c-0.8,0.1-0.9-0.5-2.8-0.5c0.2,0.2,0.3,0.5,0.3,0.8
				c-0.9-0.2-1.8,0-2.5,0.7l-2.7-1.3c-0.4-0.3-0.9-0.6-0.7-1.4c0.2-0.6,0.3-1.2-0.4-1.4c-0.3-1.3-1.8-0.7-2.4-0.2
				c0.5,0.2,1.1-0.1,1.5,0.6c-0.4,0.1-0.5,0.5-0.3,1c-0.9,0.8-0.4-1.8-2-1.1c-1.4,0.2-1.1,1.1-0.9,2c0.2,0,0.2-0.6,0.8-0.9
				c0,0.4,0.2,0.7,0.6,0.8c0,0,0,0,0,0c-0.6,0.3-1.1,0.6-0.8,2.2c0.3,0.2,0.5-0.8,0.8-0.8c0.2,0.2,0.4,0.5,0.8,0
				c0.1,0.2,0.1,0.4,0.6,0.5c-0.4,0.2-0.7,0.6-0.6,1.1C68,24.3,67.7,24,67.3,24c0.4,0.7,1.2,1,2,0.6c0.1-0.1,0.3-0.2,0.4-0.3
				l1.2-1.6c1,0.4,1.9,0.9,2.8,1.4c-0.1,0.5,0,1,0.3,1.4c-0.2,0.8-1,1.4-1.5,2.1c-0.2,0.4-0.8,0.3-1.3,0.2c-0.4-0.5-0.8-0.5-1.3,0
				c-1.2,0-0.8,1.4-0.6,1.9c0.3-0.2,0.3-0.9,0.8-1c0.1,0.3,0.5,0.4,1,0.4l-0.2,0.3c-0.6,0.1-1.4,0.1-1.4,1c-0.6,1,0.4,1.3,1.4,1.4
				c-0.2-0.3-0.7-0.4-0.4-1c0.2,0.1,0.4,0,0.7-0.4c-0.1,0.3,0,0.6,0.2,0.8c0.2,0.4,0.7,0.6,1.1,0.5c0.1,0,0.2-0.1,0.2-0.2
				c-0.4-0.1-0.5-0.3-0.6-0.5c0.4-0.1,0.3-0.4,0.3-0.6c0.2-0.1,0.4-0.3,0.5-0.5c0.3,0.2,0.4,1,1,0.8c0.2,0.3,0,0.8,0,1.2
				c0.4-0.2,1.2-1,0.7-1.7c0-0.4-0.2-0.8-0.5-1c-0.3-0.1-0.5-0.3-0.6-0.5c0.5-0.4,1-0.9,1.4-1.4c0.5,0.7,1.4,1.2,2.3,1.2
				c1,0,1.9-0.1,2.9-0.2c1.5,0,1.6,1.7,0.6,2.5c-0.7,0.9-3.3,0.5-3.6,2.3c-0.6,0-1.2-0.5-2.3-0.2c-0.6,0.2-0.8,0.9-0.1,2.1
				c0.4-0.3,0.7-0.8,0.8-1.3c0.6,0.3,1.3,0.5,2,0.5c-0.3,1-0.8,1.8-2.2,1.4c-0.4,0-0.8,0-1.2-0.1c-0.3-0.3-0.9-0.5-1-0.2
				c-0.5,0.1-0.6,0.6-0.4,1.4c0.2-0.2,0.2-0.7,0.5-0.7c0,0.2,0.3,0.2,0.5,0.1c0.1,0.5,0.3,0.3,0.1,0.7s-0.3,0.6,0,1.1
				c-0.1,0.2-0.6,0.7-0.1,1.2c0.2-0.3,0.5-0.6,0.9-0.7c1,0,0.6-1.1,0.8-1.3c0.1,0.3,0,0.7,0.4,0.8c0.1,0.4-0.5,0.8-0.4,1.2
				c0.6-0.1,1.1,0.1,1.2-1c0.3,0,0.4-0.5,0.4-0.8c0.2,0.1,0.3,0.8,0.8,0.9c0.3,0.4-0.1,0.6-0.2,0.8c0.7,0.2,0.9-0.3,1-1
				c0-0.4-0.1-0.8-0.4-1.2c0.5,0,0-0.8,0.8-1c-0.1,0.6,0.1,1.1,0.6,1.5c0.4-0.2,0-2,0.9-2c0.3,0.2,0,1.2,0.5,1.6
				c0.6-0.5,0.6-1.3,0.8-2c0.3,0.1,0.6,0.2,0.9,0.2c0.1-0.4,0.1-0.9,0-1.3c1.5-1.5,0.4-2.9,0.2-3.9c0.7,0.1,1.3,0.4,1.9,0.7
				c-0.7,0.5-1,1.4-0.8,2.2c0.8-0.2,1.4-0.8,1.8-1.5c0.2,0.5,0.2,1,0.6,1.2c0.3-0.1,0.5-0.3,0.7-0.7c0.5,0.5,1.3,0.5,1.9,0
				c0.3-0.4,1.3,0.7,1,1.1c-0.4,0.7-0.8-0.4-1.8,0.4c-1.4-0.1-1.1,0.8-0.9,1.4c0.3,0,0.4-0.8,0.8-0.5c0.2,0.2-0.3,0.8,0,1.1
				c-0.9,1.1-0.2,1.4,0.3,1.8c0-0.4-0.1-1.1,0.4-1.1c0.3,0.5,0.6,1,1.1,0.4c0.3-0.3,0-1.6,0.6-1.6C91,34.7,90.5,36,91,36
				c0.1,0.5,0.1,1.1,0.5,1.1c0.3-0.1,0.4-0.5,0.5-1.1c0.4-0.3,0.6-0.7,0.3-1.4h0.5c0.2,0.4,0.5,0.6,0.9,0c0.1,0.1,0.1,0.4,0.1,0.8
				c0.3-0.2,1-1.5,0.4-1.9c-0.1-0.5-0.7-0.4-1.1-0.5c-0.4-0.5-1-0.8-1.6-1c-0.2-0.8,2,0.5,1.8-1.8c-0.7,0.4-1.6,0.5-2.4,0.4
				c-0.4-0.5-1-0.9-1.7-0.9c-0.3-1.1,3.7,0.9,4.4-2.5c0-1.6,0.8-3.1,2.2-3.9c0.1-0.3,0.2-0.6,0.4-0.9c-0.6-0.2-1.1,0.8-1.6,0.7
				c0.4-0.4,0.8-1,1-1.5c-0.8-0.3-1.6,1.2-2.5,0.8c0.2-1.2,2.7-0.6,3-2.7c-0.6,0-1.3,0.6-1.5,0.5c0.9-0.7,1.9-1.1,3-1.1
				c-0.4-0.4-0.9-0.6-1.4-0.5c-1.2,0-0.8,0.4-1.5,0.5c0.1-0.8-0.1-1.6-0.4-2.3c-0.8,3.2-2.4,3.4-2.4,5.8c0.1,1.7,0.7,3.8,0.2,4.6
				c-0.5,0.9-1.6,1.2-2.5,0.8c-0.3-0.2-0.6-0.4-0.8-0.8c-0.2-0.7-1-1.1-2.2-1c-1.5-0.1-2.6,1-4.4,0.2c0.8,0.2,1.6,0.1,2.3-0.2
				l-0.4-0.5c0.9,0.2,2.3,0.2,2.6-0.1c-0.6-0.6-2-0.8-1.9-1.3c1,0.1,1.8,1.2,3.1,1.1c1.1,0,1.3,0.1,2.1-1.5
				c-0.9,0.1-1.8,0.2-2.5-0.8c1,0.1,2.1,0.6,2.9,0.4s1.1-0.8,0.8-2c-1.1,0.7-2.6,0.5-3.4-0.5c1.8-0.1,4.7,0.6,4.4-1.8
				c-1.4,0.3-2.9,0.8-3.9,0.2c1.8-0.5,4.8,0.3,4.8-2.5c-2.1,1.3-6.3,0.1-6.8,1.6c-0.6,1.1-1.1,2.6-1.7,3.9s-1.5,0.7-2.3,0.9
				c-0.6,1.4-2.9,2-3.3,1.4c-0.7-0.6,1.2-1.6,1.5-1.7c0.4,0.1,0.6,0.6,0.8,1.2c0.5-0.3,0.2-1.5,1.2-1.5c0.2-0.9,1-0.5,1.4-0.9
				c-0.4,0.3-0.1-1-0.7-1c0.2-0.7,0.2-1.5,0-2.2c0.5-0.3,1-0.8,1.3-1.3c-0.5,0.3-0.9,0.2-1.3,0.3C83.5,17,83.7,16.7,83.8,16.4z"/>
			<path id="path2494" class="st6" d="M79.4,18c0.2,0.4,0.2,0.8-0.1,1.2c-0.7-0.2-1.5-0.1-2.1,0.5c-0.1-1.4,0.6-1.7,1.5-1.7
				c-0.1,0.3,0,0.7,0.3,0.9l0.1-0.9L79.4,18z M79.3,19.6c-0.2-0.3-1.1,0.6-1.8,0.7c-1,0-1.7-1.5-2.2-0.6c0.9,0.3,1,1,2,1.1
				C78.8,20.6,78.4,20,79.3,19.6L79.3,19.6z M79.3,20.4c0.2,0.8,0.9,0.2,1.4,0.2C80.4,20.2,79.6,20.5,79.3,20.4L79.3,20.4z
				 M74.3,22.8c0,0.4-0.2,0.9-0.5,1.2c-1-0.6-2.4-1.1-2.9-1.9c0,0.4-0.1,0.4-0.4,0.5c0,0.4-0.1,0.8-0.4,1c0.2,0.6-0.2,0.8-0.5,0.8
				c0-0.3,0-0.5-0.6-0.5c-0.1-0.5,0.1-0.8,0.6-0.8c0.2-0.3,0.4-0.7,0.1-0.9c-0.3,0.4-0.7,0.3-0.8-0.3c-0.2,0.4-0.6,0.6-0.8,0.1
				c0.3-0.4,0-0.4-0.1-0.7c0.5-0.5,0.5,0,0.8,0.1c-0.2-0.4,0.2-0.6-0.4-1c-0.3,0-0.8,0.2-0.8-0.4c0.3-0.2,0.3-0.5,0.1-0.8
				c1-0.4,0.8,1.2,1.7,1.4c0.2-0.1,0.7,0.2,0.4-0.6c-0.4-0.4,0-0.6,0.2-0.9c0.3,0.2,0.5,0,0.8,0c0.3,0.3,0.1,0.6,0,0.9
				c-0.1,1,0.2,1.6,1,1.9L74.3,22.8z M67.2,22.7c-0.2-0.5-0.2-1.5,0.4-1.5c0.4,0.2,0.2,0.5,0.2,0.7C67.4,21.9,67.4,22.6,67.2,22.7
				L67.2,22.7z M67.4,19.1c0.2,0.3,0.2,0.6-0.1,0.7c-0.3-0.1-0.5,0.3-0.8,0.5C66.5,19.6,66.6,19.1,67.4,19.1L67.4,19.1z M68.7,18.2
				c0.8-0.5,1.4-0.5,1.8,0.4c-0.1,0.2-0.3,0.3-0.5,0.2c0,0,0,0-0.1,0C69.6,18.3,69.1,18.4,68.7,18.2L68.7,18.2z M68.8,23.9
				c0.2-0.1,0.4,0.1,0.5,0.4c-0.7,0.8-1.1,0.4-1.6,0.1C68.2,24.2,68.7,24.2,68.8,23.9L68.8,23.9z M69.8,27.8c0.2,0.1,0.2,0.5,0,0.7
				c-0.3-0.1-0.4,0.4-0.6,0.8C69,28.6,69,28,69.8,27.8L69.8,27.8z M69.6,30.4c0.2,0,0.5,0,0.5,0.3c-0.2,0.1-0.1,0.4,0.1,0.7
				C69.7,31.3,69.2,31.1,69.6,30.4L69.6,30.4z M71.4,30.9c0.2-0.1,0.4-0.2,0.6-0.1c0,0.2,0.1,0.4,0.3,0.6
				C71.9,31.6,71.7,31.4,71.4,30.9L71.4,30.9z M74.1,30.4c0-0.3,0.2-0.4,0.4-0.3c0.3,0.6-0.1,0.9-0.3,1.2
				C74.1,31,74.5,30.6,74.1,30.4L74.1,30.4z M73,35.2c0.1,0.1,0.3,0.3,0.1,0.4c-0.2,0.1-0.3,0.2-0.4,0.4
				C72.6,35.7,72.7,35.4,73,35.2C73.1,35.2,73.1,35.2,73,35.2L73,35.2z M73.9,37.9c0.2,0,0.4,0.1,0.3,0.4c-0.2,0.1-0.4,0.1-0.5,0.4
				C73.4,38.6,73.7,38.2,73.9,37.9L73.9,37.9z M75.9,37.9c0.2-0.1,0.4-0.2,0.6,0.1c0,0.8-0.5,0.8-0.9,0.8
				C75.6,38.4,76.2,38.2,75.9,37.9L75.9,37.9z M78,38c0.2-0.2,0.3-0.2,0.5-0.1c-0.1,0.6-0.2,0.9-0.6,0.8C78.2,38.3,78.1,38.2,78,38z
				 M88.2,33.2c0.1,0.2,0.1,0.4-0.1,0.5c0,0,0,0,0,0c-0.3-0.1-0.4,0.4-0.6,0.6C87.2,33.8,87.3,33.3,88.2,33.2L88.2,33.2z M88.3,35.2
				c0.2,0,0.3,0.1,0.3,0.3c0,0,0,0,0,0c-0.5,0.4-0.3,0.7-0.4,1C87.9,36.2,87.7,35.8,88.3,35.2L88.3,35.2z M91.2,36
				c0.2-0.1,0.5-0.2,0.7,0c-0.1,0.3-0.1,0.7-0.4,0.9C91.3,36.9,91.3,36.4,91.2,36L91.2,36z M93.8,34.5c0-0.3,0.2-0.4,0.4-0.5
				c0.1,0.3,0.2,0.6-0.2,1.2C94,34.9,94.1,34.5,93.8,34.5L93.8,34.5z M89.7,31.5c0.8,0.7,1,1.4,0.2,1.8c-0.5,0.2-1-0.8-1.5,0
				c0.1,0.2,0,0.4-0.1,0.5c0.1,0.4,0.9,0.1,0.9,0.3s-1,0-0.8,1c0.2,0,0.3,0.3,0.5,0.5c0.9,1.4,1.4-0.5,0.9-0.9
				c0.2-0.1,0.5-0.1,0.6-0.5c0.1,0.1,0.4,0.2,0.8,0.2c0,0.2-0.1,0.5-0.2,0.6c-0.2,0.3-0.4,0.5,0,0.8c0.3-0.1,0.5-0.1,0.8,0
				c0.3-0.2,0.5-0.5,0.2-0.9c-0.1-0.1-0.2-0.3-0.1-0.5c0.3,0.1,0.6,0,0.8-0.2c0.2,0.6,0.5,0.5,0.9,0.3c0.1-0.3,0.2-0.5,0.4-0.7
				c-0.3-0.8-0.7-0.5-1.1-0.4c-0.6-1.1-1.6-0.8-1.8-1.3c-0.3-0.9,2.2,0.1,1.9-1.5c-0.8,0.1-1.8,0.8-2.5,0.2
				c-0.6-1.1-1.8-0.7-1.9-1.2c0-0.7,1.7-0.4,2.6-0.5c1.8-0.2,2.3-1.6,2.3-3.5c0.3-1,0.9-1.9,1.7-2.5c-0.7,0.1-1.7,0.9-2,0.7
				c0-0.7,1.3-0.5,1.8-2c-0.7,0.6-1.6,0.9-2.4,0.7c0.1-1.6,3-1.2,3.1-2.6c-0.7,0.3-1.3,0.8-2.1,0.6c0.9-0.9,2.1-1.4,3.3-1.6
				c-1.2-0.8-2,0.6-2.8,0.6c0.4-0.7,0.4-1.5,0.2-2.2c-0.8,2.7-2.9,3.5-2.1,6.9c0.2,0.8,0.8,3-0.8,3.8c-2.8,1-2.5-1.1-3.7-1.6
				s-2.1-0.1-3.4,0.2c-1.2,0.1-2.4,0.5-3.1-0.7c0-0.2,0.1-0.5,0.5-0.5c0.5,0.7,1.5,0.6,2.4,0.4c-0.4-0.5-1.7-0.6-2-1.1
				c-0.1-0.2,0-0.5,0.4-0.5c1,0.9,2.4,1.2,3.7,0.9c-0.8-0.2-1.5-0.6-1.9-1.2c0.1-0.2,0.1-0.4,0.6-0.5c1.3,0.4,3.3,2.5,4.6,0.4
				c-1.7-0.1-2.2-0.8-2.5-1.5c1.4-0.1,4.2,2.1,3.9-0.9c-1.8,0.7-2.8-0.2-3.9-1.1c1.7-0.3,4.7,0.9,4.9-1.3c-1.5,0.2-2.9,1.3-4.5-0.2
				c1.8-0.6,4.7,0.4,5.3-1.9c-1.6,0.4-3.2,0.6-4.8,0.5c-2,0-2,2.9-3,4.4c-0.5,0.8-1.5,1.3-2.5,1.1c-1,1.5-3,2.1-3.8,1.2
				c-0.2-1.4,1-1.5,1.8-2c0.4,0.1,0.8,0.5,0.8,0.9c0.2-0.6,0.4-1.2,1-1.3c0.1-0.4,0.5-0.6,1.1-0.7c0-0.4-0.1-0.8-0.5-0.9
				c0.3-0.7,0.3-1.5,0-2.2c0.5-0.2,0.9-0.6,1.2-1c-0.5,0.1-1,0.2-1.5,0.4c0-0.2,0.8-0.7,0.9-1c-0.9,0.1-1.4,0.3-1.3,0.6
				c-1.1-0.1-2.1-0.1-2.4,0.6c0.1,0.6,0.2,1.1-0.2,1.3c0.3,0.8,1.2,0.9,1.5,1.5c-0.9,1.9-2.6,0.7-4,0.5c0.2,0.3,0.2,0.6,0.1,0.9
				c-0.5-0.2-1.1-0.2-1.7,0c-0.4,0.1-0.7,0.4-0.9,0.7c0,0.4-0.2,0.9-0.5,1.2c-0.2,0.5-0.1,1.1,0.3,1.5c-0.6,0.9-1.2,1.7-2,2.4
				c-0.5,0.2-1,0.1-1.4-0.2c-0.3-0.2-0.6-0.7-0.9-0.1c0.1,0.2,0.2,0.5,0,0.7c0.3,0.3,0.8,0.5,1.2,0.3c0,1-2,0.7-1.6,1.6
				c0.2,0,0.5,0.1,0.7,0.3c0.4,0,0.5-0.2,0.6-0.5s0.4-0.3,0.7-0.3c0,0.3-0.6,0.3-0.3,1.1c0.4-0.2,0.6-0.2,0.7-0.1
				c0.4-0.1,0.3-0.4,0.2-0.6c0.7,0,0.3-0.9,0.8-0.8c0.1,0.2,0.2,0.4,0.4,0.5c-0.1,0.3,0.1,0.6,0.4,0.6c0.1,0,0.2,0,0.2,0
				c0-0.2,0.2-0.5,0.4-0.5c0-0.3-0.2-0.6-0.5-0.8c-0.3-0.2-0.6-0.3-0.8-0.7c0.6-0.5,1.2-1.1,1.8-1.8c0.8,1.4,2.4,1.7,4.4,1.2
				c1.3-0.2,2.1,0.2,2.3,1.4c0,3.1-4,1.5-4.2,3.9c-0.8,0-1.5-0.5-2.2-0.3c-1,0.2-0.7,1-0.5,1.7c0.3-0.3,0.6-0.7,0.8-1.2
				c0.7,0.3,1.5,0.4,2.3,0.2c-0.1,1-0.6,2.4-2.6,2c-0.4,0-0.8,0.1-1.2-0.2s-0.7-0.6-0.9-0.2c0.1,0.1,0.2,0.3,0.1,0.5
				c0,0.2,0.3,0.2,0.6,0.2c0.1,0.3,0.2,0.7,0.5,0.8c-0.2,0.4-0.8,0.4-0.5,1.2c0.2,0,0.4,0.1,0.5,0.3c0.9,0.2,0.4-0.8,0.6-1.3
				c0.2-0.3,0.7-0.3,1-0.1c0,0,0,0,0,0c-0.4,0.3-0.6,0.6-0.1,0.9c0.2,0,0.4-0.1,0.6,0.1c0.4,0,0.2-0.9,0.7-0.9
				c0.3,0.3-0.1,0.7,0.7,1c0.2-0.2,0.3-0.3,0.6-0.2c0.2-0.5-0.5-0.7-0.4-1.1c0.2-0.2,0.4-0.5,0.5-0.8c0.4,0,0.5-0.5,0.7-0.9
				c0.3,0.5-0.2,1.7,0.5,1.8c0.2-0.4,0-1,0.2-1.5c0-0.3,0.5-0.6,1-0.6s0.1,1.2,0.4,1.6c0.5-0.4,0.1-1.8,0.6-2.1
				c0.2,0.4,0.5,0.6,0.9,0.5c0-0.4,0.1-0.8-0.2-1.1c0.6-0.3,1-1,1-1.7c-0.2-1.6-0.9-2.4-1.5-3.4c1.2,1.3,2.6,1.1,3.2,1.9
				c-0.3,0.6-1.1,0.9-0.6,1.8c0.4-0.2,0.8,0,1-1.4c0.3,0,0.8-0.2,0.8,0.2s-0.3,0.8,0.2,1c0.5-0.2,0.4-0.6,0.5-1
				c0.4,0.3,0.8,0.9,1.7,0.5C89,31.3,89.4,31.3,89.7,31.5L89.7,31.5z M82,19.5c-0.5-0.5-1.3-0.4-1.8-0.9c0.1-0.4,0.4-0.7,0.8-0.9
				c0.2,0.3,0.7,0.6,0.5,1s0-0.1-0.2-0.3s-0.5-0.1-0.5,0.2C81,19.1,81.9,18.7,82,19.5z"/>
			<g id="g3466">
				<path id="path5070" class="st4" d="M103.7,51.8c-2.7,1.5-4.8-4.3-8-0.8c-2.5-1.2-4.2,1.7-2.5,3c-0.2-0.4,0.4-1.1,0.7-1.1
					s0.1,0.3,0.2,0.5c0.7-0.2,1.5-0.1,2.1,0.3c-0.4,0.5-0.9,0.3-1.3,0.2c-0.2,0.8,0,1.5,1.4,1.4c0.9,1,0.1,1.8-1.3,1.5
					c0.1,0.7,0.6,1.2,1.3,1.3c-1,0.9-2.5,0.9-2.8,2.5c-0.3-0.6-0.9-0.9-1.5-0.9c0-1.4-0.9-1.6-1.8-1.6c0.3-0.8-0.2-1.2-0.8-1.6
					c2.6-1.7,1.8-5.9-1.9-6.7c-3.2-0.4-5.7,1.1-5.8,4.4c0.3,3,1.4,6.1-0.7,8.7c0.8,1.8,2.6,1.7,3.4-0.5c0.3,1.5,0.9,5.5-2.1,3.9
					c0.7,1.2,1,3,2.8,3.2c2.1-0.5,1.8-3.3,2.4-5c0.3,0.2,0.8,9.1-2.6,7.7c0.8,1,1,2.7,3.3,2.3c2.9-2.2,1.9-5.9,2.6-8.9
					c1.1,2,1,5.8-0.7,7c0.2,0.6,1.3,1.9,2.8,0.4c0.9-0.9,1-3.5,1.4-3.6c-0.1,1.4-0.5,2.7-1,4l0.7-0.3c-0.4,0.9-0.2,2.5-1.5,2.1
					c-0.8-0.8-1.6-1.5-2.2-0.4c-0.6,0-1.1,0.4-1.2,1c0,0.3,0.1,0.6,0.3,0.8c0.2-0.6,0.5-0.6,0.8-0.8c0.4-0.5,0.2,0.5,0.8,0.6
					c-0.4,0.2-0.4,0.6-0.4,1c-0.9,0.4-0.5,1.6,0.3,1.8c-0.2-0.4-0.1-0.8,0.2-1.1c0.4,0.1,0.9,0.4,1.3-0.2c-0.1,0.3,0.1,0.6,0.3,0.8
					c0.1,0.4,0.1,0.7,0.1,1.1c0.4-0.2,0.7-0.6,0.8-1c1.4,0,0.6-1.1,0.6-1.8c0.6-0.4,0.5,1.4,1.8,0.7c0.3,0.3,0.5,0.7,0.3,1.1
					c0.7-0.2,0.9-0.9,0.7-2.2c-0.2-0.6-0.7-0.8-1.5-0.6c-0.3-0.1-0.3-0.4-0.3-0.6c0.1-0.7,0.3-1.4,0.7-2l0.7,0.4
					c0.4-1.2-0.2-3.2,0.6-3.5c0.6,1.3,0.8,2.6,0.7,4c-0.7,0.2-1.1,0.9-0.9,1.5c0.1,0.3,0.3,0.6,0.6,0.8c-0.2,1.3-0.4,4.3-2.1,4.4
					c-0.8,0-0.6-0.5-0.2-1.1c-2.5-0.9-3.2,2-1.9,2.7c3.4,1.6,4.8-1.9,5.2-5.1c0.1,4.9-2.6,4.9,0.7,8.7c3.3-3.8,0.4-4,0.4-8.8
					c0.3,2.6,1.6,6.7,4.9,5.3c2.1-1.8-0.2-3.8-1.8-2.8c0.5,0.6,0,1.2-0.3,1c-1.7-0.8-1.6-2.8-2-4.5c0.6-0.4,0.7-1.2,0.3-1.7
					c-0.2-0.3-0.5-0.5-0.8-0.5c0.1-1.3-0.1-2.7,0.5-3.7c0.4,1.2,0.5,3.2,1,4.6c0.2-0.6,0.4-1.2,0.6-1.7c0.5,0.6,0.8,1.4,0.8,2.2
					c-0.2,0.3-1.1-0.3-1.6,0.5c-0.2,0.8-0.4,1.7,0.5,2.5l0.2-0.6c1.5,0.4,1.2-1.5,1.8-1s-0.9,1.4,0.9,1.8c0.2,0.8,0.6,1.1,1,0.8
					c-0.2-0.4-0.6-0.7-0.5-1c0.2-0.2,0.4-0.4,0.5-0.7c0.3,0.4,0.9,0.4,1.3,0.2c0.3,0.2,0.4,0.6,0.2,0.9c0,0,0,0.1-0.1,0.1
					c0.5-0.1,0.9-0.7,0.7-1.2c-0.1-0.3-0.3-0.6-0.6-0.7c0.2-0.3,0-0.6-0.2-0.9c0.3-0.2,0.5-0.6,0.5-0.9c0.5-0.2,0.5,0.8,1.1,1
					c0.1-0.7,0.3-1.6-0.8-1.9c-0.7-0.5-1.3-0.7-1.8,0.2c-0.5,0.3-1,0.4-1.4,0.1l-0.9-2.1c0.1-0.5,0.1-1,0.1-1.5
					c0.3,1.1,2.3,3.8,3.8,1.4c-2.4-2.4-1.6-5-0.9-7.6c0,3.2,0,6.4,2.2,8.9c1.4,1.2,2.7-0.1,3.6-1.7c-3.3,0.3-2.8-5.9-2.6-7.8
					c1,7.4,4.1,5,5.1,1.6c-2.8,2-2.3-2.4-2.5-4.2c0.8,2.1,2.4,3.1,3.8,1c-2.1-2.2-1.2-5.9-1.2-9.1c-0.1-2.3-2.1-4-4.4-3.9
					c0,0,0,0,0,0c-5.2,0.1-5.9,4.4-3,6.7c-0.7,0.2-1.1,1-0.9,1.7c-1-0.2-1.6,0.2-1.6,1.4c-0.7-0.1-1.4,0.3-1.6,1
					c0-3.2-2.6-1-2.4-2.5c0.6,0,0.8,0.3,1.4-0.1c-0.7-0.6-1.1-1.5-1-2.4c0.5,0.3,0.7,1,1.7,0.5c-0.5-0.7-0.8-1.6-0.7-2.5
					C103.5,53.4,103.6,52.5,103.7,51.8z"/>
				<path id="path3404" class="st22" d="M93.1,53.5c0.2-0.4,0.7-1,1.1-0.8c0.1,0.1,0.1,0.2,0.1,0.4c0.8-0.1,1.6,0,2.3,0.4
					c0.5-0.9-0.5-1.6-0.8-2.3C93.5,50.2,92.2,52.2,93.1,53.5z"/>
				<path id="path4375" class="st22" d="M96.9,54.1c0,1.2-2,1.2-1.8,0.1c0.5,0.1,0.9,0.1,1.1-0.2C96.4,54,96.7,54,96.9,54.1z"/>
				<path id="path4377" class="st5" d="M98.2,51.9c-0.4,0-0.4,0.2-0.4,0.5c0.2,0.2,0.4,0.3,0.7,0.3C98.6,52.2,98.4,52.1,98.2,51.9z
					 M98,51.2c-0.2-0.3-0.8,0.4-0.9,0.6c-0.1,0.7,0.9,0.9,1.6,1.3C99,52,98.3,51.7,98,51.2L98,51.2z M96.1,51.1
					c1.1-1.3,2.3-1.1,3.7-0.3c1.1,0.6,1.8,2,3.7,1.4c-0.1,0.8-0.8,1.3-1.6,1.3c-0.1,0.9,0.2,1.8,0.6,2.6c-0.6,0.1-0.9-0.7-1.5-0.7
					c0,0.9,0.2,1.8,0.7,2.6c-0.1,0.3-0.7-0.1-1.1,0.1c-0.2,2,2.5-0.1,2.4,2.5c0,2.3,0,5.8,0.1,8.4c-0.1,1.1,0,2.1,0.2,3.2
					c-0.3,0-0.6-0.6-1-0.6s-0.6,1.5-1,2.1c-0.4-1.2-0.6-3.6-1.1-3.7c-0.7,0.6-0.6,2.9-0.8,4.4h-1.4c-0.3-1.5,0.1-4-1-4.6
					c-1.1,0.8-0.6,2.4-0.8,3.7c-0.6-0.3-0.7-0.9-1-1.4c-0.5-0.1-1,0.8-1.6,0.7c0.7-1.2,0.9-2.6,0.8-4c-0.7-0.1-0.4-5.3-0.6-7.9
					c0-1.8,2.9-1.9,3.1-3.1c-0.7-0.1-1.2-0.2-1.3-0.6c1.9-0.2,1.5-1.2,1.2-2.1c0.7-0.3,0.4-1.2,0.3-1.9
					C96.9,52.4,96.6,51.7,96.1,51.1z"/>
				<path id="path4387" class="st7" d="M100.2,75.7c0,0.6-0.1,1-1.6,1c-1.3,0-1.6-0.5-1.6-1s0.3-1,1.6-1S100.2,75.2,100.2,75.7z"/>
				<path id="path4390" class="st5" d="M97.6,76.8l0.5,0.1c-0.1,1.7-0.5,3.3-1.3,4.8c-0.6,1.3-2.2,1.7-3.4,1.1
					c-0.2-0.1-0.3-0.2-0.5-0.3c-0.8-0.9,0.4-2.9,1.7-2.1c-0.3,0.4-0.6,1,0.6,1.2C97,81.6,97.2,78.7,97.6,76.8z"/>
				<path id="path4392" class="st23" d="M100,76.7l-0.5,0.2c0.2,1.9,0.8,6.3,3.8,6.2c2.7-0.3,1.8-3.5-0.4-2.8
					c0.3,0.6,0.2,1.3-0.5,1.2C100.4,81.3,100.3,78.1,100,76.7z"/>
				<path id="path4394" class="st5" d="M98.5,77h0.6c-0.2,5.5,2.7,5.4-0.1,9C96,82.6,98.8,82.8,98.5,77z"/>
				<path id="path4396" class="st24" d="M95,72.4c0.1,0.4,0.3,0.7,0.6,1c-0.6,0.8-0.9,1.8-1,2.8c0.7,0.3,2-0.6,2,1.2
					c0,0.5,0.1,1-0.3,1.2c0-0.5-0.2-0.6-0.3-0.8c-0.5,0.3-0.9,0.2-1-0.1s-0.3-0.8-1.2-0.6c-0.1,0.2,0,0.5,0.1,0.7
					c0.2,0.3,0.3,1-0.3,1.2c-0.3,0-0.6-0.1-0.9-0.2c-0.6-0.8,0-1.1,0.2-1.6c-0.4-0.3-0.5,1.8-1.9,1c-0.3,0.2-0.5,0.2-0.6,0.7
					c-0.4-0.2-0.4-1,0.3-1.2c0-1.4,0.9-0.9,1.4-1.1c-0.3-0.7-1.4,0.5-1.9-0.9c-0.3,0.1-0.6,0.2-0.9,0.5c-0.1-0.4,0.2-0.9,0.6-1
					c0,0,0.1,0,0.1,0c0.4-0.8,0.9-0.6,1.6-0.2c0.3,0.5,0.9,0.7,1.5,0.6c0.7-0.5,0.7-1.6,0.9-2.4C94.3,72.8,94.6,72.5,95,72.4z"/>
				<path id="path2443" class="st24" d="M102.2,72c-0.3,0.3-0.5,0.7-0.4,1.2c0.6,0.8,1,1.8,0.9,2.9c-0.7,0.3-1.8-0.5-1.8,1.2
					c0,0.5,0,0.9,0.4,1.1c0-0.5,0-0.3,0.2-0.6c0.3,0.2,0.7,0.2,0.9-0.1c0,0,0.1-0.1,0.1-0.2c0.2-0.3,0.2-0.7,1.1-0.6
					c0.1,0.2,0.1,0.4,0,0.6c-0.2,0.3-0.3,0.9,0.3,1.2c0.3,0,0.5,0,0.7-0.1c0.6-0.8,0.3-1.2,0.2-1.8c0.4-0.3,0.3,2.2,1.7,1.3
					c0.3,0.2,0.4,0.2,0.5,0.7c0.4-0.2,0.4-1-0.2-1.2c-0.1-1.6-1.1-0.8-1.4-1.2c0.2-0.5,1.4,0.6,1.7-0.9c0.4,0.1,0.7,0.3,1,0.6
					c0.2-0.4-0.2-1.1-0.7-1.1c-0.7-0.6-1.2-0.4-1.5,0c-0.4,0.4-1,0.6-1.5,0.5c-0.7-0.5-0.9-1.7-1.2-2.5
					C102.8,72.3,102.6,72,102.2,72z"/>
				<path id="path2445" class="st7" d="M110.5,53.2c-0.5,0-0.9,0.4-0.9,0.9c0,0,0,0.1,0,0.2c-0.5,0-0.9,0.4-0.9,0.9
					c0,0.5,0.4,0.9,0.9,0.9h0.2c-0.6,2.1-3.5,6.5-6.4,6.7v1.2c3-0.4,6.7-5.2,7.5-7.6c0.1,0,0.2,0.1,0.3,0.1c0.5,0,0.9-0.4,0.9-0.9
					c0-0.5-0.3-0.9-0.8-0.9c0.1-0.2,0.2-0.3,0.2-0.5C111.4,53.6,111,53.2,110.5,53.2z"/>
				<path id="path2460" class="st7" d="M111.1,56.7c-1.9,4.2-4.6,7-7.7,7.7c-0.2,4,0.1,8.4,2.3,9.1c0.6,0.1,0.9-0.4,1.2-0.7
					c-3.2-2.8-0.8-8.9-0.3-9v-0.1c0.1,3.6-0.2,7.5,2.1,10.1c1.2,1.1,2-0.2,2.8-1.1c-4.1-1-2.2-11.2-1.9-12c0,3.1,1.1,12.2,4.4,6.2
					c-3.2,0.6-2.1-8.6-1.8-8.7c-0.3,2.2,0.9,7.4,3.4,4.6c-2.1-2.8-1.1-5.9-1-8.9c-0.2-3.2-2.5-3.8-4.6-3.9c-4.3,0.4-5,4.5-2.2,6.5
					c-0.7,0.3-1.1,1-1,1.8c-1.2-0.1-1.8,0.5-1.7,1.7c-0.7-0.2-1.5,0.2-1.7,0.9c0,0,0,0,0,0.1v1.6c2.9-0.4,5.2-4.2,6-6.3
					c-0.5-0.1-0.9-0.6-0.9-1.1c0-0.6,0.4-1,0.9-1.1c0-0.6,0.5-1.1,1.2-1.1c0.6,0,1.1,0.5,1.1,1.2c0,0.1,0,0.2-0.1,0.4
					c0.4,0.2,0.7,0.6,0.7,1.1c0,0.6-0.5,1.1-1.1,1.1C111.1,56.7,111.1,56.7,111.1,56.7z"/>
				<path id="path3462" class="st7" d="M86,53.3c0.5,0,1,0.3,1,0.8c0,0,0,0,0,0.1c0,0,0,0.1,0,0.2c0.5,0.1,0.9,0.5,0.8,1
					c0,0.4-0.4,0.8-0.8,0.8h-0.2c0.6,2,3.6,6.4,6.6,6.6l0,1.2c-3-0.3-6.8-5-7.7-7.4c-0.1,0-0.2,0.1-0.3,0.1c-0.5,0-0.9-0.3-1-0.8
					c0,0,0,0,0-0.1c0-0.5,0.3-0.9,0.8-0.9c-0.1-0.2-0.2-0.3-0.2-0.5C85,53.8,85.4,53.4,86,53.3C86,53.3,86,53.3,86,53.3z"/>
				<path id="path3464" class="st7" d="M85.4,56.8c2,4.1,4.9,6.9,8,7.5c0.3,4,0.4,8.4-2.2,9.1c-0.6,0.1-0.9-0.4-1.2-0.7
					c3.2-2.9,0.5-8.9,0.1-9v-0.1c0,3.6,0.3,8.4-1.9,10.2c-1.2,1.1-2-0.1-2.8-1c4.1-1.1,1.9-11.3,1.6-12c0.2,2.4-0.1,6.9-1.3,8
					c-0.7,0.6-1.8,0.5-2.8-1.8c3.2,0.5,1.4-5.8,1.4-8.6c-0.1,1.1,0,3.1-0.6,4.4c-0.6,1.3-1.5,1.6-2.7,0.3c2-2.8,1-5.9,0.8-8.9
					c0.1-3.2,2.5-4.1,4.6-4.3c4.3,0.3,5.2,5.2,2.3,6.7c1,0.4,1.3,1.1,1,1.8c1.2-0.1,1.8,0.4,1.8,1.6c0.8-0.2,1.6,0.2,1.8,1v1.5
					c-2.9-0.4-5.4-4.1-6.2-6.2c0.6-0.2,1-0.8,0.8-1.4c-0.1-0.4-0.5-0.8-0.9-0.8c-0.1-0.6-0.6-1-1.2-1c-0.6,0-1.1,0.5-1.1,1.1
					c0,0,0,0,0,0c0,0.1,0,0.3,0.1,0.4c-0.6,0.3-0.8,0.9-0.6,1.5C84.4,56.6,84.8,56.9,85.4,56.8L85.4,56.8z"/>
			</g>
		</g>
	</g>
	
		<path id="path3025-0-8-4" style="clip-path:url(#SVGID_00000066506158731218688610000014624857029136448187_);fill:#FFFFFF;stroke:#424242;stroke-width:0.75;stroke-miterlimit:10;" d="
		M98.5,141.4v125.8c18.6,0,36.5-5.4,52-11.7V230c-4.9-2.3-8-7.4-7.8-12.8c0-6.2,2.4-11,7.8-13.4c0-18.2,1-29.1-7.9-37.3
		c-3.9-3.7-9.7-6.9-14.7-9.1c-2.2-0.9-4.7-1.6-6.5-2.4c-5.7-2.3-11.8-4.6-15.5-7.1C101,144.6,99.4,142.6,98.5,141.4L98.5,141.4z"/>
	
		<path id="path3025-0-8-4-1" style="clip-path:url(#SVGID_00000066506158731218688610000014624857029136448187_);fill:#FFFFFF;stroke:#424242;stroke-width:0.75;stroke-miterlimit:10;" d="
		M97.8,141.3v125.9c-18.6,0-36.5-5.4-52-11.6V230c4.9-2.3,8-7.4,7.8-12.8c0-6.2-2.4-11-7.8-13.4c0.1-18.2-1-29.1,7.9-37.3
		c3.8-3.7,9.7-6.9,14.7-9.1c2.2-1,4.7-1.6,6.5-2.4c5.7-2.3,11.8-4.6,15.5-7.1C93.2,146.1,95.7,143.8,97.8,141.3L97.8,141.3z"/>
	
		<path id="path3025" style="clip-path:url(#SVGID_00000066506158731218688610000014624857029136448187_);fill:#107BC0;stroke:#424242;stroke-width:0.75;stroke-miterlimit:10;" d="
		M97.9,144.4V265c-17.8,0-34.6-4.9-49.5-10.9l-0.2-22.7c5.3-2.7,7.8-8.3,7.9-14.3s-2.4-12.4-7.7-14.7c0-12.1-1.2-26.3,7.3-34.2
		c3.7-3.5,9.2-6.7,13.9-8.8c2.1-0.9,5-1.8,6.8-2.5c4.9-2,12.6-4.9,16.2-7.2C94.7,148.4,96.6,146.6,97.9,144.4L97.9,144.4z"/>
	
		<path id="path3025-9" style="clip-path:url(#SVGID_00000066506158731218688610000014624857029136448187_);fill:#DF221B;stroke:#424242;stroke-width:0.75;stroke-miterlimit:10;" d="
		M98.5,144.3V265c17.8,0,34.7-4.9,49.5-10.9l0.2-22.7c-5.4-2.7-7.8-8.3-7.9-14.3s2.4-12.4,7.7-14.7c0-12.1,1.2-26.3-7.3-34.2
		c-3.7-3.5-9.2-6.7-14-8.8c-2.1-0.9-5-1.8-6.8-2.5c-4.9-2-12.6-4.9-16.2-7.2C101.6,148.4,99.8,146.5,98.5,144.3L98.5,144.3z"/>
	
		<path id="path3805" style="clip-path:url(#SVGID_00000066506158731218688610000014624857029136448187_);fill:#F7C503;stroke:#424242;stroke-width:0.75;stroke-miterlimit:10;" d="
		M112.1,241.2c-1-0.9-1.1-2.5-0.1-3.2"/>
	
		<path id="path2989" style="clip-path:url(#SVGID_00000066506158731218688610000014624857029136448187_);fill:#F7C503;stroke:#424242;stroke-width:0.75;stroke-miterlimit:10;" d="
		M119.4,236c-1.5,0.6-2.8,0-4.1,0.2c1.5,0.9,3.4,3.6,2.2,3.4c-1.5-0.2-3-0.7-4.3-1.5c-0.3-0.1-0.5-0.2-0.8-0.2
		c-1.2,0,1.4,2.2,2.9,2.4c1.6,0.2,3.1,0.4,4.7,0.8c2.1,1,2.5,2.6,2.3,5.1c-0.3,1.8-0.6,1.8-0.9,0.2c-0.2-1-0.3-2.4-1.9-3.1
		c-0.8-0.5-1.6-0.8-2.5-0.9c-1.8-0.3-3.5-1-4.9-2.1c-0.7-0.5,0.4,1.8,2.7,2.4c1.8,0.5,3.5,0.8,3.7,2.5c0.2,1.3-0.7,2.5-2,2.7
		c-0.5,0.1-0.2,1.8-1,2.1c-1.3,0.4-2.3-1.3-2.3-1.3c-1.1-2-0.8,0.4-1.6,1.2s-3.1,0.8-4,0c-0.6-0.7-0.8-1.7-1.4-1.6s-1.2,1.2-2,1.1
		c-1.3-0.2-2.4-1.2-2.6-2.6c-0.4-0.8-1,0.1-1.2-0.8c0-1.8,0.2-3.7,0.5-5.5c0.1-0.6-0.6-1.3-1.1-2.2c-0.4-0.9-0.4-1.8,0-2.7
		c0-0.8,1.3,2.4,1.4,1.7c0-0.9-0.5-4.1,0.4-3.1c0.2,0.2,0.8,1.5,0.9,1.5c0.4,0.2-0.9-2.8-0.5-3.4c1.3-3.2,1.2,0,1.5,0.6
		c1,0.5-0.3-4.4,0.3-6.3c0.6-1,1.4-1.7,2-1.7c0.3-0.2,0.4,1.2,0.6,2.2c0.3,1.1,0.7,1.7,0.9,0.2c-0.1-1,0.2-2.1,0.7-3
		c0.7-1.3,3.1-2,4.4-4.1c0.5-1,0.2-1.8,0.2-2.7c-0.3-2.9,1-0.4,1.7,0.2c1.6,1.3-0.7-6.5-2-9.6c-1.8-3.8-3.2-7.3-5.9-10.4
		c-0.6-0.5-2.5-1.2-2.6,0.6c-0.1,1,0,1.9,0.4,2.8l5.1,11c0.4,1.3,1.1,4.9,0,6.9c-0.7,1.5-1.8,2.7-3.2,3.5c-1.1,0.3-2.3,0-3.1-0.8
		c-1.3-1.9-1.8-4.1-1.5-6.4c0-0.4-1-1.7-0.8-2.8c0.5-1.2,1.5-1.8,1.4-3.5c0-1-1.5-2.2-1.2-2.7c1.3,0,2.6,0.8,3.1,2
		c0.3,0.5,0.3,2,1,2.4c0.5,0.3,0.8,0.8,0.7,1.4c-0.1,1.1-0.2,2.1-1.4,2.7c-0.7,0.2-1,2.5-0.5,4.2c0.5,0.8,1.6,1.5,2.4,1
		s1.1-1.4,1.3-2.8c0.2-1.7,0-3.5-0.6-5.2l-2.7-5.6c-1.2-2.1-2.1-4.3-2.6-6.7c-0.2-1.7-0.2-4,1.5-5.3c0.6-0.7,2-0.6,3.1-0.2
		s3.3,3.5,3.4,3.8c0,0.1-1-1.5-0.8-2.2c0-0.7,3-2.5,3.2-3.6c0.2-0.8-0.7-1.8-3.2-2.7c-3.3-0.9-6.4-3.2-7.4-5.2
		c0.4-0.5,1.1-0.8,1.7-0.7c0.9,0.2,1.7,0.5,2.6,0.9c-0.6-0.2-1.1-0.4-1.6-0.7c-0.3-0.3-0.5-0.6-0.7-1c-0.3-0.7-1.8-2.2-0.7-2.3
		c1.3,0,1.4,0.6,2.5,1.1c-0.5-0.3-0.9-0.6-1.3-0.9c-0.9-1.9,0.2-5.7-0.2-5.9c-1.1-0.1-1.9-0.9-2.2-2c-0.5-1.6,0.4-4.6,1-4.8
		c0.3-0.1-0.3,1.6,0.7,2.1c1.8,0.7,2.6,3.7,3.5,1.5l0.9-2.8c0.3-1,1.6-0.6,2.4-1s0.9-1.6,1.3-1.6c0.8-0.2,0.6,0.7,0.6,1.7
		c0,0.8-0.5,1.5,0,1.5c1,0,1.9,0.1,2.8,0c1.4-0.3,2.3-1.1,2.2-0.8c-0.3,1.2-1.3,2.2-2.4,2.6c-0.5,0.1-0.8,0.9-1.3,1.1
		c-0.1,0.1,1.3-0.2,1.5,0.3c0.5,1.1,1.5,1.9,2.7,2.1c0.5,0.3-3.2,1.2-4.8,1.1c-1.3-0.1-1.9-0.9-3.7-1.2c-1.2,0.5-2,1.5-2.3,2.7
		c-0.1,1.2,0.2,2.3,0.7,3.4c0.9,1.4,1.9,2.8,3,4.1c1.9,2.5,0.8,0.9,0.9-0.8c1.4-4.2,1.9,1.4,2,0.1l0.4-1.4c2.3-3.7,0.9,2,1.8,4
		s2.9,5.1,3.1,6c0.4,0.9,0.3,2-0.2,2.8c1.3,1,2.9,1.5,4.5,1.5c0.9,0,1.7-0.2,2.4-0.7c0.8-0.4,1.3-1.3,1.1-2.1c0-0.6-0.6-1.3-1.3-2
		l-3.5-4c-1-1.1-1.6-2.5-1.8-4c0-0.9-0.4-2.1,0.7-1.1c0.7,0.3,2.3,2,1.7,0.4c-1.3-2.2-0.4-1.7,0.9-1.1c1,0.2,2,0,2.9-0.6
		c0.8-0.5,2.1-0.5,1.4-1.2c-1.2-0.7-2.5-1.3-2.3-2.8c0.1-0.3,0.6-0.2,0.7-0.5s0.1-1,0.3-1.3c0.5-0.9,1.7-1.2,1.9-0.7s-1.3,1.4-0.6,2
		c0.4,0.3,1.2,0.6,1.2,1.3c0,0.9,0.2,1.7,0.5,1.8s0.9-0.1,1.2-0.6l2-2c0.7-0.4,1.5-0.6,2.2-0.5c1.5-0.1,2.4-0.1-0.8,2.8
		c-0.5,0.5,0.8,0.4,1.1,0.8s0.3,0.6,0.8,0.7c1,0.2,1.8-0.9,1.9-0.6c0.3,0.6-0.4,2.2-2.4,2.1c-0.6,0.3,0.4,0.9,0.7,2
		c0.1,0.6,1.2,0.6,1.2,1s-0.8,0.3-2.1,0.1c-0.7,0-1.3-0.1-2-0.2c-1-0.4-1.7-2.5-3.4-2.8c-1.1-0.1-1.7,0.8-2.3,1.4
		c-1.2,1-1.2,2.2-1.3,3.4c0.1,1.2,1.5,2.3,2.3,3.4c1.1,1.1,0.8,2.6,1,3.2c0.1,0.2,1.1-1,1.8-1.5c0.6-0.5,1.4-0.7,2.1-0.3
		c1.1,0.5,1.8,1.1,1.6,1.4s-1.8,0.2-2.2,0.9c-0.7,0.5-0.4,0.7-0.2,0.8c0.5,0.2,2.5-0.5,3.2,0.6c2.4,1.5-0.5,0.6-1.2,1.7
		c-1.5,1.8-2.6,4.4-4.1,5.5c-0.7,0.7-1.8,1-2.8,0.9c-1,0-5.2-2.7-6.5-2.6c-1-0.1-2.1,0.1-2.9,0.7c-1.2,0.6,4.8,7.7,5.1,8.4
		c1.6,0.5,2.6,2.1,2.5,3.8c0,0.6,0.5,0.6,0.8,1.2c0.2,1.1,0.5,0.4,1-1c1-2.2,1.5-2.7,1.1-0.2c0.1,1.6,3.3,2.7,3,1.3
		c0-1.3-0.6-1.9-0.7-2.9c-0.1-1.1,0.3-2.3,1-3.2c0.5-0.3-0.1,1.2,0.4,1.5c0.7,0.6,0.8,1.4,0.6,2.6c-0.1,0.9,0.6,1.4,0.8,0.7
		c0.3-0.5,0.3-1.4,1-2.1s1.1-0.5,1.3-1c0.9-2.1,0.8-2.9,1.7-0.5c0,1.1,0.6,2.1-0.3,2.9l-1.8,1.6c-1,0.8-0.4,1.1,0.6,0.9
		s1.7-1.3,2.2-1.1c2.6,0.8,1,2.9-2.4,2.8c-0.8,0.4,2.5,2.5,1.9,4.3c-0.2,0.6,0.6,0.7,0.7,1.3s-2.4,0.5-3.5-1.4c-0.8-1-0.7-2.4-1-3.5
		c0.1-1.4-1,1-2.1,1.4c-0.9,0.4-1.9,0.5-2.9,0.5c-1.8-0.1-1.6,2.8-1.1,3.6c1.1,1.5,1.5,2.5-0.1,3.7c-0.3,0.2-0.9,0.5-1,0.8
		c-0.5,1,0,1.2,0.4,1l0.8-0.2c1.9-1.3-1.6,4.8-0.5,3.9l1.2-1.1c2.4-1.9,0.5,0.6,0,2c-0.4,1-0.3,3,0.4,2.3l2.4-1.2
		c4-1.9-0.3,1.4-1.8,3.6c-1,0.7,1.6,0.7,2.6,1.3c1.1,0.8,0.8,1.8,1.8,2.3c2.3,0.7-0.1,1.4-1.3,1.1l-2.2-1.5
		c-1.3-0.9-1.8-0.2-1.2,0.2c1.2,0.4,1.9,1.6,1.7,2.9c0.1,0.4,0.8,0.8,1.8,1c0.3,0.1-0.1,0.7-0.8,0.8c-1.1,0.1-2.1-0.3-2.8-1.1
		c-1.2-1.7,0.2-3.6-1.2-3c-0.4,1-0.2,2.1,0.3,3c1.3,1.1,3,3.1-2,0.2c-0.6-0.4-1-1.1-1-1.9c0.1-1.1,1.4-2.5,1.4-3.4l-0.6-3.4
		c-1.8-5.7-2.7-5.5-3.2-5.4C120.8,234,121,234.9,119.4,236L119.4,236z"/>
	
		<path id="path3759" style="clip-path:url(#SVGID_00000066506158731218688610000014624857029136448187_);fill:#F7C503;stroke:#424242;stroke-width:0.75;stroke-miterlimit:10;" d="
		M126.8,218.1c-0.1-1.1,0.5-1.9,0.1-2.6"/>
	
		<path id="path3761" style="clip-path:url(#SVGID_00000066506158731218688610000014624857029136448187_);fill:#F7C503;stroke:#424242;stroke-width:0.75;stroke-miterlimit:10;" d="
		M120.8,222.3c2.4-2.5,4.7-4.9,4.4-7.4"/>
	
		<path id="path3763" style="clip-path:url(#SVGID_00000066506158731218688610000014624857029136448187_);fill:#F7C503;fill-opacity:0;stroke:#424242;stroke-width:0.75;stroke-miterlimit:10;" d="
		M123.4,211.4c-0.5,0.3-0.9,0.8-1.1,1.4c-0.2,1-0.4,1.9-0.8,2.9c-0.7,1.2-0.5,2.7-0.8,2.1c-0.2-0.2-0.1-1.4-0.4-2
		c-0.7-1.3-1.9-2-1.3,0.3c0.3,1.2-0.2,2.5-1.1,3.3c-0.8,0.8-0.8-4-2.1-4.1c-0.3-0.1-0.4,0.5-0.4,1.5c-0.1,1.6-1.1,3.6-1.2,3.4
		c0.2-1.4,0.1-2.8-0.1-4.2"/>
	
		<path id="path3771" style="clip-path:url(#SVGID_00000066506158731218688610000014624857029136448187_);fill:#F7C503;stroke:#424242;stroke-width:0.75;stroke-miterlimit:10;" d="
		M119.3,232.7c0.8-0.4,1.4-1.2,1.5-2.1c0.1-0.8,0-1.8,1.3-2c0.7,0,1.5-0.3,2-0.8c1.2-0.9,2.9-2.1,1.9-2.4c-0.5,0.1-1.3,0.3-2,0.4
		c-0.3,0-0.6,0.1-0.8-0.6c0-0.4-2.1,1.2-2.5,2.1c1.1-2.2,5.5-3.3,6.7-5.9"/>
	
		<path id="path3773" style="clip-path:url(#SVGID_00000066506158731218688610000014624857029136448187_);fill:#F7C503;stroke:#424242;stroke-width:0.75;stroke-miterlimit:10;" d="
		M126.4,228.9c-1.8,0-4,2.5-4,3.5"/>
	
		<path id="path3791" style="clip-path:url(#SVGID_00000066506158731218688610000014624857029136448187_);fill:#F7C503;stroke:#424242;stroke-width:0.75;stroke-miterlimit:10;" d="
		M133.5,180.3c-0.9,0.4-1.6,1-2.9,1"/>
	
		<path id="path3793" style="clip-path:url(#SVGID_00000066506158731218688610000014624857029136448187_);fill:#F7C503;stroke:#424242;stroke-width:0.75;stroke-miterlimit:10;" d="
		M135,183c-1.3,0.2-2.5,0.3-3.6-0.6"/>
	
		<path id="path3767" style="clip-path:url(#SVGID_00000066506158731218688610000014624857029136448187_);fill:#F7C503;stroke:#424242;stroke-width:0.75;stroke-miterlimit:10;" d="
		M106.7,233.8c1-1.1,0.3-8.6,2.1-5c0.5,1.1,0.8,2.2,1,3.3c0.2,0.9-0.1,0.7,0-0.1c-0.3-1.5-0.4-3.1-0.3-4.6c0.2-0.6,0.6-1.1,1.4-0.2
		c0.2,0.3-0.1-1.6,0.2-2c1.5-2.7,1.4,1.8,1.9,1c0.7-2.4,1.4-3.8,1.7-2.6c0.2,2,0.9,3,0.9,1.5c0.1-0.9-0.4-2.1,0-2.8
		c1.8-2.6,0.6,2.3,1.7,2.6"/>
	
		<path id="path3775" style="clip-path:url(#SVGID_00000066506158731218688610000014624857029136448187_);fill:#F7C503;stroke:#424242;stroke-width:0.75;stroke-miterlimit:10;" d="
		M115.6,236.2l-3.6-0.1c-1.4,0-1.5,0.7-1.9,1.8"/>
	
		<path id="path3777" style="clip-path:url(#SVGID_00000066506158731218688610000014624857029136448187_);fill:#F7C503;stroke:#424242;stroke-width:0.75;stroke-miterlimit:10;" d="
		M106.1,248.4c0.3-0.4,0.1-0.9-0.3-1.3"/>
	
		<path id="path3779" style="clip-path:url(#SVGID_00000066506158731218688610000014624857029136448187_);fill:#F7C503;stroke:#424242;stroke-width:0.75;stroke-miterlimit:10;" d="
		M102.9,247.1c-0.5-0.3-1.1-0.4-1.6-0.2"/>
	
		<path id="path3781" style="clip-path:url(#SVGID_00000066506158731218688610000014624857029136448187_);fill:#F7C503;stroke:#424242;stroke-width:0.75;stroke-miterlimit:10;" d="
		M102.2,244.6c-0.6-0.4-1.4-0.4-2.1-0.1"/>
	
		<path id="path3789" style="clip-path:url(#SVGID_00000066506158731218688610000014624857029136448187_);fill:#F7C503;stroke:#424242;stroke-width:0.75;stroke-miterlimit:10;" d="
		M111.2,169.4c-0.9,0.1-1.6,2.7-3.2,3.1"/>
	
		<path id="path3807" style="clip-path:url(#SVGID_00000066506158731218688610000014624857029136448187_);fill:#F7C503;stroke:#424242;stroke-width:0.75;stroke-miterlimit:10;" d="
		M107.2,231.8c-0.1-1.2-0.3-2.4-0.8-3.5"/>
	
		<path id="path3809" style="clip-path:url(#SVGID_00000066506158731218688610000014624857029136448187_);fill:#F7C503;stroke:#424242;stroke-width:0.75;stroke-miterlimit:10;" d="
		M85.3,201.4c0.4-1.1-0.4-2.2-1.9-2.7l-2.4-0.9c-1.5-0.5-2.7-0.1-3,0.8c-0.4,1.2,0.4,2.2,1.8,2.8l2.4,0.9
		C84.2,202.9,84.9,202.4,85.3,201.4z"/>
	
		<path id="path3809-7" style="clip-path:url(#SVGID_00000066506158731218688610000014624857029136448187_);fill:#F7C503;stroke:#424242;stroke-width:0.75;stroke-miterlimit:10;" d="
		M69.9,198.7c0.4,1.1-0.4,2.2-1.8,2.7l-2.4,0.9c-1.5,0.5-2.7,0.1-3-0.8c-0.4-1.2,0.4-2.2,1.8-2.8l2.4-0.9
		C68.9,197.2,69.6,197.7,69.9,198.7L69.9,198.7z"/>
	
		<path id="path4035-1-1" style="clip-path:url(#SVGID_00000066506158731218688610000014624857029136448187_);fill:#F7C503;stroke:#424242;stroke-width:0.75;stroke-miterlimit:10;" d="
		M56.1,174.6c-2.5,1-4.8,3.2-3.8,7.3c0.3,1.3,1.1,2.4,2.3,2.9c-2.3,2.2-4.5,3.1-2.7,7.4c1.1,3.1,4.5,4.8,7.6,3.7
		c0.6-0.2,1.2-0.5,1.7-0.9c-0.1,1.3-0.6,2.6,0.8,3.5c0.9,0.6,1.8,0.6,3.5-0.1c1.9-0.8,2.4-1.2,2.6-2.3c0.3-1.7-0.9-2.2-1.9-3.1
		c3.4-0.4,5.8-3.4,5.4-6.7c-0.1-0.6-0.2-1.1-0.4-1.7c-1.8-4.4-4-3.5-7.2-3.6c0.5-1.2,0.4-2.6-0.2-3.7
		C61.8,173.7,58.6,173.6,56.1,174.6z"/>
	
		<path id="path4035-1-15" style="clip-path:url(#SVGID_00000066506158731218688610000014624857029136448187_);fill:#F7C503;stroke:#424242;stroke-width:0.75;stroke-miterlimit:10;" d="
		M91.7,174.4c-2.5-1-5.7-1-7.7,2.7c-0.7,1.1-0.8,2.5-0.3,3.7c-3.2,0-5.4-0.9-7.1,3.5c-1.4,3,0,6.6,3,7.9c0.6,0.3,1.2,0.4,1.9,0.5
		c-1,0.9-2.2,1.4-1.9,3.1c0.2,1.1,0.9,1.6,2.6,2.3c1.9,0.8,2.6,0.8,3.5,0.1c1.4-1,0.9-2.2,0.8-3.5c2.7,2,6.5,1.5,8.5-1.2
		c0.3-0.5,0.6-1,0.8-1.5c1.8-4.4-0.5-5.3-2.8-7.6c1.2-0.5,2.1-1.6,2.4-2.8C96.5,177.6,94.2,175.4,91.7,174.4L91.7,174.4z"/>
	
		<path id="path4109-2-7" style="clip-path:url(#SVGID_00000066506158731218688610000014624857029136448187_);fill:#F7C503;stroke:#424242;stroke-width:0.75;stroke-miterlimit:10;" d="
		M82.9,202.4l-3.6-1.2L74,214.3l-5.4-13.1l-3.6,1.2l7.1,16.7l-4.8,10.7l-10.1-4.2l-6,14.9l13.7,5.4l8.9-21.4l8.9,21.4l13.7-5.4
		l-6.5-14.9l-9.5,4.2l-4.8-10.7L82.9,202.4z"/>
	
		<path id="path4165-1-1" style="clip-path:url(#SVGID_00000066506158731218688610000014624857029136448187_);fill:#107BC0;stroke:#424242;stroke-width:0.75;stroke-miterlimit:10;" d="
		M92.4,238l-1.2-2.7l-2.7,1.2l1.2,2.7L92.4,238z"/>
	
		<path id="path4165-1-8-8" style="clip-path:url(#SVGID_00000066506158731218688610000014624857029136448187_);fill:#107BC0;stroke:#424242;stroke-width:0.75;stroke-miterlimit:10;" d="
		M88.5,236.4l-1.2-2.7l-2.7,1.2l1.2,2.7L88.5,236.4z"/>
	
		<path id="path3849-4-9" style="clip-path:url(#SVGID_00000066506158731218688610000014624857029136448187_);fill:#107BC0;stroke:#424242;stroke-width:0.75;stroke-miterlimit:10;" d="
		M61.8,189.1c1.3,0.8,3.6,1.7,5.3,1c1.5-0.8,2.2-2.6,1.5-4.1c-0.4-1.3-1.6-2.2-2.9-2.4c-1.5-0.3-2.9-0.1-4.3,0.5
		c0.5-3.4-0.3-8.5-4.3-6.6c-4.2,1.7-1.2,5.7,1.6,7.7c-1.4,0.6-2.5,1.5-3.4,2.7c-0.9,1.7-1,2.3-0.4,3.7c0.6,1.6,2.4,2.4,4,1.8
		C61.1,192.6,61.5,190.6,61.8,189.1L61.8,189.1z"/>
	
		<path id="path4165-1-5-9" style="clip-path:url(#SVGID_00000066506158731218688610000014624857029136448187_);fill:#107BC0;stroke:#424242;stroke-width:0.75;stroke-miterlimit:10;" d="
		M86.9,240.3l-1.2-2.7l-2.7,1.2l1.2,2.7L86.9,240.3z"/>
	
		<path id="path3849-4-9-4" style="clip-path:url(#SVGID_00000066506158731218688610000014624857029136448187_);fill:#107BC0;stroke:#424242;stroke-width:0.75;stroke-miterlimit:10;" d="
		M86.1,189c0.4,1.4,1.4,3.8,3,4.4c1.6,0.5,3.4-0.3,4-1.9c0.6-1.2,0.4-2.7-0.4-3.8c-0.9-1.2-2-2.1-3.4-2.6c2.8-2.1,5.7-6.3,1.5-7.7
		c-4.2-1.7-4.8,3.2-4.3,6.6c-1.4-0.5-2.9-0.7-4.3-0.4c-1.8,0.6-2.3,1-2.9,2.4c-0.6,1.6,0,3.4,1.6,4.1C83.1,191,84.9,189.8,86.1,189
		L86.1,189z"/>
	
		<path id="path4165-1-7-2" style="clip-path:url(#SVGID_00000066506158731218688610000014624857029136448187_);fill:#107BC0;stroke:#424242;stroke-width:0.75;stroke-miterlimit:10;" d="
		M90,232.5l-1.2-2.7l-2.7,1.2l1.2,2.7L90,232.5z"/>
	
		<path id="path4165-1-6-7" style="clip-path:url(#SVGID_00000066506158731218688610000014624857029136448187_);fill:#107BC0;stroke:#424242;stroke-width:0.75;stroke-miterlimit:10;" d="
		M84.6,234.8l-1.2-2.7l-2.7,1.2l1.2,2.8L84.6,234.8z"/>
	
		<path id="path4165-1-9" style="clip-path:url(#SVGID_00000066506158731218688610000014624857029136448187_);fill:#107BC0;stroke:#424242;stroke-width:0.75;stroke-miterlimit:10;" d="
		M63.8,241.4l1.1-2.8l-2.8-1.1l-1.1,2.8L63.8,241.4z"/>
	
		<path id="path4165-1-8-5" style="clip-path:url(#SVGID_00000066506158731218688610000014624857029136448187_);fill:#107BC0;stroke:#424242;stroke-width:0.75;stroke-miterlimit:10;" d="
		M62.1,237.5l1.1-2.8l-2.8-1.1l-1.1,2.8L62.1,237.5z"/>
	
		<path id="path4165-1-5-4" style="clip-path:url(#SVGID_00000066506158731218688610000014624857029136448187_);fill:#107BC0;stroke:#424242;stroke-width:0.75;stroke-miterlimit:10;" d="
		M58.3,239.2l1.1-2.8l-2.8-1.1l-1.1,2.8L58.3,239.2z"/>
	
		<path id="path4165-1-7-3" style="clip-path:url(#SVGID_00000066506158731218688610000014624857029136448187_);fill:#107BC0;stroke:#424242;stroke-width:0.75;stroke-miterlimit:10;" d="
		M66,235.8l1.1-2.8l-2.8-1.1l-1.1,2.8L66,235.8z"/>
	
		<path id="path4165-1-6-1" style="clip-path:url(#SVGID_00000066506158731218688610000014624857029136448187_);fill:#107BC0;stroke:#424242;stroke-width:0.75;stroke-miterlimit:10;" d="
		M60.5,233.7l1.1-2.8l-2.8-1.1l-1.1,2.8L60.5,233.7z"/>
	
		<path id="path3787-1" style="clip-path:url(#SVGID_00000066506158731218688610000014624857029136448187_);fill:#F7C503;stroke:#424242;stroke-width:0.75;stroke-miterlimit:10;" d="
		M113.2,172c-1,0.8-2.3,0.7-3.5,0.9"/>
	
		<path id="path4960" style="clip-path:url(#SVGID_00000066506158731218688610000014624857029136448187_);fill:none;stroke:#424242;stroke-width:0.75;stroke-miterlimit:10;" d="
		M100,266.6c-1.3,0-2.4,0-3.5,0"/>
	
		<path id="path4960-9" style="clip-path:url(#SVGID_00000066506158731218688610000014624857029136448187_);fill:none;stroke:#424242;stroke-width:0.75;stroke-miterlimit:10;" d="
		M99.8,265.6h-3.5"/>
	
		<path id="path4980" style="clip-path:url(#SVGID_00000066506158731218688610000014624857029136448187_);fill:#FFFFFF;stroke:#FFFFFF;stroke-width:0.84;" d="
		M98.9,266.4l0.1-0.8h-1.8v0.9L98.9,266.4z"/>
	
		<path id="path4982" style="clip-path:url(#SVGID_00000066506158731218688610000014624857029136448187_);fill:none;stroke:#424242;stroke-width:0.75;stroke-miterlimit:10;" d="
		M99.8,145.1c-0.6-0.8-1.1-1.5-1.6-2.2c-0.6,1-1.3,1.9-2.1,2.8"/>
	
		<path id="path4982-6" style="clip-path:url(#SVGID_00000066506158731218688610000014624857029136448187_);fill:none;stroke:#424242;stroke-width:0.75;stroke-miterlimit:10;" d="
		M99.7,144c-0.5-0.8-1.1-1.5-1.6-2.2c-0.7,0.8-1.2,1.8-2.1,2.8"/>
	
		<path id="path4982-9" style="clip-path:url(#SVGID_00000066506158731218688610000014624857029136448187_);fill:none;stroke:#424242;stroke-width:0.75;stroke-miterlimit:10;" d="
		M99.7,144.4c-0.5-0.8-1.1-1.5-1.6-2.2c-0.6,0.8-1.1,1.8-2.1,2.8"/>
	
		<path id="path3138" style="clip-path:url(#SVGID_00000066506158731218688610000014624857029136448187_);fill:none;stroke:#424242;stroke-width:0.75;stroke-miterlimit:10;" d="
		M148.1,254.1c-16.4,7-33.3,11-50.2,11.2c-17.9-0.3-34.3-4.8-49.8-10.9l0.1-23c4.5-1.8,7.8-7.7,7.9-14.6c-0.5-6.8-3.4-12.5-8-14.5
		c0.1-6.5-0.4-14.2,0.8-21.3c0.9-6.6,4.6-12.5,10.2-16.1c8.1-5.5,19.8-8.6,27.2-12.4c5.2-2.3,9.3-5.3,11.8-9
		c2.3,3.7,6.4,6.6,11.6,8.8c9.1,4.5,17.7,6.2,26.3,11.9c3.8,2.3,8.1,6.4,10,11.5c2.8,7.4,2.2,17,2.1,26.6c-4.6,2.2-7.1,6.3-7.9,13.9
		c0.2,5,1,11.2,7.9,15.1L148.1,254.1z"/>
	
		<path id="path3785" style="clip-path:url(#SVGID_00000066506158731218688610000014624857029136448187_);fill:#F7C503;fill-opacity:0;stroke:#424242;stroke-width:0.75;stroke-miterlimit:10;" d="
		M117.8,195.6c-2.1,1.2-2.1,6.4-0.2,8"/>
	
		<path id="path3801-1-4" style="clip-path:url(#SVGID_00000066506158731218688610000014624857029136448187_);fill:#FFFFFF;stroke:#424242;stroke-width:0.75;stroke-miterlimit:10;" d="
		M112.3,248c-0.2-0.9-0.6-1.7-1.2-2.4c-0.7-1-1.7-1.8-2.9-2.3c-0.5-0.1,0,1,0.4,2c0.9,2.5,2.3,1.3,3,1.3
		C111.9,246.6,112.2,247.3,112.3,248z"/>
	
		<path id="path3066-0" style="clip-path:url(#SVGID_00000066506158731218688610000014624857029136448187_);fill:#010101;stroke:#424242;stroke-width:0.75;stroke-miterlimit:10;" d="
		M109.6,246.5c0.3,0.1,0.4-0.1,0.6-0.4s0.3-0.6,0-0.7s-0.4,0.1-0.6,0.4S109.3,246.3,109.6,246.5z"/>
	<path style="clip-path:url(#SVGID_00000066506158731218688610000014624857029136448187_);fill:#FFFFFF;" d="M80,99.6
		c-12.6,0-22.9,10.2-22.9,30.5c0,25.4,18.2,50.9,40.7,50.9s40.7-25.4,40.7-50.9c0-20.3-10.2-30.5-22.9-30.5
		c-6.9,0-13.5,3.1-17.8,8.5C93.5,102.8,86.9,99.6,80,99.6z"/>
	<path style="clip-path:url(#SVGID_00000066506158731218688610000014624857029136448187_);fill:#FFFFFF;" d="M30.4,112.8h134.7
		c3,0,5.5,2.4,5.5,5.5v44c0,3-2.4,5.5-5.5,5.5H30.4c-3,0-5.5-2.4-5.5-5.5v-44C25,115.3,27.4,112.8,30.4,112.8z"/>
	<g style="clip-path:url(#SVGID_00000066506158731218688610000014624857029136448187_);enable-background:new    ;">
		<text transform="matrix(1 0 0 1 55.13 137.5699)" class="st34 st35 st36">Koszalin</text>
	</g>
	<g style="clip-path:url(#SVGID_00000066506158731218688610000014624857029136448187_);enable-background:new    ;">
		<text transform="matrix(1 0 0 1 77.02 162.39)" class="st34 st35 st36">Lida</text>
	</g>
	<path style="clip-path:url(#SVGID_00000066506158731218688610000014624857029136448187_);fill:#DF221B;" d="M44.8,0h-29h-16v16
		c0,7,0,14,0,21c10.3,12.4,28.6,14.1,41,3.8c6.7-5.6,10.6-13.8,10.5-22.5C51.3,11.6,49,5.2,44.8,0z"/>
	<text transform="matrix(1 0 0 1 15.45 31.75)" class="st7 st35 st38">3</text>
	<text transform="matrix(1 0 0 1 25.86 31.75)" class="st7 st35 st38">7</text>
</g>
</svg>
