<svg id="Слой_1" data-name="Слой 1" xmlns="http://www.w3.org/2000/svg" xmlns:xlink="http://www.w3.org/1999/xlink" viewBox="0 0 195.59 280.63"><defs><style>.cls-1{fill:none;}.cls-2{fill:#fbb91c;}.cls-3{clip-path:url(#clip-path);}.cls-17,.cls-4{fill:#056b45;}.cls-5{fill:#eb5a53;}.cls-6{fill:#1a1a1a;}.cls-18,.cls-7{fill:#fff;}.cls-8{fill:#af1739;}.cls-9{fill:#eb5775;}.cls-10{fill:#badbe9;}.cls-11{fill:#8bb0cc;}.cls-12{fill:#f293a2;}.cls-13{fill:#595959;}.cls-14{fill:#797979;}.cls-15{fill:#3e3e3e;}.cls-16{fill:#e94539;}.cls-17{font-size:63.44px;}.cls-17,.cls-18{font-family:Impact;}.cls-18{font-size:20px;}.cls-19{letter-spacing:-0.02em;}</style><clipPath id="clip-path"><rect class="cls-1" x="-5.84" y="-6.91" width="213.74" height="298.44"/></clipPath></defs><rect class="cls-2" x="-9.08" y="-6.91" width="213.74" height="305.91"/><g class="cls-3"><path class="cls-4" d="M8.77,211.21c3.56,0,6.53-1.94,8.82-5.78a32.33,32.33,0,0,0,3.21-8c.45-1.58.85-3.29,1.19-5.05a66.28,66.28,0,0,0,13.41,0c.35,1.76.75,3.47,1.19,5.05a32.33,32.33,0,0,0,3.21,8c2.3,3.84,5.27,5.78,8.83,5.78s6.53-1.94,8.82-5.78a32.33,32.33,0,0,0,3.21-8,73,73,0,0,0,2.41-14.34,66.1,66.1,0,0,0,26.28-30A10.7,10.7,0,0,0,95,154.9a8.82,8.82,0,0,0,3.42-.69c.16-.06.32-.14.47-.21a8.75,8.75,0,0,0,1.44.12,10.69,10.69,0,0,0,5.69-1.78,66.53,66.53,0,0,0,26.49,30.22A73.17,73.17,0,0,0,134.91,197a32.67,32.67,0,0,0,3.23,8c2.3,3.85,5.28,5.8,8.86,5.8s6.56-2,8.86-5.8a33.14,33.14,0,0,0,3.23-8c.45-1.6.85-3.33,1.2-5.12a64,64,0,0,0,13.56,0c.35,1.79.75,3.51,1.2,5.11a33.06,33.06,0,0,0,3.23,8c2.31,3.85,5.29,5.8,8.86,5.8s6.56-2,8.87-5.8a33.06,33.06,0,0,0,3.23-8,73.91,73.91,0,0,0,2.42-14.45,66.74,66.74,0,0,0,25.87-28.86,10.35,10.35,0,0,0,6,2.08,8.91,8.91,0,0,0,2.6-.39c3.42-1,5.71-3.77,6.8-8.12a32.85,32.85,0,0,0,.77-8.61,73.4,73.4,0,0,0-3-18.66c-1.87-6.19-4.63-10.39-8.43-12.85a13.43,13.43,0,0,0-1.33-.76,66.89,66.89,0,0,0-30.17-38.34,24.34,24.34,0,0,0-6.39-19.94c-4.82-4.86-11.84-7.65-20.89-8.32-3.64-.27-7-.39-10.32-.51-2.29-.09-4.45-.16-6.63-.29a85.86,85.86,0,0,1-15.88-2.19L127,33.47l2.68,7.23c-3.88-.87-6.86-1.81-7.24-1.93l-11.49-4,1.6,12.12a48.47,48.47,0,0,0,12.53,27,66.7,66.7,0,0,0-22.16,33.65,21.91,21.91,0,0,0-5.5,6.92,20.73,20.73,0,0,0-4.9-5.85,66.24,66.24,0,0,0-22-33.41A48.12,48.12,0,0,0,82.91,48.38L84.5,36.29l-11.45,4c-.37.12-3.3,1-7.13,1.9L68.59,35,54.9,38.35a85.84,85.84,0,0,1-15.81,2.18c-2.16.12-4.29.2-6.55.28-3.26.12-6.63.24-10.24.51-9,.66-16,3.44-20.76,8.27A23.31,23.31,0,0,0-5,66.2a24.19,24.19,0,0,0,.21,3.19,66.49,66.49,0,0,0-29.94,38.07,14.31,14.31,0,0,0-1.32.74c-3.78,2.45-6.52,6.63-8.38,12.78a72.84,72.84,0,0,0-2.94,18.54,32.49,32.49,0,0,0,.77,8.56c1.08,4.33,3.36,7,6.77,8.08a8.84,8.84,0,0,0,2.59.39h0a10.32,10.32,0,0,0,5.93-2.05A66.3,66.3,0,0,0-5.67,183.13a72.31,72.31,0,0,0,2.4,14.34,33,33,0,0,0,3.21,8C2.24,209.27,5.21,211.21,8.77,211.21Z"/><path class="cls-5" d="M179.2,178.29c0-10.66,4.7-12.79,7.94-12.79s7.94,2.13,7.94,12.79-3.55,25.82-7.94,25.82S179.2,189,179.2,178.29Zm0,0"/><path class="cls-6" d="M187.14,163.29a9,9,0,0,0-6.87,3.18c-2,2.4-3.28,6.17-3.28,11.82a68.39,68.39,0,0,0,2.41,17.5,28.76,28.76,0,0,0,2.75,6.92c1.12,1.87,2.62,3.61,5,3.61s3.88-1.74,5-3.61a29.17,29.17,0,0,0,2.75-6.92,68.39,68.39,0,0,0,2.41-17.5c0-5.65-1.24-9.42-3.28-11.82a9,9,0,0,0-6.88-3.18Zm0,4.43a4.28,4.28,0,0,1,3.5,1.61c1.12,1.33,2.23,4,2.23,9a65.06,65.06,0,0,1-2.25,16.31,25.36,25.36,0,0,1-2.29,5.83,4.6,4.6,0,0,1-1.19,1.42,4.93,4.93,0,0,1-1.19-1.42,25.83,25.83,0,0,1-2.29-5.83,65.52,65.52,0,0,1-2.24-16.31c0-5,1.11-7.63,2.23-9a4.27,4.27,0,0,1,3.49-1.61Zm0,0"/><path class="cls-5" d="M139.06,178.29c0-10.66,4.69-12.79,7.94-12.79s7.94,2.13,7.94,12.79-3.56,25.82-7.94,25.82-7.94-15.16-7.94-25.82Zm0,0"/><path class="cls-6" d="M147,163.29a9,9,0,0,0-6.88,3.18c-2,2.4-3.28,6.17-3.28,11.82a68.84,68.84,0,0,0,2.41,17.5,28.75,28.75,0,0,0,2.76,6.92c1.12,1.87,2.62,3.61,5,3.61s3.87-1.74,5-3.61a28.75,28.75,0,0,0,2.76-6.92,68.84,68.84,0,0,0,2.41-17.5c0-5.65-1.25-9.42-3.28-11.82a9,9,0,0,0-6.88-3.18Zm0,4.43a4.3,4.3,0,0,1,3.5,1.61c1.12,1.33,2.22,4,2.22,9a65.52,65.52,0,0,1-2.24,16.31,25.36,25.36,0,0,1-2.29,5.83,4.76,4.76,0,0,1-1.19,1.42,4.76,4.76,0,0,1-1.19-1.42,25.36,25.36,0,0,1-2.29-5.83,65.52,65.52,0,0,1-2.24-16.31c0-5,1.1-7.63,2.22-9a4.28,4.28,0,0,1,3.5-1.61Zm0,0"/><path class="cls-5" d="M102,120.33c4.08-9.85,9.23-10,12.23-8.78s6.52,5,2.44,14.85-13.16,22.49-17.21,20.81-1.54-17,2.54-26.88Zm0,0"/><path class="cls-6" d="M115.08,109.5a9,9,0,0,0-7.57.31c-2.8,1.44-5.39,4.44-7.56,9.67a68.79,68.79,0,0,0-4.47,17.09,28.77,28.77,0,0,0-.1,7.44c.32,2.16,1,4.34,3.23,5.25s4.25-.13,6-1.43a28.73,28.73,0,0,0,5.19-5.33,68.76,68.76,0,0,0,8.92-15.25c2.16-5.22,2.46-9.18,1.5-12.18a9,9,0,0,0-5.14-5.57Zm-1.7,4.1a4.24,4.24,0,0,1,2.62,2.82c.53,1.66.54,4.51-1.37,9.14a65.66,65.66,0,0,1-8.32,14.2,24.94,24.94,0,0,1-4.35,4.51,4.21,4.21,0,0,1-1.64.85,4.62,4.62,0,0,1-.55-1.76,25.23,25.23,0,0,1,.11-6.26,65.19,65.19,0,0,1,4.17-15.93c1.91-4.62,3.94-6.63,5.49-7.42a4.22,4.22,0,0,1,3.84-.15Zm0,0"/><path class="cls-6" d="M167.07,63.37a62.19,62.19,0,1,0,62.19,62.19,62.24,62.24,0,0,0-62.19-62.19Zm0,7.1A55.09,55.09,0,1,1,112,125.56a55,55,0,0,1,55.09-55.09Zm0,0"/><path class="cls-5" d="M224.82,124.16c0,2.43-.28,30.78-16.84,38.76-11.76,5.67-18.31-5.4-42.08-5.07-22.36.31-28.19,10.27-39.25,5.07-16.55-7.79-16.85-36.38-16.85-38.76,0-3.34.38-29.87,16.85-38.75,9.71-5.24,14.75,1.21,38.75,1.47,26.25.28,32-7.33,42.58-1.47C224.44,94.51,224.82,120.82,224.82,124.16Zm0,0"/><path class="cls-7" d="M167.7,68a59.25,59.25,0,0,0-55.81,39.57H223.52A59.27,59.27,0,0,0,167.7,68Zm0,0"/><path class="cls-7" d="M164.61,69.35a54.85,54.85,0,0,0-52.22,38.22H216.78a54.83,54.83,0,0,0-52.17-38.22Zm0,0"/><path class="cls-7" d="M111.42,145.91a69.09,69.09,0,0,0,27,28.3,59.89,59.89,0,0,0,29.31,8.41,55.88,55.88,0,0,0,16.45-2.28,57.08,57.08,0,0,0,27-18.11,61.92,61.92,0,0,0,10.05-16.32Zm0,0"/><path class="cls-7" d="M114.37,146m0,0a56.87,56.87,0,0,0,103.46,0Z"/><path class="cls-6" d="M167.07,66a59.53,59.53,0,1,0,59.53,59.53A59.54,59.54,0,0,0,167.07,66Zm0,1.78a57.75,57.75,0,1,1-57.75,57.75,57.73,57.73,0,0,1,57.75-57.75Zm0,0"/><path class="cls-6" d="M185.91,104.31a9.12,9.12,0,0,1,9.14,9.14V118a9.14,9.14,0,1,1-18.27,0v-4.57a9.12,9.12,0,0,1,9.13-9.14Zm0,0"/><path class="cls-7" d="M180.6,110.86a2.95,2.95,0,1,1,5,2.08,2.93,2.93,0,0,1-4.17,0,2.94,2.94,0,0,1-.86-2.08Zm0,0"/><path class="cls-6" d="M148.23,104.31a9.12,9.12,0,0,1,9.13,9.14V118a9.13,9.13,0,1,1-18.26,0v-4.57a9.12,9.12,0,0,1,9.13-9.14Zm0,0"/><path class="cls-7" d="M142.91,110.86a2.95,2.95,0,1,1,3,3,3,3,0,0,1-3-3Zm0,0"/><path class="cls-8" d="M157.35,129.85a2,2,0,0,0-2,2v2.29a11.75,11.75,0,1,0,23.5,0v-2.29a2,2,0,0,0-2-2Zm19.45,0"/><path class="cls-9" d="M167.07,137.87a11.7,11.7,0,0,0-8.85,4,11.76,11.76,0,0,0,17.71,0,11.74,11.74,0,0,0-8.86-4Zm0,0"/><path class="cls-7" d="M157.35,129.85a2,2,0,0,0-2,2v2.05a27.05,27.05,0,0,0,23.5,0v-2a2,2,0,0,0-2-2Zm19.45,0"/><path class="cls-10" d="M175.67,129.85V133c0,1.17-.15,1.92-.95,2.46a27,27,0,0,0,4.1-1.54v-2a2,2,0,0,0-2-2Zm1.13,0"/><path class="cls-10" d="M157.35,129.85a2,2,0,0,0-2,2v2.05a27.11,27.11,0,0,0,8.07,2.39c-1.36-.36-1.77-1.74-1.77-3.32v-3.15Zm4.27,0"/><path class="cls-11" d="M158.47,129.85V133c0,1.17.15,1.92,1,2.46a27.07,27.07,0,0,1-4.11-1.54v-2a2,2,0,0,1,2-2Zm-1.12,0"/><path class="cls-6" d="M157.35,129a2.94,2.94,0,0,0-2.92,2.92v2.29a12.64,12.64,0,0,0,25.28,0v-2.29A2.93,2.93,0,0,0,176.8,129Zm19.45,1.78a1.12,1.12,0,0,1,1.14,1.14v2.29a10.87,10.87,0,0,1-21.73,0v-2.29a1.11,1.11,0,0,1,1.14-1.14Zm0,0"/><path class="cls-6" d="M178.88,133.44a26.91,26.91,0,0,1-23.62,0l-.38.8a27.85,27.85,0,0,0,24.39,0l-.39-.8Zm0,0"/><path class="cls-12" d="M168.37,141a1.23,1.23,0,0,1,.57-1,2.45,2.45,0,0,1,1.39-.4c1.08,0,1.95.62,1.95,1.38s-.87,1.37-1.95,1.37a2.45,2.45,0,0,1-1.39-.4,1.23,1.23,0,0,1-.57-1Zm0,0"/><path class="cls-6" d="M155.7,43.46v5.95c5.71.37,11.21.44,17,.87,7.28.54,11.63,2.65,14.19,5.24a12.62,12.62,0,0,1,3.56,9.3c0,6.12-3.27,10.24-9,13s-13.79,3.76-22.11,2.49q-1.86-.28-3.72-.72v6.15c.94.19,1.87.36,2.81.5,9.32,1.44,18.49.47,25.65-3s12.34-10,12.34-18.41a18.92,18.92,0,0,0-5.3-13.53c-3.82-3.85-9.74-6.39-18-7-6.26-.46-11.84-.49-17.48-.83Zm0,0"/><path class="cls-6" d="M134.13,39.86l2,5.29.48,1.3A89,89,0,0,1,121,43.05l-4.61-1.62.63,4.84C120.1,70,139.22,83,157.6,86.11V80C142.88,77.18,128.37,67.57,124,50.19a60.17,60.17,0,0,0,17,2.63l4.3,0L143.56,48a114.88,114.88,0,0,0,14,1.5v-6a93.76,93.76,0,0,1-18-2.38Zm0,0"/><path class="cls-13" d="M138.91,44.11,141,49.82c-9.71,0-21.08-3.94-21.08-3.94,6,45.35,73.55,48.09,73.55,18.94,0-8.21-5-16.39-20.54-17.53-11.7-.87-21.45-.13-34.05-3.18Zm0,0"/><path class="cls-14" d="M138.91,44.11,141,49.82c-9.71,0-21.08-3.94-21.08-3.94,15.76,20.54,62.12,23.13,70.33,8.91-3-3.92-8.46-6.85-17.32-7.5-11.7-.87-21.45-.13-34.05-3.18Zm0,0"/><path class="cls-15" d="M120,45.88c6,45.35,73.55,48.09,73.55,18.94a18.47,18.47,0,0,0-.43-4c-10.81,26.09-65.2,14.6-73.12-14.95Zm0,0"/><path class="cls-6" d="M155.7,45.73v1.46c5.69.36,11.22.4,17.21.84,7.65.57,12.59,2.85,15.62,5.9a15,15,0,0,1,4.22,10.89c0,7-4,12-10.23,15s-14.75,4-23.44,2.68c-1.13-.17-2.26-.38-3.38-.63v1.54c1.05.22,2.1.42,3.15.58,8.94,1.37,17.71.4,24.32-2.82s11.08-8.81,11.08-16.39a16.61,16.61,0,0,0-4.65-11.95c-3.35-3.37-8.68-5.75-16.58-6.33-6.11-.45-11.65-.47-17.32-.81Zm0,0"/><path class="cls-6" d="M137.71,43l.49,1.33L139.91,49c-9.25-.23-19.71-3.81-19.71-3.81l-1.15-.4.16,1.21c3,22.5,20.88,34.72,38.39,37.84V82.29c-16.61-3-33.39-14.43-36.7-35.35,1.71.58,11.07,3.68,20.13,3.63h1.07l-2-5.48A100.68,100.68,0,0,0,157.6,47.3V45.83a95.86,95.86,0,0,1-18.52-2.45Zm0,0"/><path class="cls-16" d="M16.65,178.87c0,10.58-3.53,25.63-7.88,25.63S.88,189.45.88,178.87s4.66-12.7,7.89-12.7,7.88,2.12,7.88,12.7Zm0,0"/><path class="cls-6" d="M8.77,164a8.92,8.92,0,0,0-6.83,3.16c-2,2.39-3.26,6.12-3.26,11.74a68.4,68.4,0,0,0,2.39,17.38,28.66,28.66,0,0,0,2.74,6.86c1.11,1.86,2.6,3.59,5,3.59s3.84-1.73,5-3.59a28.66,28.66,0,0,0,2.74-6.86,68.4,68.4,0,0,0,2.39-17.38c0-5.62-1.23-9.35-3.25-11.74A8.94,8.94,0,0,0,8.77,164Zm0,4.4a4.26,4.26,0,0,1,3.47,1.6c1.11,1.32,2.21,3.93,2.21,8.9a65,65,0,0,1-2.23,16.19A25.68,25.68,0,0,1,10,200.85a4.69,4.69,0,0,1-1.18,1.41,4.53,4.53,0,0,1-1.18-1.41,25.17,25.17,0,0,1-2.28-5.79,65,65,0,0,1-2.23-16.19c0-5,1.1-7.58,2.22-8.9a4.25,4.25,0,0,1,3.47-1.6Zm0,0"/><path class="cls-16" d="M56.51,178.87c0,10.58-3.53,25.63-7.88,25.63s-7.89-15.05-7.89-25.63,4.66-12.7,7.89-12.7,7.88,2.12,7.88,12.7Zm0,0"/><path class="cls-6" d="M48.63,164a8.92,8.92,0,0,0-6.83,3.16c-2,2.39-3.26,6.12-3.26,11.74a68.4,68.4,0,0,0,2.39,17.38,28.66,28.66,0,0,0,2.74,6.86c1.11,1.86,2.6,3.59,5,3.59s3.84-1.73,4.95-3.59a28.66,28.66,0,0,0,2.74-6.86,68.4,68.4,0,0,0,2.39-17.38c0-5.62-1.23-9.35-3.25-11.74A8.94,8.94,0,0,0,48.63,164Zm0,4.4A4.26,4.26,0,0,1,52.1,170c1.11,1.32,2.21,3.93,2.21,8.9a65,65,0,0,1-2.23,16.19,25.68,25.68,0,0,1-2.27,5.79,4.85,4.85,0,0,1-1.18,1.41,4.53,4.53,0,0,1-1.18-1.41,25.17,25.17,0,0,1-2.28-5.79,65,65,0,0,1-2.23-16.19c0-5,1.1-7.58,2.21-8.9a4.28,4.28,0,0,1,3.48-1.6Zm0,0"/><path class="cls-4" d="M93.3,121.32c4,9.77,6.55,25,2.53,26.69s-13-10.88-17.09-20.66-.56-13.52,2.42-14.75,8.09-1.06,12.14,8.72Zm0,0"/><path class="cls-6" d="M80.32,110.57a8.92,8.92,0,0,0-5.1,5.53c-1,3-.66,6.9,1.48,12.09a68.33,68.33,0,0,0,8.86,15.14,28.72,28.72,0,0,0,5.16,5.3c1.73,1.29,3.77,2.31,6,1.41s2.89-3.07,3.21-5.21a28.83,28.83,0,0,0-.1-7.39,68.5,68.5,0,0,0-4.44-17c-2.15-5.18-4.72-8.17-7.5-9.6a9,9,0,0,0-7.52-.3ZM82,114.63a4.28,4.28,0,0,1,3.82.15c1.54.79,3.55,2.79,5.45,7.38A65.11,65.11,0,0,1,95.41,138a24.91,24.91,0,0,1,.11,6.22,4.42,4.42,0,0,1-.55,1.75,4.65,4.65,0,0,1-1.63-.85A25.64,25.64,0,0,1,89,140.61a65.1,65.1,0,0,1-8.25-14.1c-1.9-4.59-1.89-7.43-1.36-9.07A4.26,4.26,0,0,1,82,114.63Zm0,0"/><path class="cls-6" d="M28.7,64.77a61.74,61.74,0,1,0,61.74,61.74A61.8,61.8,0,0,0,28.7,64.77Zm0,7A54.7,54.7,0,1,1-26,126.51a54.65,54.65,0,0,1,54.7-54.7Zm0,0"/><path class="cls-4" d="M-11.92,86.64c10.5-5.81,16.21,1.74,42.28,1.46,23.83-.25,28.83-6.66,38.47-1.46,16.35,8.82,16.72,35.17,16.73,38.48,0,2.37-.29,30.75-16.73,38.48-11,5.17-16.77-4.72-39-5-23.6-.32-30.1,10.66-41.78,5-16.44-7.92-16.73-36.06-16.72-38.48C-28.64,121.81-28.26,95.69-11.92,86.64Zm-16.72,38.48"/><path class="cls-2" d="M28.07,69.36a58.85,58.85,0,0,0-55.42,39.29H83.49A58.85,58.85,0,0,0,28.07,69.36Zm0,0"/><path class="cls-2" d="M31.14,70.7a54.46,54.46,0,0,0-51.8,38H83A54.44,54.44,0,0,0,31.14,70.7Zm0,0"/><path class="cls-16" d="M-25.13,146.72a61.5,61.5,0,0,0,10,16.2,56.76,56.76,0,0,0,26.85,18A54.9,54.9,0,0,0,28,183.16a59.48,59.48,0,0,0,29.11-8.34A68.66,68.66,0,0,0,84,146.72Zm109.09,0"/><path class="cls-16" d="M81,146.82m-102.73,0a56.48,56.48,0,0,0,102.73,0Z"/><path class="cls-6" d="M28.7,67.41a59.1,59.1,0,1,0,59.1,59.1,59.12,59.12,0,0,0-59.1-59.1Zm0,1.76a57.34,57.34,0,1,1-57.34,57.34A57.32,57.32,0,0,1,28.7,69.17Zm0,0"/><path class="cls-6" d="M10,105.41a9.06,9.06,0,0,1,9.07,9.07V119A9.07,9.07,0,0,1,.92,119v-4.55A9,9,0,0,1,10,105.41Zm0,0"/><path class="cls-7" d="M15.27,111.92A2.93,2.93,0,1,1,12.34,109a2.94,2.94,0,0,1,2.93,2.93Zm0,0"/><path class="cls-6" d="M47.41,105.41a9,9,0,0,1,9.06,9.07V119a9.07,9.07,0,1,1-18.13,0v-4.55a9,9,0,0,1,9.07-9.07Zm0,0"/><path class="cls-7" d="M52.68,111.92A2.93,2.93,0,1,1,49.76,109a2.93,2.93,0,0,1,2.92,2.93Zm0,0"/><path class="cls-8" d="M19,130.77a2,2,0,0,0-2,2v2.27a11.67,11.67,0,0,0,23.34,0v-2.27a2,2,0,0,0-2-2Zm0,0"/><path class="cls-9" d="M28.7,138.73a11.62,11.62,0,0,0-8.79,4,11.66,11.66,0,0,0,17.58,0,11.65,11.65,0,0,0-8.79-4Zm0,0"/><path class="cls-7" d="M19,130.77a2,2,0,0,0-2,2v2a26.88,26.88,0,0,0,23.34,0v-2a2,2,0,0,0-2-2Zm0,0"/><path class="cls-10" d="M19,130.77a2,2,0,0,0-2,2v2a28.13,28.13,0,0,0,4.07,1.54c-.79-.54-.94-1.29-.94-2.45v-3.13Zm0,0"/><path class="cls-10" d="M34.11,130.77v3.13c0,1.57-.41,2.93-1.76,3.3a27.46,27.46,0,0,0,8-2.38v-2a2,2,0,0,0-2-2Zm0,0"/><path class="cls-11" d="M38.35,130.77a2,2,0,0,1,2,2v2a28.25,28.25,0,0,1-4.08,1.54c.79-.54,1-1.29,1-2.45v-3.13Zm0,0"/><path class="cls-6" d="M19,129.89a2.91,2.91,0,0,0-2.89,2.9v2.27a12.55,12.55,0,0,0,25.1,0v-2.27a2.92,2.92,0,0,0-2.9-2.9Zm0,1.76H38.35a1.11,1.11,0,0,1,1.14,1.14v2.27a10.79,10.79,0,0,1-21.58,0v-2.27A1.11,1.11,0,0,1,19,131.65Zm0,0"/><path class="cls-6" d="M17,134.34l-.38.79a27.61,27.61,0,0,0,24.22,0l-.39-.79a26.74,26.74,0,0,1-23.45,0Zm0,0"/><path class="cls-12" d="M27.41,141.88a1.2,1.2,0,0,1-.57,1,2.41,2.41,0,0,1-1.38.4c-1.07,0-1.94-.61-1.94-1.36s.87-1.37,1.94-1.37a2.49,2.49,0,0,1,1.38.4,1.23,1.23,0,0,1,.57,1Zm0,0"/><path class="cls-6" d="M40,45c-5.6.34-11.15.36-17.36.82-8.22.6-14.1,3.13-17.89,7A18.78,18.78,0,0,0-.52,66.2c0,8.39,5.14,14.82,12.25,18.29s16.21,4.42,25.47,3Q38.6,87.27,40,87v-6.1c-1.23.28-2.46.52-3.7.71C28,82.86,20,81.88,14.34,79.12s-8.9-6.84-8.9-12.92A12.56,12.56,0,0,1,9,57c2.54-2.57,6.86-4.67,14.09-5.2,5.78-.43,11.25-.5,16.92-.87V45Zm0,0"/><path class="cls-6" d="M56,42.74A92.29,92.29,0,0,1,38.1,45.1V51A117.37,117.37,0,0,0,52,49.52l-1.76,4.75,4.26,0a59.8,59.8,0,0,0,16.93-2.61c-4.34,17.25-18.75,26.8-33.37,29.6v6.06c18.25-3.12,37.24-16,40.34-39.55L79.07,43l-4.58,1.61A88.11,88.11,0,0,1,59,48l.48-1.29,1.95-5.25Zm5.45-1.32"/><path class="cls-13" d="M56.66,45.64c-12.51,3-22.2,2.3-33.81,3.15C7.4,49.93,2.46,58.05,2.46,66.2c0,28.94,67.09,26.22,73-18.8,0,0-11.29,4-20.92,3.91l2.1-5.67Zm0,0"/><path class="cls-14" d="M56.66,45.64c-12.51,3-22.2,2.3-33.81,3.15-8.8.65-14.18,3.56-17.2,7.45,8.16,14.12,54.18,11.55,69.83-8.84,0,0-11.29,4-20.92,3.91l2.1-5.67Zm0,0"/><path class="cls-15" d="M75.48,47.4C67.62,76.74,13.61,88.15,2.88,62.24a18.19,18.19,0,0,0-.42,4c0,28.94,67.09,26.22,73-18.8Zm0,0"/><path class="cls-6" d="M40,47.25c-5.63.33-11.14.35-17.2.8C15,48.63,9.65,51,6.33,54.34A16.47,16.47,0,0,0,1.71,66.2c0,7.53,4.43,13.08,11,16.28S28,86.64,36.86,85.27c1-.16,2.09-.35,3.13-.57V83.17q-1.68.38-3.36.63c-8.63,1.33-17.07.36-23.27-2.67S3.21,73.15,3.21,66.2A14.91,14.91,0,0,1,7.39,55.39c3-3,7.91-5.29,15.51-5.85,6-.44,11.44-.48,17.09-.84V47.25Zm0,0"/><path class="cls-6" d="M56.49,44.91A95.24,95.24,0,0,1,38.1,47.35v1.46a99.89,99.89,0,0,0,17.4-2.2l-2,5.44h1.06c9,0,18.29-3,20-3.61-3.29,20.78-20,32.08-36.44,35.1v1.52C55.48,82,73.28,69.84,76.22,47.5l.16-1.2-1.15.4s-10.38,3.54-19.57,3.78l1.7-4.58.49-1.32Zm1.36-.33"/></g><text class="cls-17" transform="translate(33.54 269.37)">litwa</text><path class="cls-4" d="M150.86.1l29,0c5.32,0,10.64,0,16,0l0,16c0,7,0,14,0,21A29.09,29.09,0,0,1,150.86.1Z"/><text class="cls-18" transform="translate(159.92 31.85)"><tspan class="cls-19">2</tspan><tspan x="9.64" y="0">4</tspan></text></svg>