<?xml version="1.0" encoding="utf-8"?>
<!-- Generator: Adobe Illustrator 26.0.1, SVG Export Plug-In . SVG Version: 6.00 Build 0)  -->
<svg version="1.1" id="Слой_1" xmlns="http://www.w3.org/2000/svg" xmlns:xlink="http://www.w3.org/1999/xlink" x="0px" y="0px"
	 viewBox="0 0 195.6 280.6" style="enable-background:new 0 0 195.6 280.6;" xml:space="preserve">
<style type="text/css">
	.st0{clip-path:url(#SVGID_00000143612276771300175210000004637528700391030412_);fill:#E94539;}
	.st1{clip-path:url(#SVGID_00000162322758539330762230000008287806648799590811_);}
	.st2{fill-rule:evenodd;clip-rule:evenodd;fill:#A91916;}
	.st3{fill-rule:evenodd;clip-rule:evenodd;fill:#FFFFFF;}
	.st4{fill-rule:evenodd;clip-rule:evenodd;fill:#E0232D;}
	
		.st5{fill-rule:evenodd;clip-rule:evenodd;fill:url(#path23_00000150821041236504251060000003570456319697835938_);stroke:#424242;stroke-width:0.75;}
	.st6{fill-rule:evenodd;clip-rule:evenodd;fill:#F1E743;stroke:#424242;stroke-width:0.75;}
	.st7{fill:none;stroke:#424242;stroke-width:0.75;}
	.st8{fill:#F1E743;stroke:#424242;stroke-width:1.89;}
	.st9{fill-rule:evenodd;clip-rule:evenodd;fill:#F2F2F2;stroke:#424242;stroke-width:0.21;}
	.st10{fill:none;stroke:#424242;stroke-width:1.89;}
	.st11{clip-path:url(#SVGID_00000121259267130554215170000008741279936941835693_);}
	.st12{fill-rule:evenodd;clip-rule:evenodd;fill:#097CC1;}
	.st13{fill:#424242;}
	.st14{fill:#FFFFFF;}
	.st15{fill:#E0232D;}
	.st16{fill:#FAD000;}
	.st17{fill:#097CC1;}
	.st18{fill:#FFD405;}
	.st19{clip-path:url(#SVGID_00000087401319446725973280000000881064378354459547_);fill:#FFFFFF;}
	.st20{clip-path:url(#SVGID_00000164498648294343468240000005503780037958880911_);fill:#FFFFFF;}
	.st21{clip-path:url(#SVGID_00000129166827672886201980000001196304905990447289_);fill:#FFFFFF;}
	.st22{enable-background:new    ;}
</style>
<g>
	<g>
		<defs>
			<rect id="SVGID_1_" width="195.6" height="280.6"/>
		</defs>
		<clipPath id="SVGID_00000129200585553130174390000017166639901802640773_">
			<use xlink:href="#SVGID_1_"  style="overflow:visible;"/>
		</clipPath>
		
			<rect x="-8.9" y="-8.4" style="clip-path:url(#SVGID_00000129200585553130174390000017166639901802640773_);fill:#E94539;" width="214" height="297.9"/>
	</g>
	<g>
		<defs>
			<rect id="SVGID_00000178202672420498325720000005870458152868890256_" width="195.6" height="280.6"/>
		</defs>
		<clipPath id="SVGID_00000181782062116224942690000010251736958937402524_">
			<use xlink:href="#SVGID_00000178202672420498325720000005870458152868890256_"  style="overflow:visible;"/>
		</clipPath>
		<g id="layer1" style="clip-path:url(#SVGID_00000181782062116224942690000010251736958937402524_);">
			<path id="path3040" class="st2" d="M72.2,203.4c-1.1,0-2-0.9-2-2v-2.1c0-1.1,0.9-2,2-2.1h2.1v6.2L72.2,203.4z M72.2,195.2
				c-2.3,0-4.1,1.8-4.1,4.1l0,0v2.1c0,2.3,1.8,4.1,4.1,4.1l0,0h4.1v-10.3L72.2,195.2z M80.4,205.5h-2v-10.3h2V205.5z M84.5,205.5h-2
				v-10.3h2l4.1,6.4v-6.4h2.1v10.3h-2.1l-4.1-6.5V205.5z M115.3,205.5h-6.2v-2.1h4.1v-2h-4.1v-2.1h4.1v-2.1h-4.1v-2h6.2V205.5
				L115.3,205.5z M123.5,205.5h-2v-8.2h-4.1v-2h6.2L123.5,205.5z M101.9,197.3h-2c-1.7,0-3.1,1.4-3.1,3.1s1.4,3.1,3.1,3.1h2v-2h-2
				c-0.6,0-1-0.5-1-1c0-0.6,0.5-1,1-1h2V197.3L101.9,197.3z M99.9,207.5c-4,0-7.2-3.2-7.2-7.2s3.2-7.2,7.2-7.2s7.2,3.2,7.2,7.2
				S103.9,207.5,99.9,207.5L99.9,207.5L99.9,207.5z M99.9,205.5c-2.8,0-5.1-2.3-5.1-5.1s2.3-5.1,5.1-5.1s5.1,2.3,5.1,5.1l0,0
				C105.1,203.2,102.8,205.5,99.9,205.5L99.9,205.5L99.9,205.5z"/>
			<path id="path19" class="st3" d="M99.9,269.9c-20.2,0-38.5-3.5-51.7-9.1c-2.2-0.9-4.2-1.9-6.1-3v-28.4c8-6.1,9.4-17.6,3.3-25.5
				c-1-1.2-2.1-2.4-3.3-3.3c0-11.8-1.2-24.2,5.1-34.9s18.5-16,29.4-20.7c8.3-3.6,17.2-7,23.3-14.1c6.1,7.1,15,10.5,23.3,14.1
				c11,4.7,23.1,10,29.4,20.7s5.1,23.1,5.1,34.9c-8,6.1-9.5,17.5-3.3,25.5c1,1.3,2.1,2.4,3.3,3.3v28.4c-1.9,1-3.9,2-6.1,3
				C138.4,266.4,120.1,269.9,99.9,269.9L99.9,269.9z"/>
			<path id="path21" class="st4" d="M99.9,269c18.7,0,40.1-2.7,57-11.8v-27.5c-8.2-6.6-9.5-18.7-2.8-26.9c0.8-1,1.8-2,2.8-2.8
				c0-11.4,1.1-23.6-5-33.9c-6.3-10.6-18.3-15.7-29-20.4c-8.2-3.5-16.8-6.9-22.9-13.6c-6.2,6.7-14.8,10.1-22.9,13.6
				c-10.8,4.6-22.8,9.8-29,20.4c-6.1,10.3-5,22.5-5,33.9c8.2,6.6,9.5,18.7,2.8,26.9c-0.8,1-1.8,2-2.8,2.8v27.5
				c16.9,9.1,38.2,11.8,57,11.8H99.9z"/>
			
				<linearGradient id="path23_00000055667120160996985140000016795408267523451020_" gradientUnits="userSpaceOnUse" x1="-1419.3112" y1="-856.2911" x2="-1419.3112" y2="-814.4512" gradientTransform="matrix(-1 0 0 -1 -1329.51 -632.2012)">
				<stop  offset="0" style="stop-color:#F1E743"/>
				<stop  offset="0.5" style="stop-color:#FBBA10"/>
				<stop  offset="1" style="stop-color:#F1E743"/>
			</linearGradient>
			
				<path id="path23" style="fill-rule:evenodd;clip-rule:evenodd;fill:url(#path23_00000055667120160996985140000016795408267523451020_);stroke:#424242;stroke-width:0.75;" d="
				M99.3,264.5c-2.4,0.4-4.7-0.8-5.9-2.9c-2-3.3-2.9-7.2-2.5-11l-30-45.5v-3.9l30-45.4c-0.4-3.8,0.5-7.7,2.5-11
				c1.2-2.1,3.5-3.3,5.9-2.9c2.3,0.2,4.1,2,4.2,4.3c0,2.3-1.9,4.1-4.2,4.1c-0.4,0-0.7-0.1-1.1-0.2l-0.3,0.4c1.5,1,1.9,2.4,0.4,3.8
				c-0.7,0.7-3,2.3-2.9,3.2c0.7,11.9,23.1,15,23.3,28.7c0,4.4-3.1,8-9.1,11V209c6,2.9,9.2,6.6,9.1,11c-0.1,13.8-22.6,16.8-23.3,28.7
				c0,0.9,2.2,2.6,2.9,3.2c1.4,1.4,1,2.8-0.4,3.8l0.3,0.4c2.2-0.6,4.4,0.6,5.1,2.8c0.1,0.4,0.2,0.7,0.2,1.1
				C103.4,262.5,101.6,264.4,99.3,264.5L99.3,264.5z M62.1,203.2l29.3,44.3c1-4.1,2.9-7.8,5.7-11c4.1-4.6,10.6-9.8,11.5-15.1
				c0.6-3.2-1-6.2-5.6-8.2v-20c4.6-2,6.2-5,5.6-8.2c-0.9-5.2-7.5-10.5-11.6-15.1c-2.7-3.1-4.6-6.9-5.6-10.9L62.1,203.2L62.1,203.2z"
				/>
			<path id="path25" class="st6" d="M86.3,202.6c-1.1-12.1-28.9-13.6-28.9-5.6c0,2.7,2.3,4.5,4.6,5.7v1.2c-2.3,1.2-4.6,3.1-4.6,5.7
				c0,8,27.7,6.4,28.9-5.6V202.6L86.3,202.6z"/>
			<path id="path27" class="st7" d="M65.2,214.5l3.7-11.2l-3.7-11.2 M68.7,214.6l3.8-11.2L68.7,192 M72.3,214.1l3.7-10.8l-3.6-10.9
				 M76.2,213.3l3.3-10l-3.3-10 M80.3,211.7l2.8-8.3l-2.8-8.3 M61.8,213.8l3.5-10.5l-3.5-10.6"/>
			<rect id="rect29" x="60.2" y="201.6" class="st8" width="59.2" height="3.4"/>
			<polygon id="polygon31" class="st9" points="118.6,200.5 127.7,200.8 127.7,205.7 118.6,206.1 			"/>
			<polygon id="polygon33" class="st9" points="126.2,203.3 120.7,190 143.3,203.3 120.7,216.5 			"/>
			<line id="line35" class="st10" x1="143.1" y1="203.3" x2="125.9" y2="203.3"/>
		</g>
	</g>
	<g>
		<defs>
			<rect id="SVGID_00000162331667765097047760000006689361557406409613_" width="195.6" height="280.6"/>
		</defs>
		<clipPath id="SVGID_00000138543931112110423200000001800719585857712567_">
			<use xlink:href="#SVGID_00000162331667765097047760000006689361557406409613_"  style="overflow:visible;"/>
		</clipPath>
		<g id="Warstwa_1" style="clip-path:url(#SVGID_00000138543931112110423200000001800719585857712567_);">
			<g id="_74930080">
				<path id="_75002600" class="st3" d="M158,93.9c0,31.8-26.9,57.7-59.8,57.7s-59.8-26-59.8-57.7V12.5H158V93.9z"/>
				<path id="_75002528" class="st12" d="M156.8,93.7L156.8,93.7c0,31.2-26.3,56.6-58.6,56.6s-58.6-25.4-58.6-56.6l0,0v-80h117.1
					L156.8,93.7L156.8,93.7z"/>
				<path id="path44" class="st13" d="M44.3,86.8v8.3c-1.6-0.8-3.1-1.7-4.6-2.6v1.2l0,0c0,31.2,26.3,56.6,58.6,56.6
					s58.6-25.4,58.6-56.6l0,0v-1.2c-1.5,0.9-3.1,1.8-4.6,2.6v-8.3l-0.4,0.2c-2.9,1.7-5.8,3.3-8.9,4.7V67.9h1.8v-3.3h1.8V55h-3.8
					l-13.2-7.9l-13,7.9h-3.7v9.5h1.8v3.3h1.8V100c-1.8,0.3-3.6,0.6-5.4,0.8V81.5h1v-3.1h1.2L99.4,60.2v-2.6c0.8-0.4,1.3-1.2,1.3-2.1
					c0-1.3-1.1-2.4-2.4-2.4s-2.4,1.1-2.4,2.4l0,0c0,0.8,0.5,1.6,1.2,2.1v2.7l-13.9,18h1.2v3.1h1.2v19.4c-1.9-0.2-3.8-0.5-5.7-0.8
					V67.9h1.8v-3.3h1.8V55h-3.8l-13.2-7.8l-13,7.8h-3.7v9.5h1.8v3.3h1.8v23.9c-3-1.4-5.9-3-8.8-4.6C44.7,87.1,44.3,86.8,44.3,86.8z"
					/>
				<path id="path44_0" class="st14" d="M142.4,92l-1.3,0.6l-0.1,0.1v7.7c-1.6,0.7-3.3,1.3-5,1.8v-7.5l-0.3,0.1
					c-3.5,1.3-7,2.5-10.6,3.4l-0.2,0.1v7.2c-1.7,0.4-3.3,0.7-5,1.1v-7.1h-0.3c-0.9,0.2-1.8,0.3-2.6,0.5V67.9h25.4L142.4,92L142.4,92
					z M110.6,101l-1.6,0.2h-0.2v7c-1.6,0.2-3.3,0.2-5,0.3v-7h-0.3c-1.8,0.1-3.5,0.1-5.3,0.1s-3.6,0-5.3-0.1h-0.2v7
					c-1.7-0.1-3.3-0.2-5-0.3v-7h-0.2L86,101V81.5h24.6V101z M79.3,100c-0.8-0.2-1.7-0.3-2.5-0.5h-0.3v7.1c-1.7-0.3-3.3-0.7-5-1.1
					v-7.3l-0.2-0.1c-3.6-0.9-7.2-2.1-10.6-3.4l-0.3-0.1v7.5c-1.7-0.6-3.4-1.2-5-1.9v-7.7l-0.2-0.1l-1.4-0.6v-24h25.4
					C79.3,67.9,79.3,100,79.3,100z M52.1,64.6h29v2.8h-29V64.6z M50.3,55.6h7.8v5.3h4.6v-5.3h7.8v5.3h4.6v-5.3H83v8.5H50.3V55.6
					L50.3,55.6z M97.5,57.8c0.2,0.1,0.5,0.1,0.8,0.1c0.2,0,0.5,0,0.7-0.1v2h-1.5V57.8L97.5,57.8z M84.8,78.3h26.8V81H84.8V78.3z
					 M98.2,53.5c1.1,0,1.9,0.9,1.9,1.9c0,1.1-0.9,1.9-1.9,1.9c-1.1,0-1.9-0.9-1.9-1.9C96.3,54.4,97.2,53.5,98.2,53.5L98.2,53.5z
					 M115.2,64.5h29v2.8h-29V64.5z M113.4,55.5h7.8v5.3h4.6v-5.3h7.8v5.3h4.6v-5.3h7.8V64h-32.6L113.4,55.5z M98.2,121.6
					c-0.6,0-1.2,0-1.8,0.2l-1.8-6.4c1.2,0,2.4,0.1,3.7,0.1s2.4,0,3.6-0.1l-1.8,6.4C99.4,121.6,98.8,121.6,98.2,121.6z M95.9,121.8
					c-4.8,1.1-8.2,5.3-8.2,10.2v17.3c-1.1-0.2-2.1-0.4-3.2-0.7V132c0-6.3,4.3-11.8,10.5-13.3L95.9,121.8z M108.7,149.4v-17.3
					c0-4.9-3.4-9.2-8.2-10.2l0.9-3.1c6.2,1.5,10.5,7,10.5,13.3v16.6C110.8,149,109.8,149.2,108.7,149.4L108.7,149.4z M94.1,115.4
					l0.8,3c-3.1,0.7-5.8,2.5-7.8,5c-0.9-0.1-1.8-0.2-2.8-0.3v-8.5C87.5,115,90.8,115.2,94.1,115.4L94.1,115.4z M86.8,123.8
					c-1.7,2.3-2.7,5.2-2.8,8.1c-2.4-0.2-4.7-0.5-7.1-0.9v-8.4C80.2,123,83.4,123.4,86.8,123.8L86.8,123.8z M84,132.4v8.3
					c-2-0.2-4.1-0.4-6.1-0.7c-2.8-0.4-5.6-0.9-8.4-1.4v-8.5C74.3,131.1,79.1,131.9,84,132.4z M84,141.2v7.4
					c-2.4-0.6-4.9-1.3-7.2-2.2v-6.1C79.2,140.6,81.6,140.9,84,141.2z M112.3,148.6v-7.4c2.1-0.2,4.2-0.4,6.3-0.7l1-0.1v6.1
					C117.2,147.3,114.8,148,112.3,148.6L112.3,148.6z M112.3,140.7v-8.3c4.9-0.5,9.7-1.3,14.5-2.3v8.5
					C122.1,139.5,117.3,140.2,112.3,140.7L112.3,140.7z M112.3,131.9c0-2.9-1-5.8-2.7-8.1c1.2-0.1,2.4-0.2,3.6-0.4
					c2.1-0.2,4.2-0.5,6.3-0.9v8.5C117.1,131.4,114.7,131.7,112.3,131.9L112.3,131.9z M109.2,123.3c-2-2.5-4.7-4.3-7.8-5l0.9-3
					c3.3-0.1,6.5-0.4,9.8-0.7v8.4C111.1,123.1,110.2,123.2,109.2,123.3L109.2,123.3z M54.3,107v9c-2-0.7-3.9-1.5-5.8-2.3
					s-4.1-1.8-6.1-2.8c-1.2-3.5-2-7.1-2.4-10.7C44.7,102.8,49.4,105.1,54.3,107z M54.8,116.1v-9c4.7,1.8,9.4,3.3,14.3,4.6v8.6
					c-4.7-1.1-9.3-2.5-13.9-4.1L54.8,116.1z M141.6,107.2v9c-4.7,1.7-9.4,3.1-14.3,4.2v-8.6C132.2,110.6,136.9,109.1,141.6,107.2
					L141.6,107.2z M142.1,116v-9c4.9-2,9.7-4.2,14.3-6.8c-0.4,3.6-1.2,7.2-2.4,10.7c-2,1-4,1.9-6.1,2.8S144.1,115.2,142.1,116
					L142.1,116z M69.6,120.5v-8.6c4.7,1.2,9.5,2,14.3,2.6v8.5l-0.5-0.1c-2.4-0.3-4.8-0.6-7.2-1c-2.2-0.4-4.4-0.8-6.5-1.3L69.6,120.5
					z M126.8,111.9v8.6c-4.7,1.1-9.5,1.9-14.3,2.5v-8.4C117.4,114,122.1,113.1,126.8,111.9L126.8,111.9z M148.3,114v9l-0.1,0.1
					c-4.4,1.7-8.9,3.2-13.5,4.5V119C139.3,117.6,143.9,116,148.3,114L148.3,114z M148.8,122.2v-8.4c1.7-0.7,3.4-1.5,5-2.3
					C152.5,115.2,150.8,118.8,148.8,122.2L148.8,122.2z M47.6,113.8v8.2c-2-3.3-3.7-6.9-4.9-10.5C44.3,112.3,46,113.1,47.6,113.8z
					 M48.1,122.8V114l0.3,0.1c2.2,0.9,4.4,1.8,6.7,2.6s4.4,1.5,6.7,2.2v8.7l-2-0.6c-3.9-1.1-7.7-2.5-11.4-3.9
					C48.2,123,48.1,122.9,48.1,122.8L48.1,122.8z M62.2,127.8v-8.7c2.2,0.6,4.4,1.2,6.7,1.8s4.7,1.1,7.1,1.5l0.5,0.1v8.5
					c-1.4-0.2-2.9-0.5-4.3-0.8C68.8,129.4,65.5,128.7,62.2,127.8L62.2,127.8z M134.2,119.1v8.7c-4.7,1.3-9.4,2.3-14.2,3.1v-8.5
					c2.6-0.4,5.1-1,7.7-1.6C129.9,120.3,132.1,119.7,134.2,119.1L134.2,119.1z M55.3,126.2v5.9c-2.4-2.6-4.7-5.3-6.6-8.3
					C50.9,124.7,53.1,125.4,55.3,126.2z M55.8,132.6v-6.2c4.3,1.4,8.8,2.6,13.3,3.6v8.5c-3.2-0.7-6.4-1.4-9.5-2.3
					C58.3,135,57,133.8,55.8,132.6z M140.6,126.3v6.3c-1.2,1.2-2.5,2.4-3.8,3.5c-3.1,0.9-6.3,1.6-9.6,2.3V130
					C131.8,129,136.2,127.8,140.6,126.3L140.6,126.3z M141.1,132.2v-6c2.3-0.7,4.5-1.6,6.7-2.4C145.8,126.8,143.6,129.6,141.1,132.2
					L141.1,132.2z M76.3,140.2v5.9c-5.7-2.2-11.1-5.4-15.9-9.3c2.5,0.7,5,1.3,7.5,1.8C70.7,139.2,73.5,139.8,76.3,140.2z
					 M120.1,146.2v-5.9c2.8-0.4,5.6-0.9,8.4-1.5c2.5-0.5,5-1.2,7.5-1.8C131.2,140.8,125.8,143.9,120.1,146.2L120.1,146.2z
					 M44.8,87.7c3.3,1.9,6.7,3.7,10.2,5.2v7.7l0.2,0.1c1.8,0.7,3.6,1.4,5.5,2l0.3,0.1v-7.5c3.3,1.3,6.7,2.3,10.2,3.2v7.2h0.2
					c1.8,0.4,3.7,0.8,5.5,1.2l0.3,0.1v-7c3.3,0.7,6.7,1.2,10.2,1.6v7h0.2c1.8,0.2,3.6,0.3,5.5,0.4h0.3v-7c1.7,0.1,3.4,0.2,5.1,0.2
					s3.4-0.1,5.1-0.2v7h0.3c1.8-0.1,3.7-0.2,5.5-0.4h0.2v-7c3.4-0.4,6.8-0.9,10.2-1.6v7.2l0.3-0.1c1.8-0.3,3.7-0.7,5.5-1.2h0.2v-7.3
					c3.4-0.9,6.8-2,10.2-3.2v7.5l0.3-0.1c1.9-0.7,3.7-1.3,5.5-2l0.1-0.1v-7.8c3.5-1.6,6.9-3.3,10.2-5.2V96l0.4-0.2
					c1.6-0.9,3.2-1.8,4.8-2.7v0.6l0,0c0,1,0,2-0.1,3c-17.8,10.4-37.9,15.8-58.5,15.8c-20.5,0.1-40.7-5.4-58.5-15.7
					c0-1-0.1-2-0.1-3.1l0,0V93c1.6,0.9,3.2,1.8,4.8,2.7l0.3,0.2C44.8,95.9,44.8,87.7,44.8,87.7z M156.5,99.7
					c-17.8,10-37.8,15.3-58.2,15.3s-40.5-5.2-58.2-15.3c-0.1-0.8-0.2-1.6-0.2-2.4C57.5,107.6,77.7,113,98.2,113s40.7-5.4,58.5-15.7
					C156.6,98.1,156.6,98.9,156.5,99.7L156.5,99.7z"/>
				<path id="path32" class="st13" d="M131,94.6h-2.6V83.9h2.6V94.6z M67.9,80.8h-2.6V70.2h2.6V80.8z M65.3,80.8L65.3,80.8z
					 M67.9,94.5h-2.6V83.9h2.6V94.5z M65.3,94.5L65.3,94.5z M98.2,83.8L98.2,83.8c0,0-2,2-2,3.7V99h3.9V87.5
					C100.2,85.8,98.2,83.8,98.2,83.8z M131,80.8h-2.6V70.2h2.6V80.8z M128.4,80.8L128.4,80.8z M128.4,94.5L128.4,94.5z"/>
				<path id="path44_1" class="st15" d="M54.4,55l12.1-7.3L78.8,55h-4.1v5.2H71V55h-8.8v5.2h-3.6V55H54.4z M97.5,60.2h1.3l13.4,17.6
					H84.1L97.5,60.2z M117.5,55l12.1-7.3l12.2,7.3h-4.2v5.2H134V55h-8.9v5.2h-3.6V55H117.5z"/>
				<path id="path44_2" class="st16" d="M102.8,127.5v1.7h-3.4v-1.7H102.8z M96.8,133.5v1.7h-3.5v-1.7H96.8z M102.8,133.5v1.7h-3.4
					v-1.7H102.8z M105.2,135.2v-1.7h2.9v1.7H105.2z M105.2,129.3v-1.7h1.8c0.3,0.6,0.5,1.1,0.7,1.7H105.2z M104.8,124.7v14l-0.9,1.4
					l-0.8-1.4v-15.3C103.7,123.8,104.3,124.2,104.8,124.7z M99,122.1v16.5l-0.9,1.4l-0.9-1.4v-16.5c0.3,0,0.7,0,1,0
					S98.8,122.2,99,122.1L99,122.1z M96.9,127.5v1.7h-3.5v-1.7H96.9z M93.1,123.5v15.1l-0.9,1.4l-0.8-1.4v-13.8
					C91.9,124.4,92.4,123.9,93.1,123.5L93.1,123.5z M91,129.2h-2.3c0.2-0.6,0.4-1.2,0.7-1.7H91L91,129.2z M91,133.4v1.7h-2.7v-1.7
					H91z"/>
				<path id="path44_3" class="st17" d="M88.2,135.6h2.7v3.2v0.1l1,1.7l0.2,0.3l0.2-0.3l1-1.7v-0.1v-3.2h3.4v3.2v0.1l1.1,1.7
					l0.2,0.3l0.2-0.3l1-1.7v-0.1v-3.2h3.4v3.2v0.1l1,1.7l0.2,0.3l0.2-0.3l1.1-1.7v-0.1v-3.2h2.9v13.9c-3.3,0.5-6.6,0.8-9.9,0.8
					c-3.4,0-6.7-0.3-10-0.8v-13.9H88.2z M88.5,129.6h2.4v3.5h-2.7v-1C88.2,131.3,88.3,130.4,88.5,129.6z M96.8,129.6v3.5h-3.5v-3.5
					H96.8z M102.8,129.6v3.5h-3.4v-3.5H102.8z M108.2,133.1h-2.9v-3.5h2.6c0.2,0.8,0.3,1.6,0.3,2.5V133.1z M90.9,125.3v1.9h-1.4
					C89.9,126.5,90.4,125.8,90.9,125.3z M96.8,122.2v5h-3.5v-3.8C94.5,122.8,95.6,122.4,96.8,122.2L96.8,122.2z M102.8,123.2v3.9
					h-3.4v-5C100.5,122.3,101.7,122.6,102.8,123.2L102.8,123.2z M106.9,127.1h-1.6V125C105.9,125.6,106.4,126.4,106.9,127.1
					L106.9,127.1z"/>
				<g id="g20">
					<path id="path146" class="st13" d="M69.9,19.3c-0.5,0.2-1,0.2-1.6,0.1L68,19.3l0.1,0.3c0.1,0.4,0.3,0.7,0.5,1
						c0.4,0.4,0.9,0.6,1.4,0.5c-0.1,0.1-0.1,0.2-0.2,0.3l-0.2,0.2c-0.7,0.6-1.6,0.7-2.4,0.5L67,21.9c0,0.4,0.2,0.9,0.5,1.2
						c0.5,0.5,1.2,0.7,1.9,0.5c-0.3,0.4-0.5,0.8-0.7,1.2c-0.2,0.4-0.5,0.7-0.8,0.8c-0.5,0.2-1.1,0.2-1.6,0L66,25.5
						c0,0.5,0.2,1,0.5,1.4c0.5,0.6,1.4,0.7,2.1,0.4c-0.2,0.4-0.3,0.9-0.1,1.3c-1,1-2.2,1.8-3.6,2.2c-2.3,0.7-4.5,1.6-6.6,2.6
						c-1.2,0.6-2.2,1.3-3.2,2.1c-0.4,0.4-0.8,0.7-1.3,0.8c-0.8,0.3-1.6,0.4-2.5,0.3c-0.7,0-1.3-0.2-1.9-0.6c-0.7-0.4-1-1.4-0.5-2.1
						c0,0,0-0.1,0.1-0.1c0.4-0.6,1-1.1,1.6-1.4c0.9-0.5,1.9-0.9,2.9-1.2l7.2-2.2c1.3-0.3,2.5-1,3.4-2c1-1.2,1.2-2.8,0.5-4.2l0,0
						c-0.3-0.5-0.4-1.1-0.3-1.6c0.2-0.6,0.9-0.8,1.5-0.6c0.3,0.1,0.7,0.3,0.9,0.5c0-0.4-0.1-0.9-0.3-1.3c-0.3-0.6-0.9-1-1.5-1.1
						c-0.7-0.1-1.4,0.1-1.8,0.6c-0.1,0.1-0.2,0.3-0.3,0.5c0-0.3,0.1-0.7,0.2-1c0.3-0.3,0.6-0.5,0.9-0.6l-0.6-0.1
						c-0.6-0.2-1.3,0-1.8,0.5c-0.1,0.1-0.2,0.2-0.2,0.3c-0.1-0.5,0.2-1,0.7-1.2s1.1-0.3,1.6-0.3c-0.7-0.5-1.5-0.7-2.2-0.6
						c-0.8,0.1-1.4,0.5-1.8,1.2c-0.3,0.6-0.4,1.3-0.2,1.9c0,0.2,0.1,0.4,0.2,0.6c-0.4,0.1-0.7,0.3-1,0.7c-0.3,0.3-0.4,0.8-0.4,1.2
						c0.2,0.9,0.8,1.7,1.6,2.2c-0.1-0.7-0.1-1.3,0-2c0.1-0.3,0.3-0.6,0.7-0.7c-0.4,0.3-0.6,0.7-0.6,1.2c0,0.7,0.4,1.2,1.1,1.5
						c0.5,0.2,1,0.4,1.6,0.3c-0.3-0.3-0.8-0.5-1.1-0.9c-0.1-0.1-0.2-0.3-0.3-0.5c0-0.2,0.1-0.4,0.2-0.5c0.3-0.3,0.5-0.3,0.7-0.2
						c0.2,0.1,0.4,0.3,0.5,0.6c0.3,0.6,0.4,1.3,0.3,2c-0.1,0.4-0.4,0.7-0.7,1c-0.5,0.4-1.1,0.7-1.8,0.9l-0.5,0.2
						c-0.1-0.7,0.7-1,1.1-1.2l0.5-0.2C61.3,26,61.1,26,60.9,26c-0.6-0.2-1.3-0.1-1.8,0.2c-0.3,0.3-0.5,0.6-0.5,1c0,0.1,0,0.3,0,0.4
						c0,0.2-0.2,0.4-0.4,0.4c0.1-0.1,0.2-0.3,0.2-0.5c0.1-0.3,0-0.6-0.2-0.9c-0.2-0.2-0.3-0.6-0.1-0.9c0.2-0.2,0.4-0.4,0.7-0.4
						s0.6,0,0.9,0.1l0,0c0-0.1-0.1-0.2-0.2-0.2c-0.4-0.3-0.9-0.4-1.4-0.4c-0.8,0.1-1.5,0.7-1.7,1.5c-0.2,0.5-0.3,1.1-0.4,1.6
						c0,0.3-0.2,0.5-0.4,0.6c-0.3-0.2-0.4-0.7-0.2-1s0.5-0.6,0.8-0.8c-0.5,0-1,0.1-1.5,0.3c-0.2,0.1-0.3,0.3-0.4,0.5
						c-0.1,0.4-0.2,0.7-0.3,1.1c-0.1,0.1-0.1,0.2-0.2,0.3c0.2-0.4,0.2-0.9-0.1-1.2c-0.2-0.3-0.3-0.6-0.1-0.9
						c0.2-0.2,0.5-0.3,0.8-0.3s0.5,0,0.8,0.1c0-0.1-0.1-0.2-0.2-0.3c-0.4-0.3-0.9-0.4-1.3-0.3c-0.9,0.1-1.6,0.8-1.7,1.6
						c-0.2,0.5-0.3,1.1-0.3,1.6c0,0.2-0.1,0.5-0.3,0.6c-0.2-0.1-0.4-0.3-0.5-0.5s-0.1-0.4,0-0.5c0.2-0.4,0.5-0.7,0.8-0.9
						c-0.6-0.2-1.3,0.1-1.7,0.6c-0.2,0.3-0.3,0.7-0.3,1.1c0,0.1-0.1,0.3-0.1,0.5c0,0.1-0.1,0.2-0.1,0.3c-0.3,0.3-0.6,0.5-1,0.8
						c-1,0.6-1.6,1.5-1.8,2.6c-0.4,2,0.9,3.9,2.9,4.4c1.1,0.3,2.2,0.4,3.3,0.3c-0.7,1.4-0.8,3.1-0.3,4.6c0.1,0.3,0.4,0.8,0.6,1.3
						c0.1,0.2,0.2,0.4,0.2,0.7c0,0.1,0,0.3-0.1,0.4C53,45.9,52.8,46,52.7,46c-0.3,0.1-0.5,0.2-0.8,0.3c-0.4,0-0.9,0-1.3,0.2
						c-0.6,0.2-1,0.9-0.9,1.5c0,0.4,0.2,0.7,0.4,1c0,0.7,0,1.3,0,2c0.1,0.8,0.3,1.5,0.7,2.2c-0.4,0.3-0.6,0.8-0.7,1.2
						c0,0.6,0.3,1.1,0.8,1.3c0.1,0.1,0.2,0.1,0.4,0.1c0.1,0.1,0.4,0.2,0.4,0.5s-0.3,0.4-0.5,0.5c0.3,0.2,0.6,0.3,1,0.3
						c0.5,0,0.9-0.2,1.1-0.7c0.2,0.3,0.6,0.4,1,0.3c0.1,0,0.4,0.1,0.4,0.2c-0.1,0.2-0.3,0.5-0.5,0.7c0.3,0.1,0.7,0.1,1,0
						c0.5-0.1,0.9-0.6,0.9-1.1c0.1-0.3,0-0.6-0.1-0.9c0.1,0,0.2-0.1,0.2-0.1c0.1,0,0.4,0,0.4,0.2s0,0.5-0.1,0.7
						c0.4-0.1,0.7-0.2,1-0.4c0.4-0.3,0.6-0.9,0.4-1.4c-0.1-0.6-0.6-1-1.2-1.1c-0.2-0.3-0.6-0.5-1-0.5c-0.2,0-0.3,0-0.5,0.1
						c-0.1,0-0.1,0-0.2,0c-0.2-0.2-0.5-0.4-0.8-0.5c-0.2-0.6-0.4-1.2-0.4-1.9s0.2-1.4,0.8-1.9c0.4-0.4,0.9-0.7,1.4-1
						c0.9-0.5,1.8-1,2.6-1.7c1-0.8,1.8-1.7,2.4-2.9c0.4,0.4,0.9,0.8,1.5,1c0.1,0.1,0.3,0.1,0.3,0.3c-0.1,0.2-0.2,0.3-0.3,0.4
						c-0.4,0.3-0.9,0.7-1.4,0.9c-0.2,0.1-0.6,0.2-1,0.5c-0.5,0.2-0.9,0.6-1,1.1c0,0.4,0.1,0.8,0.4,1.2c0.1,0.2,0.3,0.3,0.5,0.4
						c0.3,0.1,0.6,0.1,0.9,0c1.2,0.6,2.5,0.8,3.8,0.7c0.1,0,0.2,0,0.4,0c0.2,0,0.4,0.1,0.5,0.2c0.1,0.1,0.1,0.3,0.1,0.4
						c0,0.3,0.2,0.6,0.4,0.8c0.2,0.2,0.5,0.3,0.8,0.4c0.1,0.5-0.3,0.6-0.7,0.7c0.4,0.3,0.8,0.5,1.3,0.5c0.3,0,0.6-0.1,0.8-0.3
						c0.2-0.3,0.4-0.6,0.4-0.9c0.2,0.1,0.4,0.1,0.6,0c0.3,0.5,0,0.6-0.3,0.9c0.5,0,1,0,1.4-0.3c0.3-0.2,0.4-0.4,0.5-0.7
						c0-0.3-0.1-0.7-0.2-1l0.1-0.1c0.1,0,0.2,0.1,0.2,0.1c0.3,0.3,0.1,0.8,0,1.1c0.4-0.1,0.7-0.2,1-0.5c0.5-0.4,0.7-1.1,0.5-1.6
						s-0.7-0.9-1.2-1.1c-0.1-0.4-0.4-0.7-0.8-0.8c-0.3-0.1-0.7-0.2-1.1-0.2c-0.9-0.1-2.1,0.4-3.4-0.6c0.4,0,0.8-0.1,1.1-0.3
						c1-0.3,1.7-1.1,1.9-2.1c0.2-1.1,0-2.3-0.7-3.3c-0.2-0.4-0.5-0.7-0.8-1.1c0.4,0,0.9-0.1,1.3-0.2c0.1,0.5,0.3,0.9,0.8,1.2
						c0.1-0.4,0.1-0.8,0.5-1c0.1,0.4,0.5,0.6,0.9,0.8c-0.1-0.4,0-0.8,0.3-1.1c0.2,0.4,0.6,0.7,1,0.6c-0.1-0.4,0-0.7,0.2-1
						c0.3,0.4,0.7,0.6,1.1,0.7c-0.2-0.4-0.4-0.8,0-1.1c0,0.2,0.2,0.4,0.3,0.6c0.2,0.2,0.4,0.3,0.6,0.3c0.5,0,0.9-0.1,1.3-0.3
						c-0.2-0.2-0.6-0.4-0.7-0.7c0-0.1,0-0.2,0-0.3c0.1-0.2,0.3-0.5,0.5-0.7c0.1,0.3,0.4,0.9,0.5,1.3c0.2,0.3,0.4,0.5,0.7,0.6
						c0.4,0.2,0.8,0.2,1.3,0.1c0.1,0,0.2,0,0.3,0c0.4,0.1,0.8,0.2,1.2,0.3c1.4,0.5,2.8,0.9,4.2,1.2c0.7,0.1,1.4,0.2,2.1,0.2
						c0.4,0,0.9,0,1.3-0.2c0.3,0.4,0.8,0.7,1.3,0.7s1-0.3,1.2-0.7c0.5,0,1,0.3,1.3,0.7c0.1-0.4,0.1-0.9,0-1.3
						c-0.1-0.5-0.5-0.9-0.9-1c0.1-0.1,0.1-0.2,0.2-0.3s0.3-0.1,0.5-0.1c0.4,0,0.5,0.3,0.7,0.7c0.1-0.4,0.1-0.9,0-1.3
						c-0.1-0.5-0.5-0.8-1-0.8c-0.2,0-0.3,0-0.5,0.1c0-0.2,0-0.3,0-0.5c0.1-0.1,0.2-0.2,0.4-0.2c0.3-0.1,0.5,0.1,0.7,0.3
						c0.1-0.3,0.1-0.7,0-1c-0.2-0.5-0.7-0.9-1.3-0.8c-0.2,0-0.5,0.1-0.7,0.2c-0.6-0.1-1.2,0.1-1.6,0.5c-0.2,0.2-0.3,0.4-0.4,0.6v0.1
						c-0.3,0.3-0.8,0.5-1.3,0.5c-0.4,0-0.8,0-1.2-0.1c-1-0.1-1.9-0.5-2.7-1c-0.3-0.2-0.6-0.4-0.9-0.6c0.4,0,0.8-0.1,1.3-0.2
						c-0.8-0.3-1.4-0.5-1.7-1.4c0.1,0.1,0.2,0.1,0.3,0.2c0.7,0.3,1.4,0.3,2.1,0c-0.3-0.3-0.6-0.6-0.9-0.9L82,33.5
						c0.3-0.2,0.5-0.3,0.7-0.5c0.8-0.6,1.5-1.2,2.2-1.9c0.7-0.7,1.4-1.5,2-2.3c0.3-0.4,0.6-0.9,0.8-1.3c0.1-0.3,0.2-0.6,0.2-0.9
						c0.4,0.1,0.9,0,1.2-0.4c0.2-0.2,0.3-0.5,0.3-0.8c0.1-0.2,0.3-0.2,0.5-0.2s0.3,0.1,0.4,0.3v-0.3c0.1-0.6-0.2-1.1-0.7-1.3
						c-0.3-0.2-0.8-0.2-1.1,0c0-0.2-0.1-0.3-0.2-0.5l0,0c0-0.1,0.1-0.3,0.2-0.4c0.2-0.3,0.5-0.2,0.8-0.1c-0.1-0.3-0.3-0.6-0.5-0.8
						c-0.4-0.3-0.9-0.4-1.4-0.2c-0.3,0.1-0.5,0.3-0.7,0.5c-0.1-0.1-0.3-0.2-0.3-0.3c-0.1-0.1-0.1-0.1,0-0.2c0.1-0.2,0.3-0.3,0.6-0.3
						l0.3-0.1c-0.3-0.2-0.5-0.4-0.9-0.5s-0.9,0-1.3,0.3c-0.3,0.3-0.4,0.7-0.3,1.1c-0.1,0.1-0.3,0.2-0.3,0.4c-0.2,0.5-0.2,1.1,0,1.6
						c0.2,0.6,0.1,1.3-0.3,1.7c-0.7,0.7-1.6,1.4-2.4,1.9c-0.6,0.4-1.2,0.7-1.9,1l0.1,0c0.6-0.4,1-0.9,1.3-1.6
						c-0.6,0.2-1.2,0.4-1.8,0.4c-0.6,0.1-1.3,0-1.8-0.3c-0.3-0.2-0.5-0.4-0.7-0.7c-0.1-0.2-0.1-0.4-0.1-0.6c0.1,0.1,0.2,0.1,0.2,0.2
						c0.1,0.1,0.2,0.2,0.2,0.4v0.1h0.1c0.4,0.1,0.8,0.1,1.1-0.1c0.2-0.1,0.4-0.3,0.5-0.6c0.1-0.3,0.1-0.6-0.1-0.9
						c-0.1-0.2-0.3-0.3-0.5-0.4l0.1-0.9l0.1-0.4l-0.3,0.2l-0.9,0.6c-0.1-0.1-0.2-0.1-0.3-0.2c0,0-0.1-0.2-0.1-0.3
						c0-0.2,0.2-0.4,0.4-0.5c0.4-0.2,0.8-0.2,1.2-0.1c0.3,0.1,0.5,0.2,0.7,0.4l0.3,0.3l0,0c0,0.1-0.1,0.2-0.2,0.3
						c-0.2,0.2-0.5,0.3-0.7,0.4c0.3,0.4,0.8,0.5,1.3,0.4c0.3-0.1,0.5-0.3,0.7-0.5l0.1-0.1c0.2-0.1,0.4-0.2,0.5-0.4
						c0.3-0.3,0.5-0.7,0.7-1.1c0.1,0,0.3-0.1,0.3-0.2s0.1-0.1,0.1-0.2s0-0.2,0-0.3c0-0.2-0.1-0.4-0.2-0.5c-0.3-0.5-0.7-0.9-1.1-1.4
						c0-0.4-0.2-0.8-0.4-1.1c-0.2-0.2-0.5-0.5-0.8-0.6c-0.2-0.1-0.4-0.3-0.6-0.5s-0.2-0.4-0.4-0.6c-0.2-0.3-0.5-0.5-0.7-0.7
						c-0.5-0.4-1.1-0.7-1.7-0.8c-0.3-0.5-0.7-0.9-1.2-1.2c-0.1,0-0.1,0-0.2,0c-0.3,0.1-0.5,0.2-0.7,0.4c-0.4,0.3-0.6,0.7-0.8,1.1
						h-0.3c-0.4-0.1-0.7-0.4-0.9-0.7c-0.2-0.3-0.4-0.6-0.5-0.9L71.7,15c-0.6,0.5-0.8,1.3-0.6,2.1c0.2,0.4,0.6,0.7,1,0.9
						c-0.3,0.1-0.6,0.1-0.8,0.1c-0.6-0.2-1.2-0.6-1.6-1.1l-0.3-0.2v0.4C69.5,17.9,69.6,18.6,69.9,19.3L69.9,19.3z"/>
					<path id="path146_4" class="st16" d="M61.4,42.9l0.3-0.7c0.2-0.9,0.8-1.6,1.5-2c0.6-0.2,1.2-0.3,1.8-0.2c0.5,0,1.5,0.1,2,0.1
						h0.3c0.4,0.4,0.7,0.8,1,1.2c0.6,0.9,0.8,2,0.7,3c-0.2,0.9-0.9,1.6-1.7,1.8c-0.5,0.2-0.9,0.3-1.4,0.3l0,0
						c-0.6-0.1-1.2-0.1-1.8,0c-0.3,0-0.7,0.1-1,0.3s-0.5,0.5-0.5,0.8c0.1,0.6,1.1,0.9,1.6,1c0.6,0.1,1.3,0.2,1.9,0.3l0,0
						c-0.6-0.1-1.3-0.2-1.9-0.3c-0.5-0.1-1.4-0.4-1.5-1c0-0.3,0.2-0.6,0.4-0.7c0.3-0.1,0.6-0.2,0.9-0.2c0.6,0,1.2,0.1,1.8,0.2
						c1.5,1.4,3,0.9,3.9,0.9c0.3,0,0.6,0.1,0.9,0.2c0.4,0.1,0.6,0.4,0.7,0.8c0.5,0.1,1,0.4,1.2,0.9c0.2,0.6-0.1,1.3-0.7,1.5
						c0.1-0.3,0-0.6-0.2-0.9c-0.1-0.1-0.2-0.1-0.2-0.2c0.1-0.2,0.2-0.4,0.2-0.5s0-0.2-0.1-0.3c0,0.2-0.1,0.5-0.3,0.6
						c-0.1,0.1-0.3,0.2-0.4,0.3C70.6,50,70.4,50,70.2,50c0-0.3-0.1-0.6-0.3-0.8c-0.1-0.1-0.3-0.2-0.5-0.2h-0.5l0.5,0.1
						c0.1,0,0.3,0.1,0.4,0.3C70,49.7,70,50,70,50.3v0.2h0.2c0.1,0,0.2,0,0.3,0.1c0.1,0.1,0.3,0.3,0.3,0.4c0.1,0.2,0.1,0.4,0.1,0.6
						c-0.1,0.5-0.5,0.6-0.9,0.7c0-0.3,0-0.5-0.2-0.7C70,51.2,70,51,70,50.8c-0.1,0.2-0.3,0.4-0.5,0.5s-0.4,0.1-0.6,0
						c-0.1-0.2-0.2-0.4-0.3-0.5c0.2-0.4,0.1-0.8-0.1-1.2c0.3,0.4,0.1,0.9-0.1,1.2c0.2,0.2,0.3,0.4,0.3,0.6c0,0.3-0.1,0.7-0.4,0.9
						s-0.7,0.2-1.1,0c0.2-0.2,0.3-0.5,0.2-0.8c0.2-0.1,0.4-0.2,0.5-0.4c-0.2,0.1-0.4,0.1-0.7,0.2c-0.2,0-0.5-0.1-0.7-0.2
						c-0.2-0.2-0.3-0.4-0.4-0.7c0-0.1,0-0.2,0-0.3s0-0.2,0-0.3c0.1-0.2,0.2-0.4,0.4-0.6l0,0c-0.3,0.1-0.5,0.3-0.6,0.5
						c-0.2-0.2-0.4-0.3-0.7-0.3c-0.2,0-0.4,0-0.6,0c-1.3,0-2.5-0.2-3.7-0.8c-0.4,0.2-0.9,0.1-1.1-0.3l0,0c-0.2-0.2-0.3-0.6-0.3-0.9
						c0.1-0.4,0.4-0.7,0.8-0.9c0.4-0.2,0.8-0.3,1.1-0.5c0.5-0.3,1-0.6,1.5-1c0.3-0.2,0.6-0.7,0.3-1c-0.1-0.1-0.3-0.2-0.4-0.3
						C62.4,43.7,61.9,43.3,61.4,42.9L61.4,42.9z M81.9,33.4c-0.2-0.3-0.4-0.6-0.5-0.9c-0.1-0.6,0-2.2-1-3.1c0.6-0.3,1.2-0.6,1.8-0.9
						c0.9-0.6,1.7-1.2,2.5-2c0.5-0.6,0.6-1.3,0.3-2c-0.2-0.5-0.2-1,0-1.4c0.1-0.2,0.2-0.3,0.4-0.4c-0.1-0.4-0.2-0.7,0.1-1
						c0.3-0.3,0.8-0.3,1.2-0.1c-0.2,0.1-0.3,0.2-0.5,0.3c-0.1,0.2-0.1,0.3,0,0.5c-0.3,0-0.5,0.1-0.7,0.2l0,0c0.3-0.1,0.7-0.1,1,0
						l0,0c-0.4,0.2-0.6,0.5-0.6,0.9c0,0.5,0.2,0.9,0.6,1.2l0,0c-0.3-0.3-0.5-0.7-0.4-1.2c0-0.2,0.1-0.4,0.3-0.5
						c0.2-0.1,0.4-0.1,0.6,0c0.2-0.3,0.4-0.5,0.7-0.7c0.4-0.2,1-0.1,1.2,0.3c-0.2-0.1-0.4,0-0.6,0.2c-0.1,0.1-0.1,0.2-0.2,0.3
						c-0.2-0.1-0.4-0.1-0.7,0c0.1,0,0.3,0.1,0.4,0.1c0.2,0.2,0.3,0.4,0.4,0.7c-0.2,0-0.5,0.1-0.7,0.2c-0.3,0.2-0.5,0.5-0.4,0.8
						c0-0.3,0.2-0.6,0.5-0.7s0.6-0.1,0.9,0.1l0.1-0.1c0.4-0.3,1-0.2,1.2,0.3c0.1,0.1,0.1,0.2,0.1,0.4c-0.2,0-0.5,0-0.6,0.2
						c-0.1-0.2-0.3-0.3-0.6-0.3c0.2,0.1,0.4,0.4,0.4,0.6c0,0.3-0.1,0.5-0.3,0.7c-0.3,0.3-0.7,0.4-1.1,0.3l-0.3-0.1l0.1,0.3
						c0,0.3-0.1,0.6-0.2,0.9c-0.2,0.4-0.5,0.9-0.8,1.3c-0.6,0.8-1.3,1.6-2,2.2c-0.7,0.7-1.4,1.3-2.2,1.9
						C82.4,33.1,82.1,33.2,81.9,33.4L81.9,33.4z M68.6,29c0.1,0.3,0,0.6-0.1,0.8c-0.3,0.4-0.7,0.6-1.2,0.6H67c0.4,0.6,1.3,0.9,2,0.7
						c0.5-0.2,0.9-0.5,1.3-0.9c0.1,0.1,0.2,0.2,0.2,0.3c0,0.3,0,0.5-0.2,0.8L70,31.8l0.4-0.2c0.6-0.2,1-0.6,1.3-1.1
						c0.2,0.6-0.1,1.1-0.7,1.4c0.4,0.1,0.8,0.2,1.2,0.1c0.6-0.2,1.1-0.7,1.3-1.2c0.3,0.3,0.4,0.7,0.3,1.1c0.2,0,0.5-0.1,0.6-0.3
						c0.2-0.2,0.3-0.4,0.3-0.7c0.2,0.2,0.3,0.4,0.3,0.7c0,0.2-0.1,0.4-0.2,0.5l-0.3,0.3c0.3,0,0.6-0.1,0.9-0.2
						c0.2-0.1,0.3-0.3,0.5-0.4c-0.2,0.5-0.6,1-1,1.5c0.6-0.1,1.2-0.4,1.6-0.8c-0.2,0.5-0.2,1,0.1,1.5l0.1,0.3l0.2-0.3
						c0.3-0.4,0.6-0.9,0.9-1.3c0,0.6-0.2,1.2-0.6,1.7l-0.3,0.3l0.4-0.1c0.2,0,0.3-0.1,0.4-0.2c0.2-0.2,0.4-0.4,0.6-0.6
						c0,0.5,0.2,0.9,0.5,1.3c0.3,0.5,0.8,0.8,1.3,1c0.4,0.4,0.9,0.7,1.4,1c0.9,0.5,1.8,0.9,2.8,1c0.4,0.1,0.8,0.1,1.3,0.2
						c0.6,0,1.2-0.2,1.6-0.7l0,0c0.1-0.2,0.2-0.4,0.3-0.5c0.2-0.4,0.6-0.6,1.1-0.6c0.2,0,0.3,0.1,0.4,0c0.2-0.1,0.4-0.2,0.6-0.2
						c0.5-0.1,0.9,0.3,0.9,0.7v0.1c-0.2,0-0.3,0-0.5,0s-0.3,0.1-0.4,0.2c-0.2-0.3-0.4-0.5-0.6-0.6c0.2,0.2,0.3,0.5,0.4,0.7
						c0,0.2,0,0.4,0,0.6c-0.2-0.1-0.4-0.2-0.7-0.1C88.3,38,88,38.2,88,38.6l0,0c0.1-0.3,0.4-0.5,0.7-0.5c0.4,0,0.7,0.2,0.8,0.6
						c0.2-0.1,0.4-0.2,0.6-0.2c0.4,0,0.8,0.4,0.8,0.8v0.1c-0.3-0.1-0.6-0.2-0.9-0.1c0-0.2-0.1-0.4-0.3-0.5c0.1,0.2,0.1,0.4,0,0.7
						c-0.1,0.1-0.1,0.3-0.2,0.4c-0.3-0.2-0.6-0.4-1-0.3c-0.3,0-0.8,0.2-0.9,0.5l0,0c0.1-0.3,0.6-0.4,0.9-0.4s0.6,0.2,0.8,0.4
						c0.6,0.1,1,0.3,1.2,1c0,0.2,0,0.3,0,0.5c-0.3-0.2-0.6-0.3-0.9-0.3c0-0.2,0-0.5-0.1-0.7l0,0c0,0.1,0,0.3,0,0.4
						c-0.1,0.2-0.1,0.4-0.2,0.6c-0.2,0.3-0.5,0.4-0.9,0.4c-0.5,0-1-0.4-1.2-0.9c-0.3,0.3-0.6,0.4-1.3,0.4c-0.7,0-1.3-0.1-2-0.2
						c-1.4-0.3-2.8-0.7-4.2-1.2c-0.5-0.2-1.1-0.3-1.6-0.3H78c-0.4,0.1-0.7,0.1-1.1-0.1c-0.2-0.1-0.4-0.3-0.6-0.5
						c-0.1-0.2-0.4-0.9-0.5-1.2c-0.1-0.2-0.1-0.4-0.2-0.6c-0.1-0.2-0.2-0.3-0.3-0.5c-0.1-0.1-0.3-0.2-0.4-0.3s-0.3-0.2-0.4-0.3
						c-0.5-0.4-0.8-1-0.9-1.7l0,0c0,0.7,0.3,1.3,0.8,1.8c0.1,0.1,0.3,0.2,0.4,0.3s0.3,0.2,0.4,0.3c0.1,0.2,0.2,0.4,0.2,0.6
						c-0.3,0.3-0.5,0.6-0.7,1c-0.1,0.2-0.1,0.4,0,0.5c0.1,0.2,0.2,0.4,0.4,0.5c-0.3,0.1-0.7,0.1-1-0.1c-0.2-0.3-0.3-0.6-0.3-0.9
						c-0.4,0.3-0.8,0.5-0.8,1.1c0.2-0.2,0-0.4,0-0.7c-0.4,0.2-0.7,0.6-0.8,1c-0.2-0.2-0.4-0.4-0.3-0.7c-0.5,0.2-0.8,0.5-0.9,1
						c-0.2-0.2-0.2-0.5-0.3-0.7c-0.6,0.2-0.8,0.4-1,0.9c-0.1-0.2-0.2-0.5-0.3-0.7c0.5-0.1,1.1-0.3,1.6-0.5c1-0.4,1.9-0.9,2.7-1.6
						c-0.8,0.5-1.7,1-2.7,1.3c-0.5,0.2-1,0.3-1.5,0.4c-0.8,0.2-1.6,0.3-2.4,0.3c-0.5,0-1.5-0.1-2.1-0.1c-0.4,0-0.7,0-1.1,0l0.4-0.3
						c0.5-0.1,1-0.1,1.4-0.2c0.5,0,1-0.1,1.5-0.1c1-0.1,2-0.4,2.9-0.7c-0.9,0.3-1.9,0.6-2.9,0.7c-0.5,0-1,0.1-1.5,0.1s-1,0-1.5,0.1
						l-1.4,0.9c-0.7,0.5-1.2,1.2-1.5,2c-0.5,1.5-1.4,2.8-2.7,3.7c-0.8,0.6-1.7,1.2-2.6,1.7c-0.5,0.3-1,0.6-1.5,1
						c-0.6,0.6-0.9,1.3-0.9,2.2c0.1,0.7,0.2,1.4,0.5,2.1v0.1c0.2,0,0.4,0.1,0.5,0.2c0.2,0.1,0.3,0.2,0.3,0.2
						c0.1,0.1,0.2,0.1,0.3,0.1s0.2,0,0.2,0c0.1,0,0.3,0,0.4,0c0.3,0,0.6,0.2,0.7,0.5c0.5,0,0.9,0.3,1,0.8c0.2,0.5-0.1,1.1-0.5,1.3
						v-0.2c0-0.2-0.2-0.4-0.4-0.5c0.1-0.1,0.1-0.2,0.1-0.3c0-0.2-0.1-0.4-0.2-0.6c0.1,0.2,0.1,0.6-0.1,0.8c-0.1,0.1-0.3,0.2-0.5,0.3
						c-0.2-0.2-0.5-0.4-0.8-0.4c0-0.1,0-0.3-0.1-0.4c-0.1-0.4-0.3-0.6-0.7-0.8c-0.2-0.1-0.3-0.1-0.5-0.1c0.2,0,0.3,0.1,0.5,0.1
						c0.3,0.2,0.5,0.4,0.5,0.8c0,0.2,0,0.4,0,0.6c0.2,0,0.3,0,0.5,0.1c0.4,0.3,0.6,0.7,0.5,1.2c0,0.4-0.2,0.7-0.5,0.8
						c-0.2,0.1-0.3,0.1-0.5,0.1c0.1-0.1,0.1-0.2,0.2-0.3c0-0.2,0-0.3-0.1-0.5c-0.1-0.1-0.2-0.1-0.3-0.2c0-0.1,0.1-0.1,0.1-0.2
						c0-0.2,0-0.3,0-0.5c0,0.2-0.1,0.3-0.2,0.5c-0.2,0.2-0.5,0.3-0.8,0.2c-0.2-0.1-0.3-0.2-0.4-0.3c0.1-0.3,0.1-0.6,0-0.8
						c-0.1-0.3-0.2-0.5-0.4-0.7c0.1-0.2,0.1-0.4,0.1-0.5c0-0.2-0.1-0.4-0.3-0.5c0.1,0.2,0.2,0.3,0.2,0.5s-0.1,0.4-0.2,0.6
						c0.2,0.2,0.4,0.4,0.4,0.7s-0.1,0.6-0.2,0.9c-0.2,0.5-0.7,0.7-1.2,0.5c0.1-0.1,0.2-0.2,0.2-0.3c0-0.3-0.1-0.5-0.3-0.7
						c0.1,0,0.1,0,0.2-0.1c0.2-0.1,0.4-0.3,0.5-0.6c-0.1,0.2-0.3,0.4-0.6,0.4c-0.2,0.1-0.5,0-0.7-0.1c-0.4-0.1-0.7-0.6-0.7-1
						s0.2-0.7,0.4-0.9s0.5-0.4,0.9-0.4c0.3,0,0.5,0,0.8,0.1c-0.2-0.1-0.5-0.2-0.8-0.3c-0.2,0-0.5,0-0.7,0.1c-0.3-0.6-0.6-1.3-0.7-2
						c0-0.7,0-1.3,0-2V49c-0.2-0.2-0.3-0.5-0.3-0.8c-0.1-0.5,0.2-1,0.7-1.2c0.4-0.1,0.7-0.2,1.1-0.2c0.3,0,0.7-0.1,1-0.3
						c0.2-0.1,0.4-0.2,0.5-0.3c0.2-0.2,0.3-0.4,0.3-0.7s-0.1-0.5-0.2-0.7c-0.2-0.5-0.5-1-0.6-1.3c-0.4-1.5-0.3-3.2,0.4-4.6l0.1-0.3
						h-0.3c-1.2,0.1-2.3,0-3.5-0.3c-1.8-0.4-3-2.1-2.6-4l0,0c0.2-1,0.8-1.9,1.7-2.4c0.3-0.2,0.7-0.5,1-0.8c0.1-0.1,0.2-0.3,0.2-0.5
						s0-0.4,0.1-0.4c0.1-0.3,0.2-0.7,0.3-1c0.1-0.2,0.3-0.4,0.6-0.4c-0.3,0.3-0.4,0.7-0.3,1.1c0.1,0.4,0.4,0.7,0.8,0.8
						c0.4-0.2,0.6-0.6,0.6-1c0-0.5,0.2-1.1,0.3-1.6c0.2-0.7,0.7-1.2,1.4-1.4c-0.3,0.1-0.5,0.5-0.5,0.8s0.1,0.5,0.3,0.7
						s0.2,0.5,0.1,0.8c-0.1,0.2-0.3,0.5-0.4,0.7l-0.3,0.5l0.5-0.2c0.4-0.2,0.8-0.5,1-0.9c0.1-0.4,0.2-0.7,0.3-1.1
						c0.1-0.3,0.4-0.4,0.7-0.5c-0.1,0.1-0.1,0.1-0.2,0.2c0,0.1,0,0.3,0,0.6c0.1,0.4,0.3,0.7,0.6,0.9c0.4-0.2,0.7-0.5,0.8-1
						s0.2-1.1,0.4-1.6c0.1-0.5,0.5-1,1-1.2c0.2-0.1,0.3-0.1,0.5-0.1c-0.2,0.1-0.3,0.2-0.5,0.4c-0.3,0.4-0.2,1,0.2,1.4
						c0.1,0.2,0.2,0.4,0.1,0.6c-0.1,0.4-0.4,0.7-0.8,0.9c-0.2,0.1-0.3,0.2-0.5,0.4c0.3,0,0.6,0,0.9-0.2c0.4-0.1,1-0.4,1.2-0.9
						c0-0.2,0-0.3,0-0.5c0.1-0.8,0.7-1,1.4-1c-0.3,0.2-0.6,0.5-0.8,0.8c-0.1,0.3-0.1,0.6,0,0.9l0.8-0.3c0.7-0.2,1.3-0.6,1.9-1
						c0.3-0.3,0.6-0.7,0.7-1.1c0.2-0.8,0.1-1.6-0.3-2.3c-0.1-0.3-0.4-0.6-0.7-0.8c-0.6-0.1-1.2,0.2-1.3,0.8c0,0.1,0,0.2,0,0.3
						c0.1,0.3,0.2,0.5,0.4,0.7c-0.5-0.2-0.9-0.7-0.9-1.2c0-0.4,0.2-0.7,0.5-0.9c0.3-0.2,0.6-0.4,1-0.4c-0.5-0.2-1-0.3-1.5-0.1
						c-0.3,0.2-0.5,0.5-0.6,0.8c-0.1,0.5-0.1,1-0.1,1.5c-0.5-0.4-0.8-0.9-0.9-1.5c0-0.9,0.6-1.6,1.5-1.6c0.4-0.1,0.7-0.1,1.1,0
						c-0.3-0.3-0.8-0.4-1.2-0.3c-0.1-0.2-0.2-0.4-0.3-0.6c-0.1-0.6-0.1-1.1,0.2-1.7s0.9-1,1.5-1c0.3,0,0.7,0,1,0.1
						c-0.2,0-0.4,0.1-0.6,0.2c-0.3,0.2-0.6,0.4-0.7,0.7c-0.2,0.7-0.1,1.3,0.2,1.9l0.1-0.6c0.1-0.2,0.2-0.5,0.4-0.6
						c0.3-0.3,0.8-0.5,1.2-0.4c-0.5,0.5-0.7,1.3-0.4,2l0.2,0.5c0.1-0.5,0.3-0.9,0.6-1.2c0.3-0.5,0.9-0.7,1.5-0.5
						c0.7,0.1,1.3,0.7,1.4,1.4c-0.4-0.2-0.8-0.3-1.2-0.3c-0.5,0-1,0.4-1.2,0.9c-0.1,0.6,0,1.3,0.3,1.8c0.6,1.2,0.5,2.8-0.4,3.9
						c-0.9,0.9-2,1.5-3.2,1.9l-7.1,2.2c-1,0.3-2,0.7-3,1.3c-0.7,0.4-1.3,0.9-1.7,1.5c-0.6,0.8-0.4,2,0.5,2.6c0,0,0.1,0,0.1,0.1
						c0.6,0.4,1.3,0.6,2.1,0.7c0.9,0.1,1.8-0.1,2.6-0.3c0.5-0.2,1-0.5,1.4-0.9c1-0.8,2-1.5,3.1-2.1c2.1-1,4.3-1.9,6.6-2.6
						C66.3,30.8,67.5,30,68.6,29L68.6,29z M78.2,24.8L78.2,24.8c-0.2,0-0.3,0-0.4-0.1l0.4-0.3V24.8L78.2,24.8z M76.6,26.1
						c-0.1,0.3-0.1,0.6,0,0.9c0.2,0.4,0.5,0.7,0.8,0.9c0.6,0.3,1.3,0.4,2,0.4c0.4,0,0.8-0.1,1.1-0.2c-0.3,0.4-0.8,0.8-1.2,1.1
						l0.3,0.1c1.5,0.7,1.3,2.4,1.5,3.3c0.2,0.6,0.5,1.1,0.9,1.5c0.3,0.3,0.4,0.5,0.5,0.6c-0.4,0.1-0.9,0.1-1.3-0.2s-0.8-0.6-1-1.1
						c-0.3-0.4-0.5-0.9-0.6-1.4c-0.1-0.3-0.1-0.5,0-0.8c-0.1,0.2-0.1,0.5-0.1,0.8c0.1,0.5,0.2,1,0.4,1.5c0.1,0.2,0.2,0.5,0.3,0.7
						l0,0l0,0c0,0.6,0.4,1.2,0.9,1.6c-0.7,0-1.4-0.3-1.8-0.9c-0.2-0.3-0.3-0.6-0.4-0.9c-0.1-0.2-0.1-0.4,0-0.5c0-0.1,0-0.1,0.1-0.2
						v-0.1l0-0.5L78.8,33c-0.2,0.3-0.5,0.6-0.8,0.9c0.3-0.6,0.4-1.2,0.3-1.8v-0.3L78,32c-0.3,0.3-0.5,0.6-0.7,1
						c-0.1,0.1-0.2,0.3-0.2,0.4c0-0.3,0-0.5,0-0.8c0.1-0.3,0.2-0.6,0.4-0.9c0.1-0.1,0.2-0.2,0.2-0.3c0.1-0.1,0.1-0.2,0-0.3l0,0h-0.1
						l-0.1,0.1c-0.3,0.5-0.8,1-1.3,1.3c0.2-0.3,0.3-0.6,0.4-0.9s0-0.6-0.1-0.9L76.3,31c-0.2,0.3-0.4,0.6-0.7,0.8
						c0.1-0.3,0-0.6-0.2-0.8c-0.2-0.3-0.5-0.6-0.8-0.8c0.1,0.4,0,0.8-0.3,1.1c0-0.2-0.1-0.4-0.3-0.6c-0.2-0.3-0.5-0.5-0.8-0.6
						s-0.6-0.2-0.9-0.2c0.3,0.1,0.5,0.2,0.8,0.3c0.1,0.1,0.2,0.1,0.3,0.2c-0.2,0.7-0.8,1.2-1.6,1.3c0.2-0.3,0.3-0.6,0.3-1
						c0-0.3-0.1-0.6-0.3-0.8c0-0.3,0-0.6-0.1-0.9c0,0.4,0,0.7-0.2,1.1l0,0v0.1c-0.2,0.4-0.5,0.7-0.8,0.9c0.1-0.4,0-0.8-0.3-1.1
						c0.1-0.2,0.2-0.5,0.2-0.8s0-0.6-0.1-0.9c0,0.3,0,0.6-0.1,0.9s-0.2,0.5-0.3,0.7c-0.4,0.6-1.1,1-1.8,1c-0.2,0-0.4-0.1-0.6-0.2
						c0.4-0.1,0.8-0.4,1-0.7c0.2-0.4,0.2-1,0-1.4c-0.2-0.5,0-1.1,0.4-1.5l0,0l0,0c0.2-0.4,0.5-0.7,0.8-1l0,0c0.1,0.5,0.2,1,0.4,1.5
						l0.2,0.5l0.2-0.5c0.1-0.3,0.2-0.6,0.4-0.8c-0.1,0.9,0.4,1.7,1.2,2.1l0,0c-0.7-0.7-1-1.7-0.8-2.7l0.1-0.5L71.2,26
						c-0.3,0.3-0.5,0.6-0.7,0.9c-0.1-0.4-0.2-0.9-0.3-1.3v-0.2c0-0.1,0-0.3,0.1-0.4c0-0.3,0-0.6-0.1-0.9c0,0.3,0,0.6-0.1,0.9
						c0,0.2-0.1,0.4-0.2,0.6c-0.4,0.4-0.8,0.8-1.1,1.3c-0.4,0.2-0.9,0.3-1.4,0.3c-0.3,0-0.6-0.2-0.8-0.4c-0.2-0.2-0.3-0.5-0.3-0.7
						c0.5,0.2,1.1,0.1,1.6-0.1c0.4-0.2,0.8-0.6,1-1s0.5-0.9,0.8-1.3V24l0.2-0.5c0.3-0.5,0.6-1,1.1-1.4c0.3-0.3,0.6-0.5,0.9-0.7
						c-0.3,0.6-0.7,1.2-1.1,1.7c-0.2,0.3-0.3,0.7-0.4,1.1c0,0.4,0.1,0.9,0.3,1.3l0.3,0.6v-0.6c0.1-0.8,0.5-1.5,1.2-1.9
						c-0.2,0.6-0.2,1.3,0,1.9c0.3,0.6,0.3,1.3,0.1,1.9l-0.1,0.4c0.5-0.1,0.9-0.4,1.1-0.8s0.3-0.9,0.3-1.5c0-0.3,0-0.6,0-0.9
						c0,0.2,0.1,0.3,0.2,0.5c0.6,0.4,1.2,0.6,1.9,0.7C76.2,25.9,76.4,26,76.6,26.1L76.6,26.1z M69.7,23.3c-0.8,0.4-1.7,0.1-2.1-0.6
						c0-0.1-0.1-0.2-0.1-0.2c0.8,0.1,1.6,0,2.3-0.5C69.6,22.3,69.6,22.8,69.7,23.3z M70.4,20.6c-0.5,0.2-1.1,0.1-1.5-0.3
						c-0.2-0.2-0.3-0.3-0.4-0.6c0.5,0.1,1.1,0,1.6-0.2c0.3,0.3,0.6,0.4,1,0.5C70.9,20.2,70.6,20.4,70.4,20.6L70.4,20.6z M80.8,20.4
						l-0.5-0.2L79.9,20c-0.3-0.1-0.7-0.3-1-0.4c-0.3-0.2-0.6-0.4-0.9-0.6s-0.5-0.5-0.7-0.8h-0.1v0.1c0.2,0.3,0.4,0.6,0.7,0.8
						c0.1,0.1,0.3,0.3,0.5,0.4c0,0.3,0.1,0.5,0.2,0.7c0.1,0.1,0.1,0.3,0.2,0.4c0.2,0.2,0.5,0.3,0.7,0.3c0.2-0.1,0.4-0.2,0.5-0.4l0,0
						l0.9,0.4c0.4,0.3,0.7,0.7,1,1.1c0.1,0.1,0.1,0.2,0.1,0.3c0,0-0.1,0-0.2,0s-0.3,0.1-0.4,0.2l-0.1,0.1c-0.1,0-0.2-0.1-0.3-0.2
						c-0.2-0.1-0.4-0.3-0.6-0.6l0,0c0.1,0.3,0.3,0.5,0.5,0.7s0.3,0.3,0.5,0.5c-0.1,0.3-0.3,0.6-0.5,0.9c-0.1,0.1-0.3,0.2-0.4,0.3
						c-0.2,0-0.3,0-0.5-0.1c-0.2-0.2-0.5-0.4-0.7-0.7c-0.2-0.3-0.5-0.5-0.9-0.5l0,0c-0.5-0.1-1-0.1-1.4,0.1
						c-0.3,0.1-0.5,0.4-0.6,0.7c0,0.2,0,0.4,0.2,0.6c0.1,0.2,0.3,0.3,0.5,0.4s0.4,0.2,0.7,0.3c0.3,0.1,0.5,0.2,0.7,0.4
						c0.1,0.2,0.1,0.5,0,0.7c-0.1,0.1-0.2,0.2-0.3,0.3c-0.2,0.2-0.5,0.2-0.8,0.1c-0.1-0.2-0.1-0.3-0.2-0.4c-0.3-0.4-0.8-0.6-1.2-0.7
						c-0.6-0.1-1.2-0.3-1.7-0.7c-0.1-0.1-0.2-0.2-0.2-0.4c0-0.2,0-0.5,0.1-0.7l0.1-0.4c-0.4,0.2-0.7,0.6-0.8,1.1c0,0.3,0,0.7,0,1
						s0,0.7-0.1,1c-0.1,0.2-0.3,0.4-0.5,0.5c0.1-0.6,0-1.2-0.2-1.8c-0.3-0.7-0.2-1.4,0.1-2.1l0.2-0.5c-0.2,0.1-0.3,0.3-0.5,0.4
						c-0.7,0.4-1.2,1.1-1.6,1.8c-0.2-0.5-0.1-1.1,0.2-1.6c0.5-0.6,0.9-1.3,1.2-2.1l0.1-0.2h-0.2c-0.5,0.1-1,0.4-1.4,0.9
						c-0.3,0.3-0.6,0.6-0.8,1c-0.1-0.5,0-0.9,0.2-1.4c0.3-0.6,0.9-1.1,1.5-1.3l0.5-0.2l-0.6-0.1c-0.6-0.1-1.1-0.4-1.5-0.8
						c-0.3-0.4-0.4-0.9-0.3-1.5c0.4,0.4,0.9,0.7,1.4,0.9c0.5,0.1,1,0,1.4-0.3l0.6-0.3h-0.6c-0.5-0.1-0.9-0.4-1.2-0.8
						c-0.2-0.5-0.1-1.1,0.3-1.5c0.1,0.2,0.2,0.3,0.3,0.5c0.3,0.5,0.8,0.8,1.4,0.9c0,0.3,0.1,0.6,0.2,0.9c-0.1-0.3-0.1-0.5-0.1-0.8
						c0.1-0.5,0.4-1,0.9-1.3c0.2-0.1,0.4-0.3,0.6-0.3c0.5,0.3,0.9,0.6,1.2,1.1c0.3,0.5,0.5,1.1,0.5,1.7c0.1-0.5,0-1-0.2-1.5
						c0.5,0.2,0.9,0.4,1.3,0.7c0.3,0.2,0.5,0.4,0.7,0.7c0.1,0.2,0.3,0.4,0.4,0.6c0.2,0.2,0.4,0.4,0.6,0.5c0.3,0.2,0.5,0.4,0.7,0.6
						C80.6,19.9,80.7,20.1,80.8,20.4L80.8,20.4z M82.1,22.5c0,0.1,0,0.2-0.1,0.3l-0.1,0.1l-0.3-0.2l0.1-0.1
						C81.7,22.6,81.9,22.5,82.1,22.5L82.1,22.5L82.1,22.5z M73.8,17.8l6.1,6.5l0.2,0.1c0.1,0.1,0.2,0.1,0.2,0.1
						c-0.1,0.1-0.2,0.2-0.4,0.2c-0.2,0.1-0.3,0-0.5-0.1c0.1,0,0.1-0.1,0.2-0.1c0.1-0.1,0.2-0.2,0.2-0.3L73.8,17.8z"/>
					<path id="polygon222" class="st18" d="M53.8,38.4l0.6-0.3L53.8,38.4z"/>
					<path id="path146_5" class="st14" d="M78.6,19.7l0.2,0.2c0.2,0.1,0.4,0.2,0.6,0.4l0,0c-0.1,0.1-0.1,0.3,0,0.5c0,0,0,0,0.1,0
						h-0.1l0,0c-0.2-0.1-0.4-0.3-0.6-0.5C78.7,20.1,78.7,19.9,78.6,19.7L78.6,19.7z M79.6,20.4l0.1,0.1h0.1c0,0.1-0.1,0.2-0.1,0.2
						h-0.1C79.5,20.5,79.5,20.4,79.6,20.4L79.6,20.4z"/>
					<path id="path190" class="st13" d="M78.8,30.8c-0.3-0.2-0.5-0.4-0.7-0.6c-0.3-0.3-0.5-0.7-0.6-1c-0.2,0.3-0.2,0.6-0.2,0.9
						l0.1,0.5L77,30.1c-0.2-0.3-0.4-0.6-0.6-1c-0.2,0.2-0.3,0.6-0.3,1l0,0l0,0l0,0c0,0-0.6-0.2-0.8-1.3v0.1l0,0.1l-0.6-0.6
						c0.1,0.4,0.3,0.8,0.4,1.1l0.2,0.4l-0.4-0.1c-0.5-0.2-0.9-0.5-1.2-1l-0.3,0.7l0,0c0-0.4,0.1-0.8,0.2-1.2l0.2-0.2l0.1,0.2
						c0.1,0.4,0.4,0.6,0.7,0.9c-0.2-0.6-0.4-1.4-0.5-1.4L74,27.2l1.2,1.2c0.1-0.2,0.2-0.5,0.2-0.8c0-0.2,0-0.3,0-0.5
						c0-0.3-0.1-0.7-0.3-1c0.2,0.3,0.4,0.6,0.5,0.9c0.1,0.2,0.1,0.3,0.1,0.5c0,0.1,0,0.3,0,0.4c0,0.5,0.1,1.1,0.3,1.6l0,0
						c-0.1-0.5,0.1-0.9,0.3-1.3c0.1-0.1,0.4-0.5,0.4-0.5v0.6c0,0.4,0.1,0.7,0.3,1c0-0.3,0.2-0.6,0.5-0.8l0.2-0.1l0,0l0.1,0.2
						c0.2,0.5,0.4,1.1,0.8,1.5c0-0.2,0.3-0.7,0.4-0.9l0,0c-0.1,0.4-0.1,0.8-0.1,1.2C78.8,30.6,78.8,30.7,78.8,30.8L78.8,30.8z
						 M51.8,49.4c0,0.5,0,1.1,0.1,1.6s0.2,1.1,0.4,1.6c-0.2-0.5-0.4-1.1-0.6-1.6c-0.2-0.5-0.2-1.1-0.3-1.7c0-0.1,0.1-0.1,0.1-0.1
						C51.7,49.2,51.8,49.3,51.8,49.4L51.8,49.4z M52.4,47.4c-0.3,0.1-0.6,0.2-0.8,0.4c-0.1,0.1-0.2,0.3-0.2,0.4c0,0.2,0,0.3,0,0.5
						c-0.1-0.2-0.1-0.3-0.1-0.5s0.1-0.4,0.2-0.5c0.2-0.2,0.4-0.4,0.6-0.5c0.1,0,0.2-0.1,0.2-0.1c0.1,0,0.2,0,0.2,0.1
						C52.5,47.3,52.5,47.4,52.4,47.4L52.4,47.4L52.4,47.4z M76.2,22.4L75.8,23c-0.1,0.2-0.2,0.4-0.3,0.5c-0.1,0.2-0.2,0.4-0.2,0.6
						s0.1,0.4,0.2,0.6c-0.2-0.1-0.4-0.3-0.4-0.6c0-0.2,0-0.5,0.1-0.7s0.2-0.4,0.4-0.6C75.8,22.7,76,22.6,76.2,22.4z M79.1,21.4
						c-0.1,0.2-0.3,0.4-0.5,0.5S78.1,22,77.9,22h-0.3c-0.1,0-0.2,0-0.3,0H77c-0.1,0-0.2,0.1-0.3,0.1c0.1-0.1,0.2-0.2,0.3-0.2
						c0.1,0,0.2,0,0.3,0c0.2,0,0.4,0,0.7,0c0.2,0,0.4-0.1,0.6-0.1c0.2-0.1,0.4-0.1,0.6-0.3L79.1,21.4L79.1,21.4z M75.5,18.4
						c-0.2-0.1-0.4-0.2-0.6-0.2s-0.4,0-0.6,0c-0.2,0.1-0.3,0.2-0.5,0.3c-0.1,0.2-0.2,0.3-0.3,0.5l-0.2-0.2c0.2-0.1,0.3-0.1,0.5-0.2
						c0.2,0,0.4,0,0.5,0c0.4,0,0.7,0.2,1,0.4l0.4,0.4l-0.6-0.1c-0.2,0-0.4,0-0.6,0s-0.4,0-0.6,0.1s-0.4,0.2-0.5,0.3
						c-0.1,0.1-0.2,0.3-0.2,0.5L73,20.1c0.1-0.1,0.3-0.2,0.4-0.2c0.2-0.1,0.3-0.1,0.5-0.2c0.2,0,0.3-0.1,0.5,0
						c0.2,0,0.4,0.1,0.5,0.1l0.4,0.2L75,20.1c-0.2,0-0.4,0.1-0.6,0.1c-0.2,0.1-0.4,0.2-0.6,0.3c-0.2,0.1-0.3,0.3-0.3,0.4
						c-0.1,0.2-0.1,0.4,0,0.5l-0.2-0.1c0.1-0.1,0.1-0.1,0.2-0.2c0.1,0,0.2-0.1,0.2-0.1c0.2-0.1,0.3-0.2,0.5-0.2l0.6-0.1l-0.4,0.4
						c-0.1,0.1-0.2,0.2-0.3,0.3c-0.1,0.1-0.2,0.3-0.2,0.4c-0.1,0.1-0.1,0.3-0.1,0.4s0.1,0.3,0.1,0.4h-0.3c0-0.1,0.1-0.2,0.2-0.4
						c0.1-0.1,0.1-0.2,0.2-0.4c0.1-0.1,0.2-0.2,0.3-0.3c0.1-0.1,0.2-0.2,0.4-0.3l0.3-0.1l-0.1,0.3c-0.1,0.2-0.1,0.4-0.2,0.7
						c0,0.1,0,0.2,0,0.3c0,0.1,0,0.2,0.1,0.3h-0.1c0.1-0.2,0.2-0.3,0.2-0.5c0.1-0.1,0.2-0.3,0.4-0.4c-0.1,0.1-0.2,0.2-0.3,0.4
						c-0.1,0.1-0.1,0.3-0.2,0.5v0.1l-0.1-0.1c-0.1-0.1-0.1-0.2-0.1-0.4c0-0.1,0-0.3,0-0.4s0-0.2,0-0.4c0-0.1,0-0.2,0.1-0.4l0.2,0.2
						c-0.1,0.1-0.2,0.1-0.3,0.2c-0.1,0.1-0.2,0.2-0.2,0.3c-0.1,0.1-0.1,0.2-0.2,0.3c-0.1,0.1-0.1,0.2-0.2,0.3l-0.1,0.3L73.6,23
						c-0.1-0.2-0.2-0.3-0.2-0.5s0-0.4,0.1-0.5c0.1-0.2,0.2-0.3,0.3-0.5c0.1-0.1,0.2-0.3,0.3-0.4l0.1,0.3c-0.1,0-0.3,0.1-0.4,0.2
						l-0.2,0.1c-0.1,0-0.1,0.1-0.2,0.1l-0.2,0.1l-0.1-0.2c-0.1-0.2-0.1-0.5,0-0.8c0.1-0.2,0.2-0.4,0.4-0.6c0.2-0.1,0.4-0.3,0.6-0.3
						c0.2-0.1,0.4-0.1,0.7-0.2l-0.1,0.3C74.4,20,74.2,20,73.9,20c-0.1,0-0.3,0.1-0.4,0.1c-0.1,0.1-0.3,0.1-0.4,0.2L73,20.6v-0.3
						c0-0.3,0.1-0.5,0.2-0.7c0.2-0.2,0.4-0.3,0.6-0.4s0.5-0.1,0.7-0.1s0.5,0,0.7,0l-0.1,0.3C75,19.1,74.7,19,74.4,19
						c-0.2,0-0.3,0-0.5,0c-0.1,0-0.3,0.1-0.4,0.1l-0.4,0.2l0.2-0.4c0.1-0.2,0.2-0.4,0.4-0.6c0.2-0.2,0.4-0.3,0.6-0.3s0.4,0,0.7,0
						C75.1,18.1,75.3,18.2,75.5,18.4L75.5,18.4z M75.8,17.9c0.1-0.5,0-1.1-0.2-1.5c0.5,0.3,0.7,0.9,0.4,1.3
						C75.9,17.8,75.9,17.9,75.8,17.9L75.8,17.9z"/>
				</g>
				<g id="g27">
					<path id="path302" class="st13" d="M139.8,16.7c-0.6-0.1-1.2,0-1.8,0.2l0,0c-0.4,0.1-0.8,0.4-1.1,0.7c-0.9,1.1-1.1,2.6-0.7,3.9
						c0.2,0.6,0.6,1,1.2,1.2c0.1,0,0.1,0.1,0.1,0.1c0,0.1,0,0.2,0,0.4c-0.3,0.5-0.6,1-1.1,1.4c-1.9,1.7-4.1,3-6.5,3.9l0,0l-0.7,0.2
						c-0.1-0.1-0.1-0.1-0.2-0.2l0.4-0.2c0.1-0.1,0.1-0.2,0-0.2l-0.1-0.1c-0.5-0.1-0.8-0.6-1-0.9c0.4,0.1,0.8-0.1,1.1-0.4
						c0.1-0.1,0.1-0.2,0-0.2c0,0,0,0-0.1,0c-0.4-0.2-0.7-0.6-0.9-1c0.4,0,0.8-0.1,1.1-0.5c0.1-0.1,0-0.2,0-0.2s0,0-0.1,0
						c-0.4-0.1-0.6-0.4-0.8-0.8c0.5,0.1,1.1-0.3,1.1-0.9c0-0.1,0-0.1-0.1-0.2c-0.4-0.1-0.8-0.3-1.1-0.6c0.4,0,0.8-0.2,1-0.5
						c0.3-0.4,0.4-0.9,0.3-1.4c0-0.1,0-0.1-0.1-0.1s-0.1,0-0.2,0c-0.4,0.2-0.8,0.3-1.3,0.3c0.3-0.1,0.5-0.4,0.6-0.6
						c0.2-0.2,0.2-0.5,0.2-0.8c-0.1-0.5-0.4-0.9-0.7-1.2c0,0-0.1-0.1-0.1,0c-0.1,0-0.1,0.1-0.1,0.1c-0.2,0.7-0.9,1.2-1.6,1.3
						c0.3-0.5,0.1-1.1-0.3-1.5c0,0-0.1,0-0.2,0s-0.1,0.1-0.1,0.1c0,0.1-0.1,0.3-0.2,0.4c-0.3,0.2-0.6,0.4-1,0.3
						c-0.6-0.1-1.2,0-1.8,0.1c-0.3,0.1-0.5,0.2-0.7,0.4c-0.2,0.2-0.3,0.4-0.3,0.6c-0.7,0.1-1.4,0.3-2.1,0.6
						c-0.5,0.2-0.9,0.6-1.2,1.1c-0.2,0.7-0.1,1.4,0.3,1.9c0,0.1,0.1,0.1,0.2,0.1c0,0,0.1,0,0.1-0.1c0.1-0.2,0.2-0.3,0.3-0.5
						c0.1-0.1,0.3-0.2,0.4-0.2c0.3,0,0.5,0.1,0.7,0.2c0.1,0.1,0.1,0.1,0.2,0s0.3-0.2,0.4-0.2c0.6,0,1.1,0.1,1.6,0.5
						c0.2,0.1,0.4,0.2,0.5,0.4c0,0,0.1,0.1,0.1,0.2l-0.1,0.1c-0.1,0.1-0.2,0.1-0.4,0.1c-0.3,0.1-0.7,0.1-1.1,0.1l-2.2,0.3
						c-0.1,0-0.2,0-0.3,0.1c-0.1,0.1-0.2,0.2-0.2,0.3c0,0.2,0.1,0.3,0.3,0.3c0.2,0.1,0.4,0.1,0.6,0.1c0.6,0.1,1.4,0,2.1,0.1
						c0.5,0,0.9,0.1,1.3,0.2c0.5,0.2,0.6,0.6,0.3,1.1c-0.4,0.7-1,1.3-1.7,1.7c-0.1,0-0.1,0.1-0.1,0.2s0,0.1,0.1,0.1
						c0.2,0.1,0.3,0.1,0.5,0.1c-0.1,0.2-0.2,0.4-0.3,0.7c-2.5,0.1-4.9-0.2-7.3-1c-0.6-0.2-1.1-0.5-1.6-0.9c-0.1-0.1-0.3-0.4-0.1-0.5
						c0.4-0.4,0.6-1,0.6-1.6c0-0.3-0.1-0.6-0.2-0.9l0,0c-0.3-1-1-1.9-2-2.3c-1-0.3-2-0.2-2.9,0.4c-0.5,0.3-0.9,0.7-1.2,1.2
						c-0.6,1.1-0.9,2.4-0.8,3.6c0,2.6-0.4,5.2-1.2,7.6c-0.5,1.5-1.1,3-1.8,4.5c-0.4,0.8-1,1.5-1.7,2.1c-0.2,0.1-0.3,0.4-0.3,0.6
						c0.1,0.3,0.2,0.5,0.5,0.6c0.5,0.2,1.4,0.1,2.7-0.7c0.6-0.4,1.2-0.8,1.6-1.4c1.6-1.8,2.8-4.7,3.6-7c-0.1,0.9-0.4,1.7-0.6,2.6
						c-0.5,1.5-1.1,3-1.8,4.5c-0.4,0.8-1,1.6-1.7,2.2c-0.2,0.1-0.3,0.4-0.3,0.6c0.1,0.3,0.2,0.5,0.5,0.6c0.5,0.2,1.4,0.1,2.7-0.7
						c0.6-0.4,1.1-0.9,1.6-1.4c1.9-2.1,3.3-5.8,4-8c-0.1,1-0.4,2.1-0.7,3.1c-0.4,1.5-1,3-1.7,4.3c-0.4,0.8-1,1.5-1.6,2.1
						c-0.2,0.1-0.3,0.4-0.3,0.6c0.1,0.3,0.2,0.5,0.5,0.5c0.5,0.2,1.4,0.1,2.6-0.7c0.6-0.4,1.1-0.8,1.6-1.4c1.8-2,3.1-5.8,3.8-8.1
						c0,0.9-0.1,1.8-0.3,2.7c-0.3,1.9-1.1,3.7-2.2,5.3c-0.1,0.2-0.2,0.4-0.1,0.7c0.1,0.2,0.3,0.4,0.5,0.4c0.5,0.1,1.3-0.2,2.4-1.1
						c0.5-0.4,0.9-0.9,1.3-1.4c0.9-1.4,1.6-3,2.1-4.6c0.2,0.6,0.5,1.2,0.9,1.7c0.3,0.5,0.7,1,1.2,1.5c0.4,2.1,1.3,4.1,2.6,5.8
						c0,0.1,0.1,0.1,0.2,0.1h0.1v0.1c-0.1,0.4-0.3,0.9-0.5,1.3c-0.1,0.2-0.2,0.4-0.3,0.5c-0.1,0.1-0.1,0.2-0.2,0.2
						c-0.3,0.2-0.7,0.3-1.1,0.3h-0.2c-0.3-0.1-0.6,0-0.9,0.1s-0.5,0.3-0.6,0.6c0,0.1,0,0.2,0,0.3c-0.2,0.2-0.7,0.6-0.6,1.1
						c0.1,0.3,0.2,0.5,0.5,0.6c0.2,0.1,0.4,0.2,0.6,0.2c0.1,0,0.1,0,0.1-0.1c0,0,0-0.1,0-0.2c0-0.1-0.1-0.3-0.1-0.4c0,0,0-0.1,0-0.2
						c0-0.1,0.1-0.1,0.2-0.1c0.1-0.1,0.2-0.1,0.3-0.1l-0.1,0.1c-0.1,0.2-0.1,0.4-0.1,0.6c-0.1,0.1-0.2,0.2-0.3,0.4
						c-0.2,0.3-0.2,0.6-0.1,0.9c0.1,0.4,0.5,0.7,0.9,0.7c0.1,0,0.2,0,0.2-0.1s0-0.1,0-0.2l-0.1-0.1c-0.1-0.1-0.1-0.2-0.1-0.2
						s0-0.1,0-0.2c0.1-0.1,0.3-0.2,0.4-0.3c0.1,0,0.1,0,0.1-0.1c0.1,0,0.2-0.1,0.3-0.2c0.1-0.1,0.2-0.2,0.3-0.3
						c0.1-0.1,0.1-0.3,0.1-0.4l0,0l0,0c-0.1,0.2-0.1,0.5,0,0.7v0.1c-0.1,0.2-0.1,0.3-0.1,0.5c-0.1,0.3,0,0.6,0.2,0.8
						c0.3,0.3,0.7,0.4,1.1,0.2c0.1,0,0.2-0.1,0.2-0.1v-0.1c-0.1-0.1-0.1-0.1-0.2-0.1s-0.2-0.1-0.2-0.2c0,0,0-0.1,0-0.2
						c0-0.1,0-0.2,0.1-0.2c0.1-0.1,0.1-0.2,0.2-0.3l0,0c0.1,0,0.2-0.1,0.3-0.2c0.2-0.2,0.3-0.5,0.2-0.8c-0.1-0.7,0.2-1.3,0.6-1.8
						l0.2-0.2c0.2,0.1,0.3,0.1,0.5,0.2c0.1,0,0.2,0,0.4,0s0.4-0.2,0.6-0.4c0.1-0.1,0.2-0.1,0.2-0.2c0.1,0,0.1-0.1,0.2-0.1
						c0.1,0,0.1,0,0.1,0c0,0.1,0.1,0.1,0.1,0.2v0.1c0,0,0,0.1,0.1,0.1h0.1c0.1,0,0.1-0.1,0.2-0.1c0.2-0.3,0.2-0.6,0.1-0.9
						c-0.1-0.2-0.2-0.3-0.4-0.3c-0.1-0.1-0.3-0.1-0.4-0.1c-0.2,0-0.3,0-0.5,0c-0.1-0.1-0.3-0.1-0.5-0.1c-0.1,0-0.3,0.1-0.4,0.2
						c-0.1,0-0.1,0.1-0.2,0.1c-0.1,0-0.1,0-0.1,0c0-0.2,0-0.4,0-0.6c0-0.2,0.1-0.5,0.2-0.8l0.1-0.3c0.1,0.1,0.2,0.3,0.3,0.4
						c0.1,0.1,0.2,0.1,0.2,0l0,0c0.2-0.4,0.4-0.8,0.6-1.2c0.3,0.6,0.6,1.1,1,1.6c0,0.1,0.1,0.1,0.2,0l0,0l0.4-0.2
						c0,0.7-0.1,1.4-0.3,2.1c-0.1,0.4-0.3,0.8-0.6,1.1c-0.1,0.1-0.2,0.2-0.4,0.2c-0.2,0.1-0.4,0.1-0.6,0.2c-0.2,0-0.5,0.1-0.7,0.2
						c-0.2,0.1-0.4,0.3-0.5,0.6c0,0.1,0,0.2,0,0.3c-0.1,0.1-0.2,0.2-0.2,0.3c-0.2,0.3-0.2,0.6-0.1,0.9c0.1,0.4,0.5,0.6,0.9,0.6
						c0.1,0,0.2,0,0.2-0.1c0,0,0-0.1,0-0.2c0,0,0-0.1-0.1-0.1s-0.2-0.3-0.1-0.4c0.1-0.2,0.3-0.3,0.5-0.3c0.3,0,0.5-0.1,0.6-0.3
						c0.1-0.1,0.1-0.2,0.1-0.3c0.2,0,0.4-0.1,0.6-0.2c-0.1,0.2-0.2,0.4-0.4,0.5s-0.4,0.2-0.5,0.4c-0.1,0.1-0.1,0.2-0.1,0.3
						c0,0.2,0,0.4,0.1,0.5c-0.1,0.1-0.1,0.2-0.1,0.3c-0.1,0.3-0.1,0.6,0.1,0.9c0.2,0.3,0.6,0.5,1,0.4h0.1c0.1,0,0.1-0.1,0.1-0.2
						c0-0.1-0.1-0.1-0.1-0.1h-0.1c-0.1,0-0.1-0.1-0.2-0.2c-0.1-0.1,0-0.3,0.1-0.3c0.1-0.1,0.2-0.2,0.3-0.2l0,0
						c0.3,0,0.5-0.2,0.7-0.4s0.3-0.5,0.2-0.8c0-0.1-0.1-0.3-0.1-0.4c0-0.1,0.1-0.1,0.1-0.2c0.1,0.1,0.1,0.1,0.2,0.2
						c0,0.3,0.1,0.6,0.3,0.8c0.1,0.1,0.3,0.2,0.4,0.2c0.1,0.1,0.3,0.2,0.3,0.4c0,0,0,0.1,0,0.2c-0.1,0.1-0.1,0.2-0.2,0.2
						c-0.1,0-0.1,0.1-0.1,0.2c0,0.1,0,0.1,0.1,0.1h0.1c0.4,0.1,0.8-0.1,1.1-0.4c0.2-0.3,0.2-0.6,0.1-0.9c0-0.1-0.1-0.3-0.1-0.4
						c0-0.1,0.1-0.2,0.1-0.3c0-0.3-0.1-0.6-0.4-0.8c-0.2-0.2-0.3-0.3-0.5-0.4c-0.1-0.1-0.1-0.1-0.1-0.2c-0.1-0.1-0.1-0.2-0.2-0.4
						h0.1c0.1,0,0.2,0,0.3,0s0.1,0.1,0.2,0.1c0.2,0.3,0.6,0.5,1,0.6c0.1,0,0.3,0,0.4,0.1c0.2,0.1,0.4,0.2,0.4,0.3s0.1,0.2,0.1,0.3
						c0.1,0.1,0.1,0.2,0.3,0.2c0.2-0.1,0.3-0.2,0.4-0.3c0.1-0.2,0.1-0.4,0-0.7s-0.2-0.5-0.4-0.7c-0.1-0.1-0.2-0.2-0.3-0.2
						c-0.2-0.5-0.6-0.8-1.1-0.7h-0.2c-0.4,0-0.7-0.1-1-0.3c-0.1-0.1-0.2-0.2-0.3-0.3c0-0.1,0.1-0.9,0.2-1.4c0.2,0.3,0.4,0.5,0.7,0.7
						h0.1c0.1,0,0.1-0.1,0.1-0.2l0,0l0,0c-0.2-0.6-0.2-1.3-0.1-1.9c0.2-0.7,0.4-1.3,0.5-2c0-0.1,0-0.3,0-0.4
						c0.1,0.1,0.1,0.1,0.2,0.2c0.6,0.3,1.1,0.6,1.5,1.1c0.1,0.2,0.1,0.4,0.1,0.6c-0.1,0.3-0.2,0.6-0.4,0.9c-0.2,0.3-0.4,0.7-0.4,1.1
						c0,0.3,0.1,0.6,0.3,0.8c0.3,0.3,0.6,0.5,1,0.6c0.1,0,0.2,0,0.4,0c0.1,0,0.2-0.1,0.4-0.1c0.1-0.1,0.1-0.2,0.1-0.4
						c-0.1-0.2-0.2-0.3-0.4-0.4c-0.1-0.1-0.2-0.2-0.2-0.3c0,0,0-0.1,0.1-0.2c0.1-0.1,0.3-0.2,0.4-0.3c0.8-0.3,1.3-1,1.3-1.8
						c0.1,0.3,0.3,0.6,0.4,0.8c0.2,0.5,0.2,1,0,1.5c-0.1,0.2-0.3,0.4-0.4,0.6c-0.1,0.1-0.1,0.2-0.1,0.3c0,0.2,0.1,0.3,0.3,0.3
						c0.4,0.2,0.9,0.2,1.2-0.1c0.6-0.5,0.9-1.2,1.1-1.9c0.2,0.3,0.3,0.6,0.4,1c0,0.4,0,0.8,0.1,1.2c0.1,0.2,0.2,0.4,0.4,0.5
						c0.3,0.1,0.5,0.2,0.8,0.1c0.3,0,0.5-0.2,0.7-0.4c0.1-0.2,0.2-0.4,0.1-0.6c0.2,0.3,0.5,0.5,0.9,0.6c0.3,0,0.6-0.1,0.9-0.3
						c0.2-0.2,0.4-0.5,0.3-0.8c-0.1-0.3-0.3-0.6-0.6-0.9c0.2,0,0.3,0,0.4-0.1c0.2-0.1,0.4-0.4,0.4-0.6c0.1-0.2,0.1-0.5-0.1-0.7
						c-0.1-0.2-0.3-0.3-0.4-0.4c-0.1-0.1-0.2-0.1-0.4-0.1c0.5-0.3,0.8-0.8,0.9-1.3c0.1-0.5-0.1-0.9-0.4-1.2
						c-0.1-0.1-0.3-0.2-0.4-0.1c-0.1,0.1-0.2,0.1-0.3,0.3s-0.2,0.4-0.3,0.6c-0.5,0.4-1.1,0.6-1.7,0.6c-0.5,0-1,0-1.4-0.1
						c0.3-0.1,0.6-0.3,0.9-0.5c0.2-0.3,0.4-0.6,0.5-1c0.1-0.3,0.1-0.7,0.2-1c0-0.2,0.1-0.4,0.2-0.5c0.1-0.1,0.3-0.1,0.5,0l0,0
						c0.1,0.1,0.2,0.2,0.2,0.4c0,0.1,0.1,0.1,0.2,0.1l0,0c0.4-0.2,0.6-0.6,0.7-1c0-0.3-0.1-0.5-0.2-0.8c-0.3-0.5-0.9-0.7-1.5-0.6
						c-0.4,0.1-0.8,0.4-1.1,0.7s-0.5,0.8-0.9,1s-1,0.3-2.3-0.1c-2.4-1-4.6-2.6-6.2-4.6c-0.5-0.8-1-1.6-1.3-2.4
						c1.3,1.9,3,3.6,4.9,4.9c0.5,0.3,1.1,0.6,1.7,0.8c0.8,0.4,1.8,0.4,2.6,0c0.2-0.1,0.3-0.4,0.3-0.6c0-0.2-0.2-0.4-0.4-0.5
						c-1.6-1-3-2.4-4.1-4c-0.3-0.4-0.9-1.5-1.4-2.4c1.6,1.9,4.3,4.9,6.7,6c0.6,0.3,1.3,0.5,2,0.6c1.4,0.2,2.3,0,2.7-0.4
						c0.2-0.2,0.3-0.4,0.2-0.7c-0.1-0.2-0.3-0.4-0.5-0.5c-0.8-0.3-1.6-0.7-2.3-1.2c-1.2-1-2.3-2.1-3.3-3.3c-0.7-0.8-1.3-1.7-1.9-2.6
						c1.5,1.8,4.2,4.7,6.9,5.8c0.6,0.3,1.3,0.5,2,0.6c1.5,0.2,2.4,0,2.8-0.4c0.2-0.2,0.3-0.5,0.2-0.7s-0.3-0.4-0.5-0.5
						c-0.9-0.3-1.7-0.7-2.4-1.2l0,0c-1.3-1-2.4-2.1-3.5-3.3c-0.4-0.4-1.1-1.4-1.6-2.1c1.6,1.8,3.9,4,6.1,5c0.6,0.3,1.3,0.5,2,0.6
						l0,0c1.5,0.2,2.4,0,2.8-0.5c0.2-0.2,0.3-0.4,0.2-0.7c-0.1-0.2-0.3-0.4-0.5-0.5c-0.9-0.3-1.7-0.7-2.4-1.3
						c-1.2-1-2.4-2.1-3.4-3.3c-1.7-2-3.1-4.3-4.1-6.7c-0.4-1.2-1.2-2.2-2.2-3C140.9,17,140.4,16.8,139.8,16.7L139.8,16.7z"/>
					<path id="path302_6" class="st16" d="M124.8,50.9L124.8,50.9c0.1,0.2,0.2,0.3,0.3,0.4c-0.1,0.1-0.2,0.1-0.2,0.2
						c-0.1,0.1-0.1,0.3,0,0.4V52c-0.2-0.1-0.3-0.2-0.3-0.4C124.5,51.4,124.6,51.1,124.8,50.9z M125.6,21.5l5,26.3v-0.1
						c0-0.1-0.1-0.3-0.1-0.4c0.2,0,0.3,0,0.5,0.1s0.3,0.3,0.3,0.6c-0.1-0.2-0.3-0.2-0.6-0.1L125.6,21.5z M121.7,25.1
						c0.2,0.1,0.3,0.1,0.5,0.1c-0.1,0.1-0.1,0.3-0.2,0.4c0,0.1,0,0.3,0.1,0.4l0.1,0.1c-0.2,0-0.5-0.1-0.6-0.3
						C121.7,25.6,121.7,25.3,121.7,25.1L121.7,25.1z M118.8,23c0.1,0.2,0.2,0.4,0.3,0.5l-0.1,0.1c-0.1,0.1-0.1,0.3-0.1,0.4
						s0,0.1,0,0.2c-0.1,0-0.1-0.1-0.2-0.1c-0.2-0.1-0.3-0.3-0.3-0.5c5,26.1,5.2,25.9,5.4,25.7L118.8,23z M128,45.4
						c0.3-0.1,0.7-0.3,0.9-0.5c0,0,0.1,0.1,0.1,0.2s-0.1,0.4-0.1,0.6s-0.1,0.6-0.2,0.9c0,0.2,0,0.4,0,0.6c0,0.1,0,0.2,0.1,0.2
						c0.1,0.1,0.2,0.1,0.3,0.1s0.3-0.1,0.4-0.2c0.1-0.1,0.3-0.1,0.5-0.1c0.2,0.1,0.3,0.2,0.4,0.5c0,0.1,0,0.3-0.1,0.4
						c-0.1,0.2-0.2,0.3-0.4,0.3h-0.2l-0.4-0.1h-0.1c-0.1,0-0.1,0-0.2,0c-0.1,0.1-0.2,0.1-0.3,0.2c-0.5,0.6-0.8,1.3-0.7,2.1
						c0,0.2-0.1,0.4-0.2,0.6c-0.1,0.1-0.3,0.2-0.4,0.2s-0.2,0-0.3,0c-0.2,0-0.3-0.1-0.3-0.2c0-0.1,0-0.3,0-0.4
						c0.1-0.2,0.1-0.3,0.2-0.5c0-0.1,0.1-0.1,0.1-0.2c0.1-0.1,0.1-0.1,0-0.2l0,0c-0.1,0-0.2,0-0.2,0.1c-0.1,0.2-0.4,0.4-0.6,0.5
						c0,0-0.1,0-0.1,0.1c0,0,0,0.1,0,0.2c0,0.1,0,0.2,0,0.3s-0.1,0.2-0.2,0.2c-0.1,0.1-0.2,0.2-0.4,0.2c-0.2,0-0.3-0.1-0.4-0.2
						c0-0.1-0.1-0.2-0.1-0.2c-0.1-0.2-0.1-0.3,0-0.5c0.2-0.3,0.4-0.5,0.8-0.6c0.2-0.1,0.4-0.2,0.6-0.3c0.1-0.1,0.1-0.2,0-0.2l0,0
						c-0.1,0-0.1,0-0.2,0c-0.2,0.1-0.4,0.2-0.6,0.2c-0.1,0-0.1,0-0.2,0s-0.2,0-0.2,0.1c-0.1,0.2-0.2,0.3-0.3,0.3
						c-0.1,0.1-0.2,0.1-0.4,0.1c-0.1,0-0.2-0.1-0.2-0.1c-0.1-0.1-0.1-0.2-0.1-0.3s0-0.2,0-0.3s0.1-0.3,0.3-0.3
						c0.2-0.1,0.5-0.1,0.7-0.1c0.1,0,0.2,0,0.3,0c0.4,0,0.9-0.2,1.3-0.4c0.1-0.1,0.2-0.2,0.3-0.3c0.1-0.2,0.2-0.4,0.3-0.6
						c0.2-0.4,0.4-0.9,0.6-1.3l0.1-0.3L128,45.4z M130.9,52.8c0.1,0.1,0.3,0.2,0.5,0.2c-0.1,0.1-0.2,0.2-0.2,0.3
						c-0.1,0.1-0.1,0.3,0,0.4c0,0.1,0.1,0.1,0.1,0.1c-0.2,0-0.3-0.1-0.4-0.3c-0.1-0.2-0.1-0.4,0-0.6L130.9,52.8L130.9,52.8z
						 M134.2,52.6c0.2,0,0.3-0.1,0.5-0.2c0,0.1,0.1,0.1,0.1,0.2c0.1,0.2,0.1,0.4,0,0.6c-0.1,0.2-0.2,0.3-0.4,0.3
						c0.1-0.1,0.2-0.4,0.1-0.5C134.3,52.8,134.3,52.6,134.2,52.6z M135.9,50.6l0.1-0.1c0.1-0.1,0.1-0.2,0.2-0.4
						c0.3,0.3,0.5,0.7,0.4,1.1c0,0,0,0.1-0.1,0.1v-0.2C136.4,50.8,136.1,50.6,135.9,50.6L135.9,50.6z M129.2,51.1
						C129.2,51.2,129.3,51.2,129.2,51.1c0.1,0.2,0.2,0.3,0.4,0.3c-0.3,0.2-0.3,0.5-0.2,0.8c-0.2-0.1-0.3-0.2-0.4-0.4
						C128.9,51.6,129,51.4,129.2,51.1L129.2,51.1L129.2,51.1z M128.8,28.6c0.1,0.1,0.1,0.2,0.2,0.2c-0.4,0.2-0.8,0.5-1.2,0.9
						c-0.2,0.2-0.4,0.5-0.6,0.8s-0.3,0.6-0.4,0.9l0,0c0.1-0.3,0.2-0.6,0.4-0.9c0.2-0.3,0.4-0.5,0.6-0.7c0.4-0.4,0.8-0.6,1.3-0.8l0,0
						c0.4-0.1,0.8-0.2,1.2-0.4c2.3-0.9,4.5-2.2,6.4-3.9c0.5-0.4,0.9-1,1.2-1.5c0.1-0.2,0.1-0.4,0-0.6s-0.2-0.3-0.4-0.4
						c-0.5-0.2-0.8-0.5-1-1c-0.1-0.3-0.2-0.5-0.2-0.8c-0.2-1,0.1-2,0.8-2.7c0.3-0.3,0.6-0.5,0.9-0.6l0,0c1-0.4,2.1-0.2,3,0.4
						c1,0.7,1.7,1.7,2.1,2.8c1,2.5,2.4,4.8,4.2,6.8c1,1.2,2.2,2.4,3.5,3.4c0.8,0.6,1.6,1.1,2.6,1.3c0.1,0,0.3,0.1,0.3,0.2
						s0,0.3-0.1,0.4c-0.3,0.3-1,0.6-2.5,0.3c-0.7-0.1-1.4-0.3-2-0.6c-2.5-1.1-5.2-4-6.8-5.8c0.4,0.1,0.8,0,1.1-0.2
						c0.8,0.8,1.6,1.5,2.4,2.2c0.9,0.7,1.8,1.4,2.7,2c-0.9-0.7-1.8-1.4-2.6-2.1c-0.8-0.8-1.6-1.5-2.3-2.3c0.1-0.1,0.1-0.2,0.1-0.3
						c0-0.2,0-0.4-0.1-0.6c-0.1-0.4-0.3-0.7-0.5-1c-0.4-0.6-0.8-1.2-1.3-1.6c0.4,0.6,0.8,1.2,1.1,1.8c0.2,0.3,0.3,0.6,0.4,0.9
						c0.1,0.3,0.1,0.6-0.2,0.8c-0.3,0.2-0.6,0.2-0.9,0.2c-0.3,0-0.7-0.1-1-0.2c-0.7-0.2-1.3-0.5-1.9-0.9c0.6,0.4,1.2,0.8,1.8,1.1
						l0.4,0.2c0.8,1.3,1.7,2.5,2.7,3.6c1,1.3,2.2,2.4,3.5,3.4c0.8,0.6,1.6,1,2.5,1.3c0.1,0,0.2,0.1,0.3,0.2c0,0.1,0,0.3-0.1,0.4
						c-0.3,0.3-1,0.6-2.5,0.3c-0.7-0.1-1.3-0.3-1.9-0.6c-2.8-1.2-6-4.8-7.3-6.4c0.3,0.1,0.6,0.3,0.9,0.3c0.4,0.1,0.8,0.1,1.2,0
						c0.7,0.8,1.5,1.6,2.3,2.3c0.8,0.8,1.7,1.5,2.6,2.2c-0.9-0.7-1.7-1.5-2.5-2.3s-1.5-1.6-2.2-2.4c0.2-0.3,0.2-0.6,0.1-0.9
						c-0.1-0.4-0.2-0.7-0.4-1c-0.4-0.6-0.8-1.2-1.3-1.7l0,0c0.4,0.6,0.8,1.2,1.1,1.8c0.2,0.3,0.3,0.7,0.4,1c0.1,0.3,0.1,0.6-0.2,0.7
						s-0.6,0.1-0.9,0.1c-0.3-0.1-0.7-0.2-1-0.3c-0.6-0.3-1.3-0.6-1.8-1c0.3,0.3,0.6,0.6,1,0.8c0.8,1.5,1.7,2.9,2.8,4.2
						c1,1.2,2.1,2.3,3.3,3.3c0.7,0.6,1.6,1,2.5,1.3c0.1,0,0.2,0.1,0.3,0.2c0,0.1,0,0.3-0.1,0.4c-0.3,0.3-1,0.5-2.4,0.3
						c-0.7-0.1-1.3-0.3-1.9-0.6c-2.7-1.2-6.1-5.2-7.4-6.8l-0.1-0.1c-0.1-0.5-0.3-1-0.5-1.4l0,0c0.2,0.7,0.3,1.4,0.4,2.1
						c0,0.3,0,0.7,0,1c0,0.3-0.2,0.6-0.4,0.7c-0.3,0.1-0.6,0-0.9-0.2c-0.3-0.2-0.6-0.4-0.8-0.6c-0.5-0.5-1-1-1.4-1.6l0,0
						c0.1,0.7,0.1,1.4,0.1,2.1c0,0.3,0,0.7-0.1,1s-0.2,0.6-0.5,0.6s-0.6-0.1-0.9-0.3c-0.3-0.2-0.6-0.4-0.8-0.7
						c-0.5-0.5-1-1.1-1.4-1.6c0.3,0.6,0.8,1.2,1.2,1.8c0.2,0.3,0.5,0.5,0.8,0.8s0.7,0.4,1.1,0.4c0.2,0,0.4-0.1,0.6-0.3
						c0.1-0.1,0.2-0.3,0.2-0.5c0.4,0.8,0.8,1.5,1.4,2.2c1.6,2.1,3.8,3.8,6.3,4.8c0.8,0.4,1.7,0.4,2.6,0c0.5-0.3,0.7-0.8,1-1
						c0.2-0.3,0.6-0.5,0.9-0.6c0.4-0.1,0.9,0.1,1.1,0.5c0.1,0.2,0.2,0.3,0.2,0.5s-0.2,0.5-0.4,0.6c-0.1-0.3-0.3-0.5-0.6-0.5
						c-0.2,0-0.4,0-0.5,0.2c-0.2,0.2-0.3,0.5-0.3,0.7c0,0.6-0.2,1.3-0.6,1.8c-0.3,0.3-0.6,0.5-1,0.5c-0.5,0.1-1,0-1.4-0.1
						s-0.7-0.2-1-0.4c-0.6-0.4-1.2-0.9-1.5-1.5c0.3,0.7,0.8,1.2,1.4,1.7c0.3,0.2,0.6,0.4,1,0.5c0.4,0.2,0.8,0.2,1.2,0.3
						c0.7,0.2,1.4,0.3,2.1,0.3c1,0.2,2-0.4,2.3-1.4l0.1-0.1c0,0,0,0,0.1,0.1c0.3,0.2,0.4,0.6,0.3,0.9c-0.1,0.4-0.4,0.8-0.8,1.1
						c-0.4,0.2-0.8,0.4-1.2,0.4c-0.3,0.1-0.7,0.1-1,0c0.3,0.1,0.7,0.2,1,0.2c0.4,0,0.7,0,1.1-0.1c0.2,0,0.4,0.1,0.6,0.1
						c0.1,0.1,0.2,0.1,0.3,0.3s0.1,0.3,0,0.5c0,0.2-0.1,0.3-0.3,0.4c-0.1,0.1-0.3,0.1-0.4,0.1c-0.2,0-0.4-0.1-0.6-0.2H145
						c-0.1,0-0.1,0.1-0.1,0.2c0,0,0,0.1,0.1,0.1c0.3,0.2,0.6,0.3,0.8,0.6c0.2,0.1,0.3,0.3,0.3,0.5s0,0.4-0.2,0.5
						c-0.1,0.2-0.4,0.2-0.6,0.2c-0.2,0-0.4-0.2-0.5-0.3c-0.2-0.2-0.4-0.5-0.6-0.8c0-0.1-0.1-0.1-0.2-0.1h-0.1c0,0.1,0,0.1,0,0.2
						c0.1,0.2,0.2,0.4,0.2,0.7c0,0.2,0,0.3-0.1,0.5s-0.3,0.3-0.5,0.3c-0.2,0.1-0.4,0-0.6-0.1c-0.1-0.1-0.2-0.2-0.2-0.3
						c-0.1-0.3-0.1-0.7-0.1-1c0-0.2-0.1-0.4-0.1-0.6c-0.2-0.7-0.6-1.3-1-1.8c-0.2-0.2-0.3-0.4-0.6-0.5l0,0c0.2,0.2,0.4,0.5,0.5,0.9
						c0.1,0.3,0.1,0.7,0.1,1c-0.1,0.6-0.4,1.1-0.9,1.5c-0.3,0.2-0.6,0.2-0.9,0.1c-0.1,0-0.1,0-0.1-0.1s0-0.1,0.1-0.2
						c0.2-0.2,0.3-0.4,0.5-0.6c0.2-0.6,0.2-1.2,0-1.8s-0.5-1.2-0.9-1.8c-0.1-0.1-0.1-0.1-0.2-0.1c-0.1,0-0.1,0.1-0.1,0.1v0.1
						c0.1,0.3,0.2,0.7,0.2,1c0.1,0.7-0.4,1.3-1,1.5c-0.2,0.1-0.4,0.2-0.6,0.4c-0.1,0.1-0.1,0.3-0.1,0.4c0,0.2,0.2,0.4,0.3,0.5
						s0.2,0.1,0.2,0.2c0,0,0,0,0,0.1c-0.1,0.1-0.3,0.1-0.4,0c-0.3-0.1-0.6-0.3-0.9-0.5c-0.1-0.2-0.2-0.4-0.2-0.6
						c0-0.3,0.1-0.6,0.3-0.9c0.2-0.3,0.4-0.6,0.5-1c0.1-0.3,0-0.6-0.1-0.8c-0.4-0.5-1-1-1.6-1.2c-0.1-0.1-0.3-0.3-0.4-0.4
						c0-0.4,0-0.8-0.1-1.2c-0.1-0.7-0.4-1.3-0.9-1.8c0.4,0.5,0.7,1.2,0.8,1.8c0.1,0.7,0.1,1.3-0.1,2c-0.1,0.7-0.3,1.3-0.6,1.9
						c-0.1,0.3-0.1,0.7-0.1,1c0,0.2,0,0.4,0.1,0.6c-0.2-0.3-0.4-0.5-0.5-0.9c-0.1-0.2-0.2-0.5-0.2-0.7s-0.1-0.5-0.1-0.7
						c0-0.1,0-0.2,0-0.4s0-0.3-0.2-0.4c0.1,0.1,0,0.3,0,0.4c-0.2,0.4-0.5,0.8-0.9,1.1c-0.3,0.2-0.5,0.4-0.8,0.5
						c-0.4-0.6-0.8-1.3-1.1-1.9c-0.4-0.7-0.7-1.5-0.9-2.2c-0.2-0.8-0.4-1.5-0.5-2.3s0-1.6,0.1-2.4c-0.2,0.8-0.3,1.6-0.2,2.4
						c0,0.6,0.1,1.3,0.3,1.9c-2.2-0.2-4.2-1.5-5.3-3.4c-1.3-2-1.8-4.3-1.5-6.7c0.2-0.9,0.5-1.9,0.9-2.7h0.2c0.3,0,0.6-0.1,0.9-0.2
						c0.2-0.1,0.4-0.3,0.5-0.4c0.1,0.6,0.4,1.2,0.9,1.5h0.1c0.1,0,0.1,0,0.1-0.1c0.3-0.5,0.5-1,0.7-1.5c0.2,0.3,0.5,0.5,0.8,0.6
						C128.1,28.7,128.5,28.7,128.8,28.6L128.8,28.6z M126.3,18.4c0.2,0.2,0.3,0.5,0.2,0.8c-0.2,0.3-0.5,0.6-0.8,0.6
						c-0.2,0.1-0.5,0.1-0.7,0c0.2,0.1,0.5,0.1,0.7,0.1s0.5-0.1,0.7-0.2c0.6,0.1,1.3-0.1,1.7-0.6c0.2-0.2,0.3-0.4,0.4-0.6
						c0.3,0.2,0.4,0.5,0.5,0.9c0,0.3,0,0.5-0.2,0.7c-0.2,0.3-0.5,0.5-0.8,0.6s-0.6,0.1-0.9,0c0.1,0.1,0.3,0.2,0.4,0.2
						c0.2,0.1,0.5,0.1,0.8,0.2c0.5,0.1,1,0,1.5-0.3c0.1,0.5-0.1,0.9-0.6,1.2c-0.3,0.2-0.7,0.2-1,0c-0.1-0.1-0.2-0.2-0.3-0.3
						c0,0.1,0.1,0.3,0.2,0.4c0.1,0.1,0.1,0.2,0.2,0.3c0.3,0.5,0.7,0.8,1.3,0.9c-0.1,0.2-0.3,0.4-0.5,0.4c-0.3,0.1-0.5,0-0.8-0.2
						c-0.1-0.1-0.2-0.2-0.3-0.3c0.1,0.1,0.1,0.3,0.2,0.4c0.1,0.1,0.1,0.2,0.2,0.3c0.1,0.4,0.4,0.8,0.8,1c-0.2,0.1-0.5,0.2-0.7,0.2
						s-0.3-0.1-0.5-0.2c-0.1-0.1-0.2-0.2-0.3-0.4c0,0.2,0.1,0.4,0.2,0.6c0.1,0.1,0.2,0.2,0.3,0.3c0.1,0.5,0.4,1,0.9,1.2
						c-0.2,0.2-0.4,0.2-0.6,0.2c-0.2,0-0.4-0.1-0.5-0.3c-0.1-0.1-0.2-0.3-0.2-0.5c0,0.2,0,0.5,0.1,0.7s0.1,0.3,0.2,0.5
						c0.2,0.4,0.5,0.8,0.9,1c-0.5,0.3-1.1,0.3-1.5,0.1c-0.2-0.2-0.4-0.4-0.5-0.7c0-0.1-0.1-0.1-0.2-0.1s-0.1,0-0.1,0.1
						c-0.1,0.6-0.3,1.1-0.6,1.6c-0.3-0.3-0.4-0.6-0.5-0.9c-0.1-0.2-0.1-0.5-0.2-0.7c0-0.1-0.1-0.1-0.1-0.1c-0.1,0-0.1,0-0.2,0.1
						c-0.1,0.3-0.3,0.5-0.6,0.7c-0.5,0.2-1,0.2-1.5,0.1c0.8-0.4,1.4-1.2,1.7-2c0-0.3,0-0.5-0.2-0.8c0.3-0.1,0.6-0.2,0.9-0.3
						c0.4-0.2,0.6-0.7,0.4-1.1s-0.4-0.7-0.8-1l-0.9-0.8l0,0l0.8,0.9c0.3,0.3,0.5,0.6,0.7,1c0.1,0.3,0,0.7-0.4,0.9l0,0
						c-0.3,0.2-0.7,0.2-1.1,0.3l0,0c-0.5-0.2-1-0.3-1.6-0.3c-0.7,0-1.5,0-2.1-0.1c-0.2,0-0.4-0.1-0.6-0.1h-0.1l0,0
						c0.1,0,0.1-0.1,0.2-0.1c0.5,0,1.7-0.2,2.4-0.3c0.3,0,0.6-0.1,0.9-0.1c0.2,0,0.3-0.1,0.5-0.1c0.1,0,0.2-0.1,0.2-0.2s0-0.2,0-0.3
						c-0.2-0.3-0.4-0.5-0.7-0.7c-0.5-0.4-1.2-0.6-1.8-0.5c-0.2,0-0.4,0.1-0.5,0.2c-0.3-0.1-0.6-0.2-0.8-0.2c-0.2,0-0.4,0.1-0.6,0.3
						c-0.1,0.1-0.2,0.2-0.3,0.3c-0.2-0.4-0.3-0.9-0.1-1.4c0.2-0.4,0.6-0.8,1-1c0.6-0.3,1.3-0.5,2-0.6c0.1,0.2,0.3,0.4,0.5,0.5
						c-0.2,0.1-0.3,0.4-0.3,0.6s0,0.3,0.1,0.5c0.1,0.1,0.2,0.3,0.4,0.3c0.3,0.2,0.7,0.2,0.9,0c0.3-0.1,0.4-0.4,0.5-0.7
						c0.1,0,0.3,0.1,0.4,0.1c0.4,0,0.8,0,1.1,0c-0.4,0-0.8,0-1.1-0.1c-0.2,0-0.4-0.1-0.5-0.2c-0.2-0.1-0.3-0.2-0.4-0.3
						c0,0,0,0-0.1,0s-0.3-0.1-0.4-0.1c-0.1-0.1-0.3-0.1-0.4-0.2c-0.2-0.2-0.4-0.4-0.5-0.6c0-0.2,0.1-0.3,0.2-0.5
						c0.2-0.1,0.4-0.2,0.6-0.3c0.6-0.1,1.2-0.1,1.7-0.1c0.5,0.1,0.9-0.1,1.3-0.4C126.1,18.6,126.2,18.5,126.3,18.4L126.3,18.4z
						 M132.4,45.9l0.2-0.1c0.2-0.1,0.4-0.3,0.5-0.5c0,0.4,0.1,0.7,0.3,1.1v0.1c-0.1,0.7-0.2,1.4-0.3,1.9c0,0.1,0,0.1,0.1,0.3
						c0.1,0.1,0.2,0.2,0.3,0.3c0.4,0.2,0.8,0.4,1.2,0.4h0.2c0.4,0,0.8,0.2,0.9,0.6c0,0.1-0.1,0.3-0.2,0.4c-0.1,0.1-0.2,0.2-0.4,0.2
						s-0.4-0.1-0.8-0.5c-0.1-0.1-0.1-0.1-0.2-0.2c-0.2-0.1-0.3-0.1-0.5-0.1c0,0-0.2,0-0.3,0s-0.1,0-0.2,0.1c-0.1,0.1-0.1,0.2,0,0.2
						l0.1,0.2c0.1,0.1,0.1,0.2,0.2,0.4c0,0.2,0.2,0.3,0.3,0.4c0.2,0.1,0.3,0.2,0.4,0.3c0.2,0.1,0.3,0.3,0.3,0.5
						c0,0.1-0.1,0.2-0.1,0.3c-0.1,0.1-0.3,0.2-0.5,0.2c-0.1,0-0.2,0-0.2,0c-0.1,0-0.2,0-0.2-0.1c-0.1-0.2-0.2-0.5-0.2-0.7
						c0-0.1,0-0.1-0.1-0.1c-0.1-0.1-0.3-0.2-0.3-0.3s-0.1-0.1-0.1-0.1c-0.1,0-0.1,0-0.2,0.1c-0.1,0.2-0.2,0.3-0.3,0.4
						c-0.1,0.1-0.1,0.2,0,0.2l0,0c0.1,0.1,0.1,0.2,0.1,0.3c0,0.2,0,0.4-0.2,0.5c-0.4,0.4-0.9,0.4-1.3,0l0,0c-0.1-0.1-0.1-0.4,0-0.5
						s0.2-0.2,0.3-0.3l0.1-0.1c0.3-0.3,0.5-0.6,0.6-1c0.1-0.1,0.1-0.2,0-0.3c-0.1,0-0.1,0-0.2,0c-0.2,0.2-0.5,0.3-0.8,0.3
						c-0.1,0-0.3,0-0.3,0.2c0,0.1,0,0.2,0,0.2c-0.1,0.1-0.2,0.2-0.3,0.2c-0.3,0.1-0.5,0-0.7-0.2c-0.1-0.1-0.1-0.1-0.1-0.4
						c0-0.2,0.1-0.3,0.3-0.4c0.1-0.1,0.3-0.1,0.4-0.1h0.2c0.2,0,0.4-0.1,0.6-0.2c0.2-0.1,0.4-0.2,0.5-0.3c0.3-0.4,0.5-0.8,0.6-1.2
						C132.4,47.6,132.5,46.8,132.4,45.9L132.4,45.9z M125.2,40c1.2,1,2.6,1.6,4.1,1.7l0.1,0.2c0.2,0.8,0.5,1.5,0.9,2.3
						c0,0,0,0.1,0.1,0.1c-0.2,0.4-0.4,0.8-0.6,1.2c-0.2-0.3-0.4-0.6-0.5-0.9c0-0.1,0-0.2,0-0.3s0-0.1,0-0.2c0-0.1,0-0.1-0.1-0.2
						c0,0.1,0,0.1,0,0.2c0,0.1,0,0.1-0.1,0.2c-0.1,0.1-0.1,0.2-0.2,0.3c-0.4,0.3-0.8,0.5-1.2,0.7C126.4,43.7,125.6,41.9,125.2,40
						L125.2,40z M122.6,29.6c-0.2,0.5-0.4,1.1-0.5,1.7s-0.1,1.3-0.1,1.9l-0.2,0.4c-0.1,0.3-0.3,0.6-0.5,0.9
						c-0.2,0.3-0.4,0.5-0.7,0.5c-0.3,0.1-0.5-0.2-0.7-0.5s-0.3-0.6-0.4-1c-0.2-0.7-0.4-1.4-0.5-2.1l0,0c0,0.5,0,1,0.1,1.5
						c0,0.1,0,0.1-0.1,0.2c-0.5,2-2.1,7-4,9.2c-0.4,0.5-0.9,0.9-1.5,1.3c-1.2,0.8-2,0.8-2.3,0.7c-0.1,0-0.2-0.2-0.3-0.3
						c0-0.1,0.1-0.3,0.2-0.3c0.7-0.6,1.3-1.4,1.7-2.2c0.7-1.4,1.3-2.9,1.7-4.4c0.5-1.6,0.7-3.3,0.9-5c0.2-0.4,0.4-0.8,0.6-1.1
						c-0.4,0.6-0.8,1.2-1.3,1.7c-0.2,0.3-0.5,0.5-0.8,0.7c-0.2,0.2-0.6,0.3-0.9,0.3s-0.5-0.3-0.5-0.6s0-0.7,0-1
						c0-0.7,0.1-1.4,0.2-2.1l0,0c-0.3,0.7-0.4,1.4-0.5,2.1c-0.1,0.4-0.1,0.7,0,1.1c0,0.3,0.2,0.6,0.5,0.8c-0.3,1-0.7,2-1,3
						c-0.4,1-0.8,2.1-1.3,3c0.6-1,1.1-2,1.5-3s0.8-2,1.2-3l0,0c0.4,0,0.8-0.1,1.1-0.4c0.2-0.2,0.5-0.4,0.7-0.7c-0.6,2-2,6.5-4.1,8.8
						c-0.5,0.5-1,1-1.6,1.3c-1.2,0.8-2,0.8-2.4,0.7c-0.1-0.1-0.3-0.2-0.3-0.3s0.1-0.3,0.2-0.3c0.7-0.6,1.3-1.3,1.7-2.2
						c0.8-1.4,1.4-2.9,1.9-4.5c0.4-1.4,0.7-2.8,0.9-4.3c0.1-0.1,0.2-0.2,0.3-0.3c0.5-0.5,0.9-1.1,1.2-1.7c-0.4,0.6-0.9,1.1-1.4,1.5
						c-0.2,0.2-0.5,0.4-0.8,0.6c-0.3,0.2-0.6,0.2-0.9,0.2s-0.4-0.3-0.5-0.7c0-0.3,0-0.7,0-1c0.1-0.7,0.2-1.4,0.3-2.1
						c-0.3,0.6-0.5,1.3-0.6,2c0,0.4,0,0.7,0,1.1c0,0.3,0.2,0.6,0.4,0.8c-0.4,1-0.8,2.1-1.2,3.1c-0.4,1-0.9,2-1.5,3
						c0.6-0.9,1.2-1.9,1.7-2.9s0.9-2,1.3-3c0.4,0.1,0.8,0,1.1-0.2c-0.7,2.2-2,6-3.9,8c-0.5,0.5-1,1-1.6,1.3c-1.2,0.8-2,0.8-2.4,0.7
						c-0.1-0.1-0.2-0.2-0.3-0.3c0-0.1,0.1-0.3,0.2-0.3c0.7-0.6,1.4-1.4,1.8-2.2c0.8-1.4,1.4-2.9,1.9-4.5c0.8-2.5,1.1-5.2,1.1-7.9
						c-0.1-1.2,0.2-2.4,0.8-3.4c0.5-0.9,1.5-1.6,2.6-1.6c0.4,0,0.8,0,1.1,0.1c0.9,0.4,1.6,1.2,1.8,2.1c0.1,0.3,0.1,0.5,0.2,0.8
						c0.1,0.5-0.1,1-0.5,1.3c-0.1,0.1-0.2,0.3-0.2,0.5s0.1,0.4,0.3,0.5c0.5,0.4,1,0.8,1.7,1C117.7,29.4,120.1,29.8,122.6,29.6
						L122.6,29.6z M122,33.8c0.1,0.7,0.2,1.5,0.5,2.2c-0.4,1.8-1.2,3.5-2.1,5c-0.3,0.5-0.8,1-1.2,1.4c-1,0.9-1.7,1-2.1,1
						c-0.2,0-0.3-0.2-0.3-0.3s0-0.2,0.1-0.2c1.1-1.6,1.9-3.5,2.2-5.4c0.2-1,0.3-2.1,0.3-3.1c0.1,0.2,0.2,0.4,0.2,0.6
						c0.1,0.3,0.4,0.5,0.8,0.6c0,0.5-0.1,1-0.1,1.5c-0.1,0.5-0.2,1.1-0.3,1.6c-0.3,1.1-0.6,2.1-1.1,3.1c0.5-1,1-2,1.3-3
						s0.5-2,0.6-3.1c0.4-0.1,0.7-0.4,0.9-0.7C121.7,34.5,121.9,34.2,122,33.8L122,33.8z M134.1,39.8l1-8.2c0.5,0.9,1,1.9,1.6,2.7
						c1.1,1.6,2.5,3,4.2,4c0.1,0.1,0.2,0.2,0.2,0.3s-0.1,0.3-0.2,0.3c-0.7,0.3-1.6,0.3-2.3-0.1c-0.6-0.2-1.1-0.4-1.7-0.8
						c-2-1.5-3.8-3.3-5.2-5.4v-0.2c-0.1-0.7-0.2-1.4-0.4-2.1c0.3,0.6,0.7,1.2,1.2,1.7c0.2,0.3,0.5,0.5,0.8,0.7
						c0.3,0.2,0.7,0.3,1.1,0.3c0.2,0.4,0.5,0.9,0.8,1.3c0.3,0.5,0.6,0.9,1,1.3c0.7,0.9,1.5,1.6,2.4,2.3c-0.8-0.7-1.6-1.5-2.2-2.4
						c-0.3-0.4-0.6-0.9-0.9-1.3c-0.3-0.4-0.5-0.8-0.7-1.3c0.3-0.2,0.4-0.5,0.4-0.9c0-0.2,0-0.4,0-0.6L134.1,39.8z"/>
					<path id="path434" class="st14" d="M122.5,20.6c-0.2,0.2-0.2,0.4-0.2,0.6c0,0.3,0.2,0.5,0.4,0.6c0.1,0.1,0.2,0.1,0.4,0.1
						c0.1,0,0.3,0,0.4-0.1c0.2-0.1,0.4-0.3,0.5-0.5h-0.1c-0.2-0.1-0.3-0.2-0.5-0.3h-0.1c0.1,0.1,0.1,0.3,0,0.4
						c-0.1,0.2-0.4,0.3-0.6,0.2c-0.2-0.1-0.3-0.4-0.2-0.6l0,0c0-0.1,0.1-0.2,0.2-0.2l-0.1-0.1h-0.1L122.5,20.6L122.5,20.6z
						 M123.1,21.2c0,0.1-0.1,0.2-0.2,0.2s-0.2-0.1-0.2-0.2s0.1-0.2,0.2-0.2C123,21.1,123.1,21.1,123.1,21.2z"/>
					<path id="path338" class="st13" d="M138.3,31c0.6,0.9,1.3,1.7,1.9,2.5c0.7,0.8,1.5,1.6,2.3,2.4c-0.8-0.7-1.6-1.5-2.4-2.3
						c-0.7-0.8-1.4-1.6-2.1-2.4c-0.4,0.1-0.8,0-1.1-0.2s-0.6-0.4-0.9-0.6c-0.6-0.4-1.1-1-1.5-1.5c0.5,0.5,1,0.9,1.6,1.4
						c0.3,0.2,0.6,0.4,0.9,0.5c0.3,0.2,0.6,0.2,0.9,0.1c0.3-0.1,0.4-0.4,0.3-0.7c0-0.3-0.1-0.7-0.3-1c-0.3-0.6-0.6-1.3-0.9-1.9l0,0
						c0.4,0.6,0.8,1.2,1.1,1.8c0.2,0.3,0.3,0.7,0.3,1C138.6,30.4,138.5,30.8,138.3,31L138.3,31z M116.7,35c-0.3,1-0.6,2.1-1,3.1
						s-0.8,2-1.3,3c0.4-1,0.8-2,1.1-3.1c0.3-1,0.6-2,0.8-3c-0.3-0.1-0.5-0.4-0.5-0.7c-0.1-0.4-0.1-0.7-0.1-1.1
						c0-0.7,0.1-1.4,0.3-2.1l0,0c-0.1,0.7-0.1,1.4-0.1,2.1c0,0.3,0.1,0.7,0.1,1c0.1,0.3,0.2,0.6,0.6,0.5c0.3-0.1,0.6-0.2,0.8-0.5
						c0.2-0.3,0.4-0.5,0.6-0.8c0.4-0.6,0.7-1.2,1-1.9c-0.2,0.7-0.4,1.4-0.8,2c-0.2,0.3-0.4,0.6-0.6,0.9
						C117.4,34.7,117.1,35,116.7,35L116.7,35z M111.3,29.4l-1.4,2.7l1.1-2.8c0-0.1,0.1-0.1,0.2-0.1
						C111.3,29.2,111.3,29.3,111.3,29.4L111.3,29.4z M114.3,30.7l-1.1,2.6l0.8-2.8c0-0.1,0.1-0.1,0.2-0.1l0,0
						C114.3,30.6,114.3,30.6,114.3,30.7L114.3,30.7L114.3,30.7L114.3,30.7z M117.4,31.6l-0.8,2.8l0.5-2.8c0-0.1,0.1-0.1,0.2-0.1l0,0
						C117.4,31.4,117.5,31.5,117.4,31.6L117.4,31.6L117.4,31.6z M120.8,31.6l-0.3,3v-3c0-0.1,0.1-0.2,0.2-0.2
						C120.7,31.4,120.8,31.5,120.8,31.6L120.8,31.6z M129.8,30.8l1,2.9l-1.3-2.7c0-0.1,0-0.2,0.1-0.2
						C129.7,30.7,129.8,30.7,129.8,30.8L129.8,30.8L129.8,30.8z M133.1,29.5l1.2,2.8l-1.5-2.6c0-0.1,0-0.2,0-0.2l0,0
						C133,29.4,133.1,29.4,133.1,29.5L133.1,29.5L133.1,29.5z M136.1,28.1l1.6,2.4l-1.8-2.2c-0.1-0.1-0.1-0.2,0-0.2l0,0
						C135.9,28,136,28,136.1,28.1L136.1,28.1L136.1,28.1z M138.7,26.1l1.8,2.2l-2-2c-0.1-0.1-0.1-0.2,0-0.2l0,0
						C138.6,26.1,138.6,26.1,138.7,26.1L138.7,26.1z M140.9,23.7l2.1,2.1l-2.3-1.9c-0.1-0.1-0.1-0.2,0-0.2l0,0
						C140.8,23.6,140.9,23.6,140.9,23.7L140.9,23.7z"/>
				</g>
			</g>
		</g>
	</g>
	<g>
		<defs>
			<rect id="SVGID_00000020387965890605606750000003282571648652167074_" width="195.6" height="280.6"/>
		</defs>
		<clipPath id="SVGID_00000031180413610184998460000018426882984406446743_">
			<use xlink:href="#SVGID_00000020387965890605606750000003282571648652167074_"  style="overflow:visible;"/>
		</clipPath>
		<path style="clip-path:url(#SVGID_00000031180413610184998460000018426882984406446743_);fill:#FFFFFF;" d="M80.3,99.6
			c-12.6,0-22.9,10.2-22.9,30.5c0,25.4,18.2,50.9,40.7,50.9s40.7-25.4,40.7-50.9c0-20.3-10.2-30.5-22.9-30.5
			c-6.9,0-13.5,3.1-17.8,8.5C93.8,102.8,87.2,99.6,80.3,99.6L80.3,99.6z"/>
	</g>
	<g>
		<defs>
			<rect id="SVGID_00000042701323157894965650000001309315367995686792_" width="195.6" height="280.6"/>
		</defs>
		<clipPath id="SVGID_00000131369517768162478330000003014199091454743949_">
			<use xlink:href="#SVGID_00000042701323157894965650000001309315367995686792_"  style="overflow:visible;"/>
		</clipPath>
		<path style="clip-path:url(#SVGID_00000131369517768162478330000003014199091454743949_);fill:#FFFFFF;" d="M30.7,115.8h134.7
			c3,0,5.5,2.4,5.5,5.5v44c0,3-2.4,5.5-5.5,5.5H30.7c-3,0-5.5-2.4-5.5-5.5v-44C25.3,118.3,27.7,115.8,30.7,115.8z"/>
	</g>
	<g>
		<defs>
			<rect id="SVGID_00000038372919755115741750000008712288323039574205_" width="195.6" height="280.6"/>
		</defs>
		<clipPath id="SVGID_00000122711211591082681980000016749971990261266077_">
			<use xlink:href="#SVGID_00000038372919755115741750000008712288323039574205_"  style="overflow:visible;"/>
		</clipPath>
	</g>
	<g>
		<defs>
			<rect id="SVGID_00000145743565843087224940000000481654277318979203_" width="195.6" height="280.6"/>
		</defs>
		<clipPath id="SVGID_00000011009148065316211960000011844141105171572663_">
			<use xlink:href="#SVGID_00000145743565843087224940000000481654277318979203_"  style="overflow:visible;"/>
		</clipPath>
	</g>
	<g>
		<defs>
			<rect id="SVGID_00000152261932042153647520000017866769400431319985_" width="195.6" height="280.6"/>
		</defs>
		<clipPath id="SVGID_00000147192935089759512510000000966379134694230682_">
			<use xlink:href="#SVGID_00000152261932042153647520000017866769400431319985_"  style="overflow:visible;"/>
		</clipPath>
		<path style="clip-path:url(#SVGID_00000147192935089759512510000000966379134694230682_);fill:#FFFFFF;" d="M45,0H16H0.1v16
			c0,7,0,14,0,21c10.2,12.4,28.6,14.2,41,4S55.2,12.4,45,0z"/>
	</g>
	<g>
		<defs>
			<rect id="SVGID_00000109719560472707266750000015464753041020013738_" width="195.6" height="280.6"/>
		</defs>
		<clipPath id="SVGID_00000119098013488842474260000018412707483318443909_">
			<use xlink:href="#SVGID_00000109719560472707266750000015464753041020013738_"  style="overflow:visible;"/>
		</clipPath>
	</g>
</g>
<g class="st22">
	<path class="st15" d="M56.4,130.3h-3.9v-2.6c0-0.8,0-1.2-0.1-1.4c-0.1-0.2-0.3-0.3-0.6-0.3c-0.3,0-0.5,0.1-0.6,0.3
		c-0.1,0.2-0.1,0.7-0.1,1.5v7c0,0.7,0,1.2,0.1,1.4c0.1,0.2,0.3,0.3,0.6,0.3c0.3,0,0.5-0.1,0.6-0.3c0.1-0.2,0.1-0.8,0.1-1.6v-1.9h3.9
		v0.6c0,1.6-0.1,2.7-0.3,3.3s-0.7,1.2-1.5,1.7s-1.7,0.7-2.8,0.7c-1.2,0-2.1-0.2-2.8-0.6c-0.7-0.4-1.2-1-1.5-1.7s-0.4-1.8-0.4-3.3
		v-4.4c0-1.1,0-1.9,0.1-2.4c0.1-0.5,0.3-1.1,0.7-1.6c0.4-0.5,0.9-0.9,1.5-1.2c0.7-0.3,1.4-0.4,2.3-0.4c1.2,0,2.1,0.2,2.9,0.7
		c0.8,0.4,1.2,1,1.5,1.7c0.2,0.7,0.4,1.7,0.4,3.1V130.3z"/>
	<path class="st15" d="M63.6,126.5v2.7l-2.8,7.2h2.8v2.5h-6.4v-2.6l2.8-7.3h-2.5v-2.5H63.6z"/>
	<path class="st15" d="M69.5,138.9c-0.5,0.5-0.8,0.9-0.8,1.3c0,0.4,0.2,0.6,0.7,0.6c0.3,0,0.7-0.1,1.1-0.3l0.4,0.9
		c-0.6,0.3-1.1,0.4-1.6,0.4c-0.6,0-1-0.1-1.4-0.4s-0.5-0.6-0.5-1c0-0.5,0.3-1,0.8-1.5c-0.7,0-1.4-0.2-1.9-0.4s-0.9-0.6-1.2-1
		c-0.3-0.4-0.5-0.9-0.6-1.3s-0.1-1-0.1-1.8v-3.6c0-0.7,0.1-1.3,0.2-1.8c0.1-0.5,0.3-1,0.7-1.4c0.3-0.4,0.8-0.7,1.3-0.9
		s1.2-0.3,2-0.3c1.2,0,2.1,0.2,2.8,0.6s1.1,0.9,1.4,1.6s0.3,1.6,0.3,2.7v1.6h-4.9v2.7c0,0.6,0,1,0.1,1.1c0.1,0.1,0.2,0.2,0.4,0.2
		c0.3,0,0.4-0.1,0.6-0.3c0.1-0.2,0.2-0.5,0.2-1v-1.9h3.6v0.9c0,0.7,0,1.2-0.1,1.7c-0.1,0.4-0.3,0.8-0.6,1.3c-0.3,0.4-0.7,0.8-1.1,1
		C70.7,138.7,70.1,138.8,69.5,138.9z M68.1,129.4v1.5h1.1V130c0-0.6,0-1-0.1-1.2c-0.1-0.2-0.2-0.3-0.5-0.3c-0.2,0-0.3,0.1-0.4,0.2
		C68.1,128.8,68.1,129,68.1,129.4z"/>
	<path class="st15" d="M81.9,130.4h-3.3v-0.7c0-0.6,0-0.9-0.1-1.1c-0.1-0.2-0.2-0.2-0.5-0.2c-0.2,0-0.4,0.1-0.5,0.2
		c-0.1,0.1-0.2,0.3-0.2,0.6c0,0.4,0,0.7,0.1,0.8c0.1,0.2,0.2,0.4,0.5,0.6c0.3,0.2,0.8,0.5,1.6,0.9c1.1,0.5,1.8,1,2.2,1.5
		s0.5,1.2,0.5,2.1c0,1-0.1,1.8-0.4,2.3c-0.3,0.5-0.7,0.9-1.3,1.2c-0.6,0.3-1.4,0.4-2.2,0.4c-1,0-1.8-0.1-2.5-0.4
		c-0.7-0.3-1.1-0.7-1.4-1.2c-0.3-0.5-0.4-1.3-0.4-2.3v-0.6h3.3v0.8c0,0.7,0,1.1,0.1,1.3s0.3,0.3,0.5,0.3c0.3,0,0.5-0.1,0.6-0.2
		c0.1-0.1,0.2-0.4,0.2-0.8c0-0.6-0.1-1-0.2-1.1c-0.1-0.1-0.9-0.6-2.2-1.3c-1.1-0.6-1.8-1.2-2-1.7s-0.4-1.1-0.4-1.8
		c0-1,0.1-1.7,0.4-2.2s0.7-0.8,1.3-1.1c0.6-0.3,1.4-0.4,2.2-0.4c0.8,0,1.5,0.1,2.1,0.3c0.6,0.2,1,0.5,1.3,0.8c0.3,0.3,0.5,0.7,0.6,1
		c0.1,0.3,0.1,0.7,0.1,1.4V130.4z"/>
	<path class="st15" d="M87.2,124.8v2h1v2h-1v6.6c0,0.8,0,1.3,0.1,1.4c0.1,0.1,0.4,0.1,1,0.1v2h-1.5c-0.9,0-1.5,0-1.8-0.1
		s-0.7-0.2-1-0.5c-0.3-0.3-0.5-0.6-0.5-0.9s-0.1-1.1-0.1-2.3v-6.3h-0.8v-2h0.8v-2H87.2z"/>
	<path class="st15" d="M97.5,130.8v3c0,1.1-0.1,1.9-0.2,2.4c-0.1,0.5-0.4,1-0.7,1.5c-0.4,0.5-0.8,0.8-1.4,1c-0.6,0.2-1.2,0.3-2,0.3
		c-0.8,0-1.5-0.1-2.1-0.3c-0.6-0.2-1-0.5-1.3-0.8c-0.3-0.4-0.5-0.8-0.7-1.3s-0.2-1.3-0.2-2.4v-3.2c0-1.2,0.1-2,0.4-2.7
		c0.2-0.6,0.7-1.2,1.3-1.6s1.5-0.6,2.5-0.6c0.8,0,1.6,0.1,2.2,0.4s1.1,0.6,1.4,1s0.6,0.8,0.7,1.3C97.5,129.3,97.5,129.9,97.5,130.8z
		 M93.8,129.9c0-0.6,0-1-0.1-1.2c-0.1-0.2-0.2-0.2-0.4-0.2c-0.2,0-0.4,0.1-0.4,0.2s-0.1,0.6-0.1,1.2v5.6c0,0.6,0,1,0.1,1.1
		c0.1,0.2,0.2,0.3,0.4,0.3c0.2,0,0.4-0.1,0.4-0.2c0.1-0.2,0.1-0.5,0.1-1V129.9z"/>
	<path class="st15" d="M107.1,131.1h-3.6v-1.4c0-0.5,0-0.8-0.1-1c-0.1-0.2-0.2-0.3-0.4-0.3c-0.2,0-0.4,0.1-0.4,0.2
		c-0.1,0.2-0.1,0.5-0.1,1v5.8c0,0.4,0.1,0.8,0.2,1c0.1,0.2,0.3,0.3,0.5,0.3c0.3,0,0.4-0.1,0.5-0.3c0.1-0.2,0.1-0.7,0.1-1.3v-1.5h3.4
		c0,1,0,1.7-0.1,2.2c-0.1,0.5-0.3,1-0.6,1.5c-0.4,0.5-0.8,0.9-1.4,1.2c-0.6,0.3-1.3,0.4-2.1,0.4c-1.1,0-1.9-0.2-2.5-0.5
		c-0.6-0.4-1.1-0.9-1.3-1.5c-0.3-0.7-0.4-1.6-0.4-2.8v-3.5c0-1.1,0.1-1.8,0.3-2.4c0.2-0.5,0.7-1,1.4-1.4s1.5-0.6,2.5-0.6
		c1,0,1.8,0.2,2.5,0.6c0.7,0.4,1.2,0.9,1.4,1.6C107,129.1,107.1,130,107.1,131.1z"/>
	<path class="st15" d="M112,123.7v3.4c0.3-0.3,0.7-0.5,1-0.7c0.4-0.1,0.8-0.2,1.2-0.2c0.7,0,1.2,0.2,1.7,0.5
		c0.5,0.3,0.7,0.7,0.8,1.2s0.2,1.2,0.2,2.4v8.5h-3.8v-8.7c0-0.7,0-1.2-0.1-1.4c-0.1-0.2-0.2-0.3-0.5-0.3c-0.2,0-0.4,0.1-0.5,0.3
		c-0.1,0.2-0.1,0.6-0.1,1.3v8.8h-3.8v-15.1H112z"/>
	<path class="st15" d="M126.8,130.8v3c0,1.1-0.1,1.9-0.2,2.4s-0.4,1-0.7,1.5c-0.4,0.5-0.8,0.8-1.4,1c-0.6,0.2-1.2,0.3-2,0.3
		c-0.8,0-1.5-0.1-2.1-0.3c-0.6-0.2-1-0.5-1.3-0.8c-0.3-0.4-0.5-0.8-0.7-1.3s-0.2-1.3-0.2-2.4v-3.2c0-1.2,0.1-2,0.4-2.7
		c0.2-0.6,0.7-1.2,1.3-1.6c0.6-0.4,1.5-0.6,2.5-0.6c0.8,0,1.6,0.1,2.2,0.4s1.1,0.6,1.4,1c0.3,0.4,0.6,0.8,0.7,1.3
		C126.7,129.3,126.8,129.9,126.8,130.8z M123,129.9c0-0.6,0-1-0.1-1.2c-0.1-0.2-0.2-0.2-0.4-0.2c-0.2,0-0.4,0.1-0.4,0.2
		c-0.1,0.2-0.1,0.6-0.1,1.2v5.6c0,0.6,0,1,0.1,1.1c0.1,0.2,0.2,0.3,0.4,0.3c0.2,0,0.4-0.1,0.4-0.2c0.1-0.2,0.1-0.5,0.1-1V129.9z"/>
	<path class="st15" d="M140.2,126.5l-1.5,12.4h-4.1c-0.2-1.5-0.5-3.5-0.8-6c-0.1,1.1-0.2,2.2-0.4,3.3l-0.4,2.7h-4.1l-1.6-12.4h3.2
		c0,0.3,0.3,2.7,0.8,7.1c0-0.5,0.3-2.8,0.8-7.1h3.1l0.8,7.1c0.1-2.1,0.4-4.4,0.9-7.1H140.2z"/>
	<path class="st15" d="M144.2,131.3h-3.5v-0.8c0-1,0.1-1.7,0.3-2.2s0.7-1,1.3-1.4c0.7-0.4,1.5-0.6,2.6-0.6c1.3,0,2.2,0.2,2.9,0.7
		c0.6,0.5,1,1,1.2,1.7c0.1,0.7,0.2,2,0.2,4.1v6.2h-3.7v-1.1c-0.2,0.4-0.5,0.8-0.9,1c-0.4,0.2-0.8,0.3-1.3,0.3
		c-0.7,0-1.3-0.2-1.8-0.6c-0.5-0.4-0.8-1.2-0.8-2.4v-1c0-0.9,0.1-1.6,0.4-1.9c0.3-0.3,1-0.7,2.2-1.2c1.2-0.5,1.9-0.8,2-1
		s0.1-0.5,0.1-1c0-0.6,0-1.1-0.1-1.3c-0.1-0.2-0.3-0.3-0.5-0.3c-0.3,0-0.4,0.1-0.5,0.2c-0.1,0.2-0.1,0.6-0.1,1.3V131.3z M145.4,133
		c-0.6,0.4-1,0.8-1,1.1s-0.1,0.7-0.1,1.3c0,0.6,0,1.1,0.1,1.2s0.2,0.3,0.5,0.3c0.2,0,0.4-0.1,0.5-0.2c0.1-0.1,0.1-0.5,0.1-1.2V133z"
		/>
</g>
<g class="st22">
	<path class="st15" d="M71.2,144.2h5.1c1.4,0,2.5,0.1,3.2,0.3c0.7,0.2,1.3,0.5,1.7,0.9s0.6,0.9,0.8,1.5c0.1,0.6,0.2,1.5,0.2,2.7v1.7
		c0,1.2-0.1,2.2-0.4,2.7c-0.3,0.6-0.7,1-1.4,1.3c-0.7,0.3-1.6,0.5-2.7,0.5h-1.4v7.9h-5.1V144.2z M76.3,147.5v5c0.1,0,0.3,0,0.4,0
		c0.5,0,0.8-0.1,1-0.3c0.2-0.2,0.3-0.7,0.3-1.4v-1.6c0-0.7-0.1-1.1-0.3-1.3C77.4,147.6,77,147.5,76.3,147.5z"/>
	<path class="st15" d="M88.5,144.2v2.6h-5v-2.6H88.5z M88.5,147.7v16h-5v-16H88.5z"/>
	<path class="st15" d="M95.3,147.7l-0.1,1.5c0.4-0.6,0.8-1,1.3-1.3s1.1-0.4,1.8-0.4c0.8,0,1.5,0.2,2.1,0.6c0.5,0.4,0.9,0.9,1,1.5
		s0.2,1.6,0.2,3v11.2h-4.9v-11.1c0-1.1,0-1.8-0.1-2s-0.3-0.4-0.6-0.4c-0.3,0-0.6,0.1-0.7,0.4c-0.1,0.3-0.1,1-0.1,2.2v10.8h-4.9v-16
		H95.3z"/>
	<path class="st15" d="M113.2,152.8h-4.3v-0.9c0-0.7,0-1.2-0.1-1.4c-0.1-0.2-0.3-0.3-0.6-0.3c-0.3,0-0.5,0.1-0.6,0.3
		c-0.1,0.2-0.2,0.5-0.2,0.8c0,0.5,0,0.9,0.1,1.1c0.1,0.2,0.3,0.5,0.6,0.8c0.3,0.3,1,0.7,2.1,1.2c1.4,0.7,2.4,1.3,2.8,2
		c0.4,0.6,0.7,1.5,0.7,2.7c0,1.3-0.2,2.3-0.5,3s-0.9,1.2-1.7,1.5c-0.8,0.4-1.8,0.5-2.9,0.5c-1.2,0-2.3-0.2-3.2-0.6
		c-0.9-0.4-1.5-0.9-1.8-1.6c-0.3-0.7-0.5-1.7-0.5-3v-0.8h4.3v1c0,0.9,0.1,1.4,0.2,1.7c0.1,0.3,0.3,0.4,0.6,0.4
		c0.3,0,0.6-0.1,0.7-0.3c0.1-0.2,0.2-0.5,0.2-1.1c0-0.8-0.1-1.2-0.3-1.4c-0.2-0.2-1.1-0.8-2.8-1.7c-1.4-0.8-2.3-1.5-2.6-2.2
		s-0.5-1.4-0.5-2.3c0-1.3,0.2-2.2,0.5-2.8c0.3-0.6,0.9-1.1,1.7-1.4c0.8-0.3,1.8-0.5,2.8-0.5c1.1,0,2,0.1,2.7,0.4
		c0.7,0.3,1.3,0.6,1.7,1.1s0.6,0.9,0.7,1.2s0.1,1,0.1,1.8V152.8z"/>
	<path class="st15" d="M125.4,147.7l-2,6.4l2.6,9.7h-4.7l-1.5-7l0,7h-4.9v-19.6h4.9l0,8.2l1.5-4.7H125.4z"/>
</g>
<g class="st22">
	<path class="st17" d="M23.7,22.8c0.6,0.2,1,0.5,1.3,1c0.3,0.5,0.4,1.5,0.4,3.2c0,1.3-0.1,2.2-0.4,2.9s-0.8,1.2-1.5,1.6
		s-1.6,0.5-2.7,0.5c-1.2,0-2.2-0.2-2.9-0.6s-1.2-0.9-1.4-1.5s-0.3-1.7-0.3-3.2v-1.2h3.9V28c0,0.7,0,1.1,0.1,1.3s0.3,0.3,0.5,0.3
		c0.3,0,0.5-0.1,0.6-0.4s0.1-0.8,0.1-1.8v-1.1c0-0.6-0.1-1-0.2-1.3s-0.3-0.5-0.6-0.6s-0.8-0.1-1.6-0.2V22c0.9,0,1.5,0,1.7-0.1
		s0.4-0.2,0.5-0.5s0.1-0.6,0.1-1.1v-0.9c0-0.6-0.1-0.9-0.2-1.1s-0.3-0.3-0.5-0.3c-0.3,0-0.5,0.1-0.6,0.3s-0.2,0.6-0.2,1.2v1.3h-3.9
		v-1.3c0-1.5,0.3-2.5,1-3.1s1.8-0.8,3.3-0.8c1.9,0,3.2,0.4,3.8,1.1s1,1.8,1,3.1c0,0.9-0.1,1.5-0.4,1.9S24.4,22.5,23.7,22.8z"/>
	<path class="st17" d="M35.6,15.9v2.5h-4.9v2.7c0.6-0.7,1.4-1.1,2.4-1.1c1.1,0,1.9,0.3,2.5,0.9s0.8,1.8,0.8,3.5v2.3
		c0,1.1-0.1,1.9-0.2,2.5s-0.3,1-0.7,1.5s-0.8,0.8-1.5,1s-1.4,0.4-2.3,0.4c-1,0-1.9-0.2-2.7-0.5s-1.3-0.9-1.7-1.6s-0.5-1.8-0.5-3.3
		v-0.9h3.9v1c0,1,0,1.7,0.1,2.2s0.3,0.6,0.7,0.6c0.2,0,0.4-0.1,0.5-0.2s0.2-0.3,0.2-0.4s0-0.8,0-1.9V24c0-0.6-0.1-1-0.2-1.2
		s-0.3-0.3-0.6-0.3c-0.2,0-0.3,0.1-0.5,0.2s-0.2,0.2-0.2,0.4s-0.1,0.4-0.1,0.9h-3.9l0.2-8H35.6z"/>
</g>
</svg>
