<?xml version="1.0" encoding="utf-8"?>
<!-- Generator: Adobe Illustrator 26.0.3, SVG Export Plug-In . SVG Version: 6.00 Build 0)  -->
<svg version="1.1" id="Слой_1" xmlns="http://www.w3.org/2000/svg" xmlns:xlink="http://www.w3.org/1999/xlink" x="0px" y="0px"
	 viewBox="0 0 195.6 280.6" style="enable-background:new 0 0 195.6 280.6;" xml:space="preserve">
<style type="text/css">
	.st0{clip-path:url(#SVGID_00000132766444332861824760000016538305853338409348_);fill:#3377BC;}
	.st1{clip-path:url(#SVGID_00000132766444332861824760000016538305853338409348_);}
	.st2{clip-path:url(#SVGID_00000049909493774809786540000015570073958380857748_);}
	.st3{fill:#FFDC24;}
	.st4{fill:#1A1A1A;}
	.st5{fill:#3377BC;}
	.st6{fill:#1F57A4;}
	.st7{fill:#F1AD11;}
	.st8{fill:#FFFFFF;}
	.st9{fill:#AF1739;}
	.st10{fill:#EB5775;}
	.st11{fill:#BADBE9;}
	.st12{fill:#8BB0CC;}
	.st13{fill:#F293A2;}
	.st14{fill:#3E3E3E;}
	.st15{fill:#595959;}
	.st16{fill:#797979;}
	.st17{fill:#EB5A53;}
	.st18{clip-path:url(#SVGID_00000132766444332861824760000016538305853338409348_);enable-background:new    ;}
	.st19{font-family:'Impact';}
	.st20{font-size:52.93px;}
	.st21{clip-path:url(#SVGID_00000132766444332861824760000016538305853338409348_);fill:#FFDC24;}
	.st22{font-size:20px;}
</style>
<g>
	<defs>
		<rect id="SVGID_1_" x="0" y="0" width="195.6" height="280.6"/>
	</defs>
	<clipPath id="SVGID_00000003091144294081318620000012214354640535606201_">
		<use xlink:href="#SVGID_1_"  style="overflow:visible;"/>
	</clipPath>
	
		<rect x="-20.8" y="-43.7" style="clip-path:url(#SVGID_00000003091144294081318620000012214354640535606201_);fill:#3377BC;" width="257.2" height="357.2"/>
	<g style="clip-path:url(#SVGID_00000003091144294081318620000012214354640535606201_);">
		<defs>
			<rect id="SVGID_00000042711015173332256250000009160504849701396876_" x="-11.1" y="-8" width="213.7" height="298.4"/>
		</defs>
		<clipPath id="SVGID_00000182511448384057077350000002014091766016672938_">
			<use xlink:href="#SVGID_00000042711015173332256250000009160504849701396876_"  style="overflow:visible;"/>
		</clipPath>
		<g style="clip-path:url(#SVGID_00000182511448384057077350000002014091766016672938_);">
			<path class="st3" d="M149.3,221.3c3.5,0,6.5-1.9,8.8-5.7c1.4-2.5,2.5-5.1,3.2-7.8c0.4-1.5,0.8-3.2,1.2-4.9
				c2.2,0.2,4.3,0.3,6.5,0.3c2.1,0,4.3-0.1,6.5-0.3c0.3,1.7,0.7,3.4,1.1,4.9c0.7,2.7,1.8,5.4,3.2,7.8c2.3,3.8,5.2,5.7,8.8,5.7
				s6.5-1.9,8.8-5.7c1.4-2.5,2.5-5.1,3.2-7.8c1.3-4.6,2-9.3,2.4-14.1c13.5-8.2,23.6-21,28.3-36.1c0.4,0.3,0.8,0.6,1.2,0.8
				c1.9,1.2,4,1.9,6.2,2c1.5,0,2.9-0.4,4.2-1.1c3.1-1.7,4.8-4.8,5-9.2c0.1-2.8-0.2-5.7-0.9-8.4c-1.4-6-3.5-11.8-6.4-17.3
				c-3-5.6-6.4-9.1-10.6-10.8l-0.6-0.2c-2.5-6.1-5.8-11.7-10-16.8c3.6-9.2,1.2-19.7-6.1-26.4c0-0.5,0.1-1,0.1-1.5
				c0-13.3-10.8-24.1-24.1-24.1h-0.4c-5-5.6-12.2-8.8-19.7-8.9h-0.2c-7.5,0-14.7,3.2-19.7,8.9h-0.4c-13.3,0-24.1,10.8-24.1,24.1
				c0,0.5,0,1,0,1.5c-7.3,6.7-9.7,17.2-6.1,26.4c-6.4,7.7-10.9,16.8-13.2,26.6c-1.3,1.2-2.5,2.6-3.6,4c0-0.1-0.1-0.1-0.1-0.2
				c-1.9-4.7-4.3-8.1-7.1-10.3C90.8,103.3,83,91.5,72.2,82.7c7-7.5,11.4-17,12.6-27.1l1.6-12.2l-11.5,4c-0.4,0.1-3.4,1.1-7.3,2
				l2.7-7.3l-13.8,3.3c-5.3,1.2-10.6,2-16,2.2c-2.2,0.1-4.3,0.2-6.6,0.3c-3.3,0.1-6.7,0.2-10.4,0.5c-9.1,0.7-16.2,3.5-21,8.4
				C-2.6,62.2-5,69.6-4,76.9c-14.6,8.6-25.5,22.4-30.4,38.6c-0.5,0.2-0.9,0.5-1.3,0.8c-3.8,2.5-6.6,6.7-8.5,12.9
				c-1.8,6.1-2.8,12.4-3,18.8c-0.1,2.9,0.1,5.8,0.8,8.7c1.1,4.4,3.4,7.1,6.8,8.2c0.8,0.3,1.7,0.4,2.6,0.4c2.2-0.1,4.3-0.8,6-2.1
				c5.6,12.1,14.7,22.2,26.1,29.1c0.3,4.9,1.1,9.8,2.4,14.6c0.7,2.8,1.8,5.5,3.2,8.1c2.3,3.9,5.3,5.8,8.9,5.8s6.6-2,8.9-5.8
				c1.4-2.5,2.5-5.2,3.2-8.1c0.5-1.6,0.9-3.4,1.2-5.2c4.5,0.5,9.1,0.5,13.7,0c0.3,1.8,0.8,3.6,1.2,5.2c0.7,2.8,1.8,5.5,3.2,8.1
				c2.3,3.9,5.3,5.8,8.9,5.8s6.6-2,8.9-5.8c1.4-2.5,2.5-5.2,3.2-8.1c1.3-4.8,2.1-9.6,2.4-14.6c11.8-7.2,21.1-17.8,26.7-30.4
				c1.7,1.1,3.7,1.7,5.7,1.8c0.8,0,1.6-0.1,2.3-0.3c1.6-0.1,3.2-0.4,4.7-1c1.2-0.5,2.4-1.1,3.6-1.8c5.1,13.8,14.7,25.5,27.3,33.2
				c0.3,4.8,1.1,9.5,2.4,14.1c0.7,2.7,1.8,5.4,3.2,7.8C142.8,219.3,145.8,221.3,149.3,221.3z"/>
			<path class="st3" d="M180.7,189.4c0-10.4,4.6-12.5,7.7-12.5s7.8,2.1,7.8,12.5s-3.5,25.2-7.8,25.2S180.7,199.8,180.7,189.4
				L180.7,189.4z"/>
			<path class="st4" d="M188.5,174.8c-2.6,0-5,1.1-6.7,3.1c-2,2.4-3.2,6-3.2,11.5c0,5.8,0.8,11.5,2.4,17.1c0.6,2.4,1.5,4.6,2.7,6.7
				c1.1,1.8,2.6,3.5,4.9,3.5s3.8-1.7,4.9-3.5c1.2-2.1,2.1-4.4,2.7-6.7c1.5-5.6,2.3-11.3,2.4-17.1c0-5.5-1.2-9.2-3.2-11.5
				C193.5,175.9,191.1,174.8,188.5,174.8z M188.5,179.1c1.3,0,2.6,0.5,3.4,1.6c1.1,1.3,2.2,3.9,2.2,8.7c-0.1,5.4-0.8,10.7-2.2,15.9
				c-0.5,2-1.3,3.9-2.2,5.7c-0.3,0.5-0.7,1-1.2,1.4c-0.5-0.4-0.9-0.8-1.2-1.4c-1-1.8-1.7-3.7-2.2-5.7c-1.4-5.2-2.1-10.5-2.2-15.9
				c0-4.9,1.1-7.4,2.2-8.7C185.9,179.6,187.1,179,188.5,179.1z"/>
			<path class="st3" d="M141.6,189.4c0-10.4,4.6-12.5,7.7-12.5s7.8,2.1,7.8,12.5s-3.5,25.2-7.8,25.2S141.6,199.8,141.6,189.4
				L141.6,189.4z"/>
			<path class="st4" d="M149.3,174.8c-2.6,0-5,1.1-6.7,3.1c-2,2.4-3.2,6-3.2,11.5c0,5.8,0.8,11.5,2.3,17.1c0.6,2.4,1.5,4.6,2.7,6.7
				c1.1,1.8,2.6,3.5,4.9,3.5s3.8-1.7,4.9-3.5c1.2-2.1,2.1-4.4,2.7-6.7c1.5-5.6,2.3-11.3,2.4-17.1c0-5.5-1.2-9.2-3.2-11.5
				C154.4,175.9,151.9,174.8,149.3,174.8L149.3,174.8z M149.3,179.1c1.3,0,2.6,0.5,3.4,1.6c1.1,1.3,2.2,3.9,2.2,8.7
				c-0.1,5.4-0.8,10.7-2.2,15.9c-0.5,2-1.3,3.9-2.2,5.7c-0.3,0.5-0.7,1-1.2,1.4c-0.5-0.4-0.9-0.8-1.2-1.4c-1-1.8-1.7-3.7-2.2-5.7
				c-1.4-5.2-2.1-10.5-2.2-15.9c0-4.9,1.1-7.4,2.2-8.7C146.7,179.6,148,179,149.3,179.1L149.3,179.1z"/>
			<path class="st5" d="M107,131.4c6.3-8.2,11.2-7.1,13.7-5.2s4.9,6.4-1.4,14.6s-18.1,17.9-21.5,15.3S100.7,139.6,107,131.4
				L107,131.4z"/>
			<path class="st4" d="M122,124.5c-2.1-1.6-4.7-2.2-7.2-1.6c-3,0.7-6.2,2.8-9.6,7.2c-3.5,4.6-6.3,9.7-8.5,15c-1,2.2-1.6,4.6-2,7
				c-0.2,2.1-0.1,4.4,1.7,5.8s4,0.9,6,0.2c2.2-1,4.3-2.2,6.2-3.7c4.6-3.5,8.8-7.6,12.3-12.1c3.3-4.4,4.6-8,4.5-11.1
				C125.3,128.5,124.1,126.1,122,124.5z M119.4,127.9c1.1,0.8,1.7,2,1.8,3.3c0.1,1.7-0.6,4.4-3.6,8.2c-3.3,4.2-7.2,8-11.4,11.3
				c-1.6,1.3-3.4,2.3-5.2,3.2c-0.6,0.2-1.2,0.4-1.8,0.4c-0.2-0.6-0.2-1.2-0.1-1.8c0.3-2,0.9-4,1.7-5.9c2.1-5,4.8-9.7,8-13.9
				c3-3.9,5.4-5.3,7-5.6C117,126.8,118.3,127.1,119.4,127.9L119.4,127.9z"/>
			<path class="st4" d="M168.9,77.3c-33.5,0-60.7,27.2-60.7,60.7s27.2,60.7,60.7,60.7c33.5,0,60.6-27.1,60.7-60.6
				C229.5,104.5,202.4,77.3,168.9,77.3z M168.9,84.2c29.7,0,53.7,24.1,53.7,53.7s-24.1,53.7-53.7,53.7c-29.7,0-53.7-24-53.7-53.7
				c0-29.7,24-53.7,53.6-53.7C168.8,84.3,168.9,84.3,168.9,84.2L168.9,84.2z"/>
			<path class="st6" d="M111.7,138c0-31.6,25.6-57.2,57.2-57.2c31.6,0,57.2,25.6,57.2,57.2c0,31.6-25.6,57.2-57.2,57.2
				c-15.2,0-29.7-6-40.5-16.8C117.7,167.7,111.7,153.2,111.7,138z"/>
			<path class="st5" d="M119,135c0-29.2,23.7-52.9,52.9-52.9s52.9,23.7,52.9,52.9s-23.7,52.9-52.9,52.9c-14,0-27.5-5.6-37.4-15.5
				C124.6,162.5,119,149,119,135z"/>
			<path class="st7" d="M111.7,138c0,31.6,25.6,57.2,57.2,57.2c31.6,0,57.2-25.6,57.2-57.2H111.7z"/>
			<path class="st3" d="M119.1,138c1.7,29.2,26.6,51.4,55.8,49.8c26.8-1.5,48.3-22.9,49.8-49.8H119.1z"/>
			<path class="st4" d="M168.9,79.9c-32.1,0-58.1,26-58,58.1c0,32.1,26,58.1,58.1,58c32,0,58-26,58-58
				C227,105.9,201,79.9,168.9,79.9L168.9,79.9z M168.9,81.6c31.1,0,56.3,25.2,56.3,56.3c0,31.1-25.2,56.3-56.3,56.3
				c-31.1,0-56.3-25.2-56.3-56.3C112.5,106.9,137.8,81.7,168.9,81.6C168.9,81.7,168.9,81.7,168.9,81.6L168.9,81.6z"/>
			<path class="st8" d="M168.9,85.6c-7.1,0-14.1,1.5-20.6,4.2c29.5-8.5,60.3,8.6,68.8,38.1c2.8,9.8,2.9,20.2,0.2,30.1
				c11.1-26.7-1.5-57.3-28.2-68.4C182.6,86.9,175.8,85.6,168.9,85.6L168.9,85.6z"/>
			<path class="st7" d="M114.1,138.2h-0.3h-0.1h-0.1h-0.1h-0.1h-0.1h-0.1h-0.1c0,0,756.3,945.5-0.1,0.1l0,0v0.1l0,0v0.1l0,0v0.1v0.1
				v0.1c0,0,0,0,0,0.1v0.1c0,0,0,0.1,0,0.1l0,0l0,0c0,0,0,0,0,0.1v0.1c0,0,0,0,0,0.1c0,0,0,0,0,0.1v0.2c0,0,0,0,0,0.1c0,0,0,0,0,0.1
				c0,0,0,0,0,0.1c0,0,0,0,0,0.1v0.1c0,0,0,0,0,0.1v0.1c0,0,0,0,0,0.1v0.1l0,0v0.1c0,0,0,0,0,0.1l0,0v0.1l0,0h0.1l0,0l0,0h0.1h0.1
				l0,0h0.1h0.1h0.1h0.7h0.1h0.1h0.1h0.1l0,0h0.1l0,0h0.1l0,0l0,0v-0.1l0,0c0,0-3634.2-2907.8,0.1-0.1v-0.1v-0.1c0,0,0,0,0-0.1v-0.1
				v-0.1l0,0l0,0v-0.1c0,0,0,0,0-0.1s0,0,0-0.1s0,0,0-0.1v-0.2c0,0,0,0,0-0.1s0,0,0-0.1s0-0.1,0-0.1s0,0,0-0.1c0,0,0,0,0-0.1
				c0,0,0,0,0-0.1v-0.1v-0.1v-0.1l0,0v-0.1v-0.1l0,0v-0.1l0,0v-0.1l0,0l0,0h-0.1l0,0h-0.1h-0.1h-0.1h-0.1h-0.1h-0.1L114.1,138.2
				L114.1,138.2z"/>
			<path class="st7" d="M114.1,138.2h-0.2h-0.1h-0.1h-0.1h-0.1h-0.1h-0.1h-0.1h-0.1h-0.1c0,0,756.3,945.5-0.1,0.1l0,0v0.1l0,0v0.1
				l0,0v0.1v0.1v0.1l0,0v0.1c0,0,0,0.1,0,0.1l0,0l0,0c0,0,0,0,0,0.1c0,0,0,0,0,0.1c0,0,0,0,0,0.1c0,0,0,0,0,0.1v0.2c0,0,0,0,0,0.1
				c0,0,0,0,0,0.1c0,0,0,0,0,0.1c0,0,0,0,0,0.1v0.1c0,0,0,0,0,0.1v0.1c0,0,0,0,0,0.1v0.1l0,0v0.1v0.1l0,0l0,0l0,0h0.1l0,0l0,0h0.1
				h0.1l0,0h0.1h0.1h0.1h0.7h0.1h0.1h0.1h0.1l0,0h0.1l0,0h0.1l0,0l0,0v-0.1l0,0c0,0-3634.2-2907.8,0.1-0.1v-0.1v-0.1c0,0,0,0,0-0.1
				v-0.1v-0.1l0,0l0,0v-0.1c0,0,0,0,0-0.1s0,0,0-0.1s0,0,0-0.1v-0.2c0,0,0,0,0-0.1s0,0,0-0.1s0-0.1,0-0.1s0,0,0-0.1c0,0,0,0,0-0.1
				c0,0,0,0,0-0.1v-0.1v-0.1v-0.1l0,0v-0.1v-0.1l0,0v-0.1l0,0v-0.1l0,0l0,0h-0.1l0,0h-0.1h-0.1h-0.1h-0.1h-0.1h-0.1h-0.2
				L114.1,138.2z"/>
			<path class="st7" d="M114.1,138.2h-0.2h-0.1h-0.1h-0.1h-0.1h-0.1h-0.1h-0.1h-0.1h-0.1c0,0,756.3,945.5-0.1,0.1l0,0v0.1l0,0v0.1
				l0,0v0.1v0.1v0.1l0,0v0.1c0,0,0,0.1,0,0.1l0,0l0,0c0,0,0,0,0,0.1c0,0,0,0,0,0.1c0,0,0,0,0,0.1c0,0,0,0,0,0.1v0.2c0,0,0,0,0,0.1
				c0,0,0,0,0,0.1c0,0,0,0,0,0.1c0,0,0,0,0,0.1v0.1c0,0,0,0,0,0.1v0.1c0,0,0,0,0,0.1v0.1l0,0v0.1v0.1l0,0l0,0l0,0h0.1l0,0l0,0h0.1
				h0.1l0,0h0.1h0.1h0.1h0.7h0.1h0.1h0.1h0.1l0,0h0.1l0,0h0.1l0,0l0,0v-0.1l0,0c0,0-3634.2-2907.8,0.1-0.1v-0.1v-0.1c0,0,0,0,0-0.1
				v-0.1v-0.1l0,0l0,0v-0.1c0,0,0,0,0-0.1s0,0,0-0.1s0,0,0-0.1v-0.2c0,0,0,0,0-0.1s0,0,0-0.1s0-0.1,0-0.1s0,0,0-0.1c0,0,0,0,0-0.1
				c0,0,0,0,0-0.1v-0.1v-0.1v-0.1l0,0v-0.1v-0.1l0,0v-0.1l0,0v-0.1l0,0l0,0h-0.1l0,0h-0.1h-0.1h-0.1h-0.1h-0.1h-0.1h-0.2
				L114.1,138.2z"/>
			<path class="st7" d="M114.1,138.2h-0.2h-0.1h-0.1h-0.1h-0.1h-0.1h-0.1h-0.1h-0.1h-0.1c0,0,756.3,945.5-0.1,0.1l0,0v0.1l0,0v0.1
				l0,0v0.1v0.1v0.1l0,0v0.1c0,0,0,0.1,0,0.1l0,0l0,0c0,0,0,0,0,0.1c0,0,0,0,0,0.1c0,0,0,0,0,0.1c0,0,0,0,0,0.1v0.2c0,0,0,0,0,0.1
				c0,0,0,0,0,0.1c0,0,0,0,0,0.1c0,0,0,0,0,0.1v0.1c0,0,0,0,0,0.1v0.1c0,0,0,0,0,0.1v0.1l0,0v0.1v0.1l0,0l0,0l0,0h0.1l0,0l0,0h0.1
				h0.1l0,0h0.1h0.1h0.1h0.7h0.1h0.1h0.1h0.1l0,0h0.1l0,0h0.1l0,0l0,0v-0.1l0,0c0,0-3634.2-2907.8,0.1-0.1v-0.1v-0.1c0,0,0,0,0-0.1
				v-0.1v-0.1l0,0l0,0v-0.1c0,0,0,0,0-0.1s0,0,0-0.1s0,0,0-0.1v-0.2c0,0,0,0,0-0.1s0,0,0-0.1s0-0.1,0-0.1s0,0,0-0.1c0,0,0,0,0-0.1
				c0,0,0,0,0-0.1v-0.1v-0.1v-0.1l0,0v-0.1v-0.1l0,0v-0.1l0,0v-0.1l0,0l0,0h-0.1l0,0h-0.1h-0.1h-0.1h-0.1h-0.1h-0.1h-0.2
				L114.1,138.2z"/>
			<path class="st7" d="M114.1,138.2h-0.2h-0.1h-0.1h-0.1h-0.1h-0.1h-0.1h-0.1h-0.1h-0.1c0,0,756.3,945.5-0.1,0.1l0,0v0.1l0,0v0.1
				l0,0v0.1v0.1v0.1l0,0v0.1c0,0,0,0.1,0,0.1l0,0l0,0c0,0,0,0,0,0.1c0,0,0,0,0,0.1c0,0,0,0,0,0.1c0,0,0,0,0,0.1v0.2c0,0,0,0,0,0.1
				c0,0,0,0,0,0.1c0,0,0,0,0,0.1c0,0,0,0,0,0.1v0.1c0,0,0,0,0,0.1v0.1c0,0,0,0,0,0.1v0.1l0,0v0.1v0.1l0,0l0,0l0,0h0.1l0,0l0,0h0.1
				h0.1l0,0h0.1h0.1h0.1h0.7h0.1h0.1h0.1h0.1l0,0h0.1l0,0h0.1l0,0l0,0v-0.1l0,0c0,0-3634.2-2907.8,0.1-0.1v-0.1v-0.1c0,0,0,0,0-0.1
				v-0.1v-0.1l0,0l0,0v-0.1c0,0,0,0,0-0.1s0,0,0-0.1s0,0,0-0.1v-0.2c0,0,0,0,0-0.1s0,0,0-0.1s0-0.1,0-0.1s0,0,0-0.1c0,0,0,0,0-0.1
				c0,0,0,0,0-0.1v-0.1v-0.1v-0.1l0,0v-0.1v-0.1l0,0v-0.1l0,0v-0.1l0,0l0,0h-0.1l0,0h-0.1h-0.1h-0.1h-0.1h-0.1h-0.1h-0.2
				L114.1,138.2z"/>
			<path class="st7" d="M114.1,138.2h-0.2h-0.1h-0.1h-0.1h-0.1h-0.1h-0.1h-0.1h-0.1h-0.1c0,0,756.3,945.5-0.1,0.1l0,0v0.1l0,0v0.1
				l0,0v0.1v0.1v0.1l0,0v0.1c0,0,0,0.1,0,0.1l0,0l0,0c0,0,0,0,0,0.1c0,0,0,0,0,0.1c0,0,0,0,0,0.1c0,0,0,0,0,0.1v0.2c0,0,0,0,0,0.1
				c0,0,0,0,0,0.1c0,0,0,0,0,0.1c0,0,0,0,0,0.1v0.1c0,0,0,0,0,0.1v0.1c0,0,0,0,0,0.1v0.1l0,0v0.1v0.1l0,0l0,0l0,0h0.1l0,0l0,0h0.1
				h0.1l0,0h0.1h0.1h0.1h0.7h0.1h0.1h0.1h0.1l0,0h0.1l0,0h0.1l0,0l0,0v-0.1l0,0c0,0-3634.2-2907.8,0.1-0.1v-0.1v-0.1c0,0,0,0,0-0.1
				v-0.1v-0.1l0,0l0,0v-0.1c0,0,0,0,0-0.1s0,0,0-0.1s0,0,0-0.1v-0.2c0,0,0,0,0-0.1s0,0,0-0.1s0-0.1,0-0.1s0,0,0-0.1c0,0,0,0,0-0.1
				c0,0,0,0,0-0.1v-0.1v-0.1v-0.1l0,0v-0.1v-0.1l0,0v-0.1l0,0v-0.1l0,0l0,0h-0.1l0,0h-0.1h-0.1h-0.1h-0.1h-0.1h-0.1h-0.2
				L114.1,138.2z"/>
			<path class="st7" d="M114.1,138.2h-0.2h-0.1h-0.1h-0.1h-0.1h-0.1h-0.1h-0.1h-0.1h-0.1c0,0,756.3,945.5-0.1,0.1l0,0v0.1l0,0v0.1
				l0,0v0.1v0.1v0.1l0,0v0.1c0,0,0,0.1,0,0.1l0,0l0,0c0,0,0,0,0,0.1c0,0,0,0,0,0.1c0,0,0,0,0,0.1c0,0,0,0,0,0.1v0.2c0,0,0,0,0,0.1
				c0,0,0,0,0,0.1c0,0,0,0,0,0.1c0,0,0,0,0,0.1v0.1c0,0,0,0,0,0.1v0.1c0,0,0,0,0,0.1v0.1l0,0v0.1v0.1l0,0l0,0l0,0h0.1l0,0l0,0h0.1
				h0.1l0,0h0.1h0.1h0.1h0.7h0.1h0.1h0.1h0.1l0,0h0.1l0,0h0.1l0,0l0,0v-0.1l0,0c0,0-3634.2-2907.8,0.1-0.1v-0.1v-0.1c0,0,0,0,0-0.1
				v-0.1v-0.1l0,0l0,0v-0.1c0,0,0,0,0-0.1s0,0,0-0.1s0,0,0-0.1v-0.2c0,0,0,0,0-0.1s0,0,0-0.1s0-0.1,0-0.1s0,0,0-0.1c0,0,0,0,0-0.1
				c0,0,0,0,0-0.1v-0.1v-0.1v-0.1l0,0v-0.1v-0.1l0,0v-0.1l0,0v-0.1l0,0l0,0h-0.1l0,0h-0.1h-0.1h-0.1h-0.1h-0.1h-0.1h-0.2
				L114.1,138.2z"/>
			<path class="st7" d="M114.1,138.2h-0.2h-0.1h-0.1h-0.1h-0.1h-0.1h-0.1h-0.1h-0.1h-0.1c0,0,756.3,945.5-0.1,0.1l0,0v0.1l0,0v0.1
				l0,0v0.1v0.1v0.1l0,0v0.1c0,0,0,0.1,0,0.1l0,0l0,0c0,0,0,0,0,0.1c0,0,0,0,0,0.1c0,0,0,0,0,0.1c0,0,0,0,0,0.1v0.2c0,0,0,0,0,0.1
				c0,0,0,0,0,0.1c0,0,0,0,0,0.1c0,0,0,0,0,0.1v0.1c0,0,0,0,0,0.1v0.1c0,0,0,0,0,0.1v0.1l0,0v0.1v0.1l0,0l0,0l0,0h0.1l0,0l0,0h0.1
				h0.1l0,0h0.1h0.1h0.1h0.7h0.1h0.1h0.1h0.1l0,0h0.1l0,0h0.1l0,0l0,0v-0.1l0,0c0,0-3634.2-2907.8,0.1-0.1v-0.1v-0.1c0,0,0,0,0-0.1
				v-0.1v-0.1l0,0l0,0v-0.1c0,0,0,0,0-0.1s0,0,0-0.1s0,0,0-0.1v-0.2c0,0,0,0,0-0.1s0,0,0-0.1s0-0.1,0-0.1s0,0,0-0.1c0,0,0,0,0-0.1
				c0,0,0,0,0-0.1v-0.1v-0.1v-0.1l0,0v-0.1v-0.1l0,0v-0.1l0,0v-0.1l0,0l0,0h-0.1l0,0h-0.1h-0.1h-0.1h-0.1h-0.1h-0.1h-0.2
				L114.1,138.2z"/>
			<path class="st7" d="M114.1,138.2h-0.2h-0.1h-0.1h-0.1h-0.1h-0.1h-0.1h-0.1h-0.1h-0.1c0,0,756.3,945.5-0.1,0.1l0,0v0.1l0,0v0.1
				l0,0v0.1v0.1v0.1l0,0v0.1c0,0,0,0.1,0,0.1l0,0l0,0c0,0,0,0,0,0.1c0,0,0,0,0,0.1c0,0,0,0,0,0.1c0,0,0,0,0,0.1v0.2c0,0,0,0,0,0.1
				c0,0,0,0,0,0.1c0,0,0,0,0,0.1c0,0,0,0,0,0.1v0.1c0,0,0,0,0,0.1v0.1c0,0,0,0,0,0.1v0.1l0,0v0.1v0.1l0,0l0,0l0,0h0.1l0,0l0,0h0.1
				h0.1l0,0h0.1h0.1h0.1h0.7h0.1h0.1h0.1h0.1l0,0h0.1l0,0h0.1l0,0l0,0v-0.1l0,0c0,0-3634.2-2907.8,0.1-0.1v-0.1v-0.1c0,0,0,0,0-0.1
				v-0.1v-0.1l0,0l0,0v-0.1c0,0,0,0,0-0.1s0,0,0-0.1s0,0,0-0.1v-0.2c0,0,0,0,0-0.1s0,0,0-0.1s0-0.1,0-0.1s0,0,0-0.1c0,0,0,0,0-0.1
				c0,0,0,0,0-0.1v-0.1v-0.1v-0.1l0,0v-0.1v-0.1l0,0v-0.1l0,0v-0.1l0,0l0,0h-0.1l0,0h-0.1h-0.1h-0.1h-0.1h-0.1h-0.1h-0.2
				L114.1,138.2z"/>
			<path class="st7" d="M114.1,138.2h-0.2h-0.1h-0.1h-0.1h-0.1h-0.1h-0.1h-0.1h-0.1h-0.1c0,0,756.3,945.5-0.1,0.1l0,0v0.1l0,0v0.1
				l0,0v0.1v0.1v0.1l0,0v0.1c0,0,0,0.1,0,0.1l0,0l0,0c0,0,0,0,0,0.1c0,0,0,0,0,0.1c0,0,0,0,0,0.1c0,0,0,0,0,0.1v0.2c0,0,0,0,0,0.1
				c0,0,0,0,0,0.1c0,0,0,0,0,0.1c0,0,0,0,0,0.1v0.1c0,0,0,0,0,0.1v0.1c0,0,0,0,0,0.1v0.1l0,0v0.1v0.1l0,0l0,0l0,0h0.1l0,0l0,0h0.1
				h0.1l0,0h0.1h0.1h0.1h0.7h0.1h0.1h0.1h0.1l0,0h0.1l0,0h0.1l0,0l0,0v-0.1l0,0c0,0-3634.2-2907.8,0.1-0.1v-0.1v-0.1c0,0,0,0,0-0.1
				v-0.1v-0.1l0,0l0,0v-0.1c0,0,0,0,0-0.1s0,0,0-0.1s0,0,0-0.1v-0.2c0,0,0,0,0-0.1s0,0,0-0.1s0-0.1,0-0.1s0,0,0-0.1c0,0,0,0,0-0.1
				c0,0,0,0,0-0.1v-0.1v-0.1v-0.1l0,0v-0.1v-0.1l0,0v-0.1l0,0v-0.1l0,0l0,0h-0.1l0,0h-0.1h-0.1h-0.1h-0.1h-0.1h-0.1h-0.2
				L114.1,138.2z"/>
			<path class="st7" d="M114.1,138.2h-0.3h-0.1h-0.1h-0.1h-0.1h-0.1h-0.1h-0.1c0,0,756.3,945.5-0.1,0.1l0,0v0.1l0,0v0.1l0,0v0.1v0.1
				v0.1c0,0,0,0,0,0.1v0.1c0,0,0,0.1,0,0.1l0,0l0,0c0,0,0,0,0,0.1v0.1c0,0,0,0,0,0.1c0,0,0,0,0,0.1v0.2c0,0,0,0,0,0.1c0,0,0,0,0,0.1
				c0,0,0,0,0,0.1c0,0,0,0,0,0.1v0.1c0,0,0,0,0,0.1v0.1c0,0,0,0,0,0.1v0.1l0,0v0.1c0,0,0,0,0,0.1l0,0v0.1l0,0h0.1l0,0l0,0h0.1h0.1
				l0,0h0.1h0.1h0.1h0.7h0.1h0.1h0.1h0.1l0,0h0.1l0,0h0.1l0,0l0,0v-0.1l0,0c0,0-3634.2-2907.8,0.1-0.1v-0.1v-0.1c0,0,0,0,0-0.1v-0.1
				v-0.1l0,0l0,0c0,0,0,0,0-0.1s0,0,0-0.1s0,0,0-0.1s0,0,0-0.1v-0.2c0,0,0,0,0-0.1s0,0,0-0.1s0-0.1,0-0.1s0,0,0-0.1c0,0,0,0,0-0.1
				c0,0,0,0,0-0.1v-0.1v-0.1v-0.1l0,0v-0.1v-0.1l0,0v-0.1l0,0v-0.1l0,0l0,0h-0.1l0,0h-0.1h-0.1h-0.1h-0.1h-0.1h-0.1L114.1,138.2
				L114.1,138.2z"/>
			<path class="st7" d="M114.1,138.2h-0.2h-0.1h-0.1h-0.1h-0.1h-0.1h-0.1h-0.1h-0.1h-0.1c0,0,756.3,945.5-0.1,0.1l0,0v0.1l0,0v0.1
				l0,0v0.1v0.1v0.1l0,0v0.1c0,0,0,0.1,0,0.1l0,0l0,0c0,0,0,0,0,0.1c0,0,0,0,0,0.1c0,0,0,0,0,0.1c0,0,0,0,0,0.1v0.2c0,0,0,0,0,0.1
				c0,0,0,0,0,0.1c0,0,0,0,0,0.1c0,0,0,0,0,0.1v0.1c0,0,0,0,0,0.1v0.1c0,0,0,0,0,0.1v0.1l0,0v0.1c0,0-959.7,767.9,0.1,0.1l0,0l0,0
				h0.1l0,0l0,0h0.1h0.1l0,0h0.1h0.1h0.1h0.7h0.1h0.1h0.1h0.1l0,0h0.1l0,0h0.1l0,0l0,0v-0.1l0,0c0,0-3634.2-2907.8,0.1-0.1v-0.1
				v-0.1c0,0,0,0,0-0.1v-0.1v-0.1l0,0l0,0c0,0,0,0,0-0.1s0,0,0-0.1s0,0,0-0.1s0,0,0-0.1v-0.2c0,0,0,0,0-0.1s0,0,0-0.1s0-0.1,0-0.1
				s0,0,0-0.1c0,0,0,0,0-0.1c0,0,0,0,0-0.1v-0.1v-0.1v-0.1l0,0v-0.1v-0.1l0,0v-0.1l0,0v-0.1l0,0l0,0h-0.1l0,0h-0.1h-0.1h-0.1h-0.1
				h-0.1h-0.1h-0.2L114.1,138.2z"/>
			<path class="st7" d="M114.1,138.2h-0.2h-0.1h-0.1h-0.1h-0.1h-0.1h-0.1h-0.1h-0.1h-0.1c0,0,756.3,945.5-0.1,0.1l0,0v0.1l0,0v0.1
				l0,0v0.1v0.1v0.1l0,0v0.1c0,0,0,0.1,0,0.1l0,0l0,0c0,0,0,0,0,0.1c0,0,0,0,0,0.1c0,0,0,0,0,0.1c0,0,0,0,0,0.1v0.2c0,0,0,0,0,0.1
				c0,0,0,0,0,0.1c0,0,0,0,0,0.1c0,0,0,0,0,0.1v0.1c0,0,0,0,0,0.1v0.1c0,0,0,0,0,0.1v0.1l0,0v0.1c0,0-959.7,767.9,0.1,0.1l0,0l0,0
				h0.1l0,0l0,0h0.1h0.1l0,0h0.1h0.1h0.1h0.7h0.1h0.1h0.1h0.1l0,0h0.1l0,0h0.1l0,0l0,0v-0.1l0,0c0,0-3634.2-2907.8,0.1-0.1v-0.1
				v-0.1c0,0,0,0,0-0.1v-0.1v-0.1l0,0l0,0c0,0,0,0,0-0.1s0,0,0-0.1s0,0,0-0.1s0,0,0-0.1v-0.2c0,0,0,0,0-0.1s0,0,0-0.1s0-0.1,0-0.1
				s0,0,0-0.1c0,0,0,0,0-0.1c0,0,0,0,0-0.1v-0.1v-0.1v-0.1l0,0v-0.1v-0.1l0,0v-0.1l0,0v-0.1l0,0l0,0h-0.1l0,0h-0.1h-0.1h-0.1h-0.1
				h-0.1h-0.1h-0.2L114.1,138.2z"/>
			<path class="st7" d="M114.1,138.2h-0.2h-0.1h-0.1h-0.1h-0.1h-0.1h-0.1h-0.1h-0.1h-0.1c0,0,756.3,945.5-0.1,0.1l0,0v0.1l0,0v0.1
				l0,0v0.1v0.1v0.1l0,0v0.1c0,0,0,0.1,0,0.1l0,0l0,0c0,0,0,0,0,0.1c0,0,0,0,0,0.1c0,0,0,0,0,0.1c0,0,0,0,0,0.1v0.2c0,0,0,0,0,0.1
				c0,0,0,0,0,0.1c0,0,0,0,0,0.1c0,0,0,0,0,0.1v0.1c0,0,0,0,0,0.1v0.1c0,0,0,0,0,0.1v0.1l0,0v0.1c0,0-959.7,767.9,0.1,0.1l0,0l0,0
				h0.1l0,0l0,0h0.1h0.1l0,0h0.1h0.1h0.1h0.7h0.1h0.1h0.1h0.1l0,0h0.1l0,0h0.1l0,0l0,0v-0.1l0,0c0,0-3634.2-2907.8,0.1-0.1v-0.1
				v-0.1c0,0,0,0,0-0.1v-0.1v-0.1l0,0l0,0c0,0,0,0,0-0.1s0,0,0-0.1s0,0,0-0.1s0,0,0-0.1v-0.2c0,0,0,0,0-0.1s0,0,0-0.1s0-0.1,0-0.1
				s0,0,0-0.1c0,0,0,0,0-0.1c0,0,0,0,0-0.1v-0.1v-0.1v-0.1l0,0v-0.1v-0.1l0,0v-0.1l0,0v-0.1l0,0l0,0h-0.1l0,0h-0.1h-0.1h-0.1h-0.1
				h-0.1h-0.1h-0.2L114.1,138.2z"/>
			<path class="st7" d="M114.1,138.2h-0.2h-0.1h-0.1h-0.1h-0.1h-0.1h-0.1h-0.1h-0.1h-0.1c0,0,756.3,945.5-0.1,0.1l0,0v0.1l0,0v0.1
				l0,0v0.1v0.1v0.1l0,0v0.1c0,0,0,0.1,0,0.1l0,0l0,0c0,0,0,0,0,0.1c0,0,0,0,0,0.1c0,0,0,0,0,0.1c0,0,0,0,0,0.1v0.2c0,0,0,0,0,0.1
				c0,0,0,0,0,0.1c0,0,0,0,0,0.1c0,0,0,0,0,0.1v0.1c0,0,0,0,0,0.1v0.1c0,0,0,0,0,0.1v0.1l0,0v0.1c0,0-959.7,767.9,0.1,0.1l0,0l0,0
				h0.1l0,0l0,0h0.1h0.1l0,0h0.1h0.1h0.1h0.7h0.1h0.1h0.1h0.1l0,0h0.1l0,0h0.1l0,0l0,0v-0.1l0,0c0,0-3634.2-2907.8,0.1-0.1v-0.1
				v-0.1c0,0,0,0,0-0.1v-0.1v-0.1l0,0l0,0c0,0,0,0,0-0.1s0,0,0-0.1s0,0,0-0.1s0,0,0-0.1v-0.2c0,0,0,0,0-0.1s0,0,0-0.1s0-0.1,0-0.1
				s0,0,0-0.1c0,0,0,0,0-0.1c0,0,0,0,0-0.1v-0.1v-0.1v-0.1l0,0v-0.1v-0.1l0,0v-0.1l0,0v-0.1l0,0l0,0h-0.1l0,0h-0.1h-0.1h-0.1h-0.1
				h-0.1h-0.1h-0.2L114.1,138.2z"/>
			<path class="st7" d="M114.1,138.2h-0.2h-0.1h-0.1h-0.1h-0.1h-0.1h-0.1h-0.1h-0.1h-0.1c0,0,756.3,945.5-0.1,0.1l0,0v0.1l0,0v0.1
				l0,0v0.1v0.1v0.1l0,0v0.1c0,0,0,0.1,0,0.1l0,0l0,0c0,0,0,0,0,0.1c0,0,0,0,0,0.1c0,0,0,0,0,0.1c0,0,0,0,0,0.1v0.2c0,0,0,0,0,0.1
				c0,0,0,0,0,0.1c0,0,0,0,0,0.1c0,0,0,0,0,0.1v0.1c0,0,0,0,0,0.1v0.1c0,0,0,0,0,0.1v0.1l0,0v0.1c0,0-959.7,767.9,0.1,0.1l0,0l0,0
				h0.1l0,0l0,0h0.1h0.1l0,0h0.1h0.1h0.1h0.7h0.1h0.1h0.1h0.1l0,0h0.1l0,0h0.1l0,0l0,0v-0.1l0,0c0,0-3634.2-2907.8,0.1-0.1v-0.1
				v-0.1c0,0,0,0,0-0.1v-0.1v-0.1l0,0l0,0c0,0,0,0,0-0.1s0,0,0-0.1s0,0,0-0.1s0,0,0-0.1v-0.2c0,0,0,0,0-0.1s0,0,0-0.1s0-0.1,0-0.1
				s0,0,0-0.1c0,0,0,0,0-0.1c0,0,0,0,0-0.1v-0.1v-0.1v-0.1l0,0v-0.1v-0.1l0,0v-0.1l0,0v-0.1l0,0l0,0h-0.1l0,0h-0.1h-0.1h-0.1h-0.1
				h-0.1h-0.1h-0.2L114.1,138.2z"/>
			<path class="st7" d="M114.1,138.2h-0.2h-0.1h-0.1h-0.1h-0.1h-0.1h-0.1h-0.1h-0.1h-0.1c0,0,756.3,945.5-0.1,0.1l0,0v0.1l0,0v0.1
				l0,0v0.1v0.1v0.1l0,0v0.1c0,0,0,0.1,0,0.1l0,0l0,0c0,0,0,0,0,0.1c0,0,0,0,0,0.1c0,0,0,0,0,0.1c0,0,0,0,0,0.1v0.2c0,0,0,0,0,0.1
				c0,0,0,0,0,0.1c0,0,0,0,0,0.1c0,0,0,0,0,0.1v0.1c0,0,0,0,0,0.1v0.1c0,0,0,0,0,0.1v0.1l0,0v0.1c0,0-959.7,767.9,0.1,0.1l0,0l0,0
				h0.1l0,0l0,0h0.1h0.1l0,0h0.1h0.1h0.1h0.7h0.1h0.1h0.1h0.1l0,0h0.1l0,0h0.1l0,0l0,0v-0.1l0,0c0,0-3634.2-2907.8,0.1-0.1v-0.1
				v-0.1c0,0,0,0,0-0.1v-0.1v-0.1l0,0l0,0c0,0,0,0,0-0.1s0,0,0-0.1s0,0,0-0.1s0,0,0-0.1v-0.2c0,0,0,0,0-0.1s0,0,0-0.1s0-0.1,0-0.1
				s0,0,0-0.1c0,0,0,0,0-0.1c0,0,0,0,0-0.1v-0.1v-0.1v-0.1l0,0v-0.1v-0.1l0,0v-0.1l0,0v-0.1l0,0l0,0h-0.1l0,0h-0.1h-0.1h-0.1h-0.1
				h-0.1h-0.1h-0.2L114.1,138.2z"/>
			<path class="st7" d="M114.1,138.2h-0.2h-0.1h-0.1h-0.1h-0.1h-0.1h-0.1h-0.1h-0.1h-0.1c0,0,756.3,945.5-0.1,0.1l0,0v0.1l0,0v0.1
				l0,0v0.1v0.1v0.1l0,0v0.1c0,0,0,0.1,0,0.1l0,0l0,0c0,0,0,0,0,0.1c0,0,0,0,0,0.1c0,0,0,0,0,0.1c0,0,0,0,0,0.1v0.2c0,0,0,0,0,0.1
				c0,0,0,0,0,0.1c0,0,0,0,0,0.1c0,0,0,0,0,0.1v0.1c0,0,0,0,0,0.1v0.1c0,0,0,0,0,0.1v0.1l0,0v0.1c0,0-959.7,767.9,0.1,0.1l0,0l0,0
				h0.1l0,0l0,0h0.1h0.1l0,0h0.1h0.1h0.1h0.7h0.1h0.1h0.1h0.1l0,0h0.1l0,0h0.1l0,0l0,0v-0.1l0,0c0,0-3634.2-2907.8,0.1-0.1v-0.1
				v-0.1c0,0,0,0,0-0.1v-0.1v-0.1l0,0l0,0c0,0,0,0,0-0.1s0,0,0-0.1s0,0,0-0.1s0,0,0-0.1v-0.2c0,0,0,0,0-0.1s0,0,0-0.1s0-0.1,0-0.1
				s0,0,0-0.1c0,0,0,0,0-0.1c0,0,0,0,0-0.1v-0.1v-0.1v-0.1l0,0v-0.1v-0.1l0,0v-0.1l0,0v-0.1l0,0l0,0h-0.1l0,0h-0.1h-0.1h-0.1h-0.1
				h-0.1h-0.1h-0.2L114.1,138.2z"/>
			<path class="st7" d="M114.1,138.2h-0.2h-0.1h-0.1h-0.1h-0.1h-0.1h-0.1h-0.1h-0.1h-0.1c0,0,756.3,945.5-0.1,0.1l0,0v0.1l0,0v0.1
				l0,0v0.1v0.1v0.1l0,0v0.1c0,0,0,0.1,0,0.1l0,0l0,0c0,0,0,0,0,0.1c0,0,0,0,0,0.1c0,0,0,0,0,0.1c0,0,0,0,0,0.1v0.2c0,0,0,0,0,0.1
				c0,0,0,0,0,0.1c0,0,0,0,0,0.1c0,0,0,0,0,0.1v0.1c0,0,0,0,0,0.1v0.1c0,0,0,0,0,0.1v0.1l0,0v0.1c0,0-959.7,767.9,0.1,0.1l0,0l0,0
				h0.1l0,0l0,0h0.1h0.1l0,0h0.1h0.1h0.1h0.7h0.1h0.1h0.1h0.1l0,0h0.1l0,0h0.1l0,0l0,0v-0.1l0,0c0,0-3634.2-2907.8,0.1-0.1v-0.1
				v-0.1c0,0,0,0,0-0.1v-0.1v-0.1l0,0l0,0c0,0,0,0,0-0.1s0,0,0-0.1s0,0,0-0.1s0,0,0-0.1v-0.2c0,0,0,0,0-0.1s0,0,0-0.1s0-0.1,0-0.1
				s0,0,0-0.1c0,0,0,0,0-0.1c0,0,0,0,0-0.1v-0.1v-0.1v-0.1l0,0v-0.1v-0.1l0,0v-0.1l0,0v-0.1l0,0l0,0h-0.1l0,0h-0.1h-0.1h-0.1h-0.1
				h-0.1h-0.1h-0.2L114.1,138.2z"/>
			<path class="st7" d="M114.1,138.2h-0.2h-0.1h-0.1h-0.1h-0.1h-0.1h-0.1h-0.1h-0.1h-0.1c0,0,756.3,945.5-0.1,0.1l0,0v0.1l0,0v0.1
				l0,0v0.1v0.1v0.1l0,0v0.1c0,0,0,0.1,0,0.1l0,0l0,0c0,0,0,0,0,0.1c0,0,0,0,0,0.1c0,0,0,0,0,0.1c0,0,0,0,0,0.1v0.2c0,0,0,0,0,0.1
				c0,0,0,0,0,0.1c0,0,0,0,0,0.1c0,0,0,0,0,0.1v0.1c0,0,0,0,0,0.1v0.1c0,0,0,0,0,0.1v0.1l0,0v0.1c0,0-959.7,767.9,0.1,0.1l0,0l0,0
				h0.1l0,0l0,0h0.1h0.1l0,0h0.1h0.1h0.1h0.7h0.1h0.1h0.1h0.1l0,0h0.1l0,0h0.1l0,0l0,0v-0.1l0,0c0,0-3634.2-2907.8,0.1-0.1v-0.1
				v-0.1c0,0,0,0,0-0.1v-0.1v-0.1l0,0l0,0c0,0,0,0,0-0.1s0,0,0-0.1s0,0,0-0.1s0,0,0-0.1v-0.2c0,0,0,0,0-0.1s0,0,0-0.1s0-0.1,0-0.1
				s0,0,0-0.1c0,0,0,0,0-0.1c0,0,0,0,0-0.1v-0.1v-0.1v-0.1l0,0v-0.1v-0.1l0,0v-0.1l0,0v-0.1l0,0l0,0h-0.1l0,0h-0.1h-0.1h-0.1h-0.1
				h-0.1h-0.1h-0.2L114.1,138.2z"/>
			<path class="st7" d="M114.1,138.2h-0.3h-0.1h-0.1h-0.1h-0.1h-0.1h-0.1h-0.1c0,0,756.3,945.5-0.1,0.1l0,0v0.1l0,0v0.1l0,0v0.1v0.1
				v0.1c0,0,0,0,0,0.1v0.1c0,0,0,0.1,0,0.1l0,0l0,0c0,0,0,0,0,0.1v0.1c0,0,0,0,0,0.1c0,0,0,0,0,0.1v0.2c0,0,0,0,0,0.1c0,0,0,0,0,0.1
				c0,0,0,0,0,0.1c0,0,0,0,0,0.1v0.1c0,0,0,0,0,0.1v0.1c0,0,0,0,0,0.1v0.1l0,0v0.1c0,0,0,0,0,0.1l0,0v0.1l0,0h0.1l0,0l0,0h0.1h0.1
				l0,0h0.1h0.1h0.1h0.7h0.1h0.1h0.1h0.1l0,0h0.1l0,0h0.1l0,0l0,0v-0.1l0,0c0,0-3634.2-2907.8,0.1-0.1v-0.1v-0.1c0,0,0,0,0-0.1v-0.1
				v-0.1l0,0l0,0c0,0,0,0,0-0.1s0,0,0-0.1s0,0,0-0.1s0,0,0-0.1v-0.2c0,0,0,0,0-0.1s0,0,0-0.1s0-0.1,0-0.1s0,0,0-0.1c0,0,0,0,0-0.1
				c0,0,0,0,0-0.1v-0.1v-0.1v-0.1l0,0v-0.1v-0.1l0,0v-0.1l0,0v-0.1l0,0l0,0h-0.1l0,0h-0.1h-0.1h-0.1h-0.1h-0.1h-0.1L114.1,138.2
				L114.1,138.2z"/>
			<path class="st7" d="M114.1,138.2h-0.2h-0.1h-0.1h-0.1h-0.1h-0.1h-0.1h-0.1h-0.1h-0.1c0,0,756.3,945.5-0.1,0.1l0,0v0.1l0,0v0.1
				l0,0v0.1v0.1v0.1l0,0v0.1c0,0,0,0.1,0,0.1l0,0l0,0c0,0,0,0,0,0.1c0,0,0,0,0,0.1c0,0,0,0,0,0.1c0,0,0,0,0,0.1v0.2c0,0,0,0,0,0.1
				c0,0,0,0,0,0.1c0,0,0,0,0,0.1c0,0,0,0,0,0.1v0.1c0,0,0,0,0,0.1v0.1c0,0,0,0,0,0.1v0.1l0,0v0.1c0,0-959.7,767.9,0.1,0.1l0,0l0,0
				h0.1l0,0l0,0h0.1h0.1l0,0h0.1h0.1h0.1h0.7h0.1h0.1h0.1h0.1l0,0h0.1l0,0h0.1l0,0l0,0v-0.1l0,0c0,0-3634.2-2907.8,0.1-0.1v-0.1
				v-0.1c0,0,0,0,0-0.1v-0.1v-0.1l0,0l0,0c0,0,0,0,0-0.1s0,0,0-0.1s0,0,0-0.1s0,0,0-0.1v-0.2c0,0,0,0,0-0.1s0,0,0-0.1s0-0.1,0-0.1
				s0,0,0-0.1c0,0,0,0,0-0.1c0,0,0,0,0-0.1v-0.1v-0.1v-0.1l0,0v-0.1v-0.1l0,0v-0.1l0,0v-0.1l0,0l0,0h-0.1l0,0h-0.1h-0.1h-0.1h-0.1
				h-0.1h-0.1h-0.2L114.1,138.2z"/>
			<path class="st7" d="M114.1,138.2h-0.2h-0.1h-0.1h-0.1h-0.1h-0.1h-0.1h-0.1h-0.1h-0.1c0,0,756.3,945.5-0.1,0.1l0,0v0.1l0,0v0.1
				l0,0v0.1v0.1v0.1l0,0v0.1c0,0,0,0.1,0,0.1l0,0l0,0c0,0,0,0,0,0.1c0,0,0,0,0,0.1c0,0,0,0,0,0.1c0,0,0,0,0,0.1v0.2c0,0,0,0,0,0.1
				c0,0,0,0,0,0.1c0,0,0,0,0,0.1c0,0,0,0,0,0.1v0.1c0,0,0,0,0,0.1v0.1c0,0,0,0,0,0.1v0.1l0,0v0.1c0,0-959.7,767.9,0.1,0.1l0,0l0,0
				h0.1l0,0l0,0h0.1h0.1l0,0h0.1h0.1h0.1h0.7h0.1h0.1h0.1h0.1l0,0h0.1l0,0h0.1l0,0l0,0v-0.1l0,0c0,0-3634.2-2907.8,0.1-0.1v-0.1
				v-0.1c0,0,0,0,0-0.1v-0.1v-0.1l0,0l0,0c0,0,0,0,0-0.1s0,0,0-0.1s0,0,0-0.1s0,0,0-0.1v-0.2c0,0,0,0,0-0.1s0,0,0-0.1s0-0.1,0-0.1
				s0,0,0-0.1c0,0,0,0,0-0.1c0,0,0,0,0-0.1v-0.1v-0.1v-0.1l0,0v-0.1v-0.1l0,0v-0.1l0,0v-0.1l0,0l0,0h-0.1l0,0h-0.1h-0.1h-0.1h-0.1
				h-0.1h-0.1h-0.2L114.1,138.2z"/>
			<path class="st7" d="M114.1,138.2h-0.2h-0.1h-0.1h-0.1h-0.1h-0.1h-0.1h-0.1h-0.1h-0.1c0,0,756.3,945.5-0.1,0.1l0,0v0.1l0,0v0.1
				l0,0v0.1v0.1v0.1l0,0v0.1c0,0,0,0.1,0,0.1l0,0l0,0c0,0,0,0,0,0.1c0,0,0,0,0,0.1c0,0,0,0,0,0.1c0,0,0,0,0,0.1v0.2c0,0,0,0,0,0.1
				c0,0,0,0,0,0.1c0,0,0,0,0,0.1c0,0,0,0,0,0.1v0.1c0,0,0,0,0,0.1v0.1c0,0,0,0,0,0.1v0.1l0,0v0.1c0,0-959.7,767.9,0.1,0.1l0,0l0,0
				h0.1l0,0l0,0h0.1h0.1l0,0h0.1h0.1h0.1h0.7h0.1h0.1h0.1h0.1l0,0h0.1l0,0h0.1l0,0l0,0v-0.1l0,0c0,0-3634.2-2907.8,0.1-0.1v-0.1
				v-0.1c0,0,0,0,0-0.1v-0.1v-0.1l0,0l0,0c0,0,0,0,0-0.1s0,0,0-0.1s0,0,0-0.1s0,0,0-0.1v-0.2c0,0,0,0,0-0.1s0,0,0-0.1s0-0.1,0-0.1
				s0,0,0-0.1c0,0,0,0,0-0.1c0,0,0,0,0-0.1v-0.1v-0.1v-0.1l0,0v-0.1v-0.1l0,0v-0.1l0,0v-0.1l0,0l0,0h-0.1l0,0h-0.1h-0.1h-0.1h-0.1
				h-0.1h-0.1h-0.2L114.1,138.2z"/>
			<path class="st7" d="M114.1,138.2h-0.2h-0.1h-0.1h-0.1h-0.1h-0.1h-0.1h-0.1h-0.1h-0.1c0,0,756.3,945.5-0.1,0.1l0,0v0.1l0,0v0.1
				l0,0v0.1v0.1v0.1l0,0v0.1c0,0,0,0.1,0,0.1l0,0l0,0c0,0,0,0,0,0.1c0,0,0,0,0,0.1c0,0,0,0,0,0.1c0,0,0,0,0,0.1v0.2c0,0,0,0,0,0.1
				c0,0,0,0,0,0.1c0,0,0,0,0,0.1c0,0,0,0,0,0.1v0.1c0,0,0,0,0,0.1v0.1c0,0,0,0,0,0.1v0.1l0,0v0.1c0,0-959.7,767.9,0.1,0.1l0,0l0,0
				h0.1l0,0l0,0h0.1h0.1l0,0h0.1h0.1h0.1h0.7h0.1h0.1h0.1h0.1l0,0h0.1l0,0h0.1l0,0l0,0v-0.1l0,0c0,0-3634.2-2907.8,0.1-0.1v-0.1
				v-0.1c0,0,0,0,0-0.1v-0.1v-0.1l0,0l0,0c0,0,0,0,0-0.1s0,0,0-0.1s0,0,0-0.1s0,0,0-0.1v-0.2c0,0,0,0,0-0.1s0,0,0-0.1s0-0.1,0-0.1
				s0,0,0-0.1c0,0,0,0,0-0.1c0,0,0,0,0-0.1v-0.1v-0.1v-0.1l0,0v-0.1v-0.1l0,0v-0.1l0,0v-0.1l0,0l0,0h-0.1l0,0h-0.1h-0.1h-0.1h-0.1
				h-0.1h-0.1h-0.2L114.1,138.2z"/>
			<path class="st7" d="M114.1,138.2h-0.2h-0.1h-0.1h-0.1h-0.1h-0.1h-0.1h-0.1h-0.1h-0.1c0,0,756.3,945.5-0.1,0.1l0,0v0.1l0,0v0.1
				l0,0v0.1v0.1v0.1l0,0v0.1c0,0,0,0.1,0,0.1l0,0l0,0c0,0,0,0,0,0.1c0,0,0,0,0,0.1c0,0,0,0,0,0.1c0,0,0,0,0,0.1v0.2c0,0,0,0,0,0.1
				c0,0,0,0,0,0.1c0,0,0,0,0,0.1c0,0,0,0,0,0.1v0.1c0,0,0,0,0,0.1v0.1c0,0,0,0,0,0.1v0.1l0,0v0.1c0,0-959.7,767.9,0.1,0.1l0,0l0,0
				h0.1l0,0l0,0h0.1h0.1l0,0h0.1h0.1h0.1h0.7h0.1h0.1h0.1h0.1l0,0h0.1l0,0h0.1l0,0l0,0v-0.1l0,0c0,0-3634.2-2907.8,0.1-0.1v-0.1
				v-0.1c0,0,0,0,0-0.1v-0.1v-0.1l0,0l0,0c0,0,0,0,0-0.1s0,0,0-0.1s0,0,0-0.1s0,0,0-0.1v-0.2c0,0,0,0,0-0.1s0,0,0-0.1s0-0.1,0-0.1
				s0,0,0-0.1c0,0,0,0,0-0.1c0,0,0,0,0-0.1v-0.1v-0.1v-0.1l0,0v-0.1v-0.1l0,0v-0.1l0,0v-0.1l0,0l0,0h-0.1l0,0h-0.1h-0.1h-0.1h-0.1
				h-0.1h-0.1h-0.2L114.1,138.2z"/>
			<path class="st7" d="M114.1,138.2h-0.2h-0.1h-0.1h-0.1h-0.1h-0.1h-0.1h-0.1h-0.1h-0.1c0,0,756.3,945.5-0.1,0.1l0,0v0.1l0,0v0.1
				l0,0v0.1v0.1v0.1l0,0v0.1c0,0,0,0.1,0,0.1l0,0l0,0c0,0,0,0,0,0.1c0,0,0,0,0,0.1c0,0,0,0,0,0.1c0,0,0,0,0,0.1v0.2c0,0,0,0,0,0.1
				c0,0,0,0,0,0.1c0,0,0,0,0,0.1c0,0,0,0,0,0.1v0.1c0,0,0,0,0,0.1v0.1c0,0,0,0,0,0.1v0.1l0,0v0.1c0,0-959.7,767.9,0.1,0.1l0,0l0,0
				h0.1l0,0l0,0h0.1h0.1l0,0h0.1h0.1h0.1h0.7h0.1h0.1h0.1h0.1l0,0h0.1l0,0h0.1l0,0l0,0v-0.1l0,0c0,0-3634.2-2907.8,0.1-0.1v-0.1
				v-0.1c0,0,0,0,0-0.1v-0.1v-0.1l0,0l0,0c0,0,0,0,0-0.1s0,0,0-0.1s0,0,0-0.1s0,0,0-0.1v-0.2c0,0,0,0,0-0.1s0,0,0-0.1s0-0.1,0-0.1
				s0,0,0-0.1c0,0,0,0,0-0.1c0,0,0,0,0-0.1v-0.1v-0.1v-0.1l0,0v-0.1v-0.1l0,0v-0.1l0,0v-0.1l0,0l0,0h-0.1l0,0h-0.1h-0.1h-0.1h-0.1
				h-0.1h-0.1h-0.2L114.1,138.2z"/>
			<path class="st7" d="M114.1,138.2h-0.2h-0.1h-0.1h-0.1h-0.1h-0.1h-0.1h-0.1h-0.1h-0.1c0,0,756.3,945.5-0.1,0.1l0,0v0.1l0,0v0.1
				l0,0v0.1v0.1v0.1l0,0v0.1c0,0,0,0.1,0,0.1l0,0l0,0c0,0,0,0,0,0.1c0,0,0,0,0,0.1c0,0,0,0,0,0.1c0,0,0,0,0,0.1v0.2c0,0,0,0,0,0.1
				c0,0,0,0,0,0.1c0,0,0,0,0,0.1c0,0,0,0,0,0.1v0.1c0,0,0,0,0,0.1v0.1c0,0,0,0,0,0.1v0.1l0,0v0.1c0,0-959.7,767.9,0.1,0.1l0,0l0,0
				h0.1l0,0l0,0h0.1h0.1l0,0h0.1h0.1h0.1h0.7h0.1h0.1h0.1h0.1l0,0h0.1l0,0h0.1l0,0l0,0v-0.1l0,0c0,0-3634.2-2907.8,0.1-0.1v-0.1
				v-0.1c0,0,0,0,0-0.1v-0.1v-0.1l0,0l0,0c0,0,0,0,0-0.1s0,0,0-0.1s0,0,0-0.1s0,0,0-0.1v-0.2c0,0,0,0,0-0.1s0,0,0-0.1s0-0.1,0-0.1
				s0,0,0-0.1c0,0,0,0,0-0.1c0,0,0,0,0-0.1v-0.1v-0.1v-0.1l0,0v-0.1v-0.1l0,0v-0.1l0,0v-0.1l0,0l0,0h-0.1l0,0h-0.1h-0.1h-0.1h-0.1
				h-0.1h-0.1h-0.2L114.1,138.2z"/>
			<path class="st7" d="M114.1,138.2h-0.2h-0.1h-0.1h-0.1h-0.1h-0.1h-0.1h-0.1h-0.1h-0.1c0,0,756.3,945.5-0.1,0.1l0,0v0.1l0,0v0.1
				l0,0v0.1v0.1v0.1l0,0v0.1c0,0,0,0.1,0,0.1l0,0l0,0c0,0,0,0,0,0.1c0,0,0,0,0,0.1c0,0,0,0,0,0.1c0,0,0,0,0,0.1v0.2c0,0,0,0,0,0.1
				c0,0,0,0,0,0.1c0,0,0,0,0,0.1c0,0,0,0,0,0.1v0.1c0,0,0,0,0,0.1v0.1c0,0,0,0,0,0.1v0.1l0,0v0.1c0,0-959.7,767.9,0.1,0.1l0,0l0,0
				h0.1l0,0l0,0h0.1h0.1l0,0h0.1h0.1h0.1h0.7h0.1h0.1h0.1h0.1l0,0h0.1l0,0h0.1l0,0l0,0v-0.1l0,0c0,0-3634.2-2907.8,0.1-0.1v-0.1
				v-0.1c0,0,0,0,0-0.1v-0.1v-0.1l0,0l0,0c0,0,0,0,0-0.1s0,0,0-0.1s0,0,0-0.1s0,0,0-0.1v-0.2c0,0,0,0,0-0.1s0,0,0-0.1s0-0.1,0-0.1
				s0,0,0-0.1c0,0,0,0,0-0.1c0,0,0,0,0-0.1v-0.1v-0.1v-0.1l0,0v-0.1v-0.1l0,0v-0.1l0,0v-0.1l0,0l0,0h-0.1l0,0h-0.1h-0.1h-0.1h-0.1
				h-0.1h-0.1h-0.2L114.1,138.2z"/>
			<path class="st7" d="M114.1,138.2h-0.2h-0.1h-0.1h-0.1h-0.1h-0.1h-0.1h-0.1h-0.1h-0.1c0,0,756.3,945.5-0.1,0.1l0,0v0.1l0,0v0.1
				l0,0v0.1v0.1v0.1l0,0v0.1c0,0,0,0.1,0,0.1l0,0l0,0c0,0,0,0,0,0.1c0,0,0,0,0,0.1c0,0,0,0,0,0.1c0,0,0,0,0,0.1v0.2c0,0,0,0,0,0.1
				c0,0,0,0,0,0.1c0,0,0,0,0,0.1c0,0,0,0,0,0.1v0.1c0,0,0,0,0,0.1v0.1c0,0,0,0,0,0.1v0.1l0,0v0.1c0,0-959.7,767.9,0.1,0.1l0,0l0,0
				h0.1l0,0l0,0h0.1h0.1l0,0h0.1h0.1h0.1h0.7h0.1h0.1h0.1h0.1l0,0h0.1l0,0h0.1l0,0l0,0v-0.1l0,0c0,0-3634.2-2907.8,0.1-0.1v-0.1
				v-0.1c0,0,0,0,0-0.1v-0.1v-0.1l0,0l0,0c0,0,0,0,0-0.1s0,0,0-0.1s0,0,0-0.1s0,0,0-0.1v-0.2c0,0,0,0,0-0.1s0,0,0-0.1s0-0.1,0-0.1
				s0,0,0-0.1c0,0,0,0,0-0.1c0,0,0,0,0-0.1v-0.1v-0.1v-0.1l0,0v-0.1v-0.1l0,0v-0.1l0,0v-0.1l0,0l0,0h-0.1l0,0h-0.1h-0.1h-0.1h-0.1
				h-0.1h-0.1h-0.2L114.1,138.2z"/>
			<path class="st9" d="M155.9,145c-1.5,0-2.7,1.2-2.7,2.7v0v3.1c0,8.7,7,15.7,15.7,15.7c8.7,0,15.7-7,15.7-15.7v-3.1
				c0-1.5-1.2-2.7-2.7-2.7h0H155.9z"/>
			<path class="st10" d="M168.9,155.7c-4.5,0-8.9,2-11.8,5.4c5.7,6.5,15.6,7.2,22.2,1.5c0.5-0.5,1-1,1.5-1.5
				C177.7,157.7,173.4,155.7,168.9,155.7z"/>
			<path class="st8" d="M155.9,145c-1.5,0-2.7,1.2-2.7,2.7v0v2.8c9.9,4.8,21.5,4.8,31.4,0v-2.7c0-1.5-1.2-2.7-2.7-2.7h0L155.9,145z"
				/>
			<path class="st11" d="M180.4,145v4.2c0,1.6-0.2,2.6-1.3,3.3c1.9-0.5,3.7-1.2,5.5-2.1v-2.7c0-1.5-1.2-2.7-2.7-2.7h0H180.4z"/>
			<path class="st11" d="M155.9,145c-1.5,0-2.7,1.2-2.7,2.7v0v2.8c3.4,1.6,7.1,2.7,10.8,3.2c-1.8-0.5-2.4-2.3-2.4-4.4V145H155.9z"/>
			<path class="st12" d="M157.4,145v4.2c0,1.6,0.2,2.6,1.3,3.3c-1.9-0.5-3.7-1.2-5.5-2.1v-2.7c0-1.5,1.2-2.7,2.7-2.7h0H157.4z"/>
			<path class="st4" d="M155.9,144.1c-2,0-3.6,1.6-3.6,3.6v3.1c0,9.2,7.4,16.6,16.6,16.6c9.2,0,16.6-7.4,16.6-16.6v-3.1
				c0-2-1.6-3.6-3.6-3.6H155.9z M181.9,145.9c1,0,1.8,0.8,1.8,1.8c0,0,0,0,0,0v3.1c0,8.2-6.6,14.8-14.8,14.8
				c-8.2,0-14.8-6.6-14.8-14.8v-3.1c0-1,0.8-1.8,1.8-1.8c0,0,0,0,0,0H181.9z"/>
			<path class="st4" d="M184.7,150c-10,4.9-21.7,4.9-31.7,0l-0.4,0.8c10.2,5,22.2,5,32.5,0L184.7,150L184.7,150z"/>
			<path class="st13" d="M170.6,160c0-1,1.2-1.8,2.6-1.8s2.6,0.8,2.6,1.8s-1.2,1.8-2.6,1.8S170.6,161,170.6,160z"/>
			<path class="st4" d="M187.3,117.7c4.9,0,8.9,4,8.9,8.9c0,0,0,0,0,0v4.5c0,4.9-4,8.9-8.9,8.9c-4.9,0-8.9-4-8.9-8.9v-4.5
				C178.3,121.7,182.3,117.7,187.3,117.7C187.2,117.7,187.3,117.7,187.3,117.7L187.3,117.7z"/>
			<path class="st8" d="M182.1,124.1c0-1.6,1.3-2.9,2.9-2.8c1.6,0,2.9,1.3,2.8,2.9c0,1.6-1.3,2.8-2.8,2.8
				C183.4,127,182.1,125.7,182.1,124.1L182.1,124.1L182.1,124.1z"/>
			<path class="st4" d="M150.5,140c-4.9,0-8.9-4-8.9-8.9c0,0,0,0,0,0v-7.4h17.8v7.4C159.4,136,155.5,140,150.5,140
				C150.5,140,150.5,140,150.5,140L150.5,140z"/>
			<path class="st8" d="M144,128.7c0-1.6,1.3-2.9,2.9-2.9c1.6,0,2.9,1.3,2.9,2.9c0,1.6-1.3,2.9-2.9,2.9S144,130.3,144,128.7
				C144,128.7,144,128.7,144,128.7z"/>
			<path class="st4" d="M169,40.3h-0.1c-7,0-13.6,3.3-17.8,9c-10.7-1.3-20.5,6.3-21.8,17c-0.1,0.8-0.2,1.6-0.2,2.4
				c0,1.1,0.1,2.3,0.3,3.4c-8.7,6.4-10.6,18.7-4.2,27.4c5.2,7.1,14.6,9.8,22.8,6.7c10.1,11.5,27.6,12.7,39.1,2.6
				c0.9-0.8,1.8-1.7,2.6-2.6c10.1,3.8,21.4-1.3,25.2-11.5c3.1-8.1,0.4-17.3-6.6-22.5c0.2-1.1,0.3-2.3,0.3-3.4
				c0-10.8-8.8-19.6-19.6-19.6c-0.8,0-1.6,0-2.4,0.2C182.5,43.7,176,40.3,169,40.3L169,40.3z M169,47.2c5.4,0,10.4,2.9,13.1,7.6
				l1.3,2.3l2.6-0.7c1-0.3,2.1-0.4,3.2-0.4c7,0,12.6,5.6,12.6,12.6c0,0,0,0,0,0.1l0,0c0,1.3-0.2,2.6-0.6,3.9l-0.9,2.7l2.5,1.4
				c6.2,3.2,8.6,10.9,5.4,17.1c-3.2,6.2-10.9,8.6-17.1,5.4c-0.2-0.1-0.5-0.2-0.7-0.4l-2.7-1.6l-1.8,2.6c-6.6,9.4-19.6,11.6-29,5
				c-1.9-1.4-3.6-3-5-5l-1.8-2.6l-2.7,1.6c-6.1,3.4-13.8,1.2-17.2-4.9c-3.4-6.1-1.2-13.8,4.9-17.2l0,0l2.5-1.4l-0.9-2.7
				c-0.4-1.3-0.6-2.6-0.6-3.9l0,0c0-7,5.6-12.7,12.6-12.7c1.1,0,2.2,0.1,3.2,0.4l2.6,0.7l1.3-2.3c2.7-4.7,7.7-7.6,13.1-7.6
				C168.9,47.2,169,47.2,169,47.2z"/>
			<path class="st14" d="M144.6,87.9c0-13.4,10.9-24.3,24.3-24.3c13.4,0,24.3,10.9,24.3,24.3c0,13.4-10.9,24.3-24.3,24.3
				C155.5,112.1,144.6,101.3,144.6,87.9z"/>
			<path class="st14" d="M124.9,87.9c0-8.9,7.2-16.1,16.1-16.1c8.9,0,16.1,7.2,16.1,16.1S149.9,104,141,104c0,0,0,0,0,0
				C132.1,104,124.9,96.8,124.9,87.9L124.9,87.9z"/>
			<path class="st14" d="M180.6,87.9c0-8.9,7.2-16.1,16.1-16.1c8.9,0,16.1,7.2,16.1,16.1c0,8.9-7.2,16.1-16.1,16.1
				C187.8,104,180.6,96.8,180.6,87.9L180.6,87.9L180.6,87.9z"/>
			<path class="st15" d="M132.6,68.7c0-8.9,7.2-16.1,16.1-16.1s16.1,7.2,16.1,16.1s-7.2,16.1-16.1,16.1l0,0
				C139.8,84.8,132.6,77.6,132.6,68.7z"/>
			<path class="st15" d="M173,68.7c0-8.9,7.2-16.1,16.1-16.1c8.9,0,16.1,7.2,16.1,16.1s-7.2,16.1-16.1,16.1c0,0,0,0,0,0
				C180.2,84.8,173,77.6,173,68.7z"/>
			<path class="st15" d="M150.3,62.3c0-10.3,8.4-18.6,18.7-18.6s18.6,8.4,18.6,18.7c0,10.3-8.4,18.6-18.6,18.6
				C158.6,81,150.3,72.7,150.3,62.3L150.3,62.3z"/>
			<path class="st15" d="M183.3,83.5c0-7.4,6-13.3,13.4-13.3s13.3,6,13.3,13.4c0,7.4-6,13.3-13.4,13.3c0,0,0,0,0,0
				C189.2,96.8,183.3,90.9,183.3,83.5z"/>
			<path class="st15" d="M127.8,83.5c0-7.4,6-13.3,13.3-13.3s13.4,6,13.4,13.3s-6,13.3-13.4,13.3l0,0
				C133.8,96.8,127.8,90.9,127.8,83.5z"/>
			<path class="st15" d="M150.9,85.8c0-9.9,8.1-18,18-18s18,8.1,18,18s-8.1,18-18,18S150.9,95.8,150.9,85.8z"/>
			<path class="st4" d="M169,42.9L169,42.9c-6.8,0-13.1,3.5-16.6,9.2c-9.1-2-18.2,3.7-20.2,12.9c-0.3,1.2-0.4,2.5-0.4,3.7
				c0,1.5,0.2,3.1,0.6,4.6c-8,4.8-10.6,15.3-5.8,23.3c4.6,7.6,14.3,10.4,22.3,6.4c8.3,11.1,24,13.4,35.1,5.1
				c1.9-1.4,3.6-3.1,5.1-5.1c8.5,4.1,18.6,0.5,22.7-8c3.7-7.8,1.1-17.1-6.2-21.7c2.6-9-2.7-18.4-11.7-20.9c-2.7-0.8-5.6-0.9-8.3-0.2
				C181.9,46.4,175.7,42.9,169,42.9z M169,44.6c6.3,0,12.2,3.4,15.3,8.9l0.3,0.6l0.6-0.2c8.2-2.1,16.5,2.8,18.6,11
				c0.7,2.8,0.6,5.8-0.3,8.5l-0.2,0.7l0.6,0.3c7.5,3.9,10.3,13.2,6.4,20.6c-3.9,7.5-13.2,10.3-20.6,6.4c-0.2-0.1-0.4-0.2-0.6-0.3
				l-0.7-0.4l-0.4,0.6c-7.4,10.6-22,13.1-32.6,5.6c-2.2-1.5-4.1-3.5-5.6-5.6l-0.5-0.6l-0.7,0.4c-7.3,4.3-16.6,1.8-20.9-5.4
				c-4.3-7.3-1.8-16.6,5.4-20.9c0.2-0.1,0.4-0.2,0.6-0.3l0.6-0.3l-0.2-0.7c-0.5-1.5-0.8-3.1-0.8-4.7c0-8.4,6.8-15.3,15.3-15.3
				c1.3,0,2.6,0.2,3.8,0.5l0.6,0.2l0.3-0.6C156.7,48,162.5,44.6,169,44.6C168.9,44.6,169,44.6,169,44.6z"/>
			<path class="st16" d="M161.7,82.6c0-5.1,4.2-9.3,9.3-9.3c5.1,0,9.3,4.2,9.3,9.3c0,5.1-4.2,9.3-9.3,9.3c0,0,0,0,0,0
				C165.8,91.8,161.7,87.7,161.7,82.6z"/>
			<path class="st16" d="M138,81.9c0-3.4,2.7-6.1,6.1-6.1c3.4,0,6.1,2.7,6.1,6.1c0,3.4-2.7,6.1-6.1,6.1C140.7,88,138,85.3,138,81.9
				C138,81.9,138,81.9,138,81.9z"/>
			<path class="st16" d="M191.7,81.9c0-3.4,2.7-6.1,6.1-6.1c3.4,0,6.1,2.7,6.1,6.1c0,3.4-2.7,6.1-6.1,6.1
				C194.4,88,191.7,85.3,191.7,81.9L191.7,81.9z"/>
			<path class="st16" d="M145.9,62.4c0-1.5,1.2-2.8,2.8-2.8c1.5,0,2.8,1.2,2.8,2.8s-1.2,2.8-2.8,2.8l0,0
				C147.1,65.1,145.9,63.9,145.9,62.4z"/>
			<path class="st16" d="M190.4,62.4c0-1.5,1.2-2.8,2.8-2.8c1.5,0,2.8,1.2,2.8,2.8s-1.2,2.8-2.8,2.8l0,0
				C191.7,65.1,190.4,63.9,190.4,62.4z"/>
			<path class="st17" d="M17.7,187.9c0,10.7-3.6,26-8,26s-8-15.3-8-26s4.7-12.9,8-12.9S17.8,177.1,17.7,187.9L17.7,187.9z"/>
			<path class="st4" d="M9.8,172.8c-2.7,0-5.2,1.2-6.9,3.2c-2,2.4-3.3,6.2-3.3,11.9c0.1,6,0.9,11.9,2.5,17.6c0.6,2.4,1.5,4.8,2.8,7
				c1.1,1.9,2.6,3.6,5,3.6s3.9-1.8,5-3.6c1.2-2.2,2.2-4.6,2.8-7c1.6-5.7,2.4-11.7,2.4-17.6c0-5.7-1.2-9.5-3.3-11.9
				C15,174,12.4,172.8,9.8,172.8L9.8,172.8z M9.8,177.2c1.4,0,2.7,0.6,3.5,1.6c1.1,1.3,2.2,4,2.2,9c-0.1,5.5-0.8,11.1-2.3,16.4
				c-0.5,2-1.3,4-2.3,5.9c-0.3,0.5-0.7,1-1.2,1.4c-0.5-0.4-0.9-0.9-1.2-1.4c-1-1.9-1.8-3.8-2.3-5.9c-1.4-5.4-2.2-10.9-2.2-16.4
				c0-5,1.1-7.7,2.2-9C7.1,177.8,8.4,177.2,9.8,177.2L9.8,177.2z"/>
			<path class="st17" d="M58.2,187.9c0,10.7-3.6,26-8,26s-8-15.3-8-26s4.7-12.9,8-12.9S58.2,177.2,58.2,187.9z"/>
			<path class="st4" d="M50.2,172.8c-2.7,0-5.2,1.2-6.9,3.2c-2,2.4-3.3,6.2-3.3,11.9c0.1,6,0.9,11.9,2.4,17.6c0.6,2.4,1.5,4.8,2.8,7
				c1.1,1.9,2.6,3.6,5,3.6s3.9-1.8,5-3.6c1.2-2.2,2.2-4.6,2.8-7c1.6-5.7,2.4-11.7,2.4-17.6c0-5.7-1.2-9.5-3.3-11.9
				C55.3,174,52.8,172.8,50.2,172.8L50.2,172.8z M50.2,177.2c1.4,0,2.7,0.6,3.5,1.6c1.1,1.3,2.2,4,2.2,9c-0.1,5.5-0.8,11.1-2.3,16.4
				c-0.5,2-1.3,4-2.3,5.9c-0.3,0.6-0.7,1-1.2,1.4c-0.5-0.4-0.9-0.9-1.2-1.4c-1-1.9-1.8-3.8-2.3-5.9c-1.4-5.4-2.2-10.9-2.2-16.4
				c0-5,1.1-7.7,2.2-9C47.5,177.8,48.8,177.2,50.2,177.2z"/>
			<path class="st17" d="M95.5,129.5c4.1,9.9,6.6,25.4,2.6,27.1s-13.2-11-17.3-21s-0.6-13.7,2.4-15S91.3,119.5,95.5,129.5
				L95.5,129.5z"/>
			<path class="st4" d="M82.3,118.6c-2.5,1-4.4,3.1-5.2,5.6c-1,3-0.7,7,1.5,12.3c2.3,5.5,5.3,10.6,9,15.4c1.5,2,3.3,3.8,5.2,5.4
				c1.8,1.3,3.8,2.4,6,1.4s2.9-3.1,3.2-5.3c0.3-2.5,0.3-5-0.1-7.5c-0.8-5.9-2.3-11.7-4.5-17.2c-2.2-5.3-4.8-8.3-7.6-9.7
				C87.5,117.7,84.7,117.6,82.3,118.6L82.3,118.6z M84,122.8c1.2-0.6,2.7-0.5,3.9,0.2c1.6,0.8,3.6,2.8,5.5,7.5
				c2.1,5.1,3.5,10.5,4.2,16c0.3,2.1,0.3,4.2,0.1,6.3c-0.1,0.6-0.3,1.2-0.6,1.8c-0.6-0.2-1.2-0.5-1.7-0.9c-1.6-1.3-3.1-2.9-4.4-4.6
				c-3.4-4.4-6.2-9.2-8.4-14.3c-1.9-4.6-1.9-7.5-1.4-9.2C81.8,124.3,82.7,123.2,84,122.8z"/>
			<path class="st4" d="M30,72.2c-34.6,0-62.6,28-62.6,62.6s28,62.6,62.6,62.6s62.6-28,62.6-62.6C92.6,100.3,64.6,72.2,30,72.2z
				 M30,79.3c30.6,0,55.5,24.8,55.5,55.5S60.6,190.3,30,190.3s-55.5-24.8-55.5-55.5l0,0c0-30.6,24.8-55.4,55.4-55.5
				C29.9,79.3,30,79.3,30,79.3z"/>
			<path class="st8" d="M89,134.8c0,32.6-26.4,59-59,59c-32.6,0-59-26.4-59-59c0-32.6,26.4-59,59-59c15.6,0,30.6,6.2,41.7,17.3
				C82.8,104.1,89,119.2,89,134.8z"/>
			<path class="st8" d="M81.5,131.7c0,30.2-24.4,54.6-54.6,54.6c-30.2,0-54.6-24.4-54.6-54.6s24.4-54.6,54.6-54.6
				c14.5,0,28.4,5.7,38.6,16C75.7,103.4,81.5,117.2,81.5,131.7z"/>
			<path class="st17" d="M-29.1,134.8c0,32.6,26.4,59,59,59s59-26.4,59-59H-29.1z"/>
			<path class="st17" d="M-27.6,134.8c1.4,30.1,27,53.4,57.1,51.9c28.1-1.3,50.6-23.8,51.9-51.9H-27.6z"/>
			<path class="st4" d="M30,74.9c-33.1,0-59.9,26.8-59.9,59.9s26.8,59.9,59.9,59.9s59.9-26.8,59.9-59.9l0,0
				C89.9,101.7,63.1,74.9,30,74.9z M30,76.7c32.1,0,58.1,26,58.1,58.1c0,32.1-26,58.1-58.1,58.1s-58.1-26-58.1-58.1c0,0,0,0,0,0
				C-28.1,102.7-2.1,76.7,30,76.7C30,76.7,30,76.7,30,76.7z"/>
			<path class="st4" d="M11,113.4c5.1,0,9.2,4.1,9.2,9.1c0,0,0,0,0,0.1v4.6c-0.2,5.1-4.4,9.1-9.5,8.9c-4.8-0.2-8.7-4-8.9-8.9v-4.6
				C1.8,117.5,5.9,113.4,11,113.4C11,113.4,11,113.4,11,113.4z"/>
			<path class="st8" d="M16.3,120c0,0.8-0.3,1.5-0.9,2.1c-1.2,1.2-3.1,1.2-4.2,0s-1.2-3.1,0-4.2s3.1-1.2,4.2,0
				C16,118.4,16.3,119.2,16.3,120z"/>
			<path class="st4" d="M48.9,113.4c5.1,0,9.2,4.1,9.2,9.1c0,0,0,0,0,0v4.6c0,5.1-4.1,9.2-9.2,9.2s-9.2-4.1-9.2-9.2v-4.6
				C39.7,117.5,43.8,113.4,48.9,113.4C48.9,113.4,48.9,113.4,48.9,113.4z"/>
			<path class="st8" d="M54.3,120c0,1.7-1.3,3-3,3s-3-1.3-3-3s1.3-3,3-3S54.3,118.3,54.3,120z"/>
			<path class="st9" d="M20.2,139.1c-1.1,0-2,0.9-2,2v2.3c0,6.5,5.3,11.8,11.8,11.8c6.5,0,11.8-5.3,11.8-11.8v-2.3c0-1.1-0.9-2-2-2
				H20.2z"/>
			<path class="st10" d="M30,147.2c-3.4,0-6.7,1.5-9,4.1c4.3,4.9,11.8,5.4,16.7,1.1c0.4-0.3,0.8-0.7,1.1-1.1
				C36.6,148.7,33.4,147.2,30,147.2z"/>
			<path class="st8" d="M20.2,139.1c-1.1,0-2,0.9-2,2v2.1c7.5,3.6,16.2,3.6,23.7,0v-2.1c0-1.1-0.9-2-2-2H20.2z"/>
			<path class="st11" d="M20.2,139.1c-1.1,0-2,0.9-2,2v2.1c1.3,0.6,2.7,1.1,4.1,1.6c-0.8-0.6-1-1.3-1-2.5v-3.2L20.2,139.1z"/>
			<path class="st11" d="M35.4,139.1v3.2c0,1.6-0.4,3-1.8,3.4c2.8-0.4,5.6-1.2,8.1-2.4v-2.1c0-1.1-0.9-2-2-2L35.4,139.1z"/>
			<path class="st12" d="M39.7,139.1c1.1,0,2,0.9,2,2v2.1c-1.3,0.6-2.7,1.1-4.1,1.6c0.8-0.6,1-1.3,1-2.5v-3.2L39.7,139.1z"/>
			<path class="st4" d="M20.2,138.2c-1.6,0-2.9,1.3-2.9,2.9v2.3c-0.2,7,5.3,12.9,12.4,13.1c7,0.2,12.9-5.3,13.1-12.4
				c0-0.2,0-0.5,0-0.7v-2.3c0-1.6-1.3-2.9-2.9-2.9H20.2z M20.2,140h19.6c0.6,0,1.1,0.5,1.2,1.1c0,0,0,0,0,0v2.3
				c0,6-4.9,10.9-10.9,10.9c-6,0-10.9-4.9-10.9-10.9v-2.3C19,140.5,19.5,140,20.2,140C20.1,140,20.1,140,20.2,140L20.2,140z"/>
			<path class="st4" d="M18.1,142.7l-0.4,0.8c7.7,3.8,16.8,3.8,24.6,0l-0.4-0.8C34.3,146.4,25.6,146.4,18.1,142.7z"/>
			<path class="st13" d="M28.6,150.4c0,0.4-0.2,0.8-0.6,1c-0.4,0.3-0.9,0.4-1.4,0.4c-1.1,0-2-0.6-2-1.4s0.9-1.4,2-1.4
				c0.5,0,1,0.1,1.4,0.4C28.4,149.6,28.6,150,28.6,150.4L28.6,150.4z"/>
			<path class="st4" d="M41.4,52.2c-5.7,0.3-11.3,0.4-17.6,0.8c-8.3,0.6-14.3,3.2-18.1,7c-3.5,3.7-5.5,8.6-5.3,13.7
				c0,8.5,5.2,15,12.4,18.5s16.4,4.5,25.8,3c0.9-0.1,1.9-0.3,2.8-0.5v-6.2c-1.2,0.3-2.5,0.5-3.7,0.7c-8.4,1.3-16.5,0.3-22.3-2.5
				s-9-6.9-9-13.1c-0.1-3.5,1.2-6.9,3.6-9.4c2.6-2.6,7-4.7,14.3-5.3c5.9-0.4,11.4-0.5,17.2-0.9L41.4,52.2L41.4,52.2z"/>
			<path class="st4" d="M57.6,49.9c-5.9,1.4-12,2.2-18.1,2.4v6c4.7-0.2,9.5-0.7,14.1-1.5l-1.8,4.8h4.3c5.8-0.1,11.6-1,17.2-2.7
				c-4.4,17.5-19,27.2-33.8,30v6.1C58,91.9,77.2,78.9,80.4,55l0.6-4.9l-4.7,1.6c-5.1,1.6-10.4,2.8-15.7,3.4l0.5-1.3l2-5.3L57.6,49.9
				z"/>
			<path class="st15" d="M58.3,52.8C45.6,55.9,35.8,55.2,24,56C8.4,57.2,3.3,65.4,3.3,73.7c0,29.3,68,26.6,74-19.1
				c0,0-11.4,4-21.2,4L58.3,52.8L58.3,52.8z"/>
			<path class="st16" d="M58.3,52.8C45.6,55.9,35.8,55.2,24,56c-8.9,0.7-14.4,3.6-17.4,7.5c8.3,14.3,54.9,11.7,70.8-9
				c0,0-11.4,4-21.2,4L58.3,52.8L58.3,52.8z"/>
			<path class="st14" d="M77.4,54.6c-8,29.7-62.7,41.3-73.6,15c-0.3,1.3-0.4,2.7-0.4,4C3.3,102.9,71.3,100.2,77.4,54.6L77.4,54.6z"
				/>
			<path class="st4" d="M41.4,54.4c-5.7,0.3-11.3,0.4-17.4,0.8c-8,0.6-13.3,3-16.7,6.4c-3.1,3.2-4.8,7.5-4.7,12
				c0,7.6,4.5,13.3,11.1,16.5s15.5,4.2,24.5,2.9c1.1-0.2,2.1-0.4,3.2-0.6v-1.5c-1.1,0.2-2.3,0.5-3.4,0.6c-8.8,1.3-17.3,0.4-23.6-2.7
				S4.1,80.7,4.1,73.7c-0.1-4.1,1.4-8.1,4.2-11c3.1-3.1,8-5.4,15.7-5.9c6-0.5,11.6-0.5,17.3-0.8V54.4z"/>
			<path class="st4" d="M58.1,52.1c-6.1,1.4-12.4,2.3-18.6,2.5V56c5.9-0.2,11.8-1,17.6-2.2l-2,5.5h1.1c9.1,0,18.5-3.1,20.3-3.7
				c-3.4,21.1-20.3,32.5-37,35.6v1.5c17.6-3.1,35.7-15.4,38.6-38.1l0.2-1.2l-1.2,0.4c0,0-10.5,3.6-19.8,3.8l1.7-4.7l0.5-1.3
				L58.1,52.1z"/>
		</g>
	</g>
	<g style="clip-path:url(#SVGID_00000003091144294081318620000012214354640535606201_);enable-background:new    ;">
		<text transform="matrix(1 0 0 1 14.09 270.28)" class="st3 st19 st20">ukraina</text>
	</g>
	<path style="clip-path:url(#SVGID_00000003091144294081318620000012214354640535606201_);fill:#FFDC24;" d="M44.9,0h-29H0v16
		c0,7,0,14,0,21c10.3,12.3,28.7,14,41,3.7c6.6-5.5,10.5-13.7,10.4-22.4C51.4,11.6,49.1,5.2,44.9,0z"/>
	<g style="clip-path:url(#SVGID_00000003091144294081318620000012214354640535606201_);enable-background:new    ;">
		<text transform="matrix(1 0 0 1 15.54 31.75)" class="st5 st19 st22">26</text>
	</g>
</g>
</svg>
