<svg id="Слой_1" data-name="Слой 1" xmlns="http://www.w3.org/2000/svg" viewBox="0 0 195.59 280.63"><defs><style>.cls-1{fill:#2764ae;}.cls-2,.cls-8,.cls-9{fill:#288acb;}.cls-2,.cls-5{stroke:#fff;}.cls-2{stroke-width:2.5px;}.cls-2,.cls-4{fill-rule:evenodd;}.cls-3,.cls-4{fill:#f7e822;}.cls-3{isolation:isolate;opacity:0.99;}.cls-5{fill:#515ca6;stroke-width:2px;}.cls-10,.cls-6{fill:#fff;}.cls-7{fill:#fcc00d;}.cls-8{font-size:18.31px;}.cls-10,.cls-8,.cls-9{font-family:Impact;}.cls-9{font-size:24.77px;}.cls-10{font-size:20px;}</style></defs><rect class="cls-1" x="-9.21" y="-8.4" width="214.01" height="297.89"/><g id="g3297"><path id="path13477" class="cls-2" d="M150.83,266.57c.06-27.17.26-64.84.26-96,0-7.71-4.07-16.14-14.06-16.14H106.27c-5.89,0-7-8.37-8.47-11.13-1.52,2.76-2.59,11.13-8.48,11.13H58.56c-10,0-14.06,8.43-14.06,16.14,0,31.2.2,68.87.26,96Z"/><path id="path2187" class="cls-3" d="M70,192.71l22,13.83,5.73-25.15,5.69,25.16,22.07-13.77-14,21.75,25.48,5.67-25.49,5.61,14,21.79-22-13.83-5.73,25.15-5.69-25.16L70,247.53l14-21.76L58.52,220.1,84,214.5Z"/><path id="path3162" class="cls-4" d="M139.53,217.45c11-73.37-90.71-76.2-84,0C63.33,161.56,132.27,160.81,139.53,217.45Z"/></g><path class="cls-5" d="M41.7,25.13v29.1c10.49,6.81,10.49,27.26,0,33.55v27C41.7,137.84,85,145.45,85,145.45c6.29.78,10.22,4.71,12.85,7.33,2.62-2.62,6.29-6.55,13.1-7.33-.26,0,43-7.61,43-30.67v-27c-10.49-6.29-10.49-26.74,0-33.55V25.13C136.33,8.09,59.26,8.09,41.7,25.13Z"/><path class="cls-6" d="M69.75,47.41a64.22,64.22,0,0,1,0,33c5.5-5.51,14.68-8.39,22-11-2.62,7.34-5.51,16.51-11,22a64,64,0,0,1,33,0c-5.5-5.51-8.12-14.68-11-22,7.34,2.62,16.51,5.5,22,11a70.38,70.38,0,0,1,0-33c-5.5,5.51-14.67,8.13-22,11,2.88-7.34,5.5-16.51,11-22a70.34,70.34,0,0,1-33,0c5.5,5.51,8.39,14.68,11,22C84.43,55.54,75.25,52.92,69.75,47.41Z"/><path class="cls-7" d="M61.88,64.45C59,68.64,58.21,75.72,58.21,82c0,22.54,17.3,39.06,39.32,39.06,20.45,0,39.58-17,39.32-39.06.53-6.29-1.83-13.1-3.67-17.56C133.18,115.56,61.88,115.56,61.88,64.45Z"/><path class="cls-6" d="M80,99.63c-12.64,0-22.89,10.17-22.89,30.51C57.11,155.57,75.33,181,97.8,181s40.68-25.43,40.68-50.86c0-20.34-10.24-30.51-22.88-30.51a22.86,22.86,0,0,0-17.8,8.5A22.89,22.89,0,0,0,80,99.63Zm0,0"/><rect class="cls-6" x="24.97" y="112.84" width="145.64" height="54.95" rx="5.46"/><text class="cls-8" transform="translate(29.85 159.86)">Mińsk Mazowiecki</text><text class="cls-9" transform="translate(74.52 137.92)">Orša</text><path class="cls-7" d="M150.59-.2l29,0,16,0,0,16c0,7,0,14,0,21A29.09,29.09,0,0,1,150.59-.2Z"/><text class="cls-10" transform="translate(159.65 31.55)">32</text></svg>