<?xml version="1.0" encoding="utf-8"?>
<!-- Generator: Adobe Illustrator 26.0.3, SVG Export Plug-In . SVG Version: 6.00 Build 0)  -->
<svg version="1.1" id="Слой_1" xmlns="http://www.w3.org/2000/svg" xmlns:xlink="http://www.w3.org/1999/xlink" x="0px" y="0px"
	 viewBox="0 0 195.6 280.6" style="enable-background:new 0 0 195.6 280.6;" xml:space="preserve">
<style type="text/css">
	.st0{clip-path:url(#SVGID_00000115486882834672858610000017197467895725178771_);fill:#428ECC;}
	.st1{fill:#FFFFFF;}
	.st2{font-family:'Impact';}
	.st3{font-size:41px;}
	.st4{clip-path:url(#SVGID_00000115486882834672858610000017197467895725178771_);fill:#1A1A1A;}
	.st5{clip-path:url(#SVGID_00000115486882834672858610000017197467895725178771_);fill:#9D8070;}
	.st6{clip-path:url(#SVGID_00000115486882834672858610000017197467895725178771_);fill:#B6A293;}
	.st7{clip-path:url(#SVGID_00000115486882834672858610000017197467895725178771_);fill:#83665A;}
	.st8{clip-path:url(#SVGID_00000115486882834672858610000017197467895725178771_);fill:#F8AF5E;}
	.st9{clip-path:url(#SVGID_00000115486882834672858610000017197467895725178771_);fill:#FDD495;}
	.st10{clip-path:url(#SVGID_00000115486882834672858610000017197467895725178771_);fill:#F1844D;}
	.st11{clip-path:url(#SVGID_00000115486882834672858610000017197467895725178771_);fill:#F49955;}
	.st12{clip-path:url(#SVGID_00000115486882834672858610000017197467895725178771_);fill:#ED6B2F;}
	.st13{clip-path:url(#SVGID_00000115486882834672858610000017197467895725178771_);fill:#89A3AA;}
	.st14{clip-path:url(#SVGID_00000115486882834672858610000017197467895725178771_);fill:#647D8A;}
	.st15{clip-path:url(#SVGID_00000115486882834672858610000017197467895725178771_);fill:#FFFFFF;}
	.st16{clip-path:url(#SVGID_00000115486882834672858610000017197467895725178771_);fill:#B3B3B3;}
	.st17{clip-path:url(#SVGID_00000115486882834672858610000017197467895725178771_);fill:#97D6F2;}
	.st18{clip-path:url(#SVGID_00000115486882834672858610000017197467895725178771_);fill:#7F6456;}
	.st19{clip-path:url(#SVGID_00000115486882834672858610000017197467895725178771_);fill:#EB5A53;}
	.st20{clip-path:url(#SVGID_00000115486882834672858610000017197467895725178771_);enable-background:new    ;}
	.st21{fill:#428ECC;}
	.st22{font-size:20px;}
</style>
<g>
	<defs>
		<rect id="SVGID_1_" x="0" y="0" width="195.6" height="280.6"/>
	</defs>
	<clipPath id="SVGID_00000152980144046557421670000010111988625728890513_">
		<use xlink:href="#SVGID_1_"  style="overflow:visible;"/>
	</clipPath>
	
		<rect x="-18.2" y="-28.2" style="clip-path:url(#SVGID_00000152980144046557421670000010111988625728890513_);fill:#428ECC;" width="514.4" height="313.3"/>
	<text transform="matrix(1 0 0 1 18.61 229.73)" class="st1 st2 st3">Zapadnyy</text>
	<text transform="matrix(1 0 0 1 65.14 270.73)" class="st1 st2 st3">Bug</text>
	
		<rect x="142" y="27.8" style="clip-path:url(#SVGID_00000152980144046557421670000010111988625728890513_);fill:#1A1A1A;" width="38.7" height="4.8"/>
	<path style="clip-path:url(#SVGID_00000152980144046557421670000010111988625728890513_);fill:#1A1A1A;" d="M167.2,117.4H87.7v7.8
		h72.8c0.3,1.9,0.4,3.7,0.5,5.6c0,17.1-7.7,29.6-20.5,38.4s-31.1,13.4-51.5,13.4h-1.2v7.8h1.2c21.6,0,41.3-4.8,55.9-14.8
		s23.9-25.3,23.9-44.8l0,0c0-3.4-0.3-6.8-0.9-10.1L167.2,117.4z"/>
	<path style="clip-path:url(#SVGID_00000152980144046557421670000010111988625728890513_);fill:#1A1A1A;" d="M75.9,104.2v20.9h71
		v-20.9h-7.8v13.2H83.6v-13.2H75.9z"/>
	<path style="clip-path:url(#SVGID_00000152980144046557421670000010111988625728890513_);fill:#1A1A1A;" d="M110.2,76.4v7.8h33.7
		v1.5h-33.7v7.8h41.5v-17L110.2,76.4z"/>
	<path style="clip-path:url(#SVGID_00000152980144046557421670000010111988625728890513_);fill:#1A1A1A;" d="M110.2,56.5v7.8h7.3
		v12.1h-7.3v7.8h15V56.5H110.2z"/>
	
		<rect x="142" y="44.1" style="clip-path:url(#SVGID_00000152980144046557421670000010111988625728890513_);fill:#1A1A1A;" width="4.9" height="50.8"/>
	<path style="clip-path:url(#SVGID_00000152980144046557421670000010111988625728890513_);fill:#1A1A1A;" d="M97.6,56.5v27.6h15
		v-7.8h-7.3V64.3h7.3v-7.8H97.6z"/>
	<path style="clip-path:url(#SVGID_00000152980144046557421670000010111988625728890513_);fill:#1A1A1A;" d="M90.1,117.4H10.6
		l-0.6,3.2c-0.6,3.3-0.9,6.7-0.9,10.1l0,0c0,19.6,9.3,34.9,23.9,44.8s34.3,14.8,55.9,14.8h1.2v-7.8h-1.2c-20.4,0-38.6-4.7-51.5-13.4
		s-20.5-21.2-20.5-38.4c0.1-1.9,0.2-3.8,0.5-5.6h72.8V117.4z"/>
	<path style="clip-path:url(#SVGID_00000152980144046557421670000010111988625728890513_);fill:#1A1A1A;" d="M75.9,85.8v20.9h7.8
		V93.5h55.5v13.2h7.8V85.8H75.9z"/>
	<path style="clip-path:url(#SVGID_00000152980144046557421670000010111988625728890513_);fill:#1A1A1A;" d="M71.1,76.4v17h41.5
		v-7.8H78.9v-1.5h33.7v-7.8H71.1z"/>
	<path style="clip-path:url(#SVGID_00000152980144046557421670000010111988625728890513_);fill:#9D8070;" d="M13.9,121.3
		c-0.6,3.1-0.8,6.3-0.9,9.5c0,36.7,34,55.7,75.9,55.7s75.9-19,75.9-55.7c0-3.2-0.3-6.4-0.9-9.5H13.9z"/>
	<path style="clip-path:url(#SVGID_00000152980144046557421670000010111988625728890513_);fill:#B6A293;" d="M13.9,121.3
		c-0.6,3.1-0.8,6.3-0.9,9.5c0,5.2,0.7,10.3,2.2,15.2c30.2,30.2,124.8,27.4,118-24.8L13.9,121.3z"/>
	<path style="clip-path:url(#SVGID_00000152980144046557421670000010111988625728890513_);fill:#83665A;" d="M150.4,121.3
		c8.1,61.7-92.2,69.1-129.6,36.7c12.4,18.8,38.2,28.4,68.1,28.4c41.9,0,75.9-19,75.9-55.7c0-3.2-0.3-6.4-0.9-9.5H150.4z"/>
	<path style="clip-path:url(#SVGID_00000152980144046557421670000010111988625728890513_);fill:#F8AF5E;" d="M13.9,121.3
		c-0.5,3.1-0.8,6.3-0.9,9.5h151.9c0-3.2-0.3-6.4-0.9-9.5H13.9z"/>
	<path style="clip-path:url(#SVGID_00000152980144046557421670000010111988625728890513_);fill:#FDD495;" d="M13.9,121.3
		c-0.5,3.1-0.8,6.3-0.9,9.5h120.3c0.4-3.2,0.3-6.3-0.1-9.5H13.9z"/>
	<path style="clip-path:url(#SVGID_00000152980144046557421670000010111988625728890513_);fill:#F1844D;" d="M150.4,121.3
		c0.4,3.1,0.6,6.3,0.4,9.5h14c0-3.2-0.3-6.4-0.9-9.5H150.4z"/>
	<path style="clip-path:url(#SVGID_00000152980144046557421670000010111988625728890513_);fill:#1A1A1A;" d="M87.7,120.3v1.9h75.4
		c0.5,2.8,0.7,5.7,0.8,8.5c0,18-8.3,31.6-21.8,40.8s-32.3,13.9-53.2,13.9h-1.2v1.9h1.2c21.1,0,40.3-4.8,54.2-14.3
		s22.7-23.8,22.7-42.4c0-3.2-0.3-6.5-0.9-9.6l-0.1-0.8L87.7,120.3z"/>
	
		<rect x="13" y="129.8" style="clip-path:url(#SVGID_00000152980144046557421670000010111988625728890513_);fill:#1A1A1A;" width="151.9" height="1.9"/>
	
		<rect x="79.8" y="89.6" style="clip-path:url(#SVGID_00000152980144046557421670000010111988625728890513_);fill:#F49955;" width="63.3" height="31.6"/>
	
		<rect x="79.8" y="89.6" style="clip-path:url(#SVGID_00000152980144046557421670000010111988625728890513_);fill:#ED6B2F;" width="63.3" height="4.4"/>
	
		<rect x="75" y="80.3" style="clip-path:url(#SVGID_00000152980144046557421670000010111988625728890513_);fill:#FDD495;" width="72.8" height="9.2"/>
	<path style="clip-path:url(#SVGID_00000152980144046557421670000010111988625728890513_);fill:#1A1A1A;" d="M110.2,79.3v1.9h36.6
		v7.3h-36.6v1.9h38.6V79.3H110.2z"/>
	
		<rect x="101.4" y="60.4" style="clip-path:url(#SVGID_00000152980144046557421670000010111988625728890513_);fill:#89A3AA;" width="19.9" height="19.9"/>
	
		<rect x="114.2" y="60.4" style="clip-path:url(#SVGID_00000152980144046557421670000010111988625728890513_);fill:#647D8A;" width="7.1" height="19.9"/>
	
		<rect x="105.1" y="60.4" style="clip-path:url(#SVGID_00000152980144046557421670000010111988625728890513_);fill:#FFFFFF;" width="2.9" height="19.9"/>
	
		<rect x="101.4" y="60.4" style="clip-path:url(#SVGID_00000152980144046557421670000010111988625728890513_);fill:#FFFFFF;" width="19.9" height="5.6"/>
	
		<rect x="114.2" y="60.4" style="clip-path:url(#SVGID_00000152980144046557421670000010111988625728890513_);fill:#B3B3B3;" width="7.1" height="5.6"/>
	
		<rect x="101.4" y="65.1" style="clip-path:url(#SVGID_00000152980144046557421670000010111988625728890513_);fill:#1A1A1A;" width="19.9" height="1.9"/>
	<path style="clip-path:url(#SVGID_00000152980144046557421670000010111988625728890513_);fill:#1A1A1A;" d="M110.2,59.4v1.9h10.2
		v17.9h-10.2v1.9h12.1V59.4H110.2z"/>
	<path style="clip-path:url(#SVGID_00000152980144046557421670000010111988625728890513_);fill:#ED6B2F;" d="M102,96.1
		c-5.1,0-9.2,4.2-9.2,9.4c0,5.1,4.2,9.2,9.4,9.2c5.1,0,9.2-4.2,9.2-9.3C111.4,100.3,107.2,96.1,102,96.1z"/>
	<path style="clip-path:url(#SVGID_00000152980144046557421670000010111988625728890513_);fill:#FFFFFF;" d="M99.2,97.1
		c-2.2,0-4.4,0.9-5.9,2.4c-3.3,3.2-3.3,8.5-0.1,11.7c0,0,0.1,0.1,0.1,0.1c3.3,3.3,8.6,3.3,11.9,0c3.3-3.2,3.3-8.5,0.1-11.8
		C103.7,98,101.5,97.1,99.2,97.1L99.2,97.1z"/>
	<path style="clip-path:url(#SVGID_00000152980144046557421670000010111988625728890513_);fill:#97D6F2;" d="M99.2,101.4
		c-2.2,0-4,1.7-4.1,3.9c0,1.1,0.4,2.2,1.2,2.9c1.5,1.6,4,1.7,5.7,0.2c0.8-0.8,1.3-1.9,1.3-3C103.3,103.2,101.5,101.5,99.2,101.4
		L99.2,101.4z"/>
	<path style="clip-path:url(#SVGID_00000152980144046557421670000010111988625728890513_);fill:#1A1A1A;" d="M94.4,104.2
		c-0.7,2.7,1,5.4,3.7,6.1s5.4-1,6.1-3.7c0.2-0.8,0.2-1.6,0-2.4h-2c0.2,0.4,0.3,0.8,0.3,1.2c-0.1,1.7-1.6,3-3.3,2.9
		c-1.6-0.1-2.8-1.3-2.9-2.9c0-0.4,0.1-0.8,0.3-1.2H94.4z"/>
	<path style="clip-path:url(#SVGID_00000152980144046557421670000010111988625728890513_);fill:#1A1A1A;" d="M90,104.2
		c-0.1,0.4-0.1,0.8-0.1,1.2c0,5.2,4.2,9.4,9.4,9.4c5.2,0,9.4-4.2,9.4-9.4l0,0c0-0.4,0-0.8-0.1-1.2h-2c0.1,0.4,0.1,0.8,0.1,1.2
		c-0.2,4.1-3.6,7.3-7.7,7.2c-3.9-0.1-7-3.3-7.2-7.2c0-0.4,0-0.8,0.1-1.2H90z"/>
	<path style="clip-path:url(#SVGID_00000152980144046557421670000010111988625728890513_);fill:#ED6B2F;" d="M126.2,96.1
		c-5.1-0.2-9.4,3.9-9.6,9c-0.2,5.1,3.9,9.4,9,9.6c0.2,0,0.4,0,0.6,0c2.5,0,4.9-1,6.6-2.7c3.6-3.6,3.7-9.5,0-13.2
		C131.1,97.1,128.7,96.1,126.2,96.1z"/>
	<path style="clip-path:url(#SVGID_00000152980144046557421670000010111988625728890513_);fill:#FFFFFF;" d="M123.5,97.1
		c-4.6-0.2-8.5,3.4-8.6,8.1c-0.2,4.6,3.4,8.5,8.1,8.6c0.2,0,0.4,0,0.6,0c2.2,0,4.4-0.9,5.9-2.4c3.3-3.2,3.3-8.5,0-11.8
		C127.9,98,125.7,97.1,123.5,97.1z"/>
	<path style="clip-path:url(#SVGID_00000152980144046557421670000010111988625728890513_);fill:#97D6F2;" d="M123.5,101.4
		c-2.2,0-4,1.8-4,4s1.8,4,4,4s4-1.8,4-4S125.7,101.4,123.5,101.4z"/>
	<path style="clip-path:url(#SVGID_00000152980144046557421670000010111988625728890513_);fill:#1A1A1A;" d="M118.7,104.2
		c-0.6,2.7,1,5.4,3.7,6c2.7,0.6,5.4-1,6-3.7c0.1-0.4,0.1-0.7,0.1-1.1c0-0.4-0.1-0.8-0.2-1.2h-2c0.2,0.4,0.3,0.8,0.3,1.2
		c0,1.7-1.4,3.1-3.1,3.1c-1.7,0-3.1-1.4-3.1-3.1c0-0.4,0.1-0.8,0.3-1.2H118.7z"/>
	<path style="clip-path:url(#SVGID_00000152980144046557421670000010111988625728890513_);fill:#1A1A1A;" d="M114.2,104.2
		c-0.1,0.4-0.1,0.8-0.1,1.2c0,5.2,4.2,9.4,9.4,9.4c5.2,0,9.4-4.2,9.4-9.4c0-0.4,0-0.8-0.1-1.2h-2c0.1,0.4,0.1,0.8,0.1,1.2
		c0,4.1-3.3,7.4-7.4,7.4c-4.1,0-7.4-3.3-7.4-7.4c0-0.4,0-0.8,0.1-1.2H114.2z"/>
	<path style="clip-path:url(#SVGID_00000152980144046557421670000010111988625728890513_);fill:#1A1A1A;" d="M78.8,104.2v18H144v-18
		h-2v16.1H80.7v-16.1H78.8z"/>
	<path style="clip-path:url(#SVGID_00000152980144046557421670000010111988625728890513_);fill:#9D8070;" d="M73.8,137.9
		c-6.4,0-11.6,5.2-11.5,11.6c0,6.4,5.2,11.6,11.6,11.5s11.6-5.2,11.5-11.6c0-3.1-1.2-6-3.4-8.1C79.8,139.1,76.9,137.9,73.8,137.9
		L73.8,137.9z"/>
	<path style="clip-path:url(#SVGID_00000152980144046557421670000010111988625728890513_);fill:#7F6456;" d="M70,138.9
		c-5.9,0-10.6,4.7-10.6,10.6c0,5.9,4.7,10.6,10.6,10.6c5.9,0,10.6-4.7,10.6-10.6c0,0,0,0,0,0C80.6,143.6,75.9,138.9,70,138.9
		C70,138.9,70,138.9,70,138.9z"/>
	<path style="clip-path:url(#SVGID_00000152980144046557421670000010111988625728890513_);fill:#97D6F2;" d="M75.3,149.4
		c0,2.9-2.4,5.3-5.3,5.3s-5.3-2.4-5.3-5.3c0-2.9,2.4-5.3,5.3-5.3c0,0,0,0,0,0C72.9,144.1,75.3,146.5,75.3,149.4L75.3,149.4
		L75.3,149.4z"/>
	<path style="clip-path:url(#SVGID_00000152980144046557421670000010111988625728890513_);fill:#1A1A1A;" d="M58.5,148.2
		c0,0.4-0.1,0.8-0.1,1.2c0,6.4,5.2,11.6,11.6,11.6c6.4,0,11.6-5.2,11.6-11.6c0,0,0,0,0,0c0-0.4,0-0.8-0.1-1.2h-2
		c0.1,0.4,0.1,0.8,0.1,1.2c0,5.3-4.3,9.6-9.6,9.6c-5.3,0-9.6-4.3-9.6-9.6c0-0.4,0-0.8,0.1-1.2H58.5z"/>
	<path style="clip-path:url(#SVGID_00000152980144046557421670000010111988625728890513_);fill:#1A1A1A;" d="M63.8,148.2
		c-0.1,0.4-0.1,0.8-0.1,1.2c0,3.5,2.8,6.3,6.3,6.3c3.5,0,6.3-2.8,6.3-6.3c0-0.4,0-0.8-0.1-1.2h-2c0.1,0.4,0.2,0.8,0.2,1.2
		c0,2.4-2,4.4-4.4,4.4s-4.4-2-4.4-4.4c0-0.4,0.1-0.8,0.2-1.2H63.8z"/>
	<path style="clip-path:url(#SVGID_00000152980144046557421670000010111988625728890513_);fill:#9D8070;" d="M105,137.9
		c-6.4,0-11.6,5.2-11.6,11.6c0,6.4,5.2,11.6,11.6,11.6c6.4,0,11.6-5.2,11.6-11.6S111.4,137.9,105,137.9L105,137.9z"/>
	<path style="clip-path:url(#SVGID_00000152980144046557421670000010111988625728890513_);fill:#7F6456;" d="M101.2,138.9
		c-5.9,0-10.6,4.7-10.6,10.6c0,5.9,4.7,10.6,10.6,10.6c5.9,0,10.6-4.7,10.6-10.6c0,0,0,0,0,0C111.8,143.6,107.1,138.9,101.2,138.9
		C101.2,138.9,101.2,138.9,101.2,138.9z"/>
	<path style="clip-path:url(#SVGID_00000152980144046557421670000010111988625728890513_);fill:#97D6F2;" d="M106.5,149.4
		c0,2.9-2.4,5.3-5.3,5.3s-5.3-2.4-5.3-5.3c0-2.9,2.4-5.3,5.3-5.3S106.5,146.5,106.5,149.4L106.5,149.4z"/>
	<path style="clip-path:url(#SVGID_00000152980144046557421670000010111988625728890513_);fill:#1A1A1A;" d="M110.7,148.2
		c0.1,0.4,0.1,0.8,0.1,1.2c0,5.3-4.3,9.6-9.6,9.6c-5.3,0-9.6-4.3-9.6-9.6c0-0.4,0-0.8,0.1-1.2h-1.9c0,0.4-0.1,0.8-0.1,1.2
		c0,6.4,5.2,11.6,11.6,11.6c6.4,0,11.6-5.2,11.6-11.6c0-0.4,0-0.8-0.1-1.2H110.7z"/>
	<path style="clip-path:url(#SVGID_00000152980144046557421670000010111988625728890513_);fill:#1A1A1A;" d="M105.4,148.2
		c0.1,0.4,0.2,0.8,0.2,1.2c0,2.4-2,4.4-4.4,4.4s-4.4-2-4.4-4.4c0-0.4,0.1-0.8,0.2-1.2h-2c-0.7,3.4,1.5,6.7,5,7.4
		c3.4,0.7,6.7-1.5,7.4-5c0.2-0.8,0.2-1.6,0-2.4H105.4z"/>
	<path style="clip-path:url(#SVGID_00000152980144046557421670000010111988625728890513_);fill:#83665A;" d="M136.2,137.9
		c-6.4,0-11.6,5.2-11.5,11.6s5.2,11.6,11.6,11.5c6.4,0,11.6-5.2,11.5-11.6c0-3.1-1.2-6-3.4-8.2C142.2,139.1,139.3,137.9,136.2,137.9
		z"/>
	<path style="clip-path:url(#SVGID_00000152980144046557421670000010111988625728890513_);fill:#7F6456;" d="M132.4,138.9
		c-5.9,0-10.6,4.7-10.6,10.6c0,5.9,4.7,10.6,10.6,10.6c5.9,0,10.6-4.7,10.6-10.6S138.3,138.9,132.4,138.9
		C132.4,138.9,132.4,138.9,132.4,138.9z"/>
	<path style="clip-path:url(#SVGID_00000152980144046557421670000010111988625728890513_);fill:#97D6F2;" d="M137.7,149.4
		c0,2.9-2.4,5.3-5.3,5.3s-5.3-2.4-5.3-5.3c0-2.9,2.4-5.3,5.3-5.3S137.7,146.5,137.7,149.4L137.7,149.4z"/>
	<path style="clip-path:url(#SVGID_00000152980144046557421670000010111988625728890513_);fill:#1A1A1A;" d="M120.9,148.2
		c0,0.4-0.1,0.8-0.1,1.2c0,6.4,5.2,11.6,11.6,11.6c6.4,0,11.6-5.2,11.6-11.6c0-0.4,0-0.8-0.1-1.2H142c0.1,0.4,0.1,0.8,0.1,1.2
		c-0.2,5.3-4.6,9.5-9.9,9.3c-5.1-0.2-9.2-4.2-9.3-9.3c0-0.4,0-0.8,0.1-1.2H120.9z"/>
	<path style="clip-path:url(#SVGID_00000152980144046557421670000010111988625728890513_);fill:#1A1A1A;" d="M126.2,148.2
		c-0.7,3.4,1.6,6.7,5,7.4c0.4,0.1,0.8,0.1,1.2,0.1c3.5,0,6.3-2.8,6.3-6.3c0-0.4,0-0.8-0.1-1.2h-2c0.1,0.4,0.2,0.8,0.2,1.2
		c0,2.4-2,4.4-4.4,4.4s-4.4-2-4.4-4.4c0-0.4,0.1-0.8,0.2-1.2H126.2z"/>
	<path style="clip-path:url(#SVGID_00000152980144046557421670000010111988625728890513_);fill:#1A1A1A;" d="M70,137.9
		c-6.4,0-11.6,5.2-11.6,11.6c0,0,0,0,0,0c0,0.4,0,0.8,0.1,1.2h2c-0.1-0.4-0.1-0.8-0.1-1.2c0-5.3,4.3-9.6,9.6-9.6
		c5.3,0,9.6,4.3,9.6,9.6c0,0,0,0,0,0c0,0.4,0,0.8-0.1,1.2h2c0-0.4,0.1-0.8,0.1-1.2C81.6,143.1,76.4,137.9,70,137.9
		C70,137.9,70,137.9,70,137.9z"/>
	<path style="clip-path:url(#SVGID_00000152980144046557421670000010111988625728890513_);fill:#1A1A1A;" d="M70,143.1
		c-3.5,0-6.3,2.8-6.3,6.3c0,0.4,0,0.8,0.1,1.2h2c-0.1-0.4-0.2-0.8-0.2-1.2c0-2.4,2-4.4,4.4-4.4s4.4,2,4.4,4.4l0,0
		c0,0.4-0.1,0.8-0.2,1.2h2c0.1-0.4,0.1-0.8,0.1-1.2C76.3,146,73.5,143.2,70,143.1z"/>
	<path style="clip-path:url(#SVGID_00000152980144046557421670000010111988625728890513_);fill:#1A1A1A;" d="M101.2,137.9
		c-6.4,0-11.6,5.2-11.6,11.6c0,0.4,0,0.8,0.1,1.2h2c-0.1-0.4-0.1-0.8-0.1-1.2c0-5.3,4.3-9.6,9.6-9.6c5.3,0,9.6,4.3,9.6,9.6l0,0
		c0,0.4,0,0.8-0.1,1.2h2c0-0.4,0.1-0.8,0.1-1.2C112.8,143.1,107.7,137.9,101.2,137.9L101.2,137.9z"/>
	<path style="clip-path:url(#SVGID_00000152980144046557421670000010111988625728890513_);fill:#1A1A1A;" d="M101.2,143.1
		c-3.5,0-6.3,2.8-6.3,6.3c0,0.4,0,0.8,0.1,1.2h2c-0.1-0.4-0.2-0.8-0.2-1.2c0-2.4,2-4.4,4.4-4.4s4.4,2,4.4,4.4l0,0
		c0,0.4-0.1,0.8-0.2,1.2h2c0.1-0.4,0.1-0.8,0.1-1.2C107.5,146,104.7,143.2,101.2,143.1L101.2,143.1z"/>
	<path style="clip-path:url(#SVGID_00000152980144046557421670000010111988625728890513_);fill:#1A1A1A;" d="M132.4,137.9
		c-6.4,0-11.6,5.2-11.6,11.6c0,0.4,0,0.8,0.1,1.2h1.9c-0.1-0.4-0.1-0.8-0.1-1.2c-0.2-5.3,4-9.8,9.3-9.9c5.3-0.2,9.8,4,9.9,9.3
		c0,0.2,0,0.4,0,0.6c0,0.4,0,0.8-0.1,1.2h1.9c0-0.4,0.1-0.8,0.1-1.2C144,143.1,138.8,137.9,132.4,137.9z"/>
	<path style="clip-path:url(#SVGID_00000152980144046557421670000010111988625728890513_);fill:#1A1A1A;" d="M132.4,143.1
		c-3.5,0-6.3,2.8-6.3,6.3c0,0.4,0,0.8,0.1,1.2h2c-0.1-0.4-0.2-0.8-0.2-1.2c0-2.4,2-4.4,4.4-4.4s4.4,2,4.4,4.4l0,0
		c0,0.4-0.1,0.8-0.2,1.2h2c0.1-0.4,0.1-0.8,0.1-1.2C138.7,146,135.9,143.2,132.4,143.1L132.4,143.1z"/>
	<path style="clip-path:url(#SVGID_00000152980144046557421670000010111988625728890513_);fill:#1A1A1A;" d="M99.2,100.5
		c-2.8,0-5,2.2-5,5c0,0.4,0.1,0.8,0.2,1.2h2c-0.2-0.4-0.3-0.8-0.3-1.2c0.1-1.7,1.6-3,3.3-2.9c1.6,0.1,2.8,1.3,2.9,2.9
		c0,0.4-0.1,0.8-0.3,1.2h2c0.1-0.4,0.2-0.8,0.2-1.2C104.2,102.7,102,100.5,99.2,100.5L99.2,100.5z"/>
	<path style="clip-path:url(#SVGID_00000152980144046557421670000010111988625728890513_);fill:#1A1A1A;" d="M99.2,96.1
		c-5.2,0-9.4,4.2-9.4,9.3c0,0.4,0,0.8,0.1,1.2h2c-0.1-0.4-0.1-0.8-0.1-1.2c0.2-4.1,3.6-7.3,7.7-7.2c3.9,0.1,7,3.3,7.2,7.2
		c0,0.4,0,0.8-0.1,1.2h2c0.1-0.4,0.1-0.8,0.1-1.2C108.7,100.3,104.5,96.1,99.2,96.1L99.2,96.1z"/>
	<path style="clip-path:url(#SVGID_00000152980144046557421670000010111988625728890513_);fill:#1A1A1A;" d="M123.5,100.5
		c-2.8,0-5,2.2-5,5c0,0.4,0.1,0.8,0.2,1.2h2c-0.2-0.4-0.3-0.8-0.3-1.2c0-1.7,1.4-3.1,3.1-3.1c1.7,0,3.1,1.4,3.1,3.1
		c0,0.4-0.1,0.8-0.3,1.2h2c0.1-0.4,0.2-0.8,0.2-1.2C128.5,102.7,126.2,100.5,123.5,100.5L123.5,100.5z"/>
	<path style="clip-path:url(#SVGID_00000152980144046557421670000010111988625728890513_);fill:#1A1A1A;" d="M123.5,96.1
		c-5.2,0-9.4,4.2-9.4,9.3c0,0.4,0,0.8,0.1,1.2h2c-0.1-0.4-0.1-0.8-0.1-1.2c0-4.1,3.3-7.4,7.4-7.4s7.4,3.3,7.4,7.4
		c0,0.4,0,0.8-0.1,1.2h2c0.1-0.4,0.1-0.8,0.1-1.2C132.9,100.3,128.7,96.1,123.5,96.1L123.5,96.1z"/>
	<path style="clip-path:url(#SVGID_00000152980144046557421670000010111988625728890513_);fill:#1A1A1A;" d="M100.5,59.4v21.8h12.1
		v-1.9h-10.2V61.4h10.2v-1.9H100.5z"/>
	<path style="clip-path:url(#SVGID_00000152980144046557421670000010111988625728890513_);fill:#1A1A1A;" d="M74,79.3v11.2h38.6
		v-1.9H76v-7.3h36.6v-1.9H74z"/>
	<path style="clip-path:url(#SVGID_00000152980144046557421670000010111988625728890513_);fill:#1A1A1A;" d="M78.8,88.7v18h1.9V90.6
		H142v16.1h2v-18L78.8,88.7z"/>
	<path style="clip-path:url(#SVGID_00000152980144046557421670000010111988625728890513_);fill:#1A1A1A;" d="M13,120.3l-0.1,0.8
		c-0.6,3.2-0.9,6.4-0.9,9.6l0,0c0,18.6,8.7,32.9,22.7,42.4s33.1,14.3,54.2,14.3h1.2v-1.9h-1.2c-20.8,0-39.6-4.7-53.1-13.9
		S14,148.8,13.9,130.8c0-2.9,0.3-5.7,0.8-8.5h75.4v-1.9L13,120.3z"/>
	
		<rect x="142" y="57" style="clip-path:url(#SVGID_00000152980144046557421670000010111988625728890513_);fill:#1A1A1A;" width="38.7" height="4.8"/>
	
		<rect x="147" y="32.6" style="clip-path:url(#SVGID_00000152980144046557421670000010111988625728890513_);fill:#FFFFFF;" width="33.9" height="24.4"/>
	
		<rect x="146.8" y="44.9" style="clip-path:url(#SVGID_00000152980144046557421670000010111988625728890513_);fill:#EB5A53;" width="33.9" height="12.2"/>
	
		<rect x="176.1" y="28.5" style="clip-path:url(#SVGID_00000152980144046557421670000010111988625728890513_);fill:#1A1A1A;" width="4.9" height="33.3"/>
	
		<rect x="142" y="28.5" style="clip-path:url(#SVGID_00000152980144046557421670000010111988625728890513_);fill:#1A1A1A;" width="4.9" height="50.8"/>
	<path style="clip-path:url(#SVGID_00000152980144046557421670000010111988625728890513_);fill:#FFFFFF;" d="M45,0H16H0v16
		c0,7,0,14,0,21c10.3,12.3,28.7,14,41,3.7c6.7-5.5,10.5-13.8,10.5-22.4C51.5,11.6,49.2,5.2,45,0z"/>
	<g style="clip-path:url(#SVGID_00000152980144046557421670000010111988625728890513_);enable-background:new    ;">
		<text transform="matrix(1 0 0 1 15.57 31.75)" class="st21 st2 st22">18</text>
	</g>
</g>
</svg>
