<svg id="Слой_1" data-name="Слой 1" xmlns="http://www.w3.org/2000/svg" xmlns:xlink="http://www.w3.org/1999/xlink" viewBox="0 0 195.59 280.63"><defs><style>.cls-1,.cls-15,.cls-22,.cls-23{fill:#e94539;}.cls-2{fill:#2e74b3;}.cls-10,.cls-11,.cls-2,.cls-9{stroke:#fff;}.cls-10,.cls-16,.cls-21,.cls-3,.cls-5,.cls-7,.cls-8,.cls-9{fill:#fff;}.cls-12,.cls-3,.cls-7{stroke:#424242;}.cls-4{fill:#d49e63;}.cls-4,.cls-5,.cls-6,.cls-8{stroke:#41382d;}.cls-5,.cls-8{fill-opacity:0;}.cls-6{fill:#f7e926;stroke-opacity:0;stroke-width:1.05px;}.cls-7{stroke-width:0.99px;}.cls-8{stroke-width:0.6px;}.cls-10{stroke-width:0.98px;}.cls-11,.cls-12{fill:none;}.cls-11{stroke-width:1.35px;}.cls-12{stroke-width:0.5px;}.cls-13{fill:#d7373d;}.cls-13,.cls-14,.cls-15,.cls-16,.cls-17,.cls-18,.cls-19,.cls-20{fill-rule:evenodd;}.cls-14{fill:#fbea26;}.cls-17{fill:url(#Безымянный_градиент_18);}.cls-18{fill:#222;}.cls-19{fill:#fffefe;}.cls-20{fill:#367db4;}.cls-22{font-size:24.77px;}.cls-22,.cls-23{font-family:Impact;}.cls-23{font-size:20px;}.cls-24{letter-spacing:-0.02em;}</style><linearGradient id="Безымянный_градиент_18" x1="-327.15" y1="-211.47" x2="-327.15" y2="-233.02" gradientTransform="matrix(-1, 0, 0, 1, -230.04, 485)" gradientUnits="userSpaceOnUse"><stop offset="0" stop-color="#e73b33"/><stop offset="1" stop-color="#d7373d" stop-opacity="0"/></linearGradient></defs><rect class="cls-1" x="-5.26" y="-8.4" width="214.01" height="297.89"/><path id="path5145" class="cls-2" d="M41.23,14.76V46.39c3.17,6.33,6.33,9.49,6.33,19S44.4,78,41.23,84.35c0,9.49,0,19,10.05,28.72,12.1,15.57,38.67,9.25,45.37,25.06,9.75-15.81,33.16-9.49,45.82-25.3,9.49-9.5,9.49-19,9.49-28.48-3.17-6.32-6.33-9.49-6.33-19s3.16-12.65,6.33-19V14.76c-17.35-7.43-38-9.5-55.36-9.5C76.63,5.43,58.27,7.17,41.23,14.76Z"/><path id="path5113" class="cls-3" d="M96.56,92.05l-.1,11h3.76l0-11.13c-1.19-.11-2.52-1.07-3.7.15Z"/><path id="path5097" class="cls-3" d="M85.31,111.47v7.69l3.51,0-.15-7.74a21.6,21.6,0,0,0-3.37,0Z"/><path id="path5105" class="cls-3" d="M111.42,107.07l0,11.92-4.06,3.53V109.17c1-.15,4.29,2.48,4.08-1.89Z"/><path id="path5109" class="cls-3" d="M107.45,92.43l-.07,5.31,4.11.13.07-5.77V90.84a5.65,5.65,0,0,0-1.92-3.37,6.25,6.25,0,0,0-2.2,3.29Z"/><path id="path2987" class="cls-4" d="M59.9,85l13.94-.22c.87.35,2.48-3.91,3.83-3.72a23.35,23.35,0,0,0,6.8-.85l8.79-4c2.75-1,7.19-.64,10.6-.84.79.18,4.3-1.3,8.09-4,1-.21,1.78-.91,3.07,0a14.74,14.74,0,0,0,2.55,5,17.68,17.68,0,0,0,5.93,4.58,59.59,59.59,0,0,0,6.36,2c1.73.27,3.28-.06,4.66.5s4.4,5,5.6,7.56c.07,2.33.1,3.5,0,5.5a6.75,6.75,0,0,0,2.6,5l2.18-3.52a6.16,6.16,0,0,0-.87-2.75c-.36-.52,0-1.1-.07-2a4.87,4.87,0,0,0-.39-2.65l-1.77-3.79-2.52-3.83c-1.48-2.66,1.16-1.56,1.62-.45a11,11,0,0,1,2.58,4.93c.15,1.6-.09,4.16.89,5.43s1.88,3.52,3.32,3.58l.77-5.53c.06-.42-1.91-1.88-1.91-2.92.92-1,1.48-2.2,1.07-2.72-2.34-3.8-5-7.77-5.87-8.37-1.48-.71-3.41-.51-5.22-.57a5.52,5.52,0,0,1-4-2.8,22.61,22.61,0,0,1-1.8-3.53c-.67-2.58-.6-5.06-2.79-7.83l-.79-.78c-2.63-2,.6-.32,1.55-.28,2.16,0-3.7-4.85-5.73-4.67a66.58,66.58,0,0,0-8.77.32l-7.43.56a40.74,40.74,0,0,1-9.32.19l-8.29-1.11A20.42,20.42,0,0,0,82,55.77c-1.78.11-5.71,3.43-5.56,1.63C77.61,55.75,78.79,54.12,79,52a15.61,15.61,0,0,0-.65-7c.94.1,2.18,1,2.18-.42a5.46,5.46,0,0,0-2.34-4.1c-2.56-2.95,3.51,2,5.65,3.29,3,3,5.72,5.93,8.58,8.72l2.27,1.71c1.83,0-.31-3,.79-2.23.94.84,1.35,2.07,2.91,2.44a8.64,8.64,0,0,0,4.11.38c1.51-.4,3.12-.74,4-1.87.56-.6,1.48-1.9-1-1.09l-1.81.25a10.15,10.15,0,0,1-3.92-.46,4,4,0,0,1-1.58-1.22A4.15,4.15,0,0,1,100,48.6c1.79-.78,1.55-.23,4.28-.67.2-.46-2.32-1.73-4.37-1a13.26,13.26,0,0,0-3.15,1.73,1.51,1.51,0,0,1-1.31.19c-1.83-.34-2.8-1.3-4.1-2.52-1.28-.83,2.29-.49,4.48-1.49.31-1-.83-2-1.64-2-1.62-.11-3.85.1-4.55.57-1,.73-5-2.65-3.58-2.77l1.42-.78c2.67-.08,2.76-1.75-1-2.38-1.2-.16-2.42.92-3.73,1.16a9.31,9.31,0,0,1-3.34-.95c-.85-.43-1.92-.93-2.24-1.67a3,3,0,0,1-.31-2c.23-.8,1.16-1.77,3-2.73a5.9,5.9,0,0,1,3.66-.7l7.34.56c2.9,0,4.92-1.19,6.95-1.91l4.37-.4A6,6,0,0,0,106,26.23c1.49-1.78,1.74-6.22.09-3.75-.7.53-1.89,1.75-2.51,2.31-1.26.92-1.56.87-3.2.55-2.52-1.35,4.47-4.32,2.29-4.68a7.7,7.7,0,0,0-3.1,1,5.76,5.76,0,0,0-3.35,3.38c.06,1.17-.94,2.51-1.84,2.51L92,27.32c-.87-.17-.09-2.68,2.35-4,1-.41.63-1.31-.69-1.22a7.71,7.71,0,0,0-2.89,1.59l-3,3.73a1.9,1.9,0,0,1-1.31.45L83.46,27c-1.51-.68.16-1.5,1.09-2.72,1-1-.44-1.19-1.61-.64-.86,1-2.11,1.31-3,2.34-.76.39-.83,1.51-1.92,2.06a5.43,5.43,0,0,0-2.17,1.54A6.44,6.44,0,0,0,74.12,32c-.69,1-1.53-2.46-3.46-2.84-2.84-.54-2.6.21-2,1.05l.82,1c.63.72,1.31,1.65-.63,2.23L67,33.94c-1.57.75-1.62,1.75-2.54,2.67a22.58,22.58,0,0,1-3.26,2l-2.79,1.19c-1.52.58-.23,2.34,1.81,2.43,1.89-.16,1.92-.16.47.32-1.77.72,0,1.28,1.07,1.5a3.42,3.42,0,0,0,1.79-.56,5.6,5.6,0,0,1,3-.06c1.3.27,3.13.35,1.87,1.47l-1.88,2.51c-1.22,1.8-.9,3.6-1,5.4-.84,1.76-2.48,2.61-3.43,3.9-1.44,1.4-2.84,7.82-1.17,11.4.42,1.4,2.49,4,1.66,4.26a15.13,15.13,0,0,0-4,1.73,6.62,6.62,0,0,1-2.8,1.23,9.63,9.63,0,0,0-3.24.79c-1.86.86-2.19,1.71-2.27,2.5a36.35,36.35,0,0,1-1.58,7.61c-.62,1-1.24,2-1.86,2.8-1.12,2.83-.87,6.46-.93,8.2.35.63,1.07.63,1.78-.33l2.64-3.44c.65-.44,0-2,.1-2.7A5.39,5.39,0,0,1,52,88.81l.65-4.69a8.15,8.15,0,0,1,1.4-3.7,13.6,13.6,0,0,1,5.27-2.16c7.09-2.33,10.74-.57,7.79.34l-4,1.08c-.84.26-2.22.53-3.58.8l-2.39.32c-2.94.63-2.6,2.47-2.94,3.92a25.49,25.49,0,0,1-1,4L51,94.78l-1.24,3c-.5,1.45-.23,2.64,1.16,2.52a4,4,0,0,0,2.23-.62,3.55,3.55,0,0,0,2-2.17c-.35-3.57,1.19-1.89.89-3.82.2-1.77.47-4.53.65-5.45C56.62,87.13,58.47,85,59.9,85Z"/><path id="path2995" class="cls-5" d="M114.07,70.83c.43-1,1.91-.18,2.37.19l2.3,2.39a45.58,45.58,0,0,0,4.9,3.73,21.6,21.6,0,0,0,5.47,2.11c1.48.34,3.63,1.07,5.23.67,1.68,0,3.83.19,4.73,1.15"/><path id="path5069" class="cls-3" d="M88.47,103.33l.06,2.77c6.38-.17,12.51-.4,18.88-.56l.25-2.64c-3,0-6-.08-9.23,0s-6.63.29-10,.43Z"/><path id="path2997" class="cls-5" d="M73.86,62.25a7.37,7.37,0,0,0-.85,4"/><path id="path2999" class="cls-5" d="M75.56,62.3c-.44,1-1.26,2.69-1,3.91"/><path id="path3001" class="cls-5" d="M107.8,70.93c-.07-.68,1-1,.63-2.05"/><path id="path3003" class="cls-5" d="M109.66,69.92c-.2-.7.89-1,.56-1.77"/><path id="path3005" class="cls-5" d="M111.54,69.28c-.16-.67.85-1.11.61-1.65"/><path id="path3007" class="cls-5" d="M113.25,69.18c0-.89,1.31-1,1.11-1.81"/><path id="path3009" class="cls-5" d="M122.17,76.07c1.57-.21,4.42.09,4.73-.63"/><path id="path3011" class="cls-5" d="M124.26,77.29a23.21,23.21,0,0,0,4.58-.67"/><path id="path3013" class="cls-5" d="M127.18,78.75a9.34,9.34,0,0,1,4-1.55"/><path id="path3015" class="cls-5" d="M130.17,79.66c-.3-.53,2.43-.84,2.5-1.91"/><path id="path3019" class="cls-5" d="M75.35,39.06c.27,1.48-.2,3.11,1.18,4.37a10.57,10.57,0,0,0,2.34,1.81"/><path id="path3021" class="cls-5" d="M74.37,56.05a13.21,13.21,0,0,0,2.92-4.21c.38-1.52.48-3.42-.28-4.6"/><path id="path3023" class="cls-5" d="M74.8,55.61c.55-1.21,1.45-2.33.64-4"/><path id="path3025" class="cls-5" d="M71.29,34.28a11.3,11.3,0,0,1,2.28,3.06"/><path id="path3027" class="cls-5" d="M70.63,35.33a7,7,0,0,1,1.76,2.5"/><path id="path3029" class="cls-5" d="M69.71,42.58c0-.75.78-1.23,1.12-1.82"/><path id="path3031" class="cls-5" d="M72.8,42.32c-.29-.65.23-1.3.66-2"/><path id="path3033" class="cls-5" d="M71.14,42.67a3.12,3.12,0,0,1,1-1.94"/><path id="path3035" class="cls-5" d="M74.27,42.05c-.55-.86.22-1.55.64-2.13"/><path id="path3037" class="cls-5" d="M68.15,43.13a3.29,3.29,0,0,1,1.49-2.2"/><path id="path3039" class="cls-5" d="M84.39,78.63c-.15-1.15,1.85-1.11,1.5-3.41"/><path id="path3041" class="cls-5" d="M86.56,78.14c-.13-1.19,1.3-1.45,1.29-3.48"/><path id="path3043" class="cls-5" d="M88.37,77.35c.4-1.26,1.54-1.37,1.42-2.87"/><path id="path3045" class="cls-5" d="M90.89,75.85c0-.94.78-1.46,1-2.54"/><path id="path3049" class="cls-5" d="M69.24,62.05a5.53,5.53,0,0,0,.1,4.22"/><path id="path3053" class="cls-5" d="M70.33,61.79a18.55,18.55,0,0,0,.36,2.57"/><path id="path3055" class="cls-5" d="M73.63,57.39c-1,1.22-3.56,2.89-3.29,4.43"/><path id="path3051" class="cls-5" d="M72.76,58.26c-.47,1.32-1.29,2.33-1.07,4.22"/><path id="path3065" class="cls-5" d="M62.65,71.88l4.75,5.43"/><path id="path3067" class="cls-5" d="M92.63,75.11c-.26-.75,1.21-1.21,1.17-2.42"/><path id="path3069" class="cls-5" d="M94.68,74.55c-.26-.75,1-1.28,1-2.28"/><path id="path3071" class="cls-5" d="M79.92,59.05c0-1,1.3-1.06,1.52-2.34"/><path id="path3073" class="cls-5" d="M82,58.69c0-.77.24-1.27,1.35-1.91"/><path id="path3075" class="cls-5" d="M85.69,58.89a1.36,1.36,0,0,1,1.09-1.39"/><path id="path3077" class="cls-5" d="M83.65,58.69a2.69,2.69,0,0,1,1.12-1.78"/><path id="path3079" class="cls-5" d="M67.43,78.5c1.91-.54,1,0,4.52-.49"/><path id="path3081" class="cls-5" d="M69.87,75.53a4.93,4.93,0,0,0-.26,2.64"/><path id="path3083" class="cls-5" d="M71.29,73.19a15.4,15.4,0,0,0-.14,4.59"/><path id="path3085" class="cls-5" d="M76.87,79.54c.34-.43,1.35-1.21,1.18-2.21-1.23-2.77-1-2.67-1.13-3.9"/><path id="path3087-1" class="cls-6" d="M97.3,34.15l.22-3.38,3.25.23-.23,3.39c1.51.11-6.42-.47,3.24.23L103.56,38l-3.24-.23-.23,3.38-3.24-.23.22-3.39L78.4,36.21c-1.75-.17-1.53-3.32-.23-3.2"/><path id="path5065" class="cls-3" d="M77.86,108.71,71,112c5.86-.29,24.2-1.15,30.07-1.11l1.94-2.77c-6.44-.07-19-.1-25.12.6Z"/><path id="path5067" class="cls-3" d="M77.76,122.11c5,0,14.94-.06,24.56-.06l-5.85-3c-6.56-.13-12.78,0-18.81.12a22.89,22.89,0,0,0,.1,2.9Z"/><path id="path5071" class="cls-3" d="M100.26,97.46l0,3c6.18.08,12.54.2,19,.62l.12-2.79c-7-.46-12.9-.71-19.07-.84Z"/><path id="path5119" class="cls-3" d="M119.33,96.41v6.38h3.23l0-6.34Z"/><path id="path5079" class="cls-3" d="M100.33,119.18l.07,2.93,19-.2v-2.74Z"/><path id="path5143" class="cls-3" d="M119.38,116.79l.05,8.28,3.19-.9v-7.49Z"/><path id="path5123" class="cls-3" d="M119.26,105.65l.08,9.44,3.1,0,.1-9.39Z"/><path id="path5117" class="cls-3" d="M111.56,105.58c5.36,0,11.82.1,17.47.12l.08,2.62c-5.77-.18-7.94,0-9.05-.08l-2.31,2.81c3.06,0,9.54,0,11.32.16V114c-9.41.05-11.79,0-17.54,0l0,2.91c4,.12,11.79-.06,17.6.29l.07,2c-.65,0-.24,0-1.13,0-2.26-.06-3.84,0-4.64,0-1.79,0-.93.4-1,3l6.13-.1a9.66,9.66,0,0,0,3.86-1.26c.34-4.22-.21-19.45-.56-26.56-.11-2.31-.2-3.76-.23-3.72-1.35.4-2.06,2-2.54,3.39-6.65-.44-11.52-.71-17.5-1l0,3.39c5.75.27,11.17.57,17.32,1.11v1.59l-6.39-.34,0,2.71,6.39.26,0,1.56c-6.06-.21-22.24-.22-23.47-.12,0,1-6.44,1.79-6.43,2.78Z"/><path id="path5107" class="cls-7" d="M107.32,100.62l.09,10.46,4.14-3.06,0-7.28Z"/><path id="path5141" class="cls-3" d="M96.44,112.94l.11,14.46,3.77-3,0-7.46Z"/><path id="path5077" class="cls-3" d="M100.2,109.13l.08,1.91c6.11-.16,13,0,19.14,0l0-2.78c-5.59-.15-13.7-.29-19.15-.13Z"/><path id="path5115" class="cls-3" d="M96.44,105.9v8h3.84l0-8.14C99,105.77,97.72,105.84,96.44,105.9Z"/><path id="path5081" class="cls-3" d="M88.78,113.86l0,3,18.57.06,0-3.06Z"/><path id="path5091" class="cls-3" d="M73.82,116.92l-.11,7.82,4,1.38-.13-13.2Z"/><path id="path5093" class="cls-3" d="M73.82,107l.1,7,3.73,0-.13-12.11C76.05,101.79,75.11,106.84,73.82,107Z"/><path id="path5089" class="cls-3" d="M77.48,98.38V97c1.72-.19,5-.9,7.65-1V93.19c-2.53.21-5.45.84-8,1.2A4.62,4.62,0,0,0,75,91.13a5.21,5.21,0,0,0-1.45,4.13,57.68,57.68,0,0,0-8,1.31A5.31,5.31,0,0,0,64,93.48a5.42,5.42,0,0,0-1.95,3.25l-.29,24,4.3,1.8,7.57-.32,0-3-8.26.12,0-2c6-.46,13.55-.44,19.86-.62l0-2.91c-6.56.11-13.4.12-20,.63v-1.76c2.84-.36,5.78-.67,8.53-.9l0-2.76a79.26,79.26,0,0,0-8.51.82l0-1.81c1.16-.6,16.63-1.87,23.13-2l-.24-2.63c-6.52.34-16.56.57-22.86,1.93l0-1.8a81.92,81.92,0,0,1,8.19-1.47l0-2.74A51.16,51.16,0,0,0,65.51,101l0-2a52.34,52.34,0,0,1,8.09-1.43l.08,6.55,3.83-.23Z"/><path id="path5087" class="cls-3" d="M85.22,98l-.13-6.33A4.86,4.86,0,0,1,86.36,88a3.73,3.73,0,0,1,1.9,3.56l0,6.41"/><path id="path5095" class="cls-3" d="M85.27,100.88v7.34l3.19-.07-.1-7.84Z"/><path id="path5133" class="cls-3" d="M87.65,129.32c2.46-.15,6.49,0,9,.07l-.09,1.91-5.37-.09Z"/><path id="path5103" class="cls-3" d="M75.43,125.1a91.14,91.14,0,0,1,10-.85c0,1,5.74,2,5.62,2.58-1,0-5.75,0-9,.11a8.1,8.1,0,0,1-2.82-.45c-2.53-.78-5.4-1.34-3.83-1.39Z"/><path id="path5083" class="cls-3" d="M83.79,124.52l.56,2.32c6.18-.15,17.09.11,23,.5l-.14-2.65C89.2,123.61,85.45,124.28,83.79,124.52Z"/><path id="path5101" class="cls-3" d="M85.55,122.09l-.07,6.19,3.74,1.78L89,122.13Z"/><path id="path5111" class="cls-3" d="M96.57,92.41l3.83,0V89.73a5.6,5.6,0,0,0-1.87-4.51,5.91,5.91,0,0,0-2,4.68Z"/><path id="path5085" class="cls-3" d="M88.35,92.64l-.06,3a128.11,128.11,0,0,1,19.11,0V92.61a115.28,115.28,0,0,0-19,0Z"/><path id="path5063" class="cls-3" d="M77.55,98.75l.07,2.74a182.94,182.94,0,0,1,18.84-1l0-2.92c-3.41,0-7.29.14-10.3.38C83.55,98.2,79.11,98.43,77.55,98.75Z"/><path id="path5121" class="cls-3" d="M119.08,93.17l3.51.16a7.37,7.37,0,0,0-1.66-5.1,8.4,8.4,0,0,0-1.85,4.94Z"/><path id="path5125" class="cls-3" d="M111.67,122.11l0,5.16-4.44,1.88.09-7a24.77,24.77,0,0,1,4.31,0Z"/><path id="path5131" class="cls-3" d="M96.5,126.89l0,6.75,3.83-.13,0-6.46Z"/><path id="path5129" class="cls-3" d="M111.76,127.26l7-1.87c-2.49.15-4.86-.27-7-.33a15.52,15.52,0,0,0,0,2.2Z"/><path id="path3068" class="cls-5" d="M65.9,38.15a5.33,5.33,0,0,1,1.81-.76c.71-.24,1.39-.58,1.81-.45s.87,1.1-.26,1.6c-.43.24-.77.15-1.43,0C67,38.36,65.69,38.5,65.9,38.15Z"/><path id="path3840-1" class="cls-5" d="M67.31,37.73c-.63.13-.92.74,0,.54S67.9,37.58,67.31,37.73Z"/><path id="path3860" class="cls-5" d="M77.51,76.31a8,8,0,0,1-1.82,2.31"/><path id="path3862" class="cls-8" d="M115.34,71.87c-.26-1-1.1-1-1.65-1.1"/><path id="path3849-4" class="cls-9" d="M91.66,119.68l4.21,0v1.68c-.89-.06-3,0-3.94,0Z"/><path id="path3849-0" class="cls-10" d="M95.81,108.9H92.46l-.39,1.56c.79,0,2.79-.13,3.77-.11,0-.51,0-1,0-1.45Z"/><path id="path3849-48" class="cls-9" d="M118.53,109h3.41l-.42,1.35c-.9,0-1.81,0-2.94,0Z"/><path id="path3849-8" class="cls-9" d="M102.29,103.82a10.12,10.12,0,0,1,3.49-.29l-.79,1.38c-.94,0-5.73.25-6.82.26Z"/><path id="path5123-5" class="cls-3" d="M119.27,105.67l.06,8.3h3.13l0-8.31Z"/><path id="path5143-1" class="cls-3" d="M119.34,116.89l0,8.35,3.19-.9c0-2.46.08-5,0-7.42Z"/><path id="path3982" class="cls-9" d="M82.5,125.09a9.23,9.23,0,0,1,1.28-.12l1.11,0v1.31h-1a7.48,7.48,0,0,1-1.65-.27Z"/><path id="path3865-7" class="cls-11" d="M114.13,120.25l2.58,0"/><path id="path3903" class="cls-12" d="M115.49,119.33h1"/><path id="path58" class="cls-13" d="M143.08,287.87a12.08,12.08,0,0,0-2.83-4.87l5.52-2.56c3,1.09,3.82,2.34,4.27,3.62a37.57,37.57,0,0,1-7,3.81"/><path id="path62" class="cls-13" d="M150.9,283.4a2.67,2.67,0,0,0,1.44-2.63c-.35-1.34-1.54-2.5-3.54-3.48l-2.12,2.36a10.63,10.63,0,0,1,4.22,3.75"/><path id="path64" class="cls-13" d="M43.51,284A2.68,2.68,0,0,1,42,281.41c.34-1.34,1.51-2.52,3.51-3.52l2.14,2.34A10.6,10.6,0,0,0,43.51,284"/><path id="path74" class="cls-13" d="M136.45,276.58a26.61,26.61,0,0,0,7.52-4c.25-2.95-.6-4.87-3.92-4.53l-6.17,3.14c1.83,1.7,2.79,3.52,2.57,5.35"/><path id="path76" class="cls-13" d="M57.89,277a26.43,26.43,0,0,1-7.57-3.88c-.29-2.94.54-4.88,3.86-4.57l6.22,3.07c-1.82,1.72-2.76,3.55-2.51,5.38"/><path id="path78" class="cls-13" d="M125.53,279.67a48.08,48.08,0,0,0,9.53-2.31c1.61-2.22-1.3-4.69-2.58-5.87l-8.65,2.31a5.41,5.41,0,0,1,1.7,5.87"/><path id="path80" class="cls-13" d="M68.84,280a48.72,48.72,0,0,1-9.56-2.21c-1.63-2.19,1.25-4.7,2.51-5.9l8.68,2.22A5.39,5.39,0,0,0,68.84,280"/><path id="path82" class="cls-13" d="M124.09,279.78A47.16,47.16,0,0,1,111,282a6.08,6.08,0,0,0-.26-5.72l11.64-2c2.28,1.68,2.49,3.55,1.75,5.51"/><path id="path84" class="cls-13" d="M70.28,280.09a47,47,0,0,0,13.16,2.06,6.07,6.07,0,0,1,.19-5.72L72,274.56c-2.26,1.71-2.44,3.58-1.68,5.53"/><path id="path86" class="cls-13" d="M109.1,282.4q3.3-3.24.21-6.28l-11.69.62-.1,6c4,.35,7.76-.24,11.58-.36"/><path id="path88" class="cls-13" d="M85.3,282.55Q82,279.34,85,276.27l11.69.48.18,6c-4,.39-7.76-.15-11.59-.22"/><path id="path90" class="cls-14" d="M151.4,196.36V184.74c0-1.15-.06-2.79-.16-4.22-2.12-28.43-25.64-51-54.17-51s-52,22.52-54.17,51c0,2.15-.2,2.8-.16,4.23v11.61H151.4"/><path id="path92" class="cls-15" d="M42.74,262.82H151.4V215.2c0-.09,0-18.07,0-18.07H42.74s0,18.23,0,18.33v47.37"/><path id="path94" class="cls-16" d="M40.05,266.23h114.4l-2.81-2.64H42.9l-2.84,2.64"/><path id="path104" class="cls-17" d="M135,269.27c-24.87,8.85-50.12,8.5-75.69.53a5.8,5.8,0,0,0-.5-2.63h76.6a2.88,2.88,0,0,0-.41,2.1"/><path id="path108" class="cls-15" d="M53.41,276.35a24.58,24.58,0,0,1-4-2.58l-2.19,3.16c-1.18,2.49,2.82,3.64,4,4.31l2.24-4.89Zm8,8.52a43.64,43.64,0,0,1-9.3-3.18l2.24-5a72.7,72.7,0,0,0,8.71,3.18l-1.65,5Zm13.44,2.93a66.77,66.77,0,0,1-12.59-2.68L63.8,280a111.68,111.68,0,0,0,11.76,2.34l-.73,5.46Zm17,1.58a92.55,92.55,0,0,1-16.11-1.52l.77-5.7a112.37,112.37,0,0,0,15.28,1.57Zm9.95.1a55.32,55.32,0,0,1-9.37,0v-5.79c3.12.07,6.24.06,9.37,0Zm.79-.17a91.58,91.58,0,0,0,16.09-1.7l-.84-5.69a112.09,112.09,0,0,1-15.25,1.74v5.65Zm17-1.77a66.64,66.64,0,0,0,12.54-2.83l-1.6-5.1a111.48,111.48,0,0,1-11.73,2.48Zm13.4-3.09a43.61,43.61,0,0,0,9.26-3.29l-2.3-5a73,73,0,0,1-8.67,3.28Zm7.88-8.61a24.65,24.65,0,0,0,4-2.62l2.22,3.13c1.21,2.48-2.77,3.68-3.93,4.35Zm-99.77,6.82.08,2a17.49,17.49,0,0,0,5.57,4.07l-.48-1.7A16.42,16.42,0,0,1,41.14,282.66Zm6.36,5,.81,1.89a60.83,60.83,0,0,0,9.23,3.24l-.14-1q-4.95-1.77-9.9-4.09Zm11,4.2.39,1.45a122.75,122.75,0,0,0,16.49,4.34L74.93,296a167.53,167.53,0,0,1-16.48-4.14Zm17.84,5.89a95.93,95.93,0,0,0,15.52,1.43,3.82,3.82,0,0,1-.52-1.59,136.65,136.65,0,0,1-15.52-1.49l.53,1.65Zm25.52,1.54a4.22,4.22,0,0,0,.49-1.69,88.49,88.49,0,0,1-10.3-.05,3.26,3.26,0,0,0,.74,1.69A70.39,70.39,0,0,0,101.82,299.29Zm16.45-1.78a95.79,95.79,0,0,1-15.5,1.61,2.31,2.31,0,0,0,.51-1.6,134.64,134.64,0,0,0,15.5-1.67l-.51,1.66Zm17.78-6.1-.38,1.45a121.28,121.28,0,0,1-16.44,4.53l.4-1.65A166.49,166.49,0,0,0,136.05,291.41ZM147,287.08l-.79,1.9a61.51,61.51,0,0,1-9.2,3.35l.13-1.05Q142,289.45,147,287.08Zm6.3-5.07-.06,2a17.39,17.39,0,0,1-5.52,4.13l.46-1.7A16.39,16.39,0,0,0,153.26,282ZM54.71,325.19l6.68,2.19,1.67-5.76-6.75-2.11Zm7.66,2.26a25.27,25.27,0,0,0,7.43,1.8l1-5.68L64,321.76Zm-5.85-8.93,14.33,4.07,1.37-5.91-14.17-3.77-1.52,5.61ZM66,314.1l6.37,1.74,1.14-5.75-6.21-1.67Zm-7.73-2.25,6.9,2,1.14-5.83-6.75-1.81Zm24-7.81a97.42,97.42,0,0,1-15.92-2.74,14.55,14.55,0,0,1,1.15-4.52,153.64,153.64,0,0,0,15.23,2.74L82.29,304Zm-43.82-8.58,2.24,1.75,2.5-3.78A12,12,0,0,1,39,289.29l-.5.76a5.14,5.14,0,0,0,2.21,4.49,3.43,3.43,0,0,1-2.27.91Zm3.05,2.41a85.45,85.45,0,0,0,14.09,6.25l1.53-4.48a104.29,104.29,0,0,1-13-5.59l-2.58,3.82Zm10.41-6c4.86,1.72,9.72,3.29,14.57,4.66l-1,4.58a69,69,0,0,1-15.05-5A8.2,8.2,0,0,1,51.93,291.87Zm-10.64-5.72a7.82,7.82,0,0,1-1.95,2.18,4.77,4.77,0,0,0,1,1.32c.56-.87.73-2,1.68-2.62ZM41,290.47c.6-1,.54-2.48,1.8-2.94a58.24,58.24,0,0,0,8.19,4,19,19,0,0,0-1.55,4A21.31,21.31,0,0,1,41,290.47Zm112.13-5a7.82,7.82,0,0,0,2,2.15,4.77,4.77,0,0,1-1,1.34c-.57-.87-.75-2-1.71-2.61Zm2.93,9.27-2.23,1.78-2.54-3.75a12,12,0,0,0,4.13-4.19l.51.76a5.1,5.1,0,0,1-2.16,4.51,3.47,3.47,0,0,0,2.29.89Zm-2.61-4.95c-.61-1-.57-2.48-1.84-2.92a59.07,59.07,0,0,1-8.14,4.12,18.72,18.72,0,0,1,1.59,4A21.34,21.34,0,0,0,153.47,289.82Zm-.41,7.4a86.45,86.45,0,0,1-14,6.42l-1.58-4.47a106.21,106.21,0,0,0,13-5.73Zm-10.49-5.88c-4.84,1.78-9.68,3.41-14.51,4.83l1.08,4.57a69.35,69.35,0,0,0,15-5.21,8.25,8.25,0,0,0-1.56-4.19Zm-30.21,12.52a97.81,97.81,0,0,0,15.88-2.92,14.54,14.54,0,0,0-1.2-4.51,153.33,153.33,0,0,1-15.19,2.92Zm-6.16,7.05A153.64,153.64,0,0,0,122,308.43l-1.14-4.95a102,102,0,0,1-15.06,1.9Zm-17.07,1-.07,6.26,7.75.29,0-6.31-7.65-.24ZM88.79,326l7.9.08.18,6.59-8.11-.14,0-6.53ZM106,326l-8.44.07v6.59l8.71-.24L106,326Zm0-.91c-5.68.34-11.36.38-17,.19l0-6.39c2.59.11,5.32.26,8,.22,2.94-.05,5.83-.3,8.89-.36l.09,6.34Zm-.41-13.26.13,6.26-8.09.39,0-6.31Zm-.29-.81a79.6,79.6,0,0,1-15.89,0l.29-5.64c5.08-.16,10.17-.16,15.25-.05l.35,5.7Zm-7.61-6.53a90.87,90.87,0,0,0,13.85-.44l-.44-4.71c-4.45.26-8.73.78-13.44.77Zm-.69,0a89.76,89.76,0,0,1-13.75-.29l.39-4.71c4.45.21,8.64.68,13.35.62v4.38ZM88.53,311a154,154,0,0,1-15.78-2.29l1.08-5a100.68,100.68,0,0,0,15.08,1.73Zm-44.41-5.2a31,31,0,0,1-6-2.75c-2.29-1.24-4.44-2.78-5.18-4.62l2.56-4a2.47,2.47,0,0,0,1.85.93c2.68,3,6.1,4,9.15,6l-2.36,4.35Zm-.69.9L40.57,312l-5.94-2.85,3.3-5.37,5.5,2.92Zm-6.26-3.3L34,308.66c-1.77-1.27-4.43-1.9-4.94-4.39l3.25-4.67A16.2,16.2,0,0,0,37.17,303.41Zm-.09,14.68c-2.6-1.15-11.19-4.47-11.84-7.23l3.11-5.5c2.91,3.82,7.88,5.08,11.78,7.61l-3.05,5.12Zm19.5-13.85a105.37,105.37,0,0,0,15.35,4.33L73,303.64c-4.94-.86-10.15-2.27-15.11-3.65Zm94,.95a31.38,31.38,0,0,0,6-2.81c2.28-1.27,4.41-2.84,5.13-4.68l-2.6-3.94a2.49,2.49,0,0,1-1.84.95c-2.65,3.07-6.06,4.11-9.08,6.16Zm6.92-2.47,3.24,5.2c1.76-1.29,4.41-1.94,4.89-4.44l-3.3-4.64a16.43,16.43,0,0,1-4.83,3.88Zm-6.22,3.36,2.92,5.28,5.91-2.92-3.37-5.34Zm6.48,11.31c2.58-1.18,11.13-4.59,11.75-7.37l-3.18-5.46c-2.86,3.85-7.81,5.17-11.69,7.75ZM132.55,327a25.28,25.28,0,0,1-7.41,1.89l-1-5.67,6.8-1.89Zm7.63-2.34L133.53,327l-1.73-5.74,6.72-2.19,1.66,5.67Zm-1.89-6.65L124,322.28l-1.44-5.9,14.13-3.92Zm-1.81-6.65-6.88,2.11-1.21-5.82,6.73-1.88Zm-7.71,2.34-6.35,1.81-1.21-5.74,6.2-1.73Zm9.29-10a103.63,103.63,0,0,1-15.29,4.5l-1.13-4.91c4.94-.92,10.13-2.39,15.07-3.82l1.36,4.23Zm27.35-22.12c4.79-3.13,7.14,1.1,10,2.54a23.57,23.57,0,0,0,7.29-6c1.14-1.46.27-2.41-.83-1-2.26,3.78-5.26,5.18-9.36,3.1-3.58-2.67-5.79-1.85-7.05,1.34ZM29,282.45c-4.82-3.08-7.13,1.17-9.92,2.65a23.84,23.84,0,0,1-7.37-5.94c-1.15-1.45-.29-2.42.82-1,2.31,3.75,5.33,5.11,9.4,3,3.55-2.7,5.77-1.91,7.07,1.27"/><path id="path130" class="cls-16" d="M42,200.1V184.66c0-1.44.11-2.1.16-4.27,2.15-28.75,26-51.52,54.87-51.52s52.71,22.77,54.86,51.52c.1,1.44.15,3.1.16,4.26v15a4,4,0,0,0,1.33-.09,5,5,0,0,1,1.46-1.17V184c0-1.21-.07-2.94-.17-4.44-2.26-30-27.28-53.69-57.64-53.69s-55.39,23.74-57.66,53.69c0,2.27-.21,2.95-.16,4.45v15.52a3,3,0,0,1,.71.75A4.34,4.34,0,0,0,42,200.1Zm0,63.12V216.68a4,4,0,0,1-2.77,1.65,4.46,4.46,0,0,1,0,4.52V265.7l2.79-2.48Zm112.85,2.29V217.59a3.07,3.07,0,0,1-2.79-1.16v46.32l2.79,2.76"/><path id="path168" class="cls-18" d="M107.1,181.84a6.79,6.79,0,0,0,2.53,1.06c.9.58,1.52,1.25,2.42,1.22a1.22,1.22,0,0,0,1.36.59,8.08,8.08,0,0,1,2.73,2.69c.15-.6,0-1.14.45-1.8a2.9,2.9,0,0,1,2.09,1.35c.31-1,.16-2.11-1-3.69,1.34-2.12,3-.18,2,.77,1.24,0,1.88-1.51.54-2.75a.84.84,0,0,0,.73-.94c-.75.43-1.33-.12-2-.18l0-.54a11.16,11.16,0,0,0,2-1.82,2.15,2.15,0,0,0,1-1c1.12-.75,1.5-1.6,1-2.59a2.57,2.57,0,0,0-.38-1,5.47,5.47,0,0,0-1.22-1c-.48,0-.78.19-.81.61a1,1,0,0,1-.4.92.55.55,0,0,0-.36-.21c-.07-.26.86-1.11.57-1.39-.75-.69-1.45-1-2-.34l-.64.92c-.45-.94,0-1.64,0-2.47,1-.28,1-1.09.4-1.46s-1.21-.1-1.25.74l-.57-.35a6.74,6.74,0,0,1,1.49-1.88c.15-1.06.94-1.61,1.41-2.32a27.71,27.71,0,0,1,4.93,2.26c2.26,1.3,2.38-.08,4-.73a8,8,0,0,0,1.31-2.73,6.94,6.94,0,0,1,1.34-2.44,1.38,1.38,0,0,0,.25-1.45,5.27,5.27,0,0,1-.24-2.49c0-1.1-.49-1.34-.73-2l-.41-1.46a1,1,0,0,0-.59-1.08,2.94,2.94,0,0,0-2.08,1.35c-.29-.73,0-1.49-.77-2.1a4.94,4.94,0,0,1-1.83-2.49c-.64-1.64-1.42-1.26-2.21-2.06q-2.48-2.13-3.09-.61c-.31,1.81,0,3.38,1.6,4.44a1.1,1.1,0,0,0,1.34-.25c.56-.11.88.44.49.63a.86.86,0,0,0-.87.63c.19,1.25,1.94,1.8,2.59,2.64a5.84,5.84,0,0,0,.5,2.57,1.84,1.84,0,0,0-.9.61,11.15,11.15,0,0,1-4.19-2,30.62,30.62,0,0,0-3.3-1.31c-1.37-.18-2.41.05-2.78,1.17a19.63,19.63,0,0,0-2.24-1.19l.38-1.76c.68-.14.8-.65.64-1.47a2.16,2.16,0,0,0,1-.39,2.53,2.53,0,0,0,1.1-.74,2.26,2.26,0,0,0,1-.93,2,2,0,0,1,.35-.83l.21-.69c.09-1-.2-1.25-.86-.75a3.58,3.58,0,0,1-1.81,1.24,4.68,4.68,0,0,0-3,.78l-.55,0a1.73,1.73,0,0,0-1.59-.6c-.56-4.13-3-6.8-6.88-8.25,1.91,1.77,2,5.09,1.54,7.59-.27-2.59-1.12-4.51-2.28-5-2.41-.95-4.72-4.28-2.18-6.54-2.62.09-4.91,4.63-1.76,8.92a25.32,25.32,0,0,1-3.89-1.5c-1.66-.85-2.3-2.93.7-4.9-2.49-.36-6,1.83-4.39,6.54,1.72,3.14,5.45,3.25,6.63,5.65l-2.59,0c-1.44-3.39-4-2.79-5.25-3.21-2.1-.07-3.68-2.3-2.61-5a8.22,8.22,0,0,1,2.45-3.3,9.43,9.43,0,0,0,2.13-1.79,7,7,0,0,1,1.19-1.31,1,1,0,0,0-.22-1.3,7.43,7.43,0,0,0-3.1-.38c.66-.95.78-1.75.06-2.17A8.16,8.16,0,0,0,83,134c-.77,1.2-1,2.17,0,2.62-.19,1.12-.43,1.65-.81.91-.27-.17-.54,0-.81.22-.89.36-.75,1.83-1.13,2.75-.18,2.4-1.75,4.17-2.65,6.25-.4,1.42-.3,2.46.91,2.69,1.27-.25,1.44,1,1.19,3-1,1.06-.26,2.2-.39,3.31a18.3,18.3,0,0,0,.7,5.53c-5.26-.08-.86-6.66-7.64-6.95,2.13,2,2.33,3.3,1.66,4.21-.15-3-4.3-2-6.23-1-1.47.9-4.49-.64-3.34-2.12-1.9.65-1.28,4,2.16,4.55-1.34.64-5.16.65-6.46,3.5-.6,2.86,2.32,3.33,2.48,2.08-1.42.66-1.7-.66-1.12-1.42a1.72,1.72,0,0,1,2-.27,13.39,13.39,0,0,0,3.11.89A2.32,2.32,0,0,0,68,167a1.45,1.45,0,0,1,.09-1.33c1.86,3.18,5.92,2.31,6,0-.92,1-3,.77-2.88-.9.64-2.3,3.87-1.26,5.7-.88,1.42.32,2.8-.37,4.17-1.3,3,1.36,3.72,2,7.71,2.18-.26.93-.19,1.71,1.14,1.71a1.68,1.68,0,0,0,.15.87,13.87,13.87,0,0,0-4.9-2.34c-3.49,4.58-3.25,10.55,1.38,16.44a4.27,4.27,0,0,1,2.52-2.1,3,3,0,0,0,2,1.35c1.07.54-.94,1.75-1.1,2.68a4,4,0,0,0,.42,3.36.87.87,0,0,1-.76.43,3.83,3.83,0,0,1-3.45-2.2l-.39.45a2.58,2.58,0,0,1-1.37-2.68c-.23.31-.37,1-.69.93-.61-.31-.28-1.23-.42-1.84-.58.15-.57.71-.83.63-.52-1.19-.47-2,.84-1.92a1.2,1.2,0,0,0-1.68,0l-.3.66-.82-1.39a1,1,0,0,0-.57-1.3c-.59-.91-1.67-.94-3.08-.37-.35-.11-.65.05-1,.31-1.48-.9-4-.53-4.55,1.15a3.24,3.24,0,0,0,1.93,3.72,2.23,2.23,0,0,0,1.56,1.82c1.91.34,2.27-.54,1.92-2a2.36,2.36,0,0,1,1,.16l-.4.14a1.2,1.2,0,0,0,.11,1.5,1.86,1.86,0,0,0,1.24,1.65c0-1.62.52-2.45,1.78-2.14-.22.34-.71.53-.66,1,.45.4,1.15-.12,1.5.06-.25.64-.86.66-.68,1.76a3.1,3.1,0,0,1,2.71-.92c-.29.72-.12,1.15.27,1.43a1.05,1.05,0,0,1,1.18-.95c0,.19-.94,1.35,0,1.81-.09-1.22,1.1-1.51,2.57-.51a4.3,4.3,0,0,0,2.7,0,1.92,1.92,0,0,0,1.1-.65,5,5,0,0,0,2.56.22,2.73,2.73,0,0,1,1,.75,3.44,3.44,0,0,0,2.55-3.11l-.27-.08.07-.47c.32-.29,1.07-.29.82-1.18a.73.73,0,0,0,.46-.88,2.93,2.93,0,0,0-.11-1.68.73.73,0,0,1,.46-.5l1.73,1.62a1.92,1.92,0,0,0,.52,1.15l.34,3.07a.77.77,0,0,0-.49.41l-.3,2.92a1.41,1.41,0,0,0-.85.55l.09-1.76-2,.09.25,2-17,1.18a9,9,0,0,0-4.16,1.38,13.42,13.42,0,0,0,5.6,1l15.81-.64-.14,2.33,2.2-.09-.4-2,.94.09c.39.34.59.51,1,.23a.74.74,0,0,0,1-.11.38.38,0,0,0,.59-.05c.65.24,1,0,1.17-.68,2.47.67,2.78-3.69-.23-2.66a1.9,1.9,0,0,0,0-.88l1.44-2.56a1.28,1.28,0,0,0-.69-1.17l.21-4.7c-.1-.78-.52-1.51-1.86-2.14a14.79,14.79,0,0,0-2.73-2.61l-.13-.44-1.09-.68-.67-2.3c.61-.19,1-.46.93-1.27a1.75,1.75,0,0,1,1.61-.48,2.51,2.51,0,0,0,1.12,2,3.46,3.46,0,0,0,1,3.47,5.35,5.35,0,0,0,1.5,2.14,4.51,4.51,0,0,0,2.16,2.94Zm-2.19,10.51h-.12a1.38,1.38,0,0,0-.21-.94.9.9,0,0,1,.34-.06c.37,0,.67.22.67.5s-.3.5-.67.5ZM110,154.72l.84-1.75a1,1,0,0,1-.27-.55l-.24.43-.33,1.87Zm-9.87,15.13h-.17a.75.75,0,0,0-.65-.43l-.44-.52a4.64,4.64,0,0,1,1.65-.94c.32.47.06,1.12.35,1.62l-.73.26Zm16.18,4.38c1,.42.61-.34.86-.54l-.13-.62a12.38,12.38,0,0,0-3.05-1.26,2.13,2.13,0,0,0-.5,2.28,6,6,0,0,1,2.82.14Zm11.16-13.88a1.21,1.21,0,0,0,.13.92,5.93,5.93,0,0,0-.83,2.19,5.83,5.83,0,0,0-1.58.64c.06-.59-1.27-2-2.28-2.79a1.39,1.39,0,0,1,.85,0c1.7,1,2.63-.26,3.71-1"/><path id="path170" class="cls-18" d="M93.45,251c-1.5-.59-.68-3.67-2.06-4.54l.83.11c-.81-1.71-.1-2.93-1-4.16l.54.13c-.61-1.55.23-2.66-.89-4.08a2.52,2.52,0,0,1,1.08.25c-1.47-1.58-.82-3.18-1.7-5l.65.07a.59.59,0,0,0-.34-.57c-4.5,1.24-5.93,3.32-5.26,6a.79.79,0,0,0,.92.36c1.87-.26,1.67,3.24-.82,5.2a3.25,3.25,0,0,1-2.24,1.56,20.53,20.53,0,0,0-6.4,3.92c-.38,0-.5-.47-.48-.93-4.32,2.62-7.85,6.45-11.25,10.44-3.77-3,1.5-9.28,12.27-14.31l.39-.58c-7.56,3.44-11,6.43-13.48,9.32-.37.35-.66.32-.89-.18-1.17-4.8,2.9-8.9,13.94-12.06l.3-.32a24.16,24.16,0,0,0-13.08,5.92c-.46.31-.75-.06-.67-.71.51-5.72,6.95-7.62,13.5-8.71-3.8-.34-7.93,1-12.29,3.48-.44.23-.61-.17-.3-1,1.74-3.59,6.24-5.4,12.18-6.27a22.88,22.88,0,0,0-9.55,1.5c-.47.16-.7.06-.53-.87,1.91-4.16,6.32-4.74,12.27-3.1-1.62-1.12-4.2-1.94-9.15-2-.54.1-.69-.26-.45-1.07,3.15-3.39,7.32-2.67,12.1.59-2.37-3.1-8.56-3.37-9.1-4.7,3.82-3.35,8.67-1.82,12.35,3.12-1.31-2.65-3.33-5-7.84-6.48,1.15-1.62,3.63-1.71,5.26-.88,2,1,4,2.87,5.52,6.39-.44-2.64-1.82-5.52-5.52-9l.91-.1A13.74,13.74,0,0,0,81,215.14a7.06,7.06,0,0,1,3.18.13c-1.42-1.44-1.8-2.75-4.12-4.41a1.21,1.21,0,0,0-1.14,0,6.47,6.47,0,0,0-2.74,4c-1.05,1.51-2.27,1.33-3.61.5-1.94-.07-2.67-1-2.2-2.44a2.82,2.82,0,0,0,1.88.74,1.82,1.82,0,0,1,2.24-1,1.2,1.2,0,0,1,.87-1L77,210.31a13.33,13.33,0,0,0-3.18.6c-1.84.78-3.21.12-3.19-1.78a2.27,2.27,0,0,1,.09-3.45,3.21,3.21,0,0,0,1,2,1.7,1.7,0,0,1,2.55.84c1,.06,2.21.46,3.15.16a5.23,5.23,0,0,0-3-1.51,2.24,2.24,0,0,1-1.07-2.78,2.49,2.49,0,0,1,1.77-2.75,2.12,2.12,0,0,0,0,1.95A2.54,2.54,0,0,1,77,205.94l1.62,1.42c.54.4.6.49,1.44.26.84-.79,2-.15,2.51-2.38a2.92,2.92,0,0,0-1.3-1.84q2-.93,2.81,1.74a1.74,1.74,0,0,1,.48,3.21c-.72.54-1.85.3-3.29.51l4.42,2.62c.16-.3,0-.89-.37-1.61,3.13-.19,2.81,2.28,3.26,3.65a6.57,6.57,0,0,0,.33-2.27,3.54,3.54,0,0,1,1.94,2.27,2.17,2.17,0,0,1,1.75-1.44c-.91,1.75.54,3.14,1.27,4.26.28-2.35-.47-2.17-1-3.32a.89.89,0,0,1,1.16-.33c-.17-2.52-2.83-3.45-3-.57-1.68-2.17-1.69-4,1.3-5.07-1.53-2.46-4.45-1.3-4.66,1.65C85,206.57,86.54,202.91,89,202c1.85-.7,3.54.71,5.33,2.9.12-3.65,1.23-4.1,2.26-6.25,1,2.21,2.13,2.78,2.25,6.43,1.34-2.46,3.49-4,5.34-3.26a4.53,4.53,0,0,1,1.67,7c-.21-2.95-2.89-5-4.76-1.79,3.15.37,3.2,2.68,1.52,4.85.21-3.12-3.3-1.84-3.47.69a1.13,1.13,0,0,1,1.31.42c-.74.94-1.6,1.42-1.14,3.5a4.46,4.46,0,0,0,1.33-4.53,2.29,2.29,0,0,1,1.68,2,4.62,4.62,0,0,1,2.55-2.77c0,.92-.56.7-.2,2.13.32-1.38.94-3.79,4.07-3.59-.65.87-1.28,1.52-.95,1.73l3.33-2.17c.75-.58.54-.78.18-.94-.83-.33-1.46-.14-2.22-.63a1.66,1.66,0,0,1,.44-3.14c.8-1.64,1.88-1.76,2.88-1.32a2.71,2.71,0,0,0-1.28,1.75c.88.63.46,1.35.73,1.61s.86.36,1.36.83a1.31,1.31,0,0,0,1.53-.33,1.65,1.65,0,0,1,.81-.72,2.65,2.65,0,0,1,.78-1c.17-1.18.5-1.92,1.91-2,.35-.57,0-.84-.28-1.55,1.73-.16,2.43,1,2.11,2.53a1.86,1.86,0,0,1-1,2.56c-1.71.12-2.18,1.45-3,1.73a6.23,6.23,0,0,0,3.09-.07c.47-1.15,1.17-1.79,2.82-.84a3.39,3.39,0,0,0,1-2.07c1.36,1.84,1.28,3-.09,3.9a2.07,2.07,0,0,1-3.18,1.33,6.76,6.76,0,0,0-2.91-.51l1.19,1.1c.57.19.76.12.84.6,1.13-.38,2,.63,2.46,1.32.62.23,1.07-.24,1.82-.77a2.07,2.07,0,0,1-2.48,2.65c-1.44.71-3.71.3-3.88-1.8a3.72,3.72,0,0,0-1.68-2.65,2.74,2.74,0,0,0-1.74,0c-2.32,1.65-2,2-3.37,3.46,1.25.21,1.9-.2,2.7.75a5,5,0,0,0-3,2.56,2,2,0,0,1,1.34.35,4.18,4.18,0,0,0-2.42,1.6l1.07.19c-2.78,1.9-2.67,3.29-3.69,5,1.93-3,2.86-3.13,4.82-4.18,1.61-.85,4.13-1.27,5.6.75a11.54,11.54,0,0,0-7.45,5.54c-.16.28-.07.65-.21.94,1.8-4.63,9.46-6.65,12-3.12,0,1.24-5.37.52-9.15,4.66,4.78-3.27,9.66-4.27,12.66-.69.24.82.06,1.24-.48,1.14-5,.06-7.61.51-9.23,1.63,4.82-2,11.35-.53,12.24,3.24.17.92-.06,1-.53.86A26.56,26.56,0,0,0,115.81,234l0,.12a22,22,0,0,1,8.33,1.51,8.1,8.1,0,0,1,4.58,5c.31.85-.08,1-.53.76a31,31,0,0,0-5-2.45,18,18,0,0,0-7.56-1.06,28.93,28.93,0,0,1,7.88,1.57c3.49,1.39,6.26,3.29,6.26,6.79.08.65-.21,1-.67.72-5.93-4.09-9.64-5.31-13.25-5.91l.3.33c11.23,2.94,15.53,7.54,14.37,12.37-.22.5-.52.53-.88.18-.81-.94-1.86-1.64-2.89-2.64-2.37-2.29-5.59-4.22-10.67-6.39l.38.58c4.41,2,7.43,3.66,9.59,5.87,2.71,2.79,3.25,5.25,3.1,6.82,0,.91-.4,1-.95.74-3.52-4.63-6.82-6.7-11.14-9.32,0,.46-.7.21-1.09-.1-2-2-2.6-2.69-5.44-3.25a5.35,5.35,0,0,1-2.24-1.41c-1.81-2.21-3.11-4.44-1-5.3.44-.19,1-.22,1.06-.76.25-2.08-1.39-4.3-5.33-5.62a.67.67,0,0,0-.38.6l.65-.12a14.73,14.73,0,0,1-2.29,5c.25.38.61.12.92.34-.72.85-.44,1.33-1.74,2.61-1.74,1.76-1.67,3.46.5,4.67,1.71-1.12,2.69,1,4,1.56,1.48-1.3,2.78-.8,4.12,1.79a3.36,3.36,0,0,0-2.62-1.11,4.22,4.22,0,0,0-1.93.93c1.32.33,1.17-.55,1.75-.82a2.37,2.37,0,0,1,0,3.27c-.68.55-2.32.69-4.29,0a1.17,1.17,0,0,1-.43.6l.19,1.5a5.54,5.54,0,0,0,1.67,3.25c-.43.57-.91.54-1.55.15a1.09,1.09,0,0,1-1.78-.14c0,1.28-.81,1.71-1.73,1.4a3,3,0,0,1-.76,1.6,2.29,2.29,0,0,1-.65-1.52,1.26,1.26,0,0,1-1.79-1.18c-.71.58-1.16.55-1.61-.11-.84.52-1.5.57-1.91-.09a5.22,5.22,0,0,0,1.83-3.25l.17-1.25-1.12,0A2.42,2.42,0,0,1,93.45,251Zm1.08,5.2c-.6.14-.68-.58-.12-.78A.93.93,0,0,0,94.53,256.19Zm1.53.78c.44-.2.63-.59.21-1.11a1,1,0,0,1-.37.71l.19,0,0,.38Zm2.75-.42c-.23.49-1,0-.48-.79C98.39,256.19,98.57,256.6,98.81,256.55Zm1.39-.33c.86.14.55-1.38-.33-1.16.44.35.59.66.33,1.16"/><path id="path172" class="cls-15" d="M97,137.34c-1.32.59-1.84,3.61-1.42,5.35s2.45,2.95,2.56,4.84c-.08.35-.39.41-.53,0-.13-2-3.34-2.26-5.26-3.33-1.54-.86-2.31-2.8-.06-4.92-3.16,1.33-4.93,4-2,7.27,2.06,1.85,5.6,3,6.18,5.55.73,4.56-.37,7.46-2.41,9.51a30.06,30.06,0,0,1-4.68,3.19c-.84,1.37.2,1.57,1.3.49.64-1.57,1.93-2.44,4.48-2.15,2.87-1.06,5-2.92,8.63-3.18a1.83,1.83,0,0,1,1.31-.76c.11-4,2.94-5.08,2.75-7.57l-1.06,0,.74,1.35-1.63-.84-.72,2.29-.86-2.25-2.14.32,1.53-1.38L102,149.75l2,.3-.25-1.68,1.69,1.53,1.26-1.12-.19,1.45,1.3-.08c-.51-.84-.14-1.35-.21-2a6.54,6.54,0,0,0-.46-1.69c-.58-2.29-2.43-3.87-4.72-5.18a10.19,10.19,0,0,1,.47,7.49c-.08.3-.28.31-.32,0-.14-2.4-.76-4.34-2.25-5.48a5.18,5.18,0,0,1-3.3-5.94"/><path id="path174" class="cls-15" d="M101.08,248.14c3.49,2.75,3.51-1.15,6.87.47-2.43-2.52-2.58.17-4.77.16-.55,0-1.23-.62-2.1-.63"/><path id="path176" class="cls-14" d="M110.77,204.7a.75.75,0,0,1-1-.16c.67-.91,1.22-1.25,1.84-1.08-.51.47-.85.67-.85,1.24Zm7.71-1.3a2.11,2.11,0,0,1,1.24.76,1.74,1.74,0,0,0-1.31-2.09c.24.65.36,1,.07,1.33Zm4.54,3.13c-.11.76-.57,1-.85,1.46,0,.35.23.94.56,1.07,1-.37,1-1.49.29-2.53Zm-.29,6.69a1.68,1.68,0,0,1-1.87,1.68,1.6,1.6,0,0,1,.3-1.2,1.65,1.65,0,0,0,1.57-.48Zm-40-8.29a.74.74,0,0,0,1-.16c-.55-1.11-1.29-1.58-1.84-1.24.51.47.85.83.85,1.4Zm-8-1.27c-.37.42-.68.57-.94.44a1.75,1.75,0,0,1,.8-1.87C74.48,202.91,74.46,203.32,74.75,203.66Zm-4.2,2.57a3.57,3.57,0,0,0,.67,1.56.83.83,0,0,1-.53.73C70.14,208.14,69.86,207.34,70.55,206.23Zm0,7.12A1.68,1.68,0,0,0,72.39,215c.32-.2.26-.58-.09-1.06a2.17,2.17,0,0,1-1.8-.6Zm30.65,40.56a13.06,13.06,0,0,1-7.61.12l.1-1.14c2.46-.13,4.87,1.07,7.4-.07Zm-.42-6.08c.38-3.45,2.51-.31,3.56.2C103,249.14,102,247.3,100.73,247.83Zm.26.83a3.78,3.78,0,0,0,.25,1.71c.51.22.58.63.54,1.21,3,1,5.1.2,4.14-2.28-2,1.65-4-.55-4.94-.64Zm1.76,8.73c-.5.08-1,.07-1.19-.54-.44,1-1.66.75-1.58-.31,1,.25,1.48-.88.49-1.7a.94.94,0,0,0-1.22.33.65.65,0,0,1,.37,1.23c-.67.25-1.24-.49-.63-1.14-1.18-.39-1,.62-1,1,0,.76.79,1.52,1.13.5,1.15,1.06-.28,2.42-1.26,1.26a1.9,1.9,0,0,1-.49,1.63,1.56,1.56,0,0,1-.38-1.59c-.94,1.24-2.59-.56-1.25-1.27.36,1.37,1.29.07,1.22-.49,0-.26,0-1.76-1.26-1.12.65.47.34,1.35-.43,1.15s-.62-1.12.16-1.15a.54.54,0,0,0-.72-.39c-.66,0-1.83,2.2.16,1.68.15,1.26-1.16,1.46-1.59.42-.22.61-1,.6-1.46.53a7.06,7.06,0,0,0,1.81-3.21l1.14.27h0a16,16,0,0,0,5.48,0l1-.34a7,7,0,0,0,1.61,3.23"/><path id="path178" class="cls-19" d="M117.2,248.08a2.94,2.94,0,0,1,.18,1.12c4.44,2.71,8.17,5.46,11,9.43.38.27.57-.66.38-1.91-.45-3.17-5.07-7.9-12.38-10.88a3.56,3.56,0,0,1,.73,1.75c4.92,2.67,5.93,3.13,8,5.43.15.21,0,.25-.21.08-2.89-2.63-3.88-2.81-7.62-5Zm-.46-3.27a28.74,28.74,0,0,1,13,8.85c.82.06.48-1.36.46-2-.09-4.37-7.07-8.31-14.68-10.12l1.49,1.7c7.3,3.38,8.35,4.12,9.67,5.94-3.26-2.7-6.27-3.84-9.61-5.28a1.16,1.16,0,0,1,.26.7c-.27.18-.37.27-.64.23Zm-1-4a26,26,0,0,1,13.37,5.78c1.66-4-6.61-8.66-14.51-8.46a6.06,6.06,0,0,1,2,1.49,15.73,15.73,0,0,1,9.09,3c.24.2.11.38-.16.16a16.61,16.61,0,0,0-8.84-2.78l.16.3c-.54.23-.53.43-1.07.5Zm.38-3.43a20.29,20.29,0,0,1,12.33,3.7c-.32-2.33-2.47-4.51-5.94-5.72a22.93,22.93,0,0,0-7-1,3.44,3.44,0,0,1-1,1l1.11.15c2.57,0,5-.14,8.2,1.71.43.27.2.32,0,.21a16.45,16.45,0,0,0-7.94-1.68,5.08,5.08,0,0,1,1,.71c-.43.37-.4.66-.7.88ZM109,227.63c2.34-4.78,9.36-5.68,11.17-3-1.38.62-5.14.89-8.48,4a3.3,3.3,0,0,0,.11-1.6c1.86-1.6,2.53-1.53,4.82-2.45.28-.08.14-.22-.33-.16-1,.47-2.52.23-4.57,2.22-.57-.43-2,.64-2.72,1Zm2.26,2.18a14.07,14.07,0,0,1,8.49-3.16c2.09,0,4.07,1.39,4.24,2.69-3.16,0-6.51.09-9.15,1.3a.85.85,0,0,0-.25-.95c1.49-1,2.85-1,5.46-1.22.25-.06.2-.18-.19-.23-2.56.11-3.75.12-5.87,1.27A5.69,5.69,0,0,0,111.23,229.81Zm4.75,3.74c.2-.49-.66-.7-1.08-1.07,1.64-.41,4.5-.17,7.51.52.37.19.46,0,.07-.34a20.27,20.27,0,0,0-7.89-.45l-.84-.06c2.7-2.37,11.66-1.75,12.64,2.93A22.88,22.88,0,0,0,116,233.55Zm-13.26-9.79a2,2,0,0,0-1,1.19l.77-.21c0,2.22.84,2.23.61,4.38,1.15-.38.8-3,1.7-3.15-.83,1.87-.32,2.23-1.5,3.71l.08.25c.72-.63,1.42-.27,2.44-.33.24-.89.38-1.46,1.09-1.79-.58.61-.51,1.1-.75,2,.17.22-.1,1.17,0,1.5a6.87,6.87,0,0,1,2.13-.34,5.74,5.74,0,0,1,1.62-1.82,6.44,6.44,0,0,0-1.21,2.11c.39.51.29,1.37.47,1.95l.46,0a3.19,3.19,0,0,1,2.37-1.57,6.45,6.45,0,0,0-2,1.68c1.23.37,1.2.34,1.28,1.22a5.11,5.11,0,0,1,2.39-.37,7.58,7.58,0,0,0-2.13.79c0,.38-.6.69-1,1.29a1.42,1.42,0,0,1,1.22.91,8.29,8.29,0,0,1,2.31-.27,10.21,10.21,0,0,0-2,.59c.28.72-.1,1.07-.59,1.58a7.56,7.56,0,0,1,3.12.47,20.4,20.4,0,0,0-3.34-.13c1.26,1.1,1.06,1.3.85,2,1.26.61,1.88.4,2.56,1.33-.72-.32-2-.5-2.94-.94a1.55,1.55,0,0,1-.93.59,3,3,0,0,1,.81,1.94c1.28.9,3,1.42,3.49,2.71-1.25-1.19-2.47-1.52-3.56-2.26-.16.53-1.22.68-1.62.58l-.18.13c2.25.95,2.6.52,3.47,1,1.6.91,2.3,2.2,3.6,3,0-2-.18-3.05-1.38-4.19-.87-.83-2.1-1.14-2.87-2,1,.16,2.82,1.27,4.42,1.07-.19-2.28-2-2.55-3.68-3.81,1.39.25,2.85.18,3.19-.39-.81-2-2.19-1.52-3.57-2,1.42-.19,2.83,0,3.22-1.56-1.55-1.73-2.51-.41-3.59-.71,1.28-.28,2.84-.84,3.16-2.41-2.1-1.65-2.34-.17-3.69,0,.32-.27.84-.63,1.35-1.07a2.52,2.52,0,0,0,1-2.38,3.71,3.71,0,0,0-4,.72c.25-1.15,1.7-1.55,1.15-3.75-1.24-.15-2.67,1.57-3.59,2.07,0-1.07.8-1.62.29-3.52-.88-.21-2.24,1-3,2.21-.54-.19,1.16-1.85-.11-3.14-1.18.14-1.08,1.19-1.62,1.74a3.5,3.5,0,0,0-.76-2.53Zm6.58,21.43c-.38,0-.27,0-.66-.51-.66-.83-.51-1.53-1.44-2.65s-.6-2.07.58-2.36a1.12,1.12,0,0,0,1-1c.15-3.17-2.56-5.06-5.64-5.76-.32,0,.07-1,0-2.29.43-1.31,1.57-.53,2.36-.79.49.85-.21,1.8,0,2.17.54-.23,1-1.07,2.62-.63.73.81.38,1.39.3,2.05,2.78.07,2.89,1.47,1.41,3,1.44.25,2.6,1.93.24,2.64,2.24,1.65,2,2.39-.38,3.06,1.08,1.53,2,2.84.78,2.94-.67,0-1.06,0-1.29.14Zm-5.4-13.28c0,.1.45.36.52.22l.34-1.07c.13-.3,0-.43-.23-.16Zm2.61,1.16c0,.24.19.4.3.28l.69-.84c.12-.26,0-.34-.14-.19l-.85.75Zm2.07,2.05c-.18.14-.16.48,0,.39a2,2,0,0,1,.9-.4c.32-.06.36-.26,0-.28a2,2,0,0,0-1,.29Zm.81,2.59c-.22.07-.28.33,0,.31l1-.09c.32,0,.42-.12.09-.26l-1,0Zm.7,3.26c.23,0,.4-.16.18-.26a1.13,1.13,0,0,1-1-.39c-.3-.11-.46,0-.24.23A1,1,0,0,0,110.09,241Zm-1.76,1.32c-.21-.09-.43.05-.24.2a1.47,1.47,0,0,1,.74.59c.26.19.36.2.22-.12A1.83,1.83,0,0,0,108.33,242.29Zm-2.56-15.81c.26-4.32,7.76-8.1,9.92-5.46-2.76.4-5.55,2.87-7.12,5.84,0-.41.14-1.81-.3-1.79.81-1.63,1.93-2.32,3.94-3.43.24-.21.15-.25-.29-.12-1.8.91-2.67,1-4,3.4-.63.07-1.81,1.24-2.13,1.56Zm3.81-8.41c-2.77,2.05-3.56,4.65-6.66,4.22-1.36-.19-3.33-1.55-3.12-5.41l-.56.21v-.21c1.11-.72,1.8-2,1.86-4.18,1.43,1,.34,3.51.52,5.26.77-1.93-.15-3.19,2.33-5.8.27,1.76,1,2.78-.68,6.12.69-.57,1.43-.71,2.08-1.72a5.51,5.51,0,0,1,.12,3.15c1.11-.66,2.2-2.23,4.1-1.64Zm-8.81,4.56.42-.75a3.73,3.73,0,0,1-.88-1c.17.51.11,1.47.46,1.77Zm1.69-.07,0,.84a3.42,3.42,0,0,0-1,1.54l-.6-1.87.6-1.1a3.5,3.5,0,0,0,1,.58Zm5-1.5a12.25,12.25,0,0,0-1.75,3.55.76.76,0,0,0-.66-.56,3.42,3.42,0,0,0-1.14,1,5.29,5.29,0,0,1,.87-1.8c.08-.25-.16-.3-.38-.21l-.81,1.52a2.09,2.09,0,0,0-.79-1.1c0-.27-.24-.77.16-.81a6.19,6.19,0,0,0,4.5-1.57Zm.4-5.27c1.78-1.31,2.49-3,4-4.52,1.19-.68,2.06-1.34,3-.86a3.87,3.87,0,0,1,2.27,3c.09,1.78,2.4,2.09,3.36,1.46a2.9,2.9,0,0,1,.4-1.33c-.34-.68-1.59-1.91-2.35-.5-.36.09-.55,0-.44-.26.72-.41.56-1.22-.56-.65,0-.33.33-.4-.11-.77l-.48.08c0-.26.21-.21-.12-.61H116c.57-.71-.7-.48-.48-1l1,.31a7.07,7.07,0,0,1,2.9.36c2,.88,2.65.06,3-1.08a2,2,0,0,1-.5-1.29c-1.52-.81-2.15-.28-2.4,1.05-.5.17-.12-.39-.57-.25s-.4.38-.59.55c-.39-.08,0-.3-.17-.49-.23.15-.58,0-.65.48-.39.09-.16-.5-.51-.38s-.42.18-.58.39c-.26-.44-.54-.69-1.57-.13-.26-.24.5-.71,1.14-1.06l1.85-1.43c1.64-.05,2.16-1,1.77-2.37a1.71,1.71,0,0,0-1.4-.79c-1.8.23-1.49,1.88-1.35,2.43,0,.29-.28.38-.35.17s-.17-.45-.33-.22l-.18,1.24c-.25,0-.18-.69-.53-.45s-.17.74-.21.95c-.27,0-.13-.58-.6-.28s-.21.46-.34.69l-.46-.38c-.32,0-.28.41-.37.54-.67-.09-.11-.73-.88-.83-.27,0-.26.34-.39.51l-.43-.69c-.47,0,0,.63-.46.32l.13-.86a1.6,1.6,0,0,0-.84-1.61,3.13,3.13,0,0,1-1.18-.27c-1.6.7-1.06,2.54.43,3,2.74.16,2.39,1.07,1.54,1.51-.37.41,0,.78-.27,1.18,0-.34-.28-.2-.39-.58-.33.46-.37.43-.29,1-.5.13-.24-.8-.68-.49s-.1.49-.29.66c-.16,0-.21-.38-.46-.08-.43.31-.11.52-.17.79-.2,0-.28-.5-.6-.15-.34.13,0,.44,0,.65l-.43-.32c0,1.43.79,1.75,0,3.7Zm3.73-.77a4.17,4.17,0,0,0-2.17,2.49,5.2,5.2,0,0,0-3.27,1.26,5.63,5.63,0,0,0-.72-3.17,2.78,2.78,0,0,1-1.47,1.89c.89-1.85.61-2.42.88-3.72.38-1.79,1.07-3.4,3.18-3.68-1.56,2.08.91,4.2-1.07,6.87,1.68-.53,2.33-3.35,4.64-1.94Zm-10.38,24.19c-.36,1.34-1.39,1.83-1.88,2.68-1.14,2-1.26,3.72,1.19,4.63a3.67,3.67,0,0,0,.13,2,4.3,4.3,0,0,0,.79,2.64c-.07,1.23-1.11,1.75-2.81,1.79a54.47,54.47,0,0,0-5.81-.55c.28-1.32,1.2-1,1.86-1.41-2.53-.91-1.41-2.72-2.37-4.08a3.4,3.4,0,0,1,2.3,1.85c.32-.13-.06-1.31.33-1.82.29-.12.75.53,1.11.76a1.31,1.31,0,0,1,.51-1.38c-.42-.13-.71.14-.86.83-.24-.45-.46-.47-.9-.62-.46.79-.24,1-.33,1.54a3.7,3.7,0,0,0-1.72-1.58c-.75-1.45-.48-2.15-.72-3.22A3,3,0,0,1,94,245a3.64,3.64,0,0,0-1.75-2.37c-.76-1.25.11-2.75-.86-3.77,2.29.27,2.69,1,3.58,2.33.53-1.17.46-2.78,1.61-3.5.71.36,1.17,1.54,1.51,3.09.9-1.29,1.92-1.92,3.09-1.58Zm-1.43,11.64a1.15,1.15,0,0,1,0-.79c-.3.2-.47.08-1,.35A1.44,1.44,0,0,0,99.73,250.85Zm-2-.84a3.28,3.28,0,0,0,2.78,1.32c.19-.11,0-.37-.32-.39.24-.47.27-.69-.07-.85s.07-.4.11-.59c-.83.17-1.26,1.07-2.5.51Zm4.94-16a9.31,9.31,0,0,1-2.19,4.66,4.32,4.32,0,0,0-2.26,1.41A6.1,6.1,0,0,0,96.59,237c-1.3.91-1.34,2.23-1.82,3.5a4.2,4.2,0,0,0-2.34-1.75c-.89-1.14-1.38-1.71-1.4-4.33,1.39.17,2.39,1.38,3.33,2.75a7.9,7.9,0,0,1,2.3-3.81c1.24.68,1.86,2.07,2.36,3.61,1.21-1,1.61-2.55,3.63-2.92Zm.22-4.23a6.21,6.21,0,0,1-.65,3.91,7.47,7.47,0,0,0-3.09,2.65,7.46,7.46,0,0,0-2.3-3.75,7.36,7.36,0,0,0-2.57,4,5,5,0,0,0-2.82-2.75,3,3,0,0,0-.62-1.07,19.58,19.58,0,0,1,0-3.15c1.6.27,2.49,1.61,3.29,3.09a10.46,10.46,0,0,1,2.44-3,5.56,5.56,0,0,1,2.78,3.36c1.17-1.09,1.39-2.92,3.5-3.29Zm-2.75-8.25,1,3.88-.82,1.75c-.5-.8-.37-1.45-1.51-2.4-1.12.75-1.45,1.85-2,3.06-.49-1.09,0-1.34-1.47-3.27-1.4,1.15-1.12,1.88-1.68,2.82a6.6,6.6,0,0,0-1.28-2.13,5.33,5.33,0,0,1,.42-3.47c1,.61,1.19,1.56,1.78,2.34.68-.87.66-2.07,2-2.61,1.39.95,1.19,1.64,1.78,2.47.56-.81.91-2.23,1.68-2.44Zm-.36-8.62c-2,2.55-.63,3.23-.72,4.75l-.84,1.43A7.39,7.39,0,0,0,96.72,216c-1.43,1.75-1.12,2.2-1.69,3.24a6.48,6.48,0,0,0-1-1.78c.39-1.36.72-2.72-.62-4.31a1.85,1.85,0,0,1,2,.87,5.23,5.23,0,0,1,1.16-3.08c1.29,1.11.64,2.07,1,3.08.74-.37.76-1.54,2.21-1.09Zm-.43,5.16a10.19,10.19,0,0,0,.63,3c-1,.88-1,1.63-1.56,2.42-.57-.94-.09-1-1.71-2.82a7.13,7.13,0,0,0-2.15,3c-.4-.71-.35-1.42-1.29-2.13a10,10,0,0,0,.48-3.33c1.2.58.89,1.17,1.34,1.75.52-.95.79-2.63,1.58-2.85a5.22,5.22,0,0,1,1.47,2.68c.4-.56.4-1.29,1.21-1.68Zm2.77,7.14c.14,1.83.84,2.26.63,4.12a5.24,5.24,0,0,0-3.4,3.37,5.93,5.93,0,0,0-2.81-3.61,10.76,10.76,0,0,0-2.47,3.16,5.76,5.76,0,0,0-2.37-2.71,9,9,0,0,1,.3-4c1.16.49,1.19,1.67,1.79,2.51.52-.88.84-2.26,1.58-2.65a8.59,8.59,0,0,1,1.54,3.15c.4-1.16,1-2.8,1.86-3,.66-.1,1.14,1.65,1.72,2.47.54-.92.23-1.47,1.63-2.75Zm-10-12.66c.09,1.93.48,3.45,1.71,4.46v.43L93,217c.64,2.15.06,2.84.09,4.26l-.53-.44-.4.62c-2.11,1.62-4.1,1.27-6-.23A36.59,36.59,0,0,1,83.18,218c3-.14,3.56,1.61,5.31,2.64-.18-1.18-1-1.22-.53-3.54,1,.39,1.34,1,3,1.18-2.72-1.41-2.42-2.94-2-4.78.1-.45.39-.61.4-1.45,2.33,2,1.15,3.37,1.73,5,.57-.84-.58-3.66.93-4.46Zm-6.36,8.68A9.35,9.35,0,0,1,88,226.33c.22-.41.24-1.12.71-1.32.09-.61-.45-1.22-.63-1.83.51.21.72,1.24,1.09,1.86A9.12,9.12,0,0,1,91,226.27l-1.16-3.52a5.82,5.82,0,0,1-4.1-1.5Zm5.52,8.07a4.14,4.14,0,0,1-1.14-.49,3.22,3.22,0,0,1,.31,1.62l-.59-.72a7.65,7.65,0,0,0-.49-2.4l0,2.24a3.39,3.39,0,0,0-1.28-.57,2,2,0,0,0-.72.65,2.61,2.61,0,0,0-1.42-1.83,5,5,0,0,1,1.18,2.27,1.87,1.87,0,0,0-.32.84,4.75,4.75,0,0,0-1.75-.35c-.31-.72-1.17-1-1.75-1.54.52.66,1.28,1.1,1.57,2a4.82,4.82,0,0,0-.53,1.74l-.68,0A3.79,3.79,0,0,0,81,231.15c.78.58,1.65.77,2.35,1.74-1.24.37-1.25.47-1.46,1.72a8,8,0,0,0-3-.45,13.69,13.69,0,0,1,3,.86,2.63,2.63,0,0,0,.65,1.45,1.28,1.28,0,0,0-.79.49,10.78,10.78,0,0,0-2.66.09,14.63,14.63,0,0,1,2.43.31A3.87,3.87,0,0,0,82,239a10.26,10.26,0,0,0-3.51.86,24.29,24.29,0,0,1,3.21-.53,2.67,2.67,0,0,0-.59,2.44c-1.27.61-2.31.86-3,1.79.63-.28,1.2-.65,1.83-.93s1-.35,1.53-.57a1.39,1.39,0,0,0,.87.53,3.23,3.23,0,0,0-.85,2c-1.29.9-2.75,1.24-3.29,2.52,1.25-1.19,2.17-1.32,3.25-2.06.24.5.56.69,1,.59l.36.23c-2.6.35-4,2.42-6,3.63-.68-2.23.77-4,2.51-5.51-1,.16-1.45.69-3.05.49.33-1.26,1.85-2.52,3.53-3.78a5.46,5.46,0,0,1-3.9,0c.08-1,2.5-1.77,3.82-2.36-1-.53-2.62,0-3-1.59.62-.79,2.17-.6,3.26-.89a3.56,3.56,0,0,1-2.81-2.12c.67-.82,1.88-1,3.34-1-.85-.7-1.64-1.55-1.25-2.63a3.25,3.25,0,0,1,3.69.8c-.26-1.15-1.32-1.26-.77-3.46,2.67-.16,2.44,1,3.29,2,0-1.07-.51-1.3,0-3.21,1.1-.44,2.28.77,2.53,2.36.53-.19-.19-2.13.77-3.13,1.46.19,2.29,2.15,2.48,3.82Zm-1-6.7,1.19,3.66a5.79,5.79,0,0,0,.13-1.95l.44.19a9.34,9.34,0,0,0-.41-2.12,1.16,1.16,0,0,1,.63.51,2.9,2.9,0,0,0,.1-1.22,6.12,6.12,0,0,1-2.08.93Zm7.19,21.61c-.43-.72-.44-1.82-1.29-2.15-.81.17-.73,1.48-1.09,2.22a2.74,2.74,0,0,1,1.16-2.93,3,3,0,0,1,1.22,2.86Zm-14.18,1.64a1.48,1.48,0,0,0,1.17-.65,16.46,16.46,0,0,1,2.27-3c.65-1.34.6-2.57-.83-2.4a1,1,0,0,1-1.2-.86c-.07-4.33,2.69-5.41,5.77-6.11a3,3,0,0,0-2.26-3.33c-.89.54-.94,1.48-1.24,2.23-.55-.23-.19-.84-1.65-.69a3.35,3.35,0,0,0-.44,2.23c-2.44-.41-3.22.64-2,3.47-1.48.4-1,1.14-.24,2.48q-2.27,2.11.36,3.43c-1.08,1.52-1.63,2.61-.39,2.71.67,0,.45.35.68.52ZM89,232c0,.09-.3.29-.38.16l0-.92c-.14-.3,0-.43.22-.16Zm-2.28,1.24c0,.25-.2.41-.31.28l-.39-1c-.12-.26,0-.34.14-.19l.55.89Zm-2.31,1.62c.16.18.07.5-.12.37l-.81-.54c-.31-.12-.31-.32,0-.28Zm-.74,2.81c.22.07.28.33,0,.31l-1-.09c-.33.05-.42-.13-.1-.26Zm0,2.42c.22-.07.43.09.23.22a2.06,2.06,0,0,0-.89.58c-.26.17-.37.17-.2-.13a2.43,2.43,0,0,1,.86-.67Zm1.28,2.2c.21-.1.43.05.24.2a2.31,2.31,0,0,0-.94.71c-.25.19-.36.2-.22-.12A2.74,2.74,0,0,1,85,242.25Zm-3.73-12.69c-3.8-3.22-9.79-3.73-11.51-.22,3.16.15,6.38.36,9,1.57,0-.34-.16-.71.13-1-1.48-1-4.06-1.26-6.67-1.46-.25-.07-.2-.19.19-.23,2.57.11,5,.29,7.17,1.45a4.23,4.23,0,0,1,1.66-.08ZM76.56,234a3.52,3.52,0,0,1-.62-.84,10.59,10.59,0,0,1,1.56-.25c-2-.85-4.88-.55-7.51.58-.37.19-.46,0-.07-.33a11.06,11.06,0,0,1,8-.53,3.22,3.22,0,0,1,1.44-.12c-3.74-2.11-11.24-1.77-12.22,2.91A18.78,18.78,0,0,1,76.55,234Zm0,3.56A22.24,22.24,0,0,0,65,241.13c.67-3.24,5-5.79,12.09-6.58a3.31,3.31,0,0,0,1,1l-.68.17A13.68,13.68,0,0,0,68.9,238c-.42.27-.2.32,0,.21a18.89,18.89,0,0,1,7.74-2.09,2.24,2.24,0,0,0-.7.46,1.52,1.52,0,0,0,.57.91Zm.13,3.83a22.44,22.44,0,0,0-12.31,5.56c-.53-3.67,6.08-8.46,13.83-8.42a21.17,21.17,0,0,0-2.43,1.36,17.8,17.8,0,0,0-8.87,3.92c-.24.21-.11.39.16.16a19.73,19.73,0,0,1,8.23-3.59l-.3.61a4.72,4.72,0,0,0,1.69.39Zm-.3,3.54a37.64,37.64,0,0,0-12.66,8.82c-1.46-4.93,4.74-8.82,13.69-11.61l-.75.77c-7.3,3.39-9.37,5.4-10.7,7.22a43.06,43.06,0,0,1,10-6.45,2.86,2.86,0,0,0-.4,1.09,1.11,1.11,0,0,0,.82.16ZM76.18,248a2.94,2.94,0,0,0-.18,1.12A36.45,36.45,0,0,0,65,259C62,256,67.89,250.35,77,245.73a3.56,3.56,0,0,0-.73,1.75c-5.09,2.51-8.48,5.33-10.28,7.84-.16.21,0,.25.2.08a38.56,38.56,0,0,1,10-7.43Zm9.62-31.84c-1.86-1.24-2.91-3.12-4.36-4.67-.88-.93-1.79-1.41-2.75-.93a8.57,8.57,0,0,0-2.51,2.92c-.52,2.2-1.71,2.34-3.09,1.89a2.71,2.71,0,0,0-.49-1.79c.68-.71,1.44-1,2.2-.26.36.09.43,0,.32-.25-.73-.41-.1-1,.82-.89,0-.23-.41-.28-.1-.63l1.12,0c0-.26-.55-.3-.23-.71h1.2c-.9-.9.78-.8.55-1.38l-1.51.69a9.11,9.11,0,0,0-2.82.38c-2.43,1.1-3.4-.17-3.34-1.53a1.41,1.41,0,0,0,.85-1c1.66-.62,2.29.07,2.54,1.41.5.17,0-.56.5-.42s.38.33.57.5c.39-.07,0-.34.12-.53.23.15.72,0,.78.54.39.1,0-.56.38-.44a.82.82,0,0,1,.72.34c.26-.44.75-.57,1.54-.48.26-.24-.87-.41-1.3-.61l-2-1.27c-1.64-.05-2.25-.92-1.86-2.3a2.22,2.22,0,0,0,1.44-.79c2.27,1.05,1.45,2.09,1.31,2.64,0,.29.28.38.34.17s.18-.45.34-.23l0,.64c.24,0,.39-.25.73,0s.08.41.12.62c.27,0,.35-.35.82-.05s.25.44.38.67l.56-.54c.32,0,.18.27.27.4.25-.22,0-.55.76-.65l.16.31.31-.54.37-.06c.48,0,.14.7.56.39L82,206.9a1.71,1.71,0,0,0,.75-1.58,1.9,1.9,0,0,0,1.31,0c1.61.71,1,1.84,0,2.94-.93,0-2.17.42-2.78.1-.35-.1-.63.07-.82.52.27.52.77.06,1.15.44l-.46.44c.66.32.79-.29,1.37.09.28.29-.14.4-.21.6l1-.09.33.25c.16.24-.53.19-.58.56.5.13.8-.43,1.25-.12l.26.24c0,.28-.58.27-.51.67l.86-.41.85.31c0,1.43-.73,2.33,0,4.29Zm0-5.84a5.37,5.37,0,0,1,.13,2.6,4.62,4.62,0,0,0,1.42,4.62,4.73,4.73,0,0,1,.26-1.56,1.94,1.94,0,0,0,1.21,1.1c-1.39-2.7.46-5.73-3-6.77Zm-4,5.07,1.64,2.21a6.14,6.14,0,0,1,4.14,1.94,4.75,4.75,0,0,1-.18-1.53c-1.73-.82-2.29-2.84-5.6-2.63ZM87,226.23c-2-5-6.13-7.25-9.39-5.21,2.69.53,5.68,3,7.35,5.84.1-.34,0-1,.29-1.09a11.28,11.28,0,0,0-4.63-4.22c-.25-.21-.15-.25.28-.12a9.63,9.63,0,0,1,4.72,4.18,5.68,5.68,0,0,1,1.37.63Zm-3,1c-2.94-4.48-9.61-4.81-10.87-2.59,1.66,1,5.26,1,8.44,3.91a2.71,2.71,0,0,1,.14-1.19c-1.72-1.87-4-2.26-6.58-2.84-.28-.08-.15-.22.32-.16,2.31.66,4.73.36,6.68,2.76a5.4,5.4,0,0,1,1.86.11Zm16.12-20c2.66-3.29,4.82-3.34,5.88.54,1.75-6-4.14-8.34-7.38-1.49-.55-2,0-3.32-2.14-6.74-2.24,3.81-1.31,4.45-2,6.67-3.25-6.63-9.17-3.85-7.32,1.37,1.18-2.6,4-3.25,5.59-.53a1.5,1.5,0,0,1,.83.28,3.33,3.33,0,0,0-.71-2,3.29,3.29,0,0,1,1.25,2.37l.55.79c.42-1.38.06-2.5,1.7-4l.22-2.27.31,2.48a6.46,6.46,0,0,1,1.58,3.84L99,208a8.12,8.12,0,0,1,1.4-2.75l-1.12,2.63a2.58,2.58,0,0,1,.81-.61Zm2.87,3.27c-1.65-2.09-4-1.13-4.25,2.05a3.16,3.16,0,0,0-.9.87,3.79,3.79,0,0,0-1-3,5,5,0,0,0-.25-2.16,9,9,0,0,0-.08,2.15c-1.07.7-1,2-1.25,3a2,2,0,0,0-.9-.82c-.09-3.13-2.68-3.42-3.56-1.46-2-3.13,3.1-5.91,4-1.57l.37-.22A5.44,5.44,0,0,1,96.6,205a6.62,6.62,0,0,1,1.61,4.63l.19.2.18-.2c.7-2,2.15-2.38,3.22-2.12a2,2,0,0,1,1.16,3.05"/><path id="path180" class="cls-14" d="M97.24,183.48a.91.91,0,0,1,.55,0,1.44,1.44,0,0,0,.4-.59c0-.14-.26-.17-.39-.06C97.75,183.18,97.39,183.28,97.24,183.48Zm-.34-1.09-.13.81c.14.05.28,0,.42.12.22-.19.19-.6.1-.92a.23.23,0,0,0-.39,0Zm-.58-.47.05,1.08a.42.42,0,0,0,.3.17l.16-1.08a.65.65,0,0,0-.51-.17Zm-.65.05.36.47,0-.49a.43.43,0,0,0-.41,0Zm1.77,1.1a.45.45,0,0,0,.32-.41l-.3-.11a3.05,3.05,0,0,0,0,.52"/><path id="path182" class="cls-19" d="M90.32,177l-.59-1.66,1.47-.58-.41-1.12-1.54.58-1.06-2.88,1.43-.55-.39-1.25-1.5.62-.91-2.32-1.29.4,1,2.44-1.56.62.45,1.09,1.53-.67,1.14,3-1.58.58.45,1.06,1.67-.62.65,1.64,1.09-.39ZM96,185.34l0-1.26c-.29.16,0,1.38-.73.36a.75.75,0,0,1-.88.05l0,.42a1.53,1.53,0,0,1-1-.57c1.51-.38,1-1.85,2.11-2.32.38.4.62,1,1.17,1.26-.12.15-.13.36,0,.65,0-.78.38-.57.6-.29.49,0,.83.33.34.59l-.71.59,0,.53a1.21,1.21,0,0,1-.84,0Zm-18.81-6.12a1.49,1.49,0,0,1,2.53-.61c-.83.17-1.4.47-1.39,1.09.55-.78,1.7-1.15,2.11-.07a.58.58,0,0,0-.87.22c1,0,1.21.88,1.54,1.46.31.4.57.37.8-.1a3.2,3.2,0,0,0,.81,2.18l.18-.75c.24,1,1.08,1.31,1.32,2.29a2.17,2.17,0,0,0,0-1.05,4.57,4.57,0,0,0,1.83,2l.09-.51a4.38,4.38,0,0,0,3.5,2,1.08,1.08,0,0,0,.13.59,3.6,3.6,0,0,1-2.58-.13,2,2,0,0,0-2.55,0c0-.32.31-.62.91-.9a1.56,1.56,0,0,0-2.06.13c-.19-.33.11-.58.39-.81a9.82,9.82,0,0,0-3,.32,3.3,3.3,0,0,1,1.78-1.19,8,8,0,0,0-2.72,0c.08-.33.45-.62,1.1-.89A1.69,1.69,0,0,0,78.33,186a1.09,1.09,0,0,1-.31-1.76,2.21,2.21,0,0,0-.66-.08q-.14-.72,1.08-.57A2.85,2.85,0,0,0,76,183c1.52.58,0,2-.47,2a1.62,1.62,0,0,1-1.81-1.59c.51-.17.85-.09,1,.26.25-.29-.09-.47.05-.78,1-.62,1-1.31.42-2,.34,2-1.57,3.18-3,1.12-.87-1.21-.63-3,.29-3.36,0,.31-.21.64,0,.91a1.53,1.53,0,0,1,.26-.93c.51-.2.34.14.52.2.08-.38.36-.5.76-.44a2.28,2.28,0,0,0-.55,2c.11.22.33.26.3,0-.15-1.33.2-2.35,1.84-1.85a.49.49,0,0,0-.13.36,1.09,1.09,0,0,0-.91.28c-.16.19-.06.36.09.24a.84.84,0,0,1,.8-.29c0,2.06,1.43,2.74,2.73,2,.33-.26.25-.45-.09-.29-1.53.88-2.48-.4-2.24-2.15l.31.21c-.14-.27,0-.44.5-.51a1.54,1.54,0,0,0,0,.64c.14-.25.12-.67.44-.75l.56,0a1.2,1.2,0,0,0-.56,1.05Zm11.45,8.47c.34,0,.31-.08-.07-.17a14.4,14.4,0,0,1-8.56-6l.1.84c-.74-.26-1-.57-1.41-.6s-.68.28-1,.73c1.69-.6,2.28,0,3.42.88a2.91,2.91,0,0,1-1.44.13c.35.15,1,.17,1.07.47.07-.49.24-.33.43-.44,2.75,2.36,5.69,4,7.5,4.12"/><path id="path184" class="cls-20" d="M91.94,184.36c-1.66.27-.25-2.08.31-.86C93,185,95,185.79,97,185.67a1.6,1.6,0,0,1-.26.64,4,4,0,0,1-1.49-.51c-.27-.09-.27.21,0,.39a4.51,4.51,0,0,0,1.34.38.49.49,0,0,1-.29.36,5.91,5.91,0,0,1-1.73-.67c-.26-.2-.32.07,0,.36a8.06,8.06,0,0,0,1.56.67.33.33,0,0,1-.22.29l-1.34-.76c-.33-.19-.39.05-.11.37l1.16.61c-.67.49-1.66-.5-2.11-.92l-1.54-2.53Zm6.26-1.82c-1.24-1.09-2.43-1.35-3.52-.33-.46.43-.33,1.4-1.46,2l-.35-.3A3.2,3.2,0,0,0,94,181.24c2-1.08,3.26-.9,4.14.21l.08,1.09ZM98,180.77a4.72,4.72,0,0,0-4.16.09,2.26,2.26,0,0,0-.6-1.14c1-2.11,4.38-2,5.46.14.07.57-.47.6-.7.9Zm.77-1.51-.67-.84,1.45-2.65.9.57a11.27,11.27,0,0,1-1.68,2.92Zm1.4-1.57a9.5,9.5,0,0,1,2.61,2.56l.33-1.09a30.11,30.11,0,0,0-2.39-2.42l-.56.95Zm-1,2.83a2.08,2.08,0,0,0,0-1.13L99.9,178a13.25,13.25,0,0,1,2.8,2.8,1.68,1.68,0,0,1-2,1.25,8,8,0,0,0-1.63-1.47Zm2,2.22-.07-.25c1.29.08,2.08-.87,2.37-2.83.26.05,1.11.47,1.13.78-1.24,1.9-2.36,2.36-3.43,2.3Zm.38.3,0,.3c2.06.1,2.21-.64,3.46-1-.06-.47.25-1.14-.18-1.41-1,.79-1.34,2.26-3.33,2.14Zm2.46.45.21,3.41a.67.67,0,0,0,.76-.35l0-3.45C104.68,182.88,104.07,183.08,103.89,183.49Zm-2.4.37.14,2.86a1.86,1.86,0,0,0,2,.25,19.1,19.1,0,0,0-.11-3.46,6.36,6.36,0,0,1-2.05.35Zm3.57,9.07a1.15,1.15,0,0,1-.37-.06c0-.1,0-.21.07-.31h.15a.77.77,0,1,0,0-1.53,1,1,0,0,0-.57.18l-.12-.05-.08,0a1.18,1.18,0,0,1,.92-.45,1.14,1.14,0,1,1,0,2.27Zm-1.29.12c0,.48.35.7.47.26l.27-1.24c0-.39-.63-.56-.62-.23Zm-.86-.24c0,.47.35.69.47.26l.31-1.28c0-.38-.8,0-.79.37v.64Zm-1,.71c0,.48.56.42.69,0l-.13-.9c0-.38-.55-.58-.55-.25v1.17Zm-.7-.31c0,.48.42.7.54.27l0-1.2c0-.38-.76-.33-.76,0ZM100,195.4a15.5,15.5,0,0,1-.5-6.51l-1.29.08a24.34,24.34,0,0,1,.43,6.56Zm-1.72-3.54L78.09,193a4.2,4.2,0,0,1,1.39-.72l18.72-1.17,0,.75Zm0,1-17.71.9a6.37,6.37,0,0,1-2.53-.62l20.31-1-.07.69Zm2.83.47c-1.53.18-1.26-1.84-1-2.69a2.23,2.23,0,0,1,.93-.84l.28-2.88a4.43,4.43,0,0,0,4.17.09l-1.22,2.49A1,1,0,0,0,103,190c1-.46,1.29.11,1.14,1.08a.94.94,0,0,0-.79,0,1.14,1.14,0,0,0-1.1-.91c.27.31.76.43.8.95a.7.7,0,0,0-.38.57.72.72,0,0,0-.7.05c-.46-.33-1.19.07-1.82,0,0,.44.84.67.91,1.6Zm-8.1-13.48c1.09,1.63.84,2.79-.33,3.62-.92-2-2.93,1-.76,1.19l1.57,2.73c-2,.29-3.33-.44-3.22-3.45a3.85,3.85,0,0,1,1.24-2.18,1,1,0,0,0,.13-1.24,1.88,1.88,0,0,0,1.37-.67Zm.17-1.68a1.85,1.85,0,0,1-3.52.9C90.84,178.73,91.93,178.7,93.1,178.22Zm.47.24a3.88,3.88,0,0,1,4.15-.17l1.54-2.65-1-2.51c-2.19,0-3.22-1.17-4.84-1.1-1.84,2.53,1.26,4.45,1.9,1.52l.68,1.69c0,1-1.17,2-2.62,2.84l.16.38Zm-2.69,8.88A1.8,1.8,0,0,1,90,188a1.08,1.08,0,0,1-.21-.62,1.31,1.31,0,0,0,.7-.39A1,1,0,0,0,90.88,187.34Zm4.51-12.78.34.93c-2,3.43-6.74,2.12-9.27,5.1-3.28-4.75-4.51-9.65-1.18-15.25a10.84,10.84,0,0,1,7.66,6.77c-1.78,2.12,1.14,4.76,2.45,2.45Zm-4.54,2.75-.62-1.72L91.7,175,91,173.21l-1.49.61-.85-2.24,1.47-.59-.71-2-1.51.59-.9-2.39-2.05,1,1,2.34-1.66.61.94,1.81,1.49-.6.82,2.18-1.68.69.77,1.71,1.63-.62.65,1.6Zm18.84-25.59a20.28,20.28,0,0,0-1.82,7.85,2.17,2.17,0,0,1,1.06.47,78,78,0,0,1,1.39-8l-.62-.35Zm-1.41-.31c-.41,3.41-3,4.81-2.8,7.65a6.46,6.46,0,0,0,1.93.34c.41-5,1.25-5.46,1.83-8.11Zm-3.49,8.23,4.22,2.59a2.78,2.78,0,0,0-.08-1.67C108.19,160,106.42,159.75,104.79,159.64Zm-.22.58,2.29,3.41c1.15.13,2.22-.23,2-.74a11.76,11.76,0,0,0-4.27-2.67Zm.32,1.25-.88-1.18-.61.17.22,1.14,1.27-.13Zm-4,1a10.9,10.9,0,0,1,2.39-.61l-.32-1.13a10,10,0,0,0-2.18.44l.11,1.31Zm-2.75,1.17c.77-.4,1.66-.73,2.43-1l-.16-1.29a12.77,12.77,0,0,0-2.18.74,2.42,2.42,0,0,0-.08,1.59Zm-3,1.74a12.68,12.68,0,0,1,2.48-1.58,3.87,3.87,0,0,1,0-1.47l-2.23,1.15-.29,1.9ZM105.46,162c-2.8.24-5.27.59-9.73,3.6,1.07,1.15,2.48,2.45,3.72,2.37,3.59-1.76,7.33-3.54,6.81-4.57l-.8-1.4Zm-15.14,4c4.73-2.26,5.78,1.58,8.67,2.37l-.34.34a1.51,1.51,0,0,0-1.4,0,2.77,2.77,0,0,0-1.43.38,1.3,1.3,0,0,0-.89-.64l-.73-1.37-1.13.57-2.41-.07a2,2,0,0,1-.34-1.58Zm3.62,1.66a4.6,4.6,0,0,0-1.88,1.87,13,13,0,0,1,1.24,1.92,6.68,6.68,0,0,1,2.55.77,8,8,0,0,0,2.72.5c.88-.08,1.11-.51.62-.86-.77.36-1,.22-1.19-.18a1.64,1.64,0,0,0,1.84-.7.36.36,0,0,0,.07-.54c-.21-.06-.43.32-.83.38a4.89,4.89,0,0,0,.53-.81c0-.26-.1-.35-.44-.27l-.3.43c-.19.15-.31.14-.2-.16l.37-.61-.74-.5a1.47,1.47,0,0,0-1,.17,2.5,2.5,0,0,0-1.24.2,6.41,6.41,0,0,1-.4,1.68c-.34-.55.25-1.6-.35-1.88s-.26.51-.39.77-.31.11-.31-.16a3.18,3.18,0,0,0,0-1.15l-.64-.87Zm.77-2.51a11,11,0,0,0-3.42-.16c-.06-1.21,2.11-1.64,3.67-1.4l-.24,1.57Zm-2,2.84a5.64,5.64,0,0,0-.85,1.14,11,11,0,0,0-.92-1.08l1.77-.06Zm15.37-17.83,1.16-.05.06-.79a.93.93,0,0,0-1.22-.14v1Zm2.2-.15-.15-.57-.51.06-.06.6.72-.08Zm.14,1.65-.57-.35.2-.31.4,0,.23.34Zm4.42-3.87a.71.71,0,0,1,.76.35,2,2,0,0,0,.07-.95,2.23,2.23,0,0,0-.83.6Zm-1.38.89a2,2,0,0,1,.82,1.38l.43-.34c0-.65-.28-1-.94-1.26Zm.84-.46c.47.4.74.47.76.95l.25-.38c0-.64-.11-.55-.76-.82Zm-1,2.55a1.05,1.05,0,0,0-.68-.71,1.45,1.45,0,0,1,.49-1,1.31,1.31,0,0,1,.68,1.36Zm-1.1.44a2.22,2.22,0,0,1,.18-.87.86.86,0,0,1,.52.58,1.71,1.71,0,0,1-.7.29"/><path id="path186" class="cls-14" d="M110.46,150.79l0-.41-4.4.21.25-1.13-.93.9-1.11-1.11.29,1.14-1.4-.19,1.16.83-1,.82,1.5-.15.35,1.68.47-2,1.07.63-.63-1a21.85,21.85,0,0,0,4.45-.23Zm.91,1.85a.49.49,0,1,1,.5-.49A.49.49,0,0,1,111.37,152.64Zm-.41-1.35-.4-2.1c1.07,0,1.53-.42,2.37-.46a9.26,9.26,0,0,0-1.06,2.59.78.78,0,0,0-.9,0Zm-1.52,7.24a38.54,38.54,0,0,0,1.7-5.16l-.2,0-1.32,3.34a7.65,7.65,0,0,1-.17,1.84"/><path id="path188" class="cls-14" d="M113.51,179.38a.67.67,0,1,1,.64-.67A.66.66,0,0,1,113.51,179.38Zm.93-1.07a.62.62,0,0,0-.43-.57,25.35,25.35,0,0,1,4.19-3,1.07,1.07,0,0,0,.42.67A37.52,37.52,0,0,0,114.44,178.31Zm-1.85-.1-.37-.14a3,3,0,0,0-.36-1.52,1.39,1.39,0,0,1,.59-.82,4.39,4.39,0,0,0,.38,2.08,1,1,0,0,0-.24.4Zm.24,2.8-.5-.52a1.58,1.58,0,0,1,.32-1.41.92.92,0,0,0,.54.57c-.29.2-.24.9-.36,1.35Zm3.5,1.08a7.63,7.63,0,0,1-2.68-2.39c.33-.11.56-.2.65-.41a8.73,8.73,0,0,0,2.82,2.21A1.19,1.19,0,0,1,116.33,182.09Zm3-6.49a7.48,7.48,0,0,0,1.58,1.77c.35-.08.36-.46.63-.67a7.78,7.78,0,0,1-1.48-1.44,1,1,0,0,1-.72.34Zm-1.14-1.19a1.65,1.65,0,0,0-.74-.56.9.9,0,0,1,.28-.49,1.93,1.93,0,0,1,.64.47,1,1,0,0,0-.18.58"/><path id="path190" class="cls-14" d="M119.32,175.32a.79.79,0,1,1,.82-.79A.8.8,0,0,1,119.32,175.32Zm0-.28a.52.52,0,0,1-.53-.51.51.51,0,0,1,.53-.5.51.51,0,0,1,.52.5.51.51,0,0,1-.52.51"/><path id="path192" class="cls-14" d="M119.42,163.72c-1.77,1.45-5.15,2-8.71,2.1a28.07,28.07,0,0,1-5.37-.21l.21-.28a.4.4,0,0,0,.22.06.34.34,0,0,0,.36-.31.32.32,0,0,0-.18-.28l.15-.19.9-.09c4.93.26,10-1.28,12.12-3.28a12.22,12.22,0,0,0,.3,2.49Zm-11.81,1.73a.35.35,0,0,1-.34-.35.34.34,0,1,1,.67,0A.34.34,0,0,1,107.61,165.45Zm1.91.15a.42.42,0,0,1-.38-.44.42.42,0,0,1,.38-.45.45.45,0,0,1,0,.89Zm1.9-.13A.45.45,0,0,1,111,165a.46.46,0,1,1,.91,0A.46.46,0,0,1,111.42,165.47Zm1.88,0c-.26,0-.47-.28-.47-.63a.56.56,0,0,1,.47-.62c.25,0,.46.28.46.62S113.55,165.45,113.3,165.45Zm2-.35c-.28,0-.51-.35-.51-.77s.23-.77.51-.77.52.34.52.77S115.61,165.1,115.32,165.1Zm1.76-.6c-.3,0-.55-.33-.56-.76s.22-.79.52-.8.55.34.56.77S117.37,164.5,117.08,164.5Zm1.57-.75c-.23,0-.42-.35-.42-.79s.19-.79.42-.79.42.36.42.79-.19.79-.42.79"/><path id="path194" class="cls-19" d="M107.62,165.31a.18.18,0,0,1-.19-.19.19.19,0,0,1,.19-.2.2.2,0,0,1,.19.2A.19.19,0,0,1,107.62,165.31Zm1.89.06a.22.22,0,0,1-.21-.23.21.21,0,1,1,.42,0A.22.22,0,0,1,109.51,165.37Zm1.89-.09a.29.29,0,1,1,.29-.29A.29.29,0,0,1,111.4,165.28Zm1.91-.11a.34.34,0,0,1-.32-.34.32.32,0,1,1,.63,0A.33.33,0,0,1,113.31,165.17Zm2-.39c-.17,0-.31-.19-.31-.42s.14-.43.31-.43.3.19.3.43S115.52,164.78,115.35,164.78Zm1.71-.57c-.17,0-.31-.2-.32-.44s.13-.45.3-.45.31.19.32.43-.13.45-.3.46Zm1.59-.83c-.14,0-.26-.21-.26-.48s.12-.48.26-.48.26.22.26.48S118.79,163.38,118.65,163.38Zm-12.89,1.88a.19.19,0,1,1,0-.38.19.19,0,1,1,0,.38"/><path id="path196" class="cls-14" d="M117.28,172.82a21,21,0,0,0-3.39-1.44c-4.54-1.34-9.21-1-13.54-.35l0-.85c5.51-1.77,13.37-2.55,17,.13a5.1,5.1,0,0,0,0,2.51Zm-1.37-1.34a.82.82,0,0,1-.73-.77.64.64,0,0,1,.57-.78.83.83,0,0,1,.74.78A.65.65,0,0,1,115.91,171.48Zm-2.13-.85a.63.63,0,0,1-.63-.63.64.64,0,1,1,.63.63Zm-1.83-.34a.64.64,0,0,1,0-1.28.64.64,0,0,1,.64.64A.64.64,0,0,1,112,170.29Zm-1.94-.24a.58.58,0,1,1,.58-.58A.58.58,0,0,1,110,170.05Zm-1.83-.07a.5.5,0,1,1,.58-.49A.54.54,0,0,1,108.18,170Zm-1.81.07a.5.5,0,0,1-.53-.46.54.54,0,0,1,1.07,0A.51.51,0,0,1,106.37,170.05Zm-1.65,0a.51.51,0,0,1-.54-.46.54.54,0,1,1,.54.46Zm-1.7.17a.39.39,0,1,1,.46-.38A.43.43,0,0,1,103,170.27Zm-1.2.18a.28.28,0,0,1-.29-.25.29.29,0,0,1,.58,0,.28.28,0,0,1-.29.25"/><path id="path198" class="cls-19" d="M103,170.08a.25.25,0,0,1-.27-.22.26.26,0,0,1,.27-.23.23.23,0,1,1,0,.45Zm1.7-.2a.27.27,0,1,1,0-.53.28.28,0,0,1,.31.26A.29.29,0,0,1,104.74,169.88Zm1.65,0a.27.27,0,1,1,0-.53.29.29,0,0,1,.32.26A.3.3,0,0,1,106.39,169.83Zm1.81-.09a.29.29,0,1,1,.34-.29A.32.32,0,0,1,108.2,169.74Zm1.84,0a.34.34,0,1,1,0-.67.34.34,0,0,1,0,.67ZM112,170a.38.38,0,0,1-.37-.37.37.37,0,0,1,.37-.37.37.37,0,1,1,0,.74Zm1.83.34a.37.37,0,1,1,.37-.37A.37.37,0,0,1,113.81,170.32Zm2.08.81a.48.48,0,0,1-.43-.45.38.38,0,0,1,.33-.45.48.48,0,0,1,.43.45.38.38,0,0,1-.33.45"/><path id="path200" class="cls-14" d="M88.75,164.33l.26-.17a6.59,6.59,0,0,1-2.93-4.82l4.1.89c.16,1.64.69,2,1,2.87a2.27,2.27,0,0,0,1.1-.75,3.59,3.59,0,0,1-1-1.8l-.24,0a1.15,1.15,0,1,1,0-2.3,1.27,1.27,0,0,1,.34,0c-.36-1.46.14-2.87-1.87-4.42l-.7.22.35.43a7.48,7.48,0,0,1,.92,3.64,28.78,28.78,0,0,1-3.53-.62,1.08,1.08,0,0,1,.14.53,1.17,1.17,0,0,1-1.19,1.15,1.27,1.27,0,0,1-.79-.28l.08.41c-.14,1.57.6,3.16,2.07,4.78a3.1,3.1,0,0,0,1.86.16Zm2.59-3.79,2.83,0a3.79,3.79,0,0,0,1-1.5c-1.26-.08-2.31-.3-3.09-.3a1.08,1.08,0,0,1,.2.64,1.16,1.16,0,0,1-.92,1.12ZM86,157c-.19-2.31-.74-3.61-1.53-4.2l-.53-.23-.52.28.48.57a5.57,5.57,0,0,1,.57,3.43,7.85,7.85,0,0,1-4.71-4.2c-.6.58-.15,1.81-.16,2.69a13,13,0,0,0,4.49,3.13l.4.15a1.19,1.19,0,0,1-.14-.56A1.17,1.17,0,0,1,85.53,157,1.45,1.45,0,0,1,86,157Zm-2.62.58a.24.24,0,1,1,0-.46.23.23,0,1,1,0,.46Zm-1.3-.89a.26.26,0,0,1-.28-.23.27.27,0,0,1,.28-.23.26.26,0,0,1,.28.23A.25.25,0,0,1,82.07,156.73Zm-1.35-1.09a.24.24,0,1,1,0-.46.23.23,0,1,1,0,.46ZM80,154.26a.26.26,0,0,1-.15.33.27.27,0,0,1-.3-.21.27.27,0,0,1,.16-.34A.26.26,0,0,1,80,154.26Zm5.18,1.81a.24.24,0,1,1,0-.47.24.24,0,1,1,0,.47Zm-.25-1.28a.23.23,0,1,1,0-.46.24.24,0,1,1,0,.46Zm2.21,8.92a.24.24,0,1,1,0-.46.23.23,0,1,1,0,.46Zm-.61-1a.27.27,0,0,1-.28-.23.29.29,0,1,1,.28.23Zm-.66-1.17a.22.22,0,1,1,.26-.22A.25.25,0,0,1,85.86,161.57Zm-.41-1.12a.23.23,0,0,1-.25-.21.24.24,0,0,1,.25-.21.24.24,0,0,1,.26.21A.23.23,0,0,1,85.45,160.45Zm2-1.39a.28.28,0,0,1-.28-.27.28.28,0,1,1,.28.27Zm1.42.4a.27.27,0,1,1,.28-.27A.28.28,0,0,1,88.91,159.46Zm4,.51a.23.23,0,1,1,.24-.23A.23.23,0,0,1,92.87,160Zm1.07,0a.23.23,0,1,1,.24-.23A.23.23,0,0,1,93.94,159.93Zm-3.64-3.76a.24.24,0,1,1,0-.47.24.24,0,1,1,0,.47Zm.28,1.27a.23.23,0,1,1,0-.46.23.23,0,1,1,0,.46Zm.57,4.43a.23.23,0,1,1,.24-.23.23.23,0,0,1-.24.23"/><path id="path202" class="cls-19" d="M85.45,158.9a.82.82,0,1,1,.85-.82A.84.84,0,0,1,85.45,158.9ZM91,160.21a.82.82,0,1,1,.85-.82.83.83,0,0,1-.85.82"/><path id="path204" class="cls-19" d="M95.43,158.66a10,10,0,0,1-3.63-.38c-.31-2.67-.6-4.26-2.52-4.52l-.77.27c1.15,1.71,1.39,2.92,1.23,3.82a10.86,10.86,0,0,1-3.27-.68c-.64-1.56,0-3-1.91-4.69-1-.26-1.5-.12-1.28.68a4.18,4.18,0,0,1,1,3.35,7.61,7.61,0,0,1-4.26-4l0-2.47c-.28-.56-.68-1-1.14-1.06-1,0-1.4-.36-1.21-1.33a18.71,18.71,0,0,1,1.75-3.77,7.86,7.86,0,0,0,1.14-3.13c.18-.86-.13-2.29,1.27-2.88.36.52.73.55,1.1.09a2.88,2.88,0,0,0,.41-1.42,5,5,0,0,1,2.89-.61,11.72,11.72,0,0,1-2.5,3.76c-2.11,3.11-3.12,5.94-.21,7.79a19.3,19.3,0,0,0,5.08,1.08c4.7.19,3.35,4.41,5.37,5.3.58.19.58-.35,0-.5-.64-.37-.67-1.25-1-1.86h2.58a8.32,8.32,0,0,1-.2,7.14Zm-3.77,2.12a2.83,2.83,0,0,0,.83,1.44,5.51,5.51,0,0,0,1.43-1.36l-2.26-.07Zm-2.29,3.3a6.5,6.5,0,0,1-2.89-4.42l3.51.81A7.27,7.27,0,0,0,91,163.32l-1.67.76ZM86.18,164c-1.47,0-3.53-1.36-5.29-2a3.82,3.82,0,0,1-4.33,1.28,12.81,12.81,0,0,0-4.18-.17c-2.72.9-1.55,4.16,1.23,3.2-1.37,1.9-4,1.38-5.49-1.22-.56.21-.36.89-.42,1.42a2.84,2.84,0,0,1-.88-1.87c.65.14,1.07-.24,1.1-1a1.36,1.36,0,0,1-1.1.65,13.37,13.37,0,0,1-3.84-1.1c-2.14-.45-2.7,1.63-1.42,2.56-2.05-.39-1.49-4.48,3.62-5.12,1.95-.53,3.39-1.11,4.7-.67.52.18,1.07.74,1.41.63-1.16-1.72-3.36-.75-5.3-1.2-1.87-.71-2.61-2.44-2-3.45.23,1.68,1.85,2.43,3.66,1.89,1.4-.52,3.15-1.33,4.8-1,2,.64.72,3,2.26,2.69A1.28,1.28,0,0,1,74.6,158a3,3,0,0,0-1-3.13,3.38,3.38,0,0,1,2.75,2.72c.13,2.12.73,3.84,3.05,4.09.76.07,1.21-.1,1-.82-.26-1.67-.85-2.88-.79-5a10,10,0,0,0,4.62,3.1,9.84,9.84,0,0,0,2,5.12Zm27.05-7.28v-.46a8.37,8.37,0,0,0-2.31-1.22,18.17,18.17,0,0,1-1.68,4.81,15.25,15.25,0,0,1,.11,2.92c.08.88-1.54,1.2-2.77,1.45,4.35.24,11.63-1.57,12.11-3.37a4.22,4.22,0,0,0-2.18-.45c-.36-.1-.29-.46.29-.48,1.32.21,1.73.57,2.82.71a25.17,25.17,0,0,0,4,.35A2.21,2.21,0,0,0,126,161l1.45-1.16a3,3,0,0,0-.24-2.86,11.83,11.83,0,0,1-1.09-4.39c-2.43-1.51-1.69-3.5-4.23-4.61a4.49,4.49,0,0,0,.1,2.28c.21.42.46.62.75.59.15.54.37,1.06-.34,1.21-.63,0-1,.3-.17,1.1s2.27,1,2.23,2.83c-.19,1.37.59,1.41.57,2.15l-.25.15c-.43-.61-.7-.47-.91.23-.17.21-.44.38-.5.07v-.25c-2.47-.42-3.05-1.42-5-2.28-2.32-1.28-4-1.28-4.82.13l-.06.52c0,.42-.28.42-.33.07Zm8.46-6.07.28-.09c-.8-1.12-.2-2-.3-2.91-.57-.4-.8-.94-1.7-1.2Q119.51,148.57,121.69,150.67Zm-.35.33c-.89.54-2.78-2.1-2.15-4.33l.4-.16a5.06,5.06,0,0,0,1.75,4.49Zm8.38,4.77c.89.69.45,2.42.68,3.62.54,1.2,0,1.07,0,1.6-.83,1.71-1.37,1.81-1.79,3.15-.31.87-.3,1.68-1.18,2.26-1,.19-1.4,1.28-3.08.49-1.91-1.29-3.63-1.54-5.23-2.42l.68-.63c0-1-.3-.45-.28-2.88l2.65.22c1.12,1.11,2.7,2,2.66,3.58a4.76,4.76,0,0,1,2.15-1,7.81,7.81,0,0,1,1.19-2.78c-.54,0-.46-.4-.44-.89l.36-.38c.25-1.17-.2-1.44-.06-2.72.82-.07.86-1,1.69-1.17Zm-2,1.2c.21-.41.51-.35.71-.58a6,6,0,0,1,1.21-1c-.19-.45-.27-.93-.46-1.38a2,2,0,0,0-1.81,2,1.17,1.17,0,0,0,.35,1Zm-.6-1.72a2.24,2.24,0,0,1,2-1.65c.3-.08,0-.35-.16-.58a3.69,3.69,0,0,0-2,1.53l.18.7Zm-18,20.87c2.32,1.58.07,4.59,2,6.06-1-2.19-.55-3.76.33-3.62-.59,3.26,2.06.78,1.93,5.93-.67,0-.82-.42-1.23-.62-.08-.55-.36-.92-.43-1.53-.24.53.07.92,0,1.37a3.24,3.24,0,0,1-2.54-4.09,2.38,2.38,0,0,0-.06,2.84c-1.38-.28-1.9-1.24-1.81-2.89-.45.34,0,1.63-.26,1.91a3.62,3.62,0,0,1-1.51-2.24c-.21-.11-.34-.41-.36-.91a1,1,0,0,1-.73-.59A2.31,2.31,0,0,1,104,175c-.42.13-.57.54-.68,1.18a3.63,3.63,0,0,1-.5-2.94,2.57,2.57,0,0,1-1.29-2.1,7.49,7.49,0,0,1,2.37-.2c0,1-1.12,1-.5,2.61.18-2.15,1-1.74,1.14-2.75a2.22,2.22,0,0,1,1.46.05c-.38,2.11-1.56,2.72-1.08,6.1.2-1.89.66-3.28,1.7-3.56.32.53-.4.92-.54,1.41-.5,1.75-.43,3.68.41,4.57-.78-2-.43-3.47,1.17-4.17a3,3,0,0,0,0,3.3c.37.49.17,1.78.53,2.06.09-.68-.2-1.43.07-2.15.86-.26,1.08-1,.81-2.27Zm4.07-1.88a4,4,0,0,0-2,3.6c.28-.15.2-1.06.57-.85.18.28.32.83.07.91s-.74.32-1.31.82c0-1.95-1-3.19-2.35-2.95,1,.53.78.93.76,1.42,0,.68-.67.86-.93,1.26-1-2.33-.12-3.33,1.67-3.73a3.66,3.66,0,0,0-3.49,1.18c0-1.81,1.44-1.46.87-4.09-.21,1.61-1,1.18-1.67,2.25.4-1.61,1-2,1.06-3.35,3.38,0,6.12.31,7.21,1.1a2.35,2.35,0,0,0-.46,2.42Zm5.4-9.38c-.4.85-1,.92-1.22,2.15a8.44,8.44,0,0,0-1.59,2,22.8,22.8,0,0,0-9.3-.6c.1-1.5-1-1.77-1.43-2.5C109.6,166.39,114.45,166.42,118.56,164.86Zm-.63,4.82a.45.45,0,0,1-.61,0,.39.39,0,1,1,.61,0ZM105,168.61l1-.15a2.46,2.46,0,0,0-1.15-2.21A7,7,0,0,1,105,168.61Zm-1.78-2c0,1.13.77.83.85,2.17l.58-.16a6.26,6.26,0,0,0-.16-2.74l-1.27.73Zm-.82.41c.08,1.24-.57,1.25-.76,2.41l2.14-.57c0-1-.82-.88-.79-2.15l-.59.31Zm-.38.2c-.12,1.46-.62,1.6-.92,2.35-.27-.66,0-1.25-.29-1.83l1.21-.51Zm9.91,12.91c-.45-.29-.33-1.07-.24-1.83a1,1,0,0,1,.85.09l-.09.46c-.23.13-.41.55-.52,1.28Zm8.27-6.28a1.87,1.87,0,0,1,.14,1.19,3.93,3.93,0,0,0,1.5,1.44,2,2,0,0,0,1-1.56c-.33-.28-.49,1.23-1.48.51-.17-.29.49-1.09,1.09-1.22,0-1-.81-1.85-1.57-1.47,0,.64-.26,1.11-.67,1.11Zm-.74-.44a1.17,1.17,0,0,0-.95.3,1.13,1.13,0,0,0-.68-.57c.52-.37.48-1.94,1.72-1.3C120.55,172.39,119.39,172.94,119.46,173.43Zm-2.24.85c.27-.29.64.1.69.27a15.79,15.79,0,0,0-4.13,3.14,1.12,1.12,0,0,0-.74.05,4.94,4.94,0,0,1-.2-2.32c.16-.84.34-.89,1.24-1.06,1.34-.26,3,1,3.14-.08Zm4.48,1c.35.36.75-.56.76-.71C122.32,174.56,121.53,174.73,121.7,175.26Zm-1,2.26-2,1.85a2.3,2.3,0,0,1-1.4,1.82A2.68,2.68,0,0,1,115.6,180c.77-.68,1.73,1.54,2.61-1.1-.25.09-.37.44-.64.26-.3-.79-1.15-.15-1.59,0,.07.77-.41.47-.62.71l-.86-.72a.77.77,0,0,0,.07-.53,24.94,24.94,0,0,1,4.33-3,6,6,0,0,0,1.78,1.89Zm-3.55,2.36c-.38-.11-.82.1-.94-.54a1.17,1.17,0,0,1,.46-.23c0,.54.26.57.48.77Zm-1.32,6.33c-1.09-1.33-3.15-2.06-1.58-3.74-.14-.14-.55.08-.63-.07a2.38,2.38,0,0,1-.1-2.55,5,5,0,0,0,2.47,2.32,2.47,2.47,0,0,1-1.21.84c-.5.36,1.13,1.84,1,3.2Zm.77-2.23a4.12,4.12,0,0,0,.82-.6,5,5,0,0,1,1.17,2.94A12.45,12.45,0,0,0,116.58,184Zm-.53,2.21a6.27,6.27,0,0,0-1.15-2.7c0-.3.24-.42.51-.21A2.13,2.13,0,0,1,116.05,186.19Zm4.24-2.5c-.83-4-3.18.29-4.16.11l-.79-.84c1.47-.78,1.94-.55,3.14-1.28S121.35,182,120.29,183.69Zm.06-2.91c-.41.53-1.39.2-3,1.06.37-.61,1.25-.88,1.5-1.42.75,0,.94.43,1.5.36ZM85.19,147.43c-3.76-.7-3.29-3.63-1.91-6.17.82-1.53,2.23-2.62,2.68-3.75a4.27,4.27,0,0,1,2.92.52c-.35.78-1.29,1.1-1.93,1.66C83.43,143,83.77,146,85.19,147.43Zm1.55-12c.2-.4,1.47-1.68.52-1.72a5.42,5.42,0,0,0-4.44,2c-.07.17.17.47.39.34a10.12,10.12,0,0,1,3.53-.62Zm-.52,1.64a3.6,3.6,0,0,1,3,.77,4,4,0,0,1,1.17-1.25,6.63,6.63,0,0,0-3.75-.38Zm1.48-3.39c-1.27-.81-3.66.23-4.87,1.61l-.09-.53a5.94,5.94,0,0,1,4.91-1.69l0,.61Zm2.74,2.58a10,10,0,0,0-3.39-.55c0-.25.14-.43.47-.48a4.83,4.83,0,0,1,2.81.26c.38.44.47.73.11.77Zm26.09,48.93a2.39,2.39,0,0,0-.08-1.08l1.14,1.4a2.34,2.34,0,0,0-1.06-.32"/><rect class="cls-21" x="39.24" y="196.7" width="2.81" height="28.94" transform="translate(81.29 422.34) rotate(180)"/><rect class="cls-21" x="152.09" y="196.7" width="2.81" height="28.94" transform="translate(306.98 422.34) rotate(180)"/><path class="cls-21" d="M81.35,99.63c-12.64,0-22.88,10.17-22.88,30.51,0,25.43,18.21,50.86,40.68,50.86s40.69-25.43,40.69-50.86c0-20.34-10.24-30.51-22.88-30.51a22.89,22.89,0,0,0-17.81,8.5,22.86,22.86,0,0,0-17.8-8.5Zm0,0"/><rect class="cls-21" x="26.33" y="112.84" width="145.64" height="54.95" rx="5.46"/><text class="cls-22" transform="translate(62 135.07)">Hrodna</text><text class="cls-22" transform="translate(63.45 162.26)">Słupsk</text><path class="cls-21" d="M150.61,0l29,0h16l0,16c0,7,0,14,0,21A29.09,29.09,0,0,1,150.61,0Z"/><text class="cls-23" transform="translate(159.67 31.75)"><tspan class="cls-24">4</tspan><tspan x="9.55" y="0">1</tspan></text></svg>