<?xml version="1.0" encoding="utf-8"?>
<!-- Generator: Adobe Illustrator 26.0.1, SVG Export Plug-In . SVG Version: 6.00 Build 0)  -->
<svg version="1.1" id="Слой_1" xmlns="http://www.w3.org/2000/svg" xmlns:xlink="http://www.w3.org/1999/xlink" x="0px" y="0px"
	 viewBox="0 0 195.6 280.6" style="enable-background:new 0 0 195.6 280.6;" xml:space="preserve">
<style type="text/css">
	.st0{fill:none;}
	.st1{fill:#10A651;stroke:#010101;stroke-linecap:round;stroke-linejoin:round;}
	.st2{fill:#1986C8;stroke:#010101;stroke-width:2;stroke-linecap:round;stroke-linejoin:round;}
	.st3{fill:#E8E7E7;}
	.st4{fill:#E8E7E7;stroke:#010101;stroke-linecap:round;}
	.st5{fill:#E8E7E7;stroke:#010101;stroke-linecap:square;}
	.st6{clip-path:url(#SVGID_00000018216169049073113690000012651821307744374177_);fill:#E94539;}
	.st7{clip-path:url(#SVGID_00000062165437901491411530000013665705702481374620_);}
	.st8{fill-rule:evenodd;clip-rule:evenodd;fill:#424242;}
	.st9{fill-rule:evenodd;clip-rule:evenodd;fill:#DC2D28;}
	.st10{fill-rule:evenodd;clip-rule:evenodd;fill:#FFFFFF;}
	.st11{fill-rule:evenodd;clip-rule:evenodd;fill:#F3B303;}
	
		.st12{clip-path:url(#SVGID_00000060711421472383639140000005027507234907627959_);fill:url(#SVGID_00000013157707758463651040000008908167225640143269_);stroke:#424242;stroke-width:0.75;stroke-linecap:round;stroke-linejoin:round;}
	
		.st13{clip-path:url(#SVGID_00000165913245261601374000000013905959071971056556_);fill:url(#SVGID_00000078006387151514020740000003049007439646851972_);stroke:#424242;stroke-width:0.75;stroke-linecap:round;stroke-linejoin:round;}
	
		.st14{clip-path:url(#SVGID_00000072244063137023766080000012426941244068026042_);fill:#E8E7E7;stroke:#424242;stroke-width:0.75;stroke-linecap:round;stroke-linejoin:round;}
	
		.st15{clip-path:url(#SVGID_00000047062268222930061030000003308679617579760047_);fill:#E8E7E7;stroke:#424242;stroke-width:0.75;stroke-linecap:round;stroke-linejoin:round;}
	
		.st16{clip-path:url(#SVGID_00000047023060722738259300000010804890251086388871_);fill:#E8E7E7;stroke:#424242;stroke-width:0.75;stroke-linecap:round;stroke-linejoin:round;}
	.st17{clip-path:url(#SVGID_00000178914753056053546930000013271303479831387310_);}
	
		.st18{fill:url(#SVGID_00000178192585481472299240000007344771587481489549_);stroke:#424242;stroke-width:0.75;stroke-linecap:round;stroke-linejoin:round;}
	
		.st19{fill:url(#SVGID_00000037660956267080143310000013283601207922209685_);stroke:#424242;stroke-width:0.75;stroke-linecap:round;stroke-linejoin:round;}
	.st20{fill:#E8E7E7;stroke:#424242;stroke-width:0.75;stroke-linecap:round;stroke-linejoin:round;}
	.st21{fill:none;stroke:#424242;stroke-width:0.75;stroke-linecap:round;stroke-linejoin:round;}
	.st22{clip-path:url(#SVGID_00000077300438518639979800000009060016928320961207_);}
	
		.st23{fill:url(#SVGID_00000019639099578185236350000015127375513869130642_);stroke:#424242;stroke-width:0.75;stroke-linecap:round;stroke-linejoin:round;}
	
		.st24{fill:url(#SVGID_00000009563033384175324220000004128188598230340251_);stroke:#424242;stroke-width:0.75;stroke-linecap:round;stroke-linejoin:round;}
	
		.st25{clip-path:url(#SVGID_00000064355711371567548170000014102834366794039736_);fill:#E8E7E7;stroke:#424242;stroke-width:0.75;stroke-linecap:round;stroke-linejoin:round;}
	
		.st26{clip-path:url(#SVGID_00000086649678666585812130000017693391993798263951_);fill:none;stroke:#424242;stroke-width:0.75;stroke-linecap:round;stroke-linejoin:round;}
	
		.st27{clip-path:url(#SVGID_00000148639323082596762360000017136043259720692645_);fill:#E8E7E7;stroke:#424242;stroke-width:0.75;stroke-linecap:round;stroke-linejoin:round;}
	
		.st28{clip-path:url(#SVGID_00000171711733867362672980000005914955593205850783_);fill:#E94539;stroke:#424242;stroke-width:0.75;stroke-linecap:round;stroke-linejoin:round;}
	.st29{clip-path:url(#SVGID_00000023967305990616878480000007238361522967765170_);}
	.st30{fill:#EFEFEF;stroke:#424242;stroke-width:0.25;stroke-miterlimit:10;}
	.st31{fill:none;stroke:#424242;stroke-width:0.25;stroke-miterlimit:10;}
	
		.st32{clip-path:url(#SVGID_00000016061896467480424120000014289227040732966572_);fill:#E8E7E7;stroke:#424242;stroke-width:0.5;stroke-linecap:round;stroke-linejoin:round;}
	
		.st33{clip-path:url(#SVGID_00000031197965233286818440000001515728799694833821_);fill:#E8E7E7;stroke:#424242;stroke-width:0.5;stroke-linecap:round;stroke-linejoin:round;}
	.st34{clip-path:url(#SVGID_00000008834918732351303680000004242387794580801711_);}
	.st35{fill:#E8E7E7;stroke:#424242;stroke-width:0.5;stroke-linecap:round;stroke-linejoin:round;}
	.st36{clip-path:url(#SVGID_00000065791407601582995080000011357636388458510225_);}
	
		.st37{clip-path:url(#SVGID_00000129893024983735490650000013117300192760845756_);fill:#E8E7E7;stroke:#424242;stroke-width:0.5;stroke-linecap:round;stroke-linejoin:round;}
	
		.st38{clip-path:url(#SVGID_00000127726823099842990010000013178465060913225389_);fill:#E8E7E7;stroke:#424242;stroke-width:0.75;stroke-linecap:round;stroke-linejoin:round;}
	
		.st39{clip-path:url(#SVGID_00000152967011596770198830000014857043684722296490_);fill:#E8E7E7;stroke:#424242;stroke-width:0.75;stroke-linecap:round;stroke-linejoin:round;}
	
		.st40{clip-path:url(#SVGID_00000154413603762038260910000016048176396442258321_);fill:#E8E7E7;stroke:#424242;stroke-width:0.75;stroke-linecap:round;stroke-linejoin:round;}
	
		.st41{clip-path:url(#SVGID_00000044866690703810072200000016777061832986565257_);fill:none;stroke:#424242;stroke-width:0.25;stroke-miterlimit:10;}
	
		.st42{clip-path:url(#SVGID_00000163069799691266853220000012217709529048135063_);fill:#E8E7E7;stroke:#424242;stroke-width:0.75;stroke-linecap:round;stroke-linejoin:round;}
	.st43{clip-path:url(#SVGID_00000180355074832794014930000005928776550552387479_);fill:#FFFFFF;}
	.st44{clip-path:url(#SVGID_00000170242001093629521750000007719806233233240497_);fill:#FFFFFF;}
	.st45{clip-path:url(#SVGID_00000000921063471891075730000005303102370412978320_);fill:#FFFFFF;}
	.st46{enable-background:new    ;}
	.st47{fill:#E94539;}
</style>
<pattern  y="280.6" width="302" height="362" patternUnits="userSpaceOnUse" id="SVGID_0000000957479228503910346" viewBox="1 -363 302 362" style="overflow:visible;">
	<g>
		<rect x="1" y="-363" class="st0" width="302" height="362"/>
		<g>
			<rect x="1" y="-363" class="st0" width="302" height="362"/>
			<rect x="1" y="-363" class="st0" width="302" height="362"/>
			<path class="st1" d="M1-306h302v-60H1"/>
			<path class="st2" d="M1-1h302v-305H1"/>
		</g>
	</g>
</pattern>
<pattern  y="280.6" width="28" height="30" patternUnits="userSpaceOnUse" id="SVGID_0000009818119374933070225" viewBox="0 -30 28 30" style="overflow:visible;">
	<g>
		<rect y="-30" class="st0" width="28" height="30"/>
		<g>
			<rect y="-30" class="st0" width="28" height="30"/>
			<rect y="-30" class="st0" width="28" height="30"/>
			<path class="st3" d="M0,0h30v-30H0"/>
			<path class="st4" d="M14.5-15.5v-15 M0.5-0.5h28v-15h-28V-0.5z"/>
		</g>
	</g>
</pattern>
<pattern  y="280.6" width="28" height="30" patternUnits="userSpaceOnUse" id="SVGID_0000012126093046714752459" viewBox="0 -30 28 30" style="overflow:visible;">
	<g>
		<rect y="-30" class="st0" width="28" height="30"/>
		<g>
			<rect y="-30" class="st0" width="28" height="30"/>
			<rect y="-30" class="st0" width="28" height="30"/>
			<path class="st3" d="M0,0h30v-30H0"/>
			<path class="st4" d="M14.5-15.5v-15 M0.5-0.5h28v-15h-28V-0.5z"/>
		</g>
	</g>
</pattern>
<pattern  y="280.6" width="28" height="30" patternUnits="userSpaceOnUse" id="SVGID_0000012271650135543691862" viewBox="0 -30 28 30" style="overflow:visible;">
	<g>
		<rect y="-30" class="st0" width="28" height="30"/>
		<g>
			<rect y="-30" class="st0" width="28" height="30"/>
			<rect y="-30" class="st0" width="28" height="30"/>
			<path class="st3" d="M0,0h30v-30H0"/>
			<path class="st4" d="M14.5-15.5v-15 M0.5-0.5h28v-15h-28V-0.5z"/>
		</g>
	</g>
</pattern>
<pattern  y="280.6" width="15" height="15" patternUnits="userSpaceOnUse" id="SVGID_0000015367229422056546709" viewBox="0.5 -15.5 15 15" style="overflow:visible;">
	<g>
		<rect x="0.5" y="-15.5" class="st0" width="15" height="15"/>
		<g>
			<rect x="0.5" y="-15.5" class="st0" width="15" height="15"/>
			<rect x="0.5" y="-15.5" class="st0" width="15" height="15"/>
			<rect x="0.5" y="-15.5" class="st5" width="15" height="15"/>
		</g>
	</g>
</pattern>
<pattern  y="280.6" width="15" height="15" patternUnits="userSpaceOnUse" id="SVGID_0000017311992892137992354" viewBox="0.5 -15.5 15 15" style="overflow:visible;">
	<g>
		<rect x="0.5" y="-15.5" class="st0" width="15" height="15"/>
		<g>
			<rect x="0.5" y="-15.5" class="st0" width="15" height="15"/>
			<rect x="0.5" y="-15.5" class="st0" width="15" height="15"/>
			<rect x="0.5" y="-15.5" class="st5" width="15" height="15"/>
		</g>
	</g>
</pattern>
<g>
	<g>
		<defs>
			<rect id="SVGID_1_" width="195.6" height="280.6"/>
		</defs>
		<clipPath id="SVGID_00000156554678328166879870000011172509943029772700_">
			<use xlink:href="#SVGID_1_"  style="overflow:visible;"/>
		</clipPath>
		
			<rect x="-6.6" y="-8.4" style="clip-path:url(#SVGID_00000156554678328166879870000011172509943029772700_);fill:#E94539;" width="214" height="297.9"/>
	</g>
	<g>
		<defs>
			<rect id="SVGID_00000182500353062567092730000007305145539832285066_" width="195.6" height="280.6"/>
		</defs>
		<clipPath id="SVGID_00000024000902358404189420000004928074331119519898_">
			<use xlink:href="#SVGID_00000182500353062567092730000007305145539832285066_"  style="overflow:visible;"/>
		</clipPath>
		<g id="Warstwa_1" style="clip-path:url(#SVGID_00000024000902358404189420000004928074331119519898_);">
			<g id="_52208184">
				<path id="_52208472" class="st8" d="M46.8,267.9V146.1c0-10.5,4.8-16.3,16.2-16.3h21c6.1,0,10.6-3,13.9-8c3.3,5,7.7,8,13.9,8h21
					c11.4,0,16.2,5.8,16.2,16.3v121.8L46.8,267.9L46.8,267.9z"/>
				<path id="_52208400" class="st9" d="M148,197v70.1H47.6V197h2.9v-5.9h1.8v37.2H51v7h3.8v-3.7h0.8v3.7h3.8v-3.7h0.8v3.7H64v-3.7
					h0.8v3.7h3.8v-3.7h0.8v3.7h3.8v-7h-1.3V197H76v-5.9h5.4v5.9h2.1v37.6h-1.3v7H86v-3.7h0.8v3.7h3.8v-3.7h0.8v3.7h3.8v-3.7H96v3.7
					h3.7v-3.7h0.8v3.7h3.8v-3.7h0.8v3.7h3.8v-3.7h0.8v3.7h3.8v-7h-1.3V197h1.9v-5.9h5.4v5.9h4.3v31.3h-1.3v7h3.8v-3.7h0.8v3.7h3.8
					v-3.7h0.8v3.7h3.8v-3.7h0.8v3.7h3.8v-3.7h0.8v3.7h3.8v-7h-1.3v-37.2h1.6v5.9H148z M113.3,242.2l5.1,6.1
					c-4.8,6.4-11.6,11.9-20.6,16.4c-9-4.5-15.9-9.9-20.6-16.4l5.1-6.1L113.3,242.2z"/>
				<path id="_52208328" class="st10" d="M96.7,240.8V237h-2.4v3.7h-2.2V237h-2.4v3.7h-2.2V237h-2.4v3.7h-2.2v-5.4h29.7v5.4h-2.2
					V237H108v3.7h-2.2V237h-2.4v3.7h-2.2V237h-2.4v3.7h-2.1V240.8z M101.7,210.2v5h-0.4v-5H101.7z M94.4,215.2h-0.6v-5h0.6V215.2z
					 M101.7,222.6v5h-8v-5H101.7z M101.7,197.9v5h-7.9v-5H101.7z M135,186v-5h-11.9v5H135z M60.7,186v-5h11.8v5H60.7z M135,149v-5
					h-11.9v5H135z M60.7,149v-5h11.8v5H60.7z M110,186v-5h11.8v5H110z M85.5,186v-5H73.7v5H85.5z M118.7,144h3.2v5h-4.1v-4.2h1
					L118.7,144L118.7,144z M76.8,144h-3.1v5h4.1v-4.2h-1V144L76.8,144z M117.3,168.6h4.6v5h-6.2C116.5,172.1,117,170.4,117.3,168.6
					L117.3,168.6z M78.2,168.6h-4.5v5h6.2C79.1,172.1,78.6,170.4,78.2,168.6L78.2,168.6z M117.7,131.6h4.1v5h-4.1V131.6z
					 M77.8,131.6h-4.1v5h4.1V131.6z M117.7,156.3h4.1v5h-4.1V156.3z M77.8,156.3h-4.1v5h4.1V156.3z M148,156.3v5h-11.8v-5H148z
					 M47.5,156.3v5h11.9v-5H47.5z M148,181.1v5h-11.8v-5H148z M47.6,181.1v5h11.9v-5H47.6z M148,146.5v2.5h-11.8v-5h11.7
					C148,144.8,148,145.6,148,146.5L148,146.5z M47.6,146.5v2.5h11.9v-5H47.7C47.6,144.9,47.6,145.7,47.6,146.5L47.6,146.5z
					 M148,168.7v5h-11.8v-5H148z M47.6,168.7v5h11.9v-5H47.6z M145.8,136.7h-9.6v-5h3.6C142.3,132.6,144.4,134.4,145.8,136.7
					L145.8,136.7z M49.8,136.7h9.6v-5h-3.6C53.3,132.6,51.1,134.4,49.8,136.7L49.8,136.7z M135,156.4h-11.9v5H135V156.4z
					 M60.7,156.4h11.8v5H60.6L60.7,156.4z M135,173.7v-1.4c-0.4,0.7-1,1.2-1.7,1.4H135z M128.4,168.7h-5.3v5h7.3
					c-1.3-0.4-2.1-1.6-2.1-2.9L128.4,168.7L128.4,168.7z M60.7,173.7v-1.4c0.1,0.5,0.4,1,0.8,1.4H60.7z M67.5,168.7h5v5h-6
					c0.6-0.6,0.9-1.4,0.9-2.3L67.5,168.7z M135,136.7v-5h-11.9v5H135z M60.7,136.7v-5h11.8v5H60.7z M108.9,181.2v4.8h-8.7v-1.9
					C103.2,183.8,106.2,182.8,108.9,181.2L108.9,181.2z M86.9,181.2v4.8h8.7v-1.9C92.5,183.8,89.5,182.8,86.9,181.2L86.9,181.2z
					 M115.1,174.9h0.3v5h-4.6C112.5,178.5,114,176.8,115.1,174.9L115.1,174.9z M116.7,179.9v-5h11.9v5H116.7z M141.6,179.9v-5h-11.9
					v5H141.6z M148.1,179.9h-5.3v-5h5.2L148.1,179.9z M80.6,174.9h-0.3v5h4.5C83.1,178.5,81.6,176.8,80.6,174.9L80.6,174.9z
					 M79.1,179.9v-5H67.2v5H79.1z M54.1,179.9v-5h11.8v5H54.1z M47.6,179.9h5.3v-5h-5.4L47.6,179.9z M117.8,137.9h10.7v5h-9.7v-2.6
					h-1V137.9L117.8,137.9z M141.6,142.9v-5h-11.9v5H141.6z M147.8,142.9h-5.1v-5h3.7C147.2,139.5,147.6,141.2,147.8,142.9
					L147.8,142.9z M77.9,137.9H67.2v5h9.7v-2.6h1L77.9,137.9L77.9,137.9z M54.1,142.9v-5h11.8v5H54.1z M47.9,142.9h5v-5h-3.7
					C48.5,139.5,48,141.1,47.9,142.9L47.9,142.9z M118.8,162.6h9.7v5h-10.9c0-0.4,0.1-0.8,0.1-1.1h1.1L118.8,162.6L118.8,162.6z
					 M141.6,167.6v-5h-6.2v5H141.6z M148.1,167.6h-5.2v-5h5.2V167.6z M76.9,162.6h-9.5v5H78c0-0.4-0.1-0.8-0.1-1.1h-1.1L76.9,162.6
					L76.9,162.6z M54,167.5v-5h6.5v5H54z M47.5,167.5h5.2v-5h-5.2V167.5z M117.7,150.2h10.8v5h-10.8V150.2z M141.6,155.2v-5h-11.8v5
					H141.6z M148,155.2h-5.2v-5h5.2V155.2z M77.8,150.2H67.1v5h10.8L77.8,150.2z M54,155.2v-5h11.9v5H54z M47.5,155.2h5.2v-5h-5.2
					V155.2z M145.7,196.2v-5.9h-7.2v5.9h-5.4v-5.9h-7.3v5.9h-5.4v-5.9h-7.3v5.9h-5.4v-5.9h-7.3v5.9H95v-5.9h-7.3v5.9h-5.4v-5.9H75
					v5.9h-5.5v-5.9h-7.3v5.9h-5.4v-5.9h-7.3v5.9h-1.9v-8.9H148v8.9H145.7z M142.5,196.6h-3v-5.5h3V196.6z M53,196.6h3v-5.5h-3V196.6
					z M111.3,197.9v5H103v-5H111.3z M84.2,197.9v5h8.4v-5H84.2z M126.7,196.6v-5.5h5.4v5.5H126.7z M68.8,196.6v-5.5h-5.4v5.5H68.8z
					 M101.3,196.7h5.4v-5.6h-5.4V196.7z M94,196.7h-5.4v-5.6H94V196.7z M141.7,230.8h-2.4v3.7h-2.2v-3.7h-2.4v3.7h-2.2v-3.7H130v3.7
					h-2.2v-3.7h-2.4v3.7h-2.2v-5.4h20.6v5.4h-2.2L141.7,230.8L141.7,230.8z M53.9,230.8h2.4v3.7h2.2v-3.7h2.4v3.7h2.2v-3.7h2.4v3.7
					h2.2v-3.7h2.4v3.7h2.2v-5.4H51.7v5.4h2.2V230.8z M137.5,215.2v-5h-8v5H137.5z M58,215.2v-5h8v5H58z M106.3,221.4v-5h-5v2.8
					c0,0.8-0.2,1.5-0.7,2.2H106.3z M89.2,221.4v-5h5.2v2.8c0,0.8,0.2,1.5,0.7,2.2H89.2z M137.5,197.8h-8v5h8V197.8z M58,197.8h8v5
					h-8V197.8z M106.3,204.1h-8v5h8V204.1z M89.2,204.1h8v5h-8V204.1z M142.5,222.6v5h-3.7v-5H142.5z M53,222.6v5h3.7v-5H53z
					 M111.3,228.8v5h-3.7v-5H111.3z M84.2,228.8v5H88v-5H84.2z M142.5,216.4v5h-8.3v-5H142.5z M53,216.4v5h8.3v-5H53z M111.3,222.6
					v5H103v-5H111.3z M84.2,222.6v5h8.4v-5H84.2z M142.5,210.2v5h-3.7v-5H142.5z M53,210.2v5h3.7v-5H53z M111.3,216.5v5h-3.7v-5
					H111.3z M84.2,216.5v5H88v-5H84.2z M142.5,204v5h-8.3v-5H142.5z M53.1,204v5h8.3v-5H53.1z M111.3,210.2v5H103v-5H111.3z
					 M84.3,210.2v5h8.3v-5H84.3z M142.5,197.8v5h-3.7v-5H142.5z M53.1,197.8v5h3.7v-5H53.1z M111.3,204.1v5h-3.7v-5H111.3z
					 M84.3,204.1v5H88v-5H84.3z M124.6,202.8v-5h3.7v5H124.6z M71,202.8v-5h-3.7v5H71z M124.6,209v-5h8.4v5H124.6z M71,209v-5h-8.4
					v5H71z M124.7,215.2v-5h3.7v5H124.7z M71,215.2v-5h-3.7v5H71z M124.7,221.4v-5h8.3v5H124.7z M71,221.4v-5h-8.4v5H71z
					 M124.7,227.5v-5h3.7v5H124.7z M71,227.5v-5h-3.7v5H71z M137.6,227.5v-5h-8v5H137.6z M58.1,227.5v-5h8v5H58.1z M106.4,233.8v-5
					h-8v5H106.4z M89.3,233.8v-5h8v5H89.3z"/>
				<path id="_52208256" class="st11" d="M98.8,252.6v1.8h1.7v2.1h-1.7v1.8h-2.2v-1.8h-1.7v-2.1h1.7v-1.8L98.8,252.6z M105.9,257.2
					v-12.6h6.5l3.2,3.7C112.7,251.6,109.5,254.6,105.9,257.2z M89.7,257.2v-12.6h-6.5l-3.2,3.7C82.9,251.6,86.1,254.6,89.7,257.2z
					 M101.4,257.3h-1.7v1.7h-3.8v-1.7h-1.8v-3.8h1.8v-1.7h3.8v1.7h1.7V257.3L101.4,257.3z M103.2,244.6v14.1
					c-1.7,1.3-3.5,2.4-5.4,3.2c-1.9-0.8-3.8-1.9-5.4-3.2v-14.1H103.2z M82.7,242.9l-4.6,5.5c5.3,6.5,12,11.8,19.7,15.4
					c7.6-3.6,14.3-8.9,19.7-15.4l-4.6-5.5H82.7z M90.5,258.8v-15h-7.6l-3.8,4.5C82.4,252.3,86.3,255.8,90.5,258.8L90.5,258.8z
					 M91.4,243.8v15.5c2,1.4,4.1,2.7,6.4,3.6c2.3-1,4.4-2.2,6.4-3.6v-15.4L91.4,243.8z M105.1,258.8v-15h7.6l3.8,4.5
					C113.2,252.3,109.3,255.8,105.1,258.8z M117.9,144h-3.7v-2.8h3.7V144z M77.7,144h3.7v-2.8h-3.7V144z M117.9,165.6h-3.7v-2.9h3.7
					V165.6z M77.7,165.6h3.7v-2.9h-3.7V165.6z M114.2,130.6v9.8h2.8v-9.8H114.2z M100.2,183.3c8.1-0.9,15.7-6.5,16.7-16.9H114
					c-1.3,8.5-7.3,13.2-13.8,14.1C100.2,180.5,100.2,183.3,100.2,183.3z M117,161.9v-17.1h-2.8v17.1H117z M81.4,130.6v9.8h-2.8v-9.8
					H81.4z M95.4,183.3c-8.1-0.9-15.7-6.5-16.7-16.9h2.9c1.3,8.5,7.3,13.2,13.8,14.1V183.3L95.4,183.3z M78.6,161.9v-17.1h2.8v17.1
					H78.6z M99.2,184.9h-2.8V180h2.9L99.2,184.9z M113.3,130.5v10.8h-0.7l-5.1-4.7l-1.4,1.5l2.9,3.2h-2.4l-3-3.1l-1.6,1.4l1.3,1.7
					h-3.8v-16.2c3.2,3.5,7.8,5.5,12.5,5.3L113.3,130.5z M113.3,144.2v18.2c0,0.1,0,0.2,0,0.3h-0.7l-5.1-4.7l-1.4,1.5l2.9,3.2h-2.4
					l-3-3.1L102,161l1.3,1.7h-3.8v-18.5h3.9L102,146l1.7,1.4l3-3.1h2.4l-3,3.3l1.4,1.5l5.2-4.8L113.3,144.2z M113.1,165.5
					c-1.1,8.5-6.8,13.2-13,14.1v-0.5h-0.6v-13.6h3.9l-1.4,1.8l1.7,1.3l3-3.1h2.4l-3,3.3l1.4,1.5l5.2-4.8H113.1z M82.2,130.5v10.8
					h0.7l5.1-4.6l1.4,1.5l-2.9,3.2h2.4l3-3.1l1.7,1.4l-1.3,1.7h3.8v-16.2c-3.2,3.5-7.8,5.5-12.5,5.3L82.2,130.5z M82.2,144.1v18.3
					c0,0.1,0,0.2,0,0.3h0.7L88,158l1.4,1.5l-2.9,3.2h2.4l3-3.1l1.7,1.4l-1.3,1.7h3.8v-18.5h-3.9l1.4,1.8l-1.7,1.4l-3.1-3.1h-2.4
					l3,3.3L88,149l-5.2-4.8L82.2,144.1z M82.4,165.5c1.1,8.5,6.8,13.2,13,14.1v-0.5H96v-13.6h-3.8l1.4,1.8l-1.7,1.3l-3.1-3.1h-2.4
					l3,3.3l-1.5,1.5l-5.2-4.8H82.4z M99.4,163.5h5.2l-1.9-2.4l0.8-0.6l2.9,3h4.1l-3.5-3.9l0.6-0.7l5.1,4.6h0.6c0,0.4,0,0.8-0.1,1.2
					h-0.4l-5.2,4.7l-0.6-0.7l3.7-4h-4.1l-2.9,3.1l-0.8-0.6l1.9-2.4h-5.3L99.4,163.5L99.4,163.5z M96,163.5h-5.2l1.9-2.4l-0.8-0.6
					l-2.9,3h-4l3.6-3.9l-0.6-0.7l-5.1,4.6h-0.6c0,0.4,0,0.8,0.1,1.2h0.4l5.2,4.7l0.6-0.7l-3.7-4H89l3,3.1l0.8-0.6l-1.9-2.4h5.2
					L96,163.5L96,163.5z M99.4,142.1h5.2l-1.9-2.4l0.8-0.6l2.9,3h4.1l-3.5-3.9l0.6-0.7l5.1,4.6h0.6v1.2h-0.6l-5.2,4.7l-0.6-0.7
					l3.7-4h-4.1l-2.9,3.1l-0.8-0.6l1.9-2.4h-5.3L99.4,142.1L99.4,142.1z M96,142.1h-5.2l1.9-2.4l-0.8-0.6l-2.9,3h-4l3.6-3.9
					l-0.6-0.7l-5.1,4.6h-0.6v1.2h0.6l5.2,4.7l0.6-0.7l-3.7-4h4l3,3.1l0.8-0.6l-1.9-2.4h5.2L96,142.1L96,142.1z M96.8,124.1V179h1.8
					v-54.9c-0.3-0.4-0.6-0.8-0.9-1.3C97.4,123.4,97.1,123.8,96.8,124.1L96.8,124.1z"/>
				<path id="_52208112" class="st10" d="M57.1,131.3h2.8v5.8H49.6l-0.2,0.4h3.9v5.8h-5.5c0,0.1,0,0.3,0,0.4h12.1v5.8H47.6v0.4h5.6
					v5.7h-5.6v0.5h12.3v5.8H47.6v0.4h5.7v5.8h-5.7v0.4h12.3v5.8H47.6v0.4h5.7v5.8h-5.7v0.4h12.3v5.8H47.6v0.4H148v-0.4h-12.2v-5.8
					H148v-0.4h-5.7v-5.8h5.7v-0.4h-12.2v-5.8H148V168h-5.7v-5.8h5.7v-0.4h-12.2V156H148v-0.4h-5.6v-5.7h5.6v-0.4h-12.2v-5.8h12.1
					c0-0.1,0-0.3,0-0.4h-5.5v-5.8h3.9c-0.1-0.1-0.1-0.3-0.2-0.4h-10.3v-5.8h2.8c-0.6-0.2-1.2-0.3-1.8-0.4h-7.5v-0.4h-0.4v0.4h-11.1
					v0.4h4.5v5.8h-4.5v0.4h11.1v5.8h-10.1v0.4h3.6v5.8h-4.5v0.4h11.2v5.7h-11.2v0.5h4.5v5.8h-4.5v0.1h1v0.3H142v5.8h-6.6v0.4l0,0
					v5.8h-12.7v-5.8h5.7v-0.4h-10.9c0,0.1,0,0.3-0.1,0.4h4.9v5.8h-6.8l-0.2,0.4h0.4v5.8h-5.5c-0.2,0.1-0.4,0.3-0.6,0.4h12.6v5.8
					h-12.7V181l-0.4,0.3v5.5H86.4V181l-0.4-0.3v5.7H73.3v-5.8h12.6l-0.6-0.4h-5.5v-5.8h0.4L80,174h-6.8v-5.8h4.9
					c0-0.1,0-0.3-0.1-0.4H67.5v0.4h5.4v5.8H66c-0.3,0.2-0.6,0.3-0.9,0.4h1.2v5.8H53.6v-5.8h9.2c-0.3-0.1-0.6-0.2-0.9-0.4h-1.7v-5.8
					h0.3v-0.4h-6.9V162h23.2v-0.3h1v-0.1h-4.6V156h4.5v-0.4h-11v-5.7h11.2v-0.4h-4.5v-5.8H77v-0.4H66.7v-5.8h11.1v-0.4h-4.5v-5.8
					h4.5v-0.4H66.7v-0.4h-0.4v0.4h-7.5C58.3,131,57.7,131.1,57.1,131.3z M61.3,162.5v8.5c0,0.6,0.4,1,1,1s1-0.4,1-1v-8.5H61.3z
					 M129.1,162.5v8c0,1.2,2,1.2,2,0v-8H129.1z M53.6,149.8h12.7v5.7H53.6V149.8z M142,149.8h-12.7v5.7H142V149.8L142,149.8z
					 M129.3,180.3v-5.8H142v5.8H129.3z M128.8,174.5v5.8h-12.7v-5.8H128.8z M122.7,186.4h12.7v-5.8h-12.7V186.4z M135.3,161.7V156
					h-12.7v5.8L135.3,161.7z M66.7,174.5v5.8h12.7v-5.8H66.7z M72.9,186.4H60.2v-5.8h12.7V186.4z M60.2,161.7V156h12.7v5.8
					L60.2,161.7z M129.2,143.3v-5.8H142v5.8H129.2z M122.7,137.1h12.7v-5.8h-12.6L122.7,137.1z M122.7,149.4h12.7v-5.8h-12.6
					L122.7,149.4z M66.3,143.3v-5.8H53.6v5.8H66.3z M72.9,137.1H60.2v-5.8h12.7V137.1L72.9,137.1z M72.9,149.4H60.2v-5.8h12.7V149.4
					L72.9,149.4z M93.4,222.2v5.8h8.8v-5.8h-2.5c0.2-0.1,0.4-0.3,0.6-0.4h6.5V216h-5.4v-0.4h0.8v-5.8h-8.8v5.8h1v0.4h-5.6v5.8h6.7
					c0.2,0.2,0.4,0.3,0.6,0.4H93.4z M97.1,210.2v8.7c0,0.6-0.4,1-1,1s-1-0.4-1-1v-8.7H97.1z M84.3,197.1v0.4H93v5.8h-8.7v0.4h4.1
					v5.8h-4.1v0.4H93v5.8h-8.7v0.4h4.1v5.8h-4.1v0.4H93v5.8h-8.7v0.4h4.1v5.8h-4.1v0.4h27.1v-0.4h-4.1v-5.8h4.1V228h-8.8v-5.8h8.8
					v-0.4h-4.1V216h4.1v-0.4h-8.8v-5.8h8.8v-0.4h-4.1v-5.8h4.1v-0.4h-8.8v-5.8h8.7V197L84.3,197.1z M93.4,203.2v-5.8h8.7v5.8H93.4z
					 M88.8,209.4v-5.8h8.8v5.8H88.8z M97.6,234.1h-8.8v-5.8h8.8V234.1z M106.8,209.4v-5.8H98v5.8H106.8z M98,234.1h8.8v-5.8H98
					V234.1z M138,203.1v-5.7h-8.8v5.8L138,203.1z M128.8,197.4h-4.1V197h17.9v0.4h-4.1v5.8h4.1v0.4h-8.7v5.8h8.7v0.4h-4.1v5.8h4.1
					v0.4h-8.7v5.8h8.7v0.4h-4.1v5.8h4.1v0.4h-17.9V228h4.1v-5.8h-4.1v-0.4h8.7V216h-8.8v-0.4h4.1v-5.8h-4.1v-0.4h8.8v-5.8h-8.8v-0.4
					h4.1L128.8,197.4z M129.2,215.5h8.8v-5.8h-8.8V215.5z M129.2,227.9h8.8v-5.8h-8.8V227.9z M57.6,203.2v-5.8h8.8v5.8H57.6z
					 M66.8,197.4H71V197H53.1v0.4h4.1v5.8h-4.1v0.4h8.8v5.8h-8.8v0.4h4.1v5.8h-4.1v0.4h8.8v5.8h-8.8v0.4h4.1v5.8h-4.1v0.4H71V228
					h-4.2v-5.8H71v-0.4h-8.8V216H71v-0.4h-4.2v-5.8H71v-0.4h-8.8v-5.8H71v-0.4h-4.2V197.4z M66.4,215.5h-8.8v-5.8h8.8V215.5z
					 M66.4,227.9h-8.8v-5.8h8.8V227.9z"/>
			</g>
		</g>
	</g>
	<g>
		<defs>
			<rect id="SVGID_00000083089624679680334430000000325174270019687074_" width="195.6" height="280.6"/>
		</defs>
		<clipPath id="SVGID_00000064356017215036381260000010732269319583891890_">
			<use xlink:href="#SVGID_00000083089624679680334430000000325174270019687074_"  style="overflow:visible;"/>
		</clipPath>
		
			<pattern  id="SVGID_00000059280940731506668980000016409001631296754564_" xlink:href="#SVGID_0000000957479228503910346" patternTransform="matrix(0.33 0 0 0.33 -10529.5996 4668.168)">
		</pattern>
		
			<path style="clip-path:url(#SVGID_00000064356017215036381260000010732269319583891890_);fill:url(#SVGID_00000059280940731506668980000016409001631296754564_);stroke:#424242;stroke-width:0.75;stroke-linecap:round;stroke-linejoin:round;" d="
			M97.8,131c24.3-19.7,50-6.7,50-59.9c-8.3-8.3-8.3-16.7,0-25V21.7c-15.7-7.2-32.7-10.9-50-10.6 M97.8,131
			c-24.3-19.7-50-6.7-50-59.9c8.3-8.3,8.3-16.7,0-25V21.7c15.7-7.2,32.7-10.9,50-10.6"/>
	</g>
	<g>
		<defs>
			<rect id="SVGID_00000044875425978584124780000002121522558446577032_" width="195.6" height="280.6"/>
		</defs>
		<clipPath id="SVGID_00000003103362809053874930000016033253907310173885_">
			<use xlink:href="#SVGID_00000044875425978584124780000002121522558446577032_"  style="overflow:visible;"/>
		</clipPath>
		
			<pattern  id="SVGID_00000004532951876497572260000010265875106040215222_" xlink:href="#SVGID_0000009818119374933070225" patternTransform="matrix(0.33 0 0 -0.33 -10802.7305 -5674.8569)">
		</pattern>
		
			<path style="clip-path:url(#SVGID_00000003103362809053874930000016033253907310173885_);fill:url(#SVGID_00000004532951876497572260000010265875106040215222_);stroke:#424242;stroke-width:0.75;stroke-linecap:round;stroke-linejoin:round;" d="
			M109.4,73.3l-11.7-3l-11.7,3v-18h23.3L109.4,73.3L109.4,73.3z"/>
	</g>
	<g>
		<defs>
			<rect id="SVGID_00000052091053616396432840000002472978325265693111_" width="195.6" height="280.6"/>
		</defs>
		<clipPath id="SVGID_00000039840633239006989780000015067231964632680835_">
			<use xlink:href="#SVGID_00000052091053616396432840000002472978325265693111_"  style="overflow:visible;"/>
		</clipPath>
		
			<path style="clip-path:url(#SVGID_00000039840633239006989780000015067231964632680835_);fill:#E8E7E7;stroke:#424242;stroke-width:0.75;stroke-linecap:round;stroke-linejoin:round;" d="
			M106.1,28l-8.3-12l-8.3,12"/>
	</g>
	<g>
		<defs>
			<rect id="SVGID_00000081607085758241137370000005718937738366439597_" width="195.6" height="280.6"/>
		</defs>
		<clipPath id="SVGID_00000042733091669449830250000009740308649697259664_">
			<use xlink:href="#SVGID_00000081607085758241137370000005718937738366439597_"  style="overflow:visible;"/>
		</clipPath>
		
			<path style="clip-path:url(#SVGID_00000042733091669449830250000009740308649697259664_);fill:#E8E7E7;stroke:#424242;stroke-width:0.75;stroke-linecap:round;stroke-linejoin:round;" d="
			M102.8,29.1l-5-7.3l-5,7.3 M102.8,26.7l-5-7.3l-5,7.3"/>
	</g>
	<g>
		<defs>
			<rect id="SVGID_00000100369521879568428350000018121108720003693738_" width="195.6" height="280.6"/>
		</defs>
		<clipPath id="SVGID_00000139976278562335047690000005164605508567825811_">
			<use xlink:href="#SVGID_00000100369521879568428350000018121108720003693738_"  style="overflow:visible;"/>
		</clipPath>
		
			<circle style="clip-path:url(#SVGID_00000139976278562335047690000005164605508567825811_);fill:#E8E7E7;stroke:#424242;stroke-width:0.75;stroke-linecap:round;stroke-linejoin:round;" cx="97.8" cy="16.1" r="2.3"/>
	</g>
	<g>
		<defs>
			<rect id="SVGID_00000100375058296614328270000005191303190004943022_" width="195.6" height="280.6"/>
		</defs>
		<clipPath id="SVGID_00000136405141617569451420000015008509009436867737_">
			<use xlink:href="#SVGID_00000100375058296614328270000005191303190004943022_"  style="overflow:visible;"/>
		</clipPath>
		<g id="h" style="clip-path:url(#SVGID_00000136405141617569451420000015008509009436867737_);">
			
				<pattern  id="SVGID_00000001661768878844516280000008242585164667335555_" xlink:href="#SVGID_0000012126093046714752459" patternTransform="matrix(0.33 0 0 -0.33 -10803.7305 -5674.8569)">
			</pattern>
			
				<path style="fill:url(#SVGID_00000001661768878844516280000008242585164667335555_);stroke:#424242;stroke-width:0.75;stroke-linecap:round;stroke-linejoin:round;" d="
				M61.8,50.7h18.7v61.6H61.8V50.7z"/>
			
				<pattern  id="SVGID_00000092456248241693821360000004335108271393440665_" xlink:href="#SVGID_0000015367229422056546709" patternTransform="matrix(0.24 -0.24 -0.24 -0.24 -12300.6348 -4137.1553)">
			</pattern>
			
				<path style="fill:url(#SVGID_00000092456248241693821360000004335108271393440665_);stroke:#424242;stroke-width:0.75;stroke-linecap:round;stroke-linejoin:round;" d="
				M71.2,22.4l-7.7,22.3h15.3L71.2,22.4z"/>
			<g id="i">
				<path class="st20" d="M71.5,44.7h-10V48h-1.7v5h2.7v-2.3h2.3V53h2.7v-2.3h2.3V53h1.7"/>
				<path class="st20" d="M65.8,47v-1.3h1.7V47H65.8z M68.8,47v-1.3h1.7V47H68.8z M62.8,47v-1.3h1.7V47H62.8z"/>
			</g>
			<g id="i-2">
				<path class="st20" d="M70.8,44.7h10V48h1.7v5h-2.7v-2.3h-2.3V53h-2.7v-2.3h-2.3V53h-1.7"/>
				<path class="st20" d="M76.5,47v-1.3h-1.7V47H76.5z M73.5,47v-1.3h-1.7V47H73.5z M79.5,47v-1.3h-1.7V47H79.5z"/>
			</g>
			<path class="st20" d="M97.8,71.7c-10,0-13.7,5.7-13.7,8.3v32.3H69.8V71c0,0,8.7,1,13,4.7c0,0,3.8-6.3,15.1-6.3"/>
			<g id="j">
				<path id="g" class="st21" d="M82.1,83.7c-0.7,0-5,0.3-1.7-2.3c0,0-4.3-0.7-3.3,2.3c0,0-1.3-0.7-2.7,1"/>
				<path id="g-2" class="st21" d="M82.1,85.7c-0.7,0-5-0.3-1.7,2.3c0,0-4.3,0.7-3.3-2.3c0,0-1.3,0.7-2.7-1"/>
			</g>
			<g id="j-2">
				<path id="g-3" class="st21" d="M82.1,102c-0.7,0-5,0.3-1.7-2.3c0,0-4.3-0.7-3.3,2.3c0,0-1.3-0.7-2.7,1"/>
				<path id="g-4" class="st21" d="M82.1,104c-0.7,0-5-0.3-1.7,2.3c0,0-4.3,0.7-3.3-2.3c0,0-1.3,0.7-2.7-1"/>
			</g>
			<path class="st21" d="M82.1,104v8.3H71.8V73.7c3.8,0.5,7.3,2,10.3,4.3v5.7 M82.1,85.7V102"/>
			<path class="st20" d="M98.5,55.7h-2V58h-2.3v-2.3h-2.3V58h-2.3v-2.3h-2.3V58h-2.7v-5h14"/>
			<circle class="st20" cx="71.2" cy="22.4" r="2.3"/>
		</g>
	</g>
	<g>
		<defs>
			<rect id="SVGID_00000176008222385791217130000017841723949670528676_" width="195.6" height="280.6"/>
		</defs>
		<clipPath id="SVGID_00000123401000871857625540000013176776542644654244_">
			<use xlink:href="#SVGID_00000176008222385791217130000017841723949670528676_"  style="overflow:visible;"/>
		</clipPath>
		<g id="h-2" style="clip-path:url(#SVGID_00000123401000871857625540000013176776542644654244_);">
			
				<pattern  id="SVGID_00000178164432936502261650000009032252764143864749_" xlink:href="#SVGID_0000012271650135543691862" patternTransform="matrix(-0.33 0 0 -0.33 -21398.2402 -5674.8569)">
			</pattern>
			
				<path style="fill:url(#SVGID_00000178164432936502261650000009032252764143864749_);stroke:#424242;stroke-width:0.75;stroke-linecap:round;stroke-linejoin:round;" d="
				M133.8,50.7h-18.6v61.6h18.6V50.7z"/>
			
				<pattern  id="SVGID_00000173133756756604883680000001526025875731426473_" xlink:href="#SVGID_0000017311992892137992354" patternTransform="matrix(-0.2333 -0.2333 0.2333 -0.2333 -19860.4551 -4026.6394)">
			</pattern>
			
				<path style="fill:url(#SVGID_00000173133756756604883680000001526025875731426473_);stroke:#424242;stroke-width:0.75;stroke-linecap:round;stroke-linejoin:round;" d="
				M124.4,22.4l7.7,22.3h-15.3L124.4,22.4z"/>
			<g id="i-3">
				<path class="st20" d="M124.1,44.7h10V48h1.7v5h-2.7v-2.3h-2.3V53h-2.7v-2.3h-2.3V53h-1.7"/>
				<path class="st20" d="M129.8,47v-1.3h-1.7V47H129.8z M126.8,47v-1.3h-1.7V47H126.8z M132.8,47v-1.3h-1.7V47H132.8z"/>
			</g>
			<g id="i-4">
				<path class="st20" d="M124.8,44.7h-10V48h-1.7v5h2.7v-2.3h2.3V53h2.7v-2.3h2.3V53h1.7"/>
				<path class="st20" d="M119.1,47v-1.3h1.7V47H119.1z M122.1,47v-1.3h1.7V47H122.1z M116.1,47v-1.3h1.7V47H116.1z"/>
			</g>
			<path class="st20" d="M97.8,71.7c10,0,13.7,5.7,13.7,8.3v32.3h14.3V71c0,0-8.7,1-13,4.7c0,0-3.8-6.3-15.1-6.3"/>
			<g id="j-3">
				<path id="g-5" class="st21" d="M113.4,83.7c0.7,0,5,0.3,1.7-2.3c0,0,4.3-0.7,3.3,2.3c0,0,1.3-0.7,2.7,1"/>
				<path id="g-6" class="st21" d="M113.4,85.7c0.7,0,5-0.3,1.7,2.3c0,0,4.3,0.7,3.3-2.3c0,0,1.3,0.7,2.7-1"/>
			</g>
			<g id="j-4">
				<path id="g-7" class="st21" d="M113.4,102c0.7,0,5,0.3,1.7-2.3c0,0,4.3-0.7,3.3,2.3c0,0,1.3-0.7,2.7,1"/>
				<path id="g-8" class="st21" d="M113.4,104c0.7,0,5-0.3,1.7,2.3c0,0,4.3,0.7,3.3-2.3c0,0,1.3,0.7,2.7-1"/>
			</g>
			<path class="st21" d="M113.4,104v8.3h10.3V73.7c-3.8,0.5-7.3,2-10.3,4.3v5.7 M113.4,85.7V102"/>
			<path class="st20" d="M97.1,55.7h2V58h2.3v-2.3h2.3V58h2.3v-2.3h2.3V58h2.7v-5H97"/>
			<circle class="st20" cx="124.4" cy="22.4" r="2.3"/>
		</g>
	</g>
	<g>
		<defs>
			<rect id="SVGID_00000057844759763001388930000010519537045152278719_" width="195.6" height="280.6"/>
		</defs>
		<clipPath id="SVGID_00000167390392913343127560000014588339226028411018_">
			<use xlink:href="#SVGID_00000057844759763001388930000010519537045152278719_"  style="overflow:visible;"/>
		</clipPath>
		
			<path style="clip-path:url(#SVGID_00000167390392913343127560000014588339226028411018_);fill:#E8E7E7;stroke:#424242;stroke-width:0.75;stroke-linecap:round;stroke-linejoin:round;" d="
			M86.3,29.4l1.5,2.2c-0.8,0.6-1.6,1.3-2.3,2l12.2,12.3L110,33.5c-0.7-0.7-1.5-1.4-2.3-2l1.5-2.2C102.5,24.3,93.2,24.3,86.3,29.4
			L86.3,29.4z"/>
	</g>
	<g>
		<defs>
			<rect id="SVGID_00000102544774916461114690000002337618212404436870_" width="195.6" height="280.6"/>
		</defs>
		<clipPath id="SVGID_00000147214048308175841690000013759132810413811891_">
			<use xlink:href="#SVGID_00000102544774916461114690000002337618212404436870_"  style="overflow:visible;"/>
		</clipPath>
		
			<path style="clip-path:url(#SVGID_00000147214048308175841690000013759132810413811891_);fill:none;stroke:#424242;stroke-width:0.75;stroke-linecap:round;stroke-linejoin:round;" d="
			M97.8,26.9c-3.3,0-6.5,0.9-9.3,2.6l0.7,1.2c5.3-3.3,12-3.3,17.3,0l0.7-1.2C104.3,27.8,101.1,26.9,97.8,26.9z M108.1,33.5
			c-5.8-5.3-14.7-5.3-20.5,0l10.3,12.4L108.1,33.5z"/>
	</g>
	<g>
		<defs>
			<rect id="SVGID_00000047749569417140067760000003088583328059008697_" width="195.6" height="280.6"/>
		</defs>
		<clipPath id="SVGID_00000061462351869913548450000017936671214289135748_">
			<use xlink:href="#SVGID_00000047749569417140067760000003088583328059008697_"  style="overflow:visible;"/>
		</clipPath>
		
			<path style="clip-path:url(#SVGID_00000061462351869913548450000017936671214289135748_);fill:#E8E7E7;stroke:#424242;stroke-width:0.75;stroke-linecap:round;stroke-linejoin:round;" d="
			M97.8,31c-7.7,0-14,6.3-13.9,14.1c0,2.8,0.9,5.6,2.5,7.9h23c4.4-6.3,2.9-15.1-3.5-19.5C103.5,31.9,100.7,31,97.8,31L97.8,31z"/>
	</g>
	<g>
		<defs>
			<rect id="SVGID_00000029026084434691650760000010022453840956641710_" width="195.6" height="280.6"/>
		</defs>
		<clipPath id="SVGID_00000141427983896839740880000004364791210005451689_">
			<use xlink:href="#SVGID_00000029026084434691650760000010022453840956641710_"  style="overflow:visible;"/>
		</clipPath>
		
			<path style="clip-path:url(#SVGID_00000141427983896839740880000004364791210005451689_);fill:#E94539;stroke:#424242;stroke-width:0.75;stroke-linecap:round;stroke-linejoin:round;" d="
			M97.8,32.7c-6.8,0-12.3,5.5-12.3,12.3c0,2.5,0.8,4.9,2.2,7h20.2c3.9-5.6,2.5-13.3-3.1-17.1C102.7,33.5,100.3,32.7,97.8,32.7z"/>
	</g>
	<g>
		<defs>
			<rect id="SVGID_00000154416874131785873010000012076025302706175636_" width="195.6" height="280.6"/>
		</defs>
		<clipPath id="SVGID_00000051368207779107946130000006178126185948117165_">
			<use xlink:href="#SVGID_00000154416874131785873010000012076025302706175636_"  style="overflow:visible;"/>
		</clipPath>
		<g id="pahonia" style="clip-path:url(#SVGID_00000051368207779107946130000006178126185948117165_);">
			<path class="st30" d="M101.7,50.5c-0.2,0.1-0.4,0.6-0.5,0.8c0,0.8,1.4,0.4,1.4,0.2s0.1-0.8,0.4-0.8c0.7-0.1,0.8-1.2,1.8-2.6
				c-0.4-0.7-0.8-0.7-1.1-1.4c0.6-1,1.2-1.5,0.8-3.4c1.3,0.1,2.1,0.5,1.7,2c-0.3,1.3-0.2,2.7,1.5,2.7c-0.6-1,0.2-2.3,0.6-3.5
				c0.3-1-0.2-2-1.2-2.3c-0.3-0.1-0.7-0.1-1,0c-1.3,0.3-1.2,0.7-1.9,0.3c-2.4-2.1-4.9,0.2-7.4-0.9c-0.1-2.8-1.6-5.4-4.8-5.2v0.4
				c0.1-0.6-0.8-1.4-0.8-0.8s0,0.6-0.5,0.2c-0.1,0.4,0,0.8,0.1,1.1c-0.3,0.3-0.6,0.7-0.7,1.1c-0.3,0.7-0.4,1.5-0.5,2.3
				c0,0.3,0,0.6,0.3,0.7s0.5-0.2,0.6,0.2c0,0,0.5-0.1,0.5-0.3c0.2-0.7,0.6-0.8,0.9-1c0.7-0.1,1.2-0.9,1.1-1.6c0-0.1,0-0.1-0.1-0.2
				c0.4,0.7-0.3,1.8-0.7,2.4c-0.7,1-1.4,1.4-1.4,2.4c-0.5-0.2-1-0.4-1.5-0.7c-0.3-0.1-0.7,0-0.9,0.2c-0.3,0.7-0.4,1.8-0.6,2.5
				c-0.1,0.3,0.3,0.8,0.3,1.6c0.2,0.3,0.6,0.5,1,0.4c0.3-1,0.3-0.8-0.3-1.6c0-0.6,0-1.2,0.1-1.7c0.4-0.3,0.9,0.4,1.2,0.7
				c0.6,0.3,1.2,0.4,1.9,0.3c-0.7,0.1-1.4,0-2-0.4c-0.8-0.5-0.6,1.7-1,3c0,0.8,0.4,1.1,0.8,1.6c1.3-0.7,0.6-1.4,0.2-1.5
				c0-0.6,0.1-1.3,0.2-1.9c1.3,0.5,1.1,0.8,2.9,1.1c0.4-0.3,0.7-0.7,0.9-1.1l-0.3,0.5c2.1,0.5,4.4,0.7,6.6,0.6
				c0.6,0.5,1.3,0.9,2,1.1l-1-0.4c-0.1,0.8-0.7,2.4-1.5,2.6c-0.2,0.3-0.4,0.6-0.5,0.9c0,0.5,1.4,0.4,1.3,0.1
				c0.1-0.8,0.3-0.6,0.5-0.8c0.2-0.9,0.6-1.8,1.1-2.5c0,0,0.5,0.2,1.1,0.3C103.2,49.2,102.6,50.2,101.7,50.5L101.7,50.5z"/>
			<path class="st30" d="M90.7,43.5c0,0.6,0.1,1.1,0.3,1.6"/>
			<path class="st30" d="M97.1,49.6c-1.1-1.1-3.1-5.3-1-8.1l3.9,0.1c-0.5,2.3-0.4,4.8,0.4,7.1c-0.8,0-1.3-1-1.9-2.1l0.7,2.9
				c-1.1-0.6-1.8-1.6-2-2.8C97.1,48.4,97.5,48.5,97.1,49.6z"/>
			<path class="st30" d="M91,40.7l0.5,2.2c1.7-0.3,3.3-1,4.7-2c-1.6,0.3-4.1,1.2-4.5,0.7l-0.5-1.3"/>
			<path class="st30" d="M99.8,37.8l-0.4-0.5c-0.1-0.4,0.2-1,0.2-1.4c0-0.5-0.3-1-0.7-1.2c-0.4,0.1-1.2,0.2-1.4,1.1
				c0.1,0.2,0.2,0.3-0.2,0.9c0.3,0.5-0.1,0.6,0.5,0.9c-0.3,0-0.8-0.8-1.5-1c0.2-0.7-0.5-1.8-0.2-2.2c0.9-1.7-1.5-1.3-0.9-0.1
				c0,0.9,0,1.8-0.1,2.6l1.7,1.5l0.5,2.6c-0.8,0.5-1.3,1.3-1.6,2.2c-0.4,0.1-0.7,0.6-0.6,1l0,0c0.1,0.9,0.2,1.9,0.1,2.8
				c-0.6,0.1-1.2,0.3-1.6,0.7c0.9,0.1,1.7,0.2,2.5,0.4c-0.1-0.6,0-1.3,0.1-1.9c0.3-0.5,0.4-1.2,0.3-1.8l0.1-0.6l1.9-1.5"/>
			<path class="st30" d="M95.1,48.2L95,46.8l-0.6,1.3L95.1,48.2z"/>
			<path class="st30" d="M95,46.7l0.2-0.7"/>
			<path class="st30" d="M99.1,38.6l-0.6,0.1l0.1,0.5L98,39.4l0.1,0.5l0.5-0.1l0.1,0.5l-0.6,0.1l0.1,0.5l0.6-0.1l0.2,0.9l0.6-0.1
				l-0.2-0.9l0.7-0.1L100,40l-0.7,0.1l-0.1-0.5l0.6-0.1L99.7,39l-0.6,0.1V38.6z M100.5,37.7l-3.7,0.8c0.6,3.1,1,4,3,4.6
				C101.2,41.7,101.2,41,100.5,37.7z M96.7,33.2h-0.4v1.6h0.4v-0.5h4.4l1-0.3l-1-0.2h-4.4V33.2z M98.9,34.7c2.9-0.7,2.4,2,5.4,2.3
				C101.5,39,100.9,35.3,98.9,34.7z M97.5,35.8l2,0.6 M97.7,37.7l-1,0.8 M97.1,40.1l-0.8,0.2c-0.7,0.2-0.7,0.5-0.5,1s1,0.3,0.8-0.1
				l0.8-0.1l-0.6,0.1l0.6,5.1l0.5,1l0.2-1.1l-0.3-4.3L97,42l0.8-0.1"/>
			<path class="st31" d="M89.6,40.5c0.3-0.1,0.7-0.1,1,0 M95.6,43.3l1,0.7 M95.2,44.7l1.4-0.1 M97.4,36.8c0.3,0,0.3,0.2,0.5,0.1
				 M97.8,36.2H98 M99,36.2c0.1,1.3-1.2,1.2-1.2,1.5c0.5,0,1.1-0.1,1.5-0.4 M95.5,37.3c0.2-0.3,0.5-0.5,0.9-0.7 M95.1,36.2
				c0.4,0,0.8,0,1.2,0.2 M100.5,42.3c0.7,0.9,0.6,2.2,0.4,3.6l0.4,0.6l0.1-0.6c0.1-1.2,0.4-2.7-0.7-4 M99.8,44.3
				c1.6,0.3,3.2,0.4,4.8,0.1 M99.8,43.9c1.5,0.3,3.1,0.4,4.7,0.1 M101.8,41.8c0.9,1.2,1.3,2.7,1,4.2l0.4,0.6l0.1-0.6
				c0.3-1.5,0-3-0.9-4.2 M91.4,44.7c1.3-0.2,2.6-0.5,3.8-1.1 M91.3,44.1c1.4-0.2,2.8-0.6,4.1-1.3 M90.7,37.4
				c0.9,0.2,1.6,0.6,2.1,1.3 M90.5,37.7c1,0.2,1.9,0.8,2.5,1.8 M91.1,40.3c0.8-0.9,1.9-2.5,1.6-3.3 M89.9,41l0.1-0.2 M90.3,41.5
				l0.2-0.3 M89.7,40.1c0.3-0.1,0.7-0.1,1,0c0.7-0.9,1.9-2.2,1.5-3.2 M91.1,36.4c0,0.2,0,0.3,0.1,0.5 M91.9,36.8
				c3.2,0.1,3.6,2.3,4.1,3.6 M90.5,38.8l0.2-0.3l0.3-0.1l-0.2,0.4L90.5,38.8z M95.2,34.1c0.5,0.2,0.4-0.2,0.8-0.2"/>
			<ellipse class="st30" cx="91.2" cy="44.4" rx="0.3" ry="0.6"/>
			<circle class="st30" cx="94.9" cy="46.9" r="0.3"/>
			<circle class="st30" cx="94.8" cy="33.9" r="0.3"/>
			<circle class="st30" cx="90.9" cy="40.3" r="0.3"/>
			<circle class="st30" cx="92.3" cy="38.3" r="0.3"/>
			<circle class="st30" cx="101.3" cy="44.2" r="0.3"/>
			<circle class="st30" cx="103" cy="44.3" r="0.3"/>
		</g>
	</g>
	<g>
		<defs>
			<rect id="SVGID_00000078036576413709986770000000334374084635907754_" width="195.6" height="280.6"/>
		</defs>
		<clipPath id="SVGID_00000173870467099560736540000005287665441921687486_">
			<use xlink:href="#SVGID_00000078036576413709986770000000334374084635907754_"  style="overflow:visible;"/>
		</clipPath>
		
			<path style="clip-path:url(#SVGID_00000173870467099560736540000005287665441921687486_);fill:#E8E7E7;stroke:#424242;stroke-width:0.5;stroke-linecap:round;stroke-linejoin:round;" d="
			M97.5,78.7c-1.7-3.3,0-4.7,2-4.3s4.7,4,6.7,3c0.3,0.3-1.7,3-4,1.7s-3.7-4.7-4-0.3"/>
	</g>
	<g>
		<defs>
			<rect id="SVGID_00000073698187603927834330000016004982803881254539_" width="195.6" height="280.6"/>
		</defs>
		<clipPath id="SVGID_00000005960528675818136400000017416606794241914284_">
			<use xlink:href="#SVGID_00000073698187603927834330000016004982803881254539_"  style="overflow:visible;"/>
		</clipPath>
		
			<path style="clip-path:url(#SVGID_00000005960528675818136400000017416606794241914284_);fill:#E8E7E7;stroke:#424242;stroke-width:0.5;stroke-linecap:round;stroke-linejoin:round;" d="
			M94.1,88.7l-2.3,2c0,0-1.3,2.3-3-0.3h-0.3l-1-3.3c-0.7,0-1.3-0.6-1.3-1.3c0,0,0,0,0-0.1c0,0,0.3-1.3,1.3-1.3
			c0.8,0.1,1.4,0.6,1.7,1.3c1.3,1.7,1.3,3.3,2.3,2l1-1.3"/>
	</g>
	<g>
		<defs>
			<rect id="SVGID_00000140733719160485995970000013493863722689796754_" width="195.6" height="280.6"/>
		</defs>
		<clipPath id="SVGID_00000022534094424354548000000001642013193027447714_">
			<use xlink:href="#SVGID_00000140733719160485995970000013493863722689796754_"  style="overflow:visible;"/>
		</clipPath>
		<g id="defender" style="clip-path:url(#SVGID_00000022534094424354548000000001642013193027447714_);">
			<path class="st35" d="M97.8,92.5l-3-0.3c0,0-0.7-4.7-2.3-6c0,0,0-1.7,2.3-1.7c0,0,1.3-0.3,1-2.7c0,0-0.7-3.3,2.1-3.3"/>
			<path class="st35" d="M95.8,104.5c0.3,1.3,0.3,2.7-1,5c-0.3,1.3,1.3,1.3,0.3,2.7h-5c0,0-1-0.7,0-1c0.9-0.1,1.8-0.3,2.7-0.7
				c0.7-2.7-0.3-3.7,0.3-6.3c0,0-0.7-1.3,0.3-2c0,0-0.7-4.2,0.3-6.3l3.7,0.7C97.5,101.8,96.1,100.2,95.8,104.5z"/>
			<path class="st20" d="M97.9,97c-0.9,0-1.8-0.1-2.7-0.3c0-1.7-0.3-4.5,2.7-4.2"/>
			<circle class="st35" cx="97" cy="81.2" r="0.2"/>
			<path class="st21" d="M94.8,84.5c0.8,0.7,1.9,1.1,3,1"/>
			<path class="st31" d="M97.2,97l0.5-4.5l-1.6,4.3 M92.8,110.5c1,0,1.8,0.7,2,1.7 M93.5,112.1c0,0,0.3-0.7-0.7-1.7 M92.1,110.8
				c0.4,0.4,0.6,0.8,0.7,1.3 M91.8,112.1c0-0.5-0.3-0.9-0.7-1.2 M95.8,104.5c-0.8-0.3-1.8-0.5-2.7-0.3 M93.4,97.2
				c1.3,0.4,2.6,0.6,4,0.7 M97.3,98.8c-1.4,0-2.7-0.2-4-0.7 M93.3,99.3c1.2,0.5,2.5,0.7,3.8,0.6 M96.6,101c-1.1,0-2.2-0.1-3.2-0.5
				 M93.5,101.8c0.9,0.2,1.8,0.4,2.7,0.3 M95.8,103.1c0,0-1,0-1.3-0.7c-0.2-0.4-0.6-0.5-1-0.4l0,0 M93.5,87.1c0,0,2-0.7,2-2.2
				 M96.1,85.3c0,0,0.7,1.5-2.2,3.2 M96.5,81.2c0.3-0.2,0.6-0.2,0.9,0 M97.8,82.7c-0.3,0.3-1,0-1,0.3"/>
			<path class="st35" d="M97.8,94.2c-2.7,0-2.3,3.3-2.3,3.3c-0.9,0-1.8-0.3-2.7-0.7c0,0,1-4,2-4.7l3,0.3"/>
		</g>
	</g>
	<g>
		<defs>
			<rect id="SVGID_00000136395166925038679710000013756638695159227313_" width="195.6" height="280.6"/>
		</defs>
		<clipPath id="SVGID_00000139282406357502600930000017777803918791208344_">
			<use xlink:href="#SVGID_00000136395166925038679710000013756638695159227313_"  style="overflow:visible;"/>
		</clipPath>
		<g id="defender-2" style="clip-path:url(#SVGID_00000139282406357502600930000017777803918791208344_);">
			<path class="st35" d="M97.8,92.5l3-0.3c0,0,0.7-4.7,2.3-6c0,0,0-1.7-2.3-1.7c0,0-1.3-0.3-1-2.7c0,0,0.7-3.3-2.1-3.3"/>
			<path class="st35" d="M99.8,104.5c-0.3,1.3-0.3,2.7,1,5c0.3,1.3-1.3,1.3-0.3,2.7h5c0,0,1-0.7,0-1c-0.9-0.1-1.8-0.3-2.7-0.7
				c-0.7-2.7,0.3-3.7-0.3-6.3c0,0,0.7-1.3-0.3-2c0,0,0.7-4.2-0.3-6.3l-3.7,0.7C98.1,101.8,99.5,100.2,99.8,104.5z"/>
			<path class="st20" d="M97.7,97c0.9,0,1.8-0.1,2.7-0.3c0-1.7,0.3-4.5-2.7-4.2"/>
			<circle class="st35" cx="98.6" cy="81.2" r="0.2"/>
			<path class="st21" d="M100.8,84.5c-0.8,0.7-1.9,1.1-3,1"/>
			<path class="st31" d="M98.4,97l-0.5-4.5l1.6,4.3 M102.8,110.5c-1,0-1.8,0.7-2,1.7 M102.1,112.2c0,0-0.3-0.7,0.7-1.7 M103.5,110.8
				c-0.4,0.4-0.6,0.8-0.7,1.3 M103.8,112.2c0-0.5,0.3-0.9,0.7-1.2 M99.8,104.5c0.8-0.3,1.8-0.5,2.7-0.3 M102.2,97.2
				c-1.3,0.4-2.6,0.6-4,0.7 M98.3,98.8c1.4,0,2.7-0.2,4-0.7 M102.3,99.3c-1.2,0.5-2.5,0.7-3.8,0.6 M99,101.1c1.1,0,2.2-0.1,3.2-0.5
				 M102.1,101.8c-0.9,0.2-1.8,0.4-2.7,0.3 M99.8,103.2c0,0,1,0,1.3-0.7c0.2-0.4,0.6-0.5,1-0.4l0,0 M102.1,87.2c0,0-2-0.7-2-2.2
				 M99.5,85.3c0,0-0.7,1.5,2.2,3.2 M99.1,81.2c-0.3-0.2-0.6-0.2-0.9,0 M97.8,82.7c0.3,0.3,1,0,1,0.3"/>
			<path class="st35" d="M97.8,94.2c2.7,0,2.3,3.3,2.3,3.3c0.9,0,1.8-0.3,2.7-0.7c0,0-1-4-2-4.7l-3,0.3"/>
		</g>
	</g>
	<g>
		<defs>
			<rect id="SVGID_00000170266794698890031780000009661661740834036877_" width="195.6" height="280.6"/>
		</defs>
		<clipPath id="SVGID_00000014601152210106370310000007873913189897557409_">
			<use xlink:href="#SVGID_00000170266794698890031780000009661661740834036877_"  style="overflow:visible;"/>
		</clipPath>
		
			<path style="clip-path:url(#SVGID_00000014601152210106370310000007873913189897557409_);fill:#E8E7E7;stroke:#424242;stroke-width:0.5;stroke-linecap:round;stroke-linejoin:round;" d="
			M103.1,86.2c1.4,0.8,2.6,1.7,3.8,2.8c0,0,1.4,0.7,0,2.3l-3.8,1.9l-0.8,0.9c0,0,0.5,0.2-0.1,0.7c0,0-0.7,0.1-1.7-1.6
			c0,0-0.3-0.7,1-1l3-1.8c0,0-0.4-0.2,0-0.5l-2.8-1.1C101.9,87.7,102.4,86.8,103.1,86.2z"/>
	</g>
	<g>
		<defs>
			<rect id="SVGID_00000069359845290427081610000015810804532919520439_" width="195.6" height="280.6"/>
		</defs>
		<clipPath id="SVGID_00000059310094507269665690000017651000502657936021_">
			<use xlink:href="#SVGID_00000069359845290427081610000015810804532919520439_"  style="overflow:visible;"/>
		</clipPath>
		
			<path style="clip-path:url(#SVGID_00000059310094507269665690000017651000502657936021_);fill:#E8E7E7;stroke:#424242;stroke-width:0.75;stroke-linecap:round;stroke-linejoin:round;" d="
			M88.1,83.3l6.3-8c0.5-0.7,1.2-1.3,2-1.7c-0.1,0.8-0.5,1.6-1,2.3l-6.3,8.3"/>
	</g>
	<g>
		<defs>
			<rect id="SVGID_00000080200972055678000300000017621176174586815124_" width="195.6" height="280.6"/>
		</defs>
		<clipPath id="SVGID_00000179645738607917624670000003192898815842146735_">
			<use xlink:href="#SVGID_00000080200972055678000300000017621176174586815124_"  style="overflow:visible;"/>
		</clipPath>
		
			<path style="clip-path:url(#SVGID_00000179645738607917624670000003192898815842146735_);fill:#E8E7E7;stroke:#424242;stroke-width:0.75;stroke-linecap:round;stroke-linejoin:round;" d="
			M89.5,85.5c0,0-1.8-1.4-2.7-2.1l0.5-0.6l2.6,2.1L89.5,85.5z"/>
	</g>
	<g>
		<defs>
			<rect id="SVGID_00000109747321068352178460000006823070087927035822_" width="195.6" height="280.6"/>
		</defs>
		<clipPath id="SVGID_00000135670744551038600890000009372470120736799662_">
			<use xlink:href="#SVGID_00000109747321068352178460000006823070087927035822_"  style="overflow:visible;"/>
		</clipPath>
		
			<path style="clip-path:url(#SVGID_00000135670744551038600890000009372470120736799662_);fill:#E8E7E7;stroke:#424242;stroke-width:0.75;stroke-linecap:round;stroke-linejoin:round;" d="
			M99.8,81c-1.3-0.7-2.7-0.7-4,0"/>
	</g>
	<g>
		<defs>
			<rect id="SVGID_00000172408285592055849980000015201142175140417211_" width="195.6" height="280.6"/>
		</defs>
		<clipPath id="SVGID_00000058588387863967237920000003331979274144277687_">
			<use xlink:href="#SVGID_00000172408285592055849980000015201142175140417211_"  style="overflow:visible;"/>
		</clipPath>
		
			<path style="clip-path:url(#SVGID_00000058588387863967237920000003331979274144277687_);fill:none;stroke:#424242;stroke-width:0.25;stroke-miterlimit:10;" d="
			M97.6,83.4h0.3 M97.8,85.5v7 M97.3,83.2c0.3-0.1,0.7-0.1,1,0 M97.3,80.8c0,0,0.3,0,0.3,0.6v0.9c0,0-0.3,0.3,0.2,0.3
			c0.2,0,0.3-0.1,0.3-0.3 M106.9,89c-0.7,0.5-1.6,0.7-2.5,0.8 M105.6,91.8c-0.5-0.4-1-0.8-1.5-1.2 M104.4,90.2c0,0,2.5,1.4,2.5,1
			 M106,88.2c-0.5,0.7-1.2,1.2-1.9,1.4 M102.1,91.8c0.5,0.2,0.9,0.6,1,1.2 M94.1,76.7l-5.4,7 M91.1,88c0,0,1.3,1.3,1.3,2 M91.8,90.7
			c-0.2-0.8-0.5-1.6-1-2.3c0,0-0.3,2.7-1.3,2.7 M88.8,90.3c0.7-0.7,1.3-1.5,1.7-2.3 M86.8,84.6c0,0-0.3,0.7,0.7,0.7c0,0,2,0.3,0,1.7
			 M89.5,86.3c-0.4,0.6-1,1.1-1.7,1.3 M96.3,80.9c-0.2,1.3,0.5,3.1,1.5,3.1s1.7-1.8,1.5-3.1C98.3,80.5,97.3,80.5,96.3,80.9z"/>
	</g>
	<g>
		<defs>
			<rect id="SVGID_00000158025426092897206950000001094178420970070685_" width="195.6" height="280.6"/>
		</defs>
		<clipPath id="SVGID_00000129196194143103626550000018174770226829298605_">
			<use xlink:href="#SVGID_00000158025426092897206950000001094178420970070685_"  style="overflow:visible;"/>
		</clipPath>
		
			<circle style="clip-path:url(#SVGID_00000129196194143103626550000018174770226829298605_);fill:#E8E7E7;stroke:#424242;stroke-width:0.75;stroke-linecap:round;stroke-linejoin:round;" cx="86.1" cy="87" r="0.7"/>
	</g>
	<g>
		<defs>
			<rect id="SVGID_00000090268242493986774890000005881687830809060281_" width="195.6" height="280.6"/>
		</defs>
		<clipPath id="SVGID_00000000918003604990225780000007007155198014283936_">
			<use xlink:href="#SVGID_00000090268242493986774890000005881687830809060281_"  style="overflow:visible;"/>
		</clipPath>
		<path style="clip-path:url(#SVGID_00000000918003604990225780000007007155198014283936_);fill:#FFFFFF;" d="M80,99.6
			c-12.6,0-22.9,10.2-22.9,30.5c0,25.4,18.2,50.9,40.7,50.9s40.7-25.4,40.7-50.9c0-20.3-10.2-30.5-22.9-30.5
			c-6.9,0-13.5,3.1-17.8,8.5C93.5,102.8,86.9,99.6,80,99.6z"/>
	</g>
	<g>
		<defs>
			<rect id="SVGID_00000165236270510738123260000004822128003322292144_" width="195.6" height="280.6"/>
		</defs>
		<clipPath id="SVGID_00000093885976110240600160000009392802171710031014_">
			<use xlink:href="#SVGID_00000165236270510738123260000004822128003322292144_"  style="overflow:visible;"/>
		</clipPath>
		<path style="clip-path:url(#SVGID_00000093885976110240600160000009392802171710031014_);fill:#FFFFFF;" d="M30.4,112.8h134.7
			c3,0,5.5,2.4,5.5,5.5v44c0,3-2.4,5.5-5.5,5.5H30.4c-3,0-5.5-2.4-5.5-5.5v-44C25,115.3,27.4,112.8,30.4,112.8z"/>
	</g>
	<g>
		<defs>
			<rect id="SVGID_00000137105142796024320790000015129410778850093477_" width="195.6" height="280.6"/>
		</defs>
		<clipPath id="SVGID_00000065759949154052122270000010957992946999119261_">
			<use xlink:href="#SVGID_00000137105142796024320790000015129410778850093477_"  style="overflow:visible;"/>
		</clipPath>
	</g>
	<g>
		<defs>
			<rect id="SVGID_00000039122383139130748120000008507069185243569831_" width="195.6" height="280.6"/>
		</defs>
		<clipPath id="SVGID_00000090286093529215336980000006154929140728391081_">
			<use xlink:href="#SVGID_00000039122383139130748120000008507069185243569831_"  style="overflow:visible;"/>
		</clipPath>
	</g>
	<g>
		<defs>
			<rect id="SVGID_00000181064511197696765410000015677889946577975453_" width="195.6" height="280.6"/>
		</defs>
		<clipPath id="SVGID_00000045600659003373028090000014553035701265198469_">
			<use xlink:href="#SVGID_00000181064511197696765410000015677889946577975453_"  style="overflow:visible;"/>
		</clipPath>
		<path style="clip-path:url(#SVGID_00000045600659003373028090000014553035701265198469_);fill:#FFFFFF;" d="M150.6,0h29h16v16
			c0,7,0,14,0,21c-10.2,12.4-28.6,14.2-41,4S140.4,12.4,150.6,0z"/>
	</g>
	<g>
		<defs>
			<rect id="SVGID_00000006675461494193861950000007166550134294494131_" width="195.6" height="280.6"/>
		</defs>
		<clipPath id="SVGID_00000121281825737661470220000010389871528151488156_">
			<use xlink:href="#SVGID_00000006675461494193861950000007166550134294494131_"  style="overflow:visible;"/>
		</clipPath>
	</g>
</g>
<g class="st46">
	<path class="st47" d="M69.8,145.5l-1.7,15.1h-4.9c-0.4-2.3-0.8-5-1.2-7.9c-0.2,1.3-0.5,3.9-1.1,7.9H56l-1.8-15.1h3.8l0.4,5.3
		l0.4,5.1c0.1-2.6,0.5-6.1,1.1-10.4H64c0.1,0.4,0.2,2.1,0.4,5l0.4,5.7c0.2-3.7,0.6-7.2,1.1-10.7H69.8z"/>
	<path class="st47" d="M74.5,150.8l0.7-0.2v1.6l-0.7,0.2v8.1h-3.9v-7l-0.7,0.2v-1.6l0.7-0.2v-6.5h3.9V150.8z"/>
	<path class="st47" d="M84.5,152.5v3c0,1.1-0.1,1.9-0.2,2.4c-0.1,0.5-0.4,1-0.7,1.5c-0.4,0.5-0.8,0.8-1.4,1c-0.6,0.2-1.2,0.3-2,0.3
		c-0.8,0-1.5-0.1-2.1-0.3c-0.6-0.2-1-0.5-1.3-0.8s-0.5-0.8-0.7-1.3s-0.2-1.3-0.2-2.4v-3.2c0-1.2,0.1-2,0.4-2.7
		c0.2-0.6,0.7-1.2,1.3-1.6c0.6-0.4,1.5-0.6,2.5-0.6c0.8,0,1.6,0.1,2.2,0.4s1.1,0.6,1.4,1c0.3,0.4,0.6,0.8,0.7,1.3
		C84.4,151,84.5,151.7,84.5,152.5z M80.7,151.6c0-0.6,0-1-0.1-1.2s-0.2-0.2-0.4-0.2s-0.4,0.1-0.4,0.2c-0.1,0.2-0.1,0.6-0.1,1.2v5.6
		c0,0.6,0,1,0.1,1.1c0.1,0.2,0.2,0.3,0.4,0.3c0.2,0,0.4-0.1,0.4-0.2c0.1-0.2,0.1-0.5,0.1-1V151.6z"/>
	<path class="st47" d="M94,152.9h-3.6v-1.4c0-0.5,0-0.8-0.1-1c-0.1-0.2-0.2-0.3-0.4-0.3c-0.2,0-0.4,0.1-0.4,0.2
		c-0.1,0.2-0.1,0.5-0.1,1v5.8c0,0.4,0.1,0.8,0.2,1c0.1,0.2,0.3,0.3,0.5,0.3c0.3,0,0.4-0.1,0.5-0.3c0.1-0.2,0.1-0.7,0.1-1.3v-1.5H94
		c0,1,0,1.7-0.1,2.2c-0.1,0.5-0.3,1-0.6,1.5c-0.4,0.5-0.8,0.9-1.4,1.2c-0.6,0.3-1.3,0.4-2.1,0.4c-1.1,0-1.9-0.2-2.5-0.5
		c-0.6-0.4-1.1-0.9-1.3-1.5s-0.4-1.6-0.4-2.8v-3.5c0-1.1,0.1-1.8,0.3-2.4c0.2-0.5,0.7-1,1.4-1.4s1.5-0.6,2.5-0.6
		c1,0,1.8,0.2,2.5,0.6c0.7,0.4,1.2,0.9,1.4,1.6C93.9,150.8,94,151.7,94,152.9z"/>
	<path class="st47" d="M99.2,150.8l0.7-0.2v1.6l-0.7,0.2v8.1h-3.9v-7l-0.7,0.2v-1.6l0.7-0.2v-6.5h3.9V150.8z"/>
	<path class="st47" d="M104,153h-3.5v-0.8c0-1,0.1-1.7,0.3-2.2s0.7-1,1.3-1.4c0.7-0.4,1.5-0.6,2.6-0.6c1.3,0,2.2,0.2,2.9,0.7
		c0.6,0.5,1,1,1.2,1.7s0.2,2,0.2,4.1v6.2h-3.7v-1.1c-0.2,0.4-0.5,0.8-0.9,1c-0.4,0.2-0.8,0.3-1.3,0.3c-0.7,0-1.3-0.2-1.8-0.6
		s-0.8-1.2-0.8-2.4v-1c0-0.9,0.1-1.6,0.4-1.9c0.3-0.3,1-0.7,2.2-1.2c1.2-0.5,1.9-0.8,2-1s0.1-0.5,0.1-1c0-0.6,0-1.1-0.1-1.3
		c-0.1-0.2-0.3-0.3-0.5-0.3c-0.3,0-0.4,0.1-0.5,0.2s-0.1,0.6-0.1,1.3V153z M105.2,154.7c-0.6,0.4-1,0.8-1,1.1
		c-0.1,0.3-0.1,0.7-0.1,1.3c0,0.6,0,1.1,0.1,1.2s0.2,0.3,0.5,0.3c0.2,0,0.4-0.1,0.5-0.2c0.1-0.1,0.1-0.5,0.1-1.2V154.7z"/>
	<path class="st47" d="M122.4,148.2l-1.5,12.4h-4.1c-0.2-1.5-0.5-3.5-0.8-6c-0.1,1.1-0.2,2.2-0.4,3.3l-0.4,2.7h-4.1l-1.6-12.4h3.2
		c0,0.3,0.3,2.7,0.8,7.1c0-0.5,0.3-2.8,0.8-7.1h3.1l0.8,7.1c0.1-2.1,0.4-4.4,0.9-7.1H122.4z"/>
	<path class="st47" d="M131.6,154.6h-4.9v2.7c0,0.6,0,0.9,0.1,1.1c0.1,0.2,0.2,0.2,0.5,0.2c0.3,0,0.5-0.1,0.6-0.3s0.1-0.6,0.1-1.2
		v-1.6h3.6v0.9c0,0.8,0,1.4-0.1,1.8c-0.1,0.4-0.3,0.8-0.7,1.3s-0.8,0.8-1.3,1s-1.2,0.3-2,0.3c-0.8,0-1.5-0.1-2.1-0.3
		c-0.6-0.2-1.1-0.5-1.4-0.9s-0.6-0.8-0.7-1.3c-0.1-0.5-0.2-1.2-0.2-2.1v-3.6c0-1.1,0.1-1.9,0.4-2.6s0.8-1.1,1.4-1.4
		c0.7-0.3,1.4-0.5,2.3-0.5c1.1,0,1.9,0.2,2.6,0.6c0.7,0.4,1.2,0.9,1.4,1.6c0.3,0.7,0.4,1.6,0.4,2.8V154.6z M127.8,152.6v-0.9
		c0-0.6,0-1.1-0.1-1.2c-0.1-0.2-0.2-0.3-0.4-0.3c-0.3,0-0.4,0.1-0.5,0.2c-0.1,0.2-0.1,0.6-0.1,1.3v0.9H127.8z"/>
	<path class="st47" d="M140.9,148.2l-1.5,4.9l2,7.5h-3.6l-1.2-5.4l0,5.4h-3.8v-15.1h3.8l0,6.3l1.2-3.6H140.9z"/>
</g>
<g class="st46">
	<path class="st47" d="M73.3,120.3v19.6h-4.5l0-13.2l-1.8,13.2h-3.2L62.1,127l0,12.9h-4.5v-19.6h6.6c0.2,1.2,0.4,2.6,0.6,4.2l0.7,5
		l1.2-9.1H73.3z"/>
	<path class="st47" d="M79.6,130.1H75V129c0-1.2,0.1-2.2,0.4-2.9c0.3-0.7,0.9-1.3,1.7-1.8c0.9-0.5,2-0.8,3.4-0.8
		c1.7,0,2.9,0.3,3.7,0.9c0.8,0.6,1.3,1.3,1.5,2.2c0.2,0.9,0.3,2.6,0.3,5.3v8.1h-4.8v-1.4c-0.3,0.6-0.7,1-1.2,1.3
		c-0.5,0.3-1,0.4-1.7,0.4c-0.9,0-1.6-0.2-2.4-0.7c-0.7-0.5-1.1-1.5-1.1-3.2V135c0-1.2,0.2-2,0.6-2.5c0.4-0.4,1.3-0.9,2.8-1.5
		c1.6-0.6,2.5-1.1,2.6-1.3s0.2-0.7,0.2-1.3c0-0.8-0.1-1.4-0.2-1.6c-0.1-0.3-0.3-0.4-0.6-0.4c-0.3,0-0.5,0.1-0.6,0.3
		c-0.1,0.2-0.1,0.8-0.1,1.7V130.1z M81.1,132.3c-0.8,0.6-1.2,1.1-1.4,1.4s-0.2,0.9-0.2,1.7c0,0.8,0.1,1.4,0.2,1.6
		c0.1,0.2,0.3,0.4,0.6,0.4c0.3,0,0.5-0.1,0.6-0.3s0.1-0.7,0.1-1.5V132.3z"/>
	<path class="st47" d="M92.6,120.3v4.4c0.4-0.4,0.9-0.7,1.4-0.9s1-0.3,1.6-0.3c0.9,0,1.6,0.2,2.2,0.7c0.6,0.4,1,0.9,1.1,1.5
		c0.1,0.6,0.2,1.6,0.2,3.1v11.1h-4.9v-11.3c0-0.9,0-1.5-0.1-1.8c-0.1-0.3-0.3-0.4-0.6-0.4c-0.3,0-0.5,0.1-0.6,0.4
		c-0.1,0.3-0.2,0.8-0.2,1.6v11.5h-4.9v-19.6H92.6z"/>
	<path class="st47" d="M105.7,120.3v2.6h-5v-2.6H105.7z M105.7,123.9v16h-5v-16H105.7z"/>
	<path class="st47" d="M112.5,120.3v19.6h-5v-19.6H112.5z"/>
	<path class="st47" d="M125.3,129.5v3.9c0,1.4-0.1,2.5-0.2,3.2c-0.1,0.7-0.5,1.3-0.9,1.9c-0.5,0.6-1.1,1-1.8,1.3
		c-0.7,0.3-1.6,0.4-2.6,0.4c-1.1,0-2-0.1-2.7-0.4c-0.8-0.2-1.3-0.6-1.7-1.1c-0.4-0.5-0.7-1.1-0.9-1.7c-0.2-0.7-0.3-1.7-0.3-3.1v-4.1
		c0-1.5,0.2-2.7,0.5-3.5c0.3-0.8,0.9-1.5,1.7-2c0.8-0.5,1.9-0.8,3.2-0.8c1.1,0,2,0.2,2.8,0.5c0.8,0.3,1.4,0.8,1.8,1.3
		c0.4,0.5,0.7,1.1,0.9,1.6C125.2,127.5,125.3,128.4,125.3,129.5z M120.4,128.3c0-0.8,0-1.3-0.1-1.6c-0.1-0.2-0.3-0.3-0.6-0.3
		c-0.3,0-0.5,0.1-0.6,0.3c-0.1,0.2-0.1,0.7-0.1,1.6v7.2c0,0.8,0,1.3,0.1,1.5c0.1,0.2,0.3,0.3,0.6,0.3c0.3,0,0.5-0.1,0.6-0.3
		s0.1-0.7,0.1-1.4V128.3z"/>
	<path class="st47" d="M138.1,123.9v16h-5l0.1-1.3c-0.3,0.5-0.8,0.9-1.3,1.2c-0.5,0.3-1.1,0.4-1.7,0.4c-0.7,0-1.3-0.1-1.8-0.4
		c-0.5-0.3-0.8-0.6-1.1-1c-0.2-0.4-0.4-0.9-0.4-1.3s-0.1-1.4-0.1-2.8v-10.8h4.9v10.9c0,1.2,0,2,0.1,2.2c0.1,0.2,0.3,0.4,0.6,0.4
		c0.4,0,0.6-0.1,0.6-0.4c0.1-0.2,0.1-1,0.1-2.3v-10.8H138.1z M133.8,119.1h2.1c0,1.1-0.4,2-1,2.6s-1.4,1-2.5,1c-1.1,0-1.9-0.3-2.5-1
		c-0.6-0.7-0.9-1.6-0.9-2.6h2.1c0.1,1.1,0.6,1.7,1.4,1.7C133.3,120.8,133.8,120.2,133.8,119.1z"/>
</g>
<g class="st46">
	<path class="st47" d="M167.8,22.8c0.6,0.2,1,0.5,1.3,1c0.3,0.5,0.4,1.5,0.4,3.2c0,1.3-0.1,2.2-0.4,2.9c-0.3,0.7-0.8,1.2-1.5,1.6
		s-1.6,0.5-2.7,0.5c-1.2,0-2.2-0.2-2.9-0.6s-1.2-0.9-1.4-1.5s-0.3-1.7-0.3-3.2v-1.2h3.9V28c0,0.7,0,1.1,0.1,1.3
		c0.1,0.2,0.3,0.3,0.5,0.3c0.3,0,0.5-0.1,0.6-0.4s0.1-0.8,0.1-1.8v-1.1c0-0.6-0.1-1-0.2-1.3s-0.3-0.5-0.6-0.6
		c-0.3-0.1-0.8-0.1-1.6-0.2V22c0.9,0,1.5,0,1.7-0.1c0.2-0.1,0.4-0.2,0.5-0.5s0.1-0.6,0.1-1.1v-0.9c0-0.6-0.1-0.9-0.2-1.1
		c-0.1-0.2-0.3-0.3-0.5-0.3c-0.3,0-0.5,0.1-0.6,0.3c-0.1,0.2-0.2,0.6-0.2,1.2v1.3h-3.9v-1.3c0-1.5,0.3-2.5,1-3.1
		c0.7-0.5,1.8-0.8,3.3-0.8c1.9,0,3.2,0.4,3.8,1.1c0.7,0.7,1,1.8,1,3.1c0,0.9-0.1,1.5-0.4,1.9C168.8,22.1,168.4,22.5,167.8,22.8z"/>
	<path class="st47" d="M171,27.6h3.9c0,0.7,0,1.2,0,1.4s0.1,0.4,0.2,0.5c0.1,0.1,0.3,0.2,0.6,0.2c0.2,0,0.4-0.1,0.5-0.2
		c0.1-0.1,0.2-0.3,0.2-0.5c0-0.2,0-0.6,0-1.2v-2.5c-0.2,0.4-0.5,0.7-0.9,1s-0.9,0.3-1.5,0.3c-0.7,0-1.4-0.2-1.9-0.6
		c-0.6-0.4-0.9-0.9-1.1-1.4c-0.2-0.5-0.2-1.3-0.2-2.2v-1.3c0-1.1,0-1.9,0.1-2.5s0.3-1,0.7-1.5c0.4-0.5,0.9-0.8,1.5-1.1
		s1.4-0.4,2.2-0.4c1.1,0,1.9,0.1,2.6,0.4c0.7,0.3,1.2,0.7,1.6,1.3s0.6,1.1,0.6,1.7s0.1,1.8,0.1,3.5v2.2c0,1.9,0,3.1-0.1,3.8
		c-0.1,0.6-0.3,1.2-0.7,1.8s-0.9,1-1.6,1.3s-1.5,0.4-2.4,0.4c-1.1,0-2-0.2-2.7-0.5c-0.7-0.4-1.2-0.9-1.5-1.5
		C171.1,29.4,171,28.5,171,27.6z M174.9,22.6c0,0.7,0.1,1.1,0.3,1.2c0.2,0.2,0.3,0.2,0.5,0.2c0.3,0,0.5-0.1,0.6-0.3s0.2-0.6,0.2-1.2
		v-2.9c0-0.7-0.1-1.2-0.2-1.4c-0.1-0.2-0.3-0.3-0.6-0.3c-0.2,0-0.3,0.1-0.5,0.2c-0.2,0.2-0.3,0.6-0.3,1.3V22.6z"/>
</g>
</svg>
