<?xml version="1.0" encoding="utf-8"?>
<!-- Generator: Adobe Illustrator 26.0.3, SVG Export Plug-In . SVG Version: 6.00 Build 0)  -->
<svg version="1.1" id="Слой_1" xmlns="http://www.w3.org/2000/svg" xmlns:xlink="http://www.w3.org/1999/xlink" x="0px" y="0px"
	 viewBox="0 0 195.6 280.6" style="enable-background:new 0 0 195.6 280.6;" xml:space="preserve">
<style type="text/css">
	.st0{clip-path:url(#SVGID_00000124149360446617948580000018042289562691480960_);fill:#549FD7;}
	
		.st1{clip-path:url(#SVGID_00000124149360446617948580000018042289562691480960_);fill-rule:evenodd;clip-rule:evenodd;fill:#A91916;}
	.st2{clip-path:url(#SVGID_00000124149360446617948580000018042289562691480960_);}
	.st3{fill-rule:evenodd;clip-rule:evenodd;fill:#424242;}
	.st4{fill:#3D82C3;}
	.st5{fill:#424242;}
	.st6{fill:#F7E73E;}
	.st7{fill-rule:evenodd;clip-rule:evenodd;fill:#FFFFFF;}
	.st8{fill-rule:evenodd;clip-rule:evenodd;fill:#D3361C;}
	.st9{fill-rule:evenodd;clip-rule:evenodd;fill:#201B18;}
	.st10{fill-rule:evenodd;clip-rule:evenodd;fill:#DA271E;}
	.st11{fill-rule:evenodd;clip-rule:evenodd;fill:#C0A062;}
	.st12{clip-path:url(#SVGID_00000124149360446617948580000018042289562691480960_);fill:#FFFFFF;}
	.st13{clip-path:url(#SVGID_00000124149360446617948580000018042289562691480960_);enable-background:new    ;}
	.st14{font-family:'Impact';}
	.st15{font-size:24.77px;}
	.st16{font-size:20px;}
</style>
<g>
	<defs>
		<rect id="SVGID_1_" x="0" y="0" width="195.6" height="280.6"/>
	</defs>
	<clipPath id="SVGID_00000030468687523441346770000012844651330958772141_">
		<use xlink:href="#SVGID_1_"  style="overflow:visible;"/>
	</clipPath>
	
		<rect x="-6.2" y="-8.4" style="clip-path:url(#SVGID_00000030468687523441346770000012844651330958772141_);fill:#549FD7;" width="214" height="297.9"/>
	
		<path id="path3250" style="clip-path:url(#SVGID_00000030468687523441346770000012844651330958772141_);fill-rule:evenodd;clip-rule:evenodd;fill:#A91916;" d="
		M73.8,210.8c-1,0-1.8-0.8-1.8-1.8v-1.8c0-1,0.8-1.8,1.8-1.8h1.8v5.4H73.8z M73.8,203.5c-2,0-3.6,1.6-3.6,3.6v1.8
		c0,2,1.6,3.6,3.6,3.6h3.6v-9.1H73.8z M81,212.6h-1.8v-9.1H81V212.6z M84.6,212.6h-1.8v-9.1h1.8l3.6,5.7v-5.7h1.8v9.1h-1.8l-3.6-5.7
		V212.6z M111.8,212.6h-5.4v-1.8h3.7V209h-3.6v-1.8h3.6v-1.8h-3.6v-1.8h5.4L111.8,212.6z M119,212.6h-1.8v-7.2h-3.6v-1.8h5.4
		L119,212.6z M100,205.3h-1.8c-1.5,0.1-2.6,1.4-2.6,2.9c0.1,1.4,1.2,2.5,2.6,2.6h1.8v-1.8h-1.8c-0.5-0.1-0.9-0.5-0.8-1
		c0-0.4,0.4-0.8,0.8-0.8h1.8L100,205.3z M98.2,214.4c-3.5,0-6.3-2.8-6.3-6.3c0-3.5,2.8-6.3,6.3-6.3c3.5,0,6.3,2.8,6.3,6.3l0,0
		C104.6,211.5,101.7,214.4,98.2,214.4C98.2,214.4,98.2,214.4,98.2,214.4L98.2,214.4z M98.2,212.6c-2.5,0-4.5-2-4.5-4.5
		s2-4.5,4.5-4.5c2.5,0,4.5,2,4.5,4.5l0,0C102.7,210.5,100.7,212.6,98.2,212.6C98.2,212.6,98.2,212.6,98.2,212.6L98.2,212.6z"/>
	<g id="Слой_1-2" style="clip-path:url(#SVGID_00000030468687523441346770000012844651330958772141_);">
		<path id="path10" class="st3" d="M98.3,148.9c3.6,6.4,10.4,10.3,17.7,10.2h22.3c5.9-0.1,10.8,4.6,10.9,10.6v97.4H47.1v-97.4
			c0.1-5.9,5-10.7,11-10.6c0,0,0,0,0,0h22.3c7.3,0.1,14.1-3.9,17.7-10.2H98.3z"/>
		<path id="path12" class="st4" d="M98.2,149.8c2.1,3.5,5.3,6.3,9,8c2.8,1.3,5.8,1.9,8.8,1.9h22.3c5.6-0.1,10.3,4.4,10.4,10l0,0
			v96.9h-101v-96.9l0,0c0.1-5.6,4.8-10.1,10.4-10h22.3c3,0,6.1-0.6,8.8-1.9C92.9,156.1,96,153.3,98.2,149.8L98.2,149.8z"/>
		<path id="path14" class="st5" d="M122.9,240.4c0,0.5-0.1,1-0.1,1.5c-0.2,1.3-0.5,2.5-1,3.7l1.2,2.6l-0.5,0.2l-0.2-0.4l0.1,0.4
			l-0.5,0.1l-0.1-0.4v0.3h-0.5l-0.1-2.9c-0.3-0.3-0.6-0.6-0.8-1c-0.1,0.4-0.3,0.8-0.6,1.2l1.2,2.7l-0.5,0.2l-0.2-0.4l0.1,0.4
			l-0.5,0.1l-0.1-0.4v0.4h-0.5l-0.1-3c-0.9-1.1-1.6-2.5-2.5-3.7l0,0c-1-1.2-2.1-2.3-3.3-3.4c-1.3-0.9-2.5-2.1-3.5-3.3l1.2-0.3
			c-0.7-0.7-1.2-1.5-1.6-2.4c0.3,0,0.7,0,1,0c-0.6-0.8-1-1.8-1.1-2.7c0.4,0.2,0.8,0.3,1.2,0.4c-0.5-1.1-0.9-2.4-1-3.6
			c0.4,0.2,0.9,0.3,1.3,0.3c0.2-1.1,0.4-2.3,0.4-3.4c0.1-1.2-0.1-2.4-0.3-3.5c-0.6,0-1.1-0.1-1.7-0.3c-0.7-0.3-1.3-0.7-1.8-1.1
			c-0.8-0.6-1.7-1.1-2.6-1.3c-0.9-0.2-1.8-0.4-2.8-0.3c-1,0-2,0-3-0.1c-1-0.1-2-0.3-3-0.5c-1.7-0.4-3.5-0.6-5.3-0.6
			c-1.7,0-3.4,0.2-5.1,0.5l0,0c-0.7,0.1-1.5,0.2-2.2,0.2l0,0c-0.7,0-1.5,0-2.2-0.2c-3.8-0.6-7.6-3.1-11.3-7.2
			c-1.8-2.2-3.9-4.1-6.2-5.6c-2.1-1.3-4.5-1.9-7-1.7c-0.8,0.1-1.6,0-2.3-0.2c-0.3-0.1-0.5-0.3-0.7-0.5c-0.2-0.2-0.3-0.5-0.3-0.8
			c0-0.4,0-0.7,0.2-1.1c0.3-0.8,0.8-1.6,1.5-2.2c0.6-0.5,1.4-0.9,2.2-1l0,0c0.4-0.1,0.8-0.1,1.3-0.2c0.4,0,0.9-0.1,1.3-0.1
			c2.2,0,4.4,0.4,6.5,1.3c0.1-0.8,0.5-1.5,1.2-1.9c-0.3-0.6-0.5-1.3-0.6-1.9c-0.1-0.7-0.1-1.3,0-2c0.1-0.6,0.3-1.2,0.6-1.6l0,0
			c0.4-0.5,1-0.9,1.7-1c1.5-0.2,3.1-0.2,4.6,0l1.2,0.1l0,0c1.2,0.1,2.4,0.2,3.6,0.3s2.4,0.3,3.6,0.4c0.4,0,0.9,0.2,1.5,0.3
			c1,0.3,2.1,0.4,3.2,0.4l0,0c0.2,0,0.3-0.1,0.4-0.3c0.5-0.5,0.6-1.1,1.6-1.2c0.3,0,0.6,0,0.9,0.2c0.4-0.4,0.9-0.8,1.4-0.9
			c0.5-0.1,1-0.1,1.4,0.2c0.2,0.1,0.4,0.2,0.5,0.4c0.3-0.2,0.7-0.3,1.1-0.3c0.7,0.1,1.3,0.5,1.6,1.1c0.5,0.8,0.9,1.7,1,2.7
			c2.1,0.2,4.2,0.2,6.3,0.1c-0.3-1.6,0.2-2.4,1.2-2.7c1.2-0.4,2.8-0.2,4.1-0.2l4.6-0.1h4.6c1.3,0,2.5,0.1,3.8,0.2s2.5,0.2,3.8,0.4
			c0.9,0.1,1.8,0.3,2.7,0.5l0,0l1.6,0.4c0.3,0.1,0.7,0.1,1,0.1c0.4,0.1,0.8,0,1.1-0.4c0.9-0.7,2-1.2,3.2-1.2c0.5-0.6,1.2-1,1.9-1.1
			c0.4-0.1,0.8,0,1.2,0.1c0.4,0.1,0.8,0.4,1.1,0.7c0.4-0.2,0.8-0.3,1.2-0.3c0.6,0.1,1,0.4,1.3,0.9c0.6,0.8,0.9,1.8,0.9,2.8
			c0,0.6-0.1,1.2-0.4,1.7c0.2,0.2,0.3,0.4,0.4,0.7c0.2,0.8,0.1,1.7-0.4,2.4c-0.3,0.5-0.7,1-1.1,1.4c-0.4,0.5-0.9,0.9-1.4,1.3l0,0
			l-0.4,0.2l-0.4,0.2c-0.6,0.2-1.4,0.2-2,0c-0.8-0.3-1.6-0.4-2.5-0.3c-0.9,0.1-1.7,0.4-2.5,0.8c-1,0.5-2.1,0.7-3.2,0.7
			c-0.1,0.4-0.1,0.7,0,1.1c0.2,0.8,0.2,1.6,0,2.4l0.8-0.5c0.1,1.1,0,2.1-0.1,3.2l1-0.4c0,1.7-0.3,3.5-0.9,5.1
			c-0.5,1.5-1.2,2.9-2,4.2c-0.9,1.5-1.6,3-2.2,4.6c-0.5,1.4-0.9,2.9-1,4.4c0.2-0.1,0.3-0.2,0.5-0.2l0,0c0.5-0.4,1.2-0.5,1.9-0.3
			c0.3,0.1,0.5,0.2,0.7,0.4l0,0c0.7,0.5,1,1.4,0.9,2.3c0.2,0,0.3,0.1,0.5,0.1c1.1,0.4,1.9,1.4,2.2,2.5c0.2,0.1,0.4,0.3,0.5,0.5
			c0.5,0.6,0.5,1.5-0.1,2c0,0-0.1,0.1-0.2,0.1l-0.3,0.3l0,0c-0.5,0.5-1.1,0.9-1.7,1.3l0,0c-0.9,0.5-1.7,1.3-2.1,2.2
			c-0.2,0.6-0.6,1.1-1,1.6C125.2,239.2,124.1,239.9,122.9,240.4L122.9,240.4z"/>
		<path id="path16" class="st6" d="M123.9,225.9c0.1-1.6,0.4-3.2,1-4.7c0.6-1.6,1.4-3.2,2.2-4.7c0.8-1.3,1.5-2.7,2-4.1
			c0.5-1.4,0.8-2.8,0.8-4.3l-1.1,0.4c0.1-1,0.2-2,0.2-3.1l-1.1,0.7c0.4-1.1,0.5-2.2,0.3-3.4c-0.1-0.6-0.1-0.9-0.1-1.2
			c-0.2-0.5-0.4-0.9-0.8-1.3c-0.4-0.8-1.1-1.5-1.9-1.9l-1.9,0.1c0.1,0.8-0.2,1.7-0.9,2.2c0.4-0.7,0.5-1.4,0.4-2.2h-1.6
			c0.1,1.2-0.8,2.4-2,2.6c1.1-0.6,1.6-1.8,1.4-3l0.1-0.1c3.3,0.1,6.5-0.1,9.7-0.8c1-0.2,2.1-0.7,3.1-0.8c0.5-0.1,1-0.1,1.4,0
			c1.5,0.2,2.9,0.1,4.4-0.3c1.4-0.6,2.4-1.9,2.3-3.5c0-0.9-0.3-1.8-0.9-2.5c-0.2-0.4-0.6-0.7-1-0.7c-0.3,0-0.5,0-0.8,0.2
			c0.3,0.4,0.5,0.8,0.6,1.3c0,0.3,0,0.6,0,0.9c0,0.1,0,0.3-0.1,0.4c-0.2,0.6-0.6,0.2-0.5,0c0.1-0.1,0.1-0.3,0.1-0.5
			c0-0.3,0-0.5,0-0.8c-0.1-0.6-0.4-1.1-0.9-1.4c-0.3-0.2-0.6-0.4-0.9-0.5c-0.3-0.1-0.7-0.1-1-0.1c-0.7,0.1-1.3,0.5-1.7,1.1
			c-1.1,0-2.2,0.4-3.1,1.1c-0.4,0.4-0.9,0.6-1.5,0.5c-0.3,0-0.7-0.1-1-0.1c-0.6-0.1-1.1-0.2-1.6-0.4l0,0c-0.9-0.2-1.7-0.4-2.7-0.5
			c-1.3-0.1-2.5-0.3-3.8-0.4s-2.5-0.1-3.8-0.2c-1.5,0-3,0-4.5,0s-3,0-4.6,0.1c-1.2,0-2.7-0.3-3.9,0.2c-1.7,0.6-0.7,3.1-0.2,4.2
			l-1-0.1c0.2,1.5,0.8,2.9,1.8,4.1c-0.5,0.3-1.1,0.5-1.6,0.6c1,1.2,2.1,2.2,3.4,3c-0.5,0.4-1.1,0.7-1.7,0.9c0.8,0.8,1.7,1.5,2.7,2.1
			c-1.4-0.5-2.6-1.3-3.6-2.4c0.3-0.1,0.6-0.2,0.9-0.3l0,0c0.3-0.1,0.6-0.3,0.8-0.4c-1.3-0.9-2.4-2-3.4-3.3c0.6,0,1.2-0.2,1.8-0.5
			c-1-1.3-1.5-2.9-1.6-4.5l0.8,0.1c-0.1-0.3-0.2-0.6-0.3-0.9c-2.1,0.1-4.2,0.1-6.3-0.1c0,1-0.4,1.9-1.1,2.7c-1,1.2-2.4,2-4,2.2
			c-1.1,0.2-2.3,0.2-3.4-0.1c2.6,1.8,4,3.6,4.4,5.6c0.5,2.8-0.5,5.7-2.6,7.6c1.7-2.3,2.6-5.4,2.1-7.5c-0.7-3.3-3.8-5.1-6.4-6.8
			c1.9,0.6,3.9,0.8,5.8,0.7c1.5-0.2,2.8-1,3.7-2.1c0.7-0.7,1-1.7,1-2.6c-0.1-0.9-0.4-1.8-0.9-2.6c-0.3-0.5-0.7-0.8-1.3-0.9
			c-0.2,0-0.5,0-0.7,0.2c0,0.1,0.1,0.1,0.1,0.2c0.2,0.4,0.3,0.8,0.3,1.3c0,0.3-0.1,0.5-0.1,0.8c-0.2,0.5-0.6,0.2-0.5,0
			c0.1-0.2,0.2-0.5,0.2-0.8c0-0.3-0.1-0.7-0.2-1c-0.2-0.3-0.4-0.5-0.7-0.7c-0.4-0.2-0.8-0.2-1.1-0.1c-0.5,0.1-0.9,0.4-1.2,0.7
			c0.1,0.1,0.1,0.2,0.2,0.2l0,0c0.2,0.4,0.3,0.8,0.3,1.2c0,0.5-0.5,0.4-0.5,0.1c0.1-0.4,0-0.7-0.2-1.1l0,0c-0.1-0.2-0.3-0.3-0.4-0.4
			c-0.2-0.1-0.3-0.1-0.5-0.1c-0.7,0.1-0.9,0.7-1.3,1.1c-0.2,0.2-0.4,0.3-0.7,0.4l0,0c-1.1,0.1-2.3-0.1-3.4-0.4
			c-0.6-0.1-1.1-0.2-1.4-0.3c-1.2-0.2-2.4-0.3-3.6-0.4s-2.4-0.2-3.6-0.3l0,0l-1.2-0.1c-1.5-0.2-3-0.2-4.5-0.1
			c-0.5,0.1-1,0.4-1.4,0.8l0,0c-0.3,0.4-0.5,0.9-0.6,1.4c-0.1,0.6-0.1,1.2,0,1.8c0.3,1.6,1,3,2,4.3c0.2,0.3-0.1,0.4-0.3,0.1
			c-0.6-0.6-1-1.3-1.3-2l0,0c-1.4,0.8-1.1,2.9-0.5,3.8c0.3,0.4-0.2,0.3-0.4,0c-0.3-0.5-0.5-1.2-0.5-1.8c-2-0.9-4.2-1.3-6.4-1.3
			c-0.4,0-0.9,0-1.3,0.1c-0.4,0-0.8,0.1-1.2,0.2l0,0c-0.7,0.2-1.4,0.5-2,1c-0.6,0.5-1.1,1.2-1.3,2c-0.1,0.3-0.2,0.6-0.2,0.9
			c0,0.2,0.1,0.4,0.2,0.5c0.1,0.2,0.3,0.3,0.5,0.3c0.7,0.2,1.4,0.3,2.1,0.2c2.5-0.3,5.1,0.3,7.3,1.7c2.3,1.6,4.5,3.5,6.3,5.7
			c3.6,4,7.3,6.4,11,7c0.7,0.1,1.4,0.2,2.1,0.2c0.7,0,1.4-0.1,2.1-0.2l0,0c1.7-0.4,3.5-0.5,5.2-0.6c1.8,0,3.6,0.2,5.4,0.6
			c1,0.2,1.9,0.4,2.9,0.5c1,0.1,1.9,0.1,2.9,0.1c1,0,2,0.1,2.9,0.4c1,0.3,1.9,0.7,2.8,1.4c0.5,0.4,1.1,0.8,1.7,1.1
			c0.5,0.2,1.1,0.3,1.7,0.2h0.2l0.1,0.2c0.3,1.3,0.5,2.6,0.4,3.9c-0.1,1.3-0.2,2.6-0.5,3.9c-0.4,0-0.8-0.1-1.2-0.1
			c0.2,1.2,0.6,2.4,1.2,3.5c-0.4,0-0.8-0.1-1.2-0.2c0.2,0.8,0.7,1.6,1.3,2.2c-0.3,0.2-0.7,0.2-1.1,0.3c0.5,0.8,1.1,1.6,1.8,2.2
			l-1.3,0.3c0.8,1,1.8,1.9,2.9,2.7l0,0c1.2,1,2.4,2.2,3.4,3.4l0,0c0.9,1.1,1.5,2.4,2.4,3.5c0.6-1.4,0.6-2.9,0.1-4.3
			c-0.1-1.2-0.9-2.2-2-2.6c-0.8-0.2-0.7-1.1-0.2-1.6c1.1-1,4.3-0.5,2.7,1c-0.4,0.4-0.4,0.9-0.2,1.5c0.1,0.3,0.2,0.7,0.2,1
			c0.9-0.1,1.8-0.3,2.7-0.6c1.2-0.4,2.2-1.1,3.1-1.9c0.4-0.4,0.7-0.9,1-1.5c0.5-1.1,1.3-1.9,2.3-2.4l0,0c0.6-0.4,1.1-0.8,1.6-1.2
			l0,0l0.3-0.3c0.4-0.3,0.5-1,0.2-1.4c0,0,0,0,0-0.1c-0.1-0.1-0.3-0.3-0.4-0.4h-0.1h-0.1c-0.1,0-0.3,0.1-0.4,0.2
			c-0.3,0.3-0.8,0.2-0.4-0.2c0.2-0.2,0.4-0.4,0.7-0.4c-0.3-0.9-1-1.6-1.9-2c-0.8-0.2-1.6-0.1-2.3,0.2c-0.4,0.2-0.7-0.2-0.4-0.3
			c0.6-0.3,1.3-0.5,1.9-0.5c0.2-0.7-0.1-1.4-0.7-1.9l0,0c-0.2-0.1-0.4-0.2-0.6-0.3c-0.5-0.1-1.1-0.1-1.5,0.2l0,0
			c-0.2,0.1-0.4,0.2-0.6,0.3c-0.2,0.1-0.4,0.2-0.7,0.2c-1.5,0.3-3.1,0.1-4.6-0.4c-1.3-0.4-2.6-0.8-3.9-0.4c0.3,0.3,0.5,0.6,0.6,1
			c-0.4,0-0.8,0.1-1.2,0.2l0,0c0.3,0.2,0.5,0.5,0.7,0.9c-0.2,0.3-0.5,0.5-0.8,0.7c0.7,0.3,1.5,0.5,2.2,0.7l-0.2,0.3l0,0
			c-0.2,0.5-0.5,0.9-0.8,1.3c0.7,0,1.3,0,2,0h0.6c-0.2,0.6-0.6,1.1-1,1.5h0.1l0,0c1,0.4,2.1,0.4,3.2,0.3c-1.1,0.5-2.3,0.6-3.4,0.2
			l0,0c-0.2-0.1-0.3-0.1-0.5-0.2l0,0l-0.3-0.1c0.4-0.3,0.7-0.7,1-1.2c-0.9,0-1.8,0-2.8-0.2c0.4-0.5,0.8-1,1.2-1.6
			c-0.8-0.2-1.5-0.6-2.4-0.7c0.3-0.4,0.6-0.8,1-1.1c-0.1-0.2-0.3-0.3-0.4-0.5l0,0c-0.2-0.2-0.5-0.3-0.7-0.5c0.5-0.2,1-0.4,1.5-0.5
			c-0.2-0.3-0.5-0.6-0.7-0.8c1.7-0.8,3.1-0.4,4.9,0.1c1.5,0.5,3,0.6,4.5,0.3L123.9,225.9z M128.9,201.1L128.9,201.1
			c1,0,2.1-0.2,3-0.7c0.8-0.5,1.7-0.8,2.7-0.9c0.9-0.1,1.8,0,2.7,0.4c0.5,0.2,1.1,0.2,1.7,0c0.1,0,0.2-0.1,0.3-0.1
			c0.1,0,0.2-0.1,0.3-0.2l0,0c0.5-0.4,0.9-0.8,1.4-1.2c0.4-0.4,0.7-0.9,1.1-1.4c0.4-0.6,0.5-1.3,0.3-2c0-0.1-0.1-0.2-0.2-0.3
			c-0.4,0.8-1.2,1.4-2,1.7c-1.5,0.5-3,0.6-4.6,0.4c-0.4-0.1-0.9-0.1-1.3,0c-1,0.1-2.1,0.6-3.1,0.8c-1.5,0.3-3.1,0.5-4.6,0.6
			c0.6,0.5,1.1,1.1,1.4,1.8C128.2,200.5,128.6,200.8,128.9,201.1L128.9,201.1z M120.4,243.8c0.3,0.5,0.7,1,1.1,1.4
			c0.4-1.1,0.7-2.2,0.9-3.4c0.1-0.4,0.1-0.8,0.1-1.2c-0.7,0.2-1.5,0.4-2.2,0.5C120.3,242,120.4,242.9,120.4,243.8z"/>
		<path id="path18" class="st5" d="M70.8,193.4c-0.2-0.9,0.2-1.4,0.7-1.7c0.7-0.2,1.3-0.2,2,0c0.6,0.1,1.3,0.2,1.9,0.3
			c-0.7,0.2-1.5,0.3-2.2,0.2c-0.6-0.1-1.2-0.1-1.7,0.2c-0.6,0.4-0.1,1.7,0.1,2.5C71.3,194.5,70.9,194,70.8,193.4L70.8,193.4z"/>
		<path id="path20" class="st5" d="M126.7,234.1c-0.2,0.5-0.6,0.8-1.1,0.8c-0.6,0-1.1,0-1.7,0c-0.4,0-0.7,0.1-1.1,0.2
			c0.1-0.3,0.3-0.5,0.6-0.6c-0.1-0.4,0.1-0.9,0.4-1.2l0,0c0.2-0.2,0.5-0.4,0.8-0.4c0.4,0,0.7,0.1,1,0.4c0.3,0.3,0.4,0.7,0.4,1.1
			C126.2,234.4,126.5,234.3,126.7,234.1L126.7,234.1z M125.5,234.4c0-0.3-0.1-0.5-0.2-0.7c-0.2-0.2-0.5-0.3-0.7-0.3
			c-0.5,0.1-0.8,0.5-0.7,1c0,0,0,0,0,0C124.3,234.4,124.9,234.4,125.5,234.4z"/>
		<circle id="circle22" class="st5" cx="127.1" cy="229.7" r="0.3"/>
		<circle id="circle24" class="st5" cx="127.8" cy="230.5" r="0.3"/>
		<circle id="circle26" class="st5" cx="127" cy="231.3" r="0.3"/>
		<circle id="circle28" class="st5" cx="128.8" cy="230.1" r="0.3"/>
		<ellipse id="ellipse30" class="st5" cx="110" cy="209.4" rx="0.7" ry="0.6"/>
		<ellipse id="ellipse32" class="st5" cx="126.6" cy="203.9" rx="0.7" ry="0.6"/>
		<ellipse id="ellipse34" class="st5" cx="112.4" cy="207.1" rx="0.7" ry="0.6"/>
		<ellipse id="ellipse36" class="st5" cx="107.8" cy="207.2" rx="0.7" ry="0.6"/>
		<ellipse id="ellipse38" class="st5" cx="120.8" cy="203.9" rx="0.7" ry="0.6"/>
		<ellipse id="ellipse40" class="st5" cx="122.4" cy="202.1" rx="0.7" ry="0.6"/>
		<ellipse id="ellipse42" class="st5" cx="116.9" cy="205.7" rx="0.7" ry="0.6"/>
		<ellipse id="ellipse44" class="st5" cx="100.4" cy="204.4" rx="0.7" ry="0.6"/>
		<ellipse id="ellipse46" class="st5" cx="96.8" cy="204.4" rx="0.7" ry="0.6"/>
		<ellipse id="ellipse48" class="st5" cx="89.5" cy="203.4" rx="0.7" ry="0.6"/>
		<ellipse id="ellipse50" class="st5" cx="77" cy="208.6" rx="0.7" ry="0.6"/>
		<ellipse id="ellipse52" class="st5" cx="72.1" cy="207" rx="0.7" ry="0.6"/>
		<ellipse id="ellipse54" class="st5" cx="74.9" cy="207" rx="0.7" ry="0.6"/>
		<ellipse id="ellipse56" class="st5" cx="78.5" cy="206" rx="0.7" ry="0.6"/>
		<ellipse id="ellipse58" class="st5" cx="81.3" cy="205.1" rx="0.7" ry="0.6"/>
		<ellipse id="ellipse60" class="st5" cx="87" cy="202.1" rx="0.7" ry="0.6"/>
		<ellipse id="ellipse62" class="st5" cx="83.9" cy="203" rx="0.7" ry="0.6"/>
		<ellipse id="ellipse64" class="st5" cx="87" cy="193.4" rx="0.9" ry="0.8"/>
		<ellipse id="ellipse66" class="st5" cx="86.2" cy="199.2" rx="0.9" ry="0.8"/>
		<ellipse id="ellipse68" class="st5" cx="104.8" cy="205.9" rx="0.9" ry="0.8"/>
		<ellipse id="ellipse70" class="st5" cx="98.6" cy="206.4" rx="0.9" ry="0.8"/>
		<ellipse id="ellipse72" class="st5" cx="102.7" cy="202.7" rx="0.9" ry="0.8"/>
		<ellipse id="ellipse74" class="st5" cx="98.1" cy="201.8" rx="0.9" ry="0.8"/>
		<ellipse id="ellipse76" class="st5" cx="95" cy="199.8" rx="0.9" ry="0.8"/>
		<ellipse id="ellipse78" class="st5" cx="98.1" cy="198.5" rx="0.9" ry="0.8"/>
		<ellipse id="ellipse80" class="st5" cx="101.2" cy="199.5" rx="0.9" ry="0.8"/>
		<ellipse id="ellipse82" class="st5" cx="100.8" cy="196.1" rx="0.9" ry="0.8"/>
		<ellipse id="ellipse84" class="st5" cx="81.9" cy="193.1" rx="0.9" ry="0.8"/>
		<ellipse id="ellipse86" class="st5" cx="78.4" cy="191.8" rx="0.9" ry="0.8"/>
		<ellipse id="ellipse88" class="st5" cx="82.2" cy="196.1" rx="0.9" ry="0.8"/>
		<ellipse id="ellipse90" class="st5" cx="78.1" cy="195.6" rx="0.9" ry="0.8"/>
		<ellipse id="ellipse92" class="st5" cx="73.1" cy="197" rx="1" ry="0.8"/>
		<ellipse id="ellipse94" class="st5" cx="70.1" cy="202.4" rx="1" ry="0.8"/>
		<ellipse id="ellipse96" class="st5" cx="81.9" cy="199.5" rx="1" ry="0.8"/>
		<ellipse id="ellipse98" class="st5" cx="76.5" cy="199.4" rx="1" ry="0.8"/>
		<ellipse id="ellipse100" class="st5" cx="74.3" cy="201.8" rx="1" ry="0.8"/>
		<ellipse id="ellipse102" class="st5" cx="77" cy="203.3" rx="0.9" ry="0.8"/>
		<ellipse id="ellipse104" class="st5" cx="73" cy="204.4" rx="0.9" ry="0.8"/>
		<ellipse id="ellipse106" class="st5" cx="71.9" cy="199.9" rx="0.9" ry="0.8"/>
		<ellipse id="ellipse108" class="st5" cx="90.3" cy="206.4" rx="0.7" ry="0.6"/>
		<ellipse id="ellipse110" class="st5" cx="87.4" cy="206.3" rx="0.7" ry="0.6"/>
		<ellipse id="ellipse112" class="st5" cx="108.2" cy="196.8" rx="1" ry="0.8"/>
		<ellipse id="ellipse114" class="st5" cx="115.4" cy="202.1" rx="1" ry="0.8"/>
		<ellipse id="ellipse116" class="st5" cx="124.1" cy="193.2" rx="1" ry="0.8"/>
		<ellipse id="ellipse118" class="st5" cx="118.1" cy="192.6" rx="1" ry="0.8"/>
		<ellipse id="ellipse120" class="st5" cx="112.2" cy="192.7" rx="1" ry="0.8"/>
		<ellipse id="ellipse122" class="st5" cx="109.1" cy="200.5" rx="1" ry="0.8"/>
		<ellipse id="ellipse124" class="st5" cx="126.2" cy="201.1" rx="0.9" ry="0.8"/>
		<ellipse id="ellipse126" class="st5" cx="110.9" cy="205.2" rx="0.9" ry="0.8"/>
		<ellipse id="ellipse128" class="st5" cx="117.3" cy="199.3" rx="0.9" ry="0.8"/>
		<ellipse id="ellipse130" class="st5" cx="111.7" cy="197.9" rx="0.9" ry="0.8"/>
		<ellipse id="ellipse132" class="st5" cx="108.2" cy="193.4" rx="0.9" ry="0.8"/>
		<ellipse id="ellipse134" class="st5" cx="115.6" cy="195.5" rx="0.9" ry="0.8"/>
		<ellipse id="ellipse136" class="st5" cx="121.4" cy="195.6" rx="0.9" ry="0.8"/>
		<ellipse id="ellipse138" class="st5" cx="126.9" cy="195.1" rx="0.9" ry="0.8"/>
		<ellipse id="ellipse140" class="st5" cx="80.1" cy="202.2" rx="0.9" ry="0.8"/>
	</g>
	<g id="Warstwa_1" style="clip-path:url(#SVGID_00000030468687523441346770000012844651330958772141_);">
		<path id="path10-2" class="st3" d="M154.5,10.9V90c-0.1,18.6-11.9,30.6-29,39.3c-3.7,1.9-7.4,3.6-11.3,5l0,0
			c-5.8,2.1-11.9,5.4-15.2,8.9l-0.8,0.9l-0.8-0.9c-3.3-3.7-9-6.6-14.5-8.8l0,0c-3.7-1.5-7.9-2.8-12.2-5c-17.1-8.5-28.7-21-28.7-39.4
			V10.9H154.5z"/>
		<path id="path10_0" class="st7" d="M77.8,130l1.4,0.5l0.2-29.2l0,0v-0.8c0.3-3.3,1.3-6.5,2.8-9.4c1.5-3.1,3.4-6,5.8-8.5
			c2.8-2.9,6.1-5.4,10.2-5.8l0,0c3.2,0.5,6.1,2,8.4,4.2c3,2.8,5.4,6.1,7.2,9.8c1.8,3.3,2.9,6.9,3.2,10.6v29.4l1.4-0.6v-28.8
			c-0.3-3.7-1.3-7.2-2.9-10.5c-1.8-3.9-4.4-7.3-7.5-10.2c-2.7-2.5-6.1-4.4-9.7-5.3c-3.9,0.6-7.5,2.4-10.5,5
			c-3.2,2.9-5.7,6.4-7.5,10.4c-1.5,3.3-2.4,6.9-2.6,10.5V130L77.8,130z M80.2,101.3L80,130.8l1.3,0.5v-28.7
			c0.2-3.7,1.2-7.3,2.9-10.6c1.5-3,3.6-5.8,6-8.2c2.2-2.3,5-3.9,8-4.8c2.6,0.8,4.9,2.1,6.9,3.8c2.6,2.3,4.8,5.1,6.4,8.3
			c1.9,3.5,2.9,7.4,3,11.3v29.3l1.8-0.7v-29.7c-0.3-3.6-1.4-7.1-3.1-10.2c-1.8-3.6-4.3-6.8-7.2-9.6c-2.1-2.1-4.8-3.5-7.8-4
			c-3.8,0.4-7.2,2.8-9.7,5.6c-2.3,2.5-4.1,5.3-5.6,8.3C81.3,94.5,80.3,97.9,80.2,101.3L80.2,101.3L80.2,101.3z M122.7,66.2h-5.8
			v-5.1h5.8V66.2z M134.4,61.1v5.1h-11.4v-5.1L134.4,61.1z M140.5,61.1v5.1h-5.7v-5.1L140.5,61.1z M128.5,71.5h-11.6v-4.9h11.6V71.5
			z M140.5,71.5h-11.7v-4.9h11.7V71.5z M56.5,60.8v-5h11.6v5.1L56.5,60.8z M56.5,66.2v-5.1h5.7v5.1H56.5z M79.6,55.7v5.1H68.5v-5.1
			H79.6z M68.1,71.5H56.5v-4.9h11.6V71.5z M79.6,71.5H68.5v-4.9h11.1V71.5z M104.4,60.8v-5.1h6.2v5.1H104.4z M74.3,61.2h5.3v5.1
			h-5.3L74.3,61.2z M73.9,66.3H62.5v-5.1h11.4V66.3z M128.9,55.7h11.6v5.1h-11.6L128.9,55.7z M86.1,60.8v-5.1h6.2v5.1H86.1z
			 M92.2,61.2h0.4v-5.4H104v5.5h6.5v5.1H86.1v-5.1L92.2,61.2z M123,128.1c-1.4,0.7-2.6,1.3-3.8,1.8v-1.8H123z M134.4,101.3h-11.3v-5
			h11.3L134.4,101.3L134.4,101.3z M134.4,111.7h-11.3v-5h11.3L134.4,111.7z M140.6,106.4h-11.7v-4.8h11.7L140.6,106.4L140.6,106.4z
			 M146.1,101.3h-11.3v-5h11.3L146.1,101.3z M140.5,91v4.9h-11.7V91H140.5z M134.4,85.6v5.1h-11.3v-5.1L134.4,85.6z M146.1,85.6v5.1
			h-11.3v-5.1L146.1,85.6z M134.8,80v-5.1h11.3v5.1L134.8,80z M123.1,80v-5.1h11.3v5.1L123.1,80z M140.5,80.3v4.9h-11.7v-4.9
			L140.5,80.3z M110.9,74.9h11.9V80h-11.9L110.9,74.9z M116.9,80.3h11.6v4.9h-11.6L116.9,80.3L116.9,80.3z M77.1,128.2v1.6
			c-1.3-0.5-2.6-1-3.8-1.6H77.1z M62.1,101.3H50.7v-5h11.5L62.1,101.3z M68.1,117.2H56.5v-5h11.5L68.1,117.2z M68.1,106.4H56.5v-4.8
			h11.6L68.1,106.4z M73.9,122.4H63l-0.5-0.3v-4.6H74L73.9,122.4z M73.9,111.7H62.5v-5H74L73.9,111.7L73.9,111.7z M73.9,101.2H62.5
			v-5H74L73.9,101.2L73.9,101.2z M68.1,91v4.9H56.5V91H68.1z M62.2,85.5v5.1H50.7v-5.1H62.2z M74,85.5v5.1H62.5v-5.1H74z M62.5,79.9
			v-5.1H74v5.1H62.5z M50.7,79.9v-5.1h11.5v5.1H50.7z M68.1,80.3v4.8H56.5v-4.8L68.1,80.3z M79.6,85.2H68.4v-4.8h11.1V85.2z
			 M108.3,79.9c-2.6-2.3-5.7-4.1-9.1-5.1h11.3v5.1H108.3z M113,85.2c-1.3-1.8-2.7-3.4-4.3-4.9h7.8v4.9H113z M116.2,90.6
			c-0.8-1.8-1.8-3.5-2.9-5.1h9.4v5.1H116.2z M118.2,95.9c-0.5-1.7-1.1-3.3-1.8-4.9h12.1v4.9L118.2,95.9L118.2,95.9z M119.2,101.3
			c-0.1-1.7-0.4-3.4-0.8-5h4.4v5H119.2z M119.2,106.4v-4.8h9.3v4.8H119.2z M119.2,111.7v-5h3.6v5H119.2z M119.2,117.1v-5h9.3v5
			H119.2z M119.2,122.4v-4.9h3.6v4.9L119.2,122.4z M128.5,125.2c-1.3,0.7-2.6,1.5-4,2.2l0,0l-0.8,0.4h-4.5v-5h9.3L128.5,125.2
			L128.5,125.2z M132.4,122.8c-1.1,0.7-2.3,1.5-3.5,2.2v-2.2H132.4z M134.4,121.4c-0.5,0.3-1,0.7-1.5,1h-9.8v-4.9h11.3V121.4z
			 M139.4,117.5c-1.5,1.3-3,2.5-4.6,3.7v-3.7H139.4z M140.5,116.5l-0.7,0.6h-11v-5h11.7L140.5,116.5z M144.6,112.1
			c-1.1,1.4-2.4,2.7-3.7,4v-4H144.6z M146.1,110.1c-0.4,0.6-0.8,1.1-1.2,1.6h-10.1v-5h11.3L146.1,110.1L146.1,110.1z M148.2,106.8
			c-0.5,1-1.1,1.9-1.7,2.8v-2.8H148.2z M150.4,101.6c-0.6,1.6-1.2,3.2-2.1,4.8h-7.4v-4.8L150.4,101.6z M151.8,96.2
			c-0.3,1.7-0.7,3.4-1.2,5h-4.1v-5H151.8z M152.3,91c0,1.6-0.2,3.3-0.4,4.9h-10.9V91L152.3,91z M152.3,85.5V90c0,0.2,0,0.4,0,0.6
			h-5.8v-5.1L152.3,85.5z M152.3,80.3v4.9h-11.4v-4.9L152.3,80.3z M152.3,74.8v5.1h-5.8v-5.1L152.3,74.8z M44.1,79.9v-5.1h6.2v5.1
			H44.1z M44.1,85.2v-4.8h12v4.8L44.1,85.2z M44.1,90.6c0-0.2,0-0.4,0-0.6v-4.5h6.2v5.1L44.1,90.6z M44.5,95.9
			c-0.2-1.6-0.4-3.2-0.4-4.9h12v4.9L44.5,95.9z M45.8,101.3c-0.5-1.6-0.9-3.3-1.2-5h5.7v5H45.8z M47.9,106.4c-0.8-1.5-1.5-3.1-2-4.8
			h10.2v4.8H47.9z M50.3,110.3c-0.8-1.1-1.5-2.3-2.2-3.6h2.2V110.3z M51.3,111.8l-0.7-0.9l0,0v-4.1h11.5v5L51.3,111.8z M56.1,117.1
			c-1.7-1.5-3.2-3.2-4.6-5h4.6V117.1z M62.1,121.8c-1.9-1.3-3.8-2.8-5.5-4.3h5.5V121.8z M68.1,125.5c-1.6-0.9-3.1-1.8-4.5-2.7h4.5
			V125.5z M77.1,122.8v5h-4.7l-0.9-0.4l0,0c-1-0.5-2.1-1.1-3.1-1.6v-2.9L77.1,122.8z M77.1,117.5v4.9h-2.8v-4.9L77.1,117.5z
			 M77.1,112.1v5h-8.7v-5H77.1z M77.1,106.8v5h-2.8v-5H77.1z M77.1,101.6v4.8h-8.7v-4.8H77.1z M77.8,96.2c-0.4,1.6-0.6,3.3-0.7,5
			v0.1h-2.8v-5L77.8,96.2z M79.5,91c-0.7,1.6-1.2,3.2-1.6,4.9h-9.4V91H79.5z M82.4,85.5c-1.1,1.6-2,3.3-2.8,5.1h-5.3v-5.1H82.4z
			 M86.8,80.3c-1.6,1.4-3,3.1-4.2,4.8H80v-4.9L86.8,80.3z M86.1,74.8h10.8c-3.6,0.8-7,2.6-9.7,5.1h-1.1V74.8z M85.8,79.9H74.3v-5.1
			h11.4L85.8,79.9z M79.7,36.7c0,0.6-0.2,1.1-0.6,1.6c-0.4,0.5-1.1,0.8-1.8,0.7H58.9c-0.7,0-1.3-0.2-1.8-0.7c-0.4-0.4-0.6-1-0.5-1.6
			L79.7,36.7L79.7,36.7z M74.3,30.8v-6.9h5.4v6.9H74.3z M65.5,30.8v-6.9H71v6.9H65.5z M56.6,30.8v-6.9h5.6v6.9H56.6z M62.2,31.2v5.2
			h-5.6v-5.2H62.2z M68.1,31.2v5.2h-5.6v-5.2H68.1z M74,31.2v5.2h-5.5v-5.2H74L74,31.2z M79.7,31.2v5.2h-5.4v-5.2H79.7z M64.3,50.3
			v5h-5.8v-5H64.3z M77.3,50.3v5h-5.6v-5H77.3z M71.7,44.6v-5.3h5.6v5.2L71.7,44.6z M58.6,44.6v-5.3h5.8v5.2L58.6,44.6z M67.5,44.6
			h-2.8v-5.3h6.6v5.2h-2.1v-2.1h-1.7C67.5,42.5,67.5,44.6,67.5,44.6z M66,50h-7.4v-5h8.9v1.7c-1.3,0.4-2,1.9-1.6,3.2
			C66,49.9,66,49.9,66,50z M70.6,50.4h0.7v5h-6.6v-5h1.4c0.7,1.2,2.3,1.6,3.5,0.9C70.1,51,70.3,50.7,70.6,50.4L70.6,50.4z
			 M69.2,46.7L69.2,46.7V45h8.1v5h-6.6c0.1-0.3,0.2-0.6,0.2-0.9C70.9,48,70.2,47,69.2,46.7L69.2,46.7z M91.5,30.8h-5.4v-5.3h5.4
			V30.8z M105.1,25.5h5.4v5.3h-5.4V25.5z M91.5,18.4v6.7h-5.4v-6.7H91.5z M101.1,18.4v6.7h-5.6v-6.7H101.1z M110.5,18.4v6.7h-5.4
			v-6.7H110.5z M98.4,25.5h6.4v5.3h-6.4V25.5z M98,30.8h-6.1v-5.3H98V30.8z M88.4,33.6c-0.6,0-1.3-0.3-1.7-0.7
			c-0.4-0.5-0.6-1.1-0.6-1.7h24.5c0,0.6-0.2,1.2-0.6,1.7c-0.4,0.4-1,0.7-1.6,0.7H88.4z M98.4,50.3h9.6v5h-9.6L98.4,50.3z M98,55.3
			h-9.4v-5H98L98,55.3L98,55.3z M94.2,50h-5.6v-5h5.6C94.2,45,94.2,50,94.2,50z M102.2,45h5.8v5h-5.8V45z M94.2,39h-5.6v-5.1h5.6
			L94.2,39z M102.2,33.9h5.8V39h-5.8L102.2,33.9z M97.3,39h-2.7v-5.1h7.2V39H99v-2.4h-1.7V39z M96.1,44.6h-7.5v-5.2h8.7v1.4
			c-1,0.4-1.7,1.3-1.7,2.4C95.6,43.7,95.8,44.2,96.1,44.6L96.1,44.6z M99.9,45h2v5h-7.3v-5h1.9C97.5,45.9,98.9,45.9,99.9,45z
			 M99,40.8L99,40.8v-1.4h9v5.2h-7.8c0.8-1.1,0.6-2.7-0.5-3.5C99.5,41,99.3,40.8,99,40.8z M126.1,30.8v-6.9h5.5v6.9L126.1,30.8z
			 M140.5,23.9v6.9h-5.7v-6.9L140.5,23.9z M134.8,36.3v-5.1h5.7v5.2L134.8,36.3z M116.8,36.3v-5.1h5.9v5.2L116.8,36.3z M128.8,31.1
			h5.6v5.2h-5.6V31.1z M128.4,36.3H123v-5.1h5.4V36.3L128.4,36.3z M122.7,23.9v6.9h-5.9v-6.9H122.7z M137.9,55.4h-6v-5h6V55.4z
			 M119.3,50.4h6.4v5h-6.4V50.4z M44.1,60.8v-5.1h6.2v5.1H44.1z M44.1,66.3v-5.1h6.2v5.1H44.1z M44.1,71.5v-4.9h12v4.9H44.1z
			 M152.3,71.9v2.6H44.1v-2.6h44.4v-0.4H80v-4.9h36.6v4.9H108v0.4L152.3,71.9z M152.3,66.6v4.9h-11.4v-4.9H152.3z M152.3,61.2v5.1
			h-5.8v-5.1H152.3z M152.3,55.7v5.1h-5.8v-5.1L152.3,55.7z M125.7,44.6h-6.4v-5.2h6.4V44.6z M131.9,39.4h5.9v5.2h-5.9V39.4z
			 M127.8,44.6h-1.8v-5.2h5.5v5.2h-2v-2.1h-1.7L127.8,44.6L127.8,44.6z M126.3,50h-7v-5h8.5v1.7c-1,0.3-1.7,1.3-1.7,2.3
			C126.2,49.3,126.2,49.6,126.3,50L126.3,50z M130.9,50.4h0.6v5h-5.5v-5h0.5c0.7,1.2,2.3,1.6,3.5,0.9
			C130.4,51,130.7,50.7,130.9,50.4z M129.6,46.7L129.6,46.7V45h8.3v5h-6.8c0.5-1.3-0.1-2.8-1.4-3.3
			C129.6,46.7,129.6,46.7,129.6,46.7z M138.2,39c0.7,0.1,1.3-0.2,1.8-0.7c0.4-0.4,0.6-1,0.6-1.6h-23.7c0,0.6,0.2,1.1,0.6,1.6
			c0.4,0.5,1.1,0.8,1.7,0.7L138.2,39z M128.5,60.8h-11.7v-5.1h11.7V60.8z"/>
		<path id="path10_1" class="st8" d="M116.5,36.7V23.5h6.6v7.3h2.7v-7.3h6.2v7.3h2.5v-7.3h6.4v13.2c0,0.7-0.2,1.3-0.7,1.8
			c-0.5,0.6-1.2,0.9-2,0.8l0,0v16h2.7v10.9h5.2V55.4h6.2V13.1H44.1v42.3h6.5v0.4l0,0v10.5h5.5V55.7l0,0v-0.4h2v-16l0,0v-0.1
			c-0.5-0.1-1-0.4-1.3-0.8c-0.4-0.5-0.7-1.2-0.7-1.8V23.5h6.3v7.3h2.6v-6.9l0,0v-0.4h6.3v7.3H74v-6.9l0,0v-0.4h6.1v13.2
			c0,0.7-0.2,1.3-0.7,1.8c-0.5,0.5-1.1,0.8-1.8,0.8l0,0v16H80v10.9h5.8V55.4h2.6V33.9c-0.7,0-1.4-0.3-1.9-0.9
			c-0.4-0.5-0.7-1.2-0.7-1.9V18h6.2v7.1h3.2V18h6.3v7.1h3.3V18h6.2v13.2c0,0.7-0.2,1.3-0.7,1.9c-0.5,0.5-1.2,0.9-1.9,0.9l0,0v21.4
			h2.6v0.4l0,0v10.5h5.6V55.4h2.4v-16l0,0c-0.7,0-1.3-0.3-1.8-0.8C116.8,38,116.5,37.4,116.5,36.7L116.5,36.7z M82,131.6l0.1-29
			c0.2-3.6,1.2-7.1,2.9-10.3c1.5-2.9,3.4-5.6,5.8-7.9c2.1-2.1,4.6-3.7,7.5-4.6c2.5,0.8,4.7,2.1,6.6,3.8c2.5,2.3,4.5,5,6.1,8
			c1.7,3.4,2.7,7.1,2.8,10.9v29.6l-0.3,0.1c-5.6,2.1-11.4,5-15.2,8.7c-3.8-3.7-9.2-6.5-14.5-8.6L82,131.6z"/>
		<path id="path1021" class="st3" d="M88.9,97.1l-2.7,1l2.2,2.6v17.4l-3.4,3.2l0.3,0.2c2.4,1.3,4.1,3.4,4.9,6l0.1,0.3l7.9-5.3
			l-0.6-0.9l0.7-0.4l-0.9-1.2l-4.1,2.5c-0.3-0.6-0.8-1.9-2.1-1.9l2.8-2.8l0.1-4.7l3.7-0.8c3.3,3.8,5.5,8.4,6.7,13.3l0.1,0.3l6.4-3.9
			l-0.4-1l0.6-0.5l-0.4-1.2l-2.4,1.2c-0.9-3.7-2.9-7.2-5.7-9.8l2.7-1c3.2-1.1,1.7-13.7-4.7-12.4l-7.8,1.5l-2-1.8l0,0l-1.2,0.6
			L88.9,97.1L88.9,97.1z"/>
		<path id="path1021_2" class="st7" d="M88.8,97.7l2.8,2.9h0.1c1.2-0.2,3.6-0.9,5.9-1.4c1.1-0.2,2.2-0.4,3.3-0.5c0.3,0,0.6,0,0.9,0
			c0.8,0.1,1.5,0.4,2,1c0.4,0.4,0.6,0.9,0.9,1.4c0.5,1.1,0.8,2.3,0.9,3.5c0.1,1.1,0.1,2.2,0,3.3c0,0.4-0.1,0.7-0.2,1.1
			c-0.1,0.2-0.2,0.3-0.3,0.4l-4.6,1.7l0.3,0.3c3,3,5.1,6.9,6,11.1l0.1,0.3l0.3-0.2l2.9-1.6l0.3,0.9l-5.4,3.3
			c-1.2-4.9-3.5-9.4-6.8-13.3l-0.1-0.1l-5.7,1.1v4.7l-3,3l0.3,0.1c1.4,0.5,2.5,1.6,2.9,3.1l0.1,0.3l4.5-2.6l0.5,0.8l-7,4.6
			c-0.8-2.5-2.5-4.6-4.7-5.9l3.1-2.8v-17.8L87,98.3L88.8,97.7z"/>
		<path id="path1021_3" class="st9" d="M100.2,100.2c-0.7,0-1.4,0-2.2,0.2l-3.6,0.7l-2.2,0.4v10.3l8.8-2.2l0,0c0.5-0.2,0.8-0.5,1-1
			c0.1-0.2,0.2-0.4,0.3-0.6l0.2-0.4c0.3-0.9,0.4-1.8,0.3-2.7c0-1.4-0.4-2.7-1.1-3.8C101.3,100.6,100.7,100.3,100.2,100.2
			L100.2,100.2z"/>
		<path id="path1021_4" class="st10" d="M94.5,109.5l7.5-1.8c0.8-2.1,0.5-4.4-0.6-6.3c-0.3-0.4-0.7-0.7-1.2-0.7c-0.7,0-1.3,0-2,0.2
			l-3.7,0.7L94.5,109.5z"/>
		<path id="path1037" class="st11" d="M66-3.9c-1.5-5.4,3.6-10.9,10.4-13.8c6.6-2.6,13.6-3.7,20.7-3.4c0.3,2.9,0.2,5.6-1.7,7.5
			c0.7,1.2,1.8,2.4,1.9,3.7c-2.2-2-4.6-2.5-5.4,0.4c-0.2,2.1,1.6,4.2,0.9,6.8c4-0.8,2.1-2.8,3.1-4.1c1.8,3.4,1.5,9.5-3.3,7.6
			c-1.7-1.7-2.3-3.3-0.8-4.7l-2.3-5.9L88.2-4l1.2,1.4c0.2,2-0.1,3.7-1,4.6c-4.3,1-5.6-3.7-3.8-6.7c1,0.9-0.5,3,3.1,2.5
			c-2.3-1.9,2.4-7.1-2.1-8c-2.5,0-2.2,1.2-3.2,1.8l0.2-1l1.1-2.7l-3.4-4.5l-1.5,5.3l2.2,2.8l0.5,0.9c-2.7-1.3-4.6-0.6-4.7,1.6
			c0.1,1.7,2.4,3.5,2.3,5.5c2.9-1.4,0.9-2.5,1.4-3.7c2.7,1.6,3.1,7.2-0.3,7.1c-2.7-0.6-3.6-2.7-2.6-4.6l-3-4.6v5.9
			c1.8,1.5,0.7,4.3-1.7,5.9c-2,0.3-3.6-1.7-3.9-3.7c-0.3-1.5,1.3-2.8,0.9-3.9c1.3,1.1-0.2,3.5,3.9,3.2c-2.5-1.5,0.3-5-1.6-7.7
			C69.8-8.1,67.9-6.5,66-3.9L66-3.9z M130-3.7c1.3-5.2-3.8-11.4-10.5-14.2c-6.3-2.6-14.4-3.4-20.6-3.2c-0.3,2.9,0.2,5.7,2,7.6
			c-1,1-1.8,2.2-2.2,3.6c2.2-2,4.6-2.5,5.4,0.4c0.1,2.1-1.4,3.8-0.7,6.5c-2.8-0.6-1.9-3.2-2.7-3.8c-3,3.3-1.9,9.7,2.9,7.8
			c1.5-0.9,2-2.8,1.1-4.2c-0.1-0.3-0.3-0.5-0.5-0.7c0.9-1.8,1.7-3.7,2.4-5.6c0.2,2.1,0.6,4.1,1.4,6.1L107-2.7
			c-0.7,1.5-0.3,3.2,0.9,4.2c3.6,1,6-3.8,4.3-6.8c-1,0.8,0.1,2.8-3.2,2.8c2.9-1.8-2.7-7,1.6-8c2.5,0,1.1,1.1,2.7,1.8l0.2-1.6
			l-0.7-1.5l3.7-4.3l0.7,5l-1.5,1.4L114.9-8c2.7-1.3,4.5-0.7,4.6,1.5s-4.4,2.7-2.3,5.8c-2.9-1.4-1.5-2.9-2-4.1
			c-2.6,1.9-2.7,8.1,0.8,8c2.7,0.5,3.6-2.1,2.4-4.2c1.3-1.3,2.4-2.9,3.2-4.6l0.1,5.7c-2.2,1.5-1.8,3.7,1.4,5.2c2,0.8,4-1.1,4.3-3.2
			c0.2-1.5-0.6-2.3-0.6-3.4c-1.2,0.6,0.1,3-3.5,2.7c2.5-1.4-1.5-4.2,0.4-6.9C125.6-7.5,128-6.3,130-3.7L130-3.7z M98.8-32.5h-1.3
			l0.4,1.7L95.6-31v1h2.3v2.5H97c-1.2,0-2.1,0.9-2.2,2.1l0,0c0,1.2,1,2.1,2.2,2h0.4v0.4c-14,0.2-24.3,3.7-31.3,9.9
			c-2.4,3.2-4.5,2.2-6.5-0.5l-0.9-0.5l13.8,28.8c8.7-2.1,16.6-3.5,24.5-3.7c8.7,0,17.5,1.2,25.9,3.6l15.1-28.8
			c-2.4,0.8-4.4,4.9-7.1,2.4c-7.1-8-17.8-11.4-31.5-11.2v-0.4c1.1,0,2.1-1,2.1-2.1l0,0c0-1.2-1-2.1-2.2-2.1h-0.5V-30l1.7,0.2
			l-0.1-1.1l-1.7,0.2L98.8-32.5L98.8-32.5z"/>
		<path id="path1013" class="st3" d="M97.5,58.2l0.2,0.7l-0.8-0.2v1.5l0.9-0.3v0.5c0,0-0.1,0-0.1,0c-0.8,0.2-1.3,0.9-1.3,1.8v0.1
			c-0.1-0.1-0.3-0.1-0.4-0.1h-0.2c0,0,0-0.1,0-0.1c0-0.4-0.3-0.7-0.7-0.7c-0.1,0-0.2,0-0.3,0.1c0-0.4-0.3-0.7-0.7-0.7
			c-0.2,0-0.3,0.1-0.5,0.2c-0.1-0.3-0.4-0.5-0.7-0.5c-0.2,0-0.5,0.1-0.6,0.3c-0.1-0.2-0.4-0.3-0.6-0.3c-0.3,0-0.6,0.2-0.7,0.6
			c-0.1-0.1-0.3-0.1-0.4-0.1c-0.4,0-0.7,0.3-0.7,0.7c0,0,0,0,0,0v0c-0.1,0-0.1,0-0.2,0c-0.4,0-0.7,0.4-0.7,0.8c0,0.1,0,0.1,0,0.2
			h-0.1c-0.4,0-0.7,0.3-0.7,0.7c0,0.1,0,0.2,0.1,0.3c-0.4,0-0.6,0.3-0.6,0.7c0,0.2,0.1,0.5,0.3,0.6c-0.3,0.1-0.5,0.4-0.5,0.7
			c0,0.2,0.1,0.5,0.3,0.6c-0.2,0.1-0.3,0.4-0.3,0.6c0,0.3,0.1,0.5,0.4,0.6c-0.2,0.1-0.3,0.3-0.3,0.6c0,0.3,0.2,0.6,0.5,0.7
			c-0.1,0.1-0.2,0.3-0.2,0.5c0,0.3,0.2,0.6,0.6,0.7c-0.1,0.1-0.1,0.3-0.1,0.4c0,0.3,0.2,0.6,0.5,0.7c-0.1,0.1-0.2,0.3-0.2,0.5
			c0,0.4,0.3,0.7,0.7,0.7l0,0c0.2,0,0.3-0.1,0.5-0.2c0,0.4,0.2,0.8,0.4,1.1c0.3,0.3,0.7,0.5,1.1,0.5c0.1,0,0.1,0,0.2,0
			c0.9-0.4,1.3-0.7,1.6-0.8c0.3-0.1,0.6-0.1,0.9,0c0.1,0,0.3,0,0.4-0.1c0.1,0,0.3-0.1,0.4-0.2c0.2-0.1,0.5-0.3,0.8-0.4
			c0.2-0.1,0.4-0.1,0.6,0c0.2,0,0.5,0,0.7,0c0.5-0.2,1-0.3,1.5-0.4c0.2,0,0.5,0.1,0.7,0.2c0.2,0.1,0.5,0.2,0.8,0.1
			c0.6-0.1,1.2,0,1.8,0.4c0.4,0.3,1,0.5,1.5,0.4c0.5-0.2,1.1-0.1,1.5,0.2c0.1,0.1,0.3,0.2,0.5,0.4c0.2,0.1,0.4,0.2,0.7,0.2
			c0.4,0,0.8-0.2,1-0.6c0.2-0.3,0.4-0.7,0.4-1.1c0.1,0.1,0.3,0.1,0.4,0.1c0.4,0,0.7-0.3,0.7-0.7c0-0.2-0.1-0.4-0.2-0.5
			c0.4-0.1,0.6-0.5,0.5-0.9c0-0.1-0.1-0.2-0.1-0.2c0.3-0.1,0.6-0.4,0.6-0.7c0-0.2-0.1-0.3-0.2-0.5c0.3-0.1,0.4-0.4,0.4-0.7
			c0-0.2-0.1-0.4-0.3-0.6c0.2-0.1,0.4-0.4,0.4-0.7c0-0.3-0.1-0.5-0.3-0.6c0.2-0.1,0.3-0.4,0.3-0.6c0-0.3-0.2-0.6-0.4-0.7
			c0.2-0.1,0.3-0.4,0.3-0.6c0-0.4-0.3-0.7-0.6-0.7c0.1-0.1,0.1-0.2,0.1-0.3c0-0.4-0.3-0.7-0.7-0.7h-0.1c0.1-0.4,0-0.8-0.4-0.9
			c-0.1,0-0.2-0.1-0.3-0.1c-0.1,0-0.1,0-0.2,0v0c0-0.4-0.4-0.7-0.8-0.7c-0.1,0-0.2,0.1-0.3,0.1c-0.1-0.3-0.4-0.6-0.7-0.6
			c-0.3,0-0.5,0.1-0.6,0.3c-0.2-0.3-0.7-0.4-1-0.2c-0.2,0.1-0.3,0.2-0.3,0.4c-0.1-0.1-0.3-0.2-0.5-0.2c-0.4,0-0.7,0.3-0.7,0.7
			c-0.1,0-0.2-0.1-0.3-0.1c-0.4,0-0.7,0.3-0.7,0.7c0,0.1,0,0.1,0,0.2c-0.1,0-0.2,0-0.3,0c-0.1,0-0.2,0-0.3,0.1c0,0,0-0.1,0-0.1
			c0-0.8-0.5-1.5-1.3-1.8l-0.1,0V60l0.9,0.3v-1.5l-0.7,0.2l0.2-0.7L97.5,58.2z"/>
		<path id="path1013_5" class="st11" d="M101.3,62.8l-0.2,0.1c0-0.1,0-0.1,0-0.2L101.3,62.8z M100.5,63.8l-0.1,0.1
			C100.4,63.8,100.4,63.8,100.5,63.8L100.5,63.8L100.5,63.8z M99.8,64.8L99.7,65c0-0.1,0-0.1-0.1-0.2L99.8,64.8L99.8,64.8z
			 M98.9,66.7c-0.2,0.4-0.3,0.7-0.4,1s-0.2,0.6-0.3,0.8c-0.1-0.3-0.2-0.7-0.3-1s-0.2-0.6-0.4-1C98,66.8,98.5,66.8,98.9,66.7
			L98.9,66.7z M108.5,66.3c0.3,0,0.5,0.2,0.5,0.4c0,0,0,0,0,0c0,0.3-0.2,0.5-0.5,0.5c-0.3,0-0.5-0.2-0.5-0.5
			C108,66.5,108.2,66.3,108.5,66.3C108.5,66.3,108.5,66.3,108.5,66.3L108.5,66.3z M108.4,68.5c-0.1,0-0.2-0.1-0.3-0.1l0,0
			c-0.2-0.1-0.3-0.2-0.3-0.4c0-0.3,0.2-0.5,0.5-0.5s0.5,0.2,0.5,0.5C108.9,68.2,108.7,68.5,108.4,68.5L108.4,68.5z M108.1,68.7
			c0.3,0,0.5,0.2,0.5,0.5c0,0.3-0.2,0.5-0.5,0.5c0,0,0,0,0,0c-0.3,0-0.5-0.2-0.5-0.4c0,0,0,0,0,0C107.6,68.9,107.8,68.7,108.1,68.7
			L108.1,68.7z M107.7,69.8c0.3,0,0.5,0.2,0.5,0.5c0,0.3-0.2,0.5-0.5,0.5c0,0,0,0,0,0c-0.3,0-0.5-0.2-0.5-0.5
			C107.2,70,107.4,69.8,107.7,69.8z M107.4,71c0.3,0,0.5,0.2,0.5,0.5c0,0.3-0.2,0.5-0.5,0.5c-0.2,0-0.3-0.1-0.4-0.3
			c0-0.1,0-0.1,0-0.2C106.9,71.2,107.1,71,107.4,71C107.4,71,107.4,71,107.4,71L107.4,71z M99.4,64.4l-0.1-0.2
			c0-0.1-0.1-0.1-0.1-0.2c0-0.1,0-0.2,0-0.2l0,0c0.1-0.1,0.2-0.1,0.3-0.2l0,0c0.3-0.1,0.5,0,0.6,0.3c0,0,0,0.1,0,0.1
			c0,0.3-0.2,0.5-0.5,0.5c0,0,0,0,0,0C99.5,64.5,99.4,64.5,99.4,64.4L99.4,64.4z M98.9,64L98.9,64L98.9,64C98.9,64,98.9,64,98.9,64
			L98.9,64z M99.9,63c0-0.1,0.1-0.1,0.1-0.2c0-0.1,0.1-0.1,0.1-0.1c0.1,0,0.2-0.1,0.3-0.1c0.3,0,0.5,0.2,0.5,0.4c0,0,0,0,0,0
			c0,0.3-0.2,0.5-0.5,0.5C100.1,63.5,99.9,63.3,99.9,63C99.9,63,99.9,63,99.9,63L99.9,63z M101.4,61.6c0.3,0,0.5,0.2,0.5,0.5
			c0,0,0,0,0,0c0,0.3-0.2,0.5-0.5,0.5c0,0,0,0,0,0c-0.3,0-0.5-0.2-0.5-0.4c0,0,0,0,0,0C100.9,61.9,101.1,61.6,101.4,61.6
			C101.4,61.6,101.4,61.7,101.4,61.6L101.4,61.6z M102.4,61c0.3,0,0.5,0.2,0.5,0.4c0,0,0,0,0,0c0,0.3-0.2,0.5-0.5,0.5
			c-0.3,0-0.5-0.2-0.5-0.5C101.9,61.2,102.1,61,102.4,61C102.4,61,102.4,61,102.4,61L102.4,61z M103.6,60.7c0.3,0,0.5,0.2,0.5,0.5
			c0,0.3-0.2,0.5-0.5,0.5c0,0,0,0,0,0c-0.3,0-0.5-0.2-0.5-0.5c0,0,0,0,0,0C103.1,60.9,103.3,60.7,103.6,60.7
			C103.6,60.7,103.6,60.7,103.6,60.7L103.6,60.7z M104.8,60.7c0.3,0,0.5,0.2,0.5,0.4c0,0,0,0,0,0c0,0.3-0.2,0.5-0.5,0.5
			c-0.3,0-0.5-0.2-0.5-0.5C104.4,60.9,104.6,60.7,104.8,60.7C104.8,60.7,104.9,60.7,104.8,60.7L104.8,60.7z M106,61.1
			c0.3,0,0.5,0.2,0.5,0.5c0,0,0,0,0,0c0,0.1,0,0.2-0.1,0.3l0,0c-0.2,0.2-0.5,0.2-0.7,0.1c-0.1-0.1-0.2-0.2-0.2-0.4
			C105.5,61.2,105.7,61,106,61.1C106,61,106,61,106,61.1L106,61.1z M106.9,61.8c0.3,0,0.5,0.2,0.5,0.5c0,0.3-0.2,0.5-0.5,0.5
			c0,0,0,0,0,0c-0.3,0-0.5-0.2-0.5-0.4c0,0,0,0,0,0C106.5,62,106.7,61.8,106.9,61.8C107,61.8,107,61.8,106.9,61.8L106.9,61.8z
			 M107.7,62.8c0.3,0,0.5,0.2,0.5,0.5c0,0.1-0.1,0.3-0.2,0.4l-0.2,0.1h-0.2c-0.3,0-0.5-0.2-0.5-0.4c0,0,0,0,0,0
			C107.2,63,107.4,62.8,107.7,62.8L107.7,62.8L107.7,62.8z M108.3,63.9c0.3,0,0.5,0.2,0.5,0.4c0,0,0,0,0,0c0,0.3-0.2,0.5-0.5,0.5
			c-0.3,0-0.5-0.2-0.5-0.5C107.8,64.1,108,63.9,108.3,63.9C108.3,63.9,108.3,63.9,108.3,63.9L108.3,63.9z M108.4,65.1
			c0.3,0,0.5,0.2,0.5,0.4c0,0,0,0,0,0c0,0.3-0.2,0.5-0.5,0.5c-0.3,0-0.5-0.2-0.5-0.5C107.9,65.3,108.1,65.1,108.4,65.1
			C108.4,65.1,108.4,65.1,108.4,65.1L108.4,65.1z M97.1,69.1c0.3,0.1,0.7,0.3,1,0.3c0.3,0,0.5-0.1,0.8-0.2c0.2-0.1,0.4-0.1,0.7-0.1
			c0.6,0,1.1,0.3,1.4,0.7c0.1,0.1,0.3,0.2,0.4,0.1c0.1,0,0.3,0,0.4-0.1c0.2-0.1,0.5-0.2,0.7-0.2c0.2,0,0.5,0.1,0.7,0.2
			c0.3,0.2,0.5,0.4,0.7,0.7c0.1,0.1,0.2,0.2,0.3,0.2c0.1,0,0.2,0,0.4,0c0.2-0.1,0.5-0.1,0.7-0.1c0.4,0,0.8,0.1,1,0.4
			c0.2,0.3,0.3,0.6,0.3,1c0,0.4-0.1,0.7-0.3,1c-0.2,0.3-0.5,0.4-0.8,0.4c-0.2,0-0.4-0.1-0.5-0.2c-0.2-0.1-0.3-0.2-0.4-0.4
			c-0.5-0.4-1.1-0.5-1.7-0.3c-0.4,0.1-0.8-0.1-1.3-0.4c-0.6-0.3-1.3-0.5-1.9-0.4c-0.2,0-0.4,0-0.6-0.1c-0.2-0.1-0.5-0.2-0.8-0.2
			c-0.5,0.1-1,0.2-1.5,0.4c-0.2,0-0.4,0-0.7,0c-0.2-0.1-0.5-0.1-0.7,0c-0.3,0.1-0.6,0.2-0.8,0.4c-0.1,0.1-0.3,0.1-0.4,0.2
			c-0.1,0-0.2,0.1-0.3,0.1c-0.3-0.1-0.7-0.1-1,0c-0.3,0.1-0.7,0.4-1.6,0.8h-0.1c-0.4,0-0.7-0.1-0.9-0.4c-0.2-0.3-0.4-0.6-0.4-1
			c0-0.4,0.1-0.7,0.3-1c0.2-0.3,0.6-0.5,1-0.5c0.2,0,0.5,0.1,0.7,0.2c0.1,0.1,0.3,0.1,0.4,0.1c0.2,0,0.3-0.1,0.5-0.2
			c0.2-0.2,0.4-0.4,0.6-0.6c0.2-0.2,0.4-0.3,0.7-0.3c0.2,0,0.5,0.1,0.7,0.2c0.1,0.1,0.3,0.1,0.5,0.2c0.1,0,0.2,0,0.3,0
			c0.1-0.1,0.1-0.1,0.2-0.2c0.2-0.3,0.4-0.5,0.6-0.7C96.5,69,96.9,69,97.1,69.1L97.1,69.1z M96.7,69.5c-0.5,0.1-0.9,0.7-0.7,1.2
			c0.1,0.4,0.4,0.6,0.7,0.7c0.5,0.1,1.1-0.2,1.2-0.7c0.1-0.5-0.2-1.1-0.7-1.2C97,69.5,96.8,69.5,96.7,69.5z M99.7,69.5
			c-0.5,0.1-0.9,0.7-0.7,1.2c0.1,0.4,0.4,0.6,0.7,0.7c0.5,0.1,1.1-0.2,1.2-0.7c0.1-0.5-0.2-1.1-0.7-1.2
			C100,69.5,99.8,69.5,99.7,69.5z M93.8,70.1c-0.6,0-1,0.4-1,1c0.1,0.5,0.7,0.9,1.2,0.7c0.4-0.1,0.6-0.4,0.7-0.7
			C94.8,70.6,94.4,70.2,93.8,70.1L93.8,70.1z M102.5,70.1c-0.6,0-1,0.4-1,1s0.4,1,1,1s1-0.4,1-1C103.5,70.6,103.1,70.2,102.5,70.1
			L102.5,70.1z M91.1,71c-0.6,0-1,0.4-1,1c0.1,0.5,0.7,0.9,1.2,0.7c0.4-0.1,0.6-0.4,0.7-0.7C92.1,71.5,91.7,71,91.1,71z M105.4,71
			c-0.6,0-1,0.4-1,1c-0.1,0.5,0.2,1.1,0.7,1.2c0.5,0.1,1.1-0.2,1.2-0.7c0-0.2,0-0.3,0-0.5C106.4,71.5,105.9,71,105.4,71z M96.7,63.3
			l-0.1,0C96.6,63.3,96.6,63.3,96.7,63.3L96.7,63.3z M96.2,63.6c-0.1,0.1-0.1,0.2-0.1,0.2L96,63.7C96.1,63.7,96.2,63.7,96.2,63.6z
			 M96.7,64.8H97c0,0.1-0.1,0.2-0.1,0.3C96.8,65,96.8,64.9,96.7,64.8z M97.6,64.1L97.6,64.1L97.6,64.1L97.6,64.1L97.6,64.1z
			 M96.8,63.6L96.8,63.6c0.2,0.1,0.3,0.2,0.4,0.3c0,0.1,0,0.1,0,0.2c0,0.3-0.2,0.5-0.5,0.5c0,0,0,0,0,0c-0.2,0-0.3-0.1-0.4-0.2v-0.1
			c0-0.1,0-0.1,0-0.2C96.4,63.8,96.6,63.6,96.8,63.6L96.8,63.6L96.8,63.6z M98.3,64.2c0.7,0,1.2,0.5,1.3,1.2c0,0.7-0.5,1.2-1.2,1.3
			c-0.7,0-1.2-0.5-1.3-1.2c0,0,0,0,0,0C97.1,64.7,97.6,64.2,98.3,64.2C98.3,64.2,98.3,64.2,98.3,64.2L98.3,64.2z M93.9,61.9
			L93.9,61.9c-0.2-0.1-0.3-0.3-0.3-0.4c0-0.3,0.2-0.5,0.5-0.5c0,0,0,0,0,0c0.3,0,0.5,0.2,0.5,0.4c0,0,0,0,0,0c0,0.3-0.2,0.5-0.5,0.5
			C94,62,93.9,62,93.9,61.9L93.9,61.9z M89.1,71c0.3,0,0.5,0.2,0.5,0.5c0,0.3-0.2,0.5-0.5,0.5c0,0,0,0,0,0c-0.3,0-0.5-0.2-0.5-0.5
			C88.6,71.2,88.9,71,89.1,71C89.1,71,89.1,71,89.1,71z M88.8,69.8c0.3,0,0.5,0.2,0.5,0.5c0,0.3-0.2,0.5-0.5,0.5c0,0,0,0,0,0
			c-0.3,0-0.5-0.2-0.5-0.5C88.4,70,88.6,69.8,88.8,69.8z M88.4,68.6c0.3,0,0.5,0.2,0.5,0.5c0,0,0,0,0,0c0,0.3-0.2,0.5-0.5,0.5
			c0,0,0,0,0,0c-0.3,0-0.5-0.2-0.5-0.4c0,0,0,0,0,0C87.9,68.9,88.2,68.7,88.4,68.6L88.4,68.6z M88.1,67.5c0.3,0,0.5,0.2,0.5,0.5
			c0,0.2-0.1,0.4-0.3,0.4c-0.3,0.1-0.5-0.1-0.6-0.4c0,0,0-0.1,0-0.1C87.7,67.7,87.9,67.5,88.1,67.5L88.1,67.5z M88.1,66.3
			c0.2,0,0.5,0.2,0.5,0.4c0,0,0,0,0,0c0,0.3-0.2,0.5-0.4,0.5c0,0,0,0,0,0c-0.3,0-0.5-0.2-0.5-0.5C87.6,66.5,87.8,66.3,88.1,66.3
			L88.1,66.3z M88.1,65.1c0.3,0,0.5,0.2,0.5,0.4c0,0,0,0,0,0c0,0.3-0.2,0.5-0.5,0.5c-0.3,0-0.5-0.2-0.5-0.5
			C87.6,65.3,87.8,65.1,88.1,65.1C88.1,65.1,88.1,65.1,88.1,65.1L88.1,65.1z M88.6,63.7c-0.1,0-0.1-0.1-0.2-0.1
			c-0.1-0.1-0.1-0.2-0.1-0.3c0-0.3,0.2-0.5,0.5-0.5l0,0c0.3,0,0.5,0.2,0.5,0.5c0,0.3-0.2,0.5-0.5,0.5c0,0,0,0,0,0L88.6,63.7z
			 M88.2,63.8c0.3,0,0.5,0.2,0.5,0.4c0,0,0,0,0,0c0,0.3-0.2,0.5-0.5,0.5c-0.3,0-0.5-0.2-0.5-0.5C87.7,64,87.9,63.8,88.2,63.8
			C88.2,63.9,88.2,63.9,88.2,63.8L88.2,63.8z M89.5,61.8c0.3,0,0.5,0.2,0.5,0.5c0,0,0,0,0,0c0,0.2-0.2,0.5-0.4,0.5c0,0,0,0,0,0
			c-0.3,0-0.5-0.2-0.5-0.4c0,0,0,0,0,0C89,62,89.2,61.8,89.5,61.8C89.5,61.8,89.5,61.8,89.5,61.8L89.5,61.8z M90.5,61
			c0.3,0,0.5,0.2,0.5,0.4c0,0,0,0,0,0c0,0.3-0.2,0.5-0.5,0.5S90,61.8,90,61.5C90,61.3,90.2,61.1,90.5,61L90.5,61z M91.7,60.6
			c0.3,0,0.5,0.2,0.5,0.4c0,0,0,0,0,0c0,0.3-0.2,0.5-0.5,0.5c-0.3,0-0.5-0.2-0.5-0.5C91.2,60.8,91.4,60.7,91.7,60.6L91.7,60.6z
			 M92.9,60.6c0.3,0,0.5,0.2,0.5,0.5c0,0.3-0.2,0.5-0.5,0.5c0,0,0,0,0,0c-0.3,0-0.5-0.2-0.5-0.5c0,0,0,0,0,0
			C92.4,60.9,92.6,60.7,92.9,60.6L92.9,60.6z M95.1,61.6c0.3,0,0.5,0.2,0.5,0.5c0,0,0,0,0,0c0,0.3-0.2,0.5-0.5,0.5c0,0,0,0,0,0
			c-0.3,0-0.5-0.2-0.5-0.4c0,0,0,0,0,0C94.6,61.9,94.8,61.7,95.1,61.6L95.1,61.6z M96,62.5c0.1,0,0.3,0.1,0.3,0.2
			c0,0.1,0.1,0.2,0.1,0.3c0,0.3-0.2,0.5-0.5,0.5c-0.3,0-0.5-0.2-0.5-0.5C95.5,62.7,95.7,62.5,96,62.5C96,62.5,96,62.5,96,62.5z
			 M97.9,58.5h0.8l-0.2,0.8l0.8-0.2v0.8l-0.9-0.2v0.9c0,0,0,0.1,0,0.1c0.1,0.1,0.2,0.1,0.3,0.1c0.8,0.2,1.3,1.1,1.1,2
			c-0.2,0.7-0.8,1.2-1.5,1.1c-0.9,0-1.6-0.6-1.6-1.5c0,0,0,0,0-0.1c0-0.7,0.5-1.3,1.2-1.5c0.1,0,0.2-0.1,0.3-0.1c0,0,0-0.1,0-0.1
			v-0.9l-0.9,0.2V59l0.9,0.2L97.9,58.5L97.9,58.5z"/>
		<path id="path1013_6" class="st8" d="M90.3,70.5l-0.1,0.1c-0.1-0.4-0.2-0.8-0.4-1.1c-0.5-1.3-0.6-2.8-0.4-4.2
			c0.2-1.1,0.9-2.1,1.9-2.6c0.5-0.2,1-0.3,1.5-0.2c0.1,0,0.2,0.1,0.2,0.1c-0.5-0.1-1,0-1.5,0.2c-1,0.5-1.7,1.5-1.9,2.7
			c-0.3,1.4-0.1,2.8,0.4,4.1C90.1,69.8,90.2,70.1,90.3,70.5z M96.7,68.8c-0.2,0-0.5,0.1-0.7,0.2c-0.3,0.2-0.5,0.4-0.7,0.7
			c0,0.1-0.1,0.1-0.1,0.1c0,0,0,0-0.1,0s-0.2-0.1-0.4-0.2c-0.3-0.1-0.5-0.2-0.8-0.2c-0.3,0-0.6,0.1-0.8,0.3
			c-0.2,0.2-0.4,0.4-0.6,0.6c-0.1,0.1-0.2,0.1-0.3,0.1c-0.1,0-0.2,0-0.3-0.1c-0.2-0.1-0.5-0.2-0.8-0.2c-0.2,0-0.4,0.1-0.6,0.1
			c-0.1-0.3-0.2-0.7-0.3-1c-0.5-1.3-0.6-2.7-0.3-4c0.2-1.1,0.8-2,1.8-2.5c0.9-0.4,2-0.2,2.8,0.4c1.1,0.8,1.8,1.9,2.3,3.1
			c0.3,0.7,0.6,1.5,0.8,2.3c0,0,0,0.1,0,0.2c-0.1,0-0.2-0.1-0.3-0.1C97,68.8,96.8,68.8,96.7,68.8L96.7,68.8z M89.9,70.8
			c-0.1-0.4-0.3-0.8-0.4-1.2c-0.5-1.5-0.7-3-0.4-4.6c0.2-1.2,0.9-2.3,2-2.8c0.5-0.2,1-0.3,1.6-0.2c0.6,0.1,1.1,0.3,1.6,0.7
			c0.6,0.4,1.1,1,1.5,1.6c0.5,0.6,0.8,1.3,1.1,2c0.2,0.5,0.4,1,0.6,1.6c0.2,0.4,0.2,0.8,0.2,1.3l0,0c0-0.1,0-0.3,0-0.3
			c-0.2-0.8-0.5-1.6-0.8-2.4c0,0,0-0.1,0-0.1c-0.5-1.4-1.3-2.5-2.5-3.4c-0.5-0.3-1-0.6-1.6-0.7c-0.5-0.1-1.1,0-1.6,0.2
			c-1.1,0.6-1.8,1.6-2,2.8c-0.3,1.5-0.2,3,0.4,4.3c0.1,0.3,0.2,0.8,0.4,1.2L90,70.8L89.9,70.8z M99.1,69L99.1,69
			c0-0.4,0.1-0.8,0.2-1.2c0.2-0.5,0.4-1,0.6-1.5c0.4-1.3,1.3-2.5,2.4-3.3c0.4-0.3,0.9-0.5,1.5-0.7c0.5-0.1,1,0,1.5,0.2
			c0,0,0.1,0.1,0.1,0.1c-1-0.4-2.1-0.2-3,0.4c-1.1,0.8-1.9,2-2.3,3.3c-0.1,0.4-0.3,0.9-0.5,1.4C99.3,68.1,99.2,68.6,99.1,69L99.1,69
			z M99.4,68.9c0.1-0.4,0.1-0.8,0.3-1.1c0.2-0.5,0.4-1,0.5-1.4c0.4-1.3,1.2-2.3,2.3-3.1c0.8-0.6,1.9-0.8,2.8-0.4
			c0.9,0.5,1.6,1.4,1.8,2.5c0.1,0.7,0.2,1.4,0.1,2.1c-0.1,0.7-0.2,1.3-0.4,1.9c-0.1,0.3-0.2,0.8-0.4,1.2c-0.2-0.2-0.5-0.3-0.8-0.3
			c-0.3,0-0.5,0.1-0.8,0.1c-0.1,0-0.2,0-0.3,0c-0.1,0-0.1,0-0.2-0.1c-0.2-0.3-0.5-0.5-0.8-0.7c-0.3-0.2-0.5-0.2-0.8-0.2
			c-0.3,0-0.5,0.1-0.8,0.3c-0.1,0-0.2,0.1-0.3,0.1c-0.1,0-0.2,0-0.2-0.1c-0.4-0.4-1-0.7-1.6-0.7C99.6,69,99.5,69,99.4,68.9
			L99.4,68.9z M98.7,69.1L98.7,69.1c0-0.4,0.1-0.9,0.3-1.3c0.2-0.6,0.4-1.1,0.6-1.6c0.3-0.7,0.6-1.4,1.1-2c0.4-0.6,0.9-1.1,1.5-1.5
			c0.5-0.4,1-0.6,1.6-0.7c0.5-0.1,1.1,0,1.6,0.2c1.1,0.6,1.8,1.6,2,2.8c0.3,1.5,0.2,3.1-0.4,4.6c-0.1,0.3-0.3,0.8-0.4,1.2l-0.1-0.1
			c0.1-0.4,0.3-0.9,0.4-1.3l0,0c0.3-0.7,0.4-1.4,0.5-2.1c0.1-0.7,0-1.5-0.1-2.2c-0.2-1.2-0.9-2.2-2-2.8c-0.5-0.2-1.1-0.3-1.6-0.2
			c-0.6,0.1-1.1,0.3-1.6,0.7c-1.2,0.9-2,2-2.5,3.4c-0.2,0.4-0.4,1-0.6,1.5C98.8,68.2,98.7,68.7,98.7,69.1L98.7,69.1z"/>
		<path id="path737" class="st7" d="M98.2,69.1L98.2,69.1c0.1,0.1,0.1,0.2,0.1,0.2h-0.1C98.2,69.3,98.2,69.2,98.2,69.1L98.2,69.1z
			 M102.2,62.2L102.2,62.2L102.2,62.2z M103.2,61.7L103.2,61.7L103.2,61.7z M104.3,61.6L104.3,61.6L104.3,61.6L104.3,61.6
			L104.3,61.6z M105.3,61.8L105.3,61.8L105.3,61.8C105.3,61.8,105.3,61.7,105.3,61.8L105.3,61.8z M106.2,62.3L106.2,62.3L106.2,62.3
			C106.2,62.3,106.2,62.3,106.2,62.3L106.2,62.3z M107,63.2l-0.1-0.2h0.2C107,63.1,107,63.1,107,63.2z M107.5,64.3
			c0-0.1-0.1-0.3-0.1-0.4c0.1,0,0.1,0.1,0.2,0.1C107.6,64.1,107.6,64.2,107.5,64.3L107.5,64.3z M107.8,65.2c0-0.1,0-0.2-0.1-0.4
			s0-0.1,0-0.2c0.1,0.1,0.2,0.2,0.3,0.3C107.9,65.1,107.8,65.1,107.8,65.2L107.8,65.2z M107.9,66.4c0-0.1,0-0.2,0-0.3
			c0,0,0.1,0.1,0.2,0.1L107.9,66.4z M107.9,67.5c0-0.1,0-0.2,0-0.2c0,0.1,0.1,0.1,0.1,0.1L107.9,67.5L107.9,67.5z M107.7,68.6
			c0-0.1,0-0.1,0-0.2C107.7,68.4,107.7,68.4,107.7,68.6L107.7,68.6z M107.4,69.6l0.1-0.2c0,0,0,0.1,0.1,0.1L107.4,69.6z M107,70.9
			l0.1-0.3c0,0.1,0.1,0.1,0.1,0.2C107.1,70.8,107,70.9,107,70.9z M89.6,70.9c-0.1-0.1-0.1-0.1-0.2-0.1c0.1,0,0.1-0.1,0.1-0.2
			C89.5,70.6,89.6,70.9,89.6,70.9z M89.2,69.6H89c0,0,0.1-0.1,0.1-0.1L89.2,69.6z M88.9,68.5l-0.1-0.1c0,0,0.1-0.1,0.1-0.1
			C88.8,68.4,88.8,68.5,88.9,68.5L88.9,68.5z M88.7,67.5c0,0-0.1-0.1-0.2-0.1l0.1-0.2C88.7,67.3,88.7,67.4,88.7,67.5L88.7,67.5z
			 M88.7,66.3c0,0-0.1-0.1-0.1-0.1c0.1,0,0.1-0.1,0.2-0.1C88.6,66.2,88.6,66.3,88.7,66.3L88.7,66.3z M88.8,65.2
			c-0.1-0.1-0.1-0.2-0.2-0.2c0.1-0.1,0.3-0.2,0.3-0.3c0,0.1,0,0.2-0.1,0.3S88.8,65.2,88.8,65.2z M89,64.3c0-0.1,0-0.2-0.1-0.3
			c0.1,0,0.2,0,0.2-0.1C89,64.1,89,64.2,89,64.3L89,64.3z M89.6,63.2c0,0,0-0.1,0-0.2h0.2L89.6,63.2z M90.3,62.3L90.3,62.3
			L90.3,62.3L90.3,62.3L90.3,62.3z M91.2,61.8L91.2,61.8L91.2,61.8z M92.2,61.6L92.2,61.6L92.2,61.6z M93.3,61.7L93.3,61.7
			L93.3,61.7z M94.3,62.2L94.3,62.2L94.3,62.2L94.3,62.2L94.3,62.2z M95.2,62.8L95.2,62.8L95.2,62.8L95.2,62.8z M105.4,71.3
			c0.4,0,0.7,0.3,0.7,0.7c0,0,0,0,0,0c0,0.4-0.3,0.7-0.7,0.7l0,0c-0.4,0-0.7-0.3-0.7-0.7c0,0,0,0,0,0
			C104.7,71.6,105,71.3,105.4,71.3L105.4,71.3z M102.6,70.4c0.4,0,0.7,0.3,0.7,0.7c0,0.4-0.3,0.7-0.7,0.7c0,0,0,0,0,0
			c-0.4,0-0.7-0.3-0.7-0.7c0,0,0,0,0,0C101.9,70.7,102.2,70.4,102.6,70.4L102.6,70.4z M99.8,69.8c0.4,0,0.7,0.3,0.7,0.7c0,0,0,0,0,0
			c0,0.4-0.3,0.7-0.7,0.7c-0.4,0-0.7-0.3-0.8-0.6c0,0,0,0,0-0.1C99,70.1,99.3,69.8,99.8,69.8C99.7,69.8,99.7,69.8,99.8,69.8
			L99.8,69.8z M96.8,69.8c0.4,0,0.7,0.3,0.7,0.7c0,0.4-0.3,0.7-0.7,0.7c-0.4,0-0.7-0.3-0.8-0.6c0,0,0,0,0-0.1
			C96,70.1,96.3,69.8,96.8,69.8C96.7,69.8,96.7,69.8,96.8,69.8L96.8,69.8z M94,70.4c0.4,0,0.7,0.3,0.7,0.7c0,0,0,0,0,0
			c0,0.4-0.3,0.7-0.7,0.7c0,0,0,0,0,0c-0.4,0-0.7-0.3-0.7-0.7c0,0,0,0,0,0C93.2,70.8,93.5,70.5,94,70.4L94,70.4z M91.2,71.3
			c0.4,0,0.7,0.3,0.7,0.7c0,0,0,0,0,0c0,0.4-0.3,0.7-0.7,0.7s-0.7-0.3-0.7-0.7C90.5,71.6,90.8,71.3,91.2,71.3L91.2,71.3z"/>
	</g>
	<path style="clip-path:url(#SVGID_00000030468687523441346770000012844651330958772141_);fill:#FFFFFF;" d="M80.4,99.6
		c-12.6,0-22.9,10.2-22.9,30.5c0,25.4,18.2,50.9,40.7,50.9s40.7-25.4,40.7-50.9c0-20.3-10.2-30.5-22.9-30.5
		c-6.9,0-13.5,3.1-17.8,8.5C93.9,102.8,87.3,99.6,80.4,99.6z"/>
	<path style="clip-path:url(#SVGID_00000030468687523441346770000012844651330958772141_);fill:#FFFFFF;" d="M30.8,112.8h134.7
		c3,0,5.5,2.4,5.5,5.5v44c0,3-2.4,5.5-5.5,5.5H30.8c-3,0-5.5-2.4-5.5-5.5v-44C25.4,115.3,27.8,112.8,30.8,112.8z"/>
	<g style="clip-path:url(#SVGID_00000030468687523441346770000012844651330958772141_);enable-background:new    ;">
		<text transform="matrix(1 0 0 1 62.66 137.62)" class="st4 st14 st15">Radom</text>
	</g>
	<g style="clip-path:url(#SVGID_00000030468687523441346770000012844651330958772141_);enable-background:new    ;">
		<text transform="matrix(1 0 0 1 61.92 162.27)" class="st4 st14 st15">Homiel</text>
	</g>
	<path style="clip-path:url(#SVGID_00000030468687523441346770000012844651330958772141_);fill:#FFFFFF;" d="M44.9-0.3h-29h-16v16
		c0,7,0,14,0,21c10.2,12.4,28.6,14.2,41,4S55.1,12.1,44.9-0.3z"/>
	<g style="clip-path:url(#SVGID_00000030468687523441346770000012844651330958772141_);enable-background:new    ;">
		<text transform="matrix(1 0 0 1 15.51 31.45)" class="st4 st14 st16">42</text>
	</g>
</g>
</svg>
