<svg id="Слой_1" data-name="Слой 1" xmlns="http://www.w3.org/2000/svg" viewBox="0 0 195.59 280.63"><defs><style>.cls-1,.cls-3{fill:#1a1a1a;}.cls-2,.cls-28{fill:#e83e3e;}.cls-3{font-size:20px;}.cls-28,.cls-3{font-family:Impact;}.cls-4{fill:#423d3d;}.cls-5{fill:#7f6d6b;}.cls-6{fill:#4481c3;}.cls-7{fill:#ccc;}.cls-8{fill:#fff;}.cls-9{fill:#cb1a24;}.cls-10{fill:#767676;}.cls-11{fill:#af1739;}.cls-12{fill:#eb5775;}.cls-13{fill:#badbe9;}.cls-14{fill:#8bb0cc;}.cls-15{fill:#f293a2;}.cls-16{fill:#ffd740;}.cls-17{fill:#5a5252;}.cls-18{fill:#e83b54;}.cls-19{fill:#797979;}.cls-20{fill:#545454;}.cls-21{fill:#444;}.cls-22{fill:#efa85d;}.cls-23{fill:#636363;}.cls-24{fill:#a0a0a0;}.cls-25{fill:#fdd083;}.cls-26{fill:#dc773d;}.cls-27{fill:#3d3d3d;}.cls-28{font-size:63.44px;}</style></defs><rect class="cls-1" x="-3" y="-4.04" width="488.59" height="290.67"/><path class="cls-2" d="M150.73,0l29,0h16l0,16c0,7,0,14,0,21A29.09,29.09,0,0,1,150.73,0Z"/><text class="cls-3" transform="translate(159.78 31.76)">27</text><path class="cls-1" d="M87.61,22.13c-1.65,0-11.26-.41-19.28,4.05a12.39,12.39,0,0,0-6.44,10.53l5.54.22C67.57,33.49,69,32.18,71,31c6.22-3.45,14.44-3.35,16.59-3.35S98,27.58,104.21,31c2.07,1.15,3.45,2.46,3.58,5.9l5.55-.22a12.41,12.41,0,0,0-6.44-10.53c-8-4.46-17.64-4.05-19.29-4.05Zm0,0"/><path class="cls-4" d="M110.57,36.82a9.21,9.21,0,0,0-5-8.22c-7.12-4-16-3.69-17.94-3.69s-10.82-.26-17.94,3.69a9.21,9.21,0,0,0-5,8.22Zm-45.91,0"/><path class="cls-1" d="M87.61,24.19c-1.83,0-10.93-.3-18.29,3.78a10,10,0,0,0-5.38,8.82l1.44.06A8.39,8.39,0,0,1,70,29.23c6.89-3.82,15.63-3.6,17.59-3.6s10.71-.22,17.59,3.6a8.38,8.38,0,0,1,4.65,7.62l1.44-.06A10,10,0,0,0,105.9,28c-7.35-4.08-16.45-3.78-18.29-3.78Zm0,0"/><path class="cls-5" d="M88.9,29.39c-.55,0-1,0-1.29,0-2.38,0-13.56-.26-22.48,3.68-3.26,1.44-6,3.81-6.27,8a12,12,0,0,1,4.88-3.39C73.22,33.78,85.08,34,87.61,34s14.4-.26,23.88,3.69a12.1,12.1,0,0,1,4.88,3.39c-.26-4.24-3-6.61-6.27-8-7.81-3.45-17.34-3.68-21.2-3.68Zm0,0"/><path class="cls-4" d="M78.37,39.32a1,1,0,0,1,.29-.69,1,1,0,0,1,.69-.28,1,1,0,0,1,1,1,1,1,0,0,1-1,1,1,1,0,0,1-1-1Zm0,0"/><path class="cls-2" d="M73.41,182.94c0,11.62-3.88,28.15-8.66,28.15s-8.66-16.53-8.66-28.15S61.21,169,64.75,169s8.66,2.33,8.66,13.95Zm0,0"/><path class="cls-1" d="M64.75,166.58a9.78,9.78,0,0,0-7.5,3.47c-2.22,2.62-3.57,6.72-3.57,12.89A74.91,74.91,0,0,0,56.3,202a31.16,31.16,0,0,0,3,7.54c1.22,2,2.85,3.94,5.44,3.94s4.22-1.9,5.44-3.94a31.16,31.16,0,0,0,3-7.54,74.91,74.91,0,0,0,2.62-19.08c0-6.17-1.35-10.27-3.57-12.89a9.78,9.78,0,0,0-7.5-3.47Zm0,4.83a4.64,4.64,0,0,1,3.81,1.76c1.23,1.44,2.43,4.31,2.43,9.77a71.63,71.63,0,0,1-2.44,17.78,28.15,28.15,0,0,1-2.5,6.36,4.89,4.89,0,0,1-1.3,1.54,4.89,4.89,0,0,1-1.3-1.54,28.15,28.15,0,0,1-2.5-6.36,71.63,71.63,0,0,1-2.44-17.78c0-5.46,1.2-8.33,2.43-9.77a4.64,4.64,0,0,1,3.81-1.76Zm0,0"/><path class="cls-2" d="M117.18,182.94c0,11.62-3.88,28.15-8.66,28.15s-8.66-16.53-8.66-28.15S105,169,108.52,169s8.66,2.33,8.66,13.95Zm0,0"/><path class="cls-1" d="M108.52,166.58a9.78,9.78,0,0,0-7.5,3.47c-2.22,2.62-3.57,6.72-3.57,12.89A75.35,75.35,0,0,0,100.07,202a31.16,31.16,0,0,0,3,7.54c1.22,2,2.86,3.94,5.44,3.94s4.23-1.9,5.45-3.94a31.17,31.17,0,0,0,3-7.54,74.92,74.92,0,0,0,2.63-19.08c0-6.17-1.36-10.27-3.58-12.89a9.78,9.78,0,0,0-7.5-3.47Zm0,4.83a4.67,4.67,0,0,1,3.82,1.76c1.22,1.44,2.42,4.31,2.42,9.77a71.63,71.63,0,0,1-2.44,17.78,28.15,28.15,0,0,1-2.5,6.36,4.89,4.89,0,0,1-1.3,1.54,5.08,5.08,0,0,1-1.29-1.54,27.24,27.24,0,0,1-2.5-6.36,71.18,71.18,0,0,1-2.45-17.78c0-5.46,1.21-8.33,2.43-9.77a4.64,4.64,0,0,1,3.81-1.76Zm0,0"/><path class="cls-6" d="M29.88,125.23C26.51,136.36,18,151.05,13.44,149.67s-3.5-18.33-.14-29.45,8.94-11.87,12.33-10.84,7.61,4.73,4.25,15.85Zm0,0"/><path class="cls-1" d="M26.38,108.35a9.8,9.8,0,0,0-8.19,1.15c-2.88,1.86-5.37,5.4-7.15,11.3a75.36,75.36,0,0,0-3,19,31.78,31.78,0,0,0,.69,8.08c.58,2.31,1.6,4.6,4.07,5.35s4.6-.59,6.35-2.19a31.41,31.41,0,0,0,5.06-6.35,74.84,74.84,0,0,0,8.05-17.5c1.78-5.9,1.68-10.22.31-13.38a9.81,9.81,0,0,0-6.17-5.49ZM25,113a4.69,4.69,0,0,1,3.14,2.79c.75,1.74,1.07,4.83-.51,10.06a71.92,71.92,0,0,1-7.49,16.31,27.84,27.84,0,0,1-4.24,5.36,5,5,0,0,1-1.68,1.1,4.89,4.89,0,0,1-.8-1.85,28.43,28.43,0,0,1-.55-6.81,72.07,72.07,0,0,1,2.81-17.73c1.58-5.22,3.57-7.62,5.16-8.65A4.69,4.69,0,0,1,25,113Zm0,0"/><path class="cls-6" d="M157.59,119.73c4.45,10.74,7.19,27.49,2.77,29.32s-14.32-12-18.77-22.69-.61-14.84,2.66-16.2,8.89-1.17,13.34,9.57Zm0,0"/><path class="cls-1" d="M143.33,107.93a9.77,9.77,0,0,0-5.6,6.07c-1,3.28-.73,7.59,1.63,13.28a74.7,74.7,0,0,0,9.73,16.63,31.18,31.18,0,0,0,5.66,5.82c1.91,1.41,4.15,2.54,6.54,1.55s3.17-3.37,3.52-5.72a31.82,31.82,0,0,0-.11-8.12,74.84,74.84,0,0,0-4.88-18.63c-2.36-5.7-5.18-9-8.23-10.55a9.83,9.83,0,0,0-8.26-.33Zm1.85,4.46a4.65,4.65,0,0,1,4.19.17c1.69.87,3.9,3.06,6,8.1A71.54,71.54,0,0,1,159.9,138a28,28,0,0,1,.13,6.83,5.11,5.11,0,0,1-.61,1.92,4.93,4.93,0,0,1-1.79-.92,28,28,0,0,1-4.74-4.93,70.9,70.9,0,0,1-9.07-15.49c-2.09-5-2.07-8.15-1.49-10a4.69,4.69,0,0,1,2.85-3.09Zm0,0"/><path class="cls-1" d="M86.64,57.63a67.81,67.81,0,1,0,67.8,67.81,67.87,67.87,0,0,0-67.8-67.81Zm0,7.74a60.07,60.07,0,1,1-60.08,60.07A60,60,0,0,1,86.64,65.37Zm0,0"/><path class="cls-6" d="M42,81.66c11.53-6.38,17.8,1.9,46.43,1.6,26.17-.28,31.66-7.32,42.26-1.6,17.95,9.68,18.36,38.62,18.36,42.26,0,2.59-.32,33.77-18.36,42.26-12.06,5.67-18.43-5.19-42.81-5.53C62,160.29,54.85,172.36,42,166.18,24,157.47,23.66,126.57,23.66,123.92,23.67,120.27,24.09,91.59,42,81.66ZM23.66,123.92"/><path class="cls-7" d="M86,62.68a64.59,64.59,0,0,0-60.86,43.15H146.81A64.59,64.59,0,0,0,86,62.68Zm0,0"/><path class="cls-8" d="M89.32,64.15a59.78,59.78,0,0,0-56.89,41.68H146.26A59.76,59.76,0,0,0,89.32,64.15Zm0,0"/><path class="cls-9" d="M27.53,147.63a67.29,67.29,0,0,0,10.95,17.79A62.31,62.31,0,0,0,68,185.17a60.4,60.4,0,0,0,17.93,2.48,65.19,65.19,0,0,0,32-9.16,75.34,75.34,0,0,0,29.45-30.86Zm119.79,0"/><path class="cls-2" d="M144.11,147.74m-112.82,0a62,62,0,0,0,112.82,0Z"/><path class="cls-1" d="M86.64,60.53a64.91,64.91,0,1,0,64.9,64.91,64.92,64.92,0,0,0-64.9-64.91Zm0,1.94a63,63,0,1,1-63,63,63,63,0,0,1,63-63Zm0,0"/><path class="cls-10" d="M87.42,129.73A2.46,2.46,0,1,1,85,127.28a2.46,2.46,0,0,1,2.46,2.45Zm0,0"/><path class="cls-10" d="M99.59,127.4A2.45,2.45,0,1,1,96.5,129a2.44,2.44,0,0,1,3.09-1.57Zm0,0"/><path class="cls-1" d="M57.48,93.64A10.2,10.2,0,0,0,55.26,100v5.13a10.25,10.25,0,0,0,20.49,0V101.2Zm0,0"/><path class="cls-8" d="M71.47,102.84a3.31,3.31,0,1,1-1-2.33,3.31,3.31,0,0,1,1,2.33Zm0,0"/><path class="cls-1" d="M115.79,93.64,97.53,101.2v3.94a10.24,10.24,0,0,0,20.48,0V100a10.2,10.2,0,0,0-2.22-6.37Zm0,0"/><path class="cls-8" d="M113.73,102.84a3.31,3.31,0,1,1-1-2.33,3.31,3.31,0,0,1,1,2.33Zm0,0"/><path class="cls-11" d="M63.62,156.25a4.79,4.79,0,0,1-4.8-4.8V146a27.82,27.82,0,1,1,55.63,0v5.42a4.79,4.79,0,0,1-4.8,4.8Zm0,0"/><path class="cls-12" d="M86.64,141.65a27.8,27.8,0,0,0-24.37,14.4,4.64,4.64,0,0,0,1.35.2h46a4.71,4.71,0,0,0,1.36-.2,27.83,27.83,0,0,0-24.37-14.4Zm0,0"/><path class="cls-8" d="M86.64,118.21A27.8,27.8,0,0,0,63.89,130a63.93,63.93,0,0,0,45.5,0,27.77,27.77,0,0,0-22.75-11.82Zm0,0"/><path class="cls-13" d="M71,123.06v4.78c0,4,2,4.83,2,4.83a64,64,0,0,1-9.11-2.62,28,28,0,0,1,7.08-7Zm0,0"/><path class="cls-13" d="M93.42,119.05v6.61c0,3.67-.92,7.45-4,8.43a64.6,64.6,0,0,0,20-4,27.85,27.85,0,0,0-16-11Zm0,0"/><path class="cls-14" d="M102.32,123.06v4.78c0,4-2,4.83-2,4.83a64.41,64.41,0,0,0,9.11-2.62,28.2,28.2,0,0,0-7.09-7Zm0,0"/><path class="cls-1" d="M86.64,117.22A28.82,28.82,0,0,0,57.83,146v5.42a5.8,5.8,0,0,0,5.79,5.79h46a5.81,5.81,0,0,0,5.8-5.79V146a28.82,28.82,0,0,0-28.81-28.81Zm0,2A26.8,26.8,0,0,1,113.46,146v5.42a3.78,3.78,0,0,1-3.81,3.8h-46a3.78,3.78,0,0,1-3.81-3.8V146a26.81,26.81,0,0,1,26.83-26.82Zm0,0"/><path class="cls-1" d="M63.59,129.44l-.36.93a65.35,65.35,0,0,0,46.81,0l-.36-.93a64.25,64.25,0,0,1-46.09,0Zm0,0"/><path class="cls-15" d="M83.56,149.15c0,1.8-2.07,3.26-4.63,3.26s-4.62-1.46-4.62-3.26,2.07-3.26,4.62-3.26,4.63,1.46,4.63,3.26Zm0,0"/><path class="cls-16" d="M94.39,72.33c-2.12-2.77-.73-7.4,3.12-10.36s8.69-3.09,10.81-.32a5.58,5.58,0,0,1,.68,5.11A10.77,10.77,0,0,1,105.21,72a10.89,10.89,0,0,1-6.06,2.31,5.62,5.62,0,0,1-4.76-2Zm0,0"/><path class="cls-16" d="M106.41,61.34h-.31l-.06,0-.07,0-.06,0-.07,0-.06,0-.06,0-.06,0-.06,0,0,0-.06,0,0,0,0,.05,0,0,0,.06,0,0,0,.06,0,.06,0,.06,0,.06,0,.07,0,.09v0h0s0,0,0,.06a.17.17,0,0,0,0,.07.15.15,0,0,0,0,.07.15.15,0,0,0,0,.07v.18a.15.15,0,0,0,0,.07.15.15,0,0,0,0,.07.17.17,0,0,0,0,.07.25.25,0,0,0,0,.07.14.14,0,0,0,0,.06.14.14,0,0,0,0,.07l0,.06,0,.06,0,.07,0,.06,0,.05,0,.06,0,0,0,0,0,.05.05,0,0,0,.06,0,.06,0,.06,0,.06,0,.06,0,.06,0,.1,0h.09l.07,0h.25a.09.09,0,0,0,.07,0h.14l.07,0,.06,0,.07,0,.07,0,.06,0,.06,0,.06,0,.06,0,.06,0,.05,0,.06,0s0,0,.05-.05l0,0,0-.06s0,0,.05,0l0-.06a.21.21,0,0,1,0-.06l0-.06,0-.06,0-.06,0-.06,0-.09v0h0a.17.17,0,0,1,0-.07s0,0,0-.06a.2.2,0,0,0,0-.07.2.2,0,0,0,0-.07v-.19a.2.2,0,0,0,0-.07.2.2,0,0,0,0-.07.13.13,0,0,0,0-.06.14.14,0,0,0,0-.07.19.19,0,0,0,0-.07.14.14,0,0,0,0-.06l0-.07,0-.06,0-.06,0-.06,0-.06s0,0-.05-.05a.21.21,0,0,0,0-.06l0-.05-.05,0,0,0,0-.05-.06,0,0,0-.07,0-.06,0-.06,0-.06,0-.09,0h-.39Zm0,0"/><path class="cls-16" d="M106.41,61.34h-.31l-.06,0-.07,0-.06,0-.07,0-.06,0-.06,0-.06,0-.06,0,0,0-.06,0,0,0,0,.05,0,0,0,.05,0,.06,0,.06,0,.06,0,.06,0,.06,0,.07,0,.09v0h0v.06a.15.15,0,0,0,0,.07.13.13,0,0,0,0,.06.2.2,0,0,0,0,.07v.19a.17.17,0,0,0,0,.07.17.17,0,0,0,0,.07.2.2,0,0,0,0,.07.14.14,0,0,0,0,.06.14.14,0,0,0,0,.07.25.25,0,0,0,0,.07l0,.06,0,.06,0,.06,0,.06,0,.06,0,.06,0,0,0,0,0,.05.05,0,0,0,.06,0,.06,0,.06,0,.06,0,.06,0,.06,0,.1,0h.69l.06,0,.07,0,.07,0,.06,0,.06,0,.06,0,.06,0,.06,0,.05,0,.06,0s0,0,.05-.05l0,0,0-.06s0,0,.05,0l0-.06a.21.21,0,0,1,0-.06l0-.06,0-.06,0-.06,0-.06,0-.09v0h0a.2.2,0,0,1,0-.07s0,0,0-.06a.2.2,0,0,0,0-.07.2.2,0,0,0,0-.07v-.19a.2.2,0,0,0,0-.07.2.2,0,0,0,0-.07.13.13,0,0,0,0-.06.14.14,0,0,0,0-.07.19.19,0,0,0,0-.07.14.14,0,0,0,0-.06l0-.07,0-.06,0-.06,0-.06,0-.06s0,0-.05-.05a.21.21,0,0,0,0-.06l0-.05-.05,0,0,0,0-.05-.06,0,0,0-.07,0-.06,0-.06,0-.06,0-.09,0h-.39Zm0,0"/><path class="cls-16" d="M106.41,61.34h-.31l-.06,0-.07,0-.06,0-.07,0-.06,0-.06,0-.06,0-.06,0,0,0-.06,0,0,0,0,.05,0,0,0,.05,0,.06,0,.06,0,.06,0,.06,0,.06,0,.07,0,.09v0h0v.06a.15.15,0,0,0,0,.07.13.13,0,0,0,0,.06.2.2,0,0,0,0,.07v.19a.17.17,0,0,0,0,.07.17.17,0,0,0,0,.07.2.2,0,0,0,0,.07.14.14,0,0,0,0,.06.14.14,0,0,0,0,.07.25.25,0,0,0,0,.07l0,.06,0,.06,0,.06,0,.06,0,.06,0,.06,0,0,0,0,0,.05.05,0,0,0,.06,0,.06,0,.06,0,.06,0,.06,0,.06,0,.1,0h.69l.06,0,.07,0,.07,0,.06,0,.06,0,.06,0,.06,0,.06,0,.05,0,.06,0s0,0,.05-.05l0,0,0-.06s0,0,.05,0l0-.06a.21.21,0,0,1,0-.06l0-.06,0-.06,0-.06,0-.06,0-.09v0h0a.2.2,0,0,1,0-.07s0,0,0-.06a.2.2,0,0,0,0-.07.2.2,0,0,0,0-.07v-.19a.2.2,0,0,0,0-.07.2.2,0,0,0,0-.07.13.13,0,0,0,0-.06.14.14,0,0,0,0-.07.19.19,0,0,0,0-.07.14.14,0,0,0,0-.06l0-.07,0-.06,0-.06,0-.06,0-.06s0,0-.05-.05a.21.21,0,0,0,0-.06l0-.05-.05,0,0,0,0-.05-.06,0,0,0-.07,0-.06,0-.06,0-.06,0-.09,0h-.39Zm0,0"/><path class="cls-16" d="M106.41,61.34h-.31l-.06,0-.07,0-.06,0-.07,0-.06,0-.06,0-.06,0-.06,0,0,0-.06,0,0,0,0,.05,0,0,0,.05,0,.06,0,.06,0,.06,0,.06,0,.06,0,.07,0,.09v0h0v.06a.15.15,0,0,0,0,.07.13.13,0,0,0,0,.06.2.2,0,0,0,0,.07v.19a.17.17,0,0,0,0,.07.17.17,0,0,0,0,.07.2.2,0,0,0,0,.07.14.14,0,0,0,0,.06.14.14,0,0,0,0,.07.25.25,0,0,0,0,.07l0,.06,0,.06,0,.06,0,.06,0,.06,0,.06,0,0,0,0,0,.05.05,0,0,0,.06,0,.06,0,.06,0,.06,0,.06,0,.06,0,.1,0h.69l.06,0,.07,0,.07,0,.06,0,.06,0,.06,0,.06,0,.06,0,.05,0,.06,0s0,0,.05-.05l0,0,0-.06s0,0,.05,0l0-.06a.21.21,0,0,1,0-.06l0-.06,0-.06,0-.06,0-.06,0-.09v0h0a.2.2,0,0,1,0-.07s0,0,0-.06a.2.2,0,0,0,0-.07.2.2,0,0,0,0-.07v-.19a.2.2,0,0,0,0-.07.2.2,0,0,0,0-.07.13.13,0,0,0,0-.06.14.14,0,0,0,0-.07.19.19,0,0,0,0-.07.14.14,0,0,0,0-.06l0-.07,0-.06,0-.06,0-.06,0-.06s0,0-.05-.05a.21.21,0,0,0,0-.06l0-.05-.05,0,0,0,0-.05-.06,0,0,0-.07,0-.06,0-.06,0-.06,0-.09,0h-.39Zm0,0"/><path class="cls-16" d="M106.41,61.34h-.31l-.06,0-.07,0-.06,0-.07,0-.06,0-.06,0-.06,0-.06,0,0,0-.06,0,0,0,0,.05,0,0,0,.05,0,.06,0,.06,0,.06,0,.06,0,.06,0,.07,0,.09v0h0v.06a.15.15,0,0,0,0,.07.13.13,0,0,0,0,.06.2.2,0,0,0,0,.07v.19a.17.17,0,0,0,0,.07.17.17,0,0,0,0,.07.2.2,0,0,0,0,.07.14.14,0,0,0,0,.06.14.14,0,0,0,0,.07.25.25,0,0,0,0,.07l0,.06,0,.06,0,.06,0,.06,0,.06,0,.06,0,0,0,0,0,.05.05,0,0,0,.06,0,.06,0,.06,0,.06,0,.06,0,.06,0,.1,0h.69l.06,0,.07,0,.07,0,.06,0,.06,0,.06,0,.06,0,.06,0,.05,0,.06,0s0,0,.05-.05l0,0,0-.06s0,0,.05,0l0-.06a.21.21,0,0,1,0-.06l0-.06,0-.06,0-.06,0-.06,0-.09v0h0a.2.2,0,0,1,0-.07s0,0,0-.06a.2.2,0,0,0,0-.07.2.2,0,0,0,0-.07v-.19a.2.2,0,0,0,0-.07.2.2,0,0,0,0-.07.13.13,0,0,0,0-.06.14.14,0,0,0,0-.07.19.19,0,0,0,0-.07.14.14,0,0,0,0-.06l0-.07,0-.06,0-.06,0-.06,0-.06s0,0-.05-.05a.21.21,0,0,0,0-.06l0-.05-.05,0,0,0,0-.05-.06,0,0,0-.07,0-.06,0-.06,0-.06,0-.09,0h-.39Zm0,0"/><path class="cls-16" d="M106.41,61.34h-.31l-.06,0-.07,0-.06,0-.07,0-.06,0-.06,0-.06,0-.06,0,0,0-.06,0,0,0,0,.05,0,0,0,.05,0,.06,0,.06,0,.06,0,.06,0,.06,0,.07,0,.09v0h0v.06a.15.15,0,0,0,0,.07.13.13,0,0,0,0,.06.2.2,0,0,0,0,.07v.19a.17.17,0,0,0,0,.07.17.17,0,0,0,0,.07.2.2,0,0,0,0,.07.14.14,0,0,0,0,.06.14.14,0,0,0,0,.07.25.25,0,0,0,0,.07l0,.06,0,.06,0,.06,0,.06,0,.06,0,.06,0,0,0,0,0,.05.05,0,0,0,.06,0,.06,0,.06,0,.06,0,.06,0,.06,0,.1,0h.69l.06,0,.07,0,.07,0,.06,0,.06,0,.06,0,.06,0,.06,0,.05,0,.06,0s0,0,.05-.05l0,0,0-.06s0,0,.05,0l0-.06a.21.21,0,0,1,0-.06l0-.06,0-.06,0-.06,0-.06,0-.09v0h0a.2.2,0,0,1,0-.07s0,0,0-.06a.2.2,0,0,0,0-.07.2.2,0,0,0,0-.07v-.19a.2.2,0,0,0,0-.07.2.2,0,0,0,0-.07.13.13,0,0,0,0-.06.14.14,0,0,0,0-.07.19.19,0,0,0,0-.07.14.14,0,0,0,0-.06l0-.07,0-.06,0-.06,0-.06,0-.06s0,0-.05-.05a.21.21,0,0,0,0-.06l0-.05-.05,0,0,0,0-.05-.06,0,0,0-.07,0-.06,0-.06,0-.06,0-.09,0h-.39Zm0,0"/><path class="cls-16" d="M106.41,61.34h-.31l-.06,0-.07,0-.06,0-.07,0-.06,0-.06,0-.06,0-.06,0,0,0-.06,0,0,0,0,.05,0,0,0,.05,0,.06,0,.06,0,.06,0,.06,0,.06,0,.07,0,.09v0h0v.06a.15.15,0,0,0,0,.07.13.13,0,0,0,0,.06.2.2,0,0,0,0,.07v.19a.17.17,0,0,0,0,.07.17.17,0,0,0,0,.07.2.2,0,0,0,0,.07.14.14,0,0,0,0,.06.14.14,0,0,0,0,.07.25.25,0,0,0,0,.07l0,.06,0,.06,0,.06,0,.06,0,.06,0,.06,0,0,0,0,0,.05.05,0,0,0,.06,0,.06,0,.06,0,.06,0,.06,0,.06,0,.1,0h.69l.06,0,.07,0,.07,0,.06,0,.06,0,.06,0,.06,0,.06,0,.05,0,.06,0s0,0,.05-.05l0,0,0-.06s0,0,.05,0l0-.06a.21.21,0,0,1,0-.06l0-.06,0-.06,0-.06,0-.06,0-.09v0h0a.2.2,0,0,1,0-.07s0,0,0-.06a.2.2,0,0,0,0-.07.2.2,0,0,0,0-.07v-.19a.2.2,0,0,0,0-.07.2.2,0,0,0,0-.07.13.13,0,0,0,0-.06.14.14,0,0,0,0-.07.19.19,0,0,0,0-.07.14.14,0,0,0,0-.06l0-.07,0-.06,0-.06,0-.06,0-.06s0,0-.05-.05a.21.21,0,0,0,0-.06l0-.05-.05,0,0,0,0-.05-.06,0,0,0-.07,0-.06,0-.06,0-.06,0-.09,0h-.39Zm0,0"/><path class="cls-16" d="M106.41,61.34h-.31l-.06,0-.07,0-.06,0-.07,0-.06,0-.06,0-.06,0-.06,0,0,0-.06,0,0,0,0,.05,0,0,0,.05,0,.06,0,.06,0,.06,0,.06,0,.06,0,.07,0,.09v0h0v.06a.15.15,0,0,0,0,.07.13.13,0,0,0,0,.06.2.2,0,0,0,0,.07v.19a.17.17,0,0,0,0,.07.17.17,0,0,0,0,.07.2.2,0,0,0,0,.07.14.14,0,0,0,0,.06.14.14,0,0,0,0,.07.25.25,0,0,0,0,.07l0,.06,0,.06,0,.06,0,.06,0,.06,0,.06,0,0,0,0,0,.05.05,0,0,0,.06,0,.06,0,.06,0,.06,0,.06,0,.06,0,.1,0h.69l.06,0,.07,0,.07,0,.06,0,.06,0,.06,0,.06,0,.06,0,.05,0,.06,0s0,0,.05-.05l0,0,0-.06s0,0,.05,0l0-.06a.21.21,0,0,1,0-.06l0-.06,0-.06,0-.06,0-.06,0-.09v0h0a.2.2,0,0,1,0-.07s0,0,0-.06a.2.2,0,0,0,0-.07.2.2,0,0,0,0-.07v-.19a.2.2,0,0,0,0-.07.2.2,0,0,0,0-.07.13.13,0,0,0,0-.06.14.14,0,0,0,0-.07.19.19,0,0,0,0-.07.14.14,0,0,0,0-.06l0-.07,0-.06,0-.06,0-.06,0-.06s0,0-.05-.05a.21.21,0,0,0,0-.06l0-.05-.05,0,0,0,0-.05-.06,0,0,0-.07,0-.06,0-.06,0-.06,0-.09,0h-.39Zm0,0"/><path class="cls-16" d="M106.41,61.34h-.31l-.06,0-.07,0-.06,0-.07,0-.06,0-.06,0-.06,0-.06,0,0,0-.06,0,0,0,0,.05,0,0,0,.05,0,.06,0,.06,0,.06,0,.06,0,.06,0,.07,0,.09v0h0v.06a.15.15,0,0,0,0,.07.13.13,0,0,0,0,.06.2.2,0,0,0,0,.07v.19a.17.17,0,0,0,0,.07.17.17,0,0,0,0,.07.2.2,0,0,0,0,.07.14.14,0,0,0,0,.06.14.14,0,0,0,0,.07.25.25,0,0,0,0,.07l0,.06,0,.06,0,.06,0,.06,0,.06,0,.06,0,0,0,0,0,.05.05,0,0,0,.06,0,.06,0,.06,0,.06,0,.06,0,.06,0,.1,0h.69l.06,0,.07,0,.07,0,.06,0,.06,0,.06,0,.06,0,.06,0,.05,0,.06,0s0,0,.05-.05l0,0,0-.06s0,0,.05,0l0-.06a.21.21,0,0,1,0-.06l0-.06,0-.06,0-.06,0-.06,0-.09v0h0a.2.2,0,0,1,0-.07s0,0,0-.06a.2.2,0,0,0,0-.07.2.2,0,0,0,0-.07v-.19a.2.2,0,0,0,0-.07.2.2,0,0,0,0-.07.13.13,0,0,0,0-.06.14.14,0,0,0,0-.07.19.19,0,0,0,0-.07.14.14,0,0,0,0-.06l0-.07,0-.06,0-.06,0-.06,0-.06s0,0-.05-.05a.21.21,0,0,0,0-.06l0-.05-.05,0,0,0,0-.05-.06,0,0,0-.07,0-.06,0-.06,0-.06,0-.09,0h-.39Zm0,0"/><path class="cls-16" d="M106.41,61.34h-.31l-.06,0-.07,0-.06,0-.07,0-.06,0-.06,0-.06,0-.06,0,0,0-.06,0,0,0,0,.05,0,0,0,.05,0,.06,0,.06,0,.06,0,.06,0,.06,0,.07,0,.09v0h0v.06a.15.15,0,0,0,0,.07.13.13,0,0,0,0,.06.2.2,0,0,0,0,.07v.19a.17.17,0,0,0,0,.07.17.17,0,0,0,0,.07.2.2,0,0,0,0,.07.14.14,0,0,0,0,.06.14.14,0,0,0,0,.07.25.25,0,0,0,0,.07l0,.06,0,.06,0,.06,0,.06,0,.06,0,.06,0,0,0,0,0,.05.05,0,0,0,.06,0,.06,0,.06,0,.06,0,.06,0,.06,0,.1,0h.69l.06,0,.07,0,.07,0,.06,0,.06,0,.06,0,.06,0,.06,0,.05,0,.06,0s0,0,.05-.05l0,0,0-.06s0,0,.05,0l0-.06a.21.21,0,0,1,0-.06l0-.06,0-.06,0-.06,0-.06,0-.09v0h0a.2.2,0,0,1,0-.07s0,0,0-.06a.2.2,0,0,0,0-.07.2.2,0,0,0,0-.07v-.19a.2.2,0,0,0,0-.07.2.2,0,0,0,0-.07.13.13,0,0,0,0-.06.14.14,0,0,0,0-.07.19.19,0,0,0,0-.07.14.14,0,0,0,0-.06l0-.07,0-.06,0-.06,0-.06,0-.06s0,0-.05-.05a.21.21,0,0,0,0-.06l0-.05-.05,0,0,0,0-.05-.06,0,0,0-.07,0-.06,0-.06,0-.06,0-.09,0h-.39Zm0,0"/><path class="cls-16" d="M106.41,61.34h-.31l-.06,0-.07,0-.06,0-.07,0-.06,0-.06,0-.06,0-.06,0,0,0-.06,0,0,0,0,.05,0,0,0,.06,0,0,0,.06,0,.06,0,.06,0,.06,0,.07,0,.09v0h0s0,0,0,.06a.17.17,0,0,0,0,.07.15.15,0,0,0,0,.07.15.15,0,0,0,0,.07v.18a.15.15,0,0,0,0,.07.15.15,0,0,0,0,.07.17.17,0,0,0,0,.07.25.25,0,0,0,0,.07.14.14,0,0,0,0,.06.14.14,0,0,0,0,.07l0,.06,0,.06,0,.07,0,.06,0,.05,0,.06,0,0,0,0,0,.05.05,0,0,0,.06,0,.06,0,.06,0,.06,0,.06,0,.06,0,.1,0h.09l.07,0h.25a.09.09,0,0,0,.07,0h.14l.07,0,.06,0,.07,0,.07,0,.06,0,.06,0,.06,0,.06,0,.06,0,.05,0,.06,0s0,0,.05-.05l0,0,0-.06s0,0,.05,0l0-.06a.21.21,0,0,1,0-.06l0-.06,0-.06,0-.06,0-.06,0-.09v0h0a.17.17,0,0,1,0-.07s0,0,0-.06a.2.2,0,0,0,0-.07.2.2,0,0,0,0-.07v-.19a.2.2,0,0,0,0-.07.2.2,0,0,0,0-.07.13.13,0,0,0,0-.06.14.14,0,0,0,0-.07.19.19,0,0,0,0-.07.14.14,0,0,0,0-.06l0-.07,0-.06,0-.06,0-.06,0-.06s0,0-.05-.05a.21.21,0,0,0,0-.06l0-.05-.05,0,0,0,0-.05-.06,0,0,0-.07,0-.06,0-.06,0-.06,0-.09,0h-.39Zm0,0"/><path class="cls-16" d="M106.41,61.34h-.31l-.06,0-.07,0-.06,0-.07,0-.06,0-.06,0-.06,0-.06,0,0,0-.06,0,0,0,0,.05,0,0,0,.05,0,.06,0,.06,0,.06,0,.06,0,.06,0,.07,0,.09v0h0v.06a.15.15,0,0,0,0,.07.13.13,0,0,0,0,.06.2.2,0,0,0,0,.07v.19a.17.17,0,0,0,0,.07.17.17,0,0,0,0,.07.2.2,0,0,0,0,.07.14.14,0,0,0,0,.06.14.14,0,0,0,0,.07.25.25,0,0,0,0,.07l0,.06,0,.06,0,.06,0,.06,0,.06,0,.06,0,0,0,0,0,.05.05,0,0,0,.06,0,.06,0,.06,0,.06,0,.06,0,.06,0,.1,0h.69l.06,0,.07,0,.07,0,.06,0,.06,0,.06,0,.06,0,.06,0,.05,0,.06,0s0,0,.05-.05l0,0,0-.06s0,0,.05,0l0-.06a.21.21,0,0,1,0-.06l0-.06,0-.06,0-.06,0-.06,0-.09v0h0a.2.2,0,0,1,0-.07s0,0,0-.06a.2.2,0,0,0,0-.07.2.2,0,0,0,0-.07v-.19a.2.2,0,0,0,0-.07.2.2,0,0,0,0-.07.13.13,0,0,0,0-.06.14.14,0,0,0,0-.07.19.19,0,0,0,0-.07.14.14,0,0,0,0-.06l0-.07,0-.06,0-.06,0-.06,0-.06s0,0-.05-.05a.21.21,0,0,0,0-.06l0-.05-.05,0,0,0,0-.05-.06,0,0,0-.07,0-.06,0-.06,0-.06,0-.09,0h-.39Zm0,0"/><path class="cls-16" d="M106.41,61.34h-.31l-.06,0-.07,0-.06,0-.07,0-.06,0-.06,0-.06,0-.06,0,0,0-.06,0,0,0,0,.05,0,0,0,.05,0,.06,0,.06,0,.06,0,.06,0,.06,0,.07,0,.09v0h0v.06a.15.15,0,0,0,0,.07.13.13,0,0,0,0,.06.2.2,0,0,0,0,.07v.19a.17.17,0,0,0,0,.07.17.17,0,0,0,0,.07.2.2,0,0,0,0,.07.14.14,0,0,0,0,.06.14.14,0,0,0,0,.07.25.25,0,0,0,0,.07l0,.06,0,.06,0,.06,0,.06,0,.06,0,.06,0,0,0,0,0,.05.05,0,0,0,.06,0,.06,0,.06,0,.06,0,.06,0,.06,0,.1,0h.69l.06,0,.07,0,.07,0,.06,0,.06,0,.06,0,.06,0,.06,0,.05,0,.06,0s0,0,.05-.05l0,0,0-.06s0,0,.05,0l0-.06a.21.21,0,0,1,0-.06l0-.06,0-.06,0-.06,0-.06,0-.09v0h0a.2.2,0,0,1,0-.07s0,0,0-.06a.2.2,0,0,0,0-.07.2.2,0,0,0,0-.07v-.19a.2.2,0,0,0,0-.07.2.2,0,0,0,0-.07.13.13,0,0,0,0-.06.14.14,0,0,0,0-.07.19.19,0,0,0,0-.07.14.14,0,0,0,0-.06l0-.07,0-.06,0-.06,0-.06,0-.06s0,0-.05-.05a.21.21,0,0,0,0-.06l0-.05-.05,0,0,0,0-.05-.06,0,0,0-.07,0-.06,0-.06,0-.06,0-.09,0h-.39Zm0,0"/><path class="cls-16" d="M106.41,61.34h-.31l-.06,0-.07,0-.06,0-.07,0-.06,0-.06,0-.06,0-.06,0,0,0-.06,0,0,0,0,.05,0,0,0,.05,0,.06,0,.06,0,.06,0,.06,0,.06,0,.07,0,.09v0h0v.06a.15.15,0,0,0,0,.07.13.13,0,0,0,0,.06.2.2,0,0,0,0,.07v.19a.17.17,0,0,0,0,.07.17.17,0,0,0,0,.07.2.2,0,0,0,0,.07.14.14,0,0,0,0,.06.14.14,0,0,0,0,.07.25.25,0,0,0,0,.07l0,.06,0,.06,0,.06,0,.06,0,.06,0,.06,0,0,0,0,0,.05.05,0,0,0,.06,0,.06,0,.06,0,.06,0,.06,0,.06,0,.1,0h.69l.06,0,.07,0,.07,0,.06,0,.06,0,.06,0,.06,0,.06,0,.05,0,.06,0s0,0,.05-.05l0,0,0-.06s0,0,.05,0l0-.06a.21.21,0,0,1,0-.06l0-.06,0-.06,0-.06,0-.06,0-.09v0h0a.2.2,0,0,1,0-.07s0,0,0-.06a.2.2,0,0,0,0-.07.2.2,0,0,0,0-.07v-.19a.2.2,0,0,0,0-.07.2.2,0,0,0,0-.07.13.13,0,0,0,0-.06.14.14,0,0,0,0-.07.19.19,0,0,0,0-.07.14.14,0,0,0,0-.06l0-.07,0-.06,0-.06,0-.06,0-.06s0,0-.05-.05a.21.21,0,0,0,0-.06l0-.05-.05,0,0,0,0-.05-.06,0,0,0-.07,0-.06,0-.06,0-.06,0-.09,0h-.39Zm0,0"/><path class="cls-16" d="M106.41,61.34h-.31l-.06,0-.07,0-.06,0-.07,0-.06,0-.06,0-.06,0-.06,0,0,0-.06,0,0,0,0,.05,0,0,0,.05,0,.06,0,.06,0,.06,0,.06,0,.06,0,.07,0,.09v0h0v.06a.15.15,0,0,0,0,.07.13.13,0,0,0,0,.06.2.2,0,0,0,0,.07v.19a.17.17,0,0,0,0,.07.17.17,0,0,0,0,.07.2.2,0,0,0,0,.07.14.14,0,0,0,0,.06.14.14,0,0,0,0,.07.25.25,0,0,0,0,.07l0,.06,0,.06,0,.06,0,.06,0,.06,0,.06,0,0,0,0,0,.05.05,0,0,0,.06,0,.06,0,.06,0,.06,0,.06,0,.06,0,.1,0h.69l.06,0,.07,0,.07,0,.06,0,.06,0,.06,0,.06,0,.06,0,.05,0,.06,0s0,0,.05-.05l0,0,0-.06s0,0,.05,0l0-.06a.21.21,0,0,1,0-.06l0-.06,0-.06,0-.06,0-.06,0-.09v0h0a.2.2,0,0,1,0-.07s0,0,0-.06a.2.2,0,0,0,0-.07.2.2,0,0,0,0-.07v-.19a.2.2,0,0,0,0-.07.2.2,0,0,0,0-.07.13.13,0,0,0,0-.06.14.14,0,0,0,0-.07.19.19,0,0,0,0-.07.14.14,0,0,0,0-.06l0-.07,0-.06,0-.06,0-.06,0-.06s0,0-.05-.05a.21.21,0,0,0,0-.06l0-.05-.05,0,0,0,0-.05-.06,0,0,0-.07,0-.06,0-.06,0-.06,0-.09,0h-.39Zm0,0"/><path class="cls-16" d="M106.41,61.34h-.31l-.06,0-.07,0-.06,0-.07,0-.06,0-.06,0-.06,0-.06,0,0,0-.06,0,0,0,0,.05,0,0,0,.05,0,.06,0,.06,0,.06,0,.06,0,.06,0,.07,0,.09v0h0v.06a.15.15,0,0,0,0,.07.13.13,0,0,0,0,.06.2.2,0,0,0,0,.07v.19a.17.17,0,0,0,0,.07.17.17,0,0,0,0,.07.2.2,0,0,0,0,.07.14.14,0,0,0,0,.06.14.14,0,0,0,0,.07.25.25,0,0,0,0,.07l0,.06,0,.06,0,.06,0,.06,0,.06,0,.06,0,0,0,0,0,.05.05,0,0,0,.06,0,.06,0,.06,0,.06,0,.06,0,.06,0,.1,0h.69l.06,0,.07,0,.07,0,.06,0,.06,0,.06,0,.06,0,.06,0,.05,0,.06,0s0,0,.05-.05l0,0,0-.06s0,0,.05,0l0-.06a.21.21,0,0,1,0-.06l0-.06,0-.06,0-.06,0-.06,0-.09v0h0a.2.2,0,0,1,0-.07s0,0,0-.06a.2.2,0,0,0,0-.07.2.2,0,0,0,0-.07v-.19a.2.2,0,0,0,0-.07.2.2,0,0,0,0-.07.13.13,0,0,0,0-.06.14.14,0,0,0,0-.07.19.19,0,0,0,0-.07.14.14,0,0,0,0-.06l0-.07,0-.06,0-.06,0-.06,0-.06s0,0-.05-.05a.21.21,0,0,0,0-.06l0-.05-.05,0,0,0,0-.05-.06,0,0,0-.07,0-.06,0-.06,0-.06,0-.09,0h-.39Zm0,0"/><path class="cls-16" d="M106.41,61.34h-.31l-.06,0-.07,0-.06,0-.07,0-.06,0-.06,0-.06,0-.06,0,0,0-.06,0,0,0,0,.05,0,0,0,.05,0,.06,0,.06,0,.06,0,.06,0,.06,0,.07,0,.09v0h0v.06a.15.15,0,0,0,0,.07.13.13,0,0,0,0,.06.2.2,0,0,0,0,.07v.19a.17.17,0,0,0,0,.07.17.17,0,0,0,0,.07.2.2,0,0,0,0,.07.14.14,0,0,0,0,.06.14.14,0,0,0,0,.07.25.25,0,0,0,0,.07l0,.06,0,.06,0,.06,0,.06,0,.06,0,.06,0,0,0,0,0,.05.05,0,0,0,.06,0,.06,0,.06,0,.06,0,.06,0,.06,0,.1,0h.69l.06,0,.07,0,.07,0,.06,0,.06,0,.06,0,.06,0,.06,0,.05,0,.06,0s0,0,.05-.05l0,0,0-.06s0,0,.05,0l0-.06a.21.21,0,0,1,0-.06l0-.06,0-.06,0-.06,0-.06,0-.09v0h0a.2.2,0,0,1,0-.07s0,0,0-.06a.2.2,0,0,0,0-.07.2.2,0,0,0,0-.07v-.19a.2.2,0,0,0,0-.07.2.2,0,0,0,0-.07.13.13,0,0,0,0-.06.14.14,0,0,0,0-.07.19.19,0,0,0,0-.07.14.14,0,0,0,0-.06l0-.07,0-.06,0-.06,0-.06,0-.06s0,0-.05-.05a.21.21,0,0,0,0-.06l0-.05-.05,0,0,0,0-.05-.06,0,0,0-.07,0-.06,0-.06,0-.06,0-.09,0h-.39Zm0,0"/><path class="cls-16" d="M106.41,61.34h-.31l-.06,0-.07,0-.06,0-.07,0-.06,0-.06,0-.06,0-.06,0,0,0-.06,0,0,0,0,.05,0,0,0,.05,0,.06,0,.06,0,.06,0,.06,0,.06,0,.07,0,.09v0h0v.06a.15.15,0,0,0,0,.07.13.13,0,0,0,0,.06.2.2,0,0,0,0,.07v.19a.17.17,0,0,0,0,.07.17.17,0,0,0,0,.07.2.2,0,0,0,0,.07.14.14,0,0,0,0,.06.14.14,0,0,0,0,.07.25.25,0,0,0,0,.07l0,.06,0,.06,0,.06,0,.06,0,.06,0,.06,0,0,0,0,0,.05.05,0,0,0,.06,0,.06,0,.06,0,.06,0,.06,0,.06,0,.1,0h.69l.06,0,.07,0,.07,0,.06,0,.06,0,.06,0,.06,0,.06,0,.05,0,.06,0s0,0,.05-.05l0,0,0-.06s0,0,.05,0l0-.06a.21.21,0,0,1,0-.06l0-.06,0-.06,0-.06,0-.06,0-.09v0h0a.2.2,0,0,1,0-.07s0,0,0-.06a.2.2,0,0,0,0-.07.2.2,0,0,0,0-.07v-.19a.2.2,0,0,0,0-.07.2.2,0,0,0,0-.07.13.13,0,0,0,0-.06.14.14,0,0,0,0-.07.19.19,0,0,0,0-.07.14.14,0,0,0,0-.06l0-.07,0-.06,0-.06,0-.06,0-.06s0,0-.05-.05a.21.21,0,0,0,0-.06l0-.05-.05,0,0,0,0-.05-.06,0,0,0-.07,0-.06,0-.06,0-.06,0-.09,0h-.39Zm0,0"/><path class="cls-16" d="M106.41,61.34h-.31l-.06,0-.07,0-.06,0-.07,0-.06,0-.06,0-.06,0-.06,0,0,0-.06,0,0,0,0,.05,0,0,0,.05,0,.06,0,.06,0,.06,0,.06,0,.06,0,.07,0,.09v0h0v.06a.15.15,0,0,0,0,.07.13.13,0,0,0,0,.06.2.2,0,0,0,0,.07v.19a.17.17,0,0,0,0,.07.17.17,0,0,0,0,.07.2.2,0,0,0,0,.07.14.14,0,0,0,0,.06.14.14,0,0,0,0,.07.25.25,0,0,0,0,.07l0,.06,0,.06,0,.06,0,.06,0,.06,0,.06,0,0,0,0,0,.05.05,0,0,0,.06,0,.06,0,.06,0,.06,0,.06,0,.06,0,.1,0h.69l.06,0,.07,0,.07,0,.06,0,.06,0,.06,0,.06,0,.06,0,.05,0,.06,0s0,0,.05-.05l0,0,0-.06s0,0,.05,0l0-.06a.21.21,0,0,1,0-.06l0-.06,0-.06,0-.06,0-.06,0-.09v0h0a.2.2,0,0,1,0-.07s0,0,0-.06a.2.2,0,0,0,0-.07.2.2,0,0,0,0-.07v-.19a.2.2,0,0,0,0-.07.2.2,0,0,0,0-.07.13.13,0,0,0,0-.06.14.14,0,0,0,0-.07.19.19,0,0,0,0-.07.14.14,0,0,0,0-.06l0-.07,0-.06,0-.06,0-.06,0-.06s0,0-.05-.05a.21.21,0,0,0,0-.06l0-.05-.05,0,0,0,0-.05-.06,0,0,0-.07,0-.06,0-.06,0-.06,0-.09,0h-.39Zm0,0"/><path class="cls-16" d="M106.41,61.34h-.31l-.06,0-.07,0-.06,0-.07,0-.06,0-.06,0-.06,0-.06,0,0,0-.06,0,0,0,0,.05,0,0,0,.05,0,.06,0,.06,0,.06,0,.06,0,.06,0,.07,0,.09v0h0v.06a.15.15,0,0,0,0,.07.13.13,0,0,0,0,.06.2.2,0,0,0,0,.07v.19a.17.17,0,0,0,0,.07.17.17,0,0,0,0,.07.2.2,0,0,0,0,.07.14.14,0,0,0,0,.06.14.14,0,0,0,0,.07.25.25,0,0,0,0,.07l0,.06,0,.06,0,.06,0,.06,0,.06,0,.06,0,0,0,0,0,.05.05,0,0,0,.06,0,.06,0,.06,0,.06,0,.06,0,.06,0,.1,0h.69l.06,0,.07,0,.07,0,.06,0,.06,0,.06,0,.06,0,.06,0,.05,0,.06,0s0,0,.05-.05l0,0,0-.06s0,0,.05,0l0-.06a.21.21,0,0,1,0-.06l0-.06,0-.06,0-.06,0-.06,0-.09v0h0a.2.2,0,0,1,0-.07s0,0,0-.06a.2.2,0,0,0,0-.07.2.2,0,0,0,0-.07v-.19a.2.2,0,0,0,0-.07.2.2,0,0,0,0-.07.13.13,0,0,0,0-.06.14.14,0,0,0,0-.07.19.19,0,0,0,0-.07.14.14,0,0,0,0-.06l0-.07,0-.06,0-.06,0-.06,0-.06s0,0-.05-.05a.21.21,0,0,0,0-.06l0-.05-.05,0,0,0,0-.05-.06,0,0,0-.07,0-.06,0-.06,0-.06,0-.09,0h-.39Zm0,0"/><path class="cls-16" d="M106.41,61.34h-.31l-.06,0-.07,0-.06,0-.07,0-.06,0-.06,0-.06,0-.06,0,0,0-.06,0,0,0,0,.05,0,0,0,.06,0,0,0,.06,0,.06,0,.06,0,.06,0,.07,0,.09v0h0s0,0,0,.06a.17.17,0,0,0,0,.07.15.15,0,0,0,0,.07.15.15,0,0,0,0,.07v.18a.15.15,0,0,0,0,.07.15.15,0,0,0,0,.07.17.17,0,0,0,0,.07.25.25,0,0,0,0,.07.14.14,0,0,0,0,.06.14.14,0,0,0,0,.07l0,.06,0,.06,0,.07,0,.06,0,.05,0,.06,0,0,0,0,0,.05.05,0,0,0,.06,0,.06,0,.06,0,.06,0,.06,0,.06,0,.1,0h.09l.07,0h.25a.09.09,0,0,0,.07,0h.14l.07,0,.06,0,.07,0,.07,0,.06,0,.06,0,.06,0,.06,0,.06,0,.05,0,.06,0s0,0,.05-.05l0,0,0-.06s0,0,.05,0l0-.06a.21.21,0,0,1,0-.06l0-.06,0-.06,0-.06,0-.06,0-.09v0h0a.17.17,0,0,1,0-.07s0,0,0-.06a.2.2,0,0,0,0-.07.2.2,0,0,0,0-.07v-.19a.2.2,0,0,0,0-.07.2.2,0,0,0,0-.07.13.13,0,0,0,0-.06.14.14,0,0,0,0-.07.19.19,0,0,0,0-.07.14.14,0,0,0,0-.06l0-.07,0-.06,0-.06,0-.06,0-.06s0,0-.05-.05a.21.21,0,0,0,0-.06l0-.05-.05,0,0,0,0-.05-.06,0,0,0-.07,0-.06,0-.06,0-.06,0-.09,0h-.39Zm0,0"/><path class="cls-16" d="M106.41,61.34h-.31l-.06,0-.07,0-.06,0-.07,0-.06,0-.06,0-.06,0-.06,0,0,0-.06,0,0,0,0,.05,0,0,0,.05,0,.06,0,.06,0,.06,0,.06,0,.06,0,.07,0,.09v0h0v.06a.15.15,0,0,0,0,.07.13.13,0,0,0,0,.06.2.2,0,0,0,0,.07v.19a.17.17,0,0,0,0,.07.17.17,0,0,0,0,.07.2.2,0,0,0,0,.07.14.14,0,0,0,0,.06.14.14,0,0,0,0,.07.25.25,0,0,0,0,.07l0,.06,0,.06,0,.06,0,.06,0,.06,0,.06,0,0,0,0,0,.05.05,0,0,0,.06,0,.06,0,.06,0,.06,0,.06,0,.06,0,.1,0h.69l.06,0,.07,0,.07,0,.06,0,.06,0,.06,0,.06,0,.06,0,.05,0,.06,0s0,0,.05-.05l0,0,0-.06s0,0,.05,0l0-.06a.21.21,0,0,1,0-.06l0-.06,0-.06,0-.06,0-.06,0-.09v0h0a.2.2,0,0,1,0-.07s0,0,0-.06a.2.2,0,0,0,0-.07.2.2,0,0,0,0-.07v-.19a.2.2,0,0,0,0-.07.2.2,0,0,0,0-.07.13.13,0,0,0,0-.06.14.14,0,0,0,0-.07.19.19,0,0,0,0-.07.14.14,0,0,0,0-.06l0-.07,0-.06,0-.06,0-.06,0-.06s0,0-.05-.05a.21.21,0,0,0,0-.06l0-.05-.05,0,0,0,0-.05-.06,0,0,0-.07,0-.06,0-.06,0-.06,0-.09,0h-.39Zm0,0"/><path class="cls-16" d="M106.41,61.34h-.31l-.06,0-.07,0-.06,0-.07,0-.06,0-.06,0-.06,0-.06,0,0,0-.06,0,0,0,0,.05,0,0,0,.05,0,.06,0,.06,0,.06,0,.06,0,.06,0,.07,0,.09v0h0v.06a.15.15,0,0,0,0,.07.13.13,0,0,0,0,.06.2.2,0,0,0,0,.07v.19a.17.17,0,0,0,0,.07.17.17,0,0,0,0,.07.2.2,0,0,0,0,.07.14.14,0,0,0,0,.06.14.14,0,0,0,0,.07.25.25,0,0,0,0,.07l0,.06,0,.06,0,.06,0,.06,0,.06,0,.06,0,0,0,0,0,.05.05,0,0,0,.06,0,.06,0,.06,0,.06,0,.06,0,.06,0,.1,0h.69l.06,0,.07,0,.07,0,.06,0,.06,0,.06,0,.06,0,.06,0,.05,0,.06,0s0,0,.05-.05l0,0,0-.06s0,0,.05,0l0-.06a.21.21,0,0,1,0-.06l0-.06,0-.06,0-.06,0-.06,0-.09v0h0a.2.2,0,0,1,0-.07s0,0,0-.06a.2.2,0,0,0,0-.07.2.2,0,0,0,0-.07v-.19a.2.2,0,0,0,0-.07.2.2,0,0,0,0-.07.13.13,0,0,0,0-.06.14.14,0,0,0,0-.07.19.19,0,0,0,0-.07.14.14,0,0,0,0-.06l0-.07,0-.06,0-.06,0-.06,0-.06s0,0-.05-.05a.21.21,0,0,0,0-.06l0-.05-.05,0,0,0,0-.05-.06,0,0,0-.07,0-.06,0-.06,0-.06,0-.09,0h-.39Zm0,0"/><path class="cls-16" d="M106.41,61.34h-.31l-.06,0-.07,0-.06,0-.07,0-.06,0-.06,0-.06,0-.06,0,0,0-.06,0,0,0,0,.05,0,0,0,.05,0,.06,0,.06,0,.06,0,.06,0,.06,0,.07,0,.09v0h0v.06a.15.15,0,0,0,0,.07.13.13,0,0,0,0,.06.2.2,0,0,0,0,.07v.19a.17.17,0,0,0,0,.07.17.17,0,0,0,0,.07.2.2,0,0,0,0,.07.14.14,0,0,0,0,.06.14.14,0,0,0,0,.07.25.25,0,0,0,0,.07l0,.06,0,.06,0,.06,0,.06,0,.06,0,.06,0,0,0,0,0,.05.05,0,0,0,.06,0,.06,0,.06,0,.06,0,.06,0,.06,0,.1,0h.69l.06,0,.07,0,.07,0,.06,0,.06,0,.06,0,.06,0,.06,0,.05,0,.06,0s0,0,.05-.05l0,0,0-.06s0,0,.05,0l0-.06a.21.21,0,0,1,0-.06l0-.06,0-.06,0-.06,0-.06,0-.09v0h0a.2.2,0,0,1,0-.07s0,0,0-.06a.2.2,0,0,0,0-.07.2.2,0,0,0,0-.07v-.19a.2.2,0,0,0,0-.07.2.2,0,0,0,0-.07.13.13,0,0,0,0-.06.14.14,0,0,0,0-.07.19.19,0,0,0,0-.07.14.14,0,0,0,0-.06l0-.07,0-.06,0-.06,0-.06,0-.06s0,0-.05-.05a.21.21,0,0,0,0-.06l0-.05-.05,0,0,0,0-.05-.06,0,0,0-.07,0-.06,0-.06,0-.06,0-.09,0h-.39Zm0,0"/><path class="cls-16" d="M106.41,61.34h-.31l-.06,0-.07,0-.06,0-.07,0-.06,0-.06,0-.06,0-.06,0,0,0-.06,0,0,0,0,.05,0,0,0,.05,0,.06,0,.06,0,.06,0,.06,0,.06,0,.07,0,.09v0h0v.06a.15.15,0,0,0,0,.07.13.13,0,0,0,0,.06.2.2,0,0,0,0,.07v.19a.17.17,0,0,0,0,.07.17.17,0,0,0,0,.07.2.2,0,0,0,0,.07.14.14,0,0,0,0,.06.14.14,0,0,0,0,.07.25.25,0,0,0,0,.07l0,.06,0,.06,0,.06,0,.06,0,.06,0,.06,0,0,0,0,0,.05.05,0,0,0,.06,0,.06,0,.06,0,.06,0,.06,0,.06,0,.1,0h.69l.06,0,.07,0,.07,0,.06,0,.06,0,.06,0,.06,0,.06,0,.05,0,.06,0s0,0,.05-.05l0,0,0-.06s0,0,.05,0l0-.06a.21.21,0,0,1,0-.06l0-.06,0-.06,0-.06,0-.06,0-.09v0h0a.2.2,0,0,1,0-.07s0,0,0-.06a.2.2,0,0,0,0-.07.2.2,0,0,0,0-.07v-.19a.2.2,0,0,0,0-.07.2.2,0,0,0,0-.07.13.13,0,0,0,0-.06.14.14,0,0,0,0-.07.19.19,0,0,0,0-.07.14.14,0,0,0,0-.06l0-.07,0-.06,0-.06,0-.06,0-.06s0,0-.05-.05a.21.21,0,0,0,0-.06l0-.05-.05,0,0,0,0-.05-.06,0,0,0-.07,0-.06,0-.06,0-.06,0-.09,0h-.39Zm0,0"/><path class="cls-16" d="M106.41,61.34h-.31l-.06,0-.07,0-.06,0-.07,0-.06,0-.06,0-.06,0-.06,0,0,0-.06,0,0,0,0,.05,0,0,0,.05,0,.06,0,.06,0,.06,0,.06,0,.06,0,.07,0,.09v0h0v.06a.15.15,0,0,0,0,.07.13.13,0,0,0,0,.06.2.2,0,0,0,0,.07v.19a.17.17,0,0,0,0,.07.17.17,0,0,0,0,.07.2.2,0,0,0,0,.07.14.14,0,0,0,0,.06.14.14,0,0,0,0,.07.25.25,0,0,0,0,.07l0,.06,0,.06,0,.06,0,.06,0,.06,0,.06,0,0,0,0,0,.05.05,0,0,0,.06,0,.06,0,.06,0,.06,0,.06,0,.06,0,.1,0h.69l.06,0,.07,0,.07,0,.06,0,.06,0,.06,0,.06,0,.06,0,.05,0,.06,0s0,0,.05-.05l0,0,0-.06s0,0,.05,0l0-.06a.21.21,0,0,1,0-.06l0-.06,0-.06,0-.06,0-.06,0-.09v0h0a.2.2,0,0,1,0-.07s0,0,0-.06a.2.2,0,0,0,0-.07.2.2,0,0,0,0-.07v-.19a.2.2,0,0,0,0-.07.2.2,0,0,0,0-.07.13.13,0,0,0,0-.06.14.14,0,0,0,0-.07.19.19,0,0,0,0-.07.14.14,0,0,0,0-.06l0-.07,0-.06,0-.06,0-.06,0-.06s0,0-.05-.05a.21.21,0,0,0,0-.06l0-.05-.05,0,0,0,0-.05-.06,0,0,0-.07,0-.06,0-.06,0-.06,0-.09,0h-.39Zm0,0"/><path class="cls-16" d="M106.41,61.34h-.31l-.06,0-.07,0-.06,0-.07,0-.06,0-.06,0-.06,0-.06,0,0,0-.06,0,0,0,0,.05,0,0,0,.05,0,.06,0,.06,0,.06,0,.06,0,.06,0,.07,0,.09v0h0v.06a.15.15,0,0,0,0,.07.13.13,0,0,0,0,.06.2.2,0,0,0,0,.07v.19a.17.17,0,0,0,0,.07.17.17,0,0,0,0,.07.2.2,0,0,0,0,.07.14.14,0,0,0,0,.06.14.14,0,0,0,0,.07.25.25,0,0,0,0,.07l0,.06,0,.06,0,.06,0,.06,0,.06,0,.06,0,0,0,0,0,.05.05,0,0,0,.06,0,.06,0,.06,0,.06,0,.06,0,.06,0,.1,0h.69l.06,0,.07,0,.07,0,.06,0,.06,0,.06,0,.06,0,.06,0,.05,0,.06,0s0,0,.05-.05l0,0,0-.06s0,0,.05,0l0-.06a.21.21,0,0,1,0-.06l0-.06,0-.06,0-.06,0-.06,0-.09v0h0a.2.2,0,0,1,0-.07s0,0,0-.06a.2.2,0,0,0,0-.07.2.2,0,0,0,0-.07v-.19a.2.2,0,0,0,0-.07.2.2,0,0,0,0-.07.13.13,0,0,0,0-.06.14.14,0,0,0,0-.07.19.19,0,0,0,0-.07.14.14,0,0,0,0-.06l0-.07,0-.06,0-.06,0-.06,0-.06s0,0-.05-.05a.21.21,0,0,0,0-.06l0-.05-.05,0,0,0,0-.05-.06,0,0,0-.07,0-.06,0-.06,0-.06,0-.09,0h-.39Zm0,0"/><path class="cls-16" d="M106.41,61.34h-.31l-.06,0-.07,0-.06,0-.07,0-.06,0-.06,0-.06,0-.06,0,0,0-.06,0,0,0,0,.05,0,0,0,.05,0,.06,0,.06,0,.06,0,.06,0,.06,0,.07,0,.09v0h0v.06a.15.15,0,0,0,0,.07.13.13,0,0,0,0,.06.2.2,0,0,0,0,.07v.19a.17.17,0,0,0,0,.07.17.17,0,0,0,0,.07.2.2,0,0,0,0,.07.14.14,0,0,0,0,.06.14.14,0,0,0,0,.07.25.25,0,0,0,0,.07l0,.06,0,.06,0,.06,0,.06,0,.06,0,.06,0,0,0,0,0,.05.05,0,0,0,.06,0,.06,0,.06,0,.06,0,.06,0,.06,0,.1,0h.69l.06,0,.07,0,.07,0,.06,0,.06,0,.06,0,.06,0,.06,0,.05,0,.06,0s0,0,.05-.05l0,0,0-.06s0,0,.05,0l0-.06a.21.21,0,0,1,0-.06l0-.06,0-.06,0-.06,0-.06,0-.09v0h0a.2.2,0,0,1,0-.07s0,0,0-.06a.2.2,0,0,0,0-.07.2.2,0,0,0,0-.07v-.19a.2.2,0,0,0,0-.07.2.2,0,0,0,0-.07.13.13,0,0,0,0-.06.14.14,0,0,0,0-.07.19.19,0,0,0,0-.07.14.14,0,0,0,0-.06l0-.07,0-.06,0-.06,0-.06,0-.06s0,0-.05-.05a.21.21,0,0,0,0-.06l0-.05-.05,0,0,0,0-.05-.06,0,0,0-.07,0-.06,0-.06,0-.06,0-.09,0h-.39Zm0,0"/><path class="cls-16" d="M106.41,61.34h-.31l-.06,0-.07,0-.06,0-.07,0-.06,0-.06,0-.06,0-.06,0,0,0-.06,0,0,0,0,.05,0,0,0,.05,0,.06,0,.06,0,.06,0,.06,0,.06,0,.07,0,.09v0h0v.06a.15.15,0,0,0,0,.07.13.13,0,0,0,0,.06.2.2,0,0,0,0,.07v.19a.17.17,0,0,0,0,.07.17.17,0,0,0,0,.07.2.2,0,0,0,0,.07.14.14,0,0,0,0,.06.14.14,0,0,0,0,.07.25.25,0,0,0,0,.07l0,.06,0,.06,0,.06,0,.06,0,.06,0,.06,0,0,0,0,0,.05.05,0,0,0,.06,0,.06,0,.06,0,.06,0,.06,0,.06,0,.1,0h.69l.06,0,.07,0,.07,0,.06,0,.06,0,.06,0,.06,0,.06,0,.05,0,.06,0s0,0,.05-.05l0,0,0-.06s0,0,.05,0l0-.06a.21.21,0,0,1,0-.06l0-.06,0-.06,0-.06,0-.06,0-.09v0h0a.2.2,0,0,1,0-.07s0,0,0-.06a.2.2,0,0,0,0-.07.2.2,0,0,0,0-.07v-.19a.2.2,0,0,0,0-.07.2.2,0,0,0,0-.07.13.13,0,0,0,0-.06.14.14,0,0,0,0-.07.19.19,0,0,0,0-.07.14.14,0,0,0,0-.06l0-.07,0-.06,0-.06,0-.06,0-.06s0,0-.05-.05a.21.21,0,0,0,0-.06l0-.05-.05,0,0,0,0-.05-.06,0,0,0-.07,0-.06,0-.06,0-.06,0-.09,0h-.39Zm0,0"/><path class="cls-16" d="M106.41,61.34h-.31l-.06,0-.07,0-.06,0-.07,0-.06,0-.06,0-.06,0-.06,0,0,0-.06,0,0,0,0,.05,0,0,0,.05,0,.06,0,.06,0,.06,0,.06,0,.06,0,.07,0,.09v0h0v.06a.15.15,0,0,0,0,.07.13.13,0,0,0,0,.06.2.2,0,0,0,0,.07v.19a.17.17,0,0,0,0,.07.17.17,0,0,0,0,.07.2.2,0,0,0,0,.07.14.14,0,0,0,0,.06.14.14,0,0,0,0,.07.25.25,0,0,0,0,.07l0,.06,0,.06,0,.06,0,.06,0,.06,0,.06,0,0,0,0,0,.05.05,0,0,0,.06,0,.06,0,.06,0,.06,0,.06,0,.06,0,.1,0h.69l.06,0,.07,0,.07,0,.06,0,.06,0,.06,0,.06,0,.06,0,.05,0,.06,0s0,0,.05-.05l0,0,0-.06s0,0,.05,0l0-.06a.21.21,0,0,1,0-.06l0-.06,0-.06,0-.06,0-.06,0-.09v0h0a.2.2,0,0,1,0-.07s0,0,0-.06a.2.2,0,0,0,0-.07.2.2,0,0,0,0-.07v-.19a.2.2,0,0,0,0-.07.2.2,0,0,0,0-.07.13.13,0,0,0,0-.06.14.14,0,0,0,0-.07.19.19,0,0,0,0-.07.14.14,0,0,0,0-.06l0-.07,0-.06,0-.06,0-.06,0-.06s0,0-.05-.05a.21.21,0,0,0,0-.06l0-.05-.05,0,0,0,0-.05-.06,0,0,0-.07,0-.06,0-.06,0-.06,0-.09,0h-.39Zm0,0"/><path class="cls-1" d="M87.61,26.61c-2.18,0-13.85-.38-23.6,3.92-3.81,1.68-7.67,5.14-7.93,10.59A124.2,124.2,0,0,1,53.58,62c-.63,3.25,0,6.21,1.76,8.13A10.43,10.43,0,0,0,61.81,73a247.3,247.3,0,0,0,25.8,1.47A247.63,247.63,0,0,0,113.42,73a10.43,10.43,0,0,0,6.47-2.92c1.78-1.92,2.39-4.88,1.76-8.13a124.2,124.2,0,0,1-2.5-20.83c-.26-5.45-4.13-8.91-7.93-10.59-9.75-4.3-21.42-3.92-23.61-3.92Zm0,5.55c2.59,0,13.27-.13,21.37,3.45,2.79,1.23,4.47,2.59,4.63,5.78A131.48,131.48,0,0,0,116.2,63c.42,2.16.06,2.81-.38,3.28a5.65,5.65,0,0,1-3.17,1.2c-6.21.87-19.49,1.42-25,1.42s-18.82-.55-25-1.42a5.69,5.69,0,0,1-3.18-1.2C59,65.83,58.6,65.18,59,63a131.48,131.48,0,0,0,2.59-21.63c.16-3.19,1.84-4.55,4.63-5.78C74.35,32,85,32.16,87.61,32.16Zm0,0"/><path class="cls-1" d="M100.41,19a8.71,8.71,0,0,0-7.92,4.24l-2.75,4.82,4.82,2.76L97.31,26c.93-1.62,3.31-2.15,5.87-.61,5,3,8.37,5.24,13.79,9.09a9.36,9.36,0,0,1,4.11,6c.51,4,1,9.46,1.19,14.46s-.3,9.72-1,11.41a3.68,3.68,0,0,1-1.89,2.2,5.36,5.36,0,0,1-2.7.4,12.92,12.92,0,0,1-4-1l-2.43,5a17.6,17.6,0,0,0,6,1.6,10.73,10.73,0,0,0,5.52-1,9.62,9.62,0,0,0,4.6-5.07c1.49-3.59,1.56-8.41,1.41-13.69s-.7-10.84-1.22-15A14.6,14.6,0,0,0,120.18,30c-5.47-3.88-9-6.26-14.15-9.33A11.39,11.39,0,0,0,100.41,19Zm0,0"/><path class="cls-1" d="M74.82,19a11.36,11.36,0,0,0-5.62,1.62C64.08,23.7,60.52,26.08,55.05,30a14.6,14.6,0,0,0-6.41,9.88c-.52,4.15-1.08,9.72-1.23,15s-.07,10.1,1.42,13.69a9.62,9.62,0,0,0,4.6,5.07,10.71,10.71,0,0,0,5.52,1,17.6,17.6,0,0,0,6-1.6l-2.43-5a13,13,0,0,1-4,1,5.36,5.36,0,0,1-2.7-.4A3.72,3.72,0,0,1,54,66.4C53.26,64.71,52.82,60,53,55s.68-10.43,1.18-14.46a9.41,9.41,0,0,1,4.12-6c5.42-3.85,8.78-6.1,13.79-9.09,2.56-1.54,4.94-1,5.87.61l2.75,4.82,4.82-2.76-2.76-4.82A8.68,8.68,0,0,0,74.82,19Zm0,0"/><path class="cls-17" d="M92.15,29.45l2.75-4.82c1.8-3.14,6.1-3.77,9.7-1.62,5.07,3,8.53,5.35,14,9.21a12,12,0,0,1,5.27,8c1,8.18,2.18,22,0,27.28-3.12,7.51-12.39,3-12.39,3Zm19.3,41"/><path class="cls-5" d="M100.08,21.75a6.66,6.66,0,0,0-2.48.51,8.58,8.58,0,0,1,3.45,1.29c5.18,3.26,8.73,5.76,14.3,9.92a13,13,0,0,1,5.38,8.58c1,8.56,2.16,22.84.19,28.87a6.75,6.75,0,0,0,2.92-3.46c2.18-5.27,1-19.1,0-27.28a12,12,0,0,0-5.27-8c-5.44-3.86-8.9-6.17-14-9.21a8.57,8.57,0,0,0-4.52-1.26Zm0,0"/><path class="cls-1" d="M100.42,20.84a6.86,6.86,0,0,0-6.32,3.33L91.34,29l1.61.92,2.76-4.82c1.5-2.63,5.17-3.23,8.42-1.28,5,3,8.48,5.31,13.91,9.17a11.14,11.14,0,0,1,4.88,7.32c.51,4.07,1,9.55,1.2,14.64s-.18,9.85-1.14,12.16a5.65,5.65,0,0,1-2.79,3.16,7.21,7.21,0,0,1-3.65.59,14.76,14.76,0,0,1-4.68-1.23l-.81,1.66a16,16,0,0,0,5.36,1.41,9,9,0,0,0,4.58-.76,7.67,7.67,0,0,0,3.7-4.12c1.23-3,1.42-7.74,1.27-12.92s-.69-10.71-1.2-14.82a12.89,12.89,0,0,0-5.65-8.6c-5.45-3.87-9-6.21-14-9.25a9.44,9.44,0,0,0-4.66-1.38Zm0,0"/><path class="cls-4" d="M83.08,29.45l-2.75-4.82c-1.8-3.14-6.11-3.77-9.7-1.62-5.07,3-8.53,5.35-14,9.21a12.06,12.06,0,0,0-5.26,8c-1,8.18-2.18,22,0,27.28,3.11,7.51,12.38,3,12.38,3Zm-19.31,41"/><path class="cls-1" d="M74.81,20.84a9.44,9.44,0,0,0-4.66,1.38c-5.08,3-8.58,5.38-14,9.25a12.89,12.89,0,0,0-5.65,8.6c-.51,4.11-1.06,9.63-1.21,14.82s.05,10,1.28,12.92a7.63,7.63,0,0,0,3.7,4.12,9,9,0,0,0,4.58.76,16,16,0,0,0,5.36-1.41l-.81-1.66a14.77,14.77,0,0,1-4.69,1.23A7.17,7.17,0,0,1,55,70.26a5.7,5.7,0,0,1-2.8-3.16c-1-2.31-1.27-7.07-1.13-12.16s.69-10.57,1.2-14.64A11.14,11.14,0,0,1,57.19,33c5.43-3.86,8.87-6.15,13.91-9.17,3.25-1.95,6.92-1.35,8.42,1.28l2.76,4.82,1.6-.92-2.75-4.82a6.87,6.87,0,0,0-6.32-3.33Zm0,0"/><path class="cls-17" d="M110.1,33.07c-8.93-3.94-20.1-3.68-22.49-3.68s-13.56-.26-22.48,3.68c-3.3,1.46-6.07,3.86-6.28,8.19A127.52,127.52,0,0,1,56.3,62.49c-1,5.4,1.94,7.21,5.89,7.76A251.38,251.38,0,0,0,87.61,71.7,251.06,251.06,0,0,0,113,70.25c4-.55,7-2.36,5.9-7.76a127.52,127.52,0,0,1-2.55-21.23c-.21-4.33-3-6.73-6.28-8.19Zm0,0"/><path class="cls-5" d="M96.94,29.81a11.93,11.93,0,0,1,3.75,8.74A212.19,212.19,0,0,0,103.23,66a13.07,13.07,0,0,1-.07,5.17c3.24-.21,6.36-.46,8.81-.75a12.49,12.49,0,0,0,0-4.89A197.8,197.8,0,0,1,109.47,39a11.63,11.63,0,0,0-2.4-7,50.46,50.46,0,0,0-10.13-2.11Zm0,0"/><path class="cls-4" d="M78.29,29.81a45.37,45.37,0,0,0-13.16,3.26c-3.3,1.46-6.07,3.86-6.28,8.19A127.52,127.52,0,0,1,56.3,62.49c-1,5.4,1.94,7.21,5.89,7.76,2.57.36,6.14.65,9.88.89A13.23,13.23,0,0,1,72,66a210.53,210.53,0,0,0,2.55-27.42,11.9,11.9,0,0,1,3.75-8.74Zm0,0"/><path class="cls-1" d="M87.61,28.46c-2.31,0-13.66-.3-22.86,3.77-3.46,1.53-6.6,4.28-6.83,9a125.57,125.57,0,0,1-2.53,21.1c-.56,2.88,0,5.07,1.3,6.51a8.8,8.8,0,0,0,5.38,2.34,246,246,0,0,0,25.54,1.46,246.06,246.06,0,0,0,25.55-1.46,8.75,8.75,0,0,0,5.37-2.34c1.34-1.44,1.87-3.63,1.3-6.51a126.61,126.61,0,0,1-2.53-21.1c-.23-4.7-3.36-7.45-6.83-9-9.2-4.07-20.54-3.77-22.86-3.77Zm0,1.85c2.45,0,13.47-.21,22.12,3.61,3.12,1.38,5.53,3.43,5.73,7.38A128.92,128.92,0,0,0,118,62.66c.49,2.52,0,3.94-.84,4.9a7.15,7.15,0,0,1-4.27,1.77,250.59,250.59,0,0,1-25.3,1.44,250.56,250.56,0,0,1-25.29-1.44,7.15,7.15,0,0,1-4.27-1.77c-.89-1-1.33-2.38-.84-4.9A128.92,128.92,0,0,0,59.77,41.3c.19-3.95,2.6-6,5.73-7.38,8.65-3.82,19.66-3.61,22.11-3.61Zm0,0"/><path class="cls-18" d="M82.92,55.12c-1-.76.49-3.73.1-4.95s-3.39-2.72-3-4,3.7-.68,4.74-1.44,1.54-4.06,2.83-4.06,1.79,3.31,2.83,4.06,4.34.22,4.74,1.44-2.59,2.73-3,4,1.14,4.19.1,4.95S88.89,53.5,87.6,53.5,84,55.88,82.92,55.12Zm0,0"/><path class="cls-1" d="M87.6,40.26a1.56,1.56,0,0,0-1.21.71,6.58,6.58,0,0,0-.72,1.31c-.21.47-.41.95-.61,1.34a2.66,2.66,0,0,1-.57.79,2.59,2.59,0,0,1-.92.29c-.43.07-.95.11-1.46.17a6.09,6.09,0,0,0-1.47.28,1.55,1.55,0,0,0-1,.93,1.57,1.57,0,0,0,.3,1.37,6.92,6.92,0,0,0,1,1.09c.38.35.78.68,1.09,1a2.73,2.73,0,0,1,.58.78,2.65,2.65,0,0,1,0,1c-.06.44-.18.94-.29,1.45a7,7,0,0,0-.18,1.48,1.55,1.55,0,0,0,.56,1.28,1.53,1.53,0,0,0,1.39.14A7.22,7.22,0,0,0,85.4,55c.44-.26.89-.53,1.28-.73A2.69,2.69,0,0,1,87.6,54a2.48,2.48,0,0,1,.92.31c.39.2.83.47,1.28.73a7.22,7.22,0,0,0,1.36.63,1.53,1.53,0,0,0,1.39-.14,1.55,1.55,0,0,0,.56-1.28,6.46,6.46,0,0,0-.19-1.48c-.1-.51-.22-1-.29-1.45a2.83,2.83,0,0,1,0-1,2.73,2.73,0,0,1,.58-.78c.31-.31.71-.64,1.09-1a6.92,6.92,0,0,0,1-1.09,1.57,1.57,0,0,0,.3-1.37,1.55,1.55,0,0,0-1-.93,6.18,6.18,0,0,0-1.47-.28c-.51-.06-1-.1-1.46-.17a2.66,2.66,0,0,1-.93-.29,2.67,2.67,0,0,1-.56-.79c-.2-.39-.4-.87-.61-1.34A7.13,7.13,0,0,0,88.81,41a1.56,1.56,0,0,0-1.21-.71Zm0,.92c.12,0,.27.09.47.35a7.07,7.07,0,0,1,.62,1.13c.2.45.4.94.63,1.38a3.06,3.06,0,0,0,.84,1.12,3,3,0,0,0,1.32.45c.49.08,1,.12,1.51.18a6.18,6.18,0,0,1,1.27.23c.31.11.43.23.47.34s0,.28-.18.56a6.71,6.71,0,0,1-.89.94c-.36.33-.77.67-1.12,1a3.28,3.28,0,0,0-.8,1.15,3,3,0,0,0,0,1.4c.08.49.2,1,.3,1.48a6.17,6.17,0,0,1,.16,1.28c0,.33-.07.48-.17.56s-.27.09-.59,0a5.6,5.6,0,0,1-1.16-.55c-.43-.24-.88-.52-1.32-.74a2.39,2.39,0,0,0-2.68,0c-.44.22-.89.5-1.32.74a5.6,5.6,0,0,1-1.16.55c-.32.1-.49.08-.59,0s-.17-.22-.17-.55a6.17,6.17,0,0,1,.16-1.28c.1-.48.22-1,.3-1.49a2.37,2.37,0,0,0-.83-2.54c-.35-.35-.75-.69-1.11-1a6.19,6.19,0,0,1-.89-.93c-.19-.28-.22-.44-.18-.56s.16-.23.47-.34a6.18,6.18,0,0,1,1.27-.23c.49-.06,1-.1,1.51-.18A3,3,0,0,0,85,45.16,3.18,3.18,0,0,0,85.88,44c.23-.44.43-.93.63-1.38a6.65,6.65,0,0,1,.62-1.13c.2-.27.35-.34.47-.35Zm0,0"/><path class="cls-4" d="M75,66.26a1.8,1.8,0,0,1,3.59,0,1.81,1.81,0,0,1-1.8,1.8A1.79,1.79,0,0,1,75,66.26Zm0,0"/><path class="cls-4" d="M80.44,60.66a1,1,0,0,1,.28-.69,1,1,0,0,1,.69-.28,1,1,0,1,1,0,2,1,1,0,0,1-.69-.29,1,1,0,0,1-.28-.69Zm0,0"/><path class="cls-4" d="M88.21,60.11a1,1,0,1,1,1,1,1,1,0,0,1-1-1Zm0,0"/><path class="cls-5" d="M111.5,50.11a1,1,0,1,1,2,0,1,1,0,0,1-1,1,1,1,0,0,1-1-1Zm0,0"/><path class="cls-5" d="M109.45,58.55a1.81,1.81,0,1,1,.53,1.27,1.77,1.77,0,0,1-.53-1.27Zm0,0"/><rect class="cls-1" x="157.93" y="146.64" width="15.51" height="28.11"/><path class="cls-1" d="M183.37,107.42a3.24,3.24,0,0,1-3.24,3.23h-5.81a3.24,3.24,0,0,1-3.24-3.23V104a3.24,3.24,0,0,1,3.24-3.23h5.81a3.24,3.24,0,0,1,3.24,3.23Zm0-3.43"/><rect class="cls-1" x="172.18" y="79.81" width="10.09" height="24.19"/><path class="cls-1" d="M187.66,87.79l-5.38,2.53H175.8V79.81h11.86Zm0-8"/><path class="cls-1" d="M171.17,169.06c0,.05,0,.11,0,.17l-.62,13.16a3.24,3.24,0,0,1-3.24,3.09h-2a3.18,3.18,0,0,1-1.62-.44l-1.16-.66s0,0-.06,0l-9.64,4a3.24,3.24,0,0,1-3.36-.55,13.52,13.52,0,0,1-3.46-12.2,3.25,3.25,0,0,1,1.92-2.28l11.94-4.94a4.5,4.5,0,0,1,1.12-1.53,4.76,4.76,0,0,1,2.93-1.07h4.05a3.23,3.23,0,0,1,3.24,3.22Zm-6.67,4.05a4.51,4.51,0,0,1-1.42,1l-11,4.56a5.85,5.85,0,0,0,.49,2.83l7.39-3.06a7.15,7.15,0,0,1,4.31-.29l.24-5Zm0,0"/><path class="cls-1" d="M169.09,142l-23.25-3.06-.78,5.91L169.29,148l-.85,6.42-30.64-4,2.47-18.74,29.67,3.9Zm.85-6.42"/><path class="cls-1" d="M187.66,179.47l-10.37,6H163.83L165.16,160l-.59-.59v-6.17l1-1,1.14-21.9a6.15,6.15,0,0,1-.83-5.64l2.78-8.44v-6.53a6,6,0,0,1,3.2-5.13,5.68,5.68,0,0,1,2.64-.43h9.07a4.13,4.13,0,0,1,2.82,1.09,4.28,4.28,0,0,1,1.27,3Zm-12.52-68.82v6.66l-2.84,8.63,1.12.22-1.52,28.91-.86.86v.81l.74.73L170.65,179h4.91l5.62-3.25V110.65Zm-1.22,0a.34.34,0,0,0,.17,0Zm.17,0"/><path class="cls-1" d="M182.08,206a4.64,4.64,0,0,1-4.25,4.8l-15.32,2a4.84,4.84,0,0,1-4.14-1.35,4.89,4.89,0,0,1-1.1-4.53L164.83,179l14.83,0v6.84l1.47,1.46,1,.95Zm-8.89-17.5v-3h-3.41l-5.57,20.58,11.39-1.5V190.9Zm2.41,2.41"/><rect class="cls-19" x="174.32" y="103.99" width="5.81" height="3.42"/><path class="cls-20" d="M184.42,85.73l-2.86,1.35H179V83h5.39Zm0-2.69"/><rect class="cls-20" x="175.41" y="83.04" width="3.62" height="20.95"/><path class="cls-21" d="M168.25,163.24l-1.26,1c-2.07.16-2.25-.34-3.09-1.8H163s-.47,3.19,1.84,4.15c1.26.52,2,0,3.13,2.22Zm-.24,5.54"/><path class="cls-21" d="M167.81,154.59h-3.47c-.72,0-1.18.32-1.18,1.1v2.39h4.65Zm0,3.49"/><path class="cls-22" d="M167.3,182.24h-2l-1.42-.82a2.78,2.78,0,0,0-2.66,0l-9.64,4a9.41,9.41,0,0,1-2.42-9l12.71-5.26c1-.42.61-2,2-2h4.05Zm.63-13.17"/><path class="cls-23" d="M169.52,138.76l-26.47-3.48-1.62,12.32,27.43,3.62Zm-.66,12.46"/><path class="cls-19" d="M184.42,177.6l-8,4.61h-9.19l1.23-23.46-.66-.67v-3.49l.93-.93,1.3-24.88s-2-.4-1.08-3.06l2.94-8.93v-7.05a2.12,2.12,0,0,1,2.42-2.32h9.25a.79.79,0,0,1,.85.85Zm0-69.33"/><path class="cls-24" d="M177.31,107.42V181.7l1.5-.86V107.42Zm1.5,0"/><path class="cls-20" d="M174.32,182.21h-7.08l1.23-23.46-.66-.67v-3.49l.93-.93,1.3-24.88s-2-.4-1.08-3.06l2.94-8.93v-7.05a2.12,2.12,0,0,1,2.42-2.32Zm0-74.79"/><path class="cls-20" d="M184.42,177.6l-4.28,2.47V107.42h3.43a.79.79,0,0,1,.85.85Zm0-69.33"/><path class="cls-22" d="M184.42,128.78H170s-2-.4-1.08-3.06l2.94-8.93v-7.05a2.12,2.12,0,0,1,2.42-2.32h9.25a.79.79,0,0,1,.85.85Zm0-20.51"/><rect class="cls-25" x="177.31" y="107.42" width="1.5" height="21.36"/><path class="cls-26" d="M170,128.78s-2-.4-1.08-3.06l2.94-8.93v-7.05a2.12,2.12,0,0,1,2.42-2.32v21.36Zm4.28,0"/><path class="cls-26" d="M184.42,128.78h-4.28V107.42h3.43a.79.79,0,0,1,.85.85Zm0-20.51"/><path class="cls-22" d="M178.84,206a1.44,1.44,0,0,1-1.43,1.59l-15.32,2a1.41,1.41,0,0,1-1.7-1.82l6.91-25.53,9.13,0v4.94l2.41,2.41Zm0-16.43"/><path class="cls-1" d="M180.59,107.88h-6.73v-4.35h6.73Zm-5.81-3.42V107h4.89v-2.49Zm4.89,0"/><path class="cls-1" d="M179.49,104h-.91V83.5h-2.71V104H175V82.59h4.53Zm0-21.4"/><path class="cls-1" d="M184.88,86l-3.22,1.51h-3.09v-5h6.31Zm-5.38-2.52v3.11h1.95L184,85.44V83.51Zm4.46,0"/><rect class="cls-1" x="179.68" y="107.42" width="0.92" height="72.65"/><rect class="cls-1" x="170.04" y="128.32" width="14.38" height="0.92"/><path class="cls-26" d="M167.3,182.24h-2l-1.42-.82a2.47,2.47,0,0,0-1.41-.33l1.58-12h3.91Zm.63-13.17"/><path class="cls-21" d="M163.88,169.53a3,3,0,0,1-2-.61,2.65,2.65,0,0,1-.83-2.11l.08-7.2a1.93,1.93,0,0,1,1-1.78,2.19,2.19,0,0,1,1-.21l0,.92a1.45,1.45,0,0,0-.54.12c-.26.13-.5.3-.51,1l-.07,7.2a1.66,1.66,0,0,0,.5,1.39,2.1,2.1,0,0,0,1.36.4Zm0-.92"/><path class="cls-1" d="M167.74,182.7h-2.6l-1.52-.88a2.25,2.25,0,0,0-2.25,0l-9.91,4.1-.21-.19a10,10,0,0,1-2.57-9.49l0-.23,12.93-5.36a.66.66,0,0,0,.33-.31,6.71,6.71,0,0,0,.29-.63,2.13,2.13,0,0,1,.51-.75,1.58,1.58,0,0,1,1.09-.38h4.53Zm-3.86-13.17a.58.58,0,0,0-.47.15,1.15,1.15,0,0,0-.28.44,6.7,6.7,0,0,1-.35.73,1.59,1.59,0,0,1-.76.68l-12.48,5.17a8.89,8.89,0,0,0,2.11,8.17L161,181a3.35,3.35,0,0,1,3.07,0l1.31.76h1.47l.58-12.25Zm3.56,0"/><path class="cls-21" d="M167.81,155.05h-3.47a.85.85,0,0,0-.56.15c-.09.08-.16.19-.16.49v1.93h4.19v.92h-5.12v-2.85a1.55,1.55,0,0,1,.49-1.19,1.7,1.7,0,0,1,1.16-.37h3.47Zm0-.92"/><path class="cls-1" d="M167.16,164.66H167a3.46,3.46,0,0,1-2.31-.37,4,4,0,0,1-1.09-1.43h-.16a5.18,5.18,0,0,0,.08,1.17,2.57,2.57,0,0,0,1.51,2.09c.55.23,1,.22,1.63.48a3.72,3.72,0,0,1,1.73,2l-.83.41c-.52-1-.88-1.35-1.27-1.52s-.91-.18-1.62-.48a3.56,3.56,0,0,1-2.06-2.77,6.23,6.23,0,0,1-.06-1.87l.06-.39h1.52l.14.23a4.49,4.49,0,0,0,.95,1.36,2.42,2.42,0,0,0,1.58.21l1.14-.88.56.74Zm1.37-1"/><path class="cls-19" d="M171.7,161.34a1.11,1.11,0,0,0,.79-.33,1.09,1.09,0,0,0,.33-.78,1.12,1.12,0,1,0-1.12,1.11Zm0,0"/><path class="cls-19" d="M171.7,168.66a1.12,1.12,0,0,0,1.12-1.12,1.09,1.09,0,0,0-.33-.78,1.11,1.11,0,1,0-.79,1.9Zm0,0"/><path class="cls-21" d="M168.86,151.22l-5.3-.7,1.63-12.33,4.33.57Zm.66-12.46"/><path class="cls-27" d="M144.77,148l-3.34-.44,1.62-12.32,3.34.44Zm1.62-12.32"/><path class="cls-1" d="M169.46,139.22l-26-3.42L142,147.21l27,3.55-.12.91L140.91,148l1.74-13.24,26.93,3.54Zm.12-.92"/><path class="cls-1" d="M184.88,177.86l-8.33,4.82h-9.8L168,158.93l-.66-.66V154.4l.94-.94,1.28-24.36a2.14,2.14,0,0,1-.74-.55,3,3,0,0,1-.3-3l2.92-8.86v-7a2.62,2.62,0,0,1,1.49-2.57,3,3,0,0,1,1.44-.21h9.2a1.27,1.27,0,0,1,1.31,1.32ZM184,108.27a.37.37,0,0,0-.1-.3.4.4,0,0,0-.29-.09h-9.31a2.22,2.22,0,0,0-1,.15c-.47.2-.93.55-.93,1.72v7.13l-3,9c-.41,1.22-.15,1.76.12,2.07a1.29,1.29,0,0,0,.61.39l.39.08-1.33,25.45-.92.92v3.11l.67.67-1.21,23.19h8.57l7.66-4.42V108.27Zm0,0"/><path class="cls-26" d="M176.43,182.22l-6.7,0-5.36,25.32a1.35,1.35,0,0,0,.6,1.65l-2.88.38a1.41,1.41,0,0,1-1.7-1.82l6.91-25.53,9.13,0Zm0,0"/><path class="cls-25" d="M178.84,206a1.43,1.43,0,0,1-1.43,1.59l-.69.09a2.35,2.35,0,0,0,.08-.63V190.55L174.39,188v-5.81h2v4.94l2.41,2.41Zm0-16.43"/><path class="cls-1" d="M179.3,206a2,2,0,0,1-.49,1.44,2.17,2.17,0,0,1-1.34.61l-15.32,2a2.07,2.07,0,0,1-1.8-.54,1.89,1.89,0,0,1-.4-1.86l7-25.87,9.94,0V187l2.28,2.27.13.14ZM176,187.34v-4.66l-8.3,0-6.82,25.19a.94.94,0,0,0,.17,1,1.2,1.2,0,0,0,1,.27l15.32-2a1.3,1.3,0,0,0,.79-.32,1.13,1.13,0,0,0,.24-.81V189.75Zm2.42,2.41"/><path class="cls-1" d="M145.23,148.1l-.92-.12,1.62-12.32.92.12Zm1.62-12.32"/><path class="cls-1" d="M173.28,160.23a1.58,1.58,0,1,1-1.58-1.58,1.58,1.58,0,0,1,1.58,1.58Zm-.93,0a.65.65,0,1,0-1.3,0,.65.65,0,1,0,1.3,0Zm0,0"/><path class="cls-1" d="M173.28,167.54A1.58,1.58,0,1,1,171.7,166a1.58,1.58,0,0,1,1.58,1.57Zm-.93,0a.65.65,0,1,0-.65.65.64.64,0,0,0,.65-.65Zm0,0"/><text class="cls-28" transform="translate(31.31 264.55)">rosja</text></svg>