<?xml version="1.0" encoding="utf-8"?>
<!-- Generator: Adobe Illustrator 26.0.3, SVG Export Plug-In . SVG Version: 6.00 Build 0)  -->
<svg version="1.1" id="Слой_1" xmlns="http://www.w3.org/2000/svg" xmlns:xlink="http://www.w3.org/1999/xlink" x="0px" y="0px"
	 viewBox="0 0 195.6 280.6" style="enable-background:new 0 0 195.6 280.6;" xml:space="preserve">
<style type="text/css">
	.st0{clip-path:url(#SVGID_00000156568608566465938250000016036158216029475764_);fill:#E94539;}
	.st1{clip-path:url(#SVGID_00000156568608566465938250000016036158216029475764_);}
	.st2{fill-rule:evenodd;clip-rule:evenodd;fill:#FFFFFF;}
	.st3{fill-rule:evenodd;clip-rule:evenodd;fill:#1C1A19;}
	.st4{fill-rule:evenodd;clip-rule:evenodd;fill:#DA261D;}
	.st5{clip-path:url(#SVGID_00000156568608566465938250000016036158216029475764_);fill:#FFFFFF;}
	.st6{clip-path:url(#SVGID_00000156568608566465938250000016036158216029475764_);enable-background:new    ;}
	.st7{fill:#DA261D;}
	.st8{font-family:'Impact';}
	.st9{font-size:21px;}
	.st10{font-size:24.77px;}
	.st11{clip-path:url(#SVGID_00000156568608566465938250000016036158216029475764_);fill:#1C1A19;}
	.st12{fill:#FFFFFF;}
	.st13{font-size:20px;}
</style>
<g>
	<defs>
		<rect id="SVGID_1_" x="0" y="0" width="195.6" height="280.6"/>
	</defs>
	<clipPath id="SVGID_00000072999423501045653700000008968025913088590497_">
		<use xlink:href="#SVGID_1_"  style="overflow:visible;"/>
	</clipPath>
	
		<rect x="-9.2" y="-8.4" style="clip-path:url(#SVGID_00000072999423501045653700000008968025913088590497_);fill:#E94539;" width="214" height="297.9"/>
	<g style="clip-path:url(#SVGID_00000072999423501045653700000008968025913088590497_);enable-background:new    ;">
		
			<image style="overflow:visible;" width="175" height="211" xlink:href="8357FD51.png"  transform="matrix(0.5667 0 0 0.5667 48 11.4086)">
		</image>
	</g>
	<g id="g1031" style="clip-path:url(#SVGID_00000072999423501045653700000008968025913088590497_);">
		<g id="g1023">
			<path id="rect1000" class="st2" d="M151.6,267.1l-0.1-79.4c-1.9-28.1-25.8-49.8-54.1-49.8c-28.2,0.1-51.7,21.8-53.6,49.8l0,79.4
				H151.6z"/>
		</g>
		<g id="g992">
			<path id="path15-2" class="st3" d="M116.6,248.9c0.9-0.1,1.8-0.4,2.7-0.8c0.7-0.2,1.3-0.6,2.3-1c0.8-0.5,1.7-1.1,2.4-1.8
				c1.6-1.6,2-4.1,1-6.2c-0.5-0.9-0.9-1.9-1.2-2.9c-0.1-0.3-0.1-0.7,0.2-1c0.2-0.4,0.2-0.1,0.6-0.4c0.2,0,0.5,0.1,0.7,0.2
				c0.8,0.4,1.8,0.5,2.6,0.3c0.5-0.1,1.1-0.1,1.6,0c0.7,0,1.5,0.2,2.1,0.6c0.5,0.2,1,0.3,1.5,0.4c0.6,0.2,0.9,0,1.5-0.1
				c0.9-0.3,1.8-0.6,2.6-1.1c0.1-0.1,0.3,0.1,0.4,0c0.4-0.1,0.7,0.1,1.2-0.2c0.4-0.3,0.9-0.4,1.4-0.4c0.7,0.1,1.5-0.3,2,0.3
				c-0.3,1.9-2,3.5-1.5,7c0.3,4,3.8,7,7.8,6.7c0.1,0,0.2,0,0.4,0c0.4-0.3-4.5-3.1-3.9-7.9c1.4-3.8,3.8-7.1,0.8-10
				c-0.3-0.4-0.7-0.7-1.1-0.9c0.3,0,0.6-0.1,0.9-0.2c0.4-0.1,0.8-0.3,1.2-0.5c0.5-0.2,1.1-0.6,1.2-1.1c0-0.1-0.8,0-0.8-0.1
				c0,0.1-1.1-0.3-1.6-0.4c-0.9-0.2-1.3-1.4-1.9-2c-0.7-0.8-0.7,0.4-1.8-1.4c-0.1-0.1-0.4-0.4-0.1-0.5s1.3-0.1,1.4-0.2
				c0.1-0.6-1.2-0.2-1.6-1.1s-0.2-2.8-0.2-3.5c0-1.2,0.1-2.4,0.4-3.5c0.2-0.8,0.5-1.7,0.8-2.5c0.3-0.3,1-0.8,1.1-1
				c0.3-0.7,0.1-1.5-0.4-2c-0.3-0.4,0.1-0.2-0.2-1c-0.6-0.9-1.3-1.8-2.2-2.4c-0.5-0.4-1.1-0.7-1.7-0.8c-1.1-0.2-2.2-0.1-3.1,0.5
				c-0.4,0.3-0.7,0.6-0.9,1c-0.2,0.4-0.3,0.8-0.3,1.2c-3,0.3-3.6,0.3-4.2,0c-1.9-0.7-6-0.9-6.1-1c-0.2-1.2-1.2-4.6-2.1-5
				c-1-1.5-2.3-2.8-3.6-3.9c-0.6-0.7-1.2-1.5-1.7-2.3c-0.5-1-0.5-0.7-0.6-1.4c0-0.4,0-0.8-0.1-1.2c0.4-1.6,0-5.4-0.6-5.7
				c0.3-3.4,0.9-6.7,1.6-10.1c0.7-0.2,7.6-4.9,5.3-5.8c-0.5-0.2-0.4,0.2-0.5-0.3c-3-1.4-6.5-0.5-6.8,0c0,0,0,0,0,0.1c0,0,0,0,0,0.1
				c0,0,0,0,0-0.1c0,0,0,0,0-0.1c0-0.1,0-0.2-1.3-0.3c0-0.3,0-0.1-0.2-0.5s-6.8-1.8-7.8,0.6c-0.5,1.1-0.7,2.3-0.6,3.5
				c-0.8-0.3-1.6,0.4-2.1,1.2c0.7,1.7,1.4,2.9,1.4,4.3c0.1,1-0.1,2.1-0.5,3c-2.2,0.5-1.6,2.7-1.2,3.7c1.1,1.1-0.1,3.2-0.7,4.9
				c-0.4-0.1-0.3,0.2-0.7,0.2c-1.2-0.1-2.4,0-3.5,0.2c-0.7,0.2-1.5,0.3-2.2,0.4c-1.2-0.1-2.3,0-3.5,0.1c-1.6,0.4-3.1,0.9-4.7,1.6
				c-1.7,0.3-6,2.9-7.6,3.2c0.7-0.6,3.2-2.4,3.2-3.2c-1.5,0.2-6.4,2.6-8.6,2.6c-0.4,0-0.7-0.2-0.9-0.4c-1.2,0.4-5.4-6.5-5.2-8.9
				c1.6-3.6,3.4-7.8,5.2-11.3c1.5-0.6,5.1-2.8,4.3-3.4c0-0.3-0.6-0.7-0.6-0.7c0-0.8-1.6-1.2-2.9-1.2c-3.8-0.1-5-0.4-6.4,3.6
				c-0.7-0.5-1.2,0.1-1.8,0.8c0.2,2.2,0.2,1.5,0.1,2.2c-0.3,2.2-1.1,4.3-2.5,6c-0.4,0.1-0.8,0.2-1.2,0.2c-1.2,0.1-1.8,2.3-1.3,3.1
				c1.6,2.1,2,2,1.7,6.5c-0.2-0.2-0.4-0.4-0.5-0.6c-0.3-0.6-0.8-1-1.1-1.6c-0.7-1.2-1.6-2.1-2.3-3.3s-1.2-1.3-1-2.9
				c0.4-2,1-3.9,1.6-5.8l0,0c0.6-1.1,2.1-3.4,2.4-4s0.5-0.5,1.3-1c0.8-0.5,2.7-2,3-3.2c0.1-0.4-0.1-0.8-1-0.8c0-0.1,0.3-0.5,0.2-0.5
				s-0.4-0.3-0.5-0.3c-0.9-0.2-1.9-0.3-2.8-0.3c-3.5,0.3-4.2,0.5-5,1.1c-1.1,0.8-1.3,2.9-1.3,3.5c-0.3-0.2-0.7-0.3-1.1-0.2
				c-0.3,0.4-0.6,1-0.9,1.4c0.7,2.4,0.4,4.9-1,7c0,0.2,0.1-0.6,0-0.7c-0.1-1-0.6-1.9-1.2-2.6c0.1,0.5,0,1-0.1,1.6
				c-0.3-0.7-1.5-2.1-2.8-1.5c0,0.1,0.4,1.3,0.7,2.6c0.2,1,0.3,2,0.2,3c0,0.4-0.5-1.8-2.2-2.8c0.8,1.5,1.2,3.2,1,4.9
				c-0.7-2.1-1-1.1-1.3-1.6c0.9,2.4,0.8,3.2,0.7,3.6c-0.2,5.2,0.5,4.4,3,8.1c1.3,9-2.8,18-0.4,26.7c3.5,5.6,6.4,5.1,10.5,4.6
				c3.6,2.5,3.6,1.7,6.2,2c3.7-0.7,7.5-1.1,11.3-1c3,0.1,5.8-0.7,8.9-0.5c4.3,0.2,8.6,0.9,12.8,2.1c3.6,1.5,5.3,2.5,8.2,2.6
				c2.3,0.5,6.7-1.2,9.2,0.4c-0.4,1.5-0.1,3.1,0.8,4.4c0.7,1.1,1.2,2.1,1.8,3c0.8,1,0.9,2.4,0.4,3.5c-0.2,0.5-0.4,0.9-0.8,1.3
				c-0.5,0.6-1.1,1.2-1.7,1.8C118.1,247.6,116.7,248.9,116.6,248.9L116.6,248.9z M57.5,224.8c-6.2-0.2-4.2-6.5-3.8-11.6
				c0.1,0,0.3,0.9,0.4,0.9c0.8,3.1-1.3,3.6,0.6,7.4c0.6,1.3,2.6,3.1,3.5,3.3L57.5,224.8z M54,202.6c-0.1-8-0.2-7.1-0.2-11.1
				c0.1,0,0.2,0.6,0.3,0.5c1.7,6.5,1.8,3.9,0.1,9.9C54.1,202,54.1,202.6,54,202.6z M110,185.3c-0.5-1-0.7-2.1-0.4-3.2
				c0.2-0.9,0.7-3.4,0.8-4.1c0.5,0.6,1,2.3,0.5,4.9c-0.1,0.7-0.4,0.8-0.9,1.4C110.2,183.9,110.3,185.5,110,185.3z"/>
			<path id="path15-1" class="st4" d="M147.3,248.2c-0.6-1.3-3.4-1.5-3.4-7.6c1.4-3.7,5-8.3-1.2-10.6c-0.6,0.1-1.2,0.1-1.9,0.2
				c-0.1,0.9-0.2,1.8-0.4,2.7c-0.1,0.3-0.3,1-0.4,1.3c0.7,0.2,1.4-0.1,1.8,0c1.6,0.5,1.1,1.6-0.1,4.3
				C140.3,241.5,141.9,248.1,147.3,248.2L147.3,248.2z M118.2,248L118.2,248c1.2-0.5,2.4-1,3.5-1.7c0.6-0.4,1.1-0.8,1.6-1.3
				c1.8-2,1.9-3.6,1.2-5.2c-0.3-0.6-0.6-1.3-0.9-1.9c-0.3-0.4-0.5-0.9-0.7-1.4c-0.2-0.7,0.1-1.5,0.7-1.9c0.3-0.2,0.5-0.2,0.8-0.5
				c0.5-0.6,0.9-1.3,1.1-2.1c0.2-0.4,0.2-0.9,0-1.4c-0.2-0.7-0.6-1.2-1.2-1.5c-0.7,0.4-1.5,0.7-2.3,0.8c-0.7,0.2-1.3,0.5-1.8,1.1
				c-0.2,0.2-0.4,0.4-0.6,0.6c-3.4,5.3,3.9,8.4,2.3,12.3c-0.1,0.5-0.4,0.9-0.6,1.3C120.2,246.3,119.2,247.2,118.2,248L118.2,248z
				 M119.5,231.8L119.5,231.8l-0.2-0.1L119.5,231.8z M119.3,231.7c-0.2-0.1-0.4-0.2-0.6-0.2C118.9,231.5,119.1,231.6,119.3,231.7
				L119.3,231.7z M118.7,231.5L118.7,231.5L118.7,231.5L118.7,231.5z M118.6,231.5c0.4-0.6,0.9-1.1,1.5-1.5c-0.9-0.2-1.8-0.5-2.7-1
				c-0.4-0.3-0.8-0.6-1.3-0.9s-1.6-0.7-2.3-1.1c0.1,0,0.6-0.5,1.1-0.7c0.2-0.1,0.7,0,0.9-0.1s0.6-0.4,0.9-0.6c0.7-0.4,1.3-1,1.8-1.7
				c0.4-0.1,0.8-0.1,1.2-0.1c1.4,0.2,0.5,0.2,1.4,0.2c0.5,0,1,0.1,1.4,0.4c0.3,0.2,0.3,0.6,0.6,0.7c0.2,0.2,0.4,0.4,0.5,0.7
				c-0.1-0.1-0.2,0-0.3-0.1c-0.3-0.1-0.5-0.1-0.7-0.4c-0.2-0.1-0.4-0.4-0.6-0.5c-0.4-0.2-1-0.1-1.4-0.1s-1.2-0.4-1.7-0.1
				c-0.1,0.1-0.3,0.4-0.4,0.4c-0.4,0.4-0.8,0.7-1.2,1c-0.5,0.3-0.9,0.6-1.3,0.9s-0.6,0-0.9,0c0,0.1-0.3,0.2-0.3,0.3
				c0.3,0.1,0.7,0.2,1,0.4s0.6,0.4,0.9,0.6c0.6,0.4,1.2,0.8,1.9,1.1c1.6,0.8,3.4,0.8,5,0.1c0.5-0.2,0.5-0.4,0.6-0.6
				s-0.2-0.8-0.1-1.3s0.2-1,0.5-1.2s0.9-1,1.6-1c-0.4,1.1-0.6,1-0.4,1.6s0.1,0.1,0.4,0.5c0.1,0.2,0.7,0.2,0.9,0.2
				c0.5,0,1,0.2,1.3,0.6c0.1,0.2,0.2,0.4,0.4,0.5c0.1,0.2,0,0.9,0.4,0.3c0.1-0.1,0.1-0.1,0.2-0.2c0.3-0.3,0.5-0.6,0.7-0.9
				c0.2-0.3,0.4-0.5,0.6-0.8c0.2-0.4,0.4-0.8,0.6-1.2c0.6-0.6,1.3-1.1,2-1.5c0.3-0.2,0.7-0.1,0.9,0.1l0,0c-0.1,0-0.4,0.1-0.8,0.6
				c-0.2,0.4-0.6,3.1-0.3,2.8c0,0,1.4-0.9,1.4-0.6c0,0.8-0.1,1.6-0.4,2.3c-0.2,0.4-0.5,0.5-0.4,1.2c0.1,0.8,0.4,1.7,0.2,2
				c-0.3-0.8-0.4-0.8-0.4-0.7c0,0.3-0.1,0.1,0,0s0,0,0-0.1s-0.2,0.1-0.4-1c-0.1-0.6-0.3-0.2-0.5,0.2c0,0.2,0,0.4,0,0.6
				c0.1,0.3,0.3,0.5,0.1,0.5s-0.4-0.2-0.2,0.3s0.8,1.1,0.7,1c-0.5-0.2-0.9-0.5-1.3-0.9c-0.1-0.3-0.2-0.7-0.2-1
				c0.3-0.8,0.8-1.5,1.4-2c0.4-0.4,0.7-0.9,0.7-1.5c-0.1-0.2-0.9,0.2-1.3,1.2c-0.1,0.4-0.4,0.5-0.7,0.9s-0.6,0.4-0.9,0.9
				s-0.2,0.2-0.4,1c-0.1-0.5-0.1-1,0.2-1.4c0.1-0.3-1,0.1-1,0c0.2-0.3,0.4-0.5,0.7-0.6c0.4-0.2,0.7-0.4,1-0.6c1.1-1.2,0.8-3,1.1-4.2
				c-0.9,0.6-1.6,1.6-1.8,2.6c-0.5,0.5-1,1.1-1.4,1.6c-0.2,0.3-0.4,0.6-0.6,1c-0.1,0.3-0.2,0.5-0.3,0.7s-0.1,0.4-0.2,0.6
				s-0.2,0.4-0.4,0.4c0.2-0.9,0.2-1.9-0.1-2.8c-0.3-0.5-0.6-0.9-1.1-1.2c0.1,0.4,0.1,0.8,0.2,1.2c0,0.8-0.2,1.6-0.3,1.6
				c0-0.7,0-1.4-0.2-2.1c-0.2-0.6-0.1-0.7-0.5-0.9c-0.7-0.3-1.1-0.9-1.1-1.6c-0.7,1-0.2,1.9-0.4,2s-0.1,0.2-0.1,0.3
				c2.8,2.4,1.3,3.9,0.5,5.7c1.1,0.6,2.3,0.7,3.5,0.4c0.7-0.2,1.5-0.2,2.1,0.1c0.7,0.5,1.5,0.7,2.3,0.8c0.6,0.1,1.1,0,1.6-0.2
				c0.2-0.1,1.4-0.1,1.9-0.5c0.3-0.3,0.3-0.3,0.5-0.4s0.4-0.6,0.5-0.8c0.2-0.4,0.4-0.8,0.7-1.1c-0.2,0.5-0.2,0.4-0.3,0.7
				s-0.5,1.2-0.4,1.2c0.5,0.2,1.1,0.1,1.5-0.3c0.2-0.2,0.4-0.4,0.6-0.7c0.6-1.4,0.8-2.9,0.5-4.4c-0.1-0.4-0.3,0.1-0.5,0.2
				c-0.4,0.4-0.6,0.9-0.8,1.4c-0.2,0.7,0,1.4-0.2,1.2s-0.1-1-0.1-1.8s0.6-1.1,0.6-1.4c-0.3-1.5-0.6-1.1-0.1-3.1
				c0.2-1-2.1,2.1-1.9,3.3c-0.1,0.5-0.2,1.1-0.1,1.7c0.1,0.4,0.3,0.7,0.4,1.2c-0.9-0.8-0.3-0.3-0.8-1c-0.2-0.3,0.1-0.9,0-1.1
				c-0.3-1.1-0.5-2-0.9-2.2s0.8,0.2,0.8,0.9c0.4-0.5,0.3-0.8,0.3-0.8c0.3-0.4,0.6-0.8,0.9-1.2c0.4-0.7,1-1.2,1.6-1.6
				c0.1-0.1,0.2-0.1,0.4-0.2c-0.4-0.7-0.8-1.4-1.1-2.1c-1-2.4,1.3-8.5,1.8-10.7c0-0.2-1,0-2.4-0.7c-0.3-0.1-1.2,7.3-5.1,10.1
				c-1,0.7,2.1-2.2,2.8-4.3c0.7-2.1,1.3-4.2,1.6-6.4c0.9,0.1,2.4,1.1,3.6,0.6c-0.3,0.9-3,9.2-1.8,11.6c0.8,1.6,0.6,1.4,0.8,1.8
				c0.2,0,0.3,0,0.7,0c-0.1,0.1-0.3,0.3-0.4,0.4l0.1,0.1c-0.1,0-0.1,0-0.2,0.1H140c-0.1,0.1-0.3,0.2-0.4,0.3
				c-0.4,0.5-0.6,1.1-0.4,1.8c0.1,0.3,0.1,1.1,0.2,1.3s0.6-0.4,0.6-0.3c0.3,0.2,1.5-1.2,1.8-2.2c0-0.1-0.1-0.1-0.4-0.6
				c-0.3-0.7-1.1-1.3-1.1-2c-0.2-6.9,0.6-8.6,0.9-9.5c0.1-0.4,0.3-0.8,0.6-1.2c-0.1-0.1-0.3-0.3-0.5-0.5s-0.3-0.6-0.1-0.4
				c0.8,0.2,0.6,0.2,1,0c0.1-0.1,0.3-0.1,0.5-0.1l0,0c0-0.1,0.1-0.2,0.1-0.3c0.1-0.4-0.7-1.2-1-0.6c-0.1,0.1-0.1,0.2,0,0.1
				c0,0,0,0,0-0.1c0.1-0.3,0.5-1.2,0.2-1.6s-0.5-0.9-0.9-1.1c-0.5-0.4-1.1-0.7-1.7-0.8c-0.5-0.1-1.1-0.1-1.6-0.1
				c-0.5,0-0.9,0.2-1.3,0.4c-0.3,0.2-0.6,0.2-0.9,0.6c0,0-0.1,0.1-0.1,0.1V208c0.6-0.9,1.6-1.4,2.7-1.4c0.6-0.1,1.3,0,1.9,0.3
				c-0.2-0.5-0.4-0.4-1-0.7c-0.3-0.1-0.5-0.1-0.8-0.1c-1.5-0.3-2.9,0.6-3.4,2c-0.1,0.1-0.1,0.5,0.2,2.1c-0.6-0.4-0.6-0.9-0.8-0.7
				c-0.4,0.3-0.8,0.7-1.1,1.1c-1.2,1.4-2.6,2.6-4.2,3.4c-1.2,0.7-2.3,1.5-3.4,2.3c-2.1,2-4.3,7.1-2.6,7.5c-0.1,0-1-0.1-1.2-0.1
				c-1.2-1.7,1.4-7.2,4.7-9.1c0.7-0.4,2-1.3,3-1.8c1.2-0.7,2.2-1.6,3.2-2.6l1.1-1l0.5-0.2v-0.3c-1.1,0.2-2.1,0.4-3.2,0.7
				c-0.9,0.4-1.6,0.9-2.3,1.6c0.4-0.8,1-1.3,1.8-1.6c-1-0.6-7.6-2.8-7.6,2.2c-0.3-1.5,0.5-3.4-0.8-7.6c-0.4-0.9-0.9-1.6-1.6-2.4
				c-1.5-1.7-0.6,3.9,0.4,5.8c-2-2.5-2-5.9-1.6-6.8c-0.2-0.7-1.3-1.3-1.7-1.7c-1.3,4.9,1.6,9.6,2.4,11.1c-3.1-2.8-3.3-8.6-3-11.5
				c-0.7-1.7-1.7-3.4-3-4.7c-0.6-0.3-1.1-0.5-1.8-0.6c-1.4-0.1-1.1-0.6-0.2,0.9c0.5,0.6,0.9,1.3,1.2,2c0.4,0.6,0.7,1.3,1,2.1
				c0.3,1,1,2,0.8,3.2c-0.4,3.6-0.9,4.2,0.6,6.3c0.8,1.1,1.4,2.2,1.8,3.5c0.9,2.4,0.3,5.5-0.2,7.8c-0.1,0.4-0.1,0.7-0.2,1.1
				c0.1-0.4,0.1-0.7,0.2-1.1c0.6-3.3,0-6.7-1.6-9.6c-0.6-0.8-1.1-1.7-1.5-2.6c-1.7-5.3,1.6-3.8-0.9-8.1c-1-1.6-1.6-2.8-3-5.5
				c-0.4-0.8,0.2-2.3,0-3.3c-0.4-2-1.1-3.9-2.1-5.6c0.1-2.5,0.6-5,1.4-7.4c-0.2-1-1.2-1.2-2.3-1.3c1.2-0.1,2.6-0.5,2.7,0.2
				c1.3-0.3,3.1-2.2,4.2-3.1c0-0.1,0.2-0.2,0.2-0.4c-0.4-0.4-0.7-0.2-1-0.3c-0.8,0.9-1.8,1.8-2.9,2.5c-0.1,0-0.2,0.1-0.3,0.1
				c0.7-0.8,2.7-1.9,2.7-3c-0.9-0.6-5-1.3-6.3-0.2c-0.3,0-1.1,2-1.2,4c0.2,0.8,0.6,1.5,1.3,2c-0.3,0.1-1.6-1.3-2-1.7
				c-0.4,0.1-0.8,0.3-1.1,0.7c0.4,0.9,0.8,1.8,1.1,2.7c0.4,1.7,0.3,3.4-0.2,5c-1.5,1-1.7,1.2-1,2.6c0.3,0.6,0.5,1.2,0.6,1.9
				c-0.6,4.2-4.2,9.5-5.3,13.3c0,2.2,0,4.3-0.1,6.5c0.5,1.6,2.2,3.6,2.2,4.5c-4.3-4.7-3.6-4.7-3.1-11.1c0.8-3.4,2.5-6.4,3.4-8.6
				c-0.6-0.1-0.6,0.1-1.4,0.1c-1,0.1-3.3,0.3-4.5,0.4s-2.1-0.1-3.1,0c-0.4,0.1-0.7,0.1-1.1,0.2c-0.3,0.1-0.6,0.1-0.8,0.2
				c-1.5,0.5-3.1,1.1-4.5,1.8c-2.7,0.9-5.2,2.5-7.6,3.1c0.4-1,2.4-2.5,3.3-3.5c0-0.1,0.4-0.2,0.2-0.4c-1,0.5-8.3,4-8.5,2.3
				c-0.6-0.2-1.3-0.1-1.9,0.3c-0.2,0.2-0.6,0.3-0.8,0.6c0.7,0.5,1.5,1,2.3,1.4c4.5,1.4,4.2,7.2,4.5,10.6c0,2.9-1.4,5.6-1.7,8.4
				c-1.1-1.3,0.7-5.3,1-7.1c-0.1-4.1,0.2-8.2-3.2-11c-0.7-0.3-1.4-0.9-2.3-1.2c-2.6-1.2-5.1-2.5-7.4-4.1c-1.2-0.9-2.2-2-2.9-3.3
				c-1.1-1.8-2.3-3-3.5-4.9c-0.8-1.1,1.1-6.8,1.7-7.9l0.4-0.9c0.7-1.4,2.1-3.3,1.8-3.8c-0.8,0.3-1.8,0.2-2.6-0.1c1,0.2,2,0,2.9-0.5
				c0.2,0.2,0.3-0.3,0.3,0.4c0.9,0.2,3.8-2.2,3.6-3.1c0-0.1-0.1-0.2-0.3-0.2c-0.1,0-0.1,0-0.2,0.1c-0.8,0.8-1.7,1.5-2.7,1.9
				c0.8-0.6,1.5-1.2,2.2-2c-0.1-0.1,0.2-0.5,0.2-0.6s-0.1-0.2-0.3-0.2c-0.7-0.1-1.4-0.2-2.1-0.2c-1.5,0-2.9,0.3-4.3,0.9
				c-0.1,0.1-0.5,0.1-0.7,0.6c-0.4,0.9-0.7,1.8-0.7,2.7c0.9,1.6,0.5,0.8,1,1.4c-0.5-0.1-0.9-0.6-1.4-1c-0.3-0.2-0.7-0.3-1.1-0.2
				c-0.1,0.2-0.2,0.4-0.3,0.6c0.9,2.6,0,7.6-2.8,9c-0.9,1-0.3,1.8,1,3.5c1.6,3.6,3.6,9.1,3.6,12.8c-0.4-1.6-0.4-1.6-0.5-1.8
				l-0.2,0.1c-0.7,2.6-1.6,5.2-2.6,7.7c-0.5,5.3,2.4,8.4,2.2,11.5c-0.2-0.3-0.4-0.7-0.6-1c-1.2,4.7,3.3,7.7,4,7.9
				c0,0.4-0.2,0.8-0.5,1.1c-7.7-0.2-6-5.8-5.3-12.7c-1-4.4-1.6-5.6,0.1-8.9c0-8.1-0.1-6.8-0.3-14.4c-0.4-1-0.9-2-1.6-2.8
				c-1-1.6-1.5-2.7,0.7-3.7c0-0.1,0.5-0.5,0.5-0.6c0.1-0.4,0.1-0.9-0.1-1.3c-0.1-0.5-0.2-0.9-0.5-1.3c0-0.2-0.2,1.8-0.5,1.4
				c-0.6-1.3-1.8-2.4-2.3-2c0.3,1,0.6,2.1,0.8,3.2c0.2,2.1-0.5,4.5,1.7,6.4c-1.3,0.5-2.7-3.6-3-4.7c0.3,1.7,0,3.2,0.4,3.8
				c0.8,1.1,1.8,2,3,2.6c-1.7-0.3-1.7-0.1-3.5-1.8c0.7,3.1,2.1,3.1,3.4,3.7c-0.7,0.4-2.9,0.1-3.6-2.5c-0.3,2.1,0.1,2.2,0.2,2.8
				c1.4,2.1,2.7,3,3.2,5.1c0.1,6.6-0.8,12.9-1.5,19.3c0.2,5.6,0.9,8.2,5.8,10.4c2.3,0.4,3.5-0.4,5.2-0.4c5.3,3.4,7.9,1.2,13.6,0.9
				c3.8,0.4,9.1-0.4,13.2-0.5c4.4,0.2,8.7,0.9,12.8,2.1c1.5,0.6,0.4,0.4,5.5,2.3c1.2,0.3,2.4,0.4,3.6,0.4c1.7-0.2,3.3-0.3,5-0.4
				c1.1-0.4,2.3,0.3,3.1,0.2C118.7,231.9,118.6,231.6,118.6,231.5L118.6,231.5z M127.1,228.2L127.1,228.2
				C127,228.1,127,228.2,127.1,228.2L127.1,228.2z M135.9,233.3l-0.8-0.6l-0.2-0.7l-0.1-1.5l0.4-1.4l0.7-0.6l-0.7,2.1h0.7l-0.3,0.6
				v0.9L135.9,233.3z M108.7,231.5c-0.3,0-0.6-0.1-0.9-0.1c-0.4-0.1-0.8-0.4-1.1-0.7c1.2,0.4,2.4,0.3,3.5-0.1
				c0.6-0.2,1.2-0.5,1.7-0.9c0.5-0.4,1-0.9,1.4-1.4c-0.3,0.6-0.8,1.1-1.3,1.6c-0.6,0.6-1.4,1.1-2.2,1.4
				C109.5,231.4,109.1,231.5,108.7,231.5L108.7,231.5z M142.6,229.6c1.5,0,3.1-0.3,4.5-1c-1.6,0.2-3.1-0.7-3.6-2.1
				c-0.2-0.5-0.7-0.5-0.9-0.6s-0.1,0-0.5,0.8c-0.3,0.6-0.5,1.2-0.7,1.8c1.1,0.1,2.1,0.5,3,0.4c-1,0.3-3,0-3.3,0.1c0,0.2,0,0.4,0,0.7
				c0.3,0,0.5,0,0.8,0L142.6,229.6z M121.7,229c-1.1,0-2.2-0.3-3.2-0.9c-0.6-0.3-1.3-0.6-1.9-0.9c1.2,0,2.2,0.7,3.2,1.1
				c1,0.4,2.2,0.3,3.1-0.3c0-0.2,0-0.5,0-0.7c0,0.1-0.2-0.5-0.2-0.4c0.7,0.6,0.9,0.6,1,1.2C123.2,228.7,122.5,229,121.7,229z
				 M128.4,225.7c-0.3,0-0.7-0.1-0.9-0.3c1.8,0.3,1.8-0.5,3.8-3.6c0.8-1,1-0.5,0.2,0.3C130.4,224,129.6,225.7,128.4,225.7
				L128.4,225.7z M127.5,225c-0.3,0-0.6-0.1-0.9-0.2c0.5,0,1.6-0.1,1.6-0.5c-1.1-0.9-0.6-3.9,2.4-3c0.3-0.4,0.7-0.7,1.2-0.8
				c-1,0.8-1.8,1.9-2.4,3C128.9,224.6,128.2,225,127.5,225L127.5,225z M128.5,224c-0.4-1.5-0.1-2.4,1.6-2.2c0.2-0.1,0.3-0.3-0.1-0.4
				c-0.2-0.1-0.4-0.1-0.6-0.1C127.9,221.2,127.3,223.5,128.5,224L128.5,224z M124,223.9l-0.1-0.5c1.4-5.5,8.3-4.8,11-9.9l1.7-2.5
				l-0.1,0.4c-1.9,3.4-2.7,4.7-6.2,6.7C127.1,219.6,125.5,220.5,124,223.9L124,223.9z M136.8,210.6c0.2-0.9,0.4-1.9,1.5-2
				c0.3,0.1,0.5,0.4,0.4,0.7c0,0.1-0.1,0.2-0.2,0.3c-0.6-0.3-0.3-0.1-0.6-0.2C137.3,209.9,137.4,210.1,136.8,210.6L136.8,210.6z
				 M69.8,197.6c0.6-0.6,1.4-1,2.2-1.3c-1-2.2-4.4-5.4-4.1-8.9c1.6-3.5,2.6-5.5,4.8-10.2c0.7-1.2,0.5-0.6,0.6-1.7
				c-0.8,0.2-1.7,0.2-2.5,0c0.9-0.1,1.8-0.3,2.9-0.5c-0.2,0.2,0.1,0.5,0.1,0.6c0.6-0.1,3.5-1.6,3.7-2.6c0.1-0.3-0.5-0.2-0.3-0.5
				c-0.2-0.3-1.2,1.1-2.2,1.1c0.8-0.4,1.5-1,1.9-1.7c-0.7-0.4-1-0.3-2.2-0.4c-1.4-0.1-2.7,0.1-4,0.5c-1,0.8-1.7,1.9-2,3.1
				c0.2,0.2,0.7,0.6,0.9,0.8c-0.3,0.1-0.7,0-1.2-0.6c-0.2-0.1-0.5-0.2-0.8-0.2c-0.2,0.2-0.4,0.2-0.4,0.5c0.1,1.1,0,2.2-0.2,3.3
				c-0.4,1.8-1.2,3.5-2.4,5c-0.5,0.4-1.1,0.3-1.4,0.4c-0.4,0.1-0.7,0.4-0.8,0.9c-0.2,0.6-0.1,1.4,0.9,2.2c0.2,0.3,0.5,0.4,0.6,0.8
				c0.6,1.8,0.3,4.6,0.3,6C67,196,68.6,197.4,69.8,197.6L69.8,197.6z M115.6,193.6c0.3-0.6,0.2-3.6,0-4.4c-0.2-0.5-0.3-1-0.4-1.5
				c0.1-1.1,0.2-2.2,0.3-2.4c0.2-2.6,0.6-5.1,1.1-7.7c0.8-1.3-1.8-1.7-2.4-1.4c1.2-0.6,3.8-0.2,3.4,0.7c3.5-2.4,5.4-4,4.4-4.4
				c-1,0.9-2.1,1.8-3.2,2.5c-0.5,0.4,3.1-2.7,2.5-3c-0.7-0.4-1.5-0.6-2.3-0.5c-0.9,0-3,0.1-3.4,0.6c0.3,0.2-2.8,3.1-3.4,3.3
				c-0.3,0.4,0.7,1.1,1.1,1.6c-0.9-0.2-1.8-1.4-1.8-1.2c-1.2,0.2-0.6,0.8-0.9,1c1,1.2,1.5,2.8,1.3,4.4c-0.1,1.2,0,2.1-0.7,2.8
				c0,0.2-0.8,0.8-0.4,1.2c0.7,0.7,0.8,1.7,0.3,2.6c0.5,1.4,0.6,3,0.3,4.5C112.5,191.9,114.1,193,115.6,193.6L115.6,193.6z"/>
		</g>
	</g>
	<path style="clip-path:url(#SVGID_00000072999423501045653700000008968025913088590497_);fill:#FFFFFF;" d="M80,99.6
		c-12.6,0-22.9,10.2-22.9,30.5c0,25.4,18.2,50.9,40.7,50.9s40.7-25.4,40.7-50.9c0-20.3-10.2-30.5-22.9-30.5
		c-6.9,0-13.5,3.1-17.8,8.5C93.5,102.8,86.9,99.6,80,99.6z"/>
	<path style="clip-path:url(#SVGID_00000072999423501045653700000008968025913088590497_);fill:#FFFFFF;" d="M30.4,112.8h134.7
		c3,0,5.5,2.4,5.5,5.5v44c0,3-2.4,5.5-5.5,5.5H30.4c-3,0-5.5-2.4-5.5-5.5v-44C25,115.3,27.4,112.8,30.4,112.8z"/>
	<g style="clip-path:url(#SVGID_00000072999423501045653700000008968025913088590497_);enable-background:new    ;">
		<text transform="matrix(1 0 0 1 31.97 161.5699)" class="st7 st8 st9">Bielsk Podlaski</text>
	</g>
	<text transform="matrix(1 0 0 1 59.84 137.92)" class="st7 st8 st10">Kob</text>
	<text transform="matrix(1 0 0 1 98.67 137.92)" class="st7 st8 st10">r</text>
	<text transform="matrix(1 0 0 1 107.98 137.92)" class="st7 st8 st10">yn</text>
	<path style="clip-path:url(#SVGID_00000072999423501045653700000008968025913088590497_);fill:#1C1A19;" d="M150.5,0h29h16v16
		c0,7,0,14,0,21c-10.2,12.4-28.6,14.2-41,4S140.3,12.4,150.5,0z"/>
	<g style="clip-path:url(#SVGID_00000072999423501045653700000008968025913088590497_);enable-background:new    ;">
		<text transform="matrix(1 0 0 1 159.59 31.75)" class="st12 st8 st13">30</text>
	</g>
</g>
</svg>
