<?xml version="1.0" encoding="utf-8"?>
<!-- Generator: Adobe Illustrator 26.0.1, SVG Export Plug-In . SVG Version: 6.00 Build 0)  -->
<svg version="1.1" id="Слой_1" xmlns="http://www.w3.org/2000/svg" xmlns:xlink="http://www.w3.org/1999/xlink" x="0px" y="0px"
	 viewBox="0 0 195.6 280.6" style="enable-background:new 0 0 195.6 280.6;" xml:space="preserve">
<style type="text/css">
	
		.st0{clip-path:url(#SVGID_00000051370912452364719120000017290646671167324553_);fill:#4DAF50;stroke:#1D1D1B;stroke-miterlimit:10;}
	
		.st1{clip-path:url(#SVGID_00000025404657340425890000000016263588990580416943_);fill-rule:evenodd;clip-rule:evenodd;fill:#222222;}
	
		.st2{clip-path:url(#SVGID_00000014606902575778290230000011345387419648352181_);fill-rule:evenodd;clip-rule:evenodd;fill:#2BAFE5;}
	
		.st3{clip-path:url(#SVGID_00000012455395251044609870000008198141814054749621_);fill-rule:evenodd;clip-rule:evenodd;fill:#3AA66E;}
	
		.st4{clip-path:url(#SVGID_00000129184846269505663310000011614445658834322860_);fill-rule:evenodd;clip-rule:evenodd;fill:#FFFEFE;}
	.st5{clip-path:url(#SVGID_00000165928022477556344340000005846178444004840333_);fill:#FFFEFE;}
	.st6{enable-background:new    ;}
	.st7{fill:#FFFEFE;}
	.st8{fill:#3AA66E;}
</style>
<g>
	<g>
		<defs>
			<rect id="SVGID_1_" width="195.6" height="280.6"/>
		</defs>
		<clipPath id="SVGID_00000150094803516535913770000002860609370214268326_">
			<use xlink:href="#SVGID_1_"  style="overflow:visible;"/>
		</clipPath>
		
			<rect x="-273.6" y="-12.6" style="clip-path:url(#SVGID_00000150094803516535913770000002860609370214268326_);fill:#4DAF50;stroke:#1D1D1B;stroke-miterlimit:10;" width="478.2" height="297.9"/>
	</g>
	<g>
		<defs>
			<rect id="SVGID_00000133520931720378626400000016203582435251548090_" width="195.6" height="280.6"/>
		</defs>
		<clipPath id="SVGID_00000069358150111247599180000017895618267571606401_">
			<use xlink:href="#SVGID_00000133520931720378626400000016203582435251548090_"  style="overflow:visible;"/>
		</clipPath>
	</g>
	<g>
		<defs>
			<rect id="SVGID_00000093868607008260196920000011799574330790561667_" width="195.6" height="280.6"/>
		</defs>
		<clipPath id="SVGID_00000067937956712545384380000017315972162341961130_">
			<use xlink:href="#SVGID_00000093868607008260196920000011799574330790561667_"  style="overflow:visible;"/>
		</clipPath>
		
			<path style="clip-path:url(#SVGID_00000067937956712545384380000017315972162341961130_);fill-rule:evenodd;clip-rule:evenodd;fill:#222222;" d="
			M174.7,43v109.2c0,93-153.9,93-153.9,0V43H174.7"/>
	</g>
	<g>
		<defs>
			<rect id="SVGID_00000151525330033281099940000014873840646697101232_" width="195.6" height="280.6"/>
		</defs>
		<clipPath id="SVGID_00000125563818385107659580000012520342797804267932_">
			<use xlink:href="#SVGID_00000151525330033281099940000014873840646697101232_"  style="overflow:visible;"/>
		</clipPath>
		
			<path style="clip-path:url(#SVGID_00000125563818385107659580000012520342797804267932_);fill-rule:evenodd;clip-rule:evenodd;fill:#2BAFE5;" d="
			M26,170.6c-1.7-6.3-2.6-12.7-2.5-19.2V46h145.8l-6.5,3.3l2.5,2.7l-7.8,2.6l2.4,2.2l-8.4,3.3l2.1,2.9l-8.9,3.3l2.6,2.5l-8.3,3.6
			l2.2,1.9l-2.4,1l-5.4-11l-7.5,13l2.9,0.4l-3,8.2l-2.5,0.9l2.8,1.7l-5.9,2.6l1.7,1.6l-6,2l2.2,1.9l-2.9,1l-2.4-4.7h3.9l-7.6-15.1h4
			l-7.8-14.2L99,77.4l3.4,0.2L95.1,92l3.2-0.1l-6,16.4l3.3-0.1l-3.2,9.4l-4.3-8.7l4.3-0.2L84.3,92l4.5-0.4L81,77.7h3.9l-7.4-13.4
			l-6.8,13.1l3-0.1l-6.4,14.1l4.1,0.1l-8,17.3l4.4-0.1l-4,11.1l-5.5-10.6L63,109l-8.3-16l5-0.3l-7-15l3.4-0.1l-7.3-13.8l-6.3,13.6
			l2.5,0.1l-6.2,14.7l3.1,0.2l-7.4,16.4l5.7-0.1l-9.2,20l5,0.1l-10.2,20.9h8c0.4,9.2-6.4,14.2-6.7,24.7
			C26.7,174.1,26.4,171.1,26,170.6"/>
	</g>
	<g>
		<defs>
			<rect id="SVGID_00000132073526062791779250000010584477433240220579_" width="195.6" height="280.6"/>
		</defs>
		<clipPath id="SVGID_00000054979067803111195400000008775860664955532200_">
			<use xlink:href="#SVGID_00000132073526062791779250000010584477433240220579_"  style="overflow:visible;"/>
		</clipPath>
		
			<path style="clip-path:url(#SVGID_00000054979067803111195400000008775860664955532200_);fill-rule:evenodd;clip-rule:evenodd;fill:#3AA66E;" d="
			M98.5,146c1.7,0,3,1.3,3,3s-1.3,3-3,3s-3-1.3-3-3S96.9,146,98.5,146z M124.7,116.8l8.1,3.8l-1.5,2.7l6.4,3.6l-1.8,1.5l4.4,5.3
			l-2.1,1.1l4.2,6.4l-2.1,0.4l2.6,7l-2.7,0.1l2.7,6.8H140v7.1l-2.4-0.6c0.1,2.4,0.3,4.7,0.5,7.1l-3-0.1c-0.3,1.9-0.6,3.8-0.9,5.8
			l-2.7-0.9c-0.9,2.3-2.3,4.9-3.2,7.2c-1-0.4-1.5-1.2-2.4-1.6l-4.5,5l-1.2-1.8l-6.2,6.1c-0.2-1-0.3-2-0.5-3l-6.8,4.2l-0.8-2.4
			l-7.1,2.9l0.2-2.9l-7.6,2l0.3-2.6l-8.2,0.4l1.5-2.9l-8.5-0.6l2.3-2.4l-8.2-1.2c0.6-0.9,1.2-1.8,1.8-2.7c-2.3-1-4.8-2.3-7.2-3.4
			c-7.6,7.2-16,15.7-23.6,23c39.6,39.7,130.8,24.4,130.8-45.7V70.6L124.7,116.8L124.7,116.8z M137.9,75.6l-4,1.6l1.5,2l-7.1,3.2
			l1.9,1.6l-2.8,1l3-8.1l-2.8-0.5l5.7-10.2L137.9,75.6L137.9,75.6z M114.1,97.9l-4.1,1.5l2.5,2.2l-7.8,3.7l2.5,1.6l-7.8,3.9l2.7,2
			l-7.7,2.9l2.6,2.4l-4.1,1.7l4.3-12.6h-3.5L99.5,91h-2.8l7.5-14.7h-3.4l4.8-10.4l6,10.9l-3.9-0.1l7.3,14.9l-4.1-0.1L114.1,97.9
			L114.1,97.9z M63.8,148.1l-6.2-0.4l9.6-20.6l-5.6,0.2c-0.4,1,6.4-12,8-19.7h-4l7.6-17l-4-0.1l6.2-14h-2.6l4.8-9.8l5.6,10.1
			L79.4,77L87,90.9l-4.6,0.3l8.4,16.5l-4.5,0.2l6,11.9l-4.6,1.9l1.9,2.2l-7.9,3l2.3,2.7l-7.6,2.7l2.3,3l-8.5,3.1l2.5,2.1l-8.5,3.3
			l2.8,2.8L63.8,148.1L63.8,148.1z M58.3,150.3l1.7,2.4l-6.8,2.1l1.7,2.5l-7.2,2.6l2.4,2.5l-8.4,3l2.5,3l-8.9,2.5l2.2,2
			c-2.8,1.4-5.7,2.3-8.8,2.7c-1.7-3,1-7.6,1.7-10.8c2.7-5.3,4.6-10.1,4.5-16.4l-7.2-0.2l10-21h-5.1l9.4-19.9h-5.5L44,91h-3.5
			l6.3-14.7L44,76.4l4.7-10.1l5.8,10.5H51l7.3,15.1L53.2,92l8.1,16.2l-4.4,0.5l6.4,12.6l-3.7,7.2l6-0.4l-10,20.7l6.3,0.2L58.3,150.3
			"/>
	</g>
	<g>
		<defs>
			<rect id="SVGID_00000127044217954953699750000000406509560913101227_" width="195.6" height="280.6"/>
		</defs>
		<clipPath id="SVGID_00000181767457002097747190000013630210497227694494_">
			<use xlink:href="#SVGID_00000127044217954953699750000000406509560913101227_"  style="overflow:visible;"/>
		</clipPath>
		
			<path style="clip-path:url(#SVGID_00000181767457002097747190000013630210497227694494_);fill-rule:evenodd;clip-rule:evenodd;fill:#FFFEFE;" d="
			M65.9,173.3l7.9,3.7l-1.7,2.7l8,0.9l-1.5,2.4l7.6,0.3l-1.1,2.8l7.6-0.3l-0.3,2.1l7.2-2v2.3l6.8-2.7l0.6,2.6l7.5-4.8v2.9l5.5-5.4
			l1.2,1.5l4-4.6l2.3,1.5l2.7-7l2.4,1.2l0.9-5.6l3,0.1l-0.1-7.1l2.3,0.4l-0.1-6.8l2.2-0.2l-2.7-6.7l3.2-0.1l-3.3-7l2.4-0.3l-4.3-6.1
			l2-1l-4-4.9l1.4-1.2l-6.4-3.3l1.7-2.7l-7.1-3.4l-58,55.6L65.9,173.3z M172.3,46v22.6L40.4,195.4c-5.1-5.1-9.2-11.2-11.9-17.9
			l12-3.8l-2.5-1.8l8.6-2.6l-2.5-3l8.5-3.4l-2.3-2.1l7-2.9l-1.9-2.3l6.9-2l-1.8-2.5l8.5-3.9l-2.3-2.5l8-3.3l-1.7-2.2l8.1-3.2
			l-2.1-2.7l7.2-3l-2.2-2.6l8.6-3.2l-2.5-2.1l9.4-4.3l-2.5-1.9l7.4-3.2l-2.4-2.1l8-3.9l-3.1-1.7l7.8-3.3l-2.5-2.1l8.3-3l-2.3-2
			l6.2-2l-1.8-1.4l6.7-2.7l-2.9-1.9l6.8-2.3l-2.5-1.9l7.1-2.8l-1.8-2.3l7.8-2.8l-2.4-1.9l8.2-3.5l-2.3-2.6l8.3-3.3l-1.8-2.8l8.4-3.7
			l-2.1-1.7l7.3-2.7l-2-2.5l6.1-4.1L172.3,46L172.3,46z M98.5,144.9c2.2,0,4.1,1.8,4.1,4.1s-1.8,4.1-4.1,4.1c-2.2,0-4.1-1.8-4.1-4.1
			C94.5,146.8,96.3,144.9,98.5,144.9"/>
	</g>
	<g>
		<defs>
			<rect id="SVGID_00000152958297210560695240000007381448159430791565_" width="195.6" height="280.6"/>
		</defs>
		<clipPath id="SVGID_00000176744219907805270210000018270121841291956137_">
			<use xlink:href="#SVGID_00000152958297210560695240000007381448159430791565_"  style="overflow:visible;"/>
		</clipPath>
		<path style="clip-path:url(#SVGID_00000176744219907805270210000018270121841291956137_);fill:#FFFEFE;" d="M44.8,0h-29h-16v16
			c0,7,0,14,0,21c10.3,12.4,28.6,14.1,41,3.8c6.7-5.6,10.6-13.8,10.5-22.5C51.4,11.6,49,5.2,44.8,0z"/>
	</g>
	<g>
		<defs>
			<rect id="SVGID_00000147211434978883761570000007413900895473247625_" width="195.6" height="280.6"/>
		</defs>
		<clipPath id="SVGID_00000183207739296320380770000003174708831511451033_">
			<use xlink:href="#SVGID_00000147211434978883761570000007413900895473247625_"  style="overflow:visible;"/>
		</clipPath>
	</g>
</g>
<g class="st6">
	<path class="st7" d="M40,232.4V264h-8.2v-13.3h-2.5V264h-8.2v-31.6h8.2v11.3h2.5v-11.3H40z"/>
	<path class="st7" d="M50.2,248.1h-7.4v-1.7c0-2,0.2-3.6,0.7-4.6c0.5-1.1,1.4-2,2.8-2.9c1.4-0.8,3.2-1.2,5.4-1.2
		c2.7,0,4.7,0.5,6,1.4c1.4,0.9,2.2,2.1,2.4,3.5c0.3,1.4,0.4,4.2,0.4,8.5v13h-7.7v-2.3c-0.5,0.9-1.1,1.6-1.9,2.1
		c-0.8,0.5-1.7,0.7-2.7,0.7c-1.4,0-2.6-0.4-3.8-1.2c-1.2-0.8-1.7-2.5-1.7-5.1v-2.1c0-1.9,0.3-3.3,0.9-4s2.1-1.5,4.5-2.5
		c2.6-1,4-1.7,4.2-2.1c0.2-0.4,0.3-1.1,0.3-2.1c0-1.4-0.1-2.2-0.3-2.6c-0.2-0.4-0.5-0.6-1-0.6c-0.5,0-0.9,0.2-1,0.5
		c-0.1,0.3-0.2,1.2-0.2,2.7V248.1z M52.7,251.6c-1.3,0.9-2,1.7-2.2,2.3c-0.2,0.6-0.3,1.5-0.3,2.7c0,1.3,0.1,2.2,0.3,2.6
		c0.2,0.4,0.5,0.6,1,0.6c0.5,0,0.8-0.2,1-0.5c0.1-0.3,0.2-1.1,0.2-2.4V251.6z"/>
	<path class="st7" d="M71.6,238.1v20.5c0,2.4,0,4-0.1,4.9s-0.4,1.6-0.9,2.2c-0.5,0.6-1.2,1.1-2,1.4c-0.8,0.3-2.1,0.5-3.8,0.5h-3
		v-4.1c0.9,0,1.5-0.1,1.6-0.3c0.1-0.2,0.2-1.5,0.2-3.9v-21.2H71.6z M71.6,232.4v4.1h-8.1v-4.1H71.6z"/>
	<path class="st7" d="M82.5,238.1l-0.1,2.4c0.6-1,1.3-1.7,2.1-2.1c0.8-0.5,1.8-0.7,2.9-0.7c1.4,0,2.5,0.3,3.3,1s1.4,1.4,1.7,2.4
		c0.2,1,0.4,2.6,0.4,4.9V264h-7.9V246c0-1.8-0.1-2.9-0.2-3.3c-0.1-0.4-0.4-0.6-1-0.6c-0.6,0-0.9,0.2-1.1,0.7
		c-0.1,0.4-0.2,1.7-0.2,3.6V264h-7.9v-25.9H82.5z"/>
	<path class="st7" d="M113.2,247.2v6.3c0,2.3-0.1,4-0.4,5.1c-0.2,1.1-0.7,2.1-1.5,3c-0.8,0.9-1.8,1.6-3,2.1
		c-1.2,0.4-2.6,0.7-4.2,0.7c-1.7,0-3.2-0.2-4.4-0.6c-1.2-0.4-2.2-1-2.8-1.7c-0.7-0.8-1.1-1.7-1.4-2.8c-0.3-1.1-0.4-2.8-0.4-5v-6.6
		c0-2.4,0.3-4.3,0.8-5.6c0.5-1.4,1.5-2.4,2.8-3.3c1.4-0.8,3.1-1.2,5.2-1.2c1.8,0,3.3,0.3,4.6,0.8c1.3,0.5,2.2,1.2,2.9,2.1
		c0.7,0.8,1.2,1.7,1.4,2.6C113.1,244,113.2,245.3,113.2,247.2z M110.9,231l-6.4,5.3h-4l3.4-5.3H110.9z M105.3,245.2
		c0-1.3-0.1-2.2-0.2-2.5c-0.1-0.3-0.4-0.5-0.9-0.5s-0.8,0.2-0.9,0.5c-0.2,0.3-0.2,1.2-0.2,2.5v11.7c0,1.2,0.1,2,0.2,2.4
		s0.5,0.6,0.9,0.6c0.5,0,0.8-0.2,0.9-0.5c0.1-0.3,0.2-1.1,0.2-2.2V245.2z"/>
	<path class="st7" d="M141.3,238.1l-3.1,25.9h-8.6c-0.5-3.2-1-7.3-1.6-12.5c-0.2,2.3-0.5,4.6-0.9,6.9l-0.9,5.6h-8.6l-3.3-25.9h6.8
		c0.1,0.7,0.6,5.6,1.7,14.8c0.1-0.9,0.7-5.9,1.8-14.8h6.5l1.6,14.8c0.3-4.3,0.9-9.3,1.8-14.8H141.3z"/>
	<path class="st7" d="M159.6,238.1l-3.2,10.3l4.2,15.6h-7.6l-2.5-11.3l0,11.3h-7.9v-31.6h7.9l0,13.3l2.5-7.6H159.6z"/>
	<path class="st7" d="M168.7,248.1h-7.4v-1.7c0-2,0.2-3.6,0.7-4.6c0.5-1.1,1.4-2,2.8-2.9c1.4-0.8,3.2-1.2,5.4-1.2
		c2.7,0,4.7,0.5,6,1.4c1.4,0.9,2.2,2.1,2.4,3.5c0.3,1.4,0.4,4.2,0.4,8.5v13h-7.7v-2.3c-0.5,0.9-1.1,1.6-1.9,2.1s-1.7,0.7-2.7,0.7
		c-1.4,0-2.6-0.4-3.8-1.2c-1.2-0.8-1.7-2.5-1.7-5.1v-2.1c0-1.9,0.3-3.3,0.9-4c0.6-0.7,2.1-1.5,4.5-2.5c2.6-1,4-1.7,4.2-2.1
		c0.2-0.4,0.3-1.1,0.3-2.1c0-1.4-0.1-2.2-0.3-2.6c-0.2-0.4-0.5-0.6-1-0.6c-0.5,0-0.9,0.2-1,0.5c-0.1,0.3-0.2,1.2-0.2,2.7V248.1z
		 M171.2,251.6c-1.3,0.9-2,1.7-2.2,2.3c-0.2,0.6-0.3,1.5-0.3,2.7c0,1.3,0.1,2.2,0.3,2.6s0.5,0.6,1,0.6c0.5,0,0.8-0.2,1-0.5
		c0.1-0.3,0.2-1.1,0.2-2.4V251.6z"/>
</g>
<g class="st6">
	<path class="st8" d="M24.7,29.1v2.7H16l0-2.3c2.6-4.2,4.1-6.8,4.6-7.8s0.7-1.8,0.7-2.3c0-0.4-0.1-0.8-0.2-1
		c-0.1-0.2-0.4-0.3-0.7-0.3c-0.3,0-0.5,0.1-0.7,0.4c-0.1,0.2-0.2,0.7-0.2,1.4v1.5H16v-0.6c0-0.9,0-1.6,0.1-2.1s0.3-1,0.7-1.5
		s0.8-0.9,1.4-1.1s1.3-0.4,2.1-0.4c1.6,0,2.8,0.4,3.6,1.2s1.2,1.8,1.2,3c0,0.9-0.2,1.9-0.7,2.9s-1.8,3.2-4,6.4H24.7z"/>
	<path class="st8" d="M32.3,15.9v15.8h-3.9v-8.5c0-1.2,0-2-0.1-2.2s-0.2-0.4-0.5-0.6s-0.9-0.2-1.8-0.2h-0.4v-1.8
		c1.9-0.4,3.4-1.3,4.3-2.5H32.3z"/>
</g>
</svg>
