<svg id="Слой_1" data-name="Слой 1" xmlns="http://www.w3.org/2000/svg" viewBox="0 0 195.59 280.63"><defs><style>.cls-1{fill:#e94539;}.cls-13,.cls-2{fill:#fff;}.cls-3{fill:#0f66b0;}.cls-4{fill:#f08224;}.cls-5{fill:#1166b0;}.cls-15,.cls-17,.cls-19,.cls-5,.cls-6{fill-rule:evenodd;}.cls-11,.cls-6{fill:#424242;}.cls-10,.cls-14,.cls-16,.cls-18,.cls-20,.cls-21,.cls-22,.cls-7,.cls-8,.cls-9{fill:none;}.cls-10,.cls-14,.cls-16,.cls-18,.cls-19,.cls-20,.cls-21,.cls-22,.cls-7,.cls-8,.cls-9{stroke:#424242;}.cls-8{stroke-width:1px;}.cls-9{stroke-width:1.03px;}.cls-10{stroke-width:0.88px;}.cls-12,.cls-23,.cls-24{fill:#e00814;}.cls-13{stroke:#333;stroke-width:1.06px;}.cls-13,.cls-20,.cls-22{stroke-linecap:round;stroke-linejoin:round;}.cls-14,.cls-16,.cls-19,.cls-21{stroke-miterlimit:5.63;}.cls-14{stroke-width:1.87px;}.cls-15{fill:#ffe407;}.cls-17{fill:#fee308;}.cls-18{stroke-width:1.4px;}.cls-19{fill:#ffe209;}.cls-19,.cls-21{stroke-width:0.75px;}.cls-20{stroke-width:1.26px;}.cls-22{stroke-width:0.72px;}.cls-23{font-size:24.77px;}.cls-23,.cls-24{font-family:Impact;}.cls-24{font-size:20px;}</style></defs><rect class="cls-1" x="-9.21" y="-8.4" width="214.01" height="297.89"/><path class="cls-2" d="M47,204c3.36,3.79,4.79,7.17,4.78,11.36s-1.18,7-4.48,10.56l-2.42,2.59v13.86c0,10.44.16,14,.66,14.38.92.72,8.57,3.62,15.31,5.8,12.43,4,23.18,5.26,41.79,4.82,17.41-.42,25.34-1.95,41.13-7.94l7.05-2.67V228.47l-2.17-2.35c-6.31-6.85-6.27-14.46.12-22.08l2.19-2.62-.28-10.23c-.31-11.48-1.21-16.12-4.19-21.73-3.29-6.17-8.62-9.78-23.09-15.63-9-3.65-16.23-7.41-21.49-11.2l-3.93-2.83-4.85,3.35c-5.76,4-11.91,7.12-21.37,10.93-20.33,8.21-25.2,13.52-26.46,32.53,0,.31,0,.62-.06.94-.08,1.28-.14,2.62-.19,4l-.34,9.8Z"/><g id="g2500"><path id="path2567" class="cls-2" d="M107.7,198.78a41.73,41.73,0,0,1,1.4,5.86,42.61,42.61,0,0,1,.29,10.13,38,38,0,0,1-1.33,6.76,25.32,25.32,0,0,1-4,7.09l-.33.39-1.09-.24-1.76-.39-.68-.16.13-1.55a90,90,0,0,1,3.18-16.62,71.48,71.48,0,0,1,2.82-8.43c1.14-2.6,1.34-3,1.4-2.84Z"/><path id="path3333" class="cls-3" d="M148.1,203.59c-6.38,7.58-6.52,15.63-.4,22.79l2.44,2.87L150,242.67l-.14,13.43-5.59,2.1C126.1,265,114.13,267,94,266.42c-16.92-.48-24.45-1.84-39.19-7.07l-8.31-3-.34-4.35c-.18-2.4-.34-8.52-.34-13.6v-9.24l2.58-3.27c3.45-4.37,3.79-5.11,4.16-9.07.43-4.63-.78-8.25-4.26-12.75l-2.75-3.55.41-8.65c-1.92-5.27.4-9,1.63-13.56a7.89,7.89,0,0,0,4.23-.34c2-.6,4.08-.43,6.11-.88s5.77,1.35,6.46,1.73c2.37,0,58.51-.28,65.08-.28a9.46,9.46,0,0,0,2.62-.4c2-.74,4.31-2.07,5.69-1.68,1.93.55,3.82,1.34,5.81,2,1.48.47,2.93-.91,4.5-.74C148.68,184.38,153.68,196.93,148.1,203.59Z"/><path id="path2559" class="cls-2" d="M120.63,198l1,1.71,1,1.51c-4.17,5.71-5.35,12.1-6.77,18.73,0,0-2.17-.75-2.3-.83s.16-.8.38-1.74.63-2.69.88-3.89c1.47-7,2.34-9.75,4.56-14.56a8.31,8.31,0,0,1,.77-1.48,2.23,2.23,0,0,1,.42.55Z"/><path id="path2557" class="cls-2" d="M119.25,197l.82.48-.46,1c-2.42,5.36-3.46,8.78-5,16.55-.37,1.84-.71,3.48-.75,3.65-.09.37-.1-8,0-14.75v-5.08l.58-.24a15.26,15.26,0,0,0,3.42-1.78l.6-.47Z"/><path id="path2551" class="cls-2" d="M107.4,197.93c0,.19-.68,1.77-1.34,3.33-3.39,9-5,19.13-6.39,27.21-.15,0-1.68-.18-1.73-.38-.11-.45.06-.19.17-4.23a59.58,59.58,0,0,1,1.16-10.72c.46-2.23,2.32-9.31,3.21-12.22,1-3.4,2.92-8.31,3.24-8.31C106.36,194.3,106.69,196.27,107.4,197.93Z"/><path id="path2563" class="cls-2" d="M104.79,194.59a135.21,135.21,0,0,0-6,19.9,62.82,62.82,0,0,0-1,10.26c0,1.63,0,3.16,0,3.19s-.46.18-.71-.23c-.12-.2,0-.61,0-1-.09-2.57.12-8.33.12-13.83l.1-15.16a12.05,12.05,0,0,0,7.3-3.77C104.58,194.23,104.68,194.24,104.79,194.59Z"/><path id="path2549" class="cls-2" d="M87.62,196.83a18.94,18.94,0,0,0,5.69,1H95l0,9.77c0,9.17,0,9.67-.34,8.31-1.32-6-3-11.59-5.21-14.91-.53-.78-2.58-3.39-3.13-4.43-.14-.25.41-.09,1.36.29Z"/><path id="path2498" class="cls-2" d="M44.84,228.46l2.42-2.59c3.3-3.53,4.47-6.29,4.48-10.56S50.32,207.74,47,204l-2.29-2.57.34-9.8c.81-23.14,4.71-28.62,26.71-37.5,9.46-3.81,15.61-7,21.37-10.93l4.85-3.35,3.93,2.83c5.26,3.79,12.47,7.55,21.49,11.2,14.47,5.85,19.8,9.46,23.09,15.63,3,5.61,3.88,10.25,4.19,21.73l.28,10.23L148.73,204c-6.39,7.62-6.43,15.23-.12,22.08l2.17,2.35v28.24l-7.05,2.67c-15.79,6-23.72,7.52-41.13,7.94-18.61.44-29.36-.8-41.79-4.82-6.74-2.18-14.39-5.08-15.31-5.8-.5-.4-.66-3.94-.66-14.38m48.81-98.71c-5,3.6-11.41,6.9-20.86,10.74-11,4.49-15.52,7-19.06,10.48-5.63,5.58-7.51,11.81-8.13,26.84l-.37,9.1,2.46,3c3,3.72,3.78,5.16,4.53,8.7A15.89,15.89,0,0,1,51,222.13a28.11,28.11,0,0,1-3.21,4.2L45.37,229l.06,8.7c0,4.79.21,11,.4,13.71l.34,5,6.12,2.37c14.33,5.53,23.65,7.39,39.7,7.91,21.76.71,34.45-1.31,52.77-8.41l5.49-2.13v-27.4l-2.2-2.31c-6.39-6.72-6.35-15.59.11-22.6l2.25-2.44-.32-10c-.45-14.29-2.27-20.5-7.72-26.32-3.35-3.59-7.75-6.06-18.74-10.54-10.39-4.24-16-7.14-21.56-11.1A37.47,37.47,0,0,0,98,140.8,31.56,31.56,0,0,0,93.65,143.61Z"/><path id="path2547" class="cls-2" d="M92,206.57a59.58,59.58,0,0,1,2.4,8.92c.49,2.26.42,3.26.5,7.32.08,4.46.39,4.18,0,4.3s-.37,0-1.32.14c-.32-1.42-1-6.58-1.48-8.41-.84-3.12-.88-3.4-.66-4.53a18.91,18.91,0,0,0-.44-7.66c-.35-1.37-2.23-6.48-1.55-4.94Z"/><path id="path2555" class="cls-2" d="M111.35,209.56c0,5.87,0,10.69,0,10.71a22.64,22.64,0,0,1-2.43-.48,7.88,7.88,0,0,1,.22-1.33,35.2,35.2,0,0,0,.17-13.53,38.42,38.42,0,0,0-1.64-5.93c0-.09.36-.12,1.79-.12h1.84Z"/><path id="path2496" class="cls-2" d="M102.65,266.86A114.34,114.34,0,0,0,145,258.2l5.26-2v-27.4c-4.33-4-8-9.56-6.81-15.71.63-4.69,3.79-8.36,7-11.64-.33-7.6-.16-15.27-1.49-22.78,0-.11-.34-1.56-.36-1.66a8.16,8.16,0,0,1-1.51.58c-1.94.75-1.76.68-4.68.5-1.91-.7-3.43-1.95-5.71-1.85h0a12,12,0,0,0-2.91,1.17,5.93,5.93,0,0,1-2.81.74h0a6.73,6.73,0,0,1-3.31-.51l-.15.5a8.43,8.43,0,0,0,3.51.55,6.59,6.59,0,0,0,3-.8,12.46,12.46,0,0,1,2.74-1.12c2.08-.09,3.51,1.12,5.54,1.85h.08a12.09,12.09,0,0,0,5.53-.79c1.69,7.47,1.59,16,1.79,23.61-3.47,3.68-6.84,7.91-6.84,13.12-.64,5.66,2.86,10.74,6.72,14.45,0,8.76.17,17.16,0,26.49-32.72,15.93-76.32,12.8-102.63.33-.65-8.67-.82-18-.73-26.65,6.18-7,6.72-9.58,6.84-14.3s-1.67-7.38-7.12-14.51c.22-7.66.23-15.77,1.66-22.05.45.05,1.8.24,2.21.23a60.47,60.47,0,0,0,6.65-1,10.18,10.18,0,0,1,6.59.82l.33.15c.21.08.52.2,1,.36l.17-.5a9.79,9.79,0,0,1-1-.35.91.91,0,0,1-.26-.13,10.77,10.77,0,0,0-6.93-.88,65,65,0,0,1-6.58,1,8.6,8.6,0,0,1-2.7-.37,75.28,75.28,0,0,0-1.21,9.22c-.27,4.64-.4,9.27-.6,13.91,3.41,4.11,7.34,8.44,7.25,14.14.42,4.88-3.21,10.21-5.69,12.45a5.46,5.46,0,0,0-1.4,4.44c0,8.23.11,16.45.79,24.65,11.79,4.76,24,9,36.76,9.79,5.59.45,11.2.61,16.81.63C100.73,266.87,101.68,266.87,102.65,266.86Z"/><path id="path2535" class="cls-2" d="M78.4,217.46c3.31,1.25,5,2.17,6,3.25.48.49,1,1.22.83,1.22L82,221.08l-3.63-1L78,220l0-1.35a5.65,5.65,0,0,1,0-1.34,1.89,1.89,0,0,1,.4.13Z"/><path id="path2533" class="cls-2" d="M107.56,199.54c.08.25.21.7.3,1a38.66,38.66,0,0,1,1.43,8.12c.08,1,.08,4.19,0,5.2a44.94,44.94,0,0,1-.93,6.22,21,21,0,0,1-3.51,7.4c-.81,1.15-1.13,1.55-1.25,1.54s-3.36-.71-3.37-.73.14-2.21.25-3.27a91.23,91.23,0,0,1,2.13-11.8c.83-3.32,2.54-9,3.11-10.29,1-2.26,1.65-3.78,1.67-3.81s.1.17.17.42Z"/><path id="path2561" class="cls-2" d="M123.15,202.34a22.38,22.38,0,0,1,1.78,5.95,14.81,14.81,0,0,1,.11,3.06,17.86,17.86,0,0,1-1,6l-2.55,4.9a28.05,28.05,0,0,1-6-2.39c1.89-9.26,4-13.44,6.92-18.29a7.31,7.31,0,0,1,.75.78Z"/><path id="path3369" class="cls-4" d="M107.13,166.82c5.75,2.07,13.17.05,17.61,5.19,4.36,4.54,2.64,11.21,2.79,16.81.24,2.6-.71,4.56,1.07,6.28a29.41,29.41,0,0,1,5.67,6.44c2.54,2.49,3.91,11.38-2.09,6.14-5.32-5.06-10.51-10.64-17.55-13.31-8.24-3.27-17.34-3.58-26.07-2.93-.31.1-1,0-1.19.21-2.79,2.54-1.29,8.79-5.62,10.55-4.93,1.87-11.83-1.91-16.09,2.26-1.77,4.26-8.48,4.67-6.74-.34,1.58-4.37,5.41-8.17,5.16-13.11.76-5.94,0-12.21.14-18.18a13.13,13.13,0,0,0,3.23-.36c2.63-.88,5.44-2.94,9.46-5.09.75-.4,1.39.53,2.43.5,5.1-.22,10.8-2.63,15.62.23C99.11,169.25,103,166.28,107.13,166.82Zm13.31,30.72c5.77,3.44,9.3,11.92,12.34,17.47l-.34,2.38ZM78,202.64c0,1.87-.27,9.25,0,17.49,1.09.27,8.54,2,7.09,2.45-1.1,1.18-5.46-.2-7.06-.59,0,1,.08,1.47.12,2.44.23.19,3.55,2.83,4,3.81,1.13.41,1.79.63,1.64,2.33a45.27,45.27,0,0,1-4.54.06c.17,4.54-.17,9.68-.16,11-1.27.11-.4,0-2.1.23-.1-1.69.17-5.87,0-11-1.41-.18-5.54.45-5.29-.94.31-.43.14-1.21,1.24-1.57A29.7,29.7,0,0,1,76,224.48c0-1,0-1.72,0-2.74,0-.32-4.69-1-7.15-1.83,0-.19-.54-1.08-.08-1.63,1.52.23,7.16,1.58,7.15,1.4-.27-7.74-.43-14.66-.26-17.09A14.34,14.34,0,0,1,78,202.64Zm19.5,50.1c-.64.07-.77.07-1.86.21,0-.26-.17-11.3-.19-14.18-.81-.06-3-.13-3.58-.16a12.54,12.54,0,0,1,0-2c1.1.55,2.73-3.08,3.11-3.59-.17-15.64.12-35.52.08-41.64.82.57,2.17-.63,2.15.21-.08,3.34-.07,8.53-.13,11.37-.2,4.47.09,28.21.3,30.14.09.09,2.6,3,4,3.71a8,8,0,0,1,0,1.9c-2,0-3.8-.48-3.79,0C97.61,243.91,97.62,251,97.5,252.74Zm16.07-58.59c-.1,9.67-.4,19.45.16,29.24-.71,0-1.39,0-2.22,0-.09-8.53.1-21.08.11-29.66C111.88,193.8,113.31,194.07,113.57,194.15Zm5.88,35.25c-1.74,0-10.55-.22-12.76-.13,0-.19.07-.7.12-1.4,1,0,4-3.77,4.49-4.39.93,0,1.91,0,2.71,0,.53.46,4.48,4.35,5.43,4.34C119.46,228.67,119.44,228.79,119.45,229.4ZM85.2,225.48c5.56,1.31,14.58,2.5,19.88,4.21,0,1,.12,1.3-1.55,1.5-5.1-.72-15.21-2.63-19.28-4.34C84.53,225.85,84.6,226.14,85.2,225.48Zm28.47-6.16c1.18.41,8.21,3.43,9.4,3.85,0,.54-.47.78-1,1.08-1.26-.38-7.12-2.33-8.44-2.84C113.73,220.61,113.63,221,113.67,219.32Zm.91,10.19a87.15,87.15,0,0,0,.32,9.41c-2.81.19-.09,0-2.85.2-.06-3.78,0-5.78-.07-9.63C113.39,229.46,113.41,229.52,114.58,229.51Z"/><path id="path2690" class="cls-5" d="M127.36,173.84a12.81,12.81,0,0,0,5.39-.71,12,12,0,0,1,4.24-1c2.18-.1,3.39.73,6.52,1.52a.55.55,0,0,0,.22,0l.33,0,.95,0,1,0,.33,0h.13a.76.76,0,0,0,.18-.24,1.08,1.08,0,0,0-.08-.37.68.68,0,0,0-.21,0l-.34,0-.94,0-.95,0-.33,0h-.12c-3.09-.78-4.36-1.65-6.66-1.55a12.71,12.71,0,0,0-4.37,1,12.26,12.26,0,0,1-5.19.68h0l-2-.55,0,.65,2,.51,0,0Z"/><path id="path2696" class="cls-5" d="M49.56,173.85c4.28-1.49,9.11-3,13.24-.32a.87.87,0,0,0,.25.1,4.05,4.05,0,0,0,.84,0V173a5.63,5.63,0,0,1-.76,0c-.08,0,0,0-.07,0-4.36-2.83-9.37-1.22-13.66.28a1,1,0,0,0,0,.35C49.39,173.7,49.56,173.85,49.56,173.85Z"/><path id="path2708" class="cls-5" d="M97.46,146.3a5.27,5.27,0,0,0,3.79-1.76,1.63,1.63,0,0,0,0-.37.89.89,0,0,0-.27-.23,4.87,4.87,0,0,1-7,.18s-.23.08-.27.19a1.14,1.14,0,0,0,0,.44A5.68,5.68,0,0,0,97.46,146.3Z"/><path id="path2726" class="cls-6" d="M66.78,195.23c.4,0,.85,0,1.5-.06,2.6-.87,5.17-2.27,7.58-2.74A50.57,50.57,0,0,1,84,191.5V191a50.59,50.59,0,0,0-8.27.95,62.67,62.67,0,0,0-9.16,2.81s-.09.23,0,.32S66.78,195.23,66.78,195.23Z"/><path id="path2866" class="cls-7" d="M113.58,194.16c.15,9.39-.1,19.56,0,29"/><path id="path2870" class="cls-8" d="M111.51,223.61v-.86c0-9.45-.05-19.86,0-29.26"/><path id="path2876" class="cls-7" d="M97.14,227.78c0-11.72-.06-24.62,0-36.33"/><path id="path2878" class="cls-7" d="M95,191.23c.07,11.8-.07,24.38,0,36.18"/><path id="path2880" class="cls-7" d="M120.22,197.75c.11.18.37.38.49.57,3.31,5.13,8.4,13.77,11.54,18.84.05.08.57.63.55.46"/><path id="path2886" class="cls-7" d="M132.8,217.63c0-.69,0-1.68,0-2.39a20.22,20.22,0,0,0-1.61-3.75c-1.84-3.11-5.09-9.13-7.94-12"/><path id="path2888" class="cls-7" d="M119.43,229.4H106.72V228"/><path id="path2892" class="cls-7" d="M106.45,227.81c4.28,0,8.7.08,13,.08,0,.47,0,1.31,0,1.77"/><path id="path2894" class="cls-7" d="M118.77,227.85l-.57-.48c-1.49-1.29-3.12-3-4.57-4.2"/><path id="path2898" class="cls-9" d="M107.56,227.84c1.29-1.39,2.22-2.64,3.41-4l.52-.57"/><path id="path2902" class="cls-7" d="M113.83,223.33c-1.07.07-1.38,0-2.44,0"/><path id="path2553" class="cls-2" d="M107.72,199.53c.31.81.75,3.51,1.11,5.46a34.75,34.75,0,0,1,.34,6.21,30,30,0,0,1-.42,6.68,21.52,21.52,0,0,1-2,6.29,30.65,30.65,0,0,1-3,4.66,7.37,7.37,0,0,1-1.86-.22l-1.68-.33.11-1.24a93.87,93.87,0,0,1,3.57-18.31,63,63,0,0,1,2.7-8.28c.72-1.62.87-1.9,1.06-1.41Z"/><path id="path2904" class="cls-7" d="M104.92,229.6c-6.67-1.4-13.08-2.8-19.76-4.19-.63.62-1.06.85-.67,1.53.19.32,2.67,1.24,4.64,1.61,4.23.81,9,2,12.83,2.62,1.76.28,2.44.1,2.66-.22A3.25,3.25,0,0,0,104.92,229.6Z"/><path id="path2543" class="cls-2" d="M116.23,239.19a21.23,21.23,0,0,0,3.55.29,6.43,6.43,0,0,1,2.21.21,2.76,2.76,0,0,1-.54.87c-1.06,1.32-2.69,1.66-6.74,1.42l-2.59-.16v-2.7l.77-.13a7.63,7.63,0,0,1,3.34.2Z"/><path id="path2906" class="cls-7" d="M112,229.6c.07,3.92-.07,8.53,0,12.46,4.47-.19,8.49,1.36,9.94-2.65"/><path id="path2910" class="cls-7" d="M114.64,229.53c0,3,.14,6.17.11,9.18,1,.21,1.65.29,2.72.51,1.57.15,3.12-.07,4.74.08h0"/><path id="path2541" class="cls-2" d="M107.34,252.53l.69.26-1.37,1.11A6.49,6.49,0,0,1,105,255c-.17,0-1.59.15-3.13.32s-3.56.31-4.47.31H95.7v-1.38a9.28,9.28,0,0,1,0-1.39c1.67-.16,9.19-.62,9.9-.62a5.9,5.9,0,0,1,1.69.28Z"/><path id="path2920" class="cls-7" d="M108.43,252.62c-1.46,1.24-1.89,1.41-3,2.37a33.38,33.38,0,0,1-4.5.57,38.44,38.44,0,0,1-5.37.18c0-5.52,0-11.73,0-17.25"/><path id="path2926" class="cls-6" d="M97.93,252.73c0-4.81,0-9.3,0-14.11h-.53c0,4.81,0,9.32,0,14.14h.17Z"/><path id="path2936" class="cls-7" d="M100.44,236.54c-1.28-1.39-2.14-2.69-3.43-4.08"/><path id="path2938" class="cls-7" d="M95,232.66c-.86,1.38-1.32,2.42-2.19,3.8"/><path id="path2940" class="cls-7" d="M97.07,233c.09-.69,0-2.28.06-3"/><path id="path2942" class="cls-7" d="M95,229.6c0,1,0,2.4,0,3.43"/><path id="path2537" class="cls-2" d="M75.39,217.32h.27v2.12l-.07,0-2.78-.57-3.34-.69c-.74-.15-.73-.12-.09-.31a14.22,14.22,0,0,1,3.35-.54c.41,0,2,0,2.66,0Z"/><path id="path2952" class="cls-7" d="M75.81,202.76c0,5.23,0,8.88,0,14v2.84"/><path id="path2956" class="cls-7" d="M77.93,202.56c0,5.42,0,12.36,0,17.77"/><path id="path2980" class="cls-7" d="M72,228.38a14.44,14.44,0,0,0-.23,2.34c1.08,0,2.87,0,3.71,0,2.88,0,5.5.08,8.38,0,0-.83,0-.54,0-1.64-.34-.48-.88-.7-1.91-.89"/><path id="path2539" class="cls-2" d="M86.12,242.31a2.08,2.08,0,0,1-1.37,1.89,26.39,26.39,0,0,1-4.14.2H76.93v-2.74c1.77-.06,3.67-.09,5.52-.11h3.67Z"/><path id="path2984" class="cls-7" d="M79,241.61c-.11-3.42,0-7.34-.08-10.75"/><path id="path2986" class="cls-7" d="M76.93,230.88c0,4.33,0,9.33-.05,13.66l7.13,0a2.8,2.8,0,0,0,1.78-.93c.77-.71.51-1.13.52-2.23-2,.17-5,0-7.49,0"/><path id="path2990" class="cls-7" d="M113.5,219.05l9.69,4.1"/><path id="path2996" class="cls-7" d="M131.75,216.26c-3.34-.85-8.31,3.07-10.23,6"/><path id="path2998" class="cls-7" d="M123.36,202.55c2.37,6.26,1.79,9.73,1.07,13.78a19.82,19.82,0,0,1-2.4,5.18"/><path id="path3000" class="cls-7" d="M122.51,201.5a33.17,33.17,0,0,0-4.71,10.32c-.61,2.58-1.3,5.56-1.71,8.11"/><path id="path3002" class="cls-7" d="M120.11,197.53a55,55,0,0,0-3.48,8.8c-1.37,4.66-1.65,7.86-2.9,12.65"/><path id="path3004" class="cls-7" d="M118.1,196.36c-1.38,1.59-3.87,2.58-4.57,2.35"/><path id="path3006" class="cls-7" d="M105.73,192.16c-1.56,3.67-7.28,5.64-8.53,5.52"/><path id="path3008" class="cls-7" d="M105.82,192.32c-2.14,3.77-3.61,8.9-4.67,12.89-2.21,7.9-3.32,12.7-3.2,22.94"/><path id="path3010" class="cls-7" d="M99.92,228.33a68.86,68.86,0,0,1,.9-7.89,111.88,111.88,0,0,1,4.29-16.82c.64-1.53,1.55-3.57,2.21-5.08"/><path id="path3012" class="cls-6" d="M107.51,198.82c.31-2.13,1.75-3.75,2.39-5.76l-.5-.13c-.86,2.19-2.12,4.1-2.71,6.41Z"/><path id="path3016" class="cls-7" d="M99.11,191.38c.8,1.5,1.43,3.49,2.23,5"/><path id="path3018" class="cls-7" d="M91.43,191.32c-1.25,1.64-1.81,3.87-2.49,5.65"/><path id="path2545" class="cls-2" d="M91.25,216.22c.11.18,1.47,6.37,2.06,9.36a3.72,3.72,0,0,1,.13,1.37c-.1.1-7.7-1.41-7.92-1.58a5.88,5.88,0,0,1,.89-1.14,27.19,27.19,0,0,0,4.51-7.69c.11-.29.26-.43.33-.32Z"/><path id="path3020" class="cls-7" d="M87.82,199.34a166.77,166.77,0,0,0-6,19.25"/><path id="path3026" class="cls-7" d="M95,197.77c-4.52.09-7.5-.82-9.76-2.25,3,3.47,5.7,9.5,5.89,13.26,1.21,6.91-2,12.53-6,16.71"/><path id="path3028" class="cls-7" d="M93.56,227.06a127.87,127.87,0,0,0-3.48-14.84c-.18-.62-2.83-9.11-5.41-13.63"/><path id="path3030" class="cls-7" d="M83.35,201.41c-1.27,1.36-3.34,11-3.85,16.2"/><path id="path3032" class="cls-7" d="M88.36,200.23c4,4.84,6,13.46,6.64,20"/><path id="path3034" class="cls-7" d="M105.78,192.32a70.38,70.38,0,0,1,2,6.85,38.54,38.54,0,0,1,1.15,19.7c-.53,3.84-2.62,7.39-5,10.44"/><path id="path3036" class="cls-7" d="M111.56,220.47l-3-.67"/><path id="path3038" class="cls-7" d="M111.46,198.77c-1.15,0-3.64,0-4.24,0"/><path id="path3042" class="cls-7" d="M112.14,231.22c-6.21,4.69-10.29,12.35-14.53,18.72"/><path id="path3046" class="cls-10" d="M92.36,238.73c.83.48,2.23,2.7,3.3,5.36"/><path id="path3048" class="cls-7" d="M79.15,231c7.5,3.93,11.86,10.62,16.09,17.78.07.13.26.47.34.6"/><path id="path3050" class="cls-7" d="M66.91,203.8c3.32,3.65,5.1,8.47,6.24,13.22"/><path id="path3052" class="cls-7" d="M74.38,217c-.2-5.44-1.43-9.64-3.06-14.61"/><path id="path3237" class="cls-5" d="M65.36,162.85a10.91,10.91,0,0,0,4-.8c1.75-.6,3.47-1.24,5.2-1,3.65,1.51,7.74,2.24,11.49.57,2.61-1.68,5-.9,7.08.14v0a10,10,0,0,0,9.33-.39h0a5.22,5.22,0,0,1,4.29-.43c1.47.39,3,1.1,4.45,1.5h0c2.14.82,4.19.07,6.17-.66s3.91-1.39,5.87-.57v0c3.64,2.48,8,1.66,11.6-.23a1.25,1.25,0,0,0,0-.38.83.83,0,0,0-.19-.23c-3.53,1.85-7.76,2.62-11.2.24h0l0,0c-2.14-.89-4.2-.15-6.19.58s-3.92,1.44-5.89.68v0h0c-1.42-.38-2.92-1.09-4.46-1.49a5.65,5.65,0,0,0-4.64.47h0a9.62,9.62,0,0,1-8.92.39v0c-2.33-1-5.08-1.75-7.44-.1,0,0,0,0,0,0-3.59,1.57-7.56.86-11.13-.64l0,0h0c-1.88-.3-3.66.39-5.41,1s-3.44,1.12-5.19.56v0h0c-1.14-.28-2.27-.75-3.45-1.07a.81.81,0,0,0-.19.28,1.1,1.1,0,0,0,.09.38c1.14.3,2.25.78,3.43,1.06,0,0,0,0,0,0A5.36,5.36,0,0,0,65.36,162.85Z"/><path id="path3239" class="cls-5" d="M112.55,151.79c.19-.15.24-.32.08-.46a24.64,24.64,0,0,0-3.09-1.3,9.84,9.84,0,0,0-5-1c-1.76-.1-3.22,1.41-5,1.61a9.71,9.71,0,0,1-5.77-.18c-1.18-.32-2.18-1.3-3.38-1.49a8.43,8.43,0,0,0-5.4,1.3c-.48.32-2.4.84-1.06,1.2,1-.38,1.91-1.07,2.94-1.41a5.33,5.33,0,0,1,5.11.24,8.84,8.84,0,0,0,6.58,1.15,10.61,10.61,0,0,0,4.24-1.39c2.33-1,4.8-.14,7,.77C110.81,151.18,111.67,151.51,112.55,151.79Z"/><path id="path3241" class="cls-5" d="M82,157.29a9.47,9.47,0,0,0,5-1.72s0,0,0,0c2.66-1,5.36.51,8,1.37a7.57,7.57,0,0,0,6.25-.7,0,0,0,0,1,0,0,9.65,9.65,0,0,1,7.42-.29v0c2.37,1.06,5.12,2.14,7.65.66h0c2-1.34,4.51-1.88,6.54-.44l0,0,.08,0c.26-.17.13-.5.12-.57-2.23-1.56-4.9-1-7,.44-2.32,1.35-4.89.37-7.25-.68h0a10.13,10.13,0,0,0-7.79.31v0h0a7.17,7.17,0,0,1-5.91.66h0c-2.62-.84-5.42-2.42-8.31-1.35h0l0,0a9.07,9.07,0,0,1-4.86,1.66h0a9.8,9.8,0,0,1-4.13-1,6.58,6.58,0,0,0-4.37-.56,1.37,1.37,0,0,0-.06.39,1.05,1.05,0,0,0,.19.27,6.24,6.24,0,0,1,4.09.54,10.1,10.1,0,0,0,4.28,1Z"/><path id="path3176" class="cls-7" d="M76,217.07c-2.43-.1-4.7-.15-6.92.9-.49.93-.27,1.94.17,2.16,2.79.59,4.1,1,6.5,1.52"/><path id="path3190" class="cls-7" d="M85.2,222c-.57-.33-16.33-3.9-16.33-3.9"/><path id="path3192" class="cls-7" d="M83.4,223.24,78,222.06v2.25"/><path id="path3194" class="cls-7" d="M75.83,221.38l0,3.07"/><path id="path3196" class="cls-7" d="M74.55,226.16a21.48,21.48,0,0,0-.57-4.83"/><path id="path3198" class="cls-7" d="M75.91,224.29l-3.19,4.24"/><path id="path3200" class="cls-7" d="M82.23,228.27,78,224.19"/><path id="path3204" class="cls-7" d="M78.06,217.31c2.35.86,7,2.13,7.31,4.78a2.8,2.8,0,0,1-2.07,1.14"/><path id="path3210" class="cls-7" d="M83.05,228.53l-11.33.08"/><path id="path3212" class="cls-7" d="M101.39,236.57h-9.8"/><path id="path3214" class="cls-7" d="M91.83,236.3v2.25"/><path id="path3216" class="cls-7" d="M91.57,238.71l9.82-.05V236.3"/><path id="path3218" class="cls-6" d="M97.73,244.54c.86-2.91,2-4,3.41-5.7l-.35-.36c-1.4,1.67-2.56,2.67-3.42,5.7Z"/><path id="path3220" class="cls-6" d="M108.12,253.19l.8-.53c-.7-.32-2-.61-2.56-.88l-.07,0h-.05c-3.2,0-6.18.43-8.7.48l0,.52c2.55-.06,5.49-.47,8.61-.47C106.85,252.58,108,252.76,108.12,253.19Z"/><path id="path3224" class="cls-7" d="M123,222.91v.89l-.92.47-8.63-2.73h0"/><path id="path3228" class="cls-7" d="M97.11,232.74l-2.13,0"/><path id="path3230" class="cls-7" d="M78,224.32l-2,0"/><path id="path2893" class="cls-6" d="M124.43,177.71s.31,0,.38-.1,0-.31,0-.31a21.51,21.51,0,0,0-8-4.28A55,55,0,0,0,97,169.89a142.53,142.53,0,0,0-19.07,1.75,30.43,30.43,0,0,0-3.37.77,13.22,13.22,0,0,0-4.81,2.21s0,.28,0,.36.38,0,.38,0a12.44,12.44,0,0,1,4.53-2.08,29.18,29.18,0,0,1,3.31-.76,142.1,142.1,0,0,1,19-1.73,54.35,54.35,0,0,1,19.61,3.11A20.73,20.73,0,0,1,124.43,177.71Z"/><path id="path2905" class="cls-6" d="M124.58,181.34a.67.67,0,0,0,.29-.12c.07-.08,0-.3,0-.3a18.47,18.47,0,0,0-3.33-2.2A62.68,62.68,0,0,0,111.07,175h0c-4.2-1.19-8.57-1.28-12.86-1.33h0c-7.89.29-19.17.59-27.71,4.79a.67.67,0,0,0,0,.33c0,.08.26.15.26.15,8.38-4.12,19.58-4.46,27.48-4.75h0c4.29.05,8.61.15,12.73,1.32h0a61.1,61.1,0,0,1,10.42,3.66s0,0,0,0A17.11,17.11,0,0,1,124.58,181.34Z"/><path id="path2911" class="cls-6" d="M124.64,185.68a.63.63,0,0,0,.27-.13c.07-.09,0-.3,0-.3-7.51-5.31-16.8-7.44-25.82-7.92h0c-8.06.18-20.81.56-27.92,4.31l-.63.34s-.12.23-.07.32.33.15.33.15l.62-.35c6.87-3.6,19.56-4,27.67-4.24h0C108.07,178.34,117.25,180.46,124.64,185.68Z"/><path id="path2919" class="cls-6" d="M125.19,190.05s.23,0,.27-.1a.79.79,0,0,0,.06-.33l0,0a41.7,41.7,0,0,0-15.27-7,51,51,0,0,0-16-2h0c-5-.11-9.8.93-14.62,1.72a21.07,21.07,0,0,0-8.84,3s0,.24,0,.31.32.07.32.07a22.57,22.57,0,0,1,8.55-2.84c4.84-.8,9.67-1.83,14.56-1.71a50.36,50.36,0,0,1,15.83,1.94A41.27,41.27,0,0,1,125.16,190Z"/><path id="path2931" class="cls-6" d="M133,204.19s.25.05.33,0,0-.36,0-.36l-1.29-1.21a51.2,51.2,0,0,0-11.83-9.35c-7.19-4.55-15.76-6.36-24.16-6.46-9-.19-17.82,1.74-26.6,3.25l.08.53c8.8-1.52,17.59-3.44,26.52-3.25,8.33.1,16.81,1.9,23.89,6.38h0A50.79,50.79,0,0,1,131.68,203v0Z"/><path id="path3158" class="cls-11" d="M68.66,200.34c1.12,0,1.33-.25,1.33-1.6s-.21-1.59-1.33-1.59-1.33.24-1.33,1.59S67.54,200.34,68.66,200.34Z"/><path id="path3160" class="cls-11" d="M79.84,198.44c1.12,0,1.33-.24,1.33-1.59s-.21-1.6-1.33-1.6-1.33.25-1.33,1.6S78.72,198.44,79.84,198.44Z"/><path id="path3164" class="cls-11" d="M104.79,186.19c1.16,0,1.17,0,1.18-1.27,0-1,0-1.06-1.21-1.06s-1.14,0-1.14,1.12S103.65,186.19,104.79,186.19Z"/><path id="path3166" class="cls-11" d="M96.49,185.39c1.17,0,1.18,0,1.18-1.3,0-1,0-1.08-1.21-1.08s-1.15,0-1.15,1.14S95.34,185.39,96.49,185.39Z"/><path id="path3168" class="cls-11" d="M89.07,185.4c1.13,0,1.13,0,1.16-1.23,0-1,0-1-1.16-1s-1.1,0-1.12,1.07S88,185.38,89.07,185.4Z"/><path id="path3170" class="cls-11" d="M81.85,186.2c1.17,0,1.18,0,1.19-1.3,0-1,0-1.08-1.22-1.08s-1.16,0-1.16,1.14S80.7,186.2,81.85,186.2Z"/><path id="path3172" class="cls-11" d="M74.11,187.78c1.13,0,1.14,0,1.15-1.16,0-.92,0-1.07-1.19-1.07S73,185.7,73,186.68,73,187.78,74.11,187.78Z"/><path id="path2748" class="cls-7" d="M63.47,194.13c1.4-6.86.66-14.29.67-21.24"/><path id="path2742" class="cls-7" d="M99.1,191.34c-.32,0-8.76,0-11.41,0-.33,0-.49.45-.7.73a14.72,14.72,0,0,0-2.4,7.34c-.51,1.43-1.82,3.08-3.18,3.09l-10.68,0a8.89,8.89,0,0,0-6.88,4.27c-.8,1.49-6.28,1.51-5.19-2.55,2.62-4.44,4-6.31,4.81-10.34"/><path id="path3154" class="cls-11" d="M74.27,198.93c1.12,0,1.33-.25,1.33-1.59s-.21-1.6-1.33-1.6-1.33.25-1.33,1.6S73.15,198.93,74.27,198.93Z"/><path id="path2714" class="cls-6" d="M128,194.35c0-.07-.14-.38-.14-.45,0-4-.05-7.1,0-10.87.17-3.38,0-6.72-1.78-9.63h0a12.39,12.39,0,0,0-6.2-4.82,17.28,17.28,0,0,0-3.83-.82v0a16.6,16.6,0,0,0-3.46-.15h-.42v0c-.21,0-.42,0-.63.05h0a8.44,8.44,0,0,1-2.62-.67,7.13,7.13,0,0,0-2.78-.58h0a15.36,15.36,0,0,0-6.56,1.18,7.28,7.28,0,0,1-5-.23l0,0h0c-2.87-.92-6.1-1.53-9-.33h0a10.6,10.6,0,0,1-6,.4h0c-.79-.12-1.58-.3-2.39-.45v0l-.05-.07-5.61,3.45,0,0-4.8,2.19s0,0,0,0a.31.31,0,0,0-.15-.14l-.12,0H66c-.35,0-.87,0-1.32,0a.83.83,0,0,0-.66.28.31.31,0,0,0-.09.26l.2.42a1.75,1.75,0,0,0,.29-.33.23.23,0,0,1,.25-.1c.37,0,.72,0,1,0a32.81,32.81,0,0,1,2.09,10.46,21.62,21.62,0,0,1-1.66,9.28l.63-.21a20.24,20.24,0,0,0,1.57-9.08,32.71,32.71,0,0,0-2-10.12l.18-.08,5-2.3h0v0l5.42-3.32c.76.14,1.53.32,2.32.43v0a11,11,0,0,0,6.3-.41h0a12,12,0,0,1,8.6.46,8.53,8.53,0,0,0,5.64.24c2.09-.71,4.08-1.51,6.24-1.27h0a6.58,6.58,0,0,1,2.61.55,11.73,11.73,0,0,0,4,.62,21.81,21.81,0,0,1,7,.94,11.87,11.87,0,0,1,5.94,4.61v0c1.68,2.76,1.86,6,1.7,9.32,0,3.55.06,6.95,0,10.88C127.33,194.36,127.72,194.94,128,194.35Z"/><path id="path3150" class="cls-11" d="M119.66,191c1.19,0,1.2,0,1.2-1.23,0-1,0-1-1.23-1s-1.16,0-1.16,1.08S118.5,191,119.66,191Z"/><path id="path3162" class="cls-11" d="M112.67,187.76c1.23,0,1.24,0,1.25-1.2,0-1,0-1.23-1.28-1.23s-1.21.27-1.22,1.29S111.46,187.76,112.67,187.76Z"/><path id="path2716" class="cls-7" d="M127.69,194.28c6.48,4.58,13.16,18.36,5.73,14.35-4.59-3.32-9-8.72-11.88-10.38-6.28-4.34-14.29-6.28-21.9-6.86l-.58,0"/><path id="path2499" class="cls-7" d="M110.07,225a15.76,15.76,0,0,0-1.45-4.43"/><path id="path2515" class="cls-7" d="M80.69,222.68a30.55,30.55,0,0,0-.88,3.2"/><path id="path3235" class="cls-5" d="M97.43,168.74c2.52-.11,6.63-3.26,10.25-1.72a13.86,13.86,0,0,0,11.44,0c4.32-2,9,3.34,13.37.56a12.6,12.6,0,0,1,10.5.72c-.45-2-4.13-1.94-5.94-2.23-2.42-.25-4.67,1-7,1.65-4.13.28-8.19-3.52-12.21-.88-2.91,1.52-6.07,1.3-9.49-.11s-7,.19-10.22,1.26c-3.62.47-6.93-2.82-10.62-1.8-3.56,1.45-7.51,2.28-11.08.29-4.71-2.61-9.55,3.79-14.18.53-2.62-1.62-8.41-2.47-9.4,1,3.34-3.24,7.61-1.2,11.09.46,4.28,1.18,8.74-4.05,12.91-1.32,3.41,1.66,6.44.89,10.47-.27C91.82,165.82,94.9,168.85,97.43,168.74Z"/></g><path class="cls-12" d="M43.43,10.32a.23.23,0,0,0-.1,0,.28.28,0,0,0-.13.23s.21,76.58.21,79C43.41,117.44,67.86,140,98,140c28,0,51.08-19.51,54.22-44.62l.17-84.83a.26.26,0,0,0-.26-.27H43.43Z"/><path class="cls-13" d="M91.36,60a9.42,9.42,0,0,1,3.1,6.33v7H87.39c-2.73.09-4.61-1.34-6.31-3.1V82.69a7.29,7.29,0,0,1,6.31-3.1h7.07v7.06c.09,2.73-1.35,4.62-3.1,6.32h12.38a7.33,7.33,0,0,1-3.1-6.32V79.59h7a9.52,9.52,0,0,1,6.41,3.1V70.31a9.39,9.39,0,0,1-6.33,3.1h-7v-7a9.56,9.56,0,0,1,3.1-6.41Zm0,36.12a9.39,9.39,0,0,1,3.1,6.32v7H87.39c-2.73.1-4.61-1.34-6.31-3.1v12.39a7.26,7.26,0,0,1,6.31-3.1h7.07v7.06c.09,2.73-1.35,4.61-3.1,6.31h12.38a7.31,7.31,0,0,1-3.1-6.31v-7.06h7a9.47,9.47,0,0,1,6.41,3.1V106.42a9.35,9.35,0,0,1-6.33,3.1h-7v-7a9.52,9.52,0,0,1,3.1-6.4Z"/><path class="cls-14" d="M126.58,29.76c-1.63.39-3.7,0-4.48-1.21.28-.49,1-.6,1.54-.76-1.13-.11-2.45-.6-2.38-1.54.26-1.39,1.24-1.32,2.38-1.09a1.64,1.64,0,0,1-.06-1.52,5.49,5.49,0,0,1,3.67.45c-.39-2.13-.33-3.87.88-5.19.84.2,1.52.53,1.63,1.29a3.89,3.89,0,0,1,1-2.89,2.92,2.92,0,0,1,1,1.82l-1.19,3M65.57,29.46l.73.16c1.64.39,3.53.14,4.31-1.07-.28-.49-1.13-.65-1.66-.8,1.14-.12,2.58-.56,2.5-1.5-.25-1.39-1.31-1.44-2.39-1.09a1.92,1.92,0,0,0,0-1.67,5.51,5.51,0,0,0-3.68.46c.39-2.13.3-3.91-.92-5.24a2,2,0,0,0-1.66,1.42,3.72,3.72,0,0,0-.91-2.83,2.92,2.92,0,0,0-1,1.82l1.21,3.46"/><path class="cls-15" d="M60.76,19.22l1.12,3.07,3.91,7.39c1.48.22,3.09.56,4.59-1,0-.57-.76-.66-1.5-.92,1.31-.07,2.5-.54,2.45-1.54-.2-1-1.17-1.23-2.49-.91a1.91,1.91,0,0,0,.07-1.63c-2.12-.21-3.06,0-3.68.66.45-2.37.25-4.34-.82-5.32-.85,0-1.21.56-1.57,1.17a3.49,3.49,0,0,0-.91-2.71,2.45,2.45,0,0,0-1.17,1.77Z"/><path class="cls-16" d="M131.7,19.25a2.93,2.93,0,0,0-1-1.83,3.39,3.39,0,0,0-1,2.68c-.11-.76-.74-1.06-1.57-1.26-1.22,1.32-1.36,3-1,5.16a5.26,5.26,0,0,0-3.61-.38,1.93,1.93,0,0,0,0,1.66c-1.08-.34-2.13-.29-2.39,1.1-.07.94.91,1.43,2,1.54a1.71,1.71,0,0,0-1.19.76c.77,1.21,2.67,1.46,4.31,1.07"/><path class="cls-15" d="M131.84,19.35l-1.13,3.07-3.91,7.39c-1.48.22-3.08.56-4.59-1,.05-.57.76-.65,1.51-.91-1.31-.07-2.51-.54-2.45-1.54s1.17-1.23,2.48-.91a1.93,1.93,0,0,1-.06-1.64c2.11-.2,3.06,0,3.67.66-.45-2.37-.25-4.33.82-5.31.85-.05,1.22.56,1.57,1.16a3.47,3.47,0,0,1,.92-2.7,2.51,2.51,0,0,1,1.17,1.77Z"/><path class="cls-14" d="M96.23,29.18a22.76,22.76,0,0,1-6.59.8,3.17,3.17,0,0,1,.81-2.21c-1.41-.07-2.22,0-2.48-1.13.2-.91.8-1.32,2.36-1.33a2.6,2.6,0,0,1-.9-1.9,10.26,10.26,0,0,1,4.36.33c-.72-1.93-.49-3.85-.49-5.77.84-.44,1.24.31,1.79.65,0-2,.47-3,1.28-3.27.82.31,1.29,1.24,1.28,3.27.55-.34.95-1.09,1.8-.65,0,1.92.22,3.84-.49,5.77a10.22,10.22,0,0,1,4.35-.33,2.63,2.63,0,0,1-.89,1.9c1.56,0,2.15.42,2.36,1.33-.26,1.1-1.08,1.06-2.49,1.13a3.14,3.14,0,0,1,.82,2.21A23.21,23.21,0,0,1,96.23,29.18Z"/><path class="cls-17" d="M96.25,29.11a21.76,21.76,0,0,1-6.3.78,3.05,3.05,0,0,1,.77-2.14c-1.34-.07-2.12,0-2.37-1.09.19-.88.77-1.28,2.26-1.29a2.54,2.54,0,0,1-.86-1.83,9.85,9.85,0,0,1,4.17.31c-.69-1.85-.46-3.71-.47-5.57.81-.43,1.19.3,1.72.63,0-2,.44-2.86,1.22-3.16.78.3,1.23,1.2,1.23,3.16.52-.33.9-1.06,1.71-.63,0,1.86.22,3.72-.47,5.57a9.85,9.85,0,0,1,4.17-.31,2.57,2.57,0,0,1-.85,1.83c1.49,0,2.06.41,2.25,1.29-.24,1.07-1,1-2.37,1.09a3.11,3.11,0,0,1,.78,2.14A22.21,22.21,0,0,1,96.25,29.11Z"/><path class="cls-18" d="M78.72,32.42a22.13,22.13,0,0,1-6.26.77,3.08,3.08,0,0,1,.77-2.12c-1.33-.07-2.1,0-2.35-1.08.19-.87.76-1.26,2.24-1.27a2.51,2.51,0,0,1-.85-1.82,9.67,9.67,0,0,1,4.13.31c-.68-1.83-.46-3.67-.46-5.51.8-.42,1.18.3,1.7.62,0-1.93.44-2.83,1.21-3.12.78.29,1.23,1.19,1.22,3.12.52-.32.9-1,1.7-.62,0,1.84.22,3.68-.46,5.51a9.66,9.66,0,0,1,4.13-.31,2.54,2.54,0,0,1-.85,1.82c1.48,0,2,.4,2.24,1.27-.25,1.06-1,1-2.36,1.08a3,3,0,0,1,.78,2.12A22.43,22.43,0,0,1,78.72,32.42Z"/><path class="cls-17" d="M78.74,32.35a20.52,20.52,0,0,1-6,.75,2.94,2.94,0,0,1,.74-2.05c-1.28-.07-2,0-2.26-1,.19-.84.73-1.22,2.14-1.23A2.44,2.44,0,0,1,72.57,27a9,9,0,0,1,4,.3c-.66-1.78-.44-3.55-.45-5.33.77-.41,1.13.28,1.63.6,0-1.87.42-2.74,1.16-3,.74.28,1.17,1.15,1.17,3,.5-.32.85-1,1.62-.6,0,1.78.21,3.55-.44,5.33a9,9,0,0,1,4-.3,2.44,2.44,0,0,1-.81,1.75c1.42,0,2,.39,2.14,1.23-.23,1-1,1-2.25,1A2.94,2.94,0,0,1,85,33.1a20.82,20.82,0,0,1-6.25-.75Z"/><path class="cls-18" d="M113.42,32.42a22.06,22.06,0,0,1-6.25.77,3,3,0,0,1,.77-2.12c-1.34-.07-2.11,0-2.36-1.08.2-.87.76-1.26,2.24-1.27A2.54,2.54,0,0,1,107,26.9a9.71,9.71,0,0,1,4.14.31c-.69-1.83-.46-3.67-.47-5.51.81-.42,1.18.3,1.7.62,0-1.93.45-2.83,1.22-3.12.77.29,1.22,1.19,1.21,3.12.53-.32.9-1,1.7-.62,0,1.84.22,3.68-.46,5.51a9.68,9.68,0,0,1,4.13-.31,2.51,2.51,0,0,1-.85,1.82c1.48,0,2,.4,2.24,1.27-.24,1.06-1,1-2.35,1.08a3.08,3.08,0,0,1,.77,2.12A22.46,22.46,0,0,1,113.42,32.42Z"/><path class="cls-17" d="M113.45,32.35a20.55,20.55,0,0,1-6,.75,2.94,2.94,0,0,1,.74-2.05c-1.28-.07-2,0-2.26-1,.19-.84.74-1.22,2.15-1.23a2.41,2.41,0,0,1-.81-1.75,9,9,0,0,1,4,.3c-.65-1.78-.44-3.55-.44-5.33.76-.41,1.12.28,1.62.6,0-1.87.43-2.74,1.17-3,.74.28,1.17,1.15,1.16,3,.5-.32.86-1,1.63-.6,0,1.78.21,3.55-.45,5.33a9,9,0,0,1,4-.3,2.44,2.44,0,0,1-.81,1.75c1.41,0,2,.39,2.14,1.23-.24,1-1,1-2.26,1a2.94,2.94,0,0,1,.74,2.05,20.76,20.76,0,0,1-6.24-.75Z"/><path class="cls-19" d="M96.1,21.07c-.38,1-.25,5.17-3.64,5.47A20.83,20.83,0,0,1,94.8,28.1a3.43,3.43,0,0,1-.13,3c-3.51,6.2-11.27,5.23-14.58,1.44A9.8,9.8,0,0,1,82.6,30c-2.06-.78-2.91-3.35-3.52-5-.6,1.76-1.1,4.09-3.55,4.94a7.35,7.35,0,0,1,2.34,2.48c-1.8,1.67-4.31,4.15-7,3.9-4.07,0-7.09-6.71-3.26-9.63-3.48-.56-4.2-2.88-5.73-4.69l8.47,28.91a155.2,155.2,0,0,1,52,0L130.74,22c-1.52,1.81-2.24,4.13-5.73,4.69,3.84,2.92.82,9.61-3.25,9.63-2.72.25-5.24-2.23-7-3.9a7.39,7.39,0,0,1,2.35-2.48c-2.45-.85-2.95-3.18-3.55-4.94-.61,1.69-1.46,4.26-3.52,5a10,10,0,0,1,2.51,2.51c-3.31,3.79-11.07,4.76-14.59-1.44a3.46,3.46,0,0,1-.13-3,21.11,21.11,0,0,1,2.35-1.56c-3.39-.3-3.26-4.48-4-5.47Z"/><path class="cls-20" d="M79.08,42.14l5-.42a2.34,2.34,0,0,1,2.47,2h0a2.1,2.1,0,0,1-1.9,2.4l-5,.42a2.32,2.32,0,0,1-2.47-2h0A2.11,2.11,0,0,1,79.08,42.14Z"/><path class="cls-20" d="M114.18,42.15l-5-.43a2.33,2.33,0,0,0-2.47,2h0a2.1,2.1,0,0,0,1.89,2.4l5,.43a2.34,2.34,0,0,0,2.47-2h0A2.1,2.1,0,0,0,114.18,42.15Z"/><path class="cls-21" d="M91.49,43.58l4.79-2.85,4.79,2.85-5,2.67-4.6-2.67ZM68.28,43l4.61,2.21L70,48.64M124.27,43l-4.6,2.21,2.85,3.4"/><path class="cls-19" d="M121.69,50.76a86.64,86.64,0,0,1-51.38.1A161.55,161.55,0,0,1,121.69,50.76Z"/><path class="cls-21" d="M69.93,49.07a165.33,165.33,0,0,1,52.35,0M67.84,41.51a195.62,195.62,0,0,1,56.92,0"/><path class="cls-21" d="M67.32,39.82a201,201,0,0,1,58-.13"/><path class="cls-21" d="M65.33,25.93c-1.19,1.76-1.95,11,5.32,12.23a9,9,0,0,0,8-4.3,10,10,0,0,0,8.15,3.51c4.52-.13,7.79-2.14,9.29-5.66,1.51,3.52,4.77,5.53,9.29,5.66a10.05,10.05,0,0,0,8.16-3.51,9,9,0,0,0,8,4.3c7.83-1.48,6.51-9.8,5.32-12.23"/><path class="cls-22" d="M98,26.6a1.62,1.62,0,0,1-1.64,1.59A1.59,1.59,0,1,1,98,26.59"/><path class="cls-22" d="M115.13,30a1.63,1.63,0,1,1-1.62-1.59A1.61,1.61,0,0,1,115.13,30"/><path class="cls-22" d="M80.67,30a1.63,1.63,0,1,1-1.62-1.59A1.59,1.59,0,0,1,80.67,30"/><path class="cls-2" d="M80,99.63c-12.64,0-22.89,10.17-22.89,30.51C57.11,155.57,75.33,181,97.8,181s40.68-25.43,40.68-50.86c0-20.34-10.24-30.51-22.88-30.51a22.86,22.86,0,0,0-17.8,8.5A22.89,22.89,0,0,0,80,99.63Zm0,0"/><rect class="cls-2" x="24.97" y="112.84" width="145.64" height="54.95" rx="5.46"/><text class="cls-23" transform="translate(60 138.81)">Gdańsk</text><text class="cls-23" transform="translate(59.84 161.89)">Slonim</text><path class="cls-2" d="M44.82,0l-29,0h-16l0,16c0,7,0,14,0,21A29.11,29.11,0,0,0,51.34,18.3,28.92,28.92,0,0,0,44.82,0Z"/><text class="cls-24" transform="translate(15.44 31.75)">33</text></svg>