<?xml version="1.0" encoding="utf-8"?>
<!-- Generator: Adobe Illustrator 26.0.1, SVG Export Plug-In . SVG Version: 6.00 Build 0)  -->
<svg version="1.1" id="Слой_1" xmlns="http://www.w3.org/2000/svg" xmlns:xlink="http://www.w3.org/1999/xlink" x="0px" y="0px"
	 viewBox="0 0 195.6 280.6" style="enable-background:new 0 0 195.6 280.6;" xml:space="preserve">
<style type="text/css">
	.st0{clip-path:url(#SVGID_00000001630656477192147340000014253436906825723785_);fill:#E94539;}
	.st1{clip-path:url(#SVGID_00000001660864400703611200000012498208435430351248_);fill:#FFFFFF;}
	.st2{clip-path:url(#SVGID_00000014609120207280850370000017429305625773028488_);}
	.st3{fill:#FFFFFF;}
	.st4{fill:#0F66B0;}
	.st5{fill:#F08224;}
	.st6{fill-rule:evenodd;clip-rule:evenodd;fill:#1166B0;}
	.st7{fill-rule:evenodd;clip-rule:evenodd;fill:#424242;}
	.st8{fill:none;stroke:#424242;}
	.st9{fill:none;stroke:#424242;stroke-width:1.03;}
	.st10{fill:none;stroke:#424242;stroke-width:0.88;}
	.st11{fill:#424242;}
	.st12{clip-path:url(#SVGID_00000029745900333036354620000010168852724190231191_);fill:#E00814;}
	
		.st13{clip-path:url(#SVGID_00000096780362270938093960000001897126432182689162_);fill:#FFFFFF;stroke:#333333;stroke-width:1.06;stroke-linecap:round;stroke-linejoin:round;}
	
		.st14{clip-path:url(#SVGID_00000158028341903972001830000009425839513970958984_);fill:none;stroke:#424242;stroke-width:1.87;stroke-miterlimit:5.63;}
	
		.st15{clip-path:url(#SVGID_00000106131881144662578070000000727824850929269918_);fill-rule:evenodd;clip-rule:evenodd;fill:#FFE407;}
	
		.st16{clip-path:url(#SVGID_00000082357947235629709070000017228629566373784476_);fill:none;stroke:#424242;stroke-miterlimit:5.63;}
	
		.st17{clip-path:url(#SVGID_00000147938208363753964420000003987071947828624023_);fill-rule:evenodd;clip-rule:evenodd;fill:#FFE407;}
	
		.st18{clip-path:url(#SVGID_00000157267233752901051100000010485345072127397539_);fill:none;stroke:#424242;stroke-width:1.87;stroke-miterlimit:5.63;}
	
		.st19{clip-path:url(#SVGID_00000119827300654976349370000002624395871190790017_);fill-rule:evenodd;clip-rule:evenodd;fill:#FEE308;}
	.st20{clip-path:url(#SVGID_00000017513874990523849630000017974948989199554725_);fill:none;stroke:#424242;stroke-width:1.4;}
	
		.st21{clip-path:url(#SVGID_00000139991249713125815940000016928546988661312940_);fill-rule:evenodd;clip-rule:evenodd;fill:#FEE308;}
	.st22{clip-path:url(#SVGID_00000021810461056502300490000013279666461042915986_);fill:none;stroke:#424242;stroke-width:1.4;}
	
		.st23{clip-path:url(#SVGID_00000047780455147160716510000002928176623959570859_);fill-rule:evenodd;clip-rule:evenodd;fill:#FEE308;}
	
		.st24{clip-path:url(#SVGID_00000053526748631014257360000012753460922328224168_);fill-rule:evenodd;clip-rule:evenodd;fill:#FFE209;stroke:#424242;stroke-width:0.75;stroke-miterlimit:5.63;}
	
		.st25{clip-path:url(#SVGID_00000124852770397663030010000003152463112470302102_);fill:none;stroke:#424242;stroke-width:1.26;stroke-linecap:round;stroke-linejoin:round;}
	
		.st26{clip-path:url(#SVGID_00000113335957160248732000000010918456040169135531_);fill:none;stroke:#424242;stroke-width:1.26;stroke-linecap:round;stroke-linejoin:round;}
	
		.st27{clip-path:url(#SVGID_00000134945310319704457170000001049036319953041319_);fill:none;stroke:#424242;stroke-width:0.75;stroke-miterlimit:5.63;}
	
		.st28{clip-path:url(#SVGID_00000073722171906250473220000001162679922116849334_);fill-rule:evenodd;clip-rule:evenodd;fill:#FFE209;stroke:#424242;stroke-width:0.75;stroke-miterlimit:5.63;}
	
		.st29{clip-path:url(#SVGID_00000052088056999352573640000016553427714482912168_);fill:none;stroke:#424242;stroke-width:0.75;stroke-miterlimit:5.63;}
	
		.st30{clip-path:url(#SVGID_00000136377956046117299080000013020668425101866643_);fill:none;stroke:#424242;stroke-width:0.75;stroke-miterlimit:5.63;}
	
		.st31{clip-path:url(#SVGID_00000041985907793260882030000004987411252974075554_);fill:none;stroke:#424242;stroke-width:0.75;stroke-miterlimit:5.63;}
	
		.st32{clip-path:url(#SVGID_00000027587305180106910260000016402373798747622322_);fill:none;stroke:#424242;stroke-width:0.72;stroke-linecap:round;stroke-linejoin:round;}
	
		.st33{clip-path:url(#SVGID_00000150804538512236854440000011400654541007145370_);fill:none;stroke:#424242;stroke-width:0.72;stroke-linecap:round;stroke-linejoin:round;}
	
		.st34{clip-path:url(#SVGID_00000120536067055034497670000013296603886590635944_);fill:none;stroke:#424242;stroke-width:0.72;stroke-linecap:round;stroke-linejoin:round;}
	.st35{clip-path:url(#SVGID_00000101822403242692530930000009923105635173085351_);fill:#FFFFFF;}
	.st36{clip-path:url(#SVGID_00000114069532284499576470000008986173726863688115_);fill:#FFFFFF;}
	.st37{clip-path:url(#SVGID_00000104695443250490735600000000720131411375917981_);fill:#FFFFFF;}
	.st38{enable-background:new    ;}
	.st39{fill:#E00814;}
</style>
<g>
	<g>
		<defs>
			<rect id="SVGID_1_" width="195.6" height="280.6"/>
		</defs>
		<clipPath id="SVGID_00000171709034834659256630000015277075130308678819_">
			<use xlink:href="#SVGID_1_"  style="overflow:visible;"/>
		</clipPath>
		
			<rect x="-9.2" y="-8.4" style="clip-path:url(#SVGID_00000171709034834659256630000015277075130308678819_);fill:#E94539;" width="214" height="297.9"/>
	</g>
	<g>
		<defs>
			<rect id="SVGID_00000178886278091240384680000002544948011035460776_" width="195.6" height="280.6"/>
		</defs>
		<clipPath id="SVGID_00000092436802985414938540000006691651622955693483_">
			<use xlink:href="#SVGID_00000178886278091240384680000002544948011035460776_"  style="overflow:visible;"/>
		</clipPath>
		<path style="clip-path:url(#SVGID_00000092436802985414938540000006691651622955693483_);fill:#FFFFFF;" d="M47,204
			c3.4,3.8,4.8,7.2,4.8,11.4s-1.2,7-4.5,10.6l-2.4,2.6v13.9c0,10.4,0.2,14,0.7,14.4c0.9,0.7,8.6,3.6,15.3,5.8
			c12.4,4,23.2,5.3,41.8,4.8c17.4-0.4,25.3-2,41.1-7.9l7.1-2.7v-28.3l-2.2-2.4c-6.3-6.9-6.3-14.5,0.1-22.1l2.2-2.6l-0.3-10.2
			c-0.3-11.5-1.2-16.1-4.2-21.7c-3.3-6.2-8.6-9.8-23.1-15.6c-9-3.6-16.2-7.4-21.5-11.2L98,140l-4.8,3.4c-5.8,4-11.9,7.1-21.4,10.9
			c-20.3,8.2-25.2,13.5-26.5,32.5c0,0.3,0,0.6-0.1,0.9c-0.1,1.3-0.1,2.6-0.2,4l-0.3,9.8L47,204z"/>
	</g>
	<g>
		<defs>
			<rect id="SVGID_00000098185778039868598450000000621536857090274695_" width="195.6" height="280.6"/>
		</defs>
		<clipPath id="SVGID_00000018204981710791150560000017821554555939906980_">
			<use xlink:href="#SVGID_00000098185778039868598450000000621536857090274695_"  style="overflow:visible;"/>
		</clipPath>
		<g id="g2500" style="clip-path:url(#SVGID_00000018204981710791150560000017821554555939906980_);">
			<path id="path2567" class="st3" d="M107.7,198.8c0.6,1.9,1.1,3.9,1.4,5.9c0.5,3.4,0.6,6.8,0.3,10.1c-0.2,2.3-0.7,4.6-1.3,6.8
				c-0.9,2.6-2.3,5-4,7.1l-0.3,0.4l-1.1-0.2l-1.8-0.4l-0.7-0.2l0.1-1.6c0.5-5.6,1.6-11.2,3.2-16.6c0.8-2.9,1.7-5.7,2.8-8.4
				C107.5,199,107.7,198.6,107.7,198.8L107.7,198.8z"/>
			<path id="path3333" class="st4" d="M148.1,203.6c-6.4,7.6-6.5,15.6-0.4,22.8l2.4,2.9l-0.1,13.4l-0.1,13.4l-5.6,2.1
				c-18.2,6.8-30.1,8.8-50.3,8.2c-16.9-0.5-24.4-1.8-39.2-7.1l-8.3-3l-0.3-4.4c-0.2-2.4-0.3-8.5-0.3-13.6v-9.2l2.6-3.3
				c3.5-4.4,3.8-5.1,4.2-9.1c0.4-4.6-0.8-8.2-4.3-12.8l-2.8-3.6l0.4-8.6c-1.9-5.3,0.4-9,1.6-13.6c1.4,0.3,2.9,0.2,4.2-0.3
				c2-0.6,4.1-0.4,6.1-0.9s5.8,1.4,6.5,1.7c2.4,0,58.5-0.3,65.1-0.3c0.9,0,1.8-0.1,2.6-0.4c2-0.7,4.3-2.1,5.7-1.7
				c1.9,0.6,3.8,1.3,5.8,2c1.5,0.5,2.9-0.9,4.5-0.7C148.7,184.4,153.7,196.9,148.1,203.6z"/>
			<path id="path2559" class="st3" d="M120.6,198l1,1.7l1,1.5c-4.2,5.7-5.3,12.1-6.8,18.7c0,0-2.2-0.8-2.3-0.8s0.2-0.8,0.4-1.7
				s0.6-2.7,0.9-3.9c1.5-7,2.3-9.8,4.6-14.6c0.2-0.5,0.5-1,0.8-1.5C120.3,197.6,120.5,197.8,120.6,198L120.6,198z"/>
			<path id="path2557" class="st3" d="M119.2,197l0.8,0.5l-0.5,1c-2.4,5.4-3.5,8.8-5,16.6c-0.4,1.8-0.7,3.5-0.8,3.6
				c-0.1,0.4-0.1-8,0-14.8v-5.1l0.6-0.2c1.2-0.4,2.4-1,3.4-1.8l0.6-0.5L119.2,197z"/>
			<path id="path2551" class="st3" d="M107.4,197.9c0,0.2-0.7,1.8-1.3,3.3c-3.4,9-5,19.1-6.4,27.2c-0.2,0-1.7-0.2-1.7-0.4
				c-0.1-0.4,0.1-0.2,0.2-4.2c0.1-3.6,0.5-7.2,1.2-10.7c0.5-2.2,2.3-9.3,3.2-12.2c1-3.4,2.9-8.3,3.2-8.3
				C106.4,194.3,106.7,196.3,107.4,197.9z"/>
			<path id="path2563" class="st3" d="M104.8,194.6c-2.5,6.5-4.5,13.1-6,19.9c-0.6,3.4-0.9,6.8-1,10.3c0,1.6,0,3.2,0,3.2
				s-0.5,0.2-0.7-0.2c-0.1-0.2,0-0.6,0-1c-0.1-2.6,0.1-8.3,0.1-13.8l0.1-15.2c2.8-0.4,5.4-1.7,7.3-3.8
				C104.6,194.2,104.7,194.2,104.8,194.6z"/>
			<path id="path2549" class="st3" d="M87.6,196.8c1.8,0.6,3.8,1,5.7,1H95v9.8c0,9.2,0,9.7-0.3,8.3c-1.3-6-3-11.6-5.2-14.9
				c-0.5-0.8-2.6-3.4-3.1-4.4C86.2,196.3,86.7,196.5,87.6,196.8L87.6,196.8z"/>
			<path id="path2498" class="st3" d="M44.8,228.5l2.4-2.6c3.3-3.5,4.5-6.3,4.5-10.6s-1.4-7.6-4.7-11.3l-2.3-2.6l0.3-9.8
				c0.8-23.1,4.7-28.6,26.7-37.5c9.5-3.8,15.6-7,21.4-10.9l4.8-3.4l3.9,2.8c5.3,3.8,12.5,7.6,21.5,11.2c14.5,5.9,19.8,9.5,23.1,15.6
				c3,5.6,3.9,10.2,4.2,21.7l0.3,10.2l-2.2,2.5c-6.4,7.6-6.4,15.2-0.1,22.1l2.2,2.4v28.2l-7.1,2.7c-15.8,6-23.7,7.5-41.1,7.9
				c-18.6,0.4-29.4-0.8-41.8-4.8c-6.7-2.2-14.4-5.1-15.3-5.8c-0.5-0.4-0.7-3.9-0.7-14.4 M93.6,143.6c-5,3.6-11.4,6.9-20.9,10.7
				c-11,4.5-15.5,7-19.1,10.5c-5.6,5.6-7.5,11.8-8.1,26.8l-0.4,9.1l2.5,3c3,3.7,3.8,5.2,4.5,8.7c0.6,3.3,0.2,6.7-1.2,9.7
				c-0.9,1.5-2,2.9-3.2,4.2l-2.4,2.7l0.1,8.7c0,4.8,0.2,11,0.4,13.7l0.3,5l6.1,2.4c14.3,5.5,23.7,7.4,39.7,7.9
				c21.8,0.7,34.4-1.3,52.8-8.4l5.5-2.1v-27.4l-2.2-2.3c-6.4-6.7-6.4-15.6,0.1-22.6l2.2-2.4l-0.3-10c-0.4-14.3-2.3-20.5-7.7-26.3
				c-3.4-3.6-7.8-6.1-18.7-10.5c-10.4-4.2-16-7.1-21.6-11.1c-1.3-1-2.7-1.8-4.1-2.6C96.5,141.6,95,142.6,93.6,143.6L93.6,143.6z"/>
			<path id="path2547" class="st3" d="M92,206.6c1,2.9,1.8,5.9,2.4,8.9c0.5,2.3,0.4,3.3,0.5,7.3c0.1,4.5,0.4,4.2,0,4.3
				s-0.4,0-1.3,0.1c-0.3-1.4-1-6.6-1.5-8.4c-0.8-3.1-0.9-3.4-0.7-4.5c0.4-2.6,0.2-5.2-0.4-7.7c-0.3-1.4-2.2-6.5-1.6-4.9L92,206.6z"
				/>
			<path id="path2555" class="st3" d="M111.3,209.6c0,5.9,0,10.7,0,10.7c-0.8-0.1-1.6-0.3-2.4-0.5c0-0.4,0.1-0.9,0.2-1.3
				c0.9-4.5,1-9.1,0.2-13.5c-0.4-2-0.9-4-1.6-5.9c0-0.1,0.4-0.1,1.8-0.1h1.8V209.6z"/>
			<path id="path2496" class="st3" d="M102.7,266.9c14.5-0.2,28.9-3.1,42.3-8.7l5.3-2v-27.4c-4.3-4-8-9.6-6.8-15.7
				c0.6-4.7,3.8-8.4,7-11.6c-0.3-7.6-0.2-15.3-1.5-22.8c0-0.1-0.3-1.6-0.4-1.7c-0.5,0.2-1,0.4-1.5,0.6c-1.9,0.8-1.8,0.7-4.7,0.5
				c-1.9-0.7-3.4-1.9-5.7-1.9l0,0c-1,0.3-2,0.7-2.9,1.2s-1.8,0.7-2.8,0.7l0,0c-1.1,0.1-2.3-0.1-3.3-0.5l-0.2,0.5
				c1.1,0.4,2.3,0.6,3.5,0.6c1,0,2.1-0.3,3-0.8s1.8-0.9,2.7-1.1c2.1-0.1,3.5,1.1,5.5,1.9h0.1c1.9,0.2,3.8-0.1,5.5-0.8
				c1.7,7.5,1.6,16,1.8,23.6c-3.5,3.7-6.8,7.9-6.8,13.1c-0.6,5.7,2.9,10.7,6.7,14.4c0,8.8,0.2,17.2,0,26.5
				c-32.7,15.9-76.3,12.8-102.6,0.3c-0.7-8.7-0.8-18-0.7-26.6c6.2-7,6.7-9.6,6.8-14.3s-1.7-7.4-7.1-14.5c0.2-7.7,0.2-15.8,1.7-22.1
				c0.5,0.1,1.8,0.2,2.2,0.2c2.2-0.2,4.5-0.5,6.7-1s4.5-0.2,6.6,0.8l0.3,0.1c0.2,0.1,0.5,0.2,1,0.4l0.2-0.5c-0.3-0.1-0.7-0.2-1-0.4
				c-0.1,0-0.2-0.1-0.3-0.1c-2.1-1.1-4.6-1.4-6.9-0.9c-2.2,0.4-4.4,0.8-6.6,1c-0.9,0-1.8-0.1-2.7-0.4c-0.6,3-1,6.1-1.2,9.2
				c-0.3,4.6-0.4,9.3-0.6,13.9c3.4,4.1,7.3,8.4,7.2,14.1c0.4,4.9-3.2,10.2-5.7,12.4c-1.1,1.2-1.6,2.8-1.4,4.4
				c0,8.2,0.1,16.4,0.8,24.6c11.8,4.8,24,9,36.8,9.8c5.6,0.5,11.2,0.6,16.8,0.6C100.7,266.9,101.7,266.9,102.7,266.9z"/>
			<path id="path2535" class="st3" d="M78.4,217.5c3.3,1.2,5,2.2,6,3.2c0.5,0.5,1,1.2,0.8,1.2L82,221l-3.6-1H78v-1.4
				c-0.1-0.4-0.1-0.9,0-1.3C78.1,217.3,78.3,217.4,78.4,217.5L78.4,217.5z"/>
			<path id="path2533" class="st3" d="M107.6,199.5c0.1,0.2,0.2,0.7,0.3,1c0.8,2.6,1.2,5.4,1.4,8.1c0.1,1,0.1,4.2,0,5.2
				c-0.2,2.1-0.5,4.2-0.9,6.2c-0.7,2.7-1.9,5.2-3.5,7.4c-0.8,1.1-1.1,1.6-1.2,1.5s-3.4-0.7-3.4-0.7s0.1-2.2,0.2-3.3
				c0.5-4,1.2-7.9,2.1-11.8c0.8-3.3,2.5-9,3.1-10.3c1-2.3,1.7-3.8,1.7-3.8S107.5,199.3,107.6,199.5L107.6,199.5z"/>
			<path id="path2561" class="st3" d="M123.2,202.3c0.9,1.9,1.5,3.9,1.8,5.9c0.1,1,0.2,2,0.1,3.1c0,2-0.3,4.1-1,6l-2.6,4.9
				c-2.1-0.6-4.1-1.4-6-2.4c1.9-9.3,4-13.4,6.9-18.3C122.7,201.8,122.9,202.1,123.2,202.3L123.2,202.3z"/>
			<path id="path3369" class="st5" d="M107.1,166.8c5.8,2.1,13.2,0.1,17.6,5.2c4.4,4.5,2.6,11.2,2.8,16.8c0.2,2.6-0.7,4.6,1.1,6.3
				c2.2,1.9,4.1,4,5.7,6.4c2.5,2.5,3.9,11.4-2.1,6.1c-5.3-5.1-10.5-10.6-17.6-13.3c-8.2-3.3-17.3-3.6-26.1-2.9c-0.3,0.1-1,0-1.2,0.2
				c-2.8,2.5-1.3,8.8-5.6,10.6c-4.9,1.9-11.8-1.9-16.1,2.3c-1.8,4.3-8.5,4.7-6.7-0.3c1.6-4.4,5.4-8.2,5.2-13.1
				c0.8-5.9,0-12.2,0.1-18.2c1.1,0,2.2-0.1,3.2-0.4c2.6-0.9,5.4-2.9,9.5-5.1c0.8-0.4,1.4,0.5,2.4,0.5c5.1-0.2,10.8-2.6,15.6,0.2
				C99.1,169.2,103,166.3,107.1,166.8z M120.4,197.5c5.8,3.4,9.3,11.9,12.3,17.5l-0.3,2.4L120.4,197.5z M78,202.6
				c0,1.9-0.3,9.2,0,17.5c1.1,0.3,8.5,2,7.1,2.4c-1.1,1.2-5.5-0.2-7.1-0.6c0,1,0.1,1.5,0.1,2.4c0.2,0.2,3.6,2.8,4,3.8
				c1.1,0.4,1.8,0.6,1.6,2.3c-1.5,0.1-3,0.1-4.5,0.1c0.2,4.5-0.2,9.7-0.2,11c-1.3,0.1-0.4,0-2.1,0.2c-0.1-1.7,0.2-5.9,0-11
				c-1.4-0.2-5.5,0.4-5.3-0.9c0.3-0.4,0.1-1.2,1.2-1.6c0.9-1.4,1.9-2.7,3.1-3.9c0-1,0-1.7,0-2.7c0-0.3-4.7-1-7.2-1.8
				c0-0.2-0.5-1.1-0.1-1.6c1.5,0.2,7.2,1.6,7.2,1.4c-0.3-7.7-0.4-14.7-0.3-17.1C76.4,202.5,77.2,202.6,78,202.6z M97.5,252.7
				c-0.6,0.1-0.8,0.1-1.9,0.2c0-0.3-0.2-11.3-0.2-14.2c-0.8-0.1-3-0.1-3.6-0.2c-0.1-0.7-0.1-1.3,0-2c1.1,0.6,2.7-3.1,3.1-3.6
				c-0.2-15.6,0.1-35.5,0.1-41.6c0.8,0.6,2.2-0.6,2.2,0.2c-0.1,3.3-0.1,8.5-0.1,11.4c-0.2,4.5,0.1,28.2,0.3,30.1
				c0.1,0.1,2.6,3,4,3.7c0.1,0.6,0.1,1.3,0,1.9c-2,0-3.8-0.5-3.8,0C97.6,243.9,97.6,251,97.5,252.7L97.5,252.7z M113.6,194.1
				c-0.1,9.7-0.4,19.4,0.2,29.2c-0.7,0-1.4,0-2.2,0c-0.1-8.5,0.1-21.1,0.1-29.7C111.9,193.8,113.3,194.1,113.6,194.1z M119.4,229.4
				c-1.7,0-10.6-0.2-12.8-0.1c0-0.2,0.1-0.7,0.1-1.4c1,0,4-3.8,4.5-4.4c0.9,0,1.9,0,2.7,0c0.5,0.5,4.5,4.4,5.4,4.3
				C119.5,228.7,119.4,228.8,119.4,229.4z M85.2,225.5c5.6,1.3,14.6,2.5,19.9,4.2c0,1,0.1,1.3-1.6,1.5c-5.1-0.7-15.2-2.6-19.3-4.3
				C84.5,225.9,84.6,226.1,85.2,225.5z M113.7,219.3c1.2,0.4,8.2,3.4,9.4,3.9c0,0.5-0.5,0.8-1,1.1c-1.3-0.4-7.1-2.3-8.4-2.8
				C113.7,220.6,113.6,221,113.7,219.3L113.7,219.3z M114.6,229.5c-0.1,3.1,0,6.3,0.3,9.4c-2.8,0.2-0.1,0-2.8,0.2
				c-0.1-3.8,0-5.8-0.1-9.6C113.4,229.5,113.4,229.5,114.6,229.5z"/>
			<path id="path2690" class="st6" d="M127.4,173.8c1.8,0.2,3.7-0.1,5.4-0.7c1.3-0.6,2.8-0.9,4.2-1c2.2-0.1,3.4,0.7,6.5,1.5
				c0.1,0,0.1,0,0.2,0h0.3h0.9h1h0.3h0.1c0.1-0.1,0.1-0.1,0.2-0.2c0-0.1,0-0.3-0.1-0.4c-0.1,0-0.1,0-0.2,0H146h-0.9h-0.9h-0.3h-0.1
				c-3.1-0.8-4.4-1.6-6.7-1.6c-1.5,0.1-3,0.4-4.4,1c-1.7,0.6-3.4,0.8-5.2,0.7l0,0l-2-0.6v0.6l2,0.5l0,0L127.4,173.8z"/>
			<path id="path2696" class="st6" d="M49.6,173.9c4.3-1.5,9.1-3,13.2-0.3c0.1,0,0.2,0.1,0.2,0.1c0.3,0,0.6,0,0.8,0V173
				c-0.3,0-0.5,0-0.8,0c-0.1,0,0,0-0.1,0c-4.4-2.8-9.4-1.2-13.7,0.3c0,0.1,0,0.2,0,0.4C49.4,173.7,49.6,173.9,49.6,173.9z"/>
			<path id="path2708" class="st6" d="M97.5,146.3c1.5,0,2.8-0.7,3.8-1.8c0-0.1,0-0.2,0-0.4c-0.1-0.1-0.2-0.2-0.3-0.2
				c-1.8,2-4.9,2.1-6.9,0.3l-0.1-0.1c0,0-0.2,0.1-0.3,0.2c0,0.1,0,0.3,0,0.4C94.7,145.7,96.1,146.3,97.5,146.3z"/>
			<path id="path2726" class="st7" d="M66.8,195.2c0.4,0,0.8,0,1.5-0.1c2.6-0.9,5.2-2.3,7.6-2.7c2.7-0.5,5.4-0.8,8.1-0.9V191
				c-2.8,0.1-5.5,0.4-8.3,0.9c-3.1,0.7-6.2,1.6-9.2,2.8c0,0-0.1,0.2,0,0.3S66.8,195.2,66.8,195.2z"/>
			<path id="path2866" class="st8" d="M113.6,194.2c0.2,9.4-0.1,19.6,0,29"/>
			<path id="path2870" class="st8" d="M111.5,223.6v-0.9c0-9.4-0.1-19.9,0-29.3"/>
			<path id="path2876" class="st8" d="M97.1,227.8c0-11.7-0.1-24.6,0-36.3"/>
			<path id="path2878" class="st8" d="M95,191.2c0.1,11.8-0.1,24.4,0,36.2"/>
			<path id="path2880" class="st8" d="M120.2,197.8c0.1,0.2,0.4,0.4,0.5,0.6c3.3,5.1,8.4,13.8,11.5,18.8c0.1,0.1,0.6,0.6,0.6,0.5"/>
			<path id="path2886" class="st8" d="M132.8,217.6c0-0.7,0-1.7,0-2.4c-0.4-1.3-0.9-2.6-1.6-3.8c-1.8-3.1-5.1-9.1-7.9-12"/>
			<path id="path2888" class="st8" d="M119.4,229.4h-12.7V228"/>
			<path id="path2892" class="st8" d="M106.4,227.8c4.3,0,8.7,0.1,13,0.1c0,0.5,0,1.3,0,1.8"/>
			<path id="path2894" class="st8" d="M118.8,227.9l-0.6-0.5c-1.5-1.3-3.1-3-4.6-4.2"/>
			<path id="path2898" class="st9" d="M107.6,227.8c1.3-1.4,2.2-2.6,3.4-4l0.5-0.6"/>
			<path id="path2902" class="st8" d="M113.8,223.3c-1.1,0.1-1.4,0-2.4,0"/>
			<path id="path2553" class="st3" d="M107.7,199.5c0.3,0.8,0.8,3.5,1.1,5.5c0.3,2.1,0.4,4.1,0.3,6.2c0.1,2.2,0,4.5-0.4,6.7
				c-0.3,2.2-1,4.3-2,6.3c-0.9,1.6-1.9,3.2-3,4.7c-0.6,0-1.3-0.1-1.9-0.2l-1.7-0.3l0.1-1.2c0.6-6.2,1.8-12.3,3.6-18.3
				c0.7-2.8,1.6-5.6,2.7-8.3c0.7-1.6,0.9-1.9,1.1-1.4L107.7,199.5z"/>
			<path id="path2904" class="st8" d="M104.9,229.6c-6.7-1.4-13.1-2.8-19.8-4.2c-0.6,0.6-1.1,0.9-0.7,1.5c0.2,0.3,2.7,1.2,4.6,1.6
				c4.2,0.8,9,2,12.8,2.6c1.8,0.3,2.4,0.1,2.7-0.2C104.8,230.5,104.9,230.1,104.9,229.6z"/>
			<path id="path2543" class="st3" d="M116.2,239.2c1.2,0.2,2.4,0.3,3.6,0.3c0.7-0.1,1.5,0,2.2,0.2c-0.1,0.3-0.3,0.6-0.5,0.9
				c-1.1,1.3-2.7,1.7-6.7,1.4l-2.6-0.2v-2.7l0.8-0.1C114,238.8,115.1,238.9,116.2,239.2L116.2,239.2z"/>
			<path id="path2906" class="st8" d="M112,229.6c0.1,3.9-0.1,8.5,0,12.5c4.5-0.2,8.5,1.4,9.9-2.6"/>
			<path id="path2910" class="st8" d="M114.6,229.5c0,3,0.1,6.2,0.1,9.2c1,0.2,1.7,0.3,2.7,0.5c1.6,0.1,3.1-0.1,4.7,0.1l0,0"/>
			<path id="path2541" class="st3" d="M107.3,252.5l0.7,0.3l-1.4,1.1c-0.5,0.4-1.1,0.8-1.7,1.1c-0.2,0-1.6,0.1-3.1,0.3
				s-3.6,0.3-4.5,0.3h-1.7v-1.4c0-0.5,0-0.9,0-1.4c1.7-0.2,9.2-0.6,9.9-0.6C106.2,252.3,106.7,252.3,107.3,252.5L107.3,252.5z"/>
			<path id="path2920" class="st8" d="M108.4,252.6c-1.5,1.2-1.9,1.4-3,2.4c-1.5,0.3-3,0.5-4.5,0.6c-1.8,0.2-3.6,0.2-5.4,0.2
				c0-5.5,0-11.7,0-17.2"/>
			<path id="path2926" class="st7" d="M97.9,252.7c0-4.8,0-9.3,0-14.1h-0.5c0,4.8,0,9.3,0,14.1h0.2H97.9z"/>
			<path id="path2936" class="st8" d="M100.4,236.5c-1.3-1.4-2.1-2.7-3.4-4.1"/>
			<path id="path2938" class="st8" d="M95,232.7c-0.9,1.4-1.3,2.4-2.2,3.8"/>
			<path id="path2940" class="st8" d="M97.1,233c0.1-0.7,0-2.3,0.1-3"/>
			<path id="path2942" class="st8" d="M95,229.6c0,1,0,2.4,0,3.4"/>
			<path id="path2537" class="st3" d="M75.4,217.3h0.3v2.1h-0.1l-2.8-0.6l-3.3-0.7c-0.7-0.1-0.7-0.1-0.1-0.3
				c1.1-0.3,2.2-0.5,3.3-0.5C73.1,217.3,74.7,217.3,75.4,217.3L75.4,217.3z"/>
			<path id="path2952" class="st8" d="M75.8,202.8c0,5.2,0,8.9,0,14v2.8"/>
			<path id="path2956" class="st8" d="M77.9,202.6c0,5.4,0,12.4,0,17.8"/>
			<path id="path2980" class="st8" d="M72,228.4c-0.1,0.8-0.2,1.6-0.2,2.3c1.1,0,2.9,0,3.7,0c2.9,0,5.5,0.1,8.4,0c0-0.8,0-0.5,0-1.6
				c-0.3-0.5-0.9-0.7-1.9-0.9"/>
			<path id="path2539" class="st3" d="M86.1,242.3c0,0.9-0.6,1.6-1.4,1.9c-1.4,0.2-2.8,0.2-4.1,0.2h-3.7v-2.7
				c1.8-0.1,3.7-0.1,5.5-0.1h3.7V242.3z"/>
			<path id="path2984" class="st8" d="M79,241.6c-0.1-3.4,0-7.3-0.1-10.8"/>
			<path id="path2986" class="st8" d="M76.9,230.9c0,4.3,0,9.3-0.1,13.7H84c0.7-0.1,1.3-0.4,1.8-0.9c0.8-0.7,0.5-1.1,0.5-2.2
				c-2,0.2-5,0-7.5,0"/>
			<path id="path2990" class="st8" d="M113.5,219.1l9.7,4.1"/>
			<path id="path2996" class="st8" d="M131.8,216.3c-3.3-0.9-8.3,3.1-10.2,6"/>
			<path id="path2998" class="st8" d="M123.4,202.6c2.4,6.3,1.8,9.7,1.1,13.8c-0.5,1.8-1.4,3.6-2.4,5.2"/>
			<path id="path3000" class="st8" d="M122.5,201.5c-2.2,3.1-3.7,6.6-4.7,10.3c-0.6,2.6-1.3,5.6-1.7,8.1"/>
			<path id="path3002" class="st8" d="M120.1,197.5c-1.4,2.8-2.6,5.8-3.5,8.8c-1.4,4.7-1.7,7.9-2.9,12.6"/>
			<path id="path3004" class="st8" d="M118.1,196.4c-1.4,1.6-3.9,2.6-4.6,2.4"/>
			<path id="path3006" class="st8" d="M105.7,192.2c-1.6,3.7-7.3,5.6-8.5,5.5"/>
			<path id="path3008" class="st8" d="M105.8,192.3c-2.1,3.8-3.6,8.9-4.7,12.9c-2.2,7.9-3.3,12.7-3.2,22.9"/>
			<path id="path3010" class="st8" d="M99.9,228.3c0.1-2.6,0.4-5.3,0.9-7.9c1-5.7,2.4-11.3,4.3-16.8c0.6-1.5,1.6-3.6,2.2-5.1"/>
			<path id="path3012" class="st7" d="M107.5,198.8c0.3-2.1,1.8-3.8,2.4-5.8l-0.5-0.1c-0.9,2.2-2.1,4.1-2.7,6.4L107.5,198.8z"/>
			<path id="path3016" class="st8" d="M99.1,191.4c0.8,1.5,1.4,3.5,2.2,5"/>
			<path id="path3018" class="st8" d="M91.4,191.3c-1.2,1.6-1.8,3.9-2.5,5.6"/>
			<path id="path2545" class="st3" d="M91.2,216.2c0.1,0.2,1.5,6.4,2.1,9.4c0.1,0.4,0.2,0.9,0.1,1.4c-0.1,0.1-7.7-1.4-7.9-1.6
				c0.2-0.4,0.5-0.8,0.9-1.1c1.9-2.3,3.4-4.9,4.5-7.7C91,216.2,91.2,216.1,91.2,216.2L91.2,216.2z"/>
			<path id="path3020" class="st8" d="M87.8,199.3c-2.4,6.3-4.4,12.7-6,19.2"/>
			<path id="path3026" class="st8" d="M95,197.8c-4.5,0.1-7.5-0.8-9.8-2.2c3,3.5,5.7,9.5,5.9,13.3c1.2,6.9-2,12.5-6,16.7"/>
			<path id="path3028" class="st8" d="M93.6,227.1c-0.9-5-2-10-3.5-14.8c-0.2-0.6-2.8-9.1-5.4-13.6"/>
			<path id="path3030" class="st8" d="M83.3,201.4c-1.3,1.4-3.3,11-3.8,16.2"/>
			<path id="path3032" class="st8" d="M88.4,200.2c4,4.8,6,13.5,6.6,20"/>
			<path id="path3034" class="st8" d="M105.8,192.3c0.8,2.2,1.4,4.5,2,6.9c2.1,6.4,2.5,13.1,1.2,19.7c-0.5,3.8-2.6,7.4-5,10.4"/>
			<path id="path3036" class="st8" d="M111.6,220.5l-3-0.7"/>
			<path id="path3038" class="st8" d="M111.5,198.8c-1.2,0-3.6,0-4.2,0"/>
			<path id="path3042" class="st8" d="M112.1,231.2c-6.2,4.7-10.3,12.4-14.5,18.7"/>
			<path id="path3046" class="st10" d="M92.4,238.7c0.8,0.5,2.2,2.7,3.3,5.4"/>
			<path id="path3048" class="st8" d="M79.2,231c7.5,3.9,11.9,10.6,16.1,17.8c0.1,0.1,0.3,0.5,0.3,0.6"/>
			<path id="path3050" class="st8" d="M66.9,203.8c3.3,3.6,5.1,8.5,6.2,13.2"/>
			<path id="path3052" class="st8" d="M74.4,217c-0.2-5.4-1.4-9.6-3.1-14.6"/>
			<path id="path3237" class="st6" d="M65.4,162.9c1.4,0,2.7-0.3,4-0.8c1.8-0.6,3.5-1.2,5.2-1c3.7,1.5,7.7,2.2,11.5,0.6
				c2.6-1.7,5-0.9,7.1,0.1l0,0c3,1.4,6.5,1.3,9.3-0.4l0,0c1.3-0.8,2.9-0.9,4.3-0.4c1.5,0.4,3,1.1,4.4,1.5l0,0
				c2.1,0.8,4.2,0.1,6.2-0.7s3.9-1.4,5.9-0.6l0,0c3.6,2.5,8,1.7,11.6-0.2c0-0.1,0-0.3,0-0.4c0-0.1-0.1-0.2-0.2-0.2
				c-3.5,1.9-7.8,2.6-11.2,0.2l0,0l0,0c-2.1-0.9-4.2-0.1-6.2,0.6s-3.9,1.4-5.9,0.7l0,0l0,0c-1.4-0.4-2.9-1.1-4.5-1.5
				c-1.5-0.5-3.2-0.3-4.6,0.5l0,0c-2.7,1.6-6.1,1.7-8.9,0.4l0,0c-2.3-1-5.1-1.8-7.4-0.1l0,0c-3.6,1.6-7.6,0.9-11.1-0.6l0,0l0,0
				c-1.9-0.3-3.7,0.4-5.4,1s-3.4,1.1-5.2,0.6l0,0l0,0c-1.1-0.3-2.3-0.8-3.5-1.1c-0.1,0.1-0.1,0.2-0.2,0.3c0,0.1,0,0.3,0.1,0.4
				c1.1,0.3,2.2,0.8,3.4,1.1l0,0C64.5,162.8,64.9,162.9,65.4,162.9z"/>
			<path id="path3239" class="st6" d="M112.6,151.8c0.2-0.1,0.2-0.3,0.1-0.5c-1-0.5-2-0.9-3.1-1.3c-1.5-0.8-3.3-1.1-5-1
				c-1.8-0.1-3.2,1.4-5,1.6c-1.9,0.5-3.9,0.5-5.8-0.2c-1.2-0.3-2.2-1.3-3.4-1.5c-1.9-0.2-3.8,0.3-5.4,1.3c-0.5,0.3-2.4,0.8-1.1,1.2
				c1-0.4,1.9-1.1,2.9-1.4c1.6-0.8,3.6-0.7,5.1,0.2c2,1.2,4.3,1.6,6.6,1.1c1.5-0.2,2.9-0.6,4.2-1.4c2.3-1,4.8-0.1,7,0.8
				C110.8,151.2,111.7,151.5,112.6,151.8z"/>
			<path id="path3241" class="st6" d="M82,157.3c1.8-0.1,3.5-0.7,5-1.7l0,0c2.7-1,5.4,0.5,8,1.4c2.1,0.7,4.4,0.4,6.2-0.7l0,0
				c2.3-1.1,5-1.2,7.4-0.3l0,0c2.4,1.1,5.1,2.1,7.7,0.7l0,0c2-1.3,4.5-1.9,6.5-0.4l0,0h0.1c0.3-0.2,0.1-0.5,0.1-0.6
				c-2.2-1.6-4.9-1-7,0.4c-2.3,1.4-4.9,0.4-7.2-0.7l0,0c-2.5-0.9-5.3-0.8-7.8,0.3l0,0l0,0c-1.8,1.1-3.9,1.3-5.9,0.7l0,0
				c-2.6-0.8-5.4-2.4-8.3-1.4l0,0l0,0c-1.4,1-3.1,1.6-4.9,1.7l0,0c-1.4,0-2.8-0.4-4.1-1c-1.3-0.7-2.9-0.9-4.4-0.6
				c0,0.1-0.1,0.3-0.1,0.4c0,0.1,0.1,0.2,0.2,0.3c1.4-0.3,2.8-0.1,4.1,0.5C79,156.9,80.5,157.3,82,157.3L82,157.3z"/>
			<path id="path3176" class="st8" d="M76,217.1c-2.4-0.1-4.7-0.1-6.9,0.9c-0.5,0.9-0.3,1.9,0.2,2.2c2.8,0.6,4.1,1,6.5,1.5"/>
			<path id="path3190" class="st8" d="M85.2,222c-0.6-0.3-16.3-3.9-16.3-3.9"/>
			<path id="path3192" class="st8" d="M83.4,223.2L78,222v2.2"/>
			<path id="path3194" class="st8" d="M75.8,221.4v3.1"/>
			<path id="path3196" class="st8" d="M74.6,226.2c0-1.6-0.2-3.2-0.6-4.8"/>
			<path id="path3198" class="st8" d="M75.9,224.3l-3.2,4.2"/>
			<path id="path3200" class="st8" d="M82.2,228.3l-4.2-4.1"/>
			<path id="path3204" class="st8" d="M78.1,217.3c2.3,0.9,7,2.1,7.3,4.8c-0.5,0.7-1.2,1.1-2.1,1.1"/>
			<path id="path3210" class="st8" d="M83.1,228.5l-11.3,0.1"/>
			<path id="path3212" class="st8" d="M101.4,236.6h-9.8"/>
			<path id="path3214" class="st8" d="M91.8,236.3v2.2"/>
			<path id="path3216" class="st8" d="M91.6,238.7l9.8-0.1v-2.4"/>
			<path id="path3218" class="st7" d="M97.7,244.5c0.9-2.9,2-4,3.4-5.7l-0.3-0.4c-1.4,1.7-2.6,2.7-3.4,5.7L97.7,244.5z"/>
			<path id="path3220" class="st7" d="M108.1,253.2l0.8-0.5c-0.7-0.3-2-0.6-2.6-0.9h-0.1h-0.1c-3.2,0-6.2,0.4-8.7,0.5v0.5
				c2.6-0.1,5.5-0.5,8.6-0.5C106.8,252.6,108,252.8,108.1,253.2z"/>
			<path id="path3224" class="st8" d="M123,222.9v0.9l-0.9,0.5l-8.6-2.7l0,0"/>
			<path id="path3228" class="st8" d="M97.1,232.7H95"/>
			<path id="path3230" class="st8" d="M78,224.3h-2"/>
			<path id="path2893" class="st7" d="M124.4,177.7c0,0,0.3,0,0.4-0.1s0-0.3,0-0.3c-2.3-2-5.1-3.4-8-4.3c-6.4-2.2-13.1-3.3-19.8-3.1
				c-6.4,0.2-12.8,0.7-19.1,1.8c-1.1,0.2-2.3,0.4-3.4,0.8c-1.7,0.4-3.4,1.2-4.8,2.2c0,0,0,0.3,0,0.4s0.4,0,0.4,0
				c1.4-1,2.9-1.7,4.5-2.1c1.1-0.3,2.2-0.6,3.3-0.8c6.3-1,12.6-1.6,19-1.7c6.7-0.2,13.3,0.9,19.6,3.1
				C119.5,174.3,122.1,175.8,124.4,177.7z"/>
			<path id="path2905" class="st7" d="M124.6,181.3c0.1,0,0.2-0.1,0.3-0.1c0.1-0.1,0-0.3,0-0.3c-1-0.9-2.1-1.6-3.3-2.2
				c-3.4-1.5-6.9-2.8-10.5-3.7l0,0c-4.2-1.2-8.6-1.3-12.9-1.3l0,0c-7.9,0.3-19.2,0.6-27.7,4.8c0,0.1,0,0.2,0,0.3s0.3,0.1,0.3,0.1
				c8.4-4.1,19.6-4.5,27.5-4.8l0,0c4.3,0.1,8.6,0.1,12.7,1.3l0,0c3.6,0.9,7.1,2.1,10.4,3.7l0,0C122.5,179.8,123.6,180.5,124.6,181.3
				z"/>
			<path id="path2911" class="st7" d="M124.6,185.7c0.1,0,0.2-0.1,0.3-0.1c0.1-0.1,0-0.3,0-0.3c-7.5-5.3-16.8-7.4-25.8-7.9l0,0
				c-8.1,0.2-20.8,0.6-27.9,4.3l-0.6,0.3c0,0-0.1,0.2-0.1,0.3s0.3,0.1,0.3,0.1l0.6-0.4c6.9-3.6,19.6-4,27.7-4.2l0,0
				C108.1,178.3,117.2,180.5,124.6,185.7z"/>
			<path id="path2919" class="st7" d="M125.2,190.1c0,0,0.2,0,0.3-0.1c0-0.1,0.1-0.2,0.1-0.3l0,0c-4.6-3.3-9.8-5.7-15.3-7
				c-5.2-1.5-10.6-2.2-16-2l0,0c-5-0.1-9.8,0.9-14.6,1.7c-3.1,0.3-6.2,1.4-8.8,3c0,0,0,0.2,0,0.3s0.3,0.1,0.3,0.1
				c2.6-1.5,5.5-2.5,8.6-2.8c4.8-0.8,9.7-1.8,14.6-1.7c5.3-0.2,10.7,0.5,15.8,1.9C115.5,184.4,120.6,186.7,125.2,190.1L125.2,190.1z
				"/>
			<path id="path2931" class="st7" d="M133,204.2c0,0,0.2,0.1,0.3,0s0-0.4,0-0.4l-1.3-1.2c-3.5-3.7-7.4-6.8-11.8-9.4
				c-7.2-4.6-15.8-6.4-24.2-6.5c-9-0.2-17.8,1.7-26.6,3.2l0.1,0.5c8.8-1.5,17.6-3.4,26.5-3.2c8.3,0.1,16.8,1.9,23.9,6.4l0,0
				c4.4,2.5,8.3,5.6,11.7,9.3l0,0L133,204.2z"/>
			<path id="path3158" class="st11" d="M68.7,200.3c1.1,0,1.3-0.2,1.3-1.6s-0.2-1.6-1.3-1.6s-1.3,0.2-1.3,1.6S67.5,200.3,68.7,200.3
				z"/>
			<path id="path3160" class="st11" d="M79.8,198.4c1.1,0,1.3-0.2,1.3-1.6s-0.2-1.6-1.3-1.6s-1.3,0.2-1.3,1.6S78.7,198.4,79.8,198.4
				z"/>
			<path id="path3164" class="st11" d="M104.8,186.2c1.2,0,1.2,0,1.2-1.3c0-1,0-1.1-1.2-1.1s-1.1,0-1.1,1.1S103.7,186.2,104.8,186.2
				z"/>
			<path id="path3166" class="st11" d="M96.5,185.4c1.2,0,1.2,0,1.2-1.3c0-1,0-1.1-1.2-1.1s-1.2,0-1.2,1.1S95.3,185.4,96.5,185.4z"
				/>
			<path id="path3168" class="st11" d="M89.1,185.4c1.1,0,1.1,0,1.2-1.2c0-1,0-1-1.2-1s-1.1,0-1.1,1.1S88,185.4,89.1,185.4z"/>
			<path id="path3170" class="st11" d="M81.8,186.2c1.2,0,1.2,0,1.2-1.3c0-1,0-1.1-1.2-1.1s-1.2,0-1.2,1.1S80.7,186.2,81.8,186.2z"
				/>
			<path id="path3172" class="st11" d="M74.1,187.8c1.1,0,1.1,0,1.2-1.2c0-0.9,0-1.1-1.2-1.1s-1.1,0.2-1.1,1.1S73,187.8,74.1,187.8z
				"/>
			<path id="path2748" class="st8" d="M63.5,194.1c1.4-6.9,0.7-14.3,0.7-21.2"/>
			<path id="path2742" class="st8" d="M99.1,191.3c-0.3,0-8.8,0-11.4,0c-0.3,0-0.5,0.4-0.7,0.7c-1.4,2.2-2.3,4.7-2.4,7.3
				c-0.5,1.4-1.8,3.1-3.2,3.1H70.7c-2.8,0.2-5.4,1.8-6.9,4.3c-0.8,1.5-6.3,1.5-5.2-2.6c2.6-4.4,4-6.3,4.8-10.3"/>
			<path id="path3154" class="st11" d="M74.3,198.9c1.1,0,1.3-0.2,1.3-1.6s-0.2-1.6-1.3-1.6s-1.3,0.2-1.3,1.6S73.2,198.9,74.3,198.9
				z"/>
			<path id="path2714" class="st7" d="M128,194.4c0-0.1-0.1-0.4-0.1-0.4c0-4-0.1-7.1,0-10.9c0.2-3.4,0-6.7-1.8-9.6l0,0
				c-1.5-2.2-3.7-3.9-6.2-4.8c-1.2-0.4-2.5-0.7-3.8-0.8l0,0c-1.1-0.2-2.3-0.2-3.5-0.1h-0.4l0,0c-0.2,0-0.4,0-0.6,0.1l0,0
				c-0.9-0.1-1.8-0.3-2.6-0.7c-0.9-0.4-1.8-0.6-2.8-0.6l0,0c-2.2-0.1-4.5,0.3-6.6,1.2c-1.6,0.5-3.4,0.4-5-0.2l0,0l0,0
				c-2.9-0.9-6.1-1.5-9-0.3l0,0c-1.9,0.7-4,0.8-6,0.4l0,0c-0.8-0.1-1.6-0.3-2.4-0.4l0,0l-0.1-0.1l-5.6,3.4l0,0l-4.8,2.2l0,0
				c0-0.1-0.1-0.1-0.2-0.1h-0.1H66c-0.3,0-0.9,0-1.3,0c-0.3,0-0.5,0.1-0.7,0.3c-0.1,0.1-0.1,0.2-0.1,0.3l0.2,0.4
				c0.1-0.1,0.2-0.2,0.3-0.3c0.1-0.1,0.2-0.1,0.2-0.1c0.4,0,0.7,0,1,0c1.3,3.3,2,6.9,2.1,10.5c0.1,3.2-0.4,6.3-1.7,9.3l0.6-0.2
				c1.2-2.9,1.8-6,1.6-9.1c-0.1-3.5-0.8-6.9-2-10.1l0.2-0.1l5-2.3l0,0l0,0l5.4-3.3c0.8,0.1,1.5,0.3,2.3,0.4l0,0
				c2.1,0.5,4.3,0.3,6.3-0.4l0,0c2.8-0.9,5.9-0.8,8.6,0.5c1.8,0.7,3.8,0.8,5.6,0.2c2.1-0.7,4.1-1.5,6.2-1.3l0,0
				c0.9,0,1.8,0.2,2.6,0.6c1.3,0.4,2.6,0.6,4,0.6c2.4-0.1,4.7,0.2,7,0.9c2.4,0.9,4.5,2.5,5.9,4.6l0,0c1.7,2.8,1.9,6,1.7,9.3
				c0,3.6,0.1,6.9,0,10.9C127.3,194.4,127.7,194.9,128,194.4z"/>
			<path id="path3150" class="st11" d="M119.7,191c1.2,0,1.2,0,1.2-1.2c0-1,0-1-1.2-1s-1.2,0-1.2,1.1S118.5,191,119.7,191z"/>
			<path id="path3162" class="st11" d="M112.7,187.8c1.2,0,1.2,0,1.2-1.2c0-1,0-1.2-1.3-1.2s-1.2,0.3-1.2,1.3
				S111.5,187.8,112.7,187.8z"/>
			<path id="path2716" class="st8" d="M127.7,194.3c6.5,4.6,13.2,18.4,5.7,14.4c-4.6-3.3-9-8.7-11.9-10.4
				c-6.3-4.3-14.3-6.3-21.9-6.9H99"/>
			<path id="path2499" class="st8" d="M110.1,225c-0.3-1.5-0.7-3-1.4-4.4"/>
			<path id="path2515" class="st8" d="M80.7,222.7c-0.4,1-0.6,2.1-0.9,3.2"/>
			<path id="path3235" class="st6" d="M97.4,168.7c2.5-0.1,6.6-3.3,10.2-1.7s7.8,1.6,11.4,0c4.3-2,9,3.3,13.4,0.6
				c3.4-1.3,7.3-1,10.5,0.7c-0.4-2-4.1-1.9-5.9-2.2c-2.4-0.2-4.7,1-7,1.6c-4.1,0.3-8.2-3.5-12.2-0.9c-2.9,1.5-6.1,1.3-9.5-0.1
				s-7,0.2-10.2,1.3c-3.6,0.5-6.9-2.8-10.6-1.8c-3.6,1.4-7.5,2.3-11.1,0.3c-4.7-2.6-9.6,3.8-14.2,0.5c-2.6-1.6-8.4-2.5-9.4,1
				c3.3-3.2,7.6-1.2,11.1,0.5c4.3,1.2,8.7-4.1,12.9-1.3c3.4,1.7,6.4,0.9,10.5-0.3C91.8,165.8,94.9,168.9,97.4,168.7z"/>
		</g>
	</g>
	<g>
		<defs>
			<rect id="SVGID_00000003825118757190274530000000880415982490046901_" width="195.6" height="280.6"/>
		</defs>
		<clipPath id="SVGID_00000088825278291371131940000007671084794569167748_">
			<use xlink:href="#SVGID_00000003825118757190274530000000880415982490046901_"  style="overflow:visible;"/>
		</clipPath>
		<path style="clip-path:url(#SVGID_00000088825278291371131940000007671084794569167748_);fill:#E00814;" d="M43.4,10.3L43.4,10.3
			c-0.2,0.1-0.2,0.1-0.2,0.2c0,0,0.2,76.6,0.2,79c0,27.9,24.5,50.4,54.6,50.4c28,0,51.1-19.5,54.2-44.6l0.2-84.8
			c0-0.1-0.1-0.3-0.2-0.3l0,0L43.4,10.3L43.4,10.3z"/>
	</g>
	<g>
		<defs>
			<rect id="SVGID_00000099648361938514443100000000688823960643465906_" width="195.6" height="280.6"/>
		</defs>
		<clipPath id="SVGID_00000109740807696703148680000002390139877974461329_">
			<use xlink:href="#SVGID_00000099648361938514443100000000688823960643465906_"  style="overflow:visible;"/>
		</clipPath>
		
			<path style="clip-path:url(#SVGID_00000109740807696703148680000002390139877974461329_);fill:#FFFFFF;stroke:#333333;stroke-width:1.06;stroke-linecap:round;stroke-linejoin:round;" d="
			M91.4,60c1.8,1.6,2.9,3.9,3.1,6.3v7h-7.1c-2.7,0.1-4.6-1.3-6.3-3.1v12.5c1.4-2,3.8-3.2,6.3-3.1h7.1v7.1c0.1,2.7-1.3,4.6-3.1,6.3
			h12.4c-2-1.4-3.2-3.8-3.1-6.3v-7.1h7c2.5,0.2,4.8,1.3,6.4,3.1V70.3c-1.6,1.8-3.9,2.9-6.3,3.1h-7v-7c0.2-2.5,1.3-4.8,3.1-6.4H91.4z
			 M91.4,96.1c1.8,1.6,2.9,3.9,3.1,6.3v7h-7.1c-2.7,0.1-4.6-1.3-6.3-3.1v12.4c1.4-2.1,3.8-3.2,6.3-3.1h7.1v7.1
			c0.1,2.7-1.3,4.6-3.1,6.3h12.4c-2-1.4-3.2-3.8-3.1-6.3v-7.1h7c2.5,0.2,4.8,1.3,6.4,3.1v-12.3c-1.6,1.8-3.9,2.9-6.3,3.1h-7v-7
			c0.2-2.5,1.3-4.7,3.1-6.4C103.9,96.1,91.4,96.1,91.4,96.1z"/>
	</g>
	<g>
		<defs>
			<rect id="SVGID_00000170238901332417271090000003970412078240410806_" width="195.6" height="280.6"/>
		</defs>
		<clipPath id="SVGID_00000148637283021481601650000002482328728440574108_">
			<use xlink:href="#SVGID_00000170238901332417271090000003970412078240410806_"  style="overflow:visible;"/>
		</clipPath>
		
			<path style="clip-path:url(#SVGID_00000148637283021481601650000002482328728440574108_);fill:none;stroke:#424242;stroke-width:1.87;stroke-miterlimit:5.63;" d="
			M126.6,29.8c-1.6,0.4-3.7,0-4.5-1.2c0.3-0.5,1-0.6,1.5-0.8c-1.1-0.1-2.4-0.6-2.4-1.5c0.3-1.4,1.2-1.3,2.4-1.1
			c-0.3-0.5-0.3-1-0.1-1.5c1.2-0.3,2.5-0.1,3.7,0.5c-0.4-2.1-0.3-3.9,0.9-5.2c0.8,0.2,1.5,0.5,1.6,1.3c-0.1-1.1,0.3-2.1,1-2.9
			c0.5,0.5,0.9,1.1,1,1.8l-1.2,3 M65.6,29.5l0.7,0.2c1.6,0.4,3.5,0.1,4.3-1.1c-0.3-0.5-1.1-0.6-1.7-0.8c1.1-0.1,2.6-0.6,2.5-1.5
			c-0.2-1.4-1.3-1.4-2.4-1.1c0.3-0.5,0.3-1.1,0-1.7c-1.2-0.3-2.5-0.1-3.7,0.5c0.4-2.1,0.3-3.9-0.9-5.2c-0.8,0.1-1.4,0.7-1.7,1.4
			c0.1-1-0.2-2.1-0.9-2.8c-0.5,0.5-0.9,1.1-1,1.8l1.2,3.5"/>
	</g>
	<g>
		<defs>
			<rect id="SVGID_00000026132990122388982500000014006811605880539528_" width="195.6" height="280.6"/>
		</defs>
		<clipPath id="SVGID_00000132793893603419263750000005059015366601080468_">
			<use xlink:href="#SVGID_00000026132990122388982500000014006811605880539528_"  style="overflow:visible;"/>
		</clipPath>
		
			<path style="clip-path:url(#SVGID_00000132793893603419263750000005059015366601080468_);fill-rule:evenodd;clip-rule:evenodd;fill:#FFE407;" d="
			M60.8,19.2l1.1,3.1l3.9,7.4c1.5,0.2,3.1,0.6,4.6-1c0-0.6-0.8-0.7-1.5-0.9c1.3-0.1,2.5-0.5,2.4-1.5c-0.2-1-1.2-1.2-2.5-0.9
			c0.3-0.5,0.3-1.1,0.1-1.6c-2.1-0.2-3.1,0-3.7,0.7c0.4-2.4,0.2-4.3-0.8-5.3c-0.8,0-1.2,0.6-1.6,1.2c0.1-1-0.2-2-0.9-2.7
			C61.3,17.9,60.9,18.5,60.8,19.2L60.8,19.2z"/>
	</g>
	<g>
		<defs>
			<rect id="SVGID_00000147185819456405163200000001696531559265789868_" width="195.6" height="280.6"/>
		</defs>
		<clipPath id="SVGID_00000150798275809932072810000010664951121875484586_">
			<use xlink:href="#SVGID_00000147185819456405163200000001696531559265789868_"  style="overflow:visible;"/>
		</clipPath>
		
			<path style="clip-path:url(#SVGID_00000150798275809932072810000010664951121875484586_);fill:none;stroke:#424242;stroke-miterlimit:5.63;" d="
			M131.7,19.2c-0.1-0.7-0.5-1.4-1-1.8c-0.7,0.7-1.1,1.7-1,2.7c-0.1-0.8-0.7-1.1-1.6-1.3c-1.2,1.3-1.4,3-1,5.2
			c-1.1-0.6-2.4-0.7-3.6-0.4c-0.3,0.5-0.3,1.1,0,1.7c-1.1-0.3-2.1-0.3-2.4,1.1c-0.1,0.9,0.9,1.4,2,1.5c-0.5,0.1-0.9,0.3-1.2,0.8
			c0.8,1.2,2.7,1.5,4.3,1.1"/>
	</g>
	<g>
		<defs>
			<rect id="SVGID_00000156588142778680345570000011044756572008737459_" width="195.6" height="280.6"/>
		</defs>
		<clipPath id="SVGID_00000132790001900395564370000016926922871025257638_">
			<use xlink:href="#SVGID_00000156588142778680345570000011044756572008737459_"  style="overflow:visible;"/>
		</clipPath>
		
			<path style="clip-path:url(#SVGID_00000132790001900395564370000016926922871025257638_);fill-rule:evenodd;clip-rule:evenodd;fill:#FFE407;" d="
			M131.8,19.4l-1.1,3.1l-3.9,7.4c-1.5,0.2-3.1,0.6-4.6-1c0.1-0.6,0.8-0.6,1.5-0.9c-1.3-0.1-2.5-0.5-2.4-1.5s1.2-1.2,2.5-0.9
			c-0.3-0.5-0.3-1.1-0.1-1.6c2.1-0.2,3.1,0,3.7,0.7c-0.4-2.4-0.2-4.3,0.8-5.3c0.9,0,1.2,0.6,1.6,1.2c-0.1-1,0.2-2,0.9-2.7
			C131.3,18,131.7,18.7,131.8,19.4L131.8,19.4z"/>
	</g>
	<g>
		<defs>
			<rect id="SVGID_00000049919662361871656760000006691399310897860481_" width="195.6" height="280.6"/>
		</defs>
		<clipPath id="SVGID_00000137120230854973310330000013813590554882616996_">
			<use xlink:href="#SVGID_00000049919662361871656760000006691399310897860481_"  style="overflow:visible;"/>
		</clipPath>
		
			<path style="clip-path:url(#SVGID_00000137120230854973310330000013813590554882616996_);fill:none;stroke:#424242;stroke-width:1.87;stroke-miterlimit:5.63;" d="
			M96.2,29.2c-2.1,0.6-4.4,0.9-6.6,0.8c0-0.8,0.3-1.6,0.8-2.2c-1.4-0.1-2.2,0-2.5-1.1c0.2-0.9,0.8-1.3,2.4-1.3
			c-0.6-0.5-0.9-1.2-0.9-1.9c1.5-0.2,2.9-0.1,4.4,0.3c-0.7-1.9-0.5-3.9-0.5-5.8c0.8-0.4,1.2,0.3,1.8,0.6c0-2,0.5-3,1.3-3.3
			c0.8,0.3,1.3,1.2,1.3,3.3c0.6-0.3,0.9-1.1,1.8-0.6c0,1.9,0.2,3.8-0.5,5.8c1.4-0.4,2.9-0.5,4.3-0.3c0,0.7-0.3,1.4-0.9,1.9
			c1.6,0,2.2,0.4,2.4,1.3c-0.3,1.1-1.1,1.1-2.5,1.1c0.5,0.6,0.8,1.4,0.8,2.2C100.8,30.1,98.5,29.8,96.2,29.2z"/>
	</g>
	<g>
		<defs>
			<rect id="SVGID_00000085238297734031634260000002910217982445406596_" width="195.6" height="280.6"/>
		</defs>
		<clipPath id="SVGID_00000109709983997894852480000015912426437495403696_">
			<use xlink:href="#SVGID_00000085238297734031634260000002910217982445406596_"  style="overflow:visible;"/>
		</clipPath>
		
			<path style="clip-path:url(#SVGID_00000109709983997894852480000015912426437495403696_);fill-rule:evenodd;clip-rule:evenodd;fill:#FEE308;" d="
			M96.2,29.1c-2.1,0.6-4.2,0.8-6.3,0.8c0-0.8,0.2-1.6,0.8-2.1c-1.3-0.1-2.1,0-2.4-1.1c0.2-0.9,0.8-1.3,2.3-1.3
			c-0.5-0.5-0.8-1.1-0.9-1.8c1.4-0.2,2.8-0.1,4.2,0.3c-0.7-1.9-0.5-3.7-0.5-5.6c0.8-0.4,1.2,0.3,1.7,0.6c0-2,0.4-2.9,1.2-3.2
			c0.8,0.3,1.2,1.2,1.2,3.2c0.5-0.3,0.9-1.1,1.7-0.6c0,1.9,0.2,3.7-0.5,5.6c1.4-0.4,2.8-0.5,4.2-0.3c0,0.7-0.3,1.4-0.8,1.8
			c1.5,0,2.1,0.4,2.2,1.3c-0.2,1.1-1,1-2.4,1.1c0.5,0.6,0.8,1.4,0.8,2.1C100.6,30,98.4,29.7,96.2,29.1z"/>
	</g>
	<g>
		<defs>
			<rect id="SVGID_00000087386627755561820260000018073521464350380169_" width="195.6" height="280.6"/>
		</defs>
		<clipPath id="SVGID_00000144327215859036059200000017826452247466310308_">
			<use xlink:href="#SVGID_00000087386627755561820260000018073521464350380169_"  style="overflow:visible;"/>
		</clipPath>
		
			<path style="clip-path:url(#SVGID_00000144327215859036059200000017826452247466310308_);fill:none;stroke:#424242;stroke-width:1.4;" d="
			M78.7,32.4c-2,0.6-4.1,0.8-6.3,0.8c0-0.8,0.3-1.5,0.8-2.1c-1.3-0.1-2.1,0-2.3-1.1c0.2-0.9,0.8-1.3,2.2-1.3
			c-0.5-0.5-0.8-1.1-0.8-1.8c1.4-0.2,2.8-0.1,4.1,0.3c-0.7-1.8-0.5-3.7-0.5-5.5c0.8-0.4,1.2,0.3,1.7,0.6c0-1.9,0.4-2.8,1.2-3.1
			c0.8,0.3,1.2,1.2,1.2,3.1c0.5-0.3,0.9-1,1.7-0.6c0,1.8,0.2,3.7-0.5,5.5c1.3-0.4,2.7-0.5,4.1-0.3c0,0.7-0.3,1.4-0.8,1.8
			c1.5,0,2,0.4,2.2,1.3c-0.2,1.1-1,1-2.4,1.1c0.5,0.6,0.8,1.3,0.8,2.1C83,33.3,80.8,33,78.7,32.4z"/>
	</g>
	<g>
		<defs>
			<rect id="SVGID_00000163790832601398784470000015683183117996160684_" width="195.6" height="280.6"/>
		</defs>
		<clipPath id="SVGID_00000103970029986141124950000007317449641131394196_">
			<use xlink:href="#SVGID_00000163790832601398784470000015683183117996160684_"  style="overflow:visible;"/>
		</clipPath>
		
			<path style="clip-path:url(#SVGID_00000103970029986141124950000007317449641131394196_);fill-rule:evenodd;clip-rule:evenodd;fill:#FEE308;" d="
			M78.7,32.3c-2,0.5-4,0.8-6,0.8c0-0.8,0.2-1.5,0.7-2c-1.3-0.1-2,0-2.3-1c0.2-0.8,0.7-1.2,2.1-1.2c-0.5-0.5-0.8-1.1-0.8-1.8
			c1.3-0.2,2.7-0.1,4,0.3c-0.7-1.8-0.4-3.5-0.4-5.3c0.8-0.4,1.1,0.3,1.6,0.6c0-1.9,0.4-2.7,1.2-3c0.7,0.3,1.2,1.1,1.2,3
			c0.5-0.3,0.8-1,1.6-0.6c0,1.8,0.2,3.5-0.4,5.3c1.3-0.4,2.7-0.5,4-0.3c0,0.7-0.3,1.3-0.8,1.8c1.4,0,2,0.4,2.1,1.2c-0.2,1-1,1-2.2,1
			c0.5,0.6,0.7,1.4,0.7,2.1C82.9,33.2,80.8,32.9,78.7,32.3L78.7,32.3z"/>
	</g>
	<g>
		<defs>
			<rect id="SVGID_00000038386288995275386660000000905562563219006392_" width="195.6" height="280.6"/>
		</defs>
		<clipPath id="SVGID_00000095331359758654672410000003570130149178525339_">
			<use xlink:href="#SVGID_00000038386288995275386660000000905562563219006392_"  style="overflow:visible;"/>
		</clipPath>
		
			<path style="clip-path:url(#SVGID_00000095331359758654672410000003570130149178525339_);fill:none;stroke:#424242;stroke-width:1.4;" d="
			M113.4,32.4c-2,0.6-4.1,0.8-6.2,0.8c0-0.8,0.2-1.5,0.8-2.1c-1.3-0.1-2.1,0-2.4-1.1c0.2-0.9,0.8-1.3,2.2-1.3
			c-0.5-0.5-0.8-1.1-0.8-1.8c1.4-0.2,2.8-0.1,4.1,0.3c-0.7-1.8-0.5-3.7-0.5-5.5c0.8-0.4,1.2,0.3,1.7,0.6c0-1.9,0.4-2.8,1.2-3.1
			c0.8,0.3,1.2,1.2,1.2,3.1c0.5-0.3,0.9-1,1.7-0.6c0,1.8,0.2,3.7-0.5,5.5c1.3-0.4,2.7-0.5,4.1-0.3c0,0.7-0.3,1.4-0.8,1.8
			c1.5,0,2,0.4,2.2,1.3c-0.2,1.1-1,1-2.3,1.1c0.5,0.6,0.8,1.3,0.8,2.1C117.8,33.3,115.6,33,113.4,32.4z"/>
	</g>
	<g>
		<defs>
			<rect id="SVGID_00000003099942383583252510000001256392290063273881_" width="195.6" height="280.6"/>
		</defs>
		<clipPath id="SVGID_00000163062164650616697580000004195508600338041256_">
			<use xlink:href="#SVGID_00000003099942383583252510000001256392290063273881_"  style="overflow:visible;"/>
		</clipPath>
		
			<path style="clip-path:url(#SVGID_00000163062164650616697580000004195508600338041256_);fill-rule:evenodd;clip-rule:evenodd;fill:#FEE308;" d="
			M113.4,32.3c-2,0.5-4,0.8-6,0.8c0-0.8,0.2-1.5,0.7-2c-1.3-0.1-2,0-2.3-1c0.2-0.8,0.7-1.2,2.2-1.2c-0.5-0.4-0.8-1.1-0.8-1.8
			c1.3-0.2,2.7-0.1,4,0.3c-0.7-1.8-0.4-3.5-0.4-5.3c0.8-0.4,1.1,0.3,1.6,0.6c0-1.9,0.4-2.7,1.2-3c0.7,0.3,1.2,1.1,1.2,3
			c0.5-0.3,0.9-1,1.6-0.6c0,1.8,0.2,3.5-0.4,5.3c1.3-0.4,2.7-0.5,4-0.3c0,0.7-0.3,1.3-0.8,1.8c1.4,0,2,0.4,2.1,1.2c-0.2,1-1,1-2.3,1
			c0.5,0.6,0.8,1.3,0.7,2C117.7,33.2,115.6,32.9,113.4,32.3L113.4,32.3z"/>
	</g>
	<g>
		<defs>
			<rect id="SVGID_00000083798833631838367150000008761865340206612130_" width="195.6" height="280.6"/>
		</defs>
		<clipPath id="SVGID_00000113320909339300151580000012102597005427315898_">
			<use xlink:href="#SVGID_00000083798833631838367150000008761865340206612130_"  style="overflow:visible;"/>
		</clipPath>
		
			<path style="clip-path:url(#SVGID_00000113320909339300151580000012102597005427315898_);fill-rule:evenodd;clip-rule:evenodd;fill:#FFE209;stroke:#424242;stroke-width:0.75;stroke-miterlimit:5.63;" d="
			M96.1,21.1c-0.4,1-0.2,5.2-3.6,5.5c0.8,0.5,1.6,1,2.3,1.6c0.4,1,0.4,2.1-0.1,3c-3.5,6.2-11.3,5.2-14.6,1.4c0.7-1,1.5-1.9,2.5-2.5
			c-2.1-0.8-2.9-3.4-3.5-5c-0.6,1.8-1.1,4.1-3.6,4.9c1,0.6,1.8,1.5,2.3,2.5c-1.8,1.7-4.3,4.2-7,3.9c-4.1,0-7.1-6.7-3.3-9.6
			c-3.5-0.6-4.2-2.9-5.7-4.7L70.3,51c17.2-2.9,34.8-2.9,52,0l8.4-28.9c-1.5,1.8-2.2,4.1-5.7,4.7c3.8,2.9,0.8,9.6-3.2,9.6
			c-2.7,0.2-5.2-2.2-7-3.9c0.6-1,1.4-1.8,2.3-2.5c-2.4-0.9-2.9-3.2-3.6-4.9c-0.6,1.7-1.5,4.3-3.5,5c1,0.7,1.8,1.5,2.5,2.5
			c-3.3,3.8-11.1,4.8-14.6-1.4c-0.5-0.9-0.5-2-0.1-3c0.7-0.6,1.5-1.1,2.3-1.6C96.8,26.2,96.9,22,96.1,21.1L96.1,21.1z"/>
	</g>
	<g>
		<defs>
			<rect id="SVGID_00000080167473951006890290000013974088365416296359_" width="195.6" height="280.6"/>
		</defs>
		<clipPath id="SVGID_00000123425733469916600270000008765882378413426057_">
			<use xlink:href="#SVGID_00000080167473951006890290000013974088365416296359_"  style="overflow:visible;"/>
		</clipPath>
		
			<path style="clip-path:url(#SVGID_00000123425733469916600270000008765882378413426057_);fill:none;stroke:#424242;stroke-width:1.26;stroke-linecap:round;stroke-linejoin:round;" d="
			M79.1,42.1l5-0.4c1.2-0.1,2.3,0.8,2.5,2l0,0c0.2,1.1-0.6,2.2-1.8,2.4h-0.1l-5,0.4c-1.2,0.1-2.3-0.8-2.5-2l0,0
			C77,43.3,77.8,42.3,79.1,42.1C79,42.1,79,42.1,79.1,42.1z"/>
	</g>
	<g>
		<defs>
			<rect id="SVGID_00000143594768298132404320000004109403194290740405_" width="195.6" height="280.6"/>
		</defs>
		<clipPath id="SVGID_00000150096092897451546830000011159600186124647561_">
			<use xlink:href="#SVGID_00000143594768298132404320000004109403194290740405_"  style="overflow:visible;"/>
		</clipPath>
		
			<path style="clip-path:url(#SVGID_00000150096092897451546830000011159600186124647561_);fill:none;stroke:#424242;stroke-width:1.26;stroke-linecap:round;stroke-linejoin:round;" d="
			M114.2,42.2l-5-0.4c-1.2-0.1-2.3,0.8-2.5,2l0,0c-0.2,1.1,0.6,2.2,1.8,2.4h0.1l5,0.4c1.2,0.1,2.3-0.8,2.5-2l0,0
			C116.3,43.5,115.5,42.4,114.2,42.2C114.3,42.2,114.2,42.2,114.2,42.2z"/>
	</g>
	<g>
		<defs>
			<rect id="SVGID_00000084501409000953049170000014795699679054572685_" width="195.6" height="280.6"/>
		</defs>
		<clipPath id="SVGID_00000119803224394083200970000010677580415672196789_">
			<use xlink:href="#SVGID_00000084501409000953049170000014795699679054572685_"  style="overflow:visible;"/>
		</clipPath>
		
			<path style="clip-path:url(#SVGID_00000119803224394083200970000010677580415672196789_);fill:none;stroke:#424242;stroke-width:0.75;stroke-miterlimit:5.63;" d="
			M91.5,43.6l4.8-2.8l4.8,2.8l-5,2.7L91.5,43.6L91.5,43.6z M68.3,43l4.6,2.2L70,48.6 M124.3,43l-4.6,2.2l2.8,3.4"/>
	</g>
	<g>
		<defs>
			<rect id="SVGID_00000014595917276908145070000015501609719131084975_" width="195.6" height="280.6"/>
		</defs>
		<clipPath id="SVGID_00000030487646967031702460000017810952820504972718_">
			<use xlink:href="#SVGID_00000014595917276908145070000015501609719131084975_"  style="overflow:visible;"/>
		</clipPath>
		
			<path style="clip-path:url(#SVGID_00000030487646967031702460000017810952820504972718_);fill-rule:evenodd;clip-rule:evenodd;fill:#FFE209;stroke:#424242;stroke-width:0.75;stroke-miterlimit:5.63;" d="
			M121.7,50.8C105,56,87.1,56,70.3,50.9C87.3,48.1,104.7,48.1,121.7,50.8z"/>
	</g>
	<g>
		<defs>
			<rect id="SVGID_00000049208450030089195130000006608315656687868862_" width="195.6" height="280.6"/>
		</defs>
		<clipPath id="SVGID_00000088105251336853502030000003982589981892908991_">
			<use xlink:href="#SVGID_00000049208450030089195130000006608315656687868862_"  style="overflow:visible;"/>
		</clipPath>
		
			<path style="clip-path:url(#SVGID_00000088105251336853502030000003982589981892908991_);fill:none;stroke:#424242;stroke-width:0.75;stroke-miterlimit:5.63;" d="
			M69.9,49.1c17.3-2.8,35-2.8,52.3,0 M67.8,41.5c18.9-2.8,38-2.8,56.9,0"/>
	</g>
	<g>
		<defs>
			<rect id="SVGID_00000124142839562550074290000002852547114012734609_" width="195.6" height="280.6"/>
		</defs>
		<clipPath id="SVGID_00000127017187954129459600000009518846312538703796_">
			<use xlink:href="#SVGID_00000124142839562550074290000002852547114012734609_"  style="overflow:visible;"/>
		</clipPath>
		
			<path style="clip-path:url(#SVGID_00000127017187954129459600000009518846312538703796_);fill:none;stroke:#424242;stroke-width:0.75;stroke-miterlimit:5.63;" d="
			M67.3,39.8c19.2-2.8,38.8-2.9,58-0.1"/>
	</g>
	<g>
		<defs>
			<rect id="SVGID_00000049196966521824752410000003314912268178874552_" width="195.6" height="280.6"/>
		</defs>
		<clipPath id="SVGID_00000170267192372600484420000005676727998550280612_">
			<use xlink:href="#SVGID_00000049196966521824752410000003314912268178874552_"  style="overflow:visible;"/>
		</clipPath>
		
			<path style="clip-path:url(#SVGID_00000170267192372600484420000005676727998550280612_);fill:none;stroke:#424242;stroke-width:0.75;stroke-miterlimit:5.63;" d="
			M65.3,25.9c-1.2,1.8-2,11,5.3,12.2c3.2,0.1,6.3-1.5,8-4.3c2,2.4,5,3.7,8.2,3.5c4.5-0.1,7.8-2.1,9.3-5.7c1.5,3.5,4.8,5.5,9.3,5.7
			c3.1,0.2,6.1-1.1,8.2-3.5c1.7,2.8,4.8,4.4,8,4.3c7.8-1.5,6.5-9.8,5.3-12.2"/>
	</g>
	<g>
		<defs>
			<rect id="SVGID_00000042007965869436639890000012611433446605885081_" width="195.6" height="280.6"/>
		</defs>
		<clipPath id="SVGID_00000139279282519450417580000008197849646121024133_">
			<use xlink:href="#SVGID_00000042007965869436639890000012611433446605885081_"  style="overflow:visible;"/>
		</clipPath>
		
			<path style="clip-path:url(#SVGID_00000139279282519450417580000008197849646121024133_);fill:none;stroke:#424242;stroke-width:0.72;stroke-linecap:round;stroke-linejoin:round;" d="
			M98,26.6c0,0.9-0.7,1.6-1.6,1.6s-1.6-0.8-1.5-1.6c0-0.9,0.8-1.6,1.6-1.5C97.3,25,98,25.7,98,26.6"/>
	</g>
	<g>
		<defs>
			<rect id="SVGID_00000011011404467664871950000013620018856095458693_" width="195.6" height="280.6"/>
		</defs>
		<clipPath id="SVGID_00000020365479687927953180000016024361199095403942_">
			<use xlink:href="#SVGID_00000011011404467664871950000013620018856095458693_"  style="overflow:visible;"/>
		</clipPath>
		
			<path style="clip-path:url(#SVGID_00000020365479687927953180000016024361199095403942_);fill:none;stroke:#424242;stroke-width:0.72;stroke-linecap:round;stroke-linejoin:round;" d="
			M115.1,30c0,0.9-0.7,1.6-1.6,1.7c-0.9,0-1.6-0.7-1.7-1.6c0-0.9,0.7-1.6,1.6-1.7l0,0C114.4,28.4,115.1,29.1,115.1,30"/>
	</g>
	<g>
		<defs>
			<rect id="SVGID_00000040554362969469533680000010329178317195449789_" width="195.6" height="280.6"/>
		</defs>
		<clipPath id="SVGID_00000091719963042735286550000008289196940748238982_">
			<use xlink:href="#SVGID_00000040554362969469533680000010329178317195449789_"  style="overflow:visible;"/>
		</clipPath>
		
			<path style="clip-path:url(#SVGID_00000091719963042735286550000008289196940748238982_);fill:none;stroke:#424242;stroke-width:0.72;stroke-linecap:round;stroke-linejoin:round;" d="
			M80.7,30c0,0.9-0.7,1.6-1.6,1.7c-0.9,0-1.6-0.7-1.7-1.6c0-0.9,0.7-1.6,1.6-1.7l0,0C79.9,28.4,80.7,29.1,80.7,30L80.7,30"/>
	</g>
	<g>
		<defs>
			<rect id="SVGID_00000135668505990402437600000016007903061540494769_" width="195.6" height="280.6"/>
		</defs>
		<clipPath id="SVGID_00000123431705320946229240000009281456533014574782_">
			<use xlink:href="#SVGID_00000135668505990402437600000016007903061540494769_"  style="overflow:visible;"/>
		</clipPath>
		<path style="clip-path:url(#SVGID_00000123431705320946229240000009281456533014574782_);fill:#FFFFFF;" d="M80,99.6
			c-12.6,0-22.9,10.2-22.9,30.5c0,25.4,18.2,50.9,40.7,50.9s40.7-25.4,40.7-50.9c0-20.3-10.2-30.5-22.9-30.5
			c-6.9,0-13.5,3.1-17.8,8.5C93.5,102.8,86.9,99.6,80,99.6z"/>
	</g>
	<g>
		<defs>
			<rect id="SVGID_00000104682752309079472420000001055424843741916307_" width="195.6" height="280.6"/>
		</defs>
		<clipPath id="SVGID_00000124142750172146168370000004182507741334840480_">
			<use xlink:href="#SVGID_00000104682752309079472420000001055424843741916307_"  style="overflow:visible;"/>
		</clipPath>
		<path style="clip-path:url(#SVGID_00000124142750172146168370000004182507741334840480_);fill:#FFFFFF;" d="M30.4,112.8h134.7
			c3,0,5.5,2.4,5.5,5.5v44c0,3-2.4,5.5-5.5,5.5H30.4c-3,0-5.5-2.4-5.5-5.5v-44C25,115.3,27.4,112.8,30.4,112.8z"/>
	</g>
	<g>
		<defs>
			<rect id="SVGID_00000165220534259286797320000018360294969835576495_" width="195.6" height="280.6"/>
		</defs>
		<clipPath id="SVGID_00000053516664691606393760000006196347481327198137_">
			<use xlink:href="#SVGID_00000165220534259286797320000018360294969835576495_"  style="overflow:visible;"/>
		</clipPath>
	</g>
	<g>
		<defs>
			<rect id="SVGID_00000071549582017064413750000008377816771339174832_" width="195.6" height="280.6"/>
		</defs>
		<clipPath id="SVGID_00000003092400782564239960000012005273120010402433_">
			<use xlink:href="#SVGID_00000071549582017064413750000008377816771339174832_"  style="overflow:visible;"/>
		</clipPath>
	</g>
	<g>
		<defs>
			<rect id="SVGID_00000181073054129416890080000015105945266720133297_" width="195.6" height="280.6"/>
		</defs>
		<clipPath id="SVGID_00000010300712265614679740000012241380564916514443_">
			<use xlink:href="#SVGID_00000181073054129416890080000015105945266720133297_"  style="overflow:visible;"/>
		</clipPath>
		<path style="clip-path:url(#SVGID_00000010300712265614679740000012241380564916514443_);fill:#FFFFFF;" d="M44.8,0h-29h-16v16
			c0,7,0,14,0,21c10.3,12.4,28.6,14.1,41,3.8c6.7-5.6,10.6-13.8,10.5-22.5C51.3,11.6,49,5.2,44.8,0z"/>
	</g>
	<g>
		<defs>
			<rect id="SVGID_00000057866779768238486310000008971462057092758419_" width="195.6" height="280.6"/>
		</defs>
		<clipPath id="SVGID_00000166647155602934968160000013303146286673875641_">
			<use xlink:href="#SVGID_00000057866779768238486310000008971462057092758419_"  style="overflow:visible;"/>
		</clipPath>
	</g>
</g>
<g class="st38">
	<path class="st39" d="M72.7,126.4h-5.1v-1.8c0-1.1,0-1.8-0.1-2.1s-0.3-0.4-0.7-0.4c-0.3,0-0.5,0.1-0.6,0.4
		c-0.1,0.2-0.2,0.9-0.2,1.9v9.4c0,0.9,0.1,1.5,0.2,1.7s0.3,0.4,0.7,0.4c0.4,0,0.6-0.2,0.8-0.5c0.1-0.3,0.2-0.9,0.2-1.8v-2.3h-1v-3h6
		v10.5h-3.2l-0.5-1.4c-0.3,0.6-0.8,1.1-1.3,1.4c-0.5,0.3-1.2,0.5-1.9,0.5c-0.9,0-1.7-0.2-2.4-0.6c-0.7-0.4-1.3-0.9-1.7-1.5
		c-0.4-0.6-0.6-1.3-0.7-1.9c-0.1-0.7-0.1-1.7-0.1-3v-5.8c0-1.9,0.1-3.2,0.3-4.1c0.2-0.8,0.8-1.6,1.7-2.3c1-0.7,2.2-1.1,3.7-1.1
		c1.5,0,2.7,0.3,3.7,0.9c1,0.6,1.6,1.3,1.9,2.2c0.3,0.8,0.4,2.1,0.4,3.7V126.4z"/>
	<path class="st39" d="M85.6,119.2v19.6h-4.9v-1.2c-0.5,0.5-1,0.8-1.5,1.1s-1.1,0.4-1.6,0.4c-0.8,0-1.4-0.2-2-0.6
		c-0.6-0.4-0.9-0.9-1.1-1.4s-0.2-1.4-0.2-2.6V127c0-1.2,0.1-2.1,0.2-2.6s0.5-1,1.1-1.4c0.6-0.4,1.2-0.6,2-0.6c0.6,0,1.2,0.1,1.7,0.3
		c0.5,0.2,1,0.5,1.4,1v-4.6H85.6z M80.8,126.8c0-0.6-0.1-1-0.2-1.2c-0.1-0.2-0.3-0.3-0.6-0.3c-0.3,0-0.5,0.1-0.6,0.3
		c-0.1,0.2-0.2,0.6-0.2,1.2v7.9c0,0.7,0,1.1,0.1,1.3c0.1,0.2,0.3,0.3,0.6,0.3c0.3,0,0.5-0.1,0.6-0.3c0.1-0.2,0.2-0.8,0.2-1.7V126.8z
		"/>
	<path class="st39" d="M91.8,129h-4.6v-1.1c0-1.2,0.1-2.2,0.4-2.9c0.3-0.7,0.9-1.3,1.7-1.8c0.9-0.5,2-0.8,3.4-0.8
		c1.7,0,2.9,0.3,3.7,0.9c0.8,0.6,1.3,1.3,1.5,2.2c0.2,0.9,0.3,2.6,0.3,5.3v8.1h-4.8v-1.4c-0.3,0.6-0.7,1-1.2,1.3
		c-0.5,0.3-1,0.4-1.7,0.4c-0.9,0-1.6-0.2-2.4-0.7c-0.7-0.5-1.1-1.5-1.1-3.2v-1.3c0-1.2,0.2-2,0.6-2.5c0.4-0.4,1.3-0.9,2.8-1.5
		c1.6-0.6,2.5-1.1,2.6-1.3s0.2-0.7,0.2-1.3c0-0.8-0.1-1.4-0.2-1.6c-0.1-0.3-0.3-0.4-0.6-0.4c-0.3,0-0.5,0.1-0.6,0.3
		c-0.1,0.2-0.1,0.8-0.1,1.7V129z M93.3,131.2c-0.8,0.6-1.2,1.1-1.4,1.4s-0.2,0.9-0.2,1.7c0,0.8,0.1,1.4,0.2,1.6
		c0.1,0.2,0.3,0.4,0.6,0.4c0.3,0,0.5-0.1,0.6-0.3s0.1-0.7,0.1-1.5V131.2z"/>
	<path class="st39" d="M104.8,122.8l-0.1,1.5c0.4-0.6,0.8-1,1.3-1.3s1.1-0.4,1.8-0.4c0.8,0,1.5,0.2,2.1,0.6c0.5,0.4,0.9,0.9,1,1.5
		c0.2,0.6,0.2,1.6,0.2,3v11.2h-4.9v-11.1c0-1.1,0-1.8-0.1-2s-0.3-0.4-0.6-0.4c-0.3,0-0.6,0.1-0.7,0.4c-0.1,0.3-0.1,1-0.1,2.2v10.8
		h-4.9v-16H104.8z M109,118.4l-4,3.3h-2.5l2.1-3.3H109z"/>
	<path class="st39" d="M122.8,127.9h-4.3V127c0-0.7,0-1.2-0.1-1.4c-0.1-0.2-0.3-0.3-0.6-0.3c-0.3,0-0.5,0.1-0.6,0.3
		c-0.1,0.2-0.2,0.5-0.2,0.8c0,0.5,0,0.9,0.1,1.1c0.1,0.2,0.3,0.5,0.6,0.8c0.3,0.3,1,0.7,2.1,1.2c1.4,0.7,2.4,1.3,2.8,2
		c0.4,0.6,0.7,1.5,0.7,2.7c0,1.3-0.2,2.3-0.5,3s-0.9,1.2-1.7,1.5s-1.8,0.5-2.9,0.5c-1.2,0-2.3-0.2-3.2-0.6c-0.9-0.4-1.5-0.9-1.8-1.6
		s-0.5-1.7-0.5-3v-0.8h4.3v1c0,0.9,0.1,1.4,0.2,1.7c0.1,0.3,0.3,0.4,0.6,0.4c0.3,0,0.6-0.1,0.7-0.3c0.1-0.2,0.2-0.5,0.2-1.1
		c0-0.8-0.1-1.2-0.3-1.4c-0.2-0.2-1.1-0.8-2.8-1.7c-1.4-0.8-2.3-1.5-2.6-2.2s-0.5-1.4-0.5-2.3c0-1.3,0.2-2.2,0.5-2.8
		c0.3-0.6,0.9-1.1,1.7-1.4c0.8-0.3,1.8-0.5,2.8-0.5c1.1,0,2,0.1,2.7,0.4c0.7,0.3,1.3,0.6,1.7,1.1c0.4,0.4,0.6,0.9,0.7,1.2
		c0.1,0.4,0.1,1,0.1,1.8V127.9z"/>
	<path class="st39" d="M135,122.8l-2,6.4l2.6,9.7h-4.7l-1.5-7l0,7h-4.9v-19.6h4.9l0,8.2l1.5-4.7H135z"/>
</g>
<g class="st38">
	<path class="st39" d="M71.6,148.2h-4.7v-1.5c0-0.7-0.1-1.1-0.2-1.3s-0.3-0.3-0.6-0.3c-0.3,0-0.5,0.1-0.7,0.4
		c-0.2,0.3-0.2,0.6-0.2,1.1c0,0.7,0.1,1.1,0.3,1.5c0.2,0.3,0.6,0.7,1.4,1.2c2.3,1.3,3.7,2.4,4.3,3.3c0.6,0.9,0.9,2.3,0.9,4.2
		c0,1.4-0.2,2.4-0.5,3.1s-1,1.2-1.9,1.7c-0.9,0.4-2,0.7-3.3,0.7c-1.4,0-2.5-0.3-3.5-0.8c-1-0.5-1.6-1.2-1.9-2
		c-0.3-0.8-0.4-1.9-0.4-3.4v-1.3h4.7v2.4c0,0.7,0.1,1.2,0.2,1.4c0.1,0.2,0.4,0.3,0.7,0.3c0.3,0,0.6-0.1,0.8-0.4
		c0.2-0.3,0.2-0.7,0.2-1.2c0-1.2-0.2-1.9-0.5-2.3c-0.3-0.4-1.1-0.9-2.4-1.8c-1.3-0.8-2.1-1.4-2.5-1.8c-0.4-0.4-0.8-0.9-1-1.6
		c-0.3-0.7-0.4-1.5-0.4-2.6c0-1.5,0.2-2.6,0.6-3.3s1-1.2,1.9-1.6c0.9-0.4,1.9-0.6,3.1-0.6c1.3,0,2.4,0.2,3.4,0.6s1.5,1,1.9,1.6
		c0.3,0.6,0.5,1.8,0.5,3.3V148.2z"/>
	<path class="st39" d="M78.6,142.3v19.6h-5v-19.6H78.6z"/>
	<path class="st39" d="M91.4,151.5v3.9c0,1.4-0.1,2.5-0.2,3.2c-0.1,0.7-0.5,1.3-0.9,1.9c-0.5,0.6-1.1,1-1.8,1.3
		c-0.7,0.3-1.6,0.4-2.6,0.4c-1.1,0-2-0.1-2.7-0.4c-0.8-0.2-1.3-0.6-1.7-1.1c-0.4-0.5-0.7-1.1-0.9-1.7c-0.2-0.7-0.3-1.7-0.3-3.1v-4.1
		c0-1.5,0.2-2.7,0.5-3.5c0.3-0.8,0.9-1.5,1.7-2c0.8-0.5,1.9-0.8,3.2-0.8c1.1,0,2,0.2,2.8,0.5c0.8,0.3,1.4,0.8,1.8,1.3
		s0.7,1.1,0.9,1.6C91.3,149.5,91.4,150.3,91.4,151.5z M86.5,150.3c0-0.8,0-1.3-0.1-1.6c-0.1-0.2-0.3-0.3-0.6-0.3
		c-0.3,0-0.5,0.1-0.6,0.3c-0.1,0.2-0.1,0.7-0.1,1.6v7.2c0,0.8,0,1.3,0.1,1.5c0.1,0.2,0.3,0.3,0.6,0.3c0.3,0,0.5-0.1,0.6-0.3
		s0.1-0.7,0.1-1.4V150.3z"/>
	<path class="st39" d="M97.9,145.8l-0.1,1.5c0.4-0.6,0.8-1,1.3-1.3c0.5-0.3,1.1-0.4,1.8-0.4c0.8,0,1.5,0.2,2.1,0.6
		c0.5,0.4,0.9,0.9,1,1.5c0.2,0.6,0.2,1.6,0.2,3v11.2h-4.9v-11.1c0-1.1,0-1.8-0.1-2c-0.1-0.2-0.3-0.4-0.6-0.4c-0.3,0-0.6,0.1-0.7,0.4
		c-0.1,0.3-0.1,1-0.1,2.2v10.8H93v-16H97.9z"/>
	<path class="st39" d="M111,142.3v2.6h-5v-2.6H111z M111,145.8v16h-5v-16H111z"/>
	<path class="st39" d="M117.5,145.8l-0.1,1.5c0.4-0.6,0.8-1.1,1.4-1.4s1.1-0.5,1.8-0.5c1.3,0,2.3,0.6,3.1,1.8
		c0.4-0.6,0.9-1.1,1.4-1.4c0.5-0.3,1.1-0.5,1.7-0.5c0.8,0,1.5,0.2,2.1,0.6c0.5,0.4,0.9,0.9,1,1.5c0.2,0.6,0.2,1.5,0.2,2.8v11.4h-4.7
		v-10.5c0-1.4,0-2.2-0.1-2.5s-0.3-0.5-0.6-0.5c-0.3,0-0.6,0.2-0.7,0.5s-0.2,1.2-0.2,2.6v10.5H119v-10.2c0-1.6,0-2.5-0.1-2.8
		c-0.1-0.3-0.3-0.5-0.6-0.5c-0.2,0-0.4,0.1-0.6,0.2c-0.2,0.2-0.2,0.4-0.3,0.6c0,0.2,0,0.7,0,1.5v11.1h-4.7v-16H117.5z"/>
</g>
<g class="st38">
	<path class="st39" d="M23.6,22.8c0.6,0.2,1,0.5,1.3,1c0.3,0.5,0.4,1.5,0.4,3.2c0,1.3-0.1,2.2-0.4,2.9s-0.8,1.2-1.5,1.6
		s-1.6,0.5-2.7,0.5c-1.2,0-2.2-0.2-2.9-0.6s-1.2-0.9-1.4-1.5S16,28.2,16,26.7v-1.2H20V28c0,0.7,0,1.1,0.1,1.3s0.3,0.3,0.5,0.3
		c0.3,0,0.5-0.1,0.6-0.4s0.1-0.8,0.1-1.8v-1.1c0-0.6-0.1-1-0.2-1.3s-0.3-0.5-0.6-0.6s-0.8-0.1-1.6-0.2V22c0.9,0,1.5,0,1.7-0.1
		s0.4-0.2,0.5-0.5s0.1-0.6,0.1-1.1v-0.9c0-0.6-0.1-0.9-0.2-1.1s-0.3-0.3-0.5-0.3c-0.3,0-0.5,0.1-0.6,0.3S20,18.9,20,19.5v1.3H16
		v-1.3c0-1.5,0.3-2.5,1-3.1s1.8-0.8,3.3-0.8c1.9,0,3.2,0.4,3.8,1.1s1,1.8,1,3.1c0,0.9-0.1,1.5-0.4,1.9S24.2,22.5,23.6,22.8z"/>
	<path class="st39" d="M34.2,22.8c0.6,0.2,1,0.5,1.3,1c0.3,0.5,0.4,1.5,0.4,3.2c0,1.3-0.1,2.2-0.4,2.9s-0.8,1.2-1.5,1.6
		s-1.6,0.5-2.7,0.5c-1.2,0-2.2-0.2-2.9-0.6s-1.2-0.9-1.4-1.5s-0.3-1.7-0.3-3.2v-1.2h3.9V28c0,0.7,0,1.1,0.1,1.3s0.3,0.3,0.5,0.3
		c0.3,0,0.5-0.1,0.6-0.4s0.1-0.8,0.1-1.8v-1.1c0-0.6-0.1-1-0.2-1.3s-0.3-0.5-0.6-0.6s-0.8-0.1-1.6-0.2V22c0.9,0,1.5,0,1.7-0.1
		s0.4-0.2,0.5-0.5s0.1-0.6,0.1-1.1v-0.9c0-0.6-0.1-0.9-0.2-1.1s-0.3-0.3-0.5-0.3c-0.3,0-0.5,0.1-0.6,0.3s-0.2,0.6-0.2,1.2v1.3h-3.9
		v-1.3c0-1.5,0.3-2.5,1-3.1s1.8-0.8,3.3-0.8c1.9,0,3.2,0.4,3.8,1.1s1,1.8,1,3.1c0,0.9-0.1,1.5-0.4,1.9S34.8,22.5,34.2,22.8z"/>
</g>
</svg>
