<?xml version="1.0" encoding="utf-8"?>
<!-- Generator: Adobe Illustrator 26.0.3, SVG Export Plug-In . SVG Version: 6.00 Build 0)  -->
<svg version="1.1" id="Слой_1" xmlns="http://www.w3.org/2000/svg" xmlns:xlink="http://www.w3.org/1999/xlink" x="0px" y="0px"
	 viewBox="0 0 195.6 280.6" style="enable-background:new 0 0 195.6 280.6;" xml:space="preserve">
<style type="text/css">
	.st0{clip-path:url(#SVGID_00000075123389459341738330000005804389321459834012_);fill:#FBB91C;}
	.st1{clip-path:url(#SVGID_00000075123389459341738330000005804389321459834012_);}
	.st2{clip-path:url(#SVGID_00000025435596009666837300000001659126296521542831_);}
	.st3{fill:#056B45;}
	.st4{fill:#EB5A53;}
	.st5{fill:#1A1A1A;}
	.st6{fill:#FFFFFF;}
	.st7{fill:#AF1739;}
	.st8{fill:#EB5775;}
	.st9{fill:#BADBE9;}
	.st10{fill:#8BB0CC;}
	.st11{fill:#F293A2;}
	.st12{fill:#595959;}
	.st13{fill:#797979;}
	.st14{fill:#3E3E3E;}
	.st15{fill:#E94539;}
	.st16{fill:#FBB91C;}
	.st17{clip-path:url(#SVGID_00000075123389459341738330000005804389321459834012_);enable-background:new    ;}
	.st18{font-family:'Impact';}
	.st19{font-size:63.44px;}
	.st20{clip-path:url(#SVGID_00000075123389459341738330000005804389321459834012_);fill:#056B45;}
	.st21{font-size:20px;}
</style>
<g>
	<defs>
		<rect id="SVGID_1_" x="0" y="0" width="195.6" height="280.6"/>
	</defs>
	<clipPath id="SVGID_00000160896657247578137540000009359141786721122716_">
		<use xlink:href="#SVGID_1_"  style="overflow:visible;"/>
	</clipPath>
	
		<rect x="-9.1" y="-6.9" style="clip-path:url(#SVGID_00000160896657247578137540000009359141786721122716_);fill:#FBB91C;" width="213.7" height="305.9"/>
	<g style="clip-path:url(#SVGID_00000160896657247578137540000009359141786721122716_);">
		<defs>
			<rect id="SVGID_00000137825897733010064460000015129901449590322328_" x="-5.8" y="-6.9" width="213.7" height="298.4"/>
		</defs>
		<clipPath id="SVGID_00000126317050060979788540000009191782693986229121_">
			<use xlink:href="#SVGID_00000137825897733010064460000015129901449590322328_"  style="overflow:visible;"/>
		</clipPath>
		<g style="clip-path:url(#SVGID_00000126317050060979788540000009191782693986229121_);">
			<path class="st3" d="M8.8,211.2c3.6,0,6.5-1.9,8.8-5.8c1.4-2.5,2.5-5.2,3.2-8c0.5-1.6,0.9-3.3,1.2-5.1c4.5,0.5,9,0.5,13.4,0
				c0.3,1.8,0.8,3.5,1.2,5.1c0.7,2.8,1.8,5.5,3.2,8c2.3,3.8,5.3,5.8,8.8,5.8s6.5-1.9,8.8-5.8c1.4-2.5,2.5-5.2,3.2-8
				c1.3-4.7,2.1-9.5,2.4-14.3c11.6-7.1,20.8-17.5,26.3-30c1.7,1.1,3.6,1.8,5.7,1.8c1.2,0,2.3-0.2,3.4-0.7c0.2-0.1,0.3-0.1,0.5-0.2
				c0.5,0.1,1,0.1,1.4,0.1c2,0,4-0.7,5.7-1.8c5.5,12.6,14.8,23.1,26.5,30.2c0.3,4.9,1.1,9.7,2.4,14.4c0.7,2.8,1.8,5.5,3.2,8
				c2.3,3.9,5.3,5.8,8.9,5.8s6.6-2,8.9-5.8c1.4-2.5,2.5-5.2,3.2-8c0.4-1.6,0.9-3.3,1.2-5.1c4.5,0.5,9.1,0.5,13.6,0
				c0.4,1.8,0.8,3.5,1.2,5.1c0.7,2.8,1.8,5.5,3.2,8c2.3,3.9,5.3,5.8,8.9,5.8s6.6-2,8.9-5.8c1.4-2.5,2.5-5.2,3.2-8
				c1.3-4.7,2.1-9.6,2.4-14.4c11.3-6.8,20.3-16.9,25.9-28.9c1.7,1.3,3.8,2,6,2.1c0.9,0,1.8-0.1,2.6-0.4c3.4-1,5.7-3.8,6.8-8.1
				c0.6-2.8,0.9-5.7,0.8-8.6c-0.2-6.3-1.2-12.6-3-18.7c-1.9-6.2-4.6-10.4-8.4-12.8c-0.4-0.3-0.9-0.5-1.3-0.8
				c-4.9-16.1-15.6-29.8-30.2-38.3c1-7.3-1.4-14.6-6.4-19.9c-4.8-4.9-11.8-7.7-20.9-8.3c-3.6-0.3-7-0.4-10.3-0.5
				c-2.3-0.1-4.4-0.2-6.6-0.3c-5.4-0.2-10.7-1-15.9-2.2L127,33.5l2.7,7.2c-3.9-0.9-6.9-1.8-7.2-1.9l-11.5-4l1.6,12.1
				c1.2,10.1,5.6,19.5,12.5,27c-10.7,8.7-18.4,20.4-22.2,33.7c-2.3,1.9-4.2,4.3-5.5,6.9c-1.3-2.2-2.9-4.2-4.9-5.8
				c-3.7-13.1-11.4-24.8-22-33.4c6.8-7.4,11.2-16.8,12.4-26.8l1.6-12.1l-11.4,4c-0.4,0.1-3.3,1-7.1,1.9l2.7-7.2l-13.7,3.3
				c-5.2,1.2-10.5,1.9-15.8,2.2c-2.2,0.1-4.3,0.2-6.5,0.3c-3.3,0.1-6.6,0.2-10.2,0.5c-9,0.7-16,3.4-20.8,8.3C-2.8,54-5.1,60-5,66.2
				c0,1.1,0.1,2.1,0.2,3.2c-14.4,8.5-25.1,22.1-29.9,38.1c-0.5,0.2-0.9,0.5-1.3,0.7c-3.8,2.4-6.5,6.6-8.4,12.8
				c-1.8,6-2.8,12.3-2.9,18.5c-0.1,2.9,0.1,5.8,0.8,8.6c1.1,4.3,3.4,7,6.8,8.1c0.8,0.3,1.7,0.4,2.6,0.4l0,0c2.1-0.1,4.2-0.8,5.9-2.1
				c5.5,11.9,14.5,21.8,25.6,28.6c0.3,4.8,1.1,9.7,2.4,14.3c0.7,2.8,1.8,5.5,3.2,8C2.2,209.3,5.2,211.2,8.8,211.2z"/>
			<path class="st4" d="M179.2,178.3c0-10.7,4.7-12.8,7.9-12.8s7.9,2.1,7.9,12.8s-3.6,25.8-7.9,25.8S179.2,189,179.2,178.3z"/>
			<path class="st5" d="M187.1,163.3c-2.6,0-5.2,1.2-6.9,3.2c-2,2.4-3.3,6.2-3.3,11.8c0,5.9,0.9,11.8,2.4,17.5
				c0.6,2.4,1.5,4.7,2.8,6.9c1.1,1.9,2.6,3.6,5,3.6s3.9-1.7,5-3.6c1.2-2.2,2.1-4.5,2.8-6.9c1.6-5.7,2.4-11.6,2.4-17.5
				c0-5.6-1.2-9.4-3.3-11.8C192.3,164.4,189.8,163.3,187.1,163.3L187.1,163.3z M187.1,167.7c1.4,0,2.7,0.5,3.5,1.6
				c1.1,1.3,2.2,4,2.2,9c-0.1,5.5-0.8,11-2.2,16.3c-0.5,2-1.3,4-2.3,5.8c-0.3,0.5-0.7,1-1.2,1.4c-0.5-0.4-0.9-0.9-1.2-1.4
				c-1-1.8-1.8-3.8-2.3-5.8c-1.4-5.3-2.2-10.8-2.2-16.3c0-5,1.1-7.6,2.2-9C184.5,168.3,185.8,167.7,187.1,167.7z"/>
			<path class="st4" d="M139.1,178.3c0-10.7,4.7-12.8,7.9-12.8s7.9,2.1,7.9,12.8s-3.6,25.8-7.9,25.8S139.1,188.9,139.1,178.3
				L139.1,178.3z"/>
			<path class="st5" d="M147,163.3c-2.6,0-5.2,1.2-6.9,3.2c-2,2.4-3.3,6.2-3.3,11.8c0,5.9,0.9,11.8,2.4,17.5
				c0.6,2.4,1.5,4.7,2.8,6.9c1.1,1.9,2.6,3.6,5,3.6s3.9-1.7,5-3.6c1.2-2.2,2.1-4.5,2.8-6.9c1.6-5.7,2.4-11.6,2.4-17.5
				c0-5.6-1.2-9.4-3.3-11.8C152.2,164.4,149.7,163.3,147,163.3L147,163.3z M147,167.7c1.4,0,2.7,0.6,3.5,1.6c1.1,1.3,2.2,4,2.2,9
				c-0.1,5.5-0.8,11-2.2,16.3c-0.5,2-1.3,4-2.3,5.8c-0.3,0.5-0.7,1-1.2,1.4c-0.5-0.4-0.9-0.9-1.2-1.4c-1-1.8-1.8-3.8-2.3-5.8
				c-1.4-5.3-2.2-10.8-2.2-16.3c0-5,1.1-7.6,2.2-9C144.3,168.3,145.6,167.7,147,167.7z"/>
			<path class="st4" d="M102,120.3c4.1-9.8,9.2-10,12.2-8.8s6.5,5,2.4,14.8s-13.2,22.5-17.2,20.8S97.9,130.2,102,120.3z"/>
			<path class="st5" d="M115.1,109.5c-2.4-1-5.2-0.9-7.6,0.3c-2.8,1.4-5.4,4.4-7.6,9.7c-2.2,5.5-3.7,11.2-4.5,17.1
				c-0.4,2.5-0.4,5-0.1,7.4c0.3,2.2,1,4.3,3.2,5.2s4.2-0.1,6-1.4c2-1.5,3.7-3.3,5.2-5.3c3.6-4.7,6.6-9.8,8.9-15.2
				c2.2-5.2,2.5-9.2,1.5-12.2C119.4,112.5,117.5,110.5,115.1,109.5z M113.4,113.6c1.3,0.5,2.2,1.5,2.6,2.8c0.5,1.7,0.5,4.5-1.4,9.1
				c-2.2,5.1-5,9.8-8.3,14.2c-1.3,1.7-2.7,3.2-4.3,4.5c-0.5,0.4-1,0.7-1.6,0.9c-0.3-0.5-0.5-1.1-0.6-1.8c-0.2-2.1-0.2-4.2,0.1-6.3
				c0.7-5.5,2.1-10.8,4.2-15.9c1.9-4.6,3.9-6.6,5.5-7.4C110.7,113.1,112.2,113,113.4,113.6z"/>
			<path class="st5" d="M167.1,63.4c-34.3,0-62.2,27.8-62.2,62.2s27.8,62.2,62.2,62.2s62.2-27.8,62.2-62.2
				C229.2,91.2,201.4,63.4,167.1,63.4z M167.1,70.5c30.4,0,55.1,24.6,55.1,55.1c0,30.4-24.6,55.1-55.1,55.1S112,156,112,125.6
				c0,0,0,0,0,0c0-30.4,24.5-55,54.9-55.1C167,70.5,167,70.5,167.1,70.5L167.1,70.5z"/>
			<path class="st4" d="M224.8,124.2c0,2.4-0.3,30.8-16.8,38.8c-11.8,5.7-18.3-5.4-42.1-5.1c-22.4,0.3-28.2,10.3-39.2,5.1
				c-16.6-7.8-16.8-36.4-16.8-38.8c0-3.3,0.4-29.9,16.8-38.8c9.7-5.2,14.8,1.2,38.8,1.5c26.2,0.3,32-7.3,42.6-1.5
				C224.4,94.5,224.8,120.8,224.8,124.2z"/>
			<path class="st6" d="M167.7,68c-25.1,0-47.5,15.9-55.8,39.6h111.6C215.2,83.9,192.8,68,167.7,68z"/>
			<path class="st6" d="M164.6,69.3c-23.9,0-45,15.5-52.2,38.2h104.4C209.6,84.8,188.5,69.4,164.6,69.3z"/>
			<path class="st6" d="M111.4,145.9c6.1,11.8,15.5,21.7,27,28.3c8.9,5.3,19,8.2,29.3,8.4c5.6,0.1,11.1-0.7,16.4-2.3
				c10.6-3.3,19.9-9.6,27-18.1c4.2-4.9,7.6-10.4,10.1-16.3H111.4z"/>
			<path class="st6" d="M114.4,146c13,28.6,46.8,41.2,75.4,28.1c12.4-5.7,22.4-15.7,28.1-28.1H114.4z"/>
			<path class="st5" d="M167.1,66c-32.9,0-59.5,26.7-59.5,59.5s26.7,59.5,59.5,59.5s59.5-26.7,59.5-59.5l0,0
				C226.6,92.7,199.9,66,167.1,66z M167.1,67.8c31.9,0,57.8,25.9,57.8,57.8s-25.9,57.8-57.8,57.8s-57.8-25.9-57.8-57.8
				C109.3,93.6,135.1,67.8,167.1,67.8C167,67.8,167.1,67.8,167.1,67.8z"/>
			<path class="st5" d="M185.9,104.3c5,0,9.1,4.1,9.1,9.1c0,0,0,0,0,0v4.6c0.2,5-3.8,9.3-8.8,9.4s-9.3-3.8-9.4-8.8
				c0-0.2,0-0.4,0-0.6v-4.6C176.8,108.4,180.8,104.3,185.9,104.3C185.9,104.3,185.9,104.3,185.9,104.3L185.9,104.3z"/>
			<path class="st6" d="M180.6,110.9c0-1.6,1.3-3,2.9-3c1.6,0,3,1.3,3,2.9c0,0.8-0.3,1.6-0.9,2.2c-1.1,1.2-3,1.2-4.1,0c0,0,0,0,0,0
				C180.9,112.4,180.6,111.6,180.6,110.9L180.6,110.9z"/>
			<path class="st5" d="M148.2,104.3c5,0,9.1,4.1,9.1,9.1c0,0,0,0,0,0v4.6c0,5-4.1,9.1-9.1,9.1s-9.1-4.1-9.1-9.1c0,0,0,0,0,0v-4.6
				C139.1,108.4,143.2,104.3,148.2,104.3C148.2,104.3,148.2,104.3,148.2,104.3L148.2,104.3z"/>
			<path class="st6" d="M142.9,110.9c0-1.6,1.4-2.9,3-2.9c1.6,0,2.9,1.4,2.9,3c0,1.6-1.3,2.9-2.9,2.9
				C144.3,113.9,142.9,112.5,142.9,110.9z"/>
			<path class="st7" d="M157.4,129.9c-1.1,0-2,0.9-2,2v2.3c0,6.5,5.3,11.8,11.8,11.8s11.8-5.3,11.8-11.8v-2.3c0-1.1-0.9-2-2-2H157.4
				z"/>
			<path class="st8" d="M167.1,137.9c-3.4,0-6.6,1.4-8.9,4c4.3,4.9,11.7,5.4,16.6,1.1c0.4-0.3,0.8-0.7,1.1-1.1
				C173.7,139.3,170.5,137.9,167.1,137.9L167.1,137.9z"/>
			<path class="st6" d="M157.4,129.9c-1.1,0-2,0.9-2,2v2.1c7.4,3.6,16.1,3.6,23.5,0v-2c0-1.1-0.9-2-2-2L157.4,129.9z"/>
			<path class="st9" d="M175.7,129.9v3.1c0,1.2-0.1,1.9-0.9,2.5c1.4-0.4,2.8-0.9,4.1-1.5v-2c0-1.1-0.9-2-2-2L175.7,129.9z"/>
			<path class="st9" d="M157.4,129.9c-1.1,0-2,0.9-2,2v2.1c2.5,1.2,5.3,2,8.1,2.4c-1.4-0.4-1.8-1.7-1.8-3.3v-3.1L157.4,129.9z"/>
			<path class="st10" d="M158.5,129.9v3.1c0,1.2,0.1,1.9,1,2.5c-1.4-0.4-2.8-0.9-4.1-1.5v-2c0-1.1,0.9-2,2-2L158.5,129.9z"/>
			<path class="st5" d="M157.4,129c-1.6,0-2.9,1.3-2.9,2.9v2.3c0,7,5.7,12.6,12.6,12.6c7,0,12.6-5.7,12.6-12.6v-2.3
				c0-1.6-1.3-2.9-2.9-2.9H157.4z M176.8,130.8c0.6,0,1.1,0.5,1.1,1.1c0,0,0,0,0,0v2.3c-0.2,6-5.2,10.7-11.2,10.5
				c-5.7-0.2-10.4-4.8-10.5-10.5v-2.3c0-0.6,0.5-1.1,1.1-1.1c0,0,0,0,0.1,0H176.8z"/>
			<path class="st5" d="M178.9,133.4c-7.5,3.6-16.2,3.6-23.6,0l-0.4,0.8c7.7,3.7,16.7,3.7,24.4,0L178.9,133.4z"/>
			<path class="st11" d="M168.4,141c0-0.4,0.2-0.8,0.6-1c0.4-0.3,0.9-0.4,1.4-0.4c1.1,0,1.9,0.6,1.9,1.4s-0.9,1.4-1.9,1.4
				c-0.5,0-1-0.1-1.4-0.4C168.6,141.7,168.4,141.4,168.4,141L168.4,141z"/>
			<path class="st5" d="M155.7,43.5v6c5.7,0.4,11.2,0.4,17,0.9c7.3,0.5,11.6,2.7,14.2,5.2c2.4,2.5,3.7,5.8,3.6,9.3
				c0,6.1-3.3,10.2-9,13s-13.8,3.8-22.1,2.5c-1.2-0.2-2.5-0.4-3.7-0.7v6.2c0.9,0.2,1.9,0.4,2.8,0.5c9.3,1.4,18.5,0.5,25.6-3
				s12.3-10,12.3-18.4c0.1-5-1.8-9.9-5.3-13.5c-3.8-3.8-9.7-6.4-18-7C166.9,43.8,161.3,43.8,155.7,43.5L155.7,43.5z"/>
			<path class="st5" d="M134.1,39.9l2,5.3l0.5,1.3c-5.3-0.7-10.5-1.8-15.6-3.4l-4.6-1.6l0.6,4.8c3.1,23.7,22.2,36.7,40.6,39.8V80
				c-14.7-2.8-29.2-12.4-33.6-29.8c5.5,1.7,11.2,2.6,17,2.6h4.3l-1.7-4.8c4.6,0.8,9.3,1.3,14,1.5v-6c-6.1-0.2-12.1-1-18-2.4
				L134.1,39.9z"/>
			<path class="st12" d="M138.9,44.1l2.1,5.7c-9.7,0-21.1-3.9-21.1-3.9c6,45.3,73.6,48.1,73.6,18.9c0-8.2-5-16.4-20.5-17.5
				C161.2,46.4,151.5,47.2,138.9,44.1L138.9,44.1z"/>
			<path class="st13" d="M138.9,44.1l2.1,5.7c-9.7,0-21.1-3.9-21.1-3.9c15.8,20.5,62.1,23.1,70.3,8.9c-3-3.9-8.5-6.8-17.3-7.5
				C161.2,46.4,151.5,47.2,138.9,44.1L138.9,44.1z"/>
			<path class="st14" d="M120,45.9c6,45.3,73.6,48.1,73.6,18.9c0-1.3-0.1-2.7-0.4-4C182.3,86.9,127.9,75.4,120,45.9L120,45.9z"/>
			<path class="st5" d="M155.7,45.7v1.5c5.7,0.4,11.2,0.4,17.2,0.8c7.6,0.6,12.6,2.8,15.6,5.9c2.8,2.9,4.3,6.8,4.2,10.9
				c0,7-4,12-10.2,15s-14.8,4-23.4,2.7c-1.1-0.2-2.3-0.4-3.4-0.6v1.5c1.1,0.2,2.1,0.4,3.1,0.6c8.9,1.4,17.7,0.4,24.3-2.8
				s11.1-8.8,11.1-16.4c0.1-4.4-1.6-8.7-4.6-12c-3.4-3.4-8.7-5.8-16.6-6.3C166.9,46.1,161.4,46,155.7,45.7L155.7,45.7z"/>
			<path class="st5" d="M137.7,43l0.5,1.3l1.7,4.7c-9.2-0.2-19.7-3.8-19.7-3.8l-1.2-0.4l0.2,1.2c3,22.5,20.9,34.7,38.4,37.8v-1.5
				c-16.6-3-33.4-14.4-36.7-35.3c1.7,0.6,11.1,3.7,20.1,3.6h1.1l-2-5.5c5.8,1.2,11.6,2,17.5,2.2v-1.5c-6.2-0.2-12.4-1-18.5-2.5
				L137.7,43z"/>
			<path class="st15" d="M16.6,178.9c0,10.6-3.5,25.6-7.9,25.6s-7.9-15.1-7.9-25.6s4.7-12.7,7.9-12.7S16.6,168.3,16.6,178.9z"/>
			<path class="st5" d="M8.8,164c-2.6,0-5.1,1.2-6.8,3.2c-2,2.4-3.3,6.1-3.3,11.7c0,5.9,0.9,11.7,2.4,17.4c0.6,2.4,1.5,4.7,2.7,6.9
				c1.1,1.9,2.6,3.6,5,3.6s3.8-1.7,5-3.6c1.2-2.2,2.1-4.5,2.7-6.9c1.5-5.7,2.3-11.5,2.4-17.4c0-5.6-1.2-9.4-3.2-11.7
				C14,165.1,11.4,164,8.8,164z M8.8,168.4c1.3,0,2.6,0.5,3.5,1.6c1.1,1.3,2.2,3.9,2.2,8.9c-0.1,5.5-0.8,10.9-2.2,16.2
				c-0.5,2-1.3,3.9-2.2,5.8c-0.3,0.5-0.7,1-1.2,1.4c-0.5-0.4-0.9-0.9-1.2-1.4c-1-1.8-1.8-3.8-2.3-5.8c-1.4-5.3-2.2-10.7-2.2-16.2
				c0-5,1.1-7.6,2.2-8.9C6.2,168.9,7.5,168.3,8.8,168.4L8.8,168.4z"/>
			<path class="st15" d="M56.5,178.9c0,10.6-3.5,25.6-7.9,25.6s-7.9-15.1-7.9-25.6s4.7-12.7,7.9-12.7S56.5,168.3,56.5,178.9z"/>
			<path class="st5" d="M48.6,164c-2.6,0-5.1,1.2-6.8,3.2c-2,2.4-3.3,6.1-3.3,11.7c0,5.9,0.9,11.7,2.4,17.4c0.6,2.4,1.5,4.7,2.7,6.9
				c1.1,1.9,2.6,3.6,5,3.6s3.8-1.7,5-3.6c1.2-2.2,2.1-4.5,2.7-6.9c1.5-5.7,2.3-11.5,2.4-17.4c0-5.6-1.2-9.4-3.2-11.7
				C53.8,165.1,51.3,164,48.6,164z M48.6,168.4c1.3,0,2.6,0.5,3.5,1.6c1.1,1.3,2.2,3.9,2.2,8.9c-0.1,5.5-0.8,10.9-2.2,16.2
				c-0.5,2-1.3,4-2.3,5.8c-0.3,0.5-0.7,1-1.2,1.4c-0.5-0.4-0.9-0.9-1.2-1.4c-1-1.8-1.8-3.8-2.3-5.8c-1.4-5.3-2.2-10.7-2.2-16.2
				c0-5,1.1-7.6,2.2-8.9C46,168.9,47.3,168.4,48.6,168.4z"/>
			<path class="st3" d="M93.3,121.3c4,9.8,6.6,25,2.5,26.7s-13-10.9-17.1-20.7s-0.6-13.5,2.4-14.8S89.2,111.5,93.3,121.3z"/>
			<path class="st5" d="M80.3,110.6c-2.4,1-4.3,3-5.1,5.5c-1,3-0.7,6.9,1.5,12.1c2.3,5.4,5.3,10.5,8.9,15.1c1.5,2,3.2,3.8,5.2,5.3
				c1.7,1.3,3.8,2.3,6,1.4s2.9-3.1,3.2-5.2c0.3-2.5,0.3-4.9-0.1-7.4c-0.7-5.8-2.2-11.5-4.4-17c-2.2-5.2-4.7-8.2-7.5-9.6
				C85.5,109.6,82.8,109.5,80.3,110.6L80.3,110.6z M82,114.6c1.2-0.6,2.6-0.5,3.8,0.2c1.5,0.8,3.6,2.8,5.4,7.4
				c2,5.1,3.4,10.4,4.1,15.8c0.3,2.1,0.3,4.2,0.1,6.2c-0.1,0.6-0.2,1.2-0.6,1.8c-0.6-0.2-1.1-0.5-1.6-0.9c-1.6-1.3-3.1-2.8-4.3-4.5
				c-3.3-4.3-6.1-9.1-8.2-14.1c-1.9-4.6-1.9-7.4-1.4-9.1C79.8,116.1,80.7,115.1,82,114.6z"/>
			<path class="st5" d="M28.7,64.8C-5.4,64.8-33,92.4-33,126.5s27.6,61.7,61.7,61.7s61.7-27.6,61.7-61.7c0,0,0,0,0,0
				C90.4,92.4,62.8,64.8,28.7,64.8z M28.7,71.8c30.2,0,54.7,24.5,54.7,54.7s-24.5,54.7-54.7,54.7c-30.2,0-54.7-24.5-54.7-54.7
				c0-30.2,24.4-54.7,54.6-54.7C28.6,71.8,28.7,71.8,28.7,71.8L28.7,71.8z"/>
			<path class="st3" d="M-11.9,86.6c10.5-5.8,16.2,1.7,42.3,1.5c23.8-0.2,28.8-6.7,38.5-1.5c16.3,8.8,16.7,35.2,16.7,38.5
				c0,2.4-0.3,30.8-16.7,38.5c-11,5.2-16.8-4.7-39-5c-23.6-0.3-30.1,10.7-41.8,5c-16.4-7.9-16.7-36.1-16.7-38.5
				C-28.6,121.8-28.3,95.7-11.9,86.6z"/>
			<path class="st16" d="M28.1,69.4c-24.9,0-47.1,15.8-55.4,39.3H83.5C75.2,85.1,53,69.4,28.1,69.4z"/>
			<path class="st16" d="M31.1,70.7c-23.7,0-44.6,15.4-51.8,38H83C75.8,86.1,54.9,70.7,31.1,70.7z"/>
			<path class="st15" d="M-25.1,146.7c2.5,5.9,5.8,11.4,10,16.2c7,8.5,16.3,14.7,26.9,18c5.3,1.6,10.8,2.3,16.3,2.2
				c10.3-0.2,20.3-3.1,29.1-8.3c11.5-6.6,20.8-16.3,26.9-28.1H-25.1z"/>
			<path class="st15" d="M-21.7,146.8c13,28.4,46.5,40.8,74.9,27.9c12.3-5.6,22.2-15.5,27.9-27.9H-21.7z"/>
			<path class="st5" d="M28.7,67.4c-32.6,0-59.1,26.5-59.1,59.1s26.5,59.1,59.1,59.1s59.1-26.5,59.1-59.1
				C87.8,93.9,61.3,67.4,28.7,67.4z M28.7,69.2c31.7,0,57.3,25.7,57.3,57.3s-25.7,57.3-57.3,57.3s-57.3-25.7-57.3-57.3
				C-28.7,94.9-3,69.2,28.7,69.2C28.7,69.2,28.7,69.2,28.7,69.2z"/>
			<path class="st5" d="M10,105.4c5,0,9.1,4,9.1,9c0,0,0,0,0,0v4.5c0,5-4.1,9.1-9.1,9.1S0.9,124,0.9,119v-4.6c0-5,4-9,9-9
				C9.9,105.4,10,105.4,10,105.4z"/>
			<path class="st6" d="M15.3,111.9c0,1.6-1.3,2.9-2.9,2.9s-2.9-1.3-2.9-2.9s1.3-2.9,2.9-2.9c0,0,0,0,0,0
				C14,109,15.3,110.3,15.3,111.9L15.3,111.9z"/>
			<path class="st5" d="M47.4,105.4c5,0,9,4,9.1,8.9c0,0,0,0.1,0,0.1v4.5c0.2,5-3.8,9.2-8.8,9.4s-9.2-3.8-9.4-8.8c0-0.2,0-0.4,0-0.6
				v-4.6c0-5,4-9,8.9-9.1C47.3,105.4,47.4,105.4,47.4,105.4L47.4,105.4z"/>
			<path class="st6" d="M52.7,111.9c0,1.6-1.3,2.9-2.9,2.9c-1.6,0-2.9-1.3-2.9-2.9c0-1.6,1.3-2.9,2.9-2.9c0,0,0,0,0,0
				C51.4,109,52.7,110.3,52.7,111.9L52.7,111.9z"/>
			<path class="st7" d="M19,130.8c-1.1,0-2,0.9-2,2v2.3c0,6.4,5.2,11.7,11.7,11.7c6.4,0,11.7-5.2,11.7-11.7v-2.3c0-1.1-0.9-2-2-2H19
				z"/>
			<path class="st8" d="M28.7,138.7c-3.4,0-6.6,1.5-8.8,4c4.2,4.9,11.6,5.4,16.5,1.1c0.4-0.4,0.8-0.7,1.1-1.1
				C35.3,140.2,32.1,138.7,28.7,138.7z"/>
			<path class="st6" d="M19,130.8c-1.1,0-2,0.9-2,2v2c7.4,3.6,16,3.6,23.3,0v-2c0-1.1-0.9-2-2-2H19z"/>
			<path class="st9" d="M19,130.8c-1.1,0-2,0.9-2,2v2c1.3,0.6,2.7,1.1,4.1,1.5c-0.8-0.5-0.9-1.3-0.9-2.4v-3.1L19,130.8z"/>
			<path class="st9" d="M34.1,130.8v3.1c0,1.6-0.4,2.9-1.8,3.3c2.8-0.4,5.5-1.2,8-2.4v-2c0-1.1-0.9-2-2-2L34.1,130.8z"/>
			<path class="st10" d="M38.3,130.8c1.1,0,2,0.9,2,2v2c-1.3,0.6-2.7,1.1-4.1,1.5c0.8-0.5,1-1.3,1-2.4v-3.1L38.3,130.8z"/>
			<path class="st5" d="M19,129.9c-1.6,0-2.9,1.3-2.9,2.9v2.3c0,6.9,5.6,12.5,12.6,12.5c6.9,0,12.5-5.6,12.5-12.5v-2.3
				c0-1.6-1.3-2.9-2.9-2.9H19z M19,131.6h19.3c0.6,0,1.1,0.5,1.1,1.1c0,0,0,0,0,0.1v2.3c0,6-4.8,10.8-10.8,10.8
				c-6,0-10.8-4.8-10.8-10.8v-2.3C17.9,132.2,18.4,131.7,19,131.6C19,131.7,19,131.7,19,131.6z"/>
			<path class="st5" d="M17,134.3l-0.4,0.8c7.6,3.7,16.6,3.7,24.2,0l-0.4-0.8C33.1,138,24.4,138,17,134.3z"/>
			<path class="st11" d="M27.4,141.9c0,0.4-0.2,0.8-0.6,1c-0.4,0.3-0.9,0.4-1.4,0.4c-1.1,0-1.9-0.6-1.9-1.4s0.9-1.4,1.9-1.4
				c0.5,0,1,0.1,1.4,0.4C27.2,141.2,27.4,141.5,27.4,141.9L27.4,141.9z"/>
			<path class="st5" d="M40,45c-5.6,0.3-11.1,0.4-17.4,0.8c-8.2,0.6-14.1,3.1-17.9,7c-3.5,3.6-5.4,8.4-5.3,13.4
				c0,8.4,5.1,14.8,12.2,18.3s16.2,4.4,25.5,3c0.9-0.1,1.9-0.3,2.8-0.5v-6.1c-1.2,0.3-2.5,0.5-3.7,0.7c-8.3,1.2-16.3,0.3-22-2.5
				s-8.9-6.8-8.9-12.9C5.3,62.8,6.6,59.5,9,57c2.5-2.6,6.9-4.7,14.1-5.2c5.8-0.4,11.2-0.5,16.9-0.9L40,45L40,45z"/>
			<path class="st5" d="M56,42.7c-5.9,1.4-11.9,2.2-17.9,2.4V51c4.7-0.2,9.3-0.7,13.9-1.5l-1.8,4.8h4.3c5.7-0.1,11.4-0.9,16.9-2.6
				c-4.3,17.3-18.8,26.8-33.4,29.6v6.1c18.2-3.1,37.2-16,40.3-39.5l0.7-4.8l-4.6,1.6C69.4,46.2,64.3,47.3,59,48l0.5-1.3l2-5.2
				L56,42.7z"/>
			<path class="st12" d="M56.7,45.6c-12.5,3-22.2,2.3-33.8,3.2C7.4,49.9,2.5,58,2.5,66.2c0,28.9,67.1,26.2,73-18.8
				c0,0-11.3,4-20.9,3.9L56.7,45.6L56.7,45.6z"/>
			<path class="st13" d="M56.7,45.6c-12.5,3-22.2,2.3-33.8,3.2C14,49.4,8.7,52.4,5.6,56.2c8.2,14.1,54.2,11.5,69.8-8.8
				c0,0-11.3,4-20.9,3.9C54.6,51.3,56.7,45.6,56.7,45.6z"/>
			<path class="st14" d="M75.5,47.4C67.6,76.7,13.6,88.2,2.9,62.2c-0.3,1.3-0.4,2.7-0.4,4C2.5,95.2,69.5,92.5,75.5,47.4L75.5,47.4z"
				/>
			<path class="st5" d="M40,47.2c-5.6,0.3-11.1,0.3-17.2,0.8C15,48.6,9.6,51,6.3,54.3c-3.1,3.2-4.7,7.4-4.6,11.9
				c0,7.5,4.4,13.1,11,16.3s15.3,4.2,24.2,2.8c1-0.2,2.1-0.3,3.1-0.6v-1.5c-1.1,0.3-2.2,0.5-3.4,0.6c-8.6,1.3-17.1,0.4-23.3-2.7
				s-10.2-8-10.2-14.9c-0.1-4,1.4-7.9,4.2-10.8c3-3,7.9-5.3,15.5-5.8c6-0.4,11.4-0.5,17.1-0.8L40,47.2L40,47.2z"/>
			<path class="st5" d="M56.5,44.9c-6,1.4-12.2,2.2-18.4,2.4v1.5c5.9-0.2,11.7-1,17.4-2.2l-2,5.4h1.1c9,0,18.3-3,20-3.6
				c-3.3,20.8-20,32.1-36.4,35.1v1.5C55.5,82,73.3,69.8,76.2,47.5l0.2-1.2l-1.2,0.4c0,0-10.4,3.5-19.6,3.8l1.7-4.6l0.5-1.3
				L56.5,44.9z"/>
		</g>
	</g>
	<g style="clip-path:url(#SVGID_00000160896657247578137540000009359141786721122716_);enable-background:new    ;">
		<text transform="matrix(1 0 0 1 33.54 269.37)" class="st3 st18 st19">litwa</text>
	</g>
	<path style="clip-path:url(#SVGID_00000160896657247578137540000009359141786721122716_);fill:#056B45;" d="M150.9,0.1h29
		c5.3,0,10.6,0,16,0v16c0,7,0,14,0,21c-10.2,12.4-28.6,14.2-41,4S140.6,12.5,150.9,0.1z"/>
	<text transform="matrix(1 0 0 1 159.92 31.85)" class="st6 st18 st21">2</text>
	<text transform="matrix(1 0 0 1 169.56 31.85)" class="st6 st18 st21">4</text>
</g>
</svg>
