<?xml version="1.0" encoding="utf-8"?>
<!-- Generator: Adobe Illustrator 26.0.1, SVG Export Plug-In . SVG Version: 6.00 Build 0)  -->
<svg version="1.1" id="Слой_1" xmlns="http://www.w3.org/2000/svg" xmlns:xlink="http://www.w3.org/1999/xlink" x="0px" y="0px"
	 viewBox="0 0 195.6 280.6" style="enable-background:new 0 0 195.6 280.6;" xml:space="preserve">
<style type="text/css">
	.st0{clip-path:url(#SVGID_00000053507111686894999430000003578733230509414588_);fill:#EB5A53;}
	.st1{enable-background:new    ;}
	.st2{fill:#EB5A53;}
	.st3{fill:#FFFFFF;}
</style>
<g>
	<g>
		<defs>
			<rect id="SVGID_1_" x="0.2" width="195.6" height="280.6"/>
		</defs>
		<clipPath id="SVGID_00000163066196919743517800000008050085447264061068_">
			<use xlink:href="#SVGID_1_"  style="overflow:visible;"/>
		</clipPath>
	</g>
	<g>
		<defs>
			<rect id="SVGID_00000061464612482159661690000013864535848540797114_" x="0.2" width="195.6" height="280.6"/>
		</defs>
		<clipPath id="SVGID_00000178198148120298280840000015599580445797690006_">
			<use xlink:href="#SVGID_00000061464612482159661690000013864535848540797114_"  style="overflow:visible;"/>
		</clipPath>
	</g>
	<g>
		<defs>
			<rect id="SVGID_00000005972063838508063580000001510316637953339046_" x="0.2" width="195.6" height="280.6"/>
		</defs>
		<clipPath id="SVGID_00000097477955612083198220000001656641803758636982_">
			<use xlink:href="#SVGID_00000005972063838508063580000001510316637953339046_"  style="overflow:visible;"/>
		</clipPath>
		<path style="clip-path:url(#SVGID_00000097477955612083198220000001656641803758636982_);fill:#EB5A53;" d="M150.7,0h29h16v16
			c0,7,0,14,0,21c-10.2,12.4-28.6,14.2-41,4S140.5,12.4,150.7,0z"/>
	</g>
	<g>
		<defs>
			<rect id="SVGID_00000060019083424666994260000014439613994183633285_" x="0.2" width="195.6" height="280.6"/>
		</defs>
		<clipPath id="SVGID_00000100345816942968724030000011255039571854890911_">
			<use xlink:href="#SVGID_00000060019083424666994260000014439613994183633285_"  style="overflow:visible;"/>
		</clipPath>
	</g>
</g>
<g class="st1">
	<path class="st2" d="M59.6,231.2h-13v-8.7c0-2.5-0.1-4.1-0.4-4.7c-0.3-0.6-0.9-0.9-1.8-0.9c-1.1,0-1.8,0.4-2,1.1
		c-0.3,0.8-0.4,2.4-0.4,5v23.3c0,2.4,0.1,4,0.4,4.8c0.3,0.7,0.9,1.1,2,1.1c1,0,1.6-0.4,1.9-1.1s0.4-2.5,0.4-5.2v-6.3h13v2
		c0,5.2-0.4,8.9-1.1,11s-2.4,4.1-4.9,5.7c-2.5,1.6-5.6,2.5-9.3,2.5c-3.8,0-7-0.7-9.4-2.1c-2.5-1.4-4.1-3.3-4.9-5.7
		c-0.8-2.4-1.2-6.1-1.2-11v-14.7c0-3.6,0.1-6.3,0.4-8.1c0.2-1.8,1-3.5,2.2-5.2c1.2-1.7,2.9-3,5.1-3.9c2.2-1,4.7-1.4,7.5-1.4
		c3.8,0,7,0.7,9.5,2.2c2.5,1.5,4.1,3.3,4.9,5.6c0.8,2.2,1.2,5.7,1.2,10.3V231.2z"/>
</g>
<g class="st1">
	<path class="st2" d="M83.4,218.4v9.1l-9.2,23.8h9.2v8.2H62.1v-8.6l9.4-24.3H63v-8.2H83.4z"/>
</g>
<g class="st1">
	<path class="st2" d="M113.8,218.4l-3.6,29.7c-0.6,4.7-1,7.9-1.4,9.6c-0.4,1.7-1,3.1-1.9,4.2s-2.1,1.9-3.7,2.5
		c-1.6,0.5-4.1,0.8-7.6,0.8H88v-6.6c1.9,0,3.2-0.1,3.8-0.3s0.8-0.6,0.8-1.3c0-0.3-0.3-1.8-0.8-4.3L85,218.4h11.4l4.1,27.8l2-27.8
		H113.8z"/>
	<path class="st2" d="M135.5,218.4v9.1l-9.2,23.8h9.2v8.2h-21.3v-8.6l9.4-24.3h-8.5v-8.2H135.5z M129.1,207.6v8.1H121v-8.1H129.1z"
		/>
	<path class="st2" d="M166.7,239.7h-16.2v8.9c0,1.9,0.1,3.1,0.4,3.6c0.3,0.5,0.8,0.8,1.5,0.8c0.9,0,1.6-0.4,1.9-1.1
		c0.3-0.7,0.5-2.1,0.5-4.1v-5.4h11.9v3c0,2.5-0.2,4.5-0.5,5.9c-0.3,1.4-1.1,2.8-2.2,4.4c-1.2,1.5-2.7,2.7-4.5,3.5
		c-1.8,0.8-4.1,1.2-6.8,1.2c-2.6,0-5-0.4-7-1.1c-2-0.8-3.6-1.8-4.7-3.1c-1.1-1.3-1.9-2.8-2.3-4.4c-0.4-1.6-0.7-3.9-0.7-7v-12
		c0-3.6,0.5-6.4,1.5-8.5s2.6-3.7,4.8-4.8c2.2-1.1,4.8-1.7,7.6-1.7c3.5,0,6.4,0.7,8.7,2c2.3,1.3,3.9,3.1,4.8,5.3s1.4,5.3,1.4,9.3
		V239.7z M154.1,233v-3c0-2.1-0.1-3.5-0.3-4.1s-0.7-0.9-1.4-0.9c-0.9,0-1.4,0.3-1.6,0.8c-0.2,0.5-0.3,1.9-0.3,4.3v3H154.1z"/>
</g>
<g class="st1">
	<path class="st2" d="M59.6,105.9h-13v-8.7c0-2.5-0.1-4.1-0.4-4.7c-0.3-0.6-0.9-0.9-1.8-0.9c-1.1,0-1.8,0.4-2,1.1
		c-0.3,0.8-0.4,2.4-0.4,5v23.3c0,2.4,0.1,4,0.4,4.8c0.3,0.7,0.9,1.1,2,1.1c1,0,1.6-0.4,1.9-1.1s0.4-2.5,0.4-5.2v-6.3h13v2
		c0,5.2-0.4,8.9-1.1,11s-2.4,4.1-4.9,5.7c-2.5,1.6-5.6,2.5-9.3,2.5c-3.8,0-7-0.7-9.4-2.1c-2.5-1.4-4.1-3.3-4.9-5.7
		c-0.8-2.4-1.2-6.1-1.2-11v-14.7c0-3.6,0.1-6.3,0.4-8.1c0.2-1.8,1-3.5,2.2-5.2c1.2-1.7,2.9-3,5.1-3.9c2.2-1,4.7-1.4,7.5-1.4
		c3.8,0,7,0.7,9.5,2.2c2.5,1.5,4.1,3.3,4.9,5.6c0.8,2.2,1.2,5.7,1.2,10.3V105.9z"/>
</g>
<g class="st1">
	<path class="st2" d="M83.4,93.1v9.1L74.2,126h9.2v8.2H62.1v-8.6l9.4-24.3H63v-8.2H83.4z"/>
</g>
<g class="st1">
	<path class="st2" d="M113.8,93.1l-3.6,29.7c-0.6,4.7-1,7.9-1.4,9.6c-0.4,1.7-1,3.1-1.9,4.2s-2.1,1.9-3.7,2.5
		c-1.6,0.5-4.1,0.8-7.6,0.8H88v-6.6c1.9,0,3.2-0.1,3.8-0.3s0.8-0.6,0.8-1.3c0-0.3-0.3-1.8-0.8-4.3L85,93.1h11.4l4.1,27.8l2-27.8
		H113.8z"/>
	<path class="st2" d="M135.5,93.1v9.1l-9.2,23.8h9.2v8.2h-21.3v-8.6l9.4-24.3h-8.5v-8.2H135.5z M129.1,82.3v8.1H121v-8.1H129.1z"/>
	<path class="st2" d="M166.7,114.4h-16.2v8.9c0,1.9,0.1,3.1,0.4,3.6c0.3,0.5,0.8,0.8,1.5,0.8c0.9,0,1.6-0.4,1.9-1.1
		c0.3-0.7,0.5-2.1,0.5-4.1v-5.4h11.9v3c0,2.5-0.2,4.5-0.5,5.9c-0.3,1.4-1.1,2.8-2.2,4.4c-1.2,1.5-2.7,2.7-4.5,3.5
		c-1.8,0.8-4.1,1.2-6.8,1.2c-2.6,0-5-0.4-7-1.1c-2-0.8-3.6-1.8-4.7-3.1c-1.1-1.3-1.9-2.8-2.3-4.4c-0.4-1.6-0.7-3.9-0.7-7v-12
		c0-3.6,0.5-6.4,1.5-8.5s2.6-3.7,4.8-4.8c2.2-1.1,4.8-1.7,7.6-1.7c3.5,0,6.4,0.7,8.7,2c2.3,1.3,3.9,3.1,4.8,5.3s1.4,5.3,1.4,9.3
		V114.4z M154.1,107.7v-3c0-2.1-0.1-3.5-0.3-4.1s-0.7-0.9-1.4-0.9c-0.9,0-1.4,0.3-1.6,0.8c-0.2,0.5-0.3,1.9-0.3,4.3v3H154.1z"/>
</g>
<g class="st1">
	<path class="st2" d="M37.4,173.6c-0.9,0.9-2.1,1.7-3.5,2.3c-1.4,0.6-2.9,0.9-4.4,0.9c-2.7,0-4.6-0.7-5.8-2.2
		c-1.2-1.5-1.8-3.8-1.8-6.8v-20.4H33v19.2c0,1.7,0.1,2.8,0.4,3.4c0.3,0.6,0.8,0.9,1.4,0.9c1.7,0,2.5-1.4,2.5-4.3v-19.3h11.1v42.7
		H37.4V173.6z"/>
	<path class="st2" d="M77.3,179.9c0,3.2-0.4,5.5-1.1,6.9c-0.7,1.4-1.9,2.3-3.5,2.6s-4.2,0.5-7.8,0.5H52.6v-35h10.6v11.6h1.7
		c3.4,0,5.9,0.2,7.6,0.6c1.7,0.4,2.9,1.3,3.7,2.7c0.8,1.4,1.2,3.5,1.2,6.5V179.9z M66.8,178.6v-1.4c0-1.8-0.2-2.9-0.5-3.3
		c-0.4-0.4-1.4-0.6-3.1-0.7v9.3c1.4,0,2.4-0.2,2.9-0.5C66.5,181.7,66.8,180.5,66.8,178.6z M91.2,189.9H80.6v-35h10.6V189.9z"/>
	<path class="st2" d="M133,189.9h-10.3c-0.8-1.1-1.2-2.4-1.2-4.1v-7.4c0-2.4-1.1-3.6-3.4-3.6v15h-10.5v-15c-1.9,0-2.9,1.2-2.9,3.6
		v7.4c0,2.4-0.4,3.8-1.2,4.1H93.3c0.8-1.1,1.2-2.8,1.2-5.1v-6.1c0-2.9,1.8-4.9,5.5-6.1c1-0.3,2.2-0.6,3.5-0.9
		c-0.6,0-1.8-0.3-3.6-0.9c-1.8-0.8-2.9-1.5-3.5-1.9c-1.2-1-1.8-2.4-1.8-4.1V160c0-2.2-0.4-3.9-1.2-5.1h10.2c0.8,1.1,1.2,2.4,1.2,4.1
		v5.9c0,2.4,0.9,3.6,2.8,3.6V155h10.5v13.6c2.2,0,3.3-1.2,3.3-3.6v-5.9c0-2.4,0.4-3.8,1.2-4.1h10.3c-0.8,1.1-1.2,2.8-1.2,5.1v4.7
		c0,1.7-0.6,3.1-1.8,4.1c-0.5,0.5-1.7,1.1-3.5,1.9c-1.1,0.5-2.3,0.8-3.6,0.9c0.6,0.1,1.7,0.4,3.5,0.9c3.6,1.2,5.5,3.2,5.5,6.1v6.1
		C131.8,187.1,132.2,188.8,133,189.9z"/>
	<path class="st2" d="M160,179.9c0,3.2-0.4,5.5-1.1,6.9c-0.7,1.4-1.9,2.3-3.5,2.6c-1.6,0.3-4.2,0.5-7.8,0.5h-12.3v-35h10.6v11.6h1.7
		c3.4,0,5.9,0.2,7.6,0.6c1.7,0.4,2.9,1.3,3.7,2.7c0.8,1.4,1.2,3.5,1.2,6.5V179.9z M149.4,178.6v-1.4c0-1.8-0.2-2.9-0.5-3.3
		c-0.4-0.4-1.4-0.6-3.1-0.7v9.3c1.4,0,2.4-0.2,2.9-0.5C149.1,181.7,149.4,180.5,149.4,178.6z M173.8,189.9h-10.6v-35h10.6V189.9z"/>
</g>
<g class="st1">
	<path class="st2" d="M37.4,55.2c-0.9,0.9-2.1,1.7-3.5,2.3c-1.4,0.6-2.9,0.9-4.4,0.9c-2.7,0-4.6-0.7-5.8-2.2
		c-1.2-1.5-1.8-3.8-1.8-6.8V28.9H33v19.2c0,1.7,0.1,2.8,0.4,3.4c0.3,0.6,0.8,0.9,1.4,0.9c1.7,0,2.5-1.4,2.5-4.3V28.9h11.1v42.7H37.4
		V55.2z"/>
	<path class="st2" d="M77.3,61.6c0,3.2-0.4,5.5-1.1,6.9c-0.7,1.4-1.9,2.3-3.5,2.6s-4.2,0.5-7.8,0.5H52.6v-35h10.6v11.6h1.7
		c3.4,0,5.9,0.2,7.6,0.6c1.7,0.4,2.9,1.3,3.7,2.7c0.8,1.4,1.2,3.5,1.2,6.5V61.6z M66.8,60.3v-1.4c0-1.8-0.2-2.9-0.5-3.3
		c-0.4-0.4-1.4-0.6-3.1-0.7v9.3c1.4,0,2.4-0.2,2.9-0.5C66.5,63.3,66.8,62.2,66.8,60.3z M91.2,71.6H80.6v-35h10.6V71.6z"/>
	<path class="st2" d="M133,71.6h-10.3c-0.8-1.1-1.2-2.4-1.2-4.1v-7.4c0-2.4-1.1-3.6-3.4-3.6v15h-10.5v-15c-1.9,0-2.9,1.2-2.9,3.6
		v7.4c0,2.4-0.4,3.8-1.2,4.1H93.3c0.8-1.1,1.2-2.8,1.2-5.1v-6.1c0-2.9,1.8-4.9,5.5-6.1c1-0.3,2.2-0.6,3.5-0.9
		c-0.6,0-1.8-0.3-3.6-0.9c-1.8-0.8-2.9-1.5-3.5-1.9c-1.2-1-1.8-2.4-1.8-4.1v-4.7c0-2.2-0.4-3.9-1.2-5.1h10.2
		c0.8,1.1,1.2,2.4,1.2,4.1v5.9c0,2.4,0.9,3.6,2.8,3.6V36.6h10.5v13.6c2.2,0,3.3-1.2,3.3-3.6v-5.9c0-2.4,0.4-3.8,1.2-4.1h10.3
		c-0.8,1.1-1.2,2.8-1.2,5.1v4.7c0,1.7-0.6,3.1-1.8,4.1c-0.5,0.5-1.7,1.1-3.5,1.9c-1.1,0.5-2.3,0.8-3.6,0.9c0.6,0.1,1.7,0.4,3.5,0.9
		c3.6,1.2,5.5,3.2,5.5,6.1v6.1C131.8,68.7,132.2,70.4,133,71.6z"/>
	<path class="st2" d="M160,61.6c0,3.2-0.4,5.5-1.1,6.9c-0.7,1.4-1.9,2.3-3.5,2.6c-1.6,0.3-4.2,0.5-7.8,0.5h-12.3v-35h10.6v11.6h1.7
		c3.4,0,5.9,0.2,7.6,0.6c1.7,0.4,2.9,1.3,3.7,2.7c0.8,1.4,1.2,3.5,1.2,6.5V61.6z M149.4,60.3v-1.4c0-1.8-0.2-2.9-0.5-3.3
		c-0.4-0.4-1.4-0.6-3.1-0.7v9.3c1.4,0,2.4-0.2,2.9-0.5C149.1,63.3,149.4,62.2,149.4,60.3z M173.8,71.6h-10.6v-35h10.6V71.6z"/>
</g>
<g class="st1">
	<path class="st3" d="M169,29.1v2.7h-8.7l0-2.3c2.6-4.2,4.1-6.8,4.6-7.8c0.5-1,0.7-1.8,0.7-2.3c0-0.4-0.1-0.8-0.2-1
		s-0.4-0.3-0.7-0.3s-0.5,0.1-0.7,0.4s-0.2,0.7-0.2,1.4v1.5h-3.5v-0.6c0-0.9,0-1.6,0.1-2.1c0.1-0.5,0.3-1,0.7-1.5
		c0.4-0.5,0.8-0.9,1.4-1.1c0.6-0.3,1.3-0.4,2.1-0.4c1.6,0,2.8,0.4,3.6,1.2c0.8,0.8,1.2,1.8,1.2,3c0,0.9-0.2,1.9-0.7,2.9
		c-0.5,1-1.8,3.2-4,6.4H169z"/>
	<path class="st3" d="M179.8,21.3v5.3c0,1.2-0.1,2.1-0.2,2.6c-0.1,0.5-0.4,1.1-0.8,1.5s-0.9,0.8-1.5,1c-0.6,0.2-1.2,0.3-1.9,0.3
		c-0.9,0-1.7-0.1-2.4-0.3s-1.1-0.6-1.5-1s-0.6-0.9-0.8-1.5s-0.2-1.3-0.2-2.4v-5.5c0-1.5,0.1-2.5,0.4-3.3c0.2-0.7,0.7-1.3,1.5-1.7
		c0.7-0.4,1.6-0.7,2.7-0.7c0.9,0,1.6,0.2,2.3,0.5s1.2,0.7,1.5,1.1c0.3,0.4,0.6,0.9,0.7,1.5C179.8,19.2,179.8,20.1,179.8,21.3z
		 M175.9,20c0-0.8,0-1.4-0.1-1.6c-0.1-0.2-0.3-0.3-0.6-0.3c-0.3,0-0.5,0.1-0.6,0.3c-0.1,0.2-0.1,0.7-0.1,1.6v7.7
		c0,0.9,0,1.5,0.1,1.7s0.3,0.3,0.6,0.3s0.5-0.1,0.6-0.3c0.1-0.2,0.1-0.7,0.1-1.5V20z"/>
</g>
</svg>
