<?xml version="1.0" encoding="utf-8"?>
<!-- Generator: Adobe Illustrator 26.0.3, SVG Export Plug-In . SVG Version: 6.00 Build 0)  -->
<svg version="1.1" id="Слой_1" xmlns="http://www.w3.org/2000/svg" xmlns:xlink="http://www.w3.org/1999/xlink" x="0px" y="0px"
	 viewBox="0 0 195.6 280.6" style="enable-background:new 0 0 195.6 280.6;" xml:space="preserve">
<style type="text/css">
	.st0{clip-path:url(#SVGID_00000078748133269260840340000009853709867992145831_);fill:#E94539;}
	.st1{clip-path:url(#SVGID_00000078748133269260840340000009853709867992145831_);}
	.st2{fill-rule:evenodd;clip-rule:evenodd;fill:#FFFFFF;}
	.st3{fill-rule:evenodd;clip-rule:evenodd;fill:#1C1A19;}
	.st4{fill-rule:evenodd;clip-rule:evenodd;fill:#DA261D;}
	.st5{clip-path:url(#SVGID_00000078748133269260840340000009853709867992145831_);fill:#FFFFFF;}
	.st6{clip-path:url(#SVGID_00000078748133269260840340000009853709867992145831_);enable-background:new    ;}
	.st7{fill:#DA261D;}
	.st8{font-family:'Impact';}
	.st9{font-size:21px;}
	.st10{font-size:24.77px;}
	.st11{clip-path:url(#SVGID_00000078748133269260840340000009853709867992145831_);fill:#1C1A19;}
	.st12{fill:#FFFFFF;}
	.st13{font-size:20px;}
</style>
<g>
	<defs>
		<rect id="SVGID_1_" x="0" y="0" width="195.6" height="280.6"/>
	</defs>
	<clipPath id="SVGID_00000160158366885661423900000017577394237483785393_">
		<use xlink:href="#SVGID_1_"  style="overflow:visible;"/>
	</clipPath>
	
		<rect x="-9.2" y="-8.4" style="clip-path:url(#SVGID_00000160158366885661423900000017577394237483785393_);fill:#E94539;" width="214" height="297.9"/>
	<g style="clip-path:url(#SVGID_00000160158366885661423900000017577394237483785393_);enable-background:new    ;">
		
			<image style="overflow:visible;" width="174" height="210" xlink:href="7CE8995C.png"  transform="matrix(-0.57 0 0 -0.57 147.44 267.06)">
		</image>
	</g>
	<g id="g1031" style="clip-path:url(#SVGID_00000160158366885661423900000017577394237483785393_);">
		<g id="g1023">
			<path id="rect1000" class="st2" d="M43.8,11.4l0.1,79.4c1.9,28.1,25.8,49.8,54.1,49.7s51.7-21.8,53.6-49.8V11.3L43.8,11.4z"/>
		</g>
		<g id="g992">
			<path id="path15-2" class="st3" d="M78.8,29.5c-0.9,0.1-1.8,0.4-2.7,0.8c-0.7,0.2-1.3,0.6-2.3,1c-0.8,0.5-1.7,1.1-2.4,1.8
				c-1.6,1.6-2,4.1-1,6.2c0.5,0.9,0.9,1.9,1.2,2.9c0.2,0.3,0.1,0.7-0.2,1c-0.2,0.4-0.2,0.1-0.6,0.4c-0.2,0-0.5-0.1-0.7-0.2
				c-0.8-0.4-1.8-0.5-2.6-0.3C67,43,66.5,43,65.9,43c-0.7,0-1.5-0.2-2.1-0.6c-0.5-0.2-1-0.3-1.5-0.4c-0.6-0.2-0.9,0-1.5,0.1
				c-0.9,0.3-1.8,0.6-2.6,1.1c-0.1,0.1-0.3-0.1-0.4,0c-0.4,0.1-0.7-0.1-1.2,0.2c-0.4,0.3-0.9,0.4-1.4,0.4c-0.7-0.1-1.5,0.3-2-0.3
				c0.3-1.9,2-3.5,1.5-7c-0.3-4-3.8-7-7.8-6.7c-0.1,0-0.2,0-0.4,0c-0.4,0.3,4.5,3.1,3.9,7.9c-1.4,3.8-3.8,7.1-0.8,10
				c0.3,0.4,0.7,0.7,1.1,0.9c-0.3,0-0.6,0.1-0.9,0.2c-0.4,0.1-0.8,0.3-1.2,0.5c-0.5,0.2-1.1,0.6-1.2,1.1c0,0.1,0.8,0,0.8,0.1
				c0-0.1,1,0.3,1.6,0.4c1,0.2,1.3,1.4,1.9,2c0.7,0.8,0.7-0.4,1.8,1.4c0.1,0.1,0.4,0.4,0.1,0.5s-1.3,0.1-1.3,0.2
				c-0.1,0.5,1.2,0.2,1.6,1s0.2,2.8,0.2,3.5c0,1.2-0.1,2.4-0.4,3.5c-0.2,0.8-0.5,1.7-0.8,2.5c-0.3,0.3-1,0.8-1.1,1
				c-0.3,0.7-0.1,1.5,0.4,2c0.3,0.4-0.1,0.2,0.2,1c0.6,0.9,1.3,1.8,2.2,2.4c0.5,0.4,1.1,0.7,1.7,0.8c1.1,0.2,2.2,0.1,3.2-0.5
				c0.4-0.3,0.7-0.6,0.9-1c0.2-0.4,0.3-0.8,0.3-1.2c3-0.3,3.6-0.3,4.2,0c1.9,0.7,6.1,0.9,6.1,1c0.2,1.2,1.2,4.6,2.1,5
				c1,1.5,2.3,2.8,3.6,4c0.6,0.7,1.2,1.5,1.6,2.3c0.5,1,0.5,0.7,0.6,1.4c0,0.4,0,0.8,0.1,1.2c-0.4,1.6,0,5.4,0.6,5.7
				c-0.3,3.4-0.9,6.7-1.6,10.1c-0.7,0.2-7.6,4.9-5.3,5.8c0.5,0.2,0.4-0.2,0.5,0.3c3,1.4,6.5,0.5,6.8,0c0,0,0,0,0-0.1l0,0l0,0
				c0,0,0,0,0,0.1c0,0.1,0,0.2,1.3,0.3c0,0.3,0.1,0.2,0.3,0.5s6.8,1.8,7.8-0.6c0.5-1.1,0.7-2.3,0.6-3.5c0.8,0.3,1.6-0.4,2.1-1.2
				c-0.7-1.7-1.4-2.9-1.4-4.3c-0.1-1,0.1-2.1,0.5-3c2.2-0.5,1.6-2.7,1.2-3.7c-1.1-1.2,0.1-3.2,0.7-4.9c0.4,0.1,0.3-0.2,0.7-0.2
				c1.2,0.1,2.4,0,3.5-0.2c0.7-0.2,1.5-0.3,2.2-0.4c1.2,0.1,2.3,0,3.5-0.1c1.6-0.4,3.1-0.9,4.7-1.6c1.7-0.3,6-2.9,7.6-3.2
				c-0.6,0.6-3.2,2.4-3.2,3.2c1.6-0.2,6.4-2.6,8.6-2.6c0.4,0,0.7,0.2,0.9,0.4c1.2-0.4,5.4,6.5,5.2,8.9c-1.6,3.6-3.4,7.8-5.2,11.3
				c-1.5,0.6-5.1,2.8-4.3,3.3c0,0.3,0.6,0.7,0.6,0.7c0,0.8,1.6,1.2,2.9,1.2c3.8,0.1,5,0.4,6.4-3.6c0.7,0.5,1.2-0.1,1.8-0.8
				c-0.2-2.2-0.2-1.5-0.1-2.2c0.3-2.2,1.1-4.2,2.5-5.9c0.4-0.1,0.8-0.2,1.2-0.2c1.2-0.1,1.8-2.3,1.3-3.1c-1.6-2.1-2-2-1.7-6.5
				c0.2,0.2,0.4,0.4,0.5,0.6c0.3,0.6,0.8,1,1.1,1.6c0.7,1.2,1.6,2.1,2.3,3.3s1.2,1.3,1,2.9c-0.4,2-0.9,3.9-1.6,5.8l0,0
				c-0.6,1.1-2.1,3.4-2.4,4s-0.5,0.5-1.3,1s-2.7,2-3,3.2c-0.1,0.4,0.1,0.8,1,0.8c-0.1,0.1-0.3,0.5-0.2,0.5s0.4,0.3,0.5,0.3
				c0.9,0.2,1.9,0.3,2.8,0.3c3.5-0.3,4.2-0.5,5-1.1c1.1-0.8,1.3-2.9,1.3-3.5c0.5,0.2,0.4,0.3,1.1,0.2c0.3-0.4,0.6-1,0.9-1.4
				c-0.7-2.4-0.4-4.9,1-7c0-0.2-0.1,0.6,0,0.7c0.1,1,0.6,1.9,1.2,2.6c-0.1-0.5,0-1,0.1-1.6c0.3,0.7,1.5,2.1,2.9,1.5
				c0,0-0.4-1.3-0.7-2.6c-0.2-1-0.3-2-0.2-3c0.1-0.4,0.6,1.8,2.2,2.8c-0.8-1.5-1.2-3.2-1-4.8c0.7,2.1,1,1.1,1.3,1.6
				c-0.9-2.4-0.8-3.2-0.7-3.6c0.2-5.2-0.5-4.4-3-8.1c-1.3-9,2.8-18,0.4-26.7c-3.5-5.6-6.4-5.1-10.5-4.6c-3.6-2.5-3.6-1.7-6.3-2
				c-3.7,0.7-7.5,1.1-11.3,1.1c-3-0.1-5.8,0.7-8.9,0.5c-4.3-0.3-8.6-1-12.8-2.2c-3.6-1.5-5.3-2.5-8.2-2.6c-2.3-0.5-6.7,1.2-9.2-0.4
				c0.4-1.5,0.1-3.1-0.8-4.4c-0.7-1.1-1.2-2.1-1.7-3c-0.8-1-0.9-2.4-0.4-3.5c0.2-0.5,0.4-0.9,0.8-1.3c0.5-0.6,1.1-1.2,1.7-1.8
				C77.4,30.8,78.8,29.5,78.8,29.5L78.8,29.5z M137.8,53.7c6.2,0.2,4.2,6.5,3.8,11.6c-0.1,0-0.3-1-0.4-0.9c-0.8-3.1,1.3-3.6-0.6-7.5
				c-0.8-1.4-2-2.6-3.5-3.3L137.8,53.7z M141.4,75.8c0.1,8,0.2,7.1,0.2,11.1c-0.1,0-0.2-0.6-0.3-0.5c-1.7-6.5-1.8-3.9-0.1-9.9
				C141.3,76.4,141.3,75.8,141.4,75.8L141.4,75.8z M85.4,93.1c0.5,1,0.7,2.1,0.4,3.2c-0.2,0.8-0.7,3.4-0.8,4.1
				c-0.5-0.6-1-2.3-0.5-4.9c0.1-0.7,0.4-0.8,0.9-1.4C85.2,94.5,85.1,93,85.4,93.1L85.4,93.1z"/>
			<path id="path15-1" class="st4" d="M48.2,30.2c0.6,1.3,3.4,1.5,3.4,7.6c-1.4,3.7-5,8.3,1.2,10.6l1.9-0.2c0.1-0.9,0.2-1.8,0.4-2.7
				c0.1-0.3,0.3-1,0.4-1.3c-0.7-0.2-1.4,0.1-1.8,0c-1.6-0.5-1.1-1.5,0.1-4.3C55.1,36.9,53.6,30.3,48.2,30.2z M77.2,30.4L77.2,30.4
				c-1.2,0.5-2.4,1-3.5,1.7c-0.6,0.4-1.1,0.8-1.6,1.3c-1.8,2-1.9,3.6-1.2,5.2c0.3,0.6,0.5,1.3,0.9,1.9c0.3,0.4,0.5,0.9,0.7,1.4
				c0.2,0.7-0.1,1.5-0.7,1.9c-0.3,0.2-0.5,0.2-0.8,0.5c-0.5,0.6-0.9,1.3-1.1,2.1c-0.2,0.4-0.2,0.9,0,1.3c0.2,0.7,0.6,1.2,1.2,1.5
				c0.7-0.4,1.5-0.7,2.3-0.8c0.7-0.2,1.3-0.5,1.8-1.1c0.2-0.2,0.4-0.4,0.6-0.6c3.4-5.3-3.9-8.4-2.3-12.3c0.1-0.5,0.3-0.9,0.6-1.3
				C75.2,32.1,76.2,31.2,77.2,30.4L77.2,30.4z M75.9,46.6L75.9,46.6l0.2,0.1L75.9,46.6z M76.1,46.7c0.2,0.1,0.4,0.2,0.6,0.2
				C76.5,46.9,76.3,46.8,76.1,46.7z M76.7,46.9L76.7,46.9L76.7,46.9L76.7,46.9z M76.8,46.9c-0.4,0.6-0.9,1.1-1.5,1.5
				c0.9,0.2,1.8,0.5,2.7,1c0.4,0.3,0.8,0.6,1.3,0.9s1.6,0.7,2.3,1.1c-0.1,0-0.6,0.5-1.1,0.7c-0.2,0.1-0.7,0-0.9,0.1
				s-0.6,0.4-0.9,0.6c-0.7,0.4-1.3,1-1.8,1.7c-0.4,0.1-0.8,0.1-1.2,0.1c-1.4-0.2-0.5-0.2-1.4-0.2c-0.5,0-1-0.1-1.4-0.3
				c-0.3-0.2-0.3-0.6-0.6-0.7c-0.2-0.2-0.4-0.4-0.5-0.7c0.1,0.1,0.2,0,0.3,0c0.3,0.1,0.5,0.1,0.7,0.4c0.2,0.1,0.4,0.4,0.6,0.5
				c0.4,0.2,1,0.1,1.4,0.1s1.2,0.4,1.7,0.1c0.1-0.1,0.3-0.3,0.4-0.5c0.4-0.4,0.8-0.7,1.2-1c0.5-0.3,0.9-0.6,1.3-0.8s0.6,0,0.9,0
				c0-0.1,0.3-0.2,0.3-0.3c-0.3-0.2-0.6-0.2-1-0.3c-0.3-0.2-0.6-0.4-0.9-0.6c-0.6-0.4-1.2-0.8-1.9-1.1c-1.6-0.8-3.4-0.8-5-0.1
				c-0.5,0.2-0.5,0.4-0.6,0.5s0.2,0.8,0,1.3s-0.2,1-0.5,1.2s-0.9,1-1.5,1c0.4-1,0.6-1,0.4-1.6s-0.1-0.1-0.4-0.5
				c-0.1-0.2-0.7-0.2-0.9-0.2c-0.5,0-1-0.2-1.3-0.6c-0.1-0.2-0.2-0.4-0.4-0.5c-0.1-0.2,0-0.8-0.4-0.3c0,0.1-0.2,0.1-0.2,0.2
				c-0.3,0.3-0.5,0.6-0.7,0.9c-0.2,0.3-0.4,0.5-0.6,0.8c-0.2,0.5-0.6,1.2-0.6,1.2c-0.6,0.6-1.3,1.1-2,1.5c-0.3,0.2-0.7,0.1-0.9-0.2
				l0,0c0.1,0,0.4-0.1,0.8-0.6c0.2-0.3,0.6-3.1,0.3-2.8c0,0-1.5,0.9-1.4,0.6c0-0.8,0.1-1.6,0.3-2.3c0.2-0.4,0.5-0.5,0.4-1.2
				c-0.1-0.8-0.4-1.7-0.2-2c0.3,0.8,0.4,0.8,0.4,0.7c0-0.3,0-0.1,0,0c0,0,0,0,0,0.1c0,0.2,0.2-0.1,0.4,1c0.1,0.6,0.3,0.2,0.5-0.2
				c0-0.2,0-0.4,0-0.5c-0.1-0.3-0.3-0.5-0.1-0.5s0.4,0.2,0.2-0.3s-0.8-1.1-0.7-1c0.5,0.2,0.9,0.5,1.3,0.9c0.1,0.3,0.2,0.7,0.2,1
				c-0.3,0.8-0.7,1.5-1.4,2c-0.5,0.4-0.7,1-0.7,1.6c0.1,0.2,0.9-0.2,1.3-1.2c0.1-0.4,0.4-0.5,0.7-0.9s0.6-0.4,0.9-0.9s0.2-0.2,0.4-1
				c0.1,0.5,0.1,1-0.2,1.4c-0.1,0.3,1-0.1,1,0c-0.2,0.3-0.4,0.5-0.7,0.6c-0.4,0.2-0.7,0.4-1,0.7c-1.2,1.2-0.8,3-1.1,4.2
				c0.9-0.6,1.6-1.6,1.8-2.6c0.5-0.5,1-1.1,1.4-1.7c0.2-0.3,0.4-0.6,0.6-1c0.1-0.3,0.2-0.5,0.3-0.7s0.1-0.4,0.2-0.6s0.2-0.4,0.4-0.4
				c-0.2,0.9-0.2,1.9,0,2.8c0.3,0.5,0.6,0.9,1.1,1.2c-0.1-0.4-0.1-0.9-0.1-1.3c0-0.8,0.2-1.7,0.3-1.6c0,0.7,0.1,1.4,0.2,2.1
				c0.2,0.6,0.1,0.7,0.5,0.9c0.7,0.3,1.1,0.9,1.1,1.6c0.7-1,0.2-1.9,0.4-2c0-0.2,0.2-0.2,0.2-0.3c-2.8-2.4-1.3-3.8-0.5-5.7
				c-1.1-0.6-2.3-0.7-3.5-0.4c-0.7,0.2-1.5,0.2-2.2-0.2c-0.7-0.5-1.5-0.7-2.3-0.8c-0.6-0.1-1.1,0-1.6,0.2c-0.2,0.1-1.4,0.1-1.8,0.5
				c-0.3,0.3-0.3,0.3-0.5,0.3s-0.4,0.5-0.5,0.8c-0.2,0.4-0.4,0.8-0.7,1.1c0.1-0.2,0.2-0.5,0.3-0.7c0.1-0.3,0.5-1.2,0.4-1.2
				c-0.5-0.2-1.1-0.1-1.5,0.3c-0.2,0.2-0.4,0.4-0.6,0.7c-0.6,1.4-0.8,2.9-0.5,4.4c0.1,0.4,0.3-0.1,0.5-0.2c0.4-0.4,0.6-0.9,0.8-1.4
				c0.2-0.7,0-1.4,0.2-1.2s0.1,1,0.1,1.8s-0.7,1.1-0.6,1.4c0.3,1.5,0.6,1.2,0.1,3.1c-0.2,1,2.1-2.1,1.9-3.3c0.1-0.6,0.1-1.1,0-1.7
				c0-0.4-0.3-0.7-0.4-1.2c0.8,0.8,0.2,0.3,0.8,1c0.2,0.3,0,0.9,0,1.2c0.3,1.1,0.5,2,0.9,2.2S59,50.6,59,50
				c-0.2,0.2-0.3,0.5-0.3,0.8c-0.4,0.4-0.3,0.5-0.8,1.2c-0.4,0.7-1,1.2-1.6,1.6c-0.1,0.1-0.2,0.1-0.4,0.2c0.4,0.7,0.8,1.4,1.1,2.2
				c1,2.4-1.3,8.5-1.8,10.7c0,0.2,1,0,2.4,0.7c0.3,0.1,1.2-7.3,5.1-10.1c1-0.7-2.1,2.2-2.8,4.3c-0.8,2.1-1.3,4.2-1.6,6.4
				c-0.9-0.1-2.4-1.1-3.6-0.6c0.3-0.9,3-9.2,1.8-11.5c-0.8-1.5-0.6-1.5-0.8-1.8c-0.2,0-0.3,0-0.7,0c0.1-0.1,0.3-0.3,0.4-0.4
				l-0.1-0.1c0.1,0,0.1,0,0.2,0h0.1c0.1-0.1,0.3-0.2,0.4-0.3c0.4-0.5,0.6-1.1,0.3-1.8C56,51,56,50.2,55.8,50s-0.6,0.4-0.6,0.3
				c-0.3-0.2-1.5,1.2-1.8,2.2c0.1,0.2,0.3,0.4,0.4,0.6c0.3,0.7,1.1,1.3,1.1,2c0.2,6.9-0.6,8.6-0.9,9.5c-0.1,0.4-0.3,0.8-0.6,1.2
				c0.1,0.1,0.3,0.3,0.5,0.5s0.3,0.6,0.1,0.4c-0.8-0.2-0.6-0.2-1,0c-0.1,0.1-0.3,0.1-0.5,0.1l0,0c0,0.1-0.1,0.2-0.1,0.3
				c-0.1,0.4,0.7,1.2,1,0.6c0.1-0.2,0.1-0.2,0-0.1v0.1c-0.1,0.3-0.5,1.2-0.2,1.6s0.5,0.9,0.9,1.1c0.5,0.4,1.1,0.7,1.8,0.8
				c0.5,0.1,1.1,0.2,1.6,0.1c0.5,0,0.9-0.2,1.3-0.4c0.2-0.2,0.6-0.2,0.9-0.6c0,0,0.1-0.1,0.1-0.1l0,0.3c-0.6,0.9-1.6,1.4-2.7,1.3
				c-0.6,0.1-1.3,0-1.9-0.3c0.2,0.5,0.4,0.4,1,0.7c0.3,0.1,0.5,0.1,0.8,0.1c1.5,0.3,2.9-0.6,3.3-2c0.1-0.1,0.1-0.5-0.2-2.1
				c0.6,0.4,0.6,0.8,0.8,0.7c0.4-0.3,0.7-0.6,1-1c1.1-1.4,2.6-2.6,4.2-3.4c1.2-0.7,2.3-1.5,3.5-2.3c2.1-2,4.3-7.2,2.6-7.5
				c0.1,0,1,0,1.2,0c1.2,1.7-1.4,7.2-4.7,9.1c-0.6,0.4-2,1.3-3,1.7c-1.2,0.7-2.2,1.6-3.1,2.6l-1.1,1l-0.5,0.2v0.3
				c1.1-0.2,2.1-0.4,3.2-0.7c0.9-0.4,1.7-0.9,2.3-1.6c-0.4,0.8-1,1.4-1.8,1.7c1,0.7,7.6,2.8,7.6-2.2c0.3,1.5-0.5,3.4,0.8,7.6
				c0.4,0.9,0.9,1.6,1.6,2.4c1.4,1.7,0.6-3.9-0.4-5.8c1.5,1.9,2.1,4.4,1.6,6.8c0.2,0.7,1.3,1.3,1.7,1.7c1.3-4.9-1.6-9.6-2.4-11
				c3.1,2.8,3.3,8.6,3,11.5c0.7,1.7,1.7,3.3,3,4.7c0.6,0.3,1.1,0.5,1.8,0.7c1.4,0.1,1.1,0.6,0.2-0.9c-0.5-0.6-0.9-1.3-1.2-2
				c-0.4-0.6-0.7-1.3-1-2.1c-0.3-1-1-2-0.8-3.2c0.4-3.6,0.9-4.2-0.6-6.3c-0.8-1.1-1.4-2.2-1.8-3.5c-0.9-2.4-0.3-5.5,0.2-7.8
				c0.1-0.4,0.1-0.7,0.2-1.1c0,0.3-0.1,0.7-0.2,1.1c-0.6,3.3,0,6.6,1.6,9.5c0.6,0.8,1.1,1.7,1.5,2.7c1.7,5.3-1.6,3.8,0.9,8.1
				c1,1.7,1.6,2.8,3,5.5c0.4,0.8-0.2,2.3,0,3.3c0.4,2,1.1,3.9,2.1,5.7c-0.1,2.5-0.6,5-1.4,7.4c0.2,1,1.2,1.2,2.3,1.3
				c-1.2,0.1-2.6,0.5-2.7-0.2c-1.3,0.3-3.1,2.2-4.2,3.1c0,0.1-0.2,0.2-0.2,0.4c0.4,0.4,0.7,0.2,1,0.3c0.8-0.9,1.8-1.8,2.9-2.5
				c0.1,0,0.2-0.1,0.3-0.1c-0.7,0.8-2.7,1.9-2.7,3c0.9,0.6,5,1.3,6.3,0.2c0.3,0,1.1-2,1.1-4c-0.2-0.8-0.6-1.5-1.3-2
				c0.3-0.1,1.6,1.3,2.1,1.7c0.4-0.1,0.8-0.3,1-0.7c-0.3-0.9-0.8-1.6-1.1-2.7c-0.4-1.7-0.3-3.4,0.2-5c1.5-1,1.7-1.2,1-2.6
				c-0.3-0.6-0.5-1.2-0.6-1.9c0.6-4.2,4.2-9.5,5.3-13.3c0-2.2,0-4.3,0.1-6.5c-0.5-1.6-2.2-3.6-2.2-4.5c4.3,4.7,3.6,4.7,3.1,11.1
				c-0.8,3.3-2.5,6.4-3.4,8.7c0.6,0.1,0.5-0.1,1.4-0.1c1-0.1,3.3-0.3,4.5-0.4s2.1,0.1,3.1,0c0.4-0.1,0.7-0.1,1.1-0.2
				c0.3-0.1,0.6-0.1,0.8-0.2c1.5-0.5,3.1-1.1,4.5-1.8c2.7-0.9,5.2-2.5,7.6-3.1c-0.5,1-2.4,2.5-3.3,3.5c0,0.1-0.5,0.2-0.2,0.3
				c1-0.5,8.3-4,8.5-2.3c0.6,0.2,1.3,0.1,1.9-0.3c0.2-0.2,0.6-0.3,0.8-0.6c-0.8-0.5-1.5-0.9-2.4-1.3c-4.5-1.4-4.2-7.2-4.5-10.6
				c0-2.8,1.4-5.6,1.7-8.4c1.1,1.3-0.7,5.3-1,7.1c0.1,4.1-0.2,8.2,3.2,11c0.7,0.3,1.4,0.9,2.3,1.2c2.6,1.2,5.1,2.5,7.5,4.1
				c1.2,0.9,2.2,2,2.9,3.3c1.1,1.8,2.3,2.9,3.5,4.9c0.8,1.1-1.1,6.8-1.7,7.9l-0.4,0.9c-0.7,1.3-2.1,3.3-1.8,3.8
				c0.8-0.3,1.8-0.2,2.6,0.1c-1-0.2-2,0-2.9,0.5c-0.2-0.2-0.3,0.3-0.3-0.4c-0.9-0.2-3.8,2.2-3.6,3.1c0,0.1,0.1,0.2,0.3,0.2
				c0.1,0,0.1,0,0.2-0.1c0.8-0.8,1.7-1.5,2.7-1.9c-0.3,0.2-2.2,1.8-2.1,2s-0.2,0.5-0.2,0.7c0,0.1,0.1,0.2,0.2,0.2
				c2.2,0.4,4.4,0.1,6.4-0.7c0.1-0.1,0.5-0.2,0.7-0.6c0.4-0.9,0.6-1.8,0.7-2.7c-0.9-1.6-0.6-0.8-1-1.4c0.5,0.1,0.9,0.6,1.4,1
				c0.3,0.2,0.7,0.3,1.1,0.2c0.1-0.2,0.2-0.4,0.3-0.6c-0.9-2.6,0-7.6,2.8-9c0.9-1,0.3-1.8-1-3.5c-1.6-3.6-3.6-9.2-3.6-12.8
				c0.4,1.6,0.4,1.6,0.5,1.8l0.2-0.1c0.7-2.6,1.6-5.2,2.6-7.7c0.5-5.3-2.4-8.4-2.2-11.5c0.2,0.3,0.4,0.7,0.6,1
				c1.2-4.7-3.3-7.7-4-7.9c0-0.4,0.2-0.8,0.5-1.1c7.7,0.2,6,5.8,5.3,12.7c1,4.4,1.6,5.6-0.1,8.9c0,8.1,0.1,6.8,0.3,14.4
				c0.3,1,0.9,2,1.6,2.8c1,1.6,1.5,2.7-0.7,3.7c0,0.1-0.5,0.5-0.5,0.6c-0.1,0.4-0.1,0.9,0.1,1.3c0.1,0.4,0.2,0.9,0.4,1.3
				c0,0.2,0.2-1.8,0.5-1.4c0.6,1.3,1.8,2.4,2.3,2c-0.4-1-0.6-2.1-0.8-3.2c-0.2-2.2,0.5-4.5-1.7-6.4c1.3-0.5,2.7,3.6,3,4.7
				c-0.3-1.7,0-3.2-0.4-3.8c-0.8-1.1-1.8-2-3-2.6c1.7,0.3,1.7,0.1,3.5,1.8c-0.7-3.1-2.1-3.1-3.4-3.7c0.7-0.4,2.9-0.1,3.6,2.5
				c0.3-2.2-0.1-2.2-0.2-2.8c-1.4-2.1-2.7-3-3.1-5.1c-0.1-6.7,0.8-12.9,1.5-19.3c-0.2-5.6-0.9-8.2-5.8-10.4
				c-2.3-0.4-3.5,0.4-5.2,0.4c-5.3-3.4-7.9-1.2-13.6-0.9c-3.8-0.3-9.1,0.3-13.2,0.5c-4.3-0.2-8.6-1-12.8-2.2
				c-1.5-0.5-0.4-0.3-5.5-2.3c-1.2-0.3-2.4-0.4-3.6-0.4c-1.7,0.2-3.3,0.3-5,0.4c-1.1,0.4-2.3-0.3-3.1-0.2
				C76.9,46.5,76.9,46.8,76.8,46.9L76.8,46.9z M68.4,50.2L68.4,50.2C68.4,50.3,68.4,50.2,68.4,50.2L68.4,50.2z M59.5,45.1l0.8,0.6
				l0.2,0.7l0.1,1.5l-0.4,1.4l-0.7,0.6l0.7-2.1h-0.7l0.3-0.6v-0.9L59.5,45.1z M86.8,46.9c0.3,0,0.6,0.1,0.9,0.1
				c0.4,0.1,0.8,0.4,1.1,0.7c-1.2-0.4-2.4-0.3-3.5,0.1c-0.6,0.2-1.2,0.5-1.7,0.9c-0.5,0.4-1,0.9-1.4,1.4c0.3-0.6,0.7-1.1,1.2-1.6
				c0.6-0.6,1.4-1.1,2.2-1.4C86,47,86.4,47,86.8,46.9L86.8,46.9z M52.9,48.8c-1.5,0-3.1,0.3-4.5,1c1.4-0.3,2.8,0.5,3.6,2.2
				c0.2,0.5,0.7,0.5,0.8,0.6s0.1,0,0.5-0.8c0.3-0.6,0.5-1.2,0.7-1.8c-1-0.1-2.1-0.5-3-0.5c1-0.3,3,0,3.3-0.1c0-0.2,0-0.5,0-0.7
				c-0.2,0-0.5,0-0.8,0H52.9z M73.8,49.5c1.1,0,2.2,0.3,3.2,0.9c0.6,0.3,1.4,0.6,2,0.9c-1.2,0-2.2-0.7-3.2-1c-1-0.4-2.2-0.3-3.1,0.3
				c-0.1,0.9,0,0.3,0,0.7c0-0.1,0.2,0.5,0.2,0.4c-0.7-0.6-0.9-0.6-1-1.2C72.2,49.8,73,49.5,73.8,49.5z M67.1,52.7
				c0.3,0,0.7,0.1,0.9,0.3c-1.8-0.3-1.8,0.5-3.8,3.5c-0.8,1-1,0.5-0.2-0.3C65,54.5,65.8,52.7,67.1,52.7z M67.9,53.4
				c0.3,0,0.6,0.1,0.9,0.2c-0.5,0-1.6,0.2-1.6,0.5c1,0.9,0.6,3.9-2.4,3c-0.3,0.4-0.7,0.7-1.2,0.8c1-0.8,1.8-1.9,2.4-3
				C66.6,53.8,67.2,53.4,67.9,53.4z M66.9,54.4c0.4,1.5,0.1,2.4-1.6,2.2c-0.2,0.1-0.3,0.3,0.1,0.4c0.2,0.1,0.4,0.1,0.6,0.1
				C67.5,57.2,68.1,54.9,66.9,54.4L66.9,54.4z M71.4,54.5l0.1,0.5c-1.4,5.5-8.3,4.8-11,9.9l-1.7,2.5l0.1-0.4
				c1.8-3.5,2.7-4.7,6.2-6.7C68.3,59,69.9,58,71.4,54.5L71.4,54.5z M58.6,67.9c-0.2,0.9-0.4,1.9-1.5,2c-0.3-0.1-0.5-0.4-0.4-0.7
				c0-0.1,0.1-0.2,0.2-0.3c0.6,0.3,0.3,0.1,0.6,0.2C58.2,68.6,58.1,68.3,58.6,67.9z M125.7,80.8c-0.6,0.6-1.4,1-2.2,1.3
				c1,2.2,4.3,5.4,4.1,8.8c-1.6,3.5-2.6,5.5-4.8,10.2c-0.7,1.2-0.5,0.6-0.6,1.7c0.8-0.2,1.7-0.2,2.5,0c-0.9,0.1-1.8,0.3-2.9,0.5
				c0.2-0.2-0.1-0.5-0.1-0.6c-0.6,0-3.5,1.6-3.7,2.6c0,0.3,0.5,0.2,0.3,0.5c0.2,0.3,1.2-1.1,2.2-1.1c-0.4,0.2-1.6,0.9-1.9,1.7
				c0.7,0.4,1,0.3,2.2,0.4c1.4,0.1,2.7-0.1,4-0.5c1-0.8,1.6-1.9,1.9-3.1c-0.2-0.2-0.7-0.6-0.9-0.8c0.3-0.1,0.7,0,1.2,0.6
				c0.2,0.1,0.5,0.2,0.8,0.2c0.2-0.2,0.4-0.2,0.4-0.5c-0.1-1.1,0-2.2,0.2-3.3c0.4-1.8,1.2-3.5,2.4-5c0.5-0.4,1.1-0.3,1.4-0.4
				c0.4-0.1,0.7-0.4,0.8-0.9c0.2-0.6,0.1-1.3-0.9-2.2c-0.2-0.3-0.5-0.4-0.6-0.8c-0.6-1.8-0.3-4.6-0.3-6
				C128.4,82.4,126.8,81,125.7,80.8L125.7,80.8z M79.9,84.8c-0.3,0.6-0.2,3.6,0,4.4c0.2,0.5,0.3,1,0.4,1.5c-0.1,1.1-0.2,2.2-0.3,2.4
				c-0.2,2.6-0.6,5.1-1.1,7.7c-0.8,1.3,1.8,1.7,2.4,1.4c-1.2,0.6-3.8,0.2-3.4-0.7c-3.5,2.4-5.4,4-4.4,4.4c1-0.9,2.1-1.8,3.2-2.5
				c0.6-0.3-3.1,2.7-2.4,3c0.7,0.4,1.5,0.6,2.3,0.5c0.9,0,3-0.1,3.4-0.6c-0.3-0.2,2.8-3,3.3-3.3c0.3-0.4-0.7-1.2-1.1-1.6
				c0.9,0.2,1.8,1.4,1.8,1.2c1.2-0.2,0.6-0.8,0.9-1c-1.1-1.2-1.5-2.8-1.3-4.4c0.1-1.2,0-2.1,0.7-2.8c0-0.2,0.8-0.8,0.4-1.2
				c-0.7-0.7-0.8-1.8-0.3-2.6c-0.5-1.4-0.6-3-0.3-4.5C82.9,86.5,81.3,85.4,79.9,84.8L79.9,84.8z"/>
		</g>
	</g>
	<path style="clip-path:url(#SVGID_00000160158366885661423900000017577394237483785393_);fill:#FFFFFF;" d="M80,99.6
		c-12.6,0-22.9,10.2-22.9,30.5c0,25.4,18.2,50.9,40.7,50.9s40.7-25.4,40.7-50.9c0-20.3-10.2-30.5-22.9-30.5
		c-6.9,0-13.5,3.1-17.8,8.5C93.5,102.8,86.9,99.6,80,99.6z"/>
	<path style="clip-path:url(#SVGID_00000160158366885661423900000017577394237483785393_);fill:#FFFFFF;" d="M30.4,112.8h134.7
		c3,0,5.5,2.4,5.5,5.5v44c0,3-2.4,5.5-5.5,5.5H30.4c-3,0-5.5-2.4-5.5-5.5v-44C25,115.3,27.4,112.8,30.4,112.8z"/>
	<g style="clip-path:url(#SVGID_00000160158366885661423900000017577394237483785393_);enable-background:new    ;">
		<text transform="matrix(1 0 0 1 31.97 136.92)" class="st7 st8 st9">Bielsk Podlaski</text>
	</g>
	<text transform="matrix(1 0 0 1 59.84 161.99)" class="st7 st8 st10">Kob</text>
	<text transform="matrix(1 0 0 1 98.67 161.99)" class="st7 st8 st10">r</text>
	<text transform="matrix(1 0 0 1 107.98 161.99)" class="st7 st8 st10">yn</text>
	<path style="clip-path:url(#SVGID_00000160158366885661423900000017577394237483785393_);fill:#1C1A19;" d="M44.8,0h-29h-16v16
		c0,7,0,14,0,21c10.2,12.4,28.6,14.2,41,4S55.1,12.4,44.8,0z"/>
	<g style="clip-path:url(#SVGID_00000160158366885661423900000017577394237483785393_);enable-background:new    ;">
		<text transform="matrix(1 0 0 1 15.46 31.75)" class="st12 st8 st13">30</text>
	</g>
</g>
</svg>
