<svg id="Слой_1" data-name="Слой 1" xmlns="http://www.w3.org/2000/svg" xmlns:xlink="http://www.w3.org/1999/xlink" viewBox="0 0 195.59 280.63"><defs><style>.cls-1{fill:#e94539;}.cls-2{fill:#a91916;}.cls-11,.cls-2,.cls-3,.cls-4,.cls-5,.cls-6,.cls-9{fill-rule:evenodd;}.cls-13,.cls-20,.cls-3{fill:#fff;}.cls-14,.cls-18,.cls-19,.cls-4{fill:#e0232d;}.cls-10,.cls-5,.cls-6,.cls-7,.cls-8,.cls-9{stroke:#424242;}.cls-5,.cls-6,.cls-7{stroke-width:0.75px;}.cls-5{fill:url(#Безымянный_градиент_2);}.cls-6,.cls-8{fill:#f1e743;}.cls-10,.cls-7{fill:none;}.cls-10,.cls-8{stroke-width:1.89px;}.cls-9{fill:#f2f2f2;stroke-width:0.21px;}.cls-11,.cls-16{fill:#097cc1;}.cls-12{fill:#424242;}.cls-15{fill:#fad000;}.cls-17{fill:#ffd405;}.cls-18{font-size:19.11px;}.cls-18,.cls-19,.cls-20{font-family:Impact;}.cls-19{font-size:24.77px;}.cls-20{font-size:20px;}</style><linearGradient id="Безымянный_градиент_2" x1="-55.22" y1="397.64" x2="-55.22" y2="402.33" gradientTransform="matrix(8.9, 0, 0, -8.91, 597.71, 3643.77)" gradientUnits="userSpaceOnUse"><stop offset="0" stop-color="#f1e743"/><stop offset="0.5" stop-color="#fbba10"/><stop offset="1" stop-color="#f1e743"/></linearGradient></defs><rect class="cls-1" x="-9.21" y="-8.4" width="214.01" height="297.89"/><g id="layer1"><path id="path3040" class="cls-2" d="M124,77.93a2.05,2.05,0,0,1,2,2V82a2.05,2.05,0,0,1-2,2H122V77.93Zm0,8.21a4.11,4.11,0,0,0,4.1-4.1V80a4.11,4.11,0,0,0-4.1-4.1H119.9V86.14Zm-8.22-10.26h2.06V86.14h-2.06Zm-4.1,0h2V86.14h-2l-4.11-6.44v6.44h-2V75.88h2l4.11,6.44Zm-30.8,0h6.16v2.05H82.94v2h4.11V82H82.94v2h4.11v2H80.89V75.88Zm-8.21,0h2v8.21h4.11v2H72.68Zm21.56,8.21h2.05a3.08,3.08,0,0,0,0-6.16H94.24v2h2.05a1,1,0,0,1,0,2.06H94.24v2Zm2.05-10.26A7.19,7.19,0,1,1,89.1,81,7.17,7.17,0,0,1,96.29,73.83Zm0,2A5.13,5.13,0,1,1,91.16,81,5.13,5.13,0,0,1,96.29,75.88Z"/><path id="path19" class="cls-3" d="M96.29,11.48c20.2,0,38.49,3.49,51.74,9.14q3.27,1.39,6.12,3V52a18.2,18.2,0,0,0,0,28.83c0,11.78,1.16,24.2-5.13,34.84s-18.49,16-29.43,20.74c-8.35,3.61-17.2,7-23.3,14.11-6.1-7.08-15-10.5-23.3-14.11-10.94-4.74-23.09-10-29.43-20.74s-5.13-23.06-5.13-34.84a18.2,18.2,0,0,0,0-28.83V23.58q2.85-1.56,6.12-3C57.8,15,76.09,11.48,96.29,11.48Z"/><path id="path21" class="cls-4" d="M96.29,12.38c-18.71,0-40.09,2.65-57,11.74V51.59a19.09,19.09,0,0,1,0,29.69c0,11.44-1.09,23.64,5,34,6.25,10.59,18.26,15.71,29,20.37,8.16,3.53,16.75,6.88,22.94,13.59,6.18-6.71,14.78-10.06,22.94-13.59,10.76-4.66,22.76-9.78,29-20.37,6.09-10.31,5-22.51,5-33.95a19.09,19.09,0,0,1,0-29.69V24.12C136.38,15,115,12.38,96.29,12.38Z"/><path id="path23" class="cls-5" d="M96.86,16.86a5.75,5.75,0,0,1,5.9,2.91,17.93,17.93,0,0,1,2.5,11l30.05,45.46V80.1l-30,45.45a17.92,17.92,0,0,1-2.5,11,5.72,5.72,0,0,1-5.9,2.91,4.52,4.52,0,0,1-4.19-4.33,4.1,4.1,0,0,1,5.24-3.91l.29-.4c-1.46-1-1.88-2.42-.42-3.82.69-.66,3-2.31,2.92-3.23-.68-11.88-23.14-15-23.25-28.71,0-4.41,3.07-8,9.12-11V72.26c-6-3-9.16-6.59-9.12-11C77.56,47.52,100,44.43,100.7,32.56c.06-.92-2.23-2.57-2.92-3.24-1.46-1.39-1-2.79.42-3.81l-.29-.4a4.1,4.1,0,0,1-5.24-3.91,4.53,4.53,0,0,1,4.19-4.34ZM134,78.18l-29.28-44.3a26,26,0,0,1-5.67,11C95,49.5,88.52,54.72,87.61,60c-.55,3.21,1,6.23,5.6,8.23v20c-4.64,2-6.15,5-5.6,8.23.91,5.24,7.47,10.54,11.55,15.16a25.64,25.64,0,0,1,5.59,10.92L134,78.18Z"/><path id="path25" class="cls-6" d="M109.92,78.75c1.12,12,28.87,13.64,28.85,5.65,0-2.68-2.26-4.51-4.6-5.74V77.45c2.34-1.23,4.59-3.06,4.6-5.73,0-8-27.73-6.41-28.85,5.65v1.38Z"/><path id="path27" class="cls-7" d="M131,66.9l-3.73,11.16L131,89.22M127.5,66.8l-3.76,11.26,3.76,11.26m-3.67-22.15-3.64,10.89L123.83,89M120,68l-3.35,10,3.35,10m-4.11-18.37-2.79,8.35,2.79,8.34m18.48-18.88-3.53,10.54,3.53,10.54"/><rect id="rect29" class="cls-8" x="76.74" y="76.37" width="59.19" height="3.38"/><polygon id="polygon31" class="cls-9" points="77.61 80.84 68.53 80.6 68.53 75.68 77.61 75.3 77.61 80.84"/><polygon id="polygon33" class="cls-9" points="70.03 78.05 75.47 91.31 52.85 78.05 75.47 64.83 70.03 78.05"/><line id="line35" class="cls-10" x1="53.04" y1="78.06" x2="70.24" y2="78.06"/></g><g id="Warstwa_1"><g id="_74930080" data-name=" 74930080"><path id="_75002600" data-name=" 75002600" class="cls-3" d="M38.17,187.49c0-31.77,26.85-57.68,59.76-57.68s59.77,26,59.77,57.68v81.39H38.17Z"/><path id="_75002528" data-name=" 75002528" class="cls-11" d="M39.37,187.71h0c0-31.2,26.31-56.65,58.56-56.65s58.57,25.45,58.57,56.65h0v79.92H39.37V187.71Z"/><path id="path44" class="cls-12" d="M151.86,194.51v-8.25c1.57.83,3.12,1.69,4.64,2.6v-1.15h0c0-31.2-26.31-56.65-58.57-56.65s-58.56,25.45-58.56,56.65h0v1.15c1.52-.91,3.08-1.76,4.64-2.6v8.25l.37-.22c2.87-1.69,5.83-3.26,8.87-4.68v23.87H51.44v3.29H49.61v9.54h3.76l13.17,7.89,13-7.89h3.7v-9.54H81.48v-3.29H79.65v-32.2q2.68-.47,5.42-.8v19.39h-1V203H82.9l13.87,18.2v2.55a2.43,2.43,0,1,0,2.44.06v-2.67L113,203H111.8v-3.14h-1.17V180.46q2.88.34,5.72.85v32.17h-1.8v3.29h-1.83v9.54h3.75l13.17,7.89,13-7.89h3.71v-9.54h-1.8v-3.29h-1.83V189.66c3,1.41,5.92,3,8.75,4.63l.35.22Z"/><path id="path44_0" data-name="path44 0" class="cls-13" d="M53.75,189.38,55,188.8l.13-.06V181c1.64-.66,3.32-1.27,5-1.85v7.49l.33-.11a103.67,103.67,0,0,1,10.63-3.42l.17,0v-7.21c1.65-.4,3.31-.75,5-1.07v7.1l.29,0c.87-.18,1.75-.35,2.63-.51v32.11H53.75v-24.1Zm31.83-9,1.59-.18.21,0v-7c1.65-.15,3.32-.25,5-.33v6.95l.26,0c1.76-.09,3.54-.13,5.32-.13s3.55,0,5.31.13l.24,0V172.9c1.68.08,3.34.18,5,.33v7l.22,0,1.44.16v19.47H85.58Zm31.28,1c.83.15,1.65.31,2.48.48l.28,0v-7.1c1.68.32,3.34.67,5,1.07v7.21l.17,0a102.88,102.88,0,0,1,10.63,3.42l.33.11v-7.52c1.68.59,3.34,1.21,5,1.88v7.71l.15.06,1.4.64v24H116.86V181.4Zm27.2,35.37h-29V214h29Zm1.83,9h-7.82v-5.27h-4.59v5.27h-7.82v-5.27h-4.6v5.27h-7.84v-8.54h32.67v8.54Zm-47.18-2.23a2.42,2.42,0,0,0-.76-.12,2.69,2.69,0,0,0-.7.1v-2h1.46v2ZM111.32,203H84.55v-2.66h26.77V203ZM98,227.82a1.94,1.94,0,1,1,1.94-1.94A1.94,1.94,0,0,1,98,227.82Zm-17-11h-29V214H81Zm1.83,9H75v-5.27h-4.6v5.27H62.55v-5.27H58v5.27H50.13v-8.54H82.79Zm15.2-66a10.66,10.66,0,0,0,1.8-.16l1.82,6.4c-1.21,0-2.44-.06-3.66-.06s-2.4,0-3.6.06l1.82-6.4a10.9,10.9,0,0,0,1.82.16Zm2.28-.25a10.52,10.52,0,0,0,8.2-10.25V132c1.07.19,2.13.41,3.18.65v16.63a13.69,13.69,0,0,1-10.51,13.31ZM87.49,132v17.3a10.53,10.53,0,0,0,8.22,10.25l-.87,3.06a13.71,13.71,0,0,1-10.53-13.31V132.62c1-.24,2.11-.46,3.18-.65ZM102.11,166l-.84-3a14.13,14.13,0,0,0,7.8-5c.93.08,1.85.17,2.78.27v8.41Q107,166.19,102.11,166Zm7.31-8.41a14.15,14.15,0,0,0,2.73-8.13c2.38.25,4.74.55,7.08.92v8.46q-4.85-.81-9.81-1.25Zm2.73-8.63v-8.33q3.07.3,6.1.72,4.22.6,8.36,1.44v8.47A134.43,134.43,0,0,0,112.15,149Zm0-8.81v-7.42a59.72,59.72,0,0,1,7.21,2.24v6.06c-2.38-.35-4.79-.65-7.21-.88Zm-28.32-7.45v7.43c-2.1.21-4.19.45-6.27.74l-1,.14V135A58.81,58.81,0,0,1,83.83,132.73Zm0,7.93V149a135.2,135.2,0,0,0-14.48,2.3V142.8A143.85,143.85,0,0,1,83.83,140.66Zm0,8.83a14,14,0,0,0,2.72,8.12c-1.19.11-2.37.23-3.56.37-2.1.25-4.19.54-6.27.89v-8.46q3.52-.56,7.11-.92Zm3.06,8.57a14.27,14.27,0,0,0,7.81,5l-.86,3c-3.29.11-6.54.36-9.76.73v-8.42c.94-.1,1.87-.19,2.81-.27Zm54.94,16.25v-9q2.92,1.07,5.77,2.28c2.06.87,4.09,1.81,6.09,2.79a55,55,0,0,1,2.4,10.68,121,121,0,0,0-14.26-6.79Zm-.48-9.14v9a118,118,0,0,0-14.27-4.57v-8.61A127.06,127.06,0,0,1,141,165ZM54.6,174.11v-9a126.74,126.74,0,0,1,14.27-4.23v8.62a118.6,118.6,0,0,0-14.27,4.57Zm-.5-8.78v9a117.63,117.63,0,0,0-14.33,6.82,53.86,53.86,0,0,1,2.4-10.71c2-1,4-1.92,6.09-2.79s3.87-1.58,5.84-2.3Zm72.51-4.5v8.6a117.51,117.51,0,0,0-14.26-2.61v-8.41l.48.05c2.44.28,4.85.63,7.25,1q3.3.57,6.53,1.32Zm-57.26,8.59v-8.61a126.28,126.28,0,0,1,14.26-2.42v8.42A119.48,119.48,0,0,0,69.35,169.42ZM47.89,167.3v-9l.08-.12a133,133,0,0,1,13.51-4.52v8.69A129.23,129.23,0,0,0,47.89,167.3Zm-.5-8.15v8.36c-1.69.73-3.36,1.5-5,2.29A55.7,55.7,0,0,1,47.39,159.15Zm101.16,8.36v-8.24a55.6,55.6,0,0,1,4.94,10.53C151.86,169,150.22,168.24,148.55,167.51Zm-.48-9v8.82l-.26-.11c-2.19-.93-4.42-1.81-6.67-2.62s-4.41-1.51-6.66-2.18v-8.69l2,.57c3.89,1.14,7.7,2.46,11.44,3.93l.17.28ZM134,153.57v8.69c-2.2-.64-4.43-1.23-6.67-1.75s-4.74-1.06-7.14-1.48l-.46-.08v-8.46c1.44.23,2.88.48,4.31.76q5.05,1,10,2.32Zm-72,8.68v-8.68a132,132,0,0,1,14.27-3.08V159c-2.58.45-5.14,1-7.67,1.56q-3.33.78-6.6,1.74Zm78.92-7.07v-5.91a57.17,57.17,0,0,1,6.59,8.28q-3.25-1.28-6.59-2.37Zm-.48-6.41V155a136.57,136.57,0,0,0-13.31-3.63v-8.47c3.21.66,6.37,1.43,9.49,2.29Q138.57,146.91,140.4,148.77ZM55.56,155v-6.33q1.8-1.81,3.75-3.48c3.15-.87,6.33-1.63,9.56-2.29v8.49A136.5,136.5,0,0,0,55.56,155Zm-.48-5.83v6q-3.39,1.11-6.69,2.4a57.41,57.41,0,0,1,6.69-8.39Zm64.76-8v-5.94a59.42,59.42,0,0,1,15.86,9.28c-2.48-.66-5-1.29-7.52-1.82-2.75-.59-5.53-1.09-8.34-1.52Zm-43.74-6v6c-2.83.42-5.63.94-8.41,1.53-2.54.53-5,1.16-7.52,1.83A59,59,0,0,1,76.1,135.16Zm75.28,58.52a106.08,106.08,0,0,0-10.17-5.25V180.7l-.15-.06c-1.81-.74-3.62-1.41-5.47-2l-.33-.13V186a102,102,0,0,0-10.17-3.24v-7.26l-.17,0c-1.81-.43-3.65-.83-5.49-1.18l-.29-.06v7.14c-3.34-.68-6.72-1.19-10.17-1.54v-7l-.22,0c-1.81-.17-3.63-.31-5.46-.39H103v7c-1.68-.08-3.37-.15-5.07-.15s-3.42.07-5.1.15v-7h-.26c-1.84.08-3.65.22-5.47.39l-.22,0v7q-5.16.52-10.17,1.54v-7.14l-.28.06c-1.84.35-3.66.75-5.47,1.18l-.2,0v7.26A103.7,103.7,0,0,0,60.61,186v-7.53l-.32.13c-1.85.64-3.67,1.31-5.47,2l-.15.06v7.76a103.77,103.77,0,0,0-10.18,5.22v-8.25l-.35.19q-2.41,1.29-4.77,2.7v-.61h0c0-1,0-2.05.08-3.06a116.4,116.4,0,0,1,117,0c.05,1,.08,2,.08,3.06h0v.6q-2.35-1.4-4.77-2.69l-.35-.19v8.25ZM39.7,181.7a118.71,118.71,0,0,1,116.47,0c.09.79.15,1.59.21,2.39a116.63,116.63,0,0,0-116.89,0c0-.8.12-1.61.21-2.4Z"/><path id="path32" class="cls-12" d="M65.13,186.8h2.64v10.64H65.13Zm63.1,13.72h2.64v10.64h-2.64Zm2.64,0h0Zm-2.64-13.72h2.64v10.64h-2.64Zm2.64,0h0ZM98,197.52h0s2-2,2-3.67V182.31H96v11.54C96,195.56,98,197.52,98,197.52Zm-32.85,3h2.64v10.64H65.13Zm2.64,0h0Zm0-13.72h0Z"/><path id="path44_1" data-name="path44 1" class="cls-14" d="M141.76,226.31l-12.12,7.3-12.23-7.3h4.15v-5.25h3.57v5.25H134v-5.25h3.57v5.25Zm-43.13-5.22H97.31L83.9,203.49H112l-13.41,17.6Zm-20,5.22-12.11,7.32-12.26-7.32h4.18v-5.25H62v5.25h8.86v-5.25h3.55v5.25Z"/><path id="path44_2" data-name="path44 2" class="cls-15" d="M93.42,153.82V152.1h3.44v1.72Zm5.92-5.92v-1.73h3.44v1.73Zm-5.92,0v-1.73h3.44v1.73ZM91,146.17v1.73H88v-1.73Zm0,5.93v1.72H89.11a10.3,10.3,0,0,1-.69-1.72Zm.37,4.59v-14l.87-1.41.85,1.37v15.26A9.65,9.65,0,0,1,91.33,156.69Zm5.9,2.53V142.71l.87-1.41.87,1.41V159.2c-.32,0-.65,0-1,0l-.76,0Zm2.11-5.4V152.1h3.44v1.72Zm3.81,4V142.71l.88-1.39.85,1.35v13.8a10.2,10.2,0,0,1-1.73,1.33Zm2.1-5.7h2.29a10.3,10.3,0,0,1-.69,1.72h-1.6Zm0-4.2v-1.73H108v1.73Z"/><path id="path44_3" data-name="path44 3" class="cls-16" d="M108,145.8h-2.7v-3.2l0,0-1-1.7-.15-.26-.18.26-1,1.7,0,0v3.2H99.34v-3.2l0,0-1.07-1.7-.15-.26-.15.26-1,1.7,0,0v3.2H93.42v-3.2l0,0-1.05-1.7-.15-.26-.16.26L91,142.56l0,0v3.2H88V131.88a61.19,61.19,0,0,1,9.92-.82,60.13,60.13,0,0,1,10,.84v13.9Zm-.31,5.93h-2.39v-3.46H108v1a10,10,0,0,1-.31,2.46Zm-8.3,0v-3.46h3.44v3.46Zm-5.92,0v-3.46h3.44v3.46ZM88,148.27H91v3.46H88.32a10,10,0,0,1-.31-2.46v-1Zm17.24,7.83v-1.91h1.4A10.08,10.08,0,0,1,105.25,156.1Zm-5.91,3.05v-5h3.44V158a9.77,9.77,0,0,1-3.44,1.14Zm-5.92-1v-3.94h3.44v5A9.78,9.78,0,0,1,93.42,158.13Zm-4.11-3.94H91v2.15A10.16,10.16,0,0,1,89.31,154.19Z"/><g id="g20"><path id="path146" class="cls-12" d="M126.28,262.1a2.44,2.44,0,0,1,1.55-.08l.29.08-.07-.28a2.25,2.25,0,0,0-.54-1,1.77,1.77,0,0,0-1.42-.49,2.59,2.59,0,0,0,.19-.33l.25-.18a2.58,2.58,0,0,1,2.42-.48l.26.09a2.23,2.23,0,0,0-.5-1.22,1.93,1.93,0,0,0-1.88-.55,5.73,5.73,0,0,0,.7-1.17,1.71,1.71,0,0,1,.83-.83,1.9,1.9,0,0,1,1.59,0l.24.11a2.37,2.37,0,0,0-.5-1.44,1.83,1.83,0,0,0-2.07-.39,1.49,1.49,0,0,0,.13-1.32,8.65,8.65,0,0,1,3.59-2.21,49.18,49.18,0,0,0,6.62-2.59,15.34,15.34,0,0,0,3.21-2.14,4,4,0,0,1,1.26-.85,6.48,6.48,0,0,1,2.46-.32,3.91,3.91,0,0,1,1.9.61,1.52,1.52,0,0,1,.45,2.2,4.75,4.75,0,0,1-1.61,1.39,14.38,14.38,0,0,1-2.9,1.22l-7.14,2.2a7.23,7.23,0,0,0-3.4,2,3.88,3.88,0,0,0-.48,4.18v0A2.5,2.5,0,0,1,132,260c-.16.6-.93.77-1.5.63a2.71,2.71,0,0,1-.92-.52,2.54,2.54,0,0,0,.27,1.26,2.13,2.13,0,0,0,1.52,1.13,1.83,1.83,0,0,0,1.81-.63,1.41,1.41,0,0,0,.28-.46,1.4,1.4,0,0,1-.22,1,1.94,1.94,0,0,1-.93.58c.2.05.39.08.59.11a1.94,1.94,0,0,0,1.83-.45,1.42,1.42,0,0,0,.24-.34,1.17,1.17,0,0,1-.66,1.23,3.43,3.43,0,0,1-1.61.3,3.37,3.37,0,0,0,2.24.61,2.19,2.19,0,0,0,1.79-1.22,2.65,2.65,0,0,0,.22-1.89,1.71,1.71,0,0,0-.24-.56,2.18,2.18,0,0,0,1-.66,1.78,1.78,0,0,0,.37-1.22,3.23,3.23,0,0,0-1.61-2.19,4.79,4.79,0,0,1-.05,2,.88.88,0,0,1-.73.69,1.54,1.54,0,0,0,.64-1.22,1.68,1.68,0,0,0-1.07-1.5,3.2,3.2,0,0,0-1.56-.32c.34.29.82.54,1.12.85a1,1,0,0,1,.28.48.65.65,0,0,1-.23.54c-.27.27-.47.29-.66.21a1.13,1.13,0,0,1-.55-.57,2.83,2.83,0,0,1-.26-2,2.56,2.56,0,0,1,.65-1,5.57,5.57,0,0,1,1.77-.87l.47-.16c.06.67-.66,1-1.13,1.19l-.52.19c.2.06.42.1.61.15a2.07,2.07,0,0,0,1.81-.24,1.43,1.43,0,0,0,.48-1,4.23,4.23,0,0,1,0-.43.59.59,0,0,1,.39-.42,1.19,1.19,0,0,0-.24.46,1,1,0,0,0,.18.85.79.79,0,0,1,.13.91.83.83,0,0,1-.68.37,1.59,1.59,0,0,1-.87-.08h0a.45.45,0,0,0,.16.25,1.87,1.87,0,0,0,1.32.36,2,2,0,0,0,1.75-1.55,10,10,0,0,0,.39-1.63.89.89,0,0,1,.42-.65.88.88,0,0,1,.21,1,2.27,2.27,0,0,1-.82.78,3,3,0,0,0,1.51-.27.9.9,0,0,0,.42-.51,9.78,9.78,0,0,1,.26-1.09,2.1,2.1,0,0,1,.22-.3,1.13,1.13,0,0,0,.09,1.1c.19.29.33.63.07.93a1.15,1.15,0,0,1-.81.29,1.54,1.54,0,0,1-.75-.11.79.79,0,0,0,.21.28,1.81,1.81,0,0,0,1.32.34,2.05,2.05,0,0,0,1.7-1.62,9.47,9.47,0,0,0,.35-1.59.78.78,0,0,1,.3-.63,1.18,1.18,0,0,1,.45.5.8.8,0,0,1-.05.55,2.5,2.5,0,0,1-.81.87,1.59,1.59,0,0,0,1.72-.61,4.27,4.27,0,0,0,.33-1.09c0-.13.05-.29.08-.46a1,1,0,0,1,.11-.32,9.06,9.06,0,0,1,1-.79,3.86,3.86,0,0,0,1.85-2.63,3.74,3.74,0,0,0-2.88-4.38,8.59,8.59,0,0,0-3.3-.35,6.09,6.09,0,0,0,.25-4.58c-.12-.33-.4-.83-.58-1.3a2.43,2.43,0,0,1-.18-.66.45.45,0,0,1,.14-.39,2.79,2.79,0,0,1,.49-.24,2.65,2.65,0,0,1,.81-.26,3.44,3.44,0,0,0,1.26-.17,1.42,1.42,0,0,0,.9-1.51,2.18,2.18,0,0,0-.39-1,17.17,17.17,0,0,0-.05-2,6.08,6.08,0,0,0-.72-2.19,1.56,1.56,0,0,0,.65-1.25,1.34,1.34,0,0,0-.81-1.29,1.82,1.82,0,0,0-.37-.13c-.14-.08-.43-.26-.38-.45s.34-.37.53-.49a2.07,2.07,0,0,0-1-.29,1.17,1.17,0,0,0-1.1.64,1,1,0,0,0-1-.3c-.11,0-.43-.08-.39-.25a1.81,1.81,0,0,1,.45-.65,1.93,1.93,0,0,0-1,0,1.26,1.26,0,0,0-.92,1.12,1.4,1.4,0,0,0,.12.9c-.12,0-.17.08-.25.11s-.37,0-.39-.2a1.63,1.63,0,0,1,.12-.65,2.1,2.1,0,0,0-1,.41,1.26,1.26,0,0,0-.36,1.4,1.38,1.38,0,0,0,1.16,1.07,1.28,1.28,0,0,0,1,.53,1.08,1.08,0,0,0,.48-.07c.06,0,.1,0,.15,0a2.3,2.3,0,0,0,.78.46,8.58,8.58,0,0,1,.45,1.9,2.34,2.34,0,0,1-.78,1.86,6.26,6.26,0,0,1-1.45,1,15.53,15.53,0,0,0-2.61,1.68,7.67,7.67,0,0,0-2.38,2.87,4.89,4.89,0,0,0-1.48-1c-.13-.06-.35-.14-.33-.32a1,1,0,0,1,.33-.44,13.82,13.82,0,0,1,1.42-.94c.16-.1.6-.22,1-.44a1.67,1.67,0,0,0,1-1.15,1.38,1.38,0,0,0-.37-1.15,1.46,1.46,0,0,0-.52-.44,1.12,1.12,0,0,0-.89,0,8.12,8.12,0,0,0-3.82-.71,2,2,0,0,1-.37,0,.75.75,0,0,1-.5-.22,1.15,1.15,0,0,1-.09-.42,1.15,1.15,0,0,0-.41-.84,1.43,1.43,0,0,0-.8-.38c-.06-.53.31-.56.66-.66a2.28,2.28,0,0,0-1.26-.51,1.1,1.1,0,0,0-.8.27,2,2,0,0,0-.44.93,1.13,1.13,0,0,0-.6,0c-.31-.49,0-.59.25-.9a2.49,2.49,0,0,0-1.41.28,1.17,1.17,0,0,0-.51.73,1.7,1.7,0,0,0,.22,1l-.14.1a.32.32,0,0,1-.22-.13c-.28-.29-.09-.78,0-1.13a2.13,2.13,0,0,0-1,.44,1.56,1.56,0,0,0-.47,1.64,1.72,1.72,0,0,0,1.25,1.07,1.29,1.29,0,0,0,.77.82,3.72,3.72,0,0,0,1.05.21c.95.08,2.13-.4,3.44.63a4.66,4.66,0,0,0-1.12.27,3,3,0,0,0-1.94,2.09,4.32,4.32,0,0,0,.7,3.29,6.12,6.12,0,0,0,.84,1.06,12.22,12.22,0,0,0-1.34.19,1.63,1.63,0,0,0-.78-1.2c-.07.41-.11.8-.51,1-.1-.44-.46-.65-.87-.83a.93.93,0,0,1-.31,1.05,1,1,0,0,0-1-.63.92.92,0,0,1-.24,1,1.7,1.7,0,0,0-1.14-.66c.2.4.43.77,0,1.1a1.13,1.13,0,0,0-.34-.57.89.89,0,0,0-.61-.26,2.71,2.71,0,0,0-1.31.3c.24.17.62.39.71.68a.48.48,0,0,1,0,.32,2.36,2.36,0,0,1-.49.68c-.1-.27-.35-.93-.5-1.26a1.29,1.29,0,0,0-.73-.63,2.48,2.48,0,0,0-1.26-.11,2.4,2.4,0,0,1-.28,0,6.79,6.79,0,0,1-1.22-.29,36,36,0,0,0-4.23-1.16,11.05,11.05,0,0,0-2.07-.25,2.39,2.39,0,0,0-1.27.23,1.68,1.68,0,0,0-1.33-.73,1.29,1.29,0,0,0-1.17.69,1.87,1.87,0,0,1-1.27-.67,3.52,3.52,0,0,0,0,1.29,1.44,1.44,0,0,0,1,1,1.73,1.73,0,0,0-.15.27,1.41,1.41,0,0,1-.46.08c-.45,0-.53-.35-.72-.69a3.55,3.55,0,0,0,0,1.3,1,1,0,0,0,1,.85,1.37,1.37,0,0,0,.5-.1,2,2,0,0,0,0,.51.87.87,0,0,1-.38.21c-.33.1-.48-.11-.69-.31a2.35,2.35,0,0,0,0,1,1.14,1.14,0,0,0,1.27.81,4,4,0,0,0,.7-.21,1.6,1.6,0,0,0,1.63-.56,2.09,2.09,0,0,0,.37-.61l0-.05a1.68,1.68,0,0,1,1.26-.47,6.82,6.82,0,0,1,1.21.14,6.67,6.67,0,0,1,2.72,1,10.32,10.32,0,0,1,.91.61,7.48,7.48,0,0,0-1.26.14c.77.29,1.42.51,1.7,1.41a1.19,1.19,0,0,0-.31-.19,2.36,2.36,0,0,0-2.06,0,11.29,11.29,0,0,1,.91.92l.09.1c-.26.17-.51.34-.74.51a19,19,0,0,0-2.2,1.92,16.83,16.83,0,0,0-2,2.28,8.37,8.37,0,0,0-.8,1.33,2,2,0,0,0-.18.92,1.22,1.22,0,0,0-1.24.34,1.14,1.14,0,0,0-.3.83.67.67,0,0,1-.52.24c-.19,0-.26-.13-.4-.26l0,.33a1.29,1.29,0,0,0,.68,1.24,1.1,1.1,0,0,0,1.11,0c0,.06.08.26.17.52v0a1.25,1.25,0,0,1-.15.39c-.21.31-.52.2-.83.15a2,2,0,0,0,.52.77,1.4,1.4,0,0,0,1.38.13,2,2,0,0,0,.67-.55,1,1,0,0,1,.35.29c.06.08.07.12,0,.19a1,1,0,0,1-.56.33l-.31.09a2.55,2.55,0,0,0,.87.48,1.43,1.43,0,0,0,1.27-.29.93.93,0,0,0,.26-1.09.67.67,0,0,0,.32-.35,2,2,0,0,0,0-1.59,1.71,1.71,0,0,1,.33-1.72,15.63,15.63,0,0,1,2.4-1.91,10.55,10.55,0,0,1,1.88-1l.14.09a3.28,3.28,0,0,0-1.26,1.57,7.22,7.22,0,0,1,1.85-.43,3.17,3.17,0,0,1,1.83.31,1.4,1.4,0,0,1,.65.73,1.29,1.29,0,0,1,.07.62,1.33,1.33,0,0,1-.24-.23,1.18,1.18,0,0,1-.24-.39l0-.06-.07-.05a1.23,1.23,0,0,0-1.13.13,1.32,1.32,0,0,0-.54.58,1,1,0,0,0,.13.88,1.45,1.45,0,0,0,.48.44l-.14.91,0,.4.31-.24.88-.65a1.34,1.34,0,0,1,.29.23.41.41,0,0,1,.13.37.6.6,0,0,1-.37.46,1.44,1.44,0,0,1-1.17.09,1.23,1.23,0,0,1-.74-.44c-.08-.09-.16-.2-.27-.31v0a.47.47,0,0,1,.18-.3,4.33,4.33,0,0,1,.72-.44,1.34,1.34,0,0,0-1.33-.32,2.78,2.78,0,0,0-.72.45.21.21,0,0,1-.08.06,1.3,1.3,0,0,0-.53.38,3.38,3.38,0,0,0-.61,1.09.61.61,0,0,0-.33.17.84.84,0,0,0-.09.23.61.61,0,0,0,0,.3,1,1,0,0,0,.17.52,10.2,10.2,0,0,0,1.11,1.35,2,2,0,0,0,.43,1.13,5.12,5.12,0,0,0,.79.66,5.15,5.15,0,0,1,.59.45c.16.21.24.41.39.64a2.81,2.81,0,0,0,.74.71,4.24,4.24,0,0,0,1.65.81,3.06,3.06,0,0,0,1.25,1.17.28.28,0,0,0,.18,0,1.91,1.91,0,0,0,.73-.42,2.29,2.29,0,0,0,.78-1.15l.27,0a1.61,1.61,0,0,1,.87.7,4.1,4.1,0,0,1,.48.87l.17-.17a1.82,1.82,0,0,0,.55-2.07,2.08,2.08,0,0,0-1-.92,1.31,1.31,0,0,1,.85-.06,4.39,4.39,0,0,1,1.61,1.11l.26.24,0-.35a3,3,0,0,0-.42-2Z"/><path id="path146_4" data-name="path146 4" class="cls-15" d="M134.78,238.46c-.09.2-.17.41-.26.64a3.2,3.2,0,0,1-1.55,2,3.69,3.69,0,0,1-1.81.28c-.52,0-1.52-.08-2-.09h-.31a6.49,6.49,0,0,1-1-1.21,4,4,0,0,1-.65-3,2.59,2.59,0,0,1,1.74-1.85,4.29,4.29,0,0,1,1.42-.29h.08a7.91,7.91,0,0,0,1.82,0,2.92,2.92,0,0,0,1-.26.85.85,0,0,0,.47-.85c-.1-.61-1.09-.88-1.58-1a12.29,12.29,0,0,0-1.9-.29h0a12.29,12.29,0,0,1,1.89.34c.45.13,1.41.42,1.5,1a.76.76,0,0,1-.44.72,2.47,2.47,0,0,1-.9.21,7.56,7.56,0,0,1-1.84-.18c-1.54-1.44-3-.86-3.89-.93a3.1,3.1,0,0,1-.92-.18.89.89,0,0,1-.65-.79c-.47-.1-1.08-.38-1.21-.89a1.22,1.22,0,0,1,.71-1.51,1.12,1.12,0,0,0,.23.89.74.74,0,0,0,.23.16,1.25,1.25,0,0,0-.16.56.38.38,0,0,0,.09.25c-.09-.24.1-.48.26-.64a3.65,3.65,0,0,1,.45-.32.75.75,0,0,0,.45.18,1.2,1.2,0,0,0,.32.83.92.92,0,0,0,.45.25l.5.07-.48-.13a.85.85,0,0,1-.37-.27,1.16,1.16,0,0,1-.16-.87l0-.19-.2,0a.44.44,0,0,1-.33-.11,1.13,1.13,0,0,1-.32-.43,1.1,1.1,0,0,1-.07-.59c.09-.45.53-.58.91-.66a.91.91,0,0,0,.18.73,1.2,1.2,0,0,0-.21.66,1.14,1.14,0,0,1,.5-.54.84.84,0,0,1,.59,0,1.35,1.35,0,0,0,.34.51,1.1,1.1,0,0,0,.13,1.17c-.29-.36-.08-.88.13-1.22a1.09,1.09,0,0,1-.31-.6,1.41,1.41,0,0,1,.36-.9A1,1,0,0,1,129,229a.82.82,0,0,0-.24.78,2.74,2.74,0,0,0-.5.4A2,2,0,0,1,129,230a1,1,0,0,1,.66.24.91.91,0,0,1,.35.67c0,.1,0,.21,0,.31a.84.84,0,0,1,0,.27.82.82,0,0,1-.42.56h0a.92.92,0,0,0,.59-.53,1,1,0,0,0,.69.35,2.63,2.63,0,0,0,.55,0,8.4,8.4,0,0,1,3.7.75.84.84,0,0,1,1.16.29,1.21,1.21,0,0,1,.3.89,1.3,1.3,0,0,1-.79.89c-.39.2-.8.3-1.06.47a10.07,10.07,0,0,0-1.46.95c-.29.25-.64.68-.33,1a1.11,1.11,0,0,0,.41.29,4.46,4.46,0,0,1,1.46,1ZM114.27,248a2.44,2.44,0,0,1,.49.92c.12.65,0,2.16,1,3.09a11.17,11.17,0,0,0-1.78.94,15.7,15.7,0,0,0-2.46,2,2,2,0,0,0-.37,2.05,1.81,1.81,0,0,1,0,1.37.7.7,0,0,1-.39.35c.12.37.2.69-.13,1a1,1,0,0,1-1.22.09,1.51,1.51,0,0,0,.46-.28.5.5,0,0,0,0-.5,1.65,1.65,0,0,0,.72-.23h0a1.32,1.32,0,0,1-1-.05h0a1,1,0,0,0,.6-.91,1.31,1.31,0,0,0-.59-1.19h0a1.23,1.23,0,0,1,.42,1.17.86.86,0,0,1-.28.52.61.61,0,0,1-.63.12,2.18,2.18,0,0,1-.74.65.9.9,0,0,1-1.22-.32.55.55,0,0,0,.56-.22,1.06,1.06,0,0,0,.15-.33.82.82,0,0,0,.65,0,.65.65,0,0,1-.39-.13,1,1,0,0,1-.38-.68,1.09,1.09,0,0,0,.66-.19,1,1,0,0,0,.44-.85.88.88,0,0,1-.53.7.83.83,0,0,1-.88-.1l-.09.09a.89.89,0,0,1-1.37-.63,1.06,1.06,0,0,0,.64-.16.91.91,0,0,0,.56.31.73.73,0,0,1-.36-.64.89.89,0,0,1,.27-.67,1.08,1.08,0,0,1,1.07-.26l.28.11-.06-.28a1.65,1.65,0,0,1,.21-.94,7.77,7.77,0,0,1,.77-1.26,17,17,0,0,1,2-2.25,19.33,19.33,0,0,1,2.15-1.89l.75-.51Zm13.36,4.33a1.11,1.11,0,0,1,.1-.81,1.36,1.36,0,0,1,1.15-.61l.33,0a1.8,1.8,0,0,0-2-.68,3,3,0,0,0-1.27.91.59.59,0,0,1-.18-.34A.94.94,0,0,1,126,250l.26-.41-.45.17a2.87,2.87,0,0,0-1.35,1.15,1.14,1.14,0,0,1,.65-1.37,2.11,2.11,0,0,0-1.22-.06,2.22,2.22,0,0,0-1.33,1.24,1,1,0,0,1-.35-1.09,1.08,1.08,0,0,0-.63.33,1.51,1.51,0,0,0-.33.66,1,1,0,0,1-.32-.68.73.73,0,0,1,.19-.51l.28-.32a1.61,1.61,0,0,0-.87.24,2.5,2.5,0,0,0-.46.43,5.06,5.06,0,0,1,1-1.46,3.52,3.52,0,0,0-1.62.75,2,2,0,0,0-.07-1.49l-.14-.26-.15.26a11,11,0,0,1-.79,1.28,3,3,0,0,1,.57-1.71l.27-.35-.44.09a1.2,1.2,0,0,0-.46.24,3.42,3.42,0,0,0-.62.58,2.79,2.79,0,0,0-.51-1.28,2.51,2.51,0,0,0-1.34-1,11.49,11.49,0,0,0-1.43-1,7.19,7.19,0,0,0-2.83-1,6.57,6.57,0,0,0-1.26-.14,2,2,0,0,0-1.57.66l0,0a2.23,2.23,0,0,1-.34.54,1.29,1.29,0,0,1-1.06.5c-.25,0-.3-.08-.43,0a2.73,2.73,0,0,1-.62.18.84.84,0,0,1-1-.86.84.84,0,0,0,.47,0,1.34,1.34,0,0,0,.43-.22,1.87,1.87,0,0,0,.63.65,1.88,1.88,0,0,1-.39-.72,1.15,1.15,0,0,1,0-.61,1.16,1.16,0,0,0,.68.13.83.83,0,0,0,.7-.71h0a.73.73,0,0,1-.71.54,1,1,0,0,1-.84-.56,1.11,1.11,0,0,1-.64.21.79.79,0,0,1-.75-.93,1.14,1.14,0,0,0,.92.07,1.11,1.11,0,0,0,.28.48,1.07,1.07,0,0,1,0-.64,1.1,1.1,0,0,1,.24-.4,1.44,1.44,0,0,0,1,.35c.3,0,.8-.2.88-.53h0c-.12.29-.6.39-.88.37a1.1,1.1,0,0,1-.81-.45c-.63-.1-1-.27-1.23-1a1.44,1.44,0,0,1-.06-.46,1.85,1.85,0,0,0,.91.32,1.5,1.5,0,0,0,.14.72h0a1,1,0,0,1,0-.43,1.88,1.88,0,0,1,.25-.56.9.9,0,0,1,.87-.41,1.43,1.43,0,0,1,1.2.88c.27-.3.62-.39,1.33-.39a11.78,11.78,0,0,1,2,.24,35.65,35.65,0,0,1,4.18,1.15,6.72,6.72,0,0,0,1.61.35h0a2.05,2.05,0,0,1,1.09.08,1,1,0,0,1,.56.48c.12.24.36.89.5,1.25.07.19.1.39.18.58a1.08,1.08,0,0,0,.31.46,3.08,3.08,0,0,0,.44.27,3.54,3.54,0,0,1,.41.26,2.44,2.44,0,0,1,.89,1.69h0a2.48,2.48,0,0,0-.8-1.79,4,4,0,0,0-.4-.32,3.13,3.13,0,0,1-.38-.28,1.09,1.09,0,0,1-.25-.6,4.43,4.43,0,0,0,.7-1,.85.85,0,0,0,0-.54,1.2,1.2,0,0,0-.35-.51,1.09,1.09,0,0,1,1,.14,1.55,1.55,0,0,1,.3.87c.44-.29.85-.48.83-1.11a.75.75,0,0,1,.36.64,1.42,1.42,0,0,0,.81-1.08.83.83,0,0,1,.33.71,1.35,1.35,0,0,0,.91-1c.2.15.22.5.26.73.55-.23.78-.37,1-.9a2.16,2.16,0,0,1,.27.74,14,14,0,0,0-1.58.53,9.74,9.74,0,0,0-2.71,1.6,9.7,9.7,0,0,1,2.76-1.44,14,14,0,0,1,1.5-.42,10.28,10.28,0,0,1,2.41-.32c.5,0,1.54.08,2.07.1a5.9,5.9,0,0,0,1.1,0l-.45.31a13.78,13.78,0,0,1-1.44.16c-.5,0-1,.06-1.5.13A11.9,11.9,0,0,0,126,243a12,12,0,0,1,2.91-.61c.49,0,1-.06,1.49-.06s1,0,1.52-.11l1.44-.94a3.64,3.64,0,0,0,1.5-2,7.31,7.31,0,0,1,2.7-3.7,15.4,15.4,0,0,1,2.57-1.66,6.31,6.31,0,0,0,1.46-1,2.75,2.75,0,0,0,.91-2.15,8.59,8.59,0,0,0-.48-2.07l0-.12a.92.92,0,0,1-.52-.19,2.87,2.87,0,0,1-.31-.23.52.52,0,0,0-.26-.08l-.25.05a.74.74,0,0,1-.4,0,.93.93,0,0,1-.71-.51,1,1,0,0,1-1-.82,1,1,0,0,1,.55-1.26.74.74,0,0,0,0,.21.58.58,0,0,0,.43.47.68.68,0,0,0-.11.34.89.89,0,0,0,.23.6.68.68,0,0,1,.07-.79,1.31,1.31,0,0,1,.51-.27,1,1,0,0,0,.75.37,1.49,1.49,0,0,0,.08.41,1.2,1.2,0,0,0,.67.77,1.53,1.53,0,0,0,.5.1,1.29,1.29,0,0,1-.47-.15,1.08,1.08,0,0,1-.54-.77,1.94,1.94,0,0,1,0-.59.81.81,0,0,1-.5-.12,1.18,1.18,0,0,1-.43-1.17.91.91,0,0,1,.54-.81,1,1,0,0,1,.48-.09,1.05,1.05,0,0,0-.15.3.54.54,0,0,0,.09.47.56.56,0,0,0,.27.17.54.54,0,0,0-.1.2,1,1,0,0,0,0,.53,1,1,0,0,1,.17-.46.77.77,0,0,1,.79-.22.6.6,0,0,1,.37.32,1.67,1.67,0,0,0,0,.83,1.21,1.21,0,0,0,.44.68,1.06,1.06,0,0,0-.12.55.84.84,0,0,0,.26.54.8.8,0,0,1-.19-.55,1,1,0,0,1,.23-.57,1.06,1.06,0,0,1-.39-.69,1.65,1.65,0,0,1,.19-.87,1,1,0,0,1,.39-.46,1.05,1.05,0,0,1,.8-.08.92.92,0,0,0-.2.34.67.67,0,0,0,.28.66l-.19.07a1,1,0,0,0-.5.59.86.86,0,0,1,.56-.43,1.11,1.11,0,0,1,.74.07,1,1,0,0,1,.68,1,1.34,1.34,0,0,1-.43.92,1.54,1.54,0,0,1-.87.41,1.9,1.9,0,0,1-.78-.11,2,2,0,0,0,.77.28,1.52,1.52,0,0,0,.7-.08,6.27,6.27,0,0,1,.67,2,18.53,18.53,0,0,1,0,2l0,.11a1.42,1.42,0,0,1,.35.83,1.07,1.07,0,0,1-.7,1.17,3.16,3.16,0,0,1-1.13.15,2.52,2.52,0,0,0-1,.29,3.45,3.45,0,0,0-.54.28.87.87,0,0,0-.27.68,2.35,2.35,0,0,0,.18.74c.19.51.5,1,.61,1.3a6.51,6.51,0,0,1-.37,4.62l-.14.27.32,0a8.71,8.71,0,0,1,3.46.3,3.39,3.39,0,0,1,2.63,4,3.53,3.53,0,0,1-1.7,2.4,8.92,8.92,0,0,0-1.06.83.72.72,0,0,0-.22.5c0,.18,0,.37-.07.43a5.09,5.09,0,0,1-.3,1,.87.87,0,0,1-.58.4,1.2,1.2,0,0,0,.32-1.12,1.42,1.42,0,0,0-.8-.83,1.18,1.18,0,0,0-.6,1,9.29,9.29,0,0,1-.32,1.53,1.83,1.83,0,0,1-1.43,1.37.91.91,0,0,0,.53-.81,1.5,1.5,0,0,0-.26-.74.7.7,0,0,1-.09-.76,7.15,7.15,0,0,1,.44-.68l.28-.48-.5.24a2.06,2.06,0,0,0-1,.9,5.13,5.13,0,0,0-.28,1.13c-.12.31-.36.39-.65.48a1,1,0,0,0,.15-.22,1.15,1.15,0,0,0,.1-.7,1.58,1.58,0,0,0-.57-.88,1.24,1.24,0,0,0-.8,1,8.5,8.5,0,0,1-.37,1.59,1.84,1.84,0,0,1-1,1.23,1.13,1.13,0,0,1-.51.09,1,1,0,0,0,.45-.38,1.14,1.14,0,0,0-.13-1.29.63.63,0,0,1-.13-.56,1.64,1.64,0,0,1,.8-.92,3.24,3.24,0,0,0,.49-.36,2,2,0,0,0-.93.18c-.44.15-1,.38-1.17.88,0,.19,0,.38,0,.5-.09.78-.68,1-1.4,1a1.63,1.63,0,0,0,.75-.83,1.12,1.12,0,0,0-.05-.87l-.81.25a5.72,5.72,0,0,0-1.87,1,2.92,2.92,0,0,0-.74,1.13,3,3,0,0,0,.27,2.29,1.48,1.48,0,0,0,.74.76,1,1,0,0,0,1-.3,1,1,0,0,0,.31-.83A1.39,1.39,0,0,0,135,257a1.32,1.32,0,0,1,.94,1.21,1.16,1.16,0,0,1-.46.94,3.18,3.18,0,0,1-1,.43,2.06,2.06,0,0,0,1.54.07,1.32,1.32,0,0,0,.64-.79,4.34,4.34,0,0,0,.15-1.41,2.33,2.33,0,0,1,.88,1.48,1.59,1.59,0,0,1-1.51,1.64,3.07,3.07,0,0,1-1.13,0,1.49,1.49,0,0,0,1.21.3,1.84,1.84,0,0,1,.27.58,2.31,2.31,0,0,1-.19,1.65,1.88,1.88,0,0,1-1.53,1,2.76,2.76,0,0,1-1-.1,1.81,1.81,0,0,0,.57-.21,1.48,1.48,0,0,0,.72-.72,2.53,2.53,0,0,0-.21-1.94l-.11.61a1.75,1.75,0,0,1-.37.66,1.57,1.57,0,0,1-1.23.39,1.75,1.75,0,0,0,.42-2l-.15-.46a3.42,3.42,0,0,1-.61,1.24,1.45,1.45,0,0,1-1.48.53,1.81,1.81,0,0,1-1.44-1.4,1.8,1.8,0,0,0,1.18.21,1.33,1.33,0,0,0,1.15-.91,3,3,0,0,0-.28-1.83,3.49,3.49,0,0,1,.43-3.85,7,7,0,0,1,3.25-1.87l7.12-2.18a15.09,15.09,0,0,0,3-1.27,5.05,5.05,0,0,0,1.72-1.5,1.85,1.85,0,0,0-.55-2.63,4.08,4.08,0,0,0-2.07-.68,6.79,6.79,0,0,0-2.59.35,4.1,4.1,0,0,0-1.37.91,14.45,14.45,0,0,1-3.14,2.07,49.63,49.63,0,0,1-6.58,2.6,9,9,0,0,0-3.6,2.16ZM118,256.55l.09,0,.29.09L118,257l0-.44Zm1.59-1.26a1.74,1.74,0,0,0,0-.92,2,2,0,0,0-.84-.9,3.56,3.56,0,0,0-2-.34,5,5,0,0,0-1.13.2,5.35,5.35,0,0,1,1.21-1.07l-.26-.11c-1.54-.7-1.31-2.41-1.48-3.31a3.42,3.42,0,0,0-.87-1.44c-.26-.3-.39-.44-.52-.57A1.82,1.82,0,0,1,115,247a2.43,2.43,0,0,1,1,1.09,4.62,4.62,0,0,1,.56,1.41,1.82,1.82,0,0,1,0,.77,1.88,1.88,0,0,0,.08-.78,4.73,4.73,0,0,0-.42-1.51,7.77,7.77,0,0,0-.35-.71h0a2.14,2.14,0,0,0-.91-1.58,2.22,2.22,0,0,1,1.85.92,2.48,2.48,0,0,1,.39.88,1.09,1.09,0,0,1,0,.54,1.52,1.52,0,0,0-.06.2s0,.09,0,.12l.11.29.17-.24a4.79,4.79,0,0,1,.79-.89,3.46,3.46,0,0,0-.31,1.78l0,.31.24-.2a4.26,4.26,0,0,0,.74-1c.09-.13.18-.25.24-.36a2.42,2.42,0,0,1,0,.8,2.78,2.78,0,0,1-.41.91,1.34,1.34,0,0,0-.22.35.2.2,0,0,0,.11.28l.11,0,.06-.1a3.52,3.52,0,0,1,1.31-1.32,3.34,3.34,0,0,0-.42.92,1.33,1.33,0,0,0,.11.9l.18-.32a2.41,2.41,0,0,1,.65-.78,1.18,1.18,0,0,0,.15.84,2.65,2.65,0,0,0,.77.76,1.44,1.44,0,0,1,.3-1.14,1.35,1.35,0,0,0,.31.62,2.09,2.09,0,0,0,.83.57,3.65,3.65,0,0,0,.87.19,2.86,2.86,0,0,1-.8-.35,1.57,1.57,0,0,1-.26-.19,1.76,1.76,0,0,1,1.59-1.27,1.4,1.4,0,0,0-.3,1,2.09,2.09,0,0,0,.31.82,3,3,0,0,0,.07.85,2.71,2.71,0,0,1,.17-1.09h0a.42.42,0,0,1,0-.1,2.09,2.09,0,0,1,.84-.93,1.12,1.12,0,0,0,.29,1.09,2,2,0,0,0-.17.76,3.21,3.21,0,0,0,.07.88,3.11,3.11,0,0,1,.09-.86,2.08,2.08,0,0,1,.34-.72,2.23,2.23,0,0,1,1.79-1,1.37,1.37,0,0,1,.57.19,1.77,1.77,0,0,0-1,.73,1.57,1.57,0,0,0,0,1.4,1.47,1.47,0,0,1-.37,1.48h0l0,0a5.2,5.2,0,0,1-.86,1h0a11,11,0,0,0-.37-1.5l-.17-.51-.15.52a2.5,2.5,0,0,1-.44.79,2.2,2.2,0,0,0-1.17-2.18h0a2.59,2.59,0,0,1,.75,2.67l-.11.51.39-.34a3.36,3.36,0,0,0,.71-.91,5.8,5.8,0,0,1,.25,1.31v.22a1.94,1.94,0,0,0-.06.4,3.25,3.25,0,0,0,.07.89,3.11,3.11,0,0,1,.09-.86,1.92,1.92,0,0,1,.24-.57,5,5,0,0,0,1.11-1.25,2.57,2.57,0,0,1,1.4-.31,1.21,1.21,0,0,1,.77.42,1.79,1.79,0,0,1,.33.7,2.18,2.18,0,0,0-1.55.08,2.1,2.1,0,0,0-1,1,8.19,8.19,0,0,1-.76,1.26l0-.24-.24.48a5.32,5.32,0,0,1-1.07,1.41,4.84,4.84,0,0,1-.92.66,11.33,11.33,0,0,1,1.06-1.68,2.31,2.31,0,0,0,.36-1.06,2.5,2.5,0,0,0-.35-1.27l-.32-.61v.61a2.35,2.35,0,0,1-1.22,1.87,2.78,2.78,0,0,0,0-1.87,2.64,2.64,0,0,1-.11-1.92l.13-.37a2,2,0,0,0-1.12.8,2.78,2.78,0,0,0-.32,1.45c0,.31,0,.59,0,.85a.85.85,0,0,0-.24-.48,5.16,5.16,0,0,0-1.87-.74,2.57,2.57,0,0,1-.57-.24Zm6.93,2.79a1.76,1.76,0,0,1,1.94.36,2,2,0,0,1,.29.52,3,3,0,0,0-2.3.51,4.29,4.29,0,0,0,.07-1.39Zm-.77,2.67a1.39,1.39,0,0,1,1.47.3,1.23,1.23,0,0,1,.37.57,3.29,3.29,0,0,0-1.56.21,2.51,2.51,0,0,0-1.05-.56,3.57,3.57,0,0,0,.77-.52Zm-10.37.18c.15.07.31.12.46.18l.43.17a8,8,0,0,1,1,.43,4.59,4.59,0,0,1,.86.57,3.6,3.6,0,0,1,.71.75.07.07,0,0,0,.09,0,.06.06,0,0,0,0-.08,4.41,4.41,0,0,0-.67-.84c-.14-.13-.29-.26-.46-.39a2,2,0,0,0-.18-.74,1.19,1.19,0,0,0-.25-.38.72.72,0,0,0-1.25.1s0,0,0,.05l-.94-.45a8.71,8.71,0,0,1-.91-1.12,1,1,0,0,1-.12-.28.23.23,0,0,0,.14,0,.46.46,0,0,0,.37-.21.29.29,0,0,0,.07-.12,2.46,2.46,0,0,1,.27.17,2.06,2.06,0,0,1,.59.55h0a2.17,2.17,0,0,0-.47-.69,5.91,5.91,0,0,0-.52-.48,3.31,3.31,0,0,1,.54-.9.86.86,0,0,1,.42-.28.47.47,0,0,1,.45.1,4.1,4.1,0,0,1,.66.68,1.63,1.63,0,0,0,.89.52h0a1.81,1.81,0,0,0,1.37-.11.92.92,0,0,0,.57-.69.78.78,0,0,0-.19-.57,2,2,0,0,0-1.12-.68,1.09,1.09,0,0,1-.65-.43.64.64,0,0,1,0-.7,1.4,1.4,0,0,1,.34-.3.84.84,0,0,1,.81-.11,1.27,1.27,0,0,0,.24.41,2.45,2.45,0,0,0,1.22.74,5.49,5.49,0,0,1,1.74.68.51.51,0,0,1,.2.37,2.61,2.61,0,0,1-.11.72l-.11.41a1.5,1.5,0,0,0,.81-1.09,8.94,8.94,0,0,0,0-1,2.41,2.41,0,0,1,.12-1,1.54,1.54,0,0,1,.41-.59,3.75,3.75,0,0,0,.22,1.74,2.48,2.48,0,0,1-.08,2.09l-.21.5c.17-.11.35-.26.52-.37a3.71,3.71,0,0,0,1.55-1.78,1.73,1.73,0,0,1-.16,1.56,9.79,9.79,0,0,0-1.22,2.1l-.06.23.24,0a2.82,2.82,0,0,0,1.39-.85,5.49,5.49,0,0,0,.84-1,3,3,0,0,1-.16,1.36,2.55,2.55,0,0,1-1.53,1.33l-.52.19.54.11a2.32,2.32,0,0,1,1.48.81,2.58,2.58,0,0,1,.35,1.44,4.48,4.48,0,0,0-1.46-.92,2,2,0,0,0-1.43.26l-.61.29.58,0a1.47,1.47,0,0,1,1.18.83,1.45,1.45,0,0,1-.35,1.52,2.16,2.16,0,0,0-.26-.48,1.57,1.57,0,0,0-1.36-.85,1.59,1.59,0,0,0-.22-.9,1.66,1.66,0,0,1,.06.82,2.23,2.23,0,0,1-.87,1.31,1.64,1.64,0,0,1-.6.34,3.28,3.28,0,0,1-1.21-1.13,4.34,4.34,0,0,1-.5-1.65,3.42,3.42,0,0,0,.16,1.52,4,4,0,0,1-1.28-.68,2.62,2.62,0,0,1-.65-.65c-.13-.2-.25-.42-.43-.65a3,3,0,0,0-.64-.53,5.18,5.18,0,0,1-.74-.59,1.93,1.93,0,0,1-.33-.69Zm-1.3-2.12a.46.46,0,0,1,.09-.3c0-.05,0-.09.11-.1l.34.18-.08.09a.42.42,0,0,1-.42.14Zm8.33,4.7M116.33,257l-.17-.14a1.57,1.57,0,0,0-.25-.14,2.14,2.14,0,0,1,.36-.21c.28-.09.34,0,.48.07a1.13,1.13,0,0,0-.2.13A1.31,1.31,0,0,0,116.33,257Z"/><path id="polygon222" class="cls-17" d="M142.42,243l-.56.33Z"/><path id="path146_5" data-name="path146 5" class="cls-13" d="M117.63,261.63l-.25-.17c-.19-.12-.39-.24-.62-.36l0,0a.37.37,0,0,0,0-.46.12.12,0,0,0-.07-.05h.11a.93.93,0,0,1,.55.5,1.78,1.78,0,0,1,.2.56Zm-1.06-.63-.14-.06-.08-.05a.8.8,0,0,1,.13-.22.13.13,0,0,1,.1.06.23.23,0,0,1,0,.27Z"/><path id="path190" class="cls-12" d="M117.41,250.59a3.42,3.42,0,0,1,.72.65,3.77,3.77,0,0,1,.59,1,1.45,1.45,0,0,0,.18-.89l-.06-.55.36.42a3.29,3.29,0,0,1,.55,1,1,1,0,0,0,.26-1h0l0,0h0s.62.15.78,1.29l0-.08.1-.23.61.62a7.19,7.19,0,0,0-.45-1.13l-.18-.36.39.12a2.38,2.38,0,0,1,1.2,1l.35-.7h0a5.76,5.76,0,0,1-.25,1.16l-.18.19-.1-.24a2,2,0,0,0-.72-.86c.25.63.45,1.37.46,1.4l.17.63L121,252.91a2.57,2.57,0,0,0-.2.77,2,2,0,0,0,0,.49,3.36,3.36,0,0,0,.28,1,4.23,4.23,0,0,1-.48-.92,3,3,0,0,1-.12-.52,2.35,2.35,0,0,1,0-.45,5,5,0,0,0-.31-1.56v0a1.85,1.85,0,0,1-.31,1.3c-.08.13-.37.48-.37.48v-.62a2.08,2.08,0,0,0-.28-1,1.31,1.31,0,0,1-.47.84l-.19.14h0l-.07-.23a3.59,3.59,0,0,0-.84-1.46c-.05.23-.33.68-.39.9h0a5.78,5.78,0,0,0,.1-1.19c0-.12,0-.21,0-.33Zm27-18.61a6.89,6.89,0,0,0-.12-1.63,11,11,0,0,0-.41-1.6,12.15,12.15,0,0,1,.55,1.57,7.35,7.35,0,0,1,.26,1.67.14.14,0,0,1-.13.15.15.15,0,0,1-.15-.14h0Zm-.63,1.93a1.44,1.44,0,0,0,.82-.42.91.91,0,0,0,.2-.42,1.07,1.07,0,0,0,0-.5,1.27,1.27,0,0,1,.12.51,1,1,0,0,1-.16.51,1.59,1.59,0,0,1-.61.54,1.56,1.56,0,0,1-.26.11.17.17,0,0,1-.11-.32Zm-23.81,25,.39-.54a3.55,3.55,0,0,0,.34-.55,1.29,1.29,0,0,0,.17-.59.85.85,0,0,0-.22-.58.73.73,0,0,1,.41.57,1.2,1.2,0,0,1-.14.7,2.58,2.58,0,0,1-.41.57,2.45,2.45,0,0,1-.54.42ZM117.08,260a1,1,0,0,1,.53-.47,1.84,1.84,0,0,1,.69-.13,2,2,0,0,1,.35,0,2.15,2.15,0,0,0,.34,0h.33a.5.5,0,0,0,.31-.12.55.55,0,0,1-.29.18,2.14,2.14,0,0,1-.35.06c-.23,0-.45,0-.67,0a3.29,3.29,0,0,0-.64.11,1.79,1.79,0,0,0-.6.27Zm3.63,3a1.91,1.91,0,0,0,.6.19,1.3,1.3,0,0,0,.59,0,1.07,1.07,0,0,0,.46-.32,2.29,2.29,0,0,0,.28-.51l.22.21a2.63,2.63,0,0,1-.53.15,2.38,2.38,0,0,1-.54,0,2,2,0,0,1-1-.4l-.44-.35.56.07a2.81,2.81,0,0,0,.65,0,2.59,2.59,0,0,0,.62-.1,1.12,1.12,0,0,0,.49-.31.89.89,0,0,0,.18-.53l.24.13a4.77,4.77,0,0,1-.44.24,3.38,3.38,0,0,1-.48.16,2.15,2.15,0,0,1-.51,0,1.19,1.19,0,0,1-.52-.14l-.43-.22.48-.07a3.39,3.39,0,0,0,.61-.15,2.84,2.84,0,0,0,.55-.28.82.82,0,0,0,.32-1l.25.07-.21.16-.23.14a2.07,2.07,0,0,1-.51.19l-.56.12.43-.39a2.5,2.5,0,0,0,.31-.34,2.24,2.24,0,0,0,.22-.4,1,1,0,0,0,.07-.41.67.67,0,0,0-.15-.38l.28,0c0,.13-.11.25-.17.37s-.14.24-.22.35a1.92,1.92,0,0,1-.26.32,1.54,1.54,0,0,1-.36.25l-.33.16.11-.34a3.84,3.84,0,0,0,.16-.67,1.22,1.22,0,0,0,0-.33.58.58,0,0,0-.07-.3l.12,0a2.46,2.46,0,0,1-.25.45,1.24,1.24,0,0,1-.37.35,1,1,0,0,0,.3-.39,3,3,0,0,0,.19-.46l0-.13.08.11a.75.75,0,0,1,.15.37,1.53,1.53,0,0,1,0,.37c0,.12,0,.25,0,.37s0,.24-.06.36l-.23-.19a.73.73,0,0,0,.28-.19,2,2,0,0,0,.23-.27c.07-.1.13-.21.19-.31a2.52,2.52,0,0,0,.15-.34l.11-.27.17.24a1,1,0,0,1,.2.53,1.3,1.3,0,0,1-.09.56,2.28,2.28,0,0,1-.26.46,4.36,4.36,0,0,1-.35.4l-.14-.28a1.35,1.35,0,0,0,.42-.16.82.82,0,0,0,.2-.12l.18-.13.18-.16.07.22a1.2,1.2,0,0,1,0,.75,1.25,1.25,0,0,1-.45.6,2.88,2.88,0,0,1-.63.32,3.76,3.76,0,0,1-.68.17l0-.29a1.21,1.21,0,0,0,.82.06,2.07,2.07,0,0,0,.42-.14,2.52,2.52,0,0,0,.4-.21l.24-.16v.29a1.12,1.12,0,0,1-.25.73,1.33,1.33,0,0,1-.63.4,2.87,2.87,0,0,1-.71.13,4.15,4.15,0,0,1-.7,0L121,262a1.6,1.6,0,0,0,.83.34,1.78,1.78,0,0,0,.46,0,1.44,1.44,0,0,0,.43-.13l.38-.19-.16.39a1.51,1.51,0,0,1-.38.56,1.2,1.2,0,0,1-.61.32,1.42,1.42,0,0,1-.65,0,2.1,2.1,0,0,1-.58-.29Zm-.31.46a2.14,2.14,0,0,0,.24,1.54A1,1,0,0,1,120.4,263.41Z"/></g><g id="g27"><path id="path302" class="cls-12" d="M56.34,264.67a3.76,3.76,0,0,0,1.77-.17h0a2.56,2.56,0,0,0,1.09-.65,3.64,3.64,0,0,0,.89-3,3.4,3.4,0,0,0-.22-.91,2,2,0,0,0-1.17-1.22.21.21,0,0,1-.16-.15.59.59,0,0,1,0-.37,4.16,4.16,0,0,1,1.06-1.42,21,21,0,0,1,6.54-3.9h0l.7-.24.16.21a3.65,3.65,0,0,0-.36.21c-.14.07-.07.29.09.29.48.09.83.64,1,.91a1.19,1.19,0,0,0-1.1.43.15.15,0,0,0,0,.26,1.53,1.53,0,0,1,.86,1,1.3,1.3,0,0,0-1.07.46.15.15,0,0,0,.08.24,1.47,1.47,0,0,1,.8.77,1,1,0,0,0-1.12.84.14.14,0,0,0,.13.18,2,2,0,0,1,1.07.57,1.45,1.45,0,0,0-1,.52,1.86,1.86,0,0,0-.27,1.37.15.15,0,0,0,.08.11.18.18,0,0,0,.17,0,2.65,2.65,0,0,1,1.28-.34,1.76,1.76,0,0,0-.62.59,1.17,1.17,0,0,0-.19.79,2.06,2.06,0,0,0,.73,1.2.17.17,0,0,0,.12.05c.08,0,.12-.07.15-.14a1.81,1.81,0,0,1,1.61-1.29,1.2,1.2,0,0,0,.32,1.49.13.13,0,0,0,.14,0,.14.14,0,0,0,.12-.13,1,1,0,0,1,.22-.35,1.26,1.26,0,0,1,1-.32,7,7,0,0,0,1.84-.09,1.73,1.73,0,0,0,.72-.35,1,1,0,0,0,.28-.57,6.59,6.59,0,0,0,2.06-.63,2.4,2.4,0,0,0,1.17-1.14,2.09,2.09,0,0,0-.3-1.91.15.15,0,0,0-.16-.09.17.17,0,0,0-.13.11,1,1,0,0,1-.3.48.67.67,0,0,1-.43.2,1.33,1.33,0,0,1-.74-.21.15.15,0,0,0-.2,0,.85.85,0,0,1-.45.2,2.35,2.35,0,0,1-1.61-.46,1.51,1.51,0,0,1-.53-.41s-.09-.1-.06-.16l.08-.06a1.24,1.24,0,0,1,.37-.11c.36-.06.72-.09,1.07-.14.73-.08,1.72-.21,2.18-.25a.74.74,0,0,0,.31-.12.34.34,0,0,0,.17-.29.4.4,0,0,0-.27-.32,2,2,0,0,0-.65-.14c-.6-.06-1.38-.05-2.09-.09a4.34,4.34,0,0,1-1.34-.24c-.49-.19-.56-.58-.33-1.05a4.56,4.56,0,0,1,1.69-1.68.13.13,0,0,0,.06-.15.17.17,0,0,0-.1-.12,3.61,3.61,0,0,0-.53-.12c.11-.21.22-.43.33-.67a20.43,20.43,0,0,1,7.26,1,4.52,4.52,0,0,1,1.57.89c.14.14.28.36.08.52a2,2,0,0,0-.58,1.59,3.27,3.27,0,0,0,.15.92v0a3.57,3.57,0,0,0,2,2.33,3.39,3.39,0,0,0,2.91-.35,3.62,3.62,0,0,0,1.21-1.22,6.36,6.36,0,0,0,.81-3.61A25.85,25.85,0,0,1,90,246.31a22.59,22.59,0,0,1,1.85-4.44,7.54,7.54,0,0,1,1.72-2.14.67.67,0,0,0,.3-.63.76.76,0,0,0-.47-.57c-.54-.23-1.43-.13-2.71.68a8.78,8.78,0,0,0-1.63,1.37c-1.63,1.76-2.83,4.74-3.58,7A17.38,17.38,0,0,1,86.1,245,22.59,22.59,0,0,1,88,240.54a7.81,7.81,0,0,1,1.74-2.14.66.66,0,0,0,.29-.63.78.78,0,0,0-.48-.56c-.54-.24-1.43-.14-2.71.67a8.71,8.71,0,0,0-1.61,1.37c-1.93,2.09-3.26,5.8-3.94,8.05a21.67,21.67,0,0,1,.65-3.1,22.71,22.71,0,0,1,1.7-4.34,7.31,7.31,0,0,1,1.64-2.09.69.69,0,0,0,.28-.63.74.74,0,0,0-.48-.54c-.52-.22-1.39-.09-2.61.71a8.32,8.32,0,0,0-1.55,1.38c-1.77,2-3.06,5.8-3.76,8.12a20.83,20.83,0,0,1,.3-2.7,13.65,13.65,0,0,1,2.17-5.27.66.66,0,0,0-.41-1.08c-.52-.11-1.32.15-2.37,1.06a7.1,7.1,0,0,0-1.29,1.44,17.07,17.07,0,0,0-2.06,4.61,11.86,11.86,0,0,0-.88-1.74,7.65,7.65,0,0,0-1.17-1.46,13,13,0,0,0-2.62-5.8.16.16,0,0,0-.18-.06l-.06,0,0-.13a5,5,0,0,1,.52-1.26,5.67,5.67,0,0,1,.32-.53.84.84,0,0,1,.2-.23,2.3,2.3,0,0,1,1.09-.35.75.75,0,0,1,.21,0,1.57,1.57,0,0,0,.94-.1.85.85,0,0,0,.55-.6,1.78,1.78,0,0,0,0-.25c.23-.15.73-.57.57-1.1a1,1,0,0,0-.46-.61.94.94,0,0,0-.62-.19.18.18,0,0,0-.14.08.16.16,0,0,0,0,.15,2.73,2.73,0,0,1,.1.38.18.18,0,0,1,0,.16.76.76,0,0,1-.16.14,1.77,1.77,0,0,1-.28.11l0-.09a1.06,1.06,0,0,0,.09-.6,2.26,2.26,0,0,0,.27-.36,1.08,1.08,0,0,0,.13-.87A.92.92,0,0,0,71,229a.25.25,0,0,0-.24.08.14.14,0,0,0,0,.17c0,.05.07.07.1.12a.64.64,0,0,1,.13.24.17.17,0,0,1,0,.14.77.77,0,0,1-.42.28.4.4,0,0,0-.13.07.93.93,0,0,0-.31.19,1,1,0,0,0-.27.32.8.8,0,0,0-.07.39l-.06,0a.14.14,0,0,0,0-.06,1,1,0,0,0,0-.67s0-.05,0-.08a1.65,1.65,0,0,0,.1-.48,1,1,0,0,0-.26-.84.92.92,0,0,0-1.08-.21c-.07,0-.15.07-.18.15a.14.14,0,0,0,0,.14c0,.09.12.08.2.11a.77.77,0,0,1,.21.16.21.21,0,0,1,0,.15.79.79,0,0,1-.09.22,1.18,1.18,0,0,1-.22.26h0a.76.76,0,0,0-.33.23,1.29,1.29,0,0,0-.26.77,2.49,2.49,0,0,1-.61,1.86l-.17.15a3.53,3.53,0,0,0-.46-.15.69.69,0,0,0-.35,0,.88.88,0,0,0-.57.39,1,1,0,0,1-.23.16.62.62,0,0,1-.18.06s-.06,0-.08,0a.42.42,0,0,1-.09-.18s0-.08,0-.11a.18.18,0,0,0-.07-.08.27.27,0,0,0-.12,0,.33.33,0,0,0-.16.15.87.87,0,0,0-.07.92.74.74,0,0,0,.35.35,1.21,1.21,0,0,0,.44.1,2.12,2.12,0,0,0,.5-.05.7.7,0,0,0,.48.11,1,1,0,0,0,.41-.17l.21-.12c.07,0,.07,0,.08.05a2.59,2.59,0,0,1,0,.55,8,8,0,0,1-.16.86,2.21,2.21,0,0,1-.05.25l-.26-.37a.15.15,0,0,0-.26,0,8.3,8.3,0,0,0-.64,1.21,15,15,0,0,0-1-1.64.15.15,0,0,0-.19-.05h0c-.16.07-.3.15-.45.23a13.1,13.1,0,0,1,.28-2.13,2.83,2.83,0,0,1,.55-1.09.88.88,0,0,1,.35-.21,3.47,3.47,0,0,1,.57-.19,2.19,2.19,0,0,0,.69-.18.85.85,0,0,0,.45-.55.93.93,0,0,0,0-.27,2.18,2.18,0,0,0,.26-.36,1,1,0,0,0,.12-.89.92.92,0,0,0-.92-.63c-.09,0-.18,0-.23.09a.18.18,0,0,0,0,.16l.09.09c.1.09.22.29.13.41a.84.84,0,0,1-.48.32.83.83,0,0,0-.65.34.66.66,0,0,0-.11.29,2.07,2.07,0,0,0-.58.15,2.35,2.35,0,0,1,.37-.52.94.94,0,0,0,.47-.37.85.85,0,0,0,.16-.35.74.74,0,0,0-.12-.5,2.28,2.28,0,0,0,.15-.36,1.07,1.07,0,0,0-.08-.9.94.94,0,0,0-1-.41l-.14.06a.18.18,0,0,0-.08.19.19.19,0,0,0,.12.11l.06,0a.6.6,0,0,1,.17.2c.07.11,0,.25-.1.33a1.47,1.47,0,0,1-.29.23l0,0a1.2,1.2,0,0,0-.66.35,1,1,0,0,0-.25.77.8.8,0,0,0,.12.35.7.7,0,0,0-.1.16.85.85,0,0,0-.24-.2,1.26,1.26,0,0,0-.26-.86.66.66,0,0,0-.44-.19,1.08,1.08,0,0,1-.35-.39.19.19,0,0,1,0-.16.58.58,0,0,1,.25-.24.15.15,0,0,0,.09-.16.2.2,0,0,0-.1-.14l-.11,0a.94.94,0,0,0-1.05.42,1,1,0,0,0-.07.89,1.3,1.3,0,0,0,.15.36.62.62,0,0,0-.09.29,1,1,0,0,0,.38.77,2.6,2.6,0,0,0,.52.38s.08.07.13.18a2,2,0,0,0,.17.38l-.14,0a.38.38,0,0,1-.28,0,.62.62,0,0,1-.18-.14,1.4,1.4,0,0,0-1-.57,2.54,2.54,0,0,1-.37-.07c-.19-.06-.35-.17-.38-.3a1.86,1.86,0,0,0-.11-.32c-.07-.13-.12-.19-.26-.16a.63.63,0,0,0-.38.35,1.21,1.21,0,0,0,0,.64,1.4,1.4,0,0,0,.4.73,1.13,1.13,0,0,0,.29.25,1.15,1.15,0,0,0,1.15.74h.18a1.94,1.94,0,0,1,1,.31.89.89,0,0,1,.28.3c0,.08-.14.95-.21,1.41a2.3,2.3,0,0,0-.69-.7.12.12,0,0,0-.13,0,.15.15,0,0,0-.1.18h0a3.65,3.65,0,0,1,.09,1.91,14.57,14.57,0,0,0-.5,2l-.06.38a.6.6,0,0,0-.22-.2,4.06,4.06,0,0,1-1.5-1.11.78.78,0,0,1-.07-.59,3.29,3.29,0,0,1,.46-.94,1.89,1.89,0,0,0,.37-1.09,1.33,1.33,0,0,0-.3-.78,2.29,2.29,0,0,0-1-.63.79.79,0,0,0-.37-.05.72.72,0,0,0-.35.14.37.37,0,0,0-.11.38.83.83,0,0,0,.35.42.49.49,0,0,1,.21.26.2.2,0,0,1-.06.17,1.05,1.05,0,0,1-.44.29,1.87,1.87,0,0,0-1.28,1.92,6.18,6.18,0,0,1-.36-.85,2.14,2.14,0,0,1,0-1.54,5.34,5.34,0,0,1,.43-.56.59.59,0,0,0,.15-.34.43.43,0,0,0-.28-.35,1.22,1.22,0,0,0-1.22.06,3.19,3.19,0,0,0-1.06,1.9,3.36,3.36,0,0,1-.37-1,3.7,3.7,0,0,0-.08-1.14.84.84,0,0,0-.41-.5,1.2,1.2,0,0,0-.83-.11.9.9,0,0,0-.67.4,1,1,0,0,0-.16.61,1.58,1.58,0,0,0-.87-.55,1,1,0,0,0-.87.3.91.91,0,0,0-.29.85,1.65,1.65,0,0,0,.6.85,1.07,1.07,0,0,0-.44.13,1.09,1.09,0,0,0-.44.63.91.91,0,0,0,.07.74,1,1,0,0,0,.43.39,2.67,2.67,0,0,0,.36.14,2,2,0,0,0-.9,1.28,1.37,1.37,0,0,0,.42,1.22.43.43,0,0,0,.43.13.55.55,0,0,0,.28-.26,4.88,4.88,0,0,1,.33-.6,2.34,2.34,0,0,1,1.7-.62,7,7,0,0,1,1.39.15,2.08,2.08,0,0,0-.87.53,2.32,2.32,0,0,0-.48,1c-.08.34-.1.68-.15,1a1,1,0,0,1-.22.54.31.31,0,0,1-.48,0,1.6,1.6,0,0,1-.24-.37c0-.12-.16-.12-.25-.06a1.31,1.31,0,0,0-.67.95,1.1,1.1,0,0,0,.24.77,1.43,1.43,0,0,0,1.47.58,2.31,2.31,0,0,0,1.11-.7c.33-.34.51-.75.89-1s1-.33,2.27.07A14.63,14.63,0,0,1,63,245.55a13.06,13.06,0,0,1,1.32,2.38A20.36,20.36,0,0,0,59.37,243a7.57,7.57,0,0,0-1.74-.8c-1.33-.42-2.16-.34-2.59,0a.71.71,0,0,0-.31.61.66.66,0,0,0,.35.55,13.63,13.63,0,0,1,4.09,4,26,26,0,0,1,1.39,2.4c-1.57-1.89-4.3-4.88-6.72-6a7.75,7.75,0,0,0-2-.63c-1.45-.26-2.29,0-2.68.39a.66.66,0,0,0,.28,1.15,7.44,7.44,0,0,1,2.33,1.25,21.63,21.63,0,0,1,3.29,3.29A24.12,24.12,0,0,1,57,251.79c-1.54-1.8-4.24-4.69-6.85-5.83a8.44,8.44,0,0,0-2-.61c-1.5-.23-2.37,0-2.77.44a.77.77,0,0,0-.2.72.72.72,0,0,0,.53.48,7.62,7.62,0,0,1,2.44,1.24v0a22.85,22.85,0,0,1,3.48,3.33c.37.4,1.12,1.45,1.6,2.13-1.59-1.77-3.88-4-6.09-5a8.44,8.44,0,0,0-2-.61h0c-1.5-.24-2.35,0-2.75.46a.68.68,0,0,0,.33,1.17A7.62,7.62,0,0,1,45.06,251a22.82,22.82,0,0,1,3.46,3.33,25.64,25.64,0,0,1,4.1,6.69,6.3,6.3,0,0,0,2.18,3,3.53,3.53,0,0,0,1.54.63Z"/><path id="path302_6" data-name="path302 6" class="cls-15" d="M71.39,230.46a.37.37,0,0,0-.06-.1.91.91,0,0,0-.28-.27.77.77,0,0,0,.21-.23.52.52,0,0,0,0-.41s0-.09,0-.13a.6.6,0,0,1,.35.39A.85.85,0,0,1,71.39,230.46Zm-.85,29.41-5-26.34v.13a.89.89,0,0,0,.12.37.93.93,0,0,1-.49-.06.52.52,0,0,1-.26-.56c.15.21.33.24.63.12Zm3.9-3.62a1.19,1.19,0,0,0-.53-.14.8.8,0,0,0,.16-.38.52.52,0,0,0-.13-.42.35.35,0,0,0-.11-.1.63.63,0,0,1,.58.33,1.15,1.15,0,0,1,0,.71ZM72.35,232a.9.9,0,0,0-.17-.32l-.17-.14a.65.65,0,0,0,.17-.53,1.06,1.06,0,0,0-.05-.18.59.59,0,0,1,.2.09.79.79,0,0,1,.34.44C72.75,231.65,72.53,231.88,72.35,232ZM68.18,236a3.93,3.93,0,0,0-1,.54l-.11-.22c0-.2.09-.41.14-.62s.12-.6.16-.87a2.6,2.6,0,0,0,0-.65.41.41,0,0,0-.11-.23.4.4,0,0,0-.28-.1.73.73,0,0,0-.4.17.49.49,0,0,1-.46.1.55.55,0,0,1-.35-.45.78.78,0,0,1,.1-.39.49.49,0,0,1,.42-.26.29.29,0,0,1,.15,0,3.24,3.24,0,0,1,.37.12l.07,0a.19.19,0,0,0,.19,0,1.22,1.22,0,0,0,.29-.23,2.81,2.81,0,0,0,.72-2.08.85.85,0,0,1,.17-.57.52.52,0,0,1,.44-.18l.31,0c.24.05.31.15.34.24a.64.64,0,0,1,0,.43,1.92,1.92,0,0,1-.24.5l-.12.22a.17.17,0,1,0,.29.17c.15-.18.35-.42.61-.44a.19.19,0,0,0,.13-.07.13.13,0,0,0,0-.14.5.5,0,0,1,0-.33.61.61,0,0,1,.18-.21.65.65,0,0,1,.39-.17.45.45,0,0,1,.37.23.75.75,0,0,1,.11.25.71.71,0,0,1-.05.48,1.24,1.24,0,0,1-.74.59,2.26,2.26,0,0,0-.58.32.16.16,0,0,0-.06.25.16.16,0,0,0,.21,0,1.33,1.33,0,0,1,.62-.16l.22,0c.09,0,.16,0,.2-.09a.7.7,0,0,1,.33-.35.66.66,0,0,1,.37-.1.31.31,0,0,1,.24.12.77.77,0,0,1,.13.35,1.17,1.17,0,0,1,0,.33.55.55,0,0,1-.35.34A1.22,1.22,0,0,1,71,233a1.37,1.37,0,0,0-.29,0,2.6,2.6,0,0,0-1.26.39,1.23,1.23,0,0,0-.3.33c-.1.15-.22.35-.34.57a5.33,5.33,0,0,0-.55,1.35l-.06.32Zm-2.88-7.37a1,1,0,0,0-.48-.23A.89.89,0,0,0,65,228a.5.5,0,0,0,0-.41.73.73,0,0,0-.09-.13.59.59,0,0,1,.44.31.75.75,0,0,1,0,.61l-.06.18ZM62,228.8a1.43,1.43,0,0,0-.48.23.73.73,0,0,1-.07-.19.74.74,0,0,1,0-.62.63.63,0,0,1,.44-.3.58.58,0,0,0-.13.55A1.06,1.06,0,0,0,62,228.8Zm-1.71,2a.69.69,0,0,0-.11.13,1,1,0,0,0-.17.37,1.12,1.12,0,0,1-.38-1.1.31.31,0,0,1,.07-.09,1.45,1.45,0,0,1,.06.19A.78.78,0,0,0,60.31,230.78ZM67,230.2l0-.07a.9.9,0,0,0-.33-.25.56.56,0,0,0,.18-.78.61.61,0,0,1,.36.39.71.71,0,0,1-.1.61l-.06.1Zm.45,22.55a2.51,2.51,0,0,0-.19-.24,4.56,4.56,0,0,0,1.19-.9,4.29,4.29,0,0,0,.6-.8,3.45,3.45,0,0,0,.36-.92h0a3.1,3.1,0,0,1-.42.88,3.8,3.8,0,0,1-.63.75,4.42,4.42,0,0,1-1.34.83h0a11.41,11.41,0,0,0-1.17.38,20.63,20.63,0,0,0-6.36,3.84,4.53,4.53,0,0,0-1.16,1.55.87.87,0,0,0,0,.59.6.6,0,0,0,.39.37,1.62,1.62,0,0,1,1,1,2.86,2.86,0,0,1,.19.81,3.26,3.26,0,0,1-.8,2.7,2.42,2.42,0,0,1-.94.59h0a3.37,3.37,0,0,1-1.61.15,3.47,3.47,0,0,1-1.42-.59,6.08,6.08,0,0,1-2.07-2.83,26,26,0,0,0-4.16-6.8,22.5,22.5,0,0,0-3.51-3.37,7.53,7.53,0,0,0-2.54-1.33c-.17-.05-.28-.13-.31-.24a.44.44,0,0,1,.13-.4c.27-.29,1-.57,2.46-.34a7.87,7.87,0,0,1,2,.58c2.48,1.09,5.22,4,6.75,5.76a1.56,1.56,0,0,0-1.1.21c-.79-.77-1.61-1.51-2.45-2.21a28,28,0,0,0-2.69-2,29.82,29.82,0,0,1,2.59,2.15c.81.75,1.59,1.53,2.33,2.33a.76.76,0,0,0-.11.32,1.39,1.39,0,0,0,.06.58,3.74,3.74,0,0,0,.46,1,8.45,8.45,0,0,0,1.33,1.64A18.08,18.08,0,0,1,53,257a4.41,4.41,0,0,1-.38-.94c-.08-.31-.08-.64.16-.78a1.34,1.34,0,0,1,.9-.17,4.84,4.84,0,0,1,1,.24,14.15,14.15,0,0,1,1.91.86,8.4,8.4,0,0,0-1.82-1.1c-.13-.06-.28-.11-.42-.16a24.3,24.3,0,0,0-2.53-3.58A23.72,23.72,0,0,0,48.28,248a7.65,7.65,0,0,0-2.55-1.31.34.34,0,0,1-.28-.24.42.42,0,0,1,.13-.39c.27-.29,1-.58,2.46-.35a7.81,7.81,0,0,1,1.94.59c2.81,1.23,6,4.77,7.3,6.4a4.34,4.34,0,0,0-.89-.35,1.69,1.69,0,0,0-1.19.08c-.74-.8-1.5-1.56-2.29-2.29A27.49,27.49,0,0,0,50.34,248a29.16,29.16,0,0,1,2.46,2.25c.75.77,1.47,1.56,2.16,2.38a1,1,0,0,0-.12.88,3.44,3.44,0,0,0,.43,1,8.37,8.37,0,0,0,1.31,1.7h0a17.77,17.77,0,0,1-1.08-1.82,4.13,4.13,0,0,1-.35-1c-.06-.3-.06-.59.24-.75a1.4,1.4,0,0,1,.93,0,5.18,5.18,0,0,1,1,.34,14.73,14.73,0,0,1,1.84,1,8.82,8.82,0,0,0-1-.82A24,24,0,0,0,55.35,249,21.59,21.59,0,0,0,52,245.64a7.38,7.38,0,0,0-2.46-1.33.34.34,0,0,1-.26-.24.36.36,0,0,1,.13-.37c.26-.28,1-.53,2.37-.29a8,8,0,0,1,1.9.59c2.69,1.24,6.12,5.24,7.38,6.84l.11.13a9,9,0,0,0,.5,1.43h0a18.67,18.67,0,0,1-.37-2.09,5,5,0,0,1,0-1c0-.33.16-.64.44-.7a1.19,1.19,0,0,1,.88.21,4.78,4.78,0,0,1,.81.63A14,14,0,0,1,64.84,251h0a17.24,17.24,0,0,1-.15-2.14,3.88,3.88,0,0,1,.11-1c.07-.29.2-.58.54-.61a1.43,1.43,0,0,1,.9.3,6.4,6.4,0,0,1,.81.67,18.2,18.2,0,0,1,1.4,1.63,9.5,9.5,0,0,0-1.22-1.8,5.33,5.33,0,0,0-.82-.75,1.73,1.73,0,0,0-1.1-.38.8.8,0,0,0-.58.31,1.39,1.39,0,0,0-.22.46,14.26,14.26,0,0,0-1.29-2.3,14.84,14.84,0,0,0-6.34-4.77,3.15,3.15,0,0,0-2.55,0,4.16,4.16,0,0,0-1,1.05,2.13,2.13,0,0,1-.93.59,1.06,1.06,0,0,1-1.15-.47.83.83,0,0,1-.18-.54,1,1,0,0,1,.4-.6,1,1,0,0,0,.62.52.66.66,0,0,0,.52-.18,1.21,1.21,0,0,0,.33-.74,3.32,3.32,0,0,1,.56-1.79,1.78,1.78,0,0,1,1-.5A3.79,3.79,0,0,1,56,238a4.42,4.42,0,0,1,1,.41,4.05,4.05,0,0,1,1.51,1.51,4.12,4.12,0,0,0-1.41-1.66,4.68,4.68,0,0,0-1-.52,3.91,3.91,0,0,0-1.17-.25,7.45,7.45,0,0,0-2.15-.33,2.66,2.66,0,0,0-1.93.72,3,3,0,0,0-.38.65c-.05.09-.1.13-.11.13s0,0-.11-.07a1,1,0,0,1-.3-.92,1.7,1.7,0,0,1,.78-1.08,2.93,2.93,0,0,1,1.22-.43,2.54,2.54,0,0,1,1,0,2.62,2.62,0,0,0-1-.19,5.41,5.41,0,0,0-1,.1,2.3,2.3,0,0,1-.55-.15.68.68,0,0,1-.33-.27.57.57,0,0,1,0-.49.76.76,0,0,1,.28-.44.67.67,0,0,1,.4-.08,1.59,1.59,0,0,1,.57.15.19.19,0,0,0,.15,0,.19.19,0,0,0,.09-.15.17.17,0,0,0-.11-.16,3.5,3.5,0,0,1-.79-.57,1.14,1.14,0,0,1-.32-.52.55.55,0,0,1,.21-.54.61.61,0,0,1,.57-.22,1.2,1.2,0,0,1,.54.31,3.81,3.81,0,0,1,.61.76.16.16,0,0,0,.18.09.14.14,0,0,0,.08-.05.13.13,0,0,0,0-.19,2.06,2.06,0,0,1-.17-.66.72.72,0,0,1,.09-.44.59.59,0,0,1,.46-.27,1,1,0,0,1,.63.05.57.57,0,0,1,.25.35,4,4,0,0,1,.06,1,2.48,2.48,0,0,0,.11.57,7.23,7.23,0,0,0,1,1.82,1.61,1.61,0,0,0,.55.46h0a2.18,2.18,0,0,1-.57-1.87,2.54,2.54,0,0,1,.87-1.5.9.9,0,0,1,.92-.07c.1.05.08.06.08.07a.51.51,0,0,1-.08.15,2.78,2.78,0,0,0-.46.61,2.42,2.42,0,0,0-.05,1.76,6.72,6.72,0,0,0,.9,1.77c.06.07.11.14.21.12a.19.19,0,0,0,.14-.12.2.2,0,0,0,0-.13,2.73,2.73,0,0,1-.23-1,1.48,1.48,0,0,1,1.09-1.49,1.43,1.43,0,0,0,.56-.4.52.52,0,0,0,.12-.44.74.74,0,0,0-.34-.45c-.15-.12-.21-.2-.22-.24s0,0,0,0a.44.44,0,0,1,.37,0,2.17,2.17,0,0,1,.85.55.93.93,0,0,1,.21.58,1.58,1.58,0,0,1-.32.9,3,3,0,0,0-.48,1,1.17,1.17,0,0,0,.09.83,4,4,0,0,0,1.61,1.24,1.85,1.85,0,0,1,.36.42,5,5,0,0,0,.08,1.16,3.67,3.67,0,0,0,.9,1.79,3.71,3.71,0,0,1-.78-1.82,6.29,6.29,0,0,1,.08-2,13.56,13.56,0,0,1,.57-1.92,3.13,3.13,0,0,0,.1-1,3.68,3.68,0,0,0-.07-.58,2.49,2.49,0,0,1,.53.85,3.82,3.82,0,0,1,.26,1.44c0,.12,0,.25,0,.37s0,.34.15.4c-.07-.1,0-.27,0-.38a2.16,2.16,0,0,1,.86-1.07,6.36,6.36,0,0,1,.83-.51,17.12,17.12,0,0,1,2,4.14,11.64,11.64,0,0,1,.49,2.33,8,8,0,0,1-.11,2.39,7.46,7.46,0,0,0,.24-2.4,9.28,9.28,0,0,0-.28-1.88,7.14,7.14,0,0,1,5.34,3.38A9.51,9.51,0,0,1,73.75,250a8.67,8.67,0,0,1-1,2.69h-.23a2,2,0,0,0-.94.21,1.48,1.48,0,0,0-.52.43,2.53,2.53,0,0,0-.87-1.54.21.21,0,0,0-.11,0,.2.2,0,0,0-.12.08,6,6,0,0,0-.69,1.51,1.57,1.57,0,0,0-.8-.61,1.82,1.82,0,0,0-1.12.05ZM69.93,263a.84.84,0,0,1-.21-.77,1.13,1.13,0,0,1,.81-.62,1.46,1.46,0,0,1,.69,0,1.46,1.46,0,0,0-.72-.12,2,2,0,0,0-.68.16,1.74,1.74,0,0,0-1.67.63,2.18,2.18,0,0,0-.43.66,1.62,1.62,0,0,1-.49-.85,1,1,0,0,1,.21-.7,2.19,2.19,0,0,1,.83-.6,1.68,1.68,0,0,1,.89,0,1.16,1.16,0,0,0-.44-.23,3.8,3.8,0,0,0-.76-.16,2.52,2.52,0,0,0-1.46.26,1.15,1.15,0,0,1,.56-1.18.9.9,0,0,1,1,0,1.07,1.07,0,0,1,.26.26.87.87,0,0,0-.15-.36,1.16,1.16,0,0,0-.25-.29,1.88,1.88,0,0,0-1.25-.87.59.59,0,0,1,.49-.43.83.83,0,0,1,.76.18c.11.09.21.19.31.29-.06-.13-.12-.26-.19-.39a1.31,1.31,0,0,0-.25-.32,1.53,1.53,0,0,0-.83-1,1.16,1.16,0,0,1,.73-.19.71.71,0,0,1,.46.17,1.07,1.07,0,0,1,.26.39,1.06,1.06,0,0,0-.14-.48,1,1,0,0,0-.31-.33,1.62,1.62,0,0,0-.85-1.23.82.82,0,0,1,.62-.22.66.66,0,0,1,.47.26,1.09,1.09,0,0,1,.2.48,1.21,1.21,0,0,0-.06-.7,3.12,3.12,0,0,0-.23-.49,2.1,2.1,0,0,0-.9-1,1.44,1.44,0,0,1,1.54-.05,1.69,1.69,0,0,1,.53.65.16.16,0,0,0,.17.1.15.15,0,0,0,.13-.14,5.16,5.16,0,0,1,.64-1.64,2.25,2.25,0,0,1,.54.92,5.44,5.44,0,0,1,.17.74.14.14,0,0,0,.11.13.17.17,0,0,0,.18-.09,1.27,1.27,0,0,1,.61-.67,2.35,2.35,0,0,1,1.48-.09c-1.11.8-1.58,1.51-1.65,2a1.05,1.05,0,0,0,.17.76,2.89,2.89,0,0,0-.88.31.89.89,0,0,0-.41,1.15,3,3,0,0,0,.77,1l.86.84h0l-.8-.9a2.84,2.84,0,0,1-.67-.94.68.68,0,0,1,.38-.88,3.11,3.11,0,0,1,1.11-.26h0a4.23,4.23,0,0,0,1.52.3c.73,0,1.53,0,2.09.08a1.54,1.54,0,0,1,.55.13s.06,0,.07,0l0,0a.32.32,0,0,1-.17.06c-.52,0-1.68.2-2.39.28l-.86.12a1.25,1.25,0,0,0-.48.14.6.6,0,0,0-.21.21.35.35,0,0,0,0,.3,1.59,1.59,0,0,0,.7.65,2.71,2.71,0,0,0,1.83.5,1.2,1.2,0,0,0,.53-.21,1.53,1.53,0,0,0,.84.21,1,1,0,0,0,.61-.26,1.26,1.26,0,0,0,.26-.33,1.63,1.63,0,0,1,.14,1.38,2.05,2.05,0,0,1-1,1,6.46,6.46,0,0,1-2,.6,2.11,2.11,0,0,0-.49-.54.84.84,0,0,0,.34-.61.69.69,0,0,0-.13-.48.84.84,0,0,0-.37-.33,1.13,1.13,0,0,0-.48-.11,1,1,0,0,0-.47.12.85.85,0,0,0-.46.66,2.51,2.51,0,0,0-.44-.1,5.44,5.44,0,0,0-1.14,0,5.26,5.26,0,0,1,1.12.12,2.9,2.9,0,0,1,.52.18,1.11,1.11,0,0,1,.41.33.06.06,0,0,0,.06,0,3.17,3.17,0,0,1,.4.14,2.26,2.26,0,0,1,.37.22,1.47,1.47,0,0,1,.49.62.61.61,0,0,1-.2.44,1.21,1.21,0,0,1-.58.27,6.55,6.55,0,0,1-1.74.08,1.58,1.58,0,0,0-1.27.42.94.94,0,0,0-.19.26Zm-6.17-27.53-.21.14a3.44,3.44,0,0,0-.54.47,3.72,3.72,0,0,0-.27-1.08l0-.07c.12-.7.22-1.38.29-1.86,0-.07,0-.12-.12-.31a1.85,1.85,0,0,0-.32-.29,2.13,2.13,0,0,0-1.22-.37h-.16a.81.81,0,0,1-.87-.56,1.13,1.13,0,0,1,.17-.42.41.41,0,0,1,.35-.22,1.17,1.17,0,0,1,.76.49,1.06,1.06,0,0,0,.24.18.71.71,0,0,0,.5.07h.32a.16.16,0,0,0,.18-.05c.07-.08,0-.15,0-.23l-.13-.19a3.4,3.4,0,0,1-.16-.37.66.66,0,0,0-.3-.36,1.94,1.94,0,0,1-.43-.32.67.67,0,0,1-.27-.49.33.33,0,0,1,.14-.27,1.35,1.35,0,0,1,.48-.22,1.27,1.27,0,0,1,.26,0,.28.28,0,0,1,.24.09,1.12,1.12,0,0,1,.17.74.18.18,0,0,0,.08.13.6.6,0,0,1,.34.35.18.18,0,0,0,.15.11.15.15,0,0,0,.16-.1,1.45,1.45,0,0,1,.27-.44.17.17,0,0,0,0-.23.43.43,0,0,1-.13-.28.66.66,0,0,1,.16-.5.87.87,0,0,1,.7-.28.89.89,0,0,1,.66.32.37.37,0,0,1,0,.5.56.56,0,0,1-.34.27l-.09.06a2.84,2.84,0,0,0-.61,1,.2.2,0,0,0,0,.25.17.17,0,0,0,.21,0,1.68,1.68,0,0,1,.79-.32c.14,0,.34,0,.33-.19a.55.55,0,0,1,0-.24.45.45,0,0,1,.3-.18.71.71,0,0,1,.72.23c.06.08.13.14.07.4a.54.54,0,0,1-.29.36,1.38,1.38,0,0,1-.42.11l-.16,0a3.53,3.53,0,0,0-.65.21,1.15,1.15,0,0,0-.5.33,3,3,0,0,0-.59,1.19,13,13,0,0,0-.32,2.43ZM71,241.31a7.49,7.49,0,0,0-4.14-1.72l0-.16a14.13,14.13,0,0,0-.86-2.27l0-.09a9.55,9.55,0,0,1,.59-1.19,5,5,0,0,1,.5.94c0,.11,0,.22,0,.33a1.5,1.5,0,0,0,0,.22.33.33,0,0,0,.11.19.25.25,0,0,1,0-.19.82.82,0,0,1,.06-.19.92.92,0,0,1,.21-.34,3.32,3.32,0,0,1,1.22-.68A12.54,12.54,0,0,1,71,241.31Zm2.61,10.4a8.85,8.85,0,0,0,.58-3.57l.15-.39a4.89,4.89,0,0,1,.49-.9,1.16,1.16,0,0,1,.73-.54c.28-.05.51.18.68.47a4.66,4.66,0,0,1,.4.94,19.93,19.93,0,0,1,.49,2.06h0A9.22,9.22,0,0,0,77,248.3s0-.1.06-.18c.52-2,2-7,4-9.21a7.48,7.48,0,0,1,1.48-1.31c1.18-.78,2-.84,2.31-.7a.4.4,0,0,1,.28.31.33.33,0,0,1-.15.32,7.54,7.54,0,0,0-1.72,2.18,21.68,21.68,0,0,0-1.74,4.38,24,24,0,0,0-.86,5,10.26,10.26,0,0,0-.59,1.14,15.22,15.22,0,0,1,1.27-1.69,4.49,4.49,0,0,1,.75-.7,1.44,1.44,0,0,1,.88-.33c.34,0,.46.29.52.59a3.81,3.81,0,0,1,.06,1,16.73,16.73,0,0,1-.26,2.1h0a8.26,8.26,0,0,0,.53-2.08,3.77,3.77,0,0,0,0-1.11,1,1,0,0,0-.46-.75c.3-1,.65-2.05,1-3.05a28.63,28.63,0,0,1,1.36-3,29.81,29.81,0,0,0-1.5,3c-.43,1-.83,2-1.19,3h0a1.71,1.71,0,0,0-1.09.4,4.44,4.44,0,0,0-.65.65c.58-2,2-6.51,4.11-8.75A8.16,8.16,0,0,1,87,238.16c1.23-.78,2-.83,2.4-.67a.44.44,0,0,1,.28.33.35.35,0,0,1-.18.32,7.55,7.55,0,0,0-1.8,2.25,24.7,24.7,0,0,0-2.78,8.79l-.32.31a8,8,0,0,0-1.22,1.73,13.7,13.7,0,0,1,1.4-1.55,4.77,4.77,0,0,1,.81-.61,1.25,1.25,0,0,1,.88-.2c.28,0,.41.33.47.65a4.85,4.85,0,0,1,0,1,17.82,17.82,0,0,1-.32,2.07,8.84,8.84,0,0,0,.58-2,4,4,0,0,0,0-1.09,1.18,1.18,0,0,0-.41-.81c.36-1,.77-2.05,1.21-3.05a32.53,32.53,0,0,1,1.51-3,29.13,29.13,0,0,0-1.65,2.94c-.49,1-.94,2-1.36,3a1.54,1.54,0,0,0-1.08.24c.69-2.25,2.06-6,3.89-8a8.16,8.16,0,0,1,1.55-1.33c1.23-.78,2-.83,2.39-.67a.44.44,0,0,1,.29.32.37.37,0,0,1-.18.33,7.92,7.92,0,0,0-1.83,2.25,23.13,23.13,0,0,0-1.87,4.5,25.9,25.9,0,0,0-1.09,7.87,6.05,6.05,0,0,1-.76,3.44,3.28,3.28,0,0,1-2.62,1.59,2.24,2.24,0,0,1-1.11-.15,3.18,3.18,0,0,1-1.8-2.14,3,3,0,0,1-.16-.83,1.72,1.72,0,0,1,.48-1.34.56.56,0,0,0,.21-.49,1,1,0,0,0-.29-.53,4.55,4.55,0,0,0-1.66-.95,20.57,20.57,0,0,0-7.26-1Zm.54-4.15a10.81,10.81,0,0,0-.49-2.15,17.72,17.72,0,0,1,2.13-5A7.47,7.47,0,0,1,77,239.06c1-.87,1.72-1.05,2.07-1a.39.39,0,0,1,.31.22.35.35,0,0,1-.07.34,14,14,0,0,0-2.22,5.41,21.69,21.69,0,0,0-.34,3.13,4,4,0,0,0-.25-.56,1.18,1.18,0,0,0-.75-.64c0-.47.06-1,.12-1.45s.18-1.07.31-1.59a14.58,14.58,0,0,1,1.12-3.06,14.86,14.86,0,0,0-1.27,3,14.35,14.35,0,0,0-.39,1.6,12.3,12.3,0,0,0-.2,1.5,1.5,1.5,0,0,0-.87.68,4,4,0,0,0-.43.88ZM62,241.6m-1,8.25a22,22,0,0,0-1.56-2.73,13.8,13.8,0,0,0-4.19-4.05.35.35,0,0,1-.19-.29.35.35,0,0,1,.17-.32,2.86,2.86,0,0,1,2.31.06,6.69,6.69,0,0,1,1.66.79,21.32,21.32,0,0,1,5.22,5.36,1.48,1.48,0,0,1,0,.21,9.58,9.58,0,0,0,.41,2.12,7.79,7.79,0,0,0-1.22-1.74,4,4,0,0,0-.82-.72,1.46,1.46,0,0,0-1.07-.28A13.15,13.15,0,0,0,61,247a15.63,15.63,0,0,0-1-1.31,14.92,14.92,0,0,0-2.37-2.26,14.77,14.77,0,0,1,2.25,2.36,15.14,15.14,0,0,1,.92,1.34,14.46,14.46,0,0,1,.69,1.28,1.22,1.22,0,0,0-.44.88q0,.3,0,.6Z"/><path id="path434" class="cls-13" d="M73.64,260.72a.83.83,0,0,0,.23-.59.72.72,0,0,0-.43-.61.9.9,0,0,0-.39-.1.93.93,0,0,0-.4.06.9.9,0,0,0-.5.53l.09,0a1.21,1.21,0,0,1,.47.31l.12,0a.44.44,0,0,1,0-.37.48.48,0,0,1,.87.41.45.45,0,0,1-.22.21l.09.05.07.05Zm-.55-.59a.17.17,0,0,1,.17-.17.16.16,0,0,1,.17.17.16.16,0,0,1-.17.16A.17.17,0,0,1,73.09,260.13Z"/><path id="path338" class="cls-12" d="M57.91,250.31c-.61-.85-1.27-1.69-1.94-2.49a28.5,28.5,0,0,0-2.26-2.4,27.07,27.07,0,0,1,2.37,2.3c.73.78,1.43,1.59,2.1,2.44a1.57,1.57,0,0,1,1.12.16,5.07,5.07,0,0,1,.91.59,10.2,10.2,0,0,1,1.5,1.51,17.3,17.3,0,0,0-1.62-1.35,5.8,5.8,0,0,0-.89-.53,1.42,1.42,0,0,0-.93-.14c-.34.12-.37.42-.34.73a4.6,4.6,0,0,0,.28,1,18.36,18.36,0,0,0,.93,1.89h0A9.64,9.64,0,0,1,58,252.2a4.07,4.07,0,0,1-.33-1,.91.91,0,0,1,.23-.85Zm21.55-4c.28-1,.6-2.06,1-3.07a30.25,30.25,0,0,1,1.26-3.06,28.6,28.6,0,0,0-1.11,3.1c-.3,1-.57,2-.79,3.06a.93.93,0,0,1,.55.69,4,4,0,0,1,.11,1.09,9.43,9.43,0,0,1-.31,2.11h0a16.71,16.71,0,0,0,.09-2.11,4.25,4.25,0,0,0-.13-1c-.09-.29-.25-.56-.6-.53a1.42,1.42,0,0,0-.8.5,5.11,5.11,0,0,0-.6.84,15.76,15.76,0,0,0-1,1.88,10.15,10.15,0,0,1,.77-2,4.86,4.86,0,0,1,.6-.9,1.57,1.57,0,0,1,1-.6ZM84.89,252l1.39-2.64-1.1,2.77a.16.16,0,0,1-.29-.11v0Zm-3-1.32L82.93,248l-.77,2.76a.16.16,0,0,1-.31-.09Zm-3.18-.82.81-2.75-.5,2.83a.16.16,0,0,1-.18.12.15.15,0,0,1-.13-.18v0Zm-3.36,0,.31-3v3a.16.16,0,0,1-.16.15.15.15,0,0,1-.16-.15v0Zm-8.95.76-1-2.86,1.29,2.74a.16.16,0,0,1-.08.21.17.17,0,0,1-.21-.08Zm-3.29,1.28L61.87,249l1.49,2.65a.15.15,0,0,1-.06.21.14.14,0,0,1-.21-.06Zm-3,1.41-1.59-2.39,1.84,2.2a.17.17,0,0,1,0,.22.15.15,0,0,1-.22,0Zm-2.57,2-1.81-2.21,2,2a.16.16,0,0,1,0,.22.15.15,0,0,1-.22,0v0Zm-2.23,2.45-2.12-2.1,2.33,1.87a.16.16,0,0,1,0,.22.15.15,0,0,1-.22,0Z"/></g></g></g><path class="cls-13" d="M80,99.63c-12.64,0-22.89,10.17-22.89,30.51C57.11,155.57,75.33,181,97.8,181s40.68-25.43,40.68-50.86c0-20.34-10.24-30.51-22.88-30.51a22.86,22.86,0,0,0-17.8,8.5A22.89,22.89,0,0,0,80,99.63Zm0,0"/><rect class="cls-13" x="24.97" y="114.84" width="145.64" height="54.95" rx="5.46"/><text class="cls-18" transform="translate(46.15 160.57)">Częstochowa</text><text class="cls-19" transform="translate(69.9 139.92)">Pinsk</text><path class="cls-16" d="M150.69,0l29,0h16l0,16q0,10.48,0,21A29.09,29.09,0,0,1,150.69,0Z"/><text class="cls-20" transform="translate(159.75 31.75)">35</text></svg>