<svg id="Слой_1" data-name="Слой 1" xmlns="http://www.w3.org/2000/svg" viewBox="0 0 195.59 280.63"><defs><style>.cls-1{fill:#549fd7;}.cls-2{fill:#a91916;}.cls-10,.cls-11,.cls-2,.cls-3,.cls-7,.cls-8,.cls-9{fill-rule:evenodd;}.cls-3,.cls-5{fill:#424242;}.cls-13,.cls-14,.cls-4{fill:#3d82c3;}.cls-6{fill:#f7e73e;}.cls-12,.cls-7{fill:#fff;}.cls-8{fill:#d3361c;}.cls-9{fill:#201b18;}.cls-10{fill:#da271e;}.cls-11{fill:#c0a062;}.cls-13{font-size:24.77px;}.cls-13,.cls-14{font-family:Impact;}.cls-14{font-size:20px;}</style></defs><rect class="cls-1" x="-6.21" y="-8.4" width="214.01" height="297.89"/><path id="path3250" class="cls-2" d="M73.76,210.75A1.81,1.81,0,0,1,72,208.94v-1.81a1.81,1.81,0,0,1,1.81-1.81h1.81v5.43Zm0-7.24a3.63,3.63,0,0,0-3.62,3.62v1.81a3.63,3.63,0,0,0,3.62,3.63h3.62v-9.06ZM81,212.57H79.19v-9.06H81Zm3.63,0H82.82v-9.06h1.81l3.62,5.69v-5.69h1.81v9.06H88.25l-3.62-5.69Zm27.15,0h-5.43v-1.81H110v-1.81h-3.62v-1.81H110v-1.81h-3.62v-1.81h5.43Zm7.24,0h-1.81v-7.25h-3.62v-1.81H119Zm-19-7.25H98.2a2.72,2.72,0,0,0,0,5.43H100v-1.81H98.2a.91.91,0,0,1,0-1.81H100Zm-1.81,9.06a6.34,6.34,0,1,1,6.34-6.34A6.33,6.33,0,0,1,98.2,214.38Zm0-1.81a4.53,4.53,0,1,1,4.53-4.53A4.52,4.52,0,0,1,98.2,212.57Z"/><g id="Слой_1-2" data-name="Слой_1"><path id="path10" class="cls-3" d="M98.32,148.94A20.2,20.2,0,0,0,116,159.17h22.3a10.76,10.76,0,0,1,10.95,10.55v97.41H47.11V169.72a10.76,10.76,0,0,1,11-10.55h22.3a20.19,20.19,0,0,0,17.72-10.23Z"/><path id="path12" class="cls-4" d="M98.2,149.84a20.63,20.63,0,0,0,9,8,21.16,21.16,0,0,0,8.81,1.9h22.3a10.26,10.26,0,0,1,10.4,10h0V266.6H47.67V169.72h0a10.26,10.26,0,0,1,10.39-10h22.3a21.21,21.21,0,0,0,8.82-1.9,20.55,20.55,0,0,0,9-8Z"/><path id="path14" class="cls-5" d="M122.86,240.39a14.34,14.34,0,0,1-.14,1.47,15.11,15.11,0,0,1-1,3.72l1.16,2.61-.47.21-.15-.35.09.38-.5.12-.08-.35v.34l-.51,0-.12-2.95a4.73,4.73,0,0,1-.82-1,6.57,6.57,0,0,1-.55,1.23l1.17,2.69-.47.2-.15-.35.08.37-.5.11-.08-.35v.36l-.51,0-.12-3c-.93-1.14-1.61-2.5-2.5-3.68h0a26.34,26.34,0,0,0-3.32-3.36,17.39,17.39,0,0,1-3.47-3.33l1.16-.27a8,8,0,0,1-1.6-2.38,6.78,6.78,0,0,0,1,0,6.51,6.51,0,0,1-1.11-2.74,6,6,0,0,0,1.15.38,11.34,11.34,0,0,1-1-3.61,4.74,4.74,0,0,0,1.35.31,23,23,0,0,0,.42-3.42,12.73,12.73,0,0,0-.34-3.54,4,4,0,0,1-1.66-.29,7.37,7.37,0,0,1-1.85-1.12,7.17,7.17,0,0,0-2.6-1.31,9.74,9.74,0,0,0-2.79-.34,29.39,29.39,0,0,1-3-.15,25.22,25.22,0,0,1-3-.5,23.46,23.46,0,0,0-5.26-.6,25.41,25.41,0,0,0-5.14.53h0a11.77,11.77,0,0,1-2.21.24h0a11.69,11.69,0,0,1-2.21-.17c-3.79-.64-7.59-3.06-11.27-7.17a30.05,30.05,0,0,0-6.17-5.64,10.65,10.65,0,0,0-7-1.66,5,5,0,0,1-2.35-.22,1.69,1.69,0,0,1-.68-.47,1.21,1.21,0,0,1-.31-.75,2.15,2.15,0,0,1,.2-1.08,5.57,5.57,0,0,1,1.48-2.16,4.77,4.77,0,0,1,2.22-1h0a10.23,10.23,0,0,1,1.27-.17c.43,0,.88-.06,1.34-.06a17.32,17.32,0,0,1,6.48,1.28,2.45,2.45,0,0,1,1.24-1.95,8.65,8.65,0,0,1-.57-1.94,6.45,6.45,0,0,1,0-2,3.78,3.78,0,0,1,.64-1.65h0a2.48,2.48,0,0,1,1.68-1,20.62,20.62,0,0,1,4.64,0l1.17.09h0c1.2.08,2.41.19,3.61.32s2.4.28,3.61.44c.4,0,.91.16,1.47.28a10.16,10.16,0,0,0,3.2.4h0a.93.93,0,0,0,.44-.27c.51-.53.64-1.14,1.57-1.25a1.35,1.35,0,0,1,.88.19,2.58,2.58,0,0,1,1.45-.88,2.18,2.18,0,0,1,1.42.16,1.9,1.9,0,0,1,.52.37,1.32,1.32,0,0,1,1.05-.26,2.33,2.33,0,0,1,1.6,1.14,6.56,6.56,0,0,1,1,2.68,46.85,46.85,0,0,0,6.27.12c-.28-1.63.24-2.37,1.15-2.7,1.25-.45,2.75-.17,4.06-.2l4.55-.08h4.55c1.27,0,2.54.06,3.79.16s2.52.22,3.78.37a23.14,23.14,0,0,1,2.73.53h0l1.61.35a7.87,7.87,0,0,0,1,.12,1.17,1.17,0,0,0,1.12-.36,5.16,5.16,0,0,1,3.22-1.16,3.16,3.16,0,0,1,1.91-1.12,2.92,2.92,0,0,1,1.25.11,3,3,0,0,1,1.14.66,2.51,2.51,0,0,1,1.18-.27,1.73,1.73,0,0,1,1.31.91,5.17,5.17,0,0,1,.92,2.75,4.75,4.75,0,0,1-.35,1.71,1.78,1.78,0,0,1,.39.66,2.91,2.91,0,0,1-.39,2.41,13.79,13.79,0,0,1-1.14,1.41,9.76,9.76,0,0,1-1.43,1.26h0l-.35.22-.38.16a2.93,2.93,0,0,1-2,0,5.71,5.71,0,0,0-2.49-.33,6.21,6.21,0,0,0-2.5.81,7,7,0,0,1-3.19.74,1.68,1.68,0,0,0,0,1.09,5.39,5.39,0,0,1,0,2.4l.75-.48a18.52,18.52,0,0,1-.1,3.16l1-.4a14.18,14.18,0,0,1-.87,5.12,26.21,26.21,0,0,1-2,4.23,29.86,29.86,0,0,0-2.2,4.62,15.75,15.75,0,0,0-1,4.37,2.82,2.82,0,0,0,.49-.25h0a2.24,2.24,0,0,1,1.88-.31,2.29,2.29,0,0,1,.71.37h0a2.31,2.31,0,0,1,.87,2.27,2.73,2.73,0,0,1,.48.1,3.88,3.88,0,0,1,2.24,2.49,2.37,2.37,0,0,1,.54.5,1.4,1.4,0,0,1-.23,2.1l-.32.26h0a16.35,16.35,0,0,1-1.68,1.26h0a4.66,4.66,0,0,0-2.14,2.24,5.9,5.9,0,0,1-1,1.61,8.64,8.64,0,0,1-3.38,2.06Z"/><path id="path16" class="cls-6" d="M123.94,225.85a16.14,16.14,0,0,1,1-4.7,31.32,31.32,0,0,1,2.24-4.69,26.93,26.93,0,0,0,2-4.15,13.5,13.5,0,0,0,.84-4.27l-1.06.44a22.68,22.68,0,0,0,.23-3.08l-1.13.72a6.34,6.34,0,0,0,.34-3.37c-.1-.6-.07-.92-.13-1.19a4.29,4.29,0,0,0-.75-1.34,4.83,4.83,0,0,0-1.87-1.94l-1.87.07a2.41,2.41,0,0,1-.89,2.21,3.08,3.08,0,0,0,.39-2.2l-1.55,0a2.57,2.57,0,0,1-2,2.63,2.91,2.91,0,0,0,1.42-3l.05-.07a41.83,41.83,0,0,0,9.74-.75c1-.25,2.07-.68,3.12-.83a6.88,6.88,0,0,1,1.44,0,10,10,0,0,0,4.35-.34,3.67,3.67,0,0,0,2.33-3.47,4.74,4.74,0,0,0-.85-2.49,1.25,1.25,0,0,0-1-.7,1.77,1.77,0,0,0-.79.16,2.71,2.71,0,0,1,.59,1.29,4,4,0,0,1,0,.91,1.5,1.5,0,0,1-.09.43c-.19.57-.63.25-.5,0a1.3,1.3,0,0,0,.13-.46,3.61,3.61,0,0,0,0-.79,2.37,2.37,0,0,0-.86-1.44,2.64,2.64,0,0,0-.9-.49,2.29,2.29,0,0,0-1-.1,2.83,2.83,0,0,0-1.74,1.1,5.09,5.09,0,0,0-3.14,1.06,1.54,1.54,0,0,1-1.46.48,8.77,8.77,0,0,1-1-.12c-.56-.11-1.09-.24-1.62-.36h0c-.88-.2-1.74-.4-2.68-.52-1.26-.14-2.51-.27-3.76-.37s-2.51-.15-3.76-.16c-1.51,0-3,0-4.54,0s-3,0-4.55.08c-1.25,0-2.73-.26-3.91.17-1.67.61-.65,3.1-.25,4.19l-1-.13a8.2,8.2,0,0,0,1.78,4.09,4.45,4.45,0,0,1-1.64.63,15.45,15.45,0,0,0,3.36,3,6.59,6.59,0,0,1-1.65.89A32,32,0,0,0,108,205a8.13,8.13,0,0,1-3.58-2.39c.3-.08.61-.16.9-.26h0a6.06,6.06,0,0,0,.85-.41,16.58,16.58,0,0,1-3.36-3.28,5.26,5.26,0,0,0,1.82-.47,8.59,8.59,0,0,1-1.63-4.5l.83.1c-.11-.33-.19-.63-.26-.91a46.4,46.4,0,0,1-6.35-.11,4.05,4.05,0,0,1-1.1,2.66,6.63,6.63,0,0,1-4,2.23,10,10,0,0,1-3.4-.06c2.55,1.79,4,3.64,4.39,5.62a8.44,8.44,0,0,1-2.55,7.63c1.65-2.34,2.56-5.44,2.09-7.53-.72-3.26-3.81-5.14-6.43-6.77a14.38,14.38,0,0,0,5.82.66,6.16,6.16,0,0,0,3.73-2.09,3.56,3.56,0,0,0,1-2.63,6,6,0,0,0-.93-2.63,1.85,1.85,0,0,0-1.27-.92.86.86,0,0,0-.69.16,1.4,1.4,0,0,1,.1.16,2.53,2.53,0,0,1,.27,1.28,2.48,2.48,0,0,1-.14.75c-.16.48-.59.22-.5,0a2.16,2.16,0,0,0,.18-.78,2,2,0,0,0-.22-1,1.63,1.63,0,0,0-.7-.7,1.75,1.75,0,0,0-1.13-.11,2.07,2.07,0,0,0-1.18.72,1.5,1.5,0,0,1,.18.24h0A2.11,2.11,0,0,1,91,190.9c0,.48-.52.39-.48.06a1.63,1.63,0,0,0-.18-1.06h0a1.12,1.12,0,0,0-.43-.41,1,1,0,0,0-.53-.1c-.67.08-.89.69-1.3,1.11a1.23,1.23,0,0,1-.67.4h0a10.57,10.57,0,0,1-3.4-.4c-.55-.12-1.06-.23-1.43-.28-1.19-.16-2.39-.3-3.6-.44s-2.39-.24-3.59-.31h0l-1.18-.09a20.29,20.29,0,0,0-4.53-.06,2.11,2.11,0,0,0-1.37.82h0a3.09,3.09,0,0,0-.56,1.44,6.18,6.18,0,0,0,0,1.82,9.71,9.71,0,0,0,2,4.29c.25.32-.08.4-.34.14a7.27,7.27,0,0,1-1.33-2h0c-1.39.83-1.13,2.87-.54,3.76.27.4-.23.27-.39,0a3.72,3.72,0,0,1-.54-1.78,16.78,16.78,0,0,0-6.44-1.3c-.43,0-.87,0-1.3.05a11,11,0,0,0-1.21.17h0a4.28,4.28,0,0,0-2,1,5.07,5.07,0,0,0-1.35,2,1.9,1.9,0,0,0-.17.87.9.9,0,0,0,.2.49,1.2,1.2,0,0,0,.51.34,4.49,4.49,0,0,0,2.13.18,11.19,11.19,0,0,1,7.26,1.74,30.66,30.66,0,0,1,6.27,5.72c3.61,4,7.32,6.4,11,7a12,12,0,0,0,2.14.17,11.64,11.64,0,0,0,2.11-.23h0a25.59,25.59,0,0,1,5.23-.55,23.66,23.66,0,0,1,5.36.62,26.55,26.55,0,0,0,2.92.49,26,26,0,0,0,2.92.14,10.72,10.72,0,0,1,2.92.36,7.9,7.9,0,0,1,2.76,1.39,6.73,6.73,0,0,0,1.73,1.05,3.4,3.4,0,0,0,1.65.25l.2,0,.05.2a13.22,13.22,0,0,1,.4,3.86,26.9,26.9,0,0,1-.51,3.89,7,7,0,0,1-1.2-.13,12.64,12.64,0,0,0,1.17,3.48,5.8,5.8,0,0,1-1.25-.18,5.17,5.17,0,0,0,1.28,2.22,3.42,3.42,0,0,1-1.1.27,8.8,8.8,0,0,0,1.81,2.18l-1.26.29a15.36,15.36,0,0,0,2.9,2.68h0a25.55,25.55,0,0,1,3.39,3.43h0c.86,1.14,1.53,2.4,2.38,3.53a6,6,0,0,0,.07-4.3,3.06,3.06,0,0,0-2-2.55c-.8-.24-.71-1.08-.15-1.59,1.14-1,4.29-.52,2.65,1-.45.42-.4.92-.2,1.54a7.92,7.92,0,0,1,.24,1,13.06,13.06,0,0,0,2.66-.65A8.18,8.18,0,0,0,125.9,238a5.52,5.52,0,0,0,1-1.48,5.06,5.06,0,0,1,2.32-2.45h0a14.72,14.72,0,0,0,1.63-1.22h0l.32-.26a1,1,0,0,0,.16-1.45,2,2,0,0,0-.42-.39h-.05l-.13,0a.58.58,0,0,0-.35.19c-.28.28-.75.22-.44-.21a1.14,1.14,0,0,1,.69-.44,3.28,3.28,0,0,0-1.87-2,3.34,3.34,0,0,0-2.3.25c-.44.18-.73-.18-.43-.32a5.05,5.05,0,0,1,1.92-.51,1.79,1.79,0,0,0-.67-1.87h0a1.92,1.92,0,0,0-.57-.29,1.78,1.78,0,0,0-1.5.25h0a4.65,4.65,0,0,1-.59.3,5.68,5.68,0,0,1-.66.21,9.38,9.38,0,0,1-4.6-.35c-1.27-.36-2.62-.83-3.93-.36a3.73,3.73,0,0,1,.64,1,7.08,7.08,0,0,0-1.2.24h0a2.61,2.61,0,0,1,.7.89c-.23.27-.51.49-.75.74a14.21,14.21,0,0,0,2.25.66l-.15.3h0a8.7,8.7,0,0,1-.83,1.33,17.15,17.15,0,0,0,2,0h.59a5.54,5.54,0,0,1-1,1.52l.13,0h0a6.71,6.71,0,0,0,3.23.27,4.38,4.38,0,0,1-3.39.17h0a2.86,2.86,0,0,1-.47-.22h0l-.27-.15a6.46,6.46,0,0,0,1-1.16,14.84,14.84,0,0,1-2.75-.17,10.63,10.63,0,0,0,1.15-1.6c-.82-.16-1.52-.58-2.36-.71a6.74,6.74,0,0,1,1-1.13,2.43,2.43,0,0,0-.42-.46h0c-.22-.17-.47-.32-.7-.47a6.51,6.51,0,0,1,1.47-.49,5.23,5.23,0,0,0-.74-.82c1.72-.8,3.13-.42,4.86.08a8.8,8.8,0,0,0,4.52.3Zm5-24.75h0a6.49,6.49,0,0,0,3-.67,6.76,6.76,0,0,1,2.68-.88,6.26,6.26,0,0,1,2.68.36,2.49,2.49,0,0,0,1.66,0,2.12,2.12,0,0,0,.31-.14,1.49,1.49,0,0,0,.3-.18h0a8.84,8.84,0,0,0,1.36-1.2A14.22,14.22,0,0,0,142,197a2.4,2.4,0,0,0,.33-2,1.35,1.35,0,0,0-.17-.34,3.86,3.86,0,0,1-2,1.73,10.49,10.49,0,0,1-4.56.36,5.85,5.85,0,0,0-1.33,0c-1,.14-2.06.58-3.08.82a27.47,27.47,0,0,1-4.61.62A6.53,6.53,0,0,1,128,200a3.21,3.21,0,0,0,1,1.13Zm-8.59,42.66a7.58,7.58,0,0,0,1.07,1.44,14.88,14.88,0,0,0,.87-3.41q.09-.61.12-1.23a13.86,13.86,0,0,1-2.24.5,17.09,17.09,0,0,1,.18,2.7Z"/><path id="path18" class="cls-5" d="M70.84,193.37c-.17-.92.17-1.44.72-1.66a3.6,3.6,0,0,1,2,0,11.41,11.41,0,0,0,1.91.27,5,5,0,0,1-2.19.25,2.48,2.48,0,0,0-1.69.19c-.6.43-.1,1.68.11,2.48a2.94,2.94,0,0,1-.89-1.49Z"/><path id="path20" class="cls-5" d="M126.68,234.11a1.14,1.14,0,0,1-1.14.78,12.2,12.2,0,0,0-1.71,0,5,5,0,0,0-1.07.17.85.85,0,0,1,.55-.57,1.34,1.34,0,0,1,.37-1.16h0a1.28,1.28,0,0,1,.83-.38,1.31,1.31,0,0,1,1,.36,1.45,1.45,0,0,1,.42,1.07,1.24,1.24,0,0,0,.74-.27Zm-1.2.31a1,1,0,0,0-.23-.71.82.82,0,0,0-.74-.29.86.86,0,0,0-.74,1A12.2,12.2,0,0,1,125.48,234.42Z"/><circle id="circle22" class="cls-5" cx="127.1" cy="229.66" r="0.32"/><circle id="circle24" class="cls-5" cx="127.77" cy="230.51" r="0.32"/><circle id="circle26" class="cls-5" cx="127" cy="231.26" r="0.32"/><circle id="circle28" class="cls-5" cx="128.75" cy="230.07" r="0.32"/><ellipse id="ellipse30" class="cls-5" cx="110.02" cy="209.44" rx="0.66" ry="0.55"/><ellipse id="ellipse32" class="cls-5" cx="126.57" cy="203.93" rx="0.66" ry="0.55"/><ellipse id="ellipse34" class="cls-5" cx="112.44" cy="207.08" rx="0.66" ry="0.55"/><ellipse id="ellipse36" class="cls-5" cx="107.77" cy="207.24" rx="0.66" ry="0.55"/><ellipse id="ellipse38" class="cls-5" cx="120.79" cy="203.93" rx="0.66" ry="0.55"/><ellipse id="ellipse40" class="cls-5" cx="122.37" cy="202.14" rx="0.66" ry="0.55"/><ellipse id="ellipse42" class="cls-5" cx="116.9" cy="205.66" rx="0.66" ry="0.55"/><ellipse id="ellipse44" class="cls-5" cx="100.36" cy="204.45" rx="0.66" ry="0.55"/><ellipse id="ellipse46" class="cls-5" cx="96.79" cy="204.4" rx="0.66" ry="0.55"/><ellipse id="ellipse48" class="cls-5" cx="89.49" cy="203.35" rx="0.66" ry="0.55"/><ellipse id="ellipse50" class="cls-5" cx="77.04" cy="208.55" rx="0.66" ry="0.55"/><ellipse id="ellipse52" class="cls-5" cx="72.11" cy="207.03" rx="0.66" ry="0.55"/><ellipse id="ellipse54" class="cls-5" cx="74.89" cy="207.03" rx="0.66" ry="0.55"/><ellipse id="ellipse56" class="cls-5" cx="78.51" cy="205.97" rx="0.66" ry="0.55"/><ellipse id="ellipse58" class="cls-5" cx="81.35" cy="205.13" rx="0.66" ry="0.55"/><ellipse id="ellipse60" class="cls-5" cx="86.97" cy="202.14" rx="0.66" ry="0.55"/><ellipse id="ellipse62" class="cls-5" cx="83.87" cy="202.98" rx="0.66" ry="0.55"/><ellipse id="ellipse64" class="cls-5" cx="86.99" cy="193.36" rx="0.89" ry="0.75"/><ellipse id="ellipse66" class="cls-5" cx="86.15" cy="199.25" rx="0.89" ry="0.75"/><ellipse id="ellipse68" class="cls-5" cx="104.75" cy="205.92" rx="0.89" ry="0.75"/><ellipse id="ellipse70" class="cls-5" cx="98.55" cy="206.39" rx="0.89" ry="0.75"/><ellipse id="ellipse72" class="cls-5" cx="102.65" cy="202.66" rx="0.89" ry="0.75"/><ellipse id="ellipse74" class="cls-5" cx="98.13" cy="201.82" rx="0.89" ry="0.75"/><ellipse id="ellipse76" class="cls-5" cx="94.98" cy="199.82" rx="0.89" ry="0.75"/><ellipse id="ellipse78" class="cls-5" cx="98.13" cy="198.46" rx="0.89" ry="0.75"/><ellipse id="ellipse80" class="cls-5" cx="101.23" cy="199.51" rx="0.89" ry="0.75"/><ellipse id="ellipse82" class="cls-5" cx="100.76" cy="196.15" rx="0.89" ry="0.75"/><ellipse id="ellipse84" class="cls-5" cx="81.95" cy="193.15" rx="0.89" ry="0.75"/><ellipse id="ellipse86" class="cls-5" cx="78.43" cy="191.84" rx="0.89" ry="0.75"/><ellipse id="ellipse88" class="cls-5" cx="82.16" cy="196.15" rx="0.89" ry="0.75"/><ellipse id="ellipse90" class="cls-5" cx="78.07" cy="195.62" rx="0.89" ry="0.75"/><ellipse id="ellipse92" class="cls-5" cx="73.1" cy="196.99" rx="0.96" ry="0.81"/><ellipse id="ellipse94" class="cls-5" cx="70.05" cy="202.41" rx="0.96" ry="0.81"/><ellipse id="ellipse96" class="cls-5" cx="81.92" cy="199.46" rx="0.96" ry="0.81"/><ellipse id="ellipse98" class="cls-5" cx="76.51" cy="199.41" rx="0.96" ry="0.81"/><ellipse id="ellipse100" class="cls-5" cx="74.3" cy="201.78" rx="0.96" ry="0.81"/><ellipse id="ellipse102" class="cls-5" cx="77.02" cy="203.29" rx="0.89" ry="0.75"/><ellipse id="ellipse104" class="cls-5" cx="72.97" cy="204.45" rx="0.89" ry="0.75"/><ellipse id="ellipse106" class="cls-5" cx="71.87" cy="199.88" rx="0.89" ry="0.75"/><ellipse id="ellipse108" class="cls-5" cx="90.28" cy="206.4" rx="0.66" ry="0.55"/><ellipse id="ellipse110" class="cls-5" cx="87.44" cy="206.34" rx="0.66" ry="0.55"/><ellipse id="ellipse112" class="cls-5" cx="108.18" cy="196.78" rx="0.96" ry="0.81"/><ellipse id="ellipse114" class="cls-5" cx="115.37" cy="202.09" rx="0.96" ry="0.81"/><ellipse id="ellipse116" class="cls-5" cx="124.09" cy="193.21" rx="0.96" ry="0.81"/><ellipse id="ellipse118" class="cls-5" cx="118.11" cy="192.63" rx="0.96" ry="0.81"/><ellipse id="ellipse120" class="cls-5" cx="112.22" cy="192.69" rx="0.96" ry="0.81"/><ellipse id="ellipse122" class="cls-5" cx="109.12" cy="200.51" rx="0.96" ry="0.81"/><ellipse id="ellipse124" class="cls-5" cx="126.17" cy="201.08" rx="0.89" ry="0.75"/><ellipse id="ellipse126" class="cls-5" cx="110.89" cy="205.18" rx="0.89" ry="0.75"/><ellipse id="ellipse128" class="cls-5" cx="117.3" cy="199.3" rx="0.89" ry="0.75"/><ellipse id="ellipse130" class="cls-5" cx="111.68" cy="197.93" rx="0.89" ry="0.75"/><ellipse id="ellipse132" class="cls-5" cx="108.21" cy="193.36" rx="0.89" ry="0.75"/><ellipse id="ellipse134" class="cls-5" cx="115.62" cy="195.46" rx="0.89" ry="0.75"/><ellipse id="ellipse136" class="cls-5" cx="121.45" cy="195.62" rx="0.89" ry="0.75"/><ellipse id="ellipse138" class="cls-5" cx="126.86" cy="195.09" rx="0.89" ry="0.75"/><ellipse id="ellipse140" class="cls-5" cx="80.06" cy="202.18" rx="0.89" ry="0.75"/></g><g id="Warstwa_1"><path id="path10-2" data-name="path10" class="cls-3" d="M154.49,10.88V90c-.06,18.55-11.88,30.6-29,39.29a88.38,88.38,0,0,1-11.33,5h0c-5.8,2.13-11.94,5.38-15.24,8.92l-.81.88-.82-.88c-3.35-3.66-9-6.64-14.47-8.84h0c-3.71-1.52-7.92-2.82-12.23-5C53.52,120.86,41.9,108.42,41.91,90V10.88Z"/><path id="path10_0" data-name="path10 0" class="cls-7" d="M77.85,130l1.4.53.22-29.21h0v-.8a25.75,25.75,0,0,1,2.77-9.42A35.26,35.26,0,0,1,88,82.59c2.75-2.9,6.1-5.43,10.21-5.84h0A15.18,15.18,0,0,1,106.59,81a34.43,34.43,0,0,1,7.19,9.76A26.88,26.88,0,0,1,117,101.32l0,29.42,1.4-.55,0-28.8a30.51,30.51,0,0,0-2.88-10.52A32.47,32.47,0,0,0,108,80.64a22.17,22.17,0,0,0-9.67-5.27,20.42,20.42,0,0,0-10.47,5,30.32,30.32,0,0,0-7.46,10.36,29.42,29.42,0,0,0-2.55,10.47l0,28.83Zm2.36-28.68L80,130.84l1.3.49,0-28.72A25.24,25.24,0,0,1,84.22,92a31.26,31.26,0,0,1,6-8.18,19.08,19.08,0,0,1,8-4.85,18.53,18.53,0,0,1,6.94,3.85,27.24,27.24,0,0,1,6.37,8.3,25.81,25.81,0,0,1,3,11.34l0,29.27,1.83-.71,0-29.69a26.68,26.68,0,0,0-3.12-10.25A34.31,34.31,0,0,0,106,81.52a14.06,14.06,0,0,0-7.79-4c-3.82.39-7.17,2.83-9.68,5.61a35.33,35.33,0,0,0-5.62,8.29,23.51,23.51,0,0,0-2.73,9.95h0Zm42.47-35.1h-5.79V61.17h5.79Zm11.75-5.09v5.09H123.05V61.17Zm6.1,0v5.09H134.8V61.17Zm-12,10.35h-11.6V66.63h11.6Zm12,0H128.86V66.63h11.67Zm-84-10.72V55.72H68.1V60.8Zm0,5.47v-5.1h5.65v5.1ZM79.59,55.72V60.8H68.47V55.72ZM68.11,71.52H56.53V66.64H68.11v4.88Zm11.48,0H68.48V66.64H79.59ZM104.4,60.8V55.72h6.15V60.8Zm-30.13.37h5.32v5.1H74.27Zm-.37,5.1H62.55v-5.1H73.9v5.1Zm55-10.55h11.64V60.8H128.89ZM86.09,60.8V55.72h6.15V60.8Zm6.15.37h.37V55.72H104v5.45h6.52v5.09H86.09v-5.1ZM123,128.1c-1.41.72-2.64,1.28-3.84,1.78V128.1Zm11.45-26.84H123.11v-5h11.31v5Zm0,10.48H123.11v-5h11.31Zm6.1-5.33H128.85v-4.78h11.67v4.78Zm5.54-5.15H134.79v-5h11.27ZM140.52,91v4.91H128.85V91Zm-6.1-5.44v5.07H123.11V85.52Zm11.64,0v5.07H134.79V85.52Zm-11.27-5.6V74.84h11.27v5.08Zm-11.68,0V74.84h11.31v5.08Zm17.41.36v4.87H128.85V80.28Zm-29.64-5.44h11.86v5.08H110.88Zm6,5.44h11.61v4.87H116.88V80.28ZM77.11,128.16v1.59c-1.27-.49-2.56-1-3.85-1.59Zm-15-26.9H50.67v-5H62.15Zm5.94,15.89H56.54v-5H68.09Zm0-10.75H56.52v-4.77H68.09Zm5.87,16H63l-.49-.33v-4.58H74Zm0-10.68H62.52v-5H74v5Zm0-10.49H62.52v-5H74v5ZM68.09,91v4.88H56.53V91Zm-5.92-5.47v5.1H50.66v-5.1Zm11.8,0v5.1H62.54v-5.1ZM62.53,79.94v-5.1H74v5.1Zm-11.87,0v-5.1h11.5v5.1Zm17.43.37v4.84H56.52V80.31Zm11.5,4.84H68.45V80.31H79.59Zm28.71-5.23a24.25,24.25,0,0,0-9.09-5.08h11.3v5.08Zm4.75,5.23a29.94,29.94,0,0,0-4.33-4.87h7.79v4.87Zm3.19,5.44a38.78,38.78,0,0,0-2.93-5.07h9.43v5.07Zm2,5.3A30.07,30.07,0,0,0,116.41,91h12.08v4.91H118.23Zm.94,5.38a29.2,29.2,0,0,0-.85-5h4.42v5Zm0,5.14v-4.78h9.31v4.78Zm0,5.33v-5h3.57v5Zm0,5.39v-5h9.33v5Zm0,5.28V117.5h3.59v4.91Zm9.34,2.74c-1.3.74-2.63,1.46-4,2.16h0l-.77.41h-4.54v-5h9.34v2.37Zm3.9-2.37q-1.71,1.11-3.54,2.16v-2.16Zm2-1.37c-.48.34-1,.67-1.47,1h-9.84V117.5h11.31Zm5-3.91a55,55,0,0,1-4.62,3.65V117.5Zm1.11-1-.7.64h-11v-5h11.67Zm4.07-4.39a41.16,41.16,0,0,1-3.7,4v-4Zm1.5-2c-.39.55-.79,1.1-1.21,1.64H134.79v-5h11.27v3.33Zm2.06-3.33c-.53,1-1.1,1.92-1.72,2.84v-2.84Zm2.25-5.14a32.67,32.67,0,0,1-2.06,4.77h-7.45v-4.78Zm1.35-5.39a33.47,33.47,0,0,1-1.23,5h-4.09v-5Zm.5-5.28a36.87,36.87,0,0,1-.44,4.91H140.89V91Zm0-5.44V90c0,.2,0,.41,0,.61h-5.83V85.52Zm0-5.24v4.87H140.89V80.28Zm0-5.44v5.08h-5.84V74.84ZM44.13,79.94v-5.1h6.16v5.1Zm0,5.21V80.31h12v4.84Zm0,5.47c0-.21,0-.42,0-.63V85.52h6.16v5.1Zm.42,5.25A40.47,40.47,0,0,1,44.15,91h12v4.88Zm1.25,5.39a35.32,35.32,0,0,1-1.19-5H50.3v5Zm2.12,5.14a34.54,34.54,0,0,1-2-4.77H56.15v4.77Zm2.35,3.93a36,36,0,0,1-2.16-3.57h2.16Zm1,1.42-.67-.9h0v-4.09h11.5v5Zm4.86,5.33a42.5,42.5,0,0,1-4.57-5h4.57Zm6,4.77a56.16,56.16,0,0,1-5.5-4.33h5.5Zm6,3.68q-2.37-1.31-4.54-2.73h4.54v2.73Zm9-2.73v5H72.47l-.89-.43h0c-1-.53-2.09-1.06-3.09-1.62V122.8Zm0-5.28v4.91H74.33v-4.91Zm0-5.4v5H68.46v-5Zm0-5.36v5H74.34v-5Zm0-5.13v4.77H68.46v-4.77Zm.67-5.4a27.87,27.87,0,0,0-.67,5v.05H74.34v-5ZM79.46,91a30.68,30.68,0,0,0-1.62,4.88H68.45V91Zm2.93-5.47a35.86,35.86,0,0,0-2.77,5.1H74.34v-5.1Zm4.42-5.21a27.13,27.13,0,0,0-4.17,4.84H80V80.31Zm-.68-5.47h10.8a21.76,21.76,0,0,0-9.71,5.1H86.13Zm-.37,5.1H74.34v-5.1H85.76ZM79.69,36.72a2.42,2.42,0,0,1-.56,1.58,2.2,2.2,0,0,1-1.75.72H58.88a2.23,2.23,0,0,1-1.76-.73,2.41,2.41,0,0,1-.55-1.58H79.69ZM74.33,30.8V23.9h5.36v6.9Zm-8.84,0V23.9H71v6.9Zm-8.93,0V23.9h5.6v6.9Zm5.6.37v5.18h-5.6V31.17Zm5.94,0v5.18H62.53V31.17Zm5.87,0v5.18h-5.5V31.17H74Zm5.72,0v5.18H74.33V31.17ZM64.34,50.33v5H58.57v-5Zm12.93,0v5h-5.6v-5Zm-5.6-5.69V39.39h5.6v5.25Zm-13.1,0V39.39h5.76v5.25Zm8.92,0H64.7V39.39h6.6v5.25H69.21V42.53H67.49v2.11ZM66,50H58.57V45h8.92v1.66A2.49,2.49,0,0,0,66,50Zm4.58.37h.74v5H64.71v-5h1.45a2.58,2.58,0,0,0,4.4,0Zm-1.35-3.66h0V45h8.06v5H70.74a2.32,2.32,0,0,0,.18-.92A2.52,2.52,0,0,0,69.21,46.67ZM91.52,30.8H86.09V25.47h5.43Zm13.6-5.34h5.43V30.8h-5.43V25.46Zm-13.6-7.07V25.1H86.09V18.39Zm9.54,0V25.1H95.48V18.39Zm9.49,0V25.1h-5.43V18.39ZM98.39,25.46h6.36V30.8H98.39ZM98,30.8H91.89V25.47H98ZM88.4,33.56a2.35,2.35,0,0,1-1.72-.72,2.55,2.55,0,0,1-.59-1.67h24.46a2.65,2.65,0,0,1-.61,1.69,2.24,2.24,0,0,1-1.62.7Zm10,16.77H108v5H98.38Zm-.37,5H88.64v-5H98v5ZM94.23,50H88.64V45h5.59v5Zm8-5H108v5h-5.77Zm-8-6H88.64V33.93h5.61Zm8-5.09H108V39h-5.79ZM97.32,39h-2.7V33.93h7.23V39H99v-2.4H97.32Zm-1.18,5.62h-7.5V39.39h8.68v1.38a2.52,2.52,0,0,0-1.68,2.37,2.46,2.46,0,0,0,.5,1.5ZM99.9,45h2v5H94.6V45h1.89a2.59,2.59,0,0,0,3.41,0ZM99,40.76h0V39.39h9v5.25h-7.76A2.51,2.51,0,0,0,99,40.76Zm27.08-10V23.9h5.47v6.9Zm14.41-6.9v6.9h-5.69V23.9Zm-5.69,12.45V31.17h5.69v5.18Zm-18,0V31.17h5.86v5.18Zm12-5.18h5.56v5.18h-5.56Zm-.37,5.18h-5.45V31.17h5.45v5.18ZM122.72,23.9v6.9h-5.86V23.9Zm15.14,31.46h-6v-5h6Zm-18.55-5h6.39v5h-6.39v-5ZM44.13,60.8V55.74h6.16V60.8Zm0,5.47v-5.1h6.16v5.1Zm0,5.25V66.64h12v4.88Zm108.14.36v2.59H44.13V71.89H88.48v-.36H80V66.64h36.55v4.89H108v.37Zm0-5.25v4.89H140.9V66.63Zm0-5.46v5.09h-5.83V61.17Zm0-5.45V60.8h-5.83V55.72ZM125.7,44.64h-6.39V39.39h6.39v5.25Zm6.22-5.25h5.94v5.25h-5.94V39.39Zm-4.07,5.25h-1.78V39.39h5.48v5.25h-2V42.52h-1.72v2.12ZM126.34,50h-7V45h8.54v1.66A2.52,2.52,0,0,0,126.17,49a2.55,2.55,0,0,0,.17.92Zm4.58.37h.61v5h-5.46v-5h.46a2.57,2.57,0,0,0,4.39,0Zm-1.35-3.67h0V45h8.29v5h-6.75a2.52,2.52,0,0,0-1.54-3.3ZM138.23,39A2.15,2.15,0,0,0,140,38.3a2.5,2.5,0,0,0,.58-1.58H116.87a2.43,2.43,0,0,0,.57,1.58,2.16,2.16,0,0,0,1.73.73Zm-9.7,21.78H116.88V55.72h11.65Z"/><path id="path10_1" data-name="path10 1" class="cls-8" d="M116.5,36.71V23.53h6.59V30.8h2.66V23.53H132V30.8h2.51V23.53h6.43V36.71a2.83,2.83,0,0,1-.67,1.83,2.62,2.62,0,0,1-2,.85h0v16h2.67v10.9h5.17V55.36h6.2V13.1H44.13V55.37h6.53v.37h0V66.27h5.5V55.72h0v-.36h2v-16h0v-.07a2.49,2.49,0,0,1-1.35-.78,2.78,2.78,0,0,1-.65-1.82V23.53h6.34V30.8h2.59V23.9h0v-.36h6.27V30.8H74V23.9h0v-.37h6.09V36.72a2.89,2.89,0,0,1-.65,1.84,2.55,2.55,0,0,1-1.77.82h0v16H80V66.27h5.76V55.36h2.56V33.93a2.58,2.58,0,0,1-1.88-.86,3.11,3.11,0,0,1-.68-1.9V18h6.17V25.1h3.22V18h6.32V25.1h3.32V18h6.17V31.17a2.9,2.9,0,0,1-.65,1.87,2.69,2.69,0,0,1-1.89.89h0V55.35h2.55v.37h0V66.26h5.59V55.36h2.43v-16h0a2.57,2.57,0,0,1-1.8-.82,2.84,2.84,0,0,1-.64-1.85ZM82,131.61l.06-29A26,26,0,0,1,84.91,92.3a30.07,30.07,0,0,1,5.79-7.92,17.65,17.65,0,0,1,7.48-4.63,17.19,17.19,0,0,1,6.64,3.81,27.11,27.11,0,0,1,6.05,8,26.09,26.09,0,0,1,2.84,10.93l0,29.57-.33.13c-5.59,2.05-11.43,5-15.24,8.68-3.78-3.71-9.24-6.49-14.47-8.59L82,131.61Z"/><path id="path1021" class="cls-3" d="M88.9,97.08l-2.7,1,2.15,2.59v17.45l-3.42,3.17.32.16a10.27,10.27,0,0,1,4.9,6l.09.34,7.92-5.29-.55-.89.72-.45L97.4,120l-4.07,2.53c-.3-.64-.75-1.87-2.1-1.88L94,117.85l.06-4.69,3.71-.75a31.28,31.28,0,0,1,6.65,13.28l.09.34,6.4-3.94-.43-1,.6-.47-.44-1.17-2.4,1.17a19.87,19.87,0,0,0-5.71-9.79l2.65-1c3.21-1.09,1.66-13.67-4.66-12.44L92.67,98.9l-2-1.82h0l-1.25.56-.53-.56Z"/><path id="path1021_2" data-name="path1021 2" class="cls-7" d="M88.76,97.65l2.75,2.91.14,0c1.15-.24,3.57-.92,5.91-1.39a24.68,24.68,0,0,1,3.26-.46,8.4,8.4,0,0,1,.88,0,3,3,0,0,1,2,1,5.29,5.29,0,0,1,.86,1.4,12.9,12.9,0,0,1,.91,3.47,13.78,13.78,0,0,1,0,3.32,4.53,4.53,0,0,1-.25,1.09.74.74,0,0,1-.35.41l-4.62,1.69.3.28a22.26,22.26,0,0,1,6,11.11l.07.32.3-.16,2.91-1.6.35.86-5.43,3.35A31.62,31.62,0,0,0,98,112l-.09-.11L92.18,113l0,4.67-3,3,.35.14a4.69,4.69,0,0,1,2.93,3.07l.09.32L97,121.58l.51.81-7,4.64a10.67,10.67,0,0,0-4.74-5.87l3.07-2.84V100.49L87,98.3Z"/><path id="path1021_3" data-name="path1021 3" class="cls-9" d="M100.15,100.22a7.81,7.81,0,0,0-2.15.2l-3.58.7-2.19.44v10.32l8.82-2.25h0a1.82,1.82,0,0,0,1-1,6.46,6.46,0,0,0,.27-.6l.16-.44a7.45,7.45,0,0,0,.35-2.65,7.27,7.27,0,0,0-1.14-3.82,2.3,2.3,0,0,0-1.61-.92Z"/><path id="path1021_4" data-name="path1021 4" class="cls-10" d="M94.47,109.5l7.49-1.76a7.34,7.34,0,0,0-.61-6.3,1.69,1.69,0,0,0-1.25-.72,7.84,7.84,0,0,0-2,.19l-3.68.72Z"/><path id="path1037" class="cls-11" d="M66-3.91c-1.53-5.38,3.61-10.91,10.45-13.76A50.73,50.73,0,0,1,97.1-21.11c.29,2.89.15,5.59-1.72,7.53.65,1.25,1.75,2.42,1.89,3.69-2.25-2-4.64-2.47-5.42.45-.17,2.08,1.55,4.19.86,6.85,4-.79,2.07-2.83,3.08-4.14C97.63-3.31,97.27,2.81,92.44.9c-1.67-1.72-2.34-3.35-.79-4.74L89.38-9.7,88.17-4l1.21,1.42c.15,2.05-.12,3.66-1,4.64-4.28,1.05-5.59-3.66-3.85-6.68,1,.86-.54,3,3.06,2.51C85.25-4,90-9.25,85.44-10.06c-2.48,0-2.17,1.2-3.25,1.84l.17-1L83.5-11.9l-3.41-4.48-1.48,5.27L80.8-8.27l.51.94c-2.66-1.29-4.59-.62-4.74,1.58.1,1.65,2.39,3.49,2.3,5.52,2.94-1.41.93-2.46,1.38-3.68,2.71,1.6,3.11,7.15-.33,7.11-2.7-.58-3.56-2.66-2.63-4.57L74.3-6l0,5.89c1.84,1.53.74,4.35-1.72,5.86-2,.31-3.58-1.7-3.89-3.66-.27-1.55,1.33-2.82.9-3.87,1.29,1.07-.24,3.46,3.88,3.23C71,0,73.8-3.53,71.84-6.28c-2-1.84-3.92-.26-5.88,2.37Zm64,.24c1.34-5.17-3.8-11.39-10.54-14.24-6.33-2.65-14.41-3.35-20.58-3.2-.31,2.89.19,5.69,2,7.63a9.75,9.75,0,0,0-2.22,3.59c2.25-2,4.64-2.47,5.45.45.14,2.08-1.39,3.85-.69,6.51-2.85-.6-1.94-3.16-2.68-3.76C97.77-3.41,98.82,3,103.65,1.09a3.11,3.11,0,0,0,.6-4.93,48,48,0,0,0,2.39-5.62,21.07,21.07,0,0,0,1.41,6.08l-1.1.69a3.5,3.5,0,0,0,.93,4.21c3.56,1,6-3.8,4.28-6.82-1,.82.12,2.78-3.23,2.85,2.89-1.8-2.7-7,1.56-8,2.46,0,1.14,1.1,2.74,1.79l.15-1.58-.7-1.48L116.34-16l.74,5-1.46,1.41L114.88-8c2.66-1.29,4.5-.72,4.64,1.48S115.15-3.84,117.2-.7c-2.94-1.42-1.5-2.9-2-4.12-2.56,1.87-2.66,8.11.79,8,2.7.52,3.58-2.11,2.39-4.19a16,16,0,0,0,3.17-4.64l.05,5.74c-2.24,1.53-1.79,3.68,1.41,5.19,2,.82,4-1.1,4.3-3.23.24-1.55-.59-2.3-.64-3.44-1.15.59.12,3-3.51,2.7,2.48-1.44-1.53-4.19.4-6.94,2-1.84,4.4-.69,6.36,1.94ZM98.8-32.5l-1.29,0,.36,1.72L95.6-31l0,.95,2.32,0,0,2.49H97a2.15,2.15,0,0,0-2.17,2.1h0A2.14,2.14,0,0,0,97-23.41h.43V-23c-14,.17-24.28,3.66-31.35,9.91-2.41,3.16-4.52,2.18-6.48-.53l-.93-.5L72.46,14.68C81.14,12.58,89.07,11.14,97,11a93.24,93.24,0,0,1,25.86,3.61L137.92-14.2c-2.37.79-4.37,4.93-7.1,2.37C123.68-19.8,113-23.27,99.28-23v-.36a2.13,2.13,0,0,0,2.08-2.11h0a2.15,2.15,0,0,0-2.18-2.1h-.5l0-2.4,1.74.2-.05-1.08-1.65.17.1-1.77Z"/><path id="path1013" class="cls-3" d="M97.51,58.23l.19.65-.79-.18v1.5l.9-.26v.53a.37.37,0,0,1-.11.05,1.84,1.84,0,0,0-1.34,1.76v.06a.71.71,0,0,0-.39-.11h-.15a.34.34,0,0,0,0-.1.75.75,0,0,0-.74-.74.73.73,0,0,0-.3.06.73.73,0,0,0-.74-.69.71.71,0,0,0-.47.17.74.74,0,0,0-.71-.54.77.77,0,0,0-.62.34.75.75,0,0,0-.62-.34.73.73,0,0,0-.72.56.77.77,0,0,0-.44-.14.73.73,0,0,0-.74.72v.05a.66.66,0,0,0-.21,0,.76.76,0,0,0-.69,1h-.07a.75.75,0,0,0-.74.74.73.73,0,0,0,.08.33.72.72,0,0,0-.63.71.76.76,0,0,0,.32.61.71.71,0,0,0-.46.66.72.72,0,0,0,.31.6.71.71,0,0,0-.33.6.75.75,0,0,0,.37.64.7.7,0,0,0-.28.56.75.75,0,0,0,.46.68.7.7,0,0,0-.18.48.72.72,0,0,0,.58.7.71.71,0,0,0-.14.43.7.7,0,0,0,.49.68.75.75,0,0,0-.22.52.72.72,0,0,0,.72.72.71.71,0,0,0,.46-.17A1.92,1.92,0,0,0,90,73.15a1.39,1.39,0,0,0,1.13.49.36.36,0,0,0,.21,0c.9-.42,1.31-.68,1.59-.78a1.64,1.64,0,0,1,.93,0,.91.91,0,0,0,.41-.1c.14,0,.29-.13.44-.2a6.19,6.19,0,0,1,.76-.37,1,1,0,0,1,.56,0,2.17,2.17,0,0,0,.71,0,11.85,11.85,0,0,1,1.48-.37,2.46,2.46,0,0,1,.69.2,1.46,1.46,0,0,0,.79.14,2.64,2.64,0,0,1,1.75.37,2.17,2.17,0,0,0,1.48.42,1.42,1.42,0,0,1,1.46.21c.14.11.28.25.46.37a1.2,1.2,0,0,0,.69.2,1.29,1.29,0,0,0,1-.55,2,2,0,0,0,.39-1.06.68.68,0,0,0,.42.14.73.73,0,0,0,.73-.72.7.7,0,0,0-.23-.52.7.7,0,0,0,.36-1.11.73.73,0,0,0,.59-.7.75.75,0,0,0-.18-.48.74.74,0,0,0,.43-.68.69.69,0,0,0-.27-.55.75.75,0,0,0,.39-.65.71.71,0,0,0-.35-.61.73.73,0,0,0,.3-.59.71.71,0,0,0-.44-.66.73.73,0,0,0,.33-.61.72.72,0,0,0-.64-.71.73.73,0,0,0,.08-.33.74.74,0,0,0-.74-.74h-.07a.73.73,0,0,0-.69-1,.76.76,0,0,0-.21,0v-.05A.74.74,0,0,0,105.6,61a.74.74,0,0,0-.72-.56.76.76,0,0,0-.63.34.73.73,0,0,0-1.32.2.73.73,0,0,0-.47-.17.72.72,0,0,0-.74.69.77.77,0,0,0-.3-.06.74.74,0,0,0-.74.74.71.71,0,0,0,0,.21.88.88,0,0,0-.29-.05.73.73,0,0,0-.35.09.45.45,0,0,0,0-.11,1.82,1.82,0,0,0-1.34-1.76l-.14-.05v-.53l.88.26V58.72l-.72.18.23-.67Z"/><path id="path1013_5" data-name="path1013 5" class="cls-11" d="M101.31,62.85l-.15.13a.57.57,0,0,0,0-.18Zm-.84.9-.09.12a.61.61,0,0,0,0-.12h.14Zm-.68,1-.13.23a1.43,1.43,0,0,0-.08-.22h.21Zm-.85,1.92c-.15.36-.3.74-.42,1s-.2.57-.27.85c-.09-.33-.22-.69-.33-1s-.25-.64-.39-1a1.38,1.38,0,0,0,1.41.05Zm9.52-.34a.47.47,0,0,1,.49.46.5.5,0,0,1-.49.49.49.49,0,0,1-.48-.49A.46.46,0,0,1,108.46,66.34Zm-.06,2.15a.77.77,0,0,0-.26-.07h0a.5.5,0,0,1-.28-.42.49.49,0,0,1,1,0,.48.48,0,0,1-.43.49Zm-.31.18a.49.49,0,0,1,.49.49.47.47,0,0,1-.49.46.46.46,0,0,1-.48-.46A.48.48,0,0,1,108.09,68.67Zm-.44,1.16a.46.46,0,1,1,0,.92.46.46,0,0,1,0-.92Zm-.27,1.2a.46.46,0,1,1-.42.65.67.67,0,0,1,0-.19A.45.45,0,0,1,107.38,71Zm-8-6.59-.14-.16a.37.37,0,0,1-.07-.23.59.59,0,0,1,0-.23h0a1.64,1.64,0,0,0,.26-.2h0a.49.49,0,0,1,.65.44.47.47,0,0,1-.49.47.5.5,0,0,1-.27-.08Zm-.47-.39-.1,0,.11,0A.19.19,0,0,0,98.92,64.05Zm.83-.73Zm.19-.36a1.72,1.72,0,0,0,.07-.21.45.45,0,0,1,.14-.13.52.52,0,0,1,.27-.07.47.47,0,0,1,.49.46.49.49,0,0,1-.49.49.48.48,0,0,1-.48-.49Zm1.48-1.31a.48.48,0,0,1,.48.49.46.46,0,0,1-.48.46.47.47,0,0,1-.49-.46A.49.49,0,0,1,101.42,61.65Zm1-.62a.46.46,0,0,1,.48.46.49.49,0,0,1-.48.49.5.5,0,0,1-.49-.49A.47.47,0,0,1,102.46,61Zm1.17-.37a.49.49,0,0,1,.49.48.47.47,0,0,1-.49.47.47.47,0,0,1-.48-.47A.48.48,0,0,1,103.63,60.66Zm1.25,0a.47.47,0,0,1,.49.46.5.5,0,0,1-.49.49.49.49,0,0,1-.48-.49A.46.46,0,0,1,104.88,60.66Zm1.16.41a.47.47,0,0,1,.48.47.48.48,0,0,1-.1.28l0,0a.48.48,0,0,1-.85-.31.47.47,0,0,1,.49-.47Zm.94.74a.5.5,0,0,1,.49.49.47.47,0,0,1-.49.46.46.46,0,0,1-.48-.46A.49.49,0,0,1,107,61.81Zm.76,1a.49.49,0,0,1,.49.48.47.47,0,0,1-.18.37l-.16.07h-.15a.46.46,0,0,1-.48-.46.48.48,0,0,1,.48-.48Zm.56,1.06a.46.46,0,0,1,.48.46.49.49,0,0,1-.48.49.5.5,0,0,1-.49-.49A.47.47,0,0,1,108.3,63.87Zm.11,1.27a.47.47,0,0,1,.49.46.5.5,0,0,1-.49.49.49.49,0,0,1-.48-.49A.46.46,0,0,1,108.41,65.14Zm-11.22,4a4.18,4.18,0,0,0,1,.32,2.91,2.91,0,0,0,.81-.16,1.7,1.7,0,0,1,.67-.12,2,2,0,0,1,1.41.74.57.57,0,0,0,.42.14,1.16,1.16,0,0,0,.41-.09,2.75,2.75,0,0,1,.69-.23,1.26,1.26,0,0,1,.7.18,3.92,3.92,0,0,1,.74.65.52.52,0,0,0,.34.16,1.18,1.18,0,0,0,.37,0,2.91,2.91,0,0,1,.7-.11,1.22,1.22,0,0,1,1,.44,1.52,1.52,0,0,1,.28,1,1.88,1.88,0,0,1-.35,1,1.06,1.06,0,0,1-.83.44.9.9,0,0,1-.53-.16c-.15-.1-.28-.24-.44-.37a1.79,1.79,0,0,0-1.69-.26c-.38.1-.78-.13-1.29-.39a2.87,2.87,0,0,0-1.92-.37,1.33,1.33,0,0,1-.64-.14,2.55,2.55,0,0,0-.79-.23,7.74,7.74,0,0,0-1.5.4,2.06,2.06,0,0,1-.65,0,1.24,1.24,0,0,0-.67,0,5.77,5.77,0,0,0-.81.39,3.43,3.43,0,0,1-.41.18.76.76,0,0,1-.3.07,1.92,1.92,0,0,0-1,0c-.32.12-.7.36-1.59.78h-.12a1.12,1.12,0,0,1-.92-.41,1.69,1.69,0,0,1-.4-1,1.52,1.52,0,0,1,.28-1,1.32,1.32,0,0,1,1-.5,1.57,1.57,0,0,1,.67.23.83.83,0,0,0,.39.09.8.8,0,0,0,.46-.21c.24-.21.41-.45.6-.62a.93.93,0,0,1,.69-.28,1.88,1.88,0,0,1,.7.19,2.85,2.85,0,0,0,.46.18.38.38,0,0,0,.3,0,.72.72,0,0,0,.18-.21,2.37,2.37,0,0,1,.63-.65,1,1,0,0,1,1,0Zm-.46.37a1,1,0,0,0,0,1.94,1,1,0,1,0,0-1.94Zm3,0a1,1,0,0,0,0,1.94,1,1,0,1,0,0-1.94Zm-5.84.64a1,1,0,0,0-1,1,1,1,0,0,0,1.94,0A1,1,0,0,0,93.91,70.17Zm8.68,0a1,1,0,0,0-1,1,1,1,0,0,0,1,1,1,1,0,0,0,1-1A1,1,0,0,0,102.59,70.17ZM91.14,71a1,1,0,0,0-1,1,1,1,0,0,0,1.94,0A1,1,0,0,0,91.14,71Zm14.27,0a1,1,0,0,0-1,1,1,1,0,1,0,1.94,0A1,1,0,0,0,105.41,71Zm-8.72-7.67-.14.05a1,1,0,0,0,.08-.14Zm-.45.3a.66.66,0,0,0-.11.24L96,63.68A.7.7,0,0,0,96.24,63.63Zm.47,1.13H97a2.81,2.81,0,0,0-.1.31C96.82,65,96.77,64.86,96.71,64.76Zm.87-.68V64l.1,0-.1.06Zm-.74-.51h.06a1.75,1.75,0,0,0,.39.28.43.43,0,0,1,0,.19.47.47,0,0,1-.49.47.46.46,0,0,1-.38-.19l0-.07a.46.46,0,0,1,0-.21.48.48,0,0,1,.48-.48Zm1.44.58a1.22,1.22,0,1,1-1.18,1.22A1.19,1.19,0,0,1,98.28,64.15Zm-4.4-2.21-.06,0a.5.5,0,0,1-.25-.43.46.46,0,0,1,.48-.46.47.47,0,0,1,.49.46.5.5,0,0,1-.49.49.47.47,0,0,1-.17,0ZM89.11,71a.46.46,0,1,1,0,.92.46.46,0,1,1,0-.92Zm-.28-1.2a.46.46,0,1,1,0,.92.46.46,0,0,1,0-.92Zm-.41-1.16a.48.48,0,0,1,.48.49.46.46,0,0,1-.48.46.47.47,0,0,1-.49-.46A.49.49,0,0,1,88.42,68.67Zm-.28-1.13a.48.48,0,0,1,.11.94.5.5,0,0,1-.6-.48A.47.47,0,0,1,88.14,67.54Zm-.09-1.2a.45.45,0,0,1,.46.46.47.47,0,0,1-.46.49.5.5,0,0,1-.49-.49A.47.47,0,0,1,88.05,66.34Zm0-1.2a.46.46,0,0,1,.48.46.49.49,0,0,1-.48.49.5.5,0,0,1-.49-.49A.47.47,0,0,1,88.07,65.14Zm.58-1.38a1,1,0,0,0-.23-.12.43.43,0,0,1-.14-.35.48.48,0,0,1,.48-.48.49.49,0,0,1,.49.48.47.47,0,0,1-.49.46Zm-.44.11a.46.46,0,0,1,.48.46.49.49,0,0,1-.48.49.5.5,0,0,1-.49-.49A.47.47,0,0,1,88.21,63.87Zm1.31-2.06a.48.48,0,0,1,.47.49.45.45,0,0,1-.47.46A.46.46,0,0,1,89,62.3.49.49,0,0,1,89.52,61.81Zm1-.74a.47.47,0,0,1,.49.47.49.49,0,0,1-1,0A.47.47,0,0,1,90.47,61.07Zm1.16-.41a.46.46,0,0,1,.48.46.49.49,0,0,1-.48.49.5.5,0,0,1-.49-.49A.47.47,0,0,1,91.63,60.66Zm1.24,0a.49.49,0,0,1,.49.48.47.47,0,0,1-.49.47.47.47,0,0,1-.48-.47A.48.48,0,0,1,92.87,60.66Zm2.22,1a.48.48,0,0,1,.48.49.46.46,0,0,1-.48.46.47.47,0,0,1-.49-.46A.49.49,0,0,1,95.09,61.65Zm.88.83a.48.48,0,0,1,.34.16,1.85,1.85,0,0,0,.12.33.47.47,0,0,1-.46.46.49.49,0,0,1-.49-.49.47.47,0,0,1,.49-.46Zm1.87-4h.78l-.25.76.85-.21v.81l-.87-.23v.9a.15.15,0,0,0,0,.12.86.86,0,0,0,.28.11,1.58,1.58,0,0,1-.44,3.1,1.56,1.56,0,0,1-1.62-1.57,1.6,1.6,0,0,1,1.16-1.53.62.62,0,0,0,.28-.14.27.27,0,0,0,0-.11v-.88l-.9.25V59l.9.21-.23-.74Z"/><path id="path1013_6" data-name="path1013 6" class="cls-8" d="M90.3,70.47l-.11.08c-.13-.39-.24-.79-.37-1.12a7.65,7.65,0,0,1-.37-4.2A3.63,3.63,0,0,1,91.3,62.6a2.53,2.53,0,0,1,1.46-.19c.07,0,.15.08.23.1a2.59,2.59,0,0,0-1.48.18,3.64,3.64,0,0,0-1.89,2.66A7.5,7.5,0,0,0,90,69.48C90.09,69.76,90.19,70.13,90.3,70.47Zm6.36-1.66A1,1,0,0,0,96,69a2.34,2.34,0,0,0-.67.71.46.46,0,0,1-.12.14s0,0-.09,0-.21-.12-.42-.21a2.16,2.16,0,0,0-.81-.18,1.16,1.16,0,0,0-.85.34c-.21.2-.39.44-.6.63a.53.53,0,0,1-.3.14.81.81,0,0,1-.3-.1,1.67,1.67,0,0,0-.79-.23,2,2,0,0,0-.57.13c-.1-.34-.2-.67-.3-1a7.18,7.18,0,0,1-.35-4,3.42,3.42,0,0,1,1.76-2.5,2.78,2.78,0,0,1,2.79.42,6.49,6.49,0,0,1,2.26,3.14,13.86,13.86,0,0,1,.81,2.31s0,.14,0,.23a2,2,0,0,0-.26-.09,1.73,1.73,0,0,0-.6-.12Zm-6.75,2c-.13-.42-.26-.85-.39-1.2a8.36,8.36,0,0,1-.39-4.55,3.86,3.86,0,0,1,2-2.84A2.72,2.72,0,0,1,92.71,62a4,4,0,0,1,1.62.67,6.35,6.35,0,0,1,1.5,1.55,8.56,8.56,0,0,1,1.11,2c.17.47.42,1,.62,1.59a3.93,3.93,0,0,1,.25,1.27h0c0-.12,0-.29,0-.33a12.32,12.32,0,0,0-.81-2.4s0-.1,0-.14a7.14,7.14,0,0,0-2.49-3.4,4,4,0,0,0-1.6-.67,2.8,2.8,0,0,0-1.59.19,3.83,3.83,0,0,0-2,2.79,8,8,0,0,0,.37,4.34c.13.34.25.81.39,1.24l-.07.08ZM99.07,69h0a3.63,3.63,0,0,1,.23-1.18c.19-.52.41-1,.58-1.5a6.84,6.84,0,0,1,2.4-3.28,3.72,3.72,0,0,1,1.48-.65,2.56,2.56,0,0,1,1.47.19s.06.07.1.09a3.13,3.13,0,0,0-3,.44A6.74,6.74,0,0,0,100,66.39c-.14.39-.35.87-.53,1.36A4.13,4.13,0,0,0,99.15,69h-.08Zm.3-.07a4.69,4.69,0,0,1,.29-1.11c.18-.48.38-1,.53-1.36a6.59,6.59,0,0,1,2.29-3.14,2.78,2.78,0,0,1,2.79-.42,3.42,3.42,0,0,1,1.76,2.5,6.18,6.18,0,0,1,.07,2.1,8.36,8.36,0,0,1-.44,1.91c-.13.34-.23.76-.36,1.16a1.55,1.55,0,0,0-.84-.26,3.49,3.49,0,0,0-.79.14,1,1,0,0,1-.27,0,.29.29,0,0,1-.19-.07,4.29,4.29,0,0,0-.78-.7,1.6,1.6,0,0,0-.84-.23,2.12,2.12,0,0,0-.78.26,1.56,1.56,0,0,1-.32.07.29.29,0,0,1-.23-.07A2.31,2.31,0,0,0,99.69,69a1.71,1.71,0,0,0-.32,0Zm-.66.18h0A4.24,4.24,0,0,1,99,67.84c.2-.55.45-1.1.62-1.57a8.22,8.22,0,0,1,1.11-2,6.12,6.12,0,0,1,1.48-1.55A4,4,0,0,1,103.8,62a2.66,2.66,0,0,1,1.57.21,3.9,3.9,0,0,1,2,2.84,8.27,8.27,0,0,1-.4,4.55c-.13.35-.27.79-.41,1.21l-.07-.07c.14-.44.28-.91.41-1.26,0,0,0,0,0,0a7.92,7.92,0,0,0,.49-2.12,7.22,7.22,0,0,0-.12-2.2,3.79,3.79,0,0,0-2-2.79,2.83,2.83,0,0,0-1.6-.19,4,4,0,0,0-1.59.67,7.08,7.08,0,0,0-2.49,3.4c-.16.43-.41,1-.6,1.52a3.65,3.65,0,0,0-.29,1.35Z"/><path id="path737" class="cls-7" d="M98.21,69.11h.08a1.85,1.85,0,0,0,0,.23h-.06a2,2,0,0,0,0-.24Zm4-6.93,0,0v0Zm1-.45h0s0,0,0,0Zm1.1-.16h-.07l0,0,0,0Zm1,.19,0,0,0,0S105.33,61.74,105.33,61.76Zm.91.54-.06,0,.07,0a.13.13,0,0,0,0,.06Zm.78.86-.11-.15h.15A.83.83,0,0,0,107,63.16Zm.54,1.16c0-.13-.09-.26-.14-.38a.79.79,0,0,0,.22.06A.69.69,0,0,0,107.56,64.32Zm.22.91c0-.12,0-.24-.07-.36s0-.1,0-.15A.92.92,0,0,0,108,65a.58.58,0,0,0-.22.22Zm.1,1.13a2.17,2.17,0,0,0,0-.26.79.79,0,0,0,.15.12Zm0,1.12c0-.08,0-.17,0-.25a.86.86,0,0,0,.13.14l-.15.11Zm-.17,1.07c0-.06,0-.12,0-.18a.44.44,0,0,0,.08.11Zm-.31,1.08.06-.17a.57.57,0,0,0,.08.13Zm-.42,1.29.09-.28a.7.7,0,0,0,.13.17.57.57,0,0,0-.22.11Zm-17.38,0a.78.78,0,0,0-.22-.12.7.7,0,0,0,.13-.17l.09.29Zm-.42-1.29-.14,0a.83.83,0,0,0,.08-.12Zm-.31-1.09-.13-.08a1.25,1.25,0,0,0,.09-.12A1.42,1.42,0,0,0,88.83,68.55Zm-.18-1.06a.42.42,0,0,0-.15-.11l.13-.15a2.28,2.28,0,0,1,0,.26Zm0-1.14a.86.86,0,0,0-.14-.13.64.64,0,0,0,.15-.13C88.62,66.18,88.61,66.26,88.61,66.35Zm.1-1.1a.72.72,0,0,0-.22-.24.78.78,0,0,0,.34-.28c0,.1,0,.19-.07.29s0,.15-.05.23Zm.24-.92a.63.63,0,0,0-.09-.33.56.56,0,0,0,.23-.07C89,64.06,89,64.19,89,64.33Zm.54-1.17a.88.88,0,0,0,0-.15h.15Zm.75-.85h0v-.07l.07,0Zm.93-.55s0,0,0,0l0,0Zm1-.2,0,0,0,0Zm1.1.16,0,0s0,0,0,0Zm1,.46,0,0v.05l0,0Zm.88.67h0v0l0,0Zm10.22,8.41a.7.7,0,0,1,.72.69.72.72,0,0,1-.72.72.71.71,0,0,1-.71-.72A.69.69,0,0,1,105.41,71.26Zm-2.82-.83a.73.73,0,0,1,.74.71.72.72,0,0,1-.74.7.7.7,0,0,1-.71-.7A.71.71,0,0,1,102.59,70.43Zm-2.84-.65a.73.73,0,0,1,.74.72.73.73,0,0,1-.74.71A.71.71,0,0,1,99,70.5.71.71,0,0,1,99.75,69.78Zm-3,0a.74.74,0,0,1,.74.72.73.73,0,0,1-.74.71A.71.71,0,0,1,96,70.5.72.72,0,0,1,96.73,69.78Zm-2.82.65a.71.71,0,0,1,.72.71.71.71,0,0,1-.72.7.7.7,0,0,1-.71-.7A.71.71,0,0,1,93.91,70.43Zm-2.77.83a.7.7,0,0,1,.72.69.72.72,0,0,1-1.44,0A.7.7,0,0,1,91.14,71.26Z"/></g><path class="cls-12" d="M80.4,99.63c-12.64,0-22.88,10.17-22.88,30.51C57.52,155.57,75.73,181,98.2,181s40.69-25.43,40.69-50.86c0-20.34-10.25-30.51-22.89-30.51a22.89,22.89,0,0,0-17.8,8.5,22.87,22.87,0,0,0-17.8-8.5Zm0,0"/><rect class="cls-12" x="25.38" y="112.84" width="145.64" height="54.95" rx="5.46"/><text class="cls-13" transform="translate(62.66 137.62)">Radom</text><text class="cls-13" transform="translate(61.92 162.27)">Homiel</text><path class="cls-12" d="M44.88-.3l-29,0-16,0,0,16c0,7,0,14,0,21A29.09,29.09,0,0,0,44.88-.3Z"/><text class="cls-14" transform="translate(15.51 31.45)">42</text></svg>