<svg id="Слой_1" data-name="Слой 1" xmlns="http://www.w3.org/2000/svg" viewBox="0 0 195.59 280.63"><defs><style>.cls-1,.cls-21,.cls-7{fill:#134b88;}.cls-10,.cls-12,.cls-14,.cls-15,.cls-16,.cls-17,.cls-2,.cls-20{fill:#fff;}.cls-2,.cls-3,.cls-4,.cls-5,.cls-6,.cls-7,.cls-8{fill-rule:evenodd;}.cls-3{fill:#d82928;}.cls-4{fill:#efb42f;}.cls-5{fill:#f2c08e;}.cls-6{fill:#901d1a;}.cls-8{fill:#2a204f;}.cls-22,.cls-9{fill:#2e74b3;}.cls-16,.cls-17,.cls-18,.cls-9{stroke:#fff;}.cls-10,.cls-14,.cls-19{stroke:#424242;}.cls-11{fill:#d49e63;}.cls-11,.cls-12,.cls-13,.cls-15{stroke:#41382d;}.cls-12,.cls-15{fill-opacity:0;}.cls-13{fill:#f7e926;stroke-opacity:0;stroke-width:1.05px;}.cls-14{stroke-width:0.99px;}.cls-15{stroke-width:0.6px;}.cls-17{stroke-width:0.98px;}.cls-18,.cls-19{fill:none;}.cls-18{stroke-width:1.35px;}.cls-19{stroke-width:0.5px;}.cls-21{font-size:24.77px;}.cls-21,.cls-22{font-family:Impact;}.cls-22{font-size:20px;}</style></defs><rect class="cls-1" x="-5.26" y="-8.4" width="214.01" height="297.89"/><g id="Warstwa_2"><g id="_76815456" data-name=" 76815456"><path id="_76964264" data-name=" 76964264" class="cls-2" d="M165.06,272H30.53l2.26-60.57C34,175.53,61,149.19,97.08,148c34.52-.52,65.83,26.44,66.16,63.4L165.06,272Z"/><path id="_76964192" data-name=" 76964192" class="cls-2" d="M164.39,271.37H31.2l2.24-60c1.17-35.53,27.94-61.6,63.65-62.79,34.17-.51,65.17,26.19,65.5,62.77l1.8,60Z"/><path id="_76964120" data-name=" 76964120" class="cls-3" d="M101.53,243.69a2.63,2.63,0,0,0-.17,2.57c.47,2.76,2.53,5.18,5.09,7.16a21.43,21.43,0,0,1,4.75,5.05,1.18,1.18,0,0,1-2,.34c-1.93,2.82-5,.3-8.32,0-1.2.1-1.4.51-1.44,1.36.24,1.36-.69,2.19-1.77,1.89-1.73-.2-4.6-.06-5.51-.16.56-.94,2.5-.62,3.52-.89,1.9.57,2.24-1.28,1.3-1.28-.54-.52-.37-1.24-.54-1.81a12.37,12.37,0,0,0-3.53.89c-.15-.32.07-.64.48-1.2a2,2,0,0,1-2.63-.39c-1.56-.46-2.4.39-3.63.39-.91,1.06-1.66,1.59-4,1.23a5.09,5.09,0,0,0,4.06-3.12c-.22-.53,4.73-.43,5.06-.92s-.29-1.35-.78-1-.76.73-1.17.92c-.45-.85-.11-2.28.15-3.23-1.66-.13-2.4-.46-3-1.75.32-.11.69.12,1,.25.6-.18.88-.82.21-1a2,2,0,0,1-1.34-1.8c.17-.37.85-.62,1.34-.72a1.37,1.37,0,0,1-.82-.39,3.33,3.33,0,0,1,0-1.73c.33,0,.73.05,1-.22A23.11,23.11,0,0,1,90,238a3.85,3.85,0,0,0,.22-2.23,4.24,4.24,0,0,0,.65-2.7c-.76-.76-.22-1.57.82-1.16.71-.41,1.36-.62,1-1.54-.09-1.57.13-2.6,1-1.75.41-1.78-.28-3.36-.41-5,0-1.51-2.27-.52-3-1.08.28-.9.9-1.31,1.16-2.21-2.4-.34-4.42-.39-5.07,3.13a19,19,0,0,1,1.81,9.64c1.45,2,1.82,9.89-2.89,12.63-1.56,1.56-3.37,2.79-4,4a3,3,0,0,1-.24-1.71c-1.32,1.89-3.63,2.12-5.27,3.72a1.49,1.49,0,0,1-.58-1.23A80.76,80.76,0,0,0,64.63,260c1.42-3.55,4-7.12,6.52-10.46a4.3,4.3,0,0,0-2,1.22,25.42,25.42,0,0,1,2-2.58c-4.47,3.11-8.85,2.23-15.94,10.69,2.27-7.79,5.21-10.56,14.51-15.56-6,1.38-11,3.69-16.28,5.65,5.12-6.5,17.93-7.44,16.3-9.68a31.58,31.58,0,0,0-7.86,1.93.72.72,0,0,1,.16-.82,43.85,43.85,0,0,0-15.72,5.29c1.88-3.18,7.64-10.3,13.06-10a5.75,5.75,0,0,0,3.13-1.17c-6.65.22-3.34-2.15-15.27.59,4.54-2.83,10-3,16.39-2.85-5.76-2-6.08-5.68-18.5-3.9.69-1.45,4.68-2.7,7.23-3.2,2.42-.21,3.13-.76,3.22.29,1.3-.59,3.33-.78,2.78.24.87-.53,3.44-.4,4.06.73.5.26,1.13-.39,2-.55A55.25,55.25,0,0,0,45,221c6.76-1.7,13.2,0,19.48,1.75-6.22-4.47-13.58-9.36-20.14-9.68a28.42,28.42,0,0,1,21.65,4c2,.87-1.08-1.39.91-.21.5.3,1.94.88,2.48,1.17C62,210.56,54.52,207.68,46,205.32c5.42.1,11.47,2.05,16.33,4.25,1.42.73-.69-1,1.53.11,2.66,1,4.08,2.23,6.82,3.44C60.8,202.23,52.36,197,42.06,193c3.39-.76,6.48.07,9.72,1.09,2.25,2.21,2,2.34,2.81,1.33,1.23.28,5.07,1.15,5.65,2.23.52,2.43,1.39,3.12,1.39,1.07a22.87,22.87,0,0,1,6.88,4.3c.55,2,.93,2.22,1.77,1a27.6,27.6,0,0,1,4.2,3.16C69.66,200,62,196.71,56.05,193.32c8.43,2.12,15.83,6.43,24.66,14.66-3.15-7.1-8.61-11-14.46-15a15,15,0,0,1,4.88,1.2,23.18,23.18,0,0,1,4.75,2.9,41.09,41.09,0,0,1,5.68,5.44,67.08,67.08,0,0,1,4.68,6,22.86,22.86,0,0,0-4.92-8.45c4.47,2,7.77,6.33,9.82,11.06.48.66,1,.62,1.08-.26A34.19,34.19,0,0,0,83.57,198c-5.47-4.06-7.06-8-7.23-12.22a8.41,8.41,0,0,1,6,.82c2.62,1.24,4.78,2.74,7.11,3.82a9.22,9.22,0,0,0,5.88.24c1.35.77,1.88,3.51,2.37,3.9a2.3,2.3,0,0,1,2.31,0c-.92.87,1.84,3.91,4,5.66,0-.71.06-1.08.06-1.79.28-.85.87-.79,1.25-.28a12.51,12.51,0,0,0,3.24,2.88,1.46,1.46,0,0,1,.65-1.2c1.67,1.45,3.74,3.42,5.08,3.05.75.46,1.74.34,2.39,1.54.92.49,2.81.57,2,3.11,2.85-1.93,5.64-3.67,8.49-5.62-.8-.83-3.24-1.13-5.83-.1-1.53,1.59-3.35.4-3.48-1.84-.69-1.41,2.06-3.87,3.67-1.93a5.5,5.5,0,0,1,4.13-.05c1.4-.62,3-.41,3.59.64a2.82,2.82,0,0,1,2.57-.43c.68-1.3.28-2.47,2.52-2.29.35-1.36,1.66-1.82,3.26-1,0-1.14.54-1.71,2-1.57,2,.46-.69,4,2.87,3.71,0,1.7-1.08,2.48-3.3,1.43a2.84,2.84,0,0,0-2.53.8c1.14-.09,1.71-.23,2.64.81,2.28.09,2.59.41,4,1.8,2.42-1,3.52.83,2.78,3.15.46,1-1.42-1-1.94-.59-1.94.59,1.06,3.25-2.18,2.07-1.12-.35-1.62-3-2.89-2.88a2.64,2.64,0,0,1,.77,2c2.55.83,1.21,3.14-1,4-2,.76-3.41-.92-2.81-1.89a1.92,1.92,0,0,1-.39-2,3.46,3.46,0,0,1-1.89-2.35c-.7-.64-1.24-.37-2.23.39a49.51,49.51,0,0,0-6.52,5.81,5.15,5.15,0,0,1,4.58.62,12.89,12.89,0,0,0-5.34,3.92c1.13.6,2.29-.71,4.23.1-1.27,1-3.26,3.08-3.06,5.23.6-1.48,2-1.84,3.46-1.16-1.08,1.64-.91,4.36-1.34,5.79a3.77,3.77,0,0,1,2.37,0c-.86.7-1.77,1.27-1.77,2.1,2.59.05,3.45,3.75,4.41,5.64-.89-.39-2-1.79-2.58-1.12a70.66,70.66,0,0,1,5.73,6.94,2.37,2.37,0,0,0-.5-2.33c-1.6,0-1.88-2.13-.78-2.91,1.08-.2,1-.37,2.05-.57s2.1.67,1.19,2a2,2,0,0,1,1.25,2.93,2.77,2.77,0,0,1,.63,2.56,1.78,1.78,0,0,1,1.13,1.34c1.29.07,3.26-.05,3.67,1a4.22,4.22,0,0,1,4.29.53c.5-.87,2.55-.62,2.61,1.29-.21,1.24-.25.94-.45,2.15-.86,1.4-2.27,1.24-3.19.11-1.45.41-3.72-.92-5.68-.46a7.06,7.06,0,0,1-.43,3.45,2.53,2.53,0,0,1-.39,3c1.25,1.32,1.16,2.56-.61,3.3-1-1.18-2.35-1.53-3.06.59a2.05,2.05,0,0,1-.76-3.91,7.54,7.54,0,0,1,.82-3.55c-.48-2.42-1.47-1.7-1.3-.46,0,1.38-.66,1.94-2.33,1.8.11,1-1,2-2.54,1.84,0,1.45-1.21,3-2.7,1.66l-1.9-.83c-1.9-.11-.76-2.88,1.68-2.93.34-1,2.87-1.13,3.95-2.42,1-.76,1.62-1.08,1.51-2.21a16.68,16.68,0,0,1-.1-3.34c-2.23-2.38-4.52-5-6.76-7.37.32,1.86-.28,3.71-1.67,3.93.09-4.58-2.67-4.07-3.41-6.13a4.39,4.39,0,0,1-2.44.62c.91,0,2.22.1,1.95.61-1.41.41-2.81,2.05-3.68,2.88-4.06,2.58-5.74,3-9.86,3.39.17,1.19.06,1.35-1.08,1-3.13-1-4.73.6-5.34,3.34Z"/><path id="_76964048" data-name=" 76964048" class="cls-4" d="M117.71,201a3.41,3.41,0,0,1-3.74-2.26,3.69,3.69,0,0,0,3.41.34C117.43,199.79,117.66,200.39,117.71,201Zm22.65-4.13a3.25,3.25,0,0,0,2.37-1.7c.87-2-.58-2.65-1.38-2.75a2.46,2.46,0,0,1-.17,1.69c-.58.94-.87,1.12-1.73,1.22A1.12,1.12,0,0,0,140.36,196.91Zm2.5,9c2.12,2.57,4.95.38,5.47-1.61-1.9,1.71-2.94.07-4.09-.43C143.19,203.73,142.56,204.82,142.86,205.94Zm-5,3.4c.58,1.44,2.89,3.08,4.67,1.15-1.37-.56-2.31-.47-2.72-2.19a2.94,2.94,0,0,1-1.95,1Zm-2,22.23a5.78,5.78,0,0,0-2,.81c-.18-1.15.06-2.69,2.72-3.8C136,229.85,135.52,230.63,135.8,231.57Zm14.45,13.85c2,.54,3.58-1.49,4-2.58a5.37,5.37,0,0,1-3.6.49c-.11.71-.28,1.33-.39,2.09Zm-22.94,9.91a3.55,3.55,0,0,1,.76-2.65c-.73-.37-1.3-.52-2-.89A3.93,3.93,0,0,0,127.31,255.33ZM101,243.44c-1,.33-.11,3.51.58,4.89a17.73,17.73,0,0,0,5.38,5.51,38.46,38.46,0,0,1,3.74,4.22c4.18.57,5.87-1.87,5.55-5-2.75,1.45-4.37.77-6.14-1-5.5-.25-8-3.27-7.17-6.08a7.89,7.89,0,0,0,5.29,2,32.86,32.86,0,0,1,5.83.22c1.78.15,3,.49,3.81,1.48.47.21.53.49.26.88-.5.71,0,1.1.71,1.15a2,2,0,0,0,1.87-2.19,4,4,0,0,0-3.08-2.21,26.19,26.19,0,0,0-7.5-.16,10,10,0,0,1-6.37-1.45,9.94,9.94,0,0,1,7.58,1.51c-.11-.76,0-1.75-1.44-2A25.2,25.2,0,0,0,101,243.44Zm35.87,11.76c.75,1.49,2.61,3.75,4.1,3a6,6,0,0,1-1.32-3.53c-1.16-1.36-2.22-.76-2.78.49Z"/><path id="_76963976" data-name=" 76963976" class="cls-5" d="M47.78,244.9c3.2-1.57,6.4-3.23,9.55-3.69.06-.44.15-.62.22-1.06a45.19,45.19,0,0,1,19.77-2,28.25,28.25,0,0,0-20.06,1.43c-3.08,1.87-6.43,3.46-9.48,5.31Zm3.89-4.18c7.21-4,14.58-5.05,22-5.41-2.14,0-4.26-.05-6.39-.09-1.26-.21-3.5-.46-4.75-.69a6.81,6.81,0,0,1-2.49,1.15c.2.44.35.89-.17,1.06a26.72,26.72,0,0,1-6,1.24c.26.39,0,.44.26.81a3.75,3.75,0,0,0-2.53,1.93ZM62.55,245a94.85,94.85,0,0,1,16.07-4.45q-1.32-.18-2.61-.39C71.52,241.78,65,242.43,62.55,245Zm-5,8.13c4.27-3.8,10.1-7.33,14.9-10.44a6.37,6.37,0,0,1-2.75.6c-3.84,2.12-9.63,5.79-12.15,9.84Zm.75,2.37a21.79,21.79,0,0,1,4.35-3.24c-.44-.23-.5-.6-.14-.9a139.4,139.4,0,0,1,16.65-8.64,3.45,3.45,0,0,1-.77-.38,73.83,73.83,0,0,0-16.65,9.09A14.86,14.86,0,0,0,58.34,255.49Zm22-13a2.57,2.57,0,0,1-2.23-.87c1.15-1.21,2-1.27,2.87-.93.29.33.11.69-.15.67-.51.16-1.08-.11-1.47.32.35.1.87-.16,1.08,0s.52.62-.1.78Zm-1.26-6c-2.61.37-10.3-4-14.2-4,.94-.18,2.44-.05,3.38-.25-3.47-.81-6.6-2.56-9.78-3.66,5.27,1.45,16.11,4.17,21.1,7.14.24.14,0,.46.33.55,1-.41.82-1.11,1.64-1.43a16.33,16.33,0,0,1-1,2.21,2.18,2.18,0,0,0-1.47.83c.07.19.13.38.18.56l1.1.48a3,3,0,0,0,2.18,1.25,2.89,2.89,0,0,1-1.9,0A10.19,10.19,0,0,1,79,238.88a1.59,1.59,0,0,0-1.58-.62,3.54,3.54,0,0,1,1.66-1.76Zm-4.14-3.15c-5.29-3.64-12.22-4.7-18.21-5.69C63.27,229.61,68.86,230.79,74.93,233.35ZM45.67,220.88c13.9,0,23.19,6,31.44,10.16-5.14-4.54-16.41-8.66-20.49-9.4A41.83,41.83,0,0,0,45.67,220.88Zm35.85,13.69c-1.11-.69-2.57-1.66-2.9-2.49-.17-.76.15-.85,0-1.61,1.06-1.22,2.11.11,3,1,.3-.29.31-.22.61-.52-2.38-2.08-3.15-1.66-5-1.43.28,1,.56,2.3.82,3.27a5.13,5.13,0,0,0,3.5,1.82ZM52.12,214a179.14,179.14,0,0,1,25.31,13.59c1,1.27,2,.85,1.39-.11a6.21,6.21,0,0,1-2.9-1.89c-7.15-3.83-15.39-9.7-23.8-11.59ZM81,226.25c-1.1-.83-1.84-2.37-3.59-3.09,0-1.45,2-3.45,3.74-3-2.22.44-2.79,1.55-2.35,2.52a13.8,13.8,0,0,1,2.2,3.57ZM55.56,207.79a101.15,101.15,0,0,1,21.77,15,1.32,1.32,0,0,0,.4-1c-6.08-5.71-14.42-10.21-21.07-13.69,1.79.33,8.21,3,10.41,3.95-2-1.22-11.19-5.26-11.51-4.22Zm28.65,6.73q-.45.27-.9.57L69.74,200.48l14.47,14ZM47.57,195.3c13.78,6.73,25,14.49,32.24,23.78.09.49.56,1.59,1.4.67,0-.53.52-.92,1.54-.92-1.26-.56-2.1-.3-2.44,0-4.8-4.64-7.09-10.22-14.47-14a8.74,8.74,0,0,1,3.6,1.24,24.82,24.82,0,0,0-6.5-3.52,1.56,1.56,0,0,1,1.39,0c-1.3-1.32-3.46-2.35-5.17-3.51a4.23,4.23,0,0,1,1.26.35c-.59-2.14-2.72-2.83-5.92-4a6.19,6.19,0,0,0,2.38,3.06c-3-1.27-7-3.11-9.31-3.2Zm35.07,26.76a1.39,1.39,0,0,0,.8-.81c-.69,0-.91-.33-1.34-.76a.92.92,0,0,0-1,.88c.37.59.84.55,1.58.69Zm.8-1.2c-.63-.32-.85-.83-.91-1.76.17-.27.22-.2.39-.16.47.81.9.39,1.34.76A2.13,2.13,0,0,1,83.44,220.86ZM87,217.38l-.8.44c-.89-.54-1.25-2.19-2.7-1.64.24,1,1.71,1.33,2.14,2.09l-1,1c-2.49-.67-1.23-2.59-2.33-4.11,3.71-.85,3.11,1.48,4.66,2.22ZM70.63,195.53c7.64,3.94,12,11.29,16,18.41a.79.79,0,0,1,.55-1C83.15,205.53,77.28,198.18,70.63,195.53Zm20.47,21a6.63,6.63,0,0,1-2.68.21c-.69.14-1-.37-1.38-.63-.08-.75-.41-1.29-.5-2a2.4,2.4,0,0,1,1.35.82c.49.47.94.49,1.57,0a.79.79,0,0,1,.46-.9C90.32,214.82,90.26,215.74,91.1,216.5Zm1.1-.83q-2.61-4.87-5.2-9.79l5.89,9.59ZM114.52,203c.41.18.7.29,1.2.54a11.68,11.68,0,0,0,.86,2.88c.31.5.69-.16.41-.47a6.7,6.7,0,0,1-.28-1.49c.6.34,1,.44,1.6.8-1,.44-1,2.52-1.06,3.87a6.28,6.28,0,0,0-.75-1.74,4.22,4.22,0,0,0-1,1.35c-.37-2-.29-3.81-1-5.74Zm-4.83,1.71c-.84-2.23-.57-3.63.21-4.26-.22-.22-.39-.33-.63-.59C108.35,200.58,108.2,202.93,109.69,204.7Zm-5-1.79c.22,0,.67,0,.91-.07a11.68,11.68,0,0,1-1.23-4.82c-.73,1.79.13,4.56.32,4.89Zm-12.15,5.73c.28,1.2,1.12,1.92,2.83,2.38,2,.53,5,4.51,6.93,6.73-1.15-2-5.21-7.38-6.53-7.22-.88.1-1.9-1.86-2.95-2.62C92.27,207.15,92.36,208,92.51,208.64Zm46.23,36c.65.32.91-.11.54-.3-.39-.35-.69-1.06.23-1.2.65-.16.68-.36.26-.71-1.14-.16-3.1-1.89-4.08-2.7a20.7,20.7,0,0,0,3.05,4.91Zm-3.48-42.8c2.12,0,3.2,1,5,2a2.91,2.91,0,0,0-1.73-2.13,10.43,10.43,0,0,1-2.42-1.42c-.77,0-1.46.69-1.76.74a1.15,1.15,0,0,1,.9.82ZM129.11,200c-.41-.23-.65-.85.11-1.27a3.7,3.7,0,0,0-3.55.21,3.12,3.12,0,0,0-3.73-.05c-.22.74-1,.84-2.25.42.59.32.76.67,1.21,1.47a3.75,3.75,0,0,0,2-1.1,4.3,4.3,0,0,1,2.16.09,3.52,3.52,0,0,1,1.77,1.15c.61,1.52,2,.1,2.9.42,1.21.59,2-.1,1.87-1.52-.62-.33-1.05,1.12-2.54.18Zm-8.23,17.49c.73-1.89,4.12-6.18,7-7.4-1.73.35-3.78,2.22-5.08,3,.61.29.43.43-.39.59A5.46,5.46,0,0,0,120.88,217.49Zm-7.36,5.19c1.94-3,6.16-8.81,9.42-9.22-2.92-2.58-6.33-.07-7.63,1.27-1.94,2.09-3.54,4.3-2.46,7a10.23,10.23,0,0,1,3.09-6.56,5.87,5.87,0,0,1,4.31-1.75c-2.72,2.07-5.93,5.78-6.73,9.24Zm-2.47-8.53a.49.49,0,0,0,1,.12,9.27,9.27,0,0,0-.47-7.75c-.61-1.11-2-.58-2.78,0-.85-.7-2.25-.69-1.82.67a1.32,1.32,0,0,0,2-.1c.43-.53.93-.34,1.4.19,1.21,1.81.91,4.56.69,6.84Zm-7.23-.94c-.39,0-.6-.12-.88,0a26.3,26.3,0,0,0-2.86-4.77,2,2,0,0,1,1.36-2.95c.24,1.7.42,2.26,1.52,2.95,1.34.57,3.88,3.82,4.53,5.3-1-1.36-3.47-4.8-5.63-5.3.1-1-1.65-.95-1-.07C102,210,103.11,211.89,103.82,213.21Zm-4.25,21.71c1.68-2.68,2.07-10.26-.16-12.8a39,39,0,0,1,.16,12.8Zm-3.16,5.41.63-4.58,1.19-5.49-.59,5.37-.34,3.22c1-1.38,1.17-1.15,2.16-2-1.32,2.8-3.46,5.88-3.85,8.83-.3-1.31.27-3.27.8-5.3ZM92,243.07c-.3.4-.59.51-.84,0l1.74-6-.9,6Zm2-1.38c-.22.51-.65.51-.76.07.76-2,1.51-4.08,2.27-6.13Q94.78,238.68,94,241.69Zm.92,8.46c.24-.85.7-3.09-.49-2.91-.3-1-.06-2.12-1.32-2.87.13,1-.08,1.08-.49,1.49a1,1,0,0,1,1.27.3c.19.51-.26,1.36.11,1.64C95,247.29,94.8,249.3,94.94,250.15ZM94.26,252c.15.37-.05.73-.5.64-2.7-2.49-2.36-5.64-2.1-7.86a9.71,9.71,0,0,0,2.6,7.22Zm2.15-7.56c-.88,2.72-1.08,5.9,0,7.86.18-.14.5-.21.67-.33A9.38,9.38,0,0,1,97,244.6c.7-1.52,1.58-3.78,3.09-4.87-1.83,1.73-2.42,8.6-2,10.54.24-3.49.52-7.93,2.88-10.4,1-1.89,7.84-3.71,10.8-6a11.33,11.33,0,0,1-3.85.24c-.65,1.31-4.25,3-5.87,3.54a14,14,0,0,0-2.27,1.36,6.25,6.25,0,0,1,2.5-2.78c-2.93.62-4.55,4.56-5.83,8.18Zm2.19,7.88c-.18,1-1.93.6-3.61,2.1.49-.86.49-1.14-.43-1.55,1.51.23,3-.76,3.91-1.34a.62.62,0,0,1,.13.79Zm-6.34,9.52c1.33.13,3.23-.05,5.47.14a1.54,1.54,0,0,0,.74,0c1.71-.82-.61-1-1.17-1A20.87,20.87,0,0,1,92.26,261.86Zm7.11-1.79c-.83-.23-.84-.38-1.68-.61.11-.37.15-.23.24-.62a4.91,4.91,0,0,0,2.1.09A1.11,1.11,0,0,0,99.37,260.07Zm-8.56-3a2,2,0,0,0,2.26.33c.6-.26.86-1.2,1.32-1.31.62.11.45.62.17,1.13-2,.53-2.7,1.12-3.75-.15Zm16-35.07c-1.16-4.5-4.69-11-8.07-12.51C101.12,212.26,105.42,216.85,106.8,222Zm-49.75,7c-2.94-2.7-6.15-3.11-9.89-1C50,227.82,53.42,227.57,57.05,229Zm15.63,5.88a26.38,26.38,0,0,1-6.33-.17c-.62-1.56-10.42-3.62-18-.36C56.62,231.46,63.74,231.62,72.68,234.92Z"/><path id="_76963904" data-name=" 76963904" class="cls-2" d="M107.77,255.73a12.49,12.49,0,0,1-2.2,1.15c-1.1.6-2.48.39-2.31-1.2a2.48,2.48,0,0,1,2.37-2.1c.7.81,1.43,1.36,2.14,2.15Z"/><path id="_76815600" data-name=" 76815600" class="cls-6" d="M65,258.85c3.63-3.91,7.23-7.17,10.88-11.1-.3.69-.47,2,0,2.42,1.57-1.16,3.3-1.39,4.64-3.1a8.89,8.89,0,0,1,4-2.18c-.86,1-1.16,2-.86,2.48,1.32-1.26,3-2.55,4.15-3.87,1.21-2.56,2.61-6.61.51-9.93a21,21,0,0,0-1.88-10.39c0,3.66,1.28,7.53-.1,9.82a11.54,11.54,0,0,1,.88,8.84c-.45,1.48-1.31,2.15-3.5,2.45a8.38,8.38,0,0,0-4.12,2c-.89.62-1.84,1.54-2.72,1.61a3.06,3.06,0,0,1,.26-1.89c-2,.81-4.86,1.08-6.14,2.31,1.47-.58.07-.26,1.37-.33.88-.16,1.21.16,1.31.74a2.45,2.45,0,0,1-1.4,1.33,4.54,4.54,0,0,1-1.64.65A62.23,62.23,0,0,0,65,258.85Zm15.91-16.8a4.12,4.12,0,0,0,3.65-1.34,3.31,3.31,0,0,0-.13-3.24C84.32,240.09,84,240.79,80.93,242.05Zm-3.67,3.34a3.29,3.29,0,0,0-1.66.17c1-.93,2.87-2.49,4.34-2.8A14.27,14.27,0,0,0,77.26,245.39Zm.44-7.88a22.26,22.26,0,0,0-8.94-1.15,31.84,31.84,0,0,1,7.62-.39,9.81,9.81,0,0,0,2.48.55C78.47,236.85,78.23,237,77.7,237.51Zm3.8-8.27c.19-.37.32-.58,0-.78-.44-.35-.55-.74-.78-1.62a1.7,1.7,0,0,0-1.28-1c-.47.33-.58.44-.34.6.52-.16,1,.49,1.23.95a2,2,0,0,0,1.17,1.89Zm2.2,3.11c.39,1.33-.46.9-.82-.34a17.27,17.27,0,0,1-.26-8.9c-.78,0-1.3-.74-1.77-1.31a2.53,2.53,0,0,0,2.07.48c1.4-1.48,2.7-3.64,3.13-4.11a16.39,16.39,0,0,0-2.35,14.18Zm64.67,10.92a2.57,2.57,0,0,0-3.09-.55c-.43.05-.71-.55-.6-1C146.86,240.92,148.76,241.78,148.37,243.27Zm-.84,2.56c.43-.21.34-.94.22-1.17a4.12,4.12,0,0,1-2.42.5,1.92,1.92,0,0,0,2.2.67Zm-6.2,2.47a4.83,4.83,0,0,0-1.75-3.8,4.34,4.34,0,0,1,4.36.85,4.94,4.94,0,0,0-2,.05A3.3,3.3,0,0,1,141.33,248.3Zm-4.16,6.75a2.14,2.14,0,0,1,3.41-1.15,1.65,1.65,0,0,0-.5-2.17c.15-1,.6-2,0-3.22.61-.26,2.94.76.93,3.31,1.84,1.75.54,2.84-.76,3.51-.6-1.55-2-.72-3.12-.28Zm-8.77-2.38c1.25-.08,1.42-.91,1.7-1.9,1.25.43,1.36-.1,1.39-.75-1.28.14-2.38-.08-2.92-.94a24.43,24.43,0,0,0,3.58-2c.87-.83,2.18-1.45,1.69-2.79-.11-.92,0-1.75-.05-2.67,1,1.71,2.81,3,2.7,4.52-.34.3-.92.83-.71,1.47.05,1-.37,1.89-1.94,1.54a3.58,3.58,0,0,1-.71-2.23c-.83.71-3,2.07-2.53,2.49.93,0,1.94.46,2.74-.12,1,1.34-1.19,2.22-2.5,2,.77,1.24-.63,3.15-2.44,1.37Zm-1.51-25.6c.92,1.45,2.61,4.08,2.22,5.79,2.72,2.53,5.57,5.25,8.31,7.79-2.46-3.39-5.16-6.62-7.62-10-.63,0-1-1.13-1.49-1.62.09-.41.37-.3.8-.27A5.19,5.19,0,0,0,126.89,227.07Zm-11.75,6.73a4.78,4.78,0,0,1,2.29-2.26c9.8-1.12,8.42-5.09,11-6.64-1.92,2.1-3.45,4.91-.67,6.92a4.13,4.13,0,0,1-2.81-1.94,10.33,10.33,0,0,1-6.28,2.4c-2.1.18-2.12,1-3.54,1.52Zm-2.62,4.68a39.57,39.57,0,0,0,6-4.49,4.62,4.62,0,0,1,3-1.09,15,15,0,0,0-2.32,1.71,14,14,0,0,1-6.63,3.87Zm-3.41,19.64c.59-.05.57.11.69-.42a18.22,18.22,0,0,0-5.22-5.21c-.39-.21-.74-.16-.15.4a3.79,3.79,0,0,1,1.79,1.72,1.57,1.57,0,0,0-.84,2.65,1.89,1.89,0,0,1-2.66-.27c-3.54-2.13-4.51-.79-9.43,1.33,4.19-1.79,6.6-2.4,9.47-.73,1.24.57,3-.08,3.72-.47-1.68-.11-1.15-1.89.34-1.7A4.45,4.45,0,0,1,109.11,258.12Zm-15.16-3c-.38-.3-.81-.49-1.2-.81,0,.51-.59.92-1.56,1.09A5.74,5.74,0,0,0,89,256C92,255.35,93.16,256.53,94,255.12Zm-.49-2.42c.28.51.3.53-.32.41-3.61-3.24-2.47-6.75-2.53-9.35,0,3.09.49,6.91,2.85,8.94Zm1.21-11.06c-.24.51-.46.74-.59,0,.16-1.2.48-3,1.67-4.08A9.64,9.64,0,0,0,94.67,241.64Zm-2.9-7c.31.73.5.57.82.11.57-.89.46-1.7-.58-2.88.11,1.29.33,1.77-.24,2.77Zm-.84,8.25c-.09.48-.49.73-.6.16.32-2.07.86-4.72,2.27-6.52,1-1.5.77-1.13,1.79-2.63,1.85-3.36-.89-3.92-1.51-5.53-.2-.25.38-.1.94.09-.1-1.22-.17-2.46-.25-3.69.45,1.85,1.14,3.37,1.59,5.21,1,1.45.52,3-.49,4.43-1.71,1.88-4,5.43-3.74,8.48ZM94.73,223a15.29,15.29,0,0,1,1.77,7.58c0,.37.5.26.72-.13C97.71,227.58,96.14,224.54,94.73,223ZM89,217.78c-1.82.07-3-1.08-3.53-3.18-.56-2.33-2.37-5-3.75-7.46a48.87,48.87,0,0,1,4.38,7.05c1.36,3.85,2.9,2.46,6.33,2.12a4.38,4.38,0,0,1,3-1.82c-.24-2.74-2.7-2.42-3.18-3.71a52,52,0,0,0-2.83-5.69c.76.09,3.39,1.22,3.63,1.73a6,6,0,0,0,4,1.65c.64,0,.79.56.13,1a5.74,5.74,0,0,1-4.6-2.1c-.7-.46-1.56.76.36,3.32,1.21,1.52,3.42,1.72,4.47,4.14-1.88-.11-3.67,0-3.86,1.22a11.21,11.21,0,0,1,3.63,4.61,5.27,5.27,0,0,0-3.55-1.7c.35-.39.24-.65-.28-.88-1.36-1-2.26-1-4.31-.3Zm-8-9.42c.87,2.12,2.46,4,3.56,6-4.68-4.31-9.13-9.68-13.58-14.19a87.43,87.43,0,0,1,10,8.18Zm-1.12,8.13c-.11-.5.34-.87.58-.55.63,1,1.73,1,.95-.25-2.22-2.1-4.66-4.43-6.87-6.55,2.79,2.22,5,4.26,7.82,6.48.76,1.06.63,2.65-1,2.51a2.56,2.56,0,0,1-1.43-1.64Zm-.63,8.26c-3.76-2-6.11-5.33-9.78-6.81-4.45-4.53-11-9-20.67-11.91,7.78.92,17.28,7.81,22,11.34,3.28,2.12,5.18,5.28,8.44,7.38ZM72,226.24a71.89,71.89,0,0,0-19.26-10.88A100.34,100.34,0,0,1,65,223.08,36.63,36.63,0,0,1,72,226.24Zm35.46,11.59a10.35,10.35,0,0,0,4.12-1c.41-.69.24-1.22-.84-.81A10,10,0,0,1,107.5,237.83Zm-4.58-2a5.5,5.5,0,0,0,4.58-2.16c-1,.16-2,.32-3,.46a5,5,0,0,0,1.58-2.89c-1.36,1.44-2.4,3.86-4.62,4.27.77-.35,1.57-5.11.24-6,.64,2.44-.37,4.91-1.77,7.24a11.94,11.94,0,0,1,3-.93Zm6-3h-1.06l3.54-4.58C110.54,229.77,109.72,231.29,108.9,232.81Zm13.3-20a11,11,0,0,1,3.89-3.41c-.24,0-.63.07-1.06.16a8.16,8.16,0,0,0-3.89,2.86c.52.05.48.16,1.06.39Zm7.56,11.34a12.63,12.63,0,0,0-5.06,2.9c.09-.37.39-.8.29-1.26a10.92,10.92,0,0,1,4.77-1.64Zm-13,3.83a6.21,6.21,0,0,1,2.89.52,4.26,4.26,0,0,0,2.59-.89c1.81-1.46,3.84-4.24,3.09-6.44-.8.46-2,2.17-3.3,2-1,.56-.76.65.06.51a3.82,3.82,0,0,0,2.35-.94c.5.78-1.44,4.63-4.59,5.13A4,4,0,0,0,116.74,228Zm-1.95-1.92a30.42,30.42,0,0,1,5.16-2.53c1.19-.51,1.36-.67,1.62-1.85a5,5,0,0,0,1.93-2.78,3.86,3.86,0,0,1,1.08-2.06c-.52.32-1.19.86-1.71,1.16a6.21,6.21,0,0,1,1.23-2.43l-1.21.23a16.39,16.39,0,0,1,5.46-5.07,12.58,12.58,0,0,0-6.5,5.37c.22.4.39.4.76.26-.34.51-.54,1.64-1,1.86-.85.46-1.56,2-1.51,4-1.19-.48-3.8,2.46-5.47,3.39-.54.36-.5.57.15.41Zm-13.23,19.18a1.73,1.73,0,0,1,1-.65,21.51,21.51,0,0,1,6.33,1.17c-1.84-1.26-4.75-1.56-7.13-1.77-.21.42-.56.88-.19,1.25Zm1.57,8.36c.65-.05.59,0,.54-.3a29.22,29.22,0,0,1-2.53-7C100.86,248.35,101.88,251.25,103.13,253.62Zm-4.23-6.77a11.94,11.94,0,0,0,.58,4.72c-1.21-.23-.43-.69-2.11.28-.11-2.42-.26-5.51.56-7.58a43.48,43.48,0,0,0-.32,7.12,1.76,1.76,0,0,1,1.2-.39c-.47-.81-.41-3.6.09-4.15ZM94,256a9.23,9.23,0,0,1,3.86-1.87c.11-.46.11-.73-.34-.73-1.78.59-2.94,1.89-4.43,2.74-1.73-.21-2.89-.51-3.84.2a4.49,4.49,0,0,1,3.39.17C93.48,256.52,93.67,256.45,94,256Zm4.34-29.61a20,20,0,0,0-1-4.8c.2-.41.26-.34.85-.57a17.37,17.37,0,0,0-2.44-4.5c-.37-.35.24-1.25,1-1.08C99.07,217,100,219,101.25,221a5.86,5.86,0,0,0,1.45,2.32,2.55,2.55,0,0,1,.45-1.75c1.28,1.66,2.42,8.21-.62,13.12,3.15-3.35,2.93-10.77.71-14.82,0,.8-.17,1.13-.65,1.19-.06.47-.28.7-.71.4-.86-2.17-2.1-4.75-3.93-6.16a4.34,4.34,0,0,0-3.93.44A17.55,17.55,0,0,1,97.86,221c-.86.06-1.46.16-1.6.76A20,20,0,0,1,98.3,226.34Zm4.34-1.18c-1-2.44-2-5.74-4.5-7.54,1.69,1.69.37,3.07,1.64,4.43,1.45.21,2.1,2.16,2.86,3.11Zm5.54,8.46c-.27.67,4.11.16,5.64-.81.22-.53-.22-.72-1.08-.48a12.88,12.88,0,0,1-4.56,1.29Zm-.79-7.54c-.18-.67-.72-.35-1,0,.62.94,0,2.53,0,3.8a5.56,5.56,0,0,1,3-2.53A7.28,7.28,0,0,0,113,225.5c-.13,1.6,0,4.09-2.12,5.86,1.3-.48,5.16-3.13,5.16-4.8-.9.84-2.54,1.73-2.78,1.5-.48,0-.28-.53-.28-1a6,6,0,0,1,1.83-2.26.9.9,0,0,1-.84-.34,8.87,8.87,0,0,0,2.55-3.69c.32-.64.67-.6.86.19a6.41,6.41,0,0,1,3-3.3c-.91-.53-.49-2,.61-3.27a5.69,5.69,0,0,0-1.67,1.27,4.82,4.82,0,0,0-1.08,3.25c-.34,0-.51.34-.62.82-.43-.48-1-.37-1.32.23a20.85,20.85,0,0,1-3.28,5,7,7,0,0,1-4.11,2.19c-1.21.27-1.38-.21-1.46-1Zm6.06-14.61a2.83,2.83,0,0,1-.49,2.42c1.29-.65,2.63-2,2.76-3.18-.9.46-1.34,1.4-2.27.76Zm-3-6.16a3.53,3.53,0,0,1,2.7,1.6c.41.6,1.23.69,1.38.16a12.84,12.84,0,0,0-.26-4.22c-1.62.23-3-1.45-4.39-2.46,0,1.19,1.69,2.53,2.66,3.24a1.24,1.24,0,0,1,.35,1.78c-.65-.69-1.39-.69-2.44-.1ZM104.39,208a4.62,4.62,0,0,1-2.45-2.15C101.62,206.68,101.9,208.31,104.39,208Zm-3.5,2.71c-.7-.82-1.82-1.91-2.72-1.15.1-1.47,0-3.15,1-4.28,1-.56,1.36,0,.91.73C99.31,206.77,98.84,207.44,100.89,210.75Zm3.43-7.88a8.68,8.68,0,0,1-.48-2.6,10.24,10.24,0,0,1-3.28-3.46c.44,2.15,2.29,4.36,3.76,6.06Zm-8.44-10.5c-1.21-.49-1.36.94-2.18,1.67-.69.52-2.38-.18-2.77.08,1.17.87-1,1.13-1.42,1.13a6.33,6.33,0,0,1,2.87,1.21c.6-.08-.18-1.51.26-1.65a4.73,4.73,0,0,1,3.21,1.47c.44.78.93.71.93,0a2.34,2.34,0,0,1,.7-1.84C96.65,194,96.33,193,95.88,192.37ZM90.54,214a2.09,2.09,0,0,0-1.34-.26c-.8-3.11-2.91-6.66-4.47-9.82A54.73,54.73,0,0,1,90.54,214ZM103,218.59a3.89,3.89,0,0,1,1.22-2.07c-1.81-2-3.6-4.8-5.82-6.27a15,15,0,0,1,2.63,4.38,2.22,2.22,0,0,1,1.36,2c.21.65.41,1.31.61,2Zm3.6,2.31a9.7,9.7,0,0,0,0-6.94,2.11,2.11,0,0,0-2.42-.67c.14.81,0,.72-.81.94.45.67,1,2,1.51,1.59s1,.23.28,1.06a13.94,13.94,0,0,1,1.4,4Zm.39,3.57c.56-.46.89-1.18,1.94-1-.78-2.77-.1-7.77-1.18-8.67a8.77,8.77,0,0,1-.07,4.54,17.56,17.56,0,0,0-.69,5.17Zm-2.27-16.32a2.72,2.72,0,0,0,1.92-.87c.87,1.26,1.56,1,2.9.13a5.61,5.61,0,0,1,.24,4.71c-.78,2.11.43,3.91.25,6.19a2.47,2.47,0,0,1,1.47-1.06c1.17-2.07,2.83-4.35,6-4.68a10.7,10.7,0,0,0-4.94,4.62,1,1,0,0,1-1.42.85,6.09,6.09,0,0,0-1.41,1.68c-.39-.19-.75-1.08-.67-2.76.15-2.17-1-4.06-2.18-5.86,2.48,1.59,2.76-.64,2.53-2.28-1.3.94-3.22.07-4.69-.67Zm41.4-3c.9-2.38-.56-4.1-2.34-3.5C145.2,202.41,144.48,205,146.15,205.18ZM136,207.69c.33-.42.33-.44,1.1-.53a2.49,2.49,0,0,1-1.46-1.38A1.84,1.84,0,0,0,136,207.69Zm2.87,1.93c.8-1-1.9-.62-2.83-1.86C135.44,209.21,137.6,210.22,138.91,209.62Zm-.38-3.34a1.12,1.12,0,0,1,1.12-.62c.1-1-.78-2-1.54-2.6a4.59,4.59,0,0,0-2.87-.74,12.91,12.91,0,0,1,3.29,4Zm-4.73-6.13c-.78.6-.57,1,.6.53.5-.46,1.82-1.08,2.14-.64a4.35,4.35,0,0,0,2.12,1.06,1.41,1.41,0,0,1,1.23.46c.4-.34.36-.51,1-.62.56.05.88.3.6.69-.5.6-.67,1.47-.24,1.89.2-.63,1.32-1.32,2.1-1.62a4.16,4.16,0,0,0-3.95-1.81c-.76-1.07-1.58-.93-2.59-.84a6.78,6.78,0,0,0-3,.9Zm4.73-2.53a3.69,3.69,0,0,0,2.57.39c.49-.18-.33-.53,0-.74.63,0,1-.67,1.34-.41.26.92-.58,2.42-1.58,2A3.63,3.63,0,0,1,138.53,197.62Zm1.12-2.22c.64.45,1.51,0,1.9-.45a2.55,2.55,0,0,0-1.62-1.57,1.67,1.67,0,0,1-.28,2Zm-2.05,1.37c-.93-.6-1.32-1.48-2.6-1.9a2.2,2.2,0,0,1,2.57,0c.16.77-.12,1.16,0,1.92Zm-5.29.32a2.65,2.65,0,0,1,2.54-.49,2.1,2.1,0,0,1-.15-1.35c-.17.09-.21.48-.3.66C133.25,195.71,132.54,196.05,132.31,197.09Zm-.11,1.29c-1-.9-3.26,0-3.16.87C129.65,200.91,131.38,198.79,132.2,198.38Zm-11.49.85c.82-.09,1.21-.57.86-1.27-1.64-1.49-3.15-.34-3.52,1.14a3.35,3.35,0,0,1,2.66.13Zm-2,11.16c2.57-3,7.28-6.18,10.8-8.87-1.32.59-1.71.69-2.21.31-1.72,1-6,4.15-8.63,5.72.49.86.19,1.82,0,2.84Zm-10.19-6.46c-1-1-1.28-3.43-2.46-5.09a13,13,0,0,0,2.54,2.15,4,4,0,0,0-.08,2.94Z"/><path id="_76815528" data-name=" 76815528" class="cls-7" d="M140.6,164.37c-4.4-.6-7.2-.11-11,2.31-4.55,2.92-8,3.55-13.94.3-5.19-2.83-7.76-3.77-13.25-1-7.42,3.72-8.82,5.34-16.59,1.17C80,164,76.66,164,72.19,166.06c-5.46,2.49-7.46,5.53-13.88,1.66a15.08,15.08,0,0,0-5-1.6q1.94-1.81,4-3.47a8.35,8.35,0,0,1,2.54,1c3.45,2.13,7.13.08,10.72-2.17,4.31-2.7,10.16-2.69,16.06.34,7.55,3.87,7.2,2.94,14-.87,5.93-3.32,9.09-2.45,14.9.57,5.93,2.82,8.74,2.24,13.56-.66a10.43,10.43,0,0,1,4.85-1.4,65.79,65.79,0,0,1,6.56,4.94Zm13,15.21c-2.18.93-5.71.23-10.38-2.24-5.72-3-8.25-3.39-11.47-1.4-5.51,3.42-9.06,5.64-15.49,2-6.09-3.47-8.73-4.65-15.27-.86s-6.83,4.55-13.73.91c-4.85-2.56-8.82-4.36-14.25-1.36s-8.06,4.76-14.8,1.19c-3.79-2-6.83-3.62-11.21-2.67-.69.15-1.35.31-1.82.43a61.33,61.33,0,0,1,4.56-5.71,14.35,14.35,0,0,1,7.15,2.09,11.91,11.91,0,0,0,13.13,0c5.7-3.62,11.83-3.5,17.59-.07,7.53,4.48,7.62,1.71,14.51-1.66,4.8-2.35,8.33-2.05,12.6.55,4.54,2.78,8.53,4.62,14,.83,4.6-3.2,8.41-3.32,13.1-1.61,2.47.9,4.84,2.44,7.38,3.25a62.22,62.22,0,0,1,4.44,6.35Zm4.53,9c-3.44,2.63-9.44,2.2-12.92,0-7.64-4.77-11.65-3.8-16.25-.24-4.41,3.81-9.79,2.18-14.26-.34-6.85-3.86-8.15-4.92-15.83,1.14-4.13,3.26-8.16,2.13-12.78-.33-8.85-4.72-8.19-3.73-15.89.16-5.38,3.19-9.71,1-14-.94-4-1.78-6.6-3.72-10.47-2a59.18,59.18,0,0,0-8.69,5.36,63.53,63.53,0,0,1,4.36-9.88c3.44-1.62,8.33-2.62,12.09-.85,2,1,4.06,1.92,6.12,2.85,3.27,1.48,6.85,1.91,11.62-1.35,4.4-3.56,9.47-3.13,15.86.28,3.58,1.91,6.89,4.11,11.11.45,7.56-5.39,10.47-4.28,16.33-1.35s7.93,4.41,14.41.24c5.31-3.42,10.87-2.38,16.56.55,3.51,1.8,8.5,1.79,10.15.93q1.34,2.58,2.44,5.31Z"/><path id="_76815384" data-name=" 76815384" class="cls-8" d="M140.6,164.37a15.46,15.46,0,0,0-6.68.26,21.14,21.14,0,0,0-6.69-2.7c.62-.31,1.27-.68,2-1.1a10.43,10.43,0,0,1,4.85-1.4,65.79,65.79,0,0,1,6.56,4.94ZM119,168.47a20.88,20.88,0,0,1-3.28-1.49,27.19,27.19,0,0,0-4.8-2.22,24.78,24.78,0,0,0-2.46-5.91c2.2.21,4.4,1.17,7.22,2.64.45.21.88.41,1.29.58a7.91,7.91,0,0,0,1.88,6.25l.15.15ZM89.86,169a28.24,28.24,0,0,1-4-1.84C80,164,76.66,164,72.19,166.06c-.54.24-1,.49-1.52.74-.45-1.62-.94-3.13-1.43-4.48.47-.28,1-.57,1.42-.87,4.18-2.61,9.81-2.69,15.52.07A30.22,30.22,0,0,1,89.86,169Zm-32.65-1.81a17.56,17.56,0,0,0-3.85-1c.84-.79,1.7-1.55,2.59-2.29.47,1.18.89,2.28,1.26,3.34Zm94,12.8c-2.07,0-4.78-.9-8-2.63a36.21,36.21,0,0,0-4.14-1.92,4.82,4.82,0,0,1-.72-2.39c0-2.18.08-3.18-.24-4a18.55,18.55,0,0,1,3.66,1c2.26.83,4.45,2.19,6.77,3,.94,2.6,1.91,5.08,2.71,6.95Zm-28.79-.17a12.22,12.22,0,0,1-6.21-1.89,38.84,38.84,0,0,0-4.77-2.44,30,30,0,0,0,.17-6.21,17.56,17.56,0,0,1,3.06,1.5,18.54,18.54,0,0,0,6.48,2.85c.46,2,.78,4.22,1.27,6.19ZM91.7,180a28.13,28.13,0,0,1-4.46-2c-4.85-2.56-8.82-4.36-14.25-1.36l-.09,0c-.34-1.91-.73-3.83-1.16-5.68,5.2-2.58,10.67-2.17,15.85.91A24.53,24.53,0,0,0,91,173.63,47.46,47.46,0,0,1,91.7,180Zm-32-1.43c-.48-.22-1-.47-1.52-.75-3.79-2-6.83-3.62-11.21-2.67-.69.15-1.35.31-1.82.43a61.33,61.33,0,0,1,4.56-5.71,14.35,14.35,0,0,1,7.15,2.09,12.76,12.76,0,0,0,2,1.07,40.18,40.18,0,0,1,.81,5.54ZM149,190.1a12.07,12.07,0,0,1-3.81-1.48,25.1,25.1,0,0,0-5.38-2.64c-.22-1.85,1.13-3.09,1.32-5.47a28.19,28.19,0,0,1,4.39,1.85A14.8,14.8,0,0,0,151,183.8a31.89,31.89,0,0,0-2.81,2.76c-1.37,1.37-.59,2.58.83,3.54Zm-25.49.52c-3,.18-6.09-1-8.83-2.58a33.08,33.08,0,0,0-5.7-2.85,48.07,48.07,0,0,0,1.68-5.38,37.59,37.59,0,0,1,3.89,1.76c3.78,1.9,6,3.15,8.66,2.78.06,2,.05,4.47.3,6.27Zm-31.84.4a19.85,19.85,0,0,1-5.6-2.17c-7-3.73-8-3.89-12-1.87-.08-1.94-.27-4-.56-6.25,3.87-1.87,8.27-1.09,13.59,1.74a23.77,23.77,0,0,0,4.67,2.16c0,2.1-.07,4.22-.11,6.39Zm-31.89-1.43c-1.21-.45-2.39-1-3.56-1.52-2.5-1.11-4.45-2.29-6.52-2.6a18.87,18.87,0,0,0-.72-5.71,10.72,10.72,0,0,1,4.53.93c2,1,4.06,1.92,6.12,2.85.09.05.18.08.27.12C59.9,185.46,59.86,187.41,59.78,189.59Z"/></g></g><path id="path5145" class="cls-9" d="M42.17,20.42V52.05c3.16,6.33,6.32,9.49,6.32,19s-3.16,12.66-6.32,19c0,9.49,0,19,10,28.71C64.31,134.3,90.88,128,97.59,143.8c9.74-15.82,33.15-9.5,45.81-25.31,9.49-9.49,9.49-19,9.49-28.47-3.16-6.33-6.33-9.5-6.33-19s3.17-12.65,6.33-19V20.42c-17.34-7.42-38-9.49-55.36-9.49C77.56,11.09,59.2,12.83,42.17,20.42Z"/><path id="path5113" class="cls-10" d="M97.49,97.71l-.09,11h3.75l0-11.13c-1.19-.11-2.51-1.07-3.7.15Z"/><path id="path5097" class="cls-10" d="M86.24,117.14v7.68l3.51,0-.15-7.74a22.88,22.88,0,0,0-3.37,0Z"/><path id="path5105" class="cls-10" d="M112.35,112.73l.05,11.92-4.06,3.54V114.83c1-.14,4.3,2.48,4.08-1.89Z"/><path id="path5109" class="cls-10" d="M108.39,98.09l-.08,5.31,4.11.13.07-5.77V96.51a5.64,5.64,0,0,0-1.92-3.38,6.27,6.27,0,0,0-2.19,3.29Z"/><path id="path2987" class="cls-11" d="M60.83,90.69l14-.22c.87.35,2.47-3.91,3.83-3.72a23.33,23.33,0,0,0,6.79-.85l8.79-4c2.75-1,7.19-.65,10.61-.85.78.18,4.3-1.3,8.08-4,1-.2,1.78-.91,3.07,0a14.83,14.83,0,0,0,2.55,5,17.55,17.55,0,0,0,5.93,4.58,59.59,59.59,0,0,0,6.36,2c1.73.27,3.28-.06,4.66.5,1.43.72,4.4,5,5.6,7.57.07,2.32.1,3.49,0,5.49a6.73,6.73,0,0,0,2.61,5l2.17-3.52a6.19,6.19,0,0,0-.86-2.74c-.37-.53,0-1.11-.08-2a4.86,4.86,0,0,0-.39-2.65l-1.77-3.8-2.52-3.82c-1.48-2.67,1.16-1.56,1.62-.46A11,11,0,0,1,144.42,93c.15,1.6-.09,4.16.89,5.43s1.88,3.52,3.33,3.59l.76-5.54c.06-.42-1.9-1.88-1.91-2.92.92-1,1.48-2.2,1.07-2.72-2.34-3.8-5.05-7.77-5.87-8.36-1.48-.72-3.41-.52-5.21-.58a5.51,5.51,0,0,1-4-2.8,22.37,22.37,0,0,1-1.79-3.53c-.68-2.58-.61-5.06-2.8-7.83l-.78-.78c-2.64-2,.59-.32,1.54-.27,2.17,0-3.7-4.85-5.73-4.68a66.58,66.58,0,0,0-8.77.32l-7.42.57a40.81,40.81,0,0,1-9.33.18L90.07,62A20.13,20.13,0,0,0,83,61.43c-1.78.11-5.72,3.43-5.57,1.63,1.15-1.65,2.33-3.28,2.51-5.41a15.61,15.61,0,0,0-.65-7c.94.1,2.19,1,2.18-.42a5.43,5.43,0,0,0-2.34-4.1c-2.56-3,3.52,2,5.66,3.29,3,3,5.71,5.93,8.57,8.73l2.27,1.7c1.83,0-.31-3,.79-2.23.94.84,1.35,2.07,2.92,2.44a8.58,8.58,0,0,0,4.1.38c1.52-.4,3.13-.74,4-1.86.56-.61,1.48-1.91-1-1.1l-1.81.25a10,10,0,0,1-3.92-.46,4.08,4.08,0,0,1-1.58-1.21A4.16,4.16,0,0,1,101,54.26c1.8-.78,1.56-.23,4.28-.67.2-.46-2.31-1.73-4.37-1a14.24,14.24,0,0,0-3.15,1.73,1.49,1.49,0,0,1-1.3.19c-1.83-.34-2.81-1.3-4.11-2.52-1.28-.83,2.29-.48,4.48-1.49.32-1-.82-2-1.64-2-1.62-.12-3.85.09-4.55.56-1,.74-5-2.65-3.58-2.77l1.42-.77c2.67-.09,2.77-1.75-1-2.38-1.19-.17-2.41.91-3.72,1.16a9.51,9.51,0,0,1-3.35-1c-.85-.43-1.92-.93-2.24-1.67a3,3,0,0,1-.31-2c.23-.8,1.16-1.77,3-2.73a5.79,5.79,0,0,1,3.65-.69l7.34.55c2.9,0,4.92-1.18,7-1.91l4.38-.4a6.07,6.07,0,0,0,3.75-2.52c1.48-1.77,1.73-6.22.08-3.75-.7.53-1.88,1.76-2.51,2.31-1.26.92-1.56.87-3.2.55-2.52-1.35,4.47-4.32,2.29-4.68a7.59,7.59,0,0,0-3.09,1,5.73,5.73,0,0,0-3.36,3.37c.07,1.18-.94,2.51-1.83,2.52L93,33c-.87-.17-.09-2.67,2.35-4,1-.41.63-1.31-.69-1.21a7.63,7.63,0,0,0-2.89,1.58l-3,3.73a1.87,1.87,0,0,1-1.3.45l-3.07-.79c-1.51-.68.16-1.5,1.09-2.72,1-1-.44-1.19-1.61-.64-.86,1-2.11,1.31-3,2.34-.77.39-.84,1.51-1.93,2.07a5.25,5.25,0,0,0-2.17,1.54,6.42,6.42,0,0,0-1.74,2.32c-.69,1-1.53-2.46-3.46-2.84-2.84-.54-2.6.21-2,1.06l.82,1c.63.72,1.31,1.66-.63,2.23l-1.91.59c-1.57.76-1.61,1.76-2.54,2.67a22.58,22.58,0,0,1-3.26,2l-2.79,1.19c-1.52.58-.23,2.34,1.81,2.43,1.89-.15,1.93-.16.47.32-1.77.72-.05,1.28,1.07,1.5.61.13,1.45-.4,1.8-.56a5.71,5.71,0,0,1,3-.06c1.29.28,3.12.35,1.87,1.47L67.46,53c-1.23,1.81-.91,3.61-1,5.41-.84,1.75-2.48,2.6-3.43,3.89-1.44,1.4-2.84,7.82-1.17,11.4.43,1.4,2.5,4.05,1.66,4.26a14.93,14.93,0,0,0-4,1.73A6.71,6.71,0,0,1,56.69,81a9.63,9.63,0,0,0-3.24.79c-1.86.86-2.18,1.71-2.27,2.5a37.22,37.22,0,0,1-1.57,7.62c-.63,1-1.25,2-1.87,2.79-1.11,2.83-.87,6.46-.93,8.21.35.62,1.07.62,1.78-.34l2.64-3.44c.65-.44,0-2,.1-2.7A5.46,5.46,0,0,1,53,94.48l.65-4.7A8.15,8.15,0,0,1,55,86.09a13.5,13.5,0,0,1,5.27-2.17c7.09-2.33,10.74-.57,7.79.34l-4,1.08c-.85.27-2.23.53-3.58.8l-2.4.32c-2.94.64-2.6,2.47-2.94,3.93a24.55,24.55,0,0,1-1,4l-2.23,6.06-1.24,3c-.51,1.45-.24,2.64,1.15,2.52a3.89,3.89,0,0,0,2.23-.62,3.49,3.49,0,0,0,2-2.17c-.35-3.57,1.19-1.89.9-3.82.19-1.77.46-4.53.64-5.44-.08-1.15,1.77-3.29,3.2-3.26Z"/><path id="path2995" class="cls-12" d="M115,76.49c.43-.94,1.91-.18,2.37.19l2.3,2.39a45.58,45.58,0,0,0,4.9,3.73A21.6,21.6,0,0,0,130,84.92c1.48.33,3.63,1.06,5.23.66,1.69,0,3.83.19,4.73,1.15"/><path id="path5069" class="cls-10" d="M89.4,109l.06,2.77c6.38-.17,12.51-.39,18.88-.56l.26-2.64c-3,0-6-.08-9.24,0s-6.63.28-10,.42Z"/><path id="path2997" class="cls-12" d="M74.79,67.91a7.37,7.37,0,0,0-.85,4"/><path id="path2999" class="cls-12" d="M76.49,68c-.44,1-1.26,2.68-1,3.91"/><path id="path3001" class="cls-12" d="M108.74,76.59c-.08-.68,1-1,.62-2"/><path id="path3003" class="cls-12" d="M110.59,75.58c-.2-.7.89-1,.56-1.77"/><path id="path3005" class="cls-12" d="M112.47,74.94c-.16-.67.85-1.11.61-1.64"/><path id="path3007" class="cls-12" d="M114.18,74.84c0-.89,1.31-.94,1.11-1.81"/><path id="path3009" class="cls-12" d="M123.1,81.73c1.58-.21,4.42.09,4.73-.63"/><path id="path3011" class="cls-12" d="M125.19,83a22.49,22.49,0,0,0,4.59-.67"/><path id="path3013" class="cls-12" d="M128.11,84.42a9.33,9.33,0,0,1,4-1.56"/><path id="path3015" class="cls-12" d="M131.1,85.32c-.3-.52,2.43-.84,2.5-1.91"/><path id="path3019" class="cls-12" d="M76.29,44.72c.26,1.48-.21,3.11,1.17,4.37A10.81,10.81,0,0,0,79.8,50.9"/><path id="path3021" class="cls-12" d="M75.3,61.71a13.21,13.21,0,0,0,2.92-4.21c.39-1.52.48-3.42-.28-4.59"/><path id="path3023" class="cls-12" d="M75.74,61.28c.54-1.21,1.45-2.34.63-4"/><path id="path3025" class="cls-12" d="M72.22,39.94A11.18,11.18,0,0,1,74.5,43"/><path id="path3027" class="cls-12" d="M71.56,41a7.06,7.06,0,0,1,1.76,2.5"/><path id="path3029" class="cls-12" d="M70.64,48.25c0-.75.78-1.24,1.12-1.83"/><path id="path3031" class="cls-12" d="M73.73,48c-.28-.65.23-1.3.66-1.95"/><path id="path3033" class="cls-12" d="M72.07,48.33a3.2,3.2,0,0,1,1-1.94"/><path id="path3035" class="cls-12" d="M75.2,47.71c-.54-.85.23-1.55.64-2.13"/><path id="path3037" class="cls-12" d="M69.08,48.79a3.35,3.35,0,0,1,1.49-2.2"/><path id="path3039" class="cls-12" d="M85.32,84.3c-.14-1.15,1.85-1.12,1.51-3.42"/><path id="path3041" class="cls-12" d="M87.49,83.8c-.13-1.19,1.31-1.45,1.29-3.48"/><path id="path3043" class="cls-12" d="M89.3,83c.41-1.27,1.54-1.38,1.42-2.88"/><path id="path3045" class="cls-12" d="M91.82,81.51c0-.94.78-1.46,1-2.53"/><path id="path3049" class="cls-12" d="M70.18,67.71a5.48,5.48,0,0,0,.1,4.22"/><path id="path3053" class="cls-12" d="M71.26,67.45A18.55,18.55,0,0,0,71.62,70"/><path id="path3055" class="cls-12" d="M74.56,63.05c-1,1.22-3.56,2.89-3.29,4.43"/><path id="path3051" class="cls-12" d="M73.69,63.92c-.46,1.32-1.29,2.34-1.07,4.22"/><path id="path3065" class="cls-12" d="M63.58,77.54,68.33,83"/><path id="path3067" class="cls-12" d="M93.56,80.77c-.26-.74,1.21-1.21,1.17-2.42"/><path id="path3069" class="cls-12" d="M95.61,80.21c-.26-.75,1-1.28,1-2.28"/><path id="path3071" class="cls-12" d="M80.85,64.72c0-1,1.3-1.06,1.52-2.34"/><path id="path3073" class="cls-12" d="M82.93,64.35c0-.77.24-1.27,1.35-1.91"/><path id="path3075" class="cls-12" d="M86.62,64.55a1.34,1.34,0,0,1,1.09-1.38"/><path id="path3077" class="cls-12" d="M84.58,64.35a2.69,2.69,0,0,1,1.12-1.78"/><path id="path3079" class="cls-12" d="M68.36,84.16c1.91-.54,1,0,4.52-.49"/><path id="path3081" class="cls-12" d="M70.8,81.2a4.91,4.91,0,0,0-.26,2.63"/><path id="path3083" class="cls-12" d="M72.22,78.86a15.33,15.33,0,0,0-.13,4.58"/><path id="path3085" class="cls-12" d="M77.81,85.2C78.14,84.77,79.15,84,79,83c-1.23-2.76-1-2.67-1.13-3.9"/><path id="path3087-1" class="cls-13" d="M98.23,39.82l.23-3.39,3.24.23-.23,3.39c1.52.11-6.42-.46,3.25.24l-.23,3.38-3.24-.23L101,46.83l-3.24-.24L98,43.2,79.34,41.87c-1.75-.17-1.54-3.31-.24-3.2"/><path id="path5065" class="cls-10" d="M78.79,114.37l-6.89,3.29c5.86-.3,24.2-1.16,30.08-1.12l1.93-2.76c-6.44-.08-19-.11-25.12.59Z"/><path id="path5067" class="cls-10" d="M78.7,127.77c5,0,14.93,0,24.55-.06l-5.85-3c-6.56-.13-12.78,0-18.81.12a21.18,21.18,0,0,0,.11,2.9Z"/><path id="path5071" class="cls-10" d="M101.19,103.12l0,3c6.18.08,12.54.2,19,.62l.12-2.79c-7-.46-12.9-.7-19.07-.84Z"/><path id="path5119" class="cls-10" d="M120.26,102.07v6.38h3.22l0-6.34Z"/><path id="path5079" class="cls-10" d="M101.26,124.84l.07,2.93,19-.2v-2.73Z"/><path id="path5143" class="cls-10" d="M120.31,122.45l.06,8.28,3.18-.89v-7.5Z"/><path id="path5123" class="cls-10" d="M120.19,111.31l.08,9.44,3.1,0,.1-9.39Z"/><path id="path5117" class="cls-10" d="M112.5,111.24c5.35.06,11.81.1,17.46.12L130,114c-5.77-.18-7.94,0-9-.08l-2.31,2.81c3.06,0,9.54,0,11.32.16v2.75c-9.41,0-11.79,0-17.54,0l0,2.91c4,.13,11.79-.06,17.6.29l.07,2a8.52,8.52,0,0,1-1.12,0c-2.27,0-3.85,0-4.65,0-1.79,0-.93.4-1,3l6.12-.1a9.51,9.51,0,0,0,3.86-1.26c.34-4.22-.21-19.45-.56-26.56-.11-2.3-.2-3.76-.23-3.72-1.35.41-2.06,2-2.54,3.4-6.65-.45-11.52-.72-17.5-1l0,3.39c5.75.28,11.17.57,17.32,1.11v1.59l-6.39-.34,0,2.71,6.4.26v1.56c-6.06-.21-22.24-.22-23.47-.12,0,1-6.44,1.79-6.43,2.78Z"/><path id="path5107" class="cls-14" d="M108.25,106.28l.09,10.46,4.14-3.06,0-7.28Z"/><path id="path5141" class="cls-10" d="M97.38,118.6l.1,14.46,3.77-3,0-7.46Z"/><path id="path5077" class="cls-10" d="M101.14,114.79l.07,1.91c6.11-.16,13,0,19.14,0v-2.78c-5.6-.15-13.7-.29-19.16-.13Z"/><path id="path5115" class="cls-10" d="M97.37,111.56v8h3.84l0-8.13C99.9,111.43,98.65,111.5,97.37,111.56Z"/><path id="path5081" class="cls-10" d="M89.71,119.53l0,3,18.57.06,0-3.06Z"/><path id="path5091" class="cls-10" d="M74.75,122.59l-.11,7.81,4,1.38-.14-13.2Z"/><path id="path5093" class="cls-10" d="M74.75,112.64l.11,7,3.72,0-.13-12.11C77,107.45,76,112.5,74.75,112.64Z"/><path id="path5089" class="cls-10" d="M78.41,104V102.7c1.72-.19,5-.9,7.65-1V98.85c-2.53.22-5.45.84-8,1.2a4.64,4.64,0,0,0-2.19-3.26,5.24,5.24,0,0,0-1.45,4.13,57.68,57.68,0,0,0-8,1.31A5.31,5.31,0,0,0,65,99.14a5.42,5.42,0,0,0-2,3.25l-.29,24,4.3,1.81,7.58-.33,0-2.94-8.26.11,0-2c6-.47,13.55-.44,19.86-.63l0-2.91c-6.56.11-13.4.12-20,.63v-1.76c2.84-.36,5.78-.67,8.53-.9v-2.76a84.65,84.65,0,0,0-8.52.82l0-1.81c1.17-.59,16.63-1.86,23.14-2l-.25-2.62c-6.52.33-16.56.56-22.86,1.92l0-1.79a79.7,79.7,0,0,1,8.19-1.48l0-2.74a51.16,51.16,0,0,0-8.14,1.72l0-2a51.38,51.38,0,0,1,8.09-1.44l.09,6.56,3.82-.24Z"/><path id="path5087" class="cls-10" d="M86.15,103.65,86,97.32a4.82,4.82,0,0,1,1.27-3.67,3.71,3.71,0,0,1,1.9,3.56l0,6.41"/><path id="path5095" class="cls-10" d="M86.21,106.54l0,7.34,3.19-.07-.1-7.84Z"/><path id="path5133" class="cls-10" d="M88.58,135c2.46-.14,6.49,0,9,.07L97.46,137l-5.38-.09Z"/><path id="path5103" class="cls-10" d="M76.36,130.76a93.64,93.64,0,0,1,10-.85c-.05,1,5.73,2.05,5.61,2.58-1,0-5.75,0-9,.11a8.1,8.1,0,0,1-2.82-.45c-2.53-.78-5.4-1.34-3.83-1.39Z"/><path id="path5083" class="cls-10" d="M84.73,130.18l.55,2.32c6.19-.15,17.09.11,23,.51l-.14-2.66C90.13,129.27,86.38,129.94,84.73,130.18Z"/><path id="path5101" class="cls-10" d="M86.48,127.76l-.07,6.18,3.74,1.79L90,127.79Z"/><path id="path5111" class="cls-10" d="M97.5,98.07l3.83,0V95.4a5.54,5.54,0,0,0-1.87-4.51,5.92,5.92,0,0,0-2,4.67Z"/><path id="path5085" class="cls-10" d="M89.28,98.3l-.06,3a128.14,128.14,0,0,1,19.11,0V98.27a115.28,115.28,0,0,0-19,0Z"/><path id="path5063" class="cls-10" d="M78.48,104.41l.07,2.74a181,181,0,0,1,18.84-1l0-2.92c-3.41,0-7.29.13-10.3.37C84.48,103.86,80,104.09,78.48,104.41Z"/><path id="path5121" class="cls-10" d="M120,98.83l3.5.16a7.37,7.37,0,0,0-1.66-5.1A8.39,8.39,0,0,0,120,98.83Z"/><path id="path5125" class="cls-10" d="M112.6,127.77l0,5.16-4.44,1.88.09-7a25.8,25.8,0,0,1,4.31,0Z"/><path id="path5131" class="cls-10" d="M97.43,132.55l0,6.75,3.83-.13,0-6.46Z"/><path id="path5129" class="cls-10" d="M112.69,132.92l7-1.87c-2.49.16-4.86-.27-7-.32a15.37,15.37,0,0,0,0,2.19Z"/><path id="path3068" class="cls-12" d="M66.84,43.81a5.46,5.46,0,0,1,1.8-.76c.71-.24,1.39-.58,1.81-.44s.87,1.09-.26,1.59c-.43.24-.77.16-1.43,0C67.93,44,66.62,44.16,66.84,43.81Z"/><path id="path3840-1" class="cls-12" d="M68.24,43.39c-.63.13-.92.74.05.54S68.84,43.24,68.24,43.39Z"/><path id="path3860" class="cls-12" d="M78.45,82a8.1,8.1,0,0,1-1.83,2.31"/><path id="path3862" class="cls-15" d="M116.27,77.53c-.25-1-1.1-1-1.65-1.1"/><path id="path3849-4" class="cls-16" d="M92.59,125.34l4.21,0v1.68c-.89-.06-2.94.06-3.94,0Z"/><path id="path3849-0" class="cls-17" d="M96.74,114.56H93.39L93,116.12c.79,0,2.79-.13,3.77-.1,0-.52,0-1,0-1.46Z"/><path id="path3849-48" class="cls-16" d="M119.46,114.62h3.42l-.42,1.34c-.91,0-1.82,0-2.95,0Z"/><path id="path3849-8" class="cls-16" d="M103.22,109.48a10.38,10.38,0,0,1,3.49-.29l-.79,1.38c-.94,0-5.72.25-6.82.27Z"/><path id="path5123-5" class="cls-10" d="M120.2,111.33l.06,8.3h3.13l0-8.31Z"/><path id="path5143-1" class="cls-10" d="M120.27,122.55l0,8.35,3.19-.89c0-2.47.08-5,0-7.42Z"/><path id="path3982" class="cls-16" d="M83.44,130.75a9,9,0,0,1,1.27-.12l1.11,0v1.31h-.95a7.3,7.3,0,0,1-1.64-.27Z"/><path id="path3865-7" class="cls-18" d="M115.07,125.92c.83,0,1.72,0,2.57,0"/><path id="path3903" class="cls-19" d="M116.43,125h1"/><path class="cls-20" d="M80,97.63c-12.64,0-22.89,10.17-22.89,30.51C57.11,153.57,75.33,179,97.8,179s40.68-25.43,40.68-50.86c0-20.34-10.24-30.51-22.88-30.51a22.86,22.86,0,0,0-17.8,8.5A22.89,22.89,0,0,0,80,97.63Zm0,0"/><rect class="cls-20" x="24.97" y="109.84" width="145.64" height="54.95" rx="5.46"/><text class="cls-21" transform="translate(60.96 134.55)">Grodno</text><text class="cls-21" transform="translate(47.78 160.07)">Białystok </text><path class="cls-20" d="M150.72,0l29,0h16l0,16c0,7,0,14,0,21A29.09,29.09,0,0,1,150.72,0Z"/><text class="cls-22" transform="translate(159.78 31.75)">45</text></svg>