<svg id="Слой_1" data-name="Слой 1" xmlns="http://www.w3.org/2000/svg" xmlns:xlink="http://www.w3.org/1999/xlink" viewBox="0 0 195.59 280.63"><defs><style>.cls-1,.cls-15,.cls-22,.cls-23{fill:#e94539;}.cls-2{fill:#2e74b3;}.cls-10,.cls-11,.cls-2,.cls-9{stroke:#fff;}.cls-10,.cls-16,.cls-21,.cls-3,.cls-5,.cls-7,.cls-8,.cls-9{fill:#fff;}.cls-12,.cls-3,.cls-7{stroke:#424242;}.cls-4{fill:#d49e63;}.cls-4,.cls-5,.cls-6,.cls-8{stroke:#41382d;}.cls-5,.cls-8{fill-opacity:0;}.cls-6{fill:#f7e926;stroke-opacity:0;stroke-width:1.05px;}.cls-7{stroke-width:0.99px;}.cls-8{stroke-width:0.6px;}.cls-10{stroke-width:0.98px;}.cls-11,.cls-12{fill:none;}.cls-11{stroke-width:1.35px;}.cls-12{stroke-width:0.5px;}.cls-13{fill:#d7373d;}.cls-13,.cls-14,.cls-15,.cls-16,.cls-17,.cls-18,.cls-19,.cls-20{fill-rule:evenodd;}.cls-14{fill:#fbea26;}.cls-17{fill:url(#Безымянный_градиент_18);}.cls-18{fill:#222;}.cls-19{fill:#fffefe;}.cls-20{fill:#367db4;}.cls-22{font-size:24.77px;}.cls-22,.cls-23{font-family:Impact;}.cls-23{font-size:20px;}.cls-24{letter-spacing:-0.02em;}</style><linearGradient id="Безымянный_градиент_18" x1="-328.42" y1="-272.15" x2="-328.42" y2="-293.71" gradientTransform="matrix(1, 0, 0, -1, 425.01, -268.44)" gradientUnits="userSpaceOnUse"><stop offset="0" stop-color="#e73b33"/><stop offset="1" stop-color="#d7373d" stop-opacity="0"/></linearGradient></defs><rect class="cls-1" x="-6.21" y="-8.4" width="214.01" height="297.89"/><path id="path5145" class="cls-2" d="M152.47,262.49V230.85c-3.16-6.32-6.32-9.49-6.32-19s3.16-12.65,6.32-19c0-9.49,0-19-10-28.72-12.1-15.57-38.68-9.24-45.38-25.06-9.75,15.82-33.16,9.49-45.81,25.31-9.49,9.49-9.49,19-9.49,28.47,3.16,6.33,6.33,9.49,6.33,19s-3.17,12.66-6.33,19v31.64c17.34,7.42,38,9.49,55.36,9.49C117.07,271.82,135.44,270.08,152.47,262.49Z"/><path id="path5113" class="cls-3" d="M97.15,185.2l.09-11H93.49l0,11.12c1.18.12,2.51,1.08,3.7-.14Z"/><path id="path5097" class="cls-3" d="M108.4,165.77l0-7.68-3.51,0,.16,7.73a21.42,21.42,0,0,0,3.37,0Z"/><path id="path5105" class="cls-3" d="M82.29,170.18l-.05-11.92,4.06-3.54v13.36c-1,.14-4.3-2.48-4.08,1.89Z"/><path id="path5109" class="cls-3" d="M86.25,184.82l.08-5.32-4.11-.12-.07,5.77v1.25a5.59,5.59,0,0,0,1.92,3.37,6.21,6.21,0,0,0,2.19-3.28Z"/><path id="path2987" class="cls-4" d="M133.81,192.22l-14,.22c-.87-.36-2.48,3.9-3.83,3.72a23.33,23.33,0,0,0-6.79.85l-8.79,4c-2.75,1-7.2.65-10.61.85-.79-.18-4.3,1.3-8.09,4-1,.2-1.78.91-3.06,0a14.88,14.88,0,0,0-2.55-5,17.59,17.59,0,0,0-5.94-4.57,58.18,58.18,0,0,0-6.36-2c-1.73-.28-3.27.06-4.66-.5-1.42-.72-4.39-5-5.59-7.57-.07-2.32-.1-3.49,0-5.49a6.76,6.76,0,0,0-2.61-5l-2.17,3.53a6.19,6.19,0,0,0,.86,2.74c.37.53,0,1.11.08,2a4.86,4.86,0,0,0,.39,2.65l1.77,3.8,2.52,3.82c1.48,2.67-1.17,1.56-1.62.45a11,11,0,0,1-2.58-4.93c-.15-1.6.08-4.15-.89-5.42S47.45,181,46,180.91l-.76,5.54c-.06.41,1.9,1.87,1.9,2.91-.91,1-1.47,2.2-1.06,2.73,2.34,3.8,5.05,7.77,5.87,8.36,1.47.72,3.41.51,5.21.58a5.53,5.53,0,0,1,4,2.8A22.83,22.83,0,0,1,63,207.36c.68,2.57.61,5.06,2.8,7.83l.78.78c2.64,2-.59.31-1.54.27-2.17,0,3.7,4.85,5.73,4.68a68.14,68.14,0,0,0,8.76-.32L87,220a40.83,40.83,0,0,1,9.33-.19l8.29,1.11a19.91,19.91,0,0,0,7.11.52c1.78-.1,5.72-3.42,5.57-1.62-1.15,1.64-2.33,3.28-2.52,5.41a15.78,15.78,0,0,0,.66,7c-.94-.1-2.19-1-2.19.42a5.43,5.43,0,0,0,2.34,4.09c2.57,3-3.51-2-5.65-3.28-3-3-5.71-5.93-8.57-8.73l-2.27-1.7c-1.83,0,.31,3-.8,2.23-.93-.84-1.35-2.08-2.91-2.45a8.7,8.7,0,0,0-4.1-.37c-1.52.4-3.13.74-4,1.86-.56.61-1.49,1.91,1,1.1l1.81-.26a10.11,10.11,0,0,1,3.91.47,4,4,0,0,1,1.59,1.21,4.27,4.27,0,0,1-1.84,1.81c-1.8.78-1.56.22-4.28.66-.21.47,2.31,1.73,4.37,1a13.82,13.82,0,0,0,3.15-1.74,1.45,1.45,0,0,1,1.3-.18c1.83.34,2.8,1.29,4.1,2.51,1.29.84-2.29.49-4.47,1.49-.32,1,.82,2,1.64,2,1.62.11,3.85-.09,4.55-.56,1-.74,5,2.65,3.58,2.77l-1.42.77c-2.67.08-2.77,1.75,1,2.38,1.19.17,2.41-.91,3.72-1.16a9.37,9.37,0,0,1,3.35,1c.85.42,1.92.92,2.24,1.66a3,3,0,0,1,.31,2c-.23.8-1.16,1.77-3,2.73a5.87,5.87,0,0,1-3.65.69l-7.34-.55c-2.91,0-4.92,1.18-7,1.91l-4.38.4A6.07,6.07,0,0,0,87.73,251c-1.49,1.77-1.73,6.22-.09,3.75.71-.53,1.89-1.76,2.52-2.31,1.26-.92,1.56-.87,3.2-.55,2.52,1.34-4.47,4.32-2.29,4.68a7.59,7.59,0,0,0,3.09-1,5.76,5.76,0,0,0,3.36-3.37c-.07-1.18.93-2.51,1.83-2.52l2.31.24c.88.18.1,2.68-2.34,4-.95.41-.63,1.31.68,1.22a7.62,7.62,0,0,0,2.89-1.58l3-3.73a1.8,1.8,0,0,1,1.3-.46l3.07.79c1.51.68-.16,1.5-1.09,2.73-1,1,.44,1.19,1.61.63.86-1,2.11-1.3,3-2.34.77-.39.84-1.51,1.93-2.06a5.25,5.25,0,0,0,2.17-1.54,6.42,6.42,0,0,0,1.74-2.32c.69-1,1.53,2.45,3.46,2.83,2.83.54,2.6-.2,2-1l-.82-1c-.63-.72-1.31-1.66.63-2.23l1.91-.6c1.56-.75,1.61-1.75,2.54-2.66a22.05,22.05,0,0,1,3.26-2l2.78-1.19c1.52-.59.23-2.34-1.8-2.43-1.89.15-1.93.16-.48-.33,1.78-.71.06-1.28-1.06-1.49-.61-.13-1.45.4-1.8.55a5.62,5.62,0,0,1-3,.07c-1.29-.28-3.12-.35-1.87-1.47l1.88-2.52c1.23-1.8.91-3.6,1-5.4.84-1.76,2.48-2.6,3.43-3.9,1.43-1.4,2.84-7.81,1.16-11.39-.42-1.4-2.49-4.06-1.65-4.26a14.94,14.94,0,0,0,4-1.74A6.58,6.58,0,0,1,138,202a9.69,9.69,0,0,0,3.24-.8c1.86-.85,2.18-1.7,2.27-2.49A37.22,37.22,0,0,1,145,191c.62-1,1.25-2,1.87-2.79,1.11-2.83.86-6.46.93-8.21-.36-.62-1.08-.62-1.78.34l-2.65,3.43c-.64.45,0,2-.1,2.7a5.28,5.28,0,0,1-1.62,1.92l-.66,4.7a8,8,0,0,1-1.39,3.69,13.5,13.5,0,0,1-5.27,2.17c-7.09,2.32-10.74.57-7.8-.34l4-1.08c.85-.27,2.23-.54,3.58-.8l2.4-.33c2.94-.63,2.59-2.46,2.94-3.92a25.8,25.8,0,0,1,1-4l2.24-6.05,1.24-3.05c.51-1.44.24-2.63-1.16-2.51a3.94,3.94,0,0,0-2.22.61,3.51,3.51,0,0,0-2,2.18c.35,3.57-1.19,1.89-.9,3.82-.19,1.77-.47,4.53-.65,5.44.09,1.15-1.76,3.29-3.19,3.26Z"/><path id="path2995" class="cls-5" d="M79.63,206.41c-.42,1-1.9.19-2.37-.18L75,203.83a48,48,0,0,0-4.9-3.73A21.6,21.6,0,0,0,64.6,198c-1.48-.33-3.63-1.06-5.23-.67-1.69,0-3.83-.18-4.73-1.14"/><path id="path5069" class="cls-3" d="M105.24,173.92l-.06-2.77c-6.38.17-12.51.39-18.88.56L86,174.35c2.95,0,6,.07,9.24,0s6.63-.28,10-.42Z"/><path id="path2997" class="cls-5" d="M119.85,215a7.33,7.33,0,0,0,.85-4"/><path id="path2999" class="cls-5" d="M118.15,214.94c.43-1,1.25-2.68,1-3.91"/><path id="path3001" class="cls-5" d="M85.9,206.32c.07.68-1,1-.62,2"/><path id="path3003" class="cls-5" d="M84.05,207.32c.19.7-.89,1-.57,1.77"/><path id="path3005" class="cls-5" d="M82.17,208c.16.66-.85,1.11-.61,1.64"/><path id="path3007" class="cls-5" d="M80.46,208.07c0,.88-1.32.94-1.11,1.81"/><path id="path3009" class="cls-5" d="M71.54,201.17c-1.58.21-4.42-.08-4.73.63"/><path id="path3011" class="cls-5" d="M69.45,200a23.26,23.26,0,0,0-4.59.66"/><path id="path3013" class="cls-5" d="M66.53,198.49a9.46,9.46,0,0,1-4,1.56"/><path id="path3015" class="cls-5" d="M63.54,197.58c.3.53-2.43.85-2.5,1.92"/><path id="path3019" class="cls-5" d="M118.35,238.18c-.26-1.48.21-3.1-1.17-4.36a11.18,11.18,0,0,0-2.34-1.82"/><path id="path3021" class="cls-5" d="M119.34,221.2a13,13,0,0,0-2.92,4.21c-.39,1.52-.48,3.42.28,4.59"/><path id="path3023" class="cls-5" d="M118.9,221.63c-.54,1.21-1.45,2.34-.63,4"/><path id="path3025" class="cls-5" d="M122.42,243a10.81,10.81,0,0,1-2.28-3.06"/><path id="path3027" class="cls-5" d="M123.08,241.91a6.7,6.7,0,0,1-1.76-2.49"/><path id="path3029" class="cls-5" d="M124,234.66c0,.75-.78,1.24-1.12,1.83"/><path id="path3031" class="cls-5" d="M120.9,234.93c.29.65-.22,1.3-.66,1.95"/><path id="path3033" class="cls-5" d="M122.57,234.58a3.2,3.2,0,0,1-1,1.94"/><path id="path3035" class="cls-5" d="M119.44,235.2c.54.85-.23,1.55-.64,2.13"/><path id="path3037" class="cls-5" d="M125.56,234.11a3.3,3.3,0,0,1-1.49,2.2"/><path id="path3039" class="cls-5" d="M109.32,198.61c.14,1.15-1.85,1.12-1.51,3.42"/><path id="path3041" class="cls-5" d="M107.15,199.11c.13,1.18-1.31,1.45-1.3,3.48"/><path id="path3043" class="cls-5" d="M105.33,199.89c-.4,1.26-1.53,1.38-1.41,2.88"/><path id="path3045" class="cls-5" d="M102.82,201.39c0,.94-.78,1.46-1,2.54"/><path id="path3049" class="cls-5" d="M124.46,215.19a5.46,5.46,0,0,0-.1-4.21"/><path id="path3053" class="cls-5" d="M123.38,215.45a18.23,18.23,0,0,0-.36-2.56"/><path id="path3055" class="cls-5" d="M120.07,219.85c1-1.22,3.57-2.88,3.3-4.43"/><path id="path3051" class="cls-5" d="M121,219c.46-1.32,1.29-2.34,1.07-4.22"/><path id="path3065" class="cls-5" d="M131.06,205.37l-4.75-5.44"/><path id="path3067" class="cls-5" d="M101.08,202.14c.26.74-1.22,1.21-1.17,2.42"/><path id="path3069" class="cls-5" d="M99,202.7c.26.74-1,1.27-1,2.28"/><path id="path3071" class="cls-5" d="M113.78,218.19c0,1-1.29,1.06-1.51,2.34"/><path id="path3073" class="cls-5" d="M111.71,218.55c0,.77-.24,1.28-1.35,1.92"/><path id="path3075" class="cls-5" d="M108,218.36a1.36,1.36,0,0,1-1.09,1.38"/><path id="path3077" class="cls-5" d="M110.06,218.55a2.67,2.67,0,0,1-1.12,1.78"/><path id="path3079" class="cls-5" d="M126.28,198.75c-1.92.53-1.06,0-4.52.49"/><path id="path3081" class="cls-5" d="M123.84,201.71a4.93,4.93,0,0,0,.26-2.64"/><path id="path3083" class="cls-5" d="M122.42,204.05a15.33,15.33,0,0,0,.13-4.58"/><path id="path3085" class="cls-5" d="M116.83,197.71c-.33.43-1.34,1.21-1.17,2.21,1.23,2.76,1,2.67,1.13,3.89"/><path id="path3087-1" class="cls-6" d="M96.41,243.09l-.23,3.39-3.24-.24.23-3.38c-1.52-.11,6.42.46-3.25-.24l.23-3.39,3.24.24.22-3.39,3.25.24-.23,3.38L115.3,241c1.75.17,1.54,3.32.24,3.2"/><path id="path5065" class="cls-3" d="M115.85,168.54l6.89-3.29c-5.86.29-24.2,1.16-30.08,1.12l-1.93,2.76c6.44.08,19,.11,25.12-.59Z"/><path id="path5067" class="cls-3" d="M115.94,155.14c-5,0-14.93.05-24.55.05l5.84,3c6.57.14,12.79,0,18.82-.11a21.18,21.18,0,0,0-.11-2.9Z"/><path id="path5071" class="cls-3" d="M93.45,179.78l0-3c-6.18-.08-12.54-.19-19-.61L74.38,179c7,.46,12.89.7,19.07.83Z"/><path id="path5119" class="cls-3" d="M74.38,180.84v-6.38H71.16l0,6.34Z"/><path id="path5079" class="cls-3" d="M93.38,158.07l-.07-2.94-19,.2v2.74Z"/><path id="path5143" class="cls-3" d="M74.33,160.45l-.06-8.27-3.19.89v7.5Z"/><path id="path5123" class="cls-3" d="M74.45,171.6l-.08-9.44-3.11,0-.09,9.4Z"/><path id="path5117" class="cls-3" d="M82.14,171.67c-5.35-.06-11.82-.1-17.46-.12l-.08-2.63c5.77.18,7.94,0,9,.08L76,166.2c-3.06,0-9.53,0-11.31-.17v-2.75c9.41-.05,11.78,0,17.54.05l0-2.91c-4-.13-11.79.05-17.61-.3l-.06-2a10.19,10.19,0,0,1,1.12,0c2.27.06,3.85,0,4.65,0,1.79.05.93-.39,1-3l-6.13.1a9.32,9.32,0,0,0-3.85,1.26c-.35,4.22.21,19.44.56,26.56.11,2.3.2,3.75.23,3.71,1.35-.4,2.06-2,2.54-3.39,6.65.44,11.52.71,17.5,1l0-3.39c-5.75-.27-11.17-.57-17.32-1.11v-1.58l6.39.34,0-2.71-6.39-.26v-1.57c6.06.22,22.24.22,23.47.12,0-1,6.44-1.78,6.43-2.77Z"/><path id="path5107" class="cls-7" d="M86.38,176.62l-.08-10.46-4.14,3.07,0,7.27Z"/><path id="path5141" class="cls-3" d="M97.26,164.3l-.1-14.46-3.77,3,0,7.46Z"/><path id="path5077" class="cls-3" d="M93.5,168.12l-.07-1.91c-6.11.16-13,0-19.14,0V169c5.6.16,13.7.3,19.15.14Z"/><path id="path5115" class="cls-3" d="M97.27,171.35v-8H93.43l0,8.13C94.74,171.48,96,171.41,97.27,171.35Z"/><path id="path5081" class="cls-3" d="M104.93,163.38l0-3-18.57-.06,0,3.06Z"/><path id="path5091" class="cls-3" d="M119.88,160.32l.12-7.82-4-1.38.14,13.21Z"/><path id="path5093" class="cls-3" d="M119.89,170.27l-.11-7-3.72,0,.13,12.1C117.66,175.46,118.59,170.41,119.89,170.27Z"/><path id="path5089" class="cls-3" d="M116.23,178.86v1.35c-1.73.19-5,.9-7.65,1v2.83c2.53-.21,5.45-.83,8-1.19a4.67,4.67,0,0,0,2.19,3.26A5.24,5.24,0,0,0,120.2,182a56.14,56.14,0,0,0,8-1.32,5.39,5.39,0,0,0,1.5,3.1,5.47,5.47,0,0,0,1.95-3.25l.29-24-4.3-1.81-7.58.33,0,2.94,8.26-.12,0,2c-6,.46-13.55.44-19.86.63l0,2.91c6.56-.12,13.4-.12,20-.64l0,1.77c-2.83.36-5.77.66-8.52.89v2.77a84.65,84.65,0,0,0,8.52-.82l0,1.81c-1.17.59-16.63,1.86-23.14,2l.25,2.62c6.52-.33,16.55-.57,22.86-1.93l0,1.8a81.79,81.79,0,0,1-8.18,1.48l0,2.73a51.38,51.38,0,0,0,8.14-1.71l0,2a51.58,51.58,0,0,1-8.09,1.43l-.09-6.55-3.83.24Z"/><path id="path5087" class="cls-3" d="M108.49,179.26l.12,6.32a4.8,4.8,0,0,1-1.26,3.68,3.71,3.71,0,0,1-1.9-3.56l0-6.41"/><path id="path5095" class="cls-3" d="M108.43,176.37l0-7.34-3.19.06.1,7.85Z"/><path id="path5133" class="cls-3" d="M106.06,147.92c-2.46.15-6.49,0-9-.06l.08-1.92,5.38.09Z"/><path id="path5103" class="cls-3" d="M118.28,152.14a91.31,91.31,0,0,1-10,.86c0-1-5.73-2.06-5.61-2.59,1,0,5.75,0,9-.1a8.12,8.12,0,0,1,2.83.45c2.53.77,5.39,1.34,3.83,1.38Z"/><path id="path5083" class="cls-3" d="M109.91,152.73l-.55-2.32c-6.19.15-17.09-.11-23-.51l.14,2.66C104.51,153.64,108.26,153,109.91,152.73Z"/><path id="path5101" class="cls-3" d="M108.16,155.15l.07-6.19-3.74-1.78.19,7.94Z"/><path id="path5111" class="cls-3" d="M97.14,184.84l-3.83,0v2.64A5.56,5.56,0,0,0,95.19,192a5.92,5.92,0,0,0,2-4.67Z"/><path id="path5085" class="cls-3" d="M105.35,184.61l.07-3.05a128.14,128.14,0,0,1-19.11,0v3.1a114.2,114.2,0,0,0,19,0Z"/><path id="path5063" class="cls-3" d="M116.16,178.5l-.07-2.74a184.25,184.25,0,0,1-18.84,1l0,2.92c3.4,0,7.29-.13,10.3-.38C110.15,179.05,114.6,178.82,116.16,178.5Z"/><path id="path5121" class="cls-3" d="M74.62,184.08l-3.5-.16a7.39,7.39,0,0,0,1.66,5.1,8.45,8.45,0,0,0,1.84-4.94Z"/><path id="path5125" class="cls-3" d="M82,155.13,82,150l4.44-1.88-.09,7a24.79,24.79,0,0,1-4.31,0Z"/><path id="path5131" class="cls-3" d="M97.21,150.36l0-6.75-3.84.13,0,6.46Z"/><path id="path5129" class="cls-3" d="M82,150l-7,1.86c2.48-.15,4.86.28,7,.33A15.7,15.7,0,0,0,82,150Z"/><path id="path3068" class="cls-5" d="M127.8,239.1a5.56,5.56,0,0,1-1.8.76c-.71.24-1.39.58-1.81.44s-.87-1.09.26-1.6c.43-.23.76-.15,1.42,0C126.71,238.88,128,238.75,127.8,239.1Z"/><path id="path3840-1" class="cls-5" d="M126.4,239.52c.63-.13.92-.75-.05-.54S125.8,239.66,126.4,239.52Z"/><path id="path3860" class="cls-5" d="M116.19,200.94a7.93,7.93,0,0,1,1.83-2.31"/><path id="path3862" class="cls-8" d="M78.37,205.37c.25,1,1.1,1,1.65,1.1"/><path id="path3849-4" class="cls-9" d="M102,157.57l-4.21,0v-1.68c.9.06,3-.06,4,0Z"/><path id="path3849-0" class="cls-10" d="M97.9,168.35h3.35l.39-1.56c-.79,0-2.79.13-3.78.1,0,.52,0,1,0,1.46Z"/><path id="path3849-48" class="cls-9" d="M75.18,168.29H71.76l.42-1.34c.9,0,1.81,0,2.95,0Z"/><path id="path3849-8" class="cls-9" d="M91.42,173.43a10.42,10.42,0,0,1-3.5.29l.8-1.38c.94,0,5.72-.25,6.82-.27Z"/><path id="path5123-5" class="cls-3" d="M74.44,171.58l-.06-8.3H71.25l0,8.3Z"/><path id="path5143-1" class="cls-3" d="M74.37,160.36l0-8.35-3.19.89c0,2.47-.08,5,0,7.42Z"/><path id="path3982" class="cls-9" d="M111.2,152.16c-.47.06-.8.1-1.27.12s-.76,0-1.11,0V151h1a7.39,7.39,0,0,1,1.64.26Z"/><path id="path3865-7" class="cls-11" d="M79.57,157c-.83,0-1.72,0-2.58,0"/><path id="path3903" class="cls-12" d="M78.21,157.92h-1"/><path id="path74" class="cls-13" d="M57.26.66a26.26,26.26,0,0,0-7.52,4c-.26,3,.6,4.87,3.91,4.53L59.83,6C58,4.32,57,2.5,57.26.66"/><path id="path76" class="cls-13" d="M135.82.2a26.68,26.68,0,0,1,7.57,3.88c.29,3-.55,4.88-3.87,4.58l-6.21-3.07C135.13,3.87,136.07,2,135.82.2"/><path id="path78" class="cls-13" d="M68.17-2.43A47.18,47.18,0,0,0,58.65-.11C57,2.1,60,4.57,61.22,5.76l8.65-2.32a5.4,5.4,0,0,1-1.69-5.87"/><path id="path80" class="cls-13" d="M124.87-2.76a47.24,47.24,0,0,1,9.55,2.21c1.64,2.19-1.25,4.7-2.51,5.89l-8.67-2.21a5.41,5.41,0,0,0,1.63-5.89"/><path id="path82" class="cls-13" d="M69.62-2.53A46.79,46.79,0,0,1,82.75-4.74,6.06,6.06,0,0,0,83,1L71.37,3C69.08,1.3,68.88-.57,69.62-2.53"/><path id="path84" class="cls-13" d="M123.42-2.85A46.84,46.84,0,0,0,110.27-4.9a6.07,6.07,0,0,1-.19,5.71l11.66,1.87C124,1,124.19-.9,123.43-2.85"/><path id="path86" class="cls-13" d="M84.6-5.16q-3.3,3.24-.2,6.28L96.09.51l.1-6c-4-.34-7.76.24-11.59.36"/><path id="path88" class="cls-13" d="M108.41-5.3q3.33,3.21.28,6.28L97,.5l-.17-6c4-.39,7.76.14,11.59.22"/><path id="path90" class="cls-14" d="M42.31,80.88V92.51c0,1.14.06,2.79.15,4.21,2.13,28.43,25.64,51,54.17,51s52.05-22.53,54.18-51c.05-2.15.19-2.79.15-4.22V80.88H42.31"/><path id="path92" class="cls-15" d="M151,14.42H42.31V62c0,.09,0,18.07,0,18.07H151s0-18.22,0-18.32V14.42"/><path id="path94" class="cls-16" d="M153.65,11H39.26l2.8,2.64H150.81L153.65,11"/><path id="path104" class="cls-17" d="M58.71,8C83.58-.87,108.83-.52,134.4,7.45a5.57,5.57,0,0,0,.5,2.63H58.3A3,3,0,0,0,58.71,8"/><path id="path108" class="cls-15" d="M140.29.89a24.72,24.72,0,0,1,4,2.59L146.52.31c1.18-2.49-2.82-3.64-4-4.3L140.29.9Zm-8-8.51a43.09,43.09,0,0,1,9.3,3.18l-2.24,5a75.23,75.23,0,0,0-8.71-3.19l1.65-5Zm-13.44-2.93a65.87,65.87,0,0,1,12.58,2.67l-1.54,5.12a112.16,112.16,0,0,0-11.76-2.33l.72-5.46Zm-17-1.58A91.59,91.59,0,0,1,118-10.61l-.77,5.69A112.69,112.69,0,0,0,101.9-6.48Zm-10-.1a55.2,55.2,0,0,1,9.36,0v5.79c-3.12-.07-6.24-.06-9.36,0Zm-.8.16A91.7,91.7,0,0,0,75-10.36l.84,5.68A112.23,112.23,0,0,1,91.1-6.42v-5.65Zm-17,1.78A65.77,65.77,0,0,0,61.53-7.47l1.61,5.1A110.93,110.93,0,0,1,74.87-4.84ZM60.68-7.2a43.38,43.38,0,0,0-9.26,3.28l2.29,5a74.21,74.21,0,0,1,8.68-3.28ZM52.79,1.4a25.31,25.31,0,0,0-4,2.63L46.56.89c-1.21-2.48,2.78-3.67,3.94-4.35Zm99.78-6.81-.08-2a17.49,17.49,0,0,0-5.57-4.07l.48,1.7A16.45,16.45,0,0,1,152.57-5.41Zm-6.36-5-.81-1.9a62.8,62.8,0,0,0-9.24-3.24l.14,1.05q4.95,1.77,9.91,4.09Zm-11-4.21-.4-1.44a122.22,122.22,0,0,0-16.48-4.34l.41,1.64a166.68,166.68,0,0,1,16.47,4.15ZM117.4-20.51a95.82,95.82,0,0,0-15.52-1.43,3.7,3.7,0,0,1,.53,1.59,136.91,136.91,0,0,1,15.52,1.5l-.53-1.65ZM91.89-22a4.13,4.13,0,0,0-.49,1.68,93.14,93.14,0,0,1,10.3.05A3.14,3.14,0,0,0,101-22,68.47,68.47,0,0,0,91.89-22ZM75.44-20.26a95.79,95.79,0,0,1,15.5-1.61,2.35,2.35,0,0,0-.52,1.59,137.18,137.18,0,0,0-15.5,1.68l.51-1.66Zm-17.78,6.1L58-15.61a122.27,122.27,0,0,1,16.43-4.54l-.39,1.65A165.8,165.8,0,0,0,57.66-14.16ZM46.75-9.83l.79-1.91a63,63,0,0,1,9.19-3.35L56.6-14Q51.68-12.21,46.75-9.83ZM40.44-4.76l.06-2A17.39,17.39,0,0,1,46-10.88l-.46,1.71A16.48,16.48,0,0,0,40.44-4.76ZM139-47.95l-6.67-2.19-1.67,5.76,6.75,2.12Zm-7.65-2.25A25,25,0,0,0,123.91-52l-1,5.68,6.82,1.81Zm5.84,8.92-14.33-4.06-1.36,5.91,14.17,3.76,1.52-5.61Zm-9.47,4.42-6.37-1.74-1.14,5.76,6.22,1.66Zm7.73,2.25-6.89-2-1.14,5.83L134.15-29Zm-24,7.82A97.42,97.42,0,0,1,127.34-24a14.3,14.3,0,0,1-1.16,4.52c-5-1.21-10.21-2.06-15.22-2.75l.46-4.51Zm43.82,8.58L153-20l-2.49,3.77A12.15,12.15,0,0,1,154.67-12l.5-.77A5.07,5.07,0,0,0,153-17.29a3.49,3.49,0,0,1,2.28-.92Zm-3.05-2.41a85.45,85.45,0,0,0-14.09-6.25l-1.53,4.48a104.92,104.92,0,0,1,13,5.58l2.59-3.81Zm-10.42,6c-4.85-1.71-9.71-3.29-14.57-4.65l1-4.59a69.21,69.21,0,0,1,15.05,5A8.19,8.19,0,0,1,141.77-14.63ZM152.42-8.9a7.94,7.94,0,0,1,1.94-2.18,4.79,4.79,0,0,0-1-1.32c-.56.87-.73,2-1.69,2.62Zm.27-4.33c-.6,1-.54,2.48-1.81,3a58.15,58.15,0,0,0-8.18-4,19,19,0,0,0,1.54-4A21.5,21.5,0,0,1,152.69-13.23Zm-112.14,5a7.7,7.7,0,0,0-2-2.16,4.63,4.63,0,0,1,1-1.33c.57.86.74,2,1.71,2.6Zm-2.92-9.28,2.22-1.78,2.54,3.75a12.18,12.18,0,0,0-4.13,4.19l-.5-.76a5.09,5.09,0,0,1,2.15-4.51,3.48,3.48,0,0,0-2.28-.89Zm2.61,5c.61,1,.57,2.47,1.84,2.92a59,59,0,0,1,8.13-4.13,19.6,19.6,0,0,1-1.59-4A21.21,21.21,0,0,0,40.24-12.57ZM40.65-20a86,86,0,0,1,14-6.41l1.58,4.47a102.59,102.59,0,0,0-13,5.73ZM51.13-14.1c4.84-1.77,9.68-3.4,14.52-4.82L64.57-23.5a69,69,0,0,0-15,5.21,8.25,8.25,0,0,0,1.55,4.19ZM81.34-26.62a97.15,97.15,0,0,0-15.88,2.93,14.36,14.36,0,0,0,1.21,4.51A152.78,152.78,0,0,1,81.86-22.1Zm6.17-7a158.87,158.87,0,0,0-15.76,2.48l1.14,5A102,102,0,0,1,88-28.14Zm17.07-1,.06-6.26-7.75-.29,0,6.31,7.66.24Zm.33-14.06L97-48.83l-.18-6.59,8.12.14,0,6.53Zm-17.17,0,8.45-.08v-6.59l-8.7.24.25,6.43Zm0,.91c5.68-.35,11.36-.38,17-.2l0,6.39c-2.59-.11-5.32-.25-8-.21-2.94,0-5.83.3-8.89.36l-.1-6.34Zm.41,13.25-.14-6.26,8.1-.38,0,6.31Zm.28.81a80.45,80.45,0,0,1,15.9,0l-.3,5.65c-5.08.15-10.16.15-15.25,0l-.34-5.69Zm7.61,6.53a90.9,90.9,0,0,0-13.85.45l.45,4.71c4.44-.26,8.73-.78,13.44-.77Zm.69,0a89.93,89.93,0,0,1,13.76.28l-.39,4.72c-4.45-.21-8.64-.68-13.35-.62l0-4.38Zm8.41-6.52A157.28,157.28,0,0,1,121-31.48l-1.09,5a103.23,103.23,0,0,0-15.07-1.73Zm44.41,5.2a32.28,32.28,0,0,1,6,2.75c2.28,1.24,4.44,2.79,5.18,4.62l-2.56,4a2.45,2.45,0,0,0-1.85-.93c-2.68-3-6.1-4-9.16-6.06l2.37-4.34Zm.68-.89,2.87-5.31,5.94,2.85-3.31,5.38-5.49-2.92Zm6.27,3.29,3.18-5.24c1.77,1.26,4.42,1.89,4.94,4.39l-3.25,4.67A16.07,16.07,0,0,0,156.54-26.17Zm.09-14.68c2.59,1.16,11.19,4.47,11.83,7.24l-3.11,5.5c-2.9-3.82-7.87-5.08-11.78-7.62l3.06-5.11ZM137.12-27a102.8,102.8,0,0,0-15.34-4.33L120.7-26.4c5,.87,10.16,2.28,15.11,3.65Zm-94-1a31.84,31.84,0,0,0-6,2.82C34.9-23.87,32.76-22.3,32-20.45l2.6,3.94a2.48,2.48,0,0,1,1.85-1c2.64-3.07,6-4.1,9.08-6.16Zm-6.93,2.48L33-30.68c-1.75,1.29-4.4,1.95-4.89,4.45l3.31,4.63a16,16,0,0,1,4.83-3.87Zm6.23-3.37-2.92-5.27-5.91,2.92L37-25.85ZM36-40.15C33.4-39,24.84-35.55,24.23-32.78l3.17,5.47c2.86-3.86,7.82-5.17,11.69-7.75Zm25.18-9.64a24.54,24.54,0,0,1,7.4-1.89L69.62-46l-6.8,1.89Zm-7.63,2.34,6.65-2.27L61.91-44l-6.72,2.19-1.67-5.67Zm1.89,6.65L69.7-45l1.43,5.89L57-35.21Zm1.81,6.65,6.87-2.12,1.21,5.82-6.72,1.89Zm7.71-2.35,6.34-1.81,1.21,5.74L66.3-30.83Zm-9.3,10A105.28,105.28,0,0,1,70.93-31l1.14,4.91c-4.94.92-10.13,2.4-15.07,3.83l-1.36-4.23ZM28.29-4.41c-4.78,3.14-7.14-1.09-9.95-2.54a23.86,23.86,0,0,0-7.3,6C9.9.54,10.77,1.5,11.87,0c2.26-3.77,5.27-5.17,9.36-3.09C24.82-.4,27-1.21,28.29-4.41ZM164.73-5.2c4.81,3.08,7.12-1.18,9.92-2.65A23.52,23.52,0,0,1,182-1.91c1.16,1.45.3,2.41-.82,1-2.3-3.75-5.32-5.11-9.39-3C168.25-1.23,166-2,164.73-5.2"/><path id="path130" class="cls-16" d="M151.66,77.15V92.58c.05,1.45-.1,2.1-.15,4.28-2.16,28.74-26,51.51-54.87,51.51S43.92,125.6,41.77,96.86c-.09-1.44-.14-3.1-.15-4.26v-15a3.71,3.71,0,0,0-1.33.1,5,5,0,0,1-1.46,1.16V93.28c0,1.21.06,2.94.16,4.45a57.8,57.8,0,0,0,115.3,0c.06-2.27.21-3,.17-4.46V77.76a3.38,3.38,0,0,1-.71-.75,4.32,4.32,0,0,0-2.08.13Zm0-63.13V60.57a4,4,0,0,1,2.77-1.65,4.48,4.48,0,0,1,0-4.52V11.54L151.66,14ZM38.82,11.74V59.65a3.05,3.05,0,0,1,2.79,1.17V14.49l-2.79-2.75"/><path id="path168" class="cls-18" d="M86.6,95.4a7,7,0,0,0-2.53-1.06c-.89-.58-1.51-1.24-2.42-1.21a1.2,1.2,0,0,0-1.36-.59,8.23,8.23,0,0,1-2.72-2.69c-.15.6,0,1.14-.45,1.8A2.88,2.88,0,0,1,75,90.3c-.31,1-.16,2.1,1,3.68-1.34,2.13-3,.19-2-.77-1.24,0-1.88,1.51-.55,2.75a.85.85,0,0,0-.72,1c.75-.44,1.33.12,2,.18l0,.54a10.47,10.47,0,0,0-2,1.82,2.08,2.08,0,0,0-1,1c-1.11.74-1.5,1.6-1,2.58a2.46,2.46,0,0,0,.38,1,5.26,5.26,0,0,0,1.22,1c.48,0,.78-.19.81-.61a1,1,0,0,1,.39-.93.56.56,0,0,0,.36.22c.08.26-.85,1.1-.57,1.39.76.69,1.46,1,2.06.33l.64-.92c.44.94,0,1.65,0,2.47-1,.28-1,1.09-.4,1.47s1.2.1,1.25-.75l.56.35A6.59,6.59,0,0,1,76.05,110c-.15,1.06-.94,1.6-1.41,2.32a27.47,27.47,0,0,1-4.94-2.27c-2.25-1.3-2.37.08-4,.73a8.21,8.21,0,0,0-1.3,2.73A7,7,0,0,1,63.1,116a1.39,1.39,0,0,0-.25,1.46,5.5,5.5,0,0,1,.24,2.48c0,1.11.48,1.34.73,2l.41,1.45a1,1,0,0,0,.58,1.09,2.94,2.94,0,0,0,2.09-1.36c.28.73,0,1.49.77,2.11a4.83,4.83,0,0,1,1.82,2.49c.64,1.64,1.43,1.25,2.21,2.06q2.49,2.12,3.1.61c.31-1.81,0-3.39-1.6-4.45a1.11,1.11,0,0,0-1.34.25c-.56.12-.89-.44-.49-.63a.84.84,0,0,0,.86-.62c-.18-1.25-1.93-1.81-2.59-2.64a5.62,5.62,0,0,0-.5-2.58,1.87,1.87,0,0,0,.91-.61,11.41,11.41,0,0,1,4.18,2,29.57,29.57,0,0,0,3.31,1.31c1.37.19,2.41,0,2.78-1.17a16.83,16.83,0,0,0,2.24,1.19l-.39,1.76c-.68.14-.8.65-.63,1.47a2.08,2.08,0,0,0-1,.4,2.39,2.39,0,0,0-1.1.73,2.35,2.35,0,0,0-1,.94,2,2,0,0,1-.34.82l-.22.69c-.08,1,.2,1.25.86.76a3.54,3.54,0,0,1,1.82-1.24,4.75,4.75,0,0,0,3-.78l.54,0a1.76,1.76,0,0,0,1.59.61c.57,4.13,3,6.79,6.89,8.25-1.91-1.77-2-5.1-1.55-7.6.27,2.6,1.13,4.52,2.28,5,2.42.94,4.72,4.28,2.19,6.53,2.62-.09,4.9-4.62,1.75-8.91a24,24,0,0,1,3.9,1.5c1.66.85,2.3,2.93-.71,4.89,2.49.36,6-1.82,4.4-6.53-1.72-3.15-5.45-3.26-6.64-5.66l2.59,0c1.44,3.39,4,2.79,5.26,3.22,2.1.06,3.68,2.3,2.61,5a8.25,8.25,0,0,1-2.46,3.31,9.6,9.6,0,0,0-2.13,1.78,6.68,6.68,0,0,1-1.19,1.32,1,1,0,0,0,.22,1.29,7.31,7.31,0,0,0,3.11.38c-.67,1-.78,1.75-.07,2.18a8.28,8.28,0,0,0,4.61-1.24c.76-1.2,1-2.16,0-2.61.18-1.12.43-1.66.8-.91.27.17.55,0,.82-.23.89-.35.75-1.83,1.13-2.74.17-2.4,1.75-4.18,2.65-6.26.4-1.41.3-2.46-.92-2.69-1.26.26-1.43-1-1.18-3,1-1,.26-2.2.39-3.3a18.22,18.22,0,0,0-.71-5.53c5.27.07.87,6.65,7.65,6.94-2.13-2-2.34-3.29-1.67-4.2.16,3,4.3,2,6.24,1,1.47-.9,4.48.63,3.34,2.11,1.9-.65,1.27-4-2.17-4.54,1.35-.65,5.17-.66,6.47-3.5.6-2.87-2.32-3.34-2.48-2.08,1.42-.67,1.7.65,1.11,1.41a1.7,1.7,0,0,1-1.95.28,12.6,12.6,0,0,0-3.11-.89,2.31,2.31,0,0,0-1.43-2.3,1.4,1.4,0,0,1-.1,1.32c-1.85-3.17-5.92-2.3-6,0,.92-1,3-.76,2.88.9-.64,2.3-3.87,1.27-5.7.88-1.43-.31-2.81.37-4.17,1.31-3-1.36-3.73-2-7.71-2.19.26-.93.18-1.71-1.14-1.71a1.68,1.68,0,0,0-.15-.87,14,14,0,0,0,4.9,2.35c3.49-4.59,3.25-10.55-1.38-16.44a4.29,4.29,0,0,1-2.53,2.1,3,3,0,0,0-2-1.35c-1.08-.54.94-1.75,1.1-2.69a4,4,0,0,0-.42-3.36.88.88,0,0,1,.76-.43,3.86,3.86,0,0,1,3.45,2.21l.38-.46a2.59,2.59,0,0,1,1.38,2.68c.23-.31.37-1,.69-.92.61.3.28,1.22.42,1.83.58-.15.56-.7.82-.62.52,1.19.47,2-.83,1.92a1.21,1.21,0,0,0,1.68,0l.29-.67.83,1.4a1,1,0,0,0,.56,1.29c.6.92,1.68,1,3.09.37.34.12.65,0,1-.31,1.48.9,4,.54,4.55-1.15a3.25,3.25,0,0,0-1.93-3.71,2.28,2.28,0,0,0-1.57-1.83c-1.91-.34-2.26.55-1.91,2a2.42,2.42,0,0,1-1-.15l.4-.14a1.2,1.2,0,0,0-.11-1.5,1.83,1.83,0,0,0-1.23-1.65c0,1.61-.52,2.44-1.79,2.13.22-.33.72-.52.67-1-.45-.39-1.15.13-1.51,0,.26-.65.86-.67.69-1.77a3.07,3.07,0,0,1-2.71.92,1.08,1.08,0,0,0-.27-1.43,1.06,1.06,0,0,1-1.18,1c0-.19.93-1.36,0-1.82.1,1.23-1.1,1.51-2.56.52a4.23,4.23,0,0,0-2.7,0,1.86,1.86,0,0,0-1.11.65,5.06,5.06,0,0,0-2.56-.23,2.54,2.54,0,0,1-1-.75,3.46,3.46,0,0,0-2.54,3.12l.27.08-.07.47c-.32.28-1.08.28-.82,1.17a.74.74,0,0,0-.46.89,3,3,0,0,0,.1,1.67.69.69,0,0,1-.46.5l-1.73-1.62a1.82,1.82,0,0,0-.51-1.14l-.34-3.07a.74.74,0,0,0,.48-.42l.3-2.92a1.36,1.36,0,0,0,.86-.55L94,88.71l2-.08-.24-2,17-1.17A9.08,9.08,0,0,0,116.88,84a13.63,13.63,0,0,0-5.61-1l-15.8.64.14-2.33-2.21.09.41,2-.94-.09c-.39-.35-.6-.51-1-.23a.74.74,0,0,0-1,.1.38.38,0,0,0-.59.06c-.65-.24-1,0-1.17.67-2.48-.66-2.78,3.69.23,2.67a1.85,1.85,0,0,0,0,.87L87.94,90.1a1.3,1.3,0,0,0,.7,1.18L88.43,96c.09.78.52,1.51,1.86,2.13A14.77,14.77,0,0,0,93,100.73l.14.44,1.09.67.67,2.31c-.61.19-1,.46-.94,1.27a1.76,1.76,0,0,1-1.6.48,2.6,2.6,0,0,0-1.12-2,3.47,3.47,0,0,0-1-3.47,5.32,5.32,0,0,0-1.5-2.13,4.56,4.56,0,0,0-2.16-2.95Zm2.19-10.51h.13a1.35,1.35,0,0,0,.2.93.84.84,0,0,1-.33.07.61.61,0,0,1-.67-.51c0-.27.3-.5.67-.5Zm-5.05,37.64-.84,1.74a1.09,1.09,0,0,1,.26.55l.25-.42.32-1.87ZM93.6,107.4l.18,0a.72.72,0,0,0,.65.43l.44.52a4.84,4.84,0,0,1-1.65,1c-.32-.47-.06-1.13-.36-1.63l.74-.25ZM77.42,103c-1-.42-.6.34-.85.53l.13.63a12.36,12.36,0,0,0,3,1.25,2.12,2.12,0,0,0,.49-2.28,6.06,6.06,0,0,1-2.82-.13ZM66.27,116.9a1.25,1.25,0,0,0-.13-.92,6,6,0,0,0,.82-2.19,5.83,5.83,0,0,0,1.58-.64c-.06.58,1.27,2,2.28,2.79a1.47,1.47,0,0,1-.85,0c-1.69-1-2.63.25-3.7,1"/><path id="path170" class="cls-18" d="M100.26,26.26c1.5.58.68,3.66,2.06,4.53l-.83-.1c.81,1.71.1,2.93,1,4.15l-.53-.13c.6,1.55-.24,2.66.88,4.08a2.49,2.49,0,0,1-1.07-.24c1.46,1.57.82,3.18,1.69,5l-.65-.06a.59.59,0,0,0,.34.56c4.5-1.23,5.93-3.32,5.27-6a.81.81,0,0,0-.93-.37c-1.86.27-1.66-3.24.82-5.19A3.24,3.24,0,0,1,110.56,31,20.49,20.49,0,0,0,117,27c.39,0,.5.47.49.93,4.32-2.62,7.84-6.45,11.25-10.45,3.77,2.95-1.5,9.28-12.28,14.32l-.38.58C123.59,29,127,26,129.52,23.08c.36-.35.66-.32.89.18,1.17,4.8-2.9,8.9-13.94,12.06l-.3.32a24,24,0,0,0,13.08-5.92c.46-.31.75.07.66.71-.5,5.72-7,7.63-13.5,8.71,3.81.34,7.94-1,12.29-3.47.45-.24.62.17.31,1-1.75,3.6-6.24,5.41-12.18,6.27a22.87,22.87,0,0,0,9.55-1.49c.46-.16.7-.06.53.86-1.91,4.17-6.32,4.75-12.27,3.1,1.61,1.13,4.19,2,9.14,2,.54-.1.7.25.46,1.07-3.16,3.39-7.32,2.67-12.1-.6,2.36,3.11,8.56,3.37,9.1,4.7-3.83,3.35-8.67,1.83-12.35-3.12,1.31,2.65,3.32,5,7.83,6.48-1.15,1.63-3.62,1.71-5.25.89-2-1-4-2.87-5.52-6.39.44,2.63,1.82,5.52,5.52,9l-.91.1a13.75,13.75,0,0,0,2.18,2.54,7.05,7.05,0,0,1-3.18-.13c1.41,1.44,1.8,2.75,4.12,4.4a1.21,1.21,0,0,0,1.14,0,6.45,6.45,0,0,0,2.74-4c1-1.5,2.27-1.32,3.6-.49,2,.06,2.68,1,2.21,2.43a2.74,2.74,0,0,0-1.88-.73,1.83,1.83,0,0,1-2.25,1,1.19,1.19,0,0,1-.87,1.05l-1.64,1.32a13.4,13.4,0,0,0,3.18-.61c1.84-.77,3.2-.12,3.19,1.79a2.26,2.26,0,0,1-.1,3.44,3.21,3.21,0,0,0-1-2,1.69,1.69,0,0,1-2.54-.84c-1,0-2.21-.45-3.16-.16a5.24,5.24,0,0,0,3.06,1.51,2.24,2.24,0,0,1,1.07,2.78,2.5,2.5,0,0,1-1.78,2.75,2.08,2.08,0,0,0,0-1.94,2.55,2.55,0,0,1-1.94-2.38l-1.61-1.41c-.54-.41-.6-.5-1.44-.27-.84.79-2,.15-2.52,2.38a3,3,0,0,0,1.31,1.85c-1.37.62-2.3,0-2.82-1.75a1.74,1.74,0,0,1-.47-3.2c.72-.54,1.84-.3,3.28-.51L108,65.77c-.16.29,0,.88.36,1.61-3.13.19-2.8-2.28-3.25-3.66a6.39,6.39,0,0,0-.33,2.28,3.57,3.57,0,0,1-2-2.28,2.14,2.14,0,0,1-1.74,1.44c.9-1.74-.55-3.14-1.28-4.26-.27,2.36.47,2.18,1,3.33a.9.9,0,0,1-1.16.33c.16,2.52,2.83,3.45,3,.57,1.68,2.17,1.68,4-1.31,5.06,1.53,2.47,4.46,1.31,4.66-1.64,2.63,2.12,1.13,5.78-1.3,6.71-1.85.7-3.55-.72-5.34-2.9-.12,3.64-1.22,4.1-2.26,6.25-1-2.21-2.13-2.79-2.25-6.43-1.33,2.45-3.48,4-5.33,3.26a4.52,4.52,0,0,1-1.67-7c.21,2.95,2.89,5,4.75,1.79-3.14-.38-3.2-2.68-1.52-4.85-.2,3.12,3.31,1.83,3.48-.69a1.13,1.13,0,0,1-1.31-.42c.73-.94,1.6-1.42,1.14-3.51a4.44,4.44,0,0,0-1.33,4.54,2.33,2.33,0,0,1-1.69-2A4.52,4.52,0,0,1,88.86,66c0-.91.57-.7.21-2.12-.32,1.37-.94,3.78-4.07,3.59.64-.88,1.28-1.53.94-1.73l-3.32,2.16c-.76.59-.55.78-.19.94.83.33,1.47.15,2.23.63a1.67,1.67,0,0,1-.45,3.15c-.79,1.64-1.87,1.76-2.87,1.32a2.73,2.73,0,0,0,1.27-1.76c-.87-.63-.45-1.34-.73-1.6s-.86-.37-1.35-.84A1.34,1.34,0,0,0,79,70.1a1.65,1.65,0,0,1-.81.72,2.7,2.7,0,0,1-.77,1c-.18,1.17-.51,1.92-1.91,2-.36.57,0,.84.27,1.55-1.72.16-2.42-1-2.11-2.54a1.85,1.85,0,0,1,1-2.55c1.71-.13,2.18-1.46,3-1.74a6.51,6.51,0,0,0-3.1.07c-.46,1.15-1.17,1.8-2.81.84a3.39,3.39,0,0,0-1,2.07c-1.37-1.84-1.28-3,.08-3.9A2.08,2.08,0,0,1,74,66.33a6.57,6.57,0,0,0,2.9.51l-1.18-1.1c-.57-.19-.77-.12-.84-.59-1.13.38-2-.63-2.46-1.32-.62-.24-1.07.24-1.82.76A2.06,2.06,0,0,1,73.1,62c1.43-.72,3.7-.31,3.87,1.79a3.79,3.79,0,0,0,1.68,2.66,2.77,2.77,0,0,0,1.75,0c2.32-1.66,1.95-2,3.37-3.47-1.25-.21-1.9.2-2.7-.74a5,5,0,0,0,3-2.57,2,2,0,0,1-1.34-.34,4.18,4.18,0,0,0,2.42-1.61l-1.07-.18c2.77-1.91,2.67-3.29,3.69-5-1.94,3-2.86,3.14-4.82,4.18-1.62.86-4.13,1.28-5.6-.75a11.53,11.53,0,0,0,7.45-5.53c.16-.28.07-.66.21-.95-1.8,4.64-9.46,6.65-12,3.12,0-1.23,5.36-.52,9.15-4.65-4.79,3.27-9.66,4.27-12.67.68-.23-.81-.06-1.24.49-1.14,4.94-.06,7.61-.5,9.23-1.63-4.83,2-11.35.53-12.25-3.23-.16-.92.06-1,.53-.86a26.62,26.62,0,0,0,10.32,1.49l0-.12a21.72,21.72,0,0,1-8.32-1.52,8.09,8.09,0,0,1-4.58-5c-.31-.86.08-1,.52-.77a32.07,32.07,0,0,0,5,2.46,18.11,18.11,0,0,0,7.55,1.05,28.94,28.94,0,0,1-7.87-1.57C66.72,36.39,64,34.5,64,31c-.09-.65.2-1,.67-.71,5.93,4.09,9.64,5.31,13.25,5.9l-.3-.32C66.33,32.92,62,28.32,63.19,23.49c.23-.5.53-.53.89-.18.8.94,1.86,1.64,2.88,2.63,2.38,2.3,5.59,4.22,10.68,6.4l-.38-.58c-4.42-2-7.44-3.67-9.59-5.88-2.72-2.78-3.26-5.24-3.1-6.82,0-.9.4-1,1-.73C69,23,72.34,25,76.66,27.65c0-.46.7-.21,1.08.1,2,2,2.6,2.68,5.45,3.24a5.29,5.29,0,0,1,2.23,1.42c1.82,2.2,3.12,4.43,1,5.3-.45.19-1,.21-1.07.76-.24,2.08,1.4,4.29,5.34,5.62a.66.66,0,0,0,.37-.6l-.64.11a14.8,14.8,0,0,1,2.28-5c-.24-.38-.61-.12-.91-.33.71-.86.43-1.33,1.74-2.62,1.74-1.75,1.66-3.46-.51-4.67-1.71,1.13-2.68-1-4-1.55-1.49,1.3-2.79.8-4.12-1.79a3.41,3.41,0,0,0,2.61,1.11,4.52,4.52,0,0,0,1.94-.93c-1.33-.34-1.17.54-1.75.82a2.36,2.36,0,0,1,0-3.27c.68-.56,2.33-.7,4.29,0a1.2,1.2,0,0,1,.44-.59l-.19-1.51A5.57,5.57,0,0,0,90.58,20c.44-.56.92-.53,1.55-.15a1.09,1.09,0,0,1,1.78.15c0-1.28.82-1.71,1.74-1.41A3,3,0,0,1,96.4,17a2.3,2.3,0,0,1,.66,1.51,1.26,1.26,0,0,1,1.78,1.18c.72-.57,1.17-.55,1.61.11.84-.52,1.51-.56,1.91.1a5.2,5.2,0,0,0-1.82,3.24l-.18,1.26,1.13-.05a2.45,2.45,0,0,1-1.24,1.93Zm-1.08-5.2c.59-.14.67.57.12.77A.91.91,0,0,0,99.18,21.06Zm-1.53-.78c-.44.19-.64.58-.21,1.1a.93.93,0,0,1,.36-.7l-.18,0,0-.37Zm-2.75.41c.23-.49,1,0,.48.79C95.31,21.06,95.14,20.64,94.9,20.69ZM93.51,21c-.86-.14-.56,1.37.33,1.15-.44-.34-.6-.66-.33-1.15"/><path id="path172" class="cls-15" d="M96.75,139.91c1.31-.59,1.84-3.61,1.42-5.35s-2.46-2.95-2.56-4.84c.07-.36.39-.41.53,0,.13,2,3.34,2.27,5.26,3.34,1.53.85,2.31,2.8,0,4.92,3.17-1.33,4.94-4,2-7.28-2.06-1.84-5.59-3-6.17-5.54-.74-4.56.37-7.46,2.41-9.52a31.43,31.43,0,0,1,4.67-3.19c.84-1.37-.19-1.56-1.3-.48-.63,1.56-1.92,2.44-4.47,2.15-2.88,1-5,2.92-8.63,3.17a1.79,1.79,0,0,1-1.31.76c-.11,4-2.94,5.08-2.75,7.58l1.06,0-.74-1.36,1.62.85.73-2.3.85,2.25,2.14-.31-1.52,1.37,1.66,1.3-2-.31.26,1.68-1.69-1.53-1.26,1.13.18-1.46-1.29.08c.5.84.14,1.35.21,2a6.65,6.65,0,0,0,.46,1.69c.58,2.29,2.43,3.87,4.71,5.17a10.16,10.16,0,0,1-.46-7.48c.07-.31.28-.31.32,0,.14,2.39.76,4.33,2.24,5.48a5.17,5.17,0,0,1,3.3,5.93"/><path id="path174" class="cls-15" d="M92.63,29.1c-3.5-2.74-3.51,1.16-6.87-.46,2.43,2.52,2.58-.17,4.76-.16.56,0,1.24.61,2.11.62"/><path id="path176" class="cls-14" d="M82.93,72.54a.74.74,0,0,1,1,.17c-.66.9-1.21,1.25-1.83,1.07.51-.46.85-.66.85-1.24Zm-7.7,1.3A2,2,0,0,1,74,73.08a1.75,1.75,0,0,0,1.3,2.1c-.24-.66-.35-1-.06-1.34Zm-4.55-3.13c.11-.76.58-1,.86-1.46-.05-.35-.23-.94-.56-1.06-1,.36-1,1.48-.3,2.52ZM71,64a1.68,1.68,0,0,1,1.87-1.69,1.59,1.59,0,0,1-.3,1.2A1.64,1.64,0,0,0,71,64Zm40,8.28a.74.74,0,0,0-1,.17c.55,1.11,1.29,1.57,1.83,1.23-.5-.47-.85-.83-.85-1.4Zm8,1.27c.37-.42.68-.56.94-.43a1.74,1.74,0,0,1-.8,1.86C119.23,74.34,119.25,73.93,119,73.58ZM123.15,71a3.53,3.53,0,0,0-.67-1.55.85.85,0,0,1,.54-.74C123.56,69.11,123.84,69.91,123.15,71Zm.06-7.12a1.68,1.68,0,0,0-1.89-1.66c-.32.19-.26.57.09,1.05a2.15,2.15,0,0,1,1.8.61ZM92.56,23.33a13.05,13.05,0,0,1,7.61-.11l-.1,1.14c-2.47.13-4.87-1.07-7.4.07ZM93,29.42c-.38,3.44-2.51.3-3.56-.21C90.68,28.11,91.75,29.94,93,29.42Zm-.26-.84a3.65,3.65,0,0,0-.26-1.71c-.5-.22-.57-.62-.54-1.21-3-1-5.09-.2-4.13,2.28,1.95-1.64,4,.55,4.93.64ZM91,19.85c.51-.08,1-.07,1.2.55.43-1,1.65-.76,1.58.31-1-.26-1.48.87-.5,1.7a.94.94,0,0,0,1.23-.34.64.64,0,0,1-.37-1.23c.67-.24,1.23.49.63,1.14,1.18.4,1-.62,1-1,0-.76-.78-1.51-1.13-.49-1.14-1.07.29-2.42,1.27-1.26a1.89,1.89,0,0,1,.49-1.63,1.6,1.6,0,0,1,.38,1.59c.93-1.24,2.58.55,1.25,1.27-.36-1.37-1.29-.08-1.22.48,0,.27,0,1.76,1.26,1.13-.66-.47-.35-1.35.42-1.16S99.11,22,98.33,22a.55.55,0,0,0,.72.39c.66,0,1.82-2.2-.16-1.68-.15-1.27,1.15-1.46,1.59-.42.22-.62,1-.61,1.45-.53a7.09,7.09,0,0,0-1.8,3.21L99,22.72h0a16,16,0,0,0-5.47,0l-1,.33A7,7,0,0,0,91,19.85"/><path id="path178" class="cls-19" d="M76.5,29.17a3.39,3.39,0,0,1-.18-1.12c-4.44-2.71-8.16-5.46-11-9.44-.38-.27-.56.67-.37,1.91.45,3.18,5.07,7.91,12.38,10.88a3.53,3.53,0,0,1-.73-1.75c-4.93-2.67-5.94-3.12-7.95-5.43-.15-.21,0-.25.2-.08,2.89,2.63,3.89,2.81,7.63,5ZM77,32.44a28.77,28.77,0,0,1-13-8.86c-.83-.06-.48,1.36-.47,2,.1,4.37,7.08,8.31,14.69,10.11L76.65,34c-7.31-3.39-8.35-4.12-9.67-5.94,3.26,2.7,6.27,3.83,9.61,5.27a1.18,1.18,0,0,1-.27-.69c.28-.18.37-.28.64-.23Zm1,4A26,26,0,0,1,64.6,30.67c-1.65,4,6.62,8.66,14.51,8.46a6,6,0,0,1-2-1.49,15.7,15.7,0,0,1-9.09-3c-.25-.21-.12-.39.16-.16a16.61,16.61,0,0,0,8.84,2.78l-.17-.3c.55-.23.53-.43,1.08-.51Zm-.38,3.43a20.32,20.32,0,0,1-12.32-3.7c.31,2.32,2.46,4.51,5.94,5.71a22.33,22.33,0,0,0,7,1,3.08,3.08,0,0,1,1-1l-1.12-.16c-2.56,0-5,.14-8.2-1.71-.42-.27-.2-.31,0-.2a16.61,16.61,0,0,0,7.94,1.67,4.65,4.65,0,0,1-1-.7c.44-.38.41-.66.71-.89Zm7.15,9.72c-2.34,4.78-9.36,5.68-11.18,3,1.38-.61,5.15-.89,8.49-4a3.14,3.14,0,0,0-.11,1.59c-1.87,1.6-2.54,1.54-4.82,2.46-.28.08-.14.22.32.16,1-.47,2.52-.23,4.58-2.22.56.42,2-.65,2.71-1Zm-2.26-2.17A14.06,14.06,0,0,1,74,50.59c-2.09,0-4.07-1.38-4.25-2.68,3.16,0,6.52-.1,9.16-1.31a.88.88,0,0,0,.24,1c-1.48,1-2.84,1-5.46,1.21-.25.07-.19.19.19.23,2.57-.11,3.75-.11,5.87-1.27A5.83,5.83,0,0,0,82.48,47.44ZM77.73,43.7c-.21.49.66.69,1.08,1.06-1.64.41-4.5.18-7.52-.51-.37-.19-.46,0-.06.33a20.09,20.09,0,0,0,7.89.46l.84.06c-2.71,2.37-11.66,1.74-12.64-2.93a22.86,22.86,0,0,0,10.41,1.52ZM91,53.49A2.11,2.11,0,0,0,92,52.29l-.78.21c0-2.21-.84-2.22-.61-4.37-1.14.38-.79,3-1.7,3.14.83-1.86.33-2.23,1.51-3.7l-.08-.26c-.73.64-1.43.27-2.44.33-.25.9-.39,1.47-1.09,1.79.57-.61.51-1.09.74-2-.16-.22.1-1.16,0-1.5a6.82,6.82,0,0,1-2.12.35,5.63,5.63,0,0,1-1.63,1.81A6.34,6.34,0,0,0,85.11,46c-.39-.52-.29-1.37-.47-2l-.46,0a3.17,3.17,0,0,1-2.38,1.57,6.33,6.33,0,0,0,2-1.67c-1.23-.38-1.2-.35-1.29-1.22a5,5,0,0,1-2.38.36,7.05,7.05,0,0,0,2.12-.79c0-.37.61-.69,1-1.28a1.42,1.42,0,0,1-1.22-.91,8,8,0,0,1-2.31.26,10.11,10.11,0,0,0,2-.58c-.28-.72.11-1.07.6-1.59a7.54,7.54,0,0,1-3.12-.47,19.41,19.41,0,0,0,3.34.14c-1.26-1.1-1.07-1.3-.85-2-1.27-.6-1.89-.4-2.57-1.33.73.32,2,.5,3,.95a1.55,1.55,0,0,1,.93-.6,3,3,0,0,1-.81-1.94c-1.29-.89-3-1.42-3.5-2.7a21.1,21.1,0,0,0,3.56,2.26c.16-.53,1.23-.69,1.63-.58l.17-.13c-2.24-1-2.6-.53-3.46-1-1.6-.92-2.3-2.2-3.61-3,0,2,.19,3.05,1.39,4.2.87.83,2.1,1.13,2.87,2-1-.16-2.82-1.27-4.43-1.07.2,2.28,2,2.54,3.69,3.8-1.4-.24-2.85-.18-3.2.4.81,2,2.19,1.51,3.58,2-1.42.2-2.84,0-3.22,1.57,1.55,1.73,2.5.41,3.59.71-1.28.28-2.84.84-3.16,2.4,2.1,1.66,2.33.18,3.69,0-.33.27-.85.63-1.35,1.07a2.56,2.56,0,0,0-1,2.38,3.73,3.73,0,0,0,4-.72c-.26,1.15-1.71,1.55-1.15,3.75,1.24.14,2.66-1.57,3.59-2.08,0,1.07-.8,1.62-.29,3.53.88.2,2.23-1,3-2.21.53.19-1.17,1.84.11,3.14,1.18-.14,1.07-1.19,1.62-1.75A3.53,3.53,0,0,0,91,53.49ZM84.4,32.06c.39,0,.28,0,.67.51.66.82.51,1.53,1.43,2.64s.61,2.07-.57,2.37c-.51.07-.84.23-1.05,1-.16,3.16,2.56,5,5.64,5.76.31,0-.08,1,0,2.28-.43,1.31-1.57.53-2.36.8-.49-.86.21-1.8,0-2.17-.55.23-1,1.06-2.63.62-.72-.81-.37-1.38-.29-2-2.79-.07-2.9-1.47-1.41-3-1.45-.24-2.6-1.92-.24-2.64-2.25-1.64-2-2.38.38-3.05-1.08-1.53-2-2.84-.79-2.95.67,0,1.06,0,1.29-.14Zm5.4,13.27c0-.09-.44-.35-.52-.22L89,46.19c-.14.29,0,.42.22.15Zm-2.6-1.15c0-.25-.19-.41-.31-.28l-.68.83c-.12.26,0,.34.14.2l.85-.75Zm-2.07-2.06c.18-.14.15-.47-.06-.38a2,2,0,0,1-.89.4c-.32,0-.36.25,0,.28a2,2,0,0,0,1-.3Zm-.82-2.58c.23-.08.28-.33,0-.31l-1,.08c-.32,0-.42.13-.1.27l1,0Zm-.69-3.27c-.24,0-.4.17-.19.26a1.22,1.22,0,0,1,1,.39c.29.12.46,0,.23-.23A1,1,0,0,0,83.62,36.27ZM85.38,35c.21.09.43-.06.24-.2a1.59,1.59,0,0,1-.75-.59c-.25-.2-.36-.21-.22.11A2,2,0,0,0,85.38,35Zm2.56,15.81c-.26,4.31-7.76,8.1-9.92,5.46,2.76-.41,5.55-2.87,7.12-5.84,0,.4-.15,1.81.29,1.78-.8,1.63-1.93,2.32-3.93,3.44-.25.21-.15.25.28.11,1.8-.9,2.68-1,4-3.39.64-.08,1.81-1.25,2.14-1.56Zm-3.81,8.4c2.77-2.05,3.56-4.64,6.65-4.22,1.37.19,3.34,1.55,3.13,5.41l.56-.2v.2c-1.12.72-1.81,2-1.87,4.18-1.43-1-.34-3.5-.51-5.25-.78,1.93.15,3.18-2.33,5.79-.27-1.75-1-2.78.67-6.12-.69.58-1.43.71-2.07,1.73a5.51,5.51,0,0,1-.12-3.15c-1.11.66-2.2,2.23-4.11,1.63Zm8.8-4.55-.42.74a3.66,3.66,0,0,1,.89,1c-.17-.51-.11-1.47-.47-1.77Zm-1.68.07,0-.84a3.43,3.43,0,0,0,1-1.54l.61,1.87-.61,1.09a3.33,3.33,0,0,0-1-.58Zm-5,1.49a12.19,12.19,0,0,0,1.75-3.54.74.74,0,0,0,.65.55,3.2,3.2,0,0,0,1.14-1A5.32,5.32,0,0,1,89,54c-.08.26.15.31.37.21l.82-1.51A2,2,0,0,0,91,53.8c0,.27.24.78-.16.82a6.16,6.16,0,0,0-4.51,1.56Zm-.4,5.27c-1.78,1.32-2.49,3-4,4.52-1.18.68-2.06,1.35-3,.87a3.86,3.86,0,0,1-2.26-3c-.09-1.78-2.41-2.1-3.36-1.47a3,3,0,0,1-.41,1.34c.35.67,1.6,1.91,2.36.5.36-.09.54,0,.44.25-.73.41-.56,1.22.56.66,0,.32-.33.39.11.77l.48-.09c0,.26-.21.21.11.62h.78c-.57.71.71.47.48,1l-1-.32a7,7,0,0,1-2.89-.36c-2-.88-2.65,0-3,1.09a2,2,0,0,1,.5,1.29c1.51.8,2.14.27,2.39-1.06.5-.17.13.4.58.26s.4-.38.59-.55c.39.07,0,.3.17.48.22-.14.58,0,.64-.47.39-.1.16.49.52.38s.41-.18.58-.39c.26.43.54.69,1.57.13.26.23-.5.71-1.14,1.06l-1.86,1.43c-1.63,0-2.15,1-1.76,2.36a1.7,1.7,0,0,0,1.39.79c1.8-.23,1.5-1.87,1.36-2.42,0-.29.28-.38.34-.17s.18.44.34.22L77.73,70c.24,0,.18.69.52.44s.18-.74.22-.94c.27,0,.13.57.6.28s.21-.47.34-.69l.46.38c.32,0,.27-.41.36-.55.68.1.12.74.89.84.27,0,.26-.35.39-.52l.42.7c.48,0,0-.64.46-.33l-.12.86a1.6,1.6,0,0,0,.84,1.61,3.14,3.14,0,0,1,1.17.28c1.61-.71,1.06-2.54-.43-3-2.73-.16-2.38-1.06-1.54-1.5.37-.42,0-.79.28-1.18,0,.33.28.2.39.58.33-.47.36-.43.28-1,.5-.14.24.8.69.49s.1-.49.29-.66c.15,0,.21.38.46.08.43-.31.11-.53.16-.79.21,0,.29.49.61.14.33-.12,0-.43,0-.65l.44.33c0-1.43-.79-1.76-.06-3.71Zm-3.73.78a4.21,4.21,0,0,0,2.17-2.5,5.09,5.09,0,0,0,3.26-1.26,5.65,5.65,0,0,0,.73,3.17,2.73,2.73,0,0,1,1.47-1.88c-.9,1.84-.61,2.42-.89,3.72-.37,1.78-1.06,3.4-3.17,3.67,1.56-2.08-.91-4.19,1.07-6.86-1.68.53-2.33,3.35-4.65,1.94ZM92.55,38c.35-1.33,1.39-1.83,1.87-2.68,1.14-2,1.26-3.72-1.18-4.63a3.67,3.67,0,0,0-.13-2,4.25,4.25,0,0,0-.8-2.64c.07-1.22,1.12-1.74,2.82-1.78a51.83,51.83,0,0,0,5.8.54c-.27,1.33-1.2,1-1.85,1.41,2.53.92,1.41,2.73,2.37,4.09a3.39,3.39,0,0,1-2.3-1.86c-.32.14.06,1.32-.33,1.83-.29.11-.76-.53-1.11-.76a1.29,1.29,0,0,1-.52,1.37c.43.13.71-.14.86-.82.25.45.46.46.9.61.46-.79.25-1,.34-1.54A3.61,3.61,0,0,0,101,30.72c.75,1.45.48,2.15.71,3.23a3,3,0,0,1-2-1.72,3.63,3.63,0,0,0,1.75,2.37c.76,1.26-.11,2.76.86,3.78-2.28-.27-2.69-1.05-3.57-2.34-.54,1.17-.46,2.78-1.61,3.5-.71-.36-1.17-1.54-1.51-3.08-.91,1.29-1.92,1.92-3.09,1.57ZM94,26.39a1.1,1.1,0,0,1,.06.79c.3-.19.47-.07,1-.34A1.42,1.42,0,0,0,94,26.39Zm2,.84a3.26,3.26,0,0,0-2.79-1.31c-.18.11.05.36.32.38-.23.47-.27.7.07.85s-.07.4-.1.6c.83-.17,1.25-1.07,2.49-.52Zm-5,16a9.43,9.43,0,0,1,2.2-4.67,4.17,4.17,0,0,0,2.25-1.41,6.11,6.11,0,0,0,1.62,3.13c1.29-.91,1.34-2.23,1.82-3.51a4.14,4.14,0,0,0,2.33,1.75c.9,1.14,1.38,1.72,1.41,4.33-1.4-.16-2.39-1.38-3.33-2.75a7.85,7.85,0,0,1-2.3,3.81c-1.24-.67-1.87-2.06-2.36-3.61-1.21,1-1.61,2.55-3.64,2.92Zm-.22,4.23a6.24,6.24,0,0,1,.65-3.92,7.38,7.38,0,0,0,3.09-2.64,7.53,7.53,0,0,0,2.31,3.74,7.4,7.4,0,0,0,2.57-4,4.93,4.93,0,0,0,2.82,2.75,2.78,2.78,0,0,0,.62,1.07,20.79,20.79,0,0,1,0,3.15c-1.6-.27-2.5-1.61-3.3-3.09a10.67,10.67,0,0,1-2.43,3,5.6,5.6,0,0,1-2.79-3.37c-1.16,1.1-1.39,2.93-3.5,3.3Zm2.75,8.24-1-3.88.83-1.75c.5.8.37,1.45,1.51,2.41,1.12-.75,1.45-1.86,2-3.06.5,1.09,0,1.34,1.48,3.26,1.4-1.15,1.12-1.88,1.68-2.81A6.6,6.6,0,0,0,101.28,52a5.37,5.37,0,0,1-.42,3.46c-1-.6-1.19-1.55-1.79-2.33-.67.87-.66,2.06-2,2.61-1.39-.95-1.19-1.65-1.79-2.47-.56.81-.9,2.22-1.68,2.43ZM94,64.31c2-2.55.62-3.23.71-4.75l.84-1.42A7.37,7.37,0,0,0,97,61.24c1.43-1.75,1.12-2.19,1.68-3.24a6.69,6.69,0,0,0,1,1.78c-.39,1.36-.73,2.73.62,4.32a1.87,1.87,0,0,1-2-.87,5.07,5.07,0,0,1-1.16,3.07c-1.28-1.11-.64-2.07-1-3.07-.73.36-.76,1.54-2.2,1.08Zm.42-5.15a10.36,10.36,0,0,0-.62-3c1-.87,1-1.62,1.55-2.41.57.94.09,1,1.72,2.82a7.2,7.2,0,0,0,2.15-3c.4.71.35,1.42,1.29,2.12a9.84,9.84,0,0,0-.48,3.34c-1.2-.59-.9-1.17-1.34-1.76-.53,1-.8,2.63-1.58,2.86a5.2,5.2,0,0,1-1.48-2.68c-.4.56-.39,1.29-1.2,1.68ZM91.6,52c-.14-1.84-.83-2.26-.63-4.13a5.21,5.21,0,0,0,3.4-3.36,6,6,0,0,0,2.82,3.61A11,11,0,0,0,99.66,45,5.75,5.75,0,0,0,102,47.69a8.86,8.86,0,0,1-.31,4c-1.15-.5-1.19-1.68-1.78-2.51-.53.88-.84,2.25-1.58,2.64a8.29,8.29,0,0,1-1.54-3.15c-.4,1.16-1,2.81-1.86,3.05-.66.1-1.15-1.65-1.72-2.47-.54.91-.23,1.46-1.63,2.75Zm10.05,12.65c-.08-1.93-.48-3.44-1.71-4.46v-.43l.78.5c-.64-2.15-.06-2.83-.09-4.25l.52.43.41-.62c2.11-1.62,4.1-1.26,6,.23a38.17,38.17,0,0,1,3,3.18c-3,.15-3.55-1.6-5.3-2.63.17,1.17,1,1.22.53,3.53-1-.39-1.34-1-3-1.17,2.72,1.41,2.41,2.93,2,4.77a3.81,3.81,0,0,0-.4,1.46c-2.34-2-1.16-3.38-1.74-5-.56.84.59,3.65-.92,4.45ZM108,56a9.24,9.24,0,0,1-2.33-5.08c-.22.42-.25,1.13-.72,1.33-.08.61.46,1.22.64,1.83-.52-.21-.73-1.24-1.09-1.86A8.22,8.22,0,0,1,102.76,51l1.15,3.53A5.77,5.77,0,0,1,108,56Zm-5.51-8.06a4,4,0,0,1,1.14.48,3.1,3.1,0,0,1-.31-1.62l.59.73a7.44,7.44,0,0,0,.49,2.4l0-2.25a3.35,3.35,0,0,0,1.29.57,1.93,1.93,0,0,0,.71-.64,2.68,2.68,0,0,0,1.42,1.83,5.28,5.28,0,0,1-1.18-2.28,1.77,1.77,0,0,0,.33-.83,4.9,4.9,0,0,0,1.75.34c.3.73,1.16,1,1.75,1.55-.52-.66-1.28-1.11-1.57-2a5.08,5.08,0,0,0,.53-1.75l.67,0a3.78,3.78,0,0,0,2.69,1.59c-.79-.58-1.65-.77-2.35-1.73,1.23-.38,1.24-.48,1.45-1.72a8.26,8.26,0,0,0,3,.44,13.2,13.2,0,0,1-3-.85,2.6,2.6,0,0,0-.65-1.45,1.38,1.38,0,0,0,.79-.49,11.31,11.31,0,0,0,2.66-.09,17.11,17.11,0,0,1-2.43-.31,3.72,3.72,0,0,0-.6-1.67,10.11,10.11,0,0,0,3.52-.87,21.39,21.39,0,0,1-3.21.53,2.66,2.66,0,0,0,.59-2.44c1.27-.6,2.3-.86,3-1.79-.63.28-1.21.65-1.84.93s-1,.36-1.52.58a1.34,1.34,0,0,0-.87-.53,3.31,3.31,0,0,0,.85-2c1.28-.9,2.75-1.24,3.28-2.52-1.24,1.18-2.16,1.31-3.24,2.05-.25-.49-.56-.69-1-.58l-.36-.24c2.59-.34,4-2.41,6-3.63.68,2.24-.77,3.95-2.51,5.51,1-.16,1.45-.68,3-.48-.34,1.26-1.85,2.52-3.54,3.78a5.49,5.49,0,0,1,3.91,0c-.08,1-2.5,1.76-3.83,2.36,1,.53,2.63,0,3,1.59-.61.79-2.17.59-3.25.89a3.51,3.51,0,0,1,2.8,2.12c-.66.82-1.87,1-3.33,1,.85.71,1.64,1.56,1.25,2.64a3.25,3.25,0,0,1-3.7-.81c.26,1.16,1.33,1.26.78,3.46-2.68.16-2.44-1-3.3-2,0,1.07.51,1.31,0,3.22-1.1.43-2.28-.78-2.52-2.36-.54.19.19,2.13-.77,3.13-1.46-.2-2.3-2.16-2.48-3.83Zm1,6.69L102.3,51a6.38,6.38,0,0,0-.13,1.95l-.44-.18a9.48,9.48,0,0,0,.42,2.12,1.18,1.18,0,0,1-.63-.51,2.85,2.85,0,0,0-.11,1.21,6.28,6.28,0,0,1,2.09-.93ZM96.3,33c.43.71.45,1.82,1.3,2.14.81-.16.72-1.47,1.09-2.21a2.79,2.79,0,0,1-1.16,2.93A3,3,0,0,1,96.31,33Zm14.18-1.65a1.51,1.51,0,0,0-1.17.65,16.52,16.52,0,0,1-2.26,3c-.66,1.35-.6,2.57.82,2.41a1,1,0,0,1,1.2.86c.07,4.33-2.69,5.4-5.77,6.11a3,3,0,0,0,2.27,3.33c.88-.54.93-1.49,1.23-2.23.55.22.19.83,1.65.68A3.3,3.3,0,0,0,108.9,44c2.44.42,3.21-.63,2-3.47,1.48-.4,1-1.13.24-2.47q2.25-2.12-.36-3.43c1.07-1.53,1.62-2.61.39-2.72-.67,0-.46-.34-.69-.51Zm-5.75,13.92c0-.09.31-.29.39-.16l0,.92c.13.3,0,.42-.23.15ZM107,44c0-.25.19-.4.31-.28l.39,1c.12.26,0,.34-.14.2L107,44Zm2.31-1.62c-.16-.17-.08-.49.12-.37l.81.55c.3.11.31.31,0,.28Zm.74-2.8c-.23-.08-.28-.33,0-.31l1,.08c.32,0,.42.13.1.27Zm0-2.43c-.22.08-.42-.09-.23-.22a1.85,1.85,0,0,0,.89-.57c.27-.17.38-.17.21.13a2.24,2.24,0,0,1-.87.66ZM108.75,35c-.21.09-.43-.06-.25-.2a2.36,2.36,0,0,0,1-.71c.25-.19.36-.2.22.11A2.86,2.86,0,0,1,108.75,35Zm3.73,12.68c3.79,3.23,9.79,3.74,11.51.23-3.16-.16-6.38-.37-9-1.57,0,.33.17.7-.13,1,1.49,1,4.06,1.27,6.68,1.47.25.06.19.18-.19.22-2.57-.1-5.06-.29-7.18-1.44a4.22,4.22,0,0,1-1.66.08Zm4.67-4.38a3.48,3.48,0,0,1,.61.84,9.11,9.11,0,0,1-1.56.24c2,.86,4.89.55,7.52-.58.37-.19.46,0,.07.34a11.09,11.09,0,0,1-8,.52,3,3,0,0,1-1.43.13c3.74,2.1,11.24,1.76,12.22-2.91a18.81,18.81,0,0,1-9.42,1.41Zm0-3.57a22.19,22.19,0,0,0,11.55-3.61c-.66,3.23-5,5.79-12.09,6.57a3.47,3.47,0,0,0-1-1l.67-.18a13.65,13.65,0,0,0,8.51-2.26c.43-.27.2-.31,0-.2A18.85,18.85,0,0,1,117,41.11a2.3,2.3,0,0,0,.7-.46,1.49,1.49,0,0,0-.57-.91ZM117,35.91a22.38,22.38,0,0,0,12.31-5.56c.54,3.67-6.08,8.46-13.83,8.41a19.66,19.66,0,0,0,2.43-1.35,17.88,17.88,0,0,0,8.87-3.93c.25-.21.12-.38-.16-.16a19.76,19.76,0,0,1-8.22,3.6l.3-.61a4.56,4.56,0,0,0-1.7-.39Zm.31-3.55C123,30,126.6,26.84,130,23.55c1.47,4.92-4.74,8.81-13.69,11.61l.75-.78c7.31-3.38,9.38-5.39,10.7-7.21a43,43,0,0,1-10,6.45,2.93,2.93,0,0,0,.41-1.09,1.08,1.08,0,0,0-.82-.16Zm.21-3.09a3.33,3.33,0,0,0,.18-1.11,36.42,36.42,0,0,0,11-9.9c2.95,2.95-2.94,8.63-12.08,13.25a3.55,3.55,0,0,0,.74-1.75c5.09-2.5,8.48-5.32,10.28-7.84.15-.2,0-.25-.2-.08a38.82,38.82,0,0,1-10,7.44Zm-9.62,31.85c1.86,1.23,2.91,3.11,4.36,4.67.88.92,1.79,1.41,2.75.93a8.74,8.74,0,0,0,2.5-2.92c.52-2.21,1.72-2.34,3.09-1.89a2.79,2.79,0,0,0,.5,1.79c-.68.7-1.44,1-2.2.25-.36-.09-.43,0-.32.26.72.41.09,1-.82.89,0,.23.4.28.1.62l-1.13,0c0,.25.56.3.24.71h-1.2c.89.89-.78.79-.55,1.37l1.51-.68a9.46,9.46,0,0,0,2.82-.38c2.42-1.1,3.4.16,3.34,1.52a1.42,1.42,0,0,0-.86,1c-1.65.61-2.28-.08-2.53-1.41-.5-.17-.06.56-.5.41-.37,0-.38-.33-.57-.49-.39.07,0,.34-.12.53-.23-.15-.73,0-.79-.55-.39-.1,0,.56-.37.45a.85.85,0,0,1-.72-.35c-.26.44-.75.58-1.55.48-.26.24.87.41,1.31.62l2,1.27c1.63,0,2.24.92,1.86,2.3a2.21,2.21,0,0,0-1.44.78c-2.27-1-1.45-2.08-1.31-2.63,0-.29-.28-.38-.35-.17s-.17.44-.33.22l0-.64c-.25,0-.39.25-.74,0s-.08-.41-.12-.61c-.27,0-.34.34-.81,0s-.26-.44-.39-.66l-.55.54c-.32,0-.18-.27-.27-.4-.26.21,0,.54-.77.65l-.15-.31-.32.54-.37.06c-.47,0-.13-.7-.55-.4l.17.75a1.74,1.74,0,0,0-.74,1.58,2,2,0,0,0-1.32,0c-1.6-.7-.94-1.84,0-2.93.92,0,2.17-.42,2.78-.1.35.1.62-.07.82-.52-.27-.53-.77-.06-1.16-.44l.47-.45c-.66-.32-.8.29-1.37-.08-.28-.29.13-.4.2-.6l-1,.09-.33-.25c-.15-.25.54-.2.59-.56-.51-.14-.81.43-1.25.12l-.27-.24c.06-.28.58-.27.52-.67l-.87.4-.84-.31c0-1.42.73-2.32,0-4.28Zm0,5.84a5.37,5.37,0,0,1-.12-2.6,4.64,4.64,0,0,0-1.42-4.62,4.43,4.43,0,0,1-.27,1.55,1.85,1.85,0,0,0-1.21-1.09c1.4,2.7-.45,5.73,3,6.76Zm4-5.07-1.63-2.22a6.1,6.1,0,0,1-4.14-1.93,4.42,4.42,0,0,1,.17,1.53c1.74.81,2.3,2.83,5.6,2.62ZM106.75,51c2,5,6.12,7.25,9.39,5.22-2.69-.53-5.68-3-7.35-5.85-.11.34,0,1-.29,1.1a11.15,11.15,0,0,0,4.63,4.22c.24.2.15.24-.29.11a9.48,9.48,0,0,1-4.71-4.18,5.36,5.36,0,0,1-1.38-.62Zm3-1c2.94,4.49,9.6,4.82,10.86,2.6-1.65-1-5.25-1-8.44-3.92a2.94,2.94,0,0,1-.13,1.2c1.71,1.86,4,2.25,6.58,2.84.28.08.14.22-.33.16-2.3-.66-4.72-.37-6.67-2.76a5.48,5.48,0,0,1-1.87-.12ZM93.63,70c-2.66,3.28-4.82,3.34-5.89-.54-1.74,6,4.15,8.34,7.39,1.49.55,2,0,3.31,2.14,6.73,2.24-3.81,1.3-4.44,2-6.67,3.26,6.64,9.17,3.86,7.33-1.36-1.18,2.59-4,3.25-5.59.52a1.46,1.46,0,0,1-.84-.28,3.44,3.44,0,0,0,.72,2,3.35,3.35,0,0,1-1.26-2.37L99,68.73c-.42,1.38-.07,2.5-1.71,4L97.12,75l-.31-2.48a6.42,6.42,0,0,1-1.59-3.84l-.49.58A8.13,8.13,0,0,1,93.32,72l1.13-2.62a2.44,2.44,0,0,1-.82.6Zm-2.88-3.28c1.65,2.1,4,1.14,4.26-2a3.6,3.6,0,0,0,.89-.87,3.81,3.81,0,0,0,1,3A5.18,5.18,0,0,0,97.14,69a8.54,8.54,0,0,0,.09-2.15c1.07-.71,1-2.06,1.24-3a2,2,0,0,0,.9.81c.1,3.13,2.69,3.42,3.56,1.47,2,3.13-3.09,5.91-4,1.57l-.37.21a5.46,5.46,0,0,1-1.46,4.44,6.62,6.62,0,0,1-1.62-4.63l-.18-.19-.18.2c-.71,2-2.16,2.37-3.22,2.11a2,2,0,0,1-1.16-3"/><path id="path180" class="cls-14" d="M96.47,93.77a1,1,0,0,1-.55,0,1.25,1.25,0,0,0-.4.59c0,.13.26.16.39.05C96,94.06,96.32,94,96.47,93.77Zm.33,1.09.14-.82c-.15-.05-.28,0-.43-.12-.21.19-.18.6-.09.92a.22.22,0,0,0,.38,0Zm.59.46,0-1.07a.43.43,0,0,0-.31-.18l-.15,1.09a.62.62,0,0,0,.51.16Zm.64,0-.36-.46,0,.49a.44.44,0,0,0,.4,0Zm-1.76-1.1a.44.44,0,0,0-.32.42l.3.1a4.43,4.43,0,0,0,0-.52"/><path id="path182" class="cls-19" d="M103.39,100.22l.59,1.65-1.47.59.41,1.11,1.53-.57,1.06,2.88-1.43.55.39,1.25,1.51-.63.9,2.33,1.3-.4-1-2.45,1.56-.61-.44-1.1-1.53.67-1.14-3,1.58-.58-.45-1.07-1.67.63-.65-1.64-1.09.39ZM97.75,91.9l0,1.27c.29-.17,0-1.38.73-.37a.73.73,0,0,1,.88,0l.05-.42a1.53,1.53,0,0,1,1,.57c-1.51.37-1,1.85-2.12,2.32-.38-.4-.61-1-1.16-1.27a.54.54,0,0,0,0-.64c0,.78-.38.57-.6.29-.48,0-.82-.33-.34-.59l.72-.59,0-.54a1.27,1.27,0,0,1,.84,0ZM116.57,98a1.49,1.49,0,0,1-2.53.62c.83-.17,1.4-.48,1.39-1.09-.56.77-1.71,1.14-2.11.07a.58.58,0,0,0,.87-.23c-1,0-1.21-.87-1.54-1.45-.31-.41-.58-.38-.8.1a3.25,3.25,0,0,0-.81-2.18l-.18.75c-.25-1-1.08-1.31-1.33-2.29a2.27,2.27,0,0,0,0,1,4.63,4.63,0,0,0-1.83-2l-.1.51a4.36,4.36,0,0,0-3.49-2,1.06,1.06,0,0,0-.13-.59,3.52,3.52,0,0,1,2.57.13,2,2,0,0,0,2.55,0c0,.31-.3.61-.9.89a1.53,1.53,0,0,0,2.06-.13c.19.34-.11.58-.4.81a9.52,9.52,0,0,0,3-.31A3.29,3.29,0,0,1,111,91.9a7.69,7.69,0,0,0,2.72-.05c-.07.33-.44.63-1.1.9a1.84,1.84,0,0,0,1.49.3,1.77,1.77,0,0,0,1.24-1.77,1.08,1.08,0,0,1,.32,1.76,2.14,2.14,0,0,0,.65.08c.1.48-.26.67-1.07.57a2.85,2.85,0,0,0,2.45.56c-1.52-.57,0-2,.48-2a1.63,1.63,0,0,1,1.81,1.6c-.51.17-.86.08-1-.26-.26.28.09.47,0,.78-1,.61-1,1.3-.43,2-.33-2,1.57-3.18,3.05-1.12.87,1.2.63,3-.29,3.36,0-.31.21-.64,0-.92a1.72,1.72,0,0,1-.26.94c-.51.2-.35-.14-.52-.21-.08.38-.36.5-.77.45a2.29,2.29,0,0,0,.56-2c-.11-.22-.34-.26-.3,0,.14,1.34-.21,2.36-1.84,1.86a.44.44,0,0,0,.12-.36,1.1,1.1,0,0,0,.91-.29c.16-.19.07-.35-.09-.23a.85.85,0,0,1-.8.29c0-2.07-1.42-2.75-2.73-2-.33.26-.24.45.09.29,1.54-.88,2.49.41,2.25,2.15l-.31-.2c.13.26,0,.43-.5.5a1.92,1.92,0,0,0,0-.63c-.15.25-.13.66-.44.75l-.56,0a1.21,1.21,0,0,0,.55-1Zm-11.45-8.46c-.35,0-.32.08.07.17a14.35,14.35,0,0,1,8.55,6l-.09-.84c.73.25,1,.57,1.4.59s.69-.27,1-.73c-1.7.6-2.29,0-3.43-.87a3,3,0,0,1,1.45-.13c-.36-.16-1-.17-1.07-.47-.07.48-.24.33-.44.44-2.75-2.36-5.68-4-7.49-4.13"/><path id="path184" class="cls-20" d="M101.76,92.89c1.67-.27.26,2.07-.31.85-.76-1.48-2.72-2.29-4.78-2.17a1.71,1.71,0,0,1,.26-.63,4,4,0,0,1,1.5.5c.27.09.27-.2,0-.38a4.55,4.55,0,0,0-1.33-.39.47.47,0,0,1,.28-.35,5.6,5.6,0,0,1,1.74.67c.25.19.32-.07,0-.36A8.12,8.12,0,0,0,97.61,90a.3.3,0,0,1,.21-.28l1.35.75c.32.19.38,0,.1-.37l-1.15-.6c.66-.5,1.66.49,2.11.92l1.53,2.52ZM95.5,94.7c1.25,1.09,2.43,1.35,3.53.33.46-.43.33-1.4,1.46-2l.35.3A3.19,3.19,0,0,0,99.73,96c-2,1.07-3.26.9-4.15-.22L95.5,94.7Zm.24,1.78a4.74,4.74,0,0,0,4.15-.09,2.21,2.21,0,0,0,.61,1.14c-1,2.11-4.38,2-5.47-.14-.06-.58.47-.61.71-.91ZM95,98l.67.83-1.45,2.66-.9-.57A10.58,10.58,0,0,1,95,98Zm-1.4,1.57A9.69,9.69,0,0,1,91,97l-.32,1.08A27.16,27.16,0,0,0,93,100.51l.55-1Zm1-2.84a2.12,2.12,0,0,0,0,1.14L93.8,99.3A13.22,13.22,0,0,1,91,96.49a1.67,1.67,0,0,1,2-1.24,8.28,8.28,0,0,0,1.63,1.47Zm-2-2.21.08.25q-1.94-.12-2.37,2.82c-.26,0-1.11-.47-1.14-.78,1.25-1.89,2.36-2.35,3.43-2.29Zm-.38-.31,0-.3c-2.06-.09-2.21.64-3.45,1,.06.47-.26,1.13.18,1.41,1-.8,1.34-2.26,3.32-2.15Zm-2.45-.44-.22-3.42a.67.67,0,0,0-.75.36l.05,3.45C89,94.37,89.63,94.16,89.82,93.76Zm2.39-.38-.14-2.86a1.85,1.85,0,0,0-2-.25,18.21,18.21,0,0,0,.11,3.46,6.32,6.32,0,0,1,2-.34Zm-3.57-9.07a1.1,1.1,0,0,1,.37.06l-.06.32H88.8a.77.77,0,1,0,0,1.52,1,1,0,0,0,.57-.17l.11,0,.09.06a1.17,1.17,0,0,1-.93.44,1.13,1.13,0,1,1,0-2.26Zm1.3-.11c0-.48-.35-.7-.47-.27l-.28,1.25c0,.38.63.56.63.23Zm.86.24c0-.48-.35-.7-.47-.26L90,85.45c0,.39.79,0,.79-.36v-.65Zm.94-.72c0-.47-.56-.42-.68,0l.13.9c0,.39.55.58.55.25V83.72Zm.7.31c0-.47-.41-.69-.53-.26l0,1.19c0,.39.76.34.75,0Zm1.3-2.19a15.83,15.83,0,0,1,.5,6.51l1.28-.07a24.78,24.78,0,0,1-.42-6.56Zm1.71,3.55,20.17-1.14a4.19,4.19,0,0,1-1.39.71L95.51,86.14l-.06-.75Zm.06-1.06,17.7-.89a6.06,6.06,0,0,1,2.54.62L95.44,85l.07-.7Zm-2.83-.47c1.53-.17,1.25,1.85,1,2.7a2.2,2.2,0,0,1-.93.83l-.28,2.88a4.46,4.46,0,0,0-4.17-.09l1.22-2.48a1,1,0,0,0,1.18-.46c-1,.47-1.28-.1-1.13-1.07a1,1,0,0,0,.78,0,1.16,1.16,0,0,0,1.11.91c-.27-.32-.77-.44-.8-1a.74.74,0,0,0,.38-.57.75.75,0,0,0,.7-.06c.46.33,1.19-.06,1.81,0,0-.43-.83-.67-.91-1.59Zm8.09,13.49c-1.09-1.63-.83-2.79.34-3.62.91,2,2.93-1,.75-1.2L100.3,89.8c2-.29,3.33.45,3.22,3.46a3.94,3.94,0,0,1-1.24,2.18,1,1,0,0,0-.13,1.24,1.87,1.87,0,0,0-1.38.67ZM100.6,99a1.85,1.85,0,0,1,3.52-.91C102.86,98.52,101.78,98.55,100.6,99Zm-.47-.24A3.86,3.86,0,0,1,96,99l-1.54,2.65,1,2.52c2.2,0,3.22,1.16,4.85,1.1,1.84-2.53-1.26-4.45-1.9-1.53L97.68,102c0-1,1.16-2,2.62-2.83l-.17-.38Zm2.7-8.88a1.77,1.77,0,0,1,.84-.63,1,1,0,0,1,.2.63,1.32,1.32,0,0,0-.7.38A1,1,0,0,0,102.83,89.91Zm-4.51,12.77-.34-.93c2-3.42,6.74-2.11,9.27-5.1,3.28,4.76,4.51,9.65,1.18,15.26a10.84,10.84,0,0,1-7.66-6.77c1.78-2.13-1.14-4.77-2.45-2.45Zm4.53-2.75.63,1.73-1.47.55.66,1.83,1.5-.61.84,2.23-1.47.59.72,2,1.51-.59.9,2.4,2-1-1-2.34,1.67-.62-1-1.81-1.49.6-.81-2.18,1.68-.69-.77-1.71-1.63.63-.66-1.61ZM84,125.53a19.92,19.92,0,0,0,1.82-7.85,2.27,2.27,0,0,1-1.06-.47,79.08,79.08,0,0,1-1.38,8l.62.35Zm1.41.3c.42-3.41,3-4.81,2.81-7.64a6.46,6.46,0,0,0-1.93-.34c-.41,5-1.25,5.46-1.83,8.11Zm3.5-8.22L84.7,115a2.7,2.7,0,0,0,.08,1.67C85.51,117.25,87.29,117.49,88.92,117.61Zm.21-.59-2.28-3.41c-1.16-.13-2.22.23-2,.75A11.71,11.71,0,0,0,89.13,117Zm-.32-1.25L89.7,117l.61-.16-.22-1.14-1.28.12Zm4-1a11.86,11.86,0,0,1-2.39.62l.32,1.12a8.81,8.81,0,0,0,2.17-.44l-.1-1.3Zm2.74-1.16c-.76.4-1.66.72-2.42,1l.15,1.29a12.57,12.57,0,0,0,2.19-.74,2.48,2.48,0,0,0,.08-1.59Zm3-1.74a12.73,12.73,0,0,1-2.47,1.57,4.33,4.33,0,0,1,0,1.47l2.22-1.14.29-1.9Zm-10.3,3.33c2.8-.24,5.27-.58,9.72-3.59-1.07-1.16-2.48-2.45-3.72-2.37-3.58,1.75-7.32,3.54-6.81,4.57l.8,1.39Zm15.14-4c-4.73,2.26-5.78-1.58-8.67-2.37l.34-.34a1.55,1.55,0,0,0,1.39,0,2.88,2.88,0,0,0,1.44-.38,1.28,1.28,0,0,0,.89.63l.73,1.37,1.13-.56,2.41.06a2,2,0,0,1,.34,1.58Zm-3.63-1.66a4.68,4.68,0,0,0,1.89-1.87,13.06,13.06,0,0,1-1.25-1.92,6.81,6.81,0,0,1-2.55-.77,7.66,7.66,0,0,0-2.71-.5c-.89.07-1.11.5-.62.85.76-.36,1-.21,1.19.19a1.65,1.65,0,0,0-1.85.7.35.35,0,0,0-.06.54c.21.06.42-.32.83-.39a4.39,4.39,0,0,0-.53.82c0,.26.1.35.43.27l.3-.44c.2-.15.31-.14.21.17l-.37.6.73.5a1.49,1.49,0,0,0,1-.16,2.64,2.64,0,0,0,1.24-.2,6.48,6.48,0,0,1,.4-1.69c.33.55-.26,1.61.35,1.89.47.13.26-.51.38-.77s.32-.11.32.16a2.92,2.92,0,0,0,0,1.14l.63.87ZM99,112a10.73,10.73,0,0,0,3.43.17c.06,1.21-2.11,1.63-3.67,1.39L99,112Zm2-2.83a6,6,0,0,0,.85-1.14,12.26,12.26,0,0,0,.92,1.07l-1.77.07ZM85.62,127l-1.16,0-.07.79a.94.94,0,0,0,1.23.15v-1Zm-2.2.15.14.58.52-.06.06-.61-.72.09Zm-.14-1.64.57.34-.2.32-.4,0-.23-.35Zm-4.43,3.87a.72.72,0,0,1-.75-.35A2,2,0,0,0,78,130a2.17,2.17,0,0,0,.82-.59Zm1.39-.9a2,2,0,0,1-.82-1.38l-.43.35c0,.65.28,1,.94,1.25Zm-.84.47c-.47-.41-.75-.47-.76-.95l-.25.37c0,.65.1.56.76.82Zm.94-2.56a1.09,1.09,0,0,0,.69.71,1.48,1.48,0,0,1-.49,1,1.29,1.29,0,0,1-.68-1.35Zm1.11-.43a2.22,2.22,0,0,1-.19.87.86.86,0,0,1-.51-.58,1.54,1.54,0,0,1,.7-.29"/><path id="path186" class="cls-14" d="M83.25,126.45l0,.42,4.4-.22-.25,1.13.93-.9L89.49,128l-.29-1.14,1.4.18-1.16-.82,1-.82-1.5.14-.34-1.67-.48,2-1.06-.63.63,1a21.15,21.15,0,0,0-4.45.23Zm-.91-1.84a.48.48,0,0,1,.5.48.5.5,0,1,1-.5-.48Zm.4,1.34.41,2.11c-1.07,0-1.53.41-2.37.45a9.64,9.64,0,0,0,1.06-2.59.78.78,0,0,0,.9,0Zm1.52-7.24a38.71,38.71,0,0,0-1.69,5.17l.19,0,1.33-3.34a7.73,7.73,0,0,1,.17-1.85"/><path id="path188" class="cls-14" d="M80.2,97.86a.67.67,0,1,1-.64.67A.66.66,0,0,1,80.2,97.86Zm-.93,1.08a.65.65,0,0,0,.42.57,24.24,24.24,0,0,1-4.18,3,1.12,1.12,0,0,0-.42-.66A41.51,41.51,0,0,0,79.27,98.94Zm1.85.09.37.15a3,3,0,0,0,.36,1.52,1.34,1.34,0,0,1-.59.81,4.47,4.47,0,0,0-.38-2.07,1.27,1.27,0,0,0,.24-.41Zm-.24-2.79.49.52a1.55,1.55,0,0,1-.31,1.41c-.15-.32-.33-.52-.54-.57.29-.21.24-.91.36-1.36Zm-3.5-1.08a7.68,7.68,0,0,1,2.67,2.39c-.32.1-.55.19-.65.41a8.57,8.57,0,0,0-2.81-2.22A1.1,1.1,0,0,1,77.38,95.16Zm-3,6.49a7.3,7.3,0,0,0-1.57-1.78c-.35.08-.36.47-.63.67A7.22,7.22,0,0,1,73.63,102a1,1,0,0,1,.73-.34Zm1.15,1.18a1.74,1.74,0,0,0,.74.57.86.86,0,0,1-.29.48,1.68,1.68,0,0,1-.63-.47,1,1,0,0,0,.18-.58"/><path id="path190" class="cls-14" d="M74.39,101.92a.8.8,0,1,1-.82.79A.81.81,0,0,1,74.39,101.92Zm0,.29a.51.51,0,1,1,0,1,.51.51,0,1,1,0-1"/><path id="path192" class="cls-14" d="M74.28,113.52c1.77-1.44,5.15-2,8.72-2.1a29,29,0,0,1,5.37.21l-.21.29a.44.44,0,0,0-.22-.07.34.34,0,0,0-.37.32.32.32,0,0,0,.18.28l-.14.19-.9.08c-4.93-.26-10,1.29-12.12,3.28a13.82,13.82,0,0,0-.3-2.48ZM86.1,111.8a.34.34,0,0,1,.33.34.34.34,0,1,1-.67,0A.34.34,0,0,1,86.1,111.8Zm-1.92-.16a.45.45,0,1,1-.38.45A.42.42,0,0,1,84.18,111.64Zm-1.9.13a.46.46,0,0,1,.45.46.45.45,0,1,1-.9,0A.46.46,0,0,1,82.28,111.77Zm-1.87,0c.25,0,.46.28.46.62s-.21.63-.46.63-.46-.28-.46-.63S80.15,111.8,80.41,111.8Zm-2,.35c.29,0,.52.34.52.77s-.23.77-.52.77-.51-.35-.51-.77S78.1,112.15,78.38,112.15Zm-1.75.59c.3,0,.55.34.56.77s-.23.79-.52.79-.55-.34-.56-.77S76.33,112.75,76.63,112.74Zm-1.57.75c.23,0,.42.36.42.79s-.19.79-.42.79-.42-.35-.42-.79.19-.79.42-.79"/><path id="path194" class="cls-19" d="M86.09,111.93a.2.2,0,0,1,.19.2.18.18,0,0,1-.19.19.19.19,0,0,1-.19-.19A.19.19,0,0,1,86.09,111.93Zm-1.89-.06a.24.24,0,0,1,0,.48.24.24,0,0,1,0-.48Zm-1.89.09a.29.29,0,0,1,.29.29.3.3,0,0,1-.29.3.3.3,0,0,1,0-.59Zm-1.91.12a.34.34,0,0,1,0,.68.33.33,0,0,1-.32-.34A.33.33,0,0,1,80.4,112.08Zm-2,.39c.17,0,.3.19.3.42s-.13.42-.3.42-.31-.19-.31-.42S78.19,112.47,78.36,112.47Zm-1.71.57c.17,0,.31.19.31.44s-.13.44-.29.45-.31-.19-.32-.44.13-.45.3-.45Zm-1.6.82c.15,0,.26.22.26.48s-.11.48-.26.48-.25-.21-.25-.48S74.91,113.86,75.05,113.86ZM88,112a.19.19,0,1,1,0,.37.19.19,0,1,1,0-.37"/><path id="path196" class="cls-14" d="M76.43,104.42a22.33,22.33,0,0,0,3.38,1.45c4.55,1.34,9.22,1,13.54.35l.05.85c-5.52,1.76-13.38,2.55-17-.14a5,5,0,0,0,0-2.51Zm1.36,1.34a.83.83,0,0,1,.74.78.64.64,0,0,1-.57.78.83.83,0,0,1-.74-.78A.64.64,0,0,1,77.79,105.76Zm2.13.85a.64.64,0,1,1-.64.64A.64.64,0,0,1,79.92,106.61Zm1.83.35a.64.64,0,0,1,.64.63.64.64,0,0,1-.64.64.64.64,0,1,1,0-1.27Zm1.94.24a.58.58,0,1,1-.57.57A.58.58,0,0,1,83.69,107.2Zm1.84.07a.54.54,0,0,1,.57.49.53.53,0,0,1-.57.49.5.5,0,1,1,0-1Zm1.8-.07a.5.5,0,0,1,.54.45.51.51,0,0,1-.54.46.46.46,0,1,1,0-.91Zm1.66-.06a.47.47,0,1,1-.54.46A.51.51,0,0,1,89,107.14Zm1.7-.17a.42.42,0,0,1,.45.39.46.46,0,1,1-.45-.39Zm1.2-.17a.27.27,0,0,1,.29.25.28.28,0,0,1-.29.25.29.29,0,0,1-.3-.25.27.27,0,0,1,.3-.25"/><path id="path198" class="cls-19" d="M90.67,107.16a.25.25,0,0,1,.26.23.24.24,0,0,1-.26.22.23.23,0,1,1,0-.45Zm-1.7.21a.27.27,0,1,1,0,.53.3.3,0,0,1-.32-.27A.3.3,0,0,1,89,107.37Zm-1.66,0a.27.27,0,1,1-.31.26A.29.29,0,0,1,87.31,107.42Zm-1.81.09a.31.31,0,0,1,.34.28.32.32,0,0,1-.34.29.29.29,0,1,1,0-.57Zm-1.83,0a.34.34,0,1,1-.34.33A.34.34,0,0,1,83.67,107.48Zm-1.94-.21a.37.37,0,1,1,0,.73.37.37,0,1,1,0-.73Zm-1.83-.35a.37.37,0,0,1,0,.74.37.37,0,0,1,0-.74Zm-2.08-.8a.46.46,0,0,1,.42.45.36.36,0,0,1-.33.44.47.47,0,0,1-.42-.44.37.37,0,0,1,.33-.45"/><path id="path200" class="cls-14" d="M105,112.91l-.26.17a6.59,6.59,0,0,1,2.94,4.83l-4.1-.9c-.16-1.64-.7-2-1-2.86a2.41,2.41,0,0,0-1.1.74,3.61,3.61,0,0,1,1,1.8l.24,0a1.15,1.15,0,1,1,0,2.3,1.34,1.34,0,0,1-.35,0c.37,1.46-.13,2.88,1.88,4.43l.69-.23-.34-.43a7.48,7.48,0,0,1-.93-3.64,27.87,27.87,0,0,1,3.53.63,1.2,1.2,0,0,1-.13-.54,1.17,1.17,0,0,1,1.19-1.15,1.19,1.19,0,0,1,.78.29l-.07-.42c.14-1.56-.6-3.16-2.07-4.78a3.19,3.19,0,0,0-1.86-.16Zm-2.58,3.8-2.83,0a3.69,3.69,0,0,0-1,1.49c1.25.08,2.31.3,3.09.31a1.13,1.13,0,0,1-.2-.64,1.16,1.16,0,0,1,.92-1.12Zm5.35,3.49c.18,2.32.73,3.62,1.53,4.2l.52.23.53-.28-.48-.57a5.49,5.49,0,0,1-.57-3.43,7.91,7.91,0,0,1,4.71,4.2c.59-.58.14-1.8.15-2.68a13,13,0,0,0-4.48-3.14l-.41-.14a1.13,1.13,0,0,1,.15.55,1.2,1.2,0,0,1-1.65,1.06Zm2.62-.58a.24.24,0,1,1,0,.47.24.24,0,1,1,0-.47Zm1.29.89a.23.23,0,1,1,0,.46.23.23,0,1,1,0-.46ZM113,121.6a.24.24,0,1,1,0,.47.24.24,0,1,1,0-.47Zm.72,1.39a.26.26,0,0,1,.16-.33.25.25,0,0,1,.29.21.26.26,0,0,1-.15.33A.27.27,0,0,1,113.71,123Zm-5.17-1.81a.23.23,0,1,1,0,.46.26.26,0,0,1-.28-.23A.25.25,0,0,1,108.54,121.18Zm.24,1.27a.26.26,0,0,1,.28.23.25.25,0,0,1-.28.23.26.26,0,0,1-.28-.23A.27.27,0,0,1,108.78,122.45Zm-2.2-8.91a.23.23,0,1,1,0,.46.23.23,0,1,1,0-.46Zm.61,1a.23.23,0,1,1,0,.46.24.24,0,1,1,0-.46Zm.66,1.17a.25.25,0,0,1,.26.21.27.27,0,1,1-.26-.21Zm.4,1.11a.25.25,0,0,1,.26.21.27.27,0,0,1-.52,0A.25.25,0,0,1,108.25,116.79Zm-2,1.4a.27.27,0,1,1,0,.54.27.27,0,1,1,0-.54Zm-1.42-.41a.27.27,0,0,1,.28.27.28.28,0,1,1-.28-.27Zm-4-.5a.23.23,0,1,1,0,.46.23.23,0,1,1,0-.46Zm-1.08,0a.23.23,0,1,1,0,.46.23.23,0,0,1,0-.46Zm3.64,3.76a.23.23,0,1,1,0,.46.23.23,0,1,1,0-.46Zm-.28-1.28a.24.24,0,0,1,.24.24.23.23,0,0,1-.24.23.24.24,0,1,1,0-.47Zm-.57-4.43a.24.24,0,1,1,0,.47.24.24,0,0,1,0-.47"/><path id="path202" class="cls-19" d="M108.26,118.35a.82.82,0,1,1-.85.82A.84.84,0,0,1,108.26,118.35ZM102.72,117a.82.82,0,1,1-.85.82.84.84,0,0,1,.85-.82"/><path id="path204" class="cls-19" d="M98.27,118.59a9.84,9.84,0,0,1,3.64.38c.31,2.67.6,4.25,2.51,4.52l.78-.28c-1.15-1.7-1.39-2.91-1.23-3.82a11.51,11.51,0,0,1,3.27.68c.63,1.57,0,3,1.9,4.7,1,.26,1.51.11,1.29-.68a4.16,4.16,0,0,1-1-3.36,7.63,7.63,0,0,1,4.26,4l0,2.47c.28.56.68,1,1.13,1,1,0,1.41.37,1.22,1.34a18.93,18.93,0,0,1-1.75,3.76,7.63,7.63,0,0,0-1.14,3.13c-.19.86.12,2.29-1.27,2.88-.37-.52-.73-.54-1.1-.08a2.82,2.82,0,0,0-.41,1.42,5,5,0,0,1-2.89.61,11.49,11.49,0,0,1,2.5-3.77c2.1-3.1,3.12-5.93.21-7.78a19,19,0,0,0-5.09-1.09c-4.69-.19-3.35-4.4-5.36-5.3-.58-.18-.58.36,0,.51.63.37.66,1.25,1,1.85H98.07a8.4,8.4,0,0,1,.2-7.14Zm3.78-2.13a2.89,2.89,0,0,0-.84-1.44,5.72,5.72,0,0,0-1.43,1.37l2.27.07Zm2.29-3.3a6.52,6.52,0,0,1,2.89,4.42l-3.52-.81a7.2,7.2,0,0,0-1-2.84l1.67-.76Zm3.19.06c1.47,0,3.52,1.37,5.29,2a3.82,3.82,0,0,1,4.33-1.29,13.11,13.11,0,0,0,4.18.18c2.72-.91,1.55-4.17-1.23-3.2,1.37-1.9,4-1.38,5.49,1.21.55-.2.35-.88.41-1.41a2.81,2.81,0,0,1,.89,1.87c-.65-.14-1.08.23-1.1,1a1.32,1.32,0,0,1,1.1-.65,13.26,13.26,0,0,1,3.83,1.09c2.14.45,2.7-1.62,1.43-2.56,2,.4,1.49,4.48-3.62,5.13-2,.52-3.4,1.11-4.7.66-.53-.17-1.07-.74-1.41-.62,1.15,1.72,3.36.75,5.3,1.2,1.86.71,2.6,2.43,2.05,3.44-.24-1.67-1.86-2.42-3.66-1.88-1.4.52-3.15,1.32-4.81,1-2-.63-.71-3-2.25-2.69a1.33,1.33,0,0,1,.06,1.55,3,3,0,0,0,1,3.13,3.42,3.42,0,0,1-2.75-2.72c-.12-2.13-.73-3.84-3-4.1-.76-.06-1.21.11-1,.82.26,1.68.84,2.89.79,5a10.2,10.2,0,0,0-4.62-3.1,9.89,9.89,0,0,0-2-5.11Zm-27,7.29V121a8,8,0,0,0,2.31,1.23,17.7,17.7,0,0,1,1.67-4.81,16.16,16.16,0,0,1-.1-2.92c-.08-.88,1.54-1.2,2.77-1.45-4.36-.25-11.63,1.56-12.11,3.37a4.4,4.4,0,0,0,2.17.45c.37.1.3.46-.29.47-1.31-.2-1.73-.56-2.82-.7a24,24,0,0,0-4-.35,2.17,2.17,0,0,0-2.36,0l-1.46,1.16a3,3,0,0,0,.25,2.85,12.12,12.12,0,0,1,1.09,4.39c2.43,1.52,1.68,3.5,4.23,4.61a4.69,4.69,0,0,0-.1-2.27c-.21-.43-.46-.63-.75-.59-.16-.55-.37-1.07.33-1.21s1-.31.18-1.1c-.78-1-2.27-1-2.24-2.83.2-1.37-.58-1.42-.57-2.16l.25-.14c.44.6.71.47.91-.23.18-.21.44-.39.51-.07V119c2.48.43,3.06,1.43,5,2.28,2.31,1.29,4,1.28,4.82-.13l0-.51c0-.43.29-.43.34-.08ZM72,126.58l-.27.08c.79,1.12.2,2,.3,2.92.56.4.8.94,1.69,1.2Q74.21,128.68,72,126.58Zm.36-.34c.88-.53,2.77,2.11,2.14,4.33l-.39.16a5.13,5.13,0,0,0-1.75-4.49ZM64,121.48c-.89-.69-.45-2.42-.68-3.63-.55-1.19,0-1.06,0-1.59.83-1.71,1.36-1.81,1.79-3.15.31-.87.3-1.68,1.18-2.26,1-.19,1.4-1.28,3.08-.5,1.91,1.29,3.62,1.55,5.22,2.42l-.67.63c0,1,.3.46.28,2.89l-2.66-.23c-1.11-1.1-2.69-2-2.66-3.58a4.62,4.62,0,0,1-2.15,1,7.66,7.66,0,0,1-1.18,2.79c.54,0,.46.4.44.88l-.37.39c-.24,1.16.2,1.44.07,2.72-.82.07-.87,1-1.69,1.17Zm2-1.2c-.21.41-.5.34-.7.57a5.27,5.27,0,0,1-1.22,1c.19.45.27.94.47,1.39a2,2,0,0,0,1.81-2,1.15,1.15,0,0,0-.36-1Zm.61,1.72a2.21,2.21,0,0,1-2,1.64c-.31.08-.06.36.16.58a3.67,3.67,0,0,0,2-1.52l-.18-.7Zm18-20.88c-2.31-1.57-.06-4.58-2-6.05,1,2.18.54,3.75-.33,3.61.59-3.26-2.06-.77-1.93-5.92.67,0,.81.41,1.22.62.09.55.37.91.43,1.52.25-.53-.06-.91,0-1.37a3.25,3.25,0,0,1,2.54,4.1,2.38,2.38,0,0,0,0-2.85c1.38.28,1.9,1.24,1.81,2.89.45-.34,0-1.63.27-1.9A3.55,3.55,0,0,1,88.14,98c.22.11.34.42.37.92a.92.92,0,0,1,.72.59,2.28,2.28,0,0,1,.44,2.75c.41-.13.57-.53.68-1.18a3.66,3.66,0,0,1,.49,3,2.52,2.52,0,0,1,1.3,2.09,7.85,7.85,0,0,1-2.38.21c0-1,1.13-1,.51-2.62-.19,2.16-1,1.74-1.14,2.76a2.35,2.35,0,0,1-1.46,0c.38-2.11,1.56-2.73,1.07-6.1-.19,1.89-.65,3.27-1.69,3.55-.32-.52.4-.91.54-1.4.49-1.75.42-3.69-.42-4.57.78,2,.44,3.46-1.17,4.16a3,3,0,0,0,0-3.3c-.38-.48-.17-1.78-.53-2.06-.09.68.2,1.44-.07,2.15-.87.27-1.09,1.05-.81,2.27ZM80.54,103a4,4,0,0,0,2-3.6c-.27.14-.19,1.06-.56.85-.18-.28-.32-.83-.08-.91a2.7,2.7,0,0,0,1.32-.83c0,2,1,3.2,2.34,3-1-.52-.78-.93-.76-1.42,0-.67.68-.85.94-1.25,1,2.32.12,3.32-1.67,3.72a3.6,3.6,0,0,0,3.48-1.17c0,1.81-1.43,1.46-.87,4.08.22-1.6,1-1.18,1.68-2.24-.41,1.61-1,2-1.06,3.34-3.38,0-6.12-.31-7.21-1.09a2.35,2.35,0,0,0,.45-2.43Zm-5.39,9.38c.39-.86,1-.93,1.21-2.16a7.85,7.85,0,0,0,1.59-2,22.64,22.64,0,0,0,9.3.6c-.09,1.51,1,1.77,1.43,2.5C84.11,110.86,79.26,110.83,75.15,112.39Zm.62-4.82a.49.49,0,1,1,.1.61A.44.44,0,0,1,75.77,107.57Zm12.94,1.06-1,.16a2.44,2.44,0,0,0,1.15,2.2A7,7,0,0,1,88.71,108.63Zm1.78,2c0-1.14-.77-.83-.85-2.17l-.58.15a6,6,0,0,0,.16,2.74l1.27-.72Zm.82-.42c-.08-1.23.57-1.25.76-2.4l-2.14.56c0,1,.82.88.78,2.15l.6-.31Zm.38-.2c.12-1.45.62-1.6.92-2.34.27.65,0,1.24.28,1.83l-1.2.51ZM81.78,97.1c.45.28.32,1.07.23,1.82a.87.87,0,0,1-.84-.09l.09-.45c.22-.14.4-.56.52-1.28Zm-8.27,6.28a1.91,1.91,0,0,1-.15-1.2,3.77,3.77,0,0,0-1.5-1.43,2,2,0,0,0-1,1.55c.34.29.5-1.22,1.49-.51.17.29-.49,1.09-1.1,1.22.06,1,.81,1.86,1.57,1.48,0-.65.26-1.11.68-1.11Zm.74.44a1.24,1.24,0,0,0,1-.3,1.08,1.08,0,0,0,.68.57c-.53.37-.49,1.93-1.72,1.29C73.16,104.86,74.32,104.31,74.25,103.82Zm2.24-.85c-.27.29-.65-.1-.7-.28a15.41,15.41,0,0,0,4.13-3.14,1.08,1.08,0,0,0,.75,0,5,5,0,0,1,.2,2.32c-.16.84-.34.89-1.24,1.07-1.34.26-2.95-1-3.14.07ZM72,102c-.35-.36-.74.56-.75.72C71.39,102.68,72.17,102.52,72,102Zm1-2.26L75,97.87a2.35,2.35,0,0,1,1.4-1.82,2.7,2.7,0,0,1,1.73,1.18c-.76.68-1.73-1.54-2.6,1.11.25-.09.37-.45.63-.27.31.8,1.15.15,1.59,0-.06-.78.42-.48.63-.71l.85.71a.79.79,0,0,0-.06.54,24.34,24.34,0,0,1-4.33,3A5.9,5.9,0,0,0,73,99.72Zm3.54-2.35c.39.1.83-.11,1,.54a1.09,1.09,0,0,1-.46.22c0-.54-.26-.57-.49-.76ZM77.9,91c1.09,1.32,3.15,2,1.58,3.74.14.13.54-.09.63.06a2.38,2.38,0,0,1,.09,2.56,4.89,4.89,0,0,0-2.46-2.32,2.46,2.46,0,0,1,1.2-.85c.51-.35-1.12-1.84-1-3.19Zm-.77,2.23a4.08,4.08,0,0,0-.83.6,5,5,0,0,1-1.16-2.94A12.45,12.45,0,0,0,77.13,93.27Zm.53-2.21a6.16,6.16,0,0,0,1.14,2.69c0,.31-.23.42-.51.21A2.12,2.12,0,0,1,77.66,91.06Zm-4.24,2.5c.82,4,3.18-.29,4.15-.11l.79.83c-1.46.79-1.93.55-3.13,1.29S72.35,95.25,73.42,93.56Zm-.07,2.9c.42-.52,1.39-.2,3-1-.37.6-1.25.87-1.49,1.41-.75,0-1-.42-1.5-.36Zm35.17,33.35c3.75.71,3.29,3.63,1.91,6.18-.83,1.52-2.23,2.62-2.69,3.75a4.25,4.25,0,0,1-2.91-.52c.35-.78,1.28-1.11,1.92-1.66C110.28,134.2,109.94,131.22,108.52,129.81Zm-1.56,12c-.19.4-1.46,1.68-.52,1.71a5.44,5.44,0,0,0,4.44-2c.08-.17-.16-.47-.38-.35a10.18,10.18,0,0,1-3.53.63Zm.52-1.65a3.55,3.55,0,0,1-3-.77,4.05,4.05,0,0,1-1.17,1.26,6.54,6.54,0,0,0,3.75.37ZM106,143.51c1.27.81,3.66-.23,4.88-1.61l.08.54a6,6,0,0,1-4.91,1.69l0-.62Zm-2.73-2.58a9.66,9.66,0,0,0,3.38.55c.06.26-.13.43-.47.49a4.93,4.93,0,0,1-2.81-.26c-.38-.44-.46-.73-.1-.78ZM77.18,92a2.34,2.34,0,0,0,.08,1.07l-1.14-1.4a2.44,2.44,0,0,0,1.06.33"/><rect class="cls-21" x="151.66" y="51.6" width="2.81" height="28.94"/><rect class="cls-21" x="38.81" y="51.6" width="2.81" height="28.94"/><path class="cls-21" d="M80.4,99.63c-12.64,0-22.88,10.17-22.88,30.51C57.52,155.57,75.73,181,98.2,181s40.69-25.43,40.69-50.86c0-20.34-10.25-30.51-22.89-30.51a22.89,22.89,0,0,0-17.8,8.5,22.87,22.87,0,0,0-17.8-8.5Zm0,0"/><rect class="cls-21" x="25.38" y="112.84" width="145.64" height="54.95" rx="5.46"/><text class="cls-22" transform="translate(61.36 160.69)">Hrodna</text><text class="cls-22" transform="translate(62.5 133.93)">Słupsk</text><path class="cls-21" d="M44.92,0l-29,0H0L0,16c0,7,0,14,0,21A29.11,29.11,0,0,0,51.44,18.3,28.92,28.92,0,0,0,44.92,0Z"/><text class="cls-23" transform="translate(15.54 31.75)"><tspan class="cls-24">4</tspan><tspan x="9.55" y="0">1</tspan></text></svg>