<svg id="Слой_1" data-name="Слой 1" xmlns="http://www.w3.org/2000/svg" xmlns:xlink="http://www.w3.org/1999/xlink" viewBox="0 0 195.59 280.63"><defs><style>.cls-1{fill:none;}.cls-2{fill:#fbb91c;}.cls-3{clip-path:url(#clip-path);}.cls-17,.cls-4{fill:#056b45;}.cls-5{fill:#eb5a53;}.cls-6{fill:#1a1a1a;}.cls-18,.cls-7{fill:#fff;}.cls-8{fill:#af1739;}.cls-9{fill:#eb5775;}.cls-10{fill:#badbe9;}.cls-11{fill:#8bb0cc;}.cls-12{fill:#f293a2;}.cls-13{fill:#595959;}.cls-14{fill:#797979;}.cls-15{fill:#3e3e3e;}.cls-16{fill:#e94539;}.cls-17{font-size:63.44px;}.cls-17,.cls-18{font-family:Impact;}.cls-18{font-size:20px;}</style><clipPath id="clip-path"><rect class="cls-1" x="-7.57" y="-6.91" width="213.74" height="298.44"/></clipPath></defs><rect class="cls-2" x="-7.57" y="-6.91" width="213.74" height="305.91"/><g class="cls-3"><path class="cls-4" d="M187.54,213.59c-3.57,0-6.54-2-8.83-5.78a32.42,32.42,0,0,1-3.21-8c-.45-1.58-.84-3.28-1.19-5.05a64.4,64.4,0,0,1-13.41,0c-.34,1.77-.74,3.47-1.19,5.05a32.42,32.42,0,0,1-3.21,8c-2.29,3.83-5.26,5.78-8.82,5.78s-6.54-2-8.83-5.78a32.42,32.42,0,0,1-3.21-8,72.08,72.08,0,0,1-2.4-14.33,66.28,66.28,0,0,1-26.29-30,10.7,10.7,0,0,1-5.63,1.74,8.91,8.91,0,0,1-3.41-.68l-.48-.22a8.75,8.75,0,0,1-1.44.12,10.74,10.74,0,0,1-5.68-1.77,66.66,66.66,0,0,1-26.5,30.22,72.56,72.56,0,0,1-2.42,14.45,32.83,32.83,0,0,1-3.22,8c-2.31,3.86-5.29,5.81-8.87,5.81s-6.55-2-8.86-5.81a32.81,32.81,0,0,1-3.23-8c-.45-1.6-.85-3.32-1.2-5.11a65.84,65.84,0,0,1-13.56,0c-.35,1.79-.75,3.51-1.2,5.11a32.81,32.81,0,0,1-3.23,8c-2.31,3.86-5.29,5.81-8.86,5.81s-6.56-2-8.87-5.81a32.83,32.83,0,0,1-3.22-8,72.56,72.56,0,0,1-2.42-14.45,66.64,66.64,0,0,1-25.87-28.87,10.41,10.41,0,0,1-6,2.09,9,9,0,0,1-2.6-.39c-3.42-1-5.71-3.77-6.8-8.13a32.77,32.77,0,0,1-.77-8.6,73.41,73.41,0,0,1,3-18.67c1.87-6.18,4.63-10.39,8.43-12.84a13.43,13.43,0,0,1,1.33-.76A67,67,0,0,1-4.49,70.42a23.16,23.16,0,0,1-.22-3.23A23.46,23.46,0,0,1,1.9,50.49c4.82-4.86,11.85-7.66,20.89-8.32,3.64-.27,7-.4,10.32-.52,2.29-.08,4.45-.16,6.64-.28a86.84,86.84,0,0,0,15.88-2.19l13.72-3.33-2.68,7.22c3.88-.86,6.86-1.8,7.25-1.92l11.48-4L83.8,49.24A48.41,48.41,0,0,1,71.27,76.19a66.73,66.73,0,0,1,22.16,33.66,22,22,0,0,1,5.51,6.92,20.73,20.73,0,0,1,4.89-5.86,66.21,66.21,0,0,1,22-33.4,48.13,48.13,0,0,1-12.43-26.76L111.8,38.67l11.45,4c.37.12,3.3,1,7.13,1.89l-2.66-7.17,13.69,3.32a85.62,85.62,0,0,0,15.81,2.18c2.15.12,4.28.19,6.54.28,3.26.12,6.63.24,10.24.51,9,.66,16,3.44,20.76,8.26a23.36,23.36,0,0,1,6.58,16.62,22.45,22.45,0,0,1-.22,3.18,66.47,66.47,0,0,1,29.94,38.08,12.09,12.09,0,0,1,1.32.74c3.78,2.45,6.52,6.63,8.38,12.78a72.84,72.84,0,0,1,2.94,18.54,32.89,32.89,0,0,1-.76,8.55c-1.09,4.33-3.37,7.06-6.78,8.09a8.84,8.84,0,0,1-2.59.39h0a10.32,10.32,0,0,1-5.93-2.06A66.32,66.32,0,0,1,202,185.51a72.08,72.08,0,0,1-2.4,14.33,32.26,32.26,0,0,1-3.21,8C194.07,211.64,191.1,213.59,187.54,213.59Z"/><path class="cls-5" d="M17.1,180.67c0,10.66-3.56,25.81-7.94,25.81s-7.94-15.15-7.94-25.81,4.69-12.79,7.94-12.79S17.1,170,17.1,180.67Zm0,0"/><path class="cls-6" d="M9.16,165.66a9,9,0,0,0-6.88,3.18C.24,171.25-1,175-1,180.67a69,69,0,0,0,2.41,17.5,28.5,28.5,0,0,0,2.76,6.91c1.11,1.87,2.62,3.62,5,3.62s3.87-1.75,5-3.62a28.91,28.91,0,0,0,2.76-6.91,69,69,0,0,0,2.4-17.5c0-5.66-1.24-9.42-3.27-11.83a9,9,0,0,0-6.88-3.18Zm0,4.43a4.28,4.28,0,0,1,3.5,1.62c1.12,1.32,2.22,3.95,2.22,9A65.44,65.44,0,0,1,12.64,197a26.13,26.13,0,0,1-2.29,5.84,4.64,4.64,0,0,1-1.19,1.41A4.49,4.49,0,0,1,8,202.81,25.66,25.66,0,0,1,5.68,197a65.45,65.45,0,0,1-2.25-16.3c0-5,1.11-7.64,2.23-9a4.27,4.27,0,0,1,3.5-1.62Zm0,0"/><path class="cls-5" d="M57.24,180.67c0,10.66-3.55,25.81-7.94,25.81s-7.94-15.15-7.94-25.81,4.7-12.79,7.94-12.79,7.94,2.13,7.94,12.79Zm0,0"/><path class="cls-6" d="M49.3,165.66a9,9,0,0,0-6.88,3.18c-2,2.41-3.27,6.17-3.27,11.83a69,69,0,0,0,2.4,17.5,28.91,28.91,0,0,0,2.76,6.91c1.12,1.87,2.62,3.62,5,3.62s3.88-1.75,5-3.62a28.5,28.5,0,0,0,2.76-6.91,69,69,0,0,0,2.41-17.5c0-5.66-1.24-9.42-3.28-11.83a9,9,0,0,0-6.88-3.18Zm0,4.43a4.27,4.27,0,0,1,3.5,1.62c1.12,1.32,2.23,3.95,2.23,9A65.45,65.45,0,0,1,52.78,197a25.66,25.66,0,0,1-2.29,5.84,4.35,4.35,0,0,1-1.19,1.41,4.64,4.64,0,0,1-1.19-1.41A26.13,26.13,0,0,1,45.82,197a65.44,65.44,0,0,1-2.24-16.3c0-5,1.1-7.64,2.23-9a4.25,4.25,0,0,1,3.49-1.62Zm0,0"/><path class="cls-5" d="M94.3,122.7c4.08,9.85,6.59,25.21,2.54,26.89s-13.13-11-17.21-20.81-.56-13.61,2.44-14.86,8.15-1.07,12.23,8.78Zm0,0"/><path class="cls-6" d="M81.22,111.88a9,9,0,0,0-5.14,5.57c-1,3-.66,7,1.5,12.18a69.54,69.54,0,0,0,8.92,15.25,29.07,29.07,0,0,0,5.2,5.33c1.74,1.3,3.8,2.33,6,1.43s2.91-3.1,3.23-5.25a28.76,28.76,0,0,0-.1-7.44,69,69,0,0,0-4.47-17.1c-2.17-5.22-4.75-8.22-7.55-9.67a9,9,0,0,0-7.58-.3Zm1.7,4.09a4.31,4.31,0,0,1,3.85.15c1.54.8,3.57,2.81,5.48,7.43a65.23,65.23,0,0,1,4.17,15.92,25.9,25.9,0,0,1,.12,6.27A4.53,4.53,0,0,1,96,147.5a4.65,4.65,0,0,1-1.64-.85A26,26,0,0,1,90,142.14a65,65,0,0,1-8.31-14.21c-1.92-4.62-1.9-7.48-1.37-9.13A4.29,4.29,0,0,1,82.92,116Zm0,0"/><path class="cls-6" d="M29.23,65.75a62.19,62.19,0,1,0,62.19,62.19A62.23,62.23,0,0,0,29.23,65.75Zm0,7.09a55.1,55.1,0,1,1-55.09,55.1,55,55,0,0,1,55.09-55.1Zm0,0"/><path class="cls-5" d="M-11.68,87.78C-1.1,81.93,4.65,89.53,30.9,89.25c24-.25,29-6.71,38.76-1.47C86.12,96.66,86.5,123.2,86.5,126.54c0,2.38-.29,31-16.84,38.75-11.06,5.21-16.9-4.75-39.26-5.06C6.63,159.9.08,171-11.68,165.29c-16.56-8-16.85-36.32-16.84-38.75C-28.52,123.2-28.13,96.89-11.68,87.78Zm-16.84,38.76"/><path class="cls-7" d="M28.6,70.38A59.21,59.21,0,0,0-27.21,110H84.41A59.21,59.21,0,0,0,28.6,70.38Zm0,0"/><path class="cls-7" d="M31.69,71.73A54.8,54.8,0,0,0-20.48,110H83.91A54.81,54.81,0,0,0,31.69,71.73Zm0,0"/><path class="cls-7" d="M-25,148.29A61.83,61.83,0,0,0-14.93,164.6a57.21,57.21,0,0,0,27,18.12A55.64,55.64,0,0,0,28.56,185a59.8,59.8,0,0,0,29.31-8.4,69.19,69.19,0,0,0,27-28.3Zm109.87,0"/><path class="cls-7" d="M81.94,148.39m-103.47,0a56.88,56.88,0,0,0,103.47,0Z"/><path class="cls-6" d="M29.23,68.41a59.53,59.53,0,1,0,59.53,59.53A59.54,59.54,0,0,0,29.23,68.41Zm0,1.77a57.76,57.76,0,1,1-57.75,57.76A57.74,57.74,0,0,1,29.23,70.18Zm0,0"/><path class="cls-6" d="M10.39,106.69a9.11,9.11,0,0,1,9.13,9.13v4.58a9.14,9.14,0,0,1-18.27,0v-4.58a9.12,9.12,0,0,1,9.14-9.13Zm0,0"/><path class="cls-7" d="M15.7,113.24a2.95,2.95,0,1,1-2.94-2.95,2.94,2.94,0,0,1,2.94,2.95Zm0,0"/><path class="cls-6" d="M48.07,106.69a9.12,9.12,0,0,1,9.14,9.13v4.58a9.14,9.14,0,0,1-18.27,0v-4.58a9.11,9.11,0,0,1,9.13-9.13Zm0,0"/><path class="cls-7" d="M53.39,113.24a2.94,2.94,0,0,1-.86,2.08,3,3,0,0,1-2.09.86,2.94,2.94,0,0,1-2.08-.86,2.91,2.91,0,0,1-.87-2.08,3,3,0,0,1,5.9,0Zm0,0"/><path class="cls-8" d="M19.51,132.23a2,2,0,0,0-2,2v2.28a11.75,11.75,0,1,0,23.5,0v-2.28a2,2,0,0,0-2-2Zm0,0"/><path class="cls-9" d="M29.23,140.25a11.7,11.7,0,0,0-8.85,4,11.74,11.74,0,0,0,17.71,0,11.73,11.73,0,0,0-8.86-4Zm0,0"/><path class="cls-7" d="M19.51,132.23a2,2,0,0,0-2,2v2.05a27.05,27.05,0,0,0,23.5,0v-2.06a2,2,0,0,0-2-2Zm0,0"/><path class="cls-10" d="M19.51,132.23a2,2,0,0,0-2,2v2.05a27.36,27.36,0,0,0,4.1,1.54c-.8-.54-.95-1.29-.95-2.47v-3.14Zm0,0"/><path class="cls-10" d="M34.68,132.23v3.14c0,1.59-.41,3-1.77,3.33A27.71,27.71,0,0,0,41,136.31v-2.06a2,2,0,0,0-2-2Zm0,0"/><path class="cls-11" d="M39,132.23a2,2,0,0,1,2,2v2.05a27.36,27.36,0,0,1-4.1,1.54c.8-.54.95-1.29.95-2.47v-3.14Zm0,0"/><path class="cls-6" d="M19.51,131.34a2.93,2.93,0,0,0-2.92,2.91v2.29a12.64,12.64,0,1,0,25.28,0v-2.29A2.93,2.93,0,0,0,39,131.34Zm0,1.77H39a1.13,1.13,0,0,1,1.14,1.14v2.29a10.87,10.87,0,0,1-21.74,0v-2.29a1.13,1.13,0,0,1,1.15-1.14Zm0,0"/><path class="cls-6" d="M17.42,135.82l-.39.79a27.8,27.8,0,0,0,24.4,0l-.39-.79a27,27,0,0,1-23.62,0Zm0,0"/><path class="cls-12" d="M27.93,143.41a1.23,1.23,0,0,1-.57,1,2.52,2.52,0,0,1-1.38.4c-1.08,0-2-.62-2-1.38S24.9,142,26,142a2.44,2.44,0,0,1,1.38.4,1.23,1.23,0,0,1,.57,1Zm0,0"/><path class="cls-6" d="M40.6,45.84c-5.64.34-11.22.36-17.48.83-8.28.6-14.2,3.15-18,7A18.91,18.91,0,0,0-.2,67.19C-.2,75.64,5,82.12,12.14,85.61s16.33,4.45,25.65,3c.94-.14,1.88-.31,2.81-.51V82c-1.23.28-2.48.52-3.72.71C28.57,84,20.47,83,14.77,80.21s-9-6.89-9-13a12.69,12.69,0,0,1,3.56-9.3c2.56-2.58,6.91-4.7,14.19-5.23,5.83-.43,11.33-.5,17-.87V45.84Zm0,0"/><path class="cls-6" d="M56.69,43.56a92.21,92.21,0,0,1-18,2.38v6a119,119,0,0,0,14-1.5L51,55.18l4.29,0a60.53,60.53,0,0,0,17.05-2.63c-4.37,17.38-18.89,27-33.6,29.81v6.1c18.37-3.14,37.49-16.1,40.62-39.83L80,43.81l-4.62,1.61a88,88,0,0,1-15.62,3.4l.48-1.29,2-5.3Zm5.48-1.33"/><path class="cls-13" d="M57.4,46.48C44.79,49.53,35,48.8,23.34,49.66,7.78,50.81,2.81,59,2.81,67.19c0,29.15,67.57,26.41,73.54-18.93,0,0-11.37,4-21.07,3.94l2.12-5.72Zm0,0"/><path class="cls-14" d="M57.4,46.48C44.79,49.53,35,48.8,23.34,49.66c-8.86.65-14.28,3.59-17.32,7.5,8.21,14.22,54.57,11.64,70.33-8.9,0,0-11.37,4-21.07,3.94l2.12-5.72Zm0,0"/><path class="cls-15" d="M76.35,48.26C68.43,77.81,14,89.3,3.23,63.2a18.46,18.46,0,0,0-.42,4c0,29.15,67.57,26.41,73.54-18.93Zm0,0"/><path class="cls-6" d="M40.6,48.1c-5.66.34-11.21.36-17.32.81-7.9.58-13.23,3-16.58,6.34A16.58,16.58,0,0,0,2.05,67.19c0,7.58,4.47,13.17,11.08,16.39s15.38,4.2,24.32,2.82c1-.16,2.1-.35,3.15-.58V84.28c-1.12.25-2.25.47-3.38.64-8.69,1.33-17.19.36-23.43-2.69s-10.23-8-10.23-15A15,15,0,0,1,7.77,56.31c3-3.06,8-5.34,15.62-5.9,6-.44,11.53-.48,17.21-.84V48.1Zm0,0"/><path class="cls-6" d="M57.22,45.75a95.82,95.82,0,0,1-18.51,2.46v1.47a101.54,101.54,0,0,0,17.52-2.22l-2,5.48h1.07c9.06,0,18.42-3.05,20.13-3.63C72.09,70.24,55.31,81.63,38.71,84.67v1.52c17.5-3.11,35.42-15.34,38.38-37.83l.16-1.21-1.15.4s-10.46,3.57-19.71,3.8l1.71-4.61.49-1.32Zm1.37-.33"/><path class="cls-16" d="M179.65,181.25c0-10.59,4.66-12.7,7.89-12.7s7.88,2.11,7.88,12.7-3.53,25.62-7.88,25.62-7.89-15-7.89-25.62Zm0,0"/><path class="cls-6" d="M187.54,166.35a8.94,8.94,0,0,0-6.83,3.15c-2,2.39-3.26,6.13-3.26,11.75a68.39,68.39,0,0,0,2.39,17.37,28.92,28.92,0,0,0,2.74,6.87c1.11,1.85,2.6,3.59,5,3.59s3.84-1.74,5-3.59a28.92,28.92,0,0,0,2.74-6.87,68.39,68.39,0,0,0,2.39-17.37c0-5.62-1.23-9.36-3.26-11.75a8.93,8.93,0,0,0-6.82-3.15Zm0,4.4a4.23,4.23,0,0,1,3.47,1.6c1.11,1.31,2.21,3.93,2.21,8.9A65,65,0,0,1,191,197.43a25.79,25.79,0,0,1-2.27,5.8,4.73,4.73,0,0,1-1.18,1.4,4.53,4.53,0,0,1-1.19-1.4,25.79,25.79,0,0,1-2.27-5.8,65,65,0,0,1-2.23-16.18c0-5,1.1-7.59,2.21-8.9a4.24,4.24,0,0,1,3.48-1.6Zm0,0"/><path class="cls-16" d="M139.79,181.25c0-10.59,4.66-12.7,7.89-12.7s7.88,2.11,7.88,12.7-3.53,25.62-7.88,25.62-7.89-15-7.89-25.62Zm0,0"/><path class="cls-6" d="M147.68,166.35a8.94,8.94,0,0,0-6.83,3.15c-2,2.39-3.26,6.13-3.26,11.75A68.39,68.39,0,0,0,140,198.62a28.92,28.92,0,0,0,2.74,6.87c1.11,1.85,2.6,3.59,5,3.59s3.84-1.74,4.95-3.59a28.92,28.92,0,0,0,2.74-6.87,68.39,68.39,0,0,0,2.39-17.37c0-5.62-1.23-9.36-3.25-11.75a9,9,0,0,0-6.83-3.15Zm0,4.4a4.23,4.23,0,0,1,3.47,1.6c1.11,1.31,2.21,3.93,2.21,8.9a65,65,0,0,1-2.23,16.18,25.79,25.79,0,0,1-2.27,5.8,4.73,4.73,0,0,1-1.18,1.4,4.42,4.42,0,0,1-1.18-1.4,25.28,25.28,0,0,1-2.28-5.8A65,65,0,0,1,142,181.25c0-5,1.1-7.59,2.21-8.9a4.25,4.25,0,0,1,3.48-1.6Zm0,0"/><path class="cls-4" d="M103,123.69c4-9.78,9.16-10,12.14-8.71s6.48,5,2.43,14.74-13.07,22.33-17.1,20.67S99,133.47,103,123.69Zm0,0"/><path class="cls-6" d="M116,112.94a9,9,0,0,0-7.52.31c-2.78,1.43-5.35,4.41-7.49,9.6a68.29,68.29,0,0,0-4.45,17,29.29,29.29,0,0,0-.1,7.39c.32,2.14,1,4.31,3.21,5.21s4.22-.13,6-1.42a28.63,28.63,0,0,0,5.16-5.29,68.79,68.79,0,0,0,8.86-15.14c2.15-5.19,2.44-9.12,1.48-12.1a8.92,8.92,0,0,0-5.1-5.53ZM114.3,117a4.23,4.23,0,0,1,2.59,2.81c.53,1.64.54,4.47-1.36,9.06A64.93,64.93,0,0,1,107.28,143a25.64,25.64,0,0,1-4.32,4.48,4.26,4.26,0,0,1-1.63.84,4.52,4.52,0,0,1-.55-1.74,25.48,25.48,0,0,1,.11-6.23A65.23,65.23,0,0,1,105,124.53c1.9-4.59,3.92-6.58,5.45-7.37a4.25,4.25,0,0,1,3.82-.15Zm0,0"/><path class="cls-6" d="M167.61,67.14a61.75,61.75,0,1,0,61.74,61.75,61.81,61.81,0,0,0-61.74-61.75Zm0,7a54.7,54.7,0,1,1-54.71,54.7,54.64,54.64,0,0,1,54.71-54.7Zm0,0"/><path class="cls-4" d="M225,127.5c0,2.41-.29,30.56-16.73,38.48-11.67,5.63-18.18-5.36-41.77-5-22.21.31-28,10.2-39,5-16.43-7.73-16.73-36.12-16.73-38.48,0-3.31.38-29.66,16.73-38.48,9.65-5.2,14.65,1.21,38.48,1.46,26.06.28,31.77-7.27,42.27-1.46C224.56,98.06,224.94,124.18,225,127.5Zm0,0"/><path class="cls-2" d="M168.23,71.74A58.85,58.85,0,0,0,112.81,111H223.65a58.85,58.85,0,0,0-55.42-39.29Zm0,0"/><path class="cls-2" d="M165.16,73.08a54.42,54.42,0,0,0-51.84,38H217a54.4,54.4,0,0,0-51.8-37.95Zm0,0"/><path class="cls-16" d="M112.35,149.1a68.65,68.65,0,0,0,26.82,28.1,59.51,59.51,0,0,0,29.1,8.34,55,55,0,0,0,16.34-2.26,56.69,56.69,0,0,0,26.84-18,61.24,61.24,0,0,0,10-16.19Zm0,0"/><path class="cls-16" d="M115.27,149.19m0,0a56.47,56.47,0,0,0,102.73,0Z"/><path class="cls-6" d="M167.61,69.78a59.11,59.11,0,1,0,59.1,59.11,59.12,59.12,0,0,0-59.1-59.11Zm0,1.77a57.34,57.34,0,1,1-57.35,57.34,57.33,57.33,0,0,1,57.35-57.34Zm0,0"/><path class="cls-6" d="M186.31,107.79a9,9,0,0,1,9.07,9.07v4.54a9.07,9.07,0,1,1-18.13,0v-4.54a9,9,0,0,1,9.06-9.07Zm0,0"/><path class="cls-7" d="M181,114.29a2.92,2.92,0,1,1,.85,2.07,2.92,2.92,0,0,1-.85-2.07Zm0,0"/><path class="cls-6" d="M148.9,107.79a9,9,0,0,1,9.07,9.07v4.54a9.07,9.07,0,0,1-18.14,0v-4.54a9,9,0,0,1,9.07-9.07Zm0,0"/><path class="cls-7" d="M143.62,114.29a2.94,2.94,0,1,1,.86,2.07,2.93,2.93,0,0,1-.86-2.07Zm0,0"/><path class="cls-8" d="M158,133.15a2,2,0,0,0-2,2v2.27a11.67,11.67,0,1,0,23.33,0v-2.27a2,2,0,0,0-2-2Zm19.31,0"/><path class="cls-9" d="M167.61,141.11a11.66,11.66,0,0,0-8.8,4,11.69,11.69,0,0,0,17.59,0,11.65,11.65,0,0,0-8.79-4Zm0,0"/><path class="cls-7" d="M158,133.15a2,2,0,0,0-2,2v2a26.86,26.86,0,0,0,23.33,0v-2a2,2,0,0,0-2-2Zm19.31,0"/><path class="cls-10" d="M176.15,133.15v3.12c0,1.17-.16,1.91-1,2.45a26.57,26.57,0,0,0,4.07-1.53v-2a2,2,0,0,0-2-2Zm1.11,0"/><path class="cls-10" d="M158,133.15a2,2,0,0,0-2,2v2a27,27,0,0,0,8,2.37c-1.35-.36-1.75-1.72-1.75-3.3v-3.12Zm4.25,0"/><path class="cls-11" d="M159.07,133.15v3.12c0,1.17.15,1.91.94,2.45a27,27,0,0,1-4.07-1.53v-2a2,2,0,0,1,2-2Zm-1.12,0"/><path class="cls-6" d="M158,132.27a2.9,2.9,0,0,0-2.89,2.89v2.27a12.55,12.55,0,1,0,25.09,0v-2.27a2.9,2.9,0,0,0-2.89-2.89ZM177.26,134a1.11,1.11,0,0,1,1.13,1.13v2.27a10.79,10.79,0,1,1-21.57,0v-2.27A1.11,1.11,0,0,1,158,134Zm0,0"/><path class="cls-6" d="M179.33,136.71a26.74,26.74,0,0,1-23.45,0l-.38.79a27.61,27.61,0,0,0,24.22,0l-.39-.79Zm0,0"/><path class="cls-12" d="M168.9,144.25a1.18,1.18,0,0,1,.57-1,2.36,2.36,0,0,1,1.37-.4c1.07,0,1.94.61,1.94,1.36s-.87,1.37-1.94,1.37a2.36,2.36,0,0,1-1.37-.4,1.19,1.19,0,0,1-.57-1Zm0,0"/><path class="cls-6" d="M156.31,47.38v5.9c5.67.37,11.14.44,16.93.86,7.23.54,11.54,2.64,14.08,5.2a12.56,12.56,0,0,1,3.54,9.24c0,6.08-3.24,10.16-8.9,12.92s-13.7,3.73-22,2.47c-1.23-.19-2.47-.43-3.7-.72v6.11c.93.19,1.86.36,2.79.5,9.26,1.42,18.36.47,25.47-3s12.26-9.9,12.26-18.28a18.83,18.83,0,0,0-5.27-13.44c-3.79-3.81-9.67-6.34-17.89-6.94-6.21-.46-11.75-.49-17.36-.82Zm0,0"/><path class="cls-6" d="M134.9,43.79l1.94,5.26.48,1.29A87.9,87.9,0,0,1,121.81,47l-4.58-1.6.63,4.81C121,73.72,140,86.59,158.2,89.71V83.65c-14.62-2.8-29-12.34-33.37-29.6a59.76,59.76,0,0,0,16.93,2.62l4.26,0-1.76-4.75a115.44,115.44,0,0,0,13.94,1.49V47.48a91.67,91.67,0,0,1-17.86-2.37Zm0,0"/><path class="cls-13" d="M139.64,48l2.11,5.68c-9.64.05-20.93-3.91-20.93-3.91,5.93,45,73,47.74,73,18.8,0-8.15-4.94-16.27-20.39-17.41-11.61-.86-21.3-.13-33.81-3.16Zm0,0"/><path class="cls-14" d="M139.64,48l2.11,5.68c-9.64.05-20.93-3.91-20.93-3.91,15.65,20.39,61.68,23,69.83,8.84-3-3.89-8.4-6.8-17.2-7.45-11.61-.86-21.3-.13-33.81-3.16Zm0,0"/><path class="cls-15" d="M120.82,49.78c5.93,45,73,47.74,73,18.8a18.21,18.21,0,0,0-.42-4c-10.73,25.91-64.74,14.5-72.6-14.83Zm0,0"/><path class="cls-6" d="M156.31,49.62v1.46c5.65.35,11.14.4,17.09.83,7.6.56,12.5,2.82,15.51,5.86a14.89,14.89,0,0,1,4.19,10.81c0,6.94-4,11.91-10.16,14.93s-14.64,4-23.27,2.67q-1.68-.27-3.36-.63v1.52c1.05.23,2.09.42,3.13.58,8.88,1.36,17.59.4,24.15-2.8s11-8.75,11-16.27A16.45,16.45,0,0,0,190,56.72c-3.32-3.35-8.61-5.72-16.46-6.29-6.06-.45-11.57-.47-17.2-.81Zm0,0"/><path class="cls-6" d="M138.45,47l.49,1.31,1.7,4.58c-9.19-.23-19.57-3.78-19.57-3.78l-1.15-.4.16,1.2C123,72.21,140.82,84.35,158.2,87.44V85.93c-16.49-3-33.15-14.33-36.44-35.1,1.7.57,11,3.65,20,3.6h1.07l-2-5.44a101,101,0,0,0,17.4,2.21V49.73a95,95,0,0,1-18.38-2.44Zm0,0"/></g><text class="cls-17" transform="translate(38.54 269.37)">litwa</text><path class="cls-4" d="M45.18.1l-29,0c-5.32,0-10.64,0-16,0l0,16c0,7,0,14,0,21A29.11,29.11,0,0,0,51.69,18.39,28.88,28.88,0,0,0,45.18.1Z"/><text class="cls-18" transform="translate(15.8 31.85)">07</text></svg>