<svg id="Слой_1" data-name="Слой 1" xmlns="http://www.w3.org/2000/svg" viewBox="0 0 195.59 280.63"><defs><style>.cls-1{fill:#2764ae;}.cls-2,.cls-8,.cls-9{fill:#288acb;}.cls-2,.cls-5{stroke:#fff;}.cls-2{stroke-width:2.5px;}.cls-2,.cls-4{fill-rule:evenodd;}.cls-3,.cls-4{fill:#f7e822;}.cls-3{isolation:isolate;opacity:0.99;}.cls-5{fill:#515ca6;stroke-width:2px;}.cls-10,.cls-6{fill:#fff;}.cls-7{fill:#fcc00d;}.cls-8{font-size:18.31px;}.cls-10,.cls-8,.cls-9{font-family:Impact;}.cls-9{font-size:24.77px;}.cls-10{font-size:20px;}</style></defs><rect class="cls-1" x="-9.21" y="-8.4" width="214.01" height="297.89"/><g id="g3297"><path id="path13477" class="cls-2" d="M44.76,12.35c-.06,27.17-.26,64.84-.26,96,0,7.71,4.07,16.14,14.06,16.14H89.32c5.89,0,7,8.37,8.48,11.13,1.51-2.76,2.58-11.13,8.47-11.13H137c10,0,14.06-8.43,14.06-16.14,0-31.2-.2-68.87-.26-96Z"/><path id="path2187" class="cls-3" d="M125.55,86.21l-22-13.83L97.77,97.53,92.08,72.37,70,86.14,84,64.38,58.52,58.71,84,53.11,70,31.32l22,13.83L97.82,20l5.69,25.16,22.07-13.77-14,21.76,25.48,5.66-25.49,5.61Z"/><path id="path3162" class="cls-4" d="M56.06,61.47c-11,73.37,90.71,76.2,84,0C132.26,117.35,63.33,118.1,56.06,61.47Z"/></g><path class="cls-5" d="M153.89,253.79v-29.1c-10.49-6.81-10.49-27.26,0-33.55v-27c0-23.07-43.25-30.67-43.25-30.67-6.29-.78-10.22-4.72-12.84-7.34-2.63,2.62-6.3,6.56-13.11,7.34.26,0-43,7.6-43,30.67v27c10.49,6.29,10.49,26.74,0,33.55v29.1C59.26,270.83,136.33,270.83,153.89,253.79Z"/><path class="cls-6" d="M125.84,231.51a64.22,64.22,0,0,1,0-33c-5.5,5.5-14.68,8.39-22,11,2.63-7.34,5.51-16.52,11-22a64.18,64.18,0,0,1-33,0c5.5,5.5,8.12,14.68,11,22-7.33-2.62-16.51-5.51-22-11a70.38,70.38,0,0,1,0,33c5.5-5.51,14.68-8.13,22-11-2.88,7.34-5.5,16.51-11,22a70.34,70.34,0,0,1,33,0c-5.5-5.51-8.38-14.68-11-22C111.16,223.38,120.34,226,125.84,231.51Z"/><path class="cls-7" d="M133.71,214.47c2.88-4.19,3.67-11.27,3.67-17.56,0-22.55-17.3-39.06-39.32-39.06-20.45,0-39.58,17-39.32,39.06-.53,6.29,1.83,13.1,3.67,17.56C62.41,163.36,133.71,163.36,133.71,214.47Z"/><path class="cls-6" d="M80,99.63c-12.64,0-22.89,10.17-22.89,30.51C57.11,155.57,75.33,181,97.8,181s40.68-25.43,40.68-50.86c0-20.34-10.24-30.51-22.88-30.51a22.86,22.86,0,0,0-17.8,8.5A22.89,22.89,0,0,0,80,99.63Zm0,0"/><rect class="cls-6" x="24.97" y="112.84" width="145.64" height="54.95" rx="5.46"/><text class="cls-8" transform="translate(29.85 136.25)">Mińsk Mazowiecki</text><text class="cls-9" transform="translate(74.52 161.32)">Orša</text><path class="cls-7" d="M44.91-.2l-29,0L0-.18l0,16c0,7,0,14,0,21A29.11,29.11,0,0,0,51.42,18.09,28.9,28.9,0,0,0,44.91-.2Z"/><text class="cls-10" transform="translate(15.53 31.55)">32</text></svg>