<svg id="Слой_1" data-name="Слой 1" xmlns="http://www.w3.org/2000/svg" viewBox="0 0 195.59 280.63"><defs><style>.cls-1,.cls-10,.cls-12{fill:#e94539;}.cls-1{stroke:#fff;}.cls-1,.cls-9{stroke-miterlimit:3.99;stroke-width:0.5px;}.cls-14,.cls-2,.cls-3{fill:#fff;}.cls-3,.cls-4,.cls-6,.cls-8{stroke:#010101;}.cls-3,.cls-4{stroke-width:0.35px;}.cls-3,.cls-4,.cls-5,.cls-6{fill-rule:evenodd;}.cls-13,.cls-4{fill:#2390cf;}.cls-5{fill:#010101;}.cls-6,.cls-7{fill:#f4e725;}.cls-6,.cls-8{stroke-width:0.4px;}.cls-8,.cls-9{fill:none;}.cls-9{stroke:#c51628;}.cls-10{font-size:19.11px;letter-spacing:0.02em;}.cls-10,.cls-12,.cls-14{font-family:Impact;}.cls-11{letter-spacing:0em;}.cls-12{font-size:24.77px;}.cls-14{font-size:20px;}</style></defs><rect class="cls-1" x="-6.62" y="-8.4" width="214.01" height="297.89"/><path class="cls-2" d="M40.14,101.5c0,.11,0,.22,0,.33V102c0,.7.1,1.4.18,2.09a.13.13,0,0,0,0,.06c.09.83.2,1.64.33,2.45l.12.66c.1.57.21,1.13.33,1.69.06.3.13.59.2.89s.13.57.2.85h0l0,.07h0l.15.52c.1.37.21.74.32,1.11s.26.87.4,1.29.24.74.37,1.1.3.84.46,1.25.29.73.44,1.09l.51,1.19c.17.36.33.72.51,1.08L45,120v0h0v0c.07.15.15.29.23.43.27.53.55,1,.84,1.57.13.23.24.46.37.68h0a.21.21,0,0,1,0,.06h0l.13.21c.36.61.74,1.21,1.12,1.8.11.16.2.33.31.49.49.73,1,1.46,1.54,2.16l.58.74c.37.47.73.93,1.12,1.38.23.28.48.56.72.83s.72.81,1.09,1.21c.12.13.23.26.36.39l.67.68.43.43c.56.55,1.13,1.1,1.72,1.63h0l.08.07h0c.56.49,1.12,1,1.7,1.44l.43.35c.47.37.94.74,1.41,1.09l.64.47c.43.32.86.62,1.31.92l.67.46.38.26h0c.46.31.93.6,1.41.89l.12.07c.7.43,1.41.84,2.14,1.24l.33.18c.59.31,1.18.62,1.78.92l.62.31,1.62.76.63.28c.73.31,1.46.62,2.21.91l.26.1c.66.25,1.33.5,2,.73l.83.28.84.28h0l.2.06h0l.46.13c.5.16,1,.3,1.53.44l1.15.32c.54.14,1.09.27,1.63.39l1.11.25c.59.13,1.18.24,1.78.35l1,.19c.65.11,1.3.2,2,.29l.74.11h0a70.29,70.29,0,0,0,9,.58,62.45,62.45,0,0,0,8.71-.61h.08l.81-.14c.67-.1,1.34-.2,2-.33l1-.21c.58-.12,1.15-.23,1.72-.37l1.13-.29c.53-.13,1.05-.26,1.57-.41s.78-.24,1.17-.36l1.2-.36h0l.2-.06h0l.13-.05c1.09-.36,2.15-.75,3.2-1.17l.73-.31c.82-.34,1.63-.69,2.44-1.07l.86-.41c.88-.43,1.75-.87,2.61-1.34l.38-.2c1-.55,1.94-1.13,2.88-1.72l.21-.13,1.09-.73.73-.49c.68-.47,1.35-1,2-1.45.19-.14.36-.29.54-.43.48-.38,1-.75,1.43-1.14l.74-.64.79-.67h0a.23.23,0,0,1,.07-.07h0l.37-.34.48-.45.21-.19.27-.27c.67-.64,1.31-1.29,1.94-1.95.19-.2.37-.4.56-.59.63-.69,1.24-1.39,1.84-2.11.1-.13.21-.25.31-.37.67-.82,1.32-1.67,1.93-2.52l.53-.76c.43-.62.86-1.26,1.26-1.9l.34-.5h0l0-.07h.44V122l0-.06c.51-.85,1-1.72,1.44-2.6l.12-.23q.6-1.17,1.14-2.37l.32-.77c.28-.63.54-1.28.79-1.93q.18-.45.33-.9c.23-.63.44-1.25.64-1.88.05-.17.12-.34.17-.51h0l0-.07h0c.05-.14.08-.29.12-.43.18-.6.34-1.21.49-1.82.08-.32.17-.64.24-1,.15-.64.28-1.29.41-2,0-.29.12-.59.17-.88.13-.79.24-1.59.34-2.38,0-.17.05-.34.07-.5.11-1,.19-1.94.24-2.92a.31.31,0,0,1,0-.1h0v-.06h0v-.13c0-.78.06-1.57.06-2.36l-.12-84H39.89Z"/><g id="Слой_1-2" data-name="Слой_1"><path id="path10" class="cls-3" d="M97.8,266.53c23.07,0,43.52-3,56.9-7.68V232a19.53,19.53,0,0,1,0-28c0-22.51-7.6-39-21.06-51.65-11-10.31-27.08-14.57-35.84-25.58C89,137.79,72.94,142.05,62,152.36,48.49,165,40.92,181.5,40.89,204a19.53,19.53,0,0,1,0,28v26.85C54.27,263.53,74.73,266.53,97.8,266.53Z"/><path id="path12" class="cls-4" d="M97.8,262.88c22.21,0,41.7-2.88,53.47-7.28V233.87a23.26,23.26,0,0,1,0-31.73c-.45-20.38-7.45-36.13-20.56-47.54-10.19-8.86-25.66-13.81-32.91-22.64-7.26,8.83-22.73,13.78-32.92,22.64C51.77,166,44.77,181.76,44.33,202.14a23.29,23.29,0,0,1,0,31.73V255.6C56.09,260,75.59,262.88,97.8,262.88Z"/><polygon id="polygon14" class="cls-3" points="119.63 247.47 124.18 247.47 125.47 249.08 125.47 243.89 121.33 243.89 121.33 240.12 125.47 240.12 125.47 237.56 121.33 237.56 121.33 233.79 125.47 233.79 125.47 229.11 128.22 229.11 128.22 233.79 132.36 233.79 132.36 237.56 128.22 237.56 128.22 240.12 132.36 240.12 132.36 243.89 128.22 243.89 128.22 249.08 129.51 247.47 134.06 247.47 126.84 256.5 119.63 247.47"/><path id="path16" class="cls-5" d="M131.55,163.12a2.6,2.6,0,0,1-2.93,1.62l.08-1.84A3.9,3.9,0,0,0,131.55,163.12Z"/><path id="path18" class="cls-5" d="M130.33,166.25a2.57,2.57,0,0,1-3.23.86l.52-1.76A3.85,3.85,0,0,0,130.33,166.25Z"/><path id="path20" class="cls-5" d="M123.59,156.51a2.59,2.59,0,0,1-1.23,3.11l-1.11-1.47a3.91,3.91,0,0,0,2.34-1.64Z"/><path id="path22" class="cls-5" d="M112,155.74a2.58,2.58,0,0,0-1.65,2.91l1.84-.06A3.85,3.85,0,0,1,112,155.74Z"/><path id="path24" class="cls-5" d="M70.57,156.93a2.58,2.58,0,0,0,2.09,2.61l.63-1.73a3.89,3.89,0,0,1-2.72-.88Z"/><path id="path26" class="cls-5" d="M92,160.19a2.6,2.6,0,0,1-2.7,2l-.16-1.84A3.9,3.9,0,0,0,92,160.19Z"/><path id="path28" class="cls-5" d="M91.56,156.72a2.59,2.59,0,0,1-2.31,2.42l-.48-1.78A3.87,3.87,0,0,0,91.56,156.72Z"/><path id="path30" class="cls-5" d="M87.4,153a2.58,2.58,0,0,1-1,3.2l-1.23-1.37A3.91,3.91,0,0,0,87.4,153Z"/><path id="path32" class="cls-5" d="M125,214.41a2.59,2.59,0,0,1-3-1.56l1.58-.94A3.89,3.89,0,0,0,125,214.41Z"/><path id="path34" class="cls-5" d="M130.15,207.8a2.59,2.59,0,0,1-3.25.78l.57-1.76A3.86,3.86,0,0,0,130.15,207.8Z"/><path id="path36" class="cls-5" d="M127.84,201a2.6,2.6,0,0,1-2.15,2.57l-.6-1.75a3.88,3.88,0,0,0,2.75-.82Z"/><path id="path38" class="cls-5" d="M120.6,199a2.59,2.59,0,0,0-2.84,1.77l1.65.83A3.87,3.87,0,0,1,120.6,199Z"/><path id="path40" class="cls-6" d="M105.89,239.79c-1.74-2.29-5.15-2.07-8.89-2.09a34.59,34.59,0,0,1-5.33-.26c1.3-.09,3.39-.27,5.61-.56C101.25,236.36,105.89,235.27,105.89,239.79Z"/><path id="path42" class="cls-7" d="M130.52,225.12a1,1,0,0,1-.57.59,7.48,7.48,0,0,1-1.63.27l0,.11c.56,0,1.11,0,1.67,0l.45,0a1,1,0,0,1,.95.66,1.11,1.11,0,0,1,0,.84.93.93,0,0,1-.95.55l-.82,0-1-.06.47.14a1.47,1.47,0,0,1,.92,1.06,1.38,1.38,0,0,1,0,.57,1,1,0,0,1-.22.49.89.89,0,0,1-.85.29c-.78-.09-1.54-.16-2.3-.19a14.32,14.32,0,0,0-2.26.11,3.87,3.87,0,0,1-1.5.35,2.13,2.13,0,0,1-1.25-.38,2.44,2.44,0,0,1-.85-1.09,5.61,5.61,0,0,1-.38-2.09,23.61,23.61,0,0,1-7.54.72,17.26,17.26,0,0,1-6.89-2,10.43,10.43,0,0,1-4.44,2.7,7.71,7.71,0,0,1-.62,1.29,6.68,6.68,0,0,1-.81,1.07c-1.53,1.64-3.78,2.26-6.54,2h-.13a1.44,1.44,0,0,0-1,.53,1.93,1.93,0,0,0-.45,1,10.25,10.25,0,0,1,4.34-1c1.09.13,1.67.81,1.53,2.22v0l0,0,0,0h0a1,1,0,0,1-.15.13l-.17.12a2.2,2.2,0,0,1-1.25.35h-.09l0-.09c.09-.52-.18-.77-.66-.85a10.6,10.6,0,0,0-3.07.34l-.76.15A2,2,0,0,0,93,238.45a11.06,11.06,0,0,0,3.75.34h.05l.92,0a7.25,7.25,0,0,1,2.22.1h0c.54.17.79.56.54,1.34h0l0,.13h0a1.48,1.48,0,0,0,0,1.37h0l.15.25h0a1.89,1.89,0,0,1,.11.25,1.07,1.07,0,0,1-.27,1.3h0l0,0a5.15,5.15,0,0,1-.45.32,4.11,4.11,0,0,1-.51.27,7.34,7.34,0,0,1-3.07.61l.07,0a5.08,5.08,0,0,1-3.81,3,16.88,16.88,0,0,1-6.11-.11,3.16,3.16,0,0,0-.5.75,6.77,6.77,0,0,0-.39,1l0,.11-.1-.07a3.16,3.16,0,0,1-.85-1.06,3.36,3.36,0,0,1-.31-1.19,1.6,1.6,0,0,0-.58.23,1.32,1.32,0,0,0-.5.6l0,.1-.09-.06a2.39,2.39,0,0,1-.66-.81h0a2.69,2.69,0,0,1-.26-.89,1.83,1.83,0,0,1-.26-.11,2.49,2.49,0,0,1-.34-.2h0a2.9,2.9,0,0,1-1.35-2.23h0a3.69,3.69,0,0,1-.85-2.4h.06a2.67,2.67,0,0,1-.61-2.75,8.46,8.46,0,0,1-.62-1.86l0-.16,0-.09h.39a1.66,1.66,0,0,1,.49.16,4.15,4.15,0,0,1-.13-.87,6.28,6.28,0,0,1,.44-2.46c.08-.23.19-.51.29-.79h0a27.05,27.05,0,0,0,1.45-4.68l0-.21.11.18a7.81,7.81,0,0,0,1.83,2.28l0-.3c-.2-2.16-.4-4.34,1.15-6.06a6.47,6.47,0,0,0,1.46-2.6,7.62,7.62,0,0,0,.18-3.23l0-.14.13.05a2.94,2.94,0,0,1,1,.64,5.24,5.24,0,0,1,.89,1.16,4.88,4.88,0,0,0,.31-1.28,11.54,11.54,0,0,0,0-1.44v-.15h0c0-1.64.12-3.31.26-5s.32-3.54.53-5.34a20.18,20.18,0,0,1-1.58-3.21,25.8,25.8,0,0,1-1-3.4c-.68-2.9-1.78-5.51-3.09-6.78a3.58,3.58,0,0,0-.78-.58,1.91,1.91,0,0,0-.81-.23h0a2.77,2.77,0,0,0-.66.05,2.34,2.34,0,0,0-1.67,1.43,6.89,6.89,0,0,0-.53,2.63,15.65,15.65,0,0,0,.29,3.51,42.41,42.41,0,0,0,1.56,5.29,26.61,26.61,0,0,1,1.91,8.48c0,2.32-.59,5.41-2.43,7.08a4.42,4.42,0,0,1-1.23.8,4.9,4.9,0,0,1-1.54.38h-.11A4.38,4.38,0,0,1,73,219.49a14.26,14.26,0,0,1-1.49-4.94,2.9,2.9,0,0,1-1.73-1.64,3.82,3.82,0,0,1-.18-.51,5.05,5.05,0,0,1-.12-.56h0a3,3,0,0,1,.91-2.67,2.16,2.16,0,0,1,.43-.29l.07,0a10.78,10.78,0,0,0-.14-2.44c0-.15,0-.31-.08-.45a3.53,3.53,0,0,0-.08-.4h0l0-.21.18.13a3.25,3.25,0,0,1,1,1.16,7.7,7.7,0,0,1,.55,1.6,2.93,2.93,0,0,1,2.26,1.68,3.87,3.87,0,0,1,.25.59,4.54,4.54,0,0,1,.14.66v0h0a3.24,3.24,0,0,1-.83,2.69,2.43,2.43,0,0,1-.38.34h0a2.88,2.88,0,0,1-.38.22c.15.57.33,1.19.53,1.75q.06.18.12.33l.12.32h0a3,3,0,0,0,1,1.26,2.32,2.32,0,0,0,1.06.42,2.22,2.22,0,0,0,1.13-.15,3.08,3.08,0,0,0,1.26-1c2.39-3.28.74-8.27-.89-13.2l-.07-.22-.41-1.21c-1-2.92-2.18-6.35-1.28-9.21h0A5.94,5.94,0,0,1,77.3,191,5.56,5.56,0,0,1,80,189.54a5.88,5.88,0,0,1,3.08.15,6.51,6.51,0,0,1,2.64,1.61l.2-.53c.41-1.12.84-2.3,1.15-3.45.82-3.11.72-6-3.25-7.09a23.64,23.64,0,0,1-4.5-1.6,8.45,8.45,0,0,1-3.11-2.42l-.13-.17.21.05a17.67,17.67,0,0,0,2.43.33,11,11,0,0,0,1.91,0,6.32,6.32,0,0,1-2-1A4.65,4.65,0,0,1,77,173.2L77,173l.16.06a6.86,6.86,0,0,0,2.52.5,44.46,44.46,0,0,1-2.13-6.4,25.68,25.68,0,0,1-.75-6.53l-.09,0a5.71,5.71,0,0,1-2.19.5,2.45,2.45,0,0,1-2.16-1.12,1.8,1.8,0,0,1-.2-.47,2.45,2.45,0,0,1-.07-.56h0V159h0a2.42,2.42,0,0,1,0-.25,2.79,2.79,0,0,1,.92-1.44,2.41,2.41,0,0,1,1.47-.68l.19,0a4.7,4.7,0,0,1,2.08,1.14c.12.11.23.21.33.32l.22.24a13.37,13.37,0,0,1,3-3.33,5.31,5.31,0,0,1,4.44-.74,2.55,2.55,0,0,1,1.75,1,1.79,1.79,0,0,1,.27.94,1.74,1.74,0,0,1-.11.55,2.52,2.52,0,0,1,2.55.51,2.39,2.39,0,0,1,.54.74,1.79,1.79,0,0,1,.15.84,1.43,1.43,0,0,1-.38.84h0a3,3,0,0,1,.42,1.53,1.63,1.63,0,0,1-.5,1.14h0a2.4,2.4,0,0,1-1.23.58,5.39,5.39,0,0,1-2.71-.27l-.78-.27c-1.72-.58-3.56-1.21-5.3-1.72a28.84,28.84,0,0,0,3.69,8.56,15.32,15.32,0,0,0,5.93,5.32,2.8,2.8,0,0,1,1-1.84,4.17,4.17,0,0,1,.4-.3,4.87,4.87,0,0,1,.45-.27h0l.07,0,.15-.08,0,.17a8.53,8.53,0,0,0,0,3.08c.78-1.87,1.76-2.82,3-2.85h.13l-.05.11A12,12,0,0,0,93,176.38a4.58,4.58,0,0,0,1.23,3.55A20.14,20.14,0,0,1,99,188.24a11.5,11.5,0,0,1,.26,1.3,8.37,8.37,0,0,1,2.37-.47,14.16,14.16,0,0,1,2.39.14h0c.23,0,.44,0,.64,0a5.1,5.1,0,0,0,.57,0,2.87,2.87,0,0,0,2-1.22c1.36-2,.84-3.71.24-5.73h0v0h0a29.61,29.61,0,0,1-.85-3.74,30.86,30.86,0,0,1-.35-3.7,4.52,4.52,0,0,1-2.41-2.59,8.2,8.2,0,0,1-.26-3.78l0-.21.12.17a8.41,8.41,0,0,0,1.12,1.37,7.84,7.84,0,0,0,1.06.84l-.17-.33c-.1-.21-.19-.43-.27-.64a5.62,5.62,0,0,1-.06-3.54l.06-.2.1.19a10.46,10.46,0,0,0,.9,1.58,3.85,3.85,0,0,1,1.46-.35h.31l.27,0c.63-.77,1.27-1.47,1.9-2.12s1.23-1.2,1.84-1.75a5.45,5.45,0,0,1-2.29-2,2.62,2.62,0,0,1-.19-.46,2.47,2.47,0,0,1-.11-.47h0a2.89,2.89,0,0,1,.3-1.73,1.92,1.92,0,0,1,.89-.85,2,2,0,0,1,1.21-.17,2.75,2.75,0,0,1,1.52.84,4,4,0,0,1,1.06,2.63,4.18,4.18,0,0,1,0,.51,1.36,1.36,0,0,1,0,.2,28.94,28.94,0,0,1,2.4-2.42,8.31,8.31,0,0,1,2.61-1.63h0a3.23,3.23,0,0,1,2.27,0h0a2,2,0,0,1,.32.18h0a1.84,1.84,0,0,1,.25.23h0a1.84,1.84,0,0,1,0,2.6,4.25,4.25,0,0,1-1.26,1,35.46,35.46,0,0,1,3.71-.31h1.74c.15,0,.29,0,.42,0h0a2.88,2.88,0,0,1,1.67.69,1.77,1.77,0,0,1,.58,1.35,1.09,1.09,0,0,1,0,.18h0a1.86,1.86,0,0,1-.06.34,2,2,0,0,1-1.08,1.4l.06,0a4.33,4.33,0,0,1-1.18,1.85,4.93,4.93,0,0,1-1.91,1.18,4.07,4.07,0,0,1-2.4.08,5.4,5.4,0,0,1-2.38-1.49l-1.2-1c-.38-.29-.72-.55-1-.78h0a4.55,4.55,0,0,0-1.84-1,1.84,1.84,0,0,0-1.79.76h0a26.29,26.29,0,0,0-1.91,1.9,15.75,15.75,0,0,0-1.73,2.4,16.08,16.08,0,0,0-1.12,7,8.74,8.74,0,0,0,2.94,5.74,4.77,4.77,0,0,1,3.49-2.48,3.82,3.82,0,0,1,.83,0,3.18,3.18,0,0,1,.81.26h0l.12.06-.11.08-.51.35a6.31,6.31,0,0,0-2.95,3.64,6.42,6.42,0,0,1,2-1.31,2.24,2.24,0,0,1,2.07.18l.1.06-.1.07a6.36,6.36,0,0,0-2.85,3.43,5,5,0,0,0-.19.87,5.69,5.69,0,0,0,0,.93v0q0,.5.06,1c.13,1.89.27,3.75-1.52,5.19a5,5,0,0,1-3.51.93,16.34,16.34,0,0,1-4-.81l-.41-.14c-1-.34-2-.7-2.73.68a28.2,28.2,0,0,1-1.56,2.57c-.54.79-1.1,1.52-1.67,2.23a35.23,35.23,0,0,1,4,7.29,7.58,7.58,0,0,1,1,1.46,6.09,6.09,0,0,1,.74,3,6.23,6.23,0,0,0,.88.26h0a6.26,6.26,0,0,0,.74.1,8.75,8.75,0,0,1-1.3-2,5.66,5.66,0,0,1-.47-2.36v-.12l.11.05c3.64,1.6,8.41-.23,10.63-1.08h0l.27-.11c0-.13,0-.27,0-.43a19.09,19.09,0,0,1-.14-3.12c.1-1.6.6-3,2.2-2.92a1,1,0,0,1,.25.05,1.23,1.23,0,0,1,.79.92,4.57,4.57,0,0,1,.13,1.5,7.72,7.72,0,0,1-.18,1.22,13.19,13.19,0,0,1,2.84-2.11,4.27,4.27,0,0,1,1.67-.51,1.88,1.88,0,0,1,1.46.55,2.51,2.51,0,0,1,.46.65,2.26,2.26,0,0,1,.26.77h0a1.68,1.68,0,0,1-.8,1.6,6,6,0,0,1-2.08.87l-.16,0,1,0c.81,0,1.62-.05,2.14,0h0a1.41,1.41,0,0,1,1.3.93,2,2,0,0,1,.12.79,2.54,2.54,0,0,1-.2.8,1.86,1.86,0,0,1-1.69,1.15,24.24,24.24,0,0,1-3.16-.16c-.51-.06-1-.13-1.54-.21a6.26,6.26,0,0,1,2.58,1.72h0a1.77,1.77,0,0,1,.26,1.52,2.08,2.08,0,0,1-.56.92,2.44,2.44,0,0,1-.93.58,2.06,2.06,0,0,1-1.74-.22,8.26,8.26,0,0,1-2.47-2.85c-.14-.25-.29-.51-.43-.78s-.25-.51-.37-.78a28.43,28.43,0,0,0-7.59,4.79,11.67,11.67,0,0,0-3.59,5.74h0c0,.38-.08.73-.13,1l.24-.16a5.49,5.49,0,0,0,1.49-1.54l.14-.22v.26c0,.56,0,1.11,0,1.64a14.47,14.47,0,0,0,1.26.75c.47.25,1,.49,1.51.71a16.56,16.56,0,0,0,9.37,1.14,5.59,5.59,0,0,0,1.7-.72h0a6.87,6.87,0,0,1,1.39-.66h0a2.09,2.09,0,0,1,.34-.08,2,2,0,0,1,.34,0,1.76,1.76,0,0,1,1.51.6h0l.41,0c.5-.07,1.11-.14,1.55-.18h0a1.18,1.18,0,0,1,1.1.43h0a1.17,1.17,0,0,1,.17.38h0a.86.86,0,0,1,0,.39h0a.82.82,0,0,1-.66.54l-.4.08,0,.09a13.12,13.12,0,0,1,1.71-.1,1.09,1.09,0,0,1,.84.37.91.91,0,0,1,.22.45,1,1,0,0,1,0,.49Z"/><path id="path44" class="cls-8" d="M118.51,162.46c2,.43,5.91-1.87,3.92-4.07a2.62,2.62,0,0,0-2.76-.42c-1.72.6-3.44,2.32-5.16,4.24a4.05,4.05,0,0,0-1-3.55c-1.75-1.75-4.06-.59-3.78,1.85.12,1.1,1,2.1,2.65,3a33.28,33.28,0,0,0-3.85,4,3.58,3.58,0,0,0-2.13.35m-7.16,21.84a9.58,9.58,0,0,1,4.74-.33,3.19,3.19,0,0,0,3.29-1.24c1.39-2,.85-3.79.24-5.83a29.85,29.85,0,0,1-1.2-7.47c-2.53-1.23-3-3.53-2.66-6.31a7.36,7.36,0,0,0,2.5,2.41,5.56,5.56,0,0,1-.67-4.74,7.46,7.46,0,0,0,2.16,2.91m11.23-5.15c2.25.35,4.29,1.4,6.06,1.79s4.09.4,4.34-1.79c.13-1.16-.85-2.13-2.58-2.16a35.41,35.41,0,0,0-6.07.42m-20.71,38a29.34,29.34,0,0,0,3.24-4.82c.86-1.63,2.13-.93,3.25-.58,2.53.8,5.57,1.41,7.43-.1,2.06-1.67,1.51-3.92,1.42-6.12a5.92,5.92,0,0,1,3.12-5.33c-1.26-.8-2.67-.08-4.16,1.33.72-2.61,2.19-3.33,3.58-4.32-1.82-.88-4.06.34-5.07,2.25-3.78-3.37-3.68-8-1.92-12.88a17.85,17.85,0,0,1,3.66-4.32c1.25-1.44,2.5-.75,3.75.25.65.48,1.37,1,2.24,1.74a4.52,4.52,0,0,0,7.74-1.57M92.06,229.49c.25-2.73-1.24-3.47-1.73-6.11-1.88,2.45-4,5.35-3.32,8.54a8.09,8.09,0,0,1,.35,3.23,3.07,3.07,0,0,0-2.69-2A4.24,4.24,0,0,1,82.29,232a5.24,5.24,0,0,0,.45,3.41A10.46,10.46,0,0,1,84,238.71m6.24-15c.33-3.46-.34-5.71-2-6.73a6.55,6.55,0,0,1-.42,2.91A3.83,3.83,0,0,0,85.9,218a6.92,6.92,0,0,1-1.66,5.89c-1.64,1.82-1.29,4.18-1.08,6.48a7.61,7.61,0,0,1-2-2.41,33.16,33.16,0,0,1-1.75,5.49,4.72,4.72,0,0,0,.42,4.73m24.45-21.76c3.46-5.89.35-9.79-5.74-12.79.89,5.18.81,9.93-2.74,13.12-1-1.47-2.19-2.74-4.33-2.66a6.4,6.4,0,0,1,.17,6.32m3.33,7.8a8.35,8.35,0,0,1,.91-4.4c-2.19.39-3,2-4.57,2.41m3.41,4.57q4.91,0,6.82-3.32A11.59,11.59,0,0,1,96.8,227c4.17-1.53,8.11-2.87,9.51-6.29-3.14,1-4.79-.71-7.43,1.89m5.15-15c-1.44-3.9-4-7.43-6.15-10.38,3.05-6.22,1.06-11.83-3.74-17.19-2.06-2.3-1.26-4.85-.09-7.48q-1.83,0-3,3.07a8.82,8.82,0,0,1,0-3.4,3,3,0,0,0-1.91,2.49c-4.93-2.35-8-7.34-9.82-14.12,2.06.59,4.24,1.36,6.22,2,2.93,1,5.34-.26,3.93-2.86m-9.4-.25a12.9,12.9,0,0,0,8.57.66c2.57-.85.53-4.32-2.16-3.21m-6.91,1.3a19.09,19.09,0,0,0,4.9,0c2.79-.51,3-3.44.26-3.94-3.68-.83-5.5,1.38-7.46,4.12a5.2,5.2,0,0,0-2.66-1.75c-1-.18-2.49,1.18-2.51,2.27a2.16,2.16,0,0,0,2.36,2.16,6.12,6.12,0,0,0,2.37-.57c-.13,4.49,1.14,8.82,2.91,13.12a6.74,6.74,0,0,1-2.66-.49,5.25,5.25,0,0,0,3.9,3.23,13.52,13.52,0,0,1-4.74-.24c1.47,2,4.24,3.1,7.57,4,5.81,1.54,3.48,7,1.92,11.3-3.24-3.31-8.49-2.31-9.87,2.06-1,3.24.65,7.23,1.69,10.37,1.65,5,3.39,10.12.94,13.49a2.5,2.5,0,0,1-4.54-.52,17.85,17.85,0,0,1-.79-2.47,3,3,0,0,0,1.59-3.2,3.13,3.13,0,0,0-2.63-2.89,4.58,4.58,0,0,0-1.5-2.77,11.93,11.93,0,0,1,.29,3.36m.37-.11a2.64,2.64,0,0,0-1.77,3,3.06,3.06,0,0,0,2,2.66c.48,3.23,1.59,7.57,5.68,7.35s5.27-4.94,5.23-8.18c-.06-5-2.51-9-3.47-13.75-.44-2.15-.93-7.86,2.66-7.72,2,.08,3.82,3.58,4.78,7.65A20.94,20.94,0,0,0,89,206.44a103.16,103.16,0,0,0-.8,10.59M106,220.81a5.26,5.26,0,0,0,2.12-1.92c.08,4.41-1.42,8.05-6.71,9.82-1.27,3.4-4.11,4.7-7.9,4.37a1.77,1.77,0,0,0-1.73,1.76c3.69-1.44,6.14-1.59,5.88,1.13a2.08,2.08,0,0,1-1.53.59c.26-1.58-2.39-.85-4.64-.44-.2,2.69,2.22,2.8,5.18,2.75,2.1,0,4.22-.45,3.65,1.3-.18.56-.39,1.06,0,1.56s.56,1.22,0,1.7a6.42,6.42,0,0,1-4.23,1.2,8.7,8.7,0,0,1-6.23-3.18m6.46,3.26c-1.44,3.32-5.28,3.56-9.87,2.82a4.48,4.48,0,0,0-.94,1.82,3,3,0,0,1-1.13-2.27,1.53,1.53,0,0,0-1.24.89,2.38,2.38,0,0,1-.9-1.7,2.93,2.93,0,0,1-1.94-2.47m1.64.85a3.1,3.1,0,0,1-2.47-3.25m2,1.19c-1.84-.7-3.12-2.1-2.53-3.91m6.5,5.24a29.81,29.81,0,0,1-5.89-4.39,6.4,6.4,0,0,1-1.26-2.92,1.44,1.44,0,0,1,.93.28m26.51-24.45c1.09,2,.89,6.67.55,8.39m13.51-15c1.54.07,7.87-.4,6.28-3.51-1.45-2.84-5.14.27-6.51,1.64.31-1,.61-3.78-.85-3.87-2.82-.17-2.09,4.59-1.92,6.44-2.06.78-7.16,2.91-11,1.21a6.61,6.61,0,0,0,1.87,4.49,6,6,0,0,1-1.87-.39m14-3.39a31.33,31.33,0,0,0,6.37.66c2.09,0,2.52-3.36.46-3.51-.93-.07-2.87.06-4,0M106.43,219.5c1-4.17,4.86-7.69,11.29-10.61a10.47,10.47,0,0,0,3.28,4.45c1.73,1.09,4-1,2.86-2.7-.62-.9-2-1.44-3.09-1.95m3.61,16.67a2.47,2.47,0,0,1,.16,3.2,6.19,6.19,0,0,1,4.47-.24c1.24.46,1.23,2.41-.08,2.25a18.1,18.1,0,0,0-4.59-.08c-2.32,1-3.88-.2-3.88-3.24-5.31,1.35-10.15,1.08-14.52-1.26m4.63-2.49a3.76,3.76,0,0,1-2.61-2m.16-.95c2.78,1.88,7.87,3.57,12.24,2.63,1.25-.27,1.94-1,3.09-1.38a1.9,1.9,0,0,1,2.12.45m.91,1.66c-1.68.23-1.59-1.54-.87-1.62.53-.07,1.39-.19,2-.24,1.25-.11,1.66,1.34.56,1.58-.48.1-1.07.19-1.66.28Zm3.44,1.69a.9.9,0,0,0-.44-1.73,16.73,16.73,0,0,0-2.81.23c-1.31.18-.8,1.8.36,1.82a10.77,10.77,0,0,0,2.89-.32Zm.51,2.49a1,1,0,1,0,0-1.89,15.16,15.16,0,0,0-3.16,0,.88.88,0,0,0,.12,1.73c1,0,2,.07,3,.12Z"/><path id="глаз" class="cls-5" d="M93,245.12a1.25,1.25,0,0,1-1.24-1.24,1.17,1.17,0,0,1,.17-.61,8,8,0,0,0,2.23,1,1.24,1.24,0,0,1-1.16.8Z"/></g><g id="layer1"><g id="g4564"><g id="g4544"><path id="path1737" class="cls-1" d="M117,53V60.4h5.71l-4-7.38Zm0,14.83v4h14.79v-4Z"/><path id="path1655" class="cls-1" d="M109.45,36.24v2.07h1.13Zm0,9.53v7.38h9.27l-4-7.38Z"/><path id="path1661" class="cls-1" d="M96.86,16.1l-2.47,4.51v2.87h8.06l-4-7.38ZM94.39,30.94v7.37h15.17V36.44l-3-5.5Zm0,14.83v1.11L95,45.77Zm5.91,0,3.87,7.38h5.39V45.77Z"/><path id="path1663" class="cls-1" d="M101.92,23.41v7.37h4.53l-4-7.37Zm0,14.83v7.38h12.67l-4-7.38Z"/><path id="path1667" class="cls-1" d="M94.5,20.41l-1.68,3.07H94.5ZM88.74,30.94l-4,7.37H94.5V30.94ZM80.61,45.77l-1.27,2.32v5.06H91.11l3.39-6.48v-.9Z"/><path id="path1669" class="cls-1" d="M97.63,14.7,97,16h1.37Zm-4.77,8.71-4,7.37H102V23.41Zm-6,14.83v7.38h8.18l2.58-4.94,2.6,4.94H102V38.24Z"/><path id="path1683" class="cls-1" d="M79.45,47.9l-2.88,5.25h2.88Z"/><path id="path1685" class="cls-1" d="M84.73,38.24l-4,7.38H87V38.24Z"/><path id="path1729" class="cls-1" d="M124.51,63.7v4.22h7.26v-.18h-5.05Z"/><path id="path1735" class="cls-1" d="M109.45,60.55v7.37h15.16v-4l-1.83-3.34Z"/><path id="path1743" class="cls-1" d="M94.39,60.55v1.71h12.19L109,67.74l-2.68,0v.21h3.2V60.55Z"/><path id="path1745" class="cls-1" d="M104.1,53l2.67,5.08h-4.85v2.3h15.17V53Zm2.25,14.83.15,4h10.59v-4Z"/><path id="path1749" class="cls-1" d="M79.34,60.55v7.37h9.58v-.21l-2.66,0,2.42-5.48H94.5V60.55Z"/><path id="path1751" class="cls-1" d="M86.87,53V60.4H102V58.1H88.53L91.18,53Zm0,14.83v4h1.92l.13-4Z"/><path id="path1757" class="cls-1" d="M72.52,60.55l-4,7.19H64.28v.18H79.45V60.55Z"/><path id="path1759" class="cls-1" d="M76.64,53l-4,7.38H87V53ZM71.81,67.85v4H87v-4Z"/><path id="path1763" class="cls-1" d="M63.52,67.74v.18h.87v-.18Z"/><path id="path1765" class="cls-1" d="M63.52,67.85v4h8.4v-4Z"/></g><path id="path6847" class="cls-1" d="M56,134.78a54.51,54.51,0,0,0,6.54,5v-5Z"/><rect id="rect4700" class="cls-1" x="53.13" y="74.72" width="17.9" height="11.95"/><rect id="use4704" class="cls-1" x="71.03" y="74.72" width="17.9" height="11.95"/><rect id="use4710" class="cls-1" x="121.55" y="74.64" width="17.89" height="11.95"/><rect id="rect4726" class="cls-1" x="44.68" y="86.73" width="17.9" height="11.95"/><rect id="use4730" class="cls-1" x="62.58" y="86.73" width="17.9" height="11.95"/><rect id="rect4734" class="cls-1" x="130.99" y="86.66" width="17.89" height="11.95"/><rect id="use4736" class="cls-1" x="113.1" y="86.66" width="17.89" height="11.95"/><rect id="rect4752" class="cls-1" x="53.13" y="98.74" width="17.9" height="11.95"/><rect id="use4756" class="cls-1" x="71.03" y="98.74" width="17.9" height="11.95"/><rect id="use4762" class="cls-1" x="121.55" y="98.68" width="17.89" height="11.95"/><path id="rect4778" class="cls-1" d="M44.68,110.75V120c.45.91.93,1.8,1.44,2.68H62.58v-12Z"/><rect id="use4782" class="cls-1" x="62.58" y="110.75" width="17.9" height="11.95"/><rect id="rect4786" class="cls-1" x="130.99" y="110.7" width="17.89" height="11.95"/><rect id="use4788" class="cls-1" x="113.1" y="110.7" width="17.89" height="11.95"/><path id="rect4804" class="cls-1" d="M53.13,122.76V132c.91.95,1.85,1.86,2.83,2.74H71v-12Z"/><rect id="use4808" class="cls-1" x="71.03" y="122.76" width="17.9" height="11.95"/><path id="use4814" class="cls-1" d="M121.54,122.72v11.95h16.83c.36-.32.71-.65,1.06-1v-11Z"/><path id="use4834" class="cls-1" d="M62.58,134.78v5a59.94,59.94,0,0,0,14.79,6.95h3.1V134.78Z"/><path id="rect4838" class="cls-1" d="M131,134.74v5.55a58.17,58.17,0,0,0,7.32-5.55Z"/><path id="use4840" class="cls-1" d="M113.1,134.74v11.95h4.44a59.57,59.57,0,0,0,13.44-6.4v-5.55Z"/><path id="use4744" class="cls-1" d="M80.47,86.73v12h8.47v-12Zm0,24v12h8.47v-12Zm0,24v11.94h8.47V134.78Z"/><path id="use4860" class="cls-1" d="M77.57,146.78a65.59,65.59,0,0,0,11.35,2.47v-2.47Z"/><path id="use4702" class="cls-1" d="M39.79,74.72l0,11.94H53.13V74.72Zm.05,24V102a48.32,48.32,0,0,0,1.37,8.69H53.13V98.74Zm6.32,24a49,49,0,0,0,7,9.21v-9.21Z"/><path id="use4720" class="cls-1" d="M121.54,74.64H106.65V86.59h14.89Zm-14.89,24v11.95h14.89V98.68Zm0,24v11.95h14.89V122.72Zm0,24v2.48a61.71,61.71,0,0,0,10.7-2.48Z"/><path id="use4728" class="cls-1" d="M39.82,86.73l0,12h4.84v-12Zm1.41,24A46.49,46.49,0,0,0,44.68,120v-9.26Z"/><path id="use4738" class="cls-1" d="M148.87,86.66v12H156v-12Zm0,24V122a51.58,51.58,0,0,0,5-11.26Z"/><path id="rect4708" class="cls-1" d="M139.43,74.64v12H156v-12Zm-32.78,12v12h6.45v-12Zm32.78,12v11.95h14.45A49.94,49.94,0,0,0,156,98.68Zm-32.78,12v12h6.45v-12Zm32.78,12v11a54.42,54.42,0,0,0,9-11Zm-32.78,12v11.95h6.45V134.74Z"/><path id="path8865" class="cls-9" d="M39.57,12.1l.24,89.4c1.57,28.36,27.08,48.33,58.13,48.33,32.06,0,58.08-24.05,58.08-53.7l-.11-84Z"/></g></g><path class="cls-2" d="M80,99.63c-12.64,0-22.89,10.17-22.89,30.51C57.11,155.57,75.33,181,97.8,181s40.68-25.43,40.68-50.86c0-20.34-10.24-30.51-22.88-30.51a22.86,22.86,0,0,0-17.8,8.5A22.89,22.89,0,0,0,80,99.63Zm0,0"/><rect class="cls-2" x="24.97" y="112.84" width="145.64" height="54.95" rx="5.46"/><text class="cls-10" transform="translate(53.64 133.84)">A<tspan class="cls-11" x="10.18" y="0">. Kujawski</tspan></text><text class="cls-12" transform="translate(59.84 159.7)">Slonim</text><path class="cls-13" d="M150.58,0l29,0h16l0,16c0,7,0,14,0,21A29.09,29.09,0,0,1,150.58,0Z"/><text class="cls-14" transform="translate(159.63 31.75)">44</text></svg>