<svg id="Слой_1" data-name="Слой 1" xmlns="http://www.w3.org/2000/svg" viewBox="0 0 195.59 280.63"><defs><style>.cls-1,.cls-19{fill:#428ecc;}.cls-2{font-size:47.39px;}.cls-14,.cls-2{fill:#fff;}.cls-19,.cls-2{font-family:Impact;}.cls-3{fill:#1a1a1a;}.cls-4{fill:#9d8070;}.cls-5{fill:#b6a293;}.cls-6{fill:#83665a;}.cls-7{fill:#f8af5e;}.cls-8{fill:#fdd495;}.cls-9{fill:#f1844d;}.cls-10{fill:#f49955;}.cls-11{fill:#ed6b2f;}.cls-12{fill:#89a3aa;}.cls-13{fill:#647d8a;}.cls-15{fill:#b3b3b3;}.cls-16{fill:#97d6f2;}.cls-17{fill:#7f6456;}.cls-18{fill:#eb5a53;}.cls-19{font-size:20px;}</style></defs><rect class="cls-1" x="-285.05" y="-28.23" width="514.44" height="313.28"/><text class="cls-2" transform="translate(27.4 252.45)">Śvislač</text><rect class="cls-3" x="12.07" y="27.8" width="38.71" height="4.85"/><path class="cls-3" d="M25,120.6a62.52,62.52,0,0,0-.91,10.12v0c0,19.55,9.33,34.89,23.94,44.82s34.31,14.75,55.86,14.75h1.23v-7.75h-1.22c-20.38,0-38.64-4.67-51.51-13.42s-20.53-21.24-20.54-38.38a53.49,53.49,0,0,1,.5-5.63h72.77v-7.75H25.58Zm.56-3.21"/><path class="cls-3" d="M109.2,104.22v13.17H53.69V104.22H45.93v20.92h71V104.22Zm7.75,0"/><path class="cls-3" d="M41.19,76.4v17H82.67V85.62H48.94V84.15H82.67V76.4Zm41.48,0"/><path class="cls-3" d="M67.63,56.53V84.15h15V76.4H75.39V64.29h7.28V56.53Zm15,0"/><rect class="cls-3" x="45.93" y="44.1" width="4.85" height="50.78"/><rect class="cls-3" x="45.93" y="28.53" width="4.85" height="50.78"/><path class="cls-3" d="M80.22,56.53v7.76H87.5V76.4H80.22v7.75h15V56.53Zm15,0"/><path class="cls-3" d="M102.69,125.14h72.76a56.28,56.28,0,0,1,.52,5.64c0,17.13-7.67,29.63-20.54,38.37s-31.13,13.42-51.51,13.42h-1.23v7.75h1.22c21.56,0,41.27-4.83,55.87-14.75s23.94-25.27,23.94-44.82v0a61.56,61.56,0,0,0-.93-10.13l-.56-3.2H102.69Zm0-7.75"/><path class="cls-3" d="M45.93,85.76v20.91h7.76V93.51H109.2v13.16H117V85.76Zm71,0"/><path class="cls-3" d="M80.22,76.4v7.75h33.72v1.47H80.22v7.76h41.47v-17Zm41.47,0"/><path class="cls-4" d="M28.84,121.26a58.32,58.32,0,0,0-.85,9.49c0,36.7,34,55.7,75.93,55.7s75.93-19,75.93-55.7a59.4,59.4,0,0,0-.88-9.49Zm150.13,0"/><path class="cls-5" d="M59.69,121.26c-6.86,52.14,87.76,55,118,24.78a51.87,51.87,0,0,0,2.21-15.29,59.5,59.5,0,0,0-.88-9.49Zm119.28,0"/><path class="cls-6" d="M28.84,121.26a58.32,58.32,0,0,0-.85,9.49c0,36.7,34,55.7,75.93,55.7,29.87,0,55.7-9.64,68.1-28.45-37.41,32.35-137.73,25-129.6-36.74Zm13.58,0"/><path class="cls-7" d="M28.84,121.26a58.32,58.32,0,0,0-.85,9.49H179.85a59.4,59.4,0,0,0-.88-9.49Zm150.13,0"/><path class="cls-8" d="M59.69,121.26a37.84,37.84,0,0,0-.1,9.49H179.85a59.4,59.4,0,0,0-.88-9.49Zm119.28,0"/><path class="cls-9" d="M28.84,121.26a58.32,58.32,0,0,0-.85,9.49H42a51.39,51.39,0,0,1,.4-9.49Zm13.58,0"/><path class="cls-3" d="M28,120.3l-.14.81a57.78,57.78,0,0,0-.87,9.64c0,18.65,8.7,32.93,22.66,42.41s33.12,14.26,54.24,14.26h1.22v-1.94h-1.22c-20.82,0-39.62-4.73-53.15-13.92S29,148.8,29,130.76a56.94,56.94,0,0,1,.77-8.53h75.41V120.3Zm77.11,0"/><rect class="cls-3" x="27.99" y="129.78" width="151.86" height="1.94"/><rect class="cls-10" x="49.81" y="89.63" width="63.26" height="31.63"/><rect class="cls-11" x="49.81" y="89.63" width="63.26" height="4.37"/><rect class="cls-8" x="45.07" y="80.27" width="72.75" height="9.23"/><path class="cls-3" d="M44.1,79.3V90.47H82.67V88.53H46V81.24H82.67V79.3Zm38.57,0"/><rect class="cls-12" x="71.51" y="60.41" width="19.86" height="19.86"/><rect class="cls-13" x="71.51" y="60.41" width="7.14" height="19.86"/><rect class="cls-14" x="84.79" y="60.41" width="2.91" height="19.86"/><rect class="cls-14" x="71.51" y="60.41" width="19.86" height="5.64"/><rect class="cls-15" x="71.51" y="60.41" width="7.14" height="5.64"/><rect class="cls-3" x="71.51" y="65.07" width="19.86" height="1.94"/><path class="cls-3" d="M70.54,59.44v21.8H82.67V79.3H72.48V61.38H82.67V59.44Zm12.13,0"/><path class="cls-11" d="M90.86,96.14a9.29,9.29,0,1,0,9.38,9.31,9.35,9.35,0,0,0-9.38-9.31Zm0,0"/><path class="cls-14" d="M93.56,97.1a8.33,8.33,0,1,0,8.42,8.35,8.29,8.29,0,0,0-2.47-5.9,8.42,8.42,0,0,0-6-2.45Zm0,0"/><path class="cls-16" d="M93.56,101.43a4,4,0,0,0-2.86,6.86,4,4,0,0,0,6.91-2.84,4,4,0,0,0-4-4Zm0,0"/><path class="cls-3" d="M96.38,104.22a3,3,0,0,1,.26,1.23,3.08,3.08,0,0,1-6.15,0,3,3,0,0,1,.26-1.23h-2a5,5,0,1,0,9.71,0Zm2,0"/><path class="cls-3" d="M100.9,104.22a7.12,7.12,0,0,1,.11,1.23,7.45,7.45,0,0,1-14.89,0,7.12,7.12,0,0,1,.11-1.23h-2a9.89,9.89,0,0,0-.09,1.23,9.39,9.39,0,0,0,18.77,0,9.89,9.89,0,0,0-.09-1.23Zm2,0"/><path class="cls-11" d="M66.62,96.14A9.3,9.3,0,0,0,60,112a9.45,9.45,0,0,0,13.27,0,9.29,9.29,0,0,0-6.63-15.89Zm0,0"/><path class="cls-14" d="M69.32,97.1a8.34,8.34,0,0,0-5.95,14.25,8.47,8.47,0,0,0,5.95,2.44,8.35,8.35,0,1,0,0-16.69Zm0,0"/><path class="cls-16" d="M69.32,101.43a4,4,0,0,0-2.86,6.86,4.08,4.08,0,0,0,5.72,0,4,4,0,0,0,1.18-2.84,4,4,0,0,0-4-4Zm0,0"/><path class="cls-3" d="M72.14,104.22a3.15,3.15,0,0,1,.26,1.23,3.08,3.08,0,0,1-6.16,0,3.15,3.15,0,0,1,.26-1.23h-2a5,5,0,1,0,9.71,0Zm2,0"/><path class="cls-3" d="M76.66,104.22a8.28,8.28,0,0,1,.1,1.23,7.44,7.44,0,0,1-14.88,0,7.12,7.12,0,0,1,.1-1.23H60a9.9,9.9,0,0,0-.08,1.23,9.38,9.38,0,0,0,18.76,0,9.9,9.9,0,0,0-.08-1.23Zm2,0"/><path class="cls-3" d="M112.1,104.22v16.07H50.78V104.22H48.84v18H114v-18Zm1.94,0"/><path class="cls-4" d="M119,137.88a11.57,11.57,0,1,0,8.18,3.39,11.59,11.59,0,0,0-8.18-3.39Zm0,0"/><path class="cls-17" d="M122.85,138.85a10.6,10.6,0,1,0,10.6,10.6,10.59,10.59,0,0,0-10.6-10.6Zm0,0"/><path class="cls-16" d="M117.52,149.45a5.33,5.33,0,1,1,5.33,5.33,5.33,5.33,0,0,1-5.33-5.33Zm0,0"/><path class="cls-3" d="M132.4,148.22a9.9,9.9,0,0,1,.08,1.23,9.63,9.63,0,0,1-19.26,0,9.92,9.92,0,0,1,.07-1.23h-2c0,.41-.06.81-.06,1.23a11.57,11.57,0,0,0,23.14,0c0-.42,0-.82-.06-1.23Zm2,0"/><path class="cls-3" d="M127,148.22a4.51,4.51,0,0,1,.18,1.23,4.36,4.36,0,0,1-8.72,0,4.51,4.51,0,0,1,.17-1.23h-2a6.3,6.3,0,1,0,12.48,1.23,7.12,7.12,0,0,0-.12-1.23Zm2,0"/><path class="cls-4" d="M87.82,137.88a11.57,11.57,0,1,0,11.57,11.57,11.57,11.57,0,0,0-11.57-11.57Zm0,0"/><path class="cls-17" d="M91.63,138.85a10.61,10.61,0,1,0,10.6,10.6,10.6,10.6,0,0,0-10.6-10.6Zm0,0"/><path class="cls-16" d="M86.3,149.45a5.33,5.33,0,1,1,5.33,5.33,5.33,5.33,0,0,1-5.33-5.33Zm0,0"/><path class="cls-3" d="M80.12,148.22c0,.41-.06.81-.06,1.23a11.57,11.57,0,0,0,23.14,0c0-.42,0-.82-.06-1.23h-2a9.92,9.92,0,0,1,.07,1.23,9.63,9.63,0,0,1-19.26,0,9.9,9.9,0,0,1,.08-1.23Zm2,0"/><path class="cls-3" d="M85.45,148.22a6.3,6.3,0,1,0,12.36,0h-2a4.51,4.51,0,0,1,.17,1.23,4.36,4.36,0,0,1-8.72,0,4.16,4.16,0,0,1,.18-1.23Zm2,0"/><path class="cls-6" d="M56.6,137.88a11.57,11.57,0,1,0,11.57,11.57A11.56,11.56,0,0,0,56.6,137.88Zm0,0"/><path class="cls-17" d="M60.41,138.85A10.6,10.6,0,1,0,71,149.45a10.6,10.6,0,0,0-10.61-10.6Zm0,0"/><path class="cls-16" d="M55.08,149.45a5.33,5.33,0,1,1,5.33,5.33,5.33,5.33,0,0,1-5.33-5.33Zm0,0"/><path class="cls-3" d="M70,148.22a9.9,9.9,0,0,1,.08,1.23,9.64,9.64,0,0,1-19.27,0,9.9,9.9,0,0,1,.08-1.23h-2a10,10,0,0,0-.07,1.23,11.57,11.57,0,0,0,23.14,0c0-.42,0-.82-.06-1.23Zm2,0"/><path class="cls-3" d="M64.6,148.22a4.51,4.51,0,0,1,.17,1.23,4.36,4.36,0,0,1-8.72,0,4.51,4.51,0,0,1,.18-1.23h-2a7.12,7.12,0,0,0-.12,1.23,6.3,6.3,0,1,0,12.48-1.23Zm2,0"/><path class="cls-3" d="M122.85,137.88a11.58,11.58,0,0,0-11.57,11.57c0,.41,0,.82.06,1.22h2a8.24,8.24,0,0,1-.08-1.22,9.63,9.63,0,1,1,19.26,0,9.87,9.87,0,0,1-.08,1.22h2c0-.4.06-.81.06-1.22a11.58,11.58,0,0,0-11.57-11.57Zm0,0"/><path class="cls-3" d="M122.85,143.15a6.31,6.31,0,0,0-6.3,6.3,6.08,6.08,0,0,0,.12,1.22h2a4.14,4.14,0,0,1-.18-1.22,4.36,4.36,0,0,1,8.72,0,4.14,4.14,0,0,1-.18,1.22h2a6.08,6.08,0,0,0,.12-1.22,6.31,6.31,0,0,0-6.3-6.3Zm0,0"/><path class="cls-3" d="M91.63,137.88a11.58,11.58,0,0,0-11.57,11.57c0,.41,0,.82.06,1.22h2a9.87,9.87,0,0,1-.08-1.22,9.63,9.63,0,1,1,19.26,0,9.87,9.87,0,0,1-.08,1.22h2c0-.4.06-.81.06-1.22a11.58,11.58,0,0,0-11.57-11.57Zm0,0"/><path class="cls-3" d="M91.63,143.15a6.31,6.31,0,0,0-6.3,6.3,6.08,6.08,0,0,0,.12,1.22h2a4.14,4.14,0,0,1-.18-1.22,4.36,4.36,0,0,1,8.72,0,4.49,4.49,0,0,1-.17,1.22h2a6.08,6.08,0,0,0,.12-1.22,6.31,6.31,0,0,0-6.3-6.3Zm0,0"/><path class="cls-3" d="M60.41,137.88a11.58,11.58,0,0,0-11.57,11.57,9.87,9.87,0,0,0,.07,1.22h2a9.87,9.87,0,0,1-.08-1.22,9.64,9.64,0,1,1,19.27,0,9.87,9.87,0,0,1-.08,1.22h2c0-.4.06-.81.06-1.22a11.58,11.58,0,0,0-11.57-11.57Zm0,0"/><path class="cls-3" d="M60.41,143.15a6.31,6.31,0,0,0-6.3,6.3,6.91,6.91,0,0,0,.12,1.22h2a4.5,4.5,0,0,1-.18-1.22,4.36,4.36,0,0,1,8.72,0,4.49,4.49,0,0,1-.17,1.22h2a6.08,6.08,0,0,0,.12-1.22,6.31,6.31,0,0,0-6.3-6.3Zm0,0"/><path class="cls-3" d="M93.57,100.46a5,5,0,0,0-5,5,4.92,4.92,0,0,0,.16,1.22h2a2.93,2.93,0,0,1-.26-1.22,3.08,3.08,0,0,1,6.15,0,2.93,2.93,0,0,1-.26,1.22h2a4.92,4.92,0,0,0,.16-1.22,5,5,0,0,0-5-5Zm0,0"/><path class="cls-3" d="M93.57,96.13a9.36,9.36,0,0,0-9.38,9.32,9.87,9.87,0,0,0,.08,1.22h2a7,7,0,0,1-.11-1.22,7.45,7.45,0,0,1,14.89,0,7,7,0,0,1-.11,1.22h2a9.87,9.87,0,0,0,.09-1.22,9.37,9.37,0,0,0-9.38-9.32Zm0,0"/><path class="cls-3" d="M69.32,100.46a5,5,0,0,0-5,5,4.92,4.92,0,0,0,.16,1.22h2a3.1,3.1,0,0,1-.26-1.22,3.08,3.08,0,0,1,6.16,0,3.1,3.1,0,0,1-.26,1.22h2a4.92,4.92,0,0,0,.16-1.22,5,5,0,0,0-5-5Zm0,0"/><path class="cls-3" d="M69.32,96.13a9.36,9.36,0,0,0-9.38,9.32,9.87,9.87,0,0,0,.08,1.22h2a7,7,0,0,1-.1-1.22,7.44,7.44,0,0,1,14.88,0,8.14,8.14,0,0,1-.1,1.22h2a9.87,9.87,0,0,0,.08-1.22,9.37,9.37,0,0,0-9.38-9.32Zm0,0"/><path class="cls-3" d="M80.22,59.44v1.94H90.41V79.3H80.22v1.94H92.34V59.44Zm12.12,0"/><path class="cls-3" d="M80.22,79.3v1.94h36.63v7.29H80.22v1.94h38.56V79.3Zm38.56,0"/><path class="cls-3" d="M48.84,88.66v18h1.94V90.6H112.1v16.07H114v-18Zm65.2,0"/><path class="cls-3" d="M102.69,120.29v1.94h75.4a56.85,56.85,0,0,1,.79,8.53c0,18-8.3,31.6-21.82,40.79s-32.32,13.92-53.14,13.92h-1.23v1.94h1.23c21.11,0,40.27-4.77,54.23-14.26s22.66-23.76,22.66-42.4v0a58.87,58.87,0,0,0-.88-9.64l-.14-.81Zm77.1,0"/><rect class="cls-3" x="12.07" y="57.02" width="38.71" height="4.85"/><rect class="cls-14" x="11.97" y="32.61" width="33.87" height="24.38"/><rect class="cls-18" x="11.97" y="40.62" width="33.87" height="8.35"/><rect class="cls-3" x="11.87" y="28.53" width="4.85" height="33.28"/><path class="cls-14" d="M150.86,0l29,0h16l0,16c0,7,0,14,0,21A29.09,29.09,0,0,1,150.86,0Z"/><text class="cls-19" transform="translate(159.92 31.7)">19</text></svg>