<svg id="Слой_1" data-name="Слой 1" xmlns="http://www.w3.org/2000/svg" xmlns:xlink="http://www.w3.org/1999/xlink" viewBox="0 0 195.59 280.63"><defs><style>.cls-1{fill:none;}.cls-19,.cls-2{fill:#3377bc;}.cls-3{clip-path:url(#clip-path);}.cls-18,.cls-4{fill:#ffdc24;}.cls-5{fill:#1a1a1a;}.cls-6{fill:#1f57a4;}.cls-7{fill:#f1ad11;}.cls-8{fill:#fff;}.cls-9{fill:#af1739;}.cls-10{fill:#eb5775;}.cls-11{fill:#badbe9;}.cls-12{fill:#8bb0cc;}.cls-13{fill:#f293a2;}.cls-14{fill:#3e3e3e;}.cls-15{fill:#595959;}.cls-16{fill:#797979;}.cls-17{fill:#eb5a53;}.cls-18{font-size:52.93px;}.cls-18,.cls-19{font-family:Impact;}.cls-19{font-size:20px;}</style><clipPath id="clip-path"><rect class="cls-1" x="-5.54" y="-8" width="213.74" height="298.44"/></clipPath></defs><rect class="cls-2" x="-37.2" y="-43.66" width="257.22" height="357.25"/><g class="cls-3"><path class="cls-4" d="M47.82,221.26c-3.53,0-6.48-1.93-8.75-5.73a32.08,32.08,0,0,1-3.16-7.84c-.43-1.53-.82-3.18-1.16-4.89a65,65,0,0,1-6.51.33c-2.15,0-4.33-.11-6.52-.33-.33,1.71-.72,3.36-1.15,4.89a32.08,32.08,0,0,1-3.16,7.84c-2.27,3.8-5.22,5.73-8.75,5.73s-6.48-1.93-8.75-5.73a32.08,32.08,0,0,1-3.16-7.84,71.68,71.68,0,0,1-2.36-14.06,65.05,65.05,0,0,1-28.33-36.14c-.41.29-.82.55-1.23.8a12.14,12.14,0,0,1-6.23,2,8.85,8.85,0,0,1-4.18-1.05c-3.12-1.66-4.81-4.75-5-9.17a32.28,32.28,0,0,1,.91-8.41,71.41,71.41,0,0,1,6.39-17.32c3-5.6,6.44-9.11,10.57-10.75l.62-.23a64.66,64.66,0,0,1,10-16.77,24,24,0,0,1-1.64-8.71A24.23,24.23,0,0,1-16,70.19c0-.51-.05-1-.05-1.49A24.14,24.14,0,0,1,8.06,44.59h.38a26.72,26.72,0,0,1,19.67-8.86h.19A26.65,26.65,0,0,1,48,44.6h.38A24.14,24.14,0,0,1,72.53,68.7c0,.49,0,1,0,1.49a24,24,0,0,1,6.08,26.38,65.07,65.07,0,0,1,13.16,26.58,33.4,33.4,0,0,1,3.63,4l.09-.21c1.93-4.66,4.27-8.06,7.12-10.34a67.25,67.25,0,0,1,22.32-33.89,48.72,48.72,0,0,1-12.62-27.14l-1.6-12.17,11.53,4.05c.38.12,3.4,1.07,7.33,1.95l-2.7-7.28,13.78,3.35a85.89,85.89,0,0,0,16,2.2c2.19.13,4.35.21,6.64.29,3.31.12,6.73.25,10.39.52,9.1.67,16.17,3.48,21,8.37a24.32,24.32,0,0,1,6.43,20.06,67.34,67.34,0,0,1,30.37,38.61,12.67,12.67,0,0,1,1.35.76c3.82,2.47,6.6,6.7,8.48,12.92a74.36,74.36,0,0,1,3,18.79,33.21,33.21,0,0,1-.78,8.66c-1.09,4.37-3.39,7.12-6.83,8.16a9,9,0,0,1-2.61.39,10.42,10.42,0,0,1-6-2.11A67.13,67.13,0,0,1,202,192.18a74.31,74.31,0,0,1-2.43,14.55,33.05,33.05,0,0,1-3.25,8.06c-2.32,3.88-5.31,5.84-8.91,5.84s-6.58-2-8.9-5.84a33.05,33.05,0,0,1-3.25-8.06c-.45-1.61-.86-3.35-1.21-5.16a65.16,65.16,0,0,1-13.68,0c-.35,1.81-.76,3.55-1.21,5.16a33.05,33.05,0,0,1-3.25,8.06c-2.32,3.88-5.32,5.84-8.91,5.84s-6.59-2-8.9-5.84a32.66,32.66,0,0,1-3.25-8.06,73.32,73.32,0,0,1-2.44-14.55,67.09,67.09,0,0,1-26.68-30.44,10.83,10.83,0,0,1-5.72,1.79,9.06,9.06,0,0,1-2.32-.3,13.6,13.6,0,0,1-4.66-1,24.71,24.71,0,0,1-3.56-1.79,65.76,65.76,0,0,1-27.35,33.24,71.68,71.68,0,0,1-2.36,14.06,32.08,32.08,0,0,1-3.16,7.84C54.3,219.33,51.35,221.26,47.82,221.26Z"/><path class="cls-4" d="M16.4,189.39c0,10.4-3.46,25.18-7.74,25.18S.91,199.79.91,189.39s4.58-12.47,7.75-12.47S16.4,179,16.4,189.39Zm0,0"/><path class="cls-5" d="M8.66,174.76A8.76,8.76,0,0,0,2,177.86c-2,2.35-3.2,6-3.2,11.53A67.45,67.45,0,0,0,1.1,206.47a28.42,28.42,0,0,0,2.69,6.74c1.09,1.82,2.56,3.52,4.87,3.52s3.78-1.7,4.87-3.52a28.42,28.42,0,0,0,2.69-6.74,67.45,67.45,0,0,0,2.35-17.08c0-5.51-1.21-9.18-3.2-11.53a8.76,8.76,0,0,0-6.71-3.1Zm0,4.32a4.16,4.16,0,0,1,3.41,1.57c1.09,1.3,2.17,3.86,2.17,8.74a64.24,64.24,0,0,1-2.18,15.91A25.13,25.13,0,0,1,9.82,211a4.43,4.43,0,0,1-1.16,1.38A4.43,4.43,0,0,1,7.5,211a25.13,25.13,0,0,1-2.24-5.69,64.24,64.24,0,0,1-2.18-15.91c0-4.88,1.08-7.44,2.17-8.74a4.16,4.16,0,0,1,3.41-1.57Zm0,0"/><path class="cls-4" d="M55.56,189.39c0,10.4-3.46,25.18-7.74,25.18s-7.75-14.78-7.75-25.18,4.58-12.47,7.75-12.47,7.74,2.07,7.74,12.47Zm0,0"/><path class="cls-5" d="M47.82,174.76a8.76,8.76,0,0,0-6.71,3.1c-2,2.35-3.2,6-3.2,11.53a67,67,0,0,0,2.35,17.08A28,28,0,0,0,43,213.21c1.09,1.82,2.55,3.52,4.87,3.52s3.78-1.7,4.87-3.52a28.42,28.42,0,0,0,2.69-6.74,67.45,67.45,0,0,0,2.35-17.08c0-5.51-1.22-9.18-3.2-11.53a8.77,8.77,0,0,0-6.71-3.1Zm0,4.32a4.16,4.16,0,0,1,3.41,1.57c1.09,1.3,2.17,3.86,2.17,8.74a63.78,63.78,0,0,1-2.19,15.91A24.71,24.71,0,0,1,49,211a4.43,4.43,0,0,1-1.16,1.38A4.43,4.43,0,0,1,46.66,211a25.13,25.13,0,0,1-2.24-5.69,64.25,64.25,0,0,1-2.19-15.91c0-4.88,1.08-7.44,2.18-8.74a4.16,4.16,0,0,1,3.41-1.57Zm0,0"/><path class="cls-2" d="M90.18,131.4c6.33,8.25,12.58,22.09,9.18,24.69s-15.14-7-21.47-15.26-4-12.68-1.45-14.61,7.41-3.07,13.74,5.18Zm0,0"/><path class="cls-5" d="M75.12,124.5a8.79,8.79,0,0,0-3.43,6.55c-.15,3.07,1.13,6.72,4.48,11.1a67.57,67.57,0,0,0,12.26,12.11A28.42,28.42,0,0,0,94.67,158c2,.78,4.17,1.24,6-.17s2-3.65,1.72-5.76a28.41,28.41,0,0,0-2-7,66.94,66.94,0,0,0-8.53-15c-3.35-4.37-6.55-6.55-9.55-7.2a8.81,8.81,0,0,0-7.22,1.62Zm2.64,3.43a4.17,4.17,0,0,1,3.66-.82c1.65.35,4.07,1.73,7,5.61a63.58,63.58,0,0,1,8,13.95,24.9,24.9,0,0,1,1.69,5.87,4.35,4.35,0,0,1-.08,1.8,4.5,4.5,0,0,1-1.76-.38A25.37,25.37,0,0,1,91,150.8,63.56,63.56,0,0,1,79.6,139.51c-3-3.87-3.67-6.56-3.59-8.25a4.16,4.16,0,0,1,1.75-3.33Zm0,0"/><path class="cls-5" d="M28.24,77.3A60.66,60.66,0,1,0,88.9,138,60.71,60.71,0,0,0,28.24,77.3Zm0,6.92A53.74,53.74,0,1,1-25.5,138,53.69,53.69,0,0,1,28.24,84.22Zm0,0"/><path class="cls-6" d="M85.44,138A57.21,57.21,0,1,1,68.68,97.51,57.18,57.18,0,0,1,85.44,138Zm0,0"/><path class="cls-2" d="M78.17,135a52.92,52.92,0,1,1-15.5-37.41A52.92,52.92,0,0,1,78.17,135Zm0,0"/><path class="cls-7" d="M-29,138a57.2,57.2,0,0,0,114.4,0Zm0,0"/><path class="cls-4" d="M-27.55,138A52.87,52.87,0,0,0,78,138Zm0,0"/><path class="cls-5" d="M28.24,79.89A58.07,58.07,0,1,0,86.3,138,58.08,58.08,0,0,0,28.24,79.89Zm0,1.73A56.34,56.34,0,1,1-28.09,138,56.32,56.32,0,0,1,28.24,81.62Zm0,0"/><path class="cls-8" d="M28.24,85.6A52.26,52.26,0,0,0-20.06,158,55.49,55.49,0,0,1,48.87,89.85,52.47,52.47,0,0,0,28.24,85.6Zm0,0"/><path class="cls-7" d="M83,138.17h-.22l-.06,0h-.09l-.08,0-.06,0-.06,0-.06,0-.05,0-.06,0a.1.1,0,0,1-.05,0l0,0,0,.05,0,0,0,.05,0,0,0,.05,0,.06a.1.1,0,0,0,0,0l0,.06,0,.06s0,0,0,.06a309063205124.67,309063205124.67,0,0,0,0,.12s0,0,0,.06,0,0,0,.07,0,0,0,.06,0,0,0,.07v.17s0,0,0,.06,0,0,0,.07,0,0,0,.06l0,.06h0v0l0,.08,0,.06a.14.14,0,0,0,0,.06l0,.06,0,.06a.1.1,0,0,1,0,0,369475445349.35,369475445349.35,0,0,0,.08.1l0,0,0,.05,0,0,.06,0a.1.1,0,0,0,0,0l0,0,.06,0,0,0,.06,0,.06,0,.06,0,.07,0h.7l.09,0,.06,0,.06,0,.05,0,.06,0,.06,0,.05,0,0,0,0,0,0,0,0-.05,0,0a.1.1,0,0,1,0-.05l0-.06,0,0,0-.06a.14.14,0,0,0,0-.06l0-.06s0,0,0-.06,0,0,0-.06,0,0,0-.06a.17.17,0,0,1,0-.07s0,0,0-.06a.2.2,0,0,1,0-.07v-.17a.15.15,0,0,1,0-.07s0,0,0-.06a.13.13,0,0,1,0-.06s0,0,0-.06h0v0a.19.19,0,0,0,0-.08l0-.06a.14.14,0,0,1,0-.06l0-.06,0-.06,0-.05,0,0,0-.05,0,0,0-.05-.05,0a186227543017.66,186227543017.66,0,0,0-.1-.08l0,0-.06,0-.06,0-.06,0,0,0-.07,0-.06,0H83Zm0,0"/><path class="cls-7" d="M83,138.17h-.22l-.06,0h-.09l-.08,0-.06,0-.06,0-.06,0-.05,0-.06,0a.1.1,0,0,1-.05,0l0,0,0,.05,0,0,0,.05,0,0,0,.05,0,.06a.1.1,0,0,0,0,0l0,.06,0,.06s0,0,0,.06a309063205124.67,309063205124.67,0,0,0,0,.12s0,0,0,.06,0,0,0,.07,0,0,0,.06,0,0,0,.07v.17s0,0,0,.06,0,0,0,.07,0,0,0,.06l0,.06h0v0l0,.08,0,.06a.14.14,0,0,0,0,.06l0,.06,0,.06a.1.1,0,0,1,0,0,369475445349.35,369475445349.35,0,0,0,.08.1l0,0,0,.05,0,0,.06,0a.1.1,0,0,0,0,0l0,0,.06,0,0,0,.06,0,.06,0,.06,0,.07,0h.7l.09,0,.06,0,.06,0,.05,0,.06,0,.06,0,.05,0,0,0,0,0,0,0,0,0a.1.1,0,0,1,0,0l0-.05,0-.06,0,0,0-.06a.14.14,0,0,0,0-.06l0-.06s0,0,0-.06,0,0,0-.06,0,0,0-.06a.15.15,0,0,1,0-.07s0,0,0-.06a.17.17,0,0,1,0-.07v-.17a.17.17,0,0,1,0-.07s0,0,0-.06a.15.15,0,0,1,0-.07s0,0,0-.05h0v0a.29.29,0,0,0,0-.09l0-.06,0,0,0-.06,0-.06,0-.05,0,0,0-.05,0,0,0-.05-.05,0a186227543017.66,186227543017.66,0,0,0-.1-.08l0,0-.06,0-.06,0-.06,0,0,0-.07,0-.06,0h-.06l-.06,0H83Zm0,0"/><path class="cls-7" d="M83,138.17h-.22l-.06,0h-.09l-.08,0-.06,0-.06,0-.06,0-.05,0-.06,0a.1.1,0,0,1-.05,0l0,0,0,.05,0,0,0,.05,0,0,0,.05,0,.06a.1.1,0,0,0,0,0l0,.06,0,.06s0,0,0,.06a309063205124.67,309063205124.67,0,0,0,0,.12s0,0,0,.06,0,0,0,.07,0,0,0,.06,0,0,0,.07v.17s0,0,0,.06,0,0,0,.07,0,0,0,.06l0,.06h0v0l0,.08,0,.06a.14.14,0,0,0,0,.06l0,.06,0,.06a.1.1,0,0,1,0,0,369475445349.35,369475445349.35,0,0,0,.08.1l0,0,0,.05,0,0,.06,0a.1.1,0,0,0,0,0l0,0,.06,0,0,0,.06,0,.06,0,.06,0,.07,0h.7l.09,0,.06,0,.06,0,.05,0,.06,0,.06,0,.05,0,0,0,0,0,0,0,0,0a.1.1,0,0,1,0,0l0-.05,0-.06,0,0,0-.06a.14.14,0,0,0,0-.06l0-.06s0,0,0-.06,0,0,0-.06,0,0,0-.06a.15.15,0,0,1,0-.07s0,0,0-.06a.17.17,0,0,1,0-.07v-.17a.17.17,0,0,1,0-.07s0,0,0-.06a.15.15,0,0,1,0-.07s0,0,0-.05h0v0a.29.29,0,0,0,0-.09l0-.06,0,0,0-.06,0-.06,0-.05,0,0,0-.05,0,0,0-.05-.05,0a186227543017.66,186227543017.66,0,0,0-.1-.08l0,0-.06,0-.06,0-.06,0,0,0-.07,0-.06,0h-.06l-.06,0H83Zm0,0"/><path class="cls-7" d="M83,138.17h-.22l-.06,0h-.09l-.08,0-.06,0-.06,0-.06,0-.05,0-.06,0a.1.1,0,0,1-.05,0l0,0,0,.05,0,0,0,.05,0,0,0,.05,0,.06a.1.1,0,0,0,0,0l0,.06,0,.06s0,0,0,.06a309063205124.67,309063205124.67,0,0,0,0,.12s0,0,0,.06,0,0,0,.07,0,0,0,.06,0,0,0,.07v.17s0,0,0,.06,0,0,0,.07,0,0,0,.06l0,.06h0v0l0,.08,0,.06a.14.14,0,0,0,0,.06l0,.06,0,.06a.1.1,0,0,1,0,0,369475445349.35,369475445349.35,0,0,0,.08.1l0,0,0,.05,0,0,.06,0a.1.1,0,0,0,0,0l0,0,.06,0,0,0,.06,0,.06,0,.06,0,.07,0h.7l.09,0,.06,0,.06,0,.05,0,.06,0,.06,0,.05,0,0,0,0,0,0,0,0,0a.1.1,0,0,1,0,0l0-.05,0-.06,0,0,0-.06a.14.14,0,0,0,0-.06l0-.06s0,0,0-.06,0,0,0-.06,0,0,0-.06a.15.15,0,0,1,0-.07s0,0,0-.06a.17.17,0,0,1,0-.07v-.17a.17.17,0,0,1,0-.07s0,0,0-.06a.15.15,0,0,1,0-.07s0,0,0-.05h0v0a.29.29,0,0,0,0-.09l0-.06,0,0,0-.06,0-.06,0-.05,0,0,0-.05,0,0,0-.05-.05,0a186227543017.66,186227543017.66,0,0,0-.1-.08l0,0-.06,0-.06,0-.06,0,0,0-.07,0-.06,0h-.06l-.06,0H83Zm0,0"/><path class="cls-7" d="M83,138.17h-.22l-.06,0h-.09l-.08,0-.06,0-.06,0-.06,0-.05,0-.06,0a.1.1,0,0,1-.05,0l0,0,0,.05,0,0,0,.05,0,0,0,.05,0,.06a.1.1,0,0,0,0,0l0,.06,0,.06s0,0,0,.06a309063205124.67,309063205124.67,0,0,0,0,.12s0,0,0,.06,0,0,0,.07,0,0,0,.06,0,0,0,.07v.17s0,0,0,.06,0,0,0,.07,0,0,0,.06l0,.06h0v0l0,.08,0,.06a.14.14,0,0,0,0,.06l0,.06,0,.06a.1.1,0,0,1,0,0,369475445349.35,369475445349.35,0,0,0,.08.1l0,0,0,.05,0,0,.06,0a.1.1,0,0,0,0,0l0,0,.06,0,0,0,.06,0,.06,0,.06,0,.07,0h.7l.09,0,.06,0,.06,0,.05,0,.06,0,.06,0,.05,0,0,0,0,0,0,0,0,0a.1.1,0,0,1,0,0l0-.05,0-.06,0,0,0-.06a.14.14,0,0,0,0-.06l0-.06s0,0,0-.06,0,0,0-.06,0,0,0-.06a.15.15,0,0,1,0-.07s0,0,0-.06a.17.17,0,0,1,0-.07v-.17a.17.17,0,0,1,0-.07s0,0,0-.06a.15.15,0,0,1,0-.07s0,0,0-.05h0v0a.29.29,0,0,0,0-.09l0-.06,0,0,0-.06,0-.06,0-.05,0,0,0-.05,0,0,0-.05-.05,0a186227543017.66,186227543017.66,0,0,0-.1-.08l0,0-.06,0-.06,0-.06,0,0,0-.07,0-.06,0h-.06l-.06,0H83Zm0,0"/><path class="cls-7" d="M83,138.17h-.22l-.06,0h-.09l-.08,0-.06,0-.06,0-.06,0-.05,0-.06,0a.1.1,0,0,1-.05,0l0,0,0,.05,0,0,0,.05,0,0,0,.05,0,.06a.1.1,0,0,0,0,0l0,.06,0,.06s0,0,0,.06a309063205124.67,309063205124.67,0,0,0,0,.12s0,0,0,.06,0,0,0,.07,0,0,0,.06,0,0,0,.07v.17s0,0,0,.06,0,0,0,.07,0,0,0,.06l0,.06h0v0l0,.08,0,.06a.14.14,0,0,0,0,.06l0,.06,0,.06a.1.1,0,0,1,0,0,369475445349.35,369475445349.35,0,0,0,.08.1l0,0,0,.05,0,0,.06,0a.1.1,0,0,0,0,0l0,0,.06,0,0,0,.06,0,.06,0,.06,0,.07,0h.7l.09,0,.06,0,.06,0,.05,0,.06,0,.06,0,.05,0,0,0,0,0,0,0,0,0a.1.1,0,0,1,0,0l0-.05,0-.06,0,0,0-.06a.14.14,0,0,0,0-.06l0-.06s0,0,0-.06,0,0,0-.06,0,0,0-.06a.15.15,0,0,1,0-.07s0,0,0-.06a.17.17,0,0,1,0-.07v-.17a.17.17,0,0,1,0-.07s0,0,0-.06a.15.15,0,0,1,0-.07s0,0,0-.05h0v0a.29.29,0,0,0,0-.09l0-.06,0,0,0-.06,0-.06,0-.05,0,0,0-.05,0,0,0-.05-.05,0a186227543017.66,186227543017.66,0,0,0-.1-.08l0,0-.06,0-.06,0-.06,0,0,0-.07,0-.06,0h-.06l-.06,0H83Zm0,0"/><path class="cls-7" d="M83,138.17h-.22l-.06,0h-.09l-.08,0-.06,0-.06,0-.06,0-.05,0-.06,0a.1.1,0,0,1-.05,0l0,0,0,.05,0,0,0,.05,0,0,0,.05,0,.06a.1.1,0,0,0,0,0l0,.06,0,.06s0,0,0,.06a309063205124.67,309063205124.67,0,0,0,0,.12s0,0,0,.06,0,0,0,.07,0,0,0,.06,0,0,0,.07v.17s0,0,0,.06,0,0,0,.07,0,0,0,.06l0,.06h0v0l0,.08,0,.06a.14.14,0,0,0,0,.06l0,.06,0,.06a.1.1,0,0,1,0,0,369475445349.35,369475445349.35,0,0,0,.08.1l0,0,0,.05,0,0,.06,0a.1.1,0,0,0,0,0l0,0,.06,0,0,0,.06,0,.06,0,.06,0,.07,0h.7l.09,0,.06,0,.06,0,.05,0,.06,0,.06,0,.05,0,0,0,0,0,0,0,0,0a.1.1,0,0,1,0,0l0-.05,0-.06,0,0,0-.06a.14.14,0,0,0,0-.06l0-.06s0,0,0-.06,0,0,0-.06,0,0,0-.06a.15.15,0,0,1,0-.07s0,0,0-.06a.17.17,0,0,1,0-.07v-.17a.17.17,0,0,1,0-.07s0,0,0-.06a.15.15,0,0,1,0-.07s0,0,0-.05h0v0a.29.29,0,0,0,0-.09l0-.06,0,0,0-.06,0-.06,0-.05,0,0,0-.05,0,0,0-.05-.05,0a186227543017.66,186227543017.66,0,0,0-.1-.08l0,0-.06,0-.06,0-.06,0,0,0-.07,0-.06,0h-.06l-.06,0H83Zm0,0"/><path class="cls-7" d="M83,138.17h-.22l-.06,0h-.09l-.08,0-.06,0-.06,0-.06,0-.05,0-.06,0a.1.1,0,0,1-.05,0l0,0,0,.05,0,0,0,.05,0,0,0,.05,0,.06a.1.1,0,0,0,0,0l0,.06,0,.06s0,0,0,.06a309063205124.67,309063205124.67,0,0,0,0,.12s0,0,0,.06,0,0,0,.07,0,0,0,.06,0,0,0,.07v.17s0,0,0,.06,0,0,0,.07,0,0,0,.06l0,.06h0v0l0,.08,0,.06a.14.14,0,0,0,0,.06l0,.06,0,.06a.1.1,0,0,1,0,0,369475445349.35,369475445349.35,0,0,0,.08.1l0,0,0,.05,0,0,.06,0a.1.1,0,0,0,0,0l0,0,.06,0,0,0,.06,0,.06,0,.06,0,.07,0h.7l.09,0,.06,0,.06,0,.05,0,.06,0,.06,0,.05,0,0,0,0,0,0,0,0,0a.1.1,0,0,1,0,0l0-.05,0-.06,0,0,0-.06a.14.14,0,0,0,0-.06l0-.06s0,0,0-.06,0,0,0-.06,0,0,0-.06a.15.15,0,0,1,0-.07s0,0,0-.06a.17.17,0,0,1,0-.07v-.17a.17.17,0,0,1,0-.07s0,0,0-.06a.15.15,0,0,1,0-.07s0,0,0-.05h0v0a.29.29,0,0,0,0-.09l0-.06,0,0,0-.06,0-.06,0-.05,0,0,0-.05,0,0,0-.05-.05,0a186227543017.66,186227543017.66,0,0,0-.1-.08l0,0-.06,0-.06,0-.06,0,0,0-.07,0-.06,0h-.06l-.06,0H83Zm0,0"/><path class="cls-7" d="M83,138.17h-.22l-.06,0h-.09l-.08,0-.06,0-.06,0-.06,0-.05,0-.06,0a.1.1,0,0,1-.05,0l0,0,0,.05,0,0,0,.05,0,0,0,.05,0,.06a.1.1,0,0,0,0,0l0,.06,0,.06s0,0,0,.06a309063205124.67,309063205124.67,0,0,0,0,.12s0,0,0,.06,0,0,0,.07,0,0,0,.06,0,0,0,.07v.17s0,0,0,.06,0,0,0,.07,0,0,0,.06l0,.06h0v0l0,.08,0,.06a.14.14,0,0,0,0,.06l0,.06,0,.06a.1.1,0,0,1,0,0,369475445349.35,369475445349.35,0,0,0,.08.1l0,0,0,.05,0,0,.06,0a.1.1,0,0,0,0,0l0,0,.06,0,0,0,.06,0,.06,0,.06,0,.07,0h.7l.09,0,.06,0,.06,0,.05,0,.06,0,.06,0,.05,0,0,0,0,0,0,0,0,0a.1.1,0,0,1,0,0l0-.05,0-.06,0,0,0-.06a.14.14,0,0,0,0-.06l0-.06s0,0,0-.06,0,0,0-.06,0,0,0-.06a.15.15,0,0,1,0-.07s0,0,0-.06a.17.17,0,0,1,0-.07v-.17a.17.17,0,0,1,0-.07s0,0,0-.06a.15.15,0,0,1,0-.07s0,0,0-.05h0v0a.29.29,0,0,0,0-.09l0-.06,0,0,0-.06,0-.06,0-.05,0,0,0-.05,0,0,0-.05-.05,0a186227543017.66,186227543017.66,0,0,0-.1-.08l0,0-.06,0-.06,0-.06,0,0,0-.07,0-.06,0h-.06l-.06,0H83Zm0,0"/><path class="cls-7" d="M83,138.17h-.22l-.06,0h-.09l-.08,0-.06,0-.06,0-.06,0-.05,0-.06,0a.1.1,0,0,1-.05,0l0,0,0,.05,0,0,0,.05,0,0,0,.05,0,.06a.1.1,0,0,0,0,0l0,.06,0,.06s0,0,0,.06a309063205124.67,309063205124.67,0,0,0,0,.12s0,0,0,.06,0,0,0,.07,0,0,0,.06,0,0,0,.07v.17s0,0,0,.06,0,0,0,.07,0,0,0,.06l0,.06h0v0l0,.08,0,.06a.14.14,0,0,0,0,.06l0,.06,0,.06a.1.1,0,0,1,0,0,369475445349.35,369475445349.35,0,0,0,.08.1l0,0,0,.05,0,0,.06,0a.1.1,0,0,0,0,0l0,0,.06,0,0,0,.06,0,.06,0,.06,0,.07,0h.7l.09,0,.06,0,.06,0,.05,0,.06,0,.06,0,.05,0,0,0,0,0,0,0,0,0a.1.1,0,0,1,0,0l0-.05,0-.06,0,0,0-.06a.14.14,0,0,0,0-.06l0-.06s0,0,0-.06,0,0,0-.06,0,0,0-.06a.15.15,0,0,1,0-.07s0,0,0-.06a.17.17,0,0,1,0-.07v-.17a.17.17,0,0,1,0-.07s0,0,0-.06a.15.15,0,0,1,0-.07s0,0,0-.05h0v0a.29.29,0,0,0,0-.09l0-.06,0,0,0-.06,0-.06,0-.05,0,0,0-.05,0,0,0-.05-.05,0a186227543017.66,186227543017.66,0,0,0-.1-.08l0,0-.06,0-.06,0-.06,0,0,0-.07,0-.06,0h-.06l-.06,0H83Zm0,0"/><path class="cls-7" d="M83,138.17h-.22l-.06,0h-.09l-.08,0-.06,0-.06,0-.06,0-.05,0-.06,0a.1.1,0,0,1-.05,0l0,0,0,.05,0,0,0,.05,0,0,0,.05,0,.06a.1.1,0,0,0,0,0l0,.06,0,.06s0,0,0,.06a309063205124.67,309063205124.67,0,0,0,0,.12s0,0,0,.06,0,0,0,.07,0,0,0,.06,0,0,0,.07v.17s0,0,0,.06,0,0,0,.07,0,0,0,.06,0,0,0,.06h0v0l0,.08,0,.06a.14.14,0,0,0,0,.06l0,.06,0,.06,0,0a369475445349.35,369475445349.35,0,0,0,.08.1l0,0,0,.05,0,0,.06,0a.1.1,0,0,0,0,0l0,0,.06,0,0,0,.06,0,.06,0,.06,0,.07,0h.7l.09,0,.06,0,.06,0,.05,0,.06,0,.06,0,.05,0,0,0,0,0,0,0,0-.05,0,0a.1.1,0,0,1,0-.05l0-.06,0,0,0-.06,0-.06a.14.14,0,0,1,0-.06s0,0,0-.06,0,0,0-.06,0,0,0-.06a.17.17,0,0,1,0-.07s0,0,0-.06a.2.2,0,0,1,0-.07v-.17a.15.15,0,0,1,0-.07s0,0,0-.06a.13.13,0,0,1,0-.06s0,0,0-.06h0v0a.19.19,0,0,0,0-.08l0-.06a.14.14,0,0,1,0-.06l0-.06,0-.06,0-.05,0,0,0-.05,0,0,0-.05-.05,0a186227543017.66,186227543017.66,0,0,0-.1-.08l0,0-.06,0-.06,0-.06,0,0,0-.07,0-.06,0H83Zm0,0"/><path class="cls-7" d="M83,138.17h-.22l-.06,0h-.09l-.08,0-.06,0-.06,0-.06,0-.05,0-.06,0a.1.1,0,0,1-.05,0l0,0,0,.05,0,0,0,.05,0,0,0,.05,0,.06a.1.1,0,0,0,0,0l0,.06,0,.06s0,0,0,.06a309063205124.67,309063205124.67,0,0,0,0,.12s0,0,0,.06,0,0,0,.07,0,0,0,.06,0,0,0,.07v.17s0,0,0,.06,0,0,0,.07,0,0,0,.06,0,0,0,.06h0v0l0,.08,0,.06a.14.14,0,0,0,0,.06l0,.06,0,.06,0,0a369475445349.35,369475445349.35,0,0,0,.08.1l0,0,0,.05,0,0,.06,0a.1.1,0,0,0,0,0l0,0,.06,0,0,0,.06,0,.06,0,.06,0,.07,0h.7l.09,0,.06,0,.06,0,.05,0,.06,0,.06,0,.05,0,0,0,0,0,0,0,0,0a615792408915.75,615792408915.75,0,0,0,.08-.1l0-.06,0,0,0-.06,0-.06a.14.14,0,0,1,0-.06s0,0,0-.06,0,0,0-.06,0,0,0-.06a.15.15,0,0,1,0-.07s0,0,0-.06a.17.17,0,0,1,0-.07v-.17a.17.17,0,0,1,0-.07s0,0,0-.06a.15.15,0,0,1,0-.07s0,0,0-.05h0v0a.29.29,0,0,0,0-.09l0-.06,0,0,0-.06,0-.06,0-.05,0,0,0-.05,0,0,0-.05-.05,0a186227543017.66,186227543017.66,0,0,0-.1-.08l0,0-.06,0-.06,0-.06,0,0,0-.07,0-.06,0h-.06l-.06,0H83Zm0,0"/><path class="cls-7" d="M83,138.17h-.22l-.06,0h-.09l-.08,0-.06,0-.06,0-.06,0-.05,0-.06,0a.1.1,0,0,1-.05,0l0,0,0,.05,0,0,0,.05,0,0,0,.05,0,.06a.1.1,0,0,0,0,0l0,.06,0,.06s0,0,0,.06a309063205124.67,309063205124.67,0,0,0,0,.12s0,0,0,.06,0,0,0,.07,0,0,0,.06,0,0,0,.07v.17s0,0,0,.06,0,0,0,.07,0,0,0,.06,0,0,0,.06h0v0l0,.08,0,.06a.14.14,0,0,0,0,.06l0,.06,0,.06,0,0a369475445349.35,369475445349.35,0,0,0,.08.1l0,0,0,.05,0,0,.06,0a.1.1,0,0,0,0,0l0,0,.06,0,0,0,.06,0,.06,0,.06,0,.07,0h.7l.09,0,.06,0,.06,0,.05,0,.06,0,.06,0,.05,0,0,0,0,0,0,0,0,0a615792408915.75,615792408915.75,0,0,0,.08-.1l0-.06,0,0,0-.06,0-.06a.14.14,0,0,1,0-.06s0,0,0-.06,0,0,0-.06,0,0,0-.06a.15.15,0,0,1,0-.07s0,0,0-.06a.17.17,0,0,1,0-.07v-.17a.17.17,0,0,1,0-.07s0,0,0-.06a.15.15,0,0,1,0-.07s0,0,0-.05h0v0a.29.29,0,0,0,0-.09l0-.06,0,0,0-.06,0-.06,0-.05,0,0,0-.05,0,0,0-.05-.05,0a186227543017.66,186227543017.66,0,0,0-.1-.08l0,0-.06,0-.06,0-.06,0,0,0-.07,0-.06,0h-.06l-.06,0H83Zm0,0"/><path class="cls-7" d="M83,138.17h-.22l-.06,0h-.09l-.08,0-.06,0-.06,0-.06,0-.05,0-.06,0a.1.1,0,0,1-.05,0l0,0,0,.05,0,0,0,.05,0,0,0,.05,0,.06a.1.1,0,0,0,0,0l0,.06,0,.06s0,0,0,.06a309063205124.67,309063205124.67,0,0,0,0,.12s0,0,0,.06,0,0,0,.07,0,0,0,.06,0,0,0,.07v.17s0,0,0,.06,0,0,0,.07,0,0,0,.06,0,0,0,.06h0v0l0,.08,0,.06a.14.14,0,0,0,0,.06l0,.06,0,.06,0,0a369475445349.35,369475445349.35,0,0,0,.08.1l0,0,0,.05,0,0,.06,0a.1.1,0,0,0,0,0l0,0,.06,0,0,0,.06,0,.06,0,.06,0,.07,0h.7l.09,0,.06,0,.06,0,.05,0,.06,0,.06,0,.05,0,0,0,0,0,0,0,0,0a615792408915.75,615792408915.75,0,0,0,.08-.1l0-.06,0,0,0-.06,0-.06a.14.14,0,0,1,0-.06s0,0,0-.06,0,0,0-.06,0,0,0-.06a.15.15,0,0,1,0-.07s0,0,0-.06a.17.17,0,0,1,0-.07v-.17a.17.17,0,0,1,0-.07s0,0,0-.06a.15.15,0,0,1,0-.07s0,0,0-.05h0v0a.29.29,0,0,0,0-.09l0-.06,0,0,0-.06,0-.06,0-.05,0,0,0-.05,0,0,0-.05-.05,0a186227543017.66,186227543017.66,0,0,0-.1-.08l0,0-.06,0-.06,0-.06,0,0,0-.07,0-.06,0h-.06l-.06,0H83Zm0,0"/><path class="cls-7" d="M83,138.17h-.22l-.06,0h-.09l-.08,0-.06,0-.06,0-.06,0-.05,0-.06,0a.1.1,0,0,1-.05,0l0,0,0,.05,0,0,0,.05,0,0,0,.05,0,.06a.1.1,0,0,0,0,0l0,.06,0,.06s0,0,0,.06a309063205124.67,309063205124.67,0,0,0,0,.12s0,0,0,.06,0,0,0,.07,0,0,0,.06,0,0,0,.07v.17s0,0,0,.06,0,0,0,.07,0,0,0,.06,0,0,0,.06h0v0l0,.08,0,.06a.14.14,0,0,0,0,.06l0,.06,0,.06,0,0a369475445349.35,369475445349.35,0,0,0,.08.1l0,0,0,.05,0,0,.06,0a.1.1,0,0,0,0,0l0,0,.06,0,0,0,.06,0,.06,0,.06,0,.07,0h.7l.09,0,.06,0,.06,0,.05,0,.06,0,.06,0,.05,0,0,0,0,0,0,0,0,0a615792408915.75,615792408915.75,0,0,0,.08-.1l0-.06,0,0,0-.06,0-.06a.14.14,0,0,1,0-.06s0,0,0-.06,0,0,0-.06,0,0,0-.06a.15.15,0,0,1,0-.07s0,0,0-.06a.17.17,0,0,1,0-.07v-.17a.17.17,0,0,1,0-.07s0,0,0-.06a.15.15,0,0,1,0-.07s0,0,0-.05h0v0a.29.29,0,0,0,0-.09l0-.06,0,0,0-.06,0-.06,0-.05,0,0,0-.05,0,0,0-.05-.05,0a186227543017.66,186227543017.66,0,0,0-.1-.08l0,0-.06,0-.06,0-.06,0,0,0-.07,0-.06,0h-.06l-.06,0H83Zm0,0"/><path class="cls-7" d="M83,138.17h-.22l-.06,0h-.09l-.08,0-.06,0-.06,0-.06,0-.05,0-.06,0a.1.1,0,0,1-.05,0l0,0,0,.05,0,0,0,.05,0,0,0,.05,0,.06a.1.1,0,0,0,0,0l0,.06,0,.06s0,0,0,.06a309063205124.67,309063205124.67,0,0,0,0,.12s0,0,0,.06,0,0,0,.07,0,0,0,.06,0,0,0,.07v.17s0,0,0,.06,0,0,0,.07,0,0,0,.06,0,0,0,.06h0v0l0,.08,0,.06a.14.14,0,0,0,0,.06l0,.06,0,.06,0,0a369475445349.35,369475445349.35,0,0,0,.08.1l0,0,0,.05,0,0,.06,0a.1.1,0,0,0,0,0l0,0,.06,0,0,0,.06,0,.06,0,.06,0,.07,0h.7l.09,0,.06,0,.06,0,.05,0,.06,0,.06,0,.05,0,0,0,0,0,0,0,0,0a615792408915.75,615792408915.75,0,0,0,.08-.1l0-.06,0,0,0-.06,0-.06a.14.14,0,0,1,0-.06s0,0,0-.06,0,0,0-.06,0,0,0-.06a.15.15,0,0,1,0-.07s0,0,0-.06a.17.17,0,0,1,0-.07v-.17a.17.17,0,0,1,0-.07s0,0,0-.06a.15.15,0,0,1,0-.07s0,0,0-.05h0v0a.29.29,0,0,0,0-.09l0-.06,0,0,0-.06,0-.06,0-.05,0,0,0-.05,0,0,0-.05-.05,0a186227543017.66,186227543017.66,0,0,0-.1-.08l0,0-.06,0-.06,0-.06,0,0,0-.07,0-.06,0h-.06l-.06,0H83Zm0,0"/><path class="cls-7" d="M83,138.17h-.22l-.06,0h-.09l-.08,0-.06,0-.06,0-.06,0-.05,0-.06,0a.1.1,0,0,1-.05,0l0,0,0,.05,0,0,0,.05,0,0,0,.05,0,.06a.1.1,0,0,0,0,0l0,.06,0,.06s0,0,0,.06a309063205124.67,309063205124.67,0,0,0,0,.12s0,0,0,.06,0,0,0,.07,0,0,0,.06,0,0,0,.07v.17s0,0,0,.06,0,0,0,.07,0,0,0,.06,0,0,0,.06h0v0l0,.08,0,.06a.14.14,0,0,0,0,.06l0,.06,0,.06,0,0a369475445349.35,369475445349.35,0,0,0,.08.1l0,0,0,.05,0,0,.06,0a.1.1,0,0,0,0,0l0,0,.06,0,0,0,.06,0,.06,0,.06,0,.07,0h.7l.09,0,.06,0,.06,0,.05,0,.06,0,.06,0,.05,0,0,0,0,0,0,0,0,0a615792408915.75,615792408915.75,0,0,0,.08-.1l0-.06,0,0,0-.06,0-.06a.14.14,0,0,1,0-.06s0,0,0-.06,0,0,0-.06,0,0,0-.06a.15.15,0,0,1,0-.07s0,0,0-.06a.17.17,0,0,1,0-.07v-.17a.17.17,0,0,1,0-.07s0,0,0-.06a.15.15,0,0,1,0-.07s0,0,0-.05h0v0a.29.29,0,0,0,0-.09l0-.06,0,0,0-.06,0-.06,0-.05,0,0,0-.05,0,0,0-.05-.05,0a186227543017.66,186227543017.66,0,0,0-.1-.08l0,0-.06,0-.06,0-.06,0,0,0-.07,0-.06,0h-.06l-.06,0H83Zm0,0"/><path class="cls-7" d="M83,138.17h-.22l-.06,0h-.09l-.08,0-.06,0-.06,0-.06,0-.05,0-.06,0a.1.1,0,0,1-.05,0l0,0,0,.05,0,0,0,.05,0,0,0,.05,0,.06a.1.1,0,0,0,0,0l0,.06,0,.06s0,0,0,.06a309063205124.67,309063205124.67,0,0,0,0,.12s0,0,0,.06,0,0,0,.07,0,0,0,.06,0,0,0,.07v.17s0,0,0,.06,0,0,0,.07,0,0,0,.06,0,0,0,.06h0v0l0,.08,0,.06a.14.14,0,0,0,0,.06l0,.06,0,.06,0,0a369475445349.35,369475445349.35,0,0,0,.08.1l0,0,0,.05,0,0,.06,0a.1.1,0,0,0,0,0l0,0,.06,0,0,0,.06,0,.06,0,.06,0,.07,0h.7l.09,0,.06,0,.06,0,.05,0,.06,0,.06,0,.05,0,0,0,0,0,0,0,0,0a615792408915.75,615792408915.75,0,0,0,.08-.1l0-.06,0,0,0-.06,0-.06a.14.14,0,0,1,0-.06s0,0,0-.06,0,0,0-.06,0,0,0-.06a.15.15,0,0,1,0-.07s0,0,0-.06a.17.17,0,0,1,0-.07v-.17a.17.17,0,0,1,0-.07s0,0,0-.06a.15.15,0,0,1,0-.07s0,0,0-.05h0v0a.29.29,0,0,0,0-.09l0-.06,0,0,0-.06,0-.06,0-.05,0,0,0-.05,0,0,0-.05-.05,0a186227543017.66,186227543017.66,0,0,0-.1-.08l0,0-.06,0-.06,0-.06,0,0,0-.07,0-.06,0h-.06l-.06,0H83Zm0,0"/><path class="cls-7" d="M83,138.17h-.22l-.06,0h-.09l-.08,0-.06,0-.06,0-.06,0-.05,0-.06,0a.1.1,0,0,1-.05,0l0,0,0,.05,0,0,0,.05,0,0,0,.05,0,.06a.1.1,0,0,0,0,0l0,.06,0,.06s0,0,0,.06a309063205124.67,309063205124.67,0,0,0,0,.12s0,0,0,.06,0,0,0,.07,0,0,0,.06,0,0,0,.07v.17s0,0,0,.06,0,0,0,.07,0,0,0,.06,0,0,0,.06h0v0l0,.08,0,.06a.14.14,0,0,0,0,.06l0,.06,0,.06,0,0a369475445349.35,369475445349.35,0,0,0,.08.1l0,0,0,.05,0,0,.06,0a.1.1,0,0,0,0,0l0,0,.06,0,0,0,.06,0,.06,0,.06,0,.07,0h.7l.09,0,.06,0,.06,0,.05,0,.06,0,.06,0,.05,0,0,0,0,0,0,0,0,0a615792408915.75,615792408915.75,0,0,0,.08-.1l0-.06,0,0,0-.06,0-.06a.14.14,0,0,1,0-.06s0,0,0-.06,0,0,0-.06,0,0,0-.06a.15.15,0,0,1,0-.07s0,0,0-.06a.17.17,0,0,1,0-.07v-.17a.17.17,0,0,1,0-.07s0,0,0-.06a.15.15,0,0,1,0-.07s0,0,0-.05h0v0a.29.29,0,0,0,0-.09l0-.06,0,0,0-.06,0-.06,0-.05,0,0,0-.05,0,0,0-.05-.05,0a186227543017.66,186227543017.66,0,0,0-.1-.08l0,0-.06,0-.06,0-.06,0,0,0-.07,0-.06,0h-.06l-.06,0H83Zm0,0"/><path class="cls-7" d="M83,138.17h-.22l-.06,0h-.09l-.08,0-.06,0-.06,0-.06,0-.05,0-.06,0a.1.1,0,0,1-.05,0l0,0,0,.05,0,0,0,.05,0,0,0,.05,0,.06a.1.1,0,0,0,0,0l0,.06,0,.06s0,0,0,.06a309063205124.67,309063205124.67,0,0,0,0,.12s0,0,0,.06,0,0,0,.07,0,0,0,.06,0,0,0,.07v.17s0,0,0,.06,0,0,0,.07,0,0,0,.06,0,0,0,.06h0v0l0,.08,0,.06a.14.14,0,0,0,0,.06l0,.06,0,.06,0,0a369475445349.35,369475445349.35,0,0,0,.08.1l0,0,0,.05,0,0,.06,0a.1.1,0,0,0,0,0l0,0,.06,0,0,0,.06,0,.06,0,.06,0,.07,0h.7l.09,0,.06,0,.06,0,.05,0,.06,0,.06,0,.05,0,0,0,0,0,0,0,0,0a615792408915.75,615792408915.75,0,0,0,.08-.1l0-.06,0,0,0-.06,0-.06a.14.14,0,0,1,0-.06s0,0,0-.06,0,0,0-.06,0,0,0-.06a.15.15,0,0,1,0-.07s0,0,0-.06a.17.17,0,0,1,0-.07v-.17a.17.17,0,0,1,0-.07s0,0,0-.06a.15.15,0,0,1,0-.07s0,0,0-.05h0v0a.29.29,0,0,0,0-.09l0-.06,0,0,0-.06,0-.06,0-.05,0,0,0-.05,0,0,0-.05-.05,0a186227543017.66,186227543017.66,0,0,0-.1-.08l0,0-.06,0-.06,0-.06,0,0,0-.07,0-.06,0h-.06l-.06,0H83Zm0,0"/><path class="cls-7" d="M83,138.17h-.22l-.06,0h-.09l-.08,0-.06,0-.06,0-.06,0-.05,0-.06,0a.1.1,0,0,1-.05,0l0,0,0,.05,0,0,0,.05,0,0,0,.05,0,.06a.1.1,0,0,0,0,0l0,.06,0,.06s0,0,0,.06a309063205124.67,309063205124.67,0,0,0,0,.12s0,0,0,.06,0,0,0,.07,0,0,0,.06,0,0,0,.07v.17s0,0,0,.06,0,0,0,.07,0,0,0,.06,0,0,0,.06h0v0l0,.08,0,.06a.14.14,0,0,0,0,.06l0,.06,0,.06,0,0a369475445349.35,369475445349.35,0,0,0,.08.1l0,0,0,.05,0,0,.06,0a.1.1,0,0,0,0,0l0,0,.06,0,0,0,.06,0,.06,0,.06,0,.07,0h.7l.09,0,.06,0,.06,0,.05,0,.06,0,.06,0,.05,0,0,0,0,0,0,0,0-.05,0,0a.1.1,0,0,1,0-.05l0-.06,0,0,0-.06,0-.06a.14.14,0,0,1,0-.06s0,0,0-.06,0,0,0-.06,0,0,0-.06a.17.17,0,0,1,0-.07s0,0,0-.06a.2.2,0,0,1,0-.07v-.17a.15.15,0,0,1,0-.07s0,0,0-.06a.13.13,0,0,1,0-.06s0,0,0-.06h0v0a.19.19,0,0,0,0-.08l0-.06a.14.14,0,0,1,0-.06l0-.06,0-.06,0-.05,0,0,0-.05,0,0,0-.05-.05,0a186227543017.66,186227543017.66,0,0,0-.1-.08l0,0-.06,0-.06,0-.06,0,0,0-.07,0-.06,0H83Zm0,0"/><path class="cls-7" d="M83,138.17h-.22l-.06,0h-.09l-.08,0-.06,0-.06,0-.06,0-.05,0-.06,0a.1.1,0,0,1-.05,0l0,0,0,.05,0,0,0,.05,0,0,0,.05,0,.06a.1.1,0,0,0,0,0l0,.06,0,.06s0,0,0,.06a309063205124.67,309063205124.67,0,0,0,0,.12s0,0,0,.06,0,0,0,.07,0,0,0,.06,0,0,0,.07v.17s0,0,0,.06,0,0,0,.07,0,0,0,.06,0,0,0,.06h0v0l0,.08,0,.06a.14.14,0,0,0,0,.06l0,.06,0,.06,0,0a369475445349.35,369475445349.35,0,0,0,.08.1l0,0,0,.05,0,0,.06,0a.1.1,0,0,0,0,0l0,0,.06,0,0,0,.06,0,.06,0,.06,0,.07,0h.7l.09,0,.06,0,.06,0,.05,0,.06,0,.06,0,.05,0,0,0,0,0,0,0,0,0a615792408915.75,615792408915.75,0,0,0,.08-.1l0-.06,0,0,0-.06,0-.06a.14.14,0,0,1,0-.06s0,0,0-.06,0,0,0-.06,0,0,0-.06a.15.15,0,0,1,0-.07s0,0,0-.06a.17.17,0,0,1,0-.07v-.17a.17.17,0,0,1,0-.07s0,0,0-.06a.15.15,0,0,1,0-.07s0,0,0-.05h0v0a.29.29,0,0,0,0-.09l0-.06,0,0,0-.06,0-.06,0-.05,0,0,0-.05,0,0,0-.05-.05,0a186227543017.66,186227543017.66,0,0,0-.1-.08l0,0-.06,0-.06,0-.06,0,0,0-.07,0-.06,0h-.06l-.06,0H83Zm0,0"/><path class="cls-7" d="M83,138.17h-.22l-.06,0h-.09l-.08,0-.06,0-.06,0-.06,0-.05,0-.06,0a.1.1,0,0,1-.05,0l0,0,0,.05,0,0,0,.05,0,0,0,.05,0,.06a.1.1,0,0,0,0,0l0,.06,0,.06s0,0,0,.06a309063205124.67,309063205124.67,0,0,0,0,.12s0,0,0,.06,0,0,0,.07,0,0,0,.06,0,0,0,.07v.17s0,0,0,.06,0,0,0,.07,0,0,0,.06,0,0,0,.06h0v0l0,.08,0,.06a.14.14,0,0,0,0,.06l0,.06,0,.06,0,0a369475445349.35,369475445349.35,0,0,0,.08.1l0,0,0,.05,0,0,.06,0a.1.1,0,0,0,0,0l0,0,.06,0,0,0,.06,0,.06,0,.06,0,.07,0h.7l.09,0,.06,0,.06,0,.05,0,.06,0,.06,0,.05,0,0,0,0,0,0,0,0,0a615792408915.75,615792408915.75,0,0,0,.08-.1l0-.06,0,0,0-.06,0-.06a.14.14,0,0,1,0-.06s0,0,0-.06,0,0,0-.06,0,0,0-.06a.15.15,0,0,1,0-.07s0,0,0-.06a.17.17,0,0,1,0-.07v-.17a.17.17,0,0,1,0-.07s0,0,0-.06a.15.15,0,0,1,0-.07s0,0,0-.05h0v0a.29.29,0,0,0,0-.09l0-.06,0,0,0-.06,0-.06,0-.05,0,0,0-.05,0,0,0-.05-.05,0a186227543017.66,186227543017.66,0,0,0-.1-.08l0,0-.06,0-.06,0-.06,0,0,0-.07,0-.06,0h-.06l-.06,0H83Zm0,0"/><path class="cls-7" d="M83,138.17h-.22l-.06,0h-.09l-.08,0-.06,0-.06,0-.06,0-.05,0-.06,0a.1.1,0,0,1-.05,0l0,0,0,.05,0,0,0,.05,0,0,0,.05,0,.06a.1.1,0,0,0,0,0l0,.06,0,.06s0,0,0,.06a309063205124.67,309063205124.67,0,0,0,0,.12s0,0,0,.06,0,0,0,.07,0,0,0,.06,0,0,0,.07v.17s0,0,0,.06,0,0,0,.07,0,0,0,.06,0,0,0,.06h0v0l0,.08,0,.06a.14.14,0,0,0,0,.06l0,.06,0,.06,0,0a369475445349.35,369475445349.35,0,0,0,.08.1l0,0,0,.05,0,0,.06,0a.1.1,0,0,0,0,0l0,0,.06,0,0,0,.06,0,.06,0,.06,0,.07,0h.7l.09,0,.06,0,.06,0,.05,0,.06,0,.06,0,.05,0,0,0,0,0,0,0,0,0a615792408915.75,615792408915.75,0,0,0,.08-.1l0-.06,0,0,0-.06,0-.06a.14.14,0,0,1,0-.06s0,0,0-.06,0,0,0-.06,0,0,0-.06a.15.15,0,0,1,0-.07s0,0,0-.06a.17.17,0,0,1,0-.07v-.17a.17.17,0,0,1,0-.07s0,0,0-.06a.15.15,0,0,1,0-.07s0,0,0-.05h0v0a.29.29,0,0,0,0-.09l0-.06,0,0,0-.06,0-.06,0-.05,0,0,0-.05,0,0,0-.05-.05,0a186227543017.66,186227543017.66,0,0,0-.1-.08l0,0-.06,0-.06,0-.06,0,0,0-.07,0-.06,0h-.06l-.06,0H83Zm0,0"/><path class="cls-7" d="M83,138.17h-.22l-.06,0h-.09l-.08,0-.06,0-.06,0-.06,0-.05,0-.06,0a.1.1,0,0,1-.05,0l0,0,0,.05,0,0,0,.05,0,0,0,.05,0,.06a.1.1,0,0,0,0,0l0,.06,0,.06s0,0,0,.06a309063205124.67,309063205124.67,0,0,0,0,.12s0,0,0,.06,0,0,0,.07,0,0,0,.06,0,0,0,.07v.17s0,0,0,.06,0,0,0,.07,0,0,0,.06,0,0,0,.06h0v0l0,.08,0,.06a.14.14,0,0,0,0,.06l0,.06,0,.06,0,0a369475445349.35,369475445349.35,0,0,0,.08.1l0,0,0,.05,0,0,.06,0a.1.1,0,0,0,0,0l0,0,.06,0,0,0,.06,0,.06,0,.06,0,.07,0h.7l.09,0,.06,0,.06,0,.05,0,.06,0,.06,0,.05,0,0,0,0,0,0,0,0,0a615792408915.75,615792408915.75,0,0,0,.08-.1l0-.06,0,0,0-.06,0-.06a.14.14,0,0,1,0-.06s0,0,0-.06,0,0,0-.06,0,0,0-.06a.15.15,0,0,1,0-.07s0,0,0-.06a.17.17,0,0,1,0-.07v-.17a.17.17,0,0,1,0-.07s0,0,0-.06a.15.15,0,0,1,0-.07s0,0,0-.05h0v0a.29.29,0,0,0,0-.09l0-.06,0,0,0-.06,0-.06,0-.05,0,0,0-.05,0,0,0-.05-.05,0a186227543017.66,186227543017.66,0,0,0-.1-.08l0,0-.06,0-.06,0-.06,0,0,0-.07,0-.06,0h-.06l-.06,0H83Zm0,0"/><path class="cls-7" d="M83,138.17h-.22l-.06,0h-.09l-.08,0-.06,0-.06,0-.06,0-.05,0-.06,0a.1.1,0,0,1-.05,0l0,0,0,.05,0,0,0,.05,0,0,0,.05,0,.06a.1.1,0,0,0,0,0l0,.06,0,.06s0,0,0,.06a309063205124.67,309063205124.67,0,0,0,0,.12s0,0,0,.06,0,0,0,.07,0,0,0,.06,0,0,0,.07v.17s0,0,0,.06,0,0,0,.07,0,0,0,.06,0,0,0,.06h0v0l0,.08,0,.06a.14.14,0,0,0,0,.06l0,.06,0,.06,0,0a369475445349.35,369475445349.35,0,0,0,.08.1l0,0,0,.05,0,0,.06,0a.1.1,0,0,0,0,0l0,0,.06,0,0,0,.06,0,.06,0,.06,0,.07,0h.7l.09,0,.06,0,.06,0,.05,0,.06,0,.06,0,.05,0,0,0,0,0,0,0,0,0a615792408915.75,615792408915.75,0,0,0,.08-.1l0-.06,0,0,0-.06,0-.06a.14.14,0,0,1,0-.06s0,0,0-.06,0,0,0-.06,0,0,0-.06a.15.15,0,0,1,0-.07s0,0,0-.06a.17.17,0,0,1,0-.07v-.17a.17.17,0,0,1,0-.07s0,0,0-.06a.15.15,0,0,1,0-.07s0,0,0-.05h0v0a.29.29,0,0,0,0-.09l0-.06,0,0,0-.06,0-.06,0-.05,0,0,0-.05,0,0,0-.05-.05,0a186227543017.66,186227543017.66,0,0,0-.1-.08l0,0-.06,0-.06,0-.06,0,0,0-.07,0-.06,0h-.06l-.06,0H83Zm0,0"/><path class="cls-7" d="M83,138.17h-.22l-.06,0h-.09l-.08,0-.06,0-.06,0-.06,0-.05,0-.06,0a.1.1,0,0,1-.05,0l0,0,0,.05,0,0,0,.05,0,0,0,.05,0,.06a.1.1,0,0,0,0,0l0,.06,0,.06s0,0,0,.06a309063205124.67,309063205124.67,0,0,0,0,.12s0,0,0,.06,0,0,0,.07,0,0,0,.06,0,0,0,.07v.17s0,0,0,.06,0,0,0,.07,0,0,0,.06,0,0,0,.06h0v0l0,.08,0,.06a.14.14,0,0,0,0,.06l0,.06,0,.06,0,0a369475445349.35,369475445349.35,0,0,0,.08.1l0,0,0,.05,0,0,.06,0a.1.1,0,0,0,0,0l0,0,.06,0,0,0,.06,0,.06,0,.06,0,.07,0h.7l.09,0,.06,0,.06,0,.05,0,.06,0,.06,0,.05,0,0,0,0,0,0,0,0,0a615792408915.75,615792408915.75,0,0,0,.08-.1l0-.06,0,0,0-.06,0-.06a.14.14,0,0,1,0-.06s0,0,0-.06,0,0,0-.06,0,0,0-.06a.15.15,0,0,1,0-.07s0,0,0-.06a.17.17,0,0,1,0-.07v-.17a.17.17,0,0,1,0-.07s0,0,0-.06a.15.15,0,0,1,0-.07s0,0,0-.05h0v0a.29.29,0,0,0,0-.09l0-.06,0,0,0-.06,0-.06,0-.05,0,0,0-.05,0,0,0-.05-.05,0a186227543017.66,186227543017.66,0,0,0-.1-.08l0,0-.06,0-.06,0-.06,0,0,0-.07,0-.06,0h-.06l-.06,0H83Zm0,0"/><path class="cls-7" d="M83,138.17h-.22l-.06,0h-.09l-.08,0-.06,0-.06,0-.06,0-.05,0-.06,0a.1.1,0,0,1-.05,0l0,0,0,.05,0,0,0,.05,0,0,0,.05,0,.06a.1.1,0,0,0,0,0l0,.06,0,.06s0,0,0,.06a309063205124.67,309063205124.67,0,0,0,0,.12s0,0,0,.06,0,0,0,.07,0,0,0,.06,0,0,0,.07v.17s0,0,0,.06,0,0,0,.07,0,0,0,.06,0,0,0,.06h0v0l0,.08,0,.06a.14.14,0,0,0,0,.06l0,.06,0,.06,0,0a369475445349.35,369475445349.35,0,0,0,.08.1l0,0,0,.05,0,0,.06,0a.1.1,0,0,0,0,0l0,0,.06,0,0,0,.06,0,.06,0,.06,0,.07,0h.7l.09,0,.06,0,.06,0,.05,0,.06,0,.06,0,.05,0,0,0,0,0,0,0,0,0a615792408915.75,615792408915.75,0,0,0,.08-.1l0-.06,0,0,0-.06,0-.06a.14.14,0,0,1,0-.06s0,0,0-.06,0,0,0-.06,0,0,0-.06a.15.15,0,0,1,0-.07s0,0,0-.06a.17.17,0,0,1,0-.07v-.17a.17.17,0,0,1,0-.07s0,0,0-.06a.15.15,0,0,1,0-.07s0,0,0-.05h0v0a.29.29,0,0,0,0-.09l0-.06,0,0,0-.06,0-.06,0-.05,0,0,0-.05,0,0,0-.05-.05,0a186227543017.66,186227543017.66,0,0,0-.1-.08l0,0-.06,0-.06,0-.06,0,0,0-.07,0-.06,0h-.06l-.06,0H83Zm0,0"/><path class="cls-7" d="M83,138.17h-.22l-.06,0h-.09l-.08,0-.06,0-.06,0-.06,0-.05,0-.06,0a.1.1,0,0,1-.05,0l0,0,0,.05,0,0,0,.05,0,0,0,.05,0,.06a.1.1,0,0,0,0,0l0,.06,0,.06s0,0,0,.06a309063205124.67,309063205124.67,0,0,0,0,.12s0,0,0,.06,0,0,0,.07,0,0,0,.06,0,0,0,.07v.17s0,0,0,.06,0,0,0,.07,0,0,0,.06,0,0,0,.06h0v0l0,.08,0,.06a.14.14,0,0,0,0,.06l0,.06,0,.06,0,0a369475445349.35,369475445349.35,0,0,0,.08.1l0,0,0,.05,0,0,.06,0a.1.1,0,0,0,0,0l0,0,.06,0,0,0,.06,0,.06,0,.06,0,.07,0h.7l.09,0,.06,0,.06,0,.05,0,.06,0,.06,0,.05,0,0,0,0,0,0,0,0,0a615792408915.75,615792408915.75,0,0,0,.08-.1l0-.06,0,0,0-.06,0-.06a.14.14,0,0,1,0-.06s0,0,0-.06,0,0,0-.06,0,0,0-.06a.15.15,0,0,1,0-.07s0,0,0-.06a.17.17,0,0,1,0-.07v-.17a.17.17,0,0,1,0-.07s0,0,0-.06a.15.15,0,0,1,0-.07s0,0,0-.05h0v0a.29.29,0,0,0,0-.09l0-.06,0,0,0-.06,0-.06,0-.05,0,0,0-.05,0,0,0-.05-.05,0a186227543017.66,186227543017.66,0,0,0-.1-.08l0,0-.06,0-.06,0-.06,0,0,0-.07,0-.06,0h-.06l-.06,0H83Zm0,0"/><path class="cls-7" d="M83,138.17h-.22l-.06,0h-.09l-.08,0-.06,0-.06,0-.06,0-.05,0-.06,0a.1.1,0,0,1-.05,0l0,0,0,.05,0,0,0,.05,0,0,0,.05,0,.06a.1.1,0,0,0,0,0l0,.06,0,.06s0,0,0,.06a309063205124.67,309063205124.67,0,0,0,0,.12s0,0,0,.06,0,0,0,.07,0,0,0,.06,0,0,0,.07v.17s0,0,0,.06,0,0,0,.07,0,0,0,.06,0,0,0,.06h0v0l0,.08,0,.06a.14.14,0,0,0,0,.06l0,.06,0,.06,0,0a369475445349.35,369475445349.35,0,0,0,.08.1l0,0,0,.05,0,0,.06,0a.1.1,0,0,0,0,0l0,0,.06,0,0,0,.06,0,.06,0,.06,0,.07,0h.7l.09,0,.06,0,.06,0,.05,0,.06,0,.06,0,.05,0,0,0,0,0,0,0,0,0a615792408915.75,615792408915.75,0,0,0,.08-.1l0-.06,0,0,0-.06,0-.06a.14.14,0,0,1,0-.06s0,0,0-.06,0,0,0-.06,0,0,0-.06a.15.15,0,0,1,0-.07s0,0,0-.06a.17.17,0,0,1,0-.07v-.17a.17.17,0,0,1,0-.07s0,0,0-.06a.15.15,0,0,1,0-.07s0,0,0-.05h0v0a.29.29,0,0,0,0-.09l0-.06,0,0,0-.06,0-.06,0-.05,0,0,0-.05,0,0,0-.05-.05,0a186227543017.66,186227543017.66,0,0,0-.1-.08l0,0-.06,0-.06,0-.06,0,0,0-.07,0-.06,0h-.06l-.06,0H83Zm0,0"/><path class="cls-9" d="M15.24,145a2.71,2.71,0,0,0-2.71,2.71v3.06a15.71,15.71,0,0,0,31.42,0v-3.06A2.71,2.71,0,0,0,41.24,145Zm0,0"/><path class="cls-10" d="M28.24,155.73a15.67,15.67,0,0,0-11.84,5.38,15.71,15.71,0,0,0,23.67,0,15.65,15.65,0,0,0-11.83-5.38Zm0,0"/><path class="cls-8" d="M15.24,145a2.71,2.71,0,0,0-2.71,2.71v2.74a36.21,36.21,0,0,0,31.42,0v-2.75A2.71,2.71,0,0,0,41.24,145Zm0,0"/><path class="cls-11" d="M15.24,145a2.71,2.71,0,0,0-2.71,2.71v2.74A37,37,0,0,0,18,152.52c-1.07-.73-1.28-1.73-1.28-3.3V145Zm0,0"/><path class="cls-11" d="M35.52,145v4.21c0,2.12-.54,3.95-2.36,4.44A36.66,36.66,0,0,0,44,150.47v-2.75A2.71,2.71,0,0,0,41.24,145Zm0,0"/><path class="cls-12" d="M41.24,145A2.71,2.71,0,0,1,44,147.72v2.74a37,37,0,0,1-5.49,2.06c1.07-.73,1.28-1.73,1.28-3.3V145Zm0,0"/><path class="cls-5" d="M15.24,144.15a3.59,3.59,0,0,0-3.57,3.57v3.06a16.57,16.57,0,1,0,33.14,0v-3.06a3.59,3.59,0,0,0-3.57-3.57Zm0,1.73h26a1.82,1.82,0,0,1,1.84,1.84v3.06a14.84,14.84,0,1,1-29.68,0v-3.06a1.82,1.82,0,0,1,1.84-1.84Zm0,0"/><path class="cls-5" d="M12.39,150l-.38.77a37,37,0,0,0,32.46,0l-.38-.77a36.15,36.15,0,0,1-31.7,0Zm0,0"/><path class="cls-13" d="M26.5,160c0,1-1.17,1.84-2.61,1.84S21.28,161,21.28,160s1.17-1.84,2.61-1.84S26.5,159,26.5,160Zm0,0"/><path class="cls-5" d="M9.86,117.71a8.89,8.89,0,0,1,8.91,8.91v4.46a8.91,8.91,0,0,1-17.82,0v-4.46a8.89,8.89,0,0,1,8.91-8.91Zm0,0"/><path class="cls-8" d="M15.05,124.09a2.88,2.88,0,1,1-2.88-2.87,2.88,2.88,0,0,1,2.88,2.87Zm0,0"/><path class="cls-5" d="M46.62,140a8.89,8.89,0,0,1-8.91-8.91v-7.36H55.53v7.36A8.89,8.89,0,0,1,46.62,140Zm0,0"/><path class="cls-8" d="M53.18,128.73a2.88,2.88,0,1,1-2.88-2.87,2.88,2.88,0,0,1,2.88,2.87Zm0,0"/><path class="cls-5" d="M28.14,40.26a22.11,22.11,0,0,0-17.68,9,19.21,19.21,0,0,0-2.4-.15A19.64,19.64,0,0,0-11.53,68.7a19.26,19.26,0,0,0,.31,3.39,19.6,19.6,0,0,0-8,15.77A19.62,19.62,0,0,0,.38,107.44a19.72,19.72,0,0,0,7-1.3,27.7,27.7,0,0,0,41.68,0,19.58,19.58,0,0,0,18.62-34A20.25,20.25,0,0,0,68,68.7,19.63,19.63,0,0,0,48.42,49.12a19.21,19.21,0,0,0-2.4.15,22.09,22.09,0,0,0-17.78-9Zm0,6.92h.06a15.14,15.14,0,0,1,13.15,7.63l1.32,2.28,2.55-.65A12.64,12.64,0,0,1,61.08,68.7h0a12.64,12.64,0,0,1-.62,3.91l-.89,2.74,2.53,1.37A12.66,12.66,0,1,1,49.79,98.85l-2.74-1.57-1.81,2.58a20.83,20.83,0,0,1-34,0L9.41,97.28,6.68,98.85a12.67,12.67,0,0,1-6.3,1.68A12.62,12.62,0,0,1-12.29,87.86,12.64,12.64,0,0,1-5.64,76.72l2.53-1.37L-4,72.61a12.64,12.64,0,0,1-.62-3.91h0A12.62,12.62,0,0,1,8.05,56a12.45,12.45,0,0,1,3.16.41l2.56.65,1.31-2.28a15.16,15.16,0,0,1,13.08-7.63Zm0,0"/><path class="cls-14" d="M52.51,87.86A24.27,24.27,0,1,1,28.24,63.59,24.27,24.27,0,0,1,52.51,87.86Zm0,0"/><path class="cls-14" d="M72.22,87.86A16.13,16.13,0,1,1,56.09,71.74,16.13,16.13,0,0,1,72.22,87.86Zm0,0"/><path class="cls-14" d="M16.51,87.86A16.13,16.13,0,1,1,.38,71.74,16.13,16.13,0,0,1,16.51,87.86Zm0,0"/><path class="cls-15" d="M64.54,68.7A16.12,16.12,0,1,1,48.42,52.57,16.12,16.12,0,0,1,64.54,68.7Zm0,0"/><path class="cls-15" d="M24.18,68.7A16.13,16.13,0,1,1,8.06,52.57,16.12,16.12,0,0,1,24.18,68.7Zm0,0"/><path class="cls-15" d="M46.86,62.34A18.62,18.62,0,1,1,28.24,43.72,18.62,18.62,0,0,1,46.86,62.34Zm0,0"/><path class="cls-15" d="M13.86,83.5A13.35,13.35,0,1,1,.52,70.15,13.35,13.35,0,0,1,13.86,83.5Zm0,0"/><path class="cls-15" d="M69.31,83.5A13.35,13.35,0,1,1,56,70.15,13.35,13.35,0,0,1,69.31,83.5Zm0,0"/><path class="cls-15" d="M46.26,85.84a18,18,0,1,1-18-18,18,18,0,0,1,18,18Zm0,0"/><path class="cls-5" d="M28.15,42.86a19.47,19.47,0,0,0-16.48,9.25A16.94,16.94,0,0,0-8.93,68.7a16.86,16.86,0,0,0,.64,4.57A17,17,0,0,0-16.6,87.86a17,17,0,0,0,17,17A17,17,0,0,0,8.16,103a25.1,25.1,0,0,0,40.16,0A17,17,0,0,0,64.77,73.27a17.27,17.27,0,0,0,.64-4.57A16.95,16.95,0,0,0,44.8,52.11a19.45,19.45,0,0,0-16.56-9.25Zm0,1.73h.08a17.73,17.73,0,0,1,15.4,8.93l.33.57.64-.17A15.27,15.27,0,0,1,63.68,68.7a15.07,15.07,0,0,1-.75,4.71l-.22.69.63.34A15.26,15.26,0,1,1,48.5,101.1l-.68-.39-.46.64a23.4,23.4,0,0,1-38.25,0l-.45-.64L8,101.1a15.29,15.29,0,0,1-7.59,2A15.25,15.25,0,0,1-14.88,87.86a15.26,15.26,0,0,1,8-13.42l.64-.34-.23-.69A15.36,15.36,0,0,1-7.2,68.7,15.27,15.27,0,0,1,11.87,53.92l.64.17.32-.57a17.75,17.75,0,0,1,15.32-8.93Zm0,0"/><path class="cls-16" d="M35.47,82.55a9.27,9.27,0,1,1-9.26-9.27,9.27,9.27,0,0,1,9.26,9.27Zm0,0"/><path class="cls-16" d="M59.11,81.92A6.08,6.08,0,1,1,53,75.84a6.07,6.07,0,0,1,6.07,6.08Zm0,0"/><path class="cls-16" d="M5.45,81.92A6.08,6.08,0,0,1-.63,88,6.07,6.07,0,0,1-6.7,81.92,6.08,6.08,0,0,1-.63,75.84a6.08,6.08,0,0,1,6.08,6.08Zm0,0"/><path class="cls-16" d="M51.24,62.36a2.76,2.76,0,1,1-2.76-2.76,2.76,2.76,0,0,1,2.76,2.76Zm0,0"/><path class="cls-16" d="M6.69,62.36A2.76,2.76,0,1,1,3.93,59.6a2.75,2.75,0,0,1,2.76,2.76Zm0,0"/><path class="cls-17" d="M179.39,187.89c0-10.73,4.73-12.87,8-12.87s8,2.14,8,12.87-3.58,26-8,26-8-15.26-8-26Zm0,0"/><path class="cls-5" d="M187.38,172.79a9.05,9.05,0,0,0-6.92,3.2c-2.05,2.42-3.3,6.21-3.3,11.9a69.39,69.39,0,0,0,2.42,17.62,28.91,28.91,0,0,0,2.78,7c1.12,1.88,2.64,3.64,5,3.64s3.9-1.76,5-3.64a28.92,28.92,0,0,0,2.77-7,68.89,68.89,0,0,0,2.43-17.62c0-5.69-1.25-9.48-3.3-11.9a9.06,9.06,0,0,0-6.93-3.2Zm0,4.46a4.3,4.3,0,0,1,3.52,1.62c1.13,1.34,2.25,4,2.25,9a65.94,65.94,0,0,1-2.26,16.42,25.89,25.89,0,0,1-2.31,5.87,4.42,4.42,0,0,1-1.2,1.42,4.61,4.61,0,0,1-1.19-1.42,25.89,25.89,0,0,1-2.31-5.87,65.94,65.94,0,0,1-2.26-16.42c0-5,1.11-7.68,2.24-9a4.31,4.31,0,0,1,3.52-1.62Zm0,0"/><path class="cls-17" d="M139,187.89c0-10.73,4.72-12.87,8-12.87s8,2.14,8,12.87-3.58,26-8,26-8-15.26-8-26Zm0,0"/><path class="cls-5" d="M147,172.79a9.05,9.05,0,0,0-6.92,3.2c-2.05,2.42-3.3,6.21-3.3,11.9a69.39,69.39,0,0,0,2.42,17.62,28.91,28.91,0,0,0,2.78,7c1.12,1.88,2.63,3.64,5,3.64s3.9-1.76,5-3.64a29.34,29.34,0,0,0,2.77-7,69.34,69.34,0,0,0,2.43-17.62c0-5.69-1.25-9.48-3.3-11.9a9.07,9.07,0,0,0-6.93-3.2Zm0,4.46a4.3,4.3,0,0,1,3.52,1.62c1.13,1.34,2.24,4,2.24,9a65.92,65.92,0,0,1-2.25,16.42,25.89,25.89,0,0,1-2.31,5.87,4.42,4.42,0,0,1-1.2,1.42,4.71,4.71,0,0,1-1.2-1.42,26.41,26.41,0,0,1-2.3-5.87,65.94,65.94,0,0,1-2.26-16.42c0-5,1.11-7.68,2.24-9a4.31,4.31,0,0,1,3.52-1.62Zm0,0"/><path class="cls-17" d="M101.67,129.54c4.11-9.92,9.3-10.09,12.32-8.84s6.56,5,2.45,15-13.25,22.63-17.33,21-1.54-17.16,2.56-27.07Zm0,0"/><path class="cls-5" d="M114.84,118.64a9.07,9.07,0,0,0-7.62.31c-2.82,1.45-5.43,4.48-7.61,9.74a69.68,69.68,0,0,0-4.5,17.2,29.15,29.15,0,0,0-.1,7.49c.32,2.17,1,4.37,3.25,5.29s4.28-.13,6-1.44a29.46,29.46,0,0,0,5.22-5.37,68.82,68.82,0,0,0,9-15.35c2.18-5.26,2.48-9.24,1.51-12.26a9.06,9.06,0,0,0-5.17-5.61Zm-1.71,4.12a4.31,4.31,0,0,1,2.63,2.85c.54,1.67.55,4.54-1.38,9.19A66,66,0,0,1,106,149.1a26.1,26.1,0,0,1-4.38,4.55,4.62,4.62,0,0,1-1.65.85,4.46,4.46,0,0,1-.57-1.77,26.23,26.23,0,0,1,.12-6.31,66.45,66.45,0,0,1,4.19-16c1.93-4.65,4-6.67,5.53-7.47a4.32,4.32,0,0,1,3.87-.16Zm0,0"/><path class="cls-5" d="M167.18,72.21a62.6,62.6,0,1,0,62.6,62.6,62.66,62.66,0,0,0-62.6-62.6Zm0,7.14a55.46,55.46,0,1,1-55.46,55.46,55.41,55.41,0,0,1,55.46-55.46Zm0,0"/><path class="cls-17" d="M108.15,134.81a59,59,0,1,1,17.29,41.74,59,59,0,0,1-17.29-41.74Zm0,0"/><path class="cls-17" d="M115.65,131.73a54.61,54.61,0,1,1,16,38.61,54.6,54.6,0,0,1-16-38.61Zm0,0"/><path class="cls-8" d="M108.15,134.81a59,59,0,0,0,118.06,0Zm118.06,0"/><path class="cls-8" d="M115.8,134.81a54.56,54.56,0,0,0,109,0Zm109,0"/><path class="cls-5" d="M167.18,74.89a59.92,59.92,0,1,0,59.92,59.92,59.92,59.92,0,0,0-59.92-59.92Zm0,1.78A58.14,58.14,0,1,1,109,134.81a58.12,58.12,0,0,1,58.14-58.14Zm0,0"/><path class="cls-5" d="M186.15,113.42a9.17,9.17,0,0,1,9.19,9.19v4.61a9.2,9.2,0,0,1-18.39,0v-4.61a9.17,9.17,0,0,1,9.2-9.19Zm0,0"/><path class="cls-8" d="M180.79,120a3,3,0,1,1,.87,2.1,3,3,0,0,1-.87-2.1Zm0,0"/><path class="cls-5" d="M148.21,113.42a9.17,9.17,0,0,1,9.19,9.19v4.61a9.19,9.19,0,0,1-18.38,0v-4.61a9.17,9.17,0,0,1,9.19-9.19Zm0,0"/><path class="cls-8" d="M142.86,120a3,3,0,1,1,5.06,2.1,3,3,0,0,1-5.06-2.1Zm0,0"/><path class="cls-9" d="M157.39,139.13a2,2,0,0,0-2,2v2.3a11.83,11.83,0,0,0,23.66,0v-2.3a2,2,0,0,0-2-2Zm19.58,0"/><path class="cls-10" d="M167.18,147.2a11.82,11.82,0,0,0-8.92,4.05,11.84,11.84,0,0,0,17.83,0,11.81,11.81,0,0,0-8.91-4.05Zm0,0"/><path class="cls-8" d="M157.39,139.13a2,2,0,0,0-2,2v2.06a27.27,27.27,0,0,0,23.66,0v-2.06a2,2,0,0,0-2-2Zm19.58,0"/><path class="cls-11" d="M175.84,139.13v3.16c0,1.19-.16,1.94-1,2.49a29,29,0,0,0,4.14-1.55v-2.06a2,2,0,0,0-2-2Zm1.13,0"/><path class="cls-11" d="M157.39,139.13a2,2,0,0,0-2,2v2.06a27.54,27.54,0,0,0,8.12,2.41c-1.37-.37-1.78-1.75-1.78-3.35v-3.16Zm4.3,0"/><path class="cls-12" d="M158.52,139.13v3.16c0,1.19.15,1.94,1,2.49a28.46,28.46,0,0,1-4.13-1.55v-2.06a2,2,0,0,1,2-2Zm-1.13,0"/><path class="cls-5" d="M157.39,138.24a3,3,0,0,0-2.94,2.93v2.3a12.73,12.73,0,1,0,25.45,0v-2.3a2.94,2.94,0,0,0-2.93-2.93ZM177,140a1.13,1.13,0,0,1,1.15,1.15v2.3a10.94,10.94,0,0,1-21.88,0v-2.3a1.13,1.13,0,0,1,1.15-1.15Zm0,0"/><path class="cls-5" d="M179.06,142.74a27.1,27.1,0,0,1-23.77,0l-.39.8a28,28,0,0,0,24.56,0l-.4-.8Zm0,0"/><path class="cls-13" d="M168.49,150.39a1.21,1.21,0,0,1,.57-1,2.45,2.45,0,0,1,1.39-.41c1.09,0,2,.62,2,1.39s-.88,1.38-2,1.38a2.45,2.45,0,0,1-1.39-.4,1.22,1.22,0,0,1-.57-1Zm0,0"/><path class="cls-5" d="M155.73,52.17v6c5.75.38,11.29.45,17.16.88,7.33.54,11.7,2.67,14.28,5.27a12.74,12.74,0,0,1,3.58,9.36c0,6.17-3.28,10.31-9,13.1s-13.88,3.79-22.26,2.5c-1.24-.19-2.49-.43-3.74-.72v6.19c.94.2,1.89.37,2.83.51,9.38,1.44,18.61.47,25.82-3s12.42-10,12.42-18.54A19,19,0,0,0,191.46,60c-3.83-3.87-9.8-6.43-18.13-7-6.3-.47-11.92-.49-17.6-.83Zm0,0"/><path class="cls-5" d="M134,48.53l2,5.33.49,1.31a89.07,89.07,0,0,1-15.73-3.42l-4.65-1.63.65,4.87c3.14,23.89,22.39,36.94,40.89,40.1V89c-14.82-2.84-29.43-12.52-33.83-30A60.89,60.89,0,0,0,141,61.59l4.32,0-1.79-4.81a118.92,118.92,0,0,0,14.13,1.52v-6a93.46,93.46,0,0,1-18.1-2.4Zm0,0"/><path class="cls-15" d="M138.83,52.81,141,58.56c-9.77.06-21.21-4-21.21-4,6,45.65,74,48.4,74,19.06,0-8.26-5-16.5-20.67-17.65-11.78-.86-21.6-.13-34.28-3.2Zm0,0"/><path class="cls-16" d="M138.83,52.81,141,58.56c-9.77.06-21.21-4-21.21-4,15.86,20.68,62.52,23.28,70.79,9-3-3.94-8.52-6.89-17.43-7.55-11.78-.86-21.6-.13-34.28-3.2Zm0,0"/><path class="cls-14" d="M119.75,54.6c6,45.65,74,48.4,74,19.06a18.74,18.74,0,0,0-.43-4c-10.88,26.27-65.64,14.7-73.6-15Zm0,0"/><path class="cls-5" d="M155.73,54.44v1.48c5.73.36,11.29.4,17.32.85,7.71.56,12.68,2.86,15.73,5.93a15.12,15.12,0,0,1,4.24,11c0,7-4,12.08-10.3,15.14s-14.84,4-23.59,2.7c-1.13-.17-2.27-.38-3.4-.63v1.54c1.06.23,2.11.43,3.17.59,9,1.38,17.83.41,24.49-2.84s11.14-8.87,11.14-16.5a16.66,16.66,0,0,0-4.68-12c-3.36-3.4-8.73-5.8-16.69-6.38-6.14-.45-11.73-.48-17.43-.82Zm0,0"/><path class="cls-5" d="M137.62,51.74l.5,1.33,1.72,4.65c-9.31-.24-19.85-3.83-19.85-3.83l-1.16-.41L119,54.7c3,22.65,21,35,38.64,38.09V91.25C140.92,88.19,124,76.73,120.7,55.66c1.72.59,11.14,3.71,20.26,3.66H142l-2-5.51A102.9,102.9,0,0,0,157.64,56V54.55A96.45,96.45,0,0,1,139,52.08Zm0,0"/></g><text class="cls-18" transform="translate(14.09 268.28)">ukraina</text><path class="cls-4" d="M150.6,0l29,0h16l0,16c0,7,0,14,0,21A29.09,29.09,0,0,1,150.6,0Z"/><text class="cls-19" transform="translate(159.66 31.75)">26</text></svg>