<?xml version="1.0" encoding="utf-8"?>
<!-- Generator: Adobe Illustrator 26.0.1, SVG Export Plug-In . SVG Version: 6.00 Build 0)  -->
<svg version="1.1" id="Слой_1" xmlns="http://www.w3.org/2000/svg" xmlns:xlink="http://www.w3.org/1999/xlink" x="0px" y="0px"
	 viewBox="0 0 195.6 280.6" style="enable-background:new 0 0 195.6 280.6;" xml:space="preserve">
<style type="text/css">
	.st0{clip-path:url(#SVGID_00000049936781801288700070000009129420544595571073_);fill:#EB5A53;}
	.st1{clip-path:url(#SVGID_00000062175371824530802410000001513647568207909266_);fill:#1A1A1A;}
	.st2{clip-path:url(#SVGID_00000116211334954023588210000008016622840278659974_);fill:#1A1A1A;}
	.st3{clip-path:url(#SVGID_00000003817142581323258610000011702969277357227691_);fill:#1A1A1A;}
	.st4{clip-path:url(#SVGID_00000172398352270375250980000013921253144927998592_);fill:#1A1A1A;}
	.st5{clip-path:url(#SVGID_00000145028822935982472740000016742831490632201608_);fill:#1A1A1A;}
	.st6{clip-path:url(#SVGID_00000039849789325902855760000005069965849945493934_);fill:#1A1A1A;}
	.st7{clip-path:url(#SVGID_00000146491899889883637690000007809119086175201972_);fill:#DBE492;}
	.st8{clip-path:url(#SVGID_00000174580920741855479870000000051693054635372984_);fill:#EB5A53;}
	.st9{clip-path:url(#SVGID_00000129888174965720776060000005704149362635947667_);fill:#EB5A53;}
	.st10{clip-path:url(#SVGID_00000109011864475175182670000004223448380742612898_);fill:#FFFFFF;}
	.st11{clip-path:url(#SVGID_00000168111712132069397320000017489814050907528093_);fill:#1A1A1A;}
	.st12{clip-path:url(#SVGID_00000134231602794750454450000006417254994053522858_);fill:#1A1A1A;}
	.st13{clip-path:url(#SVGID_00000119836042262078223890000010661577584647982010_);fill:#1A1A1A;}
	.st14{clip-path:url(#SVGID_00000078041968942937582740000016041475446685014670_);fill:#1A1A1A;}
	.st15{clip-path:url(#SVGID_00000006671041022630718450000001115984130196827826_);fill:#1A1A1A;}
	.st16{clip-path:url(#SVGID_00000008834216812154422650000003182440850305715389_);fill:#1A1A1A;}
	.st17{clip-path:url(#SVGID_00000059993292018656181130000012670482739612149660_);fill:#1A1A1A;}
	.st18{clip-path:url(#SVGID_00000137851650143134496120000014306923776520214685_);fill:#1A1A1A;}
	.st19{clip-path:url(#SVGID_00000106139153992523501650000004759689134575526060_);fill:#FFFFFF;}
	.st20{clip-path:url(#SVGID_00000090275150508593459760000017071427714504075959_);fill:#1A1A1A;}
	.st21{clip-path:url(#SVGID_00000126322237782406851210000004848886911340803486_);fill:#FFFFFF;}
	.st22{clip-path:url(#SVGID_00000122002493595858766280000000008554199594639238_);fill:#1A1A1A;}
	.st23{clip-path:url(#SVGID_00000036949166050690606300000011570063677359947924_);fill:#1A1A1A;}
	.st24{clip-path:url(#SVGID_00000090272960071151078940000012411898649795746947_);fill:#1A1A1A;}
	.st25{clip-path:url(#SVGID_00000055675164939725205510000002753129387241637763_);fill:#FFFFFF;}
	.st26{enable-background:new    ;}
	.st27{fill:#FFFFFF;}
	.st28{fill:#1A1A1A;}
</style>
<g>
	<g>
		<g>
			<defs>
				<rect id="SVGID_1_" width="195.6" height="280.6"/>
			</defs>
			<clipPath id="SVGID_00000051359437660498974180000010308989389075264688_">
				<use xlink:href="#SVGID_1_"  style="overflow:visible;"/>
			</clipPath>
			
				<rect x="-277.8" y="-2.9" style="clip-path:url(#SVGID_00000051359437660498974180000010308989389075264688_);fill:#EB5A53;" width="488.1" height="289.7"/>
		</g>
	</g>
	<g>
		<g>
			<defs>
				<rect id="SVGID_00000175289190286641856080000000539875190171403424_" width="195.6" height="280.6"/>
			</defs>
			<clipPath id="SVGID_00000165956279419607948890000015568240434852546436_">
				<use xlink:href="#SVGID_00000175289190286641856080000000539875190171403424_"  style="overflow:visible;"/>
			</clipPath>
			<path style="clip-path:url(#SVGID_00000165956279419607948890000015568240434852546436_);fill:#1A1A1A;" d="M41.1,33.7v9.2
				c0,9.4,7.6,17,17,17s17-7.6,17-17l0,0v-9.2H41.1z"/>
		</g>
	</g>
	<g>
		<g>
			<defs>
				<rect id="SVGID_00000034792038128414926990000017289713376331357596_" width="195.6" height="280.6"/>
			</defs>
			<clipPath id="SVGID_00000152264971749641480230000004256197192695562676_">
				<use xlink:href="#SVGID_00000034792038128414926990000017289713376331357596_"  style="overflow:visible;"/>
			</clipPath>
			<path style="clip-path:url(#SVGID_00000152264971749641480230000004256197192695562676_);fill:#1A1A1A;" d="M120.6,33.7v9.2
				c0,9.4,7.6,17,17,17s17-7.6,17-17l0,0v-9.2H120.6z"/>
		</g>
	</g>
	<g>
		<g>
			<defs>
				<rect id="SVGID_00000144307881361132304900000008367898049845251992_" width="195.6" height="280.6"/>
			</defs>
			<clipPath id="SVGID_00000148648811686270366900000009553015753138429093_">
				<use xlink:href="#SVGID_00000144307881361132304900000008367898049845251992_"  style="overflow:visible;"/>
			</clipPath>
			<path style="clip-path:url(#SVGID_00000148648811686270366900000009553015753138429093_);fill:#1A1A1A;" d="M58,10.8
				c-9.4,0.1-16.9,7.6-17,17V37h34v-9.2C74.9,18.5,67.4,10.9,58,10.8L58,10.8z"/>
		</g>
	</g>
	<g>
		<g>
			<defs>
				<rect id="SVGID_00000067206658472029465330000002912333207462532496_" width="195.6" height="280.6"/>
			</defs>
			<clipPath id="SVGID_00000093135022392690276280000012429122047894731194_">
				<use xlink:href="#SVGID_00000067206658472029465330000002912333207462532496_"  style="overflow:visible;"/>
			</clipPath>
			<path style="clip-path:url(#SVGID_00000093135022392690276280000012429122047894731194_);fill:#1A1A1A;" d="M137.5,10.8
				c-9.4,0.1-16.9,7.6-17,17V37h34v-9.2C154.4,18.5,146.9,10.9,137.5,10.8z"/>
		</g>
	</g>
	<g>
		<g>
			<defs>
				<rect id="SVGID_00000062163631918691055000000016561086268397339540_" width="195.6" height="280.6"/>
			</defs>
			<clipPath id="SVGID_00000142876827970847869930000013758960875114200254_">
				<use xlink:href="#SVGID_00000062163631918691055000000016561086268397339540_"  style="overflow:visible;"/>
			</clipPath>
			<path style="clip-path:url(#SVGID_00000142876827970847869930000013758960875114200254_);fill:#1A1A1A;" d="M19.8,107.8v58.6
				c0.1,11.6,9.5,21,21.1,21.1h113.8c11.6-0.1,21-9.5,21.1-21.1v-58.6h-18.9v58.6c0.1,1.1-0.7,2.1-1.8,2.2c-0.2,0-0.3,0-0.5,0H40.9
				c-1.1,0.1-2.1-0.7-2.2-1.8c0-0.2,0-0.3,0-0.5v-58.6H19.8V107.8z"/>
		</g>
	</g>
	<g>
		<g>
			<defs>
				<rect id="SVGID_00000111889436489192490470000005155525956277901955_" width="195.6" height="280.6"/>
			</defs>
			<clipPath id="SVGID_00000003065611945632341780000009784970197515315337_">
				<use xlink:href="#SVGID_00000111889436489192490470000005155525956277901955_"  style="overflow:visible;"/>
			</clipPath>
			<path style="clip-path:url(#SVGID_00000003065611945632341780000009784970197515315337_);fill:#1A1A1A;" d="M40.9,31.5
				c-11.6,0.1-21,9.5-21.1,21.1v58.6h18.9V52.6c-0.1-1.1,0.7-2.1,1.8-2.2c0.2,0,0.3,0,0.5,0h113.8c1.1-0.1,2.1,0.7,2.2,1.8
				c0,0.2,0,0.3,0,0.5v58.6h18.9V52.6c-0.1-11.6-9.5-21-21.1-21.1C154.8,31.5,40.9,31.5,40.9,31.5z"/>
		</g>
	</g>
	<g>
		<g>
			<defs>
				<rect id="SVGID_00000068677995582142748710000017565996962087548587_" width="195.6" height="280.6"/>
			</defs>
			<clipPath id="SVGID_00000054225300443624598870000009597796541458320818_">
				<use xlink:href="#SVGID_00000068677995582142748710000017565996962087548587_"  style="overflow:visible;"/>
			</clipPath>
			<path style="clip-path:url(#SVGID_00000054225300443624598870000009597796541458320818_);fill:#DBE492;" d="M40.9,40.9h113.8
				c6.4,0,11.7,5.2,11.7,11.6c0,0,0,0,0,0.1v113.8c0,6.4-5.2,11.6-11.7,11.6l0,0H40.9c-6.4,0-11.7-5.2-11.7-11.6c0,0,0,0,0-0.1V52.6
				C29.2,46.2,34.4,40.9,40.9,40.9L40.9,40.9z"/>
		</g>
	</g>
	<g>
		<g>
			<defs>
				<rect id="SVGID_00000011711279421238275300000008532891669329172392_" width="195.6" height="280.6"/>
			</defs>
			<clipPath id="SVGID_00000019660507577619420520000017239126426423554466_">
				<use xlink:href="#SVGID_00000011711279421238275300000008532891669329172392_"  style="overflow:visible;"/>
			</clipPath>
			
				<rect x="49.2" y="60.8" style="clip-path:url(#SVGID_00000019660507577619420520000017239126426423554466_);fill:#EB5A53;" width="97.3" height="32.7"/>
		</g>
	</g>
	<g>
		<g>
			<defs>
				<rect id="SVGID_00000178163124971718213950000014944974098522563495_" width="195.6" height="280.6"/>
			</defs>
			<clipPath id="SVGID_00000025405577814703683600000016289578574844855950_">
				<use xlink:href="#SVGID_00000178163124971718213950000014944974098522563495_"  style="overflow:visible;"/>
			</clipPath>
			
				<rect x="49.2" y="94.4" style="clip-path:url(#SVGID_00000025405577814703683600000016289578574844855950_);fill:#EB5A53;" width="97.3" height="16.3"/>
		</g>
	</g>
	<g>
		<g>
			<defs>
				<rect id="SVGID_00000145056487634375290420000014882797113488923284_" width="195.6" height="280.6"/>
			</defs>
			<clipPath id="SVGID_00000040541867735295263950000007274494087356365195_">
				<use xlink:href="#SVGID_00000145056487634375290420000014882797113488923284_"  style="overflow:visible;"/>
			</clipPath>
			
				<rect x="49.2" y="110.8" style="clip-path:url(#SVGID_00000040541867735295263950000007274494087356365195_);fill:#FFFFFF;" width="97.3" height="47.5"/>
		</g>
	</g>
	<g>
		<g>
			<defs>
				<rect id="SVGID_00000039092849713170003220000006618583881480340115_" width="195.6" height="280.6"/>
			</defs>
			<clipPath id="SVGID_00000182509337141328167270000012795785304241493134_">
				<use xlink:href="#SVGID_00000039092849713170003220000006618583881480340115_"  style="overflow:visible;"/>
			</clipPath>
			<path style="clip-path:url(#SVGID_00000182509337141328167270000012795785304241493134_);fill:#1A1A1A;" d="M26.9,107.8v58.6
				c0,7.7,6.3,14,14,14h113.8c7.7,0,14-6.3,14-14v-58.6H164v58.6c0,5.1-4.1,9.3-9.2,9.3h-0.1H40.9c-5.1,0-9.3-4.1-9.3-9.2v-0.1
				v-58.6C31.6,107.8,26.9,107.8,26.9,107.8z"/>
		</g>
	</g>
	<g>
		<g>
			<defs>
				<rect id="SVGID_00000083053074304566153970000016292802420619463812_" width="195.6" height="280.6"/>
			</defs>
			<clipPath id="SVGID_00000070118333101575416930000015997077145741108155_">
				<use xlink:href="#SVGID_00000083053074304566153970000016292802420619463812_"  style="overflow:visible;"/>
			</clipPath>
			<path style="clip-path:url(#SVGID_00000070118333101575416930000015997077145741108155_);fill:#1A1A1A;" d="M46.8,107.8v52.7h102
				v-52.7h-4.7v48H51.5v-48H46.8z"/>
		</g>
	</g>
	<g>
		<g>
			<defs>
				<rect id="SVGID_00000005979207597562914090000014619154651022526378_" width="195.6" height="280.6"/>
			</defs>
			<clipPath id="SVGID_00000114062019794266787510000009343044531214696336_">
				<use xlink:href="#SVGID_00000005979207597562914090000014619154651022526378_"  style="overflow:visible;"/>
			</clipPath>
			<path style="clip-path:url(#SVGID_00000114062019794266787510000009343044531214696336_);fill:#1A1A1A;" d="M40.9,38.6
				c-7.7,0-14,6.3-14,14v58.6h4.7V52.6c0-5.1,4.1-9.3,9.2-9.3h0.1h113.7c5.1,0,9.3,4,9.3,9.1c0,0.1,0,0.1,0,0.2v58.6h4.7V52.6
				c0-7.7-6.3-14-14-14H40.9z"/>
		</g>
	</g>
	<g>
		<g>
			<defs>
				<rect id="SVGID_00000144326692097642607990000009108108137111826864_" width="195.6" height="280.6"/>
			</defs>
			<clipPath id="SVGID_00000026857463164646670870000001286116843657604020_">
				<use xlink:href="#SVGID_00000144326692097642607990000009108108137111826864_"  style="overflow:visible;"/>
			</clipPath>
			
				<rect x="111.6" y="60.8" style="clip-path:url(#SVGID_00000026857463164646670870000001286116843657604020_);fill:#1A1A1A;" width="4.7" height="97.3"/>
		</g>
	</g>
	<g>
		<g>
			<defs>
				<rect id="SVGID_00000062175461774246935170000013146405581122655889_" width="195.6" height="280.6"/>
			</defs>
			<clipPath id="SVGID_00000139973429510615562110000014488582387354269336_">
				<use xlink:href="#SVGID_00000062175461774246935170000013146405581122655889_"  style="overflow:visible;"/>
			</clipPath>
			
				<rect x="79.2" y="60.8" style="clip-path:url(#SVGID_00000139973429510615562110000014488582387354269336_);fill:#1A1A1A;" width="4.7" height="97.3"/>
		</g>
	</g>
	<g>
		<g>
			<defs>
				<rect id="SVGID_00000029025535690016120120000012425590166785675669_" width="195.6" height="280.6"/>
			</defs>
			<clipPath id="SVGID_00000067948088814863419210000017157955077582789527_">
				<use xlink:href="#SVGID_00000029025535690016120120000012425590166785675669_"  style="overflow:visible;"/>
			</clipPath>
			
				<rect x="49.2" y="123.3" style="clip-path:url(#SVGID_00000067948088814863419210000017157955077582789527_);fill:#1A1A1A;" width="97.3" height="4.7"/>
		</g>
	</g>
	<g>
		<g>
			<defs>
				<rect id="SVGID_00000010310082989677589770000011460782788698346389_" width="195.6" height="280.6"/>
			</defs>
			<clipPath id="SVGID_00000069356188917906908960000011743640343284256440_">
				<use xlink:href="#SVGID_00000010310082989677589770000011460782788698346389_"  style="overflow:visible;"/>
			</clipPath>
			
				<rect x="49.2" y="90.9" style="clip-path:url(#SVGID_00000069356188917906908960000011743640343284256440_);fill:#1A1A1A;" width="97.3" height="4.7"/>
		</g>
	</g>
	<g>
		<g>
			<defs>
				<rect id="SVGID_00000106856485630425241060000004588059799991922604_" width="195.6" height="280.6"/>
			</defs>
			<clipPath id="SVGID_00000059276595773172544910000002582735374871447713_">
				<use xlink:href="#SVGID_00000106856485630425241060000004588059799991922604_"  style="overflow:visible;"/>
			</clipPath>
			<path style="clip-path:url(#SVGID_00000059276595773172544910000002582735374871447713_);fill:#1A1A1A;" d="M46.8,58.5v52.7h4.7
				v-48h92.6v48h4.7V58.5H46.8z"/>
		</g>
	</g>
	<g>
		<g>
			<defs>
				<rect id="SVGID_00000086687289895075356980000012662404173111116460_" width="195.6" height="280.6"/>
			</defs>
			<clipPath id="SVGID_00000135649202909894590280000015735675663180579477_">
				<use xlink:href="#SVGID_00000086687289895075356980000012662404173111116460_"  style="overflow:visible;"/>
			</clipPath>
			<path style="clip-path:url(#SVGID_00000135649202909894590280000015735675663180579477_);fill:#FFFFFF;" d="M58,20.3
				c4.2,0,7.5,3.3,7.5,7.5l0,0v15.1c0,4.2-3.4,7.5-7.5,7.5s-7.5-3.4-7.5-7.5l0,0V27.8C50.5,23.7,53.9,20.3,58,20.3L58,20.3z"/>
		</g>
	</g>
	<g>
		<g>
			<defs>
				<rect id="SVGID_00000051347216335280169940000009060831848442475147_" width="195.6" height="280.6"/>
			</defs>
			<clipPath id="SVGID_00000142156785913781209810000017494262918875582889_">
				<use xlink:href="#SVGID_00000051347216335280169940000009060831848442475147_"  style="overflow:visible;"/>
			</clipPath>
			<path style="clip-path:url(#SVGID_00000142156785913781209810000017494262918875582889_);fill:#1A1A1A;" d="M48.2,33.7v9.2
				c0,5.5,4.4,9.9,9.9,9.9s9.9-4.4,9.9-9.9l0,0v-9.2h-4.7v9.2c0,2.9-2.3,5.2-5.2,5.2s-5.2-2.3-5.2-5.2l0,0v-9.2H48.2z"/>
		</g>
	</g>
	<g>
		<g>
			<defs>
				<rect id="SVGID_00000094576171732503696110000002170352858393157310_" width="195.6" height="280.6"/>
			</defs>
			<clipPath id="SVGID_00000000912865283263654310000010393765645107525039_">
				<use xlink:href="#SVGID_00000094576171732503696110000002170352858393157310_"  style="overflow:visible;"/>
			</clipPath>
			<path style="clip-path:url(#SVGID_00000000912865283263654310000010393765645107525039_);fill:#FFFFFF;" d="M137.5,20.3
				c4.2,0,7.5,3.3,7.5,7.5l0,0v15.1c0,4.2-3.4,7.5-7.5,7.5c-4.2,0-7.5-3.4-7.5-7.5l0,0V27.8C130,23.7,133.3,20.3,137.5,20.3
				L137.5,20.3L137.5,20.3z"/>
		</g>
	</g>
	<g>
		<g>
			<defs>
				<rect id="SVGID_00000178916743874514844110000011256273884693140895_" width="195.6" height="280.6"/>
			</defs>
			<clipPath id="SVGID_00000022556825252476798400000009067610322781040554_">
				<use xlink:href="#SVGID_00000178916743874514844110000011256273884693140895_"  style="overflow:visible;"/>
			</clipPath>
			<path style="clip-path:url(#SVGID_00000022556825252476798400000009067610322781040554_);fill:#1A1A1A;" d="M127.6,33.7v9.2
				c0,5.5,4.4,9.9,9.9,9.9s9.9-4.4,9.9-9.9v-9.2h-4.7v9.2c0,2.9-2.3,5.2-5.2,5.2s-5.2-2.3-5.2-5.2l0,0v-9.2H127.6z"/>
		</g>
	</g>
	<g>
		<g>
			<defs>
				<rect id="SVGID_00000093875078913431399600000013464247753559748522_" width="195.6" height="280.6"/>
			</defs>
			<clipPath id="SVGID_00000077300434202638521820000007082858834953385382_">
				<use xlink:href="#SVGID_00000093875078913431399600000013464247753559748522_"  style="overflow:visible;"/>
			</clipPath>
			<path style="clip-path:url(#SVGID_00000077300434202638521820000007082858834953385382_);fill:#1A1A1A;" d="M58,17.9
				c-5.5,0-9.9,4.4-9.9,9.9V37h4.7v-9.2c0-2.9,2.3-5.2,5.2-5.2s5.2,2.3,5.2,5.2l0,0V37H68v-9.2C68,22.4,63.6,17.9,58,17.9L58,17.9z"
				/>
		</g>
	</g>
	<g>
		<g>
			<defs>
				<rect id="SVGID_00000070828315602506955720000012513916180069142691_" width="195.6" height="280.6"/>
			</defs>
			<clipPath id="SVGID_00000170267506095254798110000016952281561016094351_">
				<use xlink:href="#SVGID_00000070828315602506955720000012513916180069142691_"  style="overflow:visible;"/>
			</clipPath>
			<path style="clip-path:url(#SVGID_00000170267506095254798110000016952281561016094351_);fill:#1A1A1A;" d="M137.5,17.9
				c-5.5,0-9.9,4.4-9.9,9.9V37h4.7v-9.2c0-2.9,2.3-5.2,5.2-5.2s5.2,2.3,5.2,5.2l0,0V37h4.7v-9.2C147.4,22.4,143,18,137.5,17.9z"/>
		</g>
	</g>
	<g>
		<g>
			<defs>
				<rect id="SVGID_00000166659482726019810460000002679003010973249676_" width="195.6" height="280.6"/>
			</defs>
			<clipPath id="SVGID_00000013184180748269967140000017451465336437830045_">
				<use xlink:href="#SVGID_00000166659482726019810460000002679003010973249676_"  style="overflow:visible;"/>
			</clipPath>
			<path style="clip-path:url(#SVGID_00000013184180748269967140000017451465336437830045_);fill:#FFFFFF;" d="M44.8,0h-29h-16v16
				c0,7,0,14,0,21c10.3,12.4,28.6,14.1,41,3.8c6.7-5.6,10.6-13.8,10.5-22.5C51.4,11.6,49.1,5.2,44.8,0z"/>
		</g>
	</g>
	<g>
		<g>
			<defs>
				<rect id="SVGID_00000025417220160233239740000009397864964328253626_" width="195.6" height="280.6"/>
			</defs>
			<clipPath id="SVGID_00000104698535859611642170000016577198349706426758_">
				<use xlink:href="#SVGID_00000025417220160233239740000009397864964328253626_"  style="overflow:visible;"/>
			</clipPath>
		</g>
	</g>
</g>
<g class="st26">
	<path class="st27" d="M55.6,232.6h7.9c2.1,0,3.8,0.2,4.9,0.5s2,0.8,2.6,1.4s1,1.4,1.2,2.3c0.2,0.9,0.3,2.3,0.3,4.2v2.6
		c0,1.9-0.2,3.3-0.6,4.2s-1.1,1.6-2.2,2c-1.1,0.5-2.4,0.7-4.1,0.7h-2.1v12.1h-7.8v-30H55.6z M63.4,237.7v7.6c0.2,0,0.4,0,0.6,0
		c0.7,0,1.2-0.2,1.5-0.5c0.3-0.4,0.4-1.1,0.4-2.2v-2.5c0-1-0.2-1.7-0.5-2C65.1,237.9,64.4,237.7,63.4,237.7z"/>
	<path class="st27" d="M81.9,238l-0.3,3.2c1.1-2.3,2.7-3.5,4.7-3.7v8.7c-1.4,0-2.4,0.2-3,0.6c-0.6,0.4-1,0.9-1.2,1.5
		c-0.1,0.7-0.2,2.2-0.2,4.6v9.7h-7.5V238H81.9z"/>
	<path class="st27" d="M94.7,247.5h-7v-1.7c0-1.9,0.2-3.4,0.7-4.4c0.4-1,1.3-1.9,2.6-2.7c1.3-0.8,3-1.2,5.2-1.2
		c2.5,0,4.4,0.4,5.7,1.3c1.3,0.9,2.1,2,2.3,3.3c0.3,1.3,0.4,4,0.4,8.1v12.4h-7.3v-2.2c-0.5,0.9-1,1.5-1.8,2
		c-0.7,0.4-1.6,0.7-2.6,0.7c-1.3,0-2.5-0.4-3.6-1.1s-1.6-2.3-1.6-4.8v-2c0-1.8,0.3-3.1,0.9-3.8s2-1.4,4.3-2.3c2.5-1,3.8-1.6,4-1.9
		c0.2-0.3,0.3-1,0.3-2c0-1.3-0.1-2.1-0.3-2.5c-0.2-0.4-0.5-0.6-1-0.6s-0.8,0.2-0.9,0.5s-0.2,1.2-0.2,2.6L94.7,247.5L94.7,247.5z
		 M97.1,250.9c-1.2,0.9-1.9,1.6-2.1,2.2c-0.2,0.6-0.3,1.4-0.3,2.6c0,1.3,0.1,2.1,0.3,2.5s0.5,0.6,1,0.6s0.8-0.1,0.9-0.4
		s0.2-1.1,0.2-2.3V250.9z"/>
	<path class="st27" d="M123.8,247.3h-7.1v-2.8c0-1-0.1-1.7-0.2-2c-0.2-0.4-0.5-0.5-0.9-0.5s-0.7,0.2-0.9,0.5c-0.1,0.3-0.2,1-0.2,2.1
		v11.6c0,0.9,0.1,1.5,0.3,2c0.2,0.4,0.5,0.7,1,0.7s0.8-0.2,1-0.7s0.3-1.3,0.3-2.6v-2.9h6.7c0,2-0.1,3.4-0.2,4.4s-0.5,2-1.2,3
		s-1.6,1.8-2.7,2.3s-2.5,0.8-4.2,0.8c-2.1,0-3.8-0.4-5-1.1s-2.1-1.7-2.6-3s-0.8-3.2-0.8-5.6v-7c0-2.1,0.2-3.7,0.6-4.7
		c0.4-1.1,1.3-2,2.7-2.8c1.4-0.8,3-1.3,5-1.3s3.6,0.4,5,1.2s2.3,1.9,2.8,3.1C123.5,243.2,123.8,245,123.8,247.3z"/>
	<path class="st27" d="M141.7,238l-2.1,17.8c-0.3,2.8-0.6,4.7-0.9,5.8c-0.2,1-0.6,1.9-1.1,2.5c-0.5,0.7-1.3,1.2-2.2,1.5
		s-2.5,0.5-4.5,0.5h-4.5v-3.9c1.2,0,1.9-0.1,2.2-0.2s0.5-0.4,0.5-0.8c0-0.2-0.2-1.1-0.5-2.6l-4.1-20.6h6.8l2.5,16.6L135,238H141.7z"
		/>
</g>
<g class="st26">
	<path class="st27" d="M63,205.7h-7.3v-2.2c0-1-0.1-1.7-0.3-2s-0.5-0.4-0.9-0.4c-0.5,0-0.8,0.2-1.1,0.6s-0.4,1-0.4,1.7
		c0,1,0.1,1.8,0.4,2.3c0.3,0.5,1,1.1,2.2,1.8c3.5,2.1,5.7,3.8,6.6,5.1c0.9,1.3,1.4,3.5,1.4,6.4c0,2.1-0.3,3.7-0.8,4.7
		s-1.5,1.9-2.9,2.6c-1.4,0.7-3.1,1-5,1c-2.1,0-3.9-0.4-5.4-1.2s-2.4-1.8-2.9-3s-0.7-3-0.7-5.2v-2h7.3v3.7c0,1.1,0.1,1.8,0.3,2.2
		c0.2,0.3,0.6,0.5,1.1,0.5s0.9-0.2,1.2-0.6c0.3-0.4,0.4-1,0.4-1.8c0-1.8-0.2-2.9-0.7-3.5c-0.5-0.5-1.7-1.5-3.7-2.7
		c-1.9-1.3-3.2-2.2-3.9-2.8c-0.6-0.6-1.2-1.4-1.6-2.4c-0.4-1-0.6-2.3-0.6-3.9c0-2.3,0.3-4,0.9-5c0.6-1.1,1.5-1.9,2.8-2.5
		s2.9-0.9,4.8-0.9c2,0,3.8,0.3,5.2,1s2.4,1.5,2.8,2.5c0.5,1,0.7,2.7,0.7,5.1v0.9H63z M60.7,190.6l-6.1,5h-3.8l3.3-5H60.7z"/>
	<path class="st27" d="M90.1,202l-3,24.6H79c-0.4-3-1-7-1.6-11.9c-0.2,2.2-0.5,4.3-0.8,6.5l-0.8,5.3h-8.2L64.4,202h6.5
		c0,0.6,0.6,5.3,1.6,14.1c0.1-0.9,0.6-5.6,1.7-14.1h6.2l1.5,14.1c0.2-4.1,0.8-8.8,1.7-14.1H90.1z"/>
	<path class="st27" d="M99,196.6v3.9h-7.7v-3.9H99z M99,202v24.6h-7.7V202H99z"/>
	<path class="st27" d="M111.8,226.6c-1.1,1-1.6,1.8-1.6,2.5c0,0.8,0.4,1.2,1.3,1.2c0.6,0,1.3-0.2,2.1-0.5l0.8,1.9
		c-1.2,0.6-2.3,0.8-3.2,0.8c-1.1,0-2-0.3-2.7-0.8s-1-1.2-1-2.1c0-1,0.5-2,1.6-3c-1.5-0.1-2.7-0.4-3.8-0.8c-1.1-0.5-1.9-1.1-2.5-2
		c-0.6-0.8-1-1.7-1.1-2.6c-0.1-0.9-0.2-2.1-0.2-3.5v-7.2c0-1.3,0.1-2.5,0.3-3.5c0.2-1,0.6-1.9,1.3-2.7c0.7-0.8,1.6-1.4,2.7-1.7
		s2.5-0.6,4-0.6c2.3,0,4.2,0.4,5.5,1.1c1.4,0.7,2.3,1.8,2.7,3.1c0.4,1.3,0.6,3.1,0.6,5.3v3.3H109v5.3c0,1.2,0.1,1.9,0.3,2.2
		c0.2,0.3,0.5,0.4,0.9,0.4c0.5,0,0.9-0.2,1.1-0.6c0.2-0.4,0.3-1,0.3-2v-3.8h7.1v1.8c0,1.4-0.1,2.5-0.2,3.3c-0.2,0.8-0.5,1.7-1.2,2.6
		c-0.6,0.9-1.4,1.5-2.3,1.9C114.1,226.3,113.1,226.5,111.8,226.6z M109,207.7v3h2.2v-1.8c0-1.2-0.1-2-0.2-2.4s-0.4-0.6-0.9-0.6
		c-0.4,0-0.7,0.1-0.9,0.4C109.1,206.5,109,207,109,207.7z"/>
	<path class="st27" d="M129.1,198.7v3.9h2v3.9h-2v13.2c0,1.6,0.1,2.5,0.3,2.7s0.9,0.3,2.1,0.3v4h-3c-1.7,0-2.9-0.1-3.7-0.2
		c-0.7-0.1-1.4-0.5-1.9-1c-0.6-0.5-0.9-1.1-1-1.8s-0.2-2.2-0.2-4.7v-12.5h-1.6v-3.9h1.6v-3.9H129.1z"/>
	<path class="st27" d="M149.7,210.6v6c0,2.2-0.1,3.8-0.3,4.9c-0.2,1-0.7,2-1.4,2.9s-1.7,1.6-2.8,2s-2.5,0.6-3.9,0.6
		c-1.7,0-3.1-0.2-4.2-0.5c-1.2-0.4-2-0.9-2.7-1.7c-0.6-0.7-1.1-1.6-1.4-2.7c-0.3-1-0.4-2.6-0.4-4.7v-6.3c0-2.3,0.2-4.1,0.7-5.4
		c0.5-1.3,1.4-2.3,2.7-3.1s2.9-1.2,4.9-1.2c1.7,0,3.1,0.3,4.3,0.8s2.1,1.2,2.8,2s1.1,1.6,1.3,2.5S149.7,208.9,149.7,210.6z
		 M142.2,208.8c0-1.3-0.1-2.1-0.2-2.4c-0.1-0.3-0.4-0.5-0.9-0.5s-0.7,0.2-0.9,0.5c-0.1,0.3-0.2,1.1-0.2,2.4v11.1
		c0,1.2,0.1,1.9,0.2,2.3c0.1,0.4,0.4,0.5,0.9,0.5c0.4,0,0.7-0.2,0.9-0.5c0.1-0.3,0.2-1,0.2-2.1V208.8z"/>
</g>
<g class="st26">
	<path class="st28" d="M24.2,15.9v10.3h1.1V29h-1.1v2.8h-3.9V29h-4.7v-2.7L19,15.9H24.2z M20.3,26.3v-6.7l-1.7,6.7H20.3z"/>
	<path class="st28" d="M35.6,20.1h-3.9c0-0.7,0-1.2,0-1.4s-0.1-0.4-0.2-0.5s-0.3-0.2-0.6-0.2c-0.2,0-0.4,0.1-0.5,0.2
		s-0.2,0.3-0.2,0.5s0,0.6,0,1.2v2.5c0.2-0.4,0.5-0.7,0.9-1s0.9-0.3,1.4-0.3c0.7,0,1.4,0.2,1.9,0.6s0.9,0.9,1.1,1.4s0.2,1.3,0.2,2.2
		v1.3c0,1.1,0,1.9-0.1,2.5s-0.3,1-0.7,1.5s-0.9,0.8-1.5,1.1s-1.4,0.4-2.2,0.4c-1.1,0-1.9-0.1-2.6-0.4s-1.2-0.7-1.6-1.3
		s-0.6-1.1-0.6-1.7s-0.1-1.8-0.1-3.5v-2.2c0-1.9,0-3.1,0.1-3.8s0.3-1.2,0.7-1.8s0.9-1,1.6-1.3s1.5-0.4,2.4-0.4c1.1,0,2,0.2,2.7,0.5
		s1.2,0.9,1.5,1.5S35.6,19.1,35.6,20.1z M31.7,25.1c0-0.6-0.1-0.9-0.2-1.2s-0.3-0.3-0.6-0.3c-0.3,0-0.5,0.1-0.6,0.3
		s-0.2,0.6-0.2,1.2v2.9c0,0.7,0.1,1.2,0.2,1.4s0.3,0.3,0.6,0.3c0.2,0,0.3-0.1,0.5-0.2s0.3-0.6,0.3-1.3V25.1z"/>
</g>
</svg>
