<?xml version="1.0" encoding="utf-8"?>
<!-- Generator: Adobe Illustrator 26.0.1, SVG Export Plug-In . SVG Version: 6.00 Build 0)  -->
<svg version="1.1" id="Слой_1" xmlns="http://www.w3.org/2000/svg" xmlns:xlink="http://www.w3.org/1999/xlink" x="0px" y="0px"
	 viewBox="0 0 195.6 280.6" style="enable-background:new 0 0 195.6 280.6;" xml:space="preserve">
<style type="text/css">
	.st0{clip-path:url(#SVGID_00000145056065412184483840000005922748943767219619_);fill:#EB5A53;}
	.st1{enable-background:new    ;}
	.st2{fill:#FFFFFF;}
	.st3{clip-path:url(#SVGID_00000042708890195815819050000009907279273031956134_);fill:#1A1A1A;}
	.st4{clip-path:url(#SVGID_00000028325791359678180290000008941036782890076036_);fill:#1A1A1A;}
	.st5{clip-path:url(#SVGID_00000173846186478876630580000010245875018954928016_);fill:#1A1A1A;}
	.st6{clip-path:url(#SVGID_00000022548605831432369990000004082314642626748827_);fill:#1A1A1A;}
	.st7{clip-path:url(#SVGID_00000124150804303083892230000016015673071945661568_);fill:#1A1A1A;}
	.st8{clip-path:url(#SVGID_00000075845522054691500750000015817363203678400696_);fill:#1A1A1A;}
	.st9{clip-path:url(#SVGID_00000100347915984931422480000016333793929761010366_);fill:#DBE492;}
	.st10{clip-path:url(#SVGID_00000086669066648499525320000002350929173538100124_);fill:#FFFFFF;}
	.st11{clip-path:url(#SVGID_00000084529876216033701000000001130014152983227554_);fill:#EB5A53;}
	.st12{clip-path:url(#SVGID_00000101813239423616897480000009698353454962916270_);fill:#FFFFFF;}
	.st13{clip-path:url(#SVGID_00000124140766994206866840000001930465920320692358_);fill:#1A1A1A;}
	.st14{clip-path:url(#SVGID_00000115489388477339111490000001338241826406905275_);fill:#1A1A1A;}
	.st15{clip-path:url(#SVGID_00000060005220193048596130000005913344254048893103_);fill:#1A1A1A;}
	.st16{clip-path:url(#SVGID_00000067928462135945331790000006313775845095994519_);fill:#1A1A1A;}
	.st17{clip-path:url(#SVGID_00000022553074588274933500000002369724804825564308_);fill:#1A1A1A;}
	.st18{clip-path:url(#SVGID_00000052062967695122013820000011684086720281941433_);fill:#1A1A1A;}
	.st19{clip-path:url(#SVGID_00000037676926861876030130000005985299914601419445_);fill:#1A1A1A;}
	.st20{clip-path:url(#SVGID_00000103227449481168169430000017558189627779747512_);fill:#1A1A1A;}
	.st21{clip-path:url(#SVGID_00000123440838769872974170000009301078149411119791_);fill:#FFFFFF;}
	.st22{clip-path:url(#SVGID_00000171692247268376656460000003079071069131725952_);fill:#1A1A1A;}
	.st23{clip-path:url(#SVGID_00000016069757283192067510000010629950465369577636_);fill:#FFFFFF;}
	.st24{clip-path:url(#SVGID_00000150071062012168408540000010546763911071778478_);fill:#1A1A1A;}
	.st25{clip-path:url(#SVGID_00000160870181045095494970000005809071394028017840_);fill:#1A1A1A;}
	.st26{clip-path:url(#SVGID_00000096044150234396307550000013610420412370057874_);fill:#1A1A1A;}
	.st27{clip-path:url(#SVGID_00000133500543447947986200000001965207740001545383_);fill:#FFFFFF;}
	.st28{fill:#1A1A1A;}
</style>
<g>
	<g>
		<g>
			<defs>
				<rect id="SVGID_1_" width="195.6" height="280.6"/>
			</defs>
			<clipPath id="SVGID_00000137111773568392622720000013379115167690715580_">
				<use xlink:href="#SVGID_1_"  style="overflow:visible;"/>
			</clipPath>
			
				<rect x="-10.7" y="-2.9" style="clip-path:url(#SVGID_00000137111773568392622720000013379115167690715580_);fill:#EB5A53;" width="488.1" height="289.7"/>
		</g>
	</g>
	<g class="st1">
		<path class="st2" d="M63,205.7h-7.3v-2.2c0-1-0.1-1.7-0.3-2s-0.5-0.4-0.9-0.4c-0.5,0-0.8,0.2-1.1,0.6s-0.4,1-0.4,1.7
			c0,1,0.1,1.8,0.4,2.3c0.3,0.5,1,1.1,2.2,1.8c3.5,2.1,5.7,3.8,6.6,5.1c0.9,1.3,1.4,3.5,1.4,6.4c0,2.1-0.3,3.7-0.8,4.7
			s-1.5,1.9-2.9,2.6c-1.4,0.7-3.1,1-5,1c-2.1,0-3.9-0.4-5.4-1.2s-2.4-1.8-2.9-3s-0.7-3-0.7-5.2v-2h7.3v3.7c0,1.1,0.1,1.8,0.3,2.2
			c0.2,0.3,0.6,0.5,1.1,0.5s0.9-0.2,1.2-0.6c0.3-0.4,0.4-1,0.4-1.8c0-1.8-0.2-2.9-0.7-3.5c-0.5-0.5-1.7-1.5-3.7-2.7
			c-1.9-1.3-3.2-2.2-3.9-2.8c-0.6-0.6-1.2-1.4-1.6-2.4c-0.4-1-0.6-2.3-0.6-3.9c0-2.3,0.3-4,0.9-5c0.6-1.1,1.5-1.9,2.8-2.5
			s2.9-0.9,4.8-0.9c2,0,3.8,0.3,5.2,1s2.4,1.5,2.8,2.5c0.5,1,0.7,2.7,0.7,5.1v0.9H63z M60.7,190.6l-6.1,5h-3.8l3.3-5H60.7z"/>
		<path class="st2" d="M90.1,202l-3,24.6H79c-0.4-3-1-7-1.6-11.9c-0.2,2.2-0.5,4.3-0.8,6.5l-0.8,5.3h-8.2L64.4,202h6.5
			c0,0.6,0.6,5.3,1.6,14.1c0.1-0.9,0.6-5.6,1.7-14.1h6.2l1.5,14.1c0.2-4.1,0.8-8.8,1.7-14.1H90.1z"/>
		<path class="st2" d="M99,196.6v3.9h-7.7v-3.9H99z M99,202v24.6h-7.7V202H99z"/>
		<path class="st2" d="M111.8,226.6c-1.1,1-1.6,1.8-1.6,2.5c0,0.8,0.4,1.2,1.3,1.2c0.6,0,1.3-0.2,2.1-0.5l0.8,1.9
			c-1.2,0.6-2.3,0.8-3.2,0.8c-1.1,0-2-0.3-2.7-0.8s-1-1.2-1-2.1c0-1,0.5-2,1.6-3c-1.5-0.1-2.7-0.4-3.8-0.8c-1.1-0.5-1.9-1.1-2.5-2
			c-0.6-0.8-1-1.7-1.1-2.6c-0.1-0.9-0.2-2.1-0.2-3.5v-7.2c0-1.3,0.1-2.5,0.3-3.5c0.2-1,0.6-1.9,1.3-2.7c0.7-0.8,1.6-1.4,2.7-1.7
			s2.5-0.6,4-0.6c2.3,0,4.2,0.4,5.5,1.1c1.4,0.7,2.3,1.8,2.7,3.1c0.4,1.3,0.6,3.1,0.6,5.3v3.3H109v5.3c0,1.2,0.1,1.9,0.3,2.2
			c0.2,0.3,0.5,0.4,0.9,0.4c0.5,0,0.9-0.2,1.1-0.6c0.2-0.4,0.3-1,0.3-2v-3.8h7.1v1.8c0,1.4-0.1,2.5-0.2,3.3
			c-0.2,0.8-0.5,1.7-1.2,2.6c-0.6,0.9-1.4,1.5-2.3,1.9C114.1,226.3,113.1,226.5,111.8,226.6z M109,207.7v3h2.2v-1.8
			c0-1.2-0.1-2-0.2-2.4s-0.4-0.6-0.9-0.6c-0.4,0-0.7,0.1-0.9,0.4C109.1,206.5,109,207,109,207.7z"/>
		<path class="st2" d="M129.1,198.7v3.9h2v3.9h-2v13.2c0,1.6,0.1,2.5,0.3,2.7s0.9,0.3,2.1,0.3v4h-3c-1.7,0-2.9-0.1-3.7-0.2
			c-0.7-0.1-1.4-0.5-1.9-1c-0.6-0.5-0.9-1.1-1-1.8s-0.2-2.2-0.2-4.7v-12.5h-1.6v-3.9h1.6v-3.9H129.1z"/>
		<path class="st2" d="M149.7,210.6v6c0,2.2-0.1,3.8-0.3,4.9c-0.2,1-0.7,2-1.4,2.9s-1.7,1.6-2.8,2s-2.5,0.6-3.9,0.6
			c-1.7,0-3.1-0.2-4.2-0.5c-1.2-0.4-2-0.9-2.7-1.7c-0.6-0.7-1.1-1.6-1.4-2.7c-0.3-1-0.4-2.6-0.4-4.7v-6.3c0-2.3,0.2-4.1,0.7-5.4
			c0.5-1.3,1.4-2.3,2.7-3.1s2.9-1.2,4.9-1.2c1.7,0,3.1,0.3,4.3,0.8s2.1,1.2,2.8,2s1.1,1.6,1.3,2.5S149.7,208.9,149.7,210.6z
			 M142.2,208.8c0-1.3-0.1-2.1-0.2-2.4c-0.1-0.3-0.4-0.5-0.9-0.5s-0.7,0.2-0.9,0.5c-0.1,0.3-0.2,1.1-0.2,2.4v11.1
			c0,1.2,0.1,1.9,0.2,2.3c0.1,0.4,0.4,0.5,0.9,0.5c0.4,0,0.7-0.2,0.9-0.5c0.1-0.3,0.2-1,0.2-2.1V208.8z"/>
	</g>
	<g class="st1">
		<path class="st2" d="M55.6,232.6h7.9c2.1,0,3.8,0.2,4.9,0.5s2,0.8,2.6,1.4s1,1.4,1.2,2.3c0.2,0.9,0.3,2.3,0.3,4.2v2.6
			c0,1.9-0.2,3.3-0.6,4.2s-1.1,1.6-2.2,2c-1.1,0.5-2.4,0.7-4.1,0.7h-2.1v12.1h-7.8v-30H55.6z M63.4,237.7v7.6c0.2,0,0.4,0,0.6,0
			c0.7,0,1.2-0.2,1.5-0.5c0.3-0.4,0.4-1.1,0.4-2.2v-2.5c0-1-0.2-1.7-0.5-2C65.1,237.9,64.4,237.7,63.4,237.7z"/>
		<path class="st2" d="M81.9,238l-0.3,3.2c1.1-2.3,2.7-3.5,4.7-3.7v8.7c-1.4,0-2.4,0.2-3,0.6c-0.6,0.4-1,0.9-1.2,1.5
			c-0.1,0.7-0.2,2.2-0.2,4.6v9.7h-7.5V238H81.9z"/>
		<path class="st2" d="M94.7,247.5h-7v-1.7c0-1.9,0.2-3.4,0.7-4.4c0.4-1,1.3-1.9,2.6-2.7c1.3-0.8,3-1.2,5.2-1.2
			c2.5,0,4.4,0.4,5.7,1.3c1.3,0.9,2.1,2,2.3,3.3c0.3,1.3,0.4,4,0.4,8.1v12.4h-7.3v-2.2c-0.5,0.9-1,1.5-1.8,2
			c-0.7,0.4-1.6,0.7-2.6,0.7c-1.3,0-2.5-0.4-3.6-1.1s-1.6-2.3-1.6-4.8v-2c0-1.8,0.3-3.1,0.9-3.8s2-1.4,4.3-2.3c2.5-1,3.8-1.6,4-1.9
			c0.2-0.3,0.3-1,0.3-2c0-1.3-0.1-2.1-0.3-2.5c-0.2-0.4-0.5-0.6-1-0.6s-0.8,0.2-0.9,0.5s-0.2,1.2-0.2,2.6L94.7,247.5L94.7,247.5z
			 M97.1,250.9c-1.2,0.9-1.9,1.6-2.1,2.2c-0.2,0.6-0.3,1.4-0.3,2.6c0,1.3,0.1,2.1,0.3,2.5s0.5,0.6,1,0.6s0.8-0.1,0.9-0.4
			s0.2-1.1,0.2-2.3V250.9z"/>
		<path class="st2" d="M123.8,247.3h-7.1v-2.8c0-1-0.1-1.7-0.2-2c-0.2-0.4-0.5-0.5-0.9-0.5s-0.7,0.2-0.9,0.5c-0.1,0.3-0.2,1-0.2,2.1
			v11.6c0,0.9,0.1,1.5,0.3,2c0.2,0.4,0.5,0.7,1,0.7s0.8-0.2,1-0.7s0.3-1.3,0.3-2.6v-2.9h6.7c0,2-0.1,3.4-0.2,4.4s-0.5,2-1.2,3
			s-1.6,1.8-2.7,2.3s-2.5,0.8-4.2,0.8c-2.1,0-3.8-0.4-5-1.1s-2.1-1.7-2.6-3s-0.8-3.2-0.8-5.6v-7c0-2.1,0.2-3.7,0.6-4.7
			c0.4-1.1,1.3-2,2.7-2.8c1.4-0.8,3-1.3,5-1.3s3.6,0.4,5,1.2s2.3,1.9,2.8,3.1C123.5,243.2,123.8,245,123.8,247.3z"/>
		<path class="st2" d="M141.7,238l-2.1,17.8c-0.3,2.8-0.6,4.7-0.9,5.8c-0.2,1-0.6,1.9-1.1,2.5c-0.5,0.7-1.3,1.2-2.2,1.5
			s-2.5,0.5-4.5,0.5h-4.5v-3.9c1.2,0,1.9-0.1,2.2-0.2s0.5-0.4,0.5-0.8c0-0.2-0.2-1.1-0.5-2.6l-4.1-20.6h6.8l2.5,16.6L135,238H141.7z
			"/>
	</g>
	<g>
		<g>
			<defs>
				<rect id="SVGID_00000034088931555015534950000016989362730945908385_" width="195.6" height="280.6"/>
			</defs>
			<clipPath id="SVGID_00000183221865038190061430000010988845131679428745_">
				<use xlink:href="#SVGID_00000034088931555015534950000016989362730945908385_"  style="overflow:visible;"/>
			</clipPath>
			<path style="clip-path:url(#SVGID_00000183221865038190061430000010988845131679428745_);fill:#1A1A1A;" d="M41.1,33.7v9.2
				c0,9.4,7.6,17,17,17s17-7.6,17-17l0,0v-9.2H41.1z"/>
		</g>
	</g>
	<g>
		<g>
			<defs>
				<rect id="SVGID_00000034083801844987931890000015343900400497699741_" width="195.6" height="280.6"/>
			</defs>
			<clipPath id="SVGID_00000126312768906670743650000017297349632702281370_">
				<use xlink:href="#SVGID_00000034083801844987931890000015343900400497699741_"  style="overflow:visible;"/>
			</clipPath>
			<path style="clip-path:url(#SVGID_00000126312768906670743650000017297349632702281370_);fill:#1A1A1A;" d="M120.6,33.7v9.2
				c0,9.4,7.6,17,17,17s17-7.6,17-17l0,0v-9.2H120.6z"/>
		</g>
	</g>
	<g>
		<g>
			<defs>
				<rect id="SVGID_00000007390361104366081010000008331172450915954599_" width="195.6" height="280.6"/>
			</defs>
			<clipPath id="SVGID_00000158730750228063690140000006099599608289536409_">
				<use xlink:href="#SVGID_00000007390361104366081010000008331172450915954599_"  style="overflow:visible;"/>
			</clipPath>
			<path style="clip-path:url(#SVGID_00000158730750228063690140000006099599608289536409_);fill:#1A1A1A;" d="M58,10.8
				c-9.4,0.1-16.9,7.6-17,17V37h34v-9.2C74.9,18.5,67.4,10.9,58,10.8L58,10.8z"/>
		</g>
	</g>
	<g>
		<g>
			<defs>
				<rect id="SVGID_00000131353217747040258230000007773218630181515704_" width="195.6" height="280.6"/>
			</defs>
			<clipPath id="SVGID_00000009568815326819451880000013143648926890848167_">
				<use xlink:href="#SVGID_00000131353217747040258230000007773218630181515704_"  style="overflow:visible;"/>
			</clipPath>
			<path style="clip-path:url(#SVGID_00000009568815326819451880000013143648926890848167_);fill:#1A1A1A;" d="M137.5,10.8
				c-9.4,0.1-16.9,7.6-17,17V37h34v-9.2C154.4,18.5,146.9,10.9,137.5,10.8z"/>
		</g>
	</g>
	<g>
		<g>
			<defs>
				<rect id="SVGID_00000085946170878189218430000017122552974025328772_" width="195.6" height="280.6"/>
			</defs>
			<clipPath id="SVGID_00000041266843841465397680000004639246652267402379_">
				<use xlink:href="#SVGID_00000085946170878189218430000017122552974025328772_"  style="overflow:visible;"/>
			</clipPath>
			<path style="clip-path:url(#SVGID_00000041266843841465397680000004639246652267402379_);fill:#1A1A1A;" d="M19.8,107.8v58.6
				c0.1,11.6,9.5,21,21.1,21.1h113.8c11.6-0.1,21-9.5,21.1-21.1v-58.6h-18.9v58.6c0.1,1.1-0.7,2.1-1.8,2.2c-0.2,0-0.3,0-0.5,0H40.9
				c-1.1,0.1-2.1-0.7-2.2-1.8c0-0.2,0-0.3,0-0.5v-58.6H19.8V107.8z"/>
		</g>
	</g>
	<g>
		<g>
			<defs>
				<rect id="SVGID_00000085224015590337114020000014796559585310477707_" width="195.6" height="280.6"/>
			</defs>
			<clipPath id="SVGID_00000070101014885692876880000013122516432389386173_">
				<use xlink:href="#SVGID_00000085224015590337114020000014796559585310477707_"  style="overflow:visible;"/>
			</clipPath>
			<path style="clip-path:url(#SVGID_00000070101014885692876880000013122516432389386173_);fill:#1A1A1A;" d="M40.9,31.5
				c-11.6,0.1-21,9.5-21.1,21.1v58.6h18.9V52.6c-0.1-1.1,0.7-2.1,1.8-2.2c0.2,0,0.3,0,0.5,0h113.8c1.1-0.1,2.1,0.7,2.2,1.8
				c0,0.2,0,0.3,0,0.5v58.6h18.9V52.6c-0.1-11.6-9.5-21-21.1-21.1C154.8,31.5,40.9,31.5,40.9,31.5z"/>
		</g>
	</g>
	<g>
		<g>
			<defs>
				<rect id="SVGID_00000088113443341988425100000004011331460102512002_" width="195.6" height="280.6"/>
			</defs>
			<clipPath id="SVGID_00000054236489537598506910000010251586922832302503_">
				<use xlink:href="#SVGID_00000088113443341988425100000004011331460102512002_"  style="overflow:visible;"/>
			</clipPath>
			<path style="clip-path:url(#SVGID_00000054236489537598506910000010251586922832302503_);fill:#DBE492;" d="M40.9,40.9h113.8
				c6.4,0,11.7,5.2,11.7,11.6c0,0,0,0,0,0.1v113.8c0,6.4-5.2,11.6-11.7,11.6l0,0H40.9c-6.4,0-11.7-5.2-11.7-11.6c0,0,0,0,0-0.1V52.6
				C29.2,46.2,34.4,40.9,40.9,40.9L40.9,40.9z"/>
		</g>
	</g>
	<g>
		<g>
			<defs>
				<rect id="SVGID_00000121973963864603924530000016546839328781718203_" width="195.6" height="280.6"/>
			</defs>
			<clipPath id="SVGID_00000117656296668591820640000012318671880791000726_">
				<use xlink:href="#SVGID_00000121973963864603924530000016546839328781718203_"  style="overflow:visible;"/>
			</clipPath>
			
				<rect x="49.2" y="60.8" style="clip-path:url(#SVGID_00000117656296668591820640000012318671880791000726_);fill:#FFFFFF;" width="97.3" height="32.7"/>
		</g>
	</g>
	<g>
		<g>
			<defs>
				<rect id="SVGID_00000136397524938120943140000007149408147481935789_" width="195.6" height="280.6"/>
			</defs>
			<clipPath id="SVGID_00000123428871367812027470000006650429143932520367_">
				<use xlink:href="#SVGID_00000136397524938120943140000007149408147481935789_"  style="overflow:visible;"/>
			</clipPath>
			
				<rect x="49.2" y="94.4" style="clip-path:url(#SVGID_00000123428871367812027470000006650429143932520367_);fill:#EB5A53;" width="97.3" height="32.7"/>
		</g>
	</g>
	<g>
		<g>
			<defs>
				<rect id="SVGID_00000121982585525562962050000001548486930898941357_" width="195.6" height="280.6"/>
			</defs>
			<clipPath id="SVGID_00000034080571379290487010000002717319662500773046_">
				<use xlink:href="#SVGID_00000121982585525562962050000001548486930898941357_"  style="overflow:visible;"/>
			</clipPath>
			
				<rect x="49.2" y="125.6" style="clip-path:url(#SVGID_00000034080571379290487010000002717319662500773046_);fill:#FFFFFF;" width="97.3" height="32.7"/>
		</g>
	</g>
	<g>
		<g>
			<defs>
				<rect id="SVGID_00000160907017899935853260000015200848664465516950_" width="195.6" height="280.6"/>
			</defs>
			<clipPath id="SVGID_00000009579918071986983940000002963299653297516946_">
				<use xlink:href="#SVGID_00000160907017899935853260000015200848664465516950_"  style="overflow:visible;"/>
			</clipPath>
			<path style="clip-path:url(#SVGID_00000009579918071986983940000002963299653297516946_);fill:#1A1A1A;" d="M26.9,107.8v58.6
				c0,7.7,6.3,14,14,14h113.8c7.7,0,14-6.3,14-14v-58.6H164v58.6c0,5.1-4.1,9.3-9.2,9.3h-0.1H40.9c-5.1,0-9.3-4.1-9.3-9.2v-0.1
				v-58.6C31.6,107.8,26.9,107.8,26.9,107.8z"/>
		</g>
	</g>
	<g>
		<g>
			<defs>
				<rect id="SVGID_00000165212129909437751420000010431581529120545982_" width="195.6" height="280.6"/>
			</defs>
			<clipPath id="SVGID_00000015324210697345506730000005010432526969387922_">
				<use xlink:href="#SVGID_00000165212129909437751420000010431581529120545982_"  style="overflow:visible;"/>
			</clipPath>
			<path style="clip-path:url(#SVGID_00000015324210697345506730000005010432526969387922_);fill:#1A1A1A;" d="M46.8,107.8v52.7h102
				v-52.7h-4.7v48H51.5v-48H46.8z"/>
		</g>
	</g>
	<g>
		<g>
			<defs>
				<rect id="SVGID_00000157299433997930615050000016770731647576240270_" width="195.6" height="280.6"/>
			</defs>
			<clipPath id="SVGID_00000098904232728674547530000013503587662509447590_">
				<use xlink:href="#SVGID_00000157299433997930615050000016770731647576240270_"  style="overflow:visible;"/>
			</clipPath>
			<path style="clip-path:url(#SVGID_00000098904232728674547530000013503587662509447590_);fill:#1A1A1A;" d="M40.9,38.6
				c-7.7,0-14,6.3-14,14v58.6h4.7V52.6c0-5.1,4.1-9.3,9.2-9.3h0.1h113.7c5.1,0,9.3,4,9.3,9.1c0,0.1,0,0.1,0,0.2v58.6h4.7V52.6
				c0-7.7-6.3-14-14-14H40.9z"/>
		</g>
	</g>
	<g>
		<g>
			<defs>
				<rect id="SVGID_00000143596565255283494370000000376465778614043021_" width="195.6" height="280.6"/>
			</defs>
			<clipPath id="SVGID_00000067229685366305558220000008996932061586230670_">
				<use xlink:href="#SVGID_00000143596565255283494370000000376465778614043021_"  style="overflow:visible;"/>
			</clipPath>
			
				<rect x="111.6" y="60.8" style="clip-path:url(#SVGID_00000067229685366305558220000008996932061586230670_);fill:#1A1A1A;" width="4.7" height="97.3"/>
		</g>
	</g>
	<g>
		<g>
			<defs>
				<rect id="SVGID_00000061449717002999684480000000601133007442786461_" width="195.6" height="280.6"/>
			</defs>
			<clipPath id="SVGID_00000106144590115722761380000002059593881019545488_">
				<use xlink:href="#SVGID_00000061449717002999684480000000601133007442786461_"  style="overflow:visible;"/>
			</clipPath>
			
				<rect x="79.2" y="60.8" style="clip-path:url(#SVGID_00000106144590115722761380000002059593881019545488_);fill:#1A1A1A;" width="4.7" height="97.3"/>
		</g>
	</g>
	<g>
		<g>
			<defs>
				<rect id="SVGID_00000085939697278156973310000002110706635705000088_" width="195.6" height="280.6"/>
			</defs>
			<clipPath id="SVGID_00000180332975675974557410000011451307259040393869_">
				<use xlink:href="#SVGID_00000085939697278156973310000002110706635705000088_"  style="overflow:visible;"/>
			</clipPath>
			
				<rect x="49.2" y="123.3" style="clip-path:url(#SVGID_00000180332975675974557410000011451307259040393869_);fill:#1A1A1A;" width="97.3" height="4.7"/>
		</g>
	</g>
	<g>
		<g>
			<defs>
				<rect id="SVGID_00000160907835565038896370000010807557779339602851_" width="195.6" height="280.6"/>
			</defs>
			<clipPath id="SVGID_00000145737331766529462550000017425263005900547767_">
				<use xlink:href="#SVGID_00000160907835565038896370000010807557779339602851_"  style="overflow:visible;"/>
			</clipPath>
			
				<rect x="49.2" y="90.9" style="clip-path:url(#SVGID_00000145737331766529462550000017425263005900547767_);fill:#1A1A1A;" width="97.3" height="4.7"/>
		</g>
	</g>
	<g>
		<g>
			<defs>
				<rect id="SVGID_00000070819251603810083420000015010403340079031177_" width="195.6" height="280.6"/>
			</defs>
			<clipPath id="SVGID_00000035518573084135895430000008134460609279111870_">
				<use xlink:href="#SVGID_00000070819251603810083420000015010403340079031177_"  style="overflow:visible;"/>
			</clipPath>
			<path style="clip-path:url(#SVGID_00000035518573084135895430000008134460609279111870_);fill:#1A1A1A;" d="M46.8,58.5v52.7h4.7
				v-48h92.6v48h4.7V58.5H46.8z"/>
		</g>
	</g>
	<g>
		<g>
			<defs>
				<rect id="SVGID_00000008844996785008461210000007896333749722306225_" width="195.6" height="280.6"/>
			</defs>
			<clipPath id="SVGID_00000066504062257605152390000005671566939764618645_">
				<use xlink:href="#SVGID_00000008844996785008461210000007896333749722306225_"  style="overflow:visible;"/>
			</clipPath>
			<path style="clip-path:url(#SVGID_00000066504062257605152390000005671566939764618645_);fill:#FFFFFF;" d="M58,20.3
				c4.2,0,7.5,3.3,7.5,7.5l0,0v15.1c0,4.2-3.4,7.5-7.5,7.5s-7.5-3.4-7.5-7.5l0,0V27.8C50.5,23.7,53.9,20.3,58,20.3L58,20.3z"/>
		</g>
	</g>
	<g>
		<g>
			<defs>
				<rect id="SVGID_00000075871063726111095750000006811302560888267178_" width="195.6" height="280.6"/>
			</defs>
			<clipPath id="SVGID_00000172413948285122589680000015745513713123223702_">
				<use xlink:href="#SVGID_00000075871063726111095750000006811302560888267178_"  style="overflow:visible;"/>
			</clipPath>
			<path style="clip-path:url(#SVGID_00000172413948285122589680000015745513713123223702_);fill:#1A1A1A;" d="M48.2,33.7v9.2
				c0,5.5,4.4,9.9,9.9,9.9s9.9-4.4,9.9-9.9l0,0v-9.2h-4.7v9.2c0,2.9-2.3,5.2-5.2,5.2s-5.2-2.3-5.2-5.2l0,0v-9.2H48.2z"/>
		</g>
	</g>
	<g>
		<g>
			<defs>
				<rect id="SVGID_00000161610924902283773500000015233413744046924202_" width="195.6" height="280.6"/>
			</defs>
			<clipPath id="SVGID_00000152974494488986300060000007270244307065331376_">
				<use xlink:href="#SVGID_00000161610924902283773500000015233413744046924202_"  style="overflow:visible;"/>
			</clipPath>
			<path style="clip-path:url(#SVGID_00000152974494488986300060000007270244307065331376_);fill:#FFFFFF;" d="M137.5,20.3
				c4.2,0,7.5,3.3,7.5,7.5l0,0v15.1c0,4.2-3.4,7.5-7.5,7.5c-4.2,0-7.5-3.4-7.5-7.5l0,0V27.8C130,23.7,133.3,20.3,137.5,20.3
				L137.5,20.3L137.5,20.3z"/>
		</g>
	</g>
	<g>
		<g>
			<defs>
				<rect id="SVGID_00000024702561298551723350000008523734542684508835_" width="195.6" height="280.6"/>
			</defs>
			<clipPath id="SVGID_00000136372465302162173030000000958746484151830913_">
				<use xlink:href="#SVGID_00000024702561298551723350000008523734542684508835_"  style="overflow:visible;"/>
			</clipPath>
			<path style="clip-path:url(#SVGID_00000136372465302162173030000000958746484151830913_);fill:#1A1A1A;" d="M127.6,33.7v9.2
				c0,5.5,4.4,9.9,9.9,9.9s9.9-4.4,9.9-9.9v-9.2h-4.7v9.2c0,2.9-2.3,5.2-5.2,5.2s-5.2-2.3-5.2-5.2l0,0v-9.2H127.6z"/>
		</g>
	</g>
	<g>
		<g>
			<defs>
				<rect id="SVGID_00000158025713349911490690000008351110597088192905_" width="195.6" height="280.6"/>
			</defs>
			<clipPath id="SVGID_00000036956865704180968350000013011053857055158194_">
				<use xlink:href="#SVGID_00000158025713349911490690000008351110597088192905_"  style="overflow:visible;"/>
			</clipPath>
			<path style="clip-path:url(#SVGID_00000036956865704180968350000013011053857055158194_);fill:#1A1A1A;" d="M58,17.9
				c-5.5,0-9.9,4.4-9.9,9.9V37h4.7v-9.2c0-2.9,2.3-5.2,5.2-5.2s5.2,2.3,5.2,5.2l0,0V37H68v-9.2C68,22.4,63.6,17.9,58,17.9L58,17.9z"
				/>
		</g>
	</g>
	<g>
		<g>
			<defs>
				<rect id="SVGID_00000113339664020431677730000013365870820073000372_" width="195.6" height="280.6"/>
			</defs>
			<clipPath id="SVGID_00000085962011746873635930000003657305524271806137_">
				<use xlink:href="#SVGID_00000113339664020431677730000013365870820073000372_"  style="overflow:visible;"/>
			</clipPath>
			<path style="clip-path:url(#SVGID_00000085962011746873635930000003657305524271806137_);fill:#1A1A1A;" d="M137.5,17.9
				c-5.5,0-9.9,4.4-9.9,9.9V37h4.7v-9.2c0-2.9,2.3-5.2,5.2-5.2s5.2,2.3,5.2,5.2l0,0V37h4.7v-9.2C147.4,22.4,143,18,137.5,17.9z"/>
		</g>
	</g>
	<g>
		<g>
			<defs>
				<rect id="SVGID_00000065051154185466237050000000029552582086726282_" width="195.6" height="280.6"/>
			</defs>
			<clipPath id="SVGID_00000040575726344034581940000016057175871872142992_">
				<use xlink:href="#SVGID_00000065051154185466237050000000029552582086726282_"  style="overflow:visible;"/>
			</clipPath>
			<path style="clip-path:url(#SVGID_00000040575726344034581940000016057175871872142992_);fill:#FFFFFF;" d="M150.5,0h29h16v16
				c0,7,0,14,0,21c-10.2,12.4-28.6,14.2-41,4S140.3,12.4,150.5,0z"/>
		</g>
	</g>
	<g>
		<g>
			<defs>
				<rect id="SVGID_00000029745121008670209660000012437454577927200920_" width="195.6" height="280.6"/>
			</defs>
			<clipPath id="SVGID_00000082349463822613087920000006137251138207801275_">
				<use xlink:href="#SVGID_00000029745121008670209660000012437454577927200920_"  style="overflow:visible;"/>
			</clipPath>
		</g>
	</g>
</g>
<g class="st1">
	<path class="st28" d="M168.3,15.9v10.3h1.1V29h-1.1v2.8h-3.9V29h-4.7v-2.7l3.4-10.3H168.3z M164.4,26.3v-6.7l-1.7,6.7H164.4z"/>
	<path class="st28" d="M179.7,20.1h-3.9c0-0.7,0-1.2,0-1.4c0-0.2-0.1-0.4-0.2-0.5c-0.1-0.1-0.3-0.2-0.6-0.2c-0.2,0-0.4,0.1-0.5,0.2
		c-0.1,0.1-0.2,0.3-0.2,0.5s0,0.6,0,1.2v2.5c0.2-0.4,0.5-0.7,0.9-1s0.9-0.3,1.4-0.3c0.7,0,1.4,0.2,1.9,0.6c0.6,0.4,0.9,0.9,1.1,1.4
		c0.1,0.5,0.2,1.3,0.2,2.2v1.3c0,1.1,0,1.9-0.1,2.5c-0.1,0.5-0.3,1-0.7,1.5c-0.4,0.5-0.9,0.8-1.5,1.1c-0.6,0.3-1.4,0.4-2.2,0.4
		c-1.1,0-1.9-0.1-2.6-0.4c-0.7-0.3-1.2-0.7-1.6-1.3c-0.4-0.5-0.6-1.1-0.6-1.7c-0.1-0.6-0.1-1.8-0.1-3.5v-2.2c0-1.9,0-3.1,0.1-3.8
		c0.1-0.6,0.3-1.2,0.7-1.8c0.4-0.6,0.9-1,1.6-1.3c0.7-0.3,1.5-0.4,2.4-0.4c1.1,0,2,0.2,2.7,0.5c0.7,0.4,1.2,0.9,1.5,1.5
		C179.6,18.3,179.7,19.1,179.7,20.1z M175.8,25.1c0-0.6-0.1-0.9-0.2-1.2c-0.1-0.2-0.3-0.3-0.6-0.3c-0.3,0-0.5,0.1-0.6,0.3
		s-0.2,0.6-0.2,1.2v2.9c0,0.7,0.1,1.2,0.2,1.4c0.1,0.2,0.3,0.3,0.6,0.3c0.2,0,0.3-0.1,0.5-0.2c0.2-0.2,0.3-0.6,0.3-1.3V25.1z"/>
</g>
</svg>
