<?xml version="1.0" encoding="utf-8"?>
<!-- Generator: Adobe Illustrator 26.0.3, SVG Export Plug-In . SVG Version: 6.00 Build 0)  -->
<svg version="1.1" id="Слой_1" xmlns="http://www.w3.org/2000/svg" xmlns:xlink="http://www.w3.org/1999/xlink" x="0px" y="0px"
	 viewBox="0 0 195.6 280.6" style="enable-background:new 0 0 195.6 280.6;" xml:space="preserve">
<style type="text/css">
	.st0{fill:#EB5A53;}
	.st1{fill:#FFFFFF;}
	.st2{font-family:'Impact';}
	.st3{font-size:38px;}
	.st4{fill:#1A1A1A;}
	.st5{fill:#DBE492;}
	.st6{font-size:20px;}
</style>
<rect x="-277.8" y="-2.9" class="st0" width="488.1" height="289.7"/>
<text transform="matrix(1 0 0 1 44.89 226.61)" class="st1 st2 st3">Święto</text>
<text transform="matrix(1 0 0 1 54.03 262.61)" class="st1 st2 st3">Pracy</text>
<path class="st4" d="M41.1,33.7v9.2c0,9.4,7.6,17,17,17c9.4,0,17-7.6,17-17c0,0,0,0,0,0v-9.2H41.1z"/>
<path class="st4" d="M120.6,33.7v9.2c0,9.4,7.6,17,17,17s17-7.6,17-17l0,0v-9.2H120.6z"/>
<path class="st4" d="M58,10.8c-9.4,0.1-16.9,7.6-17,17v9.2h34v-9.2C74.9,18.5,67.4,10.9,58,10.8L58,10.8z"/>
<path class="st4" d="M137.5,10.8c-9.4,0.1-16.9,7.6-17,17v9.2h34v-9.2C154.4,18.5,146.9,10.9,137.5,10.8z"/>
<path class="st4" d="M19.8,107.8v58.6c0.1,11.6,9.5,21,21.1,21.1h113.8c11.6-0.1,21-9.5,21.1-21.1v-58.6h-18.9v58.6
	c0.1,1.1-0.7,2.1-1.8,2.2c-0.2,0-0.3,0-0.5,0H40.9c-1.1,0.1-2.1-0.7-2.2-1.8c0-0.2,0-0.3,0-0.5v-58.6H19.8z"/>
<path class="st4" d="M40.9,31.5c-11.6,0.1-21,9.5-21.1,21.1v58.6h18.9V52.6c-0.1-1.1,0.7-2.1,1.8-2.2c0.2,0,0.3,0,0.5,0h113.8
	c1.1-0.1,2.1,0.7,2.2,1.8c0,0.2,0,0.3,0,0.5v58.6h18.9V52.6c-0.1-11.6-9.5-21-21.1-21.1H40.9z"/>
<path class="st5" d="M40.9,40.9h113.8c6.4,0,11.7,5.2,11.7,11.6c0,0,0,0,0,0.1v113.8c0,6.4-5.2,11.6-11.7,11.6c0,0,0,0,0,0H40.9
	c-6.4,0-11.7-5.2-11.7-11.6c0,0,0,0,0-0.1V52.6C29.2,46.2,34.4,40.9,40.9,40.9C40.9,40.9,40.9,40.9,40.9,40.9z"/>
<rect x="49.2" y="60.8" class="st0" width="97.3" height="32.7"/>
<rect x="49.2" y="94.4" class="st0" width="97.3" height="16.3"/>
<rect x="49.2" y="110.8" class="st1" width="97.3" height="47.5"/>
<path class="st4" d="M26.9,107.8v58.6c0,7.7,6.3,14,14,14h113.8c7.7,0,14-6.3,14-14v-58.6H164v58.6c0,5.1-4.1,9.3-9.2,9.3
	c0,0-0.1,0-0.1,0H40.9c-5.1,0-9.3-4.1-9.3-9.2c0,0,0-0.1,0-0.1v-58.6H26.9z"/>
<path class="st4" d="M46.8,107.8v52.7h102v-52.7h-4.7v48H51.5v-48H46.8z"/>
<path class="st4" d="M40.9,38.6c-7.7,0-14,6.3-14,14v58.6h4.7V52.6c0-5.1,4.1-9.3,9.2-9.3c0,0,0.1,0,0.1,0h113.7
	c5.1,0,9.3,4,9.3,9.1c0,0.1,0,0.1,0,0.2v58.6h4.7V52.6c0-7.7-6.3-14-14-14L40.9,38.6z"/>
<rect x="111.6" y="60.8" class="st4" width="4.7" height="97.3"/>
<rect x="79.2" y="60.8" class="st4" width="4.7" height="97.3"/>
<rect x="49.2" y="123.3" class="st4" width="97.3" height="4.7"/>
<rect x="49.2" y="90.9" class="st4" width="97.3" height="4.7"/>
<path class="st4" d="M46.8,58.5v52.7h4.7v-48h92.6v48h4.7V58.5H46.8z"/>
<path class="st1" d="M58,20.3c4.2,0,7.5,3.3,7.5,7.5c0,0,0,0,0,0v15.1c0,4.2-3.4,7.5-7.5,7.5s-7.5-3.4-7.5-7.5l0,0V27.8
	C50.5,23.7,53.9,20.3,58,20.3C58,20.3,58,20.3,58,20.3z"/>
<path class="st4" d="M48.2,33.7v9.2c0,5.5,4.4,9.9,9.9,9.9c5.5,0,9.9-4.4,9.9-9.9c0,0,0,0,0,0v-9.2h-4.7v9.2c0,2.9-2.3,5.2-5.2,5.2
	c-2.9,0-5.2-2.3-5.2-5.2c0,0,0,0,0,0v-9.2H48.2z"/>
<path class="st1" d="M137.5,20.3c4.2,0,7.5,3.3,7.5,7.5c0,0,0,0,0,0v15.1c0,4.2-3.4,7.5-7.5,7.5c-4.2,0-7.5-3.4-7.5-7.5l0,0V27.8
	C130,23.7,133.3,20.3,137.5,20.3C137.5,20.3,137.5,20.3,137.5,20.3L137.5,20.3z"/>
<path class="st4" d="M127.6,33.7v9.2c0,5.5,4.4,9.9,9.9,9.9c5.5,0,9.9-4.4,9.9-9.9v-9.2h-4.7v9.2c0,2.9-2.3,5.2-5.2,5.2
	s-5.2-2.3-5.2-5.2c0,0,0,0,0,0v-9.2H127.6z"/>
<path class="st4" d="M58,17.9c-5.5,0-9.9,4.4-9.9,9.9v9.2h4.7v-9.2c0-2.9,2.3-5.2,5.2-5.2c2.9,0,5.2,2.3,5.2,5.2c0,0,0,0,0,0v9.2H68
	v-9.2C68,22.4,63.6,17.9,58,17.9L58,17.9z"/>
<path class="st4" d="M137.5,17.9c-5.5,0-9.9,4.4-9.9,9.9v9.2h4.7v-9.2c0-2.9,2.3-5.2,5.2-5.2c2.9,0,5.2,2.3,5.2,5.2c0,0,0,0,0,0v9.2
	h4.7v-9.2C147.4,22.4,143,18,137.5,17.9z"/>
<path class="st1" d="M44.8,0h-29h-16v16c0,7,0,14,0,21c10.3,12.4,28.6,14.1,41,3.8c6.7-5.6,10.6-13.8,10.5-22.5
	C51.4,11.6,49.1,5.2,44.8,0z"/>
<text transform="matrix(1 0 0 1 15.46 31.75)" class="st4 st2 st6">46</text>
</svg>
