<svg id="Слой_1" data-name="Слой 1" xmlns="http://www.w3.org/2000/svg" viewBox="0 0 195.59 280.63"><defs><style>.cls-1{fill:#eb5a53;}.cls-2{font-size:38px;}.cls-2,.cls-5{fill:#fff;}.cls-2,.cls-6{font-family:Impact;}.cls-3,.cls-6{fill:#1a1a1a;}.cls-4{fill:#dbe492;}.cls-6{font-size:20px;}</style></defs><rect class="cls-1" x="-10.68" y="-2.94" width="488.06" height="289.71"/><text class="cls-2" transform="translate(44.89 226.61)">Święto<tspan x="9.14" y="36">Pracy</tspan></text><path class="cls-3" d="M41.06,33.69v9.22a17,17,0,1,0,34,0V33.69Zm0,0"/><path class="cls-3" d="M120.55,33.69v9.22a17,17,0,1,0,34,0V33.69Zm0,0"/><path class="cls-3" d="M58.05,10.84a17.17,17.17,0,0,0-17,17v9.22H75V27.84a17.17,17.17,0,0,0-17-17Zm0,0"/><path class="cls-3" d="M137.54,10.84a17.17,17.17,0,0,0-17,17v9.22h34V27.84a17.17,17.17,0,0,0-17-17Zm0,0"/><path class="cls-3" d="M19.79,107.8v58.56a21.29,21.29,0,0,0,21.13,21.13H154.67a21.29,21.29,0,0,0,21.13-21.13V107.8H156.89v58.56a2,2,0,0,1-2.22,2.22H40.92a2,2,0,0,1-2.22-2.22V107.8Zm0,0"/><path class="cls-3" d="M40.92,31.47A21.3,21.3,0,0,0,19.79,52.6v58.56H38.7V52.6a2,2,0,0,1,2.22-2.22H154.67a2,2,0,0,1,2.22,2.22v58.56H175.8V52.6a21.3,21.3,0,0,0-21.13-21.13Zm0,0"/><path class="cls-4" d="M40.92,40.93H154.67A11.65,11.65,0,0,1,166.35,52.6V166.36A11.65,11.65,0,0,1,154.67,178H40.92a11.65,11.65,0,0,1-11.68-11.67V52.6A11.65,11.65,0,0,1,40.92,40.93Zm0,0"/><rect class="cls-5" x="49.15" y="60.84" width="97.29" height="32.67"/><rect class="cls-1" x="49.15" y="94.44" width="97.29" height="32.67"/><rect class="cls-5" x="49.15" y="125.58" width="97.29" height="32.67"/><path class="cls-3" d="M26.88,107.8v58.56a14.06,14.06,0,0,0,14,14H154.67a14.06,14.06,0,0,0,14-14V107.8H164v58.56a9.24,9.24,0,0,1-9.31,9.31H40.92a9.24,9.24,0,0,1-9.31-9.31V107.8Zm0,0"/><path class="cls-3" d="M46.79,107.8v52.69h102V107.8h-4.72v48H51.51v-48Zm0,0"/><path class="cls-3" d="M40.92,38.56a14.06,14.06,0,0,0-14,14v58.56h4.73V52.6a9.24,9.24,0,0,1,9.31-9.31H154.67A9.24,9.24,0,0,1,164,52.6v58.56h4.73V52.6a14.06,14.06,0,0,0-14-14Zm0,0"/><rect class="cls-3" x="111.64" y="60.84" width="4.73" height="97.29"/><rect class="cls-3" x="79.22" y="60.84" width="4.73" height="97.29"/><rect class="cls-3" x="49.15" y="123.33" width="97.29" height="4.73"/><rect class="cls-3" x="49.15" y="90.9" width="97.29" height="4.73"/><path class="cls-3" d="M46.79,58.47v52.69h4.72v-48h92.57v48h4.72V58.47Zm0,0"/><path class="cls-5" d="M58.05,20.3a7.52,7.52,0,0,1,7.54,7.54V42.91a7.54,7.54,0,0,1-15.08,0V27.84a7.52,7.52,0,0,1,7.54-7.54Zm0,0"/><path class="cls-3" d="M48.15,33.69v9.22a9.9,9.9,0,1,0,19.8,0V33.69H63.22v9.22a5.17,5.17,0,1,1-10.34,0V33.69Zm0,0"/><path class="cls-5" d="M137.54,20.3a7.52,7.52,0,0,1,7.54,7.54V42.91a7.54,7.54,0,0,1-15.08,0V27.84a7.52,7.52,0,0,1,7.54-7.54Zm0,0"/><path class="cls-3" d="M127.64,33.69v9.22a9.9,9.9,0,1,0,19.8,0V33.69h-4.73v9.22a5.17,5.17,0,1,1-10.34,0V33.69Zm0,0"/><path class="cls-3" d="M58.05,17.93a9.94,9.94,0,0,0-9.9,9.91v9.22h4.73V27.84a5.17,5.17,0,1,1,10.34,0v9.22H68V27.84a9.93,9.93,0,0,0-9.9-9.91Zm0,0"/><path class="cls-3" d="M137.54,17.93a9.93,9.93,0,0,0-9.9,9.91v9.22h4.73V27.84a5.17,5.17,0,1,1,10.34,0v9.22h4.73V27.84a9.94,9.94,0,0,0-9.9-9.91Zm0,0"/><path class="cls-5" d="M150.53,0l29,0h16l0,16c0,7,0,14,0,21A29.09,29.09,0,0,1,150.53,0Z"/><text class="cls-6" transform="translate(159.58 31.75)">46</text></svg>