<?xml version="1.0" encoding="utf-8"?>
<!-- Generator: Adobe Illustrator 26.0.1, SVG Export Plug-In . SVG Version: 6.00 Build 0)  -->
<svg version="1.1" id="Слой_1" xmlns="http://www.w3.org/2000/svg" xmlns:xlink="http://www.w3.org/1999/xlink" x="0px" y="0px"
	 viewBox="0 0 195.6 280.6" style="enable-background:new 0 0 195.6 280.6;" xml:space="preserve">
<style type="text/css">
	.st0{clip-path:url(#SVGID_00000067204987401313583410000017832595850318023309_);fill:#FFFFFF;}
	.st1{enable-background:new    ;}
	.st2{fill:#1A1A1A;}
	.st3{clip-path:url(#SVGID_00000049915687798445517310000016090790894824336532_);fill:#1A1A1A;}
	.st4{clip-path:url(#SVGID_00000032649257947078100320000009857925477512270486_);fill:#1A1A1A;}
	.st5{clip-path:url(#SVGID_00000052790281657017857060000009524673395147201426_);fill:#1A1A1A;}
	.st6{clip-path:url(#SVGID_00000005982031852581673290000009958369950283103889_);fill:#1A1A1A;}
	.st7{clip-path:url(#SVGID_00000047045428708081859430000017585899026314659232_);fill:#1A1A1A;}
	.st8{clip-path:url(#SVGID_00000052102692552344915810000017691217682942935731_);fill:#1A1A1A;}
	.st9{clip-path:url(#SVGID_00000063590980416068774710000005410308427354461321_);fill:#DBE492;}
	.st10{clip-path:url(#SVGID_00000057126156955575803930000000329167143940379800_);fill:#FFFFFF;}
	.st11{clip-path:url(#SVGID_00000168117722584402365260000008362755055673202079_);fill:#EB5A53;}
	.st12{clip-path:url(#SVGID_00000057826592555540647970000013956756138218694308_);fill:#FFFFFF;}
	.st13{clip-path:url(#SVGID_00000071535452850208561370000004886384046942181784_);fill:#1A1A1A;}
	.st14{clip-path:url(#SVGID_00000017485497661135551320000012162340644256230833_);fill:#1A1A1A;}
	.st15{clip-path:url(#SVGID_00000175315096230577778150000004345613556716616600_);fill:#1A1A1A;}
	.st16{clip-path:url(#SVGID_00000094577286811919356340000005240122411212831660_);fill:#1A1A1A;}
	.st17{clip-path:url(#SVGID_00000070113800528193419490000011877472736584512176_);fill:#1A1A1A;}
	.st18{clip-path:url(#SVGID_00000048478739948564004940000013571004606299893431_);fill:#1A1A1A;}
	.st19{clip-path:url(#SVGID_00000180347404028142523500000008665235687488457360_);fill:#1A1A1A;}
	.st20{clip-path:url(#SVGID_00000125584377651078387250000008118352288320912267_);fill:#1A1A1A;}
	.st21{clip-path:url(#SVGID_00000059289276702831650810000003833551202602341262_);fill:#FFFFFF;}
	.st22{clip-path:url(#SVGID_00000088845386764946949380000013445380135765672124_);fill:#1A1A1A;}
	.st23{clip-path:url(#SVGID_00000057867279892233056880000006660850362596803772_);fill:#FFFFFF;}
	.st24{clip-path:url(#SVGID_00000027588356601119342150000004857287203825056141_);fill:#1A1A1A;}
	.st25{clip-path:url(#SVGID_00000152943306000738483010000011991648394530548360_);fill:#1A1A1A;}
	.st26{clip-path:url(#SVGID_00000098197573846454669990000008914273311437903787_);fill:#1A1A1A;}
	.st27{clip-path:url(#SVGID_00000093883878731123005080000007599975860628572858_);fill:#EB5A53;}
	.st28{fill:#FFFFFF;}
</style>
<g>
	<g>
		<g>
			<defs>
				<rect id="SVGID_1_" width="195.6" height="280.6"/>
			</defs>
			<clipPath id="SVGID_00000100362158946410141530000012032568589761553562_">
				<use xlink:href="#SVGID_1_"  style="overflow:visible;"/>
			</clipPath>
			
				<rect x="-8.3" y="-4.7" style="clip-path:url(#SVGID_00000100362158946410141530000012032568589761553562_);fill:#FFFFFF;" width="482.6" height="294.6"/>
		</g>
	</g>
	<g class="st1">
		<path class="st2" d="M64.6,198.2H72c2.3,0,4.1,0.2,5.3,0.5s2.2,1.1,2.9,2.2s1.1,2.9,1.1,5.3c0,1.7-0.3,2.8-0.8,3.5
			s-1.5,1.2-3.1,1.5c1.7,0.4,2.9,1,3.5,1.9s0.9,2.3,0.9,4.1v2.6c0,1.9-0.2,3.3-0.7,4.3c-0.4,0.9-1.1,1.6-2.1,1.9s-2.9,0.5-5.9,0.5
			h-8.6L64.6,198.2L64.6,198.2z M72,203v6.3c0.3,0,0.6,0,0.7,0c0.7,0,1.2-0.2,1.4-0.5s0.3-1.4,0.3-3.1c0-0.9-0.1-1.5-0.2-1.9
			s-0.4-0.6-0.6-0.7S72.8,203,72,203z M72,213.8v8c1,0,1.7-0.2,2-0.5s0.4-1,0.4-2.2v-2.7c0-1.2-0.1-2-0.4-2.2S73.1,213.8,72,213.8z"
			/>
		<path class="st2" d="M100.3,211.5v5.7c0,2.1-0.1,3.6-0.3,4.6s-0.7,1.9-1.4,2.7s-1.6,1.5-2.7,1.9s-2.3,0.6-3.7,0.6
			c-1.6,0-2.9-0.2-4-0.5s-1.9-0.9-2.5-1.6s-1-1.5-1.3-2.5s-0.4-2.5-0.4-4.5v-6c0-2.2,0.2-3.9,0.7-5.1s1.3-2.2,2.5-2.9
			s2.8-1.1,4.7-1.1c1.6,0,3,0.2,4.1,0.7s2,1.1,2.6,1.9s1,1.5,1.3,2.4S100.3,209.8,100.3,211.5z M93.2,209.7c0-1.2-0.1-1.9-0.2-2.3
			s-0.4-0.5-0.8-0.5s-0.7,0.2-0.8,0.5s-0.2,1.1-0.2,2.3v10.5c0,1.1,0.1,1.8,0.2,2.2s0.4,0.5,0.8,0.5s0.7-0.2,0.8-0.5s0.2-1,0.2-2
			V209.7z"/>
		<path class="st2" d="M113.7,203.3v5.2l-5.2,13.5h5.2v4.7h-12.1v-4.9L107,208h-4.8v-4.7H113.7z M110.1,197.1v4.6h-4.6v-4.6H110.1z"
			/>
		<path class="st2" d="M131.4,215.4h-9.2v5c0,1.1,0.1,1.7,0.2,2s0.4,0.5,0.9,0.5s0.9-0.2,1.1-0.6s0.3-1.2,0.3-2.3v-3.1h6.7v1.7
			c0,1.4-0.1,2.5-0.3,3.3s-0.6,1.6-1.3,2.5s-1.5,1.5-2.5,2s-2.3,0.7-3.9,0.7c-1.5,0-2.8-0.2-4-0.7s-2-1-2.7-1.8s-1.1-1.6-1.3-2.5
			s-0.4-2.2-0.4-4v-6.8c0-2,0.3-3.6,0.8-4.8s1.5-2.1,2.7-2.7s2.7-0.9,4.3-0.9c2,0,3.6,0.4,4.9,1.1c1.3,0.7,2.2,1.8,2.7,3
			s0.8,3,0.8,5.3v3.1H131.4z M124.3,211.6v-1.7c0-1.2-0.1-2-0.2-2.3s-0.4-0.5-0.8-0.5c-0.5,0-0.8,0.1-0.9,0.4s-0.2,1.1-0.2,2.4v1.7
			L124.3,211.6L124.3,211.6z"/>
	</g>
	<g class="st1">
		<path class="st2" d="M32.9,234.2v28.5h-6.5l-3.8-12.9v12.9h-6.2v-28.5h6.2l4.1,12.8v-12.8L32.9,234.2L32.9,234.2z"/>
		<path class="st2" d="M42,248.3h-6.7v-1.6c0-1.8,0.2-3.2,0.6-4.2s1.3-1.8,2.5-2.6s2.9-1.1,4.9-1.1c2.4,0,4.2,0.4,5.4,1.3
			s2,1.9,2.2,3.1s0.4,3.8,0.4,7.6v11.7h-6.9v-2.1c-0.4,0.8-1,1.5-1.7,1.9s-1.5,0.6-2.5,0.6c-1.2,0-2.4-0.3-3.4-1s-1.6-2.2-1.6-4.6
			v-1.9c0-1.7,0.3-2.9,0.8-3.6s1.9-1.4,4.1-2.2c2.3-0.9,3.6-1.5,3.7-1.8s0.2-1,0.2-1.9c0-1.2-0.1-2-0.3-2.4s-0.5-0.6-0.9-0.6
			c-0.5,0-0.8,0.2-0.9,0.5s-0.2,1.1-0.2,2.4v2.5H42z M44.3,251.5c-1.1,0.8-1.8,1.5-2,2.1S42,255,42,256c0,1.2,0.1,2,0.2,2.3
			s0.5,0.5,0.9,0.5s0.7-0.1,0.9-0.4s0.2-1,0.2-2.2L44.3,251.5L44.3,251.5z"/>
		<path class="st2" d="M60.9,239.3l-0.3,3.1c1-2.2,2.5-3.4,4.5-3.5v8.2c-1.3,0-2.3,0.2-2.9,0.5s-1,0.8-1.1,1.5s-0.2,2.1-0.2,4.3v9.2
			h-7.1v-23.3H60.9z"/>
		<path class="st2" d="M82.8,247.5v5.7c0,2.1-0.1,3.6-0.3,4.6s-0.7,1.9-1.4,2.7s-1.6,1.5-2.7,1.9s-2.3,0.6-3.7,0.6
			c-1.6,0-2.9-0.2-4-0.5s-1.9-0.9-2.5-1.6s-1-1.5-1.3-2.5s-0.4-2.5-0.4-4.5v-6c0-2.2,0.2-3.9,0.7-5.1s1.3-2.2,2.5-2.9
			s2.8-1.1,4.7-1.1c1.6,0,3,0.2,4.1,0.7s2,1.1,2.6,1.9s1,1.5,1.3,2.4S82.8,245.8,82.8,247.5z M75.7,245.7c0-1.2-0.1-1.9-0.2-2.3
			s-0.4-0.5-0.8-0.5s-0.7,0.2-0.8,0.5s-0.2,1.1-0.2,2.3v10.5c0,1.1,0.1,1.8,0.2,2.2s0.4,0.5,0.8,0.5s0.7-0.2,0.8-0.5s0.2-1,0.2-2
			V245.7z"/>
		<path class="st2" d="M101.3,234.2v28.5h-7.1V261c-0.7,0.7-1.4,1.2-2.1,1.6c-0.8,0.4-1.5,0.5-2.4,0.5c-1.1,0-2.1-0.3-2.9-0.9
			s-1.3-1.3-1.6-2s-0.3-2-0.3-3.7v-10.9c0-1.8,0.1-3.1,0.3-3.8s0.8-1.4,1.6-2s1.8-0.9,2.9-0.9c0.9,0,1.7,0.2,2.4,0.5
			c0.7,0.3,1.4,0.8,2,1.4v-6.6H101.3z M94.2,245.2c0-0.9-0.1-1.4-0.2-1.7s-0.4-0.4-0.9-0.4c-0.4,0-0.7,0.1-0.9,0.4s-0.2,0.9-0.2,1.8
			v11.4c0,0.9,0.1,1.6,0.2,1.9s0.4,0.4,0.8,0.4c0.5,0,0.8-0.2,0.9-0.5s0.2-1.2,0.2-2.5L94.2,245.2L94.2,245.2z"/>
		<path class="st2" d="M114.9,239.3v5.2l-5.2,13.5h5.2v4.7h-12.1v-4.9l5.3-13.8h-4.8v-4.7L114.9,239.3L114.9,239.3z"/>
		<path class="st2" d="M132.5,251.4h-9.2v5c0,1.1,0.1,1.7,0.2,2s0.4,0.5,0.9,0.5s0.9-0.2,1.1-0.6s0.3-1.2,0.3-2.3v-3.1h6.7v1.7
			c0,1.4-0.1,2.5-0.3,3.3s-0.6,1.6-1.3,2.5s-1.5,1.5-2.5,2s-2.3,0.7-3.9,0.7c-1.5,0-2.8-0.2-4-0.7s-2-1-2.7-1.8s-1.1-1.6-1.3-2.5
			s-0.4-2.2-0.4-4v-6.8c0-2,0.3-3.6,0.8-4.8s1.5-2.1,2.7-2.7s2.7-0.9,4.3-0.9c2,0,3.6,0.4,4.9,1.1c1.3,0.7,2.2,1.8,2.7,3
			s0.8,3,0.8,5.3v3.1H132.5z M125.4,247.6v-1.7c0-1.2-0.1-2-0.2-2.3s-0.4-0.5-0.8-0.5c-0.5,0-0.8,0.1-0.9,0.4s-0.2,1.1-0.2,2.4v1.7
			L125.4,247.6L125.4,247.6z"/>
		<path class="st2" d="M142.1,239.3l-0.1,2.1c0.5-0.9,1.1-1.5,1.9-1.9s1.6-0.6,2.6-0.6c1.2,0,2.2,0.3,3,0.9s1.3,1.3,1.5,2.2
			s0.3,2.3,0.3,4.4v16.3h-7.1v-16.2c0-1.6-0.1-2.6-0.2-2.9s-0.4-0.5-0.9-0.5s-0.8,0.2-0.9,0.6s-0.2,1.5-0.2,3.2v15.8h-7.1v-23.3
			L142.1,239.3L142.1,239.3z"/>
		<path class="st2" d="M161,234.2v3.7h-7.3v-3.7H161z M161,239.3v23.3h-7.3v-23.3H161z"/>
		<path class="st2" d="M179.6,251.4h-9.2v5c0,1.1,0.1,1.7,0.2,2s0.4,0.5,0.9,0.5s0.9-0.2,1.1-0.6s0.3-1.2,0.3-2.3v-3.1h6.7v1.7
			c0,1.4-0.1,2.5-0.3,3.3s-0.6,1.6-1.3,2.5s-1.5,1.5-2.5,2s-2.3,0.7-3.9,0.7c-1.5,0-2.8-0.2-4-0.7s-2-1-2.7-1.8s-1.1-1.6-1.3-2.5
			s-0.4-2.2-0.4-4v-6.8c0-2,0.3-3.6,0.8-4.8s1.5-2.1,2.7-2.7s2.7-0.9,4.3-0.9c2,0,3.6,0.4,4.9,1.1s2.2,1.8,2.7,3s0.8,3,0.8,5.3v3.1
			H179.6z M172.5,247.6v-1.7c0-1.2-0.1-2-0.2-2.3s-0.4-0.5-0.8-0.5c-0.5,0-0.8,0.1-0.9,0.4s-0.2,1.1-0.2,2.4v1.7L172.5,247.6
			L172.5,247.6z"/>
	</g>
	<g>
		<g>
			<defs>
				<rect id="SVGID_00000085939978557202983500000008726233711653188029_" width="195.6" height="280.6"/>
			</defs>
			<clipPath id="SVGID_00000064327633143177297350000016038993655409159602_">
				<use xlink:href="#SVGID_00000085939978557202983500000008726233711653188029_"  style="overflow:visible;"/>
			</clipPath>
			<path style="clip-path:url(#SVGID_00000064327633143177297350000016038993655409159602_);fill:#1A1A1A;" d="M41.1,33.7v9.2
				c0,9.4,7.6,17,17,17s17-7.6,17-17l0,0v-9.2H41.1z"/>
		</g>
	</g>
	<g>
		<g>
			<defs>
				<rect id="SVGID_00000057107882869965109470000013573656646195860908_" width="195.6" height="280.6"/>
			</defs>
			<clipPath id="SVGID_00000016053362655532558220000014246125101647280307_">
				<use xlink:href="#SVGID_00000057107882869965109470000013573656646195860908_"  style="overflow:visible;"/>
			</clipPath>
			<path style="clip-path:url(#SVGID_00000016053362655532558220000014246125101647280307_);fill:#1A1A1A;" d="M120.6,33.7v9.2
				c0,9.4,7.6,17,17,17s17-7.6,17-17l0,0v-9.2H120.6z"/>
		</g>
	</g>
	<g>
		<g>
			<defs>
				<rect id="SVGID_00000075853060368425998590000008011820196325183136_" width="195.6" height="280.6"/>
			</defs>
			<clipPath id="SVGID_00000136410910019508765920000011163858438204597435_">
				<use xlink:href="#SVGID_00000075853060368425998590000008011820196325183136_"  style="overflow:visible;"/>
			</clipPath>
			<path style="clip-path:url(#SVGID_00000136410910019508765920000011163858438204597435_);fill:#1A1A1A;" d="M58,10.8
				c-9.4,0.1-16.9,7.6-17,17V37h34v-9.2C74.9,18.5,67.4,10.9,58,10.8L58,10.8z"/>
		</g>
	</g>
	<g>
		<g>
			<defs>
				<rect id="SVGID_00000135671257331959861820000016920438691487288740_" width="195.6" height="280.6"/>
			</defs>
			<clipPath id="SVGID_00000030477980079833010680000012479816187730141112_">
				<use xlink:href="#SVGID_00000135671257331959861820000016920438691487288740_"  style="overflow:visible;"/>
			</clipPath>
			<path style="clip-path:url(#SVGID_00000030477980079833010680000012479816187730141112_);fill:#1A1A1A;" d="M137.5,10.8
				c-9.4,0.1-16.9,7.6-17,17V37h34v-9.2C154.4,18.5,146.9,10.9,137.5,10.8z"/>
		</g>
	</g>
	<g>
		<g>
			<defs>
				<rect id="SVGID_00000153691452518561356100000015012330498522055871_" width="195.6" height="280.6"/>
			</defs>
			<clipPath id="SVGID_00000035524275906985269570000006219377643703874700_">
				<use xlink:href="#SVGID_00000153691452518561356100000015012330498522055871_"  style="overflow:visible;"/>
			</clipPath>
			<path style="clip-path:url(#SVGID_00000035524275906985269570000006219377643703874700_);fill:#1A1A1A;" d="M19.8,107.8v58.6
				c0.1,11.6,9.5,21,21.1,21.1h113.8c11.6-0.1,21-9.5,21.1-21.1v-58.6h-18.9v58.6c0.1,1.1-0.7,2.1-1.8,2.2c-0.2,0-0.3,0-0.5,0H40.9
				c-1.1,0.1-2.1-0.7-2.2-1.8c0-0.2,0-0.3,0-0.5v-58.6H19.8V107.8z"/>
		</g>
	</g>
	<g>
		<g>
			<defs>
				<rect id="SVGID_00000059991854014261973830000016070035724037205636_" width="195.6" height="280.6"/>
			</defs>
			<clipPath id="SVGID_00000013872171255588388150000005870904989384408234_">
				<use xlink:href="#SVGID_00000059991854014261973830000016070035724037205636_"  style="overflow:visible;"/>
			</clipPath>
			<path style="clip-path:url(#SVGID_00000013872171255588388150000005870904989384408234_);fill:#1A1A1A;" d="M40.9,31.5
				c-11.6,0.1-21,9.5-21.1,21.1v58.6h18.9V52.6c-0.1-1.1,0.7-2.1,1.8-2.2c0.2,0,0.3,0,0.5,0h113.8c1.1-0.1,2.1,0.7,2.2,1.8
				c0,0.2,0,0.3,0,0.5v58.6h18.9V52.6c-0.1-11.6-9.5-21-21.1-21.1C154.8,31.5,40.9,31.5,40.9,31.5z"/>
		</g>
	</g>
	<g>
		<g>
			<defs>
				<rect id="SVGID_00000005955063300891946500000003547932605387377806_" width="195.6" height="280.6"/>
			</defs>
			<clipPath id="SVGID_00000072962828900311044560000013385879974310291384_">
				<use xlink:href="#SVGID_00000005955063300891946500000003547932605387377806_"  style="overflow:visible;"/>
			</clipPath>
			<path style="clip-path:url(#SVGID_00000072962828900311044560000013385879974310291384_);fill:#DBE492;" d="M40.9,40.9h113.8
				c6.4,0,11.7,5.2,11.7,11.6c0,0,0,0,0,0.1v113.8c0,6.4-5.2,11.6-11.7,11.6l0,0H40.9c-6.4,0-11.7-5.2-11.7-11.6c0,0,0,0,0-0.1V52.6
				C29.2,46.2,34.4,40.9,40.9,40.9L40.9,40.9z"/>
		</g>
	</g>
	<g>
		<g>
			<defs>
				<rect id="SVGID_00000091716265563982081050000005536232042610247049_" width="195.6" height="280.6"/>
			</defs>
			<clipPath id="SVGID_00000021120124104640937720000012940565013892631225_">
				<use xlink:href="#SVGID_00000091716265563982081050000005536232042610247049_"  style="overflow:visible;"/>
			</clipPath>
			
				<rect x="49.2" y="60.8" style="clip-path:url(#SVGID_00000021120124104640937720000012940565013892631225_);fill:#FFFFFF;" width="97.3" height="32.7"/>
		</g>
	</g>
	<g>
		<g>
			<defs>
				<rect id="SVGID_00000098210538260798026580000006907730818587208095_" width="195.6" height="280.6"/>
			</defs>
			<clipPath id="SVGID_00000083771026034882034840000018022184898144346039_">
				<use xlink:href="#SVGID_00000098210538260798026580000006907730818587208095_"  style="overflow:visible;"/>
			</clipPath>
			
				<rect x="49.2" y="94.4" style="clip-path:url(#SVGID_00000083771026034882034840000018022184898144346039_);fill:#EB5A53;" width="97.3" height="32.7"/>
		</g>
	</g>
	<g>
		<g>
			<defs>
				<rect id="SVGID_00000003073924416586312240000011210540767427314602_" width="195.6" height="280.6"/>
			</defs>
			<clipPath id="SVGID_00000011729439771406594450000007642423310243737259_">
				<use xlink:href="#SVGID_00000003073924416586312240000011210540767427314602_"  style="overflow:visible;"/>
			</clipPath>
			
				<rect x="49.2" y="125.6" style="clip-path:url(#SVGID_00000011729439771406594450000007642423310243737259_);fill:#FFFFFF;" width="97.3" height="32.7"/>
		</g>
	</g>
	<g>
		<g>
			<defs>
				<rect id="SVGID_00000154410833586203688720000008480956563892236692_" width="195.6" height="280.6"/>
			</defs>
			<clipPath id="SVGID_00000126305212874199308370000003380123157209048209_">
				<use xlink:href="#SVGID_00000154410833586203688720000008480956563892236692_"  style="overflow:visible;"/>
			</clipPath>
			<path style="clip-path:url(#SVGID_00000126305212874199308370000003380123157209048209_);fill:#1A1A1A;" d="M26.9,107.8v58.6
				c0,7.7,6.3,14,14,14h113.8c7.7,0,14-6.3,14-14v-58.6H164v58.6c0,5.1-4.1,9.3-9.2,9.3h-0.1H40.9c-5.1,0-9.3-4.1-9.3-9.2v-0.1
				v-58.6C31.6,107.8,26.9,107.8,26.9,107.8z"/>
		</g>
	</g>
	<g>
		<g>
			<defs>
				<rect id="SVGID_00000095312074532626731240000012397102222337037735_" width="195.6" height="280.6"/>
			</defs>
			<clipPath id="SVGID_00000010273658570056878890000013385782717028528279_">
				<use xlink:href="#SVGID_00000095312074532626731240000012397102222337037735_"  style="overflow:visible;"/>
			</clipPath>
			<path style="clip-path:url(#SVGID_00000010273658570056878890000013385782717028528279_);fill:#1A1A1A;" d="M46.8,107.8v52.7h102
				v-52.7h-4.7v48H51.5v-48H46.8z"/>
		</g>
	</g>
	<g>
		<g>
			<defs>
				<rect id="SVGID_00000179639916131157848530000016485246568565940387_" width="195.6" height="280.6"/>
			</defs>
			<clipPath id="SVGID_00000042698539834951812290000006447852905542582169_">
				<use xlink:href="#SVGID_00000179639916131157848530000016485246568565940387_"  style="overflow:visible;"/>
			</clipPath>
			<path style="clip-path:url(#SVGID_00000042698539834951812290000006447852905542582169_);fill:#1A1A1A;" d="M40.9,38.6
				c-7.7,0-14,6.3-14,14v58.6h4.7V52.6c0-5.1,4.1-9.3,9.2-9.3h0.1h113.7c5.1,0,9.3,4,9.3,9.1c0,0.1,0,0.1,0,0.2v58.6h4.7V52.6
				c0-7.7-6.3-14-14-14H40.9z"/>
		</g>
	</g>
	<g>
		<g>
			<defs>
				<rect id="SVGID_00000026853295115641921110000011298186166634605450_" width="195.6" height="280.6"/>
			</defs>
			<clipPath id="SVGID_00000149358603440724457960000012637837101282130873_">
				<use xlink:href="#SVGID_00000026853295115641921110000011298186166634605450_"  style="overflow:visible;"/>
			</clipPath>
			
				<rect x="111.6" y="60.8" style="clip-path:url(#SVGID_00000149358603440724457960000012637837101282130873_);fill:#1A1A1A;" width="4.7" height="97.3"/>
		</g>
	</g>
	<g>
		<g>
			<defs>
				<rect id="SVGID_00000060742541163342446120000007710323900210254769_" width="195.6" height="280.6"/>
			</defs>
			<clipPath id="SVGID_00000182489182467627444030000013904549359035733394_">
				<use xlink:href="#SVGID_00000060742541163342446120000007710323900210254769_"  style="overflow:visible;"/>
			</clipPath>
			
				<rect x="79.2" y="60.8" style="clip-path:url(#SVGID_00000182489182467627444030000013904549359035733394_);fill:#1A1A1A;" width="4.7" height="97.3"/>
		</g>
	</g>
	<g>
		<g>
			<defs>
				<rect id="SVGID_00000032647764332675786190000004577972157562709915_" width="195.6" height="280.6"/>
			</defs>
			<clipPath id="SVGID_00000015352888486840201080000002228749545680744377_">
				<use xlink:href="#SVGID_00000032647764332675786190000004577972157562709915_"  style="overflow:visible;"/>
			</clipPath>
			
				<rect x="49.2" y="123.3" style="clip-path:url(#SVGID_00000015352888486840201080000002228749545680744377_);fill:#1A1A1A;" width="97.3" height="4.7"/>
		</g>
	</g>
	<g>
		<g>
			<defs>
				<rect id="SVGID_00000126296910064050818770000018150277340697819296_" width="195.6" height="280.6"/>
			</defs>
			<clipPath id="SVGID_00000159456611811730891430000006380183857265846194_">
				<use xlink:href="#SVGID_00000126296910064050818770000018150277340697819296_"  style="overflow:visible;"/>
			</clipPath>
			
				<rect x="49.2" y="90.9" style="clip-path:url(#SVGID_00000159456611811730891430000006380183857265846194_);fill:#1A1A1A;" width="97.3" height="4.7"/>
		</g>
	</g>
	<g>
		<g>
			<defs>
				<rect id="SVGID_00000062892666378125952360000002404044140781107338_" width="195.6" height="280.6"/>
			</defs>
			<clipPath id="SVGID_00000052798137678070141640000001812290870002552723_">
				<use xlink:href="#SVGID_00000062892666378125952360000002404044140781107338_"  style="overflow:visible;"/>
			</clipPath>
			<path style="clip-path:url(#SVGID_00000052798137678070141640000001812290870002552723_);fill:#1A1A1A;" d="M46.8,58.5v52.7h4.7
				v-48h92.6v48h4.7V58.5H46.8z"/>
		</g>
	</g>
	<g>
		<g>
			<defs>
				<rect id="SVGID_00000082357091213253557640000000124083611123985338_" width="195.6" height="280.6"/>
			</defs>
			<clipPath id="SVGID_00000111174317265880782120000005495257630143044750_">
				<use xlink:href="#SVGID_00000082357091213253557640000000124083611123985338_"  style="overflow:visible;"/>
			</clipPath>
			<path style="clip-path:url(#SVGID_00000111174317265880782120000005495257630143044750_);fill:#FFFFFF;" d="M58,20.3
				c4.2,0,7.5,3.3,7.5,7.5l0,0v15.1c0,4.2-3.4,7.5-7.5,7.5s-7.5-3.4-7.5-7.5l0,0V27.8C50.5,23.7,53.9,20.3,58,20.3L58,20.3z"/>
		</g>
	</g>
	<g>
		<g>
			<defs>
				<rect id="SVGID_00000034770295704540861460000001333692342558461352_" width="195.6" height="280.6"/>
			</defs>
			<clipPath id="SVGID_00000038410278919889259400000007643170868587317927_">
				<use xlink:href="#SVGID_00000034770295704540861460000001333692342558461352_"  style="overflow:visible;"/>
			</clipPath>
			<path style="clip-path:url(#SVGID_00000038410278919889259400000007643170868587317927_);fill:#1A1A1A;" d="M48.2,33.7v9.2
				c0,5.5,4.4,9.9,9.9,9.9s9.9-4.4,9.9-9.9l0,0v-9.2h-4.7v9.2c0,2.9-2.3,5.2-5.2,5.2s-5.2-2.3-5.2-5.2l0,0v-9.2H48.2z"/>
		</g>
	</g>
	<g>
		<g>
			<defs>
				<rect id="SVGID_00000181787839335561624470000003676602179950526397_" width="195.6" height="280.6"/>
			</defs>
			<clipPath id="SVGID_00000182522933009458461970000016364410355260301223_">
				<use xlink:href="#SVGID_00000181787839335561624470000003676602179950526397_"  style="overflow:visible;"/>
			</clipPath>
			<path style="clip-path:url(#SVGID_00000182522933009458461970000016364410355260301223_);fill:#FFFFFF;" d="M137.5,20.3
				c4.2,0,7.5,3.3,7.5,7.5l0,0v15.1c0,4.2-3.4,7.5-7.5,7.5c-4.2,0-7.5-3.4-7.5-7.5l0,0V27.8C130,23.7,133.3,20.3,137.5,20.3
				L137.5,20.3L137.5,20.3z"/>
		</g>
	</g>
	<g>
		<g>
			<defs>
				<rect id="SVGID_00000014595705818617924640000008362600739849729423_" width="195.6" height="280.6"/>
			</defs>
			<clipPath id="SVGID_00000168838616642993273320000001409811073174938008_">
				<use xlink:href="#SVGID_00000014595705818617924640000008362600739849729423_"  style="overflow:visible;"/>
			</clipPath>
			<path style="clip-path:url(#SVGID_00000168838616642993273320000001409811073174938008_);fill:#1A1A1A;" d="M127.6,33.7v9.2
				c0,5.5,4.4,9.9,9.9,9.9s9.9-4.4,9.9-9.9v-9.2h-4.7v9.2c0,2.9-2.3,5.2-5.2,5.2s-5.2-2.3-5.2-5.2l0,0v-9.2H127.6z"/>
		</g>
	</g>
	<g>
		<g>
			<defs>
				<rect id="SVGID_00000180349618969542785610000002602356613838958732_" width="195.6" height="280.6"/>
			</defs>
			<clipPath id="SVGID_00000139273000276164228440000012025040307441386646_">
				<use xlink:href="#SVGID_00000180349618969542785610000002602356613838958732_"  style="overflow:visible;"/>
			</clipPath>
			<path style="clip-path:url(#SVGID_00000139273000276164228440000012025040307441386646_);fill:#1A1A1A;" d="M58,17.9
				c-5.5,0-9.9,4.4-9.9,9.9V37h4.7v-9.2c0-2.9,2.3-5.2,5.2-5.2s5.2,2.3,5.2,5.2l0,0V37H68v-9.2C68,22.4,63.6,17.9,58,17.9L58,17.9z"
				/>
		</g>
	</g>
	<g>
		<g>
			<defs>
				<rect id="SVGID_00000134961633936973363660000014412079489228868743_" width="195.6" height="280.6"/>
			</defs>
			<clipPath id="SVGID_00000127733516924404850980000003507696174602542265_">
				<use xlink:href="#SVGID_00000134961633936973363660000014412079489228868743_"  style="overflow:visible;"/>
			</clipPath>
			<path style="clip-path:url(#SVGID_00000127733516924404850980000003507696174602542265_);fill:#1A1A1A;" d="M137.5,17.9
				c-5.5,0-9.9,4.4-9.9,9.9V37h4.7v-9.2c0-2.9,2.3-5.2,5.2-5.2s5.2,2.3,5.2,5.2l0,0V37h4.7v-9.2C147.4,22.4,143,18,137.5,17.9z"/>
		</g>
	</g>
	<g>
		<g>
			<defs>
				<rect id="SVGID_00000114042243873933514850000009539757710361406378_" width="195.6" height="280.6"/>
			</defs>
			<clipPath id="SVGID_00000178927526693154790540000002697924414231800226_">
				<use xlink:href="#SVGID_00000114042243873933514850000009539757710361406378_"  style="overflow:visible;"/>
			</clipPath>
			<path style="clip-path:url(#SVGID_00000178927526693154790540000002697924414231800226_);fill:#EB5A53;" d="M150.5,0h29h16v16
				c0,7,0,14,0,21c-10.2,12.4-28.6,14.2-41,4S140.3,12.4,150.5,0z"/>
		</g>
	</g>
</g>
<g class="st1">
	<path class="st28" d="M168.3,15.9v10.3h1.1V29h-1.1v2.8h-3.9V29h-4.7v-2.7l3.4-10.3H168.3z M164.3,26.3v-6.7l-1.7,6.7H164.3z"/>
</g>
<g class="st1">
	<path class="st28" d="M176.8,15.9v3.4l-2.5,12.4h-3.9l2.8-13h-3.9v-2.8H176.8z"/>
</g>
</svg>
