<?xml version="1.0" encoding="utf-8"?>
<!-- Generator: Adobe Illustrator 26.0.1, SVG Export Plug-In . SVG Version: 6.00 Build 0)  -->
<svg version="1.1" id="Слой_1" xmlns="http://www.w3.org/2000/svg" xmlns:xlink="http://www.w3.org/1999/xlink" x="0px" y="0px"
	 viewBox="0 0 195.6 280.6" style="enable-background:new 0 0 195.6 280.6;" xml:space="preserve">
<style type="text/css">
	.st0{clip-path:url(#SVGID_00000070816710419509077290000013296408594426477742_);fill:#FFFFFF;}
	.st1{enable-background:new    ;}
	.st2{fill:#1A1A1A;}
	.st3{clip-path:url(#SVGID_00000026149585180976134540000004162520943928363157_);fill:#1A1A1A;}
	.st4{clip-path:url(#SVGID_00000003824792632550568960000014836525374203449742_);fill:#1A1A1A;}
	.st5{clip-path:url(#SVGID_00000158030308334750630360000005599740077179060667_);fill:#1A1A1A;}
	.st6{clip-path:url(#SVGID_00000090281779005146646440000017260678288156896930_);fill:#1A1A1A;}
	.st7{clip-path:url(#SVGID_00000125571211541930377430000002249968113613290933_);fill:#1A1A1A;}
	.st8{clip-path:url(#SVGID_00000086693795642514210070000003032030325467441062_);fill:#1A1A1A;}
	.st9{clip-path:url(#SVGID_00000140696218127139009280000004925779621779949467_);fill:#DBE492;}
	.st10{clip-path:url(#SVGID_00000003065090236237618060000007030739340562409907_);fill:#FFFFFF;}
	.st11{clip-path:url(#SVGID_00000098212961464717079960000015682079084594890884_);fill:#FFFFFF;}
	.st12{clip-path:url(#SVGID_00000157284390914830158490000008355622715599669394_);fill:#EB5A53;}
	.st13{clip-path:url(#SVGID_00000093859715598229308610000002793839262863926969_);fill:#1A1A1A;}
	.st14{clip-path:url(#SVGID_00000035492567971567325070000009231721731774505125_);fill:#1A1A1A;}
	.st15{clip-path:url(#SVGID_00000081643872541704486350000016462040131211644315_);fill:#1A1A1A;}
	.st16{clip-path:url(#SVGID_00000119078307539484607050000009083892205408808586_);fill:#1A1A1A;}
	.st17{clip-path:url(#SVGID_00000123426111579591524400000016253424300710604449_);fill:#1A1A1A;}
	.st18{clip-path:url(#SVGID_00000101098081022226180370000003567055815920626869_);fill:#1A1A1A;}
	.st19{clip-path:url(#SVGID_00000160177112090283905990000010744900391867011741_);fill:#1A1A1A;}
	.st20{clip-path:url(#SVGID_00000071550616262297453710000006470146153792800958_);fill:#1A1A1A;}
	.st21{clip-path:url(#SVGID_00000104682461688346414910000008095486941783223723_);fill:#FFFFFF;}
	.st22{clip-path:url(#SVGID_00000121968751843182373200000010795142699568403079_);fill:#1A1A1A;}
	.st23{clip-path:url(#SVGID_00000080196546828274595170000006745897031317464458_);fill:#FFFFFF;}
	.st24{clip-path:url(#SVGID_00000095324867431404344490000017175475896022765754_);fill:#1A1A1A;}
	.st25{clip-path:url(#SVGID_00000130614071230868927820000014435828220637333399_);fill:#1A1A1A;}
	.st26{clip-path:url(#SVGID_00000140709470178923595490000000939108832884099748_);fill:#1A1A1A;}
	.st27{clip-path:url(#SVGID_00000042707986177425733340000015387313149146021761_);fill:#EB5A53;}
	.st28{fill:#FFFFFF;}
</style>
<g>
	<g>
		<g>
			<defs>
				<rect id="SVGID_1_" width="195.6" height="280.6"/>
			</defs>
			<clipPath id="SVGID_00000010301783939269344780000003535188321307181965_">
				<use xlink:href="#SVGID_1_"  style="overflow:visible;"/>
			</clipPath>
			
				<rect x="-275.4" y="-4.7" style="clip-path:url(#SVGID_00000010301783939269344780000003535188321307181965_);fill:#FFFFFF;" width="482.6" height="294.6"/>
		</g>
	</g>
	<g class="st1">
		<path class="st2" d="M64.6,198.2H72c2.3,0,4.1,0.2,5.3,0.5s2.2,1.1,2.9,2.2s1.1,2.9,1.1,5.3c0,1.7-0.3,2.8-0.8,3.5
			s-1.5,1.2-3.1,1.5c1.7,0.4,2.9,1,3.5,1.9s0.9,2.3,0.9,4.1v2.6c0,1.9-0.2,3.3-0.7,4.3c-0.4,0.9-1.1,1.6-2.1,1.9s-2.9,0.5-5.9,0.5
			h-8.6L64.6,198.2L64.6,198.2z M72,203v6.3c0.3,0,0.6,0,0.7,0c0.7,0,1.2-0.2,1.4-0.5s0.3-1.4,0.3-3.1c0-0.9-0.1-1.5-0.2-1.9
			s-0.4-0.6-0.6-0.7S72.8,203,72,203z M72,213.8v8c1,0,1.7-0.2,2-0.5s0.4-1,0.4-2.2v-2.7c0-1.2-0.1-2-0.4-2.2S73.1,213.8,72,213.8z"
			/>
		<path class="st2" d="M100.3,211.5v5.7c0,2.1-0.1,3.6-0.3,4.6s-0.7,1.9-1.4,2.7s-1.6,1.5-2.7,1.9s-2.3,0.6-3.7,0.6
			c-1.6,0-2.9-0.2-4-0.5s-1.9-0.9-2.5-1.6s-1-1.5-1.3-2.5s-0.4-2.5-0.4-4.5v-6c0-2.2,0.2-3.9,0.7-5.1s1.3-2.2,2.5-2.9
			s2.8-1.1,4.7-1.1c1.6,0,3,0.2,4.1,0.7s2,1.1,2.6,1.9s1,1.5,1.3,2.4S100.3,209.8,100.3,211.5z M93.2,209.7c0-1.2-0.1-1.9-0.2-2.3
			s-0.4-0.5-0.8-0.5s-0.7,0.2-0.8,0.5s-0.2,1.1-0.2,2.3v10.5c0,1.1,0.1,1.8,0.2,2.2s0.4,0.5,0.8,0.5s0.7-0.2,0.8-0.5s0.2-1,0.2-2
			V209.7z"/>
		<path class="st2" d="M113.7,203.3v5.2l-5.2,13.5h5.2v4.7h-12.1v-4.9L107,208h-4.8v-4.7H113.7z M110.1,197.1v4.6h-4.6v-4.6H110.1z"
			/>
		<path class="st2" d="M131.4,215.4h-9.2v5c0,1.1,0.1,1.7,0.2,2s0.4,0.5,0.9,0.5s0.9-0.2,1.1-0.6s0.3-1.2,0.3-2.3v-3.1h6.7v1.7
			c0,1.4-0.1,2.5-0.3,3.3s-0.6,1.6-1.3,2.5s-1.5,1.5-2.5,2s-2.3,0.7-3.9,0.7c-1.5,0-2.8-0.2-4-0.7s-2-1-2.7-1.8s-1.1-1.6-1.3-2.5
			s-0.4-2.2-0.4-4v-6.8c0-2,0.3-3.6,0.8-4.8s1.5-2.1,2.7-2.7s2.7-0.9,4.3-0.9c2,0,3.6,0.4,4.9,1.1c1.3,0.7,2.2,1.8,2.7,3
			s0.8,3,0.8,5.3v3.1H131.4z M124.3,211.6v-1.7c0-1.2-0.1-2-0.2-2.3s-0.4-0.5-0.8-0.5c-0.5,0-0.8,0.1-0.9,0.4s-0.2,1.1-0.2,2.4v1.7
			L124.3,211.6L124.3,211.6z"/>
	</g>
	<g class="st1">
		<path class="st2" d="M32.9,234.2v28.5h-6.5l-3.8-12.9v12.9h-6.2v-28.5h6.2l4.1,12.8v-12.8L32.9,234.2L32.9,234.2z"/>
		<path class="st2" d="M42,248.3h-6.7v-1.6c0-1.8,0.2-3.2,0.6-4.2s1.3-1.8,2.5-2.6s2.9-1.1,4.9-1.1c2.4,0,4.2,0.4,5.4,1.3
			s2,1.9,2.2,3.1s0.4,3.8,0.4,7.6v11.7h-6.9v-2.1c-0.4,0.8-1,1.5-1.7,1.9s-1.5,0.6-2.5,0.6c-1.2,0-2.4-0.3-3.4-1s-1.6-2.2-1.6-4.6
			v-1.9c0-1.7,0.3-2.9,0.8-3.6s1.9-1.4,4.1-2.2c2.3-0.9,3.6-1.5,3.7-1.8s0.2-1,0.2-1.9c0-1.2-0.1-2-0.3-2.4s-0.5-0.6-0.9-0.6
			c-0.5,0-0.8,0.2-0.9,0.5s-0.2,1.1-0.2,2.4v2.5H42z M44.3,251.5c-1.1,0.8-1.8,1.5-2,2.1S42,255,42,256c0,1.2,0.1,2,0.2,2.3
			s0.5,0.5,0.9,0.5s0.7-0.1,0.9-0.4s0.2-1,0.2-2.2L44.3,251.5L44.3,251.5z"/>
		<path class="st2" d="M60.9,239.3l-0.3,3.1c1-2.2,2.5-3.4,4.5-3.5v8.2c-1.3,0-2.3,0.2-2.9,0.5s-1,0.8-1.1,1.5s-0.2,2.1-0.2,4.3v9.2
			h-7.1v-23.3H60.9z"/>
		<path class="st2" d="M82.8,247.5v5.7c0,2.1-0.1,3.6-0.3,4.6s-0.7,1.9-1.4,2.7s-1.6,1.5-2.7,1.9s-2.3,0.6-3.7,0.6
			c-1.6,0-2.9-0.2-4-0.5s-1.9-0.9-2.5-1.6s-1-1.5-1.3-2.5s-0.4-2.5-0.4-4.5v-6c0-2.2,0.2-3.9,0.7-5.1s1.3-2.2,2.5-2.9
			s2.8-1.1,4.7-1.1c1.6,0,3,0.2,4.1,0.7s2,1.1,2.6,1.9s1,1.5,1.3,2.4S82.8,245.8,82.8,247.5z M75.7,245.7c0-1.2-0.1-1.9-0.2-2.3
			s-0.4-0.5-0.8-0.5s-0.7,0.2-0.8,0.5s-0.2,1.1-0.2,2.3v10.5c0,1.1,0.1,1.8,0.2,2.2s0.4,0.5,0.8,0.5s0.7-0.2,0.8-0.5s0.2-1,0.2-2
			V245.7z"/>
		<path class="st2" d="M101.3,234.2v28.5h-7.1V261c-0.7,0.7-1.4,1.2-2.1,1.6c-0.8,0.4-1.5,0.5-2.4,0.5c-1.1,0-2.1-0.3-2.9-0.9
			s-1.3-1.3-1.6-2s-0.3-2-0.3-3.7v-10.9c0-1.8,0.1-3.1,0.3-3.8s0.8-1.4,1.6-2s1.8-0.9,2.9-0.9c0.9,0,1.7,0.2,2.4,0.5
			c0.7,0.3,1.4,0.8,2,1.4v-6.6H101.3z M94.2,245.2c0-0.9-0.1-1.4-0.2-1.7s-0.4-0.4-0.9-0.4c-0.4,0-0.7,0.1-0.9,0.4s-0.2,0.9-0.2,1.8
			v11.4c0,0.9,0.1,1.6,0.2,1.9s0.4,0.4,0.8,0.4c0.5,0,0.8-0.2,0.9-0.5s0.2-1.2,0.2-2.5L94.2,245.2L94.2,245.2z"/>
		<path class="st2" d="M114.9,239.3v5.2l-5.2,13.5h5.2v4.7h-12.1v-4.9l5.3-13.8h-4.8v-4.7L114.9,239.3L114.9,239.3z"/>
		<path class="st2" d="M132.5,251.4h-9.2v5c0,1.1,0.1,1.7,0.2,2s0.4,0.5,0.9,0.5s0.9-0.2,1.1-0.6s0.3-1.2,0.3-2.3v-3.1h6.7v1.7
			c0,1.4-0.1,2.5-0.3,3.3s-0.6,1.6-1.3,2.5s-1.5,1.5-2.5,2s-2.3,0.7-3.9,0.7c-1.5,0-2.8-0.2-4-0.7s-2-1-2.7-1.8s-1.1-1.6-1.3-2.5
			s-0.4-2.2-0.4-4v-6.8c0-2,0.3-3.6,0.8-4.8s1.5-2.1,2.7-2.7s2.7-0.9,4.3-0.9c2,0,3.6,0.4,4.9,1.1c1.3,0.7,2.2,1.8,2.7,3
			s0.8,3,0.8,5.3v3.1H132.5z M125.4,247.6v-1.7c0-1.2-0.1-2-0.2-2.3s-0.4-0.5-0.8-0.5c-0.5,0-0.8,0.1-0.9,0.4s-0.2,1.1-0.2,2.4v1.7
			L125.4,247.6L125.4,247.6z"/>
		<path class="st2" d="M142.1,239.3l-0.1,2.1c0.5-0.9,1.1-1.5,1.9-1.9s1.6-0.6,2.6-0.6c1.2,0,2.2,0.3,3,0.9s1.3,1.3,1.5,2.2
			s0.3,2.3,0.3,4.4v16.3h-7.1v-16.2c0-1.6-0.1-2.6-0.2-2.9s-0.4-0.5-0.9-0.5s-0.8,0.2-0.9,0.6s-0.2,1.5-0.2,3.2v15.8h-7.1v-23.3
			L142.1,239.3L142.1,239.3z"/>
		<path class="st2" d="M161,234.2v3.7h-7.3v-3.7H161z M161,239.3v23.3h-7.3v-23.3H161z"/>
		<path class="st2" d="M179.6,251.4h-9.2v5c0,1.1,0.1,1.7,0.2,2s0.4,0.5,0.9,0.5s0.9-0.2,1.1-0.6s0.3-1.2,0.3-2.3v-3.1h6.7v1.7
			c0,1.4-0.1,2.5-0.3,3.3s-0.6,1.6-1.3,2.5s-1.5,1.5-2.5,2s-2.3,0.7-3.9,0.7c-1.5,0-2.8-0.2-4-0.7s-2-1-2.7-1.8s-1.1-1.6-1.3-2.5
			s-0.4-2.2-0.4-4v-6.8c0-2,0.3-3.6,0.8-4.8s1.5-2.1,2.7-2.7s2.7-0.9,4.3-0.9c2,0,3.6,0.4,4.9,1.1s2.2,1.8,2.7,3s0.8,3,0.8,5.3v3.1
			H179.6z M172.5,247.6v-1.7c0-1.2-0.1-2-0.2-2.3s-0.4-0.5-0.8-0.5c-0.5,0-0.8,0.1-0.9,0.4s-0.2,1.1-0.2,2.4v1.7L172.5,247.6
			L172.5,247.6z"/>
	</g>
	<g>
		<g>
			<defs>
				<rect id="SVGID_00000054976471903486628990000001896759621626007971_" width="195.6" height="280.6"/>
			</defs>
			<clipPath id="SVGID_00000047034453625440067150000008916307254755712953_">
				<use xlink:href="#SVGID_00000054976471903486628990000001896759621626007971_"  style="overflow:visible;"/>
			</clipPath>
			<path style="clip-path:url(#SVGID_00000047034453625440067150000008916307254755712953_);fill:#1A1A1A;" d="M41.1,33.7v9.2
				c0,9.4,7.6,17,17,17s17-7.6,17-17l0,0v-9.2H41.1z"/>
		</g>
	</g>
	<g>
		<g>
			<defs>
				<rect id="SVGID_00000052104289357485514500000000470868528501066654_" width="195.6" height="280.6"/>
			</defs>
			<clipPath id="SVGID_00000003790402553386351540000006383144124864956089_">
				<use xlink:href="#SVGID_00000052104289357485514500000000470868528501066654_"  style="overflow:visible;"/>
			</clipPath>
			<path style="clip-path:url(#SVGID_00000003790402553386351540000006383144124864956089_);fill:#1A1A1A;" d="M120.6,33.7v9.2
				c0,9.4,7.6,17,17,17s17-7.6,17-17l0,0v-9.2H120.6z"/>
		</g>
	</g>
	<g>
		<g>
			<defs>
				<rect id="SVGID_00000036932658604823827380000003755788643917262212_" width="195.6" height="280.6"/>
			</defs>
			<clipPath id="SVGID_00000057827764567681775000000012850576616585586818_">
				<use xlink:href="#SVGID_00000036932658604823827380000003755788643917262212_"  style="overflow:visible;"/>
			</clipPath>
			<path style="clip-path:url(#SVGID_00000057827764567681775000000012850576616585586818_);fill:#1A1A1A;" d="M58,10.8
				c-9.4,0.1-16.9,7.6-17,17V37h34v-9.2C74.9,18.5,67.4,10.9,58,10.8L58,10.8z"/>
		</g>
	</g>
	<g>
		<g>
			<defs>
				<rect id="SVGID_00000169550996999545913050000005884514972195051180_" width="195.6" height="280.6"/>
			</defs>
			<clipPath id="SVGID_00000086667901318377076360000016123194884842874522_">
				<use xlink:href="#SVGID_00000169550996999545913050000005884514972195051180_"  style="overflow:visible;"/>
			</clipPath>
			<path style="clip-path:url(#SVGID_00000086667901318377076360000016123194884842874522_);fill:#1A1A1A;" d="M137.5,10.8
				c-9.4,0.1-16.9,7.6-17,17V37h34v-9.2C154.4,18.5,146.9,10.9,137.5,10.8z"/>
		</g>
	</g>
	<g>
		<g>
			<defs>
				<rect id="SVGID_00000152249067818169519090000003833039656752532149_" width="195.6" height="280.6"/>
			</defs>
			<clipPath id="SVGID_00000108296570163899408440000005679900898454049945_">
				<use xlink:href="#SVGID_00000152249067818169519090000003833039656752532149_"  style="overflow:visible;"/>
			</clipPath>
			<path style="clip-path:url(#SVGID_00000108296570163899408440000005679900898454049945_);fill:#1A1A1A;" d="M19.8,107.8v58.6
				c0.1,11.6,9.5,21,21.1,21.1h113.8c11.6-0.1,21-9.5,21.1-21.1v-58.6h-18.9v58.6c0.1,1.1-0.7,2.1-1.8,2.2c-0.2,0-0.3,0-0.5,0H40.9
				c-1.1,0.1-2.1-0.7-2.2-1.8c0-0.2,0-0.3,0-0.5v-58.6H19.8V107.8z"/>
		</g>
	</g>
	<g>
		<g>
			<defs>
				<rect id="SVGID_00000090289353409524072860000001139225884118811784_" width="195.6" height="280.6"/>
			</defs>
			<clipPath id="SVGID_00000016796880626249289400000016599338616791844009_">
				<use xlink:href="#SVGID_00000090289353409524072860000001139225884118811784_"  style="overflow:visible;"/>
			</clipPath>
			<path style="clip-path:url(#SVGID_00000016796880626249289400000016599338616791844009_);fill:#1A1A1A;" d="M40.9,31.5
				c-11.6,0.1-21,9.5-21.1,21.1v58.6h18.9V52.6c-0.1-1.1,0.7-2.1,1.8-2.2c0.2,0,0.3,0,0.5,0h113.8c1.1-0.1,2.1,0.7,2.2,1.8
				c0,0.2,0,0.3,0,0.5v58.6h18.9V52.6c-0.1-11.6-9.5-21-21.1-21.1C154.8,31.5,40.9,31.5,40.9,31.5z"/>
		</g>
	</g>
	<g>
		<g>
			<defs>
				<rect id="SVGID_00000173876770321100674060000007219666653799164841_" width="195.6" height="280.6"/>
			</defs>
			<clipPath id="SVGID_00000012472561128253978350000005534684115666122170_">
				<use xlink:href="#SVGID_00000173876770321100674060000007219666653799164841_"  style="overflow:visible;"/>
			</clipPath>
			<path style="clip-path:url(#SVGID_00000012472561128253978350000005534684115666122170_);fill:#DBE492;" d="M40.9,40.9h113.8
				c6.4,0,11.7,5.2,11.7,11.6c0,0,0,0,0,0.1v113.8c0,6.4-5.2,11.6-11.7,11.6l0,0H40.9c-6.4,0-11.7-5.2-11.7-11.6c0,0,0,0,0-0.1V52.6
				C29.2,46.2,34.4,40.9,40.9,40.9L40.9,40.9z"/>
		</g>
	</g>
	<g>
		<g>
			<defs>
				<rect id="SVGID_00000045587863674622202270000016967221713232014242_" width="195.6" height="280.6"/>
			</defs>
			<clipPath id="SVGID_00000091735755537303406790000011530787305581819839_">
				<use xlink:href="#SVGID_00000045587863674622202270000016967221713232014242_"  style="overflow:visible;"/>
			</clipPath>
			
				<rect x="49.2" y="60.8" style="clip-path:url(#SVGID_00000091735755537303406790000011530787305581819839_);fill:#FFFFFF;" width="97.3" height="32.7"/>
		</g>
	</g>
	<g>
		<g>
			<defs>
				<rect id="SVGID_00000052087808936894862390000010921859399460330917_" width="195.6" height="280.6"/>
			</defs>
			<clipPath id="SVGID_00000183942199483497361010000004796228893308336283_">
				<use xlink:href="#SVGID_00000052087808936894862390000010921859399460330917_"  style="overflow:visible;"/>
			</clipPath>
			
				<rect x="49.2" y="94.4" style="clip-path:url(#SVGID_00000183942199483497361010000004796228893308336283_);fill:#FFFFFF;" width="97.3" height="16.3"/>
		</g>
	</g>
	<g>
		<g>
			<defs>
				<rect id="SVGID_00000143590554599237488790000014415237778214687140_" width="195.6" height="280.6"/>
			</defs>
			<clipPath id="SVGID_00000016785862920420385700000001289955660225737143_">
				<use xlink:href="#SVGID_00000143590554599237488790000014415237778214687140_"  style="overflow:visible;"/>
			</clipPath>
			
				<rect x="49.2" y="110.8" style="clip-path:url(#SVGID_00000016785862920420385700000001289955660225737143_);fill:#EB5A53;" width="97.3" height="47.5"/>
		</g>
	</g>
	<g>
		<g>
			<defs>
				<rect id="SVGID_00000085958123551260159400000004086652964050141624_" width="195.6" height="280.6"/>
			</defs>
			<clipPath id="SVGID_00000128472325720547825260000013855189025610704540_">
				<use xlink:href="#SVGID_00000085958123551260159400000004086652964050141624_"  style="overflow:visible;"/>
			</clipPath>
			<path style="clip-path:url(#SVGID_00000128472325720547825260000013855189025610704540_);fill:#1A1A1A;" d="M26.9,107.8v58.6
				c0,7.7,6.3,14,14,14h113.8c7.7,0,14-6.3,14-14v-58.6H164v58.6c0,5.1-4.1,9.3-9.2,9.3h-0.1H40.9c-5.1,0-9.3-4.1-9.3-9.2v-0.1
				v-58.6C31.6,107.8,26.9,107.8,26.9,107.8z"/>
		</g>
	</g>
	<g>
		<g>
			<defs>
				<rect id="SVGID_00000033341938245154619890000003007720462392656050_" width="195.6" height="280.6"/>
			</defs>
			<clipPath id="SVGID_00000020393967562407574870000010988028045717044380_">
				<use xlink:href="#SVGID_00000033341938245154619890000003007720462392656050_"  style="overflow:visible;"/>
			</clipPath>
			<path style="clip-path:url(#SVGID_00000020393967562407574870000010988028045717044380_);fill:#1A1A1A;" d="M46.8,107.8v52.7h102
				v-52.7h-4.7v48H51.5v-48H46.8z"/>
		</g>
	</g>
	<g>
		<g>
			<defs>
				<rect id="SVGID_00000031918498970137533030000005391730317971565728_" width="195.6" height="280.6"/>
			</defs>
			<clipPath id="SVGID_00000088818742585327442240000010140043207133433479_">
				<use xlink:href="#SVGID_00000031918498970137533030000005391730317971565728_"  style="overflow:visible;"/>
			</clipPath>
			<path style="clip-path:url(#SVGID_00000088818742585327442240000010140043207133433479_);fill:#1A1A1A;" d="M40.9,38.6
				c-7.7,0-14,6.3-14,14v58.6h4.7V52.6c0-5.1,4.1-9.3,9.2-9.3h0.1h113.7c5.1,0,9.3,4,9.3,9.1c0,0.1,0,0.1,0,0.2v58.6h4.7V52.6
				c0-7.7-6.3-14-14-14H40.9z"/>
		</g>
	</g>
	<g>
		<g>
			<defs>
				<rect id="SVGID_00000109745846430516820000000009978001552786510252_" width="195.6" height="280.6"/>
			</defs>
			<clipPath id="SVGID_00000144315561939646034750000014598585737368373667_">
				<use xlink:href="#SVGID_00000109745846430516820000000009978001552786510252_"  style="overflow:visible;"/>
			</clipPath>
			
				<rect x="111.6" y="60.8" style="clip-path:url(#SVGID_00000144315561939646034750000014598585737368373667_);fill:#1A1A1A;" width="4.7" height="97.3"/>
		</g>
	</g>
	<g>
		<g>
			<defs>
				<rect id="SVGID_00000165211280255742346520000015875345120831765149_" width="195.6" height="280.6"/>
			</defs>
			<clipPath id="SVGID_00000036241449426534543050000014785953557140610233_">
				<use xlink:href="#SVGID_00000165211280255742346520000015875345120831765149_"  style="overflow:visible;"/>
			</clipPath>
			
				<rect x="79.2" y="60.8" style="clip-path:url(#SVGID_00000036241449426534543050000014785953557140610233_);fill:#1A1A1A;" width="4.7" height="97.3"/>
		</g>
	</g>
	<g>
		<g>
			<defs>
				<rect id="SVGID_00000136386228381333565100000005533312959629670567_" width="195.6" height="280.6"/>
			</defs>
			<clipPath id="SVGID_00000183957229364385202640000014123414749744433305_">
				<use xlink:href="#SVGID_00000136386228381333565100000005533312959629670567_"  style="overflow:visible;"/>
			</clipPath>
			
				<rect x="49.2" y="123.3" style="clip-path:url(#SVGID_00000183957229364385202640000014123414749744433305_);fill:#1A1A1A;" width="97.3" height="4.7"/>
		</g>
	</g>
	<g>
		<g>
			<defs>
				<rect id="SVGID_00000016761761040339667550000003519946047638739112_" width="195.6" height="280.6"/>
			</defs>
			<clipPath id="SVGID_00000067957300386522260940000003948059717323982222_">
				<use xlink:href="#SVGID_00000016761761040339667550000003519946047638739112_"  style="overflow:visible;"/>
			</clipPath>
			
				<rect x="49.2" y="90.9" style="clip-path:url(#SVGID_00000067957300386522260940000003948059717323982222_);fill:#1A1A1A;" width="97.3" height="4.7"/>
		</g>
	</g>
	<g>
		<g>
			<defs>
				<rect id="SVGID_00000159447530629433119240000003836069685296276141_" width="195.6" height="280.6"/>
			</defs>
			<clipPath id="SVGID_00000158708784909785177110000001751500199625584278_">
				<use xlink:href="#SVGID_00000159447530629433119240000003836069685296276141_"  style="overflow:visible;"/>
			</clipPath>
			<path style="clip-path:url(#SVGID_00000158708784909785177110000001751500199625584278_);fill:#1A1A1A;" d="M46.8,58.5v52.7h4.7
				v-48h92.6v48h4.7V58.5H46.8z"/>
		</g>
	</g>
	<g>
		<g>
			<defs>
				<rect id="SVGID_00000139272991120960786150000005689268506471931018_" width="195.6" height="280.6"/>
			</defs>
			<clipPath id="SVGID_00000146462899652823258500000017287348508146357175_">
				<use xlink:href="#SVGID_00000139272991120960786150000005689268506471931018_"  style="overflow:visible;"/>
			</clipPath>
			<path style="clip-path:url(#SVGID_00000146462899652823258500000017287348508146357175_);fill:#FFFFFF;" d="M58,20.3
				c4.2,0,7.5,3.3,7.5,7.5l0,0v15.1c0,4.2-3.4,7.5-7.5,7.5s-7.5-3.4-7.5-7.5l0,0V27.8C50.5,23.7,53.9,20.3,58,20.3L58,20.3z"/>
		</g>
	</g>
	<g>
		<g>
			<defs>
				<rect id="SVGID_00000088838509006423889690000007795585953933965718_" width="195.6" height="280.6"/>
			</defs>
			<clipPath id="SVGID_00000083088108089284186840000011377659779878410662_">
				<use xlink:href="#SVGID_00000088838509006423889690000007795585953933965718_"  style="overflow:visible;"/>
			</clipPath>
			<path style="clip-path:url(#SVGID_00000083088108089284186840000011377659779878410662_);fill:#1A1A1A;" d="M48.2,33.7v9.2
				c0,5.5,4.4,9.9,9.9,9.9s9.9-4.4,9.9-9.9l0,0v-9.2h-4.7v9.2c0,2.9-2.3,5.2-5.2,5.2s-5.2-2.3-5.2-5.2l0,0v-9.2H48.2z"/>
		</g>
	</g>
	<g>
		<g>
			<defs>
				<rect id="SVGID_00000064326264910924929320000016458980044989183409_" width="195.6" height="280.6"/>
			</defs>
			<clipPath id="SVGID_00000050654736596249812980000013366894943094718877_">
				<use xlink:href="#SVGID_00000064326264910924929320000016458980044989183409_"  style="overflow:visible;"/>
			</clipPath>
			<path style="clip-path:url(#SVGID_00000050654736596249812980000013366894943094718877_);fill:#FFFFFF;" d="M137.5,20.3
				c4.2,0,7.5,3.3,7.5,7.5l0,0v15.1c0,4.2-3.4,7.5-7.5,7.5c-4.2,0-7.5-3.4-7.5-7.5l0,0V27.8C130,23.7,133.3,20.3,137.5,20.3
				L137.5,20.3L137.5,20.3z"/>
		</g>
	</g>
	<g>
		<g>
			<defs>
				<rect id="SVGID_00000108291377741600380160000004442974253683884955_" width="195.6" height="280.6"/>
			</defs>
			<clipPath id="SVGID_00000103265856836746643810000017773329856397420706_">
				<use xlink:href="#SVGID_00000108291377741600380160000004442974253683884955_"  style="overflow:visible;"/>
			</clipPath>
			<path style="clip-path:url(#SVGID_00000103265856836746643810000017773329856397420706_);fill:#1A1A1A;" d="M127.6,33.7v9.2
				c0,5.5,4.4,9.9,9.9,9.9s9.9-4.4,9.9-9.9v-9.2h-4.7v9.2c0,2.9-2.3,5.2-5.2,5.2s-5.2-2.3-5.2-5.2l0,0v-9.2H127.6z"/>
		</g>
	</g>
	<g>
		<g>
			<defs>
				<rect id="SVGID_00000098939023211754738270000004641264929757229495_" width="195.6" height="280.6"/>
			</defs>
			<clipPath id="SVGID_00000155134257820229870120000000846718493245626255_">
				<use xlink:href="#SVGID_00000098939023211754738270000004641264929757229495_"  style="overflow:visible;"/>
			</clipPath>
			<path style="clip-path:url(#SVGID_00000155134257820229870120000000846718493245626255_);fill:#1A1A1A;" d="M58,17.9
				c-5.5,0-9.9,4.4-9.9,9.9V37h4.7v-9.2c0-2.9,2.3-5.2,5.2-5.2s5.2,2.3,5.2,5.2l0,0V37H68v-9.2C68,22.4,63.6,17.9,58,17.9L58,17.9z"
				/>
		</g>
	</g>
	<g>
		<g>
			<defs>
				<rect id="SVGID_00000088844122525317851660000017587730405933744058_" width="195.6" height="280.6"/>
			</defs>
			<clipPath id="SVGID_00000049924591223857799830000016972392596210391184_">
				<use xlink:href="#SVGID_00000088844122525317851660000017587730405933744058_"  style="overflow:visible;"/>
			</clipPath>
			<path style="clip-path:url(#SVGID_00000049924591223857799830000016972392596210391184_);fill:#1A1A1A;" d="M137.5,17.9
				c-5.5,0-9.9,4.4-9.9,9.9V37h4.7v-9.2c0-2.9,2.3-5.2,5.2-5.2s5.2,2.3,5.2,5.2l0,0V37h4.7v-9.2C147.4,22.4,143,18,137.5,17.9z"/>
		</g>
	</g>
	<g>
		<g>
			<defs>
				<rect id="SVGID_00000135677521561022423430000008052717139118092216_" width="195.6" height="280.6"/>
			</defs>
			<clipPath id="SVGID_00000112633917450080319510000002564663408037404076_">
				<use xlink:href="#SVGID_00000135677521561022423430000008052717139118092216_"  style="overflow:visible;"/>
			</clipPath>
			<path style="clip-path:url(#SVGID_00000112633917450080319510000002564663408037404076_);fill:#EB5A53;" d="M44.8,0h-29h-16v16
				c0,7,0,14,0,21c10.3,12.4,28.6,14.1,41,3.8c6.7-5.6,10.6-13.8,10.5-22.5C51.3,11.6,49,5.2,44.8,0z"/>
		</g>
	</g>
</g>
<g class="st1">
	<path class="st28" d="M24.1,15.9v10.3h1.1V29h-1.1v2.8h-3.9V29h-4.7v-2.7l3.4-10.3H24.1z M20.2,26.3v-6.7l-1.7,6.7H20.2z"/>
</g>
<g class="st1">
	<path class="st28" d="M32.7,15.9v3.4l-2.5,12.4h-3.9l2.8-13h-3.9v-2.8H32.7z"/>
</g>
</svg>
