<svg id="Слой_1" data-name="Слой 1" xmlns="http://www.w3.org/2000/svg" viewBox="0 0 195.59 280.63"><defs><style>.cls-1{fill:#f9b04e;}.cls-2{font-size:38px;}.cls-10,.cls-2,.cls-3{fill:#1a1a1a;}.cls-10,.cls-2{font-family:Impact;}.cls-4{fill:#dbe492;}.cls-5{fill:#fff;}.cls-6{fill:#eb5a53;}.cls-7{fill:#ef782b;}.cls-8{fill:#e44716;}.cls-9{fill:#ffe396;}.cls-10{font-size:20px;}</style></defs><rect class="cls-1" x="-15.45" y="-1.13" width="493.56" height="290.47"/><text class="cls-2" transform="translate(38.23 246.92)">Dożynki</text><path class="cls-3" d="M41.06,49v9.22a17,17,0,0,0,34,0V49Zm0,0"/><path class="cls-3" d="M120.55,49v9.22a17,17,0,0,0,34,0V49Zm0,0"/><path class="cls-3" d="M58.05,26.15a17.16,17.16,0,0,0-17,17v9.22H75V43.14a17.16,17.16,0,0,0-17-17Zm0,0"/><path class="cls-3" d="M137.54,26.15a17.16,17.16,0,0,0-17,17v9.22h34V43.14a17.16,17.16,0,0,0-17-17Zm0,0"/><path class="cls-3" d="M19.79,123.11v58.56A21.3,21.3,0,0,0,40.92,202.8H154.67a21.3,21.3,0,0,0,21.13-21.13V123.11H156.89v58.56a2,2,0,0,1-2.22,2.21H40.92a2,2,0,0,1-2.22-2.21V123.11Zm0,0"/><path class="cls-3" d="M40.92,46.78A21.3,21.3,0,0,0,19.79,67.91v58.56H38.7V67.91a2,2,0,0,1,2.22-2.22H154.67a2,2,0,0,1,2.22,2.22v58.56H175.8V67.91a21.3,21.3,0,0,0-21.13-21.13Zm0,0"/><path class="cls-4" d="M40.92,56.24H154.67a11.65,11.65,0,0,1,11.68,11.67V181.67a11.65,11.65,0,0,1-11.68,11.67H40.92a11.65,11.65,0,0,1-11.68-11.67V67.91A11.65,11.65,0,0,1,40.92,56.24Zm0,0"/><rect class="cls-5" x="49.15" y="76.14" width="97.29" height="32.67"/><rect class="cls-6" x="49.15" y="109.74" width="97.29" height="32.67"/><rect class="cls-5" x="49.15" y="140.88" width="97.29" height="32.67"/><path class="cls-3" d="M26.88,123.11v58.56a14.06,14.06,0,0,0,14,14H154.67a14.06,14.06,0,0,0,14-14V123.11H164v58.56a9.23,9.23,0,0,1-9.31,9.3H40.92a9.23,9.23,0,0,1-9.31-9.3V123.11Zm0,0"/><path class="cls-3" d="M46.79,123.11V175.8h102V123.11h-4.72v48H51.51v-48Zm0,0"/><path class="cls-3" d="M40.92,53.87a14.06,14.06,0,0,0-14,14v58.56h4.73V67.91a9.24,9.24,0,0,1,9.31-9.31H154.67A9.24,9.24,0,0,1,164,67.91v58.56h4.73V67.91a14.06,14.06,0,0,0-14-14Zm0,0"/><rect class="cls-3" x="111.64" y="76.14" width="4.73" height="97.29"/><rect class="cls-3" x="79.22" y="76.14" width="4.73" height="97.29"/><rect class="cls-3" x="49.15" y="138.64" width="97.29" height="4.73"/><rect class="cls-3" x="49.15" y="106.21" width="97.29" height="4.73"/><path class="cls-3" d="M46.79,73.78v52.69h4.72v-48h92.57v48h4.72V73.78Zm0,0"/><path class="cls-5" d="M58.05,35.61a7.52,7.52,0,0,1,7.54,7.53V58.22a7.54,7.54,0,0,1-15.08,0V43.14a7.52,7.52,0,0,1,7.54-7.53Zm0,0"/><path class="cls-3" d="M48.15,49v9.22a9.9,9.9,0,0,0,19.8,0V49H63.22v9.22a5.17,5.17,0,0,1-10.34,0V49Zm0,0"/><path class="cls-5" d="M137.54,35.61a7.52,7.52,0,0,1,7.54,7.53V58.22a7.54,7.54,0,0,1-15.08,0V43.14a7.52,7.52,0,0,1,7.54-7.53Zm0,0"/><path class="cls-3" d="M127.64,49v9.22a9.9,9.9,0,0,0,19.8,0V49h-4.73v9.22a5.17,5.17,0,0,1-10.34,0V49Zm0,0"/><path class="cls-3" d="M58.05,33.24a9.94,9.94,0,0,0-9.9,9.9v9.22h4.73V43.14a5.17,5.17,0,1,1,10.34,0v9.22H68V43.14a9.93,9.93,0,0,0-9.9-9.9Zm0,0"/><path class="cls-3" d="M137.54,33.24a9.93,9.93,0,0,0-9.9,9.9v9.22h4.73V43.14a5.17,5.17,0,0,1,10.34,0v9.22h4.73V43.14a9.94,9.94,0,0,0-9.9-9.9Zm0,0"/><path class="cls-3" d="M181.85,141.06a3.55,3.55,0,0,0-3.51-.45L167,145.29l-.4-1a3.56,3.56,0,0,0-6.11-.8L154,152l-5.24-9.07a3.55,3.55,0,0,0-6.16,0l-6.12,10.6-.91-.53a3.56,3.56,0,0,0-5.34,3.08v5l-11.63-1.53a3.55,3.55,0,0,0-3.55,5.3l12.49,21.63-1.36,1.76a3.56,3.56,0,0,0,3.29,5.69l13.15-1.73,1.73,13.15a3.56,3.56,0,0,0,6.35,1.7l1.35-1.76,24.12,6.46a3.56,3.56,0,0,0,4.21-4.79l-4.5-10.85,4.84-1.29a3.56,3.56,0,0,0,1.59-6l-.75-.75,8.66-8.65a3.55,3.55,0,0,0-1.6-5.95l-10.11-2.71,6.52-8.5a3.55,3.55,0,0,0-2.35-5.69l-1.05-.14,1.59-12.13a3.56,3.56,0,0,0-1.37-3.3Zm-6.48,8.47-1.26,9.55a3.57,3.57,0,0,0,1.73,3.54l-6.21,8.09a3.55,3.55,0,0,0,1.9,5.6l9.3,2.49L174,185.62a3.55,3.55,0,0,0-.78,3.85l-3.11.83a3.57,3.57,0,0,0-2.37,4.8l3.29,7.93-19.45-5.21a3.35,3.35,0,0,0-1.09-.12l-1.3-9.94a3.56,3.56,0,0,0-4-3.06L135.28,186a3.44,3.44,0,0,0-.4-1l-10.06-17.44,8.5,1.12a3.55,3.55,0,0,0,4-3.52v-3.23a3.54,3.54,0,0,0,3.52-1.75l4.82-8.34,4.82,8.34a3.52,3.52,0,0,0,2.84,1.77,3.57,3.57,0,0,0,3.06-1.38l6.21-8.1a3.55,3.55,0,0,0,3.86.76Zm0,0"/><path class="cls-3" d="M143.81,182.3l-2.19,2.57-14.71,17.22.19,1.55a7.48,7.48,0,0,0,8.5,6.52l1.54-.22,14.74-21.44Zm0,0"/><path class="cls-7" d="M144.32,187.18l-13.69,16a3.95,3.95,0,0,0,4.47,3.43L147,189.27Zm0,0"/><path class="cls-3" d="M144.19,186l-.54.64-14,16.33,0,.39a4.87,4.87,0,0,0,1.86,3.26,4.8,4.8,0,0,0,3.62.94l.39-.05,12.64-18.4Zm.26,2.44,1.38,1.06-11.22,16.32a3.06,3.06,0,0,1-1.93-.61,3,3,0,0,1-1.09-1.71Zm0,0"/><path class="cls-7" d="M147.88,204.9l2.8-3.65,26.41,7.08-6-14.59,8.75-2.35-3.26-3.26L187.7,177l-15.25-4.08,9.76-12.73-4.57-.6,2.06-15.66-14.59,6-1.77-4.26-9.76,12.73-7.9-13.68-7.89,13.68-4-2.31v9.06l-15.66-2.06,13.67,23.68-2.8,3.65,16.68-2.2Zm0,0"/><path class="cls-8" d="M187.7,177l-42,11.26,2.2,16.68,2.8-3.65,26.41,7.08-6-14.59,8.75-2.35-3.26-3.26Zm0,0"/><path class="cls-1" d="M179.7,143.89l-14.59,6-1.77-4.26-9.76,12.73-7.9-13.68-7.89,13.68-4-2.31v9.06l-15.66-2.06,13.67,23.68L129,190.42l16.67-2.2Zm0,0"/><path class="cls-9" d="M158.87,191.44a.41.41,0,0,0-.32-.08l-6.66.87,2.32,5.62a.46.46,0,0,0,.58.24.44.44,0,0,0,.24-.58L153.15,193l5.51-.72a.44.44,0,0,0,.21-.8Zm0,0"/><path class="cls-9" d="M139.15,176.3a.54.54,0,0,0-.33-.08.45.45,0,0,0-.38.5l.73,5.51-4.88-.64a.45.45,0,0,0-.5.38.44.44,0,0,0,.38.5l6,.8-.88-6.67a.46.46,0,0,0-.17-.3Zm0,0"/><path class="cls-9" d="M167.35,167.66a.42.42,0,0,0-.37-.07l-6.88,1.84v-7.12a.45.45,0,0,0-.89,0v8.28l8-2.14a.46.46,0,0,0,.31-.55.46.46,0,0,0-.17-.24Zm0,0"/><path class="cls-9" d="M161,176a.43.43,0,0,0-.38-.07l-6.87,1.84v-7.12a.45.45,0,0,0-.89,0v8.28l8-2.14a.46.46,0,0,0,.32-.55A.46.46,0,0,0,161,176Zm0,0"/><path class="cls-9" d="M173.73,159.34a.41.41,0,0,0-.37-.07l-6.87,1.84V154a.45.45,0,0,0-.89,0v8.28l8-2.14a.44.44,0,0,0,.31-.55.37.37,0,0,0-.17-.24Zm0,0"/><path class="cls-9" d="M172.42,175.93a.46.46,0,0,0-.63.08l-5,6.57,7.64,3.16a.44.44,0,0,0,.34-.82l-6.57-2.72,4.33-5.65a.44.44,0,0,0-.08-.62Zm0,0"/><path class="cls-9" d="M162.29,178.64a.45.45,0,0,0-.63.09l-5,6.56,7.64,3.17a.45.45,0,0,0,.58-.24.43.43,0,0,0-.24-.58L158,184.91l4.33-5.64a.46.46,0,0,0-.08-.63Zm0,0"/><path class="cls-9" d="M150.64,159.22a.45.45,0,0,0-.63.08l-4.33,5.64-4.33-5.64a.45.45,0,0,0-.71.54l5,6.56,5-6.56a.44.44,0,0,0-.08-.62Zm0,0"/><path class="cls-9" d="M150.64,169.7a.45.45,0,0,0-.63.09l-4.33,5.64-4.33-5.65a.45.45,0,0,0-.71.55l5,6.56,5-6.56a.46.46,0,0,0-.08-.63Zm0,0"/><path class="cls-3" d="M187.47,176.1l-42,11.26.46,1.72,42-11.26Zm0,0"/><path class="cls-3" d="M177.57,207.58l-31.41-20.11-1,1.5,31.41,20.11Zm0,0"/><path class="cls-3" d="M180.78,142.48l-15.19,6.29-2-4.86-9.89,12.89-8-13.86-8.22,14.24-4.56-2.63v9.58L116.46,162l14.28,24.73L127,191.58l17.93-2.36,2.36,17.92,1.3-1.7,2.44-3.18,27.58,7.39-6.34-15.32,9.26-2.48-3.73-3.72,11.63-11.63L174,172.36l9.9-12.89-5.23-.69Zm-2.16,2.82-2,15,3.93.52-9.64,12.56,15.06,4-10.71,10.71,2.8,2.8-8.24,2.21L175.58,207l-25.25-6.76-1.85,2.41-2-15.42-15.43,2,1.85-2.42L119.8,164.2l14.88,2v-8.53l3.43,2,7.57-13.11L153.47,160l9.64-12.56,1.52,3.67Zm0,0"/><path class="cls-3" d="M146.57,144.72h-1.78v43.5h1.78Zm0,0"/><path class="cls-3" d="M118.73,162.43l-1.2,1.31,27.55,25.14,1.2-1.31Zm0,0"/><line class="cls-7" x1="145.68" y1="188.22" x2="179.7" y2="143.89"/><path class="cls-3" d="M179,143.35l-34,44.33,1.41,1.08,34-44.33Zm0,0"/><path class="cls-3" d="M13.89,22,14,24.46a86.14,86.14,0,0,0,2.49,17.39c2.33,9.28,6.76,20.38,16.76,25.7s21.68,2.8,30.69-.44a86.48,86.48,0,0,0,15.82-7.65l2-1.31,0-2.42a86.62,86.62,0,0,0-2.5-17.39C76.87,29.05,72.44,18,62.44,12.63s-21.68-2.8-30.69.45a86.85,86.85,0,0,0-15.82,7.64Zm8.87,4.72a77.92,77.92,0,0,1,11.93-5.53c8-2.87,17.37-4.31,23.68-.95s10.37,12,12.44,20.18a77.36,77.36,0,0,1,2.07,13A77.21,77.21,0,0,1,61,59c-8,2.88-17.37,4.31-23.69.95S26.9,48,24.83,39.74a78.51,78.51,0,0,1-2.07-13Zm0,0"/><path class="cls-3" d="M57.84,52.44l3.52,2.12L85,68.76l1.82-.53a9.12,9.12,0,0,0,6.13-11.52l-.58-1.8L63.66,41.51Zm0,0"/><path class="cls-7" d="M63.59,50.85l22,13.23A4.79,4.79,0,0,0,88.8,58L65.55,47.17Zm0,0"/><path class="cls-3" d="M62.15,51.24l.88.53,22.4,13.48.46-.13a5.92,5.92,0,0,0,3.53-2.88,5.84,5.84,0,0,0,.41-4.54l-.14-.46L65.07,45.75ZM65,50.45l1-1.87,21.84,10.2a3.62,3.62,0,0,1-2.18,4.09Zm0,0"/><path class="cls-7" d="M60.4,16.45c16.32,8.69,17,39.37,17,39.37s-25.81,16.6-42.13,7.91-17-39.37-17-39.37S44.08,7.77,60.4,16.45Zm0,0"/><path class="cls-1" d="M18.27,24.36s.65,30.69,17,39.37,42.13-7.91,42.13-7.91Zm0,0"/><path class="cls-9" d="M44.58,65.8l.69.83L65.85,49.69l2.57-26.53-1.08-.11L64.81,49.14Zm0,0"/><path class="cls-9" d="M20.92,42.63l.69.84L34.39,32.94,36,16.46l-1.08-.1-1.55,16Zm0,0"/><path class="cls-9" d="M28.35,57.84l.68.84L50.12,41.32l2.63-27.19L51.67,14,49.08,40.77Zm0,0"/><path class="cls-3" d="M17.18,23.78v.61a83.2,83.2,0,0,0,2.4,16.66c2.23,8.89,6.52,19.05,15.14,23.64s19.44,2.47,28.06-.64A83.51,83.51,0,0,0,78,56.73l.51-.33v-.6a83.73,83.73,0,0,0-2.39-16.67c-2.24-8.89-6.53-19-15.15-23.63S41.47,13,32.85,16.13a83.51,83.51,0,0,0-15.16,7.32ZM19.38,25a80.6,80.6,0,0,1,14.21-6.78c8.36-3,18.61-4.86,26.31-.76S71.79,31,74,39.66a79.79,79.79,0,0,1,2.3,15.57A80.09,80.09,0,0,1,62.06,62c-8.37,3-18.61,4.85-26.31.76S23.85,49.15,21.69,40.53A80.2,80.2,0,0,1,19.38,25Zm0,0"/><path class="cls-3" d="M17.32,23.86a1.08,1.08,0,0,0,.44,1.46l59.1,31.46a1.09,1.09,0,0,0,1.55-1.27,1.09,1.09,0,0,0-.53-.64L18.78,23.41a1.07,1.07,0,0,0-.82-.08,1,1,0,0,0-.64.53Zm0,0"/><path class="cls-5" d="M150.64,0l29,0h16l0,16c0,7,0,14,0,21A29.09,29.09,0,0,1,150.64,0Z"/><text class="cls-10" transform="translate(159.7 31.75)">48</text></svg>