<?xml version="1.0" encoding="utf-8"?>
<!-- Generator: Adobe Illustrator 26.0.3, SVG Export Plug-In . SVG Version: 6.00 Build 0)  -->
<svg version="1.1" id="Слой_1" xmlns="http://www.w3.org/2000/svg" xmlns:xlink="http://www.w3.org/1999/xlink" x="0px" y="0px"
	 viewBox="0 0 195.6 280.6" style="enable-background:new 0 0 195.6 280.6;" xml:space="preserve">
<style type="text/css">
	.st0{clip-path:url(#SVGID_00000102527201940575967980000011448384385681758597_);fill:#F9B04E;}
	.st1{clip-path:url(#SVGID_00000102527201940575967980000011448384385681758597_);enable-background:new    ;}
	.st2{fill:#1A1A1A;}
	.st3{font-family:'Impact';}
	.st4{font-size:38px;}
	.st5{clip-path:url(#SVGID_00000102527201940575967980000011448384385681758597_);fill:#1A1A1A;}
	.st6{clip-path:url(#SVGID_00000102527201940575967980000011448384385681758597_);fill:#DBE492;}
	.st7{clip-path:url(#SVGID_00000102527201940575967980000011448384385681758597_);fill:#FFFFFF;}
	.st8{clip-path:url(#SVGID_00000102527201940575967980000011448384385681758597_);fill:#EB5A53;}
	.st9{clip-path:url(#SVGID_00000102527201940575967980000011448384385681758597_);fill:#EF782B;}
	.st10{clip-path:url(#SVGID_00000102527201940575967980000011448384385681758597_);fill:#E44716;}
	.st11{clip-path:url(#SVGID_00000102527201940575967980000011448384385681758597_);fill:#FFE396;}
	.st12{clip-path:url(#SVGID_00000102527201940575967980000011448384385681758597_);fill:none;}
	.st13{font-size:20px;}
</style>
<g>
	<defs>
		<rect id="SVGID_1_" x="0" y="0" width="195.6" height="280.6"/>
	</defs>
	<clipPath id="SVGID_00000132058935828531439270000000094553961565981321_">
		<use xlink:href="#SVGID_1_"  style="overflow:visible;"/>
	</clipPath>
	
		<rect x="-282.6" y="-1.1" style="clip-path:url(#SVGID_00000132058935828531439270000000094553961565981321_);fill:#F9B04E;" width="493.6" height="290.5"/>
	<g style="clip-path:url(#SVGID_00000132058935828531439270000000094553961565981321_);enable-background:new    ;">
		<text transform="matrix(1 0 0 1 39.45 246.92)" class="st2 st3 st4">Dożynki</text>
	</g>
	<path style="clip-path:url(#SVGID_00000132058935828531439270000000094553961565981321_);fill:#1A1A1A;" d="M42.3,49v9.2
		c0,9.4,7.6,17,17,17s17-7.6,17-17V49H42.3z"/>
	<path style="clip-path:url(#SVGID_00000132058935828531439270000000094553961565981321_);fill:#1A1A1A;" d="M121.8,49v9.2
		c0,9.4,7.6,17,17,17c9.4,0,17-7.6,17-17V49H121.8z"/>
	<path style="clip-path:url(#SVGID_00000132058935828531439270000000094553961565981321_);fill:#1A1A1A;" d="M59.3,26.1
		c-9.4,0.1-16.9,7.6-17,17v9.2h34v-9.2C76.2,33.8,68.6,26.2,59.3,26.1L59.3,26.1z"/>
	<path style="clip-path:url(#SVGID_00000132058935828531439270000000094553961565981321_);fill:#1A1A1A;" d="M138.8,26.1
		c-9.4,0.1-16.9,7.6-17,17v9.2h34v-9.2C155.7,33.8,148.1,26.2,138.8,26.1L138.8,26.1z"/>
	<path style="clip-path:url(#SVGID_00000132058935828531439270000000094553961565981321_);fill:#1A1A1A;" d="M21,123.1v58.6
		c0.1,11.6,9.5,21,21.1,21.1h113.8c11.6-0.1,21-9.5,21.1-21.1v-58.6h-18.9v58.6c0.1,1.1-0.7,2.1-1.8,2.2c-0.2,0-0.3,0-0.5,0H42.1
		c-1.1,0.1-2.1-0.7-2.2-1.8c0-0.2,0-0.3,0-0.5v-58.6H21z"/>
	<path style="clip-path:url(#SVGID_00000132058935828531439270000000094553961565981321_);fill:#1A1A1A;" d="M42.1,46.8
		C30.5,46.9,21.1,56.3,21,67.9v58.6h18.9V67.9c-0.1-1.1,0.7-2.1,1.8-2.2c0.2,0,0.3,0,0.5,0h113.8c1.1-0.1,2.1,0.7,2.2,1.8
		c0,0.2,0,0.3,0,0.5v58.6H177V67.9c-0.1-11.6-9.5-21-21.1-21.1L42.1,46.8z"/>
	<path style="clip-path:url(#SVGID_00000132058935828531439270000000094553961565981321_);fill:#DBE492;" d="M42.1,56.2h113.8
		c6.4,0,11.7,5.2,11.7,11.6c0,0,0,0,0,0.1v113.8c0,6.4-5.2,11.7-11.6,11.7c0,0,0,0-0.1,0H42.1c-6.4,0-11.7-5.2-11.7-11.6
		c0,0,0,0,0-0.1V67.9C30.4,61.5,35.7,56.3,42.1,56.2C42.1,56.2,42.1,56.2,42.1,56.2z"/>
	
		<rect x="50.4" y="76.1" style="clip-path:url(#SVGID_00000132058935828531439270000000094553961565981321_);fill:#FFFFFF;" width="97.3" height="46.1"/>
	
		<rect x="50.4" y="121.9" style="clip-path:url(#SVGID_00000132058935828531439270000000094553961565981321_);fill:#EB5A53;" width="97.3" height="20.6"/>
	
		<rect x="50.4" y="140.9" style="clip-path:url(#SVGID_00000132058935828531439270000000094553961565981321_);fill:#EB5A53;" width="97.3" height="32.7"/>
	<path style="clip-path:url(#SVGID_00000132058935828531439270000000094553961565981321_);fill:#1A1A1A;" d="M28.1,123.1v58.6
		c0,7.7,6.3,14,14,14h113.8c7.7,0,14-6.3,14-14v-58.6h-4.7v58.6c0,5.1-4.1,9.3-9.2,9.3c-0.1,0-0.1,0-0.2,0H42.1
		c-5.1,0-9.3-4.1-9.3-9.1c0-0.1,0-0.1,0-0.2v-58.6H28.1z"/>
	<path style="clip-path:url(#SVGID_00000132058935828531439270000000094553961565981321_);fill:#1A1A1A;" d="M48,123.1v52.7h102
		v-52.7h-4.7v48H52.7v-48H48z"/>
	<path style="clip-path:url(#SVGID_00000132058935828531439270000000094553961565981321_);fill:#1A1A1A;" d="M42.1,53.9
		c-7.7,0-14,6.3-14,14v58.6h4.7V67.9c0-5.1,4.1-9.3,9.2-9.3c0,0,0.1,0,0.1,0h113.7c5.1,0,9.3,4.1,9.3,9.2c0,0,0,0.1,0,0.1v58.6h4.7
		V67.9c0-7.7-6.3-14-14-14L42.1,53.9z"/>
	
		<rect x="112.9" y="76.1" style="clip-path:url(#SVGID_00000132058935828531439270000000094553961565981321_);fill:#1A1A1A;" width="4.7" height="97.3"/>
	
		<rect x="80.4" y="76.1" style="clip-path:url(#SVGID_00000132058935828531439270000000094553961565981321_);fill:#1A1A1A;" width="4.7" height="97.3"/>
	
		<rect x="50.4" y="138.6" style="clip-path:url(#SVGID_00000132058935828531439270000000094553961565981321_);fill:#1A1A1A;" width="97.3" height="4.7"/>
	
		<rect x="50.4" y="106.2" style="clip-path:url(#SVGID_00000132058935828531439270000000094553961565981321_);fill:#1A1A1A;" width="97.3" height="4.7"/>
	<path style="clip-path:url(#SVGID_00000132058935828531439270000000094553961565981321_);fill:#1A1A1A;" d="M48,73.8v52.7h4.7v-48
		h92.6v48h4.7V73.8H48z"/>
	<path style="clip-path:url(#SVGID_00000132058935828531439270000000094553961565981321_);fill:#FFFFFF;" d="M59.3,35.6
		c4.2,0,7.5,3.3,7.5,7.5c0,0,0,0,0,0v15.1c0,4.2-3.4,7.5-7.5,7.5s-7.5-3.4-7.5-7.5V43.1C51.7,39,55.1,35.6,59.3,35.6
		C59.2,35.6,59.3,35.6,59.3,35.6z"/>
	<path style="clip-path:url(#SVGID_00000132058935828531439270000000094553961565981321_);fill:#1A1A1A;" d="M49.4,49v9.2
		c0,5.5,4.4,9.9,9.9,9.9s9.9-4.4,9.9-9.9c0,0,0,0,0,0V49h-4.7v9.2c0,2.9-2.3,5.2-5.2,5.2c-2.9,0-5.2-2.3-5.2-5.2c0,0,0,0,0,0V49
		H49.4z"/>
	<path style="clip-path:url(#SVGID_00000132058935828531439270000000094553961565981321_);fill:#FFFFFF;" d="M138.8,35.6
		c4.2,0,7.5,3.3,7.5,7.5c0,0,0,0,0,0v15.1c0,4.2-3.4,7.5-7.5,7.5c-4.2,0-7.5-3.4-7.5-7.5V43.1C131.2,39,134.6,35.6,138.8,35.6
		C138.7,35.6,138.7,35.6,138.8,35.6L138.8,35.6z"/>
	<path style="clip-path:url(#SVGID_00000132058935828531439270000000094553961565981321_);fill:#1A1A1A;" d="M128.9,49v9.2
		c0,5.5,4.4,9.9,9.9,9.9c5.5,0,9.9-4.4,9.9-9.9V49h-4.7v9.2c-0.1,2.9-2.5,5.1-5.4,4.9c-2.7-0.1-4.8-2.3-4.9-4.9V49H128.9z"/>
	<path style="clip-path:url(#SVGID_00000132058935828531439270000000094553961565981321_);fill:#1A1A1A;" d="M59.3,33.2
		c-5.5,0-9.9,4.4-9.9,9.9v9.2h4.7v-9.2c0-2.9,2.3-5.2,5.2-5.2s5.2,2.3,5.2,5.2v9.2h4.7v-9.2C69.2,37.7,64.7,33.3,59.3,33.2z"/>
	<path style="clip-path:url(#SVGID_00000132058935828531439270000000094553961565981321_);fill:#1A1A1A;" d="M138.8,33.2
		c-5.5,0-9.9,4.4-9.9,9.9v9.2h4.7v-9.2c0.1-2.9,2.5-5.1,5.4-4.9c2.7,0.1,4.8,2.3,4.9,4.9v9.2h4.7v-9.2
		C148.6,37.7,144.2,33.3,138.8,33.2L138.8,33.2z"/>
	<path style="clip-path:url(#SVGID_00000132058935828531439270000000094553961565981321_);fill:#1A1A1A;" d="M183.1,141.1
		c-1-0.8-2.3-0.9-3.5-0.4l-11.3,4.7l-0.4-1c-0.8-1.8-2.8-2.7-4.7-1.9c-0.6,0.2-1.1,0.6-1.5,1.1l-6.5,8.5l-5.2-9
		c-1-1.7-3.1-2.3-4.8-1.3c-0.5,0.3-1,0.8-1.3,1.3l-6.1,10.6l-0.9-0.5c-1.7-1-3.9-0.4-4.9,1.3c-0.3,0.5-0.5,1.1-0.5,1.8v5l-11.6-1.5
		c-1.9-0.3-3.7,1.1-4,3c-0.1,0.8,0.1,1.6,0.4,2.3l12.5,21.6l-1.4,1.8c-1.2,1.6-0.9,3.8,0.7,5c0.7,0.6,1.7,0.8,2.6,0.7l13.1-1.7
		l1.7,13.1c0.3,1.9,2.1,3.3,4,3.1c0.9-0.1,1.8-0.6,2.4-1.4l1.4-1.8l24.1,6.5c1.9,0.5,3.8-0.7,4.3-2.6c0.2-0.7,0.1-1.5-0.1-2.2
		l-4.5-10.9l4.8-1.3c1.9-0.5,3-2.4,2.6-4.3c-0.2-0.6-0.5-1.2-1-1.7l-0.8-0.8l8.7-8.6c0.9-0.9,1.2-2.2,0.9-3.4
		c-0.3-1.2-1.3-2.2-2.5-2.5l-10.1-2.7l6.5-8.5c1.2-1.6,0.9-3.8-0.6-5c-0.5-0.4-1.1-0.6-1.7-0.7l-1.1-0.1l1.6-12.1
		C184.6,143.1,184.1,141.8,183.1,141.1L183.1,141.1z M176.6,149.5l-1.3,9.6c-0.2,1.4,0.5,2.8,1.7,3.5l-6.2,8.1
		c-1.2,1.6-0.9,3.8,0.6,5c0.4,0.3,0.8,0.5,1.3,0.6l9.3,2.5l-6.8,6.8c-1,1-1.3,2.5-0.8,3.9l-3.1,0.8c-1.9,0.5-3,2.5-2.5,4.4
		c0,0.1,0.1,0.3,0.1,0.4l3.3,7.9l-19.4-5.2c-0.4-0.1-0.7-0.1-1.1-0.1l-1.3-9.9c-0.3-1.9-2-3.3-4-3.1c0,0,0,0,0,0l-9.9,1.3
		c-0.1-0.4-0.2-0.7-0.4-1L126,167.6l8.5,1.1c1.9,0.2,3.7-1.1,4-3.1c0-0.1,0-0.3,0-0.4v-3.2c1.4,0.2,2.8-0.5,3.5-1.8l4.8-8.3l4.8,8.3
		c0.6,1,1.7,1.7,2.8,1.8c1.2,0.1,2.3-0.4,3.1-1.4l6.2-8.1c1,1,2.5,1.3,3.9,0.8L176.6,149.5z"/>
	<path style="clip-path:url(#SVGID_00000132058935828531439270000000094553961565981321_);fill:#1A1A1A;" d="M145,182.3l-2.2,2.6
		l-14.7,17.2l0.2,1.6c0.5,4.1,4.2,7,8.3,6.5c0.1,0,0.1,0,0.2,0l1.5-0.2l14.8-21.4L145,182.3z"/>
	<path style="clip-path:url(#SVGID_00000132058935828531439270000000094553961565981321_);fill:#EF782B;" d="M145.5,187.2l-13.7,16
		c0.1,1,0.7,2,1.5,2.6c0.8,0.6,1.9,0.9,2.9,0.8l11.9-17.4L145.5,187.2z"/>
	<path style="clip-path:url(#SVGID_00000132058935828531439270000000094553961565981321_);fill:#1A1A1A;" d="M145.4,186l-0.5,0.6
		l-14,16.3v0.4c0.2,1.3,0.8,2.5,1.9,3.3c1,0.8,2.3,1.1,3.6,0.9l0.4-0.1l12.6-18.4L145.4,186z M145.7,188.4l1.4,1.1l-11.2,16.3
		c-0.7,0-1.4-0.2-1.9-0.6c-0.6-0.4-0.9-1-1.1-1.7L145.7,188.4z"/>
	<path style="clip-path:url(#SVGID_00000132058935828531439270000000094553961565981321_);fill:#EF782B;" d="M149.1,204.9l2.8-3.6
		l26.4,7.1l-6-14.6l8.8-2.4l-3.3-3.3l11.1-11.1l-15.2-4.1l9.8-12.7l-4.6-0.6l2.1-15.7l-14.6,6l-1.8-4.3l-9.8,12.7l-7.9-13.7
		l-7.9,13.7l-4-2.3v9.1l-15.7-2.1l13.7,23.7l-2.8,3.6l16.7-2.2L149.1,204.9z"/>
	<path style="clip-path:url(#SVGID_00000132058935828531439270000000094553961565981321_);fill:#E44716;" d="M188.9,177l-42,11.3
		l2.2,16.7l2.8-3.6l26.4,7.1l-6-14.6l8.8-2.4l-3.3-3.3L188.9,177z"/>
	<path style="clip-path:url(#SVGID_00000132058935828531439270000000094553961565981321_);fill:#F9B04E;" d="M180.9,143.9l-14.6,6
		l-1.8-4.3l-9.8,12.8l-7.9-13.7l-7.9,13.7l-4-2.3v9.1l-15.7-2.1l13.7,23.7l-2.8,3.6l16.7-2.2L180.9,143.9z"/>
	<path style="clip-path:url(#SVGID_00000132058935828531439270000000094553961565981321_);fill:#FFE396;" d="M160.1,191.4
		c-0.1-0.1-0.2-0.1-0.3-0.1l-6.7,0.9l2.3,5.6c0.1,0.2,0.4,0.3,0.6,0.2c0.2-0.1,0.3-0.3,0.2-0.6c0,0,0,0,0,0l-1.9-4.5l5.5-0.7
		c0.2,0,0.4-0.2,0.4-0.5C160.3,191.7,160.2,191.6,160.1,191.4L160.1,191.4z"/>
	<path style="clip-path:url(#SVGID_00000132058935828531439270000000094553961565981321_);fill:#FFE396;" d="M140.4,176.3
		c-0.1-0.1-0.2-0.1-0.3-0.1c-0.2,0-0.4,0.3-0.4,0.5l0.7,5.5l-4.9-0.6c-0.2,0-0.5,0.1-0.5,0.4c0,0.2,0.1,0.5,0.4,0.5c0,0,0,0,0,0
		l6,0.8l-0.9-6.7C140.5,176.5,140.4,176.4,140.4,176.3L140.4,176.3z"/>
	<path style="clip-path:url(#SVGID_00000132058935828531439270000000094553961565981321_);fill:#FFE396;" d="M168.6,167.7
		c-0.1-0.1-0.2-0.1-0.4-0.1l-6.9,1.8v-7.1c0-0.2-0.3-0.4-0.5-0.4c-0.2,0-0.3,0.2-0.4,0.4v8.3l8-2.1c0.2-0.1,0.4-0.3,0.3-0.6
		C168.7,167.8,168.7,167.7,168.6,167.7L168.6,167.7z"/>
	<path style="clip-path:url(#SVGID_00000132058935828531439270000000094553961565981321_);fill:#FFE396;" d="M162.2,176
		c-0.1-0.1-0.2-0.1-0.4-0.1l-6.9,1.8v-7.1c0-0.2-0.3-0.4-0.5-0.4c-0.2,0-0.3,0.2-0.4,0.4v8.3l8-2.1c0.2-0.1,0.4-0.3,0.3-0.5
		c0,0,0,0,0,0C162.3,176.1,162.3,176.1,162.2,176L162.2,176z"/>
	<path style="clip-path:url(#SVGID_00000132058935828531439270000000094553961565981321_);fill:#FFE396;" d="M175,159.3
		c-0.1-0.1-0.2-0.1-0.4-0.1l-6.9,1.8V154c0-0.2-0.2-0.4-0.4-0.4s-0.4,0.2-0.4,0.4v8.3l8-2.1c0.2-0.1,0.4-0.3,0.3-0.5c0,0,0,0,0,0
		C175.2,159.5,175.1,159.4,175,159.3L175,159.3z"/>
	<path style="clip-path:url(#SVGID_00000132058935828531439270000000094553961565981321_);fill:#FFE396;" d="M173.6,175.9
		c-0.2-0.1-0.5-0.1-0.6,0.1l-5,6.6l7.6,3.2c0.2,0.1,0.5,0,0.6-0.2c0,0,0,0,0,0c0.1-0.2,0-0.5-0.2-0.6c0,0,0,0,0,0l-6.6-2.7l4.3-5.6
		C173.9,176.4,173.9,176.1,173.6,175.9C173.7,175.9,173.7,175.9,173.6,175.9L173.6,175.9z"/>
	<path style="clip-path:url(#SVGID_00000132058935828531439270000000094553961565981321_);fill:#FFE396;" d="M163.5,178.6
		c-0.2-0.1-0.5-0.1-0.6,0.1l0,0l-5,6.6l7.6,3.2c0.2,0.1,0.5,0,0.6-0.2c0.1-0.2,0-0.5-0.2-0.6c0,0,0,0,0,0l-6.6-2.7l4.3-5.6
		C163.8,179.1,163.7,178.8,163.5,178.6L163.5,178.6z"/>
	<path style="clip-path:url(#SVGID_00000132058935828531439270000000094553961565981321_);fill:#FFE396;" d="M151.9,159.2
		c-0.2-0.2-0.5-0.1-0.6,0.1l-4.3,5.6l-4.3-5.6c-0.2-0.2-0.5-0.2-0.6,0c-0.1,0.1-0.2,0.4-0.1,0.5l5,6.6l5-6.6
		C152,159.6,152,159.4,151.9,159.2C151.8,159.2,151.8,159.2,151.9,159.2L151.9,159.2z"/>
	<path style="clip-path:url(#SVGID_00000132058935828531439270000000094553961565981321_);fill:#FFE396;" d="M151.9,169.7
		c-0.2-0.1-0.5-0.1-0.6,0.1l0,0l-4.3,5.6l-4.3-5.6c-0.2-0.2-0.4-0.2-0.6,0c-0.2,0.1-0.2,0.4-0.1,0.6l5,6.6l5-6.6
		C152,170.1,152,169.8,151.9,169.7L151.9,169.7L151.9,169.7z"/>
	<path style="clip-path:url(#SVGID_00000132058935828531439270000000094553961565981321_);fill:#1A1A1A;" d="M188.7,176.1l-42,11.3
		l0.5,1.7l42-11.3L188.7,176.1z"/>
	<path style="clip-path:url(#SVGID_00000132058935828531439270000000094553961565981321_);fill:#1A1A1A;" d="M178.8,207.6
		l-31.4-20.1l-1,1.5l31.4,20.1L178.8,207.6z"/>
	<path style="clip-path:url(#SVGID_00000132058935828531439270000000094553961565981321_);fill:#1A1A1A;" d="M182,142.5l-15.2,6.3
		l-2-4.9l-9.9,12.9l-8-13.9l-8.2,14.2l-4.6-2.6v9.6l-16.4-2.1l14.3,24.7l-3.8,4.9l17.9-2.4l2.4,17.9l1.3-1.7l2.4-3.2l27.6,7.4
		l-6.3-15.3l9.3-2.5l-3.8-3.7l11.6-11.6l-15.5-4.1l9.9-12.9l-5.2-0.7L182,142.5z M179.8,145.3l-2,15l3.9,0.5l-9.6,12.6l15,4
		l-10.7,10.7l2.8,2.8l-8.2,2.2l5.8,13.9l-25.2-6.8l-1.9,2.4l-2-15.4l-15.4,2l1.9-2.4L121,164.2l14.9,2v-8.5l3.4,2l7.6-13.1l7.8,13.4
		l9.6-12.6l1.5,3.7L179.8,145.3z"/>
	<path style="clip-path:url(#SVGID_00000132058935828531439270000000094553961565981321_);fill:#1A1A1A;" d="M147.8,144.7H146v43.5
		h1.8L147.8,144.7z"/>
	<path style="clip-path:url(#SVGID_00000132058935828531439270000000094553961565981321_);fill:#1A1A1A;" d="M120,162.4l-1.2,1.3
		l27.6,25.1l1.2-1.3L120,162.4z"/>
	
		<line style="clip-path:url(#SVGID_00000132058935828531439270000000094553961565981321_);fill:none;" x1="146.9" y1="188.2" x2="180.9" y2="143.9"/>
	<path style="clip-path:url(#SVGID_00000132058935828531439270000000094553961565981321_);fill:#1A1A1A;" d="M180.2,143.4l-34,44.3
		l1.4,1.1l34-44.3L180.2,143.4z"/>
	<path style="clip-path:url(#SVGID_00000132058935828531439270000000094553961565981321_);fill:#1A1A1A;" d="M15.1,22l0.1,2.4
		c0.2,5.9,1.1,11.7,2.5,17.4c2.3,9.3,6.8,20.4,16.8,25.7s21.7,2.8,30.7-0.4c5.5-2,10.8-4.6,15.8-7.7l2-1.3v-2.4
		c-0.2-5.9-1.1-11.7-2.5-17.4C78.1,29,73.7,18,63.7,12.6S42,9.8,33,13.1c-5.5,2-10.8,4.6-15.8,7.6L15.1,22z M24,26.8
		c3.8-2.2,7.8-4,11.9-5.5c8-2.9,17.4-4.3,23.7-1S70,32.2,72,40.5c1.1,4.3,1.7,8.6,2.1,13c-3.8,2.2-7.8,4-11.9,5.5
		c-8,2.9-17.4,4.3-23.7,1S28.1,48,26,39.7C25,35.5,24.3,31.1,24,26.8L24,26.8z"/>
	<path style="clip-path:url(#SVGID_00000132058935828531439270000000094553961565981321_);fill:#1A1A1A;" d="M59.1,52.4l3.5,2.1
		l23.6,14.2l1.8-0.5c4.8-1.4,7.6-6.5,6.2-11.3c0-0.1,0-0.1-0.1-0.2l-0.6-1.8L64.8,41.5L59.1,52.4z"/>
	<path style="clip-path:url(#SVGID_00000132058935828531439270000000094553961565981321_);fill:#EF782B;" d="M64.8,50.8l22,13.2
		c2.5-0.8,4-3.4,3.2-6c0,0,0-0.1,0-0.1L66.8,47.2L64.8,50.8z"/>
	<path style="clip-path:url(#SVGID_00000132058935828531439270000000094553961565981321_);fill:#1A1A1A;" d="M63.4,51.2l0.9,0.5
		l22.4,13.5l0.4-0.1c3.1-0.9,4.9-4.1,4.1-7.2c0-0.1,0-0.1-0.1-0.2L91,57.2L66.3,45.8L63.4,51.2z M66.2,50.5l1-1.9l21.8,10.2
		c0.4,1.7-0.6,3.4-2.2,4.1L66.2,50.5z"/>
	<path style="clip-path:url(#SVGID_00000132058935828531439270000000094553961565981321_);fill:#EF782B;" d="M61.6,16.5
		c16.3,8.7,17,39.4,17,39.4s-25.8,16.6-42.1,7.9s-17-39.4-17-39.4S45.3,7.8,61.6,16.5z"/>
	<path style="clip-path:url(#SVGID_00000132058935828531439270000000094553961565981321_);fill:#F9B04E;" d="M19.5,24.4
		c0,0,0.6,30.7,17,39.4s42.1-7.9,42.1-7.9L19.5,24.4z"/>
	<path style="clip-path:url(#SVGID_00000132058935828531439270000000094553961565981321_);fill:#FFE396;" d="M45.8,65.8l0.7,0.8
		l20.6-16.9l2.6-26.5L68.6,23L66,49.1L45.8,65.8z"/>
	<path style="clip-path:url(#SVGID_00000132058935828531439270000000094553961565981321_);fill:#FFE396;" d="M22.1,42.6l0.7,0.8
		l12.8-10.5l1.6-16.5l-1.1-0.1l-1.5,16L22.1,42.6z"/>
	<path style="clip-path:url(#SVGID_00000132058935828531439270000000094553961565981321_);fill:#FFE396;" d="M29.6,57.8l0.7,0.8
		l21.1-17.4L54,14.1L52.9,14l-2.6,26.8L29.6,57.8z"/>
	<path style="clip-path:url(#SVGID_00000132058935828531439270000000094553961565981321_);fill:#1A1A1A;" d="M18.4,23.8v0.6
		c0.2,5.6,1,11.2,2.4,16.7c2.2,8.9,6.5,19,15.2,23.6s19.4,2.5,28-0.6c5.3-1.9,10.4-4.4,15.2-7.3l0.5-0.3v-0.6
		c-0.2-5.6-1-11.2-2.4-16.7c-2.2-8.9-6.5-19-15.2-23.6S42.7,13,34.1,16.1c-5.3,1.9-10.4,4.4-15.2,7.3L18.4,23.8z M20.6,25
		c4.5-2.7,9.3-5,14.2-6.8c8.4-3,18.6-4.9,26.3-0.8S73,31,75.2,39.7c1.3,5.1,2,10.3,2.3,15.6c-4.5,2.7-9.3,5-14.2,6.8
		c-8.4,3-18.6,4.8-26.3,0.8S25.1,49.2,22.9,40.5C21.6,35.4,20.9,30.2,20.6,25z"/>
	<path style="clip-path:url(#SVGID_00000132058935828531439270000000094553961565981321_);fill:#1A1A1A;" d="M18.5,23.9
		c-0.3,0.5-0.1,1.2,0.5,1.5c0,0,0,0,0,0l59.1,31.5c0.5,0.3,1.2,0.1,1.5-0.4c0,0,0,0,0,0c0.1-0.2,0.2-0.5,0.1-0.8
		c-0.1-0.3-0.3-0.5-0.5-0.6L20,23.4c-0.3-0.1-0.5-0.2-0.8-0.1C18.9,23.4,18.7,23.6,18.5,23.9z"/>
	<path style="clip-path:url(#SVGID_00000132058935828531439270000000094553961565981321_);fill:#FFFFFF;" d="M150.6,0h29h16v16
		c0,7,0,14,0,21c-10.2,12.4-28.6,14.2-41,4S140.4,12.4,150.6,0z"/>
	<g style="clip-path:url(#SVGID_00000132058935828531439270000000094553961565981321_);enable-background:new    ;">
		<text transform="matrix(1 0 0 1 159.7 31.75)" class="st2 st3 st13">48</text>
	</g>
</g>
</svg>
