<svg id="Слой_1" data-name="Слой 1" xmlns="http://www.w3.org/2000/svg" viewBox="0 0 195.59 280.63"><defs><style>.cls-1{fill:#f9b04e;}.cls-2{font-size:38px;}.cls-10,.cls-2,.cls-3{fill:#1a1a1a;}.cls-10,.cls-2{font-family:Impact;}.cls-4{fill:#dbe492;}.cls-5{fill:#fff;}.cls-6{fill:#eb5a53;}.cls-7{fill:#ef782b;}.cls-8{fill:#e44716;}.cls-9{fill:#ffe396;}.cls-10{font-size:20px;}</style></defs><rect class="cls-1" x="-282.56" y="-1.13" width="493.56" height="290.47"/><text class="cls-2" transform="translate(39.45 246.92)">Dożynki</text><path class="cls-3" d="M42.28,49v9.22a17,17,0,1,0,34,0V49Zm0,0"/><path class="cls-3" d="M121.77,49v9.22a17,17,0,0,0,34,0V49Zm0,0"/><path class="cls-3" d="M59.27,26.15a17.16,17.16,0,0,0-17,17v9.22h34V43.14a17.16,17.16,0,0,0-17-17Zm0,0"/><path class="cls-3" d="M138.76,26.15a17.16,17.16,0,0,0-17,17v9.22h34V43.14a17.16,17.16,0,0,0-17-17Zm0,0"/><path class="cls-3" d="M21,123.11v58.56A21.29,21.29,0,0,0,42.14,202.8H155.89A21.3,21.3,0,0,0,177,181.67V123.11H158.11v58.56a2,2,0,0,1-2.22,2.21H42.14a2,2,0,0,1-2.22-2.21V123.11Zm0,0"/><path class="cls-3" d="M42.14,46.78A21.29,21.29,0,0,0,21,67.91v58.56H39.92V67.91a2,2,0,0,1,2.22-2.22H155.89a2,2,0,0,1,2.22,2.22v58.56H177V67.91a21.3,21.3,0,0,0-21.13-21.13Zm0,0"/><path class="cls-4" d="M42.14,56.24H155.89a11.65,11.65,0,0,1,11.68,11.67V181.67a11.65,11.65,0,0,1-11.68,11.67H42.14a11.65,11.65,0,0,1-11.68-11.67V67.91A11.65,11.65,0,0,1,42.14,56.24Zm0,0"/><rect class="cls-5" x="50.37" y="76.14" width="97.29" height="46.13"/><rect class="cls-6" x="50.37" y="121.86" width="97.29" height="20.55"/><rect class="cls-6" x="50.37" y="140.88" width="97.29" height="32.67"/><path class="cls-3" d="M28.1,123.11v58.56a14.06,14.06,0,0,0,14,14H155.89a14.06,14.06,0,0,0,14-14V123.11H165.2v58.56a9.23,9.23,0,0,1-9.31,9.3H42.14a9.23,9.23,0,0,1-9.31-9.3V123.11Zm0,0"/><path class="cls-3" d="M48,123.11V175.8H150V123.11h-4.73v48H52.73v-48Zm0,0"/><path class="cls-3" d="M42.14,53.87a14.06,14.06,0,0,0-14,14v58.56h4.73V67.91a9.24,9.24,0,0,1,9.31-9.31H155.89a9.24,9.24,0,0,1,9.31,9.31v58.56h4.73V67.91a14.06,14.06,0,0,0-14-14Zm0,0"/><rect class="cls-3" x="112.86" y="76.14" width="4.73" height="97.29"/><rect class="cls-3" x="80.44" y="76.14" width="4.73" height="97.29"/><rect class="cls-3" x="50.37" y="138.64" width="97.29" height="4.73"/><rect class="cls-3" x="50.37" y="106.21" width="97.29" height="4.73"/><path class="cls-3" d="M48,73.78v52.69h4.72v-48h92.56v48H150V73.78Zm0,0"/><path class="cls-5" d="M59.27,35.61a7.52,7.52,0,0,1,7.54,7.53V58.22a7.54,7.54,0,1,1-15.08,0V43.14a7.52,7.52,0,0,1,7.54-7.53Zm0,0"/><path class="cls-3" d="M49.37,49v9.22a9.9,9.9,0,1,0,19.8,0V49H64.44v9.22a5.17,5.17,0,1,1-10.34,0V49Zm0,0"/><path class="cls-5" d="M138.76,35.61a7.52,7.52,0,0,1,7.54,7.53V58.22a7.54,7.54,0,0,1-15.08,0V43.14a7.52,7.52,0,0,1,7.54-7.53Zm0,0"/><path class="cls-3" d="M128.86,49v9.22a9.9,9.9,0,0,0,19.8,0V49h-4.73v9.22a5.18,5.18,0,0,1-10.35,0V49Zm0,0"/><path class="cls-3" d="M59.27,33.24a9.94,9.94,0,0,0-9.9,9.9v9.22H54.1V43.14a5.17,5.17,0,1,1,10.34,0v9.22h4.73V43.14a9.93,9.93,0,0,0-9.9-9.9Zm0,0"/><path class="cls-3" d="M138.76,33.24a9.93,9.93,0,0,0-9.9,9.9v9.22h4.72V43.14a5.18,5.18,0,0,1,10.35,0v9.22h4.73V43.14a9.94,9.94,0,0,0-9.9-9.9Zm0,0"/><path class="cls-3" d="M183.07,141.06a3.55,3.55,0,0,0-3.51-.45l-11.31,4.68-.4-1a3.56,3.56,0,0,0-6.11-.8l-6.53,8.5L150,142.94a3.55,3.55,0,0,0-6.16,0l-6.12,10.6-.92-.53a3.56,3.56,0,0,0-5.33,3.08v5l-11.64-1.53a3.55,3.55,0,0,0-3.54,5.3l12.49,21.63-1.36,1.76a3.56,3.56,0,0,0,3.29,5.69l13.15-1.73,1.73,13.15a3.56,3.56,0,0,0,6.35,1.7l1.35-1.76,24.12,6.46A3.56,3.56,0,0,0,181.6,207l-4.5-10.85,4.84-1.29a3.56,3.56,0,0,0,1.59-6l-.75-.75,8.66-8.65a3.61,3.61,0,0,0,.92-3.44,3.57,3.57,0,0,0-2.52-2.51l-10.11-2.71,6.52-8.5a3.55,3.55,0,0,0-2.35-5.69l-1.06-.14,1.6-12.13a3.56,3.56,0,0,0-1.37-3.3Zm-6.48,8.47-1.26,9.55a3.56,3.56,0,0,0,1.73,3.54l-6.21,8.09a3.55,3.55,0,0,0,1.9,5.6l9.3,2.49-6.81,6.82a3.55,3.55,0,0,0-.78,3.85l-3.11.83a3.57,3.57,0,0,0-2.37,4.8l3.29,7.93-19.45-5.21a3.35,3.35,0,0,0-1.09-.12l-1.3-9.94a3.56,3.56,0,0,0-4-3.06L136.5,186a3.44,3.44,0,0,0-.4-1L126,167.55l8.51,1.12a3.55,3.55,0,0,0,4-3.52v-3.23a3.54,3.54,0,0,0,3.52-1.75l4.82-8.34,4.82,8.34a3.52,3.52,0,0,0,2.84,1.77,3.57,3.57,0,0,0,3.06-1.38l6.21-8.1a3.55,3.55,0,0,0,3.86.76Zm0,0"/><path class="cls-3" d="M145,182.3l-2.19,2.57-14.71,17.22.18,1.55a7.49,7.49,0,0,0,8.51,6.52l1.54-.22L153.1,188.5Zm0,0"/><path class="cls-7" d="M145.54,187.18l-13.7,16a4,4,0,0,0,1.52,2.65,3.91,3.91,0,0,0,2.95.78l11.95-17.38Zm0,0"/><path class="cls-3" d="M145.41,186l-.54.64-14,16.33,0,.39a4.87,4.87,0,0,0,1.86,3.26,4.79,4.79,0,0,0,3.62.94l.39-.05,12.64-18.4Zm.26,2.44,1.38,1.06-11.22,16.32a3.06,3.06,0,0,1-1.93-.61,3,3,0,0,1-1.09-1.71Zm0,0"/><path class="cls-7" d="M149.1,204.9l2.79-3.65,26.42,7.08-6-14.59,8.75-2.35-3.27-3.26L188.92,177l-15.25-4.08,9.76-12.73-4.57-.6,2.06-15.66-14.59,6-1.77-4.26L154.8,158.4l-7.9-13.68L139,158.4l-4-2.31v9.06l-15.66-2.06L133,186.77l-2.8,3.65,16.68-2.2Zm0,0"/><path class="cls-8" d="M188.92,177l-42,11.26,2.2,16.68,2.79-3.65,26.42,7.08-6-14.59,8.75-2.35-3.27-3.26Zm0,0"/><path class="cls-1" d="M180.92,143.89l-14.59,6-1.77-4.26L154.8,158.4l-7.9-13.68L139,158.4l-4-2.31v9.06l-15.66-2.06L133,186.77l-2.8,3.65,16.68-2.2Zm0,0"/><path class="cls-9" d="M160.09,191.44a.41.41,0,0,0-.32-.08l-6.66.87,2.32,5.62a.45.45,0,0,0,.58.24.44.44,0,0,0,.24-.58L154.37,193l5.51-.72a.44.44,0,0,0,.21-.8Zm0,0"/><path class="cls-9" d="M140.36,176.3a.5.5,0,0,0-.32-.08.45.45,0,0,0-.38.5l.73,5.51-4.88-.64a.45.45,0,0,0-.5.38.44.44,0,0,0,.38.5l6,.8-.88-6.67a.47.47,0,0,0-.18-.3Zm0,0"/><path class="cls-9" d="M168.57,167.66a.43.43,0,0,0-.38-.07l-6.87,1.84v-7.12a.45.45,0,0,0-.89,0v8.28l8-2.14a.46.46,0,0,0,.32-.55.46.46,0,0,0-.17-.24Zm0,0"/><path class="cls-9" d="M162.18,176a.41.41,0,0,0-.37-.07l-6.87,1.84v-7.12a.45.45,0,0,0-.89,0v8.28l8-2.14a.44.44,0,0,0,.31-.55.37.37,0,0,0-.17-.24Zm0,0"/><path class="cls-9" d="M175,159.34a.41.41,0,0,0-.37-.07l-6.88,1.84V154a.44.44,0,1,0-.88,0v8.28l8-2.14a.44.44,0,0,0,.31-.55.37.37,0,0,0-.17-.24Zm0,0"/><path class="cls-9" d="M173.64,175.93a.46.46,0,0,0-.63.08l-5,6.57,7.64,3.16a.43.43,0,0,0,.58-.24.44.44,0,0,0-.24-.58l-6.57-2.72,4.33-5.65a.44.44,0,0,0-.08-.62Zm0,0"/><path class="cls-9" d="M163.51,178.64a.45.45,0,0,0-.63.09l-5,6.56,7.64,3.17a.45.45,0,0,0,.58-.24.43.43,0,0,0-.24-.58l-6.57-2.73,4.33-5.64a.46.46,0,0,0-.08-.63Zm0,0"/><path class="cls-9" d="M151.86,159.22a.45.45,0,0,0-.63.08l-4.33,5.64-4.33-5.64a.45.45,0,0,0-.71.54l5,6.56,5-6.56a.44.44,0,0,0-.08-.62Zm0,0"/><path class="cls-9" d="M151.86,169.7a.45.45,0,0,0-.63.09l-4.33,5.64-4.33-5.65a.45.45,0,0,0-.71.55l5,6.56,5-6.56a.45.45,0,0,0-.09-.63Zm0,0"/><path class="cls-3" d="M188.69,176.1l-42,11.26.46,1.72,42-11.26Zm0,0"/><path class="cls-3" d="M178.79,207.58l-31.41-20.11-1,1.5,31.41,20.11Zm0,0"/><path class="cls-3" d="M182,142.48l-15.19,6.29-2-4.86L154.9,156.8l-8-13.86-8.22,14.24-4.56-2.63v9.58L117.68,162,132,186.7l-3.75,4.88,17.92-2.36,2.36,17.92,1.31-1.7,2.44-3.18,27.58,7.39-6.34-15.32,9.26-2.48L179,188.13l11.63-11.63-15.46-4.14,9.89-12.89-5.22-.69Zm-2.17,2.82-2,15,3.93.52-9.64,12.56,15,4-10.7,10.71,2.8,2.8-8.24,2.21L176.8,207l-25.25-6.76-1.85,2.41-2-15.42-15.43,2,1.85-2.42L121,164.2l14.88,2v-8.53l3.43,2,7.57-13.11L154.69,160l9.64-12.56,1.52,3.67Zm0,0"/><path class="cls-3" d="M147.79,144.72H146v43.5h1.78Zm0,0"/><path class="cls-3" d="M120,162.43l-1.2,1.31,27.55,25.14,1.2-1.31Zm0,0"/><line class="cls-7" x1="146.9" y1="188.22" x2="180.92" y2="143.89"/><path class="cls-3" d="M180.21,143.35l-34,44.33,1.41,1.08,34-44.33Zm0,0"/><path class="cls-3" d="M15.11,22l.05,2.43a86.62,86.62,0,0,0,2.5,17.39c2.33,9.28,6.76,20.38,16.76,25.7s21.68,2.8,30.69-.44a86.48,86.48,0,0,0,15.82-7.65l2-1.31,0-2.42a86.62,86.62,0,0,0-2.5-17.39C78.09,29.05,73.66,18,63.66,12.63S42,9.83,33,13.08a86.85,86.85,0,0,0-15.82,7.64ZM24,26.75a77.92,77.92,0,0,1,11.93-5.53c8-2.87,17.37-4.31,23.68-.95S70,32.23,72,40.45a78.43,78.43,0,0,1,2.07,13A77,77,0,0,1,62.17,59c-8,2.88-17.36,4.31-23.68.95S28.12,48,26.05,39.74a78.51,78.51,0,0,1-2.07-13Zm0,0"/><path class="cls-3" d="M59.06,52.44l3.51,2.12L86.2,68.76,88,68.23a9.12,9.12,0,0,0,6.13-11.52l-.58-1.8-28.7-13.4Zm0,0"/><path class="cls-7" d="M64.81,50.85l22,13.23A4.79,4.79,0,0,0,90,58L66.77,47.17Zm0,0"/><path class="cls-3" d="M63.37,51.24l.88.53,22.4,13.48.45-.13a5.87,5.87,0,0,0,4-7.42l-.14-.46L66.29,45.75Zm2.87-.79,1-1.87,21.84,10.2a3.62,3.62,0,0,1-2.18,4.09Zm0,0"/><path class="cls-7" d="M61.62,16.45c16.32,8.69,17,39.37,17,39.37s-25.81,16.6-42.13,7.91-17-39.37-17-39.37S45.3,7.77,61.62,16.45Zm0,0"/><path class="cls-1" d="M19.49,24.36s.65,30.69,17,39.37,42.13-7.91,42.13-7.91Zm0,0"/><path class="cls-9" d="M45.8,65.8l.69.83L67.07,49.69l2.56-26.53-1.07-.11L66,49.14Zm0,0"/><path class="cls-9" d="M22.14,42.63l.69.84L35.61,32.94,37.2,16.46l-1.08-.1-1.55,16Zm0,0"/><path class="cls-9" d="M29.56,57.84l.69.84L51.34,41.32,54,14.13,52.89,14,50.3,40.77Zm0,0"/><path class="cls-3" d="M18.4,23.78v.61a83.2,83.2,0,0,0,2.4,16.66C23,49.94,27.33,60.1,36,64.69S55.39,67.16,64,64.05a83.51,83.51,0,0,0,15.16-7.32l.51-.33v-.6a83.73,83.73,0,0,0-2.39-16.67c-2.24-8.89-6.53-19-15.15-23.63S42.69,13,34.07,16.13a83.51,83.51,0,0,0-15.16,7.32ZM20.6,25a80.6,80.6,0,0,1,14.21-6.78c8.36-3,18.61-4.86,26.31-.76S73,31,75.18,39.66a80.63,80.63,0,0,1,2.3,15.57A80.09,80.09,0,0,1,63.28,62c-8.37,3-18.62,4.85-26.31.76S25.07,49.15,22.9,40.53A80.69,80.69,0,0,1,20.6,25Zm0,0"/><path class="cls-3" d="M18.54,23.86A1.08,1.08,0,0,0,19,25.32l59.1,31.46a1.08,1.08,0,0,0,1.46-.45,1,1,0,0,0,.08-.82,1,1,0,0,0-.52-.64L20,23.41a1.07,1.07,0,0,0-.82-.08,1,1,0,0,0-.64.53Zm0,0"/><path class="cls-5" d="M150.64,0l29,0h16l0,16c0,7,0,14,0,21A29.09,29.09,0,0,1,150.64,0Z"/><text class="cls-10" transform="translate(159.7 31.75)">48</text></svg>