<?xml version="1.0" encoding="utf-8"?>
<!-- Generator: Adobe Illustrator 26.0.1, SVG Export Plug-In . SVG Version: 6.00 Build 0)  -->
<svg version="1.1" id="Слой_1" xmlns="http://www.w3.org/2000/svg" xmlns:xlink="http://www.w3.org/1999/xlink" x="0px" y="0px"
	 viewBox="0 0 195.6 280.6" style="enable-background:new 0 0 195.6 280.6;" xml:space="preserve">
<style type="text/css">
	.st0{clip-path:url(#SVGID_00000090286415535668103790000001909146199772867262_);fill:#F9B04E;}
	.st1{clip-path:url(#SVGID_00000163794830958151030950000018350298775257981104_);fill:#1A1A1A;}
	.st2{clip-path:url(#SVGID_00000127754391977090231250000003862377038194050743_);fill:#1A1A1A;}
	.st3{clip-path:url(#SVGID_00000105412446725526654890000003492830033906066339_);fill:#1A1A1A;}
	.st4{clip-path:url(#SVGID_00000143588459672744057310000007166526758487608976_);fill:#1A1A1A;}
	.st5{clip-path:url(#SVGID_00000060734807478369046040000008319577142047704205_);fill:#1A1A1A;}
	.st6{clip-path:url(#SVGID_00000116952615166298006010000001376159028658632836_);fill:#1A1A1A;}
	.st7{clip-path:url(#SVGID_00000176759888999893171250000009733021222897389191_);fill:#DBE492;}
	.st8{clip-path:url(#SVGID_00000103231552044614474140000016862038220541680282_);fill:#FFFFFF;}
	.st9{clip-path:url(#SVGID_00000161632234269837347990000002400680679439277229_);fill:#EB5A53;}
	.st10{clip-path:url(#SVGID_00000016787919121999590180000004334389993640126341_);fill:#FFFFFF;}
	.st11{clip-path:url(#SVGID_00000158006545081343715250000017251097195199633312_);fill:#1A1A1A;}
	.st12{clip-path:url(#SVGID_00000129183693744291012090000007692730020364895365_);fill:#1A1A1A;}
	.st13{clip-path:url(#SVGID_00000134959012777757410730000012403408467045601674_);fill:#1A1A1A;}
	.st14{clip-path:url(#SVGID_00000067208859621815233360000009233807032572459929_);fill:#1A1A1A;}
	.st15{clip-path:url(#SVGID_00000118394928920774135260000013999517767288364695_);fill:#1A1A1A;}
	.st16{clip-path:url(#SVGID_00000104679180705867678370000010044949478106794671_);fill:#1A1A1A;}
	.st17{clip-path:url(#SVGID_00000137110975121221389220000005181246201390067123_);fill:#1A1A1A;}
	.st18{clip-path:url(#SVGID_00000113321890798153000910000011606997816054869692_);fill:#1A1A1A;}
	.st19{clip-path:url(#SVGID_00000013892617217051852890000004320459286016126090_);fill:#FFFFFF;}
	.st20{clip-path:url(#SVGID_00000033332582319638298350000004316526200408686978_);fill:#1A1A1A;}
	.st21{clip-path:url(#SVGID_00000148646403745653407240000001276309291084267414_);fill:#FFFFFF;}
	.st22{clip-path:url(#SVGID_00000042737624905576476240000005475525907834856085_);fill:#1A1A1A;}
	.st23{clip-path:url(#SVGID_00000116202353000171496640000001267472840411015312_);fill:#1A1A1A;}
	.st24{clip-path:url(#SVGID_00000169542947157193663280000013404981973966765485_);fill:#1A1A1A;}
	.st25{clip-path:url(#SVGID_00000031888565921079690410000015723016175020151471_);fill:#1A1A1A;}
	.st26{clip-path:url(#SVGID_00000098931458624061118050000008490744994940661686_);fill:#1A1A1A;}
	.st27{clip-path:url(#SVGID_00000141418611478196708910000000437785871371438244_);fill:#EF782B;}
	.st28{clip-path:url(#SVGID_00000100346361112468505310000012802791571413011862_);fill:#1A1A1A;}
	.st29{clip-path:url(#SVGID_00000060002426689361143410000018091694803165474945_);fill:#EF782B;}
	.st30{clip-path:url(#SVGID_00000068665995847116168080000007067372552247619995_);fill:#E44716;}
	.st31{clip-path:url(#SVGID_00000064350590561354846890000005638485115758130570_);fill:#F9B04E;}
	.st32{clip-path:url(#SVGID_00000019678262967905773660000001607290627998434735_);fill:#FFE396;}
	.st33{clip-path:url(#SVGID_00000171701767370410073330000009752325228557205390_);fill:#FFE396;}
	.st34{clip-path:url(#SVGID_00000122688730382701901660000004394031563687044263_);fill:#FFE396;}
	.st35{clip-path:url(#SVGID_00000128473912425822477720000014372691107724313230_);fill:#FFE396;}
	.st36{clip-path:url(#SVGID_00000176001826055890244820000001911655071606604939_);fill:#FFE396;}
	.st37{clip-path:url(#SVGID_00000110432280258005491140000017424522112848462223_);fill:#FFE396;}
	.st38{clip-path:url(#SVGID_00000115479625918957265940000004185049803778154422_);fill:#FFE396;}
	.st39{clip-path:url(#SVGID_00000027601899405086866490000016636436319314291630_);fill:#FFE396;}
	.st40{clip-path:url(#SVGID_00000007417728712603302870000014562211343255636118_);fill:#FFE396;}
	.st41{clip-path:url(#SVGID_00000005250390536105039490000005701690184089530546_);fill:#1A1A1A;}
	.st42{clip-path:url(#SVGID_00000053527026598581424120000005911651487290642342_);fill:#1A1A1A;}
	.st43{clip-path:url(#SVGID_00000070096763430346023320000014623276946622383504_);fill:#1A1A1A;}
	.st44{clip-path:url(#SVGID_00000104664313942196296260000016611599457898424244_);fill:#1A1A1A;}
	.st45{clip-path:url(#SVGID_00000008123849049663639690000000803331120506840255_);fill:#1A1A1A;}
	.st46{clip-path:url(#SVGID_00000167376952889849869620000000814419859254860699_);fill:none;}
	.st47{clip-path:url(#SVGID_00000013178636725052821670000002318217374194930342_);fill:#1A1A1A;}
	.st48{clip-path:url(#SVGID_00000129889367937188857240000015440962413704154018_);fill:#1A1A1A;}
	.st49{clip-path:url(#SVGID_00000121281258706903424330000009629011284672402586_);fill:#1A1A1A;}
	.st50{clip-path:url(#SVGID_00000008867788073512585710000011726261461610725276_);fill:#EF782B;}
	.st51{clip-path:url(#SVGID_00000179611503904040449630000005885098110894389689_);fill:#1A1A1A;}
	.st52{clip-path:url(#SVGID_00000138564166791915411210000002353724724358661529_);fill:#EF782B;}
	.st53{clip-path:url(#SVGID_00000029762182817304530490000003060375089190620550_);fill:#F9B04E;}
	.st54{clip-path:url(#SVGID_00000115499250345789296440000002362211707235875228_);fill:#FFE396;}
	.st55{clip-path:url(#SVGID_00000155865918570281446720000009494508648106161830_);fill:#FFE396;}
	.st56{clip-path:url(#SVGID_00000107555232671189427740000014373022415179543454_);fill:#FFE396;}
	.st57{clip-path:url(#SVGID_00000085230618732335016470000010023531863324155325_);fill:#1A1A1A;}
	.st58{clip-path:url(#SVGID_00000023994486498151265470000002171306560413669808_);fill:#1A1A1A;}
	.st59{clip-path:url(#SVGID_00000103241534568981956450000015607274225253892505_);fill:#FFFFFF;}
	.st60{clip-path:url(#SVGID_00000042012060247296982340000006157212511586451086_);enable-background:new    ;}
	.st61{fill:#1A1A1A;}
	.st62{font-family:'Impact';}
	.st63{font-size:20px;}
	.st64{enable-background:new    ;}
</style>
<g>
	<g>
		<defs>
			<rect id="SVGID_1_" width="195.6" height="280.6"/>
		</defs>
		<clipPath id="SVGID_00000060730332692681464340000008326858605134995626_">
			<use xlink:href="#SVGID_1_"  style="overflow:visible;"/>
		</clipPath>
		
			<rect x="-15.4" y="-1.1" style="clip-path:url(#SVGID_00000060730332692681464340000008326858605134995626_);fill:#F9B04E;" width="493.6" height="290.5"/>
	</g>
	<g>
		<defs>
			<rect id="SVGID_00000114755116720453697140000000365015745810329230_" width="195.6" height="280.6"/>
		</defs>
		<clipPath id="SVGID_00000069358749555757625580000014663106898327993500_">
			<use xlink:href="#SVGID_00000114755116720453697140000000365015745810329230_"  style="overflow:visible;"/>
		</clipPath>
	</g>
	<g>
		<defs>
			<rect id="SVGID_00000109737780670650935580000013132167187877757870_" width="195.6" height="280.6"/>
		</defs>
		<clipPath id="SVGID_00000182513079361431468310000002797141121586322353_">
			<use xlink:href="#SVGID_00000109737780670650935580000013132167187877757870_"  style="overflow:visible;"/>
		</clipPath>
		<path style="clip-path:url(#SVGID_00000182513079361431468310000002797141121586322353_);fill:#1A1A1A;" d="M41.1,49v9.2
			c0,9.4,7.6,17,17,17s17-7.6,17-17V49H41.1z"/>
	</g>
	<g>
		<defs>
			<rect id="SVGID_00000138551257393958327540000009939580356701051781_" width="195.6" height="280.6"/>
		</defs>
		<clipPath id="SVGID_00000096762939522071513220000006764560334948377483_">
			<use xlink:href="#SVGID_00000138551257393958327540000009939580356701051781_"  style="overflow:visible;"/>
		</clipPath>
		<path style="clip-path:url(#SVGID_00000096762939522071513220000006764560334948377483_);fill:#1A1A1A;" d="M120.6,49v9.2
			c0,9.4,7.6,17,17,17s17-7.6,17-17V49H120.6z"/>
	</g>
	<g>
		<defs>
			<rect id="SVGID_00000081627409380567777230000011872961502554421180_" width="195.6" height="280.6"/>
		</defs>
		<clipPath id="SVGID_00000072248113352531489630000007034056598007899046_">
			<use xlink:href="#SVGID_00000081627409380567777230000011872961502554421180_"  style="overflow:visible;"/>
		</clipPath>
		<path style="clip-path:url(#SVGID_00000072248113352531489630000007034056598007899046_);fill:#1A1A1A;" d="M58,26.1
			c-9.4,0.1-16.9,7.6-17,17v9.2h34v-9.2C74.9,33.8,67.4,26.2,58,26.1L58,26.1z"/>
	</g>
	<g>
		<defs>
			<rect id="SVGID_00000054948412158587259770000012016670550722076844_" width="195.6" height="280.6"/>
		</defs>
		<clipPath id="SVGID_00000067216708711543814930000017045091594377449867_">
			<use xlink:href="#SVGID_00000054948412158587259770000012016670550722076844_"  style="overflow:visible;"/>
		</clipPath>
		<path style="clip-path:url(#SVGID_00000067216708711543814930000017045091594377449867_);fill:#1A1A1A;" d="M137.5,26.1
			c-9.4,0.1-16.9,7.6-17,17v9.2h34v-9.2C154.5,33.8,146.9,26.2,137.5,26.1L137.5,26.1z"/>
	</g>
	<g>
		<defs>
			<rect id="SVGID_00000070798393466872618210000015832693996309441671_" width="195.6" height="280.6"/>
		</defs>
		<clipPath id="SVGID_00000138571162746755470590000011676321753035891351_">
			<use xlink:href="#SVGID_00000070798393466872618210000015832693996309441671_"  style="overflow:visible;"/>
		</clipPath>
		<path style="clip-path:url(#SVGID_00000138571162746755470590000011676321753035891351_);fill:#1A1A1A;" d="M19.8,123.1v58.6
			c0.1,11.6,9.5,21,21.1,21.1h113.8c11.6-0.1,21-9.5,21.1-21.1v-58.6h-18.9v58.6c0.1,1.1-0.7,2.1-1.8,2.2c-0.2,0-0.3,0-0.5,0H40.9
			c-1.1,0.1-2.1-0.7-2.2-1.8c0-0.2,0-0.3,0-0.5V123H19.8V123.1z"/>
	</g>
	<g>
		<defs>
			<rect id="SVGID_00000165943786527958474960000009278906053248778144_" width="195.6" height="280.6"/>
		</defs>
		<clipPath id="SVGID_00000067216011787253322480000002749817610507178911_">
			<use xlink:href="#SVGID_00000165943786527958474960000009278906053248778144_"  style="overflow:visible;"/>
		</clipPath>
		<path style="clip-path:url(#SVGID_00000067216011787253322480000002749817610507178911_);fill:#1A1A1A;" d="M40.9,46.8
			c-11.6,0.1-21,9.5-21.1,21.1v58.6h18.9V67.9c-0.1-1.1,0.7-2.1,1.8-2.2c0.2,0,0.3,0,0.5,0h113.8c1.1-0.1,2.1,0.7,2.2,1.8
			c0,0.2,0,0.3,0,0.5v58.6h18.9V67.9c-0.1-11.6-9.5-21-21.1-21.1L40.9,46.8z"/>
	</g>
	<g>
		<defs>
			<rect id="SVGID_00000070107297441339997690000009565533550149568902_" width="195.6" height="280.6"/>
		</defs>
		<clipPath id="SVGID_00000160870707085313323630000006499441430880878730_">
			<use xlink:href="#SVGID_00000070107297441339997690000009565533550149568902_"  style="overflow:visible;"/>
		</clipPath>
		<path style="clip-path:url(#SVGID_00000160870707085313323630000006499441430880878730_);fill:#DBE492;" d="M40.9,56.2h113.8
			c6.4,0,11.7,5.2,11.7,11.6c0,0,0,0,0,0.1v113.8c0,6.4-5.2,11.7-11.6,11.7c0,0,0,0-0.1,0H40.9c-6.4,0-11.7-5.2-11.7-11.6
			c0,0,0,0,0-0.1V67.9C29.2,61.5,34.4,56.3,40.9,56.2L40.9,56.2z"/>
	</g>
	<g>
		<defs>
			<rect id="SVGID_00000065035119727998177770000007059971104785066674_" width="195.6" height="280.6"/>
		</defs>
		<clipPath id="SVGID_00000049914943066943141040000001441810563043159436_">
			<use xlink:href="#SVGID_00000065035119727998177770000007059971104785066674_"  style="overflow:visible;"/>
		</clipPath>
		
			<rect x="49.2" y="76.1" style="clip-path:url(#SVGID_00000049914943066943141040000001441810563043159436_);fill:#FFFFFF;" width="97.3" height="32.7"/>
	</g>
	<g>
		<defs>
			<rect id="SVGID_00000172404755608393329310000018413127207224649147_" width="195.6" height="280.6"/>
		</defs>
		<clipPath id="SVGID_00000060001002625630435510000002243195162223862185_">
			<use xlink:href="#SVGID_00000172404755608393329310000018413127207224649147_"  style="overflow:visible;"/>
		</clipPath>
		
			<rect x="49.2" y="109.7" style="clip-path:url(#SVGID_00000060001002625630435510000002243195162223862185_);fill:#EB5A53;" width="97.3" height="32.7"/>
	</g>
	<g>
		<defs>
			<rect id="SVGID_00000097477047431025137640000017399435139463599770_" width="195.6" height="280.6"/>
		</defs>
		<clipPath id="SVGID_00000046314179395275621010000004549883519035851701_">
			<use xlink:href="#SVGID_00000097477047431025137640000017399435139463599770_"  style="overflow:visible;"/>
		</clipPath>
		
			<rect x="49.2" y="140.9" style="clip-path:url(#SVGID_00000046314179395275621010000004549883519035851701_);fill:#FFFFFF;" width="97.3" height="32.7"/>
	</g>
	<g>
		<defs>
			<rect id="SVGID_00000075875043310746243540000015840304276229634443_" width="195.6" height="280.6"/>
		</defs>
		<clipPath id="SVGID_00000179632171202149493760000012827538503681465782_">
			<use xlink:href="#SVGID_00000075875043310746243540000015840304276229634443_"  style="overflow:visible;"/>
		</clipPath>
		<path style="clip-path:url(#SVGID_00000179632171202149493760000012827538503681465782_);fill:#1A1A1A;" d="M26.9,123.1v58.6
			c0,7.7,6.3,14,14,14h113.8c7.7,0,14-6.3,14-14v-58.6H164v58.6c0,5.1-4.1,9.3-9.2,9.3c-0.1,0-0.1,0-0.2,0H40.9
			c-5.1,0-9.3-4.1-9.3-9.1c0-0.1,0-0.1,0-0.2v-58.6H26.9z"/>
	</g>
	<g>
		<defs>
			<rect id="SVGID_00000141423230113758202080000017078750617561128081_" width="195.6" height="280.6"/>
		</defs>
		<clipPath id="SVGID_00000154388881889547242010000009238597556752787093_">
			<use xlink:href="#SVGID_00000141423230113758202080000017078750617561128081_"  style="overflow:visible;"/>
		</clipPath>
		<path style="clip-path:url(#SVGID_00000154388881889547242010000009238597556752787093_);fill:#1A1A1A;" d="M46.8,123.1v52.7h102
			v-52.7h-4.7v48H51.5v-48C51.5,123.1,46.8,123.1,46.8,123.1z"/>
	</g>
	<g>
		<defs>
			<rect id="SVGID_00000172414090742087386640000018354802271121841039_" width="195.6" height="280.6"/>
		</defs>
		<clipPath id="SVGID_00000021800478025859639970000009398853936188320162_">
			<use xlink:href="#SVGID_00000172414090742087386640000018354802271121841039_"  style="overflow:visible;"/>
		</clipPath>
		<path style="clip-path:url(#SVGID_00000021800478025859639970000009398853936188320162_);fill:#1A1A1A;" d="M40.9,53.9
			c-7.7,0-14,6.3-14,14v58.6h4.7V67.9c0-5.1,4.1-9.3,9.2-9.3h0.1h113.7c5.1,0,9.3,4,9.3,9.1c0,0.1,0,0.1,0,0.2v58.6h4.7V67.9
			c0-7.7-6.3-14-14-14H40.9z"/>
	</g>
	<g>
		<defs>
			<rect id="SVGID_00000058572739015960074230000010126510207880721848_" width="195.6" height="280.6"/>
		</defs>
		<clipPath id="SVGID_00000137129511883378754170000011401376546886187697_">
			<use xlink:href="#SVGID_00000058572739015960074230000010126510207880721848_"  style="overflow:visible;"/>
		</clipPath>
		
			<rect x="111.6" y="76.1" style="clip-path:url(#SVGID_00000137129511883378754170000011401376546886187697_);fill:#1A1A1A;" width="4.7" height="97.3"/>
	</g>
	<g>
		<defs>
			<rect id="SVGID_00000132784718883067902570000006804714358877412509_" width="195.6" height="280.6"/>
		</defs>
		<clipPath id="SVGID_00000166671639611040385570000004567266745807117207_">
			<use xlink:href="#SVGID_00000132784718883067902570000006804714358877412509_"  style="overflow:visible;"/>
		</clipPath>
		
			<rect x="79.2" y="76.1" style="clip-path:url(#SVGID_00000166671639611040385570000004567266745807117207_);fill:#1A1A1A;" width="4.7" height="97.3"/>
	</g>
	<g>
		<defs>
			<rect id="SVGID_00000084508468617634974620000008385202594753205656_" width="195.6" height="280.6"/>
		</defs>
		<clipPath id="SVGID_00000026872920835164950390000009666829096986961829_">
			<use xlink:href="#SVGID_00000084508468617634974620000008385202594753205656_"  style="overflow:visible;"/>
		</clipPath>
		
			<rect x="49.2" y="138.6" style="clip-path:url(#SVGID_00000026872920835164950390000009666829096986961829_);fill:#1A1A1A;" width="97.3" height="4.7"/>
	</g>
	<g>
		<defs>
			<rect id="SVGID_00000089540001027881979040000011963627637143625372_" width="195.6" height="280.6"/>
		</defs>
		<clipPath id="SVGID_00000176745613541391021820000012713250026257117868_">
			<use xlink:href="#SVGID_00000089540001027881979040000011963627637143625372_"  style="overflow:visible;"/>
		</clipPath>
		
			<rect x="49.2" y="106.2" style="clip-path:url(#SVGID_00000176745613541391021820000012713250026257117868_);fill:#1A1A1A;" width="97.3" height="4.7"/>
	</g>
	<g>
		<defs>
			<rect id="SVGID_00000043458181227661636260000010587467846780873379_" width="195.6" height="280.6"/>
		</defs>
		<clipPath id="SVGID_00000115492100055875418460000015493528397005925515_">
			<use xlink:href="#SVGID_00000043458181227661636260000010587467846780873379_"  style="overflow:visible;"/>
		</clipPath>
		<path style="clip-path:url(#SVGID_00000115492100055875418460000015493528397005925515_);fill:#1A1A1A;" d="M46.8,73.8v52.7h4.7
			v-48h92.6v48h4.7V73.8H46.8z"/>
	</g>
	<g>
		<defs>
			<rect id="SVGID_00000066504679385465281150000000642793271342736029_" width="195.6" height="280.6"/>
		</defs>
		<clipPath id="SVGID_00000069359780174774296720000018241236076918455700_">
			<use xlink:href="#SVGID_00000066504679385465281150000000642793271342736029_"  style="overflow:visible;"/>
		</clipPath>
		<path style="clip-path:url(#SVGID_00000069359780174774296720000018241236076918455700_);fill:#FFFFFF;" d="M58,35.6
			c4.2,0,7.5,3.3,7.5,7.5l0,0v15.1c0,4.2-3.4,7.5-7.5,7.5s-7.5-3.4-7.5-7.5V43.1C50.5,39,53.9,35.6,58,35.6L58,35.6z"/>
	</g>
	<g>
		<defs>
			<rect id="SVGID_00000083800492339173172160000004948649707489146289_" width="195.6" height="280.6"/>
		</defs>
		<clipPath id="SVGID_00000124147796398456854660000007610699287277024186_">
			<use xlink:href="#SVGID_00000083800492339173172160000004948649707489146289_"  style="overflow:visible;"/>
		</clipPath>
		<path style="clip-path:url(#SVGID_00000124147796398456854660000007610699287277024186_);fill:#1A1A1A;" d="M48.2,49v9.2
			c0,5.5,4.4,9.9,9.9,9.9s9.9-4.4,9.9-9.9V49h-4.7v9.2c0,2.9-2.3,5.2-5.2,5.2s-5.2-2.3-5.2-5.2V49H48.2z"/>
	</g>
	<g>
		<defs>
			<rect id="SVGID_00000044874411916889778150000001180397962336476337_" width="195.6" height="280.6"/>
		</defs>
		<clipPath id="SVGID_00000163766420861020266860000012376092882956499368_">
			<use xlink:href="#SVGID_00000044874411916889778150000001180397962336476337_"  style="overflow:visible;"/>
		</clipPath>
		<path style="clip-path:url(#SVGID_00000163766420861020266860000012376092882956499368_);fill:#FFFFFF;" d="M137.5,35.6
			c4.2,0,7.5,3.3,7.5,7.5l0,0v15.1c0,4.2-3.4,7.5-7.5,7.5c-4.2,0-7.5-3.4-7.5-7.5V43.1C130,39,133.4,35.6,137.5,35.6L137.5,35.6
			L137.5,35.6z"/>
	</g>
	<g>
		<defs>
			<rect id="SVGID_00000176750559668339688690000003468257544820105663_" width="195.6" height="280.6"/>
		</defs>
		<clipPath id="SVGID_00000068659041852807371200000004423330528183349438_">
			<use xlink:href="#SVGID_00000176750559668339688690000003468257544820105663_"  style="overflow:visible;"/>
		</clipPath>
		<path style="clip-path:url(#SVGID_00000068659041852807371200000004423330528183349438_);fill:#1A1A1A;" d="M127.6,49v9.2
			c0,5.5,4.4,9.9,9.9,9.9s9.9-4.4,9.9-9.9V49h-4.7v9.2c0,2.9-2.3,5.2-5.2,5.2s-5.2-2.3-5.2-5.2V49H127.6z"/>
	</g>
	<g>
		<defs>
			<rect id="SVGID_00000135660050308655171200000007384167989318344878_" width="195.6" height="280.6"/>
		</defs>
		<clipPath id="SVGID_00000072251547111499227710000002320161659815238571_">
			<use xlink:href="#SVGID_00000135660050308655171200000007384167989318344878_"  style="overflow:visible;"/>
		</clipPath>
		<path style="clip-path:url(#SVGID_00000072251547111499227710000002320161659815238571_);fill:#1A1A1A;" d="M58,33.2
			c-5.5,0-9.9,4.4-9.9,9.9v9.2h4.7v-9.2c0-2.9,2.3-5.2,5.2-5.2s5.2,2.3,5.2,5.2l0,0v9.2H68v-9.2C68,37.7,63.6,33.3,58,33.2L58,33.2z
			"/>
	</g>
	<g>
		<defs>
			<rect id="SVGID_00000003082578744759139880000000107806269823296167_" width="195.6" height="280.6"/>
		</defs>
		<clipPath id="SVGID_00000068657038174443218590000000516156163610816139_">
			<use xlink:href="#SVGID_00000003082578744759139880000000107806269823296167_"  style="overflow:visible;"/>
		</clipPath>
		<path style="clip-path:url(#SVGID_00000068657038174443218590000000516156163610816139_);fill:#1A1A1A;" d="M137.5,33.2
			c-5.5,0-9.9,4.4-9.9,9.9v9.2h4.7v-9.2c0-2.9,2.3-5.2,5.2-5.2s5.2,2.3,5.2,5.2v9.2h4.7v-9.2C147.4,37.7,143,33.3,137.5,33.2z"/>
	</g>
	<g>
		<defs>
			<rect id="SVGID_00000071519145041938138960000003874409595653755288_" width="195.6" height="280.6"/>
		</defs>
		<clipPath id="SVGID_00000114769990483181031340000007059237540357295234_">
			<use xlink:href="#SVGID_00000071519145041938138960000003874409595653755288_"  style="overflow:visible;"/>
		</clipPath>
		<path style="clip-path:url(#SVGID_00000114769990483181031340000007059237540357295234_);fill:#1A1A1A;" d="M181.9,141.1
			c-1-0.8-2.3-0.9-3.5-0.4l-11.3,4.7l-0.4-1c-0.8-1.8-2.8-2.7-4.7-1.9c-0.6,0.2-1.1,0.6-1.5,1.1L154,152l-5.2-9.1
			c-1-1.7-3.1-2.3-4.8-1.3c-0.5,0.3-1,0.8-1.3,1.3l-6.1,10.6l-0.9-0.5c-1.7-1-3.9-0.4-4.9,1.3c-0.3,0.5-0.5,1.2-0.5,1.8v5l-11.6-1.5
			c-1.9-0.3-3.7,1.1-4,3c-0.1,0.8,0.1,1.6,0.4,2.3l12.5,21.6l-1.4,1.8c-1.2,1.6-0.9,3.8,0.7,5c0.7,0.6,1.7,0.8,2.6,0.7l13.1-1.7
			l1.7,13.1c0.3,1.9,2.1,3.3,4,3.1c0.9-0.1,1.8-0.6,2.4-1.4l1.4-1.8l24.1,6.5c1.9,0.5,3.9-0.6,4.4-2.5c0.2-0.8,0.1-1.5-0.1-2.3
			l-4.5-10.9l4.8-1.3c1.9-0.5,3-2.4,2.6-4.3c-0.2-0.6-0.5-1.2-1-1.7l-0.8-0.8l8.7-8.6c1.4-1.4,1.4-3.6,0-5c-0.4-0.4-1-0.8-1.6-0.9
			l-10.1-2.7l6.5-8.5c1.2-1.6,0.9-3.8-0.6-5c-0.5-0.4-1.1-0.6-1.7-0.7l-1.1-0.1l1.6-12.1C183.4,143,182.9,141.8,181.9,141.1
			L181.9,141.1z M175.4,149.5l-1.3,9.6c-0.2,1.4,0.5,2.8,1.7,3.5l-6.2,8.1c-1.2,1.6-0.9,3.8,0.6,5c0.4,0.3,0.8,0.5,1.3,0.6l9.3,2.5
			l-6.8,6.8c-1,1-1.3,2.5-0.8,3.9l-3.1,0.8c-1.9,0.5-3,2.5-2.5,4.4c0,0.1,0.1,0.3,0.1,0.4l3.3,7.9l-19.4-5.2
			c-0.4-0.1-0.7-0.1-1.1-0.1l-1.3-9.9c-0.3-1.9-2-3.3-4-3.1l0,0l-9.9,1.3c-0.1-0.4-0.2-0.7-0.4-1l-10.1-17.4l8.5,1.1
			c1.9,0.2,3.7-1.1,4-3.1c0-0.1,0-0.3,0-0.4V162c1.4,0.2,2.8-0.5,3.5-1.8l4.8-8.3l4.8,8.3c0.6,1,1.7,1.7,2.8,1.8
			c1.2,0.1,2.3-0.4,3.1-1.4l6.2-8.1c1,1,2.5,1.3,3.9,0.8L175.4,149.5z"/>
	</g>
	<g>
		<defs>
			<rect id="SVGID_00000072247422456810846280000014511069485777541051_" width="195.6" height="280.6"/>
		</defs>
		<clipPath id="SVGID_00000091721999271932785140000004417162845971236771_">
			<use xlink:href="#SVGID_00000072247422456810846280000014511069485777541051_"  style="overflow:visible;"/>
		</clipPath>
		<path style="clip-path:url(#SVGID_00000091721999271932785140000004417162845971236771_);fill:#1A1A1A;" d="M143.8,182.3l-2.2,2.6
			l-14.7,17.2l0.2,1.6c0.5,4.1,4.2,7,8.3,6.5c0.1,0,0.1,0,0.2,0l1.5-0.2l14.7-21.4L143.8,182.3z"/>
	</g>
	<g>
		<defs>
			<rect id="SVGID_00000044897686547669682790000012419956901155040665_" width="195.6" height="280.6"/>
		</defs>
		<clipPath id="SVGID_00000117670171089113330280000011458835050253955208_">
			<use xlink:href="#SVGID_00000044897686547669682790000012419956901155040665_"  style="overflow:visible;"/>
		</clipPath>
		<path style="clip-path:url(#SVGID_00000117670171089113330280000011458835050253955208_);fill:#EF782B;" d="M144.3,187.2l-13.7,16
			c0.3,2.2,2.2,3.7,4.4,3.4c0,0,0,0,0.1,0l11.9-17.3L144.3,187.2z"/>
	</g>
	<g>
		<defs>
			<rect id="SVGID_00000162310147952744733030000006886337944644567975_" width="195.6" height="280.6"/>
		</defs>
		<clipPath id="SVGID_00000070081513968420391940000011498723017434342312_">
			<use xlink:href="#SVGID_00000162310147952744733030000006886337944644567975_"  style="overflow:visible;"/>
		</clipPath>
		<path style="clip-path:url(#SVGID_00000070081513968420391940000011498723017434342312_);fill:#1A1A1A;" d="M144.2,186l-0.5,0.6
			l-14,16.3v0.4c0.2,1.3,0.8,2.5,1.9,3.3c1,0.8,2.3,1.1,3.6,0.9l0.4-0.1l12.6-18.4L144.2,186z M144.4,188.4l1.4,1.1l-11.2,16.3
			c-0.7,0-1.4-0.2-1.9-0.6c-0.6-0.4-0.9-1-1.1-1.7L144.4,188.4z"/>
	</g>
	<g>
		<defs>
			<rect id="SVGID_00000160188598396818283370000013591837536832103359_" width="195.6" height="280.6"/>
		</defs>
		<clipPath id="SVGID_00000007411061799394572820000013634498792310018455_">
			<use xlink:href="#SVGID_00000160188598396818283370000013591837536832103359_"  style="overflow:visible;"/>
		</clipPath>
		<path style="clip-path:url(#SVGID_00000007411061799394572820000013634498792310018455_);fill:#EF782B;" d="M147.9,204.9l2.8-3.6
			l26.4,7.1l-6-14.6l8.8-2.4l-3.3-3.3l11.1-11.1l-15.2-4.1l9.8-12.7l-4.6-0.6l2.1-15.7l-14.6,6l-1.8-4.3l-9.8,12.7l-7.9-13.7
			l-7.9,13.7l-4-2.3v9.1l-15.7-2.1l13.7,23.7l-2.8,3.6l16.7-2.2L147.9,204.9z"/>
	</g>
	<g>
		<defs>
			<rect id="SVGID_00000144330154019020213770000015522085326375355540_" width="195.6" height="280.6"/>
		</defs>
		<clipPath id="SVGID_00000180341815476553903810000012548254262371187384_">
			<use xlink:href="#SVGID_00000144330154019020213770000015522085326375355540_"  style="overflow:visible;"/>
		</clipPath>
		<path style="clip-path:url(#SVGID_00000180341815476553903810000012548254262371187384_);fill:#E44716;" d="M187.7,177l-42,11.3
			l2.2,16.7l2.8-3.6l26.4,7.1l-6-14.6l8.8-2.4l-3.3-3.3L187.7,177z"/>
	</g>
	<g>
		<defs>
			<rect id="SVGID_00000138551837564508256950000001150835967846051231_" width="195.6" height="280.6"/>
		</defs>
		<clipPath id="SVGID_00000020360295192520854480000011920262227715089025_">
			<use xlink:href="#SVGID_00000138551837564508256950000001150835967846051231_"  style="overflow:visible;"/>
		</clipPath>
		<path style="clip-path:url(#SVGID_00000020360295192520854480000011920262227715089025_);fill:#F9B04E;" d="M179.7,143.9l-14.6,6
			l-1.8-4.3l-9.8,12.7l-7.9-13.7l-7.9,13.7l-4-2.3v9.1L118,163l13.7,23.7l-2.8,3.7l16.7-2.2L179.7,143.9z"/>
	</g>
	<g>
		<defs>
			<rect id="SVGID_00000145049602231035976600000007800537774981133216_" width="195.6" height="280.6"/>
		</defs>
		<clipPath id="SVGID_00000176007439002528956240000000670661550092068533_">
			<use xlink:href="#SVGID_00000145049602231035976600000007800537774981133216_"  style="overflow:visible;"/>
		</clipPath>
		<path style="clip-path:url(#SVGID_00000176007439002528956240000000670661550092068533_);fill:#FFE396;" d="M158.9,191.4
			c-0.1-0.1-0.2-0.1-0.3-0.1l-6.7,0.9l2.3,5.6c0.1,0.2,0.4,0.3,0.6,0.2c0.2-0.1,0.3-0.3,0.2-0.6l0,0l-1.9-4.5l5.5-0.7
			c0.2,0,0.4-0.2,0.4-0.5C159,191.7,159,191.6,158.9,191.4L158.9,191.4z"/>
	</g>
	<g>
		<defs>
			<rect id="SVGID_00000170967361567848022520000017350196713764935590_" width="195.6" height="280.6"/>
		</defs>
		<clipPath id="SVGID_00000119830695669235607410000014409275230020648891_">
			<use xlink:href="#SVGID_00000170967361567848022520000017350196713764935590_"  style="overflow:visible;"/>
		</clipPath>
		<path style="clip-path:url(#SVGID_00000119830695669235607410000014409275230020648891_);fill:#FFE396;" d="M139.1,176.3
			c-0.1-0.1-0.2-0.1-0.3-0.1c-0.2,0-0.4,0.3-0.4,0.5l0.7,5.5l-4.9-0.6c-0.2,0-0.5,0.1-0.5,0.4c0,0.2,0.1,0.5,0.4,0.5l0,0l6,0.8
			l-0.9-6.7C139.3,176.5,139.2,176.4,139.1,176.3L139.1,176.3z"/>
	</g>
	<g>
		<defs>
			<rect id="SVGID_00000023966466753715396700000000939103733797543060_" width="195.6" height="280.6"/>
		</defs>
		<clipPath id="SVGID_00000135663829811478194590000000270772450095820933_">
			<use xlink:href="#SVGID_00000023966466753715396700000000939103733797543060_"  style="overflow:visible;"/>
		</clipPath>
		<path style="clip-path:url(#SVGID_00000135663829811478194590000000270772450095820933_);fill:#FFE396;" d="M167.4,167.7
			c-0.1-0.1-0.2-0.1-0.4-0.1l-6.9,1.8v-7.1c0-0.2-0.3-0.4-0.5-0.4s-0.3,0.2-0.4,0.4v8.3l8-2.1c0.2-0.1,0.4-0.3,0.3-0.6
			C167.5,167.8,167.4,167.7,167.4,167.7L167.4,167.7z"/>
	</g>
	<g>
		<defs>
			<rect id="SVGID_00000072257243291696569690000011387063790056102568_" width="195.6" height="280.6"/>
		</defs>
		<clipPath id="SVGID_00000047029875571516697410000009641558080466497189_">
			<use xlink:href="#SVGID_00000072257243291696569690000011387063790056102568_"  style="overflow:visible;"/>
		</clipPath>
		<path style="clip-path:url(#SVGID_00000047029875571516697410000009641558080466497189_);fill:#FFE396;" d="M161,176
			c-0.1-0.1-0.2-0.1-0.4-0.1l-6.9,1.8v-7.1c0-0.2-0.3-0.4-0.5-0.4s-0.3,0.2-0.4,0.4v8.3l8-2.1c0.2-0.1,0.4-0.3,0.3-0.6
			C161.1,176.1,161.1,176.1,161,176z"/>
	</g>
	<g>
		<defs>
			<rect id="SVGID_00000078762398398908492610000017036200061427615934_" width="195.6" height="280.6"/>
		</defs>
		<clipPath id="SVGID_00000057137635559037560820000011914251266043877512_">
			<use xlink:href="#SVGID_00000078762398398908492610000017036200061427615934_"  style="overflow:visible;"/>
		</clipPath>
		<path style="clip-path:url(#SVGID_00000057137635559037560820000011914251266043877512_);fill:#FFE396;" d="M173.7,159.3
			c-0.1-0.1-0.2-0.1-0.4-0.1l-6.9,1.8v-7c0-0.2-0.3-0.4-0.5-0.4s-0.3,0.2-0.4,0.4v8.3l8-2.1c0.2-0.1,0.4-0.3,0.3-0.5l0,0
			C173.9,159.5,173.8,159.4,173.7,159.3L173.7,159.3z"/>
	</g>
	<g>
		<defs>
			<rect id="SVGID_00000005977074865695323990000007988246459925645494_" width="195.6" height="280.6"/>
		</defs>
		<clipPath id="SVGID_00000025434201063619312730000007095535911293284780_">
			<use xlink:href="#SVGID_00000005977074865695323990000007988246459925645494_"  style="overflow:visible;"/>
		</clipPath>
		<path style="clip-path:url(#SVGID_00000025434201063619312730000007095535911293284780_);fill:#FFE396;" d="M172.4,175.9
			c-0.2-0.1-0.5-0.1-0.6,0.1l-5,6.6l7.6,3.2c0.2,0.1,0.5,0,0.6-0.2s0-0.5-0.2-0.6l-6.6-2.7l4.3-5.6
			C172.7,176.4,172.6,176.1,172.4,175.9C172.5,175.9,172.5,175.9,172.4,175.9L172.4,175.9z"/>
	</g>
	<g>
		<defs>
			<rect id="SVGID_00000173150390306233908690000002459167626609345158_" width="195.6" height="280.6"/>
		</defs>
		<clipPath id="SVGID_00000047033096716465046210000009307822597820003767_">
			<use xlink:href="#SVGID_00000173150390306233908690000002459167626609345158_"  style="overflow:visible;"/>
		</clipPath>
		<path style="clip-path:url(#SVGID_00000047033096716465046210000009307822597820003767_);fill:#FFE396;" d="M162.3,178.6
			c-0.2-0.1-0.5-0.1-0.6,0.1l0,0l-5,6.6l7.6,3.2c0.2,0.1,0.5,0,0.6-0.2s0-0.5-0.2-0.6l0,0l-6.6-2.7l4.3-5.6
			C162.5,179.1,162.4,178.8,162.3,178.6L162.3,178.6z"/>
	</g>
	<g>
		<defs>
			<rect id="SVGID_00000029730904561056567480000000869300386237676424_" width="195.6" height="280.6"/>
		</defs>
		<clipPath id="SVGID_00000155124360331098378690000007240549036385221803_">
			<use xlink:href="#SVGID_00000029730904561056567480000000869300386237676424_"  style="overflow:visible;"/>
		</clipPath>
		<path style="clip-path:url(#SVGID_00000155124360331098378690000007240549036385221803_);fill:#FFE396;" d="M150.6,159.2
			c-0.2-0.2-0.5-0.1-0.6,0.1l-4.3,5.6l-4.3-5.6c-0.2-0.2-0.5-0.2-0.6,0c-0.1,0.1-0.2,0.4-0.1,0.5l5,6.6l5-6.6
			C150.8,159.6,150.8,159.4,150.6,159.2L150.6,159.2L150.6,159.2z"/>
	</g>
	<g>
		<defs>
			<rect id="SVGID_00000159453724835052114130000000045296985200848571_" width="195.6" height="280.6"/>
		</defs>
		<clipPath id="SVGID_00000145765945110237671640000007685300452579976127_">
			<use xlink:href="#SVGID_00000159453724835052114130000000045296985200848571_"  style="overflow:visible;"/>
		</clipPath>
		<path style="clip-path:url(#SVGID_00000145765945110237671640000007685300452579976127_);fill:#FFE396;" d="M150.6,169.7
			c-0.2-0.1-0.5-0.1-0.6,0.1l0,0l-4.3,5.6l-4.3-5.6c-0.2-0.2-0.4-0.2-0.6,0c-0.2,0.1-0.2,0.4-0.1,0.6l5,6.6l5-6.6
			C150.8,170.1,150.8,169.9,150.6,169.7L150.6,169.7z"/>
	</g>
	<g>
		<defs>
			<rect id="SVGID_00000036961800550693541510000008269801855508981649_" width="195.6" height="280.6"/>
		</defs>
		<clipPath id="SVGID_00000048498085481977170740000012255402587993952663_">
			<use xlink:href="#SVGID_00000036961800550693541510000008269801855508981649_"  style="overflow:visible;"/>
		</clipPath>
		<path style="clip-path:url(#SVGID_00000048498085481977170740000012255402587993952663_);fill:#1A1A1A;" d="M187.5,176.1l-42,11.3
			l0.5,1.7l42-11.3L187.5,176.1z"/>
	</g>
	<g>
		<defs>
			<rect id="SVGID_00000177464179319954097210000013442024615629206415_" width="195.6" height="280.6"/>
		</defs>
		<clipPath id="SVGID_00000005971469734970535710000006562914303510624901_">
			<use xlink:href="#SVGID_00000177464179319954097210000013442024615629206415_"  style="overflow:visible;"/>
		</clipPath>
		<path style="clip-path:url(#SVGID_00000005971469734970535710000006562914303510624901_);fill:#1A1A1A;" d="M177.6,207.6
			l-31.4-20.1l-1,1.5l31.4,20.1L177.6,207.6z"/>
	</g>
	<g>
		<defs>
			<rect id="SVGID_00000079476515857883283210000005684709905516208014_" width="195.6" height="280.6"/>
		</defs>
		<clipPath id="SVGID_00000109020948078006562370000002904852121698662304_">
			<use xlink:href="#SVGID_00000079476515857883283210000005684709905516208014_"  style="overflow:visible;"/>
		</clipPath>
		<path style="clip-path:url(#SVGID_00000109020948078006562370000002904852121698662304_);fill:#1A1A1A;" d="M180.8,142.5
			l-15.2,6.3l-2-4.9l-9.9,12.9l-8-13.9l-8.2,14.2l-4.6-2.6v9.6l-16.5-2.1l14.3,24.7l-3.7,4.9l17.9-2.4l2.4,17.9l1.3-1.7l2.4-3.2
			l27.6,7.4l-6.3-15.3l9.3-2.5l-3.7-3.7l11.6-11.6l-15.4-4.1l9.9-12.9l-5.2-0.7L180.8,142.5z M178.6,145.3l-2,15l3.9,0.5l-9.6,12.6
			l15.1,4l-10.7,10.7l2.8,2.8l-8.2,2.2l5.8,13.9l-25.2-6.8l-1.9,2.4l-2-15.4l-15.4,2l1.9-2.4L120,164.2l14.9,2v-8.5l3.4,2l7.6-13.1
			l7.8,13.4l9.6-12.6l1.5,3.7L178.6,145.3z"/>
	</g>
	<g>
		<defs>
			<rect id="SVGID_00000099650403353753685660000006718393086908810684_" width="195.6" height="280.6"/>
		</defs>
		<clipPath id="SVGID_00000034048705451587162480000007304409250531013814_">
			<use xlink:href="#SVGID_00000099650403353753685660000006718393086908810684_"  style="overflow:visible;"/>
		</clipPath>
		<path style="clip-path:url(#SVGID_00000034048705451587162480000007304409250531013814_);fill:#1A1A1A;" d="M146.6,144.7h-1.8
			v43.5h1.8V144.7z"/>
	</g>
	<g>
		<defs>
			<rect id="SVGID_00000046320297880224507910000011660717778436428469_" width="195.6" height="280.6"/>
		</defs>
		<clipPath id="SVGID_00000176017164956382418510000013029404398405193130_">
			<use xlink:href="#SVGID_00000046320297880224507910000011660717778436428469_"  style="overflow:visible;"/>
		</clipPath>
		<path style="clip-path:url(#SVGID_00000176017164956382418510000013029404398405193130_);fill:#1A1A1A;" d="M118.7,162.4l-1.2,1.3
			l27.5,25.1l1.2-1.3L118.7,162.4z"/>
	</g>
	<g>
		<defs>
			<rect id="SVGID_00000176736786391961576720000013789265904457883015_" width="195.6" height="280.6"/>
		</defs>
		<clipPath id="SVGID_00000052802914115309380240000004484110948948185243_">
			<use xlink:href="#SVGID_00000176736786391961576720000013789265904457883015_"  style="overflow:visible;"/>
		</clipPath>
		
			<line style="clip-path:url(#SVGID_00000052802914115309380240000004484110948948185243_);fill:none;" x1="145.7" y1="188.2" x2="179.7" y2="143.9"/>
	</g>
	<g>
		<defs>
			<rect id="SVGID_00000163071779917209244860000013549641173306274192_" width="195.6" height="280.6"/>
		</defs>
		<clipPath id="SVGID_00000054977685423977303990000008692649842810634379_">
			<use xlink:href="#SVGID_00000163071779917209244860000013549641173306274192_"  style="overflow:visible;"/>
		</clipPath>
		<path style="clip-path:url(#SVGID_00000054977685423977303990000008692649842810634379_);fill:#1A1A1A;" d="M179,143.4l-34,44.3
			l1.4,1.1l34-44.3L179,143.4z"/>
	</g>
	<g>
		<defs>
			<rect id="SVGID_00000119103830403076326000000010567111509159974793_" width="195.6" height="280.6"/>
		</defs>
		<clipPath id="SVGID_00000142175455699660118370000008171618489809843368_">
			<use xlink:href="#SVGID_00000119103830403076326000000010567111509159974793_"  style="overflow:visible;"/>
		</clipPath>
		<path style="clip-path:url(#SVGID_00000142175455699660118370000008171618489809843368_);fill:#1A1A1A;" d="M13.9,22l0.1,2.5
			c0.2,5.9,1.1,11.7,2.5,17.4c2.3,9.3,6.8,20.4,16.8,25.7S55,70.4,64,67.2c5.5-2,10.8-4.6,15.8-7.7l2-1.3v-2.4
			c-0.2-5.9-1.1-11.7-2.5-17.4C76.9,29,72.4,18,62.4,12.6S40.7,9.8,31.7,13c-5.5,2-10.8,4.6-15.8,7.6L13.9,22z M22.8,26.7
			c3.8-2.2,7.8-4,11.9-5.5c8-2.9,17.4-4.3,23.7-1s10.4,12,12.4,20.2c1.1,4.3,1.8,8.6,2.1,13c-3.8,2.2-7.8,4.1-11.9,5.6
			c-8,2.9-17.4,4.3-23.7,1S26.9,48,24.8,39.7C23.8,35.5,23.1,31.1,22.8,26.7L22.8,26.7z"/>
	</g>
	<g>
		<defs>
			<rect id="SVGID_00000183968638549000175240000016172617646302212498_" width="195.6" height="280.6"/>
		</defs>
		<clipPath id="SVGID_00000057829592250584969330000006094685603223215288_">
			<use xlink:href="#SVGID_00000183968638549000175240000016172617646302212498_"  style="overflow:visible;"/>
		</clipPath>
		<path style="clip-path:url(#SVGID_00000057829592250584969330000006094685603223215288_);fill:#1A1A1A;" d="M57.8,52.4l3.5,2.1
			L85,68.8l1.8-0.5c4.8-1.4,7.6-6.5,6.2-11.3c0-0.1,0-0.1-0.1-0.2L92.3,55L63.7,41.5L57.8,52.4z"/>
	</g>
	<g>
		<defs>
			<rect id="SVGID_00000140003417084297509570000014491105201794504097_" width="195.6" height="280.6"/>
		</defs>
		<clipPath id="SVGID_00000099648880896959434760000015245745347254309284_">
			<use xlink:href="#SVGID_00000140003417084297509570000014491105201794504097_"  style="overflow:visible;"/>
		</clipPath>
		<path style="clip-path:url(#SVGID_00000099648880896959434760000015245745347254309284_);fill:#EF782B;" d="M63.6,50.8l22,13.2
			c2.5-0.7,4-3.4,3.3-5.9V58L65.6,47.2L63.6,50.8z"/>
	</g>
	<g>
		<defs>
			<rect id="SVGID_00000137831494464181353470000010170719131343131564_" width="195.6" height="280.6"/>
		</defs>
		<clipPath id="SVGID_00000049943061775891391460000016490474251454043817_">
			<use xlink:href="#SVGID_00000137831494464181353470000010170719131343131564_"  style="overflow:visible;"/>
		</clipPath>
		<path style="clip-path:url(#SVGID_00000049943061775891391460000016490474251454043817_);fill:#1A1A1A;" d="M62.2,51.2l0.9,0.5
			l22.4,13.5l0.5-0.1c1.5-0.5,2.8-1.5,3.5-2.9s0.9-3,0.4-4.5l-0.1-0.5L65.1,45.8L62.2,51.2z M65,50.5l1-1.9l21.8,10.2
			c0.4,1.7-0.6,3.4-2.2,4.1L65,50.5z"/>
	</g>
	<g>
		<defs>
			<rect id="SVGID_00000115499766543423198460000002052652112310290879_" width="195.6" height="280.6"/>
		</defs>
		<clipPath id="SVGID_00000110462390240947933710000002735809464124527525_">
			<use xlink:href="#SVGID_00000115499766543423198460000002052652112310290879_"  style="overflow:visible;"/>
		</clipPath>
		<path style="clip-path:url(#SVGID_00000110462390240947933710000002735809464124527525_);fill:#EF782B;" d="M60.4,16.5
			c16.3,8.7,17,39.4,17,39.4s-25.8,16.6-42.1,7.9s-17-39.4-17-39.4S44.1,7.8,60.4,16.5z"/>
	</g>
	<g>
		<defs>
			<rect id="SVGID_00000094615152107726893170000008572692561219461524_" width="195.6" height="280.6"/>
		</defs>
		<clipPath id="SVGID_00000072243114542167717060000014695990254758847670_">
			<use xlink:href="#SVGID_00000094615152107726893170000008572692561219461524_"  style="overflow:visible;"/>
		</clipPath>
		<path style="clip-path:url(#SVGID_00000072243114542167717060000014695990254758847670_);fill:#F9B04E;" d="M18.3,24.4
			c0,0,0.6,30.7,17,39.4s42.1-7.9,42.1-7.9L18.3,24.4z"/>
	</g>
	<g>
		<defs>
			<rect id="SVGID_00000080903868125645009140000009955005282847026055_" width="195.6" height="280.6"/>
		</defs>
		<clipPath id="SVGID_00000115473165110400907180000002950879104645405570_">
			<use xlink:href="#SVGID_00000080903868125645009140000009955005282847026055_"  style="overflow:visible;"/>
		</clipPath>
		<path style="clip-path:url(#SVGID_00000115473165110400907180000002950879104645405570_);fill:#FFE396;" d="M44.6,65.8l0.7,0.8
			l20.6-16.9l2.6-26.5L67.3,23l-2.5,26.1L44.6,65.8z"/>
	</g>
	<g>
		<defs>
			<rect id="SVGID_00000023254321854237968360000014012473879890489774_" width="195.6" height="280.6"/>
		</defs>
		<clipPath id="SVGID_00000055693635930234744380000011996021167812575167_">
			<use xlink:href="#SVGID_00000023254321854237968360000014012473879890489774_"  style="overflow:visible;"/>
		</clipPath>
		<path style="clip-path:url(#SVGID_00000055693635930234744380000011996021167812575167_);fill:#FFE396;" d="M20.9,42.6l0.7,0.8
			l12.8-10.5L36,16.5l-1.1-0.1l-1.5,16L20.9,42.6z"/>
	</g>
	<g>
		<defs>
			<rect id="SVGID_00000129206302927338399930000008311778394287154344_" width="195.6" height="280.6"/>
		</defs>
		<clipPath id="SVGID_00000103239368490585964490000004816964606866332833_">
			<use xlink:href="#SVGID_00000129206302927338399930000008311778394287154344_"  style="overflow:visible;"/>
		</clipPath>
		<path style="clip-path:url(#SVGID_00000103239368490585964490000004816964606866332833_);fill:#FFE396;" d="M28.4,57.8l0.7,0.8
			l21.1-17.4L52.8,14l-1.1,0l-2.6,26.8L28.4,57.8z"/>
	</g>
	<g>
		<defs>
			<rect id="SVGID_00000014619792887989444400000012224360160740719538_" width="195.6" height="280.6"/>
		</defs>
		<clipPath id="SVGID_00000019656212692737047960000011822017893294944440_">
			<use xlink:href="#SVGID_00000014619792887989444400000012224360160740719538_"  style="overflow:visible;"/>
		</clipPath>
		<path style="clip-path:url(#SVGID_00000019656212692737047960000011822017893294944440_);fill:#1A1A1A;" d="M17.2,23.8v0.6
			c0.2,5.6,1,11.2,2.4,16.7c2.2,8.9,6.5,19,15.1,23.6s19.4,2.5,28.1-0.6c5.3-1.9,10.4-4.4,15.2-7.3l0.5-0.3v-0.6
			c-0.2-5.6-1-11.2-2.4-16.7c-2.2-8.9-6.5-19-15.2-23.6S41.5,13,32.8,16.1c-5.3,1.9-10.4,4.4-15.2,7.3L17.2,23.8z M19.4,25
			c4.5-2.7,9.3-5,14.2-6.8c8.4-3,18.6-4.9,26.3-0.8S71.8,31,74,39.7c1.3,5.1,2,10.3,2.3,15.6c-4.5,2.7-9.3,5-14.2,6.8
			c-8.4,3-18.6,4.8-26.3,0.8S23.9,49.2,21.7,40.5C20.4,35.4,19.6,30.2,19.4,25z"/>
	</g>
	<g>
		<defs>
			<rect id="SVGID_00000093859923378533417650000005710254140057909141_" width="195.6" height="280.6"/>
		</defs>
		<clipPath id="SVGID_00000052821083566402870050000004469382755825576875_">
			<use xlink:href="#SVGID_00000093859923378533417650000005710254140057909141_"  style="overflow:visible;"/>
		</clipPath>
		<path style="clip-path:url(#SVGID_00000052821083566402870050000004469382755825576875_);fill:#1A1A1A;" d="M17.3,23.9
			c-0.3,0.5-0.1,1.2,0.4,1.5l59.1,31.5c0.5,0.3,1.2,0.1,1.5-0.5c0.1-0.2,0.2-0.5,0.1-0.8s-0.3-0.5-0.5-0.6L18.8,23.4
			c-0.3-0.1-0.5-0.2-0.8-0.1S17.4,23.6,17.3,23.9z"/>
	</g>
	<g>
		<defs>
			<rect id="SVGID_00000030478210879334758450000000939533547141828789_" width="195.6" height="280.6"/>
		</defs>
		<clipPath id="SVGID_00000152960565438114849740000010380954544463805832_">
			<use xlink:href="#SVGID_00000030478210879334758450000000939533547141828789_"  style="overflow:visible;"/>
		</clipPath>
		<path style="clip-path:url(#SVGID_00000152960565438114849740000010380954544463805832_);fill:#FFFFFF;" d="M150.6,0h29h16v16
			c0,7,0,14,0,21c-10.2,12.4-28.6,14.2-41,4S140.4,12.4,150.6,0z"/>
	</g>
	<g>
		<defs>
			<rect id="SVGID_00000089546936370367889300000014508806000383412654_" width="195.6" height="280.6"/>
		</defs>
		<clipPath id="SVGID_00000068672239717002088900000016296924589263123616_">
			<use xlink:href="#SVGID_00000089546936370367889300000014508806000383412654_"  style="overflow:visible;"/>
		</clipPath>
		<g style="clip-path:url(#SVGID_00000068672239717002088900000016296924589263123616_);enable-background:new    ;">
			<text transform="matrix(1 0 0 1 159.7 31.75)" class="st61 st62 st63">48</text>
		</g>
	</g>
</g>
<g class="st64">
	<path class="st61" d="M39.8,216.9h5.8c3.8,0,6.3,0.2,7.7,0.5c1.3,0.3,2.3,0.9,3,1.7c0.7,0.8,1.1,1.7,1.3,2.6c0.2,1,0.3,2.9,0.3,5.7
		V238c0,2.7-0.1,4.5-0.4,5.4c-0.3,0.9-0.7,1.6-1.3,2.1c-0.6,0.5-1.4,0.9-2.3,1.1c-0.9,0.2-2.3,0.3-4.2,0.3h-9.9V216.9z M47.6,222
		v19.8c1.1,0,1.8-0.2,2.1-0.7c0.3-0.5,0.4-1.7,0.4-3.7v-11.7c0-1.4,0-2.2-0.1-2.6c-0.1-0.4-0.3-0.7-0.6-0.8
		C49,222.1,48.5,222,47.6,222z"/>
	<path class="st61" d="M77.5,230.9v6c0,2.2-0.1,3.8-0.3,4.9c-0.2,1-0.7,2-1.4,2.9c-0.7,0.9-1.7,1.6-2.8,2c-1.1,0.4-2.5,0.6-3.9,0.6
		c-1.7,0-3.1-0.2-4.2-0.5c-1.2-0.4-2-0.9-2.7-1.7c-0.6-0.7-1.1-1.6-1.4-2.7c-0.3-1-0.4-2.6-0.4-4.7v-6.3c0-2.3,0.2-4.1,0.7-5.4
		c0.5-1.3,1.4-2.3,2.7-3.1c1.3-0.8,2.9-1.2,4.9-1.2c1.7,0,3.1,0.3,4.3,0.8c1.2,0.5,2.1,1.2,2.8,2c0.7,0.8,1.1,1.6,1.3,2.5
		S77.5,229.2,77.5,230.9z M70,229.1c0-1.3-0.1-2.1-0.2-2.4c-0.1-0.3-0.4-0.5-0.9-0.5s-0.7,0.2-0.9,0.5c-0.1,0.3-0.2,1.1-0.2,2.4
		v11.1c0,1.2,0.1,1.9,0.2,2.3c0.1,0.4,0.4,0.5,0.9,0.5c0.4,0,0.7-0.2,0.9-0.5c0.1-0.3,0.2-1,0.2-2.1V229.1z"/>
	<path class="st61" d="M91.7,222.3v5.5L86.1,242h5.5v4.9H78.9v-5.2l5.6-14.5h-5.1v-4.9H91.7z M87.8,215.8v4.8H83v-4.8H87.8z"/>
	<path class="st61" d="M109,222.3l-2.1,17.8c-0.3,2.8-0.6,4.7-0.9,5.8c-0.2,1-0.6,1.9-1.1,2.5c-0.5,0.7-1.3,1.2-2.2,1.5
		c-0.9,0.3-2.5,0.5-4.5,0.5h-4.5v-3.9c1.2,0,1.9-0.1,2.2-0.2c0.3-0.1,0.5-0.4,0.5-0.8c0-0.2-0.2-1.1-0.5-2.6l-4.1-20.6h6.8l2.5,16.6
		l1.2-16.6H109z"/>
	<path class="st61" d="M118,222.3l-0.1,2.3c0.5-0.9,1.2-1.6,2-2s1.7-0.7,2.7-0.7c1.3,0,2.3,0.3,3.2,0.9c0.8,0.6,1.3,1.4,1.6,2.3
		c0.2,0.9,0.4,2.5,0.4,4.6v17.3h-7.5v-17.1c0-1.7-0.1-2.7-0.2-3.1s-0.4-0.6-0.9-0.6c-0.5,0-0.9,0.2-1,0.6c-0.1,0.4-0.2,1.6-0.2,3.4
		v16.6h-7.5v-24.6H118z"/>
	<path class="st61" d="M146.4,222.3l-3,9.8l4,14.8h-7.2l-2.3-10.7l0,10.7h-7.5v-30h7.5l0,12.6l2.3-7.2H146.4z"/>
	<path class="st61" d="M156.1,216.9v3.9h-7.7v-3.9H156.1z M156.1,222.3v24.6h-7.7v-24.6H156.1z"/>
</g>
</svg>
