<?xml version="1.0" encoding="utf-8"?>
<!-- Generator: Adobe Illustrator 26.0.3, SVG Export Plug-In . SVG Version: 6.00 Build 0)  -->
<svg version="1.1" id="Слой_1" xmlns="http://www.w3.org/2000/svg" xmlns:xlink="http://www.w3.org/1999/xlink" x="0px" y="0px"
	 viewBox="0 0 195.6 280.6" style="enable-background:new 0 0 195.6 280.6;" xml:space="preserve">
<style type="text/css">
	.st0{clip-path:url(#SVGID_00000160164958342802150590000001769780776647537309_);fill:#F9B04E;}
	.st1{clip-path:url(#SVGID_00000160164958342802150590000001769780776647537309_);enable-background:new    ;}
	.st2{fill:#1A1A1A;}
	.st3{font-family:'Impact';}
	.st4{font-size:38px;}
	.st5{clip-path:url(#SVGID_00000160164958342802150590000001769780776647537309_);fill:#1A1A1A;}
	.st6{clip-path:url(#SVGID_00000160164958342802150590000001769780776647537309_);fill:#DBE492;}
	.st7{clip-path:url(#SVGID_00000160164958342802150590000001769780776647537309_);fill:#FFFFFF;}
	.st8{clip-path:url(#SVGID_00000160164958342802150590000001769780776647537309_);fill:#EB5A53;}
	.st9{clip-path:url(#SVGID_00000160164958342802150590000001769780776647537309_);fill:#EF782B;}
	.st10{clip-path:url(#SVGID_00000160164958342802150590000001769780776647537309_);fill:#E44716;}
	.st11{clip-path:url(#SVGID_00000160164958342802150590000001769780776647537309_);fill:#FFE396;}
	.st12{clip-path:url(#SVGID_00000160164958342802150590000001769780776647537309_);fill:none;}
	.st13{font-size:20px;}
</style>
<g>
	<defs>
		<rect id="SVGID_1_" x="0" y="0" width="195.6" height="280.6"/>
	</defs>
	<clipPath id="SVGID_00000177480426360506832700000012236500117398099584_">
		<use xlink:href="#SVGID_1_"  style="overflow:visible;"/>
	</clipPath>
	
		<rect x="-15.4" y="-1.1" style="clip-path:url(#SVGID_00000177480426360506832700000012236500117398099584_);fill:#F9B04E;" width="493.6" height="290.5"/>
	<g style="clip-path:url(#SVGID_00000177480426360506832700000012236500117398099584_);enable-background:new    ;">
		<text transform="matrix(1 0 0 1 38.23 246.92)" class="st2 st3 st4">Dożynki</text>
	</g>
	<path style="clip-path:url(#SVGID_00000177480426360506832700000012236500117398099584_);fill:#1A1A1A;" d="M41.1,49v9.2
		c0,9.4,7.6,17,17,17c9.4,0,17-7.6,17-17V49H41.1z"/>
	<path style="clip-path:url(#SVGID_00000177480426360506832700000012236500117398099584_);fill:#1A1A1A;" d="M120.6,49v9.2
		c0,9.4,7.6,17,17,17s17-7.6,17-17V49H120.6z"/>
	<path style="clip-path:url(#SVGID_00000177480426360506832700000012236500117398099584_);fill:#1A1A1A;" d="M58,26.1
		c-9.4,0.1-16.9,7.6-17,17v9.2h34v-9.2C74.9,33.8,67.4,26.2,58,26.1L58,26.1z"/>
	<path style="clip-path:url(#SVGID_00000177480426360506832700000012236500117398099584_);fill:#1A1A1A;" d="M137.5,26.1
		c-9.4,0.1-16.9,7.6-17,17v9.2h34v-9.2C154.5,33.8,146.9,26.2,137.5,26.1L137.5,26.1z"/>
	<path style="clip-path:url(#SVGID_00000177480426360506832700000012236500117398099584_);fill:#1A1A1A;" d="M19.8,123.1v58.6
		c0.1,11.6,9.5,21,21.1,21.1h113.8c11.6-0.1,21-9.5,21.1-21.1v-58.6h-18.9v58.6c0.1,1.1-0.7,2.1-1.8,2.2c-0.2,0-0.3,0-0.5,0H40.9
		c-1.1,0.1-2.1-0.7-2.2-1.8c0-0.2,0-0.3,0-0.5v-58.6H19.8z"/>
	<path style="clip-path:url(#SVGID_00000177480426360506832700000012236500117398099584_);fill:#1A1A1A;" d="M40.9,46.8
		c-11.6,0.1-21,9.5-21.1,21.1v58.6h18.9V67.9c-0.1-1.1,0.7-2.1,1.8-2.2c0.2,0,0.3,0,0.5,0h113.8c1.1-0.1,2.1,0.7,2.2,1.8
		c0,0.2,0,0.3,0,0.5v58.6h18.9V67.9c-0.1-11.6-9.5-21-21.1-21.1L40.9,46.8z"/>
	<path style="clip-path:url(#SVGID_00000177480426360506832700000012236500117398099584_);fill:#DBE492;" d="M40.9,56.2h113.8
		c6.4,0,11.7,5.2,11.7,11.6c0,0,0,0,0,0.1v113.8c0,6.4-5.2,11.7-11.6,11.7c0,0,0,0-0.1,0H40.9c-6.4,0-11.7-5.2-11.7-11.6
		c0,0,0,0,0-0.1V67.9C29.2,61.5,34.4,56.3,40.9,56.2C40.9,56.2,40.9,56.2,40.9,56.2z"/>
	
		<rect x="49.2" y="76.1" style="clip-path:url(#SVGID_00000177480426360506832700000012236500117398099584_);fill:#FFFFFF;" width="97.3" height="32.7"/>
	
		<rect x="49.2" y="109.7" style="clip-path:url(#SVGID_00000177480426360506832700000012236500117398099584_);fill:#EB5A53;" width="97.3" height="32.7"/>
	
		<rect x="49.2" y="140.9" style="clip-path:url(#SVGID_00000177480426360506832700000012236500117398099584_);fill:#FFFFFF;" width="97.3" height="32.7"/>
	<path style="clip-path:url(#SVGID_00000177480426360506832700000012236500117398099584_);fill:#1A1A1A;" d="M26.9,123.1v58.6
		c0,7.7,6.3,14,14,14h113.8c7.7,0,14-6.3,14-14v-58.6H164v58.6c0,5.1-4.1,9.3-9.2,9.3c-0.1,0-0.1,0-0.2,0H40.9
		c-5.1,0-9.3-4.1-9.3-9.1c0-0.1,0-0.1,0-0.2v-58.6H26.9z"/>
	<path style="clip-path:url(#SVGID_00000177480426360506832700000012236500117398099584_);fill:#1A1A1A;" d="M46.8,123.1v52.7h102
		v-52.7h-4.7v48H51.5v-48H46.8z"/>
	<path style="clip-path:url(#SVGID_00000177480426360506832700000012236500117398099584_);fill:#1A1A1A;" d="M40.9,53.9
		c-7.7,0-14,6.3-14,14v58.6h4.7V67.9c0-5.1,4.1-9.3,9.2-9.3c0,0,0.1,0,0.1,0h113.7c5.1,0,9.3,4,9.3,9.1c0,0.1,0,0.1,0,0.2v58.6h4.7
		V67.9c0-7.7-6.3-14-14-14L40.9,53.9z"/>
	
		<rect x="111.6" y="76.1" style="clip-path:url(#SVGID_00000177480426360506832700000012236500117398099584_);fill:#1A1A1A;" width="4.7" height="97.3"/>
	
		<rect x="79.2" y="76.1" style="clip-path:url(#SVGID_00000177480426360506832700000012236500117398099584_);fill:#1A1A1A;" width="4.7" height="97.3"/>
	
		<rect x="49.2" y="138.6" style="clip-path:url(#SVGID_00000177480426360506832700000012236500117398099584_);fill:#1A1A1A;" width="97.3" height="4.7"/>
	
		<rect x="49.2" y="106.2" style="clip-path:url(#SVGID_00000177480426360506832700000012236500117398099584_);fill:#1A1A1A;" width="97.3" height="4.7"/>
	<path style="clip-path:url(#SVGID_00000177480426360506832700000012236500117398099584_);fill:#1A1A1A;" d="M46.8,73.8v52.7h4.7
		v-48h92.6v48h4.7V73.8H46.8z"/>
	<path style="clip-path:url(#SVGID_00000177480426360506832700000012236500117398099584_);fill:#FFFFFF;" d="M58,35.6
		c4.2,0,7.5,3.3,7.5,7.5c0,0,0,0,0,0v15.1c0,4.2-3.4,7.5-7.5,7.5s-7.5-3.4-7.5-7.5V43.1C50.5,39,53.9,35.6,58,35.6
		C58,35.6,58,35.6,58,35.6z"/>
	<path style="clip-path:url(#SVGID_00000177480426360506832700000012236500117398099584_);fill:#1A1A1A;" d="M48.2,49v9.2
		c0,5.5,4.4,9.9,9.9,9.9c5.5,0,9.9-4.4,9.9-9.9V49h-4.7v9.2c0,2.9-2.3,5.2-5.2,5.2c-2.9,0-5.2-2.3-5.2-5.2V49H48.2z"/>
	<path style="clip-path:url(#SVGID_00000177480426360506832700000012236500117398099584_);fill:#FFFFFF;" d="M137.5,35.6
		c4.2,0,7.5,3.3,7.5,7.5c0,0,0,0,0,0v15.1c0,4.2-3.4,7.5-7.5,7.5c-4.2,0-7.5-3.4-7.5-7.5V43.1C130,39,133.4,35.6,137.5,35.6
		C137.5,35.6,137.5,35.6,137.5,35.6L137.5,35.6z"/>
	<path style="clip-path:url(#SVGID_00000177480426360506832700000012236500117398099584_);fill:#1A1A1A;" d="M127.6,49v9.2
		c0,5.5,4.4,9.9,9.9,9.9c5.5,0,9.9-4.4,9.9-9.9V49h-4.7v9.2c0,2.9-2.3,5.2-5.2,5.2c-2.9,0-5.2-2.3-5.2-5.2V49H127.6z"/>
	<path style="clip-path:url(#SVGID_00000177480426360506832700000012236500117398099584_);fill:#1A1A1A;" d="M58,33.2
		c-5.5,0-9.9,4.4-9.9,9.9v9.2h4.7v-9.2c0-2.9,2.3-5.2,5.2-5.2c2.9,0,5.2,2.3,5.2,5.2c0,0,0,0,0,0v9.2H68v-9.2
		C68,37.7,63.6,33.3,58,33.2L58,33.2z"/>
	<path style="clip-path:url(#SVGID_00000177480426360506832700000012236500117398099584_);fill:#1A1A1A;" d="M137.5,33.2
		c-5.5,0-9.9,4.4-9.9,9.9v9.2h4.7v-9.2c0-2.9,2.3-5.2,5.2-5.2c2.9,0,5.2,2.3,5.2,5.2v9.2h4.7v-9.2C147.4,37.7,143,33.3,137.5,33.2z"
		/>
	<path style="clip-path:url(#SVGID_00000177480426360506832700000012236500117398099584_);fill:#1A1A1A;" d="M181.9,141.1
		c-1-0.8-2.3-0.9-3.5-0.4l-11.3,4.7l-0.4-1c-0.8-1.8-2.8-2.7-4.7-1.9c-0.6,0.2-1.1,0.6-1.5,1.1L154,152l-5.2-9.1
		c-1-1.7-3.1-2.3-4.8-1.3c-0.5,0.3-1,0.8-1.3,1.3l-6.1,10.6l-0.9-0.5c-1.7-1-3.9-0.4-4.9,1.3c-0.3,0.5-0.5,1.2-0.5,1.8v5l-11.6-1.5
		c-1.9-0.3-3.7,1.1-4,3c-0.1,0.8,0.1,1.6,0.4,2.3l12.5,21.6l-1.4,1.8c-1.2,1.6-0.9,3.8,0.7,5c0.7,0.6,1.7,0.8,2.6,0.7l13.1-1.7
		l1.7,13.1c0.3,1.9,2.1,3.3,4,3.1c0.9-0.1,1.8-0.6,2.4-1.4l1.4-1.8l24.1,6.5c1.9,0.5,3.9-0.6,4.4-2.5c0.2-0.8,0.1-1.5-0.1-2.3
		l-4.5-10.9l4.8-1.3c1.9-0.5,3-2.4,2.6-4.3c-0.2-0.6-0.5-1.2-1-1.7l-0.8-0.8l8.7-8.6c1.4-1.4,1.4-3.6,0-5c-0.4-0.4-1-0.8-1.6-0.9
		l-10.1-2.7l6.5-8.5c1.2-1.6,0.9-3.8-0.6-5c-0.5-0.4-1.1-0.6-1.7-0.7l-1.1-0.1l1.6-12.1C183.4,143,182.9,141.8,181.9,141.1
		L181.9,141.1z M175.4,149.5l-1.3,9.6c-0.2,1.4,0.5,2.8,1.7,3.5l-6.2,8.1c-1.2,1.6-0.9,3.8,0.6,5c0.4,0.3,0.8,0.5,1.3,0.6l9.3,2.5
		l-6.8,6.8c-1,1-1.3,2.5-0.8,3.9l-3.1,0.8c-1.9,0.5-3,2.5-2.5,4.4c0,0.1,0.1,0.3,0.1,0.4l3.3,7.9l-19.4-5.2
		c-0.4-0.1-0.7-0.1-1.1-0.1l-1.3-9.9c-0.3-1.9-2-3.3-4-3.1c0,0,0,0,0,0l-9.9,1.3c-0.1-0.4-0.2-0.7-0.4-1l-10.1-17.4l8.5,1.1
		c1.9,0.2,3.7-1.1,4-3.1c0-0.1,0-0.3,0-0.4v-3.2c1.4,0.2,2.8-0.5,3.5-1.8l4.8-8.3l4.8,8.3c0.6,1,1.7,1.7,2.8,1.8
		c1.2,0.1,2.3-0.4,3.1-1.4l6.2-8.1c1,1,2.5,1.3,3.9,0.8L175.4,149.5z"/>
	<path style="clip-path:url(#SVGID_00000177480426360506832700000012236500117398099584_);fill:#1A1A1A;" d="M143.8,182.3l-2.2,2.6
		l-14.7,17.2l0.2,1.6c0.5,4.1,4.2,7,8.3,6.5c0.1,0,0.1,0,0.2,0l1.5-0.2l14.7-21.4L143.8,182.3z"/>
	<path style="clip-path:url(#SVGID_00000177480426360506832700000012236500117398099584_);fill:#EF782B;" d="M144.3,187.2l-13.7,16
		c0.3,2.2,2.2,3.7,4.4,3.4c0,0,0,0,0.1,0l11.9-17.3L144.3,187.2z"/>
	<path style="clip-path:url(#SVGID_00000177480426360506832700000012236500117398099584_);fill:#1A1A1A;" d="M144.2,186l-0.5,0.6
		l-14,16.3v0.4c0.2,1.3,0.8,2.5,1.9,3.3c1,0.8,2.3,1.1,3.6,0.9l0.4-0.1l12.6-18.4L144.2,186z M144.4,188.4l1.4,1.1l-11.2,16.3
		c-0.7,0-1.4-0.2-1.9-0.6c-0.6-0.4-0.9-1-1.1-1.7L144.4,188.4z"/>
	<path style="clip-path:url(#SVGID_00000177480426360506832700000012236500117398099584_);fill:#EF782B;" d="M147.9,204.9l2.8-3.6
		l26.4,7.1l-6-14.6l8.8-2.4l-3.3-3.3l11.1-11.1l-15.2-4.1l9.8-12.7l-4.6-0.6l2.1-15.7l-14.6,6l-1.8-4.3l-9.8,12.7l-7.9-13.7
		l-7.9,13.7l-4-2.3v9.1l-15.7-2.1l13.7,23.7l-2.8,3.6l16.7-2.2L147.9,204.9z"/>
	<path style="clip-path:url(#SVGID_00000177480426360506832700000012236500117398099584_);fill:#E44716;" d="M187.7,177l-42,11.3
		l2.2,16.7l2.8-3.6l26.4,7.1l-6-14.6l8.8-2.4l-3.3-3.3L187.7,177z"/>
	<path style="clip-path:url(#SVGID_00000177480426360506832700000012236500117398099584_);fill:#F9B04E;" d="M179.7,143.9l-14.6,6
		l-1.8-4.3l-9.8,12.7l-7.9-13.7l-7.9,13.7l-4-2.3v9.1l-15.7-2.1l13.7,23.7l-2.8,3.7l16.7-2.2L179.7,143.9z"/>
	<path style="clip-path:url(#SVGID_00000177480426360506832700000012236500117398099584_);fill:#FFE396;" d="M158.9,191.4
		c-0.1-0.1-0.2-0.1-0.3-0.1l-6.7,0.9l2.3,5.6c0.1,0.2,0.4,0.3,0.6,0.2c0.2-0.1,0.3-0.3,0.2-0.6c0,0,0,0,0,0l-1.9-4.5l5.5-0.7
		c0.2,0,0.4-0.2,0.4-0.5C159,191.7,159,191.6,158.9,191.4L158.9,191.4z"/>
	<path style="clip-path:url(#SVGID_00000177480426360506832700000012236500117398099584_);fill:#FFE396;" d="M139.1,176.3
		c-0.1-0.1-0.2-0.1-0.3-0.1c-0.2,0-0.4,0.3-0.4,0.5l0.7,5.5l-4.9-0.6c-0.2,0-0.5,0.1-0.5,0.4c0,0.2,0.1,0.5,0.4,0.5c0,0,0,0,0,0
		l6,0.8l-0.9-6.7C139.3,176.5,139.2,176.4,139.1,176.3L139.1,176.3z"/>
	<path style="clip-path:url(#SVGID_00000177480426360506832700000012236500117398099584_);fill:#FFE396;" d="M167.4,167.7
		c-0.1-0.1-0.2-0.1-0.4-0.1l-6.9,1.8v-7.1c0-0.2-0.3-0.4-0.5-0.4c-0.2,0-0.3,0.2-0.4,0.4v8.3l8-2.1c0.2-0.1,0.4-0.3,0.3-0.6
		C167.5,167.8,167.4,167.7,167.4,167.7L167.4,167.7z"/>
	<path style="clip-path:url(#SVGID_00000177480426360506832700000012236500117398099584_);fill:#FFE396;" d="M161,176
		c-0.1-0.1-0.2-0.1-0.4-0.1l-6.9,1.8v-7.1c0-0.2-0.3-0.4-0.5-0.4c-0.2,0-0.3,0.2-0.4,0.4v8.3l8-2.1c0.2-0.1,0.4-0.3,0.3-0.6
		C161.1,176.1,161.1,176.1,161,176z"/>
	<path style="clip-path:url(#SVGID_00000177480426360506832700000012236500117398099584_);fill:#FFE396;" d="M173.7,159.3
		c-0.1-0.1-0.2-0.1-0.4-0.1l-6.9,1.8V154c0-0.2-0.3-0.4-0.5-0.4c-0.2,0-0.3,0.2-0.4,0.4v8.3l8-2.1c0.2-0.1,0.4-0.3,0.3-0.5
		c0,0,0,0,0,0C173.9,159.5,173.8,159.4,173.7,159.3L173.7,159.3z"/>
	<path style="clip-path:url(#SVGID_00000177480426360506832700000012236500117398099584_);fill:#FFE396;" d="M172.4,175.9
		c-0.2-0.1-0.5-0.1-0.6,0.1l-5,6.6l7.6,3.2c0.2,0.1,0.5,0,0.6-0.2s0-0.5-0.2-0.6l-6.6-2.7l4.3-5.6
		C172.7,176.4,172.6,176.1,172.4,175.9C172.5,175.9,172.5,175.9,172.4,175.9L172.4,175.9z"/>
	<path style="clip-path:url(#SVGID_00000177480426360506832700000012236500117398099584_);fill:#FFE396;" d="M162.3,178.6
		c-0.2-0.1-0.5-0.1-0.6,0.1l0,0l-5,6.6l7.6,3.2c0.2,0.1,0.5,0,0.6-0.2c0.1-0.2,0-0.5-0.2-0.6c0,0,0,0,0,0l-6.6-2.7l4.3-5.6
		C162.5,179.1,162.4,178.8,162.3,178.6L162.3,178.6z"/>
	<path style="clip-path:url(#SVGID_00000177480426360506832700000012236500117398099584_);fill:#FFE396;" d="M150.6,159.2
		c-0.2-0.2-0.5-0.1-0.6,0.1l-4.3,5.6l-4.3-5.6c-0.2-0.2-0.5-0.2-0.6,0c-0.1,0.1-0.2,0.4-0.1,0.5l5,6.6l5-6.6
		C150.8,159.6,150.8,159.4,150.6,159.2C150.6,159.2,150.6,159.2,150.6,159.2L150.6,159.2z"/>
	<path style="clip-path:url(#SVGID_00000177480426360506832700000012236500117398099584_);fill:#FFE396;" d="M150.6,169.7
		c-0.2-0.1-0.5-0.1-0.6,0.1l0,0l-4.3,5.6l-4.3-5.6c-0.2-0.2-0.4-0.2-0.6,0c-0.2,0.1-0.2,0.4-0.1,0.6l5,6.6l5-6.6
		C150.8,170.1,150.8,169.9,150.6,169.7L150.6,169.7z"/>
	<path style="clip-path:url(#SVGID_00000177480426360506832700000012236500117398099584_);fill:#1A1A1A;" d="M187.5,176.1l-42,11.3
		l0.5,1.7l42-11.3L187.5,176.1z"/>
	<path style="clip-path:url(#SVGID_00000177480426360506832700000012236500117398099584_);fill:#1A1A1A;" d="M177.6,207.6
		l-31.4-20.1l-1,1.5l31.4,20.1L177.6,207.6z"/>
	<path style="clip-path:url(#SVGID_00000177480426360506832700000012236500117398099584_);fill:#1A1A1A;" d="M180.8,142.5l-15.2,6.3
		l-2-4.9l-9.9,12.9l-8-13.9l-8.2,14.2l-4.6-2.6v9.6l-16.5-2.1l14.3,24.7l-3.7,4.9l17.9-2.4l2.4,17.9l1.3-1.7l2.4-3.2l27.6,7.4
		l-6.3-15.3l9.3-2.5l-3.7-3.7l11.6-11.6l-15.4-4.1l9.9-12.9l-5.2-0.7L180.8,142.5z M178.6,145.3l-2,15l3.9,0.5l-9.6,12.6l15.1,4
		l-10.7,10.7l2.8,2.8l-8.2,2.2l5.8,13.9l-25.2-6.8l-1.9,2.4l-2-15.4l-15.4,2l1.9-2.4l-13.1-22.6l14.9,2v-8.5l3.4,2l7.6-13.1
		l7.8,13.4l9.6-12.6l1.5,3.7L178.6,145.3z"/>
	<path style="clip-path:url(#SVGID_00000177480426360506832700000012236500117398099584_);fill:#1A1A1A;" d="M146.6,144.7h-1.8v43.5
		h1.8V144.7z"/>
	<path style="clip-path:url(#SVGID_00000177480426360506832700000012236500117398099584_);fill:#1A1A1A;" d="M118.7,162.4l-1.2,1.3
		l27.5,25.1l1.2-1.3L118.7,162.4z"/>
	
		<line style="clip-path:url(#SVGID_00000177480426360506832700000012236500117398099584_);fill:none;" x1="145.7" y1="188.2" x2="179.7" y2="143.9"/>
	<path style="clip-path:url(#SVGID_00000177480426360506832700000012236500117398099584_);fill:#1A1A1A;" d="M179,143.4l-34,44.3
		l1.4,1.1l34-44.3L179,143.4z"/>
	<path style="clip-path:url(#SVGID_00000177480426360506832700000012236500117398099584_);fill:#1A1A1A;" d="M13.9,22l0.1,2.5
		c0.2,5.9,1.1,11.7,2.5,17.4c2.3,9.3,6.8,20.4,16.8,25.7s21.7,2.8,30.7-0.4c5.5-2,10.8-4.6,15.8-7.7l2-1.3v-2.4
		c-0.2-5.9-1.1-11.7-2.5-17.4C76.9,29,72.4,18,62.4,12.6s-21.7-2.8-30.7,0.4c-5.5,2-10.8,4.6-15.8,7.6L13.9,22z M22.8,26.7
		c3.8-2.2,7.8-4,11.9-5.5c8-2.9,17.4-4.3,23.7-1s10.4,12,12.4,20.2c1.1,4.3,1.8,8.6,2.1,13c-3.8,2.2-7.8,4.1-11.9,5.6
		c-8,2.9-17.4,4.3-23.7,1S26.9,48,24.8,39.7C23.8,35.5,23.1,31.1,22.8,26.7L22.8,26.7z"/>
	<path style="clip-path:url(#SVGID_00000177480426360506832700000012236500117398099584_);fill:#1A1A1A;" d="M57.8,52.4l3.5,2.1
		L85,68.8l1.8-0.5c4.8-1.4,7.6-6.5,6.2-11.3c0-0.1,0-0.1-0.1-0.2l-0.6-1.8L63.7,41.5L57.8,52.4z"/>
	<path style="clip-path:url(#SVGID_00000177480426360506832700000012236500117398099584_);fill:#EF782B;" d="M63.6,50.8l22,13.2
		c2.5-0.7,4-3.4,3.3-5.9c0,0,0-0.1,0-0.1L65.6,47.2L63.6,50.8z"/>
	<path style="clip-path:url(#SVGID_00000177480426360506832700000012236500117398099584_);fill:#1A1A1A;" d="M62.2,51.2l0.9,0.5
		l22.4,13.5l0.5-0.1c1.5-0.5,2.8-1.5,3.5-2.9c0.7-1.4,0.9-3,0.4-4.5l-0.1-0.5L65.1,45.8L62.2,51.2z M65,50.5l1-1.9l21.8,10.2
		c0.4,1.7-0.6,3.4-2.2,4.1L65,50.5z"/>
	<path style="clip-path:url(#SVGID_00000177480426360506832700000012236500117398099584_);fill:#EF782B;" d="M60.4,16.5
		c16.3,8.7,17,39.4,17,39.4s-25.8,16.6-42.1,7.9s-17-39.4-17-39.4S44.1,7.8,60.4,16.5z"/>
	<path style="clip-path:url(#SVGID_00000177480426360506832700000012236500117398099584_);fill:#F9B04E;" d="M18.3,24.4
		c0,0,0.6,30.7,17,39.4s42.1-7.9,42.1-7.9L18.3,24.4z"/>
	<path style="clip-path:url(#SVGID_00000177480426360506832700000012236500117398099584_);fill:#FFE396;" d="M44.6,65.8l0.7,0.8
		l20.6-16.9l2.6-26.5L67.3,23l-2.5,26.1L44.6,65.8z"/>
	<path style="clip-path:url(#SVGID_00000177480426360506832700000012236500117398099584_);fill:#FFE396;" d="M20.9,42.6l0.7,0.8
		l12.8-10.5L36,16.5l-1.1-0.1l-1.5,16L20.9,42.6z"/>
	<path style="clip-path:url(#SVGID_00000177480426360506832700000012236500117398099584_);fill:#FFE396;" d="M28.4,57.8l0.7,0.8
		l21.1-17.4l2.6-27.2L51.7,14l-2.6,26.8L28.4,57.8z"/>
	<path style="clip-path:url(#SVGID_00000177480426360506832700000012236500117398099584_);fill:#1A1A1A;" d="M17.2,23.8v0.6
		c0.2,5.6,1,11.2,2.4,16.7c2.2,8.9,6.5,19,15.1,23.6s19.4,2.5,28.1-0.6c5.3-1.9,10.4-4.4,15.2-7.3l0.5-0.3v-0.6
		c-0.2-5.6-1-11.2-2.4-16.7c-2.2-8.9-6.5-19-15.2-23.6S41.5,13,32.8,16.1c-5.3,1.9-10.4,4.4-15.2,7.3L17.2,23.8z M19.4,25
		c4.5-2.7,9.3-5,14.2-6.8c8.4-3,18.6-4.9,26.3-0.8S71.8,31,74,39.7c1.3,5.1,2,10.3,2.3,15.6c-4.5,2.7-9.3,5-14.2,6.8
		c-8.4,3-18.6,4.8-26.3,0.8S23.9,49.2,21.7,40.5C20.4,35.4,19.6,30.2,19.4,25z"/>
	<path style="clip-path:url(#SVGID_00000177480426360506832700000012236500117398099584_);fill:#1A1A1A;" d="M17.3,23.9
		c-0.3,0.5-0.1,1.2,0.4,1.5l59.1,31.5c0.5,0.3,1.2,0.1,1.5-0.5c0.1-0.2,0.2-0.5,0.1-0.8c-0.1-0.3-0.3-0.5-0.5-0.6L18.8,23.4
		c-0.3-0.1-0.5-0.2-0.8-0.1C17.7,23.4,17.4,23.6,17.3,23.9z"/>
	<path style="clip-path:url(#SVGID_00000177480426360506832700000012236500117398099584_);fill:#FFFFFF;" d="M150.6,0h29h16v16
		c0,7,0,14,0,21c-10.2,12.4-28.6,14.2-41,4S140.4,12.4,150.6,0z"/>
	<g style="clip-path:url(#SVGID_00000177480426360506832700000012236500117398099584_);enable-background:new    ;">
		<text transform="matrix(1 0 0 1 159.7 31.75)" class="st2 st3 st13">48</text>
	</g>
</g>
</svg>
