<?xml version="1.0" encoding="utf-8"?>
<!-- Generator: Adobe Illustrator 26.0.1, SVG Export Plug-In . SVG Version: 6.00 Build 0)  -->
<svg version="1.1" id="Слой_1" xmlns="http://www.w3.org/2000/svg" xmlns:xlink="http://www.w3.org/1999/xlink" x="0px" y="0px"
	 viewBox="0 0 195.6 280.6" style="enable-background:new 0 0 195.6 280.6;" xml:space="preserve">
<style type="text/css">
	.st0{clip-path:url(#SVGID_00000107553982983119520880000000081360047429174967_);fill:#F9B04E;}
	.st1{clip-path:url(#SVGID_00000164506107611785188850000002128397973167448207_);fill:#1A1A1A;}
	.st2{clip-path:url(#SVGID_00000109742446472676979050000000353110558776131763_);fill:#1A1A1A;}
	.st3{clip-path:url(#SVGID_00000079469724365542298580000003706621574678096256_);fill:#1A1A1A;}
	.st4{clip-path:url(#SVGID_00000175281456418200770780000012404237270596420277_);fill:#1A1A1A;}
	.st5{clip-path:url(#SVGID_00000069365315367235294060000002038472041921835148_);fill:#1A1A1A;}
	.st6{clip-path:url(#SVGID_00000037663933975431193310000008918268735790533517_);fill:#1A1A1A;}
	.st7{clip-path:url(#SVGID_00000099630222896293986830000001275358942078353295_);fill:#DBE492;}
	.st8{clip-path:url(#SVGID_00000076591974347338080770000017385555186671843765_);fill:#FFFFFF;}
	.st9{clip-path:url(#SVGID_00000083779994887336314320000010446995304025478313_);fill:#EB5A53;}
	.st10{clip-path:url(#SVGID_00000004522893256342688240000006563182339322260143_);fill:#EB5A53;}
	.st11{clip-path:url(#SVGID_00000089537867780991616830000007682964194098712731_);fill:#1A1A1A;}
	.st12{clip-path:url(#SVGID_00000134224068144265523300000006133687358836970626_);fill:#1A1A1A;}
	.st13{clip-path:url(#SVGID_00000001622484317372680310000014426067566078060695_);fill:#1A1A1A;}
	.st14{clip-path:url(#SVGID_00000157290612159378636070000014118320458758896803_);fill:#1A1A1A;}
	.st15{clip-path:url(#SVGID_00000092455602576313281600000008265649457285518484_);fill:#1A1A1A;}
	.st16{clip-path:url(#SVGID_00000041284110493936386790000011938241564894251434_);fill:#1A1A1A;}
	.st17{clip-path:url(#SVGID_00000119106683125143071310000011162216374895573694_);fill:#1A1A1A;}
	.st18{clip-path:url(#SVGID_00000010275811079678755280000014652468371138814630_);fill:#1A1A1A;}
	.st19{clip-path:url(#SVGID_00000057862508926632867330000008492578495105520565_);fill:#FFFFFF;}
	.st20{clip-path:url(#SVGID_00000127760144748041489830000018304147901286520995_);fill:#1A1A1A;}
	.st21{clip-path:url(#SVGID_00000164504508047034383450000002584416608353133243_);fill:#FFFFFF;}
	.st22{clip-path:url(#SVGID_00000132809027299304195550000015627670451375076273_);fill:#1A1A1A;}
	.st23{clip-path:url(#SVGID_00000125570671098637072780000012723152007959921294_);fill:#1A1A1A;}
	.st24{clip-path:url(#SVGID_00000020399118192299711120000010221420830010557569_);fill:#1A1A1A;}
	.st25{clip-path:url(#SVGID_00000083060017232461482150000003310144265202723501_);fill:#1A1A1A;}
	.st26{clip-path:url(#SVGID_00000003104232412161119470000012655404682275837616_);fill:#1A1A1A;}
	.st27{clip-path:url(#SVGID_00000016791706576706855240000015608993924990629514_);fill:#EF782B;}
	.st28{clip-path:url(#SVGID_00000117638479388570406740000012235919386355052214_);fill:#1A1A1A;}
	.st29{clip-path:url(#SVGID_00000174594583895578267030000014155389235584042680_);fill:#EF782B;}
	.st30{clip-path:url(#SVGID_00000030467896682946905560000011335237734076933011_);fill:#E44716;}
	.st31{clip-path:url(#SVGID_00000062157559557126596600000016583327404463087744_);fill:#F9B04E;}
	.st32{clip-path:url(#SVGID_00000045614903679092344930000010916142610350931112_);fill:#FFE396;}
	.st33{clip-path:url(#SVGID_00000000217534614557339130000017614372322093165755_);fill:#FFE396;}
	.st34{clip-path:url(#SVGID_00000051371710417706320440000017520817111540253599_);fill:#FFE396;}
	.st35{clip-path:url(#SVGID_00000005988514682339229930000003496318187128093356_);fill:#FFE396;}
	.st36{clip-path:url(#SVGID_00000163754530560746597270000004944348967026122666_);fill:#FFE396;}
	.st37{clip-path:url(#SVGID_00000016761597925993197500000012464345051815897219_);fill:#FFE396;}
	.st38{clip-path:url(#SVGID_00000152955536198216671040000010009636781242234754_);fill:#FFE396;}
	.st39{clip-path:url(#SVGID_00000015319900582587016580000016010682283554542742_);fill:#FFE396;}
	.st40{clip-path:url(#SVGID_00000004516042493252404150000008842282285945813939_);fill:#FFE396;}
	.st41{clip-path:url(#SVGID_00000017480846643549027840000003869138831425291428_);fill:#1A1A1A;}
	.st42{clip-path:url(#SVGID_00000077297140578082110950000003513019261809583244_);fill:#1A1A1A;}
	.st43{clip-path:url(#SVGID_00000048465861644934788140000015164973818505553850_);fill:#1A1A1A;}
	.st44{clip-path:url(#SVGID_00000183939561005496840690000000456428740222645177_);fill:#1A1A1A;}
	.st45{clip-path:url(#SVGID_00000097470533931838582760000017089324168449072277_);fill:#1A1A1A;}
	.st46{clip-path:url(#SVGID_00000175315308374686209580000012719724285958548894_);fill:none;}
	.st47{clip-path:url(#SVGID_00000001626903565419582490000001634389646065401766_);fill:#1A1A1A;}
	.st48{clip-path:url(#SVGID_00000082354275080152771580000014618513531860651425_);fill:#1A1A1A;}
	.st49{clip-path:url(#SVGID_00000180367358499297294070000006135418480268099714_);fill:#1A1A1A;}
	.st50{clip-path:url(#SVGID_00000090270467305963768220000012569954274006619052_);fill:#EF782B;}
	.st51{clip-path:url(#SVGID_00000014615016477783060340000008174325025711455145_);fill:#1A1A1A;}
	.st52{clip-path:url(#SVGID_00000063628618055586307260000010680604918293944981_);fill:#EF782B;}
	.st53{clip-path:url(#SVGID_00000073689367438487464160000013551608301578203045_);fill:#F9B04E;}
	.st54{clip-path:url(#SVGID_00000109004247791299323350000009500840937881972625_);fill:#FFE396;}
	.st55{clip-path:url(#SVGID_00000039827352204503021080000016543490850035603863_);fill:#FFE396;}
	.st56{clip-path:url(#SVGID_00000085952133488667739310000012924287591949544888_);fill:#FFE396;}
	.st57{clip-path:url(#SVGID_00000048458968943076136720000010172739638336796805_);fill:#1A1A1A;}
	.st58{clip-path:url(#SVGID_00000166669109555872981870000014705567449579498378_);fill:#1A1A1A;}
	.st59{clip-path:url(#SVGID_00000111157747276279787810000007839721028144222108_);fill:#FFFFFF;}
	.st60{enable-background:new    ;}
	.st61{fill:#1A1A1A;}
</style>
<g>
	<g>
		<g>
			<defs>
				<rect id="SVGID_1_" width="195.6" height="280.6"/>
			</defs>
			<clipPath id="SVGID_00000160906317940280985370000003861775463471563136_">
				<use xlink:href="#SVGID_1_"  style="overflow:visible;"/>
			</clipPath>
			
				<rect x="-282.6" y="-1.1" style="clip-path:url(#SVGID_00000160906317940280985370000003861775463471563136_);fill:#F9B04E;" width="493.6" height="290.5"/>
		</g>
	</g>
	<g>
		<g>
			<defs>
				<rect id="SVGID_00000027568550547647752080000016072570642722486925_" width="195.6" height="280.6"/>
			</defs>
			<clipPath id="SVGID_00000021818582726710098970000017190568223403799442_">
				<use xlink:href="#SVGID_00000027568550547647752080000016072570642722486925_"  style="overflow:visible;"/>
			</clipPath>
			<path style="clip-path:url(#SVGID_00000021818582726710098970000017190568223403799442_);fill:#1A1A1A;" d="M42.3,49v9.2
				c0,9.4,7.6,17,17,17s17-7.6,17-17V49H42.3z"/>
		</g>
	</g>
	<g>
		<g>
			<defs>
				<rect id="SVGID_00000045611613427321667200000010384805912378368426_" width="195.6" height="280.6"/>
			</defs>
			<clipPath id="SVGID_00000134230713805518956940000010793171605508732299_">
				<use xlink:href="#SVGID_00000045611613427321667200000010384805912378368426_"  style="overflow:visible;"/>
			</clipPath>
			<path style="clip-path:url(#SVGID_00000134230713805518956940000010793171605508732299_);fill:#1A1A1A;" d="M121.8,49v9.2
				c0,9.4,7.6,17,17,17s17-7.6,17-17V49H121.8z"/>
		</g>
	</g>
	<g>
		<g>
			<defs>
				<rect id="SVGID_00000142156490222080169300000012606273578383994545_" width="195.6" height="280.6"/>
			</defs>
			<clipPath id="SVGID_00000075867063173928206220000015039377164883866766_">
				<use xlink:href="#SVGID_00000142156490222080169300000012606273578383994545_"  style="overflow:visible;"/>
			</clipPath>
			<path style="clip-path:url(#SVGID_00000075867063173928206220000015039377164883866766_);fill:#1A1A1A;" d="M59.3,26.1
				c-9.4,0.1-16.9,7.6-17,17v9.2h34v-9.2C76.2,33.8,68.6,26.2,59.3,26.1L59.3,26.1z"/>
		</g>
	</g>
	<g>
		<g>
			<defs>
				<rect id="SVGID_00000064318198834532789870000012898034878540083639_" width="195.6" height="280.6"/>
			</defs>
			<clipPath id="SVGID_00000030478664064607145460000007160142484912966797_">
				<use xlink:href="#SVGID_00000064318198834532789870000012898034878540083639_"  style="overflow:visible;"/>
			</clipPath>
			<path style="clip-path:url(#SVGID_00000030478664064607145460000007160142484912966797_);fill:#1A1A1A;" d="M138.8,26.1
				c-9.4,0.1-16.9,7.6-17,17v9.2h34v-9.2C155.7,33.8,148.1,26.2,138.8,26.1L138.8,26.1z"/>
		</g>
	</g>
	<g>
		<g>
			<defs>
				<rect id="SVGID_00000090986412859059566780000005883581999367188104_" width="195.6" height="280.6"/>
			</defs>
			<clipPath id="SVGID_00000135654731418407241510000001011923011368324519_">
				<use xlink:href="#SVGID_00000090986412859059566780000005883581999367188104_"  style="overflow:visible;"/>
			</clipPath>
			<path style="clip-path:url(#SVGID_00000135654731418407241510000001011923011368324519_);fill:#1A1A1A;" d="M21,123.1v58.6
				c0.1,11.6,9.5,21,21.1,21.1h113.8c11.6-0.1,21-9.5,21.1-21.1v-58.6h-18.9v58.6c0.1,1.1-0.7,2.1-1.8,2.2c-0.2,0-0.3,0-0.5,0H42.1
				c-1.1,0.1-2.1-0.7-2.2-1.8c0-0.2,0-0.3,0-0.5V123L21,123.1L21,123.1z"/>
		</g>
	</g>
	<g>
		<g>
			<defs>
				<rect id="SVGID_00000106115389988395155420000000202190254947804548_" width="195.6" height="280.6"/>
			</defs>
			<clipPath id="SVGID_00000059291139170535373200000008655612975697801919_">
				<use xlink:href="#SVGID_00000106115389988395155420000000202190254947804548_"  style="overflow:visible;"/>
			</clipPath>
			<path style="clip-path:url(#SVGID_00000059291139170535373200000008655612975697801919_);fill:#1A1A1A;" d="M42.1,46.8
				c-11.6,0.1-21,9.5-21.1,21.1v58.6h18.9V67.9c-0.1-1.1,0.7-2.1,1.8-2.2c0.2,0,0.3,0,0.5,0H156c1.1-0.1,2.1,0.7,2.2,1.8
				c0,0.2,0,0.3,0,0.5v58.6H177V67.9c-0.1-11.6-9.5-21-21.1-21.1L42.1,46.8z"/>
		</g>
	</g>
	<g>
		<g>
			<defs>
				<rect id="SVGID_00000146475052419442202270000009667202885850569867_" width="195.6" height="280.6"/>
			</defs>
			<clipPath id="SVGID_00000020374241335121354390000001420866691786166186_">
				<use xlink:href="#SVGID_00000146475052419442202270000009667202885850569867_"  style="overflow:visible;"/>
			</clipPath>
			<path style="clip-path:url(#SVGID_00000020374241335121354390000001420866691786166186_);fill:#DBE492;" d="M42.1,56.2h113.8
				c6.4,0,11.7,5.2,11.7,11.6c0,0,0,0,0,0.1v113.8c0,6.4-5.2,11.7-11.6,11.7c0,0,0,0-0.1,0H42.1c-6.4,0-11.7-5.2-11.7-11.6
				c0,0,0,0,0-0.1V67.9C30.4,61.5,35.7,56.3,42.1,56.2L42.1,56.2z"/>
		</g>
	</g>
	<g>
		<g>
			<defs>
				<rect id="SVGID_00000153673890284799558160000008500983731756521371_" width="195.6" height="280.6"/>
			</defs>
			<clipPath id="SVGID_00000056392608548022839100000005230287011356042900_">
				<use xlink:href="#SVGID_00000153673890284799558160000008500983731756521371_"  style="overflow:visible;"/>
			</clipPath>
			
				<rect x="50.4" y="76.1" style="clip-path:url(#SVGID_00000056392608548022839100000005230287011356042900_);fill:#FFFFFF;" width="97.3" height="46.1"/>
		</g>
	</g>
	<g>
		<g>
			<defs>
				<rect id="SVGID_00000145058696762947741490000002965996099422057647_" width="195.6" height="280.6"/>
			</defs>
			<clipPath id="SVGID_00000111181402759401399770000006184842594875541419_">
				<use xlink:href="#SVGID_00000145058696762947741490000002965996099422057647_"  style="overflow:visible;"/>
			</clipPath>
			
				<rect x="50.4" y="121.9" style="clip-path:url(#SVGID_00000111181402759401399770000006184842594875541419_);fill:#EB5A53;" width="97.3" height="20.6"/>
		</g>
	</g>
	<g>
		<g>
			<defs>
				<rect id="SVGID_00000155867520882709021520000003594834442254799003_" width="195.6" height="280.6"/>
			</defs>
			<clipPath id="SVGID_00000131361095422311748030000013568229416534760833_">
				<use xlink:href="#SVGID_00000155867520882709021520000003594834442254799003_"  style="overflow:visible;"/>
			</clipPath>
			
				<rect x="50.4" y="140.9" style="clip-path:url(#SVGID_00000131361095422311748030000013568229416534760833_);fill:#EB5A53;" width="97.3" height="32.7"/>
		</g>
	</g>
	<g>
		<g>
			<defs>
				<rect id="SVGID_00000092436211003010100480000015945158833988296374_" width="195.6" height="280.6"/>
			</defs>
			<clipPath id="SVGID_00000084525531456872569570000011302933477432029576_">
				<use xlink:href="#SVGID_00000092436211003010100480000015945158833988296374_"  style="overflow:visible;"/>
			</clipPath>
			<path style="clip-path:url(#SVGID_00000084525531456872569570000011302933477432029576_);fill:#1A1A1A;" d="M28.1,123.1v58.6
				c0,7.7,6.3,14,14,14h113.8c7.7,0,14-6.3,14-14v-58.6h-4.7v58.6c0,5.1-4.1,9.3-9.2,9.3c-0.1,0-0.1,0-0.2,0H42.1
				c-5.1,0-9.3-4.1-9.3-9.1c0-0.1,0-0.1,0-0.2v-58.6H28.1z"/>
		</g>
	</g>
	<g>
		<g>
			<defs>
				<rect id="SVGID_00000050640471085213864900000000717299391926273197_" width="195.6" height="280.6"/>
			</defs>
			<clipPath id="SVGID_00000167397016598450216410000003044239722227647394_">
				<use xlink:href="#SVGID_00000050640471085213864900000000717299391926273197_"  style="overflow:visible;"/>
			</clipPath>
			<path style="clip-path:url(#SVGID_00000167397016598450216410000003044239722227647394_);fill:#1A1A1A;" d="M48,123.1v52.7h102
				v-52.7h-4.7v48H52.7v-48C52.7,123.1,48,123.1,48,123.1z"/>
		</g>
	</g>
	<g>
		<g>
			<defs>
				<rect id="SVGID_00000071533172321870331190000012432718547597711271_" width="195.6" height="280.6"/>
			</defs>
			<clipPath id="SVGID_00000132076580807823092000000001181036740563657112_">
				<use xlink:href="#SVGID_00000071533172321870331190000012432718547597711271_"  style="overflow:visible;"/>
			</clipPath>
			<path style="clip-path:url(#SVGID_00000132076580807823092000000001181036740563657112_);fill:#1A1A1A;" d="M42.1,53.9
				c-7.7,0-14,6.3-14,14v58.6h4.7V67.9c0-5.1,4.1-9.3,9.2-9.3h0.1h113.7c5.1,0,9.3,4.1,9.3,9.2v0.1v58.6h4.7V67.9
				c0-7.7-6.3-14-14-14H42.1z"/>
		</g>
	</g>
	<g>
		<g>
			<defs>
				<rect id="SVGID_00000108987838454125062850000016404159948049308076_" width="195.6" height="280.6"/>
			</defs>
			<clipPath id="SVGID_00000047765273896702136160000013260025980992759686_">
				<use xlink:href="#SVGID_00000108987838454125062850000016404159948049308076_"  style="overflow:visible;"/>
			</clipPath>
			
				<rect x="112.9" y="76.1" style="clip-path:url(#SVGID_00000047765273896702136160000013260025980992759686_);fill:#1A1A1A;" width="4.7" height="97.3"/>
		</g>
	</g>
	<g>
		<g>
			<defs>
				<rect id="SVGID_00000109003474562851110250000003596276397305730215_" width="195.6" height="280.6"/>
			</defs>
			<clipPath id="SVGID_00000040564404017930855000000013149569075147324842_">
				<use xlink:href="#SVGID_00000109003474562851110250000003596276397305730215_"  style="overflow:visible;"/>
			</clipPath>
			
				<rect x="80.4" y="76.1" style="clip-path:url(#SVGID_00000040564404017930855000000013149569075147324842_);fill:#1A1A1A;" width="4.7" height="97.3"/>
		</g>
	</g>
	<g>
		<g>
			<defs>
				<rect id="SVGID_00000057122254641084102910000005027140737168805538_" width="195.6" height="280.6"/>
			</defs>
			<clipPath id="SVGID_00000128466836808676596850000016733724712628109955_">
				<use xlink:href="#SVGID_00000057122254641084102910000005027140737168805538_"  style="overflow:visible;"/>
			</clipPath>
			
				<rect x="50.4" y="138.6" style="clip-path:url(#SVGID_00000128466836808676596850000016733724712628109955_);fill:#1A1A1A;" width="97.3" height="4.7"/>
		</g>
	</g>
	<g>
		<g>
			<defs>
				<rect id="SVGID_00000102534093654044547700000014496213246469196167_" width="195.6" height="280.6"/>
			</defs>
			<clipPath id="SVGID_00000163070539281979380270000018040355687797162633_">
				<use xlink:href="#SVGID_00000102534093654044547700000014496213246469196167_"  style="overflow:visible;"/>
			</clipPath>
			
				<rect x="50.4" y="106.2" style="clip-path:url(#SVGID_00000163070539281979380270000018040355687797162633_);fill:#1A1A1A;" width="97.3" height="4.7"/>
		</g>
	</g>
	<g>
		<g>
			<defs>
				<rect id="SVGID_00000003090658689128331420000001472784679108714388_" width="195.6" height="280.6"/>
			</defs>
			<clipPath id="SVGID_00000118360006855412049710000002704876732761947280_">
				<use xlink:href="#SVGID_00000003090658689128331420000001472784679108714388_"  style="overflow:visible;"/>
			</clipPath>
			<path style="clip-path:url(#SVGID_00000118360006855412049710000002704876732761947280_);fill:#1A1A1A;" d="M48,73.8v52.7h4.7
				v-48h92.6v48h4.7V73.8H48z"/>
		</g>
	</g>
	<g>
		<g>
			<defs>
				<rect id="SVGID_00000112596321156440497530000005294148837191197851_" width="195.6" height="280.6"/>
			</defs>
			<clipPath id="SVGID_00000024704764639133495650000013185825374923789713_">
				<use xlink:href="#SVGID_00000112596321156440497530000005294148837191197851_"  style="overflow:visible;"/>
			</clipPath>
			<path style="clip-path:url(#SVGID_00000024704764639133495650000013185825374923789713_);fill:#FFFFFF;" d="M59.3,35.6
				c4.2,0,7.5,3.3,7.5,7.5l0,0v15.1c0,4.2-3.4,7.5-7.5,7.5s-7.5-3.4-7.5-7.5V43.1C51.7,39,55.1,35.6,59.3,35.6
				C59.2,35.6,59.3,35.6,59.3,35.6z"/>
		</g>
	</g>
	<g>
		<g>
			<defs>
				<rect id="SVGID_00000170252083990879754380000009886460169083341472_" width="195.6" height="280.6"/>
			</defs>
			<clipPath id="SVGID_00000115512139009523782890000015960083352045414277_">
				<use xlink:href="#SVGID_00000170252083990879754380000009886460169083341472_"  style="overflow:visible;"/>
			</clipPath>
			<path style="clip-path:url(#SVGID_00000115512139009523782890000015960083352045414277_);fill:#1A1A1A;" d="M49.4,49v9.2
				c0,5.5,4.4,9.9,9.9,9.9s9.9-4.4,9.9-9.9l0,0V49h-4.7v9.2c0,2.9-2.3,5.2-5.2,5.2s-5.2-2.3-5.2-5.2l0,0V49H49.4z"/>
		</g>
	</g>
	<g>
		<g>
			<defs>
				<rect id="SVGID_00000181086931756027368360000003219464955418206894_" width="195.6" height="280.6"/>
			</defs>
			<clipPath id="SVGID_00000006692591302857730060000009139999213131614397_">
				<use xlink:href="#SVGID_00000181086931756027368360000003219464955418206894_"  style="overflow:visible;"/>
			</clipPath>
			<path style="clip-path:url(#SVGID_00000006692591302857730060000009139999213131614397_);fill:#FFFFFF;" d="M138.8,35.6
				c4.2,0,7.5,3.3,7.5,7.5l0,0v15.1c0,4.2-3.4,7.5-7.5,7.5c-4.2,0-7.5-3.4-7.5-7.5V43.1C131.2,39,134.6,35.6,138.8,35.6
				C138.7,35.6,138.7,35.6,138.8,35.6L138.8,35.6z"/>
		</g>
	</g>
	<g>
		<g>
			<defs>
				<rect id="SVGID_00000096051734926769900510000016395383800463413175_" width="195.6" height="280.6"/>
			</defs>
			<clipPath id="SVGID_00000183218668395478754680000000175219349502660741_">
				<use xlink:href="#SVGID_00000096051734926769900510000016395383800463413175_"  style="overflow:visible;"/>
			</clipPath>
			<path style="clip-path:url(#SVGID_00000183218668395478754680000000175219349502660741_);fill:#1A1A1A;" d="M128.9,49v9.2
				c0,5.5,4.4,9.9,9.9,9.9s9.9-4.4,9.9-9.9V49H144v9.2c-0.1,2.9-2.5,5.1-5.4,4.9c-2.7-0.1-4.8-2.3-4.9-4.9V49H128.9z"/>
		</g>
	</g>
	<g>
		<g>
			<defs>
				<rect id="SVGID_00000147919534829977952990000011338672941864008592_" width="195.6" height="280.6"/>
			</defs>
			<clipPath id="SVGID_00000107586902945296653580000009130111933914903707_">
				<use xlink:href="#SVGID_00000147919534829977952990000011338672941864008592_"  style="overflow:visible;"/>
			</clipPath>
			<path style="clip-path:url(#SVGID_00000107586902945296653580000009130111933914903707_);fill:#1A1A1A;" d="M59.3,33.2
				c-5.5,0-9.9,4.4-9.9,9.9v9.2h4.7v-9.2c0-2.9,2.3-5.2,5.2-5.2s5.2,2.3,5.2,5.2v9.2h4.7v-9.2C69.2,37.7,64.7,33.3,59.3,33.2z"/>
		</g>
	</g>
	<g>
		<g>
			<defs>
				<rect id="SVGID_00000057836132914982216100000011192942814167156905_" width="195.6" height="280.6"/>
			</defs>
			<clipPath id="SVGID_00000000925482157848392330000003268497394619109306_">
				<use xlink:href="#SVGID_00000057836132914982216100000011192942814167156905_"  style="overflow:visible;"/>
			</clipPath>
			<path style="clip-path:url(#SVGID_00000000925482157848392330000003268497394619109306_);fill:#1A1A1A;" d="M138.8,33.2
				c-5.5,0-9.9,4.4-9.9,9.9v9.2h4.7v-9.2c0.1-2.9,2.5-5.1,5.4-4.9c2.7,0.1,4.8,2.3,4.9,4.9v9.2h4.7v-9.2
				C148.6,37.7,144.2,33.3,138.8,33.2L138.8,33.2z"/>
		</g>
	</g>
	<g>
		<g>
			<defs>
				<rect id="SVGID_00000054962527967037163550000014295999543601573042_" width="195.6" height="280.6"/>
			</defs>
			<clipPath id="SVGID_00000115472953885884194330000012616658788493827972_">
				<use xlink:href="#SVGID_00000054962527967037163550000014295999543601573042_"  style="overflow:visible;"/>
			</clipPath>
			<path style="clip-path:url(#SVGID_00000115472953885884194330000012616658788493827972_);fill:#1A1A1A;" d="M183.1,141.1
				c-1-0.8-2.3-0.9-3.5-0.4l-11.3,4.7l-0.4-1c-0.8-1.8-2.8-2.7-4.7-1.9c-0.6,0.2-1.1,0.6-1.5,1.1l-6.5,8.5l-5.2-9
				c-1-1.7-3.1-2.3-4.8-1.3c-0.5,0.3-1,0.8-1.3,1.3l-6.1,10.6l-0.9-0.5c-1.7-1-3.9-0.4-4.9,1.3c-0.3,0.5-0.5,1.1-0.5,1.8v5
				l-11.6-1.5c-1.9-0.3-3.7,1.1-4,3c-0.1,0.8,0.1,1.6,0.4,2.3l12.5,21.6l-1.4,1.8c-1.2,1.6-0.9,3.8,0.7,5c0.7,0.6,1.7,0.8,2.6,0.7
				l13.1-1.7l1.7,13.1c0.3,1.9,2.1,3.3,4,3.1c0.9-0.1,1.8-0.6,2.4-1.4l1.4-1.8l24.1,6.5c1.9,0.5,3.8-0.7,4.3-2.6
				c0.2-0.7,0.1-1.5-0.1-2.2l-4.5-10.9l4.8-1.3c1.9-0.5,3-2.4,2.6-4.3c-0.2-0.6-0.5-1.2-1-1.7l-0.8-0.8l8.7-8.6
				c0.9-0.9,1.2-2.2,0.9-3.4s-1.3-2.2-2.5-2.5l-10.1-2.7l6.5-8.5c1.2-1.6,0.9-3.8-0.6-5c-0.5-0.4-1.1-0.6-1.7-0.7l-1.1-0.1l1.6-12.1
				C184.6,143.1,184.1,141.8,183.1,141.1L183.1,141.1z M176.6,149.5l-1.3,9.6c-0.2,1.4,0.5,2.8,1.7,3.5l-6.2,8.1
				c-1.2,1.6-0.9,3.8,0.6,5c0.4,0.3,0.8,0.5,1.3,0.6l9.3,2.5l-6.8,6.8c-1,1-1.3,2.5-0.8,3.9l-3.1,0.8c-1.9,0.5-3,2.5-2.5,4.4
				c0,0.1,0.1,0.3,0.1,0.4l3.3,7.9l-19.4-5.2c-0.4-0.1-0.7-0.1-1.1-0.1l-1.3-9.9c-0.3-1.9-2-3.3-4-3.1l0,0l-9.9,1.3
				c-0.1-0.4-0.2-0.7-0.4-1L126,167.6l8.5,1.1c1.9,0.2,3.7-1.1,4-3.1c0-0.1,0-0.3,0-0.4V162c1.4,0.2,2.8-0.5,3.5-1.8l4.8-8.3
				l4.8,8.3c0.6,1,1.7,1.7,2.8,1.8c1.2,0.1,2.3-0.4,3.1-1.4l6.2-8.1c1,1,2.5,1.3,3.9,0.8L176.6,149.5z"/>
		</g>
	</g>
	<g>
		<g>
			<defs>
				<rect id="SVGID_00000002363361303380010270000017278524253977427376_" width="195.6" height="280.6"/>
			</defs>
			<clipPath id="SVGID_00000086673431219405475230000017405855153439251090_">
				<use xlink:href="#SVGID_00000002363361303380010270000017278524253977427376_"  style="overflow:visible;"/>
			</clipPath>
			<path style="clip-path:url(#SVGID_00000086673431219405475230000017405855153439251090_);fill:#1A1A1A;" d="M145,182.3l-2.2,2.6
				l-14.7,17.2l0.2,1.6c0.5,4.1,4.2,7,8.3,6.5c0.1,0,0.1,0,0.2,0l1.5-0.2l14.8-21.4L145,182.3z"/>
		</g>
	</g>
	<g>
		<g>
			<defs>
				<rect id="SVGID_00000139257445617155846430000015310230135907450299_" width="195.6" height="280.6"/>
			</defs>
			<clipPath id="SVGID_00000007427929488259584020000005592468998429584570_">
				<use xlink:href="#SVGID_00000139257445617155846430000015310230135907450299_"  style="overflow:visible;"/>
			</clipPath>
			<path style="clip-path:url(#SVGID_00000007427929488259584020000005592468998429584570_);fill:#EF782B;" d="M145.5,187.2
				l-13.7,16c0.1,1,0.7,2,1.5,2.6s1.9,0.9,2.9,0.8l11.9-17.4L145.5,187.2z"/>
		</g>
	</g>
	<g>
		<g>
			<defs>
				<rect id="SVGID_00000117667333479134560520000010917776831941274764_" width="195.6" height="280.6"/>
			</defs>
			<clipPath id="SVGID_00000038400992640865662940000018165288851011860870_">
				<use xlink:href="#SVGID_00000117667333479134560520000010917776831941274764_"  style="overflow:visible;"/>
			</clipPath>
			<path style="clip-path:url(#SVGID_00000038400992640865662940000018165288851011860870_);fill:#1A1A1A;" d="M145.4,186l-0.5,0.6
				l-14,16.3v0.4c0.2,1.3,0.8,2.5,1.9,3.3c1,0.8,2.3,1.1,3.6,0.9l0.4-0.1l12.6-18.4L145.4,186z M145.7,188.4l1.4,1.1l-11.2,16.3
				c-0.7,0-1.4-0.2-1.9-0.6c-0.6-0.4-0.9-1-1.1-1.7L145.7,188.4z"/>
		</g>
	</g>
	<g>
		<g>
			<defs>
				<rect id="SVGID_00000010285833157543534570000001167299689152464567_" width="195.6" height="280.6"/>
			</defs>
			<clipPath id="SVGID_00000052793529557534276620000002534909249916348552_">
				<use xlink:href="#SVGID_00000010285833157543534570000001167299689152464567_"  style="overflow:visible;"/>
			</clipPath>
			<path style="clip-path:url(#SVGID_00000052793529557534276620000002534909249916348552_);fill:#EF782B;" d="M149.1,204.9l2.8-3.6
				l26.4,7.1l-6-14.6l8.8-2.4l-3.3-3.3l11.1-11.1l-15.2-4.1l9.8-12.7l-4.6-0.6l2.1-15.7l-14.6,6l-1.8-4.3l-9.8,12.7l-7.9-13.7
				l-7.9,13.7l-4-2.3v9.1l-15.7-2.1l13.7,23.7l-2.8,3.6l16.7-2.2L149.1,204.9z"/>
		</g>
	</g>
	<g>
		<g>
			<defs>
				<rect id="SVGID_00000058581379354844422240000001273383122597446554_" width="195.6" height="280.6"/>
			</defs>
			<clipPath id="SVGID_00000132784429402635206170000016707141214542083243_">
				<use xlink:href="#SVGID_00000058581379354844422240000001273383122597446554_"  style="overflow:visible;"/>
			</clipPath>
			<path style="clip-path:url(#SVGID_00000132784429402635206170000016707141214542083243_);fill:#E44716;" d="M188.9,177l-42,11.3
				l2.2,16.7l2.8-3.6l26.4,7.1l-6-14.6l8.8-2.4l-3.3-3.3L188.9,177z"/>
		</g>
	</g>
	<g>
		<g>
			<defs>
				<rect id="SVGID_00000155109042108685011540000012047058541646501779_" width="195.6" height="280.6"/>
			</defs>
			<clipPath id="SVGID_00000010297094424336267320000005888575370554117046_">
				<use xlink:href="#SVGID_00000155109042108685011540000012047058541646501779_"  style="overflow:visible;"/>
			</clipPath>
			<path style="clip-path:url(#SVGID_00000010297094424336267320000005888575370554117046_);fill:#F9B04E;" d="M180.9,143.9l-14.6,6
				l-1.8-4.3l-9.8,12.8l-7.9-13.7l-7.9,13.7l-4-2.3v9.1l-15.7-2.1l13.7,23.7l-2.8,3.6l16.7-2.2L180.9,143.9z"/>
		</g>
	</g>
	<g>
		<g>
			<defs>
				<rect id="SVGID_00000165229255441108177510000012955244639605978290_" width="195.6" height="280.6"/>
			</defs>
			<clipPath id="SVGID_00000090258971078528058230000014403410490222245534_">
				<use xlink:href="#SVGID_00000165229255441108177510000012955244639605978290_"  style="overflow:visible;"/>
			</clipPath>
			<path style="clip-path:url(#SVGID_00000090258971078528058230000014403410490222245534_);fill:#FFE396;" d="M160.1,191.4
				c-0.1-0.1-0.2-0.1-0.3-0.1l-6.7,0.9l2.3,5.6c0.1,0.2,0.4,0.3,0.6,0.2c0.2-0.1,0.3-0.3,0.2-0.6l0,0l-1.9-4.5l5.5-0.7
				c0.2,0,0.4-0.2,0.4-0.5C160.3,191.7,160.2,191.6,160.1,191.4L160.1,191.4z"/>
		</g>
	</g>
	<g>
		<g>
			<defs>
				<rect id="SVGID_00000126324557106813720790000000900896888446588054_" width="195.6" height="280.6"/>
			</defs>
			<clipPath id="SVGID_00000018235596435010166900000014478193778724640144_">
				<use xlink:href="#SVGID_00000126324557106813720790000000900896888446588054_"  style="overflow:visible;"/>
			</clipPath>
			<path style="clip-path:url(#SVGID_00000018235596435010166900000014478193778724640144_);fill:#FFE396;" d="M140.4,176.3
				c-0.1-0.1-0.2-0.1-0.3-0.1c-0.2,0-0.4,0.3-0.4,0.5l0.7,5.5l-4.9-0.6c-0.2,0-0.5,0.1-0.5,0.4c0,0.2,0.1,0.5,0.4,0.5l0,0l6,0.8
				l-0.9-6.7C140.5,176.5,140.4,176.4,140.4,176.3L140.4,176.3z"/>
		</g>
	</g>
	<g>
		<g>
			<defs>
				<rect id="SVGID_00000068672296386497315140000004082060437859563650_" width="195.6" height="280.6"/>
			</defs>
			<clipPath id="SVGID_00000075853807754973438540000013621458671658919068_">
				<use xlink:href="#SVGID_00000068672296386497315140000004082060437859563650_"  style="overflow:visible;"/>
			</clipPath>
			<path style="clip-path:url(#SVGID_00000075853807754973438540000013621458671658919068_);fill:#FFE396;" d="M168.6,167.7
				c-0.1-0.1-0.2-0.1-0.4-0.1l-6.9,1.8v-7.1c0-0.2-0.3-0.4-0.5-0.4s-0.3,0.2-0.4,0.4v8.3l8-2.1c0.2-0.1,0.4-0.3,0.3-0.6
				C168.7,167.8,168.7,167.7,168.6,167.7L168.6,167.7z"/>
		</g>
	</g>
	<g>
		<g>
			<defs>
				<rect id="SVGID_00000111874056872171368570000018217962454100239267_" width="195.6" height="280.6"/>
			</defs>
			<clipPath id="SVGID_00000078748559915992824470000011319022408632174502_">
				<use xlink:href="#SVGID_00000111874056872171368570000018217962454100239267_"  style="overflow:visible;"/>
			</clipPath>
			<path style="clip-path:url(#SVGID_00000078748559915992824470000011319022408632174502_);fill:#FFE396;" d="M162.2,176
				c-0.1-0.1-0.2-0.1-0.4-0.1l-6.9,1.8v-7.1c0-0.2-0.3-0.4-0.5-0.4s-0.3,0.2-0.4,0.4v8.3l8-2.1c0.2-0.1,0.4-0.3,0.3-0.5l0,0
				C162.3,176.1,162.3,176.1,162.2,176L162.2,176z"/>
		</g>
	</g>
	<g>
		<g>
			<defs>
				<rect id="SVGID_00000074412443872585752340000003610210184929468051_" width="195.6" height="280.6"/>
			</defs>
			<clipPath id="SVGID_00000009589808842837456020000012828296956737090463_">
				<use xlink:href="#SVGID_00000074412443872585752340000003610210184929468051_"  style="overflow:visible;"/>
			</clipPath>
			<path style="clip-path:url(#SVGID_00000009589808842837456020000012828296956737090463_);fill:#FFE396;" d="M175,159.3
				c-0.1-0.1-0.2-0.1-0.4-0.1l-6.9,1.8v-7c0-0.2-0.2-0.4-0.4-0.4s-0.4,0.2-0.4,0.4v8.3l8-2.1c0.2-0.1,0.4-0.3,0.3-0.5l0,0
				C175.2,159.5,175.1,159.4,175,159.3L175,159.3z"/>
		</g>
	</g>
	<g>
		<g>
			<defs>
				<rect id="SVGID_00000129196934572022661070000018025474560808959881_" width="195.6" height="280.6"/>
			</defs>
			<clipPath id="SVGID_00000087386503275066500350000008631213242944900246_">
				<use xlink:href="#SVGID_00000129196934572022661070000018025474560808959881_"  style="overflow:visible;"/>
			</clipPath>
			<path style="clip-path:url(#SVGID_00000087386503275066500350000008631213242944900246_);fill:#FFE396;" d="M173.6,175.9
				c-0.2-0.1-0.5-0.1-0.6,0.1l-5,6.6l7.6,3.2c0.2,0.1,0.5,0,0.6-0.2l0,0c0.1-0.2,0-0.5-0.2-0.6l0,0l-6.6-2.7l4.3-5.6
				C173.9,176.4,173.9,176.1,173.6,175.9C173.7,175.9,173.7,175.9,173.6,175.9L173.6,175.9z"/>
		</g>
	</g>
	<g>
		<g>
			<defs>
				<rect id="SVGID_00000181046259666485757650000004177053560327609776_" width="195.6" height="280.6"/>
			</defs>
			<clipPath id="SVGID_00000031913482142693939400000008888322558233118082_">
				<use xlink:href="#SVGID_00000181046259666485757650000004177053560327609776_"  style="overflow:visible;"/>
			</clipPath>
			<path style="clip-path:url(#SVGID_00000031913482142693939400000008888322558233118082_);fill:#FFE396;" d="M163.5,178.6
				c-0.2-0.1-0.5-0.1-0.6,0.1l0,0l-5,6.6l7.6,3.2c0.2,0.1,0.5,0,0.6-0.2s0-0.5-0.2-0.6l0,0l-6.6-2.7l4.3-5.6
				C163.8,179.1,163.7,178.8,163.5,178.6L163.5,178.6z"/>
		</g>
	</g>
	<g>
		<g>
			<defs>
				<rect id="SVGID_00000041981614745933035690000006379883319499663025_" width="195.6" height="280.6"/>
			</defs>
			<clipPath id="SVGID_00000172425495827014200100000012393387529506064260_">
				<use xlink:href="#SVGID_00000041981614745933035690000006379883319499663025_"  style="overflow:visible;"/>
			</clipPath>
			<path style="clip-path:url(#SVGID_00000172425495827014200100000012393387529506064260_);fill:#FFE396;" d="M151.9,159.2
				c-0.2-0.2-0.5-0.1-0.6,0.1l-4.3,5.6l-4.3-5.6c-0.2-0.2-0.5-0.2-0.6,0c-0.1,0.1-0.2,0.4-0.1,0.5l5,6.6l5-6.6
				C152,159.6,152,159.4,151.9,159.2C151.8,159.2,151.8,159.2,151.9,159.2L151.9,159.2z"/>
		</g>
	</g>
	<g>
		<g>
			<defs>
				<rect id="SVGID_00000056410283169514749530000018110406572699785120_" width="195.6" height="280.6"/>
			</defs>
			<clipPath id="SVGID_00000181776489934476236270000010985952049253169545_">
				<use xlink:href="#SVGID_00000056410283169514749530000018110406572699785120_"  style="overflow:visible;"/>
			</clipPath>
			<path style="clip-path:url(#SVGID_00000181776489934476236270000010985952049253169545_);fill:#FFE396;" d="M151.9,169.7
				c-0.2-0.1-0.5-0.1-0.6,0.1l0,0l-4.3,5.6l-4.3-5.6c-0.2-0.2-0.4-0.2-0.6,0c-0.2,0.1-0.2,0.4-0.1,0.6l5,6.6l5-6.6
				C152,170.1,152,169.8,151.9,169.7L151.9,169.7L151.9,169.7z"/>
		</g>
	</g>
	<g>
		<g>
			<defs>
				<rect id="SVGID_00000093166773193647947780000015132679494778135737_" width="195.6" height="280.6"/>
			</defs>
			<clipPath id="SVGID_00000093178626297432227630000007420695774983753914_">
				<use xlink:href="#SVGID_00000093166773193647947780000015132679494778135737_"  style="overflow:visible;"/>
			</clipPath>
			<path style="clip-path:url(#SVGID_00000093178626297432227630000007420695774983753914_);fill:#1A1A1A;" d="M188.7,176.1
				l-42,11.3l0.5,1.7l42-11.3L188.7,176.1z"/>
		</g>
	</g>
	<g>
		<g>
			<defs>
				<rect id="SVGID_00000012433474695826039520000004947193475640766103_" width="195.6" height="280.6"/>
			</defs>
			<clipPath id="SVGID_00000112590887713744946740000010209193551315768510_">
				<use xlink:href="#SVGID_00000012433474695826039520000004947193475640766103_"  style="overflow:visible;"/>
			</clipPath>
			<path style="clip-path:url(#SVGID_00000112590887713744946740000010209193551315768510_);fill:#1A1A1A;" d="M178.8,207.6
				l-31.4-20.1l-1,1.5l31.4,20.1L178.8,207.6z"/>
		</g>
	</g>
	<g>
		<g>
			<defs>
				<rect id="SVGID_00000085226515604421940310000006593188736995378587_" width="195.6" height="280.6"/>
			</defs>
			<clipPath id="SVGID_00000102517186997166650950000011388223975483882368_">
				<use xlink:href="#SVGID_00000085226515604421940310000006593188736995378587_"  style="overflow:visible;"/>
			</clipPath>
			<path style="clip-path:url(#SVGID_00000102517186997166650950000011388223975483882368_);fill:#1A1A1A;" d="M182,142.5l-15.2,6.3
				l-2-4.9l-9.9,12.9l-8-13.9l-8.2,14.2l-4.6-2.6v9.6l-16.4-2.1l14.3,24.7l-3.8,4.9l17.9-2.4l2.4,17.9l1.3-1.7l2.4-3.2l27.6,7.4
				l-6.3-15.3l9.3-2.5l-3.8-3.7l11.6-11.6l-15.5-4.1l9.9-12.9l-5.2-0.7L182,142.5z M179.8,145.3l-2,15l3.9,0.5l-9.6,12.6l15,4
				l-10.7,10.7l2.8,2.8l-8.2,2.2l5.8,13.9l-25.2-6.8l-1.9,2.4l-2-15.4l-15.4,2l1.9-2.4L121,164.2l14.9,2v-8.5l3.4,2l7.6-13.1
				l7.8,13.4l9.6-12.6l1.5,3.7L179.8,145.3z"/>
		</g>
	</g>
	<g>
		<g>
			<defs>
				<rect id="SVGID_00000039820883815212906080000005860321418810761128_" width="195.6" height="280.6"/>
			</defs>
			<clipPath id="SVGID_00000119112571703079671070000002924008944894038944_">
				<use xlink:href="#SVGID_00000039820883815212906080000005860321418810761128_"  style="overflow:visible;"/>
			</clipPath>
			<path style="clip-path:url(#SVGID_00000119112571703079671070000002924008944894038944_);fill:#1A1A1A;" d="M147.8,144.7H146
				v43.5h1.8V144.7z"/>
		</g>
	</g>
	<g>
		<g>
			<defs>
				<rect id="SVGID_00000042719664149157387220000005956200633074084486_" width="195.6" height="280.6"/>
			</defs>
			<clipPath id="SVGID_00000147186999344432577160000016869269609138290316_">
				<use xlink:href="#SVGID_00000042719664149157387220000005956200633074084486_"  style="overflow:visible;"/>
			</clipPath>
			<path style="clip-path:url(#SVGID_00000147186999344432577160000016869269609138290316_);fill:#1A1A1A;" d="M120,162.4l-1.2,1.3
				l27.6,25.1l1.2-1.3L120,162.4z"/>
		</g>
	</g>
	<g>
		<g>
			<defs>
				<rect id="SVGID_00000053525190443091340280000017476748750951704990_" width="195.6" height="280.6"/>
			</defs>
			<clipPath id="SVGID_00000036952020888842264350000016222742745301372329_">
				<use xlink:href="#SVGID_00000053525190443091340280000017476748750951704990_"  style="overflow:visible;"/>
			</clipPath>
			
				<line style="clip-path:url(#SVGID_00000036952020888842264350000016222742745301372329_);fill:none;" x1="146.9" y1="188.2" x2="180.9" y2="143.9"/>
		</g>
	</g>
	<g>
		<g>
			<defs>
				<rect id="SVGID_00000158723808694927313240000007408288423189820311_" width="195.6" height="280.6"/>
			</defs>
			<clipPath id="SVGID_00000124130017347250068750000004457736462348300419_">
				<use xlink:href="#SVGID_00000158723808694927313240000007408288423189820311_"  style="overflow:visible;"/>
			</clipPath>
			<path style="clip-path:url(#SVGID_00000124130017347250068750000004457736462348300419_);fill:#1A1A1A;" d="M180.2,143.4
				l-34,44.3l1.4,1.1l34-44.3L180.2,143.4z"/>
		</g>
	</g>
	<g>
		<g>
			<defs>
				<rect id="SVGID_00000075120722064362651150000018380442650412529084_" width="195.6" height="280.6"/>
			</defs>
			<clipPath id="SVGID_00000137090437216288356330000005160434907496919170_">
				<use xlink:href="#SVGID_00000075120722064362651150000018380442650412529084_"  style="overflow:visible;"/>
			</clipPath>
			<path style="clip-path:url(#SVGID_00000137090437216288356330000005160434907496919170_);fill:#1A1A1A;" d="M15.1,22l0.1,2.4
				c0.2,5.9,1.1,11.7,2.5,17.4c2.3,9.3,6.8,20.4,16.8,25.7s21.7,2.8,30.7-0.4c5.5-2,10.8-4.6,15.8-7.7l2-1.3v-2.4
				c-0.2-5.9-1.1-11.7-2.5-17.4C78.1,29,73.7,18,63.7,12.6S42,9.8,33,13.1c-5.5,2-10.8,4.6-15.8,7.6L15.1,22z M24,26.8
				c3.8-2.2,7.8-4,11.9-5.5c8-2.9,17.4-4.3,23.7-1S70,32.2,72,40.5c1.1,4.3,1.7,8.6,2.1,13c-3.8,2.2-7.8,4-11.9,5.5
				c-8,2.9-17.4,4.3-23.7,1S28.1,48,26,39.7C25,35.5,24.3,31.1,24,26.8L24,26.8z"/>
		</g>
	</g>
	<g>
		<g>
			<defs>
				<rect id="SVGID_00000111176220739932641630000008682509859973526952_" width="195.6" height="280.6"/>
			</defs>
			<clipPath id="SVGID_00000039114168585543480250000007633805402569268137_">
				<use xlink:href="#SVGID_00000111176220739932641630000008682509859973526952_"  style="overflow:visible;"/>
			</clipPath>
			<path style="clip-path:url(#SVGID_00000039114168585543480250000007633805402569268137_);fill:#1A1A1A;" d="M59.1,52.4l3.5,2.1
				l23.6,14.2l1.8-0.5c4.8-1.4,7.6-6.5,6.2-11.3c0-0.1,0-0.1-0.1-0.2l-0.6-1.8L64.8,41.5L59.1,52.4z"/>
		</g>
	</g>
	<g>
		<g>
			<defs>
				<rect id="SVGID_00000160161165742101480150000013101309029409698995_" width="195.6" height="280.6"/>
			</defs>
			<clipPath id="SVGID_00000013182027772974664150000009915966909444182927_">
				<use xlink:href="#SVGID_00000160161165742101480150000013101309029409698995_"  style="overflow:visible;"/>
			</clipPath>
			<path style="clip-path:url(#SVGID_00000013182027772974664150000009915966909444182927_);fill:#EF782B;" d="M64.8,50.8l22,13.2
				c2.5-0.8,4-3.4,3.2-6v-0.1L66.8,47.2L64.8,50.8z"/>
		</g>
	</g>
	<g>
		<g>
			<defs>
				<rect id="SVGID_00000032629325815869135290000005005216623913047171_" width="195.6" height="280.6"/>
			</defs>
			<clipPath id="SVGID_00000026850611988289075430000002377941216379530661_">
				<use xlink:href="#SVGID_00000032629325815869135290000005005216623913047171_"  style="overflow:visible;"/>
			</clipPath>
			<path style="clip-path:url(#SVGID_00000026850611988289075430000002377941216379530661_);fill:#1A1A1A;" d="M63.4,51.2l0.9,0.5
				l22.4,13.5l0.4-0.1c3.1-0.9,4.9-4.1,4.1-7.2c0-0.1,0-0.1-0.1-0.2L91,57.2L66.3,45.8L63.4,51.2z M66.2,50.5l1-1.9L89,58.8
				c0.4,1.7-0.6,3.4-2.2,4.1L66.2,50.5z"/>
		</g>
	</g>
	<g>
		<g>
			<defs>
				<rect id="SVGID_00000020375864254394134500000003307991596824992178_" width="195.6" height="280.6"/>
			</defs>
			<clipPath id="SVGID_00000085240329122714320090000017523652807586316470_">
				<use xlink:href="#SVGID_00000020375864254394134500000003307991596824992178_"  style="overflow:visible;"/>
			</clipPath>
			<path style="clip-path:url(#SVGID_00000085240329122714320090000017523652807586316470_);fill:#EF782B;" d="M61.6,16.5
				c16.3,8.7,17,39.4,17,39.4s-25.8,16.6-42.1,7.9s-17-39.4-17-39.4S45.3,7.8,61.6,16.5z"/>
		</g>
	</g>
	<g>
		<g>
			<defs>
				<rect id="SVGID_00000126311663521331368940000008559064775435692452_" width="195.6" height="280.6"/>
			</defs>
			<clipPath id="SVGID_00000040545368877339055170000004807996430996060071_">
				<use xlink:href="#SVGID_00000126311663521331368940000008559064775435692452_"  style="overflow:visible;"/>
			</clipPath>
			<path style="clip-path:url(#SVGID_00000040545368877339055170000004807996430996060071_);fill:#F9B04E;" d="M19.5,24.4
				c0,0,0.6,30.7,17,39.4s42.1-7.9,42.1-7.9L19.5,24.4z"/>
		</g>
	</g>
	<g>
		<g>
			<defs>
				<rect id="SVGID_00000078022481719267582610000012027942403687217792_" width="195.6" height="280.6"/>
			</defs>
			<clipPath id="SVGID_00000182494241292065213680000007602125264615019652_">
				<use xlink:href="#SVGID_00000078022481719267582610000012027942403687217792_"  style="overflow:visible;"/>
			</clipPath>
			<path style="clip-path:url(#SVGID_00000182494241292065213680000007602125264615019652_);fill:#FFE396;" d="M45.8,65.8l0.7,0.8
				l20.6-16.9l2.6-26.5L68.6,23L66,49.1L45.8,65.8z"/>
		</g>
	</g>
	<g>
		<g>
			<defs>
				<rect id="SVGID_00000095313532036171157240000010519390716808703883_" width="195.6" height="280.6"/>
			</defs>
			<clipPath id="SVGID_00000147220145110635370870000005984946059883050882_">
				<use xlink:href="#SVGID_00000095313532036171157240000010519390716808703883_"  style="overflow:visible;"/>
			</clipPath>
			<path style="clip-path:url(#SVGID_00000147220145110635370870000005984946059883050882_);fill:#FFE396;" d="M22.1,42.6l0.7,0.8
				l12.8-10.5l1.6-16.5l-1.1-0.1l-1.5,16L22.1,42.6z"/>
		</g>
	</g>
	<g>
		<g>
			<defs>
				<rect id="SVGID_00000023248848790052537810000017898190103351949450_" width="195.6" height="280.6"/>
			</defs>
			<clipPath id="SVGID_00000017474322661113948540000017664083717256983980_">
				<use xlink:href="#SVGID_00000023248848790052537810000017898190103351949450_"  style="overflow:visible;"/>
			</clipPath>
			<path style="clip-path:url(#SVGID_00000017474322661113948540000017664083717256983980_);fill:#FFE396;" d="M29.6,57.8l0.7,0.8
				l21.1-17.4L54,14.1L52.9,14l-2.6,26.8L29.6,57.8z"/>
		</g>
	</g>
	<g>
		<g>
			<defs>
				<rect id="SVGID_00000156585222838044101400000005008012710939647411_" width="195.6" height="280.6"/>
			</defs>
			<clipPath id="SVGID_00000060728017497323134280000008326270610961180826_">
				<use xlink:href="#SVGID_00000156585222838044101400000005008012710939647411_"  style="overflow:visible;"/>
			</clipPath>
			<path style="clip-path:url(#SVGID_00000060728017497323134280000008326270610961180826_);fill:#1A1A1A;" d="M18.4,23.8v0.6
				c0.2,5.6,1,11.2,2.4,16.7C23,50,27.3,60.1,36,64.7s19.4,2.5,28-0.6c5.3-1.9,10.4-4.4,15.2-7.3l0.5-0.3v-0.6
				c-0.2-5.6-1-11.2-2.4-16.7c-2.2-8.9-6.5-19-15.2-23.6s-19.4-2.6-28,0.5c-5.3,1.9-10.4,4.4-15.2,7.3L18.4,23.8z M20.6,25
				c4.5-2.7,9.3-5,14.2-6.8c8.4-3,18.6-4.9,26.3-0.8S73,31,75.2,39.7c1.3,5.1,2,10.3,2.3,15.6c-4.5,2.7-9.3,5-14.2,6.8
				c-8.4,3-18.6,4.8-26.3,0.8S25.1,49.2,22.9,40.5C21.6,35.4,20.9,30.2,20.6,25z"/>
		</g>
	</g>
	<g>
		<g>
			<defs>
				<rect id="SVGID_00000057120410665367991930000002367300351872926641_" width="195.6" height="280.6"/>
			</defs>
			<clipPath id="SVGID_00000085250309449909613520000008674985165681060768_">
				<use xlink:href="#SVGID_00000057120410665367991930000002367300351872926641_"  style="overflow:visible;"/>
			</clipPath>
			<path style="clip-path:url(#SVGID_00000085250309449909613520000008674985165681060768_);fill:#1A1A1A;" d="M18.5,23.9
				c-0.3,0.5-0.1,1.2,0.5,1.5l0,0l59.1,31.5c0.5,0.3,1.2,0.1,1.5-0.4l0,0c0.1-0.2,0.2-0.5,0.1-0.8s-0.3-0.5-0.5-0.6L20,23.4
				c-0.3-0.1-0.5-0.2-0.8-0.1C18.9,23.4,18.7,23.6,18.5,23.9z"/>
		</g>
	</g>
	<g>
		<g>
			<defs>
				<rect id="SVGID_00000115477919670643127540000006147908876681646497_" width="195.6" height="280.6"/>
			</defs>
			<clipPath id="SVGID_00000081639628600680420450000014283956428447647128_">
				<use xlink:href="#SVGID_00000115477919670643127540000006147908876681646497_"  style="overflow:visible;"/>
			</clipPath>
			<path style="clip-path:url(#SVGID_00000081639628600680420450000014283956428447647128_);fill:#FFFFFF;" d="M150.6,0h29h16v16
				c0,7,0,14,0,21c-10.2,12.4-28.6,14.2-41,4S140.4,12.4,150.6,0z"/>
		</g>
	</g>
	<g>
		<g>
			<defs>
				<rect id="SVGID_00000155136208699019910250000015326565562661494164_" width="195.6" height="280.6"/>
			</defs>
			<clipPath id="SVGID_00000016044009934019701370000009228911482088370584_">
				<use xlink:href="#SVGID_00000155136208699019910250000015326565562661494164_"  style="overflow:visible;"/>
			</clipPath>
		</g>
	</g>
</g>
<g class="st60">
	<path class="st61" d="M41,216.9h5.8c3.8,0,6.3,0.2,7.7,0.5c1.3,0.3,2.3,0.9,3,1.7s1.1,1.7,1.3,2.6c0.2,1,0.3,2.9,0.3,5.7V238
		c0,2.7-0.1,4.5-0.4,5.4c-0.3,0.9-0.7,1.6-1.3,2.1s-1.4,0.9-2.3,1.1c-0.9,0.2-2.3,0.3-4.2,0.3H41V216.9z M48.8,222v19.8
		c1.1,0,1.8-0.2,2.1-0.7s0.4-1.7,0.4-3.7v-11.7c0-1.4,0-2.2-0.1-2.6c-0.1-0.4-0.3-0.7-0.6-0.8C50.3,222.1,49.7,222,48.8,222z"/>
	<path class="st61" d="M78.7,230.9v6c0,2.2-0.1,3.8-0.3,4.9c-0.2,1-0.7,2-1.4,2.9c-0.7,0.9-1.7,1.6-2.8,2c-1.1,0.4-2.5,0.6-3.9,0.6
		c-1.7,0-3.1-0.2-4.2-0.5c-1.2-0.4-2-0.9-2.7-1.7c-0.6-0.7-1.1-1.6-1.4-2.7c-0.3-1-0.4-2.6-0.4-4.7v-6.3c0-2.3,0.2-4.1,0.7-5.4
		c0.5-1.3,1.4-2.3,2.7-3.1c1.3-0.8,2.9-1.2,4.9-1.2c1.7,0,3.1,0.3,4.3,0.8c1.2,0.5,2.1,1.2,2.8,2c0.7,0.8,1.1,1.6,1.3,2.5
		S78.7,229.2,78.7,230.9z M71.3,229.1c0-1.3-0.1-2.1-0.2-2.4c-0.1-0.3-0.4-0.5-0.9-0.5s-0.7,0.2-0.9,0.5c-0.1,0.3-0.2,1.1-0.2,2.4
		v11.1c0,1.2,0.1,1.9,0.2,2.3c0.1,0.4,0.4,0.5,0.9,0.5c0.4,0,0.7-0.2,0.9-0.5c0.1-0.3,0.2-1,0.2-2.1V229.1z"/>
	<path class="st61" d="M92.9,222.3v5.5L87.4,242h5.5v4.9H80.1v-5.2l5.6-14.5h-5.1v-4.9H92.9z M89,215.8v4.8h-4.8v-4.8H89z"/>
	<path class="st61" d="M110.2,222.3l-2.1,17.8c-0.3,2.8-0.6,4.7-0.9,5.8c-0.2,1-0.6,1.9-1.1,2.5c-0.5,0.7-1.3,1.2-2.2,1.5
		c-0.9,0.3-2.5,0.5-4.5,0.5h-4.5v-3.9c1.2,0,1.9-0.1,2.2-0.2c0.3-0.1,0.5-0.4,0.5-0.8c0-0.2-0.2-1.1-0.5-2.6L93,222.3h6.8l2.5,16.6
		l1.2-16.6H110.2z"/>
	<path class="st61" d="M119.2,222.3l-0.1,2.3c0.5-0.9,1.2-1.6,2-2s1.7-0.7,2.7-0.7c1.3,0,2.3,0.3,3.2,0.9c0.8,0.6,1.3,1.4,1.6,2.3
		c0.2,0.9,0.4,2.5,0.4,4.6V247h-7.5v-17.1c0-1.7-0.1-2.7-0.2-3.1s-0.4-0.6-0.9-0.6s-0.9,0.2-1,0.6c-0.1,0.4-0.2,1.6-0.2,3.4v16.6
		h-7.5v-24.6h7.5V222.3z"/>
	<path class="st61" d="M147.6,222.3l-3,9.8l4,14.8h-7.2l-2.3-10.7v10.7h-7.5v-30h7.5v12.6l2.3-7.2L147.6,222.3L147.6,222.3z"/>
	<path class="st61" d="M157.3,216.9v3.9h-7.7v-3.9H157.3z M157.3,222.3v24.6h-7.7v-24.6H157.3z"/>
</g>
<g class="st60">
	<path class="st61" d="M168.5,15.9v10.3h1.1V29h-1.1v2.8h-3.9V29h-4.7v-2.7l3.4-10.3H168.5z M164.5,26.3v-6.7l-1.7,6.7H164.5z"/>
	<path class="st61" d="M177.9,22.8c0.6,0.2,1,0.6,1.3,1.1s0.5,1.6,0.5,3.3c0,1.3-0.1,2.2-0.4,2.8c-0.2,0.6-0.7,1.1-1.4,1.5
		c-0.7,0.4-1.7,0.6-2.9,0.6c-1.2,0-2.1-0.2-2.8-0.6s-1.2-0.9-1.5-1.5c-0.3-0.6-0.4-1.6-0.4-3.1c0-1,0.1-1.8,0.2-2.5s0.6-1.3,1.4-1.7
		c-0.5-0.2-0.9-0.6-1.1-1.1s-0.4-1.2-0.4-1.9c0-1.4,0.4-2.4,1.1-3.1c0.8-0.7,1.9-1,3.4-1c1.7,0,2.9,0.4,3.6,1.1c0.7,0.7,1,1.8,1,3.1
		c0,0.9-0.1,1.5-0.3,1.8C179,22,178.6,22.4,177.9,22.8z M175.8,26c0-0.6-0.1-1-0.2-1.2c-0.1-0.2-0.3-0.3-0.6-0.3
		c-0.3,0-0.4,0.1-0.6,0.3c-0.1,0.2-0.2,0.6-0.2,1.2V28c0,0.7,0.1,1.1,0.2,1.3s0.3,0.3,0.6,0.3c0.3,0,0.5-0.1,0.6-0.3
		s0.1-0.6,0.1-1.3V26z M175.7,19.4c0-0.5,0-0.9-0.1-1.1c-0.1-0.2-0.3-0.3-0.5-0.3c-0.3,0-0.4,0.1-0.5,0.3c-0.1,0.2-0.1,0.5-0.1,1
		v1.2c0,0.5,0.1,0.8,0.2,1c0.1,0.2,0.3,0.3,0.5,0.3c0.3,0,0.4-0.1,0.5-0.3c0.1-0.2,0.1-0.5,0.1-1.1V19.4z"/>
</g>
</svg>
