<?xml version="1.0" encoding="utf-8"?>
<!-- Generator: Adobe Illustrator 26.0.1, SVG Export Plug-In . SVG Version: 6.00 Build 0)  -->
<svg version="1.1" id="Слой_1" xmlns="http://www.w3.org/2000/svg" xmlns:xlink="http://www.w3.org/1999/xlink" x="0px" y="0px"
	 viewBox="0 0 195.6 280.6" style="enable-background:new 0 0 195.6 280.6;" xml:space="preserve">
<style type="text/css">
	.st0{clip-path:url(#SVGID_00000103228002286764759330000015747407102715191209_);fill:#FFFFFF;}
	.st1{enable-background:new    ;}
	.st2{fill:#1A1A1A;}
	.st3{clip-path:url(#SVGID_00000128460228825946691600000001325939490061404343_);fill:#1A1A1A;}
	.st4{clip-path:url(#SVGID_00000149357919573542125980000017377955874371786132_);fill:#1A1A1A;}
	.st5{clip-path:url(#SVGID_00000017511960599105790540000001846726580197937566_);fill:#1A1A1A;}
	.st6{clip-path:url(#SVGID_00000005981785268071452090000016086822999301752461_);fill:#1A1A1A;}
	.st7{clip-path:url(#SVGID_00000006673382316064051010000006924988203819905936_);fill:#1A1A1A;}
	.st8{clip-path:url(#SVGID_00000096773349428184342790000013813787662369367453_);fill:#1A1A1A;}
	.st9{clip-path:url(#SVGID_00000052094856804098220360000000520844529165252248_);fill:#DBE492;}
	.st10{clip-path:url(#SVGID_00000147214321017214087270000008481381396298804150_);fill:#FFFFFF;}
	.st11{clip-path:url(#SVGID_00000088131696194540930050000017994939981840774815_);fill:#FFFFFF;}
	.st12{clip-path:url(#SVGID_00000054951945994150965420000005737821054401857152_);fill:#EB5A53;}
	.st13{clip-path:url(#SVGID_00000082343142192160522040000018363122705315144068_);fill:#1A1A1A;}
	.st14{clip-path:url(#SVGID_00000127027185316529559960000014536551580333308044_);fill:#1A1A1A;}
	.st15{clip-path:url(#SVGID_00000022561500990496526550000002781238829371245698_);fill:#1A1A1A;}
	.st16{clip-path:url(#SVGID_00000129165224010826761490000016731813587072408755_);fill:#1A1A1A;}
	.st17{clip-path:url(#SVGID_00000090273505775520760410000001604381312525279877_);fill:#1A1A1A;}
	.st18{clip-path:url(#SVGID_00000165216734177326038380000004689743825639398582_);fill:#1A1A1A;}
	.st19{clip-path:url(#SVGID_00000067931770912344052810000002118609978293320890_);fill:#1A1A1A;}
	.st20{clip-path:url(#SVGID_00000055667377349088097060000006285639799675006646_);fill:#1A1A1A;}
	.st21{clip-path:url(#SVGID_00000131355274956927160410000015745301897337034666_);fill:#FFFFFF;}
	.st22{clip-path:url(#SVGID_00000134940967116232435830000006015567113625712032_);fill:#1A1A1A;}
	.st23{clip-path:url(#SVGID_00000091694418266405071240000000406037417147551913_);fill:#FFFFFF;}
	.st24{clip-path:url(#SVGID_00000009591972570056132360000005822364883904734858_);fill:#1A1A1A;}
	.st25{clip-path:url(#SVGID_00000013162727786675676460000014792992652760612238_);fill:#1A1A1A;}
	.st26{clip-path:url(#SVGID_00000080188984302511778880000007078778737674515598_);fill:#1A1A1A;}
	.st27{clip-path:url(#SVGID_00000013154867629773098540000010528902015961045410_);fill:#EB5A53;}
	.st28{fill:#FFFFFF;}
</style>
<g>
	<g>
		<g>
			<defs>
				<rect id="SVGID_1_" width="195.6" height="280.6"/>
			</defs>
			<clipPath id="SVGID_00000145023792014856796900000003617442700213872769_">
				<use xlink:href="#SVGID_1_"  style="overflow:visible;"/>
			</clipPath>
			
				<rect x="-282.6" y="-1.1" style="clip-path:url(#SVGID_00000145023792014856796900000003617442700213872769_);fill:#FFFFFF;" width="493.6" height="290.5"/>
		</g>
	</g>
	<g class="st1">
		<path class="st2" d="M49.1,211.9h5.8c3.8,0,6.3,0.2,7.7,0.5c1.3,0.3,2.3,0.9,3,1.7s1.1,1.7,1.3,2.6c0.2,1,0.3,2.9,0.3,5.7V233
			c0,2.7-0.1,4.5-0.4,5.4s-0.7,1.6-1.3,2.1c-0.6,0.5-1.4,0.9-2.3,1.1c-0.9,0.2-2.3,0.3-4.2,0.3h-9.9V211.9z M56.9,217v19.8
			c1.1,0,1.8-0.2,2.1-0.7s0.4-1.7,0.4-3.7v-11.7c0-1.4,0-2.2-0.1-2.6c-0.1-0.4-0.3-0.7-0.6-0.8C58.3,217.1,57.7,217,56.9,217z"/>
		<path class="st2" d="M81.5,217.3v5.5L76,237h5.5v4.9H68.7v-5.2l5.6-14.5h-5.1v-4.9H81.5z"/>
		<path class="st2" d="M90.9,211.9v3.9h-7.7v-3.9H90.9z M90.9,217.3v24.6h-7.7v-24.6H90.9z"/>
		<path class="st2" d="M100.3,226.8h-7v-1.7c0-1.9,0.2-3.4,0.7-4.4c0.4-1,1.3-1.9,2.6-2.7c1.3-0.8,3-1.2,5.2-1.2
			c2.5,0,4.4,0.4,5.7,1.3c1.3,0.9,2.1,2,2.3,3.3c0.3,1.3,0.4,4,0.4,8.1v12.4h-7.3v-2.2c-0.5,0.9-1,1.5-1.8,2
			c-0.7,0.4-1.6,0.7-2.6,0.7c-1.3,0-2.5-0.4-3.6-1.1c-1.1-0.7-1.6-2.3-1.6-4.8v-2c0-1.8,0.3-3.1,0.9-3.8s2-1.4,4.3-2.3
			c2.5-1,3.8-1.6,4-1.9s0.3-1,0.3-2c0-1.3-0.1-2.1-0.3-2.5c-0.2-0.4-0.5-0.6-1-0.6s-0.8,0.2-0.9,0.5s-0.2,1.2-0.2,2.6L100.3,226.8
			L100.3,226.8z M102.7,230.2c-1.2,0.9-1.9,1.6-2.1,2.2c-0.2,0.6-0.3,1.4-0.3,2.6c0,1.3,0.1,2.1,0.3,2.5s0.5,0.6,1,0.6
			s0.8-0.1,0.9-0.4c0.1-0.3,0.2-1.1,0.2-2.3V230.2z"/>
		<path class="st2" d="M129.8,211.9v30h-7.5v-1.8c-0.7,0.7-1.5,1.3-2.3,1.7s-1.6,0.6-2.5,0.6c-1.2,0-2.2-0.3-3-0.9
			c-0.9-0.6-1.4-1.3-1.6-2.1s-0.4-2.1-0.4-3.9V224c0-1.9,0.1-3.2,0.4-4c0.2-0.8,0.8-1.5,1.7-2.1c0.9-0.6,1.9-0.9,3.1-0.9
			c0.9,0,1.8,0.2,2.6,0.5c0.8,0.3,1.5,0.8,2.1,1.5v-7h7.4V211.9z M122.3,223.5c0-0.9-0.1-1.5-0.2-1.8c-0.2-0.3-0.5-0.5-0.9-0.5
			s-0.7,0.1-0.9,0.4c-0.2,0.3-0.2,0.9-0.2,1.9v12.1c0,1,0.1,1.7,0.2,2s0.4,0.5,0.9,0.5s0.8-0.2,1-0.5c0.2-0.4,0.2-1.2,0.2-2.6
			L122.3,223.5L122.3,223.5z"/>
		<path class="st2" d="M148.2,217.3l-2.1,17.8c-0.3,2.8-0.6,4.7-0.9,5.8c-0.2,1-0.6,1.9-1.1,2.5c-0.5,0.7-1.3,1.2-2.2,1.5
			s-2.5,0.5-4.5,0.5h-4.5v-3.9c1.2,0,1.9-0.1,2.2-0.2c0.3-0.1,0.5-0.4,0.5-0.8c0-0.2-0.2-1.1-0.5-2.6l-4.1-20.6h6.8l2.5,16.6
			l1.2-16.6H148.2z"/>
	</g>
	<g>
		<g>
			<defs>
				<rect id="SVGID_00000124124226911136772850000018080983739325480079_" width="195.6" height="280.6"/>
			</defs>
			<clipPath id="SVGID_00000183958978614607977210000007702803187029943722_">
				<use xlink:href="#SVGID_00000124124226911136772850000018080983739325480079_"  style="overflow:visible;"/>
			</clipPath>
			<path style="clip-path:url(#SVGID_00000183958978614607977210000007702803187029943722_);fill:#1A1A1A;" d="M41.1,49v9.2
				c0,9.4,7.6,17,17,17s17-7.6,17-17V49H41.1z"/>
		</g>
	</g>
	<g>
		<g>
			<defs>
				<rect id="SVGID_00000045583076697251777150000001461253156062053034_" width="195.6" height="280.6"/>
			</defs>
			<clipPath id="SVGID_00000111895056419651479580000009400130336158855329_">
				<use xlink:href="#SVGID_00000045583076697251777150000001461253156062053034_"  style="overflow:visible;"/>
			</clipPath>
			<path style="clip-path:url(#SVGID_00000111895056419651479580000009400130336158855329_);fill:#1A1A1A;" d="M120.6,49v9.2
				c0,9.4,7.6,17,17,17s17-7.6,17-17V49H120.6z"/>
		</g>
	</g>
	<g>
		<g>
			<defs>
				<rect id="SVGID_00000063635760916748711400000001575328609895684514_" width="195.6" height="280.6"/>
			</defs>
			<clipPath id="SVGID_00000151507608207108295320000007386052693810140857_">
				<use xlink:href="#SVGID_00000063635760916748711400000001575328609895684514_"  style="overflow:visible;"/>
			</clipPath>
			<path style="clip-path:url(#SVGID_00000151507608207108295320000007386052693810140857_);fill:#1A1A1A;" d="M58,26.1
				c-9.4,0.1-16.9,7.6-17,17v9.2h34v-9.2C74.9,33.8,67.4,26.2,58,26.1L58,26.1z"/>
		</g>
	</g>
	<g>
		<g>
			<defs>
				<rect id="SVGID_00000065041180552757511180000013772847807275649937_" width="195.6" height="280.6"/>
			</defs>
			<clipPath id="SVGID_00000114062349172483894620000002988915291379608972_">
				<use xlink:href="#SVGID_00000065041180552757511180000013772847807275649937_"  style="overflow:visible;"/>
			</clipPath>
			<path style="clip-path:url(#SVGID_00000114062349172483894620000002988915291379608972_);fill:#1A1A1A;" d="M137.5,26.1
				c-9.4,0.1-16.9,7.6-17,17v9.2h34v-9.2C154.5,33.8,146.9,26.2,137.5,26.1L137.5,26.1z"/>
		</g>
	</g>
	<g>
		<g>
			<defs>
				<rect id="SVGID_00000101816892218668250380000011214975772111954846_" width="195.6" height="280.6"/>
			</defs>
			<clipPath id="SVGID_00000114768081927825392560000013918487853134958007_">
				<use xlink:href="#SVGID_00000101816892218668250380000011214975772111954846_"  style="overflow:visible;"/>
			</clipPath>
			<path style="clip-path:url(#SVGID_00000114768081927825392560000013918487853134958007_);fill:#1A1A1A;" d="M19.8,123.1v58.6
				c0.1,11.6,9.5,21,21.1,21.1h113.8c11.6-0.1,21-9.5,21.1-21.1v-58.6h-18.9v58.6c0.1,1.1-0.7,2.1-1.8,2.2c-0.2,0-0.3,0-0.5,0H40.9
				c-1.1,0.1-2.1-0.7-2.2-1.8c0-0.2,0-0.3,0-0.5V123L19.8,123.1L19.8,123.1z"/>
		</g>
	</g>
	<g>
		<g>
			<defs>
				<rect id="SVGID_00000152969751997947714980000017610131987674977454_" width="195.6" height="280.6"/>
			</defs>
			<clipPath id="SVGID_00000067229998609716151270000000241118112190722436_">
				<use xlink:href="#SVGID_00000152969751997947714980000017610131987674977454_"  style="overflow:visible;"/>
			</clipPath>
			<path style="clip-path:url(#SVGID_00000067229998609716151270000000241118112190722436_);fill:#1A1A1A;" d="M40.9,46.8
				c-11.6,0.1-21,9.5-21.1,21.1v58.6h18.9V67.9c-0.1-1.1,0.7-2.1,1.8-2.2c0.2,0,0.3,0,0.5,0h113.8c1.1-0.1,2.1,0.7,2.2,1.8
				c0,0.2,0,0.3,0,0.5v58.6h18.9V67.9c-0.1-11.6-9.5-21-21.1-21.1L40.9,46.8z"/>
		</g>
	</g>
	<g>
		<g>
			<defs>
				<rect id="SVGID_00000034790269437757425650000011432700836187600311_" width="195.6" height="280.6"/>
			</defs>
			<clipPath id="SVGID_00000133516793524959186580000017976689485845345951_">
				<use xlink:href="#SVGID_00000034790269437757425650000011432700836187600311_"  style="overflow:visible;"/>
			</clipPath>
			<path style="clip-path:url(#SVGID_00000133516793524959186580000017976689485845345951_);fill:#DBE492;" d="M40.9,56.2h113.8
				c6.4,0,11.7,5.2,11.7,11.6c0,0,0,0,0,0.1v113.8c0,6.4-5.2,11.7-11.6,11.7l0,0H40.9c-6.4,0-11.7-5.2-11.7-11.6l0,0V67.9
				C29.2,61.5,34.4,56.3,40.9,56.2L40.9,56.2z"/>
		</g>
	</g>
	<g>
		<g>
			<defs>
				<rect id="SVGID_00000126325462015000226180000000411628142724727487_" width="195.6" height="280.6"/>
			</defs>
			<clipPath id="SVGID_00000055682994089445094400000016888583812452757153_">
				<use xlink:href="#SVGID_00000126325462015000226180000000411628142724727487_"  style="overflow:visible;"/>
			</clipPath>
			
				<rect x="49.2" y="76.1" style="clip-path:url(#SVGID_00000055682994089445094400000016888583812452757153_);fill:#FFFFFF;" width="97.3" height="32.7"/>
		</g>
	</g>
	<g>
		<g>
			<defs>
				<rect id="SVGID_00000088119905358034090620000009626958382888260758_" width="195.6" height="280.6"/>
			</defs>
			<clipPath id="SVGID_00000052068844908781327850000012020985952156679589_">
				<use xlink:href="#SVGID_00000088119905358034090620000009626958382888260758_"  style="overflow:visible;"/>
			</clipPath>
			
				<rect x="49.2" y="109.7" style="clip-path:url(#SVGID_00000052068844908781327850000012020985952156679589_);fill:#FFFFFF;" width="97.3" height="16.3"/>
		</g>
	</g>
	<g>
		<g>
			<defs>
				<rect id="SVGID_00000021103349261614565970000004230792104984075668_" width="195.6" height="280.6"/>
			</defs>
			<clipPath id="SVGID_00000176006211879946693150000005586847246451811501_">
				<use xlink:href="#SVGID_00000021103349261614565970000004230792104984075668_"  style="overflow:visible;"/>
			</clipPath>
			
				<rect x="49.2" y="126.1" style="clip-path:url(#SVGID_00000176006211879946693150000005586847246451811501_);fill:#EB5A53;" width="97.3" height="47.5"/>
		</g>
	</g>
	<g>
		<g>
			<defs>
				<rect id="SVGID_00000059284695741190663580000010661015458212132796_" width="195.6" height="280.6"/>
			</defs>
			<clipPath id="SVGID_00000036237471362861280130000000272430675397358999_">
				<use xlink:href="#SVGID_00000059284695741190663580000010661015458212132796_"  style="overflow:visible;"/>
			</clipPath>
			<path style="clip-path:url(#SVGID_00000036237471362861280130000000272430675397358999_);fill:#1A1A1A;" d="M26.9,123.1v58.6
				c0,7.7,6.3,14,14,14h113.8c7.7,0,14-6.3,14-14v-58.6H164v58.6c0,5.1-4.1,9.3-9.2,9.3c-0.1,0-0.1,0-0.2,0H40.9
				c-5.1,0-9.3-4.1-9.3-9.1c0-0.1,0-0.1,0-0.2v-58.6H26.9z"/>
		</g>
	</g>
	<g>
		<g>
			<defs>
				<rect id="SVGID_00000103981892134553612700000002848745951414471861_" width="195.6" height="280.6"/>
			</defs>
			<clipPath id="SVGID_00000098941540023764577520000000056515325894413733_">
				<use xlink:href="#SVGID_00000103981892134553612700000002848745951414471861_"  style="overflow:visible;"/>
			</clipPath>
			<path style="clip-path:url(#SVGID_00000098941540023764577520000000056515325894413733_);fill:#1A1A1A;" d="M46.8,123.1v52.7h102
				v-52.7h-4.7v48H51.5v-48C51.5,123.1,46.8,123.1,46.8,123.1z"/>
		</g>
	</g>
	<g>
		<g>
			<defs>
				<rect id="SVGID_00000182526463954731920010000014028832801270212511_" width="195.6" height="280.6"/>
			</defs>
			<clipPath id="SVGID_00000062184399468399478240000006644579672067764898_">
				<use xlink:href="#SVGID_00000182526463954731920010000014028832801270212511_"  style="overflow:visible;"/>
			</clipPath>
			<path style="clip-path:url(#SVGID_00000062184399468399478240000006644579672067764898_);fill:#1A1A1A;" d="M40.9,53.9
				c-7.7,0-14,6.3-14,14v58.6h4.7V67.9c0-5.1,4.1-9.3,9.2-9.3h0.1h113.7c5.1,0,9.3,4,9.3,9.1c0,0.1,0,0.1,0,0.2v58.6h4.7V67.9
				c0-7.7-6.3-14-14-14H40.9z"/>
		</g>
	</g>
	<g>
		<g>
			<defs>
				<rect id="SVGID_00000114792905556011066710000008112573207553979549_" width="195.6" height="280.6"/>
			</defs>
			<clipPath id="SVGID_00000044891117137571766050000005454918450320472219_">
				<use xlink:href="#SVGID_00000114792905556011066710000008112573207553979549_"  style="overflow:visible;"/>
			</clipPath>
			
				<rect x="111.6" y="76.1" style="clip-path:url(#SVGID_00000044891117137571766050000005454918450320472219_);fill:#1A1A1A;" width="4.7" height="97.3"/>
		</g>
	</g>
	<g>
		<g>
			<defs>
				<rect id="SVGID_00000152238871236426739490000005670653814714827905_" width="195.6" height="280.6"/>
			</defs>
			<clipPath id="SVGID_00000048496949051026390370000007352152099339615123_">
				<use xlink:href="#SVGID_00000152238871236426739490000005670653814714827905_"  style="overflow:visible;"/>
			</clipPath>
			
				<rect x="79.2" y="76.1" style="clip-path:url(#SVGID_00000048496949051026390370000007352152099339615123_);fill:#1A1A1A;" width="4.7" height="97.3"/>
		</g>
	</g>
	<g>
		<g>
			<defs>
				<rect id="SVGID_00000005255217196090000180000004619667772781484167_" width="195.6" height="280.6"/>
			</defs>
			<clipPath id="SVGID_00000099655126391207411460000015504515726434874786_">
				<use xlink:href="#SVGID_00000005255217196090000180000004619667772781484167_"  style="overflow:visible;"/>
			</clipPath>
			
				<rect x="49.2" y="138.6" style="clip-path:url(#SVGID_00000099655126391207411460000015504515726434874786_);fill:#1A1A1A;" width="97.3" height="4.7"/>
		</g>
	</g>
	<g>
		<g>
			<defs>
				<rect id="SVGID_00000075157800380463969690000002369236955625410731_" width="195.6" height="280.6"/>
			</defs>
			<clipPath id="SVGID_00000111149390753217757260000017646088128986620606_">
				<use xlink:href="#SVGID_00000075157800380463969690000002369236955625410731_"  style="overflow:visible;"/>
			</clipPath>
			
				<rect x="49.2" y="106.2" style="clip-path:url(#SVGID_00000111149390753217757260000017646088128986620606_);fill:#1A1A1A;" width="97.3" height="4.7"/>
		</g>
	</g>
	<g>
		<g>
			<defs>
				<rect id="SVGID_00000101096273668367020540000017718430971404771727_" width="195.6" height="280.6"/>
			</defs>
			<clipPath id="SVGID_00000089574789810676740340000007621983465767937976_">
				<use xlink:href="#SVGID_00000101096273668367020540000017718430971404771727_"  style="overflow:visible;"/>
			</clipPath>
			<path style="clip-path:url(#SVGID_00000089574789810676740340000007621983465767937976_);fill:#1A1A1A;" d="M46.8,73.8v52.7h4.7
				v-48h92.6v48h4.7V73.8H46.8z"/>
		</g>
	</g>
	<g>
		<g>
			<defs>
				<rect id="SVGID_00000021802792768230085640000012843389766598203274_" width="195.6" height="280.6"/>
			</defs>
			<clipPath id="SVGID_00000104671841902172868020000015222838937733017002_">
				<use xlink:href="#SVGID_00000021802792768230085640000012843389766598203274_"  style="overflow:visible;"/>
			</clipPath>
			<path style="clip-path:url(#SVGID_00000104671841902172868020000015222838937733017002_);fill:#FFFFFF;" d="M58,35.6
				c4.2,0,7.5,3.3,7.5,7.5l0,0v15.1c0,4.2-3.4,7.5-7.5,7.5s-7.5-3.4-7.5-7.5V43.1C50.5,39,53.9,35.6,58,35.6L58,35.6z"/>
		</g>
	</g>
	<g>
		<g>
			<defs>
				<rect id="SVGID_00000036212446651447345100000016003960741762547376_" width="195.6" height="280.6"/>
			</defs>
			<clipPath id="SVGID_00000104676035213621472860000014802477354767818169_">
				<use xlink:href="#SVGID_00000036212446651447345100000016003960741762547376_"  style="overflow:visible;"/>
			</clipPath>
			<path style="clip-path:url(#SVGID_00000104676035213621472860000014802477354767818169_);fill:#1A1A1A;" d="M48.2,49v9.2
				c0,5.5,4.4,9.9,9.9,9.9s9.9-4.4,9.9-9.9V49h-4.7v9.2c0,2.9-2.3,5.2-5.2,5.2s-5.2-2.3-5.2-5.2V49H48.2z"/>
		</g>
	</g>
	<g>
		<g>
			<defs>
				<rect id="SVGID_00000003811740508505553130000014248810615966176446_" width="195.6" height="280.6"/>
			</defs>
			<clipPath id="SVGID_00000085933100509397986600000001626039416192146614_">
				<use xlink:href="#SVGID_00000003811740508505553130000014248810615966176446_"  style="overflow:visible;"/>
			</clipPath>
			<path style="clip-path:url(#SVGID_00000085933100509397986600000001626039416192146614_);fill:#FFFFFF;" d="M137.5,35.6
				c4.2,0,7.5,3.3,7.5,7.5l0,0v15.1c0,4.2-3.4,7.5-7.5,7.5c-4.2,0-7.5-3.4-7.5-7.5V43.1C130,39,133.4,35.6,137.5,35.6L137.5,35.6
				L137.5,35.6z"/>
		</g>
	</g>
	<g>
		<g>
			<defs>
				<rect id="SVGID_00000001622842983333409090000007616408529666826903_" width="195.6" height="280.6"/>
			</defs>
			<clipPath id="SVGID_00000104671285232159025100000017326324692629825928_">
				<use xlink:href="#SVGID_00000001622842983333409090000007616408529666826903_"  style="overflow:visible;"/>
			</clipPath>
			<path style="clip-path:url(#SVGID_00000104671285232159025100000017326324692629825928_);fill:#1A1A1A;" d="M127.6,49v9.2
				c0,5.5,4.4,9.9,9.9,9.9s9.9-4.4,9.9-9.9V49h-4.7v9.2c0,2.9-2.3,5.2-5.2,5.2s-5.2-2.3-5.2-5.2V49H127.6z"/>
		</g>
	</g>
	<g>
		<g>
			<defs>
				<rect id="SVGID_00000116941285272848962860000002103195721283281546_" width="195.6" height="280.6"/>
			</defs>
			<clipPath id="SVGID_00000057145501952359884560000014580896392508626613_">
				<use xlink:href="#SVGID_00000116941285272848962860000002103195721283281546_"  style="overflow:visible;"/>
			</clipPath>
			<path style="clip-path:url(#SVGID_00000057145501952359884560000014580896392508626613_);fill:#1A1A1A;" d="M58,33.2
				c-5.5,0-9.9,4.4-9.9,9.9v9.2h4.7v-9.2c0-2.9,2.3-5.2,5.2-5.2s5.2,2.3,5.2,5.2l0,0v9.2H68v-9.2C68,37.7,63.6,33.3,58,33.2L58,33.2
				z"/>
		</g>
	</g>
	<g>
		<g>
			<defs>
				<rect id="SVGID_00000139286402564114965350000009871557008271657917_" width="195.6" height="280.6"/>
			</defs>
			<clipPath id="SVGID_00000035525635073013950240000007679862680286213016_">
				<use xlink:href="#SVGID_00000139286402564114965350000009871557008271657917_"  style="overflow:visible;"/>
			</clipPath>
			<path style="clip-path:url(#SVGID_00000035525635073013950240000007679862680286213016_);fill:#1A1A1A;" d="M137.5,33.2
				c-5.5,0-9.9,4.4-9.9,9.9v9.2h4.7v-9.2c0-2.9,2.3-5.2,5.2-5.2s5.2,2.3,5.2,5.2v9.2h4.7v-9.2C147.4,37.7,143,33.3,137.5,33.2z"/>
		</g>
	</g>
	<g>
		<g>
			<defs>
				<rect id="SVGID_00000069369104150773526570000005258138407547556000_" width="195.6" height="280.6"/>
			</defs>
			<clipPath id="SVGID_00000074436064569414956510000007492957256894147748_">
				<use xlink:href="#SVGID_00000069369104150773526570000005258138407547556000_"  style="overflow:visible;"/>
			</clipPath>
			<path style="clip-path:url(#SVGID_00000074436064569414956510000007492957256894147748_);fill:#EB5A53;" d="M45,0H16H0.1v16
				c0,7,0,14,0,21c10.3,12.3,28.7,14,41,3.7c6.7-5.5,10.5-13.8,10.5-22.4C51.5,11.6,49.2,5.2,45,0z"/>
		</g>
	</g>
	<g>
		<g>
			<defs>
				<rect id="SVGID_00000072967188858133890840000014690985334734217879_" width="195.6" height="280.6"/>
			</defs>
			<clipPath id="SVGID_00000101099110218384095550000005775360621387427465_">
				<use xlink:href="#SVGID_00000072967188858133890840000014690985334734217879_"  style="overflow:visible;"/>
			</clipPath>
		</g>
	</g>
</g>
<g class="st1">
	<path class="st28" d="M24.4,15.9v10.3h1.1V29h-1.1v2.8h-3.9V29h-4.7v-2.7l3.4-10.3H24.4z M20.5,26.3v-6.7l-1.7,6.7H20.5z"/>
	<path class="st28" d="M26.3,27.6h3.9c0,0.7,0,1.2,0,1.4s0.1,0.4,0.2,0.5s0.3,0.2,0.6,0.2c0.2,0,0.4-0.1,0.5-0.2s0.2-0.3,0.2-0.5
		s0-0.6,0-1.2v-2.5c-0.2,0.4-0.5,0.7-0.9,1s-0.9,0.3-1.5,0.3c-0.7,0-1.4-0.2-1.9-0.6s-0.9-0.9-1.1-1.4s-0.2-1.3-0.2-2.2v-1.3
		c0-1.1,0-1.9,0.1-2.5s0.3-1,0.7-1.5s0.9-0.8,1.5-1.1s1.4-0.4,2.2-0.4c1.1,0,1.9,0.1,2.6,0.4s1.2,0.7,1.6,1.3s0.6,1.1,0.6,1.7
		s0.1,1.8,0.1,3.5v2.2c0,1.9,0,3.1-0.1,3.8s-0.3,1.2-0.7,1.8s-0.9,1-1.6,1.3s-1.5,0.4-2.4,0.4c-1.1,0-2-0.2-2.7-0.5
		s-1.2-0.9-1.5-1.5S26.3,28.5,26.3,27.6z M30.3,22.6c0,0.7,0.1,1.1,0.3,1.2s0.4,0.2,0.5,0.2c0.3,0,0.5-0.1,0.6-0.3s0.2-0.6,0.2-1.2
		v-2.9c0-0.7-0.1-1.2-0.2-1.4s-0.3-0.3-0.6-0.3c-0.2,0-0.3,0.1-0.5,0.2s-0.3,0.6-0.3,1.3V22.6z"/>
</g>
</svg>
