<?xml version="1.0" encoding="utf-8"?>
<!-- Generator: Adobe Illustrator 26.0.3, SVG Export Plug-In . SVG Version: 6.00 Build 0)  -->
<svg version="1.1" id="Слой_1" xmlns="http://www.w3.org/2000/svg" xmlns:xlink="http://www.w3.org/1999/xlink" x="0px" y="0px"
	 viewBox="0 0 195.6 280.6" style="enable-background:new 0 0 195.6 280.6;" xml:space="preserve">
<style type="text/css">
	.st0{clip-path:url(#SVGID_00000007430323797573157730000015630723198120486792_);fill:#FFFFFF;}
	.st1{clip-path:url(#SVGID_00000007430323797573157730000015630723198120486792_);enable-background:new    ;}
	.st2{fill:#1A1A1A;}
	.st3{font-family:'Impact';}
	.st4{font-size:38px;}
	.st5{clip-path:url(#SVGID_00000007430323797573157730000015630723198120486792_);fill:#1A1A1A;}
	.st6{clip-path:url(#SVGID_00000007430323797573157730000015630723198120486792_);fill:#DBE492;}
	.st7{clip-path:url(#SVGID_00000007430323797573157730000015630723198120486792_);fill:#EB5A53;}
	.st8{fill:#FFFFFF;}
	.st9{font-size:20px;}
</style>
<g>
	<defs>
		<rect id="SVGID_1_" x="0" y="0" width="195.6" height="280.6"/>
	</defs>
	<clipPath id="SVGID_00000061473319147357804920000007553979077063307682_">
		<use xlink:href="#SVGID_1_"  style="overflow:visible;"/>
	</clipPath>
	
		<rect x="-282.6" y="-1.1" style="clip-path:url(#SVGID_00000061473319147357804920000007553979077063307682_);fill:#FFFFFF;" width="493.6" height="290.5"/>
	<g style="clip-path:url(#SVGID_00000061473319147357804920000007553979077063307682_);enable-background:new    ;">
		<text transform="matrix(1 0 0 1 47.51 241.92)" class="st2 st3 st4">Dziady</text>
	</g>
	<path style="clip-path:url(#SVGID_00000061473319147357804920000007553979077063307682_);fill:#1A1A1A;" d="M41.1,49v9.2
		c0,9.4,7.6,17,17,17c9.4,0,17-7.6,17-17V49H41.1z"/>
	<path style="clip-path:url(#SVGID_00000061473319147357804920000007553979077063307682_);fill:#1A1A1A;" d="M120.6,49v9.2
		c0,9.4,7.6,17,17,17s17-7.6,17-17V49H120.6z"/>
	<path style="clip-path:url(#SVGID_00000061473319147357804920000007553979077063307682_);fill:#1A1A1A;" d="M58,26.1
		c-9.4,0.1-16.9,7.6-17,17v9.2h34v-9.2C74.9,33.8,67.4,26.2,58,26.1L58,26.1z"/>
	<path style="clip-path:url(#SVGID_00000061473319147357804920000007553979077063307682_);fill:#1A1A1A;" d="M137.5,26.1
		c-9.4,0.1-16.9,7.6-17,17v9.2h34v-9.2C154.5,33.8,146.9,26.2,137.5,26.1L137.5,26.1z"/>
	<path style="clip-path:url(#SVGID_00000061473319147357804920000007553979077063307682_);fill:#1A1A1A;" d="M19.8,123.1v58.6
		c0.1,11.6,9.5,21,21.1,21.1h113.8c11.6-0.1,21-9.5,21.1-21.1v-58.6h-18.9v58.6c0.1,1.1-0.7,2.1-1.8,2.2c-0.2,0-0.3,0-0.5,0H40.9
		c-1.1,0.1-2.1-0.7-2.2-1.8c0-0.2,0-0.3,0-0.5v-58.6H19.8z"/>
	<path style="clip-path:url(#SVGID_00000061473319147357804920000007553979077063307682_);fill:#1A1A1A;" d="M40.9,46.8
		c-11.6,0.1-21,9.5-21.1,21.1v58.6h18.9V67.9c-0.1-1.1,0.7-2.1,1.8-2.2c0.2,0,0.3,0,0.5,0h113.8c1.1-0.1,2.1,0.7,2.2,1.8
		c0,0.2,0,0.3,0,0.5v58.6h18.9V67.9c-0.1-11.6-9.5-21-21.1-21.1L40.9,46.8z"/>
	<path style="clip-path:url(#SVGID_00000061473319147357804920000007553979077063307682_);fill:#DBE492;" d="M40.9,56.2h113.8
		c6.4,0,11.7,5.2,11.7,11.6c0,0,0,0,0,0.1v113.8c0,6.4-5.2,11.7-11.6,11.7c0,0,0,0,0,0H40.9c-6.4,0-11.7-5.2-11.7-11.6c0,0,0,0,0,0
		V67.9C29.2,61.5,34.4,56.3,40.9,56.2C40.9,56.2,40.9,56.2,40.9,56.2z"/>
	
		<rect x="49.2" y="76.1" style="clip-path:url(#SVGID_00000061473319147357804920000007553979077063307682_);fill:#FFFFFF;" width="97.3" height="32.7"/>
	
		<rect x="49.2" y="109.7" style="clip-path:url(#SVGID_00000061473319147357804920000007553979077063307682_);fill:#FFFFFF;" width="97.3" height="16.3"/>
	
		<rect x="49.2" y="126.1" style="clip-path:url(#SVGID_00000061473319147357804920000007553979077063307682_);fill:#EB5A53;" width="97.3" height="47.5"/>
	<path style="clip-path:url(#SVGID_00000061473319147357804920000007553979077063307682_);fill:#1A1A1A;" d="M26.9,123.1v58.6
		c0,7.7,6.3,14,14,14h113.8c7.7,0,14-6.3,14-14v-58.6H164v58.6c0,5.1-4.1,9.3-9.2,9.3c-0.1,0-0.1,0-0.2,0H40.9
		c-5.1,0-9.3-4.1-9.3-9.1c0-0.1,0-0.1,0-0.2v-58.6H26.9z"/>
	<path style="clip-path:url(#SVGID_00000061473319147357804920000007553979077063307682_);fill:#1A1A1A;" d="M46.8,123.1v52.7h102
		v-52.7h-4.7v48H51.5v-48H46.8z"/>
	<path style="clip-path:url(#SVGID_00000061473319147357804920000007553979077063307682_);fill:#1A1A1A;" d="M40.9,53.9
		c-7.7,0-14,6.3-14,14v58.6h4.7V67.9c0-5.1,4.1-9.3,9.2-9.3c0,0,0.1,0,0.1,0h113.7c5.1,0,9.3,4,9.3,9.1c0,0.1,0,0.1,0,0.2v58.6h4.7
		V67.9c0-7.7-6.3-14-14-14L40.9,53.9z"/>
	
		<rect x="111.6" y="76.1" style="clip-path:url(#SVGID_00000061473319147357804920000007553979077063307682_);fill:#1A1A1A;" width="4.7" height="97.3"/>
	
		<rect x="79.2" y="76.1" style="clip-path:url(#SVGID_00000061473319147357804920000007553979077063307682_);fill:#1A1A1A;" width="4.7" height="97.3"/>
	
		<rect x="49.2" y="138.6" style="clip-path:url(#SVGID_00000061473319147357804920000007553979077063307682_);fill:#1A1A1A;" width="97.3" height="4.7"/>
	
		<rect x="49.2" y="106.2" style="clip-path:url(#SVGID_00000061473319147357804920000007553979077063307682_);fill:#1A1A1A;" width="97.3" height="4.7"/>
	<path style="clip-path:url(#SVGID_00000061473319147357804920000007553979077063307682_);fill:#1A1A1A;" d="M46.8,73.8v52.7h4.7
		v-48h92.6v48h4.7V73.8H46.8z"/>
	<path style="clip-path:url(#SVGID_00000061473319147357804920000007553979077063307682_);fill:#FFFFFF;" d="M58,35.6
		c4.2,0,7.5,3.3,7.5,7.5c0,0,0,0,0,0v15.1c0,4.2-3.4,7.5-7.5,7.5s-7.5-3.4-7.5-7.5V43.1C50.5,39,53.9,35.6,58,35.6
		C58,35.6,58,35.6,58,35.6z"/>
	<path style="clip-path:url(#SVGID_00000061473319147357804920000007553979077063307682_);fill:#1A1A1A;" d="M48.2,49v9.2
		c0,5.5,4.4,9.9,9.9,9.9c5.5,0,9.9-4.4,9.9-9.9V49h-4.7v9.2c0,2.9-2.3,5.2-5.2,5.2c-2.9,0-5.2-2.3-5.2-5.2V49H48.2z"/>
	<path style="clip-path:url(#SVGID_00000061473319147357804920000007553979077063307682_);fill:#FFFFFF;" d="M137.5,35.6
		c4.2,0,7.5,3.3,7.5,7.5c0,0,0,0,0,0v15.1c0,4.2-3.4,7.5-7.5,7.5c-4.2,0-7.5-3.4-7.5-7.5V43.1C130,39,133.4,35.6,137.5,35.6
		C137.5,35.6,137.5,35.6,137.5,35.6L137.5,35.6z"/>
	<path style="clip-path:url(#SVGID_00000061473319147357804920000007553979077063307682_);fill:#1A1A1A;" d="M127.6,49v9.2
		c0,5.5,4.4,9.9,9.9,9.9c5.5,0,9.9-4.4,9.9-9.9V49h-4.7v9.2c0,2.9-2.3,5.2-5.2,5.2c-2.9,0-5.2-2.3-5.2-5.2V49H127.6z"/>
	<path style="clip-path:url(#SVGID_00000061473319147357804920000007553979077063307682_);fill:#1A1A1A;" d="M58,33.2
		c-5.5,0-9.9,4.4-9.9,9.9v9.2h4.7v-9.2c0-2.9,2.3-5.2,5.2-5.2c2.9,0,5.2,2.3,5.2,5.2c0,0,0,0,0,0v9.2H68v-9.2
		C68,37.7,63.6,33.3,58,33.2L58,33.2z"/>
	<path style="clip-path:url(#SVGID_00000061473319147357804920000007553979077063307682_);fill:#1A1A1A;" d="M137.5,33.2
		c-5.5,0-9.9,4.4-9.9,9.9v9.2h4.7v-9.2c0-2.9,2.3-5.2,5.2-5.2c2.9,0,5.2,2.3,5.2,5.2v9.2h4.7v-9.2C147.4,37.7,143,33.3,137.5,33.2z"
		/>
	<path style="clip-path:url(#SVGID_00000061473319147357804920000007553979077063307682_);fill:#EB5A53;" d="M45,0H16H0.1v16
		c0,7,0,14,0,21c10.3,12.3,28.7,14,41,3.7c6.7-5.5,10.5-13.8,10.5-22.4C51.5,11.6,49.2,5.2,45,0z"/>
	<g style="clip-path:url(#SVGID_00000061473319147357804920000007553979077063307682_);enable-background:new    ;">
		<text transform="matrix(1 0 0 1 15.65 31.75)" class="st8 st3 st9">49</text>
	</g>
</g>
</svg>
