<?xml version="1.0" encoding="utf-8"?>
<!-- Generator: Adobe Illustrator 26.0.1, SVG Export Plug-In . SVG Version: 6.00 Build 0)  -->
<svg version="1.1" id="Слой_1" xmlns="http://www.w3.org/2000/svg" xmlns:xlink="http://www.w3.org/1999/xlink" x="0px" y="0px"
	 viewBox="0 0 195.6 280.6" style="enable-background:new 0 0 195.6 280.6;" xml:space="preserve">
<style type="text/css">
	.st0{clip-path:url(#SVGID_00000174579973427210582570000000552868344646543779_);fill:#FFFFFF;}
	.st1{clip-path:url(#SVGID_00000083049231119843647340000009716940364355488933_);fill:#1A1A1A;}
	.st2{clip-path:url(#SVGID_00000165937533136092414220000009779037962224932025_);fill:#1A1A1A;}
	.st3{clip-path:url(#SVGID_00000088831089236113487550000005924327286287697571_);fill:#1A1A1A;}
	.st4{clip-path:url(#SVGID_00000107573785781013383580000004400845081387282333_);fill:#1A1A1A;}
	.st5{clip-path:url(#SVGID_00000017476260110418279940000004232428844395832713_);fill:#1A1A1A;}
	.st6{clip-path:url(#SVGID_00000094580315656174959520000018159052673794939813_);fill:#1A1A1A;}
	.st7{clip-path:url(#SVGID_00000077309079567584229950000016916239296230591150_);fill:#DBE492;}
	.st8{clip-path:url(#SVGID_00000124160989010765868040000006512450563399032483_);fill:#FFFFFF;}
	.st9{clip-path:url(#SVGID_00000154423579592606931140000012156101948462211990_);fill:#EB5A53;}
	.st10{clip-path:url(#SVGID_00000037664451770158833100000009520376045167919748_);fill:#FFFFFF;}
	.st11{clip-path:url(#SVGID_00000060712977334894015690000014159022429608925581_);fill:#1A1A1A;}
	.st12{clip-path:url(#SVGID_00000029725099210933764040000002947265280826733217_);fill:#1A1A1A;}
	.st13{clip-path:url(#SVGID_00000149377407050507522730000006973496421624155806_);fill:#1A1A1A;}
	.st14{clip-path:url(#SVGID_00000049942278835618445560000002047637436840410760_);fill:#1A1A1A;}
	.st15{clip-path:url(#SVGID_00000019679383311478127610000008708791295750274459_);fill:#1A1A1A;}
	.st16{clip-path:url(#SVGID_00000052105535342940890240000014902163384670713729_);fill:#1A1A1A;}
	.st17{clip-path:url(#SVGID_00000120527150665780992950000010141814708898459829_);fill:#1A1A1A;}
	.st18{clip-path:url(#SVGID_00000072981982840809799460000001355268163450805641_);fill:#1A1A1A;}
	.st19{clip-path:url(#SVGID_00000142865342393938500090000007296959013418012349_);fill:#FFFFFF;}
	.st20{clip-path:url(#SVGID_00000074431243623562079460000000201188333667568283_);fill:#1A1A1A;}
	.st21{clip-path:url(#SVGID_00000140701615506929706350000012310464154655957909_);fill:#FFFFFF;}
	.st22{clip-path:url(#SVGID_00000160882301946054327580000009554814984862110095_);fill:#1A1A1A;}
	.st23{clip-path:url(#SVGID_00000000937043044686611340000012649544026089228723_);fill:#1A1A1A;}
	.st24{clip-path:url(#SVGID_00000087374860080243663070000010824224627839101315_);fill:#1A1A1A;}
	.st25{clip-path:url(#SVGID_00000100359817528565728120000011504446316466091683_);fill:#EB5A53;}
	.st26{enable-background:new    ;}
	.st27{fill:#1A1A1A;}
	.st28{fill:#FFFFFF;}
</style>
<g>
	<g>
		<g>
			<defs>
				<rect id="SVGID_1_" width="195.6" height="280.6"/>
			</defs>
			<clipPath id="SVGID_00000023263963513294723010000005331138736968285101_">
				<use xlink:href="#SVGID_1_"  style="overflow:visible;"/>
			</clipPath>
			
				<rect x="-15.4" y="-1.1" style="clip-path:url(#SVGID_00000023263963513294723010000005331138736968285101_);fill:#FFFFFF;" width="493.6" height="290.5"/>
		</g>
	</g>
	<g>
		<g>
			<defs>
				<rect id="SVGID_00000162334381959363929470000001274470280359362473_" width="195.6" height="280.6"/>
			</defs>
			<clipPath id="SVGID_00000154414808319411214120000009851385296329169571_">
				<use xlink:href="#SVGID_00000162334381959363929470000001274470280359362473_"  style="overflow:visible;"/>
			</clipPath>
			<path style="clip-path:url(#SVGID_00000154414808319411214120000009851385296329169571_);fill:#1A1A1A;" d="M41.1,49v9.2
				c0,9.4,7.6,17,17,17s17-7.6,17-17V49H41.1z"/>
		</g>
	</g>
	<g>
		<g>
			<defs>
				<rect id="SVGID_00000100360201257925620120000006039977165164663226_" width="195.6" height="280.6"/>
			</defs>
			<clipPath id="SVGID_00000036239065703253122820000003073873367660596906_">
				<use xlink:href="#SVGID_00000100360201257925620120000006039977165164663226_"  style="overflow:visible;"/>
			</clipPath>
			<path style="clip-path:url(#SVGID_00000036239065703253122820000003073873367660596906_);fill:#1A1A1A;" d="M120.6,49v9.2
				c0,9.4,7.6,17,17,17s17-7.6,17-17V49H120.6z"/>
		</g>
	</g>
	<g>
		<g>
			<defs>
				<rect id="SVGID_00000058567978941768178710000010231492745853308062_" width="195.6" height="280.6"/>
			</defs>
			<clipPath id="SVGID_00000145035499013128614230000015925637428047041939_">
				<use xlink:href="#SVGID_00000058567978941768178710000010231492745853308062_"  style="overflow:visible;"/>
			</clipPath>
			<path style="clip-path:url(#SVGID_00000145035499013128614230000015925637428047041939_);fill:#1A1A1A;" d="M58,26.1
				c-9.4,0.1-16.9,7.6-17,17v9.2h34v-9.2C74.9,33.8,67.4,26.2,58,26.1L58,26.1z"/>
		</g>
	</g>
	<g>
		<g>
			<defs>
				<rect id="SVGID_00000005240704627138826990000006614658820029422985_" width="195.6" height="280.6"/>
			</defs>
			<clipPath id="SVGID_00000168095604496783193390000003780283871256791716_">
				<use xlink:href="#SVGID_00000005240704627138826990000006614658820029422985_"  style="overflow:visible;"/>
			</clipPath>
			<path style="clip-path:url(#SVGID_00000168095604496783193390000003780283871256791716_);fill:#1A1A1A;" d="M137.5,26.1
				c-9.4,0.1-16.9,7.6-17,17v9.2h34v-9.2C154.5,33.8,146.9,26.2,137.5,26.1L137.5,26.1z"/>
		</g>
	</g>
	<g>
		<g>
			<defs>
				<rect id="SVGID_00000018955565151128007900000009702114852213238924_" width="195.6" height="280.6"/>
			</defs>
			<clipPath id="SVGID_00000013186951608832595980000006088655246829249703_">
				<use xlink:href="#SVGID_00000018955565151128007900000009702114852213238924_"  style="overflow:visible;"/>
			</clipPath>
			<path style="clip-path:url(#SVGID_00000013186951608832595980000006088655246829249703_);fill:#1A1A1A;" d="M19.8,123.1v58.6
				c0.1,11.6,9.5,21,21.1,21.1h113.8c11.6-0.1,21-9.5,21.1-21.1v-58.6h-18.9v58.6c0.1,1.1-0.7,2.1-1.8,2.2c-0.2,0-0.3,0-0.5,0H40.9
				c-1.1,0.1-2.1-0.7-2.2-1.8c0-0.2,0-0.3,0-0.5V123L19.8,123.1L19.8,123.1z"/>
		</g>
	</g>
	<g>
		<g>
			<defs>
				<rect id="SVGID_00000182501025372900647290000001594232180388068250_" width="195.6" height="280.6"/>
			</defs>
			<clipPath id="SVGID_00000100354190368634065770000001226605989049084299_">
				<use xlink:href="#SVGID_00000182501025372900647290000001594232180388068250_"  style="overflow:visible;"/>
			</clipPath>
			<path style="clip-path:url(#SVGID_00000100354190368634065770000001226605989049084299_);fill:#1A1A1A;" d="M40.9,46.8
				c-11.6,0.1-21,9.5-21.1,21.1v58.6h18.9V67.9c-0.1-1.1,0.7-2.1,1.8-2.2c0.2,0,0.3,0,0.5,0h113.8c1.1-0.1,2.1,0.7,2.2,1.8
				c0,0.2,0,0.3,0,0.5v58.6h18.9V67.9c-0.1-11.6-9.5-21-21.1-21.1L40.9,46.8z"/>
		</g>
	</g>
	<g>
		<g>
			<defs>
				<rect id="SVGID_00000149382374285496220290000016002939118018364816_" width="195.6" height="280.6"/>
			</defs>
			<clipPath id="SVGID_00000054260395852741817850000009723476907361728932_">
				<use xlink:href="#SVGID_00000149382374285496220290000016002939118018364816_"  style="overflow:visible;"/>
			</clipPath>
			<path style="clip-path:url(#SVGID_00000054260395852741817850000009723476907361728932_);fill:#DBE492;" d="M40.9,56.2h113.8
				c6.4,0,11.7,5.2,11.7,11.6c0,0,0,0,0,0.1v113.8c0,6.4-5.2,11.7-11.6,11.7c0,0,0,0-0.1,0H40.9c-6.4,0-11.7-5.2-11.7-11.6
				c0,0,0,0,0-0.1V67.9C29.2,61.5,34.4,56.3,40.9,56.2L40.9,56.2z"/>
		</g>
	</g>
	<g>
		<g>
			<defs>
				<rect id="SVGID_00000070813445169574678370000017836559585417988246_" width="195.6" height="280.6"/>
			</defs>
			<clipPath id="SVGID_00000172435164749686785050000004071570594587797695_">
				<use xlink:href="#SVGID_00000070813445169574678370000017836559585417988246_"  style="overflow:visible;"/>
			</clipPath>
			
				<rect x="49.2" y="76.1" style="clip-path:url(#SVGID_00000172435164749686785050000004071570594587797695_);fill:#FFFFFF;" width="97.3" height="32.7"/>
		</g>
	</g>
	<g>
		<g>
			<defs>
				<rect id="SVGID_00000148628311790206934990000003185590747801632176_" width="195.6" height="280.6"/>
			</defs>
			<clipPath id="SVGID_00000011739693957916730260000011646172080454859687_">
				<use xlink:href="#SVGID_00000148628311790206934990000003185590747801632176_"  style="overflow:visible;"/>
			</clipPath>
			
				<rect x="49.2" y="109.7" style="clip-path:url(#SVGID_00000011739693957916730260000011646172080454859687_);fill:#EB5A53;" width="97.3" height="32.7"/>
		</g>
	</g>
	<g>
		<g>
			<defs>
				<rect id="SVGID_00000054970557676463813860000003996005539458163359_" width="195.6" height="280.6"/>
			</defs>
			<clipPath id="SVGID_00000038390396744797865720000011365987355240375453_">
				<use xlink:href="#SVGID_00000054970557676463813860000003996005539458163359_"  style="overflow:visible;"/>
			</clipPath>
			
				<rect x="49.2" y="140.9" style="clip-path:url(#SVGID_00000038390396744797865720000011365987355240375453_);fill:#FFFFFF;" width="97.3" height="32.7"/>
		</g>
	</g>
	<g>
		<g>
			<defs>
				<rect id="SVGID_00000168836096738425818440000002270996892133286542_" width="195.6" height="280.6"/>
			</defs>
			<clipPath id="SVGID_00000025424384168374765380000001426705633035958157_">
				<use xlink:href="#SVGID_00000168836096738425818440000002270996892133286542_"  style="overflow:visible;"/>
			</clipPath>
			<path style="clip-path:url(#SVGID_00000025424384168374765380000001426705633035958157_);fill:#1A1A1A;" d="M26.9,123.1v58.6
				c0,7.7,6.3,14,14,14h113.8c7.7,0,14-6.3,14-14v-58.6H164v58.6c0,5.1-4.1,9.3-9.2,9.3c-0.1,0-0.1,0-0.2,0H40.9
				c-5.1,0-9.3-4.1-9.3-9.1c0-0.1,0-0.1,0-0.2v-58.6H26.9z"/>
		</g>
	</g>
	<g>
		<g>
			<defs>
				<rect id="SVGID_00000103248184452397759260000016744431936286094269_" width="195.6" height="280.6"/>
			</defs>
			<clipPath id="SVGID_00000099619715935158504420000009008400808400357020_">
				<use xlink:href="#SVGID_00000103248184452397759260000016744431936286094269_"  style="overflow:visible;"/>
			</clipPath>
			<path style="clip-path:url(#SVGID_00000099619715935158504420000009008400808400357020_);fill:#1A1A1A;" d="M46.8,123.1v52.7h102
				v-52.7h-4.7v48H51.5v-48C51.5,123.1,46.8,123.1,46.8,123.1z"/>
		</g>
	</g>
	<g>
		<g>
			<defs>
				<rect id="SVGID_00000129194005651960915550000011271273003752872594_" width="195.6" height="280.6"/>
			</defs>
			<clipPath id="SVGID_00000121270016206423622120000017111604885844500391_">
				<use xlink:href="#SVGID_00000129194005651960915550000011271273003752872594_"  style="overflow:visible;"/>
			</clipPath>
			<path style="clip-path:url(#SVGID_00000121270016206423622120000017111604885844500391_);fill:#1A1A1A;" d="M40.9,53.9
				c-7.7,0-14,6.3-14,14v58.6h4.7V67.9c0-5.1,4.1-9.3,9.2-9.3h0.1h113.7c5.1,0,9.3,4,9.3,9.1c0,0.1,0,0.1,0,0.2v58.6h4.7V67.9
				c0-7.7-6.3-14-14-14H40.9z"/>
		</g>
	</g>
	<g>
		<g>
			<defs>
				<rect id="SVGID_00000139254275223912556840000011056275407079244954_" width="195.6" height="280.6"/>
			</defs>
			<clipPath id="SVGID_00000122693081399046377920000006278570852840287135_">
				<use xlink:href="#SVGID_00000139254275223912556840000011056275407079244954_"  style="overflow:visible;"/>
			</clipPath>
			
				<rect x="111.6" y="76.1" style="clip-path:url(#SVGID_00000122693081399046377920000006278570852840287135_);fill:#1A1A1A;" width="4.7" height="97.3"/>
		</g>
	</g>
	<g>
		<g>
			<defs>
				<rect id="SVGID_00000053513642606841956580000011506910210424401844_" width="195.6" height="280.6"/>
			</defs>
			<clipPath id="SVGID_00000088843370044720733050000015279630799274199950_">
				<use xlink:href="#SVGID_00000053513642606841956580000011506910210424401844_"  style="overflow:visible;"/>
			</clipPath>
			
				<rect x="79.2" y="76.1" style="clip-path:url(#SVGID_00000088843370044720733050000015279630799274199950_);fill:#1A1A1A;" width="4.7" height="97.3"/>
		</g>
	</g>
	<g>
		<g>
			<defs>
				<rect id="SVGID_00000114791032293031510660000003483220937274362771_" width="195.6" height="280.6"/>
			</defs>
			<clipPath id="SVGID_00000054973988677263027820000010483316541919181996_">
				<use xlink:href="#SVGID_00000114791032293031510660000003483220937274362771_"  style="overflow:visible;"/>
			</clipPath>
			
				<rect x="49.2" y="138.6" style="clip-path:url(#SVGID_00000054973988677263027820000010483316541919181996_);fill:#1A1A1A;" width="97.3" height="4.7"/>
		</g>
	</g>
	<g>
		<g>
			<defs>
				<rect id="SVGID_00000163068770342319088190000012306966394832811965_" width="195.6" height="280.6"/>
			</defs>
			<clipPath id="SVGID_00000109742467852168520240000012829563707884326802_">
				<use xlink:href="#SVGID_00000163068770342319088190000012306966394832811965_"  style="overflow:visible;"/>
			</clipPath>
			
				<rect x="49.2" y="106.2" style="clip-path:url(#SVGID_00000109742467852168520240000012829563707884326802_);fill:#1A1A1A;" width="97.3" height="4.7"/>
		</g>
	</g>
	<g>
		<g>
			<defs>
				<rect id="SVGID_00000054226370403712123010000011700313004530161807_" width="195.6" height="280.6"/>
			</defs>
			<clipPath id="SVGID_00000135656309258125231340000003840852302007802537_">
				<use xlink:href="#SVGID_00000054226370403712123010000011700313004530161807_"  style="overflow:visible;"/>
			</clipPath>
			<path style="clip-path:url(#SVGID_00000135656309258125231340000003840852302007802537_);fill:#1A1A1A;" d="M46.8,73.8v52.7h4.7
				v-48h92.6v48h4.7V73.8H46.8z"/>
		</g>
	</g>
	<g>
		<g>
			<defs>
				<rect id="SVGID_00000111908285589392602410000012619330174969357983_" width="195.6" height="280.6"/>
			</defs>
			<clipPath id="SVGID_00000103976372517333372880000012201724353271341700_">
				<use xlink:href="#SVGID_00000111908285589392602410000012619330174969357983_"  style="overflow:visible;"/>
			</clipPath>
			<path style="clip-path:url(#SVGID_00000103976372517333372880000012201724353271341700_);fill:#FFFFFF;" d="M58,35.6
				c4.2,0,7.5,3.3,7.5,7.5l0,0v15.1c0,4.2-3.4,7.5-7.5,7.5s-7.5-3.4-7.5-7.5V43.1C50.5,39,53.9,35.6,58,35.6L58,35.6z"/>
		</g>
	</g>
	<g>
		<g>
			<defs>
				<rect id="SVGID_00000038411250091405679040000016489628202380858273_" width="195.6" height="280.6"/>
			</defs>
			<clipPath id="SVGID_00000105411354987214853880000013164357125887117490_">
				<use xlink:href="#SVGID_00000038411250091405679040000016489628202380858273_"  style="overflow:visible;"/>
			</clipPath>
			<path style="clip-path:url(#SVGID_00000105411354987214853880000013164357125887117490_);fill:#1A1A1A;" d="M48.2,49v9.2
				c0,5.5,4.4,9.9,9.9,9.9s9.9-4.4,9.9-9.9V49h-4.7v9.2c0,2.9-2.3,5.2-5.2,5.2s-5.2-2.3-5.2-5.2V49H48.2z"/>
		</g>
	</g>
	<g>
		<g>
			<defs>
				<rect id="SVGID_00000101062133083070516800000015875944379050258877_" width="195.6" height="280.6"/>
			</defs>
			<clipPath id="SVGID_00000151537458057196322480000007536449267667777925_">
				<use xlink:href="#SVGID_00000101062133083070516800000015875944379050258877_"  style="overflow:visible;"/>
			</clipPath>
			<path style="clip-path:url(#SVGID_00000151537458057196322480000007536449267667777925_);fill:#FFFFFF;" d="M137.5,35.6
				c4.2,0,7.5,3.3,7.5,7.5l0,0v15.1c0,4.2-3.4,7.5-7.5,7.5c-4.2,0-7.5-3.4-7.5-7.5V43.1C130,39,133.4,35.6,137.5,35.6L137.5,35.6
				L137.5,35.6z"/>
		</g>
	</g>
	<g>
		<g>
			<defs>
				<rect id="SVGID_00000059286445183080776870000001911647045170344836_" width="195.6" height="280.6"/>
			</defs>
			<clipPath id="SVGID_00000072967438534087606930000010646894531082311864_">
				<use xlink:href="#SVGID_00000059286445183080776870000001911647045170344836_"  style="overflow:visible;"/>
			</clipPath>
			<path style="clip-path:url(#SVGID_00000072967438534087606930000010646894531082311864_);fill:#1A1A1A;" d="M127.6,49v9.2
				c0,5.5,4.4,9.9,9.9,9.9s9.9-4.4,9.9-9.9V49h-4.7v9.2c0,2.9-2.3,5.2-5.2,5.2s-5.2-2.3-5.2-5.2V49H127.6z"/>
		</g>
	</g>
	<g>
		<g>
			<defs>
				<rect id="SVGID_00000120518606295341074130000015466745422828077227_" width="195.6" height="280.6"/>
			</defs>
			<clipPath id="SVGID_00000010273186007391816480000004127596390147532718_">
				<use xlink:href="#SVGID_00000120518606295341074130000015466745422828077227_"  style="overflow:visible;"/>
			</clipPath>
			<path style="clip-path:url(#SVGID_00000010273186007391816480000004127596390147532718_);fill:#1A1A1A;" d="M58,33.2
				c-5.5,0-9.9,4.4-9.9,9.9v9.2h4.7v-9.2c0-2.9,2.3-5.2,5.2-5.2s5.2,2.3,5.2,5.2l0,0v9.2H68v-9.2C68,37.7,63.6,33.3,58,33.2L58,33.2
				z"/>
		</g>
	</g>
	<g>
		<g>
			<defs>
				<rect id="SVGID_00000144326056016166686610000016323820017759574692_" width="195.6" height="280.6"/>
			</defs>
			<clipPath id="SVGID_00000168800056920903557940000009076650885143559091_">
				<use xlink:href="#SVGID_00000144326056016166686610000016323820017759574692_"  style="overflow:visible;"/>
			</clipPath>
			<path style="clip-path:url(#SVGID_00000168800056920903557940000009076650885143559091_);fill:#1A1A1A;" d="M137.5,33.2
				c-5.5,0-9.9,4.4-9.9,9.9v9.2h4.7v-9.2c0-2.9,2.3-5.2,5.2-5.2s5.2,2.3,5.2,5.2v9.2h4.7v-9.2C147.4,37.7,143,33.3,137.5,33.2z"/>
		</g>
	</g>
	<g>
		<g>
			<defs>
				<rect id="SVGID_00000087410409821282091540000002075631296723334039_" width="195.6" height="280.6"/>
			</defs>
			<clipPath id="SVGID_00000125574780058743179550000000397471178832781188_">
				<use xlink:href="#SVGID_00000087410409821282091540000002075631296723334039_"  style="overflow:visible;"/>
			</clipPath>
			<path style="clip-path:url(#SVGID_00000125574780058743179550000000397471178832781188_);fill:#EB5A53;" d="M150.7,0h29h16v16
				c0,7,0,14,0,21c-10.2,12.4-28.6,14.2-41,4S140.5,12.4,150.7,0z"/>
		</g>
	</g>
	<g>
		<g>
			<defs>
				<rect id="SVGID_00000096021673421780395370000007169495733895447740_" width="195.6" height="280.6"/>
			</defs>
			<clipPath id="SVGID_00000052103698183199375210000012262170987729518742_">
				<use xlink:href="#SVGID_00000096021673421780395370000007169495733895447740_"  style="overflow:visible;"/>
			</clipPath>
		</g>
	</g>
</g>
<g class="st26">
	<path class="st27" d="M49.1,211.9h5.8c3.8,0,6.3,0.2,7.7,0.5c1.3,0.3,2.3,0.9,3,1.7s1.1,1.7,1.3,2.6c0.2,1,0.3,2.9,0.3,5.7V233
		c0,2.7-0.1,4.5-0.4,5.4s-0.7,1.6-1.3,2.1c-0.6,0.5-1.4,0.9-2.3,1.1c-0.9,0.2-2.3,0.3-4.2,0.3h-9.9V211.9z M56.9,217v19.8
		c1.1,0,1.8-0.2,2.1-0.7s0.4-1.7,0.4-3.7v-11.7c0-1.4,0-2.2-0.1-2.6c-0.1-0.4-0.3-0.7-0.6-0.8C58.3,217.1,57.7,217,56.9,217z"/>
	<path class="st27" d="M81.5,217.3v5.5L76,237h5.5v4.9H68.7v-5.2l5.6-14.5h-5.1v-4.9H81.5z"/>
	<path class="st27" d="M90.9,211.9v3.9h-7.7v-3.9H90.9z M90.9,217.3v24.6h-7.7v-24.6H90.9z"/>
	<path class="st27" d="M100.3,226.8h-7v-1.7c0-1.9,0.2-3.4,0.7-4.4c0.4-1,1.3-1.9,2.6-2.7c1.3-0.8,3-1.2,5.2-1.2
		c2.5,0,4.4,0.4,5.7,1.3c1.3,0.9,2.1,2,2.3,3.3c0.3,1.3,0.4,4,0.4,8.1v12.4h-7.3v-2.2c-0.5,0.9-1,1.5-1.8,2
		c-0.7,0.4-1.6,0.7-2.6,0.7c-1.3,0-2.5-0.4-3.6-1.1c-1.1-0.7-1.6-2.3-1.6-4.8v-2c0-1.8,0.3-3.1,0.9-3.8s2-1.4,4.3-2.3
		c2.5-1,3.8-1.6,4-1.9s0.3-1,0.3-2c0-1.3-0.1-2.1-0.3-2.5c-0.2-0.4-0.5-0.6-1-0.6s-0.8,0.2-0.9,0.5s-0.2,1.2-0.2,2.6L100.3,226.8
		L100.3,226.8z M102.7,230.2c-1.2,0.9-1.9,1.6-2.1,2.2c-0.2,0.6-0.3,1.4-0.3,2.6c0,1.3,0.1,2.1,0.3,2.5s0.5,0.6,1,0.6
		s0.8-0.1,0.9-0.4c0.1-0.3,0.2-1.1,0.2-2.3V230.2z"/>
	<path class="st27" d="M129.8,211.9v30h-7.5v-1.8c-0.7,0.7-1.5,1.3-2.3,1.7s-1.6,0.6-2.5,0.6c-1.2,0-2.2-0.3-3-0.9
		c-0.9-0.6-1.4-1.3-1.6-2.1s-0.4-2.1-0.4-3.9V224c0-1.9,0.1-3.2,0.4-4c0.2-0.8,0.8-1.5,1.7-2.1c0.9-0.6,1.9-0.9,3.1-0.9
		c0.9,0,1.8,0.2,2.6,0.5c0.8,0.3,1.5,0.8,2.1,1.5v-7h7.4V211.9z M122.3,223.5c0-0.9-0.1-1.5-0.2-1.8c-0.2-0.3-0.5-0.5-0.9-0.5
		s-0.7,0.1-0.9,0.4c-0.2,0.3-0.2,0.9-0.2,1.9v12.1c0,1,0.1,1.7,0.2,2s0.4,0.5,0.9,0.5s0.8-0.2,1-0.5c0.2-0.4,0.2-1.2,0.2-2.6
		L122.3,223.5L122.3,223.5z"/>
	<path class="st27" d="M148.2,217.3l-2.1,17.8c-0.3,2.8-0.6,4.7-0.9,5.8c-0.2,1-0.6,1.9-1.1,2.5c-0.5,0.7-1.3,1.2-2.2,1.5
		s-2.5,0.5-4.5,0.5h-4.5v-3.9c1.2,0,1.9-0.1,2.2-0.2c0.3-0.1,0.5-0.4,0.5-0.8c0-0.2-0.2-1.1-0.5-2.6l-4.1-20.6h6.8l2.5,16.6
		l1.2-16.6H148.2z"/>
</g>
<g class="st26">
	<path class="st28" d="M168.5,15.9v10.3h1.1V29h-1.1v2.8h-3.9V29h-4.7v-2.7l3.4-10.3H168.5z M164.6,26.3v-6.7l-1.7,6.7H164.6z"/>
	<path class="st28" d="M170.5,27.6h3.9c0,0.7,0,1.2,0,1.4s0.1,0.4,0.2,0.5c0.1,0.1,0.3,0.2,0.6,0.2c0.2,0,0.4-0.1,0.5-0.2
		c0.1-0.1,0.2-0.3,0.2-0.5c0-0.2,0-0.6,0-1.2v-2.5c-0.2,0.4-0.5,0.7-0.9,1s-0.9,0.3-1.5,0.3c-0.7,0-1.4-0.2-1.9-0.6
		c-0.6-0.4-0.9-0.9-1.1-1.4c-0.1-0.5-0.2-1.3-0.2-2.2v-1.3c0-1.1,0-1.9,0.1-2.5s0.3-1,0.7-1.5c0.4-0.5,0.9-0.8,1.5-1.1
		s1.4-0.4,2.2-0.4c1.1,0,1.9,0.1,2.6,0.4c0.7,0.3,1.2,0.7,1.6,1.3s0.6,1.1,0.6,1.7s0.1,1.8,0.1,3.5v2.2c0,1.9,0,3.1-0.1,3.8
		c-0.1,0.6-0.3,1.2-0.7,1.8s-0.9,1-1.6,1.3s-1.5,0.4-2.4,0.4c-1.1,0-2-0.2-2.7-0.5c-0.7-0.4-1.2-0.9-1.5-1.5
		C170.6,29.4,170.5,28.5,170.5,27.6z M174.4,22.6c0,0.7,0.1,1.1,0.3,1.2c0.2,0.2,0.3,0.2,0.5,0.2c0.3,0,0.5-0.1,0.6-0.3
		s0.2-0.6,0.2-1.2v-2.9c0-0.7-0.1-1.2-0.2-1.4c-0.1-0.2-0.3-0.3-0.6-0.3c-0.2,0-0.3,0.1-0.5,0.2c-0.2,0.2-0.3,0.6-0.3,1.3V22.6z"/>
</g>
</svg>
