<svg id="Слой_1" data-name="Слой 1" xmlns="http://www.w3.org/2000/svg" viewBox="0 0 195.59 280.63"><defs><style>.cls-1,.cls-6{fill:#fff;}.cls-2{font-size:38px;}.cls-2,.cls-3{fill:#1a1a1a;}.cls-2,.cls-6{font-family:Impact;}.cls-4{fill:#dbe492;}.cls-5{fill:#eb5a53;}.cls-6{font-size:20px;}</style></defs><rect class="cls-1" x="-282.56" y="-1.13" width="493.56" height="290.47"/><text class="cls-2" transform="translate(45.75 241.92)">kolędy</text><path class="cls-3" d="M41.06,49v9.22a17,17,0,0,0,34,0V49Zm0,0"/><path class="cls-3" d="M120.55,49v9.22a17,17,0,0,0,34,0V49Zm0,0"/><path class="cls-3" d="M58.05,26.15a17.16,17.16,0,0,0-17,17v9.22H75V43.14a17.16,17.16,0,0,0-17-17Zm0,0"/><path class="cls-3" d="M137.54,26.15a17.16,17.16,0,0,0-17,17v9.22h34V43.14a17.16,17.16,0,0,0-17-17Zm0,0"/><path class="cls-3" d="M19.79,123.11v58.56A21.3,21.3,0,0,0,40.92,202.8H154.67a21.3,21.3,0,0,0,21.13-21.13V123.11H156.89v58.56a2,2,0,0,1-2.22,2.21H40.92a2,2,0,0,1-2.22-2.21V123.11Zm0,0"/><path class="cls-3" d="M40.92,46.78A21.3,21.3,0,0,0,19.79,67.91v58.56H38.7V67.91a2,2,0,0,1,2.22-2.22H154.67a2,2,0,0,1,2.22,2.22v58.56H175.8V67.91a21.3,21.3,0,0,0-21.13-21.13Zm0,0"/><path class="cls-4" d="M40.92,56.24H154.67a11.65,11.65,0,0,1,11.68,11.67V181.67a11.65,11.65,0,0,1-11.68,11.67H40.92a11.65,11.65,0,0,1-11.68-11.67V67.91A11.65,11.65,0,0,1,40.92,56.24Zm0,0"/><rect class="cls-1" x="49.15" y="76.14" width="97.29" height="32.67"/><rect class="cls-1" x="49.15" y="109.74" width="97.29" height="16.34"/><rect class="cls-5" x="49.15" y="126.08" width="97.29" height="47.47"/><path class="cls-3" d="M26.88,123.11v58.56a14.06,14.06,0,0,0,14,14H154.67a14.06,14.06,0,0,0,14-14V123.11H164v58.56a9.23,9.23,0,0,1-9.31,9.3H40.92a9.23,9.23,0,0,1-9.31-9.3V123.11Zm0,0"/><path class="cls-3" d="M46.79,123.11V175.8h102V123.11h-4.72v48H51.51v-48Zm0,0"/><path class="cls-3" d="M40.92,53.87a14.06,14.06,0,0,0-14,14v58.56h4.73V67.91a9.24,9.24,0,0,1,9.31-9.31H154.67A9.24,9.24,0,0,1,164,67.91v58.56h4.73V67.91a14.06,14.06,0,0,0-14-14Zm0,0"/><rect class="cls-3" x="111.64" y="76.14" width="4.73" height="97.29"/><rect class="cls-3" x="79.22" y="76.14" width="4.73" height="97.29"/><rect class="cls-3" x="49.15" y="138.64" width="97.29" height="4.73"/><rect class="cls-3" x="49.15" y="106.21" width="97.29" height="4.73"/><path class="cls-3" d="M46.79,73.78v52.69h4.72v-48h92.57v48h4.72V73.78Zm0,0"/><path class="cls-1" d="M58.05,35.61a7.52,7.52,0,0,1,7.54,7.53V58.22a7.54,7.54,0,0,1-15.08,0V43.14a7.52,7.52,0,0,1,7.54-7.53Zm0,0"/><path class="cls-3" d="M48.15,49v9.22a9.9,9.9,0,0,0,19.8,0V49H63.22v9.22a5.17,5.17,0,0,1-10.34,0V49Zm0,0"/><path class="cls-1" d="M137.54,35.61a7.52,7.52,0,0,1,7.54,7.53V58.22a7.54,7.54,0,0,1-15.08,0V43.14a7.52,7.52,0,0,1,7.54-7.53Zm0,0"/><path class="cls-3" d="M127.64,49v9.22a9.9,9.9,0,0,0,19.8,0V49h-4.73v9.22a5.17,5.17,0,0,1-10.34,0V49Zm0,0"/><path class="cls-3" d="M58.05,33.24a9.94,9.94,0,0,0-9.9,9.9v9.22h4.73V43.14a5.17,5.17,0,1,1,10.34,0v9.22H68V43.14a9.93,9.93,0,0,0-9.9-9.9Zm0,0"/><path class="cls-3" d="M137.54,33.24a9.93,9.93,0,0,0-9.9,9.9v9.22h4.73V43.14a5.17,5.17,0,0,1,10.34,0v9.22h4.73V43.14a9.94,9.94,0,0,0-9.9-9.9Zm0,0"/><path class="cls-5" d="M44.93,0l-29,0H0L0,16q0,10.48,0,21A29.11,29.11,0,0,0,51.45,18.3,28.92,28.92,0,0,0,44.93,0Z"/><text class="cls-6" transform="translate(15.55 31.75)">50</text></svg>