<?xml version="1.0" encoding="utf-8"?>
<!-- Generator: Adobe Illustrator 26.0.1, SVG Export Plug-In . SVG Version: 6.00 Build 0)  -->
<svg version="1.1" id="Слой_1" xmlns="http://www.w3.org/2000/svg" xmlns:xlink="http://www.w3.org/1999/xlink" x="0px" y="0px"
	 viewBox="0 0 195.6 280.6" style="enable-background:new 0 0 195.6 280.6;" xml:space="preserve">
<style type="text/css">
	.st0{clip-path:url(#SVGID_00000010277139469421027890000009280592514908082083_);fill:#FFFFFF;}
	.st1{clip-path:url(#SVGID_00000150084399116008715870000005909523970737508789_);fill:#1A1A1A;}
	.st2{clip-path:url(#SVGID_00000137125720413014325510000000917228956949594785_);fill:#1A1A1A;}
	.st3{clip-path:url(#SVGID_00000170239532687079684720000007773538739935176853_);fill:#1A1A1A;}
	.st4{clip-path:url(#SVGID_00000090985618774958555210000006404347878385485955_);fill:#1A1A1A;}
	.st5{clip-path:url(#SVGID_00000152253195468092530080000016012526437684003992_);fill:#1A1A1A;}
	.st6{clip-path:url(#SVGID_00000165955972246520101560000006235966524958101406_);fill:#1A1A1A;}
	.st7{clip-path:url(#SVGID_00000100368695793179771050000012572805384263132823_);fill:#DBE492;}
	.st8{clip-path:url(#SVGID_00000075850084745103364090000012032181525109064088_);fill:#FFFFFF;}
	.st9{clip-path:url(#SVGID_00000180356581162808242010000002826588582731218064_);fill:#EB5A53;}
	.st10{clip-path:url(#SVGID_00000038406565269186470270000004920237261081816727_);fill:#FFFFFF;}
	.st11{clip-path:url(#SVGID_00000176015904810363924230000002757859918729178031_);fill:#1A1A1A;}
	.st12{clip-path:url(#SVGID_00000039817408526941091680000008949449622646723997_);fill:#1A1A1A;}
	.st13{clip-path:url(#SVGID_00000040567483376910897170000002911537522879281549_);fill:#1A1A1A;}
	.st14{clip-path:url(#SVGID_00000163071234260059452970000001707451045365616309_);fill:#1A1A1A;}
	.st15{clip-path:url(#SVGID_00000048478985646794596400000012577104328806493853_);fill:#1A1A1A;}
	.st16{clip-path:url(#SVGID_00000141413110403003227490000017792141854407426689_);fill:#1A1A1A;}
	.st17{clip-path:url(#SVGID_00000103253321065853698460000015973398284583316879_);fill:#1A1A1A;}
	.st18{clip-path:url(#SVGID_00000027605871560564063720000013013758977493127302_);fill:#1A1A1A;}
	.st19{clip-path:url(#SVGID_00000101802542139240337010000005090583491892100011_);fill:#FFFFFF;}
	.st20{clip-path:url(#SVGID_00000031172400379696992340000012489024410842609806_);fill:#1A1A1A;}
	.st21{clip-path:url(#SVGID_00000096776787292001011080000011261062484608989350_);fill:#FFFFFF;}
	.st22{clip-path:url(#SVGID_00000060031411547044726540000005081233126120877480_);fill:#1A1A1A;}
	.st23{clip-path:url(#SVGID_00000105404361020391541930000015449162043517059489_);fill:#1A1A1A;}
	.st24{clip-path:url(#SVGID_00000044155205179486420590000006188530329030705087_);fill:#1A1A1A;}
	.st25{clip-path:url(#SVGID_00000109729711076881000170000011322854760427169444_);fill:#EB5A53;}
	.st26{enable-background:new    ;}
	.st27{fill:#1A1A1A;}
	.st28{fill:#FFFFFF;}
</style>
<g>
	<g>
		<g>
			<defs>
				<rect id="SVGID_1_" width="195.6" height="280.6"/>
			</defs>
			<clipPath id="SVGID_00000092436621706219781850000009125119869392587691_">
				<use xlink:href="#SVGID_1_"  style="overflow:visible;"/>
			</clipPath>
			
				<rect x="-15.4" y="-1.1" style="clip-path:url(#SVGID_00000092436621706219781850000009125119869392587691_);fill:#FFFFFF;" width="493.6" height="290.5"/>
		</g>
	</g>
	<g>
		<g>
			<defs>
				<rect id="SVGID_00000122686229437364080520000014029029560448437945_" width="195.6" height="280.6"/>
			</defs>
			<clipPath id="SVGID_00000003072368847034963890000009059647539900680595_">
				<use xlink:href="#SVGID_00000122686229437364080520000014029029560448437945_"  style="overflow:visible;"/>
			</clipPath>
			<path style="clip-path:url(#SVGID_00000003072368847034963890000009059647539900680595_);fill:#1A1A1A;" d="M41.1,49v9.2
				c0,9.4,7.6,17,17,17s17-7.6,17-17V49H41.1z"/>
		</g>
	</g>
	<g>
		<g>
			<defs>
				<rect id="SVGID_00000178196382061601841270000015898134777024939684_" width="195.6" height="280.6"/>
			</defs>
			<clipPath id="SVGID_00000165952286965080882770000012652944193368952485_">
				<use xlink:href="#SVGID_00000178196382061601841270000015898134777024939684_"  style="overflow:visible;"/>
			</clipPath>
			<path style="clip-path:url(#SVGID_00000165952286965080882770000012652944193368952485_);fill:#1A1A1A;" d="M120.6,49v9.2
				c0,9.4,7.6,17,17,17s17-7.6,17-17V49H120.6z"/>
		</g>
	</g>
	<g>
		<g>
			<defs>
				<rect id="SVGID_00000047750332017347380920000002156266213347530136_" width="195.6" height="280.6"/>
			</defs>
			<clipPath id="SVGID_00000174578492798258952760000006344403529845201298_">
				<use xlink:href="#SVGID_00000047750332017347380920000002156266213347530136_"  style="overflow:visible;"/>
			</clipPath>
			<path style="clip-path:url(#SVGID_00000174578492798258952760000006344403529845201298_);fill:#1A1A1A;" d="M58,26.1
				c-9.4,0.1-16.9,7.6-17,17v9.2h34v-9.2C74.9,33.8,67.4,26.2,58,26.1L58,26.1z"/>
		</g>
	</g>
	<g>
		<g>
			<defs>
				<rect id="SVGID_00000008842331383012167380000006275424645197501827_" width="195.6" height="280.6"/>
			</defs>
			<clipPath id="SVGID_00000048461287756735195540000016562619830843874205_">
				<use xlink:href="#SVGID_00000008842331383012167380000006275424645197501827_"  style="overflow:visible;"/>
			</clipPath>
			<path style="clip-path:url(#SVGID_00000048461287756735195540000016562619830843874205_);fill:#1A1A1A;" d="M137.5,26.1
				c-9.4,0.1-16.9,7.6-17,17v9.2h34v-9.2C154.5,33.8,146.9,26.2,137.5,26.1L137.5,26.1z"/>
		</g>
	</g>
	<g>
		<g>
			<defs>
				<rect id="SVGID_00000182503445192714375610000005080818105218301334_" width="195.6" height="280.6"/>
			</defs>
			<clipPath id="SVGID_00000058559501798317046570000009070537502014433198_">
				<use xlink:href="#SVGID_00000182503445192714375610000005080818105218301334_"  style="overflow:visible;"/>
			</clipPath>
			<path style="clip-path:url(#SVGID_00000058559501798317046570000009070537502014433198_);fill:#1A1A1A;" d="M19.8,123.1v58.6
				c0.1,11.6,9.5,21,21.1,21.1h113.8c11.6-0.1,21-9.5,21.1-21.1v-58.6h-18.9v58.6c0.1,1.1-0.7,2.1-1.8,2.2c-0.2,0-0.3,0-0.5,0H40.9
				c-1.1,0.1-2.1-0.7-2.2-1.8c0-0.2,0-0.3,0-0.5V123L19.8,123.1L19.8,123.1z"/>
		</g>
	</g>
	<g>
		<g>
			<defs>
				<rect id="SVGID_00000004513147636460302530000012359881247814280843_" width="195.6" height="280.6"/>
			</defs>
			<clipPath id="SVGID_00000099656825078467561590000015958021772643262613_">
				<use xlink:href="#SVGID_00000004513147636460302530000012359881247814280843_"  style="overflow:visible;"/>
			</clipPath>
			<path style="clip-path:url(#SVGID_00000099656825078467561590000015958021772643262613_);fill:#1A1A1A;" d="M40.9,46.8
				c-11.6,0.1-21,9.5-21.1,21.1v58.6h18.9V67.9c-0.1-1.1,0.7-2.1,1.8-2.2c0.2,0,0.3,0,0.5,0h113.8c1.1-0.1,2.1,0.7,2.2,1.8
				c0,0.2,0,0.3,0,0.5v58.6h18.9V67.9c-0.1-11.6-9.5-21-21.1-21.1L40.9,46.8z"/>
		</g>
	</g>
	<g>
		<g>
			<defs>
				<rect id="SVGID_00000162344152196561934770000014542598203944251285_" width="195.6" height="280.6"/>
			</defs>
			<clipPath id="SVGID_00000099626767681025809280000005788957785078745750_">
				<use xlink:href="#SVGID_00000162344152196561934770000014542598203944251285_"  style="overflow:visible;"/>
			</clipPath>
			<path style="clip-path:url(#SVGID_00000099626767681025809280000005788957785078745750_);fill:#DBE492;" d="M40.9,56.2h113.8
				c6.4,0,11.7,5.2,11.7,11.6c0,0,0,0,0,0.1v113.8c0,6.4-5.2,11.7-11.6,11.7c0,0,0,0-0.1,0H40.9c-6.4,0-11.7-5.2-11.7-11.6
				c0,0,0,0,0-0.1V67.9C29.2,61.5,34.4,56.3,40.9,56.2L40.9,56.2z"/>
		</g>
	</g>
	<g>
		<g>
			<defs>
				<rect id="SVGID_00000142170942002957270870000007860360165868417976_" width="195.6" height="280.6"/>
			</defs>
			<clipPath id="SVGID_00000064321167021193146460000003834630548172151198_">
				<use xlink:href="#SVGID_00000142170942002957270870000007860360165868417976_"  style="overflow:visible;"/>
			</clipPath>
			
				<rect x="49.2" y="76.1" style="clip-path:url(#SVGID_00000064321167021193146460000003834630548172151198_);fill:#FFFFFF;" width="97.3" height="32.7"/>
		</g>
	</g>
	<g>
		<g>
			<defs>
				<rect id="SVGID_00000103955990311598378700000004629017220173173642_" width="195.6" height="280.6"/>
			</defs>
			<clipPath id="SVGID_00000157277527497165651430000008059029672403276160_">
				<use xlink:href="#SVGID_00000103955990311598378700000004629017220173173642_"  style="overflow:visible;"/>
			</clipPath>
			
				<rect x="49.2" y="109.7" style="clip-path:url(#SVGID_00000157277527497165651430000008059029672403276160_);fill:#EB5A53;" width="97.3" height="32.7"/>
		</g>
	</g>
	<g>
		<g>
			<defs>
				<rect id="SVGID_00000174566820877607916580000001627607914617445516_" width="195.6" height="280.6"/>
			</defs>
			<clipPath id="SVGID_00000005257402694971721600000012821101189620655272_">
				<use xlink:href="#SVGID_00000174566820877607916580000001627607914617445516_"  style="overflow:visible;"/>
			</clipPath>
			
				<rect x="49.2" y="140.9" style="clip-path:url(#SVGID_00000005257402694971721600000012821101189620655272_);fill:#FFFFFF;" width="97.3" height="32.7"/>
		</g>
	</g>
	<g>
		<g>
			<defs>
				<rect id="SVGID_00000173850297270106753520000004911775268118771622_" width="195.6" height="280.6"/>
			</defs>
			<clipPath id="SVGID_00000003080546135354558970000017964304379079865247_">
				<use xlink:href="#SVGID_00000173850297270106753520000004911775268118771622_"  style="overflow:visible;"/>
			</clipPath>
			<path style="clip-path:url(#SVGID_00000003080546135354558970000017964304379079865247_);fill:#1A1A1A;" d="M26.9,123.1v58.6
				c0,7.7,6.3,14,14,14h113.8c7.7,0,14-6.3,14-14v-58.6H164v58.6c0,5.1-4.1,9.3-9.2,9.3c-0.1,0-0.1,0-0.2,0H40.9
				c-5.1,0-9.3-4.1-9.3-9.1c0-0.1,0-0.1,0-0.2v-58.6H26.9z"/>
		</g>
	</g>
	<g>
		<g>
			<defs>
				<rect id="SVGID_00000111175479967764692270000016196653926069688218_" width="195.6" height="280.6"/>
			</defs>
			<clipPath id="SVGID_00000123428582172762237430000012649948601291978155_">
				<use xlink:href="#SVGID_00000111175479967764692270000016196653926069688218_"  style="overflow:visible;"/>
			</clipPath>
			<path style="clip-path:url(#SVGID_00000123428582172762237430000012649948601291978155_);fill:#1A1A1A;" d="M46.8,123.1v52.7h102
				v-52.7h-4.7v48H51.5v-48C51.5,123.1,46.8,123.1,46.8,123.1z"/>
		</g>
	</g>
	<g>
		<g>
			<defs>
				<rect id="SVGID_00000102535513209492293420000008299069811369243813_" width="195.6" height="280.6"/>
			</defs>
			<clipPath id="SVGID_00000011724142296518624280000010972380923908924298_">
				<use xlink:href="#SVGID_00000102535513209492293420000008299069811369243813_"  style="overflow:visible;"/>
			</clipPath>
			<path style="clip-path:url(#SVGID_00000011724142296518624280000010972380923908924298_);fill:#1A1A1A;" d="M40.9,53.9
				c-7.7,0-14,6.3-14,14v58.6h4.7V67.9c0-5.1,4.1-9.3,9.2-9.3h0.1h113.7c5.1,0,9.3,4,9.3,9.1c0,0.1,0,0.1,0,0.2v58.6h4.7V67.9
				c0-7.7-6.3-14-14-14H40.9z"/>
		</g>
	</g>
	<g>
		<g>
			<defs>
				<rect id="SVGID_00000164481962218478199150000018352355200538867102_" width="195.6" height="280.6"/>
			</defs>
			<clipPath id="SVGID_00000123411440828797848820000003347694037914362523_">
				<use xlink:href="#SVGID_00000164481962218478199150000018352355200538867102_"  style="overflow:visible;"/>
			</clipPath>
			
				<rect x="111.6" y="76.1" style="clip-path:url(#SVGID_00000123411440828797848820000003347694037914362523_);fill:#1A1A1A;" width="4.7" height="97.3"/>
		</g>
	</g>
	<g>
		<g>
			<defs>
				<rect id="SVGID_00000078727849387652441700000002932184665651112381_" width="195.6" height="280.6"/>
			</defs>
			<clipPath id="SVGID_00000074409721931936101290000014996525083906354623_">
				<use xlink:href="#SVGID_00000078727849387652441700000002932184665651112381_"  style="overflow:visible;"/>
			</clipPath>
			
				<rect x="79.2" y="76.1" style="clip-path:url(#SVGID_00000074409721931936101290000014996525083906354623_);fill:#1A1A1A;" width="4.7" height="97.3"/>
		</g>
	</g>
	<g>
		<g>
			<defs>
				<rect id="SVGID_00000122000321645061990750000018370680088379123366_" width="195.6" height="280.6"/>
			</defs>
			<clipPath id="SVGID_00000066510707928870057580000005526448255432727459_">
				<use xlink:href="#SVGID_00000122000321645061990750000018370680088379123366_"  style="overflow:visible;"/>
			</clipPath>
			
				<rect x="49.2" y="138.6" style="clip-path:url(#SVGID_00000066510707928870057580000005526448255432727459_);fill:#1A1A1A;" width="97.3" height="4.7"/>
		</g>
	</g>
	<g>
		<g>
			<defs>
				<rect id="SVGID_00000005262458043307815690000000675789134460957346_" width="195.6" height="280.6"/>
			</defs>
			<clipPath id="SVGID_00000062182428185155460330000010914575976462033305_">
				<use xlink:href="#SVGID_00000005262458043307815690000000675789134460957346_"  style="overflow:visible;"/>
			</clipPath>
			
				<rect x="49.2" y="106.2" style="clip-path:url(#SVGID_00000062182428185155460330000010914575976462033305_);fill:#1A1A1A;" width="97.3" height="4.7"/>
		</g>
	</g>
	<g>
		<g>
			<defs>
				<rect id="SVGID_00000075842246226411165990000015144884823472397445_" width="195.6" height="280.6"/>
			</defs>
			<clipPath id="SVGID_00000170268297574390519940000011823796135952902818_">
				<use xlink:href="#SVGID_00000075842246226411165990000015144884823472397445_"  style="overflow:visible;"/>
			</clipPath>
			<path style="clip-path:url(#SVGID_00000170268297574390519940000011823796135952902818_);fill:#1A1A1A;" d="M46.8,73.8v52.7h4.7
				v-48h92.6v48h4.7V73.8H46.8z"/>
		</g>
	</g>
	<g>
		<g>
			<defs>
				<rect id="SVGID_00000014612572462978857800000009487648731817557387_" width="195.6" height="280.6"/>
			</defs>
			<clipPath id="SVGID_00000150825370200453029360000013472479878667499176_">
				<use xlink:href="#SVGID_00000014612572462978857800000009487648731817557387_"  style="overflow:visible;"/>
			</clipPath>
			<path style="clip-path:url(#SVGID_00000150825370200453029360000013472479878667499176_);fill:#FFFFFF;" d="M58,35.6
				c4.2,0,7.5,3.3,7.5,7.5l0,0v15.1c0,4.2-3.4,7.5-7.5,7.5s-7.5-3.4-7.5-7.5V43.1C50.5,39,53.9,35.6,58,35.6L58,35.6z"/>
		</g>
	</g>
	<g>
		<g>
			<defs>
				<rect id="SVGID_00000075120938249129836770000001199453422496945579_" width="195.6" height="280.6"/>
			</defs>
			<clipPath id="SVGID_00000016771409627129127580000005802024944330207660_">
				<use xlink:href="#SVGID_00000075120938249129836770000001199453422496945579_"  style="overflow:visible;"/>
			</clipPath>
			<path style="clip-path:url(#SVGID_00000016771409627129127580000005802024944330207660_);fill:#1A1A1A;" d="M48.2,49v9.2
				c0,5.5,4.4,9.9,9.9,9.9s9.9-4.4,9.9-9.9V49h-4.7v9.2c0,2.9-2.3,5.2-5.2,5.2s-5.2-2.3-5.2-5.2V49H48.2z"/>
		</g>
	</g>
	<g>
		<g>
			<defs>
				<rect id="SVGID_00000137820659441173157320000011364346831509867921_" width="195.6" height="280.6"/>
			</defs>
			<clipPath id="SVGID_00000105390810903312644380000010884981654091418547_">
				<use xlink:href="#SVGID_00000137820659441173157320000011364346831509867921_"  style="overflow:visible;"/>
			</clipPath>
			<path style="clip-path:url(#SVGID_00000105390810903312644380000010884981654091418547_);fill:#FFFFFF;" d="M137.5,35.6
				c4.2,0,7.5,3.3,7.5,7.5l0,0v15.1c0,4.2-3.4,7.5-7.5,7.5c-4.2,0-7.5-3.4-7.5-7.5V43.1C130,39,133.4,35.6,137.5,35.6L137.5,35.6
				L137.5,35.6z"/>
		</g>
	</g>
	<g>
		<g>
			<defs>
				<rect id="SVGID_00000124140435622476530490000008814608315910249617_" width="195.6" height="280.6"/>
			</defs>
			<clipPath id="SVGID_00000154421780582656237270000003586098869138436252_">
				<use xlink:href="#SVGID_00000124140435622476530490000008814608315910249617_"  style="overflow:visible;"/>
			</clipPath>
			<path style="clip-path:url(#SVGID_00000154421780582656237270000003586098869138436252_);fill:#1A1A1A;" d="M127.6,49v9.2
				c0,5.5,4.4,9.9,9.9,9.9s9.9-4.4,9.9-9.9V49h-4.7v9.2c0,2.9-2.3,5.2-5.2,5.2s-5.2-2.3-5.2-5.2V49H127.6z"/>
		</g>
	</g>
	<g>
		<g>
			<defs>
				<rect id="SVGID_00000049198483707156340880000003791952041911737526_" width="195.6" height="280.6"/>
			</defs>
			<clipPath id="SVGID_00000104684921132726834380000004228536204400830132_">
				<use xlink:href="#SVGID_00000049198483707156340880000003791952041911737526_"  style="overflow:visible;"/>
			</clipPath>
			<path style="clip-path:url(#SVGID_00000104684921132726834380000004228536204400830132_);fill:#1A1A1A;" d="M58,33.2
				c-5.5,0-9.9,4.4-9.9,9.9v9.2h4.7v-9.2c0-2.9,2.3-5.2,5.2-5.2s5.2,2.3,5.2,5.2l0,0v9.2H68v-9.2C68,37.7,63.6,33.3,58,33.2L58,33.2
				z"/>
		</g>
	</g>
	<g>
		<g>
			<defs>
				<rect id="SVGID_00000123422877183460638480000007408227183089299872_" width="195.6" height="280.6"/>
			</defs>
			<clipPath id="SVGID_00000049196781412884329370000010404129218097996172_">
				<use xlink:href="#SVGID_00000123422877183460638480000007408227183089299872_"  style="overflow:visible;"/>
			</clipPath>
			<path style="clip-path:url(#SVGID_00000049196781412884329370000010404129218097996172_);fill:#1A1A1A;" d="M137.5,33.2
				c-5.5,0-9.9,4.4-9.9,9.9v9.2h4.7v-9.2c0-2.9,2.3-5.2,5.2-5.2s5.2,2.3,5.2,5.2v9.2h4.7v-9.2C147.4,37.7,143,33.3,137.5,33.2z"/>
		</g>
	</g>
	<g>
		<g>
			<defs>
				<rect id="SVGID_00000082357737456884636990000013056450000193208222_" width="195.6" height="280.6"/>
			</defs>
			<clipPath id="SVGID_00000142147721354752105880000011288973342527221142_">
				<use xlink:href="#SVGID_00000082357737456884636990000013056450000193208222_"  style="overflow:visible;"/>
			</clipPath>
			<path style="clip-path:url(#SVGID_00000142147721354752105880000011288973342527221142_);fill:#EB5A53;" d="M150.6,0h29h16v16
				c0,7,0,14,0,21c-10.2,12.4-28.6,14.2-41,4S140.4,12.4,150.6,0z"/>
		</g>
	</g>
	<g>
		<g>
			<defs>
				<rect id="SVGID_00000164512294062785811080000009165781598177783693_" width="195.6" height="280.6"/>
			</defs>
			<clipPath id="SVGID_00000080204712531415962610000005840017795664259740_">
				<use xlink:href="#SVGID_00000164512294062785811080000009165781598177783693_"  style="overflow:visible;"/>
			</clipPath>
		</g>
	</g>
</g>
<g class="st26">
	<path class="st27" d="M63.2,217.3l-3,9.8l4,14.8H57l-2.3-10.7v10.7h-7.5v-30h7.5v12.6l2.3-7.2L63.2,217.3L63.2,217.3z"/>
	<path class="st27" d="M82.2,225.9v6c0,2.2-0.1,3.8-0.3,4.9c-0.2,1-0.7,2-1.4,2.9c-0.7,0.9-1.7,1.6-2.8,2c-1.1,0.4-2.5,0.6-3.9,0.6
		c-1.7,0-3.1-0.2-4.2-0.5c-1.2-0.4-2-0.9-2.7-1.7c-0.6-0.7-1.1-1.6-1.4-2.7c-0.3-1-0.4-2.6-0.4-4.7v-6.3c0-2.3,0.2-4.1,0.7-5.4
		c0.5-1.3,1.4-2.3,2.7-3.1c1.3-0.8,2.9-1.2,4.9-1.2c1.7,0,3.1,0.3,4.3,0.8c1.2,0.5,2.1,1.2,2.8,2c0.7,0.8,1.1,1.6,1.3,2.5
		S82.2,224.2,82.2,225.9z M74.7,224.1c0-1.3-0.1-2.1-0.2-2.4c-0.1-0.3-0.4-0.5-0.9-0.5s-0.7,0.2-0.9,0.5c-0.1,0.3-0.2,1.1-0.2,2.4
		v11.1c0,1.2,0.1,1.9,0.2,2.3c0.1,0.4,0.4,0.5,0.9,0.5c0.4,0,0.7-0.2,0.9-0.5c0.1-0.3,0.2-1,0.2-2.1V224.1z"/>
	<path class="st27" d="M92.4,211.9v30h-7.7v-30H92.4z"/>
	<path class="st27" d="M105.1,241.9c-1.1,1-1.6,1.8-1.6,2.5c0,0.8,0.4,1.2,1.3,1.2c0.6,0,1.3-0.2,2.1-0.5l0.8,1.9
		c-1.2,0.6-2.3,0.8-3.2,0.8c-1.1,0-2-0.3-2.7-0.8s-1-1.2-1-2.1c0-1,0.5-2,1.6-3c-1.5-0.1-2.7-0.4-3.8-0.8c-1.1-0.5-1.9-1.1-2.5-2
		c-0.6-0.8-1-1.7-1.1-2.6c-0.1-0.9-0.2-2.1-0.2-3.5v-7.2c0-1.3,0.1-2.5,0.3-3.5c0.2-1,0.6-1.9,1.3-2.7c0.7-0.8,1.6-1.4,2.7-1.7
		c1.1-0.4,2.5-0.6,4-0.6c2.3,0,4.2,0.4,5.5,1.1c1.4,0.7,2.3,1.8,2.7,3.1c0.4,1.3,0.6,3.1,0.6,5.3v3.3h-9.7v5.3
		c0,1.2,0.1,1.9,0.3,2.2c0.2,0.3,0.5,0.4,0.9,0.4c0.5,0,0.9-0.2,1.1-0.6c0.2-0.4,0.3-1,0.3-2v-3.8h7.1v1.8c0,1.4-0.1,2.5-0.2,3.3
		c-0.2,0.8-0.5,1.7-1.2,2.6c-0.6,0.9-1.4,1.5-2.3,1.9C107.5,241.6,106.4,241.8,105.1,241.9z M102.3,223v3h2.2v-1.8
		c0-1.2-0.1-2-0.2-2.4s-0.4-0.6-0.9-0.6c-0.4,0-0.7,0.1-0.9,0.4C102.4,221.8,102.3,222.3,102.3,223z"/>
	<path class="st27" d="M131.6,211.9v30h-7.5v-1.8c-0.7,0.7-1.5,1.3-2.3,1.7s-1.6,0.6-2.5,0.6c-1.2,0-2.2-0.3-3-0.9
		c-0.9-0.6-1.4-1.3-1.6-2.1s-0.4-2.1-0.4-3.9V224c0-1.9,0.1-3.2,0.4-4c0.2-0.8,0.8-1.5,1.7-2.1c0.9-0.6,1.9-0.9,3.1-0.9
		c0.9,0,1.8,0.2,2.6,0.5c0.8,0.3,1.5,0.8,2.1,1.5v-7h7.4V211.9z M124.1,223.5c0-0.9-0.1-1.5-0.2-1.8c-0.2-0.3-0.5-0.5-0.9-0.5
		s-0.7,0.1-0.9,0.4c-0.2,0.3-0.2,0.9-0.2,1.9v12.1c0,1,0.1,1.7,0.2,2s0.4,0.5,0.9,0.5s0.8-0.2,1-0.5c0.2-0.4,0.2-1.2,0.2-2.6
		L124.1,223.5L124.1,223.5z"/>
	<path class="st27" d="M149.9,217.3l-2.1,17.8c-0.3,2.8-0.6,4.7-0.9,5.8c-0.2,1-0.6,1.9-1.1,2.5c-0.5,0.7-1.3,1.2-2.2,1.5
		s-2.5,0.5-4.5,0.5h-4.5v-3.9c1.2,0,1.9-0.1,2.2-0.2c0.3-0.1,0.5-0.4,0.5-0.8c0-0.2-0.2-1.1-0.5-2.6l-4.1-20.6h6.8l2.5,16.6
		l1.2-16.6H149.9z"/>
</g>
<g class="st26">
	<path class="st28" d="M169,15.9v2.5h-4.9v2.7c0.6-0.7,1.4-1.1,2.4-1.1c1.1,0,1.9,0.3,2.5,0.9s0.8,1.8,0.8,3.5v2.3
		c0,1.1-0.1,1.9-0.2,2.5s-0.3,1-0.7,1.5s-0.8,0.8-1.5,1c-0.6,0.2-1.4,0.4-2.3,0.4c-1,0-1.9-0.2-2.7-0.5c-0.8-0.4-1.3-0.9-1.7-1.6
		c-0.3-0.7-0.5-1.8-0.5-3.3v-0.9h3.9v1c0,1,0,1.7,0.1,2.2c0.1,0.4,0.3,0.6,0.7,0.6c0.2,0,0.4-0.1,0.5-0.2c0.1-0.1,0.2-0.3,0.2-0.4
		s0-0.8,0-1.9V24c0-0.6-0.1-1-0.2-1.2c-0.1-0.2-0.3-0.3-0.6-0.3c-0.2,0-0.3,0.1-0.5,0.2c-0.1,0.1-0.2,0.2-0.2,0.4
		c0,0.1-0.1,0.4-0.1,0.9h-3.9l0.2-8H169z"/>
	<path class="st28" d="M180.4,21.3v5.3c0,1.2-0.1,2.1-0.2,2.6c-0.1,0.5-0.4,1.1-0.8,1.5s-0.9,0.8-1.5,1c-0.6,0.2-1.2,0.3-1.9,0.3
		c-0.9,0-1.7-0.1-2.4-0.3s-1.1-0.6-1.5-1s-0.6-0.9-0.8-1.5s-0.2-1.3-0.2-2.4v-5.5c0-1.5,0.1-2.5,0.4-3.3c0.3-0.7,0.7-1.3,1.5-1.7
		c0.7-0.4,1.6-0.7,2.7-0.7c0.9,0,1.6,0.2,2.3,0.5s1.2,0.7,1.5,1.1c0.3,0.4,0.6,0.9,0.7,1.5C180.4,19.2,180.4,20.1,180.4,21.3z
		 M176.5,20c0-0.8,0-1.4-0.1-1.6c-0.1-0.2-0.3-0.3-0.6-0.3c-0.3,0-0.5,0.1-0.6,0.3c-0.1,0.2-0.1,0.7-0.1,1.6v7.7
		c0,0.9,0,1.5,0.1,1.7s0.3,0.3,0.6,0.3s0.5-0.1,0.6-0.3c0.1-0.2,0.1-0.7,0.1-1.5V20z"/>
</g>
</svg>
