<?xml version="1.0" encoding="utf-8"?>
<!-- Generator: Adobe Illustrator 26.0.1, SVG Export Plug-In . SVG Version: 6.00 Build 0)  -->
<svg version="1.1" id="Слой_1" xmlns="http://www.w3.org/2000/svg" xmlns:xlink="http://www.w3.org/1999/xlink" x="0px" y="0px"
	 viewBox="0 0 195.6 280.6" style="enable-background:new 0 0 195.6 280.6;" xml:space="preserve">
<style type="text/css">
	.st0{clip-path:url(#SVGID_00000095324047354408494860000016953205925074113930_);fill:#FFFFFF;}
	.st1{clip-path:url(#SVGID_00000133529958959010358730000009613474455514830209_);enable-background:new    ;}
	.st2{fill:#1A1A1A;}
	.st3{clip-path:url(#SVGID_00000115508810101850383960000015153710927535524283_);fill:#1A1A1A;}
	.st4{clip-path:url(#SVGID_00000089567849950869172400000015045221121229032368_);fill:#1A1A1A;}
	.st5{clip-path:url(#SVGID_00000147917677372657538670000005800499687160045207_);fill:#1A1A1A;}
	.st6{clip-path:url(#SVGID_00000152245159270103750080000001108129193365054641_);fill:#1A1A1A;}
	.st7{clip-path:url(#SVGID_00000109013268537306995680000012052933380708445071_);fill:#1A1A1A;}
	.st8{clip-path:url(#SVGID_00000016780409360284655000000009397710765132494509_);fill:#1A1A1A;}
	.st9{clip-path:url(#SVGID_00000175315856212935541340000016236149564988774031_);fill:#DBE492;}
	.st10{clip-path:url(#SVGID_00000127723132874071865530000006017619188858784678_);fill:#FFFFFF;}
	.st11{clip-path:url(#SVGID_00000111188410300636567680000015329306717126553004_);fill:#FFFFFF;}
	.st12{clip-path:url(#SVGID_00000091734220457558210160000014861184294934990236_);fill:#EB5A53;}
	.st13{clip-path:url(#SVGID_00000035492375437500853170000012388301298402877568_);fill:#1A1A1A;}
	.st14{clip-path:url(#SVGID_00000030476082028687832150000017244259890946931131_);fill:#1A1A1A;}
	.st15{clip-path:url(#SVGID_00000004543324746179045990000007072591995741248147_);fill:#1A1A1A;}
	.st16{clip-path:url(#SVGID_00000107572527584513085360000003483653996035369374_);fill:#1A1A1A;}
	.st17{clip-path:url(#SVGID_00000115489434761902575410000004784192610910919581_);fill:#1A1A1A;}
	.st18{clip-path:url(#SVGID_00000091719268076578452210000001620300650055787417_);fill:#1A1A1A;}
	.st19{clip-path:url(#SVGID_00000121973242727914252900000009872892284483675068_);fill:#1A1A1A;}
	.st20{clip-path:url(#SVGID_00000072968847916278283480000009081119917646981055_);fill:#1A1A1A;}
	.st21{clip-path:url(#SVGID_00000033347867725596366470000017154053904241938847_);fill:#FFFFFF;}
	.st22{clip-path:url(#SVGID_00000150081691284321039080000013113613304069186219_);fill:#1A1A1A;}
	.st23{clip-path:url(#SVGID_00000169522991465380892730000016500199589819933109_);fill:#FFFFFF;}
	.st24{clip-path:url(#SVGID_00000085952562228001908190000004075023738780646071_);fill:#1A1A1A;}
	.st25{clip-path:url(#SVGID_00000052104786709374163440000007317447872802005435_);fill:#1A1A1A;}
	.st26{clip-path:url(#SVGID_00000083803720728681270340000000688400653260867229_);fill:#1A1A1A;}
	.st27{clip-path:url(#SVGID_00000142161816615456315330000015468219492642864306_);fill:#EB5A53;}
	.st28{enable-background:new    ;}
	.st29{fill:#FFFFFF;}
</style>
<g>
	<g>
		<g>
			<defs>
				<rect id="SVGID_1_" width="195.6" height="280.6"/>
			</defs>
			<clipPath id="SVGID_00000104664352891087846110000009212316380001333139_">
				<use xlink:href="#SVGID_1_"  style="overflow:visible;"/>
			</clipPath>
			
				<rect x="-282.6" y="-1.1" style="clip-path:url(#SVGID_00000104664352891087846110000009212316380001333139_);fill:#FFFFFF;" width="493.6" height="290.5"/>
		</g>
	</g>
	<g>
		<g>
			<defs>
				<rect id="SVGID_00000127751922467841465090000007334790820316990877_" width="195.6" height="280.6"/>
			</defs>
			<clipPath id="SVGID_00000065038781010449508960000008574221993568765857_">
				<use xlink:href="#SVGID_00000127751922467841465090000007334790820316990877_"  style="overflow:visible;"/>
			</clipPath>
			<g style="clip-path:url(#SVGID_00000065038781010449508960000008574221993568765857_);enable-background:new    ;">
				<path class="st2" d="M63.2,217.3l-3,9.8l4,14.8H57l-2.3-10.7v10.7h-7.5v-30h7.5v12.6l2.3-7.2L63.2,217.3L63.2,217.3z"/>
				<path class="st2" d="M82.2,225.9v6c0,2.2-0.1,3.8-0.3,4.9c-0.2,1-0.7,2-1.4,2.9c-0.7,0.9-1.7,1.6-2.8,2
					c-1.1,0.4-2.5,0.6-3.9,0.6c-1.7,0-3.1-0.2-4.2-0.5c-1.2-0.4-2-0.9-2.7-1.7c-0.6-0.7-1.1-1.6-1.4-2.7c-0.3-1-0.4-2.6-0.4-4.7
					v-6.3c0-2.3,0.2-4.1,0.7-5.4c0.5-1.3,1.4-2.3,2.7-3.1c1.3-0.8,2.9-1.2,4.9-1.2c1.7,0,3.1,0.3,4.3,0.8c1.2,0.5,2.1,1.2,2.8,2
					c0.7,0.8,1.1,1.6,1.3,2.5S82.2,224.2,82.2,225.9z M74.7,224.1c0-1.3-0.1-2.1-0.2-2.4c-0.1-0.3-0.4-0.5-0.9-0.5s-0.7,0.2-0.9,0.5
					c-0.1,0.3-0.2,1.1-0.2,2.4v11.1c0,1.2,0.1,1.9,0.2,2.3c0.1,0.4,0.4,0.5,0.9,0.5c0.4,0,0.7-0.2,0.9-0.5c0.1-0.3,0.2-1,0.2-2.1
					V224.1z"/>
				<path class="st2" d="M92.4,211.9v30h-7.7v-30H92.4z"/>
				<path class="st2" d="M105.1,241.9c-1.1,1-1.6,1.8-1.6,2.5c0,0.8,0.4,1.2,1.3,1.2c0.6,0,1.3-0.2,2.1-0.5l0.8,1.9
					c-1.2,0.6-2.3,0.8-3.2,0.8c-1.1,0-2-0.3-2.7-0.8s-1-1.2-1-2.1c0-1,0.5-2,1.6-3c-1.5-0.1-2.7-0.4-3.8-0.8c-1.1-0.5-1.9-1.1-2.5-2
					c-0.6-0.8-1-1.7-1.1-2.6c-0.1-0.9-0.2-2.1-0.2-3.5v-7.2c0-1.3,0.1-2.5,0.3-3.5c0.2-1,0.6-1.9,1.3-2.7c0.7-0.8,1.6-1.4,2.7-1.7
					c1.1-0.4,2.5-0.6,4-0.6c2.3,0,4.2,0.4,5.5,1.1c1.4,0.7,2.3,1.8,2.7,3.1c0.4,1.3,0.6,3.1,0.6,5.3v3.3h-9.7v5.3
					c0,1.2,0.1,1.9,0.3,2.2c0.2,0.3,0.5,0.4,0.9,0.4c0.5,0,0.9-0.2,1.1-0.6c0.2-0.4,0.3-1,0.3-2v-3.8h7.1v1.8c0,1.4-0.1,2.5-0.2,3.3
					c-0.2,0.8-0.5,1.7-1.2,2.6c-0.6,0.9-1.4,1.5-2.3,1.9C107.5,241.6,106.4,241.8,105.1,241.9z M102.3,223v3h2.2v-1.8
					c0-1.2-0.1-2-0.2-2.4s-0.4-0.6-0.9-0.6c-0.4,0-0.7,0.1-0.9,0.4C102.4,221.8,102.3,222.3,102.3,223z"/>
				<path class="st2" d="M131.6,211.9v30h-7.5v-1.8c-0.7,0.7-1.5,1.3-2.3,1.7s-1.6,0.6-2.5,0.6c-1.2,0-2.2-0.3-3-0.9
					c-0.9-0.6-1.4-1.3-1.6-2.1s-0.4-2.1-0.4-3.9V224c0-1.9,0.1-3.2,0.4-4c0.2-0.8,0.8-1.5,1.7-2.1c0.9-0.6,1.9-0.9,3.1-0.9
					c0.9,0,1.8,0.2,2.6,0.5c0.8,0.3,1.5,0.8,2.1,1.5v-7h7.4V211.9z M124.1,223.5c0-0.9-0.1-1.5-0.2-1.8c-0.2-0.3-0.5-0.5-0.9-0.5
					s-0.7,0.1-0.9,0.4c-0.2,0.3-0.2,0.9-0.2,1.9v12.1c0,1,0.1,1.7,0.2,2s0.4,0.5,0.9,0.5s0.8-0.2,1-0.5c0.2-0.4,0.2-1.2,0.2-2.6
					L124.1,223.5L124.1,223.5z"/>
				<path class="st2" d="M149.9,217.3l-2.1,17.8c-0.3,2.8-0.6,4.7-0.9,5.8c-0.2,1-0.6,1.9-1.1,2.5c-0.5,0.7-1.3,1.2-2.2,1.5
					s-2.5,0.5-4.5,0.5h-4.5v-3.9c1.2,0,1.9-0.1,2.2-0.2c0.3-0.1,0.5-0.4,0.5-0.8c0-0.2-0.2-1.1-0.5-2.6l-4.1-20.6h6.8l2.5,16.6
					l1.2-16.6H149.9z"/>
			</g>
		</g>
	</g>
	<g>
		<g>
			<defs>
				<rect id="SVGID_00000057121633970513227410000010398655372554159544_" width="195.6" height="280.6"/>
			</defs>
			<clipPath id="SVGID_00000154418026714921818730000003787259277549059482_">
				<use xlink:href="#SVGID_00000057121633970513227410000010398655372554159544_"  style="overflow:visible;"/>
			</clipPath>
			<path style="clip-path:url(#SVGID_00000154418026714921818730000003787259277549059482_);fill:#1A1A1A;" d="M41.1,49v9.2
				c0,9.4,7.6,17,17,17s17-7.6,17-17V49H41.1z"/>
		</g>
	</g>
	<g>
		<g>
			<defs>
				<rect id="SVGID_00000178193249601437500580000016796977871537118109_" width="195.6" height="280.6"/>
			</defs>
			<clipPath id="SVGID_00000070099324062114177530000007980310218602594947_">
				<use xlink:href="#SVGID_00000178193249601437500580000016796977871537118109_"  style="overflow:visible;"/>
			</clipPath>
			<path style="clip-path:url(#SVGID_00000070099324062114177530000007980310218602594947_);fill:#1A1A1A;" d="M120.6,49v9.2
				c0,9.4,7.6,17,17,17s17-7.6,17-17V49H120.6z"/>
		</g>
	</g>
	<g>
		<g>
			<defs>
				<rect id="SVGID_00000175284167945957124410000014657715783189989795_" width="195.6" height="280.6"/>
			</defs>
			<clipPath id="SVGID_00000117652192262725265090000006792171986949665184_">
				<use xlink:href="#SVGID_00000175284167945957124410000014657715783189989795_"  style="overflow:visible;"/>
			</clipPath>
			<path style="clip-path:url(#SVGID_00000117652192262725265090000006792171986949665184_);fill:#1A1A1A;" d="M58,26.1
				c-9.4,0.1-16.9,7.6-17,17v9.2h34v-9.2C74.9,33.8,67.4,26.2,58,26.1L58,26.1z"/>
		</g>
	</g>
	<g>
		<g>
			<defs>
				<rect id="SVGID_00000061445713001357311580000015211953554025205384_" width="195.6" height="280.6"/>
			</defs>
			<clipPath id="SVGID_00000152231016523577470940000001604954148201647521_">
				<use xlink:href="#SVGID_00000061445713001357311580000015211953554025205384_"  style="overflow:visible;"/>
			</clipPath>
			<path style="clip-path:url(#SVGID_00000152231016523577470940000001604954148201647521_);fill:#1A1A1A;" d="M137.5,26.1
				c-9.4,0.1-16.9,7.6-17,17v9.2h34v-9.2C154.5,33.8,146.9,26.2,137.5,26.1L137.5,26.1z"/>
		</g>
	</g>
	<g>
		<g>
			<defs>
				<rect id="SVGID_00000030488115898289870110000006624502486455978391_" width="195.6" height="280.6"/>
			</defs>
			<clipPath id="SVGID_00000110453903481748335660000015428081597201705857_">
				<use xlink:href="#SVGID_00000030488115898289870110000006624502486455978391_"  style="overflow:visible;"/>
			</clipPath>
			<path style="clip-path:url(#SVGID_00000110453903481748335660000015428081597201705857_);fill:#1A1A1A;" d="M19.8,123.1v58.6
				c0.1,11.6,9.5,21,21.1,21.1h113.8c11.6-0.1,21-9.5,21.1-21.1v-58.6h-18.9v58.6c0.1,1.1-0.7,2.1-1.8,2.2c-0.2,0-0.3,0-0.5,0H40.9
				c-1.1,0.1-2.1-0.7-2.2-1.8c0-0.2,0-0.3,0-0.5V123L19.8,123.1L19.8,123.1z"/>
		</g>
	</g>
	<g>
		<g>
			<defs>
				<rect id="SVGID_00000045594128430524066920000011576114035215129020_" width="195.6" height="280.6"/>
			</defs>
			<clipPath id="SVGID_00000038414411607091120400000000983962824324808611_">
				<use xlink:href="#SVGID_00000045594128430524066920000011576114035215129020_"  style="overflow:visible;"/>
			</clipPath>
			<path style="clip-path:url(#SVGID_00000038414411607091120400000000983962824324808611_);fill:#1A1A1A;" d="M40.9,46.8
				c-11.6,0.1-21,9.5-21.1,21.1v58.6h18.9V67.9c-0.1-1.1,0.7-2.1,1.8-2.2c0.2,0,0.3,0,0.5,0h113.8c1.1-0.1,2.1,0.7,2.2,1.8
				c0,0.2,0,0.3,0,0.5v58.6h18.9V67.9c-0.1-11.6-9.5-21-21.1-21.1L40.9,46.8z"/>
		</g>
	</g>
	<g>
		<g>
			<defs>
				<rect id="SVGID_00000094583318904578990880000006720848083027769728_" width="195.6" height="280.6"/>
			</defs>
			<clipPath id="SVGID_00000044869771385714434570000004187162186930649015_">
				<use xlink:href="#SVGID_00000094583318904578990880000006720848083027769728_"  style="overflow:visible;"/>
			</clipPath>
			<path style="clip-path:url(#SVGID_00000044869771385714434570000004187162186930649015_);fill:#DBE492;" d="M40.9,56.2h113.8
				c6.4,0,11.7,5.2,11.7,11.6c0,0,0,0,0,0.1v113.8c0,6.4-5.2,11.7-11.6,11.7c0,0,0,0-0.1,0H40.9c-6.4,0-11.7-5.2-11.7-11.6
				c0,0,0,0,0-0.1V67.9C29.2,61.5,34.4,56.3,40.9,56.2L40.9,56.2z"/>
		</g>
	</g>
	<g>
		<g>
			<defs>
				<rect id="SVGID_00000042703966243916031710000003736724361077248675_" width="195.6" height="280.6"/>
			</defs>
			<clipPath id="SVGID_00000088132207168109466590000010347718776569308808_">
				<use xlink:href="#SVGID_00000042703966243916031710000003736724361077248675_"  style="overflow:visible;"/>
			</clipPath>
			
				<rect x="49.2" y="76.1" style="clip-path:url(#SVGID_00000088132207168109466590000010347718776569308808_);fill:#FFFFFF;" width="97.3" height="32.7"/>
		</g>
	</g>
	<g>
		<g>
			<defs>
				<rect id="SVGID_00000120560116786718795130000009319212377245350334_" width="195.6" height="280.6"/>
			</defs>
			<clipPath id="SVGID_00000013192226385200393050000007489838209873386892_">
				<use xlink:href="#SVGID_00000120560116786718795130000009319212377245350334_"  style="overflow:visible;"/>
			</clipPath>
			
				<rect x="49.2" y="109.7" style="clip-path:url(#SVGID_00000013192226385200393050000007489838209873386892_);fill:#FFFFFF;" width="97.3" height="16.3"/>
		</g>
	</g>
	<g>
		<g>
			<defs>
				<rect id="SVGID_00000039124362381861665060000017967225991085594787_" width="195.6" height="280.6"/>
			</defs>
			<clipPath id="SVGID_00000168077286049652515820000002908238476005264011_">
				<use xlink:href="#SVGID_00000039124362381861665060000017967225991085594787_"  style="overflow:visible;"/>
			</clipPath>
			
				<rect x="49.2" y="126.1" style="clip-path:url(#SVGID_00000168077286049652515820000002908238476005264011_);fill:#EB5A53;" width="97.3" height="47.5"/>
		</g>
	</g>
	<g>
		<g>
			<defs>
				<rect id="SVGID_00000003784389409563003030000014367686441500587662_" width="195.6" height="280.6"/>
			</defs>
			<clipPath id="SVGID_00000075149761024410130220000017211585932795538593_">
				<use xlink:href="#SVGID_00000003784389409563003030000014367686441500587662_"  style="overflow:visible;"/>
			</clipPath>
			<path style="clip-path:url(#SVGID_00000075149761024410130220000017211585932795538593_);fill:#1A1A1A;" d="M26.9,123.1v58.6
				c0,7.7,6.3,14,14,14h113.8c7.7,0,14-6.3,14-14v-58.6H164v58.6c0,5.1-4.1,9.3-9.2,9.3c-0.1,0-0.1,0-0.2,0H40.9
				c-5.1,0-9.3-4.1-9.3-9.1c0-0.1,0-0.1,0-0.2v-58.6H26.9z"/>
		</g>
	</g>
	<g>
		<g>
			<defs>
				<rect id="SVGID_00000129919875473472371970000017251120142544847265_" width="195.6" height="280.6"/>
			</defs>
			<clipPath id="SVGID_00000179641557014909150090000008277405261997348797_">
				<use xlink:href="#SVGID_00000129919875473472371970000017251120142544847265_"  style="overflow:visible;"/>
			</clipPath>
			<path style="clip-path:url(#SVGID_00000179641557014909150090000008277405261997348797_);fill:#1A1A1A;" d="M46.8,123.1v52.7h102
				v-52.7h-4.7v48H51.5v-48C51.5,123.1,46.8,123.1,46.8,123.1z"/>
		</g>
	</g>
	<g>
		<g>
			<defs>
				<rect id="SVGID_00000062163817159184969880000002711991783422265227_" width="195.6" height="280.6"/>
			</defs>
			<clipPath id="SVGID_00000075126110833990176540000015404904847241623486_">
				<use xlink:href="#SVGID_00000062163817159184969880000002711991783422265227_"  style="overflow:visible;"/>
			</clipPath>
			<path style="clip-path:url(#SVGID_00000075126110833990176540000015404904847241623486_);fill:#1A1A1A;" d="M40.9,53.9
				c-7.7,0-14,6.3-14,14v58.6h4.7V67.9c0-5.1,4.1-9.3,9.2-9.3h0.1h113.7c5.1,0,9.3,4,9.3,9.1c0,0.1,0,0.1,0,0.2v58.6h4.7V67.9
				c0-7.7-6.3-14-14-14H40.9z"/>
		</g>
	</g>
	<g>
		<g>
			<defs>
				<rect id="SVGID_00000060745479527164276250000018172350055848295587_" width="195.6" height="280.6"/>
			</defs>
			<clipPath id="SVGID_00000070827424658217870360000018409710632735503778_">
				<use xlink:href="#SVGID_00000060745479527164276250000018172350055848295587_"  style="overflow:visible;"/>
			</clipPath>
			
				<rect x="111.6" y="76.1" style="clip-path:url(#SVGID_00000070827424658217870360000018409710632735503778_);fill:#1A1A1A;" width="4.7" height="97.3"/>
		</g>
	</g>
	<g>
		<g>
			<defs>
				<rect id="SVGID_00000154402876488682795400000003053782709286442929_" width="195.6" height="280.6"/>
			</defs>
			<clipPath id="SVGID_00000043424722221693623470000006221379907439171997_">
				<use xlink:href="#SVGID_00000154402876488682795400000003053782709286442929_"  style="overflow:visible;"/>
			</clipPath>
			
				<rect x="79.2" y="76.1" style="clip-path:url(#SVGID_00000043424722221693623470000006221379907439171997_);fill:#1A1A1A;" width="4.7" height="97.3"/>
		</g>
	</g>
	<g>
		<g>
			<defs>
				<rect id="SVGID_00000121959715466490150260000011552523276751937670_" width="195.6" height="280.6"/>
			</defs>
			<clipPath id="SVGID_00000049903191870119459850000000377733105791311260_">
				<use xlink:href="#SVGID_00000121959715466490150260000011552523276751937670_"  style="overflow:visible;"/>
			</clipPath>
			
				<rect x="49.2" y="138.6" style="clip-path:url(#SVGID_00000049903191870119459850000000377733105791311260_);fill:#1A1A1A;" width="97.3" height="4.7"/>
		</g>
	</g>
	<g>
		<g>
			<defs>
				<rect id="SVGID_00000146484431245263983280000009062355922387677569_" width="195.6" height="280.6"/>
			</defs>
			<clipPath id="SVGID_00000107578485466886080940000011613245220435355280_">
				<use xlink:href="#SVGID_00000146484431245263983280000009062355922387677569_"  style="overflow:visible;"/>
			</clipPath>
			
				<rect x="49.2" y="106.2" style="clip-path:url(#SVGID_00000107578485466886080940000011613245220435355280_);fill:#1A1A1A;" width="97.3" height="4.7"/>
		</g>
	</g>
	<g>
		<g>
			<defs>
				<rect id="SVGID_00000163072669138631250800000007497854443758517389_" width="195.6" height="280.6"/>
			</defs>
			<clipPath id="SVGID_00000051357621494511657260000004671863295827719837_">
				<use xlink:href="#SVGID_00000163072669138631250800000007497854443758517389_"  style="overflow:visible;"/>
			</clipPath>
			<path style="clip-path:url(#SVGID_00000051357621494511657260000004671863295827719837_);fill:#1A1A1A;" d="M46.8,73.8v52.7h4.7
				v-48h92.6v48h4.7V73.8H46.8z"/>
		</g>
	</g>
	<g>
		<g>
			<defs>
				<rect id="SVGID_00000065766010044183969400000007530493399357334959_" width="195.6" height="280.6"/>
			</defs>
			<clipPath id="SVGID_00000015345336035378078210000002903612386289345922_">
				<use xlink:href="#SVGID_00000065766010044183969400000007530493399357334959_"  style="overflow:visible;"/>
			</clipPath>
			<path style="clip-path:url(#SVGID_00000015345336035378078210000002903612386289345922_);fill:#FFFFFF;" d="M58,35.6
				c4.2,0,7.5,3.3,7.5,7.5l0,0v15.1c0,4.2-3.4,7.5-7.5,7.5s-7.5-3.4-7.5-7.5V43.1C50.5,39,53.9,35.6,58,35.6L58,35.6z"/>
		</g>
	</g>
	<g>
		<g>
			<defs>
				<rect id="SVGID_00000144307118454977938420000017384272560168610491_" width="195.6" height="280.6"/>
			</defs>
			<clipPath id="SVGID_00000006694571627766419910000017793071073176854185_">
				<use xlink:href="#SVGID_00000144307118454977938420000017384272560168610491_"  style="overflow:visible;"/>
			</clipPath>
			<path style="clip-path:url(#SVGID_00000006694571627766419910000017793071073176854185_);fill:#1A1A1A;" d="M48.2,49v9.2
				c0,5.5,4.4,9.9,9.9,9.9s9.9-4.4,9.9-9.9V49h-4.7v9.2c0,2.9-2.3,5.2-5.2,5.2s-5.2-2.3-5.2-5.2V49H48.2z"/>
		</g>
	</g>
	<g>
		<g>
			<defs>
				<rect id="SVGID_00000183208666422889851490000000868216920683694013_" width="195.6" height="280.6"/>
			</defs>
			<clipPath id="SVGID_00000172426544729491137660000015508522788181260179_">
				<use xlink:href="#SVGID_00000183208666422889851490000000868216920683694013_"  style="overflow:visible;"/>
			</clipPath>
			<path style="clip-path:url(#SVGID_00000172426544729491137660000015508522788181260179_);fill:#FFFFFF;" d="M137.5,35.6
				c4.2,0,7.5,3.3,7.5,7.5l0,0v15.1c0,4.2-3.4,7.5-7.5,7.5c-4.2,0-7.5-3.4-7.5-7.5V43.1C130,39,133.4,35.6,137.5,35.6L137.5,35.6
				L137.5,35.6z"/>
		</g>
	</g>
	<g>
		<g>
			<defs>
				<rect id="SVGID_00000182490045861595374760000015686472169319020466_" width="195.6" height="280.6"/>
			</defs>
			<clipPath id="SVGID_00000160171916210278698850000018051979221621013659_">
				<use xlink:href="#SVGID_00000182490045861595374760000015686472169319020466_"  style="overflow:visible;"/>
			</clipPath>
			<path style="clip-path:url(#SVGID_00000160171916210278698850000018051979221621013659_);fill:#1A1A1A;" d="M127.6,49v9.2
				c0,5.5,4.4,9.9,9.9,9.9s9.9-4.4,9.9-9.9V49h-4.7v9.2c0,2.9-2.3,5.2-5.2,5.2s-5.2-2.3-5.2-5.2V49H127.6z"/>
		</g>
	</g>
	<g>
		<g>
			<defs>
				<rect id="SVGID_00000139972236342564817230000000922263229233107875_" width="195.6" height="280.6"/>
			</defs>
			<clipPath id="SVGID_00000150103152260054864950000005063078312599964297_">
				<use xlink:href="#SVGID_00000139972236342564817230000000922263229233107875_"  style="overflow:visible;"/>
			</clipPath>
			<path style="clip-path:url(#SVGID_00000150103152260054864950000005063078312599964297_);fill:#1A1A1A;" d="M58,33.2
				c-5.5,0-9.9,4.4-9.9,9.9v9.2h4.7v-9.2c0-2.9,2.3-5.2,5.2-5.2s5.2,2.3,5.2,5.2l0,0v9.2H68v-9.2C68,37.7,63.6,33.3,58,33.2L58,33.2
				z"/>
		</g>
	</g>
	<g>
		<g>
			<defs>
				<rect id="SVGID_00000132777507397260967950000001151654451081129878_" width="195.6" height="280.6"/>
			</defs>
			<clipPath id="SVGID_00000049926385511853045780000006261910388797343638_">
				<use xlink:href="#SVGID_00000132777507397260967950000001151654451081129878_"  style="overflow:visible;"/>
			</clipPath>
			<path style="clip-path:url(#SVGID_00000049926385511853045780000006261910388797343638_);fill:#1A1A1A;" d="M137.5,33.2
				c-5.5,0-9.9,4.4-9.9,9.9v9.2h4.7v-9.2c0-2.9,2.3-5.2,5.2-5.2s5.2,2.3,5.2,5.2v9.2h4.7v-9.2C147.4,37.7,143,33.3,137.5,33.2z"/>
		</g>
	</g>
	<g>
		<g>
			<defs>
				<rect id="SVGID_00000114786934778508865180000008577109631802732185_" width="195.6" height="280.6"/>
			</defs>
			<clipPath id="SVGID_00000159449326115791746310000004052543359032958593_">
				<use xlink:href="#SVGID_00000114786934778508865180000008577109631802732185_"  style="overflow:visible;"/>
			</clipPath>
			<path style="clip-path:url(#SVGID_00000159449326115791746310000004052543359032958593_);fill:#EB5A53;" d="M44.9,0h-29H0v16
				c0,7,0,14,0,21c10.3,12.3,28.7,14,41,3.7c6.6-5.5,10.5-13.7,10.4-22.4C51.5,11.6,49.1,5.2,44.9,0z"/>
		</g>
	</g>
	<g>
		<g>
			<defs>
				<rect id="SVGID_00000176740814765082522000000002943083983723280309_" width="195.6" height="280.6"/>
			</defs>
			<clipPath id="SVGID_00000090257657779966882560000010563925593813483657_">
				<use xlink:href="#SVGID_00000176740814765082522000000002943083983723280309_"  style="overflow:visible;"/>
			</clipPath>
		</g>
	</g>
</g>
<g class="st28">
	<path class="st29" d="M24.9,15.9v2.5H20v2.7c0.6-0.7,1.4-1.1,2.4-1.1c1.1,0,1.9,0.3,2.5,0.9s0.8,1.8,0.8,3.5v2.3
		c0,1.1-0.1,1.9-0.2,2.5s-0.3,1-0.7,1.5s-0.8,0.8-1.5,1s-1.4,0.4-2.3,0.4c-1,0-1.9-0.2-2.7-0.5s-1.3-0.9-1.7-1.6s-0.5-1.8-0.5-3.3
		v-0.9h3.9v1c0,1,0,1.7,0.1,2.2s0.3,0.6,0.7,0.6c0.2,0,0.4-0.1,0.5-0.2s0.2-0.3,0.2-0.4s0-0.8,0-1.9V24c0-0.6-0.1-1-0.2-1.2
		s-0.3-0.3-0.6-0.3c-0.2,0-0.3,0.1-0.5,0.2s-0.2,0.2-0.2,0.4s-0.1,0.4-0.1,0.9h-3.9l0.2-8H24.9z"/>
	<path class="st29" d="M36.3,21.3v5.3c0,1.2-0.1,2.1-0.2,2.6s-0.4,1.1-0.8,1.5s-0.9,0.8-1.5,1s-1.2,0.3-1.9,0.3
		c-0.9,0-1.7-0.1-2.4-0.3s-1.1-0.6-1.5-1s-0.6-0.9-0.8-1.5S27,27.9,27,26.8v-5.5c0-1.5,0.1-2.5,0.4-3.3s0.7-1.3,1.5-1.7
		s1.6-0.7,2.7-0.7c0.9,0,1.6,0.2,2.3,0.5s1.2,0.7,1.5,1.1s0.6,0.9,0.7,1.5S36.3,20.1,36.3,21.3z M32.3,20c0-0.8,0-1.4-0.1-1.6
		s-0.3-0.3-0.6-0.3c-0.3,0-0.5,0.1-0.6,0.3s-0.1,0.7-0.1,1.6v7.7c0,0.9,0,1.5,0.1,1.7s0.3,0.3,0.6,0.3s0.5-0.1,0.6-0.3
		s0.1-0.7,0.1-1.5V20z"/>
</g>
</svg>
