<svg id="Слой_1" data-name="Слой 1" xmlns="http://www.w3.org/2000/svg" viewBox="0 0 195.59 280.63"><defs><style>.cls-1{fill:#fff;}.cls-2{font-size:38px;}.cls-15,.cls-2,.cls-3{fill:#1a1a1a;}.cls-15,.cls-2{font-family:Impact;}.cls-4{fill:#705454;}.cls-5{fill:#8b6d69;}.cls-6{fill:#4d3a39;}.cls-7{fill:#f1b67f;}.cls-8{fill:#f7e3b8;}.cls-9{fill:#ed6c31;}.cls-10{fill:#f5c45b;}.cls-11{fill:#ffea8a;}.cls-12{fill:#d58d5a;}.cls-13{fill:#b66341;}.cls-14{fill:#afdce0;}.cls-15{font-size:20px;}.cls-16{letter-spacing:-0.03em;}</style></defs><rect class="cls-1" x="-282.56" y="-1.13" width="493.56" height="290.47"/><text class="cls-2" transform="translate(68.4 49.16)">Noc<tspan x="-24.1" y="36">Kupały</tspan></text><path class="cls-3" d="M115.48,208.27a4.26,4.26,0,0,1,0,6L63.22,266.55a4.26,4.26,0,0,1-6,0L39.15,248.5a4.26,4.26,0,0,1,0-6l52.26-52.26a4.26,4.26,0,0,1,6,0Zm-9,3-12-12L48.19,245.49l12,12Zm0,0"/><path class="cls-3" d="M63.22,242.48a17,17,0,1,1-24.07,0,17.07,17.07,0,0,1,24.07,0Zm-6,6a8.5,8.5,0,1,0,0,12,8.44,8.44,0,0,0,0-12Zm0,0"/><path class="cls-4" d="M112.47,211.28l-18-18.05L42.17,245.49l18,18Zm0,0"/><path class="cls-5" d="M108.52,207.33,56.26,259.59l-4.51-4.51L104,202.82Zm0,0"/><path class="cls-6" d="M98.93,197.75,46.68,250l-4.51-4.51,52.25-52.26Zm0,0"/><path class="cls-3" d="M114.48,211.28l-1,1L60.21,265.54,40.16,245.49l54.26-54.26Zm-4,0-16-16L44.18,245.49l16,16Zm0,0"/><path class="cls-7" d="M42.17,245.49a12.75,12.75,0,1,0,9-3.74,12.73,12.73,0,0,0-9,3.74Zm0,0"/><path class="cls-3" d="M61.21,244.48a14.18,14.18,0,1,1-20.05,0,14.2,14.2,0,0,1,20.05,0Zm-2,2a11.34,11.34,0,1,0,0,16,11.32,11.32,0,0,0,0-16Zm0,0"/><path class="cls-8" d="M57.42,248.28a8.82,8.82,0,1,1-12.47,0,8.82,8.82,0,0,1,12.47,0Zm-1,1a7.4,7.4,0,1,0,0,10.46,7.39,7.39,0,0,0,0-10.46Zm0,0"/><path class="cls-8" d="M55,252.67a4,4,0,1,1-5.64,0,4,4,0,0,1,5.64,0Zm-1,1a2.57,2.57,0,1,0,0,3.63,2.55,2.55,0,0,0,0-3.63Zm0,0"/><path class="cls-3" d="M87,208.27a4.26,4.26,0,0,0,0,6l52.26,52.26a4.26,4.26,0,0,0,6,0l18-18.05a4.26,4.26,0,0,0,0-6L111,190.22a4.26,4.26,0,0,0-6,0Zm9,3,12-12,46.23,46.23-12,12Zm0,0"/><path class="cls-3" d="M139.22,242.48a17,17,0,1,0,24.07,0,17.09,17.09,0,0,0-24.07,0Zm6,6a8.5,8.5,0,1,1,0,12,8.43,8.43,0,0,1,0-12Zm0,0"/><path class="cls-4" d="M90,211.28l18-18.05,52.26,52.26-18.05,18Zm0,0"/><path class="cls-5" d="M93.92,207.33l52.26,52.26,4.51-4.51L98.44,202.82Zm0,0"/><path class="cls-6" d="M103.51,197.75,155.76,250l4.52-4.51L108,193.23Zm0,0"/><path class="cls-3" d="M88,211.28l1,1,53.26,53.26,20.06-20.05L108,191.23Zm4,0,16-16,50.25,50.25-16,16Zm0,0"/><path class="cls-7" d="M160.28,245.49a12.76,12.76,0,1,1-18.05,0,12.76,12.76,0,0,1,18.05,0Zm0,0"/><path class="cls-3" d="M141.23,244.48a14.18,14.18,0,1,0,20.05,0,14.2,14.2,0,0,0-20.05,0Zm2,2a11.34,11.34,0,1,1,0,16,11.31,11.31,0,0,1,0-16Zm0,0"/><path class="cls-8" d="M145,248.28a8.82,8.82,0,1,0,12.47,0,8.82,8.82,0,0,0-12.47,0Zm1,1a7.39,7.39,0,1,1,0,10.46,7.38,7.38,0,0,1,0-10.46Zm0,0"/><path class="cls-8" d="M147.45,252.67a4,4,0,1,0,5.64,0,4,4,0,0,0-5.64,0Zm1,1a2.57,2.57,0,1,1,0,3.63,2.55,2.55,0,0,1,0-3.63Zm0,0"/><path class="cls-3" d="M88.46,195.78A4.26,4.26,0,0,0,84.2,200v73.9a4.26,4.26,0,0,0,4.26,4.26H114a4.26,4.26,0,0,0,4.26-4.26V200a4.26,4.26,0,0,0-4.26-4.26Zm4.26,8.52h17v65.38h-17Zm0,0"/><path class="cls-3" d="M101.22,256.92a17,17,0,1,0,17,17,17.08,17.08,0,0,0-17-17Zm0,8.52a8.5,8.5,0,1,1-8.5,8.5,8.44,8.44,0,0,1,8.5-8.5Zm0,0"/><rect class="cls-4" x="88.46" y="200.04" width="25.52" height="73.9"/><rect class="cls-5" x="94.04" y="200.04" width="6.38" height="73.9"/><rect class="cls-6" x="107.6" y="200.04" width="6.38" height="73.9"/><path class="cls-3" d="M87,198.62v76.74H115.4V198.62Zm2.84,2.84h22.68v71.06H89.88Zm0,0"/><path class="cls-7" d="M114,273.94a12.76,12.76,0,1,1-12.76-12.76A12.71,12.71,0,0,1,114,273.94Zm0,0"/><path class="cls-3" d="M101.22,259.76a14.18,14.18,0,1,0,14.18,14.18,14.21,14.21,0,0,0-14.18-14.18Zm0,2.84a11.34,11.34,0,1,1-11.34,11.34,11.32,11.32,0,0,1,11.34-11.34Zm0,0"/><path class="cls-8" d="M101.22,265.13a8.82,8.82,0,1,0,8.82,8.81,8.82,8.82,0,0,0-8.82-8.81Zm0,1.42a7.4,7.4,0,1,1-7.39,7.39,7.39,7.39,0,0,1,7.39-7.39Zm0,0"/><path class="cls-8" d="M99.83,270a4,4,0,1,0,4,4,4,4,0,0,0-4-4Zm0,1.42a2.57,2.57,0,1,1-2.56,2.56,2.55,2.55,0,0,1,2.56-2.56Zm0,0"/><path class="cls-3" d="M95.6,95.91A15.09,15.09,0,0,0,94,96a8.48,8.48,0,0,0-6,3.06,8.92,8.92,0,0,0-1.58,6.17,24.25,24.25,0,0,0,1.4,6.19c2.14,6.21,1.63,10.44.3,13.33a10.07,10.07,0,0,1-6,5.39,6,6,0,0,1-4.84-.21c-.56-.45-1.22-.93.25-4.36a9.07,9.07,0,0,0,.8-5.72,6.82,6.82,0,0,0-3.94-4.53c-3.37-1.26-6-.28-8.38.9-8,3.94-13.28,9.6-16,16s-3,13.25-2.21,19.85c1.67,13.2,7.9,25.81,10.86,32.91.91,2.19.67,3.32.37,3.95a2.11,2.11,0,0,1-1.54,1.2c-1.48.35-3.56.28-4.33-4.11-.82-4.61-4.78-8.08-9.12-7.89s-8.07,4.17-8.78,9.32C33,203.48,40,217.06,51.37,226.21s26.95,14.33,43.08,15.35,32.87-2.15,46.49-10.45a55.55,55.55,0,0,0,26.57-40.91c.62-4.5-1.12-9.12-5.48-10.64a7.75,7.75,0,0,0-6.77,1,12.72,12.72,0,0,0-4.33,5.84c-1.12,2.71-2.4,3.77-3.21,4.16a1.77,1.77,0,0,1-1.79,0c-1-.52-2.32-1.6.28-5A48.19,48.19,0,0,0,154.49,169a34.13,34.13,0,0,0-3.29-26.16c-2.17-3.77-5.5-6.46-9.74-6.35a7.69,7.69,0,0,0-5.81,3,10.38,10.38,0,0,0-1.82,6.49c.14,8.45-3.87,10.34-6.7,10.55a3.45,3.45,0,0,1-2.63-.73c-.25-.3-.64-.5.34-2.49,6-12.19,6.95-24.61,2.74-34.94S114,100.11,101,96.77a24,24,0,0,0-5.35-.86Zm-.74,8.54a15.08,15.08,0,0,1,4,.57c10.94,2.81,17.71,8.82,20.85,16.54s2.66,17.49-2.5,28c-2,4.07-1.71,8.72.74,11.68a11.42,11.42,0,0,0,9.82,3.8c7.28-.54,14.79-7.46,14.61-19.19a2.86,2.86,0,0,1,0-.35,5,5,0,0,1,1.43,1.59,25,25,0,0,1,2.43,19.73,40.73,40.73,0,0,1-6.81,13.65c-4.9,6.41-3.08,14.7,2.45,17.68a10.59,10.59,0,0,0,9.48.17c3.14-1.49,5.73-4.46,7.44-8.61.08-.19.14-.25.22-.41-2.3,16.36-10.82,27.42-22.53,34.56S109.61,234,95,233.06s-28.69-5.77-38.28-13.49-14.85-17.86-13.05-31c.33-2.41.84-2,.72-2s.14-.32.34.84c1.43,8.12,8.68,12.38,14.73,10.92a10.81,10.81,0,0,0,7.27-5.87,13.45,13.45,0,0,0-.24-10.84c-3.17-7.61-8.85-19.51-10.27-30.7-.71-5.6-.36-10.89,1.59-15.41,1.86-4.33,5.14-8.14,11.13-11.26-1.36,4.84-.28,9.58,2.9,12.21,3.64,3,8.5,3.17,12.91,1.72a18.56,18.56,0,0,0,11.05-9.9c2.38-5.14,2.71-11.88,0-19.68a17.1,17.1,0,0,1-1-4v-.16Zm0,0"/><path class="cls-9" d="M142.83,183c4.49-5.87,14-21.85,4.68-38.1-3.18-5.52-9.53-6.06-9.41,1,.31,20.18-23,17.63-17.08,5.52,11.16-22.67,2.86-44.37-21.12-50.51-9.32-2.39-10.82,1.18-8.1,9.08,9.61,28-25.89,31.77-18.22,13.86,2.33-5.43-2.34-5.5-5.73-3.84-29.1,14.25-11.44,48.54-5.3,63.26,5,12.09-11.43,15.92-13.63,3.41-1-5.77-8.44-6.28-9.48,1.28-8,58.6,114.16,72.46,123.85,1.67.83-6.06-5.14-9.52-8.42-1.57-5.67,13.73-19.54,4.78-12-5Zm0,0"/><path class="cls-10" d="M130.75,197.36c.32-5.93-5.18-8.15-7.3-2.84-3.88,9.68-16,5.88-10.65-5.34,10.06-21.24-37-22.88-9.65-38.56,10.65-6.1,4.33-12.68-6.16-10.72-12.78,2.38-29.89,13.16-18.55,26.88,4.88,5.9.14,11.91-6.53,3.68-2.83-3.5-5.85-1.06-5.41,3.8.69,7.45,6.24,10.63,17.78,19,9.49,6.92-4.59,15.3-7.46,5.07-2.63-9.38-10.06-5.41-9.73,3.27,1.49,39.43,61.45,35.72,63.66-4.28Zm0,0"/><path class="cls-10" d="M131.24,183c-4.34,1.46-6-1.45-2.54-3.63,4.51-2.8,1.62-4.37,1.55-9.39-.1-6.53,9.79-5.48,9.8,1.21A12.58,12.58,0,0,1,131.24,183Zm0,0"/><path class="cls-10" d="M64.12,158.39c5.89.76,8.88-11.76,2.75-13.29-9.83-2.46-7,12.73-2.75,13.29Zm0,0"/><path class="cls-10" d="M107.74,133.7c3.89-2.24,5.63-5.82,3.66-8.23-2.2-2.67-7.65-2.66-6.05.43,1.42,2.74,1.39,3.87-.06,6-1,1.52-.08,3.21,2.45,1.76Zm0,0"/><path class="cls-11" d="M106.9,207.74c-8.2.55-5.67-8.6-2.49-14.1,3.38-5.83-1.47-6.3-6.4-2.24-16.09,13.28-11.67,38,7.45,30.75,9.5-3.61,10.86-15.05,1.44-14.41Zm0,0"/><path class="cls-3" d="M95.51,98.75c-.46,0-.9,0-1.31,0a5.46,5.46,0,0,0-4,1.94,6.17,6.17,0,0,0-1,4.27,21.79,21.79,0,0,0,1.26,5.45c2.31,6.75,1.87,11.82.19,15.45a12.93,12.93,0,0,1-7.67,6.9c-3,1-5.94.59-7.53-.72s-2.32-3.54-.55-7.67a6.55,6.55,0,0,0,.64-4,3.56,3.56,0,0,0-2.17-2.48c-2-.75-4.2-.15-6.14.79-7.52,3.69-12.17,8.79-14.64,14.54s-2.8,12.11-2,18.37c1.58,12.53,7.63,24.91,10.66,32.18,1.14,2.74,1,4.79.33,6.24a5,5,0,0,1-3.45,2.76c-3,.72-6.81-.75-7.8-6.38-.61-3.46-3.34-5.67-6.19-5.54s-5.51,2.63-6.1,6.86C36,202.89,42.38,215.32,53.15,224S79,237.74,94.63,238.73s31.83-2.12,44.83-10,22.76-20.76,25.23-38.86c.49-3.53-.95-6.65-3.6-7.58a4.69,4.69,0,0,0-4.21.68,10,10,0,0,0-3.32,4.59c-1.32,3.19-3,4.89-4.63,5.65a4.72,4.72,0,0,1-4.35,0c-2.47-1.34-4-4.82-.63-9.22a45.84,45.84,0,0,0,7.79-15.67,31.07,31.07,0,0,0-3-24c-1.78-3.1-4.48-5-7.21-4.93a4.6,4.6,0,0,0-3.6,1.87,7.66,7.66,0,0,0-1.26,4.75c.16,9.54-5,13.11-9.33,13.43a6,6,0,0,1-5-1.75c-1-1.18-1.34-2.87,0-5.55,5.72-11.62,6.52-23.16,2.66-32.62s-12.36-16.74-24.7-19.9a22.45,22.45,0,0,0-4.75-.77Zm-1.07,2.86a16.45,16.45,0,0,1,5.11.66c11.64,3,19.27,9.63,22.77,18.22s2.86,19.24-2.58,30.29c-1.66,3.38-1.33,6.55.38,8.62a8.67,8.67,0,0,0,7.43,2.77c5.79-.42,12.13-5.67,12-16.3a4.94,4.94,0,0,1,.69-3,1.59,1.59,0,0,1,1.4-.72c1.21,0,3.28,1.09,4.67,3.51A28,28,0,0,1,149,167.51a43.39,43.39,0,0,1-7.29,14.66c-4.14,5.4-2.47,11.29,1.54,13.45a7.59,7.59,0,0,0,6.91.1c2.37-1.12,4.52-3.45,6-7.13a7.56,7.56,0,0,1,2.32-3.34,1.7,1.7,0,0,1,1.65-.33c.94.33,2.08,2,1.73,4.51-2.37,17.29-11.52,29.27-23.9,36.82s-28,10.6-43.17,9.64S65.11,230,54.93,221.78s-16-19.48-14.08-33.64c.45-3.33,2-4.35,3.4-4.41s2.86.88,3.27,3.19c1.21,6.87,6.74,9.74,11.26,8.65a7.9,7.9,0,0,0,5.36-4.31c1.06-2.28,1.1-5.24-.28-8.54-3.1-7.45-9-19.58-10.46-31.44-.76-5.94-.42-11.75,1.79-16.89s6.26-9.68,13.28-13.12a6.58,6.58,0,0,1,3.89-.68c.3.11.33.12.4.43a4.37,4.37,0,0,1-.48,2.26c-2.07,4.82-1.26,8.83,1.36,11s6.51,2.43,10.22,1.22a15.78,15.78,0,0,0,9.35-8.4c2-4.39,2.42-10.3-.07-17.57A19.61,19.61,0,0,1,92,104.8a3.5,3.5,0,0,1,.45-2.36,2.45,2.45,0,0,1,2-.83Zm0,0"/><path class="cls-3" d="M185.66,157.77a7.61,7.61,0,0,0-10.3,2.76,8.39,8.39,0,0,0-.57,1.26l-38.87-21a7.54,7.54,0,0,0-7.54,13.06l79.16,48.62.06,0c-.42-.24-.35-.19.21.14a10.08,10.08,0,0,0,10.08-17.46,5,5,0,0,0-.91-.45l.54.25-26.11-14.14-2.23-8.44a7.53,7.53,0,0,0-3.52-4.58Zm27.3,36c.06,0,.07.06,0,.16s-.07.12-.19,0c.42.24.36.19-.21-.14l.12.07-4-2.46Zm0,0"/><path class="cls-3" d="M127.9,120.44a19.84,19.84,0,0,0-26.16,8.24c-5.84,10.11-4.32,23.14,5.2,28.64,8.82,5.09,20.63,1.92,26.47-8.2,3.18-5.5,4.49-11.18,3.59-16.4a17,17,0,0,0-9.1-12.28Zm-4.47,8.88a6.36,6.36,0,0,1,3.77,5.08c.41,2.39-.12,5.8-2.4,9.75-3.68,6.38-8.46,7.12-12.89,4.56-3.73-2.15-5.24-8.69-1.56-15.06s8.5-6.63,13.08-4.33Zm0,0"/><path class="cls-3" d="M146.22,130.81a14.49,14.49,0,0,0-2-.83c-5.93-1.94-9.4-4.76-15-8.79a5,5,0,0,0-6.94,1.15,5,5,0,0,0-.86,3.71,5,5,0,0,0,2,3.23c5.38,3.85,10.12,7.66,17.71,10.15,2,.67,2.86,1.77,3.24,4.28s-.29,6.33-2.56,10.27c-3.68,6.37-8.62,7.29-12.69,4.68-12.43-8-10.22-6-17.26-10a5,5,0,1,0-4.89,8.66c7.48,4.22,4.52,1.81,16.77,9.68,8.81,5.65,20.83,2,26.68-8.08,3.18-5.52,4.59-11.34,3.77-16.71a15.39,15.39,0,0,0-8-11.42Zm0,0"/><path class="cls-12" d="M210.09,198.15l.21.14a5.11,5.11,0,0,0,5.11-8.86l-.26-.13-28-15.16-2.79-10.51a2.53,2.53,0,0,0-1.19-1.56,2.57,2.57,0,0,0-3.84,2.49.77.77,0,0,0,0,.15l.73,5.61-46.53-25.2a2.57,2.57,0,0,0-2.57,4.45Zm0,0"/><path class="cls-13" d="M217.28,196.41a5.11,5.11,0,0,1-7,1.88l-.21-.14L131,149.57a2.6,2.6,0,0,1-.94-3.51,2.46,2.46,0,0,1,.9-.91,2.6,2.6,0,0,0,1.29,2.25L211.89,195c.07,0,.13.1.21.14a5.18,5.18,0,0,0,5.8-.51,5.17,5.17,0,0,1-.62,1.75Zm0,0"/><path class="cls-3" d="M183.53,161.46a3.28,3.28,0,0,0-4.9,3.17,1.41,1.41,0,0,1,0,.18l.56,4.22-45.32-24.54a3.28,3.28,0,0,0-3.27,5.68l79.1,48.59h0a1,1,0,0,0,.21.14,5.82,5.82,0,0,0,5.82-10.08,2.75,2.75,0,0,0-.35-.18l.07,0-27.72-15-2.71-10.22a3.24,3.24,0,0,0-1.53-2Zm-.71,1.23a1.84,1.84,0,0,1,.87,1.12l2.86,10.81,28.3,15.32,0,0,.16.09a4.4,4.4,0,0,1-4.4,7.62l-.21-.14L131.35,149a1.86,1.86,0,1,1,1.86-3.22L181,171.62l-.92-7s0-.09,0-.13a1.83,1.83,0,0,1,.24-1.12,1.86,1.86,0,0,1,2.54-.68Zm0,0"/><path class="cls-1" d="M109.42,153c7.27,4.1,4.68,1.91,17,9.83,6.44,4.13,14.93,1.86,19.69-6.38,5.46-9.46,4.13-19.27-3.44-21.75-6.76-2.22-10.86-5.54-16.37-9.48Zm0,0"/><path class="cls-14" d="M145.23,157.87a12.69,12.69,0,0,1-14.57.61,204,204,0,0,0-18.12-10.59L109.43,153c7.26,4.09,4.67,1.9,17,9.82,6,3.89,13.91,2.11,18.78-5Zm0,0"/><path class="cls-3" d="M144.35,134.62a13.15,13.15,0,0,0-1.44-.59c-6.64-2.18-10.65-5.42-16.18-9.37a.71.71,0,0,0-1,.16.72.72,0,0,0,.16,1c5.5,3.93,9.69,7.31,16.56,9.58,3.54,1.16,5.56,4,6.13,7.69s-.42,8.41-3.08,13c-4.61,8-12.58,10-18.69,6.14-12.35-7.93-9.82-5.77-17-9.85a.71.71,0,1,0-.7,1.24c7.29,4.11,4.66,1.89,17,9.8,6.78,4.35,15.76,1.89,20.68-6.62,2.79-4.84,3.88-9.8,3.25-13.95a10.64,10.64,0,0,0-5.65-8.24Zm0,0"/><path class="cls-14" d="M137.63,157.22a2.13,2.13,0,0,1-3.89-.51,2.12,2.12,0,1,1,4.1-1.1,2.16,2.16,0,0,1-.21,1.61Zm0,0"/><path class="cls-14" d="M135.11,150.15a.94.94,0,1,1-.34-1.29.94.94,0,0,1,.34,1.29Zm0,0"/><path class="cls-14" d="M129.61,155.36a.95.95,0,1,1-.35-1.29.94.94,0,0,1,.35,1.29Zm0,0"/><path class="cls-14" d="M144.9,145.64a.95.95,0,1,1-.35-1.29.94.94,0,0,1,.35,1.29Zm0,0"/><path class="cls-1" d="M129.1,146.64c-4.76,8.24-13,10.2-19.68,6.38s-8.14-13.61-3.38-21.86,13.06-9.58,19.62-6.28c7.13,3.59,8.91,12.3,3.44,21.76Zm0,0"/><path class="cls-3" d="M127.32,125a13.37,13.37,0,0,0-1.34-.77c-6.84-3.45-15.63-2-20.55,6.56s-3.4,18.75,3.64,22.82,15.74,1.87,20.65-6.64c2.79-4.84,3.77-9.54,3.08-13.55a12.36,12.36,0,0,0-5.48-8.42Zm-.77,1.19a10.82,10.82,0,0,1,4.85,7.47c.62,3.6-.24,8-2.91,12.6-4.61,8-12.4,9.77-18.71,6.12s-7.73-12.91-3.12-20.88,12.41-9.16,18.69-6a11.7,11.7,0,0,1,1.2.69Zm0,0"/><path class="cls-9" d="M45-.1l-29,0H.08l0,16q0,10.49,0,21A29.11,29.11,0,0,0,51.55,18.2,28.92,28.92,0,0,0,45-.1Z"/><text class="cls-15" transform="translate(15.65 31.65)"><tspan class="cls-16">5</tspan><tspan x="10.14" y="0">1</tspan></text></svg>