<?xml version="1.0" encoding="utf-8"?>
<!-- Generator: Adobe Illustrator 26.0.1, SVG Export Plug-In . SVG Version: 6.00 Build 0)  -->
<svg version="1.1" id="Слой_1" xmlns="http://www.w3.org/2000/svg" xmlns:xlink="http://www.w3.org/1999/xlink" x="0px" y="0px"
	 viewBox="0 0 195.6 280.6" style="enable-background:new 0 0 195.6 280.6;" xml:space="preserve">
<style type="text/css">
	.st0{clip-path:url(#SVGID_00000155147088357250316610000016357229208258766759_);fill:#FFFFFF;}
	.st1{enable-background:new    ;}
	.st2{fill:#1A1A1A;}
	.st3{clip-path:url(#SVGID_00000048500825450440555420000011777408565873027483_);fill:#1A1A1A;}
	.st4{clip-path:url(#SVGID_00000013890964678485026360000011097420531976375948_);fill:#1A1A1A;}
	.st5{clip-path:url(#SVGID_00000142167397243527254970000002884653221698189715_);fill:#705454;}
	.st6{clip-path:url(#SVGID_00000078763657214290381430000003192642716762624655_);fill:#8B6D69;}
	.st7{clip-path:url(#SVGID_00000147184187957000878210000007944933663105759367_);fill:#4D3A39;}
	.st8{clip-path:url(#SVGID_00000132804504671927366760000001955906782406585497_);fill:#1A1A1A;}
	.st9{clip-path:url(#SVGID_00000031179963759634182850000002258564644604283010_);fill:#F1B67F;}
	.st10{clip-path:url(#SVGID_00000124851829068209281630000015355242032808947104_);fill:#1A1A1A;}
	.st11{clip-path:url(#SVGID_00000011710656653128679220000001860789422112206475_);fill:#F7E3B8;}
	.st12{clip-path:url(#SVGID_00000070094289189740536440000001938715769225103237_);fill:#F7E3B8;}
	.st13{clip-path:url(#SVGID_00000108996220209487133490000004801992002247583677_);fill:#1A1A1A;}
	.st14{clip-path:url(#SVGID_00000104696176799694339780000003815105534837449612_);fill:#1A1A1A;}
	.st15{clip-path:url(#SVGID_00000047048648932737479650000015444909159955307649_);fill:#705454;}
	.st16{clip-path:url(#SVGID_00000080927620513653306320000015002929598409611959_);fill:#8B6D69;}
	.st17{clip-path:url(#SVGID_00000022540685556311578570000008821265808548342963_);fill:#4D3A39;}
	.st18{clip-path:url(#SVGID_00000165919618904823721390000009405873732994398865_);fill:#1A1A1A;}
	.st19{clip-path:url(#SVGID_00000155143705620097875070000005451733646271017380_);fill:#F1B67F;}
	.st20{clip-path:url(#SVGID_00000053528756957156181470000015281414998289975220_);fill:#1A1A1A;}
	.st21{clip-path:url(#SVGID_00000019670731751498780730000012364389704876251810_);fill:#F7E3B8;}
	.st22{clip-path:url(#SVGID_00000012470505784146204490000002874206841007568569_);fill:#F7E3B8;}
	.st23{clip-path:url(#SVGID_00000065065019424769520970000015455959081487716790_);fill:#1A1A1A;}
	.st24{clip-path:url(#SVGID_00000019666690972675085530000000584210939364322484_);fill:#1A1A1A;}
	.st25{clip-path:url(#SVGID_00000093138916725608358020000009391341389773326248_);fill:#705454;}
	.st26{clip-path:url(#SVGID_00000046335730326703515330000018200761094329407647_);fill:#8B6D69;}
	.st27{clip-path:url(#SVGID_00000018945938250996394840000009444237152169144222_);fill:#4D3A39;}
	.st28{clip-path:url(#SVGID_00000127748922968918159840000003549051597949136316_);fill:#1A1A1A;}
	.st29{clip-path:url(#SVGID_00000181065645576648797090000003791310973293535399_);fill:#F1B67F;}
	.st30{clip-path:url(#SVGID_00000003074032530176533700000009877469920493661356_);fill:#1A1A1A;}
	.st31{clip-path:url(#SVGID_00000031907469069940546650000013616309543867574691_);fill:#F7E3B8;}
	.st32{clip-path:url(#SVGID_00000010297116829939834110000017182130014434127801_);fill:#F7E3B8;}
	.st33{clip-path:url(#SVGID_00000034773673175215546420000005464641129751162011_);fill:#1A1A1A;}
	.st34{clip-path:url(#SVGID_00000109027263043703738800000015328250773372014776_);fill:#ED6C31;}
	.st35{clip-path:url(#SVGID_00000145024370586608161100000013089477600072263855_);fill:#F5C45B;}
	.st36{clip-path:url(#SVGID_00000034780038998936852530000006311144756354186119_);fill:#F5C45B;}
	.st37{clip-path:url(#SVGID_00000111891940532930818590000004317240209830586258_);fill:#F5C45B;}
	.st38{clip-path:url(#SVGID_00000159465732930075736800000016673995166023840896_);fill:#F5C45B;}
	.st39{clip-path:url(#SVGID_00000113331932078127705960000013361904622573351824_);fill:#FFEA8A;}
	.st40{clip-path:url(#SVGID_00000023268201706659632020000000043945576190422691_);fill:#1A1A1A;}
	.st41{clip-path:url(#SVGID_00000031171237328837229230000000790333798199281548_);fill:#1A1A1A;}
	.st42{clip-path:url(#SVGID_00000072979386072930588390000012537634838874562707_);fill:#1A1A1A;}
	.st43{clip-path:url(#SVGID_00000173120568043775491120000010848938107573199290_);fill:#1A1A1A;}
	.st44{clip-path:url(#SVGID_00000119803586006645963550000004976148833427134346_);fill:#D58D5A;}
	.st45{clip-path:url(#SVGID_00000083789778967419407150000013960369613671585201_);fill:#B66341;}
	.st46{clip-path:url(#SVGID_00000167394965335934176560000006942282702764315575_);fill:#1A1A1A;}
	.st47{clip-path:url(#SVGID_00000022556314689474632720000012537064551917777813_);fill:#FFFFFF;}
	.st48{clip-path:url(#SVGID_00000160897122282685064410000010670323895239284410_);fill:#AFDCE0;}
	.st49{clip-path:url(#SVGID_00000179625190890575107000000016767510623209199547_);fill:#1A1A1A;}
	.st50{clip-path:url(#SVGID_00000141423061786102400220000009463365332464265139_);fill:#AFDCE0;}
	.st51{clip-path:url(#SVGID_00000126317344185371260940000004430967131019810744_);fill:#AFDCE0;}
	.st52{clip-path:url(#SVGID_00000079465462002098627600000005167944505944425096_);fill:#AFDCE0;}
	.st53{clip-path:url(#SVGID_00000178926602524189837380000012474359213962212788_);fill:#AFDCE0;}
	.st54{clip-path:url(#SVGID_00000072275243163375451800000016718219295905701034_);fill:#FFFFFF;}
	.st55{clip-path:url(#SVGID_00000168835064298116668440000009358968846339066250_);fill:#1A1A1A;}
	.st56{clip-path:url(#SVGID_00000171717049616498294510000004683188377688990878_);fill:#ED6C31;}
</style>
<g>
	<g>
		<g>
			<defs>
				<rect id="SVGID_1_" width="195.6" height="280.6"/>
			</defs>
			<clipPath id="SVGID_00000087387432072661218100000006507011247901960083_">
				<use xlink:href="#SVGID_1_"  style="overflow:visible;"/>
			</clipPath>
			
				<rect x="-282.6" y="-1.1" style="clip-path:url(#SVGID_00000087387432072661218100000006507011247901960083_);fill:#FFFFFF;" width="493.6" height="290.5"/>
		</g>
	</g>
	<g class="st1">
		<path class="st2" d="M87.4,19.1v30h-6.8l-4.1-13.7v13.7H70v-30h6.5l4.4,13.5V19.1H87.4z"/>
		<path class="st2" d="M107.3,33.2v6c0,2.2-0.1,3.8-0.3,4.9c-0.2,1-0.7,2-1.4,2.9c-0.7,0.9-1.7,1.6-2.8,2c-1.1,0.4-2.5,0.6-3.9,0.6
			c-1.7,0-3.1-0.2-4.2-0.5c-1.2-0.4-2-0.9-2.7-1.7c-0.6-0.7-1.1-1.6-1.4-2.7c-0.3-1-0.4-2.6-0.4-4.7v-6.3c0-2.3,0.2-4.1,0.7-5.4
			s1.4-2.3,2.7-3.1c1.3-0.8,2.9-1.2,4.9-1.2c1.7,0,3.1,0.3,4.3,0.8c1.2,0.5,2.1,1.2,2.8,2c0.7,0.8,1.1,1.6,1.3,2.5
			S107.3,31.4,107.3,33.2z M99.8,31.3c0-1.3-0.1-2.1-0.2-2.4s-0.4-0.5-0.9-0.5c-0.4,0-0.7,0.2-0.9,0.5c-0.1,0.3-0.2,1.1-0.2,2.4
			v11.1c0,1.2,0.1,1.9,0.2,2.3c0.1,0.4,0.4,0.5,0.9,0.5c0.4,0,0.7-0.2,0.9-0.5c0.1-0.3,0.2-1,0.2-2.1V31.3z"/>
		<path class="st2" d="M126.3,33.8h-7.1V31c0-1-0.1-1.7-0.2-2c-0.2-0.4-0.5-0.5-0.9-0.5s-0.7,0.2-0.9,0.5c-0.1,0.3-0.2,1-0.2,2.1
			v11.6c0,0.9,0.1,1.5,0.3,2c0.2,0.4,0.5,0.7,1,0.7s0.8-0.2,1-0.7s0.3-1.3,0.3-2.6V39h6.7c0,2-0.1,3.4-0.2,4.4s-0.5,2-1.2,3
			s-1.6,1.8-2.7,2.3s-2.5,0.8-4.2,0.8c-2.1,0-3.8-0.4-5-1.1c-1.2-0.7-2.1-1.7-2.6-3s-0.8-3.2-0.8-5.6v-7c0-2.1,0.2-3.7,0.6-4.7
			c0.4-1.1,1.3-2,2.7-2.8c1.4-0.8,3-1.3,5-1.3s3.6,0.4,5,1.2c1.4,0.8,2.3,1.9,2.8,3.1C126.1,29.7,126.3,31.5,126.3,33.8z"/>
	</g>
	<g class="st1">
		<path class="st2" d="M64.5,55.1L60,68.7l4.9,16.5h-8.1l-3.2-12.9v12.9h-7.8v-30h7.8v11.7l3.5-11.7L64.5,55.1L64.5,55.1z"/>
		<path class="st2" d="M83.2,60.5v24.6h-7.6l0.1-2c-0.5,0.8-1.2,1.5-1.9,1.9s-1.6,0.6-2.6,0.6c-1.1,0-2.1-0.2-2.8-0.6
			s-1.3-0.9-1.6-1.6c-0.4-0.7-0.6-1.3-0.7-2S66,79.3,66,77.2V60.5h7.5v16.8c0,1.9,0.1,3.1,0.2,3.4c0.1,0.4,0.4,0.5,1,0.5
			s0.9-0.2,1-0.6s0.2-1.6,0.2-3.6V60.5H83.2z"/>
		<path class="st2" d="M93.5,60.5l-0.1,2.2c0.7-0.9,1.4-1.5,2.2-2c0.8-0.4,1.7-0.7,2.6-0.7c1.2,0,2.2,0.3,3,0.9
			c0.8,0.6,1.4,1.3,1.6,2.2c0.2,0.9,0.3,2.2,0.3,4.2v10.4c0,2.2-0.1,3.8-0.4,4.8c-0.3,0.9-0.8,1.7-1.6,2.3c-0.8,0.6-1.8,0.8-3,0.8
			c-0.9,0-1.8-0.2-2.6-0.7c-0.8-0.4-1.5-1.1-2.2-1.9v5.6h-7.5V60.5H93.5z M95.6,67.7c0-1.5-0.1-2.4-0.2-2.8
			c-0.1-0.3-0.4-0.5-0.9-0.5s-0.8,0.2-1,0.6c-0.1,0.4-0.2,1.3-0.2,2.7v10.2c0,1.5,0.1,2.4,0.2,2.8s0.5,0.6,1,0.6s0.8-0.2,0.9-0.5
			s0.2-1.2,0.2-2.5V67.7z"/>
		<path class="st2" d="M112.3,70.1h-7v-1.7c0-1.9,0.2-3.4,0.7-4.4c0.4-1,1.3-1.9,2.6-2.7c1.3-0.8,3-1.2,5.2-1.2
			c2.5,0,4.4,0.4,5.7,1.3c1.3,0.9,2.1,2,2.3,3.3c0.3,1.3,0.4,4,0.4,8.1v12.4h-7.3V83c-0.5,0.9-1,1.5-1.8,2c-0.7,0.4-1.6,0.7-2.6,0.7
			c-1.3,0-2.5-0.4-3.6-1.1s-1.6-2.3-1.6-4.8v-2c0-1.8,0.3-3.1,0.9-3.8s2-1.4,4.3-2.3c2.5-1,3.8-1.6,4-1.9s0.3-1,0.3-2
			c0-1.3-0.1-2.1-0.3-2.5c-0.2-0.4-0.5-0.6-1-0.6s-0.8,0.2-0.9,0.5s-0.2,1.2-0.2,2.6L112.3,70.1L112.3,70.1z M114.7,73.5
			c-1.2,0.9-1.9,1.6-2.1,2.2s-0.3,1.4-0.3,2.6c0,1.3,0.1,2.1,0.3,2.5s0.5,0.6,1,0.6s0.8-0.1,0.9-0.4s0.2-1.1,0.2-2.3V73.5z"/>
		<path class="st2" d="M132.7,65.8l1.3-0.4v3.2l-1.3,0.4v16.2H125V71.3l-1.3,0.4v-3.2l1.3-0.4v-13h7.7V65.8z"/>
		<path class="st2" d="M151.3,60.5l-2.1,17.8c-0.3,2.8-0.6,4.7-0.9,5.8c-0.2,1-0.6,1.9-1.1,2.5c-0.5,0.7-1.3,1.2-2.2,1.5
			s-2.5,0.5-4.5,0.5H136v-3.9c1.2,0,1.9-0.1,2.2-0.2s0.5-0.4,0.5-0.8c0-0.2-0.2-1.1-0.5-2.6L134,60.5h6.8l2.5,16.6l1.2-16.6H151.3z"
			/>
	</g>
	<g>
		<g>
			<defs>
				<rect id="SVGID_00000181063911981756388210000008141378915479384251_" width="195.6" height="280.6"/>
			</defs>
			<clipPath id="SVGID_00000160869720663875799610000008393626042521470370_">
				<use xlink:href="#SVGID_00000181063911981756388210000008141378915479384251_"  style="overflow:visible;"/>
			</clipPath>
			<path style="clip-path:url(#SVGID_00000160869720663875799610000008393626042521470370_);fill:#1A1A1A;" d="M115.5,208.3
				c1.6,1.7,1.6,4.3,0,6l-52.3,52.3c-1.7,1.6-4.3,1.6-6,0l-18.1-18c-1.6-1.7-1.6-4.3,0-6l52.3-52.3c1.7-1.6,4.3-1.6,6,0L115.5,208.3
				z M106.5,211.3l-12-12l-46.3,46.2l12,12L106.5,211.3z"/>
		</g>
	</g>
	<g>
		<g>
			<defs>
				<rect id="SVGID_00000023266570943738402000000016454811611899084698_" width="195.6" height="280.6"/>
			</defs>
			<clipPath id="SVGID_00000067200744436957366070000017867066277907038379_">
				<use xlink:href="#SVGID_00000023266570943738402000000016454811611899084698_"  style="overflow:visible;"/>
			</clipPath>
			<path style="clip-path:url(#SVGID_00000067200744436957366070000017867066277907038379_);fill:#1A1A1A;" d="M63.2,242.5
				c6.6,6.6,6.6,17.4,0,24s-17.4,6.6-24,0s-6.6-17.4,0-24S56.6,235.9,63.2,242.5z M57.2,248.5c-3.3-3.3-8.7-3.3-12,0s-3.3,8.7,0,12
				s8.7,3.3,12,0l0,0C60.5,257.2,60.6,251.9,57.2,248.5C57.3,248.5,57.2,248.5,57.2,248.5L57.2,248.5z"/>
		</g>
	</g>
	<g>
		<g>
			<defs>
				<rect id="SVGID_00000142860034718522856450000006938883436626257332_" width="195.6" height="280.6"/>
			</defs>
			<clipPath id="SVGID_00000123403623198578739700000007603277139418255263_">
				<use xlink:href="#SVGID_00000142860034718522856450000006938883436626257332_"  style="overflow:visible;"/>
			</clipPath>
			<path style="clip-path:url(#SVGID_00000123403623198578739700000007603277139418255263_);fill:#705454;" d="M112.5,211.3
				l-18-18.1l-52.3,52.3l18,18L112.5,211.3z"/>
		</g>
	</g>
	<g>
		<g>
			<defs>
				<rect id="SVGID_00000105390326208250735150000008417014223507263370_" width="195.6" height="280.6"/>
			</defs>
			<clipPath id="SVGID_00000096026421388030552540000011382121560730760884_">
				<use xlink:href="#SVGID_00000105390326208250735150000008417014223507263370_"  style="overflow:visible;"/>
			</clipPath>
			<path style="clip-path:url(#SVGID_00000096026421388030552540000011382121560730760884_);fill:#8B6D69;" d="M108.5,207.3
				l-52.3,52.3l-4.5-4.5l52.2-52.3L108.5,207.3z"/>
		</g>
	</g>
	<g>
		<g>
			<defs>
				<rect id="SVGID_00000172427139165791232090000009563930642726936466_" width="195.6" height="280.6"/>
			</defs>
			<clipPath id="SVGID_00000181796209177217562990000008598346173218366636_">
				<use xlink:href="#SVGID_00000172427139165791232090000009563930642726936466_"  style="overflow:visible;"/>
			</clipPath>
			<path style="clip-path:url(#SVGID_00000181796209177217562990000008598346173218366636_);fill:#4D3A39;" d="M98.9,197.8L46.7,250
				l-4.5-4.5l52.2-52.3L98.9,197.8z"/>
		</g>
	</g>
	<g>
		<g>
			<defs>
				<rect id="SVGID_00000003098828218634349080000005658825240399658410_" width="195.6" height="280.6"/>
			</defs>
			<clipPath id="SVGID_00000060021258139850709350000007771037668538005645_">
				<use xlink:href="#SVGID_00000003098828218634349080000005658825240399658410_"  style="overflow:visible;"/>
			</clipPath>
			<path style="clip-path:url(#SVGID_00000060021258139850709350000007771037668538005645_);fill:#1A1A1A;" d="M114.5,211.3l-1,1
				l-53.3,53.3l-20-20.1l54.3-54.3L114.5,211.3z M110.5,211.3l-16-16l-50.3,50.2l16,16L110.5,211.3z"/>
		</g>
	</g>
	<g>
		<g>
			<defs>
				<rect id="SVGID_00000108273180144504624850000006694082232552328580_" width="195.6" height="280.6"/>
			</defs>
			<clipPath id="SVGID_00000156569447042323231130000006228085700427966907_">
				<use xlink:href="#SVGID_00000108273180144504624850000006694082232552328580_"  style="overflow:visible;"/>
			</clipPath>
			<path style="clip-path:url(#SVGID_00000156569447042323231130000006228085700427966907_);fill:#F1B67F;" d="M42.2,245.5
				c-5,5-5,13.1,0,18c5,5,13.1,5,18,0c5-5,5-13.1,0-18c-2.4-2.4-5.6-3.7-9-3.7S44.6,243.1,42.2,245.5z"/>
		</g>
	</g>
	<g>
		<g>
			<defs>
				<rect id="SVGID_00000006705570146470843960000004424971230829045895_" width="195.6" height="280.6"/>
			</defs>
			<clipPath id="SVGID_00000041276023208490707810000015888180251160297894_">
				<use xlink:href="#SVGID_00000006705570146470843960000004424971230829045895_"  style="overflow:visible;"/>
			</clipPath>
			<path style="clip-path:url(#SVGID_00000041276023208490707810000015888180251160297894_);fill:#1A1A1A;" d="M61.2,244.5
				c5.5,5.5,5.5,14.5,0,20.1c-5.5,5.5-14.5,5.5-20.1,0c-5.5-5.5-5.5-14.5,0-20.1l0,0C46.7,239,55.7,239,61.2,244.5z M59.2,246.5
				c-4.4-4.4-11.6-4.5-16,0s-4.5,11.6,0,16s11.6,4.5,16,0l0,0C63.6,258.1,63.6,250.9,59.2,246.5L59.2,246.5z"/>
		</g>
	</g>
	<g>
		<g>
			<defs>
				<rect id="SVGID_00000036937771303883262600000006284372185220249738_" width="195.6" height="280.6"/>
			</defs>
			<clipPath id="SVGID_00000169518166041750008470000010386880934663357600_">
				<use xlink:href="#SVGID_00000036937771303883262600000006284372185220249738_"  style="overflow:visible;"/>
			</clipPath>
			<path style="clip-path:url(#SVGID_00000169518166041750008470000010386880934663357600_);fill:#F7E3B8;" d="M57.4,248.3
				c3.4,3.4,3.4,9,0,12.5s-9,3.4-12.5,0c-3.4-3.4-3.4-9,0-12.5l0,0C48.4,244.8,54,244.8,57.4,248.3z M56.4,249.3
				c-2.9-2.9-7.6-2.9-10.5,0s-2.9,7.6,0,10.5s7.6,2.9,10.5,0l0,0C59.3,256.9,59.3,252.2,56.4,249.3L56.4,249.3L56.4,249.3z"/>
		</g>
	</g>
	<g>
		<g>
			<defs>
				<rect id="SVGID_00000091015728351844320920000005673689508170689164_" width="195.6" height="280.6"/>
			</defs>
			<clipPath id="SVGID_00000040555384973228977950000017538136446887755690_">
				<use xlink:href="#SVGID_00000091015728351844320920000005673689508170689164_"  style="overflow:visible;"/>
			</clipPath>
			<path style="clip-path:url(#SVGID_00000040555384973228977950000017538136446887755690_);fill:#F7E3B8;" d="M55,252.7
				c1.6,1.6,1.6,4.1,0,5.7s-4.1,1.6-5.7,0s-1.6-4.1,0-5.7l0,0C50.9,251.1,53.4,251.1,55,252.7z M54,253.7c-1-1-2.6-1-3.6,0
				s-1,2.6,0,3.6s2.6,1,3.6,0l0,0C55,256.3,55,254.7,54,253.7L54,253.7L54,253.7z"/>
		</g>
	</g>
	<g>
		<g>
			<defs>
				<rect id="SVGID_00000147920753128037020230000005010052288859452067_" width="195.6" height="280.6"/>
			</defs>
			<clipPath id="SVGID_00000162314928470561660800000009540515002380301243_">
				<use xlink:href="#SVGID_00000147920753128037020230000005010052288859452067_"  style="overflow:visible;"/>
			</clipPath>
			<path style="clip-path:url(#SVGID_00000162314928470561660800000009540515002380301243_);fill:#1A1A1A;" d="M87,208.3
				c-1.6,1.7-1.6,4.3,0,6l52.3,52.3c1.7,1.6,4.3,1.6,6,0l18-18.1c1.6-1.7,1.6-4.3,0-6L111,190.2c-1.7-1.6-4.3-1.6-6,0L87,208.3z
				 M96,211.3l12-12l46.2,46.2l-12,12L96,211.3z"/>
		</g>
	</g>
	<g>
		<g>
			<defs>
				<rect id="SVGID_00000142877927108544948630000008523995028260087985_" width="195.6" height="280.6"/>
			</defs>
			<clipPath id="SVGID_00000094595795966019423090000009845672700759606145_">
				<use xlink:href="#SVGID_00000142877927108544948630000008523995028260087985_"  style="overflow:visible;"/>
			</clipPath>
			<path style="clip-path:url(#SVGID_00000094595795966019423090000009845672700759606145_);fill:#1A1A1A;" d="M139.2,242.5
				c-6.6,6.6-6.6,17.4,0,24s17.4,6.6,24,0s6.6-17.4,0-24C156.6,235.9,145.9,235.9,139.2,242.5z M145.2,248.5c3.3-3.3,8.7-3.3,12,0
				s3.3,8.7,0,12s-8.7,3.3-12,0l0,0C141.9,257.2,141.9,251.9,145.2,248.5L145.2,248.5L145.2,248.5z"/>
		</g>
	</g>
	<g>
		<g>
			<defs>
				<rect id="SVGID_00000111898544081041028400000002155859140136782231_" width="195.6" height="280.6"/>
			</defs>
			<clipPath id="SVGID_00000052087951536497955630000004774829896798373013_">
				<use xlink:href="#SVGID_00000111898544081041028400000002155859140136782231_"  style="overflow:visible;"/>
			</clipPath>
			<path style="clip-path:url(#SVGID_00000052087951536497955630000004774829896798373013_);fill:#705454;" d="M90,211.3l18-18.1
				l52.3,52.3l-18.1,18L90,211.3z"/>
		</g>
	</g>
	<g>
		<g>
			<defs>
				<rect id="SVGID_00000161600212268188961770000004435493402519749545_" width="195.6" height="280.6"/>
			</defs>
			<clipPath id="SVGID_00000132795908277915824170000017420097072452219042_">
				<use xlink:href="#SVGID_00000161600212268188961770000004435493402519749545_"  style="overflow:visible;"/>
			</clipPath>
			<path style="clip-path:url(#SVGID_00000132795908277915824170000017420097072452219042_);fill:#8B6D69;" d="M93.9,207.3
				l52.3,52.3l4.5-4.5l-52.2-52.3L93.9,207.3z"/>
		</g>
	</g>
	<g>
		<g>
			<defs>
				<rect id="SVGID_00000060018422473735151450000001009300185916138909_" width="195.6" height="280.6"/>
			</defs>
			<clipPath id="SVGID_00000142858090992489938940000016796332712020096910_">
				<use xlink:href="#SVGID_00000060018422473735151450000001009300185916138909_"  style="overflow:visible;"/>
			</clipPath>
			<path style="clip-path:url(#SVGID_00000142858090992489938940000016796332712020096910_);fill:#4D3A39;" d="M103.5,197.8
				l52.2,52.2l4.5-4.5L108,193.2L103.5,197.8z"/>
		</g>
	</g>
	<g>
		<g>
			<defs>
				<rect id="SVGID_00000115482958171507633060000015963454004306942862_" width="195.6" height="280.6"/>
			</defs>
			<clipPath id="SVGID_00000121241580871001477400000014573694741006155670_">
				<use xlink:href="#SVGID_00000115482958171507633060000015963454004306942862_"  style="overflow:visible;"/>
			</clipPath>
			<path style="clip-path:url(#SVGID_00000121241580871001477400000014573694741006155670_);fill:#1A1A1A;" d="M88,211.3l1,1
				l53.3,53.3l20.1-20.1L108,191.2L88,211.3z M92,211.3l16-16l50.2,50.2l-16,16L92,211.3z"/>
		</g>
	</g>
	<g>
		<g>
			<defs>
				<rect id="SVGID_00000040572642322600681190000011888549009413751436_" width="195.6" height="280.6"/>
			</defs>
			<clipPath id="SVGID_00000094595950934499560080000000016248892309543870_">
				<use xlink:href="#SVGID_00000040572642322600681190000011888549009413751436_"  style="overflow:visible;"/>
			</clipPath>
			<path style="clip-path:url(#SVGID_00000094595950934499560080000000016248892309543870_);fill:#F1B67F;" d="M160.3,245.5
				c5,5,5,13.1,0,18s-13.1,5-18,0c-5-5-5-13.1,0-18C147.2,240.5,155.3,240.5,160.3,245.5L160.3,245.5z"/>
		</g>
	</g>
	<g>
		<g>
			<defs>
				<rect id="SVGID_00000066492637292613174820000001032611494103758217_" width="195.6" height="280.6"/>
			</defs>
			<clipPath id="SVGID_00000154401687612005586470000003799853743141160879_">
				<use xlink:href="#SVGID_00000066492637292613174820000001032611494103758217_"  style="overflow:visible;"/>
			</clipPath>
			<path style="clip-path:url(#SVGID_00000154401687612005586470000003799853743141160879_);fill:#1A1A1A;" d="M141.2,244.5
				c-5.5,5.5-5.5,14.5,0,20.1c5.5,5.5,14.5,5.5,20.1,0s5.5-14.5,0-20.1l0,0C155.7,239,146.8,239,141.2,244.5z M143.2,246.5
				c4.4-4.4,11.6-4.5,16,0s4.5,11.6,0,16s-11.6,4.5-16,0l0,0C138.8,258.1,138.8,250.9,143.2,246.5L143.2,246.5L143.2,246.5z"/>
		</g>
	</g>
	<g>
		<g>
			<defs>
				<rect id="SVGID_00000101081698647145175490000010965910152900632249_" width="195.6" height="280.6"/>
			</defs>
			<clipPath id="SVGID_00000016060662745264684090000011993468592927328400_">
				<use xlink:href="#SVGID_00000101081698647145175490000010965910152900632249_"  style="overflow:visible;"/>
			</clipPath>
			<path style="clip-path:url(#SVGID_00000016060662745264684090000011993468592927328400_);fill:#F7E3B8;" d="M145,248.3
				c-3.4,3.4-3.4,9,0,12.5s9,3.4,12.5,0c3.4-3.4,3.4-9,0-12.5l0,0C154,244.8,148.4,244.8,145,248.3z M146,249.3
				c2.9-2.9,7.6-2.9,10.5,0s2.9,7.6,0,10.5s-7.6,2.9-10.4,0C143.1,256.9,143.1,252.2,146,249.3L146,249.3L146,249.3z"/>
		</g>
	</g>
	<g>
		<g>
			<defs>
				<rect id="SVGID_00000125601799201360303010000001881383231342039184_" width="195.6" height="280.6"/>
			</defs>
			<clipPath id="SVGID_00000083061784583937875310000015491097818967007901_">
				<use xlink:href="#SVGID_00000125601799201360303010000001881383231342039184_"  style="overflow:visible;"/>
			</clipPath>
			<path style="clip-path:url(#SVGID_00000083061784583937875310000015491097818967007901_);fill:#F7E3B8;" d="M147.4,252.7
				c-1.6,1.6-1.6,4.1,0,5.7s4.1,1.6,5.7,0s1.6-4.1,0-5.7l0,0C151.5,251.1,149,251.1,147.4,252.7z M148.4,253.7c1-1,2.6-1,3.6,0
				s1,2.6,0,3.6s-2.6,1-3.6,0l0,0C147.4,256.3,147.4,254.7,148.4,253.7L148.4,253.7L148.4,253.7z"/>
		</g>
	</g>
	<g>
		<g>
			<defs>
				<rect id="SVGID_00000096744818778055482780000004845800003853241733_" width="195.6" height="280.6"/>
			</defs>
			<clipPath id="SVGID_00000085220652228705425290000004881909339809385892_">
				<use xlink:href="#SVGID_00000096744818778055482780000004845800003853241733_"  style="overflow:visible;"/>
			</clipPath>
			<path style="clip-path:url(#SVGID_00000085220652228705425290000004881909339809385892_);fill:#1A1A1A;" d="M88.5,195.8
				c-2.3,0-4.2,1.9-4.3,4.2v73.9c0,2.4,1.9,4.3,4.3,4.3l0,0H114c2.4,0,4.3-1.9,4.3-4.3l0,0V200c0-2.4-1.9-4.3-4.3-4.3L88.5,195.8z
				 M92.7,204.3h17v65.4h-17V204.3z"/>
		</g>
	</g>
	<g>
		<g>
			<defs>
				<rect id="SVGID_00000086670958186241037220000007684537213919238564_" width="195.6" height="280.6"/>
			</defs>
			<clipPath id="SVGID_00000143590631277839790800000006079123052607023280_">
				<use xlink:href="#SVGID_00000086670958186241037220000007684537213919238564_"  style="overflow:visible;"/>
			</clipPath>
			<path style="clip-path:url(#SVGID_00000143590631277839790800000006079123052607023280_);fill:#1A1A1A;" d="M101.2,256.9
				c-9.4,0-17,7.6-17,17s7.6,17,17,17s17-7.6,17-17l0,0C118.2,264.5,110.6,257,101.2,256.9z M101.2,265.4c4.7,0,8.5,3.8,8.5,8.5
				s-3.8,8.5-8.5,8.5s-8.5-3.8-8.5-8.5S96.4,265.4,101.2,265.4L101.2,265.4z"/>
		</g>
	</g>
	<g>
		<g>
			<defs>
				<rect id="SVGID_00000181057404987207529470000002235495854021925554_" width="195.6" height="280.6"/>
			</defs>
			<clipPath id="SVGID_00000157297538219930822500000003571692264668858786_">
				<use xlink:href="#SVGID_00000181057404987207529470000002235495854021925554_"  style="overflow:visible;"/>
			</clipPath>
			
				<rect x="88.5" y="200" style="clip-path:url(#SVGID_00000157297538219930822500000003571692264668858786_);fill:#705454;" width="25.5" height="73.9"/>
		</g>
	</g>
	<g>
		<g>
			<defs>
				<rect id="SVGID_00000150104033610972873330000000795120390133141159_" width="195.6" height="280.6"/>
			</defs>
			<clipPath id="SVGID_00000053528437116064986730000014995333400774123189_">
				<use xlink:href="#SVGID_00000150104033610972873330000000795120390133141159_"  style="overflow:visible;"/>
			</clipPath>
			
				<rect x="94" y="200" style="clip-path:url(#SVGID_00000053528437116064986730000014995333400774123189_);fill:#8B6D69;" width="6.4" height="73.9"/>
		</g>
	</g>
	<g>
		<g>
			<defs>
				<rect id="SVGID_00000043426013077781880580000003776693993210956202_" width="195.6" height="280.6"/>
			</defs>
			<clipPath id="SVGID_00000061461519469486909490000011715684434810204344_">
				<use xlink:href="#SVGID_00000043426013077781880580000003776693993210956202_"  style="overflow:visible;"/>
			</clipPath>
			
				<rect x="107.6" y="200" style="clip-path:url(#SVGID_00000061461519469486909490000011715684434810204344_);fill:#4D3A39;" width="6.4" height="73.9"/>
		</g>
	</g>
	<g>
		<g>
			<defs>
				<rect id="SVGID_00000035519222217561741930000015060344382563806633_" width="195.6" height="280.6"/>
			</defs>
			<clipPath id="SVGID_00000026128580010443993080000010813375441114003862_">
				<use xlink:href="#SVGID_00000035519222217561741930000015060344382563806633_"  style="overflow:visible;"/>
			</clipPath>
			<path style="clip-path:url(#SVGID_00000026128580010443993080000010813375441114003862_);fill:#1A1A1A;" d="M87,198.6v76.7h28.4
				v-76.7L87,198.6L87,198.6z M89.8,201.5h22.7v71.1H89.9L89.8,201.5z"/>
		</g>
	</g>
	<g>
		<g>
			<defs>
				<rect id="SVGID_00000071520880951044017990000012739122719395031460_" width="195.6" height="280.6"/>
			</defs>
			<clipPath id="SVGID_00000016772052461193031350000010109688588377854374_">
				<use xlink:href="#SVGID_00000071520880951044017990000012739122719395031460_"  style="overflow:visible;"/>
			</clipPath>
			<path style="clip-path:url(#SVGID_00000016772052461193031350000010109688588377854374_);fill:#F1B67F;" d="M114,273.9
				c0,7-5.7,12.8-12.8,12.8c-7,0-12.8-5.7-12.8-12.8c0-7,5.7-12.8,12.8-12.8C108.2,261.1,113.9,266.7,114,273.9L114,273.9z"/>
		</g>
	</g>
	<g>
		<g>
			<defs>
				<rect id="SVGID_00000012440579422327291070000016758207514830545837_" width="195.6" height="280.6"/>
			</defs>
			<clipPath id="SVGID_00000003076896898862267200000015484943508704576187_">
				<use xlink:href="#SVGID_00000012440579422327291070000016758207514830545837_"  style="overflow:visible;"/>
			</clipPath>
			<path style="clip-path:url(#SVGID_00000003076896898862267200000015484943508704576187_);fill:#1A1A1A;" d="M101.2,259.8
				c-7.8,0-14.2,6.3-14.2,14.2s6.3,14.2,14.2,14.2s14.2-6.3,14.2-14.2l0,0C115.4,266.1,109,259.8,101.2,259.8z M101.2,262.6
				c6.3,0,11.3,5.1,11.3,11.3s-5.1,11.3-11.3,11.3s-11.3-5.1-11.3-11.3l0,0C89.9,267.7,94.9,262.6,101.2,262.6L101.2,262.6z"/>
		</g>
	</g>
	<g>
		<g>
			<defs>
				<rect id="SVGID_00000128453218275118891190000006692911602477671074_" width="195.6" height="280.6"/>
			</defs>
			<clipPath id="SVGID_00000132801782278567342730000005088405542457311897_">
				<use xlink:href="#SVGID_00000128453218275118891190000006692911602477671074_"  style="overflow:visible;"/>
			</clipPath>
			<path style="clip-path:url(#SVGID_00000132801782278567342730000005088405542457311897_);fill:#F7E3B8;" d="M101.2,265.1
				c-4.9,0-8.8,3.9-8.8,8.8s3.9,8.8,8.8,8.8s8.8-3.9,8.8-8.8l0,0C110,269.1,106.1,265.1,101.2,265.1z M101.2,266.6
				c4.1,0,7.4,3.3,7.4,7.4s-3.3,7.4-7.4,7.4s-7.4-3.3-7.4-7.4l0,0C93.8,269.9,97.1,266.6,101.2,266.6L101.2,266.6z"/>
		</g>
	</g>
	<g>
		<g>
			<defs>
				<rect id="SVGID_00000168117056154478213720000008200701595516379814_" width="195.6" height="280.6"/>
			</defs>
			<clipPath id="SVGID_00000000909920922504092360000004582956824105992077_">
				<use xlink:href="#SVGID_00000168117056154478213720000008200701595516379814_"  style="overflow:visible;"/>
			</clipPath>
			<path style="clip-path:url(#SVGID_00000000909920922504092360000004582956824105992077_);fill:#F7E3B8;" d="M99.8,270
				c-2.2,0-4,1.8-4,4s1.8,4,4,4s4-1.8,4-4S102,270,99.8,270z M99.8,271.4c1.4,0,2.6,1.1,2.6,2.6s-1.1,2.6-2.6,2.6
				c-1.4,0-2.6-1.1-2.6-2.6l0,0C97.3,272.6,98.4,271.4,99.8,271.4L99.8,271.4z"/>
		</g>
	</g>
	<g>
		<g>
			<defs>
				<rect id="SVGID_00000032634144218121921410000002509171451792583867_" width="195.6" height="280.6"/>
			</defs>
			<clipPath id="SVGID_00000097489575874893574500000001033467791562743204_">
				<use xlink:href="#SVGID_00000032634144218121921410000002509171451792583867_"  style="overflow:visible;"/>
			</clipPath>
			<path style="clip-path:url(#SVGID_00000097489575874893574500000001033467791562743204_);fill:#1A1A1A;" d="M95.6,95.9
				c-0.5,0-1.1,0-1.6,0.1c-2.3,0.1-4.5,1.3-6,3.1c-1.3,1.8-1.8,4-1.6,6.2c0.2,2.1,0.7,4.2,1.4,6.2c2.1,6.2,1.6,10.4,0.3,13.3
				c-1.2,2.6-3.3,4.5-6,5.4c-1.6,0.6-3.3,0.5-4.8-0.2c-0.6-0.4-1.2-0.9,0.2-4.4c0.9-1.8,1.2-3.8,0.8-5.7c-0.5-2-2-3.7-3.9-4.5
				c-3.4-1.3-6-0.3-8.4,0.9c-8,3.9-13.3,9.6-16,16c-2.7,6.4-3,13.2-2.2,19.9c1.7,13.2,7.9,25.8,10.9,32.9c0.9,2.2,0.7,3.3,0.4,3.9
				c-0.3,0.6-0.9,1.1-1.5,1.2c-1.5,0.4-3.6,0.3-4.3-4.1c-0.8-4.6-4.8-8.1-9.1-7.9s-8.1,4.2-8.8,9.3c-2.3,16,4.7,29.6,16.1,38.8
				s27,14.3,43.1,15.4s32.9-2.1,46.5-10.4c14.7-8.8,24.5-23.9,26.6-40.9c0.6-4.5-1.1-9.1-5.5-10.6c-2.3-0.7-4.8-0.4-6.8,1
				c-2,1.5-3.5,3.5-4.3,5.8c-1.1,2.7-2.4,3.8-3.2,4.2c-0.6,0.3-1.2,0.3-1.8,0c-1-0.5-2.3-1.6,0.3-5c3.8-4.9,6.6-10.6,8.3-16.6
				c2.5-8.8,1.3-18.2-3.3-26.2c-2.2-3.8-5.5-6.5-9.7-6.4c-2.3,0.1-4.4,1.2-5.8,3c-1.3,1.9-2,4.2-1.8,6.5c0.1,8.4-3.9,10.3-6.7,10.6
				c-0.9,0.1-1.9-0.1-2.6-0.7c-0.2-0.3-0.6-0.5,0.3-2.5c6-12.2,7-24.6,2.7-34.9S114,100.1,101,96.8C99.3,96.3,97.5,96,95.6,95.9
				L95.6,95.9z M94.9,104.5c1.4,0,2.7,0.2,4,0.6c10.9,2.8,17.7,8.8,20.8,16.5s2.7,17.5-2.5,28c-2,4.1-1.7,8.7,0.7,11.7
				c2.5,2.8,6.1,4.2,9.8,3.8c7.3-0.5,14.8-7.5,14.6-19.2c0-0.1,0-0.2,0-0.4c0.6,0.4,1.1,1,1.4,1.6c3.5,6,4.4,13.1,2.4,19.7
				c-1.4,4.9-3.7,9.6-6.8,13.6c-4.9,6.4-3.1,14.7,2.4,17.7c3,1.5,6.5,1.6,9.5,0.2c3.1-1.5,5.7-4.5,7.4-8.6c0.1-0.2,0.1-0.2,0.2-0.4
				c-2.3,16.4-10.8,27.4-22.5,34.6S109.6,234,95,233.1s-28.7-5.8-38.3-13.5s-14.8-17.9-13-31c0.3-2.4,0.8-2,0.7-2s0.1-0.3,0.3,0.8
				c1.4,8.1,8.7,12.4,14.7,10.9c3.2-0.8,5.9-2.9,7.3-5.9c1.4-3.5,1.4-7.4-0.2-10.8c-3.2-7.6-8.8-19.5-10.3-30.7
				c-0.7-5.6-0.4-10.9,1.6-15.4c1.9-4.3,5.1-8.1,11.1-11.3c-1.4,4.8-0.3,9.6,2.9,12.2c3.6,3,8.5,3.2,12.9,1.7
				c4.9-1.6,8.9-5.2,11.1-9.9c2.4-5.1,2.7-11.9,0-19.7C95.3,107.2,95,105.9,94.9,104.5L94.9,104.5L94.9,104.5z"/>
		</g>
	</g>
	<g>
		<g>
			<defs>
				<rect id="SVGID_00000013191127322929124860000007557771940208546727_" width="195.6" height="280.6"/>
			</defs>
			<clipPath id="SVGID_00000167376546862607652020000006279866519025945023_">
				<use xlink:href="#SVGID_00000013191127322929124860000007557771940208546727_"  style="overflow:visible;"/>
			</clipPath>
			<path style="clip-path:url(#SVGID_00000167376546862607652020000006279866519025945023_);fill:#ED6C31;" d="M142.8,183
				c4.5-5.9,14-21.9,4.7-38.1c-3.2-5.5-9.5-6.1-9.4,1c0.3,20.2-23,17.6-17.1,5.5c11.2-22.7,2.9-44.4-21.1-50.5
				c-9.3-2.4-10.8,1.2-8.1,9.1c9.6,28-25.9,31.8-18.2,13.9c2.3-5.4-2.3-5.5-5.7-3.8c-29.1,14.2-11.4,48.5-5.3,63.3
				c5,12.1-11.4,15.9-13.6,3.4c-1-5.8-8.4-6.3-9.5,1.3c-8,58.6,114.2,72.5,123.8,1.7c0.8-6.1-5.1-9.5-8.4-1.6
				C149.2,201.8,135.3,192.8,142.8,183L142.8,183z"/>
		</g>
	</g>
	<g>
		<g>
			<defs>
				<rect id="SVGID_00000029021912419018586360000014122862191485600393_" width="195.6" height="280.6"/>
			</defs>
			<clipPath id="SVGID_00000111181315020700790690000017741056712489120938_">
				<use xlink:href="#SVGID_00000029021912419018586360000014122862191485600393_"  style="overflow:visible;"/>
			</clipPath>
			<path style="clip-path:url(#SVGID_00000111181315020700790690000017741056712489120938_);fill:#F5C45B;" d="M130.8,197.4
				c0.3-5.9-5.2-8.1-7.3-2.8c-3.9,9.7-16,5.9-10.7-5.3c10.1-21.2-37-22.9-9.7-38.6c10.7-6.1,4.3-12.7-6.2-10.7
				c-12.8,2.4-29.9,13.2-18.6,26.9c4.9,5.9,0.1,11.9-6.5,3.7c-2.8-3.5-5.8-1.1-5.4,3.8c0.7,7.4,6.2,10.6,17.8,19
				c9.5,6.9-4.6,15.3-7.5,5.1c-2.6-9.4-10.1-5.4-9.7,3.3C68.6,241,128.5,237.3,130.8,197.4L130.8,197.4z"/>
		</g>
	</g>
	<g>
		<g>
			<defs>
				<rect id="SVGID_00000021832378638061485480000007963477616946374309_" width="195.6" height="280.6"/>
			</defs>
			<clipPath id="SVGID_00000010292561093300050270000000192412678667454850_">
				<use xlink:href="#SVGID_00000021832378638061485480000007963477616946374309_"  style="overflow:visible;"/>
			</clipPath>
			<path style="clip-path:url(#SVGID_00000010292561093300050270000000192412678667454850_);fill:#F5C45B;" d="M131.2,183
				c-4.3,1.5-6-1.4-2.5-3.6c4.5-2.8,1.6-4.4,1.6-9.4c-0.1-6.5,9.8-5.5,9.8,1.2C140,176.6,136.4,181.4,131.2,183z"/>
		</g>
	</g>
	<g>
		<g>
			<defs>
				<rect id="SVGID_00000073709241480473771330000011002011354479968677_" width="195.6" height="280.6"/>
			</defs>
			<clipPath id="SVGID_00000027571574579879895620000009427091503891689402_">
				<use xlink:href="#SVGID_00000073709241480473771330000011002011354479968677_"  style="overflow:visible;"/>
			</clipPath>
			<path style="clip-path:url(#SVGID_00000027571574579879895620000009427091503891689402_);fill:#F5C45B;" d="M64.1,158.4
				c5.9,0.8,8.9-11.8,2.8-13.3C57,142.6,59.9,157.8,64.1,158.4z"/>
		</g>
	</g>
	<g>
		<g>
			<defs>
				<rect id="SVGID_00000152255592645020515780000017202150426608046246_" width="195.6" height="280.6"/>
			</defs>
			<clipPath id="SVGID_00000111191492153064701210000008344954676475032759_">
				<use xlink:href="#SVGID_00000152255592645020515780000017202150426608046246_"  style="overflow:visible;"/>
			</clipPath>
			<path style="clip-path:url(#SVGID_00000111191492153064701210000008344954676475032759_);fill:#F5C45B;" d="M107.7,133.7
				c3.9-2.2,5.6-5.8,3.7-8.2c-2.2-2.7-7.7-2.7-6.1,0.4c1.4,2.7,1.4,3.9-0.1,6C104.3,133.4,105.2,135.1,107.7,133.7L107.7,133.7z"/>
		</g>
	</g>
	<g>
		<g>
			<defs>
				<rect id="SVGID_00000116927488082532204700000015512594048962255547_" width="195.6" height="280.6"/>
			</defs>
			<clipPath id="SVGID_00000078726821899030566030000011054100094983518886_">
				<use xlink:href="#SVGID_00000116927488082532204700000015512594048962255547_"  style="overflow:visible;"/>
			</clipPath>
			<path style="clip-path:url(#SVGID_00000078726821899030566030000011054100094983518886_);fill:#FFEA8A;" d="M106.9,207.7
				c-8.2,0.6-5.7-8.6-2.5-14.1c3.4-5.8-1.5-6.3-6.4-2.2c-16.1,13.3-11.7,38,7.4,30.8C115,218.5,116.3,207.1,106.9,207.7L106.9,207.7
				z"/>
		</g>
	</g>
	<g>
		<g>
			<defs>
				<rect id="SVGID_00000097500568575679871740000011128737879250287232_" width="195.6" height="280.6"/>
			</defs>
			<clipPath id="SVGID_00000089571819677846793020000002017446215983628478_">
				<use xlink:href="#SVGID_00000097500568575679871740000011128737879250287232_"  style="overflow:visible;"/>
			</clipPath>
			<path style="clip-path:url(#SVGID_00000089571819677846793020000002017446215983628478_);fill:#1A1A1A;" d="M95.5,98.8
				c-0.5,0-0.9,0-1.3,0c-1.5,0.1-3,0.8-4,1.9c-0.8,1.3-1.2,2.8-1,4.3c0.2,1.9,0.6,3.7,1.3,5.4c2.3,6.8,1.9,11.8,0.2,15.4
				c-1.5,3.3-4.3,5.8-7.7,6.9c-3,1-5.9,0.6-7.5-0.7s-2.3-3.5-0.6-7.7c0.6-1.2,0.9-2.6,0.6-4c-0.3-1.1-1.1-2.1-2.2-2.5
				c-2-0.8-4.2-0.2-6.1,0.8c-7.5,3.7-12.2,8.8-14.6,14.5c-2.5,5.7-2.8,12.1-2,18.4c1.6,12.5,7.6,24.9,10.7,32.2
				c1.1,2.7,1,4.8,0.3,6.2s-1.9,2.4-3.5,2.8c-3,0.7-6.8-0.8-7.8-6.4c-0.6-3.5-3.3-5.7-6.2-5.5s-5.5,2.6-6.1,6.9
				c-2,15.2,4.3,27.6,15.1,36.3s25.8,13.7,41.5,14.7s31.8-2.1,44.8-10s22.8-20.8,25.2-38.9c0.5-3.5-0.9-6.6-3.6-7.6
				c-1.4-0.5-3-0.2-4.2,0.7c-1.5,1.2-2.7,2.8-3.3,4.6c-1.3,3.2-3,4.9-4.6,5.6c-1.4,0.7-3,0.7-4.4,0c-2.5-1.3-4-4.8-0.6-9.2
				c3.6-4.7,6.2-10,7.8-15.7c2.3-8.1,1.2-16.7-3-24c-1.8-3.1-4.5-5-7.2-4.9c-1.4,0-2.8,0.7-3.6,1.9c-0.9,1.4-1.4,3.1-1.3,4.8
				c0.2,9.5-5,13.1-9.3,13.4c-1.8,0.2-3.7-0.4-5-1.8c-1-1.2-1.3-2.9,0-5.6c5.7-11.6,6.5-23.2,2.7-32.6s-12.4-16.7-24.7-19.9
				C98.7,99.2,97.2,98.9,95.5,98.8L95.5,98.8z M94.4,101.6c1.7,0,3.5,0.2,5.1,0.7c11.6,3,19.3,9.6,22.8,18.2s2.9,19.2-2.6,30.3
				c-1.7,3.4-1.3,6.6,0.4,8.6c1.9,2.1,4.7,3.1,7.4,2.8c5.8-0.4,12.1-5.7,12-16.3c-0.1-1,0.1-2.1,0.7-3c0.3-0.5,0.8-0.7,1.4-0.7
				c1.2,0,3.3,1.1,4.7,3.5c3.8,6.6,4.8,14.5,2.7,21.9c-1.5,5.3-4,10.3-7.3,14.7c-4.1,5.4-2.5,11.3,1.5,13.4c2.2,1.1,4.7,1.2,6.9,0.1
				c2.4-1.1,4.5-3.4,6-7.1c0.5-1.3,1.3-2.5,2.3-3.3c0.5-0.4,1.1-0.5,1.6-0.3c0.9,0.3,2.1,2,1.7,4.5c-2.4,17.3-11.5,29.3-23.9,36.8
				s-28,10.6-43.2,9.6s-29.7-5.9-39.9-14.1s-16-19.5-14.1-33.6c0.5-3.3,2-4.4,3.4-4.4s2.9,0.9,3.3,3.2c1.2,6.9,6.7,9.7,11.3,8.6
				c2.4-0.5,4.3-2.1,5.4-4.3c1.1-2.3,1.1-5.2-0.3-8.5c-3.1-7.4-9-19.6-10.5-31.4c-0.8-5.9-0.4-11.8,1.8-16.9s6.3-9.7,13.3-13.1
				c1.2-0.6,2.6-0.9,3.9-0.7c0.3,0.1,0.3,0.1,0.4,0.4c0,0.8-0.1,1.6-0.5,2.3c-2.1,4.8-1.3,8.8,1.4,11s6.5,2.4,10.2,1.2
				c4.1-1.4,7.5-4.4,9.3-8.4c2-4.4,2.4-10.3-0.1-17.6c-0.6-1.5-1-3.1-1.1-4.7c-0.1-0.8,0-1.7,0.4-2.4
				C93,101.9,93.7,101.6,94.4,101.6L94.4,101.6z"/>
		</g>
	</g>
	<g>
		<g>
			<defs>
				<rect id="SVGID_00000173161529450810134220000001958639631707003288_" width="195.6" height="280.6"/>
			</defs>
			<clipPath id="SVGID_00000016065961105020384810000003239139572757130173_">
				<use xlink:href="#SVGID_00000173161529450810134220000001958639631707003288_"  style="overflow:visible;"/>
			</clipPath>
			<path style="clip-path:url(#SVGID_00000016065961105020384810000003239139572757130173_);fill:#1A1A1A;" d="M185.7,157.8
				c-3.6-2-8.2-0.8-10.3,2.8c-0.2,0.4-0.4,0.8-0.6,1.3l-38.9-21c-3.6-2.1-8.2-0.8-10.3,2.8c-2.1,3.6-0.8,8.2,2.8,10.3l79.2,48.6h0.1
				c-0.4-0.2-0.4-0.2,0.2,0.1c4.8,2.8,11,1.1,13.8-3.7s1.1-11-3.7-13.8l0,0c-0.3-0.2-0.6-0.3-0.9-0.4l0.5,0.2l-26.1-14.1l-2.2-8.4
				C188.7,160.4,187.4,158.8,185.7,157.8L185.7,157.8z M213,193.8c0.1,0,0.1,0.1,0,0.2s-0.1,0.1-0.2,0c0.4,0.2,0.4,0.2-0.2-0.1
				l0.1,0.1l-4-2.5L213,193.8z"/>
		</g>
	</g>
	<g>
		<g>
			<defs>
				<rect id="SVGID_00000111893329908493671400000010336590203946897572_" width="195.6" height="280.6"/>
			</defs>
			<clipPath id="SVGID_00000002381373948977805750000007098436285593780414_">
				<use xlink:href="#SVGID_00000111893329908493671400000010336590203946897572_"  style="overflow:visible;"/>
			</clipPath>
			<path style="clip-path:url(#SVGID_00000002381373948977805750000007098436285593780414_);fill:#1A1A1A;" d="M127.9,120.4
				c-9.5-4.7-21-1.1-26.2,8.2c-5.8,10.1-4.3,23.1,5.2,28.6c8.8,5.1,20.6,1.9,26.5-8.2c3.2-5.5,4.5-11.2,3.6-16.4
				C136.1,127.4,132.7,122.9,127.9,120.4L127.9,120.4z M123.4,129.3c2.1,0.9,3.5,2.8,3.8,5.1c0.4,2.4-0.1,5.8-2.4,9.8
				c-3.7,6.4-8.5,7.1-12.9,4.6c-3.7-2.1-5.2-8.7-1.6-15.1S118.8,127,123.4,129.3z"/>
		</g>
	</g>
	<g>
		<g>
			<defs>
				<rect id="SVGID_00000091700788669565965900000012892718776947929490_" width="195.6" height="280.6"/>
			</defs>
			<clipPath id="SVGID_00000002378246574569955210000014235540911913545367_">
				<use xlink:href="#SVGID_00000091700788669565965900000012892718776947929490_"  style="overflow:visible;"/>
			</clipPath>
			<path style="clip-path:url(#SVGID_00000002378246574569955210000014235540911913545367_);fill:#1A1A1A;" d="M146.2,130.8
				c-0.6-0.3-1.3-0.6-2-0.8c-5.9-1.9-9.4-4.8-15-8.8c-2.2-1.6-5.3-1.1-6.9,1.2c-0.8,1.1-1.1,2.4-0.9,3.7c0.2,1.3,0.9,2.5,2,3.2
				c5.4,3.9,10.1,7.7,17.7,10.1c2,0.7,2.9,1.8,3.2,4.3s-0.3,6.3-2.6,10.3c-3.7,6.4-8.6,7.3-12.7,4.7c-12.4-8-10.2-6-17.3-10
				c-2.2-1.6-5.4-1.1-7,1.2c-1.6,2.2-1.1,5.4,1.2,7c0.3,0.2,0.6,0.4,0.9,0.5c7.5,4.2,4.5,1.8,16.8,9.7c8.8,5.6,20.8,2,26.7-8.1
				c3.2-5.5,4.6-11.3,3.8-16.7C153.5,137.3,150.5,133.1,146.2,130.8L146.2,130.8z"/>
		</g>
	</g>
	<g>
		<g>
			<defs>
				<rect id="SVGID_00000178922781706212921130000010559165030337746352_" width="195.6" height="280.6"/>
			</defs>
			<clipPath id="SVGID_00000008838895907811776230000005899071563848010407_">
				<use xlink:href="#SVGID_00000178922781706212921130000010559165030337746352_"  style="overflow:visible;"/>
			</clipPath>
			<path style="clip-path:url(#SVGID_00000008838895907811776230000005899071563848010407_);fill:#D58D5A;" d="M210.1,198.1l0.2,0.1
				c2.4,1.4,5.6,0.6,7-1.9s0.6-5.6-1.9-7l-0.3-0.1l-28-15.2l-2.8-10.5c-0.2-0.7-0.6-1.2-1.2-1.6c-1.2-0.7-2.8-0.3-3.5,0.9
				c-0.3,0.5-0.4,1-0.3,1.5v0.1l0.7,5.6l-46.5-25.2c-1.2-0.7-2.8-0.2-3.5,1s-0.3,2.7,0.9,3.4L210.1,198.1z"/>
		</g>
	</g>
	<g>
		<g>
			<defs>
				<rect id="SVGID_00000017495923591559636430000003571033251475068085_" width="195.6" height="280.6"/>
			</defs>
			<clipPath id="SVGID_00000054966955548320891840000006641258612266764941_">
				<use xlink:href="#SVGID_00000017495923591559636430000003571033251475068085_"  style="overflow:visible;"/>
			</clipPath>
			<path style="clip-path:url(#SVGID_00000054966955548320891840000006641258612266764941_);fill:#B66341;" d="M217.3,196.4
				c-1.4,2.4-4.5,3.3-7,1.9l0,0l-0.2-0.1L131,149.6c-1.2-0.7-1.6-2.3-0.9-3.5c0.2-0.4,0.5-0.7,0.9-0.9c0,0.9,0.5,1.8,1.3,2.2
				l79.6,47.6c0.1,0,0.1,0.1,0.2,0.1c1.9,1,4.2,0.8,5.8-0.5C217.8,195.2,217.6,195.8,217.3,196.4L217.3,196.4z"/>
		</g>
	</g>
	<g>
		<g>
			<defs>
				<rect id="SVGID_00000055708473991228249850000012876422770989203332_" width="195.6" height="280.6"/>
			</defs>
			<clipPath id="SVGID_00000023979991870308304900000008374566602149057666_">
				<use xlink:href="#SVGID_00000055708473991228249850000012876422770989203332_"  style="overflow:visible;"/>
			</clipPath>
			<path style="clip-path:url(#SVGID_00000023979991870308304900000008374566602149057666_);fill:#1A1A1A;" d="M183.5,161.5
				c-1.6-0.9-3.6-0.4-4.5,1.2c-0.3,0.6-0.5,1.3-0.4,2c0,0.1,0,0.1,0,0.2l0.6,4.2l-45.3-24.5c-1.6-0.8-3.6-0.2-4.4,1.4
				c-0.8,1.5-0.3,3.4,1.2,4.3l79.1,48.6l0,0c0.1,0.1,0.1,0.1,0.2,0.1c2.8,1.6,6.3,0.6,7.9-2.2c1.6-2.8,0.6-6.3-2.1-7.9
				c-0.1-0.1-0.2-0.1-0.4-0.2h0.1l-27.7-15l-2.7-10.2C184.8,162.6,184.2,161.9,183.5,161.5L183.5,161.5z M182.8,162.7
				c0.4,0.2,0.7,0.6,0.9,1.1l2.9,10.8l28.3,15.3l0,0l0.2,0.1c2.1,1.2,2.8,3.9,1.5,6c-1.2,2-3.8,2.7-5.9,1.6l-0.2-0.1l-79-48.5
				c-0.9-0.5-1.2-1.6-0.7-2.5s1.6-1.2,2.5-0.7c0,0,0.1,0,0.1,0.1l47.8,25.8l-0.9-7v-0.1c0-0.4,0-0.8,0.2-1.1
				C180.8,162.5,182,162.2,182.8,162.7L182.8,162.7z"/>
		</g>
	</g>
	<g>
		<g>
			<defs>
				<rect id="SVGID_00000142867286777359947450000008042839202606436230_" width="195.6" height="280.6"/>
			</defs>
			<clipPath id="SVGID_00000164516199766497887730000010772860989234319747_">
				<use xlink:href="#SVGID_00000142867286777359947450000008042839202606436230_"  style="overflow:visible;"/>
			</clipPath>
			<path style="clip-path:url(#SVGID_00000164516199766497887730000010772860989234319747_);fill:#FFFFFF;" d="M109.4,153
				c7.3,4.1,4.7,1.9,17,9.8c6.4,4.1,14.9,1.9,19.7-6.4c5.5-9.5,4.1-19.3-3.4-21.8c-6.8-2.2-10.9-5.5-16.4-9.5L109.4,153z"/>
		</g>
	</g>
	<g>
		<g>
			<defs>
				<rect id="SVGID_00000124128458878588673420000017458983952922897040_" width="195.6" height="280.6"/>
			</defs>
			<clipPath id="SVGID_00000174565367920895556400000011726355170857041555_">
				<use xlink:href="#SVGID_00000124128458878588673420000017458983952922897040_"  style="overflow:visible;"/>
			</clipPath>
			<path style="clip-path:url(#SVGID_00000174565367920895556400000011726355170857041555_);fill:#AFDCE0;" d="M145.2,157.9
				c-4.2,3.3-10.1,3.5-14.6,0.6c-5.9-3.8-11.9-7.4-18.1-10.6l-3.1,5.1c7.3,4.1,4.7,1.9,17,9.8C132.4,166.7,140.3,164.9,145.2,157.9
				L145.2,157.9z"/>
		</g>
	</g>
	<g>
		<g>
			<defs>
				<rect id="SVGID_00000072991107035379013500000009073657638251340192_" width="195.6" height="280.6"/>
			</defs>
			<clipPath id="SVGID_00000165937235876957941850000009045188496780946836_">
				<use xlink:href="#SVGID_00000072991107035379013500000009073657638251340192_"  style="overflow:visible;"/>
			</clipPath>
			<path style="clip-path:url(#SVGID_00000165937235876957941850000009045188496780946836_);fill:#1A1A1A;" d="M144.4,134.6
				c-0.5-0.2-0.9-0.4-1.4-0.6c-6.6-2.2-10.6-5.4-16.2-9.4c-0.3-0.2-0.8-0.2-1,0.2l0,0c-0.2,0.3-0.2,0.8,0.2,1
				c5.5,3.9,9.7,7.3,16.6,9.6c3.5,1.2,5.6,4,6.1,7.7s-0.4,8.4-3.1,13c-4.6,8-12.6,10-18.7,6.1c-12.3-7.9-9.8-5.8-17-9.9
				c-0.3-0.2-0.8-0.1-1,0.3s-0.1,0.8,0.3,1c7.3,4.1,4.7,1.9,17,9.8c6.8,4.4,15.8,1.9,20.7-6.6c2.8-4.8,3.9-9.8,3.2-13.9
				C149.6,139.3,147.5,136.2,144.4,134.6L144.4,134.6z"/>
		</g>
	</g>
	<g>
		<g>
			<defs>
				<rect id="SVGID_00000151518424099271904410000012082882177349715373_" width="195.6" height="280.6"/>
			</defs>
			<clipPath id="SVGID_00000024721395206422178210000004253235848289444768_">
				<use xlink:href="#SVGID_00000151518424099271904410000012082882177349715373_"  style="overflow:visible;"/>
			</clipPath>
			<path style="clip-path:url(#SVGID_00000024721395206422178210000004253235848289444768_);fill:#AFDCE0;" d="M137.6,157.2
				c-0.6,1-1.9,1.4-2.9,0.8c-0.5-0.3-0.8-0.7-1-1.3c-0.3-1.1,0.4-2.3,1.5-2.6s2.3,0.4,2.6,1.5C138,156.2,137.9,156.7,137.6,157.2z"
				/>
		</g>
	</g>
	<g>
		<g>
			<defs>
				<rect id="SVGID_00000004511695318723147660000002537967302718908828_" width="195.6" height="280.6"/>
			</defs>
			<clipPath id="SVGID_00000060027468682269133850000002911262453707633810_">
				<use xlink:href="#SVGID_00000004511695318723147660000002537967302718908828_"  style="overflow:visible;"/>
			</clipPath>
			<path style="clip-path:url(#SVGID_00000060027468682269133850000002911262453707633810_);fill:#AFDCE0;" d="M135.1,150.1
				c-0.3,0.4-0.8,0.6-1.3,0.3s-0.6-0.8-0.3-1.3c0.3-0.4,0.8-0.6,1.3-0.3C135.2,149.1,135.4,149.7,135.1,150.1L135.1,150.1z"/>
		</g>
	</g>
	<g>
		<g>
			<defs>
				<rect id="SVGID_00000125583275791287329450000013322535270403141052_" width="195.6" height="280.6"/>
			</defs>
			<clipPath id="SVGID_00000163786417793276083790000016068565886874319236_">
				<use xlink:href="#SVGID_00000125583275791287329450000013322535270403141052_"  style="overflow:visible;"/>
			</clipPath>
			<path style="clip-path:url(#SVGID_00000163786417793276083790000016068565886874319236_);fill:#AFDCE0;" d="M129.6,155.4
				c-0.3,0.5-0.8,0.6-1.3,0.4c-0.5-0.3-0.6-0.8-0.4-1.3c0.2-0.5,0.8-0.6,1.3-0.4l0,0C129.7,154.3,129.9,154.9,129.6,155.4
				L129.6,155.4z"/>
		</g>
	</g>
	<g>
		<g>
			<defs>
				<rect id="SVGID_00000071521197324421611390000002495706459436344970_" width="195.6" height="280.6"/>
			</defs>
			<clipPath id="SVGID_00000043417042209286544790000004238489285665397950_">
				<use xlink:href="#SVGID_00000071521197324421611390000002495706459436344970_"  style="overflow:visible;"/>
			</clipPath>
			<path style="clip-path:url(#SVGID_00000043417042209286544790000004238489285665397950_);fill:#AFDCE0;" d="M144.9,145.6
				c-0.3,0.5-0.8,0.6-1.3,0.4s-0.6-0.8-0.4-1.3s0.8-0.6,1.3-0.4l0,0C145,144.6,145.2,145.2,144.9,145.6L144.9,145.6z"/>
		</g>
	</g>
	<g>
		<g>
			<defs>
				<rect id="SVGID_00000052101014216133832040000005998986549284137628_" width="195.6" height="280.6"/>
			</defs>
			<clipPath id="SVGID_00000076591546428673146680000004396183468156427153_">
				<use xlink:href="#SVGID_00000052101014216133832040000005998986549284137628_"  style="overflow:visible;"/>
			</clipPath>
			<path style="clip-path:url(#SVGID_00000076591546428673146680000004396183468156427153_);fill:#FFFFFF;" d="M129.1,146.6
				c-4.8,8.2-13,10.2-19.7,6.4s-8.1-13.6-3.4-21.9s13.1-9.6,19.6-6.3C132.8,128.5,134.6,137.2,129.1,146.6z"/>
		</g>
	</g>
	<g>
		<g>
			<defs>
				<rect id="SVGID_00000017499447253087227790000009915370664773437115_" width="195.6" height="280.6"/>
			</defs>
			<clipPath id="SVGID_00000020376480573716574440000000109121219020199084_">
				<use xlink:href="#SVGID_00000017499447253087227790000009915370664773437115_"  style="overflow:visible;"/>
			</clipPath>
			<path style="clip-path:url(#SVGID_00000020376480573716574440000000109121219020199084_);fill:#1A1A1A;" d="M127.3,125
				c-0.4-0.3-0.9-0.5-1.3-0.8c-6.8-3.4-15.6-2-20.5,6.6s-3.4,18.8,3.6,22.8s15.7,1.9,20.6-6.6c2.8-4.8,3.8-9.5,3.1-13.6
				C132.2,130,130.3,126.9,127.3,125L127.3,125z M126.6,126.2c2.6,1.7,4.4,4.4,4.9,7.5c0.6,3.6-0.2,8-2.9,12.6
				c-4.6,8-12.4,9.8-18.7,6.1s-7.7-12.9-3.1-20.9s12.4-9.2,18.7-6C125.8,125.7,126.2,125.9,126.6,126.2z"/>
		</g>
	</g>
	<g>
		<g>
			<defs>
				<rect id="SVGID_00000128463586351531321400000016752705646667087247_" width="195.6" height="280.6"/>
			</defs>
			<clipPath id="SVGID_00000131355230987191303500000014975783666123182230_">
				<use xlink:href="#SVGID_00000128463586351531321400000016752705646667087247_"  style="overflow:visible;"/>
			</clipPath>
			<path style="clip-path:url(#SVGID_00000131355230987191303500000014975783666123182230_);fill:#ED6C31;" d="M45-0.1H16H0.1v16
				c0,7,0,14,0,21c10.3,12.3,28.7,14,41,3.7c6.7-5.5,10.5-13.8,10.5-22.4C51.5,11.5,49.2,5.1,45-0.1z"/>
		</g>
	</g>
</g>
<g class="st1">
	<path class="st2" d="M25,15.8v2.5h-4.9v2.7c0.6-0.7,1.4-1.1,2.4-1.1c1.1,0,1.9,0.3,2.5,0.9s0.8,1.8,0.8,3.5v2.3
		c0,1.1-0.1,1.9-0.2,2.5s-0.3,1-0.7,1.5s-0.8,0.8-1.5,1S22,32,21.1,32c-1,0-1.9-0.2-2.7-0.5s-1.3-0.9-1.7-1.6s-0.5-1.8-0.5-3.3v-0.9
		h3.9v1c0,1,0,1.7,0.1,2.2s0.3,0.6,0.7,0.6c0.2,0,0.4-0.1,0.5-0.2s0.2-0.3,0.2-0.4s0-0.8,0-1.9v-3.1c0-0.6-0.1-1-0.2-1.2
		s-0.3-0.3-0.6-0.3c-0.2,0-0.3,0.1-0.5,0.2s-0.2,0.2-0.2,0.4s-0.1,0.4-0.1,0.9h-3.9l0.2-8H25z"/>
</g>
<g class="st1">
	<path class="st2" d="M32.6,15.8v15.8h-3.9v-8.5c0-1.2,0-2-0.1-2.2s-0.2-0.4-0.5-0.6s-0.9-0.2-1.8-0.2h-0.4v-1.8
		c1.9-0.4,3.4-1.3,4.3-2.5H32.6z"/>
</g>
</svg>
