<?xml version="1.0" encoding="utf-8"?>
<!-- Generator: Adobe Illustrator 26.0.1, SVG Export Plug-In . SVG Version: 6.00 Build 0)  -->
<svg version="1.1" id="Слой_1" xmlns="http://www.w3.org/2000/svg" xmlns:xlink="http://www.w3.org/1999/xlink" x="0px" y="0px"
	 viewBox="0 0 195.6 280.6" style="enable-background:new 0 0 195.6 280.6;" xml:space="preserve">
<style type="text/css">
	.st0{clip-path:url(#SVGID_00000134243764865251628800000011877709556612760237_);fill:#FFFFFF;}
	.st1{fill:#1A1A1A;}
	.st2{font-family:'Impact';}
	.st3{font-size:38px;}
	.st4{clip-path:url(#SVGID_00000122704145881554350170000007152437564939781032_);fill:#1A1A1A;}
	.st5{clip-path:url(#SVGID_00000157999637511870641840000007147414532455332246_);fill:#1A1A1A;}
	.st6{clip-path:url(#SVGID_00000059290295689755225380000015380956041605385631_);fill:#705454;}
	.st7{clip-path:url(#SVGID_00000023999081805471037450000005992854388534440588_);fill:#8B6D69;}
	.st8{clip-path:url(#SVGID_00000025442380262068557080000007604953995921330578_);fill:#4D3A39;}
	.st9{clip-path:url(#SVGID_00000170983057927109614310000012907195915436628657_);fill:#1A1A1A;}
	.st10{clip-path:url(#SVGID_00000175307962729305549230000008074671608255472009_);fill:#F1B67F;}
	.st11{clip-path:url(#SVGID_00000157997717737544720970000012864065927312010894_);fill:#1A1A1A;}
	.st12{clip-path:url(#SVGID_00000168801735661502198630000003627737803460660365_);fill:#F7E3B8;}
	.st13{clip-path:url(#SVGID_00000170244687891296747360000011179655431308571021_);fill:#F7E3B8;}
	.st14{clip-path:url(#SVGID_00000132766159617770487290000010703714880201216680_);fill:#1A1A1A;}
	.st15{clip-path:url(#SVGID_00000023259045303772134730000009182377577292458645_);fill:#1A1A1A;}
	.st16{clip-path:url(#SVGID_00000066477813221850995620000017614712956937423758_);fill:#705454;}
	.st17{clip-path:url(#SVGID_00000132088541266844288480000007119534525026007974_);fill:#8B6D69;}
	.st18{clip-path:url(#SVGID_00000102507037773692882470000011919227470111276730_);fill:#4D3A39;}
	.st19{clip-path:url(#SVGID_00000035531662135998292470000012218443902070847371_);fill:#1A1A1A;}
	.st20{clip-path:url(#SVGID_00000121969230089048697010000010257684461032623767_);fill:#F1B67F;}
	.st21{clip-path:url(#SVGID_00000057866557168765031750000003890190718767456676_);fill:#1A1A1A;}
	.st22{clip-path:url(#SVGID_00000072277903457324098800000012916682728293258119_);fill:#F7E3B8;}
	.st23{clip-path:url(#SVGID_00000081631969871744584530000013261829543943591087_);fill:#F7E3B8;}
	.st24{clip-path:url(#SVGID_00000114052858277876762810000007071496864294907555_);fill:#1A1A1A;}
	.st25{clip-path:url(#SVGID_00000060015925884115549710000004580432635265681826_);fill:#1A1A1A;}
	.st26{clip-path:url(#SVGID_00000082340271895170732960000002371692257280898983_);fill:#705454;}
	.st27{clip-path:url(#SVGID_00000105384400356539487000000014722546463330241726_);fill:#8B6D69;}
	.st28{clip-path:url(#SVGID_00000092440053711858622610000014087058126367426720_);fill:#4D3A39;}
	.st29{clip-path:url(#SVGID_00000105406451862791695870000004202527228768445320_);fill:#1A1A1A;}
	.st30{clip-path:url(#SVGID_00000040535957822998006390000000461090492880477868_);fill:#F1B67F;}
	.st31{clip-path:url(#SVGID_00000086651426342526457520000018207649057584169401_);fill:#1A1A1A;}
	.st32{clip-path:url(#SVGID_00000019677620573278815520000002596564182220811692_);fill:#F7E3B8;}
	.st33{clip-path:url(#SVGID_00000152261556880086619320000014221297324618704570_);fill:#F7E3B8;}
	.st34{clip-path:url(#SVGID_00000139269175820762628040000012550971494558204060_);fill:#1A1A1A;}
	.st35{clip-path:url(#SVGID_00000135656528542047177880000017590539714721068730_);fill:#ED6C31;}
	.st36{clip-path:url(#SVGID_00000160183801798845522620000015737442417250169741_);fill:#F5C45B;}
	.st37{clip-path:url(#SVGID_00000070076137106837882450000013646529337052234895_);fill:#F5C45B;}
	.st38{clip-path:url(#SVGID_00000001654682967913677210000003147589002935948440_);fill:#F5C45B;}
	.st39{clip-path:url(#SVGID_00000126314186408986417010000016754035403128908990_);fill:#F5C45B;}
	.st40{clip-path:url(#SVGID_00000161618232116465809630000017186087346853002170_);fill:#FFEA8A;}
	.st41{clip-path:url(#SVGID_00000041977613947899851650000004595255817882216328_);fill:#1A1A1A;}
	.st42{clip-path:url(#SVGID_00000114043514503921568990000002573644627814674837_);fill:#1A1A1A;}
	.st43{clip-path:url(#SVGID_00000167361500716148028800000000668897591177705107_);fill:#1A1A1A;}
	.st44{clip-path:url(#SVGID_00000026871991712241278020000010374347518799939986_);fill:#1A1A1A;}
	.st45{clip-path:url(#SVGID_00000086680974555316036740000004581561985101854338_);fill:#D58D5A;}
	.st46{clip-path:url(#SVGID_00000034048150905580135220000016936561158783972018_);fill:#B66341;}
	.st47{clip-path:url(#SVGID_00000157296785860291027150000000182119296179951235_);fill:#1A1A1A;}
	.st48{clip-path:url(#SVGID_00000163046386661942273540000010834745684910861188_);fill:#FFFFFF;}
	.st49{clip-path:url(#SVGID_00000084522371772291273980000009885356523102843010_);fill:#AFDCE0;}
	.st50{clip-path:url(#SVGID_00000048485358707216023100000001343703640547702158_);fill:#1A1A1A;}
	.st51{clip-path:url(#SVGID_00000084521736052255972330000016442890958594061739_);fill:#AFDCE0;}
	.st52{clip-path:url(#SVGID_00000044896740506267178330000008151041513766050213_);fill:#AFDCE0;}
	.st53{clip-path:url(#SVGID_00000181803261676450936170000013544817996383121556_);fill:#AFDCE0;}
	.st54{clip-path:url(#SVGID_00000090266085893193215410000002291724916527249054_);fill:#AFDCE0;}
	.st55{clip-path:url(#SVGID_00000136405740690172812600000014586210374693186209_);fill:#FFFFFF;}
	.st56{clip-path:url(#SVGID_00000101793968439127693210000014227420880380823719_);fill:#1A1A1A;}
	.st57{clip-path:url(#SVGID_00000067206341096462537090000009285439772418036903_);fill:#ED6C31;}
	.st58{enable-background:new    ;}
</style>
<g>
	<g>
		<defs>
			<rect id="SVGID_1_" width="195.6" height="280.6"/>
		</defs>
		<clipPath id="SVGID_00000050654845828327265910000015103361654822813359_">
			<use xlink:href="#SVGID_1_"  style="overflow:visible;"/>
		</clipPath>
		
			<rect x="-15.4" y="-1.1" style="clip-path:url(#SVGID_00000050654845828327265910000015103361654822813359_);fill:#FFFFFF;" width="493.6" height="290.5"/>
	</g>
	<text transform="matrix(1 0 0 1 68.45 49.16)" class="st1 st2 st3">Noc</text>
	<text transform="matrix(1 0 0 1 44.35 85.16)" class="st1 st2 st3">Kupały</text>
	<g>
		<defs>
			<rect id="SVGID_00000116958427617976145790000004380340361344632728_" width="195.6" height="280.6"/>
		</defs>
		<clipPath id="SVGID_00000168813535550522274350000001770686344033226904_">
			<use xlink:href="#SVGID_00000116958427617976145790000004380340361344632728_"  style="overflow:visible;"/>
		</clipPath>
		<path style="clip-path:url(#SVGID_00000168813535550522274350000001770686344033226904_);fill:#1A1A1A;" d="M101.7,190.2
			c1.7-1.6,4.3-1.6,6,0l52.3,52.3c1.6,1.7,1.6,4.3,0,6l-18,18.1c-1.7,1.6-4.3,1.6-6,0l-52.3-52.2c-1.6-1.7-1.6-4.3,0-6L101.7,190.2z
			 M139,257.5l12-12l-46.2-46.2l-12,12L139,257.5z"/>
	</g>
	<g>
		<defs>
			<rect id="SVGID_00000183942906390736158010000006133630739468873625_" width="195.6" height="280.6"/>
		</defs>
		<clipPath id="SVGID_00000135666344212862638110000004421463693882514058_">
			<use xlink:href="#SVGID_00000183942906390736158010000006133630739468873625_"  style="overflow:visible;"/>
		</clipPath>
		<path style="clip-path:url(#SVGID_00000135666344212862638110000004421463693882514058_);fill:#1A1A1A;" d="M135.9,242.5
			c6.6-6.6,17.4-6.6,24,0s6.6,17.4,0,24s-17.4,6.6-24,0C129.3,259.9,129.3,249.1,135.9,242.5L135.9,242.5z M141.9,248.5
			c-3.3,3.3-3.3,8.7,0,12s8.7,3.3,12,0s3.3-8.7,0-12l0,0C150.7,245.2,145.3,245.1,141.9,248.5C142,248.4,142,248.5,141.9,248.5z"/>
	</g>
	<g>
		<defs>
			<rect id="SVGID_00000103973928050956968650000012541888350920598936_" width="195.6" height="280.6"/>
		</defs>
		<clipPath id="SVGID_00000083066498161972730900000014452335080054493115_">
			<use xlink:href="#SVGID_00000103973928050956968650000012541888350920598936_"  style="overflow:visible;"/>
		</clipPath>
		<path style="clip-path:url(#SVGID_00000083066498161972730900000014452335080054493115_);fill:#705454;" d="M139,263.5l18.1-18
			l-52.3-52.3l-18,18.1L139,263.5z"/>
	</g>
	<g>
		<defs>
			<rect id="SVGID_00000003807428607402739660000009077202033371676820_" width="195.6" height="280.6"/>
		</defs>
		<clipPath id="SVGID_00000023988325380491772420000003436339236766656175_">
			<use xlink:href="#SVGID_00000003807428607402739660000009077202033371676820_"  style="overflow:visible;"/>
		</clipPath>
		<path style="clip-path:url(#SVGID_00000023988325380491772420000003436339236766656175_);fill:#8B6D69;" d="M95.2,202.8l52.2,52.3
			l-4.5,4.5l-52.3-52.3L95.2,202.8z"/>
	</g>
	<g>
		<defs>
			<rect id="SVGID_00000111882408275934748930000001567579276695949732_" width="195.6" height="280.6"/>
		</defs>
		<clipPath id="SVGID_00000131350690987906849550000006511453246182631837_">
			<use xlink:href="#SVGID_00000111882408275934748930000001567579276695949732_"  style="overflow:visible;"/>
		</clipPath>
		<path style="clip-path:url(#SVGID_00000131350690987906849550000006511453246182631837_);fill:#4D3A39;" d="M104.7,193.2
			l52.3,52.3l-4.5,4.5l-52.3-52.2L104.7,193.2z"/>
	</g>
	<g>
		<defs>
			<rect id="SVGID_00000134251323920793176800000004951839972592509336_" width="195.6" height="280.6"/>
		</defs>
		<clipPath id="SVGID_00000086675561800325330700000001840738015984823722_">
			<use xlink:href="#SVGID_00000134251323920793176800000004951839972592509336_"  style="overflow:visible;"/>
		</clipPath>
		<path style="clip-path:url(#SVGID_00000086675561800325330700000001840738015984823722_);fill:#1A1A1A;" d="M104.7,191.2
			l54.3,54.3l-20,20.1l-53.3-53.3l-1-1L104.7,191.2z M139,261.5l16-16l-50.2-50.2l-16,16L139,261.5z"/>
	</g>
	<g>
		<defs>
			<rect id="SVGID_00000101795869294168612390000011903794577350780062_" width="195.6" height="280.6"/>
		</defs>
		<clipPath id="SVGID_00000157295204308347833890000016000539723379336121_">
			<use xlink:href="#SVGID_00000101795869294168612390000011903794577350780062_"  style="overflow:visible;"/>
		</clipPath>
		<path style="clip-path:url(#SVGID_00000157295204308347833890000016000539723379336121_);fill:#F1B67F;" d="M157,245.5
			c-5-5-13.1-5-18.1,0s-5,13.1,0,18.1s13.1,5,18.1,0c2.4-2.4,3.8-5.7,3.8-9.1C160.7,251.1,159.4,247.9,157,245.5z"/>
	</g>
	<g>
		<defs>
			<rect id="SVGID_00000059302597904850082490000006122105443352884647_" width="195.6" height="280.6"/>
		</defs>
		<clipPath id="SVGID_00000127744195271806596250000013219217783982639773_">
			<use xlink:href="#SVGID_00000059302597904850082490000006122105443352884647_"  style="overflow:visible;"/>
		</clipPath>
		<path style="clip-path:url(#SVGID_00000127744195271806596250000013219217783982639773_);fill:#1A1A1A;" d="M138,244.5
			c5.5-5.5,14.5-5.5,20.1,0c5.5,5.5,5.5,14.5,0,20.1c-5.5,5.5-14.5,5.5-20,0C132.5,259,132.5,250,138,244.5L138,244.5z M140,246.5
			c-4.4,4.4-4.5,11.6,0,16c4.4,4.4,11.6,4.5,16,0c4.4-4.4,4.5-11.6,0-16l0,0C151.6,242.1,144.4,242.1,140,246.5z"/>
	</g>
	<g>
		<defs>
			<rect id="SVGID_00000131347597059411893090000017041465809340488615_" width="195.6" height="280.6"/>
		</defs>
		<clipPath id="SVGID_00000155113413005924629690000005639700071451848887_">
			<use xlink:href="#SVGID_00000131347597059411893090000017041465809340488615_"  style="overflow:visible;"/>
		</clipPath>
		<path style="clip-path:url(#SVGID_00000155113413005924629690000005639700071451848887_);fill:#F7E3B8;" d="M141.7,248.3
			c3.4-3.4,9-3.4,12.5,0c3.4,3.4,3.4,9,0,12.5s-9,3.4-12.5,0l0,0C138.3,257.3,138.3,251.7,141.7,248.3z M142.7,249.3
			c-2.9,2.9-2.9,7.6,0,10.5s7.6,2.9,10.5,0s2.9-7.6,0-10.5l0,0C150.3,246.4,145.7,246.4,142.7,249.3
			C142.8,249.3,142.7,249.3,142.7,249.3z"/>
	</g>
	<g>
		<defs>
			<rect id="SVGID_00000176022572990440408200000000662700240271533976_" width="195.6" height="280.6"/>
		</defs>
		<clipPath id="SVGID_00000057145493444341399100000001752249538461155978_">
			<use xlink:href="#SVGID_00000176022572990440408200000000662700240271533976_"  style="overflow:visible;"/>
		</clipPath>
		<path style="clip-path:url(#SVGID_00000057145493444341399100000001752249538461155978_);fill:#F7E3B8;" d="M144.2,252.7
			c1.6-1.6,4.1-1.6,5.7,0s1.6,4.1,0,5.7s-4.1,1.6-5.7,0l0,0C142.6,256.7,142.6,254.2,144.2,252.7z M145.2,253.7c-1,1-1,2.6,0,3.6
			s2.6,1,3.6,0s1-2.6,0-3.6l0,0C147.8,252.7,146.2,252.7,145.2,253.7L145.2,253.7z"/>
	</g>
	<g>
		<defs>
			<rect id="SVGID_00000127731741593401031700000014703368546432069004_" width="195.6" height="280.6"/>
		</defs>
		<clipPath id="SVGID_00000119106448298615221350000008350139618344484787_">
			<use xlink:href="#SVGID_00000127731741593401031700000014703368546432069004_"  style="overflow:visible;"/>
		</clipPath>
		<path style="clip-path:url(#SVGID_00000119106448298615221350000008350139618344484787_);fill:#1A1A1A;" d="M94.2,190.2
			c-1.7-1.6-4.3-1.6-6,0l-52.3,52.3c-1.6,1.7-1.6,4.3,0,6l18,18.1c1.7,1.6,4.3,1.6,6,0l52.2-52.3c1.6-1.7,1.6-4.3,0-6L94.2,190.2z
			 M56.9,257.5l-12-12l46.2-46.2l12,12L56.9,257.5z"/>
	</g>
	<g>
		<defs>
			<rect id="SVGID_00000076595340530080592210000007812480469572196266_" width="195.6" height="280.6"/>
		</defs>
		<clipPath id="SVGID_00000090292596300077991680000013590620264848026536_">
			<use xlink:href="#SVGID_00000076595340530080592210000007812480469572196266_"  style="overflow:visible;"/>
		</clipPath>
		<path style="clip-path:url(#SVGID_00000090292596300077991680000013590620264848026536_);fill:#1A1A1A;" d="M59.9,242.5
			c-6.6-6.6-17.4-6.6-24,0s-6.6,17.4,0,24s17.4,6.6,24,0C66.6,259.9,66.6,249.1,59.9,242.5L59.9,242.5z M53.9,248.5
			c3.3,3.3,3.3,8.7,0,12s-8.7,3.3-12,0s-3.3-8.7,0-12l0,0C45.2,245.2,50.6,245.1,53.9,248.5C53.9,248.4,53.9,248.5,53.9,248.5z"/>
	</g>
	<g>
		<defs>
			<rect id="SVGID_00000023976031744114231430000011480328216106933422_" width="195.6" height="280.6"/>
		</defs>
		<clipPath id="SVGID_00000073698289182608005050000011067600581614563480_">
			<use xlink:href="#SVGID_00000023976031744114231430000011480328216106933422_"  style="overflow:visible;"/>
		</clipPath>
		<path style="clip-path:url(#SVGID_00000073698289182608005050000011067600581614563480_);fill:#705454;" d="M56.9,263.5l-18-18
			l52.2-52.3l18,18.1L56.9,263.5z"/>
	</g>
	<g>
		<defs>
			<rect id="SVGID_00000080897578858827050090000003785411268547652766_" width="195.6" height="280.6"/>
		</defs>
		<clipPath id="SVGID_00000124849502893988002520000012259759952108609717_">
			<use xlink:href="#SVGID_00000080897578858827050090000003785411268547652766_"  style="overflow:visible;"/>
		</clipPath>
		<path style="clip-path:url(#SVGID_00000124849502893988002520000012259759952108609717_);fill:#8B6D69;" d="M100.7,202.8
			l-52.3,52.3l4.5,4.5l52.3-52.3L100.7,202.8z"/>
	</g>
	<g>
		<defs>
			<rect id="SVGID_00000029755949201095053630000011918259164369933215_" width="195.6" height="280.6"/>
		</defs>
		<clipPath id="SVGID_00000106840752376918032510000000328162771345658292_">
			<use xlink:href="#SVGID_00000029755949201095053630000011918259164369933215_"  style="overflow:visible;"/>
		</clipPath>
		<path style="clip-path:url(#SVGID_00000106840752376918032510000000328162771345658292_);fill:#4D3A39;" d="M91.1,193.2
			l-52.2,52.3l4.5,4.5l52.2-52.2L91.1,193.2z"/>
	</g>
	<g>
		<defs>
			<rect id="SVGID_00000108998030934708177750000008877241223626028696_" width="195.6" height="280.6"/>
		</defs>
		<clipPath id="SVGID_00000104696610631055436690000003970859806324549016_">
			<use xlink:href="#SVGID_00000108998030934708177750000008877241223626028696_"  style="overflow:visible;"/>
		</clipPath>
		<path style="clip-path:url(#SVGID_00000104696610631055436690000003970859806324549016_);fill:#1A1A1A;" d="M91.1,191.2
			l-54.3,54.3l20,20.1l53.3-53.3l1-1L91.1,191.2z M56.9,261.5l-16-16l50.2-50.2l16,16L56.9,261.5z"/>
	</g>
	<g>
		<defs>
			<rect id="SVGID_00000163075063047032843720000014602884526073587625_" width="195.6" height="280.6"/>
		</defs>
		<clipPath id="SVGID_00000048493507228264695670000011948092867360539828_">
			<use xlink:href="#SVGID_00000163075063047032843720000014602884526073587625_"  style="overflow:visible;"/>
		</clipPath>
		<path style="clip-path:url(#SVGID_00000048493507228264695670000011948092867360539828_);fill:#F1B67F;" d="M38.9,245.5
			c5-5,13-5,18,0s5,13,0,18s-13,5-18,0l0,0C33.9,258.5,33.9,250.5,38.9,245.5L38.9,245.5z"/>
	</g>
	<g>
		<defs>
			<rect id="SVGID_00000010995292942969807650000017465054157205484200_" width="195.6" height="280.6"/>
		</defs>
		<clipPath id="SVGID_00000125561418033204038010000011151492422944018577_">
			<use xlink:href="#SVGID_00000010995292942969807650000017465054157205484200_"  style="overflow:visible;"/>
		</clipPath>
		<path style="clip-path:url(#SVGID_00000125561418033204038010000011151492422944018577_);fill:#1A1A1A;" d="M57.9,244.5
			c-5.5-5.5-14.5-5.5-20.1,0c-5.5,5.5-5.5,14.5,0,20.1c5.5,5.5,14.5,5.5,20,0C63.5,259,63.5,250,57.9,244.5L57.9,244.5z M55.9,246.5
			c4.4,4.4,4.5,11.6,0,16c-4.4,4.4-11.6,4.5-16,0c-4.4-4.4-4.5-11.6,0-16l0,0C44.4,242.1,51.5,242.1,55.9,246.5z"/>
	</g>
	<g>
		<defs>
			<rect id="SVGID_00000175317345019324033220000009106739664556988856_" width="195.6" height="280.6"/>
		</defs>
		<clipPath id="SVGID_00000153707126898836701810000005659610011465184946_">
			<use xlink:href="#SVGID_00000175317345019324033220000009106739664556988856_"  style="overflow:visible;"/>
		</clipPath>
		<path style="clip-path:url(#SVGID_00000153707126898836701810000005659610011465184946_);fill:#F7E3B8;" d="M54.1,248.3
			c-3.4-3.4-9-3.4-12.5,0c-3.4,3.4-3.4,9,0,12.5c3.4,3.4,9,3.4,12.4,0C57.6,257.3,57.6,251.7,54.1,248.3L54.1,248.3z M53.1,249.3
			c2.9,2.9,2.9,7.6,0,10.5s-7.6,2.9-10.5,0s-2.9-7.6,0-10.5l0,0C45.6,246.4,50.2,246.4,53.1,249.3L53.1,249.3z"/>
	</g>
	<g>
		<defs>
			<rect id="SVGID_00000106827208219369091540000002842821477301340350_" width="195.6" height="280.6"/>
		</defs>
		<clipPath id="SVGID_00000172410801399199500870000000176820655708209081_">
			<use xlink:href="#SVGID_00000106827208219369091540000002842821477301340350_"  style="overflow:visible;"/>
		</clipPath>
		<path style="clip-path:url(#SVGID_00000172410801399199500870000000176820655708209081_);fill:#F7E3B8;" d="M51.7,252.7
			c-1.6-1.6-4.1-1.6-5.7,0s-1.6,4.1,0,5.7s4.1,1.6,5.7,0l0,0C53.3,256.7,53.3,254.2,51.7,252.7z M50.7,253.7c1,1,1,2.6,0,3.6
			s-2.6,1-3.6,0s-1-2.6,0-3.6l0,0C48.1,252.7,49.7,252.7,50.7,253.7L50.7,253.7z"/>
	</g>
	<g>
		<defs>
			<rect id="SVGID_00000003825289747584964270000013618047449797815476_" width="195.6" height="280.6"/>
		</defs>
		<clipPath id="SVGID_00000161615815133991465680000008502323722361563290_">
			<use xlink:href="#SVGID_00000003825289747584964270000013618047449797815476_"  style="overflow:visible;"/>
		</clipPath>
		<path style="clip-path:url(#SVGID_00000161615815133991465680000008502323722361563290_);fill:#1A1A1A;" d="M85.2,195.8
			c-2.3,0-4.2,1.9-4.3,4.2v73.9c0,2.4,1.9,4.3,4.3,4.3l0,0h25.5c2.4,0,4.3-1.9,4.3-4.3l0,0V200c0-2.4-1.9-4.3-4.3-4.3L85.2,195.8z
			 M106.4,269.7h-17v-65.4h17V269.7z"/>
	</g>
	<g>
		<defs>
			<rect id="SVGID_00000156576081923234834170000008209720119052863398_" width="195.6" height="280.6"/>
		</defs>
		<clipPath id="SVGID_00000009589971495775264430000003738353615199329435_">
			<use xlink:href="#SVGID_00000156576081923234834170000008209720119052863398_"  style="overflow:visible;"/>
		</clipPath>
		<path style="clip-path:url(#SVGID_00000009589971495775264430000003738353615199329435_);fill:#1A1A1A;" d="M97.9,256.9
			c-9.4,0-17,7.6-17,17s7.6,17,17,17s17-7.6,17-17l0,0C114.9,264.5,107.3,257,97.9,256.9z M97.9,265.4c4.7,0,8.5,3.8,8.5,8.5
			s-3.8,8.5-8.5,8.5s-8.5-3.8-8.5-8.5S93.1,265.4,97.9,265.4C97.9,265.4,97.9,265.4,97.9,265.4z"/>
	</g>
	<g>
		<defs>
			<rect id="SVGID_00000154417812121351699580000000605283649094210228_" width="195.6" height="280.6"/>
		</defs>
		<clipPath id="SVGID_00000029016978278098809000000015582091460187564724_">
			<use xlink:href="#SVGID_00000154417812121351699580000000605283649094210228_"  style="overflow:visible;"/>
		</clipPath>
		
			<rect x="85.2" y="200" style="clip-path:url(#SVGID_00000029016978278098809000000015582091460187564724_);fill:#705454;" width="25.5" height="73.9"/>
	</g>
	<g>
		<defs>
			<rect id="SVGID_00000011026129342889968920000018038022120848248253_" width="195.6" height="280.6"/>
		</defs>
		<clipPath id="SVGID_00000144338709082807498400000002679423824795704731_">
			<use xlink:href="#SVGID_00000011026129342889968920000018038022120848248253_"  style="overflow:visible;"/>
		</clipPath>
		
			<rect x="98.7" y="200" style="clip-path:url(#SVGID_00000144338709082807498400000002679423824795704731_);fill:#8B6D69;" width="6.4" height="73.9"/>
	</g>
	<g>
		<defs>
			<rect id="SVGID_00000142148758222048648850000002456724524051305876_" width="195.6" height="280.6"/>
		</defs>
		<clipPath id="SVGID_00000138575392591945082560000013273499337004668312_">
			<use xlink:href="#SVGID_00000142148758222048648850000002456724524051305876_"  style="overflow:visible;"/>
		</clipPath>
		
			<rect x="85.2" y="200" style="clip-path:url(#SVGID_00000138575392591945082560000013273499337004668312_);fill:#4D3A39;" width="6.4" height="73.9"/>
	</g>
	<g>
		<defs>
			<rect id="SVGID_00000150099580592986622430000003588259438426970290_" width="195.6" height="280.6"/>
		</defs>
		<clipPath id="SVGID_00000100375738251474174000000013321502333621213882_">
			<use xlink:href="#SVGID_00000150099580592986622430000003588259438426970290_"  style="overflow:visible;"/>
		</clipPath>
		<path style="clip-path:url(#SVGID_00000100375738251474174000000013321502333621213882_);fill:#1A1A1A;" d="M83.8,198.6v76.7h28.4
			v-76.7L83.8,198.6L83.8,198.6z M109.3,272.5H86.6v-71.1h22.7V272.5z"/>
	</g>
	<g>
		<defs>
			<rect id="SVGID_00000179622409197067461900000015918375407684539066_" width="195.6" height="280.6"/>
		</defs>
		<clipPath id="SVGID_00000031169309095102098660000000637621042830845835_">
			<use xlink:href="#SVGID_00000179622409197067461900000015918375407684539066_"  style="overflow:visible;"/>
		</clipPath>
		<path style="clip-path:url(#SVGID_00000031169309095102098660000000637621042830845835_);fill:#F1B67F;" d="M85.2,273.9
			c0-7.1,5.7-12.8,12.7-12.8c7.1,0,12.8,5.7,12.8,12.7c0,7.1-5.7,12.8-12.7,12.8c-3.4,0-6.7-1.3-9.1-3.7
			C86.5,280.6,85.2,277.3,85.2,273.9z"/>
	</g>
	<g>
		<defs>
			<rect id="SVGID_00000118359402703091111780000015888560073118256062_" width="195.6" height="280.6"/>
		</defs>
		<clipPath id="SVGID_00000132082005423975304810000012876892127467834787_">
			<use xlink:href="#SVGID_00000118359402703091111780000015888560073118256062_"  style="overflow:visible;"/>
		</clipPath>
		<path style="clip-path:url(#SVGID_00000132082005423975304810000012876892127467834787_);fill:#1A1A1A;" d="M97.9,259.8
			c-7.8,0-14.2,6.3-14.2,14.2s6.3,14.2,14.2,14.2s14.2-6.3,14.2-14.2l0,0C112.1,266.1,105.8,259.8,97.9,259.8z M97.9,262.6
			c6.3,0,11.3,5.1,11.3,11.3s-5.1,11.3-11.3,11.3s-11.3-5.1-11.3-11.3S91.6,262.6,97.9,262.6L97.9,262.6z"/>
	</g>
	<g>
		<defs>
			<rect id="SVGID_00000075866941885292198260000002351379235201879710_" width="195.6" height="280.6"/>
		</defs>
		<clipPath id="SVGID_00000075127503304608322920000004447936138540119995_">
			<use xlink:href="#SVGID_00000075866941885292198260000002351379235201879710_"  style="overflow:visible;"/>
		</clipPath>
		<path style="clip-path:url(#SVGID_00000075127503304608322920000004447936138540119995_);fill:#F7E3B8;" d="M97.9,265.1
			c-4.9,0-8.8,3.9-8.8,8.8s3.9,8.8,8.8,8.8s8.8-3.9,8.8-8.8l0,0C106.8,269.1,102.8,265.1,97.9,265.1z M97.9,266.6
			c4.1,0,7.4,3.3,7.4,7.4s-3.3,7.4-7.4,7.4s-7.4-3.3-7.4-7.4l0,0C90.5,269.9,93.8,266.6,97.9,266.6L97.9,266.6z"/>
	</g>
	<g>
		<defs>
			<rect id="SVGID_00000062151139163640099620000009972826122075998388_" width="195.6" height="280.6"/>
		</defs>
		<clipPath id="SVGID_00000020384185072458420160000014774479903537020038_">
			<use xlink:href="#SVGID_00000062151139163640099620000009972826122075998388_"  style="overflow:visible;"/>
		</clipPath>
		<path style="clip-path:url(#SVGID_00000020384185072458420160000014774479903537020038_);fill:#F7E3B8;" d="M99.3,270
			c-2.2,0-4,1.8-4,4s1.8,4,4,4s4-1.8,4-4S101.5,270,99.3,270z M99.3,271.4c1.4,0,2.6,1.2,2.6,2.6s-1.2,2.6-2.6,2.6s-2.6-1.2-2.6-2.6
			l0,0C96.8,272.6,97.9,271.4,99.3,271.4L99.3,271.4z"/>
	</g>
	<g>
		<defs>
			<rect id="SVGID_00000126310290899249646090000016724522491850057653_" width="195.6" height="280.6"/>
		</defs>
		<clipPath id="SVGID_00000065035430552651415730000007804091537218100103_">
			<use xlink:href="#SVGID_00000126310290899249646090000016724522491850057653_"  style="overflow:visible;"/>
		</clipPath>
		<path style="clip-path:url(#SVGID_00000065035430552651415730000007804091537218100103_);fill:#1A1A1A;" d="M103.6,95.9
			c-1.8,0.1-3.6,0.4-5.4,0.9c-13,3.3-22.4,11.2-26.6,21.6s-3.3,22.8,2.8,34.9c1,2,0.6,2.2,0.3,2.5c-0.7,0.6-1.7,0.9-2.6,0.7
			c-2.8-0.2-6.8-2.1-6.7-10.6c0.1-2.3-0.5-4.6-1.8-6.5c-1.4-1.8-3.5-2.9-5.8-3c-4.2-0.1-7.6,2.6-9.8,6.4c-4.6,7.9-5.7,17.4-3.3,26.2
			c1.7,6,4.5,11.7,8.3,16.6c2.6,3.4,1.2,4.5,0.3,5c-0.5,0.3-1.2,0.3-1.8,0c-0.8-0.4-2.1-1.4-3.2-4.2c-0.8-2.3-2.3-4.4-4.3-5.8
			c-2-1.4-4.5-1.7-6.8-1c-4.4,1.5-6.1,6.1-5.5,10.6c2.1,17,11.9,32.1,26.6,40.9c13.6,8.3,30.4,11.5,46.5,10.4s31.7-6.2,43.1-15.4
			s18.4-22.7,16.1-38.8c-0.7-5.1-4.4-9.1-8.8-9.3s-8.3,3.3-9.1,7.9c-0.8,4.4-2.9,4.5-4.3,4.1c-0.7-0.1-1.3-0.6-1.5-1.2
			c-0.3-0.6-0.5-1.8,0.4-3.9c3-7.1,9.2-19.7,10.9-32.9c0.8-6.6,0.5-13.5-2.2-19.9s-8-12-16-16c-2.4-1.2-5-2.2-8.4-0.9
			c-1.9,0.8-3.4,2.5-3.9,4.5c-0.4,1.9-0.1,4,0.8,5.7c1.5,3.4,0.8,3.9,0.2,4.4c-1.5,0.8-3.3,0.8-4.8,0.2c-2.7-0.9-4.8-2.8-6-5.4
			c-1.3-2.9-1.8-7.1,0.3-13.3c0.7-2,1.2-4.1,1.4-6.2c0.2-2.2-0.3-4.4-1.6-6.2c-1.5-1.8-3.7-2.9-6-3.1
			C104.7,95.9,104.1,95.9,103.6,95.9L103.6,95.9z M104.3,104.5v0.2c-0.2,1.4-0.5,2.7-1,4c-2.7,7.8-2.3,14.5,0,19.7
			c2.1,4.7,6.1,8.3,11,9.9c4.4,1.4,9.3,1.3,12.9-1.7c3.2-2.6,4.3-7.4,2.9-12.2c6,3.1,9.3,6.9,11.1,11.3c1.9,4.5,2.3,9.8,1.6,15.4
			c-1.4,11.2-7.1,23.1-10.3,30.7c-1.6,3.4-1.7,7.4-0.2,10.8c1.4,3,4.1,5.1,7.3,5.9c6,1.5,13.3-2.8,14.7-10.9
			c0.2-1.2,0.5-0.8,0.4-0.8s0.4-0.5,0.7,2c1.8,13.2-3.5,23.3-13.1,31s-23.6,12.6-38.3,13.5s-29.6-2.1-41.4-9.2s-20.2-18.2-22.5-34.6
			c0.1,0.1,0.2,0.3,0.2,0.4c1.7,4.1,4.3,7.1,7.4,8.6c3,1.4,6.5,1.4,9.5-0.2c5.5-3,7.3-11.3,2.5-17.7c-3.1-4.1-5.4-8.7-6.8-13.6
			c-2-6.6-1.1-13.8,2.4-19.7c0.4-0.6,0.8-1.2,1.4-1.6c0,0.1,0,0.2,0,0.4c-0.2,11.7,7.3,18.6,14.6,19.2c3.7,0.4,7.4-1,9.8-3.8
			c2.4-3,2.7-7.6,0.7-11.7c-5.2-10.5-5.6-20.2-2.5-28s9.9-13.7,20.8-16.5C101.6,104.6,102.9,104.4,104.3,104.5L104.3,104.5z"/>
	</g>
	<g>
		<defs>
			<rect id="SVGID_00000106141491952408811080000007275985244985784218_" width="195.6" height="280.6"/>
		</defs>
		<clipPath id="SVGID_00000022542907699466997060000011947478787622004650_">
			<use xlink:href="#SVGID_00000106141491952408811080000007275985244985784218_"  style="overflow:visible;"/>
		</clipPath>
		<path style="clip-path:url(#SVGID_00000022542907699466997060000011947478787622004650_);fill:#ED6C31;" d="M56.3,183
			c7.5,9.8-6.4,18.8-12,5c-3.3-8-9.2-4.5-8.4,1.6c9.7,70.8,131.9,56.9,123.8-1.7c-1-7.6-8.5-7-9.5-1.3c-2.2,12.5-18.7,8.7-13.6-3.4
			c6.1-14.7,23.8-49-5.3-63.3c-3.4-1.7-8.1-1.6-5.7,3.8c7.7,18-27.8,14.2-18.2-13.8c2.7-7.9,1.2-11.5-8.1-9.1
			c-24,6.1-32.3,27.8-21.1,50.5c6,12.1-17.4,14.7-17.1-5.5c0.1-7-6.2-6.5-9.4-1C42.3,161.1,51.8,177.1,56.3,183L56.3,183z"/>
	</g>
	<g>
		<defs>
			<rect id="SVGID_00000148651342564145171310000013452874217218463375_" width="195.6" height="280.6"/>
		</defs>
		<clipPath id="SVGID_00000160897348781352064310000010829928580913143433_">
			<use xlink:href="#SVGID_00000148651342564145171310000013452874217218463375_"  style="overflow:visible;"/>
		</clipPath>
		<path style="clip-path:url(#SVGID_00000160897348781352064310000010829928580913143433_);fill:#F5C45B;" d="M68.4,197.4
			c2.2,40,62.2,43.7,63.7,4.3c0.3-8.7-7.1-12.6-9.7-3.3c-2.9,10.2-17,1.9-7.5-5.1c11.5-8.4,17.1-11.6,17.8-19
			c0.4-4.9-2.6-7.3-5.4-3.8c-6.7,8.2-11.4,2.2-6.5-3.7c11.3-13.7-5.8-24.5-18.6-26.9c-10.5-2-16.8,4.6-6.2,10.7
			c27.3,15.7-19.7,17.3-9.7,38.6c5.3,11.2-6.8,15-10.6,5.3C73.6,189.2,68.1,191.5,68.4,197.4L68.4,197.4z"/>
	</g>
	<g>
		<defs>
			<rect id="SVGID_00000127020934522432381510000018291216356369081217_" width="195.6" height="280.6"/>
		</defs>
		<clipPath id="SVGID_00000173844394963562173960000011132559857905866137_">
			<use xlink:href="#SVGID_00000127020934522432381510000018291216356369081217_"  style="overflow:visible;"/>
		</clipPath>
		<path style="clip-path:url(#SVGID_00000173844394963562173960000011132559857905866137_);fill:#F5C45B;" d="M67.9,183
			c-5.2-1.6-8.7-6.4-8.8-11.8c0-6.7,9.9-7.7,9.8-1.2c-0.1,5-3,6.6,1.6,9.4C74,181.5,72.3,184.5,67.9,183z"/>
	</g>
	<g>
		<defs>
			<rect id="SVGID_00000143594178114863806350000017504725592339413120_" width="195.6" height="280.6"/>
		</defs>
		<clipPath id="SVGID_00000043438108061756956390000016294057635233929902_">
			<use xlink:href="#SVGID_00000143594178114863806350000017504725592339413120_"  style="overflow:visible;"/>
		</clipPath>
		<path style="clip-path:url(#SVGID_00000043438108061756956390000016294057635233929902_);fill:#F5C45B;" d="M135.1,158.4
			c4.2-0.6,7.1-15.8-2.8-13.3C126.2,146.6,129.2,159.2,135.1,158.4z"/>
	</g>
	<g>
		<defs>
			<rect id="SVGID_00000121270036188776036890000010695663056197735824_" width="195.6" height="280.6"/>
		</defs>
		<clipPath id="SVGID_00000070118966545673914250000009296304251556599453_">
			<use xlink:href="#SVGID_00000121270036188776036890000010695663056197735824_"  style="overflow:visible;"/>
		</clipPath>
		<path style="clip-path:url(#SVGID_00000070118966545673914250000009296304251556599453_);fill:#F5C45B;" d="M91.4,133.7
			c2.5,1.4,3.5-0.2,2.4-1.8c-1.4-2.2-1.5-3.3-0.1-6c1.6-3.1-3.8-3.1-6-0.4C85.8,127.9,87.6,131.5,91.4,133.7L91.4,133.7z"/>
	</g>
	<g>
		<defs>
			<rect id="SVGID_00000144320354629516427590000003414435525662113951_" width="195.6" height="280.6"/>
		</defs>
		<clipPath id="SVGID_00000000909610451251155110000002259179300091318682_">
			<use xlink:href="#SVGID_00000144320354629516427590000003414435525662113951_"  style="overflow:visible;"/>
		</clipPath>
		<path style="clip-path:url(#SVGID_00000000909610451251155110000002259179300091318682_);fill:#FFEA8A;" d="M92.3,207.7
			c-9.4-0.6-8.1,10.8,1.4,14.4c19.1,7.3,23.5-17.5,7.4-30.8c-4.9-4.1-9.8-3.6-6.4,2.2C97.9,199.1,100.5,208.3,92.3,207.7L92.3,207.7
			z"/>
	</g>
	<g>
		<defs>
			<rect id="SVGID_00000071539680765352450130000015861357882233825685_" width="195.6" height="280.6"/>
		</defs>
		<clipPath id="SVGID_00000178904572122562421230000013658273172059987647_">
			<use xlink:href="#SVGID_00000071539680765352450130000015861357882233825685_"  style="overflow:visible;"/>
		</clipPath>
		<path style="clip-path:url(#SVGID_00000178904572122562421230000013658273172059987647_);fill:#1A1A1A;" d="M103.7,98.8
			c-1.6,0.1-3.2,0.3-4.8,0.8c-12.3,3.2-20.8,10.4-24.7,19.9s-3.1,21,2.7,32.6c1.3,2.7,1,4.4,0,5.6c-1.3,1.3-3.2,2-5,1.8
			c-4.3-0.3-9.5-3.9-9.3-13.4c0.1-1.7-0.3-3.3-1.3-4.8c-0.8-1.1-2.2-1.8-3.6-1.9c-2.7-0.1-5.4,1.8-7.2,4.9c-4.2,7.3-5.3,15.9-3,24
			c1.6,5.7,4.2,11,7.8,15.7c3.4,4.4,1.8,7.9-0.6,9.2c-1.4,0.7-3,0.7-4.3,0c-1.6-0.8-3.3-2.5-4.6-5.6c-0.6-1.8-1.8-3.4-3.3-4.6
			c-1.2-0.9-2.8-1.1-4.2-0.7c-2.7,0.9-4.1,4-3.6,7.6c2.5,18.1,12.2,30.9,25.2,38.9s29.2,11,44.8,10s30.7-6,41.4-14.6
			s17.2-21.1,15.1-36.2c-0.6-4.2-3.2-6.7-6.1-6.9s-5.6,2.1-6.2,5.5c-1,5.6-4.8,7.1-7.8,6.4c-1.5-0.3-2.8-1.4-3.5-2.8
			c-0.7-1.4-0.8-3.5,0.3-6.2c3-7.3,9.1-19.6,10.7-32.2c0.8-6.3,0.5-12.6-2-18.4s-7.1-10.8-14.6-14.5c-1.9-0.9-4.1-1.5-6.1-0.8
			c-1.1,0.4-1.9,1.3-2.2,2.5c-0.2,1.4,0,2.8,0.7,4c1.8,4.1,1,6.4-0.6,7.7s-4.5,1.7-7.5,0.7c-3.4-1.1-6.2-3.6-7.7-6.9
			c-1.7-3.6-2.1-8.7,0.2-15.4c0.7-1.8,1.1-3.6,1.3-5.5c0.2-1.5-0.2-3-1-4.3c-1-1.2-2.5-1.9-4-1.9C104.6,98.8,104.2,98.8,103.7,98.8
			L103.7,98.8z M104.7,101.6c0.8,0,1.5,0.3,2,0.8c0.4,0.7,0.6,1.5,0.4,2.4c-0.2,1.6-0.5,3.2-1.1,4.7c-2.5,7.3-2.1,13.2-0.1,17.6
			c1.8,4,5.2,7,9.4,8.4c3.7,1.2,7.6,0.9,10.2-1.2c2.6-2.1,3.4-6.2,1.4-11c-0.4-0.7-0.5-1.5-0.5-2.3c0.1-0.3,0.1-0.3,0.4-0.4
			c1.3-0.2,2.7,0.1,3.9,0.7c7,3.4,11.1,8,13.3,13.1s2.5,11,1.8,16.9c-1.5,11.9-7.4,24-10.5,31.4c-1.4,3.3-1.3,6.3-0.3,8.5
			s3,3.8,5.4,4.3c4.5,1.1,10.1-1.8,11.3-8.6c0.4-2.3,1.9-3.2,3.3-3.2s3,1.1,3.4,4.4c1.9,14.2-3.9,25.4-14.1,33.6
			s-24.7,13.2-39.9,14.1s-30.8-2.1-43.2-9.6s-21.5-19.5-23.9-36.8c-0.3-2.5,0.8-4.2,1.7-4.5c0.6-0.2,1.2-0.1,1.7,0.3
			c1.1,0.9,1.9,2,2.3,3.3c1.5,3.7,3.7,6,6,7.1c2.2,1.1,4.8,1,6.9-0.1c4-2.2,5.7-8.1,1.5-13.4c-3.3-4.4-5.8-9.4-7.3-14.7
			c-2.1-7.4-1.1-15.3,2.7-21.9c1.4-2.4,3.5-3.6,4.7-3.5c0.6,0,1.1,0.3,1.4,0.7c0.5,0.9,0.8,2,0.7,3c-0.2,10.6,6.2,15.9,12,16.3
			c2.8,0.3,5.5-0.7,7.4-2.8c1.7-2.1,2-5.2,0.4-8.6c-5.4-11.1-6.1-21.7-2.6-30.3s11.2-15.2,22.8-18.2
			C101.3,101.8,103,101.6,104.7,101.6z"/>
	</g>
	<g>
		<defs>
			<rect id="SVGID_00000143582898657745488680000008656208844950884008_" width="195.6" height="280.6"/>
		</defs>
		<clipPath id="SVGID_00000083775317559029820720000008257554043280759484_">
			<use xlink:href="#SVGID_00000143582898657745488680000008656208844950884008_"  style="overflow:visible;"/>
		</clipPath>
		<path style="clip-path:url(#SVGID_00000083775317559029820720000008257554043280759484_);fill:#1A1A1A;" d="M13.5,157.8
			c-1.7,1-3,2.6-3.5,4.6l-2.2,8.4l-26.1,14.1l0.5-0.2c-0.3,0.1-0.6,0.3-0.9,0.4c-4.8,2.8-6.4,8.9-3.7,13.8c2.8,4.8,8.9,6.4,13.8,3.7
			c0.6-0.3,0.6-0.4,0.2-0.1h0.1l79.1-48.7c3.6-2.1,4.8-6.7,2.8-10.3c-2.1-3.6-6.7-4.8-10.3-2.8l0,0l-38.9,21
			c-0.1-0.4-0.3-0.9-0.6-1.3C21.7,156.9,17.1,155.7,13.5,157.8L13.5,157.8z M-9.5,191.5l-4,2.5l0.1-0.1c-0.6,0.3-0.6,0.4-0.2,0.1
			c-0.1,0.1-0.1,0.1-0.2,0s0-0.1,0-0.2L-9.5,191.5z"/>
	</g>
	<g>
		<defs>
			<rect id="SVGID_00000165198359858369834970000003223344210049945771_" width="195.6" height="280.6"/>
		</defs>
		<clipPath id="SVGID_00000145747890802570547760000013414041010734382239_">
			<use xlink:href="#SVGID_00000165198359858369834970000003223344210049945771_"  style="overflow:visible;"/>
		</clipPath>
		<path style="clip-path:url(#SVGID_00000145747890802570547760000013414041010734382239_);fill:#1A1A1A;" d="M71.3,120.4
			c-4.8,2.4-8.2,7-9.1,12.3c-0.9,5.2,0.4,10.9,3.6,16.4c5.8,10.1,17.7,13.3,26.5,8.2c9.5-5.5,11-18.5,5.2-28.6
			C92.3,119.4,80.8,115.8,71.3,120.4z M75.7,129.3c4.6-2.3,9.5-1.9,13.1,4.3c3.6,6.2,2.2,12.9-1.6,15.1c-4.4,2.6-9.2,1.8-12.9-4.6
			c-2.3-4-2.8-7.4-2.4-9.8C72.2,132.2,73.7,130.2,75.7,129.3z"/>
	</g>
	<g>
		<defs>
			<rect id="SVGID_00000075867926984642427430000013232296586345088189_" width="195.6" height="280.6"/>
		</defs>
		<clipPath id="SVGID_00000042694481182451296450000006886380260974626191_">
			<use xlink:href="#SVGID_00000075867926984642427430000013232296586345088189_"  style="overflow:visible;"/>
		</clipPath>
		<path style="clip-path:url(#SVGID_00000042694481182451296450000006886380260974626191_);fill:#1A1A1A;" d="M53,130.8
			c-4.3,2.3-7.3,6.6-8,11.4c-0.8,5.4,0.6,11.2,3.8,16.7c5.8,10.1,17.9,13.7,26.7,8.1c12.2-7.9,9.3-5.5,16.8-9.7
			c2.2-1.6,2.8-4.7,1.2-7c-1.4-1.9-3.9-2.6-6.1-1.7c-7,4-4.8,2-17.3,10c-4.1,2.6-9,1.7-12.7-4.7c-2.3-3.9-2.9-7.8-2.5-10.3
			s1.2-3.6,3.2-4.3c7.6-2.5,12.3-6.3,17.7-10.1c2.2-1.6,2.8-4.7,1.2-7c-0.8-1.1-1.9-1.8-3.2-2c-1.3-0.2-2.6,0.1-3.7,0.9
			c-5.6,4-9.1,6.8-15,8.8C54.2,130.2,53.6,130.4,53,130.8L53,130.8z"/>
	</g>
	<g>
		<defs>
			<rect id="SVGID_00000146459920720505623290000010001450069221521569_" width="195.6" height="280.6"/>
		</defs>
		<clipPath id="SVGID_00000145756637502234135270000001181356046242045087_">
			<use xlink:href="#SVGID_00000146459920720505623290000010001450069221521569_"  style="overflow:visible;"/>
		</clipPath>
		<path style="clip-path:url(#SVGID_00000145756637502234135270000001181356046242045087_);fill:#D58D5A;" d="M68.2,149.6
			c1.2-0.7,1.7-2.2,1-3.5c-0.7-1.2-2.2-1.7-3.5-1c0,0-0.1,0-0.1,0.1l-46.5,25.2l0.7-5.6c0-0.1,0-0.1,0-0.1c0.1-0.5,0-1.1-0.3-1.6
			c-0.7-1.2-2.3-1.7-3.5-0.9c-0.6,0.3-1,0.9-1.2,1.6L12,174.1l-28,15.2l-0.2,0.1c-2.4,1.4-3.3,4.5-1.9,7l0,0c1.4,2.5,4.5,3.3,7,1.9
			l0,0c0.1-0.1,0.1-0.1,0.2-0.1L68.2,149.6z"/>
	</g>
	<g>
		<defs>
			<rect id="SVGID_00000039837586875963061070000000073121011998355118_" width="195.6" height="280.6"/>
		</defs>
		<clipPath id="SVGID_00000072971935059085645420000016491399841732400271_">
			<use xlink:href="#SVGID_00000039837586875963061070000000073121011998355118_"  style="overflow:visible;"/>
		</clipPath>
		<path style="clip-path:url(#SVGID_00000072971935059085645420000016491399841732400271_);fill:#B66341;" d="M-18.1,196.4
			c-0.3-0.5-0.5-1.1-0.6-1.8c1.6,1.3,3.9,1.5,5.8,0.5c0.1,0,0.1-0.1,0.2-0.1l79.6-47.6c0.8-0.5,1.3-1.3,1.3-2.2
			c0.4,0.2,0.7,0.5,0.9,0.9c0.7,1.2,0.3,2.8-0.9,3.5l-79.1,48.6c-0.1,0-0.1,0.1-0.2,0.1C-13.6,199.7-16.7,198.9-18.1,196.4
			L-18.1,196.4L-18.1,196.4z"/>
	</g>
	<g>
		<defs>
			<rect id="SVGID_00000150819727894135635700000013229297618273457579_" width="195.6" height="280.6"/>
		</defs>
		<clipPath id="SVGID_00000068662406007922867000000000891976976735678899_">
			<use xlink:href="#SVGID_00000150819727894135635700000013229297618273457579_"  style="overflow:visible;"/>
		</clipPath>
		<path style="clip-path:url(#SVGID_00000068662406007922867000000000891976976735678899_);fill:#1A1A1A;" d="M15.6,161.5
			c-0.8,0.4-1.3,1.2-1.5,2l-2.7,10.2l-27.7,15h0.1c-0.1,0-0.2,0.1-0.4,0.2c-2.8,1.6-3.8,5.2-2.2,7.9c0,0,0,0,0,0.1
			c1.6,2.8,5.2,3.8,7.9,2.2c0,0,0,0,0.1,0s0.1-0.1,0.2-0.1l0,0l79.1-48.6c1.6-0.9,2.1-2.9,1.1-4.5c-0.9-1.5-2.9-2-4.4-1.2L20,169
			l0.5-4.2c0-0.1,0-0.1,0-0.2c0.1-0.7-0.1-1.4-0.4-2C19.2,161,17.2,160.5,15.6,161.5L15.6,161.5z M16.4,162.7c0.9-0.5,2-0.2,2.5,0.7
			c0.2,0.3,0.3,0.7,0.2,1.1v0.1l-0.9,7L66,145.8c0.9-0.5,2-0.2,2.5,0.7s0.2,2-0.7,2.5l-79.1,48.6l-0.2,0.1c-2.1,1.2-4.8,0.5-6-1.6
			l0,0c-1.2-2.1-0.5-4.8,1.6-6l0,0l0.2-0.1l0,0l28.3-15.3l2.9-10.8C15.6,163.4,15.9,163,16.4,162.7L16.4,162.7z"/>
	</g>
	<g>
		<defs>
			<rect id="SVGID_00000036226616544136617510000001906935500062202508_" width="195.6" height="280.6"/>
		</defs>
		<clipPath id="SVGID_00000123415363699514956210000007006080744607664034_">
			<use xlink:href="#SVGID_00000036226616544136617510000001906935500062202508_"  style="overflow:visible;"/>
		</clipPath>
		<path style="clip-path:url(#SVGID_00000123415363699514956210000007006080744607664034_);fill:#FFFFFF;" d="M72.8,125.2
			c-5.5,3.9-9.6,7.3-16.4,9.5c-7.6,2.5-8.9,12.3-3.5,21.8c4.8,8.2,13.2,10.5,19.7,6.4c12.3-7.9,9.8-5.7,17-9.8L72.8,125.2z"/>
	</g>
	<g>
		<defs>
			<rect id="SVGID_00000055697082148704533330000012327294360293456039_" width="195.6" height="280.6"/>
		</defs>
		<clipPath id="SVGID_00000058574212972389783460000006715247888279053494_">
			<use xlink:href="#SVGID_00000055697082148704533330000012327294360293456039_"  style="overflow:visible;"/>
		</clipPath>
		<path style="clip-path:url(#SVGID_00000058574212972389783460000006715247888279053494_);fill:#AFDCE0;" d="M53.9,157.9
			c4.9,7.1,12.7,8.9,18.8,5c12.3-7.9,9.8-5.7,17-9.8l-3.1-5.1c-6.2,3.2-12.3,6.7-18.1,10.6C64,161.4,58.2,161.1,53.9,157.9z"/>
	</g>
	<g>
		<defs>
			<rect id="SVGID_00000079472975778805938580000004983765278981717154_" width="195.6" height="280.6"/>
		</defs>
		<clipPath id="SVGID_00000044146992158597905390000015487836985508118462_">
			<use xlink:href="#SVGID_00000079472975778805938580000004983765278981717154_"  style="overflow:visible;"/>
		</clipPath>
		<path style="clip-path:url(#SVGID_00000044146992158597905390000015487836985508118462_);fill:#1A1A1A;" d="M54.8,134.6
			c-3.1,1.6-5.3,4.7-5.7,8.2c-0.6,4.1,0.5,9.1,3.3,13.9c4.9,8.5,13.9,11,20.7,6.6c12.3-7.9,9.7-5.7,17-9.8c0.3-0.2,0.5-0.6,0.3-1
			s-0.6-0.5-1-0.3c-7.2,4.1-4.7,1.9-17,9.9c-6.1,3.9-14.1,1.8-18.7-6.1c-2.7-4.6-3.7-9.3-3.1-13s2.6-6.5,6.1-7.7
			c6.9-2.3,11.1-5.6,16.6-9.6c0.3-0.2,0.4-0.7,0.2-1c-0.2-0.3-0.7-0.4-1-0.2c0,0,0,0-0.1,0c-5.5,4-9.5,7.2-16.2,9.4
			C55.8,134.2,55.4,134.4,54.8,134.6L54.8,134.6z"/>
	</g>
	<g>
		<defs>
			<rect id="SVGID_00000179640670228508950460000017368310417784990362_" width="195.6" height="280.6"/>
		</defs>
		<clipPath id="SVGID_00000106851752032145531790000013673413042258471863_">
			<use xlink:href="#SVGID_00000179640670228508950460000017368310417784990362_"  style="overflow:visible;"/>
		</clipPath>
		<path style="clip-path:url(#SVGID_00000106851752032145531790000013673413042258471863_);fill:#AFDCE0;" d="M61.5,157.2
			c-0.6-1-0.3-2.3,0.7-2.9l0,0c1-0.6,2.3-0.2,2.9,0.8s0.2,2.3-0.9,2.9C63.4,158.5,62.1,158.2,61.5,157.2z"/>
	</g>
	<g>
		<defs>
			<rect id="SVGID_00000000901277756878036090000016826945558939067059_" width="195.6" height="280.6"/>
		</defs>
		<clipPath id="SVGID_00000078020064973339263650000014831550346309567369_">
			<use xlink:href="#SVGID_00000000901277756878036090000016826945558939067059_"  style="overflow:visible;"/>
		</clipPath>
		<path style="clip-path:url(#SVGID_00000078020064973339263650000014831550346309567369_);fill:#AFDCE0;" d="M64.1,150.1
			c-0.3-0.5-0.1-1,0.3-1.3c0.5-0.3,1-0.1,1.3,0.3c0.3,0.5,0.1,1-0.3,1.3l0,0C64.9,150.8,64.3,150.6,64.1,150.1
			C64.1,150.2,64.1,150.2,64.1,150.1z"/>
	</g>
	<g>
		<defs>
			<rect id="SVGID_00000062874386823385054340000013618843711621660827_" width="195.6" height="280.6"/>
		</defs>
		<clipPath id="SVGID_00000042710281925852168580000010901945072901231510_">
			<use xlink:href="#SVGID_00000062874386823385054340000013618843711621660827_"  style="overflow:visible;"/>
		</clipPath>
		<path style="clip-path:url(#SVGID_00000042710281925852168580000010901945072901231510_);fill:#AFDCE0;" d="M69.6,155.4
			c-0.3-0.5-0.1-1,0.4-1.3s1-0.1,1.3,0.4c0.3,0.4,0.1,1-0.3,1.3C70.4,156,69.8,155.8,69.6,155.4L69.6,155.4z"/>
	</g>
	<g>
		<defs>
			<rect id="SVGID_00000007424249314730342140000011483318587089654149_" width="195.6" height="280.6"/>
		</defs>
		<clipPath id="SVGID_00000129927875727596091440000000729967682469777547_">
			<use xlink:href="#SVGID_00000007424249314730342140000011483318587089654149_"  style="overflow:visible;"/>
		</clipPath>
		<path style="clip-path:url(#SVGID_00000129927875727596091440000000729967682469777547_);fill:#AFDCE0;" d="M54.3,145.6
			c-0.3-0.5-0.1-1,0.4-1.3s1-0.1,1.3,0.4s0.1,1-0.3,1.3C55.1,146.3,54.5,146.1,54.3,145.6L54.3,145.6z"/>
	</g>
	<g>
		<defs>
			<rect id="SVGID_00000047776437689457936790000005955234687972171694_" width="195.6" height="280.6"/>
		</defs>
		<clipPath id="SVGID_00000089531722905163065310000005630638005749199791_">
			<use xlink:href="#SVGID_00000047776437689457936790000005955234687972171694_"  style="overflow:visible;"/>
		</clipPath>
		<path style="clip-path:url(#SVGID_00000089531722905163065310000005630638005749199791_);fill:#FFFFFF;" d="M70.1,146.6
			c-5.5-9.5-3.7-18.2,3.4-21.8c6.6-3.3,14.9-2,19.6,6.3s3.2,18-3.4,21.9S74.8,154.9,70.1,146.6z"/>
	</g>
	<g>
		<defs>
			<rect id="SVGID_00000143584717100202632220000009038185281845618357_" width="195.6" height="280.6"/>
		</defs>
		<clipPath id="SVGID_00000096040640413987962910000018385838621582760618_">
			<use xlink:href="#SVGID_00000143584717100202632220000009038185281845618357_"  style="overflow:visible;"/>
		</clipPath>
		<path style="clip-path:url(#SVGID_00000096040640413987962910000018385838621582760618_);fill:#1A1A1A;" d="M71.8,125
			c-2.9,1.9-4.9,5-5.5,8.4c-0.7,4,0.3,8.7,3.1,13.6c4.9,8.5,13.7,10.6,20.7,6.6s8.6-14.3,3.6-22.8s-13.7-10-20.6-6.6
			C72.7,124.5,72.3,124.7,71.8,125z M72.6,126.2c0.4-0.3,0.8-0.5,1.2-0.7c6.3-3.2,14.1-2,18.7,6s3.1,17.3-3.1,20.9
			s-14.1,1.9-18.7-6.1c-2.7-4.6-3.5-9-2.9-12.6C68.2,130.6,70,127.9,72.6,126.2L72.6,126.2z"/>
	</g>
	<g>
		<defs>
			<rect id="SVGID_00000176735067507000372320000002884533864556997765_" width="195.6" height="280.6"/>
		</defs>
		<clipPath id="SVGID_00000003092803549842396740000006545956990142522789_">
			<use xlink:href="#SVGID_00000176735067507000372320000002884533864556997765_"  style="overflow:visible;"/>
		</clipPath>
		<path style="clip-path:url(#SVGID_00000003092803549842396740000006545956990142522789_);fill:#ED6C31;" d="M150.7-0.1h29h16v16
			c0,7,0,14,0,21c-10.2,12.4-28.6,14.2-41,4S140.5,12.3,150.7-0.1z"/>
	</g>
</g>
<g class="st58">
	<path class="st1" d="M169.1,15.8v2.5h-4.9v2.7c0.6-0.7,1.4-1.1,2.4-1.1c1.1,0,1.9,0.3,2.5,0.9s0.8,1.8,0.8,3.5v2.3
		c0,1.1-0.1,1.9-0.2,2.5s-0.3,1-0.7,1.5s-0.8,0.8-1.5,1c-0.6,0.2-1.4,0.4-2.3,0.4c-1,0-1.9-0.2-2.7-0.5c-0.8-0.4-1.3-0.9-1.7-1.6
		c-0.3-0.7-0.5-1.8-0.5-3.3v-0.9h3.9v1c0,1,0,1.7,0.1,2.2c0.1,0.4,0.3,0.6,0.7,0.6c0.2,0,0.4-0.1,0.5-0.2c0.1-0.1,0.2-0.3,0.2-0.4
		s0-0.8,0-1.9v-3.1c0-0.6-0.1-1-0.2-1.2c-0.1-0.2-0.3-0.3-0.6-0.3c-0.2,0-0.3,0.1-0.5,0.2c-0.1,0.1-0.2,0.2-0.2,0.4
		c0,0.1-0.1,0.4-0.1,0.9h-3.9l0.2-8H169.1z"/>
</g>
<g class="st58">
	<path class="st1" d="M176.7,15.8v15.8h-3.9v-8.5c0-1.2,0-2-0.1-2.2s-0.2-0.4-0.5-0.6s-0.9-0.2-1.8-0.2H170v-1.8
		c1.9-0.4,3.4-1.3,4.3-2.5H176.7z"/>
</g>
</svg>
