<svg id="Слой_1" data-name="Слой 1" xmlns="http://www.w3.org/2000/svg" viewBox="0 0 195.59 280.63"><defs><style>.cls-1{fill:#fff;}.cls-2{font-size:38px;}.cls-15,.cls-2,.cls-3{fill:#1a1a1a;}.cls-15,.cls-2{font-family:Impact;}.cls-4{fill:#705454;}.cls-5{fill:#8b6d69;}.cls-6{fill:#4d3a39;}.cls-7{fill:#f1b67f;}.cls-8{fill:#f7e3b8;}.cls-9{fill:#ed6c31;}.cls-10{fill:#f5c45b;}.cls-11{fill:#ffea8a;}.cls-12{fill:#d58d5a;}.cls-13{fill:#b66341;}.cls-14{fill:#afdce0;}.cls-15{font-size:20px;}.cls-16{letter-spacing:-0.03em;}</style></defs><rect class="cls-1" x="-15.45" y="-1.13" width="493.56" height="290.47"/><text class="cls-2" transform="translate(68.45 49.16)">Noc<tspan x="-24.1" y="36">Kupały</tspan></text><path class="cls-3" d="M101.73,190.22a4.27,4.27,0,0,1,6,0L160,242.48a4.26,4.26,0,0,1,0,6l-18,18.05a4.27,4.27,0,0,1-6,0L83.68,214.29a4.26,4.26,0,0,1,0-6ZM139,257.51l12-12-46.23-46.23-12,12ZM92.72,211.28"/><path class="cls-3" d="M135.94,242.48a17,17,0,1,1,0,24.07,17.07,17.07,0,0,1,0-24.07Zm6,6a8.5,8.5,0,1,0,12,0,8.43,8.43,0,0,0-12,0Zm0,0"/><path class="cls-4" d="M139,263.53l18.05-18-52.26-52.26-18,18.05ZM86.7,211.28"/><path class="cls-5" d="M95.16,202.82l52.25,52.26-4.51,4.51L90.64,207.33Zm-4.52,4.51"/><path class="cls-6" d="M104.74,193.23,157,245.49,152.49,250l-52.26-52.25Zm-4.51,4.52"/><path class="cls-3" d="M104.74,191.23,159,245.49,139,265.54,85.69,212.28l-1-1ZM139,261.53l16-16-50.25-50.25-16,16ZM88.71,211.28"/><path class="cls-7" d="M157,245.49a12.77,12.77,0,1,0,3.73,9,12.79,12.79,0,0,0-3.73-9Zm0,0"/><path class="cls-3" d="M138,244.48a14.18,14.18,0,1,1,0,20.06,14.21,14.21,0,0,1,0-20.06Zm2,2a11.34,11.34,0,1,0,16,0,11.32,11.32,0,0,0-16,0Zm0,0"/><path class="cls-8" d="M141.74,248.28a8.82,8.82,0,1,1,0,12.47,8.82,8.82,0,0,1,0-12.47Zm1,1a7.4,7.4,0,1,0,10.46,0,7.38,7.38,0,0,0-10.46,0Zm0,0"/><path class="cls-8" d="M144.18,252.67a4,4,0,1,1,0,5.64,4,4,0,0,1,0-5.64Zm1,1a2.57,2.57,0,1,0,3.63,0,2.55,2.55,0,0,0-3.63,0Zm0,0"/><path class="cls-3" d="M94.16,190.22a4.27,4.27,0,0,0-6,0L35.87,242.48a4.26,4.26,0,0,0,0,6l18.05,18.05a4.27,4.27,0,0,0,6,0l52.25-52.26a4.26,4.26,0,0,0,0-6ZM56.93,257.51l-12-12,46.23-46.23,12,12Zm46.23-46.23"/><path class="cls-3" d="M59.94,242.48a17,17,0,1,0,0,24.07,17.07,17.07,0,0,0,0-24.07Zm-6,6a8.5,8.5,0,1,1-12,0,8.44,8.44,0,0,1,12,0Zm0,0"/><path class="cls-4" d="M56.93,263.53l-18-18,52.25-52.26,18,18.05Zm52.26-52.25"/><path class="cls-5" d="M100.73,202.82,48.47,255.08,53,259.59l52.26-52.26Zm4.51,4.51"/><path class="cls-6" d="M91.14,193.23,38.89,245.49,43.4,250l52.25-52.25Zm4.51,4.52"/><path class="cls-3" d="M91.14,191.23,36.88,245.49l20,20.05,53.26-53.26,1-1Zm-34.21,70.3-16-16,50.24-50.25,16,16Zm50.25-50.25"/><path class="cls-7" d="M38.89,245.49a12.76,12.76,0,1,1,0,18,12.76,12.76,0,0,1,0-18Zm0,0"/><path class="cls-3" d="M57.94,244.48a14.18,14.18,0,1,0,0,20.06,14.22,14.22,0,0,0,0-20.06Zm-2,2a11.34,11.34,0,1,1-16,0,11.32,11.32,0,0,1,16,0Zm0,0"/><path class="cls-8" d="M54.14,248.28a8.81,8.81,0,1,0,0,12.47,8.81,8.81,0,0,0,0-12.47Zm-1,1a7.4,7.4,0,1,1-10.46,0,7.39,7.39,0,0,1,10.46,0Zm0,0"/><path class="cls-8" d="M51.71,252.67a4,4,0,1,0,0,5.64,4,4,0,0,0,0-5.64Zm-1,1a2.56,2.56,0,1,1-3.62,0,2.55,2.55,0,0,1,3.62,0Zm0,0"/><path class="cls-3" d="M85.18,195.78A4.26,4.26,0,0,0,80.92,200v73.9a4.26,4.26,0,0,0,4.26,4.26H110.7a4.26,4.26,0,0,0,4.26-4.26V200a4.26,4.26,0,0,0-4.26-4.26Zm21.26,73.9h-17V204.3h17Zm0-65.38"/><path class="cls-3" d="M97.94,256.92a17,17,0,1,0,17,17,17.08,17.08,0,0,0-17-17Zm0,8.52a8.5,8.5,0,1,1-8.5,8.5,8.44,8.44,0,0,1,8.5-8.5Zm0,0"/><rect class="cls-4" x="85.18" y="200.04" width="25.52" height="73.9"/><rect class="cls-5" x="98.74" y="200.04" width="6.38" height="73.9"/><rect class="cls-6" x="85.18" y="200.04" width="6.38" height="73.9"/><path class="cls-3" d="M83.76,198.62v76.74h28.36V198.62Zm25.52,73.9H86.6V201.46h22.68Zm0-71.06"/><path class="cls-7" d="M85.18,273.94a12.77,12.77,0,1,1,3.74,9,12.77,12.77,0,0,1-3.74-9Zm0,0"/><path class="cls-3" d="M97.94,259.76a14.18,14.18,0,1,0,14.18,14.18,14.21,14.21,0,0,0-14.18-14.18Zm0,2.84A11.34,11.34,0,1,1,86.6,273.94,11.32,11.32,0,0,1,97.94,262.6Zm0,0"/><path class="cls-8" d="M97.94,265.13a8.82,8.82,0,1,0,8.82,8.81,8.82,8.82,0,0,0-8.82-8.81Zm0,1.42a7.4,7.4,0,1,1-7.39,7.39,7.38,7.38,0,0,1,7.39-7.39Zm0,0"/><path class="cls-8" d="M99.33,270a4,4,0,1,0,4,4,4,4,0,0,0-4-4Zm0,1.42a2.57,2.57,0,1,1-2.57,2.56,2.55,2.55,0,0,1,2.57-2.56Zm0,0"/><path class="cls-3" d="M103.57,95.91a24,24,0,0,0-5.36.86c-13,3.34-22.42,11.24-26.63,21.58s-3.26,22.75,2.75,34.94c1,2,.58,2.19.34,2.49a3.49,3.49,0,0,1-2.63.73c-2.84-.21-6.84-2.1-6.71-10.55a10.37,10.37,0,0,0-1.81-6.49,7.72,7.72,0,0,0-5.81-3c-4.25-.11-7.58,2.58-9.75,6.35A34.12,34.12,0,0,0,44.68,169,48.2,48.2,0,0,0,53,185.62c2.6,3.4,1.23,4.48.28,5a1.75,1.75,0,0,1-1.78,0c-.82-.39-2.1-1.45-3.22-4.16a12.64,12.64,0,0,0-4.32-5.84,7.76,7.76,0,0,0-6.77-1c-4.37,1.52-6.1,6.14-5.48,10.64a55.49,55.49,0,0,0,26.57,40.91c13.61,8.3,30.36,11.47,46.48,10.45s31.72-6.2,43.09-15.35,18.35-22.73,16.14-38.84c-.7-5.15-4.43-9.12-8.77-9.32s-8.31,3.28-9.12,7.89c-.77,4.39-2.86,4.46-4.34,4.11a2.12,2.12,0,0,1-1.54-1.2c-.3-.63-.54-1.76.38-3.95,3-7.1,9.18-19.71,10.86-32.91.83-6.6.52-13.47-2.21-19.85s-8-12-16-16c-2.41-1.18-5-2.16-8.39-.9a6.82,6.82,0,0,0-3.94,4.53,9.07,9.07,0,0,0,.81,5.72c1.47,3.43.8,3.91.24,4.36a5.92,5.92,0,0,1-4.83.21,10,10,0,0,1-6-5.39c-1.34-2.89-1.84-7.12.29-13.33a24.29,24.29,0,0,0,1.41-6.19A8.93,8.93,0,0,0,111.22,99a8.44,8.44,0,0,0-6-3.06,14.91,14.91,0,0,0-1.64,0Zm.73,8.54v.16a17.48,17.48,0,0,1-1,4c-2.68,7.8-2.34,14.54,0,19.68a18.61,18.61,0,0,0,11,9.9c4.42,1.45,9.27,1.28,12.91-1.72,3.19-2.63,4.27-7.37,2.91-12.21,6,3.12,9.27,6.93,11.13,11.26,1.94,4.52,2.29,9.81,1.58,15.41-1.42,11.19-7.1,23.09-10.27,30.7a13.41,13.41,0,0,0-.23,10.84,10.77,10.77,0,0,0,7.27,5.87c6,1.46,13.29-2.8,14.72-10.92.21-1.16.47-.84.35-.84s.38-.46.71,2c1.81,13.19-3.46,23.33-13.05,31s-23.64,12.56-38.27,13.49S74.43,231,62.66,223.83s-20.22-18.2-22.53-34.56a3.14,3.14,0,0,1,.22.41c1.72,4.15,4.3,7.12,7.44,8.61a10.59,10.59,0,0,0,9.48-.17c5.53-3,7.35-11.27,2.45-17.68a40.74,40.74,0,0,1-6.8-13.65,25,25,0,0,1,2.42-19.73,5,5,0,0,1,1.43-1.59,2.62,2.62,0,0,1,0,.35c-.19,11.73,7.32,18.65,14.6,19.19a11.41,11.41,0,0,0,9.82-3.8c2.45-3,2.74-7.61.74-11.68-5.16-10.48-5.64-20.25-2.5-28s9.91-13.73,20.85-16.54a15.08,15.08,0,0,1,4-.57Zm0,0"/><path class="cls-9" d="M56.34,183c7.5,9.8-6.38,18.75-12.05,5-3.28-8-9.24-4.49-8.41,1.57,9.69,70.79,131.88,56.93,123.84-1.67-1-7.56-8.46-7-9.48-1.28-2.19,12.51-18.67,8.68-13.63-3.41,6.14-14.72,23.8-49-5.29-63.26-3.4-1.66-8.06-1.59-5.74,3.84C133.26,141.75,97.76,138,107.37,110c2.71-7.9,1.21-11.47-8.1-9.08C75.28,107,67,128.74,78.15,151.41c6,12.11-17.4,14.66-17.08-5.52.11-7-6.24-6.48-9.42-1-9.37,16.25.19,32.23,4.69,38.1Zm0,0"/><path class="cls-10" d="M68.42,197.36c2.2,40,62.17,43.71,63.66,4.28.33-8.68-7.1-12.65-9.73-3.27-2.87,10.23-17,1.85-7.46-5.07,11.53-8.41,17.09-11.59,17.77-19,.45-4.86-2.57-7.3-5.4-3.8-6.68,8.23-11.42,2.22-6.54-3.68,11.34-13.72-5.77-24.5-18.55-26.88-10.48-2-16.81,4.62-6.16,10.72,27.33,15.68-19.71,17.32-9.65,38.56,5.32,11.22-6.76,15-10.64,5.34-2.13-5.31-7.63-3.09-7.3,2.84Zm0,0"/><path class="cls-10" d="M67.93,183a12.58,12.58,0,0,1-8.82-11.81c0-6.69,9.9-7.74,9.81-1.21-.08,5-3,6.59,1.55,9.39,3.49,2.18,1.79,5.09-2.54,3.63Zm0,0"/><path class="cls-10" d="M135.05,158.39c4.24-.56,7.07-15.75-2.76-13.29-6.13,1.53-3.14,14.05,2.76,13.29Zm0,0"/><path class="cls-10" d="M91.42,133.7c2.53,1.45,3.48-.24,2.45-1.76-1.45-2.17-1.47-3.3-.06-6,1.6-3.09-3.85-3.1-6-.43-2,2.41-.23,6,3.65,8.23Zm0,0"/><path class="cls-11" d="M92.27,207.74c-9.43-.64-8.06,10.8,1.43,14.41,19.12,7.28,23.54-17.47,7.45-30.75-4.92-4.06-9.77-3.59-6.4,2.24,3.19,5.5,5.71,14.65-2.48,14.1Zm0,0"/><path class="cls-3" d="M103.66,98.75a22.45,22.45,0,0,0-4.75.77c-12.34,3.16-20.84,10.43-24.7,19.9s-3.06,21,2.66,32.62c1.32,2.68,1,4.37,0,5.55a6,6,0,0,1-5,1.75c-4.32-.32-9.49-3.89-9.34-13.43a7.6,7.6,0,0,0-1.26-4.75,4.59,4.59,0,0,0-3.6-1.87c-2.73-.08-5.42,1.83-7.21,4.93a31.07,31.07,0,0,0-3,24,45.84,45.84,0,0,0,7.79,15.67c3.37,4.4,1.85,7.88-.63,9.22a4.72,4.72,0,0,1-4.35,0c-1.59-.76-3.31-2.46-4.62-5.65a10.14,10.14,0,0,0-3.32-4.59,4.72,4.72,0,0,0-4.22-.68c-2.65.93-4.08,4-3.6,7.58,2.48,18.1,12.24,30.93,25.24,38.86s29.2,11,44.83,10S135.24,232.67,146,224s17.19-21.1,15.11-36.24c-.58-4.23-3.23-6.73-6.09-6.86s-5.59,2.08-6.19,5.54c-1,5.63-4.8,7.1-7.8,6.38a5,5,0,0,1-3.46-2.76c-.67-1.45-.81-3.5.33-6.24,3-7.27,9.08-19.65,10.67-32.18.79-6.26.47-12.61-2-18.37s-7.12-10.85-14.65-14.54c-1.93-.94-4.14-1.54-6.14-.79a3.56,3.56,0,0,0-2.17,2.48,6.57,6.57,0,0,0,.65,4c1.77,4.13,1,6.37-.56,7.67s-4.52,1.7-7.53.72a12.92,12.92,0,0,1-7.66-6.9c-1.69-3.63-2.13-8.7.18-15.45A21.36,21.36,0,0,0,110,105a6.22,6.22,0,0,0-1-4.27,5.49,5.49,0,0,0-4-1.94c-.42,0-.85,0-1.31,0Zm1.06,2.86a2.5,2.5,0,0,1,2,.83,3.57,3.57,0,0,1,.44,2.36,19.15,19.15,0,0,1-1.12,4.72c-2.49,7.27-2.1,13.18-.07,17.57a15.79,15.79,0,0,0,9.36,8.4c3.71,1.21,7.6.93,10.22-1.22s3.43-6.17,1.36-11a4.26,4.26,0,0,1-.48-2.26c.07-.31.09-.32.4-.43a6.55,6.55,0,0,1,3.88.68c7,3.44,11.08,8,13.29,13.12s2.54,11,1.79,16.89c-1.5,11.86-7.36,24-10.47,31.44-1.37,3.3-1.34,6.26-.28,8.54a7.9,7.9,0,0,0,5.36,4.31c4.53,1.09,10.05-1.78,11.26-8.65.41-2.31,1.9-3.25,3.27-3.19s3,1.08,3.4,4.41c1.95,14.16-3.9,25.44-14.08,33.64s-24.74,13.16-39.87,14.11-30.79-2.08-43.17-9.64-21.54-19.53-23.91-36.82c-.34-2.54.79-4.18,1.73-4.51a1.71,1.71,0,0,1,1.66.33A7.56,7.56,0,0,1,43,188.59c1.52,3.68,3.66,6,6,7.13a7.62,7.62,0,0,0,6.92-.1c4-2.16,5.67-8.05,1.54-13.45a43.19,43.19,0,0,1-7.3-14.66,28,28,0,0,1,2.71-21.87c1.4-2.42,3.46-3.55,4.68-3.51a1.58,1.58,0,0,1,1.39.72,5,5,0,0,1,.7,3c-.17,10.63,6.17,15.88,12,16.3A8.64,8.64,0,0,0,79,159.4c1.72-2.07,2-5.24.38-8.62-5.44-11.05-6.08-21.7-2.58-30.29S88,105.25,99.62,102.27a16.42,16.42,0,0,1,5.1-.66Zm0,0"/><path class="cls-3" d="M13.5,157.77A7.51,7.51,0,0,0,10,162.35l-2.24,8.44-26.1,14.14.54-.25a5.25,5.25,0,0,0-.92.45,10.15,10.15,0,0,0-3.69,13.77,10.15,10.15,0,0,0,13.77,3.69c.57-.33.63-.38.21-.14l.06,0L70.78,153.8a7.54,7.54,0,0,0-7.54-13.06l-38.87,21a6.77,6.77,0,0,0-.57-1.26,7.6,7.6,0,0,0-10.3-2.76Zm-23,33.68-4,2.46.12-.07c-.56.33-.63.38-.21.14-.12.07-.12.07-.19,0s0-.13,0-.16Zm-4.27,2.32"/><path class="cls-3" d="M71.26,120.44a17,17,0,0,0-9.1,12.28c-.89,5.22.42,10.9,3.59,16.4,5.84,10.12,17.66,13.29,26.48,8.2,9.52-5.5,11-18.53,5.2-28.64a19.86,19.86,0,0,0-26.17-8.24Zm4.47,8.88c4.58-2.3,9.46-1.95,13.09,4.33s2.17,12.91-1.56,15.06c-4.44,2.56-9.21,1.82-12.9-4.56-2.28-4-2.81-7.36-2.4-9.75a6.38,6.38,0,0,1,3.77-5.08Zm0,0"/><path class="cls-3" d="M53,130.82a15.4,15.4,0,0,0-8,11.42c-.81,5.37.59,11.19,3.78,16.71,5.84,10.12,17.86,13.73,26.67,8.08,12.25-7.87,9.29-5.46,16.78-9.68a5,5,0,0,0-4.89-8.66c-7,4-4.84,2-17.26,10-4.08,2.61-9,1.69-12.7-4.68-2.27-3.94-2.93-7.75-2.55-10.27S56,140.1,58,139.43c7.59-2.49,12.32-6.3,17.71-10.15a5,5,0,0,0-2.08-9,4.92,4.92,0,0,0-3.7.86c-5.64,4-9.1,6.85-15,8.79a14.11,14.11,0,0,0-2,.83Zm0,0"/><path class="cls-12" d="M68.18,149.57a2.57,2.57,0,1,0-2.57-4.45l-46.54,25.2.74-5.61c0-.05,0-.1,0-.15A2.62,2.62,0,0,0,19.5,163a2.57,2.57,0,0,0-4.71.62L12,174.14-16,189.3l-.25.13a5.11,5.11,0,0,0-1.88,7,5.12,5.12,0,0,0,7,1.88,1.53,1.53,0,0,1,.21-.14Zm-79.1,48.58"/><path class="cls-13" d="M-18.12,196.41a4.94,4.94,0,0,1-.61-1.75,5.18,5.18,0,0,0,5.8.51c.07,0,.13-.1.21-.14L66.92,147.4a2.63,2.63,0,0,0,1.3-2.25,2.53,2.53,0,0,1,.9.91,2.6,2.6,0,0,1-.94,3.51l-79.1,48.58a1.53,1.53,0,0,0-.21.14,5.12,5.12,0,0,1-7-1.88Zm0,0"/><path class="cls-3" d="M15.63,161.47a3.28,3.28,0,0,0-1.53,2l-2.7,10.22-27.72,15,.07,0a2.2,2.2,0,0,0-.35.18,5.82,5.82,0,0,0-2.13,8,5.82,5.82,0,0,0,8,2.13,1.48,1.48,0,0,0,.21-.14h0l79.11-48.59a3.28,3.28,0,0,0-3.28-5.68L20,169l.55-4.22a.9.9,0,0,0,0-.18,3.24,3.24,0,0,0-.42-2,3.29,3.29,0,0,0-4.48-1.2Zm.72,1.23a1.86,1.86,0,0,1,2.54.68,1.9,1.9,0,0,1,.24,1.12s0,.08,0,.13l-.92,7L66,145.75A1.86,1.86,0,1,1,67.81,149l-79.08,48.57-.21.14a4.39,4.39,0,0,1-6-1.61,4.38,4.38,0,0,1,1.61-6l.16-.09,0,0,28.29-15.32,2.87-10.81a1.83,1.83,0,0,1,.86-1.12Zm0,0"/><path class="cls-1" d="M72.84,125.23c-5.5,3.94-9.6,7.26-16.36,9.48C48.9,137.19,47.58,147,53,156.46c4.76,8.24,13.24,10.51,19.68,6.38,12.34-7.92,9.76-5.73,17-9.83ZM89.74,153"/><path class="cls-14" d="M53.93,157.87c4.87,7.08,12.73,8.86,18.79,5,12.34-7.92,9.76-5.73,17-9.82l-3.12-5.13A205.45,205.45,0,0,0,68.5,158.48a12.69,12.69,0,0,1-14.57-.61Zm0,0"/><path class="cls-3" d="M54.82,134.63a10.64,10.64,0,0,0-5.65,8.24c-.63,4.15.46,9.11,3.26,13.95,4.91,8.51,13.9,11,20.68,6.62,12.33-7.91,9.69-5.69,17-9.8a.71.71,0,0,0-.7-1.24c-7.23,4.08-4.69,1.92-17,9.85-6.1,3.91-14.08,1.84-18.68-6.14-2.67-4.62-3.65-9.29-3.09-13s2.6-6.53,6.13-7.69c6.88-2.27,11.07-5.65,16.56-9.58a.71.71,0,1,0-.83-1.15c-5.52,4-9.53,7.19-16.17,9.37a11.71,11.71,0,0,0-1.44.59Zm0,0"/><path class="cls-14" d="M61.54,157.22a2.11,2.11,0,0,1,.77-2.9,2.13,2.13,0,0,1,2.9.78,2.12,2.12,0,0,1-3.67,2.12Zm0,0"/><path class="cls-14" d="M64.05,150.15a.95.95,0,1,1,1.29.35.94.94,0,0,1-1.29-.35Zm0,0"/><path class="cls-14" d="M69.56,155.36a.94.94,0,1,1,1.29.35.94.94,0,0,1-1.29-.35Zm0,0"/><path class="cls-14" d="M54.26,145.64a.95.95,0,1,1,1.3.35.95.95,0,0,1-1.3-.35Zm0,0"/><path class="cls-1" d="M70.06,146.64c-5.46-9.46-3.68-18.17,3.44-21.76,6.56-3.3,14.86-2,19.62,6.28s3.25,18-3.38,21.86-14.92,1.86-19.68-6.38Zm0,0"/><path class="cls-3" d="M71.84,125a12.36,12.36,0,0,0-5.48,8.42c-.69,4,.29,8.71,3.08,13.55,4.92,8.51,13.72,10.65,20.66,6.64s8.55-14.31,3.64-22.82-13.71-10-20.56-6.56a13.37,13.37,0,0,0-1.34.77Zm.78,1.19a10.73,10.73,0,0,1,1.2-.69c6.28-3.16,14.09-2,18.69,6s3.09,17.29-3.12,20.88-14.11,1.86-18.72-6.12c-2.66-4.62-3.53-9-2.91-12.6a10.82,10.82,0,0,1,4.85-7.47Zm0,0"/><path class="cls-9" d="M150.72-.1l29,0h16l0,16c0,7,0,14,0,21A29.09,29.09,0,0,1,150.72-.1Z"/><text class="cls-15" transform="translate(159.77 31.65)"><tspan class="cls-16">5</tspan><tspan x="10.14" y="0">1</tspan></text></svg>