<?xml version="1.0" encoding="utf-8"?>
<!-- Generator: Adobe Illustrator 26.0.3, SVG Export Plug-In . SVG Version: 6.00 Build 0)  -->
<svg version="1.1" id="Слой_1" xmlns="http://www.w3.org/2000/svg" xmlns:xlink="http://www.w3.org/1999/xlink" x="0px" y="0px"
	 viewBox="0 0 195.6 280.6" style="enable-background:new 0 0 195.6 280.6;" xml:space="preserve">
<style type="text/css">
	.st0{clip-path:url(#SVGID_00000119108123832776233700000011559291237577778317_);fill:#FFFFFF;}
	.st1{fill:#1A1A1A;}
	.st2{font-family:'Impact';}
	.st3{font-size:38px;}
	.st4{clip-path:url(#SVGID_00000119108123832776233700000011559291237577778317_);fill:#1A1A1A;}
	.st5{clip-path:url(#SVGID_00000119108123832776233700000011559291237577778317_);fill:#705454;}
	.st6{clip-path:url(#SVGID_00000119108123832776233700000011559291237577778317_);fill:#8B6D69;}
	.st7{clip-path:url(#SVGID_00000119108123832776233700000011559291237577778317_);fill:#4D3A39;}
	.st8{clip-path:url(#SVGID_00000119108123832776233700000011559291237577778317_);fill:#F1B67F;}
	.st9{clip-path:url(#SVGID_00000119108123832776233700000011559291237577778317_);fill:#F7E3B8;}
	.st10{clip-path:url(#SVGID_00000119108123832776233700000011559291237577778317_);fill:#ED6C31;}
	.st11{clip-path:url(#SVGID_00000119108123832776233700000011559291237577778317_);fill:#F5C45B;}
	.st12{clip-path:url(#SVGID_00000119108123832776233700000011559291237577778317_);fill:#FFEA8A;}
	.st13{clip-path:url(#SVGID_00000119108123832776233700000011559291237577778317_);fill:#D58D5A;}
	.st14{clip-path:url(#SVGID_00000119108123832776233700000011559291237577778317_);fill:#B66341;}
	.st15{clip-path:url(#SVGID_00000119108123832776233700000011559291237577778317_);fill:#AFDCE0;}
	.st16{font-size:20px;}
</style>
<g>
	<defs>
		<rect id="SVGID_1_" x="0" y="0" width="195.6" height="280.6"/>
	</defs>
	<clipPath id="SVGID_00000165952310460039633500000002162162864407467684_">
		<use xlink:href="#SVGID_1_"  style="overflow:visible;"/>
	</clipPath>
	
		<rect x="-282.6" y="-1.1" style="clip-path:url(#SVGID_00000165952310460039633500000002162162864407467684_);fill:#FFFFFF;" width="493.6" height="290.5"/>
	<text transform="matrix(1 0 0 1 68.4 49.16)" class="st1 st2 st3">Noc</text>
	<text transform="matrix(1 0 0 1 44.3 85.16)" class="st1 st2 st3">Kupały</text>
	<path style="clip-path:url(#SVGID_00000165952310460039633500000002162162864407467684_);fill:#1A1A1A;" d="M115.5,208.3
		c1.6,1.7,1.6,4.3,0,6l-52.3,52.3c-1.7,1.6-4.3,1.6-6,0l-18.1-18c-1.6-1.7-1.6-4.3,0-6l52.3-52.3c1.7-1.6,4.3-1.6,6,0L115.5,208.3z
		 M106.5,211.3l-12-12l-46.3,46.2l12,12L106.5,211.3z"/>
	<path style="clip-path:url(#SVGID_00000165952310460039633500000002162162864407467684_);fill:#1A1A1A;" d="M63.2,242.5
		c6.6,6.6,6.6,17.4,0,24s-17.4,6.6-24,0c-6.6-6.6-6.6-17.4,0-24C45.8,235.9,56.6,235.9,63.2,242.5z M57.2,248.5
		c-3.3-3.3-8.7-3.3-12,0s-3.3,8.7,0,12c3.3,3.3,8.7,3.3,12,0c0,0,0,0,0,0C60.5,257.2,60.6,251.9,57.2,248.5
		C57.3,248.5,57.2,248.5,57.2,248.5L57.2,248.5z"/>
	<path style="clip-path:url(#SVGID_00000165952310460039633500000002162162864407467684_);fill:#705454;" d="M112.5,211.3l-18-18.1
		l-52.3,52.3l18,18L112.5,211.3z"/>
	<path style="clip-path:url(#SVGID_00000165952310460039633500000002162162864407467684_);fill:#8B6D69;" d="M108.5,207.3
		l-52.3,52.3l-4.5-4.5l52.2-52.3L108.5,207.3z"/>
	<path style="clip-path:url(#SVGID_00000165952310460039633500000002162162864407467684_);fill:#4D3A39;" d="M98.9,197.8L46.7,250
		l-4.5-4.5l52.2-52.3L98.9,197.8z"/>
	<path style="clip-path:url(#SVGID_00000165952310460039633500000002162162864407467684_);fill:#1A1A1A;" d="M114.5,211.3l-1,1
		l-53.3,53.3l-20-20.1l54.3-54.3L114.5,211.3z M110.5,211.3l-16-16l-50.3,50.2l16,16L110.5,211.3z"/>
	<path style="clip-path:url(#SVGID_00000165952310460039633500000002162162864407467684_);fill:#F1B67F;" d="M42.2,245.5
		c-5,5-5,13.1,0,18c5,5,13.1,5,18,0c5-5,5-13.1,0-18c-2.4-2.4-5.6-3.7-9-3.7C47.8,241.8,44.6,243.1,42.2,245.5z"/>
	<path style="clip-path:url(#SVGID_00000165952310460039633500000002162162864407467684_);fill:#1A1A1A;" d="M61.2,244.5
		c5.5,5.5,5.5,14.5,0,20.1c-5.5,5.5-14.5,5.5-20.1,0c-5.5-5.5-5.5-14.5,0-20.1c0,0,0,0,0,0C46.7,239,55.7,239,61.2,244.5z
		 M59.2,246.5c-4.4-4.4-11.6-4.5-16,0s-4.5,11.6,0,16s11.6,4.5,16,0c0,0,0,0,0,0C63.6,258.1,63.6,250.9,59.2,246.5L59.2,246.5z"/>
	<path style="clip-path:url(#SVGID_00000165952310460039633500000002162162864407467684_);fill:#F7E3B8;" d="M57.4,248.3
		c3.4,3.4,3.4,9,0,12.5s-9,3.4-12.5,0c-3.4-3.4-3.4-9,0-12.5c0,0,0,0,0,0C48.4,244.8,54,244.8,57.4,248.3z M56.4,249.3
		c-2.9-2.9-7.6-2.9-10.5,0s-2.9,7.6,0,10.5s7.6,2.9,10.5,0c0,0,0,0,0,0C59.3,256.9,59.3,252.2,56.4,249.3
		C56.4,249.3,56.4,249.3,56.4,249.3L56.4,249.3z"/>
	<path style="clip-path:url(#SVGID_00000165952310460039633500000002162162864407467684_);fill:#F7E3B8;" d="M55,252.7
		c1.6,1.6,1.6,4.1,0,5.7c-1.6,1.6-4.1,1.6-5.7,0s-1.6-4.1,0-5.7c0,0,0,0,0,0C50.9,251.1,53.4,251.1,55,252.7z M54,253.7
		c-1-1-2.6-1-3.6,0s-1,2.6,0,3.6c1,1,2.6,1,3.6,0c0,0,0,0,0,0C55,256.3,55,254.7,54,253.7C54,253.7,54,253.7,54,253.7L54,253.7z"/>
	<path style="clip-path:url(#SVGID_00000165952310460039633500000002162162864407467684_);fill:#1A1A1A;" d="M87,208.3
		c-1.6,1.7-1.6,4.3,0,6l52.3,52.3c1.7,1.6,4.3,1.6,6,0l18-18.1c1.6-1.7,1.6-4.3,0-6L111,190.2c-1.7-1.6-4.3-1.6-6,0L87,208.3z
		 M96,211.3l12-12l46.2,46.2l-12,12L96,211.3z"/>
	<path style="clip-path:url(#SVGID_00000165952310460039633500000002162162864407467684_);fill:#1A1A1A;" d="M139.2,242.5
		c-6.6,6.6-6.6,17.4,0,24c6.6,6.6,17.4,6.6,24,0c6.6-6.6,6.6-17.4,0-24C156.6,235.9,145.9,235.9,139.2,242.5z M145.2,248.5
		c3.3-3.3,8.7-3.3,12,0s3.3,8.7,0,12s-8.7,3.3-12,0c0,0,0,0,0,0C141.9,257.2,141.9,251.9,145.2,248.5
		C145.2,248.5,145.2,248.5,145.2,248.5L145.2,248.5z"/>
	<path style="clip-path:url(#SVGID_00000165952310460039633500000002162162864407467684_);fill:#705454;" d="M90,211.3l18-18.1
		l52.3,52.3l-18.1,18L90,211.3z"/>
	<path style="clip-path:url(#SVGID_00000165952310460039633500000002162162864407467684_);fill:#8B6D69;" d="M93.9,207.3l52.3,52.3
		l4.5-4.5l-52.2-52.3L93.9,207.3z"/>
	<path style="clip-path:url(#SVGID_00000165952310460039633500000002162162864407467684_);fill:#4D3A39;" d="M103.5,197.8l52.2,52.2
		l4.5-4.5L108,193.2L103.5,197.8z"/>
	<path style="clip-path:url(#SVGID_00000165952310460039633500000002162162864407467684_);fill:#1A1A1A;" d="M88,211.3l1,1
		l53.3,53.3l20.1-20.1L108,191.2L88,211.3z M92,211.3l16-16l50.2,50.2l-16,16L92,211.3z"/>
	<path style="clip-path:url(#SVGID_00000165952310460039633500000002162162864407467684_);fill:#F1B67F;" d="M160.3,245.5
		c5,5,5,13.1,0,18s-13.1,5-18,0c-5-5-5-13.1,0-18C147.2,240.5,155.3,240.5,160.3,245.5C160.3,245.5,160.3,245.5,160.3,245.5z"/>
	<path style="clip-path:url(#SVGID_00000165952310460039633500000002162162864407467684_);fill:#1A1A1A;" d="M141.2,244.5
		c-5.5,5.5-5.5,14.5,0,20.1c5.5,5.5,14.5,5.5,20.1,0s5.5-14.5,0-20.1c0,0,0,0,0,0C155.7,239,146.8,239,141.2,244.5z M143.2,246.5
		c4.4-4.4,11.6-4.5,16,0s4.5,11.6,0,16s-11.6,4.5-16,0c0,0,0,0,0,0C138.8,258.1,138.8,250.9,143.2,246.5
		C143.2,246.5,143.2,246.5,143.2,246.5L143.2,246.5z"/>
	<path style="clip-path:url(#SVGID_00000165952310460039633500000002162162864407467684_);fill:#F7E3B8;" d="M145,248.3
		c-3.4,3.4-3.4,9,0,12.5s9,3.4,12.5,0c3.4-3.4,3.4-9,0-12.5c0,0,0,0,0,0C154,244.8,148.4,244.8,145,248.3z M146,249.3
		c2.9-2.9,7.6-2.9,10.5,0s2.9,7.6,0,10.5c-2.9,2.9-7.6,2.9-10.4,0C143.1,256.9,143.1,252.2,146,249.3C146,249.3,146,249.3,146,249.3
		L146,249.3z"/>
	<path style="clip-path:url(#SVGID_00000165952310460039633500000002162162864407467684_);fill:#F7E3B8;" d="M147.4,252.7
		c-1.6,1.6-1.6,4.1,0,5.7c1.6,1.6,4.1,1.6,5.7,0s1.6-4.1,0-5.7c0,0,0,0,0,0C151.5,251.1,149,251.1,147.4,252.7z M148.4,253.7
		c1-1,2.6-1,3.6,0s1,2.6,0,3.6c-1,1-2.6,1-3.6,0c0,0,0,0,0,0C147.4,256.3,147.4,254.7,148.4,253.7
		C148.4,253.7,148.4,253.7,148.4,253.7L148.4,253.7z"/>
	<path style="clip-path:url(#SVGID_00000165952310460039633500000002162162864407467684_);fill:#1A1A1A;" d="M88.5,195.8
		c-2.3,0-4.2,1.9-4.3,4.2v73.9c0,2.4,1.9,4.3,4.3,4.3h0H114c2.4,0,4.3-1.9,4.3-4.3l0,0V200c0-2.4-1.9-4.3-4.3-4.3L88.5,195.8z
		 M92.7,204.3h17v65.4h-17V204.3z"/>
	<path style="clip-path:url(#SVGID_00000165952310460039633500000002162162864407467684_);fill:#1A1A1A;" d="M101.2,256.9
		c-9.4,0-17,7.6-17,17s7.6,17,17,17s17-7.6,17-17l0,0C118.2,264.5,110.6,257,101.2,256.9z M101.2,265.4c4.7,0,8.5,3.8,8.5,8.5
		s-3.8,8.5-8.5,8.5s-8.5-3.8-8.5-8.5c0-4.7,3.7-8.5,8.4-8.5C101.1,265.4,101.2,265.4,101.2,265.4z"/>
	
		<rect x="88.5" y="200" style="clip-path:url(#SVGID_00000165952310460039633500000002162162864407467684_);fill:#705454;" width="25.5" height="73.9"/>
	
		<rect x="94" y="200" style="clip-path:url(#SVGID_00000165952310460039633500000002162162864407467684_);fill:#8B6D69;" width="6.4" height="73.9"/>
	
		<rect x="107.6" y="200" style="clip-path:url(#SVGID_00000165952310460039633500000002162162864407467684_);fill:#4D3A39;" width="6.4" height="73.9"/>
	<path style="clip-path:url(#SVGID_00000165952310460039633500000002162162864407467684_);fill:#1A1A1A;" d="M87,198.6v76.7h28.4
		v-76.7H87z M89.8,201.5h22.7v71.1H89.9L89.8,201.5z"/>
	<path style="clip-path:url(#SVGID_00000165952310460039633500000002162162864407467684_);fill:#F1B67F;" d="M114,273.9
		c0,7-5.7,12.8-12.8,12.8c-7,0-12.8-5.7-12.8-12.8c0-7,5.7-12.8,12.8-12.8c7,0,12.7,5.6,12.8,12.7C114,273.9,114,273.9,114,273.9z"
		/>
	<path style="clip-path:url(#SVGID_00000165952310460039633500000002162162864407467684_);fill:#1A1A1A;" d="M101.2,259.8
		c-7.8,0-14.2,6.3-14.2,14.2s6.3,14.2,14.2,14.2s14.2-6.3,14.2-14.2l0,0C115.4,266.1,109,259.8,101.2,259.8z M101.2,262.6
		c6.3,0,11.3,5.1,11.3,11.3s-5.1,11.3-11.3,11.3s-11.3-5.1-11.3-11.3l0,0C89.9,267.7,94.9,262.6,101.2,262.6
		C101.2,262.6,101.2,262.6,101.2,262.6z"/>
	<path style="clip-path:url(#SVGID_00000165952310460039633500000002162162864407467684_);fill:#F7E3B8;" d="M101.2,265.1
		c-4.9,0-8.8,3.9-8.8,8.8c0,4.9,3.9,8.8,8.8,8.8c4.9,0,8.8-3.9,8.8-8.8c0,0,0,0,0,0C110,269.1,106.1,265.1,101.2,265.1z
		 M101.2,266.6c4.1,0,7.4,3.3,7.4,7.4c0,4.1-3.3,7.4-7.4,7.4c-4.1,0-7.4-3.3-7.4-7.4c0,0,0,0,0,0C93.8,269.9,97.1,266.6,101.2,266.6
		C101.2,266.6,101.2,266.6,101.2,266.6z"/>
	<path style="clip-path:url(#SVGID_00000165952310460039633500000002162162864407467684_);fill:#F7E3B8;" d="M99.8,270
		c-2.2,0-4,1.8-4,4s1.8,4,4,4s4-1.8,4-4S102,270,99.8,270z M99.8,271.4c1.4,0,2.6,1.1,2.6,2.6s-1.1,2.6-2.6,2.6
		c-1.4,0-2.6-1.1-2.6-2.6c0,0,0,0,0,0C97.3,272.6,98.4,271.4,99.8,271.4C99.8,271.4,99.8,271.4,99.8,271.4z"/>
	<path style="clip-path:url(#SVGID_00000165952310460039633500000002162162864407467684_);fill:#1A1A1A;" d="M95.6,95.9
		c-0.5,0-1.1,0-1.6,0.1c-2.3,0.1-4.5,1.3-6,3.1c-1.3,1.8-1.8,4-1.6,6.2c0.2,2.1,0.7,4.2,1.4,6.2c2.1,6.2,1.6,10.4,0.3,13.3
		c-1.2,2.6-3.3,4.5-6,5.4c-1.6,0.6-3.3,0.5-4.8-0.2c-0.6-0.4-1.2-0.9,0.2-4.4c0.9-1.8,1.2-3.8,0.8-5.7c-0.5-2-2-3.7-3.9-4.5
		c-3.4-1.3-6-0.3-8.4,0.9c-8,3.9-13.3,9.6-16,16s-3,13.2-2.2,19.9c1.7,13.2,7.9,25.8,10.9,32.9c0.9,2.2,0.7,3.3,0.4,3.9
		c-0.3,0.6-0.9,1.1-1.5,1.2c-1.5,0.4-3.6,0.3-4.3-4.1c-0.8-4.6-4.8-8.1-9.1-7.9s-8.1,4.2-8.8,9.3c-2.3,16,4.7,29.6,16.1,38.8
		s27,14.3,43.1,15.4s32.9-2.1,46.5-10.4c14.7-8.8,24.5-23.9,26.6-40.9c0.6-4.5-1.1-9.1-5.5-10.6c-2.3-0.7-4.8-0.4-6.8,1
		c-2,1.5-3.5,3.5-4.3,5.8c-1.1,2.7-2.4,3.8-3.2,4.2c-0.6,0.3-1.2,0.3-1.8,0c-1-0.5-2.3-1.6,0.3-5c3.8-4.9,6.6-10.6,8.3-16.6
		c2.5-8.8,1.3-18.2-3.3-26.2c-2.2-3.8-5.5-6.5-9.7-6.4c-2.3,0.1-4.4,1.2-5.8,3c-1.3,1.9-2,4.2-1.8,6.5c0.1,8.4-3.9,10.3-6.7,10.6
		c-0.9,0.1-1.9-0.1-2.6-0.7c-0.2-0.3-0.6-0.5,0.3-2.5c6-12.2,7-24.6,2.7-34.9S114,100.1,101,96.8C99.3,96.3,97.5,96,95.6,95.9
		L95.6,95.9z M94.9,104.5c1.4,0,2.7,0.2,4,0.6c10.9,2.8,17.7,8.8,20.8,16.5s2.7,17.5-2.5,28c-2,4.1-1.7,8.7,0.7,11.7
		c2.5,2.8,6.1,4.2,9.8,3.8c7.3-0.5,14.8-7.5,14.6-19.2c0-0.1,0-0.2,0-0.4c0.6,0.4,1.1,1,1.4,1.6c3.5,6,4.4,13.1,2.4,19.7
		c-1.4,4.9-3.7,9.6-6.8,13.6c-4.9,6.4-3.1,14.7,2.4,17.7c3,1.5,6.5,1.6,9.5,0.2c3.1-1.5,5.7-4.5,7.4-8.6c0.1-0.2,0.1-0.2,0.2-0.4
		c-2.3,16.4-10.8,27.4-22.5,34.6S109.6,234,95,233.1s-28.7-5.8-38.3-13.5s-14.8-17.9-13-31c0.3-2.4,0.8-2,0.7-2s0.1-0.3,0.3,0.8
		c1.4,8.1,8.7,12.4,14.7,10.9c3.2-0.8,5.9-2.9,7.3-5.9c1.4-3.5,1.4-7.4-0.2-10.8c-3.2-7.6-8.8-19.5-10.3-30.7
		c-0.7-5.6-0.4-10.9,1.6-15.4c1.9-4.3,5.1-8.1,11.1-11.3c-1.4,4.8-0.3,9.6,2.9,12.2c3.6,3,8.5,3.2,12.9,1.7
		c4.9-1.6,8.9-5.2,11.1-9.9c2.4-5.1,2.7-11.9,0-19.7c-0.5-1.3-0.8-2.6-1-4L94.9,104.5L94.9,104.5z"/>
	<path style="clip-path:url(#SVGID_00000165952310460039633500000002162162864407467684_);fill:#ED6C31;" d="M142.8,183
		c4.5-5.9,14-21.9,4.7-38.1c-3.2-5.5-9.5-6.1-9.4,1c0.3,20.2-23,17.6-17.1,5.5c11.2-22.7,2.9-44.4-21.1-50.5
		c-9.3-2.4-10.8,1.2-8.1,9.1c9.6,28-25.9,31.8-18.2,13.9c2.3-5.4-2.3-5.5-5.7-3.8c-29.1,14.2-11.4,48.5-5.3,63.3
		c5,12.1-11.4,15.9-13.6,3.4c-1-5.8-8.4-6.3-9.5,1.3c-8,58.6,114.2,72.5,123.8,1.7c0.8-6.1-5.1-9.5-8.4-1.6
		C149.2,201.8,135.3,192.8,142.8,183L142.8,183z"/>
	<path style="clip-path:url(#SVGID_00000165952310460039633500000002162162864407467684_);fill:#F5C45B;" d="M130.8,197.4
		c0.3-5.9-5.2-8.1-7.3-2.8c-3.9,9.7-16,5.9-10.7-5.3c10.1-21.2-37-22.9-9.7-38.6c10.7-6.1,4.3-12.7-6.2-10.7
		c-12.8,2.4-29.9,13.2-18.6,26.9c4.9,5.9,0.1,11.9-6.5,3.7c-2.8-3.5-5.8-1.1-5.4,3.8c0.7,7.4,6.2,10.6,17.8,19
		c9.5,6.9-4.6,15.3-7.5,5.1c-2.6-9.4-10.1-5.4-9.7,3.3C68.6,241,128.5,237.3,130.8,197.4L130.8,197.4z"/>
	<path style="clip-path:url(#SVGID_00000165952310460039633500000002162162864407467684_);fill:#F5C45B;" d="M131.2,183
		c-4.3,1.5-6-1.4-2.5-3.6c4.5-2.8,1.6-4.4,1.6-9.4c-0.1-6.5,9.8-5.5,9.8,1.2C140,176.6,136.4,181.4,131.2,183z"/>
	<path style="clip-path:url(#SVGID_00000165952310460039633500000002162162864407467684_);fill:#F5C45B;" d="M64.1,158.4
		c5.9,0.8,8.9-11.8,2.8-13.3C57,142.6,59.9,157.8,64.1,158.4z"/>
	<path style="clip-path:url(#SVGID_00000165952310460039633500000002162162864407467684_);fill:#F5C45B;" d="M107.7,133.7
		c3.9-2.2,5.6-5.8,3.7-8.2c-2.2-2.7-7.7-2.7-6.1,0.4c1.4,2.7,1.4,3.9-0.1,6C104.3,133.4,105.2,135.1,107.7,133.7L107.7,133.7z"/>
	<path style="clip-path:url(#SVGID_00000165952310460039633500000002162162864407467684_);fill:#FFEA8A;" d="M106.9,207.7
		c-8.2,0.6-5.7-8.6-2.5-14.1c3.4-5.8-1.5-6.3-6.4-2.2c-16.1,13.3-11.7,38,7.4,30.8C115,218.5,116.3,207.1,106.9,207.7L106.9,207.7z"
		/>
	<path style="clip-path:url(#SVGID_00000165952310460039633500000002162162864407467684_);fill:#1A1A1A;" d="M95.5,98.8
		c-0.5,0-0.9,0-1.3,0c-1.5,0.1-3,0.8-4,1.9c-0.8,1.3-1.2,2.8-1,4.3c0.2,1.9,0.6,3.7,1.3,5.4c2.3,6.8,1.9,11.8,0.2,15.4
		c-1.5,3.3-4.3,5.8-7.7,6.9c-3,1-5.9,0.6-7.5-0.7s-2.3-3.5-0.6-7.7c0.6-1.2,0.9-2.6,0.6-4c-0.3-1.1-1.1-2.1-2.2-2.5
		c-2-0.8-4.2-0.2-6.1,0.8c-7.5,3.7-12.2,8.8-14.6,14.5c-2.5,5.7-2.8,12.1-2,18.4c1.6,12.5,7.6,24.9,10.7,32.2c1.1,2.7,1,4.8,0.3,6.2
		c-0.7,1.4-1.9,2.4-3.5,2.8c-3,0.7-6.8-0.8-7.8-6.4c-0.6-3.5-3.3-5.7-6.2-5.5s-5.5,2.6-6.1,6.9c-2,15.2,4.3,27.6,15.1,36.3
		s25.8,13.7,41.5,14.7s31.8-2.1,44.8-10s22.8-20.8,25.2-38.9c0.5-3.5-0.9-6.6-3.6-7.6c-1.4-0.5-3-0.2-4.2,0.7
		c-1.5,1.2-2.7,2.8-3.3,4.6c-1.3,3.2-3,4.9-4.6,5.6c-1.4,0.7-3,0.7-4.4,0c-2.5-1.3-4-4.8-0.6-9.2c3.6-4.7,6.2-10,7.8-15.7
		c2.3-8.1,1.2-16.7-3-24c-1.8-3.1-4.5-5-7.2-4.9c-1.4,0-2.8,0.7-3.6,1.9c-0.9,1.4-1.4,3.1-1.3,4.8c0.2,9.5-5,13.1-9.3,13.4
		c-1.8,0.2-3.7-0.4-5-1.8c-1-1.2-1.3-2.9,0-5.6c5.7-11.6,6.5-23.2,2.7-32.6s-12.4-16.7-24.7-19.9C98.7,99.2,97.2,98.9,95.5,98.8
		L95.5,98.8z M94.4,101.6c1.7,0,3.5,0.2,5.1,0.7c11.6,3,19.3,9.6,22.8,18.2s2.9,19.2-2.6,30.3c-1.7,3.4-1.3,6.6,0.4,8.6
		c1.9,2.1,4.7,3.1,7.4,2.8c5.8-0.4,12.1-5.7,12-16.3c-0.1-1,0.1-2.1,0.7-3c0.3-0.5,0.8-0.7,1.4-0.7c1.2,0,3.3,1.1,4.7,3.5
		c3.8,6.6,4.8,14.5,2.7,21.9c-1.5,5.3-4,10.3-7.3,14.7c-4.1,5.4-2.5,11.3,1.5,13.4c2.2,1.1,4.7,1.2,6.9,0.1c2.4-1.1,4.5-3.4,6-7.1
		c0.5-1.3,1.3-2.5,2.3-3.3c0.5-0.4,1.1-0.5,1.6-0.3c0.9,0.3,2.1,2,1.7,4.5c-2.4,17.3-11.5,29.3-23.9,36.8s-28,10.6-43.2,9.6
		s-29.7-5.9-39.9-14.1s-16-19.5-14.1-33.6c0.5-3.3,2-4.4,3.4-4.4s2.9,0.9,3.3,3.2c1.2,6.9,6.7,9.7,11.3,8.6c2.4-0.5,4.3-2.1,5.4-4.3
		c1.1-2.3,1.1-5.2-0.3-8.5c-3.1-7.4-9-19.6-10.5-31.4c-0.8-5.9-0.4-11.8,1.8-16.9s6.3-9.7,13.3-13.1c1.2-0.6,2.6-0.9,3.9-0.7
		c0.3,0.1,0.3,0.1,0.4,0.4c0,0.8-0.1,1.6-0.5,2.3c-2.1,4.8-1.3,8.8,1.4,11s6.5,2.4,10.2,1.2c4.1-1.4,7.5-4.4,9.3-8.4
		c2-4.4,2.4-10.3-0.1-17.6c-0.6-1.5-1-3.1-1.1-4.7c-0.1-0.8,0-1.7,0.4-2.4C93,101.9,93.7,101.6,94.4,101.6L94.4,101.6z"/>
	<path style="clip-path:url(#SVGID_00000165952310460039633500000002162162864407467684_);fill:#1A1A1A;" d="M185.7,157.8
		c-3.6-2-8.2-0.8-10.3,2.8c-0.2,0.4-0.4,0.8-0.6,1.3l-38.9-21c-3.6-2.1-8.2-0.8-10.3,2.8c-2.1,3.6-0.8,8.2,2.8,10.3l79.2,48.6h0.1
		c-0.4-0.2-0.4-0.2,0.2,0.1c4.8,2.8,11,1.1,13.8-3.7c2.8-4.8,1.1-11-3.7-13.8l0,0c-0.3-0.2-0.6-0.3-0.9-0.4l0.5,0.2l-26.1-14.1
		l-2.2-8.4C188.7,160.4,187.4,158.8,185.7,157.8L185.7,157.8z M213,193.8c0.1,0,0.1,0.1,0,0.2s-0.1,0.1-0.2,0
		c0.4,0.2,0.4,0.2-0.2-0.1l0.1,0.1l-4-2.5L213,193.8z"/>
	<path style="clip-path:url(#SVGID_00000165952310460039633500000002162162864407467684_);fill:#1A1A1A;" d="M127.9,120.4
		c-9.5-4.7-21-1.1-26.2,8.2c-5.8,10.1-4.3,23.1,5.2,28.6c8.8,5.1,20.6,1.9,26.5-8.2c3.2-5.5,4.5-11.2,3.6-16.4
		C136.1,127.4,132.7,122.9,127.9,120.4L127.9,120.4z M123.4,129.3c2.1,0.9,3.5,2.8,3.8,5.1c0.4,2.4-0.1,5.8-2.4,9.8
		c-3.7,6.4-8.5,7.1-12.9,4.6c-3.7-2.1-5.2-8.7-1.6-15.1S118.8,127,123.4,129.3z"/>
	<path style="clip-path:url(#SVGID_00000165952310460039633500000002162162864407467684_);fill:#1A1A1A;" d="M146.2,130.8
		c-0.6-0.3-1.3-0.6-2-0.8c-5.9-1.9-9.4-4.8-15-8.8c-2.2-1.6-5.3-1.1-6.9,1.2c-0.8,1.1-1.1,2.4-0.9,3.7c0.2,1.3,0.9,2.5,2,3.2
		c5.4,3.9,10.1,7.7,17.7,10.1c2,0.7,2.9,1.8,3.2,4.3s-0.3,6.3-2.6,10.3c-3.7,6.4-8.6,7.3-12.7,4.7c-12.4-8-10.2-6-17.3-10
		c-2.2-1.6-5.4-1.1-7,1.2c-1.6,2.2-1.1,5.4,1.2,7c0.3,0.2,0.6,0.4,0.9,0.5c7.5,4.2,4.5,1.8,16.8,9.7c8.8,5.6,20.8,2,26.7-8.1
		c3.2-5.5,4.6-11.3,3.8-16.7C153.5,137.3,150.5,133.1,146.2,130.8L146.2,130.8z"/>
	<path style="clip-path:url(#SVGID_00000165952310460039633500000002162162864407467684_);fill:#D58D5A;" d="M210.1,198.1l0.2,0.1
		c2.4,1.4,5.6,0.6,7-1.9s0.6-5.6-1.9-7l-0.3-0.1l-28-15.2l-2.8-10.5c-0.2-0.7-0.6-1.2-1.2-1.6c-1.2-0.7-2.8-0.3-3.5,0.9
		c-0.3,0.5-0.4,1-0.3,1.5c0,0,0,0.1,0,0.1l0.7,5.6l-46.5-25.2c-1.2-0.7-2.8-0.2-3.5,1c-0.7,1.2-0.3,2.7,0.9,3.4L210.1,198.1z"/>
	<path style="clip-path:url(#SVGID_00000165952310460039633500000002162162864407467684_);fill:#B66341;" d="M217.3,196.4
		c-1.4,2.4-4.5,3.3-7,1.9c0,0,0,0,0,0l-0.2-0.1L131,149.6c-1.2-0.7-1.6-2.3-0.9-3.5c0.2-0.4,0.5-0.7,0.9-0.9c0,0.9,0.5,1.8,1.3,2.2
		l79.6,47.6c0.1,0,0.1,0.1,0.2,0.1c1.9,1,4.2,0.8,5.8-0.5C217.8,195.2,217.6,195.8,217.3,196.4L217.3,196.4z"/>
	<path style="clip-path:url(#SVGID_00000165952310460039633500000002162162864407467684_);fill:#1A1A1A;" d="M183.5,161.5
		c-1.6-0.9-3.6-0.4-4.5,1.2c-0.3,0.6-0.5,1.3-0.4,2c0,0.1,0,0.1,0,0.2l0.6,4.2l-45.3-24.5c-1.6-0.8-3.6-0.2-4.4,1.4
		c-0.8,1.5-0.3,3.4,1.2,4.3l79.1,48.6l0,0c0.1,0.1,0.1,0.1,0.2,0.1c2.8,1.6,6.3,0.6,7.9-2.2c1.6-2.8,0.6-6.3-2.1-7.9
		c-0.1-0.1-0.2-0.1-0.4-0.2h0.1l-27.7-15l-2.7-10.2C184.8,162.6,184.2,161.9,183.5,161.5L183.5,161.5z M182.8,162.7
		c0.4,0.2,0.7,0.6,0.9,1.1l2.9,10.8l28.3,15.3l0,0l0.2,0.1c2.1,1.2,2.8,3.9,1.5,6c-1.2,2-3.8,2.7-5.9,1.6l-0.2-0.1l-79-48.5
		c-0.9-0.5-1.2-1.6-0.7-2.5c0.5-0.9,1.6-1.2,2.5-0.7c0,0,0.1,0,0.1,0.1l47.8,25.8l-0.9-7c0,0,0-0.1,0-0.1c0-0.4,0-0.8,0.2-1.1
		C180.8,162.5,182,162.2,182.8,162.7L182.8,162.7z"/>
	<path style="clip-path:url(#SVGID_00000165952310460039633500000002162162864407467684_);fill:#FFFFFF;" d="M109.4,153
		c7.3,4.1,4.7,1.9,17,9.8c6.4,4.1,14.9,1.9,19.7-6.4c5.5-9.5,4.1-19.3-3.4-21.8c-6.8-2.2-10.9-5.5-16.4-9.5L109.4,153z"/>
	<path style="clip-path:url(#SVGID_00000165952310460039633500000002162162864407467684_);fill:#AFDCE0;" d="M145.2,157.9
		c-4.2,3.3-10.1,3.5-14.6,0.6c-5.9-3.8-11.9-7.4-18.1-10.6l-3.1,5.1c7.3,4.1,4.7,1.9,17,9.8C132.4,166.7,140.3,164.9,145.2,157.9
		L145.2,157.9z"/>
	<path style="clip-path:url(#SVGID_00000165952310460039633500000002162162864407467684_);fill:#1A1A1A;" d="M144.4,134.6
		c-0.5-0.2-0.9-0.4-1.4-0.6c-6.6-2.2-10.6-5.4-16.2-9.4c-0.3-0.2-0.8-0.2-1,0.2c0,0,0,0,0,0c-0.2,0.3-0.2,0.8,0.2,1
		c5.5,3.9,9.7,7.3,16.6,9.6c3.5,1.2,5.6,4,6.1,7.7s-0.4,8.4-3.1,13c-4.6,8-12.6,10-18.7,6.1c-12.3-7.9-9.8-5.8-17-9.9
		c-0.3-0.2-0.8-0.1-1,0.3s-0.1,0.8,0.3,1c7.3,4.1,4.7,1.9,17,9.8c6.8,4.4,15.8,1.9,20.7-6.6c2.8-4.8,3.9-9.8,3.2-13.9
		C149.6,139.3,147.5,136.2,144.4,134.6L144.4,134.6z"/>
	<path style="clip-path:url(#SVGID_00000165952310460039633500000002162162864407467684_);fill:#AFDCE0;" d="M137.6,157.2
		c-0.6,1-1.9,1.4-2.9,0.8c-0.5-0.3-0.8-0.7-1-1.3c-0.3-1.1,0.4-2.3,1.5-2.6s2.3,0.4,2.6,1.5C138,156.2,137.9,156.7,137.6,157.2z"/>
	<path style="clip-path:url(#SVGID_00000165952310460039633500000002162162864407467684_);fill:#AFDCE0;" d="M135.1,150.1
		c-0.3,0.4-0.8,0.6-1.3,0.3s-0.6-0.8-0.3-1.3c0.3-0.4,0.8-0.6,1.3-0.3C135.2,149.1,135.4,149.7,135.1,150.1
		C135.1,150.1,135.1,150.1,135.1,150.1z"/>
	<path style="clip-path:url(#SVGID_00000165952310460039633500000002162162864407467684_);fill:#AFDCE0;" d="M129.6,155.4
		c-0.3,0.5-0.8,0.6-1.3,0.4c-0.5-0.3-0.6-0.8-0.4-1.3s0.8-0.6,1.3-0.4c0,0,0,0,0,0C129.7,154.3,129.9,154.9,129.6,155.4
		C129.6,155.4,129.6,155.4,129.6,155.4z"/>
	<path style="clip-path:url(#SVGID_00000165952310460039633500000002162162864407467684_);fill:#AFDCE0;" d="M144.9,145.6
		c-0.3,0.5-0.8,0.6-1.3,0.4s-0.6-0.8-0.4-1.3s0.8-0.6,1.3-0.4c0,0,0,0,0,0C145,144.6,145.2,145.2,144.9,145.6
		C144.9,145.6,144.9,145.6,144.9,145.6z"/>
	<path style="clip-path:url(#SVGID_00000165952310460039633500000002162162864407467684_);fill:#FFFFFF;" d="M129.1,146.6
		c-4.8,8.2-13,10.2-19.7,6.4s-8.1-13.6-3.4-21.9s13.1-9.6,19.6-6.3C132.8,128.5,134.6,137.2,129.1,146.6z"/>
	<path style="clip-path:url(#SVGID_00000165952310460039633500000002162162864407467684_);fill:#1A1A1A;" d="M127.3,125
		c-0.4-0.3-0.9-0.5-1.3-0.8c-6.8-3.4-15.6-2-20.5,6.6s-3.4,18.8,3.6,22.8s15.7,1.9,20.6-6.6c2.8-4.8,3.8-9.5,3.1-13.6
		C132.2,130,130.3,126.9,127.3,125L127.3,125z M126.6,126.2c2.6,1.7,4.4,4.4,4.9,7.5c0.6,3.6-0.2,8-2.9,12.6
		c-4.6,8-12.4,9.8-18.7,6.1s-7.7-12.9-3.1-20.9s12.4-9.2,18.7-6C125.8,125.7,126.2,125.9,126.6,126.2z"/>
	<path style="clip-path:url(#SVGID_00000165952310460039633500000002162162864407467684_);fill:#ED6C31;" d="M45-0.1H16H0.1v16
		c0,7,0,14,0,21c10.3,12.3,28.7,14,41,3.7c6.7-5.5,10.5-13.8,10.5-22.4C51.5,11.5,49.2,5.1,45-0.1z"/>
	<text transform="matrix(1 0 0 1 15.65 31.65)" class="st1 st2 st16">5</text>
	<text transform="matrix(1 0 0 1 25.79 31.65)" class="st1 st2 st16">1</text>
</g>
</svg>
