<?xml version="1.0" encoding="utf-8"?>
<!-- Generator: Adobe Illustrator 26.0.3, SVG Export Plug-In . SVG Version: 6.00 Build 0)  -->
<svg version="1.1" id="Слой_1" xmlns="http://www.w3.org/2000/svg" xmlns:xlink="http://www.w3.org/1999/xlink" x="0px" y="0px"
	 viewBox="0 0 195.6 280.6" style="enable-background:new 0 0 195.6 280.6;" xml:space="preserve">
<style type="text/css">
	.st0{clip-path:url(#SVGID_00000075128638615722891980000009588995142045221520_);fill:#F18B9E;}
	.st1{fill:#FFFFFF;}
	.st2{font-family:'Impact';}
	.st3{font-size:36px;}
	.st4{clip-path:url(#SVGID_00000075128638615722891980000009588995142045221520_);fill:#EB5E85;}
	.st5{clip-path:url(#SVGID_00000075128638615722891980000009588995142045221520_);fill:#1A1A1A;}
	.st6{clip-path:url(#SVGID_00000075128638615722891980000009588995142045221520_);fill:#E83471;}
	.st7{clip-path:url(#SVGID_00000075128638615722891980000009588995142045221520_);fill:#EC6287;}
	.st8{clip-path:url(#SVGID_00000075128638615722891980000009588995142045221520_);fill:#FFFFFF;}
	.st9{clip-path:url(#SVGID_00000075128638615722891980000009588995142045221520_);fill:#EB5775;}
	.st10{clip-path:url(#SVGID_00000075128638615722891980000009588995142045221520_);fill:#F293A2;}
	.st11{fill:#1A1A1A;}
	.st12{font-size:20px;}
</style>
<g>
	<defs>
		<rect id="SVGID_1_" x="0" y="0" width="195.6" height="280.6"/>
	</defs>
	<clipPath id="SVGID_00000166643820190860343580000005268541961354750649_">
		<use xlink:href="#SVGID_1_"  style="overflow:visible;"/>
	</clipPath>
	
		<rect x="-282.6" y="-1.1" style="clip-path:url(#SVGID_00000166643820190860343580000005268541961354750649_);fill:#F18B9E;" width="493.6" height="290.5"/>
	<text transform="matrix(1 0 0 1 13.71 245.85)" class="st1 st2 st3">Walen</text>
	<text transform="matrix(1 0 0 1 108.26 245.85)" class="st1 st2 st3">t</text>
	<text transform="matrix(1 0 0 1 119.95 245.85)" class="st1 st2 st3">ynki</text>
	<path style="clip-path:url(#SVGID_00000166643820190860343580000005268541961354750649_);fill:#EB5E85;" d="M81.8,170.8
		c1.8,13.5-0.2,33.2-5.7,33.9S63.6,187,61.8,173.5s3.8-16.9,7.9-17.5S80.1,157.4,81.8,170.8L81.8,170.8z"/>
	<path style="clip-path:url(#SVGID_00000166643820190860343580000005268541961354750649_);fill:#1A1A1A;" d="M69.3,153.2
		c-3.3,0.4-6.3,2.3-8.2,5.2c-2.2,3.4-3.2,8.3-2.2,15.5c1.1,7.5,3.1,14.8,6,21.7c1.2,2.9,2.7,5.7,4.6,8.3c1.7,2.2,3.9,4.1,6.9,3.7
		s4.6-2.9,5.7-5.4c1.2-3,2-6,2.3-9.2c1-7.5,1.1-15,0.1-22.5c-0.9-7.1-3.1-11.7-6.1-14.4C76.1,153.8,72.7,152.7,69.3,153.2
		L69.3,153.2z M70.1,158.8c1.7-0.3,3.4,0.3,4.7,1.5c1.6,1.5,3.5,4.6,4.3,10.9c0.8,7,0.8,14-0.1,21c-0.3,2.6-1,5.2-1.9,7.7
		c-0.3,0.7-0.7,1.4-1.3,2c-0.7-0.4-1.3-1-1.7-1.6c-1.6-2.2-2.9-4.5-3.9-7c-2.7-6.5-4.6-13.3-5.6-20.2c-0.8-6.3,0.1-9.8,1.3-11.7
		C66.8,159.9,68.3,158.9,70.1,158.8L70.1,158.8z"/>
	<path style="clip-path:url(#SVGID_00000166643820190860343580000005268541961354750649_);fill:#EB5E85;" d="M133.5,172.1
		c0,13.6-4.5,32.9-10.1,32.9s-10.1-19.3-10.1-32.9s6-16.3,10.1-16.3S133.5,158.5,133.5,172.1z"/>
	<path style="clip-path:url(#SVGID_00000166643820190860343580000005268541961354750649_);fill:#1A1A1A;" d="M123.4,153
		c-3.4,0-6.6,1.5-8.8,4.1c-2.6,3.1-4.2,7.9-4.2,15.1c0.1,7.5,1.1,15,3.1,22.3c0.8,3.1,2,6,3.5,8.8c1.4,2.4,3.3,4.6,6.4,4.6
		s4.9-2.2,6.4-4.6c1.6-2.8,2.7-5.7,3.5-8.8c2-7.3,3-14.8,3.1-22.3c0-7.2-1.6-12-4.2-15.1C130,154.5,126.8,153,123.4,153z
		 M123.4,158.6c1.7-0.1,3.4,0.7,4.5,2.1c1.4,1.7,2.8,5,2.8,11.4c-0.1,7-1,14-2.9,20.8c-0.7,2.6-1.7,5.1-2.9,7.4
		c-0.4,0.7-0.9,1.3-1.5,1.8c-0.6-0.5-1.1-1.1-1.5-1.8c-1.3-2.4-2.2-4.9-2.9-7.4c-1.8-6.8-2.8-13.8-2.9-20.8c0-6.4,1.4-9.7,2.8-11.4
		C120,159.4,121.7,158.6,123.4,158.6z"/>
	<path style="clip-path:url(#SVGID_00000166643820190860343580000005268541961354750649_);fill:#EB5E85;" d="M31.6,111.1
		c-10.8,8.3-28.9,16.4-32.3,12S8.5,103.3,19.3,95s16.6-5.2,19.1-1.9S42.4,102.8,31.6,111.1z"/>
	<path style="clip-path:url(#SVGID_00000166643820190860343580000005268541961354750649_);fill:#1A1A1A;" d="M40.6,91.4
		c-2.1-2.7-5.2-4.3-8.6-4.5c-4-0.2-8.8,1.5-14.5,5.9c-5.9,4.6-11.3,10-15.8,16c-2,2.5-3.6,5.3-4.8,8.2c-1,2.6-1.6,5.5,0.2,7.9
		s4.8,2.6,7.5,2.2c3.1-0.5,6.2-1.3,9.1-2.6c7-2.9,13.5-6.6,19.6-11.1c5.7-4.4,8.6-8.6,9.4-12.5C43.5,97.6,42.7,94.1,40.6,91.4
		L40.6,91.4z M36.1,94.9c1.1,1.3,1.5,3.1,1.1,4.8c-0.5,2.2-2.3,5.3-7.3,9.2c-5.6,4.2-11.7,7.7-18.2,10.4c-2.5,1-5,1.8-7.7,2.2
		c-0.8,0.1-1.6,0.1-2.3-0.1c0-0.8,0.2-1.6,0.5-2.3c1.1-2.4,2.5-4.7,4.1-6.8c4.3-5.6,9.2-10.6,14.7-14.9c5.1-3.9,8.6-4.8,10.8-4.7
		C33.5,92.6,35.1,93.5,36.1,94.9z"/>
	<path style="clip-path:url(#SVGID_00000166643820190860343580000005268541961354750649_);fill:#EB5E85;" d="M176.3,95
		c10.8,8.3,23.3,23.6,19.9,28.1s-21.5-3.7-32.3-12s-9.3-14.7-6.8-18S165.5,86.7,176.3,95L176.3,95z"/>
	<path style="clip-path:url(#SVGID_00000166643820190860343580000005268541961354750649_);fill:#1A1A1A;" d="M155,91.4
		c-2.1,2.7-2.8,6.1-2.1,9.4c0.9,3.9,3.7,8.1,9.4,12.5c6,4.5,12.6,8.3,19.6,11.1c2.9,1.2,6,2.1,9.1,2.6c2.8,0.3,5.7,0.2,7.5-2.2
		s1.2-5.3,0.2-7.9c-1.3-2.9-2.9-5.7-4.9-8.2c-4.6-6-9.9-11.4-15.9-16c-5.7-4.4-10.5-6.1-14.5-5.9C160.1,87.1,157,88.8,155,91.4z
		 M159.5,94.9c1-1.4,2.6-2.3,4.3-2.3c2.2-0.1,5.7,0.8,10.8,4.7c5.5,4.3,10.5,9.3,14.8,14.9c1.6,2.1,3,4.4,4.1,6.8
		c0.3,0.7,0.5,1.5,0.5,2.3c-0.8,0.2-1.6,0.2-2.4,0.1c-2.6-0.4-5.2-1.2-7.7-2.2c-6.5-2.7-12.6-6.2-18.2-10.4c-5.1-3.9-6.9-7-7.3-9.2
		C158,98,158.4,96.2,159.5,94.9L159.5,94.9z"/>
	<path style="clip-path:url(#SVGID_00000166643820190860343580000005268541961354750649_);fill:#1A1A1A;" d="M65.1,25.6
		C52.2,25.5,40,31.3,31.9,41.3c-8.4,10.3-13.3,25.4-13.3,44.9c0.1,24.2,8.1,47.7,22.8,67c14.2,18.3,34.1,31,56.4,31
		s42.3-12.6,56.4-31c14.7-19.3,22.7-42.8,22.8-67c0-19.4-4.9-34.5-13.3-44.9c-8.1-10-20.3-15.8-33.2-15.7c-12.2,0-24,4.8-32.7,13.4
		C89.1,30.5,77.3,25.7,65.1,25.6z M65.1,34.7c11.3,0,22.1,5.1,29.2,14l3.5,4.4l3.5-4.3c7.1-8.8,17.8-13.9,29.2-13.9
		c10.2-0.2,19.9,4.3,26.2,12.3c6.8,8.4,11.3,21.3,11.3,39.2c-0.2,22.2-7.6,43.8-21,61.5c-12.9,16.7-30.3,27.4-49.3,27.4
		s-36.3-10.8-49.2-27.4c-13.4-17.7-20.8-39.3-21-61.5c0-17.9,4.5-30.9,11.3-39.2C45.2,39,54.9,34.5,65.1,34.7L65.1,34.7z"/>
	<path style="clip-path:url(#SVGID_00000166643820190860343580000005268541961354750649_);fill:#E83471;" d="M65.1,30.2
		c-23.2,0-42,18.7-42,56.1c0,46.7,33.5,93.4,74.8,93.4s74.7-46.7,74.7-93.4c0-37.4-18.8-56.1-42-56.1c-12.7,0-24.8,5.7-32.8,15.6
		C89.8,35.9,77.8,30.2,65.1,30.2z"/>
	<path style="clip-path:url(#SVGID_00000166643820190860343580000005268541961354750649_);fill:#EC6287;" d="M65.1,30.2
		c-23.2,0-42,18.7-42,56.1C23.2,106.3,29,126,39.7,143c11,9.2,24,14.8,37.9,14.8c39.3,0,71.1-44.4,71.1-88.8
		c0-16.5-3.9-29.2-10.2-38c-2.6-0.5-5.3-0.8-8-0.8c-12.7,0-24.7,5.7-32.7,15.6C89.8,35.9,77.8,30.2,65.1,30.2z"/>
	<path style="clip-path:url(#SVGID_00000166643820190860343580000005268541961354750649_);fill:#F18B9E;" d="M65.1,30.2
		c-23.2,0-42,18.7-42,56.1c0,5.5,0.5,11,1.4,16.5c41.4,23.9,77.4-15.4,71.7-58.9C88.2,35.1,76.9,30.2,65.1,30.2L65.1,30.2z"/>
	<path style="clip-path:url(#SVGID_00000166643820190860343580000005268541961354750649_);fill:#1A1A1A;" d="M65.1,29
		c-11.9-0.2-23.2,5.2-30.6,14.5c-7.8,9.6-12.6,23.9-12.6,42.8c0.2,23.5,7.9,46.2,22.1,64.9c13.7,17.7,32.7,29.6,53.8,29.6
		s40.1-11.9,53.7-29.6c14.2-18.7,22-41.5,22.1-64.9c0-18.9-4.8-33.2-12.6-42.8c-7.4-9.3-18.7-14.6-30.6-14.5
		c-12.6,0-24.5,5.5-32.7,15.1C89.6,34.5,77.7,29,65.1,29z M65.1,31.3c12.4,0,24.1,5.6,31.8,15.2l0.9,1.1l0.9-1.1
		c7.8-9.6,19.5-15.2,31.8-15.2c11.2-0.2,21.9,4.8,28.9,13.6c7.4,9.1,12.1,22.8,12.1,41.3c-0.2,23-7.8,45.3-21.7,63.5
		c-13.4,17.3-31.7,28.8-51.9,28.8s-38.6-11.4-52-28.8c-13.9-18.3-21.5-40.6-21.6-63.5c0-18.5,4.7-32.2,12.1-41.3
		C43.2,36.1,53.9,31.1,65.1,31.3L65.1,31.3z"/>
	<path style="clip-path:url(#SVGID_00000166643820190860343580000005268541961354750649_);fill:#FFFFFF;" d="M60,63.5
		c-4.2,7.2-11.4,10.8-16.1,8.1s-5.2-10.8-1-18S54.2,42.7,59,45.4S64.2,56.2,60,63.5z"/>
	<path style="clip-path:url(#SVGID_00000166643820190860343580000005268541961354750649_);fill:#E83471;" d="M144.3,34.6h-0.1h-0.1
		h-0.2h-0.1l0,0h-0.1h-0.1h-0.1h-0.1l-0.1,0h-0.1h-0.1l-0.1,0.1c0,0,0,0-0.1,0l-0.1,0.1l-0.1,0.1c0,0,0,0.1-0.1,0.1l-0.1,0.1V35v0.1
		c0,0,0,0.1,0,0.1v0.1v0.1v0.1c0,0,0,0.1,0,0.1c0,0,0,0.1,0,0.1c0,0,0,0.1,0,0.1s0,0,0,0.1c0,0,0,0.1,0,0.1V36c0,0,0,0.1,0,0.1
		c0,0,0,0,0,0.1s0,0.1,0,0.1s0,0,0,0.1l0,0l0,0v0.1v0.1v0.1c0,0,0,0.1,0,0.1c0,0,0,0,0,0.1v0.1c0,0,0,0,0,0.1L143,37l0.1,0.1
		l0.1,0.1l0.1,0.1h0.1h0.1l0.1,0h0.1h0.1h0.1h0.1h0.1h0.1h0.1h0.2h0.1h0.2h0.1h0.2h0.1l0,0h0.1h0.1h0.1h0.1h0.1h0.1h0.1l0.1-0.1h0.1
		l0.1-0.1l0.1-0.1V37c0,0,2323.9,1659.9,0.1-0.1l0.1-0.1v-0.1c0,0,0-0.1,0-0.1v-0.1v-0.1v-0.1c0,0,0-0.1,0-0.1c0,0,0-0.1,0-0.1
		s0-0.1,0-0.1c0,0,0-0.1,0-0.1v-0.2c0,0,0-0.1,0-0.1c0,0,0,0,0-0.1s0-0.1,0-0.1s0,0,0-0.1l0,0l0,0c0,0,0-0.1,0-0.1v-0.1v-0.1v-0.1
		c0,0,0,0,0-0.1l-0.1-0.1v-0.1l-0.1-0.1l-0.1-0.1l-0.1-0.1l-0.1-0.1h-0.1l-0.1,0h-0.1h-0.1h-0.1H145h-0.1h-0.1h-0.1h-0.1h-0.1
		L144.3,34.6L144.3,34.6z"/>
	<path style="clip-path:url(#SVGID_00000166643820190860343580000005268541961354750649_);fill:#E83471;" d="M144.3,34.6h-0.1h-0.1
		h-0.2h-0.1l0,0h-0.1h-0.1h-0.1h-0.1l-0.1,0h-0.1h-0.1l-0.1,0.1c0,0,0,0-0.1,0l-0.1,0.1l-0.1,0.1c0,0,0,0.1-0.1,0.1l-0.1,0.1V35v0.1
		c0,0,0,0.1,0,0.1v0.1v0.1v0.1c0,0,0,0.1,0,0.1c0,0,0,0.1,0,0.1c0,0,0,0.1,0,0.1s0,0,0,0.1c0,0,0,0.1,0,0.1V36c0,0,0,0.1,0,0.1
		c0,0,0,0,0,0.1s0,0.1,0,0.1s0,0,0,0.1l0,0l0,0v0.1v0.1v0.1c0,0,0,0.1,0,0.1c0,0,0,0,0,0.1v0.1c0,0,0,0,0,0.1L143,37l0.1,0.1
		l0.1,0.1l0.1,0.1h0.1h0.1l0.1,0h0.1h0.1h0.1h0.1h0.1h0.1h0.1h0.6h0.1h0.1h0.1h0.1h0.1h0.1h0.1h0.1h0.1l0.1-0.1h0.1l0.1-0.1l0.1-0.1
		V37c0,0,2323.9,1659.9,0.1-0.1l0.1-0.1v-0.1c0,0,0,0,0-0.1v-0.1v-0.1v-0.1c0,0,0-0.1,0-0.1c0,0,0-0.1,0-0.1s0,0,0-0.1
		c0,0,0-0.1,0-0.1v-0.2c0,0,0-0.1,0-0.1c0,0,0,0,0-0.1s0-0.1,0-0.1s0-0.1,0-0.1l0,0l0,0c0,0,0-0.1,0-0.1v-0.1v-0.1v-0.1
		c0,0,0,0,0-0.1l-0.1-0.1v-0.1c0,0,0,0-0.1-0.1l-0.1-0.1l-0.1-0.1l-0.1-0.1h-0.1c0,0,0,0-0.1,0h-0.1h-0.1h-0.1H145h-0.1h-0.1h-0.1
		h-0.1h-0.2h-0.1L144.3,34.6L144.3,34.6z"/>
	<path style="clip-path:url(#SVGID_00000166643820190860343580000005268541961354750649_);fill:#E83471;" d="M144.3,34.6h-0.1h-0.1
		h-0.2h-0.1l0,0h-0.1h-0.1h-0.1h-0.1l-0.1,0h-0.1h-0.1l-0.1,0.1c0,0,0,0-0.1,0l-0.1,0.1l-0.1,0.1c0,0,0,0.1-0.1,0.1l-0.1,0.1V35v0.1
		c0,0,0,0.1,0,0.1v0.1v0.1v0.1c0,0,0,0.1,0,0.1c0,0,0,0.1,0,0.1c0,0,0,0.1,0,0.1s0,0,0,0.1c0,0,0,0.1,0,0.1V36c0,0,0,0.1,0,0.1
		c0,0,0,0,0,0.1s0,0.1,0,0.1s0,0,0,0.1l0,0l0,0v0.1v0.1v0.1c0,0,0,0.1,0,0.1c0,0,0,0,0,0.1v0.1c0,0,0,0,0,0.1L143,37l0.1,0.1
		l0.1,0.1l0.1,0.1h0.1h0.1l0.1,0h0.1h0.1h0.1h0.1h0.1h0.1h0.1h0.6h0.1h0.1h0.1h0.1h0.1h0.1h0.1h0.1h0.1l0.1-0.1h0.1l0.1-0.1l0.1-0.1
		V37c0,0,2323.9,1659.9,0.1-0.1l0.1-0.1v-0.1c0,0,0,0,0-0.1v-0.1v-0.1v-0.1c0,0,0-0.1,0-0.1c0,0,0-0.1,0-0.1s0,0,0-0.1
		c0,0,0-0.1,0-0.1v-0.2c0,0,0-0.1,0-0.1c0,0,0,0,0-0.1s0-0.1,0-0.1s0-0.1,0-0.1l0,0l0,0c0,0,0-0.1,0-0.1v-0.1v-0.1v-0.1
		c0,0,0,0,0-0.1l-0.1-0.1v-0.1c0,0,0,0-0.1-0.1l-0.1-0.1l-0.1-0.1l-0.1-0.1h-0.1c0,0,0,0-0.1,0h-0.1h-0.1h-0.1H145h-0.1h-0.1h-0.1
		h-0.1h-0.2h-0.1L144.3,34.6L144.3,34.6z"/>
	<path style="clip-path:url(#SVGID_00000166643820190860343580000005268541961354750649_);fill:#E83471;" d="M144.3,34.6h-0.1h-0.1
		h-0.2h-0.1l0,0h-0.1h-0.1h-0.1h-0.1l-0.1,0h-0.1h-0.1l-0.1,0.1c0,0,0,0-0.1,0l-0.1,0.1l-0.1,0.1c0,0,0,0.1-0.1,0.1l-0.1,0.1V35v0.1
		c0,0,0,0.1,0,0.1v0.1v0.1v0.1c0,0,0,0.1,0,0.1c0,0,0,0.1,0,0.1c0,0,0,0.1,0,0.1s0,0,0,0.1c0,0,0,0.1,0,0.1V36c0,0,0,0.1,0,0.1
		c0,0,0,0,0,0.1s0,0.1,0,0.1s0,0,0,0.1l0,0l0,0v0.1v0.1v0.1c0,0,0,0.1,0,0.1c0,0,0,0,0,0.1v0.1c0,0,0,0,0,0.1L143,37l0.1,0.1
		l0.1,0.1l0.1,0.1h0.1h0.1l0.1,0h0.1h0.1h0.1h0.1h0.1h0.1h0.1h0.6h0.1h0.1h0.1h0.1h0.1h0.1h0.1h0.1h0.1l0.1-0.1h0.1l0.1-0.1l0.1-0.1
		V37c0,0,2323.9,1659.9,0.1-0.1l0.1-0.1v-0.1c0,0,0,0,0-0.1v-0.1v-0.1v-0.1c0,0,0-0.1,0-0.1c0,0,0-0.1,0-0.1s0,0,0-0.1
		c0,0,0-0.1,0-0.1v-0.2c0,0,0-0.1,0-0.1c0,0,0,0,0-0.1s0-0.1,0-0.1s0-0.1,0-0.1l0,0l0,0c0,0,0-0.1,0-0.1v-0.1v-0.1v-0.1
		c0,0,0,0,0-0.1l-0.1-0.1v-0.1c0,0,0,0-0.1-0.1l-0.1-0.1l-0.1-0.1l-0.1-0.1h-0.1c0,0,0,0-0.1,0h-0.1h-0.1h-0.1H145h-0.1h-0.1h-0.1
		h-0.1h-0.2h-0.1L144.3,34.6L144.3,34.6z"/>
	<path style="clip-path:url(#SVGID_00000166643820190860343580000005268541961354750649_);fill:#E83471;" d="M144.3,34.6h-0.1h-0.1
		h-0.2h-0.1l0,0h-0.1h-0.1h-0.1h-0.1l-0.1,0h-0.1h-0.1l-0.1,0.1c0,0,0,0-0.1,0l-0.1,0.1l-0.1,0.1c0,0,0,0.1-0.1,0.1l-0.1,0.1V35v0.1
		c0,0,0,0.1,0,0.1v0.1v0.1v0.1c0,0,0,0.1,0,0.1c0,0,0,0.1,0,0.1c0,0,0,0.1,0,0.1s0,0,0,0.1c0,0,0,0.1,0,0.1V36c0,0,0,0.1,0,0.1
		c0,0,0,0,0,0.1s0,0.1,0,0.1s0,0,0,0.1l0,0l0,0v0.1v0.1v0.1c0,0,0,0.1,0,0.1c0,0,0,0,0,0.1v0.1c0,0,0,0,0,0.1L143,37l0.1,0.1
		l0.1,0.1l0.1,0.1h0.1h0.1l0.1,0h0.1h0.1h0.1h0.1h0.1h0.1h0.1h0.6h0.1h0.1h0.1h0.1h0.1h0.1h0.1h0.1h0.1l0.1-0.1h0.1l0.1-0.1l0.1-0.1
		V37c0,0,2323.9,1659.9,0.1-0.1l0.1-0.1v-0.1c0,0,0,0,0-0.1v-0.1v-0.1v-0.1c0,0,0-0.1,0-0.1c0,0,0-0.1,0-0.1s0,0,0-0.1
		c0,0,0-0.1,0-0.1v-0.2c0,0,0-0.1,0-0.1c0,0,0,0,0-0.1s0-0.1,0-0.1s0-0.1,0-0.1l0,0l0,0c0,0,0-0.1,0-0.1v-0.1v-0.1v-0.1
		c0,0,0,0,0-0.1l-0.1-0.1v-0.1c0,0,0,0-0.1-0.1l-0.1-0.1l-0.1-0.1l-0.1-0.1h-0.1c0,0,0,0-0.1,0h-0.1h-0.1h-0.1H145h-0.1h-0.1h-0.1
		h-0.1h-0.2h-0.1L144.3,34.6L144.3,34.6z"/>
	<path style="clip-path:url(#SVGID_00000166643820190860343580000005268541961354750649_);fill:#E83471;" d="M144.3,34.6h-0.1h-0.1
		h-0.2h-0.1l0,0h-0.1h-0.1h-0.1h-0.1l-0.1,0h-0.1h-0.1l-0.1,0.1c0,0,0,0-0.1,0l-0.1,0.1l-0.1,0.1c0,0,0,0.1-0.1,0.1l-0.1,0.1V35v0.1
		c0,0,0,0.1,0,0.1v0.1v0.1v0.1c0,0,0,0.1,0,0.1c0,0,0,0.1,0,0.1c0,0,0,0.1,0,0.1s0,0,0,0.1c0,0,0,0.1,0,0.1V36c0,0,0,0.1,0,0.1
		c0,0,0,0,0,0.1s0,0.1,0,0.1s0,0,0,0.1l0,0l0,0v0.1v0.1v0.1c0,0,0,0.1,0,0.1c0,0,0,0,0,0.1v0.1c0,0,0,0,0,0.1L143,37l0.1,0.1
		l0.1,0.1l0.1,0.1h0.1h0.1l0.1,0h0.1h0.1h0.1h0.1h0.1h0.1h0.1h0.6h0.1h0.1h0.1h0.1h0.1h0.1h0.1h0.1h0.1l0.1-0.1h0.1l0.1-0.1l0.1-0.1
		V37c0,0,2323.9,1659.9,0.1-0.1l0.1-0.1v-0.1c0,0,0,0,0-0.1v-0.1v-0.1v-0.1c0,0,0-0.1,0-0.1c0,0,0-0.1,0-0.1s0,0,0-0.1
		c0,0,0-0.1,0-0.1v-0.2c0,0,0-0.1,0-0.1c0,0,0,0,0-0.1s0-0.1,0-0.1s0-0.1,0-0.1l0,0l0,0c0,0,0-0.1,0-0.1v-0.1v-0.1v-0.1
		c0,0,0,0,0-0.1l-0.1-0.1v-0.1c0,0,0,0-0.1-0.1l-0.1-0.1l-0.1-0.1l-0.1-0.1h-0.1c0,0,0,0-0.1,0h-0.1h-0.1h-0.1H145h-0.1h-0.1h-0.1
		h-0.1h-0.2h-0.1L144.3,34.6L144.3,34.6z"/>
	<path style="clip-path:url(#SVGID_00000166643820190860343580000005268541961354750649_);fill:#E83471;" d="M144.3,34.6h-0.1h-0.1
		h-0.2h-0.1l0,0h-0.1h-0.1h-0.1h-0.1l-0.1,0h-0.1h-0.1l-0.1,0.1c0,0,0,0-0.1,0l-0.1,0.1l-0.1,0.1c0,0,0,0.1-0.1,0.1l-0.1,0.1V35v0.1
		c0,0,0,0.1,0,0.1v0.1v0.1v0.1c0,0,0,0.1,0,0.1c0,0,0,0.1,0,0.1c0,0,0,0.1,0,0.1s0,0,0,0.1c0,0,0,0.1,0,0.1V36c0,0,0,0.1,0,0.1
		c0,0,0,0,0,0.1s0,0.1,0,0.1s0,0,0,0.1l0,0l0,0v0.1v0.1v0.1c0,0,0,0.1,0,0.1c0,0,0,0,0,0.1v0.1c0,0,0,0,0,0.1L143,37l0.1,0.1
		l0.1,0.1l0.1,0.1h0.1h0.1l0.1,0h0.1h0.1h0.1h0.1h0.1h0.1h0.1h0.6h0.1h0.1h0.1h0.1h0.1h0.1h0.1h0.1h0.1l0.1-0.1h0.1l0.1-0.1l0.1-0.1
		V37c0,0,2323.9,1659.9,0.1-0.1l0.1-0.1v-0.1c0,0,0,0,0-0.1v-0.1v-0.1v-0.1c0,0,0-0.1,0-0.1c0,0,0-0.1,0-0.1s0,0,0-0.1
		c0,0,0-0.1,0-0.1v-0.2c0,0,0-0.1,0-0.1c0,0,0,0,0-0.1s0-0.1,0-0.1s0-0.1,0-0.1l0,0l0,0c0,0,0-0.1,0-0.1v-0.1v-0.1v-0.1
		c0,0,0,0,0-0.1l-0.1-0.1v-0.1c0,0,0,0-0.1-0.1l-0.1-0.1l-0.1-0.1l-0.1-0.1h-0.1c0,0,0,0-0.1,0h-0.1h-0.1h-0.1H145h-0.1h-0.1h-0.1
		h-0.1h-0.2h-0.1L144.3,34.6L144.3,34.6z"/>
	<path style="clip-path:url(#SVGID_00000166643820190860343580000005268541961354750649_);fill:#E83471;" d="M144.3,34.6h-0.1h-0.1
		h-0.2h-0.1l0,0h-0.1h-0.1h-0.1h-0.1l-0.1,0h-0.1h-0.1l-0.1,0.1c0,0,0,0-0.1,0l-0.1,0.1l-0.1,0.1c0,0,0,0.1-0.1,0.1l-0.1,0.1V35v0.1
		c0,0,0,0.1,0,0.1v0.1v0.1v0.1c0,0,0,0.1,0,0.1c0,0,0,0.1,0,0.1c0,0,0,0.1,0,0.1s0,0,0,0.1c0,0,0,0.1,0,0.1V36c0,0,0,0.1,0,0.1
		c0,0,0,0,0,0.1s0,0.1,0,0.1s0,0,0,0.1l0,0l0,0v0.1v0.1v0.1c0,0,0,0.1,0,0.1c0,0,0,0,0,0.1v0.1c0,0,0,0,0,0.1L143,37l0.1,0.1
		l0.1,0.1l0.1,0.1h0.1h0.1l0.1,0h0.1h0.1h0.1h0.1h0.1h0.1h0.1h0.6h0.1h0.1h0.1h0.1h0.1h0.1h0.1h0.1h0.1l0.1-0.1h0.1l0.1-0.1l0.1-0.1
		V37c0,0,2323.9,1659.9,0.1-0.1l0.1-0.1v-0.1c0,0,0,0,0-0.1v-0.1v-0.1v-0.1c0,0,0-0.1,0-0.1c0,0,0-0.1,0-0.1s0,0,0-0.1
		c0,0,0-0.1,0-0.1v-0.2c0,0,0-0.1,0-0.1c0,0,0,0,0-0.1s0-0.1,0-0.1s0-0.1,0-0.1l0,0l0,0c0,0,0-0.1,0-0.1v-0.1v-0.1v-0.1
		c0,0,0,0,0-0.1l-0.1-0.1v-0.1c0,0,0,0-0.1-0.1l-0.1-0.1l-0.1-0.1l-0.1-0.1h-0.1c0,0,0,0-0.1,0h-0.1h-0.1h-0.1H145h-0.1h-0.1h-0.1
		h-0.1h-0.2h-0.1L144.3,34.6L144.3,34.6z"/>
	<path style="clip-path:url(#SVGID_00000166643820190860343580000005268541961354750649_);fill:#E83471;" d="M144.3,34.6h-0.1h-0.1
		h-0.2h-0.1l0,0h-0.1h-0.1h-0.1h-0.1l-0.1,0h-0.1h-0.1l-0.1,0.1c0,0,0,0-0.1,0l-0.1,0.1l-0.1,0.1c0,0,0,0.1-0.1,0.1l-0.1,0.1V35v0.1
		c0,0,0,0.1,0,0.1v0.1v0.1v0.1c0,0,0,0.1,0,0.1c0,0,0,0.1,0,0.1c0,0,0,0.1,0,0.1s0,0,0,0.1c0,0,0,0.1,0,0.1V36c0,0,0,0.1,0,0.1
		c0,0,0,0,0,0.1s0,0.1,0,0.1s0,0,0,0.1l0,0l0,0v0.1v0.1v0.1c0,0,0,0.1,0,0.1c0,0,0,0,0,0.1v0.1c0,0,0,0,0,0.1L143,37l0.1,0.1
		l0.1,0.1l0.1,0.1h0.1h0.1l0.1,0h0.1h0.1h0.1h0.1h0.1h0.1h0.1h0.6h0.1h0.1h0.1h0.1h0.1h0.1h0.1h0.1h0.1l0.1-0.1h0.1l0.1-0.1l0.1-0.1
		V37c0,0,2323.9,1659.9,0.1-0.1l0.1-0.1v-0.1c0,0,0,0,0-0.1v-0.1v-0.1v-0.1c0,0,0-0.1,0-0.1c0,0,0-0.1,0-0.1s0,0,0-0.1
		c0,0,0-0.1,0-0.1v-0.2c0,0,0-0.1,0-0.1c0,0,0,0,0-0.1s0-0.1,0-0.1s0-0.1,0-0.1l0,0l0,0c0,0,0-0.1,0-0.1v-0.1v-0.1v-0.1
		c0,0,0,0,0-0.1l-0.1-0.1v-0.1c0,0,0,0-0.1-0.1l-0.1-0.1l-0.1-0.1l-0.1-0.1h-0.1c0,0,0,0-0.1,0h-0.1h-0.1h-0.1H145h-0.1h-0.1h-0.1
		h-0.1h-0.2h-0.1L144.3,34.6L144.3,34.6z"/>
	<path style="clip-path:url(#SVGID_00000166643820190860343580000005268541961354750649_);fill:#E83471;" d="M144.3,34.6h-0.1h-0.1
		h-0.2h-0.1l0,0h-0.1h-0.1h-0.1h-0.1l-0.1,0h-0.1h-0.1l-0.1,0.1c0,0,0,0-0.1,0l-0.1,0.1l-0.1,0.1c0,0,0,0.1-0.1,0.1l-0.1,0.1V35v0.1
		c0,0,0,0.1,0,0.1v0.1v0.1v0.1c0,0,0,0.1,0,0.1c0,0,0,0.1,0,0.1c0,0,0,0.1,0,0.1s0,0,0,0.1c0,0,0,0.1,0,0.1V36c0,0,0,0.1,0,0.1
		c0,0,0,0,0,0.1s0,0.1,0,0.1s0,0,0,0.1l0,0l0,0v0.1v0.1v0.1c0,0,0,0.1,0,0.1c0,0,0,0,0,0.1v0.1c0,0,0,0,0,0.1L143,37l0.1,0.1
		l0.1,0.1l0.1,0.1h0.1h0.1l0.1,0h0.1h0.1h0.1h0.1h0.1h0.1h0.1h0.6h0.1h0.1h0.1h0.1h0.1h0.1h0.1h0.1h0.1l0.1-0.1h0.1l0.1-0.1l0.1-0.1
		V37c0,0,2323.9,1659.9,0.1-0.1l0.1-0.1v-0.1c0,0,0,0,0-0.1v-0.1v-0.1v-0.1c0,0,0-0.1,0-0.1c0,0,0-0.1,0-0.1s0,0,0-0.1
		c0,0,0-0.1,0-0.1v-0.2c0,0,0-0.1,0-0.1c0,0,0,0,0-0.1s0-0.1,0-0.1s0-0.1,0-0.1l0,0l0,0c0,0,0-0.1,0-0.1v-0.1v-0.1v-0.1
		c0,0,0,0,0-0.1l-0.1-0.1v-0.1c0,0,0,0-0.1-0.1l-0.1-0.1l-0.1-0.1l-0.1-0.1h-0.1c0,0,0,0-0.1,0h-0.1h-0.1h-0.1H145h-0.1h-0.1h-0.1
		h-0.1h-0.2h-0.1L144.3,34.6L144.3,34.6z"/>
	<path style="clip-path:url(#SVGID_00000166643820190860343580000005268541961354750649_);fill:#E83471;" d="M144.3,34.6h-0.1h-0.1
		h-0.2h-0.1l0,0h-0.1h-0.1h-0.1h-0.1l-0.1,0h-0.1h-0.1l-0.1,0.1c0,0,0,0-0.1,0l-0.1,0.1l-0.1,0.1c0,0,0,0.1-0.1,0.1l-0.1,0.1V35v0.1
		c0,0,0,0.1,0,0.1v0.1v0.1v0.1c0,0,0,0.1,0,0.1c0,0,0,0.1,0,0.1c0,0,0,0.1,0,0.1s0,0,0,0.1c0,0,0,0.1,0,0.1V36c0,0,0,0.1,0,0.1
		c0,0,0,0,0,0.1s0,0.1,0,0.1s0,0,0,0.1l0,0l0,0v0.1v0.1v0.1c0,0,0,0.1,0,0.1c0,0,0,0,0,0.1v0.1c0,0,0,0,0,0.1L143,37l0.1,0.1
		l0.1,0.1l0.1,0.1h0.1h0.1l0.1,0h0.1h0.1h0.1h0.1h0.1h0.1h0.1h0.2h0.1h0.2h0.1h0.2h0.1l0,0h0.1h0.1h0.1h0.1h0.1h0.1h0.1l0.1-0.1h0.1
		l0.1-0.1l0.1-0.1V37c0,0,2323.9,1659.9,0.1-0.1l0.1-0.1v-0.1c0,0,0-0.1,0-0.1v-0.1v-0.1v-0.1c0,0,0-0.1,0-0.1c0,0,0-0.1,0-0.1
		s0-0.1,0-0.1c0,0,0-0.1,0-0.1v-0.2c0,0,0-0.1,0-0.1c0,0,0,0,0-0.1s0-0.1,0-0.1s0,0,0-0.1l0,0l0,0c0,0,0-0.1,0-0.1v-0.1v-0.1v-0.1
		c0,0,0,0,0-0.1l-0.1-0.1v-0.1l-0.1-0.1l-0.1-0.1l-0.1-0.1l-0.1-0.1h-0.1l-0.1,0h-0.1h-0.1h-0.1H145h-0.1h-0.1h-0.1h-0.1h-0.1
		L144.3,34.6L144.3,34.6z"/>
	<path style="clip-path:url(#SVGID_00000166643820190860343580000005268541961354750649_);fill:#E83471;" d="M144.3,34.6h-0.1h-0.1
		h-0.2h-0.1l0,0h-0.1h-0.1h-0.1h-0.1l-0.1,0h-0.1h-0.1l-0.1,0.1c0,0,0,0-0.1,0l-0.1,0.1l-0.1,0.1c0,0,0,0.1-0.1,0.1l-0.1,0.1V35v0.1
		c0,0,0,0.1,0,0.1v0.1v0.1v0.1c0,0,0,0.1,0,0.1c0,0,0,0.1,0,0.1c0,0,0,0.1,0,0.1s0,0,0,0.1c0,0,0,0.1,0,0.1V36c0,0,0,0.1,0,0.1
		c0,0,0,0,0,0.1s0,0.1,0,0.1s0,0,0,0.1l0,0l0,0v0.1v0.1v0.1c0,0,0,0.1,0,0.1c0,0,0,0,0,0.1v0.1c0,0,0,0,0,0.1L143,37l0.1,0.1
		l0.1,0.1l0.1,0.1h0.1h0.1l0.1,0h0.1h0.1h0.1h0.1h0.1h0.1h0.1h0.6h0.1h0.1h0.1h0.1h0.1h0.1h0.1h0.1h0.1l0.1-0.1h0.1l0.1-0.1l0.1-0.1
		V37c0,0,2323.9,1659.9,0.1-0.1l0.1-0.1v-0.1c0,0,0,0,0-0.1v-0.1v-0.1v-0.1c0,0,0-0.1,0-0.1c0,0,0-0.1,0-0.1s0,0,0-0.1
		c0,0,0-0.1,0-0.1v-0.2c0,0,0-0.1,0-0.1c0,0,0,0,0-0.1s0-0.1,0-0.1s0-0.1,0-0.1l0,0l0,0c0,0,0-0.1,0-0.1v-0.1v-0.1v-0.1
		c0,0,0,0,0-0.1l-0.1-0.1v-0.1c0,0,0,0-0.1-0.1l-0.1-0.1l-0.1-0.1l-0.1-0.1h-0.1c0,0,0,0-0.1,0h-0.1h-0.1h-0.1H145h-0.1h-0.1h-0.1
		h-0.1h-0.2h-0.1L144.3,34.6L144.3,34.6z"/>
	<path style="clip-path:url(#SVGID_00000166643820190860343580000005268541961354750649_);fill:#E83471;" d="M144.3,34.6h-0.1h-0.1
		h-0.2h-0.1l0,0h-0.1h-0.1h-0.1h-0.1l-0.1,0h-0.1h-0.1l-0.1,0.1c0,0,0,0-0.1,0l-0.1,0.1l-0.1,0.1c0,0,0,0.1-0.1,0.1l-0.1,0.1V35v0.1
		c0,0,0,0.1,0,0.1v0.1v0.1v0.1c0,0,0,0.1,0,0.1c0,0,0,0.1,0,0.1c0,0,0,0.1,0,0.1s0,0,0,0.1c0,0,0,0.1,0,0.1V36c0,0,0,0.1,0,0.1
		c0,0,0,0,0,0.1s0,0.1,0,0.1s0,0,0,0.1l0,0l0,0v0.1v0.1v0.1c0,0,0,0.1,0,0.1c0,0,0,0,0,0.1v0.1c0,0,0,0,0,0.1L143,37l0.1,0.1
		l0.1,0.1l0.1,0.1h0.1h0.1l0.1,0h0.1h0.1h0.1h0.1h0.1h0.1h0.1h0.6h0.1h0.1h0.1h0.1h0.1h0.1h0.1h0.1h0.1l0.1-0.1h0.1l0.1-0.1l0.1-0.1
		V37c0,0,2323.9,1659.9,0.1-0.1l0.1-0.1v-0.1c0,0,0,0,0-0.1v-0.1v-0.1v-0.1c0,0,0-0.1,0-0.1c0,0,0-0.1,0-0.1s0,0,0-0.1
		c0,0,0-0.1,0-0.1v-0.2c0,0,0-0.1,0-0.1c0,0,0,0,0-0.1s0-0.1,0-0.1s0-0.1,0-0.1l0,0l0,0c0,0,0-0.1,0-0.1v-0.1v-0.1v-0.1
		c0,0,0,0,0-0.1l-0.1-0.1v-0.1c0,0,0,0-0.1-0.1l-0.1-0.1l-0.1-0.1l-0.1-0.1h-0.1c0,0,0,0-0.1,0h-0.1h-0.1h-0.1H145h-0.1h-0.1h-0.1
		h-0.1h-0.2h-0.1L144.3,34.6L144.3,34.6z"/>
	<path style="clip-path:url(#SVGID_00000166643820190860343580000005268541961354750649_);fill:#E83471;" d="M144.3,34.6h-0.1h-0.1
		h-0.2h-0.1l0,0h-0.1h-0.1h-0.1h-0.1l-0.1,0h-0.1h-0.1l-0.1,0.1c0,0,0,0-0.1,0l-0.1,0.1l-0.1,0.1c0,0,0,0.1-0.1,0.1l-0.1,0.1V35v0.1
		c0,0,0,0.1,0,0.1v0.1v0.1v0.1c0,0,0,0.1,0,0.1c0,0,0,0.1,0,0.1c0,0,0,0.1,0,0.1s0,0,0,0.1c0,0,0,0.1,0,0.1V36c0,0,0,0.1,0,0.1
		c0,0,0,0,0,0.1s0,0.1,0,0.1s0,0,0,0.1l0,0l0,0v0.1v0.1v0.1c0,0,0,0.1,0,0.1c0,0,0,0,0,0.1v0.1c0,0,0,0,0,0.1L143,37l0.1,0.1
		l0.1,0.1l0.1,0.1h0.1h0.1l0.1,0h0.1h0.1h0.1h0.1h0.1h0.1h0.1h0.6h0.1h0.1h0.1h0.1h0.1h0.1h0.1h0.1h0.1l0.1-0.1h0.1l0.1-0.1l0.1-0.1
		V37c0,0,2323.9,1659.9,0.1-0.1l0.1-0.1v-0.1c0,0,0,0,0-0.1v-0.1v-0.1v-0.1c0,0,0-0.1,0-0.1c0,0,0-0.1,0-0.1s0,0,0-0.1
		c0,0,0-0.1,0-0.1v-0.2c0,0,0-0.1,0-0.1c0,0,0,0,0-0.1s0-0.1,0-0.1s0-0.1,0-0.1l0,0l0,0c0,0,0-0.1,0-0.1v-0.1v-0.1v-0.1
		c0,0,0,0,0-0.1l-0.1-0.1v-0.1c0,0,0,0-0.1-0.1l-0.1-0.1l-0.1-0.1l-0.1-0.1h-0.1c0,0,0,0-0.1,0h-0.1h-0.1h-0.1H145h-0.1h-0.1h-0.1
		h-0.1h-0.2h-0.1L144.3,34.6L144.3,34.6z"/>
	<path style="clip-path:url(#SVGID_00000166643820190860343580000005268541961354750649_);fill:#E83471;" d="M144.3,34.6h-0.1h-0.1
		h-0.2h-0.1l0,0h-0.1h-0.1h-0.1h-0.1l-0.1,0h-0.1h-0.1l-0.1,0.1c0,0,0,0-0.1,0l-0.1,0.1l-0.1,0.1c0,0,0,0.1-0.1,0.1l-0.1,0.1V35v0.1
		c0,0,0,0.1,0,0.1v0.1v0.1v0.1c0,0,0,0.1,0,0.1c0,0,0,0.1,0,0.1c0,0,0,0.1,0,0.1s0,0,0,0.1c0,0,0,0.1,0,0.1V36c0,0,0,0.1,0,0.1
		c0,0,0,0,0,0.1s0,0.1,0,0.1s0,0,0,0.1l0,0l0,0v0.1v0.1v0.1c0,0,0,0.1,0,0.1c0,0,0,0,0,0.1v0.1c0,0,0,0,0,0.1L143,37l0.1,0.1
		l0.1,0.1l0.1,0.1h0.1h0.1l0.1,0h0.1h0.1h0.1h0.1h0.1h0.1h0.1h0.6h0.1h0.1h0.1h0.1h0.1h0.1h0.1h0.1h0.1l0.1-0.1h0.1l0.1-0.1l0.1-0.1
		V37c0,0,2323.9,1659.9,0.1-0.1l0.1-0.1v-0.1c0,0,0,0,0-0.1v-0.1v-0.1v-0.1c0,0,0-0.1,0-0.1c0,0,0-0.1,0-0.1s0,0,0-0.1
		c0,0,0-0.1,0-0.1v-0.2c0,0,0-0.1,0-0.1c0,0,0,0,0-0.1s0-0.1,0-0.1s0-0.1,0-0.1l0,0l0,0c0,0,0-0.1,0-0.1v-0.1v-0.1v-0.1
		c0,0,0,0,0-0.1l-0.1-0.1v-0.1c0,0,0,0-0.1-0.1l-0.1-0.1l-0.1-0.1l-0.1-0.1h-0.1c0,0,0,0-0.1,0h-0.1h-0.1h-0.1H145h-0.1h-0.1h-0.1
		h-0.1h-0.2h-0.1L144.3,34.6L144.3,34.6z"/>
	<path style="clip-path:url(#SVGID_00000166643820190860343580000005268541961354750649_);fill:#E83471;" d="M144.3,34.6h-0.1h-0.1
		h-0.2h-0.1l0,0h-0.1h-0.1h-0.1h-0.1l-0.1,0h-0.1h-0.1l-0.1,0.1c0,0,0,0-0.1,0l-0.1,0.1l-0.1,0.1c0,0,0,0.1-0.1,0.1l-0.1,0.1V35v0.1
		c0,0,0,0.1,0,0.1v0.1v0.1v0.1c0,0,0,0.1,0,0.1c0,0,0,0.1,0,0.1c0,0,0,0.1,0,0.1s0,0,0,0.1c0,0,0,0.1,0,0.1V36c0,0,0,0.1,0,0.1
		c0,0,0,0,0,0.1s0,0.1,0,0.1s0,0,0,0.1l0,0l0,0v0.1v0.1v0.1c0,0,0,0.1,0,0.1c0,0,0,0,0,0.1v0.1c0,0,0,0,0,0.1L143,37l0.1,0.1
		l0.1,0.1l0.1,0.1h0.1h0.1l0.1,0h0.1h0.1h0.1h0.1h0.1h0.1h0.1h0.6h0.1h0.1h0.1h0.1h0.1h0.1h0.1h0.1h0.1l0.1-0.1h0.1l0.1-0.1l0.1-0.1
		V37c0,0,2323.9,1659.9,0.1-0.1l0.1-0.1v-0.1c0,0,0,0,0-0.1v-0.1v-0.1v-0.1c0,0,0-0.1,0-0.1c0,0,0-0.1,0-0.1s0,0,0-0.1
		c0,0,0-0.1,0-0.1v-0.2c0,0,0-0.1,0-0.1c0,0,0,0,0-0.1s0-0.1,0-0.1s0-0.1,0-0.1l0,0l0,0c0,0,0-0.1,0-0.1v-0.1v-0.1v-0.1
		c0,0,0,0,0-0.1l-0.1-0.1v-0.1c0,0,0,0-0.1-0.1l-0.1-0.1l-0.1-0.1l-0.1-0.1h-0.1c0,0,0,0-0.1,0h-0.1h-0.1h-0.1H145h-0.1h-0.1h-0.1
		h-0.1h-0.2h-0.1L144.3,34.6L144.3,34.6z"/>
	<path style="clip-path:url(#SVGID_00000166643820190860343580000005268541961354750649_);fill:#E83471;" d="M144.3,34.6h-0.1h-0.1
		h-0.2h-0.1l0,0h-0.1h-0.1h-0.1h-0.1l-0.1,0h-0.1h-0.1l-0.1,0.1c0,0,0,0-0.1,0l-0.1,0.1l-0.1,0.1c0,0,0,0.1-0.1,0.1l-0.1,0.1V35v0.1
		c0,0,0,0.1,0,0.1v0.1v0.1v0.1c0,0,0,0.1,0,0.1c0,0,0,0.1,0,0.1c0,0,0,0.1,0,0.1s0,0,0,0.1c0,0,0,0.1,0,0.1V36c0,0,0,0.1,0,0.1
		c0,0,0,0,0,0.1s0,0.1,0,0.1s0,0,0,0.1l0,0l0,0v0.1v0.1v0.1c0,0,0,0.1,0,0.1c0,0,0,0,0,0.1v0.1c0,0,0,0,0,0.1L143,37l0.1,0.1
		l0.1,0.1l0.1,0.1h0.1h0.1l0.1,0h0.1h0.1h0.1h0.1h0.1h0.1h0.1h0.6h0.1h0.1h0.1h0.1h0.1h0.1h0.1h0.1h0.1l0.1-0.1h0.1l0.1-0.1l0.1-0.1
		V37c0,0,2323.9,1659.9,0.1-0.1l0.1-0.1v-0.1c0,0,0,0,0-0.1v-0.1v-0.1v-0.1c0,0,0-0.1,0-0.1c0,0,0-0.1,0-0.1s0,0,0-0.1
		c0,0,0-0.1,0-0.1v-0.2c0,0,0-0.1,0-0.1c0,0,0,0,0-0.1s0-0.1,0-0.1s0-0.1,0-0.1l0,0l0,0c0,0,0-0.1,0-0.1v-0.1v-0.1v-0.1
		c0,0,0,0,0-0.1l-0.1-0.1v-0.1c0,0,0,0-0.1-0.1l-0.1-0.1l-0.1-0.1l-0.1-0.1h-0.1c0,0,0,0-0.1,0h-0.1h-0.1h-0.1H145h-0.1h-0.1h-0.1
		h-0.1h-0.2h-0.1L144.3,34.6L144.3,34.6z"/>
	<path style="clip-path:url(#SVGID_00000166643820190860343580000005268541961354750649_);fill:#E83471;" d="M144.3,34.6h-0.1h-0.1
		h-0.2h-0.1l0,0h-0.1h-0.1h-0.1h-0.1l-0.1,0h-0.1h-0.1l-0.1,0.1c0,0,0,0-0.1,0l-0.1,0.1l-0.1,0.1c0,0,0,0.1-0.1,0.1l-0.1,0.1V35v0.1
		c0,0,0,0.1,0,0.1v0.1v0.1v0.1c0,0,0,0.1,0,0.1c0,0,0,0.1,0,0.1c0,0,0,0.1,0,0.1s0,0,0,0.1c0,0,0,0.1,0,0.1V36c0,0,0,0.1,0,0.1
		c0,0,0,0,0,0.1s0,0.1,0,0.1s0,0,0,0.1l0,0l0,0v0.1v0.1v0.1c0,0,0,0.1,0,0.1c0,0,0,0,0,0.1v0.1c0,0,0,0,0,0.1L143,37l0.1,0.1
		l0.1,0.1l0.1,0.1h0.1h0.1l0.1,0h0.1h0.1h0.1h0.1h0.1h0.1h0.1h0.6h0.1h0.1h0.1h0.1h0.1h0.1h0.1h0.1h0.1l0.1-0.1h0.1l0.1-0.1l0.1-0.1
		V37c0,0,2323.9,1659.9,0.1-0.1l0.1-0.1v-0.1c0,0,0,0,0-0.1v-0.1v-0.1v-0.1c0,0,0-0.1,0-0.1c0,0,0-0.1,0-0.1s0,0,0-0.1
		c0,0,0-0.1,0-0.1v-0.2c0,0,0-0.1,0-0.1c0,0,0,0,0-0.1s0-0.1,0-0.1s0-0.1,0-0.1l0,0l0,0c0,0,0-0.1,0-0.1v-0.1v-0.1v-0.1
		c0,0,0,0,0-0.1l-0.1-0.1v-0.1c0,0,0,0-0.1-0.1l-0.1-0.1l-0.1-0.1l-0.1-0.1h-0.1c0,0,0,0-0.1,0h-0.1h-0.1h-0.1H145h-0.1h-0.1h-0.1
		h-0.1h-0.2h-0.1L144.3,34.6L144.3,34.6z"/>
	<path style="clip-path:url(#SVGID_00000166643820190860343580000005268541961354750649_);fill:#E83471;" d="M144.3,34.6h-0.1h-0.1
		h-0.2h-0.1l0,0h-0.1h-0.1h-0.1h-0.1l-0.1,0h-0.1h-0.1l-0.1,0.1c0,0,0,0-0.1,0l-0.1,0.1l-0.1,0.1c0,0,0,0.1-0.1,0.1l-0.1,0.1V35v0.1
		c0,0,0,0.1,0,0.1v0.1v0.1v0.1c0,0,0,0.1,0,0.1c0,0,0,0.1,0,0.1c0,0,0,0.1,0,0.1s0,0,0,0.1c0,0,0,0.1,0,0.1V36c0,0,0,0.1,0,0.1
		c0,0,0,0,0,0.1s0,0.1,0,0.1s0,0,0,0.1l0,0l0,0v0.1v0.1v0.1c0,0,0,0.1,0,0.1c0,0,0,0,0,0.1v0.1c0,0,0,0,0,0.1L143,37l0.1,0.1
		l0.1,0.1l0.1,0.1h0.1h0.1l0.1,0h0.1h0.1h0.1h0.1h0.1h0.1h0.1h0.6h0.1h0.1h0.1h0.1h0.1h0.1h0.1h0.1h0.1l0.1-0.1h0.1l0.1-0.1l0.1-0.1
		V37c0,0,2323.9,1659.9,0.1-0.1l0.1-0.1v-0.1c0,0,0,0,0-0.1v-0.1v-0.1v-0.1c0,0,0-0.1,0-0.1c0,0,0-0.1,0-0.1s0,0,0-0.1
		c0,0,0-0.1,0-0.1v-0.2c0,0,0-0.1,0-0.1c0,0,0,0,0-0.1s0-0.1,0-0.1s0-0.1,0-0.1l0,0l0,0c0,0,0-0.1,0-0.1v-0.1v-0.1v-0.1
		c0,0,0,0,0-0.1l-0.1-0.1v-0.1c0,0,0,0-0.1-0.1l-0.1-0.1l-0.1-0.1l-0.1-0.1h-0.1c0,0,0,0-0.1,0h-0.1h-0.1h-0.1H145h-0.1h-0.1h-0.1
		h-0.1h-0.2h-0.1L144.3,34.6L144.3,34.6z"/>
	<path style="clip-path:url(#SVGID_00000166643820190860343580000005268541961354750649_);fill:#E83471;" d="M144.3,34.6h-0.1h-0.1
		h-0.2h-0.1l0,0h-0.1h-0.1h-0.1h-0.1l-0.1,0h-0.1h-0.1l-0.1,0.1c0,0,0,0-0.1,0l-0.1,0.1l-0.1,0.1c0,0,0,0.1-0.1,0.1l-0.1,0.1V35v0.1
		c0,0,0,0.1,0,0.1v0.1v0.1v0.1c0,0,0,0.1,0,0.1c0,0,0,0.1,0,0.1c0,0,0,0.1,0,0.1s0,0,0,0.1c0,0,0,0.1,0,0.1V36c0,0,0,0.1,0,0.1
		c0,0,0,0,0,0.1s0,0.1,0,0.1s0,0,0,0.1l0,0l0,0v0.1v0.1v0.1c0,0,0,0.1,0,0.1c0,0,0,0,0,0.1v0.1c0,0,0,0,0,0.1L143,37l0.1,0.1
		l0.1,0.1l0.1,0.1h0.1h0.1l0.1,0h0.1h0.1h0.1h0.1h0.1h0.1h0.1h0.6h0.1h0.1h0.1h0.1h0.1h0.1h0.1h0.1h0.1l0.1-0.1h0.1l0.1-0.1l0.1-0.1
		V37c0,0,2323.9,1659.9,0.1-0.1l0.1-0.1v-0.1c0,0,0,0,0-0.1v-0.1v-0.1v-0.1c0,0,0-0.1,0-0.1c0,0,0-0.1,0-0.1s0,0,0-0.1
		c0,0,0-0.1,0-0.1v-0.2c0,0,0-0.1,0-0.1c0,0,0,0,0-0.1s0-0.1,0-0.1s0-0.1,0-0.1l0,0l0,0c0,0,0-0.1,0-0.1v-0.1v-0.1v-0.1
		c0,0,0,0,0-0.1l-0.1-0.1v-0.1c0,0,0,0-0.1-0.1l-0.1-0.1l-0.1-0.1l-0.1-0.1h-0.1c0,0,0,0-0.1,0h-0.1h-0.1h-0.1H145h-0.1h-0.1h-0.1
		h-0.1h-0.2h-0.1L144.3,34.6L144.3,34.6z"/>
	<path style="clip-path:url(#SVGID_00000166643820190860343580000005268541961354750649_);fill:#E83471;" d="M144.3,34.6h-0.1h-0.1
		h-0.2h-0.1l0,0h-0.1h-0.1h-0.1h-0.1l-0.1,0h-0.1h-0.1l-0.1,0.1c0,0,0,0-0.1,0l-0.1,0.1l-0.1,0.1c0,0,0,0.1-0.1,0.1l-0.1,0.1V35v0.1
		c0,0,0,0.1,0,0.1v0.1v0.1v0.1c0,0,0,0.1,0,0.1c0,0,0,0.1,0,0.1c0,0,0,0.1,0,0.1s0,0,0,0.1c0,0,0,0.1,0,0.1V36c0,0,0,0.1,0,0.1
		c0,0,0,0,0,0.1s0,0.1,0,0.1s0,0,0,0.1l0,0l0,0v0.1v0.1v0.1c0,0,0,0.1,0,0.1c0,0,0,0,0,0.1v0.1c0,0,0,0,0,0.1L143,37l0.1,0.1
		l0.1,0.1l0.1,0.1h0.1h0.1l0.1,0h0.1h0.1h0.1h0.1h0.1h0.1h0.1h0.2h0.1h0.2h0.1h0.2h0.1l0,0h0.1h0.1h0.1h0.1h0.1h0.1h0.1l0.1-0.1h0.1
		l0.1-0.1l0.1-0.1V37c0,0,2323.9,1659.9,0.1-0.1l0.1-0.1v-0.1c0,0,0-0.1,0-0.1v-0.1v-0.1v-0.1c0,0,0-0.1,0-0.1c0,0,0-0.1,0-0.1
		s0-0.1,0-0.1c0,0,0-0.1,0-0.1v-0.2c0,0,0-0.1,0-0.1c0,0,0,0,0-0.1s0-0.1,0-0.1s0,0,0-0.1l0,0l0,0c0,0,0-0.1,0-0.1v-0.1v-0.1v-0.1
		c0,0,0,0,0-0.1l-0.1-0.1v-0.1l-0.1-0.1l-0.1-0.1l-0.1-0.1l-0.1-0.1h-0.1l-0.1,0h-0.1h-0.1h-0.1H145h-0.1h-0.1h-0.1h-0.1h-0.1
		L144.3,34.6L144.3,34.6z"/>
	<path style="clip-path:url(#SVGID_00000166643820190860343580000005268541961354750649_);fill:#E83471;" d="M144.3,34.6h-0.1h-0.1
		h-0.2h-0.1l0,0h-0.1h-0.1h-0.1h-0.1l-0.1,0h-0.1h-0.1l-0.1,0.1c0,0,0,0-0.1,0l-0.1,0.1l-0.1,0.1c0,0,0,0.1-0.1,0.1l-0.1,0.1V35v0.1
		c0,0,0,0.1,0,0.1v0.1v0.1v0.1c0,0,0,0.1,0,0.1c0,0,0,0.1,0,0.1c0,0,0,0.1,0,0.1s0,0,0,0.1c0,0,0,0.1,0,0.1V36c0,0,0,0.1,0,0.1
		c0,0,0,0,0,0.1s0,0.1,0,0.1s0,0,0,0.1l0,0l0,0v0.1v0.1v0.1c0,0,0,0.1,0,0.1c0,0,0,0,0,0.1v0.1c0,0,0,0,0,0.1L143,37l0.1,0.1
		l0.1,0.1l0.1,0.1h0.1h0.1l0.1,0h0.1h0.1h0.1h0.1h0.1h0.1h0.1h0.6h0.1h0.1h0.1h0.1h0.1h0.1h0.1h0.1h0.1l0.1-0.1h0.1l0.1-0.1l0.1-0.1
		V37c0,0,2323.9,1659.9,0.1-0.1l0.1-0.1v-0.1c0,0,0,0,0-0.1v-0.1v-0.1v-0.1c0,0,0-0.1,0-0.1c0,0,0-0.1,0-0.1s0,0,0-0.1
		c0,0,0-0.1,0-0.1v-0.2c0,0,0-0.1,0-0.1c0,0,0,0,0-0.1s0-0.1,0-0.1s0-0.1,0-0.1l0,0l0,0c0,0,0-0.1,0-0.1v-0.1v-0.1v-0.1
		c0,0,0,0,0-0.1l-0.1-0.1v-0.1c0,0,0,0-0.1-0.1l-0.1-0.1l-0.1-0.1l-0.1-0.1h-0.1c0,0,0,0-0.1,0h-0.1h-0.1h-0.1H145h-0.1h-0.1h-0.1
		h-0.1h-0.2h-0.1L144.3,34.6L144.3,34.6z"/>
	<path style="clip-path:url(#SVGID_00000166643820190860343580000005268541961354750649_);fill:#E83471;" d="M144.3,34.6h-0.1h-0.1
		h-0.2h-0.1l0,0h-0.1h-0.1h-0.1h-0.1l-0.1,0h-0.1h-0.1l-0.1,0.1c0,0,0,0-0.1,0l-0.1,0.1l-0.1,0.1c0,0,0,0.1-0.1,0.1l-0.1,0.1V35v0.1
		c0,0,0,0.1,0,0.1v0.1v0.1v0.1c0,0,0,0.1,0,0.1c0,0,0,0.1,0,0.1c0,0,0,0.1,0,0.1s0,0,0,0.1c0,0,0,0.1,0,0.1V36c0,0,0,0.1,0,0.1
		c0,0,0,0,0,0.1s0,0.1,0,0.1s0,0,0,0.1l0,0l0,0v0.1v0.1v0.1c0,0,0,0.1,0,0.1c0,0,0,0,0,0.1v0.1c0,0,0,0,0,0.1L143,37l0.1,0.1
		l0.1,0.1l0.1,0.1h0.1h0.1l0.1,0h0.1h0.1h0.1h0.1h0.1h0.1h0.1h0.6h0.1h0.1h0.1h0.1h0.1h0.1h0.1h0.1h0.1l0.1-0.1h0.1l0.1-0.1l0.1-0.1
		V37c0,0,2323.9,1659.9,0.1-0.1l0.1-0.1v-0.1c0,0,0,0,0-0.1v-0.1v-0.1v-0.1c0,0,0-0.1,0-0.1c0,0,0-0.1,0-0.1s0,0,0-0.1
		c0,0,0-0.1,0-0.1v-0.2c0,0,0-0.1,0-0.1c0,0,0,0,0-0.1s0-0.1,0-0.1s0-0.1,0-0.1l0,0l0,0c0,0,0-0.1,0-0.1v-0.1v-0.1v-0.1
		c0,0,0,0,0-0.1l-0.1-0.1v-0.1c0,0,0,0-0.1-0.1l-0.1-0.1l-0.1-0.1l-0.1-0.1h-0.1c0,0,0,0-0.1,0h-0.1h-0.1h-0.1H145h-0.1h-0.1h-0.1
		h-0.1h-0.2h-0.1L144.3,34.6L144.3,34.6z"/>
	<path style="clip-path:url(#SVGID_00000166643820190860343580000005268541961354750649_);fill:#E83471;" d="M144.3,34.6h-0.1h-0.1
		h-0.2h-0.1l0,0h-0.1h-0.1h-0.1h-0.1l-0.1,0h-0.1h-0.1l-0.1,0.1c0,0,0,0-0.1,0l-0.1,0.1l-0.1,0.1c0,0,0,0.1-0.1,0.1l-0.1,0.1V35v0.1
		c0,0,0,0.1,0,0.1v0.1v0.1v0.1c0,0,0,0.1,0,0.1c0,0,0,0.1,0,0.1c0,0,0,0.1,0,0.1s0,0,0,0.1c0,0,0,0.1,0,0.1V36c0,0,0,0.1,0,0.1
		c0,0,0,0,0,0.1s0,0.1,0,0.1s0,0,0,0.1l0,0l0,0v0.1v0.1v0.1c0,0,0,0.1,0,0.1c0,0,0,0,0,0.1v0.1c0,0,0,0,0,0.1L143,37l0.1,0.1
		l0.1,0.1l0.1,0.1h0.1h0.1l0.1,0h0.1h0.1h0.1h0.1h0.1h0.1h0.1h0.6h0.1h0.1h0.1h0.1h0.1h0.1h0.1h0.1h0.1l0.1-0.1h0.1l0.1-0.1l0.1-0.1
		V37c0,0,2323.9,1659.9,0.1-0.1l0.1-0.1v-0.1c0,0,0,0,0-0.1v-0.1v-0.1v-0.1c0,0,0-0.1,0-0.1c0,0,0-0.1,0-0.1s0,0,0-0.1
		c0,0,0-0.1,0-0.1v-0.2c0,0,0-0.1,0-0.1c0,0,0,0,0-0.1s0-0.1,0-0.1s0-0.1,0-0.1l0,0l0,0c0,0,0-0.1,0-0.1v-0.1v-0.1v-0.1
		c0,0,0,0,0-0.1l-0.1-0.1v-0.1c0,0,0,0-0.1-0.1l-0.1-0.1l-0.1-0.1l-0.1-0.1h-0.1c0,0,0,0-0.1,0h-0.1h-0.1h-0.1H145h-0.1h-0.1h-0.1
		h-0.1h-0.2h-0.1L144.3,34.6L144.3,34.6z"/>
	<path style="clip-path:url(#SVGID_00000166643820190860343580000005268541961354750649_);fill:#E83471;" d="M144.3,34.6h-0.1h-0.1
		h-0.2h-0.1l0,0h-0.1h-0.1h-0.1h-0.1l-0.1,0h-0.1h-0.1l-0.1,0.1c0,0,0,0-0.1,0l-0.1,0.1l-0.1,0.1c0,0,0,0.1-0.1,0.1l-0.1,0.1V35v0.1
		c0,0,0,0.1,0,0.1v0.1v0.1v0.1c0,0,0,0.1,0,0.1c0,0,0,0.1,0,0.1c0,0,0,0.1,0,0.1s0,0,0,0.1c0,0,0,0.1,0,0.1V36c0,0,0,0.1,0,0.1
		c0,0,0,0,0,0.1s0,0.1,0,0.1s0,0,0,0.1l0,0l0,0v0.1v0.1v0.1c0,0,0,0.1,0,0.1c0,0,0,0,0,0.1v0.1c0,0,0,0,0,0.1L143,37l0.1,0.1
		l0.1,0.1l0.1,0.1h0.1h0.1l0.1,0h0.1h0.1h0.1h0.1h0.1h0.1h0.1h0.6h0.1h0.1h0.1h0.1h0.1h0.1h0.1h0.1h0.1l0.1-0.1h0.1l0.1-0.1l0.1-0.1
		V37c0,0,2323.9,1659.9,0.1-0.1l0.1-0.1v-0.1c0,0,0,0,0-0.1v-0.1v-0.1v-0.1c0,0,0-0.1,0-0.1c0,0,0-0.1,0-0.1s0,0,0-0.1
		c0,0,0-0.1,0-0.1v-0.2c0,0,0-0.1,0-0.1c0,0,0,0,0-0.1s0-0.1,0-0.1s0-0.1,0-0.1l0,0l0,0c0,0,0-0.1,0-0.1v-0.1v-0.1v-0.1
		c0,0,0,0,0-0.1l-0.1-0.1v-0.1c0,0,0,0-0.1-0.1l-0.1-0.1l-0.1-0.1l-0.1-0.1h-0.1c0,0,0,0-0.1,0h-0.1h-0.1h-0.1H145h-0.1h-0.1h-0.1
		h-0.1h-0.2h-0.1L144.3,34.6L144.3,34.6z"/>
	<path style="clip-path:url(#SVGID_00000166643820190860343580000005268541961354750649_);fill:#E83471;" d="M144.3,34.6h-0.1h-0.1
		h-0.2h-0.1l0,0h-0.1h-0.1h-0.1h-0.1l-0.1,0h-0.1h-0.1l-0.1,0.1c0,0,0,0-0.1,0l-0.1,0.1l-0.1,0.1c0,0,0,0.1-0.1,0.1l-0.1,0.1V35v0.1
		c0,0,0,0.1,0,0.1v0.1v0.1v0.1c0,0,0,0.1,0,0.1c0,0,0,0.1,0,0.1c0,0,0,0.1,0,0.1s0,0,0,0.1c0,0,0,0.1,0,0.1V36c0,0,0,0.1,0,0.1
		c0,0,0,0,0,0.1s0,0.1,0,0.1s0,0,0,0.1l0,0l0,0v0.1v0.1v0.1c0,0,0,0.1,0,0.1c0,0,0,0,0,0.1v0.1c0,0,0,0,0,0.1L143,37l0.1,0.1
		l0.1,0.1l0.1,0.1h0.1h0.1l0.1,0h0.1h0.1h0.1h0.1h0.1h0.1h0.1h0.6h0.1h0.1h0.1h0.1h0.1h0.1h0.1h0.1h0.1l0.1-0.1h0.1l0.1-0.1l0.1-0.1
		V37c0,0,2323.9,1659.9,0.1-0.1l0.1-0.1v-0.1c0,0,0,0,0-0.1v-0.1v-0.1v-0.1c0,0,0-0.1,0-0.1c0,0,0-0.1,0-0.1s0,0,0-0.1
		c0,0,0-0.1,0-0.1v-0.2c0,0,0-0.1,0-0.1c0,0,0,0,0-0.1s0-0.1,0-0.1s0-0.1,0-0.1l0,0l0,0c0,0,0-0.1,0-0.1v-0.1v-0.1v-0.1
		c0,0,0,0,0-0.1l-0.1-0.1v-0.1c0,0,0,0-0.1-0.1l-0.1-0.1l-0.1-0.1l-0.1-0.1h-0.1c0,0,0,0-0.1,0h-0.1h-0.1h-0.1H145h-0.1h-0.1h-0.1
		h-0.1h-0.2h-0.1L144.3,34.6L144.3,34.6z"/>
	<path style="clip-path:url(#SVGID_00000166643820190860343580000005268541961354750649_);fill:#E83471;" d="M144.3,34.6h-0.1h-0.1
		h-0.2h-0.1l0,0h-0.1h-0.1h-0.1h-0.1l-0.1,0h-0.1h-0.1l-0.1,0.1c0,0,0,0-0.1,0l-0.1,0.1l-0.1,0.1c0,0,0,0.1-0.1,0.1l-0.1,0.1V35v0.1
		c0,0,0,0.1,0,0.1v0.1v0.1v0.1c0,0,0,0.1,0,0.1c0,0,0,0.1,0,0.1c0,0,0,0.1,0,0.1s0,0,0,0.1c0,0,0,0.1,0,0.1V36c0,0,0,0.1,0,0.1
		c0,0,0,0,0,0.1s0,0.1,0,0.1s0,0,0,0.1l0,0l0,0v0.1v0.1v0.1c0,0,0,0.1,0,0.1c0,0,0,0,0,0.1v0.1c0,0,0,0,0,0.1L143,37l0.1,0.1
		l0.1,0.1l0.1,0.1h0.1h0.1l0.1,0h0.1h0.1h0.1h0.1h0.1h0.1h0.1h0.6h0.1h0.1h0.1h0.1h0.1h0.1h0.1h0.1h0.1l0.1-0.1h0.1l0.1-0.1l0.1-0.1
		V37c0,0,2323.9,1659.9,0.1-0.1l0.1-0.1v-0.1c0,0,0,0,0-0.1v-0.1v-0.1v-0.1c0,0,0-0.1,0-0.1c0,0,0-0.1,0-0.1s0,0,0-0.1
		c0,0,0-0.1,0-0.1v-0.2c0,0,0-0.1,0-0.1c0,0,0,0,0-0.1s0-0.1,0-0.1s0-0.1,0-0.1l0,0l0,0c0,0,0-0.1,0-0.1v-0.1v-0.1v-0.1
		c0,0,0,0,0-0.1l-0.1-0.1v-0.1c0,0,0,0-0.1-0.1l-0.1-0.1l-0.1-0.1l-0.1-0.1h-0.1c0,0,0,0-0.1,0h-0.1h-0.1h-0.1H145h-0.1h-0.1h-0.1
		h-0.1h-0.2h-0.1L144.3,34.6L144.3,34.6z"/>
	<path style="clip-path:url(#SVGID_00000166643820190860343580000005268541961354750649_);fill:#E83471;" d="M144.3,34.6h-0.1h-0.1
		h-0.2h-0.1l0,0h-0.1h-0.1h-0.1h-0.1l-0.1,0h-0.1h-0.1l-0.1,0.1c0,0,0,0-0.1,0l-0.1,0.1l-0.1,0.1c0,0,0,0.1-0.1,0.1l-0.1,0.1V35v0.1
		c0,0,0,0.1,0,0.1v0.1v0.1v0.1c0,0,0,0.1,0,0.1c0,0,0,0.1,0,0.1c0,0,0,0.1,0,0.1s0,0,0,0.1c0,0,0,0.1,0,0.1V36c0,0,0,0.1,0,0.1
		c0,0,0,0,0,0.1s0,0.1,0,0.1s0,0,0,0.1l0,0l0,0v0.1v0.1v0.1c0,0,0,0.1,0,0.1c0,0,0,0,0,0.1v0.1c0,0,0,0,0,0.1L143,37l0.1,0.1
		l0.1,0.1l0.1,0.1h0.1h0.1l0.1,0h0.1h0.1h0.1h0.1h0.1h0.1h0.1h0.6h0.1h0.1h0.1h0.1h0.1h0.1h0.1h0.1h0.1l0.1-0.1h0.1l0.1-0.1l0.1-0.1
		V37c0,0,2323.9,1659.9,0.1-0.1l0.1-0.1v-0.1c0,0,0,0,0-0.1v-0.1v-0.1v-0.1c0,0,0-0.1,0-0.1c0,0,0-0.1,0-0.1s0,0,0-0.1
		c0,0,0-0.1,0-0.1v-0.2c0,0,0-0.1,0-0.1c0,0,0,0,0-0.1s0-0.1,0-0.1s0-0.1,0-0.1l0,0l0,0c0,0,0-0.1,0-0.1v-0.1v-0.1v-0.1
		c0,0,0,0,0-0.1l-0.1-0.1v-0.1c0,0,0,0-0.1-0.1l-0.1-0.1l-0.1-0.1l-0.1-0.1h-0.1c0,0,0,0-0.1,0h-0.1h-0.1h-0.1H145h-0.1h-0.1h-0.1
		h-0.1h-0.2h-0.1L144.3,34.6L144.3,34.6z"/>
	<path style="clip-path:url(#SVGID_00000166643820190860343580000005268541961354750649_);fill:#E83471;" d="M144.3,34.6h-0.1h-0.1
		h-0.2h-0.1l0,0h-0.1h-0.1h-0.1h-0.1l-0.1,0h-0.1h-0.1l-0.1,0.1c0,0,0,0-0.1,0l-0.1,0.1l-0.1,0.1c0,0,0,0.1-0.1,0.1l-0.1,0.1V35v0.1
		c0,0,0,0.1,0,0.1v0.1v0.1v0.1c0,0,0,0.1,0,0.1c0,0,0,0.1,0,0.1c0,0,0,0.1,0,0.1s0,0,0,0.1c0,0,0,0.1,0,0.1V36c0,0,0,0.1,0,0.1
		c0,0,0,0,0,0.1s0,0.1,0,0.1s0,0,0,0.1l0,0l0,0v0.1v0.1v0.1c0,0,0,0.1,0,0.1c0,0,0,0,0,0.1v0.1c0,0,0,0,0,0.1L143,37l0.1,0.1
		l0.1,0.1l0.1,0.1h0.1h0.1l0.1,0h0.1h0.1h0.1h0.1h0.1h0.1h0.1h0.6h0.1h0.1h0.1h0.1h0.1h0.1h0.1h0.1h0.1l0.1-0.1h0.1l0.1-0.1l0.1-0.1
		V37c0,0,2323.9,1659.9,0.1-0.1l0.1-0.1v-0.1c0,0,0,0,0-0.1v-0.1v-0.1v-0.1c0,0,0-0.1,0-0.1c0,0,0-0.1,0-0.1s0,0,0-0.1
		c0,0,0-0.1,0-0.1v-0.2c0,0,0-0.1,0-0.1c0,0,0,0,0-0.1s0-0.1,0-0.1s0-0.1,0-0.1l0,0l0,0c0,0,0-0.1,0-0.1v-0.1v-0.1v-0.1
		c0,0,0,0,0-0.1l-0.1-0.1v-0.1c0,0,0,0-0.1-0.1l-0.1-0.1l-0.1-0.1l-0.1-0.1h-0.1c0,0,0,0-0.1,0h-0.1h-0.1h-0.1H145h-0.1h-0.1h-0.1
		h-0.1h-0.2h-0.1L144.3,34.6L144.3,34.6z"/>
	<path style="clip-path:url(#SVGID_00000166643820190860343580000005268541961354750649_);fill:#E83471;" d="M144.3,34.6h-0.1h-0.1
		h-0.2h-0.1l0,0h-0.1h-0.1h-0.1h-0.1l-0.1,0h-0.1h-0.1l-0.1,0.1c0,0,0,0-0.1,0l-0.1,0.1l-0.1,0.1c0,0,0,0.1-0.1,0.1l-0.1,0.1V35v0.1
		c0,0,0,0.1,0,0.1v0.1v0.1v0.1c0,0,0,0.1,0,0.1c0,0,0,0.1,0,0.1c0,0,0,0.1,0,0.1s0,0,0,0.1c0,0,0,0.1,0,0.1V36c0,0,0,0.1,0,0.1
		c0,0,0,0,0,0.1s0,0.1,0,0.1s0,0,0,0.1l0,0l0,0v0.1v0.1v0.1c0,0,0,0.1,0,0.1c0,0,0,0,0,0.1v0.1c0,0,0,0,0,0.1L143,37l0.1,0.1
		l0.1,0.1l0.1,0.1h0.1h0.1l0.1,0h0.1h0.1h0.1h0.1h0.1h0.1h0.1h0.6h0.1h0.1h0.1h0.1h0.1h0.1h0.1h0.1h0.1l0.1-0.1h0.1l0.1-0.1l0.1-0.1
		V37c0,0,2323.9,1659.9,0.1-0.1l0.1-0.1v-0.1c0,0,0,0,0-0.1v-0.1v-0.1v-0.1c0,0,0-0.1,0-0.1c0,0,0-0.1,0-0.1s0,0,0-0.1
		c0,0,0-0.1,0-0.1v-0.2c0,0,0-0.1,0-0.1c0,0,0,0,0-0.1s0-0.1,0-0.1s0-0.1,0-0.1l0,0l0,0c0,0,0-0.1,0-0.1v-0.1v-0.1v-0.1
		c0,0,0,0,0-0.1l-0.1-0.1v-0.1c0,0,0,0-0.1-0.1l-0.1-0.1l-0.1-0.1l-0.1-0.1h-0.1c0,0,0,0-0.1,0h-0.1h-0.1h-0.1H145h-0.1h-0.1h-0.1
		h-0.1h-0.2h-0.1L144.3,34.6L144.3,34.6z"/>
	<path style="clip-path:url(#SVGID_00000166643820190860343580000005268541961354750649_);fill:#E83471;" d="M144.3,34.6h-0.1h-0.1
		h-0.2h-0.1l0,0h-0.1h-0.1h-0.1h-0.1l-0.1,0h-0.1h-0.1l-0.1,0.1c0,0,0,0-0.1,0l-0.1,0.1l-0.1,0.1c0,0,0,0.1-0.1,0.1l-0.1,0.1V35v0.1
		c0,0,0,0.1,0,0.1v0.1v0.1v0.1c0,0,0,0.1,0,0.1c0,0,0,0.1,0,0.1c0,0,0,0.1,0,0.1s0,0,0,0.1c0,0,0,0.1,0,0.1V36c0,0,0,0.1,0,0.1
		c0,0,0,0,0,0.1s0,0.1,0,0.1s0,0,0,0.1l0,0l0,0v0.1v0.1v0.1c0,0,0,0.1,0,0.1c0,0,0,0,0,0.1v0.1c0,0,0,0,0,0.1L143,37l0.1,0.1
		l0.1,0.1l0.1,0.1h0.1h0.1l0.1,0h0.1h0.1h0.1h0.1h0.1h0.1h0.1h0.2h0.1h0.2h0.1h0.2h0.1l0,0h0.1h0.1h0.1h0.1h0.1h0.1h0.1l0.1-0.1h0.1
		l0.1-0.1l0.1-0.1V37c0,0,2323.9,1659.9,0.1-0.1l0.1-0.1v-0.1c0,0,0-0.1,0-0.1v-0.1v-0.1v-0.1c0,0,0-0.1,0-0.1c0,0,0-0.1,0-0.1
		s0-0.1,0-0.1c0,0,0-0.1,0-0.1v-0.2c0,0,0-0.1,0-0.1c0,0,0,0,0-0.1s0-0.1,0-0.1s0,0,0-0.1l0,0l0,0c0,0,0-0.1,0-0.1v-0.1v-0.1v-0.1
		c0,0,0,0,0-0.1l-0.1-0.1v-0.1l-0.1-0.1l-0.1-0.1l-0.1-0.1l-0.1-0.1h-0.1l-0.1,0h-0.1h-0.1h-0.1H145h-0.1h-0.1h-0.1h-0.1h-0.1
		L144.3,34.6L144.3,34.6z"/>
	<path style="clip-path:url(#SVGID_00000166643820190860343580000005268541961354750649_);fill:#E83471;" d="M144.3,34.6h-0.1h-0.1
		h-0.2h-0.1l0,0h-0.1h-0.1h-0.1h-0.1l-0.1,0h-0.1h-0.1l-0.1,0.1c0,0,0,0-0.1,0l-0.1,0.1l-0.1,0.1c0,0,0,0.1-0.1,0.1l-0.1,0.1V35v0.1
		c0,0,0,0.1,0,0.1v0.1v0.1v0.1c0,0,0,0.1,0,0.1c0,0,0,0.1,0,0.1c0,0,0,0.1,0,0.1s0,0,0,0.1c0,0,0,0.1,0,0.1V36c0,0,0,0.1,0,0.1
		c0,0,0,0,0,0.1s0,0.1,0,0.1s0,0,0,0.1l0,0l0,0v0.1v0.1v0.1c0,0,0,0.1,0,0.1c0,0,0,0,0,0.1v0.1c0,0,0,0,0,0.1L143,37l0.1,0.1
		l0.1,0.1l0.1,0.1h0.1h0.1l0.1,0h0.1h0.1h0.1h0.1h0.1h0.1h0.1h0.6h0.1h0.1h0.1h0.1h0.1h0.1h0.1h0.1h0.1l0.1-0.1h0.1l0.1-0.1l0.1-0.1
		V37c0,0,2323.9,1659.9,0.1-0.1l0.1-0.1v-0.1c0,0,0,0,0-0.1v-0.1v-0.1v-0.1c0,0,0-0.1,0-0.1c0,0,0-0.1,0-0.1s0,0,0-0.1
		c0,0,0-0.1,0-0.1v-0.2c0,0,0-0.1,0-0.1c0,0,0,0,0-0.1s0-0.1,0-0.1s0-0.1,0-0.1l0,0l0,0c0,0,0-0.1,0-0.1v-0.1v-0.1v-0.1
		c0,0,0,0,0-0.1l-0.1-0.1v-0.1c0,0,0,0-0.1-0.1l-0.1-0.1l-0.1-0.1l-0.1-0.1h-0.1c0,0,0,0-0.1,0h-0.1h-0.1h-0.1H145h-0.1h-0.1h-0.1
		h-0.1h-0.2h-0.1L144.3,34.6L144.3,34.6z"/>
	<path style="clip-path:url(#SVGID_00000166643820190860343580000005268541961354750649_);fill:#E83471;" d="M144.3,34.6h-0.1h-0.1
		h-0.2h-0.1l0,0h-0.1h-0.1h-0.1h-0.1l-0.1,0h-0.1h-0.1l-0.1,0.1c0,0,0,0-0.1,0l-0.1,0.1l-0.1,0.1c0,0,0,0.1-0.1,0.1l-0.1,0.1V35v0.1
		c0,0,0,0.1,0,0.1v0.1v0.1v0.1c0,0,0,0.1,0,0.1c0,0,0,0.1,0,0.1c0,0,0,0.1,0,0.1s0,0,0,0.1c0,0,0,0.1,0,0.1V36c0,0,0,0.1,0,0.1
		c0,0,0,0,0,0.1s0,0.1,0,0.1s0,0,0,0.1l0,0l0,0v0.1v0.1v0.1c0,0,0,0.1,0,0.1c0,0,0,0,0,0.1v0.1c0,0,0,0,0,0.1L143,37l0.1,0.1
		l0.1,0.1l0.1,0.1h0.1h0.1l0.1,0h0.1h0.1h0.1h0.1h0.1h0.1h0.1h0.6h0.1h0.1h0.1h0.1h0.1h0.1h0.1h0.1h0.1l0.1-0.1h0.1l0.1-0.1l0.1-0.1
		V37c0,0,2323.9,1659.9,0.1-0.1l0.1-0.1v-0.1c0,0,0,0,0-0.1v-0.1v-0.1v-0.1c0,0,0-0.1,0-0.1c0,0,0-0.1,0-0.1s0,0,0-0.1
		c0,0,0-0.1,0-0.1v-0.2c0,0,0-0.1,0-0.1c0,0,0,0,0-0.1s0-0.1,0-0.1s0-0.1,0-0.1l0,0l0,0c0,0,0-0.1,0-0.1v-0.1v-0.1v-0.1
		c0,0,0,0,0-0.1l-0.1-0.1v-0.1c0,0,0,0-0.1-0.1l-0.1-0.1l-0.1-0.1l-0.1-0.1h-0.1c0,0,0,0-0.1,0h-0.1h-0.1h-0.1H145h-0.1h-0.1h-0.1
		h-0.1h-0.2h-0.1L144.3,34.6L144.3,34.6z"/>
	<path style="clip-path:url(#SVGID_00000166643820190860343580000005268541961354750649_);fill:#E83471;" d="M144.3,34.6h-0.1h-0.1
		h-0.2h-0.1l0,0h-0.1h-0.1h-0.1h-0.1l-0.1,0h-0.1h-0.1l-0.1,0.1c0,0,0,0-0.1,0l-0.1,0.1l-0.1,0.1c0,0,0,0.1-0.1,0.1l-0.1,0.1V35v0.1
		c0,0,0,0.1,0,0.1v0.1v0.1v0.1c0,0,0,0.1,0,0.1c0,0,0,0.1,0,0.1c0,0,0,0.1,0,0.1s0,0,0,0.1c0,0,0,0.1,0,0.1V36c0,0,0,0.1,0,0.1
		c0,0,0,0,0,0.1s0,0.1,0,0.1s0,0,0,0.1l0,0l0,0v0.1v0.1v0.1c0,0,0,0.1,0,0.1c0,0,0,0,0,0.1v0.1c0,0,0,0,0,0.1L143,37l0.1,0.1
		l0.1,0.1l0.1,0.1h0.1h0.1l0.1,0h0.1h0.1h0.1h0.1h0.1h0.1h0.1h0.6h0.1h0.1h0.1h0.1h0.1h0.1h0.1h0.1h0.1l0.1-0.1h0.1l0.1-0.1l0.1-0.1
		V37c0,0,2323.9,1659.9,0.1-0.1l0.1-0.1v-0.1c0,0,0,0,0-0.1v-0.1v-0.1v-0.1c0,0,0-0.1,0-0.1c0,0,0-0.1,0-0.1s0,0,0-0.1
		c0,0,0-0.1,0-0.1v-0.2c0,0,0-0.1,0-0.1c0,0,0,0,0-0.1s0-0.1,0-0.1s0-0.1,0-0.1l0,0l0,0c0,0,0-0.1,0-0.1v-0.1v-0.1v-0.1
		c0,0,0,0,0-0.1l-0.1-0.1v-0.1c0,0,0,0-0.1-0.1l-0.1-0.1l-0.1-0.1l-0.1-0.1h-0.1c0,0,0,0-0.1,0h-0.1h-0.1h-0.1H145h-0.1h-0.1h-0.1
		h-0.1h-0.2h-0.1L144.3,34.6L144.3,34.6z"/>
	<path style="clip-path:url(#SVGID_00000166643820190860343580000005268541961354750649_);fill:#E83471;" d="M144.3,34.6h-0.1h-0.1
		h-0.2h-0.1l0,0h-0.1h-0.1h-0.1h-0.1l-0.1,0h-0.1h-0.1l-0.1,0.1c0,0,0,0-0.1,0l-0.1,0.1l-0.1,0.1c0,0,0,0.1-0.1,0.1l-0.1,0.1V35v0.1
		c0,0,0,0.1,0,0.1v0.1v0.1v0.1c0,0,0,0.1,0,0.1c0,0,0,0.1,0,0.1c0,0,0,0.1,0,0.1s0,0,0,0.1c0,0,0,0.1,0,0.1V36c0,0,0,0.1,0,0.1
		c0,0,0,0,0,0.1s0,0.1,0,0.1s0,0,0,0.1l0,0l0,0v0.1v0.1v0.1c0,0,0,0.1,0,0.1c0,0,0,0,0,0.1v0.1c0,0,0,0,0,0.1L143,37l0.1,0.1
		l0.1,0.1l0.1,0.1h0.1h0.1l0.1,0h0.1h0.1h0.1h0.1h0.1h0.1h0.1h0.6h0.1h0.1h0.1h0.1h0.1h0.1h0.1h0.1h0.1l0.1-0.1h0.1l0.1-0.1l0.1-0.1
		V37c0,0,2323.9,1659.9,0.1-0.1l0.1-0.1v-0.1c0,0,0,0,0-0.1v-0.1v-0.1v-0.1c0,0,0-0.1,0-0.1c0,0,0-0.1,0-0.1s0,0,0-0.1
		c0,0,0-0.1,0-0.1v-0.2c0,0,0-0.1,0-0.1c0,0,0,0,0-0.1s0-0.1,0-0.1s0-0.1,0-0.1l0,0l0,0c0,0,0-0.1,0-0.1v-0.1v-0.1v-0.1
		c0,0,0,0,0-0.1l-0.1-0.1v-0.1c0,0,0,0-0.1-0.1l-0.1-0.1l-0.1-0.1l-0.1-0.1h-0.1c0,0,0,0-0.1,0h-0.1h-0.1h-0.1H145h-0.1h-0.1h-0.1
		h-0.1h-0.2h-0.1L144.3,34.6L144.3,34.6z"/>
	<path style="clip-path:url(#SVGID_00000166643820190860343580000005268541961354750649_);fill:#E83471;" d="M144.3,34.6h-0.1h-0.1
		h-0.2h-0.1l0,0h-0.1h-0.1h-0.1h-0.1l-0.1,0h-0.1h-0.1l-0.1,0.1c0,0,0,0-0.1,0l-0.1,0.1l-0.1,0.1c0,0,0,0.1-0.1,0.1l-0.1,0.1V35v0.1
		c0,0,0,0.1,0,0.1v0.1v0.1v0.1c0,0,0,0.1,0,0.1c0,0,0,0.1,0,0.1c0,0,0,0.1,0,0.1s0,0,0,0.1c0,0,0,0.1,0,0.1V36c0,0,0,0.1,0,0.1
		c0,0,0,0,0,0.1s0,0.1,0,0.1s0,0,0,0.1l0,0l0,0v0.1v0.1v0.1c0,0,0,0.1,0,0.1c0,0,0,0,0,0.1v0.1c0,0,0,0,0,0.1L143,37l0.1,0.1
		l0.1,0.1l0.1,0.1h0.1h0.1l0.1,0h0.1h0.1h0.1h0.1h0.1h0.1h0.1h0.6h0.1h0.1h0.1h0.1h0.1h0.1h0.1h0.1h0.1l0.1-0.1h0.1l0.1-0.1l0.1-0.1
		V37c0,0,2323.9,1659.9,0.1-0.1l0.1-0.1v-0.1c0,0,0,0,0-0.1v-0.1v-0.1v-0.1c0,0,0-0.1,0-0.1c0,0,0-0.1,0-0.1s0,0,0-0.1
		c0,0,0-0.1,0-0.1v-0.2c0,0,0-0.1,0-0.1c0,0,0,0,0-0.1s0-0.1,0-0.1s0-0.1,0-0.1l0,0l0,0c0,0,0-0.1,0-0.1v-0.1v-0.1v-0.1
		c0,0,0,0,0-0.1l-0.1-0.1v-0.1c0,0,0,0-0.1-0.1l-0.1-0.1l-0.1-0.1l-0.1-0.1h-0.1c0,0,0,0-0.1,0h-0.1h-0.1h-0.1H145h-0.1h-0.1h-0.1
		h-0.1h-0.2h-0.1L144.3,34.6L144.3,34.6z"/>
	<path style="clip-path:url(#SVGID_00000166643820190860343580000005268541961354750649_);fill:#E83471;" d="M144.3,34.6h-0.1h-0.1
		h-0.2h-0.1l0,0h-0.1h-0.1h-0.1h-0.1l-0.1,0h-0.1h-0.1l-0.1,0.1c0,0,0,0-0.1,0l-0.1,0.1l-0.1,0.1c0,0,0,0.1-0.1,0.1l-0.1,0.1V35v0.1
		c0,0,0,0.1,0,0.1v0.1v0.1v0.1c0,0,0,0.1,0,0.1c0,0,0,0.1,0,0.1c0,0,0,0.1,0,0.1s0,0,0,0.1c0,0,0,0.1,0,0.1V36c0,0,0,0.1,0,0.1
		c0,0,0,0,0,0.1s0,0.1,0,0.1s0,0,0,0.1l0,0l0,0v0.1v0.1v0.1c0,0,0,0.1,0,0.1c0,0,0,0,0,0.1v0.1c0,0,0,0,0,0.1L143,37l0.1,0.1
		l0.1,0.1l0.1,0.1h0.1h0.1l0.1,0h0.1h0.1h0.1h0.1h0.1h0.1h0.1h0.6h0.1h0.1h0.1h0.1h0.1h0.1h0.1h0.1h0.1l0.1-0.1h0.1l0.1-0.1l0.1-0.1
		V37c0,0,2323.9,1659.9,0.1-0.1l0.1-0.1v-0.1c0,0,0,0,0-0.1v-0.1v-0.1v-0.1c0,0,0-0.1,0-0.1c0,0,0-0.1,0-0.1s0,0,0-0.1
		c0,0,0-0.1,0-0.1v-0.2c0,0,0-0.1,0-0.1c0,0,0,0,0-0.1s0-0.1,0-0.1s0-0.1,0-0.1l0,0l0,0c0,0,0-0.1,0-0.1v-0.1v-0.1v-0.1
		c0,0,0,0,0-0.1l-0.1-0.1v-0.1c0,0,0,0-0.1-0.1l-0.1-0.1l-0.1-0.1l-0.1-0.1h-0.1c0,0,0,0-0.1,0h-0.1h-0.1h-0.1H145h-0.1h-0.1h-0.1
		h-0.1h-0.2h-0.1L144.3,34.6L144.3,34.6z"/>
	<path style="clip-path:url(#SVGID_00000166643820190860343580000005268541961354750649_);fill:#E83471;" d="M144.3,34.6h-0.1h-0.1
		h-0.2h-0.1l0,0h-0.1h-0.1h-0.1h-0.1l-0.1,0h-0.1h-0.1l-0.1,0.1c0,0,0,0-0.1,0l-0.1,0.1l-0.1,0.1c0,0,0,0.1-0.1,0.1l-0.1,0.1V35v0.1
		c0,0,0,0.1,0,0.1v0.1v0.1v0.1c0,0,0,0.1,0,0.1c0,0,0,0.1,0,0.1c0,0,0,0.1,0,0.1s0,0,0,0.1c0,0,0,0.1,0,0.1V36c0,0,0,0.1,0,0.1
		c0,0,0,0,0,0.1s0,0.1,0,0.1s0,0,0,0.1l0,0l0,0v0.1v0.1v0.1c0,0,0,0.1,0,0.1c0,0,0,0,0,0.1v0.1c0,0,0,0,0,0.1L143,37l0.1,0.1
		l0.1,0.1l0.1,0.1h0.1h0.1l0.1,0h0.1h0.1h0.1h0.1h0.1h0.1h0.1h0.6h0.1h0.1h0.1h0.1h0.1h0.1h0.1h0.1h0.1l0.1-0.1h0.1l0.1-0.1l0.1-0.1
		V37c0,0,2323.9,1659.9,0.1-0.1l0.1-0.1v-0.1c0,0,0,0,0-0.1v-0.1v-0.1v-0.1c0,0,0-0.1,0-0.1c0,0,0-0.1,0-0.1s0,0,0-0.1
		c0,0,0-0.1,0-0.1v-0.2c0,0,0-0.1,0-0.1c0,0,0,0,0-0.1s0-0.1,0-0.1s0-0.1,0-0.1l0,0l0,0c0,0,0-0.1,0-0.1v-0.1v-0.1v-0.1
		c0,0,0,0,0-0.1l-0.1-0.1v-0.1c0,0,0,0-0.1-0.1l-0.1-0.1l-0.1-0.1l-0.1-0.1h-0.1c0,0,0,0-0.1,0h-0.1h-0.1h-0.1H145h-0.1h-0.1h-0.1
		h-0.1h-0.2h-0.1L144.3,34.6L144.3,34.6z"/>
	<path style="clip-path:url(#SVGID_00000166643820190860343580000005268541961354750649_);fill:#E83471;" d="M144.3,34.6h-0.1h-0.1
		h-0.2h-0.1l0,0h-0.1h-0.1h-0.1h-0.1l-0.1,0h-0.1h-0.1l-0.1,0.1c0,0,0,0-0.1,0l-0.1,0.1l-0.1,0.1c0,0,0,0.1-0.1,0.1l-0.1,0.1V35v0.1
		c0,0,0,0.1,0,0.1v0.1v0.1v0.1c0,0,0,0.1,0,0.1c0,0,0,0.1,0,0.1c0,0,0,0.1,0,0.1s0,0,0,0.1c0,0,0,0.1,0,0.1V36c0,0,0,0.1,0,0.1
		c0,0,0,0,0,0.1s0,0.1,0,0.1s0,0,0,0.1l0,0l0,0v0.1v0.1v0.1c0,0,0,0.1,0,0.1c0,0,0,0,0,0.1v0.1c0,0,0,0,0,0.1L143,37l0.1,0.1
		l0.1,0.1l0.1,0.1h0.1h0.1l0.1,0h0.1h0.1h0.1h0.1h0.1h0.1h0.1h0.6h0.1h0.1h0.1h0.1h0.1h0.1h0.1h0.1h0.1l0.1-0.1h0.1l0.1-0.1l0.1-0.1
		V37c0,0,2323.9,1659.9,0.1-0.1l0.1-0.1v-0.1c0,0,0,0,0-0.1v-0.1v-0.1v-0.1c0,0,0-0.1,0-0.1c0,0,0-0.1,0-0.1s0,0,0-0.1
		c0,0,0-0.1,0-0.1v-0.2c0,0,0-0.1,0-0.1c0,0,0,0,0-0.1s0-0.1,0-0.1s0-0.1,0-0.1l0,0l0,0c0,0,0-0.1,0-0.1v-0.1v-0.1v-0.1
		c0,0,0,0,0-0.1l-0.1-0.1v-0.1c0,0,0,0-0.1-0.1l-0.1-0.1l-0.1-0.1l-0.1-0.1h-0.1c0,0,0,0-0.1,0h-0.1h-0.1h-0.1H145h-0.1h-0.1h-0.1
		h-0.1h-0.2h-0.1L144.3,34.6L144.3,34.6z"/>
	<path style="clip-path:url(#SVGID_00000166643820190860343580000005268541961354750649_);fill:#E83471;" d="M144.3,34.6h-0.1h-0.1
		h-0.2h-0.1l0,0h-0.1h-0.1h-0.1h-0.1l-0.1,0h-0.1h-0.1l-0.1,0.1c0,0,0,0-0.1,0l-0.1,0.1l-0.1,0.1c0,0,0,0.1-0.1,0.1l-0.1,0.1V35v0.1
		c0,0,0,0.1,0,0.1v0.1v0.1v0.1c0,0,0,0.1,0,0.1c0,0,0,0.1,0,0.1c0,0,0,0.1,0,0.1s0,0,0,0.1c0,0,0,0.1,0,0.1V36c0,0,0,0.1,0,0.1
		c0,0,0,0,0,0.1s0,0.1,0,0.1s0,0,0,0.1l0,0l0,0v0.1v0.1v0.1c0,0,0,0.1,0,0.1c0,0,0,0,0,0.1v0.1c0,0,0,0,0,0.1L143,37l0.1,0.1
		l0.1,0.1l0.1,0.1h0.1h0.1l0.1,0h0.1h0.1h0.1h0.1h0.1h0.1h0.1h0.6h0.1h0.1h0.1h0.1h0.1h0.1h0.1h0.1h0.1l0.1-0.1h0.1l0.1-0.1l0.1-0.1
		V37c0,0,2323.9,1659.9,0.1-0.1l0.1-0.1v-0.1c0,0,0,0,0-0.1v-0.1v-0.1v-0.1c0,0,0-0.1,0-0.1c0,0,0-0.1,0-0.1s0,0,0-0.1
		c0,0,0-0.1,0-0.1v-0.2c0,0,0-0.1,0-0.1c0,0,0,0,0-0.1s0-0.1,0-0.1s0-0.1,0-0.1l0,0l0,0c0,0,0-0.1,0-0.1v-0.1v-0.1v-0.1
		c0,0,0,0,0-0.1l-0.1-0.1v-0.1c0,0,0,0-0.1-0.1l-0.1-0.1l-0.1-0.1l-0.1-0.1h-0.1c0,0,0,0-0.1,0h-0.1h-0.1h-0.1H145h-0.1h-0.1h-0.1
		h-0.1h-0.2h-0.1L144.3,34.6L144.3,34.6z"/>
	<path style="clip-path:url(#SVGID_00000166643820190860343580000005268541961354750649_);fill:#E83471;" d="M144.3,34.6h-0.1h-0.1
		h-0.2h-0.1l0,0h-0.1h-0.1h-0.1h-0.1l-0.1,0h-0.1h-0.1l-0.1,0.1c0,0,0,0-0.1,0l-0.1,0.1l-0.1,0.1c0,0,0,0.1-0.1,0.1l-0.1,0.1V35v0.1
		c0,0,0,0.1,0,0.1v0.1v0.1v0.1c0,0,0,0.1,0,0.1c0,0,0,0.1,0,0.1c0,0,0,0.1,0,0.1s0,0,0,0.1c0,0,0,0.1,0,0.1V36c0,0,0,0.1,0,0.1
		c0,0,0,0,0,0.1s0,0.1,0,0.1s0,0,0,0.1l0,0l0,0v0.1v0.1v0.1c0,0,0,0.1,0,0.1c0,0,0,0,0,0.1v0.1c0,0,0,0,0,0.1L143,37l0.1,0.1
		l0.1,0.1l0.1,0.1h0.1h0.1l0.1,0h0.1h0.1h0.1h0.1h0.1h0.1h0.1h0.2h0.1h0.2h0.1h0.2h0.1l0,0h0.1h0.1h0.1h0.1h0.1h0.1h0.1l0.1-0.1h0.1
		l0.1-0.1l0.1-0.1V37c0,0,2323.9,1659.9,0.1-0.1l0.1-0.1v-0.1c0,0,0-0.1,0-0.1v-0.1v-0.1v-0.1c0,0,0-0.1,0-0.1c0,0,0-0.1,0-0.1
		s0-0.1,0-0.1c0,0,0-0.1,0-0.1v-0.2c0,0,0-0.1,0-0.1c0,0,0,0,0-0.1s0-0.1,0-0.1s0,0,0-0.1l0,0l0,0c0,0,0-0.1,0-0.1v-0.1v-0.1v-0.1
		c0,0,0,0,0-0.1l-0.1-0.1v-0.1l-0.1-0.1l-0.1-0.1l-0.1-0.1l-0.1-0.1h-0.1l-0.1,0h-0.1h-0.1h-0.1H145h-0.1h-0.1h-0.1h-0.1h-0.1
		L144.3,34.6L144.3,34.6z"/>
	<path style="clip-path:url(#SVGID_00000166643820190860343580000005268541961354750649_);fill:#E83471;" d="M144.3,34.6h-0.1h-0.1
		h-0.2h-0.1l0,0h-0.1h-0.1h-0.1h-0.1l-0.1,0h-0.1h-0.1l-0.1,0.1c0,0,0,0-0.1,0l-0.1,0.1l-0.1,0.1c0,0,0,0.1-0.1,0.1l-0.1,0.1V35v0.1
		c0,0,0,0.1,0,0.1v0.1v0.1v0.1c0,0,0,0.1,0,0.1c0,0,0,0.1,0,0.1c0,0,0,0.1,0,0.1s0,0,0,0.1c0,0,0,0.1,0,0.1V36c0,0,0,0.1,0,0.1
		c0,0,0,0,0,0.1s0,0.1,0,0.1s0,0,0,0.1l0,0l0,0v0.1v0.1v0.1c0,0,0,0.1,0,0.1c0,0,0,0,0,0.1v0.1c0,0,0,0,0,0.1L143,37l0.1,0.1
		l0.1,0.1l0.1,0.1h0.1h0.1l0.1,0h0.1h0.1h0.1h0.1h0.1h0.1h0.1h0.6h0.1h0.1h0.1h0.1h0.1h0.1h0.1h0.1h0.1l0.1-0.1h0.1l0.1-0.1l0.1-0.1
		V37c0,0,2323.9,1659.9,0.1-0.1l0.1-0.1v-0.1c0,0,0,0,0-0.1v-0.1v-0.1v-0.1c0,0,0-0.1,0-0.1c0,0,0-0.1,0-0.1s0,0,0-0.1
		c0,0,0-0.1,0-0.1v-0.2c0,0,0-0.1,0-0.1c0,0,0,0,0-0.1s0-0.1,0-0.1s0-0.1,0-0.1l0,0l0,0c0,0,0-0.1,0-0.1v-0.1v-0.1v-0.1
		c0,0,0,0,0-0.1l-0.1-0.1v-0.1c0,0,0,0-0.1-0.1l-0.1-0.1l-0.1-0.1l-0.1-0.1h-0.1c0,0,0,0-0.1,0h-0.1h-0.1h-0.1H145h-0.1h-0.1h-0.1
		h-0.1h-0.2h-0.1L144.3,34.6L144.3,34.6z"/>
	<path style="clip-path:url(#SVGID_00000166643820190860343580000005268541961354750649_);fill:#E83471;" d="M144.3,34.6h-0.1h-0.1
		h-0.2h-0.1l0,0h-0.1h-0.1h-0.1h-0.1l-0.1,0h-0.1h-0.1l-0.1,0.1c0,0,0,0-0.1,0l-0.1,0.1l-0.1,0.1c0,0,0,0.1-0.1,0.1l-0.1,0.1V35v0.1
		c0,0,0,0.1,0,0.1v0.1v0.1v0.1c0,0,0,0.1,0,0.1c0,0,0,0.1,0,0.1c0,0,0,0.1,0,0.1s0,0,0,0.1c0,0,0,0.1,0,0.1V36c0,0,0,0.1,0,0.1
		c0,0,0,0,0,0.1s0,0.1,0,0.1s0,0,0,0.1l0,0l0,0v0.1v0.1v0.1c0,0,0,0.1,0,0.1c0,0,0,0,0,0.1v0.1c0,0,0,0,0,0.1L143,37l0.1,0.1
		l0.1,0.1l0.1,0.1h0.1h0.1l0.1,0h0.1h0.1h0.1h0.1h0.1h0.1h0.1h0.6h0.1h0.1h0.1h0.1h0.1h0.1h0.1h0.1h0.1l0.1-0.1h0.1l0.1-0.1l0.1-0.1
		V37c0,0,2323.9,1659.9,0.1-0.1l0.1-0.1v-0.1c0,0,0,0,0-0.1v-0.1v-0.1v-0.1c0,0,0-0.1,0-0.1c0,0,0-0.1,0-0.1s0,0,0-0.1
		c0,0,0-0.1,0-0.1v-0.2c0,0,0-0.1,0-0.1c0,0,0,0,0-0.1s0-0.1,0-0.1s0-0.1,0-0.1l0,0l0,0c0,0,0-0.1,0-0.1v-0.1v-0.1v-0.1
		c0,0,0,0,0-0.1l-0.1-0.1v-0.1c0,0,0,0-0.1-0.1l-0.1-0.1l-0.1-0.1l-0.1-0.1h-0.1c0,0,0,0-0.1,0h-0.1h-0.1h-0.1H145h-0.1h-0.1h-0.1
		h-0.1h-0.2h-0.1L144.3,34.6L144.3,34.6z"/>
	<path style="clip-path:url(#SVGID_00000166643820190860343580000005268541961354750649_);fill:#E83471;" d="M144.3,34.6h-0.1h-0.1
		h-0.2h-0.1l0,0h-0.1h-0.1h-0.1h-0.1l-0.1,0h-0.1h-0.1l-0.1,0.1c0,0,0,0-0.1,0l-0.1,0.1l-0.1,0.1c0,0,0,0.1-0.1,0.1l-0.1,0.1V35v0.1
		c0,0,0,0.1,0,0.1v0.1v0.1v0.1c0,0,0,0.1,0,0.1c0,0,0,0.1,0,0.1c0,0,0,0.1,0,0.1s0,0,0,0.1c0,0,0,0.1,0,0.1V36c0,0,0,0.1,0,0.1
		c0,0,0,0,0,0.1s0,0.1,0,0.1s0,0,0,0.1l0,0l0,0v0.1v0.1v0.1c0,0,0,0.1,0,0.1c0,0,0,0,0,0.1v0.1c0,0,0,0,0,0.1L143,37l0.1,0.1
		l0.1,0.1l0.1,0.1h0.1h0.1l0.1,0h0.1h0.1h0.1h0.1h0.1h0.1h0.1h0.6h0.1h0.1h0.1h0.1h0.1h0.1h0.1h0.1h0.1l0.1-0.1h0.1l0.1-0.1l0.1-0.1
		V37c0,0,2323.9,1659.9,0.1-0.1l0.1-0.1v-0.1c0,0,0,0,0-0.1v-0.1v-0.1v-0.1c0,0,0-0.1,0-0.1c0,0,0-0.1,0-0.1s0,0,0-0.1
		c0,0,0-0.1,0-0.1v-0.2c0,0,0-0.1,0-0.1c0,0,0,0,0-0.1s0-0.1,0-0.1s0-0.1,0-0.1l0,0l0,0c0,0,0-0.1,0-0.1v-0.1v-0.1v-0.1
		c0,0,0,0,0-0.1l-0.1-0.1v-0.1c0,0,0,0-0.1-0.1l-0.1-0.1l-0.1-0.1l-0.1-0.1h-0.1c0,0,0,0-0.1,0h-0.1h-0.1h-0.1H145h-0.1h-0.1h-0.1
		h-0.1h-0.2h-0.1L144.3,34.6L144.3,34.6z"/>
	<path style="clip-path:url(#SVGID_00000166643820190860343580000005268541961354750649_);fill:#E83471;" d="M144.3,34.6h-0.1h-0.1
		h-0.2h-0.1l0,0h-0.1h-0.1h-0.1h-0.1l-0.1,0h-0.1h-0.1l-0.1,0.1c0,0,0,0-0.1,0l-0.1,0.1l-0.1,0.1c0,0,0,0.1-0.1,0.1l-0.1,0.1V35v0.1
		c0,0,0,0.1,0,0.1v0.1v0.1v0.1c0,0,0,0.1,0,0.1c0,0,0,0.1,0,0.1c0,0,0,0.1,0,0.1s0,0,0,0.1c0,0,0,0.1,0,0.1V36c0,0,0,0.1,0,0.1
		c0,0,0,0,0,0.1s0,0.1,0,0.1s0,0,0,0.1l0,0l0,0v0.1v0.1v0.1c0,0,0,0.1,0,0.1c0,0,0,0,0,0.1v0.1c0,0,0,0,0,0.1L143,37l0.1,0.1
		l0.1,0.1l0.1,0.1h0.1h0.1l0.1,0h0.1h0.1h0.1h0.1h0.1h0.1h0.1h0.6h0.1h0.1h0.1h0.1h0.1h0.1h0.1h0.1h0.1l0.1-0.1h0.1l0.1-0.1l0.1-0.1
		V37c0,0,2323.9,1659.9,0.1-0.1l0.1-0.1v-0.1c0,0,0,0,0-0.1v-0.1v-0.1v-0.1c0,0,0-0.1,0-0.1c0,0,0-0.1,0-0.1s0,0,0-0.1
		c0,0,0-0.1,0-0.1v-0.2c0,0,0-0.1,0-0.1c0,0,0,0,0-0.1s0-0.1,0-0.1s0-0.1,0-0.1l0,0l0,0c0,0,0-0.1,0-0.1v-0.1v-0.1v-0.1
		c0,0,0,0,0-0.1l-0.1-0.1v-0.1c0,0,0,0-0.1-0.1l-0.1-0.1l-0.1-0.1l-0.1-0.1h-0.1c0,0,0,0-0.1,0h-0.1h-0.1h-0.1H145h-0.1h-0.1h-0.1
		h-0.1h-0.2h-0.1L144.3,34.6L144.3,34.6z"/>
	<path style="clip-path:url(#SVGID_00000166643820190860343580000005268541961354750649_);fill:#E83471;" d="M144.3,34.6h-0.1h-0.1
		h-0.2h-0.1l0,0h-0.1h-0.1h-0.1h-0.1l-0.1,0h-0.1h-0.1l-0.1,0.1c0,0,0,0-0.1,0l-0.1,0.1l-0.1,0.1c0,0,0,0.1-0.1,0.1l-0.1,0.1V35v0.1
		c0,0,0,0.1,0,0.1v0.1v0.1v0.1c0,0,0,0.1,0,0.1c0,0,0,0.1,0,0.1c0,0,0,0.1,0,0.1s0,0,0,0.1c0,0,0,0.1,0,0.1V36c0,0,0,0.1,0,0.1
		c0,0,0,0,0,0.1s0,0.1,0,0.1s0,0,0,0.1l0,0l0,0v0.1v0.1v0.1c0,0,0,0.1,0,0.1c0,0,0,0,0,0.1v0.1c0,0,0,0,0,0.1L143,37l0.1,0.1
		l0.1,0.1l0.1,0.1h0.1h0.1l0.1,0h0.1h0.1h0.1h0.1h0.1h0.1h0.1h0.6h0.1h0.1h0.1h0.1h0.1h0.1h0.1h0.1h0.1l0.1-0.1h0.1l0.1-0.1l0.1-0.1
		V37c0,0,2323.9,1659.9,0.1-0.1l0.1-0.1v-0.1c0,0,0,0,0-0.1v-0.1v-0.1v-0.1c0,0,0-0.1,0-0.1c0,0,0-0.1,0-0.1s0,0,0-0.1
		c0,0,0-0.1,0-0.1v-0.2c0,0,0-0.1,0-0.1c0,0,0,0,0-0.1s0-0.1,0-0.1s0-0.1,0-0.1l0,0l0,0c0,0,0-0.1,0-0.1v-0.1v-0.1v-0.1
		c0,0,0,0,0-0.1l-0.1-0.1v-0.1c0,0,0,0-0.1-0.1l-0.1-0.1l-0.1-0.1l-0.1-0.1h-0.1c0,0,0,0-0.1,0h-0.1h-0.1h-0.1H145h-0.1h-0.1h-0.1
		h-0.1h-0.2h-0.1L144.3,34.6L144.3,34.6z"/>
	<path style="clip-path:url(#SVGID_00000166643820190860343580000005268541961354750649_);fill:#E83471;" d="M144.3,34.6h-0.1h-0.1
		h-0.2h-0.1l0,0h-0.1h-0.1h-0.1h-0.1l-0.1,0h-0.1h-0.1l-0.1,0.1c0,0,0,0-0.1,0l-0.1,0.1l-0.1,0.1c0,0,0,0.1-0.1,0.1l-0.1,0.1V35v0.1
		c0,0,0,0.1,0,0.1v0.1v0.1v0.1c0,0,0,0.1,0,0.1c0,0,0,0.1,0,0.1c0,0,0,0.1,0,0.1s0,0,0,0.1c0,0,0,0.1,0,0.1V36c0,0,0,0.1,0,0.1
		c0,0,0,0,0,0.1s0,0.1,0,0.1s0,0,0,0.1l0,0l0,0v0.1v0.1v0.1c0,0,0,0.1,0,0.1c0,0,0,0,0,0.1v0.1c0,0,0,0,0,0.1L143,37l0.1,0.1
		l0.1,0.1l0.1,0.1h0.1h0.1l0.1,0h0.1h0.1h0.1h0.1h0.1h0.1h0.1h0.6h0.1h0.1h0.1h0.1h0.1h0.1h0.1h0.1h0.1l0.1-0.1h0.1l0.1-0.1l0.1-0.1
		V37c0,0,2323.9,1659.9,0.1-0.1l0.1-0.1v-0.1c0,0,0,0,0-0.1v-0.1v-0.1v-0.1c0,0,0-0.1,0-0.1c0,0,0-0.1,0-0.1s0,0,0-0.1
		c0,0,0-0.1,0-0.1v-0.2c0,0,0-0.1,0-0.1c0,0,0,0,0-0.1s0-0.1,0-0.1s0-0.1,0-0.1l0,0l0,0c0,0,0-0.1,0-0.1v-0.1v-0.1v-0.1
		c0,0,0,0,0-0.1l-0.1-0.1v-0.1c0,0,0,0-0.1-0.1l-0.1-0.1l-0.1-0.1l-0.1-0.1h-0.1c0,0,0,0-0.1,0h-0.1h-0.1h-0.1H145h-0.1h-0.1h-0.1
		h-0.1h-0.2h-0.1L144.3,34.6L144.3,34.6z"/>
	<path style="clip-path:url(#SVGID_00000166643820190860343580000005268541961354750649_);fill:#E83471;" d="M144.3,34.6h-0.1h-0.1
		h-0.2h-0.1l0,0h-0.1h-0.1h-0.1h-0.1l-0.1,0h-0.1h-0.1l-0.1,0.1c0,0,0,0-0.1,0l-0.1,0.1l-0.1,0.1c0,0,0,0.1-0.1,0.1l-0.1,0.1V35v0.1
		c0,0,0,0.1,0,0.1v0.1v0.1v0.1c0,0,0,0.1,0,0.1c0,0,0,0.1,0,0.1c0,0,0,0.1,0,0.1s0,0,0,0.1c0,0,0,0.1,0,0.1V36c0,0,0,0.1,0,0.1
		c0,0,0,0,0,0.1s0,0.1,0,0.1s0,0,0,0.1l0,0l0,0v0.1v0.1v0.1c0,0,0,0.1,0,0.1c0,0,0,0,0,0.1v0.1c0,0,0,0,0,0.1L143,37l0.1,0.1
		l0.1,0.1l0.1,0.1h0.1h0.1l0.1,0h0.1h0.1h0.1h0.1h0.1h0.1h0.1h0.6h0.1h0.1h0.1h0.1h0.1h0.1h0.1h0.1h0.1l0.1-0.1h0.1l0.1-0.1l0.1-0.1
		V37c0,0,2323.9,1659.9,0.1-0.1l0.1-0.1v-0.1c0,0,0,0,0-0.1v-0.1v-0.1v-0.1c0,0,0-0.1,0-0.1c0,0,0-0.1,0-0.1s0,0,0-0.1
		c0,0,0-0.1,0-0.1v-0.2c0,0,0-0.1,0-0.1c0,0,0,0,0-0.1s0-0.1,0-0.1s0-0.1,0-0.1l0,0l0,0c0,0,0-0.1,0-0.1v-0.1v-0.1v-0.1
		c0,0,0,0,0-0.1l-0.1-0.1v-0.1c0,0,0,0-0.1-0.1l-0.1-0.1l-0.1-0.1l-0.1-0.1h-0.1c0,0,0,0-0.1,0h-0.1h-0.1h-0.1H145h-0.1h-0.1h-0.1
		h-0.1h-0.2h-0.1L144.3,34.6L144.3,34.6z"/>
	<path style="clip-path:url(#SVGID_00000166643820190860343580000005268541961354750649_);fill:#E83471;" d="M144.3,34.6h-0.1h-0.1
		h-0.2h-0.1l0,0h-0.1h-0.1h-0.1h-0.1l-0.1,0h-0.1h-0.1l-0.1,0.1c0,0,0,0-0.1,0l-0.1,0.1l-0.1,0.1c0,0,0,0.1-0.1,0.1l-0.1,0.1V35v0.1
		c0,0,0,0.1,0,0.1v0.1v0.1v0.1c0,0,0,0.1,0,0.1c0,0,0,0.1,0,0.1c0,0,0,0.1,0,0.1s0,0,0,0.1c0,0,0,0.1,0,0.1V36c0,0,0,0.1,0,0.1
		c0,0,0,0,0,0.1s0,0.1,0,0.1s0,0,0,0.1l0,0l0,0v0.1v0.1v0.1c0,0,0,0.1,0,0.1c0,0,0,0,0,0.1v0.1c0,0,0,0,0,0.1L143,37l0.1,0.1
		l0.1,0.1l0.1,0.1h0.1h0.1l0.1,0h0.1h0.1h0.1h0.1h0.1h0.1h0.1h0.6h0.1h0.1h0.1h0.1h0.1h0.1h0.1h0.1h0.1l0.1-0.1h0.1l0.1-0.1l0.1-0.1
		V37c0,0,2323.9,1659.9,0.1-0.1l0.1-0.1v-0.1c0,0,0,0,0-0.1v-0.1v-0.1v-0.1c0,0,0-0.1,0-0.1c0,0,0-0.1,0-0.1s0,0,0-0.1
		c0,0,0-0.1,0-0.1v-0.2c0,0,0-0.1,0-0.1c0,0,0,0,0-0.1s0-0.1,0-0.1s0-0.1,0-0.1l0,0l0,0c0,0,0-0.1,0-0.1v-0.1v-0.1v-0.1
		c0,0,0,0,0-0.1l-0.1-0.1v-0.1c0,0,0,0-0.1-0.1l-0.1-0.1l-0.1-0.1l-0.1-0.1h-0.1c0,0,0,0-0.1,0h-0.1h-0.1h-0.1H145h-0.1h-0.1h-0.1
		h-0.1h-0.2h-0.1L144.3,34.6L144.3,34.6z"/>
	<path style="clip-path:url(#SVGID_00000166643820190860343580000005268541961354750649_);fill:#E83471;" d="M144.3,34.6h-0.1h-0.1
		h-0.2h-0.1l0,0h-0.1h-0.1h-0.1h-0.1l-0.1,0h-0.1h-0.1l-0.1,0.1c0,0,0,0-0.1,0l-0.1,0.1l-0.1,0.1c0,0,0,0.1-0.1,0.1l-0.1,0.1V35v0.1
		c0,0,0,0.1,0,0.1v0.1v0.1v0.1c0,0,0,0.1,0,0.1c0,0,0,0.1,0,0.1c0,0,0,0.1,0,0.1s0,0,0,0.1c0,0,0,0.1,0,0.1V36c0,0,0,0.1,0,0.1
		c0,0,0,0,0,0.1s0,0.1,0,0.1s0,0,0,0.1l0,0l0,0v0.1v0.1v0.1c0,0,0,0.1,0,0.1c0,0,0,0,0,0.1v0.1c0,0,0,0,0,0.1L143,37l0.1,0.1
		l0.1,0.1l0.1,0.1h0.1h0.1l0.1,0h0.1h0.1h0.1h0.1h0.1h0.1h0.1h0.6h0.1h0.1h0.1h0.1h0.1h0.1h0.1h0.1h0.1l0.1-0.1h0.1l0.1-0.1l0.1-0.1
		V37c0,0,2323.9,1659.9,0.1-0.1l0.1-0.1v-0.1c0,0,0,0,0-0.1v-0.1v-0.1v-0.1c0,0,0-0.1,0-0.1c0,0,0-0.1,0-0.1s0,0,0-0.1
		c0,0,0-0.1,0-0.1v-0.2c0,0,0-0.1,0-0.1c0,0,0,0,0-0.1s0-0.1,0-0.1s0-0.1,0-0.1l0,0l0,0c0,0,0-0.1,0-0.1v-0.1v-0.1v-0.1
		c0,0,0,0,0-0.1l-0.1-0.1v-0.1c0,0,0,0-0.1-0.1l-0.1-0.1l-0.1-0.1l-0.1-0.1h-0.1c0,0,0,0-0.1,0h-0.1h-0.1h-0.1H145h-0.1h-0.1h-0.1
		h-0.1h-0.2h-0.1L144.3,34.6L144.3,34.6z"/>
	<path style="clip-path:url(#SVGID_00000166643820190860343580000005268541961354750649_);fill:#E83471;" d="M144.3,34.6h-0.1h-0.1
		h-0.2h-0.1l0,0h-0.1h-0.1h-0.1h-0.1l-0.1,0h-0.1h-0.1l-0.1,0.1c0,0,0,0-0.1,0l-0.1,0.1l-0.1,0.1c0,0,0,0.1-0.1,0.1l-0.1,0.1V35v0.1
		c0,0,0,0.1,0,0.1v0.1v0.1v0.1c0,0,0,0.1,0,0.1c0,0,0,0.1,0,0.1c0,0,0,0.1,0,0.1s0,0,0,0.1c0,0,0,0.1,0,0.1V36c0,0,0,0.1,0,0.1
		c0,0,0,0,0,0.1s0,0.1,0,0.1s0,0,0,0.1l0,0l0,0v0.1v0.1v0.1c0,0,0,0.1,0,0.1c0,0,0,0,0,0.1v0.1c0,0,0,0,0,0.1L143,37l0.1,0.1
		l0.1,0.1l0.1,0.1h0.1h0.1l0.1,0h0.1h0.1h0.1h0.1h0.1h0.1h0.1h0.2h0.1h0.2h0.1h0.2h0.1l0,0h0.1h0.1h0.1h0.1h0.1h0.1h0.1l0.1-0.1h0.1
		l0.1-0.1l0.1-0.1V37c0,0,2323.9,1659.9,0.1-0.1l0.1-0.1v-0.1c0,0,0-0.1,0-0.1v-0.1v-0.1v-0.1c0,0,0-0.1,0-0.1c0,0,0-0.1,0-0.1
		s0-0.1,0-0.1c0,0,0-0.1,0-0.1v-0.2c0,0,0-0.1,0-0.1c0,0,0,0,0-0.1s0-0.1,0-0.1s0,0,0-0.1l0,0l0,0c0,0,0-0.1,0-0.1v-0.1v-0.1v-0.1
		c0,0,0,0,0-0.1l-0.1-0.1v-0.1l-0.1-0.1l-0.1-0.1l-0.1-0.1l-0.1-0.1h-0.1l-0.1,0h-0.1h-0.1h-0.1H145h-0.1h-0.1h-0.1h-0.1h-0.1
		L144.3,34.6L144.3,34.6z"/>
	<path style="clip-path:url(#SVGID_00000166643820190860343580000005268541961354750649_);fill:#E83471;" d="M144.3,34.6h-0.1h-0.1
		h-0.2h-0.1l0,0h-0.1h-0.1h-0.1h-0.1l-0.1,0h-0.1h-0.1l-0.1,0.1c0,0,0,0-0.1,0l-0.1,0.1l-0.1,0.1c0,0,0,0.1-0.1,0.1l-0.1,0.1V35v0.1
		c0,0,0,0.1,0,0.1v0.1v0.1v0.1c0,0,0,0.1,0,0.1c0,0,0,0.1,0,0.1c0,0,0,0.1,0,0.1s0,0,0,0.1c0,0,0,0.1,0,0.1V36c0,0,0,0.1,0,0.1
		c0,0,0,0,0,0.1s0,0.1,0,0.1s0,0,0,0.1l0,0l0,0v0.1v0.1v0.1c0,0,0,0.1,0,0.1c0,0,0,0,0,0.1v0.1c0,0,0,0,0,0.1L143,37l0.1,0.1
		l0.1,0.1l0.1,0.1h0.1h0.1l0.1,0h0.1h0.1h0.1h0.1h0.1h0.1h0.1h0.6h0.1h0.1h0.1h0.1h0.1h0.1h0.1h0.1h0.1l0.1-0.1h0.1l0.1-0.1l0.1-0.1
		V37c0,0,2323.9,1659.9,0.1-0.1l0.1-0.1v-0.1c0,0,0,0,0-0.1v-0.1v-0.1v-0.1c0,0,0-0.1,0-0.1c0,0,0-0.1,0-0.1s0,0,0-0.1
		c0,0,0-0.1,0-0.1v-0.2c0,0,0-0.1,0-0.1c0,0,0,0,0-0.1s0-0.1,0-0.1s0-0.1,0-0.1l0,0l0,0c0,0,0-0.1,0-0.1v-0.1v-0.1v-0.1
		c0,0,0,0,0-0.1l-0.1-0.1v-0.1c0,0,0,0-0.1-0.1l-0.1-0.1l-0.1-0.1l-0.1-0.1h-0.1c0,0,0,0-0.1,0h-0.1h-0.1h-0.1H145h-0.1h-0.1h-0.1
		h-0.1h-0.2h-0.1L144.3,34.6L144.3,34.6z"/>
	<path style="clip-path:url(#SVGID_00000166643820190860343580000005268541961354750649_);fill:#E83471;" d="M144.3,34.6h-0.1h-0.1
		h-0.2h-0.1l0,0h-0.1h-0.1h-0.1h-0.1l-0.1,0h-0.1h-0.1l-0.1,0.1c0,0,0,0-0.1,0l-0.1,0.1l-0.1,0.1c0,0,0,0.1-0.1,0.1l-0.1,0.1V35v0.1
		c0,0,0,0.1,0,0.1v0.1v0.1v0.1c0,0,0,0.1,0,0.1c0,0,0,0.1,0,0.1c0,0,0,0.1,0,0.1s0,0,0,0.1c0,0,0,0.1,0,0.1V36c0,0,0,0.1,0,0.1
		c0,0,0,0,0,0.1s0,0.1,0,0.1s0,0,0,0.1l0,0l0,0v0.1v0.1v0.1c0,0,0,0.1,0,0.1c0,0,0,0,0,0.1v0.1c0,0,0,0,0,0.1L143,37l0.1,0.1
		l0.1,0.1l0.1,0.1h0.1h0.1l0.1,0h0.1h0.1h0.1h0.1h0.1h0.1h0.1h0.6h0.1h0.1h0.1h0.1h0.1h0.1h0.1h0.1h0.1l0.1-0.1h0.1l0.1-0.1l0.1-0.1
		V37c0,0,2323.9,1659.9,0.1-0.1l0.1-0.1v-0.1c0,0,0,0,0-0.1v-0.1v-0.1v-0.1c0,0,0-0.1,0-0.1c0,0,0-0.1,0-0.1s0,0,0-0.1
		c0,0,0-0.1,0-0.1v-0.2c0,0,0-0.1,0-0.1c0,0,0,0,0-0.1s0-0.1,0-0.1s0-0.1,0-0.1l0,0l0,0c0,0,0-0.1,0-0.1v-0.1v-0.1v-0.1
		c0,0,0,0,0-0.1l-0.1-0.1v-0.1c0,0,0,0-0.1-0.1l-0.1-0.1l-0.1-0.1l-0.1-0.1h-0.1c0,0,0,0-0.1,0h-0.1h-0.1h-0.1H145h-0.1h-0.1h-0.1
		h-0.1h-0.2h-0.1L144.3,34.6L144.3,34.6z"/>
	<path style="clip-path:url(#SVGID_00000166643820190860343580000005268541961354750649_);fill:#E83471;" d="M144.3,34.6h-0.1h-0.1
		h-0.2h-0.1l0,0h-0.1h-0.1h-0.1h-0.1l-0.1,0h-0.1h-0.1l-0.1,0.1c0,0,0,0-0.1,0l-0.1,0.1l-0.1,0.1c0,0,0,0.1-0.1,0.1l-0.1,0.1V35v0.1
		c0,0,0,0.1,0,0.1v0.1v0.1v0.1c0,0,0,0.1,0,0.1c0,0,0,0.1,0,0.1c0,0,0,0.1,0,0.1s0,0,0,0.1c0,0,0,0.1,0,0.1V36c0,0,0,0.1,0,0.1
		c0,0,0,0,0,0.1s0,0.1,0,0.1s0,0,0,0.1l0,0l0,0v0.1v0.1v0.1c0,0,0,0.1,0,0.1c0,0,0,0,0,0.1v0.1c0,0,0,0,0,0.1L143,37l0.1,0.1
		l0.1,0.1l0.1,0.1h0.1h0.1l0.1,0h0.1h0.1h0.1h0.1h0.1h0.1h0.1h0.6h0.1h0.1h0.1h0.1h0.1h0.1h0.1h0.1h0.1l0.1-0.1h0.1l0.1-0.1l0.1-0.1
		V37c0,0,2323.9,1659.9,0.1-0.1l0.1-0.1v-0.1c0,0,0,0,0-0.1v-0.1v-0.1v-0.1c0,0,0-0.1,0-0.1c0,0,0-0.1,0-0.1s0,0,0-0.1
		c0,0,0-0.1,0-0.1v-0.2c0,0,0-0.1,0-0.1c0,0,0,0,0-0.1s0-0.1,0-0.1s0-0.1,0-0.1l0,0l0,0c0,0,0-0.1,0-0.1v-0.1v-0.1v-0.1
		c0,0,0,0,0-0.1l-0.1-0.1v-0.1c0,0,0,0-0.1-0.1l-0.1-0.1l-0.1-0.1l-0.1-0.1h-0.1c0,0,0,0-0.1,0h-0.1h-0.1h-0.1H145h-0.1h-0.1h-0.1
		h-0.1h-0.2h-0.1L144.3,34.6L144.3,34.6z"/>
	<path style="clip-path:url(#SVGID_00000166643820190860343580000005268541961354750649_);fill:#E83471;" d="M144.3,34.6h-0.1h-0.1
		h-0.2h-0.1l0,0h-0.1h-0.1h-0.1h-0.1l-0.1,0h-0.1h-0.1l-0.1,0.1c0,0,0,0-0.1,0l-0.1,0.1l-0.1,0.1c0,0,0,0.1-0.1,0.1l-0.1,0.1V35v0.1
		c0,0,0,0.1,0,0.1v0.1v0.1v0.1c0,0,0,0.1,0,0.1c0,0,0,0.1,0,0.1c0,0,0,0.1,0,0.1s0,0,0,0.1c0,0,0,0.1,0,0.1V36c0,0,0,0.1,0,0.1
		c0,0,0,0,0,0.1s0,0.1,0,0.1s0,0,0,0.1l0,0l0,0v0.1v0.1v0.1c0,0,0,0.1,0,0.1c0,0,0,0,0,0.1v0.1c0,0,0,0,0,0.1L143,37l0.1,0.1
		l0.1,0.1l0.1,0.1h0.1h0.1l0.1,0h0.1h0.1h0.1h0.1h0.1h0.1h0.1h0.6h0.1h0.1h0.1h0.1h0.1h0.1h0.1h0.1h0.1l0.1-0.1h0.1l0.1-0.1l0.1-0.1
		V37c0,0,2323.9,1659.9,0.1-0.1l0.1-0.1v-0.1c0,0,0,0,0-0.1v-0.1v-0.1v-0.1c0,0,0-0.1,0-0.1c0,0,0-0.1,0-0.1s0,0,0-0.1
		c0,0,0-0.1,0-0.1v-0.2c0,0,0-0.1,0-0.1c0,0,0,0,0-0.1s0-0.1,0-0.1s0-0.1,0-0.1l0,0l0,0c0,0,0-0.1,0-0.1v-0.1v-0.1v-0.1
		c0,0,0,0,0-0.1l-0.1-0.1v-0.1c0,0,0,0-0.1-0.1l-0.1-0.1l-0.1-0.1l-0.1-0.1h-0.1c0,0,0,0-0.1,0h-0.1h-0.1h-0.1H145h-0.1h-0.1h-0.1
		h-0.1h-0.2h-0.1L144.3,34.6L144.3,34.6z"/>
	<path style="clip-path:url(#SVGID_00000166643820190860343580000005268541961354750649_);fill:#E83471;" d="M144.3,34.6h-0.1h-0.1
		h-0.2h-0.1l0,0h-0.1h-0.1h-0.1h-0.1l-0.1,0h-0.1h-0.1l-0.1,0.1c0,0,0,0-0.1,0l-0.1,0.1l-0.1,0.1c0,0,0,0.1-0.1,0.1l-0.1,0.1V35v0.1
		c0,0,0,0.1,0,0.1v0.1v0.1v0.1c0,0,0,0.1,0,0.1c0,0,0,0.1,0,0.1c0,0,0,0.1,0,0.1s0,0,0,0.1c0,0,0,0.1,0,0.1V36c0,0,0,0.1,0,0.1
		c0,0,0,0,0,0.1s0,0.1,0,0.1s0,0,0,0.1l0,0l0,0v0.1v0.1v0.1c0,0,0,0.1,0,0.1c0,0,0,0,0,0.1v0.1c0,0,0,0,0,0.1L143,37l0.1,0.1
		l0.1,0.1l0.1,0.1h0.1h0.1l0.1,0h0.1h0.1h0.1h0.1h0.1h0.1h0.1h0.6h0.1h0.1h0.1h0.1h0.1h0.1h0.1h0.1h0.1l0.1-0.1h0.1l0.1-0.1l0.1-0.1
		V37c0,0,2323.9,1659.9,0.1-0.1l0.1-0.1v-0.1c0,0,0,0,0-0.1v-0.1v-0.1v-0.1c0,0,0-0.1,0-0.1c0,0,0-0.1,0-0.1s0,0,0-0.1
		c0,0,0-0.1,0-0.1v-0.2c0,0,0-0.1,0-0.1c0,0,0,0,0-0.1s0-0.1,0-0.1s0-0.1,0-0.1l0,0l0,0c0,0,0-0.1,0-0.1v-0.1v-0.1v-0.1
		c0,0,0,0,0-0.1l-0.1-0.1v-0.1c0,0,0,0-0.1-0.1l-0.1-0.1l-0.1-0.1l-0.1-0.1h-0.1c0,0,0,0-0.1,0h-0.1h-0.1h-0.1H145h-0.1h-0.1h-0.1
		h-0.1h-0.2h-0.1L144.3,34.6L144.3,34.6z"/>
	<path style="clip-path:url(#SVGID_00000166643820190860343580000005268541961354750649_);fill:#E83471;" d="M144.3,34.6h-0.1h-0.1
		h-0.2h-0.1l0,0h-0.1h-0.1h-0.1h-0.1l-0.1,0h-0.1h-0.1l-0.1,0.1c0,0,0,0-0.1,0l-0.1,0.1l-0.1,0.1c0,0,0,0.1-0.1,0.1l-0.1,0.1V35v0.1
		c0,0,0,0.1,0,0.1v0.1v0.1v0.1c0,0,0,0.1,0,0.1c0,0,0,0.1,0,0.1c0,0,0,0.1,0,0.1s0,0,0,0.1c0,0,0,0.1,0,0.1V36c0,0,0,0.1,0,0.1
		c0,0,0,0,0,0.1s0,0.1,0,0.1s0,0,0,0.1l0,0l0,0v0.1v0.1v0.1c0,0,0,0.1,0,0.1c0,0,0,0,0,0.1v0.1c0,0,0,0,0,0.1L143,37l0.1,0.1
		l0.1,0.1l0.1,0.1h0.1h0.1l0.1,0h0.1h0.1h0.1h0.1h0.1h0.1h0.1h0.6h0.1h0.1h0.1h0.1h0.1h0.1h0.1h0.1h0.1l0.1-0.1h0.1l0.1-0.1l0.1-0.1
		V37c0,0,2323.9,1659.9,0.1-0.1l0.1-0.1v-0.1c0,0,0,0,0-0.1v-0.1v-0.1v-0.1c0,0,0-0.1,0-0.1c0,0,0-0.1,0-0.1s0,0,0-0.1
		c0,0,0-0.1,0-0.1v-0.2c0,0,0-0.1,0-0.1c0,0,0,0,0-0.1s0-0.1,0-0.1s0-0.1,0-0.1l0,0l0,0c0,0,0-0.1,0-0.1v-0.1v-0.1v-0.1
		c0,0,0,0,0-0.1l-0.1-0.1v-0.1c0,0,0,0-0.1-0.1l-0.1-0.1l-0.1-0.1l-0.1-0.1h-0.1c0,0,0,0-0.1,0h-0.1h-0.1h-0.1H145h-0.1h-0.1h-0.1
		h-0.1h-0.2h-0.1L144.3,34.6L144.3,34.6z"/>
	<path style="clip-path:url(#SVGID_00000166643820190860343580000005268541961354750649_);fill:#E83471;" d="M144.3,34.6h-0.1h-0.1
		h-0.2h-0.1l0,0h-0.1h-0.1h-0.1h-0.1l-0.1,0h-0.1h-0.1l-0.1,0.1c0,0,0,0-0.1,0l-0.1,0.1l-0.1,0.1c0,0,0,0.1-0.1,0.1l-0.1,0.1V35v0.1
		c0,0,0,0.1,0,0.1v0.1v0.1v0.1c0,0,0,0.1,0,0.1c0,0,0,0.1,0,0.1c0,0,0,0.1,0,0.1s0,0,0,0.1c0,0,0,0.1,0,0.1V36c0,0,0,0.1,0,0.1
		c0,0,0,0,0,0.1s0,0.1,0,0.1s0,0,0,0.1l0,0l0,0v0.1v0.1v0.1c0,0,0,0.1,0,0.1c0,0,0,0,0,0.1v0.1c0,0,0,0,0,0.1L143,37l0.1,0.1
		l0.1,0.1l0.1,0.1h0.1h0.1l0.1,0h0.1h0.1h0.1h0.1h0.1h0.1h0.1h0.6h0.1h0.1h0.1h0.1h0.1h0.1h0.1h0.1h0.1l0.1-0.1h0.1l0.1-0.1l0.1-0.1
		V37c0,0,2323.9,1659.9,0.1-0.1l0.1-0.1v-0.1c0,0,0,0,0-0.1v-0.1v-0.1v-0.1c0,0,0-0.1,0-0.1c0,0,0-0.1,0-0.1s0,0,0-0.1
		c0,0,0-0.1,0-0.1v-0.2c0,0,0-0.1,0-0.1c0,0,0,0,0-0.1s0-0.1,0-0.1s0-0.1,0-0.1l0,0l0,0c0,0,0-0.1,0-0.1v-0.1v-0.1v-0.1
		c0,0,0,0,0-0.1l-0.1-0.1v-0.1c0,0,0,0-0.1-0.1l-0.1-0.1l-0.1-0.1l-0.1-0.1h-0.1c0,0,0,0-0.1,0h-0.1h-0.1h-0.1H145h-0.1h-0.1h-0.1
		h-0.1h-0.2h-0.1L144.3,34.6L144.3,34.6z"/>
	<path style="clip-path:url(#SVGID_00000166643820190860343580000005268541961354750649_);fill:#E83471;" d="M144.3,34.6h-0.1h-0.1
		h-0.2h-0.1l0,0h-0.1h-0.1h-0.1h-0.1l-0.1,0h-0.1h-0.1l-0.1,0.1c0,0,0,0-0.1,0l-0.1,0.1l-0.1,0.1c0,0,0,0.1-0.1,0.1l-0.1,0.1V35v0.1
		c0,0,0,0.1,0,0.1v0.1v0.1v0.1c0,0,0,0.1,0,0.1c0,0,0,0.1,0,0.1c0,0,0,0.1,0,0.1s0,0,0,0.1c0,0,0,0.1,0,0.1V36c0,0,0,0.1,0,0.1
		c0,0,0,0,0,0.1s0,0.1,0,0.1s0,0,0,0.1l0,0l0,0v0.1v0.1v0.1c0,0,0,0.1,0,0.1c0,0,0,0,0,0.1v0.1c0,0,0,0,0,0.1L143,37l0.1,0.1
		l0.1,0.1l0.1,0.1h0.1h0.1l0.1,0h0.1h0.1h0.1h0.1h0.1h0.1h0.1h0.6h0.1h0.1h0.1h0.1h0.1h0.1h0.1h0.1h0.1l0.1-0.1h0.1l0.1-0.1l0.1-0.1
		V37c0,0,2323.9,1659.9,0.1-0.1l0.1-0.1v-0.1c0,0,0,0,0-0.1v-0.1v-0.1v-0.1c0,0,0-0.1,0-0.1c0,0,0-0.1,0-0.1s0,0,0-0.1
		c0,0,0-0.1,0-0.1v-0.2c0,0,0-0.1,0-0.1c0,0,0,0,0-0.1s0-0.1,0-0.1s0-0.1,0-0.1l0,0l0,0c0,0,0-0.1,0-0.1v-0.1v-0.1v-0.1
		c0,0,0,0,0-0.1l-0.1-0.1v-0.1c0,0,0,0-0.1-0.1l-0.1-0.1l-0.1-0.1l-0.1-0.1h-0.1c0,0,0,0-0.1,0h-0.1h-0.1h-0.1H145h-0.1h-0.1h-0.1
		h-0.1h-0.2h-0.1L144.3,34.6L144.3,34.6z"/>
	<path style="clip-path:url(#SVGID_00000166643820190860343580000005268541961354750649_);fill:#E83471;" d="M144.3,34.6h-0.1h-0.1
		h-0.2h-0.1l0,0h-0.1h-0.1h-0.1h-0.1l-0.1,0h-0.1h-0.1l-0.1,0.1c0,0,0,0-0.1,0l-0.1,0.1l-0.1,0.1c0,0,0,0.1-0.1,0.1l-0.1,0.1V35v0.1
		c0,0,0,0.1,0,0.1v0.1v0.1v0.1c0,0,0,0.1,0,0.1c0,0,0,0.1,0,0.1c0,0,0,0.1,0,0.1s0,0,0,0.1c0,0,0,0.1,0,0.1V36c0,0,0,0.1,0,0.1
		c0,0,0,0,0,0.1s0,0.1,0,0.1s0,0,0,0.1l0,0l0,0v0.1v0.1v0.1c0,0,0,0.1,0,0.1c0,0,0,0,0,0.1v0.1c0,0,0,0,0,0.1L143,37l0.1,0.1
		l0.1,0.1l0.1,0.1h0.1h0.1l0.1,0h0.1h0.1h0.1h0.1h0.1h0.1h0.1h0.6h0.1h0.1h0.1h0.1h0.1h0.1h0.1h0.1h0.1l0.1-0.1h0.1l0.1-0.1l0.1-0.1
		V37c0,0,2323.9,1659.9,0.1-0.1l0.1-0.1v-0.1c0,0,0,0,0-0.1v-0.1v-0.1v-0.1c0,0,0-0.1,0-0.1c0,0,0-0.1,0-0.1s0,0,0-0.1
		c0,0,0-0.1,0-0.1v-0.2c0,0,0-0.1,0-0.1c0,0,0,0,0-0.1s0-0.1,0-0.1s0-0.1,0-0.1l0,0l0,0c0,0,0-0.1,0-0.1v-0.1v-0.1v-0.1
		c0,0,0,0,0-0.1l-0.1-0.1v-0.1c0,0,0,0-0.1-0.1l-0.1-0.1l-0.1-0.1l-0.1-0.1h-0.1c0,0,0,0-0.1,0h-0.1h-0.1h-0.1H145h-0.1h-0.1h-0.1
		h-0.1h-0.2h-0.1L144.3,34.6L144.3,34.6z"/>
	<path style="clip-path:url(#SVGID_00000166643820190860343580000005268541961354750649_);fill:#1A1A1A;" d="M122.1,78.3
		c6.4,0,11.6,5.2,11.6,11.6c0,0,0,0.1,0,0.1v5.8c0,6.4-5.2,11.6-11.6,11.6c-6.4,0-11.6-5.2-11.6-11.6V90
		C110.4,83.6,115.6,78.4,122.1,78.3C122,78.4,122.1,78.4,122.1,78.3L122.1,78.3z"/>
	<path style="clip-path:url(#SVGID_00000166643820190860343580000005268541961354750649_);fill:#FFFFFF;" d="M128.9,86.7
		c0,2.1-1.7,3.8-3.8,3.8c-2.1,0-3.8-1.7-3.8-3.8c0-2.1,1.7-3.8,3.8-3.8S128.9,84.6,128.9,86.7C128.9,86.7,128.9,86.7,128.9,86.7z"/>
	<path style="clip-path:url(#SVGID_00000166643820190860343580000005268541961354750649_);fill:#1A1A1A;" d="M61.9,98.4
		c0-6.7,5.5-12.2,12.2-12.2c6.7,0,12.1,5.4,12.2,12.2h-4.5c0-4.2-3.4-7.6-7.6-7.6s-7.6,3.4-7.6,7.6c0,0,0,0,0,0H61.9z"/>
	<path style="clip-path:url(#SVGID_00000166643820190860343580000005268541961354750649_);fill:#EB5775;" d="M102,104.9
		c-3.9,0-7,3.1-7,7v6.2c0.9,0.2,1.9,0.3,2.8,0.3c4.6,0,8.9-2.5,11.2-6.5C109.1,108,105.9,104.9,102,104.9L102,104.9z"/>
	<path style="clip-path:url(#SVGID_00000166643820190860343580000005268541961354750649_);fill:#1A1A1A;" d="M102,103.8
		c-4.5,0-8.2,3.7-8.2,8.2v6.2h2.3v-6.2c0-3.3,2.7-5.9,5.9-5.9c3.1,0,5.7,2.4,5.8,5.5c-0.7,1.1-1.5,2.1-2.4,2.9l1.5,1.7
		c1.3-1.1,2.3-2.3,3.1-3.8l0.2-0.3v-0.3C110.2,107.4,106.5,103.8,102,103.8z"/>
	
		<rect x="101.5" y="111.6" style="clip-path:url(#SVGID_00000166643820190860343580000005268541961354750649_);fill:#1A1A1A;" width="1.1" height="6.1"/>
	<path style="clip-path:url(#SVGID_00000166643820190860343580000005268541961354750649_);fill:#F293A2;" d="M98.2,109.8
		c0-0.8,0.7-1.5,1.5-1.5c0.8,0,1.5,0.7,1.5,1.5c0,0.8-0.7,1.5-1.5,1.5c0,0,0,0,0,0C98.9,111.3,98.2,110.6,98.2,109.8L98.2,109.8z"/>
	<path style="clip-path:url(#SVGID_00000166643820190860343580000005268541961354750649_);fill:#1A1A1A;" d="M87.5,111.4l-2,1.1
		c3.9,6.8,12.5,9.1,19.3,5.2c2.2-1.2,3.9-3,5.2-5.2l-2-1.1c-3.3,5.7-10.5,7.6-16.2,4.4C90,114.7,88.5,113.2,87.5,111.4L87.5,111.4z"
		/>
	<path style="clip-path:url(#SVGID_00000166643820190860343580000005268541961354750649_);fill:#FFFFFF;" d="M45.1,0h-29h-16v16
		c0,7,0,14,0,21c10.3,12.3,28.6,14,41,3.7c6.7-5.5,10.5-13.8,10.5-22.4C51.6,11.6,49.3,5.2,45.1,0z"/>
	<text transform="matrix(1 0 0 1 15.68 31.75)" class="st11 st2 st12">5</text>
	<text transform="matrix(1 0 0 1 26.01 31.75)" class="st11 st2 st12">2</text>
</g>
</svg>
