<svg id="Слой_1" data-name="Слой 1" xmlns="http://www.w3.org/2000/svg" viewBox="0 0 195.59 280.63"><defs><style>.cls-1{fill:#f18b9e;}.cls-2{font-size:36px;}.cls-2,.cls-8{fill:#fff;}.cls-11,.cls-2{font-family:Impact;}.cls-3{letter-spacing:0.02em;}.cls-4{fill:#eb5e85;}.cls-11,.cls-5{fill:#1a1a1a;}.cls-6{fill:#e83471;}.cls-7{fill:#ec6287;}.cls-9{fill:#eb5775;}.cls-10{fill:#f293a2;}.cls-11{font-size:20px;}.cls-12{letter-spacing:-0.02em;}</style></defs><rect class="cls-1" x="-15.45" y="-1.13" width="493.56" height="290.47"/><text class="cls-2" transform="translate(13.71 245.85)">Walen<tspan class="cls-3" x="94.55" y="0">t</tspan><tspan x="106.24" y="0">ynki</tspan></text><path class="cls-4" d="M81.85,170.83c1.77,13.47-.2,33.22-5.74,33.95S63.56,187,61.78,173.48s3.81-16.95,7.91-17.49,10.39,1.37,12.16,14.84Zm0,0"/><path class="cls-5" d="M69.32,153.19a11.46,11.46,0,0,0-8.16,5.17C59,161.73,58,166.7,59,173.84a87.8,87.8,0,0,0,6,21.72,36.6,36.6,0,0,0,4.63,8.28c1.72,2.18,3.91,4.13,6.91,3.74s4.61-2.85,5.71-5.4a36.75,36.75,0,0,0,2.33-9.2,87.5,87.5,0,0,0,.13-22.52c-.94-7.14-3.13-11.69-6.11-14.39a11.47,11.47,0,0,0-9.22-2.88Zm.74,5.6a5.44,5.44,0,0,1,4.69,1.46c1.63,1.49,3.47,4.63,4.3,10.95a83.22,83.22,0,0,1-.12,21A32.75,32.75,0,0,1,77,199.94a5.81,5.81,0,0,1-1.26,2A5.79,5.79,0,0,1,74,200.33a32.38,32.38,0,0,1-3.87-7,83.83,83.83,0,0,1-5.55-20.23c-.83-6.33.13-9.84,1.33-11.7a5.43,5.43,0,0,1,4.15-2.62Zm0,0"/><path class="cls-4" d="M133.5,172.13c0,13.59-4.53,32.9-10.12,32.9s-10.12-19.31-10.12-32.9,6-16.3,10.12-16.3,10.12,2.71,10.12,16.3Zm0,0"/><path class="cls-5" d="M123.38,153a11.47,11.47,0,0,0-8.77,4.06c-2.59,3.06-4.18,7.86-4.18,15.07a87.94,87.94,0,0,0,3.07,22.31,36.66,36.66,0,0,0,3.52,8.81c1.42,2.38,3.34,4.61,6.36,4.61s4.94-2.23,6.36-4.61a36.26,36.26,0,0,0,3.51-8.81,87.49,87.49,0,0,0,3.07-22.31c0-7.21-1.58-12-4.17-15.07a11.47,11.47,0,0,0-8.77-4.06Zm0,5.65a5.45,5.45,0,0,1,4.46,2.06c1.43,1.69,2.84,5,2.84,11.42a83.7,83.7,0,0,1-2.86,20.78,33.5,33.5,0,0,1-2.92,7.44,5.82,5.82,0,0,1-1.52,1.8,5.82,5.82,0,0,1-1.52-1.8,33.5,33.5,0,0,1-2.92-7.44,83.7,83.7,0,0,1-2.86-20.78c0-6.38,1.41-9.73,2.84-11.42a5.45,5.45,0,0,1,4.46-2.06Zm0,0"/><path class="cls-4" d="M31.6,111.1c-10.77,8.27-28.86,16.43-32.26,12S8.5,103.31,19.28,95s16.58-5.18,19.1-1.9,4,9.68-6.78,18Zm0,0"/><path class="cls-5" d="M40.62,91.42a11.47,11.47,0,0,0-8.56-4.48c-4-.2-8.78,1.47-14.5,5.86a87.25,87.25,0,0,0-15.83,16A36.92,36.92,0,0,0-3.12,117c-1,2.58-1.62,5.46.22,7.86s4.77,2.56,7.53,2.24a36.92,36.92,0,0,0,9.13-2.58,87.87,87.87,0,0,0,19.56-11.14c5.72-4.39,8.57-8.57,9.42-12.49a11.5,11.5,0,0,0-2.12-9.43Zm-4.48,3.44a5.46,5.46,0,0,1,1.08,4.79c-.47,2.16-2.27,5.32-7.33,9.2a83.77,83.77,0,0,1-18.23,10.39A32.73,32.73,0,0,1,4,121.45a5.67,5.67,0,0,1-2.35-.11,5.77,5.77,0,0,1,.5-2.3,33.41,33.41,0,0,1,4.12-6.84A83.33,83.33,0,0,1,21,97.28c5.06-3.89,8.58-4.81,10.79-4.7a5.45,5.45,0,0,1,4.35,2.28Zm0,0"/><path class="cls-4" d="M176.31,95c10.78,8.27,23.34,23.62,19.94,28.06s-21.48-3.73-32.26-12-9.29-14.67-6.78-18,8.32-6.37,19.1,1.9Zm0,0"/><path class="cls-5" d="M155,91.42a11.5,11.5,0,0,0-2.12,9.43c.85,3.92,3.7,8.1,9.42,12.49a87.71,87.71,0,0,0,19.56,11.14,36.92,36.92,0,0,0,9.13,2.58c2.76.32,5.69.15,7.53-2.24s1.24-5.28.22-7.86a36.92,36.92,0,0,0-4.85-8.15A87.25,87.25,0,0,0,178,92.8c-5.72-4.39-10.49-6.06-14.5-5.86A11.48,11.48,0,0,0,155,91.42Zm4.49,3.44a5.41,5.41,0,0,1,4.34-2.28c2.21-.11,5.73.81,10.79,4.7a83.33,83.33,0,0,1,14.75,14.92,33,33,0,0,1,4.12,6.84,5.89,5.89,0,0,1,.51,2.3,5.76,5.76,0,0,1-2.36.11,32.86,32.86,0,0,1-7.68-2.21,83.47,83.47,0,0,1-18.22-10.39c-5.07-3.88-6.87-7-7.34-9.2a5.43,5.43,0,0,1,1.09-4.79Zm0,0"/><path class="cls-5" d="M65.1,25.65A42.17,42.17,0,0,0,31.86,41.33c-8.43,10.35-13.33,25.45-13.33,44.9a111.45,111.45,0,0,0,22.84,67c14.16,18.34,34.08,31,56.43,31s42.26-12.62,56.42-31a111.45,111.45,0,0,0,22.84-67c0-19.45-4.9-34.55-13.33-44.9a42.17,42.17,0,0,0-33.24-15.68A46.54,46.54,0,0,0,97.8,39.07,46.58,46.58,0,0,0,65.1,25.65Zm0,9A37.52,37.52,0,0,1,94.28,48.63L97.8,53l3.51-4.35a37.52,37.52,0,0,1,29.18-13.94A32.58,32.58,0,0,1,156.72,47C163.51,55.37,168,68.3,168,86.23a103,103,0,0,1-21,61.47c-12.89,16.69-30.34,27.44-49.27,27.44S61.41,164.39,48.52,147.7a103,103,0,0,1-21-61.47c0-17.93,4.51-30.86,11.3-39.19A32.58,32.58,0,0,1,65.1,34.69Zm0,0"/><path class="cls-6" d="M65.1,30.17c-23.22,0-42,18.69-42,56.06,0,46.71,33.47,93.43,74.75,93.43s74.74-46.72,74.74-93.43c0-37.37-18.82-56.06-42-56.06A42,42,0,0,0,97.8,45.79,42,42,0,0,0,65.1,30.17Zm0,0"/><path class="cls-7" d="M65.1,30.17c-23.22,0-42,18.69-42,56.06A107.54,107.54,0,0,0,39.72,143c11,9.22,24,14.83,37.92,14.83,39.26,0,71.08-44.42,71.08-88.85,0-16.5-3.86-29.17-10.21-38a40.7,40.7,0,0,0-8-.79A42,42,0,0,0,97.8,45.79,42,42,0,0,0,65.1,30.17Zm0,0"/><path class="cls-1" d="M65.1,30.17c-23.22,0-42,18.69-42,56.06a102.15,102.15,0,0,0,1.37,16.47c41.37,23.89,77.4-15.36,71.67-58.89a42.05,42.05,0,0,0-31-13.64Zm0,0"/><path class="cls-5" d="M65.1,29A38.56,38.56,0,0,0,34.49,43.47c-7.81,9.6-12.57,23.88-12.57,42.76a108.35,108.35,0,0,0,22.13,64.92c13.69,17.72,32.68,29.64,53.75,29.64s40.06-11.92,53.74-29.64a108.29,108.29,0,0,0,22.13-64.92c0-18.88-4.76-33.16-12.57-42.76A38.56,38.56,0,0,0,130.49,29,43.12,43.12,0,0,0,97.8,44.11,43.15,43.15,0,0,0,65.1,29Zm0,2.26A40.92,40.92,0,0,1,96.92,46.5l.88,1.09.87-1.09a40.93,40.93,0,0,1,31.82-15.2,36.17,36.17,0,0,1,28.86,13.6c7.4,9.09,12.06,22.83,12.06,41.33a106.16,106.16,0,0,1-21.66,63.54C136.39,167.08,118,178.53,97.8,178.53s-38.59-11.45-52-28.76A106.16,106.16,0,0,1,24.18,86.23c0-18.5,4.66-32.24,12.06-41.33A36.17,36.17,0,0,1,65.1,31.3Zm0,0"/><path class="cls-8" d="M60,63.45c-4.16,7.19-11.37,10.81-16.1,8.08s-5.21-10.79-1.05-18,11.36-10.81,16.1-8.08,5.2,10.79,1.05,18Zm0,0"/><path class="cls-6" d="M144.3,34.58h-.11l-.09,0h-.16l-.08,0h0l-.12,0-.07,0-.08,0-.08,0-.07.05-.07,0-.07,0-.06.06a.18.18,0,0,0-.07,0l-.06.06-.06.06a.18.18,0,0,1-.05.07l-.05.07,0,.07,0,.07a.3.3,0,0,0,0,.08l0,.07,0,.08,0,.08a.24.24,0,0,0,0,.08.31.31,0,0,0,0,.08s0,.06,0,.09,0,0,0,.08a.25.25,0,0,0,0,.08v.23a.28.28,0,0,0,0,.09s0,.05,0,.08,0,.06,0,.08,0,0,0,.08h0l0,0,0,.11,0,.08,0,.07a.3.3,0,0,0,0,.08.25.25,0,0,0,0,.07l0,.07a.43.43,0,0,0,0,.07l.06.07.05.06.06.06.07.06.06,0,.07,0,.07.05.07,0,.08,0,.07,0,.08,0,.08,0,.08,0,.08,0h.17l.08,0h.23l.09,0h.17l.07,0h0l.11,0,.08,0,.07,0,.08,0,.07,0,.07,0,.07,0,.07-.06.06,0,.06-.06.06-.06,0-.07a315234181055.83,315234181055.83,0,0,0,.1-.14l.05-.07,0-.07a.3.3,0,0,0,0-.08l0-.08,0-.08,0-.08a.24.24,0,0,1,0-.08s0-.06,0-.08,0-.06,0-.09a.22.22,0,0,1,0-.08v-.23a.28.28,0,0,1,0-.09s0,0,0-.08,0-.06,0-.08,0-.05,0-.08h0v0a.56.56,0,0,0,0-.12l0-.07,0-.08,0-.08a.25.25,0,0,1,0-.07l-.05-.07,0-.07-.05-.06-.06-.07-.06-.06-.06-.06-.07,0-.07-.05-.07,0-.07,0-.07,0-.08,0-.08,0-.08,0-.08,0-.08,0-.08,0h-.29Zm0,0"/><path class="cls-6" d="M144.3,34.58h-.11l-.09,0h-.16l-.08,0h0l-.12,0-.07,0-.08,0-.08,0-.07.05-.07,0-.07,0-.06.06a.18.18,0,0,0-.07,0l-.06.06-.06.06a.18.18,0,0,1-.05.07l-.05.07,0,.07,0,.07a.3.3,0,0,0,0,.08l0,.07,0,.08,0,.08a.24.24,0,0,0,0,.08.31.31,0,0,0,0,.08s0,.06,0,.09,0,0,0,.08a.25.25,0,0,0,0,.08v.23a.28.28,0,0,0,0,.09s0,.05,0,.08,0,.06,0,.09,0,0,0,.07h0l0,0,0,.11,0,.08,0,.07a.3.3,0,0,0,0,.08.25.25,0,0,0,0,.07l0,.07a.43.43,0,0,0,0,.07l.06.07.05.06.06.06.07.06.06,0,.07,0,.07.05.07,0,.08,0,.07,0,.08,0,.08,0,.08,0,.08,0h.65l.09,0h.11l.11,0,.08,0,.07,0,.08,0,.07,0,.07,0,.07,0,.07-.06.06,0,.06-.06.06-.06,0-.07a315234181055.83,315234181055.83,0,0,0,.1-.14l.05-.07,0-.08a.25.25,0,0,0,0-.07l0-.08,0-.08,0-.08a.24.24,0,0,1,0-.08s0-.06,0-.09,0-.05,0-.08a.19.19,0,0,1,0-.08v-.23a.28.28,0,0,1,0-.09s0,0,0-.08,0-.06,0-.08,0-.06,0-.08h0v0a.76.76,0,0,0,0-.11l0-.08,0-.07,0-.08a.25.25,0,0,1,0-.07l-.05-.07,0-.07a.18.18,0,0,1-.05-.07l-.06-.06-.06-.06-.06-.06-.07,0a.18.18,0,0,0-.07-.05l-.07,0-.07,0-.07,0-.08,0-.08,0-.08,0-.08,0-.08,0h-.17l-.08,0h-.12Zm0,0"/><path class="cls-6" d="M144.3,34.58h-.11l-.09,0h-.16l-.08,0h0l-.12,0-.07,0-.08,0-.08,0-.07.05-.07,0-.07,0-.06.06a.18.18,0,0,0-.07,0l-.06.06-.06.06a.18.18,0,0,1-.05.07l-.05.07,0,.07,0,.07a.3.3,0,0,0,0,.08l0,.07,0,.08,0,.08a.24.24,0,0,0,0,.08.31.31,0,0,0,0,.08s0,.06,0,.09,0,0,0,.08a.25.25,0,0,0,0,.08v.23a.28.28,0,0,0,0,.09s0,.05,0,.08,0,.06,0,.09,0,0,0,.07h0l0,0,0,.11,0,.08,0,.07a.3.3,0,0,0,0,.08.25.25,0,0,0,0,.07l0,.07a.43.43,0,0,0,0,.07l.06.07.05.06.06.06.07.06.06,0,.07,0,.07.05.07,0,.08,0,.07,0,.08,0,.08,0,.08,0,.08,0h.65l.09,0h.11l.11,0,.08,0,.07,0,.08,0,.07,0,.07,0,.07,0,.07-.06.06,0,.06-.06.06-.06,0-.07a315234181055.83,315234181055.83,0,0,0,.1-.14l.05-.07,0-.08a.25.25,0,0,0,0-.07l0-.08,0-.08,0-.08a.24.24,0,0,1,0-.08s0-.06,0-.09,0-.05,0-.08a.19.19,0,0,1,0-.08v-.23a.28.28,0,0,1,0-.09s0,0,0-.08,0-.06,0-.08,0-.06,0-.08h0v0a.76.76,0,0,0,0-.11l0-.08,0-.07,0-.08a.25.25,0,0,1,0-.07l-.05-.07,0-.07a.18.18,0,0,1-.05-.07l-.06-.06-.06-.06-.06-.06-.07,0a.18.18,0,0,0-.07-.05l-.07,0-.07,0-.07,0-.08,0-.08,0-.08,0-.08,0-.08,0h-.17l-.08,0h-.12Zm0,0"/><path class="cls-6" d="M144.3,34.58h-.11l-.09,0h-.16l-.08,0h0l-.12,0-.07,0-.08,0-.08,0-.07.05-.07,0-.07,0-.06.06a.18.18,0,0,0-.07,0l-.06.06-.06.06a.18.18,0,0,1-.05.07l-.05.07,0,.07,0,.07a.3.3,0,0,0,0,.08l0,.07,0,.08,0,.08a.24.24,0,0,0,0,.08.31.31,0,0,0,0,.08s0,.06,0,.09,0,0,0,.08a.25.25,0,0,0,0,.08v.23a.28.28,0,0,0,0,.09s0,.05,0,.08,0,.06,0,.09,0,0,0,.07h0l0,0,0,.11,0,.08,0,.07a.3.3,0,0,0,0,.08.25.25,0,0,0,0,.07l0,.07a.43.43,0,0,0,0,.07l.06.07.05.06.06.06.07.06.06,0,.07,0,.07.05.07,0,.08,0,.07,0,.08,0,.08,0,.08,0,.08,0h.65l.09,0h.11l.11,0,.08,0,.07,0,.08,0,.07,0,.07,0,.07,0,.07-.06.06,0,.06-.06.06-.06,0-.07a315234181055.83,315234181055.83,0,0,0,.1-.14l.05-.07,0-.08a.25.25,0,0,0,0-.07l0-.08,0-.08,0-.08a.24.24,0,0,1,0-.08s0-.06,0-.09,0-.05,0-.08a.19.19,0,0,1,0-.08v-.23a.28.28,0,0,1,0-.09s0,0,0-.08,0-.06,0-.08,0-.06,0-.08h0v0a.76.76,0,0,0,0-.11l0-.08,0-.07,0-.08a.25.25,0,0,1,0-.07l-.05-.07,0-.07a.18.18,0,0,1-.05-.07l-.06-.06-.06-.06-.06-.06-.07,0a.18.18,0,0,0-.07-.05l-.07,0-.07,0-.07,0-.08,0-.08,0-.08,0-.08,0-.08,0h-.17l-.08,0h-.12Zm0,0"/><path class="cls-6" d="M144.3,34.58h-.11l-.09,0h-.16l-.08,0h0l-.12,0-.07,0-.08,0-.08,0-.07.05-.07,0-.07,0-.06.06a.18.18,0,0,0-.07,0l-.06.06-.06.06a.18.18,0,0,1-.05.07l-.05.07,0,.07,0,.07a.3.3,0,0,0,0,.08l0,.07,0,.08,0,.08a.24.24,0,0,0,0,.08.31.31,0,0,0,0,.08s0,.06,0,.09,0,0,0,.08a.25.25,0,0,0,0,.08v.23a.28.28,0,0,0,0,.09s0,.05,0,.08,0,.06,0,.09,0,0,0,.07h0l0,0,0,.11,0,.08,0,.07a.3.3,0,0,0,0,.08.25.25,0,0,0,0,.07l0,.07a.43.43,0,0,0,0,.07l.06.07.05.06.06.06.07.06.06,0,.07,0,.07.05.07,0,.08,0,.07,0,.08,0,.08,0,.08,0,.08,0h.65l.09,0h.11l.11,0,.08,0,.07,0,.08,0,.07,0,.07,0,.07,0,.07-.06.06,0,.06-.06.06-.06,0-.07a315234181055.83,315234181055.83,0,0,0,.1-.14l.05-.07,0-.08a.25.25,0,0,0,0-.07l0-.08,0-.08,0-.08a.24.24,0,0,1,0-.08s0-.06,0-.09,0-.05,0-.08a.19.19,0,0,1,0-.08v-.23a.28.28,0,0,1,0-.09s0,0,0-.08,0-.06,0-.08,0-.06,0-.08h0v0a.76.76,0,0,0,0-.11l0-.08,0-.07,0-.08a.25.25,0,0,1,0-.07l-.05-.07,0-.07a.18.18,0,0,1-.05-.07l-.06-.06-.06-.06-.06-.06-.07,0a.18.18,0,0,0-.07-.05l-.07,0-.07,0-.07,0-.08,0-.08,0-.08,0-.08,0-.08,0h-.17l-.08,0h-.12Zm0,0"/><path class="cls-6" d="M144.3,34.58h-.11l-.09,0h-.16l-.08,0h0l-.12,0-.07,0-.08,0-.08,0-.07.05-.07,0-.07,0-.06.06a.18.18,0,0,0-.07,0l-.06.06-.06.06a.18.18,0,0,1-.05.07l-.05.07,0,.07,0,.07a.3.3,0,0,0,0,.08l0,.07,0,.08,0,.08a.24.24,0,0,0,0,.08.31.31,0,0,0,0,.08s0,.06,0,.09,0,0,0,.08a.25.25,0,0,0,0,.08v.23a.28.28,0,0,0,0,.09s0,.05,0,.08,0,.06,0,.09,0,0,0,.07h0l0,0,0,.11,0,.08,0,.07a.3.3,0,0,0,0,.08.25.25,0,0,0,0,.07l0,.07a.43.43,0,0,0,0,.07l.06.07.05.06.06.06.07.06.06,0,.07,0,.07.05.07,0,.08,0,.07,0,.08,0,.08,0,.08,0,.08,0h.65l.09,0h.11l.11,0,.08,0,.07,0,.08,0,.07,0,.07,0,.07,0,.07-.06.06,0,.06-.06.06-.06,0-.07a315234181055.83,315234181055.83,0,0,0,.1-.14l.05-.07,0-.08a.25.25,0,0,0,0-.07l0-.08,0-.08,0-.08a.24.24,0,0,1,0-.08s0-.06,0-.09,0-.05,0-.08a.19.19,0,0,1,0-.08v-.23a.28.28,0,0,1,0-.09s0,0,0-.08,0-.06,0-.08,0-.06,0-.08h0v0a.76.76,0,0,0,0-.11l0-.08,0-.07,0-.08a.25.25,0,0,1,0-.07l-.05-.07,0-.07a.18.18,0,0,1-.05-.07l-.06-.06-.06-.06-.06-.06-.07,0a.18.18,0,0,0-.07-.05l-.07,0-.07,0-.07,0-.08,0-.08,0-.08,0-.08,0-.08,0h-.17l-.08,0h-.12Zm0,0"/><path class="cls-6" d="M144.3,34.58h-.11l-.09,0h-.16l-.08,0h0l-.12,0-.07,0-.08,0-.08,0-.07.05-.07,0-.07,0-.06.06a.18.18,0,0,0-.07,0l-.06.06-.06.06a.18.18,0,0,1-.05.07l-.05.07,0,.07,0,.07a.3.3,0,0,0,0,.08l0,.07,0,.08,0,.08a.24.24,0,0,0,0,.08.31.31,0,0,0,0,.08s0,.06,0,.09,0,0,0,.08a.25.25,0,0,0,0,.08v.23a.28.28,0,0,0,0,.09s0,.05,0,.08,0,.06,0,.09,0,0,0,.07h0l0,0,0,.11,0,.08,0,.07a.3.3,0,0,0,0,.08.25.25,0,0,0,0,.07l0,.07a.43.43,0,0,0,0,.07l.06.07.05.06.06.06.07.06.06,0,.07,0,.07.05.07,0,.08,0,.07,0,.08,0,.08,0,.08,0,.08,0h.65l.09,0h.11l.11,0,.08,0,.07,0,.08,0,.07,0,.07,0,.07,0,.07-.06.06,0,.06-.06.06-.06,0-.07a315234181055.83,315234181055.83,0,0,0,.1-.14l.05-.07,0-.08a.25.25,0,0,0,0-.07l0-.08,0-.08,0-.08a.24.24,0,0,1,0-.08s0-.06,0-.09,0-.05,0-.08a.19.19,0,0,1,0-.08v-.23a.28.28,0,0,1,0-.09s0,0,0-.08,0-.06,0-.08,0-.06,0-.08h0v0a.76.76,0,0,0,0-.11l0-.08,0-.07,0-.08a.25.25,0,0,1,0-.07l-.05-.07,0-.07a.18.18,0,0,1-.05-.07l-.06-.06-.06-.06-.06-.06-.07,0a.18.18,0,0,0-.07-.05l-.07,0-.07,0-.07,0-.08,0-.08,0-.08,0-.08,0-.08,0h-.17l-.08,0h-.12Zm0,0"/><path class="cls-6" d="M144.3,34.58h-.11l-.09,0h-.16l-.08,0h0l-.12,0-.07,0-.08,0-.08,0-.07.05-.07,0-.07,0-.06.06a.18.18,0,0,0-.07,0l-.06.06-.06.06a.18.18,0,0,1-.05.07l-.05.07,0,.07,0,.07a.3.3,0,0,0,0,.08l0,.07,0,.08,0,.08a.24.24,0,0,0,0,.08.31.31,0,0,0,0,.08s0,.06,0,.09,0,0,0,.08a.25.25,0,0,0,0,.08v.23a.28.28,0,0,0,0,.09s0,.05,0,.08,0,.06,0,.09,0,0,0,.07h0l0,0,0,.11,0,.08,0,.07a.3.3,0,0,0,0,.08.25.25,0,0,0,0,.07l0,.07a.43.43,0,0,0,0,.07l.06.07.05.06.06.06.07.06.06,0,.07,0,.07.05.07,0,.08,0,.07,0,.08,0,.08,0,.08,0,.08,0h.65l.09,0h.11l.11,0,.08,0,.07,0,.08,0,.07,0,.07,0,.07,0,.07-.06.06,0,.06-.06.06-.06,0-.07a315234181055.83,315234181055.83,0,0,0,.1-.14l.05-.07,0-.08a.25.25,0,0,0,0-.07l0-.08,0-.08,0-.08a.24.24,0,0,1,0-.08s0-.06,0-.09,0-.05,0-.08a.19.19,0,0,1,0-.08v-.23a.28.28,0,0,1,0-.09s0,0,0-.08,0-.06,0-.08,0-.06,0-.08h0v0a.76.76,0,0,0,0-.11l0-.08,0-.07,0-.08a.25.25,0,0,1,0-.07l-.05-.07,0-.07a.18.18,0,0,1-.05-.07l-.06-.06-.06-.06-.06-.06-.07,0a.18.18,0,0,0-.07-.05l-.07,0-.07,0-.07,0-.08,0-.08,0-.08,0-.08,0-.08,0h-.17l-.08,0h-.12Zm0,0"/><path class="cls-6" d="M144.3,34.58h-.11l-.09,0h-.16l-.08,0h0l-.12,0-.07,0-.08,0-.08,0-.07.05-.07,0-.07,0-.06.06a.18.18,0,0,0-.07,0l-.06.06-.06.06a.18.18,0,0,1-.05.07l-.05.07,0,.07,0,.07a.3.3,0,0,0,0,.08l0,.07,0,.08,0,.08a.24.24,0,0,0,0,.08.31.31,0,0,0,0,.08s0,.06,0,.09,0,0,0,.08a.25.25,0,0,0,0,.08v.23a.28.28,0,0,0,0,.09s0,.05,0,.08,0,.06,0,.09,0,0,0,.07h0l0,0,0,.11,0,.08,0,.07a.3.3,0,0,0,0,.08.25.25,0,0,0,0,.07l0,.07a.43.43,0,0,0,0,.07l.06.07.05.06.06.06.07.06.06,0,.07,0,.07.05.07,0,.08,0,.07,0,.08,0,.08,0,.08,0,.08,0h.65l.09,0h.11l.11,0,.08,0,.07,0,.08,0,.07,0,.07,0,.07,0,.07-.06.06,0,.06-.06.06-.06,0-.07a315234181055.83,315234181055.83,0,0,0,.1-.14l.05-.07,0-.08a.25.25,0,0,0,0-.07l0-.08,0-.08,0-.08a.24.24,0,0,1,0-.08s0-.06,0-.09,0-.05,0-.08a.19.19,0,0,1,0-.08v-.23a.28.28,0,0,1,0-.09s0,0,0-.08,0-.06,0-.08,0-.06,0-.08h0v0a.76.76,0,0,0,0-.11l0-.08,0-.07,0-.08a.25.25,0,0,1,0-.07l-.05-.07,0-.07a.18.18,0,0,1-.05-.07l-.06-.06-.06-.06-.06-.06-.07,0a.18.18,0,0,0-.07-.05l-.07,0-.07,0-.07,0-.08,0-.08,0-.08,0-.08,0-.08,0h-.17l-.08,0h-.12Zm0,0"/><path class="cls-6" d="M144.3,34.58h-.11l-.09,0h-.16l-.08,0h0l-.12,0-.07,0-.08,0-.08,0-.07.05-.07,0-.07,0-.06.06a.18.18,0,0,0-.07,0l-.06.06-.06.06a.18.18,0,0,1-.05.07l-.05.07,0,.07,0,.07a.3.3,0,0,0,0,.08l0,.07,0,.08,0,.08a.24.24,0,0,0,0,.08.31.31,0,0,0,0,.08s0,.06,0,.09,0,0,0,.08a.25.25,0,0,0,0,.08v.23a.28.28,0,0,0,0,.09s0,.05,0,.08,0,.06,0,.09,0,0,0,.07h0l0,0,0,.11,0,.08,0,.07a.3.3,0,0,0,0,.08.25.25,0,0,0,0,.07l0,.07a.43.43,0,0,0,0,.07l.06.07.05.06.06.06.07.06.06,0,.07,0,.07.05.07,0,.08,0,.07,0,.08,0,.08,0,.08,0,.08,0h.65l.09,0h.11l.11,0,.08,0,.07,0,.08,0,.07,0,.07,0,.07,0,.07-.06.06,0,.06-.06.06-.06,0-.07a315234181055.83,315234181055.83,0,0,0,.1-.14l.05-.07,0-.08a.25.25,0,0,0,0-.07l0-.08,0-.08,0-.08a.24.24,0,0,1,0-.08s0-.06,0-.09,0-.05,0-.08a.19.19,0,0,1,0-.08v-.23a.28.28,0,0,1,0-.09s0,0,0-.08,0-.06,0-.08,0-.06,0-.08h0v0a.76.76,0,0,0,0-.11l0-.08,0-.07,0-.08a.25.25,0,0,1,0-.07l-.05-.07,0-.07a.18.18,0,0,1-.05-.07l-.06-.06-.06-.06-.06-.06-.07,0a.18.18,0,0,0-.07-.05l-.07,0-.07,0-.07,0-.08,0-.08,0-.08,0-.08,0-.08,0h-.17l-.08,0h-.12Zm0,0"/><path class="cls-6" d="M144.3,34.58h-.11l-.09,0h-.16l-.08,0h0l-.12,0-.07,0-.08,0-.08,0-.07.05-.07,0-.07,0-.06.06a.18.18,0,0,0-.07,0l-.06.06-.06.06a.18.18,0,0,1-.05.07l-.05.07,0,.07,0,.07a.3.3,0,0,0,0,.08l0,.07,0,.08,0,.08a.24.24,0,0,0,0,.08.31.31,0,0,0,0,.08s0,.06,0,.09,0,0,0,.08a.25.25,0,0,0,0,.08v.23a.28.28,0,0,0,0,.09s0,.05,0,.08,0,.06,0,.08,0,0,0,.08h0l0,0,0,.11,0,.08,0,.07a.3.3,0,0,0,0,.08.25.25,0,0,0,0,.07l0,.07a.43.43,0,0,0,0,.07l.06.07.05.06.06.06.07.06.06,0,.07,0,.07.05.07,0,.08,0,.07,0,.08,0,.08,0,.08,0,.08,0h.17l.08,0h.23l.09,0h.17l.07,0h0l.11,0,.08,0,.07,0,.08,0,.07,0,.07,0,.07,0,.07-.06.06,0,.06-.06.06-.06,0-.07a315234181055.83,315234181055.83,0,0,0,.1-.14l.05-.07,0-.07a.3.3,0,0,0,0-.08l0-.08,0-.08,0-.08a.24.24,0,0,1,0-.08s0-.06,0-.08,0-.06,0-.09a.22.22,0,0,1,0-.08v-.23a.28.28,0,0,1,0-.09s0,0,0-.08,0-.06,0-.08,0-.05,0-.08h0v0a.56.56,0,0,0,0-.12l0-.07,0-.08,0-.08a.25.25,0,0,1,0-.07l-.05-.07,0-.07-.05-.06-.06-.07-.06-.06-.06-.06-.07,0-.07-.05-.07,0-.07,0-.07,0-.08,0-.08,0-.08,0-.08,0-.08,0-.08,0h-.29Zm0,0"/><path class="cls-6" d="M144.3,34.58h-.11l-.09,0h-.16l-.08,0h0l-.12,0-.07,0-.08,0-.08,0-.07.05-.07,0-.07,0-.06.06a.18.18,0,0,0-.07,0l-.06.06-.06.06a.18.18,0,0,1-.05.07l-.05.07,0,.07,0,.07a.3.3,0,0,0,0,.08l0,.07,0,.08,0,.08a.24.24,0,0,0,0,.08.31.31,0,0,0,0,.08s0,.06,0,.09,0,0,0,.08a.25.25,0,0,0,0,.08v.23a.28.28,0,0,0,0,.09s0,.05,0,.08,0,.06,0,.09,0,0,0,.07h0l0,0,0,.11,0,.08,0,.07a.3.3,0,0,0,0,.08.25.25,0,0,0,0,.07l0,.07a.43.43,0,0,0,0,.07l.06.07.05.06.06.06.07.06.06,0,.07,0,.07.05.07,0,.08,0,.07,0,.08,0,.08,0,.08,0,.08,0h.65l.09,0h.11l.11,0,.08,0,.07,0,.08,0,.07,0,.07,0,.07,0,.07-.06.06,0,.06-.06.06-.06,0-.07a315234181055.83,315234181055.83,0,0,0,.1-.14l.05-.07,0-.08a.25.25,0,0,0,0-.07l0-.08,0-.08,0-.08a.24.24,0,0,1,0-.08s0-.06,0-.09,0-.05,0-.08a.19.19,0,0,1,0-.08v-.23a.28.28,0,0,1,0-.09s0,0,0-.08,0-.06,0-.08,0-.06,0-.08h0v0a.76.76,0,0,0,0-.11l0-.08,0-.07,0-.08a.25.25,0,0,1,0-.07l-.05-.07,0-.07a.18.18,0,0,1-.05-.07l-.06-.06-.06-.06-.06-.06-.07,0a.18.18,0,0,0-.07-.05l-.07,0-.07,0-.07,0-.08,0-.08,0-.08,0-.08,0-.08,0h-.17l-.08,0h-.12Zm0,0"/><path class="cls-6" d="M144.3,34.58h-.11l-.09,0h-.16l-.08,0h0l-.12,0-.07,0-.08,0-.08,0-.07.05-.07,0-.07,0-.06.06a.18.18,0,0,0-.07,0l-.06.06-.06.06a.18.18,0,0,1-.05.07l-.05.07,0,.07,0,.07a.3.3,0,0,0,0,.08l0,.07,0,.08,0,.08a.24.24,0,0,0,0,.08.31.31,0,0,0,0,.08s0,.06,0,.09,0,0,0,.08a.25.25,0,0,0,0,.08v.23a.28.28,0,0,0,0,.09s0,.05,0,.08,0,.06,0,.09,0,0,0,.07h0l0,0,0,.11,0,.08,0,.07a.3.3,0,0,0,0,.08.25.25,0,0,0,0,.07l0,.07a.43.43,0,0,0,0,.07l.06.07.05.06.06.06.07.06.06,0,.07,0,.07.05.07,0,.08,0,.07,0,.08,0,.08,0,.08,0,.08,0h.65l.09,0h.11l.11,0,.08,0,.07,0,.08,0,.07,0,.07,0,.07,0,.07-.06.06,0,.06-.06.06-.06,0-.07a315234181055.83,315234181055.83,0,0,0,.1-.14l.05-.07,0-.08a.25.25,0,0,0,0-.07l0-.08,0-.08,0-.08a.24.24,0,0,1,0-.08s0-.06,0-.09,0-.05,0-.08a.19.19,0,0,1,0-.08v-.23a.28.28,0,0,1,0-.09s0,0,0-.08,0-.06,0-.08,0-.06,0-.08h0v0a.76.76,0,0,0,0-.11l0-.08,0-.07,0-.08a.25.25,0,0,1,0-.07l-.05-.07,0-.07a.18.18,0,0,1-.05-.07l-.06-.06-.06-.06-.06-.06-.07,0a.18.18,0,0,0-.07-.05l-.07,0-.07,0-.07,0-.08,0-.08,0-.08,0-.08,0-.08,0h-.17l-.08,0h-.12Zm0,0"/><path class="cls-6" d="M144.3,34.58h-.11l-.09,0h-.16l-.08,0h0l-.12,0-.07,0-.08,0-.08,0-.07.05-.07,0-.07,0-.06.06a.18.18,0,0,0-.07,0l-.06.06-.06.06a.18.18,0,0,1-.05.07l-.05.07,0,.07,0,.07a.3.3,0,0,0,0,.08l0,.07,0,.08,0,.08a.24.24,0,0,0,0,.08.31.31,0,0,0,0,.08s0,.06,0,.09,0,0,0,.08a.25.25,0,0,0,0,.08v.23a.28.28,0,0,0,0,.09s0,.05,0,.08,0,.06,0,.09,0,0,0,.07h0l0,0,0,.11,0,.08,0,.07a.3.3,0,0,0,0,.08.25.25,0,0,0,0,.07l0,.07a.43.43,0,0,0,0,.07l.06.07.05.06.06.06.07.06.06,0,.07,0,.07.05.07,0,.08,0,.07,0,.08,0,.08,0,.08,0,.08,0h.65l.09,0h.11l.11,0,.08,0,.07,0,.08,0,.07,0,.07,0,.07,0,.07-.06.06,0,.06-.06.06-.06,0-.07a315234181055.83,315234181055.83,0,0,0,.1-.14l.05-.07,0-.08a.25.25,0,0,0,0-.07l0-.08,0-.08,0-.08a.24.24,0,0,1,0-.08s0-.06,0-.09,0-.05,0-.08a.19.19,0,0,1,0-.08v-.23a.28.28,0,0,1,0-.09s0,0,0-.08,0-.06,0-.08,0-.06,0-.08h0v0a.76.76,0,0,0,0-.11l0-.08,0-.07,0-.08a.25.25,0,0,1,0-.07l-.05-.07,0-.07a.18.18,0,0,1-.05-.07l-.06-.06-.06-.06-.06-.06-.07,0a.18.18,0,0,0-.07-.05l-.07,0-.07,0-.07,0-.08,0-.08,0-.08,0-.08,0-.08,0h-.17l-.08,0h-.12Zm0,0"/><path class="cls-6" d="M144.3,34.58h-.11l-.09,0h-.16l-.08,0h0l-.12,0-.07,0-.08,0-.08,0-.07.05-.07,0-.07,0-.06.06a.18.18,0,0,0-.07,0l-.06.06-.06.06a.18.18,0,0,1-.05.07l-.05.07,0,.07,0,.07a.3.3,0,0,0,0,.08l0,.07,0,.08,0,.08a.24.24,0,0,0,0,.08.31.31,0,0,0,0,.08s0,.06,0,.09,0,0,0,.08a.25.25,0,0,0,0,.08v.23a.28.28,0,0,0,0,.09s0,.05,0,.08,0,.06,0,.09,0,0,0,.07h0l0,0,0,.11,0,.08,0,.07a.3.3,0,0,0,0,.08.25.25,0,0,0,0,.07l0,.07a.43.43,0,0,0,0,.07l.06.07.05.06.06.06.07.06.06,0,.07,0,.07.05.07,0,.08,0,.07,0,.08,0,.08,0,.08,0,.08,0h.65l.09,0h.11l.11,0,.08,0,.07,0,.08,0,.07,0,.07,0,.07,0,.07-.06.06,0,.06-.06.06-.06,0-.07a315234181055.83,315234181055.83,0,0,0,.1-.14l.05-.07,0-.08a.25.25,0,0,0,0-.07l0-.08,0-.08,0-.08a.24.24,0,0,1,0-.08s0-.06,0-.09,0-.05,0-.08a.19.19,0,0,1,0-.08v-.23a.28.28,0,0,1,0-.09s0,0,0-.08,0-.06,0-.08,0-.06,0-.08h0v0a.76.76,0,0,0,0-.11l0-.08,0-.07,0-.08a.25.25,0,0,1,0-.07l-.05-.07,0-.07a.18.18,0,0,1-.05-.07l-.06-.06-.06-.06-.06-.06-.07,0a.18.18,0,0,0-.07-.05l-.07,0-.07,0-.07,0-.08,0-.08,0-.08,0-.08,0-.08,0h-.17l-.08,0h-.12Zm0,0"/><path class="cls-6" d="M144.3,34.58h-.11l-.09,0h-.16l-.08,0h0l-.12,0-.07,0-.08,0-.08,0-.07.05-.07,0-.07,0-.06.06a.18.18,0,0,0-.07,0l-.06.06-.06.06a.18.18,0,0,1-.05.07l-.05.07,0,.07,0,.07a.3.3,0,0,0,0,.08l0,.07,0,.08,0,.08a.24.24,0,0,0,0,.08.31.31,0,0,0,0,.08s0,.06,0,.09,0,0,0,.08a.25.25,0,0,0,0,.08v.23a.28.28,0,0,0,0,.09s0,.05,0,.08,0,.06,0,.09,0,0,0,.07h0l0,0,0,.11,0,.08,0,.07a.3.3,0,0,0,0,.08.25.25,0,0,0,0,.07l0,.07a.43.43,0,0,0,0,.07l.06.07.05.06.06.06.07.06.06,0,.07,0,.07.05.07,0,.08,0,.07,0,.08,0,.08,0,.08,0,.08,0h.65l.09,0h.11l.11,0,.08,0,.07,0,.08,0,.07,0,.07,0,.07,0,.07-.06.06,0,.06-.06.06-.06,0-.07a315234181055.83,315234181055.83,0,0,0,.1-.14l.05-.07,0-.08a.25.25,0,0,0,0-.07l0-.08,0-.08,0-.08a.24.24,0,0,1,0-.08s0-.06,0-.09,0-.05,0-.08a.19.19,0,0,1,0-.08v-.23a.28.28,0,0,1,0-.09s0,0,0-.08,0-.06,0-.08,0-.06,0-.08h0v0a.76.76,0,0,0,0-.11l0-.08,0-.07,0-.08a.25.25,0,0,1,0-.07l-.05-.07,0-.07a.18.18,0,0,1-.05-.07l-.06-.06-.06-.06-.06-.06-.07,0a.18.18,0,0,0-.07-.05l-.07,0-.07,0-.07,0-.08,0-.08,0-.08,0-.08,0-.08,0h-.17l-.08,0h-.12Zm0,0"/><path class="cls-6" d="M144.3,34.58h-.11l-.09,0h-.16l-.08,0h0l-.12,0-.07,0-.08,0-.08,0-.07.05-.07,0-.07,0-.06.06a.18.18,0,0,0-.07,0l-.06.06-.06.06a.18.18,0,0,1-.05.07l-.05.07,0,.07,0,.07a.3.3,0,0,0,0,.08l0,.07,0,.08,0,.08a.24.24,0,0,0,0,.08.31.31,0,0,0,0,.08s0,.06,0,.09,0,0,0,.08a.25.25,0,0,0,0,.08v.23a.28.28,0,0,0,0,.09s0,.05,0,.08,0,.06,0,.09,0,0,0,.07h0l0,0,0,.11,0,.08,0,.07a.3.3,0,0,0,0,.08.25.25,0,0,0,0,.07l0,.07a.43.43,0,0,0,0,.07l.06.07.05.06.06.06.07.06.06,0,.07,0,.07.05.07,0,.08,0,.07,0,.08,0,.08,0,.08,0,.08,0h.65l.09,0h.11l.11,0,.08,0,.07,0,.08,0,.07,0,.07,0,.07,0,.07-.06.06,0,.06-.06.06-.06,0-.07a315234181055.83,315234181055.83,0,0,0,.1-.14l.05-.07,0-.08a.25.25,0,0,0,0-.07l0-.08,0-.08,0-.08a.24.24,0,0,1,0-.08s0-.06,0-.09,0-.05,0-.08a.19.19,0,0,1,0-.08v-.23a.28.28,0,0,1,0-.09s0,0,0-.08,0-.06,0-.08,0-.06,0-.08h0v0a.76.76,0,0,0,0-.11l0-.08,0-.07,0-.08a.25.25,0,0,1,0-.07l-.05-.07,0-.07a.18.18,0,0,1-.05-.07l-.06-.06-.06-.06-.06-.06-.07,0a.18.18,0,0,0-.07-.05l-.07,0-.07,0-.07,0-.08,0-.08,0-.08,0-.08,0-.08,0h-.17l-.08,0h-.12Zm0,0"/><path class="cls-6" d="M144.3,34.58h-.11l-.09,0h-.16l-.08,0h0l-.12,0-.07,0-.08,0-.08,0-.07.05-.07,0-.07,0-.06.06a.18.18,0,0,0-.07,0l-.06.06-.06.06a.18.18,0,0,1-.05.07l-.05.07,0,.07,0,.07a.3.3,0,0,0,0,.08l0,.07,0,.08,0,.08a.24.24,0,0,0,0,.08.31.31,0,0,0,0,.08s0,.06,0,.09,0,0,0,.08a.25.25,0,0,0,0,.08v.23a.28.28,0,0,0,0,.09s0,.05,0,.08,0,.06,0,.09,0,0,0,.07h0l0,0,0,.11,0,.08,0,.07a.3.3,0,0,0,0,.08.25.25,0,0,0,0,.07l0,.07a.43.43,0,0,0,0,.07l.06.07.05.06.06.06.07.06.06,0,.07,0,.07.05.07,0,.08,0,.07,0,.08,0,.08,0,.08,0,.08,0h.65l.09,0h.11l.11,0,.08,0,.07,0,.08,0,.07,0,.07,0,.07,0,.07-.06.06,0,.06-.06.06-.06,0-.07a315234181055.83,315234181055.83,0,0,0,.1-.14l.05-.07,0-.08a.25.25,0,0,0,0-.07l0-.08,0-.08,0-.08a.24.24,0,0,1,0-.08s0-.06,0-.09,0-.05,0-.08a.19.19,0,0,1,0-.08v-.23a.28.28,0,0,1,0-.09s0,0,0-.08,0-.06,0-.08,0-.06,0-.08h0v0a.76.76,0,0,0,0-.11l0-.08,0-.07,0-.08a.25.25,0,0,1,0-.07l-.05-.07,0-.07a.18.18,0,0,1-.05-.07l-.06-.06-.06-.06-.06-.06-.07,0a.18.18,0,0,0-.07-.05l-.07,0-.07,0-.07,0-.08,0-.08,0-.08,0-.08,0-.08,0h-.17l-.08,0h-.12Zm0,0"/><path class="cls-6" d="M144.3,34.58h-.11l-.09,0h-.16l-.08,0h0l-.12,0-.07,0-.08,0-.08,0-.07.05-.07,0-.07,0-.06.06a.18.18,0,0,0-.07,0l-.06.06-.06.06a.18.18,0,0,1-.05.07l-.05.07,0,.07,0,.07a.3.3,0,0,0,0,.08l0,.07,0,.08,0,.08a.24.24,0,0,0,0,.08.31.31,0,0,0,0,.08s0,.06,0,.09,0,0,0,.08a.25.25,0,0,0,0,.08v.23a.28.28,0,0,0,0,.09s0,.05,0,.08,0,.06,0,.09,0,0,0,.07h0l0,0,0,.11,0,.08,0,.07a.3.3,0,0,0,0,.08.25.25,0,0,0,0,.07l0,.07a.43.43,0,0,0,0,.07l.06.07.05.06.06.06.07.06.06,0,.07,0,.07.05.07,0,.08,0,.07,0,.08,0,.08,0,.08,0,.08,0h.65l.09,0h.11l.11,0,.08,0,.07,0,.08,0,.07,0,.07,0,.07,0,.07-.06.06,0,.06-.06.06-.06,0-.07a315234181055.83,315234181055.83,0,0,0,.1-.14l.05-.07,0-.08a.25.25,0,0,0,0-.07l0-.08,0-.08,0-.08a.24.24,0,0,1,0-.08s0-.06,0-.09,0-.05,0-.08a.19.19,0,0,1,0-.08v-.23a.28.28,0,0,1,0-.09s0,0,0-.08,0-.06,0-.08,0-.06,0-.08h0v0a.76.76,0,0,0,0-.11l0-.08,0-.07,0-.08a.25.25,0,0,1,0-.07l-.05-.07,0-.07a.18.18,0,0,1-.05-.07l-.06-.06-.06-.06-.06-.06-.07,0a.18.18,0,0,0-.07-.05l-.07,0-.07,0-.07,0-.08,0-.08,0-.08,0-.08,0-.08,0h-.17l-.08,0h-.12Zm0,0"/><path class="cls-6" d="M144.3,34.58h-.11l-.09,0h-.16l-.08,0h0l-.12,0-.07,0-.08,0-.08,0-.07.05-.07,0-.07,0-.06.06a.18.18,0,0,0-.07,0l-.06.06-.06.06a.18.18,0,0,1-.05.07l-.05.07,0,.07,0,.07a.3.3,0,0,0,0,.08l0,.07,0,.08,0,.08a.24.24,0,0,0,0,.08.31.31,0,0,0,0,.08s0,.06,0,.09,0,0,0,.08a.25.25,0,0,0,0,.08v.23a.28.28,0,0,0,0,.09s0,.05,0,.08,0,.06,0,.09,0,0,0,.07h0l0,0,0,.11,0,.08,0,.07a.3.3,0,0,0,0,.08.25.25,0,0,0,0,.07l0,.07a.43.43,0,0,0,0,.07l.06.07.05.06.06.06.07.06.06,0,.07,0,.07.05.07,0,.08,0,.07,0,.08,0,.08,0,.08,0,.08,0h.65l.09,0h.11l.11,0,.08,0,.07,0,.08,0,.07,0,.07,0,.07,0,.07-.06.06,0,.06-.06.06-.06,0-.07a315234181055.83,315234181055.83,0,0,0,.1-.14l.05-.07,0-.08a.25.25,0,0,0,0-.07l0-.08,0-.08,0-.08a.24.24,0,0,1,0-.08s0-.06,0-.09,0-.05,0-.08a.19.19,0,0,1,0-.08v-.23a.28.28,0,0,1,0-.09s0,0,0-.08,0-.06,0-.08,0-.06,0-.08h0v0a.76.76,0,0,0,0-.11l0-.08,0-.07,0-.08a.25.25,0,0,1,0-.07l-.05-.07,0-.07a.18.18,0,0,1-.05-.07l-.06-.06-.06-.06-.06-.06-.07,0a.18.18,0,0,0-.07-.05l-.07,0-.07,0-.07,0-.08,0-.08,0-.08,0-.08,0-.08,0h-.17l-.08,0h-.12Zm0,0"/><path class="cls-6" d="M144.3,34.58h-.11l-.09,0h-.16l-.08,0h0l-.12,0-.07,0-.08,0-.08,0-.07.05-.07,0-.07,0-.06.06a.18.18,0,0,0-.07,0l-.06.06-.06.06a.18.18,0,0,1-.05.07l-.05.07,0,.07,0,.07a.3.3,0,0,0,0,.08l0,.07,0,.08,0,.08a.24.24,0,0,0,0,.08.31.31,0,0,0,0,.08s0,.06,0,.09,0,0,0,.08a.25.25,0,0,0,0,.08v.23a.28.28,0,0,0,0,.09s0,.05,0,.08,0,.06,0,.08,0,0,0,.08h0l0,0,0,.11,0,.08,0,.07a.3.3,0,0,0,0,.08.25.25,0,0,0,0,.07l0,.07a.43.43,0,0,0,0,.07l.06.07.05.06.06.06.07.06.06,0,.07,0,.07.05.07,0,.08,0,.07,0,.08,0,.08,0,.08,0,.08,0h.17l.08,0h.23l.09,0h.17l.07,0h0l.11,0,.08,0,.07,0,.08,0,.07,0,.07,0,.07,0,.07-.06.06,0,.06-.06.06-.06,0-.07a315234181055.83,315234181055.83,0,0,0,.1-.14l.05-.07,0-.07a.3.3,0,0,0,0-.08l0-.08,0-.08,0-.08a.24.24,0,0,1,0-.08s0-.06,0-.08,0-.06,0-.09a.22.22,0,0,1,0-.08v-.23a.28.28,0,0,1,0-.09s0,0,0-.08,0-.06,0-.08,0-.05,0-.08h0v0a.56.56,0,0,0,0-.12l0-.07,0-.08,0-.08a.25.25,0,0,1,0-.07l-.05-.07,0-.07-.05-.06-.06-.07-.06-.06-.06-.06-.07,0-.07-.05-.07,0-.07,0-.07,0-.08,0-.08,0-.08,0-.08,0-.08,0-.08,0h-.29Zm0,0"/><path class="cls-6" d="M144.3,34.58h-.11l-.09,0h-.16l-.08,0h0l-.12,0-.07,0-.08,0-.08,0-.07.05-.07,0-.07,0-.06.06a.18.18,0,0,0-.07,0l-.06.06-.06.06a.18.18,0,0,1-.05.07l-.05.07,0,.07,0,.07a.3.3,0,0,0,0,.08l0,.07,0,.08,0,.08a.24.24,0,0,0,0,.08.31.31,0,0,0,0,.08s0,.06,0,.09,0,0,0,.08a.25.25,0,0,0,0,.08v.23a.28.28,0,0,0,0,.09s0,.05,0,.08,0,.06,0,.09,0,0,0,.07h0l0,0,0,.11,0,.08,0,.07a.3.3,0,0,0,0,.08.25.25,0,0,0,0,.07l0,.07a.43.43,0,0,0,0,.07l.06.07.05.06.06.06.07.06.06,0,.07,0,.07.05.07,0,.08,0,.07,0,.08,0,.08,0,.08,0,.08,0h.65l.09,0h.11l.11,0,.08,0,.07,0,.08,0,.07,0,.07,0,.07,0,.07-.06.06,0,.06-.06.06-.06,0-.07a315234181055.83,315234181055.83,0,0,0,.1-.14l.05-.07,0-.08a.25.25,0,0,0,0-.07l0-.08,0-.08,0-.08a.24.24,0,0,1,0-.08s0-.06,0-.09,0-.05,0-.08a.19.19,0,0,1,0-.08v-.23a.28.28,0,0,1,0-.09s0,0,0-.08,0-.06,0-.08,0-.06,0-.08h0v0a.76.76,0,0,0,0-.11l0-.08,0-.07,0-.08a.25.25,0,0,1,0-.07l-.05-.07,0-.07a.18.18,0,0,1-.05-.07l-.06-.06-.06-.06-.06-.06-.07,0a.18.18,0,0,0-.07-.05l-.07,0-.07,0-.07,0-.08,0-.08,0-.08,0-.08,0-.08,0h-.17l-.08,0h-.12Zm0,0"/><path class="cls-6" d="M144.3,34.58h-.11l-.09,0h-.16l-.08,0h0l-.12,0-.07,0-.08,0-.08,0-.07.05-.07,0-.07,0-.06.06a.18.18,0,0,0-.07,0l-.06.06-.06.06a.18.18,0,0,1-.05.07l-.05.07,0,.07,0,.07a.3.3,0,0,0,0,.08l0,.07,0,.08,0,.08a.24.24,0,0,0,0,.08.31.31,0,0,0,0,.08s0,.06,0,.09,0,0,0,.08a.25.25,0,0,0,0,.08v.23a.28.28,0,0,0,0,.09s0,.05,0,.08,0,.06,0,.09,0,0,0,.07h0l0,0,0,.11,0,.08,0,.07a.3.3,0,0,0,0,.08.25.25,0,0,0,0,.07l0,.07a.43.43,0,0,0,0,.07l.06.07.05.06.06.06.07.06.06,0,.07,0,.07.05.07,0,.08,0,.07,0,.08,0,.08,0,.08,0,.08,0h.65l.09,0h.11l.11,0,.08,0,.07,0,.08,0,.07,0,.07,0,.07,0,.07-.06.06,0,.06-.06.06-.06,0-.07a315234181055.83,315234181055.83,0,0,0,.1-.14l.05-.07,0-.08a.25.25,0,0,0,0-.07l0-.08,0-.08,0-.08a.24.24,0,0,1,0-.08s0-.06,0-.09,0-.05,0-.08a.19.19,0,0,1,0-.08v-.23a.28.28,0,0,1,0-.09s0,0,0-.08,0-.06,0-.08,0-.06,0-.08h0v0a.76.76,0,0,0,0-.11l0-.08,0-.07,0-.08a.25.25,0,0,1,0-.07l-.05-.07,0-.07a.18.18,0,0,1-.05-.07l-.06-.06-.06-.06-.06-.06-.07,0a.18.18,0,0,0-.07-.05l-.07,0-.07,0-.07,0-.08,0-.08,0-.08,0-.08,0-.08,0h-.17l-.08,0h-.12Zm0,0"/><path class="cls-6" d="M144.3,34.58h-.11l-.09,0h-.16l-.08,0h0l-.12,0-.07,0-.08,0-.08,0-.07.05-.07,0-.07,0-.06.06a.18.18,0,0,0-.07,0l-.06.06-.06.06a.18.18,0,0,1-.05.07l-.05.07,0,.07,0,.07a.3.3,0,0,0,0,.08l0,.07,0,.08,0,.08a.24.24,0,0,0,0,.08.31.31,0,0,0,0,.08s0,.06,0,.09,0,0,0,.08a.25.25,0,0,0,0,.08v.23a.28.28,0,0,0,0,.09s0,.05,0,.08,0,.06,0,.09,0,0,0,.07h0l0,0,0,.11,0,.08,0,.07a.3.3,0,0,0,0,.08.25.25,0,0,0,0,.07l0,.07a.43.43,0,0,0,0,.07l.06.07.05.06.06.06.07.06.06,0,.07,0,.07.05.07,0,.08,0,.07,0,.08,0,.08,0,.08,0,.08,0h.65l.09,0h.11l.11,0,.08,0,.07,0,.08,0,.07,0,.07,0,.07,0,.07-.06.06,0,.06-.06.06-.06,0-.07a315234181055.83,315234181055.83,0,0,0,.1-.14l.05-.07,0-.08a.25.25,0,0,0,0-.07l0-.08,0-.08,0-.08a.24.24,0,0,1,0-.08s0-.06,0-.09,0-.05,0-.08a.19.19,0,0,1,0-.08v-.23a.28.28,0,0,1,0-.09s0,0,0-.08,0-.06,0-.08,0-.06,0-.08h0v0a.76.76,0,0,0,0-.11l0-.08,0-.07,0-.08a.25.25,0,0,1,0-.07l-.05-.07,0-.07a.18.18,0,0,1-.05-.07l-.06-.06-.06-.06-.06-.06-.07,0a.18.18,0,0,0-.07-.05l-.07,0-.07,0-.07,0-.08,0-.08,0-.08,0-.08,0-.08,0h-.17l-.08,0h-.12Zm0,0"/><path class="cls-6" d="M144.3,34.58h-.11l-.09,0h-.16l-.08,0h0l-.12,0-.07,0-.08,0-.08,0-.07.05-.07,0-.07,0-.06.06a.18.18,0,0,0-.07,0l-.06.06-.06.06a.18.18,0,0,1-.05.07l-.05.07,0,.07,0,.07a.3.3,0,0,0,0,.08l0,.07,0,.08,0,.08a.24.24,0,0,0,0,.08.31.31,0,0,0,0,.08s0,.06,0,.09,0,0,0,.08a.25.25,0,0,0,0,.08v.23a.28.28,0,0,0,0,.09s0,.05,0,.08,0,.06,0,.09,0,0,0,.07h0l0,0,0,.11,0,.08,0,.07a.3.3,0,0,0,0,.08.25.25,0,0,0,0,.07l0,.07a.43.43,0,0,0,0,.07l.06.07.05.06.06.06.07.06.06,0,.07,0,.07.05.07,0,.08,0,.07,0,.08,0,.08,0,.08,0,.08,0h.65l.09,0h.11l.11,0,.08,0,.07,0,.08,0,.07,0,.07,0,.07,0,.07-.06.06,0,.06-.06.06-.06,0-.07a315234181055.83,315234181055.83,0,0,0,.1-.14l.05-.07,0-.08a.25.25,0,0,0,0-.07l0-.08,0-.08,0-.08a.24.24,0,0,1,0-.08s0-.06,0-.09,0-.05,0-.08a.19.19,0,0,1,0-.08v-.23a.28.28,0,0,1,0-.09s0,0,0-.08,0-.06,0-.08,0-.06,0-.08h0v0a.76.76,0,0,0,0-.11l0-.08,0-.07,0-.08a.25.25,0,0,1,0-.07l-.05-.07,0-.07a.18.18,0,0,1-.05-.07l-.06-.06-.06-.06-.06-.06-.07,0a.18.18,0,0,0-.07-.05l-.07,0-.07,0-.07,0-.08,0-.08,0-.08,0-.08,0-.08,0h-.17l-.08,0h-.12Zm0,0"/><path class="cls-6" d="M144.3,34.58h-.11l-.09,0h-.16l-.08,0h0l-.12,0-.07,0-.08,0-.08,0-.07.05-.07,0-.07,0-.06.06a.18.18,0,0,0-.07,0l-.06.06-.06.06a.18.18,0,0,1-.05.07l-.05.07,0,.07,0,.07a.3.3,0,0,0,0,.08l0,.07,0,.08,0,.08a.24.24,0,0,0,0,.08.31.31,0,0,0,0,.08s0,.06,0,.09,0,0,0,.08a.25.25,0,0,0,0,.08v.23a.28.28,0,0,0,0,.09s0,.05,0,.08,0,.06,0,.09,0,0,0,.07h0l0,0,0,.11,0,.08,0,.07a.3.3,0,0,0,0,.08.25.25,0,0,0,0,.07l0,.07a.43.43,0,0,0,0,.07l.06.07.05.06.06.06.07.06.06,0,.07,0,.07.05.07,0,.08,0,.07,0,.08,0,.08,0,.08,0,.08,0h.65l.09,0h.11l.11,0,.08,0,.07,0,.08,0,.07,0,.07,0,.07,0,.07-.06.06,0,.06-.06.06-.06,0-.07a315234181055.83,315234181055.83,0,0,0,.1-.14l.05-.07,0-.08a.25.25,0,0,0,0-.07l0-.08,0-.08,0-.08a.24.24,0,0,1,0-.08s0-.06,0-.09,0-.05,0-.08a.19.19,0,0,1,0-.08v-.23a.28.28,0,0,1,0-.09s0,0,0-.08,0-.06,0-.08,0-.06,0-.08h0v0a.76.76,0,0,0,0-.11l0-.08,0-.07,0-.08a.25.25,0,0,1,0-.07l-.05-.07,0-.07a.18.18,0,0,1-.05-.07l-.06-.06-.06-.06-.06-.06-.07,0a.18.18,0,0,0-.07-.05l-.07,0-.07,0-.07,0-.08,0-.08,0-.08,0-.08,0-.08,0h-.17l-.08,0h-.12Zm0,0"/><path class="cls-6" d="M144.3,34.58h-.11l-.09,0h-.16l-.08,0h0l-.12,0-.07,0-.08,0-.08,0-.07.05-.07,0-.07,0-.06.06a.18.18,0,0,0-.07,0l-.06.06-.06.06a.18.18,0,0,1-.05.07l-.05.07,0,.07,0,.07a.3.3,0,0,0,0,.08l0,.07,0,.08,0,.08a.24.24,0,0,0,0,.08.31.31,0,0,0,0,.08s0,.06,0,.09,0,0,0,.08a.25.25,0,0,0,0,.08v.23a.28.28,0,0,0,0,.09s0,.05,0,.08,0,.06,0,.09,0,0,0,.07h0l0,0,0,.11,0,.08,0,.07a.3.3,0,0,0,0,.08.25.25,0,0,0,0,.07l0,.07a.43.43,0,0,0,0,.07l.06.07.05.06.06.06.07.06.06,0,.07,0,.07.05.07,0,.08,0,.07,0,.08,0,.08,0,.08,0,.08,0h.65l.09,0h.11l.11,0,.08,0,.07,0,.08,0,.07,0,.07,0,.07,0,.07-.06.06,0,.06-.06.06-.06,0-.07a315234181055.83,315234181055.83,0,0,0,.1-.14l.05-.07,0-.08a.25.25,0,0,0,0-.07l0-.08,0-.08,0-.08a.24.24,0,0,1,0-.08s0-.06,0-.09,0-.05,0-.08a.19.19,0,0,1,0-.08v-.23a.28.28,0,0,1,0-.09s0,0,0-.08,0-.06,0-.08,0-.06,0-.08h0v0a.76.76,0,0,0,0-.11l0-.08,0-.07,0-.08a.25.25,0,0,1,0-.07l-.05-.07,0-.07a.18.18,0,0,1-.05-.07l-.06-.06-.06-.06-.06-.06-.07,0a.18.18,0,0,0-.07-.05l-.07,0-.07,0-.07,0-.08,0-.08,0-.08,0-.08,0-.08,0h-.17l-.08,0h-.12Zm0,0"/><path class="cls-6" d="M144.3,34.58h-.11l-.09,0h-.16l-.08,0h0l-.12,0-.07,0-.08,0-.08,0-.07.05-.07,0-.07,0-.06.06a.18.18,0,0,0-.07,0l-.06.06-.06.06a.18.18,0,0,1-.05.07l-.05.07,0,.07,0,.07a.3.3,0,0,0,0,.08l0,.07,0,.08,0,.08a.24.24,0,0,0,0,.08.31.31,0,0,0,0,.08s0,.06,0,.09,0,0,0,.08a.25.25,0,0,0,0,.08v.23a.28.28,0,0,0,0,.09s0,.05,0,.08,0,.06,0,.09,0,0,0,.07h0l0,0,0,.11,0,.08,0,.07a.3.3,0,0,0,0,.08.25.25,0,0,0,0,.07l0,.07a.43.43,0,0,0,0,.07l.06.07.05.06.06.06.07.06.06,0,.07,0,.07.05.07,0,.08,0,.07,0,.08,0,.08,0,.08,0,.08,0h.65l.09,0h.11l.11,0,.08,0,.07,0,.08,0,.07,0,.07,0,.07,0,.07-.06.06,0,.06-.06.06-.06,0-.07a315234181055.83,315234181055.83,0,0,0,.1-.14l.05-.07,0-.08a.25.25,0,0,0,0-.07l0-.08,0-.08,0-.08a.24.24,0,0,1,0-.08s0-.06,0-.09,0-.05,0-.08a.19.19,0,0,1,0-.08v-.23a.28.28,0,0,1,0-.09s0,0,0-.08,0-.06,0-.08,0-.06,0-.08h0v0a.76.76,0,0,0,0-.11l0-.08,0-.07,0-.08a.25.25,0,0,1,0-.07l-.05-.07,0-.07a.18.18,0,0,1-.05-.07l-.06-.06-.06-.06-.06-.06-.07,0a.18.18,0,0,0-.07-.05l-.07,0-.07,0-.07,0-.08,0-.08,0-.08,0-.08,0-.08,0h-.17l-.08,0h-.12Zm0,0"/><path class="cls-6" d="M144.3,34.58h-.11l-.09,0h-.16l-.08,0h0l-.12,0-.07,0-.08,0-.08,0-.07.05-.07,0-.07,0-.06.06a.18.18,0,0,0-.07,0l-.06.06-.06.06a.18.18,0,0,1-.05.07l-.05.07,0,.07,0,.07a.3.3,0,0,0,0,.08l0,.07,0,.08,0,.08a.24.24,0,0,0,0,.08.31.31,0,0,0,0,.08s0,.06,0,.09,0,0,0,.08a.25.25,0,0,0,0,.08v.23a.28.28,0,0,0,0,.09s0,.05,0,.08,0,.06,0,.09,0,0,0,.07h0l0,0,0,.11,0,.08,0,.07a.3.3,0,0,0,0,.08.25.25,0,0,0,0,.07l0,.07a.43.43,0,0,0,0,.07l.06.07.05.06.06.06.07.06.06,0,.07,0,.07.05.07,0,.08,0,.07,0,.08,0,.08,0,.08,0,.08,0h.65l.09,0h.11l.11,0,.08,0,.07,0,.08,0,.07,0,.07,0,.07,0,.07-.06.06,0,.06-.06.06-.06,0-.07a315234181055.83,315234181055.83,0,0,0,.1-.14l.05-.07,0-.08a.25.25,0,0,0,0-.07l0-.08,0-.08,0-.08a.24.24,0,0,1,0-.08s0-.06,0-.09,0-.05,0-.08a.19.19,0,0,1,0-.08v-.23a.28.28,0,0,1,0-.09s0,0,0-.08,0-.06,0-.08,0-.06,0-.08h0v0a.76.76,0,0,0,0-.11l0-.08,0-.07,0-.08a.25.25,0,0,1,0-.07l-.05-.07,0-.07a.18.18,0,0,1-.05-.07l-.06-.06-.06-.06-.06-.06-.07,0a.18.18,0,0,0-.07-.05l-.07,0-.07,0-.07,0-.08,0-.08,0-.08,0-.08,0-.08,0h-.17l-.08,0h-.12Zm0,0"/><path class="cls-6" d="M144.3,34.58h-.11l-.09,0h-.16l-.08,0h0l-.12,0-.07,0-.08,0-.08,0-.07.05-.07,0-.07,0-.06.06a.18.18,0,0,0-.07,0l-.06.06-.06.06a.18.18,0,0,1-.05.07l-.05.07,0,.07,0,.07a.3.3,0,0,0,0,.08l0,.07,0,.08,0,.08a.24.24,0,0,0,0,.08.31.31,0,0,0,0,.08s0,.06,0,.09,0,0,0,.08a.25.25,0,0,0,0,.08v.23a.28.28,0,0,0,0,.09s0,.05,0,.08,0,.06,0,.09,0,0,0,.07h0l0,0,0,.11,0,.08,0,.07a.3.3,0,0,0,0,.08.25.25,0,0,0,0,.07l0,.07a.43.43,0,0,0,0,.07l.06.07.05.06.06.06.07.06.06,0,.07,0,.07.05.07,0,.08,0,.07,0,.08,0,.08,0,.08,0,.08,0h.65l.09,0h.11l.11,0,.08,0,.07,0,.08,0,.07,0,.07,0,.07,0,.07-.06.06,0,.06-.06.06-.06,0-.07a315234181055.83,315234181055.83,0,0,0,.1-.14l.05-.07,0-.08a.25.25,0,0,0,0-.07l0-.08,0-.08,0-.08a.24.24,0,0,1,0-.08s0-.06,0-.09,0-.05,0-.08a.19.19,0,0,1,0-.08v-.23a.28.28,0,0,1,0-.09s0,0,0-.08,0-.06,0-.08,0-.06,0-.08h0v0a.76.76,0,0,0,0-.11l0-.08,0-.07,0-.08a.25.25,0,0,1,0-.07l-.05-.07,0-.07a.18.18,0,0,1-.05-.07l-.06-.06-.06-.06-.06-.06-.07,0a.18.18,0,0,0-.07-.05l-.07,0-.07,0-.07,0-.08,0-.08,0-.08,0-.08,0-.08,0h-.17l-.08,0h-.12Zm0,0"/><path class="cls-6" d="M144.3,34.58h-.11l-.09,0h-.16l-.08,0h0l-.12,0-.07,0-.08,0-.08,0-.07.05-.07,0-.07,0-.06.06a.18.18,0,0,0-.07,0l-.06.06-.06.06a.18.18,0,0,1-.05.07l-.05.07,0,.07,0,.07a.3.3,0,0,0,0,.08l0,.07,0,.08,0,.08a.24.24,0,0,0,0,.08.31.31,0,0,0,0,.08s0,.06,0,.09,0,0,0,.08a.25.25,0,0,0,0,.08v.23a.28.28,0,0,0,0,.09s0,.05,0,.08,0,.06,0,.08,0,0,0,.08h0l0,0,0,.11,0,.08,0,.07a.3.3,0,0,0,0,.08.25.25,0,0,0,0,.07l0,.07a.43.43,0,0,0,0,.07l.06.07.05.06.06.06.07.06.06,0,.07,0,.07.05.07,0,.08,0,.07,0,.08,0,.08,0,.08,0,.08,0h.17l.08,0h.23l.09,0h.17l.07,0h0l.11,0,.08,0,.07,0,.08,0,.07,0,.07,0,.07,0,.07-.06.06,0,.06-.06.06-.06,0-.07a315234181055.83,315234181055.83,0,0,0,.1-.14l.05-.07,0-.07a.3.3,0,0,0,0-.08l0-.08,0-.08,0-.08a.24.24,0,0,1,0-.08s0-.06,0-.08,0-.06,0-.09a.22.22,0,0,1,0-.08v-.23a.28.28,0,0,1,0-.09s0,0,0-.08,0-.06,0-.08,0-.05,0-.08h0v0a.56.56,0,0,0,0-.12l0-.07,0-.08,0-.08a.25.25,0,0,1,0-.07l-.05-.07,0-.07-.05-.06-.06-.07-.06-.06-.06-.06-.07,0-.07-.05-.07,0-.07,0-.07,0-.08,0-.08,0-.08,0-.08,0-.08,0-.08,0h-.29Zm0,0"/><path class="cls-6" d="M144.3,34.58h-.11l-.09,0h-.16l-.08,0h0l-.12,0-.07,0-.08,0-.08,0-.07.05-.07,0-.07,0-.06.06a.18.18,0,0,0-.07,0l-.06.06-.06.06a.18.18,0,0,1-.05.07l-.05.07,0,.07,0,.07a.3.3,0,0,0,0,.08l0,.07,0,.08,0,.08a.24.24,0,0,0,0,.08.31.31,0,0,0,0,.08s0,.06,0,.09,0,0,0,.08a.25.25,0,0,0,0,.08v.23a.28.28,0,0,0,0,.09s0,.05,0,.08,0,.06,0,.09,0,0,0,.07h0l0,0,0,.11,0,.08,0,.07a.3.3,0,0,0,0,.08.25.25,0,0,0,0,.07l0,.07a.43.43,0,0,0,0,.07l.06.07.05.06.06.06.07.06.06,0,.07,0,.07.05.07,0,.08,0,.07,0,.08,0,.08,0,.08,0,.08,0h.65l.09,0h.11l.11,0,.08,0,.07,0,.08,0,.07,0,.07,0,.07,0,.07-.06.06,0,.06-.06.06-.06,0-.07a315234181055.83,315234181055.83,0,0,0,.1-.14l.05-.07,0-.08a.25.25,0,0,0,0-.07l0-.08,0-.08,0-.08a.24.24,0,0,1,0-.08s0-.06,0-.09,0-.05,0-.08a.19.19,0,0,1,0-.08v-.23a.28.28,0,0,1,0-.09s0,0,0-.08,0-.06,0-.08,0-.06,0-.08h0v0a.76.76,0,0,0,0-.11l0-.08,0-.07,0-.08a.25.25,0,0,1,0-.07l-.05-.07,0-.07a.18.18,0,0,1-.05-.07l-.06-.06-.06-.06-.06-.06-.07,0a.18.18,0,0,0-.07-.05l-.07,0-.07,0-.07,0-.08,0-.08,0-.08,0-.08,0-.08,0h-.17l-.08,0h-.12Zm0,0"/><path class="cls-6" d="M144.3,34.58h-.11l-.09,0h-.16l-.08,0h0l-.12,0-.07,0-.08,0-.08,0-.07.05-.07,0-.07,0-.06.06a.18.18,0,0,0-.07,0l-.06.06-.06.06a.18.18,0,0,1-.05.07l-.05.07,0,.07,0,.07a.3.3,0,0,0,0,.08l0,.07,0,.08,0,.08a.24.24,0,0,0,0,.08.31.31,0,0,0,0,.08s0,.06,0,.09,0,0,0,.08a.25.25,0,0,0,0,.08v.23a.28.28,0,0,0,0,.09s0,.05,0,.08,0,.06,0,.09,0,0,0,.07h0l0,0,0,.11,0,.08,0,.07a.3.3,0,0,0,0,.08.25.25,0,0,0,0,.07l0,.07a.43.43,0,0,0,0,.07l.06.07.05.06.06.06.07.06.06,0,.07,0,.07.05.07,0,.08,0,.07,0,.08,0,.08,0,.08,0,.08,0h.65l.09,0h.11l.11,0,.08,0,.07,0,.08,0,.07,0,.07,0,.07,0,.07-.06.06,0,.06-.06.06-.06,0-.07a315234181055.83,315234181055.83,0,0,0,.1-.14l.05-.07,0-.08a.25.25,0,0,0,0-.07l0-.08,0-.08,0-.08a.24.24,0,0,1,0-.08s0-.06,0-.09,0-.05,0-.08a.19.19,0,0,1,0-.08v-.23a.28.28,0,0,1,0-.09s0,0,0-.08,0-.06,0-.08,0-.06,0-.08h0v0a.76.76,0,0,0,0-.11l0-.08,0-.07,0-.08a.25.25,0,0,1,0-.07l-.05-.07,0-.07a.18.18,0,0,1-.05-.07l-.06-.06-.06-.06-.06-.06-.07,0a.18.18,0,0,0-.07-.05l-.07,0-.07,0-.07,0-.08,0-.08,0-.08,0-.08,0-.08,0h-.17l-.08,0h-.12Zm0,0"/><path class="cls-6" d="M144.3,34.58h-.11l-.09,0h-.16l-.08,0h0l-.12,0-.07,0-.08,0-.08,0-.07.05-.07,0-.07,0-.06.06a.18.18,0,0,0-.07,0l-.06.06-.06.06a.18.18,0,0,1-.05.07l-.05.07,0,.07,0,.07a.3.3,0,0,0,0,.08l0,.07,0,.08,0,.08a.24.24,0,0,0,0,.08.31.31,0,0,0,0,.08s0,.06,0,.09,0,0,0,.08a.25.25,0,0,0,0,.08v.23a.28.28,0,0,0,0,.09s0,.05,0,.08,0,.06,0,.09,0,0,0,.07h0l0,0,0,.11,0,.08,0,.07a.3.3,0,0,0,0,.08.25.25,0,0,0,0,.07l0,.07a.43.43,0,0,0,0,.07l.06.07.05.06.06.06.07.06.06,0,.07,0,.07.05.07,0,.08,0,.07,0,.08,0,.08,0,.08,0,.08,0h.65l.09,0h.11l.11,0,.08,0,.07,0,.08,0,.07,0,.07,0,.07,0,.07-.06.06,0,.06-.06.06-.06,0-.07a315234181055.83,315234181055.83,0,0,0,.1-.14l.05-.07,0-.08a.25.25,0,0,0,0-.07l0-.08,0-.08,0-.08a.24.24,0,0,1,0-.08s0-.06,0-.09,0-.05,0-.08a.19.19,0,0,1,0-.08v-.23a.28.28,0,0,1,0-.09s0,0,0-.08,0-.06,0-.08,0-.06,0-.08h0v0a.76.76,0,0,0,0-.11l0-.08,0-.07,0-.08a.25.25,0,0,1,0-.07l-.05-.07,0-.07a.18.18,0,0,1-.05-.07l-.06-.06-.06-.06-.06-.06-.07,0a.18.18,0,0,0-.07-.05l-.07,0-.07,0-.07,0-.08,0-.08,0-.08,0-.08,0-.08,0h-.17l-.08,0h-.12Zm0,0"/><path class="cls-6" d="M144.3,34.58h-.11l-.09,0h-.16l-.08,0h0l-.12,0-.07,0-.08,0-.08,0-.07.05-.07,0-.07,0-.06.06a.18.18,0,0,0-.07,0l-.06.06-.06.06a.18.18,0,0,1-.05.07l-.05.07,0,.07,0,.07a.3.3,0,0,0,0,.08l0,.07,0,.08,0,.08a.24.24,0,0,0,0,.08.31.31,0,0,0,0,.08s0,.06,0,.09,0,0,0,.08a.25.25,0,0,0,0,.08v.23a.28.28,0,0,0,0,.09s0,.05,0,.08,0,.06,0,.09,0,0,0,.07h0l0,0,0,.11,0,.08,0,.07a.3.3,0,0,0,0,.08.25.25,0,0,0,0,.07l0,.07a.43.43,0,0,0,0,.07l.06.07.05.06.06.06.07.06.06,0,.07,0,.07.05.07,0,.08,0,.07,0,.08,0,.08,0,.08,0,.08,0h.65l.09,0h.11l.11,0,.08,0,.07,0,.08,0,.07,0,.07,0,.07,0,.07-.06.06,0,.06-.06.06-.06,0-.07a315234181055.83,315234181055.83,0,0,0,.1-.14l.05-.07,0-.08a.25.25,0,0,0,0-.07l0-.08,0-.08,0-.08a.24.24,0,0,1,0-.08s0-.06,0-.09,0-.05,0-.08a.19.19,0,0,1,0-.08v-.23a.28.28,0,0,1,0-.09s0,0,0-.08,0-.06,0-.08,0-.06,0-.08h0v0a.76.76,0,0,0,0-.11l0-.08,0-.07,0-.08a.25.25,0,0,1,0-.07l-.05-.07,0-.07a.18.18,0,0,1-.05-.07l-.06-.06-.06-.06-.06-.06-.07,0a.18.18,0,0,0-.07-.05l-.07,0-.07,0-.07,0-.08,0-.08,0-.08,0-.08,0-.08,0h-.17l-.08,0h-.12Zm0,0"/><path class="cls-6" d="M144.3,34.58h-.11l-.09,0h-.16l-.08,0h0l-.12,0-.07,0-.08,0-.08,0-.07.05-.07,0-.07,0-.06.06a.18.18,0,0,0-.07,0l-.06.06-.06.06a.18.18,0,0,1-.05.07l-.05.07,0,.07,0,.07a.3.3,0,0,0,0,.08l0,.07,0,.08,0,.08a.24.24,0,0,0,0,.08.31.31,0,0,0,0,.08s0,.06,0,.09,0,0,0,.08a.25.25,0,0,0,0,.08v.23a.28.28,0,0,0,0,.09s0,.05,0,.08,0,.06,0,.09,0,0,0,.07h0l0,0,0,.11,0,.08,0,.07a.3.3,0,0,0,0,.08.25.25,0,0,0,0,.07l0,.07a.43.43,0,0,0,0,.07l.06.07.05.06.06.06.07.06.06,0,.07,0,.07.05.07,0,.08,0,.07,0,.08,0,.08,0,.08,0,.08,0h.65l.09,0h.11l.11,0,.08,0,.07,0,.08,0,.07,0,.07,0,.07,0,.07-.06.06,0,.06-.06.06-.06,0-.07a315234181055.83,315234181055.83,0,0,0,.1-.14l.05-.07,0-.08a.25.25,0,0,0,0-.07l0-.08,0-.08,0-.08a.24.24,0,0,1,0-.08s0-.06,0-.09,0-.05,0-.08a.19.19,0,0,1,0-.08v-.23a.28.28,0,0,1,0-.09s0,0,0-.08,0-.06,0-.08,0-.06,0-.08h0v0a.76.76,0,0,0,0-.11l0-.08,0-.07,0-.08a.25.25,0,0,1,0-.07l-.05-.07,0-.07a.18.18,0,0,1-.05-.07l-.06-.06-.06-.06-.06-.06-.07,0a.18.18,0,0,0-.07-.05l-.07,0-.07,0-.07,0-.08,0-.08,0-.08,0-.08,0-.08,0h-.17l-.08,0h-.12Zm0,0"/><path class="cls-6" d="M144.3,34.58h-.11l-.09,0h-.16l-.08,0h0l-.12,0-.07,0-.08,0-.08,0-.07.05-.07,0-.07,0-.06.06a.18.18,0,0,0-.07,0l-.06.06-.06.06a.18.18,0,0,1-.05.07l-.05.07,0,.07,0,.07a.3.3,0,0,0,0,.08l0,.07,0,.08,0,.08a.24.24,0,0,0,0,.08.31.31,0,0,0,0,.08s0,.06,0,.09,0,0,0,.08a.25.25,0,0,0,0,.08v.23a.28.28,0,0,0,0,.09s0,.05,0,.08,0,.06,0,.09,0,0,0,.07h0l0,0,0,.11,0,.08,0,.07a.3.3,0,0,0,0,.08.25.25,0,0,0,0,.07l0,.07a.43.43,0,0,0,0,.07l.06.07.05.06.06.06.07.06.06,0,.07,0,.07.05.07,0,.08,0,.07,0,.08,0,.08,0,.08,0,.08,0h.65l.09,0h.11l.11,0,.08,0,.07,0,.08,0,.07,0,.07,0,.07,0,.07-.06.06,0,.06-.06.06-.06,0-.07a315234181055.83,315234181055.83,0,0,0,.1-.14l.05-.07,0-.08a.25.25,0,0,0,0-.07l0-.08,0-.08,0-.08a.24.24,0,0,1,0-.08s0-.06,0-.09,0-.05,0-.08a.19.19,0,0,1,0-.08v-.23a.28.28,0,0,1,0-.09s0,0,0-.08,0-.06,0-.08,0-.06,0-.08h0v0a.76.76,0,0,0,0-.11l0-.08,0-.07,0-.08a.25.25,0,0,1,0-.07l-.05-.07,0-.07a.18.18,0,0,1-.05-.07l-.06-.06-.06-.06-.06-.06-.07,0a.18.18,0,0,0-.07-.05l-.07,0-.07,0-.07,0-.08,0-.08,0-.08,0-.08,0-.08,0h-.17l-.08,0h-.12Zm0,0"/><path class="cls-6" d="M144.3,34.58h-.11l-.09,0h-.16l-.08,0h0l-.12,0-.07,0-.08,0-.08,0-.07.05-.07,0-.07,0-.06.06a.18.18,0,0,0-.07,0l-.06.06-.06.06a.18.18,0,0,1-.05.07l-.05.07,0,.07,0,.07a.3.3,0,0,0,0,.08l0,.07,0,.08,0,.08a.24.24,0,0,0,0,.08.31.31,0,0,0,0,.08s0,.06,0,.09,0,0,0,.08a.25.25,0,0,0,0,.08v.23a.28.28,0,0,0,0,.09s0,.05,0,.08,0,.06,0,.09,0,0,0,.07h0l0,0,0,.11,0,.08,0,.07a.3.3,0,0,0,0,.08.25.25,0,0,0,0,.07l0,.07a.43.43,0,0,0,0,.07l.06.07.05.06.06.06.07.06.06,0,.07,0,.07.05.07,0,.08,0,.07,0,.08,0,.08,0,.08,0,.08,0h.65l.09,0h.11l.11,0,.08,0,.07,0,.08,0,.07,0,.07,0,.07,0,.07-.06.06,0,.06-.06.06-.06,0-.07a315234181055.83,315234181055.83,0,0,0,.1-.14l.05-.07,0-.08a.25.25,0,0,0,0-.07l0-.08,0-.08,0-.08a.24.24,0,0,1,0-.08s0-.06,0-.09,0-.05,0-.08a.19.19,0,0,1,0-.08v-.23a.28.28,0,0,1,0-.09s0,0,0-.08,0-.06,0-.08,0-.06,0-.08h0v0a.76.76,0,0,0,0-.11l0-.08,0-.07,0-.08a.25.25,0,0,1,0-.07l-.05-.07,0-.07a.18.18,0,0,1-.05-.07l-.06-.06-.06-.06-.06-.06-.07,0a.18.18,0,0,0-.07-.05l-.07,0-.07,0-.07,0-.08,0-.08,0-.08,0-.08,0-.08,0h-.17l-.08,0h-.12Zm0,0"/><path class="cls-6" d="M144.3,34.58h-.11l-.09,0h-.16l-.08,0h0l-.12,0-.07,0-.08,0-.08,0-.07.05-.07,0-.07,0-.06.06a.18.18,0,0,0-.07,0l-.06.06-.06.06a.18.18,0,0,1-.05.07l-.05.07,0,.07,0,.07a.3.3,0,0,0,0,.08l0,.07,0,.08,0,.08a.24.24,0,0,0,0,.08.31.31,0,0,0,0,.08s0,.06,0,.09,0,0,0,.08a.25.25,0,0,0,0,.08v.23a.28.28,0,0,0,0,.09s0,.05,0,.08,0,.06,0,.09,0,0,0,.07h0l0,0,0,.11,0,.08,0,.07a.3.3,0,0,0,0,.08.25.25,0,0,0,0,.07l0,.07a.43.43,0,0,0,0,.07l.06.07.05.06.06.06.07.06.06,0,.07,0,.07.05.07,0,.08,0,.07,0,.08,0,.08,0,.08,0,.08,0h.65l.09,0h.11l.11,0,.08,0,.07,0,.08,0,.07,0,.07,0,.07,0,.07-.06.06,0,.06-.06.06-.06,0-.07a315234181055.83,315234181055.83,0,0,0,.1-.14l.05-.07,0-.08a.25.25,0,0,0,0-.07l0-.08,0-.08,0-.08a.24.24,0,0,1,0-.08s0-.06,0-.09,0-.05,0-.08a.19.19,0,0,1,0-.08v-.23a.28.28,0,0,1,0-.09s0,0,0-.08,0-.06,0-.08,0-.06,0-.08h0v0a.76.76,0,0,0,0-.11l0-.08,0-.07,0-.08a.25.25,0,0,1,0-.07l-.05-.07,0-.07a.18.18,0,0,1-.05-.07l-.06-.06-.06-.06-.06-.06-.07,0a.18.18,0,0,0-.07-.05l-.07,0-.07,0-.07,0-.08,0-.08,0-.08,0-.08,0-.08,0h-.17l-.08,0h-.12Zm0,0"/><path class="cls-6" d="M144.3,34.58h-.11l-.09,0h-.16l-.08,0h0l-.12,0-.07,0-.08,0-.08,0-.07.05-.07,0-.07,0-.06.06a.18.18,0,0,0-.07,0l-.06.06-.06.06a.18.18,0,0,1-.05.07l-.05.07,0,.07,0,.07a.3.3,0,0,0,0,.08l0,.07,0,.08,0,.08a.24.24,0,0,0,0,.08.31.31,0,0,0,0,.08s0,.06,0,.09,0,0,0,.08a.25.25,0,0,0,0,.08v.23a.28.28,0,0,0,0,.09s0,.05,0,.08,0,.06,0,.09,0,0,0,.07h0l0,0,0,.11,0,.08,0,.07a.3.3,0,0,0,0,.08.25.25,0,0,0,0,.07l0,.07a.43.43,0,0,0,0,.07l.06.07.05.06.06.06.07.06.06,0,.07,0,.07.05.07,0,.08,0,.07,0,.08,0,.08,0,.08,0,.08,0h.65l.09,0h.11l.11,0,.08,0,.07,0,.08,0,.07,0,.07,0,.07,0,.07-.06.06,0,.06-.06.06-.06,0-.07a315234181055.83,315234181055.83,0,0,0,.1-.14l.05-.07,0-.08a.25.25,0,0,0,0-.07l0-.08,0-.08,0-.08a.24.24,0,0,1,0-.08s0-.06,0-.09,0-.05,0-.08a.19.19,0,0,1,0-.08v-.23a.28.28,0,0,1,0-.09s0,0,0-.08,0-.06,0-.08,0-.06,0-.08h0v0a.76.76,0,0,0,0-.11l0-.08,0-.07,0-.08a.25.25,0,0,1,0-.07l-.05-.07,0-.07a.18.18,0,0,1-.05-.07l-.06-.06-.06-.06-.06-.06-.07,0a.18.18,0,0,0-.07-.05l-.07,0-.07,0-.07,0-.08,0-.08,0-.08,0-.08,0-.08,0h-.17l-.08,0h-.12Zm0,0"/><path class="cls-6" d="M144.3,34.58h-.11l-.09,0h-.16l-.08,0h0l-.12,0-.07,0-.08,0-.08,0-.07.05-.07,0-.07,0-.06.06a.18.18,0,0,0-.07,0l-.06.06-.06.06a.18.18,0,0,1-.05.07l-.05.07,0,.07,0,.07a.3.3,0,0,0,0,.08l0,.07,0,.08,0,.08a.24.24,0,0,0,0,.08.31.31,0,0,0,0,.08s0,.06,0,.09,0,0,0,.08a.25.25,0,0,0,0,.08v.23a.28.28,0,0,0,0,.09s0,.05,0,.08,0,.06,0,.08,0,0,0,.08h0l0,0,0,.11,0,.08,0,.07a.3.3,0,0,0,0,.08.25.25,0,0,0,0,.07l0,.07a.43.43,0,0,0,0,.07l.06.07.05.06.06.06.07.06.06,0,.07,0,.07.05.07,0,.08,0,.07,0,.08,0,.08,0,.08,0,.08,0h.17l.08,0h.23l.09,0h.17l.07,0h0l.11,0,.08,0,.07,0,.08,0,.07,0,.07,0,.07,0,.07-.06.06,0,.06-.06.06-.06,0-.07a315234181055.83,315234181055.83,0,0,0,.1-.14l.05-.07,0-.07a.3.3,0,0,0,0-.08l0-.08,0-.08,0-.08a.24.24,0,0,1,0-.08s0-.06,0-.08,0-.06,0-.09a.22.22,0,0,1,0-.08v-.23a.28.28,0,0,1,0-.09s0,0,0-.08,0-.06,0-.08,0-.05,0-.08h0v0a.56.56,0,0,0,0-.12l0-.07,0-.08,0-.08a.25.25,0,0,1,0-.07l-.05-.07,0-.07-.05-.06-.06-.07-.06-.06-.06-.06-.07,0-.07-.05-.07,0-.07,0-.07,0-.08,0-.08,0-.08,0-.08,0-.08,0-.08,0h-.29Zm0,0"/><path class="cls-6" d="M144.3,34.58h-.11l-.09,0h-.16l-.08,0h0l-.12,0-.07,0-.08,0-.08,0-.07.05-.07,0-.07,0-.06.06a.18.18,0,0,0-.07,0l-.06.06-.06.06a.18.18,0,0,1-.05.07l-.05.07,0,.07,0,.07a.3.3,0,0,0,0,.08l0,.07,0,.08,0,.08a.24.24,0,0,0,0,.08.31.31,0,0,0,0,.08s0,.06,0,.09,0,0,0,.08a.25.25,0,0,0,0,.08v.23a.28.28,0,0,0,0,.09s0,.05,0,.08,0,.06,0,.09,0,0,0,.07h0l0,0,0,.11,0,.08,0,.07a.3.3,0,0,0,0,.08.25.25,0,0,0,0,.07l0,.07a.43.43,0,0,0,0,.07l.06.07.05.06.06.06.07.06.06,0,.07,0,.07.05.07,0,.08,0,.07,0,.08,0,.08,0,.08,0,.08,0h.65l.09,0h.11l.11,0,.08,0,.07,0,.08,0,.07,0,.07,0,.07,0,.07-.06.06,0,.06-.06.06-.06,0-.07a315234181055.83,315234181055.83,0,0,0,.1-.14l.05-.07,0-.08a.25.25,0,0,0,0-.07l0-.08,0-.08,0-.08a.24.24,0,0,1,0-.08s0-.06,0-.09,0-.05,0-.08a.19.19,0,0,1,0-.08v-.23a.28.28,0,0,1,0-.09s0,0,0-.08,0-.06,0-.08,0-.06,0-.08h0v0a.76.76,0,0,0,0-.11l0-.08,0-.07,0-.08a.25.25,0,0,1,0-.07l-.05-.07,0-.07a.18.18,0,0,1-.05-.07l-.06-.06-.06-.06-.06-.06-.07,0a.18.18,0,0,0-.07-.05l-.07,0-.07,0-.07,0-.08,0-.08,0-.08,0-.08,0-.08,0h-.17l-.08,0h-.12Zm0,0"/><path class="cls-6" d="M144.3,34.58h-.11l-.09,0h-.16l-.08,0h0l-.12,0-.07,0-.08,0-.08,0-.07.05-.07,0-.07,0-.06.06a.18.18,0,0,0-.07,0l-.06.06-.06.06a.18.18,0,0,1-.05.07l-.05.07,0,.07,0,.07a.3.3,0,0,0,0,.08l0,.07,0,.08,0,.08a.24.24,0,0,0,0,.08.31.31,0,0,0,0,.08s0,.06,0,.09,0,0,0,.08a.25.25,0,0,0,0,.08v.23a.28.28,0,0,0,0,.09s0,.05,0,.08,0,.06,0,.09,0,0,0,.07h0l0,0,0,.11,0,.08,0,.07a.3.3,0,0,0,0,.08.25.25,0,0,0,0,.07l0,.07a.43.43,0,0,0,0,.07l.06.07.05.06.06.06.07.06.06,0,.07,0,.07.05.07,0,.08,0,.07,0,.08,0,.08,0,.08,0,.08,0h.65l.09,0h.11l.11,0,.08,0,.07,0,.08,0,.07,0,.07,0,.07,0,.07-.06.06,0,.06-.06.06-.06,0-.07a315234181055.83,315234181055.83,0,0,0,.1-.14l.05-.07,0-.08a.25.25,0,0,0,0-.07l0-.08,0-.08,0-.08a.24.24,0,0,1,0-.08s0-.06,0-.09,0-.05,0-.08a.19.19,0,0,1,0-.08v-.23a.28.28,0,0,1,0-.09s0,0,0-.08,0-.06,0-.08,0-.06,0-.08h0v0a.76.76,0,0,0,0-.11l0-.08,0-.07,0-.08a.25.25,0,0,1,0-.07l-.05-.07,0-.07a.18.18,0,0,1-.05-.07l-.06-.06-.06-.06-.06-.06-.07,0a.18.18,0,0,0-.07-.05l-.07,0-.07,0-.07,0-.08,0-.08,0-.08,0-.08,0-.08,0h-.17l-.08,0h-.12Zm0,0"/><path class="cls-6" d="M144.3,34.58h-.11l-.09,0h-.16l-.08,0h0l-.12,0-.07,0-.08,0-.08,0-.07.05-.07,0-.07,0-.06.06a.18.18,0,0,0-.07,0l-.06.06-.06.06a.18.18,0,0,1-.05.07l-.05.07,0,.07,0,.07a.3.3,0,0,0,0,.08l0,.07,0,.08,0,.08a.24.24,0,0,0,0,.08.31.31,0,0,0,0,.08s0,.06,0,.09,0,0,0,.08a.25.25,0,0,0,0,.08v.23a.28.28,0,0,0,0,.09s0,.05,0,.08,0,.06,0,.09,0,0,0,.07h0l0,0,0,.11,0,.08,0,.07a.3.3,0,0,0,0,.08.25.25,0,0,0,0,.07l0,.07a.43.43,0,0,0,0,.07l.06.07.05.06.06.06.07.06.06,0,.07,0,.07.05.07,0,.08,0,.07,0,.08,0,.08,0,.08,0,.08,0h.65l.09,0h.11l.11,0,.08,0,.07,0,.08,0,.07,0,.07,0,.07,0,.07-.06.06,0,.06-.06.06-.06,0-.07a315234181055.83,315234181055.83,0,0,0,.1-.14l.05-.07,0-.08a.25.25,0,0,0,0-.07l0-.08,0-.08,0-.08a.24.24,0,0,1,0-.08s0-.06,0-.09,0-.05,0-.08a.19.19,0,0,1,0-.08v-.23a.28.28,0,0,1,0-.09s0,0,0-.08,0-.06,0-.08,0-.06,0-.08h0v0a.76.76,0,0,0,0-.11l0-.08,0-.07,0-.08a.25.25,0,0,1,0-.07l-.05-.07,0-.07a.18.18,0,0,1-.05-.07l-.06-.06-.06-.06-.06-.06-.07,0a.18.18,0,0,0-.07-.05l-.07,0-.07,0-.07,0-.08,0-.08,0-.08,0-.08,0-.08,0h-.17l-.08,0h-.12Zm0,0"/><path class="cls-6" d="M144.3,34.58h-.11l-.09,0h-.16l-.08,0h0l-.12,0-.07,0-.08,0-.08,0-.07.05-.07,0-.07,0-.06.06a.18.18,0,0,0-.07,0l-.06.06-.06.06a.18.18,0,0,1-.05.07l-.05.07,0,.07,0,.07a.3.3,0,0,0,0,.08l0,.07,0,.08,0,.08a.24.24,0,0,0,0,.08.31.31,0,0,0,0,.08s0,.06,0,.09,0,0,0,.08a.25.25,0,0,0,0,.08v.23a.28.28,0,0,0,0,.09s0,.05,0,.08,0,.06,0,.09,0,0,0,.07h0l0,0,0,.11,0,.08,0,.07a.3.3,0,0,0,0,.08.25.25,0,0,0,0,.07l0,.07a.43.43,0,0,0,0,.07l.06.07.05.06.06.06.07.06.06,0,.07,0,.07.05.07,0,.08,0,.07,0,.08,0,.08,0,.08,0,.08,0h.65l.09,0h.11l.11,0,.08,0,.07,0,.08,0,.07,0,.07,0,.07,0,.07-.06.06,0,.06-.06.06-.06,0-.07a315234181055.83,315234181055.83,0,0,0,.1-.14l.05-.07,0-.08a.25.25,0,0,0,0-.07l0-.08,0-.08,0-.08a.24.24,0,0,1,0-.08s0-.06,0-.09,0-.05,0-.08a.19.19,0,0,1,0-.08v-.23a.28.28,0,0,1,0-.09s0,0,0-.08,0-.06,0-.08,0-.06,0-.08h0v0a.76.76,0,0,0,0-.11l0-.08,0-.07,0-.08a.25.25,0,0,1,0-.07l-.05-.07,0-.07a.18.18,0,0,1-.05-.07l-.06-.06-.06-.06-.06-.06-.07,0a.18.18,0,0,0-.07-.05l-.07,0-.07,0-.07,0-.08,0-.08,0-.08,0-.08,0-.08,0h-.17l-.08,0h-.12Zm0,0"/><path class="cls-6" d="M144.3,34.58h-.11l-.09,0h-.16l-.08,0h0l-.12,0-.07,0-.08,0-.08,0-.07.05-.07,0-.07,0-.06.06a.18.18,0,0,0-.07,0l-.06.06-.06.06a.18.18,0,0,1-.05.07l-.05.07,0,.07,0,.07a.3.3,0,0,0,0,.08l0,.07,0,.08,0,.08a.24.24,0,0,0,0,.08.31.31,0,0,0,0,.08s0,.06,0,.09,0,0,0,.08a.25.25,0,0,0,0,.08v.23a.28.28,0,0,0,0,.09s0,.05,0,.08,0,.06,0,.09,0,0,0,.07h0l0,0,0,.11,0,.08,0,.07a.3.3,0,0,0,0,.08.25.25,0,0,0,0,.07l0,.07a.43.43,0,0,0,0,.07l.06.07.05.06.06.06.07.06.06,0,.07,0,.07.05.07,0,.08,0,.07,0,.08,0,.08,0,.08,0,.08,0h.65l.09,0h.11l.11,0,.08,0,.07,0,.08,0,.07,0,.07,0,.07,0,.07-.06.06,0,.06-.06.06-.06,0-.07a315234181055.83,315234181055.83,0,0,0,.1-.14l.05-.07,0-.08a.25.25,0,0,0,0-.07l0-.08,0-.08,0-.08a.24.24,0,0,1,0-.08s0-.06,0-.09,0-.05,0-.08a.19.19,0,0,1,0-.08v-.23a.28.28,0,0,1,0-.09s0,0,0-.08,0-.06,0-.08,0-.06,0-.08h0v0a.76.76,0,0,0,0-.11l0-.08,0-.07,0-.08a.25.25,0,0,1,0-.07l-.05-.07,0-.07a.18.18,0,0,1-.05-.07l-.06-.06-.06-.06-.06-.06-.07,0a.18.18,0,0,0-.07-.05l-.07,0-.07,0-.07,0-.08,0-.08,0-.08,0-.08,0-.08,0h-.17l-.08,0h-.12Zm0,0"/><path class="cls-6" d="M144.3,34.58h-.11l-.09,0h-.16l-.08,0h0l-.12,0-.07,0-.08,0-.08,0-.07.05-.07,0-.07,0-.06.06a.18.18,0,0,0-.07,0l-.06.06-.06.06a.18.18,0,0,1-.05.07l-.05.07,0,.07,0,.07a.3.3,0,0,0,0,.08l0,.07,0,.08,0,.08a.24.24,0,0,0,0,.08.31.31,0,0,0,0,.08s0,.06,0,.09,0,0,0,.08a.25.25,0,0,0,0,.08v.23a.28.28,0,0,0,0,.09s0,.05,0,.08,0,.06,0,.09,0,0,0,.07h0l0,0,0,.11,0,.08,0,.07a.3.3,0,0,0,0,.08.25.25,0,0,0,0,.07l0,.07a.43.43,0,0,0,0,.07l.06.07.05.06.06.06.07.06.06,0,.07,0,.07.05.07,0,.08,0,.07,0,.08,0,.08,0,.08,0,.08,0h.65l.09,0h.11l.11,0,.08,0,.07,0,.08,0,.07,0,.07,0,.07,0,.07-.06.06,0,.06-.06.06-.06,0-.07a315234181055.83,315234181055.83,0,0,0,.1-.14l.05-.07,0-.08a.25.25,0,0,0,0-.07l0-.08,0-.08,0-.08a.24.24,0,0,1,0-.08s0-.06,0-.09,0-.05,0-.08a.19.19,0,0,1,0-.08v-.23a.28.28,0,0,1,0-.09s0,0,0-.08,0-.06,0-.08,0-.06,0-.08h0v0a.76.76,0,0,0,0-.11l0-.08,0-.07,0-.08a.25.25,0,0,1,0-.07l-.05-.07,0-.07a.18.18,0,0,1-.05-.07l-.06-.06-.06-.06-.06-.06-.07,0a.18.18,0,0,0-.07-.05l-.07,0-.07,0-.07,0-.08,0-.08,0-.08,0-.08,0-.08,0h-.17l-.08,0h-.12Zm0,0"/><path class="cls-6" d="M144.3,34.58h-.11l-.09,0h-.16l-.08,0h0l-.12,0-.07,0-.08,0-.08,0-.07.05-.07,0-.07,0-.06.06a.18.18,0,0,0-.07,0l-.06.06-.06.06a.18.18,0,0,1-.05.07l-.05.07,0,.07,0,.07a.3.3,0,0,0,0,.08l0,.07,0,.08,0,.08a.24.24,0,0,0,0,.08.31.31,0,0,0,0,.08s0,.06,0,.09,0,0,0,.08a.25.25,0,0,0,0,.08v.23a.28.28,0,0,0,0,.09s0,.05,0,.08,0,.06,0,.09,0,0,0,.07h0l0,0,0,.11,0,.08,0,.07a.3.3,0,0,0,0,.08.25.25,0,0,0,0,.07l0,.07a.43.43,0,0,0,0,.07l.06.07.05.06.06.06.07.06.06,0,.07,0,.07.05.07,0,.08,0,.07,0,.08,0,.08,0,.08,0,.08,0h.65l.09,0h.11l.11,0,.08,0,.07,0,.08,0,.07,0,.07,0,.07,0,.07-.06.06,0,.06-.06.06-.06,0-.07a315234181055.83,315234181055.83,0,0,0,.1-.14l.05-.07,0-.08a.25.25,0,0,0,0-.07l0-.08,0-.08,0-.08a.24.24,0,0,1,0-.08s0-.06,0-.09,0-.05,0-.08a.19.19,0,0,1,0-.08v-.23a.28.28,0,0,1,0-.09s0,0,0-.08,0-.06,0-.08,0-.06,0-.08h0v0a.76.76,0,0,0,0-.11l0-.08,0-.07,0-.08a.25.25,0,0,1,0-.07l-.05-.07,0-.07a.18.18,0,0,1-.05-.07l-.06-.06-.06-.06-.06-.06-.07,0a.18.18,0,0,0-.07-.05l-.07,0-.07,0-.07,0-.08,0-.08,0-.08,0-.08,0-.08,0h-.17l-.08,0h-.12Zm0,0"/><path class="cls-6" d="M144.3,34.58h-.11l-.09,0h-.16l-.08,0h0l-.12,0-.07,0-.08,0-.08,0-.07.05-.07,0-.07,0-.06.06a.18.18,0,0,0-.07,0l-.06.06-.06.06a.18.18,0,0,1-.05.07l-.05.07,0,.07,0,.07a.3.3,0,0,0,0,.08l0,.07,0,.08,0,.08a.24.24,0,0,0,0,.08.31.31,0,0,0,0,.08s0,.06,0,.09,0,0,0,.08a.25.25,0,0,0,0,.08v.23a.28.28,0,0,0,0,.09s0,.05,0,.08,0,.06,0,.09,0,0,0,.07h0l0,0,0,.11,0,.08,0,.07a.3.3,0,0,0,0,.08.25.25,0,0,0,0,.07l0,.07a.43.43,0,0,0,0,.07l.06.07.05.06.06.06.07.06.06,0,.07,0,.07.05.07,0,.08,0,.07,0,.08,0,.08,0,.08,0,.08,0h.65l.09,0h.11l.11,0,.08,0,.07,0,.08,0,.07,0,.07,0,.07,0,.07-.06.06,0,.06-.06.06-.06,0-.07a315234181055.83,315234181055.83,0,0,0,.1-.14l.05-.07,0-.08a.25.25,0,0,0,0-.07l0-.08,0-.08,0-.08a.24.24,0,0,1,0-.08s0-.06,0-.09,0-.05,0-.08a.19.19,0,0,1,0-.08v-.23a.28.28,0,0,1,0-.09s0,0,0-.08,0-.06,0-.08,0-.06,0-.08h0v0a.76.76,0,0,0,0-.11l0-.08,0-.07,0-.08a.25.25,0,0,1,0-.07l-.05-.07,0-.07a.18.18,0,0,1-.05-.07l-.06-.06-.06-.06-.06-.06-.07,0a.18.18,0,0,0-.07-.05l-.07,0-.07,0-.07,0-.08,0-.08,0-.08,0-.08,0-.08,0h-.17l-.08,0h-.12Zm0,0"/><path class="cls-6" d="M144.3,34.58h-.11l-.09,0h-.16l-.08,0h0l-.12,0-.07,0-.08,0-.08,0-.07.05-.07,0-.07,0-.06.06a.18.18,0,0,0-.07,0l-.06.06-.06.06a.18.18,0,0,1-.05.07l-.05.07,0,.07,0,.07a.3.3,0,0,0,0,.08l0,.07,0,.08,0,.08a.24.24,0,0,0,0,.08.31.31,0,0,0,0,.08s0,.06,0,.09,0,0,0,.08a.25.25,0,0,0,0,.08v.23a.28.28,0,0,0,0,.09s0,.05,0,.08,0,.06,0,.09,0,0,0,.07h0l0,0,0,.11,0,.08,0,.07a.3.3,0,0,0,0,.08.25.25,0,0,0,0,.07l0,.07a.43.43,0,0,0,0,.07l.06.07.05.06.06.06.07.06.06,0,.07,0,.07.05.07,0,.08,0,.07,0,.08,0,.08,0,.08,0,.08,0h.65l.09,0h.11l.11,0,.08,0,.07,0,.08,0,.07,0,.07,0,.07,0,.07-.06.06,0,.06-.06.06-.06,0-.07a315234181055.83,315234181055.83,0,0,0,.1-.14l.05-.07,0-.08a.25.25,0,0,0,0-.07l0-.08,0-.08,0-.08a.24.24,0,0,1,0-.08s0-.06,0-.09,0-.05,0-.08a.19.19,0,0,1,0-.08v-.23a.28.28,0,0,1,0-.09s0,0,0-.08,0-.06,0-.08,0-.06,0-.08h0v0a.76.76,0,0,0,0-.11l0-.08,0-.07,0-.08a.25.25,0,0,1,0-.07l-.05-.07,0-.07a.18.18,0,0,1-.05-.07l-.06-.06-.06-.06-.06-.06-.07,0a.18.18,0,0,0-.07-.05l-.07,0-.07,0-.07,0-.08,0-.08,0-.08,0-.08,0-.08,0h-.17l-.08,0h-.12Zm0,0"/><path class="cls-6" d="M144.3,34.58h-.11l-.09,0h-.16l-.08,0h0l-.12,0-.07,0-.08,0-.08,0-.07.05-.07,0-.07,0-.06.06a.18.18,0,0,0-.07,0l-.06.06-.06.06a.18.18,0,0,1-.05.07l-.05.07,0,.07,0,.07a.3.3,0,0,0,0,.08l0,.07,0,.08,0,.08a.24.24,0,0,0,0,.08.31.31,0,0,0,0,.08s0,.06,0,.09,0,0,0,.08a.25.25,0,0,0,0,.08v.23a.28.28,0,0,0,0,.09s0,.05,0,.08,0,.06,0,.08,0,0,0,.08h0l0,0,0,.11,0,.08,0,.07a.3.3,0,0,0,0,.08.25.25,0,0,0,0,.07l0,.07a.43.43,0,0,0,0,.07l.06.07.05.06.06.06.07.06.06,0,.07,0,.07.05.07,0,.08,0,.07,0,.08,0,.08,0,.08,0,.08,0h.17l.08,0h.23l.09,0h.17l.07,0h0l.11,0,.08,0,.07,0,.08,0,.07,0,.07,0,.07,0,.07-.06.06,0,.06-.06.06-.06,0-.07a315234181055.83,315234181055.83,0,0,0,.1-.14l.05-.07,0-.07a.3.3,0,0,0,0-.08l0-.08,0-.08,0-.08a.24.24,0,0,1,0-.08s0-.06,0-.08,0-.06,0-.09a.22.22,0,0,1,0-.08v-.23a.28.28,0,0,1,0-.09s0,0,0-.08,0-.06,0-.08,0-.05,0-.08h0v0a.56.56,0,0,0,0-.12l0-.07,0-.08,0-.08a.25.25,0,0,1,0-.07l-.05-.07,0-.07-.05-.06-.06-.07-.06-.06-.06-.06-.07,0-.07-.05-.07,0-.07,0-.07,0-.08,0-.08,0-.08,0-.08,0-.08,0-.08,0h-.29Zm0,0"/><path class="cls-6" d="M144.3,34.58h-.11l-.09,0h-.16l-.08,0h0l-.12,0-.07,0-.08,0-.08,0-.07.05-.07,0-.07,0-.06.06a.18.18,0,0,0-.07,0l-.06.06-.06.06a.18.18,0,0,1-.05.07l-.05.07,0,.07,0,.07a.3.3,0,0,0,0,.08l0,.07,0,.08,0,.08a.24.24,0,0,0,0,.08.31.31,0,0,0,0,.08s0,.06,0,.09,0,0,0,.08a.25.25,0,0,0,0,.08v.23a.28.28,0,0,0,0,.09s0,.05,0,.08,0,.06,0,.09,0,0,0,.07h0l0,0,0,.11,0,.08,0,.07a.3.3,0,0,0,0,.08.25.25,0,0,0,0,.07l0,.07a.43.43,0,0,0,0,.07l.06.07.05.06.06.06.07.06.06,0,.07,0,.07.05.07,0,.08,0,.07,0,.08,0,.08,0,.08,0,.08,0h.65l.09,0h.11l.11,0,.08,0,.07,0,.08,0,.07,0,.07,0,.07,0,.07-.06.06,0,.06-.06.06-.06,0-.07a315234181055.83,315234181055.83,0,0,0,.1-.14l.05-.07,0-.08a.25.25,0,0,0,0-.07l0-.08,0-.08,0-.08a.24.24,0,0,1,0-.08s0-.06,0-.09,0-.05,0-.08a.19.19,0,0,1,0-.08v-.23a.28.28,0,0,1,0-.09s0,0,0-.08,0-.06,0-.08,0-.06,0-.08h0v0a.76.76,0,0,0,0-.11l0-.08,0-.07,0-.08a.25.25,0,0,1,0-.07l-.05-.07,0-.07a.18.18,0,0,1-.05-.07l-.06-.06-.06-.06-.06-.06-.07,0a.18.18,0,0,0-.07-.05l-.07,0-.07,0-.07,0-.08,0-.08,0-.08,0-.08,0-.08,0h-.17l-.08,0h-.12Zm0,0"/><path class="cls-6" d="M144.3,34.58h-.11l-.09,0h-.16l-.08,0h0l-.12,0-.07,0-.08,0-.08,0-.07.05-.07,0-.07,0-.06.06a.18.18,0,0,0-.07,0l-.06.06-.06.06a.18.18,0,0,1-.05.07l-.05.07,0,.07,0,.07a.3.3,0,0,0,0,.08l0,.07,0,.08,0,.08a.24.24,0,0,0,0,.08.31.31,0,0,0,0,.08s0,.06,0,.09,0,0,0,.08a.25.25,0,0,0,0,.08v.23a.28.28,0,0,0,0,.09s0,.05,0,.08,0,.06,0,.09,0,0,0,.07h0l0,0,0,.11,0,.08,0,.07a.3.3,0,0,0,0,.08.25.25,0,0,0,0,.07l0,.07a.43.43,0,0,0,0,.07l.06.07.05.06.06.06.07.06.06,0,.07,0,.07.05.07,0,.08,0,.07,0,.08,0,.08,0,.08,0,.08,0h.65l.09,0h.11l.11,0,.08,0,.07,0,.08,0,.07,0,.07,0,.07,0,.07-.06.06,0,.06-.06.06-.06,0-.07a315234181055.83,315234181055.83,0,0,0,.1-.14l.05-.07,0-.08a.25.25,0,0,0,0-.07l0-.08,0-.08,0-.08a.24.24,0,0,1,0-.08s0-.06,0-.09,0-.05,0-.08a.19.19,0,0,1,0-.08v-.23a.28.28,0,0,1,0-.09s0,0,0-.08,0-.06,0-.08,0-.06,0-.08h0v0a.76.76,0,0,0,0-.11l0-.08,0-.07,0-.08a.25.25,0,0,1,0-.07l-.05-.07,0-.07a.18.18,0,0,1-.05-.07l-.06-.06-.06-.06-.06-.06-.07,0a.18.18,0,0,0-.07-.05l-.07,0-.07,0-.07,0-.08,0-.08,0-.08,0-.08,0-.08,0h-.17l-.08,0h-.12Zm0,0"/><path class="cls-6" d="M144.3,34.58h-.11l-.09,0h-.16l-.08,0h0l-.12,0-.07,0-.08,0-.08,0-.07.05-.07,0-.07,0-.06.06a.18.18,0,0,0-.07,0l-.06.06-.06.06a.18.18,0,0,1-.05.07l-.05.07,0,.07,0,.07a.3.3,0,0,0,0,.08l0,.07,0,.08,0,.08a.24.24,0,0,0,0,.08.31.31,0,0,0,0,.08s0,.06,0,.09,0,0,0,.08a.25.25,0,0,0,0,.08v.23a.28.28,0,0,0,0,.09s0,.05,0,.08,0,.06,0,.09,0,0,0,.07h0l0,0,0,.11,0,.08,0,.07a.3.3,0,0,0,0,.08.25.25,0,0,0,0,.07l0,.07a.43.43,0,0,0,0,.07l.06.07.05.06.06.06.07.06.06,0,.07,0,.07.05.07,0,.08,0,.07,0,.08,0,.08,0,.08,0,.08,0h.65l.09,0h.11l.11,0,.08,0,.07,0,.08,0,.07,0,.07,0,.07,0,.07-.06.06,0,.06-.06.06-.06,0-.07a315234181055.83,315234181055.83,0,0,0,.1-.14l.05-.07,0-.08a.25.25,0,0,0,0-.07l0-.08,0-.08,0-.08a.24.24,0,0,1,0-.08s0-.06,0-.09,0-.05,0-.08a.19.19,0,0,1,0-.08v-.23a.28.28,0,0,1,0-.09s0,0,0-.08,0-.06,0-.08,0-.06,0-.08h0v0a.76.76,0,0,0,0-.11l0-.08,0-.07,0-.08a.25.25,0,0,1,0-.07l-.05-.07,0-.07a.18.18,0,0,1-.05-.07l-.06-.06-.06-.06-.06-.06-.07,0a.18.18,0,0,0-.07-.05l-.07,0-.07,0-.07,0-.08,0-.08,0-.08,0-.08,0-.08,0h-.17l-.08,0h-.12Zm0,0"/><path class="cls-6" d="M144.3,34.58h-.11l-.09,0h-.16l-.08,0h0l-.12,0-.07,0-.08,0-.08,0-.07.05-.07,0-.07,0-.06.06a.18.18,0,0,0-.07,0l-.06.06-.06.06a.18.18,0,0,1-.05.07l-.05.07,0,.07,0,.07a.3.3,0,0,0,0,.08l0,.07,0,.08,0,.08a.24.24,0,0,0,0,.08.31.31,0,0,0,0,.08s0,.06,0,.09,0,0,0,.08a.25.25,0,0,0,0,.08v.23a.28.28,0,0,0,0,.09s0,.05,0,.08,0,.06,0,.09,0,0,0,.07h0l0,0,0,.11,0,.08,0,.07a.3.3,0,0,0,0,.08.25.25,0,0,0,0,.07l0,.07a.43.43,0,0,0,0,.07l.06.07.05.06.06.06.07.06.06,0,.07,0,.07.05.07,0,.08,0,.07,0,.08,0,.08,0,.08,0,.08,0h.65l.09,0h.11l.11,0,.08,0,.07,0,.08,0,.07,0,.07,0,.07,0,.07-.06.06,0,.06-.06.06-.06,0-.07a315234181055.83,315234181055.83,0,0,0,.1-.14l.05-.07,0-.08a.25.25,0,0,0,0-.07l0-.08,0-.08,0-.08a.24.24,0,0,1,0-.08s0-.06,0-.09,0-.05,0-.08a.19.19,0,0,1,0-.08v-.23a.28.28,0,0,1,0-.09s0,0,0-.08,0-.06,0-.08,0-.06,0-.08h0v0a.76.76,0,0,0,0-.11l0-.08,0-.07,0-.08a.25.25,0,0,1,0-.07l-.05-.07,0-.07a.18.18,0,0,1-.05-.07l-.06-.06-.06-.06-.06-.06-.07,0a.18.18,0,0,0-.07-.05l-.07,0-.07,0-.07,0-.08,0-.08,0-.08,0-.08,0-.08,0h-.17l-.08,0h-.12Zm0,0"/><path class="cls-6" d="M144.3,34.58h-.11l-.09,0h-.16l-.08,0h0l-.12,0-.07,0-.08,0-.08,0-.07.05-.07,0-.07,0-.06.06a.18.18,0,0,0-.07,0l-.06.06-.06.06a.18.18,0,0,1-.05.07l-.05.07,0,.07,0,.07a.3.3,0,0,0,0,.08l0,.07,0,.08,0,.08a.24.24,0,0,0,0,.08.31.31,0,0,0,0,.08s0,.06,0,.09,0,0,0,.08a.25.25,0,0,0,0,.08v.23a.28.28,0,0,0,0,.09s0,.05,0,.08,0,.06,0,.09,0,0,0,.07h0l0,0,0,.11,0,.08,0,.07a.3.3,0,0,0,0,.08.25.25,0,0,0,0,.07l0,.07a.43.43,0,0,0,0,.07l.06.07.05.06.06.06.07.06.06,0,.07,0,.07.05.07,0,.08,0,.07,0,.08,0,.08,0,.08,0,.08,0h.65l.09,0h.11l.11,0,.08,0,.07,0,.08,0,.07,0,.07,0,.07,0,.07-.06.06,0,.06-.06.06-.06,0-.07a315234181055.83,315234181055.83,0,0,0,.1-.14l.05-.07,0-.08a.25.25,0,0,0,0-.07l0-.08,0-.08,0-.08a.24.24,0,0,1,0-.08s0-.06,0-.09,0-.05,0-.08a.19.19,0,0,1,0-.08v-.23a.28.28,0,0,1,0-.09s0,0,0-.08,0-.06,0-.08,0-.06,0-.08h0v0a.76.76,0,0,0,0-.11l0-.08,0-.07,0-.08a.25.25,0,0,1,0-.07l-.05-.07,0-.07a.18.18,0,0,1-.05-.07l-.06-.06-.06-.06-.06-.06-.07,0a.18.18,0,0,0-.07-.05l-.07,0-.07,0-.07,0-.08,0-.08,0-.08,0-.08,0-.08,0h-.17l-.08,0h-.12Zm0,0"/><path class="cls-6" d="M144.3,34.58h-.11l-.09,0h-.16l-.08,0h0l-.12,0-.07,0-.08,0-.08,0-.07.05-.07,0-.07,0-.06.06a.18.18,0,0,0-.07,0l-.06.06-.06.06a.18.18,0,0,1-.05.07l-.05.07,0,.07,0,.07a.3.3,0,0,0,0,.08l0,.07,0,.08,0,.08a.24.24,0,0,0,0,.08.31.31,0,0,0,0,.08s0,.06,0,.09,0,0,0,.08a.25.25,0,0,0,0,.08v.23a.28.28,0,0,0,0,.09s0,.05,0,.08,0,.06,0,.09,0,0,0,.07h0l0,0,0,.11,0,.08,0,.07a.3.3,0,0,0,0,.08.25.25,0,0,0,0,.07l0,.07a.43.43,0,0,0,0,.07l.06.07.05.06.06.06.07.06.06,0,.07,0,.07.05.07,0,.08,0,.07,0,.08,0,.08,0,.08,0,.08,0h.65l.09,0h.11l.11,0,.08,0,.07,0,.08,0,.07,0,.07,0,.07,0,.07-.06.06,0,.06-.06.06-.06,0-.07a315234181055.83,315234181055.83,0,0,0,.1-.14l.05-.07,0-.08a.25.25,0,0,0,0-.07l0-.08,0-.08,0-.08a.24.24,0,0,1,0-.08s0-.06,0-.09,0-.05,0-.08a.19.19,0,0,1,0-.08v-.23a.28.28,0,0,1,0-.09s0,0,0-.08,0-.06,0-.08,0-.06,0-.08h0v0a.76.76,0,0,0,0-.11l0-.08,0-.07,0-.08a.25.25,0,0,1,0-.07l-.05-.07,0-.07a.18.18,0,0,1-.05-.07l-.06-.06-.06-.06-.06-.06-.07,0a.18.18,0,0,0-.07-.05l-.07,0-.07,0-.07,0-.08,0-.08,0-.08,0-.08,0-.08,0h-.17l-.08,0h-.12Zm0,0"/><path class="cls-6" d="M144.3,34.58h-.11l-.09,0h-.16l-.08,0h0l-.12,0-.07,0-.08,0-.08,0-.07.05-.07,0-.07,0-.06.06a.18.18,0,0,0-.07,0l-.06.06-.06.06a.18.18,0,0,1-.05.07l-.05.07,0,.07,0,.07a.3.3,0,0,0,0,.08l0,.07,0,.08,0,.08a.24.24,0,0,0,0,.08.31.31,0,0,0,0,.08s0,.06,0,.09,0,0,0,.08a.25.25,0,0,0,0,.08v.23a.28.28,0,0,0,0,.09s0,.05,0,.08,0,.06,0,.09,0,0,0,.07h0l0,0,0,.11,0,.08,0,.07a.3.3,0,0,0,0,.08.25.25,0,0,0,0,.07l0,.07a.43.43,0,0,0,0,.07l.06.07.05.06.06.06.07.06.06,0,.07,0,.07.05.07,0,.08,0,.07,0,.08,0,.08,0,.08,0,.08,0h.65l.09,0h.11l.11,0,.08,0,.07,0,.08,0,.07,0,.07,0,.07,0,.07-.06.06,0,.06-.06.06-.06,0-.07a315234181055.83,315234181055.83,0,0,0,.1-.14l.05-.07,0-.08a.25.25,0,0,0,0-.07l0-.08,0-.08,0-.08a.24.24,0,0,1,0-.08s0-.06,0-.09,0-.05,0-.08a.19.19,0,0,1,0-.08v-.23a.28.28,0,0,1,0-.09s0,0,0-.08,0-.06,0-.08,0-.06,0-.08h0v0a.76.76,0,0,0,0-.11l0-.08,0-.07,0-.08a.25.25,0,0,1,0-.07l-.05-.07,0-.07a.18.18,0,0,1-.05-.07l-.06-.06-.06-.06-.06-.06-.07,0a.18.18,0,0,0-.07-.05l-.07,0-.07,0-.07,0-.08,0-.08,0-.08,0-.08,0-.08,0h-.17l-.08,0h-.12Zm0,0"/><path class="cls-6" d="M144.3,34.58h-.11l-.09,0h-.16l-.08,0h0l-.12,0-.07,0-.08,0-.08,0-.07.05-.07,0-.07,0-.06.06a.18.18,0,0,0-.07,0l-.06.06-.06.06a.18.18,0,0,1-.05.07l-.05.07,0,.07,0,.07a.3.3,0,0,0,0,.08l0,.07,0,.08,0,.08a.24.24,0,0,0,0,.08.31.31,0,0,0,0,.08s0,.06,0,.09,0,0,0,.08a.25.25,0,0,0,0,.08v.23a.28.28,0,0,0,0,.09s0,.05,0,.08,0,.06,0,.09,0,0,0,.07h0l0,0,0,.11,0,.08,0,.07a.3.3,0,0,0,0,.08.25.25,0,0,0,0,.07l0,.07a.43.43,0,0,0,0,.07l.06.07.05.06.06.06.07.06.06,0,.07,0,.07.05.07,0,.08,0,.07,0,.08,0,.08,0,.08,0,.08,0h.65l.09,0h.11l.11,0,.08,0,.07,0,.08,0,.07,0,.07,0,.07,0,.07-.06.06,0,.06-.06.06-.06,0-.07a315234181055.83,315234181055.83,0,0,0,.1-.14l.05-.07,0-.08a.25.25,0,0,0,0-.07l0-.08,0-.08,0-.08a.24.24,0,0,1,0-.08s0-.06,0-.09,0-.05,0-.08a.19.19,0,0,1,0-.08v-.23a.28.28,0,0,1,0-.09s0,0,0-.08,0-.06,0-.08,0-.06,0-.08h0v0a.76.76,0,0,0,0-.11l0-.08,0-.07,0-.08a.25.25,0,0,1,0-.07l-.05-.07,0-.07a.18.18,0,0,1-.05-.07l-.06-.06-.06-.06-.06-.06-.07,0a.18.18,0,0,0-.07-.05l-.07,0-.07,0-.07,0-.08,0-.08,0-.08,0-.08,0-.08,0h-.17l-.08,0h-.12Zm0,0"/><path class="cls-6" d="M144.3,34.58h-.11l-.09,0h-.16l-.08,0h0l-.12,0-.07,0-.08,0-.08,0-.07.05-.07,0-.07,0-.06.06a.18.18,0,0,0-.07,0l-.06.06-.06.06a.18.18,0,0,1-.05.07l-.05.07,0,.07,0,.07a.3.3,0,0,0,0,.08l0,.07,0,.08,0,.08a.24.24,0,0,0,0,.08.31.31,0,0,0,0,.08s0,.06,0,.09,0,0,0,.08a.25.25,0,0,0,0,.08v.23a.28.28,0,0,0,0,.09s0,.05,0,.08,0,.06,0,.09,0,0,0,.07h0l0,0,0,.11,0,.08,0,.07a.3.3,0,0,0,0,.08.25.25,0,0,0,0,.07l0,.07a.43.43,0,0,0,0,.07l.06.07.05.06.06.06.07.06.06,0,.07,0,.07.05.07,0,.08,0,.07,0,.08,0,.08,0,.08,0,.08,0h.65l.09,0h.11l.11,0,.08,0,.07,0,.08,0,.07,0,.07,0,.07,0,.07-.06.06,0,.06-.06.06-.06,0-.07a315234181055.83,315234181055.83,0,0,0,.1-.14l.05-.07,0-.08a.25.25,0,0,0,0-.07l0-.08,0-.08,0-.08a.24.24,0,0,1,0-.08s0-.06,0-.09,0-.05,0-.08a.19.19,0,0,1,0-.08v-.23a.28.28,0,0,1,0-.09s0,0,0-.08,0-.06,0-.08,0-.06,0-.08h0v0a.76.76,0,0,0,0-.11l0-.08,0-.07,0-.08a.25.25,0,0,1,0-.07l-.05-.07,0-.07a.18.18,0,0,1-.05-.07l-.06-.06-.06-.06-.06-.06-.07,0a.18.18,0,0,0-.07-.05l-.07,0-.07,0-.07,0-.08,0-.08,0-.08,0-.08,0-.08,0h-.17l-.08,0h-.12Zm0,0"/><path class="cls-5" d="M122.07,78.31A11.62,11.62,0,0,1,133.71,90v5.84a11.64,11.64,0,0,1-23.28,0V90a11.62,11.62,0,0,1,11.64-11.64Zm0,0"/><path class="cls-8" d="M128.85,86.66a3.76,3.76,0,1,1-3.76-3.76,3.76,3.76,0,0,1,3.76,3.76Zm0,0"/><path class="cls-5" d="M61.88,98.39a12.16,12.16,0,0,1,24.32,0H81.68a7.64,7.64,0,1,0-15.28,0Zm0,0"/><path class="cls-9" d="M102,104.9a7,7,0,0,0-7,7v6.19a13.22,13.22,0,0,0,2.81.31,13,13,0,0,0,11.25-6.5,7,7,0,0,0-7-7Zm0,0"/><path class="cls-5" d="M102,103.77a8.17,8.17,0,0,0-8.16,8.16v6.19h2.26v-6.19a5.89,5.89,0,0,1,11.77-.31,11.78,11.78,0,0,1-2.45,2.89l1.46,1.73a14.06,14.06,0,0,0,3.13-3.75l.15-.26v-.3a8.17,8.17,0,0,0-8.16-8.16Zm0,0"/><rect class="cls-5" x="101.46" y="111.64" width="1.13" height="6.09"/><path class="cls-10" d="M98.18,109.78a1.51,1.51,0,1,1,1.5,1.5,1.5,1.5,0,0,1-1.5-1.5Zm0,0"/><path class="cls-5" d="M87.52,111.36l-2,1.13a14.12,14.12,0,0,0,24.47,0l-2-1.13a11.86,11.86,0,0,1-20.55,0Zm0,0"/><path class="cls-8" d="M150.74,0l29,0h16l0,16c0,7,0,14,0,21A29.09,29.09,0,0,1,150.74,0Z"/><text class="cls-11" transform="translate(159.8 31.75)"><tspan class="cls-12">5</tspan><tspan x="10.33" y="0">2</tspan></text></svg>