<?xml version="1.0" encoding="utf-8"?>
<!-- Generator: Adobe Illustrator 26.0.1, SVG Export Plug-In . SVG Version: 6.00 Build 0)  -->
<svg version="1.1" id="Слой_1" xmlns="http://www.w3.org/2000/svg" xmlns:xlink="http://www.w3.org/1999/xlink" x="0px" y="0px"
	 viewBox="0 0 195.6 280.6" style="enable-background:new 0 0 195.6 280.6;" xml:space="preserve">
<style type="text/css">
	
		.st0{clip-path:url(#SVGID_00000101084227089796953500000006028415971078028983_);fill:#FFFFFF;stroke:#1D1D1B;stroke-miterlimit:10;}
	.st1{enable-background:new    ;}
	.st2{fill:#1A1A1A;}
	.st3{clip-path:url(#SVGID_00000157295961834842258690000001814397529602696073_);fill:#1A1A1A;}
	.st4{clip-path:url(#SVGID_00000132053381088840623310000003121439936112782503_);fill:#1A1A1A;}
	.st5{clip-path:url(#SVGID_00000109018953519297928490000001523028784071574969_);fill:#1A1A1A;}
	.st6{clip-path:url(#SVGID_00000157279686516608165230000001270216723675847325_);fill:#1A1A1A;}
	.st7{clip-path:url(#SVGID_00000170989847287809195240000004093982720159246995_);fill:#1A1A1A;}
	.st8{clip-path:url(#SVGID_00000026129294075336003800000005999697550812053385_);fill:#1A1A1A;}
	.st9{clip-path:url(#SVGID_00000138545916422491729840000018016415492182514107_);fill:#DBE492;}
	.st10{clip-path:url(#SVGID_00000170984514297333569500000014629738207876803742_);fill:#FFFFFF;}
	.st11{clip-path:url(#SVGID_00000127729545583940657460000006331973919666216893_);fill:#EB5A53;}
	.st12{clip-path:url(#SVGID_00000030485683059888731640000002582095969823585187_);fill:#FFFFFF;}
	.st13{clip-path:url(#SVGID_00000022560461002926679200000001914571625723120816_);fill:#1A1A1A;}
	.st14{clip-path:url(#SVGID_00000130640644118808740300000009081622871049518495_);fill:#1A1A1A;}
	.st15{clip-path:url(#SVGID_00000132772384330915329170000017358894495544953002_);fill:#1A1A1A;}
	.st16{clip-path:url(#SVGID_00000114074083475271277040000013794844984723612564_);fill:#1A1A1A;}
	.st17{clip-path:url(#SVGID_00000145763915867912310930000009988628505738873518_);fill:#1A1A1A;}
	.st18{clip-path:url(#SVGID_00000037667396706111920220000011324607107568487598_);fill:#1A1A1A;}
	.st19{clip-path:url(#SVGID_00000061473236536115619970000002765606251526772626_);fill:#1A1A1A;}
	.st20{clip-path:url(#SVGID_00000005959601712315467630000006685025003975955624_);fill:#1A1A1A;}
	.st21{clip-path:url(#SVGID_00000152235337033647088860000000696137378162044848_);fill:#FFFFFF;}
	.st22{clip-path:url(#SVGID_00000148638775090385504630000011494426392282034846_);fill:#1A1A1A;}
	.st23{clip-path:url(#SVGID_00000036973643761014708770000005307504223228485300_);fill:#FFFFFF;}
	.st24{clip-path:url(#SVGID_00000173145612323735662260000012241310492349573799_);fill:#1A1A1A;}
	.st25{clip-path:url(#SVGID_00000095313081565214345570000002758767942366203836_);fill:#1A1A1A;}
	.st26{clip-path:url(#SVGID_00000087377447066365231890000010204323274064908205_);fill:#1A1A1A;}
	.st27{clip-path:url(#SVGID_00000087402255250942135390000002229378673755088052_);fill:#EB5A53;}
	.st28{fill:#FFFFFF;}
</style>
<g>
	<g>
		<g>
			<defs>
				<rect id="SVGID_1_" width="195.6" height="280.6"/>
			</defs>
			<clipPath id="SVGID_00000067206569068776542720000000458197378299887240_">
				<use xlink:href="#SVGID_1_"  style="overflow:visible;"/>
			</clipPath>
			
				<rect x="-11.1" y="-12.9" style="clip-path:url(#SVGID_00000067206569068776542720000000458197378299887240_);fill:#FFFFFF;stroke:#1D1D1B;stroke-miterlimit:10;" width="491.4" height="310"/>
		</g>
	</g>
	<g class="st1">
		<path class="st2" d="M42.9,202l-3,24.6h-8.1c-0.4-3-1-7-1.6-11.9c-0.2,2.2-0.5,4.3-0.8,6.5l-0.8,5.3h-8.2L17.2,202h6.5
			c0,0.6,0.6,5.3,1.6,14.1c0.1-0.9,0.6-5.6,1.7-14.1h6.2l1.5,14.1c0.2-4.1,0.8-8.8,1.7-14.1H42.9z"/>
		<path class="st2" d="M51.8,196.6v3.9h-7.7v-3.9H51.8z M51.8,202v24.6h-7.7V202H51.8z"/>
		<path class="st2" d="M71.5,214.7h-9.7v5.3c0,1.1,0.1,1.8,0.2,2.2c0.2,0.3,0.5,0.5,0.9,0.5c0.6,0,0.9-0.2,1.1-0.6
			c0.2-0.4,0.3-1.3,0.3-2.5v-3.2h7.1v1.8c0,1.5-0.1,2.7-0.3,3.5c-0.2,0.8-0.6,1.7-1.3,2.6s-1.6,1.6-2.7,2.1s-2.4,0.7-4.1,0.7
			c-1.6,0-3-0.2-4.2-0.7s-2.2-1.1-2.8-1.9c-0.7-0.8-1.1-1.7-1.4-2.6c-0.3-1-0.4-2.4-0.4-4.2v-7.2c0-2.2,0.3-3.9,0.9-5.1
			c0.6-1.2,1.5-2.2,2.9-2.9c1.3-0.7,2.8-1,4.6-1c2.1,0,3.8,0.4,5.2,1.2c1.4,0.8,2.3,1.9,2.9,3.2s0.8,3.2,0.8,5.6V214.7z M64,210.7
			v-1.8c0-1.3-0.1-2.1-0.2-2.5c-0.1-0.4-0.4-0.6-0.8-0.6c-0.5,0-0.8,0.2-1,0.5c-0.1,0.3-0.2,1.2-0.2,2.6v1.8H64z"/>
		<path class="st2" d="M81.6,196.6v30h-7.7v-30H81.6z"/>
		<path class="st2" d="M100.5,202l-3,9.8l4,14.8h-7.2L92,215.9v10.7h-7.5v-30H92v12.6l2.3-7.2L100.5,202L100.5,202z"/>
		<path class="st2" d="M109.2,211.5h-7v-1.7c0-1.9,0.2-3.4,0.7-4.4c0.4-1,1.3-1.9,2.6-2.7c1.3-0.8,3-1.2,5.2-1.2
			c2.5,0,4.4,0.4,5.7,1.3c1.3,0.9,2.1,2,2.3,3.3c0.3,1.3,0.4,4,0.4,8.1v12.4h-7.3v-2.2c-0.5,0.9-1,1.5-1.8,2
			c-0.7,0.4-1.6,0.7-2.6,0.7c-1.3,0-2.5-0.4-3.6-1.1c-1.1-0.7-1.6-2.3-1.6-4.8v-2c0-1.8,0.3-3.1,0.9-3.8s2-1.4,4.3-2.3
			c2.5-1,3.8-1.6,4-1.9s0.3-1,0.3-2c0-1.3-0.1-2.1-0.3-2.5c-0.2-0.4-0.5-0.6-1-0.6s-0.8,0.2-0.9,0.5s-0.2,1.2-0.2,2.6L109.2,211.5
			L109.2,211.5z M111.6,214.9c-1.2,0.9-1.9,1.6-2.1,2.2c-0.2,0.6-0.3,1.4-0.3,2.6c0,1.3,0.1,2.1,0.3,2.5s0.5,0.6,1,0.6
			s0.8-0.1,0.9-0.4c0.1-0.3,0.2-1.1,0.2-2.3V214.9z"/>
		<path class="st2" d="M129.3,202l-0.1,2.3c0.5-0.9,1.2-1.6,2-2c0.8-0.5,1.7-0.7,2.7-0.7c1.3,0,2.3,0.3,3.2,0.9
			c0.8,0.6,1.3,1.4,1.6,2.3c0.2,0.9,0.4,2.5,0.4,4.6v17.3h-7.5v-17.1c0-1.7-0.1-2.7-0.2-3.1s-0.4-0.6-0.9-0.6s-0.9,0.2-1,0.6
			c-0.1,0.4-0.2,1.6-0.2,3.4v16.6h-7.5V202H129.3z"/>
		<path class="st2" d="M158.5,210.6v6c0,2.2-0.1,3.8-0.3,4.9c-0.2,1-0.7,2-1.4,2.9s-1.7,1.6-2.8,2s-2.5,0.6-3.9,0.6
			c-1.7,0-3.1-0.2-4.2-0.5c-1.2-0.4-2-0.9-2.7-1.7c-0.6-0.7-1.1-1.6-1.4-2.7c-0.3-1-0.4-2.6-0.4-4.7v-6.3c0-2.3,0.2-4.1,0.7-5.4
			c0.5-1.3,1.4-2.3,2.7-3.1s2.9-1.2,4.9-1.2c1.7,0,3.1,0.3,4.3,0.8s2.1,1.2,2.8,2s1.1,1.6,1.3,2.5S158.5,208.9,158.5,210.6z
			 M151,208.8c0-1.3-0.1-2.1-0.2-2.4c-0.1-0.3-0.4-0.5-0.9-0.5s-0.7,0.2-0.9,0.5c-0.1,0.3-0.2,1.1-0.2,2.4v11.1
			c0,1.2,0.1,1.9,0.2,2.3c0.1,0.4,0.4,0.5,0.9,0.5c0.4,0,0.7-0.2,0.9-0.5c0.1-0.3,0.2-1,0.2-2.1V208.8z"/>
		<path class="st2" d="M177.5,211.3h-7.1v-2.8c0-1-0.1-1.7-0.2-2c-0.2-0.4-0.5-0.5-0.9-0.5s-0.7,0.2-0.9,0.5c-0.1,0.3-0.2,1-0.2,2.1
			v11.6c0,0.9,0.1,1.5,0.3,2c0.2,0.4,0.6,0.7,1,0.7c0.5,0,0.9-0.2,1-0.7c0.2-0.5,0.3-1.3,0.3-2.6v-2.9h6.7c0,2-0.1,3.4-0.2,4.4
			c-0.1,1-0.5,2-1.2,3s-1.6,1.8-2.7,2.3c-1.1,0.5-2.5,0.8-4.2,0.8c-2.1,0-3.8-0.4-5-1.1c-1.2-0.7-2.1-1.7-2.6-3s-0.8-3.2-0.8-5.6v-7
			c0-2.1,0.2-3.7,0.6-4.7c0.4-1.1,1.3-2,2.7-2.8s3-1.3,5-1.3s3.6,0.4,5,1.2s2.3,1.9,2.8,3.1S177.5,209,177.5,211.3z"/>
	</g>
	<g class="st1">
		<path class="st2" d="M39.8,238l-3,24.6h-8.1c-0.4-3-1-7-1.6-11.9c-0.2,2.2-0.5,4.3-0.8,6.5l-0.8,5.3h-8.2L14.1,238h6.5
			c0,0.6,0.6,5.3,1.6,14.1c0.1-0.9,0.6-5.6,1.7-14.1h6.2l1.5,14.1c0.2-4.1,0.8-8.8,1.7-14.1H39.8z"/>
		<path class="st2" d="M63.8,238l-3,9.8l4,14.8h-7.2l-2.3-10.7v10.7h-7.5v-30h7.5v12.6l2.3-7.2L63.8,238L63.8,238z"/>
		<path class="st2" d="M90.1,238l-3,24.6H79c-0.4-3-1-7-1.6-11.9c-0.2,2.2-0.5,4.3-0.8,6.5l-0.8,5.3h-8.2L64.4,238h6.5
			c0,0.6,0.6,5.3,1.6,14.1c0.1-0.9,0.6-5.6,1.7-14.1h6.2l1.5,14.1c0.2-4.1,0.8-8.8,1.7-14.1H90.1z"/>
		<path class="st2" d="M99,232.6v3.9h-7.7v-3.9H99z M99,238v24.6h-7.7V238H99z"/>
		<path class="st2" d="M118.7,250.7H109v5.3c0,1.1,0.1,1.8,0.2,2.2c0.2,0.3,0.5,0.5,0.9,0.5c0.6,0,0.9-0.2,1.1-0.6s0.3-1.3,0.3-2.5
			v-3.2h7.1v1.8c0,1.5-0.1,2.7-0.3,3.5c-0.2,0.8-0.6,1.7-1.3,2.6s-1.6,1.6-2.7,2.1s-2.4,0.7-4.1,0.7c-1.6,0-3-0.2-4.2-0.7
			s-2.2-1.1-2.8-1.9c-0.7-0.8-1.1-1.7-1.4-2.6c-0.3-1-0.4-2.4-0.4-4.2v-7.2c0-2.2,0.3-3.9,0.9-5.1c0.6-1.2,1.5-2.2,2.9-2.9
			c1.3-0.7,2.8-1,4.6-1c2.1,0,3.8,0.4,5.2,1.2c1.4,0.8,2.3,1.9,2.9,3.2c0.5,1.3,0.8,3.2,0.8,5.6V250.7z M111.2,246.7v-1.8
			c0-1.3-0.1-2.1-0.2-2.5s-0.4-0.6-0.8-0.6c-0.5,0-0.8,0.2-1,0.5c-0.1,0.3-0.2,1.2-0.2,2.6v1.8H111.2z"/>
		<path class="st2" d="M129,234.7v3.9h2v3.9h-2v13.2c0,1.6,0.1,2.5,0.3,2.7s0.9,0.3,2.1,0.3v4h-3c-1.7,0-2.9-0.1-3.7-0.2
			c-0.7-0.1-1.4-0.5-1.9-1c-0.6-0.5-0.9-1.1-1-1.8c-0.1-0.7-0.2-2.2-0.2-4.7v-12.5H120v-3.9h1.6v-3.9H129z"/>
		<path class="st2" d="M140.3,238l-0.1,2.3c0.5-0.9,1.2-1.6,2-2c0.8-0.5,1.7-0.7,2.7-0.7c1.3,0,2.3,0.3,3.2,0.9
			c0.8,0.6,1.3,1.4,1.6,2.3c0.2,0.9,0.4,2.5,0.4,4.6v17.3h-7.5v-17.1c0-1.7-0.1-2.7-0.2-3.1s-0.4-0.6-0.9-0.6s-0.9,0.2-1,0.6
			c-0.1,0.4-0.2,1.6-0.2,3.4v16.6h-7.5V238H140.3z"/>
		<path class="st2" d="M160.3,232.6v3.9h-7.7v-3.9H160.3z M160.3,238v24.6h-7.7V238H160.3z"/>
		<path class="st2" d="M180.1,238v24.6h-7.6l0.1-2c-0.5,0.8-1.2,1.5-1.9,1.9s-1.6,0.6-2.6,0.6c-1.1,0-2.1-0.2-2.8-0.6
			s-1.3-0.9-1.6-1.6c-0.4-0.7-0.6-1.3-0.7-2c-0.1-0.7-0.1-2.1-0.1-4.2V238h7.5v16.8c0,1.9,0.1,3.1,0.2,3.4c0.1,0.4,0.4,0.5,1,0.5
			s0.9-0.2,1-0.6s0.2-1.6,0.2-3.6V238H180.1z"/>
	</g>
	<g>
		<g>
			<defs>
				<rect id="SVGID_00000057150465727426507070000003321929797891451269_" width="195.6" height="280.6"/>
			</defs>
			<clipPath id="SVGID_00000096029511334464726230000001931317674390620079_">
				<use xlink:href="#SVGID_00000057150465727426507070000003321929797891451269_"  style="overflow:visible;"/>
			</clipPath>
			<path style="clip-path:url(#SVGID_00000096029511334464726230000001931317674390620079_);fill:#1A1A1A;" d="M41.1,33.7v9.2
				c0,9.4,7.6,17,17,17s17-7.6,17-17l0,0v-9.2H41.1z"/>
		</g>
	</g>
	<g>
		<g>
			<defs>
				<rect id="SVGID_00000079457748492142546340000006776763649843890366_" width="195.6" height="280.6"/>
			</defs>
			<clipPath id="SVGID_00000118392992638353292990000011000693677027749529_">
				<use xlink:href="#SVGID_00000079457748492142546340000006776763649843890366_"  style="overflow:visible;"/>
			</clipPath>
			<path style="clip-path:url(#SVGID_00000118392992638353292990000011000693677027749529_);fill:#1A1A1A;" d="M120.6,33.7v9.2
				c0,9.4,7.6,17,17,17s17-7.6,17-17l0,0v-9.2H120.6z"/>
		</g>
	</g>
	<g>
		<g>
			<defs>
				<rect id="SVGID_00000172423289160993109340000017482362413665552525_" width="195.6" height="280.6"/>
			</defs>
			<clipPath id="SVGID_00000148644017555194071430000009989209535093656719_">
				<use xlink:href="#SVGID_00000172423289160993109340000017482362413665552525_"  style="overflow:visible;"/>
			</clipPath>
			<path style="clip-path:url(#SVGID_00000148644017555194071430000009989209535093656719_);fill:#1A1A1A;" d="M58,10.8
				c-9.4,0.1-16.9,7.6-17,17V37h34v-9.2C74.9,18.5,67.4,10.9,58,10.8L58,10.8z"/>
		</g>
	</g>
	<g>
		<g>
			<defs>
				<rect id="SVGID_00000170276311341313615610000007980007573321466010_" width="195.6" height="280.6"/>
			</defs>
			<clipPath id="SVGID_00000022542613063124489880000013512661829565785501_">
				<use xlink:href="#SVGID_00000170276311341313615610000007980007573321466010_"  style="overflow:visible;"/>
			</clipPath>
			<path style="clip-path:url(#SVGID_00000022542613063124489880000013512661829565785501_);fill:#1A1A1A;" d="M137.5,10.8
				c-9.4,0.1-16.9,7.6-17,17V37h34v-9.2C154.4,18.5,146.9,10.9,137.5,10.8z"/>
		</g>
	</g>
	<g>
		<g>
			<defs>
				<rect id="SVGID_00000095305058030776010340000008873426062117399467_" width="195.6" height="280.6"/>
			</defs>
			<clipPath id="SVGID_00000065035000605855703480000009705948849773065614_">
				<use xlink:href="#SVGID_00000095305058030776010340000008873426062117399467_"  style="overflow:visible;"/>
			</clipPath>
			<path style="clip-path:url(#SVGID_00000065035000605855703480000009705948849773065614_);fill:#1A1A1A;" d="M19.8,107.8v58.6
				c0.1,11.6,9.5,21,21.1,21.1h113.8c11.6-0.1,21-9.5,21.1-21.1v-58.6h-18.9v58.6c0.1,1.1-0.7,2.1-1.8,2.2c-0.2,0-0.3,0-0.5,0H40.9
				c-1.1,0.1-2.1-0.7-2.2-1.8c0-0.2,0-0.3,0-0.5v-58.6H19.8V107.8z"/>
		</g>
	</g>
	<g>
		<g>
			<defs>
				<rect id="SVGID_00000041977878480788988920000004320888397241598130_" width="195.6" height="280.6"/>
			</defs>
			<clipPath id="SVGID_00000103229100716555158240000000904753606273062819_">
				<use xlink:href="#SVGID_00000041977878480788988920000004320888397241598130_"  style="overflow:visible;"/>
			</clipPath>
			<path style="clip-path:url(#SVGID_00000103229100716555158240000000904753606273062819_);fill:#1A1A1A;" d="M40.9,31.5
				c-11.6,0.1-21,9.5-21.1,21.1v58.6h18.9V52.6c-0.1-1.1,0.7-2.1,1.8-2.2c0.2,0,0.3,0,0.5,0h113.8c1.1-0.1,2.1,0.7,2.2,1.8
				c0,0.2,0,0.3,0,0.5v58.6h18.9V52.6c-0.1-11.6-9.5-21-21.1-21.1C154.8,31.5,40.9,31.5,40.9,31.5z"/>
		</g>
	</g>
	<g>
		<g>
			<defs>
				<rect id="SVGID_00000163037464282951333630000011854355741870600890_" width="195.6" height="280.6"/>
			</defs>
			<clipPath id="SVGID_00000026129746086964761540000001795967875528328853_">
				<use xlink:href="#SVGID_00000163037464282951333630000011854355741870600890_"  style="overflow:visible;"/>
			</clipPath>
			<path style="clip-path:url(#SVGID_00000026129746086964761540000001795967875528328853_);fill:#DBE492;" d="M40.9,40.9h113.8
				c6.4,0,11.7,5.2,11.7,11.6c0,0,0,0,0,0.1v113.8c0,6.4-5.2,11.6-11.7,11.6l0,0H40.9c-6.4,0-11.7-5.2-11.7-11.6c0,0,0,0,0-0.1V52.6
				C29.2,46.2,34.4,40.9,40.9,40.9L40.9,40.9z"/>
		</g>
	</g>
	<g>
		<g>
			<defs>
				<rect id="SVGID_00000040562236998794390700000003620896180486376338_" width="195.6" height="280.6"/>
			</defs>
			<clipPath id="SVGID_00000103259387186918084220000011617377162633000590_">
				<use xlink:href="#SVGID_00000040562236998794390700000003620896180486376338_"  style="overflow:visible;"/>
			</clipPath>
			
				<rect x="49.2" y="60.8" style="clip-path:url(#SVGID_00000103259387186918084220000011617377162633000590_);fill:#FFFFFF;" width="97.3" height="32.7"/>
		</g>
	</g>
	<g>
		<g>
			<defs>
				<rect id="SVGID_00000048469981818569331560000016731374568217746817_" width="195.6" height="280.6"/>
			</defs>
			<clipPath id="SVGID_00000021096930468784082960000002784687774071359934_">
				<use xlink:href="#SVGID_00000048469981818569331560000016731374568217746817_"  style="overflow:visible;"/>
			</clipPath>
			
				<rect x="49.2" y="94.4" style="clip-path:url(#SVGID_00000021096930468784082960000002784687774071359934_);fill:#EB5A53;" width="97.3" height="32.7"/>
		</g>
	</g>
	<g>
		<g>
			<defs>
				<rect id="SVGID_00000175293553528749340750000006091748552385572245_" width="195.6" height="280.6"/>
			</defs>
			<clipPath id="SVGID_00000159467518309992015770000016716404327119041424_">
				<use xlink:href="#SVGID_00000175293553528749340750000006091748552385572245_"  style="overflow:visible;"/>
			</clipPath>
			
				<rect x="49.2" y="125.6" style="clip-path:url(#SVGID_00000159467518309992015770000016716404327119041424_);fill:#FFFFFF;" width="97.3" height="32.7"/>
		</g>
	</g>
	<g>
		<g>
			<defs>
				<rect id="SVGID_00000145764744263313404360000011243591240526288536_" width="195.6" height="280.6"/>
			</defs>
			<clipPath id="SVGID_00000060748604246821549130000006300022980809761706_">
				<use xlink:href="#SVGID_00000145764744263313404360000011243591240526288536_"  style="overflow:visible;"/>
			</clipPath>
			<path style="clip-path:url(#SVGID_00000060748604246821549130000006300022980809761706_);fill:#1A1A1A;" d="M26.9,107.8v58.6
				c0,7.7,6.3,14,14,14h113.8c7.7,0,14-6.3,14-14v-58.6H164v58.6c0,5.1-4.1,9.3-9.2,9.3h-0.1H40.9c-5.1,0-9.3-4.1-9.3-9.2v-0.1
				v-58.6C31.6,107.8,26.9,107.8,26.9,107.8z"/>
		</g>
	</g>
	<g>
		<g>
			<defs>
				<rect id="SVGID_00000100360634591663620030000005908320494733133467_" width="195.6" height="280.6"/>
			</defs>
			<clipPath id="SVGID_00000087408127761097212700000009763803079710281143_">
				<use xlink:href="#SVGID_00000100360634591663620030000005908320494733133467_"  style="overflow:visible;"/>
			</clipPath>
			<path style="clip-path:url(#SVGID_00000087408127761097212700000009763803079710281143_);fill:#1A1A1A;" d="M46.8,107.8v52.7h102
				v-52.7h-4.7v48H51.5v-48H46.8z"/>
		</g>
	</g>
	<g>
		<g>
			<defs>
				<rect id="SVGID_00000003807294921554140180000005341065451796211338_" width="195.6" height="280.6"/>
			</defs>
			<clipPath id="SVGID_00000048495129316686374110000006956387769054515330_">
				<use xlink:href="#SVGID_00000003807294921554140180000005341065451796211338_"  style="overflow:visible;"/>
			</clipPath>
			<path style="clip-path:url(#SVGID_00000048495129316686374110000006956387769054515330_);fill:#1A1A1A;" d="M40.9,38.6
				c-7.7,0-14,6.3-14,14v58.6h4.7V52.6c0-5.1,4.1-9.3,9.2-9.3h0.1h113.7c5.1,0,9.3,4,9.3,9.1c0,0.1,0,0.1,0,0.2v58.6h4.7V52.6
				c0-7.7-6.3-14-14-14H40.9z"/>
		</g>
	</g>
	<g>
		<g>
			<defs>
				<rect id="SVGID_00000170970200061539116570000009432894946962757042_" width="195.6" height="280.6"/>
			</defs>
			<clipPath id="SVGID_00000093894514810625631440000010832474208840277925_">
				<use xlink:href="#SVGID_00000170970200061539116570000009432894946962757042_"  style="overflow:visible;"/>
			</clipPath>
			
				<rect x="111.6" y="60.8" style="clip-path:url(#SVGID_00000093894514810625631440000010832474208840277925_);fill:#1A1A1A;" width="4.7" height="97.3"/>
		</g>
	</g>
	<g>
		<g>
			<defs>
				<rect id="SVGID_00000032635089647312170350000017374461489069180087_" width="195.6" height="280.6"/>
			</defs>
			<clipPath id="SVGID_00000055707596375157018330000000663392289851108286_">
				<use xlink:href="#SVGID_00000032635089647312170350000017374461489069180087_"  style="overflow:visible;"/>
			</clipPath>
			
				<rect x="79.2" y="60.8" style="clip-path:url(#SVGID_00000055707596375157018330000000663392289851108286_);fill:#1A1A1A;" width="4.7" height="97.3"/>
		</g>
	</g>
	<g>
		<g>
			<defs>
				<rect id="SVGID_00000024714763403835573950000012191608156212547504_" width="195.6" height="280.6"/>
			</defs>
			<clipPath id="SVGID_00000057144733830029435870000015217618462325960623_">
				<use xlink:href="#SVGID_00000024714763403835573950000012191608156212547504_"  style="overflow:visible;"/>
			</clipPath>
			
				<rect x="49.2" y="123.3" style="clip-path:url(#SVGID_00000057144733830029435870000015217618462325960623_);fill:#1A1A1A;" width="97.3" height="4.7"/>
		</g>
	</g>
	<g>
		<g>
			<defs>
				<rect id="SVGID_00000067231408947560655780000014551891789294100389_" width="195.6" height="280.6"/>
			</defs>
			<clipPath id="SVGID_00000009573352199070781650000018275557291651937705_">
				<use xlink:href="#SVGID_00000067231408947560655780000014551891789294100389_"  style="overflow:visible;"/>
			</clipPath>
			
				<rect x="49.2" y="90.9" style="clip-path:url(#SVGID_00000009573352199070781650000018275557291651937705_);fill:#1A1A1A;" width="97.3" height="4.7"/>
		</g>
	</g>
	<g>
		<g>
			<defs>
				<rect id="SVGID_00000088123194922922410620000001169240818800845718_" width="195.6" height="280.6"/>
			</defs>
			<clipPath id="SVGID_00000183242152094309209070000002036062055201142673_">
				<use xlink:href="#SVGID_00000088123194922922410620000001169240818800845718_"  style="overflow:visible;"/>
			</clipPath>
			<path style="clip-path:url(#SVGID_00000183242152094309209070000002036062055201142673_);fill:#1A1A1A;" d="M46.8,58.5v52.7h4.7
				v-48h92.6v48h4.7V58.5H46.8z"/>
		</g>
	</g>
	<g>
		<g>
			<defs>
				<rect id="SVGID_00000035500624683837379490000008576670716574903487_" width="195.6" height="280.6"/>
			</defs>
			<clipPath id="SVGID_00000124854960145128197810000002349427441128162436_">
				<use xlink:href="#SVGID_00000035500624683837379490000008576670716574903487_"  style="overflow:visible;"/>
			</clipPath>
			<path style="clip-path:url(#SVGID_00000124854960145128197810000002349427441128162436_);fill:#FFFFFF;" d="M58,20.3
				c4.2,0,7.5,3.3,7.5,7.5l0,0v15.1c0,4.2-3.4,7.5-7.5,7.5s-7.5-3.4-7.5-7.5l0,0V27.8C50.5,23.7,53.9,20.3,58,20.3L58,20.3z"/>
		</g>
	</g>
	<g>
		<g>
			<defs>
				<rect id="SVGID_00000029734467201715774190000009889175436570543261_" width="195.6" height="280.6"/>
			</defs>
			<clipPath id="SVGID_00000084511280370971285590000002119358747732387749_">
				<use xlink:href="#SVGID_00000029734467201715774190000009889175436570543261_"  style="overflow:visible;"/>
			</clipPath>
			<path style="clip-path:url(#SVGID_00000084511280370971285590000002119358747732387749_);fill:#1A1A1A;" d="M48.2,33.7v9.2
				c0,5.5,4.4,9.9,9.9,9.9s9.9-4.4,9.9-9.9l0,0v-9.2h-4.7v9.2c0,2.9-2.3,5.2-5.2,5.2s-5.2-2.3-5.2-5.2l0,0v-9.2H48.2z"/>
		</g>
	</g>
	<g>
		<g>
			<defs>
				<rect id="SVGID_00000116210218510673641860000015671683467786649533_" width="195.6" height="280.6"/>
			</defs>
			<clipPath id="SVGID_00000029765618959026810590000013482732635129982634_">
				<use xlink:href="#SVGID_00000116210218510673641860000015671683467786649533_"  style="overflow:visible;"/>
			</clipPath>
			<path style="clip-path:url(#SVGID_00000029765618959026810590000013482732635129982634_);fill:#FFFFFF;" d="M137.5,20.3
				c4.2,0,7.5,3.3,7.5,7.5l0,0v15.1c0,4.2-3.4,7.5-7.5,7.5c-4.2,0-7.5-3.4-7.5-7.5l0,0V27.8C130,23.7,133.3,20.3,137.5,20.3
				L137.5,20.3L137.5,20.3z"/>
		</g>
	</g>
	<g>
		<g>
			<defs>
				<rect id="SVGID_00000089537731081140194600000014161329396111601816_" width="195.6" height="280.6"/>
			</defs>
			<clipPath id="SVGID_00000015329067330141653780000017639141894533061254_">
				<use xlink:href="#SVGID_00000089537731081140194600000014161329396111601816_"  style="overflow:visible;"/>
			</clipPath>
			<path style="clip-path:url(#SVGID_00000015329067330141653780000017639141894533061254_);fill:#1A1A1A;" d="M127.6,33.7v9.2
				c0,5.5,4.4,9.9,9.9,9.9s9.9-4.4,9.9-9.9v-9.2h-4.7v9.2c0,2.9-2.3,5.2-5.2,5.2s-5.2-2.3-5.2-5.2l0,0v-9.2H127.6z"/>
		</g>
	</g>
	<g>
		<g>
			<defs>
				<rect id="SVGID_00000067946368751436900700000002590771389148083590_" width="195.6" height="280.6"/>
			</defs>
			<clipPath id="SVGID_00000080887830749877422260000001437497898269794703_">
				<use xlink:href="#SVGID_00000067946368751436900700000002590771389148083590_"  style="overflow:visible;"/>
			</clipPath>
			<path style="clip-path:url(#SVGID_00000080887830749877422260000001437497898269794703_);fill:#1A1A1A;" d="M58,17.9
				c-5.5,0-9.9,4.4-9.9,9.9V37h4.7v-9.2c0-2.9,2.3-5.2,5.2-5.2s5.2,2.3,5.2,5.2l0,0V37H68v-9.2C68,22.4,63.6,17.9,58,17.9L58,17.9z"
				/>
		</g>
	</g>
	<g>
		<g>
			<defs>
				<rect id="SVGID_00000163766795847440867690000015852384458941298068_" width="195.6" height="280.6"/>
			</defs>
			<clipPath id="SVGID_00000053534118841377260210000003286029002503426436_">
				<use xlink:href="#SVGID_00000163766795847440867690000015852384458941298068_"  style="overflow:visible;"/>
			</clipPath>
			<path style="clip-path:url(#SVGID_00000053534118841377260210000003286029002503426436_);fill:#1A1A1A;" d="M137.5,17.9
				c-5.5,0-9.9,4.4-9.9,9.9V37h4.7v-9.2c0-2.9,2.3-5.2,5.2-5.2s5.2,2.3,5.2,5.2l0,0V37h4.7v-9.2C147.4,22.4,143,18,137.5,17.9z"/>
		</g>
	</g>
	<g>
		<g>
			<defs>
				<rect id="SVGID_00000072973541723736130530000005838830540604624257_" width="195.6" height="280.6"/>
			</defs>
			<clipPath id="SVGID_00000157999533182318670100000017162018477351741065_">
				<use xlink:href="#SVGID_00000072973541723736130530000005838830540604624257_"  style="overflow:visible;"/>
			</clipPath>
			<path style="clip-path:url(#SVGID_00000157999533182318670100000017162018477351741065_);fill:#EB5A53;" d="M150.6,0h29h16v16
				c0,7,0,14,0,21c-10.2,12.4-28.6,14.2-41,4S140.4,12.4,150.6,0z"/>
		</g>
	</g>
	<g>
		<g>
			<defs>
				<rect id="SVGID_00000041288538872634744000000005121515310775576730_" width="195.6" height="280.6"/>
			</defs>
			<clipPath id="SVGID_00000138572997904130393250000015244447175431775665_">
				<use xlink:href="#SVGID_00000041288538872634744000000005121515310775576730_"  style="overflow:visible;"/>
			</clipPath>
		</g>
	</g>
</g>
<g class="st1">
	<path class="st28" d="M169,15.9v2.5h-4.9v2.7c0.6-0.7,1.4-1.1,2.4-1.1c1.1,0,1.9,0.3,2.5,0.9s0.8,1.8,0.8,3.5v2.3
		c0,1.1-0.1,1.9-0.2,2.5s-0.3,1-0.7,1.5s-0.8,0.8-1.5,1c-0.6,0.2-1.4,0.4-2.3,0.4c-1,0-1.9-0.2-2.7-0.5c-0.8-0.4-1.3-0.9-1.7-1.6
		c-0.3-0.7-0.5-1.8-0.5-3.3v-0.9h3.9v1c0,1,0,1.7,0.1,2.2c0.1,0.4,0.3,0.6,0.7,0.6c0.2,0,0.4-0.1,0.5-0.2c0.1-0.1,0.2-0.3,0.2-0.4
		s0-0.8,0-1.9V24c0-0.6-0.1-1-0.2-1.2c-0.1-0.2-0.3-0.3-0.6-0.3c-0.2,0-0.3,0.1-0.5,0.2c-0.1,0.1-0.2,0.2-0.2,0.4
		c0,0.1-0.1,0.4-0.1,0.9h-3.9l0.2-8H169z"/>
	<path class="st28" d="M178.5,22.8c0.6,0.2,1,0.5,1.3,1c0.3,0.5,0.4,1.5,0.4,3.2c0,1.3-0.1,2.2-0.4,2.9c-0.3,0.7-0.8,1.2-1.5,1.6
		s-1.6,0.5-2.7,0.5c-1.2,0-2.2-0.2-2.9-0.6s-1.2-0.9-1.4-1.5s-0.3-1.7-0.3-3.2v-1.2h3.9V28c0,0.7,0,1.1,0.1,1.3
		c0.1,0.2,0.3,0.3,0.5,0.3c0.3,0,0.5-0.1,0.6-0.4s0.1-0.8,0.1-1.8v-1.1c0-0.6-0.1-1-0.2-1.3s-0.3-0.5-0.6-0.6
		c-0.3-0.1-0.8-0.1-1.6-0.2V22c0.9,0,1.5,0,1.7-0.1c0.2-0.1,0.4-0.2,0.5-0.5s0.1-0.6,0.1-1.1v-0.9c0-0.6-0.1-0.9-0.2-1.1
		c-0.1-0.2-0.3-0.3-0.5-0.3c-0.3,0-0.5,0.1-0.6,0.3c-0.1,0.2-0.2,0.6-0.2,1.2v1.3H171v-1.3c0-1.5,0.3-2.5,1-3.1
		c0.7-0.5,1.8-0.8,3.3-0.8c1.9,0,3.2,0.4,3.8,1.1c0.7,0.7,1,1.8,1,3.1c0,0.9-0.1,1.5-0.4,1.9C179.6,22.1,179.1,22.5,178.5,22.8z"/>
</g>
</svg>
