<?xml version="1.0" encoding="utf-8"?>
<!-- Generator: Adobe Illustrator 26.0.1, SVG Export Plug-In . SVG Version: 6.00 Build 0)  -->
<svg version="1.1" id="Слой_1" xmlns="http://www.w3.org/2000/svg" xmlns:xlink="http://www.w3.org/1999/xlink" x="0px" y="0px"
	 viewBox="0 0 195.6 280.6" style="enable-background:new 0 0 195.6 280.6;" xml:space="preserve">
<style type="text/css">
	
		.st0{clip-path:url(#SVGID_00000003096219892541245400000003240267807844436373_);fill:#FFFFFF;stroke:#1D1D1B;stroke-miterlimit:10;}
	.st1{enable-background:new    ;}
	.st2{fill:#1A1A1A;}
	.st3{clip-path:url(#SVGID_00000057133668669063402530000003457339201617811384_);fill:#1A1A1A;}
	.st4{clip-path:url(#SVGID_00000134212239948891516060000009361272569943021447_);fill:#1A1A1A;}
	.st5{clip-path:url(#SVGID_00000000194854884410888090000002356094798897672109_);fill:#1A1A1A;}
	.st6{clip-path:url(#SVGID_00000005229431635933127190000001292065189090096558_);fill:#1A1A1A;}
	.st7{clip-path:url(#SVGID_00000113346979144187187170000013722420593714475957_);fill:#1A1A1A;}
	.st8{clip-path:url(#SVGID_00000013179694001429373560000004074859112473045937_);fill:#1A1A1A;}
	.st9{clip-path:url(#SVGID_00000155841137376732559390000013007777834212541079_);fill:#DBE492;}
	.st10{clip-path:url(#SVGID_00000132058619679527262830000010902960087799837605_);fill:#FFFFFF;}
	.st11{clip-path:url(#SVGID_00000142897509216711957910000011401595164519827878_);fill:#FFFFFF;}
	.st12{clip-path:url(#SVGID_00000031198842069523120960000011457041137266184854_);fill:#EB5A53;}
	.st13{clip-path:url(#SVGID_00000047017966784471701610000007813468131571840925_);fill:#1A1A1A;}
	.st14{clip-path:url(#SVGID_00000020369869912235702590000004149817368491723691_);fill:#1A1A1A;}
	.st15{clip-path:url(#SVGID_00000029015648094373166410000000264796563383179693_);fill:#1A1A1A;}
	.st16{clip-path:url(#SVGID_00000049924266262408313210000016645109975453951651_);fill:#1A1A1A;}
	.st17{clip-path:url(#SVGID_00000018931957370952380660000009140420681742426274_);fill:#1A1A1A;}
	.st18{clip-path:url(#SVGID_00000049186303367558474600000007354067837733227692_);fill:#1A1A1A;}
	.st19{clip-path:url(#SVGID_00000155106201663877491160000016936973296380414388_);fill:#1A1A1A;}
	.st20{clip-path:url(#SVGID_00000012456189845364762700000010081051313500449433_);fill:#1A1A1A;}
	.st21{clip-path:url(#SVGID_00000181781147060509467980000013804667495177693601_);fill:#FFFFFF;}
	.st22{clip-path:url(#SVGID_00000112625033899928296570000011464803685281373351_);fill:#1A1A1A;}
	.st23{clip-path:url(#SVGID_00000024723057280345871960000017468170602738100413_);fill:#FFFFFF;}
	.st24{clip-path:url(#SVGID_00000139273236097176179350000002368541143051934895_);fill:#1A1A1A;}
	.st25{clip-path:url(#SVGID_00000164487105616715520210000015622136010872510890_);fill:#1A1A1A;}
	.st26{clip-path:url(#SVGID_00000002365367762862964620000012828558994186775210_);fill:#1A1A1A;}
	.st27{clip-path:url(#SVGID_00000069367014294230130870000002343423424055462322_);fill:#EB5A53;}
	.st28{fill:#FFFFFF;}
</style>
<g>
	<g>
		<g>
			<defs>
				<rect id="SVGID_1_" width="195.6" height="280.6"/>
			</defs>
			<clipPath id="SVGID_00000083069715556198403970000003028602017853227180_">
				<use xlink:href="#SVGID_1_"  style="overflow:visible;"/>
			</clipPath>
			
				<rect x="-278.2" y="-12.9" style="clip-path:url(#SVGID_00000083069715556198403970000003028602017853227180_);fill:#FFFFFF;stroke:#1D1D1B;stroke-miterlimit:10;" width="491.4" height="310"/>
		</g>
	</g>
	<g class="st1">
		<path class="st2" d="M42.9,202l-3,24.6h-8.1c-0.4-3-1-7-1.6-11.9c-0.2,2.2-0.5,4.3-0.8,6.5l-0.8,5.3h-8.2L17.2,202h6.5
			c0,0.6,0.6,5.3,1.6,14.1c0.1-0.9,0.6-5.6,1.7-14.1h6.2l1.5,14.1c0.2-4.1,0.8-8.8,1.7-14.1H42.9z"/>
		<path class="st2" d="M51.8,196.6v3.9h-7.7v-3.9H51.8z M51.8,202v24.6h-7.7V202H51.8z"/>
		<path class="st2" d="M71.5,214.7h-9.7v5.3c0,1.1,0.1,1.8,0.2,2.2c0.2,0.3,0.5,0.5,0.9,0.5c0.6,0,0.9-0.2,1.1-0.6
			c0.2-0.4,0.3-1.3,0.3-2.5v-3.2h7.1v1.8c0,1.5-0.1,2.7-0.3,3.5c-0.2,0.8-0.6,1.7-1.3,2.6s-1.6,1.6-2.7,2.1s-2.4,0.7-4.1,0.7
			c-1.6,0-3-0.2-4.2-0.7s-2.2-1.1-2.8-1.9c-0.7-0.8-1.1-1.7-1.4-2.6c-0.3-1-0.4-2.4-0.4-4.2v-7.2c0-2.2,0.3-3.9,0.9-5.1
			c0.6-1.2,1.5-2.2,2.9-2.9c1.3-0.7,2.8-1,4.6-1c2.1,0,3.8,0.4,5.2,1.2c1.4,0.8,2.3,1.9,2.9,3.2s0.8,3.2,0.8,5.6V214.7z M64,210.7
			v-1.8c0-1.3-0.1-2.1-0.2-2.5c-0.1-0.4-0.4-0.6-0.8-0.6c-0.5,0-0.8,0.2-1,0.5c-0.1,0.3-0.2,1.2-0.2,2.6v1.8H64z"/>
		<path class="st2" d="M81.6,196.6v30h-7.7v-30H81.6z"/>
		<path class="st2" d="M100.5,202l-3,9.8l4,14.8h-7.2L92,215.9v10.7h-7.5v-30H92v12.6l2.3-7.2L100.5,202L100.5,202z"/>
		<path class="st2" d="M109.2,211.5h-7v-1.7c0-1.9,0.2-3.4,0.7-4.4c0.4-1,1.3-1.9,2.6-2.7c1.3-0.8,3-1.2,5.2-1.2
			c2.5,0,4.4,0.4,5.7,1.3c1.3,0.9,2.1,2,2.3,3.3c0.3,1.3,0.4,4,0.4,8.1v12.4h-7.3v-2.2c-0.5,0.9-1,1.5-1.8,2
			c-0.7,0.4-1.6,0.7-2.6,0.7c-1.3,0-2.5-0.4-3.6-1.1c-1.1-0.7-1.6-2.3-1.6-4.8v-2c0-1.8,0.3-3.1,0.9-3.8s2-1.4,4.3-2.3
			c2.5-1,3.8-1.6,4-1.9s0.3-1,0.3-2c0-1.3-0.1-2.1-0.3-2.5c-0.2-0.4-0.5-0.6-1-0.6s-0.8,0.2-0.9,0.5s-0.2,1.2-0.2,2.6L109.2,211.5
			L109.2,211.5z M111.6,214.9c-1.2,0.9-1.9,1.6-2.1,2.2c-0.2,0.6-0.3,1.4-0.3,2.6c0,1.3,0.1,2.1,0.3,2.5s0.5,0.6,1,0.6
			s0.8-0.1,0.9-0.4c0.1-0.3,0.2-1.1,0.2-2.3V214.9z"/>
		<path class="st2" d="M129.3,202l-0.1,2.3c0.5-0.9,1.2-1.6,2-2c0.8-0.5,1.7-0.7,2.7-0.7c1.3,0,2.3,0.3,3.2,0.9
			c0.8,0.6,1.3,1.4,1.6,2.3c0.2,0.9,0.4,2.5,0.4,4.6v17.3h-7.5v-17.1c0-1.7-0.1-2.7-0.2-3.1s-0.4-0.6-0.9-0.6s-0.9,0.2-1,0.6
			c-0.1,0.4-0.2,1.6-0.2,3.4v16.6h-7.5V202H129.3z"/>
		<path class="st2" d="M158.5,210.6v6c0,2.2-0.1,3.8-0.3,4.9c-0.2,1-0.7,2-1.4,2.9s-1.7,1.6-2.8,2s-2.5,0.6-3.9,0.6
			c-1.7,0-3.1-0.2-4.2-0.5c-1.2-0.4-2-0.9-2.7-1.7c-0.6-0.7-1.1-1.6-1.4-2.7c-0.3-1-0.4-2.6-0.4-4.7v-6.3c0-2.3,0.2-4.1,0.7-5.4
			c0.5-1.3,1.4-2.3,2.7-3.1s2.9-1.2,4.9-1.2c1.7,0,3.1,0.3,4.3,0.8s2.1,1.2,2.8,2s1.1,1.6,1.3,2.5S158.5,208.9,158.5,210.6z
			 M151,208.8c0-1.3-0.1-2.1-0.2-2.4c-0.1-0.3-0.4-0.5-0.9-0.5s-0.7,0.2-0.9,0.5c-0.1,0.3-0.2,1.1-0.2,2.4v11.1
			c0,1.2,0.1,1.9,0.2,2.3c0.1,0.4,0.4,0.5,0.9,0.5c0.4,0,0.7-0.2,0.9-0.5c0.1-0.3,0.2-1,0.2-2.1V208.8z"/>
		<path class="st2" d="M177.5,211.3h-7.1v-2.8c0-1-0.1-1.7-0.2-2c-0.2-0.4-0.5-0.5-0.9-0.5s-0.7,0.2-0.9,0.5c-0.1,0.3-0.2,1-0.2,2.1
			v11.6c0,0.9,0.1,1.5,0.3,2c0.2,0.4,0.6,0.7,1,0.7c0.5,0,0.9-0.2,1-0.7c0.2-0.5,0.3-1.3,0.3-2.6v-2.9h6.7c0,2-0.1,3.4-0.2,4.4
			c-0.1,1-0.5,2-1.2,3s-1.6,1.8-2.7,2.3c-1.1,0.5-2.5,0.8-4.2,0.8c-2.1,0-3.8-0.4-5-1.1c-1.2-0.7-2.1-1.7-2.6-3s-0.8-3.2-0.8-5.6v-7
			c0-2.1,0.2-3.7,0.6-4.7c0.4-1.1,1.3-2,2.7-2.8s3-1.3,5-1.3s3.6,0.4,5,1.2s2.3,1.9,2.8,3.1S177.5,209,177.5,211.3z"/>
	</g>
	<g class="st1">
		<path class="st2" d="M39.8,238l-3,24.6h-8.1c-0.4-3-1-7-1.6-11.9c-0.2,2.2-0.5,4.3-0.8,6.5l-0.8,5.3h-8.2L14.1,238h6.5
			c0,0.6,0.6,5.3,1.6,14.1c0.1-0.9,0.6-5.6,1.7-14.1h6.2l1.5,14.1c0.2-4.1,0.8-8.8,1.7-14.1H39.8z"/>
		<path class="st2" d="M63.8,238l-3,9.8l4,14.8h-7.2l-2.3-10.7v10.7h-7.5v-30h7.5v12.6l2.3-7.2L63.8,238L63.8,238z"/>
		<path class="st2" d="M90.1,238l-3,24.6H79c-0.4-3-1-7-1.6-11.9c-0.2,2.2-0.5,4.3-0.8,6.5l-0.8,5.3h-8.2L64.4,238h6.5
			c0,0.6,0.6,5.3,1.6,14.1c0.1-0.9,0.6-5.6,1.7-14.1h6.2l1.5,14.1c0.2-4.1,0.8-8.8,1.7-14.1H90.1z"/>
		<path class="st2" d="M99,232.6v3.9h-7.7v-3.9H99z M99,238v24.6h-7.7V238H99z"/>
		<path class="st2" d="M118.7,250.7H109v5.3c0,1.1,0.1,1.8,0.2,2.2c0.2,0.3,0.5,0.5,0.9,0.5c0.6,0,0.9-0.2,1.1-0.6s0.3-1.3,0.3-2.5
			v-3.2h7.1v1.8c0,1.5-0.1,2.7-0.3,3.5c-0.2,0.8-0.6,1.7-1.3,2.6s-1.6,1.6-2.7,2.1s-2.4,0.7-4.1,0.7c-1.6,0-3-0.2-4.2-0.7
			s-2.2-1.1-2.8-1.9c-0.7-0.8-1.1-1.7-1.4-2.6c-0.3-1-0.4-2.4-0.4-4.2v-7.2c0-2.2,0.3-3.9,0.9-5.1c0.6-1.2,1.5-2.2,2.9-2.9
			c1.3-0.7,2.8-1,4.6-1c2.1,0,3.8,0.4,5.2,1.2c1.4,0.8,2.3,1.9,2.9,3.2c0.5,1.3,0.8,3.2,0.8,5.6V250.7z M111.2,246.7v-1.8
			c0-1.3-0.1-2.1-0.2-2.5s-0.4-0.6-0.8-0.6c-0.5,0-0.8,0.2-1,0.5c-0.1,0.3-0.2,1.2-0.2,2.6v1.8H111.2z"/>
		<path class="st2" d="M129,234.7v3.9h2v3.9h-2v13.2c0,1.6,0.1,2.5,0.3,2.7s0.9,0.3,2.1,0.3v4h-3c-1.7,0-2.9-0.1-3.7-0.2
			c-0.7-0.1-1.4-0.5-1.9-1c-0.6-0.5-0.9-1.1-1-1.8c-0.1-0.7-0.2-2.2-0.2-4.7v-12.5H120v-3.9h1.6v-3.9H129z"/>
		<path class="st2" d="M140.3,238l-0.1,2.3c0.5-0.9,1.2-1.6,2-2c0.8-0.5,1.7-0.7,2.7-0.7c1.3,0,2.3,0.3,3.2,0.9
			c0.8,0.6,1.3,1.4,1.6,2.3c0.2,0.9,0.4,2.5,0.4,4.6v17.3h-7.5v-17.1c0-1.7-0.1-2.7-0.2-3.1s-0.4-0.6-0.9-0.6s-0.9,0.2-1,0.6
			c-0.1,0.4-0.2,1.6-0.2,3.4v16.6h-7.5V238H140.3z"/>
		<path class="st2" d="M160.3,232.6v3.9h-7.7v-3.9H160.3z M160.3,238v24.6h-7.7V238H160.3z"/>
		<path class="st2" d="M180.1,238v24.6h-7.6l0.1-2c-0.5,0.8-1.2,1.5-1.9,1.9s-1.6,0.6-2.6,0.6c-1.1,0-2.1-0.2-2.8-0.6
			s-1.3-0.9-1.6-1.6c-0.4-0.7-0.6-1.3-0.7-2c-0.1-0.7-0.1-2.1-0.1-4.2V238h7.5v16.8c0,1.9,0.1,3.1,0.2,3.4c0.1,0.4,0.4,0.5,1,0.5
			s0.9-0.2,1-0.6s0.2-1.6,0.2-3.6V238H180.1z"/>
	</g>
	<g>
		<g>
			<defs>
				<rect id="SVGID_00000105414422504970700900000009096803263188236721_" width="195.6" height="280.6"/>
			</defs>
			<clipPath id="SVGID_00000014619521645104580420000009658483310786999460_">
				<use xlink:href="#SVGID_00000105414422504970700900000009096803263188236721_"  style="overflow:visible;"/>
			</clipPath>
			<path style="clip-path:url(#SVGID_00000014619521645104580420000009658483310786999460_);fill:#1A1A1A;" d="M41.1,33.7v9.2
				c0,9.4,7.6,17,17,17s17-7.6,17-17l0,0v-9.2H41.1z"/>
		</g>
	</g>
	<g>
		<g>
			<defs>
				<rect id="SVGID_00000160893524390303611820000004111948814475740560_" width="195.6" height="280.6"/>
			</defs>
			<clipPath id="SVGID_00000111161901637437755860000002980432844690529964_">
				<use xlink:href="#SVGID_00000160893524390303611820000004111948814475740560_"  style="overflow:visible;"/>
			</clipPath>
			<path style="clip-path:url(#SVGID_00000111161901637437755860000002980432844690529964_);fill:#1A1A1A;" d="M120.6,33.7v9.2
				c0,9.4,7.6,17,17,17s17-7.6,17-17l0,0v-9.2H120.6z"/>
		</g>
	</g>
	<g>
		<g>
			<defs>
				<rect id="SVGID_00000017481941111495660180000009551933585894601875_" width="195.6" height="280.6"/>
			</defs>
			<clipPath id="SVGID_00000042721731909136508630000004415683466618435742_">
				<use xlink:href="#SVGID_00000017481941111495660180000009551933585894601875_"  style="overflow:visible;"/>
			</clipPath>
			<path style="clip-path:url(#SVGID_00000042721731909136508630000004415683466618435742_);fill:#1A1A1A;" d="M58,10.8
				c-9.4,0.1-16.9,7.6-17,17V37h34v-9.2C74.9,18.5,67.4,10.9,58,10.8L58,10.8z"/>
		</g>
	</g>
	<g>
		<g>
			<defs>
				<rect id="SVGID_00000148644177537032721420000013876120910136959635_" width="195.6" height="280.6"/>
			</defs>
			<clipPath id="SVGID_00000021803850286240396470000005692515019667035279_">
				<use xlink:href="#SVGID_00000148644177537032721420000013876120910136959635_"  style="overflow:visible;"/>
			</clipPath>
			<path style="clip-path:url(#SVGID_00000021803850286240396470000005692515019667035279_);fill:#1A1A1A;" d="M137.5,10.8
				c-9.4,0.1-16.9,7.6-17,17V37h34v-9.2C154.4,18.5,146.9,10.9,137.5,10.8z"/>
		</g>
	</g>
	<g>
		<g>
			<defs>
				<rect id="SVGID_00000029725606041930177340000002119491184182546357_" width="195.6" height="280.6"/>
			</defs>
			<clipPath id="SVGID_00000176731685707761712400000018209941102632087196_">
				<use xlink:href="#SVGID_00000029725606041930177340000002119491184182546357_"  style="overflow:visible;"/>
			</clipPath>
			<path style="clip-path:url(#SVGID_00000176731685707761712400000018209941102632087196_);fill:#1A1A1A;" d="M19.8,107.8v58.6
				c0.1,11.6,9.5,21,21.1,21.1h113.8c11.6-0.1,21-9.5,21.1-21.1v-58.6h-18.9v58.6c0.1,1.1-0.7,2.1-1.8,2.2c-0.2,0-0.3,0-0.5,0H40.9
				c-1.1,0.1-2.1-0.7-2.2-1.8c0-0.2,0-0.3,0-0.5v-58.6H19.8V107.8z"/>
		</g>
	</g>
	<g>
		<g>
			<defs>
				<rect id="SVGID_00000023982897724064433150000014820767265976239011_" width="195.6" height="280.6"/>
			</defs>
			<clipPath id="SVGID_00000008850329646060175330000016301885902619817601_">
				<use xlink:href="#SVGID_00000023982897724064433150000014820767265976239011_"  style="overflow:visible;"/>
			</clipPath>
			<path style="clip-path:url(#SVGID_00000008850329646060175330000016301885902619817601_);fill:#1A1A1A;" d="M40.9,31.5
				c-11.6,0.1-21,9.5-21.1,21.1v58.6h18.9V52.6c-0.1-1.1,0.7-2.1,1.8-2.2c0.2,0,0.3,0,0.5,0h113.8c1.1-0.1,2.1,0.7,2.2,1.8
				c0,0.2,0,0.3,0,0.5v58.6h18.9V52.6c-0.1-11.6-9.5-21-21.1-21.1C154.8,31.5,40.9,31.5,40.9,31.5z"/>
		</g>
	</g>
	<g>
		<g>
			<defs>
				<rect id="SVGID_00000082346710019379219670000014493265168355179405_" width="195.6" height="280.6"/>
			</defs>
			<clipPath id="SVGID_00000158706999913500901500000002279869681015062162_">
				<use xlink:href="#SVGID_00000082346710019379219670000014493265168355179405_"  style="overflow:visible;"/>
			</clipPath>
			<path style="clip-path:url(#SVGID_00000158706999913500901500000002279869681015062162_);fill:#DBE492;" d="M40.9,40.9h113.8
				c6.4,0,11.7,5.2,11.7,11.6c0,0,0,0,0,0.1v113.8c0,6.4-5.2,11.6-11.7,11.6l0,0H40.9c-6.4,0-11.7-5.2-11.7-11.6c0,0,0,0,0-0.1V52.6
				C29.2,46.2,34.4,40.9,40.9,40.9L40.9,40.9z"/>
		</g>
	</g>
	<g>
		<g>
			<defs>
				<rect id="SVGID_00000098183558108889520650000005351262387410447760_" width="195.6" height="280.6"/>
			</defs>
			<clipPath id="SVGID_00000083053918963738056910000003063401956201803406_">
				<use xlink:href="#SVGID_00000098183558108889520650000005351262387410447760_"  style="overflow:visible;"/>
			</clipPath>
			
				<rect x="49.2" y="60.8" style="clip-path:url(#SVGID_00000083053918963738056910000003063401956201803406_);fill:#FFFFFF;" width="97.3" height="32.7"/>
		</g>
	</g>
	<g>
		<g>
			<defs>
				<rect id="SVGID_00000066480320131553509270000008649657074701431739_" width="195.6" height="280.6"/>
			</defs>
			<clipPath id="SVGID_00000132079914632190631410000002104810389332031110_">
				<use xlink:href="#SVGID_00000066480320131553509270000008649657074701431739_"  style="overflow:visible;"/>
			</clipPath>
			
				<rect x="49.2" y="94.4" style="clip-path:url(#SVGID_00000132079914632190631410000002104810389332031110_);fill:#FFFFFF;" width="97.3" height="16.3"/>
		</g>
	</g>
	<g>
		<g>
			<defs>
				<rect id="SVGID_00000106131850963559877300000004169864078104674713_" width="195.6" height="280.6"/>
			</defs>
			<clipPath id="SVGID_00000050646479678287588510000016718315906839526567_">
				<use xlink:href="#SVGID_00000106131850963559877300000004169864078104674713_"  style="overflow:visible;"/>
			</clipPath>
			
				<rect x="49.2" y="110.8" style="clip-path:url(#SVGID_00000050646479678287588510000016718315906839526567_);fill:#EB5A53;" width="97.3" height="47.5"/>
		</g>
	</g>
	<g>
		<g>
			<defs>
				<rect id="SVGID_00000041258194114074168680000016052241546337573763_" width="195.6" height="280.6"/>
			</defs>
			<clipPath id="SVGID_00000110449955543047773850000016458908022664019351_">
				<use xlink:href="#SVGID_00000041258194114074168680000016052241546337573763_"  style="overflow:visible;"/>
			</clipPath>
			<path style="clip-path:url(#SVGID_00000110449955543047773850000016458908022664019351_);fill:#1A1A1A;" d="M26.9,107.8v58.6
				c0,7.7,6.3,14,14,14h113.8c7.7,0,14-6.3,14-14v-58.6H164v58.6c0,5.1-4.1,9.3-9.2,9.3h-0.1H40.9c-5.1,0-9.3-4.1-9.3-9.2v-0.1
				v-58.6C31.6,107.8,26.9,107.8,26.9,107.8z"/>
		</g>
	</g>
	<g>
		<g>
			<defs>
				<rect id="SVGID_00000163782413057767834520000001553307664813802940_" width="195.6" height="280.6"/>
			</defs>
			<clipPath id="SVGID_00000088811501252426812050000003393481982984139907_">
				<use xlink:href="#SVGID_00000163782413057767834520000001553307664813802940_"  style="overflow:visible;"/>
			</clipPath>
			<path style="clip-path:url(#SVGID_00000088811501252426812050000003393481982984139907_);fill:#1A1A1A;" d="M46.8,107.8v52.7h102
				v-52.7h-4.7v48H51.5v-48H46.8z"/>
		</g>
	</g>
	<g>
		<g>
			<defs>
				<rect id="SVGID_00000155146239542045659000000016488861252114693812_" width="195.6" height="280.6"/>
			</defs>
			<clipPath id="SVGID_00000098186126911498583710000010092271447041473422_">
				<use xlink:href="#SVGID_00000155146239542045659000000016488861252114693812_"  style="overflow:visible;"/>
			</clipPath>
			<path style="clip-path:url(#SVGID_00000098186126911498583710000010092271447041473422_);fill:#1A1A1A;" d="M40.9,38.6
				c-7.7,0-14,6.3-14,14v58.6h4.7V52.6c0-5.1,4.1-9.3,9.2-9.3h0.1h113.7c5.1,0,9.3,4,9.3,9.1c0,0.1,0,0.1,0,0.2v58.6h4.7V52.6
				c0-7.7-6.3-14-14-14H40.9z"/>
		</g>
	</g>
	<g>
		<g>
			<defs>
				<rect id="SVGID_00000168093862232357946510000016624449813450151050_" width="195.6" height="280.6"/>
			</defs>
			<clipPath id="SVGID_00000137822084271677988930000001642663112315018639_">
				<use xlink:href="#SVGID_00000168093862232357946510000016624449813450151050_"  style="overflow:visible;"/>
			</clipPath>
			
				<rect x="111.6" y="60.8" style="clip-path:url(#SVGID_00000137822084271677988930000001642663112315018639_);fill:#1A1A1A;" width="4.7" height="97.3"/>
		</g>
	</g>
	<g>
		<g>
			<defs>
				<rect id="SVGID_00000170275561504761512300000007705342071515193023_" width="195.6" height="280.6"/>
			</defs>
			<clipPath id="SVGID_00000103947788887203544470000012994477192891923384_">
				<use xlink:href="#SVGID_00000170275561504761512300000007705342071515193023_"  style="overflow:visible;"/>
			</clipPath>
			
				<rect x="79.2" y="60.8" style="clip-path:url(#SVGID_00000103947788887203544470000012994477192891923384_);fill:#1A1A1A;" width="4.7" height="97.3"/>
		</g>
	</g>
	<g>
		<g>
			<defs>
				<rect id="SVGID_00000157277717059581965460000007888601183190158266_" width="195.6" height="280.6"/>
			</defs>
			<clipPath id="SVGID_00000165942833213472600480000005219841752872167584_">
				<use xlink:href="#SVGID_00000157277717059581965460000007888601183190158266_"  style="overflow:visible;"/>
			</clipPath>
			
				<rect x="49.2" y="123.3" style="clip-path:url(#SVGID_00000165942833213472600480000005219841752872167584_);fill:#1A1A1A;" width="97.3" height="4.7"/>
		</g>
	</g>
	<g>
		<g>
			<defs>
				<rect id="SVGID_00000105400684240072751380000011956444346966919318_" width="195.6" height="280.6"/>
			</defs>
			<clipPath id="SVGID_00000137093090793543691530000003360070412429554337_">
				<use xlink:href="#SVGID_00000105400684240072751380000011956444346966919318_"  style="overflow:visible;"/>
			</clipPath>
			
				<rect x="49.2" y="90.9" style="clip-path:url(#SVGID_00000137093090793543691530000003360070412429554337_);fill:#1A1A1A;" width="97.3" height="4.7"/>
		</g>
	</g>
	<g>
		<g>
			<defs>
				<rect id="SVGID_00000158730229696198906570000005772087525218985353_" width="195.6" height="280.6"/>
			</defs>
			<clipPath id="SVGID_00000154398967894209820530000002106891575352139430_">
				<use xlink:href="#SVGID_00000158730229696198906570000005772087525218985353_"  style="overflow:visible;"/>
			</clipPath>
			<path style="clip-path:url(#SVGID_00000154398967894209820530000002106891575352139430_);fill:#1A1A1A;" d="M46.8,58.5v52.7h4.7
				v-48h92.6v48h4.7V58.5H46.8z"/>
		</g>
	</g>
	<g>
		<g>
			<defs>
				<rect id="SVGID_00000095310985703726811270000005465936984686081931_" width="195.6" height="280.6"/>
			</defs>
			<clipPath id="SVGID_00000182493864989351024830000010362764501276513679_">
				<use xlink:href="#SVGID_00000095310985703726811270000005465936984686081931_"  style="overflow:visible;"/>
			</clipPath>
			<path style="clip-path:url(#SVGID_00000182493864989351024830000010362764501276513679_);fill:#FFFFFF;" d="M58,20.3
				c4.2,0,7.5,3.3,7.5,7.5l0,0v15.1c0,4.2-3.4,7.5-7.5,7.5s-7.5-3.4-7.5-7.5l0,0V27.8C50.5,23.7,53.9,20.3,58,20.3L58,20.3z"/>
		</g>
	</g>
	<g>
		<g>
			<defs>
				<rect id="SVGID_00000063626636374562465280000015191985817965816238_" width="195.6" height="280.6"/>
			</defs>
			<clipPath id="SVGID_00000147917097783822785250000017887450337897363091_">
				<use xlink:href="#SVGID_00000063626636374562465280000015191985817965816238_"  style="overflow:visible;"/>
			</clipPath>
			<path style="clip-path:url(#SVGID_00000147917097783822785250000017887450337897363091_);fill:#1A1A1A;" d="M48.2,33.7v9.2
				c0,5.5,4.4,9.9,9.9,9.9s9.9-4.4,9.9-9.9l0,0v-9.2h-4.7v9.2c0,2.9-2.3,5.2-5.2,5.2s-5.2-2.3-5.2-5.2l0,0v-9.2H48.2z"/>
		</g>
	</g>
	<g>
		<g>
			<defs>
				<rect id="SVGID_00000129207118272756646800000000673105324843419824_" width="195.6" height="280.6"/>
			</defs>
			<clipPath id="SVGID_00000098202871594552890110000005136705941483318702_">
				<use xlink:href="#SVGID_00000129207118272756646800000000673105324843419824_"  style="overflow:visible;"/>
			</clipPath>
			<path style="clip-path:url(#SVGID_00000098202871594552890110000005136705941483318702_);fill:#FFFFFF;" d="M137.5,20.3
				c4.2,0,7.5,3.3,7.5,7.5l0,0v15.1c0,4.2-3.4,7.5-7.5,7.5c-4.2,0-7.5-3.4-7.5-7.5l0,0V27.8C130,23.7,133.3,20.3,137.5,20.3
				L137.5,20.3L137.5,20.3z"/>
		</g>
	</g>
	<g>
		<g>
			<defs>
				<rect id="SVGID_00000106131058160810084930000010444737649573496254_" width="195.6" height="280.6"/>
			</defs>
			<clipPath id="SVGID_00000095340160005524323410000000526902660105561490_">
				<use xlink:href="#SVGID_00000106131058160810084930000010444737649573496254_"  style="overflow:visible;"/>
			</clipPath>
			<path style="clip-path:url(#SVGID_00000095340160005524323410000000526902660105561490_);fill:#1A1A1A;" d="M127.6,33.7v9.2
				c0,5.5,4.4,9.9,9.9,9.9s9.9-4.4,9.9-9.9v-9.2h-4.7v9.2c0,2.9-2.3,5.2-5.2,5.2s-5.2-2.3-5.2-5.2l0,0v-9.2H127.6z"/>
		</g>
	</g>
	<g>
		<g>
			<defs>
				<rect id="SVGID_00000018216653816157664620000006563790150646061996_" width="195.6" height="280.6"/>
			</defs>
			<clipPath id="SVGID_00000108283857671254845160000015191581644729905850_">
				<use xlink:href="#SVGID_00000018216653816157664620000006563790150646061996_"  style="overflow:visible;"/>
			</clipPath>
			<path style="clip-path:url(#SVGID_00000108283857671254845160000015191581644729905850_);fill:#1A1A1A;" d="M58,17.9
				c-5.5,0-9.9,4.4-9.9,9.9V37h4.7v-9.2c0-2.9,2.3-5.2,5.2-5.2s5.2,2.3,5.2,5.2l0,0V37H68v-9.2C68,22.4,63.6,17.9,58,17.9L58,17.9z"
				/>
		</g>
	</g>
	<g>
		<g>
			<defs>
				<rect id="SVGID_00000042694325394897086410000000363551646357035939_" width="195.6" height="280.6"/>
			</defs>
			<clipPath id="SVGID_00000089573881136533536460000004705113199434854068_">
				<use xlink:href="#SVGID_00000042694325394897086410000000363551646357035939_"  style="overflow:visible;"/>
			</clipPath>
			<path style="clip-path:url(#SVGID_00000089573881136533536460000004705113199434854068_);fill:#1A1A1A;" d="M137.5,17.9
				c-5.5,0-9.9,4.4-9.9,9.9V37h4.7v-9.2c0-2.9,2.3-5.2,5.2-5.2s5.2,2.3,5.2,5.2l0,0V37h4.7v-9.2C147.4,22.4,143,18,137.5,17.9z"/>
		</g>
	</g>
	<g>
		<g>
			<defs>
				<rect id="SVGID_00000113332032999416542310000016393434042570565278_" width="195.6" height="280.6"/>
			</defs>
			<clipPath id="SVGID_00000121251193692697437570000014674692328879540398_">
				<use xlink:href="#SVGID_00000113332032999416542310000016393434042570565278_"  style="overflow:visible;"/>
			</clipPath>
			<path style="clip-path:url(#SVGID_00000121251193692697437570000014674692328879540398_);fill:#EB5A53;" d="M45,0H16H0v16
				c0,7,0,14,0,21c10.3,12.3,28.6,14,41,3.7c6.7-5.5,10.5-13.8,10.5-22.4C51.5,11.6,49.2,5.2,45,0z"/>
		</g>
	</g>
	<g>
		<g>
			<defs>
				<rect id="SVGID_00000096049374687948938700000006418470268303086776_" width="195.6" height="280.6"/>
			</defs>
			<clipPath id="SVGID_00000079471717127519837080000010095783633327477435_">
				<use xlink:href="#SVGID_00000096049374687948938700000006418470268303086776_"  style="overflow:visible;"/>
			</clipPath>
		</g>
	</g>
</g>
<g class="st1">
	<path class="st28" d="M24.9,15.9v2.5H20v2.7c0.6-0.7,1.4-1.1,2.4-1.1c1.1,0,1.9,0.3,2.5,0.9s0.8,1.8,0.8,3.5v2.3
		c0,1.1-0.1,1.9-0.2,2.5s-0.3,1-0.7,1.5s-0.8,0.8-1.5,1s-1.4,0.4-2.3,0.4c-1,0-1.9-0.2-2.7-0.5s-1.3-0.9-1.7-1.6s-0.5-1.8-0.5-3.3
		v-0.9h3.9v1c0,1,0,1.7,0.1,2.2s0.3,0.6,0.7,0.6c0.2,0,0.4-0.1,0.5-0.2s0.2-0.3,0.2-0.4s0-0.8,0-1.9V24c0-0.6-0.1-1-0.2-1.2
		s-0.3-0.3-0.6-0.3c-0.2,0-0.3,0.1-0.5,0.2s-0.2,0.2-0.2,0.4s-0.1,0.4-0.1,0.9h-3.9l0.2-8H24.9z"/>
	<path class="st28" d="M34.4,22.8c0.6,0.2,1,0.5,1.3,1c0.3,0.5,0.4,1.5,0.4,3.2c0,1.3-0.1,2.2-0.4,2.9s-0.8,1.2-1.5,1.6
		s-1.6,0.5-2.7,0.5c-1.2,0-2.2-0.2-2.9-0.6s-1.2-0.9-1.4-1.5s-0.3-1.7-0.3-3.2v-1.2h3.9V28c0,0.7,0,1.1,0.1,1.3s0.3,0.3,0.5,0.3
		c0.3,0,0.5-0.1,0.6-0.4s0.1-0.8,0.1-1.8v-1.1c0-0.6-0.1-1-0.2-1.3s-0.3-0.5-0.6-0.6s-0.8-0.1-1.6-0.2V22c0.9,0,1.5,0,1.7-0.1
		s0.4-0.2,0.5-0.5s0.1-0.6,0.1-1.1v-0.9c0-0.6-0.1-0.9-0.2-1.1s-0.3-0.3-0.5-0.3c-0.3,0-0.5,0.1-0.6,0.3s-0.2,0.6-0.2,1.2v1.3h-3.9
		v-1.3c0-1.5,0.3-2.5,1-3.1s1.8-0.8,3.3-0.8c1.9,0,3.2,0.4,3.8,1.1s1,1.8,1,3.1c0,0.9-0.1,1.5-0.4,1.9S35,22.5,34.4,22.8z"/>
</g>
</svg>
