<?xml version="1.0" encoding="utf-8"?>
<!-- Generator: Adobe Illustrator 26.0.1, SVG Export Plug-In . SVG Version: 6.00 Build 0)  -->
<svg version="1.1" id="Слой_1" xmlns="http://www.w3.org/2000/svg" xmlns:xlink="http://www.w3.org/1999/xlink" x="0px" y="0px"
	 viewBox="0 0 195.6 280.6" style="enable-background:new 0 0 195.6 280.6;" xml:space="preserve">
<style type="text/css">
	.st0{clip-path:url(#SVGID_00000016797735478659768520000000320077585696489380_);fill:#C3185B;}
	.st1{enable-background:new    ;}
	.st2{fill:#FFFFFF;}
	.st3{clip-path:url(#SVGID_00000021816385679426092180000004535836768776132239_);fill:#1A1A1A;}
	.st4{clip-path:url(#SVGID_00000165942396904733208690000001762338417638404026_);fill:#1A1A1A;}
	.st5{clip-path:url(#SVGID_00000066489473771014266010000002312007213743963580_);fill:#1A1A1A;}
	.st6{clip-path:url(#SVGID_00000103228268868325084750000014030876646233084861_);fill:#1A1A1A;}
	.st7{clip-path:url(#SVGID_00000093895897720948518090000008518988193433478051_);fill:#1A1A1A;}
	.st8{clip-path:url(#SVGID_00000011742790075349189840000009531164051897273779_);fill:#1A1A1A;}
	.st9{clip-path:url(#SVGID_00000121239703732462950650000001016569727912077447_);fill:#DBE492;}
	.st10{clip-path:url(#SVGID_00000123428576050109249740000012531878502316111268_);fill:#FFFFFF;}
	.st11{clip-path:url(#SVGID_00000174589255249109240340000005146015140750303136_);fill:#FFFFFF;}
	.st12{clip-path:url(#SVGID_00000114794371659153942990000015840893541640519845_);fill:#EB5A53;}
	.st13{clip-path:url(#SVGID_00000098191039178917220880000002529256850239634051_);fill:#1A1A1A;}
	.st14{clip-path:url(#SVGID_00000045584295380445252250000013349932640806635686_);fill:#1A1A1A;}
	.st15{clip-path:url(#SVGID_00000047031386325527608710000009424115696160827523_);fill:#1A1A1A;}
	.st16{clip-path:url(#SVGID_00000072280330940564306670000003624288647465183655_);fill:#1A1A1A;}
	.st17{clip-path:url(#SVGID_00000026867515078379595520000004512863018940997547_);fill:#1A1A1A;}
	.st18{clip-path:url(#SVGID_00000007404417915170819130000011266504551605518720_);fill:#1A1A1A;}
	.st19{clip-path:url(#SVGID_00000072963228452393988460000011071004049594257036_);fill:#1A1A1A;}
	.st20{clip-path:url(#SVGID_00000113326808269522810590000012005984116672632464_);fill:#1A1A1A;}
	.st21{clip-path:url(#SVGID_00000017484473822073268310000014974008208093984172_);fill:#FFFFFF;}
	.st22{clip-path:url(#SVGID_00000131353731193160600140000017191049391812912780_);fill:#1A1A1A;}
	.st23{clip-path:url(#SVGID_00000137106385235933606270000014923038332125800350_);fill:#FFFFFF;}
	.st24{clip-path:url(#SVGID_00000178892711633665029130000014382006565867222679_);fill:#1A1A1A;}
	.st25{clip-path:url(#SVGID_00000145774976295457196250000015596146789212949929_);fill:#1A1A1A;}
	.st26{clip-path:url(#SVGID_00000070830629635024030300000015304859533878093965_);fill:#1A1A1A;}
	.st27{clip-path:url(#SVGID_00000139286459215583702110000003633452517945092500_);fill:#FFFFFF;}
	.st28{fill:#1A1A1A;}
</style>
<g>
	<g>
		<g>
			<defs>
				<rect id="SVGID_1_" y="0.7" width="195.6" height="280.6"/>
			</defs>
			<clipPath id="SVGID_00000084499221871896788540000013688267770086374583_">
				<use xlink:href="#SVGID_1_"  style="overflow:visible;"/>
			</clipPath>
			
				<rect x="-282.6" y="-1.1" style="clip-path:url(#SVGID_00000084499221871896788540000013688267770086374583_);fill:#C3185B;" width="493.6" height="290.5"/>
		</g>
	</g>
	<g class="st1">
		<path class="st2" d="M57.4,196.6h5.8c3.8,0,6.3,0.2,7.7,0.5c1.3,0.3,2.3,0.9,3,1.7s1.1,1.7,1.3,2.6c0.2,1,0.3,2.9,0.3,5.7v10.5
			c0,2.7-0.1,4.5-0.4,5.4s-0.7,1.6-1.3,2.1c-0.6,0.5-1.4,0.9-2.3,1.1c-0.9,0.2-2.3,0.3-4.2,0.3h-9.9V196.6z M65.2,201.7v19.8
			c1.1,0,1.8-0.2,2.1-0.7c0.3-0.5,0.4-1.7,0.4-3.7v-11.7c0-1.4,0-2.2-0.1-2.6c-0.1-0.4-0.3-0.7-0.6-0.8
			C66.6,201.8,66.1,201.7,65.2,201.7z"/>
		<path class="st2" d="M89.8,202v5.5l-5.5,14.2h5.5v4.9H77.1v-5.2l5.6-14.5h-5.1V202H89.8z"/>
		<path class="st2" d="M99.2,196.6v3.9h-7.7v-3.9H99.2z M99.2,202v24.6h-7.7V202H99.2z"/>
		<path class="st2" d="M118.9,214.7h-9.7v5.3c0,1.1,0.1,1.8,0.2,2.2c0.2,0.3,0.5,0.5,0.9,0.5c0.6,0,0.9-0.2,1.1-0.6
			c0.2-0.4,0.3-1.3,0.3-2.5v-3.2h7.1v1.8c0,1.5-0.1,2.7-0.3,3.5s-0.6,1.7-1.3,2.6s-1.6,1.6-2.7,2.1s-2.4,0.7-4.1,0.7
			c-1.6,0-3-0.2-4.2-0.7s-2.2-1.1-2.8-1.9c-0.7-0.8-1.1-1.7-1.4-2.6c-0.3-1-0.4-2.4-0.4-4.2v-7.2c0-2.2,0.3-3.9,0.9-5.1
			c0.6-1.2,1.5-2.2,2.9-2.9c1.3-0.7,2.8-1,4.6-1c2.1,0,3.8,0.4,5.2,1.2c1.4,0.8,2.3,1.9,2.9,3.2s0.8,3.2,0.8,5.6V214.7z
			 M111.4,210.7v-1.8c0-1.3-0.1-2.1-0.2-2.5s-0.4-0.6-0.8-0.6c-0.5,0-0.8,0.2-1,0.5c-0.1,0.3-0.2,1.2-0.2,2.6v1.8H111.4z"/>
		<path class="st2" d="M129,202l-0.1,2.3c0.5-0.9,1.2-1.6,2-2s1.7-0.7,2.7-0.7c1.3,0,2.3,0.3,3.2,0.9c0.8,0.6,1.3,1.4,1.6,2.3
			c0.2,0.9,0.4,2.5,0.4,4.6v17.3h-7.5v-17.1c0-1.7-0.1-2.7-0.2-3.1s-0.4-0.6-0.9-0.6s-0.9,0.2-1,0.6c-0.1,0.4-0.2,1.6-0.2,3.4v16.6
			h-7.5V202H129z M135.4,195.3l-6.1,5h-3.8l3.3-5H135.4z"/>
	</g>
	<g class="st1">
		<path class="st2" d="M67.5,232.6L63,246.2l4.9,16.5h-8.1l-3.2-12.9v12.9h-7.8v-30h7.8v11.7l3.5-11.7h7.4V232.6z"/>
		<path class="st2" d="M86.1,246.6v6c0,2.2-0.1,3.8-0.3,4.9c-0.2,1-0.7,2-1.4,2.9c-0.7,0.9-1.7,1.6-2.8,2c-1.1,0.4-2.5,0.6-3.9,0.6
			c-1.7,0-3.1-0.2-4.2-0.5c-1.2-0.4-2-0.9-2.7-1.7c-0.6-0.7-1.1-1.6-1.4-2.7c-0.3-1-0.4-2.6-0.4-4.7v-6.3c0-2.3,0.2-4.1,0.7-5.4
			c0.5-1.3,1.4-2.3,2.7-3.1c1.3-0.8,2.9-1.2,4.9-1.2c1.7,0,3.1,0.3,4.3,0.8c1.2,0.5,2.1,1.2,2.8,2c0.7,0.8,1.1,1.6,1.3,2.5
			S86.1,244.9,86.1,246.6z M78.6,244.8c0-1.3-0.1-2.1-0.2-2.4c-0.1-0.3-0.4-0.5-0.9-0.5s-0.7,0.2-0.9,0.5c-0.1,0.3-0.2,1.1-0.2,2.4
			v11.1c0,1.2,0.1,1.9,0.2,2.3s0.4,0.5,0.9,0.5c0.4,0,0.7-0.2,0.9-0.5c0.1-0.3,0.2-1,0.2-2.1V244.8z"/>
		<path class="st2" d="M96,232.6v7.1c0.6-0.7,1.3-1.3,2.1-1.6s1.6-0.5,2.5-0.5c1,0,1.9,0.2,2.7,0.5c0.8,0.3,1.3,0.8,1.7,1.4
			c0.4,0.6,0.6,1.2,0.7,1.7s0.1,1.7,0.1,3.6v11.1c0,1.8-0.1,3.2-0.4,4c-0.2,0.9-0.8,1.7-1.7,2.3c-0.9,0.7-1.9,1-3.2,1
			c-0.9,0-1.7-0.2-2.5-0.6s-1.5-1-2.1-1.7l-0.5,1.9h-7v-30H96V232.6z M98.3,245c0-1.3-0.1-2.1-0.2-2.5c-0.2-0.4-0.5-0.6-0.9-0.6
			c-0.5,0-0.8,0.2-0.9,0.5s-0.2,1.2-0.2,2.6v10.6c0,1.3,0.1,2.2,0.2,2.5c0.2,0.4,0.5,0.6,0.9,0.6c0.5,0,0.8-0.2,0.9-0.6
			s0.2-1.3,0.2-2.8V245z"/>
		<path class="st2" d="M116,232.6v3.9h-7.7v-3.9H116z M116,238v24.6h-7.7V238H116z"/>
		<path class="st2" d="M135.7,250.7H126v5.3c0,1.1,0.1,1.8,0.2,2.2c0.2,0.3,0.5,0.5,0.9,0.5c0.6,0,0.9-0.2,1.1-0.6s0.3-1.3,0.3-2.5
			v-3.2h7.1v1.8c0,1.5-0.1,2.7-0.3,3.5s-0.6,1.7-1.3,2.6s-1.6,1.6-2.7,2.1c-1.1,0.5-2.4,0.7-4.1,0.7c-1.6,0-3-0.2-4.2-0.7
			s-2.2-1.1-2.8-1.9c-0.7-0.8-1.1-1.7-1.4-2.6c-0.3-1-0.4-2.4-0.4-4.2v-7.2c0-2.2,0.3-3.9,0.9-5.1c0.6-1.2,1.5-2.2,2.9-2.9
			c1.3-0.7,2.8-1,4.6-1c2.1,0,3.8,0.4,5.2,1.2s2.3,1.9,2.9,3.2c0.6,1.3,0.8,3.2,0.8,5.6V250.7z M128.1,246.7v-1.8
			c0-1.3-0.1-2.1-0.2-2.5c-0.1-0.4-0.4-0.6-0.8-0.6c-0.5,0-0.8,0.2-1,0.5c-0.1,0.3-0.2,1.2-0.2,2.6v1.8H128.1z"/>
		<path class="st2" d="M146,234.7v3.9h2v3.9h-2v13.2c0,1.6,0.1,2.5,0.2,2.7s0.9,0.3,2.1,0.3v4h-3c-1.7,0-2.9-0.1-3.7-0.2
			c-0.7-0.1-1.4-0.5-1.9-1c-0.6-0.5-0.9-1.1-1-1.8c-0.1-0.7-0.2-2.2-0.2-4.7v-12.5h-1.6v-3.9h1.6v-3.9H146z"/>
	</g>
	<g>
		<g>
			<defs>
				<rect id="SVGID_00000122713879237275609400000012559703207371529088_" y="0.7" width="195.6" height="280.6"/>
			</defs>
			<clipPath id="SVGID_00000169545112595794095400000014311361528825069990_">
				<use xlink:href="#SVGID_00000122713879237275609400000012559703207371529088_"  style="overflow:visible;"/>
			</clipPath>
			<path style="clip-path:url(#SVGID_00000169545112595794095400000014311361528825069990_);fill:#1A1A1A;" d="M41.1,33.7v9.2
				c0,9.4,7.6,17,17,17s17-7.6,17-17l0,0v-9.2H41.1z"/>
		</g>
	</g>
	<g>
		<g>
			<defs>
				<rect id="SVGID_00000096758856178452029690000016941405191283669888_" y="0.7" width="195.6" height="280.6"/>
			</defs>
			<clipPath id="SVGID_00000113353459637850456190000001630709875887816616_">
				<use xlink:href="#SVGID_00000096758856178452029690000016941405191283669888_"  style="overflow:visible;"/>
			</clipPath>
			<path style="clip-path:url(#SVGID_00000113353459637850456190000001630709875887816616_);fill:#1A1A1A;" d="M120.6,33.7v9.2
				c0,9.4,7.6,17,17,17s17-7.6,17-17l0,0v-9.2H120.6z"/>
		</g>
	</g>
	<g>
		<g>
			<defs>
				<rect id="SVGID_00000014632822002147321200000010866782454249405336_" y="0.7" width="195.6" height="280.6"/>
			</defs>
			<clipPath id="SVGID_00000162354707266167883370000001823122271866614974_">
				<use xlink:href="#SVGID_00000014632822002147321200000010866782454249405336_"  style="overflow:visible;"/>
			</clipPath>
			<path style="clip-path:url(#SVGID_00000162354707266167883370000001823122271866614974_);fill:#1A1A1A;" d="M58,10.8
				c-9.4,0.1-16.9,7.6-17,17V37h34v-9.2C74.9,18.5,67.4,10.9,58,10.8L58,10.8z"/>
		</g>
	</g>
	<g>
		<g>
			<defs>
				<rect id="SVGID_00000132766323287115529190000000228951151501891980_" y="0.7" width="195.6" height="280.6"/>
			</defs>
			<clipPath id="SVGID_00000114791484389732291800000003171721616495235240_">
				<use xlink:href="#SVGID_00000132766323287115529190000000228951151501891980_"  style="overflow:visible;"/>
			</clipPath>
			<path style="clip-path:url(#SVGID_00000114791484389732291800000003171721616495235240_);fill:#1A1A1A;" d="M137.5,10.8
				c-9.4,0.1-16.9,7.6-17,17V37h34v-9.2C154.4,18.5,146.9,10.9,137.5,10.8z"/>
		</g>
	</g>
	<g>
		<g>
			<defs>
				<rect id="SVGID_00000004515492690498208040000016198250004553145993_" y="0.7" width="195.6" height="280.6"/>
			</defs>
			<clipPath id="SVGID_00000029039066545028430200000015195328054818336416_">
				<use xlink:href="#SVGID_00000004515492690498208040000016198250004553145993_"  style="overflow:visible;"/>
			</clipPath>
			<path style="clip-path:url(#SVGID_00000029039066545028430200000015195328054818336416_);fill:#1A1A1A;" d="M19.8,107.8v58.6
				c0.1,11.6,9.5,21,21.1,21.1h113.8c11.6-0.1,21-9.5,21.1-21.1v-58.6h-18.9v58.6c0.1,1.1-0.7,2.1-1.8,2.2c-0.2,0-0.3,0-0.5,0H40.9
				c-1.1,0.1-2.1-0.7-2.2-1.8c0-0.2,0-0.3,0-0.5v-58.6H19.8V107.8z"/>
		</g>
	</g>
	<g>
		<g>
			<defs>
				<rect id="SVGID_00000146482548506539254940000012097183657024529554_" y="0.7" width="195.6" height="280.6"/>
			</defs>
			<clipPath id="SVGID_00000010281493431790809600000003851568395026168213_">
				<use xlink:href="#SVGID_00000146482548506539254940000012097183657024529554_"  style="overflow:visible;"/>
			</clipPath>
			<path style="clip-path:url(#SVGID_00000010281493431790809600000003851568395026168213_);fill:#1A1A1A;" d="M40.9,31.5
				c-11.6,0.1-21,9.5-21.1,21.1v58.6h18.9V52.6c-0.1-1.1,0.7-2.1,1.8-2.2c0.2,0,0.3,0,0.5,0h113.8c1.1-0.1,2.1,0.7,2.2,1.8
				c0,0.2,0,0.3,0,0.5v58.6h18.9V52.6c-0.1-11.6-9.5-21-21.1-21.1C154.8,31.5,40.9,31.5,40.9,31.5z"/>
		</g>
	</g>
	<g>
		<g>
			<defs>
				<rect id="SVGID_00000021105108242508249350000006308667828304152209_" y="0.7" width="195.6" height="280.6"/>
			</defs>
			<clipPath id="SVGID_00000153675686697901699490000002616228725010943139_">
				<use xlink:href="#SVGID_00000021105108242508249350000006308667828304152209_"  style="overflow:visible;"/>
			</clipPath>
			<path style="clip-path:url(#SVGID_00000153675686697901699490000002616228725010943139_);fill:#DBE492;" d="M40.9,40.9h113.8
				c6.4,0,11.7,5.2,11.7,11.6c0,0,0,0,0,0.1v113.8c0,6.4-5.2,11.6-11.7,11.6l0,0H40.9c-6.4,0-11.7-5.2-11.7-11.6c0,0,0,0,0-0.1V52.6
				C29.2,46.2,34.4,40.9,40.9,40.9L40.9,40.9z"/>
		</g>
	</g>
	<g>
		<g>
			<defs>
				<rect id="SVGID_00000118363154111755053720000014049712389639589032_" y="0.7" width="195.6" height="280.6"/>
			</defs>
			<clipPath id="SVGID_00000014613852927794184910000015043292404077458587_">
				<use xlink:href="#SVGID_00000118363154111755053720000014049712389639589032_"  style="overflow:visible;"/>
			</clipPath>
			
				<rect x="49.2" y="60.8" style="clip-path:url(#SVGID_00000014613852927794184910000015043292404077458587_);fill:#FFFFFF;" width="97.3" height="32.7"/>
		</g>
	</g>
	<g>
		<g>
			<defs>
				<rect id="SVGID_00000172436447995355268910000000471331319032958106_" y="0.7" width="195.6" height="280.6"/>
			</defs>
			<clipPath id="SVGID_00000062177952674003065620000015135319087500257438_">
				<use xlink:href="#SVGID_00000172436447995355268910000000471331319032958106_"  style="overflow:visible;"/>
			</clipPath>
			
				<rect x="49.2" y="94.4" style="clip-path:url(#SVGID_00000062177952674003065620000015135319087500257438_);fill:#FFFFFF;" width="97.3" height="16.3"/>
		</g>
	</g>
	<g>
		<g>
			<defs>
				<rect id="SVGID_00000022522137299215918010000012278370606238398903_" y="0.7" width="195.6" height="280.6"/>
			</defs>
			<clipPath id="SVGID_00000145778837476915591380000012194868288440895365_">
				<use xlink:href="#SVGID_00000022522137299215918010000012278370606238398903_"  style="overflow:visible;"/>
			</clipPath>
			
				<rect x="49.2" y="110.8" style="clip-path:url(#SVGID_00000145778837476915591380000012194868288440895365_);fill:#EB5A53;" width="97.3" height="47.5"/>
		</g>
	</g>
	<g>
		<g>
			<defs>
				<rect id="SVGID_00000091730148122243513130000016382821364593292719_" y="0.7" width="195.6" height="280.6"/>
			</defs>
			<clipPath id="SVGID_00000058561309654204977100000010417991506174153862_">
				<use xlink:href="#SVGID_00000091730148122243513130000016382821364593292719_"  style="overflow:visible;"/>
			</clipPath>
			<path style="clip-path:url(#SVGID_00000058561309654204977100000010417991506174153862_);fill:#1A1A1A;" d="M26.9,107.8v58.6
				c0,7.7,6.3,14,14,14h113.8c7.7,0,14-6.3,14-14v-58.6H164v58.6c0,5.1-4.1,9.3-9.2,9.3h-0.1H40.9c-5.1,0-9.3-4.1-9.3-9.2v-0.1
				v-58.6C31.6,107.8,26.9,107.8,26.9,107.8z"/>
		</g>
	</g>
	<g>
		<g>
			<defs>
				<rect id="SVGID_00000149365782155666509460000011137492633547075971_" y="0.7" width="195.6" height="280.6"/>
			</defs>
			<clipPath id="SVGID_00000147182694194030246080000007018216882892445855_">
				<use xlink:href="#SVGID_00000149365782155666509460000011137492633547075971_"  style="overflow:visible;"/>
			</clipPath>
			<path style="clip-path:url(#SVGID_00000147182694194030246080000007018216882892445855_);fill:#1A1A1A;" d="M46.8,107.8v52.7h102
				v-52.7h-4.7v48H51.5v-48H46.8z"/>
		</g>
	</g>
	<g>
		<g>
			<defs>
				<rect id="SVGID_00000031204540730593364940000009422532056802017930_" y="0.7" width="195.6" height="280.6"/>
			</defs>
			<clipPath id="SVGID_00000107550008795172184600000008602738455130357633_">
				<use xlink:href="#SVGID_00000031204540730593364940000009422532056802017930_"  style="overflow:visible;"/>
			</clipPath>
			<path style="clip-path:url(#SVGID_00000107550008795172184600000008602738455130357633_);fill:#1A1A1A;" d="M40.9,38.6
				c-7.7,0-14,6.3-14,14v58.6h4.7V52.6c0-5.1,4.1-9.3,9.2-9.3h0.1h113.7c5.1,0,9.3,4,9.3,9.1c0,0.1,0,0.1,0,0.2v58.6h4.7V52.6
				c0-7.7-6.3-14-14-14H40.9z"/>
		</g>
	</g>
	<g>
		<g>
			<defs>
				<rect id="SVGID_00000034066299896306001390000016174929545890113418_" y="0.7" width="195.6" height="280.6"/>
			</defs>
			<clipPath id="SVGID_00000077299319749093895020000015673055005743628463_">
				<use xlink:href="#SVGID_00000034066299896306001390000016174929545890113418_"  style="overflow:visible;"/>
			</clipPath>
			
				<rect x="111.6" y="60.8" style="clip-path:url(#SVGID_00000077299319749093895020000015673055005743628463_);fill:#1A1A1A;" width="4.7" height="97.3"/>
		</g>
	</g>
	<g>
		<g>
			<defs>
				<rect id="SVGID_00000180334982225076823640000009330901657877248690_" y="0.7" width="195.6" height="280.6"/>
			</defs>
			<clipPath id="SVGID_00000021822693966338539830000007621609674593054087_">
				<use xlink:href="#SVGID_00000180334982225076823640000009330901657877248690_"  style="overflow:visible;"/>
			</clipPath>
			
				<rect x="79.2" y="60.8" style="clip-path:url(#SVGID_00000021822693966338539830000007621609674593054087_);fill:#1A1A1A;" width="4.7" height="97.3"/>
		</g>
	</g>
	<g>
		<g>
			<defs>
				<rect id="SVGID_00000151544997740019259240000011086341543189613463_" y="0.7" width="195.6" height="280.6"/>
			</defs>
			<clipPath id="SVGID_00000011023664875748599570000004058972906709453960_">
				<use xlink:href="#SVGID_00000151544997740019259240000011086341543189613463_"  style="overflow:visible;"/>
			</clipPath>
			
				<rect x="49.2" y="123.3" style="clip-path:url(#SVGID_00000011023664875748599570000004058972906709453960_);fill:#1A1A1A;" width="97.3" height="4.7"/>
		</g>
	</g>
	<g>
		<g>
			<defs>
				<rect id="SVGID_00000145746800359816024730000002093368253547276223_" y="0.7" width="195.6" height="280.6"/>
			</defs>
			<clipPath id="SVGID_00000041255463237157221300000013176571677654766237_">
				<use xlink:href="#SVGID_00000145746800359816024730000002093368253547276223_"  style="overflow:visible;"/>
			</clipPath>
			
				<rect x="49.2" y="90.9" style="clip-path:url(#SVGID_00000041255463237157221300000013176571677654766237_);fill:#1A1A1A;" width="97.3" height="4.7"/>
		</g>
	</g>
	<g>
		<g>
			<defs>
				<rect id="SVGID_00000139281603085059777080000014745513789758601916_" y="0.7" width="195.6" height="280.6"/>
			</defs>
			<clipPath id="SVGID_00000139991051471720756510000013672918551620114584_">
				<use xlink:href="#SVGID_00000139281603085059777080000014745513789758601916_"  style="overflow:visible;"/>
			</clipPath>
			<path style="clip-path:url(#SVGID_00000139991051471720756510000013672918551620114584_);fill:#1A1A1A;" d="M46.8,58.5v52.7h4.7
				v-48h92.6v48h4.7V58.5H46.8z"/>
		</g>
	</g>
	<g>
		<g>
			<defs>
				<rect id="SVGID_00000038398544742437688190000003319343720913792178_" y="0.7" width="195.6" height="280.6"/>
			</defs>
			<clipPath id="SVGID_00000010278201166370059550000013209742537255163833_">
				<use xlink:href="#SVGID_00000038398544742437688190000003319343720913792178_"  style="overflow:visible;"/>
			</clipPath>
			<path style="clip-path:url(#SVGID_00000010278201166370059550000013209742537255163833_);fill:#FFFFFF;" d="M58,20.3
				c4.2,0,7.5,3.3,7.5,7.5l0,0v15.1c0,4.2-3.4,7.5-7.5,7.5s-7.5-3.4-7.5-7.5l0,0V27.8C50.5,23.7,53.9,20.3,58,20.3L58,20.3z"/>
		</g>
	</g>
	<g>
		<g>
			<defs>
				<rect id="SVGID_00000113338636238244754980000008630194393886827431_" y="0.7" width="195.6" height="280.6"/>
			</defs>
			<clipPath id="SVGID_00000166673371929009901700000016742090305399542955_">
				<use xlink:href="#SVGID_00000113338636238244754980000008630194393886827431_"  style="overflow:visible;"/>
			</clipPath>
			<path style="clip-path:url(#SVGID_00000166673371929009901700000016742090305399542955_);fill:#1A1A1A;" d="M48.2,33.7v9.2
				c0,5.5,4.4,9.9,9.9,9.9s9.9-4.4,9.9-9.9l0,0v-9.2h-4.7v9.2c0,2.9-2.3,5.2-5.2,5.2s-5.2-2.3-5.2-5.2l0,0v-9.2H48.2z"/>
		</g>
	</g>
	<g>
		<g>
			<defs>
				<rect id="SVGID_00000145020934593368832720000013560885266641104819_" y="0.7" width="195.6" height="280.6"/>
			</defs>
			<clipPath id="SVGID_00000022549040729857639640000000805073282191471018_">
				<use xlink:href="#SVGID_00000145020934593368832720000013560885266641104819_"  style="overflow:visible;"/>
			</clipPath>
			<path style="clip-path:url(#SVGID_00000022549040729857639640000000805073282191471018_);fill:#FFFFFF;" d="M137.5,20.3
				c4.2,0,7.5,3.3,7.5,7.5l0,0v15.1c0,4.2-3.4,7.5-7.5,7.5c-4.2,0-7.5-3.4-7.5-7.5l0,0V27.8C130,23.7,133.3,20.3,137.5,20.3
				L137.5,20.3L137.5,20.3z"/>
		</g>
	</g>
	<g>
		<g>
			<defs>
				<rect id="SVGID_00000164509967130812889270000007713331795250677422_" y="0.7" width="195.6" height="280.6"/>
			</defs>
			<clipPath id="SVGID_00000026135180544679201050000008072319434608945824_">
				<use xlink:href="#SVGID_00000164509967130812889270000007713331795250677422_"  style="overflow:visible;"/>
			</clipPath>
			<path style="clip-path:url(#SVGID_00000026135180544679201050000008072319434608945824_);fill:#1A1A1A;" d="M127.6,33.7v9.2
				c0,5.5,4.4,9.9,9.9,9.9s9.9-4.4,9.9-9.9v-9.2h-4.7v9.2c0,2.9-2.3,5.2-5.2,5.2s-5.2-2.3-5.2-5.2l0,0v-9.2H127.6z"/>
		</g>
	</g>
	<g>
		<g>
			<defs>
				<rect id="SVGID_00000043449472700466420800000011195763762861752732_" y="0.7" width="195.6" height="280.6"/>
			</defs>
			<clipPath id="SVGID_00000149361673432271844110000013230653977467996599_">
				<use xlink:href="#SVGID_00000043449472700466420800000011195763762861752732_"  style="overflow:visible;"/>
			</clipPath>
			<path style="clip-path:url(#SVGID_00000149361673432271844110000013230653977467996599_);fill:#1A1A1A;" d="M58,17.9
				c-5.5,0-9.9,4.4-9.9,9.9V37h4.7v-9.2c0-2.9,2.3-5.2,5.2-5.2s5.2,2.3,5.2,5.2l0,0V37H68v-9.2C68,22.4,63.6,17.9,58,17.9L58,17.9z"
				/>
		</g>
	</g>
	<g>
		<g>
			<defs>
				<rect id="SVGID_00000111893584027200450800000016174678077067488676_" y="0.7" width="195.6" height="280.6"/>
			</defs>
			<clipPath id="SVGID_00000160149725662072906820000007915099302153679510_">
				<use xlink:href="#SVGID_00000111893584027200450800000016174678077067488676_"  style="overflow:visible;"/>
			</clipPath>
			<path style="clip-path:url(#SVGID_00000160149725662072906820000007915099302153679510_);fill:#1A1A1A;" d="M137.5,17.9
				c-5.5,0-9.9,4.4-9.9,9.9V37h4.7v-9.2c0-2.9,2.3-5.2,5.2-5.2s5.2,2.3,5.2,5.2l0,0V37h4.7v-9.2C147.4,22.4,143,18,137.5,17.9z"/>
		</g>
	</g>
	<g>
		<g>
			<defs>
				<rect id="SVGID_00000013914729290355401890000016606200511967661466_" y="0.7" width="195.6" height="280.6"/>
			</defs>
			<clipPath id="SVGID_00000030473976985017840330000003752475345201538985_">
				<use xlink:href="#SVGID_00000013914729290355401890000016606200511967661466_"  style="overflow:visible;"/>
			</clipPath>
			<path style="clip-path:url(#SVGID_00000030473976985017840330000003752475345201538985_);fill:#FFFFFF;" d="M45-0.1L16,0
				C10.7,0,5.4,0,0,0v16c0,7,0,14,0,21c10.2,12.4,28.6,14.2,41,4S55.2,12.4,45-0.1z"/>
		</g>
	</g>
	<g>
		<g>
			<defs>
				<rect id="SVGID_00000127019855020382506680000007087355137658223806_" y="0.7" width="195.6" height="280.6"/>
			</defs>
			<clipPath id="SVGID_00000054976647506778328340000015666795937026886823_">
				<use xlink:href="#SVGID_00000127019855020382506680000007087355137658223806_"  style="overflow:visible;"/>
			</clipPath>
		</g>
	</g>
</g>
<g class="st1">
	<path class="st28" d="M24.9,15.9v2.5H20v2.7c0.6-0.7,1.4-1.1,2.4-1.1c1.1,0,1.9,0.3,2.5,0.9s0.8,1.8,0.8,3.5v2.3
		c0,1.1-0.1,1.9-0.2,2.5s-0.3,1-0.7,1.5s-0.8,0.8-1.5,1S22,32,21.1,32c-1,0-1.9-0.2-2.7-0.5s-1.3-0.9-1.7-1.6s-0.5-1.8-0.5-3.3v-0.9
		h3.9v1c0,1,0,1.7,0.1,2.2s0.3,0.6,0.7,0.6c0.2,0,0.4-0.1,0.5-0.2s0.2-0.3,0.2-0.4s0-0.8,0-1.9V24c0-0.6-0.1-1-0.2-1.2
		s-0.3-0.3-0.6-0.3c-0.2,0-0.3,0.1-0.5,0.2s-0.2,0.2-0.2,0.4s-0.1,0.4-0.1,0.9h-3.9l0.2-8H24.9z"/>
	<path class="st28" d="M35.1,15.9v10.3h1.1v2.7h-1.1v2.8h-3.9v-2.8h-4.7v-2.7l3.4-10.3H35.1z M31.2,26.2v-6.7l-1.7,6.7H31.2z"/>
</g>
</svg>
