<?xml version="1.0" encoding="utf-8"?>
<!-- Generator: Adobe Illustrator 26.0.1, SVG Export Plug-In . SVG Version: 6.00 Build 0)  -->
<svg version="1.1" id="Слой_1" xmlns="http://www.w3.org/2000/svg" xmlns:xlink="http://www.w3.org/1999/xlink" x="0px" y="0px"
	 viewBox="0 0 195.6 280.6" style="enable-background:new 0 0 195.6 280.6;" xml:space="preserve">
<style type="text/css">
	.st0{clip-path:url(#SVGID_00000006669599630279943590000011653033207287261092_);fill:#C3185B;}
	.st1{enable-background:new    ;}
	.st2{fill:#FFFFFF;}
	.st3{clip-path:url(#SVGID_00000175290842953406193130000014571198618162306445_);fill:#1A1A1A;}
	.st4{clip-path:url(#SVGID_00000106113018676313289250000014038734427669347767_);fill:#1A1A1A;}
	.st5{clip-path:url(#SVGID_00000055696386714122288790000014240509286069993114_);fill:#1A1A1A;}
	.st6{clip-path:url(#SVGID_00000085958355193234427650000017169527741000504254_);fill:#1A1A1A;}
	.st7{clip-path:url(#SVGID_00000126286703071001928200000004861492392485526967_);fill:#1A1A1A;}
	.st8{clip-path:url(#SVGID_00000009567833518621905550000017009951761116509885_);fill:#1A1A1A;}
	.st9{clip-path:url(#SVGID_00000005236001721689676000000009652549954710432660_);fill:#DBE492;}
	.st10{clip-path:url(#SVGID_00000084531737057890241450000008349886409496188603_);fill:#FFFFFF;}
	.st11{clip-path:url(#SVGID_00000049941740580721217400000001035192055742711964_);fill:#EB5A53;}
	.st12{clip-path:url(#SVGID_00000120541245896221150250000010363377527713996444_);fill:#FFFFFF;}
	.st13{clip-path:url(#SVGID_00000096027037005877577230000014269789629697292215_);fill:#1A1A1A;}
	.st14{clip-path:url(#SVGID_00000008859539017031502090000007102702159816333500_);fill:#1A1A1A;}
	.st15{clip-path:url(#SVGID_00000071531164569018342440000004135378250908798858_);fill:#1A1A1A;}
	.st16{clip-path:url(#SVGID_00000127727808772026815180000000189709877763223197_);fill:#1A1A1A;}
	.st17{clip-path:url(#SVGID_00000097472719922668176710000014301872473768233135_);fill:#1A1A1A;}
	.st18{clip-path:url(#SVGID_00000132079867447833896870000005896339386671350711_);fill:#1A1A1A;}
	.st19{clip-path:url(#SVGID_00000047046367070750546010000012112714799150686897_);fill:#1A1A1A;}
	.st20{clip-path:url(#SVGID_00000027567797874482577450000002147852152601090954_);fill:#1A1A1A;}
	.st21{clip-path:url(#SVGID_00000075876758646850904090000004917890988603121564_);fill:#FFFFFF;}
	.st22{clip-path:url(#SVGID_00000051343183553102804150000018137431871842823078_);fill:#1A1A1A;}
	.st23{clip-path:url(#SVGID_00000096756886329415593940000007341231439926626476_);fill:#FFFFFF;}
	.st24{clip-path:url(#SVGID_00000043456997591350819530000003806646943333902751_);fill:#1A1A1A;}
	.st25{clip-path:url(#SVGID_00000045612047685540439320000013399517204760998786_);fill:#1A1A1A;}
	.st26{clip-path:url(#SVGID_00000155104214850829497060000006450834592656488871_);fill:#1A1A1A;}
	.st27{clip-path:url(#SVGID_00000039132743970253798120000004426985757236823726_);fill:#FFFFFF;}
	.st28{fill:#1A1A1A;}
</style>
<g>
	<g>
		<g>
			<defs>
				<rect id="SVGID_1_" width="195.6" height="280.6"/>
			</defs>
			<clipPath id="SVGID_00000031205257894925474900000013383794522022211497_">
				<use xlink:href="#SVGID_1_"  style="overflow:visible;"/>
			</clipPath>
			
				<rect x="-15.4" y="-1.1" style="clip-path:url(#SVGID_00000031205257894925474900000013383794522022211497_);fill:#C3185B;" width="493.6" height="290.5"/>
		</g>
	</g>
	<g class="st1">
		<path class="st2" d="M57.4,196.6h5.8c3.8,0,6.3,0.2,7.7,0.5c1.3,0.3,2.3,0.9,3,1.7s1.1,1.7,1.3,2.6c0.2,1,0.3,2.9,0.3,5.7v10.5
			c0,2.7-0.1,4.5-0.4,5.4s-0.7,1.6-1.3,2.1c-0.6,0.5-1.4,0.9-2.3,1.1c-0.9,0.2-2.3,0.3-4.2,0.3h-9.9V196.6z M65.2,201.7v19.8
			c1.1,0,1.8-0.2,2.1-0.7c0.3-0.5,0.4-1.7,0.4-3.7v-11.7c0-1.4,0-2.2-0.1-2.6c-0.1-0.4-0.3-0.7-0.6-0.8
			C66.6,201.8,66.1,201.7,65.2,201.7z"/>
		<path class="st2" d="M89.8,202v5.5l-5.5,14.2h5.5v4.9H77.1v-5.2l5.6-14.5h-5.1V202H89.8z"/>
		<path class="st2" d="M99.2,196.6v3.9h-7.7v-3.9H99.2z M99.2,202v24.6h-7.7V202H99.2z"/>
		<path class="st2" d="M118.9,214.7h-9.7v5.3c0,1.1,0.1,1.8,0.2,2.2c0.2,0.3,0.5,0.5,0.9,0.5c0.6,0,0.9-0.2,1.1-0.6
			c0.2-0.4,0.3-1.3,0.3-2.5v-3.2h7.1v1.8c0,1.5-0.1,2.7-0.3,3.5s-0.6,1.7-1.3,2.6s-1.6,1.6-2.7,2.1s-2.4,0.7-4.1,0.7
			c-1.6,0-3-0.2-4.2-0.7s-2.2-1.1-2.8-1.9c-0.7-0.8-1.1-1.7-1.4-2.6c-0.3-1-0.4-2.4-0.4-4.2v-7.2c0-2.2,0.3-3.9,0.9-5.1
			c0.6-1.2,1.5-2.2,2.9-2.9c1.3-0.7,2.8-1,4.6-1c2.1,0,3.8,0.4,5.2,1.2c1.4,0.8,2.3,1.9,2.9,3.2s0.8,3.2,0.8,5.6V214.7z
			 M111.4,210.7v-1.8c0-1.3-0.1-2.1-0.2-2.5s-0.4-0.6-0.8-0.6c-0.5,0-0.8,0.2-1,0.5c-0.1,0.3-0.2,1.2-0.2,2.6v1.8H111.4z"/>
		<path class="st2" d="M129,202l-0.1,2.3c0.5-0.9,1.2-1.6,2-2s1.7-0.7,2.7-0.7c1.3,0,2.3,0.3,3.2,0.9c0.8,0.6,1.3,1.4,1.6,2.3
			c0.2,0.9,0.4,2.5,0.4,4.6v17.3h-7.5v-17.1c0-1.7-0.1-2.7-0.2-3.1s-0.4-0.6-0.9-0.6s-0.9,0.2-1,0.6c-0.1,0.4-0.2,1.6-0.2,3.4v16.6
			h-7.5V202H129z M135.4,195.3l-6.1,5h-3.8l3.3-5H135.4z"/>
	</g>
	<g class="st1">
		<path class="st2" d="M67.5,232.6L63,246.2l4.9,16.5h-8.1l-3.2-12.9v12.9h-7.8v-30h7.8v11.7l3.5-11.7h7.4V232.6z"/>
		<path class="st2" d="M86.1,246.6v6c0,2.2-0.1,3.8-0.3,4.9c-0.2,1-0.7,2-1.4,2.9c-0.7,0.9-1.7,1.6-2.8,2c-1.1,0.4-2.5,0.6-3.9,0.6
			c-1.7,0-3.1-0.2-4.2-0.5c-1.2-0.4-2-0.9-2.7-1.7c-0.6-0.7-1.1-1.6-1.4-2.7c-0.3-1-0.4-2.6-0.4-4.7v-6.3c0-2.3,0.2-4.1,0.7-5.4
			c0.5-1.3,1.4-2.3,2.7-3.1c1.3-0.8,2.9-1.2,4.9-1.2c1.7,0,3.1,0.3,4.3,0.8c1.2,0.5,2.1,1.2,2.8,2c0.7,0.8,1.1,1.6,1.3,2.5
			S86.1,244.9,86.1,246.6z M78.6,244.8c0-1.3-0.1-2.1-0.2-2.4c-0.1-0.3-0.4-0.5-0.9-0.5s-0.7,0.2-0.9,0.5c-0.1,0.3-0.2,1.1-0.2,2.4
			v11.1c0,1.2,0.1,1.9,0.2,2.3s0.4,0.5,0.9,0.5c0.4,0,0.7-0.2,0.9-0.5c0.1-0.3,0.2-1,0.2-2.1V244.8z"/>
		<path class="st2" d="M96,232.6v7.1c0.6-0.7,1.3-1.3,2.1-1.6s1.6-0.5,2.5-0.5c1,0,1.9,0.2,2.7,0.5c0.8,0.3,1.3,0.8,1.7,1.4
			c0.4,0.6,0.6,1.2,0.7,1.7s0.1,1.7,0.1,3.6v11.1c0,1.8-0.1,3.2-0.4,4c-0.2,0.9-0.8,1.7-1.7,2.3c-0.9,0.7-1.9,1-3.2,1
			c-0.9,0-1.7-0.2-2.5-0.6s-1.5-1-2.1-1.7l-0.5,1.9h-7v-30H96V232.6z M98.3,245c0-1.3-0.1-2.1-0.2-2.5c-0.2-0.4-0.5-0.6-0.9-0.6
			c-0.5,0-0.8,0.2-0.9,0.5s-0.2,1.2-0.2,2.6v10.6c0,1.3,0.1,2.2,0.2,2.5c0.2,0.4,0.5,0.6,0.9,0.6c0.5,0,0.8-0.2,0.9-0.6
			s0.2-1.3,0.2-2.8V245z"/>
		<path class="st2" d="M116,232.6v3.9h-7.7v-3.9H116z M116,238v24.6h-7.7V238H116z"/>
		<path class="st2" d="M135.7,250.7H126v5.3c0,1.1,0.1,1.8,0.2,2.2c0.2,0.3,0.5,0.5,0.9,0.5c0.6,0,0.9-0.2,1.1-0.6s0.3-1.3,0.3-2.5
			v-3.2h7.1v1.8c0,1.5-0.1,2.7-0.3,3.5s-0.6,1.7-1.3,2.6s-1.6,1.6-2.7,2.1c-1.1,0.5-2.4,0.7-4.1,0.7c-1.6,0-3-0.2-4.2-0.7
			s-2.2-1.1-2.8-1.9c-0.7-0.8-1.1-1.7-1.4-2.6c-0.3-1-0.4-2.4-0.4-4.2v-7.2c0-2.2,0.3-3.9,0.9-5.1c0.6-1.2,1.5-2.2,2.9-2.9
			c1.3-0.7,2.8-1,4.6-1c2.1,0,3.8,0.4,5.2,1.2s2.3,1.9,2.9,3.2c0.6,1.3,0.8,3.2,0.8,5.6V250.7z M128.1,246.7v-1.8
			c0-1.3-0.1-2.1-0.2-2.5c-0.1-0.4-0.4-0.6-0.8-0.6c-0.5,0-0.8,0.2-1,0.5c-0.1,0.3-0.2,1.2-0.2,2.6v1.8H128.1z"/>
		<path class="st2" d="M146,234.7v3.9h2v3.9h-2v13.2c0,1.6,0.1,2.5,0.2,2.7s0.9,0.3,2.1,0.3v4h-3c-1.7,0-2.9-0.1-3.7-0.2
			c-0.7-0.1-1.4-0.5-1.9-1c-0.6-0.5-0.9-1.1-1-1.8c-0.1-0.7-0.2-2.2-0.2-4.7v-12.5h-1.6v-3.9h1.6v-3.9H146z"/>
	</g>
	<g>
		<g>
			<defs>
				<rect id="SVGID_00000163774816206185245550000003640625890420558762_" width="195.6" height="280.6"/>
			</defs>
			<clipPath id="SVGID_00000158011035000776039030000011523767653318898869_">
				<use xlink:href="#SVGID_00000163774816206185245550000003640625890420558762_"  style="overflow:visible;"/>
			</clipPath>
			<path style="clip-path:url(#SVGID_00000158011035000776039030000011523767653318898869_);fill:#1A1A1A;" d="M41.1,33.7v9.2
				c0,9.4,7.6,17,17,17s17-7.6,17-17l0,0v-9.2H41.1z"/>
		</g>
	</g>
	<g>
		<g>
			<defs>
				<rect id="SVGID_00000007411673565211129140000007979761183063985319_" width="195.6" height="280.6"/>
			</defs>
			<clipPath id="SVGID_00000134964244286770958580000008804589594305832380_">
				<use xlink:href="#SVGID_00000007411673565211129140000007979761183063985319_"  style="overflow:visible;"/>
			</clipPath>
			<path style="clip-path:url(#SVGID_00000134964244286770958580000008804589594305832380_);fill:#1A1A1A;" d="M120.6,33.7v9.2
				c0,9.4,7.6,17,17,17s17-7.6,17-17l0,0v-9.2H120.6z"/>
		</g>
	</g>
	<g>
		<g>
			<defs>
				<rect id="SVGID_00000162323589085129739940000016325338132230144955_" width="195.6" height="280.6"/>
			</defs>
			<clipPath id="SVGID_00000026131016220531526590000003337407444199191431_">
				<use xlink:href="#SVGID_00000162323589085129739940000016325338132230144955_"  style="overflow:visible;"/>
			</clipPath>
			<path style="clip-path:url(#SVGID_00000026131016220531526590000003337407444199191431_);fill:#1A1A1A;" d="M58,10.8
				c-9.4,0.1-16.9,7.6-17,17V37h34v-9.2C74.9,18.5,67.4,10.9,58,10.8L58,10.8z"/>
		</g>
	</g>
	<g>
		<g>
			<defs>
				<rect id="SVGID_00000031206844275628221000000008065661401702568080_" width="195.6" height="280.6"/>
			</defs>
			<clipPath id="SVGID_00000083803983882326809980000006878579992648129968_">
				<use xlink:href="#SVGID_00000031206844275628221000000008065661401702568080_"  style="overflow:visible;"/>
			</clipPath>
			<path style="clip-path:url(#SVGID_00000083803983882326809980000006878579992648129968_);fill:#1A1A1A;" d="M137.5,10.8
				c-9.4,0.1-16.9,7.6-17,17V37h34v-9.2C154.4,18.5,146.9,10.9,137.5,10.8z"/>
		</g>
	</g>
	<g>
		<g>
			<defs>
				<rect id="SVGID_00000004509449325061903230000003051218151807787668_" width="195.6" height="280.6"/>
			</defs>
			<clipPath id="SVGID_00000147180687672315508200000015343692589770718896_">
				<use xlink:href="#SVGID_00000004509449325061903230000003051218151807787668_"  style="overflow:visible;"/>
			</clipPath>
			<path style="clip-path:url(#SVGID_00000147180687672315508200000015343692589770718896_);fill:#1A1A1A;" d="M19.8,107.8v58.6
				c0.1,11.6,9.5,21,21.1,21.1h113.8c11.6-0.1,21-9.5,21.1-21.1v-58.6h-18.9v58.6c0.1,1.1-0.7,2.1-1.8,2.2c-0.2,0-0.3,0-0.5,0H40.9
				c-1.1,0.1-2.1-0.7-2.2-1.8c0-0.2,0-0.3,0-0.5v-58.6H19.8V107.8z"/>
		</g>
	</g>
	<g>
		<g>
			<defs>
				<rect id="SVGID_00000161633883707210845540000006474962517991485576_" width="195.6" height="280.6"/>
			</defs>
			<clipPath id="SVGID_00000134231009957008676790000002115401807596945281_">
				<use xlink:href="#SVGID_00000161633883707210845540000006474962517991485576_"  style="overflow:visible;"/>
			</clipPath>
			<path style="clip-path:url(#SVGID_00000134231009957008676790000002115401807596945281_);fill:#1A1A1A;" d="M40.9,31.5
				c-11.6,0.1-21,9.5-21.1,21.1v58.6h18.9V52.6c-0.1-1.1,0.7-2.1,1.8-2.2c0.2,0,0.3,0,0.5,0h113.8c1.1-0.1,2.1,0.7,2.2,1.8
				c0,0.2,0,0.3,0,0.5v58.6h18.9V52.6c-0.1-11.6-9.5-21-21.1-21.1C154.8,31.5,40.9,31.5,40.9,31.5z"/>
		</g>
	</g>
	<g>
		<g>
			<defs>
				<rect id="SVGID_00000014632651831656304560000000739940893141431685_" width="195.6" height="280.6"/>
			</defs>
			<clipPath id="SVGID_00000149373764942724320190000007012069554894662030_">
				<use xlink:href="#SVGID_00000014632651831656304560000000739940893141431685_"  style="overflow:visible;"/>
			</clipPath>
			<path style="clip-path:url(#SVGID_00000149373764942724320190000007012069554894662030_);fill:#DBE492;" d="M40.9,40.9h113.8
				c6.4,0,11.7,5.2,11.7,11.6c0,0,0,0,0,0.1v113.8c0,6.4-5.2,11.6-11.7,11.6l0,0H40.9c-6.4,0-11.7-5.2-11.7-11.6c0,0,0,0,0-0.1V52.6
				C29.2,46.2,34.4,40.9,40.9,40.9L40.9,40.9z"/>
		</g>
	</g>
	<g>
		<g>
			<defs>
				<rect id="SVGID_00000055690966362080402720000005900880567564951697_" width="195.6" height="280.6"/>
			</defs>
			<clipPath id="SVGID_00000090294592708660356600000011461987094499115412_">
				<use xlink:href="#SVGID_00000055690966362080402720000005900880567564951697_"  style="overflow:visible;"/>
			</clipPath>
			
				<rect x="49.2" y="60.8" style="clip-path:url(#SVGID_00000090294592708660356600000011461987094499115412_);fill:#FFFFFF;" width="97.3" height="32.7"/>
		</g>
	</g>
	<g>
		<g>
			<defs>
				<rect id="SVGID_00000125567960503367601020000001038356136108278681_" width="195.6" height="280.6"/>
			</defs>
			<clipPath id="SVGID_00000142888964429821694530000005427245914794597289_">
				<use xlink:href="#SVGID_00000125567960503367601020000001038356136108278681_"  style="overflow:visible;"/>
			</clipPath>
			
				<rect x="49.2" y="94.4" style="clip-path:url(#SVGID_00000142888964429821694530000005427245914794597289_);fill:#EB5A53;" width="97.3" height="32.7"/>
		</g>
	</g>
	<g>
		<g>
			<defs>
				<rect id="SVGID_00000176042884363675657120000017594506462157153429_" width="195.6" height="280.6"/>
			</defs>
			<clipPath id="SVGID_00000134947052655107959460000008982473203073163914_">
				<use xlink:href="#SVGID_00000176042884363675657120000017594506462157153429_"  style="overflow:visible;"/>
			</clipPath>
			
				<rect x="49.2" y="125.6" style="clip-path:url(#SVGID_00000134947052655107959460000008982473203073163914_);fill:#FFFFFF;" width="97.3" height="32.7"/>
		</g>
	</g>
	<g>
		<g>
			<defs>
				<rect id="SVGID_00000052090419519533189670000014092275053542644363_" width="195.6" height="280.6"/>
			</defs>
			<clipPath id="SVGID_00000156588700739850237540000012930476863747733392_">
				<use xlink:href="#SVGID_00000052090419519533189670000014092275053542644363_"  style="overflow:visible;"/>
			</clipPath>
			<path style="clip-path:url(#SVGID_00000156588700739850237540000012930476863747733392_);fill:#1A1A1A;" d="M26.9,107.8v58.6
				c0,7.7,6.3,14,14,14h113.8c7.7,0,14-6.3,14-14v-58.6H164v58.6c0,5.1-4.1,9.3-9.2,9.3h-0.1H40.9c-5.1,0-9.3-4.1-9.3-9.2v-0.1
				v-58.6C31.6,107.8,26.9,107.8,26.9,107.8z"/>
		</g>
	</g>
	<g>
		<g>
			<defs>
				<rect id="SVGID_00000091709058434631409850000014183123937058010542_" width="195.6" height="280.6"/>
			</defs>
			<clipPath id="SVGID_00000163064534029138561600000014837065844375872945_">
				<use xlink:href="#SVGID_00000091709058434631409850000014183123937058010542_"  style="overflow:visible;"/>
			</clipPath>
			<path style="clip-path:url(#SVGID_00000163064534029138561600000014837065844375872945_);fill:#1A1A1A;" d="M46.8,107.8v52.7h102
				v-52.7h-4.7v48H51.5v-48H46.8z"/>
		</g>
	</g>
	<g>
		<g>
			<defs>
				<rect id="SVGID_00000043433239546038657540000008250974003613947815_" width="195.6" height="280.6"/>
			</defs>
			<clipPath id="SVGID_00000013893949341245204780000011705956304036761505_">
				<use xlink:href="#SVGID_00000043433239546038657540000008250974003613947815_"  style="overflow:visible;"/>
			</clipPath>
			<path style="clip-path:url(#SVGID_00000013893949341245204780000011705956304036761505_);fill:#1A1A1A;" d="M40.9,38.6
				c-7.7,0-14,6.3-14,14v58.6h4.7V52.6c0-5.1,4.1-9.3,9.2-9.3h0.1h113.7c5.1,0,9.3,4,9.3,9.1c0,0.1,0,0.1,0,0.2v58.6h4.7V52.6
				c0-7.7-6.3-14-14-14H40.9z"/>
		</g>
	</g>
	<g>
		<g>
			<defs>
				<rect id="SVGID_00000108996045427702608360000008655686728510463400_" width="195.6" height="280.6"/>
			</defs>
			<clipPath id="SVGID_00000111192795246695258870000005933449155937858946_">
				<use xlink:href="#SVGID_00000108996045427702608360000008655686728510463400_"  style="overflow:visible;"/>
			</clipPath>
			
				<rect x="111.6" y="60.8" style="clip-path:url(#SVGID_00000111192795246695258870000005933449155937858946_);fill:#1A1A1A;" width="4.7" height="97.3"/>
		</g>
	</g>
	<g>
		<g>
			<defs>
				<rect id="SVGID_00000155841884063280083370000016425812643014950809_" width="195.6" height="280.6"/>
			</defs>
			<clipPath id="SVGID_00000068664165906705049940000001476812529406624441_">
				<use xlink:href="#SVGID_00000155841884063280083370000016425812643014950809_"  style="overflow:visible;"/>
			</clipPath>
			
				<rect x="79.2" y="60.8" style="clip-path:url(#SVGID_00000068664165906705049940000001476812529406624441_);fill:#1A1A1A;" width="4.7" height="97.3"/>
		</g>
	</g>
	<g>
		<g>
			<defs>
				<rect id="SVGID_00000023994708004215281400000003210352393648580250_" width="195.6" height="280.6"/>
			</defs>
			<clipPath id="SVGID_00000129903135643462101220000010239544622798383527_">
				<use xlink:href="#SVGID_00000023994708004215281400000003210352393648580250_"  style="overflow:visible;"/>
			</clipPath>
			
				<rect x="49.2" y="123.3" style="clip-path:url(#SVGID_00000129903135643462101220000010239544622798383527_);fill:#1A1A1A;" width="97.3" height="4.7"/>
		</g>
	</g>
	<g>
		<g>
			<defs>
				<rect id="SVGID_00000008870620317050053090000016734267154665968531_" width="195.6" height="280.6"/>
			</defs>
			<clipPath id="SVGID_00000019666354043996899040000017948560089527841675_">
				<use xlink:href="#SVGID_00000008870620317050053090000016734267154665968531_"  style="overflow:visible;"/>
			</clipPath>
			
				<rect x="49.2" y="90.9" style="clip-path:url(#SVGID_00000019666354043996899040000017948560089527841675_);fill:#1A1A1A;" width="97.3" height="4.7"/>
		</g>
	</g>
	<g>
		<g>
			<defs>
				<rect id="SVGID_00000065791011923713372400000013208178094614680737_" width="195.6" height="280.6"/>
			</defs>
			<clipPath id="SVGID_00000072241427052676008050000008621260115511110807_">
				<use xlink:href="#SVGID_00000065791011923713372400000013208178094614680737_"  style="overflow:visible;"/>
			</clipPath>
			<path style="clip-path:url(#SVGID_00000072241427052676008050000008621260115511110807_);fill:#1A1A1A;" d="M46.8,58.5v52.7h4.7
				v-48h92.6v48h4.7V58.5H46.8z"/>
		</g>
	</g>
	<g>
		<g>
			<defs>
				<rect id="SVGID_00000094614730508860008270000004066432409446547099_" width="195.6" height="280.6"/>
			</defs>
			<clipPath id="SVGID_00000003081246642317074640000012852495732364349840_">
				<use xlink:href="#SVGID_00000094614730508860008270000004066432409446547099_"  style="overflow:visible;"/>
			</clipPath>
			<path style="clip-path:url(#SVGID_00000003081246642317074640000012852495732364349840_);fill:#FFFFFF;" d="M58,20.3
				c4.2,0,7.5,3.3,7.5,7.5l0,0v15.1c0,4.2-3.4,7.5-7.5,7.5s-7.5-3.4-7.5-7.5l0,0V27.8C50.5,23.7,53.9,20.3,58,20.3L58,20.3z"/>
		</g>
	</g>
	<g>
		<g>
			<defs>
				<rect id="SVGID_00000113317654940080507850000012918605096097094840_" width="195.6" height="280.6"/>
			</defs>
			<clipPath id="SVGID_00000141415130483343702310000016553473263777900419_">
				<use xlink:href="#SVGID_00000113317654940080507850000012918605096097094840_"  style="overflow:visible;"/>
			</clipPath>
			<path style="clip-path:url(#SVGID_00000141415130483343702310000016553473263777900419_);fill:#1A1A1A;" d="M48.2,33.7v9.2
				c0,5.5,4.4,9.9,9.9,9.9s9.9-4.4,9.9-9.9l0,0v-9.2h-4.7v9.2c0,2.9-2.3,5.2-5.2,5.2s-5.2-2.3-5.2-5.2l0,0v-9.2H48.2z"/>
		</g>
	</g>
	<g>
		<g>
			<defs>
				<rect id="SVGID_00000035516921836825071850000007866879755166783879_" width="195.6" height="280.6"/>
			</defs>
			<clipPath id="SVGID_00000183932216877540707710000003978384913420305806_">
				<use xlink:href="#SVGID_00000035516921836825071850000007866879755166783879_"  style="overflow:visible;"/>
			</clipPath>
			<path style="clip-path:url(#SVGID_00000183932216877540707710000003978384913420305806_);fill:#FFFFFF;" d="M137.5,20.3
				c4.2,0,7.5,3.3,7.5,7.5l0,0v15.1c0,4.2-3.4,7.5-7.5,7.5c-4.2,0-7.5-3.4-7.5-7.5l0,0V27.8C130,23.7,133.3,20.3,137.5,20.3
				L137.5,20.3L137.5,20.3z"/>
		</g>
	</g>
	<g>
		<g>
			<defs>
				<rect id="SVGID_00000103953075528013285910000014726745325940565384_" width="195.6" height="280.6"/>
			</defs>
			<clipPath id="SVGID_00000124846387260594376640000014756850438872647045_">
				<use xlink:href="#SVGID_00000103953075528013285910000014726745325940565384_"  style="overflow:visible;"/>
			</clipPath>
			<path style="clip-path:url(#SVGID_00000124846387260594376640000014756850438872647045_);fill:#1A1A1A;" d="M127.6,33.7v9.2
				c0,5.5,4.4,9.9,9.9,9.9s9.9-4.4,9.9-9.9v-9.2h-4.7v9.2c0,2.9-2.3,5.2-5.2,5.2s-5.2-2.3-5.2-5.2l0,0v-9.2H127.6z"/>
		</g>
	</g>
	<g>
		<g>
			<defs>
				<rect id="SVGID_00000145778116614151853410000008237520520914222268_" width="195.6" height="280.6"/>
			</defs>
			<clipPath id="SVGID_00000039132360737086784780000003513051367428860043_">
				<use xlink:href="#SVGID_00000145778116614151853410000008237520520914222268_"  style="overflow:visible;"/>
			</clipPath>
			<path style="clip-path:url(#SVGID_00000039132360737086784780000003513051367428860043_);fill:#1A1A1A;" d="M58,17.9
				c-5.5,0-9.9,4.4-9.9,9.9V37h4.7v-9.2c0-2.9,2.3-5.2,5.2-5.2s5.2,2.3,5.2,5.2l0,0V37H68v-9.2C68,22.4,63.6,17.9,58,17.9L58,17.9z"
				/>
		</g>
	</g>
	<g>
		<g>
			<defs>
				<rect id="SVGID_00000062881049896168400440000005628586114932226945_" width="195.6" height="280.6"/>
			</defs>
			<clipPath id="SVGID_00000007407477788057782260000013984808932654807462_">
				<use xlink:href="#SVGID_00000062881049896168400440000005628586114932226945_"  style="overflow:visible;"/>
			</clipPath>
			<path style="clip-path:url(#SVGID_00000007407477788057782260000013984808932654807462_);fill:#1A1A1A;" d="M137.5,17.9
				c-5.5,0-9.9,4.4-9.9,9.9V37h4.7v-9.2c0-2.9,2.3-5.2,5.2-5.2s5.2,2.3,5.2,5.2l0,0V37h4.7v-9.2C147.4,22.4,143,18,137.5,17.9z"/>
		</g>
	</g>
	<g>
		<g>
			<defs>
				<rect id="SVGID_00000091735182628382153330000009965058047527171728_" width="195.6" height="280.6"/>
			</defs>
			<clipPath id="SVGID_00000017505318641331139770000013971207958386325651_">
				<use xlink:href="#SVGID_00000091735182628382153330000009965058047527171728_"  style="overflow:visible;"/>
			</clipPath>
			<path style="clip-path:url(#SVGID_00000017505318641331139770000013971207958386325651_);fill:#FFFFFF;" d="M150.7-0.1h29
				c5.3,0,10.6,0,16,0v16c0,7,0,14,0,21c-10.2,12.4-28.6,14.2-41,4S140.5,12.4,150.7-0.1L150.7-0.1z"/>
		</g>
	</g>
	<g>
		<g>
			<defs>
				<rect id="SVGID_00000028304497851576181170000018075351536735049150_" width="195.6" height="280.6"/>
			</defs>
			<clipPath id="SVGID_00000005950529726564114350000010854253894338768011_">
				<use xlink:href="#SVGID_00000028304497851576181170000018075351536735049150_"  style="overflow:visible;"/>
			</clipPath>
		</g>
	</g>
</g>
<g class="st1">
	<path class="st28" d="M169.1,15.9v2.5h-4.9v2.7c0.6-0.7,1.4-1.1,2.4-1.1c1.1,0,1.9,0.3,2.5,0.9s0.8,1.8,0.8,3.5v2.3
		c0,1.1-0.1,1.9-0.2,2.5s-0.3,1-0.7,1.5s-0.8,0.8-1.5,1c-0.6,0.2-1.4,0.4-2.3,0.4c-1,0-1.9-0.2-2.7-0.5c-0.8-0.4-1.3-0.9-1.7-1.6
		c-0.3-0.7-0.5-1.8-0.5-3.3v-0.9h3.9v1c0,1,0,1.7,0.1,2.2c0.1,0.4,0.3,0.6,0.7,0.6c0.2,0,0.4-0.1,0.5-0.2c0.1-0.1,0.2-0.3,0.2-0.4
		s0-0.8,0-1.9V24c0-0.6-0.1-1-0.2-1.2c-0.1-0.2-0.3-0.3-0.6-0.3c-0.2,0-0.3,0.1-0.5,0.2c-0.1,0.1-0.2,0.2-0.2,0.4
		c0,0.1-0.1,0.4-0.1,0.9h-3.9l0.2-8H169.1z"/>
	<path class="st28" d="M179.2,15.9v10.3h1.1v2.7h-1.1v2.8h-3.9v-2.8h-4.7v-2.7l3.4-10.3H179.2z M175.3,26.2v-6.7l-1.7,6.7H175.3z"/>
</g>
</svg>
