<?xml version="1.0" encoding="utf-8"?>
<!-- Generator: Adobe Illustrator 26.0.3, SVG Export Plug-In . SVG Version: 6.00 Build 0)  -->
<svg version="1.1" id="Слой_1" xmlns="http://www.w3.org/2000/svg" xmlns:xlink="http://www.w3.org/1999/xlink" x="0px" y="0px"
	 viewBox="0 0 160 160" style="enable-background:new 0 0 160 160;" xml:space="preserve">
<style type="text/css">
	.st0{fill:#1A1A1A;}
	.st1{fill:#DAE291;}
	.st2{fill:#EA5952;}
	.st3{fill:#FFFFFF;}
</style>
<g>
	<g>
		<path class="st0" d="M30.9,24.3v8c0,8,6.7,14.7,14.7,14.7s14.7-6.7,14.7-14.7v-8L30.9,24.3L30.9,24.3z"/>
		<path class="st0" d="M99.7,24.3v8c0,8,6.7,14.7,14.7,14.7s14.7-6.7,14.7-14.7v-8L99.7,24.3L99.7,24.3z"/>
		<path class="st0" d="M45.6,4.6c-8,0-14.7,6.7-14.7,14.7v8h29.4v-8C60.3,11.3,53.6,4.6,45.6,4.6L45.6,4.6z"/>
		<path class="st0" d="M114.4,4.6c-8,0-14.7,6.7-14.7,14.7v8h29.4v-8C129.1,11.3,122.4,4.6,114.4,4.6L114.4,4.6z"/>
		<path class="st0" d="M12.5,88.5v50.7c0,10,8.3,18.3,18.3,18.3h98.5c10,0,18.3-8.3,18.3-18.3V88.5h-16.4v50.7
			c0,1.2-0.7,1.9-1.9,1.9H30.8c-1.2,0-1.9-0.7-1.9-1.9V88.5H12.5z"/>
		<path class="st0" d="M30.8,22.4c-10,0-18.3,8.3-18.3,18.3v50.7h16.4V40.7c0-1.2,0.7-1.9,1.9-1.9h98.5c1.2,0,1.9,0.7,1.9,1.9v50.7
			h16.4V40.7c0-10-8.3-18.3-18.3-18.3H30.8z"/>
		<path class="st1" d="M30.8,30.6h98.5c5.6,0,10.1,4.5,10.1,10.1v98.5c0,5.6-4.5,10.1-10.1,10.1H30.8c-5.6,0-10.1-4.5-10.1-10.1
			V40.7C20.6,35.1,25.2,30.6,30.8,30.6L30.8,30.6z"/>
		<rect x="37.9" y="47.8" class="st2" width="84.2" height="28.3"/>
		<rect x="37.9" y="76.9" class="st2" width="84.2" height="14.1"/>
		<rect x="37.9" y="91.1" class="st3" width="84.2" height="41.1"/>
		<path class="st0" d="M18.6,88.5v50.7c0,6.7,5.5,12.1,12.1,12.1h98.5c6.7,0,12.1-5.5,12.1-12.1V88.5h-4.1v50.7
			c0,4.5-3.6,8.1-8.1,8.1H30.8c-4.5,0-8.1-3.6-8.1-8.1V88.5H18.6z"/>
		<path class="st0" d="M35.8,88.5v45.6h88.3V88.5h-4.1V130H39.9V88.5H35.8z"/>
		<path class="st0" d="M30.8,28.6c-6.7,0-12.1,5.5-12.1,12.1v50.7h4.1V40.7c0-4.5,3.6-8.1,8.1-8.1h98.5c4.5,0,8.1,3.6,8.1,8.1v50.7
			h4.1V40.7c0-6.7-5.5-12.1-12.1-12.1L30.8,28.6L30.8,28.6z"/>
		<rect x="92" y="47.8" class="st0" width="4.1" height="84.2"/>
		<rect x="63.9" y="47.8" class="st0" width="4.1" height="84.2"/>
		<rect x="37.9" y="101.9" class="st0" width="84.2" height="4.1"/>
		<rect x="37.9" y="73.9" class="st0" width="84.2" height="4.1"/>
		<path class="st0" d="M35.8,45.8v45.6h4.1V49.9h80.1v41.5h4.1V45.8H35.8z"/>
		<path class="st3" d="M45.6,12.7c3.6,0,6.5,2.9,6.5,6.5v13c0,3.6-2.9,6.5-6.5,6.5s-6.5-2.9-6.5-6.5v-13
			C39.1,15.7,42,12.7,45.6,12.7L45.6,12.7z"/>
		<path class="st0" d="M37,24.3v8c0,4.7,3.9,8.6,8.6,8.6c4.7,0,8.6-3.9,8.6-8.6v-8h-4.1v8c0,2.5-2,4.5-4.5,4.5s-4.5-2-4.5-4.5v-8H37
			z"/>
		<path class="st3" d="M114.4,12.7c3.6,0,6.5,2.9,6.5,6.5v13c0,3.6-2.9,6.5-6.5,6.5c-3.6,0-6.5-2.9-6.5-6.5v-13
			C107.9,15.7,110.8,12.7,114.4,12.7L114.4,12.7z"/>
		<path class="st0" d="M105.8,24.3v8c0,4.7,3.9,8.6,8.6,8.6c4.7,0,8.6-3.9,8.6-8.6v-8h-4.1v8c0,2.5-2,4.5-4.5,4.5
			c-2.5,0-4.5-2-4.5-4.5v-8H105.8z"/>
		<path class="st0" d="M45.6,10.7c-4.7,0-8.6,3.9-8.6,8.6v8h4.1v-8c0-2.5,2-4.5,4.5-4.5c2.5,0,4.5,2,4.5,4.5v8h4.1v-8
			C54.1,14.6,50.3,10.7,45.6,10.7L45.6,10.7z"/>
		<path class="st0" d="M114.4,10.7c-4.7,0-8.6,3.9-8.6,8.6v8h4.1v-8c0-2.5,2-4.5,4.5-4.5s4.5,2,4.5,4.5v8h4.1v-8
			C123,14.6,119.1,10.7,114.4,10.7L114.4,10.7z"/>
	</g>
</g>
</svg>
