<?xml version="1.0" encoding="utf-8"?>
<!-- Generator: Adobe Illustrator 26.0.3, SVG Export Plug-In . SVG Version: 6.00 Build 0)  -->
<svg version="1.1" id="Слой_1" xmlns="http://www.w3.org/2000/svg" xmlns:xlink="http://www.w3.org/1999/xlink" x="0px" y="0px"
	 viewBox="0 0 923 1000" style="enable-background:new 0 0 923 1000;" xml:space="preserve">
<style type="text/css">
	.st0{fill:#1A1A1A;}
	.st1{fill:#F3996D;}
	.st2{fill:#8BD2F4;}
	.st3{fill:#FFFFFF;}
	.st4{fill:#C0E4EF;}
	.st5{fill:#91D1DD;}
	.st6{fill:#E84A30;}
	.st7{fill:#D42121;}
	.st8{fill:#C3D3D8;}
	.st9{fill:#555555;}
	.st10{fill:#3C3C3C;}
	.st11{fill:#6F6F6F;}
	.st12{fill:#E94C68;}
	.st13{fill:#77C4B9;}
	.st14{fill:#43B7AC;}
	.st15{fill:#CD2250;}
	.st16{fill:#DAE291;}
	.st17{fill:#EA5952;}
</style>
<g>
	<path class="st0" d="M2087.5,313.3l-132.3-40.9l73.8-117.2l-9.3-25.1l-97.2,154.4l174.4,53.9L2087.5,313.3z"/>
	<path class="st0" d="M2046.2,87.5l-29.3,46.5l9.3,25.1l26.6-42.4l119.4,75.1l-41.6,134.7l-47.8-14.8l9.3,25.1l42.4,13.1l10.1,3.2
		l52.8-170.6L2046.2,87.5z"/>
	<path class="st0" d="M1957.2,243.4c0,0-11.7,7.4-24,11.8c-6.2,2.2-12.4,3.4-16.2,3.1c-3.7-0.3-4.4-0.5-5.6-3.1
		c-2.5-5.4-1.3-21.2,1.6-41.4c3-20.4,6.4-45.3,1.4-71.8c-9.1-48.1-45.2-65.9-45.2-65.9l-5.7-2.6l-62.9,45.3l24.9,4.3
		c0,0,25.6,4.5,35.4,28.4c7.2,17.1,6,42.9,5.2,68c-0.3,12.6-0.5,24.9,1.3,36.5c1.7,11.6,5.7,22.8,14.4,31.1
		c8.6,8.1,19.8,10.9,30.1,10.4c10.3-0.5,20-3.7,28.6-7.4c17.2-7.6,30.6-18.1,30.6-18.1l-6.5-8.4c1.4-0.9,4.2-2.5,4.2-2.5
		L1957.2,243.4z"/>
	<path class="st1" d="M1963.3,252.3c0,0-49.5,32-61.2,7.5c-10.2-21.2,11.2-66.8,2-115.8c-8.3-44-39.3-58.3-39.3-58.3l-37.4,26.9
		c0,0,31.3,5.4,43.5,34.8c17,41.1-7.2,107.9,18.3,132.1c24.9,23.6,75.5-15.8,75.5-15.8L1963.3,252.3z"/>
	<path class="st0" d="M1961.6,250.2c0,0-12.2,7.8-25.7,12.6c-6.8,2.4-13.8,3.9-19.5,3.6c-5.7-0.4-9.8-2.3-12.3-7.6
		c-4.4-9.3-2.1-25.8,0.9-46s6.1-44.1,1.4-69.2c-8.4-45-40.7-60.2-40.7-60.2l-1.4-0.6l-43.8,31.6l6.3,1.1c0,0,29.8,5.2,41.5,33.2
		c8.1,19.7,6.6,46.4,5.8,71.3c-0.4,12.4-0.4,24.5,1.1,35.1c1.6,10.6,5.1,20,12,26.6c6.9,6.5,15.6,8.6,24.3,8.3
		c8.8-0.4,17.7-3.2,25.8-6.8c16.1-7.1,29-17.1,29-17.1l-3.3-4.2c0,0-12.4,9.6-27.8,16.4c-7.6,3.3-16,5.9-23.8,6.3
		c-7.8,0.3-14.8-1.4-20.4-6.8c-5.8-5.5-8.9-13.6-10.4-23.5c-1.5-10-1.4-21.8-1-34.2c0.7-24.8,2.7-52.1-6.2-73.5
		c-9.4-22.9-29.9-31.8-39.8-34.9L1865,89c3.5,1.8,29,15.7,36.5,55.6c4.5,24,1.5,47.3-1.4,67.5c-2.9,20.1-6.1,37-0.4,49
		c3.3,7,9.8,10.1,16.7,10.7c6.9,0.5,14.5-1.3,21.6-3.8c14.2-5.1,26.8-13.2,26.8-13.2L1961.6,250.2z"/>
	<path class="st1" d="M2185,187.3l-91.3,33.8l44,118.9L2185,187.3z"/>
	<path class="st2" d="M2185,187.3l-91.3,33.8l-44-118.9L2185,187.3z"/>
	<path class="st1" d="M2049.7,102.1l-110.9,176.3l154.9-57.3L2049.7,102.1z"/>
	<path class="st2" d="M2093.7,221l-154.9,57.3l198.9,61.6L2093.7,221z"/>
	<path class="st0" d="M2090.9,322.6l-148.1-45.7l82.6-131.1l-2.3-6.3l-88.5,140.4l158.6,49L2090.9,322.6z"/>
	<path class="st0" d="M2187.4,186.4c-0.2-0.7-0.7-1.2-1.4-1.6c-0.6-0.3-1.4-0.3-2.1-0.1l-246.2,91.1c-0.7,0.2-1.2,0.8-1.5,1.4
		s-0.3,1.4-0.1,2.1c0.2,0.7,0.8,1.2,1.4,1.5s1.4,0.3,2.1,0.1l246.2-91.1C2187.2,189.2,2188,187.8,2187.4,186.4L2187.4,186.4z"/>
	<path class="st0" d="M2052.2,101.3c-0.2-0.7-0.8-1.2-1.4-1.5c-0.6-0.3-1.4-0.3-2.1-0.1c-0.7,0.2-1.2,0.8-1.5,1.4s-0.3,1.4-0.1,2.1
		l88,237.7c0.2,0.7,0.8,1.2,1.4,1.5c0.6,0.3,1.4,0.3,2.1,0.1c0.7-0.2,1.2-0.8,1.5-1.4s0.3-1.4,0.1-2.1L2052.2,101.3z"/>
	<path class="st0" d="M2187.4,186.3c-0.3-0.8-1.1-1.4-2-1.4c-0.8-0.1-1.8,0.1-2.4,0.8l-74.8,75.8L1938.4,276
		c-0.7,0.1-1.4,0.4-1.9,0.9s-0.7,1.2-0.7,2c0,0.6,0.4,1.3,1,1.8c0.6,0.4,1.3,0.6,2,0.5l171.8-14.7l76.1-77.2
		C2187.5,188.4,2187.8,187.3,2187.4,186.3L2187.4,186.3z"/>
	<path class="st0" d="M2048.9,98.5l-28.3,45l2.3,6.3l27.7-43.9l131.3,82.7L2136,336.7l-49.6-15.3l2.3,6.3l48.3,14.9l2.5,0.8
		l48.6-157.1L2048.9,98.5z"/>
	<path class="st0" d="M2111.5,260.9c-0.6-0.6-1.6-0.9-2.5-0.8c-0.9,0.2-1.7,0.9-1.9,1.9c-41.9,148.1-99.7,300-169.7,404.7
		c-35,52.4-73.1,92.9-113.5,115.5c-40.4,22.5-83.1,27.2-128.4,8.1c-1.4-0.6-3,0-3.5,1.4c-0.6,1.4,0,3,1.4,3.5
		c46.7,19.8,91.5,14.9,133-8.3s80.1-64.3,115.3-117.1c70.6-105.6,128.4-257.8,170.4-406.3C2112.4,262.6,2112.2,261.6,2111.5,260.9
		L2111.5,260.9z"/>
	<path class="st0" d="M1942.6,352.3c-0.6,0-1.3,0-1.9,0v21.3c0.6,0,1.3,0,1.9,0l0,0l0,0c36.2,0.1,68.4,23,80.3,57.2l2.4,7l7.4,0.1
		c25.6,0.5,45.9,21.1,45.9,46.8c0,26-20.8,46.8-46.8,46.8c-8.6,0-17-2.4-24.3-6.9l-6.3-3.9l-5.8,4.6c-15,11.9-33.6,18.4-52.8,18.4
		c-0.6,0-1.3,0-1.9,0v21.2c0.6,0,1.2,0,1.9,0c21.8,0,42.8-7,60.6-19.4c9,4.3,18.6,7,28.7,7.1l0,0c37.5,0,68-30.6,68-68
		c0-34.5-26.1-62.9-59.7-67.1C2023.7,378.4,1985.5,352.4,1942.6,352.3L1942.6,352.3L1942.6,352.3z"/>
	<path class="st0" d="M1942.6,352.3c-42.9,0.1-81.1,26.1-97.6,65.2c-33.6,4.2-59.7,32.6-59.7,67.2c0,37.5,30.6,68,68,68
		c10.1,0,19.7-2.8,28.8-7.1c17.7,12.4,38.7,19.4,60.4,19.4c0.6,0,1.3,0,1.9,0v-21.2c-0.6,0-1.2,0-1.9,0c-19.2,0-37.7-6.5-52.8-18.4
		l-5.8-4.6l-6.3,3.9c-7.3,4.5-15.8,6.9-24.4,6.9c-26,0-46.8-20.8-46.8-46.8c0-25.6,20.3-46.3,45.9-46.8l7.4-0.1l2.4-7
		c11.9-34.2,44-57.1,80.3-57.2l0,0l0,0c0.6,0,1.2,0,1.9,0v-21.2C1943.9,352.3,1943.3,352.3,1942.6,352.3L1942.6,352.3L1942.6,352.3z
		"/>
	<path class="st3" d="M1942.7,362.9c-40.7,0-76.9,25.9-90.3,64.3c-31.3,0.6-56.3,26.1-56.4,57.4c0,31.7,25.7,57.4,57.4,57.4
		c10.6,0,20.9-2.9,29.9-8.5c16.9,13.4,37.8,20.7,59.3,20.7c21.6,0,42.5-7.3,59.4-20.7c9,5.5,19.3,8.4,29.8,8.4
		c15.2,0,29.8-6.1,40.6-16.8c10.8-10.8,16.8-25.4,16.8-40.6c0-31.3-25.1-56.8-56.4-57.4C2019.6,388.8,1983.4,363,1942.7,362.9
		L1942.7,362.9z"/>
	<path class="st4" d="M2075.9,447.8c-10.9,13-27,20.6-44,20.6c-10.5,0-20.8-2.9-29.8-8.4c-16.9,13.4-37.9,20.7-59.4,20.7
		s-42.5-7.3-59.3-20.7c-9,5.5-19.3,8.4-29.9,8.5c-17,0-33.1-7.5-44-20.5c-8.6,10.3-13.4,23.3-13.4,36.8c0,31.7,25.7,57.4,57.4,57.4
		c10.6,0,20.9-2.9,29.9-8.5c16.9,13.4,37.8,20.7,59.3,20.7c21.6,0,42.5-7.3,59.4-20.7c9,5.5,19.3,8.4,29.8,8.4
		c31.7,0,57.4-25.7,57.4-57.4C2089.3,471.2,2084.5,458.1,2075.9,447.8L2075.9,447.8z"/>
	<path class="st5" d="M2086.8,468c-7.3,24.2-29.6,40.8-54.9,40.8c-10.5,0-20.8-2.9-29.8-8.4c-16.9,13.4-37.9,20.7-59.4,20.7
		s-42.5-7.3-59.3-20.7c-9,5.5-19.3,8.4-29.9,8.5c-25.3,0-47.5-16.5-54.9-40.7c-1.6,5.4-2.5,10.9-2.5,16.5c0,15.2,6,29.8,16.8,40.6
		s25.4,16.8,40.6,16.8c10.6,0,20.9-2.9,29.9-8.5c16.9,13.4,37.8,20.7,59.3,20.7c21.6,0,42.5-7.3,59.4-20.7c9,5.5,19.3,8.4,29.8,8.4
		c15.2,0,29.8-6.1,40.6-16.8c10.8-10.8,16.8-25.4,16.8-40.6C2089.3,479,2088.5,473.4,2086.8,468L2086.8,468z"/>
	<path class="st0" d="M1942.7,360.3c-0.6,0-1.3,0-1.9,0v5.3c0.6,0,1.3,0,1.9,0c39.6,0.1,74.8,25.1,87.8,62.6l0.6,1.7h1.9
		c29.9,0.6,53.7,24.9,53.8,54.7c0,30.3-24.5,54.8-54.8,54.8c-10,0-19.9-2.8-28.4-8l-1.6-1l-1.5,1.2c-16.4,13-36.8,20.1-57.8,20.1
		c-0.6,0-1.3,0-1.9,0v5.3c0.6,0,1.3,0,1.9,0c21.6,0,42.6-7.2,59.7-20.4c9,5.1,19.1,8.1,29.5,8.1c33.2,0,60.1-26.9,60.1-60.1
		c0-32.1-25.3-58.3-57.2-59.8C2020.6,386.2,1983.9,360.3,1942.7,360.3L1942.7,360.3z"/>
	<path class="st0" d="M1942.7,360.3c-41.3,0-78,25.9-92.1,64.5c-31.8,1.5-57.2,27.7-57.2,59.8c0,33.1,26.9,60.1,60.1,60.1
		c10.4,0,20.6-3,29.6-8.1c17.1,13.1,38,20.4,59.6,20.4c0.6,0,1.3,0,1.9,0v-5.3c-0.6,0-1.3,0-1.9,0c-21,0-41.3-7.1-57.7-20.2
		l-1.5-1.2l-1.6,1c-8.6,5.3-18.4,8-28.5,8.1c-30.3,0-54.8-24.5-54.8-54.8c0-29.9,23.9-54.2,53.8-54.7h1.9l0.6-1.7
		c13-37.4,48.2-62.5,87.8-62.5c0.6,0,1.3,0,1.9,0v-5.3C1943.9,360.3,1943.3,360.3,1942.7,360.3L1942.7,360.3z"/>
</g>
<path class="st6" d="M1655.3,825.7c0,1-0.1,2.1-0.1,3.1c0,114.9,93.1,208,208,208c55.2,0,108.1-21.9,147.1-60.9
	s60.9-91.9,60.9-147.1c0-1-0.1-2.1-0.2-3.1h-136c0.1,1,0.1,2.1,0.1,3.1c0,19.1-7.6,37.3-21,50.8c-13.5,13.5-31.8,21-50.8,21
	c-39.7,0-71.9-32.2-71.9-71.9c0-1,0.1-2.1,0.2-3.1L1655.3,825.7L1655.3,825.7z"/>
<path class="st0" d="M1773.8,825.7c0,1-0.1,2.1-0.1,3.1c0,49.2,40.3,89.5,89.5,89.5s89.5-40.3,89.5-89.5c0-1.1,0-2.1-0.1-3.1h-35.3
	c0.1,1,0.1,2.1,0.1,3.1c0,30.1-24.1,54.2-54.2,54.2s-54.2-24-54.2-54.2c0-1.1,0-2.1,0.1-3.1H1773.8z"/>
<path class="st0" d="M1637.6,825.7c0,1,0,2.1,0,3.1c0,124.4,101.3,225.7,225.7,225.7S2089,953.2,2089,828.8c0-1.1,0-2.1,0-3.1h-35.3
	c0,1,0,2.1,0,3.1c0,105.4-85,190.4-190.4,190.4s-190.4-85-190.4-190.4c0-1.1,0-2.1,0-3.1L1637.6,825.7L1637.6,825.7z"/>
<path class="st0" d="M1863.2,739.3c-49.2,0-89.5,40.3-89.5,89.5c0,1,0,2.1,0.1,3.1h35.3c-0.1-1-0.1-2.1-0.1-3.1
	c0-30.1,24.1-54.2,54.2-54.2s54.2,24.1,54.2,54.2c0,1.1,0,2.1-0.1,3.1h35.3c0-1,0.1-2.1,0.1-3.1
	C1952.7,779.6,1912.5,739.3,1863.2,739.3L1863.2,739.3z"/>
<path class="st0" d="M1863.2,603.1c-124.4,0-225.7,101.3-225.7,225.7c0,1,0,2.1,0,3.1h35.3c0-1,0-2.1,0-3.1
	c0-105.4,85-190.4,190.4-190.4s190.4,85,190.4,190.4c0,1,0,2.1,0,3.1h35.3c0-1,0-2.1,0-3.1C2088.9,704.4,1987.7,603.1,1863.2,603.1
	L1863.2,603.1z"/>
<path class="st6" d="M1863.2,620.8c-114.9,0-208,93.1-208,208c0,1,0.1,2.1,0.2,3.1h136.1c-0.1-1-0.1-2.1-0.1-3.1
	c0-39.7,32.2-71.9,71.9-71.9c19.1,0,37.3,7.6,50.8,21c13.5,13.5,21,31.8,21,50.8c0,1-0.1,2.1-0.2,3.1h136.2c0-1,0.1-2.1,0.1-3.1
	c0-55.2-21.9-108.1-60.9-147.1C1971.3,642.7,1918.4,620.8,1863.2,620.8L1863.2,620.8z"/>
<path class="st7" d="M1736.7,825.7c8,63.8,62.3,111.6,126.5,111.7c64.3-0.1,118.5-47.9,126.5-111.7H1935c0.1,1,0.1,2.1,0.1,3.1
	c0,19.1-7.6,37.3-21,50.8c-13.5,13.5-31.8,21-50.8,21c-19.1,0-37.3-7.6-50.8-21c-13.5-13.5-21-31.8-21-50.8c0-1,0.1-2.1,0.2-3.1
	H1736.7z"/>
<path class="st7" d="M1863.2,682c-33.9,0-66.3,13.4-90.3,37.4c-23.9,23.9-37.4,56.4-37.4,90.3c0,7.5,0.7,14.9,2.1,22.2h53.8
	c-0.1-1-0.1-2.1-0.1-3.1c0-19.1,7.6-37.3,21-50.8c13.5-13.5,31.8-21,50.8-21c39.7,0,71.9,32.2,71.9,71.9c0,1-0.1,2.1-0.2,3.1h54
	c1.3-7.3,2-14.8,2-22.2C1990.9,739.2,1933.7,682,1863.2,682L1863.2,682z"/>
<path class="st3" d="M1863.2,620.8c-27.3,0-54.4,5.4-79.6,15.9l52.1,125.8c8.7-3.6,18-5.5,27.5-5.5c9.4,0,18.8,1.9,27.5,5.5
	l52.1-125.7C1917.6,626.3,1890.5,620.8,1863.2,620.8L1863.2,620.8z"/>
<path class="st7" d="M1876.6,621.2c98.9,7,175.6,89.3,175.6,188.5c0,104.3-84.6,188.9-188.9,188.9s-188.9-84.6-188.9-188.9
	c0-97,73.5-178.3,170.1-188c-107.1,9.8-189.1,99.5-189.2,207.1c0,114.9,93.1,208,208,208s208-93.1,208-208
	C2071.2,719.1,1986.1,628.3,1876.6,621.2L1876.6,621.2z"/>
<path class="st3" d="M2055.4,749.2l-125.8,52.1c3.6,8.7,5.5,18,5.5,27.5c0,9.4-1.9,18.8-5.5,27.5l125.7,52.1
	c10.5-25.2,15.9-52.2,16-79.5C2071.2,801.5,2065.8,774.4,2055.4,749.2L2055.4,749.2z"/>
<path class="st3" d="M1671.2,749.2c-10.5,25.2-15.9,52.2-16,79.5c0,27.3,5.4,54.4,15.9,79.6l125.8-52.1c-3.6-8.7-5.5-18-5.5-27.5
	c0-9.4,1.9-18.8,5.5-27.5L1671.2,749.2z"/>
<path class="st3" d="M1890.7,895.1c-8.7,3.6-18,5.5-27.5,5.5c-9.4,0-18.8-1.9-27.5-5.5l-52.1,125.7c25.2,10.5,52.2,15.9,79.5,16
	c27.3,0,54.4-5.4,79.6-15.9L1890.7,895.1z"/>
<path class="st8" d="M1863.2,682c-19.2,0.1-38.2,4.5-55.5,12.9l28,67.6c8.7-3.6,18-5.5,27.5-5.5c9.4,0,18.8,1.9,27.5,5.5l28-67.6
	C1901.4,686.4,1882.5,682.1,1863.2,682L1863.2,682z"/>
<path class="st8" d="M1739.7,777.6c-2.7,10.5-4.1,21.2-4.2,32c0,22.7,6.2,45.1,17.7,64.6l43.6-18.1c-3.6-8.7-5.5-18-5.5-27.5
	c0-9.4,1.9-18.8,5.5-27.5L1739.7,777.6z"/>
<path class="st8" d="M1986.6,777.7l-57.1,23.6c3.6,8.7,5.5,18,5.5,27.5c0,9.4-1.9,18.8-5.5,27.5l43.5,18
	c11.6-19.6,17.7-41.9,17.7-64.6C1990.8,798.9,1989.4,788.1,1986.6,777.7L1986.6,777.7z"/>
<path class="st8" d="M1881.5,621.6c0.8,0.1,1.6,0.2,2.4,0.3C1883.1,621.8,1882.3,621.7,1881.5,621.6L1881.5,621.6z"/>
<path class="st8" d="M1844.1,621.7C1844.1,621.7,1844,621.7,1844.1,621.7c-1.1,0.1-2.1,0.2-3.1,0.3c-0.4,0.1-0.7,0.1-1.1,0.2
	C1841.3,622,1842.7,621.9,1844.1,621.7L1844.1,621.7z"/>
<path class="st8" d="M1829.9,623.7c-15.9,2.5-31.4,6.8-46.2,12.9l0.6,1.4C1798.5,631.5,1813.8,626.6,1829.9,623.7L1829.9,623.7z"/>
<path class="st8" d="M1897.3,623.9c15.8,2.9,30.8,7.7,44.9,14.2l0.5-1.3C1928.2,630.7,1912.9,626.4,1897.3,623.9L1897.3,623.9z"/>
<path class="st8" d="M2055.4,749.2l-11.6,4.8c5.4,17.6,8.4,36.3,8.4,55.7c0,31.9-7.9,61.9-21.9,88.3l25,10.3
	c10.5-25.2,15.9-52.2,16-79.5C2071.2,801.5,2065.8,774.4,2055.4,749.2L2055.4,749.2z"/>
<path class="st8" d="M1671.2,749.2c-10.5,25.2-15.9,52.2-16,79.5c0,27.3,5.4,54.4,15.9,79.6l25.1-10.4c-14-26.4-21.9-56.4-21.9-88.3
	c0-19.3,2.9-38,8.4-55.7L1671.2,749.2z"/>
<path class="st8" d="M1797.7,986.9l-14,33.9c25.2,10.5,52.2,15.9,79.5,16c27.3,0,54.4-5.4,79.6-15.9l-14.1-34
	c-20.4,7.5-42.5,11.7-65.5,11.7C1840.2,998.6,1818.1,994.5,1797.7,986.9L1797.7,986.9z"/>
<path class="st0" d="M1787,825.7c0,1-0.1,2.1-0.1,3.1c0,42.1,34.2,76.3,76.3,76.3c42.1,0,76.3-34.2,76.3-76.3c0-1.1,0-2.1-0.1-3.1
	h-8.8c0,1,0.1,2.1,0.1,3.1c0,37.3-30.1,67.4-67.4,67.4s-67.4-30.1-67.4-67.4c0-1.1,0-2.1,0.1-3.1H1787z"/>
<path class="st0" d="M1650.8,825.7c0,1,0,2.1,0,3.1c0,117.3,95.2,212.4,212.4,212.4c117.3,0,212.4-95.2,212.4-212.4
	c0-1.1,0-2.1,0-3.1h-8.8c0,1,0,2.1,0,3.1c0,112.5-91.1,203.6-203.6,203.6s-203.6-91.1-203.6-203.6c0-1.1,0-2.1,0-3.1L1650.8,825.7
	L1650.8,825.7z"/>
<path class="st0" d="M1863.2,752.5c-42.1,0-76.3,34.2-76.3,76.3c0,1.1,0,2.1,0.1,3.1h8.8c0-1-0.1-2.1-0.1-3.1
	c0-37.3,30.2-67.4,67.4-67.4c37.3,0,67.4,30.1,67.4,67.4c0,1.1,0,2.1-0.1,3.1h8.8c0-1,0.1-2.1,0.1-3.1
	C1939.5,786.7,1905.3,752.5,1863.2,752.5L1863.2,752.5z"/>
<path class="st0" d="M1863.2,616.3c-117.3,0-212.4,95.2-212.4,212.4c0,1,0,2.1,0,3.1h8.8c0-1,0-2.1,0-3.1
	c0-112.5,91.1-203.6,203.6-203.6s203.6,91.1,203.6,203.6c0,1,0,2.1,0,3.1h8.8c0-1,0-2.1,0-3.1
	C2075.7,711.5,1980.5,616.3,1863.2,616.3L1863.2,616.3z"/>
<path class="st0" d="M312.5,1661.1c-11.5-0.1-23.3,2.1-34.6,6.8c-10.3,4.3-19.7,10.5-27.7,18.2h-58.9c-8-7.7-17.4-13.9-27.7-18.2
	c-11.3-4.7-23-6.9-34.6-6.8c-34.6,0.3-67.3,21-81.3,54.8c-3,7.2-5,14.7-6,22.5l-19,144.6c-0.4,2.9-0.6,5.9-0.6,8.9
	c0,37.4,30.6,68,68,68c27.5,0,52.4-16.7,62.9-42.1l-0.1,0.3l6.8-15.7c8.6,4.4,18.2,6.9,28,6.9h66c9.9,0,19.4-2.5,28-6.9l6.8,15.7
	l-0.1-0.3c10.5,25.4,35.4,42.1,62.9,42.1c37.4,0,68-30.6,68-68c0-3-0.2-5.9-0.6-8.9l-18.9-143.9v0.1l-0.1-1c-1-7.7-3-15.2-6-22.4
	C379.8,1682,347.1,1661.3,312.5,1661.1L312.5,1661.1z M312.3,1691.5c22.7,0.2,44.1,13.6,53.4,36c1.9,4.5,3.1,9.2,3.8,14v0.5l0.3,1.2
	l18.9,143.8c0.2,1.6,0.3,3.3,0.3,4.9c0,20.9-16.6,37.6-37.6,37.6c-15.3,0-28.9-9.1-34.7-23.2l-0.1-0.1l-24.1-55l-15.8,17.6
	c-5.9,6.5-14.2,10.3-23,10.3h-66c-8.8,0-17.1-3.7-23-10.3l-15.8-17.6l-24.1,55l-0.1,0.1c-5.8,14.1-19.5,23.2-34.7,23.2
	c-20.9,0-37.6-16.6-37.6-37.6c0-1.6,0.1-3.3,0.3-4.9l0,0l19.1-144.7c0.7-5.2,2-10.1,4-14.8c9.3-22.4,30.8-35.8,53.4-36
	c7.6-0.1,15.2,1.4,22.7,4.5c8.2,3.4,15.6,8.7,21.4,15.3l4.5,5.2h85.6l4.5-5.2c5.9-6.7,13.2-11.9,21.4-15.3
	C297,1692.9,304.7,1691.5,312.3,1691.5L312.3,1691.5z"/>
<rect x="187.8" y="1876" class="st9" width="66" height="18.1"/>
<path class="st9" d="M299.9,1848c0,12.2-4.9,24-13.5,32.6s-20.4,13.5-32.6,13.5c-25.5,0-46.1-20.6-46.1-46.1
	c0-12.2,4.9-24,13.5-32.6s20.4-13.5,32.6-13.5s24,4.9,32.6,13.5C295,1824.1,299.9,1835.8,299.9,1848L299.9,1848z"/>
<path class="st9" d="M233.9,1848c0,25.5-20.6,46.1-46.1,46.1s-46.1-20.6-46.1-46.1c0-12.2,4.9-24,13.5-32.6s20.4-13.5,32.6-13.5
	c12.2,0,24,4.9,32.6,13.5C229,1824.1,233.9,1835.8,233.9,1848L233.9,1848z"/>
<path class="st9" d="M56.9,1740.2l140.7,37.7l-58.7,134.2L37.8,1885L56.9,1740.2z"/>
<path class="st9" d="M142.9,1891.9c0,14-5.6,27.4-15.5,37.3s-23.3,15.5-37.3,15.5s-27.4-5.6-37.3-15.5s-15.5-23.3-15.5-37.3
	c0-29.2,23.6-52.8,52.8-52.8S142.9,1862.7,142.9,1891.9L142.9,1891.9z"/>
<path class="st9" d="M384.7,1740.2L244,1777.9l58.7,134.2l101.1-27.1L384.7,1740.2z"/>
<path class="st9" d="M404.2,1891.9c0,29.2-23.6,52.8-52.8,52.8s-52.8-23.6-52.8-52.8c0-29.2,23.6-52.8,52.8-52.8
	c14,0,27.4,5.6,37.3,15.5C398.7,1864.5,404.2,1877.9,404.2,1891.9L404.2,1891.9z"/>
<rect x="105.6" y="1701.2" class="st9" width="230.3" height="137.9"/>
<path class="st10" d="M133.5,1832.9l-15,46.5c-16,49.6-60.6,47.6-80.4,21.8c4.4,24.7,26,43.5,52,43.5c21.4,0,40.7-12.9,48.8-32.7
	l14.5-33.2c8.7,9.7,21.2,15.3,34.3,15.3h66c13.1,0,25.6-5.6,34.3-15.3l14.5,33.2c8.2,19.8,27.4,32.7,48.8,32.7
	c26,0,47.6-18.8,52-43.5c-19.8,25.8-64.4,27.8-80.4-21.8l-15-46.5c-9.8,9.7-35.5,15.3-50.2,15.3h-74.1
	C169,1848.2,143.3,1842.6,133.5,1832.9L133.5,1832.9z"/>
<path class="st11" d="M203.2,1749.8c0,40.6-32.9,73.5-73.5,73.5s-73.5-32.9-73.5-73.5c0-19.5,7.7-38.2,21.5-52s32.5-21.5,52-21.5
	s38.2,7.7,52,21.5C195.4,1711.6,203.2,1730.3,203.2,1749.8L203.2,1749.8z"/>
<path class="st11" d="M379.7,1721.7c15.5,37.5-2.3,80.5-39.8,96c-18,7.5-38.2,7.5-56.2,0s-32.3-21.8-39.8-39.8
	c-15.5-37.5,2.3-80.5,39.8-96C321.2,1666.4,364.2,1684.2,379.7,1721.7L379.7,1721.7z"/>
<path class="st9" d="M364.9,1749.8c0,29.3-23.7,53-53,53s-53-23.7-53-53c0-14.1,5.6-27.5,15.5-37.5c9.9-9.9,23.4-15.5,37.5-15.5
	C341.1,1696.8,364.9,1720.5,364.9,1749.8L364.9,1749.8z"/>
<path class="st12" d="M182.7,1749.8c0,29.3-23.7,53-53,53s-53-23.7-53-53s23.7-53,53-53c14.1,0,27.5,5.6,37.5,15.5
	C177.1,1722.3,182.7,1735.7,182.7,1749.8L182.7,1749.8z"/>
<path class="st0" d="M311.9,1694.6c-30.5,0-55.2,24.7-55.2,55.2s24.7,55.2,55.2,55.2s55.2-24.7,55.2-55.2
	C367,1719.3,342.3,1694.6,311.9,1694.6L311.9,1694.6z M311.9,1699c28.1,0,50.8,22.7,50.8,50.8c0,28.1-22.7,50.8-50.8,50.8
	c-28.1,0-50.8-22.7-50.8-50.8C261,1721.7,283.8,1699,311.9,1699L311.9,1699z"/>
<path class="st0" d="M129.7,1694.6c-30.4,0-55.2,24.7-55.2,55.2s24.7,55.2,55.2,55.2s55.2-24.7,55.2-55.2
	C184.9,1719.3,160.2,1694.6,129.7,1694.6L129.7,1694.6z M129.7,1699c28.1,0,50.8,22.7,50.8,50.8c0,28.1-22.7,50.8-50.8,50.8
	s-50.8-22.7-50.8-50.8C78.9,1721.7,101.6,1699,129.7,1699L129.7,1699z"/>
<path class="st13" d="M322.7,1724c0,6-4.9,10.8-10.8,10.8S301,1730,301,1724c0-2.9,1.1-5.6,3.2-7.7c2-2,4.8-3.2,7.7-3.2
	c2.9,0,5.6,1.1,7.7,3.2C321.5,1718.4,322.7,1721.2,322.7,1724L322.7,1724z"/>
<path class="st12" d="M322.7,1775.6c0,2.9-1.1,5.6-3.2,7.7c-2,2-4.8,3.2-7.7,3.2c-2.9,0-5.6-1.1-7.7-3.2c-2-2-3.2-4.8-3.2-7.7
	c0-6,4.9-10.8,10.8-10.8S322.7,1769.6,322.7,1775.6L322.7,1775.6z"/>
<path class="st3" d="M337.6,1760.6c-6,0-10.8-4.9-10.8-10.8c0-2.9,1.1-5.6,3.2-7.7c2-2,4.8-3.2,7.7-3.2c2.9,0,5.6,1.1,7.7,3.2
	c2,2,3.2,4.8,3.2,7.7C348.5,1755.8,343.6,1760.6,337.6,1760.6L337.6,1760.6z"/>
<path class="st3" d="M286.1,1760.6c-6,0-10.8-4.9-10.8-10.8c0-2.9,1.1-5.6,3.2-7.7c2-2,4.8-3.2,7.7-3.2c2.9,0,5.6,1.1,7.7,3.2
	c2,2,3.2,4.8,3.2,7.7C296.9,1755.8,292.1,1760.6,286.1,1760.6L286.1,1760.6z"/>
<path class="st0" d="M311.9,1711c-7.2,0-13,5.9-13,13c0,7.2,5.9,13,13,13c7.2,0,13-5.9,13-13S319,1711,311.9,1711L311.9,1711z
	 M311.9,1715.4c4.8,0,8.7,3.9,8.7,8.7c0,4.8-3.9,8.7-8.7,8.7c-4.8,0-8.7-3.9-8.7-8.7C303.2,1719.2,307,1715.4,311.9,1715.4
	L311.9,1715.4z"/>
<path class="st0" d="M311.9,1762.5c-7.2,0-13,5.9-13,13c0,7.2,5.9,13,13,13c7.2,0,13-5.9,13-13S319,1762.5,311.9,1762.5
	L311.9,1762.5z M311.9,1766.9c4.8,0,8.7,3.9,8.7,8.7c0,4.8-3.9,8.7-8.7,8.7c-4.8,0-8.7-3.9-8.7-8.7
	C303.2,1770.8,307,1766.9,311.9,1766.9L311.9,1766.9z"/>
<path class="st0" d="M350.6,1749.8c0-7.2-5.9-13-13-13c-7.2,0-13,5.8-13,13s5.9,13,13,13C344.8,1762.8,350.6,1757,350.6,1749.8
	L350.6,1749.8z M346.3,1749.8c0,4.8-3.9,8.7-8.7,8.7c-4.8,0-8.7-3.9-8.7-8.7c0-4.8,3.9-8.7,8.7-8.7
	C342.4,1741.1,346.3,1745,346.3,1749.8L346.3,1749.8z"/>
<path class="st0" d="M299.1,1749.8c0-7.2-5.9-13-13-13c-7.2,0-13,5.8-13,13s5.9,13,13,13S299.1,1757,299.1,1749.8L299.1,1749.8z
	 M294.7,1749.8c0,4.8-3.9,8.7-8.7,8.7c-4.8,0-8.7-3.9-8.7-8.7c0-4.8,3.9-8.7,8.7-8.7C290.9,1741.1,294.7,1745,294.7,1749.8
	L294.7,1749.8z"/>
<path class="st3" d="M103.9,1739h51.5c6,0,10.8,4.8,10.8,10.8s-4.8,10.8-10.8,10.8h-51.5c-6,0-10.8-4.8-10.8-10.8
	C93.1,1743.8,97.9,1739,103.9,1739L103.9,1739z"/>
<path class="st3" d="M140.5,1724v51.5c0,6-4.8,10.8-10.8,10.8s-10.8-4.8-10.8-10.8V1724c0-6,4.8-10.8,10.8-10.8
	S140.5,1718,140.5,1724L140.5,1724z"/>
<path class="st0" d="M129.7,1711c-7.2,0-13,5.8-13,13v12.8h-12.8c-7.2,0-13,5.8-13,13s5.8,13,13,13h12.8v12.8c0,7.2,5.8,13,13,13
	s13-5.8,13-13v-12.8h12.8c7.2,0,13-5.8,13-13s-5.8-13-13-13h-12.8V1724C142.7,1716.9,136.9,1711,129.7,1711L129.7,1711z
	 M129.7,1715.4c4.8,0,8.7,3.8,8.7,8.7v17.1h17.1c4.8,0,8.7,3.8,8.7,8.7c0,4.8-3.8,8.7-8.7,8.7h-17.1v17.1c0,4.8-3.8,8.7-8.7,8.7
	c-4.8,0-8.7-3.8-8.7-8.7v-17.1h-17.1c-4.8,0-8.7-3.8-8.7-8.7c0-4.8,3.8-8.7,8.7-8.7H121V1724C121,1719.2,124.9,1715.4,129.7,1715.4
	L129.7,1715.4z"/>
<path class="st14" d="M209.8,1848c0,5.9-2.3,11.5-6.5,15.6c-4.1,4.1-9.7,6.5-15.6,6.5c-12.2,0-22.1-9.9-22.1-22.1
	s9.9-22.1,22.1-22.1c5.8,0,11.5,2.3,15.6,6.5C207.5,1836.6,209.8,1842.2,209.8,1848L209.8,1848z"/>
<path class="st13" d="M202.9,1842.5c0,8.4-6.8,15.1-15.1,15.1c-8.4,0-15.1-6.8-15.1-15.1c0-4,1.6-7.9,4.4-10.7
	c2.8-2.8,6.7-4.4,10.7-4.4s7.9,1.6,10.7,4.4C201.3,1834.7,202.9,1838.5,202.9,1842.5L202.9,1842.5z"/>
<path class="st0" d="M187.8,1823.8c-13.4,0-24.2,10.9-24.2,24.2c0,13.4,10.9,24.2,24.2,24.2c13.4,0,24.2-10.9,24.2-24.2
	C212,1834.7,201.1,1823.8,187.8,1823.8L187.8,1823.8z M187.8,1828.1c11,0,19.9,8.9,19.9,19.9s-8.9,19.9-19.9,19.9
	s-19.9-8.9-19.9-19.9S176.8,1828.1,187.8,1828.1L187.8,1828.1z"/>
<path class="st15" d="M275.8,1848c0,5.9-2.3,11.5-6.5,15.6c-4.1,4.1-9.7,6.5-15.6,6.5c-12.2,0-22.1-9.9-22.1-22.1
	s9.9-22.1,22.1-22.1c5.8,0,11.5,2.3,15.6,6.5C273.5,1836.6,275.8,1842.2,275.8,1848L275.8,1848z"/>
<path class="st12" d="M268.9,1842.5c0,8.4-6.8,15.1-15.1,15.1c-8.4,0-15.1-6.8-15.1-15.1c0-4,1.6-7.9,4.4-10.7
	c2.8-2.8,6.7-4.4,10.7-4.4c4,0,7.9,1.6,10.7,4.4C267.3,1834.7,268.9,1838.5,268.9,1842.5L268.9,1842.5z"/>
<path class="st0" d="M253.8,1823.8c-13.4,0-24.2,10.9-24.2,24.2c0,13.4,10.9,24.2,24.2,24.2c13.4,0,24.2-10.9,24.2-24.2
	C278,1834.7,267.1,1823.8,253.8,1823.8L253.8,1823.8z M253.8,1828.1c11,0,19.9,8.9,19.9,19.9s-8.9,19.9-19.9,19.9
	s-19.9-8.9-19.9-19.9S242.8,1828.1,253.8,1828.1L253.8,1828.1z"/>
<path class="st0" d="M129.7,1674.1c-41.8,0-75.7,33.9-75.7,75.7c0,41.8,33.9,75.7,75.7,75.7s75.7-33.9,75.7-75.7
	S171.5,1674.1,129.7,1674.1L129.7,1674.1z M129.7,1678.5c39.4,0,71.3,31.9,71.3,71.3s-31.9,71.3-71.3,71.3s-71.3-31.9-71.3-71.3
	C58.4,1710.4,90.3,1678.5,129.7,1678.5L129.7,1678.5z"/>
<path class="st0" d="M282.9,1679.9c-38.6,16-56.9,60.3-40.9,98.8c16,38.6,60.3,56.9,98.8,40.9c38.6-16,56.9-60.3,40.9-98.8
	C365.8,1682.3,321.5,1663.9,282.9,1679.9L282.9,1679.9z M284.6,1683.9c36.4-15.1,78.1,2.2,93.2,38.6c15.1,36.4-2.2,78.1-38.6,93.2
	s-78.1-2.2-93.2-38.6S248.2,1699,284.6,1683.9L284.6,1683.9z"/>
<path class="st0" d="M129.2,1674.1c-29.5,0.2-57.4,17.8-69.4,46.7c-2.5,6.1-4.2,12.5-5.1,19.2l-19,144.7c-0.3,2.4-0.5,4.8-0.5,7.2
	c0,30.3,24.6,55,55,55c22.3,0,42.3-13.4,50.8-34l0,0l13.2-30.3c9,8.7,21,13.7,33.6,13.7h66c12.6,0,24.6-5,33.6-13.7l13.2,30.3l0,0
	c8.5,20.6,28.6,34,50.8,34c30.3,0,55-24.6,55-55c0-2.4-0.2-4.8-0.5-7.2l-19-144.6l0,0l0,0v-0.1c-0.9-6.6-2.6-13-5.1-19.1
	c-12-28.9-39.9-46.5-69.4-46.7c-9.8-0.1-19.8,1.8-29.5,5.8c-10.4,4.3-19.6,10.9-27.1,19.2h-70c-7.5-8.3-16.8-14.9-27.1-19.2
	C149,1675.9,139,1674.1,129.2,1674.1L129.2,1674.1z M129.2,1678.5c9.3-0.1,18.7,1.7,27.8,5.4c10.1,4.2,19,10.6,26.2,18.8l1.6-3.1
	l-0.2,3.8l5.6,0.6l-0.5-0.6h68l0.6-0.7c7.2-8.2,16.2-14.6,26.2-18.8c9.1-3.8,18.5-5.5,27.8-5.4c27.8,0.2,54.1,16.7,65.4,44
	c2.4,5.7,4,11.7,4.8,17.9v0.2l0.1,0.3l19,144.4c0.3,2.2,0.4,4.4,0.4,6.6c0,28-22.6,50.6-50.6,50.6c-20.5,0-39-12.4-46.8-31.3l0,0
	l-15.9-36.3l-2.3,2.5c-8.3,9.3-20.2,14.6-32.7,14.6h-66c-12.5,0-24.4-5.3-32.7-14.6l-2.3-2.5l-15.9,36.3l0,0
	c-7.8,19-26.3,31.3-46.8,31.3c-28,0-50.6-22.6-50.6-50.6c0-2.2,0.1-4.4,0.4-6.6l19-144.7c0.8-6.3,2.5-12.4,4.8-18.1
	C75.1,1695.2,101.4,1678.7,129.2,1678.5L129.2,1678.5z"/>
<path class="st3" d="M189.9,1839c0,3.1-2.5,5.6-5.6,5.6c-1.5,0-2.9-0.6-4-1.7s-1.6-2.5-1.6-4s0.6-2.9,1.6-4c1.1-1.1,2.5-1.7,4-1.7
	C187.4,1833.4,189.9,1835.9,189.9,1839L189.9,1839z"/>
<path class="st3" d="M255.9,1839c0,3.1-2.5,5.6-5.6,5.6c-1.5,0-2.9-0.6-4-1.7s-1.7-2.5-1.7-4s0.6-2.9,1.7-4c1.1-1.1,2.5-1.7,4-1.7
	C253.4,1833.4,255.9,1835.9,255.9,1839L255.9,1839z"/>
<g>
	<g>
		<path class="st0" d="M391.4,134.3v50.5c0,50.7,42.4,93.1,93.1,93.1s93.1-42.4,93.1-93.1v-50.5L391.4,134.3L391.4,134.3z"/>
		<path class="st0" d="M827,134.3v50.5c0,50.7,42.4,93.1,93.1,93.1s93.1-42.4,93.1-93.1v-50.5L827,134.3L827,134.3z"/>
		<path class="st0" d="M484.5,9.1c-50.7,0-93.1,42.4-93.1,93.1v50.5h186.2v-50.5C577.6,51.5,535.2,9.1,484.5,9.1L484.5,9.1z"/>
		<path class="st0" d="M920.1,9.1c-50.7,0-93.1,42.4-93.1,93.1v50.5h186.2v-50.5C1013.2,51.5,970.8,9.1,920.1,9.1L920.1,9.1z"/>
		<path class="st0" d="M274.8,540.4v320.9c0,63.3,52.5,115.8,115.8,115.8H1014c63.3,0,115.8-52.5,115.8-115.8V540.4h-103.7v320.9
			c0,7.6-4.5,12.1-12.2,12.1H390.6c-7.6,0-12.2-4.5-12.2-12.1V540.4H274.8z"/>
		<path class="st0" d="M390.6,122.2c-63.3,0-115.8,52.6-115.8,115.8v320.9h103.6V238c0-7.6,4.5-12.2,12.2-12.2H1014
			c7.6,0,12.2,4.5,12.2,12.2v320.9h103.6V238c0-63.3-52.6-115.8-115.8-115.8H390.6z"/>
		<path class="st16" d="M390.6,174H1014c35.4,0,64,28.5,64,64v623.4c0,35.4-28.5,64-64,64H390.6c-35.4,0-64-28.5-64-64V238
			C326.6,202.5,355.2,174,390.6,174L390.6,174z"/>
		<rect x="435.7" y="283.1" class="st17" width="533.1" height="179"/>
		<rect x="435.7" y="467.2" class="st17" width="533.1" height="89.5"/>
		<rect x="435.7" y="556.7" class="st3" width="533.1" height="260.2"/>
		<path class="st0" d="M313.7,540.4v320.9c0,42.4,34.5,76.9,76.9,76.9H1014c42.4,0,76.9-34.5,76.9-76.9V540.4H1065v320.9
			c0,28.5-22.5,51-51,51H390.6c-28.5,0-51-22.5-51-51V540.4H313.7z"/>
		<path class="st0" d="M422.8,540.4v288.8h559V540.4h-25.9v262.8H448.7V540.4H422.8z"/>
		<path class="st0" d="M390.6,161c-42.4,0-76.9,34.5-76.9,76.9v320.9h25.9V238c0-28.5,22.5-51,51-51H1014c28.5,0,51,22.5,51,51
			v320.9h25.9V238c0-42.4-34.5-76.9-76.9-76.9H390.6V161z"/>
		<rect x="778.2" y="283.1" class="st0" width="25.9" height="533.2"/>
		<rect x="600.5" y="283.1" class="st0" width="25.9" height="533.2"/>
		<rect x="435.7" y="625.6" class="st0" width="533.1" height="25.9"/>
		<rect x="435.7" y="447.8" class="st0" width="533.1" height="25.9"/>
		<path class="st0" d="M422.8,270.1v288.7h25.9V296h507.2v262.8h25.9V270.1H422.8z"/>
		<path class="st3" d="M484.5,60.9c22.9,0,41.3,18.4,41.3,41.3v82.6c0,22.9-18.4,41.3-41.3,41.3c-22.9,0-41.3-18.4-41.3-41.3v-82.6
			C443.2,79.4,461.6,60.9,484.5,60.9L484.5,60.9z"/>
		<path class="st0" d="M430.2,134.3v50.5c0,29.8,24.4,54.3,54.3,54.3c29.8,0,54.2-24.4,54.2-54.3v-50.5h-25.9v50.5
			c0,15.9-12.4,28.4-28.3,28.4c-15.9,0-28.4-12.4-28.4-28.4v-50.5H430.2z"/>
		<path class="st3" d="M920.1,60.9c22.9,0,41.3,18.4,41.3,41.3v82.6c0,22.9-18.4,41.3-41.3,41.3c-22.9,0-41.3-18.4-41.3-41.3v-82.6
			C878.8,79.4,897.2,60.9,920.1,60.9L920.1,60.9z"/>
		<path class="st0" d="M865.8,134.3v50.5c0,29.8,24.4,54.3,54.2,54.3s54.3-24.4,54.3-54.3v-50.5h-25.9v50.5
			c0,15.9-12.4,28.4-28.4,28.4c-15.9,0-28.3-12.4-28.3-28.4v-50.5H865.8z"/>
		<path class="st0" d="M484.5,48c-29.8,0-54.3,24.4-54.3,54.3v50.5h25.9v-50.5c0-15.9,12.4-28.4,28.4-28.4
			c15.9,0,28.3,12.4,28.3,28.4v50.5h25.9v-50.5C538.7,72.4,514.3,48,484.5,48L484.5,48z"/>
		<path class="st0" d="M920.1,48c-29.8,0-54.2,24.4-54.2,54.3v50.5h25.9v-50.5c0-15.9,12.4-28.4,28.3-28.4
			c15.9,0,28.4,12.4,28.4,28.4v50.5h25.9v-50.5C974.3,72.4,949.9,48,920.1,48L920.1,48z"/>
	</g>
</g>
</svg>
