<?xml version="1.0" encoding="utf-8"?>
<!-- Generator: Adobe Illustrator 26.0.3, SVG Export Plug-In . SVG Version: 6.00 Build 0)  -->
<svg version="1.1" id="Слой_1" xmlns="http://www.w3.org/2000/svg" xmlns:xlink="http://www.w3.org/1999/xlink" x="0px" y="0px"
	 viewBox="0 0 923 1000" style="enable-background:new 0 0 923 1000;" xml:space="preserve">
<style type="text/css">
	.st0{fill:#1A1A1A;}
	.st1{fill:#DAE291;}
	.st2{fill:#EA5952;}
	.st3{fill:#FFFFFF;}
</style>
<g>
	<g>
		<path class="st0" d="M391.4,134.3v50.5c0,50.7,42.4,93.1,93.1,93.1s93.1-42.4,93.1-93.1v-50.5L391.4,134.3L391.4,134.3z"/>
		<path class="st0" d="M827,134.3v50.5c0,50.7,42.4,93.1,93.1,93.1s93.1-42.4,93.1-93.1v-50.5L827,134.3L827,134.3z"/>
		<path class="st0" d="M484.5,9.1c-50.7,0-93.1,42.4-93.1,93.1v50.5h186.2v-50.5C577.6,51.5,535.2,9.1,484.5,9.1L484.5,9.1z"/>
		<path class="st0" d="M920.1,9.1c-50.7,0-93.1,42.4-93.1,93.1v50.5h186.2v-50.5C1013.2,51.5,970.8,9.1,920.1,9.1L920.1,9.1z"/>
		<path class="st0" d="M274.8,540.4v320.9c0,63.3,52.5,115.8,115.8,115.8H1014c63.3,0,115.8-52.5,115.8-115.8V540.4h-103.7v320.9
			c0,7.6-4.5,12.1-12.2,12.1H390.6c-7.6,0-12.2-4.5-12.2-12.1V540.4H274.8z"/>
		<path class="st0" d="M390.6,122.2c-63.3,0-115.8,52.6-115.8,115.8v320.9h103.6V238c0-7.6,4.5-12.2,12.2-12.2H1014
			c7.6,0,12.2,4.5,12.2,12.2v320.9h103.6V238c0-63.3-52.6-115.8-115.8-115.8H390.6z"/>
		<path class="st1" d="M390.6,174H1014c35.4,0,64,28.5,64,64v623.4c0,35.4-28.5,64-64,64H390.6c-35.4,0-64-28.5-64-64V238
			C326.6,202.5,355.2,174,390.6,174L390.6,174z"/>
		<rect x="435.7" y="283.1" class="st2" width="533.1" height="179"/>
		<rect x="435.7" y="467.2" class="st2" width="533.1" height="89.5"/>
		<rect x="435.7" y="556.7" class="st3" width="533.1" height="260.2"/>
		<path class="st0" d="M313.7,540.4v320.9c0,42.4,34.5,76.9,76.9,76.9H1014c42.4,0,76.9-34.5,76.9-76.9V540.4H1065v320.9
			c0,28.5-22.5,51-51,51H390.6c-28.5,0-51-22.5-51-51V540.4H313.7z"/>
		<path class="st0" d="M422.8,540.4v288.8h559V540.4h-25.9v262.8H448.7V540.4H422.8z"/>
		<path class="st0" d="M390.6,161c-42.4,0-76.9,34.5-76.9,76.9v320.9h25.9V238c0-28.5,22.5-51,51-51H1014c28.5,0,51,22.5,51,51
			v320.9h25.9V238c0-42.4-34.5-76.9-76.9-76.9H390.6V161z"/>
		<rect x="778.2" y="283.1" class="st0" width="25.9" height="533.2"/>
		<rect x="600.5" y="283.1" class="st0" width="25.9" height="533.2"/>
		<rect x="435.7" y="625.6" class="st0" width="533.1" height="25.9"/>
		<rect x="435.7" y="447.8" class="st0" width="533.1" height="25.9"/>
		<path class="st0" d="M422.8,270.1v288.7h25.9V296h507.2v262.8h25.9V270.1H422.8z"/>
		<path class="st3" d="M484.5,60.9c22.9,0,41.3,18.4,41.3,41.3v82.6c0,22.9-18.4,41.3-41.3,41.3s-41.3-18.4-41.3-41.3v-82.6
			C443.2,79.4,461.6,60.9,484.5,60.9L484.5,60.9z"/>
		<path class="st0" d="M430.2,134.3v50.5c0,29.8,24.4,54.3,54.3,54.3c29.8,0,54.2-24.4,54.2-54.3v-50.5h-25.9v50.5
			c0,15.9-12.4,28.4-28.3,28.4s-28.4-12.4-28.4-28.4v-50.5H430.2z"/>
		<path class="st3" d="M920.1,60.9c22.9,0,41.3,18.4,41.3,41.3v82.6c0,22.9-18.4,41.3-41.3,41.3c-22.9,0-41.3-18.4-41.3-41.3v-82.6
			C878.8,79.4,897.2,60.9,920.1,60.9L920.1,60.9z"/>
		<path class="st0" d="M865.8,134.3v50.5c0,29.8,24.4,54.3,54.2,54.3s54.3-24.4,54.3-54.3v-50.5h-25.9v50.5
			c0,15.9-12.4,28.4-28.4,28.4c-15.9,0-28.3-12.4-28.3-28.4v-50.5H865.8z"/>
		<path class="st0" d="M484.5,48c-29.8,0-54.3,24.4-54.3,54.3v50.5h25.9v-50.5c0-15.9,12.4-28.4,28.4-28.4
			c15.9,0,28.3,12.4,28.3,28.4v50.5h25.9v-50.5C538.7,72.4,514.3,48,484.5,48L484.5,48z"/>
		<path class="st0" d="M920.1,48c-29.8,0-54.2,24.4-54.2,54.3v50.5h25.9v-50.5c0-15.9,12.4-28.4,28.3-28.4
			c15.9,0,28.4,12.4,28.4,28.4v50.5h25.9v-50.5C974.3,72.4,949.9,48,920.1,48L920.1,48z"/>
	</g>
</g>
</svg>
