<?xml version="1.0" encoding="utf-8"?>
<!-- Generator: Adobe Illustrator 26.0.3, SVG Export Plug-In . SVG Version: 6.00 Build 0)  -->
<svg version="1.1" id="Слой_1" xmlns="http://www.w3.org/2000/svg" xmlns:xlink="http://www.w3.org/1999/xlink" x="0px" y="0px"
	 viewBox="0 0 923 1000" style="enable-background:new 0 0 923 1000;" xml:space="preserve">
<style type="text/css">
	.st0{fill:#1A1A1A;}
	.st1{fill:#3494BF;}
	.st2{fill:#C9E3E7;}
	.st3{fill:#FFFFFF;}
	.st4{fill:#ED6C50;}
	.st5{fill:#7E7E7E;}
</style>
<g>
	<path class="st0" d="M374.2,495.3c0,1.9-0.1,3.9-0.1,5.9c0,276.4,224.8,501.2,501.3,501.2s501.2-224.8,501.2-501.2
		c0-1.9-0.1-4-0.1-5.9h-66.3c0,1.9,0.1,3.9,0.1,5.9c0,240.6-194.3,434.9-434.9,434.9s-435-194.3-435-434.9c0-1.9,0.1-4,0.1-5.9
		H374.2z"/>
	<path class="st0" d="M875.4,0C599,0,374.2,224.8,374.2,501.3c0,1.9,0.1,3.9,0.1,5.9h66.3c0-1.9-0.1-3.9-0.1-5.9
		c0-240.7,194.4-435,435-435s434.9,194.3,434.9,435c0,1.9-0.1,3.9-0.1,5.9h66.3c0-1.9,0.1-3.9,0.1-5.9
		C1376.6,224.8,1151.8,0,875.4,0L875.4,0z"/>
	<path class="st1" d="M1343.4,501.3c0,124.2-49.3,243.2-137.1,331c-87.7,87.7-206.8,137-330.9,137s-243.2-49.3-331-137.1
		c-87.7-87.7-137.1-206.8-137.1-330.9c0-124.2,49.3-243.2,137.1-331s206.8-137.1,331-137.1s243.2,49.3,331,137.1
		C1294.2,258,1343.4,377.1,1343.4,501.3L1343.4,501.3z"/>
	<path class="st2" d="M875.4,126.1c-99.5,0-194.8,39.5-265.3,109.9c-70.3,70.3-109.9,165.8-109.9,265.3
		c0,207.2,168,375.1,375.1,375.1c99.5,0,194.9-39.5,265.3-109.9c70.3-70.3,109.9-165.8,109.9-265.3s-39.5-194.9-109.9-265.3
		C1070.2,165.7,974.9,126.1,875.4,126.1L875.4,126.1z"/>
	<path class="st3" d="M841.3,184c-75.1,0-147,29.8-200.1,82.9C588.1,320,558.3,392,558.3,467c0,156.3,126.7,283,283,283
		c75.1,0,147-29.8,200.1-82.8c53.1-53.1,82.9-125,82.9-200.1s-29.8-147-82.9-200.1C988.3,213.9,916.2,184,841.3,184L841.3,184z"/>
	<path class="st0" d="M875.4,501.2c6.3-6.3,16.3-6.3,22.6,0l194.9,194.9c6.3,6.3,6.3,16.3,0,22.6s-16.3,6.3-22.6,0L875.4,523.7
		C869.1,517.6,869.1,507.4,875.4,501.2L875.4,501.2z"/>
	<path class="st4" d="M875.4,241.2c16.5,0,29.8,13.3,29.8,29.8v200.4c0,16.5-13.3,29.8-29.8,29.8s-29.8-13.3-29.8-29.8V271
		C845.7,254.5,858.9,241.2,875.4,241.2L875.4,241.2z"/>
	<path class="st0" d="M875.4,231.7c-21.6,0-39.3,17.7-39.3,39.3v106.1h19.1V271c0-11.3,8.9-20.2,20.2-20.2s20.2,8.8,20.2,20.2v106.1
		h19.1V271C914.7,249.4,897,231.7,875.4,231.7L875.4,231.7z"/>
	<path class="st4" d="M705.8,599.1c-8.3-14.3-3.4-32.4,10.9-40.7l118-68.1c14.3-8.2,32.4-3.4,40.7,10.9c8.2,14.3,3.4,32.4-10.9,40.7
		l-118,68C732.2,618.2,714,613.3,705.8,599.1L705.8,599.1z"/>
	<path class="st0" d="M776.7,514.3l-64.1,37c-18.1,10.5-24.4,33.8-13.9,52c10.5,18.1,33.8,24.4,52,13.9l64.2-37l-8.3-14.4l-64.1,37
		c-10.4,6-23.3,2.5-29.3-7.9c-6-10.4-2.5-23.3,7.9-29.3l64.2-37L776.7,514.3z"/>
	<path class="st0" d="M836.1,365.3v106.1c0,21.6,17.7,39.3,39.3,39.3c21.6,0,39.3-17.7,39.3-39.3V365.3h-19.1v106.1
		c0,11.3-8.9,20.2-20.2,20.2s-20.2-8.9-20.2-20.2V365.3H836.1z"/>
	<path class="st0" d="M848.6,478.1c-6.2,0.2-12.3,1.8-18,5.1l-64.2,37l8.3,14.4l64.2-37c10.4-6,23.2-2.5,29.3,7.9
		c6,10.4,2.6,23.3-7.9,29.3l-64.1,36.9l8.3,14.4l64.2-37c18.1-10.5,24.3-33.8,13.9-52C875.4,484.6,862,477.8,848.6,478.1
		L848.6,478.1z"/>
	<path class="st5" d="M875.4,448.6c-13.9,0-27.4,5.6-37.2,15.4c-9.9,9.9-15.4,23.2-15.4,37.2c0,29.1,23.6,52.7,52.7,52.7
		c13.9,0,27.4-5.6,37.2-15.4c9.9-9.9,15.4-23.2,15.4-37.2c0-13.9-5.6-27.4-15.4-37.2C902.8,454.1,889.4,448.6,875.4,448.6
		L875.4,448.6z"/>
	<path class="st0" d="M399.1,495.3c0,1.9-0.1,3.9-0.1,5.9c0,263,213.3,476.4,476.4,476.4s476.3-213.3,476.3-476.4
		c0-1.9-0.1-3.9-0.1-5.9h-16.6c0,1.9,0.1,3.9,0.1,5.9c0,254-205.7,459.8-459.7,459.8S415.6,755.3,415.6,501.3c0-1.9,0.1-3.9,0.1-5.9
		L399.1,495.3L399.1,495.3z"/>
	<path class="st0" d="M492.2,495.3c0,1.9-0.1,3.9-0.1,5.9c0,211.7,171.8,383.3,383.3,383.3c211.7,0,383.3-171.8,383.3-383.3
		c0-1.9-0.1-4-0.1-5.9h-16.6c0,1.9,0.1,3.9,0.1,5.9C1242.2,704,1078,868,875.4,868c-202.7,0-366.8-164.2-366.8-366.8
		c0-1.9,0.1-4,0.1-5.9L492.2,495.3L492.2,495.3z"/>
	<path class="st0" d="M814.8,495.3c-0.2,1.9-0.3,3.9-0.3,5.9c0,33.6,27.4,60.9,60.9,60.9c33.6,0,60.9-27.4,60.9-60.9
		c0-2-0.1-4-0.3-5.9h-16.7c0.3,1.9,0.4,3.9,0.4,5.9c0,24.6-19.8,44.4-44.4,44.4s-44.4-19.8-44.4-44.4c0-2,0.2-4,0.4-5.9L814.8,495.3
		L814.8,495.3z"/>
	<path class="st0" d="M875.4,175.6c-11.5,0-20.8,9.3-20.8,20.8s9.3,20.8,20.8,20.8c5.5,0,10.8-2.2,14.7-6.1
		c3.9-3.9,6.1-9.2,6.1-14.7c0-5.5-2.2-10.8-6.1-14.7C886.2,177.8,880.9,175.6,875.4,175.6L875.4,175.6z"/>
	<path class="st0" d="M875.4,785.3c-11.5,0-20.8,9.3-20.8,20.8s9.3,20.8,20.8,20.8c5.5,0,10.8-2.2,14.7-6.1
		c3.9-3.9,6.1-9.2,6.1-14.7s-2.2-10.8-6.1-14.7C886.2,787.5,880.9,785.3,875.4,785.3L875.4,785.3z"/>
	<path class="st0" d="M1180.2,480.5c-5.5,0-10.8,2.2-14.7,6.1c-3.9,3.9-6.1,9.2-6.1,14.7c0,5.5,2.2,10.8,6.1,14.7
		c3.9,3.9,9.2,6.1,14.7,6.1c11.5,0,20.8-9.3,20.8-20.8S1191.7,480.5,1180.2,480.5L1180.2,480.5z"/>
	<path class="st0" d="M570.6,480.5c-5.5,0-10.8,2.2-14.7,6.1s-6.1,9.2-6.1,14.7c0,11.5,9.3,20.8,20.8,20.8s20.8-9.3,20.8-20.8
		c0-5.5-2.2-10.8-6.1-14.7C581.4,482.7,576.1,480.5,570.6,480.5L570.6,480.5z"/>
	<path class="st0" d="M1026.8,216.5c-7.1,0.3-13.4,4.2-17,10.4c-2.8,4.7-3.5,10.5-2.1,15.8c1.4,5.3,4.9,9.9,9.7,12.6
		c4.7,2.8,10.5,3.5,15.8,2.1c5.3-1.4,9.9-4.9,12.6-9.7c2.8-4.7,3.5-10.5,2.1-15.8c-1.4-5.3-4.9-9.9-9.7-12.6
		C1034.7,217.2,1030.8,216.3,1026.8,216.5L1026.8,216.5z"/>
	<path class="st0" d="M722,744.4c-7.1,0.3-13.4,4.2-17,10.4c-2.8,4.7-3.5,10.5-2.1,15.8c1.4,5.3,4.9,9.9,9.7,12.6
		c10,5.7,22.7,2.4,28.4-7.6c2.8-4.7,3.5-10.5,2.1-15.8c-1.4-5.3-4.9-9.9-9.7-12.6C729.9,745.2,726,744.3,722,744.4L722,744.4z"/>
	<path class="st0" d="M1138.9,328.1c-3.5,0.1-6.8,1-9.9,2.8c-4.7,2.8-8.3,7.3-9.7,12.6c-1.4,5.3-0.7,11,2.1,15.8
		c2.8,4.7,7.3,8.3,12.6,9.7c5.3,1.4,11,0.7,15.8-2.1c4.7-2.8,8.3-7.3,9.7-12.6c1.4-5.3,0.7-11-2.1-15.8
		C1153.6,331.9,1146.5,327.8,1138.9,328.1L1138.9,328.1z"/>
	<path class="st0" d="M610.9,632.9c-3.5,0.1-6.8,1-9.9,2.8c-10,5.7-13.4,18.4-7.6,28.4c2.8,4.7,7.3,8.3,12.6,9.7
		c5.3,1.4,11,0.7,15.8-2.1c10-5.7,13.4-18.4,7.6-28.4C625.6,636.7,618.5,632.7,610.9,632.9L610.9,632.9z"/>
	<path class="st0" d="M724,216.5c-4-0.2-7.9,0.8-11.4,2.8c-4.7,2.8-8.3,7.3-9.7,12.6c-1.4,5.3-0.7,11,2.1,15.8
		c2.8,4.7,7.3,8.3,12.6,9.7s11,0.7,15.8-2.1c4.7-2.8,8.3-7.3,9.7-12.6c1.4-5.3,0.7-11-2.1-15.8C737.5,220.7,731,216.8,724,216.5
		L724,216.5z"/>
	<path class="st0" d="M1028.8,744.4c-4-0.2-7.9,0.8-11.4,2.8c-4.7,2.8-8.3,7.3-9.7,12.6s-0.7,11,2.1,15.8c5.7,10,18.4,13.4,28.4,7.6
		c4.7-2.8,8.3-7.3,9.7-12.6c1.4-5.3,0.7-11-2.1-15.8C1042.3,748.7,1035.8,744.8,1028.8,744.4L1028.8,744.4z"/>
	<path class="st0" d="M611.9,328.1c-7.6-0.2-14.7,3.8-18.5,10.4c-2.8,4.7-3.5,10.5-2.1,15.8c1.4,5.3,4.9,9.9,9.7,12.6
		c10,5.7,22.7,2.4,28.4-7.6s2.4-22.7-7.6-28.4C618.8,329.1,615.4,328.1,611.9,328.1L611.9,328.1z"/>
	<path class="st0" d="M1139.9,632.9c-7.6-0.2-14.7,3.8-18.5,10.4c-5.7,10-2.4,22.7,7.6,28.4c4.7,2.8,10.5,3.5,15.8,2.1
		c5.3-1.4,9.9-4.9,12.6-9.7c5.7-10,2.4-22.7-7.6-28.4C1146.7,633.9,1143.4,632.9,1139.9,632.9L1139.9,632.9z"/>
	<path class="st3" d="M861.8,472.4c-9,0-16.3,7.3-16.3,16.3c0,4.3,1.7,8.5,4.7,11.5c3,3,7.2,4.7,11.5,4.7c9,0,16.3-7.3,16.3-16.3
		C878.1,479.7,870.8,472.4,861.8,472.4L861.8,472.4z"/>
	<path class="st0" d="M875.4,24.9c-263,0-476.4,213.3-476.4,476.3c0,1.9,0.1,3.9,0.1,5.9h16.6c0-1.9-0.1-3.9-0.1-5.9
		c0-254,205.7-459.7,459.8-459.7c254,0,459.7,205.7,459.7,459.7c0,1.9-0.1,3.9-0.1,5.9h16.6c0-1.9,0.1-3.9,0.1-5.9
		C1351.7,238.2,1138.4,24.9,875.4,24.9L875.4,24.9z"/>
	<path class="st0" d="M875.4,117.8c-211.7,0-383.3,171.8-383.3,383.3c0,1.9,0.1,3.9,0.1,5.8h16.6c0-1.9-0.1-3.9-0.1-5.8
		c0-202.7,164.2-366.8,366.8-366.8c202.7,0,366.8,164.2,366.8,366.8c0,1.9-0.1,3.9-0.1,5.8h16.6c0-1.9,0.1-3.9,0.1-5.8
		C1258.7,289.6,1087.1,117.8,875.4,117.8L875.4,117.8z"/>
	<path class="st0" d="M875.4,440.3c-33.6,0-60.9,27.4-60.9,60.9c0,1.9,0.1,4,0.3,5.9h16.7c-0.3-1.9-0.4-3.9-0.4-5.9
		c0-24.6,19.8-44.4,44.4-44.4c24.6,0,44.4,19.8,44.4,44.4c0,2-0.2,4-0.4,5.9h16.7c0.2-1.9,0.3-3.9,0.3-5.9
		C936.4,467.7,909,440.3,875.4,440.3L875.4,440.3z"/>
</g>
</svg>
