<?xml version="1.0" encoding="utf-8"?>
<!-- Generator: Adobe Illustrator 26.0.3, SVG Export Plug-In . SVG Version: 6.00 Build 0)  -->
<svg version="1.1" id="Слой_1" xmlns="http://www.w3.org/2000/svg" xmlns:xlink="http://www.w3.org/1999/xlink" x="0px" y="0px"
	 viewBox="0 0 923 1000" style="enable-background:new 0 0 923 1000;" xml:space="preserve">
<style type="text/css">
	.st0{fill:#1A1A1A;}
	.st1{fill:#3494BF;}
	.st2{fill:#C9E3E7;}
	.st3{fill:#FFFFFF;}
	.st4{fill:#ED6C50;}
	.st5{fill:#7E7E7E;}
</style>
<g>
	<path class="st0" d="M219.2,485.3c0,2.3-0.1,4.6-0.1,7c0,327,266,592.9,593,592.9S1405,819.3,1405,492.3c0-2.3-0.1-4.7-0.1-7h-78.4
		c0,2.3,0.1,4.6,0.1,7c0,284.6-229.9,514.5-514.5,514.5c-284.6,0-514.6-229.9-514.6-514.5c0-2.3,0.1-4.7,0.1-7H219.2z"/>
	<path class="st0" d="M812.1-100.7c-327,0-593,266-593,593c0,2.3,0.1,4.6,0.1,7h78.4c0-2.3-0.1-4.6-0.1-7
		c0-284.7,230-514.6,514.6-514.6s514.5,229.9,514.5,514.6c0,2.3-0.1,4.6-0.1,7h78.4c0-2.3,0.1-4.6,0.1-7
		C1405,165.2,1139.1-100.7,812.1-100.7L812.1-100.7z"/>
	<path class="st1" d="M1365.8,492.3c0,146.9-58.3,287.7-162.2,391.6C1099.8,987.7,959,1046,812.1,1046s-287.7-58.3-391.6-162.2
		C316.7,780,258.3,639.1,258.3,492.3c0-146.9,58.3-287.7,162.2-391.6S665.2-61.5,812.1-61.5s287.7,58.3,391.6,162.2
		C1307.5,204.5,1365.8,345.4,1365.8,492.3L1365.8,492.3z"/>
	<path class="st2" d="M812.1,48.5c-117.7,0-230.5,46.7-313.8,130c-83.2,83.2-130,196.1-130,313.8C368.3,737.4,567,936,812,936
		c117.7,0,230.6-46.7,313.8-130c83.2-83.2,130-196.1,130-313.8s-46.7-230.6-130-313.8C1042.6,95.3,929.8,48.5,812.1,48.5L812.1,48.5
		z"/>
	<path class="st3" d="M771.7,117c-88.8,0-173.9,35.3-236.7,98.1S436.9,363,436.9,451.8c0,184.9,149.9,334.8,334.8,334.8
		c88.8,0,173.9-35.3,236.7-98c62.8-62.8,98.1-147.9,98.1-236.7s-35.3-173.9-98.1-236.7C945.6,152.3,860.4,117,771.7,117L771.7,117z"
		/>
	<path class="st0" d="M812.1,492.2c7.4-7.4,19.3-7.4,26.7,0l230.6,230.6c7.4,7.4,7.4,19.3,0,26.7s-19.3,7.4-26.7,0L812.1,518.9
		C804.7,511.6,804.7,499.6,812.1,492.2L812.1,492.2z"/>
	<path class="st4" d="M812.1,184.7c19.5,0,35.2,15.7,35.2,35.2V457c0,19.5-15.7,35.2-35.2,35.2s-35.2-15.7-35.2-35.2V219.9
		C776.9,200.4,792.6,184.7,812.1,184.7L812.1,184.7z"/>
	<path class="st0" d="M812.1,173.4c-25.6,0-46.5,20.9-46.5,46.5v125.5h22.6V219.9c0-13.4,10.5-23.9,23.9-23.9
		c13.4,0,23.9,10.4,23.9,23.9v125.5h22.6V219.9C858.6,194.4,837.7,173.4,812.1,173.4L812.1,173.4z"/>
	<path class="st4" d="M611.5,608.1c-9.8-16.9-4-38.3,12.9-48.1L764,479.4c16.9-9.7,38.3-4,48.1,12.9c9.7,16.9,4,38.3-12.9,48.1
		l-139.6,80.5C642.7,630.7,621.2,624.9,611.5,608.1L611.5,608.1z"/>
	<path class="st0" d="M695.3,507.7l-75.8,43.8c-21.4,12.4-28.9,40-16.5,61.5c12.4,21.4,40,28.9,61.5,16.5l75.9-43.8l-9.8-17
		l-75.8,43.8c-12.3,7.1-27.6,3-34.7-9.3c-7.1-12.3-3-27.6,9.3-34.7l75.9-43.8L695.3,507.7z"/>
	<path class="st0" d="M765.6,331.5V457c0,25.6,20.9,46.5,46.5,46.5c25.6,0,46.5-20.9,46.5-46.5V331.5H836V457
		c0,13.4-10.5,23.9-23.9,23.9c-13.4,0-23.9-10.5-23.9-23.9V331.5H765.6z"/>
	<path class="st0" d="M780.4,464.9c-7.3,0.2-14.6,2.1-21.3,6l-75.9,43.8l9.8,17l75.9-43.8c12.3-7.1,27.5-3,34.7,9.3
		c7.1,12.3,3.1,27.6-9.3,34.7l-75.8,43.7l9.8,17l75.9-43.8c21.4-12.4,28.8-40,16.5-61.5C812.1,472.6,796.3,464.5,780.4,464.9
		L780.4,464.9z"/>
	<path class="st5" d="M812.1,430c-16.5,0-32.4,6.6-44,18.2c-11.7,11.7-18.2,27.5-18.2,44c0,34.4,27.9,62.3,62.3,62.3
		c16.5,0,32.4-6.6,44-18.2c11.7-11.7,18.2-27.5,18.2-44s-6.6-32.4-18.2-44C844.5,436.5,828.6,430,812.1,430L812.1,430z"/>
	<path class="st0" d="M248.6,485.3c0,2.3-0.1,4.6-0.1,7c0,311.1,252.4,563.6,563.6,563.6s563.5-252.4,563.5-563.6
		c0-2.3-0.1-4.6-0.1-7h-19.6c0,2.3,0.1,4.6,0.1,7c0,300.5-243.4,544-543.9,544s-544-243.4-544-544c0-2.3,0.1-4.6,0.1-7L248.6,485.3
		L248.6,485.3z"/>
	<path class="st0" d="M358.7,485.3c0,2.3-0.1,4.6-0.1,7c0,250.4,203.2,453.5,453.5,453.5c250.4,0,453.5-203.2,453.5-453.5
		c0-2.3-0.1-4.7-0.1-7h-19.6c0,2.3,0.1,4.6,0.1,7c0,239.8-194.2,433.9-433.9,433.9c-239.8,0-433.9-194.2-433.9-433.9
		c0-2.3,0.1-4.7,0.1-7L358.7,485.3L358.7,485.3z"/>
	<path class="st0" d="M740.4,485.3c-0.2,2.3-0.3,4.6-0.3,7c0,39.7,32.4,72.1,72.1,72.1s72.1-32.4,72.1-72.1c0-2.4-0.1-4.7-0.3-7
		h-19.7c0.3,2.3,0.5,4.6,0.5,7c0,29.1-23.4,52.5-52.5,52.5s-52.5-23.4-52.5-52.5c0-2.4,0.2-4.7,0.5-7L740.4,485.3L740.4,485.3z"/>
	<path class="st0" d="M812.1,107c-13.6,0-24.6,11-24.6,24.6s11,24.6,24.6,24.6c6.5,0,12.8-2.6,17.4-7.2c4.6-4.6,7.2-10.9,7.2-17.4
		s-2.6-12.8-7.2-17.4C824.9,109.6,818.6,107,812.1,107L812.1,107z"/>
	<path class="st0" d="M812.1,828.3c-13.6,0-24.6,11-24.6,24.6s11,24.6,24.6,24.6c6.5,0,12.8-2.6,17.4-7.2c4.6-4.6,7.2-10.9,7.2-17.4
		s-2.6-12.8-7.2-17.4C824.9,830.9,818.6,828.3,812.1,828.3L812.1,828.3z"/>
	<path class="st0" d="M1172.7,467.7c-6.5,0-12.8,2.6-17.4,7.2c-4.6,4.6-7.2,10.9-7.2,17.4s2.6,12.8,7.2,17.4
		c4.6,4.6,10.9,7.2,17.4,7.2c13.6,0,24.6-11,24.6-24.6S1186.3,467.7,1172.7,467.7L1172.7,467.7z"/>
	<path class="st0" d="M451.5,467.7c-6.5,0-12.8,2.6-17.4,7.2s-7.2,10.9-7.2,17.4c0,13.6,11,24.6,24.6,24.6c13.6,0,24.6-11,24.6-24.6
		c0-6.5-2.6-12.8-7.2-17.4C464.3,470.3,458,467.7,451.5,467.7L451.5,467.7z"/>
	<path class="st0" d="M991.2,155.4c-8.4,0.4-15.9,5-20.1,12.3c-3.3,5.6-4.1,12.4-2.5,18.7c1.7,6.3,5.8,11.7,11.5,14.9
		c5.6,3.3,12.4,4.1,18.7,2.5c6.3-1.7,11.7-5.8,14.9-11.5c3.3-5.6,4.1-12.4,2.5-18.7c-1.7-6.3-5.8-11.7-11.5-14.9
		C1000.6,156.3,995.9,155.2,991.2,155.4L991.2,155.4z"/>
	<path class="st0" d="M630.6,780c-8.4,0.4-15.9,5-20.1,12.3c-3.3,5.6-4.1,12.4-2.5,18.7c1.7,6.3,5.8,11.7,11.5,14.9
		c11.8,6.8,26.8,2.8,33.6-9c3.3-5.6,4.1-12.4,2.5-18.7c-1.7-6.3-5.8-11.7-11.5-14.9C640,780.9,635.3,779.8,630.6,780L630.6,780z"/>
	<path class="st0" d="M1123.8,287.4c-4.1,0.1-8.1,1.2-11.7,3.3c-5.6,3.3-9.8,8.6-11.5,14.9s-0.8,13,2.5,18.7
		c3.3,5.6,8.6,9.8,14.9,11.5c6.3,1.7,13,0.8,18.7-2.5c5.6-3.3,9.8-8.6,11.5-14.9c1.7-6.3,0.8-13-2.5-18.7
		C1141.2,291.9,1132.8,287.1,1123.8,287.4L1123.8,287.4z"/>
	<path class="st0" d="M499.2,648c-4.1,0.1-8.1,1.2-11.7,3.3c-11.8,6.8-15.8,21.8-9,33.6c3.3,5.6,8.6,9.8,14.9,11.5
		c6.3,1.7,13,0.8,18.7-2.5c11.8-6.8,15.8-21.8,9-33.6C516.6,652.5,508.2,647.8,499.2,648L499.2,648z"/>
	<path class="st0" d="M633,155.4c-4.7-0.2-9.4,0.9-13.5,3.3c-5.6,3.3-9.8,8.6-11.5,14.9c-1.7,6.3-0.8,13,2.5,18.7
		c3.3,5.6,8.6,9.8,14.9,11.5c6.3,1.7,13,0.8,18.7-2.5c5.6-3.3,9.8-8.6,11.5-14.9c1.7-6.3,0.8-13-2.5-18.7
		C648.9,160.4,641.3,155.8,633,155.4L633,155.4z"/>
	<path class="st0" d="M993.6,780c-4.7-0.2-9.4,0.9-13.5,3.3c-5.6,3.3-9.8,8.6-11.5,14.9c-1.7,6.3-0.8,13,2.5,18.7
		c6.8,11.8,21.8,15.8,33.6,9c5.6-3.3,9.8-8.6,11.5-14.9c1.7-6.3,0.8-13-2.5-18.7C1009.5,785,1001.9,780.4,993.6,780L993.6,780z"/>
	<path class="st0" d="M500.4,287.4c-9-0.2-17.4,4.5-21.9,12.3c-3.3,5.6-4.1,12.4-2.5,18.7c1.7,6.3,5.8,11.7,11.5,14.9
		c11.8,6.8,26.8,2.8,33.6-9c6.8-11.8,2.8-26.8-9-33.6C508.5,288.6,504.5,287.5,500.4,287.4L500.4,287.4z"/>
	<path class="st0" d="M1125,648c-9-0.2-17.4,4.5-21.9,12.3c-6.8,11.8-2.8,26.8,9,33.6c5.6,3.3,12.4,4.1,18.7,2.5
		c6.3-1.7,11.7-5.8,14.9-11.5c6.8-11.8,2.8-26.8-9-33.6C1133.1,649.2,1129.1,648.1,1125,648L1125,648z"/>
	<path class="st3" d="M796,458.2c-10.7,0-19.3,8.6-19.3,19.3c0,5.1,2,10,5.6,13.6c3.6,3.6,8.5,5.6,13.6,5.6
		c10.6,0,19.3-8.6,19.3-19.3C815.3,466.8,806.7,458.2,796,458.2L796,458.2z"/>
	<path class="st0" d="M812.1-71.3c-311.1,0-563.6,252.4-563.6,563.5c0,2.3,0.1,4.6,0.1,7h19.6c0-2.3-0.1-4.6-0.1-7
		c0-300.5,243.4-543.9,544-543.9c300.5,0,543.9,243.4,543.9,543.9c0,2.3-0.1,4.6-0.1,7h19.6c0-2.3,0.1-4.6,0.1-7
		C1375.6,181.1,1123.2-71.3,812.1-71.3L812.1-71.3z"/>
	<path class="st0" d="M812.1,38.7c-250.4,0-453.5,203.2-453.5,453.5c0,2.3,0.1,4.6,0.1,6.9h19.6c0-2.3-0.1-4.6-0.1-6.9
		c0-239.8,194.2-433.9,433.9-433.9c239.8,0,433.9,194.2,433.9,433.9c0,2.3-0.1,4.6-0.1,6.9h19.6c0-2.3,0.1-4.6,0.1-6.9
		C1265.6,241.9,1062.5,38.7,812.1,38.7L812.1,38.7z"/>
	<path class="st0" d="M812.1,420.2c-39.7,0-72.1,32.4-72.1,72.1c0,2.3,0.1,4.7,0.3,7H760c-0.3-2.3-0.5-4.6-0.5-7
		c0-29.1,23.4-52.5,52.5-52.5c29.1,0,52.5,23.4,52.5,52.5c0,2.4-0.2,4.7-0.5,7h19.7c0.2-2.3,0.3-4.6,0.3-7
		C884.2,452.6,851.8,420.2,812.1,420.2L812.1,420.2z"/>
</g>
</svg>
