<?xml version="1.0" encoding="utf-8"?>
<!-- Generator: Adobe Illustrator 26.0.3, SVG Export Plug-In . SVG Version: 6.00 Build 0)  -->
<svg version="1.1" id="Слой_1" xmlns="http://www.w3.org/2000/svg" xmlns:xlink="http://www.w3.org/1999/xlink" x="0px" y="0px"
	 viewBox="0 0 923 1000" style="enable-background:new 0 0 923 1000;" xml:space="preserve">
<style type="text/css">
	.st0{fill:#1A1A1A;}
	.st1{fill:#3494BF;}
	.st2{fill:#C9E3E7;}
	.st3{fill:#FFFFFF;}
	.st4{fill:#ED6C50;}
	.st5{fill:#7E7E7E;}
</style>
<g>
	<path class="st0" d="M-420.3,485.3c0,2.3-0.1,4.6-0.1,7c0,327,266,592.9,593,592.9s592.9-265.9,592.9-592.9c0-2.3-0.1-4.7-0.1-7
		H687c0,2.3,0.1,4.6,0.1,7c0,284.6-229.9,514.5-514.5,514.5C-112,1006.8-342,776.9-342,492.3c0-2.3,0.1-4.7,0.1-7H-420.3z"/>
	<path class="st0" d="M172.6-100.7c-327,0-593,266-593,593c0,2.3,0.1,4.6,0.1,7h78.4c0-2.3-0.1-4.6-0.1-7
		c0-284.7,230-514.6,514.6-514.6s514.5,229.9,514.5,514.6c0,2.3-0.1,4.6-0.1,7h78.4c0-2.3,0.1-4.6,0.1-7
		C765.5,165.2,499.6-100.7,172.6-100.7L172.6-100.7z"/>
	<path class="st1" d="M726.3,492.3c0,146.9-58.3,287.7-162.2,391.6C460.3,987.7,319.5,1046,172.6,1046S-115.1,987.7-219,883.8
		C-322.8,780-381.2,639.1-381.2,492.3c0-146.9,58.3-287.7,162.2-391.6S25.7-61.5,172.6-61.5S460.3-3.2,564.2,100.7
		C668,204.5,726.3,345.4,726.3,492.3L726.3,492.3z"/>
	<path class="st2" d="M172.6,48.5c-117.7,0-230.5,46.7-313.8,130c-83.2,83.2-130,196.1-130,313.8c0,245.1,198.7,443.7,443.7,443.7
		c117.7,0,230.6-46.7,313.8-130c83.2-83.2,130-196.1,130-313.8s-46.7-230.6-130-313.8C403.1,95.3,290.3,48.5,172.6,48.5L172.6,48.5z
		"/>
	<path class="st3" d="M132.2,117c-88.8,0-173.9,35.3-236.7,98.1s-98.1,147.9-98.1,236.7c0,184.9,149.9,334.8,334.8,334.8
		c88.8,0,173.9-35.3,236.7-98c62.8-62.8,98.1-147.9,98.1-236.7S431.7,278,368.9,215.2C306.1,152.3,220.9,117,132.2,117L132.2,117z"
		/>
	<path class="st0" d="M172.6,492.2c7.4-7.4,19.3-7.4,26.7,0l230.6,230.6c7.4,7.4,7.4,19.3,0,26.7s-19.3,7.4-26.7,0L172.6,518.9
		C165.2,511.6,165.2,499.6,172.6,492.2L172.6,492.2z"/>
	<path class="st4" d="M172.6,184.7c19.5,0,35.2,15.7,35.2,35.2V457c0,19.5-15.7,35.2-35.2,35.2s-35.2-15.7-35.2-35.2V219.9
		C137.4,200.4,153.1,184.7,172.6,184.7L172.6,184.7z"/>
	<path class="st0" d="M172.6,173.4c-25.6,0-46.5,20.9-46.5,46.5v125.5h22.6V219.9c0-13.4,10.5-23.9,23.9-23.9s23.9,10.4,23.9,23.9
		v125.5h22.6V219.9C219.1,194.4,198.2,173.4,172.6,173.4L172.6,173.4z"/>
	<path class="st4" d="M-28,608.1c-9.8-16.9-4-38.3,12.9-48.1l139.6-80.6c16.9-9.7,38.3-4,48.1,12.9c9.7,16.9,4,38.3-12.9,48.1
		L20.1,620.9C3.2,630.7-18.3,624.9-28,608.1L-28,608.1z"/>
	<path class="st0" d="M55.8,507.7L-20,551.5c-21.4,12.4-28.9,40-16.5,61.5c12.4,21.4,40,28.9,61.5,16.5l75.9-43.8l-9.8-17
		l-75.8,43.8c-12.3,7.1-27.6,3-34.7-9.3s-3-27.6,9.3-34.7l75.9-43.8L55.8,507.7z"/>
	<path class="st0" d="M126.1,331.5V457c0,25.6,20.9,46.5,46.5,46.5s46.5-20.9,46.5-46.5V331.5h-22.6V457c0,13.4-10.5,23.9-23.9,23.9
		s-23.9-10.5-23.9-23.9V331.5H126.1z"/>
	<path class="st0" d="M140.9,464.9c-7.3,0.2-14.6,2.1-21.3,6l-75.9,43.8l9.8,17l75.9-43.8c12.3-7.1,27.5-3,34.7,9.3
		c7.1,12.3,3.1,27.6-9.3,34.7L79,575.6l9.8,17l75.9-43.8c21.4-12.4,28.8-40,16.5-61.5C172.6,472.6,156.8,464.5,140.9,464.9
		L140.9,464.9z"/>
	<path class="st5" d="M172.6,430c-16.5,0-32.4,6.6-44,18.2c-11.7,11.7-18.2,27.5-18.2,44c0,34.4,27.9,62.3,62.3,62.3
		c16.5,0,32.4-6.6,44-18.2c11.7-11.7,18.2-27.5,18.2-44s-6.6-32.4-18.2-44C205,436.5,189.1,430,172.6,430L172.6,430z"/>
	<path class="st0" d="M-390.9,485.3c0,2.3-0.1,4.6-0.1,7c0,311.1,252.4,563.6,563.6,563.6s563.5-252.4,563.5-563.6
		c0-2.3-0.1-4.6-0.1-7h-19.6c0,2.3,0.1,4.6,0.1,7c0,300.5-243.4,544-543.9,544s-544-243.4-544-544c0-2.3,0.1-4.6,0.1-7L-390.9,485.3
		L-390.9,485.3z"/>
	<path class="st0" d="M-280.8,485.3c0,2.3-0.1,4.6-0.1,7c0,250.4,203.2,453.5,453.5,453.5c250.4,0,453.5-203.2,453.5-453.5
		c0-2.3-0.1-4.7-0.1-7h-19.6c0,2.3,0.1,4.6,0.1,7c0,239.8-194.2,433.9-433.9,433.9c-239.8,0-433.9-194.2-433.9-433.9
		c0-2.3,0.1-4.7,0.1-7L-280.8,485.3L-280.8,485.3z"/>
	<path class="st0" d="M100.9,485.3c-0.2,2.3-0.3,4.6-0.3,7c0,39.7,32.4,72.1,72.1,72.1s72.1-32.4,72.1-72.1c0-2.4-0.1-4.7-0.3-7
		h-19.7c0.3,2.3,0.5,4.6,0.5,7c0,29.1-23.4,52.5-52.5,52.5s-52.5-23.4-52.5-52.5c0-2.4,0.2-4.7,0.5-7L100.9,485.3L100.9,485.3z"/>
	<path class="st0" d="M172.6,107c-13.6,0-24.6,11-24.6,24.6s11,24.6,24.6,24.6c6.5,0,12.8-2.6,17.4-7.2c4.6-4.6,7.2-10.9,7.2-17.4
		s-2.6-12.8-7.2-17.4C185.4,109.6,179.1,107,172.6,107L172.6,107z"/>
	<path class="st0" d="M172.6,828.3c-13.6,0-24.6,11-24.6,24.6s11,24.6,24.6,24.6c6.5,0,12.8-2.6,17.4-7.2c4.6-4.6,7.2-10.9,7.2-17.4
		s-2.6-12.8-7.2-17.4C185.4,830.9,179.1,828.3,172.6,828.3L172.6,828.3z"/>
	<path class="st0" d="M533.2,467.7c-6.5,0-12.8,2.6-17.4,7.2c-4.6,4.6-7.2,10.9-7.2,17.4s2.6,12.8,7.2,17.4
		c4.6,4.6,10.9,7.2,17.4,7.2c13.6,0,24.6-11,24.6-24.6S546.8,467.7,533.2,467.7L533.2,467.7z"/>
	<path class="st0" d="M-188,467.7c-6.5,0-12.8,2.6-17.4,7.2c-4.6,4.6-7.2,10.9-7.2,17.4c0,13.6,11,24.6,24.6,24.6s24.6-11,24.6-24.6
		c0-6.5-2.6-12.8-7.2-17.4C-175.2,470.3-181.5,467.7-188,467.7L-188,467.7z"/>
	<path class="st0" d="M351.7,155.4c-8.4,0.4-15.9,5-20.1,12.3c-3.3,5.6-4.1,12.4-2.5,18.7c1.7,6.3,5.8,11.7,11.5,14.9
		c5.6,3.3,12.4,4.1,18.7,2.5c6.3-1.7,11.7-5.8,14.9-11.5c3.3-5.6,4.1-12.4,2.5-18.7c-1.7-6.3-5.8-11.7-11.5-14.9
		C361.1,156.3,356.4,155.2,351.7,155.4L351.7,155.4z"/>
	<path class="st0" d="M-8.9,780c-8.4,0.4-15.9,5-20.1,12.3c-3.3,5.6-4.1,12.4-2.5,18.7c1.7,6.3,5.8,11.7,11.5,14.9
		c11.8,6.8,26.8,2.8,33.6-9c3.3-5.6,4.1-12.4,2.5-18.7c-1.7-6.3-5.8-11.7-11.5-14.9C0.5,780.9-4.2,779.8-8.9,780L-8.9,780z"/>
	<path class="st0" d="M484.3,287.4c-4.1,0.1-8.1,1.2-11.7,3.3c-5.6,3.3-9.8,8.6-11.5,14.9s-0.8,13,2.5,18.7
		c3.3,5.6,8.6,9.8,14.9,11.5s13,0.8,18.7-2.5c5.6-3.3,9.8-8.6,11.5-14.9s0.8-13-2.5-18.7C501.7,291.9,493.3,287.1,484.3,287.4
		L484.3,287.4z"/>
	<path class="st0" d="M-140.3,648c-4.1,0.1-8.1,1.2-11.7,3.3c-11.8,6.8-15.8,21.8-9,33.6c3.3,5.6,8.6,9.8,14.9,11.5
		c6.3,1.7,13,0.8,18.7-2.5c11.8-6.8,15.8-21.8,9-33.6C-122.9,652.5-131.3,647.8-140.3,648L-140.3,648z"/>
	<path class="st0" d="M-6.5,155.4c-4.7-0.2-9.4,0.9-13.5,3.3c-5.6,3.3-9.8,8.6-11.5,14.9c-1.7,6.3-0.8,13,2.5,18.7
		c3.3,5.6,8.6,9.8,14.9,11.5s13,0.8,18.7-2.5c5.6-3.3,9.8-8.6,11.5-14.9c1.7-6.3,0.8-13-2.5-18.7C9.4,160.4,1.8,155.8-6.5,155.4
		L-6.5,155.4z"/>
	<path class="st0" d="M354.1,780c-4.7-0.2-9.4,0.9-13.5,3.3c-5.6,3.3-9.8,8.6-11.5,14.9c-1.7,6.3-0.8,13,2.5,18.7
		c6.8,11.8,21.8,15.8,33.6,9c5.6-3.3,9.8-8.6,11.5-14.9c1.7-6.3,0.8-13-2.5-18.7C370,785,362.4,780.4,354.1,780L354.1,780z"/>
	<path class="st0" d="M-139.1,287.4c-9-0.2-17.4,4.5-21.9,12.3c-3.3,5.6-4.1,12.4-2.5,18.7c1.7,6.3,5.8,11.7,11.5,14.9
		c11.8,6.8,26.8,2.8,33.6-9c6.8-11.8,2.8-26.8-9-33.6C-131,288.6-135,287.5-139.1,287.4L-139.1,287.4z"/>
	<path class="st0" d="M485.5,648c-9-0.2-17.4,4.5-21.9,12.3c-6.8,11.8-2.8,26.8,9,33.6c5.6,3.3,12.4,4.1,18.7,2.5
		c6.3-1.7,11.7-5.8,14.9-11.5c6.8-11.8,2.8-26.8-9-33.6C493.6,649.2,489.6,648.1,485.5,648L485.5,648z"/>
	<path class="st3" d="M156.5,458.2c-10.7,0-19.3,8.6-19.3,19.3c0,5.1,2,10,5.6,13.6s8.5,5.6,13.6,5.6c10.6,0,19.3-8.6,19.3-19.3
		C175.8,466.8,167.2,458.2,156.5,458.2L156.5,458.2z"/>
	<path class="st0" d="M172.6-71.3C-138.5-71.3-391,181.1-391,492.2c0,2.3,0.1,4.6,0.1,7h19.6c0-2.3-0.1-4.6-0.1-7
		c0-300.5,243.4-543.9,544-543.9c300.5,0,543.9,243.4,543.9,543.9c0,2.3-0.1,4.6-0.1,7H736c0-2.3,0.1-4.6,0.1-7
		C736.1,181.1,483.7-71.3,172.6-71.3L172.6-71.3z"/>
	<path class="st0" d="M172.6,38.7c-250.4,0-453.5,203.2-453.5,453.5c0,2.3,0.1,4.6,0.1,6.9h19.6c0-2.3-0.1-4.6-0.1-6.9
		c0-239.8,194.2-433.9,433.9-433.9c239.8,0,433.9,194.2,433.9,433.9c0,2.3-0.1,4.6-0.1,6.9H626c0-2.3,0.1-4.6,0.1-6.9
		C626.1,241.9,423,38.7,172.6,38.7L172.6,38.7z"/>
	<path class="st0" d="M172.6,420.2c-39.7,0-72.1,32.4-72.1,72.1c0,2.3,0.1,4.7,0.3,7h19.7c-0.3-2.3-0.5-4.6-0.5-7
		c0-29.1,23.4-52.5,52.5-52.5s52.5,23.4,52.5,52.5c0,2.4-0.2,4.7-0.5,7h19.7c0.2-2.3,0.3-4.6,0.3-7
		C244.7,452.6,212.3,420.2,172.6,420.2L172.6,420.2z"/>
</g>
</svg>
