<?xml version="1.0" encoding="utf-8"?>
<!-- Generator: Adobe Illustrator 26.0.3, SVG Export Plug-In . SVG Version: 6.00 Build 0)  -->
<svg version="1.1" id="Слой_1" xmlns="http://www.w3.org/2000/svg" xmlns:xlink="http://www.w3.org/1999/xlink" x="0px" y="0px"
	 viewBox="0 0 923 1000" style="enable-background:new 0 0 923 1000;" xml:space="preserve">
<style type="text/css">
	.st0{fill:#1A1A1A;}
	.st1{fill:#FFFFFF;}
	.st2{fill:#828282;}
	.st3{fill:#4D4D4D;}
	.st4{fill:#FFD056;}
	.st5{fill:#F49A2F;}
	.st6{fill:#FDEF7E;}
	.st7{fill:#FCD495;}
	.st8{fill:#FFF3C8;}
	.st9{fill:#F6AE71;}
	.st10{fill:#808080;}
	.st11{fill:#B4B4B4;}
	.st12{fill:#616161;}
</style>
<g>
	<path class="st0" d="M946,597v217.6c0,8.8-3.2,16.8-8.5,23.8l-34.8,45.5l-15.6,19.5v-51.6h-278v51.6l-15.6-19.5l-34.8-45.5
		c-5.3-7-8.5-15-8.5-23.8V597h-34.3v227.3c0,9.5,5.8,21.6,15.7,35l21.6,28.2c-15.8,10.5-26.5,28-26.5,47.9
		c0,32.1,26.4,58.5,58.5,58.5s58.5-26.4,58.5-58.5V886h209.1v49.4c0,32.1,26.4,58.5,58.5,58.5s58.5-26.4,58.5-58.5
		c0-20-10.8-37.4-26.5-47.9l21.6-28.2c9.3-12.1,15.7-27.4,15.7-44.7V597H946z M914.2,911.4c12.2,1.5,21.2,11.7,21.2,24
		c0,13.5-10.7,24.1-24.2,24.1c-13.6,0-24.2-10.7-24.2-24.2v-27.1L914.2,911.4z M609.4,908.1L609.4,908.1l0.1,27.1
		c0,13.6-10.7,24.2-24.2,24.2s-24.2-10.5-24.2-24.1c0-12.4,8.9-22.5,21.2-24L609.4,908.1L609.4,908.1z"/>
	<path class="st0" d="M692.9,14.6c-26.8,0-49,22.1-49,49v58.7h8.2v165.5c-8.3,2.7-16.1,6-22.6,10.7c-5.8,4.1-11,9.4-14.6,15.7h-27.5
		c-39.2,0-71.4,32.2-71.4,71.4V603h34.4V385.5c0-20.8,16.2-37.1,37.1-37.1h54.7l1.5-15.6c0-0.5,0.7-3,5.6-6.5
		c4.8-3.5,13.2-7.1,23.3-9.1l10-2h131l10,2c10.1,2,18.4,5.6,23.3,9.1c4.8,3.5,5.5,5.9,5.6,6.5l1.5,15.6h54.8
		c20.8,0,37.1,16.2,37.1,37.1V603h34.5V385.4c0-39.2-32.2-71.4-71.4-71.4h-27.5c-3.8-6.2-8.8-11.6-14.6-15.7
		c-6.6-4.6-14.3-7.9-22.6-10.7V122.3h8.2V63.6c0-26.8-22.1-49-49-49C803.4,14.6,692.9,14.6,692.9,14.6z M776.2,90.8v31.4h8.2V281
		H712V122.3h8.2V90.8H776.2L776.2,90.8z"/>
	<rect x="801.6" y="84.4" class="st1" width="25.5" height="280"/>
	<path class="st0" d="M797.2,80.1v147.4h8.6V88.7h17v138.8h8.6V80.1H797.2z"/>
	<rect x="669.4" y="84.4" class="st1" width="25.5" height="280"/>
	<path class="st0" d="M665,80.1v147.4h8.6V88.7h17v138.8h8.6V80.1H665z"/>
	<path class="st0" d="M822.9,221.4v138.8h-17V221.4h-8.6v147.4h34.1V221.4H822.9z"/>
	<path class="st0" d="M690.7,221.4v138.8h-17V221.4h-8.6v147.4h34.1V221.4H690.7z"/>
	<path class="st2" d="M693,31.7c-17.6,0-31.9,14.2-31.9,31.9v41.5H703V73.6h90.4V105h41.9V63.6c0-17.6-14.2-31.9-31.9-31.9
		C803.4,31.7,693,31.7,693,31.7z"/>
	<path class="st0" d="M692.9,27.4c-20,0-36.2,16.2-36.2,36.2v45.8h50.5V78h43.9v-8.6h-52.5v31.3h-33.2V63.6
		c0-15.4,12.2-27.5,27.5-27.5h58.3v-8.6L692.9,27.4L692.9,27.4z"/>
	<path class="st3" d="M916.2,894.3l34.9-45.6 M951.1,848.7h-81.2v86.5l46.3-41"/>
	<path class="st2" d="M911.2,894.1c-22.7,0-41.3,18.4-41.3,41.3c0,11,4.3,21.4,12.1,29.2s18.2,12.1,29.2,12.1
		c22.8,0,41.3-18.4,41.3-41.3C952.4,912.6,934,894.1,911.2,894.1L911.2,894.1z"/>
	<path class="st0" d="M948,932.3c0,1,0.1,2,0.1,3.1c0,20.5-16.5,37-37,37s-37-16.5-37-37c0-1,0-2,0.1-3.1h-8.6c-0.1,1-0.1,2-0.1,3.1
		c0,25.1,20.5,45.6,45.6,45.6s45.6-20.5,45.6-45.6c0-1,0-2-0.1-3.1H948z"/>
	<path class="st0" d="M911.2,922.8c-3.3,0-6.5,1.3-8.8,3.7c-2.4,2.4-3.7,5.5-3.7,8.8s1.3,6.5,3.7,8.8s5.5,3.7,8.8,3.7
		s6.5-1.3,8.8-3.7s3.7-5.5,3.7-8.8C923.7,928.4,918,922.8,911.2,922.8L911.2,922.8z"/>
	<path class="st0" d="M912.8,891.7l6.8,5.2l34.9-45.6l-6.8-5.2L912.8,891.7z M865.6,848.7v86.5h8.6v-86.5H865.6z"/>
	<path class="st3" d="M580.2,894.3l-34.9-45.6 M545.3,848.7h81.2v86.5l-46.3-41"/>
	<path class="st0" d="M541.8,851.3l34.9,45.6l6.9-5.2l-34.9-45.6L541.8,851.3z M622.2,848.7v86.5h8.6v-86.5H622.2z"/>
	<path class="st2" d="M802.7,298.1c37.3,0,67.2,15.6,67.2,34.8c0,19.3-30,34.8-67.2,34.8H693.5c-37.3,0-67.2-15.6-67.2-34.8
		c0-19.3,30-34.8,67.2-34.8H802.7L802.7,298.1z"/>
	<path class="st0" d="M745.1,293.8v8.6h57.7c18,0,34.2,3.9,45.6,9.7c11.4,5.8,17.3,13.3,17.3,20.8s-5.9,15-17.3,20.8
		c-11.4,5.9-27.5,9.7-45.6,9.7h-57.7v8.6h57.7c19.2,0,36.6-3.9,49.5-10.7c12.9-6.8,21.9-16.6,21.9-28.5s-9-21.8-21.9-28.5
		s-30.3-10.7-49.5-10.7h-57.7V293.8z"/>
	<path class="st0" d="M751.2,293.9h-57.7c-19.2,0-36.6,4-49.5,10.7c-12.9,6.8-21.9,16.6-21.9,28.5s9,21.8,21.9,28.5
		s30.3,10.7,49.5,10.7h57.7v-8.6h-57.7c-18,0-34.2-3.9-45.6-9.7c-11.4-5.9-17.3-13.4-17.3-20.9c0-7.4,5.9-15,17.3-20.8
		c11.4-5.9,27.5-9.7,45.6-9.7h57.7V294V293.9z"/>
	<path class="st4" d="M963.2,814.5c0,30.1-24.2,54.3-54.3,54.3H587.3c-30.1,0-54.3-24.3-54.3-54.3V385.4c0-30.1,24.3-54.3,54.3-54.3
		h321.6c30.1,0,54.3,24.3,54.3,54.3V814.5L963.2,814.5z"/>
	<path class="st5" d="M963.2,760.4c0,30-24.2,54.3-54.3,54.3H587.3c-30.1,0-54.3-24.3-54.3-54.3v54.1c0,30.1,24.3,54.3,54.3,54.3
		h321.6c30.1,0,54.3-24.3,54.3-54.3V760.4L963.2,760.4z"/>
	<path class="st6" d="M963.2,439.5c0-30-24.2-54.3-54.3-54.3H587.3c-30.1,0-54.3,24.3-54.3,54.3v-54.1c0-30.1,24.3-54.3,54.3-54.3
		h321.6c30.1,0,54.3,24.3,54.3,54.3V439.5L963.2,439.5z"/>
	<path class="st0" d="M958.9,597v217.6c0,27.8-22.2,50-50,50H587.3c-27.8,0-50-22.2-50-50V597h-8.6v217.6
		c0,32.4,26.2,58.6,58.6,58.6h321.6c32.4,0,58.6-26.2,58.6-58.6V597H958.9z"/>
	<path class="st2" d="M585.2,894.1c-11,0-21.5,4.3-29.2,12.1c-7.8,7.8-12.1,18.2-12.1,29.2s4.3,21.4,12.1,29.2s18.2,12.1,29.2,12.1
		s21.4-4.3,29.2-12.1s12.1-18.2,12.1-29.2s-4.3-21.4-12.1-29.2C606.6,898.4,596.1,894.1,585.2,894.1L585.2,894.1z"/>
	<path class="st0" d="M622.1,932.3c0,1,0.1,2,0.1,3.1c0,20.5-16.5,37-37,37s-37-16.5-37-37c0-1,0-2,0.1-3.1h-8.6
		c-0.1,1-0.1,2-0.1,3.1c0,25.1,20.5,45.6,45.6,45.6s45.6-20.5,45.6-45.6c0-1,0-2-0.1-3.1H622.1z"/>
	<path class="st0" d="M585.2,922.8c-6.9,0-12.5,5.6-12.5,12.5c0,3.3,1.3,6.5,3.7,8.8s5.5,3.7,8.8,3.7s6.5-1.3,8.8-3.7
		s3.7-5.5,3.7-8.8s-1.3-6.5-3.7-8.8C591.6,924.2,588.5,922.8,585.2,922.8L585.2,922.8z"/>
	<rect x="587.4" y="377.3" class="st1" width="321.6" height="16.2"/>
	<rect x="866.6" y="332.9" class="st0" width="6.7" height="535.8"/>
	<rect x="623.2" y="332.9" class="st0" width="6.7" height="535.8"/>
	<rect x="744.9" y="332.9" class="st0" width="6.7" height="535.8"/>
	<path class="st0" d="M587.4,326.9c-32.4,0-58.6,26.2-58.6,58.6V603h8.6V385.5c0-27.8,22.2-50,50-50H909c27.8,0,50,22.2,50,50V603
		h8.6V385.5c0-32.4-26.2-58.6-58.6-58.6H587.4z"/>
	<path class="st0" d="M745.3,27.4v8.7h58.3c15.4,0,27.5,12.2,27.5,27.5v37.2h-33.4V69.4h-52.5v8.5h43.9v31.4h50.5V63.6
		c0-20-16.2-36.2-36.2-36.2C803.4,27.4,745.3,27.4,745.3,27.4z"/>
	<path class="st0" d="M911.2,889.7c-25.1,0-45.6,20.4-45.6,45.6c0,1,0,2,0.1,3.1h8.6c0-1-0.1-2-0.1-3.1c0-20.5,16.5-37,37-37
		s37,16.5,37,37c0,1,0,2-0.1,3.1h8.6c0.1-1,0.1-2,0.1-3.1C956.7,910.2,936.3,889.7,911.2,889.7L911.2,889.7z"/>
	<path class="st0" d="M585.2,889.7c-25.1,0-45.6,20.4-45.6,45.6c0,1,0,2,0.1,3.1h8.6c0-1-0.1-2-0.1-3.1c0-20.5,16.5-37,37-37
		s37,16.5,37,37c0,1,0,2-0.1,3.1h8.6c0.1-1,0.1-2,0.1-3.1C630.8,910.2,610.3,889.7,585.2,889.7L585.2,889.7z"/>
	<g>
		<path class="st0" d="M525.7,155c-28.6,3-46.5,29.2-46.7,55.5l-1,150.9l136.2-14.1l-3.6-34.1l-98,10.2l0.8-112.6
			c0.1-12.6,5.7-20.6,15.9-21.6l67.8-7.1l-3.6-34.1L525.7,155z"/>
		<path class="st0" d="M430.5,315.6c-17.7,1.8-31,18.2-29.2,35.9c1.8,17.7,18.2,31,35.9,29.2l178.4-18.6l-6.8-65L430.5,315.6z"/>
		<path class="st0" d="M587.5,148.6l3.6,34.1l67.8-7.1c10-1,17.3,5.6,20,17.9l23.9,110l-98.1,10.2l3.6,34.1l136.1-14l-32-147.4
			c-5.6-25.7-28.6-47.7-57.1-44.8L587.5,148.6z"/>
		<path class="st0" d="M602.9,297.9l6.8,65l178.4-18.5c17.8-1.8,31-18.2,29.2-35.9s-18.2-31-35.9-29.2L602.9,297.9z"/>
		<path class="st7" d="M657,158.7c19.4-2,34.4,12.3,38.6,31.2l27.8,128.7l-228.3,23.8l0.9-131.7c0.2-19.4,12-36.5,31.3-38.5
			L657,158.7L657,158.7z"/>
		<path class="st8" d="M616.7,162.9c19.3-1.9,34.4,12.3,38.5,31.3l28,128.6l40.2-4.2l-28-128.6c-4.1-19-19.2-33.4-38.5-31.3
			L616.7,162.9z"/>
		<path class="st9" d="M527.5,172.3c-19.4,1.9-31.2,19-31.3,38.5l-0.9,131.7l64.7-6.8l0.9-131.7c0.2-19.4,12-36.5,31.3-38.5
			L527.5,172.3z"/>
		<path class="st10" d="M720.1,302.8l-224.7,23.4l0.3-49.6l213.8-22.2L720.1,302.8z"/>
		<path class="st11" d="M669.3,258.6l10.5,48.4l40.2-4.2l-10.5-48.4L669.3,258.6z"/>
		<path class="st12" d="M495.7,276.6l-0.3,49.6l64.7-6.8l0.3-49.6L495.7,276.6z"/>
		<path class="st0" d="M527,167.9c-21.6,2.3-35,21.6-35.1,42.8L491,347.1l122-12.7l-0.9-8.5l-112.4,11.7l0.9-126.9
			c0.1-17.7,10.4-32.6,27.4-34.3l67.8-7.1l-0.9-8.5L527,167.9z"/>
		<path class="st0" d="M588.8,161.5l0.9,8.5l67.8-7.1c17-1.7,30.1,10.7,33.9,28l26.9,124l-112.4,11.7l0.9,8.5l122-12.7l-29-133.3
			c-4.5-20.7-21.6-36.9-43.2-34.6L588.8,161.5z"/>
		<path class="st7" d="M783.2,296.3c8.5-0.8,16.1,5.3,17.1,13.8c0.9,8.6-5.2,16.2-13.8,17.1l-350.8,36.5
			c-8.6,0.9-16.2-5.2-17.1-13.8c-0.9-8.6,5.2-16.2,13.8-17.1L783.2,296.3L783.2,296.3z"/>
		<path class="st0" d="M432,328.3c-10.9,1.1-18.8,11-17.7,21.8c1.1,10.9,11,18.8,21.8,17.7l178.4-18.5l-0.9-8.5l-178.4,18.5
			c-6.3,0.6-11.8-3.8-12.4-10c-0.6-6.3,3.8-11.8,10-12.4l178.4-18.5l-0.9-8.5L432,328.3z"/>
		
			<rect x="495.1" y="261.2" transform="matrix(0.9946 -0.1034 0.1034 0.9946 -24.2222 63.7298)" class="st0" width="215" height="8.6"/>
		<path class="st0" d="M604.1,310.6l0.9,8.5l178.4-18.5c6.3-0.6,11.8,3.8,12.4,10c0.6,6.3-3.8,11.8-10,12.4l-178.4,18.5l0.9,8.5
			l178.4-18.4c10.9-1.1,18.8-11,17.7-21.8c-1.1-10.9-11-18.8-21.8-17.7L604.1,310.6z"/>
	</g>
</g>
</svg>
