<?xml version="1.0" encoding="utf-8"?>
<!-- Generator: Adobe Illustrator 26.0.3, SVG Export Plug-In . SVG Version: 6.00 Build 0)  -->
<svg version="1.1" id="Слой_1" xmlns="http://www.w3.org/2000/svg" xmlns:xlink="http://www.w3.org/1999/xlink" x="0px" y="0px"
	 viewBox="0 0 923 1000" style="enable-background:new 0 0 923 1000;" xml:space="preserve">
<style type="text/css">
	.st0{fill:#1A1A1A;}
	.st1{fill:#FFFFFF;}
	.st2{fill:#828282;}
	.st3{fill:#4D4D4D;}
	.st4{fill:#FFD056;}
	.st5{fill:#F49A2F;}
	.st6{fill:#FDEF7E;}
	.st7{fill:#FCD495;}
	.st8{fill:#FFF3C8;}
	.st9{fill:#F6AE71;}
	.st10{fill:#808080;}
	.st11{fill:#B4B4B4;}
	.st12{fill:#616161;}
</style>
<g>
	<path class="st0" d="M20.5,623.1v212.5c0,16.8,6.2,31.8,15.3,43.6l21.1,27.5C41.5,917,31,934,31,953.5c0,31.3,25.8,57.1,57.1,57.1
		s57.1-25.8,57.1-57.1v-48.2h204.2v48.2c0,31.3,25.8,57.1,57.1,57.1s57.1-25.8,57.1-57.1c0-19.5-10.5-36.5-25.9-46.8l21.1-27.5
		c9.6-13.1,15.3-24.9,15.3-34.2V623.1h-33.5v212.5c0,8.6-3.1,16.4-8.3,23.2l-34,44.4l-15.2,19v-50.4H111.6v50.4l-15.2-19l-34-44.4
		c-5.2-6.8-8.3-14.6-8.3-23.2V623.1H20.5z M111.6,926.9v26.5c0,13.2-10.3,23.6-23.6,23.6c-13.2,0-23.6-10.3-23.6-23.5
		c0-12,8.8-21.9,20.7-23.4L111.6,926.9z M382.8,926.9l26.4,3.2c12,1.4,20.7,11.3,20.7,23.4c0,13.2-10.4,23.5-23.6,23.5
		s-23.6-10.3-23.6-23.6v-26.5L382.8,926.9L382.8,926.9z"/>
	<path class="st0" d="M193.3,54.5c-26.2,0-47.8,21.6-47.8,47.8v57.3h8v161.5c-8.1,2.7-15.7,5.9-22.1,10.4c-5.7,4-10.6,9.2-14.3,15.3
		H90.2c-38.3,0-69.7,31.4-69.7,69.7V629H54V416.6c0-20.4,15.9-36.2,36.2-36.2h53.5l1.5-15.2c0.1-0.5,0.8-2.9,5.5-6.3
		c4.8-3.4,12.9-6.9,22.8-8.9l9.8-2h127.9l9.8,2c9.9,2,18.1,5.5,22.8,8.9c4.8,3.4,5.5,5.8,5.5,6.3l1.5,15.2h53.4
		c20.4,0,36.2,15.9,36.2,36.2V629h33.5V416.6c0-38.3-31.4-69.7-69.7-69.7h-26.8c-3.6-6.1-8.6-11.3-14.3-15.3
		c-6.4-4.5-14-7.8-22.1-10.4V159.6h8v-57.3c0-26.2-21.6-47.8-47.8-47.8C301.2,54.5,193.3,54.5,193.3,54.5z M219.9,128.9h54.7v30.7h8
		v155h-70.7v-155h8L219.9,128.9L219.9,128.9z"/>
	<rect x="170.2" y="122.6" class="st1" width="24.9" height="273.4"/>
	<path class="st0" d="M166,118.4v143.9h8.4V126.8H191v135.5h8.4V118.4H166z"/>
	<rect x="299.3" y="122.6" class="st1" width="24.9" height="273.4"/>
	<path class="st0" d="M295.1,118.4v143.9h8.4V126.8h16.6v135.5h8.4V118.4H295.1z"/>
	<path class="st0" d="M166,256.4v143.9h33.3V256.4h-8.4v135.5h-16.6V256.4H166z"/>
	<path class="st0" d="M295.1,256.4v143.9h33.3V256.4H320v135.5h-16.6V256.4H295.1z"/>
	<path class="st2" d="M193.3,71.2c-17.2,0-31.1,13.9-31.1,31.1v40.5h40.9v-30.7h88.2v30.7h40.9v-40.5c0-17.2-13.9-31.1-31.1-31.1
		C301.1,71.2,193.3,71.2,193.3,71.2z"/>
	<path class="st0" d="M244.3,67v8.4h56.9c15,0,26.9,11.9,26.9,26.9v36.3h-32.5V108h-51.3v8.4h42.9V147h49.3v-44.7
		c0-19.5-15.8-35.3-35.3-35.3H244.3z"/>
	<path class="st3" d="M49.1,868.9l34.1,44.5 M83.2,913.4l45.2,40v-84.5H49.1"/>
	<path class="st2" d="M88.1,913.2c-22.3,0-40.3,18.1-40.3,40.3c0,22.3,18,40.3,40.3,40.3c10.7,0,20.9-4.2,28.5-11.8
		s11.8-17.8,11.8-28.5C128.4,931.2,110.3,913.2,88.1,913.2L88.1,913.2z"/>
	<path class="st0" d="M43.7,950.5c-0.1,1-0.1,2-0.1,3c0,24.5,20,44.5,44.5,44.5s44.5-20,44.5-44.5c0-1,0-2-0.1-3h-8.4
		c0.1,1,0.1,2,0.1,3c0,20-16.1,36.1-36.1,36.1S52,973.5,52,953.5c0-1,0.1-2,0.1-3H43.7z"/>
	<path class="st0" d="M88.1,941.3c-6.7,0-12.2,5.4-12.2,12.2c0,3.2,1.3,6.3,3.6,8.6s5.4,3.6,8.6,3.6s6.3-1.3,8.6-3.6
		c2.3-2.3,3.6-5.4,3.6-8.6c0-3.2-1.3-6.3-3.6-8.6C94.4,942.6,91.3,941.3,88.1,941.3L88.1,941.3z"/>
	<path class="st0" d="M52.4,866.4l-6.6,5.1L79.9,916l6.6-5.1L52.4,866.4z M124.2,868.9v84.5h8.4v-84.5H124.2z"/>
	<path class="st3" d="M445.4,868.9l-34.1,44.5 M411.3,913.4l-45.2,40v-84.5h79.3"/>
	<path class="st0" d="M442.1,866.4L408,910.9l6.7,5.1l34.1-44.5L442.1,866.4z M361.9,868.9v84.5h8.4v-84.5H361.9z"/>
	<path class="st2" d="M194,331.3h106.6c36.3,0,65.6,15.2,65.6,34s-29.2,34-65.6,34H194c-36.3,0-65.6-15.2-65.6-34
		S157.6,331.3,194,331.3L194,331.3z"/>
	<path class="st0" d="M194,327.1c-18.7,0-35.7,3.9-48.3,10.4s-21.4,16.2-21.4,27.8c0,11.6,8.8,21.2,21.4,27.8
		c12.6,6.6,29.6,10.4,48.3,10.4h56.3v-8.4H194c-17.6,0-33.4-3.7-44.5-9.5c-11.1-5.7-16.9-13-16.9-20.3s5.8-14.6,16.9-20.3
		c11.1-5.7,26.9-9.5,44.5-9.5h56.3v-8.4H194z"/>
	<path class="st0" d="M244.3,327.1v8.4h56.3c17.6,0,33.4,3.7,44.5,9.5c11.1,5.7,16.9,13.1,16.9,20.3c0,7.3-5.8,14.6-16.9,20.4
		c-11.1,5.7-26.9,9.5-44.5,9.5h-56.3v8.4h56.3c18.7,0,35.7-3.9,48.3-10.4c12.6-6.5,21.4-16.2,21.4-27.8c0-11.6-8.8-21.2-21.4-27.8
		c-12.6-6.5-29.6-10.4-48.3-10.4h-56.3V327.1z"/>
	<path class="st4" d="M37.3,835.5v-419c0-29.3,23.6-53,53-53h314c29.3,0,53,23.6,53,53v419c0,29.3-23.6,53-53,53h-314
		C60.9,888.5,37.3,864.9,37.3,835.5L37.3,835.5z"/>
	<path class="st5" d="M37.3,782.7v52.8c0,29.3,23.6,53,53,53h314c29.3,0,53-23.6,53-53v-52.8c0,29.3-23.6,53-53,53h-314
		C60.9,835.7,37.3,812,37.3,782.7L37.3,782.7z"/>
	<path class="st6" d="M37.3,469.4v-52.8c0-29.3,23.6-53,53-53h314c29.3,0,53,23.6,53,53v52.8c0-29.3-23.6-53-53-53h-314
		C60.9,416.4,37.3,440.1,37.3,469.4L37.3,469.4z"/>
	<path class="st0" d="M33.1,623.1v212.5c0,31.6,25.6,57.2,57.2,57.2h314c31.6,0,57.2-25.6,57.2-57.2V623.1h-8.4v212.5
		c0,27.1-21.7,48.8-48.8,48.8h-314c-27.1,0-48.8-21.7-48.8-48.8V623.1H33.1z"/>
	<path class="st2" d="M406.4,913.2c-10.7,0-20.9,4.2-28.5,11.8s-11.8,17.8-11.8,28.5s4.2,20.9,11.8,28.5
		c7.6,7.6,17.8,11.8,28.5,11.8s20.9-4.2,28.5-11.8s11.8-17.8,11.8-28.5s-4.2-20.9-11.8-28.5C427.4,917.4,417.1,913.2,406.4,913.2
		L406.4,913.2z"/>
	<path class="st0" d="M362,950.5c-0.1,1-0.1,2-0.1,3c0,24.5,20,44.5,44.5,44.5s44.5-20,44.5-44.5c0-1,0-2-0.1-3h-8.4
		c0.1,1,0.1,2,0.1,3c0,20-16.1,36.1-36.1,36.1s-36.1-16.1-36.1-36.1c0-1,0.1-2,0.1-3H362z"/>
	<path class="st0" d="M406.4,941.3c-3.2,0-6.3,1.3-8.6,3.6c-2.3,2.3-3.6,5.4-3.6,8.6c0,3.2,1.3,6.3,3.6,8.6c2.3,2.3,5.4,3.6,8.6,3.6
		s6.3-1.3,8.6-3.6c2.3-2.3,3.6-5.4,3.6-8.6C418.6,946.8,413.1,941.3,406.4,941.3L406.4,941.3z"/>
	<rect x="90.2" y="408.6" class="st1" width="314" height="15.8"/>
	<rect x="125.1" y="365.3" class="st0" width="6.5" height="523.2"/>
	<rect x="362.8" y="365.3" class="st0" width="6.5" height="523.2"/>
	<rect x="244" y="365.3" class="st0" width="6.5" height="523.2"/>
	<path class="st0" d="M90.2,359.4C58.6,359.4,33,385,33,416.6V629h8.4V416.6c0-27.1,21.7-48.8,48.8-48.8h314
		c27.1,0,48.8,21.7,48.8,48.8V629h8.4V416.6c0-31.6-25.6-57.2-57.2-57.2H90.2z"/>
	<path class="st0" d="M193.3,67c-19.5,0-35.3,15.8-35.3,35.3V147h49.3v-30.7h42.9V108h-51.3v30.7h-32.6v-36.3
		c0-15,11.9-26.9,26.9-26.9h56.9V67H193.3z"/>
	<path class="st0" d="M88.1,909c-24.5,0-44.5,20-44.5,44.5c0,1,0,2,0.1,3h8.4c-0.1-1-0.1-2-0.1-3c0-20,16.1-36.1,36.1-36.1
		s36.1,16.1,36.1,36.1c0,1-0.1,2-0.1,3h8.4c0.1-1,0.1-2,0.1-3C132.6,928.9,112.6,909,88.1,909L88.1,909z"/>
	<path class="st0" d="M406.4,909c-24.5,0-44.5,20-44.5,44.5c0,1,0,2,0.1,3h8.4c-0.1-1-0.1-2-0.1-3c0-20,16.1-36.1,36.1-36.1
		s36.1,16.1,36.1,36.1c0,1-0.1,2-0.1,3h8.4c0.1-1,0.1-2,0.1-3C450.9,928.9,430.9,909,406.4,909L406.4,909z"/>
	<g>
		<path class="st0" d="M398.3,184.8l-3.5,33.3L461,225c9.9,1,15.4,8.8,15.5,21.1l0.8,109.9l-95.7-10l-3.5,33.3l133,13.8l-1-147.3
			c-0.2-25.7-17.7-51.3-45.6-54.2L398.3,184.8z"/>
		<path class="st0" d="M383.2,330.3l-6.6,63.5L550.8,412c17.3,1.8,33.3-11.2,35.1-28.5s-11.2-33.3-28.5-35.1L383.2,330.3z"/>
		<path class="st0" d="M338,178.5c-27.9-2.9-50.3,18.6-55.8,43.7l-31.3,143.9l133,13.8l3.5-33.3l-95.8-10l23.3-107.4
			c2.6-12,9.7-18.5,19.5-17.5l66.2,6.9l3.5-33.3L338,178.5z"/>
		<path class="st0" d="M214.9,312.9c-17.3-1.8-33.3,11.2-35.1,28.5s11.1,33.3,28.5,35.1l174.2,18.1l6.6-63.5L214.9,312.9z"/>
		<path class="st7" d="M336.3,195.2l126.5,13.1c18.9,2,30.4,18.7,30.6,37.6l0.9,128.6l-222.9-23.2l27.2-125.6
			C302.7,207.2,317.4,193.2,336.3,195.2L336.3,195.2z"/>
		<path class="st8" d="M336.3,195.2c-18.9-2-33.6,12-37.6,30.6l-27.3,125.6l39.3,4.1L338,229.9c4-18.6,18.8-32.5,37.6-30.6
			L336.3,195.2z"/>
		<path class="st9" d="M399.5,201.8c18.9,2,30.4,18.7,30.6,37.6L431,368l63.2,6.6L493.3,246c-0.1-19-11.7-35.7-30.6-37.6
			L399.5,201.8z"/>
		<path class="st10" d="M285,288.6l208.8,21.7l0.3,48.4l-219.4-22.8L285,288.6z"/>
		<path class="st11" d="M285,288.6l-10.3,47.3L314,340l10.3-47.3L285,288.6z"/>
		<path class="st12" d="M430.6,303.7l0.3,48.4l63.2,6.6l-0.3-48.4L430.6,303.7z"/>
		<path class="st0" d="M397,197.3l-0.9,8.3l66.2,6.9c16.6,1.7,26.7,16.2,26.8,33.5l0.9,123.9l-109.8-11.4l-0.9,8.3l119.1,12.4
			L497.5,246c-0.1-20.7-13.2-39.6-34.3-41.8L397,197.3z"/>
		<path class="st0" d="M336.7,191c-21.1-2.2-37.8,13.6-42.2,33.8L266.2,355l119.1,12.4l0.9-8.3l-109.8-11.4l26.3-121.1
			c3.7-16.9,16.5-29,33.1-27.3l66.2,6.9l0.9-8.3L336.7,191z"/>
		<path class="st7" d="M213.1,329.5l342.5,35.6c8.4,0.9,14.4,8.3,13.5,16.7c-0.9,8.4-8.3,14.4-16.7,13.5l-342.5-35.6
			c-8.4-0.9-14.4-8.3-13.5-16.7C197.4,334.7,204.8,328.7,213.1,329.5L213.1,329.5z"/>
		<path class="st0" d="M381.9,342.8l-0.9,8.3l174.2,18.1c6.1,0.6,10.4,5.9,9.8,12.1c-0.6,6.1-5.9,10.4-12.1,9.8L378.7,373l-0.9,8.3
			L552,399.4c10.6,1.1,20.2-6.7,21.3-17.3c1.1-10.6-6.7-20.2-17.3-21.3L381.9,342.8z"/>
		
			<rect x="385.2" y="194.5" transform="matrix(0.1034 -0.9946 0.9946 0.1034 51.2769 655.8538)" class="st0" width="8.4" height="209.9"/>
		<path class="st0" d="M213.6,325.4c-10.6-1.1-20.2,6.7-21.3,17.3c-1.1,10.6,6.7,20.2,17.3,21.3l174.2,18l0.9-8.3l-174.2-18.1
			c-6.1-0.6-10.4-5.9-9.8-12.1c0.6-6.1,5.9-10.4,12.1-9.8L387,351.8l0.9-8.3L213.6,325.4z"/>
	</g>
</g>
</svg>
