<?xml version="1.0" encoding="utf-8"?>
<!-- Generator: Adobe Illustrator 26.0.3, SVG Export Plug-In . SVG Version: 6.00 Build 0)  -->
<svg version="1.1" id="Слой_1" xmlns="http://www.w3.org/2000/svg" xmlns:xlink="http://www.w3.org/1999/xlink" x="0px" y="0px"
	 viewBox="0 0 923 1000" style="enable-background:new 0 0 923 1000;" xml:space="preserve">
<style type="text/css">
	.st0{fill:#1A1A1A;}
	.st1{fill:#FFFFFF;}
	.st2{fill:#828282;}
	.st3{fill:#4D4D4D;}
	.st4{fill:#FFD056;}
	.st5{fill:#F49A2F;}
	.st6{fill:#FDEF7E;}
	.st7{fill:#FCD495;}
	.st8{fill:#FFF3C8;}
	.st9{fill:#F6AE71;}
	.st10{fill:#808080;}
	.st11{fill:#B4B4B4;}
	.st12{fill:#616161;}
</style>
<g>
	<path class="st0" d="M889.4,623.1v212.5c0,8.6-3.1,16.4-8.3,23.2l-34,44.4l-15.2,19v-50.4H560.4v50.4l-15.2-19l-34-44.4
		c-5.2-6.8-8.3-14.6-8.3-23.2V623.1h-33.5V845c0,9.3,5.7,21.1,15.3,34.2l21.1,27.5c-15.4,10.3-25.9,27.3-25.9,46.8
		c0,31.3,25.8,57.1,57.1,57.1s57.1-25.8,57.1-57.1v-48.2h204.2v48.2c0,31.3,25.8,57.1,57.1,57.1c31.3,0,57.1-25.8,57.1-57.1
		c0-19.5-10.5-36.5-25.9-46.8l21.1-27.5c9.1-11.8,15.3-26.8,15.3-43.6V623.1H889.4z M858.4,930.1c11.9,1.5,20.7,11.4,20.7,23.4
		c0,13.2-10.4,23.5-23.6,23.5c-13.3,0-23.6-10.4-23.6-23.6v-26.5L858.4,930.1z M560.7,926.9L560.7,926.9l0.1,26.5
		c0,13.3-10.4,23.6-23.6,23.6s-23.6-10.3-23.6-23.5c0-12.1,8.7-22,20.7-23.4L560.7,926.9L560.7,926.9z"/>
	<path class="st0" d="M642.3,54.5c-26.2,0-47.8,21.6-47.8,47.8v57.3h8v161.6c-8.1,2.6-15.7,5.9-22.1,10.4c-5.7,4-10.7,9.2-14.3,15.3
		h-26.8c-38.3,0-69.7,31.4-69.7,69.7V629h33.5V416.6c0-20.3,15.8-36.2,36.2-36.2h53.4l1.5-15.2c0-0.5,0.7-2.9,5.5-6.3
		c4.7-3.4,12.9-6.9,22.8-8.9l9.8-2h127.9l9.8,2c9.9,2,18,5.5,22.8,8.9c4.7,3.4,5.4,5.8,5.5,6.3l1.5,15.2h53.5
		c20.3,0,36.2,15.8,36.2,36.2V629H923V416.5c0-38.3-31.4-69.7-69.7-69.7h-26.9c-3.7-6.1-8.6-11.3-14.3-15.3
		c-6.4-4.5-14-7.7-22.1-10.4V159.6h8v-57.3c0-26.2-21.6-47.8-47.8-47.8C750.2,54.5,642.3,54.5,642.3,54.5z M723.6,128.9v30.7h8v155
		h-70.7v-155h8v-30.7H723.6L723.6,128.9z"/>
	<rect x="748.4" y="122.6" class="st1" width="24.9" height="273.4"/>
	<path class="st0" d="M744.1,118.4v143.9h8.4V126.8h16.6v135.5h8.4V118.4H744.1z"/>
	<rect x="619.3" y="122.6" class="st1" width="24.9" height="273.4"/>
	<path class="st0" d="M615,118.4v143.9h8.4V126.8H640v135.5h8.4V118.4H615z"/>
	<path class="st0" d="M769.2,256.4v135.5h-16.6V256.4h-8.4v143.9h33.3V256.4H769.2z"/>
	<path class="st0" d="M640.1,256.4v135.5h-16.6V256.4h-8.4v143.9h33.3V256.4H640.1z"/>
	<path class="st2" d="M642.4,71.2c-17.2,0-31.1,13.9-31.1,31.1v40.5h40.9v-30.7h88.2v30.7h40.9v-40.5c0-17.2-13.9-31.1-31.1-31.1
		C750.2,71.2,642.4,71.2,642.4,71.2z"/>
	<path class="st0" d="M642.3,67c-19.5,0-35.3,15.8-35.3,35.3V147h49.3v-30.6h42.9V108h-51.3v30.6h-32.5v-36.3
		c0-15,11.9-26.9,26.9-26.9h56.9V67H642.3z"/>
	<path class="st3" d="M860.3,913.4l34.1-44.5 M894.4,868.9h-79.3v84.5l45.2-40"/>
	<path class="st2" d="M855.4,913.2c-22.2,0-40.3,18-40.3,40.3c0,10.7,4.2,20.9,11.8,28.5c7.6,7.6,17.8,11.8,28.5,11.8
		c22.3,0,40.3-18,40.3-40.3C895.7,931.3,877.7,913.2,855.4,913.2L855.4,913.2z"/>
	<path class="st0" d="M891.4,950.5c0,1,0.1,2,0.1,3c0,20-16.1,36.1-36.1,36.1s-36.1-16.1-36.1-36.1c0-1,0-2,0.1-3H811
		c-0.1,1-0.1,2-0.1,3c0,24.5,20,44.5,44.5,44.5c24.5,0,44.5-20,44.5-44.5c0-1,0-2-0.1-3H891.4z"/>
	<path class="st0" d="M855.4,941.3c-3.2,0-6.3,1.3-8.6,3.6c-2.3,2.3-3.6,5.4-3.6,8.6c0,3.2,1.3,6.3,3.6,8.6s5.4,3.6,8.6,3.6
		c3.2,0,6.3-1.3,8.6-3.6s3.6-5.4,3.6-8.6C867.6,946.7,862.1,941.3,855.4,941.3L855.4,941.3z"/>
	<path class="st0" d="M857,910.9l6.6,5.1l34.1-44.5l-6.6-5.1L857,910.9z M810.9,868.9v84.5h8.4v-84.5H810.9z"/>
	<path class="st3" d="M532.2,913.4l-34.1-44.5 M498.1,868.9h79.3v84.5l-45.2-40"/>
	<path class="st0" d="M494.7,871.5l34.1,44.5l6.7-5.1l-34.1-44.5L494.7,871.5z M573.2,868.9v84.5h8.4v-84.5H573.2z"/>
	<path class="st2" d="M749.5,331.3c36.4,0,65.6,15.2,65.6,34s-29.3,34-65.6,34H642.9c-36.4,0-65.6-15.2-65.6-34s29.3-34,65.6-34
		H749.5L749.5,331.3z"/>
	<path class="st0" d="M693.2,327.1v8.4h56.3c17.6,0,33.4,3.8,44.5,9.5c11.1,5.7,16.9,13,16.9,20.3s-5.8,14.6-16.9,20.3
		c-11.1,5.8-26.9,9.5-44.5,9.5h-56.3v8.4h56.3c18.7,0,35.7-3.8,48.3-10.4c12.6-6.6,21.4-16.2,21.4-27.8c0-11.6-8.8-21.3-21.4-27.8
		c-12.6-6.5-29.6-10.4-48.3-10.4H693.2z"/>
	<path class="st0" d="M699.2,327.2h-56.3c-18.7,0-35.7,3.9-48.3,10.4c-12.6,6.6-21.4,16.2-21.4,27.8c0,11.6,8.8,21.3,21.4,27.8
		c12.6,6.5,29.6,10.4,48.3,10.4h56.3v-8.4h-56.3c-17.6,0-33.4-3.8-44.5-9.5c-11.1-5.8-16.9-13.1-16.9-20.4c0-7.2,5.8-14.6,16.9-20.3
		c11.1-5.8,26.9-9.5,44.5-9.5h56.3v-8.4V327.2z"/>
	<path class="st4" d="M906.2,835.5c0,29.4-23.6,53-53,53h-314c-29.4,0-53-23.7-53-53v-419c0-29.4,23.7-53,53-53h314
		c29.4,0,53,23.7,53,53V835.5L906.2,835.5z"/>
	<path class="st5" d="M906.2,782.7c0,29.3-23.6,53-53,53h-314c-29.4,0-53-23.7-53-53v52.8c0,29.4,23.7,53,53,53h314
		c29.4,0,53-23.7,53-53V782.7L906.2,782.7z"/>
	<path class="st6" d="M906.2,469.4c0-29.3-23.6-53-53-53h-314c-29.4,0-53,23.7-53,53v-52.8c0-29.4,23.7-53,53-53h314
		c29.4,0,53,23.7,53,53V469.4L906.2,469.4z"/>
	<path class="st0" d="M902,623.1v212.5c0,27.1-21.7,48.8-48.8,48.8h-314c-27.1,0-48.8-21.7-48.8-48.8V623.1H482v212.5
		c0,31.6,25.6,57.2,57.2,57.2h314c31.6,0,57.2-25.6,57.2-57.2V623.1H902z"/>
	<path class="st2" d="M537.1,913.2c-10.7,0-21,4.2-28.5,11.8c-7.6,7.6-11.8,17.8-11.8,28.5s4.2,20.9,11.8,28.5s17.8,11.8,28.5,11.8
		s20.9-4.2,28.5-11.8s11.8-17.8,11.8-28.5s-4.2-20.9-11.8-28.5C558,917.4,547.8,913.2,537.1,913.2L537.1,913.2z"/>
	<path class="st0" d="M573.1,950.5c0,1,0.1,2,0.1,3c0,20-16.1,36.1-36.1,36.1S501,973.5,501,953.5c0-1,0-2,0.1-3h-8.4
		c-0.1,1-0.1,2-0.1,3c0,24.5,20,44.5,44.5,44.5s44.5-20,44.5-44.5c0-1,0-2-0.1-3H573.1z"/>
	<path class="st0" d="M537.1,941.3c-6.7,0-12.2,5.5-12.2,12.2c0,3.2,1.3,6.3,3.6,8.6s5.4,3.6,8.6,3.6s6.3-1.3,8.6-3.6
		s3.6-5.4,3.6-8.6c0-3.2-1.3-6.3-3.6-8.6C543.4,942.6,540.3,941.3,537.1,941.3L537.1,941.3z"/>
	<rect x="539.3" y="408.6" class="st1" width="314" height="15.8"/>
	<rect x="811.9" y="365.3" class="st0" width="6.5" height="523.2"/>
	<rect x="574.2" y="365.3" class="st0" width="6.5" height="523.2"/>
	<rect x="693" y="365.3" class="st0" width="6.5" height="523.2"/>
	<path class="st0" d="M539.3,359.4c-31.6,0-57.2,25.6-57.2,57.2V629h8.4V416.6c0-27.1,21.7-48.8,48.8-48.8h314
		c27.1,0,48.8,21.7,48.8,48.8V629h8.4V416.6c0-31.6-25.6-57.2-57.2-57.2H539.3z"/>
	<path class="st0" d="M693.4,67v8.5h56.9c15,0,26.9,11.9,26.9,26.9v36.3h-32.6V108h-51.3v8.3h42.9V147h49.3v-44.7
		c0-19.5-15.8-35.3-35.3-35.3H693.4z"/>
	<path class="st0" d="M855.4,909c-24.5,0-44.5,19.9-44.5,44.5c0,1,0,2,0.1,3h8.4c0-1-0.1-2-0.1-3c0-20,16.1-36.1,36.1-36.1
		s36.1,16.1,36.1,36.1c0,1,0,2-0.1,3h8.4c0.1-1,0.1-2,0.1-3C899.9,929,879.9,909,855.4,909L855.4,909z"/>
	<path class="st0" d="M537.1,909c-24.5,0-44.5,19.9-44.5,44.5c0,1,0,2,0.1,3h8.4c0-1-0.1-2-0.1-3c0-20,16.1-36.1,36.1-36.1
		s36.1,16.1,36.1,36.1c0,1,0,2-0.1,3h8.4c0.1-1,0.1-2,0.1-3C581.6,929,561.6,909,537.1,909L537.1,909z"/>
	<g>
		<path class="st0" d="M479,191.6c-27.9,2.9-45.4,28.5-45.6,54.2l-1,147.3l133-13.8l-3.5-33.3l-95.7,10l0.8-109.9
			c0.1-12.3,5.6-20.1,15.5-21.1l66.2-6.9l-3.5-33.3L479,191.6z"/>
		<path class="st0" d="M386.1,348.4c-17.3,1.8-30.3,17.8-28.5,35.1s17.8,30.3,35.1,28.5l174.2-18.2l-6.6-63.5L386.1,348.4z"/>
		<path class="st0" d="M539.4,185.3l3.5,33.3l66.2-6.9c9.8-1,16.9,5.5,19.5,17.5l23.3,107.4l-95.8,10l3.5,33.3l133-13.8l-31.3-143.9
			c-5.5-25.1-27.9-46.6-55.8-43.7L539.4,185.3z"/>
		<path class="st0" d="M554.4,331.1l6.6,63.5l174.2-18.1c17.4-1.8,30.3-17.8,28.5-35.1s-17.8-30.3-35.1-28.5L554.4,331.1z"/>
		<path class="st7" d="M607.2,195.2c18.9-2,33.6,12,37.7,30.5l27.2,125.6l-222.9,23.2l0.9-128.6c0.2-18.9,11.7-35.6,30.6-37.6
			L607.2,195.2L607.2,195.2z"/>
		<path class="st8" d="M567.9,199.3c18.8-1.9,33.6,12,37.6,30.6l27.3,125.6l39.3-4.1l-27.3-125.6c-4-18.6-18.7-32.6-37.6-30.6
			L567.9,199.3z"/>
		<path class="st9" d="M480.8,208.4c-18.9,1.9-30.5,18.6-30.6,37.6l-0.9,128.6l63.2-6.6l0.9-128.6c0.2-18.9,11.7-35.6,30.6-37.6
			L480.8,208.4z"/>
		<path class="st10" d="M668.8,335.9l-219.4,22.8l0.3-48.4l208.8-21.7L668.8,335.9z"/>
		<path class="st11" d="M619.2,292.7l10.3,47.3l39.3-4.1l-10.3-47.3L619.2,292.7z"/>
		<path class="st12" d="M449.7,310.3l-0.3,48.4l63.2-6.6l0.3-48.4L449.7,310.3z"/>
		<path class="st0" d="M480.3,204.2c-21.1,2.2-34.2,21.1-34.3,41.8l-0.9,133.2l119.1-12.4l-0.9-8.3l-109.8,11.4l0.9-123.9
			c0.1-17.3,10.2-31.8,26.8-33.5l66.2-6.9l-0.9-8.3L480.3,204.2z"/>
		<path class="st0" d="M540.6,197.9l0.9,8.3l66.2-6.9c16.6-1.7,29.4,10.4,33.1,27.3l26.3,121.1l-109.8,11.4l0.9,8.3L677.3,355
			L649,224.8c-4.4-20.2-21.1-36-42.2-33.8L540.6,197.9z"/>
		<path class="st7" d="M730.4,329.5c8.3-0.8,15.7,5.2,16.7,13.5c0.9,8.4-5.1,15.8-13.5,16.7l-342.5,35.6
			c-8.4,0.9-15.8-5.1-16.7-13.5c-0.9-8.4,5.1-15.8,13.5-16.7L730.4,329.5L730.4,329.5z"/>
		<path class="st0" d="M387.5,360.8c-10.6,1.1-18.4,10.7-17.3,21.3c1.1,10.6,10.7,18.4,21.3,17.3l174.2-18.1l-0.9-8.3l-174.2,18.1
			c-6.2,0.6-11.5-3.7-12.1-9.8c-0.6-6.2,3.7-11.5,9.8-12.1l174.2-18.1l-0.9-8.3L387.5,360.8z"/>
		
			<rect x="449.1" y="295.3" transform="matrix(0.9946 -0.1034 0.1034 0.9946 -27.9978 58.8991)" class="st0" width="209.9" height="8.4"/>
		<path class="st0" d="M555.6,343.5l0.9,8.3l174.2-18.1c6.2-0.6,11.5,3.7,12.1,9.8c0.6,6.2-3.7,11.5-9.8,12.1l-174.2,18.1l0.9,8.3
			l174.2-18c10.6-1.1,18.4-10.7,17.3-21.3c-1.1-10.6-10.7-18.4-21.3-17.3L555.6,343.5z"/>
	</g>
</g>
</svg>
