<svg id="Слой_1" data-name="Слой 1" xmlns="http://www.w3.org/2000/svg" viewBox="0 0 195.59 280.63"><defs><style>.cls-1{fill:#eb5a53;}.cls-2{fill:#1a1a1a;}.cls-12,.cls-15,.cls-16,.cls-3{fill:#fff;}.cls-4{fill:#af1739;}.cls-5{fill:#eb5775;}.cls-6{fill:#badbe9;}.cls-7{fill:#8bb0cc;}.cls-8{fill:#f293a2;}.cls-9{fill:#595959;}.cls-10{fill:#797979;}.cls-11{fill:#3e3e3e;}.cls-12{font-size:34.22px;}.cls-12,.cls-15,.cls-16{font-family:Impact;}.cls-13{letter-spacing:-0.01em;}.cls-14{letter-spacing:-0.02em;}.cls-15{font-size:51.1px;}.cls-16{font-size:20px;}</style></defs><path class="cls-1" d="M89.26,181.8c0,7.53-3.31,9-5.61,9s-5.6-1.51-5.6-9,2.51-18.23,5.6-18.23,5.61,10.7,5.61,18.23Zm0,0"/><path class="cls-2" d="M83.65,192.4a6.33,6.33,0,0,0,4.86-2.24c1.44-1.7,2.32-4.36,2.32-8.36a48.73,48.73,0,0,0-1.7-12.36,20.33,20.33,0,0,0-1.95-4.88c-.79-1.32-1.85-2.56-3.53-2.56s-2.73,1.24-3.52,2.56a20.33,20.33,0,0,0-1.95,4.88,48.67,48.67,0,0,0-1.7,12.36c0,4,.88,6.66,2.32,8.36a6.33,6.33,0,0,0,4.85,2.24Zm0-3.13a3,3,0,0,1-2.46-1.14c-.8-.93-1.58-2.79-1.58-6.33a46.1,46.1,0,0,1,1.59-11.51,18.2,18.2,0,0,1,1.61-4.13,3.36,3.36,0,0,1,.84-1,3.06,3.06,0,0,1,.84,1,17.7,17.7,0,0,1,1.62,4.13A46.1,46.1,0,0,1,87.7,181.8c0,3.54-.78,5.4-1.57,6.33a3,3,0,0,1-2.48,1.14Zm0,0"/><path class="cls-1" d="M117.62,181.8c0,7.53-3.31,9-5.61,9s-5.61-1.51-5.61-9,2.51-18.23,5.61-18.23,5.61,10.7,5.61,18.23Zm0,0"/><path class="cls-2" d="M112,192.4a6.35,6.35,0,0,0,4.86-2.24c1.44-1.7,2.32-4.36,2.32-8.36a48.73,48.73,0,0,0-1.7-12.36,20.75,20.75,0,0,0-1.95-4.88c-.79-1.32-1.85-2.56-3.53-2.56s-2.73,1.24-3.52,2.56a20.33,20.33,0,0,0-1.95,4.88,48.67,48.67,0,0,0-1.7,12.36c0,4,.88,6.66,2.31,8.36A6.35,6.35,0,0,0,112,192.4Zm0-3.13a3,3,0,0,1-2.47-1.14c-.79-.93-1.57-2.79-1.57-6.33a46.56,46.56,0,0,1,1.58-11.51,18.64,18.64,0,0,1,1.62-4.13,3.21,3.21,0,0,1,.84-1,3.06,3.06,0,0,1,.84,1,18.16,18.16,0,0,1,1.62,4.13,46.1,46.1,0,0,1,1.59,11.51c0,3.54-.78,5.4-1.58,6.33a3,3,0,0,1-2.47,1.14Zm0,0"/><path class="cls-1" d="M61.06,219.19c2.19,7.2-.55,9.6-2.75,10.27s-5.8.18-8-7-2.88-18.18.08-19.08,8.47,8.62,10.65,15.83Zm0,0"/><path class="cls-2" d="M58.8,230.13a6.42,6.42,0,0,0,4-3.56c.88-2,1-4.84-.21-8.67a48.75,48.75,0,0,0-5.21-11.34,19.9,19.9,0,0,0-3.28-4.11c-1.13-1-2.51-1.91-4.11-1.42s-2.26,2-2.64,3.46a20.18,20.18,0,0,0-.44,5.24,48.22,48.22,0,0,0,2,12.33c1.16,3.82,2.77,6.11,4.63,7.32a6.38,6.38,0,0,0,5.31.75Zm-.91-3a3,3,0,0,1-2.7-.38c-1-.66-2.31-2.21-3.33-5.6A46.15,46.15,0,0,1,50,209.67a18.57,18.57,0,0,1,.36-4.42,3.06,3.06,0,0,1,.52-1.19,3.29,3.29,0,0,1,1.09.71,18.09,18.09,0,0,1,2.74,3.47,46.22,46.22,0,0,1,4.86,10.57c1,3.38.81,5.39.32,6.51a3,3,0,0,1-2,1.81Zm0,0"/><path class="cls-1" d="M143.8,222.75c-2.88,7-6.52,7.08-8.64,6.2s-4.61-3.54-1.73-10.49,9.3-15.89,12.17-14.7,1.08,12-1.8,19Zm0,0"/><path class="cls-2" d="M134.56,230.4a6.36,6.36,0,0,0,5.35-.22c2-1,3.81-3.14,5.34-6.83a48.59,48.59,0,0,0,3.15-12.07,20.36,20.36,0,0,0,.08-5.26c-.23-1.52-.74-3.07-2.29-3.71s-3,.09-4.23,1a20.34,20.34,0,0,0-3.67,3.77,48.62,48.62,0,0,0-6.3,10.77c-1.53,3.69-1.74,6.48-1.06,8.6a6.38,6.38,0,0,0,3.63,3.94Zm1.2-2.9a3,3,0,0,1-1.85-2c-.37-1.17-.38-3.19,1-6.45a46.72,46.72,0,0,1,5.87-10,17.9,17.9,0,0,1,3.08-3.19,3.32,3.32,0,0,1,1.15-.6,3.15,3.15,0,0,1,.4,1.25,18,18,0,0,1-.08,4.42,46.2,46.2,0,0,1-3,11.25c-1.35,3.27-2.78,4.69-3.87,5.25a3,3,0,0,1-2.72.1Zm0,0"/><path class="cls-2" d="M97.83,263a43.93,43.93,0,1,0-43.92-43.93A44,44,0,0,0,97.83,263Zm0-5a38.92,38.92,0,1,1,38.92-38.92A38.87,38.87,0,0,1,97.83,258Zm0,0"/><path class="cls-1" d="M57,220c0-1.72.2-21.74,11.9-27.38,8.3-4,12.93,3.82,29.72,3.58,15.79-.22,19.92-7.25,27.73-3.58,11.69,5.5,11.9,25.7,11.9,27.38,0,2.36-.27,21.1-11.9,27.38-6.86,3.7-10.42-.86-27.38-1-18.54-.2-22.6,5.17-30.07,1C57.31,241,57,222.4,57,220Zm0,0"/><path class="cls-3" d="M97.39,259.71a41.85,41.85,0,0,0,39.42-27.95H58a41.85,41.85,0,0,0,39.43,27.95Zm0,0"/><path class="cls-3" d="M99.57,258.76a38.73,38.73,0,0,0,36.89-27H62.72a38.73,38.73,0,0,0,36.85,27Zm0,0"/><path class="cls-3" d="M137.15,204.68a48.89,48.89,0,0,0-19.08-20,42.39,42.39,0,0,0-20.71-5.93,39.11,39.11,0,0,0-11.62,1.61,40.29,40.29,0,0,0-19.1,12.79,43.74,43.74,0,0,0-7.1,11.53Zm0,0"/><path class="cls-3" d="M135.06,204.61m0,0a40.17,40.17,0,0,0-73.08,0Z"/><path class="cls-2" d="M97.83,261.1a42,42,0,1,0-42-42.05,42.05,42.05,0,0,0,42,42.05Zm0-1.25a40.8,40.8,0,1,1,40.8-40.8,40.79,40.79,0,0,1-40.8,40.8Zm0,0"/><path class="cls-2" d="M84.52,234.06a6.43,6.43,0,0,1-6.45-6.45v-3.23a6.46,6.46,0,0,1,12.91,0v3.23a6.44,6.44,0,0,1-6.46,6.45Zm0,0"/><path class="cls-3" d="M88.28,229.44a2.09,2.09,0,0,1-4.17,0,2.08,2.08,0,0,1,2.09-2.09,2.08,2.08,0,0,1,1.47.61,2.11,2.11,0,0,1,.61,1.48Zm0,0"/><path class="cls-2" d="M111.14,234.06a6.43,6.43,0,0,1-6.45-6.45v-3.23a6.46,6.46,0,0,1,12.91,0v3.23a6.44,6.44,0,0,1-6.46,6.45Zm0,0"/><path class="cls-3" d="M114.9,229.44a2.09,2.09,0,0,1-4.17,0,2.08,2.08,0,0,1,2.09-2.09,2.08,2.08,0,0,1,1.47.61,2.11,2.11,0,0,1,.61,1.48Zm0,0"/><path class="cls-4" d="M104.7,216a1.43,1.43,0,0,0,1.44-1.43V213a8.31,8.31,0,0,0-16.61,0v1.62A1.43,1.43,0,0,0,91,216ZM91,216"/><path class="cls-5" d="M97.83,210.36a8.26,8.26,0,0,0,6.26-2.85,8.31,8.31,0,0,0-12.51,0,8.26,8.26,0,0,0,6.25,2.85Zm0,0"/><path class="cls-3" d="M104.7,216a1.43,1.43,0,0,0,1.44-1.43v-1.45a19.15,19.15,0,0,0-16.61,0v1.44A1.43,1.43,0,0,0,91,216ZM91,216"/><path class="cls-6" d="M91.76,216V213.8c0-.83.11-1.36.67-1.74a19.15,19.15,0,0,0-2.9,1.09v1.44A1.43,1.43,0,0,0,91,216Zm-.8,0"/><path class="cls-6" d="M104.7,216a1.43,1.43,0,0,0,1.44-1.43v-1.45a19.67,19.67,0,0,0-5.71-1.69c1,.26,1.25,1.23,1.25,2.35V216Zm-3,0"/><path class="cls-7" d="M103.91,216V213.8c0-.83-.11-1.36-.68-1.74a18.87,18.87,0,0,1,2.91,1.09v1.44A1.43,1.43,0,0,1,104.7,216Zm.79,0"/><path class="cls-2" d="M104.7,216.65a2.07,2.07,0,0,0,2.06-2.06V213a8.93,8.93,0,1,0-17.85,0v1.62a2.06,2.06,0,0,0,2,2.06ZM91,215.4a.79.79,0,0,1-.8-.81V213a7.68,7.68,0,0,1,15.35,0v1.62a.79.79,0,0,1-.81.81Zm0,0"/><path class="cls-2" d="M89.49,213.49a19,19,0,0,1,16.69,0l.27-.57a19.67,19.67,0,0,0-17.23,0l.27.57Zm0,0"/><path class="cls-8" d="M96.92,208.12a.86.86,0,0,1-.41.69,1.74,1.74,0,0,1-1,.28c-.76,0-1.38-.43-1.38-1s.62-1,1.38-1a1.74,1.74,0,0,1,1,.28.87.87,0,0,1,.41.69Zm0,0"/><path class="cls-2" d="M105.87,277.05v-4.2c-4-.27-7.93-.32-12-.62-5.15-.38-8.21-1.87-10-3.7A9,9,0,0,1,81.29,262c0-4.33,2.31-7.23,6.33-9.19s9.75-2.66,15.62-1.76c.88.14,1.75.31,2.63.51v-4.34c-.66-.14-1.33-.26-2-.36-6.58-1-13.06-.33-18.12,2.13s-8.71,7-8.71,13a13.38,13.38,0,0,0,3.74,9.56c2.7,2.71,6.88,4.51,12.73,4.94,4.42.33,8.36.35,12.35.59Zm0,0"/><path class="cls-2" d="M121.11,279.59l-1.39-3.74-.34-.91a62.71,62.71,0,0,1,11,2.4l3.25,1.14-.45-3.42c-2.2-16.76-15.71-25.92-28.69-28.14v4.32c10.39,2,20.65,8.78,23.74,21.05a43.21,43.21,0,0,0-12.05-1.86l-3,0,1.25,3.38a82.39,82.39,0,0,0-9.91-1.07V277a65.76,65.76,0,0,1,12.7,1.68Zm0,0"/><path class="cls-9" d="M117.73,276.59l-1.5-4c6.86,0,14.89,2.78,14.89,2.78-4.22-32-51.95-34-51.95-13.38,0,5.8,3.51,11.58,14.5,12.39,8.27.6,15.16.09,24.06,2.24Zm0,0"/><path class="cls-10" d="M117.73,276.59l-1.5-4c6.86,0,14.89,2.78,14.89,2.78C120,260.83,87.24,259,81.44,269.05c2.14,2.76,6,4.84,12.23,5.3,8.27.6,15.16.09,24.06,2.24Zm0,0"/><path class="cls-11" d="M131.12,275.34c-4.22-32-51.95-34-51.95-13.38a12.69,12.69,0,0,0,.3,2.82c7.63-18.43,46.06-10.31,51.65,10.56Zm0,0"/><path class="cls-2" d="M105.87,275.45v-1c-4-.25-7.93-.28-12.16-.59-5.41-.4-8.89-2-11-4.17a10.6,10.6,0,0,1-3-7.69c0-4.94,2.81-8.47,7.22-10.62s10.42-2.84,16.56-1.9c.8.12,1.59.27,2.39.45V248.8c-.74-.16-1.49-.29-2.23-.41-6.32-1-12.51-.28-17.18,2s-7.82,6.23-7.82,11.58a11.71,11.71,0,0,0,3.28,8.44c2.36,2.38,6.13,4.06,11.71,4.47,4.32.32,8.23.34,12.24.58Zm0,0"/><path class="cls-2" d="M118.57,277.34l-.34-.93L117,273.15a55,55,0,0,1,13.92,2.69l.82.28-.12-.85c-2.09-15.89-14.75-24.53-27.11-26.73v1.08c11.73,2.15,23.58,10.19,25.92,25A47.89,47.89,0,0,0,116.23,272h-.76l1.44,3.87a72.67,72.67,0,0,0-12.38-1.57v1a68.12,68.12,0,0,1,13.07,1.74Zm0,0"/><path class="cls-1" d="M106.33,98.83c0-7.53,3.31-9,5.61-9s5.6,1.51,5.6,9-2.51,18.23-5.6,18.23-5.61-10.7-5.61-18.23Zm0,0"/><path class="cls-2" d="M111.94,88.23a6.35,6.35,0,0,0-4.86,2.24c-1.44,1.7-2.32,4.36-2.32,8.36a48.73,48.73,0,0,0,1.7,12.36,20.33,20.33,0,0,0,2,4.88c.79,1.32,1.85,2.56,3.53,2.56s2.73-1.24,3.52-2.56a20.33,20.33,0,0,0,2-4.88,48.67,48.67,0,0,0,1.7-12.36c0-4-.88-6.66-2.32-8.36a6.33,6.33,0,0,0-4.85-2.24Zm0,3.13a3,3,0,0,1,2.47,1.14c.79.93,1.57,2.79,1.57,6.33a46.1,46.1,0,0,1-1.59,11.51,18.2,18.2,0,0,1-1.61,4.13,3.36,3.36,0,0,1-.84,1,3.06,3.06,0,0,1-.84-1,17.7,17.7,0,0,1-1.62-4.13,46.1,46.1,0,0,1-1.59-11.51c0-3.54.78-5.4,1.58-6.33a3,3,0,0,1,2.47-1.14Zm0,0"/><path class="cls-1" d="M78,98.83c0-7.53,3.31-9,5.61-9s5.61,1.51,5.61,9-2.51,18.23-5.61,18.23S78,106.36,78,98.83Zm0,0"/><path class="cls-2" d="M83.58,88.23a6.35,6.35,0,0,0-4.86,2.24c-1.44,1.7-2.32,4.36-2.32,8.36a48.73,48.73,0,0,0,1.7,12.36,20.75,20.75,0,0,0,2,4.88c.79,1.32,1.85,2.56,3.53,2.56s2.73-1.24,3.52-2.56a20.33,20.33,0,0,0,2-4.88,48.67,48.67,0,0,0,1.7-12.36c0-4-.87-6.66-2.31-8.36a6.35,6.35,0,0,0-4.86-2.24Zm0,3.13a3,3,0,0,1,2.47,1.14c.79.93,1.57,2.79,1.57,6.33A46.09,46.09,0,0,1,86,110.34a18.64,18.64,0,0,1-1.62,4.13,3.21,3.21,0,0,1-.84,1,3.06,3.06,0,0,1-.84-1,18.16,18.16,0,0,1-1.62-4.13,46.1,46.1,0,0,1-1.59-11.51c0-3.54.79-5.4,1.58-6.33a3,3,0,0,1,2.47-1.14Zm0,0"/><path class="cls-1" d="M134.53,61.44c-2.18-7.2.55-9.6,2.75-10.27s5.8-.18,8,7,2.88,18.18-.08,19.08-8.47-8.62-10.65-15.83Zm0,0"/><path class="cls-2" d="M136.79,50.5a6.42,6.42,0,0,0-4,3.56c-.88,2-.95,4.84.21,8.67a48.75,48.75,0,0,0,5.21,11.34,20.24,20.24,0,0,0,3.28,4.11c1.14,1,2.51,1.91,4.11,1.42s2.26-2,2.64-3.46a20.6,20.6,0,0,0,.45-5.24,48.67,48.67,0,0,0-2-12.33c-1.16-3.82-2.76-6.11-4.63-7.32a6.38,6.38,0,0,0-5.31-.75Zm.91,3a3,3,0,0,1,2.7.38c1,.66,2.31,2.21,3.34,5.6A46.61,46.61,0,0,1,145.56,71a18.57,18.57,0,0,1-.36,4.42,3.32,3.32,0,0,1-.51,1.19,3.17,3.17,0,0,1-1.1-.71,18.09,18.09,0,0,1-2.74-3.47A46.65,46.65,0,0,1,136,61.82c-1-3.38-.81-5.39-.32-6.51a3,3,0,0,1,2-1.81Zm0,0"/><path class="cls-1" d="M51.79,57.88c2.88-7,6.52-7.08,8.64-6.2S65,55.22,62.16,62.17,52.86,78.06,50,76.87s-1.09-12,1.79-19Zm0,0"/><path class="cls-2" d="M61,50.23a6.36,6.36,0,0,0-5.35.22c-2,1-3.81,3.14-5.33,6.83a48.18,48.18,0,0,0-3.16,12.07,20.36,20.36,0,0,0-.08,5.26c.23,1.52.74,3.07,2.29,3.71s3-.09,4.23-1a20.34,20.34,0,0,0,3.67-3.77,48.62,48.62,0,0,0,6.3-10.77c1.53-3.69,1.74-6.48,1.06-8.6A6.36,6.36,0,0,0,61,50.23Zm-1.2,2.9a3,3,0,0,1,1.85,2c.37,1.17.38,3.19-1,6.45a46.31,46.31,0,0,1-5.87,10,17.9,17.9,0,0,1-3.08,3.19,3.32,3.32,0,0,1-1.15.6,3.15,3.15,0,0,1-.4-1.25,18.56,18.56,0,0,1,.08-4.42,46.2,46.2,0,0,1,3-11.25c1.35-3.27,2.78-4.69,3.87-5.25a3,3,0,0,1,2.72-.1Zm0,0"/><path class="cls-2" d="M97.76,17.65a43.93,43.93,0,1,0,43.92,43.93A44,44,0,0,0,97.76,17.65Zm0,5A38.92,38.92,0,1,1,58.84,61.58,38.87,38.87,0,0,1,97.76,22.66Zm0,0"/><path class="cls-1" d="M56.33,61.58A41.43,41.43,0,1,1,68.47,90.87,41.4,41.4,0,0,1,56.33,61.58Zm0,0"/><path class="cls-1" d="M61.6,59.42A38.31,38.31,0,1,1,72.82,86.51,38.35,38.35,0,0,1,61.6,59.42Zm0,0"/><path class="cls-3" d="M56.33,61.58a41.43,41.43,0,1,0,82.85,0Zm82.85,0"/><path class="cls-3" d="M61.71,61.58a38.29,38.29,0,0,0,76.45,0Zm76.45,0"/><path class="cls-2" d="M97.76,19.53a42,42,0,1,0,42,42.05,42.05,42.05,0,0,0-42-42Zm0,1.25A40.8,40.8,0,1,1,57,61.58a40.79,40.79,0,0,1,40.8-40.8Zm0,0"/><path class="cls-2" d="M111.07,46.57A6.43,6.43,0,0,1,117.52,53v3.23a6.45,6.45,0,0,1-12.9,0V53a6.43,6.43,0,0,1,6.45-6.45Zm0,0"/><path class="cls-3" d="M107.31,51.19a2.09,2.09,0,0,1,4.17,0,2.08,2.08,0,0,1-2.09,2.09,2.08,2.08,0,0,1-1.47-.61,2.11,2.11,0,0,1-.61-1.48Zm0,0"/><path class="cls-2" d="M84.45,46.57A6.43,6.43,0,0,1,90.9,53v3.23a6.46,6.46,0,0,1-12.91,0V53a6.44,6.44,0,0,1,6.46-6.45Zm0,0"/><path class="cls-3" d="M80.69,51.19a2.09,2.09,0,0,1,4.17,0,2.08,2.08,0,0,1-2.09,2.09,2.08,2.08,0,0,1-1.47-.61,2.11,2.11,0,0,1-.61-1.48Zm0,0"/><path class="cls-4" d="M90.89,64.61A1.42,1.42,0,0,0,89.46,66v1.62a8.3,8.3,0,1,0,16.6,0V66a1.43,1.43,0,0,0-1.43-1.43Zm13.74,0"/><path class="cls-5" d="M97.76,70.27a8.26,8.26,0,0,0-6.26,2.85,8.31,8.31,0,0,0,12.51,0,8.26,8.26,0,0,0-6.25-2.85Zm0,0"/><path class="cls-3" d="M90.89,64.61A1.42,1.42,0,0,0,89.46,66v1.45a19.12,19.12,0,0,0,16.6,0V66a1.43,1.43,0,0,0-1.43-1.43Zm13.74,0"/><path class="cls-6" d="M103.83,64.61v2.22c0,.83-.11,1.36-.67,1.74a19.15,19.15,0,0,0,2.9-1.09V66a1.43,1.43,0,0,0-1.43-1.43Zm.8,0"/><path class="cls-6" d="M90.89,64.61A1.42,1.42,0,0,0,89.46,66v1.45a19.52,19.52,0,0,0,5.7,1.69c-1-.26-1.25-1.23-1.25-2.35V64.61Zm3,0"/><path class="cls-7" d="M91.68,64.61v2.22c0,.83.11,1.36.68,1.74a18.38,18.38,0,0,1-2.9-1.09V66a1.42,1.42,0,0,1,1.43-1.43Zm-.79,0"/><path class="cls-2" d="M90.89,64A2.07,2.07,0,0,0,88.83,66v1.62a8.93,8.93,0,1,0,17.86,0V66A2.07,2.07,0,0,0,104.63,64Zm13.74,1.25a.79.79,0,0,1,.8.81v1.62a7.68,7.68,0,0,1-15.35,0V66a.79.79,0,0,1,.81-.81Zm0,0"/><path class="cls-2" d="M106.1,67.14a19,19,0,0,1-16.68,0l-.28.57a19.67,19.67,0,0,0,17.23,0l-.27-.57Zm0,0"/><path class="cls-8" d="M98.68,72.51a.85.85,0,0,1,.4-.69,1.74,1.74,0,0,1,1-.28c.76,0,1.38.43,1.38,1s-.62,1-1.38,1a1.74,1.74,0,0,1-1-.28.86.86,0,0,1-.4-.69Zm0,0"/><path class="cls-2" d="M136.76,81.1l-.62-.08,1.1-8.35.62.09Zm1.1-8.34"/><path class="cls-2" d="M89.72,3.58v4.2c4,.27,7.93.32,12,.62,5.15.38,8.21,1.87,10,3.7a9,9,0,0,1,2.51,6.57c0,4.33-2.31,7.23-6.33,9.19s-9.74,2.66-15.62,1.76c-.88-.14-1.75-.31-2.63-.51v4.34c.67.14,1.33.26,2,.36,6.58,1,13.06.33,18.12-2.13s8.72-7,8.72-13a13.37,13.37,0,0,0-3.75-9.56c-2.7-2.71-6.88-4.51-12.73-4.94-4.42-.33-8.36-.35-12.35-.59Zm0,0"/><path class="cls-2" d="M74.49,1l1.38,3.74.34.91a62.48,62.48,0,0,1-11-2.4L61.92,2.15l.45,3.42c2.2,16.76,15.71,25.92,28.69,28.14V29.39c-10.39-2-20.64-8.78-23.73-21a43.07,43.07,0,0,0,12,1.86l3,0L81.15,6.8a82.39,82.39,0,0,0,9.91,1.07V3.66A65.76,65.76,0,0,1,78.36,2Zm0,0"/><path class="cls-9" d="M77.86,4l1.5,4c-6.86,0-14.89-2.78-14.89-2.78,4.22,32,52,34,52,13.38,0-5.8-3.51-11.58-14.5-12.39C93.65,5.68,86.76,6.19,77.86,4Zm0,0"/><path class="cls-10" d="M77.86,4l1.5,4c-6.86,0-14.89-2.78-14.89-2.78,11.14,14.51,43.88,16.34,49.68,6.29-2.14-2.76-6-4.84-12.23-5.3C93.65,5.68,86.76,6.19,77.86,4Zm0,0"/><path class="cls-11" d="M64.47,5.29c4.22,32,52,34,52,13.38a12.69,12.69,0,0,0-.3-2.82C108.49,34.28,70.06,26.16,64.47,5.29Zm0,0"/><path class="cls-2" d="M89.72,5.18v1c4,.25,7.93.28,12.16.59,5.41.4,8.89,2,11,4.17a10.6,10.6,0,0,1,3,7.69c0,4.94-2.81,8.47-7.22,10.62s-10.42,2.84-16.56,1.9c-.8-.12-1.59-.27-2.39-.45v1.09c.75.16,1.49.29,2.23.41,6.32,1,12.51.28,17.18-2S117,24,117,18.67a11.71,11.71,0,0,0-3.28-8.44c-2.36-2.38-6.13-4.06-11.71-4.47-4.32-.32-8.23-.34-12.24-.58Zm0,0"/><path class="cls-2" d="M77,3.29l.34.93,1.21,3.26A55,55,0,0,1,64.65,4.79l-.82-.28.12.85C66,21.25,78.7,29.89,91.06,32.09V31C79.33,28.86,67.48,20.82,65.14,6A47.89,47.89,0,0,0,79.36,8.6h.76L78.68,4.73A72.67,72.67,0,0,0,91.06,6.3v-1A68.12,68.12,0,0,1,78,3.52Zm0,0"/><rect class="cls-1" x="10.54" y="90.5" width="174.5" height="99.63" rx="5.32" transform="translate(195.59 280.63) rotate(180)"/><text class="cls-12" transform="translate(17.17 176.79)">398,<tspan class="cls-13" x="60.71" y="0">6</tspan><tspan class="cls-14" x="78.91" y="0">2</tspan><tspan x="95.4" y="0">4 km</tspan></text><text class="cls-15" transform="translate(16.74 138.28)">granica </text><path class="cls-1" d="M45,0,16,0H0L0,16c0,7,0,14,0,21A29.11,29.11,0,0,0,51.47,18.3,28.92,28.92,0,0,0,45,0Z"/><text class="cls-16" transform="translate(15.57 31.75)">07</text></svg>