<svg id="Слой_1" data-name="Слой 1" xmlns="http://www.w3.org/2000/svg" viewBox="0 0 195.59 280.63"><defs><style>.cls-1{fill:#e83e3e;}.cls-2{font-size:63.44px;}.cls-13,.cls-2,.cls-3,.cls-4{fill:#fff;}.cls-13,.cls-2,.cls-3{font-family:Impact;}.cls-3{font-size:21.68px;}.cls-5{fill:#1a1a1a;}.cls-6{fill:#badbe9;}.cls-7{fill:#777e69;}.cls-8{fill:#9fa98d;}.cls-9{fill:#423d3d;}.cls-10{fill:#5a5252;}.cls-11{fill:#7f6d6b;}.cls-12{fill:#e83b54;}.cls-13{font-size:20px;}</style></defs><rect class="cls-1" x="-279.23" y="-10.59" width="498.5" height="306.69"/><text class="cls-2" transform="translate(32.57 264.13)">USSR</text><text class="cls-3" transform="translate(34.24 208.16)">pożegnali się z </text><path class="cls-4" d="M99.44,103.77h-.28l-.09,0H99l-.11,0-.08,0-.08,0-.07,0-.08,0-.07,0-.07,0-.06.05-.07.06-.06.06-.06.06-.05.07a.18.18,0,0,0,0,.07.18.18,0,0,0,0,.07l0,.07a.3.3,0,0,1,0,.08l0,.07,0,.08a.41.41,0,0,0,0,.08l0,.08s0,.06,0,.09a.19.19,0,0,0,0,.08s0,.06,0,.09,0,0,0,.08v.23a.25.25,0,0,1,0,.08s0,.06,0,.09,0,.06,0,.08,0,.06,0,.08h0v0a.76.76,0,0,0,0,.11l0,.08,0,.08a.25.25,0,0,1,0,.07l0,.08a.43.43,0,0,1,0,.07.18.18,0,0,1,0,.07l.06.06,0,.07.06.06.07.06.06,0,.07,0,.07.05.07,0,.08,0a.2.2,0,0,0,.08,0l.08,0,.08,0,.08,0,.08,0h.08l.09,0h.49l.08,0,.07,0h0l.11,0,.08,0,.08,0,.08,0,.07,0,.07,0,.07-.05.07-.06.06-.05.06-.06.06-.07.06-.06,0-.07,0-.07.05-.07s0,0,0-.08a.59.59,0,0,1,0-.08l0-.07,0-.09s0,0,0-.08a.19.19,0,0,0,0-.08s0-.06,0-.08,0-.06,0-.09a.25.25,0,0,0,0-.08v-.23s0-.06,0-.09,0-.06,0-.08,0-.06,0-.09a.31.31,0,0,0,0-.08h0v0l0-.11a.2.2,0,0,0,0-.08l0-.08,0-.08,0-.07-.05-.07,0-.07,0-.07-.06-.06-.06-.06-.06-.06-.07,0a.18.18,0,0,0-.07-.05l-.07,0-.07,0-.08,0-.08,0-.07,0-.08,0-.09,0-.08,0-.08,0h-.29Zm0,0"/><path class="cls-4" d="M99.44,103.77h-.28l-.09,0H99l-.11,0-.08,0-.08,0-.07,0-.08,0-.07,0-.07,0-.06.05-.07.06-.06.06-.06.06-.05.07a.18.18,0,0,0,0,.07.18.18,0,0,0,0,.07l0,.07a.3.3,0,0,1,0,.08l0,.07,0,.08a.41.41,0,0,0,0,.08l0,.08s0,.06,0,.09a.19.19,0,0,0,0,.08s0,.06,0,.09,0,0,0,.08v.23a.25.25,0,0,1,0,.08s0,.06,0,.09,0,.06,0,.09,0,0,0,.07h0v0a.76.76,0,0,0,0,.11l0,.08,0,.08a.25.25,0,0,1,0,.07l0,.08a.43.43,0,0,1,0,.07.18.18,0,0,1,0,.07l.06.06,0,.07.06.06.07.06.06,0,.07,0,.07.05.07,0,.08,0a.2.2,0,0,0,.08,0l.08,0,.08,0,.08,0,.08,0h.08l.09,0h.4l.09,0h.08l.07,0h0l.11,0,.08,0a.2.2,0,0,0,.08,0l.08,0,.07,0a895895542553.19,895895542553.19,0,0,1,.14-.1l.07,0,.06-.05.06-.07.06-.06.06-.06a.18.18,0,0,1,0-.07l0-.07a.35.35,0,0,0,.05-.08l0-.07a.3.3,0,0,1,0-.08l0-.08,0-.08s0,0,0-.08a.24.24,0,0,0,0-.08s0-.06,0-.09,0,0,0-.08a.28.28,0,0,0,0-.09v-.23s0-.05,0-.08,0-.06,0-.09,0,0,0-.08a.24.24,0,0,0,0-.08h0v0l0-.12,0-.08,0-.07,0-.08,0-.07-.05-.07,0-.07,0-.07-.06-.06-.06-.06-.06-.06-.07-.06-.07,0-.07,0-.07,0-.08,0-.08,0-.07,0-.08,0-.09,0-.08,0h-.17l-.08,0h-.12Zm0,0"/><path class="cls-4" d="M99.44,103.77h-.28l-.09,0H99l-.11,0-.08,0-.08,0-.07,0-.08,0-.07,0-.07,0-.06.05-.07.06-.06.06-.06.06-.05.07a.18.18,0,0,0,0,.07.18.18,0,0,0,0,.07l0,.07a.3.3,0,0,1,0,.08l0,.07,0,.08a.41.41,0,0,0,0,.08l0,.08s0,.06,0,.09a.19.19,0,0,0,0,.08s0,.06,0,.09,0,0,0,.08v.23a.25.25,0,0,1,0,.08s0,.06,0,.09,0,.06,0,.09,0,0,0,.07h0v0a.76.76,0,0,0,0,.11l0,.08,0,.08a.25.25,0,0,1,0,.07l0,.08a.43.43,0,0,1,0,.07.18.18,0,0,1,0,.07l.06.06,0,.07.06.06.07.06.06,0,.07,0,.07.05.07,0,.08,0a.2.2,0,0,0,.08,0l.08,0,.08,0,.08,0,.08,0h.08l.09,0h.4l.09,0h.08l.07,0h0l.11,0,.08,0a.2.2,0,0,0,.08,0l.08,0,.07,0a895895542553.19,895895542553.19,0,0,1,.14-.1l.07,0,.06-.05.06-.07.06-.06.06-.06a.18.18,0,0,1,0-.07l0-.07a.35.35,0,0,0,.05-.08l0-.07a.3.3,0,0,1,0-.08l0-.08,0-.08s0,0,0-.08a.24.24,0,0,0,0-.08s0-.06,0-.09,0,0,0-.08a.28.28,0,0,0,0-.09v-.23s0-.05,0-.08,0-.06,0-.09,0,0,0-.08a.24.24,0,0,0,0-.08h0v0l0-.12,0-.08,0-.07,0-.08,0-.07-.05-.07,0-.07,0-.07-.06-.06-.06-.06-.06-.06-.07-.06-.07,0-.07,0-.07,0-.08,0-.08,0-.07,0-.08,0-.09,0-.08,0h-.17l-.08,0h-.12Zm0,0"/><path class="cls-4" d="M99.44,103.77h-.28l-.09,0H99l-.11,0-.08,0-.08,0-.07,0-.08,0-.07,0-.07,0-.06.05-.07.06-.06.06-.06.06-.05.07a.18.18,0,0,0,0,.07.18.18,0,0,0,0,.07l0,.07a.3.3,0,0,1,0,.08l0,.07,0,.08a.41.41,0,0,0,0,.08l0,.08s0,.06,0,.09a.19.19,0,0,0,0,.08s0,.06,0,.09,0,0,0,.08v.23a.25.25,0,0,1,0,.08s0,.06,0,.09,0,.06,0,.09,0,0,0,.07h0v0a.76.76,0,0,0,0,.11l0,.08,0,.08a.25.25,0,0,1,0,.07l0,.08a.43.43,0,0,1,0,.07.18.18,0,0,1,0,.07l.06.06,0,.07.06.06.07.06.06,0,.07,0,.07.05.07,0,.08,0a.2.2,0,0,0,.08,0l.08,0,.08,0,.08,0,.08,0h.08l.09,0h.4l.09,0h.08l.07,0h0l.11,0,.08,0a.2.2,0,0,0,.08,0l.08,0,.07,0a895895542553.19,895895542553.19,0,0,1,.14-.1l.07,0,.06-.05.06-.07.06-.06.06-.06a.18.18,0,0,1,0-.07l0-.07a.35.35,0,0,0,.05-.08l0-.07a.3.3,0,0,1,0-.08l0-.08,0-.08s0,0,0-.08a.24.24,0,0,0,0-.08s0-.06,0-.09,0,0,0-.08a.28.28,0,0,0,0-.09v-.23s0-.05,0-.08,0-.06,0-.09,0,0,0-.08a.24.24,0,0,0,0-.08h0v0l0-.12,0-.08,0-.07,0-.08,0-.07-.05-.07,0-.07,0-.07-.06-.06-.06-.06-.06-.06-.07-.06-.07,0-.07,0-.07,0-.08,0-.08,0-.07,0-.08,0-.09,0-.08,0h-.17l-.08,0h-.12Zm0,0"/><path class="cls-4" d="M99.44,103.77h-.28l-.09,0H99l-.11,0-.08,0-.08,0-.07,0-.08,0-.07,0-.07,0-.06.05-.07.06-.06.06-.06.06-.05.07a.18.18,0,0,0,0,.07.18.18,0,0,0,0,.07l0,.07a.3.3,0,0,1,0,.08l0,.07,0,.08a.41.41,0,0,0,0,.08l0,.08s0,.06,0,.09a.19.19,0,0,0,0,.08s0,.06,0,.09,0,0,0,.08v.23a.25.25,0,0,1,0,.08s0,.06,0,.09,0,.06,0,.09,0,0,0,.07h0v0a.76.76,0,0,0,0,.11l0,.08,0,.08a.25.25,0,0,1,0,.07l0,.08a.43.43,0,0,1,0,.07.18.18,0,0,1,0,.07l.06.06,0,.07.06.06.07.06.06,0,.07,0,.07.05.07,0,.08,0a.2.2,0,0,0,.08,0l.08,0,.08,0,.08,0,.08,0h.08l.09,0h.4l.09,0h.08l.07,0h0l.11,0,.08,0a.2.2,0,0,0,.08,0l.08,0,.07,0a895895542553.19,895895542553.19,0,0,1,.14-.1l.07,0,.06-.05.06-.07.06-.06.06-.06a.18.18,0,0,1,0-.07l0-.07a.35.35,0,0,0,.05-.08l0-.07a.3.3,0,0,1,0-.08l0-.08,0-.08s0,0,0-.08a.24.24,0,0,0,0-.08s0-.06,0-.09,0,0,0-.08a.28.28,0,0,0,0-.09v-.23s0-.05,0-.08,0-.06,0-.09,0,0,0-.08a.24.24,0,0,0,0-.08h0v0l0-.12,0-.08,0-.07,0-.08,0-.07-.05-.07,0-.07,0-.07-.06-.06-.06-.06-.06-.06-.07-.06-.07,0-.07,0-.07,0-.08,0-.08,0-.07,0-.08,0-.09,0-.08,0h-.17l-.08,0h-.12Zm0,0"/><path class="cls-4" d="M99.44,103.77h-.28l-.09,0H99l-.11,0-.08,0-.08,0-.07,0-.08,0-.07,0-.07,0-.06.05-.07.06-.06.06-.06.06-.05.07a.18.18,0,0,0,0,.07.18.18,0,0,0,0,.07l0,.07a.3.3,0,0,1,0,.08l0,.07,0,.08a.41.41,0,0,0,0,.08l0,.08s0,.06,0,.09a.19.19,0,0,0,0,.08s0,.06,0,.09,0,0,0,.08v.23a.25.25,0,0,1,0,.08s0,.06,0,.09,0,.06,0,.09,0,0,0,.07h0v0a.76.76,0,0,0,0,.11l0,.08,0,.08a.25.25,0,0,1,0,.07l0,.08a.43.43,0,0,1,0,.07.18.18,0,0,1,0,.07l.06.06,0,.07.06.06.07.06.06,0,.07,0,.07.05.07,0,.08,0a.2.2,0,0,0,.08,0l.08,0,.08,0,.08,0,.08,0h.08l.09,0h.4l.09,0h.08l.07,0h0l.11,0,.08,0a.2.2,0,0,0,.08,0l.08,0,.07,0a895895542553.19,895895542553.19,0,0,1,.14-.1l.07,0,.06-.05.06-.07.06-.06.06-.06a.18.18,0,0,1,0-.07l0-.07a.35.35,0,0,0,.05-.08l0-.07a.3.3,0,0,1,0-.08l0-.08,0-.08s0,0,0-.08a.24.24,0,0,0,0-.08s0-.06,0-.09,0,0,0-.08a.28.28,0,0,0,0-.09v-.23s0-.05,0-.08,0-.06,0-.09,0,0,0-.08a.24.24,0,0,0,0-.08h0v0l0-.12,0-.08,0-.07,0-.08,0-.07-.05-.07,0-.07,0-.07-.06-.06-.06-.06-.06-.06-.07-.06-.07,0-.07,0-.07,0-.08,0-.08,0-.07,0-.08,0-.09,0-.08,0h-.17l-.08,0h-.12Zm0,0"/><path class="cls-4" d="M99.44,103.77h-.28l-.09,0H99l-.11,0-.08,0-.08,0-.07,0-.08,0-.07,0-.07,0-.06.05-.07.06-.06.06-.06.06-.05.07a.18.18,0,0,0,0,.07.18.18,0,0,0,0,.07l0,.07a.3.3,0,0,1,0,.08l0,.07,0,.08a.41.41,0,0,0,0,.08l0,.08s0,.06,0,.09a.19.19,0,0,0,0,.08s0,.06,0,.09,0,0,0,.08v.23a.25.25,0,0,1,0,.08s0,.06,0,.09,0,.06,0,.09,0,0,0,.07h0v0a.76.76,0,0,0,0,.11l0,.08,0,.08a.25.25,0,0,1,0,.07l0,.08a.43.43,0,0,1,0,.07.18.18,0,0,1,0,.07l.06.06,0,.07.06.06.07.06.06,0,.07,0,.07.05.07,0,.08,0a.2.2,0,0,0,.08,0l.08,0,.08,0,.08,0,.08,0h.08l.09,0h.4l.09,0h.08l.07,0h0l.11,0,.08,0a.2.2,0,0,0,.08,0l.08,0,.07,0a895895542553.19,895895542553.19,0,0,1,.14-.1l.07,0,.06-.05.06-.07.06-.06.06-.06a.18.18,0,0,1,0-.07l0-.07a.35.35,0,0,0,.05-.08l0-.07a.3.3,0,0,1,0-.08l0-.08,0-.08s0,0,0-.08a.24.24,0,0,0,0-.08s0-.06,0-.09,0,0,0-.08a.28.28,0,0,0,0-.09v-.23s0-.05,0-.08,0-.06,0-.09,0,0,0-.08a.24.24,0,0,0,0-.08h0v0l0-.12,0-.08,0-.07,0-.08,0-.07-.05-.07,0-.07,0-.07-.06-.06-.06-.06-.06-.06-.07-.06-.07,0-.07,0-.07,0-.08,0-.08,0-.07,0-.08,0-.09,0-.08,0h-.17l-.08,0h-.12Zm0,0"/><path class="cls-4" d="M99.44,103.77h-.28l-.09,0H99l-.11,0-.08,0-.08,0-.07,0-.08,0-.07,0-.07,0-.06.05-.07.06-.06.06-.06.06-.05.07a.18.18,0,0,0,0,.07.18.18,0,0,0,0,.07l0,.07a.3.3,0,0,1,0,.08l0,.07,0,.08a.41.41,0,0,0,0,.08l0,.08s0,.06,0,.09a.19.19,0,0,0,0,.08s0,.06,0,.09,0,0,0,.08v.23a.25.25,0,0,1,0,.08s0,.06,0,.09,0,.06,0,.09,0,0,0,.07h0v0a.76.76,0,0,0,0,.11l0,.08,0,.08a.25.25,0,0,1,0,.07l0,.08a.43.43,0,0,1,0,.07.18.18,0,0,1,0,.07l.06.06,0,.07.06.06.07.06.06,0,.07,0,.07.05.07,0,.08,0a.2.2,0,0,0,.08,0l.08,0,.08,0,.08,0,.08,0h.08l.09,0h.4l.09,0h.08l.07,0h0l.11,0,.08,0a.2.2,0,0,0,.08,0l.08,0,.07,0a895895542553.19,895895542553.19,0,0,1,.14-.1l.07,0,.06-.05.06-.07.06-.06.06-.06a.18.18,0,0,1,0-.07l0-.07a.35.35,0,0,0,.05-.08l0-.07a.3.3,0,0,1,0-.08l0-.08,0-.08s0,0,0-.08a.24.24,0,0,0,0-.08s0-.06,0-.09,0,0,0-.08a.28.28,0,0,0,0-.09v-.23s0-.05,0-.08,0-.06,0-.09,0,0,0-.08a.24.24,0,0,0,0-.08h0v0l0-.12,0-.08,0-.07,0-.08,0-.07-.05-.07,0-.07,0-.07-.06-.06-.06-.06-.06-.06-.07-.06-.07,0-.07,0-.07,0-.08,0-.08,0-.07,0-.08,0-.09,0-.08,0h-.17l-.08,0h-.12Zm0,0"/><path class="cls-4" d="M99.44,103.77h-.28l-.09,0H99l-.11,0-.08,0-.08,0-.07,0-.08,0-.07,0-.07,0-.06.05-.07.06-.06.06-.06.06-.05.07a.18.18,0,0,0,0,.07.18.18,0,0,0,0,.07l0,.07a.3.3,0,0,1,0,.08l0,.07,0,.08a.41.41,0,0,0,0,.08l0,.08s0,.06,0,.09a.19.19,0,0,0,0,.08s0,.06,0,.09,0,0,0,.08v.23a.25.25,0,0,1,0,.08s0,.06,0,.09,0,.06,0,.09,0,0,0,.07h0v0a.76.76,0,0,0,0,.11l0,.08,0,.08a.25.25,0,0,1,0,.07l0,.08a.43.43,0,0,1,0,.07.18.18,0,0,1,0,.07l.06.06,0,.07.06.06.07.06.06,0,.07,0,.07.05.07,0,.08,0a.2.2,0,0,0,.08,0l.08,0,.08,0,.08,0,.08,0h.08l.09,0h.4l.09,0h.08l.07,0h0l.11,0,.08,0a.2.2,0,0,0,.08,0l.08,0,.07,0a895895542553.19,895895542553.19,0,0,1,.14-.1l.07,0,.06-.05.06-.07.06-.06.06-.06a.18.18,0,0,1,0-.07l0-.07a.35.35,0,0,0,.05-.08l0-.07a.3.3,0,0,1,0-.08l0-.08,0-.08s0,0,0-.08a.24.24,0,0,0,0-.08s0-.06,0-.09,0,0,0-.08a.28.28,0,0,0,0-.09v-.23s0-.05,0-.08,0-.06,0-.09,0,0,0-.08a.24.24,0,0,0,0-.08h0v0l0-.12,0-.08,0-.07,0-.08,0-.07-.05-.07,0-.07,0-.07-.06-.06-.06-.06-.06-.06-.07-.06-.07,0-.07,0-.07,0-.08,0-.08,0-.07,0-.08,0-.09,0-.08,0h-.17l-.08,0h-.12Zm0,0"/><path class="cls-4" d="M99.44,103.77h-.28l-.09,0H99l-.11,0-.08,0-.08,0-.07,0-.08,0-.07,0-.07,0-.06.05-.07.06-.06.06-.06.06-.05.07a.18.18,0,0,0,0,.07.18.18,0,0,0,0,.07l0,.07a.3.3,0,0,1,0,.08l0,.07,0,.08a.41.41,0,0,0,0,.08l0,.08s0,.06,0,.09a.19.19,0,0,0,0,.08s0,.06,0,.09,0,0,0,.08v.23a.25.25,0,0,1,0,.08s0,.06,0,.09,0,.06,0,.09,0,0,0,.07h0v0a.76.76,0,0,0,0,.11l0,.08,0,.08a.25.25,0,0,1,0,.07l0,.08a.43.43,0,0,1,0,.07.18.18,0,0,1,0,.07l.06.06,0,.07.06.06.07.06.06,0,.07,0,.07.05.07,0,.08,0a.2.2,0,0,0,.08,0l.08,0,.08,0,.08,0,.08,0h.08l.09,0h.4l.09,0h.08l.07,0h0l.11,0,.08,0a.2.2,0,0,0,.08,0l.08,0,.07,0a895895542553.19,895895542553.19,0,0,1,.14-.1l.07,0,.06-.05.06-.07.06-.06.06-.06a.18.18,0,0,1,0-.07l0-.07a.35.35,0,0,0,.05-.08l0-.07a.3.3,0,0,1,0-.08l0-.08,0-.08s0,0,0-.08a.24.24,0,0,0,0-.08s0-.06,0-.09,0,0,0-.08a.28.28,0,0,0,0-.09v-.23s0-.05,0-.08,0-.06,0-.09,0,0,0-.08a.24.24,0,0,0,0-.08h0v0l0-.12,0-.08,0-.07,0-.08,0-.07-.05-.07,0-.07,0-.07-.06-.06-.06-.06-.06-.06-.07-.06-.07,0-.07,0-.07,0-.08,0-.08,0-.07,0-.08,0-.09,0-.08,0h-.17l-.08,0h-.12Zm0,0"/><path class="cls-1" d="M82,152.86c3.87,9.36,6.26,23.95,2.41,25.54S72,168,68.09,158.63s-.53-12.93,2.32-14.11,7.74-1,11.62,8.34Zm0,0"/><path class="cls-5" d="M69.61,142.58a8.55,8.55,0,0,0-4.88,5.29c-.92,2.85-.64,6.61,1.42,11.57a65.23,65.23,0,0,0,8.47,14.48A27.5,27.5,0,0,0,79.56,179c1.66,1.23,3.61,2.22,5.69,1.36s2.77-2.94,3.07-5a27.25,27.25,0,0,0-.1-7.07A65.18,65.18,0,0,0,84,152.06c-2-5-4.51-7.82-7.17-9.19a8.53,8.53,0,0,0-7.19-.29Zm1.61,3.89a4,4,0,0,1,3.65.14c1.47.76,3.39,2.67,5.21,7.06a62,62,0,0,1,4,15.12,24.29,24.29,0,0,1,.11,6,4.28,4.28,0,0,1-.53,1.67,4.49,4.49,0,0,1-1.56-.81,24.17,24.17,0,0,1-4.13-4.29A61.58,61.58,0,0,1,70,157.83c-1.82-4.39-1.81-7.1-1.3-8.67a4,4,0,0,1,2.48-2.69Zm0,0"/><path class="cls-1" d="M121.24,154.61c1.32,10-.15,24.75-4.28,25.3s-9.36-13.29-10.68-23.33,2.84-12.63,5.89-13,7.74,1,9.07,11.06Zm0,0"/><path class="cls-5" d="M111.9,141.46a8.6,8.6,0,0,0-6.09,3.85c-1.62,2.52-2.32,6.22-1.62,11.55A65.7,65.7,0,0,0,108.63,173a27.55,27.55,0,0,0,3.45,6.17c1.29,1.62,2.92,3.08,5.15,2.78s3.44-2.12,4.26-4a27.7,27.7,0,0,0,1.74-6.85,65.45,65.45,0,0,0,.09-16.78c-.7-5.33-2.33-8.72-4.55-10.73a8.57,8.57,0,0,0-6.87-2.15Zm.55,4.18a4.08,4.08,0,0,1,3.49,1.08c1.22,1.11,2.59,3.45,3.21,8.17a62.41,62.41,0,0,1-.09,15.63,24,24,0,0,1-1.44,5.78,4.53,4.53,0,0,1-.94,1.48,4.55,4.55,0,0,1-1.3-1.18,25,25,0,0,1-2.88-5.22,62.48,62.48,0,0,1-4.13-15.07c-.62-4.72.09-7.33,1-8.72a4.05,4.05,0,0,1,3.1-2Zm0,0"/><path class="cls-1" d="M46.7,109.84c-8.46,5.55-22.35,10.63-24.64,7.15S30,102.78,38.42,97.23s12.6-2.94,14.3-.37,2.44,7.42-6,13Zm0,0"/><path class="cls-5" d="M54.47,95.71a8.53,8.53,0,0,0-6.11-3.81c-3-.36-6.6.62-11.09,3.57a65.25,65.25,0,0,0-12.65,11,27.53,27.53,0,0,0-4.05,5.8c-.9,1.86-1.5,4-.27,5.84s3.41,2.17,5.47,2.08a27.08,27.08,0,0,0,6.93-1.41,65.05,65.05,0,0,0,15.15-7.22c4.5-2.94,6.84-5.89,7.68-8.76a8.53,8.53,0,0,0-1.06-7.12ZM51,98a4.09,4.09,0,0,1,.54,3.62c-.47,1.58-2,3.83-6,6.44a61.7,61.7,0,0,1-14.11,6.71A24.47,24.47,0,0,1,25.6,116a4.37,4.37,0,0,1-1.74-.21,4.2,4.2,0,0,1,.5-1.68,24.31,24.31,0,0,1,3.44-4.86A61.42,61.42,0,0,1,39.58,99c4-2.61,6.64-3.11,8.27-2.91A4.06,4.06,0,0,1,51,98Zm0,0"/><path class="cls-1" d="M156.79,100.52c3.88,9.35,6.27,23.94,2.42,25.54s-12.48-10.42-16.35-19.77-.53-12.93,2.32-14.11,7.74-1,11.61,8.34Zm0,0"/><path class="cls-5" d="M144.37,90.23a8.57,8.57,0,0,0-4.88,5.3c-.91,2.85-.63,6.6,1.42,11.56a65.34,65.34,0,0,0,8.48,14.49,27.08,27.08,0,0,0,4.93,5.06c1.66,1.24,3.61,2.22,5.69,1.36s2.77-2.94,3.07-5A27.66,27.66,0,0,0,163,116a65.25,65.25,0,0,0-4.25-16.24c-2.06-5-4.51-7.81-7.18-9.18a8.57,8.57,0,0,0-7.19-.3ZM146,94.12a4.07,4.07,0,0,1,3.66.15c1.46.75,3.39,2.66,5.21,7a61.93,61.93,0,0,1,4,15.13,24.72,24.72,0,0,1,.11,6,4.4,4.4,0,0,1-.53,1.67,4.28,4.28,0,0,1-1.56-.8A24.89,24.89,0,0,1,152.7,119a62.33,62.33,0,0,1-7.9-13.5c-1.82-4.39-1.8-7.1-1.3-8.67A4.07,4.07,0,0,1,146,94.12Zm0,0"/><path class="cls-5" d="M95,46.42a59.07,59.07,0,1,0,59.06,59.07A59.12,59.12,0,0,0,95,46.42Zm0,6.74a52.33,52.33,0,1,1-52.34,52.33A52.28,52.28,0,0,1,95,53.16Zm0,0"/><path class="cls-1" d="M150.69,105.49A55.7,55.7,0,1,1,134.37,66.1a55.67,55.67,0,0,1,16.32,39.39Zm0,0"/><path class="cls-4" d="M95,54.51A50.87,50.87,0,0,0,48,125a54,54,0,0,1,67.12-66.39A51,51,0,0,0,95,54.51Zm0,0"/><path class="cls-5" d="M95,49a56.54,56.54,0,1,0,56.54,56.54A56.56,56.56,0,0,0,95,49Zm0,1.68a54.86,54.86,0,1,1-54.86,54.86A54.84,54.84,0,0,1,95,50.63Zm0,0"/><path class="cls-4" d="M71,138.87A4.05,4.05,0,0,1,67,134.81v-4.59a23.56,23.56,0,0,1,47.12,0v4.59a4.05,4.05,0,0,1-4.07,4.06Zm0,0"/><path class="cls-6" d="M95.13,138.87h0s4-7.68,0-14.77c5-7.89.6-16.85.6-16.85a23.56,23.56,0,0,1,18.37,23v4.59a4.06,4.06,0,0,1-4.07,4.06Zm0,0"/><path class="cls-5" d="M106.69,138.87h0s4.59-5.27,0-10.86c5.28-4.91.36-14.57.36-14.57a23.44,23.44,0,0,1,7,16.79v4.59a4.05,4.05,0,0,1-4.06,4.06Zm0,0"/><path class="cls-5" d="M74.37,138.87h0s-4.58-5.27,0-10.86c-5.28-4.91-.36-14.57-.36-14.57a23.48,23.48,0,0,0-7,16.79v4.59A4.05,4.05,0,0,0,71,138.87Zm0,0"/><path class="cls-5" d="M90.53,105.82a24.41,24.41,0,0,0-24.4,24.4v4.59A4.92,4.92,0,0,0,71,139.72h39a4.92,4.92,0,0,0,4.91-4.91v-4.59a24.41,24.41,0,0,0-24.4-24.4Zm0,1.68a22.7,22.7,0,0,1,22.72,22.72v4.59A3.2,3.2,0,0,1,110,138H71a3.2,3.2,0,0,1-3.23-3.22v-4.59A22.7,22.7,0,0,1,90.53,107.5Zm0,0"/><path class="cls-5" d="M72.63,84.52a8.66,8.66,0,0,1,8.68,8.68v4.35a8.68,8.68,0,0,1-17.35,0V93.2a8.66,8.66,0,0,1,8.67-8.68Zm0,0"/><path class="cls-4" d="M77.68,90.74a2.8,2.8,0,0,1-2.8,2.8,2.8,2.8,0,1,1,2.8-2.8Zm0,0"/><path class="cls-5" d="M108.43,84.52a8.66,8.66,0,0,0-8.68,8.68v7.17H117.1V93.2a8.66,8.66,0,0,0-8.67-8.68Zm0,0"/><path class="cls-4" d="M113.48,90.74a2.8,2.8,0,1,1-2.8-2.8,2.8,2.8,0,0,1,2.8,2.8Zm0,0"/><path class="cls-5" d="M170.68,161.53a10,10,0,0,0-1-.75h0a9.31,9.31,0,0,0-8.93-.78,11.1,11.1,0,0,0-14,15.91,9.27,9.27,0,1,0,18.12,1.85,9.29,9.29,0,0,0,5.81-16.23Zm-3.34,3.77h0a4.25,4.25,0,0,1-3.63,7.35l-1.59-.31-.94,1.32a6.21,6.21,0,0,1-.83.94l-1.2,1.1.51,1.54a4.25,4.25,0,1,1-7.83-.55l.72-1.46-1-1.25a6.08,6.08,0,0,1,7.93-9l1.81,1.14,1.17-1.33a4.22,4.22,0,0,1,4.47.17h0a4.7,4.7,0,0,1,.44.34Zm0,0"/><path class="cls-5" d="M174.34,183.57a11.1,11.1,0,0,0-7.27-16.7l-1,4.93a6.08,6.08,0,1,1-7,7.9l-4.78,1.6a11.1,11.1,0,0,0,20,2.27Zm0,0"/><path class="cls-5" d="M149.11,155.72a6.1,6.1,0,1,0-8.07,9.15l16,14.14a6.1,6.1,0,0,0,8.07-9.15Zm-3.33,3.78,16,14.13a1,1,0,0,1,.09,1.51,1,1,0,0,1-1.5.09l-16-14.13a1.07,1.07,0,1,1,1.41-1.6Zm0,0"/><path class="cls-7" d="M151.86,184.19a6.76,6.76,0,1,1,9.38-1.84,6.76,6.76,0,0,1-9.38,1.84Zm0,0"/><path class="cls-7" d="M151.44,177.27a8.59,8.59,0,1,1,6.44,1.3,8.6,8.6,0,0,1-6.44-1.3Zm0,0"/><path class="cls-7" d="M160.76,174.1a6.76,6.76,0,1,1,9.38-1.84,6.78,6.78,0,0,1-9.38,1.84Zm0,0"/><path class="cls-8" d="M162.81,169.86a3,3,0,1,1,2.22.44,3,3,0,0,1-2.22-.44Zm0,0"/><path class="cls-8" d="M154.19,167.28a3,3,0,0,1,3.31-4.93,3,3,0,0,1,1.26,1.89,3,3,0,0,1-.45,2.23,3,3,0,0,1-1.89,1.26,3,3,0,0,1-2.23-.45Zm0,0"/><path class="cls-5" d="M169.52,162.84a6.65,6.65,0,0,0-.79-.61,7.53,7.53,0,0,0-7.95-.28,9.36,9.36,0,0,0-12.09,13.72,7.53,7.53,0,1,0,14.23,1,9.13,9.13,0,0,0,.65-.73,7.53,7.53,0,0,0,6-13.11Zm-1,1.15h0a6,6,0,0,1-5.12,10.38l-.49-.1-.29.41a7.66,7.66,0,0,1-1.07,1.21l-.36.33.15.48a6,6,0,1,1-11.06-.79l.22-.45-.31-.38a7.82,7.82,0,0,1,10.21-11.58l.42.27.41-.28a6,6,0,0,1,6.66,0,5.82,5.82,0,0,1,.63.48Zm0,0"/><path class="cls-8" d="M147.44,157.61l16,14.14a3.58,3.58,0,1,1-4.74,5.37L142.7,163a3.59,3.59,0,0,1,4.74-5.38Zm0,0"/><path class="cls-7" d="M142,158.55a3.57,3.57,0,0,0,.75,4.44l16,14.13a3.59,3.59,0,0,0,4.5.2Zm0,0"/><path class="cls-5" d="M147.86,157.14a4.21,4.21,0,1,0-5.57,6.32l16,14.13a4.21,4.21,0,0,0,5.57-6.32Zm-.83.94,16,14.14a3,3,0,1,1-3.91,4.43l-16-14.14a3,3,0,0,1,3.91-4.43Zm0,0"/><path class="cls-7" d="M160.08,184.89A8.59,8.59,0,1,1,172,182.55a8.6,8.6,0,0,1-11.93,2.34Zm0,0"/><path class="cls-8" d="M161.1,180.7a6.5,6.5,0,1,1,4.87,1,6.5,6.5,0,0,1-4.87-1Zm0,0"/><path class="cls-5" d="M172.73,182.59a9.21,9.21,0,0,0-6-13.87l-.25,1.23a8,8,0,1,1-9.12,10.35l-1.2.4a9.22,9.22,0,0,0,16.6,1.89Zm0,0"/><path class="cls-5" d="M163.34,169.94l-.24-1.23a9.24,9.24,0,0,0-7.43,8.42l1.26.09a8,8,0,0,1,6.41-7.28Zm0,0"/><path class="cls-5" d="M93.24,21.32c-2.19,0-13.93-.39-23.73,3.94-3.82,1.69-7.71,5.16-8,10.65A124.46,124.46,0,0,1,59,56.85c-.63,3.27,0,6.24,1.77,8.17A10.53,10.53,0,0,0,67.3,68a247.43,247.43,0,0,0,25.94,1.48,247.46,247.46,0,0,0,26-1.48A10.53,10.53,0,0,0,125.7,65c1.79-1.93,2.4-4.9,1.77-8.17A124.52,124.52,0,0,1,125,35.91c-.26-5.49-4.15-9-8-10.65-9.8-4.33-21.54-3.94-23.74-3.94Zm0,5.58c2.6,0,13.34-.13,21.48,3.47,2.81,1.24,4.5,2.6,4.66,5.81A131.78,131.78,0,0,0,122,57.92c.42,2.17.06,2.83-.38,3.3a5.62,5.62,0,0,1-3.19,1.21c-6.25.87-19.6,1.43-25.18,1.43s-18.92-.56-25.17-1.43a5.62,5.62,0,0,1-3.19-1.21c-.44-.47-.8-1.13-.38-3.3a131.78,131.78,0,0,0,2.61-21.74c.16-3.21,1.85-4.57,4.65-5.81,8.15-3.6,18.89-3.47,21.48-3.47Zm0,0"/><path class="cls-5" d="M80.38,13.68a11.38,11.38,0,0,0-5.65,1.63C69.58,18.39,66,20.78,60.5,24.69a14.64,14.64,0,0,0-6.44,9.93c-.53,4.17-1.08,9.77-1.23,15.07s-.08,10.16,1.42,13.76a9.7,9.7,0,0,0,4.62,5.11,10.94,10.94,0,0,0,5.55,1A17.71,17.71,0,0,0,70.5,67.9l-2.45-5a13.36,13.36,0,0,1-4,1,5.43,5.43,0,0,1-2.72-.41,3.72,3.72,0,0,1-1.91-2.21c-.7-1.69-1.14-6.44-1-11.47s.69-10.49,1.19-14.54a9.46,9.46,0,0,1,4.14-6.07c5.45-3.87,8.83-6.13,13.87-9.14,2.57-1.54,5-1,5.89.61l2.78,4.85,4.84-2.77-2.77-4.85a8.74,8.74,0,0,0-8-4.26Zm0,0"/><path class="cls-5" d="M106.11,13.68a8.74,8.74,0,0,0-8,4.26l-2.77,4.85,4.84,2.77L103,20.71c.93-1.63,3.32-2.15,5.89-.61,5,3,8.42,5.27,13.87,9.14a9.46,9.46,0,0,1,4.14,6.07c.5,4,1,9.52,1.19,14.54s-.3,9.78-1,11.47a3.72,3.72,0,0,1-1.91,2.21,5.43,5.43,0,0,1-2.72.41,13.36,13.36,0,0,1-4-1l-2.45,5a17.71,17.71,0,0,0,6.08,1.61,10.89,10.89,0,0,0,5.54-1,9.72,9.72,0,0,0,4.63-5.11c1.5-3.6,1.57-8.45,1.42-13.76s-.7-10.9-1.23-15.07A14.64,14.64,0,0,0,126,24.69c-5.5-3.91-9.09-6.3-14.23-9.38a11.38,11.38,0,0,0-5.65-1.63Zm0,0"/><path class="cls-5" d="M93.24,16.82c-1.65,0-11.32-.42-19.39,4.06a12.49,12.49,0,0,0-6.47,10.59l5.58.22c.13-3.46,1.52-4.77,3.6-5.93,6.25-3.47,14.52-3.36,16.68-3.36s10.44-.11,16.69,3.36c2.08,1.16,3.47,2.47,3.6,5.93l5.58-.22a12.49,12.49,0,0,0-6.47-10.59c-8.07-4.48-17.74-4.06-19.4-4.06Zm0,0"/><path class="cls-9" d="M116.32,31.58a9.23,9.23,0,0,0-5-8.26c-7.16-4-16.12-3.71-18-3.71s-10.87-.26-18,3.71a9.23,9.23,0,0,0-5,8.26Zm0,0"/><path class="cls-5" d="M93.24,18.88c-1.84,0-11-.3-18.38,3.81a10.07,10.07,0,0,0-5.42,8.86l1.45.06A8.4,8.4,0,0,1,75.56,24c6.92-3.85,15.71-3.63,17.68-3.63S104,20.11,110.93,24a8.4,8.4,0,0,1,4.67,7.65l1.45-.06a10.07,10.07,0,0,0-5.42-8.86c-7.39-4.11-16.54-3.81-18.39-3.81Zm0,0"/><path class="cls-10" d="M69.28,65.39s-9.33,4.55-12.46-3c-2.19-5.3-1-19.2,0-27.43a12.1,12.1,0,0,1,5.3-8c5.47-3.88,8.95-6.21,14-9.26,3.62-2.16,8-1.53,9.76,1.63l2.77,4.84Zm0,0"/><path class="cls-11" d="M80.71,16.43a8.59,8.59,0,0,0-4.55,1.27c-5.09,3.05-8.57,5.38-14,9.26a12.1,12.1,0,0,0-5.3,8c-1,8.23-2.19,22.13,0,27.43a6.79,6.79,0,0,0,2.94,3.48c-2-6.06-.83-20.42.19-29a13.1,13.1,0,0,1,5.41-8.62c5.6-4.19,9.17-6.7,14.37-10a8.74,8.74,0,0,1,3.47-1.3,6.87,6.87,0,0,0-2.49-.51Zm0,0"/><path class="cls-5" d="M80.37,15.51a9.61,9.61,0,0,0-4.68,1.39c-5.11,3.06-8.63,5.41-14.11,9.3-2.77,2-5.22,5-5.68,8.65-.52,4.13-1.07,9.69-1.21,14.9s.05,10,1.28,13a7.67,7.67,0,0,0,3.72,4.14,9,9,0,0,0,4.6.77,16.23,16.23,0,0,0,5.39-1.42l-.81-1.67a14.75,14.75,0,0,1-4.71,1.24,7.23,7.23,0,0,1-3.66-.59A5.7,5.7,0,0,1,57.68,62c-1-2.33-1.28-7.11-1.14-12.23s.69-10.63,1.21-14.72a11.19,11.19,0,0,1,4.9-7.36c5.47-3.88,8.92-6.18,14-9.22,3.27-2,7-1.36,8.47,1.29l2.77,4.85,1.61-.93-2.77-4.84a6.89,6.89,0,0,0-6.35-3.36Zm0,0"/><path class="cls-9" d="M117.21,65.39s9.32,4.55,12.46-3c2.19-5.3,1-19.2,0-27.43a12.1,12.1,0,0,0-5.3-8c-5.47-3.88-9-6.21-14-9.26-3.62-2.16-8-1.53-9.76,1.63L97.8,24.17Zm0,0"/><path class="cls-5" d="M106.12,15.51a6.89,6.89,0,0,0-6.35,3.36L97,23.71l1.62.93,2.77-4.85c1.51-2.65,5.2-3.25,8.47-1.29,5.07,3,8.52,5.34,14,9.22a11.19,11.19,0,0,1,4.9,7.36c.51,4.09,1.06,9.6,1.2,14.72s-.17,9.9-1.13,12.23A5.7,5.7,0,0,1,126,65.21a7.25,7.25,0,0,1-3.66.59,14.75,14.75,0,0,1-4.71-1.24l-.81,1.67a16.23,16.23,0,0,0,5.39,1.42,9,9,0,0,0,4.6-.77,7.67,7.67,0,0,0,3.72-4.14c1.23-3,1.43-7.78,1.28-13s-.69-10.77-1.21-14.9c-.46-3.68-2.91-6.68-5.68-8.65-5.48-3.89-9-6.24-14.11-9.3a9.61,9.61,0,0,0-4.68-1.39Zm0,0"/><path class="cls-10" d="M70.64,27.82c-3.32,1.46-6.11,3.88-6.32,8.23a127.76,127.76,0,0,1-2.56,21.34c-1.06,5.43,2,7.25,5.93,7.8a251.08,251.08,0,0,0,25.55,1.46,251.11,251.11,0,0,0,25.56-1.46c4-.55,7-2.37,5.93-7.8a127.76,127.76,0,0,1-2.56-21.34c-.22-4.35-3-6.77-6.32-8.23-9-4-20.21-3.71-22.61-3.71s-13.63-.26-22.6,3.71Zm0,0"/><path class="cls-11" d="M83.87,24.53a51,51,0,0,0-10.19,2.12,11.85,11.85,0,0,0-2.41,7.07,201.67,201.67,0,0,1-2.56,26.7,12.39,12.39,0,0,0,.05,4.91c2.46.3,5.59.55,8.86.76a13.19,13.19,0,0,1-.08-5.2A211.21,211.21,0,0,0,80.1,33.32a12,12,0,0,1,3.77-8.79Zm0,0"/><path class="cls-9" d="M102.62,24.53a12,12,0,0,1,3.77,8.79A211.21,211.21,0,0,0,109,60.89a13.19,13.19,0,0,1-.08,5.2c3.76-.24,7.35-.54,9.93-.9,4-.55,7-2.37,5.93-7.8a127.76,127.76,0,0,1-2.56-21.34c-.22-4.35-3-6.77-6.32-8.23a46,46,0,0,0-13.23-3.29Zm0,0"/><path class="cls-11" d="M92,24.11c-3.88,0-13.46.24-21.31,3.71-3.28,1.44-6,3.82-6.31,8.08a12.34,12.34,0,0,1,4.91-3.41c9.53-4,21.46-3.7,24-3.7s14.48-.26,24,3.7a12.34,12.34,0,0,1,4.91,3.41c-.27-4.26-3-6.64-6.31-8.08-9-4-20.21-3.71-22.61-3.71Zm0,0"/><path class="cls-5" d="M93.24,23.18c-2.32,0-13.73-.3-23,3.78-3.48,1.54-6.64,4.31-6.87,9a127,127,0,0,1-2.54,21.21c-.57,2.9,0,5.1,1.31,6.54a8.74,8.74,0,0,0,5.4,2.36,248.92,248.92,0,0,0,25.68,1.47,249,249,0,0,0,25.69-1.47,8.74,8.74,0,0,0,5.4-2.36c1.35-1.44,1.88-3.64,1.31-6.54A127,127,0,0,1,123.1,36c-.23-4.73-3.39-7.5-6.87-9-9.25-4.08-20.66-3.78-23-3.78Zm0,1.86c2.47,0,13.54-.22,22.24,3.63,3.14,1.39,5.56,3.45,5.76,7.42a129.53,129.53,0,0,0,2.57,21.48c.5,2.53,0,4-.84,4.92a7.16,7.16,0,0,1-4.3,1.78,253.2,253.2,0,0,1-25.43,1.45,253.18,253.18,0,0,1-25.42-1.45,7.13,7.13,0,0,1-4.3-1.78c-.89-1-1.34-2.39-.84-4.92a129.53,129.53,0,0,0,2.57-21.48c.2-4,2.62-6,5.76-7.42C79.71,24.82,90.78,25,93.24,25Zm0,0"/><path class="cls-12" d="M98,50c-1,.76-3.41-1.63-4.7-1.63S89.6,50.74,88.56,50s.49-3.74.09-5-3.4-2.74-3-4,3.71-.69,4.76-1.45,1.56-4.08,2.85-4.08,1.8,3.32,2.85,4.08,4.36.22,4.76,1.45-2.6,2.73-3,4S99,49.22,98,50Zm0,0"/><path class="cls-5" d="M93.26,35a1.56,1.56,0,0,0-1.21.72,6.61,6.61,0,0,0-.73,1.31c-.22.47-.42,1-.62,1.35a2.54,2.54,0,0,1-.56.79,2.53,2.53,0,0,1-.93.29c-.44.07-1,.12-1.47.17a6.81,6.81,0,0,0-1.48.29,1.58,1.58,0,0,0-1.05.93,1.56,1.56,0,0,0,.3,1.38,6.6,6.6,0,0,0,1,1.1c.38.34.78.68,1.09,1a2.6,2.6,0,0,1,.58.78,2.59,2.59,0,0,1,0,1c-.07.44-.19,1-.29,1.46a6.48,6.48,0,0,0-.19,1.49,1.38,1.38,0,0,0,2,1.42,6.71,6.71,0,0,0,1.37-.63c.45-.26.89-.53,1.29-.73a1.52,1.52,0,0,1,1.84,0c.4.2.85.47,1.3.73a6.82,6.82,0,0,0,1.35.63,1.38,1.38,0,0,0,2-1.42,6.48,6.48,0,0,0-.19-1.49c-.1-.51-.22-1-.29-1.45a2.43,2.43,0,0,1,0-1,2.44,2.44,0,0,1,.58-.78c.31-.32.71-.66,1.09-1a6.6,6.6,0,0,0,1-1.1,1.58,1.58,0,0,0,.3-1.38,1.55,1.55,0,0,0-1-.93,6.81,6.81,0,0,0-1.48-.29c-.51-.05-1-.1-1.47-.17a2.53,2.53,0,0,1-.93-.29,2.54,2.54,0,0,1-.56-.79c-.21-.4-.41-.88-.62-1.35a6.61,6.61,0,0,0-.73-1.31A1.56,1.56,0,0,0,93.26,35Zm0,.93c.12,0,.27.08.47.35a6,6,0,0,1,.62,1.13c.21.46.41.95.64,1.39A3,3,0,0,0,95.83,40a3,3,0,0,0,1.33.46c.5.08,1,.12,1.52.18a6.12,6.12,0,0,1,1.27.24c.32.11.44.22.48.34s0,.28-.19.56a7.19,7.19,0,0,1-.88.94c-.37.33-.78.68-1.13,1a3,3,0,0,0-.8,1.15,3,3,0,0,0,0,1.41c.08.49.2,1,.3,1.49a6.27,6.27,0,0,1,.17,1.29c0,.33-.08.48-.18.56s-.27.09-.59,0a6.53,6.53,0,0,1-1.17-.55c-.43-.25-.88-.52-1.33-.75a3,3,0,0,0-1.34-.41,2.9,2.9,0,0,0-1.34.41c-.45.22-.9.5-1.34.75a5.6,5.6,0,0,1-1.16.55c-.32.1-.49.08-.59,0s-.17-.23-.18-.56a6.1,6.1,0,0,1,.17-1.28c.1-.49.22-1,.3-1.5a2.43,2.43,0,0,0-.83-2.56c-.35-.35-.76-.7-1.13-1a8.15,8.15,0,0,1-.89-.94c-.19-.28-.22-.44-.18-.56s.16-.23.48-.34a5.87,5.87,0,0,1,1.27-.24c.49-.06,1-.1,1.51-.18A3,3,0,0,0,90.69,40a3,3,0,0,0,.84-1.12c.23-.44.43-.93.64-1.38a5.61,5.61,0,0,1,.62-1.14c.2-.27.34-.35.47-.35Zm0,0"/><path class="cls-9" d="M102.54,34.1a1,1,0,0,1-.29.69.94.94,0,0,1-.69.29,1,1,0,1,1,0-2,.94.94,0,0,1,.69.29,1,1,0,0,1,.29.69Zm0,0"/><path class="cls-9" d="M150.64,0l29,0h16l0,16c0,7,0,14,0,21A29.09,29.09,0,0,1,150.64,0Z"/><text class="cls-13" transform="translate(159.7 31.75)">09</text></svg>