<?xml version="1.0" encoding="utf-8"?>
<!-- Generator: Adobe Illustrator 26.0.1, SVG Export Plug-In . SVG Version: 6.00 Build 0)  -->
<svg version="1.1" id="Слой_1" xmlns="http://www.w3.org/2000/svg" xmlns:xlink="http://www.w3.org/1999/xlink" x="0px" y="0px"
	 viewBox="0 0 195.6 280.6" style="enable-background:new 0 0 195.6 280.6;" xml:space="preserve">
<style type="text/css">
	.st0{clip-path:url(#SVGID_00000162346617049239908520000013576228230953339008_);fill:#E83E3E;}
	.st1{clip-path:url(#SVGID_00000154407365937955912130000017895064851609702304_);fill:#FFFFFF;}
	.st2{clip-path:url(#SVGID_00000147187077006968411800000014608747769513690263_);fill:#FFFFFF;}
	.st3{clip-path:url(#SVGID_00000055690146387675952830000011612693396070445743_);fill:#FFFFFF;}
	.st4{clip-path:url(#SVGID_00000057870426460101021560000016083923966991900565_);fill:#FFFFFF;}
	.st5{clip-path:url(#SVGID_00000071537532532939488590000000385549279993092529_);fill:#FFFFFF;}
	.st6{clip-path:url(#SVGID_00000019641890407151181680000013023287982146975620_);fill:#FFFFFF;}
	.st7{clip-path:url(#SVGID_00000127757538910171703180000000814479572912695426_);fill:#FFFFFF;}
	.st8{clip-path:url(#SVGID_00000041293892044097578410000002011057776284935848_);fill:#FFFFFF;}
	.st9{clip-path:url(#SVGID_00000126287332922028526500000009801958700423242411_);fill:#FFFFFF;}
	.st10{clip-path:url(#SVGID_00000072260011138358670230000005068501289229277326_);fill:#FFFFFF;}
	.st11{clip-path:url(#SVGID_00000018948140367989820450000008154199059306176668_);fill:#E83E3E;}
	.st12{clip-path:url(#SVGID_00000032630514247606979880000016007056207897954464_);fill:#1A1A1A;}
	.st13{clip-path:url(#SVGID_00000078010022844426065760000006302010833308244361_);fill:#E83E3E;}
	.st14{clip-path:url(#SVGID_00000070099261652841222930000016108541035279092626_);fill:#1A1A1A;}
	.st15{clip-path:url(#SVGID_00000176740393323872589120000010548371455596970172_);fill:#E83E3E;}
	.st16{clip-path:url(#SVGID_00000094577572714963703790000004476092292418442937_);fill:#1A1A1A;}
	.st17{clip-path:url(#SVGID_00000062168392878659239220000015578560490969441957_);fill:#E83E3E;}
	.st18{clip-path:url(#SVGID_00000071561936623679236540000017901905283475551623_);fill:#1A1A1A;}
	.st19{clip-path:url(#SVGID_00000109745412372625915320000015635634586126881416_);fill:#1A1A1A;}
	.st20{clip-path:url(#SVGID_00000125570880865670419400000015046459385838252206_);fill:#E83E3E;}
	.st21{clip-path:url(#SVGID_00000163758795334170523670000004026757035881019061_);fill:#FFFFFF;}
	.st22{clip-path:url(#SVGID_00000142155671595613683290000014504844516698624153_);fill:#1A1A1A;}
	.st23{clip-path:url(#SVGID_00000003063439500592336130000005866718435421555380_);fill:#FFFFFF;}
	.st24{clip-path:url(#SVGID_00000057835657989146249070000014751266514375548325_);fill:#BADBE9;}
	.st25{clip-path:url(#SVGID_00000023261678963681147840000012629085908133386901_);fill:#1A1A1A;}
	.st26{clip-path:url(#SVGID_00000060007797369094821190000016001494739480234169_);fill:#1A1A1A;}
	.st27{clip-path:url(#SVGID_00000005235219047276334620000016249551638865159604_);fill:#1A1A1A;}
	.st28{clip-path:url(#SVGID_00000006681647341214467470000008832698554746301626_);fill:#1A1A1A;}
	.st29{clip-path:url(#SVGID_00000017512411215647426750000015066117644746120596_);fill:#FFFFFF;}
	.st30{clip-path:url(#SVGID_00000131341724629558307820000006299317411114677913_);fill:#1A1A1A;}
	.st31{clip-path:url(#SVGID_00000031180085508278133370000003283094017717467024_);fill:#FFFFFF;}
	.st32{clip-path:url(#SVGID_00000093135481255048173410000005356254465152979593_);fill:#1A1A1A;}
	.st33{clip-path:url(#SVGID_00000123429347510639909040000007950160592632409787_);fill:#1A1A1A;}
	.st34{clip-path:url(#SVGID_00000062887894787435972230000003176974597365098166_);fill:#1A1A1A;}
	.st35{clip-path:url(#SVGID_00000069394828613972919410000003667590149710502571_);fill:#777E69;}
	.st36{clip-path:url(#SVGID_00000052100185126118417720000010888030129509355175_);fill:#777E69;}
	.st37{clip-path:url(#SVGID_00000133531032788556298440000003836231717357587372_);fill:#777E69;}
	.st38{clip-path:url(#SVGID_00000114040635391497217400000006783856648750356362_);fill:#9FA98D;}
	.st39{clip-path:url(#SVGID_00000103233916526647344070000017226563833444577206_);fill:#9FA98D;}
	.st40{clip-path:url(#SVGID_00000004545101196058564710000001509990787499860651_);fill:#1A1A1A;}
	.st41{clip-path:url(#SVGID_00000023997467567048866190000010411126041584831365_);fill:#9FA98D;}
	.st42{clip-path:url(#SVGID_00000182512301867549031370000006926041955365806980_);fill:#777E69;}
	.st43{clip-path:url(#SVGID_00000076581912579574582410000016895040302713826439_);fill:#1A1A1A;}
	.st44{clip-path:url(#SVGID_00000149350086782377473670000002407047538615657142_);fill:#777E69;}
	.st45{clip-path:url(#SVGID_00000052089585283544197070000004784211074274642060_);fill:#9FA98D;}
	.st46{clip-path:url(#SVGID_00000127026316668471373410000012138221900551453097_);fill:#1A1A1A;}
	.st47{clip-path:url(#SVGID_00000072262231519699433790000002396533704351978639_);fill:#1A1A1A;}
	.st48{clip-path:url(#SVGID_00000055670473305501971550000010612164098999864971_);fill:#1A1A1A;}
	.st49{clip-path:url(#SVGID_00000163786844995160456230000000495870102370940093_);fill:#1A1A1A;}
	.st50{clip-path:url(#SVGID_00000153703651506215802350000018071807812638311085_);fill:#1A1A1A;}
	.st51{clip-path:url(#SVGID_00000102514771600055571720000001389560440415552897_);fill:#1A1A1A;}
	.st52{clip-path:url(#SVGID_00000097485537072085312810000000750643898803197364_);fill:#423D3D;}
	.st53{clip-path:url(#SVGID_00000105385503111602527200000015316805506000110497_);fill:#1A1A1A;}
	.st54{clip-path:url(#SVGID_00000055707796301535588440000001578068007438994344_);fill:#5A5252;}
	.st55{clip-path:url(#SVGID_00000099643530657431467990000003036069907170112686_);fill:#7F6D6B;}
	.st56{clip-path:url(#SVGID_00000127035609573722081310000009341471764487783864_);fill:#1A1A1A;}
	.st57{clip-path:url(#SVGID_00000145757688249632705710000015156190780694913466_);fill:#423D3D;}
	.st58{clip-path:url(#SVGID_00000013905030288096459520000003065394270244819882_);fill:#1A1A1A;}
	.st59{clip-path:url(#SVGID_00000088094738524960961890000003343002966495113621_);fill:#5A5252;}
	.st60{clip-path:url(#SVGID_00000085946852822605580110000015087156061985020850_);fill:#7F6D6B;}
	.st61{clip-path:url(#SVGID_00000132062328391979796600000012919675042834005163_);fill:#423D3D;}
	.st62{clip-path:url(#SVGID_00000044147651429915788040000011966590314557324417_);fill:#7F6D6B;}
	.st63{clip-path:url(#SVGID_00000096740058412731322440000018325623385233483656_);fill:#1A1A1A;}
	.st64{clip-path:url(#SVGID_00000014606605857120704060000007034716655597579936_);fill:#E83B54;}
	.st65{clip-path:url(#SVGID_00000094617730518790343170000005249500900906401666_);fill:#1A1A1A;}
	.st66{clip-path:url(#SVGID_00000113321916758571063420000006502346634050024380_);fill:#423D3D;}
	.st67{clip-path:url(#SVGID_00000012473288667841676330000015152233839682855095_);fill:#423D3D;}
	.st68{enable-background:new    ;}
	.st69{fill:#FFFFFF;}
</style>
<g>
	<g>
		<g>
			<defs>
				<rect id="SVGID_1_" width="195.6" height="280.6"/>
			</defs>
			<clipPath id="SVGID_00000170970000893210318630000007441285326546966921_">
				<use xlink:href="#SVGID_1_"  style="overflow:visible;"/>
			</clipPath>
			
				<rect x="-279.2" y="-10.6" style="clip-path:url(#SVGID_00000170970000893210318630000007441285326546966921_);fill:#E83E3E;" width="498.5" height="306.7"/>
		</g>
	</g>
	<g>
		<g>
			<defs>
				<rect id="SVGID_00000032634757063143472130000004625393865619340440_" width="195.6" height="280.6"/>
			</defs>
			<clipPath id="SVGID_00000052797071473166227870000015643770270648551814_">
				<use xlink:href="#SVGID_00000032634757063143472130000004625393865619340440_"  style="overflow:visible;"/>
			</clipPath>
			<path style="clip-path:url(#SVGID_00000052797071473166227870000015643770270648551814_);fill:#FFFFFF;" d="M99.4,103.8h-0.3H99
				l0,0h-0.1h-0.1h-0.1h-0.1h-0.1h-0.1h-0.1l-0.1,0.1l-0.1,0.1l-0.1,0.1l-0.1,0.1l-0.1,0.1c0,0,0,0,0,0.1c0,0,0,0,0,0.1v0.1v0.1v0.1
				v0.1v0.1v0.1v0.1v0.1v0.1c0,0,0,0,0,0.1v0.2v0.1v0.1v0.1v0.1l0,0l0,0v0.1v0.1v0.1c0,0,0,0,0,0.1v0.1c0,0,0,0,0,0.1c0,0,0,0,0,0.1
				l0.1,0.1v0.1l0.1,0.1l0.1,0.1h0.1h0.1l0.1,0.1h0.1h0.1h0.1h0.1h0.1H99h0.1h0.1h0.1h0.5h0.1h0.1l0,0h0.1h0.1h0.1h0.1h0.1h0.1
				l0.1-0.1l0.1-0.1l0.1-0.1l0.1-0.1l0.1-0.1l0.1-0.1V106v-0.1l0.1-0.1c0,0,0,0,0-0.1v-0.1v-0.1v-0.1c0,0,0,0,0-0.1v-0.1v-0.1V105
				v-0.1v-0.2v-0.1v-0.1v-0.1v-0.1l0,0l0,0v-0.1v-0.1V104v-0.1v-0.1l-0.1-0.1v0.3v-0.1l-0.1-0.1l-0.1-0.1l-0.1-0.1h-0.1
				c0,0,0,0-0.1-0.1h-0.1h-0.1h-0.1h-0.1h-0.1H100h-0.1h-0.1h-0.1L99.4,103.8L99.4,103.8z"/>
		</g>
	</g>
	<g>
		<g>
			<defs>
				<rect id="SVGID_00000144306134999865395260000011456118499900986261_" width="195.6" height="280.6"/>
			</defs>
			<clipPath id="SVGID_00000017503043765751801300000017019268027828127933_">
				<use xlink:href="#SVGID_00000144306134999865395260000011456118499900986261_"  style="overflow:visible;"/>
			</clipPath>
			<path style="clip-path:url(#SVGID_00000017503043765751801300000017019268027828127933_);fill:#FFFFFF;" d="M99.4,103.8h-0.3H99
				l0,0h-0.1h-0.1h-0.1h-0.1h-0.1h-0.1h-0.1l-0.1,0.1l-0.1,0.1l-0.1,0.1l-0.1,0.1l-0.1,0.1c0,0,0,0,0,0.1c0,0,0,0,0,0.1v0.1v0.1v0.1
				v0.1v0.1v0.1v0.1v0.1v0.1c0,0,0,0,0,0.1v0.2v0.1v0.1v0.1c0,0,0,0,0,0.1l0,0l0,0v0.1v0.1v0.1c0,0,0,0,0,0.1v0.1c0,0,0,0,0,0.1
				c0,0,0,0,0,0.1l0.1,0.1v0.1l0.1,0.1l0.1,0.1h0.1h0.1l0.1,0.1h0.1h0.1h0.1h0.1h0.1H99h0.1h0.1h0.1h0.4h0.1h0.1h0.1l0,0h0.1h0.1
				h0.1h0.1h0.1c0,0-7569.5-10597.7,0.1-0.1h0.1l0.1-0.1l0.1-0.1l0.1-0.1l0.1-0.1c0,0,0,0,0-0.1v-0.1c0,0,0-0.1,0.1-0.1v-0.1v-0.1
				v-0.1v-0.1c0,0,0,0,0-0.1v-0.1v-0.1c0,0,0,0,0-0.1v-0.1v-0.2v-0.1v-0.1c0,0,0,0,0-0.1V105l0,0l0,0v-0.1v-0.1v-0.1v-0.1v-0.1
				l-0.1-0.1V104v-0.1l-0.1-0.1l-0.1-0.1l-0.1-0.1l-0.1-0.1h-0.1h-0.1h-0.1h-0.1h-0.1h-0.1H100h-0.1h-0.1h-0.2h-0.1L99.4,103.8
				L99.4,103.8z"/>
		</g>
	</g>
	<g>
		<g>
			<defs>
				<rect id="SVGID_00000163043333558660755290000010798548350961430699_" width="195.6" height="280.6"/>
			</defs>
			<clipPath id="SVGID_00000076594868160618897260000002223473823047785137_">
				<use xlink:href="#SVGID_00000163043333558660755290000010798548350961430699_"  style="overflow:visible;"/>
			</clipPath>
			<path style="clip-path:url(#SVGID_00000076594868160618897260000002223473823047785137_);fill:#FFFFFF;" d="M99.4,103.8h-0.3H99
				l0,0h-0.1h-0.1h-0.1h-0.1h-0.1h-0.1h-0.1l-0.1,0.1l-0.1,0.1l-0.1,0.1l-0.1,0.1l-0.1,0.1c0,0,0,0,0,0.1c0,0,0,0,0,0.1v0.1v0.1v0.1
				v0.1v0.1v0.1v0.1v0.1v0.1c0,0,0,0,0,0.1v0.2v0.1v0.1v0.1c0,0,0,0,0,0.1l0,0l0,0v0.1v0.1v0.1c0,0,0,0,0,0.1v0.1c0,0,0,0,0,0.1
				c0,0,0,0,0,0.1l0.1,0.1v0.1l0.1,0.1l0.1,0.1h0.1h0.1l0.1,0.1h0.1h0.1h0.1h0.1h0.1H99h0.1h0.1h0.1h0.4h0.1h0.1h0.1l0,0h0.1h0.1
				h0.1h0.1h0.1c0,0-7569.5-10597.7,0.1-0.1h0.1l0.1-0.1l0.1-0.1l0.1-0.1l0.1-0.1c0,0,0,0,0-0.1v-0.1c0,0,0-0.1,0.1-0.1v-0.1v-0.1
				v-0.1v-0.1c0,0,0,0,0-0.1v-0.1v-0.1c0,0,0,0,0-0.1v-0.1v-0.2v-0.1v-0.1c0,0,0,0,0-0.1V105l0,0l0,0v-0.1v-0.1v-0.1v-0.1v-0.1
				l-0.1-0.1V104v-0.1l-0.1-0.1l-0.1-0.1l-0.1-0.1l-0.1-0.1h-0.1h-0.1h-0.1h-0.1h-0.1h-0.1H100h-0.1h-0.1h-0.2h-0.1L99.4,103.8
				L99.4,103.8z"/>
		</g>
	</g>
	<g>
		<g>
			<defs>
				<rect id="SVGID_00000026121260281145906330000005787177542648329114_" width="195.6" height="280.6"/>
			</defs>
			<clipPath id="SVGID_00000082366929987116343960000001918080410672978612_">
				<use xlink:href="#SVGID_00000026121260281145906330000005787177542648329114_"  style="overflow:visible;"/>
			</clipPath>
			<path style="clip-path:url(#SVGID_00000082366929987116343960000001918080410672978612_);fill:#FFFFFF;" d="M99.4,103.8h-0.3H99
				l0,0h-0.1h-0.1h-0.1h-0.1h-0.1h-0.1h-0.1l-0.1,0.1l-0.1,0.1l-0.1,0.1l-0.1,0.1l-0.1,0.1c0,0,0,0,0,0.1c0,0,0,0,0,0.1v0.1v0.1v0.1
				v0.1v0.1v0.1v0.1v0.1v0.1c0,0,0,0,0,0.1v0.2v0.1v0.1v0.1c0,0,0,0,0,0.1l0,0l0,0v0.1v0.1v0.1c0,0,0,0,0,0.1v0.1c0,0,0,0,0,0.1
				c0,0,0,0,0,0.1l0.1,0.1v0.1l0.1,0.1l0.1,0.1h0.1h0.1l0.1,0.1h0.1h0.1h0.1h0.1h0.1H99h0.1h0.1h0.1h0.4h0.1h0.1h0.1l0,0h0.1h0.1
				h0.1h0.1h0.1c0,0-7569.5-10597.7,0.1-0.1h0.1l0.1-0.1l0.1-0.1l0.1-0.1l0.1-0.1c0,0,0,0,0-0.1v-0.1c0,0,0-0.1,0.1-0.1v-0.1v-0.1
				v-0.1v-0.1c0,0,0,0,0-0.1v-0.1v-0.1c0,0,0,0,0-0.1v-0.1v-0.2v-0.1v-0.1c0,0,0,0,0-0.1V105l0,0l0,0v-0.1v-0.1v-0.1v-0.1v-0.1
				l-0.1-0.1V104v-0.1l-0.1-0.1l-0.1-0.1l-0.1-0.1l-0.1-0.1h-0.1h-0.1h-0.1h-0.1h-0.1h-0.1H100h-0.1h-0.1h-0.2h-0.1L99.4,103.8
				L99.4,103.8z"/>
		</g>
	</g>
	<g>
		<g>
			<defs>
				<rect id="SVGID_00000155867748672256376700000015085743587054427055_" width="195.6" height="280.6"/>
			</defs>
			<clipPath id="SVGID_00000109714948518399543220000014771164395006456473_">
				<use xlink:href="#SVGID_00000155867748672256376700000015085743587054427055_"  style="overflow:visible;"/>
			</clipPath>
			<path style="clip-path:url(#SVGID_00000109714948518399543220000014771164395006456473_);fill:#FFFFFF;" d="M99.4,103.8h-0.3H99
				l0,0h-0.1h-0.1h-0.1h-0.1h-0.1h-0.1h-0.1l-0.1,0.1l-0.1,0.1l-0.1,0.1l-0.1,0.1l-0.1,0.1c0,0,0,0,0,0.1c0,0,0,0,0,0.1v0.1v0.1v0.1
				v0.1v0.1v0.1v0.1v0.1v0.1c0,0,0,0,0,0.1v0.2v0.1v0.1v0.1c0,0,0,0,0,0.1l0,0l0,0v0.1v0.1v0.1c0,0,0,0,0,0.1v0.1c0,0,0,0,0,0.1
				c0,0,0,0,0,0.1l0.1,0.1v0.1l0.1,0.1l0.1,0.1h0.1h0.1l0.1,0.1h0.1h0.1h0.1h0.1h0.1H99h0.1h0.1h0.1h0.4h0.1h0.1h0.1l0,0h0.1h0.1
				h0.1h0.1h0.1c0,0-7569.5-10597.7,0.1-0.1h0.1l0.1-0.1l0.1-0.1l0.1-0.1l0.1-0.1c0,0,0,0,0-0.1v-0.1c0,0,0-0.1,0.1-0.1v-0.1v-0.1
				v-0.1v-0.1c0,0,0,0,0-0.1v-0.1v-0.1c0,0,0,0,0-0.1v-0.1v-0.2v-0.1v-0.1c0,0,0,0,0-0.1V105l0,0l0,0v-0.1v-0.1v-0.1v-0.1v-0.1
				l-0.1-0.1V104v-0.1l-0.1-0.1l-0.1-0.1l-0.1-0.1l-0.1-0.1h-0.1h-0.1h-0.1h-0.1h-0.1h-0.1H100h-0.1h-0.1h-0.2h-0.1L99.4,103.8
				L99.4,103.8z"/>
		</g>
	</g>
	<g>
		<g>
			<defs>
				<rect id="SVGID_00000031200274719367450890000017523477513514967740_" width="195.6" height="280.6"/>
			</defs>
			<clipPath id="SVGID_00000040576225270617074000000011389023927808718253_">
				<use xlink:href="#SVGID_00000031200274719367450890000017523477513514967740_"  style="overflow:visible;"/>
			</clipPath>
			<path style="clip-path:url(#SVGID_00000040576225270617074000000011389023927808718253_);fill:#FFFFFF;" d="M99.4,103.8h-0.3H99
				l0,0h-0.1h-0.1h-0.1h-0.1h-0.1h-0.1h-0.1l-0.1,0.1l-0.1,0.1l-0.1,0.1l-0.1,0.1l-0.1,0.1c0,0,0,0,0,0.1c0,0,0,0,0,0.1v0.1v0.1v0.1
				v0.1v0.1v0.1v0.1v0.1v0.1c0,0,0,0,0,0.1v0.2v0.1v0.1v0.1c0,0,0,0,0,0.1l0,0l0,0v0.1v0.1v0.1c0,0,0,0,0,0.1v0.1c0,0,0,0,0,0.1
				c0,0,0,0,0,0.1l0.1,0.1v0.1l0.1,0.1l0.1,0.1h0.1h0.1l0.1,0.1h0.1h0.1h0.1h0.1h0.1H99h0.1h0.1h0.1h0.4h0.1h0.1h0.1l0,0h0.1h0.1
				h0.1h0.1h0.1c0,0-7569.5-10597.7,0.1-0.1h0.1l0.1-0.1l0.1-0.1l0.1-0.1l0.1-0.1c0,0,0,0,0-0.1v-0.1c0,0,0-0.1,0.1-0.1v-0.1v-0.1
				v-0.1v-0.1c0,0,0,0,0-0.1v-0.1v-0.1c0,0,0,0,0-0.1v-0.1v-0.2v-0.1v-0.1c0,0,0,0,0-0.1V105l0,0l0,0v-0.1v-0.1v-0.1v-0.1v-0.1
				l-0.1-0.1V104v-0.1l-0.1-0.1l-0.1-0.1l-0.1-0.1l-0.1-0.1h-0.1h-0.1h-0.1h-0.1h-0.1h-0.1H100h-0.1h-0.1h-0.2h-0.1L99.4,103.8
				L99.4,103.8z"/>
		</g>
	</g>
	<g>
		<g>
			<defs>
				<rect id="SVGID_00000031184609214512348800000003435544858449727657_" width="195.6" height="280.6"/>
			</defs>
			<clipPath id="SVGID_00000018958886175250561530000003795369219295571847_">
				<use xlink:href="#SVGID_00000031184609214512348800000003435544858449727657_"  style="overflow:visible;"/>
			</clipPath>
			<path style="clip-path:url(#SVGID_00000018958886175250561530000003795369219295571847_);fill:#FFFFFF;" d="M99.4,103.8h-0.3H99
				l0,0h-0.1h-0.1h-0.1h-0.1h-0.1h-0.1h-0.1l-0.1,0.1l-0.1,0.1l-0.1,0.1l-0.1,0.1l-0.1,0.1c0,0,0,0,0,0.1c0,0,0,0,0,0.1v0.1v0.1v0.1
				v0.1v0.1v0.1v0.1v0.1v0.1c0,0,0,0,0,0.1v0.2v0.1v0.1v0.1c0,0,0,0,0,0.1l0,0l0,0v0.1v0.1v0.1c0,0,0,0,0,0.1v0.1c0,0,0,0,0,0.1
				c0,0,0,0,0,0.1l0.1,0.1v0.1l0.1,0.1l0.1,0.1h0.1h0.1l0.1,0.1h0.1h0.1h0.1h0.1h0.1H99h0.1h0.1h0.1h0.4h0.1h0.1h0.1l0,0h0.1h0.1
				h0.1h0.1h0.1c0,0-7569.5-10597.7,0.1-0.1h0.1l0.1-0.1l0.1-0.1l0.1-0.1l0.1-0.1c0,0,0,0,0-0.1v-0.1c0,0,0-0.1,0.1-0.1v-0.1v-0.1
				v-0.1v-0.1c0,0,0,0,0-0.1v-0.1v-0.1c0,0,0,0,0-0.1v-0.1v-0.2v-0.1v-0.1c0,0,0,0,0-0.1V105l0,0l0,0v-0.1v-0.1v-0.1v-0.1v-0.1
				l-0.1-0.1V104v-0.1l-0.1-0.1l-0.1-0.1l-0.1-0.1l-0.1-0.1h-0.1h-0.1h-0.1h-0.1h-0.1h-0.1H100h-0.1h-0.1h-0.2h-0.1L99.4,103.8
				L99.4,103.8z"/>
		</g>
	</g>
	<g>
		<g>
			<defs>
				<rect id="SVGID_00000149379494228257780470000018404881552400353471_" width="195.6" height="280.6"/>
			</defs>
			<clipPath id="SVGID_00000137813706965423105010000013494176495065270459_">
				<use xlink:href="#SVGID_00000149379494228257780470000018404881552400353471_"  style="overflow:visible;"/>
			</clipPath>
			<path style="clip-path:url(#SVGID_00000137813706965423105010000013494176495065270459_);fill:#FFFFFF;" d="M99.4,103.8h-0.3H99
				l0,0h-0.1h-0.1h-0.1h-0.1h-0.1h-0.1h-0.1l-0.1,0.1l-0.1,0.1l-0.1,0.1l-0.1,0.1l-0.1,0.1c0,0,0,0,0,0.1c0,0,0,0,0,0.1v0.1v0.1v0.1
				v0.1v0.1v0.1v0.1v0.1v0.1c0,0,0,0,0,0.1v0.2v0.1v0.1v0.1c0,0,0,0,0,0.1l0,0l0,0v0.1v0.1v0.1c0,0,0,0,0,0.1v0.1c0,0,0,0,0,0.1
				c0,0,0,0,0,0.1l0.1,0.1v0.1l0.1,0.1l0.1,0.1h0.1h0.1l0.1,0.1h0.1h0.1h0.1h0.1h0.1H99h0.1h0.1h0.1h0.4h0.1h0.1h0.1l0,0h0.1h0.1
				h0.1h0.1h0.1c0,0-7569.5-10597.7,0.1-0.1h0.1l0.1-0.1l0.1-0.1l0.1-0.1l0.1-0.1c0,0,0,0,0-0.1v-0.1c0,0,0-0.1,0.1-0.1v-0.1v-0.1
				v-0.1v-0.1c0,0,0,0,0-0.1v-0.1v-0.1c0,0,0,0,0-0.1v-0.1v-0.2v-0.1v-0.1c0,0,0,0,0-0.1V105l0,0l0,0v-0.1v-0.1v-0.1v-0.1v-0.1
				l-0.1-0.1V104v-0.1l-0.1-0.1l-0.1-0.1l-0.1-0.1l-0.1-0.1h-0.1h-0.1h-0.1h-0.1h-0.1h-0.1H100h-0.1h-0.1h-0.2h-0.1L99.4,103.8
				L99.4,103.8z"/>
		</g>
	</g>
	<g>
		<g>
			<defs>
				<rect id="SVGID_00000016768261490576884480000017192684578618343858_" width="195.6" height="280.6"/>
			</defs>
			<clipPath id="SVGID_00000027602967845314429930000016689314232270431120_">
				<use xlink:href="#SVGID_00000016768261490576884480000017192684578618343858_"  style="overflow:visible;"/>
			</clipPath>
			<path style="clip-path:url(#SVGID_00000027602967845314429930000016689314232270431120_);fill:#FFFFFF;" d="M99.4,103.8h-0.3H99
				l0,0h-0.1h-0.1h-0.1h-0.1h-0.1h-0.1h-0.1l-0.1,0.1l-0.1,0.1l-0.1,0.1l-0.1,0.1l-0.1,0.1c0,0,0,0,0,0.1c0,0,0,0,0,0.1v0.1v0.1v0.1
				v0.1v0.1v0.1v0.1v0.1v0.1c0,0,0,0,0,0.1v0.2v0.1v0.1v0.1c0,0,0,0,0,0.1l0,0l0,0v0.1v0.1v0.1c0,0,0,0,0,0.1v0.1c0,0,0,0,0,0.1
				c0,0,0,0,0,0.1l0.1,0.1v0.1l0.1,0.1l0.1,0.1h0.1h0.1l0.1,0.1h0.1h0.1h0.1h0.1h0.1H99h0.1h0.1h0.1h0.4h0.1h0.1h0.1l0,0h0.1h0.1
				h0.1h0.1h0.1c0,0-7569.5-10597.7,0.1-0.1h0.1l0.1-0.1l0.1-0.1l0.1-0.1l0.1-0.1c0,0,0,0,0-0.1v-0.1c0,0,0-0.1,0.1-0.1v-0.1v-0.1
				v-0.1v-0.1c0,0,0,0,0-0.1v-0.1v-0.1c0,0,0,0,0-0.1v-0.1v-0.2v-0.1v-0.1c0,0,0,0,0-0.1V105l0,0l0,0v-0.1v-0.1v-0.1v-0.1v-0.1
				l-0.1-0.1V104v-0.1l-0.1-0.1l-0.1-0.1l-0.1-0.1l-0.1-0.1h-0.1h-0.1h-0.1h-0.1h-0.1h-0.1H100h-0.1h-0.1h-0.2h-0.1L99.4,103.8
				L99.4,103.8z"/>
		</g>
	</g>
	<g>
		<g>
			<defs>
				<rect id="SVGID_00000117668882701564399750000017268567782064593803_" width="195.6" height="280.6"/>
			</defs>
			<clipPath id="SVGID_00000173870200712990011620000010352377818796964263_">
				<use xlink:href="#SVGID_00000117668882701564399750000017268567782064593803_"  style="overflow:visible;"/>
			</clipPath>
			<path style="clip-path:url(#SVGID_00000173870200712990011620000010352377818796964263_);fill:#FFFFFF;" d="M99.4,103.8h-0.3H99
				l0,0h-0.1h-0.1h-0.1h-0.1h-0.1h-0.1h-0.1l-0.1,0.1l-0.1,0.1l-0.1,0.1l-0.1,0.1l-0.1,0.1c0,0,0,0,0,0.1c0,0,0,0,0,0.1v0.1v0.1v0.1
				v0.1v0.1v0.1v0.1v0.1v0.1c0,0,0,0,0,0.1v0.2v0.1v0.1v0.1c0,0,0,0,0,0.1l0,0l0,0v0.1v0.1v0.1c0,0,0,0,0,0.1v0.1c0,0,0,0,0,0.1
				c0,0,0,0,0,0.1l0.1,0.1v0.1l0.1,0.1l0.1,0.1h0.1h0.1l0.1,0.1h0.1h0.1h0.1h0.1h0.1H99h0.1h0.1h0.1h0.4h0.1h0.1h0.1l0,0h0.1h0.1
				h0.1h0.1h0.1c0,0-7569.5-10597.7,0.1-0.1h0.1l0.1-0.1l0.1-0.1l0.1-0.1l0.1-0.1c0,0,0,0,0-0.1v-0.1c0,0,0-0.1,0.1-0.1v-0.1v-0.1
				v-0.1v-0.1c0,0,0,0,0-0.1v-0.1v-0.1c0,0,0,0,0-0.1v-0.1v-0.2v-0.1v-0.1c0,0,0,0,0-0.1V105l0,0l0,0v-0.1v-0.1v-0.1v-0.1v-0.1
				l-0.1-0.1V104v-0.1l-0.1-0.1l-0.1-0.1l-0.1-0.1l-0.1-0.1h-0.1h-0.1h-0.1h-0.1h-0.1h-0.1H100h-0.1h-0.1h-0.2h-0.1L99.4,103.8
				L99.4,103.8z"/>
		</g>
	</g>
	<g>
		<g>
			<defs>
				<rect id="SVGID_00000036962115791753686860000016529217593064700061_" width="195.6" height="280.6"/>
			</defs>
			<clipPath id="SVGID_00000107575873709889139120000013898677931526633118_">
				<use xlink:href="#SVGID_00000036962115791753686860000016529217593064700061_"  style="overflow:visible;"/>
			</clipPath>
			<path style="clip-path:url(#SVGID_00000107575873709889139120000013898677931526633118_);fill:#E83E3E;" d="M82,152.9
				c3.9,9.4,6.3,23.9,2.4,25.5S72,168,68.1,158.6s-0.5-12.9,2.3-14.1S78.1,143.5,82,152.9L82,152.9z"/>
		</g>
	</g>
	<g>
		<g>
			<defs>
				<rect id="SVGID_00000070813769852557314500000004378657121418655145_" width="195.6" height="280.6"/>
			</defs>
			<clipPath id="SVGID_00000003091865059733019020000002246173136306547347_">
				<use xlink:href="#SVGID_00000070813769852557314500000004378657121418655145_"  style="overflow:visible;"/>
			</clipPath>
			<path style="clip-path:url(#SVGID_00000003091865059733019020000002246173136306547347_);fill:#1A1A1A;" d="M69.6,142.6
				c-2.3,1-4.1,2.9-4.9,5.3c-0.9,2.9-0.6,6.6,1.4,11.6c2.2,5.2,5,10,8.5,14.5c1.4,1.9,3.1,3.6,4.9,5.1c1.7,1.2,3.6,2.2,5.7,1.4
				s2.8-2.9,3.1-5c0.3-2.4,0.2-4.7-0.1-7.1c-0.7-5.6-2.1-11-4.2-16.2c-2-5-4.5-7.8-7.2-9.2C74.6,141.7,72,141.6,69.6,142.6
				L69.6,142.6z M71.2,146.5c1.2-0.5,2.5-0.5,3.7,0.1c1.5,0.8,3.4,2.7,5.2,7.1c2,4.9,3.3,9.9,4,15.1c0.3,2,0.3,4,0.1,6
				c-0.1,0.6-0.2,1.2-0.5,1.7c-0.6-0.2-1.1-0.4-1.6-0.8c-1.5-1.3-2.9-2.7-4.1-4.3c-3.2-4.2-5.9-8.7-8-13.5c-1.8-4.4-1.8-7.1-1.3-8.7
				C69,147.9,70,146.9,71.2,146.5L71.2,146.5z"/>
		</g>
	</g>
	<g>
		<g>
			<defs>
				<rect id="SVGID_00000148627130122843919060000006168786816071280292_" width="195.6" height="280.6"/>
			</defs>
			<clipPath id="SVGID_00000073708854849442637040000006787319870527375537_">
				<use xlink:href="#SVGID_00000148627130122843919060000006168786816071280292_"  style="overflow:visible;"/>
			</clipPath>
			<path style="clip-path:url(#SVGID_00000073708854849442637040000006787319870527375537_);fill:#E83E3E;" d="M121.2,154.6
				c1.3,10-0.2,24.8-4.3,25.3s-9.4-13.3-10.7-23.3s2.8-12.6,5.9-13S119.9,144.6,121.2,154.6L121.2,154.6z"/>
		</g>
	</g>
	<g>
		<g>
			<defs>
				<rect id="SVGID_00000096045319047996296780000009023819554484799644_" width="195.6" height="280.6"/>
			</defs>
			<clipPath id="SVGID_00000034067661344340630390000005468357856234157739_">
				<use xlink:href="#SVGID_00000096045319047996296780000009023819554484799644_"  style="overflow:visible;"/>
			</clipPath>
			<path style="clip-path:url(#SVGID_00000034067661344340630390000005468357856234157739_);fill:#1A1A1A;" d="M111.9,141.5
				c-2.5,0.3-4.7,1.7-6.1,3.9c-1.6,2.5-2.3,6.2-1.6,11.6c0.8,5.5,2.3,11,4.4,16.1c0.9,2.2,2,4.3,3.4,6.2c1.3,1.6,2.9,3.1,5.2,2.8
				s3.4-2.1,4.3-4c0.9-2.2,1.5-4.5,1.7-6.9c0.7-5.6,0.8-11.2,0.1-16.8c-0.7-5.3-2.3-8.7-4.6-10.7
				C116.9,141.9,114.4,141.1,111.9,141.5L111.9,141.5z M112.5,145.6c1.3-0.2,2.6,0.2,3.5,1.1c1.2,1.1,2.6,3.4,3.2,8.2
				c0.6,5.2,0.6,10.4-0.1,15.6c-0.2,2-0.7,3.9-1.4,5.8c-0.2,0.5-0.5,1.1-0.9,1.5c-0.5-0.3-0.9-0.7-1.3-1.2c-1.2-1.6-2.1-3.4-2.9-5.2
				c-2-4.8-3.4-9.9-4.1-15.1c-0.6-4.7,0.1-7.3,1-8.7C110,146.5,111.2,145.7,112.5,145.6L112.5,145.6z"/>
		</g>
	</g>
	<g>
		<g>
			<defs>
				<rect id="SVGID_00000054226361801032601940000005281591804368879761_" width="195.6" height="280.6"/>
			</defs>
			<clipPath id="SVGID_00000123438765108025539730000004383155495963758511_">
				<use xlink:href="#SVGID_00000054226361801032601940000005281591804368879761_"  style="overflow:visible;"/>
			</clipPath>
			<path style="clip-path:url(#SVGID_00000123438765108025539730000004383155495963758511_);fill:#E83E3E;" d="M46.7,109.8
				c-8.5,5.6-22.4,10.6-24.6,7.2s7.9-14.2,16.4-19.8s12.6-2.9,14.3-0.4S55.2,104.3,46.7,109.8L46.7,109.8z"/>
		</g>
	</g>
	<g>
		<g>
			<defs>
				<rect id="SVGID_00000155106742350474005080000014105077580686727347_" width="195.6" height="280.6"/>
			</defs>
			<clipPath id="SVGID_00000083784425058194271720000004595655891262363548_">
				<use xlink:href="#SVGID_00000155106742350474005080000014105077580686727347_"  style="overflow:visible;"/>
			</clipPath>
			<path style="clip-path:url(#SVGID_00000083784425058194271720000004595655891262363548_);fill:#1A1A1A;" d="M54.5,95.7
				c-1.4-2.1-3.6-3.5-6.1-3.8c-3-0.4-6.6,0.6-11.1,3.6c-4.7,3.1-8.9,6.8-12.6,11c-1.6,1.8-3,3.7-4.1,5.8c-0.9,1.9-1.5,4-0.3,5.8
				s3.4,2.2,5.5,2.1c2.4-0.2,4.7-0.6,6.9-1.4c5.3-1.7,10.4-4.2,15.2-7.2c4.5-2.9,6.8-5.9,7.7-8.8C56.2,100.4,55.9,97.8,54.5,95.7
				L54.5,95.7z M51,98c0.7,1.1,0.9,2.4,0.5,3.6c-0.5,1.6-2,3.8-6,6.4c-4.4,2.8-9.1,5.1-14.1,6.7c-1.9,0.6-3.8,1.1-5.8,1.2
				c-0.6,0-1.2,0-1.7-0.2c0-0.6,0.2-1.2,0.5-1.7c0.9-1.8,2.1-3.4,3.4-4.9c3.5-3.9,7.4-7.3,11.8-10.2c4-2.6,6.6-3.1,8.3-2.9
				C49.1,96.2,50.3,96.9,51,98z"/>
		</g>
	</g>
	<g>
		<g>
			<defs>
				<rect id="SVGID_00000000938464483657517450000008098728093449269924_" width="195.6" height="280.6"/>
			</defs>
			<clipPath id="SVGID_00000075853709374066348620000014970144503173540277_">
				<use xlink:href="#SVGID_00000000938464483657517450000008098728093449269924_"  style="overflow:visible;"/>
			</clipPath>
			<path style="clip-path:url(#SVGID_00000075853709374066348620000014970144503173540277_);fill:#E83E3E;" d="M156.8,100.5
				c3.9,9.3,6.3,23.9,2.4,25.5s-12.5-10.4-16.4-19.8s-0.5-12.9,2.3-14.1S152.9,91.2,156.8,100.5z"/>
		</g>
	</g>
	<g>
		<g>
			<defs>
				<rect id="SVGID_00000076577653110819818980000003235451811968368810_" width="195.6" height="280.6"/>
			</defs>
			<clipPath id="SVGID_00000116922387173603859700000004223023862016278194_">
				<use xlink:href="#SVGID_00000076577653110819818980000003235451811968368810_"  style="overflow:visible;"/>
			</clipPath>
			<path style="clip-path:url(#SVGID_00000116922387173603859700000004223023862016278194_);fill:#1A1A1A;" d="M144.4,90.2
				c-2.3,1-4.1,2.9-4.9,5.3c-0.9,2.8-0.6,6.6,1.4,11.6c2.2,5.2,5,10,8.5,14.5c1.4,1.9,3.1,3.6,4.9,5.1c1.7,1.2,3.6,2.2,5.7,1.4
				s2.8-2.9,3.1-5c0.3-2.3,0.2-4.7-0.1-7c-0.7-5.6-2.1-11-4.2-16.2c-2.1-5-4.5-7.8-7.2-9.2C149.3,89.4,146.7,89.3,144.4,90.2
				L144.4,90.2z M146,94.1c1.2-0.5,2.5-0.5,3.7,0.2c1.5,0.8,3.4,2.7,5.2,7c2,4.9,3.3,9.9,4,15.1c0.3,2,0.3,4,0.1,6
				c-0.1,0.6-0.2,1.2-0.5,1.7c-0.6-0.2-1.1-0.4-1.6-0.8c-1.6-1.2-3-2.7-4.2-4.3c-3.2-4.2-5.8-8.7-7.9-13.5c-1.8-4.4-1.8-7.1-1.3-8.7
				C143.9,95.6,144.8,94.6,146,94.1z"/>
		</g>
	</g>
	<g>
		<g>
			<defs>
				<rect id="SVGID_00000061430397368263779470000000122531439514829480_" width="195.6" height="280.6"/>
			</defs>
			<clipPath id="SVGID_00000054957212890331045030000003952824046366069937_">
				<use xlink:href="#SVGID_00000061430397368263779470000000122531439514829480_"  style="overflow:visible;"/>
			</clipPath>
			<path style="clip-path:url(#SVGID_00000054957212890331045030000003952824046366069937_);fill:#1A1A1A;" d="M95,46.4
				c-32.6,0-59.1,26.4-59.1,59.1s26.4,59.1,59.1,59.1s59.1-26.4,59.1-59.1l0,0C154,72.9,127.6,46.5,95,46.4z M95,53.2
				c28.9,0,52.3,23.4,52.3,52.3s-23.4,52.3-52.3,52.3s-52.3-23.4-52.3-52.3S66.1,53.2,95,53.2L95,53.2z"/>
		</g>
	</g>
	<g>
		<g>
			<defs>
				<rect id="SVGID_00000049923862398555070860000011759571860995698361_" width="195.6" height="280.6"/>
			</defs>
			<clipPath id="SVGID_00000155137674379837542160000010258253381389053844_">
				<use xlink:href="#SVGID_00000049923862398555070860000011759571860995698361_"  style="overflow:visible;"/>
			</clipPath>
			<path style="clip-path:url(#SVGID_00000155137674379837542160000010258253381389053844_);fill:#E83E3E;" d="M150.7,105.5
				c0,30.8-24.9,55.7-55.7,55.7s-55.7-24.9-55.7-55.7S64.2,49.8,95,49.8c14.8,0,28.9,5.9,39.4,16.3
				C144.8,76.5,150.7,90.7,150.7,105.5z"/>
		</g>
	</g>
	<g>
		<g>
			<defs>
				<rect id="SVGID_00000129908353452975115750000007221692754776045971_" width="195.6" height="280.6"/>
			</defs>
			<clipPath id="SVGID_00000049199576767955505530000003308355048120679825_">
				<use xlink:href="#SVGID_00000129908353452975115750000007221692754776045971_"  style="overflow:visible;"/>
			</clipPath>
			<path style="clip-path:url(#SVGID_00000049199576767955505530000003308355048120679825_);fill:#FFFFFF;" d="M95,54.5
				c-28.1,0-50.9,22.7-50.9,50.8c0,6.8,1.3,13.5,3.9,19.7c-8-28.7,8.7-58.5,37.5-66.6c9.7-2.7,20-2.7,29.7,0.2
				C108.8,55.9,101.9,54.5,95,54.5z"/>
		</g>
	</g>
	<g>
		<g>
			<defs>
				<rect id="SVGID_00000090273907673667163270000016998628624486996108_" width="195.6" height="280.6"/>
			</defs>
			<clipPath id="SVGID_00000148626949818869860110000015845195320586239418_">
				<use xlink:href="#SVGID_00000090273907673667163270000016998628624486996108_"  style="overflow:visible;"/>
			</clipPath>
			<path style="clip-path:url(#SVGID_00000148626949818869860110000015845195320586239418_);fill:#1A1A1A;" d="M95,49
				c-31.2,0-56.5,25.3-56.5,56.5S63.8,162,95,162s56.5-25.3,56.5-56.5S126.2,49,95,49z M95,50.7c30.3,0,54.9,24.6,54.9,54.9
				s-24.6,54.9-54.9,54.9s-54.9-24.6-54.9-54.9C40.1,75.3,64.6,50.7,95,50.7C94.9,50.6,95,50.6,95,50.7L95,50.7z"/>
		</g>
	</g>
	<g>
		<g>
			<defs>
				<rect id="SVGID_00000071539635497335823780000015024571589939957693_" width="195.6" height="280.6"/>
			</defs>
			<clipPath id="SVGID_00000155834085930331338850000006832380602110548906_">
				<use xlink:href="#SVGID_00000071539635497335823780000015024571589939957693_"  style="overflow:visible;"/>
			</clipPath>
			<path style="clip-path:url(#SVGID_00000155834085930331338850000006832380602110548906_);fill:#FFFFFF;" d="M71,138.9
				c-2.2,0-4-1.8-4-4.1v-4.6c0-13,10.6-23.6,23.6-23.6s23.5,10.5,23.6,23.6v4.6c0,2.2-1.8,4.1-4,4.1l0,0H71z"/>
		</g>
	</g>
	<g>
		<g>
			<defs>
				<rect id="SVGID_00000095314101035404758140000013374377569868440758_" width="195.6" height="280.6"/>
			</defs>
			<clipPath id="SVGID_00000090286186230761294250000012377349876436051584_">
				<use xlink:href="#SVGID_00000095314101035404758140000013374377569868440758_"  style="overflow:visible;"/>
			</clipPath>
			<path style="clip-path:url(#SVGID_00000090286186230761294250000012377349876436051584_);fill:#BADBE9;" d="M95.1,138.9
				L95.1,138.9c0,0,4-7.7,0-14.8c5-7.9,0.6-16.8,0.6-16.8c10.7,2.4,18.4,12,18.4,23v4.6c0,2.2-1.8,4.1-4.1,4.1l0,0L95.1,138.9z"/>
		</g>
	</g>
	<g>
		<g>
			<defs>
				<rect id="SVGID_00000142867697883875726970000007283354250508019616_" width="195.6" height="280.6"/>
			</defs>
			<clipPath id="SVGID_00000081625143268160023410000013023743899616827561_">
				<use xlink:href="#SVGID_00000142867697883875726970000007283354250508019616_"  style="overflow:visible;"/>
			</clipPath>
			<path style="clip-path:url(#SVGID_00000081625143268160023410000013023743899616827561_);fill:#1A1A1A;" d="M106.7,138.9
				L106.7,138.9c0,0,4.6-5.3,0-10.9c5.3-4.9,0.4-14.6,0.4-14.6c4.5,4.4,7,10.5,7,16.8v4.6c0,2.2-1.8,4.1-4,4.1l0,0L106.7,138.9z"/>
		</g>
	</g>
	<g>
		<g>
			<defs>
				<rect id="SVGID_00000050645722398354658130000012997933854836225460_" width="195.6" height="280.6"/>
			</defs>
			<clipPath id="SVGID_00000062899214428785776940000007832011803209641143_">
				<use xlink:href="#SVGID_00000050645722398354658130000012997933854836225460_"  style="overflow:visible;"/>
			</clipPath>
			<path style="clip-path:url(#SVGID_00000062899214428785776940000007832011803209641143_);fill:#1A1A1A;" d="M74.4,138.9
				L74.4,138.9c0,0-4.6-5.3,0-10.9c-5.3-4.9-0.4-14.6-0.4-14.6c-4.5,4.4-7,10.5-7,16.8v4.6c0,2.2,1.8,4,4,4.1L74.4,138.9L74.4,138.9
				z"/>
		</g>
	</g>
	<g>
		<g>
			<defs>
				<rect id="SVGID_00000033334407950203244770000010649722962166732190_" width="195.6" height="280.6"/>
			</defs>
			<clipPath id="SVGID_00000148638474069666904280000014025572325117815942_">
				<use xlink:href="#SVGID_00000033334407950203244770000010649722962166732190_"  style="overflow:visible;"/>
			</clipPath>
			<path style="clip-path:url(#SVGID_00000148638474069666904280000014025572325117815942_);fill:#1A1A1A;" d="M90.5,105.8
				c-13.5,0-24.4,10.9-24.4,24.4v4.6c0,2.7,2.2,4.9,4.9,4.9h39c2.7,0,4.9-2.2,4.9-4.9v-4.6C114.9,116.7,104,105.8,90.5,105.8
				L90.5,105.8z M90.5,107.5c12.5,0,22.7,10.1,22.7,22.7l0,0v4.6c0,1.8-1.4,3.2-3.2,3.2l0,0H71c-1.8,0-3.2-1.4-3.2-3.2
				c0,0,0,0,0-0.1v-4.6C67.8,117.7,77.9,107.5,90.5,107.5L90.5,107.5z"/>
		</g>
	</g>
	<g>
		<g>
			<defs>
				<rect id="SVGID_00000142874712694159512790000003663243521376746634_" width="195.6" height="280.6"/>
			</defs>
			<clipPath id="SVGID_00000066517849968618940070000012514100631755094942_">
				<use xlink:href="#SVGID_00000142874712694159512790000003663243521376746634_"  style="overflow:visible;"/>
			</clipPath>
			<path style="clip-path:url(#SVGID_00000066517849968618940070000012514100631755094942_);fill:#1A1A1A;" d="M72.6,84.5
				c4.8,0,8.7,3.9,8.7,8.6l0,0v4.3c-0.2,4.8-4.2,8.5-9,8.4c-4.6-0.2-8.2-3.8-8.4-8.4v-4.3C63.9,88.4,67.8,84.5,72.6,84.5L72.6,84.5z
				"/>
		</g>
	</g>
	<g>
		<g>
			<defs>
				<rect id="SVGID_00000152230811029794174290000017103808593909235126_" width="195.6" height="280.6"/>
			</defs>
			<clipPath id="SVGID_00000163041566541899621160000005340690816488316304_">
				<use xlink:href="#SVGID_00000152230811029794174290000017103808593909235126_"  style="overflow:visible;"/>
			</clipPath>
			<path style="clip-path:url(#SVGID_00000163041566541899621160000005340690816488316304_);fill:#FFFFFF;" d="M77.7,90.7
				c0,1.5-1.3,2.8-2.8,2.8l0,0c-1.5,0-2.8-1.3-2.8-2.8s1.3-2.8,2.8-2.8C76.4,87.9,77.7,89.2,77.7,90.7z"/>
		</g>
	</g>
	<g>
		<g>
			<defs>
				<rect id="SVGID_00000115492697380253471040000003795953538320907708_" width="195.6" height="280.6"/>
			</defs>
			<clipPath id="SVGID_00000057861461223743506460000005766215570520453298_">
				<use xlink:href="#SVGID_00000115492697380253471040000003795953538320907708_"  style="overflow:visible;"/>
			</clipPath>
			<path style="clip-path:url(#SVGID_00000057861461223743506460000005766215570520453298_);fill:#1A1A1A;" d="M108.4,84.5
				c-4.8,0-8.7,3.9-8.7,8.6l0,0v7.2H117v-7.2C117.1,88.4,113.2,84.5,108.4,84.5C108.5,84.5,108.4,84.5,108.4,84.5z"/>
		</g>
	</g>
	<g>
		<g>
			<defs>
				<rect id="SVGID_00000003814579989246583680000018228010192745702542_" width="195.6" height="280.6"/>
			</defs>
			<clipPath id="SVGID_00000042704486083216572190000017581098510948040359_">
				<use xlink:href="#SVGID_00000003814579989246583680000018228010192745702542_"  style="overflow:visible;"/>
			</clipPath>
			<path style="clip-path:url(#SVGID_00000042704486083216572190000017581098510948040359_);fill:#FFFFFF;" d="M113.5,90.7
				c0,1.5-1.3,2.8-2.8,2.8s-2.8-1.3-2.8-2.8s1.3-2.8,2.8-2.8S113.5,89.2,113.5,90.7L113.5,90.7z"/>
		</g>
	</g>
	<g>
		<g>
			<defs>
				<rect id="SVGID_00000088095308504317094660000004892472324857771691_" width="195.6" height="280.6"/>
			</defs>
			<clipPath id="SVGID_00000017486751825660565060000010692279998300228748_">
				<use xlink:href="#SVGID_00000088095308504317094660000004892472324857771691_"  style="overflow:visible;"/>
			</clipPath>
			<path style="clip-path:url(#SVGID_00000017486751825660565060000010692279998300228748_);fill:#1A1A1A;" d="M170.7,161.5
				c-0.3-0.3-0.7-0.5-1-0.8l0,0c-2.6-1.8-6-2.1-8.9-0.8c-5.6-2.5-12.2,0-14.7,5.6c-1.5,3.3-1.2,7.2,0.7,10.3
				c-1.5,4.9,1.3,10.1,6.2,11.5c4.9,1.5,10.1-1.3,11.5-6.2c0.3-1.1,0.5-2.3,0.4-3.4c5.1-0.2,9.1-4.5,8.9-9.6
				C173.7,165.6,172.6,163.2,170.7,161.5L170.7,161.5z M167.3,165.3L167.3,165.3c1.8,1.6,1.9,4.2,0.4,6c-1,1.1-2.5,1.6-4,1.4
				l-1.6-0.3l-0.9,1.3c-0.2,0.3-0.5,0.7-0.8,0.9l-1.2,1.1l0.5,1.5c0.7,2.2-0.5,4.6-2.7,5.4s-4.6-0.5-5.4-2.7
				c-0.4-1.1-0.3-2.2,0.2-3.3l0.7-1.5l-1-1.2c-2.1-2.6-1.7-6.4,0.9-8.6c2-1.6,4.9-1.8,7.1-0.4l1.8,1.1l1.2-1.3
				c1.4-0.8,3.1-0.7,4.5,0.2l0,0C167.1,165.1,167.2,165.2,167.3,165.3L167.3,165.3z"/>
		</g>
	</g>
	<g>
		<g>
			<defs>
				<rect id="SVGID_00000067940169016778125890000000035655250463981188_" width="195.6" height="280.6"/>
			</defs>
			<clipPath id="SVGID_00000138558729244310254380000002411928234256775322_">
				<use xlink:href="#SVGID_00000067940169016778125890000000035655250463981188_"  style="overflow:visible;"/>
			</clipPath>
			<path style="clip-path:url(#SVGID_00000138558729244310254380000002411928234256775322_);fill:#1A1A1A;" d="M174.3,183.6
				c3.2-5.2,1.6-12.1-3.6-15.3c-1.1-0.7-2.3-1.2-3.6-1.4l-1,4.9c3.3,0.7,5.4,3.9,4.7,7.2s-3.9,5.4-7.2,4.7c-2.1-0.4-3.8-2-4.5-4
				l-4.8,1.6c1.9,5.8,8.2,9,14,7C170.8,187.5,172.9,185.8,174.3,183.6L174.3,183.6z"/>
		</g>
	</g>
	<g>
		<g>
			<defs>
				<rect id="SVGID_00000053547424484464827720000016077460736217319607_" width="195.6" height="280.6"/>
			</defs>
			<clipPath id="SVGID_00000024720743614342189110000012346543825616138643_">
				<use xlink:href="#SVGID_00000053547424484464827720000016077460736217319607_"  style="overflow:visible;"/>
			</clipPath>
			<path style="clip-path:url(#SVGID_00000024720743614342189110000012346543825616138643_);fill:#1A1A1A;" d="M149.1,155.7
				c-2.5-2.2-6.4-2-8.6,0.5c-2.2,2.5-2,6.4,0.5,8.6l0,0l16,14.1c2.5,2.2,6.4,2,8.6-0.5s2-6.4-0.5-8.6L149.1,155.7z M145.8,159.5
				l16,14.1c0.4,0.3,0.5,1,0.2,1.4l-0.1,0.1c-0.3,0.4-1,0.5-1.4,0.2l-0.1-0.1l-16-14.1c-0.5-0.4-0.6-1-0.2-1.5
				c0.4-0.5,1-0.6,1.5-0.2C145.7,159.4,145.7,159.5,145.8,159.5L145.8,159.5z"/>
		</g>
	</g>
	<g>
		<g>
			<defs>
				<rect id="SVGID_00000053504015588259949130000015395265737972636847_" width="195.6" height="280.6"/>
			</defs>
			<clipPath id="SVGID_00000137828823769508888100000010958416170024203657_">
				<use xlink:href="#SVGID_00000053504015588259949130000015395265737972636847_"  style="overflow:visible;"/>
			</clipPath>
			<path style="clip-path:url(#SVGID_00000137828823769508888100000010958416170024203657_);fill:#777E69;" d="M151.9,184.2
				c-3.1-2.1-3.9-6.3-1.8-9.4s6.3-3.9,9.4-1.8s3.9,6.3,1.8,9.4l0,0C159.2,185.4,155,186.3,151.9,184.2z"/>
		</g>
	</g>
	<g>
		<g>
			<defs>
				<rect id="SVGID_00000090264980866652955000000008175443467242035631_" width="195.6" height="280.6"/>
			</defs>
			<clipPath id="SVGID_00000001627720532753209500000014538882093949809056_">
				<use xlink:href="#SVGID_00000090264980866652955000000008175443467242035631_"  style="overflow:visible;"/>
			</clipPath>
			<path style="clip-path:url(#SVGID_00000001627720532753209500000014538882093949809056_);fill:#777E69;" d="M151.4,177.3
				c-3.9-2.6-5-8-2.3-11.9s8-5,11.9-2.3c3.9,2.6,5,8,2.3,11.9c-1.3,1.9-3.2,3.2-5.5,3.6C155.6,179,153.3,178.5,151.4,177.3z"/>
		</g>
	</g>
	<g>
		<g>
			<defs>
				<rect id="SVGID_00000056398419542802396130000004037676263582963853_" width="195.6" height="280.6"/>
			</defs>
			<clipPath id="SVGID_00000146497207655006984200000003312861763597619598_">
				<use xlink:href="#SVGID_00000056398419542802396130000004037676263582963853_"  style="overflow:visible;"/>
			</clipPath>
			<path style="clip-path:url(#SVGID_00000146497207655006984200000003312861763597619598_);fill:#777E69;" d="M160.8,174.1
				c-3.1-2.1-3.9-6.3-1.8-9.4s6.3-3.9,9.4-1.8s3.9,6.3,1.8,9.4l0,0C168.1,175.3,163.9,176.2,160.8,174.1z"/>
		</g>
	</g>
	<g>
		<g>
			<defs>
				<rect id="SVGID_00000138558558695355322800000017795224613166078113_" width="195.6" height="280.6"/>
			</defs>
			<clipPath id="SVGID_00000091701559369888491410000012938805582143933348_">
				<use xlink:href="#SVGID_00000138558558695355322800000017795224613166078113_"  style="overflow:visible;"/>
			</clipPath>
			<path style="clip-path:url(#SVGID_00000091701559369888491410000012938805582143933348_);fill:#9FA98D;" d="M162.8,169.9
				c-1.4-0.9-1.8-2.8-0.9-4.2s2.8-1.8,4.2-0.9c1.4,0.9,1.8,2.8,0.9,4.2c-0.4,0.7-1.1,1.1-1.9,1.3
				C164.3,170.4,163.5,170.3,162.8,169.9z"/>
		</g>
	</g>
	<g>
		<g>
			<defs>
				<rect id="SVGID_00000003812744491723766190000001194511017461221546_" width="195.6" height="280.6"/>
			</defs>
			<clipPath id="SVGID_00000150080724753643671360000007314905315871538319_">
				<use xlink:href="#SVGID_00000003812744491723766190000001194511017461221546_"  style="overflow:visible;"/>
			</clipPath>
			<path style="clip-path:url(#SVGID_00000150080724753643671360000007314905315871538319_);fill:#9FA98D;" d="M154.2,167.3
				c-1.2-1.1-1.3-3-0.2-4.2c0.9-1,2.3-1.3,3.5-0.7c0.7,0.4,1.1,1.1,1.3,1.9c0.1,0.8,0,1.6-0.4,2.2c-0.4,0.7-1.1,1.1-1.9,1.3
				C155.6,167.9,154.8,167.7,154.2,167.3z"/>
		</g>
	</g>
	<g>
		<g>
			<defs>
				<rect id="SVGID_00000068641354553374128670000014644768288955276208_" width="195.6" height="280.6"/>
			</defs>
			<clipPath id="SVGID_00000012471727888331344380000003068454368954954892_">
				<use xlink:href="#SVGID_00000068641354553374128670000014644768288955276208_"  style="overflow:visible;"/>
			</clipPath>
			<path style="clip-path:url(#SVGID_00000012471727888331344380000003068454368954954892_);fill:#1A1A1A;" d="M169.5,162.8
				c-0.2-0.2-0.5-0.4-0.8-0.6c-2.4-1.6-5.5-1.7-7.9-0.3c-4.5-2.5-10.2-0.9-12.7,3.6c-1.8,3.2-1.5,7.1,0.6,10.1
				c-1.6,3.8,0.2,8.2,4,9.9s8.2-0.2,9.9-4c0.6-1.5,0.8-3.2,0.3-4.8c0.2-0.2,0.4-0.5,0.6-0.7c4.1,0.6,7.9-2.3,8.5-6.4
				C172.4,167,171.5,164.5,169.5,162.8L169.5,162.8z M168.5,164L168.5,164c2.5,2.2,2.7,6,0.5,8.5c-1.4,1.6-3.5,2.3-5.6,1.9l-0.5-0.1
				l-0.3,0.4c-0.3,0.4-0.7,0.8-1.1,1.2l-0.4,0.3l0.1,0.5c1,3.1-0.7,6.5-3.8,7.6c-3.1,1-6.5-0.7-7.6-3.8c-0.5-1.5-0.4-3.2,0.3-4.6
				l0.2-0.4l-0.3-0.4c-2.7-3.3-2.3-8.3,1.1-11c2.6-2.1,6.3-2.4,9.1-0.6l0.4,0.3l0.4-0.3c2-1.3,4.6-1.3,6.7,0
				C168.1,163.6,168.3,163.8,168.5,164L168.5,164z"/>
		</g>
	</g>
	<g>
		<g>
			<defs>
				<rect id="SVGID_00000114049622211395974180000005461574853428096692_" width="195.6" height="280.6"/>
			</defs>
			<clipPath id="SVGID_00000183963587827791645390000000740860168379587499_">
				<use xlink:href="#SVGID_00000114049622211395974180000005461574853428096692_"  style="overflow:visible;"/>
			</clipPath>
			<path style="clip-path:url(#SVGID_00000183963587827791645390000000740860168379587499_);fill:#9FA98D;" d="M147.4,157.6l16,14.1
				c1.5,1.3,1.6,3.6,0.3,5.1s-3.6,1.6-5.1,0.3l-16-14.1c-1.4-1.4-1.4-3.7-0.1-5.1C143.9,156.6,146,156.5,147.4,157.6L147.4,157.6z"
				/>
		</g>
	</g>
	<g>
		<g>
			<defs>
				<rect id="SVGID_00000006707272104846227290000016408640640830340019_" width="195.6" height="280.6"/>
			</defs>
			<clipPath id="SVGID_00000049219385315463084680000001350927412956560029_">
				<use xlink:href="#SVGID_00000006707272104846227290000016408640640830340019_"  style="overflow:visible;"/>
			</clipPath>
			<path style="clip-path:url(#SVGID_00000049219385315463084680000001350927412956560029_);fill:#777E69;" d="M142,158.6
				c-0.8,1.5-0.5,3.3,0.8,4.4l16,14.1c1.3,1.1,3.1,1.2,4.5,0.2L142,158.6z"/>
		</g>
	</g>
	<g>
		<g>
			<defs>
				<rect id="SVGID_00000087413471524141708990000000234913163372625025_" width="195.6" height="280.6"/>
			</defs>
			<clipPath id="SVGID_00000075841695690010290460000013054107659633695361_">
				<use xlink:href="#SVGID_00000087413471524141708990000000234913163372625025_"  style="overflow:visible;"/>
			</clipPath>
			<path style="clip-path:url(#SVGID_00000075841695690010290460000013054107659633695361_);fill:#1A1A1A;" d="M147.9,157.1
				c-1.7-1.5-4.4-1.4-5.9,0.4s-1.4,4.4,0.4,5.9l0,0l16,14.1c1.7,1.5,4.4,1.4,5.9-0.4s1.4-4.4-0.4-5.9L147.9,157.1z M147,158.1
				l16,14.1c1.4,0.9,1.9,2.7,1,4.1c-0.9,1.4-2.7,1.9-4.1,1c-0.3-0.2-0.6-0.4-0.8-0.7l-16-14.1c-1-1.3-0.8-3.2,0.5-4.2
				C144.6,157.5,146,157.4,147,158.1z"/>
		</g>
	</g>
	<g>
		<g>
			<defs>
				<rect id="SVGID_00000139986335058529072400000009908263355442688922_" width="195.6" height="280.6"/>
			</defs>
			<clipPath id="SVGID_00000183229110104524354910000011860796855222977920_">
				<use xlink:href="#SVGID_00000139986335058529072400000009908263355442688922_"  style="overflow:visible;"/>
			</clipPath>
			<path style="clip-path:url(#SVGID_00000183229110104524354910000011860796855222977920_);fill:#777E69;" d="M160.1,184.9
				c-3.9-2.6-5-8-2.3-11.9c2.6-3.9,8-5,11.9-2.3c3.9,2.6,5,8,2.3,11.9l0,0C169.4,186.5,164,187.5,160.1,184.9L160.1,184.9z"/>
		</g>
	</g>
	<g>
		<g>
			<defs>
				<rect id="SVGID_00000107582908887606577290000017145833137365748913_" width="195.6" height="280.6"/>
			</defs>
			<clipPath id="SVGID_00000159449704248533927230000012282578942531609516_">
				<use xlink:href="#SVGID_00000107582908887606577290000017145833137365748913_"  style="overflow:visible;"/>
			</clipPath>
			<path style="clip-path:url(#SVGID_00000159449704248533927230000012282578942531609516_);fill:#9FA98D;" d="M161.1,180.7
				c-3-2-3.8-6.1-1.7-9c2-3,6.1-3.8,9-1.7c3,2,3.8,6.1,1.7,9c-1,1.4-2.5,2.4-4.2,2.7C164.3,182,162.5,181.7,161.1,180.7z"/>
		</g>
	</g>
	<g>
		<g>
			<defs>
				<rect id="SVGID_00000047056419707605043660000000702058146865956784_" width="195.6" height="280.6"/>
			</defs>
			<clipPath id="SVGID_00000062914112917147939430000010875333279471383211_">
				<use xlink:href="#SVGID_00000047056419707605043660000000702058146865956784_"  style="overflow:visible;"/>
			</clipPath>
			<path style="clip-path:url(#SVGID_00000062914112917147939430000010875333279471383211_);fill:#1A1A1A;" d="M172.7,182.6
				c2.7-4.3,1.3-10-3-12.7c-0.9-0.6-1.9-1-3-1.2l-0.2,1.2c4.3,0.8,7.2,5,6.3,9.4c-0.8,4.3-5,7.2-9.4,6.3c-2.8-0.6-5.2-2.6-6.1-5.4
				l-1.2,0.4c1.6,4.8,6.8,7.4,11.7,5.8C169.9,185.8,171.6,184.4,172.7,182.6L172.7,182.6z"/>
		</g>
	</g>
	<g>
		<g>
			<defs>
				<rect id="SVGID_00000082342084861243591130000003903830815006015891_" width="195.6" height="280.6"/>
			</defs>
			<clipPath id="SVGID_00000146480366743589283820000000502514356984801669_">
				<use xlink:href="#SVGID_00000082342084861243591130000003903830815006015891_"  style="overflow:visible;"/>
			</clipPath>
			<path style="clip-path:url(#SVGID_00000146480366743589283820000000502514356984801669_);fill:#1A1A1A;" d="M163.3,169.9
				l-0.2-1.2c-4.1,0.8-7.1,4.3-7.4,8.4l1.3,0.1C157.2,173.6,159.8,170.6,163.3,169.9z"/>
		</g>
	</g>
	<g>
		<g>
			<defs>
				<rect id="SVGID_00000111904240853470297470000010261075758928416191_" width="195.6" height="280.6"/>
			</defs>
			<clipPath id="SVGID_00000141438564292449537930000013539662857637068457_">
				<use xlink:href="#SVGID_00000111904240853470297470000010261075758928416191_"  style="overflow:visible;"/>
			</clipPath>
			<path style="clip-path:url(#SVGID_00000141438564292449537930000013539662857637068457_);fill:#1A1A1A;" d="M93.2,21.3
				c-2.2,0-13.9-0.4-23.7,3.9c-3.8,1.7-7.7,5.2-8,10.6c-0.2,7-1.1,14-2.5,20.9c-0.6,3.3,0,6.2,1.8,8.2c1.8,1.7,4.1,2.8,6.5,3
				c8.6,0.9,17.3,1.4,25.9,1.5c8.7,0,17.4-0.5,26-1.5c2.4-0.2,4.7-1.3,6.5-3c1.8-1.9,2.4-4.9,1.8-8.2c-1.4-6.9-2.2-13.9-2.5-20.9
				c-0.3-5.5-4.2-9-8-10.6C107.2,20.9,95.5,21.3,93.2,21.3L93.2,21.3z M93.2,26.9c2.6,0,13.3-0.1,21.5,3.5c2.8,1.2,4.5,2.6,4.7,5.8
				c0.3,7.3,1.1,14.6,2.6,21.7c0.4,2.2,0.1,2.8-0.4,3.3c-0.9,0.7-2,1.1-3.2,1.2c-6.2,0.9-19.6,1.4-25.2,1.4S74.3,63.2,68,62.4
				c-1.2-0.1-2.3-0.5-3.2-1.2c-0.4-0.5-0.8-1.1-0.4-3.3c1.5-7.2,2.3-14.4,2.6-21.7c0.2-3.2,1.8-4.6,4.7-5.8
				C79.9,26.8,90.7,26.9,93.2,26.9L93.2,26.9z"/>
		</g>
	</g>
	<g>
		<g>
			<defs>
				<rect id="SVGID_00000021078114799118324190000011657874065656484023_" width="195.6" height="280.6"/>
			</defs>
			<clipPath id="SVGID_00000102503503493960373610000000934376901081311377_">
				<use xlink:href="#SVGID_00000021078114799118324190000011657874065656484023_"  style="overflow:visible;"/>
			</clipPath>
			<path style="clip-path:url(#SVGID_00000102503503493960373610000000934376901081311377_);fill:#1A1A1A;" d="M80.4,13.7
				c-2,0-3.9,0.6-5.7,1.6c-5.1,3.1-8.7,5.5-14.2,9.4c-3.4,2.3-5.8,5.9-6.4,9.9c-0.5,4.2-1.1,9.8-1.2,15.1s-0.1,10.2,1.4,13.8
				c0.9,2.2,2.5,4,4.6,5.1c1.7,0.8,3.6,1.2,5.5,1c2.1-0.2,4.2-0.7,6.1-1.7l-2.4-5c-1.3,0.5-2.6,0.9-4,1c-0.9,0.1-1.9,0-2.7-0.4
				c-0.9-0.4-1.6-1.2-1.9-2.2c-0.7-1.7-1.1-6.4-1-11.5s0.7-10.5,1.2-14.5c0.5-2.5,2-4.7,4.1-6.1c5.4-3.9,8.8-6.1,13.9-9.1
				c2.6-1.5,5-1,5.9,0.6l2.8,4.9l4.8-2.8l-2.8-4.9C86.7,15.1,83.6,13.5,80.4,13.7L80.4,13.7z"/>
		</g>
	</g>
	<g>
		<g>
			<defs>
				<rect id="SVGID_00000056400285374564890080000009475759790203744903_" width="195.6" height="280.6"/>
			</defs>
			<clipPath id="SVGID_00000035495048770878212010000000446740889299348915_">
				<use xlink:href="#SVGID_00000056400285374564890080000009475759790203744903_"  style="overflow:visible;"/>
			</clipPath>
			<path style="clip-path:url(#SVGID_00000035495048770878212010000000446740889299348915_);fill:#1A1A1A;" d="M106.1,13.7
				c-3.3-0.2-6.3,1.5-8,4.3l-2.8,4.9l4.8,2.8l2.8-4.9c0.9-1.6,3.3-2.1,5.9-0.6c5,3,8.4,5.3,13.9,9.1c2.1,1.4,3.6,3.6,4.1,6.1
				c0.5,4,1,9.5,1.2,14.5s-0.3,9.8-1,11.5c-0.3,1-1,1.8-1.9,2.2s-1.8,0.5-2.7,0.4c-1.4-0.1-2.7-0.5-4-1l-2.4,5
				c1.9,0.9,4,1.4,6.1,1.6c1.9,0.2,3.8-0.2,5.5-1c2.1-1.1,3.8-2.9,4.6-5.1c1.5-3.6,1.6-8.5,1.4-13.8s-0.7-10.9-1.2-15.1
				c-0.7-4.1-3-7.7-6.4-9.9c-5.5-3.9-9.1-6.3-14.2-9.4C110.1,14.3,108.1,13.7,106.1,13.7L106.1,13.7z"/>
		</g>
	</g>
	<g>
		<g>
			<defs>
				<rect id="SVGID_00000055675054485782929620000010166615986977035952_" width="195.6" height="280.6"/>
			</defs>
			<clipPath id="SVGID_00000003808862157308804500000002452141040342384543_">
				<use xlink:href="#SVGID_00000055675054485782929620000010166615986977035952_"  style="overflow:visible;"/>
			</clipPath>
			<path style="clip-path:url(#SVGID_00000003808862157308804500000002452141040342384543_);fill:#1A1A1A;" d="M93.2,16.8
				c-1.7,0-11.3-0.4-19.4,4.1C70,23,67.5,27,67.4,31.5l5.6,0.2c0.1-3.5,1.5-4.8,3.6-5.9c6.2-3.5,14.5-3.4,16.7-3.4
				s10.4-0.1,16.7,3.4c2.1,1.2,3.5,2.5,3.6,5.9l5.6-0.2c-0.1-4.4-2.6-8.5-6.5-10.6C104.6,16.4,94.9,16.8,93.2,16.8z"/>
		</g>
	</g>
	<g>
		<g>
			<defs>
				<rect id="SVGID_00000144305814132020279060000016203121208763233664_" width="195.6" height="280.6"/>
			</defs>
			<clipPath id="SVGID_00000008860071683012152300000016819246508683999672_">
				<use xlink:href="#SVGID_00000144305814132020279060000016203121208763233664_"  style="overflow:visible;"/>
			</clipPath>
			<path style="clip-path:url(#SVGID_00000008860071683012152300000016819246508683999672_);fill:#423D3D;" d="M116.3,31.6
				c0-3.5-1.9-6.7-5-8.3c-7.2-4-16.1-3.7-18-3.7s-10.9-0.3-18,3.7c-3.1,1.6-5,4.8-5,8.3C70.3,31.6,116.3,31.6,116.3,31.6z"/>
		</g>
	</g>
	<g>
		<g>
			<defs>
				<rect id="SVGID_00000176036042591530438950000015859621443383959426_" width="195.6" height="280.6"/>
			</defs>
			<clipPath id="SVGID_00000116917600223085450130000002079096910102317464_">
				<use xlink:href="#SVGID_00000176036042591530438950000015859621443383959426_"  style="overflow:visible;"/>
			</clipPath>
			<path style="clip-path:url(#SVGID_00000116917600223085450130000002079096910102317464_);fill:#1A1A1A;" d="M93.2,18.9
				c-1.8,0-11-0.3-18.4,3.8c-3.3,1.7-5.4,5.1-5.4,8.9l1.4,0.1c0-3.2,1.8-6.2,4.7-7.6c6.9-3.9,15.7-3.6,17.7-3.6s10.8-0.3,17.7,3.6
				c2.9,1.4,4.7,4.4,4.7,7.6l1.4-0.1c0-3.7-2.1-7.1-5.4-8.9C104.2,18.6,95.1,18.9,93.2,18.9L93.2,18.9z"/>
		</g>
	</g>
	<g>
		<g>
			<defs>
				<rect id="SVGID_00000022525194804075787650000000859000297820519563_" width="195.6" height="280.6"/>
			</defs>
			<clipPath id="SVGID_00000130648037274870414800000000149679745533802117_">
				<use xlink:href="#SVGID_00000022525194804075787650000000859000297820519563_"  style="overflow:visible;"/>
			</clipPath>
			<path style="clip-path:url(#SVGID_00000130648037274870414800000000149679745533802117_);fill:#5A5252;" d="M69.3,65.4
				c0,0-9.3,4.6-12.5-3c-2.2-5.3-1-19.2,0-27.4c0.6-3.3,2.5-6.2,5.3-8c5.5-3.9,9-6.2,14-9.3c3.6-2.2,8-1.5,9.8,1.6l2.8,4.8
				L69.3,65.4z"/>
		</g>
	</g>
	<g>
		<g>
			<defs>
				<rect id="SVGID_00000142889504015633824470000017593124069266433939_" width="195.6" height="280.6"/>
			</defs>
			<clipPath id="SVGID_00000088105999217655703730000004649433490549999009_">
				<use xlink:href="#SVGID_00000142889504015633824470000017593124069266433939_"  style="overflow:visible;"/>
			</clipPath>
			<path style="clip-path:url(#SVGID_00000088105999217655703730000004649433490549999009_);fill:#7F6D6B;" d="M80.7,16.4
				c-1.6,0-3.2,0.4-4.6,1.3c-5.1,3-8.6,5.4-14,9.3c-2.8,1.8-4.7,4.7-5.3,8c-1,8.2-2.2,22.1,0,27.4c0.6,1.5,1.6,2.7,2.9,3.5
				c-2-6.1-0.8-20.4,0.2-29c0.6-3.5,2.5-6.6,5.4-8.6c5.6-4.2,9.2-6.7,14.4-10c1.1-0.7,2.2-1.1,3.5-1.3
				C82.4,16.6,81.6,16.5,80.7,16.4L80.7,16.4z"/>
		</g>
	</g>
	<g>
		<g>
			<defs>
				<rect id="SVGID_00000135676332487373532800000003604394871383162541_" width="195.6" height="280.6"/>
			</defs>
			<clipPath id="SVGID_00000094592520349711705050000007844798037136588199_">
				<use xlink:href="#SVGID_00000135676332487373532800000003604394871383162541_"  style="overflow:visible;"/>
			</clipPath>
			<path style="clip-path:url(#SVGID_00000094592520349711705050000007844798037136588199_);fill:#1A1A1A;" d="M80.4,15.5
				c-1.7,0.1-3.3,0.5-4.7,1.4c-5.1,3.1-8.6,5.4-14.1,9.3c-2.8,2-5.2,5-5.7,8.6c-0.5,4.1-1.1,9.7-1.2,14.9s0,10,1.3,13
				c0.7,1.8,2,3.3,3.7,4.1c1.4,0.7,3,0.9,4.6,0.8c1.9-0.2,3.7-0.6,5.4-1.4l-0.8-1.7c-1.5,0.7-3.1,1.1-4.7,1.2
				c-1.3,0.1-2.5-0.1-3.7-0.6c-1.3-0.7-2.3-1.8-2.8-3.2c-1-2.3-1.3-7.1-1.1-12.2s0.7-10.6,1.2-14.7c0.6-3,2.3-5.7,4.9-7.4
				c5.5-3.9,8.9-6.2,14-9.2c3.3-2,7-1.4,8.5,1.3l2.8,4.9l1.6-0.9l-2.8-4.8C85.4,16.6,83,15.3,80.4,15.5L80.4,15.5z"/>
		</g>
	</g>
	<g>
		<g>
			<defs>
				<rect id="SVGID_00000070815877939276731680000016239704053245694384_" width="195.6" height="280.6"/>
			</defs>
			<clipPath id="SVGID_00000139988243885977655140000012739307626979992239_">
				<use xlink:href="#SVGID_00000070815877939276731680000016239704053245694384_"  style="overflow:visible;"/>
			</clipPath>
			<path style="clip-path:url(#SVGID_00000139988243885977655140000012739307626979992239_);fill:#423D3D;" d="M117.2,65.4
				c0,0,9.3,4.6,12.5-3c2.2-5.3,1-19.2,0-27.4c-0.6-3.3-2.5-6.2-5.3-8c-5.5-3.9-9-6.2-14-9.3c-3.6-2.2-8-1.5-9.8,1.6l-2.8,4.8
				L117.2,65.4z"/>
		</g>
	</g>
	<g>
		<g>
			<defs>
				<rect id="SVGID_00000034785457093696488250000001506173927768421515_" width="195.6" height="280.6"/>
			</defs>
			<clipPath id="SVGID_00000036933451497030992530000005199097566901519239_">
				<use xlink:href="#SVGID_00000034785457093696488250000001506173927768421515_"  style="overflow:visible;"/>
			</clipPath>
			<path style="clip-path:url(#SVGID_00000036933451497030992530000005199097566901519239_);fill:#1A1A1A;" d="M106.1,15.5
				c-2.6-0.2-5,1.1-6.3,3.4L97,23.7l1.6,0.9l2.8-4.9c1.5-2.6,5.2-3.2,8.5-1.3c5.1,3,8.5,5.3,14,9.2c2.6,1.7,4.3,4.3,4.9,7.4
				c0.5,4.1,1.1,9.6,1.2,14.7s-0.2,9.9-1.1,12.2c-0.5,1.4-1.5,2.5-2.8,3.2c-1.1,0.5-2.4,0.7-3.7,0.6c-1.6-0.1-3.2-0.6-4.7-1.2
				l-0.8,1.7c1.7,0.8,3.5,1.3,5.4,1.4c1.6,0.2,3.2-0.1,4.6-0.8c1.7-0.9,3-2.3,3.7-4.1c1.2-3,1.4-7.8,1.3-13s-0.7-10.8-1.2-14.9
				c-0.5-3.7-2.9-6.7-5.7-8.6c-5.5-3.9-9-6.2-14.1-9.3C109.4,16,107.8,15.6,106.1,15.5L106.1,15.5z"/>
		</g>
	</g>
	<g>
		<g>
			<defs>
				<rect id="SVGID_00000153673350982346305150000016804232199093201563_" width="195.6" height="280.6"/>
			</defs>
			<clipPath id="SVGID_00000085213783324506552600000002378388944824641696_">
				<use xlink:href="#SVGID_00000153673350982346305150000016804232199093201563_"  style="overflow:visible;"/>
			</clipPath>
			<path style="clip-path:url(#SVGID_00000085213783324506552600000002378388944824641696_);fill:#5A5252;" d="M70.6,27.8
				c-3.3,1.5-6.1,3.9-6.3,8.2c-0.3,7.2-1.1,14.3-2.6,21.3c-1.1,5.4,2,7.2,5.9,7.8c8.5,0.9,17,1.4,25.5,1.5
				c8.5-0.1,17.1-0.5,25.6-1.5c4-0.6,7-2.4,5.9-7.8c-1.5-7-2.3-14.2-2.6-21.3c-0.2-4.4-3-6.8-6.3-8.2c-9-4-20.2-3.7-22.6-3.7
				S79.6,23.9,70.6,27.8z"/>
		</g>
	</g>
	<g>
		<g>
			<defs>
				<rect id="SVGID_00000057127092179388452930000007511685666610086814_" width="195.6" height="280.6"/>
			</defs>
			<clipPath id="SVGID_00000132791344603260921570000010254611842611695037_">
				<use xlink:href="#SVGID_00000057127092179388452930000007511685666610086814_"  style="overflow:visible;"/>
			</clipPath>
			<path style="clip-path:url(#SVGID_00000132791344603260921570000010254611842611695037_);fill:#7F6D6B;" d="M83.9,24.5
				c-3.5,0.4-6.9,1.1-10.2,2.1c-1.5,2-2.4,4.5-2.4,7.1c-0.3,8.9-1.1,17.9-2.6,26.7c-0.3,1.6-0.3,3.3,0.1,4.9
				c2.5,0.3,5.6,0.6,8.9,0.8c-0.4-1.7-0.4-3.5-0.1-5.2c1.5-9.1,2.3-18.3,2.6-27.6C80.1,30,81.4,26.8,83.9,24.5z"/>
		</g>
	</g>
	<g>
		<g>
			<defs>
				<rect id="SVGID_00000135685373953603525870000017984357134925378437_" width="195.6" height="280.6"/>
			</defs>
			<clipPath id="SVGID_00000167390759503870634680000003471692046188866954_">
				<use xlink:href="#SVGID_00000135685373953603525870000017984357134925378437_"  style="overflow:visible;"/>
			</clipPath>
			<path style="clip-path:url(#SVGID_00000167390759503870634680000003471692046188866954_);fill:#423D3D;" d="M102.6,24.5
				c2.4,2.3,3.8,5.5,3.8,8.8c0.3,9.2,1.1,18.4,2.6,27.6c0.3,1.7,0.3,3.5-0.1,5.2c3.8-0.2,7.3-0.5,9.9-0.9c4-0.6,7-2.4,5.9-7.8
				c-1.5-7-2.3-14.2-2.6-21.3c-0.2-4.4-3-6.8-6.3-8.2C111.7,26.1,107.2,25,102.6,24.5L102.6,24.5z"/>
		</g>
	</g>
	<g>
		<g>
			<defs>
				<rect id="SVGID_00000086668499559449991290000018338227718171950758_" width="195.6" height="280.6"/>
			</defs>
			<clipPath id="SVGID_00000004523024124701194940000006614011102016163216_">
				<use xlink:href="#SVGID_00000086668499559449991290000018338227718171950758_"  style="overflow:visible;"/>
			</clipPath>
			<path style="clip-path:url(#SVGID_00000004523024124701194940000006614011102016163216_);fill:#7F6D6B;" d="M92,24.1
				c-3.9,0-13.5,0.2-21.3,3.7c-3.3,1.4-6,3.8-6.3,8.1c1.3-1.5,3-2.7,4.9-3.4c9.5-4,21.5-3.7,24-3.7s14.5-0.3,24,3.7
				c1.9,0.7,3.6,1.9,4.9,3.4c-0.3-4.3-3-6.6-6.3-8.1c-9-4-20.2-3.7-22.6-3.7H92z"/>
		</g>
	</g>
	<g>
		<g>
			<defs>
				<rect id="SVGID_00000134218576692099208460000014983517040754616763_" width="195.6" height="280.6"/>
			</defs>
			<clipPath id="SVGID_00000054966127204411705260000007381954787990762920_">
				<use xlink:href="#SVGID_00000134218576692099208460000014983517040754616763_"  style="overflow:visible;"/>
			</clipPath>
			<path style="clip-path:url(#SVGID_00000054966127204411705260000007381954787990762920_);fill:#1A1A1A;" d="M93.2,23.2
				c-2.3,0-13.7-0.3-23,3.8c-3.5,1.5-6.6,4.3-6.9,9c-0.2,7.1-1.1,14.2-2.5,21.2c-0.6,2.9,0,5.1,1.3,6.5c1.5,1.4,3.4,2.2,5.4,2.4
				c8.5,0.9,17.1,1.4,25.7,1.5c8.6,0,17.2-0.5,25.7-1.5c2-0.1,3.9-1,5.4-2.4c1.3-1.4,1.9-3.6,1.3-6.5c-1.4-7-2.3-14.1-2.5-21.2
				c-0.2-4.7-3.4-7.5-6.9-9C107,22.9,95.6,23.2,93.2,23.2L93.2,23.2z M93.2,25c2.5,0,13.5-0.2,22.2,3.6c3.1,1.4,5.6,3.5,5.8,7.4
				c0.3,7.2,1.1,14.4,2.6,21.5c0.5,2.5,0,4-0.8,4.9c-1.2,1.1-2.7,1.7-4.3,1.8c-8.4,0.9-16.9,1.4-25.4,1.4c-8.5-0.1-17-0.5-25.4-1.4
				c-1.6-0.1-3.1-0.7-4.3-1.8c-0.9-1-1.3-2.4-0.8-4.9c1.5-7.1,2.3-14.3,2.6-21.5c0.2-4,2.6-6,5.8-7.4C79.7,24.8,90.8,25,93.2,25
				L93.2,25z"/>
		</g>
	</g>
	<g>
		<g>
			<defs>
				<rect id="SVGID_00000105386762003753525520000000318177158055142058_" width="195.6" height="280.6"/>
			</defs>
			<clipPath id="SVGID_00000018231581292431980740000006001676093564493751_">
				<use xlink:href="#SVGID_00000105386762003753525520000000318177158055142058_"  style="overflow:visible;"/>
			</clipPath>
			<path style="clip-path:url(#SVGID_00000018231581292431980740000006001676093564493751_);fill:#E83B54;" d="M98,50
				c-1,0.8-3.4-1.6-4.7-1.6s-3.7,2.4-4.7,1.6s0.5-3.7,0.1-5s-3.4-2.7-3-4s3.7-0.7,4.8-1.5s1.6-4.1,2.8-4.1s1.8,3.3,2.8,4.1
				s4.4,0.2,4.8,1.5s-2.6,2.7-3,4S99,49.2,98,50z"/>
		</g>
	</g>
	<g>
		<g>
			<defs>
				<rect id="SVGID_00000145768592371013377500000009974128432780344758_" width="195.6" height="280.6"/>
			</defs>
			<clipPath id="SVGID_00000090974493110187819890000005185725328514683058_">
				<use xlink:href="#SVGID_00000145768592371013377500000009974128432780344758_"  style="overflow:visible;"/>
			</clipPath>
			<path style="clip-path:url(#SVGID_00000090974493110187819890000005185725328514683058_);fill:#1A1A1A;" d="M93.3,35
				c-0.5,0-0.9,0.3-1.2,0.7c-0.3,0.4-0.5,0.8-0.7,1.3s-0.4,1-0.6,1.3c-0.1,0.3-0.3,0.6-0.6,0.8c-0.3,0.2-0.6,0.3-0.9,0.3
				c-0.4,0.1-1,0.1-1.5,0.2c-0.5,0-1,0.1-1.5,0.3c-0.5,0.1-0.9,0.5-1.1,0.9c-0.1,0.5,0,1,0.3,1.4s0.6,0.8,1,1.1s0.8,0.7,1.1,1
				c0.2,0.2,0.4,0.5,0.6,0.8c0.1,0.3,0.1,0.7,0,1c-0.1,0.4-0.2,1-0.3,1.5c-0.1,0.5-0.2,1-0.2,1.5c-0.1,0.8,0.4,1.5,1.2,1.6
				c0.3,0,0.6,0,0.8-0.1c0.5-0.2,0.9-0.4,1.4-0.6c0.4-0.3,0.9-0.5,1.3-0.7c0.5-0.4,1.3-0.4,1.8,0c0.4,0.2,0.8,0.5,1.3,0.7
				c0.4,0.3,0.9,0.5,1.3,0.6c0.7,0.3,1.5,0.1,1.9-0.6c0.1-0.3,0.2-0.5,0.1-0.8c0-0.5-0.1-1-0.2-1.5s-0.2-1-0.3-1.5
				c-0.1-0.3-0.1-0.7,0-1s0.3-0.6,0.6-0.8c0.3-0.3,0.7-0.7,1.1-1s0.7-0.7,1-1.1c0.3-0.4,0.4-0.9,0.3-1.4c-0.2-0.4-0.5-0.8-1-0.9
				c-0.5-0.2-1-0.2-1.5-0.3c-0.5,0-1-0.1-1.5-0.2c-0.3,0-0.6-0.1-0.9-0.3c-0.2-0.2-0.4-0.5-0.6-0.8c-0.2-0.4-0.4-0.9-0.6-1.3
				c-0.2-0.5-0.4-0.9-0.7-1.3C94.3,35.3,93.8,35,93.3,35z M93.3,35.9c0.1,0,0.3,0.1,0.5,0.3c0.2,0.4,0.5,0.7,0.6,1.1
				c0.2,0.5,0.4,1,0.6,1.4c0.2,0.5,0.5,0.9,0.8,1.2c0.4,0.3,0.9,0.4,1.3,0.5c0.5,0.1,1,0.1,1.5,0.2c0.4,0,0.9,0.1,1.3,0.2
				c0.3,0.1,0.4,0.2,0.5,0.3s0,0.3-0.2,0.6c-0.3,0.3-0.6,0.7-0.9,0.9c-0.4,0.3-0.8,0.7-1.1,1c-0.4,0.3-0.6,0.7-0.8,1.2
				c-0.1,0.5-0.1,0.9,0,1.4s0.2,1,0.3,1.5c0.1,0.4,0.2,0.9,0.2,1.3c0,0.3-0.1,0.5-0.2,0.6s-0.3,0.1-0.6,0c-0.4-0.1-0.8-0.3-1.2-0.5
				c-0.4-0.2-0.9-0.5-1.3-0.8c-0.4-0.2-0.9-0.4-1.3-0.4c-0.5,0-0.9,0.2-1.3,0.4s-0.9,0.5-1.3,0.8c-0.4,0.2-0.8,0.4-1.2,0.5
				c-0.3,0.1-0.5,0.1-0.6,0s-0.2-0.2-0.2-0.6c0-0.4,0.1-0.9,0.2-1.3c0.1-0.5,0.2-1,0.3-1.5c0.3-0.9-0.1-2-0.8-2.6
				c-0.3-0.3-0.8-0.7-1.1-1c-0.3-0.3-0.6-0.6-0.9-0.9c-0.2-0.3-0.2-0.4-0.2-0.6s0.2-0.2,0.5-0.3c0.4-0.1,0.8-0.2,1.3-0.2
				c0.5-0.1,1-0.1,1.5-0.2c0.5,0,0.9-0.2,1.3-0.5s0.7-0.7,0.8-1.1c0.2-0.4,0.4-0.9,0.6-1.4c0.2-0.4,0.4-0.8,0.6-1.1
				C93,36.1,93.1,36,93.3,35.9L93.3,35.9z"/>
		</g>
	</g>
	<g>
		<g>
			<defs>
				<rect id="SVGID_00000089563259817256294520000017972531027550219156_" width="195.6" height="280.6"/>
			</defs>
			<clipPath id="SVGID_00000133517791188876474930000010936735724422938770_">
				<use xlink:href="#SVGID_00000089563259817256294520000017972531027550219156_"  style="overflow:visible;"/>
			</clipPath>
			<path style="clip-path:url(#SVGID_00000133517791188876474930000010936735724422938770_);fill:#423D3D;" d="M102.5,34.1
				c0,0.3-0.1,0.5-0.3,0.7c-0.2,0.2-0.4,0.3-0.7,0.3c-0.6,0-1-0.4-1-1s0.4-1,1-1c0.3,0,0.5,0.1,0.7,0.3
				C102.4,33.6,102.5,33.8,102.5,34.1L102.5,34.1z"/>
		</g>
	</g>
	<g>
		<g>
			<defs>
				<rect id="SVGID_00000037671464091495932350000004861015419840811160_" width="195.6" height="280.6"/>
			</defs>
			<clipPath id="SVGID_00000046330592258434755350000007503365298976198307_">
				<use xlink:href="#SVGID_00000037671464091495932350000004861015419840811160_"  style="overflow:visible;"/>
			</clipPath>
			<path style="clip-path:url(#SVGID_00000046330592258434755350000007503365298976198307_);fill:#423D3D;" d="M150.6,0h29h16v16
				c0,7,0,14,0,21c-10.2,12.4-28.6,14.2-41,4S140.4,12.4,150.6,0z"/>
		</g>
	</g>
	<g>
		<g>
			<defs>
				<rect id="SVGID_00000172427074888072526200000012576810141128412305_" width="195.6" height="280.6"/>
			</defs>
			<clipPath id="SVGID_00000179637894472704027020000009294584878915323324_">
				<use xlink:href="#SVGID_00000172427074888072526200000012576810141128412305_"  style="overflow:visible;"/>
			</clipPath>
		</g>
	</g>
</g>
<g class="st68">
	<path class="st69" d="M39.4,194.1l-0.1,1.2c0.4-0.5,0.8-0.9,1.3-1.1c0.5-0.2,1-0.4,1.5-0.4c0.7,0,1.2,0.2,1.7,0.5s0.8,0.8,0.9,1.2
		s0.2,1.3,0.2,2.4v5.9c0,1.3-0.1,2.2-0.2,2.7c-0.2,0.5-0.5,1-0.9,1.3c-0.5,0.3-1,0.5-1.7,0.5c-0.5,0-1-0.1-1.5-0.4
		c-0.5-0.2-0.9-0.6-1.2-1.1v3.2H35v-16h4.4V194.1z M40.6,198.2c0-0.9,0-1.4-0.1-1.6c-0.1-0.2-0.2-0.3-0.5-0.3s-0.5,0.1-0.5,0.3
		s-0.1,0.7-0.1,1.5v5.8c0,0.8,0,1.4,0.1,1.6c0.1,0.2,0.3,0.3,0.5,0.3c0.3,0,0.4-0.1,0.5-0.3s0.1-0.7,0.1-1.4V198.2z"/>
	<path class="st69" d="M55.9,199v3.4c0,1.3-0.1,2.2-0.2,2.8c-0.1,0.6-0.4,1.1-0.8,1.7c-0.4,0.5-1,0.9-1.6,1.1
		c-0.7,0.2-1.4,0.4-2.2,0.4c-0.9,0-1.7-0.1-2.4-0.3s-1.2-0.5-1.5-0.9s-0.6-0.9-0.8-1.5s-0.2-1.5-0.2-2.7v-3.6c0-1.3,0.1-2.3,0.4-3.1
		c0.3-0.7,0.8-1.3,1.5-1.8c0.7-0.4,1.7-0.7,2.8-0.7c1,0,1.8,0.1,2.5,0.4c0.7,0.3,1.2,0.7,1.6,1.1s0.6,0.9,0.8,1.4
		C55.9,197.3,55.9,198.1,55.9,199z M51.7,198c0-0.7,0-1.2-0.1-1.4s-0.2-0.3-0.5-0.3s-0.4,0.1-0.5,0.3s-0.1,0.6-0.1,1.4v6.3
		c0,0.7,0,1.1,0.1,1.3s0.2,0.3,0.5,0.3s0.4-0.1,0.5-0.3s0.1-0.6,0.1-1.2V198z"/>
	<path class="st69" d="M64,194.1v3.1l-3.2,8.1H64v2.8h-7.3v-2.9l3.2-8.3H57v-2.8L64,194.1L64,194.1z M61.8,190.4v2.8H59v-2.8H61.8z"
		/>
	<path class="st69" d="M74.6,201.4h-5.5v3c0,0.6,0,1,0.1,1.2s0.3,0.3,0.5,0.3c0.3,0,0.5-0.1,0.7-0.4c0.1-0.2,0.2-0.7,0.2-1.4v-1.9
		h4.1v1c0,0.9-0.1,1.5-0.2,2s-0.4,1-0.8,1.5s-0.9,0.9-1.5,1.2s-1.4,0.4-2.3,0.4s-1.7-0.1-2.4-0.4c-0.7-0.3-1.2-0.6-1.6-1.1
		s-0.7-1-0.8-1.5c-0.1-0.5-0.2-1.3-0.2-2.4V199c0-1.2,0.2-2.2,0.5-2.9s0.9-1.3,1.6-1.6c0.8-0.4,1.6-0.6,2.6-0.6c1.2,0,2.2,0.2,3,0.7
		s1.3,1.1,1.6,1.8c0.3,0.8,0.5,1.8,0.5,3.2L74.6,201.4L74.6,201.4z M70.3,199.1v-1c0-0.7,0-1.2-0.1-1.4s-0.2-0.3-0.5-0.3
		s-0.5,0.1-0.6,0.3s-0.1,0.7-0.1,1.5v1h1.3V199.1z"/>
	<path class="st69" d="M85.8,194.1v10.8c0,1.5,0,2.4-0.1,2.8c-0.1,0.4-0.3,0.9-0.7,1.4c-0.4,0.5-1,0.8-1.7,1.1
		c-0.7,0.2-1.6,0.4-2.8,0.4c-1.4,0-2.5-0.2-3.3-0.7s-1.3-1.4-1.3-2.7H80c0,0.6,0.2,0.9,0.7,0.9c0.3,0,0.5-0.1,0.6-0.3
		s0.2-0.6,0.2-1.2v-1.1c-0.4,0.3-0.8,0.6-1.2,0.8c-0.4,0.2-0.8,0.3-1.3,0.3c-0.8,0-1.4-0.2-1.9-0.5s-0.8-0.7-1-1.2s-0.3-1.2-0.3-2.2
		v-5.1c0-1.3,0.2-2.3,0.7-2.9c0.5-0.6,1.2-0.9,2.2-0.9c0.5,0,1,0.1,1.5,0.3c0.4,0.2,0.8,0.5,1.2,1l0.3-1.1L85.8,194.1L85.8,194.1z
		 M81.5,197.8c0-0.6,0-1.1-0.1-1.2c-0.1-0.2-0.2-0.3-0.5-0.3c-0.2,0-0.4,0.1-0.5,0.3s-0.2,0.6-0.2,1.2v4.7c0,0.6,0,1,0.1,1.2
		s0.2,0.3,0.5,0.3s0.5-0.1,0.6-0.3s0.1-0.7,0.1-1.5V197.8z"/>
	<path class="st69" d="M91.6,194.1l-0.1,1.3c0.3-0.5,0.7-0.9,1.1-1.2s1-0.4,1.6-0.4c0.7,0,1.3,0.2,1.8,0.5s0.8,0.8,0.9,1.3
		s0.2,1.4,0.2,2.6v9.8h-4.3v-9.7c0-1,0-1.6-0.1-1.8s-0.2-0.3-0.5-0.3s-0.5,0.1-0.6,0.4c-0.1,0.2-0.1,0.9-0.1,2v9.5h-4.3v-14
		L91.6,194.1L91.6,194.1z"/>
	<path class="st69" d="M102.4,199.6h-4v-0.9c0-1.1,0.1-1.9,0.4-2.5s0.8-1.1,1.5-1.6s1.7-0.7,2.9-0.7c1.4,0,2.5,0.3,3.3,0.8
		c0.7,0.5,1.2,1.1,1.3,1.9c0.1,0.7,0.2,2.3,0.2,4.6v7h-4.2v-1.3c-0.3,0.5-0.6,0.9-1,1.1c-0.4,0.3-0.9,0.4-1.5,0.4
		c-0.7,0-1.4-0.2-2.1-0.6s-0.9-1.3-0.9-2.8v-1.2c0-1.1,0.2-1.8,0.5-2.1c0.3-0.4,1.2-0.8,2.5-1.3c1.4-0.5,2.2-0.9,2.3-1.1
		c0.1-0.2,0.1-0.6,0.1-1.2c0-0.7-0.1-1.2-0.2-1.4s-0.3-0.3-0.5-0.3c-0.3,0-0.5,0.1-0.5,0.3c-0.1,0.2-0.1,0.7-0.1,1.5L102.4,199.6
		L102.4,199.6z M103.8,201.5c-0.7,0.5-1.1,0.9-1.2,1.3s-0.2,0.8-0.2,1.5s0,1.2,0.1,1.4s0.3,0.3,0.6,0.3c0.3,0,0.4-0.1,0.5-0.2
		s0.1-0.6,0.1-1.3L103.8,201.5L103.8,201.5z"/>
	<path class="st69" d="M113.9,191v17.1h-4.4V191H113.9z"/>
	<path class="st69" d="M119.9,191v2.2h-4.4V191H119.9z M119.9,194.1v14h-4.4v-14H119.9z"/>
	<path class="st69" d="M134,198.6h-3.8v-0.8c0-0.6,0-1.1-0.1-1.2s-0.3-0.3-0.6-0.3c-0.2,0-0.4,0.1-0.5,0.2c-0.1,0.2-0.2,0.4-0.2,0.7
		c0,0.4,0,0.7,0.1,0.9s0.2,0.4,0.5,0.7c0.3,0.2,0.9,0.6,1.8,1c1.2,0.6,2.1,1.2,2.4,1.7s0.6,1.3,0.6,2.3c0,1.1-0.1,2-0.4,2.6
		s-0.8,1-1.5,1.3s-1.5,0.5-2.5,0.5c-1.1,0-2-0.2-2.8-0.5s-1.3-0.8-1.6-1.4c-0.3-0.6-0.4-1.5-0.4-2.6V203h3.8v0.9
		c0,0.8,0,1.2,0.1,1.5c0.1,0.2,0.3,0.3,0.6,0.3s0.5-0.1,0.6-0.2c0.1-0.2,0.2-0.5,0.2-1c0-0.7-0.1-1.1-0.2-1.3
		c-0.2-0.2-1-0.7-2.5-1.5c-1.3-0.7-2-1.3-2.3-1.9s-0.4-1.3-0.4-2c0-1.1,0.1-1.9,0.4-2.5c0.3-0.5,0.8-0.9,1.5-1.2s1.5-0.4,2.5-0.4
		c0.9,0,1.7,0.1,2.4,0.4c0.7,0.2,1.2,0.5,1.5,0.9s0.6,0.7,0.6,1.1c0.1,0.3,0.1,0.9,0.1,1.6L134,198.6L134,198.6z"/>
	<path class="st69" d="M139.8,191v2.2h-4.4V191H139.8z M139.8,194.1v14h-4.4v-14H139.8z"/>
	<path class="st69" d="M147.1,208.2c-0.6,0.6-0.9,1.1-0.9,1.4c0,0.5,0.3,0.7,0.8,0.7c0.4,0,0.8-0.1,1.2-0.3l0.4,1.1
		c-0.7,0.3-1.3,0.5-1.8,0.5c-0.6,0-1.2-0.2-1.5-0.5s-0.6-0.7-0.6-1.2c0-0.6,0.3-1.2,0.9-1.7c-0.8-0.1-1.5-0.2-2.1-0.5
		s-1.1-0.6-1.4-1.1c-0.3-0.5-0.6-1-0.6-1.5c-0.1-0.5-0.1-1.2-0.1-2V199c0-0.8,0.1-1.4,0.2-2c0.1-0.6,0.4-1.1,0.7-1.5
		c0.4-0.4,0.9-0.8,1.5-1s1.4-0.3,2.3-0.3c1.3,0,2.4,0.2,3.2,0.6c0.8,0.4,1.3,1,1.5,1.8s0.4,1.8,0.4,3v1.9h-5.5v3
		c0,0.7,0.1,1.1,0.2,1.2c0.1,0.2,0.3,0.2,0.5,0.2c0.3,0,0.5-0.1,0.6-0.3s0.2-0.6,0.2-1.1v-2.2h4v1c0,0.8,0,1.4-0.1,1.9
		s-0.3,1-0.7,1.5s-0.8,0.9-1.3,1.1C148.5,208,147.8,208.1,147.1,208.2z M145.5,197.4v1.7h1.3v-1c0-0.7,0-1.1-0.1-1.4
		c-0.1-0.2-0.2-0.4-0.5-0.4c-0.2,0-0.4,0.1-0.5,0.2C145.6,196.7,145.5,197,145.5,197.4z"/>
	<path class="st69" d="M162.9,194.1v3.1l-3.2,8.1h3.2v2.8h-7.3v-2.9l3.2-8.3H156v-2.8L162.9,194.1L162.9,194.1z"/>
</g>
<g class="st68">
	<path class="st69" d="M64.8,214v33.5c0,3.8-0.1,6.5-0.4,8c-0.2,1.5-1,3.1-2.2,4.7s-2.8,2.8-4.8,3.7c-2,0.8-4.3,1.3-7,1.3
		c-3,0-5.6-0.5-7.9-1.5c-2.3-1-4-2.3-5.1-3.9s-1.8-3.3-2-5c-0.2-1.8-0.3-5.5-0.3-11.1V214h13v37.6c0,2.2,0.1,3.6,0.4,4.2
		c0.2,0.6,0.7,0.9,1.4,0.9c0.8,0,1.4-0.3,1.6-1c0.2-0.7,0.4-2.3,0.4-4.8v-37L64.8,214L64.8,214z"/>
	<path class="st69" d="M97.5,229.2H85.4v-3.7c0-1.7-0.2-2.8-0.5-3.3s-0.8-0.7-1.5-0.7c-0.8,0-1.4,0.3-1.8,1
		c-0.4,0.6-0.6,1.6-0.6,2.9c0,1.7,0.2,2.9,0.7,3.8c0.4,0.8,1.7,1.9,3.7,3.1c5.8,3.4,9.5,6.3,11,8.5s2.3,5.8,2.3,10.7
		c0,3.6-0.4,6.2-1.3,7.9c-0.8,1.7-2.5,3.1-4.8,4.3c-2.4,1.1-5.2,1.7-8.4,1.7c-3.5,0-6.5-0.7-8.9-2c-2.5-1.3-4.1-3-4.8-5
		c-0.8-2-1.1-4.9-1.1-8.7v-3.3h12.1v6.1c0,1.9,0.2,3.1,0.5,3.6s0.9,0.8,1.8,0.8s1.5-0.3,1.9-1c0.4-0.7,0.6-1.7,0.6-3
		c0-3-0.4-4.9-1.2-5.8c-0.8-0.9-2.9-2.4-6.1-4.6c-3.2-2.1-5.4-3.7-6.4-4.7c-1.1-1-1.9-2.3-2.6-4s-1-3.9-1-6.6c0-3.8,0.5-6.6,1.5-8.4
		c1-1.8,2.6-3.2,4.8-4.2c2.2-1,4.8-1.5,7.9-1.5c3.4,0,6.3,0.5,8.7,1.6s4,2.5,4.7,4.1s1.2,4.5,1.2,8.5v1.9H97.5z"/>
	<path class="st69" d="M130.3,229.2h-12.1v-3.7c0-1.7-0.2-2.8-0.5-3.3s-0.8-0.7-1.5-0.7c-0.8,0-1.4,0.3-1.8,1
		c-0.4,0.6-0.6,1.6-0.6,2.9c0,1.7,0.2,2.9,0.7,3.8c0.4,0.8,1.7,1.9,3.7,3.1c5.8,3.4,9.5,6.3,11,8.5s2.3,5.8,2.3,10.7
		c0,3.6-0.4,6.2-1.3,7.9s-2.5,3.1-4.8,4.3c-2.4,1.1-5.2,1.7-8.4,1.7c-3.5,0-6.5-0.7-8.9-2s-4.1-3-4.8-5c-0.8-2-1.1-4.9-1.1-8.7v-3.3
		h12.1v6.1c0,1.9,0.2,3.1,0.5,3.6s0.9,0.8,1.8,0.8s1.5-0.3,1.9-1c0.4-0.7,0.6-1.7,0.6-3c0-3-0.4-4.9-1.2-5.8
		c-0.8-0.9-2.9-2.4-6.1-4.6c-3.2-2.1-5.4-3.7-6.4-4.7s-1.9-2.3-2.6-4s-1-3.9-1-6.6c0-3.8,0.5-6.6,1.5-8.4c1-1.8,2.6-3.2,4.8-4.2
		c2.2-1,4.8-1.5,7.9-1.5c3.4,0,6.3,0.5,8.7,1.6c2.4,1.1,4,2.5,4.7,4.1s1.2,4.5,1.2,8.5v1.9H130.3z"/>
	<path class="st69" d="M135.5,214h9.2c6.2,0,10.3,0.2,12.5,0.7s4,1.7,5.3,3.6s2.1,5.1,2.1,9.3c0,3.9-0.5,6.5-1.5,7.9
		c-1,1.3-2.9,2.1-5.7,2.4c2.6,0.6,4.3,1.5,5.2,2.6s1.4,2.1,1.7,3c0.2,0.9,0.3,3.4,0.3,7.4v13.2h-12.1v-16.7c0-2.7-0.2-4.3-0.6-5
		c-0.4-0.6-1.5-1-3.3-1V264h-13L135.5,214L135.5,214z M148.5,222.6v11.2c1.5,0,2.5-0.2,3.1-0.6c0.6-0.4,0.9-1.7,0.9-3.9v-2.8
		c0-1.6-0.3-2.6-0.9-3.1C151.1,222.8,150,222.6,148.5,222.6z"/>
</g>
<g class="st68">
	<path class="st69" d="M169.7,21.3v5.3c0,1.2-0.1,2.1-0.2,2.6c-0.1,0.5-0.4,1.1-0.8,1.5s-0.9,0.8-1.5,1c-0.6,0.2-1.2,0.3-1.9,0.3
		c-0.9,0-1.7-0.1-2.4-0.3s-1.1-0.6-1.5-1s-0.6-0.9-0.8-1.5s-0.2-1.3-0.2-2.4v-5.5c0-1.5,0.1-2.5,0.4-3.3c0.2-0.7,0.7-1.3,1.5-1.7
		c0.7-0.4,1.6-0.7,2.7-0.7c0.9,0,1.6,0.2,2.3,0.5s1.2,0.7,1.5,1.1c0.3,0.4,0.6,0.9,0.7,1.5C169.6,19.2,169.7,20.1,169.7,21.3z
		 M165.8,20c0-0.8,0-1.4-0.1-1.6c-0.1-0.2-0.3-0.3-0.6-0.3c-0.3,0-0.5,0.1-0.6,0.3c-0.1,0.2-0.1,0.7-0.1,1.6v7.7
		c0,0.9,0,1.5,0.1,1.7s0.3,0.3,0.6,0.3s0.5-0.1,0.6-0.3c0.1-0.2,0.1-0.7,0.1-1.5V20z"/>
	<path class="st69" d="M171.1,27.6h3.9c0,0.7,0,1.2,0,1.4s0.1,0.4,0.2,0.5c0.1,0.1,0.3,0.2,0.6,0.2c0.2,0,0.4-0.1,0.5-0.2
		c0.1-0.1,0.2-0.3,0.2-0.5c0-0.2,0-0.6,0-1.2v-2.5c-0.2,0.4-0.5,0.7-0.9,1s-0.9,0.3-1.5,0.3c-0.7,0-1.4-0.2-1.9-0.6
		c-0.6-0.4-0.9-0.9-1.1-1.4c-0.2-0.5-0.2-1.3-0.2-2.2v-1.3c0-1.1,0-1.9,0.1-2.5s0.3-1,0.7-1.5c0.4-0.5,0.9-0.8,1.5-1.1
		s1.4-0.4,2.2-0.4c1.1,0,1.9,0.1,2.6,0.4c0.7,0.3,1.2,0.7,1.6,1.3s0.6,1.1,0.6,1.7s0.1,1.8,0.1,3.5v2.2c0,1.9,0,3.1-0.1,3.8
		c-0.1,0.6-0.3,1.2-0.7,1.8s-0.9,1-1.6,1.3s-1.5,0.4-2.4,0.4c-1.1,0-2-0.2-2.7-0.5c-0.7-0.4-1.2-0.9-1.5-1.5
		C171.3,29.4,171.1,28.5,171.1,27.6z M175.1,22.6c0,0.7,0.1,1.1,0.3,1.2c0.2,0.2,0.3,0.2,0.5,0.2c0.3,0,0.5-0.1,0.6-0.3
		s0.2-0.6,0.2-1.2v-2.9c0-0.7-0.1-1.2-0.2-1.4c-0.1-0.2-0.3-0.3-0.6-0.3c-0.2,0-0.3,0.1-0.5,0.2c-0.2,0.2-0.3,0.6-0.3,1.3V22.6z"/>
</g>
</svg>
