<svg id="Слой_1" data-name="Слой 1" xmlns="http://www.w3.org/2000/svg" viewBox="0 0 195.59 280.63"><defs><style>.cls-1{fill:#91d1dd;}.cls-2{fill:#eb5a53;}.cls-3{fill:#1a1a1a;}.cls-20,.cls-21,.cls-4{fill:#fff;}.cls-5{fill:#ee6f4d;}.cls-6{fill:#fabe7d;}.cls-7{fill:#44b1e6;}.cls-8{fill:#ea4f3d;}.cls-9{fill:#df1f1d;}.cls-10{fill:#f39673;}.cls-11{fill:#298bcc;}.cls-12{fill:#4eb9eb;}.cls-13{fill:#026196;}.cls-14{fill:#bdbdbd;}.cls-15{fill:#9c9c9c;}.cls-16{fill:#a3daf4;}.cls-17{fill:#eab170;}.cls-18{fill:#badbe9;}.cls-19{fill:#c0e4ef;}.cls-20{font-size:32.38px;}.cls-20,.cls-21{font-family:Impact;}.cls-21{font-size:20px;}</style></defs><rect class="cls-1" x="-12.92" y="-16.03" width="488.89" height="302.56"/><path class="cls-2" d="M77.92,111.43c4.75-8.23,9.32-7.78,11.83-6.33s5.18,5.18.43,13.41S75.93,136.86,72.54,134.9s.62-15.24,5.38-23.47Zm0,0"/><path class="cls-2" d="M46,60.79c7.54-5.79,11.59-3.62,13.35-1.33S62.14,66.24,54.6,72,34.41,83.52,32,80.41,38.44,66.57,46,60.79Zm0,0"/><path class="cls-2" d="M151.05,74.76c-9.51,0-11.41-4.18-11.41-7.08s1.9-7.08,11.41-7.08,23,3.17,23,7.08-13.51,7.08-23,7.08Zm0,0"/><path class="cls-3" d="M156.29,62.87a57.21,57.21,0,0,1,9.29,1.71,23,23,0,0,1,5.2,2A4.11,4.11,0,0,1,172,67.68a3.83,3.83,0,0,1-1.26,1.06,23,23,0,0,1-5.2,2.05,58.32,58.32,0,0,1-9.29,1.7v4a60.77,60.77,0,0,0,10.36-1.88,25.42,25.42,0,0,0,6.16-2.46c1.67-1,3.22-2.33,3.22-4.45s-1.55-3.45-3.22-4.45a25.83,25.83,0,0,0-6.16-2.45,60.77,60.77,0,0,0-10.36-1.89Zm0-4"/><path class="cls-3" d="M137.67,67.68a8,8,0,0,0,2.83,6.13c2.15,1.82,5.5,2.93,10.55,2.93a56.47,56.47,0,0,0,6.36-.39v-4a53.26,53.26,0,0,1-6.36.42c-4.47,0-6.81-1-8-2a4.09,4.09,0,0,1,0-6.23c1.18-1,3.52-2,8-2a53.26,53.26,0,0,1,6.36.42V59a56.4,56.4,0,0,0-6.36-.38c-5.05,0-8.4,1.1-10.55,2.92a8,8,0,0,0-2.83,6.13Zm0,0"/><path class="cls-3" d="M60.9,58.26a8.06,8.06,0,0,0-6-3.14c-2.81-.13-6.15,1-10.14,4.1A56.85,56.85,0,0,0,40,63.4l2.42,3.16a54.19,54.19,0,0,1,4.8-4.2c3.54-2.72,6-3.37,7.55-3.29A4.1,4.1,0,0,1,58.52,64c-.33,1.52-1.59,3.73-5.13,6.44A51.93,51.93,0,0,1,48.09,74l2.42,3.16a56.7,56.7,0,0,0,5.29-3.57c4-3.07,6-6,6.58-8.74a8,8,0,0,0-1.48-6.59Zm0,0"/><path class="cls-3" d="M49.06,73.41a58.41,58.41,0,0,1-8.42,4.31,22.53,22.53,0,0,1-5.37,1.54,4.11,4.11,0,0,1-1.64-.07A4,4,0,0,1,34,77.58a22.81,22.81,0,0,1,2.89-4.79,55.68,55.68,0,0,1,6.33-7l-2.42-3.16a61.64,61.64,0,0,0-7.08,7.8,26,26,0,0,0-3.39,5.7c-.72,1.81-1.14,3.82.15,5.5s3.34,1.79,5.27,1.57a25.62,25.62,0,0,0,6.38-1.81,60.29,60.29,0,0,0,9.37-4.81Zm2.42,3.16"/><path class="cls-3" d="M90.73,103.39a8,8,0,0,0-6.72-.61c-2.65,1-5.28,3.3-7.8,7.67a58.25,58.25,0,0,0-2.86,5.7l3.45,2a53.47,53.47,0,0,1,2.83-5.72c2.23-3.86,4.26-5.4,5.71-5.92a3.78,3.78,0,0,1,3.42.31,3.82,3.82,0,0,1,2,2.8c.28,1.53,0,4-2.27,7.91a53.37,53.37,0,0,1-3.55,5.31l3.45,2a55.46,55.46,0,0,0,3.52-5.32c2.52-4.37,3.24-7.83,2.74-10.59a8,8,0,0,0-3.9-5.52Zm0,0"/><path class="cls-3" d="M85.59,121.92a57.38,57.38,0,0,1-6.12,7.19,22.9,22.9,0,0,1-4.38,3.49,4.34,4.34,0,0,1-1.54.56,4,4,0,0,1-.29-1.62,22.89,22.89,0,0,1,.83-5.53,57.47,57.47,0,0,1,3.17-8.9l-3.45-2A61.2,61.2,0,0,0,70.26,125a26,26,0,0,0-1,6.57c0,1.94.41,4,2.24,5s3.77.38,5.47-.56a26.37,26.37,0,0,0,5.21-4.11,61.51,61.51,0,0,0,6.81-8Zm3.45,2"/><path class="cls-2" d="M113.7,111.43c4.75-8.23,9.32-7.78,11.83-6.33s5.18,5.18.43,13.41-14.25,18.35-17.64,16.39.63-15.24,5.38-23.47Zm0,0"/><path class="cls-3" d="M121.37,121.92a57.38,57.38,0,0,1-6.12,7.19,23.2,23.2,0,0,1-4.37,3.49,4.35,4.35,0,0,1-1.55.56,4.24,4.24,0,0,1-.29-1.62,22.89,22.89,0,0,1,.83-5.53,57.47,57.47,0,0,1,3.17-8.9l-3.45-2A62.16,62.16,0,0,0,106,125a26,26,0,0,0-1,6.57c0,1.94.41,4,2.24,5s3.77.38,5.47-.56a26.37,26.37,0,0,0,5.21-4.11,61.51,61.51,0,0,0,6.81-8Zm3.45,2"/><path class="cls-3" d="M126.51,103.39a8,8,0,0,0-6.72-.61c-2.65,1-5.28,3.3-7.8,7.67a56.08,56.08,0,0,0-2.85,5.7l3.45,2a51.65,51.65,0,0,1,2.82-5.72c2.23-3.86,4.26-5.4,5.71-5.92a4.09,4.09,0,0,1,5.4,3.11c.28,1.53,0,4-2.27,7.91a51.68,51.68,0,0,1-3.55,5.31l3.45,2a55.46,55.46,0,0,0,3.52-5.32c2.52-4.37,3.24-7.83,2.74-10.59a8,8,0,0,0-3.9-5.52Zm0,0"/><path class="cls-2" d="M64.28,32c9.7-5.36,15,1.61,39,1.35,22-.23,26.61-6.15,35.52-1.35,15.1,8.15,15.44,32.47,15.44,35.53,0,2.18-.27,28.39-15.44,35.53-10.14,4.77-15.49-4.36-36-4.65-21.78-.3-27.79,9.85-38.57,4.65C49.1,95.74,48.84,69.76,48.84,67.53,48.85,64.47,49.2,40.35,64.28,32ZM48.84,67.53"/><path class="cls-4" d="M101.21,16.05A54.3,54.3,0,0,0,50,52.32H152.37a54.34,54.34,0,0,0-51.16-36.27Zm0,0"/><path class="cls-4" d="M104,17.29a50.25,50.25,0,0,0-47.83,35h95.7a50.25,50.25,0,0,0-47.87-35Zm0,0"/><path class="cls-4" d="M52.09,87.47a56.46,56.46,0,0,0,9.21,15A52.4,52.4,0,0,0,86.09,119a50.92,50.92,0,0,0,15.08,2.09,55,55,0,0,0,26.87-7.7A63.38,63.38,0,0,0,152.8,87.47Zm100.71,0"/><path class="cls-4" d="M150.1,87.56m-94.85,0a52.14,52.14,0,0,0,94.85,0Z"/><path class="cls-4" d="M105.07,103h-.27l-.12,0-.11,0-.11,0-.11,0-.1,0-.11,0-.1,0-.1.06-.1.06-.1.06-.09.07-.09.07a.6.6,0,0,1-.08.08.6.6,0,0,0-.08.08l-.08.09-.07.08a.61.61,0,0,1-.07.1l-.06.09a.47.47,0,0,0-.05.1l-.06.1a1,1,0,0,1,0,.1,1.17,1.17,0,0,1,0,.11.88.88,0,0,1,0,.15v0a.36.36,0,0,0,0,.1l0,.11s0,.08,0,.12,0,.07,0,.11v.31s0,.07,0,.11,0,.08,0,.11l0,.12a.52.52,0,0,0,0,.11.76.76,0,0,0,0,.11.42.42,0,0,0,0,.1.49.49,0,0,0,0,.11.47.47,0,0,0,0,.1.31.31,0,0,0,0,.1l.06.1.06.1.07.09a.6.6,0,0,0,.08.08l.07.09a.3.3,0,0,1,.08.08l.09.07.09.07.09.07.1.06.09.06.11.05.1,0,.11,0,.15.05,0,0h0l.11,0,.11,0,.11,0H105a.2.2,0,0,0,.11,0h.28l.11,0,.11,0,.11,0,.11,0,.11,0,.1,0,.11,0,.1-.06.09-.06.1-.06.09-.07.09-.07.08-.08.08-.08a.6.6,0,0,1,.08-.08l.07-.09a.86.86,0,0,0,.07-.1l.06-.09,0-.1.06-.1a1,1,0,0,1,0-.1,1.17,1.17,0,0,1,0-.11.88.88,0,0,1,.05-.15v0a.36.36,0,0,0,0-.1l0-.11s0-.08,0-.12,0-.07,0-.11v-.31a.52.52,0,0,0,0-.11s0-.08,0-.11a.5.5,0,0,1,0-.12l0-.11,0-.1a.76.76,0,0,1,0-.11l0-.11a614645685432.14,614645685432.14,0,0,1-.1-.2l-.06-.1-.06-.09a.86.86,0,0,1-.07-.1l-.07-.08-.08-.09-.08-.08-.09-.07-.09-.08-.09-.06-.09-.06-.1-.06-.1,0-.11,0-.1,0-.15-.05,0,0h0l-.1,0-.11,0h-.12l-.11,0h-.15Zm0,0"/><path class="cls-4" d="M105.07,103h-.16l-.11,0-.12,0-.11,0-.11,0-.11,0-.1,0-.11,0-.1,0-.1,0-.1.06-.1.07-.09.06-.09.08-.08.08a1273810334505.35,1273810334505.35,0,0,1-.16.16l-.07.09-.07.09-.06.1a.31.31,0,0,0-.05.1l-.06.1,0,.1,0,.11a.88.88,0,0,1,0,.15v0a.3.3,0,0,0,0,.1l0,.11s0,.07,0,.11,0,.08,0,.12v.3s0,.08,0,.12,0,.07,0,.11l0,.11a.5.5,0,0,0,0,.12.42.42,0,0,0,0,.1.36.36,0,0,0,0,.11.49.49,0,0,0,0,.11.93.93,0,0,0,0,.1l0,.1.06.1.06.09.07.09.08.09.07.08.08.08.09.08.09.07.09.07.1.06.09.06.11.05.1,0,.11,0,.15.05h0l.11,0,.11,0,.11,0h.54l.11,0,.11,0,.11,0,.11,0,.11,0,.1,0,.11,0,.1-.06.09-.06.1-.06.09-.07.09-.07.08-.08.08-.08a.6.6,0,0,1,.08-.08l.07-.09a.86.86,0,0,0,.07-.1l.06-.09,0-.1.06-.1a1,1,0,0,1,0-.1,1.17,1.17,0,0,1,0-.11.88.88,0,0,1,.05-.15v0a.36.36,0,0,0,0-.1l0-.11s0-.08,0-.12,0-.07,0-.11v-.31a.52.52,0,0,0,0-.11s0-.08,0-.11a.5.5,0,0,1,0-.12l0-.11,0-.1a.76.76,0,0,1,0-.11l0-.11a614645685432.14,614645685432.14,0,0,1-.1-.2l-.06-.1-.06-.09a.86.86,0,0,1-.07-.1l-.07-.08-.08-.09-.08-.08-.09-.07-.09-.08-.09-.06-.09-.06-.1-.06-.1,0-.11,0-.1,0-.15-.05,0,0h0l-.1,0-.11,0h-.12l-.11,0h-.15Zm0,0"/><path class="cls-4" d="M105.07,103h-.16l-.11,0-.12,0-.11,0-.11,0-.11,0-.1,0-.11,0-.1,0-.1,0-.1.06-.1.07-.09.06-.09.08-.08.08a1273810334505.35,1273810334505.35,0,0,1-.16.16l-.07.09-.07.09-.06.1a.31.31,0,0,0-.05.1l-.06.1,0,.1,0,.11a.88.88,0,0,1,0,.15v0a.3.3,0,0,0,0,.1l0,.11s0,.07,0,.11,0,.08,0,.12v.3s0,.08,0,.12,0,.07,0,.11l0,.11a.5.5,0,0,0,0,.12.42.42,0,0,0,0,.1.36.36,0,0,0,0,.11.49.49,0,0,0,0,.11.93.93,0,0,0,0,.1l0,.1.06.1.06.09.07.09.08.09.07.08.08.08.09.08.09.07.09.07.1.06.09.06.11.05.1,0,.11,0,.15.05h0l.11,0,.11,0,.11,0h.54l.11,0,.11,0,.11,0,.11,0,.11,0,.1,0,.11,0,.1-.06.09-.06.1-.06.09-.07.09-.07.08-.08.08-.08a.6.6,0,0,1,.08-.08l.07-.09a.86.86,0,0,0,.07-.1l.06-.09,0-.1.06-.1a1,1,0,0,1,0-.1,1.17,1.17,0,0,1,0-.11.88.88,0,0,1,.05-.15v0a.36.36,0,0,0,0-.1l0-.11s0-.08,0-.12,0-.07,0-.11v-.31a.52.52,0,0,0,0-.11s0-.08,0-.11a.5.5,0,0,1,0-.12l0-.11,0-.1a.76.76,0,0,1,0-.11l0-.11a614645685432.14,614645685432.14,0,0,1-.1-.2l-.06-.1-.06-.09a.86.86,0,0,1-.07-.1l-.07-.08-.08-.09-.08-.08-.09-.07-.09-.08-.09-.06-.09-.06-.1-.06-.1,0-.11,0-.1,0-.15-.05,0,0h0l-.1,0-.11,0h-.12l-.11,0h-.15Zm0,0"/><path class="cls-4" d="M105.07,103h-.16l-.11,0-.12,0-.11,0-.11,0-.11,0-.1,0-.11,0-.1,0-.1,0-.1.06-.1.07-.09.06-.09.08-.08.08a1273810334505.35,1273810334505.35,0,0,1-.16.16l-.07.09-.07.09-.06.1a.31.31,0,0,0-.05.1l-.06.1,0,.1,0,.11a.88.88,0,0,1,0,.15v0a.3.3,0,0,0,0,.1l0,.11s0,.07,0,.11,0,.08,0,.12v.3s0,.08,0,.12,0,.07,0,.11l0,.11a.5.5,0,0,0,0,.12.42.42,0,0,0,0,.1.36.36,0,0,0,0,.11.49.49,0,0,0,0,.11.93.93,0,0,0,0,.1l0,.1.06.1.06.09.07.09.08.09.07.08.08.08.09.08.09.07.09.07.1.06.09.06.11.05.1,0,.11,0,.15.05h0l.11,0,.11,0,.11,0h.54l.11,0,.11,0,.11,0,.11,0,.11,0,.1,0,.11,0,.1-.06.09-.06.1-.06.09-.07.09-.07.08-.08.08-.08a.6.6,0,0,1,.08-.08l.07-.09a.86.86,0,0,0,.07-.1l.06-.09,0-.1.06-.1a1,1,0,0,1,0-.1,1.17,1.17,0,0,1,0-.11.88.88,0,0,1,.05-.15v0a.36.36,0,0,0,0-.1l0-.11s0-.08,0-.12,0-.07,0-.11v-.31a.52.52,0,0,0,0-.11s0-.08,0-.11a.5.5,0,0,1,0-.12l0-.11,0-.1a.76.76,0,0,1,0-.11l0-.11a614645685432.14,614645685432.14,0,0,1-.1-.2l-.06-.1-.06-.09a.86.86,0,0,1-.07-.1l-.07-.08-.08-.09-.08-.08-.09-.07-.09-.08-.09-.06-.09-.06-.1-.06-.1,0-.11,0-.1,0-.15-.05,0,0h0l-.1,0-.11,0h-.12l-.11,0h-.15Zm0,0"/><path class="cls-4" d="M105.07,103h-.16l-.11,0-.12,0-.11,0-.11,0-.11,0-.1,0-.11,0-.1,0-.1,0-.1.06-.1.07-.09.06-.09.08-.08.08a1273810334505.35,1273810334505.35,0,0,1-.16.16l-.07.09-.07.09-.06.1a.31.31,0,0,0-.05.1l-.06.1,0,.1,0,.11a.88.88,0,0,1,0,.15v0a.3.3,0,0,0,0,.1l0,.11s0,.07,0,.11,0,.08,0,.12v.3s0,.08,0,.12,0,.07,0,.11l0,.11a.5.5,0,0,0,0,.12.42.42,0,0,0,0,.1.36.36,0,0,0,0,.11.49.49,0,0,0,0,.11.93.93,0,0,0,0,.1l0,.1.06.1.06.09.07.09.08.09.07.08.08.08.09.08.09.07.09.07.1.06.09.06.11.05.1,0,.11,0,.15.05h0l.11,0,.11,0,.11,0h.54l.11,0,.11,0,.11,0,.11,0,.11,0,.1,0,.11,0,.1-.06.09-.06.1-.06.09-.07.09-.07.08-.08.08-.08a.6.6,0,0,1,.08-.08l.07-.09a.86.86,0,0,0,.07-.1l.06-.09,0-.1.06-.1a1,1,0,0,1,0-.1,1.17,1.17,0,0,1,0-.11.88.88,0,0,1,.05-.15v0a.36.36,0,0,0,0-.1l0-.11s0-.08,0-.12,0-.07,0-.11v-.31a.52.52,0,0,0,0-.11s0-.08,0-.11a.5.5,0,0,1,0-.12l0-.11,0-.1a.76.76,0,0,1,0-.11l0-.11a614645685432.14,614645685432.14,0,0,1-.1-.2l-.06-.1-.06-.09a.86.86,0,0,1-.07-.1l-.07-.08-.08-.09-.08-.08-.09-.07-.09-.08-.09-.06-.09-.06-.1-.06-.1,0-.11,0-.1,0-.15-.05,0,0h0l-.1,0-.11,0h-.12l-.11,0h-.15Zm0,0"/><path class="cls-4" d="M105.07,103h-.16l-.11,0-.12,0-.11,0-.11,0-.11,0-.1,0-.11,0-.1,0-.1,0-.1.06-.1.07-.09.06-.09.08-.08.08a1273810334505.35,1273810334505.35,0,0,1-.16.16l-.07.09-.07.09-.06.1a.31.31,0,0,0-.05.1l-.06.1,0,.1,0,.11a.88.88,0,0,1,0,.15v0a.3.3,0,0,0,0,.1l0,.11s0,.07,0,.11,0,.08,0,.12v.3s0,.08,0,.12,0,.07,0,.11l0,.11a.5.5,0,0,0,0,.12.42.42,0,0,0,0,.1.36.36,0,0,0,0,.11.49.49,0,0,0,0,.11.93.93,0,0,0,0,.1l0,.1.06.1.06.09.07.09.08.09.07.08.08.08.09.08.09.07.09.07.1.06.09.06.11.05.1,0,.11,0,.15.05h0l.11,0,.11,0,.11,0h.54l.11,0,.11,0,.11,0,.11,0,.11,0,.1,0,.11,0,.1-.06.09-.06.1-.06.09-.07.09-.07.08-.08.08-.08a.6.6,0,0,1,.08-.08l.07-.09a.86.86,0,0,0,.07-.1l.06-.09,0-.1.06-.1a1,1,0,0,1,0-.1,1.17,1.17,0,0,1,0-.11.88.88,0,0,1,.05-.15v0a.36.36,0,0,0,0-.1l0-.11s0-.08,0-.12,0-.07,0-.11v-.31a.52.52,0,0,0,0-.11s0-.08,0-.11a.5.5,0,0,1,0-.12l0-.11,0-.1a.76.76,0,0,1,0-.11l0-.11a614645685432.14,614645685432.14,0,0,1-.1-.2l-.06-.1-.06-.09a.86.86,0,0,1-.07-.1l-.07-.08-.08-.09-.08-.08-.09-.07-.09-.08-.09-.06-.09-.06-.1-.06-.1,0-.11,0-.1,0-.15-.05,0,0h0l-.1,0-.11,0h-.12l-.11,0h-.15Zm0,0"/><path class="cls-4" d="M105.07,103h-.16l-.11,0-.12,0-.11,0-.11,0-.11,0-.1,0-.11,0-.1,0-.1,0-.1.06-.1.07-.09.06-.09.08-.08.08a1273810334505.35,1273810334505.35,0,0,1-.16.16l-.07.09-.07.09-.06.1a.31.31,0,0,0-.05.1l-.06.1,0,.1,0,.11a.88.88,0,0,1,0,.15v0a.3.3,0,0,0,0,.1l0,.11s0,.07,0,.11,0,.08,0,.12v.3s0,.08,0,.12,0,.07,0,.11l0,.11a.5.5,0,0,0,0,.12.42.42,0,0,0,0,.1.36.36,0,0,0,0,.11.49.49,0,0,0,0,.11.93.93,0,0,0,0,.1l0,.1.06.1.06.09.07.09.08.09.07.08.08.08.09.08.09.07.09.07.1.06.09.06.11.05.1,0,.11,0,.15.05h0l.11,0,.11,0,.11,0h.54l.11,0,.11,0,.11,0,.11,0,.11,0,.1,0,.11,0,.1-.06.09-.06.1-.06.09-.07.09-.07.08-.08.08-.08a.6.6,0,0,1,.08-.08l.07-.09a.86.86,0,0,0,.07-.1l.06-.09,0-.1.06-.1a1,1,0,0,1,0-.1,1.17,1.17,0,0,1,0-.11.88.88,0,0,1,.05-.15v0a.36.36,0,0,0,0-.1l0-.11s0-.08,0-.12,0-.07,0-.11v-.31a.52.52,0,0,0,0-.11s0-.08,0-.11a.5.5,0,0,1,0-.12l0-.11,0-.1a.76.76,0,0,1,0-.11l0-.11a614645685432.14,614645685432.14,0,0,1-.1-.2l-.06-.1-.06-.09a.86.86,0,0,1-.07-.1l-.07-.08-.08-.09-.08-.08-.09-.07-.09-.08-.09-.06-.09-.06-.1-.06-.1,0-.11,0-.1,0-.15-.05,0,0h0l-.1,0-.11,0h-.12l-.11,0h-.15Zm0,0"/><path class="cls-4" d="M105.07,103h-.16l-.11,0-.12,0-.11,0-.11,0-.11,0-.1,0-.11,0-.1,0-.1,0-.1.06-.1.07-.09.06-.09.08-.08.08a1273810334505.35,1273810334505.35,0,0,1-.16.16l-.07.09-.07.09-.06.1a.31.31,0,0,0-.05.1l-.06.1,0,.1,0,.11a.88.88,0,0,1,0,.15v0a.3.3,0,0,0,0,.1l0,.11s0,.07,0,.11,0,.08,0,.12v.3s0,.08,0,.12,0,.07,0,.11l0,.11a.5.5,0,0,0,0,.12.42.42,0,0,0,0,.1.36.36,0,0,0,0,.11.49.49,0,0,0,0,.11.93.93,0,0,0,0,.1l0,.1.06.1.06.09.07.09.08.09.07.08.08.08.09.08.09.07.09.07.1.06.09.06.11.05.1,0,.11,0,.15.05h0l.11,0,.11,0,.11,0h.54l.11,0,.11,0,.11,0,.11,0,.11,0,.1,0,.11,0,.1-.06.09-.06.1-.06.09-.07.09-.07.08-.08.08-.08a.6.6,0,0,1,.08-.08l.07-.09a.86.86,0,0,0,.07-.1l.06-.09,0-.1.06-.1a1,1,0,0,1,0-.1,1.17,1.17,0,0,1,0-.11.88.88,0,0,1,.05-.15v0a.36.36,0,0,0,0-.1l0-.11s0-.08,0-.12,0-.07,0-.11v-.31a.52.52,0,0,0,0-.11s0-.08,0-.11a.5.5,0,0,1,0-.12l0-.11,0-.1a.76.76,0,0,1,0-.11l0-.11a614645685432.14,614645685432.14,0,0,1-.1-.2l-.06-.1-.06-.09a.86.86,0,0,1-.07-.1l-.07-.08-.08-.09-.08-.08-.09-.07-.09-.08-.09-.06-.09-.06-.1-.06-.1,0-.11,0-.1,0-.15-.05,0,0h0l-.1,0-.11,0h-.12l-.11,0h-.15Zm0,0"/><path class="cls-4" d="M105.07,103h-.16l-.11,0-.12,0-.11,0-.11,0-.11,0-.1,0-.11,0-.1,0-.1,0-.1.06-.1.07-.09.06-.09.08-.08.08a1273810334505.35,1273810334505.35,0,0,1-.16.16l-.07.09-.07.09-.06.1a.31.31,0,0,0-.05.1l-.06.1,0,.1,0,.11a.88.88,0,0,1,0,.15v0a.3.3,0,0,0,0,.1l0,.11s0,.07,0,.11,0,.08,0,.12v.3s0,.08,0,.12,0,.07,0,.11l0,.11a.5.5,0,0,0,0,.12.42.42,0,0,0,0,.1.36.36,0,0,0,0,.11.49.49,0,0,0,0,.11.93.93,0,0,0,0,.1l0,.1.06.1.06.09.07.09.08.09.07.08.08.08.09.08.09.07.09.07.1.06.09.06.11.05.1,0,.11,0,.15.05h0l.11,0,.11,0,.11,0h.54l.11,0,.11,0,.11,0,.11,0,.11,0,.1,0,.11,0,.1-.06.09-.06.1-.06.09-.07.09-.07.08-.08.08-.08a.6.6,0,0,1,.08-.08l.07-.09a.86.86,0,0,0,.07-.1l.06-.09,0-.1.06-.1a1,1,0,0,1,0-.1,1.17,1.17,0,0,1,0-.11.88.88,0,0,1,.05-.15v0a.36.36,0,0,0,0-.1l0-.11s0-.08,0-.12,0-.07,0-.11v-.31a.52.52,0,0,0,0-.11s0-.08,0-.11a.5.5,0,0,1,0-.12l0-.11,0-.1a.76.76,0,0,1,0-.11l0-.11a614645685432.14,614645685432.14,0,0,1-.1-.2l-.06-.1-.06-.09a.86.86,0,0,1-.07-.1l-.07-.08-.08-.09-.08-.08-.09-.07-.09-.08-.09-.06-.09-.06-.1-.06-.1,0-.11,0-.1,0-.15-.05,0,0h0l-.1,0-.11,0h-.12l-.11,0h-.15Zm0,0"/><path class="cls-4" d="M105.07,103h-.16l-.11,0-.12,0-.11,0-.11,0-.11,0-.1,0-.11,0-.1,0-.1,0-.1.06-.1.07-.09.06-.09.08-.08.08a1273810334505.35,1273810334505.35,0,0,1-.16.16l-.07.09-.07.09-.06.1a.31.31,0,0,0-.05.1l-.06.1,0,.1,0,.11a.88.88,0,0,1,0,.15v0a.3.3,0,0,0,0,.1l0,.11s0,.07,0,.11,0,.08,0,.12v.3s0,.08,0,.12,0,.07,0,.11l0,.11a.5.5,0,0,0,0,.12.42.42,0,0,0,0,.1.36.36,0,0,0,0,.11.49.49,0,0,0,0,.11.93.93,0,0,0,0,.1l0,.1.06.1.06.09.07.09.08.09.07.08.08.08.09.08.09.07.09.07.1.06.09.06.11.05.1,0,.11,0,.15.05h0l.11,0,.11,0,.11,0h.54l.11,0,.11,0,.11,0,.11,0,.11,0,.1,0,.11,0,.1-.06.09-.06.1-.06.09-.07.09-.07.08-.08.08-.08a.6.6,0,0,1,.08-.08l.07-.09a.86.86,0,0,0,.07-.1l.06-.09,0-.1.06-.1a1,1,0,0,1,0-.1,1.17,1.17,0,0,1,0-.11.88.88,0,0,1,.05-.15v0a.36.36,0,0,0,0-.1l0-.11s0-.08,0-.12,0-.07,0-.11v-.31a.52.52,0,0,0,0-.11s0-.08,0-.11a.5.5,0,0,1,0-.12l0-.11,0-.1a.76.76,0,0,1,0-.11l0-.11a614645685432.14,614645685432.14,0,0,1-.1-.2l-.06-.1-.06-.09a.86.86,0,0,1-.07-.1l-.07-.08-.08-.09-.08-.08-.09-.07-.09-.08-.09-.06-.09-.06-.1-.06-.1,0-.11,0-.1,0-.15-.05,0,0h0l-.1,0-.11,0h-.12l-.11,0h-.15Zm0,0"/><path class="cls-5" d="M4.57,191.83c-13.27,0-28.4-16.31-28.4-16.31S-8.7,159.2,4.57,159.2s19.65,7.31,19.65,16.32-6.38,16.31-19.65,16.31Zm0,0"/><path class="cls-6" d="M12.47,182.76c-5.89,0-12.61-7.24-12.61-7.24s6.72-7.24,12.61-7.24,8.72,3.24,8.72,7.24-2.83,7.24-8.72,7.24Zm0,0"/><path class="cls-3" d="M81.57,135c-1.94-.12-3.88-.18-5.8-.18-17.25,0-29.59,4.71-37.64,12s-12,17.29-12,28.65,3.95,21.34,12,28.65,20.39,12,37.64,12c1.92,0,3.86-.06,5.8-.18v6.34c-1.94.11-3.88.16-5.8.16-18.41,0-32.46-5.09-41.89-13.65s-14.07-20.49-14.07-33.33,4.63-24.78,14.07-33.34,23.48-13.65,41.89-13.65c1.92,0,3.86.06,5.8.16Zm0-6.34"/><path class="cls-3" d="M155.23,175.52c0,13.87-11.29,25.55-26.44,33.77A115.44,115.44,0,0,1,80.45,222.4v-6.33c15.88-.78,32.51-5.39,45.33-12.34,14.08-7.64,23.13-17.88,23.13-28.21s-9-20.57-23.13-28.22c-12.82-7-29.45-11.56-45.33-12.33v-6.33a115.14,115.14,0,0,1,48.34,13.11c15.15,8.22,26.44,19.89,26.44,33.77Zm0,0"/><path class="cls-7" d="M151.75,179.19a23.5,23.5,0,0,1-1.16,4.29c-7.6-20.4-43.18-35.85-74.82-35.85s-48.7,15.45-52.14,35.85c-.24-1.41-.41-2.84-.52-4.29C24.78,156.7,41.94,139,75.77,139s72.16,17.67,76,40.16Zm0,0"/><path class="cls-3" d="M60,134.37C51.47,121,34.69,118.91,25.49,118.84,30,124.18,36.3,133.17,38,145.1l-6.26.91c-2.32-16-15.26-27.69-15.26-27.69l-5.14-4.55,6.8-1S50.69,108,65.35,131Zm5.33-3.4"/><path class="cls-3" d="M65.35,220.06c-14.66,23-47.17,18.15-47.17,18.15l-6.8-1,5.14-4.54S29.46,221,31.78,205l6.26.91c-1.74,11.93-8,20.93-12.55,26.26,9.2-.07,26-2.11,34.53-15.53l5.33,3.4Zm0,0"/><path class="cls-8" d="M62.68,218.36c-13.38,21-44.07,16.72-44.07,16.72s13.77-12.2,16.3-29.6ZM34.91,205.48"/><path class="cls-9" d="M62.68,218.36a32.36,32.36,0,0,1-4.75,5.83c-10.23-1.67-18.71-5-25.46-9.53a42.23,42.23,0,0,0,2.44-9.18l27.77,12.88Zm0,0"/><path class="cls-8" d="M62.68,132.67C49.3,111.69,18.61,116,18.61,116s13.77,12.2,16.3,29.61ZM34.91,145.56"/><path class="cls-10" d="M59.05,134.36C48.94,119.71,30.13,118.12,21,118.29c-1.41-1.51-2.34-2.34-2.34-2.34s30.69-4.26,44.07,16.72Zm3.63-1.69"/><path class="cls-11" d="M75.77,219.34c35.65,0,76.3-19.62,76.3-43.82s-40.65-43.83-76.3-43.83S23,151.31,23,175.52s17.15,43.82,52.8,43.82Zm0,0"/><path class="cls-12" d="M149.22,171.83c-14.73-15.14-46.07-25.67-74.49-25.67-22.09,0-37.65,6.36-46.95,16.3C35.12,148.53,51,139,75.77,139c30,0,63.63,13.93,73.45,32.8Zm0,0"/><path class="cls-13" d="M102.93,180.28A21.92,21.92,0,1,1,81,158.35a21.89,21.89,0,0,1,21.92,21.93Zm0,0"/><path class="cls-13" d="M152.07,175.52c0,24.2-40.66,43.82-76.3,43.82-32.63,0-49.76-16.44-52.42-37.78l.29.32c7.59,14.38,24.55,24.25,51.4,24.25,31,0,65.48-13.13,77-31.16,0,.18,0,.36,0,.55Zm0,0"/><path class="cls-8" d="M152.07,175.52c0,14-13.71,26.56-32.19,34.58V140.93c18.48,8,32.19,20.53,32.19,34.59Zm0,0"/><path class="cls-8" d="M34.91,205.47C26.9,197.64,23,187.1,23,175.52s3.93-22.12,11.94-30Zm0-59.91"/><path class="cls-9" d="M152.07,175.52c0,14-13.71,26.56-32.19,34.58V197.68c14.37-5.56,26.28-13.49,32.17-22.71,0,.18,0,.36,0,.55Zm0,0"/><path class="cls-10" d="M149.22,171.83c-6.85-7-17.28-13.08-29.34-17.53v-6c13.47,5.85,24.41,14.08,29.34,23.56Zm0,0"/><path class="cls-9" d="M34.91,205.47a39.72,39.72,0,0,1-11.56-23.91l.29.31A39.2,39.2,0,0,0,34.91,195Zm0-10.51"/><path class="cls-3" d="M81.57,132.65c-1.94-.11-3.88-.17-5.8-.17-17.68,0-30.67,4.86-39.24,12.63S23.76,163.6,23.76,175.52s4.2,22.63,12.77,30.4,21.56,12.63,39.24,12.63c1.92,0,3.86-.06,5.8-.17V220c-1.94.11-3.88.17-5.8.17-18,0-31.38-4.95-40.3-13s-13.29-19.28-13.29-31.57S26.56,152,35.47,143.94s22.33-13,40.3-13c1.92,0,3.86.06,5.8.17Zm0-1.58"/><path class="cls-10" d="M34.91,156.4a41.51,41.51,0,0,0-7.13,6.06,38.21,38.21,0,0,1,7.13-9.56Zm0-3.5"/><rect class="cls-3" x="34.12" y="145.56" width="1.58" height="59.92"/><rect class="cls-3" x="119.09" y="140.93" width="1.58" height="69.18"/><path class="cls-14" d="M102.19,175.52A21.18,21.18,0,1,1,81,154.34a21.18,21.18,0,0,1,21.18,21.18Zm0,0"/><path class="cls-15" d="M102.19,175.52a21.18,21.18,0,0,1-42.36,0,22.57,22.57,0,0,1,.16-2.46,29.6,29.6,0,0,0,42,0,20,20,0,0,1,.17,2.45Zm0,0"/><path class="cls-16" d="M94.46,175.52A13.45,13.45,0,1,1,90.52,166a13.44,13.44,0,0,1,3.94,9.51Zm0,0"/><path class="cls-3" d="M62,133.09c-11.94-18.72-37.19-16.92-41.61-16.46,3,2.9,13.07,13.6,15.28,28.81l-1.56.23c-2.48-17-16-29.12-16-29.12l-1.29-1.14,1.7-.24s31.15-4.41,44.85,17.07Zm1.33-.85"/><path class="cls-3" d="M63.35,218.79c-13.7,21.49-44.85,17.07-44.85,17.07l-1.7-.23,1.29-1.14s13.56-12.07,16-29.13l1.56.23C33.48,220.8,23.4,231.5,20.41,234.41c4.42.45,29.67,2.25,41.61-16.47l1.33.85Zm0,0"/><path class="cls-3" d="M81.57,155.14H81a20.39,20.39,0,0,0,0,40.78h.56v1.58H81a22,22,0,0,1,0-43.94h.56Zm0-1.58"/><path class="cls-3" d="M81.57,162.88l-.56,0a12.66,12.66,0,0,0,0,25.31h.56v1.58H81a14.24,14.24,0,0,1,0-28.47h.56Zm0-1.59"/><path class="cls-4" d="M91.05,173.26a13.4,13.4,0,0,0-20.08,0,10.29,10.29,0,0,1,20.08,0Zm0,0"/><path class="cls-3" d="M95.25,175.52A14.25,14.25,0,0,1,81,189.75h-.56v-1.58H81a12.66,12.66,0,1,0,0-25.31l-.56,0v-1.59H81a14.25,14.25,0,0,1,14.24,14.24Zm0,0"/><path class="cls-3" d="M103,175.52a22,22,0,0,1-22,22h-.56V195.9H81a20.39,20.39,0,1,0,0-40.78h-.56v-1.59H81a22,22,0,0,1,22,22Zm0,0"/><path class="cls-3" d="M152.86,175.52c0,12.54-10.45,23.68-25.2,31.68A113.16,113.16,0,0,1,80.45,220v-1.58c16.29-.77,33.24-5.46,46.46-12.63,14.48-7.86,24.37-18.63,24.37-30.29s-9.89-22.44-24.37-30.3c-13.22-7.17-30.17-11.86-46.46-12.63V131a113.31,113.31,0,0,1,47.21,12.82c14.75,8,25.2,19.14,25.2,31.69Zm0,0"/><path class="cls-3" d="M108.91,11.22a13,13,0,0,0-4.54,1.17,9.53,9.53,0,0,1-3.49,1,9.64,9.64,0,0,1-3.49-1,9.94,9.94,0,0,0-12.14,2.14,9.6,9.6,0,0,1-2.92,2.19,9.65,9.65,0,0,1-3.64.2,11.21,11.21,0,0,0-6.41,1.22A11.28,11.28,0,0,0,68,23.08a9.56,9.56,0,0,1-2,3.05,9.69,9.69,0,0,1-3.36,1.44,11.22,11.22,0,0,0-5.6,3.34A11.2,11.2,0,0,0,54.74,37a9.72,9.72,0,0,1-.83,3.56,9.86,9.86,0,0,1-2.66,2.49,11.11,11.11,0,0,0-4.12,5.06,11.18,11.18,0,0,0-.1,6.53,9.84,9.84,0,0,1,.44,3.62,9.66,9.66,0,0,1-1.65,3.25,11.18,11.18,0,0,0-2.14,6.17,11.17,11.17,0,0,0,2.14,6.16,9.69,9.69,0,0,1,1.65,3.26A9.88,9.88,0,0,1,47,80.73a9.95,9.95,0,0,0,4.22,11.58,9.71,9.71,0,0,1,2.66,2.5,9.66,9.66,0,0,1,.83,3.55,9.93,9.93,0,0,0,7.92,9.44A9.69,9.69,0,0,1,66,109.24a9.68,9.68,0,0,1,2,3.05,10,10,0,0,0,10.68,6.17,9.65,9.65,0,0,1,3.64.2,9.71,9.71,0,0,1,2.92,2.18A10,10,0,0,0,97.39,123a9.7,9.7,0,0,1,3.49-1.06,9.59,9.59,0,0,1,3.49,1.06,10,10,0,0,0,12.15-2.15,9.71,9.71,0,0,1,2.92-2.18,9.65,9.65,0,0,1,3.64-.2,10,10,0,0,0,10.68-6.17,9.51,9.51,0,0,1,2-3.05,9.71,9.71,0,0,1,3.35-1.44A9.92,9.92,0,0,0,147,98.36a9.66,9.66,0,0,1,.83-3.55,9.71,9.71,0,0,1,2.66-2.5,9.95,9.95,0,0,0,4.22-11.58,9.66,9.66,0,0,1-.44-3.62A9.69,9.69,0,0,1,156,73.85a11.17,11.17,0,0,0,2.14-6.16A11.18,11.18,0,0,0,156,61.52a9.66,9.66,0,0,1-1.65-3.25,9.63,9.63,0,0,1,.44-3.62,11.18,11.18,0,0,0-.1-6.53,11.11,11.11,0,0,0-4.12-5.06,9.86,9.86,0,0,1-2.66-2.49A9.72,9.72,0,0,1,147,37a11.2,11.2,0,0,0-2.32-6.1,11.2,11.2,0,0,0-5.61-3.34,9.71,9.71,0,0,1-3.35-1.44,9.39,9.39,0,0,1-2-3.05,11.28,11.28,0,0,0-4.27-4.94,11.21,11.21,0,0,0-6.41-1.22,9.65,9.65,0,0,1-3.64-.2,9.6,9.6,0,0,1-2.92-2.19,11.2,11.2,0,0,0-5.7-3.18,9.07,9.07,0,0,0-1.91-.13Zm.81,6.35a5,5,0,0,1,2.51,1.6,14.38,14.38,0,0,0,5,3.49,14.57,14.57,0,0,0,6.11.57,5,5,0,0,1,3,.39A5,5,0,0,1,128.14,26a14.35,14.35,0,0,0,3.55,5,14.29,14.29,0,0,0,5.54,2.62A4.91,4.91,0,0,1,139.86,35a4.84,4.84,0,0,1,.9,2.83,14.57,14.57,0,0,0,1.62,5.92,14.32,14.32,0,0,0,4.31,4.36c1.19.91,1.72,1.39,2,2.19a5,5,0,0,1-.13,3,14.42,14.42,0,0,0-.49,6.11,14.4,14.4,0,0,0,2.55,5.58,4.94,4.94,0,0,1,1.14,2.75,4.94,4.94,0,0,1-1.14,2.74A14.4,14.4,0,0,0,148.08,76a14.41,14.41,0,0,0,.49,6.11,5,5,0,0,1,.13,3c-.29.81-.82,1.29-2,2.19a14.49,14.49,0,0,0-4.31,4.37,14.53,14.53,0,0,0-1.62,5.91,4.84,4.84,0,0,1-.9,2.83,4.91,4.91,0,0,1-2.63,1.38,12.15,12.15,0,0,0-9.09,7.63c-.69,1.33-1.07,1.93-1.81,2.35a5,5,0,0,1-3,.39,12.16,12.16,0,0,0-11.15,4.06,3.89,3.89,0,0,1-5.41,1,14.39,14.39,0,0,0-5.94-1.55A14.38,14.38,0,0,0,95,117.16a5,5,0,0,1-2.9.64,4.9,4.9,0,0,1-2.51-1.6,14.43,14.43,0,0,0-5.05-3.48,14.39,14.39,0,0,0-6.1-.58,4.93,4.93,0,0,1-3-.39c-.74-.42-1.12-1-1.81-2.35a14.32,14.32,0,0,0-3.55-5,14.33,14.33,0,0,0-5.54-2.63A3.89,3.89,0,0,1,61,97.56a14.41,14.41,0,0,0-1.63-5.91,14.49,14.49,0,0,0-4.31-4.37c-1.18-.9-1.71-1.38-2-2.19a4.88,4.88,0,0,1,.13-3A14.41,14.41,0,0,0,53.69,76a14.39,14.39,0,0,0-2.56-5.58A5,5,0,0,1,50,67.69a5,5,0,0,1,1.13-2.75,14.39,14.39,0,0,0,2.56-5.58,14.42,14.42,0,0,0-.49-6.11,4.88,4.88,0,0,1-.13-3c.29-.8.82-1.28,2-2.19a14.32,14.32,0,0,0,4.31-4.36A14.45,14.45,0,0,0,61,37.81,4.92,4.92,0,0,1,61.9,35a5,5,0,0,1,2.64-1.38A14.29,14.29,0,0,0,70.08,31a14.35,14.35,0,0,0,3.55-5,5,5,0,0,1,1.81-2.35,4.93,4.93,0,0,1,3-.39,14.52,14.52,0,0,0,6.1-.57,14.43,14.43,0,0,0,5.05-3.49,3.87,3.87,0,0,1,5.41-1,14.54,14.54,0,0,0,5.93,1.55,14.55,14.55,0,0,0,5.94-1.55,5,5,0,0,1,2.9-.65Zm0,0"/><path class="cls-3" d="M109,13.59a10.57,10.57,0,0,0-3.69,1,11.17,11.17,0,0,1-4.41,1.25,11.18,11.18,0,0,1-4.4-1.25,7.63,7.63,0,0,0-9.62,1.7,11.36,11.36,0,0,1-3.72,2.67,11.23,11.23,0,0,1-4.56.34,8.82,8.82,0,0,0-5.11.92,8.75,8.75,0,0,0-3.35,4A11.29,11.29,0,0,1,67.54,28a11.46,11.46,0,0,1-4.17,1.88,8.81,8.81,0,0,0-4.49,2.61,8.73,8.73,0,0,0-1.79,4.87A11.25,11.25,0,0,1,56,41.75,11.38,11.38,0,0,1,52.68,45a8.71,8.71,0,0,0-3.32,4,8.82,8.82,0,0,0,0,5.19,11.15,11.15,0,0,1,.46,4.56,11.24,11.24,0,0,1-2,4.12,8.82,8.82,0,0,0-1.76,4.89,8.78,8.78,0,0,0,1.76,4.88,11.24,11.24,0,0,1,2,4.12,11.13,11.13,0,0,1-.46,4.56,7.67,7.67,0,0,0,3.34,9.18A11.35,11.35,0,0,1,56,93.62a11.25,11.25,0,0,1,1.13,4.44,7.65,7.65,0,0,0,6.28,7.48,11.46,11.46,0,0,1,4.17,1.88,11.43,11.43,0,0,1,2.58,3.79,7.64,7.64,0,0,0,8.46,4.88,11.23,11.23,0,0,1,4.56.34,11.36,11.36,0,0,1,3.72,2.67,8.74,8.74,0,0,0,4.5,2.59,8.84,8.84,0,0,0,5.12-.89,11.33,11.33,0,0,1,4.4-1.24,11.33,11.33,0,0,1,4.41,1.24,7.63,7.63,0,0,0,9.62-1.7,11.25,11.25,0,0,1,3.72-2.67,11.21,11.21,0,0,1,4.56-.34,7.64,7.64,0,0,0,8.46-4.88,11.43,11.43,0,0,1,2.58-3.79,11.31,11.31,0,0,1,4.17-1.88,7.65,7.65,0,0,0,6.28-7.48,11.25,11.25,0,0,1,1.13-4.44,11.1,11.1,0,0,1,3.28-3.19,7.67,7.67,0,0,0,3.34-9.18,11.13,11.13,0,0,1-.46-4.56,11.24,11.24,0,0,1,2-4.12,8.78,8.78,0,0,0,1.76-4.88A8.82,8.82,0,0,0,154,62.8a11.24,11.24,0,0,1-2-4.12,11.15,11.15,0,0,1,.46-4.56,8.82,8.82,0,0,0,0-5.19,8.71,8.71,0,0,0-3.32-4,11.13,11.13,0,0,1-3.28-3.2,11.25,11.25,0,0,1-1.13-4.44,8.8,8.8,0,0,0-1.79-4.87,8.81,8.81,0,0,0-4.49-2.61A11.31,11.31,0,0,1,134.23,28a11.29,11.29,0,0,1-2.58-3.78,8.81,8.81,0,0,0-3.35-4,8.82,8.82,0,0,0-5.11-.92,11.21,11.21,0,0,1-4.56-.34,11.25,11.25,0,0,1-3.72-2.67,8.81,8.81,0,0,0-4.5-2.59,7,7,0,0,0-1.43-.09Zm0,1.57a5.19,5.19,0,0,1,1.1.08,7.25,7.25,0,0,1,3.71,2.19,12.49,12.49,0,0,0,4.24,3,12.46,12.46,0,0,0,5.19.43,7.21,7.21,0,0,1,4.24.71,7.16,7.16,0,0,1,2.73,3.32,12.63,12.63,0,0,0,3,4.27,12.41,12.41,0,0,0,4.72,2.18,7.27,7.27,0,0,1,3.75,2.11,7.23,7.23,0,0,1,1.43,4.06,12.46,12.46,0,0,0,1.33,5,12.32,12.32,0,0,0,3.69,3.66,7.31,7.31,0,0,1,2.8,3.27,7.17,7.17,0,0,1-.05,4.3,12.71,12.71,0,0,0-.47,5.18,12.57,12.57,0,0,0,2.22,4.71,7.25,7.25,0,0,1,1.51,4,7.22,7.22,0,0,1-1.51,4,12.57,12.57,0,0,0-2.22,4.71,12.71,12.71,0,0,0,.47,5.18,7.17,7.17,0,0,1,.05,4.3,7.25,7.25,0,0,1-2.8,3.27,12.32,12.32,0,0,0-3.69,3.66,12.46,12.46,0,0,0-1.33,5,6.11,6.11,0,0,1-5.18,6.17,9.92,9.92,0,0,0-7.69,6.45,6.1,6.1,0,0,1-7,4,12.8,12.8,0,0,0-5.19.43,12.49,12.49,0,0,0-4.24,3,6.13,6.13,0,0,1-7.94,1.4,12.57,12.57,0,0,0-5-1.36,12.57,12.57,0,0,0-5,1.36,6.13,6.13,0,0,1-7.94-1.4,12.53,12.53,0,0,0-4.25-3,12.74,12.74,0,0,0-5.18-.43,6.12,6.12,0,0,1-7-4,12.46,12.46,0,0,0-3-4.27A12.72,12.72,0,0,0,63.84,104a7.13,7.13,0,0,1-3.75-2.11,7.23,7.23,0,0,1-1.43-4.06,12.63,12.63,0,0,0-1.33-5,12.44,12.44,0,0,0-3.69-3.66,6.13,6.13,0,0,1-2.76-7.57,12.53,12.53,0,0,0,.48-5.18,12.57,12.57,0,0,0-2.22-4.71,7.22,7.22,0,0,1-1.51-4,7.25,7.25,0,0,1,1.51-4A12.57,12.57,0,0,0,51.36,59a12.53,12.53,0,0,0-.48-5.18,7.25,7.25,0,0,1,0-4.3,7.31,7.31,0,0,1,2.8-3.27,12.44,12.44,0,0,0,3.69-3.66,12.63,12.63,0,0,0,1.33-5,7.23,7.23,0,0,1,1.43-4.06,7.2,7.2,0,0,1,3.75-2.11,12.41,12.41,0,0,0,4.72-2.18,12.46,12.46,0,0,0,3-4.27,7.18,7.18,0,0,1,2.74-3.32,7.21,7.21,0,0,1,4.24-.71,12.4,12.4,0,0,0,5.18-.43,12.53,12.53,0,0,0,4.25-3A6.13,6.13,0,0,1,95.87,16a12.57,12.57,0,0,0,5,1.37,12.57,12.57,0,0,0,5-1.37,9.26,9.26,0,0,1,3.13-.87Zm0,0"/><path class="cls-17" d="M115.2,92.83a1.47,1.47,0,1,1,2.93,0,1.47,1.47,0,0,1-1.46,1.46,1.46,1.46,0,0,1-1.47-1.46Zm0,0"/><path class="cls-3" d="M126,48.06a8.12,8.12,0,0,1,8.14,8.14v4.08a8.14,8.14,0,0,1-16.28,0V56.2A8.12,8.12,0,0,1,126,48.06Zm0,0"/><path class="cls-4" d="M123.93,51.27a2.63,2.63,0,1,0,2.63,2.63,2.63,2.63,0,0,0-2.63-2.63Zm0,0"/><path class="cls-3" d="M92.45,48.06a8.12,8.12,0,0,1,8.14,8.14v4.08a8.14,8.14,0,0,1-16.28,0V56.2a8.12,8.12,0,0,1,8.14-8.14Zm0,0"/><path class="cls-4" d="M90.34,51.27A2.63,2.63,0,1,0,93,53.9a2.65,2.65,0,0,0-2.63-2.63Zm0,0"/><path class="cls-4" d="M91,73a3.8,3.8,0,0,0-3.81,3.81v4.31a22.11,22.11,0,1,0,44.21,0V76.83A3.8,3.8,0,0,0,127.54,73Zm36.59,0"/><path class="cls-18" d="M91,73a3.8,3.8,0,0,0-3.82,3.81v4.31a22.11,22.11,0,0,0,17.23,21.56s-4.12-8.41.57-15.81c-3.76-6.65,0-13.86,0-13.86H91Zm14,0"/><path class="cls-3" d="M91,73a3.8,3.8,0,0,0-3.81,3.81v4.31a22,22,0,0,0,6.6,15.76s-4.61-9.07.34-13.67c-4.3-5.26,0-10.2,0-10.2H91Zm3.13,0"/><path class="cls-3" d="M127.54,73a3.8,3.8,0,0,1,3.81,3.81v4.31a22,22,0,0,1-6.6,15.76s4.61-9.07-.34-13.67c4.3-5.26,0-10.2,0-10.2h3.13Zm-3.13,0"/><path class="cls-3" d="M91,72.23a4.61,4.61,0,0,0-4.6,4.6v4.31A22.9,22.9,0,0,0,109.25,104h.56v-1.58h-.56A21.3,21.3,0,0,1,87.93,81.14V76.83a3,3,0,0,1,3-3h18.86V72.23Zm18.86,0"/><path class="cls-3" d="M108.69,72.23v1.58h18.85a3,3,0,0,1,3,3v4.31a21.3,21.3,0,0,1-21.32,21.31h-.56V104h.56a22.92,22.92,0,0,0,22.9-22.9V76.83a4.61,4.61,0,0,0-4.61-4.6Zm18.85,0"/><path class="cls-3" d="M205.27,86.2h0a31.62,31.62,0,0,0-29,19.41,20.19,20.19,0,0,0,2.49,40.24h0a20.11,20.11,0,0,0,8.53-2.11,31.51,31.51,0,0,0,18,5.77h.56v-6.32h-.57a25.32,25.32,0,0,1-15.73-5.48l-1.73-1.37-1.88,1.15a13.92,13.92,0,1,1-7.48-25.82l2.2,0,.72-2.08a25.33,25.33,0,0,1,23.9-17h0l.56,0V86.21h-.55Zm0,0"/><path class="cls-4" d="M205.25,89.36a28.5,28.5,0,0,0-26.88,19.15,17.09,17.09,0,1,0,9.19,31.68,28.42,28.42,0,0,0,35.36,0,17.09,17.09,0,1,0,9.22-31.66,28.51,28.51,0,0,0-26.89-19.15Zm0,0"/><path class="cls-19" d="M165.59,114.63a17.08,17.08,0,0,0,22,25.56,28.42,28.42,0,0,0,35.36,0,17.07,17.07,0,0,0,22-25.52,17,17,0,0,1-22,3.6,28.4,28.4,0,0,1-35.36,0,17,17,0,0,1-22-3.63Zm0,0"/><path class="cls-1" d="M162.34,120.63a17.4,17.4,0,0,0-.75,5,17.07,17.07,0,0,0,26,14.59,28.42,28.42,0,0,0,35.36,0,17.09,17.09,0,0,0,26-14.57,17.18,17.18,0,0,0-.75-4.93,17.06,17.06,0,0,1-25.25,9.59,28.43,28.43,0,0,1-35.36,0,17,17,0,0,1-25.22-9.64Zm0,0"/><path class="cls-3" d="M205.26,88.57a29.27,29.27,0,0,0-27.42,19.22,17.85,17.85,0,1,0,9.64,33.29,29.32,29.32,0,0,0,17.78,6.06h.56v-1.58h-.56a27.71,27.71,0,0,1-17.21-6l-.43-.34-.47.28a16.29,16.29,0,1,1-8.76-30.2l.55,0,.18-.51a27.71,27.71,0,0,1,26.14-18.63h.56V88.58h-.56Zm0,0"/><text class="cls-20" transform="translate(9.58 266.85)">nienuklearny</text><path class="cls-11" d="M45,0,16,0H0L0,16c0,7,0,14,0,21A29.11,29.11,0,0,0,51.47,18.3,28.92,28.92,0,0,0,45,0Z"/><text class="cls-21" transform="translate(15.57 31.75)">03</text></svg>