<?xml version="1.0" encoding="utf-8"?>
<!-- Generator: Adobe Illustrator 26.0.3, SVG Export Plug-In . SVG Version: 6.00 Build 0)  -->
<svg version="1.1" id="Слой_1" xmlns="http://www.w3.org/2000/svg" xmlns:xlink="http://www.w3.org/1999/xlink" x="0px" y="0px"
	 viewBox="0 0 195.6 280.6" style="enable-background:new 0 0 195.6 280.6;" xml:space="preserve">
<style type="text/css">
	.st0{fill:#EB5A53;}
	.st1{font-family:'Impact';}
	.st2{font-size:34px;}
	.st3{clip-path:url(#SVGID_00000008109885976930076810000012463599202566666666_);fill:#1A1A1A;}
	.st4{clip-path:url(#SVGID_00000008109885976930076810000012463599202566666666_);fill:#CCCCCC;}
	.st5{clip-path:url(#SVGID_00000008109885976930076810000012463599202566666666_);fill:#E5D8AA;}
	.st6{clip-path:url(#SVGID_00000008109885976930076810000012463599202566666666_);fill:#D2B77F;}
	.st7{clip-path:url(#SVGID_00000008109885976930076810000012463599202566666666_);fill:#49838F;}
	.st8{clip-path:url(#SVGID_00000008109885976930076810000012463599202566666666_);fill:#F7C971;}
	.st9{clip-path:url(#SVGID_00000008109885976930076810000012463599202566666666_);fill:#FFE6A6;}
	.st10{clip-path:url(#SVGID_00000008109885976930076810000012463599202566666666_);fill:#DB9C5F;}
	.st11{clip-path:url(#SVGID_00000008109885976930076810000012463599202566666666_);fill:#595959;}
	.st12{clip-path:url(#SVGID_00000008109885976930076810000012463599202566666666_);fill:#444444;}
	.st13{clip-path:url(#SVGID_00000008109885976930076810000012463599202566666666_);fill:#818181;}
	.st14{clip-path:url(#SVGID_00000008109885976930076810000012463599202566666666_);fill:#A8A8A8;}
	.st15{clip-path:url(#SVGID_00000008109885976930076810000012463599202566666666_);fill:#D6D6D6;}
	.st16{clip-path:url(#SVGID_00000008109885976930076810000012463599202566666666_);fill:#EE723A;}
	.st17{clip-path:url(#SVGID_00000008109885976930076810000012463599202566666666_);fill:#DC4A24;}
	.st18{clip-path:url(#SVGID_00000008109885976930076810000012463599202566666666_);fill:#EB5A53;}
	.st19{clip-path:url(#SVGID_00000008109885976930076810000012463599202566666666_);enable-background:new    ;}
	.st20{fill:#FFFFFF;}
	.st21{font-size:20px;}
</style>
<g>
	<defs>
		<rect id="SVGID_1_" x="0.2" y="0.7" width="195.6" height="280.6"/>
	</defs>
	<clipPath id="SVGID_00000076567999502567033930000012262313035421713562_">
		<use xlink:href="#SVGID_1_"  style="overflow:visible;"/>
	</clipPath>
	<text transform="matrix(1 0 0 1 37.2 73.24)" class="st0 st1 st2">nie byli na</text>
	<text transform="matrix(1 0 0 1 57.4 106.24)" class="st0 st1 st2">Księżycu</text>
	<path style="clip-path:url(#SVGID_00000076567999502567033930000012262313035421713562_);fill:#1A1A1A;" d="M165.1,198.5
		c-18.7,0-33.9,15.2-33.9,33.9s15.2,33.9,33.9,33.9c18.7,0,33.9-15.2,33.9-33.9C199,213.7,183.9,198.6,165.1,198.5z M165.1,207.9
		c13.5,0,24.5,11,24.5,24.5s-11,24.5-24.5,24.5s-24.5-11-24.5-24.5c0-13.5,10.9-24.5,24.4-24.5C165,207.9,165.1,207.9,165.1,207.9z"
		/>
	<path style="clip-path:url(#SVGID_00000076567999502567033930000012262313035421713562_);fill:#1A1A1A;" d="M165.1,193.8
		c-10.2,0-20,4.1-27.3,11.3l-3.3,3.3l13,13l3.3-3.3c3.8-3.8,8.9-5.9,14.3-5.9h0.1c7.2,0,13.9,3.9,17.6,10.1l2.4,4.1l15.9-9.2
		l-2.4-4.1C191.7,201.2,179,193.8,165.1,193.8L165.1,193.8z"/>
	<path style="clip-path:url(#SVGID_00000076567999502567033930000012262313035421713562_);fill:#1A1A1A;" d="M125,162.6
		c-3.7,0.3-6.7,3.1-7.3,6.8l0,0l-7.3,55.4c-0.3,2.6,1.5,4.9,4,5.3c1.2,0.2,2.4-0.1,3.3-0.8c0.8,0.9,1.8,1.5,3,1.6
		c2.6,0.3,4.9-1.4,5.3-4l7.3-55.4c0.5-4.3-2.5-8.2-6.8-8.9C126.1,162.6,125.5,162.6,125,162.6L125,162.6z"/>
	<path style="clip-path:url(#SVGID_00000076567999502567033930000012262313035421713562_);fill:#1A1A1A;" d="M37.3,217.4
		c-2.6,0-4.7,2.1-4.7,4.7c0,0,0,0,0,0v6.8c0,2.6,2.1,4.7,4.7,4.7c0,0,0,0,0,0h118.2c2.6,0,4.7-2.1,4.7-4.7c0,0,0,0,0,0v-6.8
		c0-2.6-2.1-4.7-4.7-4.7h0H37.3z"/>
	
		<rect x="23.9" y="170.9" style="clip-path:url(#SVGID_00000076567999502567033930000012262313035421713562_);fill:#CCCCCC;" width="7.3" height="32.5"/>
	
		<rect x="19.2" y="166.2" style="clip-path:url(#SVGID_00000076567999502567033930000012262313035421713562_);fill:#1A1A1A;" width="16.7" height="41.9"/>
	<path style="clip-path:url(#SVGID_00000076567999502567033930000012262313035421713562_);fill:#1A1A1A;" d="M49.6,104.3
		c-1.8,0-3.4,1-4.2,2.7c-3.4,6.9-11.5,10.3-18.8,7.8c-2.2-0.8-4.7,0.3-5.8,2.4c-3.4,7-11.5,10.3-18.8,7.8c-2.2-0.8-4.7,0.3-5.8,2.4
		c-1.6,3.4-4.5,6-7.9,7.5c-3.5,1.4-7.3,1.6-10.8,0.4c-2.1-0.7-4.5,0.2-5.6,2.1c-1.1,2-0.7,4.4,1,5.9c14.1,12,33.8,15.2,51,8.1
		c17.2-7.1,28.9-23.3,30.4-41.8c0.2-2.6-1.7-4.9-4.3-5.1C49.8,104.4,49.7,104.3,49.6,104.3L49.6,104.3z M41,123.1
		c-4.3,8.8-11.6,15.7-20.6,19.4c-9,3.8-19.1,4.1-28.4,0.9c4.3-1.8,8-4.8,10.7-8.6c9.5,1.7,19.1-2.3,24.6-10.2
		C31.9,125.4,36.6,124.9,41,123.1z"/>
	<path style="clip-path:url(#SVGID_00000076567999502567033930000012262313035421713562_);fill:#1A1A1A;" d="M22.1,137.9
		c-5,0-9,4-9,9s4,9,9,9s9-4,9-9C31.1,141.9,27.1,137.9,22.1,137.9z M22.1,146.5c0.2,0,0.4,0.2,0.4,0.4c0,0.2-0.2,0.4-0.4,0.4
		s-0.4-0.2-0.4-0.4l0,0C21.8,146.7,21.9,146.5,22.1,146.5z"/>
	<path style="clip-path:url(#SVGID_00000076567999502567033930000012262313035421713562_);fill:#1A1A1A;" d="M84.3,198.7
		c-4.8,0-8.7,4-8.8,8.8v14.7c0,2.6,2.1,4.7,4.7,4.7c0,0,0,0,0,0h37c2.6,0,4.7-2.1,4.7-4.7c0,0,0,0,0,0v-14.7c0-4.8-4-8.7-8.8-8.8
		H84.3z M85,208.1h27.6v9.3H85L85,208.1z"/>
	
		<rect x="156.9" y="166.2" style="clip-path:url(#SVGID_00000076567999502567033930000012262313035421713562_);fill:#1A1A1A;" width="16.7" height="41.9"/>
	<path style="clip-path:url(#SVGID_00000076567999502567033930000012262313035421713562_);fill:#1A1A1A;" d="M84.8,174.9
		c-2.6,0-4.7,2.1-4.7,4.7v5.2c0.1,5.4,4.5,9.8,9.9,9.9h2.7c5.4,0,9.9-4.5,9.9-9.9v-5.2c0-2.6-2.1-4.7-4.7-4.7c0,0,0,0,0,0H84.8z
		 M89.5,184.3h3.6v0.5c0,0.4-0.1,0.5-0.5,0.5H90c-0.3,0-0.5-0.1-0.5-0.5L89.5,184.3z"/>
	<path style="clip-path:url(#SVGID_00000076567999502567033930000012262313035421713562_);fill:#1A1A1A;" d="M85.4,170.1
		c-3.9,0-7.1,3.2-7.1,7.1c0,3.9,3.2,7.1,7.1,7.1c0,0,0,0,0,0h12c3.9,0,7.1-3.2,7.1-7.1c0-3.9-3.2-7.1-7.1-7.1c0,0,0,0,0,0H85.4z"/>
	
		<rect x="83.9" y="158.6" style="clip-path:url(#SVGID_00000076567999502567033930000012262313035421713562_);fill:#1A1A1A;" width="14.9" height="21"/>
	<path style="clip-path:url(#SVGID_00000076567999502567033930000012262313035421713562_);fill:#1A1A1A;" d="M27.5,198.5
		c-18.7,0-33.9,15.2-33.9,33.9s15.2,33.9,33.9,33.9c18.7,0,33.9-15.2,33.9-33.9C61.4,213.7,46.2,198.6,27.5,198.5z M27.5,207.9
		c13.5,0,24.5,11,24.5,24.5c0,13.5-11,24.5-24.5,24.5C14,256.9,3,245.9,3,232.4c0-13.5,10.9-24.5,24.4-24.5
		C27.4,207.9,27.5,207.9,27.5,207.9L27.5,207.9z"/>
	<path style="clip-path:url(#SVGID_00000076567999502567033930000012262313035421713562_);fill:#1A1A1A;" d="M27.5,193.8
		c-10.2,0-20,4.1-27.3,11.3l-3.3,3.3l13,13l3.3-3.3c3.8-3.8,8.9-5.9,14.3-5.9h0.1c7.2,0,13.9,3.9,17.5,10.1l2.3,4.1l15.9-9.2
		l-2.3-4.1C54.1,201.2,41.4,193.8,27.5,193.8L27.5,193.8z"/>
	<path style="clip-path:url(#SVGID_00000076567999502567033930000012262313035421713562_);fill:#1A1A1A;" d="M7.2,107.9
		c-1.2,0-2.3,0.7-2.7,1.8c-0.3,0.7-0.3,1.5,0,2.2l7.5,18.1c0.7,1.5,2.4,2.1,3.9,1.5c1.4-0.6,2.1-2.3,1.5-3.7l-7.4-18
		C9.5,108.7,8.5,108,7.2,107.9L7.2,107.9z"/>
	<path style="clip-path:url(#SVGID_00000076567999502567033930000012262313035421713562_);fill:#1A1A1A;" d="M72.5,127.4
		c-0.8,0-1.5,0.3-2.1,0.9c-0.6,0.5-0.9,1.3-0.9,2.1V183c0.1,2,1.1,3.9,2.7,5.1l5.6,4.3c0.5,0.4,1.1,0.6,1.8,0.6h3.2v10.4
		c0,1.6,1.3,2.9,2.9,2.9c1.6,0,2.9-1.3,2.9-2.9c0,0,0,0,0,0V190c0-1.6-1.2-3-2.9-3c0,0-0.1,0-0.1,0h-5.2l-4.8-3.6l0,0
		c-0.6-0.4-0.4-0.2-0.4-0.4v-52.6C75.4,128.7,74.1,127.4,72.5,127.4z"/>
	<path style="clip-path:url(#SVGID_00000076567999502567033930000012262313035421713562_);fill:#1A1A1A;" d="M22.1,143.9
		c-1.6,0-2.9,1.3-2.9,2.9l0,0v67.2c0,1.6,1.3,2.9,2.9,2.9s2.9-1.3,2.9-2.9v-67.2C25.1,145.2,23.8,143.9,22.1,143.9L22.1,143.9z"/>
	<path style="clip-path:url(#SVGID_00000076567999502567033930000012262313035421713562_);fill:#1A1A1A;" d="M165.2,156.1
		c-1.6,0-2.9,1.3-2.9,2.9l0,0v11.9c0,1.6,1.3,2.9,2.9,2.9s2.9-1.3,2.9-2.9v-11.9C168.2,157.4,166.8,156.1,165.2,156.1L165.2,156.1z"
		/>
	<path style="clip-path:url(#SVGID_00000076567999502567033930000012262313035421713562_);fill:#1A1A1A;" d="M159.6,137.5
		c-3.8,0-6.9,3.1-6.9,6.9V162h25.1v-17.6c0-3.8-3.1-6.9-6.9-6.9L159.6,137.5z M159.6,143.4h11.3c0.6,0,1,0.4,1,1v11.7h-13.3v-11.7
		C158.5,143.8,159,143.4,159.6,143.4L159.6,143.4z"/>
	<path style="clip-path:url(#SVGID_00000076567999502567033930000012262313035421713562_);fill:#E5D8AA;" d="M84.8,179.6h13.1v5.2
		c0,2.9-2.3,5.2-5.2,5.2c0,0,0,0,0,0H90c-2.9,0-5.2-2.3-5.2-5.2c0,0,0,0,0,0L84.8,179.6z"/>
	<path style="clip-path:url(#SVGID_00000076567999502567033930000012262313035421713562_);fill:#D2B77F;" d="M84.8,180.9v3.9
		c0,2.9,2.3,5.2,5.2,5.2c0,0,0,0,0,0h2.7c2.9,0,5.2-2.3,5.2-5.2c0,0,0,0,0,0v-3.9c0,2.9-2.3,5.2-5.2,5.2c0,0,0,0,0,0H90
		C87.1,186.1,84.8,183.8,84.8,180.9C84.8,180.9,84.8,180.9,84.8,180.9L84.8,180.9z"/>
	<path style="clip-path:url(#SVGID_00000076567999502567033930000012262313035421713562_);fill:#49838F;" d="M85.4,174.8h12
		c1.3,0,2.4,1.1,2.4,2.4c0,1.3-1.1,2.4-2.4,2.4l0,0h-12c-1.3,0-2.4-1.1-2.4-2.4C83,175.9,84.1,174.8,85.4,174.8z"/>
	
		<rect x="88.6" y="163.3" style="clip-path:url(#SVGID_00000076567999502567033930000012262313035421713562_);fill:#E5D8AA;" width="5.5" height="11.6"/>
	<path style="clip-path:url(#SVGID_00000076567999502567033930000012262313035421713562_);fill:#49838F;" d="M121.3,226.2l7.3-55.4
		c0.2-1.7-1-3.3-2.7-3.6s-3.3,1-3.6,2.7l-7.3,55.4L121.3,226.2z"/>
	<path style="clip-path:url(#SVGID_00000076567999502567033930000012262313035421713562_);fill:#1A1A1A;" d="M125.2,166.1
		c-2.1,0.2-3.7,1.7-4,3.8l-7.3,55.4c-0.1,0.6,0.4,1.2,1,1.3c0.3,0,0.6,0,0.9-0.2c0.2-0.2,0.4-0.5,0.4-0.8l7.3-55.4
		c0.1-1.1,1.2-1.9,2.3-1.7c1.1,0.1,1.9,1.2,1.7,2.3l-7.3,55.4c-0.1,0.6,0.4,1.2,1,1.3c0.6,0.1,1.2-0.4,1.3-1l7.3-55.4
		c0.3-2.4-1.4-4.6-3.8-4.9C125.8,166.1,125.5,166.1,125.2,166.1L125.2,166.1z"/>
	<path style="clip-path:url(#SVGID_00000076567999502567033930000012262313035421713562_);fill:#E5D8AA;" d="M84.3,203.4h28.8
		c2.2,0,4.1,1.8,4.1,4.1c0,0,0,0,0,0v14.7h-37v-14.7C80.3,205.2,82.1,203.4,84.3,203.4C84.3,203.4,84.3,203.4,84.3,203.4z"/>
	
		<rect x="80.3" y="217.3" style="clip-path:url(#SVGID_00000076567999502567033930000012262313035421713562_);fill:#D2B77F;" width="37" height="4.8"/>
	
		<rect x="37.3" y="222.1" style="clip-path:url(#SVGID_00000076567999502567033930000012262313035421713562_);fill:#D2B77F;" width="118.2" height="6.8"/>
	
		<rect x="23.9" y="170.9" style="clip-path:url(#SVGID_00000076567999502567033930000012262313035421713562_);fill:#E5D8AA;" width="7.3" height="32.5"/>
	<path style="clip-path:url(#SVGID_00000076567999502567033930000012262313035421713562_);fill:#D2B77F;" d="M27.5,189.7
		c-1.2,0-2.4,0-3.6,0.1v13.6h7.3v-13.6C30,189.7,28.7,189.7,27.5,189.7L27.5,189.7z"/>
	<path style="clip-path:url(#SVGID_00000076567999502567033930000012262313035421713562_);fill:#1A1A1A;" d="M22.7,169.8v34.9h9.6
		v-34.9H22.7z M25.1,172.1H30v30.2h-4.9V172.1z"/>
	
		<rect x="161.6" y="170.9" style="clip-path:url(#SVGID_00000076567999502567033930000012262313035421713562_);fill:#E5D8AA;" width="7.3" height="32.5"/>
	<path style="clip-path:url(#SVGID_00000076567999502567033930000012262313035421713562_);fill:#D2B77F;" d="M165.1,189.7
		c-1.2,0-2.4,0.1-3.6,0.1v13.6h7.3v-13.6C167.6,189.7,166.4,189.7,165.1,189.7z"/>
	<path style="clip-path:url(#SVGID_00000076567999502567033930000012262313035421713562_);fill:#1A1A1A;" d="M160.4,169.8v34.9h9.6
		v-34.9H160.4z M162.8,172.1h4.9v30.2h-4.9V172.1z"/>
	<path style="clip-path:url(#SVGID_00000076567999502567033930000012262313035421713562_);fill:#1A1A1A;" d="M37.3,220.9
		c-0.6,0-1.2,0.5-1.2,1.2v6.8c0,0.6,0.5,1.2,1.2,1.2h118.2c0.6,0,1.2-0.5,1.2-1.2c0,0,0,0,0,0v-6.8c0-0.3-0.1-0.6-0.3-0.8
		c-0.2-0.2-0.5-0.3-0.8-0.4L37.3,220.9z M38.5,223.3h115.9v4.4H38.5V223.3z"/>
	<path style="clip-path:url(#SVGID_00000076567999502567033930000012262313035421713562_);fill:#1A1A1A;" d="M84.3,202.2
		c-2.9,0-5.2,2.4-5.3,5.3v14.7c0,0.6,0.5,1.2,1.2,1.2c0,0,0,0,0,0h37c0.6,0,1.2-0.5,1.2-1.2c0,0,0,0,0,0v-14.7
		c0-2.9-2.4-5.2-5.3-5.3H84.3z M84.3,204.6h28.8c1.6,0,2.9,1.2,2.9,2.8c0,0,0,0,0,0.1v13.5H81.4v-13.5
		C81.4,205.9,82.7,204.6,84.3,204.6C84.3,204.5,84.3,204.5,84.3,204.6z"/>
	<path style="clip-path:url(#SVGID_00000076567999502567033930000012262313035421713562_);fill:#1A1A1A;" d="M80.3,208.3
		c-0.7,0-1.2,0.5-1.2,1.2c0,0.7,0.5,1.2,1.2,1.2h37c0.7,0,1.2-0.5,1.2-1.2c0-0.7-0.5-1.2-1.2-1.2H80.3z"/>
	<path style="clip-path:url(#SVGID_00000076567999502567033930000012262313035421713562_);fill:#1A1A1A;" d="M84.8,178.4
		c-0.6,0-1.2,0.5-1.2,1.2c0,0,0,0,0,0v5.2c0,3.5,2.8,6.4,6.3,6.4h2.7c3.5,0,6.4-2.9,6.4-6.4v-5.2c0-0.7-0.5-1.2-1.2-1.2L84.8,178.4z
		 M86,180.8h10.7v4c0,2.2-1.8,4-4,4H90c-2.2,0-4-1.8-4-4V180.8z"/>
	<path style="clip-path:url(#SVGID_00000076567999502567033930000012262313035421713562_);fill:#1A1A1A;" d="M85.4,173.7
		c-2,0.1-3.5,1.8-3.4,3.7c0.1,1.8,1.5,3.3,3.4,3.4h12c2,0.1,3.6-1.4,3.7-3.4c0.1-2-1.4-3.6-3.4-3.7c-0.1,0-0.3,0-0.4,0H85.4z
		 M85.4,176h12c0.7,0,1.2,0.5,1.2,1.2s-0.5,1.2-1.2,1.2h-12c-0.7,0-1.2-0.5-1.2-1.2S84.7,176,85.4,176z"/>
	<path style="clip-path:url(#SVGID_00000076567999502567033930000012262313035421713562_);fill:#1A1A1A;" d="M87.4,162.1V176h7.8
		v-13.9H87.4z M89.8,164.4h3.1v9.2h-3.1V164.4z"/>
	<path style="clip-path:url(#SVGID_00000076567999502567033930000012262313035421713562_);fill:#E5D8AA;" d="M53.7,150.4v16.2
		l8.5,4.9h8.4v-21.1H53.7z"/>
	<path style="clip-path:url(#SVGID_00000076567999502567033930000012262313035421713562_);fill:#1A1A1A;" d="M49,145.7v23.7
		l11.9,6.9h14.4v-30.5H49z M58.4,155.1h7.5v11.7h-2.5l-5-2.9L58.4,155.1z"/>
	<path style="clip-path:url(#SVGID_00000076567999502567033930000012262313035421713562_);fill:#E5D8AA;" d="M53.7,150.4v16.2
		l8.5,4.9h8.4v-21.1H53.7z"/>
	<path style="clip-path:url(#SVGID_00000076567999502567033930000012262313035421713562_);fill:#D2B77F;" d="M53.7,159.9v6.8
		l8.5,4.9h8.4v-9.4L53.7,159.9z"/>
	<path style="clip-path:url(#SVGID_00000076567999502567033930000012262313035421713562_);fill:#1A1A1A;" d="M52.5,149.3v18.1
		l9.3,5.4h9.9v-23.5H52.5z M54.9,151.6h14.5v18.8h-7l-7.5-4.4L54.9,151.6z"/>
	
		<rect x="59.5" y="150.4" style="clip-path:url(#SVGID_00000076567999502567033930000012262313035421713562_);fill:#49838F;" width="5.3" height="7.9"/>
	<path style="clip-path:url(#SVGID_00000076567999502567033930000012262313035421713562_);fill:#1A1A1A;" d="M58.3,149.3v10.3H66
		v-10.3H58.3z M60.7,151.6h3v5.6h-2.9L60.7,151.6z"/>
	<path style="clip-path:url(#SVGID_00000076567999502567033930000012262313035421713562_);fill:#F7C971;" d="M0.5,129.4
		c-2.2,4.4-5.8,7.9-10.4,9.7c-4.5,1.9-9.6,2-14.2,0.4c18.8,16.1,47,13.9,63.1-4.9c6.2-7.2,9.9-16.2,10.6-25.6
		c-4.5,9.1-15,13.5-24.6,10.2C20.6,128.3,10.1,132.6,0.5,129.4z"/>
	<path style="clip-path:url(#SVGID_00000076567999502567033930000012262313035421713562_);fill:#FFE6A6;" d="M0.5,129.4
		c-2.2,4.4-5.8,7.9-10.4,9.7c-4.5,1.9-9.6,2-14.2,0.4c12.8,10.9,30.7,13.8,46.2,7.3C12.6,144.3,5.6,136.8,0.5,129.4L0.5,129.4z"/>
	<path style="clip-path:url(#SVGID_00000076567999502567033930000012262313035421713562_);fill:#DB9C5F;" d="M49.6,109
		c-4.5,9.1-15,13.5-24.6,10.2c1.7,8.8,2,19.2-2.9,27.7C37.7,140.4,48.3,125.8,49.6,109z"/>
	<path style="clip-path:url(#SVGID_00000076567999502567033930000012262313035421713562_);fill:#1A1A1A;" d="M1.5,128.7l-1.9,1.3
		c5.1,7.5,12.4,15.3,22.3,18l0.6-2.3C13.4,143.3,6.4,136,1.5,128.7L1.5,128.7z"/>
	<path style="clip-path:url(#SVGID_00000076567999502567033930000012262313035421713562_);fill:#1A1A1A;" d="M26.2,119l-2.3,0.4
		c1.6,8.7,1.9,18.7-2.8,26.9l2,1.2C28.2,138.6,27.9,127.9,26.2,119L26.2,119z"/>
	<path style="clip-path:url(#SVGID_00000076567999502567033930000012262313035421713562_);fill:#1A1A1A;" d="M49.6,107.9
		c-0.4,0-0.8,0.3-1,0.7c-4.2,8.5-14.1,12.6-23.1,9.5c-0.6-0.2-1.2,0.1-1.4,0.6c-4.2,8.6-14.1,12.7-23.2,9.6
		c-0.6-0.2-1.2,0.1-1.4,0.6c-2,4.1-5.5,7.4-9.8,9.1c-4.2,1.8-9,1.9-13.3,0.4c-0.5-0.2-1.1,0-1.4,0.5c-0.3,0.5-0.2,1.1,0.3,1.5
		c19.3,16.5,48.3,14.2,64.8-5.1c6.3-7.4,10.1-16.5,10.8-26.2c0-0.6-0.4-1.2-1.1-1.3C49.7,107.9,49.6,107.9,49.6,107.9z M47.7,114
		c-4.7,23.6-27.6,38.9-51.1,34.3c-5.6-1.1-11-3.3-15.8-6.5c3.3,0.3,6.7-0.3,9.8-1.5c4.5-1.9,8.2-5.2,10.5-9.4
		c9.6,2.8,19.8-1.4,24.6-10.2C33.7,122.9,42.3,120.3,47.7,114z"/>
	<path style="clip-path:url(#SVGID_00000076567999502567033930000012262313035421713562_);fill:#49838F;" d="M26.5,146.9
		c0,2.4-1.9,4.3-4.3,4.3c-2.4,0-4.3-1.9-4.3-4.3c0-2.4,1.9-4.3,4.3-4.3C24.5,142.5,26.5,144.5,26.5,146.9
		C26.5,146.9,26.5,146.9,26.5,146.9z"/>
	<path style="clip-path:url(#SVGID_00000076567999502567033930000012262313035421713562_);fill:#1A1A1A;" d="M22.1,141.4
		c-3,0-5.5,2.5-5.5,5.5s2.5,5.5,5.5,5.5s5.5-2.5,5.5-5.5C27.6,143.8,25.2,141.4,22.1,141.4z M22.1,143.7c1.7,0,3.1,1.4,3.1,3.1
		s-1.4,3.1-3.1,3.1c-1.7,0-3.1-1.4-3.1-3.1v0C19,145.1,20.4,143.7,22.1,143.7C22.1,143.7,22.1,143.7,22.1,143.7L22.1,143.7z"/>
	<path style="clip-path:url(#SVGID_00000076567999502567033930000012262313035421713562_);fill:#595959;" d="M56.7,232.4
		c0,16.1-13.1,29.2-29.2,29.2s-29.2-13.1-29.2-29.2c0-16.1,13.1-29.2,29.2-29.2C43.7,203.2,56.7,216.3,56.7,232.4L56.7,232.4z"/>
	<path style="clip-path:url(#SVGID_00000076567999502567033930000012262313035421713562_);fill:#444444;" d="M46.2,232.4
		c0,10.3-8.4,18.7-18.7,18.7s-18.7-8.4-18.7-18.7c0-10.3,8.4-18.7,18.7-18.7C37.8,213.7,46.2,222.1,46.2,232.4L46.2,232.4z"/>
	<path style="clip-path:url(#SVGID_00000076567999502567033930000012262313035421713562_);fill:#818181;" d="M27.5,206.5
		c-14.3,0-25.9,11.6-25.9,26c0,14.3,11.6,25.9,25.9,25.9c0.5-0.1,0.9-0.7,0.7-1.2c-0.1-0.4-0.4-0.6-0.7-0.7c-13.3,0-24-10.7-24-24
		s10.7-24,24-24c0.5-0.1,0.9-0.7,0.7-1.2C28.2,206.8,27.9,206.6,27.5,206.5L27.5,206.5z"/>
	<path style="clip-path:url(#SVGID_00000076567999502567033930000012262313035421713562_);fill:#1A1A1A;" d="M27.5,202
		c-16.8,0-30.4,13.6-30.4,30.4s13.6,30.4,30.4,30.4s30.4-13.6,30.4-30.4c0,0,0,0,0,0C57.9,215.6,44.3,202,27.5,202z M27.5,204.4
		c15.5,0,28,12.5,28,28s-12.5,28-28,28s-28-12.5-28-28S12.1,204.4,27.5,204.4z"/>
	<path style="clip-path:url(#SVGID_00000076567999502567033930000012262313035421713562_);fill:#A8A8A8;" d="M42.4,232.4
		c0,8.2-6.7,14.9-14.9,14.9c-8.2,0-14.9-6.7-14.9-14.9c0-8.2,6.7-14.9,14.9-14.9c3.9,0,7.7,1.6,10.5,4.4
		C40.8,224.7,42.4,228.5,42.4,232.4z"/>
	<path style="clip-path:url(#SVGID_00000076567999502567033930000012262313035421713562_);fill:#D6D6D6;" d="M38.5,232.4
		c0,6.1-4.9,11-11,11s-11-4.9-11-11s4.9-11,11-11l0,0C33.6,221.4,38.5,226.3,38.5,232.4z"/>
	<path style="clip-path:url(#SVGID_00000076567999502567033930000012262313035421713562_);fill:#A8A8A8;" d="M31.4,232.4
		c0,2.1-1.7,3.9-3.9,3.9s-3.9-1.7-3.9-3.9s1.7-3.9,3.9-3.9S31.4,230.3,31.4,232.4L31.4,232.4z"/>
	<path style="clip-path:url(#SVGID_00000076567999502567033930000012262313035421713562_);fill:#EE723A;" d="M3.5,208.4l6.3,6.3
		c9.8-9.7,25.6-9.7,35.4,0.1c1.5,1.5,2.8,3.2,3.9,5.1l7.7-4.5c-9.4-16.2-30.1-21.8-46.3-12.4C8,204.6,5.6,206.4,3.5,208.4L3.5,208.4
		z"/>
	<path style="clip-path:url(#SVGID_00000076567999502567033930000012262313035421713562_);fill:#DC4A24;" d="M36.8,199.8
		c-3.9,2.1-7.5,4.7-10.7,7.7c0.5,0,0.9,0,1.4,0c8.9,0,17.2,4.7,21.6,12.5l7.7-4.5C52.5,207.9,45.3,202.3,36.8,199.8L36.8,199.8z"/>
	<path style="clip-path:url(#SVGID_00000076567999502567033930000012262313035421713562_);fill:#1A1A1A;" d="M27.5,197.4
		c-9.3,0-18.2,3.7-24.8,10.3l-0.8,0.8l0.8,0.8l7.1,7.1l0.8-0.8c9.3-9.3,24.4-9.3,33.6,0c1.5,1.5,2.7,3.1,3.8,4.9l0.6,1l9.8-5.6
		l-0.6-1C51.6,204,40.1,197.4,27.5,197.4L27.5,197.4z M27.5,199.7c11.3,0,21.7,5.8,27.7,15.4l-5.7,3.3c-7.7-12.1-23.8-15.7-36-8
		c-1.3,0.8-2.5,1.8-3.6,2.8l-4.7-4.7C11.3,202.9,19.3,199.7,27.5,199.7z"/>
	<path style="clip-path:url(#SVGID_00000076567999502567033930000012262313035421713562_);fill:#1A1A1A;" d="M27.5,216.4
		c-8.9,0-16.1,7.2-16.1,16.1s7.2,16.1,16.1,16.1s16.1-7.2,16.1-16.1l0,0C43.6,223.6,36.4,216.4,27.5,216.4z M27.5,218.7
		c7.6,0,13.7,6.1,13.7,13.7s-6.1,13.7-13.7,13.7s-13.7-6.1-13.7-13.7l0,0C13.8,224.9,19.9,218.7,27.5,218.7
		C27.5,218.7,27.5,218.7,27.5,218.7z"/>
	<path style="clip-path:url(#SVGID_00000076567999502567033930000012262313035421713562_);fill:#1A1A1A;" d="M27.5,227.4
		c-2.8,0-5,2.2-5,5s2.2,5,5,5s5-2.2,5-5S30.3,227.4,27.5,227.4z M27.5,229.7c1.5,0,2.7,1.2,2.7,2.7c0,1.5-1.2,2.7-2.7,2.7
		s-2.7-1.2-2.7-2.7l0,0C24.8,230.9,26,229.7,27.5,229.7C27.5,229.7,27.5,229.7,27.5,229.7z"/>
	<path style="clip-path:url(#SVGID_00000076567999502567033930000012262313035421713562_);fill:#1A1A1A;" d="M88,215.8
		c0,0.4-0.2,0.8-0.4,1.1c-0.6,0.6-1.5,0.6-2.1,0s-0.6-1.5,0-2.1c0.6-0.6,1.5-0.6,2.1,0C87.8,215,88,215.4,88,215.8z"/>
	<path style="clip-path:url(#SVGID_00000076567999502567033930000012262313035421713562_);fill:#1A1A1A;" d="M112.6,215.8
		c0,0.8-0.7,1.5-1.5,1.5l0,0c-0.4,0-0.7-0.2-1-0.4c-0.6-0.6-0.6-1.5,0-2.1c0,0,0,0,0,0c0.3-0.3,0.6-0.4,1-0.4
		C111.9,214.3,112.6,215,112.6,215.8L112.6,215.8z"/>
	<path style="clip-path:url(#SVGID_00000076567999502567033930000012262313035421713562_);fill:#1A1A1A;" d="M67.6,166.5
		c0,0.8-0.7,1.5-1.5,1.5s-1.5-0.7-1.5-1.5c0-0.4,0.2-0.8,0.4-1.1c0.6-0.6,1.5-0.6,2.1,0C67.4,165.7,67.6,166.1,67.6,166.5
		L67.6,166.5z"/>
	<path style="clip-path:url(#SVGID_00000076567999502567033930000012262313035421713562_);fill:#1A1A1A;" d="M59.8,163.3
		c0,0.8-0.7,1.5-1.5,1.5c-0.8,0-1.5-0.7-1.5-1.5c0-0.8,0.7-1.5,1.5-1.5c0.4,0,0.8,0.2,1.1,0.4C59.6,162.5,59.7,162.9,59.8,163.3z"/>
	<path style="clip-path:url(#SVGID_00000076567999502567033930000012262313035421713562_);fill:#595959;" d="M194.4,232.4
		c0,16.1-13.1,29.2-29.2,29.2s-29.2-13.1-29.2-29.2c0-16.1,13.1-29.2,29.2-29.2C181.3,203.2,194.4,216.3,194.4,232.4L194.4,232.4z"
		/>
	<path style="clip-path:url(#SVGID_00000076567999502567033930000012262313035421713562_);fill:#444444;" d="M183.8,232.4
		c0,10.3-8.4,18.7-18.7,18.7s-18.7-8.4-18.7-18.7c0-10.3,8.4-18.7,18.7-18.7C175.5,213.7,183.8,222.1,183.8,232.4L183.8,232.4z"/>
	<path style="clip-path:url(#SVGID_00000076567999502567033930000012262313035421713562_);fill:#818181;" d="M165.1,206.5
		c-14.3,0-25.9,11.6-25.9,26c0,14.3,11.6,25.9,25.9,25.9c0.3,0,0.5-0.1,0.7-0.3c0.2-0.2,0.3-0.4,0.3-0.7c0-0.6-0.4-1-1-1
		c-13.3,0-24-10.7-24-24s10.7-24,24-24c0.6,0,1-0.4,1-1S165.7,206.4,165.1,206.5L165.1,206.5z"/>
	<path style="clip-path:url(#SVGID_00000076567999502567033930000012262313035421713562_);fill:#1A1A1A;" d="M165.1,202
		c-16.8,0-30.4,13.6-30.4,30.4s13.6,30.4,30.4,30.4s30.4-13.6,30.4-30.4c0,0,0,0,0,0C195.5,215.6,181.9,202,165.1,202z M165.1,204.4
		c15.5,0,28,12.5,28,28s-12.5,28-28,28s-28-12.5-28-28S149.7,204.4,165.1,204.4z"/>
	<path style="clip-path:url(#SVGID_00000076567999502567033930000012262313035421713562_);fill:#A8A8A8;" d="M180,232.4
		c0,8.2-6.7,14.9-14.9,14.9c-8.2,0-14.9-6.7-14.9-14.9c0-8.2,6.7-14.9,14.9-14.9C173.3,217.5,180,224.2,180,232.4
		C180,232.4,180,232.4,180,232.4z"/>
	<path style="clip-path:url(#SVGID_00000076567999502567033930000012262313035421713562_);fill:#D6D6D6;" d="M176.1,232.4
		c0,6.1-4.9,11-11,11s-11-4.9-11-11s4.9-11,11-11l0,0C171.2,221.4,176.1,226.3,176.1,232.4z"/>
	<path style="clip-path:url(#SVGID_00000076567999502567033930000012262313035421713562_);fill:#A8A8A8;" d="M169,232.4
		c0,2.1-1.7,3.9-3.9,3.9s-3.9-1.7-3.9-3.9s1.7-3.9,3.9-3.9S169,230.3,169,232.4L169,232.4z"/>
	<path style="clip-path:url(#SVGID_00000076567999502567033930000012262313035421713562_);fill:#EE723A;" d="M141.2,208.4l6.3,6.3
		c9.8-9.7,25.6-9.7,35.4,0.1c1.5,1.5,2.8,3.2,3.9,5.1l7.7-4.5c-9.4-16.2-30.1-21.8-46.3-12.4C145.6,204.6,143.3,206.4,141.2,208.4
		L141.2,208.4z"/>
	<path style="clip-path:url(#SVGID_00000076567999502567033930000012262313035421713562_);fill:#DC4A24;" d="M174.4,199.8
		c-3.9,2.1-7.5,4.7-10.7,7.7c0.5,0,0.9,0,1.4,0c8.9,0,17.2,4.7,21.6,12.5l7.7-4.5C190.1,207.9,182.9,202.3,174.4,199.8L174.4,199.8z
		"/>
	<path style="clip-path:url(#SVGID_00000076567999502567033930000012262313035421713562_);fill:#1A1A1A;" d="M165.1,197.4
		c-9.3,0-18.2,3.7-24.8,10.3l-0.8,0.8l8,8l0.8-0.8c9.3-9.3,24.3-9.3,33.6,0c1.5,1.5,2.7,3.1,3.8,4.9l0.6,1l9.8-5.6l-0.6-1
		C189.3,204.1,177.7,197.4,165.1,197.4L165.1,197.4z M165.1,199.7c11.3,0,21.7,5.8,27.7,15.4l-5.7,3.3c-7.7-12.1-23.8-15.7-36-8
		c-1.3,0.8-2.5,1.8-3.6,2.8l-4.6-4.7C148.9,202.9,156.9,199.7,165.1,199.7z"/>
	<path style="clip-path:url(#SVGID_00000076567999502567033930000012262313035421713562_);fill:#1A1A1A;" d="M165.1,216.4
		c-8.9,0-16.1,7.2-16.1,16.1s7.2,16.1,16.1,16.1s16.1-7.2,16.1-16.1l0,0C181.2,223.6,174,216.4,165.1,216.4z M165.1,218.7
		c7.6,0,13.7,6.1,13.7,13.7s-6.1,13.7-13.7,13.7s-13.7-6.1-13.7-13.7l0,0C151.4,224.9,157.5,218.7,165.1,218.7
		C165.1,218.7,165.1,218.7,165.1,218.7z"/>
	<path style="clip-path:url(#SVGID_00000076567999502567033930000012262313035421713562_);fill:#1A1A1A;" d="M165.1,227.4
		c-2.8,0-5,2.2-5,5s2.2,5,5,5s5-2.2,5-5S167.9,227.4,165.1,227.4z M165.1,229.7c1.5,0,2.7,1.2,2.7,2.7s-1.2,2.7-2.7,2.7
		s-2.7-1.2-2.7-2.7v0C162.5,230.9,163.6,229.7,165.1,229.7C165.1,229.7,165.1,229.7,165.1,229.7z"/>
	<path style="clip-path:url(#SVGID_00000076567999502567033930000012262313035421713562_);fill:#EB5A53;" d="M45,0H16H0v16
		c0,7,0,14,0,21c10.3,12.3,28.7,14,41,3.7c6.7-5.5,10.5-13.8,10.5-22.4C51.5,11.6,49.2,5.2,45,0z"/>
	<g style="clip-path:url(#SVGID_00000076567999502567033930000012262313035421713562_);enable-background:new    ;">
		<text transform="matrix(1 0 0 1 15.57 31.75)" class="st20 st1 st21">04</text>
	</g>
</g>
</svg>
