<svg id="Слой_1" data-name="Слой 1" xmlns="http://www.w3.org/2000/svg" viewBox="0 0 195.59 280.63"><defs><style>.cls-1,.cls-12{fill:#eb5a53;}.cls-2{fill:#1a1a1a;}.cls-13,.cls-3{fill:#fff;}.cls-4{fill:#af1739;}.cls-5{fill:#eb5775;}.cls-6{fill:#badbe9;}.cls-7{fill:#8bb0cc;}.cls-8{fill:#f293a2;}.cls-9{fill:#595959;}.cls-10{fill:#797979;}.cls-11{fill:#3e3e3e;}.cls-12{font-size:46.94px;}.cls-12,.cls-13{font-family:Impact;}.cls-13{font-size:20px;}</style></defs><path class="cls-1" d="M107,156.19c0-11,4.85-13.2,8.2-13.2s8.19,2.2,8.19,13.2-3.67,26.65-8.19,26.65S107,167.2,107,156.19Zm0,0"/><path class="cls-2" d="M115.16,140.7a9.26,9.26,0,0,0-7.1,3.29c-2.11,2.48-3.39,6.37-3.39,12.2a71.08,71.08,0,0,0,2.49,18.07A29.67,29.67,0,0,0,110,181.4c1.16,1.93,2.71,3.73,5.16,3.73s4-1.8,5.15-3.73a30.08,30.08,0,0,0,2.85-7.14,71.07,71.07,0,0,0,2.48-18.07c0-5.83-1.28-9.72-3.38-12.2a9.28,9.28,0,0,0-7.1-3.29Zm0,4.58a4.43,4.43,0,0,1,3.61,1.66c1.16,1.37,2.3,4.09,2.3,9.25A67.38,67.38,0,0,1,118.75,173a26.45,26.45,0,0,1-2.37,6,4.78,4.78,0,0,1-1.22,1.46,4.89,4.89,0,0,1-1.23-1.46,26.45,26.45,0,0,1-2.37-6,67.83,67.83,0,0,1-2.31-16.84c0-5.16,1.14-7.88,2.3-9.25a4.42,4.42,0,0,1,3.61-1.66Zm0,0"/><path class="cls-1" d="M65.52,156.19c0-11,4.84-13.2,8.19-13.2s8.2,2.2,8.2,13.2-3.67,26.65-8.2,26.65-8.19-15.64-8.19-26.65Zm0,0"/><path class="cls-2" d="M73.71,140.7a9.28,9.28,0,0,0-7.1,3.29c-2.1,2.48-3.38,6.37-3.38,12.2a71.07,71.07,0,0,0,2.48,18.07,30.08,30.08,0,0,0,2.85,7.14c1.15,1.93,2.7,3.73,5.15,3.73s4-1.8,5.16-3.73a29.67,29.67,0,0,0,2.84-7.14,71.08,71.08,0,0,0,2.49-18.07c0-5.83-1.28-9.72-3.39-12.2a9.26,9.26,0,0,0-7.1-3.29Zm0,4.58a4.42,4.42,0,0,1,3.61,1.66c1.16,1.37,2.3,4.09,2.3,9.25A67.83,67.83,0,0,1,77.31,173a26.45,26.45,0,0,1-2.37,6,4.73,4.73,0,0,1-1.23,1.46,4.78,4.78,0,0,1-1.22-1.46,26.45,26.45,0,0,1-2.37-6,67.38,67.38,0,0,1-2.32-16.84c0-5.16,1.15-7.88,2.3-9.25a4.43,4.43,0,0,1,3.61-1.66Zm0,0"/><path class="cls-1" d="M148.17,101.56c-3.18-10.53.82-14,4-15s8.49-.27,11.68,10.26,4.2,26.57-.13,27.88-12.38-12.6-15.57-23.13Zm0,0"/><path class="cls-2" d="M151.49,85.57a9.33,9.33,0,0,0-5.85,5.2c-1.29,3-1.39,7.08.3,12.67A71.29,71.29,0,0,0,153.55,120a29.54,29.54,0,0,0,4.8,6c1.66,1.51,3.66,2.79,6,2.08s3.31-2.89,3.85-5.07a29.47,29.47,0,0,0,.66-7.65,71,71,0,0,0-2.86-18c-1.69-5.58-4-8.93-6.77-10.7a9.29,9.29,0,0,0-7.75-1.09ZM152.81,90a4.43,4.43,0,0,1,3.94.55c1.51,1,3.39,3.24,4.88,8.19a67.3,67.3,0,0,1,2.66,16.78,25.71,25.71,0,0,1-.52,6.45,4.63,4.63,0,0,1-.75,1.75,4.55,4.55,0,0,1-1.6-1,26.42,26.42,0,0,1-4-5.08,67.51,67.51,0,0,1-7.09-15.44c-1.5-4.94-1.19-7.87-.48-9.52a4.42,4.42,0,0,1,3-2.64Zm0,0"/><path class="cls-1" d="M27.26,96.35C31.47,86.18,36.79,86,39.88,87.29s6.74,5.17,2.52,15.34-13.58,23.21-17.77,21.48-1.58-17.59,2.63-27.76Zm0,0"/><path class="cls-2" d="M40.76,85.18a9.26,9.26,0,0,0-7.82.31c-2.89,1.49-5.56,4.59-7.8,10a70.91,70.91,0,0,0-4.61,17.64,30.29,30.29,0,0,0-.11,7.69c.33,2.22,1.08,4.48,3.34,5.41s4.38-.13,6.19-1.47a30,30,0,0,0,5.36-5.51,70.71,70.71,0,0,0,9.21-15.74c2.23-5.39,2.54-9.47,1.54-12.57a9.27,9.27,0,0,0-5.3-5.75ZM39,89.4a4.43,4.43,0,0,1,2.7,2.92c.54,1.71.56,4.66-1.42,9.43a67.58,67.58,0,0,1-8.58,14.67,27,27,0,0,1-4.49,4.66,4.57,4.57,0,0,1-1.69.87,4.57,4.57,0,0,1-.58-1.81,26.51,26.51,0,0,1,.12-6.47,67.42,67.42,0,0,1,4.3-16.44c2-4.78,4.07-6.85,5.67-7.67a4.41,4.41,0,0,1,4-.16Zm0,0"/><path class="cls-2" d="M94.43,37.56a64.2,64.2,0,1,0,64.2,64.19,64.24,64.24,0,0,0-64.2-64.19Zm0,7.32a56.88,56.88,0,1,1-56.87,56.87A56.82,56.82,0,0,1,94.43,44.88Zm0,0"/><path class="cls-1" d="M154.06,100.31c0,2.51-.3,31.77-17.39,40-12.14,5.85-18.91-5.57-43.44-5.23-23.08.32-29.11,10.6-40.53,5.23-17.08-8-17.39-37.55-17.39-40,0-3.44.39-30.84,17.39-40,10-5.41,15.23,1.26,40,1.52,27.1.29,33-7.56,44-1.52C153.66,69.7,154.05,96.86,154.06,100.31Zm0,0"/><path class="cls-3" d="M95.08,42.33A61.15,61.15,0,0,0,37.47,83.19H152.71A61.17,61.17,0,0,0,95.08,42.33Zm0,0"/><path class="cls-3" d="M91.89,43.73A56.57,56.57,0,0,0,38,83.19H145.75A56.59,56.59,0,0,0,91.89,43.73Zm0,0"/><path class="cls-3" d="M37,122.77A71.42,71.42,0,0,0,64.86,152a62,62,0,0,0,30.27,8.67,57.57,57.57,0,0,0,17-2.35A59,59,0,0,0,140,139.61a63.8,63.8,0,0,0,10.37-16.84Zm0,0"/><path class="cls-3" d="M40,122.87m0,0a58.72,58.72,0,0,0,106.82,0Z"/><path class="cls-2" d="M94.43,40.3a61.46,61.46,0,1,0,61.46,61.45A61.47,61.47,0,0,0,94.43,40.3Zm0,1.83a59.63,59.63,0,1,1-59.62,59.62A59.62,59.62,0,0,1,94.43,42.13Zm0,0"/><path class="cls-2" d="M113.89,79.82a9.41,9.41,0,0,1,9.43,9.43V94a9.43,9.43,0,1,1-18.86,0V89.25a9.4,9.4,0,0,1,9.43-9.43Zm0,0"/><path class="cls-3" d="M108.4,86.58a3,3,0,1,1,5.2,2.15,3.05,3.05,0,0,1-4.31,0,3,3,0,0,1-.89-2.15Zm0,0"/><path class="cls-2" d="M75,79.82a9.4,9.4,0,0,1,9.43,9.43V94a9.43,9.43,0,1,1-18.86,0V89.25A9.41,9.41,0,0,1,75,79.82Zm0,0"/><path class="cls-3" d="M69.49,86.58a3.06,3.06,0,1,1,.9,2.15,3,3,0,0,1-.9-2.15Zm0,0"/><path class="cls-4" d="M84.4,106.19a2.09,2.09,0,0,0-2.1,2.09v2.36a12.14,12.14,0,0,0,24.27,0v-2.36a2.09,2.09,0,0,0-2.1-2.09Zm20.07,0"/><path class="cls-5" d="M94.44,114.46a12.12,12.12,0,0,0-9.15,4.16,12.15,12.15,0,0,0,18.29,0,12.11,12.11,0,0,0-9.14-4.16Zm0,0"/><path class="cls-3" d="M84.4,106.19a2.09,2.09,0,0,0-2.1,2.09v2.12a28,28,0,0,0,24.27,0v-2.11a2.09,2.09,0,0,0-2.1-2.09Zm20.07,0"/><path class="cls-6" d="M103.31,106.19v3.24c0,1.22-.15,2-1,2.55a29.24,29.24,0,0,0,4.24-1.59v-2.11a2.09,2.09,0,0,0-2.1-2.09Zm1.16,0"/><path class="cls-6" d="M84.4,106.19a2.09,2.09,0,0,0-2.1,2.09v2.12a28.63,28.63,0,0,0,8.34,2.47c-1.41-.38-1.83-1.8-1.83-3.44v-3.24Zm4.41,0"/><path class="cls-7" d="M85.56,106.19v3.24c0,1.22.15,2,1,2.55a29.24,29.24,0,0,1-4.24-1.59v-2.11a2.09,2.09,0,0,1,2.1-2.09Zm-1.16,0"/><path class="cls-2" d="M84.4,105.27a3,3,0,0,0-3,3v2.36a13,13,0,1,0,26.09,0v-2.36a3,3,0,0,0-3-3Zm20.07,1.83a1.16,1.16,0,0,1,1.18,1.18v2.36a11.22,11.22,0,1,1-22.43,0v-2.36a1.16,1.16,0,0,1,1.18-1.18Zm0,0"/><path class="cls-2" d="M106.63,109.89a27.85,27.85,0,0,1-24.39,0l-.4.82a28.71,28.71,0,0,0,25.19,0l-.4-.82Zm0,0"/><path class="cls-8" d="M95.78,117.73a1.24,1.24,0,0,1,.59-1,2.49,2.49,0,0,1,1.43-.42c1.11,0,2,.64,2,1.42s-.9,1.42-2,1.42a2.56,2.56,0,0,1-1.43-.41,1.26,1.26,0,0,1-.59-1Zm0,0"/><path class="cls-2" d="M82.69,17v6.14c5.9.38,11.58.46,17.6.9,7.52.55,12,2.74,14.65,5.41a13.05,13.05,0,0,1,3.67,9.6c0,6.32-3.37,10.57-9.25,13.43s-14.24,3.89-22.82,2.57c-1.29-.2-2.57-.45-3.85-.74v6.34c1,.2,1.94.38,2.9.53,9.63,1.48,19.1.48,26.49-3.12s12.74-10.29,12.74-19a19.5,19.5,0,0,0-5.48-14c-3.94-4-10-6.6-18.6-7.23-6.46-.47-12.22-.5-18-.85Zm0,0"/><path class="cls-2" d="M60.42,13.28l2,5.46.5,1.34a91,91,0,0,1-16.13-3.51L42.06,14.9l.66,5c3.22,24.5,23,37.88,41.93,41.12v-6.3C69.46,51.81,54.48,41.89,50,24a62.47,62.47,0,0,0,17.6,2.71l4.44,0L70.16,21.7a121,121,0,0,0,14.49,1.56V17.11a96.08,96.08,0,0,1-18.56-2.46Zm0,0"/><path class="cls-9" d="M65.36,17.66l2.19,5.9c-10,.06-21.76-4.06-21.76-4.06C52,66.31,121.72,69.14,121.72,39.05c0-8.48-5.14-16.92-21.2-18.1-12.08-.89-22.15-.13-35.16-3.29Zm0,0"/><path class="cls-10" d="M65.36,17.66l2.19,5.9c-10,.06-21.76-4.06-21.76-4.06,16.27,21.2,64.13,23.87,72.6,9.19-3.13-4-8.73-7.07-17.87-7.74-12.08-.89-22.15-.13-35.16-3.29Zm0,0"/><path class="cls-11" d="M45.79,19.5C52,66.31,121.72,69.14,121.72,39.05a19,19,0,0,0-.44-4.12C110.12,61.86,54,50,45.79,19.5Zm0,0"/><path class="cls-2" d="M82.69,19.34v1.51c5.88.37,11.58.42,17.77.87,7.9.58,13,2.93,16.13,6.09a15.48,15.48,0,0,1,4.35,11.24c0,7.22-4.11,12.38-10.56,15.52s-15.22,4.15-24.2,2.78c-1.16-.18-2.32-.4-3.49-.66v1.59c1.09.23,2.17.43,3.26.6,9.23,1.42,18.28.42,25.11-2.91s11.43-9.1,11.43-16.92a17.1,17.1,0,0,0-4.8-12.33c-3.45-3.48-9-5.95-17.12-6.55-6.3-.46-12-.48-17.88-.83Zm0,0"/><path class="cls-2" d="M64.12,16.57l.51,1.36L66.4,22.7c-9.55-.24-20.35-3.93-20.35-3.93l-1.19-.42L45,19.6c3.06,23.23,21.56,35.84,39.63,39.06V57.09C67.51,54,50.19,42.19,46.77,20.59c1.77.6,11.43,3.8,20.78,3.75h1.11l-2.1-5.66A104.64,104.64,0,0,0,84.65,21V19.45a99.22,99.22,0,0,1-19.11-2.54Zm0,0"/><text class="cls-12" transform="translate(12.96 227.4)">podobne<tspan x="41.2" y="40.43">flagi</tspan></text><path class="cls-1" d="M150.84,0l29,0h16l0,16c0,7,0,14,0,21A29.09,29.09,0,0,1,150.84,0Z"/><text class="cls-13" transform="translate(159.9 31.75)">08</text></svg>