<?xml version="1.0" encoding="utf-8"?>
<!-- Generator: Adobe Illustrator 26.0.3, SVG Export Plug-In . SVG Version: 6.00 Build 0)  -->
<svg version="1.1" id="Слой_1" xmlns="http://www.w3.org/2000/svg" xmlns:xlink="http://www.w3.org/1999/xlink" x="0px" y="0px"
	 viewBox="0 0 195.6 280.6" style="enable-background:new 0 0 195.6 280.6;" xml:space="preserve">
<style type="text/css">
	.st0{clip-path:url(#SVGID_00000113342149377555042440000009520942473872280202_);fill:#E83E3E;}
	.st1{clip-path:url(#SVGID_00000113342149377555042440000009520942473872280202_);enable-background:new    ;}
	.st2{fill:#FFFFFF;}
	.st3{font-family:'Impact';}
	.st4{font-size:63.44px;}
	.st5{font-size:21.68px;}
	.st6{clip-path:url(#SVGID_00000113342149377555042440000009520942473872280202_);fill:#FFFFFF;}
	.st7{clip-path:url(#SVGID_00000113342149377555042440000009520942473872280202_);fill:#1A1A1A;}
	.st8{clip-path:url(#SVGID_00000113342149377555042440000009520942473872280202_);fill:#BADBE9;}
	.st9{clip-path:url(#SVGID_00000113342149377555042440000009520942473872280202_);fill:#777E69;}
	.st10{clip-path:url(#SVGID_00000113342149377555042440000009520942473872280202_);fill:#9FA98D;}
	.st11{clip-path:url(#SVGID_00000113342149377555042440000009520942473872280202_);fill:#423D3D;}
	.st12{clip-path:url(#SVGID_00000113342149377555042440000009520942473872280202_);fill:#5A5252;}
	.st13{clip-path:url(#SVGID_00000113342149377555042440000009520942473872280202_);fill:#7F6D6B;}
	.st14{clip-path:url(#SVGID_00000113342149377555042440000009520942473872280202_);fill:#E83B54;}
	.st15{font-size:20px;}
</style>
<g>
	<defs>
		<rect id="SVGID_1_" x="0.2" y="0.7" width="195.6" height="280.6"/>
	</defs>
	<clipPath id="SVGID_00000081638288059433139420000004466539456663768459_">
		<use xlink:href="#SVGID_1_"  style="overflow:visible;"/>
	</clipPath>
	
		<rect x="-12.1" y="-10.6" style="clip-path:url(#SVGID_00000081638288059433139420000004466539456663768459_);fill:#E83E3E;" width="498.5" height="306.7"/>
	<g style="clip-path:url(#SVGID_00000081638288059433139420000004466539456663768459_);enable-background:new    ;">
		<text transform="matrix(1 0 0 1 30.92 264.13)" class="st2 st3 st4">USSR</text>
	</g>
	<g style="clip-path:url(#SVGID_00000081638288059433139420000004466539456663768459_);enable-background:new    ;">
		<text transform="matrix(1 0 0 1 32.59 208.16)" class="st2 st3 st5">pożegnali się z</text>
	</g>
	<path style="clip-path:url(#SVGID_00000081638288059433139420000004466539456663768459_);fill:#FFFFFF;" d="M96.2,103.8h-0.3h-0.1
		h-0.1h-0.1h-0.1h-0.1h-0.1h-0.1h-0.1h-0.1c0,0-0.1,0-0.1,0.1H95l-0.1,0.1l-0.1,0.1l-0.1,0.1v0.1l-0.1,0.1v0.1v0.1v0.1v0.1
		c0,0,0,0.1,0,0.1v0.1l0,0l0,0c0,0,0,0.1,0,0.1c0,0,0,0.1,0,0.1s0,0.1,0,0.1s0,0.1,0,0.1v0.2c0,0,0,0.1,0,0.1c0,0,0,0.1,0,0.1
		s0,0,0,0.1c0,0,0,0.1,0,0.1c0,0,0,0.1,0,0.1v0.1v0.1c0,0,0,0.1,0,0.1c0,0,0,0,0,0.1v0.1v0.1v0.1l0.1,0.1l0.1,0.1l0.1,0.1l0.1,0.1
		l0.1,0.1l0.1,0.1h0.1h0.1h0.1h0.1h0.1h0.1l0,0h0.1h0.1h0.5h0.1h0.1h0.1h0.1h0.1h0.1c0,0,0.1,0,0.1,0H97H97l0.1-0.1h0.1h0.1l0.1-0.1
		l0.1-0.1v-0.1l0.1-0.1v-0.1c0,0,0,0,0-0.1l0.1-0.1c0,0,0,0,0-0.1v-0.1v-0.1c0,0,0-0.1,0-0.1l0,0l0,0c0,0,0-0.1,0-0.1
		c0,0,0-0.1,0-0.1c0,0,0-0.1,0-0.1c0,0,0-0.1,0-0.1v-0.2c0,0,0-0.1,0-0.1c0,0,0-0.1,0-0.1c0,0,0-0.1,0-0.1s0-0.1,0-0.1v-0.1
		c0,0,0-0.1,0-0.1v-0.1v-0.1c0,0,0-0.1,0-0.1v-0.1c0,0,8421.6-6015.6-0.1-0.1v-0.1l-0.1-0.1l-0.1-0.1l-0.1-0.1l-0.1-0.1H97H97l0,0.2
		h-0.1h-0.1h-0.1h-0.1h-0.1h-0.1h-0.3L96.2,103.8z"/>
	<path style="clip-path:url(#SVGID_00000081638288059433139420000004466539456663768459_);fill:#FFFFFF;" d="M96.2,103.8H96h-0.1
		h-0.2h-0.1h-0.1h-0.1h-0.1h-0.1h-0.1h-0.1h-0.1h-0.1l-0.1,0.1l-0.1,0.1l-0.1,0.1l-0.1,0.1v0.1l-0.1,0.1v0.1v0.1v0.1v0.1v0.1v0.1
		l0,0l0,0c0,0,0,0.1,0,0.1c0,0,0,0,0,0.1s0,0.1,0,0.1s0,0,0,0.1v0.2c0,0,0,0.1,0,0.1c0,0,0,0.1,0,0.1s0,0.1,0,0.1c0,0,0,0.1,0,0.1
		c0,0,0,0.1,0,0.1v0.1v0.1c0,0,0,0.1,0,0.1v0.1v0.1v0.1c0,0,0,0,0,0.1l0.1,0.1l0.1,0.1l0.1,0.1l0.1,0.1h0.1c0,0,0,0,0.1,0h0.1h0.1
		h0.1c0,0,0.1,0,0.1,0h0.1h0.1l0,0h0.1h0.1h0.1h0.4h0.1h0.1h0.1h0.1h0.1h0.1c0,0,0.1,0,0.1,0h0.1H97l0.1-0.1h0.1h0.1l0.1-0.1
		l0.1-0.1v-0.1l0.1-0.1V106c0,0,0,0,0-0.1l0.1-0.1c0,0,0,0,0-0.1v-0.1v-0.1c0,0,0-0.1,0-0.1l0,0l0,0c0,0,0-0.1,0-0.1
		c0,0,0-0.1,0-0.1c0,0,0-0.1,0-0.1c0,0,0-0.1,0-0.1V105c0,0,0-0.1,0-0.1c0,0,0-0.1,0-0.1c0,0,0-0.1,0-0.1s0-0.1,0-0.1v-0.1
		c0,0,0-0.1,0-0.1v-0.1v-0.1c0,0,0-0.1,0-0.1v-0.1c0,0,8421.6-6015.6-0.1-0.1V104l-0.1-0.1l-0.1-0.1l-0.1-0.1l-0.1-0.1H97h-0.1
		L97,104h-0.1h-0.1h-0.1h-0.1h-0.1h-0.1h-0.3L96.2,103.8z"/>
	<path style="clip-path:url(#SVGID_00000081638288059433139420000004466539456663768459_);fill:#FFFFFF;" d="M96.2,103.8H96h-0.1
		h-0.2h-0.1h-0.1h-0.1h-0.1h-0.1h-0.1h-0.1h-0.1h-0.1l-0.1,0.1l-0.1,0.1l-0.1,0.1l-0.1,0.1v0.1l-0.1,0.1v0.1v0.1v0.1v0.1v0.1v0.1
		l0,0l0,0c0,0,0,0.1,0,0.1c0,0,0,0,0,0.1s0,0.1,0,0.1s0,0,0,0.1v0.2c0,0,0,0.1,0,0.1c0,0,0,0.1,0,0.1s0,0.1,0,0.1c0,0,0,0.1,0,0.1
		c0,0,0,0.1,0,0.1v0.1v0.1c0,0,0,0.1,0,0.1v0.1v0.1v0.1c0,0,0,0,0,0.1l0.1,0.1l0.1,0.1l0.1,0.1l0.1,0.1h0.1c0,0,0,0,0.1,0h0.1h0.1
		h0.1c0,0,0.1,0,0.1,0h0.1h0.1l0,0h0.1h0.1h0.1h0.4h0.1h0.1h0.1h0.1h0.1h0.1c0,0,0.1,0,0.1,0h0.1H97l0.1-0.1h0.1h0.1l0.1-0.1
		l0.1-0.1v-0.1l0.1-0.1V106c0,0,0,0,0-0.1l0.1-0.1c0,0,0,0,0-0.1v-0.1v-0.1c0,0,0-0.1,0-0.1l0,0l0,0c0,0,0-0.1,0-0.1
		c0,0,0-0.1,0-0.1c0,0,0-0.1,0-0.1c0,0,0-0.1,0-0.1V105c0,0,0-0.1,0-0.1c0,0,0-0.1,0-0.1c0,0,0-0.1,0-0.1s0-0.1,0-0.1v-0.1
		c0,0,0-0.1,0-0.1v-0.1v-0.1c0,0,0-0.1,0-0.1v-0.1c0,0,8421.6-6015.6-0.1-0.1V104l-0.1-0.1l-0.1-0.1l-0.1-0.1l-0.1-0.1H97h-0.1
		L97,104h-0.1h-0.1h-0.1h-0.1h-0.1h-0.1h-0.3L96.2,103.8z"/>
	<path style="clip-path:url(#SVGID_00000081638288059433139420000004466539456663768459_);fill:#FFFFFF;" d="M96.2,103.8H96h-0.1
		h-0.2h-0.1h-0.1h-0.1h-0.1h-0.1h-0.1h-0.1h-0.1h-0.1l-0.1,0.1l-0.1,0.1l-0.1,0.1l-0.1,0.1v0.1l-0.1,0.1v0.1v0.1v0.1v0.1v0.1v0.1
		l0,0l0,0c0,0,0,0.1,0,0.1c0,0,0,0,0,0.1s0,0.1,0,0.1s0,0,0,0.1v0.2c0,0,0,0.1,0,0.1c0,0,0,0.1,0,0.1s0,0.1,0,0.1c0,0,0,0.1,0,0.1
		c0,0,0,0.1,0,0.1v0.1v0.1c0,0,0,0.1,0,0.1v0.1v0.1v0.1c0,0,0,0,0,0.1l0.1,0.1l0.1,0.1l0.1,0.1l0.1,0.1h0.1c0,0,0,0,0.1,0h0.1h0.1
		h0.1c0,0,0.1,0,0.1,0h0.1h0.1l0,0h0.1h0.1h0.1h0.4h0.1h0.1h0.1h0.1h0.1h0.1c0,0,0.1,0,0.1,0h0.1H97l0.1-0.1h0.1h0.1l0.1-0.1
		l0.1-0.1v-0.1l0.1-0.1V106c0,0,0,0,0-0.1l0.1-0.1c0,0,0,0,0-0.1v-0.1v-0.1c0,0,0-0.1,0-0.1l0,0l0,0c0,0,0-0.1,0-0.1
		c0,0,0-0.1,0-0.1c0,0,0-0.1,0-0.1c0,0,0-0.1,0-0.1V105c0,0,0-0.1,0-0.1c0,0,0-0.1,0-0.1c0,0,0-0.1,0-0.1s0-0.1,0-0.1v-0.1
		c0,0,0-0.1,0-0.1v-0.1v-0.1c0,0,0-0.1,0-0.1v-0.1c0,0,8421.6-6015.6-0.1-0.1V104l-0.1-0.1l-0.1-0.1l-0.1-0.1l-0.1-0.1H97h-0.1
		L97,104h-0.1h-0.1h-0.1h-0.1h-0.1h-0.1h-0.3L96.2,103.8z"/>
	<path style="clip-path:url(#SVGID_00000081638288059433139420000004466539456663768459_);fill:#FFFFFF;" d="M96.2,103.8H96h-0.1
		h-0.2h-0.1h-0.1h-0.1h-0.1h-0.1h-0.1h-0.1h-0.1h-0.1l-0.1,0.1l-0.1,0.1l-0.1,0.1l-0.1,0.1v0.1l-0.1,0.1v0.1v0.1v0.1v0.1v0.1v0.1
		l0,0l0,0c0,0,0,0.1,0,0.1c0,0,0,0,0,0.1s0,0.1,0,0.1s0,0,0,0.1v0.2c0,0,0,0.1,0,0.1c0,0,0,0.1,0,0.1s0,0.1,0,0.1c0,0,0,0.1,0,0.1
		c0,0,0,0.1,0,0.1v0.1v0.1c0,0,0,0.1,0,0.1v0.1v0.1v0.1c0,0,0,0,0,0.1l0.1,0.1l0.1,0.1l0.1,0.1l0.1,0.1h0.1c0,0,0,0,0.1,0h0.1h0.1
		h0.1c0,0,0.1,0,0.1,0h0.1h0.1l0,0h0.1h0.1h0.1h0.4h0.1h0.1h0.1h0.1h0.1h0.1c0,0,0.1,0,0.1,0h0.1H97l0.1-0.1h0.1h0.1l0.1-0.1
		l0.1-0.1v-0.1l0.1-0.1V106c0,0,0,0,0-0.1l0.1-0.1c0,0,0,0,0-0.1v-0.1v-0.1c0,0,0-0.1,0-0.1l0,0l0,0c0,0,0-0.1,0-0.1
		c0,0,0-0.1,0-0.1c0,0,0-0.1,0-0.1c0,0,0-0.1,0-0.1V105c0,0,0-0.1,0-0.1c0,0,0-0.1,0-0.1c0,0,0-0.1,0-0.1s0-0.1,0-0.1v-0.1
		c0,0,0-0.1,0-0.1v-0.1v-0.1c0,0,0-0.1,0-0.1v-0.1c0,0,8421.6-6015.6-0.1-0.1V104l-0.1-0.1l-0.1-0.1l-0.1-0.1l-0.1-0.1H97h-0.1
		L97,104h-0.1h-0.1h-0.1h-0.1h-0.1h-0.1h-0.3L96.2,103.8z"/>
	<path style="clip-path:url(#SVGID_00000081638288059433139420000004466539456663768459_);fill:#FFFFFF;" d="M96.2,103.8H96h-0.1
		h-0.2h-0.1h-0.1h-0.1h-0.1h-0.1h-0.1h-0.1h-0.1h-0.1l-0.1,0.1l-0.1,0.1l-0.1,0.1l-0.1,0.1v0.1l-0.1,0.1v0.1v0.1v0.1v0.1v0.1v0.1
		l0,0l0,0c0,0,0,0.1,0,0.1c0,0,0,0,0,0.1s0,0.1,0,0.1s0,0,0,0.1v0.2c0,0,0,0.1,0,0.1c0,0,0,0.1,0,0.1s0,0.1,0,0.1c0,0,0,0.1,0,0.1
		c0,0,0,0.1,0,0.1v0.1v0.1c0,0,0,0.1,0,0.1v0.1v0.1v0.1c0,0,0,0,0,0.1l0.1,0.1l0.1,0.1l0.1,0.1l0.1,0.1h0.1c0,0,0,0,0.1,0h0.1h0.1
		h0.1c0,0,0.1,0,0.1,0h0.1h0.1l0,0h0.1h0.1h0.1h0.4h0.1h0.1h0.1h0.1h0.1h0.1c0,0,0.1,0,0.1,0h0.1H97l0.1-0.1h0.1h0.1l0.1-0.1
		l0.1-0.1v-0.1l0.1-0.1V106c0,0,0,0,0-0.1l0.1-0.1c0,0,0,0,0-0.1v-0.1v-0.1c0,0,0-0.1,0-0.1l0,0l0,0c0,0,0-0.1,0-0.1
		c0,0,0-0.1,0-0.1c0,0,0-0.1,0-0.1c0,0,0-0.1,0-0.1V105c0,0,0-0.1,0-0.1c0,0,0-0.1,0-0.1c0,0,0-0.1,0-0.1s0-0.1,0-0.1v-0.1
		c0,0,0-0.1,0-0.1v-0.1v-0.1c0,0,0-0.1,0-0.1v-0.1c0,0,8421.6-6015.6-0.1-0.1V104l-0.1-0.1l-0.1-0.1l-0.1-0.1l-0.1-0.1H97h-0.1
		L97,104h-0.1h-0.1h-0.1h-0.1h-0.1h-0.1h-0.3L96.2,103.8z"/>
	<path style="clip-path:url(#SVGID_00000081638288059433139420000004466539456663768459_);fill:#FFFFFF;" d="M96.2,103.8H96h-0.1
		h-0.2h-0.1h-0.1h-0.1h-0.1h-0.1h-0.1h-0.1h-0.1h-0.1l-0.1,0.1l-0.1,0.1l-0.1,0.1l-0.1,0.1v0.1l-0.1,0.1v0.1v0.1v0.1v0.1v0.1v0.1
		l0,0l0,0c0,0,0,0.1,0,0.1c0,0,0,0,0,0.1s0,0.1,0,0.1s0,0,0,0.1v0.2c0,0,0,0.1,0,0.1c0,0,0,0.1,0,0.1s0,0.1,0,0.1c0,0,0,0.1,0,0.1
		c0,0,0,0.1,0,0.1v0.1v0.1c0,0,0,0.1,0,0.1v0.1v0.1v0.1c0,0,0,0,0,0.1l0.1,0.1l0.1,0.1l0.1,0.1l0.1,0.1h0.1c0,0,0,0,0.1,0h0.1h0.1
		h0.1c0,0,0.1,0,0.1,0h0.1h0.1l0,0h0.1h0.1h0.1h0.4h0.1h0.1h0.1h0.1h0.1h0.1c0,0,0.1,0,0.1,0h0.1H97l0.1-0.1h0.1h0.1l0.1-0.1
		l0.1-0.1v-0.1l0.1-0.1V106c0,0,0,0,0-0.1l0.1-0.1c0,0,0,0,0-0.1v-0.1v-0.1c0,0,0-0.1,0-0.1l0,0l0,0c0,0,0-0.1,0-0.1
		c0,0,0-0.1,0-0.1c0,0,0-0.1,0-0.1c0,0,0-0.1,0-0.1V105c0,0,0-0.1,0-0.1c0,0,0-0.1,0-0.1c0,0,0-0.1,0-0.1s0-0.1,0-0.1v-0.1
		c0,0,0-0.1,0-0.1v-0.1v-0.1c0,0,0-0.1,0-0.1v-0.1c0,0,8421.6-6015.6-0.1-0.1V104l-0.1-0.1l-0.1-0.1l-0.1-0.1l-0.1-0.1H97h-0.1
		L97,104h-0.1h-0.1h-0.1h-0.1h-0.1h-0.1h-0.3L96.2,103.8z"/>
	<path style="clip-path:url(#SVGID_00000081638288059433139420000004466539456663768459_);fill:#FFFFFF;" d="M96.2,103.8H96h-0.1
		h-0.2h-0.1h-0.1h-0.1h-0.1h-0.1h-0.1h-0.1h-0.1h-0.1l-0.1,0.1l-0.1,0.1l-0.1,0.1l-0.1,0.1v0.1l-0.1,0.1v0.1v0.1v0.1v0.1v0.1v0.1
		l0,0l0,0c0,0,0,0.1,0,0.1c0,0,0,0,0,0.1s0,0.1,0,0.1s0,0,0,0.1v0.2c0,0,0,0.1,0,0.1c0,0,0,0.1,0,0.1s0,0.1,0,0.1c0,0,0,0.1,0,0.1
		c0,0,0,0.1,0,0.1v0.1v0.1c0,0,0,0.1,0,0.1v0.1v0.1v0.1c0,0,0,0,0,0.1l0.1,0.1l0.1,0.1l0.1,0.1l0.1,0.1h0.1c0,0,0,0,0.1,0h0.1h0.1
		h0.1c0,0,0.1,0,0.1,0h0.1h0.1l0,0h0.1h0.1h0.1h0.4h0.1h0.1h0.1h0.1h0.1h0.1c0,0,0.1,0,0.1,0h0.1H97l0.1-0.1h0.1h0.1l0.1-0.1
		l0.1-0.1v-0.1l0.1-0.1V106c0,0,0,0,0-0.1l0.1-0.1c0,0,0,0,0-0.1v-0.1v-0.1c0,0,0-0.1,0-0.1l0,0l0,0c0,0,0-0.1,0-0.1
		c0,0,0-0.1,0-0.1c0,0,0-0.1,0-0.1c0,0,0-0.1,0-0.1V105c0,0,0-0.1,0-0.1c0,0,0-0.1,0-0.1c0,0,0-0.1,0-0.1s0-0.1,0-0.1v-0.1
		c0,0,0-0.1,0-0.1v-0.1v-0.1c0,0,0-0.1,0-0.1v-0.1c0,0,8421.6-6015.6-0.1-0.1V104l-0.1-0.1l-0.1-0.1l-0.1-0.1l-0.1-0.1H97h-0.1
		L97,104h-0.1h-0.1h-0.1h-0.1h-0.1h-0.1h-0.3L96.2,103.8z"/>
	<path style="clip-path:url(#SVGID_00000081638288059433139420000004466539456663768459_);fill:#FFFFFF;" d="M96.2,103.8H96h-0.1
		h-0.2h-0.1h-0.1h-0.1h-0.1h-0.1h-0.1h-0.1h-0.1h-0.1l-0.1,0.1l-0.1,0.1l-0.1,0.1l-0.1,0.1v0.1l-0.1,0.1v0.1v0.1v0.1v0.1v0.1v0.1
		l0,0l0,0c0,0,0,0.1,0,0.1c0,0,0,0,0,0.1s0,0.1,0,0.1s0,0,0,0.1v0.2c0,0,0,0.1,0,0.1c0,0,0,0.1,0,0.1s0,0.1,0,0.1c0,0,0,0.1,0,0.1
		c0,0,0,0.1,0,0.1v0.1v0.1c0,0,0,0.1,0,0.1v0.1v0.1v0.1c0,0,0,0,0,0.1l0.1,0.1l0.1,0.1l0.1,0.1l0.1,0.1h0.1c0,0,0,0,0.1,0h0.1h0.1
		h0.1c0,0,0.1,0,0.1,0h0.1h0.1l0,0h0.1h0.1h0.1h0.4h0.1h0.1h0.1h0.1h0.1h0.1c0,0,0.1,0,0.1,0h0.1H97l0.1-0.1h0.1h0.1l0.1-0.1
		l0.1-0.1v-0.1l0.1-0.1V106c0,0,0,0,0-0.1l0.1-0.1c0,0,0,0,0-0.1v-0.1v-0.1c0,0,0-0.1,0-0.1l0,0l0,0c0,0,0-0.1,0-0.1
		c0,0,0-0.1,0-0.1c0,0,0-0.1,0-0.1c0,0,0-0.1,0-0.1V105c0,0,0-0.1,0-0.1c0,0,0-0.1,0-0.1c0,0,0-0.1,0-0.1s0-0.1,0-0.1v-0.1
		c0,0,0-0.1,0-0.1v-0.1v-0.1c0,0,0-0.1,0-0.1v-0.1c0,0,8421.6-6015.6-0.1-0.1V104l-0.1-0.1l-0.1-0.1l-0.1-0.1l-0.1-0.1H97h-0.1
		L97,104h-0.1h-0.1h-0.1h-0.1h-0.1h-0.1h-0.3L96.2,103.8z"/>
	<path style="clip-path:url(#SVGID_00000081638288059433139420000004466539456663768459_);fill:#FFFFFF;" d="M96.2,103.8H96h-0.1
		h-0.2h-0.1h-0.1h-0.1h-0.1h-0.1h-0.1h-0.1h-0.1h-0.1l-0.1,0.1l-0.1,0.1l-0.1,0.1l-0.1,0.1v0.1l-0.1,0.1v0.1v0.1v0.1v0.1v0.1v0.1
		l0,0l0,0c0,0,0,0.1,0,0.1c0,0,0,0,0,0.1s0,0.1,0,0.1s0,0,0,0.1v0.2c0,0,0,0.1,0,0.1c0,0,0,0.1,0,0.1s0,0.1,0,0.1c0,0,0,0.1,0,0.1
		c0,0,0,0.1,0,0.1v0.1v0.1c0,0,0,0.1,0,0.1v0.1v0.1v0.1c0,0,0,0,0,0.1l0.1,0.1l0.1,0.1l0.1,0.1l0.1,0.1h0.1c0,0,0,0,0.1,0h0.1h0.1
		h0.1c0,0,0.1,0,0.1,0h0.1h0.1l0,0h0.1h0.1h0.1h0.4h0.1h0.1h0.1h0.1h0.1h0.1c0,0,0.1,0,0.1,0h0.1H97l0.1-0.1h0.1h0.1l0.1-0.1
		l0.1-0.1v-0.1l0.1-0.1V106c0,0,0,0,0-0.1l0.1-0.1c0,0,0,0,0-0.1v-0.1v-0.1c0,0,0-0.1,0-0.1l0,0l0,0c0,0,0-0.1,0-0.1
		c0,0,0-0.1,0-0.1c0,0,0-0.1,0-0.1c0,0,0-0.1,0-0.1V105c0,0,0-0.1,0-0.1c0,0,0-0.1,0-0.1c0,0,0-0.1,0-0.1s0-0.1,0-0.1v-0.1
		c0,0,0-0.1,0-0.1v-0.1v-0.1c0,0,0-0.1,0-0.1v-0.1c0,0,8421.6-6015.6-0.1-0.1V104l-0.1-0.1l-0.1-0.1l-0.1-0.1l-0.1-0.1H97h-0.1
		L97,104h-0.1h-0.1h-0.1h-0.1h-0.1h-0.1h-0.3L96.2,103.8z"/>
	<path style="clip-path:url(#SVGID_00000081638288059433139420000004466539456663768459_);fill:#E83E3E;" d="M113.6,152.9
		c3.9-9.4,8.8-9.5,11.6-8.3s6.2,4.8,2.3,14.1S115,180,111.2,178.4S109.7,162.2,113.6,152.9L113.6,152.9z"/>
	<path style="clip-path:url(#SVGID_00000081638288059433139420000004466539456663768459_);fill:#1A1A1A;" d="M126,142.6
		c-2.3-1-5-0.9-7.2,0.3c-2.7,1.4-5.1,4.2-7.2,9.2c-2.1,5.2-3.5,10.7-4.2,16.2c-0.3,2.3-0.4,4.7-0.1,7.1c0.3,2,1,4.1,3.1,5
		s4-0.1,5.7-1.4c1.9-1.5,3.5-3.2,4.9-5.1c3.4-4.4,6.3-9.3,8.5-14.5c2.1-5,2.3-8.7,1.4-11.6C130.1,145.5,128.3,143.5,126,142.6
		L126,142.6z M124.4,146.5c1.2,0.5,2.1,1.4,2.5,2.7c0.5,1.6,0.5,4.3-1.3,8.7c-2,4.8-4.7,9.3-7.9,13.5c-1.2,1.6-2.6,3-4.1,4.3
		c-0.5,0.4-1,0.6-1.6,0.8c-0.3-0.5-0.5-1.1-0.5-1.7c-0.2-2-0.2-4,0.1-6c0.7-5.2,2-10.3,4-15.1c1.8-4.4,3.7-6.3,5.2-7.1
		C121.9,145.9,123.3,145.9,124.4,146.5L124.4,146.5z"/>
	<path style="clip-path:url(#SVGID_00000081638288059433139420000004466539456663768459_);fill:#E83E3E;" d="M74.3,154.6
		c1.3-10,6-11.5,9.1-11.1s7.2,3,5.9,13s-6.6,23.9-10.7,23.3S73,164.6,74.3,154.6L74.3,154.6z"/>
	<path style="clip-path:url(#SVGID_00000081638288059433139420000004466539456663768459_);fill:#1A1A1A;" d="M83.7,141.5
		c-2.5-0.3-5,0.5-6.9,2.1c-2.2,2-3.8,5.4-4.6,10.7c-0.7,5.6-0.7,11.2,0.1,16.8c0.3,2.4,0.9,4.7,1.7,6.9c0.8,1.9,2,3.7,4.3,4
		s3.9-1.2,5.2-2.8c1.4-1.9,2.6-4,3.5-6.2c2.2-5.2,3.7-10.6,4.4-16.2c0.7-5.3,0-9-1.6-11.6C88.5,143.2,86.2,141.8,83.7,141.5
		L83.7,141.5z M83.1,145.6c1.3,0.1,2.4,0.9,3.1,2c0.9,1.4,1.6,4,1,8.7c-0.7,5.2-2.1,10.2-4.1,15.1c-0.7,1.9-1.7,3.6-2.9,5.2
		c-0.4,0.5-0.8,0.9-1.3,1.2c-0.4-0.4-0.7-1-0.9-1.5c-0.7-1.9-1.2-3.8-1.4-5.8c-0.7-5.2-0.7-10.4-0.1-15.6c0.6-4.7,2-7.1,3.2-8.2
		C80.6,145.8,81.9,145.4,83.1,145.6L83.1,145.6z"/>
	<path style="clip-path:url(#SVGID_00000081638288059433139420000004466539456663768459_);fill:#E83E3E;" d="M148.9,109.8
		c-8.5-5.6-7.7-10.4-6-13s5.8-5.2,14.3,0.4s18.6,16.3,16.4,19.8S157.4,115.4,148.9,109.8L148.9,109.8z"/>
	<path style="clip-path:url(#SVGID_00000081638288059433139420000004466539456663768459_);fill:#1A1A1A;" d="M141.1,95.7
		c-1.4,2.1-1.8,4.7-1.1,7.1c0.8,2.9,3.2,5.8,7.7,8.8c4.7,3.1,9.8,5.5,15.1,7.2c2.2,0.8,4.6,1.2,6.9,1.4c2.1,0.1,4.2-0.2,5.5-2.1
		s0.6-4-0.3-5.8c-1.1-2.1-2.5-4-4.1-5.8c-3.7-4.2-8-7.9-12.6-11c-4.5-3-8.1-3.9-11.1-3.6C144.7,92.2,142.5,93.6,141.1,95.7
		L141.1,95.7z M144.6,98c0.7-1.1,1.8-1.8,3.1-1.9c1.6-0.2,4.3,0.3,8.3,2.9c4.3,2.9,8.3,6.4,11.8,10.3c1.3,1.5,2.5,3.1,3.4,4.9
		c0.3,0.5,0.5,1.1,0.5,1.7c-0.6,0.2-1.1,0.3-1.7,0.2c-2-0.2-3.9-0.6-5.8-1.2c-5-1.6-9.7-3.9-14.1-6.7c-4-2.6-5.5-4.9-6-6.4
		C143.7,100.4,143.9,99.1,144.6,98L144.6,98z"/>
	<path style="clip-path:url(#SVGID_00000081638288059433139420000004466539456663768459_);fill:#E83E3E;" d="M38.8,100.5
		c3.9-9.4,8.8-9.5,11.6-8.3s6.2,4.8,2.3,14.1s-12.5,21.4-16.4,19.8S34.9,109.9,38.8,100.5z"/>
	<path style="clip-path:url(#SVGID_00000081638288059433139420000004466539456663768459_);fill:#1A1A1A;" d="M51.2,90.2
		c-2.3-1-5-0.9-7.2,0.3c-2.7,1.4-5.1,4.2-7.2,9.2c-2.1,5.2-3.5,10.7-4.3,16.3c-0.3,2.3-0.4,4.7-0.1,7.1c0.3,2,1,4.1,3.1,5
		s4-0.1,5.7-1.4c1.9-1.5,3.5-3.2,4.9-5.1c3.4-4.4,6.3-9.3,8.5-14.5c2-5,2.3-8.7,1.4-11.6C55.3,93.2,53.5,91.3,51.2,90.2L51.2,90.2z
		 M49.6,94.1c1.2,0.5,2.1,1.5,2.5,2.7c0.5,1.6,0.5,4.3-1.3,8.7c-2.1,4.8-4.7,9.3-7.9,13.5c-1.2,1.6-2.6,3-4.1,4.3
		c-0.5,0.4-1,0.6-1.6,0.8c-0.3-0.5-0.5-1.1-0.5-1.7c-0.2-2-0.2-4,0.1-6c0.7-5.2,2-10.3,4-15.1c1.8-4.4,3.8-6.3,5.2-7
		C47.1,93.6,48.5,93.6,49.6,94.1L49.6,94.1z"/>
	<path style="clip-path:url(#SVGID_00000081638288059433139420000004466539456663768459_);fill:#1A1A1A;" d="M100.6,46.4
		c-32.6,0-59.1,26.4-59.1,59.1s26.4,59.1,59.1,59.1s59.1-26.4,59.1-59.1l0,0C159.6,72.9,133.2,46.4,100.6,46.4z M100.6,53.2
		c28.9,0,52.3,23.4,52.3,52.3s-23.4,52.3-52.3,52.3s-52.3-23.4-52.3-52.3l0,0c0-28.9,23.4-52.3,52.2-52.3
		C100.5,53.2,100.6,53.2,100.6,53.2z"/>
	<path style="clip-path:url(#SVGID_00000081638288059433139420000004466539456663768459_);fill:#E83E3E;" d="M44.9,105.5
		c0-30.8,24.9-55.7,55.7-55.7c30.8,0,55.7,24.9,55.7,55.7s-24.9,55.7-55.7,55.7c-14.8,0-29-5.9-39.4-16.3
		C50.8,134.4,44.9,120.3,44.9,105.5z"/>
	<path style="clip-path:url(#SVGID_00000081638288059433139420000004466539456663768459_);fill:#FFFFFF;" d="M100.6,54.5
		c-6.9,0-13.7,1.4-20.1,4.1c28.7-8.3,58.7,8.3,67,37.1c2.8,9.6,2.8,19.7,0.2,29.3c10.8-26-1.5-55.8-27.4-66.6
		C114,55.8,107.4,54.5,100.6,54.5L100.6,54.5z"/>
	<path style="clip-path:url(#SVGID_00000081638288059433139420000004466539456663768459_);fill:#1A1A1A;" d="M100.6,49
		c-31.2,0-56.5,25.3-56.5,56.5s25.3,56.5,56.5,56.5c31.2,0,56.5-25.3,56.5-56.5C157.1,74.3,131.8,49,100.6,49z M100.6,50.7
		c30.3,0,54.9,24.6,54.9,54.8s-24.6,54.9-54.8,54.9s-54.9-24.6-54.9-54.8c0,0,0,0,0,0C45.7,75.2,70.2,50.7,100.6,50.7
		C100.6,50.6,100.6,50.6,100.6,50.7L100.6,50.7z"/>
	<path style="clip-path:url(#SVGID_00000081638288059433139420000004466539456663768459_);fill:#FFFFFF;" d="M85.6,138.9
		c-2.2,0-4.1-1.8-4.1-4c0,0,0,0,0,0v-4.6c0-13,10.6-23.6,23.6-23.6c13,0,23.5,10.5,23.6,23.6v4.6c0,2.2-1.8,4.1-4,4.1c0,0,0,0,0,0
		H85.6z"/>
	<path style="clip-path:url(#SVGID_00000081638288059433139420000004466539456663768459_);fill:#BADBE9;" d="M85.6,138.9
		c-2.2,0-4.1-1.8-4.1-4c0,0,0,0,0,0v-4.6c0-11,7.6-20.6,18.4-23c0,0-4.4,9,0.6,16.8c-4,7.1,0,14.8,0,14.8L85.6,138.9L85.6,138.9z"/>
	<path style="clip-path:url(#SVGID_00000081638288059433139420000004466539456663768459_);fill:#1A1A1A;" d="M85.6,138.9
		c-2.2,0-4.1-1.8-4.1-4c0,0,0,0,0,0v-4.6c0-6.3,2.5-12.4,7-16.8c0,0-4.9,9.7,0.4,14.6c-4.6,5.6,0,10.9,0,10.9L85.6,138.9L85.6,138.9
		z"/>
	<path style="clip-path:url(#SVGID_00000081638288059433139420000004466539456663768459_);fill:#1A1A1A;" d="M124.6,138.9
		c2.2,0,4.1-1.8,4.1-4c0,0,0,0,0,0v-4.6c0-6.3-2.5-12.4-7-16.8c0,0,4.9,9.7-0.4,14.6c4.6,5.6,0,10.9,0,10.9L124.6,138.9L124.6,138.9
		z"/>
	<path style="clip-path:url(#SVGID_00000081638288059433139420000004466539456663768459_);fill:#1A1A1A;" d="M105.1,105.8
		c-13.5,0-24.4,10.9-24.4,24.4v4.6c0,2.7,2.2,4.9,4.9,4.9h39c2.7,0,4.9-2.2,4.9-4.9v-4.6C129.5,116.7,118.6,105.8,105.1,105.8
		L105.1,105.8z M105.1,107.5c12.5,0,22.7,10.1,22.7,22.7c0,0,0,0,0,0v4.6c0,1.8-1.4,3.2-3.2,3.2c0,0,0,0-0.1,0h-39
		c-1.8,0-3.2-1.4-3.2-3.2c0,0,0,0,0-0.1v-4.6C82.3,117.7,92.5,107.5,105.1,107.5C105,107.5,105,107.5,105.1,107.5L105.1,107.5z"/>
	<path style="clip-path:url(#SVGID_00000081638288059433139420000004466539456663768459_);fill:#1A1A1A;" d="M123,84.5
		c4.8,0,8.7,3.9,8.7,8.6c0,0,0,0,0,0.1v4.3c-0.2,4.8-4.2,8.5-9,8.4c-4.6-0.2-8.2-3.8-8.4-8.4v-4.3C114.3,88.4,118.2,84.5,123,84.5
		C123,84.5,123,84.5,123,84.5z"/>
	<path style="clip-path:url(#SVGID_00000081638288059433139420000004466539456663768459_);fill:#FFFFFF;" d="M117.9,90.7
		c0-1.5,1.3-2.8,2.8-2.8c1.5,0,2.8,1.3,2.8,2.8s-1.3,2.8-2.8,2.8c-0.7,0-1.4-0.3-2-0.8C118.2,92.2,117.9,91.5,117.9,90.7z"/>
	<path style="clip-path:url(#SVGID_00000081638288059433139420000004466539456663768459_);fill:#1A1A1A;" d="M87.2,84.5
		c-4.8,0-8.7,3.9-8.7,8.6c0,0,0,0,0,0v7.2h17.3v-7.2C95.9,88.4,92,84.5,87.2,84.5C87.2,84.5,87.2,84.5,87.2,84.5z"/>
	<path style="clip-path:url(#SVGID_00000081638288059433139420000004466539456663768459_);fill:#FFFFFF;" d="M82.1,90.7
		c0-1.5,1.3-2.8,2.8-2.8s2.8,1.3,2.8,2.8c0,1.5-1.3,2.8-2.8,2.8C83.4,93.5,82.1,92.3,82.1,90.7z"/>
	<path style="clip-path:url(#SVGID_00000081638288059433139420000004466539456663768459_);fill:#1A1A1A;" d="M24.9,161.5
		c-3.8,3.4-4.2,9.3-0.8,13.1c1.7,1.9,4.1,3,6.6,3.1c-0.2,2.1,0.4,4.2,1.5,6c2.8,4.3,8.6,5.4,12.9,2.6c3.4-2.3,4.9-6.5,3.7-10.4
		c3.2-5.2,1.5-12.1-3.7-15.3c-3.1-1.9-7-2.1-10.3-0.7c-2.9-1.3-6.3-1-8.9,0.8l0,0C25.6,161,25.2,161.3,24.9,161.5L24.9,161.5z
		 M28.2,165.3c0.1-0.1,0.3-0.2,0.4-0.3l0,0c1.3-0.9,3.1-1,4.5-0.2l1.2,1.3l1.8-1.1c2.8-1.8,6.6-0.9,8.4,1.9c1.4,2.2,1.2,5-0.4,7.1
		l-1,1.2l0.7,1.5c1,2.1,0.2,4.7-1.9,5.7s-4.7,0.2-5.7-1.9c-0.5-1-0.6-2.2-0.2-3.2l0.5-1.5l-1.2-1.1c-0.3-0.3-0.6-0.6-0.8-0.9
		l-0.9-1.3l-1.6,0.3c-2.3,0.4-4.5-1.1-5-3.4C26.6,167.8,27.2,166.3,28.2,165.3L28.2,165.3z"/>
	<path style="clip-path:url(#SVGID_00000081638288059433139420000004466539456663768459_);fill:#1A1A1A;" d="M21.2,183.6
		c3.2,5.2,10,6.9,15.3,3.7c2.2-1.4,3.9-3.5,4.7-6l-4.8-1.6c-1.1,3.2-4.5,4.9-7.7,3.8s-4.9-4.5-3.8-7.7c0.7-2,2.4-3.6,4.5-4l-1-4.9
		c-6,1.2-9.9,7.1-8.7,13.1C20,181.2,20.5,182.5,21.2,183.6L21.2,183.6z"/>
	<path style="clip-path:url(#SVGID_00000081638288059433139420000004466539456663768459_);fill:#1A1A1A;" d="M30.5,169.9
		c-2.6,2.1-3,6-0.8,8.6c2.1,2.6,6,3,8.6,0.8c0.1-0.1,0.2-0.2,0.3-0.3l16-14.1c2.5-2.2,2.8-6.1,0.5-8.6s-6.1-2.8-8.6-0.5L30.5,169.9z
		 M49.8,159.5c0.4-0.4,1.1-0.4,1.5,0c0.4,0.4,0.4,1.1,0,1.5c0,0-0.1,0.1-0.1,0.1l-16,14.1c-0.4,0.4-1,0.4-1.4,0c0,0-0.1-0.1-0.1-0.1
		c-0.4-0.4-0.4-1,0-1.4c0,0,0.1-0.1,0.1-0.1L49.8,159.5L49.8,159.5z"/>
	<path style="clip-path:url(#SVGID_00000081638288059433139420000004466539456663768459_);fill:#777E69;" d="M43.7,184.2
		c-3.1,2.1-7.3,1.2-9.4-1.9c-2.1-3.1-1.2-7.3,1.9-9.4c3.1-2.1,7.3-1.2,9.4,1.8C47.7,177.9,46.8,182.1,43.7,184.2
		C43.7,184.2,43.7,184.2,43.7,184.2z"/>
	<path style="clip-path:url(#SVGID_00000081638288059433139420000004466539456663768459_);fill:#777E69;" d="M44.2,177.3
		c-3.9,2.6-9.3,1.6-11.9-2.3s-1.6-9.3,2.3-11.9c3.9-2.6,9.3-1.6,11.9,2.3C49.1,169.3,48.1,174.6,44.2,177.3
		C44.2,177.3,44.2,177.3,44.2,177.3L44.2,177.3z"/>
	<path style="clip-path:url(#SVGID_00000081638288059433139420000004466539456663768459_);fill:#777E69;" d="M34.8,174.1
		c-3.1,2.1-7.3,1.2-9.4-1.9s-1.2-7.3,1.9-9.4c1.5-1,3.3-1.4,5-1c3.7,0.7,6.1,4.3,5.3,8C37.3,171.5,36.3,173.1,34.8,174.1z"/>
	<path style="clip-path:url(#SVGID_00000081638288059433139420000004466539456663768459_);fill:#9FA98D;" d="M32.8,169.9
		c-0.7,0.4-1.5,0.6-2.2,0.4c-0.8-0.1-1.4-0.6-1.9-1.2c-0.9-1.4-0.6-3.2,0.8-4.2c1.4-0.9,3.2-0.6,4.2,0.8
		C34.6,167,34.2,168.9,32.8,169.9C32.8,169.8,32.8,169.8,32.8,169.9z"/>
	<path style="clip-path:url(#SVGID_00000081638288059433139420000004466539456663768459_);fill:#9FA98D;" d="M41.4,167.3
		c-0.7,0.4-1.4,0.6-2.2,0.4c-0.8-0.2-1.5-0.6-1.9-1.3c-0.4-0.7-0.6-1.5-0.5-2.2c0.2-0.8,0.6-1.4,1.3-1.9c1.2-1.1,3.1-1,4.2,0.2
		c1.1,1.2,1,3.1-0.2,4.2C41.9,167,41.7,167.2,41.4,167.3z"/>
	<path style="clip-path:url(#SVGID_00000081638288059433139420000004466539456663768459_);fill:#1A1A1A;" d="M26.1,162.8
		c-3.1,2.7-3.5,7.5-0.8,10.6c1.7,1.9,4.2,2.9,6.7,2.5c0.2,0.3,0.4,0.5,0.6,0.7c-1,4,1.4,8.1,5.4,9.2s8.1-1.4,9.2-5.4
		c0.4-1.6,0.3-3.3-0.3-4.8c3.1-4.2,2.2-10-2-13.1c-2.9-2.2-6.9-2.4-10.1-0.6c-2.5-1.4-5.6-1.3-8,0.3
		C26.5,162.5,26.3,162.7,26.1,162.8L26.1,162.8z M27.1,164c0.2-0.2,0.4-0.3,0.6-0.5c2-1.3,4.6-1.3,6.7,0l0.4,0.3l0.4-0.3
		c3.7-2.3,8.5-1.2,10.8,2.5c1.8,2.8,1.6,6.5-0.6,9.1l-0.3,0.4l0.2,0.4c1.5,3,0.3,6.6-2.7,8s-6.6,0.3-8-2.7c-0.7-1.4-0.8-3.1-0.3-4.6
		l0.2-0.5l-0.4-0.3c-0.4-0.4-0.7-0.8-1-1.2l-0.3-0.4l-0.5,0.1c-3.3,0.6-6.4-1.5-7-4.8C24.8,167.5,25.5,165.4,27.1,164L27.1,164z"/>
	<path style="clip-path:url(#SVGID_00000081638288059433139420000004466539456663768459_);fill:#9FA98D;" d="M48.2,157.6
		c1.5-1.3,3.8-1.1,5.1,0.5c1.2,1.5,1.1,3.6-0.3,4.9l-16,14.1c-1.5,1.3-3.7,1.2-5.1-0.3s-1.2-3.7,0.3-5.1L48.2,157.6L48.2,157.6z"/>
	<path style="clip-path:url(#SVGID_00000081638288059433139420000004466539456663768459_);fill:#777E69;" d="M32.4,177.3
		c1.4,1,3.2,0.9,4.5-0.2l16-14.1c1.3-1.1,1.6-3,0.8-4.4L32.4,177.3z"/>
	<path style="clip-path:url(#SVGID_00000081638288059433139420000004466539456663768459_);fill:#1A1A1A;" d="M31.7,171.3
		c-1.7,1.5-1.9,4.2-0.4,5.9s4.2,1.9,5.9,0.4l0,0l16-14.1c1.7-1.5,1.9-4.2,0.4-5.9s-4.2-1.9-5.9-0.4L31.7,171.3z M48.6,158.1
		c1-1.3,2.9-1.5,4.2-0.5c1.3,1,1.5,2.9,0.5,4.2c-0.2,0.3-0.5,0.5-0.8,0.7l-16,14.1c-1.4,0.9-3.3,0.4-4.1-1c-0.7-1.1-0.6-2.4,0.2-3.4
		L48.6,158.1z"/>
	<path style="clip-path:url(#SVGID_00000081638288059433139420000004466539456663768459_);fill:#777E69;" d="M35.5,184.9
		c-3.9,2.6-9.3,1.6-11.9-2.3s-1.6-9.3,2.3-11.9c3.9-2.6,9.3-1.6,11.9,2.3c1.3,1.9,1.7,4.2,1.3,6.4C38.7,181.6,37.4,183.6,35.5,184.9
		z"/>
	<path style="clip-path:url(#SVGID_00000081638288059433139420000004466539456663768459_);fill:#9FA98D;" d="M34.5,180.7
		c-3,2-7,1.2-9-1.8c-2-3-1.2-7,1.8-9c3-2,7-1.2,9,1.8c0,0,0,0,0,0C38.2,174.7,37.5,178.7,34.5,180.7z"/>
	<path style="clip-path:url(#SVGID_00000081638288059433139420000004466539456663768459_);fill:#1A1A1A;" d="M22.9,182.6
		c2.7,4.3,8.3,5.7,12.7,3c1.8-1.1,3.2-2.9,3.9-4.9l-1.2-0.4c-1.3,4.2-5.9,6.5-10.1,5.2s-6.5-5.9-5.2-10.1c0.9-2.8,3.2-4.9,6.1-5.4
		l-0.2-1.2c-5,1-8.2,5.9-7.2,10.9C21.9,180.7,22.3,181.7,22.9,182.6L22.9,182.6z"/>
	<path style="clip-path:url(#SVGID_00000081638288059433139420000004466539456663768459_);fill:#1A1A1A;" d="M32.2,169.9
		c3.5,0.7,6.2,3.7,6.4,7.3l1.3-0.1c-0.3-4.2-3.3-7.6-7.4-8.4C32.5,168.7,32.2,169.9,32.2,169.9z"/>
	<path style="clip-path:url(#SVGID_00000081638288059433139420000004466539456663768459_);fill:#1A1A1A;" d="M102.3,21.3
		c-2.2,0-13.9-0.4-23.7,3.9c-3.8,1.7-7.7,5.2-8,10.6c-0.2,7-1.1,14-2.5,20.9c-0.6,3.3,0,6.2,1.8,8.2c1.8,1.7,4.1,2.8,6.5,3
		c8.6,0.9,17.3,1.4,26,1.5c8.7,0,17.3-0.5,25.9-1.5c2.5-0.2,4.8-1.3,6.5-3c1.8-1.9,2.4-4.9,1.8-8.2c-1.4-6.9-2.3-13.9-2.5-20.9
		c-0.3-5.5-4.2-9-8-10.6C116.3,20.9,104.5,21.3,102.3,21.3L102.3,21.3z M102.3,26.9c2.6,0,13.3-0.1,21.5,3.5
		c2.8,1.2,4.5,2.6,4.6,5.8c0.3,7.3,1.1,14.6,2.6,21.7c0.4,2.2,0.1,2.8-0.4,3.3c-0.9,0.7-2,1.1-3.2,1.2c-6.2,0.9-19.6,1.4-25.2,1.4
		s-18.9-0.6-25.2-1.4c-1.2-0.1-2.3-0.5-3.2-1.2c-0.4-0.5-0.8-1.1-0.4-3.3c1.5-7.2,2.3-14.4,2.6-21.7c0.2-3.2,1.8-4.6,4.7-5.8
		C89,26.8,99.8,26.9,102.3,26.9L102.3,26.9z"/>
	<path style="clip-path:url(#SVGID_00000081638288059433139420000004466539456663768459_);fill:#1A1A1A;" d="M115.2,13.7
		c-3.3-0.2-6.3,1.5-8,4.3l-2.8,4.9l4.8,2.8l2.8-4.9c0.9-1.6,3.3-2.1,5.9-0.6c5,3,8.4,5.3,13.9,9.1c2.2,1.4,3.7,3.6,4.2,6.1
		c0.5,4,1.1,9.5,1.2,14.5s-0.3,9.8-1,11.5c-0.3,1-1,1.8-1.9,2.2c-0.9,0.4-1.8,0.5-2.7,0.4c-1.4-0.1-2.7-0.5-4-1l-2.4,5
		c1.9,0.9,4,1.4,6.1,1.6c1.9,0.2,3.8-0.2,5.6-1c2.1-1.1,3.8-2.9,4.6-5.1c1.5-3.6,1.6-8.5,1.4-13.8s-0.7-10.9-1.2-15.1
		c-0.7-4.1-3-7.7-6.4-9.9c-5.5-3.9-9.1-6.3-14.2-9.4C119.2,14.3,117.2,13.7,115.2,13.7L115.2,13.7z"/>
	<path style="clip-path:url(#SVGID_00000081638288059433139420000004466539456663768459_);fill:#1A1A1A;" d="M89.5,13.7
		c-2,0-3.9,0.6-5.7,1.6c-5.1,3.1-8.7,5.5-14.2,9.4c-3.4,2.3-5.8,5.9-6.4,9.9c-0.5,4.2-1.1,9.8-1.2,15.1s-0.1,10.2,1.4,13.8
		c0.9,2.2,2.5,4,4.6,5.1c1.7,0.8,3.6,1.2,5.5,1c2.1-0.2,4.2-0.7,6.1-1.7l-2.4-5c-1.3,0.5-2.6,0.9-4,1c-0.9,0.1-1.9,0-2.7-0.4
		c-0.9-0.4-1.6-1.2-1.9-2.2c-0.7-1.7-1.1-6.4-1-11.5s0.7-10.5,1.2-14.5c0.5-2.5,2-4.7,4.1-6.1c5.4-3.9,8.8-6.1,13.9-9.1
		c2.6-1.5,5-1,5.9,0.6l2.8,4.9l4.8-2.8l-2.8-4.9C95.8,15.1,92.7,13.5,89.5,13.7L89.5,13.7z"/>
	<path style="clip-path:url(#SVGID_00000081638288059433139420000004466539456663768459_);fill:#1A1A1A;" d="M102.3,16.8
		c-1.7,0-11.3-0.4-19.4,4.1c-3.9,2.1-6.3,6.2-6.5,10.6l5.6,0.2c0.1-3.5,1.5-4.8,3.6-5.9c6.2-3.5,14.5-3.4,16.7-3.4
		s10.4-0.1,16.7,3.4c2.1,1.2,3.5,2.5,3.6,5.9l5.6-0.2c-0.1-4.4-2.6-8.5-6.5-10.6C113.7,16.4,104,16.8,102.3,16.8z"/>
	<path style="clip-path:url(#SVGID_00000081638288059433139420000004466539456663768459_);fill:#423D3D;" d="M125.4,31.6
		c0-3.5-1.9-6.7-5-8.3c-7.2-4-16.1-3.7-18-3.7s-10.9-0.3-18,3.7c-3.1,1.6-5,4.8-5,8.3H125.4z"/>
	<path style="clip-path:url(#SVGID_00000081638288059433139420000004466539456663768459_);fill:#1A1A1A;" d="M102.3,18.9
		c-1.8,0-11-0.3-18.4,3.8c-3.3,1.7-5.4,5.1-5.4,8.9l1.4,0.1c0-3.2,1.8-6.2,4.7-7.6c6.9-3.9,15.7-3.6,17.7-3.6s10.8-0.3,17.6,3.6
		c2.9,1.4,4.7,4.4,4.7,7.6l1.4-0.1c0-3.7-2.1-7.1-5.4-8.9C113.3,18.6,104.2,18.9,102.3,18.9L102.3,18.9z"/>
	<path style="clip-path:url(#SVGID_00000081638288059433139420000004466539456663768459_);fill:#5A5252;" d="M106.9,24.2l2.8-4.8
		c1.8-3.2,6.1-3.8,9.8-1.6c5.1,3,8.6,5.4,14,9.3c2.8,1.8,4.7,4.7,5.3,8c1,8.2,2.2,22.1,0,27.4c-3.1,7.6-12.4,3-12.4,3L106.9,24.2z"
		/>
	<path style="clip-path:url(#SVGID_00000081638288059433139420000004466539456663768459_);fill:#7F6D6B;" d="M114.9,16.4
		c-0.9,0-1.7,0.2-2.5,0.5c1.2,0.2,2.4,0.6,3.5,1.3c5.2,3.3,8.8,5.8,14.4,10c2.9,2,4.8,5.1,5.4,8.6c1,8.6,2.2,23,0.2,29
		c1.4-0.8,2.4-2,2.9-3.5c2.2-5.3,1-19.2,0-27.4c-0.6-3.3-2.5-6.2-5.3-8c-5.5-3.9-9-6.2-14-9.3C118.1,16.8,116.5,16.4,114.9,16.4
		L114.9,16.4z"/>
	<path style="clip-path:url(#SVGID_00000081638288059433139420000004466539456663768459_);fill:#1A1A1A;" d="M115.2,15.5
		c-2.6-0.2-5,1.1-6.3,3.4l-2.8,4.8l1.6,0.9l2.8-4.9c1.5-2.6,5.2-3.2,8.5-1.3c5.1,3,8.5,5.3,14,9.2c2.6,1.7,4.3,4.3,4.9,7.4
		c0.5,4.1,1.1,9.6,1.2,14.7s-0.2,9.9-1.1,12.2c-0.5,1.4-1.5,2.5-2.8,3.2c-1.2,0.5-2.4,0.7-3.7,0.6c-1.6-0.1-3.2-0.6-4.7-1.2
		l-0.8,1.7c1.7,0.8,3.5,1.3,5.4,1.4c1.6,0.2,3.2-0.1,4.6-0.8c1.7-0.9,3-2.3,3.7-4.1c1.2-3,1.4-7.8,1.3-13s-0.7-10.8-1.2-14.9
		c-0.5-3.7-2.9-6.7-5.7-8.6c-5.5-3.9-9-6.2-14.1-9.3C118.5,16,116.9,15.6,115.2,15.5L115.2,15.5z"/>
	<path style="clip-path:url(#SVGID_00000081638288059433139420000004466539456663768459_);fill:#423D3D;" d="M97.8,24.2L95,19.3
		c-1.8-3.2-6.1-3.8-9.8-1.6c-5.1,3-8.6,5.4-14,9.3c-2.6,1.9-4.9,4.7-5.3,8c-1,8.2-2.2,22.1,0,27.4c3.1,7.6,12.4,3,12.4,3L97.8,24.2z
		"/>
	<path style="clip-path:url(#SVGID_00000081638288059433139420000004466539456663768459_);fill:#1A1A1A;" d="M89.5,15.5
		c-1.7,0.1-3.3,0.5-4.7,1.4c-5.1,3.1-8.6,5.4-14.1,9.3c-2.8,2-5.2,5-5.7,8.6c-0.5,4.1-1.1,9.7-1.2,14.9s0,10,1.3,13
		c0.7,1.8,2,3.3,3.7,4.1c1.4,0.7,3,0.9,4.6,0.8c1.9-0.2,3.7-0.6,5.4-1.4L78,64.6c-1.5,0.7-3.1,1.1-4.7,1.2c-1.3,0.1-2.5-0.1-3.7-0.6
		c-1.3-0.7-2.4-1.8-2.8-3.2c-1-2.3-1.3-7.1-1.1-12.2s0.7-10.6,1.2-14.7c0.6-3,2.3-5.7,4.9-7.4c5.5-3.9,8.9-6.2,14-9.2
		c3.3-2,7-1.4,8.5,1.3l2.8,4.9l1.6-0.9l-2.8-4.8C94.5,16.6,92.1,15.4,89.5,15.5L89.5,15.5z"/>
	<path style="clip-path:url(#SVGID_00000081638288059433139420000004466539456663768459_);fill:#5A5252;" d="M125,27.8
		c-9-4-20.2-3.7-22.6-3.7s-13.6-0.3-22.6,3.7c-3.3,1.5-6.1,3.9-6.3,8.2c-0.3,7.2-1.1,14.3-2.6,21.3c-1.1,5.4,2,7.2,5.9,7.8
		c8.5,0.9,17,1.4,25.6,1.5c8.5-0.1,17.1-0.5,25.5-1.5c4-0.6,7-2.4,5.9-7.8c-1.5-7-2.3-14.2-2.6-21.3C131.1,31.7,128.3,29.3,125,27.8
		z"/>
	<path style="clip-path:url(#SVGID_00000081638288059433139420000004466539456663768459_);fill:#7F6D6B;" d="M111.7,24.5
		c2.4,2.3,3.8,5.5,3.8,8.8c0.2,9.2,1.1,18.4,2.6,27.6c0.3,1.7,0.3,3.5-0.1,5.2c3.3-0.2,6.4-0.5,8.9-0.8c0.3-1.6,0.3-3.3,0-4.9
		c-1.4-8.8-2.3-17.8-2.6-26.7c0-2.6-0.9-5-2.4-7.1C118.5,25.6,115.1,24.9,111.7,24.5L111.7,24.5z"/>
	<path style="clip-path:url(#SVGID_00000081638288059433139420000004466539456663768459_);fill:#423D3D;" d="M93,24.5
		c-4.5,0.4-9,1.5-13.2,3.3c-3.3,1.5-6.1,3.9-6.3,8.2c-0.3,7.2-1.1,14.3-2.6,21.3c-1.1,5.4,2,7.2,5.9,7.8c2.6,0.4,6.2,0.7,9.9,0.9
		c-0.4-1.7-0.4-3.5-0.1-5.2c1.4-9.1,2.3-18.3,2.5-27.6C89.2,30,90.6,26.8,93,24.5z"/>
	<path style="clip-path:url(#SVGID_00000081638288059433139420000004466539456663768459_);fill:#7F6D6B;" d="M103.6,24.1h-1.3
		c-2.4,0-13.6-0.3-22.6,3.7c-3.3,1.4-6,3.8-6.3,8.1c1.3-1.5,3-2.7,4.9-3.4c9.5-4,21.5-3.7,24-3.7s14.5-0.3,24,3.7
		c1.9,0.7,3.6,1.9,4.9,3.4c-0.3-4.3-3-6.6-6.3-8.1C117.1,24.4,107.5,24.1,103.6,24.1L103.6,24.1z"/>
	<path style="clip-path:url(#SVGID_00000081638288059433139420000004466539456663768459_);fill:#1A1A1A;" d="M102.3,23.2
		c-2.3,0-13.7-0.3-23,3.8c-3.5,1.5-6.6,4.3-6.9,9c-0.2,7.1-1.1,14.2-2.5,21.2c-0.6,2.9,0,5.1,1.3,6.5c1.5,1.4,3.4,2.2,5.4,2.4
		c8.5,0.9,17.1,1.4,25.7,1.5c8.6,0,17.1-0.5,25.6-1.5c2-0.1,3.9-1,5.4-2.4c1.4-1.4,1.9-3.6,1.3-6.5c-1.4-7-2.3-14.1-2.5-21.2
		c-0.2-4.7-3.4-7.5-6.9-9C116.1,22.9,104.7,23.2,102.3,23.2L102.3,23.2z M102.3,25c2.5,0,13.5-0.2,22.2,3.6c3.1,1.4,5.6,3.5,5.8,7.4
		c0.3,7.2,1.1,14.4,2.6,21.5c0.5,2.5,0,4-0.9,4.9c-1.2,1.1-2.7,1.7-4.3,1.8c-8.4,0.9-16.9,1.4-25.4,1.4c-8.5-0.1-17-0.5-25.4-1.4
		c-1.6-0.1-3.1-0.7-4.3-1.8c-0.9-1-1.3-2.4-0.8-4.9c1.5-7.1,2.3-14.3,2.6-21.5c0.2-4,2.6-6,5.8-7.4C88.8,24.8,99.9,25,102.3,25
		L102.3,25z"/>
	<path style="clip-path:url(#SVGID_00000081638288059433139420000004466539456663768459_);fill:#E83B54;" d="M97.6,50
		c-1-0.8,0.5-3.7,0.1-5s-3.4-2.7-3-4s3.7-0.7,4.8-1.5s1.6-4.1,2.8-4.1s1.8,3.3,2.8,4.1s4.4,0.2,4.8,1.5s-2.6,2.7-3,4s1.1,4.2,0.1,5
		s-3.4-1.6-4.7-1.6S98.7,50.8,97.6,50z"/>
	<path style="clip-path:url(#SVGID_00000081638288059433139420000004466539456663768459_);fill:#1A1A1A;" d="M102.3,35
		c-0.5,0-0.9,0.3-1.2,0.7c-0.3,0.4-0.5,0.8-0.7,1.3c-0.2,0.5-0.4,1-0.6,1.3c-0.1,0.3-0.3,0.6-0.6,0.8c-0.3,0.2-0.6,0.3-0.9,0.3
		c-0.4,0.1-1,0.1-1.5,0.2c-0.5,0-1,0.1-1.5,0.3c-0.5,0.1-0.8,0.5-1,0.9c-0.1,0.5,0,1,0.3,1.4c0.3,0.4,0.6,0.8,1,1.1
		c0.4,0.3,0.8,0.7,1.1,1c0.2,0.2,0.4,0.5,0.6,0.8c0.1,0.3,0.1,0.7,0,1c-0.1,0.4-0.2,0.9-0.3,1.5c-0.1,0.5-0.2,1-0.2,1.5
		c-0.1,0.8,0.4,1.5,1.2,1.6c0.3,0,0.6,0,0.8-0.1c0.5-0.2,0.9-0.4,1.4-0.6c0.4-0.3,0.9-0.5,1.3-0.7c0.5-0.4,1.3-0.4,1.8,0
		c0.4,0.2,0.8,0.5,1.3,0.7c0.4,0.3,0.9,0.5,1.4,0.6c0.7,0.3,1.5,0.1,1.9-0.6c0.1-0.3,0.2-0.5,0.1-0.8c0-0.5-0.1-1-0.2-1.5
		c-0.1-0.5-0.2-1-0.3-1.5c-0.1-0.3-0.1-0.7,0-1c0.1-0.3,0.3-0.6,0.6-0.8c0.3-0.3,0.7-0.7,1.1-1c0.4-0.3,0.7-0.7,1-1.1
		c0.3-0.4,0.4-0.9,0.3-1.4c-0.2-0.4-0.5-0.8-1-0.9c-0.5-0.2-1-0.2-1.5-0.3c-0.5,0-1-0.1-1.5-0.2c-0.3,0-0.6-0.1-0.9-0.3
		c-0.2-0.2-0.4-0.5-0.6-0.8c-0.2-0.4-0.4-0.9-0.6-1.3c-0.2-0.5-0.4-0.9-0.7-1.3c-0.3-0.4-0.7-0.7-1.2-0.7L102.3,35z M102.3,35.9
		c0.1,0,0.3,0.1,0.5,0.3c0.3,0.4,0.5,0.7,0.6,1.1c0.2,0.5,0.4,0.9,0.6,1.4c0.2,0.4,0.5,0.8,0.8,1.1c0.4,0.3,0.9,0.4,1.3,0.5
		c0.5,0.1,1,0.1,1.5,0.2c0.4,0,0.9,0.1,1.3,0.2c0.3,0.1,0.4,0.2,0.5,0.3s0,0.3-0.2,0.6c-0.3,0.3-0.6,0.7-0.9,0.9
		c-0.4,0.3-0.8,0.7-1.1,1c-0.8,0.6-1.1,1.6-0.8,2.6c0.1,0.5,0.2,1,0.3,1.5c0.1,0.4,0.1,0.8,0.2,1.3c0,0.3-0.1,0.5-0.2,0.6
		s-0.3,0.1-0.6,0c-0.4-0.1-0.8-0.3-1.2-0.5c-0.4-0.2-0.9-0.5-1.3-0.8c-0.4-0.2-0.9-0.4-1.3-0.4c-0.5,0-0.9,0.2-1.3,0.4
		c-0.4,0.2-0.9,0.5-1.3,0.8c-0.4,0.2-0.8,0.4-1.2,0.5c-0.3,0.1-0.5,0.1-0.6,0s-0.2-0.2-0.2-0.6c0-0.4,0.1-0.9,0.2-1.3
		c0.1-0.5,0.2-1,0.3-1.5c0.1-0.5,0.1-0.9,0-1.4c-0.2-0.4-0.5-0.8-0.8-1.2c-0.3-0.3-0.8-0.7-1.1-1c-0.3-0.3-0.6-0.6-0.9-0.9
		c-0.2-0.3-0.2-0.4-0.2-0.6s0.2-0.2,0.5-0.3c0.4-0.1,0.8-0.2,1.3-0.2c0.5-0.1,1-0.1,1.5-0.2c0.5,0,0.9-0.2,1.3-0.4
		c0.4-0.3,0.7-0.7,0.8-1.1c0.2-0.4,0.4-0.9,0.6-1.4c0.2-0.4,0.4-0.8,0.6-1.1C102.1,36.1,102.2,36,102.3,35.9L102.3,35.9z"/>
	<path style="clip-path:url(#SVGID_00000081638288059433139420000004466539456663768459_);fill:#423D3D;" d="M93.1,34.1
		c0-0.3,0.1-0.5,0.3-0.7c0.2-0.2,0.4-0.3,0.7-0.3c0.6,0,1,0.4,1,1s-0.4,1-1,1c-0.3,0-0.5-0.1-0.7-0.3C93.2,34.6,93.1,34.4,93.1,34.1
		L93.1,34.1z"/>
	<path style="clip-path:url(#SVGID_00000081638288059433139420000004466539456663768459_);fill:#423D3D;" d="M45,0H16H0v16
		c0,7,0,14,0,21c10.3,12.3,28.7,14,41,3.7c6.7-5.5,10.5-13.8,10.5-22.4C51.5,11.6,49.2,5.2,45,0z"/>
	<g style="clip-path:url(#SVGID_00000081638288059433139420000004466539456663768459_);enable-background:new    ;">
		<text transform="matrix(1 0 0 1 15.57 31.75)" class="st2 st3 st15">09</text>
	</g>
</g>
</svg>
