<svg id="Слой_1" data-name="Слой 1" xmlns="http://www.w3.org/2000/svg" viewBox="0 0 195.59 280.63"><defs><style>.cls-1{font-size:34px;}.cls-1,.cls-17{fill:#eb5a53;}.cls-1,.cls-18{font-family:Impact;}.cls-2{fill:#1a1a1a;}.cls-3{fill:#ccc;}.cls-4{fill:#e5d8aa;}.cls-5{fill:#d2b77f;}.cls-6{fill:#49838f;}.cls-7{fill:#f7c971;}.cls-8{fill:#ffe6a6;}.cls-9{fill:#db9c5f;}.cls-10{fill:#595959;}.cls-11{fill:#444;}.cls-12{fill:#818181;}.cls-13{fill:#a8a8a8;}.cls-14{fill:#d6d6d6;}.cls-15{fill:#ee723a;}.cls-16{fill:#dc4a24;}.cls-18{font-size:20px;fill:#fff;}</style></defs><text class="cls-1" transform="translate(37.2 73.24)">nie byli na<tspan x="20.2" y="33">Księżycu</tspan></text><path class="cls-2" d="M165.14,198.51a33.91,33.91,0,1,0,33.92,33.91,34,34,0,0,0-33.92-33.91Zm0,9.41a24.5,24.5,0,1,1-24.5,24.5,24.43,24.43,0,0,1,24.5-24.5Zm0,0"/><path class="cls-2" d="M165.14,193.82a38.62,38.62,0,0,0-27.29,11.3l-3.33,3.33,13,13,3.33-3.33a20.28,20.28,0,0,1,14.26-5.93h.06a20.25,20.25,0,0,1,17.55,10.13l2.35,4.07,15.89-9.17-2.36-4.07a38.6,38.6,0,0,0-33.43-19.3Zm0,0"/><path class="cls-2" d="M125,162.55a8,8,0,0,0-7.27,6.83h0l-7.3,55.43a4.7,4.7,0,0,0,7.36,4.47,4.77,4.77,0,0,0,3,1.64,4.7,4.7,0,0,0,5.28-4l7.3-55.43a8,8,0,0,0-6.79-8.85,7.53,7.53,0,0,0-1.57,0Zm0,0"/><path class="cls-2" d="M37.28,217.4a4.7,4.7,0,0,0-4.7,4.71v6.77a4.69,4.69,0,0,0,4.7,4.7H155.53a4.7,4.7,0,0,0,4.71-4.7v-6.77a4.71,4.71,0,0,0-4.71-4.71Zm0,0"/><rect class="cls-3" x="23.89" y="170.93" width="7.27" height="32.52"/><rect class="cls-2" x="19.18" y="166.22" width="16.68" height="41.93"/><path class="cls-2" d="M49.62,104.35A4.7,4.7,0,0,0,45.41,107a15.43,15.43,0,0,1-18.83,7.76,4.72,4.72,0,0,0-5.75,2.39A15.39,15.39,0,0,1,2,124.91a4.72,4.72,0,0,0-5.75,2.38,15.36,15.36,0,0,1-7.95,7.46,15.43,15.43,0,0,1-10.85.36,4.71,4.71,0,0,0-5.6,2.14,4.71,4.71,0,0,0,1,5.9,49.52,49.52,0,0,0,51,8.07,49.53,49.53,0,0,0,30.39-41.79,4.71,4.71,0,0,0-4.7-5.08ZM41,123.13a39.77,39.77,0,0,1-20.62,19.39A39.76,39.76,0,0,1-8,143.39a24.81,24.81,0,0,0,10.68-8.63,24.67,24.67,0,0,0,24.57-10.18A24.78,24.78,0,0,0,41,123.13Zm0,0"/><path class="cls-2" d="M22.14,137.85a9,9,0,1,0,9,9,9.09,9.09,0,0,0-9-9Zm0,8.63a.39.39,0,1,1-.39.39.49.49,0,0,1,.39-.39Zm0,0"/><path class="cls-2" d="M84.35,198.66a8.87,8.87,0,0,0-8.79,8.79v14.66a4.7,4.7,0,0,0,4.71,4.7h37a4.7,4.7,0,0,0,4.71-4.7V207.45a8.87,8.87,0,0,0-8.79-8.79Zm.62,9.41h27.6v9.33H85Zm0,0"/><rect class="cls-2" x="156.88" y="166.22" width="16.68" height="41.93"/><path class="cls-2" d="M84.82,174.87a4.71,4.71,0,0,0-4.7,4.71v5.2a10,10,0,0,0,9.9,9.9h2.65a10,10,0,0,0,9.91-9.9v-5.2a4.71,4.71,0,0,0-4.71-4.71Zm4.71,9.41h3.64v.5c0,.35-.14.49-.5.49H90c-.35,0-.49-.14-.49-.49Zm0,0"/><path class="cls-2" d="M85.36,170.14a7.07,7.07,0,1,0,0,14.14h12a7.07,7.07,0,1,0,0-14.14Zm0,0"/><rect class="cls-2" x="83.9" y="158.56" width="14.9" height="20.99"/><path class="cls-2" d="M27.52,198.51a33.91,33.91,0,1,0,33.92,33.91,34,34,0,0,0-33.92-33.91Zm0,9.41A24.5,24.5,0,1,1,3,232.42a24.43,24.43,0,0,1,24.5-24.5Zm0,0"/><path class="cls-2" d="M27.52,193.82A38.64,38.64,0,0,0,.23,205.12l-3.33,3.33,13,13,3.33-3.33a20.28,20.28,0,0,1,14.26-5.93h.06a20.25,20.25,0,0,1,17.55,10.13l2.35,4.08,15.89-9.18L61,213.12a38.6,38.6,0,0,0-33.43-19.3Zm0,0"/><path class="cls-2" d="M7.25,107.94a2.92,2.92,0,0,0-2.73,1.81,2.92,2.92,0,0,0,0,2.25L12,130.05a2.94,2.94,0,0,0,5.43-2.25l-7.45-18a2.94,2.94,0,0,0-2.7-1.82Zm0,0"/><path class="cls-2" d="M72.46,127.41a2.94,2.94,0,0,0-2.08.86,2.88,2.88,0,0,0-.86,2.08V183a6.65,6.65,0,0,0,2.73,5.07l5.55,4.26a3,3,0,0,0,1.79.61h3.2v10.45a2.94,2.94,0,1,0,5.88,0V190A2.93,2.93,0,0,0,85.73,187H80.58l-4.75-3.65h0c-.55-.42-.43-.22-.43-.41V130.35a3,3,0,0,0-2.94-2.94Zm0,0"/><path class="cls-2" d="M22.13,143.93a2.94,2.94,0,0,0-2.94,2.94v67.19a2.94,2.94,0,0,0,5.88,0V146.87a2.94,2.94,0,0,0-2.94-2.94Zm0,0"/><path class="cls-2" d="M165.22,156.11a2.94,2.94,0,0,0-2.94,2.94v11.88a2.94,2.94,0,1,0,5.88,0V159.05a2.94,2.94,0,0,0-2.94-2.94Zm0,0"/><path class="cls-2" d="M159.55,137.5a6.94,6.94,0,0,0-6.89,6.89V162h25.12v-17.6a6.94,6.94,0,0,0-6.9-6.89Zm0,5.88h11.33a1,1,0,0,1,1,1v11.72H158.54V144.39a1,1,0,0,1,1-1Zm0,0"/><path class="cls-4" d="M84.82,179.58H97.87v5.2a5.19,5.19,0,0,1-5.2,5.2H90a5.19,5.19,0,0,1-5.2-5.2Zm0,0"/><path class="cls-5" d="M84.82,180.87v3.91A5.19,5.19,0,0,0,90,190h2.65a5.19,5.19,0,0,0,5.2-5.2v-3.91a5.19,5.19,0,0,1-5.2,5.2H90a5.19,5.19,0,0,1-5.2-5.2Zm0,0"/><path class="cls-6" d="M85.36,174.84h12a2.37,2.37,0,1,1,0,4.74h-12a2.37,2.37,0,0,1,0-4.74Zm0,0"/><rect class="cls-4" x="88.6" y="163.26" width="5.49" height="11.58"/><path class="cls-6" d="M121.35,226.25l7.3-55.43a3.18,3.18,0,0,0-6.31-.82L115,225.42Zm0,0"/><path class="cls-2" d="M125.18,166.07a4.36,4.36,0,0,0-4,3.77l-7.3,55.43a1.18,1.18,0,0,0,1.88,1.09,1.16,1.16,0,0,0,.45-.78l7.3-55.43a2,2,0,1,1,4,.52l-7.3,55.43a1.19,1.19,0,0,0,1,1.32,1.17,1.17,0,0,0,1.31-1l7.3-55.43a4.38,4.38,0,0,0-3.75-4.89,4.32,4.32,0,0,0-.88,0Zm0,0"/><path class="cls-4" d="M84.35,203.37h28.84a4.07,4.07,0,0,1,4.08,4.08v14.66h-37V207.45a4.07,4.07,0,0,1,4.08-4.08Zm0,0"/><rect class="cls-5" x="80.27" y="217.3" width="37" height="4.81"/><rect class="cls-5" x="37.28" y="222.11" width="118.25" height="6.77"/><rect class="cls-4" x="23.89" y="170.93" width="7.27" height="32.52"/><path class="cls-5" d="M27.52,189.67q-1.82,0-3.63.15v13.63h7.27V189.82c-1.21-.1-2.42-.15-3.64-.15Zm0,0"/><path class="cls-2" d="M22.71,169.75v34.88h9.63V169.75Zm2.35,2.35H30v30.17H25.06Zm0,0"/><rect class="cls-4" x="161.58" y="170.93" width="7.27" height="32.52"/><path class="cls-5" d="M165.14,189.67c-1.19,0-2.37.05-3.56.15v13.63h7.27V189.83c-1.23-.11-2.47-.16-3.71-.16Zm0,0"/><path class="cls-2" d="M160.41,169.75v34.88H170V169.75Zm2.35,2.35h4.92v30.17h-4.92Zm0,0"/><path class="cls-2" d="M37.28,220.93a1.18,1.18,0,0,0-1.17,1.18v6.77a1.17,1.17,0,0,0,1.17,1.17H155.53a1.17,1.17,0,0,0,1.18-1.17v-6.77a1.17,1.17,0,0,0-.34-.83,1.19,1.19,0,0,0-.84-.35Zm1.18,2.35h115.9v4.42H38.46Zm0,0"/><path class="cls-2" d="M84.35,202.19a5.28,5.28,0,0,0-5.26,5.26v14.66a1.17,1.17,0,0,0,1.18,1.17h37a1.17,1.17,0,0,0,1.18-1.17V207.45a5.28,5.28,0,0,0-5.26-5.26Zm0,2.36h28.84a2.87,2.87,0,0,1,2.91,2.9v13.48H81.45V207.45a2.86,2.86,0,0,1,2.9-2.9Zm0,0"/><path class="cls-2" d="M80.27,208.28a1.18,1.18,0,0,0,0,2.36h37a1.18,1.18,0,0,0,0-2.36Zm0,0"/><path class="cls-2" d="M84.82,178.4a1.17,1.17,0,0,0-1.17,1.18v5.2A6.38,6.38,0,0,0,90,191.15h2.65a6.38,6.38,0,0,0,6.38-6.37v-5.2a1.18,1.18,0,0,0-1.18-1.18ZM86,180.76H96.7v4a4,4,0,0,1-4,4H90a4,4,0,0,1-4-4Zm0,0"/><path class="cls-2" d="M85.36,173.67a3.55,3.55,0,0,0,0,7.09h12a3.55,3.55,0,1,0,0-7.09Zm0,2.35h12a1.19,1.19,0,1,1,0,2.38h-12a1.19,1.19,0,1,1,0-2.38Zm0,0"/><path class="cls-2" d="M87.43,162.09V176h7.84V162.09Zm2.35,2.35h3.14v9.23H89.78Zm0,0"/><path class="cls-4" d="M53.73,150.44v16.24l8.45,4.88h8.45V150.44Zm0,0"/><path class="cls-2" d="M49,145.73V169.4l11.9,6.87H75.33V145.73Zm9.41,9.41h7.49v11.72H63.44l-5-2.89Zm0,0"/><path class="cls-4" d="M53.73,150.44v16.24l8.45,4.88h8.45V150.44Zm0,0"/><path class="cls-5" d="M53.73,159.9v6.78l8.45,4.88h8.45v-9.43Zm0,0"/><path class="cls-2" d="M52.55,149.26v18.1l9.31,5.38H71.8V149.26Zm2.35,2.35H69.45v18.78h-7L54.9,166Zm0,0"/><rect class="cls-6" x="59.53" y="150.44" width="5.3" height="7.95"/><path class="cls-2" d="M58.35,149.26v10.31H66V149.26Zm2.35,2.35h2.95v5.6H60.7Zm0,0"/><path class="cls-7" d="M.49,129.36A20.13,20.13,0,0,1-9.89,139.1a20.06,20.06,0,0,1-14.19.44A44.76,44.76,0,0,0,49.63,109a20.11,20.11,0,0,1-24.57,10.18A20.12,20.12,0,0,1,.49,129.36Zm0,0"/><path class="cls-8" d="M.49,129.36A20.13,20.13,0,0,1-9.89,139.1a20.06,20.06,0,0,1-14.19.44,44.74,44.74,0,0,0,46.21,7.33c-9.51-2.54-16.57-10.09-21.61-17.5Zm0,0"/><path class="cls-9" d="M49.63,109a20.11,20.11,0,0,1-24.57,10.18c1.67,8.8,2,19.16-2.92,27.68A44.75,44.75,0,0,0,49.63,109Zm0,0"/><path class="cls-2" d="M1.49,128.71-.45,130c5.11,7.52,12.35,15.31,22.27,18l.61-2.27c-9.08-2.44-16-9.73-20.94-17Zm0,0"/><path class="cls-2" d="M26.21,119l-2.31.44c1.65,8.66,1.92,18.73-2.78,26.87l2,1.18c5.13-8.9,4.76-19.55,3.05-28.49Zm0,0"/><path class="cls-2" d="M49.6,107.88a1.18,1.18,0,0,0-1,.65,19,19,0,0,1-23.13,9.54,1.19,1.19,0,0,0-1.44.6A18.92,18.92,0,0,1,.87,128.25a1.18,1.18,0,0,0-1.44.6A18.91,18.91,0,0,1-10.34,138a19,19,0,0,1-13.33.45,1.17,1.17,0,0,0-1.4.53,1.18,1.18,0,0,0,.26,1.48A45.94,45.94,0,0,0,50.8,109.15a1.18,1.18,0,0,0-1.2-1.27ZM47.73,114A43.53,43.53,0,0,1-19.2,141.73a21.3,21.3,0,0,0,9.76-1.54,21.26,21.26,0,0,0,10.5-9.43,21.21,21.21,0,0,0,24.58-10.18A21.23,21.23,0,0,0,47.73,114Zm0,0"/><path class="cls-6" d="M26.45,146.87a4.31,4.31,0,1,1-4.31-4.32,4.31,4.31,0,0,1,4.31,4.32Zm0,0"/><path class="cls-2" d="M22.14,141.38a5.49,5.49,0,1,0,5.49,5.49,5.51,5.51,0,0,0-5.49-5.49Zm0,2.35A3.14,3.14,0,1,1,19,146.87a3.12,3.12,0,0,1,3.14-3.14Zm0,0"/><path class="cls-10" d="M56.73,232.42a29.2,29.2,0,1,1-29.21-29.21,29.21,29.21,0,0,1,29.21,29.21Zm0,0"/><path class="cls-11" d="M46.2,232.42a18.67,18.67,0,1,1-18.68-18.68A18.68,18.68,0,0,1,46.2,232.42Zm0,0"/><path class="cls-12" d="M27.52,206.48a25.94,25.94,0,0,0,0,51.88,1,1,0,0,0,0-1.94,24,24,0,0,1,0-48,1,1,0,0,0,0-1.94Zm0,0"/><path class="cls-2" d="M27.52,202a30.39,30.39,0,1,0,30.39,30.38A30.4,30.4,0,0,0,27.52,202Zm0,2.35a28,28,0,1,1-28,28,28,28,0,0,1,28-28Zm0,0"/><path class="cls-13" d="M42.4,232.42a14.87,14.87,0,1,1-4.35-10.52,14.86,14.86,0,0,1,4.35,10.52Zm0,0"/><path class="cls-14" d="M38.52,232.42a11,11,0,1,1-11-11,11,11,0,0,1,11,11Zm0,0"/><path class="cls-13" d="M31.38,232.42a3.86,3.86,0,1,1-3.86-3.86,3.86,3.86,0,0,1,3.86,3.86Zm0,0"/><path class="cls-15" d="M3.55,208.45l6.32,6.32a25,25,0,0,1,39.27,5.17l7.74-4.47a33.9,33.9,0,0,0-53.33-7Zm0,0"/><path class="cls-16" d="M36.77,199.81a52.55,52.55,0,0,0-10.69,7.69c.47,0,.94,0,1.41,0a24.92,24.92,0,0,1,21.65,12.48l7.74-4.47a33.89,33.89,0,0,0-20.11-15.66Zm0,0"/><path class="cls-2" d="M27.52,197.35a35.07,35.07,0,0,0-24.8,10.27l-.83.83.83.83,7.15,7.15.83-.83a23.79,23.79,0,0,1,37.43,4.93l.58,1,9.78-5.64-.59-1a35.09,35.09,0,0,0-30.38-17.53Zm0,2.35a32.71,32.71,0,0,1,27.72,15.36l-5.7,3.29a26.07,26.07,0,0,0-39.63-5.2l-4.65-4.66a32.69,32.69,0,0,1,22.26-8.79Zm0,0"/><path class="cls-2" d="M27.52,216.36a16.06,16.06,0,1,0,16.06,16.06,16.08,16.08,0,0,0-16.06-16.06Zm0,2.36a13.7,13.7,0,1,1-13.7,13.7,13.68,13.68,0,0,1,13.7-13.7Zm0,0"/><path class="cls-2" d="M27.52,227.39a5,5,0,1,0,5,5,5,5,0,0,0-5-5Zm0,2.35a2.68,2.68,0,1,1-2.68,2.68,2.67,2.67,0,0,1,2.68-2.68Zm0,0"/><path class="cls-2" d="M88,215.78a1.53,1.53,0,0,1-.43,1.06,1.49,1.49,0,1,1,0-2.11,1.53,1.53,0,0,1,.43,1.05Zm0,0"/><path class="cls-2" d="M112.57,215.78a1.49,1.49,0,0,1-1.49,1.49,1.47,1.47,0,0,1-1-.43,1.48,1.48,0,0,1,0-2.11,1.47,1.47,0,0,1,1-.43,1.49,1.49,0,0,1,1.49,1.48Zm0,0"/><path class="cls-2" d="M67.58,166.47a1.49,1.49,0,1,1-3,0,1.47,1.47,0,0,1,.43-1.05,1.48,1.48,0,0,1,2.54,1.05Zm0,0"/><path class="cls-2" d="M59.75,163.3a1.5,1.5,0,1,1-.44-1.05,1.49,1.49,0,0,1,.44,1.05Zm0,0"/><path class="cls-10" d="M194.35,232.42a29.2,29.2,0,1,1-29.21-29.21,29.21,29.21,0,0,1,29.21,29.21Zm0,0"/><path class="cls-11" d="M183.82,232.42a18.67,18.67,0,1,1-18.68-18.68,18.68,18.68,0,0,1,18.68,18.68Zm0,0"/><path class="cls-12" d="M165.14,206.48a25.94,25.94,0,0,0,0,51.88,1,1,0,0,0,.69-.28,1,1,0,0,0,.28-.69,1,1,0,0,0-1-1,24,24,0,0,1,0-48,1,1,0,0,0,1-1,1,1,0,0,0-1-1Zm0,0"/><path class="cls-2" d="M165.14,202a30.39,30.39,0,1,0,30.39,30.38A30.4,30.4,0,0,0,165.14,202Zm0,2.35a28,28,0,1,1-28,28,28,28,0,0,1,28-28Zm0,0"/><path class="cls-13" d="M180,232.42a14.88,14.88,0,1,1-14.88-14.88A14.88,14.88,0,0,1,180,232.42Zm0,0"/><path class="cls-14" d="M176.14,232.42a11,11,0,1,1-11-11,11,11,0,0,1,11,11Zm0,0"/><path class="cls-13" d="M169,232.42a3.86,3.86,0,1,1-3.86-3.86,3.86,3.86,0,0,1,3.86,3.86Zm0,0"/><path class="cls-15" d="M141.17,208.45l6.32,6.32a25,25,0,0,1,39.27,5.17l7.74-4.47a33.9,33.9,0,0,0-53.33-7Zm0,0"/><path class="cls-16" d="M174.39,199.81a52.28,52.28,0,0,0-10.69,7.69c.47,0,.94,0,1.41,0a24.92,24.92,0,0,1,21.65,12.48l7.74-4.47a33.89,33.89,0,0,0-20.11-15.66Zm0,0"/><path class="cls-2" d="M165.14,197.35a35.07,35.07,0,0,0-24.8,10.27l-.83.83,8,8,.83-.83a23.78,23.78,0,0,1,37.42,4.93l.59,1,9.78-5.64-.59-1a35.07,35.07,0,0,0-30.38-17.53Zm0,2.35a32.71,32.71,0,0,1,27.72,15.36l-5.7,3.29a26.07,26.07,0,0,0-39.63-5.2l-4.65-4.66a32.69,32.69,0,0,1,22.26-8.79Zm0,0"/><path class="cls-2" d="M165.14,216.36a16.06,16.06,0,1,0,16.06,16.06,16.08,16.08,0,0,0-16.06-16.06Zm0,2.36a13.7,13.7,0,1,1-13.7,13.7,13.68,13.68,0,0,1,13.7-13.7Zm0,0"/><path class="cls-2" d="M165.14,227.39a5,5,0,1,0,5,5,5,5,0,0,0-5-5Zm0,2.35a2.68,2.68,0,1,1-2.68,2.68,2.67,2.67,0,0,1,2.68-2.68Zm0,0"/><path class="cls-17" d="M45,0,16,0H0L0,16c0,7,0,14,0,21A29.11,29.11,0,0,0,51.47,18.3,28.92,28.92,0,0,0,45,0Z"/><text class="cls-18" transform="translate(15.57 31.75)">04</text></svg>