<?xml version="1.0" encoding="utf-8"?>
<!-- Generator: Adobe Illustrator 26.0.3, SVG Export Plug-In . SVG Version: 6.00 Build 0)  -->
<svg version="1.1" id="Слой_1" xmlns="http://www.w3.org/2000/svg" xmlns:xlink="http://www.w3.org/1999/xlink" x="0px" y="0px"
	 viewBox="0 0 195.6 280.6" style="enable-background:new 0 0 195.6 280.6;" xml:space="preserve">
<style type="text/css">
	.st0{clip-path:url(#SVGID_00000121270503054757044580000005412250634845069473_);fill:#E83E3E;}
	.st1{clip-path:url(#SVGID_00000121270503054757044580000005412250634845069473_);enable-background:new    ;}
	.st2{fill:#FFFFFF;}
	.st3{font-family:'Impact';}
	.st4{font-size:63.44px;}
	.st5{font-size:21.68px;}
	.st6{clip-path:url(#SVGID_00000121270503054757044580000005412250634845069473_);fill:#FFFFFF;}
	.st7{clip-path:url(#SVGID_00000121270503054757044580000005412250634845069473_);fill:#1A1A1A;}
	.st8{clip-path:url(#SVGID_00000121270503054757044580000005412250634845069473_);fill:#BADBE9;}
	.st9{clip-path:url(#SVGID_00000121270503054757044580000005412250634845069473_);fill:#777E69;}
	.st10{clip-path:url(#SVGID_00000121270503054757044580000005412250634845069473_);fill:#9FA98D;}
	.st11{clip-path:url(#SVGID_00000121270503054757044580000005412250634845069473_);fill:#423D3D;}
	.st12{clip-path:url(#SVGID_00000121270503054757044580000005412250634845069473_);fill:#5A5252;}
	.st13{clip-path:url(#SVGID_00000121270503054757044580000005412250634845069473_);fill:#7F6D6B;}
	.st14{clip-path:url(#SVGID_00000121270503054757044580000005412250634845069473_);fill:#E83B54;}
	.st15{font-size:20px;}
</style>
<g>
	<defs>
		<rect id="SVGID_1_" x="0" y="0" width="195.6" height="280.6"/>
	</defs>
	<clipPath id="SVGID_00000152255557554487724650000010062006631333956000_">
		<use xlink:href="#SVGID_1_"  style="overflow:visible;"/>
	</clipPath>
	
		<rect x="-279.2" y="-10.6" style="clip-path:url(#SVGID_00000152255557554487724650000010062006631333956000_);fill:#E83E3E;" width="498.5" height="306.7"/>
	<g style="clip-path:url(#SVGID_00000152255557554487724650000010062006631333956000_);enable-background:new    ;">
		<text transform="matrix(1 0 0 1 32.57 264.13)" class="st2 st3 st4">USSR</text>
	</g>
	<g style="clip-path:url(#SVGID_00000152255557554487724650000010062006631333956000_);enable-background:new    ;">
		<text transform="matrix(1 0 0 1 34.24 208.16)" class="st2 st3 st5">pożegnali się z</text>
	</g>
	<path style="clip-path:url(#SVGID_00000152255557554487724650000010062006631333956000_);fill:#FFFFFF;" d="M99.4,103.8h-0.3h-0.1
		H99h-0.1h-0.1h-0.1h-0.1h-0.1h-0.1h-0.1l-0.1,0.1l-0.1,0.1l-0.1,0.1l-0.1,0.1l-0.1,0.1c0,0,0,0,0,0.1c0,0,0,0,0,0.1v0.1
		c0,0,0,0.1,0,0.1v0.1v0.1c0,0,0,0.1,0,0.1v0.1c0,0,0,0.1,0,0.1c0,0,0,0.1,0,0.1c0,0,0,0.1,0,0.1s0,0,0,0.1v0.2c0,0,0,0.1,0,0.1
		c0,0,0,0.1,0,0.1s0,0.1,0,0.1s0,0.1,0,0.1l0,0l0,0c0,0,0,0.1,0,0.1v0.1v0.1c0,0,0,0,0,0.1v0.1c0,0,0,0,0,0.1c0,0,0,0,0,0.1l0.1,0.1
		v0.1l0.1,0.1l0.1,0.1h0.1h0.1l0.1,0.1h0.1h0.1c0,0,0.1,0,0.1,0h0.1h0.1H99h0.1h0.1h0.1h0.5h0.1h0.1l0,0h0.1h0.1h0.1h0.1h0.1h0.1
		l0.1-0.1l0.1-0.1l0.1-0.1l0.1-0.1l0.1-0.1l0.1-0.1V106v-0.1l0.1-0.1c0,0,0,0,0-0.1c0,0,0-0.1,0-0.1v-0.1v-0.1c0,0,0,0,0-0.1
		c0,0,0-0.1,0-0.1c0,0,0-0.1,0-0.1s0-0.1,0-0.1c0,0,0-0.1,0-0.1v-0.2c0,0,0-0.1,0-0.1s0-0.1,0-0.1s0-0.1,0-0.1c0,0,0-0.1,0-0.1l0,0
		l0,0v-0.1c0,0,0-0.1,0-0.1v-0.1v-0.1v-0.1l-0.1-0.1V104v-0.1l-0.1-0.1l-0.1-0.1l-0.1-0.1h-0.1c0,0,0,0-0.1-0.1h-0.1h-0.1h-0.1h-0.1
		h-0.1H100h-0.1h-0.1h-0.1L99.4,103.8L99.4,103.8z"/>
	<path style="clip-path:url(#SVGID_00000152255557554487724650000010062006631333956000_);fill:#FFFFFF;" d="M99.4,103.8h-0.3h-0.1
		H99h-0.1h-0.1h-0.1h-0.1h-0.1h-0.1h-0.1l-0.1,0.1l-0.1,0.1l-0.1,0.1l-0.1,0.1l-0.1,0.1c0,0,0,0,0,0.1c0,0,0,0,0,0.1v0.1
		c0,0,0,0.1,0,0.1v0.1v0.1c0,0,0,0.1,0,0.1v0.1c0,0,0,0.1,0,0.1c0,0,0,0.1,0,0.1c0,0,0,0.1,0,0.1s0,0,0,0.1v0.2c0,0,0,0.1,0,0.1
		c0,0,0,0.1,0,0.1s0,0.1,0,0.1s0,0,0,0.1l0,0l0,0c0,0,0,0.1,0,0.1v0.1v0.1c0,0,0,0,0,0.1v0.1c0,0,0,0,0,0.1c0,0,0,0,0,0.1l0.1,0.1
		v0.1l0.1,0.1l0.1,0.1h0.1h0.1l0.1,0.1h0.1h0.1c0,0,0.1,0,0.1,0h0.1h0.1H99h0.1h0.1h0.1h0.4h0.1h0.1h0.1l0,0h0.1h0.1
		c0,0,0.1,0,0.1,0h0.1h0.1c0,0-7569.5-10597.7,0.1-0.1h0.1l0.1-0.1l0.1-0.1l0.1-0.1l0.1-0.1c0,0,0,0,0-0.1v-0.1c0,0,0-0.1,0.1-0.1
		v-0.1c0,0,0-0.1,0-0.1v-0.1v-0.1c0,0,0,0,0-0.1c0,0,0-0.1,0-0.1c0,0,0-0.1,0-0.1s0,0,0-0.1c0,0,0-0.1,0-0.1v-0.2c0,0,0-0.1,0-0.1
		s0-0.1,0-0.1s0,0,0-0.1c0,0,0-0.1,0-0.1l0,0l0,0v-0.1v-0.1v-0.1v-0.1v-0.1l-0.1-0.1V104v-0.1l-0.1-0.1l-0.1-0.1l-0.1-0.1l-0.1-0.1
		h-0.1h-0.1h-0.1h-0.1h-0.1h-0.1H100h-0.1h-0.1h-0.2h-0.1L99.4,103.8L99.4,103.8z"/>
	<path style="clip-path:url(#SVGID_00000152255557554487724650000010062006631333956000_);fill:#FFFFFF;" d="M99.4,103.8h-0.3h-0.1
		H99h-0.1h-0.1h-0.1h-0.1h-0.1h-0.1h-0.1l-0.1,0.1l-0.1,0.1l-0.1,0.1l-0.1,0.1l-0.1,0.1c0,0,0,0,0,0.1c0,0,0,0,0,0.1v0.1
		c0,0,0,0.1,0,0.1v0.1v0.1c0,0,0,0.1,0,0.1v0.1c0,0,0,0.1,0,0.1c0,0,0,0.1,0,0.1c0,0,0,0.1,0,0.1s0,0,0,0.1v0.2c0,0,0,0.1,0,0.1
		c0,0,0,0.1,0,0.1s0,0.1,0,0.1s0,0,0,0.1l0,0l0,0c0,0,0,0.1,0,0.1v0.1v0.1c0,0,0,0,0,0.1v0.1c0,0,0,0,0,0.1c0,0,0,0,0,0.1l0.1,0.1
		v0.1l0.1,0.1l0.1,0.1h0.1h0.1l0.1,0.1h0.1h0.1c0,0,0.1,0,0.1,0h0.1h0.1H99h0.1h0.1h0.1h0.4h0.1h0.1h0.1l0,0h0.1h0.1
		c0,0,0.1,0,0.1,0h0.1h0.1c0,0-7569.5-10597.7,0.1-0.1h0.1l0.1-0.1l0.1-0.1l0.1-0.1l0.1-0.1c0,0,0,0,0-0.1v-0.1c0,0,0-0.1,0.1-0.1
		v-0.1c0,0,0-0.1,0-0.1v-0.1v-0.1c0,0,0,0,0-0.1c0,0,0-0.1,0-0.1c0,0,0-0.1,0-0.1s0,0,0-0.1c0,0,0-0.1,0-0.1v-0.2c0,0,0-0.1,0-0.1
		s0-0.1,0-0.1s0,0,0-0.1c0,0,0-0.1,0-0.1l0,0l0,0v-0.1v-0.1v-0.1v-0.1v-0.1l-0.1-0.1V104v-0.1l-0.1-0.1l-0.1-0.1l-0.1-0.1l-0.1-0.1
		h-0.1h-0.1h-0.1h-0.1h-0.1h-0.1H100h-0.1h-0.1h-0.2h-0.1L99.4,103.8L99.4,103.8z"/>
	<path style="clip-path:url(#SVGID_00000152255557554487724650000010062006631333956000_);fill:#FFFFFF;" d="M99.4,103.8h-0.3h-0.1
		H99h-0.1h-0.1h-0.1h-0.1h-0.1h-0.1h-0.1l-0.1,0.1l-0.1,0.1l-0.1,0.1l-0.1,0.1l-0.1,0.1c0,0,0,0,0,0.1c0,0,0,0,0,0.1v0.1
		c0,0,0,0.1,0,0.1v0.1v0.1c0,0,0,0.1,0,0.1v0.1c0,0,0,0.1,0,0.1c0,0,0,0.1,0,0.1c0,0,0,0.1,0,0.1s0,0,0,0.1v0.2c0,0,0,0.1,0,0.1
		c0,0,0,0.1,0,0.1s0,0.1,0,0.1s0,0,0,0.1l0,0l0,0c0,0,0,0.1,0,0.1v0.1v0.1c0,0,0,0,0,0.1v0.1c0,0,0,0,0,0.1c0,0,0,0,0,0.1l0.1,0.1
		v0.1l0.1,0.1l0.1,0.1h0.1h0.1l0.1,0.1h0.1h0.1c0,0,0.1,0,0.1,0h0.1h0.1H99h0.1h0.1h0.1h0.4h0.1h0.1h0.1l0,0h0.1h0.1
		c0,0,0.1,0,0.1,0h0.1h0.1c0,0-7569.5-10597.7,0.1-0.1h0.1l0.1-0.1l0.1-0.1l0.1-0.1l0.1-0.1c0,0,0,0,0-0.1v-0.1c0,0,0-0.1,0.1-0.1
		v-0.1c0,0,0-0.1,0-0.1v-0.1v-0.1c0,0,0,0,0-0.1c0,0,0-0.1,0-0.1c0,0,0-0.1,0-0.1s0,0,0-0.1c0,0,0-0.1,0-0.1v-0.2c0,0,0-0.1,0-0.1
		s0-0.1,0-0.1s0,0,0-0.1c0,0,0-0.1,0-0.1l0,0l0,0v-0.1v-0.1v-0.1v-0.1v-0.1l-0.1-0.1V104v-0.1l-0.1-0.1l-0.1-0.1l-0.1-0.1l-0.1-0.1
		h-0.1h-0.1h-0.1h-0.1h-0.1h-0.1H100h-0.1h-0.1h-0.2h-0.1L99.4,103.8L99.4,103.8z"/>
	<path style="clip-path:url(#SVGID_00000152255557554487724650000010062006631333956000_);fill:#FFFFFF;" d="M99.4,103.8h-0.3h-0.1
		H99h-0.1h-0.1h-0.1h-0.1h-0.1h-0.1h-0.1l-0.1,0.1l-0.1,0.1l-0.1,0.1l-0.1,0.1l-0.1,0.1c0,0,0,0,0,0.1c0,0,0,0,0,0.1v0.1
		c0,0,0,0.1,0,0.1v0.1v0.1c0,0,0,0.1,0,0.1v0.1c0,0,0,0.1,0,0.1c0,0,0,0.1,0,0.1c0,0,0,0.1,0,0.1s0,0,0,0.1v0.2c0,0,0,0.1,0,0.1
		c0,0,0,0.1,0,0.1s0,0.1,0,0.1s0,0,0,0.1l0,0l0,0c0,0,0,0.1,0,0.1v0.1v0.1c0,0,0,0,0,0.1v0.1c0,0,0,0,0,0.1c0,0,0,0,0,0.1l0.1,0.1
		v0.1l0.1,0.1l0.1,0.1h0.1h0.1l0.1,0.1h0.1h0.1c0,0,0.1,0,0.1,0h0.1h0.1H99h0.1h0.1h0.1h0.4h0.1h0.1h0.1l0,0h0.1h0.1
		c0,0,0.1,0,0.1,0h0.1h0.1c0,0-7569.5-10597.7,0.1-0.1h0.1l0.1-0.1l0.1-0.1l0.1-0.1l0.1-0.1c0,0,0,0,0-0.1v-0.1c0,0,0-0.1,0.1-0.1
		v-0.1c0,0,0-0.1,0-0.1v-0.1v-0.1c0,0,0,0,0-0.1c0,0,0-0.1,0-0.1c0,0,0-0.1,0-0.1s0,0,0-0.1c0,0,0-0.1,0-0.1v-0.2c0,0,0-0.1,0-0.1
		s0-0.1,0-0.1s0,0,0-0.1c0,0,0-0.1,0-0.1l0,0l0,0v-0.1v-0.1v-0.1v-0.1v-0.1l-0.1-0.1V104v-0.1l-0.1-0.1l-0.1-0.1l-0.1-0.1l-0.1-0.1
		h-0.1h-0.1h-0.1h-0.1h-0.1h-0.1H100h-0.1h-0.1h-0.2h-0.1L99.4,103.8L99.4,103.8z"/>
	<path style="clip-path:url(#SVGID_00000152255557554487724650000010062006631333956000_);fill:#FFFFFF;" d="M99.4,103.8h-0.3h-0.1
		H99h-0.1h-0.1h-0.1h-0.1h-0.1h-0.1h-0.1l-0.1,0.1l-0.1,0.1l-0.1,0.1l-0.1,0.1l-0.1,0.1c0,0,0,0,0,0.1c0,0,0,0,0,0.1v0.1
		c0,0,0,0.1,0,0.1v0.1v0.1c0,0,0,0.1,0,0.1v0.1c0,0,0,0.1,0,0.1c0,0,0,0.1,0,0.1c0,0,0,0.1,0,0.1s0,0,0,0.1v0.2c0,0,0,0.1,0,0.1
		c0,0,0,0.1,0,0.1s0,0.1,0,0.1s0,0,0,0.1l0,0l0,0c0,0,0,0.1,0,0.1v0.1v0.1c0,0,0,0,0,0.1v0.1c0,0,0,0,0,0.1c0,0,0,0,0,0.1l0.1,0.1
		v0.1l0.1,0.1l0.1,0.1h0.1h0.1l0.1,0.1h0.1h0.1c0,0,0.1,0,0.1,0h0.1h0.1H99h0.1h0.1h0.1h0.4h0.1h0.1h0.1l0,0h0.1h0.1
		c0,0,0.1,0,0.1,0h0.1h0.1c0,0-7569.5-10597.7,0.1-0.1h0.1l0.1-0.1l0.1-0.1l0.1-0.1l0.1-0.1c0,0,0,0,0-0.1v-0.1c0,0,0-0.1,0.1-0.1
		v-0.1c0,0,0-0.1,0-0.1v-0.1v-0.1c0,0,0,0,0-0.1c0,0,0-0.1,0-0.1c0,0,0-0.1,0-0.1s0,0,0-0.1c0,0,0-0.1,0-0.1v-0.2c0,0,0-0.1,0-0.1
		s0-0.1,0-0.1s0,0,0-0.1c0,0,0-0.1,0-0.1l0,0l0,0v-0.1v-0.1v-0.1v-0.1v-0.1l-0.1-0.1V104v-0.1l-0.1-0.1l-0.1-0.1l-0.1-0.1l-0.1-0.1
		h-0.1h-0.1h-0.1h-0.1h-0.1h-0.1H100h-0.1h-0.1h-0.2h-0.1L99.4,103.8L99.4,103.8z"/>
	<path style="clip-path:url(#SVGID_00000152255557554487724650000010062006631333956000_);fill:#FFFFFF;" d="M99.4,103.8h-0.3h-0.1
		H99h-0.1h-0.1h-0.1h-0.1h-0.1h-0.1h-0.1l-0.1,0.1l-0.1,0.1l-0.1,0.1l-0.1,0.1l-0.1,0.1c0,0,0,0,0,0.1c0,0,0,0,0,0.1v0.1
		c0,0,0,0.1,0,0.1v0.1v0.1c0,0,0,0.1,0,0.1v0.1c0,0,0,0.1,0,0.1c0,0,0,0.1,0,0.1c0,0,0,0.1,0,0.1s0,0,0,0.1v0.2c0,0,0,0.1,0,0.1
		c0,0,0,0.1,0,0.1s0,0.1,0,0.1s0,0,0,0.1l0,0l0,0c0,0,0,0.1,0,0.1v0.1v0.1c0,0,0,0,0,0.1v0.1c0,0,0,0,0,0.1c0,0,0,0,0,0.1l0.1,0.1
		v0.1l0.1,0.1l0.1,0.1h0.1h0.1l0.1,0.1h0.1h0.1c0,0,0.1,0,0.1,0h0.1h0.1H99h0.1h0.1h0.1h0.4h0.1h0.1h0.1l0,0h0.1h0.1
		c0,0,0.1,0,0.1,0h0.1h0.1c0,0-7569.5-10597.7,0.1-0.1h0.1l0.1-0.1l0.1-0.1l0.1-0.1l0.1-0.1c0,0,0,0,0-0.1v-0.1c0,0,0-0.1,0.1-0.1
		v-0.1c0,0,0-0.1,0-0.1v-0.1v-0.1c0,0,0,0,0-0.1c0,0,0-0.1,0-0.1c0,0,0-0.1,0-0.1s0,0,0-0.1c0,0,0-0.1,0-0.1v-0.2c0,0,0-0.1,0-0.1
		s0-0.1,0-0.1s0,0,0-0.1c0,0,0-0.1,0-0.1l0,0l0,0v-0.1v-0.1v-0.1v-0.1v-0.1l-0.1-0.1V104v-0.1l-0.1-0.1l-0.1-0.1l-0.1-0.1l-0.1-0.1
		h-0.1h-0.1h-0.1h-0.1h-0.1h-0.1H100h-0.1h-0.1h-0.2h-0.1L99.4,103.8L99.4,103.8z"/>
	<path style="clip-path:url(#SVGID_00000152255557554487724650000010062006631333956000_);fill:#FFFFFF;" d="M99.4,103.8h-0.3h-0.1
		H99h-0.1h-0.1h-0.1h-0.1h-0.1h-0.1h-0.1l-0.1,0.1l-0.1,0.1l-0.1,0.1l-0.1,0.1l-0.1,0.1c0,0,0,0,0,0.1c0,0,0,0,0,0.1v0.1
		c0,0,0,0.1,0,0.1v0.1v0.1c0,0,0,0.1,0,0.1v0.1c0,0,0,0.1,0,0.1c0,0,0,0.1,0,0.1c0,0,0,0.1,0,0.1s0,0,0,0.1v0.2c0,0,0,0.1,0,0.1
		c0,0,0,0.1,0,0.1s0,0.1,0,0.1s0,0,0,0.1l0,0l0,0c0,0,0,0.1,0,0.1v0.1v0.1c0,0,0,0,0,0.1v0.1c0,0,0,0,0,0.1c0,0,0,0,0,0.1l0.1,0.1
		v0.1l0.1,0.1l0.1,0.1h0.1h0.1l0.1,0.1h0.1h0.1c0,0,0.1,0,0.1,0h0.1h0.1H99h0.1h0.1h0.1h0.4h0.1h0.1h0.1l0,0h0.1h0.1
		c0,0,0.1,0,0.1,0h0.1h0.1c0,0-7569.5-10597.7,0.1-0.1h0.1l0.1-0.1l0.1-0.1l0.1-0.1l0.1-0.1c0,0,0,0,0-0.1v-0.1c0,0,0-0.1,0.1-0.1
		v-0.1c0,0,0-0.1,0-0.1v-0.1v-0.1c0,0,0,0,0-0.1c0,0,0-0.1,0-0.1c0,0,0-0.1,0-0.1s0,0,0-0.1c0,0,0-0.1,0-0.1v-0.2c0,0,0-0.1,0-0.1
		s0-0.1,0-0.1s0,0,0-0.1c0,0,0-0.1,0-0.1l0,0l0,0v-0.1v-0.1v-0.1v-0.1v-0.1l-0.1-0.1V104v-0.1l-0.1-0.1l-0.1-0.1l-0.1-0.1l-0.1-0.1
		h-0.1h-0.1h-0.1h-0.1h-0.1h-0.1H100h-0.1h-0.1h-0.2h-0.1L99.4,103.8L99.4,103.8z"/>
	<path style="clip-path:url(#SVGID_00000152255557554487724650000010062006631333956000_);fill:#FFFFFF;" d="M99.4,103.8h-0.3h-0.1
		H99h-0.1h-0.1h-0.1h-0.1h-0.1h-0.1h-0.1l-0.1,0.1l-0.1,0.1l-0.1,0.1l-0.1,0.1l-0.1,0.1c0,0,0,0,0,0.1c0,0,0,0,0,0.1v0.1
		c0,0,0,0.1,0,0.1v0.1v0.1c0,0,0,0.1,0,0.1v0.1c0,0,0,0.1,0,0.1c0,0,0,0.1,0,0.1c0,0,0,0.1,0,0.1s0,0,0,0.1v0.2c0,0,0,0.1,0,0.1
		c0,0,0,0.1,0,0.1s0,0.1,0,0.1s0,0,0,0.1l0,0l0,0c0,0,0,0.1,0,0.1v0.1v0.1c0,0,0,0,0,0.1v0.1c0,0,0,0,0,0.1c0,0,0,0,0,0.1l0.1,0.1
		v0.1l0.1,0.1l0.1,0.1h0.1h0.1l0.1,0.1h0.1h0.1c0,0,0.1,0,0.1,0h0.1h0.1H99h0.1h0.1h0.1h0.4h0.1h0.1h0.1l0,0h0.1h0.1
		c0,0,0.1,0,0.1,0h0.1h0.1c0,0-7569.5-10597.7,0.1-0.1h0.1l0.1-0.1l0.1-0.1l0.1-0.1l0.1-0.1c0,0,0,0,0-0.1v-0.1c0,0,0-0.1,0.1-0.1
		v-0.1c0,0,0-0.1,0-0.1v-0.1v-0.1c0,0,0,0,0-0.1c0,0,0-0.1,0-0.1c0,0,0-0.1,0-0.1s0,0,0-0.1c0,0,0-0.1,0-0.1v-0.2c0,0,0-0.1,0-0.1
		s0-0.1,0-0.1s0,0,0-0.1c0,0,0-0.1,0-0.1l0,0l0,0v-0.1v-0.1v-0.1v-0.1v-0.1l-0.1-0.1V104v-0.1l-0.1-0.1l-0.1-0.1l-0.1-0.1l-0.1-0.1
		h-0.1h-0.1h-0.1h-0.1h-0.1h-0.1H100h-0.1h-0.1h-0.2h-0.1L99.4,103.8L99.4,103.8z"/>
	<path style="clip-path:url(#SVGID_00000152255557554487724650000010062006631333956000_);fill:#FFFFFF;" d="M99.4,103.8h-0.3h-0.1
		H99h-0.1h-0.1h-0.1h-0.1h-0.1h-0.1h-0.1l-0.1,0.1l-0.1,0.1l-0.1,0.1l-0.1,0.1l-0.1,0.1c0,0,0,0,0,0.1c0,0,0,0,0,0.1v0.1
		c0,0,0,0.1,0,0.1v0.1v0.1c0,0,0,0.1,0,0.1v0.1c0,0,0,0.1,0,0.1c0,0,0,0.1,0,0.1c0,0,0,0.1,0,0.1s0,0,0,0.1v0.2c0,0,0,0.1,0,0.1
		c0,0,0,0.1,0,0.1s0,0.1,0,0.1s0,0,0,0.1l0,0l0,0c0,0,0,0.1,0,0.1v0.1v0.1c0,0,0,0,0,0.1v0.1c0,0,0,0,0,0.1c0,0,0,0,0,0.1l0.1,0.1
		v0.1l0.1,0.1l0.1,0.1h0.1h0.1l0.1,0.1h0.1h0.1c0,0,0.1,0,0.1,0h0.1h0.1H99h0.1h0.1h0.1h0.4h0.1h0.1h0.1l0,0h0.1h0.1
		c0,0,0.1,0,0.1,0h0.1h0.1c0,0-7569.5-10597.7,0.1-0.1h0.1l0.1-0.1l0.1-0.1l0.1-0.1l0.1-0.1c0,0,0,0,0-0.1v-0.1c0,0,0-0.1,0.1-0.1
		v-0.1c0,0,0-0.1,0-0.1v-0.1v-0.1c0,0,0,0,0-0.1c0,0,0-0.1,0-0.1c0,0,0-0.1,0-0.1s0,0,0-0.1c0,0,0-0.1,0-0.1v-0.2c0,0,0-0.1,0-0.1
		s0-0.1,0-0.1s0,0,0-0.1c0,0,0-0.1,0-0.1l0,0l0,0v-0.1v-0.1v-0.1v-0.1v-0.1l-0.1-0.1V104v-0.1l-0.1-0.1l-0.1-0.1l-0.1-0.1l-0.1-0.1
		h-0.1h-0.1h-0.1h-0.1h-0.1h-0.1H100h-0.1h-0.1h-0.2h-0.1L99.4,103.8L99.4,103.8z"/>
	<path style="clip-path:url(#SVGID_00000152255557554487724650000010062006631333956000_);fill:#E83E3E;" d="M82,152.9
		c3.9,9.4,6.3,23.9,2.4,25.5S72,168,68.1,158.6s-0.5-12.9,2.3-14.1S78.1,143.5,82,152.9L82,152.9z"/>
	<path style="clip-path:url(#SVGID_00000152255557554487724650000010062006631333956000_);fill:#1A1A1A;" d="M69.6,142.6
		c-2.3,1-4.1,2.9-4.9,5.3c-0.9,2.9-0.6,6.6,1.4,11.6c2.2,5.2,5,10,8.5,14.5c1.4,1.9,3.1,3.6,4.9,5.1c1.7,1.2,3.6,2.2,5.7,1.4
		s2.8-2.9,3.1-5c0.3-2.4,0.2-4.7-0.1-7.1c-0.7-5.6-2.1-11-4.2-16.2c-2-5-4.5-7.8-7.2-9.2C74.6,141.7,72,141.6,69.6,142.6L69.6,142.6
		z M71.2,146.5c1.2-0.5,2.5-0.5,3.7,0.1c1.5,0.8,3.4,2.7,5.2,7.1c2,4.9,3.3,9.9,4,15.1c0.3,2,0.3,4,0.1,6c-0.1,0.6-0.2,1.2-0.5,1.7
		c-0.6-0.2-1.1-0.4-1.6-0.8c-1.5-1.3-2.9-2.7-4.1-4.3c-3.2-4.2-5.9-8.7-8-13.5c-1.8-4.4-1.8-7.1-1.3-8.7
		C69,147.9,70,146.9,71.2,146.5L71.2,146.5z"/>
	<path style="clip-path:url(#SVGID_00000152255557554487724650000010062006631333956000_);fill:#E83E3E;" d="M121.2,154.6
		c1.3,10-0.2,24.8-4.3,25.3s-9.4-13.3-10.7-23.3s2.8-12.6,5.9-13S119.9,144.6,121.2,154.6L121.2,154.6z"/>
	<path style="clip-path:url(#SVGID_00000152255557554487724650000010062006631333956000_);fill:#1A1A1A;" d="M111.9,141.5
		c-2.5,0.3-4.7,1.7-6.1,3.9c-1.6,2.5-2.3,6.2-1.6,11.6c0.8,5.5,2.3,11,4.4,16.1c0.9,2.2,2,4.3,3.4,6.2c1.3,1.6,2.9,3.1,5.2,2.8
		s3.4-2.1,4.3-4c0.9-2.2,1.5-4.5,1.7-6.9c0.7-5.6,0.8-11.2,0.1-16.8c-0.7-5.3-2.3-8.7-4.6-10.7C116.9,141.9,114.4,141.1,111.9,141.5
		L111.9,141.5z M112.5,145.6c1.3-0.2,2.6,0.2,3.5,1.1c1.2,1.1,2.6,3.4,3.2,8.2c0.6,5.2,0.6,10.4-0.1,15.6c-0.2,2-0.7,3.9-1.4,5.8
		c-0.2,0.5-0.5,1.1-0.9,1.5c-0.5-0.3-0.9-0.7-1.3-1.2c-1.2-1.6-2.1-3.4-2.9-5.2c-2-4.8-3.4-9.9-4.1-15.1c-0.6-4.7,0.1-7.3,1-8.7
		C110,146.5,111.2,145.7,112.5,145.6L112.5,145.6z"/>
	<path style="clip-path:url(#SVGID_00000152255557554487724650000010062006631333956000_);fill:#E83E3E;" d="M46.7,109.8
		c-8.5,5.6-22.4,10.6-24.6,7.2s7.9-14.2,16.4-19.8s12.6-2.9,14.3-0.4S55.2,104.3,46.7,109.8L46.7,109.8z"/>
	<path style="clip-path:url(#SVGID_00000152255557554487724650000010062006631333956000_);fill:#1A1A1A;" d="M54.5,95.7
		c-1.4-2.1-3.6-3.5-6.1-3.8c-3-0.4-6.6,0.6-11.1,3.6c-4.7,3.1-8.9,6.8-12.6,11c-1.6,1.8-3,3.7-4.1,5.8c-0.9,1.9-1.5,4-0.3,5.8
		s3.4,2.2,5.5,2.1c2.4-0.2,4.7-0.6,6.9-1.4c5.3-1.7,10.4-4.2,15.2-7.2c4.5-2.9,6.8-5.9,7.7-8.8C56.2,100.4,55.9,97.8,54.5,95.7
		L54.5,95.7z M51,98c0.7,1.1,0.9,2.4,0.5,3.6c-0.5,1.6-2,3.8-6,6.4c-4.4,2.8-9.1,5.1-14.1,6.7c-1.9,0.6-3.8,1.1-5.8,1.2
		c-0.6,0-1.2,0-1.7-0.2c0-0.6,0.2-1.2,0.5-1.7c0.9-1.8,2.1-3.4,3.4-4.9c3.5-3.9,7.4-7.3,11.8-10.2c4-2.6,6.6-3.1,8.3-2.9
		C49.1,96.2,50.3,96.9,51,98z"/>
	<path style="clip-path:url(#SVGID_00000152255557554487724650000010062006631333956000_);fill:#E83E3E;" d="M156.8,100.5
		c3.9,9.3,6.3,23.9,2.4,25.5s-12.5-10.4-16.4-19.8s-0.5-12.9,2.3-14.1S152.9,91.2,156.8,100.5z"/>
	<path style="clip-path:url(#SVGID_00000152255557554487724650000010062006631333956000_);fill:#1A1A1A;" d="M144.4,90.2
		c-2.3,1-4.1,2.9-4.9,5.3c-0.9,2.8-0.6,6.6,1.4,11.6c2.2,5.2,5,10,8.5,14.5c1.4,1.9,3.1,3.6,4.9,5.1c1.7,1.2,3.6,2.2,5.7,1.4
		s2.8-2.9,3.1-5c0.3-2.3,0.2-4.7-0.1-7c-0.7-5.6-2.1-11-4.2-16.2c-2.1-5-4.5-7.8-7.2-9.2C149.3,89.4,146.7,89.3,144.4,90.2
		L144.4,90.2z M146,94.1c1.2-0.5,2.5-0.5,3.7,0.2c1.5,0.8,3.4,2.7,5.2,7c2,4.9,3.3,9.9,4,15.1c0.3,2,0.3,4,0.1,6
		c-0.1,0.6-0.2,1.2-0.5,1.7c-0.6-0.2-1.1-0.4-1.6-0.8c-1.6-1.2-3-2.7-4.2-4.3c-3.2-4.2-5.8-8.7-7.9-13.5c-1.8-4.4-1.8-7.1-1.3-8.7
		C143.9,95.6,144.8,94.6,146,94.1z"/>
	<path style="clip-path:url(#SVGID_00000152255557554487724650000010062006631333956000_);fill:#1A1A1A;" d="M95,46.4
		c-32.6,0-59.1,26.4-59.1,59.1s26.4,59.1,59.1,59.1s59.1-26.4,59.1-59.1c0,0,0,0,0,0C154,72.9,127.6,46.5,95,46.4z M95,53.2
		c28.9,0,52.3,23.4,52.3,52.3s-23.4,52.3-52.3,52.3c-28.9,0-52.3-23.4-52.3-52.3c0-28.9,23.4-52.3,52.2-52.3
		C94.9,53.2,95,53.2,95,53.2z"/>
	<path style="clip-path:url(#SVGID_00000152255557554487724650000010062006631333956000_);fill:#E83E3E;" d="M150.7,105.5
		c0,30.8-24.9,55.7-55.7,55.7c-30.8,0-55.7-24.9-55.7-55.7c0-30.8,24.9-55.7,55.7-55.7c14.8,0,28.9,5.9,39.4,16.3
		C144.8,76.5,150.7,90.7,150.7,105.5z"/>
	<path style="clip-path:url(#SVGID_00000152255557554487724650000010062006631333956000_);fill:#FFFFFF;" d="M95,54.5
		c-28.1,0-50.9,22.7-50.9,50.8c0,6.8,1.3,13.5,3.9,19.7c-8-28.7,8.7-58.5,37.5-66.6c9.7-2.7,20-2.7,29.7,0.2
		C108.8,55.9,101.9,54.5,95,54.5z"/>
	<path style="clip-path:url(#SVGID_00000152255557554487724650000010062006631333956000_);fill:#1A1A1A;" d="M95,49
		c-31.2,0-56.5,25.3-56.5,56.5s25.3,56.5,56.5,56.5s56.5-25.3,56.5-56.5C151.5,74.3,126.2,49,95,49z M95,50.7
		c30.3,0,54.9,24.6,54.9,54.9s-24.6,54.9-54.9,54.9s-54.9-24.6-54.9-54.9C40.1,75.3,64.6,50.7,95,50.7C94.9,50.6,95,50.6,95,50.7
		L95,50.7z"/>
	<path style="clip-path:url(#SVGID_00000152255557554487724650000010062006631333956000_);fill:#FFFFFF;" d="M71,138.9
		c-2.2,0-4-1.8-4-4.1v-4.6c0-13,10.6-23.6,23.6-23.6c13,0,23.5,10.5,23.6,23.6v4.6c0,2.2-1.8,4.1-4,4.1c0,0,0,0,0,0H71z"/>
	<path style="clip-path:url(#SVGID_00000152255557554487724650000010062006631333956000_);fill:#BADBE9;" d="M95.1,138.9L95.1,138.9
		c0,0,4-7.7,0-14.8c5-7.9,0.6-16.8,0.6-16.8c10.7,2.4,18.4,12,18.4,23v4.6c0,2.2-1.8,4.1-4.1,4.1c0,0,0,0,0,0L95.1,138.9z"/>
	<path style="clip-path:url(#SVGID_00000152255557554487724650000010062006631333956000_);fill:#1A1A1A;" d="M106.7,138.9
		L106.7,138.9c0,0,4.6-5.3,0-10.9c5.3-4.9,0.4-14.6,0.4-14.6c4.5,4.4,7,10.5,7,16.8v4.6c0,2.2-1.8,4.1-4,4.1c0,0,0,0,0,0
		L106.7,138.9z"/>
	<path style="clip-path:url(#SVGID_00000152255557554487724650000010062006631333956000_);fill:#1A1A1A;" d="M74.4,138.9L74.4,138.9
		c0,0-4.6-5.3,0-10.9c-5.3-4.9-0.4-14.6-0.4-14.6c-4.5,4.4-7,10.5-7,16.8v4.6c0,2.2,1.8,4,4,4.1H74.4z"/>
	<path style="clip-path:url(#SVGID_00000152255557554487724650000010062006631333956000_);fill:#1A1A1A;" d="M90.5,105.8
		c-13.5,0-24.4,10.9-24.4,24.4v4.6c0,2.7,2.2,4.9,4.9,4.9h39c2.7,0,4.9-2.2,4.9-4.9v-4.6C114.9,116.7,104,105.8,90.5,105.8
		L90.5,105.8z M90.5,107.5c12.5,0,22.7,10.1,22.7,22.7c0,0,0,0,0,0v4.6c0,1.8-1.4,3.2-3.2,3.2c0,0,0,0,0,0H71
		c-1.8,0-3.2-1.4-3.2-3.2c0,0,0,0,0-0.1v-4.6C67.8,117.7,77.9,107.5,90.5,107.5C90.5,107.5,90.5,107.5,90.5,107.5z"/>
	<path style="clip-path:url(#SVGID_00000152255557554487724650000010062006631333956000_);fill:#1A1A1A;" d="M72.6,84.5
		c4.8,0,8.7,3.9,8.7,8.6c0,0,0,0,0,0v4.3c-0.2,4.8-4.2,8.5-9,8.4c-4.6-0.2-8.2-3.8-8.4-8.4v-4.3C63.9,88.4,67.8,84.5,72.6,84.5
		C72.6,84.5,72.6,84.5,72.6,84.5z"/>
	<path style="clip-path:url(#SVGID_00000152255557554487724650000010062006631333956000_);fill:#FFFFFF;" d="M77.7,90.7
		c0,1.5-1.3,2.8-2.8,2.8h0c-1.5,0-2.8-1.3-2.8-2.8s1.3-2.8,2.8-2.8C76.4,87.9,77.7,89.2,77.7,90.7z"/>
	<path style="clip-path:url(#SVGID_00000152255557554487724650000010062006631333956000_);fill:#1A1A1A;" d="M108.4,84.5
		c-4.8,0-8.7,3.9-8.7,8.6c0,0,0,0,0,0v7.2h17.3v-7.2C117.1,88.4,113.2,84.5,108.4,84.5C108.5,84.5,108.4,84.5,108.4,84.5z"/>
	<path style="clip-path:url(#SVGID_00000152255557554487724650000010062006631333956000_);fill:#FFFFFF;" d="M113.5,90.7
		c0,1.5-1.3,2.8-2.8,2.8s-2.8-1.3-2.8-2.8c0-1.5,1.3-2.8,2.8-2.8S113.5,89.2,113.5,90.7L113.5,90.7z"/>
	<path style="clip-path:url(#SVGID_00000152255557554487724650000010062006631333956000_);fill:#1A1A1A;" d="M170.7,161.5
		c-0.3-0.3-0.7-0.5-1-0.8l0,0c-2.6-1.8-6-2.1-8.9-0.8c-5.6-2.5-12.2,0-14.7,5.6c-1.5,3.3-1.2,7.2,0.7,10.3
		c-1.5,4.9,1.3,10.1,6.2,11.5c4.9,1.5,10.1-1.3,11.5-6.2c0.3-1.1,0.5-2.3,0.4-3.4c5.1-0.2,9.1-4.5,8.9-9.6
		C173.7,165.6,172.6,163.2,170.7,161.5L170.7,161.5z M167.3,165.3L167.3,165.3c1.8,1.6,1.9,4.2,0.4,6c-1,1.1-2.5,1.6-4,1.4l-1.6-0.3
		l-0.9,1.3c-0.2,0.3-0.5,0.7-0.8,0.9l-1.2,1.1l0.5,1.5c0.7,2.2-0.5,4.6-2.7,5.4s-4.6-0.5-5.4-2.7c-0.4-1.1-0.3-2.2,0.2-3.3l0.7-1.5
		l-1-1.2c-2.1-2.6-1.7-6.4,0.9-8.6c2-1.6,4.9-1.8,7.1-0.4l1.8,1.1l1.2-1.3c1.4-0.8,3.1-0.7,4.5,0.2l0,0
		C167.1,165.1,167.2,165.2,167.3,165.3L167.3,165.3z"/>
	<path style="clip-path:url(#SVGID_00000152255557554487724650000010062006631333956000_);fill:#1A1A1A;" d="M174.3,183.6
		c3.2-5.2,1.6-12.1-3.6-15.3c-1.1-0.7-2.3-1.2-3.6-1.4l-1,4.9c3.3,0.7,5.4,3.9,4.7,7.2s-3.9,5.4-7.2,4.7c-2.1-0.4-3.8-2-4.5-4
		l-4.8,1.6c1.9,5.8,8.2,9,14,7C170.8,187.5,172.9,185.8,174.3,183.6L174.3,183.6z"/>
	<path style="clip-path:url(#SVGID_00000152255557554487724650000010062006631333956000_);fill:#1A1A1A;" d="M149.1,155.7
		c-2.5-2.2-6.4-2-8.6,0.5c-2.2,2.5-2,6.4,0.5,8.6l0,0l16,14.1c2.5,2.2,6.4,2,8.6-0.5s2-6.4-0.5-8.6L149.1,155.7z M145.8,159.5
		l16,14.1c0.4,0.3,0.5,1,0.2,1.4c0,0-0.1,0.1-0.1,0.1c-0.3,0.4-1,0.5-1.4,0.2c0,0-0.1-0.1-0.1-0.1l-16-14.1c-0.5-0.4-0.6-1-0.2-1.5
		c0.4-0.5,1-0.6,1.5-0.2C145.7,159.4,145.7,159.5,145.8,159.5L145.8,159.5z"/>
	<path style="clip-path:url(#SVGID_00000152255557554487724650000010062006631333956000_);fill:#777E69;" d="M151.9,184.2
		c-3.1-2.1-3.9-6.3-1.8-9.4s6.3-3.9,9.4-1.8s3.9,6.3,1.8,9.4c0,0,0,0,0,0C159.2,185.4,155,186.3,151.9,184.2z"/>
	<path style="clip-path:url(#SVGID_00000152255557554487724650000010062006631333956000_);fill:#777E69;" d="M151.4,177.3
		c-3.9-2.6-5-8-2.3-11.9s8-5,11.9-2.3c3.9,2.6,5,8,2.3,11.9c-1.3,1.9-3.2,3.2-5.5,3.6C155.6,179,153.3,178.5,151.4,177.3z"/>
	<path style="clip-path:url(#SVGID_00000152255557554487724650000010062006631333956000_);fill:#777E69;" d="M160.8,174.1
		c-3.1-2.1-3.9-6.3-1.8-9.4s6.3-3.9,9.4-1.8s3.9,6.3,1.8,9.4c0,0,0,0,0,0C168.1,175.3,163.9,176.2,160.8,174.1z"/>
	<path style="clip-path:url(#SVGID_00000152255557554487724650000010062006631333956000_);fill:#9FA98D;" d="M162.8,169.9
		c-1.4-0.9-1.8-2.8-0.9-4.2s2.8-1.8,4.2-0.9c1.4,0.9,1.8,2.8,0.9,4.2c-0.4,0.7-1.1,1.1-1.9,1.3C164.3,170.4,163.5,170.3,162.8,169.9
		z"/>
	<path style="clip-path:url(#SVGID_00000152255557554487724650000010062006631333956000_);fill:#9FA98D;" d="M154.2,167.3
		c-1.2-1.1-1.3-3-0.2-4.2c0.9-1,2.3-1.3,3.5-0.7c0.7,0.4,1.1,1.1,1.3,1.9c0.1,0.8,0,1.6-0.4,2.2c-0.4,0.7-1.1,1.1-1.9,1.3
		C155.6,167.9,154.8,167.7,154.2,167.3z"/>
	<path style="clip-path:url(#SVGID_00000152255557554487724650000010062006631333956000_);fill:#1A1A1A;" d="M169.5,162.8
		c-0.2-0.2-0.5-0.4-0.8-0.6c-2.4-1.6-5.5-1.7-7.9-0.3c-4.5-2.5-10.2-0.9-12.7,3.6c-1.8,3.2-1.5,7.1,0.6,10.1c-1.6,3.8,0.2,8.2,4,9.9
		s8.2-0.2,9.9-4c0.6-1.5,0.8-3.2,0.3-4.8c0.2-0.2,0.4-0.5,0.6-0.7c4.1,0.6,7.9-2.3,8.5-6.4C172.4,167,171.5,164.5,169.5,162.8
		L169.5,162.8z M168.5,164L168.5,164c2.5,2.2,2.7,6,0.5,8.5c-1.4,1.6-3.5,2.3-5.6,1.9l-0.5-0.1l-0.3,0.4c-0.3,0.4-0.7,0.8-1.1,1.2
		l-0.4,0.3l0.1,0.5c1,3.1-0.7,6.5-3.8,7.6c-3.1,1-6.5-0.7-7.6-3.8c-0.5-1.5-0.4-3.2,0.3-4.6l0.2-0.4l-0.3-0.4
		c-2.7-3.3-2.3-8.3,1.1-11c2.6-2.1,6.3-2.4,9.1-0.6l0.4,0.3l0.4-0.3c2-1.3,4.6-1.3,6.7,0C168.1,163.6,168.3,163.8,168.5,164
		L168.5,164z"/>
	<path style="clip-path:url(#SVGID_00000152255557554487724650000010062006631333956000_);fill:#9FA98D;" d="M147.4,157.6l16,14.1
		c1.5,1.3,1.6,3.6,0.3,5.1c-1.3,1.5-3.6,1.6-5.1,0.3l-16-14.1c-1.4-1.4-1.4-3.7-0.1-5.1C143.9,156.6,146,156.5,147.4,157.6
		L147.4,157.6z"/>
	<path style="clip-path:url(#SVGID_00000152255557554487724650000010062006631333956000_);fill:#777E69;" d="M142,158.6
		c-0.8,1.5-0.5,3.3,0.8,4.4l16,14.1c1.3,1.1,3.1,1.2,4.5,0.2L142,158.6z"/>
	<path style="clip-path:url(#SVGID_00000152255557554487724650000010062006631333956000_);fill:#1A1A1A;" d="M147.9,157.1
		c-1.7-1.5-4.4-1.4-5.9,0.4s-1.4,4.4,0.4,5.9l0,0l16,14.1c1.7,1.5,4.4,1.4,5.9-0.4s1.4-4.4-0.4-5.9L147.9,157.1z M147,158.1l16,14.1
		c1.4,0.9,1.9,2.7,1,4.1c-0.9,1.4-2.7,1.9-4.1,1c-0.3-0.2-0.6-0.4-0.8-0.7l-16-14.1c-1-1.3-0.8-3.2,0.5-4.2
		C144.6,157.5,146,157.4,147,158.1z"/>
	<path style="clip-path:url(#SVGID_00000152255557554487724650000010062006631333956000_);fill:#777E69;" d="M160.1,184.9
		c-3.9-2.6-5-8-2.3-11.9c2.6-3.9,8-5,11.9-2.3c3.9,2.6,5,8,2.3,11.9c0,0,0,0,0,0C169.4,186.5,164,187.5,160.1,184.9L160.1,184.9z"/>
	<path style="clip-path:url(#SVGID_00000152255557554487724650000010062006631333956000_);fill:#9FA98D;" d="M161.1,180.7
		c-3-2-3.8-6.1-1.7-9c2-3,6.1-3.8,9-1.7c3,2,3.8,6.1,1.7,9c-1,1.4-2.5,2.4-4.2,2.7C164.3,182,162.5,181.7,161.1,180.7z"/>
	<path style="clip-path:url(#SVGID_00000152255557554487724650000010062006631333956000_);fill:#1A1A1A;" d="M172.7,182.6
		c2.7-4.3,1.3-10-3-12.7c-0.9-0.6-1.9-1-3-1.2l-0.2,1.2c4.3,0.8,7.2,5,6.3,9.4c-0.8,4.3-5,7.2-9.4,6.3c-2.8-0.6-5.2-2.6-6.1-5.4
		l-1.2,0.4c1.6,4.8,6.8,7.4,11.7,5.8C169.9,185.8,171.6,184.4,172.7,182.6L172.7,182.6z"/>
	<path style="clip-path:url(#SVGID_00000152255557554487724650000010062006631333956000_);fill:#1A1A1A;" d="M163.3,169.9l-0.2-1.2
		c-4.1,0.8-7.1,4.3-7.4,8.4l1.3,0.1C157.2,173.6,159.8,170.6,163.3,169.9z"/>
	<path style="clip-path:url(#SVGID_00000152255557554487724650000010062006631333956000_);fill:#1A1A1A;" d="M93.2,21.3
		c-2.2,0-13.9-0.4-23.7,3.9c-3.8,1.7-7.7,5.2-8,10.6c-0.2,7-1.1,14-2.5,20.9c-0.6,3.3,0,6.2,1.8,8.2c1.8,1.7,4.1,2.8,6.5,3
		c8.6,0.9,17.3,1.4,25.9,1.5c8.7,0,17.4-0.5,26-1.5c2.4-0.2,4.7-1.3,6.5-3c1.8-1.9,2.4-4.9,1.8-8.2c-1.4-6.9-2.2-13.9-2.5-20.9
		c-0.3-5.5-4.2-9-8-10.6C107.2,20.9,95.5,21.3,93.2,21.3L93.2,21.3z M93.2,26.9c2.6,0,13.3-0.1,21.5,3.5c2.8,1.2,4.5,2.6,4.7,5.8
		c0.3,7.3,1.1,14.6,2.6,21.7c0.4,2.2,0.1,2.8-0.4,3.3c-0.9,0.7-2,1.1-3.2,1.2c-6.2,0.9-19.6,1.4-25.2,1.4s-18.9-0.6-25.2-1.4
		c-1.2-0.1-2.3-0.5-3.2-1.2c-0.4-0.5-0.8-1.1-0.4-3.3c1.5-7.2,2.3-14.4,2.6-21.7c0.2-3.2,1.8-4.6,4.7-5.8
		C79.9,26.8,90.7,26.9,93.2,26.9L93.2,26.9z"/>
	<path style="clip-path:url(#SVGID_00000152255557554487724650000010062006631333956000_);fill:#1A1A1A;" d="M80.4,13.7
		c-2,0-3.9,0.6-5.7,1.6c-5.1,3.1-8.7,5.5-14.2,9.4c-3.4,2.3-5.8,5.9-6.4,9.9c-0.5,4.2-1.1,9.8-1.2,15.1s-0.1,10.2,1.4,13.8
		c0.9,2.2,2.5,4,4.6,5.1c1.7,0.8,3.6,1.2,5.5,1c2.1-0.2,4.2-0.7,6.1-1.7l-2.4-5c-1.3,0.5-2.6,0.9-4,1c-0.9,0.1-1.9,0-2.7-0.4
		c-0.9-0.4-1.6-1.2-1.9-2.2c-0.7-1.7-1.1-6.4-1-11.5s0.7-10.5,1.2-14.5c0.5-2.5,2-4.7,4.1-6.1c5.4-3.9,8.8-6.1,13.9-9.1
		c2.6-1.5,5-1,5.9,0.6l2.8,4.9l4.8-2.8l-2.8-4.9C86.7,15.1,83.6,13.5,80.4,13.7L80.4,13.7z"/>
	<path style="clip-path:url(#SVGID_00000152255557554487724650000010062006631333956000_);fill:#1A1A1A;" d="M106.1,13.7
		c-3.3-0.2-6.3,1.5-8,4.3l-2.8,4.9l4.8,2.8l2.8-4.9c0.9-1.6,3.3-2.1,5.9-0.6c5,3,8.4,5.3,13.9,9.1c2.1,1.4,3.6,3.6,4.1,6.1
		c0.5,4,1,9.5,1.2,14.5c0.2,5-0.3,9.8-1,11.5c-0.3,1-1,1.8-1.9,2.2c-0.9,0.4-1.8,0.5-2.7,0.4c-1.4-0.1-2.7-0.5-4-1l-2.4,5
		c1.9,0.9,4,1.4,6.1,1.6c1.9,0.2,3.8-0.2,5.5-1c2.1-1.1,3.8-2.9,4.6-5.1c1.5-3.6,1.6-8.5,1.4-13.8s-0.7-10.9-1.2-15.1
		c-0.7-4.1-3-7.7-6.4-9.9c-5.5-3.9-9.1-6.3-14.2-9.4C110.1,14.3,108.1,13.7,106.1,13.7L106.1,13.7z"/>
	<path style="clip-path:url(#SVGID_00000152255557554487724650000010062006631333956000_);fill:#1A1A1A;" d="M93.2,16.8
		c-1.7,0-11.3-0.4-19.4,4.1C70,23,67.5,27,67.4,31.5l5.6,0.2c0.1-3.5,1.5-4.8,3.6-5.9c6.2-3.5,14.5-3.4,16.7-3.4s10.4-0.1,16.7,3.4
		c2.1,1.2,3.5,2.5,3.6,5.9l5.6-0.2c-0.1-4.4-2.6-8.5-6.5-10.6C104.6,16.4,94.9,16.8,93.2,16.8z"/>
	<path style="clip-path:url(#SVGID_00000152255557554487724650000010062006631333956000_);fill:#423D3D;" d="M116.3,31.6
		c0-3.5-1.9-6.7-5-8.3c-7.2-4-16.1-3.7-18-3.7s-10.9-0.3-18,3.7c-3.1,1.6-5,4.8-5,8.3H116.3z"/>
	<path style="clip-path:url(#SVGID_00000152255557554487724650000010062006631333956000_);fill:#1A1A1A;" d="M93.2,18.9
		c-1.8,0-11-0.3-18.4,3.8c-3.3,1.7-5.4,5.1-5.4,8.9l1.4,0.1c0-3.2,1.8-6.2,4.7-7.6c6.9-3.9,15.7-3.6,17.7-3.6s10.8-0.3,17.7,3.6
		c2.9,1.4,4.7,4.4,4.7,7.6l1.4-0.1c0-3.7-2.1-7.1-5.4-8.9C104.2,18.6,95.1,18.9,93.2,18.9L93.2,18.9z"/>
	<path style="clip-path:url(#SVGID_00000152255557554487724650000010062006631333956000_);fill:#5A5252;" d="M69.3,65.4
		c0,0-9.3,4.6-12.5-3c-2.2-5.3-1-19.2,0-27.4c0.6-3.3,2.5-6.2,5.3-8c5.5-3.9,9-6.2,14-9.3c3.6-2.2,8-1.5,9.8,1.6l2.8,4.8L69.3,65.4z
		"/>
	<path style="clip-path:url(#SVGID_00000152255557554487724650000010062006631333956000_);fill:#7F6D6B;" d="M80.7,16.4
		c-1.6,0-3.2,0.4-4.6,1.3c-5.1,3-8.6,5.4-14,9.3c-2.8,1.8-4.7,4.7-5.3,8c-1,8.2-2.2,22.1,0,27.4c0.6,1.5,1.6,2.7,2.9,3.5
		c-2-6.1-0.8-20.4,0.2-29c0.6-3.5,2.5-6.6,5.4-8.6c5.6-4.2,9.2-6.7,14.4-10c1.1-0.7,2.2-1.1,3.5-1.3C82.4,16.6,81.6,16.5,80.7,16.4
		L80.7,16.4z"/>
	<path style="clip-path:url(#SVGID_00000152255557554487724650000010062006631333956000_);fill:#1A1A1A;" d="M80.4,15.5
		c-1.7,0.1-3.3,0.5-4.7,1.4c-5.1,3.1-8.6,5.4-14.1,9.3c-2.8,2-5.2,5-5.7,8.6c-0.5,4.1-1.1,9.7-1.2,14.9s0,10,1.3,13
		c0.7,1.8,2,3.3,3.7,4.1c1.4,0.7,3,0.9,4.6,0.8c1.9-0.2,3.7-0.6,5.4-1.4l-0.8-1.7c-1.5,0.7-3.1,1.1-4.7,1.2
		c-1.3,0.1-2.5-0.1-3.7-0.6c-1.3-0.7-2.3-1.8-2.8-3.2c-1-2.3-1.3-7.1-1.1-12.2s0.7-10.6,1.2-14.7c0.6-3,2.3-5.7,4.9-7.4
		c5.5-3.9,8.9-6.2,14-9.2c3.3-2,7-1.4,8.5,1.3l2.8,4.9l1.6-0.9l-2.8-4.8C85.4,16.6,83,15.3,80.4,15.5L80.4,15.5z"/>
	<path style="clip-path:url(#SVGID_00000152255557554487724650000010062006631333956000_);fill:#423D3D;" d="M117.2,65.4
		c0,0,9.3,4.6,12.5-3c2.2-5.3,1-19.2,0-27.4c-0.6-3.3-2.5-6.2-5.3-8c-5.5-3.9-9-6.2-14-9.3c-3.6-2.2-8-1.5-9.8,1.6l-2.8,4.8
		L117.2,65.4z"/>
	<path style="clip-path:url(#SVGID_00000152255557554487724650000010062006631333956000_);fill:#1A1A1A;" d="M106.1,15.5
		c-2.6-0.2-5,1.1-6.3,3.4L97,23.7l1.6,0.9l2.8-4.9c1.5-2.6,5.2-3.2,8.5-1.3c5.1,3,8.5,5.3,14,9.2c2.6,1.7,4.3,4.3,4.9,7.4
		c0.5,4.1,1.1,9.6,1.2,14.7s-0.2,9.9-1.1,12.2c-0.5,1.4-1.5,2.5-2.8,3.2c-1.1,0.5-2.4,0.7-3.7,0.6c-1.6-0.1-3.2-0.6-4.7-1.2
		l-0.8,1.7c1.7,0.8,3.5,1.3,5.4,1.4c1.6,0.2,3.2-0.1,4.6-0.8c1.7-0.9,3-2.3,3.7-4.1c1.2-3,1.4-7.8,1.3-13s-0.7-10.8-1.2-14.9
		c-0.5-3.7-2.9-6.7-5.7-8.6c-5.5-3.9-9-6.2-14.1-9.3C109.4,16,107.8,15.6,106.1,15.5L106.1,15.5z"/>
	<path style="clip-path:url(#SVGID_00000152255557554487724650000010062006631333956000_);fill:#5A5252;" d="M70.6,27.8
		c-3.3,1.5-6.1,3.9-6.3,8.2c-0.3,7.2-1.1,14.3-2.6,21.3c-1.1,5.4,2,7.2,5.9,7.8c8.5,0.9,17,1.4,25.5,1.5c8.5-0.1,17.1-0.5,25.6-1.5
		c4-0.6,7-2.4,5.9-7.8c-1.5-7-2.3-14.2-2.6-21.3c-0.2-4.4-3-6.8-6.3-8.2c-9-4-20.2-3.7-22.6-3.7S79.6,23.9,70.6,27.8z"/>
	<path style="clip-path:url(#SVGID_00000152255557554487724650000010062006631333956000_);fill:#7F6D6B;" d="M83.9,24.5
		c-3.5,0.4-6.9,1.1-10.2,2.1c-1.5,2-2.4,4.5-2.4,7.1c-0.3,8.9-1.1,17.9-2.6,26.7c-0.3,1.6-0.3,3.3,0.1,4.9c2.5,0.3,5.6,0.6,8.9,0.8
		c-0.4-1.7-0.4-3.5-0.1-5.2c1.5-9.1,2.3-18.3,2.6-27.6C80.1,30,81.4,26.8,83.9,24.5z"/>
	<path style="clip-path:url(#SVGID_00000152255557554487724650000010062006631333956000_);fill:#423D3D;" d="M102.6,24.5
		c2.4,2.3,3.8,5.5,3.8,8.8c0.3,9.2,1.1,18.4,2.6,27.6c0.3,1.7,0.3,3.5-0.1,5.2c3.8-0.2,7.3-0.5,9.9-0.9c4-0.6,7-2.4,5.9-7.8
		c-1.5-7-2.3-14.2-2.6-21.3c-0.2-4.4-3-6.8-6.3-8.2C111.7,26.1,107.2,25,102.6,24.5L102.6,24.5z"/>
	<path style="clip-path:url(#SVGID_00000152255557554487724650000010062006631333956000_);fill:#7F6D6B;" d="M92,24.1
		c-3.9,0-13.5,0.2-21.3,3.7c-3.3,1.4-6,3.8-6.3,8.1c1.3-1.5,3-2.7,4.9-3.4c9.5-4,21.5-3.7,24-3.7s14.5-0.3,24,3.7
		c1.9,0.7,3.6,1.9,4.9,3.4c-0.3-4.3-3-6.6-6.3-8.1c-9-4-20.2-3.7-22.6-3.7H92z"/>
	<path style="clip-path:url(#SVGID_00000152255557554487724650000010062006631333956000_);fill:#1A1A1A;" d="M93.2,23.2
		c-2.3,0-13.7-0.3-23,3.8c-3.5,1.5-6.6,4.3-6.9,9c-0.2,7.1-1.1,14.2-2.5,21.2c-0.6,2.9,0,5.1,1.3,6.5c1.5,1.4,3.4,2.2,5.4,2.4
		c8.5,0.9,17.1,1.4,25.7,1.5c8.6,0,17.2-0.5,25.7-1.5c2-0.1,3.9-1,5.4-2.4c1.3-1.4,1.9-3.6,1.3-6.5c-1.4-7-2.3-14.1-2.5-21.2
		c-0.2-4.7-3.4-7.5-6.9-9C107,22.9,95.6,23.2,93.2,23.2L93.2,23.2z M93.2,25c2.5,0,13.5-0.2,22.2,3.6c3.1,1.4,5.6,3.5,5.8,7.4
		c0.3,7.2,1.1,14.4,2.6,21.5c0.5,2.5,0,4-0.8,4.9c-1.2,1.1-2.7,1.7-4.3,1.8c-8.4,0.9-16.9,1.4-25.4,1.4c-8.5-0.1-17-0.5-25.4-1.4
		c-1.6-0.1-3.1-0.7-4.3-1.8c-0.9-1-1.3-2.4-0.8-4.9c1.5-7.1,2.3-14.3,2.6-21.5c0.2-4,2.6-6,5.8-7.4C79.7,24.8,90.8,25,93.2,25
		L93.2,25z"/>
	<path style="clip-path:url(#SVGID_00000152255557554487724650000010062006631333956000_);fill:#E83B54;" d="M98,50
		c-1,0.8-3.4-1.6-4.7-1.6s-3.7,2.4-4.7,1.6s0.5-3.7,0.1-5s-3.4-2.7-3-4s3.7-0.7,4.8-1.5s1.6-4.1,2.8-4.1s1.8,3.3,2.8,4.1
		s4.4,0.2,4.8,1.5s-2.6,2.7-3,4S99,49.2,98,50z"/>
	<path style="clip-path:url(#SVGID_00000152255557554487724650000010062006631333956000_);fill:#1A1A1A;" d="M93.3,35
		c-0.5,0-0.9,0.3-1.2,0.7c-0.3,0.4-0.5,0.8-0.7,1.3c-0.2,0.5-0.4,1-0.6,1.3c-0.1,0.3-0.3,0.6-0.6,0.8c-0.3,0.2-0.6,0.3-0.9,0.3
		c-0.4,0.1-1,0.1-1.5,0.2c-0.5,0-1,0.1-1.5,0.3c-0.5,0.1-0.9,0.5-1.1,0.9c-0.1,0.5,0,1,0.3,1.4c0.3,0.4,0.6,0.8,1,1.1
		c0.4,0.3,0.8,0.7,1.1,1c0.2,0.2,0.4,0.5,0.6,0.8c0.1,0.3,0.1,0.7,0,1c-0.1,0.4-0.2,1-0.3,1.5c-0.1,0.5-0.2,1-0.2,1.5
		c-0.1,0.8,0.4,1.5,1.2,1.6c0.3,0,0.6,0,0.8-0.1c0.5-0.2,0.9-0.4,1.4-0.6c0.4-0.3,0.9-0.5,1.3-0.7c0.5-0.4,1.3-0.4,1.8,0
		c0.4,0.2,0.8,0.5,1.3,0.7c0.4,0.3,0.9,0.5,1.3,0.6c0.7,0.3,1.5,0.1,1.9-0.6c0.1-0.3,0.2-0.5,0.1-0.8c0-0.5-0.1-1-0.2-1.5
		c-0.1-0.5-0.2-1-0.3-1.5c-0.1-0.3-0.1-0.7,0-1c0.1-0.3,0.3-0.6,0.6-0.8c0.3-0.3,0.7-0.7,1.1-1c0.4-0.3,0.7-0.7,1-1.1
		c0.3-0.4,0.4-0.9,0.3-1.4c-0.2-0.4-0.5-0.8-1-0.9c-0.5-0.2-1-0.2-1.5-0.3c-0.5,0-1-0.1-1.5-0.2c-0.3,0-0.6-0.1-0.9-0.3
		c-0.2-0.2-0.4-0.5-0.6-0.8c-0.2-0.4-0.4-0.9-0.6-1.3c-0.2-0.5-0.4-0.9-0.7-1.3C94.3,35.3,93.8,35,93.3,35z M93.3,35.9
		c0.1,0,0.3,0.1,0.5,0.3c0.2,0.4,0.5,0.7,0.6,1.1c0.2,0.5,0.4,1,0.6,1.4c0.2,0.5,0.5,0.9,0.8,1.2c0.4,0.3,0.9,0.4,1.3,0.5
		c0.5,0.1,1,0.1,1.5,0.2c0.4,0,0.9,0.1,1.3,0.2c0.3,0.1,0.4,0.2,0.5,0.3s0,0.3-0.2,0.6c-0.3,0.3-0.6,0.7-0.9,0.9
		c-0.4,0.3-0.8,0.7-1.1,1c-0.4,0.3-0.6,0.7-0.8,1.2c-0.1,0.5-0.1,0.9,0,1.4c0.1,0.5,0.2,1,0.3,1.5c0.1,0.4,0.2,0.9,0.2,1.3
		c0,0.3-0.1,0.5-0.2,0.6s-0.3,0.1-0.6,0c-0.4-0.1-0.8-0.3-1.2-0.5c-0.4-0.2-0.9-0.5-1.3-0.8c-0.4-0.2-0.9-0.4-1.3-0.4
		c-0.5,0-0.9,0.2-1.3,0.4c-0.4,0.2-0.9,0.5-1.3,0.8c-0.4,0.2-0.8,0.4-1.2,0.5c-0.3,0.1-0.5,0.1-0.6,0s-0.2-0.2-0.2-0.6
		c0-0.4,0.1-0.9,0.2-1.3c0.1-0.5,0.2-1,0.3-1.5c0.3-0.9-0.1-2-0.8-2.6c-0.3-0.3-0.8-0.7-1.1-1c-0.3-0.3-0.6-0.6-0.9-0.9
		c-0.2-0.3-0.2-0.4-0.2-0.6s0.2-0.2,0.5-0.3c0.4-0.1,0.8-0.2,1.3-0.2c0.5-0.1,1-0.1,1.5-0.2c0.5,0,0.9-0.2,1.3-0.5
		c0.4-0.3,0.7-0.7,0.8-1.1c0.2-0.4,0.4-0.9,0.6-1.4c0.2-0.4,0.4-0.8,0.6-1.1C93,36.1,93.1,36,93.3,35.9L93.3,35.9z"/>
	<path style="clip-path:url(#SVGID_00000152255557554487724650000010062006631333956000_);fill:#423D3D;" d="M102.5,34.1
		c0,0.3-0.1,0.5-0.3,0.7c-0.2,0.2-0.4,0.3-0.7,0.3c-0.6,0-1-0.4-1-1s0.4-1,1-1c0.3,0,0.5,0.1,0.7,0.3
		C102.4,33.6,102.5,33.8,102.5,34.1L102.5,34.1z"/>
	<path style="clip-path:url(#SVGID_00000152255557554487724650000010062006631333956000_);fill:#423D3D;" d="M150.6,0h29h16v16
		c0,7,0,14,0,21c-10.2,12.4-28.6,14.2-41,4S140.4,12.4,150.6,0z"/>
	<g style="clip-path:url(#SVGID_00000152255557554487724650000010062006631333956000_);enable-background:new    ;">
		<text transform="matrix(1 0 0 1 159.7 31.75)" class="st2 st3 st15">09</text>
	</g>
</g>
</svg>
