<?xml version="1.0" encoding="utf-8"?>
<!-- Generator: Adobe Illustrator 26.0.1, SVG Export Plug-In . SVG Version: 6.00 Build 0)  -->
<svg version="1.1" id="Слой_1" xmlns="http://www.w3.org/2000/svg" xmlns:xlink="http://www.w3.org/1999/xlink" x="0px" y="0px"
	 viewBox="0 0 195.6 280.6" style="enable-background:new 0 0 195.6 280.6;" xml:space="preserve">
<style type="text/css">
	.st0{clip-path:url(#SVGID_00000053511171433320721140000012424557779983260088_);fill:#91D1DD;}
	.st1{clip-path:url(#SVGID_00000041980854796250210400000000290899029237250235_);fill:#EB5A53;}
	.st2{clip-path:url(#SVGID_00000078019926888918612800000009713144820130428316_);fill:#EB5A53;}
	.st3{clip-path:url(#SVGID_00000126295068072333992690000018138290912890614452_);fill:#EB5A53;}
	.st4{clip-path:url(#SVGID_00000173144573447734110540000012367546520640363188_);fill:#1A1A1A;}
	.st5{clip-path:url(#SVGID_00000017514034109355946600000009864716681774348956_);fill:#1A1A1A;}
	.st6{clip-path:url(#SVGID_00000165942036251641587160000018259058874735185825_);fill:#1A1A1A;}
	.st7{clip-path:url(#SVGID_00000061443050528091091150000000749638504677944759_);fill:#1A1A1A;}
	.st8{clip-path:url(#SVGID_00000103970397685024425280000013837100177427605948_);fill:#1A1A1A;}
	.st9{clip-path:url(#SVGID_00000160872350302347150120000009638653042188594312_);fill:#1A1A1A;}
	.st10{clip-path:url(#SVGID_00000006692180643632708350000007769032178734332059_);fill:#EB5A53;}
	.st11{clip-path:url(#SVGID_00000163070060832476819470000013868407049910488462_);fill:#1A1A1A;}
	.st12{clip-path:url(#SVGID_00000059289869919394227670000016878866565319778442_);fill:#1A1A1A;}
	.st13{clip-path:url(#SVGID_00000070102401608167056700000005515291895237541279_);fill:#EB5A53;}
	.st14{clip-path:url(#SVGID_00000049909936714284941620000008066860227090512771_);fill:#FFFFFF;}
	.st15{clip-path:url(#SVGID_00000120553318852560924880000001554944308261815710_);fill:#FFFFFF;}
	.st16{clip-path:url(#SVGID_00000025424412804102539010000017121192340868187036_);fill:#FFFFFF;}
	.st17{clip-path:url(#SVGID_00000052092745477397563550000009948818271373210805_);fill:#FFFFFF;}
	.st18{clip-path:url(#SVGID_00000011009952524580477820000009197030802511163539_);fill:#FFFFFF;}
	.st19{clip-path:url(#SVGID_00000018923798414114076120000009729010163886799759_);fill:#FFFFFF;}
	.st20{clip-path:url(#SVGID_00000162313108845054983410000000412032344332733859_);fill:#FFFFFF;}
	.st21{clip-path:url(#SVGID_00000124845483461284081190000014802144803362426016_);fill:#FFFFFF;}
	.st22{clip-path:url(#SVGID_00000183222624432658550650000006058380333714105476_);fill:#FFFFFF;}
	.st23{clip-path:url(#SVGID_00000183964457927920941600000018124439251534316735_);fill:#FFFFFF;}
	.st24{clip-path:url(#SVGID_00000087403814520329697380000000123063040155249291_);fill:#FFFFFF;}
	.st25{clip-path:url(#SVGID_00000142148052039198584670000017677553402911583167_);fill:#FFFFFF;}
	.st26{clip-path:url(#SVGID_00000103227239610652122500000016058788966092634253_);fill:#FFFFFF;}
	.st27{clip-path:url(#SVGID_00000156567455447921258050000003926431227922595208_);fill:#FFFFFF;}
	.st28{clip-path:url(#SVGID_00000039843354542680774950000000107194486462939067_);fill:#EE6F4D;}
	.st29{clip-path:url(#SVGID_00000051355957147105505620000014572962326415978413_);fill:#FABE7D;}
	.st30{clip-path:url(#SVGID_00000013182109575240347140000003060339842862043042_);fill:#1A1A1A;}
	.st31{clip-path:url(#SVGID_00000089538391804660225380000018127555517482353338_);fill:#1A1A1A;}
	.st32{clip-path:url(#SVGID_00000124128421468925850980000015607934616960206240_);fill:#44B1E6;}
	.st33{clip-path:url(#SVGID_00000176736002556696842730000013676010166914902444_);fill:#1A1A1A;}
	.st34{clip-path:url(#SVGID_00000179604112403665105640000014089623400893650055_);fill:#1A1A1A;}
	.st35{clip-path:url(#SVGID_00000042720441286614008310000013418522075028762533_);fill:#EA4F3D;}
	.st36{clip-path:url(#SVGID_00000147205822450096246170000006198845928998116757_);fill:#DF1F1D;}
	.st37{clip-path:url(#SVGID_00000061464884058297271980000010385416874429507227_);fill:#EA4F3D;}
	.st38{clip-path:url(#SVGID_00000174577041813785493440000009599024691013069957_);fill:#F39673;}
	.st39{clip-path:url(#SVGID_00000106857200474730564980000004136437351606934427_);fill:#298BCC;}
	.st40{clip-path:url(#SVGID_00000113333137388326068730000002539548556344843177_);fill:#4EB9EB;}
	.st41{clip-path:url(#SVGID_00000097463273431014774620000012080166037273681341_);fill:#026196;}
	.st42{clip-path:url(#SVGID_00000124860797462486799910000013651949680390883968_);fill:#026196;}
	.st43{clip-path:url(#SVGID_00000100378218538180203660000014660867093648842127_);fill:#EA4F3D;}
	.st44{clip-path:url(#SVGID_00000139996841395890834710000007272293994408256384_);fill:#EA4F3D;}
	.st45{clip-path:url(#SVGID_00000098938890485263050290000013331789669527450273_);fill:#DF1F1D;}
	.st46{clip-path:url(#SVGID_00000032636653844526075860000014016967175533116053_);fill:#F39673;}
	.st47{clip-path:url(#SVGID_00000057860639158485098810000013838434145640343692_);fill:#DF1F1D;}
	.st48{clip-path:url(#SVGID_00000109751309029724693390000014002316597550855348_);fill:#1A1A1A;}
	.st49{clip-path:url(#SVGID_00000160878950233495040280000013804949506766402468_);fill:#F39673;}
	.st50{clip-path:url(#SVGID_00000017474892964633481900000012366536210066232464_);fill:#1A1A1A;}
	.st51{clip-path:url(#SVGID_00000052823315604123447540000017094758462654544526_);fill:#1A1A1A;}
	.st52{clip-path:url(#SVGID_00000068675752541754176910000008604261913857531297_);fill:#BDBDBD;}
	.st53{clip-path:url(#SVGID_00000170276449225377557450000017306192394092202164_);fill:#9C9C9C;}
	.st54{clip-path:url(#SVGID_00000077319032729556733230000009744817303835240358_);fill:#A3DAF4;}
	.st55{clip-path:url(#SVGID_00000116217468458248039460000003825302804586303162_);fill:#1A1A1A;}
	.st56{clip-path:url(#SVGID_00000049912496983562630250000008325002837876061628_);fill:#1A1A1A;}
	.st57{clip-path:url(#SVGID_00000023981692894440760330000007939287804892182926_);fill:#1A1A1A;}
	.st58{clip-path:url(#SVGID_00000010273390240845163030000013766182521443676836_);fill:#1A1A1A;}
	.st59{clip-path:url(#SVGID_00000109707843870898258650000000585800506069013638_);fill:#FFFFFF;}
	.st60{clip-path:url(#SVGID_00000011730153587988958530000009232111800548450980_);fill:#1A1A1A;}
	.st61{clip-path:url(#SVGID_00000085938122516633052890000014092104919912988343_);fill:#1A1A1A;}
	.st62{clip-path:url(#SVGID_00000059278009139490772210000013892485813782188967_);fill:#1A1A1A;}
	.st63{clip-path:url(#SVGID_00000097481494393291583090000014414152812750413486_);fill:#1A1A1A;}
	.st64{clip-path:url(#SVGID_00000092457975614441282980000000302606431258153887_);fill:#1A1A1A;}
	.st65{clip-path:url(#SVGID_00000155859822381191762080000016431452438543116991_);fill:#EAB170;}
	.st66{clip-path:url(#SVGID_00000026878184673692619970000001422155165561605053_);fill:#1A1A1A;}
	.st67{clip-path:url(#SVGID_00000036251457028495919650000006297144165125289390_);fill:#FFFFFF;}
	.st68{clip-path:url(#SVGID_00000100363560036316484910000005932139454261406889_);fill:#1A1A1A;}
	.st69{clip-path:url(#SVGID_00000075123967884161404980000007988958703688462011_);fill:#FFFFFF;}
	.st70{clip-path:url(#SVGID_00000149355841681643445930000000117422822525877931_);fill:#FFFFFF;}
	.st71{clip-path:url(#SVGID_00000175298433785322379920000011737665537788801183_);fill:#BADBE9;}
	.st72{clip-path:url(#SVGID_00000029007404377277717790000014373321325542185891_);fill:#1A1A1A;}
	.st73{clip-path:url(#SVGID_00000155146504493409634840000011507188699014330790_);fill:#1A1A1A;}
	.st74{clip-path:url(#SVGID_00000144300912843988096090000014291582563357768067_);fill:#1A1A1A;}
	.st75{clip-path:url(#SVGID_00000111901284986664336840000008101159268648330403_);fill:#1A1A1A;}
	.st76{clip-path:url(#SVGID_00000030460990832553566960000013633363337128229033_);fill:#1A1A1A;}
	.st77{clip-path:url(#SVGID_00000163779838057531204400000008610506865209820332_);fill:#FFFFFF;}
	.st78{clip-path:url(#SVGID_00000175288010000915508800000008870834492496713405_);fill:#C0E4EF;}
	.st79{clip-path:url(#SVGID_00000031173445559401277120000000675581914307594911_);fill:#91D1DD;}
	.st80{clip-path:url(#SVGID_00000179636781892169944070000001262618994122706850_);fill:#1A1A1A;}
	.st81{clip-path:url(#SVGID_00000153680654024317105230000010694516509141040258_);fill:#298BCC;}
	.st82{enable-background:new    ;}
	.st83{fill:#FFFFFF;}
</style>
<g>
	<g>
		<g>
			<defs>
				<rect id="SVGID_1_" x="0.2" y="0.7" width="195.6" height="280.6"/>
			</defs>
			<clipPath id="SVGID_00000139256902730222002650000012336621872888826796_">
				<use xlink:href="#SVGID_1_"  style="overflow:visible;"/>
			</clipPath>
			
				<rect x="-12.9" y="-16" style="clip-path:url(#SVGID_00000139256902730222002650000012336621872888826796_);fill:#91D1DD;" width="488.9" height="302.6"/>
		</g>
	</g>
	<g>
		<g>
			<defs>
				<rect id="SVGID_00000132802418481699995290000011704680004506390688_" x="0.2" y="0.7" width="195.6" height="280.6"/>
			</defs>
			<clipPath id="SVGID_00000101817821966741571400000017448845855085498004_">
				<use xlink:href="#SVGID_00000132802418481699995290000011704680004506390688_"  style="overflow:visible;"/>
			</clipPath>
			<path style="clip-path:url(#SVGID_00000101817821966741571400000017448845855085498004_);fill:#EB5A53;" d="M77.9,111.4
				c4.8-8.2,9.3-7.8,11.8-6.3s5.2,5.2,0.4,13.4s-14.2,18.4-17.6,16.4S73.2,119.7,77.9,111.4z"/>
		</g>
	</g>
	<g>
		<g>
			<defs>
				<rect id="SVGID_00000102502227272263806010000000123588413173600191_" x="0.2" y="0.7" width="195.6" height="280.6"/>
			</defs>
			<clipPath id="SVGID_00000000938516688037301780000006673264307541059719_">
				<use xlink:href="#SVGID_00000102502227272263806010000000123588413173600191_"  style="overflow:visible;"/>
			</clipPath>
			<path style="clip-path:url(#SVGID_00000000938516688037301780000006673264307541059719_);fill:#EB5A53;" d="M46,60.8
				c7.5-5.8,11.6-3.6,13.3-1.3s2.8,6.8-4.8,12.5S34.4,83.5,32,80.4S38.4,66.6,46,60.8z"/>
		</g>
	</g>
	<g>
		<g>
			<defs>
				<rect id="SVGID_00000138546326992933531310000001734482735342939292_" x="0.2" y="0.7" width="195.6" height="280.6"/>
			</defs>
			<clipPath id="SVGID_00000068671293446340436920000003697981579874887060_">
				<use xlink:href="#SVGID_00000138546326992933531310000001734482735342939292_"  style="overflow:visible;"/>
			</clipPath>
			<path style="clip-path:url(#SVGID_00000068671293446340436920000003697981579874887060_);fill:#EB5A53;" d="M151.1,74.8
				c-9.5,0-11.4-4.2-11.4-7.1s1.9-7.1,11.4-7.1s23,3.2,23,7.1S160.5,74.8,151.1,74.8z"/>
		</g>
	</g>
	<g>
		<g>
			<defs>
				<rect id="SVGID_00000029733070206761138100000008887019522695398309_" x="0.2" y="0.7" width="195.6" height="280.6"/>
			</defs>
			<clipPath id="SVGID_00000111161665747305439000000007836124202571220899_">
				<use xlink:href="#SVGID_00000029733070206761138100000008887019522695398309_"  style="overflow:visible;"/>
			</clipPath>
			<path style="clip-path:url(#SVGID_00000111161665747305439000000007836124202571220899_);fill:#1A1A1A;" d="M156.3,62.9
				c3.1,0.3,6.2,0.9,9.3,1.7c1.8,0.5,3.6,1.1,5.2,2c0.5,0.3,0.9,0.7,1.2,1.1c-0.3,0.4-0.8,0.8-1.3,1.1c-1.6,0.9-3.4,1.6-5.2,2.1
				c-3,0.8-6.2,1.4-9.3,1.7v4c3.5-0.3,7-1,10.4-1.9c2.2-0.5,4.2-1.4,6.2-2.5c1.7-1,3.2-2.3,3.2-4.4s-1.6-3.4-3.2-4.5
				c-1.9-1.1-4-1.9-6.2-2.5c-3.4-0.9-6.9-1.6-10.4-1.9L156.3,62.9z"/>
		</g>
	</g>
	<g>
		<g>
			<defs>
				<rect id="SVGID_00000071526253776021444900000002202248499110340770_" x="0.2" y="0.7" width="195.6" height="280.6"/>
			</defs>
			<clipPath id="SVGID_00000069363516622982311890000013913932270674171317_">
				<use xlink:href="#SVGID_00000071526253776021444900000002202248499110340770_"  style="overflow:visible;"/>
			</clipPath>
			<path style="clip-path:url(#SVGID_00000069363516622982311890000013913932270674171317_);fill:#1A1A1A;" d="M137.7,67.7
				c0,2.4,1,4.6,2.8,6.1c2.1,1.8,5.5,2.9,10.6,2.9c2.1,0,4.2-0.1,6.4-0.4v-4c-2.1,0.3-4.2,0.4-6.4,0.4c-4.5,0-6.8-1-8-2
				c-1.7-1.5-1.9-4-0.5-5.8c0.1-0.2,0.3-0.3,0.5-0.5c1.2-1,3.5-2,8-2c2.1,0,4.3,0.2,6.4,0.4v-4c-2.1-0.2-4.2-0.4-6.4-0.4
				c-5.1,0-8.4,1.1-10.6,2.9C138.7,63.1,137.7,65.3,137.7,67.7L137.7,67.7z"/>
		</g>
	</g>
	<g>
		<g>
			<defs>
				<rect id="SVGID_00000173127628502949867200000016500918890941377190_" x="0.2" y="0.7" width="195.6" height="280.6"/>
			</defs>
			<clipPath id="SVGID_00000157294113159325088310000012817651709071283601_">
				<use xlink:href="#SVGID_00000173127628502949867200000016500918890941377190_"  style="overflow:visible;"/>
			</clipPath>
			<path style="clip-path:url(#SVGID_00000157294113159325088310000012817651709071283601_);fill:#1A1A1A;" d="M60.9,58.3
				c-1.4-1.9-3.6-3-6-3.1c-2.8-0.1-6.2,1-10.1,4.1c-1.7,1.3-3.3,2.7-4.8,4.2l2.4,3.2c1.5-1.5,3.1-2.9,4.8-4.2c3.5-2.7,6-3.4,7.5-3.3
				c2.3,0.1,4,2.1,3.8,4.4c0,0.2,0,0.4-0.1,0.6c-0.3,1.5-1.6,3.7-5.1,6.4c-1.7,1.3-3.5,2.5-5.3,3.6l2.4,3.2c1.8-1.1,3.6-2.3,5.3-3.6
				c4-3.1,6-6,6.6-8.7C62.9,62.5,62.3,60.1,60.9,58.3z"/>
		</g>
	</g>
	<g>
		<g>
			<defs>
				<rect id="SVGID_00000088813130046969180190000016417985877967522195_" x="0.2" y="0.7" width="195.6" height="280.6"/>
			</defs>
			<clipPath id="SVGID_00000145057015661107491310000018280732485267434413_">
				<use xlink:href="#SVGID_00000088813130046969180190000016417985877967522195_"  style="overflow:visible;"/>
			</clipPath>
			<path style="clip-path:url(#SVGID_00000145057015661107491310000018280732485267434413_);fill:#1A1A1A;" d="M49.1,73.4
				c-2.7,1.7-5.5,3.1-8.4,4.3c-1.7,0.7-3.5,1.3-5.4,1.5c-0.5,0.1-1.1,0.1-1.6-0.1c0-0.6,0.1-1.1,0.4-1.6c0.8-1.7,1.7-3.3,2.9-4.8
				c1.9-2.5,4-4.9,6.3-7l-2.4-3.2c-2.6,2.4-4.9,5-7.1,7.8C32.4,72,31.3,74,30.4,76c-0.7,1.8-1.1,3.8,0.1,5.5s3.3,1.8,5.3,1.6
				c2.2-0.3,4.3-0.9,6.4-1.8c3.3-1.3,6.4-2.9,9.4-4.8L49.1,73.4z"/>
		</g>
	</g>
	<g>
		<g>
			<defs>
				<rect id="SVGID_00000026884200765720236280000004831407545029963917_" x="0.2" y="0.7" width="195.6" height="280.6"/>
			</defs>
			<clipPath id="SVGID_00000167371216910367954970000011750465955313854651_">
				<use xlink:href="#SVGID_00000026884200765720236280000004831407545029963917_"  style="overflow:visible;"/>
			</clipPath>
			<path style="clip-path:url(#SVGID_00000167371216910367954970000011750465955313854651_);fill:#1A1A1A;" d="M90.7,103.4
				c-2-1.2-4.5-1.4-6.7-0.6c-2.7,1-5.3,3.3-7.8,7.7c-1.1,1.8-2,3.7-2.9,5.7l3.4,2c0.8-2,1.8-3.9,2.8-5.7c2.2-3.9,4.3-5.4,5.7-5.9
				c1.1-0.5,2.4-0.3,3.4,0.3c1.1,0.6,1.8,1.6,2,2.8c0.3,1.5,0,4-2.3,7.9c-1.1,1.8-2.3,3.6-3.6,5.3l3.4,2c1.3-1.7,2.4-3.5,3.5-5.3
				c2.5-4.4,3.2-7.8,2.7-10.6C94.2,106.6,92.8,104.6,90.7,103.4L90.7,103.4z"/>
		</g>
	</g>
	<g>
		<g>
			<defs>
				<rect id="SVGID_00000052096623103054308650000017531068389398796444_" x="0.2" y="0.7" width="195.6" height="280.6"/>
			</defs>
			<clipPath id="SVGID_00000052806567522103220630000010643329998304103087_">
				<use xlink:href="#SVGID_00000052096623103054308650000017531068389398796444_"  style="overflow:visible;"/>
			</clipPath>
			<path style="clip-path:url(#SVGID_00000052806567522103220630000010643329998304103087_);fill:#1A1A1A;" d="M85.6,121.9
				c-1.8,2.6-3.9,5-6.1,7.2c-1.3,1.3-2.8,2.5-4.4,3.5c-0.5,0.3-1,0.5-1.5,0.6c-0.2-0.5-0.3-1.1-0.3-1.6c0-1.9,0.3-3.7,0.8-5.5
				c0.8-3,1.9-6,3.2-8.9l-3.4-2c-1.5,3.2-2.7,6.5-3.5,9.9c-0.6,2.1-0.9,4.3-1,6.6c0,1.9,0.4,4,2.2,5s3.8,0.4,5.5-0.6
				c1.9-1.1,3.7-2.5,5.2-4.1c2.5-2.5,4.8-5.1,6.8-8L85.6,121.9z"/>
		</g>
	</g>
	<g>
		<g>
			<defs>
				<rect id="SVGID_00000128482455161864716190000013920592092155774091_" x="0.2" y="0.7" width="195.6" height="280.6"/>
			</defs>
			<clipPath id="SVGID_00000117654396404202522860000016727232647957273233_">
				<use xlink:href="#SVGID_00000128482455161864716190000013920592092155774091_"  style="overflow:visible;"/>
			</clipPath>
			<path style="clip-path:url(#SVGID_00000117654396404202522860000016727232647957273233_);fill:#EB5A53;" d="M113.7,111.4
				c4.8-8.2,9.3-7.8,11.8-6.3c2.5,1.4,5.2,5.2,0.4,13.4s-14.2,18.4-17.6,16.4S108.9,119.7,113.7,111.4z"/>
		</g>
	</g>
	<g>
		<g>
			<defs>
				<rect id="SVGID_00000098914222170244792010000018055423039086263172_" x="0.2" y="0.7" width="195.6" height="280.6"/>
			</defs>
			<clipPath id="SVGID_00000159428917372207364540000006814766734498242453_">
				<use xlink:href="#SVGID_00000098914222170244792010000018055423039086263172_"  style="overflow:visible;"/>
			</clipPath>
			<path style="clip-path:url(#SVGID_00000159428917372207364540000006814766734498242453_);fill:#1A1A1A;" d="M121.4,121.9
				c-1.8,2.6-3.9,5-6.1,7.2c-1.3,1.3-2.8,2.5-4.4,3.5c-0.5,0.3-1,0.5-1.6,0.6c-0.2-0.5-0.3-1.1-0.3-1.6c0-1.9,0.3-3.7,0.8-5.5
				c0.8-3,1.9-6,3.2-8.9l-3.4-2c-1.5,3.2-2.7,6.5-3.6,9.9c-0.6,2.1-0.9,4.3-1,6.6c0,1.9,0.4,4,2.2,5s3.8,0.4,5.5-0.6
				c1.9-1.1,3.7-2.5,5.2-4.1c2.5-2.5,4.8-5.1,6.8-8L121.4,121.9z"/>
		</g>
	</g>
	<g>
		<g>
			<defs>
				<rect id="SVGID_00000054981762932176994410000006070446095605268386_" x="0.2" y="0.7" width="195.6" height="280.6"/>
			</defs>
			<clipPath id="SVGID_00000078756431605624478760000004030879778000488373_">
				<use xlink:href="#SVGID_00000054981762932176994410000006070446095605268386_"  style="overflow:visible;"/>
			</clipPath>
			<path style="clip-path:url(#SVGID_00000078756431605624478760000004030879778000488373_);fill:#1A1A1A;" d="M126.5,103.4
				c-2-1.2-4.5-1.4-6.7-0.6c-2.7,1-5.3,3.3-7.8,7.7c-1.1,1.8-2,3.7-2.8,5.7l3.4,2c0.8-2,1.8-3.9,2.8-5.7c2.2-3.9,4.3-5.4,5.7-5.9
				c2.1-0.8,4.5,0.3,5.2,2.5c0.1,0.2,0.1,0.4,0.2,0.6c0.3,1.5,0,4-2.3,7.9c-1.1,1.8-2.3,3.6-3.6,5.3l3.4,2c1.3-1.7,2.4-3.5,3.5-5.3
				c2.5-4.4,3.2-7.8,2.7-10.6C130,106.6,128.6,104.6,126.5,103.4L126.5,103.4z"/>
		</g>
	</g>
	<g>
		<g>
			<defs>
				<rect id="SVGID_00000090991839186997915330000015534474062561670802_" x="0.2" y="0.7" width="195.6" height="280.6"/>
			</defs>
			<clipPath id="SVGID_00000146467890097285039840000010716692616751169436_">
				<use xlink:href="#SVGID_00000090991839186997915330000015534474062561670802_"  style="overflow:visible;"/>
			</clipPath>
			<path style="clip-path:url(#SVGID_00000146467890097285039840000010716692616751169436_);fill:#EB5A53;" d="M64.3,32
				c9.7-5.4,15,1.6,39,1.3c22-0.2,26.6-6.1,35.5-1.4c15.1,8.1,15.4,32.5,15.4,35.5c0,2.2-0.3,28.4-15.4,35.5
				c-10.1,4.8-15.5-4.4-36-4.7C81,97.9,75,108,64.2,102.9c-15.1-7.3-15.4-33.3-15.4-35.5C48.8,64.5,49.2,40.3,64.3,32z"/>
		</g>
	</g>
	<g>
		<g>
			<defs>
				<rect id="SVGID_00000129915197703109785810000008958453913685640119_" x="0.2" y="0.7" width="195.6" height="280.6"/>
			</defs>
			<clipPath id="SVGID_00000043422608637887597320000002444600508848297902_">
				<use xlink:href="#SVGID_00000129915197703109785810000008958453913685640119_"  style="overflow:visible;"/>
			</clipPath>
			<path style="clip-path:url(#SVGID_00000043422608637887597320000002444600508848297902_);fill:#FFFFFF;" d="M101.2,16
				c-23,0-43.6,14.5-51.2,36.3h102.4C144.7,30.6,124.2,16.1,101.2,16z"/>
		</g>
	</g>
	<g>
		<g>
			<defs>
				<rect id="SVGID_00000109719806864660315620000015299523663281029259_" x="0.2" y="0.7" width="195.6" height="280.6"/>
			</defs>
			<clipPath id="SVGID_00000182507252267547604400000001584299231021877892_">
				<use xlink:href="#SVGID_00000109719806864660315620000015299523663281029259_"  style="overflow:visible;"/>
			</clipPath>
			<path style="clip-path:url(#SVGID_00000182507252267547604400000001584299231021877892_);fill:#FFFFFF;" d="M104,17.3
				c-21.9,0-41.2,14.2-47.8,35h95.7C145.2,31.4,125.9,17.3,104,17.3z"/>
		</g>
	</g>
	<g>
		<g>
			<defs>
				<rect id="SVGID_00000101806300282348653790000003709766593696634241_" x="0.2" y="0.7" width="195.6" height="280.6"/>
			</defs>
			<clipPath id="SVGID_00000081629560971826789630000000202775386027514530_">
				<use xlink:href="#SVGID_00000101806300282348653790000003709766593696634241_"  style="overflow:visible;"/>
			</clipPath>
			<path style="clip-path:url(#SVGID_00000081629560971826789630000000202775386027514530_);fill:#FFFFFF;" d="M52.1,87.5
				c2.3,5.5,5.4,10.5,9.2,15c6.5,7.8,15.1,13.5,24.8,16.5c4.9,1.4,10,2.2,15.1,2.1c9.5-0.2,18.7-2.9,26.9-7.7
				c10.6-6.1,19.2-15.1,24.8-25.9H52.1z"/>
		</g>
	</g>
	<g>
		<g>
			<defs>
				<rect id="SVGID_00000081627834825352391570000006407582542928908672_" x="0.2" y="0.7" width="195.6" height="280.6"/>
			</defs>
			<clipPath id="SVGID_00000021117742398641007540000004346083332049904289_">
				<use xlink:href="#SVGID_00000081627834825352391570000006407582542928908672_"  style="overflow:visible;"/>
			</clipPath>
			<path style="clip-path:url(#SVGID_00000021117742398641007540000004346083332049904289_);fill:#FFFFFF;" d="M55.3,87.6
				c12,26.2,42.9,37.7,69.1,25.8c11.4-5.2,20.5-14.4,25.8-25.8C150.2,87.6,55.3,87.6,55.3,87.6z"/>
		</g>
	</g>
	<g>
		<g>
			<defs>
				<rect id="SVGID_00000080206508167309224590000005544806290443264185_" x="0.2" y="0.7" width="195.6" height="280.6"/>
			</defs>
			<clipPath id="SVGID_00000099620722093327925470000006054313997621686416_">
				<use xlink:href="#SVGID_00000080206508167309224590000005544806290443264185_"  style="overflow:visible;"/>
			</clipPath>
			<path style="clip-path:url(#SVGID_00000099620722093327925470000006054313997621686416_);fill:#FFFFFF;" d="M105.1,103h-0.3h-0.1
				h-0.1h-0.1h-0.1h-0.1h-0.1H104l-0.1,0.1l-0.1,0.1l-0.1,0.1l-0.1,0.1l-0.1,0.1l-0.1,0.1l-0.1,0.1l-0.1,0.1l-0.1,0.1
				c0,0,0,0.1-0.1,0.1l-0.1,0.1c0,0,0,0.1-0.1,0.1l0.2-0.2v0.1v0.1c0,0,0,0.1,0,0.2l0,0v0.1v0.1v0.1v0.1v0.3v0.1v0.1v0.1v0.1v0.1
				v0.1v0.1v0.1v0.1l0.1,0.1l0.1,0.1l0.1,0.1l0.1,0.1l0.1,0.1c0,0,0.1,0,0.1,0.1l0.1,0.1l0.1,0.1l0.1,0.1l0.1,0.1l0.1,0.1l0.1,0.1
				h0.1h0.1l0.2,0.1l0,0l0,0h0.1h0.1h0.1h0.3h0.1h0.3h0.1h0.1h0.1h0.1h0.1h0.1h0.1l0.1-0.1l0.1-0.1l0.1-0.1l0.1-0.1l0.1-0.1l0.1-0.1
				l0.1-0.1l0.1-0.1l0.1-0.1c0,0,0-0.1,0.1-0.1l0.1-0.1v-0.1l0.1-0.1v-0.1v-0.1c0-0.1,0-0.1,0.1-0.2l0,0v-0.1v-0.1v-0.1v-0.1v-0.3
				v-0.1v-0.1v-0.1v-0.1v-0.1v-0.1v-0.1c0,0-8071.7,4035.6-0.1-0.2l-0.1-0.1l-0.1-0.1c0,0,0-0.1-0.1-0.1l-0.1-0.1l-0.1-0.1l-0.1-0.1
				l-0.1-0.1l-0.1-0.1l-0.1-0.1l-0.1-0.1l-0.1-0.1h-0.1H106h-0.1l-0.2-0.1l0,0l0,0h-0.1h-0.1h-0.1h-0.1L105.1,103L105.1,103z"/>
		</g>
	</g>
	<g>
		<g>
			<defs>
				<rect id="SVGID_00000163051551239901027040000006862752882608003712_" x="0.2" y="0.7" width="195.6" height="280.6"/>
			</defs>
			<clipPath id="SVGID_00000064343254776220639210000007925353455294137744_">
				<use xlink:href="#SVGID_00000163051551239901027040000006862752882608003712_"  style="overflow:visible;"/>
			</clipPath>
			<path style="clip-path:url(#SVGID_00000064343254776220639210000007925353455294137744_);fill:#FFFFFF;" d="M105.1,103h-0.2h-0.1
				h-0.1h-0.1h-0.1h-0.1h-0.1h-0.1H104h-0.1l-0.1,0.1l-0.1,0.1l-0.1,0.1l-0.1,0.1l-0.1,0.1c0,0-183.2-182.9-0.2,0.2l-0.1,0.1
				l-0.1,0.1l-0.1,0.1c0,0,0,0.1-0.1,0.1l0.2-0.1v0.1v0.1c0,0,0,0.1,0,0.2l0,0v0.1v0.1v0.1v0.1v0.3v0.1v0.1v0.1v0.1v0.1v0.1v0.1v0.1
				v0.1l0.1,0.1l0.1,0.1l0.1,0.1l0.1,0.1l0.1,0.1l0.1,0.1l0.1,0.1l0.1,0.1l0.1,0.1l0.1,0.1l0.1,0.1l0.1,0.1h0.1h0.1l0.2,0.1l0,0h0.1
				h0.1h0.1h0.5h0.1h0.1h0.1h0.1h0.1h0.1h0.1l0.1-0.1l0.1-0.1l0.1-0.1l0.1-0.1l0.1-0.1l0.1-0.1l0.1-0.1l0.1-0.1l0.1-0.1
				c0,0,0-0.1,0.1-0.1l0.1-0.1v-0.1l0.1-0.1v-0.1v-0.1c0-0.1,0-0.1,0.1-0.2l0,0v-0.1v-0.1v-0.1v-0.1v-0.3v-0.1v-0.1v-0.1v-0.1v-0.1
				v-0.1v-0.1c0,0-8071.7,4035.6-0.1-0.2l-0.1-0.1l-0.1-0.1c0,0,0-0.1-0.1-0.1l-0.1-0.1l-0.1-0.1l-0.1-0.1l-0.1-0.1l-0.1-0.1
				l-0.1-0.1l-0.1-0.1l-0.1-0.1h-0.1H106h-0.1l-0.2-0.1l0,0l0,0h-0.1h-0.1h-0.1L105.1,103L105.1,103L105.1,103z"/>
		</g>
	</g>
	<g>
		<g>
			<defs>
				<rect id="SVGID_00000121264923044445515950000013900358669664968637_" x="0.2" y="0.7" width="195.6" height="280.6"/>
			</defs>
			<clipPath id="SVGID_00000112613170922776099610000006483083180939364744_">
				<use xlink:href="#SVGID_00000121264923044445515950000013900358669664968637_"  style="overflow:visible;"/>
			</clipPath>
			<path style="clip-path:url(#SVGID_00000112613170922776099610000006483083180939364744_);fill:#FFFFFF;" d="M105.1,103h-0.2h-0.1
				h-0.1h-0.1h-0.1h-0.1h-0.1h-0.1H104h-0.1l-0.1,0.1l-0.1,0.1l-0.1,0.1l-0.1,0.1l-0.1,0.1c0,0-183.2-182.9-0.2,0.2l-0.1,0.1
				l-0.1,0.1l-0.1,0.1c0,0,0,0.1-0.1,0.1l0.2-0.1v0.1v0.1c0,0,0,0.1,0,0.2l0,0v0.1v0.1v0.1v0.1v0.3v0.1v0.1v0.1v0.1v0.1v0.1v0.1v0.1
				v0.1l0.1,0.1l0.1,0.1l0.1,0.1l0.1,0.1l0.1,0.1l0.1,0.1l0.1,0.1l0.1,0.1l0.1,0.1l0.1,0.1l0.1,0.1l0.1,0.1h0.1h0.1l0.2,0.1l0,0h0.1
				h0.1h0.1h0.5h0.1h0.1h0.1h0.1h0.1h0.1h0.1l0.1-0.1l0.1-0.1l0.1-0.1l0.1-0.1l0.1-0.1l0.1-0.1l0.1-0.1l0.1-0.1l0.1-0.1
				c0,0,0-0.1,0.1-0.1l0.1-0.1v-0.1l0.1-0.1v-0.1v-0.1c0-0.1,0-0.1,0.1-0.2l0,0v-0.1v-0.1v-0.1v-0.1v-0.3v-0.1v-0.1v-0.1v-0.1v-0.1
				v-0.1v-0.1c0,0-8071.7,4035.6-0.1-0.2l-0.1-0.1l-0.1-0.1c0,0,0-0.1-0.1-0.1l-0.1-0.1l-0.1-0.1l-0.1-0.1l-0.1-0.1l-0.1-0.1
				l-0.1-0.1l-0.1-0.1l-0.1-0.1h-0.1H106h-0.1l-0.2-0.1l0,0l0,0h-0.1h-0.1h-0.1L105.1,103L105.1,103L105.1,103z"/>
		</g>
	</g>
	<g>
		<g>
			<defs>
				<rect id="SVGID_00000111160970685204782140000012954240549672496000_" x="0.2" y="0.7" width="195.6" height="280.6"/>
			</defs>
			<clipPath id="SVGID_00000005987758941294586160000010405249727836747193_">
				<use xlink:href="#SVGID_00000111160970685204782140000012954240549672496000_"  style="overflow:visible;"/>
			</clipPath>
			<path style="clip-path:url(#SVGID_00000005987758941294586160000010405249727836747193_);fill:#FFFFFF;" d="M105.1,103h-0.2h-0.1
				h-0.1h-0.1h-0.1h-0.1h-0.1h-0.1H104h-0.1l-0.1,0.1l-0.1,0.1l-0.1,0.1l-0.1,0.1l-0.1,0.1c0,0-183.2-182.9-0.2,0.2l-0.1,0.1
				l-0.1,0.1l-0.1,0.1c0,0,0,0.1-0.1,0.1l0.2-0.1v0.1v0.1c0,0,0,0.1,0,0.2l0,0v0.1v0.1v0.1v0.1v0.3v0.1v0.1v0.1v0.1v0.1v0.1v0.1v0.1
				v0.1l0.1,0.1l0.1,0.1l0.1,0.1l0.1,0.1l0.1,0.1l0.1,0.1l0.1,0.1l0.1,0.1l0.1,0.1l0.1,0.1l0.1,0.1l0.1,0.1h0.1h0.1l0.2,0.1l0,0h0.1
				h0.1h0.1h0.5h0.1h0.1h0.1h0.1h0.1h0.1h0.1l0.1-0.1l0.1-0.1l0.1-0.1l0.1-0.1l0.1-0.1l0.1-0.1l0.1-0.1l0.1-0.1l0.1-0.1
				c0,0,0-0.1,0.1-0.1l0.1-0.1v-0.1l0.1-0.1v-0.1v-0.1c0-0.1,0-0.1,0.1-0.2l0,0v-0.1v-0.1v-0.1v-0.1v-0.3v-0.1v-0.1v-0.1v-0.1v-0.1
				v-0.1v-0.1c0,0-8071.7,4035.6-0.1-0.2l-0.1-0.1l-0.1-0.1c0,0,0-0.1-0.1-0.1l-0.1-0.1l-0.1-0.1l-0.1-0.1l-0.1-0.1l-0.1-0.1
				l-0.1-0.1l-0.1-0.1l-0.1-0.1h-0.1H106h-0.1l-0.2-0.1l0,0l0,0h-0.1h-0.1h-0.1L105.1,103L105.1,103L105.1,103z"/>
		</g>
	</g>
	<g>
		<g>
			<defs>
				<rect id="SVGID_00000072976100035255284920000017337397259610980481_" x="0.2" y="0.7" width="195.6" height="280.6"/>
			</defs>
			<clipPath id="SVGID_00000119077785472948269650000011775999747513194675_">
				<use xlink:href="#SVGID_00000072976100035255284920000017337397259610980481_"  style="overflow:visible;"/>
			</clipPath>
			<path style="clip-path:url(#SVGID_00000119077785472948269650000011775999747513194675_);fill:#FFFFFF;" d="M105.1,103h-0.2h-0.1
				h-0.1h-0.1h-0.1h-0.1h-0.1h-0.1H104h-0.1l-0.1,0.1l-0.1,0.1l-0.1,0.1l-0.1,0.1l-0.1,0.1c0,0-183.2-182.9-0.2,0.2l-0.1,0.1
				l-0.1,0.1l-0.1,0.1c0,0,0,0.1-0.1,0.1l0.2-0.1v0.1v0.1c0,0,0,0.1,0,0.2l0,0v0.1v0.1v0.1v0.1v0.3v0.1v0.1v0.1v0.1v0.1v0.1v0.1v0.1
				v0.1l0.1,0.1l0.1,0.1l0.1,0.1l0.1,0.1l0.1,0.1l0.1,0.1l0.1,0.1l0.1,0.1l0.1,0.1l0.1,0.1l0.1,0.1l0.1,0.1h0.1h0.1l0.2,0.1l0,0h0.1
				h0.1h0.1h0.5h0.1h0.1h0.1h0.1h0.1h0.1h0.1l0.1-0.1l0.1-0.1l0.1-0.1l0.1-0.1l0.1-0.1l0.1-0.1l0.1-0.1l0.1-0.1l0.1-0.1
				c0,0,0-0.1,0.1-0.1l0.1-0.1v-0.1l0.1-0.1v-0.1v-0.1c0-0.1,0-0.1,0.1-0.2l0,0v-0.1v-0.1v-0.1v-0.1v-0.3v-0.1v-0.1v-0.1v-0.1v-0.1
				v-0.1v-0.1c0,0-8071.7,4035.6-0.1-0.2l-0.1-0.1l-0.1-0.1c0,0,0-0.1-0.1-0.1l-0.1-0.1l-0.1-0.1l-0.1-0.1l-0.1-0.1l-0.1-0.1
				l-0.1-0.1l-0.1-0.1l-0.1-0.1h-0.1H106h-0.1l-0.2-0.1l0,0l0,0h-0.1h-0.1h-0.1L105.1,103L105.1,103L105.1,103z"/>
		</g>
	</g>
	<g>
		<g>
			<defs>
				<rect id="SVGID_00000056395305740936101460000005886193640795714471_" x="0.2" y="0.7" width="195.6" height="280.6"/>
			</defs>
			<clipPath id="SVGID_00000080172233029649165170000001406211083624557454_">
				<use xlink:href="#SVGID_00000056395305740936101460000005886193640795714471_"  style="overflow:visible;"/>
			</clipPath>
			<path style="clip-path:url(#SVGID_00000080172233029649165170000001406211083624557454_);fill:#FFFFFF;" d="M105.1,103h-0.2h-0.1
				h-0.1h-0.1h-0.1h-0.1h-0.1h-0.1H104h-0.1l-0.1,0.1l-0.1,0.1l-0.1,0.1l-0.1,0.1l-0.1,0.1c0,0-183.2-182.9-0.2,0.2l-0.1,0.1
				l-0.1,0.1l-0.1,0.1c0,0,0,0.1-0.1,0.1l0.2-0.1v0.1v0.1c0,0,0,0.1,0,0.2l0,0v0.1v0.1v0.1v0.1v0.3v0.1v0.1v0.1v0.1v0.1v0.1v0.1v0.1
				v0.1l0.1,0.1l0.1,0.1l0.1,0.1l0.1,0.1l0.1,0.1l0.1,0.1l0.1,0.1l0.1,0.1l0.1,0.1l0.1,0.1l0.1,0.1l0.1,0.1h0.1h0.1l0.2,0.1l0,0h0.1
				h0.1h0.1h0.5h0.1h0.1h0.1h0.1h0.1h0.1h0.1l0.1-0.1l0.1-0.1l0.1-0.1l0.1-0.1l0.1-0.1l0.1-0.1l0.1-0.1l0.1-0.1l0.1-0.1
				c0,0,0-0.1,0.1-0.1l0.1-0.1v-0.1l0.1-0.1v-0.1v-0.1c0-0.1,0-0.1,0.1-0.2l0,0v-0.1v-0.1v-0.1v-0.1v-0.3v-0.1v-0.1v-0.1v-0.1v-0.1
				v-0.1v-0.1c0,0-8071.7,4035.6-0.1-0.2l-0.1-0.1l-0.1-0.1c0,0,0-0.1-0.1-0.1l-0.1-0.1l-0.1-0.1l-0.1-0.1l-0.1-0.1l-0.1-0.1
				l-0.1-0.1l-0.1-0.1l-0.1-0.1h-0.1H106h-0.1l-0.2-0.1l0,0l0,0h-0.1h-0.1h-0.1L105.1,103L105.1,103L105.1,103z"/>
		</g>
	</g>
	<g>
		<g>
			<defs>
				<rect id="SVGID_00000093869394639856654720000000446275540389718442_" x="0.2" y="0.7" width="195.6" height="280.6"/>
			</defs>
			<clipPath id="SVGID_00000142166561349212689840000013291358454821689222_">
				<use xlink:href="#SVGID_00000093869394639856654720000000446275540389718442_"  style="overflow:visible;"/>
			</clipPath>
			<path style="clip-path:url(#SVGID_00000142166561349212689840000013291358454821689222_);fill:#FFFFFF;" d="M105.1,103h-0.2h-0.1
				h-0.1h-0.1h-0.1h-0.1h-0.1h-0.1H104h-0.1l-0.1,0.1l-0.1,0.1l-0.1,0.1l-0.1,0.1l-0.1,0.1c0,0-183.2-182.9-0.2,0.2l-0.1,0.1
				l-0.1,0.1l-0.1,0.1c0,0,0,0.1-0.1,0.1l0.2-0.1v0.1v0.1c0,0,0,0.1,0,0.2l0,0v0.1v0.1v0.1v0.1v0.3v0.1v0.1v0.1v0.1v0.1v0.1v0.1v0.1
				v0.1l0.1,0.1l0.1,0.1l0.1,0.1l0.1,0.1l0.1,0.1l0.1,0.1l0.1,0.1l0.1,0.1l0.1,0.1l0.1,0.1l0.1,0.1l0.1,0.1h0.1h0.1l0.2,0.1l0,0h0.1
				h0.1h0.1h0.5h0.1h0.1h0.1h0.1h0.1h0.1h0.1l0.1-0.1l0.1-0.1l0.1-0.1l0.1-0.1l0.1-0.1l0.1-0.1l0.1-0.1l0.1-0.1l0.1-0.1
				c0,0,0-0.1,0.1-0.1l0.1-0.1v-0.1l0.1-0.1v-0.1v-0.1c0-0.1,0-0.1,0.1-0.2l0,0v-0.1v-0.1v-0.1v-0.1v-0.3v-0.1v-0.1v-0.1v-0.1v-0.1
				v-0.1v-0.1c0,0-8071.7,4035.6-0.1-0.2l-0.1-0.1l-0.1-0.1c0,0,0-0.1-0.1-0.1l-0.1-0.1l-0.1-0.1l-0.1-0.1l-0.1-0.1l-0.1-0.1
				l-0.1-0.1l-0.1-0.1l-0.1-0.1h-0.1H106h-0.1l-0.2-0.1l0,0l0,0h-0.1h-0.1h-0.1L105.1,103L105.1,103L105.1,103z"/>
		</g>
	</g>
	<g>
		<g>
			<defs>
				<rect id="SVGID_00000118391949937066432810000011361529304852038297_" x="0.2" y="0.7" width="195.6" height="280.6"/>
			</defs>
			<clipPath id="SVGID_00000041985217950721020910000005259134229771398819_">
				<use xlink:href="#SVGID_00000118391949937066432810000011361529304852038297_"  style="overflow:visible;"/>
			</clipPath>
			<path style="clip-path:url(#SVGID_00000041985217950721020910000005259134229771398819_);fill:#FFFFFF;" d="M105.1,103h-0.2h-0.1
				h-0.1h-0.1h-0.1h-0.1h-0.1h-0.1H104h-0.1l-0.1,0.1l-0.1,0.1l-0.1,0.1l-0.1,0.1l-0.1,0.1c0,0-183.2-182.9-0.2,0.2l-0.1,0.1
				l-0.1,0.1l-0.1,0.1c0,0,0,0.1-0.1,0.1l0.2-0.1v0.1v0.1c0,0,0,0.1,0,0.2l0,0v0.1v0.1v0.1v0.1v0.3v0.1v0.1v0.1v0.1v0.1v0.1v0.1v0.1
				v0.1l0.1,0.1l0.1,0.1l0.1,0.1l0.1,0.1l0.1,0.1l0.1,0.1l0.1,0.1l0.1,0.1l0.1,0.1l0.1,0.1l0.1,0.1l0.1,0.1h0.1h0.1l0.2,0.1l0,0h0.1
				h0.1h0.1h0.5h0.1h0.1h0.1h0.1h0.1h0.1h0.1l0.1-0.1l0.1-0.1l0.1-0.1l0.1-0.1l0.1-0.1l0.1-0.1l0.1-0.1l0.1-0.1l0.1-0.1
				c0,0,0-0.1,0.1-0.1l0.1-0.1v-0.1l0.1-0.1v-0.1v-0.1c0-0.1,0-0.1,0.1-0.2l0,0v-0.1v-0.1v-0.1v-0.1v-0.3v-0.1v-0.1v-0.1v-0.1v-0.1
				v-0.1v-0.1c0,0-8071.7,4035.6-0.1-0.2l-0.1-0.1l-0.1-0.1c0,0,0-0.1-0.1-0.1l-0.1-0.1l-0.1-0.1l-0.1-0.1l-0.1-0.1l-0.1-0.1
				l-0.1-0.1l-0.1-0.1l-0.1-0.1h-0.1H106h-0.1l-0.2-0.1l0,0l0,0h-0.1h-0.1h-0.1L105.1,103L105.1,103L105.1,103z"/>
		</g>
	</g>
	<g>
		<g>
			<defs>
				<rect id="SVGID_00000000916868150205297430000001255461817190882958_" x="0.2" y="0.7" width="195.6" height="280.6"/>
			</defs>
			<clipPath id="SVGID_00000157308936877783726690000017339334688950241437_">
				<use xlink:href="#SVGID_00000000916868150205297430000001255461817190882958_"  style="overflow:visible;"/>
			</clipPath>
			<path style="clip-path:url(#SVGID_00000157308936877783726690000017339334688950241437_);fill:#FFFFFF;" d="M105.1,103h-0.2h-0.1
				h-0.1h-0.1h-0.1h-0.1h-0.1h-0.1H104h-0.1l-0.1,0.1l-0.1,0.1l-0.1,0.1l-0.1,0.1l-0.1,0.1c0,0-183.2-182.9-0.2,0.2l-0.1,0.1
				l-0.1,0.1l-0.1,0.1c0,0,0,0.1-0.1,0.1l0.2-0.1v0.1v0.1c0,0,0,0.1,0,0.2l0,0v0.1v0.1v0.1v0.1v0.3v0.1v0.1v0.1v0.1v0.1v0.1v0.1v0.1
				v0.1l0.1,0.1l0.1,0.1l0.1,0.1l0.1,0.1l0.1,0.1l0.1,0.1l0.1,0.1l0.1,0.1l0.1,0.1l0.1,0.1l0.1,0.1l0.1,0.1h0.1h0.1l0.2,0.1l0,0h0.1
				h0.1h0.1h0.5h0.1h0.1h0.1h0.1h0.1h0.1h0.1l0.1-0.1l0.1-0.1l0.1-0.1l0.1-0.1l0.1-0.1l0.1-0.1l0.1-0.1l0.1-0.1l0.1-0.1
				c0,0,0-0.1,0.1-0.1l0.1-0.1v-0.1l0.1-0.1v-0.1v-0.1c0-0.1,0-0.1,0.1-0.2l0,0v-0.1v-0.1v-0.1v-0.1v-0.3v-0.1v-0.1v-0.1v-0.1v-0.1
				v-0.1v-0.1c0,0-8071.7,4035.6-0.1-0.2l-0.1-0.1l-0.1-0.1c0,0,0-0.1-0.1-0.1l-0.1-0.1l-0.1-0.1l-0.1-0.1l-0.1-0.1l-0.1-0.1
				l-0.1-0.1l-0.1-0.1l-0.1-0.1h-0.1H106h-0.1l-0.2-0.1l0,0l0,0h-0.1h-0.1h-0.1L105.1,103L105.1,103L105.1,103z"/>
		</g>
	</g>
	<g>
		<g>
			<defs>
				<rect id="SVGID_00000161627555012126816370000005931899272233854632_" x="0.2" y="0.7" width="195.6" height="280.6"/>
			</defs>
			<clipPath id="SVGID_00000131362030579893275930000001040783605469857469_">
				<use xlink:href="#SVGID_00000161627555012126816370000005931899272233854632_"  style="overflow:visible;"/>
			</clipPath>
			<path style="clip-path:url(#SVGID_00000131362030579893275930000001040783605469857469_);fill:#FFFFFF;" d="M105.1,103h-0.2h-0.1
				h-0.1h-0.1h-0.1h-0.1h-0.1h-0.1H104h-0.1l-0.1,0.1l-0.1,0.1l-0.1,0.1l-0.1,0.1l-0.1,0.1c0,0-183.2-182.9-0.2,0.2l-0.1,0.1
				l-0.1,0.1l-0.1,0.1c0,0,0,0.1-0.1,0.1l0.2-0.1v0.1v0.1c0,0,0,0.1,0,0.2l0,0v0.1v0.1v0.1v0.1v0.3v0.1v0.1v0.1v0.1v0.1v0.1v0.1v0.1
				v0.1l0.1,0.1l0.1,0.1l0.1,0.1l0.1,0.1l0.1,0.1l0.1,0.1l0.1,0.1l0.1,0.1l0.1,0.1l0.1,0.1l0.1,0.1l0.1,0.1h0.1h0.1l0.2,0.1l0,0h0.1
				h0.1h0.1h0.5h0.1h0.1h0.1h0.1h0.1h0.1h0.1l0.1-0.1l0.1-0.1l0.1-0.1l0.1-0.1l0.1-0.1l0.1-0.1l0.1-0.1l0.1-0.1l0.1-0.1
				c0,0,0-0.1,0.1-0.1l0.1-0.1v-0.1l0.1-0.1v-0.1v-0.1c0-0.1,0-0.1,0.1-0.2l0,0v-0.1v-0.1v-0.1v-0.1v-0.3v-0.1v-0.1v-0.1v-0.1v-0.1
				v-0.1v-0.1c0,0-8071.7,4035.6-0.1-0.2l-0.1-0.1l-0.1-0.1c0,0,0-0.1-0.1-0.1l-0.1-0.1l-0.1-0.1l-0.1-0.1l-0.1-0.1l-0.1-0.1
				l-0.1-0.1l-0.1-0.1l-0.1-0.1h-0.1H106h-0.1l-0.2-0.1l0,0l0,0h-0.1h-0.1h-0.1L105.1,103L105.1,103L105.1,103z"/>
		</g>
	</g>
	<g>
		<g>
			<defs>
				<rect id="SVGID_00000096768494769190303340000009160756219416775587_" x="0.2" y="0.7" width="195.6" height="280.6"/>
			</defs>
			<clipPath id="SVGID_00000080925712670384941030000008715414649267309212_">
				<use xlink:href="#SVGID_00000096768494769190303340000009160756219416775587_"  style="overflow:visible;"/>
			</clipPath>
			<path style="clip-path:url(#SVGID_00000080925712670384941030000008715414649267309212_);fill:#EE6F4D;" d="M4.6,191.8
				c-13.3,0-28.4-16.3-28.4-16.3s15.1-16.3,28.4-16.3s19.6,7.3,19.6,16.3S17.8,191.8,4.6,191.8L4.6,191.8z"/>
		</g>
	</g>
	<g>
		<g>
			<defs>
				<rect id="SVGID_00000003093355456219320470000013360571684903200689_" x="0.2" y="0.7" width="195.6" height="280.6"/>
			</defs>
			<clipPath id="SVGID_00000092444077765203748840000009156304149438345607_">
				<use xlink:href="#SVGID_00000003093355456219320470000013360571684903200689_"  style="overflow:visible;"/>
			</clipPath>
			<path style="clip-path:url(#SVGID_00000092444077765203748840000009156304149438345607_);fill:#FABE7D;" d="M12.5,182.8
				c-5.9,0-12.6-7.2-12.6-7.2s6.7-7.2,12.6-7.2s8.7,3.2,8.7,7.2S18.4,182.8,12.5,182.8z"/>
		</g>
	</g>
	<g>
		<g>
			<defs>
				<rect id="SVGID_00000012439529428378278990000013279727138509485221_" x="0.2" y="0.7" width="195.6" height="280.6"/>
			</defs>
			<clipPath id="SVGID_00000066508613784499567050000011893620928426397061_">
				<use xlink:href="#SVGID_00000012439529428378278990000013279727138509485221_"  style="overflow:visible;"/>
			</clipPath>
			<path style="clip-path:url(#SVGID_00000066508613784499567050000011893620928426397061_);fill:#1A1A1A;" d="M81.6,135
				c-1.9-0.1-3.9-0.2-5.8-0.2c-17.2,0-29.6,4.7-37.6,12s-12,17.3-12,28.6s4,21.3,12,28.6s20.4,12,37.6,12c1.9,0,3.9-0.1,5.8-0.2v6.3
				c-1.9,0.1-3.9,0.2-5.8,0.2c-18.4,0-32.5-5.1-41.9-13.6s-14.1-20.5-14.1-33.3s4.6-24.8,14.1-33.3s23.5-13.6,41.9-13.6
				c1.9,0,3.9,0.1,5.8,0.2V135z"/>
		</g>
	</g>
	<g>
		<g>
			<defs>
				<rect id="SVGID_00000075120184666586064240000017266080630117789344_" x="0.2" y="0.7" width="195.6" height="280.6"/>
			</defs>
			<clipPath id="SVGID_00000152947115790170384180000011732533125516177832_">
				<use xlink:href="#SVGID_00000075120184666586064240000017266080630117789344_"  style="overflow:visible;"/>
			</clipPath>
			<path style="clip-path:url(#SVGID_00000152947115790170384180000011732533125516177832_);fill:#1A1A1A;" d="M155.2,175.5
				c0,13.9-11.3,25.6-26.4,33.8c-15,7.9-31.5,12.3-48.3,13.1v-6.3c15.9-0.8,32.5-5.4,45.3-12.3c14.1-7.6,23.1-17.9,23.1-28.2
				s-9-20.6-23.1-28.2c-12.8-7-29.5-11.6-45.3-12.3v-6.3c16.9,0.8,33.4,5.2,48.3,13.1C143.9,150,155.2,161.6,155.2,175.5
				L155.2,175.5z"/>
		</g>
	</g>
	<g>
		<g>
			<defs>
				<rect id="SVGID_00000179611512996555096590000005734485035138183352_" x="0.2" y="0.7" width="195.6" height="280.6"/>
			</defs>
			<clipPath id="SVGID_00000173856157752908587020000004154426104640350375_">
				<use xlink:href="#SVGID_00000179611512996555096590000005734485035138183352_"  style="overflow:visible;"/>
			</clipPath>
			<path style="clip-path:url(#SVGID_00000173856157752908587020000004154426104640350375_);fill:#44B1E6;" d="M151.8,179.2
				c-0.3,1.5-0.6,2.9-1.2,4.3c-7.6-20.4-43.2-35.8-74.8-35.8s-48.7,15.4-52.1,35.9c-0.2-1.4-0.4-2.8-0.5-4.3
				c1.7-22.5,18.8-40.2,52.7-40.2S147.9,156.7,151.8,179.2L151.8,179.2z"/>
		</g>
	</g>
	<g>
		<g>
			<defs>
				<rect id="SVGID_00000181798905486903006400000017160143879050739864_" x="0.2" y="0.7" width="195.6" height="280.6"/>
			</defs>
			<clipPath id="SVGID_00000067937487409108476240000016181938941596393887_">
				<use xlink:href="#SVGID_00000181798905486903006400000017160143879050739864_"  style="overflow:visible;"/>
			</clipPath>
			<path style="clip-path:url(#SVGID_00000067937487409108476240000016181938941596393887_);fill:#1A1A1A;" d="M60,134.4
				c-8.5-13.4-25.3-15.5-34.5-15.5c4.5,5.3,10.8,14.3,12.5,26.3l-6.3,0.9c-2.3-16-15.3-27.7-15.3-27.7l-5.1-4.6l6.8-1
				c0,0,32.5-4.8,47.2,18.2L60,134.4z"/>
		</g>
	</g>
	<g>
		<g>
			<defs>
				<rect id="SVGID_00000101823365379378012230000015721786645837129662_" x="0.2" y="0.7" width="195.6" height="280.6"/>
			</defs>
			<clipPath id="SVGID_00000117648111669972916530000001915941974994766495_">
				<use xlink:href="#SVGID_00000101823365379378012230000015721786645837129662_"  style="overflow:visible;"/>
			</clipPath>
			<path style="clip-path:url(#SVGID_00000117648111669972916530000001915941974994766495_);fill:#1A1A1A;" d="M65.3,220.1
				c-14.7,23-47.2,18.1-47.2,18.1l-6.8-1l5.1-4.5c0,0,12.9-11.7,15.3-27.7l6.3,0.9c-1.7,11.9-8,20.9-12.5,26.3
				c9.2-0.1,26-2.1,34.5-15.5L65.3,220.1L65.3,220.1z"/>
		</g>
	</g>
	<g>
		<g>
			<defs>
				<rect id="SVGID_00000115473338792668013850000009635186927239552385_" x="0.2" y="0.7" width="195.6" height="280.6"/>
			</defs>
			<clipPath id="SVGID_00000180348724486990740870000013200970207978524094_">
				<use xlink:href="#SVGID_00000115473338792668013850000009635186927239552385_"  style="overflow:visible;"/>
			</clipPath>
			<path style="clip-path:url(#SVGID_00000180348724486990740870000013200970207978524094_);fill:#EA4F3D;" d="M62.7,218.4
				c-13.4,21-44.1,16.7-44.1,16.7s13.8-12.2,16.3-29.6L62.7,218.4z"/>
		</g>
	</g>
	<g>
		<g>
			<defs>
				<rect id="SVGID_00000001636670526590207200000014558244229146056358_" x="0.2" y="0.7" width="195.6" height="280.6"/>
			</defs>
			<clipPath id="SVGID_00000104697290386675856340000005006779472624300695_">
				<use xlink:href="#SVGID_00000001636670526590207200000014558244229146056358_"  style="overflow:visible;"/>
			</clipPath>
			<path style="clip-path:url(#SVGID_00000104697290386675856340000005006779472624300695_);fill:#DF1F1D;" d="M62.7,218.4
				c-1.4,2.1-2.9,4.1-4.8,5.8c-10.2-1.7-18.7-5-25.5-9.5c1.2-3,2-6,2.4-9.2L62.7,218.4L62.7,218.4z"/>
		</g>
	</g>
	<g>
		<g>
			<defs>
				<rect id="SVGID_00000110467051856658157600000000437621897019759792_" x="0.2" y="0.7" width="195.6" height="280.6"/>
			</defs>
			<clipPath id="SVGID_00000030451920876553633650000011745254781138588300_">
				<use xlink:href="#SVGID_00000110467051856658157600000000437621897019759792_"  style="overflow:visible;"/>
			</clipPath>
			<path style="clip-path:url(#SVGID_00000030451920876553633650000011745254781138588300_);fill:#EA4F3D;" d="M62.7,132.7
				c-13.4-21-44.1-16.7-44.1-16.7s13.8,12.2,16.3,29.6L62.7,132.7z"/>
		</g>
	</g>
	<g>
		<g>
			<defs>
				<rect id="SVGID_00000032647229604348959680000017426259379293754025_" x="0.2" y="0.7" width="195.6" height="280.6"/>
			</defs>
			<clipPath id="SVGID_00000155865154231803779410000006618809642472032133_">
				<use xlink:href="#SVGID_00000032647229604348959680000017426259379293754025_"  style="overflow:visible;"/>
			</clipPath>
			<path style="clip-path:url(#SVGID_00000155865154231803779410000006618809642472032133_);fill:#F39673;" d="M59,134.4
				c-10.1-14.7-28.9-16.2-38-16.1c-1.4-1.5-2.3-2.3-2.3-2.3s30.7-4.3,44.1,16.7L59,134.4z"/>
		</g>
	</g>
	<g>
		<g>
			<defs>
				<rect id="SVGID_00000056426599344874440440000003295967188343644037_" x="0.2" y="0.7" width="195.6" height="280.6"/>
			</defs>
			<clipPath id="SVGID_00000037660252630472019370000014738728346741474719_">
				<use xlink:href="#SVGID_00000056426599344874440440000003295967188343644037_"  style="overflow:visible;"/>
			</clipPath>
			<path style="clip-path:url(#SVGID_00000037660252630472019370000014738728346741474719_);fill:#298BCC;" d="M75.8,219.3
				c35.7,0,76.3-19.6,76.3-43.8s-40.7-43.8-76.3-43.8S23,151.3,23,175.5S40.2,219.3,75.8,219.3L75.8,219.3z"/>
		</g>
	</g>
	<g>
		<g>
			<defs>
				<rect id="SVGID_00000111188369492512796860000013396028808722842034_" x="0.2" y="0.7" width="195.6" height="280.6"/>
			</defs>
			<clipPath id="SVGID_00000041294462245410310940000012632533420242313128_">
				<use xlink:href="#SVGID_00000111188369492512796860000013396028808722842034_"  style="overflow:visible;"/>
			</clipPath>
			<path style="clip-path:url(#SVGID_00000041294462245410310940000012632533420242313128_);fill:#4EB9EB;" d="M149.2,171.8
				c-14.7-15.1-46.1-25.7-74.5-25.7c-22.1,0-37.7,6.4-47,16.3c7.3-13.9,23.2-23.5,48-23.5C105.8,139,139.4,152.9,149.2,171.8
				L149.2,171.8z"/>
		</g>
	</g>
	<g>
		<g>
			<defs>
				<rect id="SVGID_00000138553226008270803510000010991704920621296800_" x="0.2" y="0.7" width="195.6" height="280.6"/>
			</defs>
			<clipPath id="SVGID_00000068673468958687706630000012485677521160711296_">
				<use xlink:href="#SVGID_00000138553226008270803510000010991704920621296800_"  style="overflow:visible;"/>
			</clipPath>
			<path style="clip-path:url(#SVGID_00000068673468958687706630000012485677521160711296_);fill:#026196;" d="M102.9,180.3
				c0,12.1-9.8,21.9-21.9,21.9s-21.9-9.8-21.9-21.9c0-12.1,9.8-21.9,21.9-21.9C93.1,158.3,102.9,168.1,102.9,180.3
				C102.9,180.2,102.9,180.3,102.9,180.3L102.9,180.3z"/>
		</g>
	</g>
	<g>
		<g>
			<defs>
				<rect id="SVGID_00000101073669298447767030000000822280658273358754_" x="0.2" y="0.7" width="195.6" height="280.6"/>
			</defs>
			<clipPath id="SVGID_00000024712412492241102760000013909878212595705990_">
				<use xlink:href="#SVGID_00000101073669298447767030000000822280658273358754_"  style="overflow:visible;"/>
			</clipPath>
			<path style="clip-path:url(#SVGID_00000024712412492241102760000013909878212595705990_);fill:#026196;" d="M152.1,175.5
				c0,24.2-40.7,43.8-76.3,43.8c-32.6,0-49.8-16.4-52.4-37.8l0.3,0.3c7.6,14.4,24.5,24.2,51.4,24.2c31,0,65.5-13.1,77-31.2
				C152,175.1,152,175.3,152.1,175.5L152.1,175.5z"/>
		</g>
	</g>
	<g>
		<g>
			<defs>
				<rect id="SVGID_00000173871720966128157470000004764038250967102878_" x="0.2" y="0.7" width="195.6" height="280.6"/>
			</defs>
			<clipPath id="SVGID_00000023992993009451587390000011776451483670609802_">
				<use xlink:href="#SVGID_00000173871720966128157470000004764038250967102878_"  style="overflow:visible;"/>
			</clipPath>
			<path style="clip-path:url(#SVGID_00000023992993009451587390000011776451483670609802_);fill:#EA4F3D;" d="M152.1,175.5
				c0,14-13.7,26.6-32.2,34.6v-69.2C138.4,148.9,152.1,161.5,152.1,175.5L152.1,175.5z"/>
		</g>
	</g>
	<g>
		<g>
			<defs>
				<rect id="SVGID_00000026139646821578898930000018053885341520445585_" x="0.2" y="0.7" width="195.6" height="280.6"/>
			</defs>
			<clipPath id="SVGID_00000080918159064774901790000004138761589879162810_">
				<use xlink:href="#SVGID_00000026139646821578898930000018053885341520445585_"  style="overflow:visible;"/>
			</clipPath>
			<path style="clip-path:url(#SVGID_00000080918159064774901790000004138761589879162810_);fill:#EA4F3D;" d="M34.9,205.5
				c-8-7.8-11.9-18.4-11.9-29.9s3.9-22.1,11.9-30V205.5z"/>
		</g>
	</g>
	<g>
		<g>
			<defs>
				<rect id="SVGID_00000036245881894044977130000012093711866399988638_" x="0.2" y="0.7" width="195.6" height="280.6"/>
			</defs>
			<clipPath id="SVGID_00000144326324661615816060000010747094387664191363_">
				<use xlink:href="#SVGID_00000036245881894044977130000012093711866399988638_"  style="overflow:visible;"/>
			</clipPath>
			<path style="clip-path:url(#SVGID_00000144326324661615816060000010747094387664191363_);fill:#DF1F1D;" d="M152.1,175.5
				c0,14-13.7,26.6-32.2,34.6v-12.4c14.4-5.6,26.3-13.5,32.2-22.7C152.1,175.1,152.1,175.3,152.1,175.5L152.1,175.5z"/>
		</g>
	</g>
	<g>
		<g>
			<defs>
				<rect id="SVGID_00000069386963453448464340000006298543039352148136_" x="0.2" y="0.7" width="195.6" height="280.6"/>
			</defs>
			<clipPath id="SVGID_00000119803469043517936860000018105544597140684464_">
				<use xlink:href="#SVGID_00000069386963453448464340000006298543039352148136_"  style="overflow:visible;"/>
			</clipPath>
			<path style="clip-path:url(#SVGID_00000119803469043517936860000018105544597140684464_);fill:#F39673;" d="M149.2,171.8
				c-6.9-7-17.3-13.1-29.3-17.5v-6C133.4,154.2,144.3,162.4,149.2,171.8L149.2,171.8z"/>
		</g>
	</g>
	<g>
		<g>
			<defs>
				<rect id="SVGID_00000071551327782773724650000011765798806875026106_" x="0.2" y="0.7" width="195.6" height="280.6"/>
			</defs>
			<clipPath id="SVGID_00000174581663931751905980000000205438081815595401_">
				<use xlink:href="#SVGID_00000071551327782773724650000011765798806875026106_"  style="overflow:visible;"/>
			</clipPath>
			<path style="clip-path:url(#SVGID_00000174581663931751905980000000205438081815595401_);fill:#DF1F1D;" d="M34.9,205.5
				c-6.5-6.4-10.6-14.8-11.6-23.9l0.3,0.3c2.7,5.2,6.6,9.6,11.3,13.1V205.5z"/>
		</g>
	</g>
	<g>
		<g>
			<defs>
				<rect id="SVGID_00000060014547053358590170000013540627248673759934_" x="0.2" y="0.7" width="195.6" height="280.6"/>
			</defs>
			<clipPath id="SVGID_00000150804503477430437390000006424601592365526459_">
				<use xlink:href="#SVGID_00000060014547053358590170000013540627248673759934_"  style="overflow:visible;"/>
			</clipPath>
			<path style="clip-path:url(#SVGID_00000150804503477430437390000006424601592365526459_);fill:#1A1A1A;" d="M81.6,132.6
				c-1.9-0.1-3.9-0.2-5.8-0.2c-17.7,0-30.7,4.9-39.2,12.6s-12.8,18.5-12.8,30.4S28,198,36.6,205.8s21.6,12.6,39.2,12.6
				c1.9,0,3.9-0.1,5.8-0.2v1.6c-1.9,0.1-3.9,0.2-5.8,0.2c-18,0-31.4-4.9-40.3-13s-13.3-19.3-13.3-31.6s4.4-23.6,13.3-31.7
				s22.3-13,40.3-13c1.9,0,3.9,0.1,5.8,0.2C81.6,130.9,81.6,132.6,81.6,132.6z"/>
		</g>
	</g>
	<g>
		<g>
			<defs>
				<rect id="SVGID_00000183929672022070719300000012772225417958811817_" x="0.2" y="0.7" width="195.6" height="280.6"/>
			</defs>
			<clipPath id="SVGID_00000115507870644943193290000016676653096767409841_">
				<use xlink:href="#SVGID_00000183929672022070719300000012772225417958811817_"  style="overflow:visible;"/>
			</clipPath>
			<path style="clip-path:url(#SVGID_00000115507870644943193290000016676653096767409841_);fill:#F39673;" d="M34.9,156.4
				c-2.6,1.7-5,3.8-7.1,6.1c1.9-3.5,4.3-6.8,7.1-9.6V156.4z"/>
		</g>
	</g>
	<g>
		<g>
			<defs>
				<rect id="SVGID_00000088120234409442027120000013389972098320961949_" x="0.2" y="0.7" width="195.6" height="280.6"/>
			</defs>
			<clipPath id="SVGID_00000112632924652786759360000014049889024041512120_">
				<use xlink:href="#SVGID_00000088120234409442027120000013389972098320961949_"  style="overflow:visible;"/>
			</clipPath>
			
				<rect x="34.1" y="145.6" style="clip-path:url(#SVGID_00000112632924652786759360000014049889024041512120_);fill:#1A1A1A;" width="1.6" height="59.9"/>
		</g>
	</g>
	<g>
		<g>
			<defs>
				<rect id="SVGID_00000144331970103440269720000012958440803504287933_" x="0.2" y="0.7" width="195.6" height="280.6"/>
			</defs>
			<clipPath id="SVGID_00000173127055263061000260000013663555311416904324_">
				<use xlink:href="#SVGID_00000144331970103440269720000012958440803504287933_"  style="overflow:visible;"/>
			</clipPath>
			
				<rect x="119.1" y="140.9" style="clip-path:url(#SVGID_00000173127055263061000260000013663555311416904324_);fill:#1A1A1A;" width="1.6" height="69.2"/>
		</g>
	</g>
	<g>
		<g>
			<defs>
				<rect id="SVGID_00000072254577863481490010000013089736556060235909_" x="0.2" y="0.7" width="195.6" height="280.6"/>
			</defs>
			<clipPath id="SVGID_00000047781046077130818370000013833867977029574279_">
				<use xlink:href="#SVGID_00000072254577863481490010000013089736556060235909_"  style="overflow:visible;"/>
			</clipPath>
			<path style="clip-path:url(#SVGID_00000047781046077130818370000013833867977029574279_);fill:#BDBDBD;" d="M102.2,175.5
				c0,11.7-9.5,21.2-21.2,21.2s-21.2-9.5-21.2-21.2s9.5-21.2,21.2-21.2S102.2,163.8,102.2,175.5L102.2,175.5z"/>
		</g>
	</g>
	<g>
		<g>
			<defs>
				<rect id="SVGID_00000088131897821535800400000001656033696433961919_" x="0.2" y="0.7" width="195.6" height="280.6"/>
			</defs>
			<clipPath id="SVGID_00000145778364259855797820000008472534460811370400_">
				<use xlink:href="#SVGID_00000088131897821535800400000001656033696433961919_"  style="overflow:visible;"/>
			</clipPath>
			<path style="clip-path:url(#SVGID_00000145778364259855797820000008472534460811370400_);fill:#9C9C9C;" d="M102.2,175.5
				c0,11.7-9.5,21.2-21.2,21.2s-21.2-9.5-21.2-21.2c0-0.8,0.1-1.6,0.2-2.5c11.5,11.6,30.3,11.7,41.9,0.1l0.1-0.1
				C102.1,173.9,102.2,174.7,102.2,175.5L102.2,175.5z"/>
		</g>
	</g>
	<g>
		<g>
			<defs>
				<rect id="SVGID_00000137816860209468709730000017921478799922035864_" x="0.2" y="0.7" width="195.6" height="280.6"/>
			</defs>
			<clipPath id="SVGID_00000092440774715792436610000009827142870837086620_">
				<use xlink:href="#SVGID_00000137816860209468709730000017921478799922035864_"  style="overflow:visible;"/>
			</clipPath>
			<path style="clip-path:url(#SVGID_00000092440774715792436610000009827142870837086620_);fill:#A3DAF4;" d="M94.5,175.5
				c0,7.4-6,13.4-13.5,13.4c-7.4,0-13.4-6-13.4-13.5s6-13.4,13.5-13.4c3.6,0,7,1.4,9.5,3.9C93,168.5,94.5,171.9,94.5,175.5
				L94.5,175.5z"/>
		</g>
	</g>
	<g>
		<g>
			<defs>
				<rect id="SVGID_00000139257158371964262380000016847910497477311400_" x="0.2" y="0.7" width="195.6" height="280.6"/>
			</defs>
			<clipPath id="SVGID_00000063592428877983949100000003328132880053201046_">
				<use xlink:href="#SVGID_00000139257158371964262380000016847910497477311400_"  style="overflow:visible;"/>
			</clipPath>
			<path style="clip-path:url(#SVGID_00000063592428877983949100000003328132880053201046_);fill:#1A1A1A;" d="M62,133.1
				c-11.9-18.7-37.2-16.9-41.6-16.5c3,2.9,13.1,13.6,15.3,28.8l-1.6,0.2c-2.5-17-16-29.1-16-29.1l-1.3-1.1l1.7-0.2
				c0,0,31.2-4.4,44.8,17.1L62,133.1z"/>
		</g>
	</g>
	<g>
		<g>
			<defs>
				<rect id="SVGID_00000179603702577028957740000016230576423747374491_" x="0.2" y="0.7" width="195.6" height="280.6"/>
			</defs>
			<clipPath id="SVGID_00000043428065193010415890000004181290449859872446_">
				<use xlink:href="#SVGID_00000179603702577028957740000016230576423747374491_"  style="overflow:visible;"/>
			</clipPath>
			<path style="clip-path:url(#SVGID_00000043428065193010415890000004181290449859872446_);fill:#1A1A1A;" d="M63.3,218.8
				c-13.7,21.5-44.8,17.1-44.8,17.1l-1.7-0.2l1.3-1.1c0,0,13.6-12.1,16-29.1l1.6,0.2c-2.2,15.2-12.3,25.9-15.2,28.8
				c4.4,0.4,29.7,2.2,41.6-16.5L63.3,218.8L63.3,218.8z"/>
		</g>
	</g>
	<g>
		<g>
			<defs>
				<rect id="SVGID_00000058554047009922970380000010787619680222122417_" x="0.2" y="0.7" width="195.6" height="280.6"/>
			</defs>
			<clipPath id="SVGID_00000068636239117204149680000009777775161837330070_">
				<use xlink:href="#SVGID_00000058554047009922970380000010787619680222122417_"  style="overflow:visible;"/>
			</clipPath>
			<path style="clip-path:url(#SVGID_00000068636239117204149680000009777775161837330070_);fill:#1A1A1A;" d="M81.6,155.1H81
				c-11.3,0-20.4,9.1-20.4,20.4c0,11.3,9.1,20.4,20.4,20.4h0.6v1.6H81c-12.1-0.6-21.5-11-20.8-23.1c0.6-11.2,9.6-20.2,20.8-20.8h0.6
				V155.1z"/>
		</g>
	</g>
	<g>
		<g>
			<defs>
				<rect id="SVGID_00000103974730000690217290000011853739509241665436_" x="0.2" y="0.7" width="195.6" height="280.6"/>
			</defs>
			<clipPath id="SVGID_00000043449405791921768220000000875919301046609035_">
				<use xlink:href="#SVGID_00000103974730000690217290000011853739509241665436_"  style="overflow:visible;"/>
			</clipPath>
			<path style="clip-path:url(#SVGID_00000043449405791921768220000000875919301046609035_);fill:#1A1A1A;" d="M81.6,162.9H81
				c-7,0.2-12.5,6-12.3,13c0.2,6.7,5.6,12.1,12.3,12.3h0.6v1.6H81c-7.9-0.2-14.1-6.8-13.9-14.6c0.2-7.6,6.3-13.7,13.9-13.9h0.6
				V162.9z"/>
		</g>
	</g>
	<g>
		<g>
			<defs>
				<rect id="SVGID_00000048486800028116643790000012320931250578776470_" x="0.2" y="0.7" width="195.6" height="280.6"/>
			</defs>
			<clipPath id="SVGID_00000032638450740625562120000009473753994123068594_">
				<use xlink:href="#SVGID_00000048486800028116643790000012320931250578776470_"  style="overflow:visible;"/>
			</clipPath>
			<path style="clip-path:url(#SVGID_00000032638450740625562120000009473753994123068594_);fill:#FFFFFF;" d="M91.1,173.3
				c-4.9-5.5-13.4-6.1-18.9-1.2c-0.4,0.4-0.8,0.8-1.2,1.2c1.2-5.5,6.7-9,12.3-7.8C87.1,166.3,90.2,169.4,91.1,173.3z"/>
		</g>
	</g>
	<g>
		<g>
			<defs>
				<rect id="SVGID_00000001632339914949056880000010304738852169280173_" x="0.2" y="0.7" width="195.6" height="280.6"/>
			</defs>
			<clipPath id="SVGID_00000101783873729565554520000006761782672305527467_">
				<use xlink:href="#SVGID_00000001632339914949056880000010304738852169280173_"  style="overflow:visible;"/>
			</clipPath>
			<path style="clip-path:url(#SVGID_00000101783873729565554520000006761782672305527467_);fill:#1A1A1A;" d="M95.2,175.5
				c0,7.9-6.4,14.2-14.2,14.2h-0.6v-1.6H81c7,0.2,12.8-5.3,13-12.3s-5.3-12.8-12.3-13c-0.2,0-0.5,0-0.7,0h-0.6v-1.6H81
				C88.9,161.3,95.2,167.6,95.2,175.5L95.2,175.5z"/>
		</g>
	</g>
	<g>
		<g>
			<defs>
				<rect id="SVGID_00000047061085515959876100000015943360288338621118_" x="0.2" y="0.7" width="195.6" height="280.6"/>
			</defs>
			<clipPath id="SVGID_00000059312396635821836750000004430852332144706750_">
				<use xlink:href="#SVGID_00000047061085515959876100000015943360288338621118_"  style="overflow:visible;"/>
			</clipPath>
			<path style="clip-path:url(#SVGID_00000059312396635821836750000004430852332144706750_);fill:#1A1A1A;" d="M103,175.5
				c0,12.2-9.8,22-22,22h-0.6v-1.6H81c11.3,0,20.4-9.1,20.4-20.4c0-11.3-9.1-20.4-20.4-20.4l0,0h-0.6v-1.6H81
				C93.2,153.5,103,163.4,103,175.5L103,175.5z"/>
		</g>
	</g>
	<g>
		<g>
			<defs>
				<rect id="SVGID_00000040573198458296906400000005782861194025778358_" x="0.2" y="0.7" width="195.6" height="280.6"/>
			</defs>
			<clipPath id="SVGID_00000164485673859792857300000018253688759582701244_">
				<use xlink:href="#SVGID_00000040573198458296906400000005782861194025778358_"  style="overflow:visible;"/>
			</clipPath>
			<path style="clip-path:url(#SVGID_00000164485673859792857300000018253688759582701244_);fill:#1A1A1A;" d="M152.9,175.5
				c0,12.5-10.4,23.7-25.2,31.7c-14.6,7.7-30.7,12-47.2,12.8v-1.6c16.3-0.8,33.2-5.5,46.5-12.6c14.5-7.9,24.4-18.6,24.4-30.3
				s-9.9-22.4-24.4-30.3c-13.2-7.2-30.2-11.9-46.5-12.6V131c16.5,0.8,32.6,5.2,47.2,12.8C142.4,151.8,152.9,163,152.9,175.5
				L152.9,175.5z"/>
		</g>
	</g>
	<g>
		<g>
			<defs>
				<rect id="SVGID_00000182499468179458313320000006868365398244266938_" x="0.2" y="0.7" width="195.6" height="280.6"/>
			</defs>
			<clipPath id="SVGID_00000120533301066826352810000006989883019893332409_">
				<use xlink:href="#SVGID_00000182499468179458313320000006868365398244266938_"  style="overflow:visible;"/>
			</clipPath>
			<path style="clip-path:url(#SVGID_00000120533301066826352810000006989883019893332409_);fill:#1A1A1A;" d="M108.9,11.2
				c-1.6,0.1-3.1,0.5-4.5,1.2c-1.1,0.6-2.3,0.9-3.5,1c-1.2-0.1-2.4-0.4-3.5-1c-4.1-2.2-9.1-1.3-12.1,2.1c-0.8,0.9-1.8,1.7-2.9,2.2
				c-1.2,0.3-2.4,0.4-3.6,0.2c-2.2-0.2-4.4,0.2-6.4,1.2C70.5,19.3,69,21,68.1,23c-0.5,1.1-1.1,2.2-2,3c-1,0.7-2.2,1.2-3.4,1.4
				c-2.2,0.5-4.1,1.7-5.6,3.3c-1.4,1.8-2.2,3.9-2.3,6.1c0,1.2-0.3,2.4-0.8,3.6c-0.7,1-1.6,1.8-2.7,2.5c-1.8,1.2-3.3,3-4.1,5.1
				c-0.7,2.1-0.7,4.4-0.1,6.5c0.4,1.2,0.5,2.4,0.4,3.6c-0.3,1.2-0.9,2.3-1.7,3.2c-1.3,1.8-2.1,3.9-2.1,6.2c0.1,2.2,0.8,4.4,2.1,6.2
				c0.8,1,1.3,2.1,1.7,3.3c0.1,1.2-0.1,2.5-0.5,3.6c-1.4,4.4,0.3,9.2,4.2,11.6c1,0.7,1.9,1.5,2.7,2.5c0.5,1.1,0.8,2.3,0.8,3.6
				c0.1,4.6,3.4,8.5,7.9,9.4c1.2,0.3,2.3,0.8,3.4,1.4c0.9,0.9,1.5,1.9,2,3.1c1.7,4.3,6.1,6.8,10.7,6.2c1.2-0.2,2.5-0.1,3.6,0.2
				c1.1,0.5,2.1,1.3,2.9,2.2c3.1,3.4,8.1,4.3,12.2,2.2c1.1-0.6,2.3-0.9,3.5-1.1c1.2,0.1,2.4,0.5,3.5,1.1c4.1,2.2,9.1,1.3,12.2-2.2
				c0.8-0.9,1.8-1.6,2.9-2.2c1.2-0.3,2.4-0.4,3.6-0.2c4.6,0.6,9-1.9,10.7-6.2c0.5-1.1,1.1-2.2,2-3.1c1-0.7,2.2-1.2,3.4-1.4
				c4.5-0.9,7.8-4.9,7.9-9.4c0-1.2,0.3-2.4,0.8-3.6c0.7-1,1.6-1.8,2.7-2.5c3.9-2.4,5.7-7.2,4.2-11.6c-0.4-1.2-0.5-2.4-0.4-3.6
				c0.4-1.2,0.9-2.3,1.7-3.3c1.3-1.8,2.1-3.9,2.1-6.2c-0.1-2.2-0.8-4.4-2.1-6.2c-0.8-1-1.3-2.1-1.6-3.2c-0.1-1.2,0.1-2.5,0.4-3.6
				c0.6-2.1,0.6-4.4-0.1-6.5c-0.8-2.1-2.3-3.8-4.1-5.1c-1-0.7-1.9-1.5-2.7-2.5c-0.5-1.1-0.8-2.3-0.9-3.6c-0.2-2.2-1-4.3-2.3-6.1
				c-1.5-1.6-3.4-2.8-5.6-3.3c-1.2-0.3-2.3-0.8-3.4-1.4c-0.9-0.9-1.5-1.9-2-3c-0.9-2-2.4-3.8-4.3-4.9c-2-1-4.2-1.5-6.4-1.2
				c-1.2,0.2-2.5,0.1-3.6-0.2c-1.1-0.5-2.1-1.3-2.9-2.2c-1.5-1.6-3.5-2.7-5.7-3.2C110.1,11.2,109.5,11.2,108.9,11.2L108.9,11.2z
				 M109.7,17.6c1,0.3,1.9,0.8,2.5,1.6c1.4,1.5,3.1,2.7,5,3.5c2,0.6,4.1,0.8,6.1,0.6c1-0.2,2.1,0,3,0.4c0.8,0.6,1.5,1.4,1.8,2.4
				c0.8,1.9,2,3.6,3.6,5c1.6,1.3,3.5,2.2,5.5,2.6c1,0.2,1.9,0.7,2.6,1.4c0.6,0.8,0.9,1.8,0.9,2.8c0.1,2.1,0.7,4.1,1.6,5.9
				c1.1,1.7,2.6,3.2,4.3,4.4c1.2,0.9,1.7,1.4,2,2.2c0.3,1,0.2,2-0.1,3c-0.6,2-0.8,4.1-0.5,6.1c0.4,2,1.3,3.9,2.6,5.6
				c0.7,0.8,1.1,1.7,1.1,2.8c-0.1,1-0.5,2-1.1,2.7c-1.2,1.6-2.1,3.5-2.5,5.5c-0.3,2-0.1,4.1,0.5,6.1c0.3,1,0.4,2,0.1,3
				c-0.3,0.8-0.8,1.3-2,2.2c-1.7,1.1-3.2,2.6-4.3,4.4c-1,1.8-1.5,3.8-1.6,5.9c0,1-0.3,2-0.9,2.8c-0.7,0.7-1.6,1.2-2.6,1.4
				c-4.2,0.8-7.6,3.7-9.1,7.6c-0.7,1.3-1.1,1.9-1.8,2.3c-0.9,0.4-2,0.6-3,0.4c-4.2-0.7-8.4,0.9-11.2,4.1c-1.2,1.8-3.6,2.2-5.4,1l0,0
				c-1.8-0.9-3.9-1.5-5.9-1.6c-2,0.1-4,0.6-5.8,1.5c-0.9,0.5-1.9,0.7-2.9,0.6c-1-0.3-1.9-0.8-2.5-1.6c-1.4-1.5-3.1-2.7-5.1-3.5
				c-2-0.6-4-0.8-6.1-0.6c-1,0.2-2.1,0.1-3-0.4c-0.7-0.4-1.1-1-1.8-2.3c-0.8-1.9-2-3.6-3.6-5c-1.6-1.3-3.5-2.2-5.5-2.6
				c-2.1-0.2-3.7-2.1-3.5-4.2c-0.1-2.1-0.7-4.1-1.6-5.9c-1.1-1.7-2.6-3.2-4.3-4.4c-1.2-0.9-1.7-1.4-2-2.2c-0.3-1-0.2-2,0.1-3
				c0.6-2,0.8-4,0.5-6.1c-0.4-2-1.3-3.9-2.6-5.6c-0.6-0.8-1-1.7-1.1-2.7c0.1-1,0.5-2,1.1-2.8c1.2-1.7,2.1-3.6,2.6-5.6
				c0.3-2,0.1-4.1-0.5-6.1c-0.4-1-0.4-2-0.1-3c0.3-0.8,0.8-1.3,2-2.2c1.7-1.1,3.2-2.6,4.3-4.4c1-1.8,1.5-3.8,1.6-5.9
				c0-1,0.3-2,0.9-2.8c0.7-0.7,1.6-1.2,2.6-1.4c2-0.5,3.9-1.4,5.5-2.6c1.5-1.4,2.7-3.1,3.6-5c0.4-0.9,1-1.8,1.8-2.4
				c0.9-0.4,2-0.6,3-0.4c2.1,0.2,4.1,0.1,6.1-0.6c1.9-0.8,3.6-2,5.1-3.5c1.2-1.8,3.6-2.2,5.4-1l0,0c1.8,0.9,3.9,1.5,5.9,1.5
				c2.1-0.1,4.1-0.6,5.9-1.5C107.7,17.7,108.8,17.5,109.7,17.6L109.7,17.6z"/>
		</g>
	</g>
	<g>
		<g>
			<defs>
				<rect id="SVGID_00000028285594630832481410000006560793251597203882_" x="0.2" y="0.7" width="195.6" height="280.6"/>
			</defs>
			<clipPath id="SVGID_00000155824557782746371580000018199321083031079322_">
				<use xlink:href="#SVGID_00000028285594630832481410000006560793251597203882_"  style="overflow:visible;"/>
			</clipPath>
			<path style="clip-path:url(#SVGID_00000155824557782746371580000018199321083031079322_);fill:#1A1A1A;" d="M109,13.6
				c-1.3,0.1-2.5,0.4-3.7,1c-1.4,0.7-2.9,1.1-4.4,1.2c-1.5-0.1-3-0.5-4.4-1.2c-3.2-1.8-7.2-1.1-9.6,1.7c-1,1.1-2.3,2-3.7,2.7
				c-1.5,0.4-3,0.5-4.6,0.3c-1.8-0.2-3.5,0.1-5.1,0.9c-1.5,1-2.7,2.4-3.3,4c-0.6,1.4-1.5,2.7-2.6,3.8c-1.2,0.9-2.7,1.5-4.2,1.9
				c-1.7,0.4-3.3,1.3-4.5,2.6c-1.1,1.4-1.7,3.1-1.8,4.9c-0.1,1.5-0.4,3-1.1,4.4c-0.9,1.3-2,2.4-3.3,3.2c-1.5,1-2.6,2.4-3.3,4
				c-0.5,1.7-0.5,3.5,0,5.2c0.5,1.5,0.6,3,0.5,4.6c-0.4,1.5-1.1,2.9-2,4.1c-1.1,1.4-1.7,3.1-1.8,4.9c0.1,1.8,0.7,3.5,1.8,4.9
				c0.9,1.2,1.6,2.6,2,4.1c0.2,1.5,0,3.1-0.5,4.6c-1.2,3.5,0.2,7.3,3.3,9.2c1.3,0.8,2.4,1.9,3.3,3.1c0.7,1.4,1.1,2.9,1.1,4.4
				c0,3.7,2.7,6.8,6.3,7.5c1.5,0.3,2.9,1,4.2,1.9c1.1,1.1,2,2.4,2.6,3.8c1.3,3.5,4.8,5.5,8.5,4.9c1.5-0.2,3.1-0.1,4.6,0.3
				c1.4,0.6,2.7,1.5,3.7,2.7c1.2,1.3,2.8,2.2,4.5,2.6c1.8,0.2,3.5-0.1,5.1-0.9c1.4-0.7,2.9-1.1,4.4-1.2c1.5,0.1,3,0.5,4.4,1.2
				c3.2,1.8,7.2,1.1,9.6-1.7c1-1.1,2.3-2,3.7-2.7c1.5-0.4,3-0.5,4.6-0.3c3.6,0.6,7.2-1.4,8.5-4.9c0.6-1.4,1.5-2.7,2.6-3.8
				c1.2-0.9,2.7-1.5,4.2-1.9c3.6-0.7,6.3-3.8,6.3-7.5c0.1-1.5,0.5-3.1,1.1-4.4c0.9-1.3,2-2.4,3.3-3.2c3.2-1.9,4.6-5.7,3.3-9.2
				c-0.5-1.5-0.6-3-0.5-4.6c0.4-1.5,1.1-2.9,2-4.1c1.1-1.4,1.7-3.1,1.8-4.9c-0.1-1.8-0.7-3.5-1.8-4.9c-0.9-1.2-1.6-2.6-2-4.1
				c-0.2-1.5,0-3.1,0.5-4.6c0.5-1.7,0.5-3.5,0-5.2c-0.7-1.6-1.8-3-3.3-4c-1.3-0.8-2.4-1.9-3.3-3.2c-0.7-1.4-1.1-2.9-1.1-4.4
				c-0.1-1.8-0.7-3.5-1.8-4.9c-1.2-1.3-2.8-2.2-4.5-2.6c-1.5-0.3-3-0.9-4.2-1.8c-1.1-1.1-2-2.4-2.6-3.8c-0.7-1.6-1.9-3-3.4-4
				c-1.6-0.8-3.4-1.1-5.1-0.9c-1.5,0.2-3.1,0.1-4.6-0.3c-1.4-0.6-2.7-1.5-3.7-2.7c-1.2-1.3-2.8-2.2-4.5-2.6
				C109.9,13.6,109.5,13.6,109,13.6L109,13.6z M109,15.2c0.4,0,0.7,0,1.1,0.1c1.4,0.3,2.7,1.1,3.7,2.2c1.2,1.3,2.6,2.3,4.2,3
				c1.7,0.5,3.4,0.7,5.2,0.4c1.5-0.2,2.9,0,4.2,0.7c1.2,0.8,2.2,2,2.7,3.3c0.7,1.6,1.7,3.1,3,4.3c1.4,1.1,3,1.8,4.7,2.2
				c1.4,0.3,2.7,1,3.8,2.1c0.9,1.2,1.4,2.6,1.4,4.1c0.1,1.7,0.5,3.4,1.3,5c1,1.5,2.2,2.7,3.7,3.7c1.2,0.8,2.2,1.9,2.8,3.3
				c0.4,1.4,0.4,2.9-0.1,4.3c-0.5,1.7-0.7,3.4-0.5,5.2c0.4,1.7,1.2,3.3,2.2,4.7c0.9,1.2,1.4,2.5,1.5,4c-0.1,1.5-0.6,2.8-1.5,4
				c-1.1,1.4-1.8,3-2.2,4.7c-0.2,1.7,0,3.5,0.5,5.2c0.5,1.4,0.5,2.9,0.1,4.3c-0.6,1.3-1.6,2.5-2.8,3.3c-1.5,0.9-2.7,2.2-3.7,3.7
				c-0.8,1.6-1.2,3.3-1.3,5c0.1,3.1-2.1,5.7-5.2,6.2c-3.5,0.6-6.5,3.1-7.7,6.4c-1,2.9-4,4.6-7,4c-1.7-0.2-3.5-0.1-5.2,0.4
				c-1.6,0.7-3.1,1.7-4.2,3c-1.9,2.4-5.3,3-7.9,1.4c-1.6-0.8-3.3-1.3-5-1.4c-1.7,0.1-3.4,0.6-5,1.4c-2.6,1.6-6,1-7.9-1.4
				c-1.2-1.3-2.6-2.3-4.2-3c-1.7-0.5-3.4-0.6-5.2-0.4c-3,0.6-6-1.1-7-4c-0.7-1.6-1.7-3.1-3-4.3c-1.4-1-3-1.7-4.7-2.1
				c-1.4-0.3-2.7-1-3.8-2.1c-0.9-1.2-1.4-2.6-1.4-4.1c-0.1-1.7-0.5-3.4-1.3-5c-1-1.5-2.2-2.7-3.7-3.7c-2.7-1.5-3.9-4.7-2.8-7.6
				c0.5-1.7,0.7-3.4,0.5-5.2c-0.4-1.7-1.2-3.3-2.2-4.7c-0.9-1.2-1.4-2.5-1.5-4c0.1-1.5,0.6-2.8,1.5-4c1.1-1.4,1.8-3,2.2-4.7
				c0.2-1.7,0-3.5-0.5-5.2c-0.4-1.4-0.4-2.9,0-4.3c0.6-1.3,1.6-2.5,2.8-3.3c1.5-0.9,2.7-2.2,3.7-3.7c0.8-1.6,1.2-3.3,1.3-5
				c0.1-1.5,0.6-2.9,1.4-4.1c1-1.1,2.3-1.8,3.8-2.1c1.7-0.4,3.3-1.1,4.7-2.2c1.3-1.2,2.3-2.7,3-4.3c0.6-1.4,1.5-2.5,2.7-3.3
				c1.3-0.7,2.8-0.9,4.2-0.7c1.7,0.2,3.5,0.1,5.2-0.4c1.6-0.7,3.1-1.7,4.2-3c1.9-2.4,5.2-3,7.9-1.5c1.6,0.8,3.3,1.3,5,1.4
				c1.7-0.1,3.4-0.6,5-1.4C106.9,15.5,107.9,15.2,109,15.2L109,15.2z"/>
		</g>
	</g>
	<g>
		<g>
			<defs>
				<rect id="SVGID_00000036224782714843679650000015738851025109942670_" x="0.2" y="0.7" width="195.6" height="280.6"/>
			</defs>
			<clipPath id="SVGID_00000140000365928919587250000008244677625135804827_">
				<use xlink:href="#SVGID_00000036224782714843679650000015738851025109942670_"  style="overflow:visible;"/>
			</clipPath>
			<path style="clip-path:url(#SVGID_00000140000365928919587250000008244677625135804827_);fill:#EAB170;" d="M115.2,92.8
				c-0.1-0.8,0.5-1.5,1.3-1.6s1.5,0.5,1.6,1.3c0,0.1,0,0.2,0,0.2c0,0.8-0.7,1.5-1.5,1.5C115.9,94.3,115.2,93.6,115.2,92.8
				L115.2,92.8z"/>
		</g>
	</g>
	<g>
		<g>
			<defs>
				<rect id="SVGID_00000072965547513706301160000009623982245016294301_" x="0.2" y="0.7" width="195.6" height="280.6"/>
			</defs>
			<clipPath id="SVGID_00000042730586842478654890000013815208932497080968_">
				<use xlink:href="#SVGID_00000072965547513706301160000009623982245016294301_"  style="overflow:visible;"/>
			</clipPath>
			<path style="clip-path:url(#SVGID_00000042730586842478654890000013815208932497080968_);fill:#1A1A1A;" d="M126,48.1
				c4.5,0,8.1,3.6,8.1,8.1l0,0v4.1c0,4.5-3.6,8.1-8.1,8.1c-4.5,0-8.1-3.6-8.1-8.1v-4.1C117.8,51.7,121.5,48.1,126,48.1L126,48.1z"/>
		</g>
	</g>
	<g>
		<g>
			<defs>
				<rect id="SVGID_00000026158750295050652780000010328795465854284681_" x="0.2" y="0.7" width="195.6" height="280.6"/>
			</defs>
			<clipPath id="SVGID_00000087370049704940492260000010359153218124205740_">
				<use xlink:href="#SVGID_00000026158750295050652780000010328795465854284681_"  style="overflow:visible;"/>
			</clipPath>
			<path style="clip-path:url(#SVGID_00000087370049704940492260000010359153218124205740_);fill:#FFFFFF;" d="M123.9,51.3
				c-1.5,0-2.6,1.2-2.6,2.6s1.2,2.6,2.6,2.6c1.5,0,2.6-1.2,2.6-2.6l0,0C126.6,52.4,125.4,51.3,123.9,51.3z"/>
		</g>
	</g>
	<g>
		<g>
			<defs>
				<rect id="SVGID_00000008137367237518658930000001245864551133105585_" x="0.2" y="0.7" width="195.6" height="280.6"/>
			</defs>
			<clipPath id="SVGID_00000178175521435920187320000011981692471271495047_">
				<use xlink:href="#SVGID_00000008137367237518658930000001245864551133105585_"  style="overflow:visible;"/>
			</clipPath>
			<path style="clip-path:url(#SVGID_00000178175521435920187320000011981692471271495047_);fill:#1A1A1A;" d="M92.4,48.1
				c4.5,0,8.1,3.6,8.1,8.1l0,0v4.1c0,4.5-3.6,8.1-8.1,8.1s-8.1-3.6-8.1-8.1v-4.1C84.3,51.7,87.9,48.1,92.4,48.1L92.4,48.1z"/>
		</g>
	</g>
	<g>
		<g>
			<defs>
				<rect id="SVGID_00000123428702715480162840000002096494490489903016_" x="0.2" y="0.7" width="195.6" height="280.6"/>
			</defs>
			<clipPath id="SVGID_00000023276823756457894100000000545827280109497488_">
				<use xlink:href="#SVGID_00000123428702715480162840000002096494490489903016_"  style="overflow:visible;"/>
			</clipPath>
			<path style="clip-path:url(#SVGID_00000023276823756457894100000000545827280109497488_);fill:#FFFFFF;" d="M90.3,51.3
				c-1.5,0-2.6,1.2-2.6,2.7s1.2,2.6,2.7,2.6c1.4,0,2.6-1.2,2.6-2.6C93,52.5,91.8,51.3,90.3,51.3L90.3,51.3z"/>
		</g>
	</g>
	<g>
		<g>
			<defs>
				<rect id="SVGID_00000146487247233992155660000009636965552778568842_" x="0.2" y="0.7" width="195.6" height="280.6"/>
			</defs>
			<clipPath id="SVGID_00000072994343314872829560000008715416676600732817_">
				<use xlink:href="#SVGID_00000146487247233992155660000009636965552778568842_"  style="overflow:visible;"/>
			</clipPath>
			<path style="clip-path:url(#SVGID_00000072994343314872829560000008715416676600732817_);fill:#FFFFFF;" d="M91,73
				c-2.1,0-3.8,1.7-3.8,3.8l0,0v4.3c-0.3,12.2,9.4,22.3,21.6,22.6s22.3-9.4,22.6-21.6c0-0.3,0-0.6,0-0.9v-4.3c0-2.1-1.7-3.8-3.8-3.8
				h-0.1L91,73L91,73z"/>
		</g>
	</g>
	<g>
		<g>
			<defs>
				<rect id="SVGID_00000146459866426305113070000016707963429693005463_" x="0.2" y="0.7" width="195.6" height="280.6"/>
			</defs>
			<clipPath id="SVGID_00000106133804712629971910000007403164036547989656_">
				<use xlink:href="#SVGID_00000146459866426305113070000016707963429693005463_"  style="overflow:visible;"/>
			</clipPath>
			<path style="clip-path:url(#SVGID_00000106133804712629971910000007403164036547989656_);fill:#BADBE9;" d="M91,73
				c-2.1,0-3.8,1.7-3.8,3.8l0,0v4.3c0,10.3,7.2,19.3,17.2,21.6c0,0-4.1-8.4,0.6-15.8c-3.8-6.7,0-13.9,0-13.9H91L91,73z"/>
		</g>
	</g>
	<g>
		<g>
			<defs>
				<rect id="SVGID_00000126287158916871703700000006525203646320329658_" x="0.2" y="0.7" width="195.6" height="280.6"/>
			</defs>
			<clipPath id="SVGID_00000173150460656628091920000003332821257767289495_">
				<use xlink:href="#SVGID_00000126287158916871703700000006525203646320329658_"  style="overflow:visible;"/>
			</clipPath>
			<path style="clip-path:url(#SVGID_00000173150460656628091920000003332821257767289495_);fill:#1A1A1A;" d="M91,73
				c-2.1,0-3.8,1.7-3.8,3.8l0,0v4.3c0,5.9,2.4,11.6,6.6,15.8c0,0-4.6-9.1,0.3-13.7c-4.3-5.3,0-10.2,0-10.2L91,73L91,73z"/>
		</g>
	</g>
	<g>
		<g>
			<defs>
				<rect id="SVGID_00000109733669702798590950000014758223378470428055_" x="0.2" y="0.7" width="195.6" height="280.6"/>
			</defs>
			<clipPath id="SVGID_00000109708770185438891210000002768597966503261118_">
				<use xlink:href="#SVGID_00000109733669702798590950000014758223378470428055_"  style="overflow:visible;"/>
			</clipPath>
			<path style="clip-path:url(#SVGID_00000109708770185438891210000002768597966503261118_);fill:#1A1A1A;" d="M127.5,73
				c2.1,0,3.8,1.7,3.8,3.8l0,0v4.3c0,5.9-2.4,11.6-6.6,15.8c0,0,4.6-9.1-0.3-13.7c4.3-5.3,0-10.2,0-10.2L127.5,73L127.5,73z"/>
		</g>
	</g>
	<g>
		<g>
			<defs>
				<rect id="SVGID_00000181046635005628209070000014241486965634735250_" x="0.2" y="0.7" width="195.6" height="280.6"/>
			</defs>
			<clipPath id="SVGID_00000127034341305244167460000014100717385319085700_">
				<use xlink:href="#SVGID_00000181046635005628209070000014241486965634735250_"  style="overflow:visible;"/>
			</clipPath>
			<path style="clip-path:url(#SVGID_00000127034341305244167460000014100717385319085700_);fill:#1A1A1A;" d="M91,72.2
				c-2.5,0-4.6,2.1-4.6,4.6v4.3c0,12.6,10.2,22.8,22.8,22.9h0.6v-1.6h-0.6c-11.8,0-21.3-9.5-21.3-21.3l0,0v-4.3c0-1.7,1.3-3,3-3
				h18.9v-1.6C109.8,72.2,91,72.2,91,72.2z"/>
		</g>
	</g>
	<g>
		<g>
			<defs>
				<rect id="SVGID_00000027564617689002309110000001701745750739699863_" x="0.2" y="0.7" width="195.6" height="280.6"/>
			</defs>
			<clipPath id="SVGID_00000150821828328620417140000017922260466754913178_">
				<use xlink:href="#SVGID_00000027564617689002309110000001701745750739699863_"  style="overflow:visible;"/>
			</clipPath>
			<path style="clip-path:url(#SVGID_00000150821828328620417140000017922260466754913178_);fill:#1A1A1A;" d="M108.7,72.2v1.6h18.8
				c1.7,0,3,1.3,3,3l0,0v4.3c0,11.8-9.5,21.3-21.3,21.3l0,0h-0.6v1.6h0.6c12.6,0,22.9-10.3,22.9-22.9v-4.3c0-2.5-2.1-4.6-4.6-4.6
				C127.5,72.2,108.7,72.2,108.7,72.2z"/>
		</g>
	</g>
	<g>
		<g>
			<defs>
				<rect id="SVGID_00000070826459719621495150000004179875731286464696_" x="0.2" y="0.7" width="195.6" height="280.6"/>
			</defs>
			<clipPath id="SVGID_00000088093865689660154420000001196274571072037772_">
				<use xlink:href="#SVGID_00000070826459719621495150000004179875731286464696_"  style="overflow:visible;"/>
			</clipPath>
			<path style="clip-path:url(#SVGID_00000088093865689660154420000001196274571072037772_);fill:#1A1A1A;" d="M205.3,86.2
				L205.3,86.2c-12.7,0.1-24.1,7.7-29,19.4c-11.1,1.3-19,11.3-17.7,22.4c1.2,10.2,9.9,17.9,20.2,17.8l0,0c3-0.1,5.9-0.8,8.5-2.1
				c5.3,3.7,11.6,5.7,18,5.8h0.6v-6.3h-0.6c-5.7,0-11.3-1.9-15.7-5.5l-1.7-1.4l-1.9,1.1c-6.6,4-15.1,1.9-19.1-4.7
				c-4-6.6-1.9-15.1,4.7-19.1c2.1-1.3,4.5-2,7-2h2.2l0.7-2.1c3.5-10.2,13.1-17,23.9-17l0,0h0.6v-6.4L205.3,86.2L205.3,86.2z"/>
		</g>
	</g>
	<g>
		<g>
			<defs>
				<rect id="SVGID_00000071530885468704018060000005524104507647879053_" x="0.2" y="0.7" width="195.6" height="280.6"/>
			</defs>
			<clipPath id="SVGID_00000005985441824617059410000008782716803287807413_">
				<use xlink:href="#SVGID_00000071530885468704018060000005524104507647879053_"  style="overflow:visible;"/>
			</clipPath>
			<path style="clip-path:url(#SVGID_00000005985441824617059410000008782716803287807413_);fill:#FFFFFF;" d="M205.2,89.4
				c-12.1,0-22.9,7.7-26.9,19.2c-9.4,0.2-17,7.9-16.8,17.4c0.2,9.4,7.9,17,17.4,16.8c3-0.1,6-0.9,8.6-2.5c10.4,8.2,25,8.2,35.4,0
				c8,4.9,18.6,2.4,23.5-5.6s2.4-18.6-5.6-23.5c-2.6-1.6-5.6-2.5-8.6-2.5C228.2,97.1,217.4,89.4,205.2,89.4L205.2,89.4z"/>
		</g>
	</g>
	<g>
		<g>
			<defs>
				<rect id="SVGID_00000129182991537425618100000002251275490816304512_" x="0.2" y="0.7" width="195.6" height="280.6"/>
			</defs>
			<clipPath id="SVGID_00000161627251512667235550000006980486724245691806_">
				<use xlink:href="#SVGID_00000129182991537425618100000002251275490816304512_"  style="overflow:visible;"/>
			</clipPath>
			<path style="clip-path:url(#SVGID_00000161627251512667235550000006980486724245691806_);fill:#C0E4EF;" d="M165.6,114.6
				c-6.1,7.2-5.2,18,2.1,24.1c5.6,4.7,13.7,5.3,19.9,1.5c10.4,8.2,25,8.2,35.4,0c8,4.9,18.5,2.4,23.5-5.6c3.8-6.3,3.2-14.3-1.5-19.9
				c-5.4,6.5-14.8,8-22,3.6c-10.3,8.2-25,8.2-35.4,0C180.4,122.7,171,121.2,165.6,114.6L165.6,114.6z"/>
		</g>
	</g>
	<g>
		<g>
			<defs>
				<rect id="SVGID_00000063625383942885115410000005299134513803201678_" x="0.2" y="0.7" width="195.6" height="280.6"/>
			</defs>
			<clipPath id="SVGID_00000088846227113369152410000014242340165486016424_">
				<use xlink:href="#SVGID_00000063625383942885115410000005299134513803201678_"  style="overflow:visible;"/>
			</clipPath>
			<path style="clip-path:url(#SVGID_00000088846227113369152410000014242340165486016424_);fill:#91D1DD;" d="M162.3,120.6
				c-0.5,1.6-0.7,3.3-0.8,5c0,9.4,7.6,17.1,17,17.1c3.2,0,6.3-0.9,9-2.5c10.4,8.2,25,8.2,35.4,0c8.1,4.9,18.6,2.4,23.5-5.7
				c1.6-2.7,2.5-5.8,2.5-8.9c0-1.7-0.3-3.3-0.8-4.9c-2.7,9-12.3,14.1-21.3,11.4c-1.4-0.4-2.7-1-4-1.8c-10.4,8.2-25,8.2-35.4,0
				c-8,4.9-18.5,2.4-23.4-5.6C163.4,123.5,162.8,122.1,162.3,120.6L162.3,120.6z"/>
		</g>
	</g>
	<g>
		<g>
			<defs>
				<rect id="SVGID_00000046337786361285101090000015614218160947527050_" x="0.2" y="0.7" width="195.6" height="280.6"/>
			</defs>
			<clipPath id="SVGID_00000057136062478286029040000017228580875726748812_">
				<use xlink:href="#SVGID_00000046337786361285101090000015614218160947527050_"  style="overflow:visible;"/>
			</clipPath>
			<path style="clip-path:url(#SVGID_00000057136062478286029040000017228580875726748812_);fill:#1A1A1A;" d="M205.3,88.6
				c-12.3,0-23.2,7.7-27.4,19.2c-9.9,0.4-17.5,8.7-17.1,18.5c0.4,9.9,8.7,17.5,18.5,17.1c2.9-0.1,5.7-0.9,8.2-2.4
				c5.1,3.9,11.3,6,17.8,6.1h0.6v-1.6h-0.6c-6.2,0-12.3-2.1-17.2-6l-0.4-0.3l-0.5,0.3c-7.7,4.7-17.7,2.2-22.4-5.4
				s-2.2-17.7,5.4-22.4c2.5-1.5,5.3-2.3,8.2-2.4h0.6l0.2-0.5c3.9-11.1,14.4-18.6,26.1-18.6h0.6v-1.6L205.3,88.6L205.3,88.6z"/>
		</g>
	</g>
	<g>
		<g>
			<defs>
				<rect id="SVGID_00000053509011843101502800000002042729410538112426_" x="0.2" y="0.7" width="195.6" height="280.6"/>
			</defs>
			<clipPath id="SVGID_00000135690786764930776840000006785398331052096917_">
				<use xlink:href="#SVGID_00000053509011843101502800000002042729410538112426_"  style="overflow:visible;"/>
			</clipPath>
			<path style="clip-path:url(#SVGID_00000135690786764930776840000006785398331052096917_);fill:#298BCC;" d="M45,0H16H0v16
				c0,7,0,14,0,21c10.3,12.3,28.7,14,41,3.7c6.7-5.5,10.5-13.8,10.5-22.4C51.5,11.6,49.2,5.2,45,0z"/>
		</g>
	</g>
	<g>
		<g>
			<defs>
				<rect id="SVGID_00000158721566572006747470000001263472352794452392_" x="0.2" y="0.7" width="195.6" height="280.6"/>
			</defs>
			<clipPath id="SVGID_00000165928586128506775600000009757147684977095076_">
				<use xlink:href="#SVGID_00000158721566572006747470000001263472352794452392_"  style="overflow:visible;"/>
			</clipPath>
		</g>
	</g>
</g>
<g class="st82">
	<path class="st83" d="M17.2,245.9l-0.1,1.9c0.5-0.8,1-1.3,1.7-1.7s1.4-0.6,2.3-0.6c1.1,0,2,0.3,2.7,0.8s1.1,1.2,1.3,2
		s0.3,2.1,0.3,3.9v14.7H19v-14.5c0-1.4,0-2.3-0.1-2.6s-0.4-0.5-0.8-0.5c-0.5,0-0.7,0.2-0.9,0.5c-0.1,0.4-0.2,1.3-0.2,2.9v14.2h-6.4
		v-21H17.2z"/>
	<path class="st83" d="M34.2,241.3v3.3h-6.6v-3.3H34.2z M34.2,245.9v21h-6.6v-21H34.2z"/>
	<path class="st83" d="M51,256.7h-8.3v4.5c0,0.9,0.1,1.6,0.2,1.8s0.4,0.4,0.8,0.4c0.5,0,0.8-0.2,1-0.5c0.2-0.4,0.2-1.1,0.2-2.1V258
		H51v1.5c0,1.3-0.1,2.3-0.2,3c-0.2,0.7-0.5,1.4-1.1,2.2c-0.6,0.8-1.4,1.4-2.3,1.8c-0.9,0.4-2.1,0.6-3.5,0.6c-1.3,0-2.5-0.2-3.6-0.6
		c-1-0.4-1.8-0.9-2.4-1.6c-0.6-0.7-1-1.4-1.2-2.2c-0.2-0.8-0.3-2-0.3-3.6V253c0-1.8,0.2-3.3,0.7-4.3c0.5-1.1,1.3-1.9,2.4-2.4
		c1.1-0.6,2.4-0.8,3.9-0.8c1.8,0,3.3,0.3,4.4,1c1.2,0.7,2,1.6,2.5,2.7c0.5,1.1,0.7,2.7,0.7,4.7C51,253.9,51,256.7,51,256.7z
		 M44.6,253.3v-1.5c0-1.1-0.1-1.8-0.2-2.1c-0.1-0.3-0.4-0.5-0.7-0.5c-0.4,0-0.7,0.1-0.8,0.4s-0.2,1-0.2,2.2v1.5L44.6,253.3
		L44.6,253.3z"/>
	<path class="st83" d="M59.6,245.9l-0.1,1.9c0.5-0.8,1-1.3,1.7-1.7s1.4-0.6,2.3-0.6c1.1,0,2,0.3,2.7,0.8s1.1,1.2,1.3,2
		s0.3,2.1,0.3,3.9v14.7h-6.4v-14.5c0-1.4,0-2.3-0.1-2.6s-0.4-0.5-0.8-0.5c-0.5,0-0.7,0.2-0.9,0.5c-0.1,0.4-0.2,1.3-0.2,2.9v14.2H53
		v-21H59.6z"/>
	<path class="st83" d="M84.6,245.9v21h-6.5l0.1-1.7c-0.4,0.7-1,1.2-1.6,1.6s-1.4,0.5-2.2,0.5c-1,0-1.8-0.2-2.4-0.5s-1.1-0.8-1.4-1.3
		c-0.3-0.6-0.5-1.1-0.6-1.7s-0.1-1.8-0.1-3.6V246h6.4v14.3c0,1.6,0,2.6,0.1,2.9s0.4,0.5,0.8,0.5c0.5,0,0.8-0.2,0.8-0.5
		c0.1-0.3,0.1-1.3,0.1-3.1V246L84.6,245.9L84.6,245.9z"/>
	<path class="st83" d="M100.7,245.9l-2.6,8.4l3.4,12.6h-6.1l-2-9.1v9.1H87v-25.6h6.4V252l2-6.1L100.7,245.9L100.7,245.9z"/>
	<path class="st83" d="M109,241.3v25.6h-6.6v-25.6L109,241.3L109,241.3z"/>
	<path class="st83" d="M125.7,256.7h-8.3v4.5c0,0.9,0.1,1.6,0.2,1.8c0.1,0.3,0.4,0.4,0.8,0.4c0.5,0,0.8-0.2,1-0.5
		c0.2-0.4,0.2-1.1,0.2-2.1V258h6.1v1.5c0,1.3-0.1,2.3-0.2,3c-0.2,0.7-0.5,1.4-1.1,2.2c-0.6,0.8-1.4,1.4-2.3,1.8s-2.1,0.6-3.5,0.6
		c-1.3,0-2.5-0.2-3.6-0.6c-1-0.4-1.8-0.9-2.4-1.6s-1-1.4-1.2-2.2c-0.2-0.8-0.3-2-0.3-3.6V253c0-1.8,0.2-3.3,0.7-4.3
		c0.5-1.1,1.3-1.9,2.4-2.4c1.1-0.6,2.4-0.8,3.9-0.8c1.8,0,3.3,0.3,4.4,1c1.2,0.7,2,1.6,2.5,2.7c0.5,1.1,0.7,2.7,0.7,4.7
		C125.7,253.9,125.7,256.7,125.7,256.7z M119.3,253.3v-1.5c0-1.1-0.1-1.8-0.2-2.1s-0.4-0.5-0.7-0.5c-0.4,0-0.7,0.1-0.8,0.4
		s-0.2,1-0.2,2.2v1.5L119.3,253.3L119.3,253.3z"/>
	<path class="st83" d="M133.5,254h-6v-1.4c0-1.6,0.2-2.9,0.6-3.8c0.4-0.9,1.1-1.7,2.3-2.3c1.1-0.7,2.6-1,4.4-1
		c2.2,0,3.8,0.4,4.9,1.1c1.1,0.8,1.8,1.7,2,2.8s0.3,3.4,0.3,6.9v10.5h-6.2V265c-0.4,0.7-0.9,1.3-1.5,1.7c-0.6,0.4-1.4,0.6-2.2,0.6
		c-1.1,0-2.1-0.3-3.1-0.9c-0.9-0.6-1.4-2-1.4-4.1v-1.7c0-1.6,0.2-2.6,0.7-3.2c0.5-0.6,1.7-1.2,3.7-2c2.1-0.8,3.2-1.4,3.4-1.7
		c0.1-0.3,0.2-0.9,0.2-1.7c0-1.1-0.1-1.8-0.2-2.1c-0.2-0.3-0.4-0.5-0.8-0.5c-0.4,0-0.7,0.1-0.8,0.4s-0.2,1-0.2,2.2L133.5,254
		L133.5,254z M135.6,256.9c-1,0.7-1.6,1.4-1.8,1.9s-0.2,1.2-0.2,2.2c0,1.1,0.1,1.8,0.2,2.1s0.4,0.5,0.8,0.5c0.4,0,0.7-0.1,0.8-0.4
		c0.1-0.2,0.2-0.9,0.2-2V256.9z"/>
	<path class="st83" d="M150.5,245.9l-0.3,2.8c0.9-2,2.3-3,4-3.1v7.4c-1.2,0-2,0.2-2.6,0.5s-0.9,0.8-1,1.3c-0.1,0.6-0.2,1.9-0.2,3.9
		v8.3H144v-21L150.5,245.9L150.5,245.9z"/>
	<path class="st83" d="M162.2,245.9l-0.1,1.9c0.5-0.8,1-1.3,1.7-1.7s1.4-0.6,2.3-0.6c1.1,0,2,0.3,2.7,0.8s1.1,1.2,1.3,2
		s0.3,2.1,0.3,3.9v14.7H164v-14.5c0-1.4,0-2.3-0.1-2.6s-0.4-0.5-0.8-0.5c-0.5,0-0.7,0.2-0.9,0.5c-0.1,0.4-0.2,1.3-0.2,2.9v14.2h-6.4
		v-21H162.2z"/>
	<path class="st83" d="M186,245.9l-1.8,15.2c-0.3,2.4-0.5,4-0.7,4.9s-0.5,1.6-1,2.2s-1.1,1-1.9,1.3c-0.8,0.3-2.1,0.4-3.9,0.4h-3.9
		v-3.4c1,0,1.6,0,1.9-0.2c0.3-0.1,0.4-0.3,0.4-0.7c0-0.2-0.1-0.9-0.4-2.2l-3.5-17.5h5.8l2.1,14.2l1-14.2L186,245.9L186,245.9z"/>
</g>
<g class="st82">
	<path class="st83" d="M25.6,21.3v5.3c0,1.2-0.1,2.1-0.2,2.6s-0.4,1.1-0.8,1.5s-0.9,0.8-1.5,1s-1.2,0.3-1.9,0.3
		c-0.9,0-1.7-0.1-2.4-0.3s-1.1-0.6-1.5-1s-0.6-0.9-0.8-1.5s-0.2-1.3-0.2-2.4v-5.5c0-1.5,0.1-2.5,0.4-3.3s0.7-1.3,1.5-1.7
		s1.6-0.7,2.7-0.7c0.9,0,1.6,0.2,2.3,0.5s1.2,0.7,1.5,1.1s0.6,0.9,0.7,1.5S25.6,20.1,25.6,21.3z M21.6,20c0-0.8,0-1.4-0.1-1.6
		s-0.3-0.3-0.6-0.3c-0.3,0-0.5,0.1-0.6,0.3s-0.1,0.7-0.1,1.6v7.7c0,0.9,0,1.5,0.1,1.7s0.3,0.3,0.6,0.3s0.5-0.1,0.6-0.3
		s0.1-0.7,0.1-1.5V20z"/>
	<path class="st83" d="M34.4,22.8c0.6,0.2,1,0.5,1.3,1c0.3,0.5,0.4,1.5,0.4,3.2c0,1.3-0.1,2.2-0.4,2.9s-0.8,1.2-1.5,1.6
		s-1.6,0.5-2.7,0.5c-1.2,0-2.2-0.2-2.9-0.6s-1.2-0.9-1.4-1.5s-0.3-1.7-0.3-3.2v-1.2h3.9V28c0,0.7,0,1.1,0.1,1.3s0.3,0.3,0.5,0.3
		c0.3,0,0.5-0.1,0.6-0.4s0.1-0.8,0.1-1.8v-1.1c0-0.6-0.1-1-0.2-1.3s-0.3-0.5-0.6-0.6s-0.8-0.1-1.6-0.2V22c0.9,0,1.5,0,1.7-0.1
		s0.4-0.2,0.5-0.5s0.1-0.6,0.1-1.1v-0.9c0-0.6-0.1-0.9-0.2-1.1s-0.3-0.3-0.5-0.3c-0.3,0-0.5,0.1-0.6,0.3s-0.2,0.6-0.2,1.2v1.3h-3.9
		v-1.3c0-1.5,0.3-2.5,1-3.1s1.8-0.8,3.3-0.8c1.9,0,3.2,0.4,3.8,1.1s1,1.8,1,3.1c0,0.9-0.1,1.5-0.4,1.9S35,22.5,34.4,22.8z"/>
</g>
</svg>
