<?xml version="1.0" encoding="utf-8"?>
<!-- Generator: Adobe Illustrator 26.0.3, SVG Export Plug-In . SVG Version: 6.00 Build 0)  -->
<svg version="1.1" id="Слой_1" xmlns="http://www.w3.org/2000/svg" xmlns:xlink="http://www.w3.org/1999/xlink" x="0px" y="0px"
	 viewBox="0 0 195.6 280.6" style="enable-background:new 0 0 195.6 280.6;" xml:space="preserve">
<style type="text/css">
	.st0{fill:#EB5A53;}
	.st1{font-family:'Impact';}
	.st2{font-size:34.54px;}
	.st3{clip-path:url(#SVGID_00000121998508587492601420000006457486518812575632_);fill:#1A1A1A;}
	.st4{clip-path:url(#SVGID_00000121998508587492601420000006457486518812575632_);fill:#CCCCCC;}
	.st5{clip-path:url(#SVGID_00000121998508587492601420000006457486518812575632_);fill:#E5D8AA;}
	.st6{clip-path:url(#SVGID_00000121998508587492601420000006457486518812575632_);fill:#D2B77F;}
	.st7{clip-path:url(#SVGID_00000121998508587492601420000006457486518812575632_);fill:#49838F;}
	.st8{clip-path:url(#SVGID_00000121998508587492601420000006457486518812575632_);fill:#F7C971;}
	.st9{clip-path:url(#SVGID_00000121998508587492601420000006457486518812575632_);fill:#FFE6A6;}
	.st10{clip-path:url(#SVGID_00000121998508587492601420000006457486518812575632_);fill:#DB9C5F;}
	.st11{clip-path:url(#SVGID_00000121998508587492601420000006457486518812575632_);fill:#595959;}
	.st12{clip-path:url(#SVGID_00000121998508587492601420000006457486518812575632_);fill:#444444;}
	.st13{clip-path:url(#SVGID_00000121998508587492601420000006457486518812575632_);fill:#818181;}
	.st14{clip-path:url(#SVGID_00000121998508587492601420000006457486518812575632_);fill:#A8A8A8;}
	.st15{clip-path:url(#SVGID_00000121998508587492601420000006457486518812575632_);fill:#D6D6D6;}
	.st16{clip-path:url(#SVGID_00000121998508587492601420000006457486518812575632_);fill:#EE723A;}
	.st17{clip-path:url(#SVGID_00000121998508587492601420000006457486518812575632_);fill:#DC4A24;}
	.st18{clip-path:url(#SVGID_00000121998508587492601420000006457486518812575632_);fill:#EB5A53;}
	.st19{clip-path:url(#SVGID_00000121998508587492601420000006457486518812575632_);enable-background:new    ;}
	.st20{fill:#FFFFFF;}
	.st21{font-size:20px;}
</style>
<g>
	<defs>
		<rect id="SVGID_1_" x="0" y="0" width="195.6" height="280.6"/>
	</defs>
	<clipPath id="SVGID_00000042709823407187430950000001694892795059265442_">
		<use xlink:href="#SVGID_1_"  style="overflow:visible;"/>
	</clipPath>
	<text transform="matrix(1 0 0 1 38.07 72.0699)" class="st0 st1 st2">nie byli na</text>
	<text transform="matrix(1 0 0 1 58.6 105.6)" class="st0 st1 st2">Księżycu</text>
	<path style="clip-path:url(#SVGID_00000042709823407187430950000001694892795059265442_);fill:#1A1A1A;" d="M168.1,199.1
		c-19,0-34.5,15.4-34.5,34.5S149,268,168.1,268s34.5-15.4,34.5-34.5C202.5,214.5,187.1,199.1,168.1,199.1L168.1,199.1z M168.1,208.6
		c13.8,0,24.9,11.1,24.9,24.9s-11.1,24.9-24.9,24.9s-24.9-11.1-24.9-24.9c0,0,0,0,0,0c0-13.7,11-24.9,24.8-24.9
		C168,208.6,168,208.6,168.1,208.6z"/>
	<path style="clip-path:url(#SVGID_00000042709823407187430950000001694892795059265442_);fill:#1A1A1A;" d="M168.1,194.3
		c-10.4,0-20.4,4.1-27.7,11.5l-3.4,3.4l13.2,13.2l3.4-3.4c3.8-3.8,9-6,14.4-6h0.1c7.4,0,14.2,3.9,17.8,10.3l2.4,4.1l16.1-9.3
		L202,214C195,201.8,182.1,194.4,168.1,194.3L168.1,194.3z"/>
	<path style="clip-path:url(#SVGID_00000042709823407187430950000001694892795059265442_);fill:#1A1A1A;" d="M127.2,162.6
		c-3.8,0.3-6.8,3.2-7.4,6.9l0,0l-7.4,56.3c-0.3,2.6,1.5,5,4.1,5.4c1.2,0.2,2.4-0.1,3.4-0.8c0.8,0.9,1.8,1.5,3,1.7
		c1.3,0.2,2.5-0.2,3.5-0.9c1-0.8,1.7-1.9,1.8-3.2l7.4-56.3c0.5-4.4-2.5-8.4-6.9-9C128.3,162.5,127.7,162.5,127.2,162.6L127.2,162.6z
		"/>
	<path style="clip-path:url(#SVGID_00000042709823407187430950000001694892795059265442_);fill:#1A1A1A;" d="M38.2,218.3
		c-2.6,0-4.8,2.1-4.8,4.8v6.9c0,2.6,2.1,4.8,4.8,4.8h120.1c2.6,0,4.8-2.1,4.8-4.8v-6.9c0-2.6-2.1-4.8-4.8-4.8H38.2z"/>
	
		<rect x="24.6" y="171.1" style="clip-path:url(#SVGID_00000042709823407187430950000001694892795059265442_);fill:#CCCCCC;" width="7.4" height="33"/>
	
		<rect x="19.8" y="166.3" style="clip-path:url(#SVGID_00000042709823407187430950000001694892795059265442_);fill:#1A1A1A;" width="17" height="42.6"/>
	<path style="clip-path:url(#SVGID_00000042709823407187430950000001694892795059265442_);fill:#1A1A1A;" d="M50.7,103.4
		c-1.8,0-3.5,1-4.3,2.7c-3.5,7.1-11.7,10.5-19.1,7.9c-2.3-0.8-4.8,0.3-5.8,2.4c-3.5,7.1-11.7,10.5-19.1,7.9
		c-2.3-0.8-4.8,0.3-5.8,2.4c-1.7,3.4-4.6,6.1-8.1,7.6c-3.5,1.4-7.4,1.6-11,0.4c-2.2-0.7-4.6,0.2-5.7,2.2c-1.1,2-0.7,4.5,1.1,6
		c21.1,18,52.8,15.5,70.9-5.6c6.9-8.1,11-18.1,11.9-28.6c0.1-1.3-0.4-2.6-1.3-3.6C53.3,104,52.1,103.5,50.7,103.4L50.7,103.4z
		 M41.9,122.5c-4.3,8.9-11.8,15.9-20.9,19.7c-9.2,3.8-19.4,4.1-28.8,0.9c4.4-1.8,8.1-4.9,10.9-8.8c4.7,0.8,9.6,0.3,14-1.5
		c4.4-1.8,8.2-4.9,10.9-8.8C32.7,124.8,37.5,124.3,41.9,122.5L41.9,122.5z"/>
	<path style="clip-path:url(#SVGID_00000042709823407187430950000001694892795059265442_);fill:#1A1A1A;" d="M22.8,137.4
		c-5.1,0-9.2,4.1-9.1,9.2c0,5.1,4.1,9.2,9.2,9.1c5,0,9.1-4.1,9.1-9.2C32,141.6,27.9,137.5,22.8,137.4L22.8,137.4z M22.8,146.2
		c0.2,0,0.4,0.2,0.4,0.4c0,0.2-0.2,0.4-0.4,0.4c-0.2,0-0.4-0.2-0.4-0.4l0,0C22.4,146.4,22.6,146.3,22.8,146.2z"/>
	<path style="clip-path:url(#SVGID_00000042709823407187430950000001694892795059265442_);fill:#1A1A1A;" d="M86,199.2
		c-4.9,0-8.9,4-8.9,8.9v14.9c0,2.6,2.1,4.8,4.8,4.8h37.6c2.6,0,4.8-2.1,4.8-4.8v-14.9c0-4.9-4-8.9-8.9-8.9L86,199.2z M86.6,208.8h28
		v9.5h-28V208.8z"/>
	
		<rect x="159.7" y="166.3" style="clip-path:url(#SVGID_00000042709823407187430950000001694892795059265442_);fill:#1A1A1A;" width="16.9" height="42.6"/>
	<path style="clip-path:url(#SVGID_00000042709823407187430950000001694892795059265442_);fill:#1A1A1A;" d="M86.5,175.1
		c-2.6,0-4.8,2.1-4.8,4.8v5.3c0,5.5,4.5,10,10.1,10.1h2.7c5.5,0,10-4.5,10.1-10.1v-5.3c0-2.6-2.1-4.8-4.8-4.8H86.5z M91.3,184.6H95
		v0.5c0,0.4-0.1,0.5-0.5,0.5h-2.7c-0.4,0-0.5-0.1-0.5-0.5V184.6z"/>
	<path style="clip-path:url(#SVGID_00000042709823407187430950000001694892795059265442_);fill:#1A1A1A;" d="M87,170.3
		c-4-0.1-7.3,2.9-7.5,6.9c-0.1,4,2.9,7.3,6.9,7.5c0.2,0,0.4,0,0.5,0h12.2c4-0.1,7.1-3.5,6.9-7.5c-0.1-3.8-3.2-6.8-6.9-6.9H87z"/>
	
		<rect x="85.5" y="158.5" style="clip-path:url(#SVGID_00000042709823407187430950000001694892795059265442_);fill:#1A1A1A;" width="15.1" height="21.3"/>
	<path style="clip-path:url(#SVGID_00000042709823407187430950000001694892795059265442_);fill:#1A1A1A;" d="M28.3,199.1
		c-19,0-34.5,15.4-34.5,34.5S9.2,268,28.3,268s34.5-15.4,34.5-34.5C62.7,214.5,47.3,199.1,28.3,199.1L28.3,199.1z M28.3,208.6
		c13.8,0,24.9,11.1,24.9,24.9S42,258.4,28.3,258.4S3.4,247.3,3.4,233.6c0,0,0,0,0,0c0-13.7,11-24.9,24.8-24.9
		C28.2,208.6,28.2,208.6,28.3,208.6z"/>
	<path style="clip-path:url(#SVGID_00000042709823407187430950000001694892795059265442_);fill:#1A1A1A;" d="M28.3,194.3
		c-10.4,0-20.4,4.1-27.7,11.5l-3.4,3.4l13.2,13.2l3.4-3.4c3.8-3.8,9.1-6,14.5-6h0.1c7.4,0,14.2,3.9,17.8,10.3l2.4,4.1l16.1-9.3
		l-2.4-4.1C55.2,201.8,42.3,194.4,28.3,194.3L28.3,194.3z"/>
	<path style="clip-path:url(#SVGID_00000042709823407187430950000001694892795059265442_);fill:#1A1A1A;" d="M7.7,107.1
		c-0.4,0-0.8,0.1-1.2,0.2c-0.7,0.3-1.3,0.9-1.6,1.6c-0.3,0.7-0.3,1.6,0,2.3l7.6,18.3c0.6,1.5,2.4,2.3,3.9,1.6
		c1.5-0.6,2.3-2.4,1.6-3.9l-7.6-18.3C10,107.8,8.9,107.1,7.7,107.1L7.7,107.1z"/>
	<path style="clip-path:url(#SVGID_00000042709823407187430950000001694892795059265442_);fill:#1A1A1A;" d="M73.9,126.8
		c-0.8,0-1.6,0.3-2.1,0.9c-0.6,0.6-0.9,1.3-0.9,2.1v53.5c0.1,2,1.1,3.9,2.8,5.1l5.6,4.3c0.5,0.4,1.2,0.6,1.8,0.6h3.2V204
		c0,1.7,1.3,3,3,3s3-1.3,3-3v-13.6c0-1.7-1.3-3-3-3h-5.2l-4.8-3.7l0,0c-0.6-0.4-0.4-0.2-0.4-0.4v-53.4
		C76.9,128.2,75.6,126.8,73.9,126.8L73.9,126.8z"/>
	<path style="clip-path:url(#SVGID_00000042709823407187430950000001694892795059265442_);fill:#1A1A1A;" d="M22.8,143.6
		c-1.7,0-3,1.3-3,3v68.3c0,1.7,1.3,3,3,3s3-1.3,3-3v-68.3C25.8,145,24.4,143.6,22.8,143.6L22.8,143.6z"/>
	<path style="clip-path:url(#SVGID_00000042709823407187430950000001694892795059265442_);fill:#1A1A1A;" d="M168.2,156
		c-1.7,0-3,1.3-3,3v12.1c0,1.7,1.3,3,3,3s3-1.3,3-3V159C171.2,157.3,169.8,156,168.2,156z"/>
	<path style="clip-path:url(#SVGID_00000042709823407187430950000001694892795059265442_);fill:#1A1A1A;" d="M162.4,137.1
		c-3.9,0-7,3.1-7,7V162h25.5v-17.9c0-3.9-3.1-7-7-7H162.4z M162.4,143.1h11.5c0.6,0,1,0.4,1,1V156h-13.5v-11.9
		C161.4,143.5,161.8,143.1,162.4,143.1L162.4,143.1z"/>
	<path style="clip-path:url(#SVGID_00000042709823407187430950000001694892795059265442_);fill:#E5D8AA;" d="M86.5,179.9h13.3v5.3
		c0,2.9-2.3,5.3-5.3,5.3c0,0,0,0,0,0h-2.7c-2.9,0-5.3-2.3-5.3-5.2c0,0,0,0,0,0V179.9z"/>
	<path style="clip-path:url(#SVGID_00000042709823407187430950000001694892795059265442_);fill:#D2B77F;" d="M86.5,181.2v4
		c0,2.9,2.3,5.3,5.2,5.3c0,0,0,0,0,0h2.7c2.9,0,5.3-2.3,5.3-5.2c0,0,0,0,0,0v-4c0,2.9-2.4,5.3-5.3,5.3c0,0,0,0,0,0h-2.7
		C88.8,186.5,86.5,184.1,86.5,181.2C86.5,181.2,86.5,181.2,86.5,181.2z"/>
	<path style="clip-path:url(#SVGID_00000042709823407187430950000001694892795059265442_);fill:#49838F;" d="M87,175h12.2
		c1.3,0.1,2.3,1.2,2.2,2.6c-0.1,1.2-1,2.2-2.2,2.2H87c-1.3,0.1-2.5-0.9-2.6-2.2c-0.1-1.3,0.9-2.5,2.2-2.6C86.8,175,86.9,175,87,175z
		"/>
	
		<rect x="90.3" y="163.3" style="clip-path:url(#SVGID_00000042709823407187430950000001694892795059265442_);fill:#E5D8AA;" width="5.6" height="11.8"/>
	<path style="clip-path:url(#SVGID_00000042709823407187430950000001694892795059265442_);fill:#49838F;" d="M123.6,227.3L131,171
		c0.3-1.8-0.9-3.4-2.7-3.7c-1.8-0.3-3.4,0.9-3.7,2.7c0,0.1,0,0.1,0,0.2l-7.4,56.3L123.6,227.3z"/>
	<path style="clip-path:url(#SVGID_00000042709823407187430950000001694892795059265442_);fill:#1A1A1A;" d="M127.5,166.1
		c-2.1,0.2-3.8,1.8-4.1,3.8l-7.4,56.3c-0.1,0.6,0.4,1.2,1,1.3c0,0,0,0,0,0c0.3,0,0.6,0,0.9-0.2c0.3-0.2,0.4-0.5,0.5-0.8l7.4-56.3
		c0.1-1.1,1.2-1.9,2.3-1.7s1.9,1.2,1.7,2.3l-7.4,56.3c-0.1,0.6,0.4,1.2,1,1.3c0.3,0,0.6,0,0.9-0.2c0.2-0.2,0.4-0.5,0.4-0.8l7.4-56.3
		c0.3-2.4-1.4-4.7-3.8-5c0,0,0,0,0,0c-0.3,0-0.6,0-0.9,0L127.5,166.1z"/>
	<path style="clip-path:url(#SVGID_00000042709823407187430950000001694892795059265442_);fill:#E5D8AA;" d="M86,204h29.3
		c2.3,0,4.1,1.8,4.2,4.1c0,0,0,0,0,0V223H81.8v-14.9C81.8,205.9,83.7,204,86,204C86,204,86,204,86,204z"/>
	
		<rect x="81.8" y="218.2" style="clip-path:url(#SVGID_00000042709823407187430950000001694892795059265442_);fill:#D2B77F;" width="37.6" height="4.9"/>
	
		<rect x="38.2" y="223.1" style="clip-path:url(#SVGID_00000042709823407187430950000001694892795059265442_);fill:#D2B77F;" width="120.1" height="6.9"/>
	
		<rect x="24.6" y="171.1" style="clip-path:url(#SVGID_00000042709823407187430950000001694892795059265442_);fill:#E5D8AA;" width="7.4" height="33"/>
	<path style="clip-path:url(#SVGID_00000042709823407187430950000001694892795059265442_);fill:#D2B77F;" d="M28.3,190.1
		c-1.2,0-2.5,0.1-3.7,0.2v13.8H32v-13.8C30.8,190.1,29.5,190.1,28.3,190.1L28.3,190.1z"/>
	<path style="clip-path:url(#SVGID_00000042709823407187430950000001694892795059265442_);fill:#1A1A1A;" d="M23.4,169.9v35.4h9.8
		v-35.4H23.4z M25.8,172.3h5v30.6h-5V172.3z"/>
	
		<rect x="164.5" y="171.1" style="clip-path:url(#SVGID_00000042709823407187430950000001694892795059265442_);fill:#E5D8AA;" width="7.4" height="33"/>
	<path style="clip-path:url(#SVGID_00000042709823407187430950000001694892795059265442_);fill:#D2B77F;" d="M168.1,190.1
		c-1.2,0-2.4,0.1-3.6,0.1v13.9h7.4v-13.8C170.6,190.2,169.3,190.1,168.1,190.1z"/>
	<path style="clip-path:url(#SVGID_00000042709823407187430950000001694892795059265442_);fill:#1A1A1A;" d="M163.3,169.9v35.4h9.8
		v-35.4H163.3z M165.7,172.3h5v30.6h-5V172.3z"/>
	<path style="clip-path:url(#SVGID_00000042709823407187430950000001694892795059265442_);fill:#1A1A1A;" d="M38.2,221.9
		c-0.7,0-1.2,0.5-1.2,1.2v6.9c0,0.7,0.5,1.2,1.2,1.2c0,0,0,0,0,0h120.1c0.7,0,1.2-0.5,1.2-1.2c0,0,0,0,0,0v-6.9
		c0-0.7-0.5-1.2-1.2-1.2H38.2z M39.4,224.3h117.8v4.5H39.4V224.3z"/>
	<path style="clip-path:url(#SVGID_00000042709823407187430950000001694892795059265442_);fill:#1A1A1A;" d="M86,202.8
		c-2.9,0-5.3,2.4-5.3,5.3v14.9c0,0.7,0.5,1.2,1.2,1.2c0,0,0,0,0,0h37.6c0.7,0,1.2-0.5,1.2-1.2c0,0,0,0,0,0v-14.9
		c0-2.9-2.4-5.3-5.3-5.3H86z M86,205.2h29.3c1.6,0,2.9,1.2,3,2.8c0,0,0,0.1,0,0.1v13.7H83.1v-13.7C83,206.6,84.3,205.2,86,205.2
		C86,205.2,86,205.2,86,205.2L86,205.2z"/>
	<path style="clip-path:url(#SVGID_00000042709823407187430950000001694892795059265442_);fill:#1A1A1A;" d="M81.8,209
		c-0.7,0.1-1.1,0.6-1.1,1.3c0.1,0.6,0.5,1,1.1,1.1h37.6c0.7-0.1,1.1-0.6,1.1-1.3c-0.1-0.6-0.5-1-1.1-1.1H81.8z"/>
	<path style="clip-path:url(#SVGID_00000042709823407187430950000001694892795059265442_);fill:#1A1A1A;" d="M86.5,178.7
		c-0.7,0-1.2,0.5-1.2,1.2c0,0,0,0,0,0v5.3c0,3.6,2.9,6.5,6.5,6.5h2.7c3.6,0,6.5-2.9,6.5-6.5v-5.3c0-0.7-0.5-1.2-1.2-1.2c0,0,0,0,0,0
		H86.5z M87.7,181.1h10.9v4.1c0,2.2-1.8,4.1-4,4.1c0,0-0.1,0-0.1,0h-2.7c-2.2,0-4.1-1.8-4.1-4c0,0,0,0,0-0.1L87.7,181.1z"/>
	<path style="clip-path:url(#SVGID_00000042709823407187430950000001694892795059265442_);fill:#1A1A1A;" d="M87,173.9
		c-2,0-3.6,1.6-3.6,3.6c0,2,1.6,3.6,3.6,3.6c0,0,0,0,0,0h12.2c2,0,3.6-1.6,3.6-3.6c0-2-1.6-3.6-3.6-3.6H87z M87,176.2h12.2
		c0.7,0,1.2,0.5,1.2,1.2c0,0.7-0.5,1.2-1.2,1.2c0,0,0,0,0,0H87c-0.7,0-1.2-0.5-1.2-1.2C85.8,176.8,86.3,176.2,87,176.2
		C87,176.2,87,176.2,87,176.2z"/>
	<path style="clip-path:url(#SVGID_00000042709823407187430950000001694892795059265442_);fill:#1A1A1A;" d="M89.1,162.1v14.2h8
		v-14.2H89.1z M91.5,164.5h3.2v9.4h-3.2V164.5z"/>
	<path style="clip-path:url(#SVGID_00000042709823407187430950000001694892795059265442_);fill:#E5D8AA;" d="M54.9,150.2v16.5l8.6,5
		h8.6v-21.5H54.9z"/>
	<path style="clip-path:url(#SVGID_00000042709823407187430950000001694892795059265442_);fill:#1A1A1A;" d="M50.1,145.5v24l12.1,7
		h14.6v-31H50.1z M59.7,155h7.6v11.9h-2.5l-5.1-2.9V155z"/>
	<path style="clip-path:url(#SVGID_00000042709823407187430950000001694892795059265442_);fill:#E5D8AA;" d="M54.9,150.2v16.5l8.6,5
		h8.6v-21.5H54.9z"/>
	<path style="clip-path:url(#SVGID_00000042709823407187430950000001694892795059265442_);fill:#D2B77F;" d="M54.9,159.9v6.9l8.6,5
		h8.6v-9.6L54.9,159.9z"/>
	<path style="clip-path:url(#SVGID_00000042709823407187430950000001694892795059265442_);fill:#1A1A1A;" d="M53.7,149.1v18.4
		l9.5,5.5h10.1v-23.9H53.7z M56.1,151.4h14.8v19.1h-7.1l-7.7-4.4L56.1,151.4z"/>
	
		<rect x="60.8" y="150.2" style="clip-path:url(#SVGID_00000042709823407187430950000001694892795059265442_);fill:#49838F;" width="5.4" height="8.1"/>
	<path style="clip-path:url(#SVGID_00000042709823407187430950000001694892795059265442_);fill:#1A1A1A;" d="M59.6,149.1v10.5h7.8
		v-10.5H59.6z M62,151.4h3v5.7h-3V151.4z"/>
	<path style="clip-path:url(#SVGID_00000042709823407187430950000001694892795059265442_);fill:#F7C971;" d="M0.8,128.8
		c-2.2,4.5-5.9,8-10.5,9.9c-4.6,1.9-9.7,2.1-14.4,0.4c19.1,16.3,47.8,14.1,64.1-5c6.3-7.3,10-16.4,10.8-26
		c-4.5,9.3-15.3,13.7-25,10.3C21.2,127.8,10.5,132.2,0.8,128.8L0.8,128.8z"/>
	<path style="clip-path:url(#SVGID_00000042709823407187430950000001694892795059265442_);fill:#FFE6A6;" d="M0.8,128.8
		c-2.2,4.5-5.9,8-10.5,9.9c-4.6,1.9-9.7,2.1-14.4,0.4c13,11.1,31.2,14,47,7.4C13.1,144,6,136.4,0.8,128.8L0.8,128.8z"/>
	<path style="clip-path:url(#SVGID_00000042709823407187430950000001694892795059265442_);fill:#DB9C5F;" d="M50.7,108.2
		c-4.5,9.3-15.3,13.7-25,10.3c1.7,9,2,19.5-3,28.1C38.5,140.1,49.3,125.2,50.7,108.2L50.7,108.2z"/>
	<path style="clip-path:url(#SVGID_00000042709823407187430950000001694892795059265442_);fill:#1A1A1A;" d="M1.8,128.2l-2,1.3
		c5.2,7.6,12.6,15.6,22.6,18.3l0.6-2.3C13.8,143,6.8,135.6,1.8,128.2L1.8,128.2z"/>
	<path style="clip-path:url(#SVGID_00000042709823407187430950000001694892795059265442_);fill:#1A1A1A;" d="M26.9,118.3l-2.4,0.4
		c1.7,8.8,2,19-2.8,27.3l2.1,1.2C29,138.2,28.7,127.4,26.9,118.3z"/>
	<path style="clip-path:url(#SVGID_00000042709823407187430950000001694892795059265442_);fill:#1A1A1A;" d="M50.7,107
		c-0.4,0-0.9,0.3-1,0.7c-2.1,4.2-5.6,7.5-9.9,9.3c-4.3,1.8-9.1,1.9-13.6,0.4c-0.6-0.2-1.2,0.1-1.5,0.6c-4.3,8.7-14.3,12.9-23.5,9.7
		c-0.6-0.2-1.2,0.1-1.5,0.6c-2.1,4.2-5.6,7.5-9.9,9.3c-4.3,1.8-9.1,1.9-13.5,0.4c-0.5-0.2-1.1,0-1.4,0.5c-0.3,0.5-0.2,1.1,0.3,1.5
		c19.6,16.7,49.1,14.4,65.8-5.2c6.4-7.5,10.2-16.8,11-26.6c0-0.3-0.1-0.7-0.3-0.9C51.4,107.1,51,107,50.7,107L50.7,107z M48.8,113.2
		c-2.9,14.5-12.8,26.6-26.5,32.3c-13.7,5.7-29.3,4.1-41.5-4.1c3.4,0.3,6.8-0.3,9.9-1.6c4.5-1.9,8.3-5.3,10.7-9.6
		c9.7,2.9,20.1-1.4,25-10.3C34.5,122.3,43.3,119.7,48.8,113.2L48.8,113.2z"/>
	<path style="clip-path:url(#SVGID_00000042709823407187430950000001694892795059265442_);fill:#49838F;" d="M27.2,146.6
		c0,2.4-2,4.4-4.4,4.4s-4.4-2-4.4-4.4c0-2.4,2-4.4,4.4-4.4C25.2,142.2,27.2,144.2,27.2,146.6C27.2,146.6,27.2,146.6,27.2,146.6z"/>
	<path style="clip-path:url(#SVGID_00000042709823407187430950000001694892795059265442_);fill:#1A1A1A;" d="M22.8,141
		c-3.1,0-5.6,2.5-5.6,5.6c0,3.1,2.5,5.6,5.6,5.6s5.6-2.5,5.6-5.6C28.4,143.5,25.9,141,22.8,141z M22.8,143.4c1.8,0,3.2,1.4,3.2,3.2
		c0,1.8-1.4,3.2-3.2,3.2s-3.2-1.4-3.2-3.2C19.6,144.8,21,143.4,22.8,143.4C22.8,143.4,22.8,143.4,22.8,143.4z"/>
	<path style="clip-path:url(#SVGID_00000042709823407187430950000001694892795059265442_);fill:#595959;" d="M57.9,233.5
		c0,16.4-13.3,29.7-29.7,29.7c-16.4,0-29.7-13.3-29.7-29.7c0-16.4,13.3-29.7,29.7-29.7C44.6,203.9,57.9,217.1,57.9,233.5
		C57.9,233.5,57.9,233.5,57.9,233.5L57.9,233.5z"/>
	<path style="clip-path:url(#SVGID_00000042709823407187430950000001694892795059265442_);fill:#444444;" d="M47.2,233.5
		c0,10.5-8.5,19-19,19s-19-8.5-19-19s8.5-19,19-19S47.2,223,47.2,233.5L47.2,233.5z"/>
	<path style="clip-path:url(#SVGID_00000042709823407187430950000001694892795059265442_);fill:#818181;" d="M28.3,207.2
		c-14.6,0-26.4,11.8-26.4,26.4s11.8,26.4,26.4,26.4c0.6,0,1-0.4,1-1s-0.4-1-1-1c-13.5,0-24.4-10.9-24.4-24.4
		c0-13.5,10.9-24.4,24.4-24.4c0,0,0,0,0,0c0.6,0,1-0.4,1-1S28.8,207.1,28.3,207.2L28.3,207.2z"/>
	<path style="clip-path:url(#SVGID_00000042709823407187430950000001694892795059265442_);fill:#1A1A1A;" d="M28.3,202.7
		c-17,0-30.9,13.8-30.9,30.9s13.8,30.9,30.9,30.9s30.9-13.8,30.9-30.9l0,0C59.1,216.5,45.3,202.7,28.3,202.7z M28.3,205.1
		c15.7,0,28.5,12.8,28.5,28.5S44,262,28.3,262s-28.5-12.8-28.5-28.5c0,0,0,0,0,0C-0.2,217.8,12.5,205.1,28.3,205.1
		C28.2,205.1,28.2,205.1,28.3,205.1z"/>
	<path style="clip-path:url(#SVGID_00000042709823407187430950000001694892795059265442_);fill:#A8A8A8;" d="M43.4,233.5
		c0,8.4-6.8,15.1-15.2,15.1c-8.4,0-15.1-6.8-15.1-15.2c0-8.4,6.8-15.1,15.2-15.1c4,0,7.9,1.6,10.7,4.5
		C41.8,225.7,43.4,229.5,43.4,233.5L43.4,233.5z"/>
	<path style="clip-path:url(#SVGID_00000042709823407187430950000001694892795059265442_);fill:#D6D6D6;" d="M39.4,233.5
		c0,6.2-5,11.2-11.2,11.2s-11.2-5-11.2-11.2s5-11.2,11.2-11.2S39.4,227.4,39.4,233.5L39.4,233.5z"/>
	<path style="clip-path:url(#SVGID_00000042709823407187430950000001694892795059265442_);fill:#A8A8A8;" d="M32.2,233.5
		c0,2.2-1.8,3.9-3.9,3.9s-3.9-1.8-3.9-3.9c0-2.2,1.8-3.9,3.9-3.9h0C30.4,229.6,32.2,231.4,32.2,233.5z"/>
	<path style="clip-path:url(#SVGID_00000042709823407187430950000001694892795059265442_);fill:#EE723A;" d="M3.9,209.2l6.4,6.4
		c9.9-9.9,26-9.9,35.9,0c1.6,1.6,2.9,3.3,4,5.3l7.9-4.5c-9.5-16.5-30.6-22.1-47.1-12.6C8.4,205.2,6,207.1,3.9,209.2z"/>
	<path style="clip-path:url(#SVGID_00000042709823407187430950000001694892795059265442_);fill:#DC4A24;" d="M37.7,200.4
		c-3.9,2.1-7.6,4.8-10.9,7.8c0.5,0,1-0.1,1.4-0.1c9.1,0,17.5,4.8,22,12.7l7.9-4.5C53.6,208.6,46.3,202.8,37.7,200.4L37.7,200.4z"/>
	<path style="clip-path:url(#SVGID_00000042709823407187430950000001694892795059265442_);fill:#1A1A1A;" d="M28.3,197.9
		c-9.5,0-18.5,3.8-25.2,10.4l-0.8,0.8l0.8,0.9l7.3,7.3l0.8-0.8c9.4-9.4,24.7-9.4,34.2,0c1.5,1.5,2.8,3.2,3.8,5l0.6,1l9.9-5.7l-0.6-1
		C52.7,204.7,41,197.9,28.3,197.9z M28.3,200.3c11.4,0,22.1,5.9,28.2,15.6l-5.8,3.3c-7.9-12.3-24.3-15.9-36.6-8.1
		c-1.3,0.8-2.5,1.8-3.7,2.8l-4.7-4.7C11.8,203.5,19.9,200.4,28.3,200.3L28.3,200.3z"/>
	<path style="clip-path:url(#SVGID_00000042709823407187430950000001694892795059265442_);fill:#1A1A1A;" d="M28.3,217.2
		c-9,0-16.3,7.3-16.3,16.3c0,9,7.3,16.3,16.3,16.3s16.3-7.3,16.3-16.3C44.6,224.5,37.3,217.2,28.3,217.2z M28.3,219.6
		c7.7,0,13.9,6.2,13.9,13.9s-6.2,13.9-13.9,13.9s-13.9-6.2-13.9-13.9l0,0C14.3,225.9,20.5,219.6,28.3,219.6
		C28.2,219.6,28.2,219.6,28.3,219.6z"/>
	<path style="clip-path:url(#SVGID_00000042709823407187430950000001694892795059265442_);fill:#1A1A1A;" d="M28.3,228.4
		c-2.8,0-5.1,2.3-5.1,5.1s2.3,5.1,5.1,5.1s5.1-2.3,5.1-5.1l0,0C33.4,230.7,31.1,228.4,28.3,228.4z M28.3,230.8
		c1.5,0,2.7,1.2,2.7,2.7c0,1.5-1.2,2.7-2.7,2.7c-1.5,0-2.7-1.2-2.7-2.7c0,0,0,0,0,0C25.5,232,26.7,230.8,28.3,230.8
		C28.2,230.8,28.2,230.8,28.3,230.8z"/>
	<path style="clip-path:url(#SVGID_00000042709823407187430950000001694892795059265442_);fill:#1A1A1A;" d="M89.7,216.6
		c0,0.4-0.2,0.8-0.4,1.1c-0.3,0.3-0.7,0.5-1.1,0.4c-0.8-0.1-1.4-0.9-1.3-1.7c0.1-0.6,0.6-1.1,1.3-1.3c0.4,0,0.8,0.2,1.1,0.4
		C89.5,215.9,89.7,216.3,89.7,216.6L89.7,216.6z"/>
	<path style="clip-path:url(#SVGID_00000042709823407187430950000001694892795059265442_);fill:#1A1A1A;" d="M114.7,216.6
		c0.1,0.8-0.4,1.6-1.3,1.7c-0.8,0.1-1.6-0.4-1.7-1.3c0-0.2,0-0.3,0-0.5c0-0.8,0.7-1.5,1.5-1.5C114,215.1,114.7,215.8,114.7,216.6
		L114.7,216.6z"/>
	<path style="clip-path:url(#SVGID_00000042709823407187430950000001694892795059265442_);fill:#1A1A1A;" d="M69,166.5
		c0,0.8-0.7,1.5-1.5,1.5c0,0,0,0,0,0c-0.8,0-1.5-0.7-1.5-1.5c0,0,0,0,0,0c0-0.4,0.2-0.8,0.4-1.1c0.6-0.6,1.5-0.7,2.1-0.1
		C68.8,165.6,69,166.1,69,166.5z"/>
	<path style="clip-path:url(#SVGID_00000042709823407187430950000001694892795059265442_);fill:#1A1A1A;" d="M61,163.3
		c0,0.8-0.7,1.5-1.5,1.5c0,0,0,0,0,0c-0.8-0.1-1.4-0.8-1.3-1.7c0.1-0.7,0.6-1.2,1.3-1.3c0.4,0,0.8,0.2,1.1,0.4
		C60.8,162.5,61,162.9,61,163.3L61,163.3z"/>
	<path style="clip-path:url(#SVGID_00000042709823407187430950000001694892795059265442_);fill:#595959;" d="M197.8,233.5
		c0,16.4-13.3,29.7-29.7,29.7c-16.4,0-29.7-13.3-29.7-29.7s13.3-29.7,29.7-29.7C184.5,203.9,197.8,217.1,197.8,233.5
		C197.8,233.5,197.8,233.5,197.8,233.5L197.8,233.5z"/>
	<path style="clip-path:url(#SVGID_00000042709823407187430950000001694892795059265442_);fill:#444444;" d="M187.1,233.5
		c0,10.5-8.5,19-19,19s-19-8.5-19-19s8.5-19,19-19S187.1,223,187.1,233.5L187.1,233.5z"/>
	<path style="clip-path:url(#SVGID_00000042709823407187430950000001694892795059265442_);fill:#818181;" d="M168.1,207.2
		c-14.6,0.3-26.1,12.3-25.8,26.9c0.3,14.2,11.7,25.6,25.8,25.8c0.6,0,1-0.4,1-1s-0.4-1-1-1c-13.5,0-24.4-10.9-24.4-24.4
		c0-13.5,10.9-24.4,24.4-24.4c0,0,0,0,0,0c0.6,0,1-0.4,1-1S168.6,207.1,168.1,207.2L168.1,207.2z"/>
	<path style="clip-path:url(#SVGID_00000042709823407187430950000001694892795059265442_);fill:#1A1A1A;" d="M168.1,202.7
		c-17,0-30.8,13.9-30.8,30.9s13.9,30.8,30.9,30.8c17,0,30.8-13.8,30.8-30.9C199,216.5,185.2,202.7,168.1,202.7L168.1,202.7z
		 M168.1,205.1c15.7,0,28.5,12.8,28.5,28.5S183.8,262,168.1,262s-28.5-12.8-28.5-28.5l0,0C139.6,217.8,152.3,205.1,168.1,205.1
		C168,205.1,168.1,205.1,168.1,205.1z"/>
	<path style="clip-path:url(#SVGID_00000042709823407187430950000001694892795059265442_);fill:#A8A8A8;" d="M183.2,233.5
		c0,8.4-6.8,15.1-15.1,15.1c-8.4,0-15.1-6.8-15.1-15.1c0-8.4,6.8-15.1,15.1-15.1c0,0,0,0,0,0C176.4,218.4,183.2,225.2,183.2,233.5z"
		/>
	<path style="clip-path:url(#SVGID_00000042709823407187430950000001694892795059265442_);fill:#D6D6D6;" d="M179.3,233.5
		c0,6.2-5,11.2-11.2,11.2s-11.2-5-11.2-11.2s5-11.2,11.2-11.2C174.3,222.4,179.3,227.4,179.3,233.5L179.3,233.5z"/>
	<path style="clip-path:url(#SVGID_00000042709823407187430950000001694892795059265442_);fill:#A8A8A8;" d="M172,233.5
		c0,2.2-1.8,3.9-3.9,3.9s-3.9-1.8-3.9-3.9c0-2.2,1.8-3.9,3.9-3.9l0,0C170.2,229.6,172,231.4,172,233.5z"/>
	<path style="clip-path:url(#SVGID_00000042709823407187430950000001694892795059265442_);fill:#EE723A;" d="M143.7,209.2l6.4,6.4
		c9.9-9.9,26-9.9,35.9,0c1.6,1.6,2.9,3.3,4,5.3l7.9-4.5c-9.5-16.5-30.6-22.1-47.1-12.6C148.2,205.2,145.9,207.1,143.7,209.2
		L143.7,209.2z"/>
	<path style="clip-path:url(#SVGID_00000042709823407187430950000001694892795059265442_);fill:#DC4A24;" d="M177.5,200.4
		c-3.9,2.1-7.6,4.8-10.9,7.8c0.5,0,0.9-0.1,1.4-0.1c9.1,0,17.5,4.8,22,12.7l7.9-4.5C193.4,208.6,186.1,202.8,177.5,200.4
		L177.5,200.4z"/>
	<path style="clip-path:url(#SVGID_00000042709823407187430950000001694892795059265442_);fill:#1A1A1A;" d="M168.1,197.9
		c-9.5,0-18.5,3.8-25.2,10.4l-0.8,0.8l8.1,8.1l0.8-0.8c9.4-9.4,24.7-9.4,34.2,0c1.5,1.5,2.8,3.2,3.8,5l0.6,1l9.9-5.7l-0.6-1
		C192.6,204.7,180.8,197.9,168.1,197.9L168.1,197.9z M168.1,200.3c11.4,0,22.1,5.9,28.2,15.6l-5.8,3.3c-7.9-12.3-24.3-15.9-36.6-8.1
		c-1.3,0.8-2.5,1.8-3.7,2.8l-4.7-4.7C151.6,203.5,159.7,200.4,168.1,200.3L168.1,200.3z"/>
	<path style="clip-path:url(#SVGID_00000042709823407187430950000001694892795059265442_);fill:#1A1A1A;" d="M168.1,217.2
		c-9,0-16.3,7.3-16.3,16.3s7.3,16.3,16.3,16.3s16.3-7.3,16.3-16.3C184.4,224.5,177.1,217.2,168.1,217.2L168.1,217.2z M168.1,219.6
		c7.7,0,13.9,6.2,13.9,13.9s-6.2,13.9-13.9,13.9s-13.9-6.2-13.9-13.9l0,0C154.1,225.9,160.4,219.6,168.1,219.6
		C168.1,219.6,168.1,219.6,168.1,219.6z"/>
	<path style="clip-path:url(#SVGID_00000042709823407187430950000001694892795059265442_);fill:#1A1A1A;" d="M168.1,228.4
		c-2.8,0-5.1,2.3-5.1,5.1c0,2.8,2.3,5.1,5.1,5.1c2.8,0,5.1-2.3,5.1-5.1c0,0,0,0,0,0C173.2,230.7,170.9,228.4,168.1,228.4z
		 M168.1,230.8c1.5,0,2.7,1.2,2.7,2.7c0,1.5-1.2,2.7-2.7,2.7c-1.5,0-2.7-1.2-2.7-2.7c0,0,0,0,0,0C165.3,232,166.6,230.8,168.1,230.8
		C168.1,230.8,168.1,230.8,168.1,230.8z"/>
	<path style="clip-path:url(#SVGID_00000042709823407187430950000001694892795059265442_);fill:#EB5A53;" d="M45,0H16H0v16
		c0,7,0,14,0,21c10.3,12.3,28.7,14,41,3.7c6.7-5.5,10.5-13.8,10.5-22.4C51.5,11.6,49.2,5.2,45,0z"/>
	<g style="clip-path:url(#SVGID_00000042709823407187430950000001694892795059265442_);enable-background:new    ;">
		<text transform="matrix(1 0 0 1 15.57 31.75)" class="st20 st1 st21">04</text>
	</g>
</g>
</svg>
