<svg id="Слой_1" data-name="Слой 1" xmlns="http://www.w3.org/2000/svg" viewBox="0 0 195.59 280.63"><defs><style>.cls-1{fill:#797979;}.cls-12,.cls-2{fill:#1a1a1a;}.cls-3{fill:#6c6c6c;}.cls-4{fill:#ed6b49;}.cls-5{fill:#e74025;}.cls-6{fill:#eb5a53;}.cls-13,.cls-7{fill:#fff;}.cls-8{fill:#595959;}.cls-9{fill:#3e3e3e;}.cls-10{fill:#badbe9;}.cls-11{fill:#555;}.cls-12{font-size:37px;}.cls-12,.cls-13{font-family:Impact;}.cls-13{font-size:20px;}</style></defs><rect class="cls-1" x="-19.81" y="-10.87" width="507.02" height="309.98"/><path class="cls-2" d="M90.67,107.65c0,.31,0,.62,0,.93a34.64,34.64,0,0,0,59.88,23.81,23.38,23.38,0,0,0,2.89.29,24.15,24.15,0,0,0,24.1-24.1c0-.31,0-.62,0-.93h-5.91q0,.46,0,.93a18.14,18.14,0,0,1-18.18,18.19,18.49,18.49,0,0,1-3.48-.34l-1.69-.33-1.12,1.3a28.79,28.79,0,0,1-50.59-18.82c0-.31,0-.62,0-.93Zm0,0"/><path class="cls-2" d="M125.36,73.87a34.76,34.76,0,0,0-34.71,34.71c0,.31,0,.63,0,.94h5.91c0-.31,0-.63,0-.94a28.76,28.76,0,0,1,28.8-28.8h0a28.8,28.8,0,0,1,21.77,10l1.12,1.31,1.69-.34a18.62,18.62,0,0,1,3.49-.36,18.15,18.15,0,0,1,18.18,18.19c0,.31,0,.63,0,.94h5.91c0-.31,0-.63,0-.94a24.15,24.15,0,0,0-24.1-24.1h0a25.85,25.85,0,0,0-2.91.3,34.67,34.67,0,0,0-25.14-10.91Zm0,0"/><path class="cls-3" d="M125.37,76.82a31.76,31.76,0,1,0,24,52.51,21.15,21.15,0,1,0,0-41.48,31.8,31.8,0,0,0-24-11Zm0,0"/><path class="cls-4" d="M97.24,118.68a2.43,2.43,0,0,0-1.7.7,31.85,31.85,0,0,0,6.77,11h13.5a2.39,2.39,0,0,0,2.4-2.4v-6.88a2.39,2.39,0,0,0-2.4-2.4Zm0,0"/><path class="cls-4" d="M124.62,118.68a2.39,2.39,0,0,0-2.4,2.4V128a2.39,2.39,0,0,0,2.4,2.4h18.57a2.39,2.39,0,0,0,2.4-2.4v-6.88a2.39,2.39,0,0,0-2.4-2.4Zm0,0"/><path class="cls-4" d="M152,118.68a2.39,2.39,0,0,0-2.4,2.4V128a2.35,2.35,0,0,0,.5,1.47,20.58,20.58,0,0,0,3.32.29A21.14,21.14,0,0,0,171.79,119a2.4,2.4,0,0,0-1.22-.33Zm0,0"/><path class="cls-5" d="M118.21,125a2.39,2.39,0,0,1-2.4,2.4h-16a31,31,0,0,0,2.45,2.92h13.5a2.39,2.39,0,0,0,2.4-2.4Zm0,0"/><path class="cls-5" d="M122.22,125V128a2.39,2.39,0,0,0,2.4,2.4h18.57a2.39,2.39,0,0,0,2.4-2.4V125a2.39,2.39,0,0,1-2.4,2.4H124.62a2.39,2.39,0,0,1-2.4-2.4Zm0,0"/><path class="cls-5" d="M149.61,125V128a2.35,2.35,0,0,0,.5,1.47,20.58,20.58,0,0,0,3.32.29,21.08,21.08,0,0,0,9.51-2.28H152a2.39,2.39,0,0,1-2.4-2.4Zm0,0"/><path class="cls-2" d="M97.24,117.94a3.14,3.14,0,0,0-2.22.92l1,1a1.62,1.62,0,0,1,1.17-.48h18.57a1.64,1.64,0,0,1,1.66,1.66V128a1.64,1.64,0,0,1-1.66,1.66h-13.5v1.48h13.5a3.14,3.14,0,0,0,3.13-3.14v-6.88a3.14,3.14,0,0,0-3.13-3.14Zm0,0"/><path class="cls-2" d="M121.49,123.59V128a3.14,3.14,0,0,0,3.13,3.14h18.57a3.15,3.15,0,0,0,3.14-3.14v-4.37h-1.48V128a1.64,1.64,0,0,1-1.66,1.66H124.62A1.64,1.64,0,0,1,123,128v-4.37Zm0,0"/><path class="cls-2" d="M152,117.94a3.15,3.15,0,0,0-3.14,3.14V128a3.13,3.13,0,0,0,.68,2l1.16-.92a1.63,1.63,0,0,1-.37-1v-6.88a1.65,1.65,0,0,1,1.67-1.66h18.56a1.64,1.64,0,0,1,.85.23l.75-1.27a3.12,3.12,0,0,0-1.6-.44Zm0,0"/><path class="cls-4" d="M110.93,134.62a2.38,2.38,0,0,0-2,1.09,31.71,31.71,0,0,0,16.45,4.63,32.62,32.62,0,0,0,6.53-.69V137a2.39,2.39,0,0,0-2.4-2.4Zm0,0"/><path class="cls-4" d="M138.31,134.62a2.39,2.39,0,0,0-2.4,2.4v1.47a31.85,31.85,0,0,0,7.6-3.87Zm0,0"/><path class="cls-2" d="M110.93,133.88a3.14,3.14,0,0,0-2.63,1.42l1.24.81a1.64,1.64,0,0,1,1.39-.75H129.5a1.64,1.64,0,0,1,1.66,1.66v2.63h1.48V137a3.15,3.15,0,0,0-3.14-3.14Zm0,0"/><path class="cls-2" d="M138.31,133.88a3.14,3.14,0,0,0-3.13,3.14v1.47h1.47V137a1.64,1.64,0,0,1,1.66-1.66h5.2v-1.48Zm0,0"/><path class="cls-4" d="M110.93,102.74a2.39,2.39,0,0,0-2.4,2.4V112a2.39,2.39,0,0,0,2.4,2.4H129.5a2.39,2.39,0,0,0,2.4-2.4v-6.88a2.39,2.39,0,0,0-2.4-2.4Zm0,0"/><path class="cls-4" d="M138.31,102.74a2.39,2.39,0,0,0-2.4,2.4V112a2.39,2.39,0,0,0,2.4,2.4h18.57a2.39,2.39,0,0,0,2.4-2.4v-6.88a2.39,2.39,0,0,0-2.4-2.4Zm0,0"/><path class="cls-4" d="M165.7,102.74a2.39,2.39,0,0,0-2.4,2.4V112a2.39,2.39,0,0,0,2.4,2.4h8a21,21,0,0,0,.83-5.84,20.62,20.62,0,0,0-.84-5.84Zm0,0"/><path class="cls-4" d="M94.17,102.74a30.73,30.73,0,0,0,0,11.68h7.94a2.39,2.39,0,0,0,2.4-2.4v-6.88a2.39,2.39,0,0,0-2.4-2.4Zm0,0"/><path class="cls-5" d="M104.51,109.1a2.39,2.39,0,0,1-2.4,2.4H93.76c.09,1,.23,2,.41,2.92h7.94a2.39,2.39,0,0,0,2.4-2.4Zm0,0"/><path class="cls-5" d="M108.53,109.1V112a2.39,2.39,0,0,0,2.4,2.4H129.5a2.39,2.39,0,0,0,2.4-2.4V109.1a2.39,2.39,0,0,1-2.4,2.4H110.93a2.39,2.39,0,0,1-2.4-2.4Zm0,0"/><path class="cls-5" d="M135.91,109.1V112a2.39,2.39,0,0,0,2.4,2.4h18.57a2.39,2.39,0,0,0,2.4-2.4V109.1a2.39,2.39,0,0,1-2.4,2.4H138.31a2.39,2.39,0,0,1-2.4-2.4Zm0,0"/><path class="cls-5" d="M163.3,109.1V112a2.39,2.39,0,0,0,2.4,2.4h8a20.74,20.74,0,0,0,.61-2.92H165.7a2.39,2.39,0,0,1-2.4-2.4Zm0,0"/><path class="cls-2" d="M107.79,107.65V112a3.15,3.15,0,0,0,3.14,3.14H129.5a3.14,3.14,0,0,0,3.13-3.14v-4.37h-1.47V112a1.64,1.64,0,0,1-1.66,1.66H110.93a1.64,1.64,0,0,1-1.66-1.66v-4.37Zm0,0"/><path class="cls-2" d="M135.18,107.65V112a3.14,3.14,0,0,0,3.13,3.14h18.57A3.15,3.15,0,0,0,160,112v-4.37h-1.48V112a1.64,1.64,0,0,1-1.66,1.66H138.31a1.64,1.64,0,0,1-1.66-1.66v-4.37Zm0,0"/><path class="cls-2" d="M165.7,102a3.15,3.15,0,0,0-3.14,3.14V112a3.15,3.15,0,0,0,3.14,3.14h8v-1.48h-8A1.63,1.63,0,0,1,164,112v-6.88a1.64,1.64,0,0,1,1.66-1.66h8V102Zm0,0"/><path class="cls-2" d="M94.17,102v1.48h7.94a1.65,1.65,0,0,1,1.67,1.66V112a1.64,1.64,0,0,1-1.67,1.66H94.17v1.48h7.94a3.15,3.15,0,0,0,3.14-3.14v-6.88a3.15,3.15,0,0,0-3.14-3.14Zm0,0"/><path class="cls-4" d="M102.28,86.8a31.91,31.91,0,0,0-6.75,11,2.4,2.4,0,0,0,1.71.71h18.57a2.39,2.39,0,0,0,2.4-2.4V89.2a2.39,2.39,0,0,0-2.4-2.4Zm0,0"/><path class="cls-4" d="M124.62,86.8a2.39,2.39,0,0,0-2.4,2.4v6.88a2.39,2.39,0,0,0,2.4,2.4h18.57a2.39,2.39,0,0,0,2.4-2.4V89.2a2.39,2.39,0,0,0-2.4-2.4Zm0,0"/><path class="cls-4" d="M153.43,87.44a20.72,20.72,0,0,0-3.33.3,2.4,2.4,0,0,0-.49,1.46v6.88a2.39,2.39,0,0,0,2.4,2.4h18.56a2.34,2.34,0,0,0,1.23-.34,21.15,21.15,0,0,0-18.37-10.7Zm0,0"/><path class="cls-5" d="M118.21,93.16a2.39,2.39,0,0,1-2.4,2.4H97.24a2.25,2.25,0,0,1-.74-.12c-.35.77-.68,1.54-1,2.33a2.4,2.4,0,0,0,1.71.71h18.57a2.39,2.39,0,0,0,2.4-2.4Zm0,0"/><path class="cls-5" d="M122.22,93.16v2.92a2.39,2.39,0,0,0,2.4,2.4h18.57a2.39,2.39,0,0,0,2.4-2.4V93.16a2.39,2.39,0,0,1-2.4,2.4H124.62a2.39,2.39,0,0,1-2.4-2.4Zm0,0"/><path class="cls-5" d="M149.61,93.16v2.92a2.39,2.39,0,0,0,2.4,2.4h18.56a2.34,2.34,0,0,0,1.23-.34,21.19,21.19,0,0,0-1.74-2.58H152a2.39,2.39,0,0,1-2.4-2.4Zm0,0"/><path class="cls-2" d="M102.28,86.06v1.48h13.53a1.64,1.64,0,0,1,1.66,1.66v6.88a1.65,1.65,0,0,1-1.66,1.67H97.24a1.62,1.62,0,0,1-1.18-.5l-1,1a3.11,3.11,0,0,0,2.23.93h18.57a3.14,3.14,0,0,0,3.13-3.14V89.2a3.15,3.15,0,0,0-3.13-3.14Zm0,0"/><path class="cls-2" d="M121.49,91.71v4.37a3.14,3.14,0,0,0,3.13,3.14h18.57a3.15,3.15,0,0,0,3.14-3.14V91.71h-1.48v4.37a1.65,1.65,0,0,1-1.66,1.67H124.62A1.65,1.65,0,0,1,123,96.08V91.71Zm0,0"/><path class="cls-2" d="M149.54,87.25a3.17,3.17,0,0,0-.67,2v6.88A3.15,3.15,0,0,0,152,99.22h18.56a3.13,3.13,0,0,0,1.61-.44l-.76-1.27a1.62,1.62,0,0,1-.85.24H152a1.65,1.65,0,0,1-1.67-1.67V89.2a1.67,1.67,0,0,1,.36-1Zm0,0"/><path class="cls-4" d="M125.37,76.82a31.84,31.84,0,0,0-16.45,4.64,2.42,2.42,0,0,0,2,1.09H129.5a2.4,2.4,0,0,0,2.4-2.4v-2.6a32,32,0,0,0-6.53-.73Zm0,0"/><path class="cls-4" d="M135.91,78.67v1.48a2.4,2.4,0,0,0,2.4,2.4h5.12a31.35,31.35,0,0,0-7.52-3.88Zm0,0"/><path class="cls-5" d="M131.87,77.55a2.39,2.39,0,0,1-2.37,2.07H112.4a32.08,32.08,0,0,0-3.48,1.84,2.42,2.42,0,0,0,2,1.09H129.5a2.4,2.4,0,0,0,2.4-2.4v-2.6Zm0,0"/><path class="cls-5" d="M135.91,78.67v1.48a2.4,2.4,0,0,0,2.4,2.4h5.12a31.08,31.08,0,0,0-5.18-2.93,2.4,2.4,0,0,1-1.65-.72l-.69-.23Zm0,0"/><path class="cls-2" d="M131.16,77.55v2.6a1.64,1.64,0,0,1-1.66,1.66H110.93a1.66,1.66,0,0,1-1.39-.75l-1.24.81a3.16,3.16,0,0,0,2.63,1.41H129.5a3.15,3.15,0,0,0,3.14-3.13v-2.6Zm0,0"/><path class="cls-2" d="M135.18,78.67v1.48a3.14,3.14,0,0,0,3.13,3.13h5.12V81.81h-5.12a1.64,1.64,0,0,1-1.66-1.66V78.67Zm0,0"/><path class="cls-2" d="M92.88,107.65c0,.31,0,.62,0,.93a32.46,32.46,0,0,0,56.81,21.51,21.47,21.47,0,0,0,3.75.37,21.89,21.89,0,0,0,21.88-21.88c0-.31,0-.62,0-.93h-1.48q0,.46,0,.93a20.35,20.35,0,0,1-24.31,20l-.42-.08-.28.32a31,31,0,0,1-54.48-20.26c0-.31,0-.62,0-.93Zm0,0"/><path class="cls-2" d="M125.37,76.08a32.51,32.51,0,0,0-32.5,32.5c0,.31,0,.62,0,.94h1.47c0-.32,0-.63,0-.94a31,31,0,0,1,54.47-20.25l.28.33.42-.08a19.8,19.8,0,0,1,3.91-.4,20.39,20.39,0,0,1,20.41,20.4c0,.31,0,.63,0,.94h1.48c0-.31,0-.63,0-.94A21.89,21.89,0,0,0,153.43,86.7a22.73,22.73,0,0,0-3.77.38,32.53,32.53,0,0,0-24.29-11Zm0,0"/><path class="cls-2" d="M110.93,102a3.15,3.15,0,0,0-3.14,3.14v4.38h1.48v-4.38a1.64,1.64,0,0,1,1.66-1.66H129.5a1.64,1.64,0,0,1,1.66,1.66v4.38h1.47v-4.38A3.14,3.14,0,0,0,129.5,102Zm0,0"/><path class="cls-2" d="M138.31,102a3.14,3.14,0,0,0-3.13,3.14v4.38h1.47v-4.38a1.64,1.64,0,0,1,1.66-1.66h18.57a1.64,1.64,0,0,1,1.66,1.66v4.38H160v-4.38a3.15,3.15,0,0,0-3.14-3.14Zm0,0"/><path class="cls-2" d="M124.62,117.94a3.14,3.14,0,0,0-3.13,3.14v4.37H123v-4.37a1.64,1.64,0,0,1,1.66-1.66h18.57a1.64,1.64,0,0,1,1.66,1.66v4.37h1.48v-4.37a3.15,3.15,0,0,0-3.14-3.14Zm0,0"/><path class="cls-2" d="M124.62,86.06a3.15,3.15,0,0,0-3.13,3.14v4.38H123V89.2a1.64,1.64,0,0,1,1.66-1.66h18.57a1.64,1.64,0,0,1,1.66,1.66v4.38h1.48V89.2a3.16,3.16,0,0,0-3.14-3.14Zm0,0"/><path class="cls-6" d="M75.5,152.24c0-9.43,4.15-11.32,7-11.32s7,1.89,7,11.32-3.14,22.85-7,22.85-7-13.41-7-22.85Zm0,0"/><path class="cls-2" d="M82.52,139a8,8,0,0,0-6.08,2.82c-1.81,2.12-2.9,5.46-2.9,10.46a60.85,60.85,0,0,0,2.13,15.49,25.25,25.25,0,0,0,2.44,6.12c1,1.65,2.31,3.2,4.41,3.2s3.43-1.55,4.42-3.2a25.25,25.25,0,0,0,2.44-6.12,60.85,60.85,0,0,0,2.13-15.49c0-5-1.1-8.34-2.9-10.46A8,8,0,0,0,82.52,139Zm0,3.92a3.79,3.79,0,0,1,3.1,1.43c1,1.17,2,3.5,2,7.93a57.59,57.59,0,0,1-2,14.43,22.68,22.68,0,0,1-2,5.17,4,4,0,0,1-1.06,1.25,4.19,4.19,0,0,1-1-1.25,23.11,23.11,0,0,1-2-5.17,58,58,0,0,1-2-14.43c0-4.43,1-6.76,2-7.93a3.79,3.79,0,0,1,3.09-1.43Zm0,0"/><path class="cls-6" d="M40,152.24c0-9.43,4.15-11.32,7-11.32s7,1.89,7,11.32-3.15,22.85-7,22.85-7-13.41-7-22.85Zm0,0"/><path class="cls-2" d="M47,139a8,8,0,0,0-6.08,2.82C39.1,143.9,38,147.24,38,152.24a60.42,60.42,0,0,0,2.14,15.49,25.25,25.25,0,0,0,2.44,6.12c1,1.65,2.31,3.2,4.41,3.2s3.43-1.55,4.42-3.2a25.25,25.25,0,0,0,2.44-6.12A60.85,60.85,0,0,0,56,152.24c0-5-1.1-8.34-2.9-10.46A8,8,0,0,0,47,139Zm0,3.92a3.79,3.79,0,0,1,3.1,1.43c1,1.17,2,3.5,2,7.93a57.59,57.59,0,0,1-2,14.43,22.68,22.68,0,0,1-2,5.17A4.14,4.14,0,0,1,47,173.09a4.19,4.19,0,0,1-1.05-1.25,23.11,23.11,0,0,1-2-5.17,58,58,0,0,1-2-14.43c0-4.43,1-6.76,2-7.93A3.79,3.79,0,0,1,47,142.88Zm0,0"/><path class="cls-6" d="M110.83,105.4c-2.73-9,.7-12,3.45-12.87s7.27-.23,10,8.8,3.61,22.78-.11,23.9-10.61-10.8-13.34-19.83Zm0,0"/><path class="cls-2" d="M113.67,91.7a8,8,0,0,0-5,4.46c-1.11,2.55-1.2,6.06.25,10.85a61,61,0,0,0,6.53,14.21,25.35,25.35,0,0,0,4.11,5.15c1.43,1.3,3.15,2.39,5.16,1.78s2.83-2.47,3.3-4.34a25.43,25.43,0,0,0,.56-6.56,60.9,60.9,0,0,0-2.45-15.45c-1.45-4.79-3.46-7.66-5.81-9.17a7.94,7.94,0,0,0-6.64-.93Zm1.14,3.75a3.79,3.79,0,0,1,3.37.47c1.29.84,2.9,2.78,4.19,7a58.07,58.07,0,0,1,2.28,14.39,22.85,22.85,0,0,1-.45,5.53,4,4,0,0,1-.64,1.5,3.89,3.89,0,0,1-1.37-.89,22.67,22.67,0,0,1-3.44-4.36,57.88,57.88,0,0,1-6.08-13.23c-1.28-4.24-1-6.76-.41-8.17a3.76,3.76,0,0,1,2.55-2.26Zm0,0"/><path class="cls-6" d="M7.17,100.94c3.61-8.72,8.17-8.87,10.82-7.77s5.77,4.43,2.16,13.15S8.5,126.22,4.92,124.73s-1.36-15.08,2.25-23.79Zm0,0"/><path class="cls-2" d="M18.74,91.36a7.92,7.92,0,0,0-6.7.27c-2.48,1.27-4.77,3.93-6.68,8.56a60.53,60.53,0,0,0-4,15.12,25.3,25.3,0,0,0-.09,6.59c.28,1.91.92,3.84,2.86,4.65s3.75-.12,5.3-1.27a25.6,25.6,0,0,0,4.6-4.72A60.57,60.57,0,0,0,22,107.07c1.92-4.63,2.18-8.13,1.33-10.78a7.93,7.93,0,0,0-4.55-4.93ZM17.24,95a3.77,3.77,0,0,1,2.31,2.5c.47,1.47.49,4-1.21,8.08A57.66,57.66,0,0,1,11,118.14a22.14,22.14,0,0,1-3.85,4,4.14,4.14,0,0,1-1.45.76,4.14,4.14,0,0,1-.49-1.56,22.38,22.38,0,0,1,.1-5.55A57.74,57.74,0,0,1,9,101.69c1.69-4.1,3.49-5.87,4.86-6.57a3.74,3.74,0,0,1,3.4-.14Zm0,0"/><path class="cls-2" d="M64.76,50.53a55,55,0,1,0,55,55,55.09,55.09,0,0,0-55-55Zm0,6.28A48.76,48.76,0,1,1,16,105.57,48.71,48.71,0,0,1,64.76,56.81Zm0,0"/><path class="cls-6" d="M115.87,104.33c0,2.15-.25,27.24-14.91,34.3-10.4,5-16.2-4.77-37.23-4.48-19.8.27-25,9.09-34.75,4.48-14.65-6.89-14.91-32.19-14.91-34.3,0-3,.33-26.44,14.91-34.3,8.6-4.64,13.06,1.08,34.3,1.3C86.52,71.58,91.6,64.85,101,70,115.53,78.09,115.87,101.38,115.87,104.33Zm0,0"/><path class="cls-7" d="M65.31,54.63a52.43,52.43,0,0,0-49.39,35h98.8a52.46,52.46,0,0,0-49.41-35Zm0,0"/><path class="cls-7" d="M62.58,55.82A48.54,48.54,0,0,0,16.36,89.65h92.39A48.5,48.5,0,0,0,62.58,55.82Zm0,0"/><path class="cls-7" d="M15.5,123.58a61.13,61.13,0,0,0,23.91,25,53,53,0,0,0,25.94,7.44,49,49,0,0,0,14.56-2,50.48,50.48,0,0,0,23.93-16,54.66,54.66,0,0,0,8.9-14.44Zm0,0"/><path class="cls-7" d="M18.11,123.67m0,0a50.34,50.34,0,0,0,91.57,0Z"/><path class="cls-2" d="M64.76,52.88a52.69,52.69,0,1,0,52.68,52.69A52.7,52.7,0,0,0,64.76,52.88Zm0,1.57a51.12,51.12,0,1,1-51.12,51.12A51.1,51.1,0,0,1,64.76,54.45Zm0,0"/><path class="cls-2" d="M54.69,32.91v5.26c5.06.33,9.93.39,15.09.77,6.44.48,10.29,2.35,12.56,4.64a11.19,11.19,0,0,1,3.15,8.23c0,5.42-2.89,9.06-7.94,11.52S65.35,66.66,58,65.53c-1.1-.17-2.2-.38-3.3-.64v5.44q1.25.26,2.49.45c8.25,1.27,16.37.42,22.7-2.67s10.93-8.82,10.93-16.3a16.78,16.78,0,0,0-4.7-12c-3.37-3.4-8.62-5.65-15.94-6.19-5.54-.41-10.48-.43-15.48-.73Zm0,0"/><path class="cls-2" d="M35.6,29.72l1.74,4.68.43,1.15a78.42,78.42,0,0,1-13.83-3l-4.09-1.43.57,4.29c2.76,21,19.69,32.47,35.95,35.25v-5.4c-13-2.5-25.87-11-29.74-26.39a53,53,0,0,0,15.09,2.33l3.8,0L44,36.94a103.15,103.15,0,0,0,12.42,1.33V33a81.6,81.6,0,0,1-15.91-2.11Zm0,0"/><path class="cls-8" d="M39.83,33.48l1.88,5.05c-8.59,0-18.65-3.48-18.65-3.48,5.28,40.13,65.09,42.56,65.09,16.76,0-7.27-4.41-14.51-18.18-15.52-10.35-.76-19-.11-30.14-2.81Zm0,0"/><path class="cls-1" d="M39.83,33.48l1.88,5.05c-8.59,0-18.65-3.48-18.65-3.48C37,53.23,78,55.52,85.3,42.93c-2.69-3.47-7.49-6.06-15.33-6.64-10.35-.76-19-.11-30.14-2.81Zm0,0"/><path class="cls-9" d="M23.06,35.05c5.28,40.13,65.09,42.56,65.09,16.76a16,16,0,0,0-.38-3.53C78.2,71.37,30.06,61.2,23.06,35.05Zm0,0"/><path class="cls-2" d="M54.69,34.91v1.3c5,.32,9.93.35,15.23.74,6.78.5,11.15,2.52,13.83,5.22a13.27,13.27,0,0,1,3.73,9.64c0,6.19-3.53,10.61-9,13.31S65.38,68.68,57.68,67.5c-1-.16-2-.34-3-.57v1.36c.93.21,1.86.38,2.79.52C65.4,70,73.16,69.17,79,66.32s9.8-7.81,9.8-14.51A14.64,14.64,0,0,0,84.7,41.24c-3-3-7.68-5.1-14.68-5.61-5.4-.4-10.31-.42-15.33-.72Zm0,0"/><path class="cls-2" d="M38.77,32.54l.44,1.17,1.51,4.08c-8.19-.21-17.45-3.37-17.45-3.37l-1-.36.15,1.08c2.62,19.91,18.48,30.73,34,33.48V67.28C41.67,64.58,26.82,54.5,23.9,36c1.51.52,9.79,3.26,17.81,3.22h.95l-1.8-4.85a89.94,89.94,0,0,0,15.51,2V35A84.43,84.43,0,0,1,40,32.83Zm0,0"/><path class="cls-2" d="M40.68,82.37a8.7,8.7,0,0,0-1.89,5.42v4.36a8.71,8.71,0,1,0,17.41,0V88.81Zm0,0"/><path class="cls-7" d="M49.75,87.39a2.8,2.8,0,0,0-2.81,2.81A2.8,2.8,0,0,0,49.75,93a2.81,2.81,0,0,0,0-5.62Zm0,0"/><path class="cls-2" d="M90.24,82.37,74.71,88.81v3.34a8.71,8.71,0,1,0,17.41,0V87.79a8.69,8.69,0,0,0-1.88-5.42Zm0,0"/><path class="cls-7" d="M85.68,87.39a2.81,2.81,0,0,0-2,4.8,2.84,2.84,0,0,0,2,.82,2.81,2.81,0,0,0,0-5.62Zm0,0"/><path class="cls-7" d="M52.75,124.26a2.64,2.64,0,0,1-2.64-2.65v-3a15.35,15.35,0,0,1,30.7,0v3a2.64,2.64,0,0,1-2.65,2.65Zm0,0"/><path class="cls-10" d="M68.45,124.26h0s2.6-5,0-9.62c3.25-5.14.39-11,.39-11a15.35,15.35,0,0,1,12,15v3a2.64,2.64,0,0,1-2.65,2.65Zm0,0"/><path class="cls-2" d="M76,124.26h0a5.5,5.5,0,0,0,0-7.08c3.44-3.19.23-9.49.23-9.49a15.3,15.3,0,0,1,4.59,10.94v3a2.64,2.64,0,0,1-2.65,2.65Zm0,0"/><path class="cls-2" d="M54.93,124.26h0a5.49,5.49,0,0,1,0-7.08c-3.44-3.19-.24-9.49-.24-9.49a15.29,15.29,0,0,0-4.58,10.94v3a2.64,2.64,0,0,0,2.64,2.65Zm0,0"/><path class="cls-2" d="M65.46,102.43h-.6v1.69h.6A14.48,14.48,0,0,1,80,118.62v3a1.78,1.78,0,0,1-1.8,1.81H64.86v1.69h13.3a3.51,3.51,0,0,0,3.49-3.5v-3a16.2,16.2,0,0,0-16.19-16.19Zm0,0"/><path class="cls-2" d="M65.46,102.43a16.21,16.21,0,0,0-16.2,16.19v3a3.51,3.51,0,0,0,3.49,3.5H66.06v-1.69H52.75a1.78,1.78,0,0,1-1.8-1.81v-3a14.49,14.49,0,0,1,14.51-14.5h.6v-1.69Zm0,0"/><path class="cls-2" d="M83.17,161.85v5.91h-9V174h9V180H73.68a5.43,5.43,0,0,1-5.38-5.38v-7.35a5.43,5.43,0,0,1,5.38-5.38Zm0,0"/><path class="cls-2" d="M170,146.4a24.44,24.44,0,1,1,0,48.87h-.53v-5.91H170a18.53,18.53,0,0,0,0-37.06h-.53V146.4Zm0,0"/><rect class="cls-2" x="93.89" y="168.62" width="6.26" height="4.43"/><rect class="cls-2" x="140.61" y="168.62" width="6.26" height="4.43"/><path class="cls-2" d="M170,146.4h.53v5.91H170a18.53,18.53,0,1,0,0,37.05h.53v5.92H170a24.44,24.44,0,0,1,0-48.88Zm0,0"/><path class="cls-11" d="M148.54,170.83A21.48,21.48,0,1,0,170,149.35a21.49,21.49,0,0,0-21.48,21.48Zm0,0"/><path class="cls-1" d="M160.77,165.81A14.27,14.27,0,1,0,165,155.7a14.29,14.29,0,0,0-4.18,10.11Zm0,0"/><path class="cls-2" d="M170,148.61h.53v1.48H170a20.75,20.75,0,0,0,0,41.49h.53v1.48H170a22.23,22.23,0,0,1,0-44.45Zm0,0"/><path class="cls-7" d="M172.6,162.15a6.1,6.1,0,1,0,6.11-6.11,6.1,6.1,0,0,0-6.11,6.11Zm0,0"/><path class="cls-2" d="M91.6,161.85A5.43,5.43,0,0,1,97,167.23v7.35A5.43,5.43,0,0,1,91.6,180H82.12V174h8.95v-6.28H82.12v-5.91Zm0,0"/><path class="cls-1" d="M94,174.58v-7.35a2.42,2.42,0,0,0-2.42-2.42H73.68a2.42,2.42,0,0,0-2.42,2.42v7.35A2.42,2.42,0,0,0,73.68,177H91.6A2.42,2.42,0,0,0,94,174.58Zm0,0"/><path class="cls-11" d="M78.52,164.81V177H73.68a2.42,2.42,0,0,1-2.42-2.42v-7.35a2.42,2.42,0,0,1,2.42-2.42Zm0,0"/><rect class="cls-7" x="85.94" y="164.81" width="4.31" height="12.19"/><path class="cls-2" d="M83.17,164.07v1.48H73.68A1.66,1.66,0,0,0,72,167.23v7.35a1.66,1.66,0,0,0,1.68,1.68h9.49v1.48H73.68a3.17,3.17,0,0,1-3.16-3.16v-7.35a3.17,3.17,0,0,1,3.16-3.16Zm0,0"/><path class="cls-2" d="M107.42,164.42v4.44h-2.89a2,2,0,1,0,0,3.95h2.89v4.44h-2.89a6.42,6.42,0,1,1,0-12.83Zm0,0"/><path class="cls-2" d="M120.91,164.42v4.44H118a2,2,0,1,0,0,3.95h2.9v4.44H118a6.42,6.42,0,1,1,0-12.83Zm0,0"/><path class="cls-2" d="M134.39,164.42v4.44H131.5a2,2,0,1,0,0,3.95h2.89v4.44H131.5a6.42,6.42,0,1,1,0-12.83Zm0,0"/><path class="cls-2" d="M170,148.61a22.23,22.23,0,0,1,0,44.45h-.52v-1.48H170a20.75,20.75,0,0,0,0-41.49h-.52v-1.48Zm0,0"/><path class="cls-2" d="M91.6,164.07a3.17,3.17,0,0,1,3.16,3.16v7.35a3.17,3.17,0,0,1-3.16,3.16H82.12v-1.48H91.6a1.67,1.67,0,0,0,1.69-1.68v-7.35a1.66,1.66,0,0,0-1.69-1.68H82.12v-1.48Zm0,0"/><path class="cls-2" d="M136.24,164.42a6.42,6.42,0,1,1,0,12.83h-2.9v-4.44h2.9a2,2,0,1,0,0-3.95h-2.9v-4.44Zm0,0"/><path class="cls-2" d="M122.75,164.42a6.42,6.42,0,1,1,0,12.83h-2.89v-4.44h2.89a2,2,0,1,0,0-3.95h-2.89v-4.44Zm0,0"/><path class="cls-2" d="M109.27,164.42a6.42,6.42,0,1,1,0,12.83h-2.9v-4.44h2.9a2,2,0,1,0,0-3.95h-2.9v-4.44Zm0,0"/><text class="cls-12" transform="translate(11.3 260.42)">okupowani</text><text class="cls-12" transform="translate(50.58 227.77)">zostali</text><path class="cls-2" d="M150.64,0l29,0h16l0,16c0,7,0,14,0,21A29.09,29.09,0,0,1,150.64,0Z"/><text class="cls-13" transform="translate(161.82 31.65)">02</text></svg>