<?xml version="1.0" encoding="utf-8"?>
<!-- Generator: Adobe Illustrator 26.0.1, SVG Export Plug-In . SVG Version: 6.00 Build 0)  -->
<svg version="1.1" id="Слой_1" xmlns="http://www.w3.org/2000/svg" xmlns:xlink="http://www.w3.org/1999/xlink" x="0px" y="0px"
	 viewBox="0 0 195.6 280.6" style="enable-background:new 0 0 195.6 280.6;" xml:space="preserve">
<style type="text/css">
	.st0{clip-path:url(#SVGID_00000041989862978602656380000016954218094248909451_);fill:#E83E3E;}
	.st1{clip-path:url(#SVGID_00000003826695297907992290000017878299681407166851_);fill:#FFFFFF;}
	.st2{clip-path:url(#SVGID_00000176752784116325116960000006114169427592443534_);fill:#FFFFFF;}
	.st3{clip-path:url(#SVGID_00000060750459159607331490000003964873832251555244_);fill:#FFFFFF;}
	.st4{clip-path:url(#SVGID_00000032624066898713204530000014081560165265397677_);fill:#FFFFFF;}
	.st5{clip-path:url(#SVGID_00000089567747665382447740000002387949031957627068_);fill:#FFFFFF;}
	.st6{clip-path:url(#SVGID_00000155115904930400352020000014242883072042973361_);fill:#FFFFFF;}
	.st7{clip-path:url(#SVGID_00000016067006939745442300000018134060536787458493_);fill:#FFFFFF;}
	.st8{clip-path:url(#SVGID_00000144314045678145339610000003931684902408082356_);fill:#FFFFFF;}
	.st9{clip-path:url(#SVGID_00000158751161944217684030000004297514847711031948_);fill:#FFFFFF;}
	.st10{clip-path:url(#SVGID_00000143612249540367601850000006247479172597929390_);fill:#FFFFFF;}
	.st11{clip-path:url(#SVGID_00000095297762834442237920000002272713294517141415_);fill:#E83E3E;}
	.st12{clip-path:url(#SVGID_00000089571028005054305940000004586294785888207788_);fill:#1A1A1A;}
	.st13{clip-path:url(#SVGID_00000067951793830769896560000018323805045615583365_);fill:#E83E3E;}
	.st14{clip-path:url(#SVGID_00000177462500515188198520000012009960059205230269_);fill:#1A1A1A;}
	.st15{clip-path:url(#SVGID_00000066479121434709262370000011754803381819501478_);fill:#E83E3E;}
	.st16{clip-path:url(#SVGID_00000150798237892062647980000001656480479814491059_);fill:#1A1A1A;}
	.st17{clip-path:url(#SVGID_00000008853408439051133540000005464979217052430980_);fill:#E83E3E;}
	.st18{clip-path:url(#SVGID_00000058567838570578798560000006879472899405520021_);fill:#1A1A1A;}
	.st19{clip-path:url(#SVGID_00000162352800889112685220000012956100095573620359_);fill:#1A1A1A;}
	.st20{clip-path:url(#SVGID_00000166652506322308787690000006763452290872917392_);fill:#E83E3E;}
	.st21{clip-path:url(#SVGID_00000103225902298734694580000009038201859844170421_);fill:#FFFFFF;}
	.st22{clip-path:url(#SVGID_00000071544766107742896530000015178029965977962373_);fill:#1A1A1A;}
	.st23{clip-path:url(#SVGID_00000057856170830422846350000009975115256737440417_);fill:#FFFFFF;}
	.st24{clip-path:url(#SVGID_00000165196697634195099550000005194093415354993581_);fill:#BADBE9;}
	.st25{clip-path:url(#SVGID_00000082326352097067004960000006292439131612555143_);fill:#1A1A1A;}
	.st26{clip-path:url(#SVGID_00000090279417333293671660000005411046013916694174_);fill:#1A1A1A;}
	.st27{clip-path:url(#SVGID_00000116205012406837102190000012642166002374180782_);fill:#1A1A1A;}
	.st28{clip-path:url(#SVGID_00000028296830235630150030000016949904615810240180_);fill:#1A1A1A;}
	.st29{clip-path:url(#SVGID_00000047059720914522857960000005210920588706533521_);fill:#FFFFFF;}
	.st30{clip-path:url(#SVGID_00000063599993346843691580000008192690302993493410_);fill:#1A1A1A;}
	.st31{clip-path:url(#SVGID_00000005239410248384275120000010936444459431921028_);fill:#FFFFFF;}
	.st32{clip-path:url(#SVGID_00000049208648628449987200000001927045428799258254_);fill:#1A1A1A;}
	.st33{clip-path:url(#SVGID_00000114766405317574025820000007780455764529248920_);fill:#1A1A1A;}
	.st34{clip-path:url(#SVGID_00000097484368489604816860000016530291036128047025_);fill:#1A1A1A;}
	.st35{clip-path:url(#SVGID_00000161603106780307493060000012802725623653623945_);fill:#777E69;}
	.st36{clip-path:url(#SVGID_00000039856197528631515290000010954584776869986958_);fill:#777E69;}
	.st37{clip-path:url(#SVGID_00000009592327022313726180000006792012146347647903_);fill:#777E69;}
	.st38{clip-path:url(#SVGID_00000060023655627533467790000013689651865664681387_);fill:#9FA98D;}
	.st39{clip-path:url(#SVGID_00000098926521710438731860000018160779225084648347_);fill:#9FA98D;}
	.st40{clip-path:url(#SVGID_00000180335815887318654000000012270532902523224194_);fill:#1A1A1A;}
	.st41{clip-path:url(#SVGID_00000160911177584298606830000001491296940728814978_);fill:#9FA98D;}
	.st42{clip-path:url(#SVGID_00000147192982104503423970000018230637365490693303_);fill:#777E69;}
	.st43{clip-path:url(#SVGID_00000012450116673335051790000009389066202296891298_);fill:#1A1A1A;}
	.st44{clip-path:url(#SVGID_00000158023606003686938140000006802796554595927707_);fill:#777E69;}
	.st45{clip-path:url(#SVGID_00000125605260463704647980000007840144277351159184_);fill:#9FA98D;}
	.st46{clip-path:url(#SVGID_00000177458332419470725900000010556252284410196112_);fill:#1A1A1A;}
	.st47{clip-path:url(#SVGID_00000034058649354778802180000005360756648441179557_);fill:#1A1A1A;}
	.st48{clip-path:url(#SVGID_00000007402646524854048150000000732904766789963956_);fill:#1A1A1A;}
	.st49{clip-path:url(#SVGID_00000129911646656709627910000016261585604520432800_);fill:#1A1A1A;}
	.st50{clip-path:url(#SVGID_00000031894130406849610930000012959313030124468362_);fill:#1A1A1A;}
	.st51{clip-path:url(#SVGID_00000170253495787931173990000011509372567390051977_);fill:#1A1A1A;}
	.st52{clip-path:url(#SVGID_00000031913148050693232050000001739380479513803439_);fill:#423D3D;}
	.st53{clip-path:url(#SVGID_00000061446020767843476730000007686218008033957301_);fill:#1A1A1A;}
	.st54{clip-path:url(#SVGID_00000079474280570190328570000005624705520309205127_);fill:#5A5252;}
	.st55{clip-path:url(#SVGID_00000162337568680619980430000005030910963382322571_);fill:#7F6D6B;}
	.st56{clip-path:url(#SVGID_00000018938022579173666950000002589215509898863498_);fill:#1A1A1A;}
	.st57{clip-path:url(#SVGID_00000080927803630207215090000007919470371933572795_);fill:#423D3D;}
	.st58{clip-path:url(#SVGID_00000050659309830314673610000001799513109087064497_);fill:#1A1A1A;}
	.st59{clip-path:url(#SVGID_00000091002669341165790200000002058951557888468639_);fill:#5A5252;}
	.st60{clip-path:url(#SVGID_00000074421101648889750110000010718042338827315090_);fill:#7F6D6B;}
	.st61{clip-path:url(#SVGID_00000019648229119312564390000016973549501098123419_);fill:#423D3D;}
	.st62{clip-path:url(#SVGID_00000003096464673981727250000001487081317082892218_);fill:#7F6D6B;}
	.st63{clip-path:url(#SVGID_00000018958234626198071210000018064675720997918338_);fill:#1A1A1A;}
	.st64{clip-path:url(#SVGID_00000061472221501074448630000007936661690597358497_);fill:#E83B54;}
	.st65{clip-path:url(#SVGID_00000091704903388560955220000006134725656979520646_);fill:#1A1A1A;}
	.st66{clip-path:url(#SVGID_00000142178553159096132070000000343857857223796101_);fill:#423D3D;}
	.st67{clip-path:url(#SVGID_00000072274607430192653420000000242870227595583678_);fill:#423D3D;}
	.st68{enable-background:new    ;}
	.st69{fill:#FFFFFF;}
</style>
<g>
	<g>
		<g>
			<defs>
				<rect id="SVGID_1_" x="0.2" y="0.7" width="195.6" height="280.6"/>
			</defs>
			<clipPath id="SVGID_00000064317479038548153960000014546480829032693165_">
				<use xlink:href="#SVGID_1_"  style="overflow:visible;"/>
			</clipPath>
			
				<rect x="-12.1" y="-10.6" style="clip-path:url(#SVGID_00000064317479038548153960000014546480829032693165_);fill:#E83E3E;" width="498.5" height="306.7"/>
		</g>
	</g>
	<g>
		<g>
			<defs>
				<rect id="SVGID_00000127037293798386716400000000327506649070045623_" x="0.2" y="0.7" width="195.6" height="280.6"/>
			</defs>
			<clipPath id="SVGID_00000164475116142414253640000001012048230920872617_">
				<use xlink:href="#SVGID_00000127037293798386716400000000327506649070045623_"  style="overflow:visible;"/>
			</clipPath>
			<path style="clip-path:url(#SVGID_00000164475116142414253640000001012048230920872617_);fill:#FFFFFF;" d="M96.2,103.8h-0.3
				h-0.1h-0.1h-0.1h-0.1h-0.1h-0.1h-0.1h-0.1H95c0,0-0.1,0-0.1,0.1H95l-0.1,0.1l-0.1,0.1l-0.1,0.1v0.1l-0.1,0.1v0.1v0.1v0.1v0.1v0.1
				v0.1l0,0l0,0v0.1v0.1v0.1v0.1v0.2v0.1v0.1c0,0,0,0,0,0.1v0.1v0.1v0.1v0.1v0.1c0,0,0,0,0,0.1v0.1v0.1v0.1l0.1,0.1l0.1,0.1l0.1,0.1
				l0.1,0.1l0.1,0.1l0.1,0.1h0.1h0.1h0.1h0.1h0.1h0.1l0,0h0.1H96h0.5h0.1h0.1h0.1h0.1H97h0.1h0.1H97l0,0l0.1-0.1h0.1h0.1l0.1-0.1
				l0.1-0.1V107l0.1-0.1v-0.1c0,0,0,0,0-0.1l0.1-0.1c0,0,0,0,0-0.1v-0.1v-0.1v-0.1l0,0l0,0v-0.1V106v-0.1v-0.1v-0.2v-0.1v-0.1v-0.1
				v-0.1v-0.1V105v-0.1v-0.1v-0.1v-0.1c0,0,8421.6-6015.6-0.1-0.1v-0.1l-0.1-0.1l-0.1-0.1l-0.1-0.1l-0.1-0.1H97l0,0v0.2h-0.1h-0.1
				h-0.1h-0.1h-0.1h-0.1h-0.3L96.2,103.8z"/>
		</g>
	</g>
	<g>
		<g>
			<defs>
				<rect id="SVGID_00000089541286414094756530000016428673663020226481_" x="0.2" y="0.7" width="195.6" height="280.6"/>
			</defs>
			<clipPath id="SVGID_00000019657703913969520320000006599978613442918308_">
				<use xlink:href="#SVGID_00000089541286414094756530000016428673663020226481_"  style="overflow:visible;"/>
			</clipPath>
			<path style="clip-path:url(#SVGID_00000019657703913969520320000006599978613442918308_);fill:#FFFFFF;" d="M96.2,103.8H96h-0.1
				h-0.2h-0.1h-0.1h-0.1h-0.1h-0.1h-0.1H95h-0.1h-0.1l-0.1,0.1l-0.1,0.1l-0.1,0.1l-0.1,0.1v0.1l-0.1,0.1v0.1v0.1v0.1v0.1v0.1v0.1
				l0,0l0,0v0.1c0,0,0,0,0,0.1s0,0.1,0,0.1s0,0,0,0.1v0.2v0.1v0.1v0.1v0.1v0.1v0.1v0.1v0.1v0.1v0.1v0.1c0,0,0,0,0,0.1l0.1,0.1
				l0.1,0.1l0.1,0.1l0.1,0.1h0.1c0,0,0,0,0.1,0H95h0.1h0.1h0.1h0.1h0.1l0,0h0.1h0.1h0.1h0.4h0.1h0.1h0.1h0.1h0.1h0.1h0.1H97l0,0
				l0.1-0.1h0.1h0.1l0.1-0.1l0.1-0.1v-0.1l0.1-0.1V106c0,0,0,0,0-0.1l0.1-0.1c0,0,0,0,0-0.1v-0.1v-0.1v-0.1l0,0l0,0v-0.1v-0.1v-0.1
				V105l0,0v-0.1v-0.1v-0.1v-0.1v-0.1v-0.1v-0.1v-0.1v-0.1V104c0,0,8421.6-6015.6-0.1-0.1v0.1l-0.1-0.1l-0.1-0.1l-0.1-0.1l-0.1-0.1
				H97h-0.1L97,104h-0.1h-0.1h-0.1h-0.1h-0.1h-0.1h-0.3L96.2,103.8z"/>
		</g>
	</g>
	<g>
		<g>
			<defs>
				<rect id="SVGID_00000115504275686395811540000015204907270675208372_" x="0.2" y="0.7" width="195.6" height="280.6"/>
			</defs>
			<clipPath id="SVGID_00000023257922205436677360000009908150830428942271_">
				<use xlink:href="#SVGID_00000115504275686395811540000015204907270675208372_"  style="overflow:visible;"/>
			</clipPath>
			<path style="clip-path:url(#SVGID_00000023257922205436677360000009908150830428942271_);fill:#FFFFFF;" d="M96.2,103.8H96h-0.1
				h-0.2h-0.1h-0.1h-0.1h-0.1h-0.1h-0.1H95h-0.1h-0.1l-0.1,0.1l-0.1,0.1l-0.1,0.1l-0.1,0.1v0.1l-0.1,0.1v0.1v0.1v0.1v0.1v0.1v0.1
				l0,0l0,0v0.1c0,0,0,0,0,0.1s0,0.1,0,0.1s0,0,0,0.1v0.2v0.1v0.1v0.1v0.1v0.1v0.1v0.1v0.1v0.1v0.1v0.1c0,0,0,0,0,0.1l0.1,0.1
				l0.1,0.1l0.1,0.1l0.1,0.1h0.1c0,0,0,0,0.1,0H95h0.1h0.1h0.1h0.1h0.1l0,0h0.1h0.1h0.1h0.4h0.1h0.1h0.1h0.1h0.1h0.1h0.1H97l0,0
				l0.1-0.1h0.1h0.1l0.1-0.1l0.1-0.1v-0.1l0.1-0.1V106c0,0,0,0,0-0.1l0.1-0.1c0,0,0,0,0-0.1v-0.1v-0.1v-0.1l0,0l0,0v-0.1v-0.1v-0.1
				V105l0,0v-0.1v-0.1v-0.1v-0.1v-0.1v-0.1v-0.1v-0.1v-0.1V104c0,0,8421.6-6015.6-0.1-0.1v0.1l-0.1-0.1l-0.1-0.1l-0.1-0.1l-0.1-0.1
				H97h-0.1L97,104h-0.1h-0.1h-0.1h-0.1h-0.1h-0.1h-0.3L96.2,103.8z"/>
		</g>
	</g>
	<g>
		<g>
			<defs>
				<rect id="SVGID_00000043447208134125880610000011318026513494921637_" x="0.2" y="0.7" width="195.6" height="280.6"/>
			</defs>
			<clipPath id="SVGID_00000176004587723300172390000006801194100195285683_">
				<use xlink:href="#SVGID_00000043447208134125880610000011318026513494921637_"  style="overflow:visible;"/>
			</clipPath>
			<path style="clip-path:url(#SVGID_00000176004587723300172390000006801194100195285683_);fill:#FFFFFF;" d="M96.2,103.8H96h-0.1
				h-0.2h-0.1h-0.1h-0.1h-0.1h-0.1h-0.1H95h-0.1h-0.1l-0.1,0.1l-0.1,0.1l-0.1,0.1l-0.1,0.1v0.1l-0.1,0.1v0.1v0.1v0.1v0.1v0.1v0.1
				l0,0l0,0v0.1c0,0,0,0,0,0.1s0,0.1,0,0.1s0,0,0,0.1v0.2v0.1v0.1v0.1v0.1v0.1v0.1v0.1v0.1v0.1v0.1v0.1c0,0,0,0,0,0.1l0.1,0.1
				l0.1,0.1l0.1,0.1l0.1,0.1h0.1c0,0,0,0,0.1,0H95h0.1h0.1h0.1h0.1h0.1l0,0h0.1h0.1h0.1h0.4h0.1h0.1h0.1h0.1h0.1h0.1h0.1H97l0,0
				l0.1-0.1h0.1h0.1l0.1-0.1l0.1-0.1v-0.1l0.1-0.1V106c0,0,0,0,0-0.1l0.1-0.1c0,0,0,0,0-0.1v-0.1v-0.1v-0.1l0,0l0,0v-0.1v-0.1v-0.1
				V105l0,0v-0.1v-0.1v-0.1v-0.1v-0.1v-0.1v-0.1v-0.1v-0.1V104c0,0,8421.6-6015.6-0.1-0.1v0.1l-0.1-0.1l-0.1-0.1l-0.1-0.1l-0.1-0.1
				H97h-0.1L97,104h-0.1h-0.1h-0.1h-0.1h-0.1h-0.1h-0.3L96.2,103.8z"/>
		</g>
	</g>
	<g>
		<g>
			<defs>
				<rect id="SVGID_00000054981135810438460280000015934729450086664378_" x="0.2" y="0.7" width="195.6" height="280.6"/>
			</defs>
			<clipPath id="SVGID_00000019654104349829398680000016178115067093559999_">
				<use xlink:href="#SVGID_00000054981135810438460280000015934729450086664378_"  style="overflow:visible;"/>
			</clipPath>
			<path style="clip-path:url(#SVGID_00000019654104349829398680000016178115067093559999_);fill:#FFFFFF;" d="M96.2,103.8H96h-0.1
				h-0.2h-0.1h-0.1h-0.1h-0.1h-0.1h-0.1H95h-0.1h-0.1l-0.1,0.1l-0.1,0.1l-0.1,0.1l-0.1,0.1v0.1l-0.1,0.1v0.1v0.1v0.1v0.1v0.1v0.1
				l0,0l0,0v0.1c0,0,0,0,0,0.1s0,0.1,0,0.1s0,0,0,0.1v0.2v0.1v0.1v0.1v0.1v0.1v0.1v0.1v0.1v0.1v0.1v0.1c0,0,0,0,0,0.1l0.1,0.1
				l0.1,0.1l0.1,0.1l0.1,0.1h0.1c0,0,0,0,0.1,0H95h0.1h0.1h0.1h0.1h0.1l0,0h0.1h0.1h0.1h0.4h0.1h0.1h0.1h0.1h0.1h0.1h0.1H97l0,0
				l0.1-0.1h0.1h0.1l0.1-0.1l0.1-0.1v-0.1l0.1-0.1V106c0,0,0,0,0-0.1l0.1-0.1c0,0,0,0,0-0.1v-0.1v-0.1v-0.1l0,0l0,0v-0.1v-0.1v-0.1
				V105l0,0v-0.1v-0.1v-0.1v-0.1v-0.1v-0.1v-0.1v-0.1v-0.1V104c0,0,8421.6-6015.6-0.1-0.1v0.1l-0.1-0.1l-0.1-0.1l-0.1-0.1l-0.1-0.1
				H97h-0.1L97,104h-0.1h-0.1h-0.1h-0.1h-0.1h-0.1h-0.3L96.2,103.8z"/>
		</g>
	</g>
	<g>
		<g>
			<defs>
				<rect id="SVGID_00000137097123691844094250000007399503547359028356_" x="0.2" y="0.7" width="195.6" height="280.6"/>
			</defs>
			<clipPath id="SVGID_00000152971014010764539710000009440449470278893188_">
				<use xlink:href="#SVGID_00000137097123691844094250000007399503547359028356_"  style="overflow:visible;"/>
			</clipPath>
			<path style="clip-path:url(#SVGID_00000152971014010764539710000009440449470278893188_);fill:#FFFFFF;" d="M96.2,103.8H96h-0.1
				h-0.2h-0.1h-0.1h-0.1h-0.1h-0.1h-0.1H95h-0.1h-0.1l-0.1,0.1l-0.1,0.1l-0.1,0.1l-0.1,0.1v0.1l-0.1,0.1v0.1v0.1v0.1v0.1v0.1v0.1
				l0,0l0,0v0.1c0,0,0,0,0,0.1s0,0.1,0,0.1s0,0,0,0.1v0.2v0.1v0.1v0.1v0.1v0.1v0.1v0.1v0.1v0.1v0.1v0.1c0,0,0,0,0,0.1l0.1,0.1
				l0.1,0.1l0.1,0.1l0.1,0.1h0.1c0,0,0,0,0.1,0H95h0.1h0.1h0.1h0.1h0.1l0,0h0.1h0.1h0.1h0.4h0.1h0.1h0.1h0.1h0.1h0.1h0.1H97l0,0
				l0.1-0.1h0.1h0.1l0.1-0.1l0.1-0.1v-0.1l0.1-0.1V106c0,0,0,0,0-0.1l0.1-0.1c0,0,0,0,0-0.1v-0.1v-0.1v-0.1l0,0l0,0v-0.1v-0.1v-0.1
				V105l0,0v-0.1v-0.1v-0.1v-0.1v-0.1v-0.1v-0.1v-0.1v-0.1V104c0,0,8421.6-6015.6-0.1-0.1v0.1l-0.1-0.1l-0.1-0.1l-0.1-0.1l-0.1-0.1
				H97h-0.1L97,104h-0.1h-0.1h-0.1h-0.1h-0.1h-0.1h-0.3L96.2,103.8z"/>
		</g>
	</g>
	<g>
		<g>
			<defs>
				<rect id="SVGID_00000008140095072209125050000012155713611366240394_" x="0.2" y="0.7" width="195.6" height="280.6"/>
			</defs>
			<clipPath id="SVGID_00000016067747491168771510000013847315010637997440_">
				<use xlink:href="#SVGID_00000008140095072209125050000012155713611366240394_"  style="overflow:visible;"/>
			</clipPath>
			<path style="clip-path:url(#SVGID_00000016067747491168771510000013847315010637997440_);fill:#FFFFFF;" d="M96.2,103.8H96h-0.1
				h-0.2h-0.1h-0.1h-0.1h-0.1h-0.1h-0.1H95h-0.1h-0.1l-0.1,0.1l-0.1,0.1l-0.1,0.1l-0.1,0.1v0.1l-0.1,0.1v0.1v0.1v0.1v0.1v0.1v0.1
				l0,0l0,0v0.1c0,0,0,0,0,0.1s0,0.1,0,0.1s0,0,0,0.1v0.2v0.1v0.1v0.1v0.1v0.1v0.1v0.1v0.1v0.1v0.1v0.1c0,0,0,0,0,0.1l0.1,0.1
				l0.1,0.1l0.1,0.1l0.1,0.1h0.1c0,0,0,0,0.1,0H95h0.1h0.1h0.1h0.1h0.1l0,0h0.1h0.1h0.1h0.4h0.1h0.1h0.1h0.1h0.1h0.1h0.1H97l0,0
				l0.1-0.1h0.1h0.1l0.1-0.1l0.1-0.1v-0.1l0.1-0.1V106c0,0,0,0,0-0.1l0.1-0.1c0,0,0,0,0-0.1v-0.1v-0.1v-0.1l0,0l0,0v-0.1v-0.1v-0.1
				V105l0,0v-0.1v-0.1v-0.1v-0.1v-0.1v-0.1v-0.1v-0.1v-0.1V104c0,0,8421.6-6015.6-0.1-0.1v0.1l-0.1-0.1l-0.1-0.1l-0.1-0.1l-0.1-0.1
				H97h-0.1L97,104h-0.1h-0.1h-0.1h-0.1h-0.1h-0.1h-0.3L96.2,103.8z"/>
		</g>
	</g>
	<g>
		<g>
			<defs>
				<rect id="SVGID_00000065797097714359295370000016947425995428439219_" x="0.2" y="0.7" width="195.6" height="280.6"/>
			</defs>
			<clipPath id="SVGID_00000095316721453769314610000017246621816647877039_">
				<use xlink:href="#SVGID_00000065797097714359295370000016947425995428439219_"  style="overflow:visible;"/>
			</clipPath>
			<path style="clip-path:url(#SVGID_00000095316721453769314610000017246621816647877039_);fill:#FFFFFF;" d="M96.2,103.8H96h-0.1
				h-0.2h-0.1h-0.1h-0.1h-0.1h-0.1h-0.1H95h-0.1h-0.1l-0.1,0.1l-0.1,0.1l-0.1,0.1l-0.1,0.1v0.1l-0.1,0.1v0.1v0.1v0.1v0.1v0.1v0.1
				l0,0l0,0v0.1c0,0,0,0,0,0.1s0,0.1,0,0.1s0,0,0,0.1v0.2v0.1v0.1v0.1v0.1v0.1v0.1v0.1v0.1v0.1v0.1v0.1c0,0,0,0,0,0.1l0.1,0.1
				l0.1,0.1l0.1,0.1l0.1,0.1h0.1c0,0,0,0,0.1,0H95h0.1h0.1h0.1h0.1h0.1l0,0h0.1h0.1h0.1h0.4h0.1h0.1h0.1h0.1h0.1h0.1h0.1H97l0,0
				l0.1-0.1h0.1h0.1l0.1-0.1l0.1-0.1v-0.1l0.1-0.1V106c0,0,0,0,0-0.1l0.1-0.1c0,0,0,0,0-0.1v-0.1v-0.1v-0.1l0,0l0,0v-0.1v-0.1v-0.1
				V105l0,0v-0.1v-0.1v-0.1v-0.1v-0.1v-0.1v-0.1v-0.1v-0.1V104c0,0,8421.6-6015.6-0.1-0.1v0.1l-0.1-0.1l-0.1-0.1l-0.1-0.1l-0.1-0.1
				H97h-0.1L97,104h-0.1h-0.1h-0.1h-0.1h-0.1h-0.1h-0.3L96.2,103.8z"/>
		</g>
	</g>
	<g>
		<g>
			<defs>
				<rect id="SVGID_00000121238457272842527100000015783633160221068478_" x="0.2" y="0.7" width="195.6" height="280.6"/>
			</defs>
			<clipPath id="SVGID_00000002385504977302957740000005824125275549574066_">
				<use xlink:href="#SVGID_00000121238457272842527100000015783633160221068478_"  style="overflow:visible;"/>
			</clipPath>
			<path style="clip-path:url(#SVGID_00000002385504977302957740000005824125275549574066_);fill:#FFFFFF;" d="M96.2,103.8H96h-0.1
				h-0.2h-0.1h-0.1h-0.1h-0.1h-0.1h-0.1H95h-0.1h-0.1l-0.1,0.1l-0.1,0.1l-0.1,0.1l-0.1,0.1v0.1l-0.1,0.1v0.1v0.1v0.1v0.1v0.1v0.1
				l0,0l0,0v0.1c0,0,0,0,0,0.1s0,0.1,0,0.1s0,0,0,0.1v0.2v0.1v0.1v0.1v0.1v0.1v0.1v0.1v0.1v0.1v0.1v0.1c0,0,0,0,0,0.1l0.1,0.1
				l0.1,0.1l0.1,0.1l0.1,0.1h0.1c0,0,0,0,0.1,0H95h0.1h0.1h0.1h0.1h0.1l0,0h0.1h0.1h0.1h0.4h0.1h0.1h0.1h0.1h0.1h0.1h0.1H97l0,0
				l0.1-0.1h0.1h0.1l0.1-0.1l0.1-0.1v-0.1l0.1-0.1V106c0,0,0,0,0-0.1l0.1-0.1c0,0,0,0,0-0.1v-0.1v-0.1v-0.1l0,0l0,0v-0.1v-0.1v-0.1
				V105l0,0v-0.1v-0.1v-0.1v-0.1v-0.1v-0.1v-0.1v-0.1v-0.1V104c0,0,8421.6-6015.6-0.1-0.1v0.1l-0.1-0.1l-0.1-0.1l-0.1-0.1l-0.1-0.1
				H97h-0.1L97,104h-0.1h-0.1h-0.1h-0.1h-0.1h-0.1h-0.3L96.2,103.8z"/>
		</g>
	</g>
	<g>
		<g>
			<defs>
				<rect id="SVGID_00000177465128553363508190000015324627385506716807_" x="0.2" y="0.7" width="195.6" height="280.6"/>
			</defs>
			<clipPath id="SVGID_00000031204903617338010520000006098316383134170296_">
				<use xlink:href="#SVGID_00000177465128553363508190000015324627385506716807_"  style="overflow:visible;"/>
			</clipPath>
			<path style="clip-path:url(#SVGID_00000031204903617338010520000006098316383134170296_);fill:#FFFFFF;" d="M96.2,103.8H96h-0.1
				h-0.2h-0.1h-0.1h-0.1h-0.1h-0.1h-0.1H95h-0.1h-0.1l-0.1,0.1l-0.1,0.1l-0.1,0.1l-0.1,0.1v0.1l-0.1,0.1v0.1v0.1v0.1v0.1v0.1v0.1
				l0,0l0,0v0.1c0,0,0,0,0,0.1s0,0.1,0,0.1s0,0,0,0.1v0.2v0.1v0.1v0.1v0.1v0.1v0.1v0.1v0.1v0.1v0.1v0.1c0,0,0,0,0,0.1l0.1,0.1
				l0.1,0.1l0.1,0.1l0.1,0.1h0.1c0,0,0,0,0.1,0H95h0.1h0.1h0.1h0.1h0.1l0,0h0.1h0.1h0.1h0.4h0.1h0.1h0.1h0.1h0.1h0.1h0.1H97l0,0
				l0.1-0.1h0.1h0.1l0.1-0.1l0.1-0.1v-0.1l0.1-0.1V106c0,0,0,0,0-0.1l0.1-0.1c0,0,0,0,0-0.1v-0.1v-0.1v-0.1l0,0l0,0v-0.1v-0.1v-0.1
				V105l0,0v-0.1v-0.1v-0.1v-0.1v-0.1v-0.1v-0.1v-0.1v-0.1V104c0,0,8421.6-6015.6-0.1-0.1v0.1l-0.1-0.1l-0.1-0.1l-0.1-0.1l-0.1-0.1
				H97h-0.1L97,104h-0.1h-0.1h-0.1h-0.1h-0.1h-0.1h-0.3L96.2,103.8z"/>
		</g>
	</g>
	<g>
		<g>
			<defs>
				<rect id="SVGID_00000123410722949368389260000003967086861765308817_" x="0.2" y="0.7" width="195.6" height="280.6"/>
			</defs>
			<clipPath id="SVGID_00000072263089950888047770000001537715383192183943_">
				<use xlink:href="#SVGID_00000123410722949368389260000003967086861765308817_"  style="overflow:visible;"/>
			</clipPath>
			<path style="clip-path:url(#SVGID_00000072263089950888047770000001537715383192183943_);fill:#E83E3E;" d="M113.6,152.9
				c3.9-9.4,8.8-9.5,11.6-8.3s6.2,4.8,2.3,14.1S115,180,111.2,178.4S109.7,162.2,113.6,152.9L113.6,152.9z"/>
		</g>
	</g>
	<g>
		<g>
			<defs>
				<rect id="SVGID_00000180355187347480196500000009433572990207100600_" x="0.2" y="0.7" width="195.6" height="280.6"/>
			</defs>
			<clipPath id="SVGID_00000055673952729615056200000009529330215751031709_">
				<use xlink:href="#SVGID_00000180355187347480196500000009433572990207100600_"  style="overflow:visible;"/>
			</clipPath>
			<path style="clip-path:url(#SVGID_00000055673952729615056200000009529330215751031709_);fill:#1A1A1A;" d="M126,142.6
				c-2.3-1-5-0.9-7.2,0.3c-2.7,1.4-5.1,4.2-7.2,9.2c-2.1,5.2-3.5,10.7-4.2,16.2c-0.3,2.3-0.4,4.7-0.1,7.1c0.3,2,1,4.1,3.1,5
				s4-0.1,5.7-1.4c1.9-1.5,3.5-3.2,4.9-5.1c3.4-4.4,6.3-9.3,8.5-14.5c2.1-5,2.3-8.7,1.4-11.6C130.1,145.5,128.3,143.5,126,142.6
				L126,142.6z M124.4,146.5c1.2,0.5,2.1,1.4,2.5,2.7c0.5,1.6,0.5,4.3-1.3,8.7c-2,4.8-4.7,9.3-7.9,13.5c-1.2,1.6-2.6,3-4.1,4.3
				c-0.5,0.4-1,0.6-1.6,0.8c-0.3-0.5-0.5-1.1-0.5-1.7c-0.2-2-0.2-4,0.1-6c0.7-5.2,2-10.3,4-15.1c1.8-4.4,3.7-6.3,5.2-7.1
				C121.9,145.9,123.3,145.9,124.4,146.5L124.4,146.5z"/>
		</g>
	</g>
	<g>
		<g>
			<defs>
				<rect id="SVGID_00000020363635505546538190000016964645908593953192_" x="0.2" y="0.7" width="195.6" height="280.6"/>
			</defs>
			<clipPath id="SVGID_00000109710512590750494440000013900202021907719847_">
				<use xlink:href="#SVGID_00000020363635505546538190000016964645908593953192_"  style="overflow:visible;"/>
			</clipPath>
			<path style="clip-path:url(#SVGID_00000109710512590750494440000013900202021907719847_);fill:#E83E3E;" d="M74.3,154.6
				c1.3-10,6-11.5,9.1-11.1s7.2,3,5.9,13s-6.6,23.9-10.7,23.3S73,164.6,74.3,154.6L74.3,154.6z"/>
		</g>
	</g>
	<g>
		<g>
			<defs>
				<rect id="SVGID_00000062175937884686333930000005253174270346771086_" x="0.2" y="0.7" width="195.6" height="280.6"/>
			</defs>
			<clipPath id="SVGID_00000129179682215288006870000018412068653726972565_">
				<use xlink:href="#SVGID_00000062175937884686333930000005253174270346771086_"  style="overflow:visible;"/>
			</clipPath>
			<path style="clip-path:url(#SVGID_00000129179682215288006870000018412068653726972565_);fill:#1A1A1A;" d="M83.7,141.5
				c-2.5-0.3-5,0.5-6.9,2.1c-2.2,2-3.8,5.4-4.6,10.7c-0.7,5.6-0.7,11.2,0.1,16.8c0.3,2.4,0.9,4.7,1.7,6.9c0.8,1.9,2,3.7,4.3,4
				s3.9-1.2,5.2-2.8c1.4-1.9,2.6-4,3.5-6.2c2.2-5.2,3.7-10.6,4.4-16.2c0.7-5.3,0-9-1.6-11.6C88.5,143.2,86.2,141.8,83.7,141.5
				L83.7,141.5z M83.1,145.6c1.3,0.1,2.4,0.9,3.1,2c0.9,1.4,1.6,4,1,8.7c-0.7,5.2-2.1,10.2-4.1,15.1c-0.7,1.9-1.7,3.6-2.9,5.2
				c-0.4,0.5-0.8,0.9-1.3,1.2c-0.4-0.4-0.7-1-0.9-1.5c-0.7-1.9-1.2-3.8-1.4-5.8c-0.7-5.2-0.7-10.4-0.1-15.6c0.6-4.7,2-7.1,3.2-8.2
				C80.6,145.8,81.9,145.4,83.1,145.6L83.1,145.6z"/>
		</g>
	</g>
	<g>
		<g>
			<defs>
				<rect id="SVGID_00000021117267963252977360000011033932661239242915_" x="0.2" y="0.7" width="195.6" height="280.6"/>
			</defs>
			<clipPath id="SVGID_00000101794773109369537260000000683207675376127406_">
				<use xlink:href="#SVGID_00000021117267963252977360000011033932661239242915_"  style="overflow:visible;"/>
			</clipPath>
			<path style="clip-path:url(#SVGID_00000101794773109369537260000000683207675376127406_);fill:#E83E3E;" d="M148.9,109.8
				c-8.5-5.6-7.7-10.4-6-13s5.8-5.2,14.3,0.4s18.6,16.3,16.4,19.8S157.4,115.4,148.9,109.8L148.9,109.8z"/>
		</g>
	</g>
	<g>
		<g>
			<defs>
				<rect id="SVGID_00000067234591517751629870000009352535641834827682_" x="0.2" y="0.7" width="195.6" height="280.6"/>
			</defs>
			<clipPath id="SVGID_00000097495797164620250290000011262486414839809444_">
				<use xlink:href="#SVGID_00000067234591517751629870000009352535641834827682_"  style="overflow:visible;"/>
			</clipPath>
			<path style="clip-path:url(#SVGID_00000097495797164620250290000011262486414839809444_);fill:#1A1A1A;" d="M141.1,95.7
				c-1.4,2.1-1.8,4.7-1.1,7.1c0.8,2.9,3.2,5.8,7.7,8.8c4.7,3.1,9.8,5.5,15.1,7.2c2.2,0.8,4.6,1.2,6.9,1.4c2.1,0.1,4.2-0.2,5.5-2.1
				s0.6-4-0.3-5.8c-1.1-2.1-2.5-4-4.1-5.8c-3.7-4.2-8-7.9-12.6-11c-4.5-3-8.1-3.9-11.1-3.6C144.7,92.2,142.5,93.6,141.1,95.7
				L141.1,95.7z M144.6,98c0.7-1.1,1.8-1.8,3.1-1.9c1.6-0.2,4.3,0.3,8.3,2.9c4.3,2.9,8.3,6.4,11.8,10.3c1.3,1.5,2.5,3.1,3.4,4.9
				c0.3,0.5,0.5,1.1,0.5,1.7c-0.6,0.2-1.1,0.3-1.7,0.2c-2-0.2-3.9-0.6-5.8-1.2c-5-1.6-9.7-3.9-14.1-6.7c-4-2.6-5.5-4.9-6-6.4
				C143.7,100.4,143.9,99.1,144.6,98L144.6,98z"/>
		</g>
	</g>
	<g>
		<g>
			<defs>
				<rect id="SVGID_00000035498955235083031500000008117086460161329811_" x="0.2" y="0.7" width="195.6" height="280.6"/>
			</defs>
			<clipPath id="SVGID_00000134935346094951053420000002338249841393558163_">
				<use xlink:href="#SVGID_00000035498955235083031500000008117086460161329811_"  style="overflow:visible;"/>
			</clipPath>
			<path style="clip-path:url(#SVGID_00000134935346094951053420000002338249841393558163_);fill:#E83E3E;" d="M38.8,100.5
				c3.9-9.4,8.8-9.5,11.6-8.3s6.2,4.8,2.3,14.1s-12.5,21.4-16.4,19.8S34.9,109.9,38.8,100.5z"/>
		</g>
	</g>
	<g>
		<g>
			<defs>
				<rect id="SVGID_00000145763887295027192640000000087078887307064971_" x="0.2" y="0.7" width="195.6" height="280.6"/>
			</defs>
			<clipPath id="SVGID_00000163762889631597310160000013322021019746867367_">
				<use xlink:href="#SVGID_00000145763887295027192640000000087078887307064971_"  style="overflow:visible;"/>
			</clipPath>
			<path style="clip-path:url(#SVGID_00000163762889631597310160000013322021019746867367_);fill:#1A1A1A;" d="M51.2,90.2
				c-2.3-1-5-0.9-7.2,0.3c-2.7,1.4-5.1,4.2-7.2,9.2c-2.1,5.2-3.5,10.7-4.3,16.3c-0.3,2.3-0.4,4.7-0.1,7.1c0.3,2,1,4.1,3.1,5
				s4-0.1,5.7-1.4c1.9-1.5,3.5-3.2,4.9-5.1c3.4-4.4,6.3-9.3,8.5-14.5c2-5,2.3-8.7,1.4-11.6C55.3,93.2,53.5,91.3,51.2,90.2L51.2,90.2
				z M49.6,94.1c1.2,0.5,2.1,1.5,2.5,2.7c0.5,1.6,0.5,4.3-1.3,8.7c-2.1,4.8-4.7,9.3-7.9,13.5c-1.2,1.6-2.6,3-4.1,4.3
				c-0.5,0.4-1,0.6-1.6,0.8c-0.3-0.5-0.5-1.1-0.5-1.7c-0.2-2-0.2-4,0.1-6c0.7-5.2,2-10.3,4-15.1c1.8-4.4,3.8-6.3,5.2-7
				C47.1,93.6,48.5,93.6,49.6,94.1L49.6,94.1z"/>
		</g>
	</g>
	<g>
		<g>
			<defs>
				<rect id="SVGID_00000180340347272830339470000012236012098696231828_" x="0.2" y="0.7" width="195.6" height="280.6"/>
			</defs>
			<clipPath id="SVGID_00000165929931894938833110000015135132980511559566_">
				<use xlink:href="#SVGID_00000180340347272830339470000012236012098696231828_"  style="overflow:visible;"/>
			</clipPath>
			<path style="clip-path:url(#SVGID_00000165929931894938833110000015135132980511559566_);fill:#1A1A1A;" d="M100.6,46.4
				c-32.6,0-59.1,26.4-59.1,59.1s26.4,59.1,59.1,59.1s59.1-26.4,59.1-59.1l0,0C159.6,72.9,133.2,46.4,100.6,46.4z M100.6,53.2
				c28.9,0,52.3,23.4,52.3,52.3s-23.4,52.3-52.3,52.3s-52.3-23.4-52.3-52.3l0,0c0-28.9,23.4-52.3,52.2-52.3
				C100.5,53.2,100.6,53.2,100.6,53.2z"/>
		</g>
	</g>
	<g>
		<g>
			<defs>
				<rect id="SVGID_00000049217451634176372580000010323495702981862022_" x="0.2" y="0.7" width="195.6" height="280.6"/>
			</defs>
			<clipPath id="SVGID_00000043425852233076539940000002438828126384895106_">
				<use xlink:href="#SVGID_00000049217451634176372580000010323495702981862022_"  style="overflow:visible;"/>
			</clipPath>
			<path style="clip-path:url(#SVGID_00000043425852233076539940000002438828126384895106_);fill:#E83E3E;" d="M44.9,105.5
				c0-30.8,24.9-55.7,55.7-55.7s55.7,24.9,55.7,55.7s-24.9,55.7-55.7,55.7c-14.8,0-29-5.9-39.4-16.3
				C50.8,134.4,44.9,120.3,44.9,105.5z"/>
		</g>
	</g>
	<g>
		<g>
			<defs>
				<rect id="SVGID_00000121237046561079020630000018387677506655419054_" x="0.2" y="0.7" width="195.6" height="280.6"/>
			</defs>
			<clipPath id="SVGID_00000030478492070270442920000003500874571750213260_">
				<use xlink:href="#SVGID_00000121237046561079020630000018387677506655419054_"  style="overflow:visible;"/>
			</clipPath>
			<path style="clip-path:url(#SVGID_00000030478492070270442920000003500874571750213260_);fill:#FFFFFF;" d="M100.6,54.5
				c-6.9,0-13.7,1.4-20.1,4.1c28.7-8.3,58.7,8.3,67,37.1c2.8,9.6,2.8,19.7,0.2,29.3c10.8-26-1.5-55.8-27.4-66.6
				C114,55.8,107.4,54.5,100.6,54.5L100.6,54.5z"/>
		</g>
	</g>
	<g>
		<g>
			<defs>
				<rect id="SVGID_00000105393445306045724700000015606534530527963546_" x="0.2" y="0.7" width="195.6" height="280.6"/>
			</defs>
			<clipPath id="SVGID_00000106849173885873675890000002285898498965877176_">
				<use xlink:href="#SVGID_00000105393445306045724700000015606534530527963546_"  style="overflow:visible;"/>
			</clipPath>
			<path style="clip-path:url(#SVGID_00000106849173885873675890000002285898498965877176_);fill:#1A1A1A;" d="M100.6,49
				c-31.2,0-56.5,25.3-56.5,56.5S69.4,162,100.6,162s56.5-25.3,56.5-56.5S131.8,49,100.6,49z M100.6,50.7
				c30.3,0,54.9,24.6,54.9,54.8s-24.6,54.9-54.8,54.9s-54.9-24.6-54.9-54.8l0,0C45.7,75.2,70.2,50.7,100.6,50.7
				C100.6,50.6,100.6,50.6,100.6,50.7L100.6,50.7z"/>
		</g>
	</g>
	<g>
		<g>
			<defs>
				<rect id="SVGID_00000031192246117870606450000000216449327604583600_" x="0.2" y="0.7" width="195.6" height="280.6"/>
			</defs>
			<clipPath id="SVGID_00000069360518197869892910000008784720649986760871_">
				<use xlink:href="#SVGID_00000031192246117870606450000000216449327604583600_"  style="overflow:visible;"/>
			</clipPath>
			<path style="clip-path:url(#SVGID_00000069360518197869892910000008784720649986760871_);fill:#FFFFFF;" d="M85.6,138.9
				c-2.2,0-4.1-1.8-4.1-4l0,0v-4.6c0-13,10.6-23.6,23.6-23.6s23.5,10.5,23.6,23.6v4.6c0,2.2-1.8,4.1-4,4.1l0,0H85.6V138.9z"/>
		</g>
	</g>
	<g>
		<g>
			<defs>
				<rect id="SVGID_00000061469352089226220380000010094768149287245471_" x="0.2" y="0.7" width="195.6" height="280.6"/>
			</defs>
			<clipPath id="SVGID_00000114763486952043391360000017793814763999063943_">
				<use xlink:href="#SVGID_00000061469352089226220380000010094768149287245471_"  style="overflow:visible;"/>
			</clipPath>
			<path style="clip-path:url(#SVGID_00000114763486952043391360000017793814763999063943_);fill:#BADBE9;" d="M85.6,138.9
				c-2.2,0-4.1-1.8-4.1-4l0,0v-4.6c0-11,7.6-20.6,18.4-23c0,0-4.4,9,0.6,16.8c-4,7.1,0,14.8,0,14.8H85.6L85.6,138.9z"/>
		</g>
	</g>
	<g>
		<g>
			<defs>
				<rect id="SVGID_00000134247263480564366240000018379721335814874768_" x="0.2" y="0.7" width="195.6" height="280.6"/>
			</defs>
			<clipPath id="SVGID_00000079460988867063836740000008352778425649179318_">
				<use xlink:href="#SVGID_00000134247263480564366240000018379721335814874768_"  style="overflow:visible;"/>
			</clipPath>
			<path style="clip-path:url(#SVGID_00000079460988867063836740000008352778425649179318_);fill:#1A1A1A;" d="M85.6,138.9
				c-2.2,0-4.1-1.8-4.1-4l0,0v-4.6c0-6.3,2.5-12.4,7-16.8c0,0-4.9,9.7,0.4,14.6c-4.6,5.6,0,10.9,0,10.9L85.6,138.9L85.6,138.9z"/>
		</g>
	</g>
	<g>
		<g>
			<defs>
				<rect id="SVGID_00000021837695820717009300000009547661836662142096_" x="0.2" y="0.7" width="195.6" height="280.6"/>
			</defs>
			<clipPath id="SVGID_00000079482911806317062570000016736324593966403221_">
				<use xlink:href="#SVGID_00000021837695820717009300000009547661836662142096_"  style="overflow:visible;"/>
			</clipPath>
			<path style="clip-path:url(#SVGID_00000079482911806317062570000016736324593966403221_);fill:#1A1A1A;" d="M124.6,138.9
				c2.2,0,4.1-1.8,4.1-4l0,0v-4.6c0-6.3-2.5-12.4-7-16.8c0,0,4.9,9.7-0.4,14.6c4.6,5.6,0,10.9,0,10.9L124.6,138.9L124.6,138.9z"/>
		</g>
	</g>
	<g>
		<g>
			<defs>
				<rect id="SVGID_00000012447238917691512750000007142151977392360866_" x="0.2" y="0.7" width="195.6" height="280.6"/>
			</defs>
			<clipPath id="SVGID_00000017485430375391969330000000580776638890669723_">
				<use xlink:href="#SVGID_00000012447238917691512750000007142151977392360866_"  style="overflow:visible;"/>
			</clipPath>
			<path style="clip-path:url(#SVGID_00000017485430375391969330000000580776638890669723_);fill:#1A1A1A;" d="M105.1,105.8
				c-13.5,0-24.4,10.9-24.4,24.4v4.6c0,2.7,2.2,4.9,4.9,4.9h39c2.7,0,4.9-2.2,4.9-4.9v-4.6C129.5,116.7,118.6,105.8,105.1,105.8
				L105.1,105.8z M105.1,107.5c12.5,0,22.7,10.1,22.7,22.7l0,0v4.6c0,1.8-1.4,3.2-3.2,3.2c0,0,0,0-0.1,0h-39c-1.8,0-3.2-1.4-3.2-3.2
				c0,0,0,0,0-0.1v-4.6C82.3,117.7,92.5,107.5,105.1,107.5C105,107.5,105,107.5,105.1,107.5L105.1,107.5z"/>
		</g>
	</g>
	<g>
		<g>
			<defs>
				<rect id="SVGID_00000096056569341349203030000004398216977436806796_" x="0.2" y="0.7" width="195.6" height="280.6"/>
			</defs>
			<clipPath id="SVGID_00000142874640318616973750000007873036528121591682_">
				<use xlink:href="#SVGID_00000096056569341349203030000004398216977436806796_"  style="overflow:visible;"/>
			</clipPath>
			<path style="clip-path:url(#SVGID_00000142874640318616973750000007873036528121591682_);fill:#1A1A1A;" d="M123,84.5
				c4.8,0,8.7,3.9,8.7,8.6c0,0,0,0,0,0.1v4.3c-0.2,4.8-4.2,8.5-9,8.4c-4.6-0.2-8.2-3.8-8.4-8.4v-4.3C114.3,88.4,118.2,84.5,123,84.5
				L123,84.5z"/>
		</g>
	</g>
	<g>
		<g>
			<defs>
				<rect id="SVGID_00000040571074686748036670000004358406726768255901_" x="0.2" y="0.7" width="195.6" height="280.6"/>
			</defs>
			<clipPath id="SVGID_00000090265341081096464880000005778118986618865043_">
				<use xlink:href="#SVGID_00000040571074686748036670000004358406726768255901_"  style="overflow:visible;"/>
			</clipPath>
			<path style="clip-path:url(#SVGID_00000090265341081096464880000005778118986618865043_);fill:#FFFFFF;" d="M117.9,90.7
				c0-1.5,1.3-2.8,2.8-2.8s2.8,1.3,2.8,2.8s-1.3,2.8-2.8,2.8c-0.7,0-1.4-0.3-2-0.8C118.2,92.2,117.9,91.5,117.9,90.7z"/>
		</g>
	</g>
	<g>
		<g>
			<defs>
				<rect id="SVGID_00000163056391498261020610000001148006231312911801_" x="0.2" y="0.7" width="195.6" height="280.6"/>
			</defs>
			<clipPath id="SVGID_00000012437607769538662980000005092950661593371804_">
				<use xlink:href="#SVGID_00000163056391498261020610000001148006231312911801_"  style="overflow:visible;"/>
			</clipPath>
			<path style="clip-path:url(#SVGID_00000012437607769538662980000005092950661593371804_);fill:#1A1A1A;" d="M87.2,84.5
				c-4.8,0-8.7,3.9-8.7,8.6l0,0v7.2h17.3v-7.2C95.9,88.4,92,84.5,87.2,84.5L87.2,84.5z"/>
		</g>
	</g>
	<g>
		<g>
			<defs>
				<rect id="SVGID_00000005260595698099128330000000551388229499028098_" x="0.2" y="0.7" width="195.6" height="280.6"/>
			</defs>
			<clipPath id="SVGID_00000151501384095553803690000002066839997517790135_">
				<use xlink:href="#SVGID_00000005260595698099128330000000551388229499028098_"  style="overflow:visible;"/>
			</clipPath>
			<path style="clip-path:url(#SVGID_00000151501384095553803690000002066839997517790135_);fill:#FFFFFF;" d="M82.1,90.7
				c0-1.5,1.3-2.8,2.8-2.8s2.8,1.3,2.8,2.8s-1.3,2.8-2.8,2.8S82.1,92.3,82.1,90.7z"/>
		</g>
	</g>
	<g>
		<g>
			<defs>
				<rect id="SVGID_00000147197438893788881200000012077397020871412127_" x="0.2" y="0.7" width="195.6" height="280.6"/>
			</defs>
			<clipPath id="SVGID_00000013161461552588577330000001120491197530616977_">
				<use xlink:href="#SVGID_00000147197438893788881200000012077397020871412127_"  style="overflow:visible;"/>
			</clipPath>
			<path style="clip-path:url(#SVGID_00000013161461552588577330000001120491197530616977_);fill:#1A1A1A;" d="M24.9,161.5
				c-3.8,3.4-4.2,9.3-0.8,13.1c1.7,1.9,4.1,3,6.6,3.1c-0.2,2.1,0.4,4.2,1.5,6c2.8,4.3,8.6,5.4,12.9,2.6c3.4-2.3,4.9-6.5,3.7-10.4
				c3.2-5.2,1.5-12.1-3.7-15.3c-3.1-1.9-7-2.1-10.3-0.7c-2.9-1.3-6.3-1-8.9,0.8l0,0C25.6,161,25.2,161.3,24.9,161.5L24.9,161.5z
				 M28.2,165.3c0.1-0.1,0.3-0.2,0.4-0.3l0,0c1.3-0.9,3.1-1,4.5-0.2l1.2,1.3l1.8-1.1c2.8-1.8,6.6-0.9,8.4,1.9c1.4,2.2,1.2,5-0.4,7.1
				l-1,1.2l0.7,1.5c1,2.1,0.2,4.7-1.9,5.7s-4.7,0.2-5.7-1.9c-0.5-1-0.6-2.2-0.2-3.2l0.5-1.5l-1.2-1.1c-0.3-0.3-0.6-0.6-0.8-0.9
				l-0.9-1.3l-1.6,0.3c-2.3,0.4-4.5-1.1-5-3.4C26.6,167.8,27.2,166.3,28.2,165.3L28.2,165.3z"/>
		</g>
	</g>
	<g>
		<g>
			<defs>
				<rect id="SVGID_00000050630641439007502820000006670240470935859123_" x="0.2" y="0.7" width="195.6" height="280.6"/>
			</defs>
			<clipPath id="SVGID_00000124880918465156118660000015434312999567659430_">
				<use xlink:href="#SVGID_00000050630641439007502820000006670240470935859123_"  style="overflow:visible;"/>
			</clipPath>
			<path style="clip-path:url(#SVGID_00000124880918465156118660000015434312999567659430_);fill:#1A1A1A;" d="M21.2,183.6
				c3.2,5.2,10,6.9,15.3,3.7c2.2-1.4,3.9-3.5,4.7-6l-4.8-1.6c-1.1,3.2-4.5,4.9-7.7,3.8s-4.9-4.5-3.8-7.7c0.7-2,2.4-3.6,4.5-4l-1-4.9
				c-6,1.2-9.9,7.1-8.7,13.1C20,181.2,20.5,182.5,21.2,183.6L21.2,183.6z"/>
		</g>
	</g>
	<g>
		<g>
			<defs>
				<rect id="SVGID_00000066479883130655787180000004838217701408805517_" x="0.2" y="0.7" width="195.6" height="280.6"/>
			</defs>
			<clipPath id="SVGID_00000111153454242350121300000005398643146739500679_">
				<use xlink:href="#SVGID_00000066479883130655787180000004838217701408805517_"  style="overflow:visible;"/>
			</clipPath>
			<path style="clip-path:url(#SVGID_00000111153454242350121300000005398643146739500679_);fill:#1A1A1A;" d="M30.5,169.9
				c-2.6,2.1-3,6-0.8,8.6c2.1,2.6,6,3,8.6,0.8c0.1-0.1,0.2-0.2,0.3-0.3l16-14.1c2.5-2.2,2.8-6.1,0.5-8.6s-6.1-2.8-8.6-0.5
				L30.5,169.9z M49.8,159.5c0.4-0.4,1.1-0.4,1.5,0s0.4,1.1,0,1.5l-0.1,0.1l-16,14.1c-0.4,0.4-1,0.4-1.4,0l-0.1-0.1
				c-0.4-0.4-0.4-1,0-1.4l0.1-0.1L49.8,159.5L49.8,159.5z"/>
		</g>
	</g>
	<g>
		<g>
			<defs>
				<rect id="SVGID_00000181077005579969994480000014944530356493028740_" x="0.2" y="0.7" width="195.6" height="280.6"/>
			</defs>
			<clipPath id="SVGID_00000121277724215951638930000005730219739599169213_">
				<use xlink:href="#SVGID_00000181077005579969994480000014944530356493028740_"  style="overflow:visible;"/>
			</clipPath>
			<path style="clip-path:url(#SVGID_00000121277724215951638930000005730219739599169213_);fill:#777E69;" d="M43.7,184.2
				c-3.1,2.1-7.3,1.2-9.4-1.9c-2.1-3.1-1.2-7.3,1.9-9.4c3.1-2.1,7.3-1.2,9.4,1.8C47.7,177.9,46.8,182.1,43.7,184.2L43.7,184.2z"/>
		</g>
	</g>
	<g>
		<g>
			<defs>
				<rect id="SVGID_00000097461289682676596860000016174807664931409551_" x="0.2" y="0.7" width="195.6" height="280.6"/>
			</defs>
			<clipPath id="SVGID_00000104704270137161358980000015057834856698897596_">
				<use xlink:href="#SVGID_00000097461289682676596860000016174807664931409551_"  style="overflow:visible;"/>
			</clipPath>
			<path style="clip-path:url(#SVGID_00000104704270137161358980000015057834856698897596_);fill:#777E69;" d="M44.2,177.3
				c-3.9,2.6-9.3,1.6-11.9-2.3s-1.6-9.3,2.3-11.9c3.9-2.6,9.3-1.6,11.9,2.3C49.1,169.3,48.1,174.6,44.2,177.3L44.2,177.3L44.2,177.3
				z"/>
		</g>
	</g>
	<g>
		<g>
			<defs>
				<rect id="SVGID_00000055673272160599574190000001265743036219390604_" x="0.2" y="0.7" width="195.6" height="280.6"/>
			</defs>
			<clipPath id="SVGID_00000080923652324416996380000011361333960453719710_">
				<use xlink:href="#SVGID_00000055673272160599574190000001265743036219390604_"  style="overflow:visible;"/>
			</clipPath>
			<path style="clip-path:url(#SVGID_00000080923652324416996380000011361333960453719710_);fill:#777E69;" d="M34.8,174.1
				c-3.1,2.1-7.3,1.2-9.4-1.9s-1.2-7.3,1.9-9.4c1.5-1,3.3-1.4,5-1c3.7,0.7,6.1,4.3,5.3,8C37.3,171.5,36.3,173.1,34.8,174.1z"/>
		</g>
	</g>
	<g>
		<g>
			<defs>
				<rect id="SVGID_00000160183006698829295840000018246033296599719860_" x="0.2" y="0.7" width="195.6" height="280.6"/>
			</defs>
			<clipPath id="SVGID_00000115486620544524670470000000275976945651443356_">
				<use xlink:href="#SVGID_00000160183006698829295840000018246033296599719860_"  style="overflow:visible;"/>
			</clipPath>
			<path style="clip-path:url(#SVGID_00000115486620544524670470000000275976945651443356_);fill:#9FA98D;" d="M32.8,169.9
				c-0.7,0.4-1.5,0.6-2.2,0.4c-0.8-0.1-1.4-0.6-1.9-1.2c-0.9-1.4-0.6-3.2,0.8-4.2c1.4-0.9,3.2-0.6,4.2,0.8
				C34.6,167,34.2,168.9,32.8,169.9C32.8,169.8,32.8,169.8,32.8,169.9z"/>
		</g>
	</g>
	<g>
		<g>
			<defs>
				<rect id="SVGID_00000101100534812902928510000002387977004695515524_" x="0.2" y="0.7" width="195.6" height="280.6"/>
			</defs>
			<clipPath id="SVGID_00000088832242359120301850000011991269709740168619_">
				<use xlink:href="#SVGID_00000101100534812902928510000002387977004695515524_"  style="overflow:visible;"/>
			</clipPath>
			<path style="clip-path:url(#SVGID_00000088832242359120301850000011991269709740168619_);fill:#9FA98D;" d="M41.4,167.3
				c-0.7,0.4-1.4,0.6-2.2,0.4c-0.8-0.2-1.5-0.6-1.9-1.3s-0.6-1.5-0.5-2.2c0.2-0.8,0.6-1.4,1.3-1.9c1.2-1.1,3.1-1,4.2,0.2
				c1.1,1.2,1,3.1-0.2,4.2C41.9,167,41.7,167.2,41.4,167.3z"/>
		</g>
	</g>
	<g>
		<g>
			<defs>
				<rect id="SVGID_00000163047682771839819670000009479789905754534293_" x="0.2" y="0.7" width="195.6" height="280.6"/>
			</defs>
			<clipPath id="SVGID_00000060726692117194522360000003740005016101062806_">
				<use xlink:href="#SVGID_00000163047682771839819670000009479789905754534293_"  style="overflow:visible;"/>
			</clipPath>
			<path style="clip-path:url(#SVGID_00000060726692117194522360000003740005016101062806_);fill:#1A1A1A;" d="M26.1,162.8
				c-3.1,2.7-3.5,7.5-0.8,10.6c1.7,1.9,4.2,2.9,6.7,2.5c0.2,0.3,0.4,0.5,0.6,0.7c-1,4,1.4,8.1,5.4,9.2s8.1-1.4,9.2-5.4
				c0.4-1.6,0.3-3.3-0.3-4.8c3.1-4.2,2.2-10-2-13.1c-2.9-2.2-6.9-2.4-10.1-0.6c-2.5-1.4-5.6-1.3-8,0.3
				C26.5,162.5,26.3,162.7,26.1,162.8L26.1,162.8z M27.1,164c0.2-0.2,0.4-0.3,0.6-0.5c2-1.3,4.6-1.3,6.7,0l0.4,0.3l0.4-0.3
				c3.7-2.3,8.5-1.2,10.8,2.5c1.8,2.8,1.6,6.5-0.6,9.1l-0.3,0.4l0.2,0.4c1.5,3,0.3,6.6-2.7,8s-6.6,0.3-8-2.7
				c-0.7-1.4-0.8-3.1-0.3-4.6l0.2-0.5l-0.4-0.3c-0.4-0.4-0.7-0.8-1-1.2l-0.3-0.4l-0.5,0.1c-3.3,0.6-6.4-1.5-7-4.8
				C24.8,167.5,25.5,165.4,27.1,164L27.1,164z"/>
		</g>
	</g>
	<g>
		<g>
			<defs>
				<rect id="SVGID_00000049203385016754277130000004054797767845666956_" x="0.2" y="0.7" width="195.6" height="280.6"/>
			</defs>
			<clipPath id="SVGID_00000024718619543892475030000016763209530749952406_">
				<use xlink:href="#SVGID_00000049203385016754277130000004054797767845666956_"  style="overflow:visible;"/>
			</clipPath>
			<path style="clip-path:url(#SVGID_00000024718619543892475030000016763209530749952406_);fill:#9FA98D;" d="M48.2,157.6
				c1.5-1.3,3.8-1.1,5.1,0.5c1.2,1.5,1.1,3.6-0.3,4.9l-16,14.1c-1.5,1.3-3.7,1.2-5.1-0.3s-1.2-3.7,0.3-5.1L48.2,157.6L48.2,157.6z"
				/>
		</g>
	</g>
	<g>
		<g>
			<defs>
				<rect id="SVGID_00000030455035551769063150000000895726455862079410_" x="0.2" y="0.7" width="195.6" height="280.6"/>
			</defs>
			<clipPath id="SVGID_00000132046983472642281930000011349998381108202897_">
				<use xlink:href="#SVGID_00000030455035551769063150000000895726455862079410_"  style="overflow:visible;"/>
			</clipPath>
			<path style="clip-path:url(#SVGID_00000132046983472642281930000011349998381108202897_);fill:#777E69;" d="M32.4,177.3
				c1.4,1,3.2,0.9,4.5-0.2l16-14.1c1.3-1.1,1.6-3,0.8-4.4L32.4,177.3z"/>
		</g>
	</g>
	<g>
		<g>
			<defs>
				<rect id="SVGID_00000178896268592120270530000009437657518047507088_" x="0.2" y="0.7" width="195.6" height="280.6"/>
			</defs>
			<clipPath id="SVGID_00000046319466567875544000000008348206586450626748_">
				<use xlink:href="#SVGID_00000178896268592120270530000009437657518047507088_"  style="overflow:visible;"/>
			</clipPath>
			<path style="clip-path:url(#SVGID_00000046319466567875544000000008348206586450626748_);fill:#1A1A1A;" d="M31.7,171.3
				c-1.7,1.5-1.9,4.2-0.4,5.9c1.5,1.7,4.2,1.9,5.9,0.4l0,0l16-14.1c1.7-1.5,1.9-4.2,0.4-5.9s-4.2-1.9-5.9-0.4L31.7,171.3z
				 M48.6,158.1c1-1.3,2.9-1.5,4.2-0.5s1.5,2.9,0.5,4.2c-0.2,0.3-0.5,0.5-0.8,0.7l-16,14.1c-1.4,0.9-3.3,0.4-4.1-1
				c-0.7-1.1-0.6-2.4,0.2-3.4L48.6,158.1z"/>
		</g>
	</g>
	<g>
		<g>
			<defs>
				<rect id="SVGID_00000147929213324868876050000017087736932892576689_" x="0.2" y="0.7" width="195.6" height="280.6"/>
			</defs>
			<clipPath id="SVGID_00000159448977354114065390000006543613753722053535_">
				<use xlink:href="#SVGID_00000147929213324868876050000017087736932892576689_"  style="overflow:visible;"/>
			</clipPath>
			<path style="clip-path:url(#SVGID_00000159448977354114065390000006543613753722053535_);fill:#777E69;" d="M35.5,184.9
				c-3.9,2.6-9.3,1.6-11.9-2.3s-1.6-9.3,2.3-11.9c3.9-2.6,9.3-1.6,11.9,2.3c1.3,1.9,1.7,4.2,1.3,6.4
				C38.7,181.6,37.4,183.6,35.5,184.9z"/>
		</g>
	</g>
	<g>
		<g>
			<defs>
				<rect id="SVGID_00000021077906089050788810000013453463423958812817_" x="0.2" y="0.7" width="195.6" height="280.6"/>
			</defs>
			<clipPath id="SVGID_00000130616654309107320130000017537653339115019673_">
				<use xlink:href="#SVGID_00000021077906089050788810000013453463423958812817_"  style="overflow:visible;"/>
			</clipPath>
			<path style="clip-path:url(#SVGID_00000130616654309107320130000017537653339115019673_);fill:#9FA98D;" d="M34.5,180.7
				c-3,2-7,1.2-9-1.8s-1.2-7,1.8-9s7-1.2,9,1.8l0,0C38.2,174.7,37.5,178.7,34.5,180.7z"/>
		</g>
	</g>
	<g>
		<g>
			<defs>
				<rect id="SVGID_00000095341106960833035970000001853509789965264519_" x="0.2" y="0.7" width="195.6" height="280.6"/>
			</defs>
			<clipPath id="SVGID_00000150069918006947353290000005201041986936025236_">
				<use xlink:href="#SVGID_00000095341106960833035970000001853509789965264519_"  style="overflow:visible;"/>
			</clipPath>
			<path style="clip-path:url(#SVGID_00000150069918006947353290000005201041986936025236_);fill:#1A1A1A;" d="M22.9,182.6
				c2.7,4.3,8.3,5.7,12.7,3c1.8-1.1,3.2-2.9,3.9-4.9l-1.2-0.4c-1.3,4.2-5.9,6.5-10.1,5.2s-6.5-5.9-5.2-10.1c0.9-2.8,3.2-4.9,6.1-5.4
				l-0.2-1.2c-5,1-8.2,5.9-7.2,10.9C21.9,180.7,22.3,181.7,22.9,182.6L22.9,182.6z"/>
		</g>
	</g>
	<g>
		<g>
			<defs>
				<rect id="SVGID_00000150790299390384657700000009679938751013040561_" x="0.2" y="0.7" width="195.6" height="280.6"/>
			</defs>
			<clipPath id="SVGID_00000133524121887307889080000011843803231594997398_">
				<use xlink:href="#SVGID_00000150790299390384657700000009679938751013040561_"  style="overflow:visible;"/>
			</clipPath>
			<path style="clip-path:url(#SVGID_00000133524121887307889080000011843803231594997398_);fill:#1A1A1A;" d="M32.2,169.9
				c3.5,0.7,6.2,3.7,6.4,7.3l1.3-0.1c-0.3-4.2-3.3-7.6-7.4-8.4L32.2,169.9z"/>
		</g>
	</g>
	<g>
		<g>
			<defs>
				<rect id="SVGID_00000080180656118827647860000012480377227767333512_" x="0.2" y="0.7" width="195.6" height="280.6"/>
			</defs>
			<clipPath id="SVGID_00000160187718983707363060000009647333031473614759_">
				<use xlink:href="#SVGID_00000080180656118827647860000012480377227767333512_"  style="overflow:visible;"/>
			</clipPath>
			<path style="clip-path:url(#SVGID_00000160187718983707363060000009647333031473614759_);fill:#1A1A1A;" d="M102.3,21.3
				c-2.2,0-13.9-0.4-23.7,3.9c-3.8,1.7-7.7,5.2-8,10.6c-0.2,7-1.1,14-2.5,20.9c-0.6,3.3,0,6.2,1.8,8.2c1.8,1.7,4.1,2.8,6.5,3
				c8.6,0.9,17.3,1.4,26,1.5c8.7,0,17.3-0.5,25.9-1.5c2.5-0.2,4.8-1.3,6.5-3c1.8-1.9,2.4-4.9,1.8-8.2c-1.4-6.9-2.3-13.9-2.5-20.9
				c-0.3-5.5-4.2-9-8-10.6C116.3,20.9,104.5,21.3,102.3,21.3L102.3,21.3z M102.3,26.9c2.6,0,13.3-0.1,21.5,3.5
				c2.8,1.2,4.5,2.6,4.6,5.8c0.3,7.3,1.1,14.6,2.6,21.7c0.4,2.2,0.1,2.8-0.4,3.3c-0.9,0.7-2,1.1-3.2,1.2c-6.2,0.9-19.6,1.4-25.2,1.4
				S83.3,63.2,77,62.4c-1.2-0.1-2.3-0.5-3.2-1.2c-0.4-0.5-0.8-1.1-0.4-3.3c1.5-7.2,2.3-14.4,2.6-21.7c0.2-3.2,1.8-4.6,4.7-5.8
				C89,26.8,99.8,26.9,102.3,26.9L102.3,26.9z"/>
		</g>
	</g>
	<g>
		<g>
			<defs>
				<rect id="SVGID_00000116915987835456821600000011194371314302070657_" x="0.2" y="0.7" width="195.6" height="280.6"/>
			</defs>
			<clipPath id="SVGID_00000171690359801172564520000004148357431832914839_">
				<use xlink:href="#SVGID_00000116915987835456821600000011194371314302070657_"  style="overflow:visible;"/>
			</clipPath>
			<path style="clip-path:url(#SVGID_00000171690359801172564520000004148357431832914839_);fill:#1A1A1A;" d="M115.2,13.7
				c-3.3-0.2-6.3,1.5-8,4.3l-2.8,4.9l4.8,2.8l2.8-4.9c0.9-1.6,3.3-2.1,5.9-0.6c5,3,8.4,5.3,13.9,9.1c2.2,1.4,3.7,3.6,4.2,6.1
				c0.5,4,1.1,9.5,1.2,14.5s-0.3,9.8-1,11.5c-0.3,1-1,1.8-1.9,2.2s-1.8,0.5-2.7,0.4c-1.4-0.1-2.7-0.5-4-1l-2.4,5
				c1.9,0.9,4,1.4,6.1,1.6c1.9,0.2,3.8-0.2,5.6-1c2.1-1.1,3.8-2.9,4.6-5.1c1.5-3.6,1.6-8.5,1.4-13.8s-0.7-10.9-1.2-15.1
				c-0.7-4.1-3-7.7-6.4-9.9c-5.5-3.9-9.1-6.3-14.2-9.4C119.2,14.3,117.2,13.7,115.2,13.7L115.2,13.7z"/>
		</g>
	</g>
	<g>
		<g>
			<defs>
				<rect id="SVGID_00000026141353348868164160000002111514221069915046_" x="0.2" y="0.7" width="195.6" height="280.6"/>
			</defs>
			<clipPath id="SVGID_00000071517989982554884820000011602210449841572266_">
				<use xlink:href="#SVGID_00000026141353348868164160000002111514221069915046_"  style="overflow:visible;"/>
			</clipPath>
			<path style="clip-path:url(#SVGID_00000071517989982554884820000011602210449841572266_);fill:#1A1A1A;" d="M89.5,13.7
				c-2,0-3.9,0.6-5.7,1.6c-5.1,3.1-8.7,5.5-14.2,9.4c-3.4,2.3-5.8,5.9-6.4,9.9c-0.5,4.2-1.1,9.8-1.2,15.1s-0.1,10.2,1.4,13.8
				c0.9,2.2,2.5,4,4.6,5.1c1.7,0.8,3.6,1.2,5.5,1c2.1-0.2,4.2-0.7,6.1-1.7l-2.4-5c-1.3,0.5-2.6,0.9-4,1c-0.9,0.1-1.9,0-2.7-0.4
				c-0.9-0.4-1.6-1.2-1.9-2.2c-0.7-1.7-1.1-6.4-1-11.5s0.7-10.5,1.2-14.5c0.5-2.5,2-4.7,4.1-6.1c5.4-3.9,8.8-6.1,13.9-9.1
				c2.6-1.5,5-1,5.9,0.6l2.8,4.9l4.8-2.8l-2.8-4.9C95.8,15.1,92.7,13.5,89.5,13.7L89.5,13.7z"/>
		</g>
	</g>
	<g>
		<g>
			<defs>
				<rect id="SVGID_00000079488182308889722750000012701501785858037669_" x="0.2" y="0.7" width="195.6" height="280.6"/>
			</defs>
			<clipPath id="SVGID_00000140718794640234134710000004203827055577435274_">
				<use xlink:href="#SVGID_00000079488182308889722750000012701501785858037669_"  style="overflow:visible;"/>
			</clipPath>
			<path style="clip-path:url(#SVGID_00000140718794640234134710000004203827055577435274_);fill:#1A1A1A;" d="M102.3,16.8
				c-1.7,0-11.3-0.4-19.4,4.1c-3.9,2.1-6.3,6.2-6.5,10.6l5.6,0.2c0.1-3.5,1.5-4.8,3.6-5.9c6.2-3.5,14.5-3.4,16.7-3.4
				s10.4-0.1,16.7,3.4c2.1,1.2,3.5,2.5,3.6,5.9l5.6-0.2c-0.1-4.4-2.6-8.5-6.5-10.6C113.7,16.4,104,16.8,102.3,16.8z"/>
		</g>
	</g>
	<g>
		<g>
			<defs>
				<rect id="SVGID_00000005954535824937633740000017115426941549227392_" x="0.2" y="0.7" width="195.6" height="280.6"/>
			</defs>
			<clipPath id="SVGID_00000010296924048206949150000017036877104896216481_">
				<use xlink:href="#SVGID_00000005954535824937633740000017115426941549227392_"  style="overflow:visible;"/>
			</clipPath>
			<path style="clip-path:url(#SVGID_00000010296924048206949150000017036877104896216481_);fill:#423D3D;" d="M125.4,31.6
				c0-3.5-1.9-6.7-5-8.3c-7.2-4-16.1-3.7-18-3.7s-10.9-0.3-18,3.7c-3.1,1.6-5,4.8-5,8.3C79.4,31.6,125.4,31.6,125.4,31.6z"/>
		</g>
	</g>
	<g>
		<g>
			<defs>
				<rect id="SVGID_00000034085423174933418420000015965476746647079572_" x="0.2" y="0.7" width="195.6" height="280.6"/>
			</defs>
			<clipPath id="SVGID_00000064333807861281300040000001247157330044218007_">
				<use xlink:href="#SVGID_00000034085423174933418420000015965476746647079572_"  style="overflow:visible;"/>
			</clipPath>
			<path style="clip-path:url(#SVGID_00000064333807861281300040000001247157330044218007_);fill:#1A1A1A;" d="M102.3,18.9
				c-1.8,0-11-0.3-18.4,3.8c-3.3,1.7-5.4,5.1-5.4,8.9l1.4,0.1c0-3.2,1.8-6.2,4.7-7.6c6.9-3.9,15.7-3.6,17.7-3.6s10.8-0.3,17.6,3.6
				c2.9,1.4,4.7,4.4,4.7,7.6l1.4-0.1c0-3.7-2.1-7.1-5.4-8.9C113.3,18.6,104.2,18.9,102.3,18.9L102.3,18.9z"/>
		</g>
	</g>
	<g>
		<g>
			<defs>
				<rect id="SVGID_00000046340515248565541070000007709450223200474500_" x="0.2" y="0.7" width="195.6" height="280.6"/>
			</defs>
			<clipPath id="SVGID_00000115513696994810928780000015860962184678960063_">
				<use xlink:href="#SVGID_00000046340515248565541070000007709450223200474500_"  style="overflow:visible;"/>
			</clipPath>
			<path style="clip-path:url(#SVGID_00000115513696994810928780000015860962184678960063_);fill:#5A5252;" d="M106.9,24.2l2.8-4.8
				c1.8-3.2,6.1-3.8,9.8-1.6c5.1,3,8.6,5.4,14,9.3c2.8,1.8,4.7,4.7,5.3,8c1,8.2,2.2,22.1,0,27.4c-3.1,7.6-12.4,3-12.4,3L106.9,24.2z
				"/>
		</g>
	</g>
	<g>
		<g>
			<defs>
				<rect id="SVGID_00000118382637440126928420000007599607209284722326_" x="0.2" y="0.7" width="195.6" height="280.6"/>
			</defs>
			<clipPath id="SVGID_00000086692975694480687700000007125831388561061776_">
				<use xlink:href="#SVGID_00000118382637440126928420000007599607209284722326_"  style="overflow:visible;"/>
			</clipPath>
			<path style="clip-path:url(#SVGID_00000086692975694480687700000007125831388561061776_);fill:#7F6D6B;" d="M114.9,16.4
				c-0.9,0-1.7,0.2-2.5,0.5c1.2,0.2,2.4,0.6,3.5,1.3c5.2,3.3,8.8,5.8,14.4,10c2.9,2,4.8,5.1,5.4,8.6c1,8.6,2.2,23,0.2,29
				c1.4-0.8,2.4-2,2.9-3.5c2.2-5.3,1-19.2,0-27.4c-0.6-3.3-2.5-6.2-5.3-8c-5.5-3.9-9-6.2-14-9.3C118.1,16.8,116.5,16.4,114.9,16.4
				L114.9,16.4z"/>
		</g>
	</g>
	<g>
		<g>
			<defs>
				<rect id="SVGID_00000093152747886029348200000012253635837058715827_" x="0.2" y="0.7" width="195.6" height="280.6"/>
			</defs>
			<clipPath id="SVGID_00000114050644169970769750000012515933336782107312_">
				<use xlink:href="#SVGID_00000093152747886029348200000012253635837058715827_"  style="overflow:visible;"/>
			</clipPath>
			<path style="clip-path:url(#SVGID_00000114050644169970769750000012515933336782107312_);fill:#1A1A1A;" d="M115.2,15.5
				c-2.6-0.2-5,1.1-6.3,3.4l-2.8,4.8l1.6,0.9l2.8-4.9c1.5-2.6,5.2-3.2,8.5-1.3c5.1,3,8.5,5.3,14,9.2c2.6,1.7,4.3,4.3,4.9,7.4
				c0.5,4.1,1.1,9.6,1.2,14.7s-0.2,9.9-1.1,12.2c-0.5,1.4-1.5,2.5-2.8,3.2c-1.2,0.5-2.4,0.7-3.7,0.6c-1.6-0.1-3.2-0.6-4.7-1.2
				l-0.8,1.7c1.7,0.8,3.5,1.3,5.4,1.4c1.6,0.2,3.2-0.1,4.6-0.8c1.7-0.9,3-2.3,3.7-4.1c1.2-3,1.4-7.8,1.3-13s-0.7-10.8-1.2-14.9
				c-0.5-3.7-2.9-6.7-5.7-8.6c-5.5-3.9-9-6.2-14.1-9.3C118.5,16,116.9,15.6,115.2,15.5L115.2,15.5z"/>
		</g>
	</g>
	<g>
		<g>
			<defs>
				<rect id="SVGID_00000013893073432209035650000005434263229462179478_" x="0.2" y="0.7" width="195.6" height="280.6"/>
			</defs>
			<clipPath id="SVGID_00000006671230292949083430000016588342021927901058_">
				<use xlink:href="#SVGID_00000013893073432209035650000005434263229462179478_"  style="overflow:visible;"/>
			</clipPath>
			<path style="clip-path:url(#SVGID_00000006671230292949083430000016588342021927901058_);fill:#423D3D;" d="M97.8,24.2L95,19.3
				c-1.8-3.2-6.1-3.8-9.8-1.6c-5.1,3-8.6,5.4-14,9.3c-2.6,1.9-4.9,4.7-5.3,8c-1,8.2-2.2,22.1,0,27.4c3.1,7.6,12.4,3,12.4,3
				L97.8,24.2z"/>
		</g>
	</g>
	<g>
		<g>
			<defs>
				<rect id="SVGID_00000134221493782130288980000017017843121243767449_" x="0.2" y="0.7" width="195.6" height="280.6"/>
			</defs>
			<clipPath id="SVGID_00000125574854955330146600000013287995582132657581_">
				<use xlink:href="#SVGID_00000134221493782130288980000017017843121243767449_"  style="overflow:visible;"/>
			</clipPath>
			<path style="clip-path:url(#SVGID_00000125574854955330146600000013287995582132657581_);fill:#1A1A1A;" d="M89.5,15.5
				c-1.7,0.1-3.3,0.5-4.7,1.4c-5.1,3.1-8.6,5.4-14.1,9.3c-2.8,2-5.2,5-5.7,8.6c-0.5,4.1-1.1,9.7-1.2,14.9s0,10,1.3,13
				c0.7,1.8,2,3.3,3.7,4.1c1.4,0.7,3,0.9,4.6,0.8c1.9-0.2,3.7-0.6,5.4-1.4L78,64.6c-1.5,0.7-3.1,1.1-4.7,1.2
				c-1.3,0.1-2.5-0.1-3.7-0.6c-1.3-0.7-2.4-1.8-2.8-3.2c-1-2.3-1.3-7.1-1.1-12.2s0.7-10.6,1.2-14.7c0.6-3,2.3-5.7,4.9-7.4
				c5.5-3.9,8.9-6.2,14-9.2c3.3-2,7-1.4,8.5,1.3l2.8,4.9l1.6-0.9L95.9,19C94.5,16.6,92.1,15.4,89.5,15.5L89.5,15.5z"/>
		</g>
	</g>
	<g>
		<g>
			<defs>
				<rect id="SVGID_00000101067895531732805880000012723500708978688179_" x="0.2" y="0.7" width="195.6" height="280.6"/>
			</defs>
			<clipPath id="SVGID_00000065786886969537147760000006515001849870242999_">
				<use xlink:href="#SVGID_00000101067895531732805880000012723500708978688179_"  style="overflow:visible;"/>
			</clipPath>
			<path style="clip-path:url(#SVGID_00000065786886969537147760000006515001849870242999_);fill:#5A5252;" d="M125,27.8
				c-9-4-20.2-3.7-22.6-3.7s-13.6-0.3-22.6,3.7c-3.3,1.5-6.1,3.9-6.3,8.2c-0.3,7.2-1.1,14.3-2.6,21.3c-1.1,5.4,2,7.2,5.9,7.8
				c8.5,0.9,17,1.4,25.6,1.5c8.5-0.1,17.1-0.5,25.5-1.5c4-0.6,7-2.4,5.9-7.8c-1.5-7-2.3-14.2-2.6-21.3
				C131.1,31.7,128.3,29.3,125,27.8z"/>
		</g>
	</g>
	<g>
		<g>
			<defs>
				<rect id="SVGID_00000156567760936235136850000011360156419492322979_" x="0.2" y="0.7" width="195.6" height="280.6"/>
			</defs>
			<clipPath id="SVGID_00000078724836715006873970000004731013432528524459_">
				<use xlink:href="#SVGID_00000156567760936235136850000011360156419492322979_"  style="overflow:visible;"/>
			</clipPath>
			<path style="clip-path:url(#SVGID_00000078724836715006873970000004731013432528524459_);fill:#7F6D6B;" d="M111.7,24.5
				c2.4,2.3,3.8,5.5,3.8,8.8c0.2,9.2,1.1,18.4,2.6,27.6c0.3,1.7,0.3,3.5-0.1,5.2c3.3-0.2,6.4-0.5,8.9-0.8c0.3-1.6,0.3-3.3,0-4.9
				c-1.4-8.8-2.3-17.8-2.6-26.7c0-2.6-0.9-5-2.4-7.1C118.5,25.6,115.1,24.9,111.7,24.5L111.7,24.5z"/>
		</g>
	</g>
	<g>
		<g>
			<defs>
				<rect id="SVGID_00000164490076576263707860000000304144562910179006_" x="0.2" y="0.7" width="195.6" height="280.6"/>
			</defs>
			<clipPath id="SVGID_00000152976502967482619760000001219788501150316417_">
				<use xlink:href="#SVGID_00000164490076576263707860000000304144562910179006_"  style="overflow:visible;"/>
			</clipPath>
			<path style="clip-path:url(#SVGID_00000152976502967482619760000001219788501150316417_);fill:#423D3D;" d="M93,24.5
				c-4.5,0.4-9,1.5-13.2,3.3c-3.3,1.5-6.1,3.9-6.3,8.2c-0.3,7.2-1.1,14.3-2.6,21.3c-1.1,5.4,2,7.2,5.9,7.8c2.6,0.4,6.2,0.7,9.9,0.9
				c-0.4-1.7-0.4-3.5-0.1-5.2c1.4-9.1,2.3-18.3,2.5-27.6C89.2,30,90.6,26.8,93,24.5z"/>
		</g>
	</g>
	<g>
		<g>
			<defs>
				<rect id="SVGID_00000154398614588564308220000002952335589202704572_" x="0.2" y="0.7" width="195.6" height="280.6"/>
			</defs>
			<clipPath id="SVGID_00000069382089656528942230000009786283350664767143_">
				<use xlink:href="#SVGID_00000154398614588564308220000002952335589202704572_"  style="overflow:visible;"/>
			</clipPath>
			<path style="clip-path:url(#SVGID_00000069382089656528942230000009786283350664767143_);fill:#7F6D6B;" d="M103.6,24.1h-1.3
				c-2.4,0-13.6-0.3-22.6,3.7c-3.3,1.4-6,3.8-6.3,8.1c1.3-1.5,3-2.7,4.9-3.4c9.5-4,21.5-3.7,24-3.7s14.5-0.3,24,3.7
				c1.9,0.7,3.6,1.9,4.9,3.4c-0.3-4.3-3-6.6-6.3-8.1C117.1,24.4,107.5,24.1,103.6,24.1L103.6,24.1z"/>
		</g>
	</g>
	<g>
		<g>
			<defs>
				<rect id="SVGID_00000173121111765453997420000000667044436794217106_" x="0.2" y="0.7" width="195.6" height="280.6"/>
			</defs>
			<clipPath id="SVGID_00000160158087442241474030000015849956460918827179_">
				<use xlink:href="#SVGID_00000173121111765453997420000000667044436794217106_"  style="overflow:visible;"/>
			</clipPath>
			<path style="clip-path:url(#SVGID_00000160158087442241474030000015849956460918827179_);fill:#1A1A1A;" d="M102.3,23.2
				c-2.3,0-13.7-0.3-23,3.8c-3.5,1.5-6.6,4.3-6.9,9c-0.2,7.1-1.1,14.2-2.5,21.2c-0.6,2.9,0,5.1,1.3,6.5c1.5,1.4,3.4,2.2,5.4,2.4
				c8.5,0.9,17.1,1.4,25.7,1.5c8.6,0,17.1-0.5,25.6-1.5c2-0.1,3.9-1,5.4-2.4c1.4-1.4,1.9-3.6,1.3-6.5c-1.4-7-2.3-14.1-2.5-21.2
				c-0.2-4.7-3.4-7.5-6.9-9C116.1,22.9,104.7,23.2,102.3,23.2L102.3,23.2z M102.3,25c2.5,0,13.5-0.2,22.2,3.6
				c3.1,1.4,5.6,3.5,5.8,7.4c0.3,7.2,1.1,14.4,2.6,21.5c0.5,2.5,0,4-0.9,4.9c-1.2,1.1-2.7,1.7-4.3,1.8c-8.4,0.9-16.9,1.4-25.4,1.4
				c-8.5-0.1-17-0.5-25.4-1.4c-1.6-0.1-3.1-0.7-4.3-1.8c-0.9-1-1.3-2.4-0.8-4.9c1.5-7.1,2.3-14.3,2.6-21.5c0.2-4,2.6-6,5.8-7.4
				C88.8,24.8,99.9,25,102.3,25L102.3,25z"/>
		</g>
	</g>
	<g>
		<g>
			<defs>
				<rect id="SVGID_00000011749028791623404380000002962587735895568277_" x="0.2" y="0.7" width="195.6" height="280.6"/>
			</defs>
			<clipPath id="SVGID_00000139261510578287407620000003313691795506440844_">
				<use xlink:href="#SVGID_00000011749028791623404380000002962587735895568277_"  style="overflow:visible;"/>
			</clipPath>
			<path style="clip-path:url(#SVGID_00000139261510578287407620000003313691795506440844_);fill:#E83B54;" d="M97.6,50
				c-1-0.8,0.5-3.7,0.1-5s-3.4-2.7-3-4s3.7-0.7,4.8-1.5s1.6-4.1,2.8-4.1s1.8,3.3,2.8,4.1s4.4,0.2,4.8,1.5s-2.6,2.7-3,4
				s1.1,4.2,0.1,5s-3.4-1.6-4.7-1.6S98.7,50.8,97.6,50z"/>
		</g>
	</g>
	<g>
		<g>
			<defs>
				<rect id="SVGID_00000049213587294970649350000017486091235927199627_" x="0.2" y="0.7" width="195.6" height="280.6"/>
			</defs>
			<clipPath id="SVGID_00000170965528803090340290000000553468771978710418_">
				<use xlink:href="#SVGID_00000049213587294970649350000017486091235927199627_"  style="overflow:visible;"/>
			</clipPath>
			<path style="clip-path:url(#SVGID_00000170965528803090340290000000553468771978710418_);fill:#1A1A1A;" d="M102.3,35
				c-0.5,0-0.9,0.3-1.2,0.7c-0.3,0.4-0.5,0.8-0.7,1.3s-0.4,1-0.6,1.3c-0.1,0.3-0.3,0.6-0.6,0.8c-0.3,0.2-0.6,0.3-0.9,0.3
				c-0.4,0.1-1,0.1-1.5,0.2c-0.5,0-1,0.1-1.5,0.3c-0.5,0.1-0.8,0.5-1,0.9c-0.1,0.5,0,1,0.3,1.4s0.6,0.8,1,1.1s0.8,0.7,1.1,1
				c0.2,0.2,0.4,0.5,0.6,0.8c0.1,0.3,0.1,0.7,0,1c-0.1,0.4-0.2,0.9-0.3,1.5c-0.1,0.5-0.2,1-0.2,1.5c-0.1,0.8,0.4,1.5,1.2,1.6
				c0.3,0,0.6,0,0.8-0.1c0.5-0.2,0.9-0.4,1.4-0.6c0.4-0.3,0.9-0.5,1.3-0.7c0.5-0.4,1.3-0.4,1.8,0c0.4,0.2,0.8,0.5,1.3,0.7
				c0.4,0.3,0.9,0.5,1.4,0.6c0.7,0.3,1.5,0.1,1.9-0.6c0.1-0.3,0.2-0.5,0.1-0.8c0-0.5-0.1-1-0.2-1.5s-0.2-1-0.3-1.5
				c-0.1-0.3-0.1-0.7,0-1s0.3-0.6,0.6-0.8c0.3-0.3,0.7-0.7,1.1-1s0.7-0.7,1-1.1c0.3-0.4,0.4-0.9,0.3-1.4c-0.2-0.4-0.5-0.8-1-0.9
				c-0.5-0.2-1-0.2-1.5-0.3c-0.5,0-1-0.1-1.5-0.2c-0.3,0-0.6-0.1-0.9-0.3c-0.2-0.2-0.4-0.5-0.6-0.8c-0.2-0.4-0.4-0.9-0.6-1.3
				c-0.2-0.5-0.4-0.9-0.7-1.3c-0.3-0.4-0.7-0.7-1.2-0.7L102.3,35z M102.3,35.9c0.1,0,0.3,0.1,0.5,0.3c0.3,0.4,0.5,0.7,0.6,1.1
				c0.2,0.5,0.4,0.9,0.6,1.4c0.2,0.4,0.5,0.8,0.8,1.1c0.4,0.3,0.9,0.4,1.3,0.5c0.5,0.1,1,0.1,1.5,0.2c0.4,0,0.9,0.1,1.3,0.2
				c0.3,0.1,0.4,0.2,0.5,0.3s0,0.3-0.2,0.6c-0.3,0.3-0.6,0.7-0.9,0.9c-0.4,0.3-0.8,0.7-1.1,1c-0.8,0.6-1.1,1.6-0.8,2.6
				c0.1,0.5,0.2,1,0.3,1.5c0.1,0.4,0.1,0.8,0.2,1.3c0,0.3-0.1,0.5-0.2,0.6s-0.3,0.1-0.6,0c-0.4-0.1-0.8-0.3-1.2-0.5
				c-0.4-0.2-0.9-0.5-1.3-0.8c-0.4-0.2-0.9-0.4-1.3-0.4c-0.5,0-0.9,0.2-1.3,0.4s-0.9,0.5-1.3,0.8c-0.4,0.2-0.8,0.4-1.2,0.5
				c-0.3,0.1-0.5,0.1-0.6,0s-0.2-0.2-0.2-0.6c0-0.4,0.1-0.9,0.2-1.3c0.1-0.5,0.2-1,0.3-1.5c0.1-0.5,0.1-0.9,0-1.4
				c-0.2-0.4-0.5-0.8-0.8-1.2c-0.3-0.3-0.8-0.7-1.1-1c-0.3-0.3-0.6-0.6-0.9-0.9c-0.2-0.3-0.2-0.4-0.2-0.6s0.2-0.2,0.5-0.3
				c0.4-0.1,0.8-0.2,1.3-0.2c0.5-0.1,1-0.1,1.5-0.2c0.5,0,0.9-0.2,1.3-0.4c0.4-0.3,0.7-0.7,0.8-1.1c0.2-0.4,0.4-0.9,0.6-1.4
				c0.2-0.4,0.4-0.8,0.6-1.1C102.1,36.1,102.2,36,102.3,35.9L102.3,35.9z"/>
		</g>
	</g>
	<g>
		<g>
			<defs>
				<rect id="SVGID_00000180346594060768017870000004137331914908667310_" x="0.2" y="0.7" width="195.6" height="280.6"/>
			</defs>
			<clipPath id="SVGID_00000070110755821316896410000011373832551454874512_">
				<use xlink:href="#SVGID_00000180346594060768017870000004137331914908667310_"  style="overflow:visible;"/>
			</clipPath>
			<path style="clip-path:url(#SVGID_00000070110755821316896410000011373832551454874512_);fill:#423D3D;" d="M93.1,34.1
				c0-0.3,0.1-0.5,0.3-0.7c0.2-0.2,0.4-0.3,0.7-0.3c0.6,0,1,0.4,1,1s-0.4,1-1,1c-0.3,0-0.5-0.1-0.7-0.3
				C93.2,34.6,93.1,34.4,93.1,34.1L93.1,34.1z"/>
		</g>
	</g>
	<g>
		<g>
			<defs>
				<rect id="SVGID_00000031922235687904636930000016226470168108849794_" x="0.2" y="0.7" width="195.6" height="280.6"/>
			</defs>
			<clipPath id="SVGID_00000093178885867845449810000015996004164897574031_">
				<use xlink:href="#SVGID_00000031922235687904636930000016226470168108849794_"  style="overflow:visible;"/>
			</clipPath>
			<path style="clip-path:url(#SVGID_00000093178885867845449810000015996004164897574031_);fill:#423D3D;" d="M45,0H16H0v16
				c0,7,0,14,0,21c10.3,12.3,28.7,14,41,3.7c6.7-5.5,10.5-13.8,10.5-22.4C51.5,11.6,49.2,5.2,45,0z"/>
		</g>
	</g>
	<g>
		<g>
			<defs>
				<rect id="SVGID_00000090296657486632617350000008665325570595853968_" x="0.2" y="0.7" width="195.6" height="280.6"/>
			</defs>
			<clipPath id="SVGID_00000096764192155663412370000017824250799307444663_">
				<use xlink:href="#SVGID_00000090296657486632617350000008665325570595853968_"  style="overflow:visible;"/>
			</clipPath>
		</g>
	</g>
</g>
<g class="st68">
	<path class="st69" d="M63.2,214v33.5c0,3.8-0.1,6.5-0.4,8c-0.2,1.5-1,3.1-2.2,4.7s-2.8,2.8-4.8,3.7c-2,0.8-4.3,1.3-7,1.3
		c-3,0-5.6-0.5-7.9-1.5c-2.3-1-4-2.3-5.1-3.9s-1.8-3.3-2-5c-0.2-1.8-0.3-5.5-0.3-11.1V214h13v37.6c0,2.2,0.1,3.6,0.4,4.2
		c0.2,0.6,0.7,0.9,1.4,0.9c0.8,0,1.4-0.3,1.6-1c0.2-0.7,0.4-2.3,0.4-4.8v-37L63.2,214L63.2,214z"/>
	<path class="st69" d="M95.8,229.2H83.7v-3.7c0-1.7-0.2-2.8-0.5-3.3s-0.8-0.7-1.5-0.7c-0.8,0-1.4,0.3-1.8,1
		c-0.4,0.6-0.6,1.6-0.6,2.9c0,1.7,0.2,2.9,0.7,3.8c0.4,0.8,1.7,1.9,3.7,3.1c5.8,3.4,9.5,6.3,11,8.5s2.3,5.8,2.3,10.7
		c0,3.6-0.4,6.2-1.3,7.9c-0.8,1.7-2.5,3.1-4.8,4.3c-2.4,1.1-5.2,1.7-8.4,1.7c-3.5,0-6.5-0.7-8.9-2c-2.5-1.3-4.1-3-4.8-5
		c-0.8-2-1.1-4.9-1.1-8.7v-3.3h12.1v6.1c0,1.9,0.2,3.1,0.5,3.6s0.9,0.8,1.8,0.8s1.5-0.3,1.9-1c0.4-0.7,0.6-1.7,0.6-3
		c0-3-0.4-4.9-1.2-5.8c-0.8-0.9-2.9-2.4-6.1-4.6c-3.2-2.1-5.4-3.7-6.4-4.7c-1.1-1-1.9-2.3-2.6-4s-1-3.9-1-6.6c0-3.8,0.5-6.6,1.5-8.4
		c1-1.8,2.6-3.2,4.8-4.2c2.2-1,4.8-1.5,7.9-1.5c3.4,0,6.3,0.5,8.7,1.6s4,2.5,4.7,4.1s1.2,4.5,1.2,8.5v1.9H95.8z"/>
	<path class="st69" d="M128.7,229.2h-12.1v-3.7c0-1.7-0.2-2.8-0.5-3.3s-0.8-0.7-1.5-0.7c-0.8,0-1.4,0.3-1.8,1
		c-0.4,0.6-0.6,1.6-0.6,2.9c0,1.7,0.2,2.9,0.7,3.8c0.4,0.8,1.7,1.9,3.7,3.1c5.8,3.4,9.5,6.3,11,8.5s2.3,5.8,2.3,10.7
		c0,3.6-0.4,6.2-1.3,7.9c-0.8,1.7-2.5,3.1-4.8,4.3s-5.2,1.7-8.4,1.7c-3.5,0-6.5-0.7-8.9-2c-2.5-1.3-4.1-3-4.8-5
		c-0.8-2-1.1-4.9-1.1-8.7v-3.3h12.1v6.1c0,1.9,0.2,3.1,0.5,3.6s0.9,0.8,1.8,0.8s1.5-0.3,1.9-1c0.4-0.7,0.6-1.7,0.6-3
		c0-3-0.4-4.9-1.2-5.8c-0.8-0.9-2.9-2.4-6.1-4.6c-3.2-2.1-5.4-3.7-6.4-4.7c-1.1-1-1.9-2.3-2.6-4s-1-3.9-1-6.6c0-3.8,0.5-6.6,1.5-8.4
		s2.6-3.2,4.8-4.2c2.2-1,4.8-1.5,7.9-1.5c3.4,0,6.3,0.5,8.7,1.6c2.4,1.1,4,2.5,4.7,4.1s1.2,4.5,1.2,8.5v1.9H128.7z"/>
	<path class="st69" d="M133.8,214h9.2c6.2,0,10.3,0.2,12.5,0.7s4,1.7,5.3,3.6c1.4,2,2.1,5.1,2.1,9.3c0,3.9-0.5,6.5-1.5,7.9
		c-1,1.3-2.9,2.1-5.7,2.4c2.6,0.6,4.3,1.5,5.2,2.6s1.4,2.1,1.7,3c0.2,0.9,0.3,3.4,0.3,7.4v13.2h-12.1v-16.7c0-2.7-0.2-4.3-0.6-5
		s-1.5-1-3.3-1V264h-13L133.8,214L133.8,214z M146.9,222.6v11.2c1.5,0,2.5-0.2,3.1-0.6c0.6-0.4,0.9-1.7,0.9-3.9v-2.8
		c0-1.6-0.3-2.6-0.9-3.1C149.4,222.8,148.4,222.6,146.9,222.6z"/>
</g>
<g class="st68">
	<path class="st69" d="M37.7,194.1l-0.1,1.2c0.4-0.5,0.8-0.9,1.3-1.1c0.5-0.2,1-0.4,1.5-0.4c0.7,0,1.2,0.2,1.7,0.5s0.8,0.8,0.9,1.2
		c0.1,0.5,0.2,1.3,0.2,2.4v5.9c0,1.3-0.1,2.2-0.2,2.7c-0.2,0.5-0.5,1-0.9,1.3s-1,0.5-1.7,0.5c-0.5,0-1-0.1-1.5-0.4s-0.9-0.6-1.2-1.1
		v3.2h-4.3v-16h4.3V194.1z M38.9,198.2c0-0.9,0-1.4-0.1-1.6c-0.1-0.2-0.2-0.3-0.5-0.3s-0.5,0.1-0.5,0.3s-0.1,0.7-0.1,1.5v5.8
		c0,0.8,0,1.4,0.1,1.6c0.1,0.2,0.3,0.3,0.6,0.3s0.4-0.1,0.5-0.3s0.1-0.7,0.1-1.4L38.9,198.2L38.9,198.2z"/>
	<path class="st69" d="M54.3,199v3.4c0,1.3-0.1,2.2-0.2,2.8c-0.1,0.6-0.4,1.1-0.8,1.7s-1,0.9-1.6,1.1c-0.7,0.2-1.4,0.4-2.2,0.4
		c-0.9,0-1.7-0.1-2.4-0.3s-1.2-0.5-1.5-0.9s-0.6-0.9-0.8-1.5s-0.2-1.5-0.2-2.7v-3.6c0-1.3,0.1-2.3,0.4-3.1c0.3-0.7,0.8-1.3,1.5-1.8
		s1.7-0.7,2.8-0.7c1,0,1.8,0.1,2.5,0.4c0.7,0.3,1.2,0.7,1.6,1.1s0.6,0.9,0.8,1.4C54.2,197.3,54.3,198.1,54.3,199z M50,198
		c0-0.7,0-1.2-0.1-1.4s-0.2-0.3-0.5-0.3s-0.4,0.1-0.5,0.3s-0.1,0.6-0.1,1.4v6.3c0,0.7,0,1.1,0.1,1.3s0.3,0.3,0.5,0.3
		c0.3,0,0.4-0.1,0.5-0.3s0.1-0.6,0.1-1.2V198z"/>
	<path class="st69" d="M62.3,194.1v3.1l-3.2,8.1h3.2v2.8H55v-2.9l3.2-8.3h-2.9v-2.8L62.3,194.1L62.3,194.1z M60.1,190.4v2.8h-2.8
		v-2.8H60.1z"/>
	<path class="st69" d="M73,201.4h-5.5v3c0,0.6,0,1,0.1,1.2s0.3,0.3,0.5,0.3c0.3,0,0.5-0.1,0.7-0.4c0.1-0.2,0.2-0.7,0.2-1.4v-1.9h4v1
		c0,0.9-0.1,1.5-0.2,2s-0.4,1-0.8,1.5s-0.9,0.9-1.5,1.2s-1.4,0.4-2.3,0.4s-1.7-0.1-2.4-0.4c-0.7-0.3-1.2-0.6-1.6-1.1s-0.7-1-0.8-1.5
		s-0.2-1.3-0.2-2.4V199c0-1.2,0.2-2.2,0.5-2.9s0.9-1.3,1.6-1.6c0.8-0.4,1.6-0.6,2.6-0.6c1.2,0,2.2,0.2,3,0.7s1.3,1.1,1.6,1.8
		s0.5,1.8,0.5,3.2C73,199.6,73,201.4,73,201.4z M68.7,199.1v-1c0-0.7,0-1.2-0.1-1.4s-0.2-0.3-0.5-0.3s-0.5,0.1-0.6,0.3
		s-0.1,0.7-0.1,1.5v1h1.3V199.1z"/>
	<path class="st69" d="M84.1,194.1v10.8c0,1.5,0,2.4-0.1,2.8c-0.1,0.4-0.3,0.9-0.7,1.4c-0.4,0.5-1,0.8-1.7,1.1
		c-0.7,0.2-1.6,0.4-2.8,0.4c-1.4,0-2.5-0.2-3.3-0.7s-1.3-1.4-1.3-2.7h4.1c0,0.6,0.2,0.9,0.7,0.9c0.3,0,0.5-0.1,0.6-0.3
		s0.2-0.6,0.2-1.2v-1.1c-0.4,0.3-0.8,0.6-1.2,0.8c-0.4,0.2-0.8,0.3-1.3,0.3c-0.8,0-1.4-0.2-1.9-0.5s-0.8-0.7-1-1.2s-0.3-1.2-0.3-2.2
		v-5.1c0-1.3,0.2-2.3,0.7-2.9s1.2-0.9,2.2-0.9c0.5,0,1,0.1,1.5,0.3c0.4,0.2,0.8,0.5,1.2,1L80,194L84.1,194.1L84.1,194.1z
		 M79.8,197.8c0-0.6,0-1.1-0.1-1.2c-0.1-0.2-0.2-0.3-0.5-0.3c-0.2,0-0.4,0.1-0.5,0.3s-0.2,0.6-0.2,1.2v4.7c0,0.6,0,1,0.1,1.2
		s0.2,0.3,0.5,0.3s0.5-0.1,0.6-0.3s0.1-0.7,0.1-1.5V197.8z"/>
	<path class="st69" d="M90,194.1l-0.1,1.3c0.3-0.5,0.7-0.9,1.1-1.2s1-0.4,1.6-0.4c0.7,0,1.3,0.2,1.8,0.5s0.8,0.8,0.9,1.3
		s0.2,1.4,0.2,2.6v9.8h-4.3v-9.7c0-1,0-1.6-0.1-1.8s-0.2-0.3-0.5-0.3s-0.5,0.1-0.6,0.4c-0.1,0.2-0.1,0.9-0.1,2v9.5h-4.3v-14
		L90,194.1L90,194.1z"/>
	<path class="st69" d="M100.8,199.6h-4v-0.9c0-1.1,0.1-1.9,0.4-2.5s0.8-1.1,1.5-1.6s1.7-0.7,2.9-0.7c1.4,0,2.5,0.3,3.3,0.8
		c0.7,0.5,1.2,1.1,1.3,1.9c0.1,0.7,0.2,2.3,0.2,4.6v7h-4.2v-1.3c-0.3,0.5-0.6,0.9-1,1.1s-0.9,0.4-1.5,0.4c-0.7,0-1.4-0.2-2.1-0.6
		c-0.6-0.4-0.9-1.3-0.9-2.8v-1.2c0-1.1,0.2-1.8,0.5-2.1c0.3-0.4,1.2-0.8,2.5-1.3c1.4-0.5,2.2-0.9,2.3-1.1s0.1-0.6,0.1-1.2
		c0-0.7-0.1-1.2-0.2-1.4s-0.3-0.3-0.5-0.3c-0.3,0-0.5,0.1-0.5,0.3c-0.1,0.2-0.1,0.7-0.1,1.5L100.8,199.6L100.8,199.6z M102.1,201.5
		c-0.7,0.5-1.1,0.9-1.2,1.3s-0.2,0.8-0.2,1.5s0,1.2,0.1,1.4s0.3,0.3,0.6,0.3c0.3,0,0.4-0.1,0.5-0.2s0.1-0.6,0.1-1.3L102.1,201.5
		L102.1,201.5z"/>
	<path class="st69" d="M112.3,191v17.1h-4.4V191H112.3z"/>
	<path class="st69" d="M118.2,191v2.2h-4.4V191H118.2z M118.2,194.1v14h-4.4v-14H118.2z"/>
	<path class="st69" d="M132.3,198.6h-3.8v-0.8c0-0.6,0-1.1-0.1-1.2s-0.3-0.3-0.6-0.3c-0.2,0-0.4,0.1-0.5,0.2
		c-0.1,0.2-0.2,0.4-0.2,0.7c0,0.4,0,0.7,0.1,0.9s0.2,0.4,0.5,0.7s0.9,0.6,1.8,1c1.2,0.6,2.1,1.2,2.4,1.7c0.4,0.5,0.6,1.3,0.6,2.3
		c0,1.1-0.1,2-0.4,2.6c-0.3,0.6-0.8,1-1.5,1.3s-1.5,0.5-2.5,0.5c-1.1,0-2-0.2-2.8-0.5s-1.3-0.8-1.6-1.4c-0.3-0.6-0.4-1.5-0.4-2.6
		V203h3.8v0.9c0,0.8,0,1.2,0.1,1.5c0.1,0.2,0.3,0.3,0.6,0.3c0.3,0,0.5-0.1,0.6-0.2c0.1-0.2,0.2-0.5,0.2-1c0-0.7-0.1-1.1-0.2-1.3
		c-0.2-0.2-1-0.7-2.5-1.5c-1.3-0.7-2-1.3-2.3-1.9s-0.4-1.3-0.4-2c0-1.1,0.1-1.9,0.4-2.5c0.3-0.5,0.8-0.9,1.5-1.2s1.5-0.4,2.5-0.4
		c0.9,0,1.7,0.1,2.4,0.4c0.7,0.2,1.2,0.5,1.5,0.9s0.6,0.7,0.6,1.1c0.1,0.3,0.1,0.9,0.1,1.6L132.3,198.6L132.3,198.6z"/>
	<path class="st69" d="M138.2,191v2.2h-4.4V191H138.2z M138.2,194.1v14h-4.4v-14H138.2z"/>
	<path class="st69" d="M145.5,208.2c-0.6,0.6-0.9,1.1-0.9,1.4c0,0.5,0.3,0.7,0.8,0.7c0.4,0,0.8-0.1,1.2-0.3l0.4,1.1
		c-0.7,0.3-1.3,0.5-1.8,0.5c-0.6,0-1.2-0.2-1.5-0.5c-0.4-0.3-0.6-0.7-0.6-1.2c0-0.6,0.3-1.2,0.9-1.7c-0.8-0.1-1.5-0.2-2.1-0.5
		s-1.1-0.6-1.4-1.1c-0.3-0.5-0.5-1-0.6-1.5s-0.1-1.2-0.1-2V199c0-0.8,0.1-1.4,0.2-2c0.1-0.6,0.4-1.1,0.7-1.5c0.4-0.4,0.9-0.8,1.5-1
		s1.4-0.3,2.3-0.3c1.3,0,2.4,0.2,3.2,0.6c0.8,0.4,1.3,1,1.5,1.8s0.4,1.8,0.4,3v1.9h-5.5v3c0,0.7,0.1,1.1,0.2,1.2
		c0.1,0.2,0.3,0.2,0.5,0.2c0.3,0,0.5-0.1,0.6-0.3s0.2-0.6,0.2-1.1v-2.2h4v1c0,0.8,0,1.4-0.1,1.9s-0.3,1-0.7,1.5s-0.8,0.9-1.3,1.1
		S146.2,208.1,145.5,208.2z M143.9,197.4v1.7h1.3v-1c0-0.7,0-1.1-0.1-1.4s-0.2-0.4-0.5-0.4c-0.2,0-0.4,0.1-0.5,0.2
		C143.9,196.7,143.9,197,143.9,197.4z"/>
	<path class="st69" d="M161.3,194.1v3.1l-3.2,8.1h3.2v2.8H154v-2.9l3.2-8.3h-2.9v-2.8L161.3,194.1L161.3,194.1z"/>
</g>
<g class="st68">
	<path class="st69" d="M25.6,21.3v5.3c0,1.2-0.1,2.1-0.2,2.6s-0.4,1.1-0.8,1.5s-0.9,0.8-1.5,1s-1.2,0.3-1.9,0.3
		c-0.9,0-1.7-0.1-2.4-0.3s-1.1-0.6-1.5-1s-0.6-0.9-0.8-1.5s-0.2-1.3-0.2-2.4v-5.5c0-1.5,0.1-2.5,0.4-3.3s0.7-1.3,1.5-1.7
		s1.6-0.7,2.7-0.7c0.9,0,1.6,0.2,2.3,0.5s1.2,0.7,1.5,1.1s0.6,0.9,0.7,1.5S25.6,20.1,25.6,21.3z M21.6,20c0-0.8,0-1.4-0.1-1.6
		s-0.3-0.3-0.6-0.3c-0.3,0-0.5,0.1-0.6,0.3s-0.1,0.7-0.1,1.6v7.7c0,0.9,0,1.5,0.1,1.7s0.3,0.3,0.6,0.3s0.5-0.1,0.6-0.3
		s0.1-0.7,0.1-1.5V20z"/>
	<path class="st69" d="M27,27.6h3.9c0,0.7,0,1.2,0,1.4s0.1,0.4,0.2,0.5s0.3,0.2,0.6,0.2c0.2,0,0.4-0.1,0.5-0.2s0.2-0.3,0.2-0.5
		s0-0.6,0-1.2v-2.5c-0.2,0.4-0.5,0.7-0.9,1s-0.9,0.3-1.5,0.3c-0.7,0-1.4-0.2-1.9-0.6s-0.9-0.9-1.1-1.4S27,23.2,27,22.3v-1.3
		c0-1.1,0-1.9,0.1-2.5s0.3-1,0.7-1.5s0.9-0.8,1.5-1.1s1.4-0.4,2.2-0.4c1.1,0,1.9,0.1,2.6,0.4s1.2,0.7,1.6,1.3s0.6,1.1,0.6,1.7
		s0.1,1.8,0.1,3.5v2.2c0,1.9,0,3.1-0.1,3.8s-0.3,1.2-0.7,1.8s-0.9,1-1.6,1.3s-1.5,0.4-2.4,0.4c-1.1,0-2-0.2-2.7-0.5
		s-1.2-0.9-1.5-1.5S27,28.5,27,27.6z M30.9,22.6c0,0.7,0.1,1.1,0.3,1.2s0.4,0.2,0.5,0.2c0.3,0,0.5-0.1,0.6-0.3s0.2-0.6,0.2-1.2v-2.9
		c0-0.7-0.1-1.2-0.2-1.4s-0.3-0.3-0.6-0.3c-0.2,0-0.3,0.1-0.5,0.2s-0.3,0.6-0.3,1.3V22.6z"/>
</g>
</svg>
