<?xml version="1.0" encoding="utf-8"?>
<!-- Generator: Adobe Illustrator 26.0.3, SVG Export Plug-In . SVG Version: 6.00 Build 0)  -->
<svg version="1.1" id="Слой_1" xmlns="http://www.w3.org/2000/svg" xmlns:xlink="http://www.w3.org/1999/xlink" x="0px" y="0px"
	 viewBox="0 0 195.6 280.6" style="enable-background:new 0 0 195.6 280.6;" xml:space="preserve">
<style type="text/css">
	.st0{clip-path:url(#SVGID_00000182505787151099054990000018285721844394583718_);fill:#797979;}
	.st1{clip-path:url(#SVGID_00000182505787151099054990000018285721844394583718_);fill:#1A1A1A;}
	.st2{clip-path:url(#SVGID_00000182505787151099054990000018285721844394583718_);fill:#6C6C6C;}
	.st3{clip-path:url(#SVGID_00000182505787151099054990000018285721844394583718_);fill:#ED6B49;}
	.st4{clip-path:url(#SVGID_00000182505787151099054990000018285721844394583718_);fill:#E74025;}
	.st5{clip-path:url(#SVGID_00000182505787151099054990000018285721844394583718_);fill:#EB5A53;}
	.st6{clip-path:url(#SVGID_00000182505787151099054990000018285721844394583718_);fill:#FFFFFF;}
	.st7{clip-path:url(#SVGID_00000182505787151099054990000018285721844394583718_);fill:#595959;}
	.st8{clip-path:url(#SVGID_00000182505787151099054990000018285721844394583718_);fill:#3E3E3E;}
	.st9{clip-path:url(#SVGID_00000182505787151099054990000018285721844394583718_);fill:#BADBE9;}
	.st10{clip-path:url(#SVGID_00000182505787151099054990000018285721844394583718_);fill:#555555;}
	.st11{clip-path:url(#SVGID_00000182505787151099054990000018285721844394583718_);enable-background:new    ;}
	.st12{fill:#1A1A1A;}
	.st13{font-family:'Impact';}
	.st14{font-size:37px;}
	.st15{fill:#FFFFFF;}
	.st16{font-size:20px;}
</style>
<g>
	<defs>
		<rect id="SVGID_1_" x="0.2" y="0.7" width="195.6" height="280.6"/>
	</defs>
	<clipPath id="SVGID_00000154406912386796932010000003524669102780781215_">
		<use xlink:href="#SVGID_1_"  style="overflow:visible;"/>
	</clipPath>
	
		<rect x="-19.8" y="-10.9" style="clip-path:url(#SVGID_00000154406912386796932010000003524669102780781215_);fill:#797979;" width="507" height="310"/>
	<path style="clip-path:url(#SVGID_00000154406912386796932010000003524669102780781215_);fill:#1A1A1A;" d="M90.7,107.7
		c0,0.3,0,0.6,0,0.9c0,19.1,15.4,34.7,34.6,34.7c9.6,0,18.8-3.9,25.3-10.9c1,0.2,1.9,0.3,2.9,0.3c13.3,0,24.1-10.8,24.1-24.1
		c0-0.3,0-0.6,0-0.9h-5.9c0,0.3,0,0.6,0,0.9c0,10-8.1,18.2-18.1,18.2c0,0-0.1,0-0.1,0c-1.2,0-2.3-0.1-3.5-0.3l-1.7-0.3l-1.1,1.3
		c-10.4,12-28.6,13.4-40.6,3c-6.3-5.5-10-13.4-10-21.8c0-0.3,0-0.6,0-0.9H90.7z"/>
	<path style="clip-path:url(#SVGID_00000154406912386796932010000003524669102780781215_);fill:#1A1A1A;" d="M125.4,73.9
		c-19.2,0-34.7,15.6-34.7,34.7c0,0.3,0,0.6,0,0.9h5.9c0-0.3,0-0.6,0-0.9c0-15.9,12.8-28.8,28.7-28.8c0,0,0.1,0,0.1,0l0,0
		c8.4,0,16.3,3.7,21.8,10l1.1,1.3l1.7-0.3c1.1-0.2,2.3-0.4,3.5-0.4c10,0,18.2,8.1,18.2,18.1c0,0,0,0,0,0.1c0,0.3,0,0.6,0,0.9h5.9
		c0-0.3,0-0.6,0-0.9c0-13.3-10.8-24.1-24.1-24.1l0,0c-1,0-1.9,0.1-2.9,0.3C144,77.8,134.9,73.9,125.4,73.9L125.4,73.9z"/>
	<path style="clip-path:url(#SVGID_00000154406912386796932010000003524669102780781215_);fill:#6C6C6C;" d="M125.4,76.8
		c-17.5,0-31.8,14.2-31.8,31.7c0,17.5,14.2,31.8,31.7,31.8c9.2,0,18-4,24.1-11c11.5,2.3,22.6-5.1,24.9-16.6s-5.1-22.6-16.6-24.9
		c-2.7-0.5-5.6-0.5-8.3,0C143.3,80.9,134.6,76.9,125.4,76.8L125.4,76.8z"/>
	<path style="clip-path:url(#SVGID_00000154406912386796932010000003524669102780781215_);fill:#ED6B49;" d="M97.2,118.7
		c-0.6,0-1.2,0.3-1.7,0.7c1.5,4.1,3.8,7.8,6.8,11h13.5c1.3,0,2.4-1.1,2.4-2.4c0,0,0,0,0,0v-6.9c0-1.3-1.1-2.4-2.4-2.4c0,0,0,0,0,0
		L97.2,118.7z"/>
	<path style="clip-path:url(#SVGID_00000154406912386796932010000003524669102780781215_);fill:#ED6B49;" d="M124.6,118.7
		c-1.3,0-2.4,1.1-2.4,2.4c0,0,0,0,0,0v6.9c0,1.3,1.1,2.4,2.4,2.4c0,0,0,0,0,0h18.6c1.3,0,2.4-1.1,2.4-2.4c0,0,0,0,0,0v-6.9
		c0-1.3-1.1-2.4-2.4-2.4c0,0,0,0,0,0L124.6,118.7z"/>
	<path style="clip-path:url(#SVGID_00000154406912386796932010000003524669102780781215_);fill:#ED6B49;" d="M152,118.7
		c-1.3,0-2.4,1.1-2.4,2.4c0,0,0,0,0,0v6.9c0,0.5,0.2,1.1,0.5,1.5c1.1,0.2,2.2,0.3,3.3,0.3c7.6,0,14.6-4.1,18.4-10.8
		c-0.4-0.2-0.8-0.3-1.2-0.3L152,118.7z"/>
	<path style="clip-path:url(#SVGID_00000154406912386796932010000003524669102780781215_);fill:#E74025;" d="M118.2,125
		c0,1.3-1.1,2.4-2.4,2.4c0,0,0,0,0,0h-16c0.8,1,1.6,2,2.4,2.9h13.5c1.3,0,2.4-1.1,2.4-2.4c0,0,0,0,0,0L118.2,125z"/>
	<path style="clip-path:url(#SVGID_00000154406912386796932010000003524669102780781215_);fill:#E74025;" d="M122.2,125v3
		c0,1.3,1.1,2.4,2.4,2.4c0,0,0,0,0,0h18.6c1.3,0,2.4-1.1,2.4-2.4c0,0,0,0,0,0v-3c0,1.3-1.1,2.4-2.4,2.4c0,0,0,0,0,0h-18.6
		C123.3,127.4,122.2,126.3,122.2,125C122.2,125,122.2,125,122.2,125z"/>
	<path style="clip-path:url(#SVGID_00000154406912386796932010000003524669102780781215_);fill:#E74025;" d="M149.6,125v3
		c0,0.5,0.2,1.1,0.5,1.5c1.1,0.2,2.2,0.3,3.3,0.3c3.3,0,6.6-0.8,9.5-2.3H152c-1.3,0-2.4-1.1-2.4-2.4
		C149.6,125.1,149.6,125.1,149.6,125L149.6,125z"/>
	<path style="clip-path:url(#SVGID_00000154406912386796932010000003524669102780781215_);fill:#1A1A1A;" d="M97.2,117.9
		c-0.8,0-1.6,0.3-2.2,0.9l1,1c0.3-0.3,0.7-0.5,1.2-0.5h18.6c0.9,0,1.6,0.7,1.7,1.6c0,0,0,0,0,0v7c0,0.9-0.7,1.6-1.6,1.7c0,0,0,0,0,0
		h-13.5v1.5h13.5c1.7,0,3.1-1.4,3.1-3.1v-6.9c0-1.7-1.4-3.1-3.1-3.1L97.2,117.9z"/>
	<path style="clip-path:url(#SVGID_00000154406912386796932010000003524669102780781215_);fill:#1A1A1A;" d="M121.5,123.6v4.4
		c0,1.7,1.4,3.1,3.1,3.1h18.6c1.7,0,3.1-1.4,3.1-3.1v-4.4h-1.5v4.4c0,0.9-0.7,1.6-1.6,1.7c0,0,0,0,0,0h-18.6c-0.9,0-1.6-0.8-1.6-1.7
		c0,0,0,0,0,0v-4.4L121.5,123.6z"/>
	<path style="clip-path:url(#SVGID_00000154406912386796932010000003524669102780781215_);fill:#1A1A1A;" d="M152,117.9
		c-1.7,0-3.1,1.4-3.1,3.1v6.9c0,0.7,0.2,1.4,0.7,2l1.2-0.9c-0.2-0.3-0.4-0.6-0.4-1v-6.9c0-0.9,0.7-1.7,1.6-1.7c0,0,0,0,0,0h18.6
		c0.3,0,0.6,0.1,0.9,0.2l0.8-1.3c-0.5-0.3-1-0.4-1.6-0.4L152,117.9z"/>
	<path style="clip-path:url(#SVGID_00000154406912386796932010000003524669102780781215_);fill:#ED6B49;" d="M110.9,134.6
		c-0.8,0-1.6,0.4-2,1.1c5,3,10.6,4.6,16.5,4.6c2.2,0,4.4-0.2,6.5-0.7V137c0-1.3-1.1-2.4-2.4-2.4c0,0,0,0,0,0L110.9,134.6z"/>
	<path style="clip-path:url(#SVGID_00000154406912386796932010000003524669102780781215_);fill:#ED6B49;" d="M138.3,134.6
		c-1.3,0-2.4,1.1-2.4,2.4c0,0,0,0,0,0v1.5c2.7-0.9,5.3-2.2,7.6-3.9H138.3z"/>
	<path style="clip-path:url(#SVGID_00000154406912386796932010000003524669102780781215_);fill:#1A1A1A;" d="M110.9,133.9
		c-1.1,0-2,0.5-2.6,1.4l1.2,0.8c0.3-0.5,0.8-0.8,1.4-0.8h18.6c0.9,0,1.6,0.7,1.7,1.6c0,0,0,0,0,0v2.6h1.5V137c0-1.7-1.4-3.1-3.1-3.1
		L110.9,133.9z"/>
	<path style="clip-path:url(#SVGID_00000154406912386796932010000003524669102780781215_);fill:#1A1A1A;" d="M138.3,133.9
		c-1.7,0-3.1,1.4-3.1,3.1v1.5h1.5V137c0-0.9,0.7-1.6,1.6-1.7c0,0,0,0,0,0h5.2v-1.5L138.3,133.9z"/>
	<path style="clip-path:url(#SVGID_00000154406912386796932010000003524669102780781215_);fill:#ED6B49;" d="M110.9,102.7
		c-1.3,0-2.4,1.1-2.4,2.4c0,0,0,0,0,0v6.9c0,1.3,1.1,2.4,2.4,2.4c0,0,0,0,0,0h18.6c1.3,0,2.4-1.1,2.4-2.4c0,0,0,0,0,0v-6.9
		c0-1.3-1.1-2.4-2.4-2.4c0,0,0,0,0,0L110.9,102.7z"/>
	<path style="clip-path:url(#SVGID_00000154406912386796932010000003524669102780781215_);fill:#ED6B49;" d="M138.3,102.7
		c-1.3,0-2.4,1.1-2.4,2.4c0,0,0,0,0,0v6.9c0,1.3,1.1,2.4,2.4,2.4c0,0,0,0,0,0h18.6c1.3,0,2.4-1.1,2.4-2.4c0,0,0,0,0,0v-6.9
		c0-1.3-1.1-2.4-2.4-2.4c0,0,0,0,0,0L138.3,102.7z"/>
	<path style="clip-path:url(#SVGID_00000154406912386796932010000003524669102780781215_);fill:#ED6B49;" d="M165.7,102.7
		c-1.3,0-2.4,1.1-2.4,2.4c0,0,0,0,0,0v6.9c0,1.3,1.1,2.4,2.4,2.4c0,0,0,0,0,0h8c0.6-1.9,0.8-3.9,0.8-5.8c0-2-0.3-3.9-0.8-5.8
		L165.7,102.7z"/>
	<path style="clip-path:url(#SVGID_00000154406912386796932010000003524669102780781215_);fill:#ED6B49;" d="M94.2,102.7
		c-0.7,3.9-0.7,7.8,0,11.7h7.9c1.3,0,2.4-1.1,2.4-2.4c0,0,0,0,0,0v-6.9c0-1.3-1.1-2.4-2.4-2.4c0,0,0,0,0,0H94.2z"/>
	<path style="clip-path:url(#SVGID_00000154406912386796932010000003524669102780781215_);fill:#E74025;" d="M104.5,109.1
		c0,1.3-1.1,2.4-2.4,2.4c0,0,0,0,0,0h-8.3c0.1,1,0.2,2,0.4,2.9h7.9c1.3,0,2.4-1.1,2.4-2.4c0,0,0,0,0,0L104.5,109.1z"/>
	<path style="clip-path:url(#SVGID_00000154406912386796932010000003524669102780781215_);fill:#E74025;" d="M108.5,109.1v2.9
		c0,1.3,1.1,2.4,2.4,2.4c0,0,0,0,0,0h18.6c1.3,0,2.4-1.1,2.4-2.4c0,0,0,0,0,0v-2.9c0,1.3-1.1,2.4-2.4,2.4c0,0,0,0,0,0h-18.6
		C109.6,111.5,108.5,110.4,108.5,109.1C108.5,109.1,108.5,109.1,108.5,109.1z"/>
	<path style="clip-path:url(#SVGID_00000154406912386796932010000003524669102780781215_);fill:#E74025;" d="M135.9,109.1v2.9
		c0,1.3,1.1,2.4,2.4,2.4c0,0,0,0,0,0h18.6c1.3,0,2.4-1.1,2.4-2.4c0,0,0,0,0,0v-2.9c0,1.3-1.1,2.4-2.4,2.4c0,0,0,0,0,0h-18.6
		C137,111.5,135.9,110.4,135.9,109.1C135.9,109.1,135.9,109.1,135.9,109.1z"/>
	<path style="clip-path:url(#SVGID_00000154406912386796932010000003524669102780781215_);fill:#E74025;" d="M163.3,109.1v2.9
		c0,1.3,1.1,2.4,2.4,2.4c0,0,0,0,0,0h8c0.3-1,0.5-1.9,0.6-2.9h-8.6C164.4,111.5,163.3,110.4,163.3,109.1
		C163.3,109.1,163.3,109.1,163.3,109.1L163.3,109.1z"/>
	<path style="clip-path:url(#SVGID_00000154406912386796932010000003524669102780781215_);fill:#1A1A1A;" d="M107.8,107.7v4.3
		c0,1.7,1.4,3.1,3.1,3.1h18.6c1.7,0,3.1-1.4,3.1-3.1v-4.4h-1.5v4.4c0,0.9-0.7,1.6-1.6,1.7c0,0,0,0,0,0h-18.6c-0.9,0-1.6-0.7-1.7-1.6
		c0,0,0,0,0,0v-4.4L107.8,107.7z"/>
	<path style="clip-path:url(#SVGID_00000154406912386796932010000003524669102780781215_);fill:#1A1A1A;" d="M135.2,107.7v4.3
		c0,1.7,1.4,3.1,3.1,3.1h18.6c1.7,0,3.1-1.4,3.1-3.1v-4.4h-1.5v4.4c0,0.9-0.7,1.6-1.6,1.7c0,0,0,0,0,0h-18.6c-0.9,0-1.6-0.7-1.7-1.6
		c0,0,0,0,0,0v-4.4L135.2,107.7z"/>
	<path style="clip-path:url(#SVGID_00000154406912386796932010000003524669102780781215_);fill:#1A1A1A;" d="M165.7,102
		c-1.7,0-3.1,1.4-3.1,3.1v6.9c0,1.7,1.4,3.1,3.1,3.1h8v-1.5h-8c-0.9,0-1.7-0.7-1.7-1.6c0,0,0-0.1,0-0.1v-6.9c0-0.9,0.7-1.6,1.6-1.7
		c0,0,0,0,0,0h8V102H165.7z"/>
	<path style="clip-path:url(#SVGID_00000154406912386796932010000003524669102780781215_);fill:#1A1A1A;" d="M94.2,102v1.5h7.9
		c0.9,0,1.7,0.7,1.7,1.6c0,0,0,0,0,0v6.9c0,0.9-0.7,1.6-1.6,1.7c0,0,0,0-0.1,0h-7.9v1.5h7.9c1.7,0,3.1-1.4,3.1-3.1v-6.9
		c0-1.7-1.4-3.1-3.1-3.1L94.2,102z"/>
	<path style="clip-path:url(#SVGID_00000154406912386796932010000003524669102780781215_);fill:#ED6B49;" d="M102.3,86.8
		c-3,3.2-5.3,6.9-6.8,11c0.5,0.5,1.1,0.7,1.7,0.7h18.6c1.3,0,2.4-1.1,2.4-2.4c0,0,0,0,0,0v-6.9c0-1.3-1.1-2.4-2.4-2.4c0,0,0,0,0,0
		L102.3,86.8z"/>
	<path style="clip-path:url(#SVGID_00000154406912386796932010000003524669102780781215_);fill:#ED6B49;" d="M124.6,86.8
		c-1.3,0-2.4,1.1-2.4,2.4c0,0,0,0,0,0v6.9c0,1.3,1.1,2.4,2.4,2.4c0,0,0,0,0,0h18.6c1.3,0,2.4-1.1,2.4-2.4c0,0,0,0,0,0v-6.9
		c0-1.3-1.1-2.4-2.4-2.4c0,0,0,0,0,0L124.6,86.8z"/>
	<path style="clip-path:url(#SVGID_00000154406912386796932010000003524669102780781215_);fill:#ED6B49;" d="M153.4,87.4
		c-1.1,0-2.2,0.1-3.3,0.3c-0.3,0.4-0.5,0.9-0.5,1.5v6.9c0,1.3,1.1,2.4,2.4,2.4c0,0,0,0,0,0h18.6c0.4,0,0.9-0.1,1.2-0.3
		C168,91.5,161,87.4,153.4,87.4L153.4,87.4z"/>
	<path style="clip-path:url(#SVGID_00000154406912386796932010000003524669102780781215_);fill:#E74025;" d="M118.2,93.2
		c0,1.3-1.1,2.4-2.4,2.4c0,0,0,0,0,0H97.2c-0.3,0-0.5,0-0.7-0.1c-0.3,0.8-0.7,1.5-1,2.3c0.5,0.5,1.1,0.7,1.7,0.7h18.6
		c1.3,0,2.4-1.1,2.4-2.4c0,0,0,0,0,0L118.2,93.2z"/>
	<path style="clip-path:url(#SVGID_00000154406912386796932010000003524669102780781215_);fill:#E74025;" d="M122.2,93.2v2.9
		c0,1.3,1.1,2.4,2.4,2.4c0,0,0,0,0,0h18.6c1.3,0,2.4-1.1,2.4-2.4c0,0,0,0,0,0v-2.9c0,1.3-1.1,2.4-2.4,2.4c0,0,0,0,0,0h-18.6
		C123.3,95.6,122.2,94.5,122.2,93.2C122.2,93.2,122.2,93.2,122.2,93.2z"/>
	<path style="clip-path:url(#SVGID_00000154406912386796932010000003524669102780781215_);fill:#E74025;" d="M149.6,93.2v2.9
		c0,1.3,1.1,2.4,2.4,2.4c0,0,0,0,0,0h18.6c0.4,0,0.9-0.1,1.2-0.3c-0.5-0.9-1.1-1.8-1.7-2.6H152C150.7,95.6,149.6,94.5,149.6,93.2
		C149.6,93.2,149.6,93.2,149.6,93.2L149.6,93.2z"/>
	<path style="clip-path:url(#SVGID_00000154406912386796932010000003524669102780781215_);fill:#1A1A1A;" d="M102.3,86.1v1.5h13.5
		c0.9,0,1.6,0.7,1.7,1.6c0,0,0,0,0,0v6.9c0,0.9-0.7,1.7-1.6,1.7c0,0,0,0,0,0H97.2c-0.4,0-0.9-0.2-1.2-0.5l-1,1
		c0.6,0.6,1.4,0.9,2.2,0.9h18.6c1.7,0,3.1-1.4,3.1-3.1v-6.8c0-1.7-1.4-3.1-3.1-3.1H102.3z"/>
	<path style="clip-path:url(#SVGID_00000154406912386796932010000003524669102780781215_);fill:#1A1A1A;" d="M121.5,91.7v4.4
		c0,1.7,1.4,3.1,3.1,3.1h18.6c1.7,0,3.1-1.4,3.1-3.1v-4.4h-1.5v4.4c0,0.9-0.7,1.7-1.6,1.7c0,0,0,0,0,0h-18.6c-0.9,0-1.6-0.8-1.6-1.7
		v-4.4H121.5z"/>
	<path style="clip-path:url(#SVGID_00000154406912386796932010000003524669102780781215_);fill:#1A1A1A;" d="M149.5,87.2
		c-0.4,0.6-0.7,1.3-0.7,2v6.9c0,1.7,1.4,3.1,3.1,3.1h18.6c0.6,0,1.1-0.2,1.6-0.4l-0.8-1.3c-0.3,0.2-0.5,0.2-0.9,0.2H152
		c-0.9,0-1.7-0.7-1.7-1.6c0,0,0,0,0,0v-6.9c0-0.4,0.1-0.7,0.4-1L149.5,87.2z"/>
	<path style="clip-path:url(#SVGID_00000154406912386796932010000003524669102780781215_);fill:#ED6B49;" d="M125.4,76.8
		c-5.8,0-11.5,1.6-16.5,4.6c0.4,0.7,1.2,1.1,2,1.1h18.6c1.3,0,2.4-1.1,2.4-2.4v-2.6C129.8,77.1,127.6,76.8,125.4,76.8z"/>
	<path style="clip-path:url(#SVGID_00000154406912386796932010000003524669102780781215_);fill:#ED6B49;" d="M135.9,78.7v1.5
		c0,1.3,1.1,2.4,2.4,2.4h5.1C141.1,80.9,138.6,79.6,135.9,78.7L135.9,78.7z"/>
	<path style="clip-path:url(#SVGID_00000154406912386796932010000003524669102780781215_);fill:#E74025;" d="M131.9,77.6
		c-0.2,1.2-1.2,2.1-2.4,2.1h-17.1c-1.2,0.5-2.4,1.2-3.5,1.8c0.4,0.7,1.2,1.1,2,1.1h18.6c1.3,0,2.4-1.1,2.4-2.4L131.9,77.6
		L131.9,77.6z"/>
	<path style="clip-path:url(#SVGID_00000154406912386796932010000003524669102780781215_);fill:#E74025;" d="M135.9,78.7v1.5
		c0,1.3,1.1,2.4,2.4,2.4h5.1c-1.6-1.1-3.4-2.1-5.2-2.9c-0.6,0-1.2-0.3-1.6-0.7L135.9,78.7z"/>
	<path style="clip-path:url(#SVGID_00000154406912386796932010000003524669102780781215_);fill:#1A1A1A;" d="M131.2,77.6v2.6
		c0,0.9-0.7,1.6-1.6,1.7c0,0,0,0,0,0h-18.6c-0.6,0-1.1-0.3-1.4-0.8l-1.2,0.8c0.6,0.9,1.6,1.4,2.6,1.4h18.6c1.7,0,3.1-1.4,3.1-3.1
		v-2.6L131.2,77.6z"/>
	<path style="clip-path:url(#SVGID_00000154406912386796932010000003524669102780781215_);fill:#1A1A1A;" d="M135.2,78.7v1.5
		c0,1.7,1.4,3.1,3.1,3.1h5.1v-1.5h-5.1c-0.9,0-1.6-0.7-1.7-1.6c0,0,0,0,0,0v-1.5H135.2z"/>
	<path style="clip-path:url(#SVGID_00000154406912386796932010000003524669102780781215_);fill:#1A1A1A;" d="M92.9,107.7
		c0,0.3,0,0.6,0,0.9c0,17.9,14.5,32.5,32.4,32.5c9.3,0,18.2-4,24.4-11c1.2,0.2,2.5,0.4,3.8,0.4c12.1,0,21.9-9.8,21.9-21.9
		c0-0.3,0-0.6,0-0.9h-1.5c0,0.3,0,0.6,0,0.9c0,11.2-9.1,20.4-20.3,20.4c-1.3,0-2.7-0.1-4-0.4l-0.4-0.1l-0.3,0.3
		c-11.2,13-30.8,14.4-43.7,3.2c-6.8-5.9-10.8-14.5-10.8-23.5c0-0.3,0-0.6,0-0.9L92.9,107.7z"/>
	<path style="clip-path:url(#SVGID_00000154406912386796932010000003524669102780781215_);fill:#1A1A1A;" d="M125.4,76.1
		c-17.9,0-32.5,14.6-32.5,32.5c0,0.3,0,0.6,0,0.9h1.5c0-0.3,0-0.6,0-0.9c0-17.1,13.9-31,31-31c9,0,17.6,3.9,23.5,10.7l0.3,0.3
		l0.4-0.1c1.3-0.3,2.6-0.4,3.9-0.4c11.3,0,20.4,9.1,20.4,20.4c0,0,0,0,0,0c0,0.3,0,0.6,0,0.9h1.5c0-0.3,0-0.6,0-0.9
		c0-12.1-9.8-21.9-21.9-21.9c-1.3,0-2.5,0.1-3.8,0.4C143.5,80.1,134.7,76.1,125.4,76.1L125.4,76.1z"/>
	<path style="clip-path:url(#SVGID_00000154406912386796932010000003524669102780781215_);fill:#1A1A1A;" d="M110.9,102
		c-1.7,0-3.1,1.4-3.1,3.1v4.4h1.5v-4.4c0-0.9,0.7-1.6,1.6-1.7c0,0,0,0,0,0h18.6c0.9,0,1.6,0.7,1.7,1.6c0,0,0,0,0,0v4.4h1.5v-4.4
		c0-1.7-1.4-3.1-3.1-3.1H110.9z"/>
	<path style="clip-path:url(#SVGID_00000154406912386796932010000003524669102780781215_);fill:#1A1A1A;" d="M138.3,102
		c-1.7,0-3.1,1.4-3.1,3.1v4.4h1.5v-4.4c0-0.9,0.7-1.6,1.6-1.7c0,0,0,0,0,0h18.6c0.9,0,1.6,0.7,1.7,1.6c0,0,0,0,0,0v4.4h1.5v-4.4
		c0-1.7-1.4-3.1-3.1-3.1H138.3z"/>
	<path style="clip-path:url(#SVGID_00000154406912386796932010000003524669102780781215_);fill:#1A1A1A;" d="M124.6,117.9
		c-1.7,0-3.1,1.4-3.1,3.1v4.4h1.5v-4.4c0-0.9,0.7-1.6,1.6-1.7c0,0,0,0,0,0h18.6c0.9,0,1.6,0.7,1.7,1.6c0,0,0,0,0,0v4.4h1.5v-4.4
		c0-1.7-1.4-3.1-3.1-3.1H124.6z"/>
	<path style="clip-path:url(#SVGID_00000154406912386796932010000003524669102780781215_);fill:#1A1A1A;" d="M124.6,86.1
		c-1.7,0-3.1,1.4-3.1,3.1v4.4h1.5v-4.4c0-0.9,0.7-1.6,1.6-1.7c0,0,0,0,0,0h18.6c0.9,0,1.6,0.7,1.7,1.6c0,0,0,0,0,0v4.4h1.5v-4.4
		c0-1.7-1.4-3.1-3.1-3.1H124.6z"/>
	<path style="clip-path:url(#SVGID_00000154406912386796932010000003524669102780781215_);fill:#EB5A53;" d="M75.5,152.2
		c0-9.4,4.2-11.3,7-11.3s7,1.9,7,11.3s-3.1,22.9-7,22.9S75.5,161.7,75.5,152.2L75.5,152.2z"/>
	<path style="clip-path:url(#SVGID_00000154406912386796932010000003524669102780781215_);fill:#1A1A1A;" d="M82.5,139
		c-2.3,0-4.6,1-6.1,2.8c-1.8,2.1-2.9,5.5-2.9,10.5c0,5.2,0.8,10.4,2.1,15.5c0.5,2.1,1.4,4.2,2.4,6.1c1,1.6,2.3,3.2,4.4,3.2
		s3.4-1.6,4.4-3.2c1.1-1.9,1.9-4,2.4-6.1c1.4-5.1,2.1-10.3,2.1-15.5c0-5-1.1-8.3-2.9-10.5C87.1,140,84.9,139,82.5,139z M82.5,142.9
		c1.2,0,2.4,0.5,3.1,1.4c1,1.2,2,3.5,2,7.9c-0.1,4.9-0.7,9.7-2,14.4c-0.5,1.8-1.1,3.5-2,5.2c-0.3,0.5-0.6,0.9-1.1,1.2
		c-0.4-0.3-0.8-0.8-1-1.2c-0.9-1.6-1.5-3.4-2-5.2c-1.3-4.7-1.9-9.6-2-14.4c0-4.4,1-6.8,2-7.9c0.7-0.9,1.9-1.5,3.1-1.4L82.5,142.9z"
		/>
	<path style="clip-path:url(#SVGID_00000154406912386796932010000003524669102780781215_);fill:#EB5A53;" d="M40,152.2
		c0-9.4,4.2-11.3,7-11.3s7,1.9,7,11.3s-3.2,22.9-7,22.9S40,161.7,40,152.2L40,152.2z"/>
	<path style="clip-path:url(#SVGID_00000154406912386796932010000003524669102780781215_);fill:#1A1A1A;" d="M47,139
		c-2.3,0-4.6,1-6.1,2.8c-1.8,2.1-2.9,5.4-2.9,10.4c0,5.2,0.8,10.4,2.1,15.5c0.5,2.1,1.4,4.2,2.4,6.1c1,1.6,2.3,3.2,4.4,3.2
		s3.4-1.6,4.4-3.2c1.1-1.9,1.9-4,2.4-6.1c1.4-5,2.1-10.3,2.2-15.5c0-5-1.1-8.3-2.9-10.5C51.6,140,49.3,139,47,139z M47,142.9
		c1.2,0,2.4,0.5,3.1,1.4c1,1.2,2,3.5,2,7.9c-0.1,4.9-0.7,9.7-2,14.4c-0.5,1.8-1.1,3.5-2,5.2c-0.3,0.5-0.7,0.9-1.1,1.2
		c-0.4-0.3-0.8-0.8-1-1.2c-0.9-1.6-1.5-3.4-2-5.2c-1.3-4.7-1.9-9.6-2-14.4c0-4.4,1-6.8,2-7.9C44.7,143.4,45.8,142.9,47,142.9
		L47,142.9z"/>
	<path style="clip-path:url(#SVGID_00000154406912386796932010000003524669102780781215_);fill:#EB5A53;" d="M110.8,105.4
		c-2.7-9,0.7-12,3.4-12.9s7.3-0.2,10,8.8s3.6,22.8-0.1,23.9S113.6,114.4,110.8,105.4z"/>
	<path style="clip-path:url(#SVGID_00000154406912386796932010000003524669102780781215_);fill:#1A1A1A;" d="M113.7,91.7
		c-2.2,0.7-4.1,2.3-5,4.5c-1.1,2.6-1.2,6.1,0.2,10.8c1.6,5,3.8,9.8,6.5,14.2c1.1,1.9,2.5,3.6,4.1,5.2c1.4,1.3,3.2,2.4,5.2,1.8
		s2.8-2.5,3.3-4.3c0.5-2.2,0.7-4.4,0.6-6.6c-0.1-5.2-1-10.4-2.4-15.4c-1.4-4.8-3.5-7.7-5.8-9.2C118.4,91.4,115.9,91,113.7,91.7
		L113.7,91.7z M114.8,95.4c1.1-0.4,2.4-0.2,3.4,0.5c1.3,0.8,2.9,2.8,4.2,7c1.4,4.7,2.1,9.5,2.3,14.4c0.1,1.9-0.1,3.7-0.4,5.5
		c-0.1,0.5-0.3,1-0.6,1.5c-0.5-0.2-1-0.5-1.4-0.9c-1.3-1.3-2.5-2.8-3.4-4.4c-2.6-4.1-4.6-8.6-6.1-13.2c-1.3-4.2-1-6.8-0.4-8.2
		C112.7,96.6,113.6,95.7,114.8,95.4L114.8,95.4z"/>
	<path style="clip-path:url(#SVGID_00000154406912386796932010000003524669102780781215_);fill:#EB5A53;" d="M7.2,100.9
		c3.6-8.7,8.2-8.9,10.8-7.8s5.8,4.4,2.2,13.2S8.5,126.2,4.9,124.7S3.6,109.7,7.2,100.9z"/>
	<path style="clip-path:url(#SVGID_00000154406912386796932010000003524669102780781215_);fill:#1A1A1A;" d="M18.7,91.4
		c-2.2-0.9-4.6-0.8-6.7,0.3c-2.5,1.3-4.8,3.9-6.7,8.6c-2,4.8-3.3,9.9-4,15.1c-0.3,2.2-0.3,4.4-0.1,6.6c0.3,1.9,0.9,3.8,2.9,4.7
		s3.8-0.1,5.3-1.3c1.7-1.4,3.3-3,4.6-4.7c3.2-4.1,5.9-8.7,8-13.5c1.9-4.6,2.2-8.1,1.3-10.8C22.6,94.1,21,92.2,18.7,91.4L18.7,91.4z
		 M17.2,95c1.1,0.4,2,1.3,2.3,2.5c0.5,1.5,0.5,4-1.2,8.1c-1.9,4.5-4.4,8.7-7.3,12.6c-1.1,1.5-2.4,2.8-3.8,4
		c-0.4,0.3-0.9,0.6-1.5,0.8c-0.3-0.5-0.4-1-0.5-1.6c-0.2-1.8-0.2-3.7,0.1-5.6c0.6-4.8,1.9-9.6,3.7-14.1c1.7-4.1,3.5-5.9,4.9-6.6
		C14.9,94.5,16.2,94.5,17.2,95L17.2,95z"/>
	<path style="clip-path:url(#SVGID_00000154406912386796932010000003524669102780781215_);fill:#1A1A1A;" d="M64.8,50.5
		c-30.4,0-55,24.6-55,55s24.6,55,55,55s55-24.6,55-55C119.7,75.2,95.1,50.6,64.8,50.5z M64.8,56.8c26.9,0,48.8,21.8,48.8,48.8
		s-21.8,48.8-48.8,48.8S16,132.5,16,105.6c0-26.9,21.8-48.7,48.7-48.8C64.7,56.8,64.7,56.8,64.8,56.8z"/>
	<path style="clip-path:url(#SVGID_00000154406912386796932010000003524669102780781215_);fill:#EB5A53;" d="M115.9,104.3
		c0,2.2-0.2,27.2-14.9,34.3c-10.4,5-16.2-4.8-37.2-4.5c-19.8,0.3-25,9.1-34.8,4.5c-14.6-6.9-14.9-32.2-14.9-34.3
		c0-3,0.3-26.4,14.9-34.3c8.6-4.6,13.1,1.1,34.3,1.3c23.2,0.2,28.3-6.5,37.7-1.3C115.5,78.1,115.9,101.4,115.9,104.3z"/>
	<path style="clip-path:url(#SVGID_00000154406912386796932010000003524669102780781215_);fill:#FFFFFF;" d="M65.3,54.6
		c-22.2,0-42,14-49.4,35h98.8C107.3,68.7,87.5,54.7,65.3,54.6z"/>
	<path style="clip-path:url(#SVGID_00000154406912386796932010000003524669102780781215_);fill:#FFFFFF;" d="M62.6,55.8
		c-21.1,0-39.8,13.7-46.2,33.8h92.4C102.4,69.5,83.7,55.8,62.6,55.8z"/>
	<path style="clip-path:url(#SVGID_00000154406912386796932010000003524669102780781215_);fill:#FFFFFF;" d="M15.5,123.6
		c5.4,10.5,13.7,19.1,23.9,25c7.9,4.7,16.8,7.2,25.9,7.4c4.9,0.1,9.8-0.6,14.6-2c9.4-2.9,17.7-8.5,23.9-16c3.7-4.3,6.7-9.2,8.9-14.4
		H15.5z"/>
	<path style="clip-path:url(#SVGID_00000154406912386796932010000003524669102780781215_);fill:#FFFFFF;" d="M18.1,123.7
		c11.6,25.3,41.4,36.4,66.7,24.9c11-5,19.8-13.9,24.9-24.9H18.1z"/>
	<path style="clip-path:url(#SVGID_00000154406912386796932010000003524669102780781215_);fill:#1A1A1A;" d="M64.8,52.9
		c-29.1,0-52.7,23.6-52.7,52.7c0,29.1,23.6,52.7,52.7,52.7s52.7-23.6,52.7-52.7c0,0,0,0,0,0C117.4,76.5,93.9,52.9,64.8,52.9z
		 M64.8,54.5c28.2,0,51.1,22.9,51.1,51.1S93,156.7,64.8,156.7s-51.1-22.9-51.1-51.1c0,0,0,0,0,0C13.6,77.3,36.5,54.5,64.8,54.5
		C64.7,54.4,64.7,54.4,64.8,54.5z"/>
	<path style="clip-path:url(#SVGID_00000154406912386796932010000003524669102780781215_);fill:#1A1A1A;" d="M54.7,32.9v5.3
		c5.1,0.3,9.9,0.4,15.1,0.8c6.4,0.5,10.3,2.3,12.6,4.6c2.1,2.2,3.3,5.2,3.2,8.2c0,5.4-2.9,9.1-7.9,11.5c-5.1,2.5-12.2,3.3-19.5,2.2
		c-1.1-0.2-2.2-0.4-3.3-0.6v5.4c0.8,0.2,1.7,0.3,2.5,0.4c8.2,1.3,16.4,0.4,22.7-2.7s10.9-8.8,10.9-16.3c0.1-4.5-1.6-8.8-4.7-12
		c-3.4-3.4-8.6-5.7-15.9-6.2C64.6,33.2,59.7,33.2,54.7,32.9L54.7,32.9z"/>
	<path style="clip-path:url(#SVGID_00000154406912386796932010000003524669102780781215_);fill:#1A1A1A;" d="M35.6,29.7l1.7,4.7
		l0.4,1.2c-4.7-0.6-9.3-1.6-13.8-3l-4.1-1.4l0.6,4.3c2.8,21,19.7,32.5,36,35.3v-5.4c-13-2.5-25.9-11-29.7-26.4
		c4.9,1.5,10,2.3,15.1,2.3h3.8L44,36.9c4.1,0.7,8.3,1.1,12.4,1.3V33c-5.4-0.2-10.7-0.9-15.9-2.1L35.6,29.7z"/>
	<path style="clip-path:url(#SVGID_00000154406912386796932010000003524669102780781215_);fill:#595959;" d="M39.8,33.5l1.9,5
		c-8.6,0-18.6-3.5-18.6-3.5c5.3,40.1,65.1,42.6,65.1,16.8c0-7.3-4.4-14.5-18.2-15.5C59.6,35.5,51,36.2,39.8,33.5z"/>
	<path style="clip-path:url(#SVGID_00000154406912386796932010000003524669102780781215_);fill:#797979;" d="M39.8,33.5l1.9,5
		c-8.6,0-18.6-3.5-18.6-3.5C37,53.2,78,55.5,85.3,42.9c-2.7-3.5-7.5-6.1-15.3-6.6C59.6,35.5,51,36.2,39.8,33.5z"/>
	<path style="clip-path:url(#SVGID_00000154406912386796932010000003524669102780781215_);fill:#3E3E3E;" d="M23.1,35
		c5.3,40.1,65.1,42.6,65.1,16.8c0-1.2-0.1-2.4-0.4-3.5C78.2,71.4,30.1,61.2,23.1,35z"/>
	<path style="clip-path:url(#SVGID_00000154406912386796932010000003524669102780781215_);fill:#1A1A1A;" d="M54.7,34.9v1.3
		c5,0.3,9.9,0.3,15.2,0.7c6.8,0.5,11.2,2.5,13.8,5.2c2.5,2.6,3.8,6.1,3.7,9.6c0,6.2-3.5,10.6-9,13.3c-5.5,2.7-13.1,3.6-20.8,2.4
		c-1-0.2-2-0.3-3-0.6v1.4c0.9,0.2,1.9,0.4,2.8,0.5c7.9,1.2,15.7,0.4,21.5-2.5s9.8-7.8,9.8-14.5c0.1-3.9-1.4-7.7-4.1-10.6
		c-3-3-7.7-5.1-14.7-5.6C64.6,35.2,59.7,35.2,54.7,34.9z"/>
	<path style="clip-path:url(#SVGID_00000154406912386796932010000003524669102780781215_);fill:#1A1A1A;" d="M38.8,32.5l0.4,1.2
		l1.5,4.1c-8.2-0.2-17.5-3.4-17.5-3.4l-1-0.4l0.1,1.1c2.6,19.9,18.5,30.7,34,33.5v-1.3C41.7,64.6,26.8,54.5,23.9,36
		c1.5,0.5,9.8,3.3,17.8,3.2h1l-1.8-4.8c5.1,1.1,10.3,1.8,15.5,2V35c-5.5-0.2-11-0.9-16.4-2.2L38.8,32.5z"/>
	<path style="clip-path:url(#SVGID_00000154406912386796932010000003524669102780781215_);fill:#1A1A1A;" d="M40.7,82.4
		c-1.2,1.5-1.9,3.5-1.9,5.4v4.4c-0.2,4.8,3.6,8.8,8.4,9s8.8-3.6,9-8.4c0-0.2,0-0.4,0-0.6v-3.3L40.7,82.4z"/>
	<path style="clip-path:url(#SVGID_00000154406912386796932010000003524669102780781215_);fill:#FFFFFF;" d="M49.8,87.4
		c-1.5,0-2.8,1.2-2.8,2.8c0,0,0,0,0,0c0,1.5,1.3,2.8,2.8,2.8c0,0,0,0,0,0c1.6,0,2.8-1.3,2.8-2.8C52.6,88.6,51.3,87.4,49.8,87.4
		L49.8,87.4L49.8,87.4z"/>
	<path style="clip-path:url(#SVGID_00000154406912386796932010000003524669102780781215_);fill:#1A1A1A;" d="M90.2,82.4l-15.5,6.4
		v3.3c-0.2,4.8,3.6,8.8,8.4,9s8.8-3.6,9-8.4c0-0.2,0-0.4,0-0.6v-4.4C92.1,85.8,91.5,83.9,90.2,82.4z"/>
	<path style="clip-path:url(#SVGID_00000154406912386796932010000003524669102780781215_);fill:#FFFFFF;" d="M85.7,87.4
		c-1.6,0-2.8,1.2-2.8,2.8c0,0.8,0.3,1.5,0.8,2c0.5,0.5,1.3,0.8,2,0.8c1.6,0,2.8-1.3,2.8-2.8C88.5,88.6,87.2,87.4,85.7,87.4z"/>
	<path style="clip-path:url(#SVGID_00000154406912386796932010000003524669102780781215_);fill:#FFFFFF;" d="M52.8,124.3
		c-1.5,0-2.6-1.2-2.6-2.6c0,0,0,0,0,0v-3c0-8.5,6.9-15.3,15.4-15.3c8.5,0,15.3,6.9,15.3,15.3v3c0,1.5-1.2,2.6-2.6,2.7c0,0,0,0,0,0
		H52.8z"/>
	<path style="clip-path:url(#SVGID_00000154406912386796932010000003524669102780781215_);fill:#BADBE9;" d="M68.4,124.3L68.4,124.3
		c0,0,2.6-5,0-9.6c3.2-5.1,0.4-11,0.4-11c7,1.6,12,7.8,12,15v3c0,1.5-1.2,2.6-2.6,2.7c0,0,0,0,0,0L68.4,124.3z"/>
	<path style="clip-path:url(#SVGID_00000154406912386796932010000003524669102780781215_);fill:#1A1A1A;" d="M76,124.3L76,124.3
		c1.7-2,1.7-5,0-7.1c3.4-3.2,0.2-9.5,0.2-9.5c2.9,2.9,4.6,6.8,4.6,10.9v3c0,1.5-1.2,2.6-2.6,2.7c0,0,0,0,0,0L76,124.3z"/>
	<path style="clip-path:url(#SVGID_00000154406912386796932010000003524669102780781215_);fill:#1A1A1A;" d="M54.9,124.3L54.9,124.3
		c-1.7-2-1.7-5,0-7.1c-3.4-3.2-0.2-9.5-0.2-9.5c-2.9,2.9-4.6,6.8-4.6,10.9v3c0,1.5,1.2,2.6,2.6,2.6c0,0,0,0,0,0L54.9,124.3z"/>
	<path style="clip-path:url(#SVGID_00000154406912386796932010000003524669102780781215_);fill:#1A1A1A;" d="M65.5,102.4h-0.6v1.7
		h0.6c8,0,14.5,6.4,14.5,14.4c0,0,0,0.1,0,0.1v3c0,1-0.8,1.8-1.7,1.8c0,0,0,0-0.1,0H64.9v1.7h13.3c1.9,0,3.5-1.6,3.5-3.5v-3
		C81.6,109.7,74.4,102.4,65.5,102.4z"/>
	<path style="clip-path:url(#SVGID_00000154406912386796932010000003524669102780781215_);fill:#1A1A1A;" d="M65.5,102.4
		c-8.9,0-16.2,7.2-16.2,16.2v3c0,1.9,1.6,3.5,3.5,3.5h13.3v-1.7H52.8c-1,0-1.8-0.8-1.8-1.8c0,0,0,0,0-0.1v-3c0-8,6.5-14.5,14.5-14.5
		c0,0,0,0,0,0h0.6v-1.7H65.5z"/>
	<path style="clip-path:url(#SVGID_00000154406912386796932010000003524669102780781215_);fill:#1A1A1A;" d="M83.2,161.9v5.9h-9v6.2
		h9v6h-9.5c-3,0-5.4-2.4-5.4-5.4v-7.4c0-3,2.4-5.4,5.4-5.4L83.2,161.9z"/>
	<path style="clip-path:url(#SVGID_00000154406912386796932010000003524669102780781215_);fill:#1A1A1A;" d="M170,146.4
		c13.5-0.3,24.7,10.4,24.9,23.9S184.5,195,171,195.3c-0.3,0-0.7,0-1,0h-0.5v-5.9h0.5c10.2,0,18.5-8.3,18.5-18.5
		c0-10.2-8.3-18.5-18.5-18.5h-0.5v-5.9H170z"/>
	
		<rect x="93.9" y="168.6" style="clip-path:url(#SVGID_00000154406912386796932010000003524669102780781215_);fill:#1A1A1A;" width="6.3" height="4.4"/>
	
		<rect x="140.6" y="168.6" style="clip-path:url(#SVGID_00000154406912386796932010000003524669102780781215_);fill:#1A1A1A;" width="6.3" height="4.4"/>
	<path style="clip-path:url(#SVGID_00000154406912386796932010000003524669102780781215_);fill:#1A1A1A;" d="M170,146.4h0.5v5.9H170
		c-10.2-0.2-18.7,7.9-19,18.1c-0.2,10.2,7.9,18.7,18.1,19c0.3,0,0.6,0,0.9,0h0.5v5.9H170c-13.5,0-24.4-10.9-24.4-24.4
		S156.5,146.4,170,146.4L170,146.4z"/>
	<path style="clip-path:url(#SVGID_00000154406912386796932010000003524669102780781215_);fill:#555555;" d="M148.5,170.8
		c0,11.9,9.6,21.5,21.5,21.5c11.9,0,21.5-9.6,21.5-21.5c0-11.9-9.6-21.5-21.5-21.5c0,0,0,0,0,0C158.1,149.4,148.5,159,148.5,170.8
		L148.5,170.8z"/>
	<path style="clip-path:url(#SVGID_00000154406912386796932010000003524669102780781215_);fill:#797979;" d="M160.8,165.8
		c0,7.9,6.4,14.3,14.2,14.3c7.9,0,14.3-6.4,14.3-14.2c0-7.9-6.4-14.3-14.2-14.3c-3.8,0-7.4,1.5-10.1,4.1
		C162.3,158.4,160.8,162,160.8,165.8L160.8,165.8z"/>
	<path style="clip-path:url(#SVGID_00000154406912386796932010000003524669102780781215_);fill:#1A1A1A;" d="M170,148.6h0.5v1.5H170
		c-11.5,0.3-20.5,9.7-20.3,21.2c0.2,11.1,9.2,20,20.3,20.3h0.5v1.5H170c-12.3-0.3-22-10.4-21.8-22.7
		C148.5,158.5,158.1,148.9,170,148.6z"/>
	<path style="clip-path:url(#SVGID_00000154406912386796932010000003524669102780781215_);fill:#FFFFFF;" d="M172.6,162.1
		c0,3.4,2.7,6.1,6.1,6.1s6.1-2.7,6.1-6.1c0-3.4-2.7-6.1-6.1-6.1C175.3,156,172.6,158.8,172.6,162.1
		C172.6,162.1,172.6,162.1,172.6,162.1z"/>
	<path style="clip-path:url(#SVGID_00000154406912386796932010000003524669102780781215_);fill:#1A1A1A;" d="M91.6,161.9
		c3,0,5.4,2.4,5.4,5.4v7.4c0,3-2.4,5.4-5.4,5.4h-9.5v-6h8.9v-6.3h-8.9v-5.9L91.6,161.9z"/>
	<path style="clip-path:url(#SVGID_00000154406912386796932010000003524669102780781215_);fill:#797979;" d="M94,174.6v-7.4
		c0-1.3-1.1-2.4-2.4-2.4H73.7c-1.3,0-2.4,1.1-2.4,2.4v7.4c0,1.3,1.1,2.4,2.4,2.4h17.9C92.9,177,94,175.9,94,174.6z"/>
	<path style="clip-path:url(#SVGID_00000154406912386796932010000003524669102780781215_);fill:#555555;" d="M78.5,164.8V177h-4.8
		c-1.3,0-2.4-1.1-2.4-2.4v-7.4c0-1.3,1.1-2.4,2.4-2.4H78.5z"/>
	
		<rect x="85.9" y="164.8" style="clip-path:url(#SVGID_00000154406912386796932010000003524669102780781215_);fill:#FFFFFF;" width="4.3" height="12.2"/>
	<path style="clip-path:url(#SVGID_00000154406912386796932010000003524669102780781215_);fill:#1A1A1A;" d="M83.2,164.1v1.5h-9.5
		c-0.9,0-1.7,0.7-1.7,1.6c0,0,0,0,0,0v7.4c0,0.9,0.7,1.7,1.6,1.7c0,0,0,0,0,0h9.5v1.5h-9.5c-1.7,0-3.2-1.4-3.2-3.2v-7.4
		c0-1.7,1.4-3.2,3.2-3.2L83.2,164.1z"/>
	<path style="clip-path:url(#SVGID_00000154406912386796932010000003524669102780781215_);fill:#1A1A1A;" d="M107.4,164.4v4.4h-2.9
		c-1.1-0.2-2.1,0.6-2.3,1.7c-0.2,1.1,0.6,2.1,1.7,2.3c0.2,0,0.4,0,0.6,0h2.9v4.4h-2.9c-3.5,0.1-6.5-2.6-6.7-6.2
		c-0.1-3.5,2.6-6.5,6.2-6.7c0.2,0,0.3,0,0.5,0H107.4z"/>
	<path style="clip-path:url(#SVGID_00000154406912386796932010000003524669102780781215_);fill:#1A1A1A;" d="M120.9,164.4v4.4H118
		c-1.1-0.2-2.1,0.6-2.3,1.7c-0.2,1.1,0.6,2.1,1.7,2.3c0.2,0,0.4,0,0.6,0h2.9v4.4H118c-3.5,0.1-6.5-2.6-6.7-6.2
		c-0.1-3.5,2.6-6.5,6.2-6.7c0.2,0,0.3,0,0.5,0H120.9z"/>
	<path style="clip-path:url(#SVGID_00000154406912386796932010000003524669102780781215_);fill:#1A1A1A;" d="M134.4,164.4v4.4h-2.9
		c-1.1-0.2-2.1,0.6-2.3,1.7c-0.2,1.1,0.6,2.1,1.7,2.3c0.2,0,0.4,0,0.6,0h2.9v4.4h-2.9c-3.5,0.1-6.5-2.6-6.7-6.2
		c-0.1-3.5,2.6-6.5,6.2-6.7c0.2,0,0.3,0,0.5,0H134.4z"/>
	<path style="clip-path:url(#SVGID_00000154406912386796932010000003524669102780781215_);fill:#1A1A1A;" d="M170,148.6
		c12.3,0.3,22,10.4,21.8,22.7c-0.3,11.9-9.8,21.5-21.8,21.8h-0.5v-1.5h0.5c11.5-0.3,20.5-9.7,20.3-21.2c-0.2-11.1-9.2-20-20.3-20.3
		h-0.5v-1.5H170z"/>
	<path style="clip-path:url(#SVGID_00000154406912386796932010000003524669102780781215_);fill:#1A1A1A;" d="M91.6,164.1
		c1.7,0,3.2,1.4,3.2,3.2v7.4c0,1.7-1.4,3.2-3.2,3.2h-9.5v-1.5h9.5c0.9,0,1.7-0.7,1.7-1.6c0,0,0,0,0,0v-7.4c0-0.9-0.7-1.7-1.6-1.7
		c0,0,0,0-0.1,0h-9.5v-1.5L91.6,164.1z"/>
	<path style="clip-path:url(#SVGID_00000154406912386796932010000003524669102780781215_);fill:#1A1A1A;" d="M136.2,164.4
		c3.5-0.1,6.5,2.6,6.7,6.2s-2.6,6.5-6.2,6.7c-0.2,0-0.3,0-0.5,0h-2.9v-4.4h2.9c1.1,0.2,2.1-0.6,2.3-1.7c0.2-1.1-0.6-2.1-1.7-2.3
		c-0.2,0-0.4,0-0.6,0h-2.9v-4.4H136.2z"/>
	<path style="clip-path:url(#SVGID_00000154406912386796932010000003524669102780781215_);fill:#1A1A1A;" d="M122.8,164.4
		c3.5-0.1,6.5,2.6,6.7,6.2s-2.6,6.5-6.2,6.7c-0.2,0-0.3,0-0.5,0h-2.9v-4.4h2.9c1.1,0.2,2.1-0.6,2.3-1.7c0.2-1.1-0.6-2.1-1.7-2.3
		c-0.2,0-0.4,0-0.6,0h-2.9v-4.4H122.8z"/>
	<path style="clip-path:url(#SVGID_00000154406912386796932010000003524669102780781215_);fill:#1A1A1A;" d="M109.3,164.4
		c3.5-0.1,6.5,2.6,6.7,6.2c0.1,3.5-2.6,6.5-6.2,6.7c-0.2,0-0.3,0-0.5,0h-2.9v-4.4h2.9c1.1,0.2,2.1-0.6,2.3-1.7
		c0.2-1.1-0.6-2.1-1.7-2.3c-0.2,0-0.4,0-0.6,0h-2.9v-4.4H109.3z"/>
	<g style="clip-path:url(#SVGID_00000154406912386796932010000003524669102780781215_);enable-background:new    ;">
		<text transform="matrix(1 0 0 1 11.3 260.42)" class="st12 st13 st14">okupowani</text>
	</g>
	<g style="clip-path:url(#SVGID_00000154406912386796932010000003524669102780781215_);enable-background:new    ;">
		<text transform="matrix(1 0 0 1 50.58 227.77)" class="st12 st13 st14">zostali</text>
	</g>
	<path style="clip-path:url(#SVGID_00000154406912386796932010000003524669102780781215_);fill:#1A1A1A;" d="M150.6,0h29h16v16
		c0,7,0,14,0,21c-10.2,12.4-28.6,14.2-41,4S140.4,12.4,150.6,0z"/>
	<g style="clip-path:url(#SVGID_00000154406912386796932010000003524669102780781215_);enable-background:new    ;">
		<text transform="matrix(1 0 0 1 161.82 31.65)" class="st15 st13 st16">02</text>
	</g>
</g>
</svg>
