<?xml version="1.0" encoding="utf-8"?>
<!-- Generator: Adobe Illustrator 26.0.3, SVG Export Plug-In . SVG Version: 6.00 Build 0)  -->
<svg version="1.1" id="Слой_1" xmlns="http://www.w3.org/2000/svg" xmlns:xlink="http://www.w3.org/1999/xlink" x="0px" y="0px"
	 viewBox="0 0 195.6 280.6" style="enable-background:new 0 0 195.6 280.6;" xml:space="preserve">
<style type="text/css">
	.st0{clip-path:url(#SVGID_00000050627800342259901570000016954513818200309935_);fill:#EB5A53;}
	.st1{clip-path:url(#SVGID_00000050627800342259901570000016954513818200309935_);fill:#FFFFFF;}
	.st2{clip-path:url(#SVGID_00000050627800342259901570000016954513818200309935_);fill:#67B54B;}
	.st3{clip-path:url(#SVGID_00000050627800342259901570000016954513818200309935_);fill:#1A1A1A;}
	.st4{clip-path:url(#SVGID_00000050627800342259901570000016954513818200309935_);fill:#88C05C;}
	.st5{clip-path:url(#SVGID_00000050627800342259901570000016954513818200309935_);fill:#595959;}
	.st6{clip-path:url(#SVGID_00000050627800342259901570000016954513818200309935_);fill:#797979;}
	.st7{clip-path:url(#SVGID_00000050627800342259901570000016954513818200309935_);fill:#3E3E3E;}
	.st8{clip-path:url(#SVGID_00000050627800342259901570000016954513818200309935_);enable-background:new    ;}
	.st9{fill:#FFFFFF;}
	.st10{font-family:'Impact';}
	.st11{font-size:29.2px;}
	.st12{font-size:20px;}
</style>
<g>
	<defs>
		<rect id="SVGID_1_" x="0" y="0" width="195.6" height="280.6"/>
	</defs>
	<clipPath id="SVGID_00000145049134731721316270000014559410060269931141_">
		<use xlink:href="#SVGID_1_"  style="overflow:visible;"/>
	</clipPath>
	
		<rect x="-1.5" y="138.7" style="clip-path:url(#SVGID_00000145049134731721316270000014559410060269931141_);fill:#EB5A53;" width="198.7" height="140.3"/>
	
		<rect x="-1.5" y="0" style="clip-path:url(#SVGID_00000145049134731721316270000014559410060269931141_);fill:#FFFFFF;" width="198.7" height="140.3"/>
	<path style="clip-path:url(#SVGID_00000145049134731721316270000014559410060269931141_);fill:#FFFFFF;" d="M151.6,134.5h-0.2h-0.1
		h-0.1H151h-0.1h-0.1h-0.1h-0.1l-0.1,0.1l-0.1,0.1l-0.1,0.1l-0.1,0.1l-0.1,0.1l-0.1,0.1l-0.1,0.1l-0.1,0.1l-0.1,0.1l-0.1,0.1
		c0,0,0,0.1-0.1,0.1l-0.1,0.1l-0.1,0.1c0,0,0,0.1,0,0.1v0.1c0,0,0,0.1-0.1,0.1l0,0l0,0v0.1c0,0,0,0.1,0,0.1c0,0,0,0.1,0,0.1
		s0,0.1,0,0.1v0.3c0,0,0,0.1,0,0.1s0,0.1,0,0.1s0,0.1,0,0.1v0.1v0.1c0,0,0,0.1,0,0.1v0.1v0.1c0,0,0,0.1,0,0.1l0.1,0.1l0.1,0.1
		l0.1,0.1l0.1,0.1l0.1,0.1l0.1,0.1l0.1,0.1l0.1,0.1l0.1,0.1l0.1,0.1l0.1,0.1l0.1,0.1h0.1h0.1h0.1l0,0l0,0h0.1h0.1h0.1h0.5h0.1h0.1
		h0.1h0.1h0.1h0.1h0.1h0.1l0.1-0.1l0.1-0.1l0.1-0.1l0.1-0.1c0,0,0.1-0.1,0.1-0.1l0.1-0.1l0.1-0.1l0.1-0.1l0.1-0.1c0,0,0-0.1,0.1-0.1
		l0.1-0.1v-0.1c0,0,0-0.1,0-0.1c0,0,0-0.1,0-0.1c0,0,0-0.1,0-0.1V137v-0.1c0,0,0-0.1,0-0.1c0,0,0-0.1,0-0.1s0-0.1,0-0.1v-0.3
		c0,0,0-0.1,0-0.1s0-0.1,0-0.1s0-0.1,0-0.1v-0.1v-0.1v-0.1c0,0,0-0.1,0-0.1v-0.1l-0.1-0.1c0,0,0-0.1-0.1-0.1l-0.1-0.1l-0.1-0.1
		c0,0,0-0.1-0.1-0.1l-0.1-0.1c0,0-0.1-0.1-0.1-0.1l0.1,0.2l-0.1-0.1l-0.1-0.1l-0.1-0.1l-0.1-0.1h-0.1h-0.1h-0.1h-0.1l0,0h-0.1H152
		h-0.1h-0.1h-0.1L151.6,134.5z"/>
	<path style="clip-path:url(#SVGID_00000145049134731721316270000014559410060269931141_);fill:#FFFFFF;" d="M151.6,134.5h-0.1h-0.1
		h-0.1h-0.1H151h-0.1h-0.1h-0.1h-0.1l-0.1,0.1l-0.1,0.1l-0.1,0.1l-0.1,0.1l-0.1,0.1l-0.1,0.1l-0.1,0.1l-0.1,0.1l-0.1,0.1l-0.1,0.1
		c0,0,0,0.1-0.1,0.1l-0.1,0.1l-0.1,0.1v0.1c0,0,0,0.1,0,0.1c0,0,0,0.1-0.1,0.1l0,0v0.1c0,0,0,0.1,0,0.1c0,0,0,0.1,0,0.1s0,0.1,0,0.1
		v0.3c0,0,0,0.1,0,0.1s0,0.1,0,0.1s0,0.1,0,0.1v0.1v0.1c0,0,3991.2-1596.3,0.1,0.2c0,0,0,0.1,0,0.1c0,0,0,0.1,0,0.1l0.1,0.1l0.1,0.1
		l0.1,0.1l0.1,0.1l0.1,0.1l0.1,0.1c0,0,8297.6-9482.9,0.2,0.1l0.1,0.1l0.1,0.1l0.1,0.1l0.1,0.1h0.1h0.1l0.1,0.1l0,0l0,0h0.1h0.1h0.1
		h0.1h0.4h0.1h0.1h0.1h0.1h0.1h0.1h0.1h0.1l0.1-0.1l0.1-0.1l0.1-0.1l0.1-0.1c0,0,0.1-0.1,0.1-0.1l0.1-0.1l0.1-0.1l0.1-0.1l0.1-0.1
		c0,0,0-0.1,0.1-0.1l0.1-0.1v-0.1c0,0,0-0.1,0-0.1c0,0,0-0.1,0-0.1c0,0,0-0.1,0-0.1V137v-0.1c0,0,0-0.1,0-0.1c0,0,0-0.1,0-0.1
		s0-0.1,0-0.1v-0.3c0,0,0-0.1,0-0.1s0-0.1,0-0.1s0-0.1,0-0.1v-0.1v-0.1v-0.1c0,0,0-0.1,0-0.1v-0.1l-0.1-0.1c0,0,0-0.1-0.1-0.1
		l-0.1-0.1l-0.1-0.1c0,0,0-0.1-0.1-0.1L153,135c0,0-0.1-0.1-0.1-0.1l0.1,0.1l-0.1-0.1l-0.1-0.1l-0.1-0.1l-0.1-0.1h-0.1h-0.1h-0.1
		h-0.1l0,0h-0.1H152h-0.1h-0.1h-0.1L151.6,134.5z"/>
	<path style="clip-path:url(#SVGID_00000145049134731721316270000014559410060269931141_);fill:#FFFFFF;" d="M151.6,134.5h-0.1h-0.1
		h-0.1h-0.1H151h-0.1h-0.1h-0.1h-0.1l-0.1,0.1l-0.1,0.1l-0.1,0.1l-0.1,0.1l-0.1,0.1l-0.1,0.1l-0.1,0.1l-0.1,0.1l-0.1,0.1l-0.1,0.1
		c0,0,0,0.1-0.1,0.1l-0.1,0.1l-0.1,0.1v0.1c0,0,0,0.1,0,0.1c0,0,0,0.1-0.1,0.1l0,0v0.1c0,0,0,0.1,0,0.1c0,0,0,0.1,0,0.1s0,0.1,0,0.1
		v0.3c0,0,0,0.1,0,0.1s0,0.1,0,0.1s0,0.1,0,0.1v0.1v0.1c0,0,3991.2-1596.3,0.1,0.2c0,0,0,0.1,0,0.1c0,0,0,0.1,0,0.1l0.1,0.1l0.1,0.1
		l0.1,0.1l0.1,0.1l0.1,0.1l0.1,0.1c0,0,8297.6-9482.9,0.2,0.1l0.1,0.1l0.1,0.1l0.1,0.1l0.1,0.1h0.1h0.1l0.1,0.1l0,0l0,0h0.1h0.1h0.1
		h0.1h0.4h0.1h0.1h0.1h0.1h0.1h0.1h0.1h0.1l0.1-0.1l0.1-0.1l0.1-0.1l0.1-0.1c0,0,0.1-0.1,0.1-0.1l0.1-0.1l0.1-0.1l0.1-0.1l0.1-0.1
		c0,0,0-0.1,0.1-0.1l0.1-0.1v-0.1c0,0,0-0.1,0-0.1c0,0,0-0.1,0-0.1c0,0,0-0.1,0-0.1V137v-0.1c0,0,0-0.1,0-0.1c0,0,0-0.1,0-0.1
		s0-0.1,0-0.1v-0.3c0,0,0-0.1,0-0.1s0-0.1,0-0.1s0-0.1,0-0.1v-0.1v-0.1v-0.1c0,0,0-0.1,0-0.1v-0.1l-0.1-0.1c0,0,0-0.1-0.1-0.1
		l-0.1-0.1l-0.1-0.1c0,0,0-0.1-0.1-0.1L153,135c0,0-0.1-0.1-0.1-0.1l0.1,0.1l-0.1-0.1l-0.1-0.1l-0.1-0.1l-0.1-0.1h-0.1h-0.1h-0.1
		h-0.1l0,0h-0.1H152h-0.1h-0.1h-0.1L151.6,134.5z"/>
	<path style="clip-path:url(#SVGID_00000145049134731721316270000014559410060269931141_);fill:#FFFFFF;" d="M151.6,134.5h-0.1h-0.1
		h-0.1h-0.1H151h-0.1h-0.1h-0.1h-0.1l-0.1,0.1l-0.1,0.1l-0.1,0.1l-0.1,0.1l-0.1,0.1l-0.1,0.1l-0.1,0.1l-0.1,0.1l-0.1,0.1l-0.1,0.1
		c0,0,0,0.1-0.1,0.1l-0.1,0.1l-0.1,0.1v0.1c0,0,0,0.1,0,0.1c0,0,0,0.1-0.1,0.1l0,0v0.1c0,0,0,0.1,0,0.1c0,0,0,0.1,0,0.1s0,0.1,0,0.1
		v0.3c0,0,0,0.1,0,0.1s0,0.1,0,0.1s0,0.1,0,0.1v0.1v0.1c0,0,3991.2-1596.3,0.1,0.2c0,0,0,0.1,0,0.1c0,0,0,0.1,0,0.1l0.1,0.1l0.1,0.1
		l0.1,0.1l0.1,0.1l0.1,0.1l0.1,0.1c0,0,8297.6-9482.9,0.2,0.1l0.1,0.1l0.1,0.1l0.1,0.1l0.1,0.1h0.1h0.1l0.1,0.1l0,0l0,0h0.1h0.1h0.1
		h0.1h0.4h0.1h0.1h0.1h0.1h0.1h0.1h0.1h0.1l0.1-0.1l0.1-0.1l0.1-0.1l0.1-0.1c0,0,0.1-0.1,0.1-0.1l0.1-0.1l0.1-0.1l0.1-0.1l0.1-0.1
		c0,0,0-0.1,0.1-0.1l0.1-0.1v-0.1c0,0,0-0.1,0-0.1c0,0,0-0.1,0-0.1c0,0,0-0.1,0-0.1V137v-0.1c0,0,0-0.1,0-0.1c0,0,0-0.1,0-0.1
		s0-0.1,0-0.1v-0.3c0,0,0-0.1,0-0.1s0-0.1,0-0.1s0-0.1,0-0.1v-0.1v-0.1v-0.1c0,0,0-0.1,0-0.1v-0.1l-0.1-0.1c0,0,0-0.1-0.1-0.1
		l-0.1-0.1l-0.1-0.1c0,0,0-0.1-0.1-0.1L153,135c0,0-0.1-0.1-0.1-0.1l0.1,0.1l-0.1-0.1l-0.1-0.1l-0.1-0.1l-0.1-0.1h-0.1h-0.1h-0.1
		h-0.1l0,0h-0.1H152h-0.1h-0.1h-0.1L151.6,134.5z"/>
	<path style="clip-path:url(#SVGID_00000145049134731721316270000014559410060269931141_);fill:#FFFFFF;" d="M151.6,134.5h-0.1h-0.1
		h-0.1h-0.1H151h-0.1h-0.1h-0.1h-0.1l-0.1,0.1l-0.1,0.1l-0.1,0.1l-0.1,0.1l-0.1,0.1l-0.1,0.1l-0.1,0.1l-0.1,0.1l-0.1,0.1l-0.1,0.1
		c0,0,0,0.1-0.1,0.1l-0.1,0.1l-0.1,0.1v0.1c0,0,0,0.1,0,0.1c0,0,0,0.1-0.1,0.1l0,0v0.1c0,0,0,0.1,0,0.1c0,0,0,0.1,0,0.1s0,0.1,0,0.1
		v0.3c0,0,0,0.1,0,0.1s0,0.1,0,0.1s0,0.1,0,0.1v0.1v0.1c0,0,3991.2-1596.3,0.1,0.2c0,0,0,0.1,0,0.1c0,0,0,0.1,0,0.1l0.1,0.1l0.1,0.1
		l0.1,0.1l0.1,0.1l0.1,0.1l0.1,0.1c0,0,8297.6-9482.9,0.2,0.1l0.1,0.1l0.1,0.1l0.1,0.1l0.1,0.1h0.1h0.1l0.1,0.1l0,0l0,0h0.1h0.1h0.1
		h0.1h0.4h0.1h0.1h0.1h0.1h0.1h0.1h0.1h0.1l0.1-0.1l0.1-0.1l0.1-0.1l0.1-0.1c0,0,0.1-0.1,0.1-0.1l0.1-0.1l0.1-0.1l0.1-0.1l0.1-0.1
		c0,0,0-0.1,0.1-0.1l0.1-0.1v-0.1c0,0,0-0.1,0-0.1c0,0,0-0.1,0-0.1c0,0,0-0.1,0-0.1V137v-0.1c0,0,0-0.1,0-0.1c0,0,0-0.1,0-0.1
		s0-0.1,0-0.1v-0.3c0,0,0-0.1,0-0.1s0-0.1,0-0.1s0-0.1,0-0.1v-0.1v-0.1v-0.1c0,0,0-0.1,0-0.1v-0.1l-0.1-0.1c0,0,0-0.1-0.1-0.1
		l-0.1-0.1l-0.1-0.1c0,0,0-0.1-0.1-0.1L153,135c0,0-0.1-0.1-0.1-0.1l0.1,0.1l-0.1-0.1l-0.1-0.1l-0.1-0.1l-0.1-0.1h-0.1h-0.1h-0.1
		h-0.1l0,0h-0.1H152h-0.1h-0.1h-0.1L151.6,134.5z"/>
	<path style="clip-path:url(#SVGID_00000145049134731721316270000014559410060269931141_);fill:#FFFFFF;" d="M151.6,134.5h-0.1h-0.1
		h-0.1h-0.1H151h-0.1h-0.1h-0.1h-0.1l-0.1,0.1l-0.1,0.1l-0.1,0.1l-0.1,0.1l-0.1,0.1l-0.1,0.1l-0.1,0.1l-0.1,0.1l-0.1,0.1l-0.1,0.1
		c0,0,0,0.1-0.1,0.1l-0.1,0.1l-0.1,0.1v0.1c0,0,0,0.1,0,0.1c0,0,0,0.1-0.1,0.1l0,0v0.1c0,0,0,0.1,0,0.1c0,0,0,0.1,0,0.1s0,0.1,0,0.1
		v0.3c0,0,0,0.1,0,0.1s0,0.1,0,0.1s0,0.1,0,0.1v0.1v0.1c0,0,3991.2-1596.3,0.1,0.2c0,0,0,0.1,0,0.1c0,0,0,0.1,0,0.1l0.1,0.1l0.1,0.1
		l0.1,0.1l0.1,0.1l0.1,0.1l0.1,0.1c0,0,8297.6-9482.9,0.2,0.1l0.1,0.1l0.1,0.1l0.1,0.1l0.1,0.1h0.1h0.1l0.1,0.1l0,0l0,0h0.1h0.1h0.1
		h0.1h0.4h0.1h0.1h0.1h0.1h0.1h0.1h0.1h0.1l0.1-0.1l0.1-0.1l0.1-0.1l0.1-0.1c0,0,0.1-0.1,0.1-0.1l0.1-0.1l0.1-0.1l0.1-0.1l0.1-0.1
		c0,0,0-0.1,0.1-0.1l0.1-0.1v-0.1c0,0,0-0.1,0-0.1c0,0,0-0.1,0-0.1c0,0,0-0.1,0-0.1V137v-0.1c0,0,0-0.1,0-0.1c0,0,0-0.1,0-0.1
		s0-0.1,0-0.1v-0.3c0,0,0-0.1,0-0.1s0-0.1,0-0.1s0-0.1,0-0.1v-0.1v-0.1v-0.1c0,0,0-0.1,0-0.1v-0.1l-0.1-0.1c0,0,0-0.1-0.1-0.1
		l-0.1-0.1l-0.1-0.1c0,0,0-0.1-0.1-0.1L153,135c0,0-0.1-0.1-0.1-0.1l0.1,0.1l-0.1-0.1l-0.1-0.1l-0.1-0.1l-0.1-0.1h-0.1h-0.1h-0.1
		h-0.1l0,0h-0.1H152h-0.1h-0.1h-0.1L151.6,134.5z"/>
	<path style="clip-path:url(#SVGID_00000145049134731721316270000014559410060269931141_);fill:#FFFFFF;" d="M151.6,134.5h-0.1h-0.1
		h-0.1h-0.1H151h-0.1h-0.1h-0.1h-0.1l-0.1,0.1l-0.1,0.1l-0.1,0.1l-0.1,0.1l-0.1,0.1l-0.1,0.1l-0.1,0.1l-0.1,0.1l-0.1,0.1l-0.1,0.1
		c0,0,0,0.1-0.1,0.1l-0.1,0.1l-0.1,0.1v0.1c0,0,0,0.1,0,0.1c0,0,0,0.1-0.1,0.1l0,0v0.1c0,0,0,0.1,0,0.1c0,0,0,0.1,0,0.1s0,0.1,0,0.1
		v0.3c0,0,0,0.1,0,0.1s0,0.1,0,0.1s0,0.1,0,0.1v0.1v0.1c0,0,3991.2-1596.3,0.1,0.2c0,0,0,0.1,0,0.1c0,0,0,0.1,0,0.1l0.1,0.1l0.1,0.1
		l0.1,0.1l0.1,0.1l0.1,0.1l0.1,0.1c0,0,8297.6-9482.9,0.2,0.1l0.1,0.1l0.1,0.1l0.1,0.1l0.1,0.1h0.1h0.1l0.1,0.1l0,0l0,0h0.1h0.1h0.1
		h0.1h0.4h0.1h0.1h0.1h0.1h0.1h0.1h0.1h0.1l0.1-0.1l0.1-0.1l0.1-0.1l0.1-0.1c0,0,0.1-0.1,0.1-0.1l0.1-0.1l0.1-0.1l0.1-0.1l0.1-0.1
		c0,0,0-0.1,0.1-0.1l0.1-0.1v-0.1c0,0,0-0.1,0-0.1c0,0,0-0.1,0-0.1c0,0,0-0.1,0-0.1V137v-0.1c0,0,0-0.1,0-0.1c0,0,0-0.1,0-0.1
		s0-0.1,0-0.1v-0.3c0,0,0-0.1,0-0.1s0-0.1,0-0.1s0-0.1,0-0.1v-0.1v-0.1v-0.1c0,0,0-0.1,0-0.1v-0.1l-0.1-0.1c0,0,0-0.1-0.1-0.1
		l-0.1-0.1l-0.1-0.1c0,0,0-0.1-0.1-0.1L153,135c0,0-0.1-0.1-0.1-0.1l0.1,0.1l-0.1-0.1l-0.1-0.1l-0.1-0.1l-0.1-0.1h-0.1h-0.1h-0.1
		h-0.1l0,0h-0.1H152h-0.1h-0.1h-0.1L151.6,134.5z"/>
	<path style="clip-path:url(#SVGID_00000145049134731721316270000014559410060269931141_);fill:#FFFFFF;" d="M151.6,134.5h-0.1h-0.1
		h-0.1h-0.1H151h-0.1h-0.1h-0.1h-0.1l-0.1,0.1l-0.1,0.1l-0.1,0.1l-0.1,0.1l-0.1,0.1l-0.1,0.1l-0.1,0.1l-0.1,0.1l-0.1,0.1l-0.1,0.1
		c0,0,0,0.1-0.1,0.1l-0.1,0.1l-0.1,0.1v0.1c0,0,0,0.1,0,0.1c0,0,0,0.1-0.1,0.1l0,0v0.1c0,0,0,0.1,0,0.1c0,0,0,0.1,0,0.1s0,0.1,0,0.1
		v0.3c0,0,0,0.1,0,0.1s0,0.1,0,0.1s0,0.1,0,0.1v0.1v0.1c0,0,3991.2-1596.3,0.1,0.2c0,0,0,0.1,0,0.1c0,0,0,0.1,0,0.1l0.1,0.1l0.1,0.1
		l0.1,0.1l0.1,0.1l0.1,0.1l0.1,0.1c0,0,8297.6-9482.9,0.2,0.1l0.1,0.1l0.1,0.1l0.1,0.1l0.1,0.1h0.1h0.1l0.1,0.1l0,0l0,0h0.1h0.1h0.1
		h0.1h0.4h0.1h0.1h0.1h0.1h0.1h0.1h0.1h0.1l0.1-0.1l0.1-0.1l0.1-0.1l0.1-0.1c0,0,0.1-0.1,0.1-0.1l0.1-0.1l0.1-0.1l0.1-0.1l0.1-0.1
		c0,0,0-0.1,0.1-0.1l0.1-0.1v-0.1c0,0,0-0.1,0-0.1c0,0,0-0.1,0-0.1c0,0,0-0.1,0-0.1V137v-0.1c0,0,0-0.1,0-0.1c0,0,0-0.1,0-0.1
		s0-0.1,0-0.1v-0.3c0,0,0-0.1,0-0.1s0-0.1,0-0.1s0-0.1,0-0.1v-0.1v-0.1v-0.1c0,0,0-0.1,0-0.1v-0.1l-0.1-0.1c0,0,0-0.1-0.1-0.1
		l-0.1-0.1l-0.1-0.1c0,0,0-0.1-0.1-0.1L153,135c0,0-0.1-0.1-0.1-0.1l0.1,0.1l-0.1-0.1l-0.1-0.1l-0.1-0.1l-0.1-0.1h-0.1h-0.1h-0.1
		h-0.1l0,0h-0.1H152h-0.1h-0.1h-0.1L151.6,134.5z"/>
	<path style="clip-path:url(#SVGID_00000145049134731721316270000014559410060269931141_);fill:#FFFFFF;" d="M151.6,134.5h-0.1h-0.1
		h-0.1h-0.1H151h-0.1h-0.1h-0.1h-0.1l-0.1,0.1l-0.1,0.1l-0.1,0.1l-0.1,0.1l-0.1,0.1l-0.1,0.1l-0.1,0.1l-0.1,0.1l-0.1,0.1l-0.1,0.1
		c0,0,0,0.1-0.1,0.1l-0.1,0.1l-0.1,0.1v0.1c0,0,0,0.1,0,0.1c0,0,0,0.1-0.1,0.1l0,0v0.1c0,0,0,0.1,0,0.1c0,0,0,0.1,0,0.1s0,0.1,0,0.1
		v0.3c0,0,0,0.1,0,0.1s0,0.1,0,0.1s0,0.1,0,0.1v0.1v0.1c0,0,3991.2-1596.3,0.1,0.2c0,0,0,0.1,0,0.1c0,0,0,0.1,0,0.1l0.1,0.1l0.1,0.1
		l0.1,0.1l0.1,0.1l0.1,0.1l0.1,0.1c0,0,8297.6-9482.9,0.2,0.1l0.1,0.1l0.1,0.1l0.1,0.1l0.1,0.1h0.1h0.1l0.1,0.1l0,0l0,0h0.1h0.1h0.1
		h0.1h0.4h0.1h0.1h0.1h0.1h0.1h0.1h0.1h0.1l0.1-0.1l0.1-0.1l0.1-0.1l0.1-0.1c0,0,0.1-0.1,0.1-0.1l0.1-0.1l0.1-0.1l0.1-0.1l0.1-0.1
		c0,0,0-0.1,0.1-0.1l0.1-0.1v-0.1c0,0,0-0.1,0-0.1c0,0,0-0.1,0-0.1c0,0,0-0.1,0-0.1V137v-0.1c0,0,0-0.1,0-0.1c0,0,0-0.1,0-0.1
		s0-0.1,0-0.1v-0.3c0,0,0-0.1,0-0.1s0-0.1,0-0.1s0-0.1,0-0.1v-0.1v-0.1v-0.1c0,0,0-0.1,0-0.1v-0.1l-0.1-0.1c0,0,0-0.1-0.1-0.1
		l-0.1-0.1l-0.1-0.1c0,0,0-0.1-0.1-0.1L153,135c0,0-0.1-0.1-0.1-0.1l0.1,0.1l-0.1-0.1l-0.1-0.1l-0.1-0.1l-0.1-0.1h-0.1h-0.1h-0.1
		h-0.1l0,0h-0.1H152h-0.1h-0.1h-0.1L151.6,134.5z"/>
	<path style="clip-path:url(#SVGID_00000145049134731721316270000014559410060269931141_);fill:#FFFFFF;" d="M151.6,134.5h-0.1h-0.1
		h-0.1h-0.1H151h-0.1h-0.1h-0.1h-0.1l-0.1,0.1l-0.1,0.1l-0.1,0.1l-0.1,0.1l-0.1,0.1l-0.1,0.1l-0.1,0.1l-0.1,0.1l-0.1,0.1l-0.1,0.1
		c0,0,0,0.1-0.1,0.1l-0.1,0.1l-0.1,0.1v0.1c0,0,0,0.1,0,0.1c0,0,0,0.1-0.1,0.1l0,0v0.1c0,0,0,0.1,0,0.1c0,0,0,0.1,0,0.1s0,0.1,0,0.1
		v0.3c0,0,0,0.1,0,0.1s0,0.1,0,0.1s0,0.1,0,0.1v0.1v0.1c0,0,3991.2-1596.3,0.1,0.2c0,0,0,0.1,0,0.1c0,0,0,0.1,0,0.1l0.1,0.1l0.1,0.1
		l0.1,0.1l0.1,0.1l0.1,0.1l0.1,0.1c0,0,8297.6-9482.9,0.2,0.1l0.1,0.1l0.1,0.1l0.1,0.1l0.1,0.1h0.1h0.1l0.1,0.1l0,0l0,0h0.1h0.1h0.1
		h0.1h0.4h0.1h0.1h0.1h0.1h0.1h0.1h0.1h0.1l0.1-0.1l0.1-0.1l0.1-0.1l0.1-0.1c0,0,0.1-0.1,0.1-0.1l0.1-0.1l0.1-0.1l0.1-0.1l0.1-0.1
		c0,0,0-0.1,0.1-0.1l0.1-0.1v-0.1c0,0,0-0.1,0-0.1c0,0,0-0.1,0-0.1c0,0,0-0.1,0-0.1V137v-0.1c0,0,0-0.1,0-0.1c0,0,0-0.1,0-0.1
		s0-0.1,0-0.1v-0.3c0,0,0-0.1,0-0.1s0-0.1,0-0.1s0-0.1,0-0.1v-0.1v-0.1v-0.1c0,0,0-0.1,0-0.1v-0.1l-0.1-0.1c0,0,0-0.1-0.1-0.1
		l-0.1-0.1l-0.1-0.1c0,0,0-0.1-0.1-0.1L153,135c0,0-0.1-0.1-0.1-0.1l0.1,0.1l-0.1-0.1l-0.1-0.1l-0.1-0.1l-0.1-0.1h-0.1h-0.1h-0.1
		h-0.1l0,0h-0.1H152h-0.1h-0.1h-0.1L151.6,134.5z"/>
	<path style="clip-path:url(#SVGID_00000145049134731721316270000014559410060269931141_);fill:#67B54B;" d="M168.1,207.2
		c3.5-13.1,10-14.2,14-13.1s9,5.2,5.5,18.3s-12.9,30.6-18.3,29.1S164.6,220.3,168.1,207.2z"/>
	<path style="clip-path:url(#SVGID_00000145049134731721316270000014559410060269931141_);fill:#1A1A1A;" d="M182.6,218.8
		c-1.6,4.2-3.5,8.3-5.8,12.2c-1.3,2.3-2.9,4.5-4.7,6.4c-0.5,0.6-1.2,1-1.9,1.3c-0.5-0.6-0.8-1.4-1-2.1c-0.6-2.6-0.9-5.3-0.9-7.9
		c0-4.5,0.4-9,1.1-13.4l-5.5-1.5c-0.8,5-1.3,10-1.2,15c0,3.2,0.3,6.3,1.1,9.4c0.8,2.7,2,5.3,4.9,6.1s5.3-0.9,7.3-2.8
		c2.2-2.3,4.1-4.8,5.7-7.6c2.5-4.3,4.7-8.9,6.4-13.6L182.6,218.8z"/>
	<path style="clip-path:url(#SVGID_00000145049134731721316270000014559410060269931141_);fill:#1A1A1A;" d="M182.8,191.4
		c-3.3-0.9-6.7-0.3-9.5,1.6c-3.3,2.3-6.1,6.5-7.9,13.4c-0.8,2.9-1.4,5.9-1.8,8.9l5.5,1.5c0.4-3,1-6,1.8-8.9c1.6-6.1,3.9-9,5.7-10.3
		c2.7-1.8,6.3-1.2,8.1,1.5c0.2,0.3,0.3,0.5,0.5,0.8c1,2,1.4,5.6-0.2,11.8c-0.8,2.9-1.8,5.8-2.9,8.6l5.5,1.5c1.1-2.8,2.1-5.7,2.9-8.6
		c1.9-6.9,1.6-12-0.1-15.6C188.8,194.5,186.1,192.2,182.8,191.4L182.8,191.4z"/>
	<path style="clip-path:url(#SVGID_00000145049134731721316270000014559410060269931141_);fill:#67B54B;" d="M115.5,212.4
		c-3.5-13.1,1.6-17.3,5.5-18.3s10.5,0,14,13.1s4.1,32.9-1.3,34.3S119.1,225.5,115.5,212.4L115.5,212.4z"/>
	<path style="clip-path:url(#SVGID_00000145049134731721316270000014559410060269931141_);fill:#1A1A1A;" d="M133.9,215.2
		c0.7,4.4,1.1,8.9,1.1,13.4c0,2.7-0.3,5.3-0.9,7.9c-0.2,0.8-0.5,1.5-1,2.1c-0.7-0.3-1.4-0.8-1.9-1.4c-1.8-1.9-3.4-4.1-4.7-6.4
		c-2.3-3.9-4.2-8-5.8-12.2l-5.5,1.5c1.7,4.7,3.9,9.2,6.4,13.6c1.6,2.8,3.5,5.3,5.7,7.6c2,1.9,4.4,3.6,7.3,2.8s4.2-3.4,5-6.1
		c0.8-3.1,1.1-6.2,1.1-9.4c0-5-0.4-10-1.2-15L133.9,215.2z"/>
	<path style="clip-path:url(#SVGID_00000145049134731721316270000014559410060269931141_);fill:#1A1A1A;" d="M120.3,191.4
		c-3.3,0.9-6,3.1-7.4,6.2c-1.7,3.6-2,8.7-0.1,15.6c0.8,2.9,1.8,5.8,2.9,8.6l5.5-1.5c-1.1-2.8-2.1-5.7-2.9-8.6
		c-1.7-6.1-1.2-9.8-0.2-11.8c1.4-2.9,4.9-4.2,7.8-2.8c0.3,0.1,0.6,0.3,0.8,0.5c1.8,1.3,4,4.1,5.7,10.3c0.8,2.9,1.4,5.9,1.8,8.9
		l5.5-1.5c-0.4-3-1-6-1.8-8.9c-1.9-6.9-4.6-11.2-7.9-13.4C127.1,191.1,123.6,190.5,120.3,191.4L120.3,191.4z"/>
	<path style="clip-path:url(#SVGID_00000145049134731721316270000014559410060269931141_);fill:#67B54B;" d="M68,137.1
		c3.5-13.1,10-14.2,14-13.1s9.1,5.2,5.6,18.3s-12.9,30.6-18.3,29.1S64.5,150.2,68,137.1z"/>
	<path style="clip-path:url(#SVGID_00000145049134731721316270000014559410060269931141_);fill:#1A1A1A;" d="M82.5,148.7
		c-1.6,4.2-3.5,8.3-5.8,12.2c-1.3,2.3-2.9,4.5-4.7,6.4c-0.6,0.6-1.2,1-2,1.3c-0.5-0.6-0.8-1.4-1-2.1c-0.6-2.6-0.9-5.3-0.9-7.9
		c0-4.5,0.3-9,1.1-13.4l-5.5-1.5c-0.8,5-1.3,10-1.2,15c0,3.2,0.3,6.3,1.1,9.4c0.8,2.7,2,5.3,4.9,6.1s5.3-0.9,7.3-2.8
		c2.2-2.3,4.1-4.8,5.7-7.6c2.6-4.3,4.7-8.9,6.5-13.6L82.5,148.7z"/>
	<path style="clip-path:url(#SVGID_00000145049134731721316270000014559410060269931141_);fill:#1A1A1A;" d="M82.7,121.3
		c-3.3-0.9-6.7-0.3-9.5,1.6c-3.3,2.3-6,6.5-7.9,13.5c-0.8,2.9-1.4,5.9-1.8,8.9l5.5,1.5c0.4-3,1-6,1.8-8.9c1.7-6.1,3.9-9,5.7-10.3
		c2.7-1.8,6.3-1.2,8.1,1.5c0.2,0.3,0.3,0.5,0.5,0.8c0.9,2,1.4,5.6-0.2,11.8c-0.8,2.9-1.8,5.8-2.9,8.6l5.5,1.5
		c1.1-2.8,2.1-5.7,2.9-8.6c1.9-7,1.6-12-0.1-15.6C88.7,124.4,86,122.1,82.7,121.3L82.7,121.3z"/>
	<path style="clip-path:url(#SVGID_00000145049134731721316270000014559410060269931141_);fill:#1A1A1A;" d="M100.3,217
		c-12.8,0-23.1-10.4-23.2-23.2V63.4c0-12.8,10.4-23.1,23.2-23.2h102.6c12.8,0,23.1,10.4,23.1,23.2v130.5c0,12.8-10.4,23.1-23.1,23.1
		H100.3z M202.9,208c7.7,0.1,14.1-6.1,14.1-13.9c0-0.1,0-0.2,0-0.3V63.4c0.1-7.7-6.1-14.1-13.9-14.1c-0.1,0-0.2,0-0.3,0H100.3
		c-7.7-0.1-14.1,6.1-14.1,13.9c0,0.1,0,0.2,0,0.3v130.5c-0.1,7.7,6.1,14.1,13.9,14.1c0.1,0,0.2,0,0.3,0H202.9z"/>
	<path style="clip-path:url(#SVGID_00000145049134731721316270000014559410060269931141_);fill:#88C05C;" d="M202.9,212.5
		c10.3,0,18.6-8.3,18.6-18.6c0,0,0-0.1,0-0.1V63.4c0-10.3-8.3-18.6-18.5-18.6c0,0-0.1,0-0.1,0H100.3C90,44.7,81.7,53,81.7,63.3
		c0,0,0,0.1,0,0.1v130.5c0,10.3,8.3,18.6,18.5,18.6c0,0,0.1,0,0.1,0H202.9z"/>
	<path style="clip-path:url(#SVGID_00000145049134731721316270000014559410060269931141_);fill:#67B54B;" d="M100.3,44.7
		C90,44.7,81.7,53,81.7,63.3c0,0,0,0.1,0,0.1v14.9h139.8V63.4c0-10.3-8.3-18.6-18.5-18.6c0,0-0.1,0-0.1,0H100.3z M81.7,179v14.9
		c0,10.3,8.3,18.6,18.5,18.6c0,0,0.1,0,0.1,0h102.6c10.3,0,18.6-8.3,18.6-18.6c0,0,0-0.1,0-0.1V179H81.7z"/>
	
		<rect x="81.7" y="111.8" style="clip-path:url(#SVGID_00000145049134731721316270000014559410060269931141_);fill:#67B54B;" width="139.8" height="33.6"/>
	
		<rect x="91" y="127.8" style="clip-path:url(#SVGID_00000145049134731721316270000014559410060269931141_);fill:#FFFFFF;" width="121.2" height="1.7"/>
	<path style="clip-path:url(#SVGID_00000145049134731721316270000014559410060269931141_);fill:#1A1A1A;" d="M100.3,213.7
		c-10.9,0-19.8-8.8-19.8-19.7c0,0,0,0,0,0V63.4c0-10.9,8.8-19.8,19.7-19.8c0,0,0,0,0,0h102.6c10.9,0,19.8,8.8,19.8,19.7c0,0,0,0,0,0
		v130.5c0,10.9-8.8,19.8-19.7,19.8c0,0,0,0,0,0H100.3z M202.9,211.4c9.6,0,17.5-7.8,17.5-17.4c0,0,0-0.1,0-0.1V63.4
		c0-9.6-7.8-17.5-17.4-17.5c0,0-0.1,0-0.1,0H100.3c-9.6,0-17.5,7.8-17.5,17.4c0,0,0,0.1,0,0.1v130.5c0,9.6,7.8,17.5,17.4,17.5
		c0,0,0.1,0,0.1,0H202.9z"/>
	<path style="clip-path:url(#SVGID_00000145049134731721316270000014559410060269931141_);fill:#FFFFFF;" d="M100.3,53.2
		c-5.6,0-10.2,4.6-10.2,10.2v130.5c0,5.6,4.6,10.2,10.2,10.2h102.6c5.6,0,10.1-4.6,10.1-10.2V63.4c0-5.6-4.6-10.2-10.2-10.2
		L100.3,53.2z M202.9,54.9c4.7,0,8.5,3.7,8.5,8.4c0,0,0,0,0,0.1v130.5c0,4.7-3.7,8.5-8.4,8.5c0,0,0,0-0.1,0H100.3
		c-4.7,0-8.5-3.7-8.5-8.4c0,0,0,0,0-0.1V63.4c0-4.7,3.7-8.5,8.4-8.5c0,0,0,0,0.1,0L202.9,54.9z"/>
	<path style="clip-path:url(#SVGID_00000145049134731721316270000014559410060269931141_);fill:#FFFFFF;" d="M91,194.7
		c4.7,0,8.5,3.8,8.5,8.5c0,0,0,0,0,0h1.7c0-5.6-4.5-10.2-10.1-10.2c0,0,0,0,0,0V194.7z"/>
	<path style="clip-path:url(#SVGID_00000145049134731721316270000014559410060269931141_);fill:#FFFFFF;" d="M99.5,54
		c0,4.7-3.7,8.5-8.4,8.5c0,0,0,0-0.1,0v1.7c5.6,0,10.2-4.6,10.2-10.2H99.5z"/>
	<path style="clip-path:url(#SVGID_00000145049134731721316270000014559410060269931141_);fill:#FFFFFF;" d="M151.6,109.1
		c-10.8,0-19.5,8.7-19.5,19.5c0,10.8,8.7,19.5,19.5,19.5c10.8,0,19.5-8.7,19.5-19.5C171.1,117.9,162.4,109.1,151.6,109.1z
		 M151.6,110.8c9.8,0,17.8,8,17.8,17.8s-8,17.8-17.8,17.8c-9.8,0-17.8-8-17.8-17.8C133.8,118.8,141.7,110.8,151.6,110.8
		C151.6,110.8,151.6,110.8,151.6,110.8z"/>
	<path style="clip-path:url(#SVGID_00000145049134731721316270000014559410060269931141_);fill:#FFFFFF;" d="M122.8,174.4v29.7h57.6
		v-29.7H122.8z M178.7,202.4h-54.2v-26.3h54.2L178.7,202.4z"/>
	<path style="clip-path:url(#SVGID_00000145049134731721316270000014559410060269931141_);fill:#FFFFFF;" d="M151.6,165.1
		c-7,0-13.4,3.7-16.9,9.7l1.5,0.9c4.9-8.5,15.8-11.4,24.3-6.5c2.7,1.6,5,3.8,6.5,6.5l1.5-0.9C165,168.8,158.6,165.1,151.6,165.1z"/>
	<path style="clip-path:url(#SVGID_00000145049134731721316270000014559410060269931141_);fill:#FFFFFF;" d="M122.8,82.8V53.2h57.6
		v29.7H122.8z M178.7,54.8h-54.2v26.3h54.2L178.7,54.8z"/>
	<path style="clip-path:url(#SVGID_00000145049134731721316270000014559410060269931141_);fill:#FFFFFF;" d="M167,81.6
		c-4.9,8.5-15.8,11.4-24.3,6.5c-2.7-1.6-5-3.8-6.5-6.5l-1.5,0.8c5.4,9.3,17.3,12.5,26.6,7.1c3-1.7,5.4-4.2,7.1-7.1L167,81.6z"/>
	<path style="clip-path:url(#SVGID_00000145049134731721316270000014559410060269931141_);fill:#FFFFFF;" d="M132.1,193v11h39v-11
		H132.1z M169.4,202.3h-35.6v-7.6h35.6V202.3z"/>
	<path style="clip-path:url(#SVGID_00000145049134731721316270000014559410060269931141_);fill:#FFFFFF;" d="M132.1,53.2v11h39v-11
		L132.1,53.2z M169.4,62.5h-35.6v-7.6h35.6V62.5z"/>
	<path style="clip-path:url(#SVGID_00000145049134731721316270000014559410060269931141_);fill:#1A1A1A;" d="M166.5,96.8
		c-1.6,2.1-2.5,4.6-2.5,7.2v5.8c0.2,6.4,5.5,11.5,12,11.3c6.2-0.2,11.1-5.1,11.3-11.3v-4.5L166.5,96.8L166.5,96.8z"/>
	<path style="clip-path:url(#SVGID_00000145049134731721316270000014559410060269931141_);fill:#FFFFFF;" d="M172.5,105.4
		c-2.1,0-3.7,1.7-3.7,3.8c0,2.1,1.7,3.7,3.8,3.7c2.1,0,3.7-1.7,3.7-3.8c0-1-0.4-1.9-1.1-2.6C174.5,105.8,173.5,105.4,172.5,105.4z"
		/>
	<path style="clip-path:url(#SVGID_00000145049134731721316270000014559410060269931141_);fill:#1A1A1A;" d="M116,105.4v4.5
		c0.2,6.4,5.5,11.5,12,11.3c6.2-0.2,11.1-5.1,11.3-11.3V104c0-2.6-0.9-5.2-2.5-7.2L116,105.4z"/>
	<path style="clip-path:url(#SVGID_00000145049134731721316270000014559410060269931141_);fill:#FFFFFF;" d="M124.6,105.4
		c-2.1,0-3.8,1.7-3.8,3.8s1.7,3.8,3.8,3.8c2.1,0,3.7-1.7,3.8-3.8C128.4,107,126.7,105.4,124.6,105.4z"/>
	<path style="clip-path:url(#SVGID_00000145049134731721316270000014559410060269931141_);fill:#1A1A1A;" d="M160.3,132.5
		c0-4.8-3.9-8.8-8.8-8.8s-8.8,3.9-8.8,8.8h-2.3c0-6.1,4.9-11,11-11s11,4.9,11,11l0,0H160.3z"/>
	<path style="clip-path:url(#SVGID_00000145049134731721316270000014559410060269931141_);fill:#1A1A1A;" d="M160.8,13.5
		c-8.5,0.5-16.9,0.6-26.2,1.2c-12.4,0.9-21.3,4.7-27,10.5c-5.3,5.4-8.1,12.7-8,20.3c0,12.7,7.8,22.4,18.5,27.7s24.5,6.7,38.5,4.5
		c1.4-0.2,2.8-0.5,4.2-0.8v-9.2c-1.9,0.4-3.7,0.8-5.6,1.1c-12.5,1.9-24.6,0.4-33.2-3.7s-13.5-10.3-13.5-19.5c0-5.2,1.5-10.1,5.3-14
		s10.4-7.1,21.3-7.9c8.8-0.6,17-0.8,25.6-1.3L160.8,13.5L160.8,13.5z"/>
	<path style="clip-path:url(#SVGID_00000145049134731721316270000014559410060269931141_);fill:#1A1A1A;" d="M184.9,10.1
		c-8.9,2.1-17.9,3.3-27,3.6v8.9c7.1-0.3,14.1-1.1,21.1-2.3l-2.7,7.2h6.4c8.7-0.1,17.3-1.4,25.6-4c-6.6,26.1-28.4,40.5-50.5,44.8v9.2
		c27.6-4.7,56.3-24.2,61-59.8l1-7.3l-6.9,2.4c-7.7,2.4-15.5,4.1-23.5,5.1l0.7-2l2.9-7.9L184.9,10.1z"/>
	<path style="clip-path:url(#SVGID_00000145049134731721316270000014559410060269931141_);fill:#595959;" d="M186,14.5
		c-18.9,4.6-33.6,3.5-51.1,4.8C111.5,21,104,33.2,104,45.6c0,43.8,101.4,39.7,110.4-28.4c0,0-17.1,6-31.6,5.9L186,14.5z"/>
	<path style="clip-path:url(#SVGID_00000145049134731721316270000014559410060269931141_);fill:#797979;" d="M186,14.5
		c-18.9,4.6-33.6,3.5-51.1,4.8c-13.3,1-21.4,5.4-26,11.3c12.3,21.4,81.9,17.5,105.6-13.4c0,0-17.1,6-31.6,5.9L186,14.5z"/>
	<path style="clip-path:url(#SVGID_00000145049134731721316270000014559410060269931141_);fill:#3E3E3E;" d="M214.4,17.1
		c-11.9,44.4-93.5,61.6-109.8,22.4c-0.4,2-0.6,4-0.6,6C104,89.3,205.5,85.2,214.4,17.1L214.4,17.1z"/>
	<path style="clip-path:url(#SVGID_00000145049134731721316270000014559410060269931141_);fill:#1A1A1A;" d="M160.8,16.9
		c-8.5,0.5-16.8,0.5-26,1.2c-11.9,0.9-19.9,4.5-24.9,9.5c-4.6,4.8-7.2,11.3-7,17.9c0,11.4,6.7,19.8,16.6,24.6s23.1,6.3,36.5,4.2
		c1.6-0.2,3.1-0.5,4.7-0.9v-2.3c-1.7,0.4-3.4,0.7-5.1,1c-13.1,2-25.8,0.5-35.2-4s-15.4-12.1-15.4-22.6c-0.2-6.1,2.1-12,6.3-16.3
		c4.6-4.6,12-8,23.4-8.9c9-0.7,17.3-0.7,25.8-1.3L160.8,16.9L160.8,16.9z"/>
	<path style="clip-path:url(#SVGID_00000145049134731721316270000014559410060269931141_);fill:#1A1A1A;" d="M185.7,13.4
		c-9.1,2.1-18.4,3.4-27.8,3.7v2.2c8.9-0.4,17.7-1.5,26.3-3.3l-3.1,8.2h1.6c13.6,0.1,27.6-4.6,30.2-5.5c-5,31.4-30.2,48.5-55.1,53.1
		v2.3c26.3-4.7,53.2-23,57.6-56.8l0.2-1.8l-1.7,0.6c0,0-15.7,5.4-29.6,5.7l2.6-6.9l0.7-2L185.7,13.4z"/>
	<g style="clip-path:url(#SVGID_00000145049134731721316270000014559410060269931141_);enable-background:new    ;">
		<text transform="matrix(1 0 0 1 20.25 270.76)" class="st9 st10 st11">mistrzami</text>
	</g>
	<g style="clip-path:url(#SVGID_00000145049134731721316270000014559410060269931141_);enable-background:new    ;">
		<text transform="matrix(1 0 0 1 20.25 244.42)" class="st9 st10 st11">nie byli</text>
	</g>
	<path style="clip-path:url(#SVGID_00000145049134731721316270000014559410060269931141_);fill:#EB5A53;" d="M45,0H16H0v16
		c0,7,0,14,0,21c10.3,12.3,28.7,14,41,3.7c6.7-5.5,10.5-13.8,10.5-22.4C51.5,11.6,49.2,5.2,45,0z"/>
	<g style="clip-path:url(#SVGID_00000145049134731721316270000014559410060269931141_);enable-background:new    ;">
		<text transform="matrix(1 0 0 1 15.57 31.75)" class="st9 st10 st12">06</text>
	</g>
</g>
</svg>
