<?xml version="1.0" encoding="utf-8"?>
<!-- Generator: Adobe Illustrator 26.0.3, SVG Export Plug-In . SVG Version: 6.00 Build 0)  -->
<svg version="1.1" id="Слой_1" xmlns="http://www.w3.org/2000/svg" xmlns:xlink="http://www.w3.org/1999/xlink" x="0px" y="0px"
	 viewBox="0 0 195.6 280.6" style="enable-background:new 0 0 195.6 280.6;" xml:space="preserve">
<style type="text/css">
	.st0{fill:#797979;}
	.st1{clip-path:url(#SVGID_00000017484078990896004180000011895747740799454352_);fill:#EB5A53;}
	.st2{clip-path:url(#SVGID_00000017484078990896004180000011895747740799454352_);fill:#1A1A1A;}
	.st3{clip-path:url(#SVGID_00000017484078990896004180000011895747740799454352_);fill:#FFFFFF;}
	.st4{clip-path:url(#SVGID_00000017484078990896004180000011895747740799454352_);fill:#AF1739;}
	.st5{clip-path:url(#SVGID_00000017484078990896004180000011895747740799454352_);fill:#EB5775;}
	.st6{clip-path:url(#SVGID_00000017484078990896004180000011895747740799454352_);fill:#BADBE9;}
	.st7{clip-path:url(#SVGID_00000017484078990896004180000011895747740799454352_);fill:#8BB0CC;}
	.st8{clip-path:url(#SVGID_00000017484078990896004180000011895747740799454352_);fill:#F293A2;}
	.st9{clip-path:url(#SVGID_00000017484078990896004180000011895747740799454352_);fill:#595959;}
	.st10{clip-path:url(#SVGID_00000017484078990896004180000011895747740799454352_);fill:#797979;}
	.st11{clip-path:url(#SVGID_00000017484078990896004180000011895747740799454352_);fill:#3E3E3E;}
	.st12{fill:#FFFFFF;}
	.st13{font-family:'Impact';}
	.st14{font-size:34.22px;}
	.st15{clip-path:url(#SVGID_00000017484078990896004180000011895747740799454352_);enable-background:new    ;}
	.st16{font-size:51.1px;}
	.st17{font-size:20px;}
</style>
<path class="st0" d="M117.7,276.6l-1.5-4c6.9,0,14.9,2.8,14.9,2.8C120,260.8,87.2,259,81.4,269c2.1,2.8,6,4.8,12.2,5.3
	C101.9,274.9,108.8,274.4,117.7,276.6L117.7,276.6z"/>
<g>
	<defs>
		<rect id="SVGID_1_" x="0.2" y="0.7" width="195.6" height="280.6"/>
	</defs>
	<clipPath id="SVGID_00000161621660602692319780000008712176223803530634_">
		<use xlink:href="#SVGID_1_"  style="overflow:visible;"/>
	</clipPath>
	<path style="clip-path:url(#SVGID_00000161621660602692319780000008712176223803530634_);fill:#EB5A53;" d="M106.3,98.8
		c0-7.5,3.3-9,5.6-9s5.6,1.5,5.6,9s-2.5,18.2-5.6,18.2S106.3,106.4,106.3,98.8z"/>
	<path style="clip-path:url(#SVGID_00000161621660602692319780000008712176223803530634_);fill:#1A1A1A;" d="M111.9,88.2
		c-1.9,0-3.6,0.8-4.9,2.2c-1.4,1.7-2.3,4.4-2.3,8.4c0,4.2,0.6,8.3,1.7,12.4c0.5,1.7,1.1,3.3,2,4.9c0.8,1.3,1.8,2.6,3.5,2.6
		s2.7-1.2,3.5-2.6c0.9-1.5,1.5-3.2,2-4.9c1.1-4,1.7-8.2,1.7-12.4c0-4-0.9-6.7-2.3-8.4C115.7,89,113.9,88.2,111.9,88.2L111.9,88.2z
		 M111.9,91.4c1,0,1.9,0.4,2.5,1.1c0.8,0.9,1.6,2.8,1.6,6.3c0,3.9-0.6,7.8-1.6,11.5c-0.4,1.4-0.9,2.8-1.6,4.1
		c-0.2,0.4-0.5,0.7-0.8,1c-0.3-0.3-0.6-0.6-0.8-1c-0.7-1.3-1.3-2.7-1.6-4.1c-1-3.8-1.5-7.6-1.6-11.5c0-3.5,0.8-5.4,1.6-6.3
		C110.1,91.7,111,91.3,111.9,91.4L111.9,91.4z"/>
	<path style="clip-path:url(#SVGID_00000161621660602692319780000008712176223803530634_);fill:#EB5A53;" d="M78,98.8
		c0-7.5,3.3-9,5.6-9s5.6,1.5,5.6,9s-2.5,18.2-5.6,18.2S78,106.4,78,98.8z"/>
	<path style="clip-path:url(#SVGID_00000161621660602692319780000008712176223803530634_);fill:#1A1A1A;" d="M83.6,88.2
		c-1.9,0-3.6,0.8-4.9,2.2c-1.4,1.7-2.3,4.4-2.3,8.4c0,4.2,0.6,8.3,1.7,12.4c0.5,1.7,1.1,3.3,2,4.9c0.8,1.3,1.8,2.6,3.5,2.6
		s2.7-1.2,3.5-2.6c0.9-1.5,1.5-3.2,2-4.9c1.1-4,1.7-8.2,1.7-12.4c0-4-0.9-6.7-2.3-8.4C87.3,89,85.6,88.2,83.6,88.2L83.6,88.2z
		 M83.6,91.4c1,0,1.9,0.4,2.5,1.1c0.8,0.9,1.6,2.8,1.6,6.3c-0.1,3.9-0.6,7.8-1.6,11.5c-0.4,1.4-0.9,2.8-1.6,4.1
		c-0.2,0.4-0.5,0.7-0.8,1c-0.3-0.3-0.6-0.6-0.8-1c-0.7-1.3-1.3-2.7-1.6-4.1c-1-3.8-1.5-7.6-1.6-11.5c0-3.5,0.8-5.4,1.6-6.3
		C81.7,91.7,82.6,91.3,83.6,91.4L83.6,91.4z"/>
	<path style="clip-path:url(#SVGID_00000161621660602692319780000008712176223803530634_);fill:#EB5A53;" d="M134.5,61.4
		c-2.2-7.2,0.6-9.6,2.8-10.3s5.8-0.2,8,7s2.9,18.2-0.1,19.1S136.7,68.6,134.5,61.4L134.5,61.4z"/>
	<path style="clip-path:url(#SVGID_00000161621660602692319780000008712176223803530634_);fill:#1A1A1A;" d="M136.8,50.5
		c-1.8,0.5-3.2,1.8-4,3.6c-0.9,2-0.9,4.8,0.2,8.7c1.2,4,3,7.8,5.2,11.3c0.9,1.5,2,2.9,3.3,4.1c1.1,1,2.5,1.9,4.1,1.4s2.3-2,2.6-3.5
		c0.4-1.7,0.5-3.5,0.4-5.2c-0.1-4.2-0.8-8.3-2-12.3c-1.2-3.8-2.8-6.1-4.6-7.3C140.5,50.2,138.5,50,136.8,50.5L136.8,50.5z
		 M137.7,53.5c0.9-0.3,1.9-0.2,2.7,0.4c1,0.7,2.3,2.2,3.3,5.6c1.1,3.7,1.7,7.6,1.8,11.5c0.1,1.5-0.1,3-0.4,4.4
		c-0.1,0.4-0.3,0.8-0.5,1.2c-0.4-0.2-0.8-0.4-1.1-0.7c-1.1-1-2-2.2-2.7-3.5c-2.1-3.3-3.7-6.9-4.8-10.6c-1-3.4-0.8-5.4-0.3-6.5
		C136,54.4,136.8,53.8,137.7,53.5L137.7,53.5z"/>
	<path style="clip-path:url(#SVGID_00000161621660602692319780000008712176223803530634_);fill:#EB5A53;" d="M51.8,57.9
		c2.9-7,6.5-7.1,8.6-6.2s4.6,3.5,1.7,10.5S52.9,78.1,50,76.9S48.9,64.9,51.8,57.9L51.8,57.9z"/>
	<path style="clip-path:url(#SVGID_00000161621660602692319780000008712176223803530634_);fill:#1A1A1A;" d="M61,50.2
		c-1.7-0.7-3.7-0.6-5.3,0.2c-2,1-3.8,3.1-5.3,6.8c-1.6,3.9-2.6,7.9-3.2,12.1c-0.3,1.7-0.3,3.5-0.1,5.3c0.2,1.5,0.7,3.1,2.3,3.7
		s3-0.1,4.2-1c1.4-1.1,2.6-2.4,3.7-3.8c2.6-3.3,4.7-6.9,6.3-10.8c1.5-3.7,1.7-6.5,1.1-8.6C64.1,52.4,62.7,50.9,61,50.2z M59.8,53.1
		c0.9,0.3,1.6,1.1,1.8,2c0.4,1.2,0.4,3.2-1,6.5c-1.5,3.6-3.5,6.9-5.9,10c-0.9,1.2-1.9,2.3-3.1,3.2c-0.3,0.3-0.7,0.5-1.2,0.6
		c-0.2-0.4-0.4-0.8-0.4-1.2c-0.1-1.5-0.1-3,0.1-4.4c0.5-3.9,1.5-7.6,3-11.2c1.3-3.3,2.8-4.7,3.9-5.2C57.9,52.7,58.9,52.7,59.8,53.1
		L59.8,53.1z"/>
	<path style="clip-path:url(#SVGID_00000161621660602692319780000008712176223803530634_);fill:#1A1A1A;" d="M97.8,17.6
		c-24.3,0-43.9,19.7-43.9,43.9s19.7,43.9,43.9,43.9c24.3,0,43.9-19.7,43.9-43.9c0,0,0,0,0,0C141.6,37.3,122,17.7,97.8,17.6z
		 M97.8,22.6c21.5,0,38.9,17.4,38.9,38.9s-17.4,38.9-38.9,38.9c-21.5,0-38.9-17.4-38.9-38.9c0-21.5,17.4-38.9,38.8-38.9
		C97.7,22.7,97.7,22.7,97.8,22.6L97.8,22.6z"/>
	<path style="clip-path:url(#SVGID_00000161621660602692319780000008712176223803530634_);fill:#EB5A53;" d="M138.6,60.6
		c0,1.7-0.2,21.7-11.9,27.4c-8.3,4-12.9-3.8-29.7-3.6C81.1,84.6,77,91.6,69.2,88c-11.7-5.5-11.9-25.7-11.9-27.4
		c0-2.4,0.3-21.1,11.9-27.4c6.9-3.7,10.4,0.9,27.4,1c18.5,0.2,22.6-5.2,30.1-1C138.3,39.6,138.6,58.2,138.6,60.6z"/>
	<path style="clip-path:url(#SVGID_00000161621660602692319780000008712176223803530634_);fill:#FFFFFF;" d="M98.2,20.9
		c-17.7,0-33.5,11.2-39.4,27.9h78.9C131.7,32.1,115.9,20.9,98.2,20.9z"/>
	<path style="clip-path:url(#SVGID_00000161621660602692319780000008712176223803530634_);fill:#FFFFFF;" d="M96,21.9
		c-16.9,0-31.8,10.9-36.9,27h73.7C127.7,32.8,112.8,21.9,96,21.9z"/>
	<path style="clip-path:url(#SVGID_00000161621660602692319780000008712176223803530634_);fill:#FFFFFF;" d="M58.4,76
		c4.3,8.4,10.9,15.3,19.1,20c6.3,3.7,13.4,5.8,20.7,5.9c3.9,0.1,7.8-0.5,11.6-1.6c7.5-2.3,14.2-6.8,19.2-12.8
		c2.9-3.4,5.3-7.3,7.1-11.5H58.4z"/>
	<path style="clip-path:url(#SVGID_00000161621660602692319780000008712176223803530634_);fill:#FFFFFF;" d="M60.5,76
		c9.2,20.2,33,29.1,53.2,19.9c8.8-4,15.8-11.1,19.9-19.9H60.5z"/>
	<path style="clip-path:url(#SVGID_00000161621660602692319780000008712176223803530634_);fill:#1A1A1A;" d="M97.8,19.5
		c-23.2,0-42,18.8-42,42c0,23.2,18.8,42,42,42c23.2,0,42-18.8,42-41.9C139.7,38.4,120.9,19.6,97.8,19.5L97.8,19.5z M97.8,20.8
		c22.5,0,40.8,18.2,40.8,40.8c0,22.5-18.2,40.8-40.8,40.8S57,84.2,57,61.6c0,0,0,0,0,0C57,39.1,75.3,20.8,97.8,20.8
		C97.8,20.8,97.8,20.8,97.8,20.8L97.8,20.8z"/>
	<path style="clip-path:url(#SVGID_00000161621660602692319780000008712176223803530634_);fill:#1A1A1A;" d="M111.1,46.6
		c3.6,0,6.4,2.9,6.4,6.4c0,0,0,0,0,0v3.2c0,3.6-2.9,6.5-6.5,6.5c-3.6,0-6.4-2.9-6.4-6.5V53C104.6,49.4,107.5,46.6,111.1,46.6
		C111,46.5,111.1,46.5,111.1,46.6L111.1,46.6z"/>
	<path style="clip-path:url(#SVGID_00000161621660602692319780000008712176223803530634_);fill:#FFFFFF;" d="M107.3,51.2
		c0.1-1.2,1.1-2,2.2-1.9c1,0.1,1.9,0.9,1.9,1.9c0,1.1-0.9,2.1-2.1,2.1c0,0,0,0,0,0c-0.6,0-1.1-0.2-1.5-0.6
		C107.5,52.3,107.3,51.7,107.3,51.2z"/>
	<path style="clip-path:url(#SVGID_00000161621660602692319780000008712176223803530634_);fill:#1A1A1A;" d="M84.4,46.6
		c3.6,0,6.4,2.9,6.4,6.4c0,0,0,0,0,0v3.2c-0.1,3.6-3.1,6.3-6.7,6.2c-3.4-0.1-6.1-2.8-6.2-6.2V53C78,49.4,80.9,46.6,84.4,46.6
		C84.4,46.5,84.4,46.5,84.4,46.6L84.4,46.6z"/>
	<path style="clip-path:url(#SVGID_00000161621660602692319780000008712176223803530634_);fill:#FFFFFF;" d="M80.7,51.2
		c0.1-1.2,1.1-2,2.2-1.9c1,0.1,1.9,0.9,1.9,1.9c0,1.1-0.9,2.1-2.1,2.1c0,0,0,0,0,0c-0.6,0-1.1-0.2-1.5-0.6
		C80.9,52.3,80.7,51.7,80.7,51.2z"/>
	<path style="clip-path:url(#SVGID_00000161621660602692319780000008712176223803530634_);fill:#AF1739;" d="M90.9,64.6
		c-0.8,0-1.4,0.6-1.4,1.4v1.6c0,4.6,3.7,8.3,8.3,8.3c4.6,0,8.3-3.7,8.3-8.3c0,0,0,0,0,0V66c0-0.8-0.6-1.4-1.4-1.4l0,0L90.9,64.6z"/>
	<path style="clip-path:url(#SVGID_00000161621660602692319780000008712176223803530634_);fill:#EB5775;" d="M97.8,70.3
		c-2.4,0-4.7,1-6.3,2.8c3,3.5,8.3,3.8,11.7,0.8c0.3-0.2,0.5-0.5,0.8-0.8C102.4,71.3,100.2,70.3,97.8,70.3z"/>
	<path style="clip-path:url(#SVGID_00000161621660602692319780000008712176223803530634_);fill:#FFFFFF;" d="M90.9,64.6
		c-0.8,0-1.4,0.6-1.4,1.4v1.4c5.2,2.5,11.4,2.5,16.6,0V66c0-0.8-0.6-1.4-1.4-1.4l0,0L90.9,64.6z"/>
	<path style="clip-path:url(#SVGID_00000161621660602692319780000008712176223803530634_);fill:#BADBE9;" d="M103.8,64.6v2.2
		c0,0.8-0.1,1.4-0.7,1.7c1-0.3,2-0.6,2.9-1.1V66c0-0.8-0.6-1.4-1.4-1.4l0,0L103.8,64.6z"/>
	<path style="clip-path:url(#SVGID_00000161621660602692319780000008712176223803530634_);fill:#BADBE9;" d="M90.9,64.6
		c-0.8,0-1.4,0.6-1.4,1.4v1.4c1.8,0.9,3.7,1.4,5.7,1.7c-1-0.3-1.2-1.2-1.2-2.3v-2.2H90.9z"/>
	<path style="clip-path:url(#SVGID_00000161621660602692319780000008712176223803530634_);fill:#8BB0CC;" d="M91.7,64.6v2.2
		c0,0.8,0.1,1.4,0.7,1.7c-1-0.3-2-0.6-2.9-1.1V66c0-0.8,0.6-1.4,1.4-1.4c0,0,0,0,0,0L91.7,64.6z"/>
	<path style="clip-path:url(#SVGID_00000161621660602692319780000008712176223803530634_);fill:#1A1A1A;" d="M90.9,64
		c-1.1,0-2,0.9-2.1,2v1.6c0,4.9,4,8.9,8.9,8.9s8.9-4,8.9-8.9V66c0-1.1-0.9-2-2.1-2H90.9z M104.6,65.2c0.4,0,0.8,0.3,0.8,0.8
		c0,0,0,0,0,0v1.6c-0.2,4.2-3.7,7.6-8,7.4c-4-0.1-7.3-3.4-7.4-7.4V66c0-0.4,0.3-0.8,0.8-0.8c0,0,0,0,0,0L104.6,65.2z"/>
	<path style="clip-path:url(#SVGID_00000161621660602692319780000008712176223803530634_);fill:#1A1A1A;" d="M106.1,67.1
		c-5.3,2.6-11.4,2.6-16.7,0l-0.3,0.6c5.4,2.6,11.8,2.6,17.2,0L106.1,67.1z"/>
	<path style="clip-path:url(#SVGID_00000161621660602692319780000008712176223803530634_);fill:#F293A2;" d="M98.7,72.5
		c0-0.3,0.2-0.5,0.4-0.7c0.3-0.2,0.6-0.3,1-0.3c0.8,0,1.4,0.4,1.4,1s-0.6,1-1.4,1c-0.4,0-0.7-0.1-1-0.3
		C98.8,73.1,98.7,72.9,98.7,72.5L98.7,72.5z"/>
	<path style="clip-path:url(#SVGID_00000161621660602692319780000008712176223803530634_);fill:#1A1A1A;" d="M89.7,3.6v4.2
		c4,0.3,7.9,0.3,12,0.6c5.2,0.4,8.2,1.9,10,3.7c1.7,1.8,2.6,4.1,2.5,6.6c0,4.3-2.3,7.2-6.3,9.2s-9.7,2.7-15.6,1.8
		c-0.9-0.1-1.8-0.3-2.6-0.5v4.3c0.7,0.1,1.3,0.3,2,0.4c6.6,1,13.1,0.3,18.1-2.1s8.7-7,8.7-13c0.1-3.6-1.3-7-3.8-9.6
		c-2.7-2.7-6.9-4.5-12.7-4.9C97.6,3.8,93.7,3.8,89.7,3.6L89.7,3.6z"/>
	<path style="clip-path:url(#SVGID_00000161621660602692319780000008712176223803530634_);fill:#1A1A1A;" d="M74.5,1l1.4,3.7
		l0.3,0.9c-3.7-0.5-7.4-1.3-11-2.4l-3.3-1.1l0.5,3.4c2.2,16.8,15.7,25.9,28.7,28.1v-4.3c-10.4-2-20.6-8.8-23.7-21
		c3.9,1.2,7.9,1.8,12,1.9h3l-1.2-3.4c3.3,0.6,6.6,0.9,9.9,1.1V3.7C86.8,3.5,82.5,3,78.4,2L74.5,1z"/>
	<path style="clip-path:url(#SVGID_00000161621660602692319780000008712176223803530634_);fill:#595959;" d="M77.9,4l1.5,4
		c-6.9,0-14.9-2.8-14.9-2.8c4.2,32,52,34,52,13.4c0-5.8-3.5-11.6-14.5-12.4C93.7,5.7,86.8,6.2,77.9,4z"/>
	<path style="clip-path:url(#SVGID_00000161621660602692319780000008712176223803530634_);fill:#797979;" d="M77.9,4l1.5,4
		c-6.9,0-14.9-2.8-14.9-2.8c11.1,14.5,43.9,16.3,49.7,6.3c-2.1-2.8-6-4.8-12.2-5.3C93.7,5.7,86.8,6.2,77.9,4z"/>
	<path style="clip-path:url(#SVGID_00000161621660602692319780000008712176223803530634_);fill:#3E3E3E;" d="M64.5,5.3
		c4.2,32,52,34,52,13.4c0-0.9-0.1-1.9-0.3-2.8C108.5,34.3,70.1,26.2,64.5,5.3z"/>
	<path style="clip-path:url(#SVGID_00000161621660602692319780000008712176223803530634_);fill:#1A1A1A;" d="M89.7,5.2v1
		c4,0.2,7.9,0.3,12.2,0.6c5.4,0.4,8.9,2,11,4.2c2,2.1,3.1,4.8,3,7.7c0,4.9-2.8,8.5-7.2,10.6s-10.4,2.8-16.6,1.9
		c-0.8-0.1-1.6-0.3-2.4-0.5v1.1c0.8,0.2,1.5,0.3,2.2,0.4c6.3,1,12.5,0.3,17.2-2S117,24,117,18.7c0.1-3.1-1.1-6.2-3.3-8.4
		c-2.4-2.4-6.1-4.1-11.7-4.5C97.7,5.4,93.8,5.4,89.7,5.2L89.7,5.2z"/>
	<path style="clip-path:url(#SVGID_00000161621660602692319780000008712176223803530634_);fill:#1A1A1A;" d="M77,3.3l0.3,0.9
		l1.2,3.3c-4.7-0.3-9.4-1.2-13.9-2.7l-0.8-0.3L64,5.4c2,15.9,14.7,24.5,27.1,26.7V31C79.3,28.9,67.5,20.8,65.1,6
		c4.6,1.6,9.4,2.5,14.2,2.6h0.8l-1.4-3.9c4.1,0.9,8.2,1.4,12.4,1.6v-1C86.7,5.1,82.3,4.5,78,3.5L77,3.3z"/>
	<path style="clip-path:url(#SVGID_00000161621660602692319780000008712176223803530634_);fill:#EB5A53;" d="M89.3,181.8
		c0,7.5-3.3,9-5.6,9s-5.6-1.5-5.6-9s2.5-18.2,5.6-18.2S89.3,174.3,89.3,181.8z"/>
	<path style="clip-path:url(#SVGID_00000161621660602692319780000008712176223803530634_);fill:#1A1A1A;" d="M83.7,192.4
		c1.9,0,3.7-0.8,4.9-2.2c1.4-1.7,2.3-4.4,2.3-8.4c0-4.2-0.6-8.3-1.7-12.4c-0.4-1.7-1.1-3.3-1.9-4.9c-0.8-1.3-1.8-2.6-3.5-2.6
		s-2.7,1.2-3.5,2.6c-0.9,1.5-1.5,3.2-1.9,4.9c-1.1,4-1.7,8.2-1.7,12.4c0,4,0.9,6.7,2.3,8.4C80,191.6,81.8,192.4,83.7,192.4
		L83.7,192.4z M83.7,189.3c-1,0-1.9-0.4-2.5-1.1c-0.8-0.9-1.6-2.8-1.6-6.3c0-3.9,0.6-7.8,1.6-11.5c0.4-1.4,0.9-2.8,1.6-4.1
		c0.2-0.4,0.5-0.7,0.8-1c0.3,0.3,0.6,0.6,0.8,1c0.7,1.3,1.3,2.7,1.6,4.1c1,3.8,1.5,7.6,1.6,11.5c0,3.5-0.8,5.4-1.6,6.3
		C85.5,188.9,84.6,189.3,83.7,189.3L83.7,189.3z"/>
	<path style="clip-path:url(#SVGID_00000161621660602692319780000008712176223803530634_);fill:#EB5A53;" d="M117.6,181.8
		c0,7.5-3.3,9-5.6,9s-5.6-1.5-5.6-9s2.5-18.2,5.6-18.2S117.6,174.3,117.6,181.8z"/>
	<path style="clip-path:url(#SVGID_00000161621660602692319780000008712176223803530634_);fill:#1A1A1A;" d="M112,192.4
		c1.9,0,3.6-0.8,4.9-2.2c1.4-1.7,2.3-4.4,2.3-8.4c0-4.2-0.6-8.3-1.7-12.4c-0.4-1.7-1.1-3.3-1.9-4.9c-0.8-1.3-1.8-2.6-3.5-2.6
		s-2.7,1.2-3.5,2.6c-0.9,1.5-1.5,3.2-1.9,4.9c-1.1,4-1.7,8.2-1.7,12.4c0,4,0.9,6.7,2.3,8.4C108.4,191.6,110.1,192.4,112,192.4z
		 M112,189.3c-1,0-1.9-0.4-2.5-1.1c-0.8-0.9-1.6-2.8-1.6-6.3c0-3.9,0.6-7.8,1.6-11.5c0.4-1.4,0.9-2.8,1.6-4.1c0.2-0.4,0.5-0.7,0.8-1
		c0.3,0.3,0.6,0.6,0.8,1c0.7,1.3,1.3,2.7,1.6,4.1c1,3.8,1.5,7.6,1.6,11.5c0,3.5-0.8,5.4-1.6,6.3C113.9,188.9,113,189.3,112,189.3z"
		/>
	<path style="clip-path:url(#SVGID_00000161621660602692319780000008712176223803530634_);fill:#EB5A53;" d="M61.1,219.2
		c2.2,7.2-0.5,9.6-2.8,10.3s-5.8,0.2-8-7s-2.9-18.2,0.1-19.1S58.9,212,61.1,219.2L61.1,219.2z"/>
	<path style="clip-path:url(#SVGID_00000161621660602692319780000008712176223803530634_);fill:#1A1A1A;" d="M58.8,230.1
		c1.8-0.5,3.2-1.8,4-3.6c0.9-2,1-4.8-0.2-8.7c-1.2-4-3-7.8-5.2-11.3c-0.9-1.5-2-2.9-3.3-4.1c-1.1-1-2.5-1.9-4.1-1.4s-2.3,2-2.6,3.5
		c-0.4,1.7-0.5,3.5-0.4,5.2c0.1,4.2,0.8,8.3,2,12.3c1.2,3.8,2.8,6.1,4.6,7.3C55.1,230.4,57.1,230.7,58.8,230.1L58.8,230.1z
		 M57.9,227.1c-0.9,0.3-1.9,0.2-2.7-0.4c-1-0.7-2.3-2.2-3.3-5.6c-1.1-3.7-1.7-7.6-1.9-11.5c-0.1-1.5,0.1-3,0.4-4.4
		c0.1-0.4,0.3-0.8,0.5-1.2c0.4,0.2,0.8,0.4,1.1,0.7c1.1,1,2,2.2,2.7,3.5c2.1,3.3,3.7,6.9,4.9,10.6c1,3.4,0.8,5.4,0.3,6.5
		C59.5,226.2,58.8,226.9,57.9,227.1L57.9,227.1z"/>
	<path style="clip-path:url(#SVGID_00000161621660602692319780000008712176223803530634_);fill:#EB5A53;" d="M143.8,222.8
		c-2.9,7-6.5,7.1-8.6,6.2s-4.6-3.5-1.7-10.5s9.3-15.9,12.2-14.7S146.7,215.8,143.8,222.8L143.8,222.8z"/>
	<path style="clip-path:url(#SVGID_00000161621660602692319780000008712176223803530634_);fill:#1A1A1A;" d="M134.6,230.4
		c1.7,0.7,3.7,0.6,5.4-0.2c2-1,3.8-3.1,5.3-6.8c1.6-3.9,2.6-7.9,3.1-12.1c0.3-1.7,0.3-3.5,0.1-5.3c-0.2-1.5-0.7-3.1-2.3-3.7
		s-3,0.1-4.2,1c-1.4,1.1-2.6,2.4-3.7,3.8c-2.6,3.3-4.7,6.9-6.3,10.8c-1.5,3.7-1.7,6.5-1.1,8.6C131.5,228.2,132.8,229.7,134.6,230.4
		L134.6,230.4z M135.8,227.5c-0.9-0.3-1.6-1.1-1.9-2c-0.4-1.2-0.4-3.2,1-6.4c1.5-3.6,3.5-6.9,5.9-10c0.9-1.2,1.9-2.3,3.1-3.2
		c0.3-0.3,0.7-0.5,1.1-0.6c0.2,0.4,0.4,0.8,0.4,1.2c0.2,1.5,0.1,3-0.1,4.4c-0.5,3.9-1.5,7.6-3,11.2c-1.4,3.3-2.8,4.7-3.9,5.2
		C137.6,227.9,136.6,227.9,135.8,227.5L135.8,227.5z"/>
	<path style="clip-path:url(#SVGID_00000161621660602692319780000008712176223803530634_);fill:#1A1A1A;" d="M97.8,263
		c24.3,0,43.9-19.7,43.9-43.9s-19.7-43.9-43.9-43.9s-43.9,19.7-43.9,43.9c0,0,0,0,0,0C53.9,243.3,73.6,263,97.8,263z M97.8,258
		c-21.5,0-38.9-17.4-38.9-38.9s17.4-38.9,38.9-38.9s38.9,17.4,38.9,38.9c0,21.5-17.4,38.9-38.8,38.9C97.9,258,97.9,258,97.8,258z"/>
	<path style="clip-path:url(#SVGID_00000161621660602692319780000008712176223803530634_);fill:#EB5A53;" d="M139.3,219.1
		c0,22.9-18.5,41.4-41.4,41.4S56.4,242,56.4,219.1c0-22.9,18.5-41.4,41.4-41.4c11,0,21.5,4.4,29.3,12.1
		C134.9,197.5,139.3,208.1,139.3,219.1L139.3,219.1z"/>
	<path style="clip-path:url(#SVGID_00000161621660602692319780000008712176223803530634_);fill:#EB5A53;" d="M134,221.2
		c0,21.2-17.2,38.3-38.3,38.3c-21.2,0-38.3-17.2-38.3-38.3s17.2-38.3,38.3-38.3c10.2,0,19.9,4,27.1,11.2
		C130,201.3,134,211,134,221.2z"/>
	<path style="clip-path:url(#SVGID_00000161621660602692319780000008712176223803530634_);fill:#FFFFFF;" d="M139.3,219.1
		c0.4-22.9-17.9-41.7-40.8-42.1s-41.7,17.9-42.1,40.8c0,0.4,0,0.9,0,1.3H139.3z"/>
	<path style="clip-path:url(#SVGID_00000161621660602692319780000008712176223803530634_);fill:#FFFFFF;" d="M133.9,219.1
		c-1.2-21.1-19.3-37.2-40.5-36c-19.4,1.1-34.9,16.6-36,36H133.9z"/>
	<path style="clip-path:url(#SVGID_00000161621660602692319780000008712176223803530634_);fill:#1A1A1A;" d="M97.8,261.1
		c23.2,0,42-18.8,42-42s-18.8-42-42-42c-23.2,0-42,18.8-42,41.9C55.8,242.3,74.6,261.1,97.8,261.1z M97.8,259.9
		c-22.5,0-40.8-18.3-40.8-40.8c0-22.5,18.3-40.8,40.8-40.8c22.5,0,40.8,18.3,40.8,40.8C138.6,241.6,120.4,259.8,97.8,259.9
		C97.8,259.9,97.8,259.9,97.8,259.9z"/>
	<path style="clip-path:url(#SVGID_00000161621660602692319780000008712176223803530634_);fill:#1A1A1A;" d="M84.5,234.1
		c-3.6,0-6.4-2.9-6.4-6.4c0,0,0,0,0,0v-3.2c0.1-3.6,3.1-6.3,6.7-6.2c3.4,0.1,6.1,2.8,6.2,6.2v3.2C91,231.2,88.1,234.1,84.5,234.1
		C84.5,234.1,84.5,234.1,84.5,234.1z"/>
	<path style="clip-path:url(#SVGID_00000161621660602692319780000008712176223803530634_);fill:#FFFFFF;" d="M88.3,229.4
		c-0.1,1.2-1.1,2-2.2,1.9c-1-0.1-1.9-0.9-1.9-1.9c0-1.1,0.9-2.1,2.1-2.1c0,0,0,0,0,0c0.6,0,1.1,0.2,1.5,0.6
		C88.1,228.4,88.3,228.9,88.3,229.4z"/>
	<path style="clip-path:url(#SVGID_00000161621660602692319780000008712176223803530634_);fill:#1A1A1A;" d="M111.1,234.1
		c-3.6,0-6.4-2.9-6.4-6.4c0,0,0,0,0,0v-3.2c0.1-3.6,3.1-6.3,6.7-6.2c3.4,0.1,6.1,2.8,6.2,6.2v3.2
		C117.6,231.2,114.7,234.1,111.1,234.1C111.2,234.1,111.2,234.1,111.1,234.1z"/>
	<path style="clip-path:url(#SVGID_00000161621660602692319780000008712176223803530634_);fill:#FFFFFF;" d="M114.9,229.4
		c-0.1,1.2-1.1,2-2.2,1.9c-1-0.1-1.9-0.9-1.9-1.9c0-1.1,0.9-2.1,2.1-2.1c0,0,0,0,0,0c0.6,0,1.1,0.2,1.5,0.6
		C114.7,228.4,114.9,228.9,114.9,229.4z"/>
	<path style="clip-path:url(#SVGID_00000161621660602692319780000008712176223803530634_);fill:#AF1739;" d="M104.7,216
		c0.8,0,1.4-0.6,1.4-1.4c0,0,0,0,0,0V213c-0.2-4.6-4-8.2-8.6-8c-4.4,0.2-7.9,3.7-8,8v1.6c0,0.8,0.7,1.4,1.5,1.4H104.7z"/>
	<path style="clip-path:url(#SVGID_00000161621660602692319780000008712176223803530634_);fill:#EB5775;" d="M97.8,210.4
		c2.4,0,4.7-1,6.3-2.9c-3-3.5-8.3-3.8-11.7-0.8c-0.3,0.2-0.5,0.5-0.8,0.8C93.2,209.3,95.4,210.4,97.8,210.4z"/>
	<path style="clip-path:url(#SVGID_00000161621660602692319780000008712176223803530634_);fill:#FFFFFF;" d="M104.7,216
		c0.8,0,1.4-0.6,1.4-1.4c0,0,0,0,0,0v-1.4c-5.2-2.5-11.4-2.5-16.6,0v1.4c0,0.8,0.6,1.4,1.4,1.4c0,0,0,0,0.1,0H104.7z"/>
	<path style="clip-path:url(#SVGID_00000161621660602692319780000008712176223803530634_);fill:#BADBE9;" d="M91.8,216v-2.2
		c0-0.8,0.1-1.4,0.7-1.7c-1,0.3-2,0.6-2.9,1.1v1.4c0,0.8,0.7,1.4,1.4,1.4c0,0,0,0,0,0H91.8z"/>
	<path style="clip-path:url(#SVGID_00000161621660602692319780000008712176223803530634_);fill:#BADBE9;" d="M104.7,216
		c0.8,0,1.4-0.6,1.4-1.4c0,0,0,0,0,0v-1.4c-1.8-0.8-3.7-1.4-5.7-1.7c1,0.3,1.2,1.2,1.2,2.4v2.2H104.7z"/>
	<path style="clip-path:url(#SVGID_00000161621660602692319780000008712176223803530634_);fill:#8BB0CC;" d="M103.9,216v-2.2
		c0-0.8-0.1-1.4-0.7-1.7c1,0.3,2,0.6,2.9,1.1v1.4c0,0.8-0.7,1.4-1.4,1.4H103.9z"/>
	<path style="clip-path:url(#SVGID_00000161621660602692319780000008712176223803530634_);fill:#1A1A1A;" d="M104.7,216.6
		c1.1,0,2.1-0.9,2.1-2.1V213c0.2-4.9-3.7-9.1-8.6-9.2c-4.9-0.2-9.1,3.7-9.2,8.6c0,0.2,0,0.4,0,0.6v1.6c0,1.1,0.9,2,2,2.1
		L104.7,216.6z M91,215.4c-0.4,0-0.8-0.3-0.8-0.8c0,0,0,0,0,0V213c0.2-4.2,3.7-7.6,8-7.4c4,0.1,7.3,3.4,7.4,7.4v1.6
		c0,0.4-0.3,0.8-0.8,0.8c0,0,0,0,0,0L91,215.4z"/>
	<path style="clip-path:url(#SVGID_00000161621660602692319780000008712176223803530634_);fill:#1A1A1A;" d="M89.5,213.5
		c5.3-2.6,11.4-2.6,16.7,0l0.3-0.6c-5.4-2.6-11.8-2.6-17.2,0L89.5,213.5z"/>
	<path style="clip-path:url(#SVGID_00000161621660602692319780000008712176223803530634_);fill:#F293A2;" d="M96.9,208.1
		c0,0.3-0.2,0.5-0.4,0.7c-0.3,0.2-0.6,0.3-1,0.3c-0.8,0-1.4-0.4-1.4-1s0.6-1,1.4-1c0.4,0,0.7,0.1,1,0.3
		C96.8,207.5,96.9,207.8,96.9,208.1L96.9,208.1z"/>
	<path style="clip-path:url(#SVGID_00000161621660602692319780000008712176223803530634_);fill:#1A1A1A;" d="M58.8,199.5l0.6,0.1
		l-1.1,8.4l-0.6-0.1L58.8,199.5z"/>
	<path style="clip-path:url(#SVGID_00000161621660602692319780000008712176223803530634_);fill:#1A1A1A;" d="M105.9,277v-4.2
		c-4-0.3-7.9-0.3-12-0.6c-5.2-0.4-8.2-1.9-10-3.7c-1.7-1.7-2.6-4.1-2.6-6.5c0-4.3,2.3-7.2,6.3-9.2s9.8-2.7,15.6-1.8
		c0.9,0.1,1.8,0.3,2.6,0.5v-4.3c-0.7-0.1-1.3-0.3-2-0.4c-6.6-1-13.1-0.3-18.1,2.1s-8.7,7-8.7,13c-0.1,3.6,1.3,7,3.7,9.6
		c2.7,2.7,6.9,4.5,12.7,4.9C97.9,276.8,101.9,276.8,105.9,277L105.9,277z"/>
	<path style="clip-path:url(#SVGID_00000161621660602692319780000008712176223803530634_);fill:#1A1A1A;" d="M121.1,279.6l-1.4-3.7
		l-0.3-0.9c3.7,0.5,7.4,1.3,11,2.4l3.2,1.1l-0.4-3.4c-2.2-16.8-15.7-25.9-28.7-28.1v4.3c10.4,2,20.7,8.8,23.7,21.1
		c-3.9-1.2-8-1.8-12.1-1.9h-3l1.2,3.4c-3.3-0.6-6.6-0.9-9.9-1.1v4.3c4.3,0.1,8.5,0.7,12.7,1.7L121.1,279.6z"/>
	<path style="clip-path:url(#SVGID_00000161621660602692319780000008712176223803530634_);fill:#595959;" d="M117.7,276.6l-1.5-4
		c6.9,0,14.9,2.8,14.9,2.8c-4.2-32-51.9-34-51.9-13.4c0,5.8,3.5,11.6,14.5,12.4C101.9,275,108.8,274.5,117.7,276.6L117.7,276.6z"/>
	<path style="clip-path:url(#SVGID_00000161621660602692319780000008712176223803530634_);fill:#3E3E3E;" d="M131.1,275.3
		c-4.2-32-51.9-34-51.9-13.4c0,0.9,0.1,1.9,0.3,2.8C87.1,246.4,125.5,254.5,131.1,275.3z"/>
	<path style="clip-path:url(#SVGID_00000161621660602692319780000008712176223803530634_);fill:#1A1A1A;" d="M105.9,275.5v-1
		c-4-0.2-7.9-0.3-12.2-0.6c-5.4-0.4-8.9-2-11-4.2c-2-2.1-3.1-4.8-3-7.7c0-4.9,2.8-8.5,7.2-10.6s10.4-2.8,16.6-1.9
		c0.8,0.1,1.6,0.3,2.4,0.4v-1.1c-0.7-0.2-1.5-0.3-2.2-0.4c-6.3-1-12.5-0.3-17.2,2s-7.8,6.2-7.8,11.6c-0.1,3.1,1.1,6.2,3.3,8.4
		c2.4,2.4,6.1,4.1,11.7,4.5C98,275.2,101.9,275.2,105.9,275.5L105.9,275.5z"/>
	<path style="clip-path:url(#SVGID_00000161621660602692319780000008712176223803530634_);fill:#1A1A1A;" d="M118.6,277.3l-0.3-0.9
		l-1.2-3.3c4.7,0.3,9.4,1.2,13.9,2.7l0.8,0.3l-0.1-0.9c-2.1-15.9-14.8-24.5-27.1-26.7v1.1c11.7,2.1,23.6,10.2,25.9,25
		c-4.6-1.6-9.4-2.5-14.2-2.6h-0.8l1.4,3.9c-4.1-0.9-8.2-1.4-12.4-1.6v1c4.4,0.2,8.8,0.7,13.1,1.7L118.6,277.3z"/>
	<path style="clip-path:url(#SVGID_00000161621660602692319780000008712176223803530634_);fill:#EB5A53;" d="M180.2,192.4H16.3
		c-2.9,0-5.3-2.4-5.3-5.3v-89c0-2.9,2.4-5.3,5.3-5.3h163.9c2.9,0,5.3,2.4,5.3,5.3v89C185.5,190,183.1,192.4,180.2,192.4z"/>
	<text transform="matrix(1 0 0 1 17.17 176.79)" class="st12 st13 st14">398,</text>
	<text transform="matrix(1 0 0 1 77.88 176.79)" class="st12 st13 st14">6</text>
	<text transform="matrix(1 0 0 1 96.08 176.79)" class="st12 st13 st14">2</text>
	<text transform="matrix(1 0 0 1 112.57 176.79)" class="st12 st13 st14">4 km</text>
	<g style="clip-path:url(#SVGID_00000161621660602692319780000008712176223803530634_);enable-background:new    ;">
		<text transform="matrix(1 0 0 1 16.74 138.28)" class="st12 st13 st16">granica</text>
	</g>
	<path style="clip-path:url(#SVGID_00000161621660602692319780000008712176223803530634_);fill:#EB5A53;" d="M150.6,0h29h16v16
		c0,7,0,14,0,21c-10.2,12.4-28.6,14.2-41,4S140.4,12.4,150.6,0z"/>
	<g style="clip-path:url(#SVGID_00000161621660602692319780000008712176223803530634_);enable-background:new    ;">
		<text transform="matrix(1 0 0 1 159.7 31.75)" class="st12 st13 st17">07</text>
	</g>
</g>
</svg>
