<?xml version="1.0" encoding="utf-8"?>
<!-- Generator: Adobe Illustrator 26.0.1, SVG Export Plug-In . SVG Version: 6.00 Build 0)  -->
<svg version="1.1" id="Слой_1" xmlns="http://www.w3.org/2000/svg" xmlns:xlink="http://www.w3.org/1999/xlink" x="0px" y="0px"
	 viewBox="0 0 195.6 280.6" style="enable-background:new 0 0 195.6 280.6;" xml:space="preserve">
<style type="text/css">
	.st0{clip-path:url(#SVGID_00000143602333385013677320000004083621693538574000_);fill:#EB5A53;}
	.st1{clip-path:url(#SVGID_00000116915593144219820960000000203913511744937866_);fill:#FFFFFF;}
	.st2{clip-path:url(#SVGID_00000025415610658104440690000011543079443728367497_);fill:#FFFFFF;}
	.st3{clip-path:url(#SVGID_00000127007549682874118720000011973611253348528530_);fill:#FFFFFF;}
	.st4{clip-path:url(#SVGID_00000083052239897338417970000005537433215710015894_);fill:#FFFFFF;}
	.st5{clip-path:url(#SVGID_00000131362390691904059520000014369198940483781799_);fill:#FFFFFF;}
	.st6{clip-path:url(#SVGID_00000182517247554448318180000003999078227961311138_);fill:#FFFFFF;}
	.st7{clip-path:url(#SVGID_00000035520802837388944370000017013548101322277780_);fill:#FFFFFF;}
	.st8{clip-path:url(#SVGID_00000072259775222228765540000016524416496328977814_);fill:#FFFFFF;}
	.st9{clip-path:url(#SVGID_00000152956595906328253330000015018033321885007516_);fill:#FFFFFF;}
	.st10{clip-path:url(#SVGID_00000005976048490818301110000013654542718323317636_);fill:#FFFFFF;}
	.st11{clip-path:url(#SVGID_00000165920007035119257850000008612772742248941209_);fill:#FFFFFF;}
	.st12{clip-path:url(#SVGID_00000004517933847762280840000013825764384687084442_);fill:#FFFFFF;}
	.st13{clip-path:url(#SVGID_00000145058191600704775810000015422257377688944526_);fill:#67B54B;}
	.st14{clip-path:url(#SVGID_00000179626680240696313870000015361321111034367380_);fill:#1A1A1A;}
	.st15{clip-path:url(#SVGID_00000000923521477285990950000007341885498419701152_);fill:#1A1A1A;}
	.st16{clip-path:url(#SVGID_00000085244309741034010800000001484075713528088457_);fill:#67B54B;}
	.st17{clip-path:url(#SVGID_00000145748740156336197020000004361692519117609144_);fill:#1A1A1A;}
	.st18{clip-path:url(#SVGID_00000149356197886631927130000011156649633828043677_);fill:#1A1A1A;}
	.st19{clip-path:url(#SVGID_00000010996354864555944410000000108503844336306566_);fill:#67B54B;}
	.st20{clip-path:url(#SVGID_00000139974070517656713490000017660455246609360021_);fill:#1A1A1A;}
	.st21{clip-path:url(#SVGID_00000179625209927974809570000012941496764117595559_);fill:#1A1A1A;}
	.st22{clip-path:url(#SVGID_00000065061137161268786780000000034944705188577428_);fill:#1A1A1A;}
	.st23{clip-path:url(#SVGID_00000047757331807805726550000018369835652190155450_);fill:#88C05C;}
	.st24{clip-path:url(#SVGID_00000157276853343742273020000012864200178614085524_);fill:#67B54B;}
	.st25{clip-path:url(#SVGID_00000181067260603311542260000004489137981668053888_);fill:#67B54B;}
	.st26{clip-path:url(#SVGID_00000137848791571145989580000010195468109021740967_);fill:#FFFFFF;}
	.st27{clip-path:url(#SVGID_00000036250821780106984800000014135684344908032674_);fill:#1A1A1A;}
	.st28{clip-path:url(#SVGID_00000029007653015574279230000009205019407787920820_);fill:#FFFFFF;}
	.st29{clip-path:url(#SVGID_00000154410013935231326520000006762244995973160368_);fill:#FFFFFF;}
	.st30{clip-path:url(#SVGID_00000155111252468013786320000017652749865229204890_);fill:#FFFFFF;}
	.st31{clip-path:url(#SVGID_00000054243567396622912600000005323074308897232776_);fill:#FFFFFF;}
	.st32{clip-path:url(#SVGID_00000165195905513212294400000001104414717785592196_);fill:#FFFFFF;}
	.st33{clip-path:url(#SVGID_00000115484426320276341470000016257660860198226835_);fill:#FFFFFF;}
	.st34{clip-path:url(#SVGID_00000093882723219740752620000003917813786444028588_);fill:#FFFFFF;}
	.st35{clip-path:url(#SVGID_00000003081040132036759510000017085902179632471732_);fill:#FFFFFF;}
	.st36{clip-path:url(#SVGID_00000131336025260669369010000016394817819025593735_);fill:#FFFFFF;}
	.st37{clip-path:url(#SVGID_00000176028758388143150640000016877816536088767637_);fill:#FFFFFF;}
	.st38{clip-path:url(#SVGID_00000064345352478249319400000005916314970695492489_);fill:#1A1A1A;}
	.st39{clip-path:url(#SVGID_00000106856331256142265280000018334982693483166603_);fill:#FFFFFF;}
	.st40{clip-path:url(#SVGID_00000163047680881070620450000012755660946552184220_);fill:#1A1A1A;}
	.st41{clip-path:url(#SVGID_00000115499145704917761140000014192966265236224139_);fill:#FFFFFF;}
	.st42{clip-path:url(#SVGID_00000170983252379006697130000001308387926525101754_);fill:#1A1A1A;}
	.st43{clip-path:url(#SVGID_00000183933680861807489890000003260528215237200063_);fill:#1A1A1A;}
	.st44{clip-path:url(#SVGID_00000115505394726684238860000002347639585346733442_);fill:#1A1A1A;}
	.st45{clip-path:url(#SVGID_00000107579887706371825880000006950276716670709635_);fill:#595959;}
	.st46{clip-path:url(#SVGID_00000163779848345927011660000008355550792622452369_);fill:#797979;}
	.st47{clip-path:url(#SVGID_00000021827412069099449460000015097282521126186886_);fill:#3E3E3E;}
	.st48{clip-path:url(#SVGID_00000018195024884496499070000006308377073182011034_);fill:#1A1A1A;}
	.st49{clip-path:url(#SVGID_00000135683446508158830210000001278507965162857101_);fill:#1A1A1A;}
	.st50{clip-path:url(#SVGID_00000109728025102970281040000009563949803813029783_);fill:#EB5A53;}
	.st51{enable-background:new    ;}
	.st52{fill:#1A1A1A;}
	.st53{fill:#FFFFFF;}
</style>
<g>
	<g>
		<g>
			<defs>
				<rect id="SVGID_1_" x="0.2" y="0.7" width="195.6" height="280.6"/>
			</defs>
			<clipPath id="SVGID_00000026136348667570809730000015489490329114549645_">
				<use xlink:href="#SVGID_1_"  style="overflow:visible;"/>
			</clipPath>
			
				<rect x="-1.5" y="93.5" style="clip-path:url(#SVGID_00000026136348667570809730000015489490329114549645_);fill:#EB5A53;" width="198.7" height="93.5"/>
		</g>
	</g>
	<g>
		<g>
			<defs>
				<rect id="SVGID_00000014615445943965491820000016326871422136503437_" x="0.2" y="0.7" width="195.6" height="280.6"/>
			</defs>
			<clipPath id="SVGID_00000109031093017554028120000012736826449377572522_">
				<use xlink:href="#SVGID_00000014615445943965491820000016326871422136503437_"  style="overflow:visible;"/>
			</clipPath>
			
				<rect x="-1.5" style="clip-path:url(#SVGID_00000109031093017554028120000012736826449377572522_);fill:#FFFFFF;" width="198.7" height="93.5"/>
		</g>
	</g>
	<g>
		<g>
			<defs>
				<rect id="SVGID_00000087381893820612092170000014886918200422749340_" x="0.2" y="0.7" width="195.6" height="280.6"/>
			</defs>
			<clipPath id="SVGID_00000070078042891132607940000014488442265524732861_">
				<use xlink:href="#SVGID_00000087381893820612092170000014886918200422749340_"  style="overflow:visible;"/>
			</clipPath>
			
				<rect x="-1.5" y="187.1" style="clip-path:url(#SVGID_00000070078042891132607940000014488442265524732861_);fill:#FFFFFF;" width="198.7" height="93.5"/>
		</g>
	</g>
	<g>
		<g>
			<defs>
				<rect id="SVGID_00000066502104221059361310000004325930672769688751_" x="0.2" y="0.7" width="195.6" height="280.6"/>
			</defs>
			<clipPath id="SVGID_00000018209625510739079910000002893698368955333001_">
				<use xlink:href="#SVGID_00000066502104221059361310000004325930672769688751_"  style="overflow:visible;"/>
			</clipPath>
			<path style="clip-path:url(#SVGID_00000018209625510739079910000002893698368955333001_);fill:#FFFFFF;" d="M45.2,134.5H45h-0.1
				h-0.1h-0.1h-0.1l0,0h-0.1h-0.1h-0.1h-0.1l-0.1,0.1l-0.1,0.1l-0.1,0.1l-0.1,0.1l-0.1,0.1l-0.1,0.1l-0.1,0.1c0,0-0.1,0-0.1,0.1
				l-0.1,0.1l-0.1,0.1v0.1v0.1v0.1v0.1v0.1v0.1v0.1v0.1v0.1v0.1v0.3v0.1v0.1v0.1v0.1v0.1v0.1v0.1v0.1v0.1l0.1,0.1l0.1,0.1l0.1,0.1
				c0,0,0,0.1,0.1,0.1l0.1,0.1l0.1,0.1l0.1,0.1l0.1,0.1l0.1,0.1l0.1,0.1l0.1,0.1h0.1h0.1h0.1h0.1h0.1h0.1H45h0.1h0.5h0.1h0.1h0.1
				l0,0l0,0H46l0,0h0.1l0.1-0.1l0.1-0.1l0.1-0.1l0.1-0.1l0.1-0.1l0.1-0.1l0.1-0.1l0.1-0.1l0.1-0.1l0.1-0.1l0.1-0.1l0.1-0.1v-0.1
				v-0.1v-0.1v-0.1v-0.1V137v-0.1v-0.1v-0.1v-0.3v-0.1v-0.1v-0.1V136l0,0l0,0v-0.1v-0.1v-0.1v-0.1v-0.1l-0.1-0.1l-0.1-0.1l-0.1-0.1
				l-0.1-0.1l-0.1-0.1l-0.1,0.2l-0.1-0.1l-0.1-0.1l-0.1-0.1l-0.1-0.1l-0.1-0.1H46l0,0h-0.1h-0.1h-0.1h-0.1h-0.1h-0.2L45.2,134.5z"/>
		</g>
	</g>
	<g>
		<g>
			<defs>
				<rect id="SVGID_00000182520208069772604650000015682537766044677025_" x="0.2" y="0.7" width="195.6" height="280.6"/>
			</defs>
			<clipPath id="SVGID_00000134969222730091146260000005593924872839723697_">
				<use xlink:href="#SVGID_00000182520208069772604650000015682537766044677025_"  style="overflow:visible;"/>
			</clipPath>
			<path style="clip-path:url(#SVGID_00000134969222730091146260000005593924872839723697_);fill:#FFFFFF;" d="M45.2,134.5H45h-0.1
				h-0.1h-0.1h-0.1l0,0h-0.1h-0.1h-0.1h-0.1l-0.1,0.1l-0.1,0.1l-0.1,0.1l-0.1,0.1l-0.1,0.1l-0.1,0.1l-0.1,0.1c0,0-0.1,0-0.1,0.1
				l-0.1,0.1l-0.1,0.1v0.1v0.1v0.1v0.1v0.1v0.1v0.1v0.1v0.1v0.1v0.3v0.1v0.1v0.1v0.1v0.1v0.1v0.1v0.1v0.1l0.1,0.1l0.1,0.1l0.1,0.1
				c0,0,0,0.1,0.1,0.1l0.1,0.1l0.1,0.1l0.1,0.1l0.1,0.1l0.1,0.1l0.1,0.1l0.1,0.1h0.1h0.1h0.1h0.1h0.1h0.1H45h0.1h0.4h0.1h0.1h0.1
				h0.1l0,0l0,0l0.1-0.1l0,0h0.1l0.1-0.1l0.1-0.1l0.1-0.1l0.1-0.1c0,0,0.1,0,0.1-0.1c0,0,0.1,0,0.1-0.1l0.1-0.1l0.1-0.1l0.1-0.1
				l0.1-0.1l0.1-0.1l0.1-0.1v-0.1v-0.1v-0.1v-0.1V137v-0.1v-0.1v-0.1v-0.1v-0.3v-0.1v-0.1V136v-0.1l0,0l0,0v-0.1
				c0,0-1937,774.6-0.1-0.2v-0.1v-0.1v0.2l-0.1-0.1l-0.1-0.1l-0.1-0.1l-0.1-0.1l-0.1-0.1l-0.1-0.1l-0.1-0.1l-0.1-0.1l-0.1-0.1
				l-0.1-0.1H46l0,0h-0.1h-0.1h-0.1h-0.1h-0.1h-0.1L45.2,134.5L45.2,134.5z"/>
		</g>
	</g>
	<g>
		<g>
			<defs>
				<rect id="SVGID_00000011730120382786172570000015247651023744841096_" x="0.2" y="0.7" width="195.6" height="280.6"/>
			</defs>
			<clipPath id="SVGID_00000122720585792101401850000006707735608025541560_">
				<use xlink:href="#SVGID_00000011730120382786172570000015247651023744841096_"  style="overflow:visible;"/>
			</clipPath>
			<path style="clip-path:url(#SVGID_00000122720585792101401850000006707735608025541560_);fill:#FFFFFF;" d="M45.2,134.5H45h-0.1
				h-0.1h-0.1h-0.1l0,0h-0.1h-0.1h-0.1h-0.1l-0.1,0.1l-0.1,0.1l-0.1,0.1l-0.1,0.1l-0.1,0.1l-0.1,0.1l-0.1,0.1c0,0-0.1,0-0.1,0.1
				l-0.1,0.1l-0.1,0.1v0.1v0.1v0.1v0.1v0.1v0.1v0.1v0.1v0.1v0.1v0.3v0.1v0.1v0.1v0.1v0.1v0.1v0.1v0.1v0.1l0.1,0.1l0.1,0.1l0.1,0.1
				c0,0,0,0.1,0.1,0.1l0.1,0.1l0.1,0.1l0.1,0.1l0.1,0.1l0.1,0.1l0.1,0.1l0.1,0.1h0.1h0.1h0.1h0.1h0.1h0.1H45h0.1h0.4h0.1h0.1h0.1
				h0.1l0,0l0,0l0.1-0.1l0,0h0.1l0.1-0.1l0.1-0.1l0.1-0.1l0.1-0.1c0,0,0.1,0,0.1-0.1c0,0,0.1,0,0.1-0.1l0.1-0.1l0.1-0.1l0.1-0.1
				l0.1-0.1l0.1-0.1l0.1-0.1v-0.1v-0.1v-0.1v-0.1V137v-0.1v-0.1v-0.1v-0.1v-0.3v-0.1v-0.1V136v-0.1l0,0l0,0v-0.1
				c0,0-1937,774.6-0.1-0.2v-0.1v-0.1v0.2l-0.1-0.1l-0.1-0.1l-0.1-0.1l-0.1-0.1l-0.1-0.1l-0.1-0.1l-0.1-0.1l-0.1-0.1l-0.1-0.1
				l-0.1-0.1H46l0,0h-0.1h-0.1h-0.1h-0.1h-0.1h-0.1L45.2,134.5L45.2,134.5z"/>
		</g>
	</g>
	<g>
		<g>
			<defs>
				<rect id="SVGID_00000088841817586592155360000011471993054426066056_" x="0.2" y="0.7" width="195.6" height="280.6"/>
			</defs>
			<clipPath id="SVGID_00000124844387985981429800000012548707753698596245_">
				<use xlink:href="#SVGID_00000088841817586592155360000011471993054426066056_"  style="overflow:visible;"/>
			</clipPath>
			<path style="clip-path:url(#SVGID_00000124844387985981429800000012548707753698596245_);fill:#FFFFFF;" d="M45.2,134.5H45h-0.1
				h-0.1h-0.1h-0.1l0,0h-0.1h-0.1h-0.1h-0.1l-0.1,0.1l-0.1,0.1l-0.1,0.1l-0.1,0.1l-0.1,0.1l-0.1,0.1l-0.1,0.1c0,0-0.1,0-0.1,0.1
				l-0.1,0.1l-0.1,0.1v0.1v0.1v0.1v0.1v0.1v0.1v0.1v0.1v0.1v0.1v0.3v0.1v0.1v0.1v0.1v0.1v0.1v0.1v0.1v0.1l0.1,0.1l0.1,0.1l0.1,0.1
				c0,0,0,0.1,0.1,0.1l0.1,0.1l0.1,0.1l0.1,0.1l0.1,0.1l0.1,0.1l0.1,0.1l0.1,0.1h0.1h0.1h0.1h0.1h0.1h0.1H45h0.1h0.4h0.1h0.1h0.1
				h0.1l0,0l0,0l0.1-0.1l0,0h0.1l0.1-0.1l0.1-0.1l0.1-0.1l0.1-0.1c0,0,0.1,0,0.1-0.1c0,0,0.1,0,0.1-0.1l0.1-0.1l0.1-0.1l0.1-0.1
				l0.1-0.1l0.1-0.1l0.1-0.1v-0.1v-0.1v-0.1v-0.1V137v-0.1v-0.1v-0.1v-0.1v-0.3v-0.1v-0.1V136v-0.1l0,0l0,0v-0.1
				c0,0-1937,774.6-0.1-0.2v-0.1v-0.1v0.2l-0.1-0.1l-0.1-0.1l-0.1-0.1l-0.1-0.1l-0.1-0.1l-0.1-0.1l-0.1-0.1l-0.1-0.1l-0.1-0.1
				l-0.1-0.1H46l0,0h-0.1h-0.1h-0.1h-0.1h-0.1h-0.1L45.2,134.5L45.2,134.5z"/>
		</g>
	</g>
	<g>
		<g>
			<defs>
				<rect id="SVGID_00000115511112177829342460000005383997965170504614_" x="0.2" y="0.7" width="195.6" height="280.6"/>
			</defs>
			<clipPath id="SVGID_00000046304721602991278690000006851375606276994945_">
				<use xlink:href="#SVGID_00000115511112177829342460000005383997965170504614_"  style="overflow:visible;"/>
			</clipPath>
			<path style="clip-path:url(#SVGID_00000046304721602991278690000006851375606276994945_);fill:#FFFFFF;" d="M45.2,134.5H45h-0.1
				h-0.1h-0.1h-0.1l0,0h-0.1h-0.1h-0.1h-0.1l-0.1,0.1l-0.1,0.1l-0.1,0.1l-0.1,0.1l-0.1,0.1l-0.1,0.1l-0.1,0.1c0,0-0.1,0-0.1,0.1
				l-0.1,0.1l-0.1,0.1v0.1v0.1v0.1v0.1v0.1v0.1v0.1v0.1v0.1v0.1v0.3v0.1v0.1v0.1v0.1v0.1v0.1v0.1v0.1v0.1l0.1,0.1l0.1,0.1l0.1,0.1
				c0,0,0,0.1,0.1,0.1l0.1,0.1l0.1,0.1l0.1,0.1l0.1,0.1l0.1,0.1l0.1,0.1l0.1,0.1h0.1h0.1h0.1h0.1h0.1h0.1H45h0.1h0.4h0.1h0.1h0.1
				h0.1l0,0l0,0l0.1-0.1l0,0h0.1l0.1-0.1l0.1-0.1l0.1-0.1l0.1-0.1c0,0,0.1,0,0.1-0.1c0,0,0.1,0,0.1-0.1l0.1-0.1l0.1-0.1l0.1-0.1
				l0.1-0.1l0.1-0.1l0.1-0.1v-0.1v-0.1v-0.1v-0.1V137v-0.1v-0.1v-0.1v-0.1v-0.3v-0.1v-0.1V136v-0.1l0,0l0,0v-0.1
				c0,0-1937,774.6-0.1-0.2v-0.1v-0.1v0.2l-0.1-0.1l-0.1-0.1l-0.1-0.1l-0.1-0.1l-0.1-0.1l-0.1-0.1l-0.1-0.1l-0.1-0.1l-0.1-0.1
				l-0.1-0.1H46l0,0h-0.1h-0.1h-0.1h-0.1h-0.1h-0.1L45.2,134.5L45.2,134.5z"/>
		</g>
	</g>
	<g>
		<g>
			<defs>
				<rect id="SVGID_00000152966822361017858020000014109376326614753959_" x="0.2" y="0.7" width="195.6" height="280.6"/>
			</defs>
			<clipPath id="SVGID_00000079471454311355137220000003133821021001605297_">
				<use xlink:href="#SVGID_00000152966822361017858020000014109376326614753959_"  style="overflow:visible;"/>
			</clipPath>
			<path style="clip-path:url(#SVGID_00000079471454311355137220000003133821021001605297_);fill:#FFFFFF;" d="M45.2,134.5H45h-0.1
				h-0.1h-0.1h-0.1l0,0h-0.1h-0.1h-0.1h-0.1l-0.1,0.1l-0.1,0.1l-0.1,0.1l-0.1,0.1l-0.1,0.1l-0.1,0.1l-0.1,0.1c0,0-0.1,0-0.1,0.1
				l-0.1,0.1l-0.1,0.1v0.1v0.1v0.1v0.1v0.1v0.1v0.1v0.1v0.1v0.1v0.3v0.1v0.1v0.1v0.1v0.1v0.1v0.1v0.1v0.1l0.1,0.1l0.1,0.1l0.1,0.1
				c0,0,0,0.1,0.1,0.1l0.1,0.1l0.1,0.1l0.1,0.1l0.1,0.1l0.1,0.1l0.1,0.1l0.1,0.1h0.1h0.1h0.1h0.1h0.1h0.1H45h0.1h0.4h0.1h0.1h0.1
				h0.1l0,0l0,0l0.1-0.1l0,0h0.1l0.1-0.1l0.1-0.1l0.1-0.1l0.1-0.1c0,0,0.1,0,0.1-0.1c0,0,0.1,0,0.1-0.1l0.1-0.1l0.1-0.1l0.1-0.1
				l0.1-0.1l0.1-0.1l0.1-0.1v-0.1v-0.1v-0.1v-0.1V137v-0.1v-0.1v-0.1v-0.1v-0.3v-0.1v-0.1V136v-0.1l0,0l0,0v-0.1
				c0,0-1937,774.6-0.1-0.2v-0.1v-0.1v0.2l-0.1-0.1l-0.1-0.1l-0.1-0.1l-0.1-0.1l-0.1-0.1l-0.1-0.1l-0.1-0.1l-0.1-0.1l-0.1-0.1
				l-0.1-0.1H46l0,0h-0.1h-0.1h-0.1h-0.1h-0.1h-0.1L45.2,134.5L45.2,134.5z"/>
		</g>
	</g>
	<g>
		<g>
			<defs>
				<rect id="SVGID_00000022527616226390006490000002712497156963682974_" x="0.2" y="0.7" width="195.6" height="280.6"/>
			</defs>
			<clipPath id="SVGID_00000047033786044941662740000018095467571901344647_">
				<use xlink:href="#SVGID_00000022527616226390006490000002712497156963682974_"  style="overflow:visible;"/>
			</clipPath>
			<path style="clip-path:url(#SVGID_00000047033786044941662740000018095467571901344647_);fill:#FFFFFF;" d="M45.2,134.5H45h-0.1
				h-0.1h-0.1h-0.1l0,0h-0.1h-0.1h-0.1h-0.1l-0.1,0.1l-0.1,0.1l-0.1,0.1l-0.1,0.1l-0.1,0.1l-0.1,0.1l-0.1,0.1c0,0-0.1,0-0.1,0.1
				l-0.1,0.1l-0.1,0.1v0.1v0.1v0.1v0.1v0.1v0.1v0.1v0.1v0.1v0.1v0.3v0.1v0.1v0.1v0.1v0.1v0.1v0.1v0.1v0.1l0.1,0.1l0.1,0.1l0.1,0.1
				c0,0,0,0.1,0.1,0.1l0.1,0.1l0.1,0.1l0.1,0.1l0.1,0.1l0.1,0.1l0.1,0.1l0.1,0.1h0.1h0.1h0.1h0.1h0.1h0.1H45h0.1h0.4h0.1h0.1h0.1
				h0.1l0,0l0,0l0.1-0.1l0,0h0.1l0.1-0.1l0.1-0.1l0.1-0.1l0.1-0.1c0,0,0.1,0,0.1-0.1c0,0,0.1,0,0.1-0.1l0.1-0.1l0.1-0.1l0.1-0.1
				l0.1-0.1l0.1-0.1l0.1-0.1v-0.1v-0.1v-0.1v-0.1V137v-0.1v-0.1v-0.1v-0.1v-0.3v-0.1v-0.1V136v-0.1l0,0l0,0v-0.1
				c0,0-1937,774.6-0.1-0.2v-0.1v-0.1v0.2l-0.1-0.1l-0.1-0.1l-0.1-0.1l-0.1-0.1l-0.1-0.1l-0.1-0.1l-0.1-0.1l-0.1-0.1l-0.1-0.1
				l-0.1-0.1H46l0,0h-0.1h-0.1h-0.1h-0.1h-0.1h-0.1L45.2,134.5L45.2,134.5z"/>
		</g>
	</g>
	<g>
		<g>
			<defs>
				<rect id="SVGID_00000176756250582570084810000003845735520015888060_" x="0.2" y="0.7" width="195.6" height="280.6"/>
			</defs>
			<clipPath id="SVGID_00000027570900866625121280000013386643385731064247_">
				<use xlink:href="#SVGID_00000176756250582570084810000003845735520015888060_"  style="overflow:visible;"/>
			</clipPath>
			<path style="clip-path:url(#SVGID_00000027570900866625121280000013386643385731064247_);fill:#FFFFFF;" d="M45.2,134.5H45h-0.1
				h-0.1h-0.1h-0.1l0,0h-0.1h-0.1h-0.1h-0.1l-0.1,0.1l-0.1,0.1l-0.1,0.1l-0.1,0.1l-0.1,0.1l-0.1,0.1l-0.1,0.1c0,0-0.1,0-0.1,0.1
				l-0.1,0.1l-0.1,0.1v0.1v0.1v0.1v0.1v0.1v0.1v0.1v0.1v0.1v0.1v0.3v0.1v0.1v0.1v0.1v0.1v0.1v0.1v0.1v0.1l0.1,0.1l0.1,0.1l0.1,0.1
				c0,0,0,0.1,0.1,0.1l0.1,0.1l0.1,0.1l0.1,0.1l0.1,0.1l0.1,0.1l0.1,0.1l0.1,0.1h0.1h0.1h0.1h0.1h0.1h0.1H45h0.1h0.4h0.1h0.1h0.1
				h0.1l0,0l0,0l0.1-0.1l0,0h0.1l0.1-0.1l0.1-0.1l0.1-0.1l0.1-0.1c0,0,0.1,0,0.1-0.1c0,0,0.1,0,0.1-0.1l0.1-0.1l0.1-0.1l0.1-0.1
				l0.1-0.1l0.1-0.1l0.1-0.1v-0.1v-0.1v-0.1v-0.1V137v-0.1v-0.1v-0.1v-0.1v-0.3v-0.1v-0.1V136v-0.1l0,0l0,0v-0.1
				c0,0-1937,774.6-0.1-0.2v-0.1v-0.1v0.2l-0.1-0.1l-0.1-0.1l-0.1-0.1l-0.1-0.1l-0.1-0.1l-0.1-0.1l-0.1-0.1l-0.1-0.1l-0.1-0.1
				l-0.1-0.1H46l0,0h-0.1h-0.1h-0.1h-0.1h-0.1h-0.1L45.2,134.5L45.2,134.5z"/>
		</g>
	</g>
	<g>
		<g>
			<defs>
				<rect id="SVGID_00000009592021240347131220000015326794323768980917_" x="0.2" y="0.7" width="195.6" height="280.6"/>
			</defs>
			<clipPath id="SVGID_00000094578857084532364820000011008693944858617736_">
				<use xlink:href="#SVGID_00000009592021240347131220000015326794323768980917_"  style="overflow:visible;"/>
			</clipPath>
			<path style="clip-path:url(#SVGID_00000094578857084532364820000011008693944858617736_);fill:#FFFFFF;" d="M45.2,134.5H45h-0.1
				h-0.1h-0.1h-0.1l0,0h-0.1h-0.1h-0.1h-0.1l-0.1,0.1l-0.1,0.1l-0.1,0.1l-0.1,0.1l-0.1,0.1l-0.1,0.1l-0.1,0.1c0,0-0.1,0-0.1,0.1
				l-0.1,0.1l-0.1,0.1v0.1v0.1v0.1v0.1v0.1v0.1v0.1v0.1v0.1v0.1v0.3v0.1v0.1v0.1v0.1v0.1v0.1v0.1v0.1v0.1l0.1,0.1l0.1,0.1l0.1,0.1
				c0,0,0,0.1,0.1,0.1l0.1,0.1l0.1,0.1l0.1,0.1l0.1,0.1l0.1,0.1l0.1,0.1l0.1,0.1h0.1h0.1h0.1h0.1h0.1h0.1H45h0.1h0.4h0.1h0.1h0.1
				h0.1l0,0l0,0l0.1-0.1l0,0h0.1l0.1-0.1l0.1-0.1l0.1-0.1l0.1-0.1c0,0,0.1,0,0.1-0.1c0,0,0.1,0,0.1-0.1l0.1-0.1l0.1-0.1l0.1-0.1
				l0.1-0.1l0.1-0.1l0.1-0.1v-0.1v-0.1v-0.1v-0.1V137v-0.1v-0.1v-0.1v-0.1v-0.3v-0.1v-0.1V136v-0.1l0,0l0,0v-0.1
				c0,0-1937,774.6-0.1-0.2v-0.1v-0.1v0.2l-0.1-0.1l-0.1-0.1l-0.1-0.1l-0.1-0.1l-0.1-0.1l-0.1-0.1l-0.1-0.1l-0.1-0.1l-0.1-0.1
				l-0.1-0.1H46l0,0h-0.1h-0.1h-0.1h-0.1h-0.1h-0.1L45.2,134.5L45.2,134.5z"/>
		</g>
	</g>
	<g>
		<g>
			<defs>
				<rect id="SVGID_00000066509757297107567350000015688032226506047167_" x="0.2" y="0.7" width="195.6" height="280.6"/>
			</defs>
			<clipPath id="SVGID_00000034808648199517952370000000990791007363626402_">
				<use xlink:href="#SVGID_00000066509757297107567350000015688032226506047167_"  style="overflow:visible;"/>
			</clipPath>
			<path style="clip-path:url(#SVGID_00000034808648199517952370000000990791007363626402_);fill:#FFFFFF;" d="M45.2,134.5H45h-0.1
				h-0.1h-0.1h-0.1l0,0h-0.1h-0.1h-0.1h-0.1l-0.1,0.1l-0.1,0.1l-0.1,0.1l-0.1,0.1l-0.1,0.1l-0.1,0.1l-0.1,0.1c0,0-0.1,0-0.1,0.1
				l-0.1,0.1l-0.1,0.1v0.1v0.1v0.1v0.1v0.1v0.1v0.1v0.1v0.1v0.1v0.3v0.1v0.1v0.1v0.1v0.1v0.1v0.1v0.1v0.1l0.1,0.1l0.1,0.1l0.1,0.1
				c0,0,0,0.1,0.1,0.1l0.1,0.1l0.1,0.1l0.1,0.1l0.1,0.1l0.1,0.1l0.1,0.1l0.1,0.1h0.1h0.1h0.1h0.1h0.1h0.1H45h0.1h0.4h0.1h0.1h0.1
				h0.1l0,0l0,0l0.1-0.1l0,0h0.1l0.1-0.1l0.1-0.1l0.1-0.1l0.1-0.1c0,0,0.1,0,0.1-0.1c0,0,0.1,0,0.1-0.1l0.1-0.1l0.1-0.1l0.1-0.1
				l0.1-0.1l0.1-0.1l0.1-0.1v-0.1v-0.1v-0.1v-0.1V137v-0.1v-0.1v-0.1v-0.1v-0.3v-0.1v-0.1V136v-0.1l0,0l0,0v-0.1
				c0,0-1937,774.6-0.1-0.2v-0.1v-0.1v0.2l-0.1-0.1l-0.1-0.1l-0.1-0.1l-0.1-0.1l-0.1-0.1l-0.1-0.1l-0.1-0.1l-0.1-0.1l-0.1-0.1
				l-0.1-0.1H46l0,0h-0.1h-0.1h-0.1h-0.1h-0.1h-0.1L45.2,134.5L45.2,134.5z"/>
		</g>
	</g>
	<g>
		<g>
			<defs>
				<rect id="SVGID_00000051363053880892336440000016306664591144498052_" x="0.2" y="0.7" width="195.6" height="280.6"/>
			</defs>
			<clipPath id="SVGID_00000103241124081360478880000014418232949403596718_">
				<use xlink:href="#SVGID_00000051363053880892336440000016306664591144498052_"  style="overflow:visible;"/>
			</clipPath>
			<path style="clip-path:url(#SVGID_00000103241124081360478880000014418232949403596718_);fill:#67B54B;" d="M28.6,207.2
				c3.5,13.1,4.1,32.9-1.3,34.3s-14.7-16-18.2-29.1s1.6-17.3,5.5-18.3S25.1,194.1,28.6,207.2L28.6,207.2z"/>
		</g>
	</g>
	<g>
		<g>
			<defs>
				<rect id="SVGID_00000102542036315160621540000005608265436205977783_" x="0.2" y="0.7" width="195.6" height="280.6"/>
			</defs>
			<clipPath id="SVGID_00000092457579943914317110000017329861465516862370_">
				<use xlink:href="#SVGID_00000102542036315160621540000005608265436205977783_"  style="overflow:visible;"/>
			</clipPath>
			<path style="clip-path:url(#SVGID_00000092457579943914317110000017329861465516862370_);fill:#1A1A1A;" d="M8.7,220.3
				c1.7,4.7,3.9,9.2,6.4,13.6c1.5,2.8,3.5,5.3,5.7,7.6c2,1.9,4.4,3.6,7.3,2.8s4.2-3.4,5-6.1c0.8-3.1,1.1-6.2,1.1-9.4
				c0-5-0.4-10-1.2-15l-5.5,1.5c0.7,4.4,1.1,8.9,1.1,13.4c0,2.7-0.3,5.3-0.9,7.9c-0.2,0.8-0.5,1.5-1,2.1c-0.7-0.3-1.4-0.8-1.9-1.3
				c-1.8-1.9-3.4-4.1-4.7-6.4c-2.3-3.9-4.2-8-5.8-12.2L8.7,220.3z"/>
		</g>
	</g>
	<g>
		<g>
			<defs>
				<rect id="SVGID_00000066493451662071066200000015179941277128962701_" x="0.2" y="0.7" width="195.6" height="280.6"/>
			</defs>
			<clipPath id="SVGID_00000168810995005195992960000003615187980376074933_">
				<use xlink:href="#SVGID_00000066493451662071066200000015179941277128962701_"  style="overflow:visible;"/>
			</clipPath>
			<path style="clip-path:url(#SVGID_00000168810995005195992960000003615187980376074933_);fill:#1A1A1A;" d="M13.9,191.4
				c-3.3,0.9-6,3.1-7.4,6.2c-1.7,3.6-2,8.7-0.1,15.6c0.8,2.9,1.8,5.8,2.9,8.6l5.5-1.5c-1.2-2.8-2.1-5.7-2.9-8.6
				c-1.6-6.1-1.1-9.8-0.2-11.8c0.7-1.6,2.1-2.7,3.8-3.1c1.7-0.5,3.4-0.2,4.8,0.8c1.8,1.3,4,4.1,5.7,10.3c0.8,2.9,1.4,5.9,1.8,8.9
				l5.5-1.5c-0.4-3-1.1-6-1.8-8.9c-1.9-6.9-4.6-11.2-7.9-13.4C20.7,191.1,17.2,190.5,13.9,191.4L13.9,191.4z"/>
		</g>
	</g>
	<g>
		<g>
			<defs>
				<rect id="SVGID_00000172401162431657443630000014401492139779987110_" x="0.2" y="0.7" width="195.6" height="280.6"/>
			</defs>
			<clipPath id="SVGID_00000118395862264529611350000013968266105316245437_">
				<use xlink:href="#SVGID_00000172401162431657443630000014401492139779987110_"  style="overflow:visible;"/>
			</clipPath>
			<path style="clip-path:url(#SVGID_00000118395862264529611350000013968266105316245437_);fill:#67B54B;" d="M81.2,212.4
				C77.7,225.5,68.4,243,63,241.5s-4.8-21.2-1.3-34.3c3.5-13.1,10-14.2,14-13.1S84.8,199.3,81.2,212.4L81.2,212.4z"/>
		</g>
	</g>
	<g>
		<g>
			<defs>
				<rect id="SVGID_00000075138655343920405050000013666269659164711056_" x="0.2" y="0.7" width="195.6" height="280.6"/>
			</defs>
			<clipPath id="SVGID_00000103228764539630555550000002946075200655234726_">
				<use xlink:href="#SVGID_00000075138655343920405050000013666269659164711056_"  style="overflow:visible;"/>
			</clipPath>
			<path style="clip-path:url(#SVGID_00000103228764539630555550000002946075200655234726_);fill:#1A1A1A;" d="M57.4,213.8
				c-0.8,5-1.3,10-1.2,15c0,3.2,0.3,6.3,1.1,9.4c0.8,2.7,2,5.3,4.9,6.1c2.9,0.8,5.3-0.9,7.3-2.8c2.2-2.3,4.1-4.8,5.7-7.6
				c2.5-4.3,4.7-8.9,6.4-13.6l-5.5-1.5c-1.6,4.2-3.5,8.3-5.8,12.2c-1.3,2.3-2.9,4.5-4.7,6.4c-0.5,0.6-1.2,1-1.9,1.4
				c-0.5-0.6-0.8-1.4-1-2.1c-0.6-2.6-0.9-5.3-0.9-7.9c0-4.5,0.4-9,1.1-13.4L57.4,213.8z"/>
		</g>
	</g>
	<g>
		<g>
			<defs>
				<rect id="SVGID_00000091699108075775335180000014855769106183396741_" x="0.2" y="0.7" width="195.6" height="280.6"/>
			</defs>
			<clipPath id="SVGID_00000178204548925177100670000004617345455307371690_">
				<use xlink:href="#SVGID_00000091699108075775335180000014855769106183396741_"  style="overflow:visible;"/>
			</clipPath>
			<path style="clip-path:url(#SVGID_00000178204548925177100670000004617345455307371690_);fill:#1A1A1A;" d="M76.4,191.4
				c-3.3-0.9-6.7-0.3-9.5,1.6c-3.3,2.3-6.1,6.5-7.9,13.4c-0.8,2.9-1.4,5.9-1.8,8.9l5.5,1.5c0.4-3,1-6,1.8-8.9
				c1.6-6.1,3.9-9,5.7-10.3c2.7-1.8,6.3-1.2,8.1,1.5c0.2,0.3,0.3,0.5,0.5,0.8c1,2,1.4,5.6-0.2,11.8c-0.8,2.9-1.8,5.8-2.9,8.6
				l5.5,1.5c1.1-2.8,2.1-5.7,2.9-8.6c1.9-6.9,1.6-12-0.1-15.6C82.4,194.5,79.7,192.2,76.4,191.4L76.4,191.4z"/>
		</g>
	</g>
	<g>
		<g>
			<defs>
				<rect id="SVGID_00000163793809144393509970000015126525659107003807_" x="0.2" y="0.7" width="195.6" height="280.6"/>
			</defs>
			<clipPath id="SVGID_00000150062628047587802130000008494707193832272262_">
				<use xlink:href="#SVGID_00000163793809144393509970000015126525659107003807_"  style="overflow:visible;"/>
			</clipPath>
			<path style="clip-path:url(#SVGID_00000150062628047587802130000008494707193832272262_);fill:#67B54B;" d="M128.7,137.1
				c3.5,13.1,4.1,32.9-1.2,34.3s-14.8-16-18.3-29.1s1.6-17.3,5.6-18.3S125.2,124,128.7,137.1L128.7,137.1z"/>
		</g>
	</g>
	<g>
		<g>
			<defs>
				<rect id="SVGID_00000047033835215784901610000016427640666942741640_" x="0.2" y="0.7" width="195.6" height="280.6"/>
			</defs>
			<clipPath id="SVGID_00000025422514979463193370000013229167730051332781_">
				<use xlink:href="#SVGID_00000047033835215784901610000016427640666942741640_"  style="overflow:visible;"/>
			</clipPath>
			<path style="clip-path:url(#SVGID_00000025422514979463193370000013229167730051332781_);fill:#1A1A1A;" d="M108.8,150.2
				c1.7,4.7,3.9,9.2,6.4,13.6c1.6,2.8,3.5,5.3,5.7,7.6c2,1.9,4.4,3.6,7.3,2.8s4.2-3.4,4.9-6.1c0.8-3.1,1.1-6.2,1.1-9.4
				c0-5-0.4-10-1.2-15l-5.5,1.5c0.7,4.4,1.1,8.9,1.1,13.4c0,2.7-0.3,5.3-0.9,7.9c-0.2,0.8-0.5,1.5-1,2.1c-0.7-0.3-1.4-0.8-1.9-1.4
				c-1.8-1.9-3.4-4.1-4.7-6.4c-2.3-3.9-4.2-8-5.8-12.2L108.8,150.2z"/>
		</g>
	</g>
	<g>
		<g>
			<defs>
				<rect id="SVGID_00000072993586758460111020000008135567177254359717_" x="0.2" y="0.7" width="195.6" height="280.6"/>
			</defs>
			<clipPath id="SVGID_00000027597348253111782260000006426055939213627313_">
				<use xlink:href="#SVGID_00000072993586758460111020000008135567177254359717_"  style="overflow:visible;"/>
			</clipPath>
			<path style="clip-path:url(#SVGID_00000027597348253111782260000006426055939213627313_);fill:#1A1A1A;" d="M114,121.3
				c-3.3,0.9-6,3.1-7.4,6.2c-1.7,3.6-2,8.7-0.1,15.6c0.8,2.9,1.8,5.8,2.9,8.6l5.5-1.5c-1.1-2.8-2.1-5.7-2.9-8.6
				c-1.6-6.1-1.2-9.8-0.2-11.8c1.4-2.9,4.9-4.1,7.8-2.8c0.3,0.1,0.5,0.3,0.8,0.5c1.8,1.3,4,4.1,5.7,10.3c0.8,2.9,1.4,5.9,1.8,8.9
				l5.5-1.5c-0.4-3-1-6-1.8-8.9c-1.9-7-4.6-11.2-7.9-13.4C120.7,121,117.3,120.4,114,121.3z"/>
		</g>
	</g>
	<g>
		<g>
			<defs>
				<rect id="SVGID_00000115511532265921781580000016028443081906159782_" x="0.2" y="0.7" width="195.6" height="280.6"/>
			</defs>
			<clipPath id="SVGID_00000156573396862689991040000014822096015114262950_">
				<use xlink:href="#SVGID_00000115511532265921781580000016028443081906159782_"  style="overflow:visible;"/>
			</clipPath>
			<path style="clip-path:url(#SVGID_00000156573396862689991040000014822096015114262950_);fill:#1A1A1A;" d="M-6.1,217
				c-12.8,0-23.1-10.4-23.1-23.2V63.4c0-12.8,10.4-23.1,23.1-23.2H96.4c12.8,0,23.1,10.4,23.2,23.2v130.5
				c0,12.8-10.4,23.1-23.2,23.1H-6.1z M-6.1,208H96.4c7.7,0.1,14.1-6.1,14.1-13.9c0-0.1,0-0.2,0-0.3V63.4
				c0.1-7.7-6.1-14.1-13.9-14.1c-0.1,0-0.2,0-0.3,0H-6.1c-7.7-0.1-14.1,6.1-14.1,13.9c0,0.1,0,0.2,0,0.3V194
				c-0.1,7.7,6.1,14.1,13.9,14.1C-6.3,208-6.2,208-6.1,208z"/>
		</g>
	</g>
	<g>
		<g>
			<defs>
				<rect id="SVGID_00000145034306413284421790000018441541159105367987_" x="0.2" y="0.7" width="195.6" height="280.6"/>
			</defs>
			<clipPath id="SVGID_00000017479674069575918150000011221214514581980606_">
				<use xlink:href="#SVGID_00000145034306413284421790000018441541159105367987_"  style="overflow:visible;"/>
			</clipPath>
			<path style="clip-path:url(#SVGID_00000017479674069575918150000011221214514581980606_);fill:#88C05C;" d="M-6.1,212.5H96.4
				c10.3,0,18.6-8.3,18.6-18.6v-0.1V63.4c0-10.3-8.3-18.6-18.5-18.6h-0.1H-6.1c-10.3,0-18.6,8.3-18.6,18.6v0.1V194
				C-24.8,204.2-16.5,212.5-6.1,212.5C-6.2,212.5-6.1,212.5-6.1,212.5z"/>
		</g>
	</g>
	<g>
		<g>
			<defs>
				<rect id="SVGID_00000007417203402596696040000010329559895422572475_" x="0.2" y="0.7" width="195.6" height="280.6"/>
			</defs>
			<clipPath id="SVGID_00000179647702242503482420000007530659868199025588_">
				<use xlink:href="#SVGID_00000007417203402596696040000010329559895422572475_"  style="overflow:visible;"/>
			</clipPath>
			<path style="clip-path:url(#SVGID_00000179647702242503482420000007530659868199025588_);fill:#67B54B;" d="M-6.1,44.7
				c-10.3,0-18.6,8.3-18.6,18.6v0.1v14.9h139.8V63.4c0-10.3-8.3-18.6-18.5-18.6h-0.1H-6.1V44.7z M-24.8,179v14.9
				c0,10.3,8.3,18.6,18.6,18.6c0,0,0,0,0.1,0H96.4c10.3,0,18.6-8.3,18.6-18.6v-0.1V179H-24.8z"/>
		</g>
	</g>
	<g>
		<g>
			<defs>
				<rect id="SVGID_00000161609322251667544990000000976523008397694387_" x="0.2" y="0.7" width="195.6" height="280.6"/>
			</defs>
			<clipPath id="SVGID_00000112592594145397662100000014179303547148589233_">
				<use xlink:href="#SVGID_00000161609322251667544990000000976523008397694387_"  style="overflow:visible;"/>
			</clipPath>
			
				<rect x="-24.8" y="111.8" style="clip-path:url(#SVGID_00000112592594145397662100000014179303547148589233_);fill:#67B54B;" width="139.8" height="33.6"/>
		</g>
	</g>
	<g>
		<g>
			<defs>
				<rect id="SVGID_00000016781017256869483910000011116926050871791777_" x="0.2" y="0.7" width="195.6" height="280.6"/>
			</defs>
			<clipPath id="SVGID_00000047750335822573499540000003650255692720529063_">
				<use xlink:href="#SVGID_00000016781017256869483910000011116926050871791777_"  style="overflow:visible;"/>
			</clipPath>
			
				<rect x="-15.4" y="127.8" style="clip-path:url(#SVGID_00000047750335822573499540000003650255692720529063_);fill:#FFFFFF;" width="121.2" height="1.7"/>
		</g>
	</g>
	<g>
		<g>
			<defs>
				<rect id="SVGID_00000061433496683400477040000017314344016764271260_" x="0.2" y="0.7" width="195.6" height="280.6"/>
			</defs>
			<clipPath id="SVGID_00000087387980111517146140000011312575307345495954_">
				<use xlink:href="#SVGID_00000061433496683400477040000017314344016764271260_"  style="overflow:visible;"/>
			</clipPath>
			<path style="clip-path:url(#SVGID_00000087387980111517146140000011312575307345495954_);fill:#1A1A1A;" d="M-6.1,213.7
				c-10.9,0-19.8-8.8-19.8-19.7l0,0V63.4c0-10.9,8.8-19.8,19.7-19.8l0,0H96.4c10.9,0,19.8,8.8,19.8,19.7l0,0v130.5
				c0,10.9-8.8,19.8-19.7,19.8l0,0L-6.1,213.7L-6.1,213.7z M-6.1,211.4H96.4c9.6,0,17.5-7.7,17.5-17.4c0-0.1,0-0.1,0-0.2V63.4
				c0-9.6-7.8-17.5-17.4-17.5c-0.1,0-0.1,0-0.2,0H-6.1c-9.6,0-17.5,7.8-17.5,17.4v0.1v130.5c0,9.6,7.7,17.5,17.4,17.5
				C-6.2,211.4-6.2,211.4-6.1,211.4L-6.1,211.4z"/>
		</g>
	</g>
	<g>
		<g>
			<defs>
				<rect id="SVGID_00000013874562844221139160000017248689921658421912_" x="0.2" y="0.7" width="195.6" height="280.6"/>
			</defs>
			<clipPath id="SVGID_00000173839885504766392870000001870287379537098666_">
				<use xlink:href="#SVGID_00000013874562844221139160000017248689921658421912_"  style="overflow:visible;"/>
			</clipPath>
			<path style="clip-path:url(#SVGID_00000173839885504766392870000001870287379537098666_);fill:#FFFFFF;" d="M-6.1,53.2
				c-5.6,0-10.2,4.5-10.2,10.2l0,0v130.5c0,5.6,4.5,10.2,10.1,10.2l0,0H96.4c5.6,0,10.2-4.6,10.2-10.2V63.4
				c0-5.6-4.6-10.2-10.2-10.2H-6.1z M-6.1,54.9H96.4c4.7,0,8.5,3.8,8.5,8.4c0,0,0,0,0,0.1v130.5c0,4.7-3.8,8.5-8.4,8.5
				c0,0,0,0-0.1,0H-6.1c-4.7,0-8.5-3.7-8.5-8.4c0,0,0,0,0-0.1V63.4C-14.6,58.7-10.8,54.9-6.1,54.9C-6.2,54.9-6.1,54.9-6.1,54.9z"/>
		</g>
	</g>
	<g>
		<g>
			<defs>
				<rect id="SVGID_00000106850510022313863200000017706840497136240043_" x="0.2" y="0.7" width="195.6" height="280.6"/>
			</defs>
			<clipPath id="SVGID_00000033358415410937586510000003816592645563067536_">
				<use xlink:href="#SVGID_00000106850510022313863200000017706840497136240043_"  style="overflow:visible;"/>
			</clipPath>
			<path style="clip-path:url(#SVGID_00000033358415410937586510000003816592645563067536_);fill:#FFFFFF;" d="M105.8,193
				c-5.6,0-10.2,4.6-10.2,10.2l0,0h1.7c0-4.7,3.8-8.5,8.5-8.5l0,0V193z"/>
		</g>
	</g>
	<g>
		<g>
			<defs>
				<rect id="SVGID_00000090987843496345061030000006719781886329267371_" x="0.2" y="0.7" width="195.6" height="280.6"/>
			</defs>
			<clipPath id="SVGID_00000025428484217671896360000015906186295694655156_">
				<use xlink:href="#SVGID_00000090987843496345061030000006719781886329267371_"  style="overflow:visible;"/>
			</clipPath>
			<path style="clip-path:url(#SVGID_00000025428484217671896360000015906186295694655156_);fill:#FFFFFF;" d="M95.6,54
				c0,5.6,4.6,10.2,10.2,10.2v-1.7c-4.7,0-8.5-3.8-8.5-8.4l0,0L95.6,54L95.6,54z"/>
		</g>
	</g>
	<g>
		<g>
			<defs>
				<rect id="SVGID_00000157283431040559260030000000042504709514217645_" x="0.2" y="0.7" width="195.6" height="280.6"/>
			</defs>
			<clipPath id="SVGID_00000018218311398509710940000017914149430835340948_">
				<use xlink:href="#SVGID_00000157283431040559260030000000042504709514217645_"  style="overflow:visible;"/>
			</clipPath>
			<path style="clip-path:url(#SVGID_00000018218311398509710940000017914149430835340948_);fill:#FFFFFF;" d="M45.2,109.1
				c-10.8,0-19.5,8.7-19.5,19.5s8.7,19.5,19.5,19.5s19.5-8.7,19.5-19.5l0,0C64.6,117.9,55.9,109.1,45.2,109.1z M45.2,110.8
				c9.8,0,17.8,8,17.8,17.8s-8,17.8-17.8,17.8s-17.8-8-17.8-17.8l0,0C27.4,118.8,35.3,110.8,45.2,110.8L45.2,110.8z"/>
		</g>
	</g>
	<g>
		<g>
			<defs>
				<rect id="SVGID_00000140005829685293245880000000093680446618540221_" x="0.2" y="0.7" width="195.6" height="280.6"/>
			</defs>
			<clipPath id="SVGID_00000144320773309068614190000006918149931616516783_">
				<use xlink:href="#SVGID_00000140005829685293245880000000093680446618540221_"  style="overflow:visible;"/>
			</clipPath>
			<path style="clip-path:url(#SVGID_00000144320773309068614190000006918149931616516783_);fill:#FFFFFF;" d="M16.4,174.4v29.7H74
				v-29.7H16.4z M18.1,176.1h54.2v26.3H18L18.1,176.1z"/>
		</g>
	</g>
	<g>
		<g>
			<defs>
				<rect id="SVGID_00000101095673577647452440000006552297037357207704_" x="0.2" y="0.7" width="195.6" height="280.6"/>
			</defs>
			<clipPath id="SVGID_00000035517562857760301830000008242248624706324130_">
				<use xlink:href="#SVGID_00000101095673577647452440000006552297037357207704_"  style="overflow:visible;"/>
			</clipPath>
			<path style="clip-path:url(#SVGID_00000035517562857760301830000008242248624706324130_);fill:#FFFFFF;" d="M45.2,165.1
				c-7,0-13.4,3.7-16.9,9.7l1.5,0.9c4.9-8.5,15.8-11.4,24.3-6.5c2.7,1.6,5,3.8,6.5,6.5l1.5-0.9C58.6,168.8,52.1,165.1,45.2,165.1z"
				/>
		</g>
	</g>
	<g>
		<g>
			<defs>
				<rect id="SVGID_00000178163709325545983930000015234442866447557772_" x="0.2" y="0.7" width="195.6" height="280.6"/>
			</defs>
			<clipPath id="SVGID_00000007410893059539947270000000339109776158346643_">
				<use xlink:href="#SVGID_00000178163709325545983930000015234442866447557772_"  style="overflow:visible;"/>
			</clipPath>
			<path style="clip-path:url(#SVGID_00000007410893059539947270000000339109776158346643_);fill:#FFFFFF;" d="M16.4,82.8V53.2H74
				v29.7L16.4,82.8L16.4,82.8z M18.1,81.2h54.2V54.9H18L18.1,81.2z"/>
		</g>
	</g>
	<g>
		<g>
			<defs>
				<rect id="SVGID_00000004521818101335675980000017196154758922270649_" x="0.2" y="0.7" width="195.6" height="280.6"/>
			</defs>
			<clipPath id="SVGID_00000068648363782490365870000005765148656339877267_">
				<use xlink:href="#SVGID_00000004521818101335675980000017196154758922270649_"  style="overflow:visible;"/>
			</clipPath>
			<path style="clip-path:url(#SVGID_00000068648363782490365870000005765148656339877267_);fill:#FFFFFF;" d="M29.8,81.6l-1.5,0.8
				c5.4,9.3,17.3,12.5,26.6,7.1c3-1.7,5.4-4.2,7.1-7.1l-1.5-0.8c-4.9,8.5-15.8,11.4-24.3,6.5C33.6,86.5,31.3,84.3,29.8,81.6z"/>
		</g>
	</g>
	<g>
		<g>
			<defs>
				<rect id="SVGID_00000157296736937964083380000013403978395130553986_" x="0.2" y="0.7" width="195.6" height="280.6"/>
			</defs>
			<clipPath id="SVGID_00000002385230934143862490000001010268354800104886_">
				<use xlink:href="#SVGID_00000157296736937964083380000013403978395130553986_"  style="overflow:visible;"/>
			</clipPath>
			<path style="clip-path:url(#SVGID_00000002385230934143862490000001010268354800104886_);fill:#FFFFFF;" d="M25.7,193v11h39v-11
				H25.7z M27.4,194.7H63v7.6H27.4V194.7z"/>
		</g>
	</g>
	<g>
		<g>
			<defs>
				<rect id="SVGID_00000166662956302133471730000005590570856355527340_" x="0.2" y="0.7" width="195.6" height="280.6"/>
			</defs>
			<clipPath id="SVGID_00000139281043191561007780000003153875094280036795_">
				<use xlink:href="#SVGID_00000166662956302133471730000005590570856355527340_"  style="overflow:visible;"/>
			</clipPath>
			<path style="clip-path:url(#SVGID_00000139281043191561007780000003153875094280036795_);fill:#FFFFFF;" d="M25.7,53.2v11h39v-11
				L25.7,53.2z M27.4,54.9H63v7.6H27.4V54.9z"/>
		</g>
	</g>
	<g>
		<g>
			<defs>
				<rect id="SVGID_00000054246399791854814430000015094390228092952232_" x="0.2" y="0.7" width="195.6" height="280.6"/>
			</defs>
			<clipPath id="SVGID_00000107564553333723099310000016469353119665740961_">
				<use xlink:href="#SVGID_00000054246399791854814430000015094390228092952232_"  style="overflow:visible;"/>
			</clipPath>
			<path style="clip-path:url(#SVGID_00000107564553333723099310000016469353119665740961_);fill:#1A1A1A;" d="M30.3,96.8l-20.7,8.6
				v4.5c0.2,6.4,5.5,11.5,12,11.3c6.2-0.2,11.1-5.1,11.3-11.3V104C32.8,101.4,31.9,98.8,30.3,96.8L30.3,96.8z"/>
		</g>
	</g>
	<g>
		<g>
			<defs>
				<rect id="SVGID_00000069358149991537507550000009835123264050452638_" x="0.2" y="0.7" width="195.6" height="280.6"/>
			</defs>
			<clipPath id="SVGID_00000109727356031096150800000016836562977912154279_">
				<use xlink:href="#SVGID_00000069358149991537507550000009835123264050452638_"  style="overflow:visible;"/>
			</clipPath>
			<path style="clip-path:url(#SVGID_00000109727356031096150800000016836562977912154279_);fill:#FFFFFF;" d="M24.2,105.4
				c-2.1,0-3.7,1.7-3.8,3.8c0,2.1,1.7,3.7,3.8,3.7c1,0,1.9-0.4,2.6-1.1c1.5-1.5,1.5-3.8,0-5.3C26.2,105.8,25.2,105.4,24.2,105.4z"/>
		</g>
	</g>
	<g>
		<g>
			<defs>
				<rect id="SVGID_00000080928562759009246530000016110165300431855522_" x="0.2" y="0.7" width="195.6" height="280.6"/>
			</defs>
			<clipPath id="SVGID_00000173877552107329558440000012838597424893619629_">
				<use xlink:href="#SVGID_00000080928562759009246530000016110165300431855522_"  style="overflow:visible;"/>
			</clipPath>
			<path style="clip-path:url(#SVGID_00000173877552107329558440000012838597424893619629_);fill:#1A1A1A;" d="M60,96.8
				c-1.6,2.1-2.5,4.6-2.5,7.2v5.8c0,6.4,5.2,11.6,11.6,11.6s11.6-5.2,11.6-11.6v-4.5L60,96.8z"/>
		</g>
	</g>
	<g>
		<g>
			<defs>
				<rect id="SVGID_00000069376161495092036410000006808250473543857837_" x="0.2" y="0.7" width="195.6" height="280.6"/>
			</defs>
			<clipPath id="SVGID_00000005262502753942883450000006517018512817313449_">
				<use xlink:href="#SVGID_00000069376161495092036410000006808250473543857837_"  style="overflow:visible;"/>
			</clipPath>
			<path style="clip-path:url(#SVGID_00000005262502753942883450000006517018512817313449_);fill:#FFFFFF;" d="M72.2,105.4
				c-2.1,0-3.8,1.7-3.8,3.8s1.7,3.8,3.8,3.8s3.8-1.7,3.8-3.8l0,0C75.9,107,74.2,105.4,72.2,105.4z"/>
		</g>
	</g>
	<g>
		<g>
			<defs>
				<rect id="SVGID_00000107570472660483313230000007406623727955320463_" x="0.2" y="0.7" width="195.6" height="280.6"/>
			</defs>
			<clipPath id="SVGID_00000153700591390381926760000002939839101928606108_">
				<use xlink:href="#SVGID_00000107570472660483313230000007406623727955320463_"  style="overflow:visible;"/>
			</clipPath>
			<path style="clip-path:url(#SVGID_00000153700591390381926760000002939839101928606108_);fill:#1A1A1A;" d="M34.2,132.5
				c0-6.1,4.9-11,11-11s11,4.9,11,11l0,0H54c0-4.8-3.9-8.8-8.8-8.8s-8.8,3.9-8.8,8.8H34.2z"/>
		</g>
	</g>
	<g>
		<g>
			<defs>
				<rect id="SVGID_00000154404511396656028510000012122891385573277085_" x="0.2" y="0.7" width="195.6" height="280.6"/>
			</defs>
			<clipPath id="SVGID_00000122694048611098483730000002146956574412360855_">
				<use xlink:href="#SVGID_00000154404511396656028510000012122891385573277085_"  style="overflow:visible;"/>
			</clipPath>
			<path style="clip-path:url(#SVGID_00000122694048611098483730000002146956574412360855_);fill:#1A1A1A;" d="M36,13.5v8.9
				c8.6,0.6,16.8,0.7,25.6,1.3c10.9,0.8,17.5,4,21.3,7.9s5.3,8.7,5.3,14c0,9.2-4.9,15.4-13.5,19.5S54,70.8,41.5,68.8
				c-1.9-0.3-3.7-0.7-5.6-1.1V77c1.4,0.3,2.8,0.6,4.2,0.8c14,2.2,27.8,0.7,38.5-4.5s18.5-15,18.5-27.7c0.1-7.6-2.7-14.9-8-20.3
				c-5.7-5.8-14.6-9.6-27-10.5C52.8,14.1,44.5,14,36,13.5z"/>
		</g>
	</g>
	<g>
		<g>
			<defs>
				<rect id="SVGID_00000066481652161743252610000001299362428364618907_" x="0.2" y="0.7" width="195.6" height="280.6"/>
			</defs>
			<clipPath id="SVGID_00000096745350905623976950000007276381049496630704_">
				<use xlink:href="#SVGID_00000066481652161743252610000001299362428364618907_"  style="overflow:visible;"/>
			</clipPath>
			<path style="clip-path:url(#SVGID_00000096745350905623976950000007276381049496630704_);fill:#1A1A1A;" d="M3.6,8.1l2.9,8
				L7.3,18c-8-1-15.8-2.7-23.5-5.1l-6.9-2.4l1,7.3c4.7,35.6,33.4,55.1,61,59.8v-9.2C16.7,64.1-5,49.7-11.6,23.6
				c8.3,2.5,16.9,3.9,25.6,3.9h6.4l-2.7-7.2c7,1.2,14,1.9,21.1,2.3v-9c-9.1-0.3-18.1-1.5-27-3.6L3.6,8.1z"/>
		</g>
	</g>
	<g>
		<g>
			<defs>
				<rect id="SVGID_00000070812066800857425710000018287010049651916702_" x="0.2" y="0.7" width="195.6" height="280.6"/>
			</defs>
			<clipPath id="SVGID_00000085239019663447197170000002787934931549237413_">
				<use xlink:href="#SVGID_00000070812066800857425710000018287010049651916702_"  style="overflow:visible;"/>
			</clipPath>
			<path style="clip-path:url(#SVGID_00000085239019663447197170000002787934931549237413_);fill:#595959;" d="M10.8,14.5L14,23
				c-14.6,0.1-31.6-5.9-31.6-5.9c9,68.1,110.4,72.2,110.4,28.4c0-12.3-7.5-24.6-30.8-26.3C44.3,18,29.7,19.1,10.8,14.5z"/>
		</g>
	</g>
	<g>
		<g>
			<defs>
				<rect id="SVGID_00000153684000312458556430000016128177672505402536_" x="0.2" y="0.7" width="195.6" height="280.6"/>
			</defs>
			<clipPath id="SVGID_00000181773663363977505590000003575188178657145991_">
				<use xlink:href="#SVGID_00000153684000312458556430000016128177672505402536_"  style="overflow:visible;"/>
			</clipPath>
			<path style="clip-path:url(#SVGID_00000181773663363977505590000003575188178657145991_);fill:#797979;" d="M10.8,14.5L14,23
				c-14.6,0.1-31.6-5.9-31.6-5.9C6,48,75.6,51.9,87.9,30.5c-4.6-5.9-12.7-10.3-26-11.3C44.3,18,29.7,19.1,10.8,14.5z"/>
		</g>
	</g>
	<g>
		<g>
			<defs>
				<rect id="SVGID_00000151527037784866731150000005660684660270849962_" x="0.2" y="0.7" width="195.6" height="280.6"/>
			</defs>
			<clipPath id="SVGID_00000096054491668958934770000014369935350672562353_">
				<use xlink:href="#SVGID_00000151527037784866731150000005660684660270849962_"  style="overflow:visible;"/>
			</clipPath>
			<path style="clip-path:url(#SVGID_00000096054491668958934770000014369935350672562353_);fill:#3E3E3E;" d="M-17.7,17.1
				c9,68.1,110.4,72.2,110.4,28.4c0-2-0.2-4-0.6-6C75.9,78.8-5.8,61.5-17.7,17.1z"/>
		</g>
	</g>
	<g>
		<g>
			<defs>
				<rect id="SVGID_00000169532289890031537620000008111621945493336236_" x="0.2" y="0.7" width="195.6" height="280.6"/>
			</defs>
			<clipPath id="SVGID_00000166639426281538666450000000404748803403765430_">
				<use xlink:href="#SVGID_00000169532289890031537620000008111621945493336236_"  style="overflow:visible;"/>
			</clipPath>
			<path style="clip-path:url(#SVGID_00000166639426281538666450000000404748803403765430_);fill:#1A1A1A;" d="M36,16.9v2.2
				c8.5,0.5,16.8,0.6,25.8,1.3c11.5,0.9,18.9,4.3,23.5,8.9c4.2,4.4,6.5,10.3,6.3,16.3c0,10.5-6,18-15.4,22.6s-22.1,6-35.2,4
				c-1.7-0.3-3.4-0.6-5.1-1v2.3c1.6,0.3,3.2,0.6,4.7,0.9C54,76.5,67.2,75,77.1,70.2S93.9,57,93.9,45.6c0.2-6.7-2.4-13.1-7-17.9
				c-5-5.1-13-8.6-24.9-9.5C52.8,17.4,44.5,17.4,36,16.9L36,16.9z"/>
		</g>
	</g>
	<g>
		<g>
			<defs>
				<rect id="SVGID_00000014636225193433447640000010705250243996991148_" x="0.2" y="0.7" width="195.6" height="280.6"/>
			</defs>
			<clipPath id="SVGID_00000151503141927457211300000001196474808944040085_">
				<use xlink:href="#SVGID_00000014636225193433447640000010705250243996991148_"  style="overflow:visible;"/>
			</clipPath>
			<path style="clip-path:url(#SVGID_00000151503141927457211300000001196474808944040085_);fill:#1A1A1A;" d="M9,12.9l0.7,2
				l2.6,6.9c-13.9-0.4-29.6-5.7-29.6-5.7l-1.7-0.6l0.2,1.8c4.4,33.8,31.4,52.1,57.6,56.8v-2.3c-25-4.6-50.2-21.7-55.1-53.1
				c2.6,0.9,16.6,5.5,30.3,5.5h1.6l-3-8.2c8.7,1.9,17.5,3,26.3,3.3v-2.2c-9.4-0.3-18.7-1.5-27.9-3.7L9,12.9z"/>
		</g>
	</g>
	<g>
		<g>
			<defs>
				<rect id="SVGID_00000016774498720577052740000012811782577831202223_" x="0.2" y="0.7" width="195.6" height="280.6"/>
			</defs>
			<clipPath id="SVGID_00000152960740753803283110000007049376222843883699_">
				<use xlink:href="#SVGID_00000016774498720577052740000012811782577831202223_"  style="overflow:visible;"/>
			</clipPath>
			<path style="clip-path:url(#SVGID_00000152960740753803283110000007049376222843883699_);fill:#EB5A53;" d="M150.6,0h29h16v16
				c0,7,0,14,0,21c-10.2,12.4-28.6,14.2-41,4S140.4,12.4,150.6,0z"/>
		</g>
	</g>
	<g>
		<g>
			<defs>
				<rect id="SVGID_00000150812256939334312580000005475553588972079036_" x="0.2" y="0.7" width="195.6" height="280.6"/>
			</defs>
			<clipPath id="SVGID_00000028291059713049469110000014676796448618963108_">
				<use xlink:href="#SVGID_00000150812256939334312580000005475553588972079036_"  style="overflow:visible;"/>
			</clipPath>
		</g>
	</g>
</g>
<g class="st51">
	<path class="st52" d="M63,251.8l-0.1,1.8c0.4-0.7,1-1.2,1.6-1.6c0.6-0.4,1.3-0.5,2.1-0.5c1.5,0,2.8,0.7,3.6,2.1
		c0.5-0.7,1-1.2,1.6-1.6c0.6-0.4,1.3-0.5,2-0.5c1,0,1.8,0.2,2.4,0.7s1.1,1.1,1.2,1.7c0.2,0.7,0.3,1.8,0.3,3.4v13.4h-5.6v-12.3
		c0-1.6-0.1-2.6-0.2-3s-0.4-0.6-0.8-0.6s-0.7,0.2-0.8,0.6c-0.1,0.4-0.2,1.4-0.2,3v12.3h-5.6v-12c0-1.9,0-3-0.1-3.3
		c-0.1-0.4-0.3-0.6-0.7-0.6c-0.3,0-0.5,0.1-0.7,0.3s-0.3,0.4-0.3,0.7s0,0.9,0,1.8v13.1h-5.6v-18.9L63,251.8L63,251.8z"/>
	<path class="st52" d="M85.8,247.7v3h-5.9v-3H85.8z M85.8,251.8v18.9h-5.9v-18.9L85.8,251.8L85.8,251.8z"/>
	<path class="st52" d="M99.6,257.9h-5.1v-1c0-0.9,0-1.4-0.1-1.7c-0.1-0.2-0.3-0.3-0.7-0.3c-0.3,0-0.6,0.1-0.7,0.3s-0.2,0.5-0.2,1
		c0,0.6,0,1,0.1,1.3s0.3,0.6,0.7,0.9c0.4,0.3,1.2,0.8,2.5,1.4c1.7,0.8,2.8,1.6,3.3,2.3c0.5,0.7,0.8,1.8,0.8,3.2
		c0,1.5-0.2,2.7-0.6,3.5s-1.1,1.4-2,1.8s-2.1,0.6-3.4,0.6c-1.5,0-2.7-0.2-3.8-0.7c-1-0.5-1.8-1.1-2.1-1.9c-0.4-0.8-0.6-2-0.6-3.5
		v-0.9h5.1v1.2c0,1,0.1,1.7,0.2,2s0.4,0.5,0.8,0.5s0.7-0.1,0.9-0.3c0.2-0.2,0.2-0.6,0.2-1.3c0-0.9-0.1-1.5-0.3-1.7
		c-0.2-0.2-1.3-0.9-3.4-2c-1.7-1-2.7-1.8-3.1-2.6s-0.6-1.7-0.6-2.8c0-1.5,0.2-2.6,0.6-3.3s1.1-1.3,2-1.7c1-0.4,2.1-0.6,3.3-0.6
		c1.3,0,2.3,0.2,3.2,0.5c0.9,0.3,1.6,0.7,2,1.3c0.5,0.5,0.8,1,0.9,1.5c0.1,0.4,0.1,1.1,0.1,2.1C99.6,257,99.6,257.9,99.6,257.9z"/>
	<path class="st52" d="M107.6,249.3v3h1.6v3h-1.6v10.1c0,1.2,0.1,1.9,0.2,2.1c0.1,0.1,0.7,0.2,1.6,0.2v3.1h-2.3
		c-1.3,0-2.2-0.1-2.8-0.2c-0.6-0.1-1.1-0.4-1.5-0.8s-0.7-0.8-0.8-1.4c-0.1-0.5-0.2-1.7-0.2-3.6v-9.6h-1.2v-3h1.2v-3L107.6,249.3
		L107.6,249.3z"/>
	<path class="st52" d="M116.2,251.8l-0.2,2.5c0.8-1.8,2-2.7,3.6-2.8v6.7c-1.1,0-1.8,0.1-2.3,0.4s-0.8,0.7-0.9,1.2s-0.2,1.7-0.2,3.5
		v7.5h-5.8v-18.9h5.8V251.8z"/>
	<path class="st52" d="M129.9,251.8v4.2l-4.2,10.9h4.2v3.8h-9.8v-4l4.3-11.2h-3.9v-3.8h9.4V251.8z"/>
	<path class="st52" d="M136.3,259.2h-5.4v-1.3c0-1.5,0.2-2.6,0.5-3.4c0.3-0.8,1-1.5,2-2.1s2.3-0.9,4-0.9c1.9,0,3.4,0.3,4.4,1
		s1.6,1.5,1.8,2.5s0.3,3.1,0.3,6.2v9.5h-5.6V269c-0.4,0.7-0.8,1.2-1.4,1.5c-0.6,0.3-1.2,0.5-2,0.5c-1,0-1.9-0.3-2.8-0.8
		c-0.8-0.6-1.3-1.8-1.3-3.7V265c0-1.4,0.2-2.4,0.7-2.9c0.4-0.5,1.6-1.1,3.3-1.8c1.9-0.7,2.9-1.2,3-1.5s0.2-0.8,0.2-1.6
		c0-1-0.1-1.6-0.2-1.9c-0.1-0.3-0.4-0.4-0.7-0.4c-0.4,0-0.6,0.1-0.7,0.4c-0.1,0.3-0.1,0.9-0.1,2V259.2z M138.1,261.8
		c-0.9,0.7-1.5,1.2-1.6,1.7s-0.2,1.1-0.2,2c0,1,0.1,1.6,0.2,1.9c0.1,0.3,0.4,0.4,0.8,0.4c0.4,0,0.6-0.1,0.7-0.3
		c0.1-0.2,0.2-0.8,0.2-1.8L138.1,261.8L138.1,261.8z"/>
	<path class="st52" d="M151.6,251.8l-0.1,1.8c0.4-0.7,1-1.2,1.6-1.6c0.6-0.4,1.3-0.5,2.1-0.5c1.5,0,2.8,0.7,3.6,2.1
		c0.5-0.7,1-1.2,1.6-1.6c0.6-0.4,1.3-0.5,2-0.5c1,0,1.8,0.2,2.4,0.7c0.6,0.5,1.1,1.1,1.2,1.7c0.2,0.7,0.3,1.8,0.3,3.4v13.4h-5.6
		v-12.3c0-1.6-0.1-2.6-0.2-3s-0.4-0.6-0.8-0.6c-0.4,0-0.7,0.2-0.8,0.6c-0.1,0.4-0.2,1.4-0.2,3v12.3h-5.6v-12c0-1.9,0-3-0.1-3.3
		c-0.1-0.4-0.3-0.6-0.7-0.6c-0.3,0-0.5,0.1-0.7,0.3s-0.3,0.4-0.3,0.7s0,0.9,0,1.8v13.1h-5.6v-18.9L151.6,251.8L151.6,251.8z"/>
	<path class="st52" d="M174.3,247.7v3h-5.9v-3H174.3z M174.3,251.8v18.9h-5.9v-18.9L174.3,251.8L174.3,251.8z"/>
</g>
<g class="st51">
	<path class="st52" d="M94.1,225.5l-0.1,1.7c0.4-0.7,0.9-1.2,1.5-1.6s1.3-0.5,2.1-0.5c1,0,1.8,0.2,2.4,0.7s1,1.1,1.2,1.8
		s0.3,1.9,0.3,3.5v13.3h-5.8v-13.1c0-1.3,0-2.1-0.1-2.4s-0.3-0.4-0.7-0.4c-0.4,0-0.7,0.2-0.8,0.5s-0.2,1.2-0.2,2.6v12.8h-5.8v-18.9
		L94.1,225.5L94.1,225.5z"/>
	<path class="st52" d="M109.5,221.3v3h-5.9v-3H109.5z M109.5,225.5v18.9h-5.9v-18.9H109.5z"/>
	<path class="st52" d="M124.6,235.3h-7.5v4.1c0,0.9,0.1,1.4,0.2,1.7c0.1,0.2,0.4,0.4,0.7,0.4c0.4,0,0.7-0.2,0.9-0.5
		c0.1-0.3,0.2-1,0.2-1.9v-2.5h5.5v1.4c0,1.2-0.1,2.1-0.2,2.7c-0.1,0.6-0.5,1.3-1,2s-1.2,1.2-2.1,1.6s-1.9,0.5-3.1,0.5
		s-2.3-0.2-3.2-0.5s-1.7-0.8-2.2-1.4c-0.5-0.6-0.9-1.3-1.1-2s-0.3-1.8-0.3-3.2V232c0-1.7,0.2-3,0.7-3.9c0.4-1,1.2-1.7,2.2-2.2
		s2.2-0.8,3.5-0.8c1.6,0,2.9,0.3,4,0.9s1.8,1.4,2.2,2.4c0.4,1,0.6,2.4,0.6,4.3C124.6,232.7,124.6,235.3,124.6,235.3z M118.8,232.2
		v-1.4c0-1-0.1-1.6-0.2-1.9s-0.3-0.4-0.6-0.4c-0.4,0-0.6,0.1-0.7,0.4c-0.1,0.2-0.1,0.9-0.1,2v1.4h1.6V232.2z"/>
	<path class="st52" d="M137.4,221.3v5.5c0.5-0.6,1-1,1.6-1.2c0.6-0.3,1.2-0.4,1.9-0.4c0.8,0,1.5,0.1,2.1,0.4s1,0.6,1.3,1
		s0.5,0.9,0.5,1.3c0.1,0.4,0.1,1.3,0.1,2.7v8.5c0,1.4-0.1,2.4-0.3,3.1c-0.2,0.7-0.6,1.3-1.3,1.8s-1.5,0.7-2.4,0.7
		c-0.7,0-1.3-0.1-1.9-0.4c-0.6-0.3-1.1-0.7-1.6-1.3l-0.4,1.4h-5.4v-23.1H137.4z M139.1,230.9c0-1-0.1-1.6-0.2-1.9
		c-0.1-0.3-0.4-0.4-0.7-0.4c-0.4,0-0.6,0.1-0.7,0.4c-0.1,0.3-0.2,0.9-0.2,2v8.2c0,1,0.1,1.7,0.2,2c0.1,0.3,0.4,0.4,0.7,0.4
		c0.4,0,0.6-0.1,0.7-0.4s0.2-1,0.2-2.1V230.9z"/>
	<path class="st52" d="M158.8,225.5l-1.6,13.7c-0.3,2.2-0.5,3.6-0.7,4.4c-0.2,0.8-0.5,1.4-0.9,2c-0.4,0.5-1,0.9-1.7,1.1
		c-0.7,0.2-1.9,0.4-3.5,0.4H147v-3c0.9,0,1.5,0,1.7-0.1c0.3-0.1,0.4-0.3,0.4-0.6c0-0.2-0.1-0.8-0.4-2l-3.2-15.8h5.2l1.9,12.8
		l0.9-12.8L158.8,225.5L158.8,225.5z"/>
	<path class="st52" d="M165.8,221.3v23.1h-5.9v-23.1H165.8z"/>
	<path class="st52" d="M173.8,221.3v3h-5.9v-3H173.8z M173.8,225.5v18.9h-5.9v-18.9H173.8z"/>
</g>
<g class="st51">
	<path class="st53" d="M169.7,21.3v5.3c0,1.2-0.1,2.1-0.2,2.6c-0.1,0.5-0.4,1.1-0.8,1.5s-0.9,0.8-1.5,1c-0.6,0.2-1.2,0.3-1.9,0.3
		c-0.9,0-1.7-0.1-2.4-0.3s-1.1-0.6-1.5-1s-0.6-0.9-0.8-1.5s-0.2-1.3-0.2-2.4v-5.5c0-1.5,0.1-2.5,0.4-3.3c0.2-0.7,0.7-1.3,1.5-1.7
		c0.7-0.4,1.6-0.7,2.7-0.7c0.9,0,1.6,0.2,2.3,0.5s1.2,0.7,1.5,1.1c0.3,0.4,0.6,0.9,0.7,1.5C169.6,19.2,169.7,20.1,169.7,21.3z
		 M165.8,20c0-0.8,0-1.4-0.1-1.6c-0.1-0.2-0.3-0.3-0.6-0.3c-0.3,0-0.5,0.1-0.6,0.3c-0.1,0.2-0.1,0.7-0.1,1.6v7.7
		c0,0.9,0,1.5,0.1,1.7s0.3,0.3,0.6,0.3s0.5-0.1,0.6-0.3c0.1-0.2,0.1-0.7,0.1-1.5V20z"/>
	<path class="st53" d="M180.6,20.1h-3.9c0-0.7,0-1.2,0-1.4c0-0.2-0.1-0.4-0.2-0.5c-0.1-0.1-0.3-0.2-0.6-0.2c-0.2,0-0.4,0.1-0.5,0.2
		c-0.1,0.1-0.2,0.3-0.2,0.5s0,0.6,0,1.2v2.5c0.2-0.4,0.5-0.7,0.9-1s0.9-0.3,1.4-0.3c0.7,0,1.4,0.2,1.9,0.6c0.6,0.4,0.9,0.9,1.1,1.4
		c0.1,0.5,0.2,1.3,0.2,2.2v1.3c0,1.1,0,1.9-0.1,2.5c-0.1,0.5-0.3,1-0.7,1.5c-0.4,0.5-0.9,0.8-1.5,1.1c-0.6,0.3-1.4,0.4-2.2,0.4
		c-1.1,0-1.9-0.1-2.6-0.4c-0.7-0.3-1.2-0.7-1.6-1.3c-0.4-0.5-0.6-1.1-0.6-1.7c-0.1-0.6-0.1-1.8-0.1-3.5v-2.2c0-1.9,0-3.1,0.1-3.8
		c0.1-0.6,0.3-1.2,0.7-1.8c0.4-0.6,0.9-1,1.6-1.3c0.7-0.3,1.5-0.4,2.4-0.4c1.1,0,2,0.2,2.7,0.5c0.7,0.4,1.2,0.9,1.5,1.5
		C180.4,18.3,180.6,19.1,180.6,20.1z M176.7,25.1c0-0.6-0.1-0.9-0.2-1.2c-0.1-0.2-0.3-0.3-0.6-0.3c-0.3,0-0.5,0.1-0.6,0.3
		s-0.2,0.6-0.2,1.2v2.9c0,0.7,0.1,1.2,0.2,1.4c0.1,0.2,0.3,0.3,0.6,0.3c0.2,0,0.3-0.1,0.5-0.2c0.2-0.2,0.3-0.6,0.3-1.3V25.1z"/>
</g>
</svg>
