<svg id="Слой_1" data-name="Слой 1" xmlns="http://www.w3.org/2000/svg" viewBox="0 0 195.59 280.63"><defs><style>.cls-1{fill:#eb5a53;}.cls-10,.cls-2,.cls-9{fill:#fff;}.cls-3{fill:#67b54b;}.cls-4{fill:#1a1a1a;}.cls-5{fill:#88c05c;}.cls-6{fill:#595959;}.cls-7{fill:#797979;}.cls-8{fill:#3e3e3e;}.cls-9{font-size:29.2px;}.cls-10,.cls-9{font-family:Impact;}.cls-10{font-size:20px;}</style></defs><rect class="cls-1" x="-1.54" y="138.7" width="198.67" height="140.31"/><rect class="cls-2" x="-1.54" width="198.67" height="140.31"/><path class="cls-2" d="M151.59,134.46h-.25l-.11,0-.11,0-.1,0-.11,0-.1,0-.1,0-.1,0-.09.05-.09.06-.1.06-.08.06-.09.07-.08.07-.07.08-.07.08-.07.09-.07.09a.26.26,0,0,0-.05.09l-.06.09-.05.09a1,1,0,0,1,0,.1l0,.1a.88.88,0,0,0-.05.15,0,0,0,0,0,0,0h0l0,.1a.52.52,0,0,1,0,.11s0,.07,0,.1,0,.08,0,.11v.29s0,.08,0,.11,0,.07,0,.11,0,.07,0,.11l0,.1,0,.1a.49.49,0,0,0,0,.11l0,.1,0,.09a.93.93,0,0,1,0,.1l.06.09.06.09.07.09.07.08.07.08.08.08.08.07.08.07.09.06.09.06.09.05.1.05.1,0,.1,0,.14,0,0,0h0l.1,0,.1,0,.11,0h.51l.1,0,.11,0,.1,0,.11,0,.1,0,.1,0,.1,0,.09,0,.1-.06.09-.06.08-.07.09-.06a.6.6,0,0,1,.08-.08l.07-.07.08-.09.06-.08.07-.09a.41.41,0,0,0,.05-.09l.06-.09,0-.1a1,1,0,0,0,0-.1.3.3,0,0,0,0-.1.58.58,0,0,0,0-.14v-.05l0-.09a.43.43,0,0,1,0-.11s0-.07,0-.11,0-.07,0-.1v-.29s0-.08,0-.11,0-.07,0-.11,0-.07,0-.11l0-.1,0-.11,0-.1a.69.69,0,0,0,0-.1l0-.09-.06-.1a.41.41,0,0,0-.05-.09l-.06-.09-.07-.09a.27.27,0,0,0-.07-.08l-.07-.08a.6.6,0,0,0-.08-.08L153,135l-.08-.07-.09-.06-.09-.06-.09-.06-.1,0-.1,0-.1,0-.14,0h0l-.09,0-.11,0h-.11l-.11,0h-.14Zm0,0"/><path class="cls-2" d="M151.59,134.46h-.15l-.1,0h-.11l-.11,0-.1,0-.11,0-.1,0-.1,0-.1,0-.09.05-.09.05-.1.06-.08.07-.09.07-.08.07-.07.08-.07.08-.07.08-.07.09a.41.41,0,0,0-.05.09l-.06.1-.05.09,0,.1a.42.42,0,0,0,0,.1,1.21,1.21,0,0,0-.05.14v0l0,.09a.36.36,0,0,1,0,.11s0,.07,0,.11,0,.07,0,.11v.29s0,.07,0,.11,0,.07,0,.11,0,.07,0,.1l0,.11,0,.1a439578850214.42,439578850214.42,0,0,0,.08.2,1,1,0,0,0,0,.1.31.31,0,0,1,0,.1l.06.09.06.09.07.09.07.08.07.08.08.07a616088857681.29,616088857681.29,0,0,0,.16.14l.09.07.09.05.09.06.1.05.1,0,.1,0,.14.05,0,0h0l.1,0,.1,0h.11l.11,0h.4l.1,0,.11,0,.1,0,.11,0,.1,0,.1,0,.1,0,.09,0,.1-.06.09-.06.08-.07.09-.06a.6.6,0,0,1,.08-.08l.07-.07.08-.09.06-.08.07-.09a.41.41,0,0,0,.05-.09l.06-.09,0-.1a1,1,0,0,0,0-.1.3.3,0,0,0,0-.1.58.58,0,0,0,0-.14v-.05l0-.09a.43.43,0,0,1,0-.11s0-.07,0-.11,0-.07,0-.1v-.29s0-.08,0-.11,0-.07,0-.11,0-.07,0-.11l0-.1,0-.11,0-.1a.69.69,0,0,0,0-.1l0-.09-.06-.1a.41.41,0,0,0-.05-.09l-.06-.09-.07-.09a.27.27,0,0,0-.07-.08l-.07-.08a.6.6,0,0,0-.08-.08L153,135l-.08-.07-.09-.06-.09-.06-.09-.06-.1,0-.1,0-.1,0-.14,0h0l-.09,0-.11,0h-.11l-.11,0h-.14Zm0,0"/><path class="cls-2" d="M151.59,134.46h-.15l-.1,0h-.11l-.11,0-.1,0-.11,0-.1,0-.1,0-.1,0-.09.05-.09.05-.1.06-.08.07-.09.07-.08.07-.07.08-.07.08-.07.08-.07.09a.41.41,0,0,0-.05.09l-.06.1-.05.09,0,.1a.42.42,0,0,0,0,.1,1.21,1.21,0,0,0-.05.14v0l0,.09a.36.36,0,0,1,0,.11s0,.07,0,.11,0,.07,0,.11v.29s0,.07,0,.11,0,.07,0,.11,0,.07,0,.1l0,.11,0,.1a439578850214.42,439578850214.42,0,0,0,.08.2,1,1,0,0,0,0,.1.31.31,0,0,1,0,.1l.06.09.06.09.07.09.07.08.07.08.08.07a616088857681.29,616088857681.29,0,0,0,.16.14l.09.07.09.05.09.06.1.05.1,0,.1,0,.14.05,0,0h0l.1,0,.1,0h.11l.11,0h.4l.1,0,.11,0,.1,0,.11,0,.1,0,.1,0,.1,0,.09,0,.1-.06.09-.06.08-.07.09-.06a.6.6,0,0,1,.08-.08l.07-.07.08-.09.06-.08.07-.09a.41.41,0,0,0,.05-.09l.06-.09,0-.1a1,1,0,0,0,0-.1.3.3,0,0,0,0-.1.58.58,0,0,0,0-.14v-.05l0-.09a.43.43,0,0,1,0-.11s0-.07,0-.11,0-.07,0-.1v-.29s0-.08,0-.11,0-.07,0-.11,0-.07,0-.11l0-.1,0-.11,0-.1a.69.69,0,0,0,0-.1l0-.09-.06-.1a.41.41,0,0,0-.05-.09l-.06-.09-.07-.09a.27.27,0,0,0-.07-.08l-.07-.08a.6.6,0,0,0-.08-.08L153,135l-.08-.07-.09-.06-.09-.06-.09-.06-.1,0-.1,0-.1,0-.14,0h0l-.09,0-.11,0h-.11l-.11,0h-.14Zm0,0"/><path class="cls-2" d="M151.59,134.46h-.15l-.1,0h-.11l-.11,0-.1,0-.11,0-.1,0-.1,0-.1,0-.09.05-.09.05-.1.06-.08.07-.09.07-.08.07-.07.08-.07.08-.07.08-.07.09a.41.41,0,0,0-.05.09l-.06.1-.05.09,0,.1a.42.42,0,0,0,0,.1,1.21,1.21,0,0,0-.05.14v0l0,.09a.36.36,0,0,1,0,.11s0,.07,0,.11,0,.07,0,.11v.29s0,.07,0,.11,0,.07,0,.11,0,.07,0,.1l0,.11,0,.1a439578850214.42,439578850214.42,0,0,0,.08.2,1,1,0,0,0,0,.1.31.31,0,0,1,0,.1l.06.09.06.09.07.09.07.08.07.08.08.07a616088857681.29,616088857681.29,0,0,0,.16.14l.09.07.09.05.09.06.1.05.1,0,.1,0,.14.05,0,0h0l.1,0,.1,0h.11l.11,0h.4l.1,0,.11,0,.1,0,.11,0,.1,0,.1,0,.1,0,.09,0,.1-.06.09-.06.08-.07.09-.06a.6.6,0,0,1,.08-.08l.07-.07.08-.09.06-.08.07-.09a.41.41,0,0,0,.05-.09l.06-.09,0-.1a1,1,0,0,0,0-.1.3.3,0,0,0,0-.1.58.58,0,0,0,0-.14v-.05l0-.09a.43.43,0,0,1,0-.11s0-.07,0-.11,0-.07,0-.1v-.29s0-.08,0-.11,0-.07,0-.11,0-.07,0-.11l0-.1,0-.11,0-.1a.69.69,0,0,0,0-.1l0-.09-.06-.1a.41.41,0,0,0-.05-.09l-.06-.09-.07-.09a.27.27,0,0,0-.07-.08l-.07-.08a.6.6,0,0,0-.08-.08L153,135l-.08-.07-.09-.06-.09-.06-.09-.06-.1,0-.1,0-.1,0-.14,0h0l-.09,0-.11,0h-.11l-.11,0h-.14Zm0,0"/><path class="cls-2" d="M151.59,134.46h-.15l-.1,0h-.11l-.11,0-.1,0-.11,0-.1,0-.1,0-.1,0-.09.05-.09.05-.1.06-.08.07-.09.07-.08.07-.07.08-.07.08-.07.08-.07.09a.41.41,0,0,0-.05.09l-.06.1-.05.09,0,.1a.42.42,0,0,0,0,.1,1.21,1.21,0,0,0-.05.14v0l0,.09a.36.36,0,0,1,0,.11s0,.07,0,.11,0,.07,0,.11v.29s0,.07,0,.11,0,.07,0,.11,0,.07,0,.1l0,.11,0,.1a439578850214.42,439578850214.42,0,0,0,.08.2,1,1,0,0,0,0,.1.31.31,0,0,1,0,.1l.06.09.06.09.07.09.07.08.07.08.08.07a616088857681.29,616088857681.29,0,0,0,.16.14l.09.07.09.05.09.06.1.05.1,0,.1,0,.14.05,0,0h0l.1,0,.1,0h.11l.11,0h.4l.1,0,.11,0,.1,0,.11,0,.1,0,.1,0,.1,0,.09,0,.1-.06.09-.06.08-.07.09-.06a.6.6,0,0,1,.08-.08l.07-.07.08-.09.06-.08.07-.09a.41.41,0,0,0,.05-.09l.06-.09,0-.1a1,1,0,0,0,0-.1.3.3,0,0,0,0-.1.58.58,0,0,0,0-.14v-.05l0-.09a.43.43,0,0,1,0-.11s0-.07,0-.11,0-.07,0-.1v-.29s0-.08,0-.11,0-.07,0-.11,0-.07,0-.11l0-.1,0-.11,0-.1a.69.69,0,0,0,0-.1l0-.09-.06-.1a.41.41,0,0,0-.05-.09l-.06-.09-.07-.09a.27.27,0,0,0-.07-.08l-.07-.08a.6.6,0,0,0-.08-.08L153,135l-.08-.07-.09-.06-.09-.06-.09-.06-.1,0-.1,0-.1,0-.14,0h0l-.09,0-.11,0h-.11l-.11,0h-.14Zm0,0"/><path class="cls-2" d="M151.59,134.46h-.15l-.1,0h-.11l-.11,0-.1,0-.11,0-.1,0-.1,0-.1,0-.09.05-.09.05-.1.06-.08.07-.09.07-.08.07-.07.08-.07.08-.07.08-.07.09a.41.41,0,0,0-.05.09l-.06.1-.05.09,0,.1a.42.42,0,0,0,0,.1,1.21,1.21,0,0,0-.05.14v0l0,.09a.36.36,0,0,1,0,.11s0,.07,0,.11,0,.07,0,.11v.29s0,.07,0,.11,0,.07,0,.11,0,.07,0,.1l0,.11,0,.1a439578850214.42,439578850214.42,0,0,0,.08.2,1,1,0,0,0,0,.1.31.31,0,0,1,0,.1l.06.09.06.09.07.09.07.08.07.08.08.07a616088857681.29,616088857681.29,0,0,0,.16.14l.09.07.09.05.09.06.1.05.1,0,.1,0,.14.05,0,0h0l.1,0,.1,0h.11l.11,0h.4l.1,0,.11,0,.1,0,.11,0,.1,0,.1,0,.1,0,.09,0,.1-.06.09-.06.08-.07.09-.06a.6.6,0,0,1,.08-.08l.07-.07.08-.09.06-.08.07-.09a.41.41,0,0,0,.05-.09l.06-.09,0-.1a1,1,0,0,0,0-.1.3.3,0,0,0,0-.1.58.58,0,0,0,0-.14v-.05l0-.09a.43.43,0,0,1,0-.11s0-.07,0-.11,0-.07,0-.1v-.29s0-.08,0-.11,0-.07,0-.11,0-.07,0-.11l0-.1,0-.11,0-.1a.69.69,0,0,0,0-.1l0-.09-.06-.1a.41.41,0,0,0-.05-.09l-.06-.09-.07-.09a.27.27,0,0,0-.07-.08l-.07-.08a.6.6,0,0,0-.08-.08L153,135l-.08-.07-.09-.06-.09-.06-.09-.06-.1,0-.1,0-.1,0-.14,0h0l-.09,0-.11,0h-.11l-.11,0h-.14Zm0,0"/><path class="cls-2" d="M151.59,134.46h-.15l-.1,0h-.11l-.11,0-.1,0-.11,0-.1,0-.1,0-.1,0-.09.05-.09.05-.1.06-.08.07-.09.07-.08.07-.07.08-.07.08-.07.08-.07.09a.41.41,0,0,0-.05.09l-.06.1-.05.09,0,.1a.42.42,0,0,0,0,.1,1.21,1.21,0,0,0-.05.14v0l0,.09a.36.36,0,0,1,0,.11s0,.07,0,.11,0,.07,0,.11v.29s0,.07,0,.11,0,.07,0,.11,0,.07,0,.1l0,.11,0,.1a439578850214.42,439578850214.42,0,0,0,.08.2,1,1,0,0,0,0,.1.31.31,0,0,1,0,.1l.06.09.06.09.07.09.07.08.07.08.08.07a616088857681.29,616088857681.29,0,0,0,.16.14l.09.07.09.05.09.06.1.05.1,0,.1,0,.14.05,0,0h0l.1,0,.1,0h.11l.11,0h.4l.1,0,.11,0,.1,0,.11,0,.1,0,.1,0,.1,0,.09,0,.1-.06.09-.06.08-.07.09-.06a.6.6,0,0,1,.08-.08l.07-.07.08-.09.06-.08.07-.09a.41.41,0,0,0,.05-.09l.06-.09,0-.1a1,1,0,0,0,0-.1.3.3,0,0,0,0-.1.58.58,0,0,0,0-.14v-.05l0-.09a.43.43,0,0,1,0-.11s0-.07,0-.11,0-.07,0-.1v-.29s0-.08,0-.11,0-.07,0-.11,0-.07,0-.11l0-.1,0-.11,0-.1a.69.69,0,0,0,0-.1l0-.09-.06-.1a.41.41,0,0,0-.05-.09l-.06-.09-.07-.09a.27.27,0,0,0-.07-.08l-.07-.08a.6.6,0,0,0-.08-.08L153,135l-.08-.07-.09-.06-.09-.06-.09-.06-.1,0-.1,0-.1,0-.14,0h0l-.09,0-.11,0h-.11l-.11,0h-.14Zm0,0"/><path class="cls-2" d="M151.59,134.46h-.15l-.1,0h-.11l-.11,0-.1,0-.11,0-.1,0-.1,0-.1,0-.09.05-.09.05-.1.06-.08.07-.09.07-.08.07-.07.08-.07.08-.07.08-.07.09a.41.41,0,0,0-.05.09l-.06.1-.05.09,0,.1a.42.42,0,0,0,0,.1,1.21,1.21,0,0,0-.05.14v0l0,.09a.36.36,0,0,1,0,.11s0,.07,0,.11,0,.07,0,.11v.29s0,.07,0,.11,0,.07,0,.11,0,.07,0,.1l0,.11,0,.1a439578850214.42,439578850214.42,0,0,0,.08.2,1,1,0,0,0,0,.1.31.31,0,0,1,0,.1l.06.09.06.09.07.09.07.08.07.08.08.07a616088857681.29,616088857681.29,0,0,0,.16.14l.09.07.09.05.09.06.1.05.1,0,.1,0,.14.05,0,0h0l.1,0,.1,0h.11l.11,0h.4l.1,0,.11,0,.1,0,.11,0,.1,0,.1,0,.1,0,.09,0,.1-.06.09-.06.08-.07.09-.06a.6.6,0,0,1,.08-.08l.07-.07.08-.09.06-.08.07-.09a.41.41,0,0,0,.05-.09l.06-.09,0-.1a1,1,0,0,0,0-.1.3.3,0,0,0,0-.1.58.58,0,0,0,0-.14v-.05l0-.09a.43.43,0,0,1,0-.11s0-.07,0-.11,0-.07,0-.1v-.29s0-.08,0-.11,0-.07,0-.11,0-.07,0-.11l0-.1,0-.11,0-.1a.69.69,0,0,0,0-.1l0-.09-.06-.1a.41.41,0,0,0-.05-.09l-.06-.09-.07-.09a.27.27,0,0,0-.07-.08l-.07-.08a.6.6,0,0,0-.08-.08L153,135l-.08-.07-.09-.06-.09-.06-.09-.06-.1,0-.1,0-.1,0-.14,0h0l-.09,0-.11,0h-.11l-.11,0h-.14Zm0,0"/><path class="cls-2" d="M151.59,134.46h-.15l-.1,0h-.11l-.11,0-.1,0-.11,0-.1,0-.1,0-.1,0-.09.05-.09.05-.1.06-.08.07-.09.07-.08.07-.07.08-.07.08-.07.08-.07.09a.41.41,0,0,0-.05.09l-.06.1-.05.09,0,.1a.42.42,0,0,0,0,.1,1.21,1.21,0,0,0-.05.14v0l0,.09a.36.36,0,0,1,0,.11s0,.07,0,.11,0,.07,0,.11v.29s0,.07,0,.11,0,.07,0,.11,0,.07,0,.1l0,.11,0,.1a439578850214.42,439578850214.42,0,0,0,.08.2,1,1,0,0,0,0,.1.31.31,0,0,1,0,.1l.06.09.06.09.07.09.07.08.07.08.08.07a616088857681.29,616088857681.29,0,0,0,.16.14l.09.07.09.05.09.06.1.05.1,0,.1,0,.14.05,0,0h0l.1,0,.1,0h.11l.11,0h.4l.1,0,.11,0,.1,0,.11,0,.1,0,.1,0,.1,0,.09,0,.1-.06.09-.06.08-.07.09-.06a.6.6,0,0,1,.08-.08l.07-.07.08-.09.06-.08.07-.09a.41.41,0,0,0,.05-.09l.06-.09,0-.1a1,1,0,0,0,0-.1.3.3,0,0,0,0-.1.58.58,0,0,0,0-.14v-.05l0-.09a.43.43,0,0,1,0-.11s0-.07,0-.11,0-.07,0-.1v-.29s0-.08,0-.11,0-.07,0-.11,0-.07,0-.11l0-.1,0-.11,0-.1a.69.69,0,0,0,0-.1l0-.09-.06-.1a.41.41,0,0,0-.05-.09l-.06-.09-.07-.09a.27.27,0,0,0-.07-.08l-.07-.08a.6.6,0,0,0-.08-.08L153,135l-.08-.07-.09-.06-.09-.06-.09-.06-.1,0-.1,0-.1,0-.14,0h0l-.09,0-.11,0h-.11l-.11,0h-.14Zm0,0"/><path class="cls-2" d="M151.59,134.46h-.15l-.1,0h-.11l-.11,0-.1,0-.11,0-.1,0-.1,0-.1,0-.09.05-.09.05-.1.06-.08.07-.09.07-.08.07-.07.08-.07.08-.07.08-.07.09a.41.41,0,0,0-.05.09l-.06.1-.05.09,0,.1a.42.42,0,0,0,0,.1,1.21,1.21,0,0,0-.05.14v0l0,.09a.36.36,0,0,1,0,.11s0,.07,0,.11,0,.07,0,.11v.29s0,.07,0,.11,0,.07,0,.11,0,.07,0,.1l0,.11,0,.1a439578850214.42,439578850214.42,0,0,0,.08.2,1,1,0,0,0,0,.1.31.31,0,0,1,0,.1l.06.09.06.09.07.09.07.08.07.08.08.07a616088857681.29,616088857681.29,0,0,0,.16.14l.09.07.09.05.09.06.1.05.1,0,.1,0,.14.05,0,0h0l.1,0,.1,0h.11l.11,0h.4l.1,0,.11,0,.1,0,.11,0,.1,0,.1,0,.1,0,.09,0,.1-.06.09-.06.08-.07.09-.06a.6.6,0,0,1,.08-.08l.07-.07.08-.09.06-.08.07-.09a.41.41,0,0,0,.05-.09l.06-.09,0-.1a1,1,0,0,0,0-.1.3.3,0,0,0,0-.1.58.58,0,0,0,0-.14v-.05l0-.09a.43.43,0,0,1,0-.11s0-.07,0-.11,0-.07,0-.1v-.29s0-.08,0-.11,0-.07,0-.11,0-.07,0-.11l0-.1,0-.11,0-.1a.69.69,0,0,0,0-.1l0-.09-.06-.1a.41.41,0,0,0-.05-.09l-.06-.09-.07-.09a.27.27,0,0,0-.07-.08l-.07-.08a.6.6,0,0,0-.08-.08L153,135l-.08-.07-.09-.06-.09-.06-.09-.06-.1,0-.1,0-.1,0-.14,0h0l-.09,0-.11,0h-.11l-.11,0h-.14Zm0,0"/><path class="cls-3" d="M168.14,207.17c3.51-13.1,10-14.17,14-13.1s9,5.23,5.54,18.33S174.79,243,169.4,241.5s-4.77-21.23-1.26-34.33Zm0,0"/><path class="cls-4" d="M182.59,218.79A81.3,81.3,0,0,1,176.8,231a32.59,32.59,0,0,1-4.73,6.41,5.75,5.75,0,0,1-1.93,1.34,5.67,5.67,0,0,1-1-2.12,32.8,32.8,0,0,1-.89-7.93,81.72,81.72,0,0,1,1.08-13.44l-5.48-1.46a86.45,86.45,0,0,0-1.24,15,36.51,36.51,0,0,0,1.11,9.4c.76,2.67,2,5.3,4.95,6.09s5.33-.87,7.32-2.8a36.37,36.37,0,0,0,5.66-7.59,85.86,85.86,0,0,0,6.42-13.58Zm5.48,1.47"/><path class="cls-4" d="M182.84,191.35a11.4,11.4,0,0,0-9.5,1.64c-3.3,2.28-6.06,6.5-7.92,13.45a81.65,81.65,0,0,0-1.83,8.92l5.5,1.47a75.46,75.46,0,0,1,1.77-8.93c1.65-6.15,3.88-9,5.69-10.28a5.84,5.84,0,0,1,8.59,2.3c1,2,1.44,5.6-.21,11.75a75.1,75.1,0,0,1-2.93,8.62l5.5,1.47a83.94,83.94,0,0,0,2.88-8.63c1.86-6.95,1.57-12-.14-15.61a11.41,11.41,0,0,0-7.4-6.17Zm0,0"/><path class="cls-3" d="M115.53,212.4c-3.51-13.1,1.55-17.26,5.54-18.33s10.46,0,14,13.1,4.13,32.89-1.26,34.33-14.74-16-18.25-29.1Zm0,0"/><path class="cls-4" d="M133.85,215.23a81.72,81.72,0,0,1,1.08,13.44,32.73,32.73,0,0,1-.9,7.93,5.94,5.94,0,0,1-1,2.13,6,6,0,0,1-1.93-1.35,33,33,0,0,1-4.74-6.41,82.27,82.27,0,0,1-5.78-12.18l-5.48,1.47a86.73,86.73,0,0,0,6.41,13.58,36.74,36.74,0,0,0,5.67,7.59c2,1.93,4.4,3.58,7.32,2.8s4.19-3.42,5-6.09a37.41,37.41,0,0,0,1.11-9.4,87.45,87.45,0,0,0-1.24-15Zm5.48-1.46"/><path class="cls-4" d="M120.34,191.35a11.41,11.41,0,0,0-7.4,6.17c-1.71,3.63-2,8.66-.14,15.61a83.94,83.94,0,0,0,2.88,8.63l5.49-1.47a77,77,0,0,1-2.92-8.62c-1.65-6.15-1.16-9.75-.21-11.75a5.84,5.84,0,0,1,8.59-2.3c1.81,1.26,4,4.13,5.69,10.28a75.86,75.86,0,0,1,1.77,8.93l5.49-1.47a79.39,79.39,0,0,0-1.82-8.92c-1.86-6.95-4.62-11.17-7.92-13.45a11.4,11.4,0,0,0-9.5-1.64Zm0,0"/><path class="cls-3" d="M68,137.09C71.54,124,78,122.92,82,124s9.06,5.23,5.55,18.33-12.87,30.55-18.26,29.1S64.52,150.19,68,137.09Zm0,0"/><path class="cls-4" d="M82.48,148.71a81.81,81.81,0,0,1-5.79,12.18A31.88,31.88,0,0,1,72,167.3,6,6,0,0,1,70,168.65a5.87,5.87,0,0,1-1-2.13,32.77,32.77,0,0,1-.89-7.92,82.6,82.6,0,0,1,1.07-13.44l-5.48-1.47a87.41,87.41,0,0,0-1.23,15,36.51,36.51,0,0,0,1.11,9.4c.76,2.67,2,5.31,4.94,6.09s5.34-.87,7.33-2.8a36.37,36.37,0,0,0,5.66-7.59A86.75,86.75,0,0,0,88,150.18ZM88,150.18"/><path class="cls-4" d="M82.72,121.27a11.44,11.44,0,0,0-9.5,1.64c-3.29,2.29-6,6.5-7.92,13.45a82.17,82.17,0,0,0-1.82,8.92L69,146.75a77.91,77.91,0,0,1,1.78-8.93c1.65-6.15,3.87-9,5.69-10.28a5.85,5.85,0,0,1,8.59,2.3c.94,2,1.44,5.6-.21,11.75a77.08,77.08,0,0,1-2.93,8.62l5.49,1.47a79.37,79.37,0,0,0,2.88-8.63c1.87-7,1.58-12-.13-15.61a11.42,11.42,0,0,0-7.41-6.17Zm0,0"/><path class="cls-4" d="M100.31,217a23.2,23.2,0,0,1-23.15-23.16V63.36A23.2,23.2,0,0,1,100.31,40.2H202.87A23.2,23.2,0,0,1,226,63.36V193.88A23.2,23.2,0,0,1,202.87,217Zm102.56-9A14,14,0,0,0,217,193.88V63.36a14,14,0,0,0-14.13-14.14H100.31A14,14,0,0,0,86.18,63.36V193.88A14,14,0,0,0,100.31,208Zm0,0"/><path class="cls-5" d="M202.87,212.53a18.6,18.6,0,0,0,18.64-18.65V63.36a18.6,18.6,0,0,0-18.64-18.65H100.31A18.6,18.6,0,0,0,81.67,63.36V193.88a18.6,18.6,0,0,0,18.64,18.65Zm0,0"/><path class="cls-3" d="M100.31,44.71A18.6,18.6,0,0,0,81.67,63.36V78.28H221.51V63.36a18.6,18.6,0,0,0-18.64-18.65ZM81.67,179v14.91a18.6,18.6,0,0,0,18.64,18.65H202.87a18.6,18.6,0,0,0,18.64-18.65V179Zm139.84,0"/><rect class="cls-3" x="81.67" y="111.84" width="139.84" height="33.56"/><rect class="cls-2" x="90.99" y="127.78" width="121.2" height="1.69"/><path class="cls-4" d="M100.31,213.66a19.76,19.76,0,0,1-19.77-19.78V63.36a19.75,19.75,0,0,1,19.77-19.77H202.87a19.75,19.75,0,0,1,19.77,19.77V193.88a19.76,19.76,0,0,1-19.77,19.78Zm102.56-2.26a17.45,17.45,0,0,0,17.51-17.52V63.36a17.46,17.46,0,0,0-17.51-17.52H100.31A17.46,17.46,0,0,0,82.79,63.36V193.88a17.46,17.46,0,0,0,17.52,17.52Zm0,0"/><path class="cls-2" d="M100.31,53.19A10.17,10.17,0,0,0,90.14,63.36V193.88a10.17,10.17,0,0,0,10.17,10.17H202.87A10.17,10.17,0,0,0,213,193.88V63.36a10.17,10.17,0,0,0-10.17-10.17Zm102.56,1.69a8.44,8.44,0,0,1,8.47,8.48V193.88a8.44,8.44,0,0,1-8.47,8.48H100.31a8.44,8.44,0,0,1-8.47-8.48V63.36a8.44,8.44,0,0,1,8.47-8.48Zm0,0"/><path class="cls-2" d="M91,194.73a8.47,8.47,0,0,1,8.48,8.48h1.69A10.18,10.18,0,0,0,91,193ZM91,193"/><path class="cls-2" d="M99.47,54A8.46,8.46,0,0,1,91,62.51v1.7A10.19,10.19,0,0,0,101.16,54Zm1.69,0"/><path class="cls-2" d="M151.59,109.13a19.49,19.49,0,1,0,19.49,19.49,19.5,19.5,0,0,0-19.49-19.49Zm0,1.69a17.8,17.8,0,1,1-17.8,17.8,17.79,17.79,0,0,1,17.8-17.8Zm0,0"/><path class="cls-2" d="M122.77,174.39v29.66H180.4V174.39Zm55.94,28H124.47V176.08h54.24Zm0-26.28"/><path class="cls-2" d="M151.59,165.07a19.49,19.49,0,0,0-16.88,9.74l1.46.85a17.8,17.8,0,0,1,30.83,0l1.47-.85a19.49,19.49,0,0,0-16.88-9.74Zm0,0"/><path class="cls-2" d="M122.77,82.85V53.19H180.4V82.85Zm55.94-28H124.47V81.16h54.24Zm0,26.28"/><path class="cls-2" d="M167,81.58a17.8,17.8,0,0,1-30.83,0l-1.46.85a19.5,19.5,0,0,0,33.76,0L167,81.58Zm0,0"/><path class="cls-2" d="M132.1,193v11h39V193Zm37.29,9.32h-35.6v-7.63h35.6Zm0-7.63"/><path class="cls-2" d="M132.1,53.19v11h39v-11Zm37.29,9.32h-35.6V54.88h35.6Zm0-7.63"/><path class="cls-4" d="M166.46,96.79a11.54,11.54,0,0,0-2.52,7.23v5.82a11.62,11.62,0,0,0,23.23,0v-4.47l-20.71-8.58Zm0,0"/><path class="cls-2" d="M172.54,105.37a3.74,3.74,0,1,0,2.66,1.1,3.75,3.75,0,0,0-2.66-1.1Zm0,0"/><path class="cls-4" d="M116,105.37v4.47a11.62,11.62,0,0,0,23.23,0V104a11.6,11.6,0,0,0-2.52-7.23Zm20.71-8.58"/><path class="cls-2" d="M124.61,105.37a3.75,3.75,0,0,0,0,7.5,3.76,3.76,0,0,0,3.75-3.75,3.75,3.75,0,0,0-3.75-3.75Zm0,0"/><path class="cls-4" d="M160.34,132.49a8.75,8.75,0,1,0-17.5,0h-2.26a11,11,0,1,1,22,0Zm2.26,0"/><path class="cls-4" d="M160.78,13.51c-8.47.51-16.85.55-26.25,1.24-12.43.91-21.32,4.74-27,10.51a28.37,28.37,0,0,0-8,20.31c0,12.68,7.78,22.41,18.53,27.65s24.51,6.68,38.51,4.53c1.41-.21,2.81-.47,4.22-.76V67.76q-2.79.64-5.59,1.08c-12.48,1.92-24.64.44-33.19-3.73s-13.46-10.34-13.46-19.54c0-5.25,1.5-10.08,5.35-14s10.37-7.06,21.3-7.86c8.75-.65,17-.75,25.59-1.31V13.51Zm0,0"/><path class="cls-4" d="M184.93,10.09a140.15,140.15,0,0,1-27,3.58v8.94A175.68,175.68,0,0,0,179,20.35l-2.66,7.18,6.44,0a90.51,90.51,0,0,0,25.6-3.95C201.82,49.7,180,64.13,157.93,68.36v9.17c27.59-4.72,56.3-24.18,61-59.8l1-7.27L213,12.89A133.81,133.81,0,0,1,189.49,18l.73-1.95,2.95-7.95Zm8.24-2"/><path class="cls-6" d="M186,14.47c-18.92,4.59-33.57,3.49-51.13,4.78C111.5,21,104,33.25,104,45.57c0,43.76,101.45,39.65,110.42-28.43,0,0-17.07,6-31.64,5.91L186,14.47Zm0,0"/><path class="cls-7" d="M186,14.47c-18.92,4.59-33.57,3.49-51.13,4.78-13.3,1-21.44,5.38-26,11.26C121.19,51.86,190.78,48,214.45,17.14c0,0-17.07,6-31.64,5.91L186,14.47Zm0,0"/><path class="cls-8" d="M214.45,17.14C202.56,61.5,120.9,78.75,104.67,39.58a28,28,0,0,0-.64,6c0,43.76,101.45,39.65,110.42-28.43Zm0,0"/><path class="cls-4" d="M160.78,16.91c-8.51.51-16.84.54-26,1.21-11.87.88-19.87,4.46-24.89,9.52a24.84,24.84,0,0,0-7,17.93c0,11.38,6.7,19.77,16.63,24.61s23.09,6.29,36.52,4.23c1.57-.24,3.15-.53,4.73-.87V71.23q-2.53.55-5.07,1c-13.06,2-25.81.54-35.19-4s-15.36-12.08-15.36-22.58a22.49,22.49,0,0,1,6.33-16.34c4.55-4.59,12-8,23.45-8.86,9-.66,17.3-.73,25.84-1.26v-2.2Zm0,0"/><path class="cls-4" d="M185.72,13.38a143,143,0,0,1-27.79,3.68v2.22a153.13,153.13,0,0,0,26.31-3.34l-3.05,8.23h1.61c13.6.08,27.65-4.58,30.22-5.45-5,31.41-30.16,48.51-55.09,53.08V74.1c26.28-4.68,53.19-23,57.63-56.81l.24-1.82-1.73.61s-15.7,5.36-29.59,5.71l2.57-6.93.74-2Zm2.07-.5"/><text class="cls-9" transform="translate(20.25 270.76)">mistrzami</text><text class="cls-9" transform="translate(20.25 244.42)">nie byli</text><path class="cls-1" d="M45,0,16,0H0L0,16c0,7,0,14,0,21A29.11,29.11,0,0,0,51.47,18.3,28.92,28.92,0,0,0,45,0Z"/><text class="cls-10" transform="translate(15.57 31.75)">06</text></svg>