<?xml version="1.0" encoding="utf-8"?>
<!-- Generator: Adobe Illustrator 26.0.3, SVG Export Plug-In . SVG Version: 6.00 Build 0)  -->
<svg version="1.1" id="Слой_1" xmlns="http://www.w3.org/2000/svg" xmlns:xlink="http://www.w3.org/1999/xlink" x="0px" y="0px"
	 viewBox="0 0 195.6 280.6" style="enable-background:new 0 0 195.6 280.6;" xml:space="preserve">
<style type="text/css">
	.st0{clip-path:url(#SVGID_00000083792780970087177040000012544151846224807584_);fill:#EB5A53;}
	.st1{clip-path:url(#SVGID_00000083792780970087177040000012544151846224807584_);fill:#FFFFFF;}
	.st2{clip-path:url(#SVGID_00000083792780970087177040000012544151846224807584_);fill:#67B54B;}
	.st3{clip-path:url(#SVGID_00000083792780970087177040000012544151846224807584_);fill:#1A1A1A;}
	.st4{clip-path:url(#SVGID_00000083792780970087177040000012544151846224807584_);fill:#88C05C;}
	.st5{clip-path:url(#SVGID_00000083792780970087177040000012544151846224807584_);fill:#595959;}
	.st6{clip-path:url(#SVGID_00000083792780970087177040000012544151846224807584_);fill:#797979;}
	.st7{clip-path:url(#SVGID_00000083792780970087177040000012544151846224807584_);fill:#3E3E3E;}
	.st8{clip-path:url(#SVGID_00000083792780970087177040000012544151846224807584_);enable-background:new    ;}
	.st9{fill:#1A1A1A;}
	.st10{font-family:'Impact';}
	.st11{font-size:29.2px;}
	.st12{fill:#FFFFFF;}
	.st13{font-size:20px;}
</style>
<g>
	<defs>
		<rect id="SVGID_1_" x="0.2" y="0.7" width="195.6" height="280.6"/>
	</defs>
	<clipPath id="SVGID_00000102510375256237459420000007816738316345954946_">
		<use xlink:href="#SVGID_1_"  style="overflow:visible;"/>
	</clipPath>
	
		<rect x="-1.5" y="93.5" style="clip-path:url(#SVGID_00000102510375256237459420000007816738316345954946_);fill:#EB5A53;" width="198.7" height="93.5"/>
	
		<rect x="-1.5" y="0" style="clip-path:url(#SVGID_00000102510375256237459420000007816738316345954946_);fill:#FFFFFF;" width="198.7" height="93.5"/>
	
		<rect x="-1.5" y="187.1" style="clip-path:url(#SVGID_00000102510375256237459420000007816738316345954946_);fill:#FFFFFF;" width="198.7" height="93.5"/>
	<path style="clip-path:url(#SVGID_00000102510375256237459420000007816738316345954946_);fill:#FFFFFF;" d="M45.2,134.5H45h-0.1
		h-0.1h-0.1h-0.1l0,0h-0.1h-0.1h-0.1h-0.1l-0.1,0.1l-0.1,0.1l-0.1,0.1l-0.1,0.1l-0.1,0.1c0,0-0.1,0.1-0.1,0.1l-0.1,0.1
		c0,0-0.1,0-0.1,0.1l-0.1,0.1l-0.1,0.1c0,0,0,0.1,0,0.1c0,0,0,0.1,0,0.1c0,0,0,0.1,0,0.1v0.1v0.1v0.1v0.1c0,0,0,0.1,0,0.1
		c0,0,0,0.1,0,0.1s0,0.1,0,0.1v0.3c0,0,0,0.1,0,0.1s0,0.1,0,0.1v0.1c0,0,0,0.1,0,0.1v0.1c0,0,0,0.1,0,0.1c0,0,0,0.1,0,0.1
		c0,0,0,0.1,0,0.1l0,0.1l0.1,0.1l0.1,0.1l0.1,0.1c0,0,0,0.1,0.1,0.1l0.1,0.1l0.1,0.1l0.1,0.1l0.1,0.1l0.1,0.1l0.1,0.1l0.1,0.1h0.1
		h0.1h0.1h0.1h0.1h0.1h0.1h0.1h0.5h0.1h0.1h0.1l0,0l0,0h0.1H46h0.1l0.1-0.1l0.1-0.1l0.1-0.1l0.1-0.1l0.1-0.1l0.1-0.1l0.1-0.1
		l0.1-0.1l0.1-0.1l0.1-0.1l0.1-0.1l0.1-0.1v-0.1v-0.1v-0.1c0,0,0-0.1,0-0.1v-0.1v-0.1c0,0,0-0.1,0-0.1s0-0.1,0-0.1s0-0.1,0-0.1v-0.3
		c0,0,0-0.1,0-0.1c0,0,0-0.1,0-0.1c0,0,0-0.1,0-0.1c0,0,0-0.1,0-0.1l0,0l0,0c0,0,0-0.1,0-0.1v-0.1c0,0,0-0.1,0-0.1v-0.1
		c0,0,0-0.1,0-0.1l-0.1-0.1l-0.1-0.1l-0.1-0.1c0,0-0.1-0.1-0.1-0.1l-0.1-0.1l-0.1,0.2l-0.1-0.1l-0.1-0.1l-0.1-0.1l-0.1-0.1l-0.1-0.1
		H46H46h-0.1h-0.1h-0.1h-0.1h-0.1h-0.2L45.2,134.5z"/>
	<path style="clip-path:url(#SVGID_00000102510375256237459420000007816738316345954946_);fill:#FFFFFF;" d="M45.2,134.5H45h-0.1
		h-0.1h-0.1h-0.1l0,0h-0.1h-0.1h-0.1h-0.1l-0.1,0.1l-0.1,0.1l-0.1,0.1l-0.1,0.1l-0.1,0.1c0,0-0.1,0.1-0.1,0.1l-0.1,0.1
		c0,0-0.1,0-0.1,0.1l-0.1,0.1l-0.1,0.1c0,0,0,0.1,0,0.1c0,0,0,0.1,0,0.1c0,0,0,0.1,0,0.1v0.1v0.1v0.1v0.1c0,0,0,0.1,0,0.1
		c0,0,0,0.1,0,0.1s0,0.1,0,0.1v0.3c0,0,0,0.1,0,0.1s0,0.1,0,0.1v0.1c0,0,0,0.1,0,0.1v0.1c0,0,0,0.1,0,0.1c0,0,0,0.1,0,0.1
		c0,0,0,0.1,0,0.1l0,0.1l0.1,0.1l0.1,0.1l0.1,0.1c0,0,0,0.1,0.1,0.1l0.1,0.1l0.1,0.1l0.1,0.1l0.1,0.1l0.1,0.1l0.1,0.1l0.1,0.1h0.1
		h0.1h0.1h0.1h0.1h0.1h0.1h0.1h0.4h0.1h0.1h0.1h0.1l0,0l0,0l0.1-0.1H46h0.1l0.1-0.1l0.1-0.1l0.1-0.1l0.1-0.1c0,0,0.1,0,0.1-0.1
		c0,0,0.1,0,0.1-0.1l0.1-0.1l0.1-0.1l0.1-0.1l0.1-0.1l0.1-0.1l0.1-0.1c0,0,0-0.1,0-0.1c0,0,0-0.1,0-0.1c0,0,0-0.1,0-0.1
		c0,0,0-0.1,0-0.1v-0.1v-0.1c0,0,0-0.1,0-0.1s0-0.1,0-0.1s0-0.1,0-0.1v-0.3c0,0,0-0.1,0-0.1c0,0,0-0.1,0-0.1c0,0,0-0.1,0-0.1
		c0,0,0-0.1,0-0.1l0,0l0,0c0,0,0-0.1,0-0.1c0,0-1937,774.6-0.1-0.2v-0.1c0,0,0-0.1,0-0.1l0,0.2l-0.1-0.1l-0.1-0.1l-0.1-0.1l-0.1-0.1
		l-0.1-0.1l-0.1-0.1l-0.1-0.1l-0.1-0.1l-0.1-0.1l-0.1-0.1H46H46h-0.1h-0.1h-0.1h-0.1h-0.1h-0.1h-0.2L45.2,134.5z"/>
	<path style="clip-path:url(#SVGID_00000102510375256237459420000007816738316345954946_);fill:#FFFFFF;" d="M45.2,134.5H45h-0.1
		h-0.1h-0.1h-0.1l0,0h-0.1h-0.1h-0.1h-0.1l-0.1,0.1l-0.1,0.1l-0.1,0.1l-0.1,0.1l-0.1,0.1c0,0-0.1,0.1-0.1,0.1l-0.1,0.1
		c0,0-0.1,0-0.1,0.1l-0.1,0.1l-0.1,0.1c0,0,0,0.1,0,0.1c0,0,0,0.1,0,0.1c0,0,0,0.1,0,0.1v0.1v0.1v0.1v0.1c0,0,0,0.1,0,0.1
		c0,0,0,0.1,0,0.1s0,0.1,0,0.1v0.3c0,0,0,0.1,0,0.1s0,0.1,0,0.1v0.1c0,0,0,0.1,0,0.1v0.1c0,0,0,0.1,0,0.1c0,0,0,0.1,0,0.1
		c0,0,0,0.1,0,0.1l0,0.1l0.1,0.1l0.1,0.1l0.1,0.1c0,0,0,0.1,0.1,0.1l0.1,0.1l0.1,0.1l0.1,0.1l0.1,0.1l0.1,0.1l0.1,0.1l0.1,0.1h0.1
		h0.1h0.1h0.1h0.1h0.1h0.1h0.1h0.4h0.1h0.1h0.1h0.1l0,0l0,0l0.1-0.1H46h0.1l0.1-0.1l0.1-0.1l0.1-0.1l0.1-0.1c0,0,0.1,0,0.1-0.1
		c0,0,0.1,0,0.1-0.1l0.1-0.1l0.1-0.1l0.1-0.1l0.1-0.1l0.1-0.1l0.1-0.1c0,0,0-0.1,0-0.1c0,0,0-0.1,0-0.1c0,0,0-0.1,0-0.1
		c0,0,0-0.1,0-0.1v-0.1v-0.1c0,0,0-0.1,0-0.1s0-0.1,0-0.1s0-0.1,0-0.1v-0.3c0,0,0-0.1,0-0.1c0,0,0-0.1,0-0.1c0,0,0-0.1,0-0.1
		c0,0,0-0.1,0-0.1l0,0l0,0c0,0,0-0.1,0-0.1c0,0-1937,774.6-0.1-0.2v-0.1c0,0,0-0.1,0-0.1l0,0.2l-0.1-0.1l-0.1-0.1l-0.1-0.1l-0.1-0.1
		l-0.1-0.1l-0.1-0.1l-0.1-0.1l-0.1-0.1l-0.1-0.1l-0.1-0.1H46H46h-0.1h-0.1h-0.1h-0.1h-0.1h-0.1h-0.2L45.2,134.5z"/>
	<path style="clip-path:url(#SVGID_00000102510375256237459420000007816738316345954946_);fill:#FFFFFF;" d="M45.2,134.5H45h-0.1
		h-0.1h-0.1h-0.1l0,0h-0.1h-0.1h-0.1h-0.1l-0.1,0.1l-0.1,0.1l-0.1,0.1l-0.1,0.1l-0.1,0.1c0,0-0.1,0.1-0.1,0.1l-0.1,0.1
		c0,0-0.1,0-0.1,0.1l-0.1,0.1l-0.1,0.1c0,0,0,0.1,0,0.1c0,0,0,0.1,0,0.1c0,0,0,0.1,0,0.1v0.1v0.1v0.1v0.1c0,0,0,0.1,0,0.1
		c0,0,0,0.1,0,0.1s0,0.1,0,0.1v0.3c0,0,0,0.1,0,0.1s0,0.1,0,0.1v0.1c0,0,0,0.1,0,0.1v0.1c0,0,0,0.1,0,0.1c0,0,0,0.1,0,0.1
		c0,0,0,0.1,0,0.1l0,0.1l0.1,0.1l0.1,0.1l0.1,0.1c0,0,0,0.1,0.1,0.1l0.1,0.1l0.1,0.1l0.1,0.1l0.1,0.1l0.1,0.1l0.1,0.1l0.1,0.1h0.1
		h0.1h0.1h0.1h0.1h0.1h0.1h0.1h0.4h0.1h0.1h0.1h0.1l0,0l0,0l0.1-0.1H46h0.1l0.1-0.1l0.1-0.1l0.1-0.1l0.1-0.1c0,0,0.1,0,0.1-0.1
		c0,0,0.1,0,0.1-0.1l0.1-0.1l0.1-0.1l0.1-0.1l0.1-0.1l0.1-0.1l0.1-0.1c0,0,0-0.1,0-0.1c0,0,0-0.1,0-0.1c0,0,0-0.1,0-0.1
		c0,0,0-0.1,0-0.1v-0.1v-0.1c0,0,0-0.1,0-0.1s0-0.1,0-0.1s0-0.1,0-0.1v-0.3c0,0,0-0.1,0-0.1c0,0,0-0.1,0-0.1c0,0,0-0.1,0-0.1
		c0,0,0-0.1,0-0.1l0,0l0,0c0,0,0-0.1,0-0.1c0,0-1937,774.6-0.1-0.2v-0.1c0,0,0-0.1,0-0.1l0,0.2l-0.1-0.1l-0.1-0.1l-0.1-0.1l-0.1-0.1
		l-0.1-0.1l-0.1-0.1l-0.1-0.1l-0.1-0.1l-0.1-0.1l-0.1-0.1H46H46h-0.1h-0.1h-0.1h-0.1h-0.1h-0.1h-0.2L45.2,134.5z"/>
	<path style="clip-path:url(#SVGID_00000102510375256237459420000007816738316345954946_);fill:#FFFFFF;" d="M45.2,134.5H45h-0.1
		h-0.1h-0.1h-0.1l0,0h-0.1h-0.1h-0.1h-0.1l-0.1,0.1l-0.1,0.1l-0.1,0.1l-0.1,0.1l-0.1,0.1c0,0-0.1,0.1-0.1,0.1l-0.1,0.1
		c0,0-0.1,0-0.1,0.1l-0.1,0.1l-0.1,0.1c0,0,0,0.1,0,0.1c0,0,0,0.1,0,0.1c0,0,0,0.1,0,0.1v0.1v0.1v0.1v0.1c0,0,0,0.1,0,0.1
		c0,0,0,0.1,0,0.1s0,0.1,0,0.1v0.3c0,0,0,0.1,0,0.1s0,0.1,0,0.1v0.1c0,0,0,0.1,0,0.1v0.1c0,0,0,0.1,0,0.1c0,0,0,0.1,0,0.1
		c0,0,0,0.1,0,0.1l0,0.1l0.1,0.1l0.1,0.1l0.1,0.1c0,0,0,0.1,0.1,0.1l0.1,0.1l0.1,0.1l0.1,0.1l0.1,0.1l0.1,0.1l0.1,0.1l0.1,0.1h0.1
		h0.1h0.1h0.1h0.1h0.1h0.1h0.1h0.4h0.1h0.1h0.1h0.1l0,0l0,0l0.1-0.1H46h0.1l0.1-0.1l0.1-0.1l0.1-0.1l0.1-0.1c0,0,0.1,0,0.1-0.1
		c0,0,0.1,0,0.1-0.1l0.1-0.1l0.1-0.1l0.1-0.1l0.1-0.1l0.1-0.1l0.1-0.1c0,0,0-0.1,0-0.1c0,0,0-0.1,0-0.1c0,0,0-0.1,0-0.1
		c0,0,0-0.1,0-0.1v-0.1v-0.1c0,0,0-0.1,0-0.1s0-0.1,0-0.1s0-0.1,0-0.1v-0.3c0,0,0-0.1,0-0.1c0,0,0-0.1,0-0.1c0,0,0-0.1,0-0.1
		c0,0,0-0.1,0-0.1l0,0l0,0c0,0,0-0.1,0-0.1c0,0-1937,774.6-0.1-0.2v-0.1c0,0,0-0.1,0-0.1l0,0.2l-0.1-0.1l-0.1-0.1l-0.1-0.1l-0.1-0.1
		l-0.1-0.1l-0.1-0.1l-0.1-0.1l-0.1-0.1l-0.1-0.1l-0.1-0.1H46H46h-0.1h-0.1h-0.1h-0.1h-0.1h-0.1h-0.2L45.2,134.5z"/>
	<path style="clip-path:url(#SVGID_00000102510375256237459420000007816738316345954946_);fill:#FFFFFF;" d="M45.2,134.5H45h-0.1
		h-0.1h-0.1h-0.1l0,0h-0.1h-0.1h-0.1h-0.1l-0.1,0.1l-0.1,0.1l-0.1,0.1l-0.1,0.1l-0.1,0.1c0,0-0.1,0.1-0.1,0.1l-0.1,0.1
		c0,0-0.1,0-0.1,0.1l-0.1,0.1l-0.1,0.1c0,0,0,0.1,0,0.1c0,0,0,0.1,0,0.1c0,0,0,0.1,0,0.1v0.1v0.1v0.1v0.1c0,0,0,0.1,0,0.1
		c0,0,0,0.1,0,0.1s0,0.1,0,0.1v0.3c0,0,0,0.1,0,0.1s0,0.1,0,0.1v0.1c0,0,0,0.1,0,0.1v0.1c0,0,0,0.1,0,0.1c0,0,0,0.1,0,0.1
		c0,0,0,0.1,0,0.1l0,0.1l0.1,0.1l0.1,0.1l0.1,0.1c0,0,0,0.1,0.1,0.1l0.1,0.1l0.1,0.1l0.1,0.1l0.1,0.1l0.1,0.1l0.1,0.1l0.1,0.1h0.1
		h0.1h0.1h0.1h0.1h0.1h0.1h0.1h0.4h0.1h0.1h0.1h0.1l0,0l0,0l0.1-0.1H46h0.1l0.1-0.1l0.1-0.1l0.1-0.1l0.1-0.1c0,0,0.1,0,0.1-0.1
		c0,0,0.1,0,0.1-0.1l0.1-0.1l0.1-0.1l0.1-0.1l0.1-0.1l0.1-0.1l0.1-0.1c0,0,0-0.1,0-0.1c0,0,0-0.1,0-0.1c0,0,0-0.1,0-0.1
		c0,0,0-0.1,0-0.1v-0.1v-0.1c0,0,0-0.1,0-0.1s0-0.1,0-0.1s0-0.1,0-0.1v-0.3c0,0,0-0.1,0-0.1c0,0,0-0.1,0-0.1c0,0,0-0.1,0-0.1
		c0,0,0-0.1,0-0.1l0,0l0,0c0,0,0-0.1,0-0.1c0,0-1937,774.6-0.1-0.2v-0.1c0,0,0-0.1,0-0.1l0,0.2l-0.1-0.1l-0.1-0.1l-0.1-0.1l-0.1-0.1
		l-0.1-0.1l-0.1-0.1l-0.1-0.1l-0.1-0.1l-0.1-0.1l-0.1-0.1H46H46h-0.1h-0.1h-0.1h-0.1h-0.1h-0.1h-0.2L45.2,134.5z"/>
	<path style="clip-path:url(#SVGID_00000102510375256237459420000007816738316345954946_);fill:#FFFFFF;" d="M45.2,134.5H45h-0.1
		h-0.1h-0.1h-0.1l0,0h-0.1h-0.1h-0.1h-0.1l-0.1,0.1l-0.1,0.1l-0.1,0.1l-0.1,0.1l-0.1,0.1c0,0-0.1,0.1-0.1,0.1l-0.1,0.1
		c0,0-0.1,0-0.1,0.1l-0.1,0.1l-0.1,0.1c0,0,0,0.1,0,0.1c0,0,0,0.1,0,0.1c0,0,0,0.1,0,0.1v0.1v0.1v0.1v0.1c0,0,0,0.1,0,0.1
		c0,0,0,0.1,0,0.1s0,0.1,0,0.1v0.3c0,0,0,0.1,0,0.1s0,0.1,0,0.1v0.1c0,0,0,0.1,0,0.1v0.1c0,0,0,0.1,0,0.1c0,0,0,0.1,0,0.1
		c0,0,0,0.1,0,0.1l0,0.1l0.1,0.1l0.1,0.1l0.1,0.1c0,0,0,0.1,0.1,0.1l0.1,0.1l0.1,0.1l0.1,0.1l0.1,0.1l0.1,0.1l0.1,0.1l0.1,0.1h0.1
		h0.1h0.1h0.1h0.1h0.1h0.1h0.1h0.4h0.1h0.1h0.1h0.1l0,0l0,0l0.1-0.1H46h0.1l0.1-0.1l0.1-0.1l0.1-0.1l0.1-0.1c0,0,0.1,0,0.1-0.1
		c0,0,0.1,0,0.1-0.1l0.1-0.1l0.1-0.1l0.1-0.1l0.1-0.1l0.1-0.1l0.1-0.1c0,0,0-0.1,0-0.1c0,0,0-0.1,0-0.1c0,0,0-0.1,0-0.1
		c0,0,0-0.1,0-0.1v-0.1v-0.1c0,0,0-0.1,0-0.1s0-0.1,0-0.1s0-0.1,0-0.1v-0.3c0,0,0-0.1,0-0.1c0,0,0-0.1,0-0.1c0,0,0-0.1,0-0.1
		c0,0,0-0.1,0-0.1l0,0l0,0c0,0,0-0.1,0-0.1c0,0-1937,774.6-0.1-0.2v-0.1c0,0,0-0.1,0-0.1l0,0.2l-0.1-0.1l-0.1-0.1l-0.1-0.1l-0.1-0.1
		l-0.1-0.1l-0.1-0.1l-0.1-0.1l-0.1-0.1l-0.1-0.1l-0.1-0.1H46H46h-0.1h-0.1h-0.1h-0.1h-0.1h-0.1h-0.2L45.2,134.5z"/>
	<path style="clip-path:url(#SVGID_00000102510375256237459420000007816738316345954946_);fill:#FFFFFF;" d="M45.2,134.5H45h-0.1
		h-0.1h-0.1h-0.1l0,0h-0.1h-0.1h-0.1h-0.1l-0.1,0.1l-0.1,0.1l-0.1,0.1l-0.1,0.1l-0.1,0.1c0,0-0.1,0.1-0.1,0.1l-0.1,0.1
		c0,0-0.1,0-0.1,0.1l-0.1,0.1l-0.1,0.1c0,0,0,0.1,0,0.1c0,0,0,0.1,0,0.1c0,0,0,0.1,0,0.1v0.1v0.1v0.1v0.1c0,0,0,0.1,0,0.1
		c0,0,0,0.1,0,0.1s0,0.1,0,0.1v0.3c0,0,0,0.1,0,0.1s0,0.1,0,0.1v0.1c0,0,0,0.1,0,0.1v0.1c0,0,0,0.1,0,0.1c0,0,0,0.1,0,0.1
		c0,0,0,0.1,0,0.1l0,0.1l0.1,0.1l0.1,0.1l0.1,0.1c0,0,0,0.1,0.1,0.1l0.1,0.1l0.1,0.1l0.1,0.1l0.1,0.1l0.1,0.1l0.1,0.1l0.1,0.1h0.1
		h0.1h0.1h0.1h0.1h0.1h0.1h0.1h0.4h0.1h0.1h0.1h0.1l0,0l0,0l0.1-0.1H46h0.1l0.1-0.1l0.1-0.1l0.1-0.1l0.1-0.1c0,0,0.1,0,0.1-0.1
		c0,0,0.1,0,0.1-0.1l0.1-0.1l0.1-0.1l0.1-0.1l0.1-0.1l0.1-0.1l0.1-0.1c0,0,0-0.1,0-0.1c0,0,0-0.1,0-0.1c0,0,0-0.1,0-0.1
		c0,0,0-0.1,0-0.1v-0.1v-0.1c0,0,0-0.1,0-0.1s0-0.1,0-0.1s0-0.1,0-0.1v-0.3c0,0,0-0.1,0-0.1c0,0,0-0.1,0-0.1c0,0,0-0.1,0-0.1
		c0,0,0-0.1,0-0.1l0,0l0,0c0,0,0-0.1,0-0.1c0,0-1937,774.6-0.1-0.2v-0.1c0,0,0-0.1,0-0.1l0,0.2l-0.1-0.1l-0.1-0.1l-0.1-0.1l-0.1-0.1
		l-0.1-0.1l-0.1-0.1l-0.1-0.1l-0.1-0.1l-0.1-0.1l-0.1-0.1H46H46h-0.1h-0.1h-0.1h-0.1h-0.1h-0.1h-0.2L45.2,134.5z"/>
	<path style="clip-path:url(#SVGID_00000102510375256237459420000007816738316345954946_);fill:#FFFFFF;" d="M45.2,134.5H45h-0.1
		h-0.1h-0.1h-0.1l0,0h-0.1h-0.1h-0.1h-0.1l-0.1,0.1l-0.1,0.1l-0.1,0.1l-0.1,0.1l-0.1,0.1c0,0-0.1,0.1-0.1,0.1l-0.1,0.1
		c0,0-0.1,0-0.1,0.1l-0.1,0.1l-0.1,0.1c0,0,0,0.1,0,0.1c0,0,0,0.1,0,0.1c0,0,0,0.1,0,0.1v0.1v0.1v0.1v0.1c0,0,0,0.1,0,0.1
		c0,0,0,0.1,0,0.1s0,0.1,0,0.1v0.3c0,0,0,0.1,0,0.1s0,0.1,0,0.1v0.1c0,0,0,0.1,0,0.1v0.1c0,0,0,0.1,0,0.1c0,0,0,0.1,0,0.1
		c0,0,0,0.1,0,0.1l0,0.1l0.1,0.1l0.1,0.1l0.1,0.1c0,0,0,0.1,0.1,0.1l0.1,0.1l0.1,0.1l0.1,0.1l0.1,0.1l0.1,0.1l0.1,0.1l0.1,0.1h0.1
		h0.1h0.1h0.1h0.1h0.1h0.1h0.1h0.4h0.1h0.1h0.1h0.1l0,0l0,0l0.1-0.1H46h0.1l0.1-0.1l0.1-0.1l0.1-0.1l0.1-0.1c0,0,0.1,0,0.1-0.1
		c0,0,0.1,0,0.1-0.1l0.1-0.1l0.1-0.1l0.1-0.1l0.1-0.1l0.1-0.1l0.1-0.1c0,0,0-0.1,0-0.1c0,0,0-0.1,0-0.1c0,0,0-0.1,0-0.1
		c0,0,0-0.1,0-0.1v-0.1v-0.1c0,0,0-0.1,0-0.1s0-0.1,0-0.1s0-0.1,0-0.1v-0.3c0,0,0-0.1,0-0.1c0,0,0-0.1,0-0.1c0,0,0-0.1,0-0.1
		c0,0,0-0.1,0-0.1l0,0l0,0c0,0,0-0.1,0-0.1c0,0-1937,774.6-0.1-0.2v-0.1c0,0,0-0.1,0-0.1l0,0.2l-0.1-0.1l-0.1-0.1l-0.1-0.1l-0.1-0.1
		l-0.1-0.1l-0.1-0.1l-0.1-0.1l-0.1-0.1l-0.1-0.1l-0.1-0.1H46H46h-0.1h-0.1h-0.1h-0.1h-0.1h-0.1h-0.2L45.2,134.5z"/>
	<path style="clip-path:url(#SVGID_00000102510375256237459420000007816738316345954946_);fill:#FFFFFF;" d="M45.2,134.5H45h-0.1
		h-0.1h-0.1h-0.1l0,0h-0.1h-0.1h-0.1h-0.1l-0.1,0.1l-0.1,0.1l-0.1,0.1l-0.1,0.1l-0.1,0.1c0,0-0.1,0.1-0.1,0.1l-0.1,0.1
		c0,0-0.1,0-0.1,0.1l-0.1,0.1l-0.1,0.1c0,0,0,0.1,0,0.1c0,0,0,0.1,0,0.1c0,0,0,0.1,0,0.1v0.1v0.1v0.1v0.1c0,0,0,0.1,0,0.1
		c0,0,0,0.1,0,0.1s0,0.1,0,0.1v0.3c0,0,0,0.1,0,0.1s0,0.1,0,0.1v0.1c0,0,0,0.1,0,0.1v0.1c0,0,0,0.1,0,0.1c0,0,0,0.1,0,0.1
		c0,0,0,0.1,0,0.1l0,0.1l0.1,0.1l0.1,0.1l0.1,0.1c0,0,0,0.1,0.1,0.1l0.1,0.1l0.1,0.1l0.1,0.1l0.1,0.1l0.1,0.1l0.1,0.1l0.1,0.1h0.1
		h0.1h0.1h0.1h0.1h0.1h0.1h0.1h0.4h0.1h0.1h0.1h0.1l0,0l0,0l0.1-0.1H46h0.1l0.1-0.1l0.1-0.1l0.1-0.1l0.1-0.1c0,0,0.1,0,0.1-0.1
		c0,0,0.1,0,0.1-0.1l0.1-0.1l0.1-0.1l0.1-0.1l0.1-0.1l0.1-0.1l0.1-0.1c0,0,0-0.1,0-0.1c0,0,0-0.1,0-0.1c0,0,0-0.1,0-0.1
		c0,0,0-0.1,0-0.1v-0.1v-0.1c0,0,0-0.1,0-0.1s0-0.1,0-0.1s0-0.1,0-0.1v-0.3c0,0,0-0.1,0-0.1c0,0,0-0.1,0-0.1c0,0,0-0.1,0-0.1
		c0,0,0-0.1,0-0.1l0,0l0,0c0,0,0-0.1,0-0.1c0,0-1937,774.6-0.1-0.2v-0.1c0,0,0-0.1,0-0.1l0,0.2l-0.1-0.1l-0.1-0.1l-0.1-0.1l-0.1-0.1
		l-0.1-0.1l-0.1-0.1l-0.1-0.1l-0.1-0.1l-0.1-0.1l-0.1-0.1H46H46h-0.1h-0.1h-0.1h-0.1h-0.1h-0.1h-0.2L45.2,134.5z"/>
	<path style="clip-path:url(#SVGID_00000102510375256237459420000007816738316345954946_);fill:#67B54B;" d="M28.6,207.2
		c3.5,13.1,4.1,32.9-1.3,34.3s-14.7-16-18.2-29.1s1.6-17.3,5.5-18.3S25.1,194.1,28.6,207.2L28.6,207.2z"/>
	<path style="clip-path:url(#SVGID_00000102510375256237459420000007816738316345954946_);fill:#1A1A1A;" d="M8.7,220.3
		c1.7,4.7,3.9,9.2,6.4,13.6c1.5,2.8,3.5,5.3,5.7,7.6c2,1.9,4.4,3.6,7.3,2.8s4.2-3.4,5-6.1c0.8-3.1,1.1-6.2,1.1-9.4
		c0-5-0.4-10-1.2-15l-5.5,1.5c0.7,4.4,1.1,8.9,1.1,13.4c0,2.7-0.3,5.3-0.9,7.9c-0.2,0.8-0.5,1.5-1,2.1c-0.7-0.3-1.4-0.8-1.9-1.3
		c-1.8-1.9-3.4-4.1-4.7-6.4c-2.3-3.9-4.2-8-5.8-12.2L8.7,220.3z"/>
	<path style="clip-path:url(#SVGID_00000102510375256237459420000007816738316345954946_);fill:#1A1A1A;" d="M13.9,191.4
		c-3.3,0.9-6,3.1-7.4,6.2c-1.7,3.6-2,8.7-0.1,15.6c0.8,2.9,1.8,5.8,2.9,8.6l5.5-1.5c-1.2-2.8-2.1-5.7-2.9-8.6
		c-1.6-6.1-1.1-9.8-0.2-11.8c0.7-1.6,2.1-2.7,3.8-3.1c1.7-0.5,3.4-0.2,4.8,0.8c1.8,1.3,4,4.1,5.7,10.3c0.8,2.9,1.4,5.9,1.8,8.9
		l5.5-1.5c-0.4-3-1.1-6-1.8-8.9c-1.9-6.9-4.6-11.2-7.9-13.4C20.7,191.1,17.2,190.5,13.9,191.4L13.9,191.4z"/>
	<path style="clip-path:url(#SVGID_00000102510375256237459420000007816738316345954946_);fill:#67B54B;" d="M81.2,212.4
		C77.7,225.5,68.4,243,63,241.5s-4.8-21.2-1.3-34.3c3.5-13.1,10-14.2,14-13.1S84.8,199.3,81.2,212.4L81.2,212.4z"/>
	<path style="clip-path:url(#SVGID_00000102510375256237459420000007816738316345954946_);fill:#1A1A1A;" d="M57.4,213.8
		c-0.8,5-1.3,10-1.2,15c0,3.2,0.3,6.3,1.1,9.4c0.8,2.7,2,5.3,4.9,6.1c2.9,0.8,5.3-0.9,7.3-2.8c2.2-2.3,4.1-4.8,5.7-7.6
		c2.5-4.3,4.7-8.9,6.4-13.6l-5.5-1.5c-1.6,4.2-3.5,8.3-5.8,12.2c-1.3,2.3-2.9,4.5-4.7,6.4c-0.5,0.6-1.2,1-1.9,1.4
		c-0.5-0.6-0.8-1.4-1-2.1c-0.6-2.6-0.9-5.3-0.9-7.9c0-4.5,0.4-9,1.1-13.4L57.4,213.8z"/>
	<path style="clip-path:url(#SVGID_00000102510375256237459420000007816738316345954946_);fill:#1A1A1A;" d="M76.4,191.4
		c-3.3-0.9-6.7-0.3-9.5,1.6c-3.3,2.3-6.1,6.5-7.9,13.4c-0.8,2.9-1.4,5.9-1.8,8.9l5.5,1.5c0.4-3,1-6,1.8-8.9c1.6-6.1,3.9-9,5.7-10.3
		c2.7-1.8,6.3-1.2,8.1,1.5c0.2,0.3,0.3,0.5,0.5,0.8c1,2,1.4,5.6-0.2,11.8c-0.8,2.9-1.8,5.8-2.9,8.6l5.5,1.5c1.1-2.8,2.1-5.7,2.9-8.6
		c1.9-6.9,1.6-12-0.1-15.6C82.4,194.5,79.7,192.2,76.4,191.4L76.4,191.4z"/>
	<path style="clip-path:url(#SVGID_00000102510375256237459420000007816738316345954946_);fill:#67B54B;" d="M128.7,137.1
		c3.5,13.1,4.1,32.9-1.2,34.3s-14.8-16-18.3-29.1s1.6-17.3,5.6-18.3S125.2,124,128.7,137.1L128.7,137.1z"/>
	<path style="clip-path:url(#SVGID_00000102510375256237459420000007816738316345954946_);fill:#1A1A1A;" d="M108.8,150.2
		c1.7,4.7,3.9,9.2,6.4,13.6c1.6,2.8,3.5,5.3,5.7,7.6c2,1.9,4.4,3.6,7.3,2.8s4.2-3.4,4.9-6.1c0.8-3.1,1.1-6.2,1.1-9.4
		c0-5-0.4-10-1.2-15l-5.5,1.5c0.7,4.4,1.1,8.9,1.1,13.4c0,2.7-0.3,5.3-0.9,7.9c-0.2,0.8-0.5,1.5-1,2.1c-0.7-0.3-1.4-0.8-1.9-1.4
		c-1.8-1.9-3.4-4.1-4.7-6.4c-2.3-3.9-4.2-8-5.8-12.2L108.8,150.2z"/>
	<path style="clip-path:url(#SVGID_00000102510375256237459420000007816738316345954946_);fill:#1A1A1A;" d="M114,121.3
		c-3.3,0.9-6,3.1-7.4,6.2c-1.7,3.6-2,8.7-0.1,15.6c0.8,2.9,1.8,5.8,2.9,8.6l5.5-1.5c-1.1-2.8-2.1-5.7-2.9-8.6
		c-1.6-6.1-1.2-9.8-0.2-11.8c1.4-2.9,4.9-4.1,7.8-2.8c0.3,0.1,0.5,0.3,0.8,0.5c1.8,1.3,4,4.1,5.7,10.3c0.8,2.9,1.4,5.9,1.8,8.9
		l5.5-1.5c-0.4-3-1-6-1.8-8.9c-1.9-7-4.6-11.2-7.9-13.4C120.7,121,117.3,120.4,114,121.3z"/>
	<path style="clip-path:url(#SVGID_00000102510375256237459420000007816738316345954946_);fill:#1A1A1A;" d="M-6.1,217
		c-12.8,0-23.1-10.4-23.1-23.2V63.4c0-12.8,10.4-23.1,23.1-23.2H96.4c12.8,0,23.1,10.4,23.2,23.2v130.5c0,12.8-10.4,23.1-23.2,23.1
		H-6.1z M-6.1,208H96.4c7.7,0.1,14.1-6.1,14.1-13.9c0-0.1,0-0.2,0-0.3V63.4c0.1-7.7-6.1-14.1-13.9-14.1c-0.1,0-0.2,0-0.3,0H-6.1
		c-7.7-0.1-14.1,6.1-14.1,13.9c0,0.1,0,0.2,0,0.3v130.5c-0.1,7.7,6.1,14.1,13.9,14.1C-6.3,208-6.2,208-6.1,208z"/>
	<path style="clip-path:url(#SVGID_00000102510375256237459420000007816738316345954946_);fill:#88C05C;" d="M-6.1,212.5H96.4
		c10.3,0,18.6-8.3,18.6-18.6c0,0,0-0.1,0-0.1V63.4c0-10.3-8.3-18.6-18.5-18.6c0,0-0.1,0-0.1,0H-6.1c-10.3,0-18.6,8.3-18.6,18.6
		c0,0,0,0.1,0,0.1v130.5C-24.8,204.2-16.5,212.5-6.1,212.5C-6.2,212.5-6.1,212.5-6.1,212.5z"/>
	<path style="clip-path:url(#SVGID_00000102510375256237459420000007816738316345954946_);fill:#67B54B;" d="M-6.1,44.7
		c-10.3,0-18.6,8.3-18.6,18.6c0,0,0,0.1,0,0.1v14.9h139.8V63.4c0-10.3-8.3-18.6-18.5-18.6c0,0-0.1,0-0.1,0H-6.1z M-24.8,179v14.9
		c0,10.3,8.3,18.6,18.6,18.6c0,0,0,0,0.1,0H96.4c10.3,0,18.6-8.3,18.6-18.6c0,0,0-0.1,0-0.1V179H-24.8z"/>
	
		<rect x="-24.8" y="111.8" style="clip-path:url(#SVGID_00000102510375256237459420000007816738316345954946_);fill:#67B54B;" width="139.8" height="33.6"/>
	
		<rect x="-15.4" y="127.8" style="clip-path:url(#SVGID_00000102510375256237459420000007816738316345954946_);fill:#FFFFFF;" width="121.2" height="1.7"/>
	<path style="clip-path:url(#SVGID_00000102510375256237459420000007816738316345954946_);fill:#1A1A1A;" d="M-6.1,213.7
		c-10.9,0-19.8-8.8-19.8-19.7c0,0,0,0,0,0V63.4c0-10.9,8.8-19.8,19.7-19.8c0,0,0,0,0,0H96.4c10.9,0,19.8,8.8,19.8,19.7c0,0,0,0,0,0
		v130.5c0,10.9-8.8,19.8-19.7,19.8c0,0,0,0,0,0H-6.1z M-6.1,211.4H96.4c9.6,0,17.5-7.7,17.5-17.4c0-0.1,0-0.1,0-0.2V63.4
		c0-9.6-7.8-17.5-17.4-17.5c-0.1,0-0.1,0-0.2,0H-6.1c-9.6,0-17.5,7.8-17.5,17.4c0,0,0,0.1,0,0.1v130.5c0,9.6,7.7,17.5,17.4,17.5
		C-6.2,211.4-6.2,211.4-6.1,211.4L-6.1,211.4z"/>
	<path style="clip-path:url(#SVGID_00000102510375256237459420000007816738316345954946_);fill:#FFFFFF;" d="M-6.1,53.2
		c-5.6,0-10.2,4.5-10.2,10.2c0,0,0,0,0,0v130.5c0,5.6,4.5,10.2,10.1,10.2c0,0,0,0,0,0H96.4c5.6,0,10.2-4.6,10.2-10.2V63.4
		c0-5.6-4.6-10.2-10.2-10.2H-6.1z M-6.1,54.9H96.4c4.7,0,8.5,3.8,8.5,8.4c0,0,0,0,0,0.1v130.5c0,4.7-3.8,8.5-8.4,8.5c0,0,0,0-0.1,0
		H-6.1c-4.7,0-8.5-3.7-8.5-8.4c0,0,0,0,0-0.1V63.4C-14.6,58.7-10.8,54.9-6.1,54.9C-6.2,54.9-6.1,54.9-6.1,54.9z"/>
	<path style="clip-path:url(#SVGID_00000102510375256237459420000007816738316345954946_);fill:#FFFFFF;" d="M105.8,193
		c-5.6,0-10.2,4.6-10.2,10.2c0,0,0,0,0,0h1.7c0-4.7,3.8-8.5,8.5-8.5c0,0,0,0,0,0L105.8,193z"/>
	<path style="clip-path:url(#SVGID_00000102510375256237459420000007816738316345954946_);fill:#FFFFFF;" d="M95.6,54
		c0,5.6,4.6,10.2,10.2,10.2v-1.7c-4.7,0-8.5-3.8-8.5-8.4c0,0,0,0,0,0H95.6z"/>
	<path style="clip-path:url(#SVGID_00000102510375256237459420000007816738316345954946_);fill:#FFFFFF;" d="M45.2,109.1
		c-10.8,0-19.5,8.7-19.5,19.5s8.7,19.5,19.5,19.5s19.5-8.7,19.5-19.5l0,0C64.6,117.9,55.9,109.1,45.2,109.1z M45.2,110.8
		c9.8,0,17.8,8,17.8,17.8s-8,17.8-17.8,17.8s-17.8-8-17.8-17.8l0,0C27.4,118.8,35.3,110.8,45.2,110.8
		C45.2,110.8,45.2,110.8,45.2,110.8z"/>
	<path style="clip-path:url(#SVGID_00000102510375256237459420000007816738316345954946_);fill:#FFFFFF;" d="M16.4,174.4v29.7H74
		v-29.7H16.4z M18.1,176.1h54.2v26.3H18L18.1,176.1z"/>
	<path style="clip-path:url(#SVGID_00000102510375256237459420000007816738316345954946_);fill:#FFFFFF;" d="M45.2,165.1
		c-7,0-13.4,3.7-16.9,9.7l1.5,0.9c4.9-8.5,15.8-11.4,24.3-6.5c2.7,1.6,5,3.8,6.5,6.5l1.5-0.9C58.6,168.8,52.1,165.1,45.2,165.1z"/>
	<path style="clip-path:url(#SVGID_00000102510375256237459420000007816738316345954946_);fill:#FFFFFF;" d="M16.4,82.8V53.2H74
		v29.7H16.4z M18.1,81.2h54.2V54.9H18L18.1,81.2z"/>
	<path style="clip-path:url(#SVGID_00000102510375256237459420000007816738316345954946_);fill:#FFFFFF;" d="M29.8,81.6l-1.5,0.8
		c5.4,9.3,17.3,12.5,26.6,7.1c3-1.7,5.4-4.2,7.1-7.1l-1.5-0.8c-4.9,8.5-15.8,11.4-24.3,6.5C33.6,86.5,31.3,84.3,29.8,81.6z"/>
	<path style="clip-path:url(#SVGID_00000102510375256237459420000007816738316345954946_);fill:#FFFFFF;" d="M25.7,193v11h39v-11
		H25.7z M27.4,194.7H63v7.6H27.4V194.7z"/>
	<path style="clip-path:url(#SVGID_00000102510375256237459420000007816738316345954946_);fill:#FFFFFF;" d="M25.7,53.2v11h39v-11
		L25.7,53.2z M27.4,54.9H63v7.6H27.4V54.9z"/>
	<path style="clip-path:url(#SVGID_00000102510375256237459420000007816738316345954946_);fill:#1A1A1A;" d="M30.3,96.8l-20.7,8.6
		v4.5c0.2,6.4,5.5,11.5,12,11.3c6.2-0.2,11.1-5.1,11.3-11.3V104C32.8,101.4,31.9,98.8,30.3,96.8L30.3,96.8z"/>
	<path style="clip-path:url(#SVGID_00000102510375256237459420000007816738316345954946_);fill:#FFFFFF;" d="M24.2,105.4
		c-2.1,0-3.7,1.7-3.8,3.8c0,2.1,1.7,3.7,3.8,3.7c1,0,1.9-0.4,2.6-1.1c1.5-1.5,1.5-3.8,0-5.3C26.2,105.8,25.2,105.4,24.2,105.4z"/>
	<path style="clip-path:url(#SVGID_00000102510375256237459420000007816738316345954946_);fill:#1A1A1A;" d="M60,96.8
		c-1.6,2.1-2.5,4.6-2.5,7.2v5.8c0,6.4,5.2,11.6,11.6,11.6s11.6-5.2,11.6-11.6v-4.5L60,96.8z"/>
	<path style="clip-path:url(#SVGID_00000102510375256237459420000007816738316345954946_);fill:#FFFFFF;" d="M72.2,105.4
		c-2.1,0-3.8,1.7-3.8,3.8s1.7,3.8,3.8,3.8s3.8-1.7,3.8-3.8l0,0C75.9,107,74.2,105.4,72.2,105.4z"/>
	<path style="clip-path:url(#SVGID_00000102510375256237459420000007816738316345954946_);fill:#1A1A1A;" d="M34.2,132.5
		c0-6.1,4.9-11,11-11s11,4.9,11,11l0,0h-2.2c0-4.8-3.9-8.8-8.8-8.8s-8.8,3.9-8.8,8.8H34.2z"/>
	<path style="clip-path:url(#SVGID_00000102510375256237459420000007816738316345954946_);fill:#1A1A1A;" d="M36,13.5v8.9
		c8.6,0.6,16.8,0.7,25.6,1.3c10.9,0.8,17.5,4,21.3,7.9s5.3,8.7,5.3,14c0,9.2-4.9,15.4-13.5,19.5s-20.7,5.7-33.2,3.7
		c-1.9-0.3-3.7-0.7-5.6-1.1V77c1.4,0.3,2.8,0.6,4.2,0.8c14,2.2,27.8,0.7,38.5-4.5s18.5-15,18.5-27.7c0.1-7.6-2.7-14.9-8-20.3
		c-5.7-5.8-14.6-9.6-27-10.5C52.8,14.1,44.5,14,36,13.5z"/>
	<path style="clip-path:url(#SVGID_00000102510375256237459420000007816738316345954946_);fill:#1A1A1A;" d="M3.6,8.1l2.9,8L7.3,18
		c-8-1-15.8-2.7-23.5-5.1l-6.9-2.4l1,7.3c4.7,35.6,33.4,55.1,61,59.8v-9.2C16.7,64.1-5,49.7-11.6,23.6c8.3,2.5,16.9,3.9,25.6,3.9
		h6.4l-2.7-7.2c7,1.2,14,1.9,21.1,2.3v-9c-9.1-0.3-18.1-1.5-27-3.6L3.6,8.1z"/>
	<path style="clip-path:url(#SVGID_00000102510375256237459420000007816738316345954946_);fill:#595959;" d="M10.8,14.5L14,23
		c-14.6,0.1-31.6-5.9-31.6-5.9c9,68.1,110.4,72.2,110.4,28.4c0-12.3-7.5-24.6-30.8-26.3C44.3,18,29.7,19.1,10.8,14.5z"/>
	<path style="clip-path:url(#SVGID_00000102510375256237459420000007816738316345954946_);fill:#797979;" d="M10.8,14.5L14,23
		c-14.6,0.1-31.6-5.9-31.6-5.9C6,48,75.6,51.9,87.9,30.5c-4.6-5.9-12.7-10.3-26-11.3C44.3,18,29.7,19.1,10.8,14.5z"/>
	<path style="clip-path:url(#SVGID_00000102510375256237459420000007816738316345954946_);fill:#3E3E3E;" d="M-17.7,17.1
		c9,68.1,110.4,72.2,110.4,28.4c0-2-0.2-4-0.6-6C75.9,78.8-5.8,61.5-17.7,17.1z"/>
	<path style="clip-path:url(#SVGID_00000102510375256237459420000007816738316345954946_);fill:#1A1A1A;" d="M36,16.9v2.2
		c8.5,0.5,16.8,0.6,25.8,1.3c11.5,0.9,18.9,4.3,23.5,8.9c4.2,4.4,6.5,10.3,6.3,16.3c0,10.5-6,18-15.4,22.6s-22.1,6-35.2,4
		c-1.7-0.3-3.4-0.6-5.1-1v2.3c1.6,0.3,3.2,0.6,4.7,0.9c13.4,2.1,26.6,0.6,36.5-4.2S93.9,57,93.9,45.6c0.2-6.7-2.4-13.1-7-17.9
		c-5-5.1-13-8.6-24.9-9.5C52.8,17.4,44.5,17.4,36,16.9L36,16.9z"/>
	<path style="clip-path:url(#SVGID_00000102510375256237459420000007816738316345954946_);fill:#1A1A1A;" d="M9,12.9l0.7,2l2.6,6.9
		c-13.9-0.4-29.6-5.7-29.6-5.7l-1.7-0.6l0.2,1.8c4.4,33.8,31.4,52.1,57.6,56.8v-2.3c-25-4.6-50.2-21.7-55.1-53.1
		c2.6,0.9,16.6,5.5,30.3,5.5h1.6L12.6,16c8.7,1.9,17.5,3,26.3,3.3v-2.2c-9.4-0.3-18.7-1.5-27.9-3.7L9,12.9z"/>
	<g style="clip-path:url(#SVGID_00000102510375256237459420000007816738316345954946_);enable-background:new    ;">
		<text transform="matrix(1 0 0 1 56.29 270.76)" class="st9 st10 st11">mistrzami</text>
	</g>
	<g style="clip-path:url(#SVGID_00000102510375256237459420000007816738316345954946_);enable-background:new    ;">
		<text transform="matrix(1 0 0 1 87.23 244.42)" class="st9 st10 st11">nie byli</text>
	</g>
	<path style="clip-path:url(#SVGID_00000102510375256237459420000007816738316345954946_);fill:#EB5A53;" d="M150.6,0h29h16v16
		c0,7,0,14,0,21c-10.2,12.4-28.6,14.2-41,4S140.4,12.4,150.6,0z"/>
	<g style="clip-path:url(#SVGID_00000102510375256237459420000007816738316345954946_);enable-background:new    ;">
		<text transform="matrix(1 0 0 1 159.7 31.75)" class="st12 st10 st13">06</text>
	</g>
</g>
</svg>
