<svg id="Слой_1" data-name="Слой 1" xmlns="http://www.w3.org/2000/svg" viewBox="0 0 195.59 280.63"><defs><style>.cls-1{font-size:34.54px;}.cls-1,.cls-17{fill:#eb5a53;}.cls-1,.cls-18{font-family:Impact;}.cls-2{fill:#1a1a1a;}.cls-3{fill:#ccc;}.cls-4{fill:#e5d8aa;}.cls-5{fill:#d2b77f;}.cls-6{fill:#49838f;}.cls-7{fill:#f7c971;}.cls-8{fill:#ffe6a6;}.cls-9{fill:#db9c5f;}.cls-10{fill:#595959;}.cls-11{fill:#444;}.cls-12{fill:#818181;}.cls-13{fill:#a8a8a8;}.cls-14{fill:#d6d6d6;}.cls-15{fill:#ee723a;}.cls-16{fill:#dc4a24;}.cls-18{font-size:20px;fill:#fff;}</style></defs><text class="cls-1" transform="translate(38.07 72.07)">nie byli na<tspan x="20.53" y="33.53">Księżycu</tspan></text><path class="cls-2" d="M168.08,199.08a34.46,34.46,0,1,0,34.46,34.46,34.53,34.53,0,0,0-34.46-34.46Zm0,9.56a24.9,24.9,0,1,1-24.89,24.9,24.83,24.83,0,0,1,24.89-24.9Zm0,0"/><path class="cls-2" d="M168.08,194.32a39.22,39.22,0,0,0-27.73,11.48L137,209.18l13.18,13.18,3.38-3.38A20.6,20.6,0,0,1,168,213h.06a20.57,20.57,0,0,1,17.83,10.3l2.39,4.13,16.14-9.31-2.39-4.14a39.23,39.23,0,0,0-34-19.61Zm0,0"/><path class="cls-2" d="M127.24,162.55a8.12,8.12,0,0,0-7.38,6.94h0l-7.42,56.31a4.78,4.78,0,0,0,7.48,4.54,4.81,4.81,0,0,0,3,1.67,4.74,4.74,0,0,0,3.54-.95,4.82,4.82,0,0,0,1.83-3.16l7.41-56.32a8.1,8.1,0,0,0-6.9-9,7.79,7.79,0,0,0-1.6,0Zm0,0"/><path class="cls-2" d="M38.18,218.28a4.78,4.78,0,0,0-4.78,4.78v6.88a4.78,4.78,0,0,0,4.78,4.78H158.32a4.78,4.78,0,0,0,4.78-4.78v-6.88a4.78,4.78,0,0,0-4.78-4.78Zm0,0"/><rect class="cls-3" x="24.57" y="171.06" width="7.39" height="33.04"/><rect class="cls-2" x="19.79" y="166.28" width="16.95" height="42.6"/><path class="cls-2" d="M50.71,103.42a4.79,4.79,0,0,0-4.28,2.66A15.67,15.67,0,0,1,27.31,114a4.78,4.78,0,0,0-5.84,2.42,15.65,15.65,0,0,1-19.13,7.92,4.78,4.78,0,0,0-5.84,2.42,15.69,15.69,0,0,1-8.08,7.58,15.73,15.73,0,0,1-11,.37,4.77,4.77,0,0,0-5.69,2.17,4.77,4.77,0,0,0,1.06,6,50.26,50.26,0,0,0,82.71-34.26A4.74,4.74,0,0,0,54.23,105a4.79,4.79,0,0,0-3.51-1.54Zm-8.8,19.08A40.47,40.47,0,0,1,21,142.2a40.42,40.42,0,0,1-28.75.88,25.18,25.18,0,0,0,10.85-8.76,25.11,25.11,0,0,0,14-1.52A25.31,25.31,0,0,0,28,124a25.21,25.21,0,0,0,13.88-1.48Zm0,0"/><path class="cls-2" d="M22.79,137.45A9.17,9.17,0,1,0,32,146.62a9.24,9.24,0,0,0-9.16-9.17Zm0,8.77a.4.4,0,1,1-.4.4.5.5,0,0,1,.4-.4Zm0,0"/><path class="cls-2" d="M86,199.24a9,9,0,0,0-8.93,8.93v14.89a4.78,4.78,0,0,0,4.78,4.78h37.6a4.78,4.78,0,0,0,4.78-4.78V208.17a9,9,0,0,0-8.93-8.93Zm.63,9.56h28v9.48h-28Zm0,0"/><rect class="cls-2" x="159.69" y="166.28" width="16.95" height="42.6"/><path class="cls-2" d="M86.48,175.07a4.78,4.78,0,0,0-4.78,4.78v5.28a10.14,10.14,0,0,0,10.06,10.06h2.69a10.14,10.14,0,0,0,10.07-10.06v-5.28a4.78,4.78,0,0,0-4.78-4.78Zm4.78,9.56H95v.5c0,.36-.14.51-.51.51H91.76c-.36,0-.5-.15-.5-.51Zm0,0"/><path class="cls-2" d="M87,170.26a7.19,7.19,0,1,0,0,14.37H99.19a7.19,7.19,0,0,0,0-14.37Zm0,0"/><rect class="cls-2" x="85.54" y="158.49" width="15.14" height="21.33"/><path class="cls-2" d="M28.26,199.08a34.46,34.46,0,1,0,34.46,34.46,34.53,34.53,0,0,0-34.46-34.46Zm0,9.56a24.9,24.9,0,1,1-24.89,24.9,24.83,24.83,0,0,1,24.89-24.9Zm0,0"/><path class="cls-2" d="M28.26,194.32A39.22,39.22,0,0,0,.53,205.8l-3.38,3.38,13.18,13.18L13.71,219a20.6,20.6,0,0,1,14.49-6h.06a20.57,20.57,0,0,1,17.83,10.3l2.39,4.14,16.14-9.32-2.39-4.14a39.23,39.23,0,0,0-34-19.61Zm0,0"/><path class="cls-2" d="M7.66,107.07a2.84,2.84,0,0,0-1.15.22,3,3,0,0,0-1.62,1.62,2.91,2.91,0,0,0,0,2.28l7.56,18.34A3,3,0,0,0,18,127.25l-7.57-18.34a3,3,0,0,0-2.75-1.84Zm0,0"/><path class="cls-2" d="M73.91,126.85a3,3,0,0,0-2.11.88,2.94,2.94,0,0,0-.87,2.11v53.47a6.78,6.78,0,0,0,2.77,5.15l5.64,4.33a3,3,0,0,0,1.82.61h3.25V204a3,3,0,1,0,6,0V190.41a3,3,0,0,0-3-3H82.17l-4.83-3.71h0c-.56-.43-.44-.22-.44-.41V129.84a3,3,0,0,0-3-3Zm0,0"/><path class="cls-2" d="M22.78,143.63a3,3,0,0,0-3,3v68.26a3,3,0,0,0,6,0V146.62a3,3,0,0,0-3-3Zm0,0"/><path class="cls-2" d="M168.16,156a3,3,0,0,0-3,3v12.07a3,3,0,0,0,6,0V159a3,3,0,0,0-3-3Zm0,0"/><path class="cls-2" d="M162.4,137.1a7,7,0,0,0-7,7V162h25.52V144.1a7.06,7.06,0,0,0-7-7Zm0,6h11.51a1,1,0,0,1,1,1V156H161.37V144.1a1,1,0,0,1,1-1Zm0,0"/><path class="cls-4" d="M86.48,179.85H99.74v5.28a5.27,5.27,0,0,1-5.29,5.28H91.76a5.26,5.26,0,0,1-5.28-5.28Zm0,0"/><path class="cls-5" d="M86.48,181.17v4a5.26,5.26,0,0,0,5.28,5.28h2.69a5.27,5.27,0,0,0,5.29-5.28v-4a5.28,5.28,0,0,1-5.29,5.28H91.76a5.27,5.27,0,0,1-5.28-5.28Zm0,0"/><path class="cls-6" d="M87,175H99.19a2.41,2.41,0,0,1,0,4.81H87A2.41,2.41,0,1,1,87,175Zm0,0"/><rect class="cls-4" x="90.32" y="163.27" width="5.58" height="11.77"/><path class="cls-6" d="M123.59,227.27,131,171a3.23,3.23,0,1,0-6.4-.85l-7.42,56.32Zm0,0"/><path class="cls-2" d="M127.48,166.12a4.46,4.46,0,0,0-4.07,3.84L116,226.27a1.18,1.18,0,0,0,1,1.34,1.2,1.2,0,0,0,.88-.23,1.22,1.22,0,0,0,.46-.8l7.41-56.31a2,2,0,0,1,4,.53l-7.42,56.32a1.21,1.21,0,0,0,1,1.34,1.24,1.24,0,0,0,.89-.24,1.18,1.18,0,0,0,.45-.79l7.42-56.32a4.44,4.44,0,0,0-3.81-5,4.54,4.54,0,0,0-.9,0Zm0,0"/><path class="cls-4" d="M86,204h29.3a4.14,4.14,0,0,1,4.15,4.15v14.89H81.85V208.17A4.14,4.14,0,0,1,86,204Zm0,0"/><rect class="cls-5" x="81.85" y="218.17" width="37.6" height="4.89"/><rect class="cls-5" x="38.18" y="223.06" width="120.14" height="6.88"/><rect class="cls-4" x="24.57" y="171.06" width="7.39" height="33.04"/><path class="cls-5" d="M28.26,190.1c-1.23,0-2.46.05-3.69.16V204.1H32V190.26c-1.23-.11-2.47-.16-3.7-.16Zm0,0"/><path class="cls-2" d="M23.37,169.87V205.3h9.78V169.87Zm2.39,2.39h5v30.65h-5Zm0,0"/><rect class="cls-4" x="164.47" y="171.06" width="7.39" height="33.04"/><path class="cls-5" d="M168.08,190.1c-1.2,0-2.41.05-3.62.15V204.1h7.39V190.27c-1.25-.11-2.51-.17-3.77-.17Zm0,0"/><path class="cls-2" d="M163.27,169.87V205.3h9.78V169.87Zm2.39,2.39h5v30.65h-5Zm0,0"/><path class="cls-2" d="M38.18,221.86a1.21,1.21,0,0,0-1.2,1.2v6.88a1.19,1.19,0,0,0,1.2,1.19H158.32a1.19,1.19,0,0,0,1.2-1.19v-6.88a1.21,1.21,0,0,0-1.2-1.2Zm1.19,2.4H157.13v4.48H39.37Zm0,0"/><path class="cls-2" d="M86,202.83a5.35,5.35,0,0,0-5.34,5.34v14.89a1.19,1.19,0,0,0,1.19,1.2h37.6a1.19,1.19,0,0,0,1.19-1.2V208.17a5.35,5.35,0,0,0-5.34-5.34Zm0,2.39h29.3a2.91,2.91,0,0,1,3,2.95v13.7H83.05v-13.7a2.91,2.91,0,0,1,3-2.95Zm0,0"/><path class="cls-2" d="M81.85,209a1.2,1.2,0,0,0,0,2.39h37.6a1.2,1.2,0,0,0,0-2.39Zm0,0"/><path class="cls-2" d="M86.48,178.66a1.19,1.19,0,0,0-1.2,1.19v5.28a6.49,6.49,0,0,0,6.48,6.48h2.69a6.49,6.49,0,0,0,6.48-6.48v-5.28a1.19,1.19,0,0,0-1.19-1.19Zm1.19,2.39H98.54v4.08a4.05,4.05,0,0,1-4.09,4.09H91.76a4.06,4.06,0,0,1-4.09-4.09Zm0,0"/><path class="cls-2" d="M87,173.85a3.6,3.6,0,1,0,0,7.2H99.19a3.6,3.6,0,0,0,0-7.2Zm0,2.39H99.19a1.21,1.21,0,1,1,0,2.42H87a1.21,1.21,0,1,1,0-2.42Zm0,0"/><path class="cls-2" d="M89.12,162.08v14.16h8V162.08Zm2.39,2.39H94.7v9.38H91.51Zm0,0"/><path class="cls-4" d="M54.88,150.24v16.51l8.59,5h8.59V150.24Zm0,0"/><path class="cls-2" d="M50.11,145.46v24l12.08,7H76.84v-31ZM59.66,155h7.62v11.91H64.75L59.66,164Zm0,0"/><path class="cls-4" d="M54.88,150.24v16.51l8.59,5h8.59V150.24Zm0,0"/><path class="cls-5" d="M54.88,159.86v6.89l8.59,5h8.59v-9.59Zm0,0"/><path class="cls-2" d="M53.69,149.05v18.39l9.46,5.46h10.1V149.05Zm2.39,2.39H70.86v19.07H63.79l-7.71-4.45Zm0,0"/><rect class="cls-6" x="60.78" y="150.24" width="5.39" height="8.08"/><path class="cls-2" d="M59.58,149.05v10.47h7.78V149.05ZM62,151.44h3v5.69H62Zm0,0"/><path class="cls-7" d="M.79,128.83a20.41,20.41,0,0,1-10.54,9.9,20.42,20.42,0,0,1-14.42.44,45.47,45.47,0,0,0,74.89-31,20.43,20.43,0,0,1-25,10.34,20.41,20.41,0,0,1-25,10.34Zm0,0"/><path class="cls-8" d="M.79,128.83a20.41,20.41,0,0,1-10.54,9.9,20.42,20.42,0,0,1-14.42.44,45.45,45.45,0,0,0,47,7.45C13.12,144,6,136.37.82,128.84Zm0,0"/><path class="cls-9" d="M50.72,108.15a20.43,20.43,0,0,1-25,10.34c1.7,9,2,19.47-3,28.13a45.46,45.46,0,0,0,27.93-38.47Zm0,0"/><path class="cls-2" d="M1.81,128.17l-2,1.34c5.2,7.65,12.55,15.56,22.63,18.27l.62-2.31c-9.23-2.48-16.24-9.89-21.28-17.3Zm0,0"/><path class="cls-2" d="M26.93,118.27l-2.35.44c1.68,8.81,2,19-2.82,27.31l2.07,1.19c5.21-9,4.83-19.85,3.1-28.94Zm0,0"/><path class="cls-2" d="M50.7,107a1.2,1.2,0,0,0-1.05.67,19.36,19.36,0,0,1-9.93,9.27,19.12,19.12,0,0,1-13.57.42,1.2,1.2,0,0,0-1.46.61A19.24,19.24,0,0,1,1.18,127.7a1.2,1.2,0,0,0-1.46.61,19.24,19.24,0,0,1-9.93,9.31,19.21,19.21,0,0,1-13.54.45,1.21,1.21,0,0,0-1.42.54,1.18,1.18,0,0,0,.26,1.5,46.68,46.68,0,0,0,76.82-31.82,1.18,1.18,0,0,0-.32-.91,1.21,1.21,0,0,0-.89-.38Zm-1.91,6.23a44.17,44.17,0,0,1-26.46,32.28,44.19,44.19,0,0,1-41.54-4.11,21.72,21.72,0,0,0,9.92-1.57,21.62,21.62,0,0,0,10.67-9.58,21.52,21.52,0,0,0,25-10.34,21.53,21.53,0,0,0,22.45-6.68Zm0,0"/><path class="cls-6" d="M27.17,146.62a4.38,4.38,0,1,1-4.38-4.39,4.38,4.38,0,0,1,4.38,4.39Zm0,0"/><path class="cls-2" d="M22.79,141a5.58,5.58,0,1,0,5.58,5.58A5.6,5.6,0,0,0,22.79,141Zm0,2.39a3.19,3.19,0,1,1-3.19,3.19,3.17,3.17,0,0,1,3.19-3.19Zm0,0"/><path class="cls-10" d="M57.94,233.54a29.68,29.68,0,1,1-29.68-29.68,29.67,29.67,0,0,1,29.68,29.68Zm0,0"/><path class="cls-11" d="M47.24,233.54a19,19,0,1,1-19-19,19,19,0,0,1,19,19Zm0,0"/><path class="cls-12" d="M28.26,207.19a26.35,26.35,0,0,0,0,52.7,1,1,0,1,0,0-2,24.39,24.39,0,1,1,0-48.78,1,1,0,0,0,1-1,1,1,0,0,0-1-1Zm0,0"/><path class="cls-2" d="M28.26,202.67a30.87,30.87,0,1,0,30.87,30.87,30.89,30.89,0,0,0-30.87-30.87Zm0,2.39A28.48,28.48,0,1,1-.22,233.54a28.45,28.45,0,0,1,28.48-28.48Zm0,0"/><path class="cls-13" d="M43.38,233.54A15.12,15.12,0,1,1,39,222.85a15.11,15.11,0,0,1,4.43,10.69Zm0,0"/><path class="cls-14" d="M39.44,233.54a11.18,11.18,0,1,1-11.18-11.18,11.18,11.18,0,0,1,11.18,11.18Zm0,0"/><path class="cls-13" d="M32.18,233.54a3.92,3.92,0,1,1-3.92-3.92,3.92,3.92,0,0,1,3.92,3.92Zm0,0"/><path class="cls-15" d="M3.91,209.18l6.42,6.42a25.36,25.36,0,0,1,39.9,5.26l7.86-4.54a34.45,34.45,0,0,0-54.18-7.14Zm0,0"/><path class="cls-16" d="M37.65,200.41a52.83,52.83,0,0,0-10.85,7.81c.47,0,.95-.05,1.42-.05a25.37,25.37,0,0,1,22,12.69l7.86-4.54a34.41,34.41,0,0,0-20.44-15.91Zm0,0"/><path class="cls-2" d="M28.26,197.9a35.67,35.67,0,0,0-25.2,10.44l-.84.84.84.85,7.27,7.26.84-.84a24.17,24.17,0,0,1,38,5l.6,1,9.93-5.74-.6-1A35.64,35.64,0,0,0,28.26,197.9Zm0,2.39A33.23,33.23,0,0,1,56.42,215.9l-5.79,3.34A26.5,26.5,0,0,0,10.37,214l-4.73-4.72a33.2,33.2,0,0,1,22.62-8.94Zm0,0"/><path class="cls-2" d="M28.26,217.22a16.32,16.32,0,1,0,16.32,16.32,16.33,16.33,0,0,0-16.32-16.32Zm0,2.4a13.92,13.92,0,1,1-13.92,13.92,13.9,13.9,0,0,1,13.92-13.92Zm0,0"/><path class="cls-2" d="M28.26,228.42a5.12,5.12,0,1,0,5.12,5.12,5.13,5.13,0,0,0-5.12-5.12Zm0,2.39a2.73,2.73,0,1,1-2.72,2.73,2.71,2.71,0,0,1,2.72-2.73Zm0,0"/><path class="cls-2" d="M89.66,216.63a1.47,1.47,0,0,1-.45,1.07,1.49,1.49,0,0,1-1.07.45,1.52,1.52,0,0,1,0-3,1.49,1.49,0,0,1,1.07.45,1.47,1.47,0,0,1,.45,1.06Zm0,0"/><path class="cls-2" d="M114.67,216.63a1.52,1.52,0,1,1-3,0,1.52,1.52,0,0,1,1.51-1.51,1.52,1.52,0,0,1,1.52,1.51Zm0,0"/><path class="cls-2" d="M69,166.53A1.5,1.5,0,0,1,67.45,168a1.5,1.5,0,0,1-1.51-1.51,1.54,1.54,0,0,1,.44-1.07A1.51,1.51,0,0,1,69,166.53Zm0,0"/><path class="cls-2" d="M61,163.31a1.5,1.5,0,0,1-1.51,1.51,1.51,1.51,0,0,1,0-3,1.52,1.52,0,0,1,1.07.44,1.54,1.54,0,0,1,.44,1.07Zm0,0"/><path class="cls-10" d="M197.76,233.54a29.68,29.68,0,1,1-29.68-29.68,29.67,29.67,0,0,1,29.68,29.68Zm0,0"/><path class="cls-11" d="M187.06,233.54a19,19,0,1,1-19-19,19,19,0,0,1,19,19Zm0,0"/><path class="cls-12" d="M168.08,207.18a26.36,26.36,0,0,0,0,52.71,1,1,0,1,0,0-2,24.39,24.39,0,1,1,0-48.78,1,1,0,0,0,1-1,1,1,0,0,0-1-1Zm0,0"/><path class="cls-2" d="M168.08,202.67A30.87,30.87,0,1,0,199,233.54a30.89,30.89,0,0,0-30.87-30.87Zm0,2.39a28.48,28.48,0,1,1-28.48,28.48,28.45,28.45,0,0,1,28.48-28.48Zm0,0"/><path class="cls-13" d="M183.2,233.54a15.12,15.12,0,1,1-15.12-15.12,15.12,15.12,0,0,1,15.12,15.12Zm0,0"/><path class="cls-14" d="M179.26,233.54a11.18,11.18,0,1,1-11.18-11.18,11.18,11.18,0,0,1,11.18,11.18Zm0,0"/><path class="cls-13" d="M172,233.54a3.92,3.92,0,1,1-3.92-3.92,3.92,3.92,0,0,1,3.92,3.92Zm0,0"/><path class="cls-15" d="M143.73,209.18l6.42,6.42a25.36,25.36,0,0,1,39.9,5.26l7.86-4.54a34.45,34.45,0,0,0-54.18-7.14Zm0,0"/><path class="cls-16" d="M177.47,200.41a52.83,52.83,0,0,0-10.85,7.81c.47,0,.95-.05,1.43-.05a25.37,25.37,0,0,1,22,12.69l7.86-4.54a34.41,34.41,0,0,0-20.44-15.91Zm0,0"/><path class="cls-2" d="M168.08,197.9a35.67,35.67,0,0,0-25.2,10.44l-.84.84,8.11,8.11.84-.84a24.17,24.17,0,0,1,38,5l.6,1,9.93-5.74-.6-1a35.64,35.64,0,0,0-30.86-17.82Zm0,2.39a33.23,33.23,0,0,1,28.16,15.61l-5.79,3.34A26.5,26.5,0,0,0,150.19,214l-4.73-4.72a33.2,33.2,0,0,1,22.62-8.94Zm0,0"/><path class="cls-2" d="M168.08,217.22a16.32,16.32,0,1,0,16.32,16.32,16.33,16.33,0,0,0-16.32-16.32Zm0,2.4a13.92,13.92,0,1,1-13.92,13.92,13.9,13.9,0,0,1,13.92-13.92Zm0,0"/><path class="cls-2" d="M168.08,228.42a5.12,5.12,0,1,0,5.12,5.12,5.13,5.13,0,0,0-5.12-5.12Zm0,2.39a2.73,2.73,0,1,1-2.72,2.73,2.71,2.71,0,0,1,2.72-2.73Zm0,0"/><path class="cls-17" d="M45,0,16,0H0L0,16c0,7,0,14,0,21A29.11,29.11,0,0,0,51.47,18.3,28.92,28.92,0,0,0,45,0Z"/><text class="cls-18" transform="translate(15.57 31.75)">04</text></svg>