<?xml version="1.0" encoding="utf-8"?>
<!-- Generator: Adobe Illustrator 26.0.3, SVG Export Plug-In . SVG Version: 6.00 Build 0)  -->
<svg version="1.1" id="Слой_1" xmlns="http://www.w3.org/2000/svg" xmlns:xlink="http://www.w3.org/1999/xlink" x="0px" y="0px"
	 viewBox="0 0 195.6 280.6" style="enable-background:new 0 0 195.6 280.6;" xml:space="preserve">
<style type="text/css">
	.st0{clip-path:url(#SVGID_00000114781290686123768750000001673286146197914293_);fill:#91D1DD;}
	.st1{clip-path:url(#SVGID_00000114781290686123768750000001673286146197914293_);fill:#EB5A53;}
	.st2{clip-path:url(#SVGID_00000114781290686123768750000001673286146197914293_);fill:#1A1A1A;}
	.st3{clip-path:url(#SVGID_00000114781290686123768750000001673286146197914293_);fill:#FFFFFF;}
	.st4{clip-path:url(#SVGID_00000114781290686123768750000001673286146197914293_);fill:#EE6F4D;}
	.st5{clip-path:url(#SVGID_00000114781290686123768750000001673286146197914293_);fill:#FABE7D;}
	.st6{clip-path:url(#SVGID_00000114781290686123768750000001673286146197914293_);fill:#44B1E6;}
	.st7{clip-path:url(#SVGID_00000114781290686123768750000001673286146197914293_);fill:#EA4F3D;}
	.st8{clip-path:url(#SVGID_00000114781290686123768750000001673286146197914293_);fill:#DF1F1D;}
	.st9{clip-path:url(#SVGID_00000114781290686123768750000001673286146197914293_);fill:#F39673;}
	.st10{clip-path:url(#SVGID_00000114781290686123768750000001673286146197914293_);fill:#298BCC;}
	.st11{clip-path:url(#SVGID_00000114781290686123768750000001673286146197914293_);fill:#4EB9EB;}
	.st12{clip-path:url(#SVGID_00000114781290686123768750000001673286146197914293_);fill:#026196;}
	.st13{clip-path:url(#SVGID_00000114781290686123768750000001673286146197914293_);fill:#BDBDBD;}
	.st14{clip-path:url(#SVGID_00000114781290686123768750000001673286146197914293_);fill:#9C9C9C;}
	.st15{clip-path:url(#SVGID_00000114781290686123768750000001673286146197914293_);fill:#A3DAF4;}
	.st16{clip-path:url(#SVGID_00000114781290686123768750000001673286146197914293_);fill:#EAB170;}
	.st17{clip-path:url(#SVGID_00000114781290686123768750000001673286146197914293_);fill:#BADBE9;}
	.st18{clip-path:url(#SVGID_00000114781290686123768750000001673286146197914293_);fill:#C0E4EF;}
	.st19{clip-path:url(#SVGID_00000114781290686123768750000001673286146197914293_);enable-background:new    ;}
	.st20{fill:#FFFFFF;}
	.st21{font-family:'Impact';}
	.st22{font-size:32.38px;}
	.st23{font-size:20px;}
</style>
<g>
	<defs>
		<rect id="SVGID_1_" x="0.2" y="0" width="195.6" height="280.6"/>
	</defs>
	<clipPath id="SVGID_00000075124378295314564100000007901853473470085010_">
		<use xlink:href="#SVGID_1_"  style="overflow:visible;"/>
	</clipPath>
	
		<rect x="-280" y="-16" style="clip-path:url(#SVGID_00000075124378295314564100000007901853473470085010_);fill:#91D1DD;" width="488.9" height="302.6"/>
	<path style="clip-path:url(#SVGID_00000075124378295314564100000007901853473470085010_);fill:#EB5A53;" d="M120.8,111.4
		c4.8,8.2,8.8,21.5,5.4,23.5s-12.9-8.2-17.6-16.4s-2.1-12,0.4-13.4S116.1,103.2,120.8,111.4z"/>
	<path style="clip-path:url(#SVGID_00000075124378295314564100000007901853473470085010_);fill:#EB5A53;" d="M152.7,60.8
		c7.5,5.8,16.3,16.5,13.9,19.6s-15-2.6-22.6-8.4s-6.5-10.3-4.7-12.6S145.2,55,152.7,60.8z"/>
	<path style="clip-path:url(#SVGID_00000075124378295314564100000007901853473470085010_);fill:#EB5A53;" d="M47.7,74.8
		c-9.5,0-23-3.2-23-7.1s13.5-7.1,23-7.1s11.4,4.2,11.4,7.1S57.2,74.8,47.7,74.8z"/>
	<path style="clip-path:url(#SVGID_00000075124378295314564100000007901853473470085010_);fill:#1A1A1A;" d="M42.4,58.9
		c-3.5,0.3-7,1-10.4,1.9c-2.2,0.5-4.2,1.4-6.2,2.5c-1.7,1-3.2,2.3-3.2,4.5s1.6,3.5,3.2,4.4c1.9,1.1,4,1.9,6.2,2.5
		c3.4,0.9,6.9,1.6,10.4,1.9v-4c-3.1-0.3-6.2-0.9-9.3-1.7c-1.8-0.5-3.6-1.2-5.2-2.1c-0.5-0.3-0.9-0.6-1.3-1.1
		c0.4-0.4,0.8-0.8,1.3-1.1c1.7-0.9,3.4-1.5,5.2-2c3-0.8,6.2-1.4,9.3-1.7V58.9z"/>
	<path style="clip-path:url(#SVGID_00000075124378295314564100000007901853473470085010_);fill:#1A1A1A;" d="M61,67.7
		c0-2.4-1-4.6-2.8-6.1c-2.1-1.8-5.5-2.9-10.5-2.9c-2.1,0-4.3,0.1-6.4,0.4v4c2.1-0.3,4.2-0.4,6.4-0.4c4.5,0,6.8,1,8,2
		c1.7,1.5,1.9,4,0.5,5.8c-0.1,0.2-0.3,0.3-0.5,0.5c-1.2,1-3.5,2-8,2c-2.1,0-4.3-0.2-6.4-0.4v4c2.1,0.2,4.2,0.4,6.4,0.4
		c5,0,8.4-1.1,10.5-2.9C60,72.3,61.1,70.1,61,67.7L61,67.7z"/>
	<path style="clip-path:url(#SVGID_00000075124378295314564100000007901853473470085010_);fill:#1A1A1A;" d="M137.8,58.3
		c-1.4,1.9-2,4.3-1.5,6.6c0.6,2.8,2.6,5.7,6.6,8.7c1.7,1.3,3.5,2.5,5.3,3.6l2.4-3.2c-1.8-1.1-3.6-2.3-5.3-3.6
		c-3.5-2.7-4.8-4.9-5.1-6.4c-0.5-2.2,0.9-4.4,3.1-4.9c0.2,0,0.4-0.1,0.7-0.1c1.6-0.1,4,0.6,7.6,3.3c1.7,1.3,3.3,2.7,4.8,4.2l2.4-3.2
		c-1.5-1.5-3.1-2.9-4.8-4.2c-4-3.1-7.3-4.2-10.1-4.1C141.4,55.2,139.2,56.4,137.8,58.3L137.8,58.3z"/>
	<path style="clip-path:url(#SVGID_00000075124378295314564100000007901853473470085010_);fill:#1A1A1A;" d="M147.2,76.6
		c3,1.9,6.1,3.5,9.4,4.8c2,0.9,4.2,1.5,6.4,1.8c1.9,0.2,4,0.1,5.3-1.6s0.9-3.7,0.1-5.5c-0.9-2-2-4-3.4-5.7c-2.1-2.8-4.5-5.4-7.1-7.8
		l-2.4,3.2c2.3,2.2,4.4,4.5,6.3,7c1.2,1.5,2.1,3.1,2.9,4.8c0.2,0.5,0.3,1.1,0.4,1.6c-0.5,0.1-1.1,0.2-1.6,0.1
		c-1.8-0.3-3.7-0.8-5.4-1.5c-2.9-1.2-5.7-2.6-8.4-4.3L147.2,76.6z"/>
	<path style="clip-path:url(#SVGID_00000075124378295314564100000007901853473470085010_);fill:#1A1A1A;" d="M108,103.4
		c-2.1,1.2-3.5,3.2-3.9,5.5c-0.5,2.8,0.2,6.2,2.7,10.6c1.1,1.8,2.2,3.6,3.5,5.3l3.4-2c-1.3-1.7-2.5-3.5-3.6-5.3
		c-2.2-3.9-2.6-6.4-2.3-7.9c0.4-2.2,2.5-3.7,4.8-3.3c0.2,0,0.4,0.1,0.6,0.2c1.4,0.5,3.5,2.1,5.7,5.9c1.1,1.8,2,3.8,2.8,5.7l3.4-2
		c-0.8-2-1.8-3.9-2.8-5.7c-2.5-4.4-5.2-6.7-7.8-7.7C112.5,102,110,102.2,108,103.4L108,103.4z"/>
	<path style="clip-path:url(#SVGID_00000075124378295314564100000007901853473470085010_);fill:#1A1A1A;" d="M109.7,123.9
		c2,2.9,4.3,5.5,6.8,8c1.6,1.6,3.3,3,5.2,4.1c1.7,0.9,3.6,1.6,5.5,0.6s2.2-3.1,2.2-5c0-2.2-0.4-4.4-0.9-6.6
		c-0.9-3.4-2.1-6.7-3.6-9.9l-3.4,2c1.3,2.9,2.4,5.9,3.2,8.9c0.5,1.8,0.8,3.7,0.8,5.5c0,0.6-0.1,1.1-0.3,1.6
		c-0.5-0.1-1.1-0.3-1.6-0.6c-1.6-1-3.1-2.2-4.4-3.5c-2.2-2.2-4.3-4.6-6.1-7.2L109.7,123.9z"/>
	<path style="clip-path:url(#SVGID_00000075124378295314564100000007901853473470085010_);fill:#EB5A53;" d="M85,111.4
		c4.8,8.2,8.8,21.5,5.4,23.5s-12.9-8.2-17.6-16.4s-2.1-12,0.4-13.4S80.2,103.2,85,111.4z"/>
	<path style="clip-path:url(#SVGID_00000075124378295314564100000007901853473470085010_);fill:#1A1A1A;" d="M73.9,123.9
		c2,2.9,4.3,5.5,6.8,8c1.6,1.6,3.3,3,5.2,4.1c1.7,0.9,3.6,1.6,5.5,0.6s2.2-3.1,2.2-5c0-2.2-0.4-4.4-1-6.6c-0.9-3.4-2.1-6.7-3.6-9.9
		l-3.4,2c1.3,2.9,2.4,5.9,3.2,8.9c0.5,1.8,0.8,3.7,0.8,5.5c0,0.6-0.1,1.1-0.3,1.6c-0.5-0.1-1.1-0.3-1.6-0.6c-1.6-1-3.1-2.2-4.4-3.5
		c-2.2-2.2-4.3-4.6-6.1-7.2L73.9,123.9z"/>
	<path style="clip-path:url(#SVGID_00000075124378295314564100000007901853473470085010_);fill:#1A1A1A;" d="M72.2,103.4
		c-2,1.2-3.5,3.2-3.9,5.5c-0.5,2.8,0.2,6.2,2.7,10.6c1.1,1.8,2.2,3.6,3.5,5.3l3.4-2c-1.3-1.7-2.5-3.5-3.6-5.3
		c-2.2-3.9-2.6-6.4-2.3-7.9c0.4-2.2,2.5-3.7,4.8-3.3c0.2,0,0.4,0.1,0.6,0.2c1.4,0.5,3.5,2.1,5.7,5.9c1.1,1.8,2,3.8,2.8,5.7l3.4-2
		c-0.8-2-1.8-3.9-2.8-5.7c-2.5-4.4-5.2-6.7-7.8-7.7C76.7,102,74.2,102.2,72.2,103.4L72.2,103.4z"/>
	<path style="clip-path:url(#SVGID_00000075124378295314564100000007901853473470085010_);fill:#FFFFFF;" d="M46.7,67.7
		c0-28.4,23-51.4,51.5-51.4c28.4,0,51.4,23,51.4,51.5s-23,51.4-51.5,51.4c-13.6,0-26.7-5.4-36.4-15.1C52.1,94.4,46.7,81.3,46.7,67.7
		z"/>
	<path style="clip-path:url(#SVGID_00000075124378295314564100000007901853473470085010_);fill:#FFFFFF;" d="M53.2,65
		c0-26.3,21.3-47.6,47.6-47.6s47.6,21.3,47.6,47.6c0,26.3-21.3,47.6-47.6,47.6c-12.6,0-24.7-5-33.6-13.9
		C58.2,89.7,53.2,77.6,53.2,65z"/>
	<path style="clip-path:url(#SVGID_00000075124378295314564100000007901853473470085010_);fill:#EB5A53;" d="M46.7,67.7
		c0,28.4,23,51.5,51.5,51.5s51.5-23,51.5-51.5H46.7z"/>
	<path style="clip-path:url(#SVGID_00000075124378295314564100000007901853473470085010_);fill:#EB5A53;" d="M53.3,67.7
		c1.3,26.2,23.7,46.4,49.9,45.1c24.4-1.2,43.9-20.7,45.1-45.1H53.3z"/>
	<path style="clip-path:url(#SVGID_00000075124378295314564100000007901853473470085010_);fill:#EE6F4D;" d="M194.1,191.8
		c-13.3,0-19.6-7.3-19.6-16.3s6.4-16.3,19.6-16.3s28.4,16.3,28.4,16.3S207.4,191.8,194.1,191.8L194.1,191.8z"/>
	<path style="clip-path:url(#SVGID_00000075124378295314564100000007901853473470085010_);fill:#FABE7D;" d="M186.2,182.8
		c-5.9,0-8.7-3.2-8.7-7.2s2.8-7.2,8.7-7.2s12.6,7.2,12.6,7.2S192.1,182.8,186.2,182.8z"/>
	<path style="clip-path:url(#SVGID_00000075124378295314564100000007901853473470085010_);fill:#1A1A1A;" d="M117.1,128.7
		c2-0.1,3.9-0.2,5.8-0.2c18.4,0,32.5,5.1,41.9,13.6s14.1,20.5,14.1,33.3s-4.6,24.8-14.1,33.3s-23.5,13.7-41.8,13.7
		c-1.9,0-3.9-0.1-5.8-0.2V216c2,0.1,3.9,0.2,5.8,0.2c17.2,0,29.6-4.7,37.6-12s12-17.3,12-28.6s-3.9-21.4-12-28.6s-20.4-12-37.6-12
		c-1.9,0-3.9,0.1-5.8,0.2L117.1,128.7z"/>
	<path style="clip-path:url(#SVGID_00000075124378295314564100000007901853473470085010_);fill:#1A1A1A;" d="M43.5,175.5
		c0-13.9,11.3-25.6,26.4-33.8c15-7.9,31.5-12.3,48.3-13.1v6.4c-15.9,0.8-32.5,5.4-45.3,12.3c-14.1,7.7-23.1,17.8-23.1,28.2
		s9,20.6,23.1,28.2c12.8,7,29.4,11.6,45.3,12.3v6.3c-16.9-0.8-33.4-5.3-48.3-13.1C54.8,201.1,43.5,189.4,43.5,175.5z"/>
	<path style="clip-path:url(#SVGID_00000075124378295314564100000007901853473470085010_);fill:#44B1E6;" d="M47,179.2
		c3.8-22.5,42.1-40.2,76-40.2s51,17.7,52.7,40.2c-0.1,1.4-0.3,2.9-0.5,4.3c-3.4-20.4-20.5-35.8-52.1-35.8s-67.2,15.4-74.8,35.9
		C47.7,182.1,47.3,180.6,47,179.2z"/>
	<path style="clip-path:url(#SVGID_00000075124378295314564100000007901853473470085010_);fill:#1A1A1A;" d="M133.4,131
		c14.7-23,47.2-18.2,47.2-18.2l6.8,1l-5.1,4.6c0,0-12.9,11.6-15.3,27.6l-6.3-0.9c1.7-11.9,8-20.9,12.5-26.3
		c-9.2,0.1-26,2.1-34.5,15.5L133.4,131z"/>
	<path style="clip-path:url(#SVGID_00000075124378295314564100000007901853473470085010_);fill:#1A1A1A;" d="M133.4,220.1l5.3-3.4
		c8.6,13.4,25.3,15.5,34.5,15.5c-4.5-5.3-10.8-14.3-12.5-26.3l6.3-0.9c2.3,16,15.3,27.7,15.3,27.7l5.1,4.5l-6.8,1
		C180.5,238.3,148,243.1,133.4,220.1L133.4,220.1z"/>
	<path style="clip-path:url(#SVGID_00000075124378295314564100000007901853473470085010_);fill:#EA4F3D;" d="M163.8,205.5
		c2.5,17.4,16.3,29.6,16.3,29.6s-30.7,4.3-44.1-16.7L163.8,205.5z"/>
	<path style="clip-path:url(#SVGID_00000075124378295314564100000007901853473470085010_);fill:#DF1F1D;" d="M136,218.4l27.8-12.9
		c0.5,3.1,1.3,6.2,2.4,9.2c-6.8,4.6-15.2,7.9-25.5,9.5C139,222.4,137.4,220.5,136,218.4L136,218.4z"/>
	<path style="clip-path:url(#SVGID_00000075124378295314564100000007901853473470085010_);fill:#EA4F3D;" d="M163.8,145.6
		c2.5-17.4,16.3-29.6,16.3-29.6s-30.7-4.3-44.1,16.7L163.8,145.6z"/>
	<path style="clip-path:url(#SVGID_00000075124378295314564100000007901853473470085010_);fill:#F39673;" d="M136,132.7
		c13.4-21,44.1-16.7,44.1-16.7s-0.9,0.8-2.3,2.3c-9.2-0.2-28,1.4-38.1,16.1L136,132.7z"/>
	<path style="clip-path:url(#SVGID_00000075124378295314564100000007901853473470085010_);fill:#298BCC;" d="M123,219.3
		c35.6,0,52.8-19.6,52.8-43.8s-17.2-43.8-52.8-43.8s-76.3,19.6-76.3,43.8S87.3,219.3,123,219.3z"/>
	<path style="clip-path:url(#SVGID_00000075124378295314564100000007901853473470085010_);fill:#4EB9EB;" d="M49.5,171.8
		C59.3,153,92.9,139,123,139c24.8,0,40.6,9.5,48,23.4c-9.3-9.9-24.9-16.3-46.9-16.3C95.6,146.1,64.3,156.7,49.5,171.8L49.5,171.8z"
		/>
	<path style="clip-path:url(#SVGID_00000075124378295314564100000007901853473470085010_);fill:#026196;" d="M95.8,180.3
		c0-12.1,9.8-21.9,21.9-21.9s21.9,9.8,21.9,21.9s-9.8,21.9-21.9,21.9c-5.8,0-11.4-2.3-15.5-6.4C98.1,191.7,95.8,186.1,95.8,180.3z"
		/>
	<path style="clip-path:url(#SVGID_00000075124378295314564100000007901853473470085010_);fill:#026196;" d="M46.7,175.5
		c0-0.2,0-0.4,0-0.6c11.5,18,46,31.2,77,31.2c26.8,0,43.8-9.9,51.4-24.2l0.3-0.3c-2.7,21.3-19.8,37.8-52.4,37.8
		C87.3,219.3,46.6,199.7,46.7,175.5L46.7,175.5z"/>
	<path style="clip-path:url(#SVGID_00000075124378295314564100000007901853473470085010_);fill:#EA4F3D;" d="M46.7,175.5
		c0-14.1,13.7-26.6,32.2-34.6v69.2C60.4,202.1,46.6,189.6,46.7,175.5z"/>
	<path style="clip-path:url(#SVGID_00000075124378295314564100000007901853473470085010_);fill:#EA4F3D;" d="M163.8,145.6
		c8,7.8,11.9,18.4,11.9,30s-3.9,22.1-11.9,29.9V145.6z"/>
	<path style="clip-path:url(#SVGID_00000075124378295314564100000007901853473470085010_);fill:#DF1F1D;" d="M46.7,175.5L46.7,175.5
		c0-0.2,0-0.4,0-0.6c5.9,9.2,17.8,17.1,32.2,22.7v12.4C60.4,202.1,46.6,189.6,46.7,175.5L46.7,175.5z"/>
	<path style="clip-path:url(#SVGID_00000075124378295314564100000007901853473470085010_);fill:#F39673;" d="M49.5,171.8
		c4.9-9.5,15.9-17.7,29.3-23.6v6C66.8,158.7,56.3,164.8,49.5,171.8L49.5,171.8z"/>
	<path style="clip-path:url(#SVGID_00000075124378295314564100000007901853473470085010_);fill:#DF1F1D;" d="M163.8,195
		c4.7-3.5,8.5-7.9,11.3-13.1l0.3-0.3c-1,9.1-5.1,17.5-11.6,23.9V195z"/>
	<path style="clip-path:url(#SVGID_00000075124378295314564100000007901853473470085010_);fill:#1A1A1A;" d="M117.1,131.1
		c2-0.1,3.9-0.2,5.8-0.2c18,0,31.4,4.9,40.3,13s13.3,19.3,13.3,31.6s-4.4,23.5-13.3,31.6s-22.3,13-40.3,13c-1.9,0-3.9-0.1-5.8-0.2
		v-1.6c2,0.1,3.9,0.2,5.8,0.2c17.7,0,30.7-4.9,39.2-12.6s12.8-18.4,12.8-30.3s-4.2-22.6-12.8-30.4s-21.6-12.6-39.2-12.6
		c-1.9,0-3.9,0.1-5.8,0.2L117.1,131.1z"/>
	<path style="clip-path:url(#SVGID_00000075124378295314564100000007901853473470085010_);fill:#F39673;" d="M163.8,152.9
		c2.9,2.8,5.3,6,7.1,9.6c-2.1-2.3-4.5-4.3-7.1-6.1V152.9z"/>
	
		<rect x="163" y="145.6" style="clip-path:url(#SVGID_00000075124378295314564100000007901853473470085010_);fill:#1A1A1A;" width="1.6" height="59.9"/>
	
		<rect x="78.1" y="140.9" style="clip-path:url(#SVGID_00000075124378295314564100000007901853473470085010_);fill:#1A1A1A;" width="1.6" height="69.2"/>
	<path style="clip-path:url(#SVGID_00000075124378295314564100000007901853473470085010_);fill:#BDBDBD;" d="M96.5,175.5
		c0-11.7,9.5-21.2,21.2-21.2s21.2,9.5,21.2,21.2c0,11.7-9.5,21.2-21.2,21.2C106,196.7,96.5,187.2,96.5,175.5L96.5,175.5z"/>
	<path style="clip-path:url(#SVGID_00000075124378295314564100000007901853473470085010_);fill:#9C9C9C;" d="M96.5,175.5
		c0-0.8,0.1-1.6,0.2-2.4c11.5,11.6,30.3,11.7,41.9,0.1c0,0,0.1-0.1,0.1-0.1c0.1,0.8,0.2,1.6,0.2,2.5c0,11.7-9.5,21.2-21.2,21.2
		C106,196.7,96.5,187.2,96.5,175.5L96.5,175.5z"/>
	<path style="clip-path:url(#SVGID_00000075124378295314564100000007901853473470085010_);fill:#A3DAF4;" d="M104.3,175.5
		c0-7.4,6-13.5,13.4-13.5c7.4,0,13.5,6,13.5,13.4c0,7.4-6,13.5-13.4,13.5c-3.6,0-7-1.4-9.5-3.9C105.7,182.5,104.3,179.1,104.3,175.5
		z"/>
	<path style="clip-path:url(#SVGID_00000075124378295314564100000007901853473470085010_);fill:#1A1A1A;" d="M135.4,132.2
		c13.7-21.5,44.9-17.1,44.9-17.1l1.7,0.2l-1.3,1.1c0,0-13.6,12.1-16,29.1l-1.6-0.2c2.2-15.2,12.3-25.9,15.3-28.8
		c-4.4-0.5-29.7-2.3-41.6,16.5L135.4,132.2z"/>
	<path style="clip-path:url(#SVGID_00000075124378295314564100000007901853473470085010_);fill:#1A1A1A;" d="M135.4,218.8l1.3-0.9
		c11.9,18.7,37.2,16.9,41.6,16.5c-3-2.9-13.1-13.6-15.3-28.8l1.6-0.2c2.5,17.1,16,29.1,16,29.1l1.3,1.1l-1.7,0.2
		C180.2,235.9,149,240.3,135.4,218.8L135.4,218.8z"/>
	<path style="clip-path:url(#SVGID_00000075124378295314564100000007901853473470085010_);fill:#1A1A1A;" d="M117.1,153.6h0.6
		c12.1-0.6,22.5,8.7,23.1,20.8c0.6,12.1-8.7,22.5-20.8,23.1c-0.8,0-1.5,0-2.3,0h-0.6v-1.6h0.6c11.3,0,20.4-9.1,20.4-20.4
		c0-11.3-9.1-20.4-20.4-20.4h-0.6V153.6z"/>
	<path style="clip-path:url(#SVGID_00000075124378295314564100000007901853473470085010_);fill:#1A1A1A;" d="M117.1,161.3h0.6
		c7.9,0.2,14.1,6.8,13.9,14.6c-0.2,7.6-6.3,13.7-13.9,13.9h-0.6v-1.6h0.6c7-0.2,12.5-6,12.3-13c-0.2-6.7-5.6-12.1-12.3-12.3h-0.6
		V161.3z"/>
	<path style="clip-path:url(#SVGID_00000075124378295314564100000007901853473470085010_);fill:#FFFFFF;" d="M107.7,173.3
		c1.2-5.5,6.7-9,12.3-7.8c3.9,0.9,6.9,3.9,7.8,7.8c-4.9-5.5-13.4-6.1-18.9-1.2C108.4,172.5,108,172.8,107.7,173.3z"/>
	<path style="clip-path:url(#SVGID_00000075124378295314564100000007901853473470085010_);fill:#1A1A1A;" d="M103.5,175.5
		c0-7.9,6.4-14.2,14.2-14.2h0.6v1.6h-0.6c-7-0.2-12.8,5.3-13,12.3s5.3,12.8,12.3,13c0.2,0,0.5,0,0.7,0h0.6v1.6h-0.6
		C109.8,189.8,103.5,183.4,103.5,175.5L103.5,175.5z"/>
	<path style="clip-path:url(#SVGID_00000075124378295314564100000007901853473470085010_);fill:#1A1A1A;" d="M95.7,175.5
		c0-12.2,9.8-22,22-22h0.6v1.6h-0.6c-11.3,0-20.4,9.1-20.4,20.4c0,11.3,9.1,20.4,20.4,20.4c0,0,0,0,0,0h0.6v1.6h-0.6
		C105.6,197.5,95.7,187.6,95.7,175.5L95.7,175.5z"/>
	<path style="clip-path:url(#SVGID_00000075124378295314564100000007901853473470085010_);fill:#1A1A1A;" d="M45.9,175.5
		c0-12.6,10.4-23.7,25.2-31.7c13.5-7.3,30.6-12.1,47.2-12.8v1.6c-16.3,0.8-33.2,5.5-46.5,12.6c-14.5,7.9-24.4,18.6-24.4,30.3
		s9.9,22.5,24.4,30.3c13.2,7.2,30.2,11.9,46.5,12.6v1.6c-16.5-0.8-32.6-5.1-47.2-12.8C56.3,199.2,45.9,188.1,45.9,175.5L45.9,175.5z
		"/>
	<path style="clip-path:url(#SVGID_00000075124378295314564100000007901853473470085010_);fill:#1A1A1A;" d="M89.8,11.2
		c-0.6,0-1.3,0-1.9,0.1c-2.2,0.5-4.2,1.6-5.7,3.2c-0.8,0.9-1.8,1.7-2.9,2.2c-1.2,0.3-2.4,0.4-3.6,0.2c-2.2-0.2-4.4,0.2-6.4,1.2
		c-1.9,1.2-3.3,2.9-4.2,4.9c-0.5,1.1-1.1,2.2-2,3c-1,0.7-2.2,1.2-3.4,1.4c-2.2,0.5-4.1,1.7-5.6,3.3c-1.4,1.8-2.2,3.9-2.3,6.1
		c0,1.2-0.3,2.4-0.8,3.6c-0.7,1-1.6,1.8-2.7,2.5c-1.8,1.2-3.3,3-4.1,5.1c-0.7,2.1-0.7,4.4-0.1,6.5c0.4,1.2,0.5,2.4,0.4,3.6
		c-0.3,1.2-0.9,2.3-1.7,3.2c-1.3,1.8-2.1,3.9-2.1,6.2c0.1,2.2,0.8,4.4,2.1,6.2c0.8,1,1.3,2.1,1.7,3.3c0.1,1.2-0.1,2.5-0.4,3.6
		c-1.4,4.4,0.3,9.2,4.2,11.6c1,0.7,1.9,1.5,2.7,2.5c0.5,1.1,0.8,2.3,0.8,3.6c0.1,4.6,3.4,8.5,7.9,9.4c1.2,0.3,2.4,0.7,3.4,1.4
		c0.9,0.9,1.5,1.9,2,3.1c0.9,2,2.4,3.8,4.3,4.9c2,1,4.2,1.5,6.4,1.2c1.2-0.2,2.5-0.1,3.6,0.2c1.1,0.5,2.1,1.3,2.9,2.2
		c3.1,3.4,8,4.3,12.1,2.2c1.1-0.6,2.3-0.9,3.5-1.1c1.2,0.1,2.4,0.5,3.5,1.1c4.1,2.2,9.1,1.3,12.2-2.2c0.8-0.9,1.8-1.6,2.9-2.2
		c1.2-0.3,2.4-0.4,3.6-0.2c4.6,0.6,9-1.9,10.7-6.2c0.5-1.1,1.1-2.2,2-3.1c1-0.7,2.2-1.2,3.4-1.4c4.5-0.9,7.8-4.8,7.9-9.4
		c0-1.2,0.3-2.4,0.8-3.6c0.7-1,1.6-1.8,2.7-2.5c3.9-2.4,5.7-7.2,4.2-11.6c-0.4-1.2-0.5-2.4-0.4-3.6c0.3-1.2,0.9-2.3,1.6-3.3
		c1.3-1.8,2-3.9,2.1-6.2c-0.1-2.2-0.8-4.4-2.1-6.2c-0.8-1-1.3-2.1-1.6-3.2c-0.1-1.2,0.1-2.5,0.4-3.6c0.6-2.1,0.6-4.4-0.1-6.5
		c-0.8-2.1-2.3-3.8-4.1-5.1c-1-0.7-1.9-1.5-2.7-2.5c-0.5-1.1-0.7-2.3-0.8-3.6c-0.2-2.2-1-4.3-2.3-6.1c-1.5-1.6-3.4-2.8-5.6-3.3
		c-1.2-0.3-2.3-0.8-3.4-1.4c-0.9-0.9-1.5-1.9-2-3c-0.9-2-2.4-3.8-4.3-4.9c-2-1-4.2-1.5-6.4-1.2c-1.2,0.2-2.5,0.1-3.6-0.2
		c-1.1-0.5-2.1-1.3-2.9-2.2c-3.1-3.4-8.1-4.3-12.2-2.1c-1.1,0.6-2.3,0.9-3.5,1c-1.2-0.1-2.4-0.4-3.5-1
		C92.9,11.7,91.3,11.3,89.8,11.2L89.8,11.2z M89,17.6c1-0.1,2,0.1,2.9,0.6c1.8,0.9,3.9,1.5,5.9,1.5c2.1-0.1,4.1-0.6,5.9-1.5
		c1.8-1.2,4.2-0.8,5.4,1c0,0,0,0,0,0c1.4,1.5,3.1,2.7,5,3.5c2,0.6,4.1,0.8,6.1,0.6c1-0.2,2.1,0,3,0.4c0.8,0.6,1.4,1.4,1.8,2.3
		c0.8,1.9,2,3.6,3.6,5c1.6,1.3,3.5,2.2,5.5,2.6c1,0.2,1.9,0.7,2.6,1.4c0.6,0.8,0.9,1.8,0.9,2.8c0.1,2.1,0.7,4.1,1.6,5.9
		c1.1,1.7,2.6,3.2,4.3,4.4c1.2,0.9,1.7,1.4,2,2.2c0.3,1,0.2,2-0.1,3c-0.6,2-0.8,4.1-0.5,6.1c0.4,2,1.3,3.9,2.6,5.6
		c0.7,0.8,1.1,1.7,1.1,2.8c-0.1,1-0.5,2-1.1,2.7c-1.2,1.6-2.1,3.5-2.6,5.5c-0.3,2-0.1,4.1,0.5,6.1c0.3,1,0.4,2,0.1,3
		c-0.3,0.8-0.8,1.3-2,2.2c-1.7,1.1-3.2,2.6-4.3,4.4c-1,1.8-1.5,3.8-1.6,5.9c0,1-0.3,2-0.9,2.8c-0.7,0.7-1.6,1.2-2.6,1.4
		c-4.2,0.8-7.6,3.7-9.1,7.6c-0.7,1.3-1.1,1.9-1.8,2.3c-0.9,0.4-2,0.6-3,0.4c-4.2-0.7-8.4,0.9-11.2,4.1c-1.2,1.8-3.6,2.2-5.4,1
		c0,0,0,0,0,0c-1.8-0.9-3.9-1.5-5.9-1.6c-2.1,0.1-4.1,0.6-5.9,1.6c-0.9,0.5-1.9,0.7-2.9,0.6c-1-0.3-1.9-0.8-2.5-1.6
		c-1.4-1.5-3.1-2.7-5-3.5c-2-0.6-4-0.8-6.1-0.6c-1,0.2-2.1,0.1-3-0.4c-0.7-0.4-1.1-1-1.8-2.3c-0.8-1.9-2-3.6-3.6-5
		c-1.6-1.3-3.5-2.2-5.5-2.6c-1-0.2-1.9-0.7-2.6-1.4c-0.6-0.9-0.8-1.9-0.8-2.9c-0.1-2.1-0.7-4.1-1.6-5.9c-1.1-1.8-2.6-3.2-4.4-4.4
		c-1.2-0.9-1.7-1.4-2-2.2c-0.3-1-0.2-2,0.1-3c0.6-2,0.8-4,0.5-6.1c-0.4-2-1.3-3.9-2.5-5.6c-0.6-0.8-1-1.7-1.1-2.7
		c0.1-1,0.5-2,1.1-2.8c1.2-1.7,2.1-3.6,2.5-5.6c0.3-2,0.1-4.1-0.5-6.1c-0.4-1-0.4-2-0.1-3c0.3-0.8,0.8-1.3,2-2.2
		c1.7-1.1,3.2-2.6,4.3-4.4c1-1.8,1.5-3.8,1.6-5.9c0-1,0.3-2,0.8-2.8c0.7-0.7,1.6-1.2,2.6-1.4c2-0.5,3.9-1.4,5.5-2.6
		c1.5-1.4,2.7-3.1,3.6-5c0.4-0.9,1-1.8,1.8-2.4c0.9-0.4,2-0.6,3-0.4c2.1,0.2,4.1,0.1,6.1-0.6c1.9-0.8,3.6-2,5-3.5
		C87.1,18.4,88,17.8,89,17.6z"/>
	<path style="clip-path:url(#SVGID_00000075124378295314564100000007901853473470085010_);fill:#1A1A1A;" d="M89.7,13.6
		c-0.5,0-1,0-1.4,0.1c-1.7,0.4-3.3,1.3-4.5,2.6c-1,1.1-2.3,2-3.7,2.7c-1.5,0.4-3,0.5-4.6,0.3c-1.8-0.2-3.5,0.1-5.1,0.9
		c-1.5,1-2.7,2.4-3.3,4c-0.6,1.4-1.5,2.7-2.6,3.8c-1.2,0.9-2.7,1.5-4.2,1.9c-1.7,0.4-3.3,1.3-4.5,2.6c-1.1,1.4-1.7,3.1-1.8,4.8
		c-0.1,1.5-0.5,3.1-1.1,4.4c-0.8,1.3-2,2.4-3.2,3.2c-1.5,1-2.6,2.4-3.3,4c-0.5,1.7-0.5,3.5,0,5.2c0.5,1.5,0.6,3,0.5,4.6
		c-0.4,1.5-1.1,2.9-2,4.1c-1.1,1.4-1.7,3.1-1.8,4.8c0.1,1.8,0.7,3.5,1.8,4.9c0.9,1.2,1.6,2.6,2,4.1c0.2,1.5,0,3.1-0.5,4.6
		c-1.2,3.5,0.2,7.3,3.3,9.2c1.3,0.8,2.4,1.9,3.3,3.2c0.7,1.4,1,2.9,1.1,4.4c0,3.7,2.7,6.8,6.3,7.5c1.5,0.3,2.9,1,4.2,1.9
		c1.1,1.1,2,2.4,2.6,3.8c1.3,3.5,4.8,5.5,8.5,4.9c1.5-0.2,3.1-0.1,4.6,0.3c1.4,0.6,2.7,1.5,3.7,2.7c1.2,1.3,2.8,2.2,4.5,2.6
		c1.8,0.2,3.5-0.1,5.1-0.9c1.4-0.7,2.9-1.1,4.4-1.2c1.5,0.1,3,0.5,4.4,1.2c3.2,1.8,7.2,1.1,9.6-1.7c1-1.1,2.3-2,3.7-2.7
		c1.5-0.4,3-0.5,4.6-0.3c3.6,0.6,7.2-1.4,8.5-4.9c1-3,3.6-5.2,6.8-5.7c3.6-0.7,6.3-3.8,6.3-7.5c0.1-1.5,0.5-3.1,1.1-4.4
		c0.9-1.3,2-2.4,3.3-3.2c3.2-1.9,4.6-5.7,3.3-9.2c-0.5-1.5-0.6-3-0.5-4.6c0.4-1.5,1.1-2.9,2-4.1c1.1-1.4,1.7-3.1,1.8-4.9
		c-0.1-1.8-0.7-3.5-1.8-4.9c-0.9-1.2-1.6-2.6-2-4.1c-0.2-1.5,0-3.1,0.5-4.6c0.5-1.7,0.5-3.5,0-5.2c-0.7-1.6-1.9-3-3.3-3.9
		c-1.3-0.8-2.4-1.9-3.3-3.2c-0.7-1.4-1.1-2.9-1.1-4.4c-0.1-1.8-0.7-3.5-1.8-4.9c-1.2-1.3-2.8-2.2-4.5-2.6c-1.5-0.3-2.9-1-4.1-1.9
		c-1.1-1.1-2-2.4-2.6-3.8c-0.7-1.6-1.9-3-3.3-4c-1.6-0.8-3.4-1.1-5.1-0.9c-1.5,0.2-3.1,0.1-4.6-0.3c-1.4-0.6-2.7-1.5-3.7-2.7
		c-2.4-2.8-6.4-3.5-9.6-1.7c-1.4,0.7-2.9,1.1-4.4,1.2c-1.5-0.1-3-0.5-4.4-1.2C92.3,14,91,13.7,89.7,13.6L89.7,13.6z M89.7,15.2
		c1.1,0.1,2.1,0.4,3.1,0.9c1.6,0.8,3.3,1.3,5,1.4c1.7-0.1,3.4-0.6,5-1.4c2.6-1.6,6-1,7.9,1.4c1.2,1.3,2.6,2.3,4.2,3
		c1.7,0.5,3.4,0.7,5.2,0.4c1.5-0.2,2.9,0,4.2,0.7c1.2,0.8,2.2,2,2.7,3.3c0.7,1.6,1.7,3.1,3,4.3c1.4,1.1,3,1.8,4.7,2.2
		c1.4,0.3,2.7,1,3.8,2.1c0.9,1.2,1.4,2.6,1.4,4.1c0.1,1.7,0.5,3.4,1.3,5c1,1.5,2.2,2.7,3.7,3.7c1.2,0.8,2.2,1.9,2.8,3.3
		c0.4,1.4,0.4,2.9,0,4.3c-0.5,1.7-0.7,3.4-0.5,5.2c0.4,1.7,1.2,3.3,2.2,4.7c0.9,1.2,1.4,2.5,1.5,4c-0.1,1.5-0.6,2.8-1.5,4
		c-1.1,1.4-1.8,3-2.2,4.7c-0.2,1.7,0,3.5,0.5,5.2c0.4,1.4,0.4,2.9,0,4.3c-0.6,1.3-1.6,2.5-2.8,3.3c-1.5,0.9-2.7,2.2-3.7,3.7
		c-0.8,1.6-1.2,3.3-1.3,5c0.1,3.1-2.1,5.7-5.2,6.2c-3.5,0.6-6.5,3.1-7.7,6.4c-1,2.9-4,4.6-7,4c-1.7-0.2-3.5-0.1-5.2,0.4
		c-1.6,0.7-3.1,1.7-4.2,3c-1.9,2.4-5.3,3-7.9,1.4c-1.6-0.8-3.3-1.3-5-1.4c-1.7,0.1-3.4,0.6-5,1.4c-2.6,1.6-6,1-7.9-1.4
		c-1.2-1.3-2.6-2.3-4.2-3c-1.7-0.5-3.4-0.6-5.2-0.4c-3,0.6-6-1.1-7-4c-0.7-1.6-1.7-3.1-3-4.3c-1.4-1-3-1.7-4.7-2.1
		c-1.4-0.3-2.8-1-3.8-2.1c-0.9-1.2-1.4-2.6-1.4-4.1c-0.1-1.7-0.5-3.4-1.3-5c-1-1.5-2.2-2.7-3.7-3.7c-2.7-1.5-3.9-4.7-2.8-7.6
		c0.5-1.7,0.7-3.4,0.5-5.2c-0.4-1.7-1.2-3.3-2.2-4.7c-0.9-1.2-1.4-2.5-1.5-4c0.1-1.5,0.6-2.8,1.5-4c1.1-1.4,1.8-3,2.3-4.7
		c0.2-1.7,0-3.5-0.5-5.2c-0.4-1.4-0.4-2.9,0-4.3c0.6-1.3,1.6-2.5,2.8-3.3c1.5-0.9,2.7-2.2,3.7-3.7c0.8-1.6,1.2-3.3,1.3-5
		c0-1.5,0.5-2.9,1.3-4.1c1-1.1,2.3-1.8,3.8-2.1c1.7-0.4,3.3-1.1,4.7-2.2c1.3-1.2,2.3-2.7,3-4.3c0.6-1.4,1.5-2.5,2.7-3.3
		c1.3-0.7,2.8-0.9,4.2-0.7c1.7,0.2,3.5,0.1,5.2-0.4c1.6-0.7,3.1-1.7,4.2-3c1-1.1,2.3-1.9,3.7-2.2C89,15.2,89.3,15.1,89.7,15.2
		L89.7,15.2z"/>
	<path style="clip-path:url(#SVGID_00000075124378295314564100000007901853473470085010_);fill:#EAB170;" d="M83.5,92.8
		c0,0.8-0.7,1.5-1.5,1.5c-0.8,0-1.5-0.7-1.5-1.5c0-0.8,0.7-1.5,1.5-1.5C82.9,91.4,83.5,92,83.5,92.8z"/>
	<path style="clip-path:url(#SVGID_00000075124378295314564100000007901853473470085010_);fill:#1A1A1A;" d="M72.7,48.1
		c4.5,0,8.1,3.6,8.1,8.1c0,0,0,0,0,0v4.1c0,4.5-3.6,8.1-8.1,8.1c-4.5,0-8.1-3.6-8.1-8.1c0,0,0,0,0,0v-4.1
		C64.5,51.7,68.2,48.1,72.7,48.1C72.7,48.1,72.7,48.1,72.7,48.1z"/>
	<path style="clip-path:url(#SVGID_00000075124378295314564100000007901853473470085010_);fill:#FFFFFF;" d="M74.8,51.3
		c-1.5,0-2.6,1.2-2.6,2.6c0,1.5,1.2,2.6,2.6,2.6c1.5,0,2.6-1.2,2.6-2.6c0,0,0,0,0,0C77.4,52.5,76.2,51.3,74.8,51.3z"/>
	<path style="clip-path:url(#SVGID_00000075124378295314564100000007901853473470085010_);fill:#1A1A1A;" d="M106.3,48.1
		c4.5,0,8.1,3.6,8.1,8.1c0,0,0,0,0,0v4.1c0,4.5-3.6,8.1-8.1,8.1c-4.5,0-8.1-3.6-8.1-8.1v-4.1C98.1,51.7,101.7,48.1,106.3,48.1
		C106.2,48.1,106.3,48.1,106.3,48.1z"/>
	<path style="clip-path:url(#SVGID_00000075124378295314564100000007901853473470085010_);fill:#FFFFFF;" d="M108.4,51.3
		c-1.5,0-2.6,1.2-2.6,2.6c0,1.5,1.2,2.6,2.6,2.6c0,0,0,0,0,0c1.4,0,2.6-1.2,2.6-2.6c0-0.7-0.3-1.4-0.8-1.9
		C109.7,51.6,109.1,51.3,108.4,51.3L108.4,51.3z"/>
	<path style="clip-path:url(#SVGID_00000075124378295314564100000007901853473470085010_);fill:#FFFFFF;" d="M71.2,73
		c-2.1,0-3.8,1.7-3.8,3.8c0,0,0,0,0,0v4.3c0,12.2,9.9,22.1,22.1,22.1s22.1-9.9,22.1-22.1v-4.3c0-2.1-1.7-3.8-3.8-3.8c0,0,0,0-0.1,0
		H71.2z"/>
	<path style="clip-path:url(#SVGID_00000075124378295314564100000007901853473470085010_);fill:#BADBE9;" d="M93.8,73L93.8,73
		c0,0,3.8,7.2,0,13.9c4.7,7.4,0.6,15.8,0.6,15.8c10.1-2.3,17.2-11.2,17.2-21.6v-4.3c0-2.1-1.7-3.8-3.8-3.8c0,0,0,0-0.1,0H93.8z"/>
	<path style="clip-path:url(#SVGID_00000075124378295314564100000007901853473470085010_);fill:#1A1A1A;" d="M104.6,73L104.6,73
		c0,0,4.3,4.9,0,10.2c5,4.6,0.3,13.7,0.3,13.7c4.2-4.2,6.6-9.8,6.6-15.8v-4.3c0-2.1-1.7-3.8-3.8-3.8c0,0,0,0,0,0H104.6z"/>
	<path style="clip-path:url(#SVGID_00000075124378295314564100000007901853473470085010_);fill:#1A1A1A;" d="M74.3,73L74.3,73
		c0,0-4.3,4.9,0,10.2c-5,4.6-0.3,13.7-0.3,13.7c-4.2-4.1-6.6-9.8-6.6-15.8v-4.3c0-2.1,1.7-3.8,3.8-3.8c0,0,0,0,0.1,0H74.3z"/>
	<path style="clip-path:url(#SVGID_00000075124378295314564100000007901853473470085010_);fill:#1A1A1A;" d="M88.9,72.2v1.6h18.8
		c1.7,0,3,1.3,3,3v4.3c0,11.8-9.5,21.3-21.3,21.3c0,0,0,0,0,0h-0.6v1.6h0.6c12.6,0,22.9-10.2,22.9-22.9v-4.3c0-2.5-2.1-4.6-4.6-4.6
		H88.9z"/>
	<path style="clip-path:url(#SVGID_00000075124378295314564100000007901853473470085010_);fill:#1A1A1A;" d="M71.2,72.2
		c-2.5,0-4.6,2.1-4.6,4.6v4.3c0,12.6,10.3,22.9,22.9,22.9H90v-1.6h-0.6c-11.8,0-21.3-9.5-21.3-21.3v-4.3c0-1.7,1.3-3,3-3H90v-1.6
		H71.2z"/>
	<path style="clip-path:url(#SVGID_00000075124378295314564100000007901853473470085010_);fill:#1A1A1A;" d="M-6.5,86.2h-0.6v6.3
		h0.6l0,0c10.8,0,20.4,6.8,23.9,17l0.7,2.1h2.2c7.7,0.1,13.8,6.5,13.7,14.2c-0.1,7.7-6.5,13.8-14.2,13.7c-2.5,0-4.9-0.7-7-2
		l-1.9-1.1l-1.7,1.4c-4.5,3.5-10,5.5-15.7,5.5h-0.6v6.3h0.6c6.4,0,12.7-2.1,18-5.8c2.7,1.3,5.6,2,8.5,2.1l0,0
		c11.2,0.1,20.2-8.9,20.3-20.1c0.1-10.3-7.6-19-17.8-20.2C17.6,93.9,6.2,86.3-6.5,86.2L-6.5,86.2L-6.5,86.2z"/>
	<path style="clip-path:url(#SVGID_00000075124378295314564100000007901853473470085010_);fill:#FFFFFF;" d="M-6.5,89.4
		c-12.1,0-22.9,7.7-26.9,19.2c-9.3,0.2-16.8,7.8-16.8,17.1c0,9.4,7.7,17.1,17.1,17.1c3.1,0,6.2-0.9,8.9-2.5c5,4,11.2,6.2,17.7,6.2
		c6.4,0,12.7-2.2,17.7-6.2c8.1,4.9,18.6,2.4,23.5-5.7S37,115.9,29,111c-2.6-1.6-5.6-2.4-8.6-2.5C16.4,97.1,5.6,89.4-6.5,89.4z"/>
	<path style="clip-path:url(#SVGID_00000075124378295314564100000007901853473470085010_);fill:#C0E4EF;" d="M33.1,114.6
		c-5.4,6.5-14.8,8.1-22,3.6c-5,4-11.3,6.2-17.7,6.2c-6.4,0-12.6-2.2-17.7-6.2c-2.7,1.6-5.8,2.5-8.9,2.5c-5.1,0-9.9-2.2-13.1-6.1
		c-2.6,3.1-4,6.9-4,10.9c0,9.4,7.7,17.1,17.1,17.1c3.1,0,6.2-0.9,8.9-2.5c5,4,11.2,6.2,17.7,6.2c6.4,0,12.7-2.2,17.7-6.2
		c8,4.9,18.6,2.4,23.5-5.6C38.5,128.3,37.9,120.3,33.1,114.6L33.1,114.6z"/>
	<path style="clip-path:url(#SVGID_00000075124378295314564100000007901853473470085010_);fill:#91D1DD;" d="M36.4,120.6
		c-2.7,9-12.1,14.1-21.1,11.5c-1.4-0.4-2.8-1-4.1-1.8c-5,4-11.3,6.2-17.7,6.2c-6.4,0-12.6-2.2-17.7-6.2c-2.7,1.6-5.8,2.5-8.9,2.5
		c-7.5,0-14.2-4.9-16.3-12.1c-0.5,1.6-0.7,3.3-0.8,4.9c0,4.5,1.8,8.9,5,12.1c3.2,3.2,7.6,5,12.1,5c3.1,0,6.2-0.9,8.9-2.5
		c5,4,11.2,6.2,17.7,6.2c6.4,0,12.7-2.2,17.7-6.2c8.1,4.9,18.6,2.4,23.5-5.7c1.6-2.7,2.5-5.8,2.5-8.9
		C37.1,123.9,36.9,122.2,36.4,120.6L36.4,120.6z"/>
	<path style="clip-path:url(#SVGID_00000075124378295314564100000007901853473470085010_);fill:#1A1A1A;" d="M-6.5,88.6h-0.6v1.6
		h0.6c11.8,0,22.3,7.5,26.1,18.6l0.2,0.5h0.5c9,0.1,16.2,7.5,16,16.5c-0.1,9-7.5,16.2-16.5,16c-2.9,0-5.8-0.9-8.3-2.4l-0.5-0.3
		l-0.4,0.3c-4.9,3.9-11,6-17.2,6h-0.6v1.6h0.6c6.4,0,12.7-2.1,17.8-6.1c8.5,4.9,19.4,1.9,24.3-6.6s1.9-19.4-6.6-24.3
		c-2.5-1.4-5.2-2.2-8.1-2.3C16.7,96.3,5.7,88.6-6.5,88.6z"/>
	<g style="clip-path:url(#SVGID_00000075124378295314564100000007901853473470085010_);enable-background:new    ;">
		<text transform="matrix(1 0 0 1 9.57 266.85)" class="st20 st21 st22">nienuklearny</text>
	</g>
	<path style="clip-path:url(#SVGID_00000075124378295314564100000007901853473470085010_);fill:#298BCC;" d="M45,0H16H0v16
		c0,7,0,14,0,21c10.3,12.3,28.7,14,41,3.7c6.7-5.5,10.5-13.8,10.5-22.4C51.5,11.6,49.2,5.2,45,0z"/>
	<g style="clip-path:url(#SVGID_00000075124378295314564100000007901853473470085010_);enable-background:new    ;">
		<text transform="matrix(1 0 0 1 15.57 31.75)" class="st20 st21 st23">03</text>
	</g>
</g>
</svg>
