<?xml version="1.0" encoding="utf-8"?>
<!-- Generator: Adobe Illustrator 26.0.1, SVG Export Plug-In . SVG Version: 6.00 Build 0)  -->
<svg version="1.1" id="Слой_1" xmlns="http://www.w3.org/2000/svg" xmlns:xlink="http://www.w3.org/1999/xlink" x="0px" y="0px"
	 viewBox="0 0 195.6 280.6" style="enable-background:new 0 0 195.6 280.6;" xml:space="preserve">
<style type="text/css">
	.st0{clip-path:url(#SVGID_00000179610164638872521000000004348708162967590278_);fill:#EB5A53;}
	.st1{clip-path:url(#SVGID_00000122684120166690315730000010253779942418206365_);fill:#1A1A1A;}
	.st2{clip-path:url(#SVGID_00000012462278980653847360000014129135234909915570_);fill:#EB5A53;}
	.st3{clip-path:url(#SVGID_00000121970219194156140960000005868161259169177261_);fill:#1A1A1A;}
	.st4{clip-path:url(#SVGID_00000030457428954487754270000015131015300181381262_);fill:#EB5A53;}
	.st5{clip-path:url(#SVGID_00000139993561054214459910000016608130693342336650_);fill:#1A1A1A;}
	.st6{clip-path:url(#SVGID_00000023991540865082352300000011676091663953877149_);fill:#EB5A53;}
	.st7{clip-path:url(#SVGID_00000130641200595661063260000015176199146219001489_);fill:#1A1A1A;}
	.st8{clip-path:url(#SVGID_00000165197173405247663130000009601511323850916757_);fill:#1A1A1A;}
	.st9{clip-path:url(#SVGID_00000067933036184052458690000000677617163243441819_);fill:#FFFFFF;}
	.st10{clip-path:url(#SVGID_00000050645949253699723320000002546260207112099766_);fill:#FFFFFF;}
	.st11{clip-path:url(#SVGID_00000150060455311050573360000005780836052720453302_);fill:#EB5A53;}
	.st12{clip-path:url(#SVGID_00000029762651219752115060000004173700124156479403_);fill:#EB5A53;}
	.st13{clip-path:url(#SVGID_00000131347387368676726020000003892702894150916253_);fill:#1A1A1A;}
	.st14{clip-path:url(#SVGID_00000181071687721818872810000006518702826714009484_);fill:#1A1A1A;}
	.st15{clip-path:url(#SVGID_00000078003740622043618390000011569767211185585321_);fill:#FFFFFF;}
	.st16{clip-path:url(#SVGID_00000017475803640805937390000005463472711014081210_);fill:#1A1A1A;}
	.st17{clip-path:url(#SVGID_00000078028931120711418930000012201258216261374631_);fill:#FFFFFF;}
	.st18{clip-path:url(#SVGID_00000078014081875476631990000006071662215464618429_);fill:#AF1739;}
	.st19{clip-path:url(#SVGID_00000151508082066194307600000005683560695458619822_);fill:#EB5775;}
	.st20{clip-path:url(#SVGID_00000108305104905890478720000013194400014221791883_);fill:#FFFFFF;}
	.st21{clip-path:url(#SVGID_00000176729729991617186380000013980849009300501434_);fill:#BADBE9;}
	.st22{clip-path:url(#SVGID_00000137845002940614409450000012385892725855786901_);fill:#BADBE9;}
	.st23{clip-path:url(#SVGID_00000080929320947652522930000009596982025923263136_);fill:#8BB0CC;}
	.st24{clip-path:url(#SVGID_00000097502898977616889450000014441939026412594614_);fill:#1A1A1A;}
	.st25{clip-path:url(#SVGID_00000164485258702666311970000002737955902240914597_);fill:#1A1A1A;}
	.st26{clip-path:url(#SVGID_00000093893565879744460670000007431107773412385172_);fill:#F293A2;}
	.st27{clip-path:url(#SVGID_00000096753270723858728070000004732972324049403809_);fill:#1A1A1A;}
	.st28{clip-path:url(#SVGID_00000183208786244993693360000016056352383065723524_);fill:#1A1A1A;}
	.st29{clip-path:url(#SVGID_00000168836895224701389380000002315608625882730423_);fill:#1A1A1A;}
	.st30{clip-path:url(#SVGID_00000171707093194924352900000017668461024026709407_);fill:#595959;}
	.st31{clip-path:url(#SVGID_00000155124432695433960250000006219805943564080829_);fill:#797979;}
	.st32{clip-path:url(#SVGID_00000111912214660354261640000008060061862810495392_);fill:#3E3E3E;}
	.st33{clip-path:url(#SVGID_00000181048385506130588360000006453876727014705793_);fill:#1A1A1A;}
	.st34{clip-path:url(#SVGID_00000018923682990769294690000018142064663618968212_);fill:#1A1A1A;}
	.st35{enable-background:new    ;}
	.st36{fill:#EB5A53;}
	.st37{clip-path:url(#SVGID_00000054980324463115203080000015055838398517465758_);fill:#EB5A53;}
	.st38{fill:#FFFFFF;}
</style>
<g>
	<g>
		<g>
			<defs>
				<rect id="SVGID_1_" width="195.6" height="280.6"/>
			</defs>
			<clipPath id="SVGID_00000044873365768798074830000011793341797501714822_">
				<use xlink:href="#SVGID_1_"  style="overflow:visible;"/>
			</clipPath>
			<path style="clip-path:url(#SVGID_00000044873365768798074830000011793341797501714822_);fill:#EB5A53;" d="M110.4,157.1
				c0-11.2,4.9-13.4,8.3-13.4s8.3,2.2,8.3,13.4s-3.7,27-8.3,27S110.4,168.2,110.4,157.1z"/>
		</g>
	</g>
	<g>
		<g>
			<defs>
				<rect id="SVGID_00000020400304387497059120000003816722944095669164_" width="195.6" height="280.6"/>
			</defs>
			<clipPath id="SVGID_00000070828483013822677500000013024208669888153758_">
				<use xlink:href="#SVGID_00000020400304387497059120000003816722944095669164_"  style="overflow:visible;"/>
			</clipPath>
			<path style="clip-path:url(#SVGID_00000070828483013822677500000013024208669888153758_);fill:#1A1A1A;" d="M118.7,141.4
				c-2.8,0-5.4,1.2-7.2,3.3c-2.1,2.5-3.4,6.5-3.4,12.4c0.1,6.2,0.9,12.3,2.5,18.3c0.6,2.5,1.6,5,2.9,7.2c1.2,2,2.7,3.8,5.2,3.8
				s4.1-1.8,5.2-3.8c1.3-2.3,2.2-4.7,2.9-7.2c1.6-6,2.5-12.1,2.5-18.3c0-5.9-1.3-9.9-3.4-12.4C124.1,142.6,121.5,141.4,118.7,141.4z
				 M118.7,146c1.4-0.1,2.8,0.6,3.7,1.7c1.2,1.4,2.3,4.1,2.3,9.4c-0.1,5.8-0.8,11.5-2.3,17.1c-0.5,2.1-1.4,4.2-2.4,6.1
				c-0.3,0.6-0.7,1.1-1.2,1.5c-0.5-0.4-0.9-0.9-1.2-1.5c-1-1.9-1.9-4-2.4-6.1c-1.5-5.6-2.3-11.3-2.3-17.1c0-5.2,1.2-8,2.3-9.4
				C115.9,146.6,117.3,146,118.7,146L118.7,146z"/>
		</g>
	</g>
	<g>
		<g>
			<defs>
				<rect id="SVGID_00000103961794968230349540000003693200442329453996_" width="195.6" height="280.6"/>
			</defs>
			<clipPath id="SVGID_00000132071531957226646710000007576475718570488252_">
				<use xlink:href="#SVGID_00000103961794968230349540000003693200442329453996_"  style="overflow:visible;"/>
			</clipPath>
			<path style="clip-path:url(#SVGID_00000132071531957226646710000007576475718570488252_);fill:#EB5A53;" d="M68.4,157.1
				c0-11.2,4.9-13.4,8.3-13.4s8.3,2.2,8.3,13.4s-3.7,27-8.3,27S68.4,168.2,68.4,157.1L68.4,157.1z"/>
		</g>
	</g>
	<g>
		<g>
			<defs>
				<rect id="SVGID_00000083079989966478073070000004571691257189613502_" width="195.6" height="280.6"/>
			</defs>
			<clipPath id="SVGID_00000021104116820716132320000017871426565780569996_">
				<use xlink:href="#SVGID_00000083079989966478073070000004571691257189613502_"  style="overflow:visible;"/>
			</clipPath>
			<path style="clip-path:url(#SVGID_00000021104116820716132320000017871426565780569996_);fill:#1A1A1A;" d="M76.7,141.4
				c-2.8,0-5.4,1.2-7.2,3.3c-2.1,2.5-3.5,6.5-3.5,12.4c0,6.2,0.9,12.3,2.5,18.3c0.6,2.5,1.6,5,2.9,7.2c1.2,2,2.8,3.8,5.2,3.8
				s4-1.8,5.2-3.8c1.3-2.3,2.2-4.7,2.9-7.2c1.6-6,2.5-12.1,2.6-18.3c0-5.9-1.3-9.9-3.4-12.4C82.1,142.6,79.4,141.4,76.7,141.4z
				 M76.7,146c1.4-0.1,2.8,0.6,3.7,1.7c1.2,1.4,2.3,4.1,2.3,9.4c-0.1,5.8-0.8,11.5-2.3,17.1c-0.5,2.1-1.3,4.2-2.4,6.1
				c-0.3,0.6-0.7,1.1-1.2,1.5c-0.5-0.4-0.9-0.9-1.2-1.5c-1-1.9-1.8-4-2.4-6.1c-1.5-5.6-2.3-11.3-2.3-17.1c0-5.2,1.2-8,2.3-9.4
				C73.9,146.6,75.2,146,76.7,146L76.7,146z"/>
		</g>
	</g>
	<g>
		<g>
			<defs>
				<rect id="SVGID_00000137132367399115172200000015516383346921235074_" width="195.6" height="280.6"/>
			</defs>
			<clipPath id="SVGID_00000101071155905321796980000017536890306523561602_">
				<use xlink:href="#SVGID_00000137132367399115172200000015516383346921235074_"  style="overflow:visible;"/>
			</clipPath>
			<path style="clip-path:url(#SVGID_00000101071155905321796980000017536890306523561602_);fill:#EB5A53;" d="M152.2,101.7
				C149,91,153,87.5,156.3,86.5s8.6-0.3,11.8,10.4s4.3,26.9-0.1,28.3S155.4,112.4,152.2,101.7z"/>
		</g>
	</g>
	<g>
		<g>
			<defs>
				<rect id="SVGID_00000139973896086570351170000007730400907541619106_" width="195.6" height="280.6"/>
			</defs>
			<clipPath id="SVGID_00000011741752505593036900000008480856607304474540_">
				<use xlink:href="#SVGID_00000139973896086570351170000007730400907541619106_"  style="overflow:visible;"/>
			</clipPath>
			<path style="clip-path:url(#SVGID_00000011741752505593036900000008480856607304474540_);fill:#1A1A1A;" d="M155.5,85.5
				c-2.7,0.8-4.8,2.7-5.9,5.3c-1.3,3-1.4,7.2,0.3,12.8c1.8,5.9,4.4,11.6,7.7,16.8c1.3,2.2,3,4.3,4.9,6.1c1.7,1.5,3.7,2.8,6.1,2.1
				s3.4-2.9,3.9-5.1c0.6-2.5,0.8-5.2,0.7-7.8c-0.2-6.2-1.1-12.3-2.9-18.3c-1.7-5.7-4.1-9.1-6.9-10.8
				C161.1,85.1,158.2,84.7,155.5,85.5L155.5,85.5z M156.9,89.9c1.3-0.5,2.8-0.3,4,0.6c1.5,1,3.4,3.3,4.9,8.3
				c1.6,5.5,2.5,11.2,2.7,17c0.1,2.2-0.1,4.4-0.5,6.5c-0.1,0.6-0.4,1.2-0.8,1.8c-0.6-0.2-1.2-0.6-1.6-1.1c-1.6-1.5-2.9-3.3-4.1-5.2
				c-3-4.9-5.5-10.2-7.2-15.7c-1.5-5-1.2-8-0.5-9.7C154.4,91.3,155.5,90.3,156.9,89.9L156.9,89.9z"/>
		</g>
	</g>
	<g>
		<g>
			<defs>
				<rect id="SVGID_00000110471136217115042230000011969137471298244998_" width="195.6" height="280.6"/>
			</defs>
			<clipPath id="SVGID_00000111899060290698241350000005056605356058727074_">
				<use xlink:href="#SVGID_00000110471136217115042230000011969137471298244998_"  style="overflow:visible;"/>
			</clipPath>
			<path style="clip-path:url(#SVGID_00000111899060290698241350000005056605356058727074_);fill:#EB5A53;" d="M29.6,96.4
				c4.3-10.3,9.7-10.5,12.8-9.2s6.8,5.2,2.5,15.6s-13.8,23.5-18,21.8S25.3,106.7,29.6,96.4L29.6,96.4z"/>
		</g>
	</g>
	<g>
		<g>
			<defs>
				<rect id="SVGID_00000008843877039800669890000004364022469613742995_" width="195.6" height="280.6"/>
			</defs>
			<clipPath id="SVGID_00000083086890396251290510000004559507335106338695_">
				<use xlink:href="#SVGID_00000008843877039800669890000004364022469613742995_"  style="overflow:visible;"/>
			</clipPath>
			<path style="clip-path:url(#SVGID_00000083086890396251290510000004559507335106338695_);fill:#1A1A1A;" d="M43.2,85.1
				c-2.6-1.1-5.5-0.9-7.9,0.3c-2.9,1.5-5.6,4.7-7.9,10.1c-2.3,5.7-3.9,11.8-4.7,17.9c-0.4,2.6-0.4,5.2-0.1,7.8
				c0.3,2.3,1.1,4.5,3.4,5.5s4.5-0.1,6.3-1.5c2-1.6,3.9-3.5,5.4-5.6c3.8-4.9,6.9-10.3,9.3-16c2.3-5.5,2.6-9.6,1.6-12.8
				C47.8,88.2,45.8,86.1,43.2,85.1L43.2,85.1z M41.5,89.4c1.3,0.5,2.4,1.6,2.7,3c0.6,1.7,0.6,4.7-1.4,9.6
				c-2.3,5.3-5.2,10.3-8.7,14.9c-1.3,1.8-2.9,3.3-4.6,4.7c-0.5,0.4-1.1,0.7-1.7,0.9c-0.3-0.6-0.5-1.2-0.6-1.8
				c-0.2-2.2-0.2-4.4,0.1-6.6c0.7-5.7,2.2-11.3,4.4-16.7c2-4.8,4.1-6.9,5.7-7.8C38.7,88.8,40.2,88.8,41.5,89.4L41.5,89.4z"/>
		</g>
	</g>
	<g>
		<g>
			<defs>
				<rect id="SVGID_00000052097811756484226930000000166688222511811472_" width="195.6" height="280.6"/>
			</defs>
			<clipPath id="SVGID_00000115479275148309509140000005850533425641004731_">
				<use xlink:href="#SVGID_00000052097811756484226930000000166688222511811472_"  style="overflow:visible;"/>
			</clipPath>
			<path style="clip-path:url(#SVGID_00000115479275148309509140000005850533425641004731_);fill:#1A1A1A;" d="M97.7,36.8
				c-36,0-65.1,29.1-65.1,65.1S61.7,167,97.7,167s65.1-29.1,65.1-65.1l0,0C162.7,66,133.6,36.8,97.7,36.8z M97.7,44.2
				c31.9,0,57.7,25.8,57.7,57.7s-25.8,57.7-57.7,57.7S40,133.8,40,101.9l0,0c0-31.8,25.7-57.6,57.5-57.7
				C97.6,44.2,97.6,44.2,97.7,44.2z"/>
		</g>
	</g>
	<g>
		<g>
			<defs>
				<rect id="SVGID_00000156549199745624208030000000525383946117086910_" width="195.6" height="280.6"/>
			</defs>
			<clipPath id="SVGID_00000077304696790985494470000005208182652740396438_">
				<use xlink:href="#SVGID_00000156549199745624208030000000525383946117086910_"  style="overflow:visible;"/>
			</clipPath>
			<path style="clip-path:url(#SVGID_00000077304696790985494470000005208182652740396438_);fill:#FFFFFF;" d="M36.3,101.9
				c0-33.9,27.5-61.4,61.4-61.4s61.4,27.5,61.4,61.4s-27.5,61.4-61.4,61.4c-16.3,0-31.9-6.5-43.4-18S36.3,118.2,36.3,101.9z"/>
		</g>
	</g>
	<g>
		<g>
			<defs>
				<rect id="SVGID_00000142146208540589426980000009020453170565194658_" width="195.6" height="280.6"/>
			</defs>
			<clipPath id="SVGID_00000043420843326463135880000001920421951162740353_">
				<use xlink:href="#SVGID_00000142146208540589426980000009020453170565194658_"  style="overflow:visible;"/>
			</clipPath>
			<path style="clip-path:url(#SVGID_00000043420843326463135880000001920421951162740353_);fill:#FFFFFF;" d="M44.1,98.7
				c0-31.4,25.4-56.8,56.8-56.8s56.8,25.4,56.8,56.8s-25.4,56.8-56.8,56.8c-15.1,0-29.5-6-40.1-16.6
				C50.1,128.2,44.1,113.8,44.1,98.7z"/>
		</g>
	</g>
	<g>
		<g>
			<defs>
				<rect id="SVGID_00000092450199634877265740000000755380514363857079_" width="195.6" height="280.6"/>
			</defs>
			<clipPath id="SVGID_00000006669268012423824320000013649630363497834160_">
				<use xlink:href="#SVGID_00000092450199634877265740000000755380514363857079_"  style="overflow:visible;"/>
			</clipPath>
			<path style="clip-path:url(#SVGID_00000006669268012423824320000013649630363497834160_);fill:#EB5A53;" d="M36.3,101.9
				c0,33.9,27.5,61.4,61.4,61.4s61.4-27.5,61.4-61.4l0,0H36.3z"/>
		</g>
	</g>
	<g>
		<g>
			<defs>
				<rect id="SVGID_00000094590955289458113490000012996334871941650605_" width="195.6" height="280.6"/>
			</defs>
			<clipPath id="SVGID_00000018949750183973366370000017732545194860030863_">
				<use xlink:href="#SVGID_00000094590955289458113490000012996334871941650605_"  style="overflow:visible;"/>
			</clipPath>
			<path style="clip-path:url(#SVGID_00000018949750183973366370000017732545194860030863_);fill:#EB5A53;" d="M44.3,101.9
				c1.7,31.3,28.5,55.3,59.7,53.5c28.9-1.6,52-24.7,53.5-53.5C157.5,101.9,44.3,101.9,44.3,101.9z"/>
		</g>
	</g>
	<g>
		<g>
			<defs>
				<rect id="SVGID_00000138570196786653938560000007849299760687876509_" width="195.6" height="280.6"/>
			</defs>
			<clipPath id="SVGID_00000085212725060736227580000014962891252831244191_">
				<use xlink:href="#SVGID_00000138570196786653938560000007849299760687876509_"  style="overflow:visible;"/>
			</clipPath>
			<path style="clip-path:url(#SVGID_00000085212725060736227580000014962891252831244191_);fill:#1A1A1A;" d="M97.7,39.6
				c-34.4,0-62.3,27.9-62.3,62.3s27.9,62.3,62.3,62.3s62.3-27.9,62.3-62.3l0,0C160,67.5,132.1,39.6,97.7,39.6z M97.7,41.4
				c33.4,0,60.5,27.1,60.5,60.5s-27.1,60.5-60.5,60.5s-60.5-27.1-60.5-60.5l0,0C37.2,68.5,64.3,41.4,97.7,41.4L97.7,41.4z"/>
		</g>
	</g>
	<g>
		<g>
			<defs>
				<rect id="SVGID_00000020392678158081538780000003864117048664469940_" width="195.6" height="280.6"/>
			</defs>
			<clipPath id="SVGID_00000077296775569068145290000017796041816592081035_">
				<use xlink:href="#SVGID_00000020392678158081538780000003864117048664469940_"  style="overflow:visible;"/>
			</clipPath>
			<path style="clip-path:url(#SVGID_00000077296775569068145290000017796041816592081035_);fill:#1A1A1A;" d="M117.4,79.7
				c5.3,0,9.6,4.2,9.6,9.5c0,0,0,0,0,0.1V94c-0.2,5.3-4.6,9.4-9.9,9.3c-5-0.2-9.1-4.2-9.3-9.3v-4.8
				C107.9,83.9,112.1,79.7,117.4,79.7C117.4,79.6,117.4,79.6,117.4,79.7L117.4,79.7z"/>
		</g>
	</g>
	<g>
		<g>
			<defs>
				<rect id="SVGID_00000081627885727316611870000016317938426923833229_" width="195.6" height="280.6"/>
			</defs>
			<clipPath id="SVGID_00000013905347563903333570000016625783224738298034_">
				<use xlink:href="#SVGID_00000081627885727316611870000016317938426923833229_"  style="overflow:visible;"/>
			</clipPath>
			<path style="clip-path:url(#SVGID_00000013905347563903333570000016625783224738298034_);fill:#FFFFFF;" d="M111.8,86.5
				c0-1.7,1.4-3.1,3.1-3.1s3.1,1.4,3.1,3.1s-1.4,3.1-3.1,3.1c-0.8,0-1.6-0.3-2.2-0.9C112.2,88.1,111.8,87.3,111.8,86.5z"/>
		</g>
	</g>
	<g>
		<g>
			<defs>
				<rect id="SVGID_00000088132079960786817950000011524672159553167280_" width="195.6" height="280.6"/>
			</defs>
			<clipPath id="SVGID_00000179628067723847682850000017135365758236193696_">
				<use xlink:href="#SVGID_00000088132079960786817950000011524672159553167280_"  style="overflow:visible;"/>
			</clipPath>
			<path style="clip-path:url(#SVGID_00000179628067723847682850000017135365758236193696_);fill:#1A1A1A;" d="M78,79.7
				c5.3,0,9.6,4.3,9.6,9.5l0,0V94c0,5.3-4.3,9.6-9.6,9.6c-5.3,0-9.6-4.3-9.6-9.6v-4.8C68.4,83.9,72.7,79.7,78,79.7
				C77.9,79.6,78,79.6,78,79.7z"/>
		</g>
	</g>
	<g>
		<g>
			<defs>
				<rect id="SVGID_00000112604602797123564630000008329338155764081544_" width="195.6" height="280.6"/>
			</defs>
			<clipPath id="SVGID_00000113315254521392627410000000031856459261235362_">
				<use xlink:href="#SVGID_00000112604602797123564630000008329338155764081544_"  style="overflow:visible;"/>
			</clipPath>
			<path style="clip-path:url(#SVGID_00000113315254521392627410000000031856459261235362_);fill:#FFFFFF;" d="M72.4,86.5
				c0-1.7,1.4-3.1,3.1-3.1s3.1,1.4,3.1,3.1s-1.4,3.1-3.1,3.1l0,0C73.8,89.6,72.4,88.2,72.4,86.5z"/>
		</g>
	</g>
	<g>
		<g>
			<defs>
				<rect id="SVGID_00000065073957935432858990000014696415008892530567_" width="195.6" height="280.6"/>
			</defs>
			<clipPath id="SVGID_00000011750566427695664090000011440970319673284232_">
				<use xlink:href="#SVGID_00000065073957935432858990000014696415008892530567_"  style="overflow:visible;"/>
			</clipPath>
			<path style="clip-path:url(#SVGID_00000011750566427695664090000011440970319673284232_);fill:#AF1739;" d="M87.5,106.4
				c-1.2,0-2.1,0.9-2.1,2.1l0,0v2.4c0,6.8,5.5,12.3,12.3,12.3s12.3-5.5,12.3-12.3l0,0v-2.4c0-1.2-0.9-2.1-2.1-2.1l0,0H87.5z"/>
		</g>
	</g>
	<g>
		<g>
			<defs>
				<rect id="SVGID_00000021818681432552848610000005891549632570122161_" width="195.6" height="280.6"/>
			</defs>
			<clipPath id="SVGID_00000007409497140868976240000008668283421715437977_">
				<use xlink:href="#SVGID_00000021818681432552848610000005891549632570122161_"  style="overflow:visible;"/>
			</clipPath>
			<path style="clip-path:url(#SVGID_00000007409497140868976240000008668283421715437977_);fill:#EB5775;" d="M97.7,114.8
				c-3.6,0-6.9,1.5-9.3,4.2c4.4,5.1,12.2,5.7,17.3,1.3c0.4-0.4,0.9-0.8,1.3-1.3C104.7,116.3,101.3,114.8,97.7,114.8L97.7,114.8z"/>
		</g>
	</g>
	<g>
		<g>
			<defs>
				<rect id="SVGID_00000033331988117119094450000004301877033803866806_" width="195.6" height="280.6"/>
			</defs>
			<clipPath id="SVGID_00000032628133633183008080000000330150951207975060_">
				<use xlink:href="#SVGID_00000033331988117119094450000004301877033803866806_"  style="overflow:visible;"/>
			</clipPath>
			<path style="clip-path:url(#SVGID_00000032628133633183008080000000330150951207975060_);fill:#FFFFFF;" d="M87.5,106.4
				c-1.2,0-2.1,0.9-2.1,2.1l0,0v2.2c7.8,3.7,16.8,3.7,24.6,0v-2.1c0-1.2-0.9-2.1-2.1-2.1l0,0L87.5,106.4z"/>
		</g>
	</g>
	<g>
		<g>
			<defs>
				<rect id="SVGID_00000052105074093638889410000014187865242326140309_" width="195.6" height="280.6"/>
			</defs>
			<clipPath id="SVGID_00000075133980547562802490000007107213957361998513_">
				<use xlink:href="#SVGID_00000052105074093638889410000014187865242326140309_"  style="overflow:visible;"/>
			</clipPath>
			<path style="clip-path:url(#SVGID_00000075133980547562802490000007107213957361998513_);fill:#BADBE9;" d="M106.7,106.4v3.3
				c0,1.2-0.2,2-1,2.6c1.5-0.4,2.9-1,4.3-1.6v-2.1c0-1.2-0.9-2.1-2.1-2.1l0,0h-1.2C106.7,106.5,106.7,106.4,106.7,106.4z"/>
		</g>
	</g>
	<g>
		<g>
			<defs>
				<rect id="SVGID_00000039820369623970847880000007540952665541761424_" width="195.6" height="280.6"/>
			</defs>
			<clipPath id="SVGID_00000041276462085970052540000010952969593379849630_">
				<use xlink:href="#SVGID_00000039820369623970847880000007540952665541761424_"  style="overflow:visible;"/>
			</clipPath>
			<path style="clip-path:url(#SVGID_00000041276462085970052540000010952969593379849630_);fill:#BADBE9;" d="M87.5,106.4
				c-1.2,0-2.1,0.9-2.1,2.1l0,0v2.2c2.7,1.3,5.5,2.1,8.4,2.5c-1.4-0.4-1.8-1.8-1.8-3.5v-3.3C92,106.4,87.5,106.4,87.5,106.4z"/>
		</g>
	</g>
	<g>
		<g>
			<defs>
				<rect id="SVGID_00000005245909358353244220000017061608331653782929_" width="195.6" height="280.6"/>
			</defs>
			<clipPath id="SVGID_00000053526994224851932220000000529830367600777914_">
				<use xlink:href="#SVGID_00000005245909358353244220000017061608331653782929_"  style="overflow:visible;"/>
			</clipPath>
			<path style="clip-path:url(#SVGID_00000053526994224851932220000000529830367600777914_);fill:#8BB0CC;" d="M88.7,106.4v3.3
				c0,1.2,0.2,2,1,2.6c-1.5-0.4-2.9-1-4.3-1.6v-2.1c0-1.2,0.9-2.1,2.1-2.1l0,0h1.2C88.7,106.5,88.7,106.4,88.7,106.4z"/>
		</g>
	</g>
	<g>
		<g>
			<defs>
				<rect id="SVGID_00000064314744201903735130000014114099801363306147_" width="195.6" height="280.6"/>
			</defs>
			<clipPath id="SVGID_00000067238570000109357170000012377912990602386826_">
				<use xlink:href="#SVGID_00000064314744201903735130000014114099801363306147_"  style="overflow:visible;"/>
			</clipPath>
			<path style="clip-path:url(#SVGID_00000067238570000109357170000012377912990602386826_);fill:#1A1A1A;" d="M87.5,105.5
				c-1.7,0-3,1.4-3,3.1v2.4c0,7.3,5.9,13.2,13.2,13.2c7.3,0,13.2-5.9,13.2-13.2v-2.4c0-1.7-1.3-3-3-3.1H87.5z M107.9,107.3
				c0.6,0,1.2,0.5,1.2,1.1c0,0,0,0,0,0.1v2.4c-0.2,6.3-5.4,11.2-11.7,11c-6-0.2-10.9-5-11-11v-2.4c0-0.6,0.5-1.2,1.1-1.2
				c0,0,0,0,0.1,0H107.9z"/>
		</g>
	</g>
	<g>
		<g>
			<defs>
				<rect id="SVGID_00000132795020691460934580000003353050218191606403_" width="195.6" height="280.6"/>
			</defs>
			<clipPath id="SVGID_00000011717030918411594520000008861840501715295396_">
				<use xlink:href="#SVGID_00000132795020691460934580000003353050218191606403_"  style="overflow:visible;"/>
			</clipPath>
			<path style="clip-path:url(#SVGID_00000011717030918411594520000008861840501715295396_);fill:#1A1A1A;" d="M110,110.1
				c-7.8,3.8-16.9,3.8-24.7,0l-0.4,0.8c8.1,3.9,17.5,3.9,25.5,0C110.4,111,110,110.1,110,110.1z"/>
		</g>
	</g>
	<g>
		<g>
			<defs>
				<rect id="SVGID_00000080907022394958720250000015158216180115153308_" width="195.6" height="280.6"/>
			</defs>
			<clipPath id="SVGID_00000107561670366589612690000017928366710809596803_">
				<use xlink:href="#SVGID_00000080907022394958720250000015158216180115153308_"  style="overflow:visible;"/>
			</clipPath>
			<path style="clip-path:url(#SVGID_00000107561670366589612690000017928366710809596803_);fill:#F293A2;" d="M99,118.1
				c0-0.4,0.2-0.8,0.6-1c0.4-0.3,0.9-0.4,1.4-0.4c1.1,0,2,0.7,2,1.4s-0.9,1.4-2,1.4c-0.5,0-1-0.1-1.4-0.4
				C99.2,118.9,99,118.5,99,118.1L99,118.1z"/>
		</g>
	</g>
	<g>
		<g>
			<defs>
				<rect id="SVGID_00000169554935992051299830000002297560553394432399_" width="195.6" height="280.6"/>
			</defs>
			<clipPath id="SVGID_00000123438917177949910360000001302978178026352278_">
				<use xlink:href="#SVGID_00000169554935992051299830000002297560553394432399_"  style="overflow:visible;"/>
			</clipPath>
			<path style="clip-path:url(#SVGID_00000123438917177949910360000001302978178026352278_);fill:#1A1A1A;" d="M155.5,130.8
				l-0.9-0.1l1.6-12.4l0.9,0.1L155.5,130.8z"/>
		</g>
	</g>
	<g>
		<g>
			<defs>
				<rect id="SVGID_00000018954255591802321720000016231116696013750182_" width="195.6" height="280.6"/>
			</defs>
			<clipPath id="SVGID_00000059990621558857647120000003834777182641536413_">
				<use xlink:href="#SVGID_00000018954255591802321720000016231116696013750182_"  style="overflow:visible;"/>
			</clipPath>
			<path style="clip-path:url(#SVGID_00000059990621558857647120000003834777182641536413_);fill:#1A1A1A;" d="M98.6,16
				c-5.9,0.4-11.8,0.4-18.3,0.9c-8.7,0.6-14.9,3.3-18.9,7.3c-3.7,3.8-5.7,8.9-5.5,14.2c0,8.8,5.4,15.6,12.9,19.3s17.1,4.7,26.9,3.2
				c1-0.2,2-0.3,2.9-0.5v-6.5c-1.3,0.3-2.6,0.5-3.9,0.8C86,56,77.5,55,71.6,52.1s-9.4-7.2-9.4-13.6c-0.1-3.6,1.2-7.1,3.7-9.7
				c2.7-2.7,7.2-4.9,14.9-5.5c6.1-0.5,11.9-0.5,17.8-0.9C98.6,22.4,98.6,16,98.6,16z"/>
		</g>
	</g>
	<g>
		<g>
			<defs>
				<rect id="SVGID_00000070825080914036077740000004458555390843052478_" width="195.6" height="280.6"/>
			</defs>
			<clipPath id="SVGID_00000070081242635688271100000002656428758314450102_">
				<use xlink:href="#SVGID_00000070825080914036077740000004458555390843052478_"  style="overflow:visible;"/>
			</clipPath>
			<path style="clip-path:url(#SVGID_00000070081242635688271100000002656428758314450102_);fill:#1A1A1A;" d="M115.4,13.6
				c-6.2,1.4-12.5,2.3-18.8,2.5v6.2c4.9-0.2,9.8-0.8,14.7-1.6l-1.8,5h4.5c6,0,12.1-1,17.9-2.7c-4.6,18.2-19.7,28.2-35.2,31.2v6.4
				c19.2-3.3,39.3-16.9,42.5-41.7l0.7-5.1l-4.8,1.7c-5.3,1.7-10.8,2.9-16.4,3.6l0.5-1.4l2.1-5.5L115.4,13.6z"/>
		</g>
	</g>
	<g>
		<g>
			<defs>
				<rect id="SVGID_00000005254934254334911550000012054462558409385903_" width="195.6" height="280.6"/>
			</defs>
			<clipPath id="SVGID_00000074437655841448045040000008293838999813140102_">
				<use xlink:href="#SVGID_00000005254934254334911550000012054462558409385903_"  style="overflow:visible;"/>
			</clipPath>
			<path style="clip-path:url(#SVGID_00000074437655841448045040000008293838999813140102_);fill:#595959;" d="M116.1,16.6
				C102.9,19.8,92.7,19,80.5,20C64.2,21.1,59,29.7,59,38.3c0,30.5,70.7,27.7,77-19.8c0,0-11.9,4.2-22.1,4.1L116.1,16.6L116.1,16.6z"
				/>
		</g>
	</g>
	<g>
		<g>
			<defs>
				<rect id="SVGID_00000109737615647552730360000008456032369398361226_" width="195.6" height="280.6"/>
			</defs>
			<clipPath id="SVGID_00000092448420583343308290000013101702172373079462_">
				<use xlink:href="#SVGID_00000109737615647552730360000008456032369398361226_"  style="overflow:visible;"/>
			</clipPath>
			<path style="clip-path:url(#SVGID_00000092448420583343308290000013101702172373079462_);fill:#797979;" d="M116.1,16.6
				C102.9,19.8,92.7,19,80.5,20c-9.3,0.7-15,3.8-18.1,7.9c8.6,14.9,57.1,12.2,73.7-9.3c0,0-11.9,4.2-22.1,4.1L116.1,16.6L116.1,16.6
				z"/>
		</g>
	</g>
	<g>
		<g>
			<defs>
				<rect id="SVGID_00000031900314963804094590000003782362228011815570_" width="195.6" height="280.6"/>
			</defs>
			<clipPath id="SVGID_00000070086034930665551810000002427238329746224526_">
				<use xlink:href="#SVGID_00000031900314963804094590000003782362228011815570_"  style="overflow:visible;"/>
			</clipPath>
			<path style="clip-path:url(#SVGID_00000070086034930665551810000002427238329746224526_);fill:#3E3E3E;" d="M136,18.5
				c-8.3,30.9-65.2,43-76.5,15.6c-0.3,1.4-0.5,2.8-0.5,4.2C59,68.8,129.7,66,136,18.5z"/>
		</g>
	</g>
	<g>
		<g>
			<defs>
				<rect id="SVGID_00000027566997108709792330000012598555926569028025_" width="195.6" height="280.6"/>
			</defs>
			<clipPath id="SVGID_00000088833283823320433880000007507303307900800152_">
				<use xlink:href="#SVGID_00000027566997108709792330000012598555926569028025_"  style="overflow:visible;"/>
			</clipPath>
			<path style="clip-path:url(#SVGID_00000088833283823320433880000007507303307900800152_);fill:#1A1A1A;" d="M98.6,18.3
				c-5.9,0.4-11.7,0.4-18.1,0.8c-8.3,0.6-13.9,3.1-17.4,6.6c-3.2,3.3-5,7.8-4.9,12.5c0,7.9,4.7,13.8,11.6,17.2s16.1,4.4,25.5,3
				c1.1-0.2,2.2-0.4,3.3-0.6v-1.7c-1.2,0.3-2.4,0.5-3.5,0.7c-9.1,1.4-18,0.4-24.5-2.8s-10.7-8.4-10.7-15.7
				c-0.1-4.2,1.5-8.4,4.4-11.4c3.2-3.2,8.3-5.6,16.3-6.2c6.3-0.5,12.1-0.5,18-0.9L98.6,18.3L98.6,18.3z"/>
		</g>
	</g>
	<g>
		<g>
			<defs>
				<rect id="SVGID_00000158003616112454991670000014585005536096250786_" width="195.6" height="280.6"/>
			</defs>
			<clipPath id="SVGID_00000013871228064930358800000001738745781709227403_">
				<use xlink:href="#SVGID_00000158003616112454991670000014585005536096250786_"  style="overflow:visible;"/>
			</clipPath>
			<path style="clip-path:url(#SVGID_00000013871228064930358800000001738745781709227403_);fill:#1A1A1A;" d="M115.9,15.9
				c-6.4,1.5-12.9,2.4-19.4,2.6V20c6.2-0.2,12.3-1,18.3-2.3l-2.1,5.7h1.1c9.5,0,19.3-3.2,21.1-3.8c-3.5,21.9-21,33.8-38.4,37v1.6
				c18.3-3.3,37.1-16.1,40.2-39.6l0.2-1.3l-1.2,0.4c0,0-11,3.7-20.6,4l1.8-4.8l0.5-1.4L115.9,15.9z"/>
		</g>
	</g>
	<g class="st35">
		<path class="st36" d="M24,197.5l-0.2,2.7c0.8-1.1,1.7-1.9,2.7-2.4s2.1-0.8,3.3-0.8c1.4,0,2.7,0.4,3.7,1.2s1.7,1.7,2,2.7
			s0.4,2.7,0.4,5.1v12.8c0,2.8-0.2,4.7-0.5,5.9s-1,2.1-2,2.8s-2.2,1-3.7,1c-1.1,0-2.2-0.3-3.2-0.8s-1.9-1.3-2.7-2.4v7h-9.3v-34.7H24
			V197.5z M26.7,206.4c0-1.9-0.1-3-0.2-3.4s-0.5-0.6-1.1-0.6s-1,0.2-1.2,0.7s-0.3,1.6-0.3,3.3V219c0,1.8,0.1,3,0.3,3.4
			c0.2,0.5,0.6,0.7,1.2,0.7s1-0.2,1.1-0.6c0.1-0.4,0.2-1.4,0.2-3.1V206.4z"/>
		<path class="st36" d="M59.9,208.2v7.4c0,2.7-0.1,4.7-0.4,6c-0.3,1.3-0.9,2.5-1.8,3.6c-0.9,1.1-2.1,1.9-3.5,2.5
			c-1.4,0.5-3,0.8-4.9,0.8c-2,0-3.8-0.2-5.2-0.7s-2.5-1.1-3.3-2s-1.3-2-1.7-3.3c-0.3-1.3-0.5-3.2-0.5-5.8v-7.8c0-2.8,0.3-5,0.9-6.6
			c0.6-1.6,1.7-2.9,3.3-3.8c1.6-1,3.6-1.4,6.1-1.4c2.1,0,3.9,0.3,5.4,0.9c1.5,0.6,2.6,1.4,3.4,2.4s1.4,2,1.7,3.1
			C59.8,204.4,59.9,206,59.9,208.2z M50.7,205.9c0-1.6-0.1-2.5-0.3-2.9s-0.5-0.6-1.1-0.6s-0.9,0.2-1.1,0.6c-0.2,0.4-0.3,1.4-0.3,2.9
			v13.7c0,1.4,0.1,2.4,0.3,2.8c0.2,0.4,0.5,0.7,1.1,0.7c0.5,0,0.9-0.2,1.1-0.6s0.3-1.3,0.3-2.6V205.9z"/>
		<path class="st36" d="M84,190.8v37.1h-9.3v-2.2c-0.9,0.9-1.8,1.6-2.8,2.1s-2,0.7-3.1,0.7c-1.4,0-2.7-0.4-3.7-1.1
			c-1.1-0.8-1.7-1.6-2-2.6s-0.4-2.6-0.4-4.9v-14.2c0-2.3,0.1-4,0.4-5s1-1.8,2.1-2.6c1.1-0.7,2.3-1.1,3.8-1.1c1.1,0,2.2,0.2,3.2,0.6
			c1,0.4,1.8,1,2.6,1.9v-8.6L84,190.8L84,190.8z M74.8,205.2c0-1.1-0.1-1.9-0.3-2.2c-0.2-0.4-0.6-0.6-1.1-0.6
			c-0.6,0-0.9,0.2-1.1,0.5S72,204,72,205.2v14.9c0,1.2,0.1,2.1,0.3,2.4c0.2,0.4,0.5,0.6,1.1,0.6s1-0.2,1.2-0.7
			c0.2-0.4,0.3-1.5,0.3-3.2L74.8,205.2L74.8,205.2z"/>
		<path class="st36" d="M108.3,208.2v7.4c0,2.7-0.1,4.7-0.4,6s-0.9,2.5-1.8,3.6s-2.1,1.9-3.5,2.5c-1.4,0.5-3,0.8-4.9,0.8
			c-2,0-3.8-0.2-5.2-0.7s-2.5-1.1-3.3-2s-1.3-2-1.7-3.3c-0.3-1.3-0.5-3.2-0.5-5.8v-7.8c0-2.8,0.3-5,0.9-6.6s1.7-2.9,3.3-3.8
			c1.6-1,3.6-1.4,6.1-1.4c2.1,0,3.9,0.3,5.4,0.9c1.5,0.6,2.6,1.4,3.4,2.4s1.4,2,1.7,3.1C108.2,204.4,108.3,206,108.3,208.2z
			 M99,205.9c0-1.6-0.1-2.5-0.3-2.9c-0.2-0.4-0.5-0.6-1.1-0.6s-0.9,0.2-1.1,0.6c-0.2,0.4-0.3,1.4-0.3,2.9v13.7
			c0,1.4,0.1,2.4,0.3,2.8c0.2,0.4,0.5,0.7,1.1,0.7c0.5,0,0.9-0.2,1.1-0.6s0.3-1.3,0.3-2.6V205.9z"/>
		<path class="st36" d="M120.6,190.8v8.8c0.8-0.9,1.6-1.6,2.6-2c0.9-0.4,2-0.7,3.1-0.7c1.3,0,2.4,0.2,3.3,0.6c0.9,0.4,1.6,1,2.1,1.7
			s0.8,1.4,0.9,2.1s0.1,2.2,0.1,4.4v13.7c0,2.2-0.1,3.9-0.4,5s-1,2-2.1,2.8s-2.4,1.2-3.9,1.2c-1.1,0-2.1-0.2-3-0.7s-1.8-1.2-2.6-2.1
			l-0.6,2.3h-8.7v-37.1L120.6,190.8L120.6,190.8z M123.4,206.1c0-1.6-0.1-2.6-0.3-3.1c-0.2-0.5-0.6-0.7-1.2-0.7s-0.9,0.2-1.1,0.6
			s-0.3,1.5-0.3,3.2v13.1c0,1.6,0.1,2.7,0.3,3.1c0.2,0.5,0.6,0.7,1.1,0.7c0.6,0,1-0.2,1.1-0.7s0.3-1.6,0.3-3.4L123.4,206.1
			L123.4,206.1z"/>
		<path class="st36" d="M145.2,197.5l-0.2,2.8c0.7-1.1,1.5-2,2.5-2.5c1-0.6,2.1-0.8,3.4-0.8c1.6,0,2.9,0.4,3.9,1.1
			c1,0.7,1.7,1.7,1.9,2.8c0.3,1.1,0.4,3,0.4,5.7v21.3h-9.3v-21.1c0-2.1-0.1-3.4-0.2-3.8c-0.1-0.5-0.5-0.7-1.1-0.7
			c-0.7,0-1.1,0.3-1.2,0.8s-0.3,1.9-0.3,4.2v20.6h-9.3v-30.4L145.2,197.5L145.2,197.5z"/>
		<path class="st36" d="M181.3,213.3h-12v6.6c0,1.4,0.1,2.3,0.3,2.7s0.6,0.6,1.1,0.6c0.7,0,1.2-0.3,1.4-0.8s0.4-1.5,0.4-3.1v-4h8.8
			v2.2c0,1.9-0.1,3.3-0.4,4.3c-0.2,1-0.8,2.1-1.7,3.2c-0.9,1.1-2,2-3.3,2.6s-3,0.9-5,0.9s-3.7-0.3-5.2-0.8c-1.5-0.6-2.7-1.3-3.5-2.3
			s-1.4-2.1-1.7-3.3s-0.5-2.9-0.5-5.2V208c0-2.7,0.4-4.8,1.1-6.3c0.7-1.5,1.9-2.7,3.5-3.5s3.5-1.2,5.6-1.2c2.6,0,4.7,0.5,6.4,1.5
			s2.9,2.3,3.6,3.9c0.7,1.6,1,3.9,1,6.9L181.3,213.3L181.3,213.3z M172,208.3v-2.2c0-1.6-0.1-2.6-0.3-3c-0.2-0.5-0.5-0.7-1-0.7
			c-0.6,0-1,0.2-1.2,0.6c-0.2,0.4-0.2,1.4-0.2,3.2v2.2h2.7V208.3z"/>
	</g>
	<g class="st35">
		<path class="st36" d="M67.6,231.2v4.7c-1.9,0-3,0.1-3.4,0.3c-0.3,0.2-0.5,0.7-0.5,1.5v1h3.9v4.8h-2.2v24.9h-9.3v-24.9h-1.9v-4.8
			h1.9c0-2,0.1-3.3,0.2-4c0.1-0.7,0.5-1.3,1-1.8s1.3-0.9,2.3-1.2s2.5-0.4,4.6-0.4h3.4V231.2z"/>
		<path class="st36" d="M78.9,231.2v37.1h-9.5v-37.1L78.9,231.2L78.9,231.2z"/>
		<path class="st36" d="M90.5,249.7h-8.7v-2c0-2.4,0.3-4.2,0.8-5.4c0.5-1.3,1.6-2.4,3.3-3.4c1.6-1,3.8-1.5,6.4-1.5
			c3.1,0,5.5,0.6,7.1,1.7c1.6,1.1,2.5,2.5,2.9,4.1c0.3,1.6,0.5,4.9,0.5,10v15.3h-9v-2.7c-0.6,1.1-1.3,1.9-2.2,2.4
			c-0.9,0.5-2,0.8-3.2,0.8c-1.6,0-3.1-0.5-4.5-1.4s-2-2.9-2-6v-2.5c0-2.3,0.4-3.8,1.1-4.7c0.7-0.8,2.5-1.8,5.3-2.9
			c3-1.2,4.7-2,4.9-2.4c0.2-0.4,0.3-1.3,0.3-2.5c0-1.6-0.1-2.6-0.4-3.1c-0.2-0.5-0.6-0.7-1.2-0.7s-1,0.2-1.2,0.6
			c-0.2,0.4-0.2,1.5-0.2,3.2L90.5,249.7L90.5,249.7z M93.4,253.9c-1.5,1.1-2.3,2-2.6,2.7c-0.2,0.7-0.4,1.8-0.4,3.2
			c0,1.6,0.1,2.6,0.3,3c0.2,0.5,0.6,0.7,1.2,0.7s1-0.2,1.1-0.5c0.2-0.4,0.3-1.3,0.3-2.8L93.4,253.9L93.4,253.9z"/>
		<path class="st36" d="M126.9,237.9v23.4c0,3.2-0.1,5.2-0.2,6.1s-0.7,1.9-1.5,2.9c-0.9,1-2.1,1.8-3.7,2.4c-1.6,0.5-3.6,0.8-6,0.8
			c-2.9,0-5.3-0.5-7.1-1.5c-1.8-1-2.7-3-2.8-5.9h9c0,1.3,0.5,2,1.5,2c0.7,0,1.2-0.2,1.4-0.6s0.3-1.3,0.3-2.6v-2.3
			c-0.8,0.7-1.6,1.3-2.5,1.6c-0.9,0.4-1.8,0.6-2.8,0.6c-1.7,0-3-0.3-4.1-1s-1.8-1.6-2.2-2.6c-0.4-1.1-0.6-2.6-0.6-4.7v-11
			c0-2.9,0.5-5,1.6-6.2s2.6-1.9,4.7-1.9c1.2,0,2.2,0.2,3.2,0.7s1.8,1.2,2.6,2.1l0.7-2.3L126.9,237.9L126.9,237.9z M117.6,246
			c0-1.4-0.1-2.3-0.2-2.7c-0.2-0.4-0.5-0.6-1.1-0.6c-0.5,0-0.9,0.2-1.1,0.7s-0.3,1.3-0.3,2.6v10.2c0,1.4,0.1,2.2,0.3,2.6
			c0.2,0.4,0.5,0.6,1.1,0.6s1-0.2,1.2-0.7s0.3-1.6,0.3-3.3V246H117.6z"/>
		<path class="st36" d="M139.8,231.2v4.8h-9.5v-4.8H139.8z M139.8,237.9v30.4h-9.5v-30.4H139.8z"/>
	</g>
	<g>
		<g>
			<defs>
				<rect id="SVGID_00000095329197596111333350000018271795506526694283_" width="195.6" height="280.6"/>
			</defs>
			<clipPath id="SVGID_00000139996439304391150460000016946275220715614350_">
				<use xlink:href="#SVGID_00000095329197596111333350000018271795506526694283_"  style="overflow:visible;"/>
			</clipPath>
			<path style="clip-path:url(#SVGID_00000139996439304391150460000016946275220715614350_);fill:#EB5A53;" d="M45.2,0h-29h-16v16
				c0,7,0,14,0,21c10.3,12.4,28.6,14,41,3.8c6.7-5.5,10.5-13.8,10.5-22.5C51.7,11.6,49.4,5.2,45.2,0z"/>
		</g>
	</g>
	<g>
		<g>
			<defs>
				<rect id="SVGID_00000080928445143798045960000018270725658164303254_" width="195.6" height="280.6"/>
			</defs>
			<clipPath id="SVGID_00000103232275896940360820000016465087411593109635_">
				<use xlink:href="#SVGID_00000080928445143798045960000018270725658164303254_"  style="overflow:visible;"/>
			</clipPath>
		</g>
	</g>
</g>
<g class="st35">
	<path class="st38" d="M25.8,21.3v5.3c0,1.2-0.1,2.1-0.2,2.6s-0.4,1.1-0.8,1.5s-0.9,0.8-1.5,1s-1.2,0.3-1.9,0.3
		c-0.9,0-1.7-0.1-2.4-0.3s-1.1-0.6-1.5-1s-0.6-0.9-0.8-1.5s-0.2-1.3-0.2-2.4v-5.5c0-1.5,0.1-2.5,0.4-3.3s0.7-1.3,1.5-1.7
		s1.6-0.7,2.7-0.7c0.9,0,1.6,0.2,2.3,0.5s1.2,0.7,1.5,1.1s0.6,0.9,0.7,1.5S25.8,20.1,25.8,21.3z M21.8,20c0-0.8,0-1.4-0.1-1.6
		s-0.3-0.3-0.6-0.3c-0.3,0-0.5,0.1-0.6,0.3s-0.1,0.7-0.1,1.6v7.7c0,0.9,0,1.5,0.1,1.7s0.3,0.3,0.6,0.3s0.5-0.1,0.6-0.3
		s0.1-0.7,0.1-1.5V20z"/>
	<path class="st38" d="M34.7,22.8c0.6,0.2,1,0.6,1.3,1.1s0.5,1.6,0.5,3.3c0,1.3-0.1,2.2-0.4,2.8s-0.7,1.1-1.4,1.5s-1.7,0.6-2.9,0.6
		c-1.2,0-2.1-0.2-2.8-0.6s-1.2-0.9-1.5-1.5s-0.4-1.6-0.4-3.1c0-1,0.1-1.8,0.2-2.5s0.6-1.3,1.4-1.7c-0.5-0.2-0.9-0.6-1.1-1.1
		s-0.4-1.2-0.4-1.9c0-1.4,0.4-2.4,1.1-3.1c0.8-0.7,1.9-1,3.4-1c1.7,0,2.9,0.4,3.6,1.1c0.7,0.7,1,1.8,1,3.1c0,0.9-0.1,1.5-0.3,1.8
		S35.4,22.4,34.7,22.8z M32.6,26c0-0.6-0.1-1-0.2-1.2s-0.3-0.3-0.6-0.3c-0.3,0-0.4,0.1-0.6,0.3s-0.2,0.6-0.2,1.2V28
		c0,0.7,0.1,1.1,0.2,1.3s0.3,0.3,0.6,0.3c0.3,0,0.5-0.1,0.6-0.3s0.1-0.6,0.1-1.3V26z M32.5,19.4c0-0.5,0-0.9-0.1-1.1
		s-0.3-0.3-0.5-0.3c-0.3,0-0.4,0.1-0.5,0.3s-0.1,0.5-0.1,1v1.2c0,0.5,0.1,0.8,0.2,1s0.3,0.3,0.5,0.3c0.3,0,0.4-0.1,0.5-0.3
		s0.1-0.5,0.1-1.1V19.4z"/>
</g>
</svg>
