<?xml version="1.0" encoding="utf-8"?>
<!-- Generator: Adobe Illustrator 26.0.3, SVG Export Plug-In . SVG Version: 6.00 Build 0)  -->
<svg version="1.1" id="Слой_1" xmlns="http://www.w3.org/2000/svg" xmlns:xlink="http://www.w3.org/1999/xlink" x="0px" y="0px"
	 viewBox="0 0 195.6 280.6" style="enable-background:new 0 0 195.6 280.6;" xml:space="preserve">
<style type="text/css">
	.st0{clip-path:url(#SVGID_00000071520306722100353360000009895249876844419516_);}
	.st1{clip-path:url(#SVGID_00000066481240042485200030000000643696329662845863_);}
	.st2{fill:#1A1A1A;}
	.st3{fill:#FFFFFF;}
	.st4{fill:#A1BAC7;}
	.st5{fill:#CEE0EA;}
	.st6{fill:#787878;}
	.st7{fill:#545454;}
	.st8{fill:#D2D2D2;}
	.st9{fill:#F59D4B;}
	.st10{fill:#666666;}
	.st11{fill:#E94C44;}
	.st12{fill:#CCCCCC;}
	.st13{fill:#EB5A53;}
	.st14{fill:#BADBE9;}
	.st15{fill:#6B6B6B;}
	.st16{fill:#959595;}
	.st17{fill:#505050;}
	.st18{fill:#5F5F5F;}
	.st19{fill:#434343;}
	.st20{fill:#313131;}
	.st21{fill:#CFCFCF;}
	.st22{fill:#767676;}
	.st23{fill:#B3B3B3;}
	.st24{font-family:'Impact';}
	.st25{font-size:35px;}
	.st26{clip-path:url(#SVGID_00000071520306722100353360000009895249876844419516_);fill:#EB5A53;}
	.st27{clip-path:url(#SVGID_00000071520306722100353360000009895249876844419516_);enable-background:new    ;}
	.st28{font-size:20px;}
</style>
<g>
	<defs>
		<rect id="SVGID_1_" x="0" y="0" width="195.6" height="280.6"/>
	</defs>
	<clipPath id="SVGID_00000013171382528843275100000017627501186492506025_">
		<use xlink:href="#SVGID_1_"  style="overflow:visible;"/>
	</clipPath>
	<g style="clip-path:url(#SVGID_00000013171382528843275100000017627501186492506025_);">
		<defs>
			<rect id="SVGID_00000043459117946742818540000007699695895316342715_" x="-3" y="-2.1" width="201.5" height="284.9"/>
		</defs>
		<clipPath id="SVGID_00000173133329432179288770000014828090071259277475_">
			<use xlink:href="#SVGID_00000043459117946742818540000007699695895316342715_"  style="overflow:visible;"/>
		</clipPath>
		<g style="clip-path:url(#SVGID_00000173133329432179288770000014828090071259277475_);">
			<path class="st2" d="M33.5,94.3c-14.4,0-27.4,2.2-37.1,5.9c-4.4,1.5-8.5,3.9-12.1,6.9c-3.1,2.8-5.3,6.4-5.3,10.5v26.2
				c0,7.5,6.1,13.5,13.5,13.5h112.3v-8.2H-7.6c-2.9,0.1-5.2-2.2-5.3-5.1c0-0.1,0-0.1,0-0.2v-26.2c0-1.2,0.6-2.6,2.6-4.4
				c2.8-2.3,6-4.1,9.5-5.3c8.5-3.2,20.7-5.3,34.2-5.3h71.2v-8.2H33.5z"/>
			<path class="st2" d="M108.7,45.6c-2.5,0-4.9,1.3-6.1,3.5l-2.3,3.9c-1.3,2.2-1.3,4.9,0,7.1l2.3,3.9c1.3,2.2,3.6,3.5,6.1,3.5h8.4
				v-8.2h-7.8l-1.6-2.8l1.6-2.8h7.8v-8.2H108.7z"/>
			<path class="st2" d="M114.5,45.6v8.2h7.8l1.6,2.8l-1.6,2.8h-7.8v8.2h8.4c2.5,0,4.9-1.4,6.1-3.6l2.3-3.9c1.3-2.2,1.3-4.9,0-7.1
				l-2.3-3.9c-1.3-2.2-3.6-3.5-6.1-3.5L114.5,45.6z"/>
			<path class="st2" d="M83.2,59.4c-4.1,0-7.4,0.7-10.1,2.4s-4.3,4.2-5.8,6.8l-19.8,34.3l7.1,4.2l19.8-34.3c1.3-2.3,2.2-3.4,3.2-4
				s2.4-1.1,5.7-1.1h65.2c3.2,0,4.7,0.5,5.6,1.1s1.9,1.7,3.2,4L177,107l7.1-4.1l-19.8-34.3c-1.5-2.6-3.1-5.1-5.8-6.8
				s-6-2.4-10.1-2.4H83.2z"/>
			<path class="st2" d="M102.1,94.3v8.2h98.6c10.4-0.1,18.9,8.3,18.9,18.7c0,0.1,0,0.2,0,0.3v22.3c0.1,2.9-2.2,5.2-5.1,5.3
				c-0.1,0-0.1,0-0.2,0H102.1v8.2h112.3c7.4,0,13.5-6.1,13.5-13.5v-22.3c0-15-12.2-27.2-27.2-27.2H102.1z"/>
			<path class="st3" d="M51,104.9l19.8-34.3c2.8-4.9,5-7.1,12.4-7.1h65.2c7.3,0,9.6,2.3,12.4,7.1l19.8,34.3H51z"/>
			<path class="st4" d="M62.9,98.4L79,70.5h73.6l16.1,27.9H62.9z"/>
			<path class="st5" d="M134.3,70.5l-11.6,27.9h21.5l10.2-24.7l-1.9-3.2H134.3z"/>
			<path class="st5" d="M90.5,70.5L79,98.4h21.5L112,70.5H90.5z"/>
			<path class="st2" d="M78.4,69.5l-20.1,34.9l1.8,1l19.5-33.8H152l19.6,33.8l1.8-1l-20.1-34.9H78.4z"/>
			<path class="st2" d="M83.2,62.5c-3.8,0-6.4,0.6-8.4,1.9s-3.4,3.3-4.8,5.8l-19.8,34.3l1.8,1l19.8-34.2c1.4-2.4,2.6-4,4.2-5.1
				s3.8-1.6,7.3-1.6h65.2c3.6,0,5.7,0.6,7.3,1.6s2.8,2.7,4.2,5.1l19.8,34.3l1.8-1l-19.8-34.3c-1.4-2.5-2.8-4.4-4.8-5.8
				s-4.7-1.9-8.4-1.9H83.2z"/>
			<path class="st6" d="M33.5,98.4C5.5,98.4-17,107-17,117.6v26.2c0,5.2,4.2,9.4,9.4,9.4c0,0,0,0,0,0h222c5.2,0,9.4-4.2,9.4-9.4
				c0,0,0,0,0-0.1v-22.3c0-12.7-10.2-23-22.9-23.1c0,0-0.1,0-0.1,0H33.5z"/>
			<path class="st7" d="M-11.2,108.7c-3.7,2.7-5.8,5.7-5.8,8.9v26.2c0,5.2,4.2,9.4,9.4,9.4c0,0,0,0,0,0h221.9c5.2,0,9.4-4.2,9.4-9.4
				c0,0,0,0,0-0.1v-22.3c0-4.6-1.3-9-3.9-12.8L-11.2,108.7z"/>
			<path class="st6" d="M27.8,117.1c-16.3,0-29.6,13.2-29.6,29.6c0,2.2,0.2,4.4,0.7,6.5h57.8c3.6-16-6.5-31.8-22.4-35.4
				C32.1,117.4,30,117.1,27.8,117.1z"/>
			<path class="st6" d="M179,117.1c-16.3,0-29.6,13.3-29.6,29.6c0,2.2,0.2,4.3,0.7,6.5h57.8c3.6-16-6.5-31.8-22.4-35.4
				C183.3,117.4,181.2,117.1,179,117.1z"/>
			<path class="st3" d="M-11.8,109.1c-3.3,2.6-5.2,5.4-5.2,8.5v1H2.1l7.3-9.5L-11.8,109.1z"/>
			<path class="st8" d="M62.9,98.4v48.3h86.5c0-12.3,7.7-23.4,19.2-27.7v-0.1V98.4H62.9z"/>
			<rect x="62.9" y="98.4" class="st3" width="105.8" height="10.2"/>
			<path class="st2" d="M33.5,97.4c-14.1,0-26.8,2.1-36,5.7c-4.1,1.4-7.8,3.5-11.1,6.3c-2.7,2.4-4.3,5.2-4.3,8.2v26.2
				c0,5.7,4.6,10.4,10.4,10.4h112.3v-2H-7.6c-4.6,0-8.4-3.7-8.4-8.3c0,0,0-0.1,0-0.1v-26.2c0-2.3,1.2-4.5,3.6-6.7
				c3.1-2.6,6.7-4.6,10.5-5.9c9-3.4,21.5-5.5,35.3-5.5h71.2v-2.1H33.5z"/>
			<path class="st2" d="M27.8,116.1c-16.9,0-30.6,13.7-30.6,30.7c0,2.2,0.2,4.5,0.7,6.7l2-0.4c-3.5-15.4,6.2-30.7,21.6-34.1
				s30.7,6.2,34.1,21.6c0.9,4.1,0.9,8.4,0,12.5l2,0.4c0.5-2.2,0.7-4.4,0.7-6.7C58.4,129.8,44.7,116.1,27.8,116.1L27.8,116.1z"/>
			<path class="st2" d="M179,116.1c-16.9,0-30.6,13.7-30.6,30.7c0,2.2,0.2,4.5,0.7,6.7l2-0.4c-3.5-15.4,6.2-30.7,21.6-34.1
				c15.4-3.5,30.7,6.2,34.1,21.6c0.9,4.1,0.9,8.4,0,12.5l2,0.4c3.7-16.5-6.7-32.9-23.2-36.6C183.5,116.3,181.2,116.1,179,116.1z"/>
			<rect x="57.4" y="145.7" class="st2" width="92.1" height="2.1"/>
			<path class="st9" d="M9.4,109.1l-7.3,9.5h-3.3v-9.5H9.4z"/>
			<path class="st2" d="M-11.8,108.1v2.1H7.3l-5.7,7.5H-17v2H2.6l8.9-11.6L-11.8,108.1z"/>
			<rect x="114.8" y="70.5" class="st2" width="2.1" height="76.2"/>
			<rect x="61.9" y="98.4" class="st2" width="2" height="48.3"/>
			<rect x="167.7" y="98.4" class="st2" width="2.1" height="20.5"/>
			<path class="st10" d="M87.4,104.9c-2.1,0-3.8,1.7-3.8,3.8c0,2.1,1.7,3.8,3.8,3.8h15.1c2.1,0,3.8-1.7,3.8-3.8
				c0-2.1-1.7-3.8-3.8-3.8l0,0H87.4z"/>
			<path class="st2" d="M87.4,103.9c-2.6,0.1-4.7,2.4-4.6,5c0.1,2.5,2.1,4.5,4.6,4.6h8.8v-2h-8.8c-1.5-0.1-2.7-1.4-2.6-2.9
				c0.1-1.4,1.2-2.5,2.6-2.6h8.8v-2L87.4,103.9z"/>
			<path class="st10" d="M140,104.9c-2.1,0-3.8,1.7-3.8,3.8c0,2.1,1.7,3.8,3.8,3.8h15c2.1,0,3.8-1.7,3.8-3.8c0-2.1-1.7-3.8-3.8-3.8
				H140z"/>
			<path class="st2" d="M140,103.9c-2.6-0.1-4.9,1.9-5,4.6s1.9,4.9,4.6,5c0.1,0,0.3,0,0.4,0h8.8v-2H140c-1.5-0.1-2.7-1.4-2.6-2.9
				c0.1-1.4,1.2-2.5,2.6-2.6h8.8v-2L140,103.9z"/>
			<path class="st11" d="M108.7,49.7c-1.1,0-2,0.6-2.6,1.5l-2.3,3.9c-0.5,0.9-0.5,2.1,0,3l2.3,3.9c0.5,0.9,1.5,1.5,2.6,1.5h14.2
				c1.1,0,2-0.6,2.6-1.5l2.3-3.9c0.5-0.9,0.5-2.1,0-3l-2.3-3.9c-0.5-0.9-1.5-1.5-2.6-1.5L108.7,49.7z"/>
			<path class="st2" d="M108.7,48.7c-1.4,0-2.7,0.8-3.5,2l-2.2,3.9c-0.7,1.2-0.7,2.8,0,4l2.3,3.9c0.7,1.2,2,2,3.5,2h8.4v-2h-8.4
				c-0.7,0-1.3-0.4-1.7-1l-2.3-3.9c-0.4-0.6-0.4-1.4,0-2l2.2-3.9c0.3-0.6,1-1,1.7-1h8.4v-2L108.7,48.7z"/>
			<path class="st2" d="M114.5,48.7v2h8.4c0.7,0,1.3,0.4,1.7,1l2.3,3.9c0.4,0.6,0.4,1.4,0,2l-2.3,3.9c-0.3,0.6-1,1-1.7,1h-8.4v2h8.4
				c1.4,0,2.8-0.8,3.5-2l2.3-3.9c0.7-1.2,0.7-2.8,0-4l-2.3-3.9c-0.7-1.2-2-2-3.5-2L114.5,48.7z"/>
			<path class="st2" d="M102.1,97.4v2.1h98.6c12.2,0,22,9.8,22,22l0,0v22.3c0,4.6-3.7,8.4-8.3,8.4c0,0-0.1,0-0.1,0H102.1v2h112.3
				c5.8,0,10.4-4.7,10.4-10.4l0,0v-22.2c0-13.3-10.7-24.1-24-24.1c0,0,0,0-0.1,0H102.1z"/>
			<path class="st2" d="M93.7,103.9v2h8.8c1.5-0.1,2.8,1.1,2.9,2.6s-1.1,2.8-2.6,2.9c-0.1,0-0.2,0-0.3,0h-8.8v2h8.8
				c2.6,0.1,4.9-1.9,5-4.6c0.1-2.6-1.9-4.9-4.6-5c-0.1,0-0.3,0-0.4,0L93.7,103.9z"/>
			<path class="st2" d="M146.2,103.9v2h8.8c1.5,0.1,2.7,1.4,2.6,2.9c-0.1,1.4-1.2,2.5-2.6,2.6h-8.8v2h8.8c2.6,0.1,4.9-1.9,5-4.6
				c0.1-2.6-1.9-4.9-4.6-5c-0.1,0-0.3,0-0.4,0L146.2,103.9z"/>
			<path class="st2" d="M179,122.7c-13.3,0-24,10.7-24,24c0,13.3,10.7,24,24,24s24-10.7,24-24c0,0,0,0,0,0
				C203,133.4,192.3,122.7,179,122.7z"/>
			<path class="st12" d="M179,134.4c-6.8,0-12.3,5.5-12.3,12.3c0,6.8,5.5,12.3,12.3,12.3s12.3-5.5,12.3-12.3c0-3.3-1.3-6.4-3.6-8.7
				C185.4,135.7,182.3,134.4,179,134.4z"/>
			<path class="st3" d="M179,137.3c-5.2,0-9.4,4.2-9.4,9.4c0,5.2,4.2,9.4,9.4,9.4s9.4-4.2,9.4-9.4c0-2.5-1-4.9-2.8-6.6
				C183.9,138.3,181.5,137.3,179,137.3z"/>
			<path class="st2" d="M181.7,145.4c0.2,0.4,0.3,0.8,0.3,1.3c-0.1,1.6-1.5,2.9-3.1,2.8c-1.5-0.1-2.7-1.3-2.8-2.8
				c0-0.5,0.1-0.9,0.3-1.3h-2.2c-0.8,2.7,0.8,5.4,3.4,6.2c2.7,0.8,5.4-0.8,6.2-3.4c0.1-0.5,0.2-1,0.2-1.5c0-0.4-0.1-0.9-0.2-1.3
				H181.7z"/>
			<path class="st6" d="M184.3,126c-0.6-0.1-1.1,0.3-1.1,0.9c-0.1,0.6,0.3,1.1,0.9,1.1c6.7,1.8,11.9,7,13.6,13.6
				c0.1,0.5,0.6,0.9,1.2,0.8c0,0,0.1,0,0.1,0c0.3-0.1,0.5-0.3,0.6-0.5c0.1-0.2,0.2-0.5,0.1-0.8c-2-7.4-7.7-13.1-15.1-15.1
				C184.5,126,184.4,126,184.3,126L184.3,126z"/>
			<path class="st2" d="M27.8,122.7c-13.3,0-24,10.7-24,24c0,13.3,10.7,24,24,24s24-10.7,24-24c0,0,0,0,0,0
				C51.8,133.4,41,122.7,27.8,122.7z"/>
			<path class="st12" d="M27.8,134.4c-6.8,0-12.3,5.5-12.3,12.3c0,6.8,5.5,12.3,12.3,12.3s12.3-5.5,12.3-12.3c0-3.3-1.3-6.4-3.6-8.7
				C34.2,135.7,31,134.4,27.8,134.4z"/>
			<path class="st3" d="M27.8,137.3c-5.2,0-9.4,4.3-9.4,9.5s4.3,9.4,9.5,9.4c5.2,0,9.4-4.3,9.4-9.5c0-2.5-1-4.9-2.8-6.6
				C32.7,138.2,30.3,137.2,27.8,137.3L27.8,137.3z"/>
			<path class="st2" d="M30.4,145.4c0.2,0.4,0.3,0.8,0.3,1.3c-0.1,1.6-1.5,2.9-3.1,2.8c-1.5-0.1-2.7-1.3-2.8-2.8
				c0-0.5,0.1-0.9,0.3-1.3H23c-0.7,2.7,0.8,5.4,3.5,6.2s5.4-0.8,6.2-3.5c0.2-0.9,0.2-1.8,0-2.7H30.4z"/>
			<path class="st6" d="M33,126c-0.6-0.1-1.1,0.3-1.1,0.9s0.3,1.1,0.9,1.1c6.7,1.8,11.9,7,13.6,13.6c0.1,0.3,0.2,0.5,0.5,0.6
				c0.5,0.3,1.1,0.2,1.4-0.2c0.2-0.3,0.2-0.6,0.1-0.9c-2-7.4-7.7-13.1-15.1-15.1C33.2,126,33.1,126,33,126L33,126z"/>
			<path class="st2" d="M179,141.7c-2.8,0-5,2.3-5,5c0,0.4,0.1,0.8,0.2,1.3h2.2c-0.7-1.5-0.1-3.2,1.3-3.9s3.2-0.1,3.9,1.3
				c0.4,0.8,0.4,1.8,0,2.6h2.2c0.1-0.4,0.2-0.9,0.2-1.3C184,143.9,181.8,141.7,179,141.7L179,141.7z"/>
			<path class="st2" d="M27.8,141.7c-2.8,0-5,2.2-5,5c0,0.4,0.1,0.9,0.2,1.3h2.2c-0.2-0.4-0.3-0.8-0.3-1.3c-0.1-1.6,1.1-3,2.8-3.1
				c1.6-0.1,3,1.1,3.1,2.8c0,0.1,0,0.2,0,0.3c0,0.5-0.1,0.9-0.3,1.3h2.1c0.1-0.4,0.2-0.9,0.2-1.3C32.8,143.9,30.5,141.7,27.8,141.7
				L27.8,141.7z"/>
			<path class="st13" d="M43.7,180.4c0-12.4,5.4-14.8,9.2-14.8s9.2,2.5,9.2,14.8s-4.1,29.9-9.2,29.9S43.7,192.8,43.7,180.4z"/>
			<path class="st2" d="M52.9,163c-3.1,0-6,1.3-8,3.7c-2.4,2.8-3.8,7.1-3.8,13.7c0.1,6.9,1,13.7,2.9,20.3c0.7,2.8,1.8,5.5,3.2,8
				c1.3,2.2,3,4.2,5.8,4.2s4.5-2,5.8-4.2c1.4-2.5,2.5-5.2,3.2-8c1.8-6.6,2.7-13.4,2.7-20.3c0-6.6-1.4-10.9-3.8-13.7
				C58.9,164.3,56,163,52.9,163L52.9,163z M52.9,168.1c1.6-0.1,3.1,0.6,4.1,1.9c1.3,1.5,2.6,4.6,2.6,10.4
				c-0.1,6.4-0.9,12.7-2.6,18.9c-0.6,2.4-1.5,4.6-2.7,6.8c-0.3,0.6-0.8,1.2-1.4,1.6c-0.6-0.4-1-1-1.4-1.6c-1.2-2.1-2.1-4.4-2.7-6.8
				c-1.7-6.2-2.5-12.5-2.6-18.9c0-5.8,1.3-8.9,2.6-10.4C49.9,168.8,51.4,168.1,52.9,168.1L52.9,168.1z"/>
			<path class="st13" d="M-2.8,180.4c0-12.4,5.4-14.8,9.2-14.8s9.2,2.5,9.2,14.8s-4.1,29.9-9.2,29.9S-2.8,192.8-2.8,180.4z"/>
			<path class="st2" d="M6.4,163c-3.1,0-6,1.3-8,3.7c-2.4,2.8-3.8,7.1-3.8,13.7c0.1,6.9,1,13.7,2.8,20.3c0.7,2.8,1.8,5.5,3.2,8
				c1.3,2.2,3,4.2,5.8,4.2s4.5-2,5.8-4.2c1.4-2.5,2.5-5.2,3.2-8c1.8-6.6,2.7-13.4,2.8-20.3c0-6.6-1.4-10.9-3.8-13.7
				C12.4,164.3,9.4,163,6.4,163L6.4,163z M6.4,168.1c1.6-0.1,3.1,0.6,4,1.9c1.3,1.5,2.6,4.6,2.6,10.4c-0.1,6.4-0.9,12.7-2.6,18.9
				c-0.6,2.4-1.5,4.6-2.7,6.8c-0.3,0.6-0.8,1.2-1.4,1.6c-0.6-0.4-1-1-1.4-1.6c-1.2-2.1-2.1-4.4-2.7-6.8c-1.7-6.2-2.5-12.5-2.6-18.9
				c0-5.8,1.3-8.9,2.6-10.4C3.3,168.8,4.8,168.1,6.4,168.1L6.4,168.1z"/>
			<path class="st13" d="M90,119c-3.6-11.8,0.9-15.8,4.5-16.8s9.5-0.3,13.1,11.5s4.7,29.8-0.1,31.3S93.6,130.9,90,119z"/>
			<path class="st2" d="M93.7,101.1c-2.9,0.9-5.3,3-6.6,5.8c-1.4,3.3-1.6,7.9,0.3,14.2c2,6.5,4.9,12.8,8.6,18.6
				c1.5,2.5,3.3,4.7,5.4,6.7c1.9,1.7,4.1,3.1,6.8,2.3s3.7-3.2,4.3-5.7c0.6-2.8,0.9-5.7,0.7-8.6c-0.2-6.9-1.3-13.7-3.2-20.2
				c-1.9-6.3-4.5-10-7.6-12C99.9,100.7,96.7,100.2,93.7,101.1L93.7,101.1z M95.2,106c1.5-0.5,3.1-0.3,4.4,0.6
				c1.7,1.1,3.8,3.7,5.5,9.2c1.8,6.1,2.8,12.5,3,18.9c0.1,2.4-0.1,4.9-0.6,7.2c-0.1,0.7-0.4,1.4-0.8,2c-0.7-0.3-1.3-0.7-1.8-1.2
				c-1.7-1.7-3.2-3.6-4.5-5.7c-3.4-5.4-6.1-11.2-8-17.3c-1.7-5.6-1.3-8.8-0.5-10.7C92.4,107.5,93.7,106.4,95.2,106L95.2,106z"/>
			<path class="st2" d="M29.7,47.2c-39.8,0-72.1,32.3-72.1,72.1c0,39.8,32.3,72.1,72.1,72.1s72.1-32.3,72.1-72.1c0,0,0,0,0,0
				C101.7,79.5,69.5,47.2,29.7,47.2z M29.7,55.4c35.3,0,63.9,28.6,63.9,63.9s-28.6,63.9-63.9,63.9s-63.9-28.6-63.9-63.9l0,0
				c0-35.2,28.5-63.8,63.7-63.9C29.6,55.4,29.6,55.4,29.7,55.4z"/>
			<path class="st13" d="M-38.3,119.3c0-37.6,30.4-68,68-68c37.6,0,68,30.4,68,68c0,37.6-30.4,68-68,68c-18,0-35.3-7.2-48.1-19.9
				C-31.2,154.6-38.3,137.3-38.3,119.3z"/>
			<path class="st3" d="M-29.7,115.7c0-34.7,28.2-62.9,62.9-62.9S96.1,81,96.1,115.7s-28.2,62.9-62.9,62.9
				c-16.7,0-32.7-6.6-44.5-18.4C-23.1,148.4-29.7,132.4-29.7,115.7z"/>
			<path class="st13" d="M-38.3,119.3c0,37.6,30.4,68,68,68s68-30.4,68-68H-38.3z"/>
			<path class="st13" d="M-29.5,119.3c1.9,34.6,31.5,61.2,66.2,59.3c32-1.8,57.5-27.3,59.3-59.3H-29.5z"/>
			<path class="st2" d="M29.7,50.2c-38.1,0-69,30.9-69,69s30.9,69,69,69s69-30.9,69-69S67.8,50.2,29.7,50.2z M29.7,52.3
				c37,0,67,30,67,67s-30,67-67,67s-67-30-67-67c0,0,0,0,0,0C-37.4,82.3-7.4,52.4,29.7,52.3C29.6,52.4,29.6,52.4,29.7,52.3
				L29.7,52.3z"/>
			<path class="st2" d="M93.7,151.3l-1-0.1l1.8-13.7l1,0.1L93.7,151.3z"/>
			<path class="st2" d="M1.2,95.5c-1.5,1.8-2.3,4.1-2.2,6.5v5.2c-0.2,5.7,4.3,10.5,10.1,10.7s10.5-4.3,10.7-10.1c0-0.2,0-0.4,0-0.6
				v-4L1.2,95.5z"/>
			<path class="st3" d="M12,101.5c-1.9,0-3.3,1.5-3.3,3.3c0,1.9,1.5,3.3,3.4,3.3s3.3-1.5,3.3-3.3l0,0C15.4,103,13.9,101.5,12,101.5
				C12,101.5,12,101.5,12,101.5z"/>
			<path class="st2" d="M60.2,95.5l-18.5,7.7v4c0,5.7,4.6,10.4,10.4,10.4s10.4-4.6,10.4-10.4V102C62.5,99.6,61.7,97.3,60.2,95.5
				L60.2,95.5z"/>
			<path class="st3" d="M54.8,101.5c-1.9,0-3.4,1.5-3.4,3.3s1.5,3.3,3.3,3.3c1.9,0,3.4-1.5,3.4-3.3l0,0
				C58.2,103,56.7,101.5,54.8,101.5C54.8,101.5,54.8,101.5,54.8,101.5z"/>
			<path class="st3" d="M15.6,145.4c-1.7,0-3.2-1.4-3.2-3.1c0,0,0,0,0,0v-3.6c0-10.1,8.2-18.3,18.3-18.3S49,128.6,49,138.7v3.6
				c0,1.7-1.4,3.2-3.1,3.2c0,0,0,0,0,0H15.6z"/>
			<path class="st14" d="M34.3,145.4L34.3,145.4c0,0,3.1-6,0-11.5c3.9-6.1,0.5-13.1,0.5-13.1c8.3,1.9,14.3,9.3,14.3,17.8v3.6
				c0,1.7-1.4,3.2-3.1,3.2c0,0,0,0,0,0H34.3z"/>
			<path class="st2" d="M43.2,145.4L43.2,145.4c2.1-2.4,2.1-6,0-8.4c4.1-3.8,0.3-11.3,0.3-11.3c3.5,3.4,5.5,8.1,5.5,13v3.6
				c0,1.7-1.4,3.2-3.1,3.2c0,0,0,0,0,0L43.2,145.4z"/>
			<path class="st2" d="M18.1,145.4L18.1,145.4c-2.1-2.4-2.1-6,0-8.4c-4.1-3.8-0.3-11.3-0.3-11.3c-3.5,3.4-5.5,8.1-5.5,13v3.6
				c0,1.7,1.4,3.2,3.1,3.2c0,0,0,0,0,0L18.1,145.4z"/>
			<path class="st2" d="M30.7,119.4H30v2h0.7c9.5,0,17.3,7.7,17.3,17.3c0,0,0,0,0,0v3.6c0,1.2-0.9,2.1-2.1,2.1c0,0,0,0,0,0H30v2
				h15.8c2.3,0,4.1-1.9,4.2-4.2v-3.6C50,128,41.4,119.4,30.7,119.4L30.7,119.4z"/>
			<path class="st2" d="M30.7,119.4c-10.7,0-19.3,8.6-19.3,19.3v3.6c0,2.3,1.9,4.2,4.2,4.2h15.8v-2H15.6c-1.2,0-2.1-0.9-2.2-2.1
				c0,0,0,0,0,0v-3.6c0-9.5,7.7-17.3,17.3-17.3c0,0,0,0,0,0h0.7v-2L30.7,119.4z"/>
			<path class="st2" d="M30.2,41.3h-0.7v8.2h0.7c9.9,0,19.7,1.7,29,5.2v14.6c0,2.2-2.1,5.2-7.4,7.8s-13,4.3-21.6,4.3h-0.7v8.2h0.7
				c9.7,0,18.5-1.9,25.2-5.2s12-8.4,12-15.1V49.1L64.9,48C53.9,43.5,42.1,41.2,30.2,41.3z"/>
			<path class="st2" d="M30.2,41.3c-11.9-0.1-23.7,2.2-34.7,6.8L-7,49.2v20.1C-7,76-1.8,81.1,5,84.4s15.5,5.2,25.2,5.2h0.7v-8.2
				h-0.7c-8.6,0-16.4-1.8-21.6-4.3s-7.4-5.6-7.4-7.8V54.7c9.3-3.5,19.1-5.2,29-5.2h0.7v-8.2L30.2,41.3z"/>
			<path class="st2" d="M30.2,10.5l-0.9,0.2C2.2,16.8-12.2,26.8-17.2,37.5c-2.5,5.3-2.4,11.1,0.3,15.5s7.6,7.1,13.4,7.9l1.1-8.1
				c-3.9-0.5-6.3-2.2-7.5-4.1s-1.5-4.3,0.1-7.7c3.1-6.7,14.9-16.2,40-22c25.1,5.8,36.8,15.4,40,22c1.6,3.4,1.3,5.8,0.1,7.7
				s-3.6,3.5-7.5,4.1l1.1,8.2c5.8-0.8,10.7-3.5,13.4-7.9s2.8-10.1,0.3-15.5c-5-10.7-19.4-20.7-46.5-26.8L30.2,10.5z"/>
			<path class="st15" d="M63.3,56.8c19.4-2.5,19.8-30.2-33.1-42.1C-22.7,26.6-22.4,54.2-2.9,56.8H63.3z"/>
			<path class="st15" d="M30.2,45.4c-11.4-0.1-22.6,2.1-33.1,6.5v17.4c0,8.9,14.8,16.2,33.1,16.2s33.1-7.2,33.1-16.2V51.8
				C52.8,47.5,41.6,45.3,30.2,45.4z"/>
			<path class="st16" d="M16.3,46.5c-2.9,0.4-5.9,1-8.8,1.8v22.9c0,4.2,1.4,8.2,4,11.5c2.5,0.8,5.1,1.5,7.8,1.9c-2-3.6-3-7.6-3-11.6
				V46.5z"/>
			<path class="st17" d="M44,18.5c4.5,4.6,6.9,10.7,6.9,17.1v21.1h12.4C80.9,54.5,82.9,31.6,44,18.5z"/>
			<path class="st17" d="M42.6,46.3v25.1c-0.1,5.1-2.1,10-5.6,13.8c15-1.5,26.3-8.1,26.3-15.8V51.8C56.7,49,49.7,47.2,42.6,46.3z"/>
			<path class="st18" d="M30.2,45.4c-11.4-0.1-22.6,2.1-33.1,6.5v15.8c10.7-3.3,21.9-5,33.1-4.9c11.2-0.1,22.4,1.6,33.1,4.9V51.8
				C52.8,47.5,41.6,45.3,30.2,45.4z"/>
			<path class="st19" d="M30.2,51C18.9,51,7.7,52.9-2.9,56.8v5.4c10.7-3.3,21.9-5,33.1-5c11.2,0,22.4,1.7,33.1,5v-5.4
				C52.7,52.9,41.5,51,30.2,51z"/>
			<path class="st2" d="M30.2,44.4h-0.7v2.1h0.7c11-0.1,21.9,2,32.1,6.1v16.8c0,3.9-3.3,7.7-9.1,10.5s-14,4.6-23,4.6h-0.7v2.1h0.7
				c9.3,0,17.7-1.8,23.9-4.8s10.3-7.3,10.3-12.4V51.1l-0.6-0.3C53.1,46.5,41.7,44.3,30.2,44.4L30.2,44.4z"/>
			<path class="st2" d="M30.2,13.6H30c-26.6,6-40.1,15.9-44.4,25.1c-2.2,4.6-2,9.1,0.2,12.5s6.1,5.8,11.3,6.5l0.3-2
				c-4.6-0.6-8-2.7-9.7-5.5s-2-6.5,0-10.6c3.9-8.2,16.6-18,42.8-23.9c26,5.9,38.8,15.7,42.7,23.9c1.9,4.1,1.7,7.8,0,10.6
				s-5.1,4.9-9.7,5.5l0.3,2c5.1-0.7,9.1-3,11.2-6.5s2.3-7.9,0.2-12.5C70.5,29.6,57,19.7,30.4,13.7L30.2,13.6z"/>
			<path class="st2" d="M30.2,61.7c-11.3-0.1-22.6,1.6-33.5,5l0.6,2c10.6-3.3,21.7-5,32.8-4.9c11.1-0.1,22.2,1.6,32.8,4.9l0.6-2
				C52.8,63.3,41.5,61.6,30.2,61.7L30.2,61.7z"/>
			<path class="st18" d="M16.3,52c-3,0.4-5.9,1-8.8,1.6v5.8c2.9-0.6,5.8-1,8.8-1.4V52z"/>
			<path class="st20" d="M42.6,51.8v6c7,0.7,14,2.2,20.7,4.3v-5.4C56.6,54.3,49.7,52.6,42.6,51.8L42.6,51.8z"/>
			<path class="st2" d="M30.2,56.2c-11.3,0-22.6,1.6-33.4,5l0.6,2c10.6-3.3,21.7-4.9,32.8-4.9c11.1-0.1,22.2,1.6,32.8,4.9l0.6-2
				C52.8,57.8,41.5,56.1,30.2,56.2L30.2,56.2z"/>
			<path class="st2" d="M30.2,50c-11.4,0-22.7,1.9-33.5,5.8l0.7,1.9C7.9,53.9,19,52,30.2,52.1C41.4,52,52.5,53.9,63,57.7l0.7-1.9
				C53,51.9,41.6,49.9,30.2,50z"/>
			<path class="st21" d="M30.2,20l-3.1,3.1h-4.4v4.4l-3.1,3.1l3.1,3.1V38h4.4l3.1,3.1l3.1-3.1h4.4v-4.4l3.1-3.1l-3.1-3.1v-4.4h-4.4
				L30.2,20z"/>
			<path class="st3" d="M30.2,20l-3.1,3.1h-4.4v4.4l-3.1,3.1l3.1,3.1V38l15-15h-4.4L30.2,20z"/>
			<path class="st2" d="M30.2,18.6l-0.7,0.7l0,0v2.9l0.7-0.7l2.7,2.7h3.8v3.8l2.7,2.7l-2.7,2.7V37h-3.8l-2.7,2.7L29.5,39v2.9
				l0.7,0.7l3.5-3.5h5v-5l3.5-3.5l-3.5-3.5v-5h-5L30.2,18.6z"/>
			<path class="st2" d="M30.2,44.4c-11.5-0.1-22.9,2.2-33.5,6.5l-0.6,0.3v18.1c0,5,4.1,9.3,10.3,12.4s14.6,4.8,23.9,4.8h0.7v-2.1
				h-0.7c-9,0-17.2-1.8-23-4.6s-9.1-6.6-9.1-10.5V52.6c10.2-4.1,21.1-6.2,32.1-6.2h0.7v-2L30.2,44.4z"/>
			<path class="st2" d="M30.2,18.6l-0.7,0.7l-2.8,2.8h-5v5l-3.5,3.5l3.5,3.5v5h5l3.5,3.5l0.7-0.7V39l-0.7,0.7L27.5,37h-3.8v-3.8
				l-2.7-2.7l2.7-2.7v-3.8h3.8l2.7-2.7l0.7,0.7v-2.9L30.2,18.6z"/>
			<path class="st2" d="M107.8,130.1c-4.3,0-8,3.1-8.8,7.3h-2.5c-5.3,0-9.6,4.3-9.6,9.6v8.2c-11.6,11.5-11.7,30.3-0.1,41.9
				c4.2,4.2,9.5,7,15.3,8.2c1.7,1.2,3.7,1.9,5.8,1.9c1.9-0.1,3.8-0.7,5.4-1.8c9.4-1.8,17.3-7.9,21.4-16.5c0,0,0.1-0.1,0.1-0.1
				c0.1-0.1,0.1-0.3,0.2-0.4l0.1-0.2l0.1-0.4c0.1-0.2,0.2-0.4,0.3-0.6l0,0c0.1-0.2,0.2-0.4,0.2-0.7l0,0c0.1-0.2,0.1-0.4,0.2-0.6
				c0,0,0-0.1,0-0.1c0.1-0.2,0.1-0.4,0.2-0.6c0,0,0,0,0-0.1c0.1-0.2,0.1-0.4,0.2-0.7l0,0c0.5-1.7,0.8-3.4,1-5.1l0,0
				c0.1-1,0.2-2,0.2-3c0-0.6,0-1.3-0.1-1.9c-0.5-7.2-3.6-14-8.7-19.1V147c0-5.3-4.3-9.6-9.6-9.6h-2.5
				C115.7,133.2,112,130.1,107.8,130.1L107.8,130.1z M107.8,163.7L107.8,163.7h0.7l0.6,0.1c0.6,0.1,1.2,0.2,1.9,0.3
				c0.8,0.2,1.6,0.5,2.3,0.8c0.2,0.1,0.4,0.2,0.5,0.3c0.4,0.2,0.7,0.4,1,0.6l0.5,0.4c3.2,2.4,5,6.1,5,10.1c0,0.2,0,0.4,0,0.6
				c0,0,0,0,0,0.1c0,0.2,0,0.3,0,0.5c0,0.1,0,0.1,0,0.2c0,0.1,0,0.2,0,0.3s0,0.2,0,0.4l0,0c-0.8,4.7-4.3,8.5-8.9,9.8
				c-1.1-0.4-2.3-0.7-3.4-0.7c-1.3,0-2.6,0.3-3.8,0.8c-6.6-2.1-10.3-9.1-8.2-15.7c1.6-5.2,6.5-8.8,12-8.8L107.8,163.7z"/>
			<path class="st22" d="M107.8,134.2c2.7,0,4.9,2.2,4.9,4.8c0,0,0,0,0,0v5.7h-9.7V139C102.9,136.3,105.1,134.1,107.8,134.2
				C107.8,134.1,107.8,134.1,107.8,134.2L107.8,134.2z"/>
			<path class="st2" d="M107.8,133.1c-3.3,0-5.9,2.6-5.9,5.9v5.7h2V139c-0.1-2.1,1.5-3.9,3.6-4s3.9,1.5,4,3.6c0,0.1,0,0.3,0,0.4v5.7
				h2.1V139C113.6,135.7,111,133.1,107.8,133.1L107.8,133.1z"/>
			<path class="st2" d="M107.8,150.6c-14.1,0-25.6,11.5-25.6,25.6c0,14.1,11.5,25.6,25.6,25.6s25.6-11.5,25.6-25.6c0,0,0,0,0,0
				C133.4,162.1,121.9,150.6,107.8,150.6z M107.8,150.6c14.1,0,25.6,11.4,25.6,25.6c0,14.1-11.4,25.6-25.6,25.6
				s-25.6-11.4-25.6-25.6C82.2,162.1,93.7,150.6,107.8,150.6C107.8,150.6,107.8,150.6,107.8,150.6z M107.8,159.5
				c-9.2,0-16.7,7.5-16.7,16.7s7.5,16.7,16.7,16.7s16.7-7.5,16.7-16.7c0,0,0,0,0,0C124.5,167,117,159.5,107.8,159.5z M107.8,159.5
				c9.2,0,16.6,7.4,16.7,16.6s-7.4,16.6-16.6,16.7s-16.6-7.4-16.7-16.6c0,0,0,0,0,0C91.2,167,98.6,159.5,107.8,159.5z"/>
			<path class="st2" d="M119.1,141.5H96.5c-3,0-5.5,2.5-5.5,5.5v8.7c0,2.2,1.7,3.9,3.9,3.9c0,0,0,0,0,0h12.9
				c9.2,0,16.6,7.5,16.6,16.7c0,7.9-5.6,14.7-13.3,16.3c-2.7-1.8-6.3-1.1-8,1.6c-1.8,2.7-1.1,6.3,1.6,8c2.3,1.5,5.3,1.3,7.2-0.6
				c14-2.2,23.5-15.4,21.2-29.3c-1-6-4-11.4-8.6-15.4c0.1-0.4,0.2-0.7,0.2-1.1V147C124.7,144,122.2,141.5,119.1,141.5
				C119.2,141.5,119.2,141.5,119.1,141.5L119.1,141.5z M96.5,141.5h22.7c3,0,5.5,2.4,5.5,5.4c0,0,0,0,0,0v8.7c0,0.4-0.1,0.8-0.2,1.1
				l0,0c10.7,9.2,11.9,25.3,2.8,36c-3.9,4.6-9.4,7.6-15.4,8.6c-2.3,2.2-5.9,2.2-8.2-0.1s-2.2-5.9,0.1-8.2c2-1.9,5-2.2,7.3-0.6l0,0
				c9-1.8,14.8-10.7,13-19.7c-1.6-7.7-8.4-13.3-16.2-13.3H94.9c-2.1,0-3.9-1.7-3.9-3.8V147C91,144,93.4,141.5,96.5,141.5
				C96.4,141.5,96.5,141.5,96.5,141.5L96.5,141.5z"/>
			<path class="st23" d="M107.8,150.6c-14.1,0-25.6,11.4-25.6,25.6c0,14.1,11.4,25.6,25.6,25.6s25.6-11.4,25.6-25.6
				c0-6.8-2.7-13.3-7.5-18.1C121.1,153.3,114.6,150.6,107.8,150.6z M107.8,159.6c9.2,0,16.6,7.5,16.6,16.7s-7.5,16.6-16.7,16.6
				s-16.6-7.5-16.6-16.7c0-4.4,1.8-8.6,4.9-11.7C99.1,161.3,103.4,159.6,107.8,159.6L107.8,159.6z"/>
			<path class="st2" d="M107.8,149.6c-14.7,0-26.6,11.9-26.6,26.6c0,0.2,0,0.5,0,0.7h2.1c0-0.2,0-0.5,0-0.7
				c0.3-13.6,11.5-24.3,25.1-24.1c13.2,0.3,23.8,10.9,24.1,24.1c0,0.2,0,0.5,0,0.7h2.1c0-0.2,0-0.5,0-0.7
				C134.4,161.5,122.5,149.6,107.8,149.6L107.8,149.6z M107.8,158.5c-9.8,0-17.7,7.9-17.7,17.7c0,0.2,0,0.5,0,0.7h2
				c0-0.2,0-0.5,0-0.7c0.2-8.6,7.4-15.4,16-15.2c8.3,0.2,15,6.9,15.2,15.2c0,0.2,0,0.5,0,0.7h2c0-0.2,0-0.5,0-0.7
				C125.4,166.5,117.5,158.5,107.8,158.5L107.8,158.5z"/>
			<path class="st2" d="M81.2,175.5c0,0.2,0,0.5,0,0.7c-0.3,14.7,11.4,26.8,26.1,27.1s26.8-11.4,27.1-26.1c0-0.3,0-0.7,0-1
				c0-0.2,0-0.5,0-0.7h-2.1c0,0.2,0,0.5,0,0.7c0.3,13.6-10.5,24.8-24.1,25.1s-24.8-10.5-25.1-24.1c0-0.3,0-0.7,0-1
				c0-0.2,0-0.5,0-0.7H81.2z M90.2,175.5c0,0.2,0,0.5,0,0.7c-0.2,9.8,7.5,17.9,17.3,18.1s17.9-7.5,18.1-17.3c0-0.3,0-0.6,0-0.8
				c0-0.2,0-0.5,0-0.7h-2c0,0.2,0,0.5,0,0.7c0.2,8.6-6.6,15.8-15.2,16c-8.6,0.2-15.8-6.6-16-15.2c0-0.3,0-0.5,0-0.8
				c0-0.2,0-0.5,0-0.7H90.2z"/>
			<path class="st22" d="M107.8,150.6v8.9c9.2-0.2,16.8,7,17.1,16.2s-7,16.8-16.2,17.1c-0.3,0-0.5,0-0.8,0v8.9
				c14.1-0.3,25.4-12,25.1-26.1C132.6,162,121.5,150.9,107.8,150.6L107.8,150.6z"/>
			<path class="st22" d="M113.6,197.3c0,3.2-2.6,5.8-5.8,5.8c-3.2,0-5.8-2.6-5.8-5.8c0-3.2,2.6-5.8,5.8-5.8c1.5,0,3,0.6,4.1,1.7
				C113,194.3,113.6,195.8,113.6,197.3z"/>
			<path class="st2" d="M107.8,195.3c-1.1-0.1-2.1,0.8-2.1,1.9c0,0.6,0.2,1.2,0.7,1.6c0.4,0.4,0.9,0.6,1.4,0.6
				c0.5,0,1.1-0.2,1.4-0.6c0.8-0.8,0.8-2.1,0-2.9C108.9,195.5,108.4,195.3,107.8,195.3z"/>
			<path class="st22" d="M96.5,141.5c-3,0-5.5,2.5-5.5,5.5c0,0,0,0,0,0v8.7c0,2.1,1.7,3.9,3.9,3.9c0,0,0,0,0,0h25.9
				c2.1,0,3.9-1.7,3.9-3.9c0,0,0,0,0,0V147c0-3-2.4-5.5-5.5-5.5c0,0,0,0,0,0H96.5z"/>
			<path class="st2" d="M114.3,144.8c-1.1,0-2,0.9-2,2c0,1.1,0.9,2,2,2c1.1,0,2-0.9,2-2c0-0.5-0.2-1-0.6-1.4
				C115.3,145,114.8,144.8,114.3,144.8z"/>
			<path class="st2" d="M101.3,144.8c-0.5,0-1.1,0.2-1.4,0.6c-0.8,0.8-0.8,2.1,0,2.9c0,0,0,0,0,0c0.8,0.8,2.1,0.8,2.9,0
				c0.4-0.4,0.6-0.9,0.6-1.4C103.4,145.7,102.5,144.8,101.3,144.8C101.4,144.8,101.4,144.8,101.3,144.8L101.3,144.8z"/>
			<path class="st2" d="M95.9,152.2c-1.1,0.1-2,1.1-1.9,2.2c0.1,1,0.9,1.8,1.9,1.9c1.1-0.1,2-1.1,1.9-2.2
				C97.7,153.1,96.9,152.2,95.9,152.2z"/>
			<path class="st2" d="M123.4,175.5c0,0.2,0,0.5,0,0.7c0,7.3-5.1,13.7-12.3,15.2c-1-0.6-2.1-0.9-3.3-0.9c-3.8-0.1-6.9,2.9-6.9,6.7
				s2.9,6.9,6.7,6.9c1.7,0,3.3-0.6,4.6-1.7c12.8-2.2,22.2-13.2,22.2-26.2c0-0.2,0-0.5,0-0.7h-2.1c0,0.2,0,0.5,0,0.7
				c0,12.1-8.8,22.4-20.7,24.2h-0.3l-0.2,0.2c-1.9,1.8-4.9,1.8-6.7-0.1c-1.8-1.9-1.8-4.9,0.1-6.7c0.9-0.9,2.1-1.4,3.3-1.3
				c1,0,1.9,0.3,2.7,0.8l0.4,0.2l0.4-0.1c8.3-1.7,14.2-8.9,14.2-17.3c0-0.2,0-0.5,0-0.7L123.4,175.5z"/>
			<path class="st2" d="M119.1,140.5H96.5c-3.6,0-6.5,2.9-6.5,6.5v8.7c0,2.7,2.2,4.9,4.9,4.9h12.9c8.6,0,15.6,7,15.6,15.6
				c0,0,0,0,0,0c0,0.2,0,0.5,0,0.7h2.1c0-0.2,0-0.5,0-0.7c0-9.8-7.9-17.7-17.7-17.7h-13c-1.6,0-2.8-1.2-2.9-2.8c0,0,0,0,0-0.1V147
				c0-2.4,2-4.4,4.4-4.5c0,0,0,0,0.1,0h22.7c2.4,0,4.4,1.9,4.5,4.4c0,0,0,0,0,0.1v8.7c0,0.3,0,0.6-0.1,0.8l-0.2,0.6l0.5,0.4
				c5.4,4.7,8.6,11.5,8.6,18.6c0,0.2,0,0.5,0,0.7h2.1c0-0.2,0-0.5,0-0.7c0-7.5-3.2-14.7-8.9-19.8c0.1-0.3,0.1-0.5,0.1-0.8V147
				C125.7,143.4,122.7,140.5,119.1,140.5L119.1,140.5L119.1,140.5z"/>
			<text transform="matrix(1 0 0 1 64.47 238.81)" class="st13 st24 st25">duże</text>
			<text transform="matrix(1 0 0 1 37.46 267.81)" class="st13 st24 st25">protes</text>
			<text transform="matrix(1 0 0 1 131.08 267.81)" class="st13 st24 st25">t</text>
			<text transform="matrix(1 0 0 1 142.44 267.81)" class="st13 st24 st25">y</text>
		</g>
	</g>
	<path style="clip-path:url(#SVGID_00000013171382528843275100000017627501186492506025_);fill:#EB5A53;" d="M150.6,0h29h16v16
		c0,7,0,14,0,21c-10.2,12.4-28.6,14.2-41,4S140.4,12.4,150.6,0z"/>
	<g style="clip-path:url(#SVGID_00000013171382528843275100000017627501186492506025_);enable-background:new    ;">
		<text transform="matrix(1 0 0 1 159.7 31.75)" class="st3 st24 st28">05</text>
	</g>
</g>
</svg>
