<svg id="Слой_1" data-name="Слой 1" xmlns="http://www.w3.org/2000/svg" viewBox="0 0 195.59 280.63"><defs><style>.cls-1{fill:#a0a472;}.cls-2{fill:#1a1a1a;}.cls-3{fill:#fcc24c;}.cls-4{fill:#f49631;}.cls-28,.cls-29,.cls-5{fill:#fff;}.cls-6{fill:#eb5a53;}.cls-7{fill:#af1739;}.cls-8{fill:#eb5775;}.cls-9{fill:#badbe9;}.cls-10{fill:#8bb0cc;}.cls-11{fill:#f293a2;}.cls-12{fill:#797e58;}.cls-13{fill:#b9baa1;}.cls-14{fill:#c0c099;}.cls-15{fill:#5b6045;}.cls-16{fill:#73554c;}.cls-17{fill:#454a3d;}.cls-18{fill:#543d3b;}.cls-19{fill:#797979;}.cls-20{fill:#545454;}.cls-21{fill:#444;}.cls-22{fill:#efa85d;}.cls-23{fill:#636363;}.cls-24{fill:#a0a0a0;}.cls-25{fill:#fdd083;}.cls-26{fill:#dc773d;}.cls-27{fill:#3d3d3d;}.cls-28{font-size:20px;}.cls-28,.cls-29{font-family:Impact;}.cls-29{font-size:24.45px;}.cls-30{letter-spacing:0.02em;}</style></defs><rect class="cls-1" x="-250.07" y="-7.7" width="459.48" height="297.34"/><path class="cls-2" d="M99.71,39.52l-.82-.71-11,9.55L73.63,45.58,68.9,59.34,55.14,64.07l2.78,14.28-9.55,11,9.55,11-2.78,14.28,3.78,1.3,10,3.43,4.73,13.76,14.28-2.78,11,9.55.82-.71V127l-.82.71-8.33-7.25-10.83,2.11-3.59-10.44L65.7,108.49l2.11-10.83-7.24-8.33L67.81,81,65.7,70.17l10.44-3.59,3.59-10.44,10.83,2.11L98.89,51l.82.72Zm0,0"/><path class="cls-2" d="M149.41,89.33l-9.55-11,2.78-14.28-13.76-4.73-4.73-13.76-14.28,2.78-11-9.55-.82.71v12.2l.82-.72,8.33,7.25,10.83-2.11,3.59,10.44,10.44,3.59L130,81l7.24,8.33L130,97.66l2.11,10.83-10.44,3.59-3.59,10.44-10.83-2.11-8.33,7.25-.82-.72v12.2l.82.71,11-9.55,14.28,2.78,4.73-13.76,13.76-4.73-2.78-14.28Zm0,0"/><path class="cls-3" d="M60.42,111.54,62.86,99l-8.39-9.65,8.39-9.65L60.42,67.12,72.52,63l4.16-12.1L89.24,53.3l9.65-8.39,9.65,8.39,12.56-2.44L125.26,63l12.1,4.16-2.44,12.56,8.39,9.65L134.92,99l2.44,12.56-12.1,4.16-4.16,12.1-12.56-2.44-9.65,8.39-9.65-8.39L76.68,127.8l-4.16-12.1Zm0,0"/><path class="cls-4" d="M128,89.33a29.12,29.12,0,1,0-8.53,20.59A29.12,29.12,0,0,0,128,89.33Zm0,0"/><path class="cls-3" d="M125.37,84.59a21.74,21.74,0,1,0-21.74,21.74,21.74,21.74,0,0,0,21.74-21.74Zm0,0"/><path class="cls-2" d="M99.71,59.08l-.82,0a30.27,30.27,0,0,0,0,60.54l.82,0v-2.3h-.82a28,28,0,1,1,0-55.93l.82,0Zm0,0"/><path class="cls-5" d="M120.33,78.45A10.57,10.57,0,1,0,109.77,89a10.56,10.56,0,0,0,10.56-10.57Zm0,0"/><path class="cls-2" d="M99.71,44.09l-.82-.71-10,8.69-13-2.53L71.61,62.05,59.1,66.36l2.53,13-8.69,10,8.69,10-2.53,13,.94.32,11.57,4,4.31,12.51,13-2.53,10,8.69.82-.71v-3l-.82.71-9.32-8.11-12.13,2.36-4-11.68-11.68-4L64.1,98.65,56,89.33,64.1,80,61.74,67.88l11.68-4,4-11.68,12.13,2.36,9.32-8.11.82.71Zm0,0"/><path class="cls-2" d="M129.16,89.33A30.29,30.29,0,0,0,98.89,59.06l-.82,0v2.3h.82a28,28,0,1,1,0,55.93l-.82,0v2.31h.82a30.29,30.29,0,0,0,30.27-30.27Zm0,0"/><path class="cls-2" d="M144.84,89.33l-8.69-10,2.53-13-12.51-4.31-4.3-12.51-13,2.53-10-8.69-.82.71v3l.82-.71,9.32,8.11,12.13-2.36,4,11.68,11.68,4L133.68,80l8.11,9.32-8.11,9.32L136,110.78l-11.68,4-4,11.68-12.13-2.36-9.32,8.11-.82-.71v3l.82.71,10-8.69,13,2.53,4.3-12.51,12.51-4.3-2.53-13Zm0,0"/><path class="cls-6" d="M52.06,184c0,6.33-2.11,15.32-4.71,15.32s-4.71-9-4.71-15.32,2.79-7.58,4.71-7.58,4.71,1.26,4.71,7.58Zm0,0"/><path class="cls-2" d="M47.35,175.11A5.33,5.33,0,0,0,43.27,177c-1.21,1.43-1.94,3.66-1.94,7a40.49,40.49,0,0,0,1.43,10.39,17,17,0,0,0,1.63,4.1,3.57,3.57,0,0,0,3,2.14,3.57,3.57,0,0,0,3-2.14A17,17,0,0,0,52,194.4,40.93,40.93,0,0,0,53.38,184c0-3.35-.74-5.58-2-7a5.33,5.33,0,0,0-4.08-1.89Zm0,2.63a2.54,2.54,0,0,1,2.08,1c.66.78,1.32,2.34,1.32,5.31a39,39,0,0,1-1.33,9.68,15.62,15.62,0,0,1-1.36,3.46,2.67,2.67,0,0,1-.71.84,2.72,2.72,0,0,1-.7-.84,14.69,14.69,0,0,1-1.36-3.46A38.56,38.56,0,0,1,44,184c0-3,.65-4.53,1.32-5.31a2.52,2.52,0,0,1,2.07-1Zm0,0"/><path class="cls-6" d="M75.88,184c0,6.33-2.11,15.32-4.71,15.32s-4.71-9-4.71-15.32,2.78-7.58,4.71-7.58,4.71,1.26,4.71,7.58Zm0,0"/><path class="cls-2" d="M71.17,175.11A5.32,5.32,0,0,0,67.09,177c-1.21,1.43-2,3.66-2,7a40.93,40.93,0,0,0,1.43,10.39,17,17,0,0,0,1.64,4.1,3.12,3.12,0,0,0,5.92,0,17,17,0,0,0,1.63-4.1A40.49,40.49,0,0,0,77.19,184c0-3.35-.73-5.58-1.94-7a5.33,5.33,0,0,0-4.08-1.89Zm0,2.63a2.52,2.52,0,0,1,2.07,1c.67.78,1.32,2.34,1.32,5.31a39,39,0,0,1-1.33,9.68,14.69,14.69,0,0,1-1.36,3.46,2.88,2.88,0,0,1-.7.84,2.67,2.67,0,0,1-.71-.84,15.62,15.62,0,0,1-1.36-3.46A39,39,0,0,1,67.77,184c0-3,.66-4.53,1.32-5.31a2.54,2.54,0,0,1,2.08-1Zm0,0"/><path class="cls-6" d="M25.87,157.43c-6.32,0-15.31-2.1-15.31-4.71s9-4.71,15.31-4.71,7.59,2.79,7.59,4.71-1.26,4.71-7.59,4.71Zm0,0"/><path class="cls-6" d="M97.86,149.63c2.42,5.84,3.91,15,1.51,16s-7.79-6.51-10.21-12.35-.33-8.07,1.45-8.81,4.83-.64,7.25,5.21Zm0,0"/><path class="cls-2" d="M34.78,152.72a5.33,5.33,0,0,0-1.89-4.08c-1.43-1.21-3.66-1.94-7-1.94a40.92,40.92,0,0,0-10.38,1.43,17,17,0,0,0-4.1,1.63c-1.11.67-2.14,1.56-2.14,3s1,2.3,2.14,3a17.42,17.42,0,0,0,4.1,1.63,40.92,40.92,0,0,0,10.38,1.43c3.36,0,5.59-.74,7-1.95a5.32,5.32,0,0,0,1.89-4.08Zm-2.63,0a2.54,2.54,0,0,1-1,2.08c-.79.66-2.35,1.32-5.32,1.32a39,39,0,0,1-9.67-1.33,15.42,15.42,0,0,1-3.46-1.36,2.67,2.67,0,0,1-.84-.71,2.88,2.88,0,0,1,.84-.7,15,15,0,0,1,3.46-1.36,39,39,0,0,1,9.67-1.33c3,0,4.53.65,5.32,1.32a2.52,2.52,0,0,1,1,2.07Zm0,0"/><path class="cls-2" d="M90.1,143.2a5.36,5.36,0,0,0-3,3.31c-.58,1.78-.4,4.12.88,7.22a40.82,40.82,0,0,0,5.3,9.05,16.9,16.9,0,0,0,3.08,3.16,3.12,3.12,0,0,0,5.47-2.26,16.92,16.92,0,0,0-.06-4.42,41,41,0,0,0-2.65-10.14c-1.29-3.1-2.82-4.88-4.48-5.73a5.38,5.38,0,0,0-4.5-.19Zm1,2.43a2.53,2.53,0,0,1,2.28.09c.92.48,2.12,1.67,3.26,4.41a39.22,39.22,0,0,1,2.47,9.44,15.28,15.28,0,0,1,.07,3.72,3,3,0,0,1-.33,1.05,2.7,2.7,0,0,1-1-.51,15.11,15.11,0,0,1-2.58-2.67,39.34,39.34,0,0,1-4.93-8.43c-1.13-2.74-1.12-4.44-.81-5.42a2.54,2.54,0,0,1,1.55-1.68Zm0,0"/><path class="cls-6" d="M94.21,154.47A34.6,34.6,0,1,1,84.08,130a34.6,34.6,0,0,1,10.13,24.47Zm0,0"/><path class="cls-6" d="M89.82,152.66A32,32,0,1,1,80.44,130a32,32,0,0,1,9.38,22.63Zm0,0"/><path class="cls-5" d="M27,166a34.56,34.56,0,0,0,65.19,0Zm0,0"/><path class="cls-5" d="M28.73,166m0,0a32,32,0,0,0,58.15,0Z"/><path class="cls-5" d="M59.61,119.86A34.61,34.61,0,0,0,27,143h65.2a34.6,34.6,0,0,0-32.6-23.11Zm0,0"/><path class="cls-5" d="M57.8,120.65A32,32,0,0,0,27.3,143h61A32,32,0,0,0,57.8,120.65Zm0,0"/><path class="cls-2" d="M59.26,115.84a36.89,36.89,0,1,0,36.89,36.89,36.92,36.92,0,0,0-36.89-36.89Zm0,4.21a32.68,32.68,0,1,1-32.68,32.68,32.65,32.65,0,0,1,32.68-32.68Zm0,0"/><path class="cls-2" d="M59.26,117.42a35.31,35.31,0,1,0,35.31,35.31,35.31,35.31,0,0,0-35.31-35.31Zm0,1A34.26,34.26,0,1,1,25,152.73a34.25,34.25,0,0,1,34.26-34.26Zm0,0"/><path class="cls-2" d="M48.08,140.13a5.4,5.4,0,0,1,5.42,5.41v2.72a5.42,5.42,0,0,1-10.84,0v-2.72a5.4,5.4,0,0,1,5.42-5.41Zm0,0"/><path class="cls-5" d="M51.23,144a1.76,1.76,0,0,1-.51,1.24,1.75,1.75,0,0,1-2.47,0,1.75,1.75,0,1,1,3-1.24Zm0,0"/><path class="cls-2" d="M70.44,140.13a5.4,5.4,0,0,1,5.42,5.41v2.72a5.42,5.42,0,0,1-10.84,0v-2.72a5.4,5.4,0,0,1,5.42-5.41Zm0,0"/><path class="cls-5" d="M73.59,144a1.74,1.74,0,0,1-1.75,1.75,1.72,1.72,0,0,1-1.23-.51,1.75,1.75,0,0,1,1.23-3A1.75,1.75,0,0,1,73.59,144Zm0,0"/><path class="cls-7" d="M53.49,155.28a1.19,1.19,0,0,0-1.2,1.2v1.36a7,7,0,0,0,13.94,0v-1.36a1.2,1.2,0,0,0-1.2-1.2Zm0,0"/><path class="cls-8" d="M59.26,160A6.94,6.94,0,0,0,54,162.42a7,7,0,0,0,10.5,0A7,7,0,0,0,59.26,160Zm0,0"/><path class="cls-5" d="M53.49,155.28a1.19,1.19,0,0,0-1.2,1.2v1.21a16,16,0,0,0,13.94,0v-1.22a1.2,1.2,0,0,0-1.2-1.2Zm0,0"/><path class="cls-9" d="M53.49,155.28a1.19,1.19,0,0,0-1.2,1.2v1.21a16.18,16.18,0,0,0,2.43.92c-.47-.32-.56-.77-.56-1.47v-1.86Zm0,0"/><path class="cls-9" d="M62.49,155.28v1.86c0,.94-.24,1.76-1.05,2a16.64,16.64,0,0,0,4.79-1.42v-1.22a1.2,1.2,0,0,0-1.2-1.2Zm0,0"/><path class="cls-10" d="M65,155.28a1.2,1.2,0,0,1,1.2,1.2v1.21a16.3,16.3,0,0,1-2.44.92c.48-.32.57-.77.57-1.47v-1.86Zm0,0"/><path class="cls-2" d="M53.49,154.75a1.74,1.74,0,0,0-1.73,1.73v1.36a7.5,7.5,0,0,0,15,0v-1.36A1.74,1.74,0,0,0,65,154.75Zm0,1.05H65a.67.67,0,0,1,.68.68v1.36a6.45,6.45,0,0,1-12.9,0v-1.36a.67.67,0,0,1,.68-.68Zm0,0"/><path class="cls-2" d="M52.25,157.41l-.23.47a16.49,16.49,0,0,0,14.47,0l-.23-.47a16,16,0,0,1-14,0Zm0,0"/><path class="cls-11" d="M58.49,161.91a.71.71,0,0,1-.34.58,1.47,1.47,0,0,1-.82.24c-.64,0-1.16-.37-1.16-.82s.52-.81,1.16-.81a1.46,1.46,0,0,1,.82.23.74.74,0,0,1,.34.58Zm0,0"/><path class="cls-2" d="M59.26,93.87c-6,0-10.95,2.1-14.32,5.58a19.6,19.6,0,0,0-5.3,12.69A7.75,7.75,0,0,0,37.28,117l-1.43,10.88a2.94,2.94,0,0,0,.57,2.19,2.63,2.63,0,0,0,2,.95h2a3.09,3.09,0,0,0,2-.74,4,4,0,0,0,.92-1.42l2.2-5.2c.64-1.52,1.49-1.4,1.49-1.4h.11a89.64,89.64,0,0,1,12.07-.55,89.55,89.55,0,0,1,12.06.55h.11s.86-.12,1.5,1.4l2.2,5.2a4,4,0,0,0,.92,1.42,3.09,3.09,0,0,0,2,.74h2a2.63,2.63,0,0,0,2-.95,2.94,2.94,0,0,0,.57-2.19L81.23,117a7.7,7.7,0,0,0-2.35-4.85,19.65,19.65,0,0,0-5.3-12.69c-3.38-3.48-8.3-5.58-14.32-5.58Zm0,3.15c5.3,0,9.29,1.78,12.06,4.63A16.58,16.58,0,0,1,75.76,113l0,.89.78.44s1.21.58,1.54,3.09l1.38,10.46H78.16a2,2,0,0,1-.12-.25l-2.2-5.19a5.74,5.74,0,0,0-4.15-3.31h.11a95.58,95.58,0,0,0-12.54-.58,95.87,95.87,0,0,0-12.55.58h.12a5.72,5.72,0,0,0-4.15,3.31l-2.2,5.19a2,2,0,0,1-.12.25H39l1.37-10.46c.33-2.51,1.5-3.07,1.55-3.09l.77-.44,0-.89a16.58,16.58,0,0,1,4.44-11.33C50,98.8,54,97,59.26,97Zm0,0"/><path class="cls-12" d="M71.56,120.68A3.65,3.65,0,0,1,74.38,123l2.21,5.19c.31.74.63,1.21,1.47,1.21h2a1.09,1.09,0,0,0,1-1.36L79.67,117.2c-.4-3-2-4.06-2.33-4.26-.26-9.72-6.75-17.5-18.08-17.5s-17.82,7.78-18.08,17.5c-.35.2-1.93,1.25-2.33,4.26l-1.43,10.88a1.08,1.08,0,0,0,1,1.36h2c.84,0,1.16-.47,1.47-1.21l2.2-5.19A3.67,3.67,0,0,1,47,120.68a93.37,93.37,0,0,1,12.3-.56,93.37,93.37,0,0,1,12.3.56Zm0,0"/><path class="cls-1" d="M55.56,114.62l-16.7,2.49s0,.06,0,.09l-1.43,10.88a1.09,1.09,0,0,0,1,1.36h2c.84,0,1.16-.47,1.48-1.21l2.2-5.19A3.65,3.65,0,0,1,47,120.68a74.92,74.92,0,0,1,8.6-.52Zm0,0"/><path class="cls-1" d="M59.26,95.44c-11.33,0-17.82,7.78-18.08,17.49-.35.2-1.93,1.26-2.33,4.27l0,.15A90.68,90.68,0,0,1,59.18,115h.08c2.59,0,7.75.19,10.33.41,2.49-9.31,0-18.64-10.33-20Zm0,0"/><path class="cls-13" d="M41.6,109.26a21,21,0,0,0-.42,3.68c-.35.2-1.93,1.25-2.33,4.26l0,.13L46.05,116Zm0,0"/><path class="cls-14" d="M48.58,98.45c-4.59,3.09-7.16,8.28-7.39,14.22A8.92,8.92,0,0,0,46.05,116c2.15-.31,4.32-.55,6.49-.71,5.86-4.5,4.18-15.76-4-16.83Zm0,0"/><path class="cls-1" d="M59.26,110.55a69.71,69.71,0,0,0-18.08,2.39c-.34.19-1.88,1.22-2.31,4.11a93.79,93.79,0,0,1,20.32-2.24h.07A93.93,93.93,0,0,1,79.32,117l.32,0c-.43-2.86-2-3.88-2.3-4.07a69.71,69.71,0,0,0-18.08-2.39Zm0,0"/><path class="cls-15" d="M67,115.36v4.94c3.14.16,4.55.38,4.55.38A3.65,3.65,0,0,1,74.38,123l2.21,5.19c.31.74.63,1.21,1.47,1.21h2a1.09,1.09,0,0,0,1-1.36l-1.42-10.77Zm0,0"/><path class="cls-12" d="M59.26,118.46A93.37,93.37,0,0,0,47,119c-4,.52-7,1.63-7.85,5.31l-.83,3.75c-.26,1.14.38,1.36.39,1.36h1.79c.84,0,1.16-.47,1.47-1.21l2.2-5.19A3.67,3.67,0,0,1,47,120.68a93.37,93.37,0,0,1,12.3-.56,93.37,93.37,0,0,1,12.3.56A3.65,3.65,0,0,1,74.38,123l2.21,5.19c.31.74.63,1.21,1.47,1.21h1.79s.64-.22.39-1.36l-.83-3.75c-.83-3.68-3.89-4.79-7.85-5.31a93.37,93.37,0,0,0-12.3-.56Zm0,0"/><path class="cls-16" d="M59.19,112.75a87.11,87.11,0,0,0-19.76,2.31,7.66,7.66,0,0,0-.58,2.14l-.18,1.33a81.9,81.9,0,0,1,20.55-2.62h0a82.21,82.21,0,0,1,20.59,2.62l-.18-1.33a7.48,7.48,0,0,0-.58-2.13,86,86,0,0,0-19.83-2.32Zm0,0"/><path class="cls-17" d="M46.86,120.69c-3.35.45-5.38,1.18-6.22,4l-1,3.41c-.33,1.12.39,1.36.39,1.36h.46c.84,0,1.16-.47,1.47-1.21l2.2-5.19a3.7,3.7,0,0,1,2.73-2.35Zm0,0"/><path class="cls-18" d="M67.82,113.18v3.18a82,82,0,0,1,12,2.17l-.18-1.33a7.48,7.48,0,0,0-.58-2.13,86.06,86.06,0,0,0-11.27-1.89Zm0,0"/><path class="cls-2" d="M59.19,112.23a86.33,86.33,0,0,0-19.87,2.32l.24,1a85.9,85.9,0,0,1,19.63-2.29h.07A86,86,0,0,1,79,115.57l.24-1a86.93,86.93,0,0,0-19.94-2.32Zm0,0"/><path class="cls-2" d="M59.22,115.38A82.87,82.87,0,0,0,38.54,118l.27,1a81.65,81.65,0,0,1,20.41-2.61h0A81.64,81.64,0,0,1,79.72,119l.26-1a82.78,82.78,0,0,0-20.72-2.64Zm0,0"/><path class="cls-2" d="M46.89,120.16a12.18,12.18,0,0,0-4.31,1.16,5.17,5.17,0,0,0-2.44,3.2l-1,3.41a1.82,1.82,0,0,0,.14,1.55,1.37,1.37,0,0,0,.59.46l.33-1-.06-.06c0-.07-.13-.2,0-.65l1-3.41a4,4,0,0,1,2-2.58,11.2,11.2,0,0,1,3.93-1Zm0,0"/><path class="cls-17" d="M71.56,120.68c3.36.45,5.38,1.18,6.22,4l1,3.41c.34,1.12-.39,1.36-.39,1.36H78c-.85,0-1.16-.46-1.48-1.2l-2.2-5.2a3.68,3.68,0,0,0-2.73-2.34Zm0,0"/><path class="cls-2" d="M59.26,94.92c-5.78,0-10.4,2-13.57,5.26a18.68,18.68,0,0,0-5,12.46,6.32,6.32,0,0,0-2.34,4.49L36.9,128a1.82,1.82,0,0,0,.34,1.39,1.52,1.52,0,0,0,1.19.56h2a1.9,1.9,0,0,0,1.29-.46,3,3,0,0,0,.67-1.06l2.2-5.2a3,3,0,0,1,2.38-2h0a91.49,91.49,0,0,1,12.22-.56,91.58,91.58,0,0,1,12.23.56h0a3,3,0,0,1,2.38,2l2.2,5.2a3,3,0,0,0,.67,1.06,1.9,1.9,0,0,0,1.29.46h2a1.52,1.52,0,0,0,1.19-.56,1.82,1.82,0,0,0,.34-1.39l-1.43-10.88a6.32,6.32,0,0,0-2.34-4.49,18.68,18.68,0,0,0-5-12.46c-3.18-3.26-7.79-5.26-13.57-5.26Zm0,1c5.54,0,9.84,1.89,12.81,4.94a17.68,17.68,0,0,1,4.74,12v.3l.25.14c.25.14,1.7,1,2.08,3.88l1.43,10.88a.75.75,0,0,1-.12.59.48.48,0,0,1-.37.17h-2a.72.72,0,0,1-.58-.18,2.23,2.23,0,0,1-.41-.71l-2.2-5.19a4.32,4.32,0,0,0-3.27-2.67h0a93.63,93.63,0,0,0-12.38-.57,93.72,93.72,0,0,0-12.39.57h0a4.31,4.31,0,0,0-3.26,2.67L41.45,128a2.21,2.21,0,0,1-.42.71.71.71,0,0,1-.57.18h-2a.45.45,0,0,1-.37-.17.75.75,0,0,1-.12-.59l1.43-10.88c.37-2.85,1.82-3.73,2.07-3.88l.26-.14V113a17.68,17.68,0,0,1,4.74-12c3-3,7.27-4.94,12.81-4.94Zm0,0"/><path class="cls-2" d="M71.63,120.16l-.13,1a11.14,11.14,0,0,1,3.92,1,4,4,0,0,1,2,2.58l1,3.41c.14.45,0,.58,0,.65l-.05.06.33,1a1.43,1.43,0,0,0,.59-.46,1.79,1.79,0,0,0,.13-1.55l-1-3.41a5.21,5.21,0,0,0-2.44-3.2,12.24,12.24,0,0,0-4.31-1.16Zm0,0"/><rect class="cls-2" x="10.46" y="168.3" width="8.82" height="15.98"/><path class="cls-2" d="M4.82,144.05a1.84,1.84,0,0,1,1.84-1.84H10a1.84,1.84,0,0,1,1.84,1.84V146A1.84,1.84,0,0,1,10,147.83H6.66A1.84,1.84,0,0,1,4.82,146Zm0,0"/><rect class="cls-2" x="5.44" y="130.3" width="5.74" height="13.75"/><path class="cls-2" d="M2.38,130.3H9.12v6H5.43l-3-1.44Zm0,0"/><path class="cls-2" d="M11.75,181a1.85,1.85,0,0,1,1.85-1.83h2.3a2.69,2.69,0,0,1,1.66.61,2.51,2.51,0,0,1,.64.87L25,183.5a1.84,1.84,0,0,1,1.09,1.3,7.68,7.68,0,0,1-2,6.93,1.82,1.82,0,0,1-1.91.31l-5.48-2.27,0,0-.66.38a1.87,1.87,0,0,1-.92.25H14a1.85,1.85,0,0,1-1.84-1.76l-.35-7.48a.38.38,0,0,1,0-.1Zm3.8,2.31.13,2.85a4,4,0,0,1,2.45.17l4.2,1.74a3.28,3.28,0,0,0,.28-1.61l-6.26-2.59a2.66,2.66,0,0,1-.8-.56Zm0,0"/><path class="cls-2" d="M12.45,162l16.87-2.22,1.41,10.66L13.3,172.72l-.48-3.65,13.78-1.81-.45-3.36-13.22,1.74Zm0,0"/><path class="cls-2" d="M2.38,146.48a2.39,2.39,0,0,1,.72-1.7,2.34,2.34,0,0,1,1.6-.63H9.86a3.27,3.27,0,0,1,1.5.25,3.38,3.38,0,0,1,1.82,2.92V151l1.58,4.8a3.5,3.5,0,0,1-.48,3.21l.66,12.45.56.56v3.51l-.33.34.76,14.46H8.27L2.38,187Zm3.68,1.35v37l3.2,1.85h2.79l-.64-12.22.41-.42v-.46l-.49-.49-.86-16.44.64-.13-1.62-4.9v-3.79Zm4,0a.15.15,0,0,0,.1,0Zm0,0"/><path class="cls-2" d="M5.55,191.94l.54-.54.83-.83v-3.89l8.44,0,4.3,15.87a2.83,2.83,0,0,1-.63,2.58,2.76,2.76,0,0,1-2.35.76L8,204.77a2.83,2.83,0,0,1-1.7-.83,2.84,2.84,0,0,1-.71-1.9Zm3.68,1.52v7.76l6.48.85-3.17-11.7H10.6v1.72Zm0,0"/><rect class="cls-19" x="6.66" y="144.05" width="3.3" height="1.95"/><path class="cls-20" d="M4.22,132.14H7.28v2.29H5.85l-1.63-.76Zm0,0"/><rect class="cls-20" x="7.28" y="132.14" width="2.06" height="11.91"/><path class="cls-21" d="M13.55,180.88c.62-1.25,1.06-1,1.78-1.26,1.31-.54,1-2.36,1-2.36h-.48c-.48.83-.58,1.12-1.76,1l-.72-.55Zm0,0"/><path class="cls-21" d="M13.66,174.8h2.65v-1.36c0-.44-.27-.62-.68-.62h-2Zm0,0"/><path class="cls-22" d="M13.59,181.05H15.9c.81,0,.58.92,1.16,1.16l7.23,3a5.35,5.35,0,0,1-1.38,5.14l-5.48-2.27a1.6,1.6,0,0,0-1.52,0l-.8.47H14Zm0,0"/><path class="cls-23" d="M13.06,170.9l15.6-2.06-.92-7-15,2Zm0,0"/><path class="cls-19" d="M4.22,146.48A.45.45,0,0,1,4.7,146H10a1.21,1.21,0,0,1,1.38,1.33v4L13,156.4c.5,1.51-.62,1.74-.62,1.74l.75,14.15.52.53v2l-.37.38.7,13.34H8.76L4.22,185.9Zm0,0"/><path class="cls-24" d="M7.41,146v41.75l.85.49V146Zm0,0"/><path class="cls-20" d="M10,146a1.21,1.21,0,0,1,1.38,1.33v4L13,156.4c.5,1.51-.62,1.74-.62,1.74l.75,14.15.52.53v2l-.37.38.7,13.34H10Zm0,0"/><path class="cls-20" d="M4.22,146.48A.45.45,0,0,1,4.7,146h2V187.3l-2.43-1.4Zm0,0"/><path class="cls-22" d="M4.22,146.48A.45.45,0,0,1,4.7,146H10a1.21,1.21,0,0,1,1.38,1.33v4L13,156.4c.5,1.51-.62,1.74-.62,1.74H4.22Zm0,0"/><rect class="cls-25" x="7.41" y="145.99" width="0.85" height="12.15"/><path class="cls-26" d="M10,158.14V146a1.22,1.22,0,0,1,1.38,1.33v4L13,156.4c.5,1.51-.62,1.74-.62,1.74Zm0,0"/><path class="cls-26" d="M4.22,146.48A.45.45,0,0,1,4.7,146h2v12.15H4.22Zm0,0"/><path class="cls-22" d="M7.39,192.7l1.37-1.37v-2.81l5.19,0,3.93,14.51a.8.8,0,0,1-1,1L8.2,202.94a.81.81,0,0,1-.81-.9Zm0,0"/><path class="cls-2" d="M6.4,143.79h3.82v2.47H6.4Zm.52.52v1.42H9.7v-1.42Zm0,0"/><path class="cls-2" d="M7,131.88H9.6v12.17H9.08V132.39H7.54v11.66H7Zm0,0"/><path class="cls-2" d="M4,131.87H7.54v2.83H5.79L4,133.83Zm.52.53v1.1l1.42.67H7V132.4Zm0,0"/><rect class="cls-2" x="6.39" y="145.99" width="0.53" height="41.31"/><rect class="cls-2" x="4.22" y="157.88" width="8.18" height="0.53"/><path class="cls-26" d="M13.59,181.05h2.22l.9,6.84a1.29,1.29,0,0,0-.8.18l-.8.47H14Zm0,0"/><path class="cls-21" d="M15.9,180.79a1.18,1.18,0,0,0,.77-.23,1,1,0,0,0,.29-.79l-.05-4.1c0-.37-.14-.47-.28-.54a.82.82,0,0,0-.31-.07l0-.52a1.17,1.17,0,0,1,.55.12,1.08,1.08,0,0,1,.59,1l0,4.09A1.49,1.49,0,0,1,17,181a1.66,1.66,0,0,1-1.11.35Zm0,0"/><path class="cls-2" d="M13.32,180.79H15.9a.9.9,0,0,1,.61.21,1.29,1.29,0,0,1,.3.43c.06.14.11.27.16.36a.35.35,0,0,0,.19.17l7.35,3,0,.13a5.66,5.66,0,0,1-1.46,5.4l-.12.11-5.63-2.34a1.29,1.29,0,0,0-1.28,0l-.87.5H13.7Zm.55.52.33,7H15l.74-.43a1.89,1.89,0,0,1,1.75,0l5.32,2.2a5.06,5.06,0,0,0,1.2-4.64L17,182.45a1,1,0,0,1-.43-.39,2.86,2.86,0,0,1-.19-.41,1.08,1.08,0,0,0-.16-.26.41.41,0,0,0-.27-.08Zm0,0"/><path class="cls-21" d="M13.66,172.55h2a1.05,1.05,0,0,1,.67.21.9.9,0,0,1,.27.68v1.62H13.66v-.52H16v-1.1c0-.17,0-.23-.09-.28a.52.52,0,0,0-.32-.08h-2Zm0,0"/><path class="cls-2" d="M13.25,177.94l.32-.41.65.49a1.33,1.33,0,0,0,.9-.12,2.49,2.49,0,0,0,.54-.77l.08-.13h.86l0,.22a3.43,3.43,0,0,1,0,1.07,2,2,0,0,1-1.17,1.57c-.41.17-.71.18-.92.27s-.43.27-.72.87l-.48-.24a2.16,2.16,0,0,1,1-1.11c.33-.15.61-.14.93-.27a1.46,1.46,0,0,0,.85-1.19,2.35,2.35,0,0,0,.05-.66H16a2.25,2.25,0,0,1-.62.8,1.93,1.93,0,0,1-1.31.22H14Zm0,0"/><path class="cls-19" d="M11.45,176.65a.63.63,0,0,0,0-1.26.63.63,0,0,0-.45,1.08.63.63,0,0,0,.45.18Zm0,0"/><path class="cls-19" d="M11.45,180.81a.63.63,0,1,0-.45-1.08.63.63,0,0,0,.45,1.08Zm0,0"/><path class="cls-21" d="M12.69,163.82l2.46-.33.93,7-3,.4Zm0,0"/><path class="cls-27" d="M25.84,162.08l1.9-.24.92,7-1.9.25Zm0,0"/><path class="cls-2" d="M12.66,163.56l15.3-2,1,7.53L13.1,171.16l-.07-.52,15.34-2-.86-6.49-14.78,2Zm0,0"/><path class="cls-2" d="M4,146.48a.75.75,0,0,1,.22-.56.76.76,0,0,1,.52-.19H9.93a1.82,1.82,0,0,1,.82.12,1.5,1.5,0,0,1,.85,1.47v4l1.66,5a1.69,1.69,0,0,1-.17,1.69,1.32,1.32,0,0,1-.42.31l.72,13.85.54.54v2.2l-.37.37.7,13.5H8.69L4,186.05Zm.52,0v39.27l4.35,2.51h4.88L13,175.07l.38-.38v-1.77l-.52-.52-.76-14.47.22-.05a.7.7,0,0,0,.35-.21c.16-.18.3-.49.07-1.18l-1.69-5.12v-4.05c0-.67-.25-.87-.52-1a1.42,1.42,0,0,0-.56-.09H4.7a.22.22,0,0,0-.16.05.21.21,0,0,0-.06.17Zm0,0"/><path class="cls-26" d="M8.76,188.52l5.19,0,3.93,14.51a.8.8,0,0,1-1,1l-1.65-.22a.77.77,0,0,0,.35-.94l-3-14.39H8.76Zm0,0"/><path class="cls-25" d="M7.39,192.7l1.37-1.37v-2.81H9.92v3.3l-1.37,1.43v9.38a1.36,1.36,0,0,0,0,.36l-.4-.06a.81.81,0,0,1-.81-.9Zm0,0"/><path class="cls-2" d="M7.13,192.59l.08-.08,1.29-1.29v-3h5.65l4,14.71A1.09,1.09,0,0,1,17.9,204a1.18,1.18,0,0,1-1,.31L8.17,203.2a1.24,1.24,0,0,1-.76-.34,1.17,1.17,0,0,1-.28-.82Zm.52.22V202a.64.64,0,0,0,.14.46.7.7,0,0,0,.45.18L17,203.83a.72.72,0,0,0,.58-.15.56.56,0,0,0,.1-.56L13.75,188.8H9v2.65Zm0,0"/><path class="cls-2" d="M25.58,162.12l.52-.07.92,7-.52.07Zm0,0"/><path class="cls-2" d="M10.55,176a.9.9,0,1,1,.9.9.9.9,0,0,1-.9-.9Zm.53,0a.36.36,0,0,0,.37.37.37.37,0,1,0,0-.74.36.36,0,0,0-.37.37Zm0,0"/><path class="cls-2" d="M10.55,180.18a.9.9,0,1,1,.9.9.91.91,0,0,1-.9-.9Zm.53,0a.36.36,0,0,0,.37.37.37.37,0,0,0,0-.74.36.36,0,0,0-.37.37Zm0,0"/><path class="cls-6" d="M146.67,183.28c0-6.22,2.74-7.47,4.64-7.47s4.64,1.25,4.64,7.47-2.08,15.08-4.64,15.08-4.64-8.85-4.64-15.08Zm0,0"/><path class="cls-2" d="M151.31,174.52a5.25,5.25,0,0,0-4,1.86c-1.19,1.4-1.91,3.6-1.91,6.9a40.12,40.12,0,0,0,1.4,10.23,17.26,17.26,0,0,0,1.61,4c.66,1.09,1.53,2.11,2.92,2.11a3.53,3.53,0,0,0,2.91-2.11,16.44,16.44,0,0,0,1.61-4,40.13,40.13,0,0,0,1.41-10.23c0-3.3-.72-5.5-1.91-6.9a5.25,5.25,0,0,0-4-1.86Zm0,2.59a2.5,2.5,0,0,1,2,.94c.66.77,1.3,2.31,1.3,5.23a38.29,38.29,0,0,1-1.31,9.53,15.08,15.08,0,0,1-1.34,3.41,2.69,2.69,0,0,1-.69.82,2.79,2.79,0,0,1-.7-.82,15.62,15.62,0,0,1-1.33-3.41,38.29,38.29,0,0,1-1.31-9.53c0-2.92.64-4.46,1.3-5.23a2.49,2.49,0,0,1,2-.94Zm0,0"/><path class="cls-6" d="M123.22,183.28c0-6.22,2.74-7.47,4.64-7.47s4.64,1.25,4.64,7.47-2.08,15.08-4.64,15.08-4.64-8.85-4.64-15.08Zm0,0"/><path class="cls-2" d="M127.86,174.52a5.25,5.25,0,0,0-4,1.86c-1.19,1.4-1.91,3.6-1.91,6.9a40.57,40.57,0,0,0,1.4,10.23,17.26,17.26,0,0,0,1.61,4c.66,1.09,1.53,2.11,2.92,2.11s2.26-1,2.92-2.11a17.26,17.26,0,0,0,1.61-4,40.57,40.57,0,0,0,1.4-10.23c0-3.3-.72-5.5-1.91-6.9a5.25,5.25,0,0,0-4-1.86Zm0,2.59a2.49,2.49,0,0,1,2,.94c.66.77,1.3,2.31,1.3,5.23a38.29,38.29,0,0,1-1.31,9.53,15.08,15.08,0,0,1-1.34,3.41,2.69,2.69,0,0,1-.69.82,2.69,2.69,0,0,1-.69-.82,15.08,15.08,0,0,1-1.34-3.41,38.29,38.29,0,0,1-1.31-9.53c0-2.92.64-4.46,1.3-5.23a2.5,2.5,0,0,1,2-.94Zm0,0"/><path class="cls-6" d="M172.46,157.11c-6.23,0-7.47-2.74-7.47-4.64s1.24-4.63,7.47-4.63,15.07,2.07,15.07,4.63-8.85,4.64-15.07,4.64Zm0,0"/><path class="cls-2" d="M163.69,152.47a5.23,5.23,0,0,0,1.86,4c1.4,1.19,3.6,1.92,6.91,1.92A40.11,40.11,0,0,0,182.68,157a17.09,17.09,0,0,0,4-1.61,3.07,3.07,0,0,0,0-5.83,17.09,17.09,0,0,0-4-1.61,40.11,40.11,0,0,0-10.22-1.41c-3.31,0-5.51.73-6.91,1.92a5.23,5.23,0,0,0-1.86,4Zm2.59,0a2.51,2.51,0,0,1,.94-2c.78-.65,2.31-1.3,5.24-1.3a38.27,38.27,0,0,1,9.52,1.31,14.89,14.89,0,0,1,3.41,1.34,2.69,2.69,0,0,1,.82.69,2.5,2.5,0,0,1-.82.7,14.89,14.89,0,0,1-3.41,1.34,38.27,38.27,0,0,1-9.52,1.31c-2.93,0-4.46-.65-5.24-1.3a2.52,2.52,0,0,1-.94-2.05Zm0,0"/><path class="cls-6" d="M101.58,149.42c2.38-5.75,5.39-5.85,7.14-5.12s3.81,2.92,1.43,8.67-7.69,13.14-10.06,12.16-.9-9.95,1.49-15.71Zm0,0"/><path class="cls-2" d="M109.22,143.1a5.29,5.29,0,0,0-4.43.18c-1.63.84-3.15,2.6-4.41,5.65a39.81,39.81,0,0,0-2.61,10,16.39,16.39,0,0,0-.06,4.35,3.07,3.07,0,0,0,5.39,2.23,17,17,0,0,0,3-3.11,40,40,0,0,0,5.21-8.91c1.27-3.05,1.44-5.36.88-7.11a5.26,5.26,0,0,0-3-3.26Zm-1,2.39a2.51,2.51,0,0,1,1.53,1.66c.31,1,.32,2.63-.8,5.33a38.53,38.53,0,0,1-4.85,8.3,15,15,0,0,1-2.55,2.63,2.68,2.68,0,0,1-1,.5,2.58,2.58,0,0,1-.33-1,14.79,14.79,0,0,1,.07-3.66,38.4,38.4,0,0,1,2.43-9.3c1.12-2.7,2.31-3.87,3.21-4.34a2.51,2.51,0,0,1,2.24-.09Zm0,0"/><path class="cls-2" d="M139.58,116.16a36.32,36.32,0,1,0,36.33,36.32,36.36,36.36,0,0,0-36.33-36.32Zm0,4.14a32.18,32.18,0,1,1-32.18,32.18,32.14,32.14,0,0,1,32.18-32.18Zm0,0"/><path class="cls-6" d="M105.33,152.48a34.26,34.26,0,1,1,10,24.22,34.25,34.25,0,0,1-10-24.22Zm0,0"/><path class="cls-6" d="M109.69,150.7A31.68,31.68,0,1,1,119,173.1a31.65,31.65,0,0,1-9.28-22.4Zm0,0"/><path class="cls-5" d="M105.33,152.48a34.26,34.26,0,0,0,68.51,0Zm68.51,0"/><path class="cls-5" d="M109.78,152.48a31.65,31.65,0,0,0,63.21,0Zm63.21,0"/><path class="cls-2" d="M139.58,117.71a34.77,34.77,0,1,0,34.77,34.77,34.78,34.78,0,0,0-34.77-34.77Zm0,1a33.74,33.74,0,1,1-33.73,33.73,33.73,33.73,0,0,1,33.73-33.73Zm0,0"/><path class="cls-2" d="M150.59,140.07a5.33,5.33,0,0,1,5.34,5.34v2.67a5.34,5.34,0,0,1-10.67,0v-2.67a5.32,5.32,0,0,1,5.33-5.34Zm0,0"/><path class="cls-5" d="M147.49,143.9a1.72,1.72,0,1,1,1.72,1.72,1.69,1.69,0,0,1-1.22-.51,1.72,1.72,0,0,1-.5-1.21Zm0,0"/><path class="cls-2" d="M128.58,140.07a5.32,5.32,0,0,1,5.33,5.34v2.67a5.34,5.34,0,0,1-10.67,0v-2.67a5.33,5.33,0,0,1,5.34-5.34Zm0,0"/><path class="cls-5" d="M125.47,143.9a1.73,1.73,0,1,1,3.45,0,1.73,1.73,0,0,1-3.45,0Zm0,0"/><path class="cls-7" d="M133.9,155a1.18,1.18,0,0,0-1.18,1.18v1.34a6.87,6.87,0,0,0,13.73,0v-1.34a1.18,1.18,0,0,0-1.19-1.18Zm11.36,0"/><path class="cls-8" d="M139.58,159.67a6.85,6.85,0,0,0-5.17,2.35,6.87,6.87,0,0,0,10.35,0,6.86,6.86,0,0,0-5.18-2.35Zm0,0"/><path class="cls-5" d="M133.9,155a1.18,1.18,0,0,0-1.18,1.18v1.2a15.79,15.79,0,0,0,13.73,0v-1.2a1.18,1.18,0,0,0-1.19-1.18Zm11.36,0"/><path class="cls-9" d="M144.61,155v1.84c0,.68-.09,1.12-.56,1.44a16.88,16.88,0,0,0,2.4-.9v-1.2a1.18,1.18,0,0,0-1.19-1.18Zm.65,0"/><path class="cls-9" d="M133.9,155a1.18,1.18,0,0,0-1.18,1.18v1.2a15.86,15.86,0,0,0,4.72,1.4c-.8-.22-1-1-1-1.94V155Zm2.5,0"/><path class="cls-10" d="M134.56,155v1.84c0,.68.09,1.12.56,1.44a16.88,16.88,0,0,1-2.4-.9v-1.2A1.18,1.18,0,0,1,133.9,155Zm-.66,0"/><path class="cls-2" d="M133.9,154.47a1.71,1.71,0,0,0-1.7,1.7v1.34a7.39,7.39,0,0,0,14.77,0v-1.34a1.71,1.71,0,0,0-1.71-1.7Zm11.36,1a.65.65,0,0,1,.67.66v1.34a6.35,6.35,0,1,1-12.69,0v-1.34a.65.65,0,0,1,.66-.66Zm0,0"/><path class="cls-2" d="M146.48,157.09a15.75,15.75,0,0,1-13.79,0l-.23.46a16.28,16.28,0,0,0,14.25,0l-.23-.46Zm0,0"/><path class="cls-11" d="M140.34,161.52a.71.71,0,0,1,.34-.57,1.41,1.41,0,0,1,.81-.23c.63,0,1.14.36,1.14.8s-.51.81-1.14.81a1.41,1.41,0,0,1-.81-.24.71.71,0,0,1-.34-.57Zm0,0"/><path class="cls-2" d="M139.58,94.52c-5.93,0-10.77,2.08-14.1,5.5a19.32,19.32,0,0,0-5.21,12.49,7.61,7.61,0,0,0-2.32,4.78L116.54,128a2.84,2.84,0,0,0,.56,2.15,2.59,2.59,0,0,0,2,.94h2a3,3,0,0,0,2-.74A3.75,3.75,0,0,0,124,129l2.16-5.11c.64-1.5,1.48-1.38,1.48-1.38h.11a88.26,88.26,0,0,1,11.87-.54,88.36,88.36,0,0,1,11.88.54h.11s.84-.12,1.48,1.38l2.16,5.11a3.63,3.63,0,0,0,.91,1.4,3,3,0,0,0,2,.74h2a2.59,2.59,0,0,0,2-.94,2.84,2.84,0,0,0,.56-2.15l-1.41-10.72a7.61,7.61,0,0,0-2.32-4.78A19.32,19.32,0,0,0,153.69,100c-3.33-3.42-8.17-5.5-14.11-5.5Zm0,3.11c5.22,0,9.15,1.75,11.88,4.56a16.36,16.36,0,0,1,4.37,11.15l0,.88.76.43s1.2.57,1.52,3L159.5,128h-1.31a2,2,0,0,1-.11-.24l-2.17-5.11a5.62,5.62,0,0,0-4.08-3.26h.11a94.49,94.49,0,0,0-12.35-.57,94.3,94.3,0,0,0-12.35.57h.11a5.64,5.64,0,0,0-4.09,3.26l-2.16,5.11a1.72,1.72,0,0,1-.12.24h-1.3L121,117.7c.33-2.48,1.48-3,1.52-3l.77-.43,0-.88a16.32,16.32,0,0,1,4.37-11.15c2.72-2.81,6.65-4.56,11.87-4.56Zm0,0"/><path class="cls-12" d="M127.47,120.92a92.09,92.09,0,0,1,12.11-.55,92.38,92.38,0,0,1,12.12.55,3.61,3.61,0,0,1,2.78,2.32l2.16,5.12c.31.73.62,1.19,1.46,1.19h2a1.07,1.07,0,0,0,1-1.34l-1.41-10.71c-.39-3-2-4-2.3-4.2-.25-9.56-6.64-17.22-17.8-17.22S122,103.74,121.79,113.3c-.35.2-1.91,1.23-2.3,4.2l-1.41,10.71a1.07,1.07,0,0,0,1,1.34h2c.83,0,1.15-.46,1.46-1.19l2.16-5.12a3.61,3.61,0,0,1,2.78-2.32Zm0,0"/><path class="cls-1" d="M143.22,120.41a74.89,74.89,0,0,1,8.48.51,3.59,3.59,0,0,1,2.77,2.32l2.17,5.12c.31.73.62,1.19,1.45,1.19h2a1.07,1.07,0,0,0,1-1.34l-1.41-10.71s0-.06,0-.09L143.22,115Zm0-5.46"/><path class="cls-1" d="M139.58,96.08c-10.15,1.33-12.62,10.52-10.16,19.69,2.54-.22,7.61-.41,10.16-.41h.08a89,89,0,0,1,20,2.29l0-.15c-.39-3-2-4-2.3-4.2-.25-9.56-6.64-17.22-17.8-17.22Zm0,0"/><path class="cls-13" d="M152.59,116.31l7.11,1.32,0-.13c-.39-3-2-4-2.3-4.2a21.45,21.45,0,0,0-.4-3.62Zm4.39-6.63"/><path class="cls-14" d="M150.1,99c-8,1.06-9.67,12.14-3.9,16.57,2.14.15,4.27.39,6.39.7a8.75,8.75,0,0,0,4.78-3.27c-.22-5.85-2.75-11-7.27-14Zm0,0"/><path class="cls-1" d="M139.58,111a68.71,68.71,0,0,0-17.79,2.35c-.34.19-1.85,1.19-2.27,4l.31,0a92.39,92.39,0,0,1,19.75-2.14h.08a92.79,92.79,0,0,1,20,2.21c-.42-2.85-1.94-3.86-2.28-4a68.73,68.73,0,0,0-17.8-2.35Zm0,0"/><path class="cls-15" d="M119.47,117.6l-1.39,10.61a1.07,1.07,0,0,0,1,1.34h2c.83,0,1.14-.46,1.46-1.19l2.16-5.12a3.61,3.61,0,0,1,2.78-2.32s1.39-.21,4.48-.37v-4.86ZM132,115.69"/><path class="cls-12" d="M139.58,118.74a92.09,92.09,0,0,0-12.11.55c-3.9.52-6.91,1.61-7.72,5.23l-.82,3.69c-.25,1.12.37,1.34.38,1.34h1.76c.83,0,1.14-.46,1.46-1.19l2.16-5.12a3.61,3.61,0,0,1,2.78-2.32,92.09,92.09,0,0,1,12.11-.55,92.38,92.38,0,0,1,12.12.55,3.61,3.61,0,0,1,2.78,2.32l2.16,5.12c.31.73.62,1.19,1.46,1.19h1.76s.63-.22.38-1.34l-.82-3.69c-.81-3.62-3.82-4.71-7.72-5.23a92.38,92.38,0,0,0-12.12-.55Zm0,0"/><path class="cls-16" d="M139.58,113.12a85,85,0,0,0-19.52,2.28,7.37,7.37,0,0,0-.57,2.1l-.18,1.31a80.59,80.59,0,0,1,20.27-2.58h0a80.68,80.68,0,0,1,20.23,2.58l-.17-1.31a7.28,7.28,0,0,0-.57-2.1,85,85,0,0,0-19.46-2.28Zm.07,0"/><path class="cls-17" d="M151.79,120.94a3.63,3.63,0,0,1,2.69,2.3l2.16,5.12c.31.73.62,1.19,1.46,1.19h.45s.71-.24.38-1.34l-1-3.36c-.83-2.75-2.83-3.47-6.13-3.91Zm0,0"/><path class="cls-18" d="M131.15,113.54a83.61,83.61,0,0,0-11.09,1.86,7.37,7.37,0,0,0-.57,2.1l-.17,1.31a80.62,80.62,0,0,1,11.83-2.14v-3.13Zm0,0"/><path class="cls-2" d="M139.58,112.6A85.35,85.35,0,0,0,120,114.89l.24,1a84.36,84.36,0,0,1,19.39-2.26h.07A83.85,83.85,0,0,1,159,115.9l.24-1a85.38,85.38,0,0,0-19.57-2.29Zm.07,0"/><path class="cls-2" d="M139.58,115.71a81.22,81.22,0,0,0-20.4,2.6l.26,1a80.54,80.54,0,0,1,20.14-2.57h0a80.57,80.57,0,0,1,20.1,2.57l.26-1a80.85,80.85,0,0,0-20.36-2.6Zm0,0"/><path class="cls-2" d="M151.63,121.44a11.09,11.09,0,0,1,3.87,1,3.9,3.9,0,0,1,1.92,2.54l1,3.36c.12.44,0,.57,0,.63s-.06.06-.06.06l.33,1a1.3,1.3,0,0,0,.58-.45,1.81,1.81,0,0,0,.13-1.53l-1-3.36a5.12,5.12,0,0,0-2.4-3.14,11.9,11.9,0,0,0-4.24-1.15Zm.14-1"/><path class="cls-17" d="M127.47,120.92a3.68,3.68,0,0,0-2.69,2.31l-2.16,5.11c-.31.74-.62,1.19-1.45,1.19h-.45s-.72-.23-.39-1.33l1-3.36c.83-2.76,2.83-3.47,6.13-3.92Zm0,0"/><path class="cls-2" d="M139.59,95.56c-5.69,0-10.23,2-13.36,5.18A18.38,18.38,0,0,0,121.29,113a6.23,6.23,0,0,0-2.31,4.42l-1.41,10.71a1.76,1.76,0,0,0,.35,1.37,1.49,1.49,0,0,0,1.17.55h2a1.88,1.88,0,0,0,1.28-.45,2.94,2.94,0,0,0,.65-1.05l2.17-5.11a2.91,2.91,0,0,1,2.34-2h0a90.49,90.49,0,0,1,12-.55,90.21,90.21,0,0,1,12,.55h0a2.91,2.91,0,0,1,2.34,2l2.17,5.11a2.94,2.94,0,0,0,.65,1.05,1.88,1.88,0,0,0,1.28.45h2a1.5,1.5,0,0,0,1.17-.55,1.76,1.76,0,0,0,.34-1.37l-1.41-10.71a6.19,6.19,0,0,0-2.3-4.42,18.39,18.39,0,0,0-4.95-12.27c-3.12-3.21-7.66-5.18-13.36-5.18Zm0,1c5.46,0,9.7,1.86,12.62,4.86a17.46,17.46,0,0,1,4.67,11.85v.3l.25.14c.25.14,1.67,1,2,3.81l1.41,10.72a.72.72,0,0,1-.12.58.45.45,0,0,1-.36.17h-2a.71.71,0,0,1-.57-.18,2.2,2.2,0,0,1-.41-.69L155,123a4.27,4.27,0,0,0-3.22-2.63h0a92.34,92.34,0,0,0-12.19-.56,92.44,92.44,0,0,0-12.2.56h0a4.25,4.25,0,0,0-3.21,2.63l-2.17,5.12a2.2,2.2,0,0,1-.41.69.68.68,0,0,1-.57.18h-2a.47.47,0,0,1-.37-.17.76.76,0,0,1-.12-.58L120,117.56c.37-2.8,1.8-3.67,2-3.81l.26-.14v-.3A17.42,17.42,0,0,1,127,101.46c2.92-3,7.16-4.86,12.61-4.86Zm0,0"/><path class="cls-2" d="M127.41,120.41a11.9,11.9,0,0,0-4.25,1.15,5.12,5.12,0,0,0-2.4,3.14l-1,3.36a1.77,1.77,0,0,0,.14,1.53,1.3,1.3,0,0,0,.57.45l.33-1s0,0-.05-.06-.14-.19,0-.63l1-3.36a3.93,3.93,0,0,1,1.92-2.54,11.09,11.09,0,0,1,3.87-1l-.14-1Zm0,0"/><rect class="cls-2" x="178.95" y="167.81" width="8.68" height="15.74"/><path class="cls-2" d="M193.19,145.85a1.81,1.81,0,0,1-1.81,1.81h-3.26a1.81,1.81,0,0,1-1.81-1.81v-1.92a1.81,1.81,0,0,1,1.81-1.81h3.26a1.81,1.81,0,0,1,1.81,1.81Zm0-1.92"/><rect class="cls-2" x="186.92" y="130.39" width="5.65" height="13.54"/><path class="cls-2" d="M195.59,134.86l-3,1.42H189v-5.89h6.64Zm0-4.47"/><path class="cls-2" d="M186.36,180.36v.09l-.35,7.37a1.82,1.82,0,0,1-1.81,1.73h-1.14a1.9,1.9,0,0,1-.91-.24l-.65-.38,0,0-5.4,2.24a1.82,1.82,0,0,1-1.88-.31,7.56,7.56,0,0,1-1.94-6.83,1.8,1.8,0,0,1,1.08-1.27L180,180a2.43,2.43,0,0,1,2.27-1.46h2.27a1.82,1.82,0,0,1,1.81,1.81Zm-3.74,2.27a2.32,2.32,0,0,1-.79.55l-6.16,2.55a3.35,3.35,0,0,0,.27,1.59l4.14-1.72a4,4,0,0,1,2.41-.16l.13-2.81Zm0,0"/><path class="cls-2" d="M185.2,165.19l-13-1.71-.44,3.31,13.57,1.78-.48,3.6-17.15-2.26,1.38-10.5,16.61,2.19Zm.47-3.59"/><path class="cls-2" d="M195.59,186.18l-5.8,3.35h-7.54l.75-14.24-.33-.33v-3.45l.55-.56.65-12.26a3.45,3.45,0,0,1-.47-3.16l1.56-4.72v-3.66a3.32,3.32,0,0,1,1.79-2.87,3.1,3.1,0,0,1,1.47-.24h5.08a2.29,2.29,0,0,1,1.58.61,2.37,2.37,0,0,1,.71,1.68Zm-7-38.52v3.73L187,156.22l.63.12-.85,16.19-.48.48v.45l.41.41-.63,12h2.75l3.15-1.82V147.66Zm-.68,0h0Zm.09,0"/><path class="cls-2" d="M192.47,201a2.81,2.81,0,0,1-.7,1.87,2.76,2.76,0,0,1-1.68.82l-8.58,1.13a2.59,2.59,0,0,1-2.93-3.3l4.23-15.62,8.31,0v3.83l.81.82.54.53Zm-5-9.79v-1.7h-1.91l-3.12,11.53,6.38-.84v-7.64Zm1.35,1.35"/><rect class="cls-19" x="188.12" y="143.93" width="3.25" height="1.92"/><path class="cls-20" d="M193.78,133.71l-1.6.75h-1.42v-2.25h3Zm0-1.5"/><rect class="cls-20" x="188.74" y="132.21" width="2.03" height="11.73"/><path class="cls-21" d="M184.73,177.1l-.71.54c-1.16.09-1.26-.19-1.73-1h-.48s-.26,1.78,1,2.32c.71.29,1.14,0,1.75,1.24Zm-.14,3.1"/><path class="cls-21" d="M184.48,172.26h-1.94c-.41,0-.67.18-.67.61v1.34h2.61Zm0,2"/><path class="cls-22" d="M184.2,187.74h-1.14l-.8-.46a1.54,1.54,0,0,0-1.49,0l-5.39,2.23a5.26,5.26,0,0,1-1.36-5.06l7.12-2.95c.56-.23.34-1.14,1.14-1.14h2.27Zm.35-7.38"/><path class="cls-23" d="M185.43,163.4l-14.81-2-.91,6.9,15.36,2Zm-.36,7"/><path class="cls-19" d="M193.78,185.14l-4.48,2.58h-5.14l.69-13.14-.37-.37v-2l.52-.52.73-13.93s-1.1-.22-.61-1.71l1.65-5v-3.95a1.18,1.18,0,0,1,1.35-1.3h5.18a.45.45,0,0,1,.48.48Zm0-38.81"/><path class="cls-24" d="M189.8,145.85v41.59l.84-.49v-41.1Zm.84,0"/><path class="cls-20" d="M188.12,187.72h-4l.69-13.14-.37-.37v-2l.52-.52.73-13.93s-1.1-.22-.61-1.71l1.65-5v-3.95a1.18,1.18,0,0,1,1.35-1.3Zm0-41.87"/><path class="cls-20" d="M193.78,185.14l-2.4,1.38V145.85h1.92a.45.45,0,0,1,.48.48Zm0-38.81"/><path class="cls-22" d="M193.78,157.81h-8.05s-1.1-.22-.61-1.71l1.65-5v-3.95a1.18,1.18,0,0,1,1.35-1.3h5.18a.45.45,0,0,1,.48.48Zm0-11.48"/><rect class="cls-25" x="189.8" y="145.85" width="0.84" height="11.96"/><path class="cls-26" d="M185.73,157.81s-1.1-.22-.61-1.71l1.65-5v-3.95a1.18,1.18,0,0,1,1.35-1.3v12Zm2.39,0"/><path class="cls-26" d="M193.78,157.81h-2.4v-12h1.92a.45.45,0,0,1,.48.48Zm0-11.48"/><path class="cls-22" d="M190.65,201a.8.8,0,0,1-.8.89l-8.57,1.13c-.65.09-1.14-.35-.95-1l3.87-14.29,5.1,0v2.77l1.35,1.35Zm0-9.19"/><path class="cls-2" d="M191.63,146.11h-3.77v-2.44h3.77Zm-3.25-1.92v1.4h2.74v-1.4Zm2.74,0"/><path class="cls-2" d="M191,143.93h-.51V132.46H189v11.47h-.51V132H191Zm0-12"/><path class="cls-2" d="M194,133.87l-1.81.85H190.5V132H194Zm-3-1.41v1.75h1.1l1.4-.66v-1.09Zm2.5,0"/><rect class="cls-2" x="191.12" y="145.85" width="0.52" height="40.67"/><rect class="cls-2" x="185.73" y="157.55" width="8.05" height="0.52"/><path class="cls-26" d="M184.2,187.74h-1.14l-.8-.46a1.33,1.33,0,0,0-.79-.19l.89-6.73h2.19Zm.35-7.38"/><path class="cls-21" d="M182.28,180.62a1.68,1.68,0,0,1-1.1-.34,1.49,1.49,0,0,1-.46-1.18l0-4a1.1,1.1,0,0,1,.58-1,1.33,1.33,0,0,1,.55-.12l0,.52a.79.79,0,0,0-.3.07c-.14.07-.28.17-.28.53l0,4a.9.9,0,0,0,.28.78,1.13,1.13,0,0,0,.76.23Zm0-.51"/><path class="cls-2" d="M184.44,188H183l-.86-.5a1.26,1.26,0,0,0-1.26,0l-5.54,2.29-.12-.1a5.58,5.58,0,0,1-1.44-5.31l0-.14,7.24-3a.33.33,0,0,0,.18-.17c.05-.09.1-.21.16-.35a1.38,1.38,0,0,1,.29-.42.92.92,0,0,1,.61-.21h2.54Zm-2.16-7.38a.41.41,0,0,0-.27.08.91.91,0,0,0-.15.25c-.06.12-.11.26-.2.41a.83.83,0,0,1-.42.38l-7,2.9a5,5,0,0,0,1.18,4.57l5.24-2.17a1.86,1.86,0,0,1,1.72,0l.74.43H184l.32-6.86Zm2,0"/><path class="cls-21" d="M184.48,172.52h-1.94a.48.48,0,0,0-.32.08c-.05,0-.09.11-.09.27V174h2.35v.52h-2.86v-1.6a.84.84,0,0,1,.27-.66.93.93,0,0,1,.65-.21h1.94Zm0-.52"/><path class="cls-2" d="M184.12,177.89H184a1.89,1.89,0,0,1-1.29-.21,2.12,2.12,0,0,1-.61-.8h-.09a2.68,2.68,0,0,0,0,.66,1.47,1.47,0,0,0,.85,1.17c.31.13.58.12.92.27a2.07,2.07,0,0,1,1,1.09l-.46.23c-.29-.59-.5-.75-.71-.85s-.51-.1-.91-.26a2,2,0,0,1-1.15-1.56,3.43,3.43,0,0,1,0-1l0-.22h.85l.07.13a2.78,2.78,0,0,0,.53.76,1.45,1.45,0,0,0,.89.12l.64-.49.31.41Zm.76-.58"/><path class="cls-19" d="M186.66,176a.61.61,0,0,0,.44-.19.59.59,0,0,0,.18-.44.62.62,0,1,0-.62.63Zm0,0"/><path class="cls-19" d="M186.66,180.13a.62.62,0,0,0,.62-.62.61.61,0,0,0-.62-.62.62.62,0,0,0-.62.62.62.62,0,0,0,.62.62Zm0,0"/><path class="cls-21" d="M185.07,170.37l-3-.39.91-6.9,2.42.32Zm.36-7"/><path class="cls-27" d="M171.58,168.59l-1.87-.24.91-6.9,1.87.24Zm.91-6.9"/><path class="cls-2" d="M185.4,163.65l-14.56-1.91-.84,6.38,15.1,2-.06.52-15.62-2.06,1-7.41,15.07,2Zm.07-.51"/><path class="cls-2" d="M194,185.29,189.37,188h-5.48l.69-13.3-.36-.36v-2.17l.52-.53.72-13.63a1.2,1.2,0,0,1-.41-.31,1.62,1.62,0,0,1-.17-1.66l1.63-5v-3.91a1.45,1.45,0,0,1,.84-1.44,1.74,1.74,0,0,1,.8-.12h5.15a.76.76,0,0,1,.52.19.75.75,0,0,1,.22.55Zm-.52-39a.21.21,0,0,0-.06-.17s-.07,0-.16,0h-5.21a1.22,1.22,0,0,0-.54.08c-.27.11-.52.31-.52,1v4l-1.66,5c-.23.68-.09,1,.07,1.16a.76.76,0,0,0,.34.22l.22,0-.75,14.25-.51.51v1.75l.37.37-.68,13h4.8l4.29-2.47V146.33Zm0,0"/><path class="cls-26" d="M189.3,187.73h-3.75l-3,14.17a.76.76,0,0,0,.33.93l-1.61.21c-.65.09-1.14-.35-.95-1l3.87-14.29,5.1,0Zm0,0"/><path class="cls-25" d="M190.65,201a.8.8,0,0,1-.8.89l-.38.05a1.25,1.25,0,0,0,0-.35v-9.23L188.16,191v-3.25h1.14v2.77l1.35,1.35Zm0-9.19"/><path class="cls-2" d="M190.91,201a1.14,1.14,0,0,1-.27.81,1.24,1.24,0,0,1-.75.34l-8.58,1.13a1.2,1.2,0,0,1-1-.31,1.08,1.08,0,0,1-.22-1L184,187.48l5.56,0v2.92l1.28,1.27.07.08ZM189,190.59V188h-4.65l-3.81,14.1a.51.51,0,0,0,.09.55.64.64,0,0,0,.57.15l8.58-1.13a.67.67,0,0,0,.44-.18.6.6,0,0,0,.13-.45v-9.09Zm1.35,1.35"/><path class="cls-2" d="M171.84,168.63l-.52-.07.91-6.9.51.07Zm.9-6.9"/><path class="cls-2" d="M187.54,175.41a.88.88,0,1,1-.88-.88.89.89,0,0,1,.88.88Zm-.52,0a.36.36,0,1,0-.36.37.36.36,0,0,0,.36-.37Zm0,0"/><path class="cls-2" d="M187.54,179.51a.88.88,0,1,1-.88-.88.89.89,0,0,1,.88.88Zm-.52,0a.36.36,0,1,0-.36.36.36.36,0,0,0,.36-.36Zm0,0"/><path class="cls-12" d="M45,0,16,0H0L0,16c0,7,0,14,0,21A29.11,29.11,0,0,0,51.47,18.3,28.92,28.92,0,0,0,45,0Z"/><text class="cls-28" transform="translate(18.7 32.65)">01</text><text class="cls-29" transform="translate(23.31 233.48)">nie było międ<tspan class="cls-30" x="134.48" y="0">z</tspan><tspan x="143.6" y="0">y</tspan><tspan x="20.08" y="24.28">nami wojny</tspan></text></svg>