<svg id="Слой_1" data-name="Слой 1" xmlns="http://www.w3.org/2000/svg" xmlns:xlink="http://www.w3.org/1999/xlink" viewBox="0 0 195.59 280.63"><defs><style>.cls-1{fill:none;}.cls-2{clip-path:url(#clip-path);}.cls-3{fill:#1a1a1a;}.cls-27,.cls-4{fill:#fff;}.cls-5{fill:#a1bac7;}.cls-6{fill:#cee0ea;}.cls-7{fill:#787878;}.cls-8{fill:#545454;}.cls-9{fill:#d2d2d2;}.cls-10{fill:#f59d4b;}.cls-11{fill:#666;}.cls-12{fill:#e94c44;}.cls-13{fill:#ccc;}.cls-14,.cls-25{fill:#eb5a53;}.cls-15{fill:#badbe9;}.cls-16{fill:#6b6b6b;}.cls-17{fill:#959595;}.cls-18{fill:#505050;}.cls-19{fill:#5f5f5f;}.cls-20{fill:#434343;}.cls-21{fill:#313131;}.cls-22{fill:#cfcfcf;}.cls-23{fill:#767676;}.cls-24{fill:#b3b3b3;}.cls-25{font-size:35px;}.cls-25,.cls-27{font-family:Impact;}.cls-26{letter-spacing:0.02em;}.cls-27{font-size:20px;}</style><clipPath id="clip-path"><rect class="cls-1" x="-2.96" y="-2.14" width="201.51" height="284.92"/></clipPath></defs><g class="cls-2"><path class="cls-3" d="M33.46,94.32c-14.38,0-27.38,2.16-37.14,5.87a38,38,0,0,0-12.08,6.88c-3.1,2.79-5.31,6.42-5.31,10.52v26.18A13.58,13.58,0,0,0-7.55,157.29H104.71v-8.22H-7.55a5.2,5.2,0,0,1-5.3-5.3V117.59c0-1.2.6-2.62,2.59-4.42a31.31,31.31,0,0,1,9.5-5.3c8.46-3.22,20.68-5.33,34.22-5.33h71.25V94.32Zm71.25,0"/><path class="cls-3" d="M108.69,45.59a7.08,7.08,0,0,0-6.13,3.54L100.3,53a7.1,7.1,0,0,0,0,7.08l2.26,3.93a7.1,7.1,0,0,0,6.13,3.53h8.41V59.37h-7.75l-1.61-2.78,1.61-2.79h7.75V45.59Zm8.41,0"/><path class="cls-3" d="M114.5,45.59V53.8h7.76l1.6,2.78-1.6,2.79H114.5v8.21h8.41A7.1,7.1,0,0,0,129.05,64l2.26-3.92a7.08,7.08,0,0,0,0-7.07l-2.26-3.92a7.1,7.1,0,0,0-6.14-3.54Zm8.41,0"/><path class="cls-3" d="M83.18,59.37c-4.09,0-7.41.66-10.1,2.4s-4.33,4.19-5.83,6.8L47.46,102.84,54.58,107,74.37,72.68c1.31-2.27,2.2-3.39,3.16-4s2.41-1.08,5.65-1.08h65.24c3.24,0,4.7.47,5.65,1.08s1.86,1.74,3.17,4L177,107l7.12-4.11L164.35,68.57c-1.5-2.61-3.13-5.07-5.82-6.8s-6-2.4-10.11-2.4Zm65.24,0"/><path class="cls-3" d="M102.11,94.32v8.22h98.6a18.82,18.82,0,0,1,18.95,18.95v22.28a5.2,5.2,0,0,1-5.29,5.3H102.11v8.22H214.37a13.58,13.58,0,0,0,13.51-13.52V121.49a27.2,27.2,0,0,0-27.17-27.17Zm98.6,0"/><path class="cls-4" d="M51,104.9,70.81,70.62c2.81-4.87,5-7.14,12.37-7.14h65.24c7.33,0,9.56,2.27,12.37,7.14l19.79,34.28Zm129.56,0"/><path class="cls-5" d="M62.9,98.43,79,70.53H152.6l16.1,27.9Zm105.8,0"/><path class="cls-6" d="M134.3,70.53l-11.56,27.9h21.49l10.22-24.69-1.85-3.21Zm18.3,0"/><path class="cls-6" d="M90.5,70.53,79,98.43h21.48L112,70.53Zm21.49,0"/><path class="cls-3" d="M78.41,69.5,58.28,104.38l1.78,1L79.6,71.56H152l19.55,33.85,1.77-1L153.19,69.5Zm74.78,0"/><path class="cls-3" d="M83.18,62.45c-3.77,0-6.39.59-8.43,1.91s-3.4,3.27-4.83,5.75L50.13,104.38l1.78,1L71.7,71.14c1.38-2.4,2.55-4,4.16-5.06s3.76-1.58,7.32-1.58h65.24c3.56,0,5.71.55,7.32,1.58s2.78,2.66,4.17,5.06l19.78,34.27,1.78-1L161.68,70.11c-1.43-2.48-2.78-4.44-4.82-5.75s-4.67-1.91-8.44-1.91Zm65.24,0"/><path class="cls-7" d="M33.46,98.43C5.53,98.43-17,107-17,117.59v26.18a9.39,9.39,0,0,0,9.41,9.41H214.37a9.38,9.38,0,0,0,9.4-9.41V121.49a23,23,0,0,0-23.06-23.06Zm167.25,0"/><path class="cls-8" d="M-11.19,108.66c-3.68,2.67-5.77,5.71-5.77,8.93v26.18a9.39,9.39,0,0,0,9.41,9.41H214.37a9.38,9.38,0,0,0,9.4-9.41V121.49a23,23,0,0,0-3.87-12.83Zm231.09,0"/><path class="cls-7" d="M27.78,117.11A29.58,29.58,0,0,0-1.09,153.18H56.66a29.6,29.6,0,0,0-28.88-36.07Zm0,0"/><path class="cls-7" d="M179,117.11a29.6,29.6,0,0,0-29.59,29.6,30,30,0,0,0,.71,6.47h57.76A29.6,29.6,0,0,0,179,117.11Zm0,0"/><path class="cls-4" d="M-11.75,109.08c-3.33,2.56-5.21,5.45-5.21,8.51v1H2.11l7.3-9.52Zm21.16,0"/><path class="cls-9" d="M62.9,98.43v48.28h86.54A29.57,29.57,0,0,1,168.67,119l0-.06V98.43Zm105.8,0"/><rect class="cls-4" x="62.9" y="98.43" width="105.8" height="10.24"/><path class="cls-3" d="M33.46,97.4c-14.07,0-26.77,2.14-36,5.67a35.46,35.46,0,0,0-11.11,6.29c-2.68,2.42-4.28,5.22-4.28,8.23v26.18A10.43,10.43,0,0,0-7.55,154.2H104.71v-2H-7.55a8.34,8.34,0,0,1-8.38-8.38V117.59c0-2.29,1.2-4.54,3.61-6.71A33.77,33.77,0,0,1-1.86,105c9-3.4,21.46-5.53,35.32-5.53h71.25V97.4Zm71.25,0"/><path class="cls-3" d="M27.78,116.08A30.64,30.64,0,0,0-2.1,153.41l2-.45a28.57,28.57,0,1,1,55.75,0l2,.45a30.24,30.24,0,0,0,.74-6.7,30.64,30.64,0,0,0-30.62-30.63Zm0,0"/><path class="cls-3" d="M179,116.08a30.64,30.64,0,0,0-29.88,37.33l2-.45a28.57,28.57,0,1,1,55.75,0l2,.45A30.64,30.64,0,0,0,179,116.08Zm0,0"/><rect class="cls-3" x="57.38" y="145.68" width="92.06" height="2.05"/><path class="cls-10" d="M9.41,109.08l-7.3,9.52H-1.17v-9.52Zm-10.58,0"/><path class="cls-3" d="M-11.75,108.05v2.06H7.33L1.6,117.58H-17v2H2.61l8.89-11.58Zm23.25,0"/><rect class="cls-3" x="114.77" y="70.53" width="2.05" height="76.17"/><rect class="cls-3" x="61.87" y="98.43" width="2.05" height="48.28"/><rect class="cls-3" x="167.67" y="98.43" width="2.05" height="20.55"/><path class="cls-11" d="M87.43,104.89a3.77,3.77,0,0,0,0,7.54h15.08a3.77,3.77,0,0,0,0-7.54Zm15.08,0"/><path class="cls-3" d="M87.43,103.87a4.8,4.8,0,0,0,0,9.59h8.84v-2H87.43a2.75,2.75,0,0,1,0-5.49h8.84v-2Zm8.84,0"/><path class="cls-11" d="M140,104.89a3.77,3.77,0,0,0,0,7.54H155a3.77,3.77,0,1,0,0-7.54Zm15.08,0"/><path class="cls-3" d="M140,103.87a4.8,4.8,0,1,0,0,9.59h8.84v-2H140a2.75,2.75,0,0,1,0-5.49h8.84v-2Zm8.84,0"/><path class="cls-12" d="M108.69,49.7a3,3,0,0,0-2.57,1.48l-2.27,3.92a3,3,0,0,0,0,3L106.12,62a3,3,0,0,0,2.57,1.49h14.22A3,3,0,0,0,125.49,62l2.26-3.92a3,3,0,0,0,0-3l-2.26-3.92a2.94,2.94,0,0,0-2.58-1.48Zm14.22,0"/><path class="cls-3" d="M108.69,48.67a4,4,0,0,0-3.46,2L103,54.59a4,4,0,0,0,0,4l2.27,3.92a4,4,0,0,0,3.46,2h8.41v-2h-8.41a2,2,0,0,1-1.69-1l-2.26-3.92a1.94,1.94,0,0,1,0-2L107,51.69a2,2,0,0,1,1.69-1h8.41v-2Zm8.41,0"/><path class="cls-3" d="M114.5,48.67v2h8.41a2,2,0,0,1,1.69,1l2.26,3.92a1.94,1.94,0,0,1,0,2l-2.26,3.92a2,2,0,0,1-1.69,1H114.5v2h8.41a4,4,0,0,0,3.47-2l2.26-3.91a4,4,0,0,0,0-4l-2.26-3.92a4,4,0,0,0-3.47-2Zm8.41,0"/><path class="cls-3" d="M102.11,97.4v2.06h98.6a22,22,0,0,1,22,22v22.28a8.34,8.34,0,0,1-8.38,8.38H102.11v2H214.37a10.43,10.43,0,0,0,10.43-10.43V121.49A24.06,24.06,0,0,0,200.71,97.4Zm98.6,0"/><path class="cls-3" d="M93.68,103.87v2h8.83a2.75,2.75,0,1,1,0,5.49H93.68v2h8.83a4.8,4.8,0,1,0,0-9.59Zm8.83,0"/><path class="cls-3" d="M146.2,103.87v2H155a2.75,2.75,0,0,1,0,5.49H146.2v2H155a4.8,4.8,0,1,0,0-9.59Zm8.84,0"/><path class="cls-3" d="M179,122.68a24,24,0,1,0,24,24,24,24,0,0,0-24-24Zm0,0"/><path class="cls-13" d="M179,134.42a12.29,12.29,0,1,0,8.69,3.6,12.28,12.28,0,0,0-8.69-3.6Zm0,0"/><path class="cls-4" d="M179,137.27a9.42,9.42,0,1,0,6.68,2.76,9.43,9.43,0,0,0-6.68-2.76Zm0,0"/><path class="cls-3" d="M181.67,145.41a3,3,0,0,1,.3,1.3,2.94,2.94,0,0,1-5.87,0,3,3,0,0,1,.3-1.3h-2.18a5,5,0,1,0,9.8,1.3,4.64,4.64,0,0,0-.18-1.3Zm2.17,0"/><path class="cls-7" d="M184.29,126a1,1,0,0,0-.26,2,19.27,19.27,0,0,1,13.64,13.64,1,1,0,0,0,1.27.75,1.06,1.06,0,0,0,.63-.49,1.08,1.08,0,0,0,.09-.79,21.35,21.35,0,0,0-15.1-15.1.84.84,0,0,0-.27,0Zm0,0"/><path class="cls-3" d="M27.78,122.68a24,24,0,1,0,24,24,24,24,0,0,0-24-24Zm0,0"/><path class="cls-13" d="M27.78,134.42a12.29,12.29,0,1,0,8.69,3.6,12.28,12.28,0,0,0-8.69-3.6Zm0,0"/><path class="cls-4" d="M27.78,137.27A9.42,9.42,0,1,0,34.46,140a9.43,9.43,0,0,0-6.68-2.76Zm0,0"/><path class="cls-3" d="M30.42,145.41a3,3,0,0,1,.3,1.3,2.94,2.94,0,0,1-5.87,0,3,3,0,0,1,.3-1.3H23a5,5,0,1,0,9.63,0Zm2.18,0"/><path class="cls-7" d="M33,126a1,1,0,0,0-.26,2,19.3,19.3,0,0,1,13.65,13.64,1,1,0,0,0,.47.64,1,1,0,0,0,1.51-1.17,21.34,21.34,0,0,0-15.1-15.1.84.84,0,0,0-.27,0Zm0,0"/><path class="cls-3" d="M179,141.72a5,5,0,0,0-4.81,6.28h2.18a2.94,2.94,0,1,1,5.27,0h2.17a4.57,4.57,0,0,0,.18-1.29,5,5,0,0,0-5-5Zm0,0"/><path class="cls-3" d="M27.78,141.72a5,5,0,0,0-5,5A5.1,5.1,0,0,0,23,148h2.18a3,3,0,0,1-.3-1.3,2.94,2.94,0,1,1,5.87,0,3,3,0,0,1-.3,1.3H32.6a5.09,5.09,0,0,0,.17-1.3,5,5,0,0,0-5-5Zm0,0"/><path class="cls-14" d="M43.72,180.4c0-12.36,5.44-14.83,9.21-14.83s9.2,2.47,9.2,14.83-4.12,29.93-9.2,29.93-9.21-17.57-9.21-29.93Zm0,0"/><path class="cls-3" d="M52.93,163a10.43,10.43,0,0,0-8,3.69c-2.36,2.79-3.8,7.15-3.8,13.71A79.44,79.44,0,0,0,44,200.69a33.26,33.26,0,0,0,3.19,8c1.3,2.16,3,4.18,5.79,4.18s4.49-2,5.79-4.18a33.67,33.67,0,0,0,3.19-8A79.87,79.87,0,0,0,64.7,180.4c0-6.56-1.44-10.92-3.8-13.71a10.42,10.42,0,0,0-8-3.69Zm0,5.14A4.93,4.93,0,0,1,57,170c1.3,1.54,2.59,4.59,2.59,10.39A75.83,75.83,0,0,1,57,199.3a30,30,0,0,1-2.65,6.77,5.53,5.53,0,0,1-1.38,1.64,5.37,5.37,0,0,1-1.38-1.64,30,30,0,0,1-2.66-6.77,75.82,75.82,0,0,1-2.6-18.9c0-5.8,1.28-8.85,2.58-10.39a5,5,0,0,1,4.06-1.87Zm0,0"/><path class="cls-14" d="M-2.82,180.4c0-12.36,5.44-14.83,9.21-14.83s9.2,2.47,9.2,14.83-4.12,29.93-9.2,29.93-9.21-17.57-9.21-29.93Zm0,0"/><path class="cls-3" d="M6.39,163a10.43,10.43,0,0,0-8,3.69c-2.36,2.79-3.8,7.15-3.8,13.71A79.87,79.87,0,0,0-2.6,200.69a33.67,33.67,0,0,0,3.2,8c1.3,2.16,3,4.18,5.79,4.18s4.49-2,5.78-4.18a33.25,33.25,0,0,0,3.2-8,79.87,79.87,0,0,0,2.79-20.29c0-6.56-1.44-10.92-3.8-13.71a10.42,10.42,0,0,0-8-3.69Zm0,5.14A4.93,4.93,0,0,1,10.44,170c1.3,1.54,2.58,4.59,2.58,10.39a75.82,75.82,0,0,1-2.6,18.9,29.53,29.53,0,0,1-2.66,6.77,5.42,5.42,0,0,1-1.37,1.64A5.37,5.37,0,0,1,5,206.07a29.53,29.53,0,0,1-2.66-6.77,75.82,75.82,0,0,1-2.6-18.9c0-5.8,1.28-8.85,2.58-10.39a5,5,0,0,1,4.06-1.87Zm0,0"/><path class="cls-14" d="M90,119c-3.58-11.83.91-15.76,4.51-16.85s9.53-.31,13.11,11.52,4.72,29.84-.14,31.31S93.59,130.87,90,119Zm0,0"/><path class="cls-3" d="M93.73,101.09a10.47,10.47,0,0,0-6.57,5.84c-1.45,3.35-1.56,7.95.34,14.22a79.71,79.71,0,0,0,8.55,18.62,33,33,0,0,0,5.38,6.74c1.87,1.7,4.12,3.13,6.75,2.33s3.71-3.23,4.33-5.68a33.41,33.41,0,0,0,.73-8.6,79.81,79.81,0,0,0-3.2-20.23c-1.9-6.27-4.54-10-7.61-12a10.44,10.44,0,0,0-8.7-1.22ZM95.22,106a5,5,0,0,1,4.42.61c1.69,1.1,3.8,3.65,5.48,9.2a75.81,75.81,0,0,1,3,18.85,29.56,29.56,0,0,1-.59,7.24,5.53,5.53,0,0,1-.84,2,5.24,5.24,0,0,1-1.8-1.17,30.11,30.11,0,0,1-4.5-5.71,75.26,75.26,0,0,1-8-17.34c-1.69-5.55-1.34-8.84-.54-10.69a5,5,0,0,1,3.34-3Zm0,0"/><path class="cls-3" d="M29.66,47.17a72.1,72.1,0,1,0,72.09,72.09A72.16,72.16,0,0,0,29.66,47.17Zm0,8.22a63.87,63.87,0,1,1-63.87,63.87A63.81,63.81,0,0,1,29.66,55.39Zm0,0"/><path class="cls-14" d="M-38.33,119.26a68,68,0,1,1,19.92,48.07,68,68,0,0,1-19.92-48.07Zm0,0"/><path class="cls-4" d="M-29.69,115.72a62.89,62.89,0,1,1,18.42,44.47,62.9,62.9,0,0,1-18.42-44.47Zm0,0"/><path class="cls-14" d="M-38.33,119.26a68,68,0,0,0,136,0Zm136,0"/><path class="cls-14" d="M-29.51,119.26a62.83,62.83,0,0,0,125.47,0Zm125.47,0"/><path class="cls-3" d="M29.66,50.25a69,69,0,1,0,69,69,69,69,0,0,0-69-69Zm0,2.06a67,67,0,1,1-67,67,66.93,66.93,0,0,1,67-66.95Zm0,0"/><path class="cls-3" d="M93.67,151.31l-1-.14,1.81-13.69,1,.13Zm1.81-13.7"/><path class="cls-3" d="M1.16,95.48a10.32,10.32,0,0,0-2.25,6.46v5.2a10.38,10.38,0,1,0,20.75,0v-4Zm0,0"/><path class="cls-4" d="M12,101.46a3.35,3.35,0,1,0,3.35,3.35A3.34,3.34,0,0,0,12,101.46Zm0,0"/><path class="cls-3" d="M60.24,95.48l-18.51,7.67v4a10.38,10.38,0,0,0,20.76,0v-5.2a10.38,10.38,0,0,0-2.25-6.46Zm0,0"/><path class="cls-4" d="M54.8,101.46a3.35,3.35,0,1,0,3.35,3.35,3.34,3.34,0,0,0-3.35-3.35Zm0,0"/><path class="cls-4" d="M15.56,145.41a3.15,3.15,0,0,1-3.16-3.15v-3.57a18.3,18.3,0,0,1,36.6,0v3.57a3.15,3.15,0,0,1-3.16,3.15Zm0,0"/><path class="cls-15" d="M34.27,145.41h0s3.11-6,0-11.47c3.88-6.13.47-13.09.47-13.09A18.31,18.31,0,0,1,49,138.69v3.56a3.15,3.15,0,0,1-3.16,3.16Zm0,0"/><path class="cls-3" d="M43.25,145.41h0a6.55,6.55,0,0,0,0-8.44c4.1-3.81.28-11.31.28-11.31a18.21,18.21,0,0,1,5.47,13v3.56a3.15,3.15,0,0,1-3.16,3.16Zm0,0"/><path class="cls-3" d="M18.15,145.41h0a6.55,6.55,0,0,1,0-8.44c-4.1-3.81-.28-11.31-.28-11.31a18.21,18.21,0,0,0-5.47,13v3.56a3.15,3.15,0,0,0,3.16,3.16Zm0,0"/><path class="cls-3" d="M30.7,119.39H30v2l.72,0A17.28,17.28,0,0,1,48,138.69v3.57a2.13,2.13,0,0,1-2.15,2.15H30v2H45.84A4.17,4.17,0,0,0,50,142.26v-3.57a19.31,19.31,0,0,0-19.3-19.3Zm0,0"/><path class="cls-3" d="M30.7,119.39a19.32,19.32,0,0,0-19.31,19.3v3.57a4.18,4.18,0,0,0,4.17,4.16H31.41v-2H15.56a2.13,2.13,0,0,1-2.15-2.15v-3.57A17.28,17.28,0,0,1,30.7,121.4l.71,0v-2Zm0,0"/><path class="cls-3" d="M30.2,41.29h-.73v8.22h.74a82.27,82.27,0,0,1,29,5.18V69.28c0,2.2-2.14,5.19-7.39,7.75s-13,4.33-21.62,4.33h-.73v8.22h.73c9.69,0,18.49-1.87,25.23-5.16s12-8.4,12-15.14V49.1L64.94,48A89.13,89.13,0,0,0,30.2,41.29Zm0,0"/><path class="cls-3" d="M30.2,41.29a89.08,89.08,0,0,0-34.74,6.8L-7,49.16V69.28C-7,76-1.76,81.13,5,84.42s15.53,5.16,25.22,5.16h.73V81.35H30.2c-8.6,0-16.36-1.76-21.62-4.33s-7.39-5.55-7.39-7.75V54.73a82.07,82.07,0,0,1,29-5.22h.73V41.3Zm0,0"/><path class="cls-3" d="M30.2,10.48l-.9.2c-27.12,6.08-41.48,16.1-46.51,26.8-2.51,5.35-2.38,11.1.33,15.47s7.62,7.13,13.43,7.89l1.06-8.15c-3.91-.51-6.33-2.16-7.51-4.06s-1.46-4.28.13-7.65c3.13-6.66,14.85-16.24,40-22,25.12,5.81,36.85,15.39,40,22,1.58,3.37,1.29,5.75.12,7.65s-3.59,3.55-7.51,4.06l1.06,8.15c5.82-.76,10.73-3.51,13.44-7.89s2.84-10.12.32-15.47c-5-10.7-19.39-20.72-46.51-26.8Zm0,0"/><path class="cls-16" d="M63.32,56.76C82.77,54.23,83.1,26.56,30.2,14.69-22.7,26.56-22.37,54.23-2.92,56.76Zm0,0"/><path class="cls-16" d="M30.2,45.4A85.11,85.11,0,0,0-2.92,51.86V69.28c0,8.94,14.83,16.19,33.12,16.19s33.12-7.25,33.12-16.19V51.81A85.31,85.31,0,0,0,30.2,45.4Zm0,0"/><path class="cls-17" d="M16.33,46.51a82.61,82.61,0,0,0-8.75,1.77V71.17a19.13,19.13,0,0,0,4,11.5,52.61,52.61,0,0,0,7.75,1.9,24.28,24.28,0,0,1-3-11.63Zm0,0"/><path class="cls-18" d="M44,18.51a24.47,24.47,0,0,1,6.92,17.12V56.76H63.32C80.9,54.48,82.86,31.64,44,18.51Zm0,0"/><path class="cls-18" d="M42.63,46.26V71.33a20.63,20.63,0,0,1-5.57,13.79c15-1.54,26.26-8.05,26.26-15.84V51.81a80.07,80.07,0,0,0-20.69-5.55Zm0,0"/><path class="cls-19" d="M30.2,45.4A85.11,85.11,0,0,0-2.92,51.86V67.63A110,110,0,0,1,30.2,62.71a110,110,0,0,1,33.12,4.92V51.81A85.31,85.31,0,0,0,30.2,45.4Zm0,0"/><path class="cls-20" d="M30.2,51.05A96.1,96.1,0,0,0-2.92,56.77v5.37a110.35,110.35,0,0,1,33.12-5,110.25,110.25,0,0,1,33.12,5v-5.4A96.06,96.06,0,0,0,30.2,51.05Zm0,0"/><path class="cls-3" d="M30.2,44.37h-.73v2.06h.73a84.54,84.54,0,0,1,32.1,6.1V69.28c0,3.9-3.32,7.68-9.13,10.52s-14,4.64-23,4.64h-.73v2.06h.73c9.28,0,17.69-1.82,23.87-4.84s10.28-7.33,10.28-12.37V51.13l-.62-.26a86.24,86.24,0,0,0-33.53-6.5Zm0,0"/><path class="cls-3" d="M30.2,13.64l-.22,0c-26.62,6-40.07,15.89-44.4,25.1-2.17,4.61-2,9.1.16,12.54S-8.15,57.12-3,57.78l.26-2c-4.62-.6-8-2.66-9.73-5.49s-2-6.47,0-10.59c3.85-8.19,16.64-18,42.76-23.91C56.32,21.65,69.11,31.47,73,39.66c1.94,4.12,1.71,7.76,0,10.59s-5.1,4.89-9.73,5.49l.27,2c5.1-.66,9.07-3,11.21-6.45s2.32-7.93.15-12.54C70.49,29.58,57,19.66,30.43,13.69Zm0,0"/><path class="cls-3" d="M30.2,61.68a111.25,111.25,0,0,0-33.48,5l.63,2A109.15,109.15,0,0,1,30.2,63.74,109,109,0,0,1,63,68.62l.63-2a110.87,110.87,0,0,0-33.47-5Zm0,0"/><path class="cls-19" d="M16.33,52c-3,.41-5.9,1-8.75,1.61v5.81q4.29-.87,8.75-1.4Zm0,0"/><path class="cls-21" d="M42.63,51.82v6a104.48,104.48,0,0,1,20.69,4.29v-5.4a90.6,90.6,0,0,0-20.69-4.94Zm0,0"/><path class="cls-3" d="M30.2,56.17a111.19,111.19,0,0,0-33.43,5l.62,2a109.15,109.15,0,0,1,32.81-4.9A109.1,109.1,0,0,1,63,63.14l.63-2a111.2,111.2,0,0,0-33.44-5Zm0,0"/><path class="cls-3" d="M30.2,50A97.28,97.28,0,0,0-3.28,55.81l.72,1.92A95.08,95.08,0,0,1,30.2,52.08,95.08,95.08,0,0,1,63,57.72l.72-1.92A97.28,97.28,0,0,0,30.2,50Zm0,0"/><path class="cls-22" d="M30.2,20l-3.09,3.1H22.73v4.38l-3.1,3.09,3.1,3.1v4.38h4.38l3.09,3.09,3.1-3.09h4.38V33.68l3.09-3.1-3.09-3.09V23.11H33.3Zm0,0"/><path class="cls-4" d="M30.2,20l-3.09,3.1H22.73v4.38l-3.1,3.09,3.1,3.1v4.38l15-15H33.3Zm0,0"/><path class="cls-3" d="M30.2,18.56l-.73.72h0v2.9l.73-.73,2.67,2.67h3.78v3.78l2.67,2.67-2.67,2.67V37H32.87L30.2,39.7,29.47,39v2.91l.73.73,3.52-3.53h5v-5l3.53-3.52L38.7,27.06v-5h-5Zm0,0"/><path class="cls-3" d="M30.2,44.37A86.18,86.18,0,0,0-3.33,50.92l-.62.26v18.1c0,5,4.1,9.35,10.28,12.37S20.92,86.5,30.2,86.5h.73V84.43H30.2c-9,0-17.16-1.8-23-4.64S-1.9,73.18-1.9,69.28V52.58a84.29,84.29,0,0,1,32.1-6.15h.73V44.38Zm0,0"/><path class="cls-3" d="M30.2,18.56l-.73.72-2.79,2.8h-5v5l-3.52,3.52L21.7,34.1v5h5l3.52,3.53.73-.74V39l-.73.73L27.53,37H23.75V33.25l-2.67-2.67,2.67-2.67V24.13h3.78l2.67-2.67.73.74V19.29Zm0,0"/><path class="cls-3" d="M107.81,130.06A9.05,9.05,0,0,0,99,137.4H96.47a9.67,9.67,0,0,0-9.6,9.6v8.2A29.66,29.66,0,0,0,102,205.34a9.81,9.81,0,0,0,5.77,1.88,9.71,9.71,0,0,0,5.39-1.81,29.83,29.83,0,0,0,21.44-16.52,1,1,0,0,0,.07-.15c.07-.15.14-.29.2-.44l.11-.24.15-.35c.09-.21.18-.42.26-.63v0c.09-.22.17-.44.25-.66v0c.08-.21.15-.41.22-.62a.76.76,0,0,1,0-.11c.06-.19.12-.38.19-.58a.19.19,0,0,1,0-.07c.07-.22.13-.44.2-.66v0a28.39,28.39,0,0,0,1-5.07h0a30.23,30.23,0,0,0,.16-3c0-.65,0-1.29-.07-1.93a29.55,29.55,0,0,0-8.69-19.08V147a9.67,9.67,0,0,0-9.6-9.6h-2.52a9.05,9.05,0,0,0-8.81-7.34Zm0,33.61h0l.65,0,.64.05a11.69,11.69,0,0,1,1.86.33,12.12,12.12,0,0,1,2.3.83c.19.09.37.18.54.28.36.19.7.4,1,.62l.49.35a12.49,12.49,0,0,1,5,10.06c0,.22,0,.43,0,.64a.43.43,0,0,1,0,.05,4.38,4.38,0,0,1,0,.52,1.64,1.64,0,0,1,0,.22c0,.1,0,.2,0,.3s0,.24,0,.36a.06.06,0,0,1,0,0,12.46,12.46,0,0,1-8.91,9.79,9.87,9.87,0,0,0-3.45-.7,9.71,9.71,0,0,0-3.76.76,12.55,12.55,0,0,1,3.76-24.52Zm0,0"/><path class="cls-23" d="M107.81,134.17a4.85,4.85,0,0,1,4.86,4.86v5.72h-9.73V139a4.85,4.85,0,0,1,4.87-4.86Zm0,0"/><path class="cls-3" d="M107.81,133.14a5.89,5.89,0,0,0-5.89,5.89v5.72h2V139a3.84,3.84,0,1,1,7.67,0v5.72h2.06V139a5.9,5.9,0,0,0-5.89-5.89Zm0,0"/><path class="cls-3" d="M107.81,150.62a25.6,25.6,0,1,0,25.59,25.6,25.6,25.6,0,0,0-25.59-25.6Zm0,0a25.57,25.57,0,1,1-25.57,25.57,25.56,25.56,0,0,1,25.57-25.57Zm0,8.9a16.67,16.67,0,1,0,16.66,16.67,16.67,16.67,0,0,0-16.66-16.67Zm0,0a16.64,16.64,0,1,1-16.63,16.64,16.64,16.64,0,0,1,16.63-16.64Zm0,0"/><path class="cls-3" d="M119.14,141.49H96.47A5.5,5.5,0,0,0,91,147v8.68a3.9,3.9,0,0,0,3.91,3.9h12.94a16.64,16.64,0,0,1,3.25,32.95,5.8,5.8,0,1,0,.78,9,25.6,25.6,0,0,0,12.65-44.69,4.15,4.15,0,0,0,.16-1.12V147a5.5,5.5,0,0,0-5.51-5.51Zm-22.67,0h22.67a5.46,5.46,0,0,1,5.48,5.47v8.68a3.75,3.75,0,0,1-.17,1.12h0a25.56,25.56,0,0,1-12.62,44.64,5.77,5.77,0,1,1-.78-8.9h0a16.67,16.67,0,0,0-3.25-33H94.89A3.86,3.86,0,0,1,91,155.68V147a5.46,5.46,0,0,1,5.47-5.48Zm0,0"/><path class="cls-24" d="M107.81,150.63a25.59,25.59,0,1,0,18.09,7.5,25.58,25.58,0,0,0-18.09-7.5Zm0,8.94A16.63,16.63,0,1,1,96,164.44a16.65,16.65,0,0,1,11.78-4.87Zm0,0"/><path class="cls-3" d="M107.81,149.61a26.62,26.62,0,0,0-26.61,26.6c0,.25,0,.49,0,.74h2.06c0-.25,0-.49,0-.74a24.56,24.56,0,0,1,49.11,0c0,.25,0,.49,0,.74h2.05c0-.25,0-.49,0-.74a26.61,26.61,0,0,0-26.6-26.6Zm0,8.93a17.69,17.69,0,0,0-17.68,17.67c0,.25,0,.49,0,.74h2c0-.25,0-.49,0-.74a15.63,15.63,0,0,1,31.25,0c0,.25,0,.49,0,.74h2c0-.25,0-.49,0-.74a17.68,17.68,0,0,0-17.67-17.67Zm0,0"/><path class="cls-3" d="M81.21,175.48c0,.25,0,.49,0,.73a26.61,26.61,0,1,0,53.21,0c0-.24,0-.48,0-.73h-2.05c0,.25,0,.49,0,.73a24.56,24.56,0,1,1-49.11,0c0-.24,0-.48,0-.73Zm8.94,0c0,.25,0,.49,0,.73a17.68,17.68,0,1,0,35.35,0c0-.24,0-.48,0-.73h-2c0,.25,0,.49,0,.73a15.63,15.63,0,1,1-31.25,0c0-.24,0-.48,0-.73Zm0,0"/><path class="cls-23" d="M107.81,150.63v8.94a16.65,16.65,0,1,1,0,33.29v8.94a25.59,25.59,0,0,0,0-51.17Zm0,0"/><path class="cls-23" d="M113.59,197.33a5.79,5.79,0,1,1-1.69-4.09,5.78,5.78,0,0,1,1.69,4.09Zm0,0"/><path class="cls-3" d="M107.81,195.28a2,2,0,0,0-1.45,3.5,2,2,0,0,0,1.45.6,2,2,0,0,0,1.45-.6,2.05,2.05,0,0,0-1.45-3.5Zm0,0"/><path class="cls-23" d="M96.47,141.51A5.48,5.48,0,0,0,91,147v8.68a3.88,3.88,0,0,0,3.89,3.89h25.88a3.88,3.88,0,0,0,3.88-3.89V147a5.48,5.48,0,0,0-5.49-5.49Zm0,0"/><path class="cls-3" d="M114.26,144.8a2,2,0,1,0,1.45.6,2,2,0,0,0-1.45-.6Zm0,0"/><path class="cls-3" d="M101.35,144.8a2,2,0,0,0-1.45.6,2.05,2.05,0,0,0,0,2.9,2.06,2.06,0,0,0,3.51-1.45,2,2,0,0,0-2.06-2Zm0,0"/><path class="cls-3" d="M95.88,152.17a2.06,2.06,0,0,0,0,4.11,2.06,2.06,0,0,0,0-4.11Zm0,0"/><path class="cls-3" d="M123.41,175.48c0,.25,0,.49,0,.73a15.59,15.59,0,0,1-12.32,15.23,6.76,6.76,0,0,0-3.3-.93,6.82,6.82,0,1,0,4.41,11.93,26.63,26.63,0,0,0,22.2-26.23c0-.24,0-.48,0-.73h-2.06c0,.25,0,.49,0,.73a24.54,24.54,0,0,1-20.68,24.25l-.32,0-.24.23a4.76,4.76,0,1,1-3.31-8.17,4.8,4.8,0,0,1,2.67.82l.36.25.42-.09a17.69,17.69,0,0,0,14.22-17.34c0-.24,0-.48,0-.73Zm0,0"/><path class="cls-3" d="M119.14,140.48H96.47A6.53,6.53,0,0,0,90,147v8.68a4.93,4.93,0,0,0,4.92,4.91h12.94a15.6,15.6,0,0,1,15.62,15.62c0,.25,0,.49,0,.73h2.06c0-.24,0-.48,0-.73a17.68,17.68,0,0,0-17.67-17.67H94.87A2.83,2.83,0,0,1,92,155.68V147a4.43,4.43,0,0,1,4.46-4.46h22.67a4.43,4.43,0,0,1,4.47,4.46v8.68a2.83,2.83,0,0,1-.13.83l-.19.64.51.43a24.51,24.51,0,0,1,8.56,18.63c0,.25,0,.49,0,.74h2.07c0-.25,0-.49,0-.74a26.49,26.49,0,0,0-8.87-19.75,5.05,5.05,0,0,0,.11-.78V147a6.52,6.52,0,0,0-6.52-6.52Zm0,0"/><text class="cls-25" transform="translate(64.47 238.81)">duże<tspan x="-27.01" y="29">protes</tspan><tspan class="cls-26" x="66.61" y="29">t</tspan><tspan x="77.97" y="29">y</tspan></text></g><path class="cls-14" d="M150.64,0l29,0h16l0,16c0,7,0,14,0,21A29.09,29.09,0,0,1,150.64,0Z"/><text class="cls-27" transform="translate(159.7 31.75)">05</text></svg>