<?xml version="1.0" encoding="utf-8"?>
<!-- Generator: Adobe Illustrator 26.0.3, SVG Export Plug-In . SVG Version: 6.00 Build 0)  -->
<svg version="1.1" id="Слой_1" xmlns="http://www.w3.org/2000/svg" xmlns:xlink="http://www.w3.org/1999/xlink" x="0px" y="0px"
	 viewBox="0 0 195.6 280.6" style="enable-background:new 0 0 195.6 280.6;" xml:space="preserve">
<style type="text/css">
	.st0{clip-path:url(#SVGID_00000127764436147239374190000015059787038958342810_);fill:#EB5A53;}
	.st1{clip-path:url(#SVGID_00000127764436147239374190000015059787038958342810_);fill:#1A1A1A;}
	.st2{clip-path:url(#SVGID_00000127764436147239374190000015059787038958342810_);fill:#FFFFFF;}
	.st3{clip-path:url(#SVGID_00000127764436147239374190000015059787038958342810_);fill:#AF1739;}
	.st4{clip-path:url(#SVGID_00000127764436147239374190000015059787038958342810_);fill:#EB5775;}
	.st5{clip-path:url(#SVGID_00000127764436147239374190000015059787038958342810_);fill:#BADBE9;}
	.st6{clip-path:url(#SVGID_00000127764436147239374190000015059787038958342810_);fill:#8BB0CC;}
	.st7{clip-path:url(#SVGID_00000127764436147239374190000015059787038958342810_);fill:#F293A2;}
	.st8{clip-path:url(#SVGID_00000127764436147239374190000015059787038958342810_);fill:#595959;}
	.st9{clip-path:url(#SVGID_00000127764436147239374190000015059787038958342810_);fill:#797979;}
	.st10{clip-path:url(#SVGID_00000127764436147239374190000015059787038958342810_);fill:#3E3E3E;}
	.st11{fill:#EB5A53;}
	.st12{font-family:'Impact';}
	.st13{font-size:46.94px;}
	.st14{clip-path:url(#SVGID_00000127764436147239374190000015059787038958342810_);enable-background:new    ;}
	.st15{fill:#FFFFFF;}
	.st16{font-size:20px;}
</style>
<g>
	<defs>
		<rect id="SVGID_1_" x="0.2" y="0.7" width="195.6" height="280.6"/>
	</defs>
	<clipPath id="SVGID_00000129185680952096150940000005594839808428166021_">
		<use xlink:href="#SVGID_1_"  style="overflow:visible;"/>
	</clipPath>
	<path style="clip-path:url(#SVGID_00000129185680952096150940000005594839808428166021_);fill:#EB5A53;" d="M107,156.2
		c0-11,4.8-13.2,8.2-13.2s8.2,2.2,8.2,13.2s-3.7,26.6-8.2,26.6S107,167.2,107,156.2z"/>
	<path style="clip-path:url(#SVGID_00000129185680952096150940000005594839808428166021_);fill:#1A1A1A;" d="M115.2,140.7
		c-2.7,0-5.3,1.2-7.1,3.3c-2.1,2.5-3.4,6.4-3.4,12.2c0.1,6.1,0.9,12.2,2.5,18.1c0.6,2.5,1.6,4.9,2.8,7.1c1.2,1.9,2.7,3.7,5.2,3.7
		s4-1.8,5.2-3.7c1.3-2.2,2.2-4.6,2.8-7.1c1.6-5.9,2.4-12,2.5-18.1c0-5.8-1.3-9.7-3.4-12.2C120.5,141.9,117.9,140.7,115.2,140.7
		L115.2,140.7z M115.2,145.3c1.4,0,2.7,0.6,3.6,1.7c1.2,1.4,2.3,4.1,2.3,9.2c-0.1,5.7-0.8,11.3-2.3,16.8c-0.5,2.1-1.3,4.1-2.4,6
		c-0.3,0.6-0.7,1.1-1.2,1.5c-0.5-0.4-0.9-0.9-1.2-1.5c-1-1.9-1.8-3.9-2.4-6c-1.5-5.5-2.2-11.2-2.3-16.8c0-5.2,1.1-7.9,2.3-9.2
		C112.4,145.8,113.8,145.2,115.2,145.3L115.2,145.3z"/>
	<path style="clip-path:url(#SVGID_00000129185680952096150940000005594839808428166021_);fill:#EB5A53;" d="M65.5,156.2
		c0-11,4.8-13.2,8.2-13.2s8.2,2.2,8.2,13.2s-3.7,26.6-8.2,26.6S65.5,167.2,65.5,156.2z"/>
	<path style="clip-path:url(#SVGID_00000129185680952096150940000005594839808428166021_);fill:#1A1A1A;" d="M73.7,140.7
		c-2.7,0-5.3,1.2-7.1,3.3c-2.1,2.5-3.4,6.4-3.4,12.2c0,6.1,0.9,12.2,2.5,18.1c0.6,2.5,1.6,4.9,2.8,7.1c1.2,1.9,2.7,3.7,5.2,3.7
		s4-1.8,5.2-3.7c1.3-2.2,2.2-4.6,2.8-7.1c1.6-5.9,2.4-12,2.5-18.1c0-5.8-1.3-9.7-3.4-12.2C79,141.9,76.4,140.7,73.7,140.7
		L73.7,140.7z M73.7,145.3c1.4,0,2.7,0.6,3.6,1.7c1.2,1.4,2.3,4.1,2.3,9.2c-0.1,5.7-0.8,11.3-2.3,16.8c-0.5,2.1-1.3,4.1-2.4,6
		c-0.3,0.6-0.7,1.1-1.2,1.5c-0.5-0.4-0.9-0.9-1.2-1.5c-1-1.9-1.8-3.9-2.4-6c-1.5-5.5-2.3-11.2-2.3-16.8c0-5.2,1.2-7.9,2.3-9.2
		C71,145.8,72.3,145.2,73.7,145.3L73.7,145.3z"/>
	<path style="clip-path:url(#SVGID_00000129185680952096150940000005594839808428166021_);fill:#EB5A53;" d="M148.2,101.6
		c-3.2-10.5,0.8-14,4-15s8.5-0.3,11.7,10.3s4.2,26.6-0.1,27.9S151.3,112.1,148.2,101.6L148.2,101.6z"/>
	<path style="clip-path:url(#SVGID_00000129185680952096150940000005594839808428166021_);fill:#1A1A1A;" d="M151.5,85.6
		c-2.6,0.8-4.8,2.7-5.9,5.2c-1.3,3-1.4,7.1,0.3,12.7c1.8,5.8,4.4,11.4,7.6,16.6c1.3,2.2,2.9,4.2,4.8,6c1.7,1.5,3.7,2.8,6,2.1
		s3.3-2.9,3.9-5.1c0.6-2.5,0.8-5.1,0.7-7.7c-0.2-6.1-1.1-12.1-2.9-18c-1.7-5.6-4-8.9-6.8-10.7C156.9,85.2,154.1,84.8,151.5,85.6
		L151.5,85.6z M152.8,90c1.3-0.4,2.8-0.2,3.9,0.6c1.5,1,3.4,3.2,4.9,8.2c1.6,5.5,2.5,11.1,2.7,16.8c0.1,2.2-0.1,4.3-0.5,6.4
		c-0.1,0.6-0.4,1.2-0.8,1.8c-0.6-0.2-1.1-0.6-1.6-1c-1.5-1.5-2.9-3.2-4-5.1c-3-4.8-5.4-10-7.1-15.4c-1.5-4.9-1.2-7.9-0.5-9.5
		C150.4,91.4,151.5,90.4,152.8,90L152.8,90z"/>
	<path style="clip-path:url(#SVGID_00000129185680952096150940000005594839808428166021_);fill:#EB5A53;" d="M27.3,96.3
		c4.2-10.2,9.5-10.3,12.6-9.1s6.7,5.2,2.5,15.3s-13.6,23.2-17.8,21.5S23.1,106.5,27.3,96.3z"/>
	<path style="clip-path:url(#SVGID_00000129185680952096150940000005594839808428166021_);fill:#1A1A1A;" d="M40.8,85.2
		c-2.5-1.1-5.4-0.9-7.8,0.3c-2.9,1.5-5.6,4.6-7.8,10c-2.3,5.7-3.8,11.6-4.6,17.6c-0.4,2.5-0.4,5.1-0.1,7.7c0.3,2.2,1.1,4.5,3.3,5.4
		s4.4-0.1,6.2-1.5c2-1.6,3.8-3.5,5.4-5.5c3.7-4.8,6.8-10.1,9.2-15.7c2.2-5.4,2.5-9.5,1.5-12.6C45.2,88.3,43.3,86.2,40.8,85.2
		L40.8,85.2z M39,89.4c1.3,0.5,2.3,1.6,2.7,2.9c0.5,1.7,0.6,4.7-1.4,9.4c-2.2,5.2-5.1,10.2-8.6,14.7c-1.3,1.7-2.8,3.3-4.5,4.7
		c-0.5,0.4-1.1,0.7-1.7,0.9c-0.3-0.6-0.5-1.2-0.6-1.8c-0.2-2.2-0.2-4.3,0.1-6.5c0.7-5.6,2.2-11.2,4.3-16.4c2-4.8,4.1-6.8,5.7-7.7
		C36.3,88.9,37.7,88.8,39,89.4L39,89.4z"/>
	<path style="clip-path:url(#SVGID_00000129185680952096150940000005594839808428166021_);fill:#1A1A1A;" d="M94.4,37.6
		c-35.5,0-64.2,28.7-64.2,64.2S59,166,94.4,166s64.2-28.7,64.2-64.2c0,0,0,0,0,0C158.6,66.3,129.9,37.6,94.4,37.6z M94.4,44.9
		c31.4,0,56.9,25.5,56.9,56.9s-25.5,56.9-56.9,56.9s-56.9-25.5-56.9-56.9c0,0,0,0,0,0c0-31.4,25.4-56.8,56.8-56.9
		C94.4,44.9,94.4,44.9,94.4,44.9z"/>
	<path style="clip-path:url(#SVGID_00000129185680952096150940000005594839808428166021_);fill:#EB5A53;" d="M154.1,100.3
		c0,2.5-0.3,31.8-17.4,40c-12.1,5.9-18.9-5.6-43.4-5.2c-23.1,0.3-29.1,10.6-40.5,5.2c-17.1-8-17.4-37.6-17.4-40
		c0-3.4,0.4-30.8,17.4-40c10-5.4,15.2,1.3,40,1.5c27.1,0.3,33-7.6,44-1.5C153.7,69.7,154.1,96.9,154.1,100.3z"/>
	<path style="clip-path:url(#SVGID_00000129185680952096150940000005594839808428166021_);fill:#FFFFFF;" d="M95.1,42.3
		c-25.9,0-49,16.4-57.6,40.9h115.2C144.1,58.7,121,42.4,95.1,42.3z"/>
	<path style="clip-path:url(#SVGID_00000129185680952096150940000005594839808428166021_);fill:#FFFFFF;" d="M91.9,43.7
		c-24.6,0-46.4,16-53.9,39.5h107.8C138.3,59.7,116.5,43.8,91.9,43.7z"/>
	<path style="clip-path:url(#SVGID_00000129185680952096150940000005594839808428166021_);fill:#FFFFFF;" d="M37,122.8
		c6.3,12.2,16,22.4,27.9,29.2c9.2,5.4,19.6,8.4,30.3,8.7c5.8,0.1,11.5-0.7,17-2.4c10.9-3.4,20.6-9.9,27.9-18.7
		c4.3-5,7.8-10.7,10.4-16.8L37,122.8z"/>
	<path style="clip-path:url(#SVGID_00000129185680952096150940000005594839808428166021_);fill:#FFFFFF;" d="M40,122.9
		c13.5,29.5,48.3,42.5,77.8,29c12.8-5.9,23.1-16.2,29-29H40z"/>
	<path style="clip-path:url(#SVGID_00000129185680952096150940000005594839808428166021_);fill:#1A1A1A;" d="M94.4,40.3
		C60.5,40.3,33,67.8,33,101.8s27.5,61.5,61.5,61.5s61.5-27.5,61.5-61.5c0,0,0,0,0,0C155.9,67.8,128.4,40.3,94.4,40.3z M94.4,42.1
		c32.9,0,59.6,26.7,59.6,59.6s-26.7,59.6-59.6,59.6s-59.6-26.7-59.6-59.6c0,0,0,0,0,0C34.8,68.8,61.5,42.1,94.4,42.1L94.4,42.1z"/>
	<path style="clip-path:url(#SVGID_00000129185680952096150940000005594839808428166021_);fill:#1A1A1A;" d="M113.9,79.8
		c5.2,0,9.4,4.2,9.4,9.4c0,0,0,0,0,0V94c0,5.2-4.2,9.4-9.4,9.4s-9.4-4.2-9.4-9.4v-4.8C104.4,84.1,108.6,79.8,113.9,79.8
		C113.8,79.8,113.9,79.8,113.9,79.8z"/>
	<path style="clip-path:url(#SVGID_00000129185680952096150940000005594839808428166021_);fill:#FFFFFF;" d="M108.4,86.6
		c0.1-1.7,1.5-2.9,3.1-2.9c1.7,0.1,2.9,1.5,2.9,3.1c0,0.7-0.3,1.4-0.8,1.9c-1.2,1.2-3.1,1.2-4.3,0C108.7,88.2,108.4,87.4,108.4,86.6
		z"/>
	<path style="clip-path:url(#SVGID_00000129185680952096150940000005594839808428166021_);fill:#1A1A1A;" d="M75,79.8
		c5.2,0,9.4,4.2,9.4,9.4c0,0,0,0,0,0.1V94c0,5.2-4.2,9.4-9.4,9.4s-9.4-4.2-9.4-9.4v-4.8C65.6,84.1,69.8,79.8,75,79.8
		C75,79.8,75,79.8,75,79.8z"/>
	<path style="clip-path:url(#SVGID_00000129185680952096150940000005594839808428166021_);fill:#FFFFFF;" d="M69.5,86.6
		c0-1.7,1.4-3.1,3-3.1c1.7,0,3.1,1.4,3.1,3c0,1.7-1.4,3.1-3,3.1c-0.8,0-1.6-0.3-2.2-0.9C69.8,88.2,69.5,87.4,69.5,86.6z"/>
	<path style="clip-path:url(#SVGID_00000129185680952096150940000005594839808428166021_);fill:#AF1739;" d="M84.4,106.2
		c-1.2,0-2.1,0.9-2.1,2.1c0,0,0,0,0,0v2.4c0.2,6.7,5.8,12,12.5,11.8c6.4-0.2,11.6-5.4,11.8-11.8v-2.4c0-1.2-0.9-2.1-2.1-2.1
		c0,0,0,0,0,0H84.4z"/>
	<path style="clip-path:url(#SVGID_00000129185680952096150940000005594839808428166021_);fill:#EB5775;" d="M94.4,114.5
		c-3.5,0-6.8,1.5-9.2,4.2c4.4,5.1,12.1,5.6,17.1,1.1c0.4-0.4,0.8-0.7,1.1-1.1C101.3,116,97.9,114.5,94.4,114.5z"/>
	<path style="clip-path:url(#SVGID_00000129185680952096150940000005594839808428166021_);fill:#FFFFFF;" d="M84.4,106.2
		c-1.2,0-2.1,0.9-2.1,2.1c0,0,0,0,0,0v2.1c7.7,3.7,16.6,3.7,24.3,0v-2.1c0-1.2-0.9-2.1-2.1-2.1c0,0,0,0,0,0L84.4,106.2z"/>
	<path style="clip-path:url(#SVGID_00000129185680952096150940000005594839808428166021_);fill:#BADBE9;" d="M103.3,106.2v3.2
		c0,1.2-0.2,2-1,2.6c1.5-0.4,2.9-1,4.2-1.6v-2.1c0-1.2-0.9-2.1-2.1-2.1c0,0,0,0,0,0L103.3,106.2z"/>
	<path style="clip-path:url(#SVGID_00000129185680952096150940000005594839808428166021_);fill:#BADBE9;" d="M84.4,106.2
		c-1.2,0-2.1,0.9-2.1,2.1c0,0,0,0,0,0v2.1c2.6,1.2,5.5,2.1,8.3,2.5c-1.4-0.4-1.8-1.8-1.8-3.4v-3.2H84.4z"/>
	<path style="clip-path:url(#SVGID_00000129185680952096150940000005594839808428166021_);fill:#8BB0CC;" d="M85.6,106.2v3.2
		c0,1.2,0.2,2,1,2.6c-1.5-0.4-2.9-1-4.2-1.6v-2.1c0-1.2,0.9-2.1,2.1-2.1c0,0,0,0,0,0L85.6,106.2z"/>
	<path style="clip-path:url(#SVGID_00000129185680952096150940000005594839808428166021_);fill:#1A1A1A;" d="M84.4,105.3
		c-1.7,0-3,1.3-3,3v2.4c0,7.2,5.8,13,13,13c7.2,0,13-5.8,13-13v-2.4c0-1.7-1.3-3-3-3H84.4z M104.5,107.1c0.6,0,1.2,0.5,1.2,1.1
		c0,0,0,0,0,0v2.4c0.2,6.2-4.7,11.4-10.9,11.5c-6.2,0.2-11.4-4.7-11.5-10.9c0-0.2,0-0.4,0-0.7v-2.4c0-0.6,0.5-1.2,1.1-1.2
		c0,0,0,0,0,0H104.5z"/>
	<path style="clip-path:url(#SVGID_00000129185680952096150940000005594839808428166021_);fill:#1A1A1A;" d="M106.6,109.9
		c-7.7,3.7-16.7,3.7-24.4,0l-0.4,0.8c7.9,3.9,17.2,3.9,25.2,0L106.6,109.9z"/>
	<path style="clip-path:url(#SVGID_00000129185680952096150940000005594839808428166021_);fill:#F293A2;" d="M95.8,117.7
		c0-0.4,0.2-0.8,0.6-1c0.4-0.3,0.9-0.4,1.4-0.4c1.1,0,2,0.6,2,1.4s-0.9,1.4-2,1.4c-0.5,0-1-0.1-1.4-0.4
		C96,118.5,95.8,118.1,95.8,117.7L95.8,117.7z"/>
	<path style="clip-path:url(#SVGID_00000129185680952096150940000005594839808428166021_);fill:#1A1A1A;" d="M82.7,17v6.1
		c5.9,0.4,11.6,0.5,17.6,0.9c7.5,0.5,12,2.7,14.7,5.4c2.5,2.6,3.8,6,3.7,9.6c0,6.3-3.4,10.6-9.2,13.4S95.1,56.4,86.5,55
		c-1.3-0.2-2.6-0.5-3.8-0.7v6.3c1,0.2,1.9,0.4,2.9,0.5c9.6,1.5,19.1,0.5,26.5-3.1s12.7-10.3,12.7-19c0.1-5.2-1.9-10.3-5.5-14
		c-3.9-4-10-6.6-18.6-7.2C94.3,17.4,88.5,17.3,82.7,17L82.7,17z"/>
	<path style="clip-path:url(#SVGID_00000129185680952096150940000005594839808428166021_);fill:#1A1A1A;" d="M60.4,13.3l2,5.5
		l0.5,1.3c-5.5-0.7-10.9-1.9-16.1-3.5l-4.7-1.7l0.7,5c3.2,24.5,23,37.9,41.9,41.1v-6.3C69.5,51.8,54.5,41.9,50,24
		c5.7,1.7,11.6,2.7,17.6,2.7H72l-1.9-5c4.8,0.8,9.6,1.3,14.5,1.6v-6.1c-6.3-0.2-12.5-1-18.6-2.5L60.4,13.3z"/>
	<path style="clip-path:url(#SVGID_00000129185680952096150940000005594839808428166021_);fill:#595959;" d="M65.4,17.7l2.2,5.9
		c-10,0.1-21.8-4.1-21.8-4.1C52,66.3,121.7,69.1,121.7,39c0-8.5-5.1-16.9-21.2-18.1C88.4,20.1,78.4,20.8,65.4,17.7z"/>
	<path style="clip-path:url(#SVGID_00000129185680952096150940000005594839808428166021_);fill:#797979;" d="M65.4,17.7l2.2,5.9
		c-10,0.1-21.8-4.1-21.8-4.1c16.3,21.2,64.1,23.9,72.6,9.2c-3.1-4-8.7-7.1-17.9-7.7C88.4,20.1,78.4,20.8,65.4,17.7z"/>
	<path style="clip-path:url(#SVGID_00000129185680952096150940000005594839808428166021_);fill:#3E3E3E;" d="M45.8,19.5
		C52,66.3,121.7,69.1,121.7,39c0-1.4-0.1-2.8-0.4-4.1C110.1,61.9,54,50,45.8,19.5z"/>
	<path style="clip-path:url(#SVGID_00000129185680952096150940000005594839808428166021_);fill:#1A1A1A;" d="M82.7,19.3v1.5
		c5.9,0.4,11.6,0.4,17.8,0.9c7.9,0.6,13,2.9,16.1,6.1c2.9,3,4.5,7.1,4.3,11.2c0,7.2-4.1,12.4-10.6,15.5s-15.2,4.2-24.2,2.8
		c-1.2-0.2-2.3-0.4-3.5-0.7v1.6c1.1,0.2,2.2,0.4,3.3,0.6c9.2,1.4,18.3,0.4,25.1-2.9s11.4-9.1,11.4-16.9c0.1-4.6-1.6-9-4.8-12.3
		c-3.4-3.5-9-5.9-17.1-6.6C94.3,19.7,88.6,19.7,82.7,19.3z"/>
	<path style="clip-path:url(#SVGID_00000129185680952096150940000005594839808428166021_);fill:#1A1A1A;" d="M64.1,16.6l0.5,1.4
		l1.8,4.8c-9.5-0.2-20.3-3.9-20.3-3.9l-1.2-0.4l0.1,1.2c3.1,23.2,21.6,35.8,39.6,39.1v-1.6C67.5,54,50.2,42.2,46.8,20.6
		c1.8,0.6,11.4,3.8,20.8,3.8h1.1l-2.1-5.7c6,1.3,12,2.1,18.1,2.3v-1.5c-6.4-0.2-12.8-1.1-19.1-2.5L64.1,16.6z"/>
	<text transform="matrix(1 0 0 1 12.96 227.4)" class="st11 st12 st13">podobne</text>
	<text transform="matrix(1 0 0 1 54.16 267.83)" class="st11 st12 st13">flagi</text>
	<path style="clip-path:url(#SVGID_00000129185680952096150940000005594839808428166021_);fill:#EB5A53;" d="M150.8,0h29h16v16
		c0,7,0,14,0,21c-10.2,12.4-28.6,14.2-41,4S140.6,12.4,150.8,0z"/>
	<g style="clip-path:url(#SVGID_00000129185680952096150940000005594839808428166021_);enable-background:new    ;">
		<text transform="matrix(1 0 0 1 159.9 31.75)" class="st15 st12 st16">08</text>
	</g>
</g>
</svg>
