<?xml version="1.0" encoding="utf-8"?>
<!-- Generator: Adobe Illustrator 26.0.3, SVG Export Plug-In . SVG Version: 6.00 Build 0)  -->
<svg version="1.1" id="Слой_1" xmlns="http://www.w3.org/2000/svg" xmlns:xlink="http://www.w3.org/1999/xlink" x="0px" y="0px"
	 viewBox="0 0 195.6 280.6" style="enable-background:new 0 0 195.6 280.6;" xml:space="preserve">
<style type="text/css">
	.st0{clip-path:url(#SVGID_00000062901193231927375810000012585331490848402587_);fill:#EB5A53;}
	.st1{clip-path:url(#SVGID_00000062901193231927375810000012585331490848402587_);fill:#1A1A1A;}
	.st2{clip-path:url(#SVGID_00000062901193231927375810000012585331490848402587_);fill:#FFFFFF;}
	.st3{clip-path:url(#SVGID_00000062901193231927375810000012585331490848402587_);fill:#AF1739;}
	.st4{clip-path:url(#SVGID_00000062901193231927375810000012585331490848402587_);fill:#EB5775;}
	.st5{clip-path:url(#SVGID_00000062901193231927375810000012585331490848402587_);fill:#BADBE9;}
	.st6{clip-path:url(#SVGID_00000062901193231927375810000012585331490848402587_);fill:#8BB0CC;}
	.st7{clip-path:url(#SVGID_00000062901193231927375810000012585331490848402587_);fill:#F293A2;}
	.st8{clip-path:url(#SVGID_00000062901193231927375810000012585331490848402587_);fill:#595959;}
	.st9{clip-path:url(#SVGID_00000062901193231927375810000012585331490848402587_);fill:#797979;}
	.st10{clip-path:url(#SVGID_00000062901193231927375810000012585331490848402587_);fill:#3E3E3E;}
	.st11{fill:#EB5A53;}
	.st12{font-family:'Impact';}
	.st13{font-size:46.94px;}
	.st14{clip-path:url(#SVGID_00000062901193231927375810000012585331490848402587_);enable-background:new    ;}
	.st15{fill:#FFFFFF;}
	.st16{font-size:20px;}
</style>
<g>
	<defs>
		<rect id="SVGID_1_" x="0" y="0" width="195.6" height="280.6"/>
	</defs>
	<clipPath id="SVGID_00000142156156634103131200000002602891029364176269_">
		<use xlink:href="#SVGID_1_"  style="overflow:visible;"/>
	</clipPath>
	<path style="clip-path:url(#SVGID_00000142156156634103131200000002602891029364176269_);fill:#EB5A53;" d="M110.4,157.1
		c0-11.2,4.9-13.4,8.3-13.4s8.3,2.2,8.3,13.4s-3.7,27-8.3,27S110.4,168.2,110.4,157.1z"/>
	<path style="clip-path:url(#SVGID_00000142156156634103131200000002602891029364176269_);fill:#1A1A1A;" d="M118.7,141.4
		c-2.8,0-5.4,1.2-7.2,3.3c-2.1,2.5-3.4,6.5-3.4,12.4c0.1,6.2,0.9,12.3,2.5,18.3c0.6,2.5,1.6,5,2.9,7.2c1.2,2,2.7,3.8,5.2,3.8
		s4.1-1.8,5.2-3.8c1.3-2.3,2.2-4.7,2.9-7.2c1.6-6,2.5-12.1,2.5-18.3c0-5.9-1.3-9.9-3.4-12.4C124.1,142.6,121.5,141.4,118.7,141.4z
		 M118.7,146c1.4-0.1,2.8,0.6,3.7,1.7c1.2,1.4,2.3,4.1,2.3,9.4c-0.1,5.8-0.8,11.5-2.3,17.1c-0.5,2.1-1.4,4.2-2.4,6.1
		c-0.3,0.6-0.7,1.1-1.2,1.5c-0.5-0.4-0.9-0.9-1.2-1.5c-1-1.9-1.9-4-2.4-6.1c-1.5-5.6-2.3-11.3-2.3-17.1c0-5.2,1.2-8,2.3-9.4
		C115.9,146.6,117.3,146,118.7,146L118.7,146z"/>
	<path style="clip-path:url(#SVGID_00000142156156634103131200000002602891029364176269_);fill:#EB5A53;" d="M68.4,157.1
		c0-11.2,4.9-13.4,8.3-13.4s8.3,2.2,8.3,13.4s-3.7,27-8.3,27S68.4,168.2,68.4,157.1L68.4,157.1z"/>
	<path style="clip-path:url(#SVGID_00000142156156634103131200000002602891029364176269_);fill:#1A1A1A;" d="M76.7,141.4
		c-2.8,0-5.4,1.2-7.2,3.3c-2.1,2.5-3.5,6.5-3.5,12.4c0,6.2,0.9,12.3,2.5,18.3c0.6,2.5,1.6,5,2.9,7.2c1.2,2,2.8,3.8,5.2,3.8
		s4-1.8,5.2-3.8c1.3-2.3,2.2-4.7,2.9-7.2c1.6-6,2.5-12.1,2.6-18.3c0-5.9-1.3-9.9-3.4-12.4C82.1,142.6,79.4,141.4,76.7,141.4z
		 M76.7,146c1.4-0.1,2.8,0.6,3.7,1.7c1.2,1.4,2.3,4.1,2.3,9.4c-0.1,5.8-0.8,11.5-2.3,17.1c-0.5,2.1-1.3,4.2-2.4,6.1
		c-0.3,0.6-0.7,1.1-1.2,1.5c-0.5-0.4-0.9-0.9-1.2-1.5c-1-1.9-1.8-4-2.4-6.1c-1.5-5.6-2.3-11.3-2.3-17.1c0-5.2,1.2-8,2.3-9.4
		C73.9,146.6,75.2,146,76.7,146L76.7,146z"/>
	<path style="clip-path:url(#SVGID_00000142156156634103131200000002602891029364176269_);fill:#EB5A53;" d="M152.2,101.7
		c-3.2-10.7,0.8-14.2,4.1-15.2s8.6-0.3,11.8,10.4s4.3,26.9-0.1,28.3S155.4,112.4,152.2,101.7z"/>
	<path style="clip-path:url(#SVGID_00000142156156634103131200000002602891029364176269_);fill:#1A1A1A;" d="M155.5,85.5
		c-2.7,0.8-4.8,2.7-5.9,5.3c-1.3,3-1.4,7.2,0.3,12.8c1.8,5.9,4.4,11.6,7.7,16.8c1.3,2.2,3,4.3,4.9,6.1c1.7,1.5,3.7,2.8,6.1,2.1
		s3.4-2.9,3.9-5.1c0.6-2.5,0.8-5.2,0.7-7.8c-0.2-6.2-1.1-12.3-2.9-18.3c-1.7-5.7-4.1-9.1-6.9-10.8C161.1,85.1,158.2,84.7,155.5,85.5
		L155.5,85.5z M156.9,89.9c1.3-0.5,2.8-0.3,4,0.6c1.5,1,3.4,3.3,4.9,8.3c1.6,5.5,2.5,11.2,2.7,17c0.1,2.2-0.1,4.4-0.5,6.5
		c-0.1,0.6-0.4,1.2-0.8,1.8c-0.6-0.2-1.2-0.6-1.6-1.1c-1.6-1.5-2.9-3.3-4.1-5.2c-3-4.9-5.5-10.2-7.2-15.7c-1.5-5-1.2-8-0.5-9.7
		C154.4,91.3,155.5,90.3,156.9,89.9L156.9,89.9z"/>
	<path style="clip-path:url(#SVGID_00000142156156634103131200000002602891029364176269_);fill:#EB5A53;" d="M29.6,96.4
		c4.3-10.3,9.7-10.5,12.8-9.2s6.8,5.2,2.5,15.6s-13.8,23.5-18,21.8S25.3,106.7,29.6,96.4L29.6,96.4z"/>
	<path style="clip-path:url(#SVGID_00000142156156634103131200000002602891029364176269_);fill:#1A1A1A;" d="M43.2,85.1
		c-2.6-1.1-5.5-0.9-7.9,0.3c-2.9,1.5-5.6,4.7-7.9,10.1c-2.3,5.7-3.9,11.8-4.7,17.9c-0.4,2.6-0.4,5.2-0.1,7.8
		c0.3,2.3,1.1,4.5,3.4,5.5s4.5-0.1,6.3-1.5c2-1.6,3.9-3.5,5.4-5.6c3.8-4.9,6.9-10.3,9.3-16c2.3-5.5,2.6-9.6,1.6-12.8
		C47.8,88.2,45.8,86.1,43.2,85.1L43.2,85.1z M41.5,89.4c1.3,0.5,2.4,1.6,2.7,3c0.6,1.7,0.6,4.7-1.4,9.6c-2.3,5.3-5.2,10.3-8.7,14.9
		c-1.3,1.8-2.9,3.3-4.6,4.7c-0.5,0.4-1.1,0.7-1.7,0.9c-0.3-0.6-0.5-1.2-0.6-1.8c-0.2-2.2-0.2-4.4,0.1-6.6c0.7-5.7,2.2-11.3,4.4-16.7
		c2-4.8,4.1-6.9,5.7-7.8C38.7,88.8,40.2,88.8,41.5,89.4L41.5,89.4z"/>
	<path style="clip-path:url(#SVGID_00000142156156634103131200000002602891029364176269_);fill:#1A1A1A;" d="M97.7,36.8
		c-36,0-65.1,29.1-65.1,65.1S61.7,167,97.7,167s65.1-29.1,65.1-65.1c0,0,0,0,0,0C162.7,66,133.6,36.8,97.7,36.8z M97.7,44.2
		c31.9,0,57.7,25.8,57.7,57.7s-25.8,57.7-57.7,57.7S40,133.8,40,101.9c0,0,0,0,0,0c0-31.8,25.7-57.6,57.5-57.7
		C97.6,44.2,97.6,44.2,97.7,44.2z"/>
	<path style="clip-path:url(#SVGID_00000142156156634103131200000002602891029364176269_);fill:#FFFFFF;" d="M36.3,101.9
		c0-33.9,27.5-61.4,61.4-61.4s61.4,27.5,61.4,61.4c0,33.9-27.5,61.4-61.4,61.4c-16.3,0-31.9-6.5-43.4-18
		C42.8,133.8,36.3,118.2,36.3,101.9z"/>
	<path style="clip-path:url(#SVGID_00000142156156634103131200000002602891029364176269_);fill:#FFFFFF;" d="M44.1,98.7
		c0-31.4,25.4-56.8,56.8-56.8c31.4,0,56.8,25.4,56.8,56.8c0,31.4-25.4,56.8-56.8,56.8c-15.1,0-29.5-6-40.1-16.6
		C50.1,128.2,44.1,113.8,44.1,98.7z"/>
	<path style="clip-path:url(#SVGID_00000142156156634103131200000002602891029364176269_);fill:#EB5A53;" d="M36.3,101.9
		c0,33.9,27.5,61.4,61.4,61.4s61.4-27.5,61.4-61.4c0,0,0,0,0,0H36.3z"/>
	<path style="clip-path:url(#SVGID_00000142156156634103131200000002602891029364176269_);fill:#EB5A53;" d="M44.3,101.9
		c1.7,31.3,28.5,55.3,59.7,53.5c28.9-1.6,52-24.7,53.5-53.5H44.3z"/>
	<path style="clip-path:url(#SVGID_00000142156156634103131200000002602891029364176269_);fill:#1A1A1A;" d="M97.7,39.6
		c-34.4,0-62.3,27.9-62.3,62.3s27.9,62.3,62.3,62.3s62.3-27.9,62.3-62.3c0,0,0,0,0,0C160,67.5,132.1,39.6,97.7,39.6z M97.7,41.4
		c33.4,0,60.5,27.1,60.5,60.5s-27.1,60.5-60.5,60.5s-60.5-27.1-60.5-60.5c0,0,0,0,0,0C37.2,68.5,64.3,41.4,97.7,41.4
		C97.7,41.4,97.7,41.4,97.7,41.4z"/>
	<path style="clip-path:url(#SVGID_00000142156156634103131200000002602891029364176269_);fill:#1A1A1A;" d="M117.4,79.7
		c5.3,0,9.6,4.2,9.6,9.5c0,0,0,0,0,0.1V94c-0.2,5.3-4.6,9.4-9.9,9.3c-5-0.2-9.1-4.2-9.3-9.3v-4.8C107.9,83.9,112.1,79.7,117.4,79.7
		C117.4,79.6,117.4,79.6,117.4,79.7L117.4,79.7z"/>
	<path style="clip-path:url(#SVGID_00000142156156634103131200000002602891029364176269_);fill:#FFFFFF;" d="M111.8,86.5
		c0-1.7,1.4-3.1,3.1-3.1c1.7,0,3.1,1.4,3.1,3.1c0,1.7-1.4,3.1-3.1,3.1c-0.8,0-1.6-0.3-2.2-0.9C112.2,88.1,111.8,87.3,111.8,86.5z"/>
	<path style="clip-path:url(#SVGID_00000142156156634103131200000002602891029364176269_);fill:#1A1A1A;" d="M78,79.7
		c5.3,0,9.6,4.3,9.6,9.5c0,0,0,0,0,0V94c0,5.3-4.3,9.6-9.6,9.6c-5.3,0-9.6-4.3-9.6-9.6v-4.8C68.4,83.9,72.7,79.7,78,79.7
		C77.9,79.6,78,79.6,78,79.7z"/>
	<path style="clip-path:url(#SVGID_00000142156156634103131200000002602891029364176269_);fill:#FFFFFF;" d="M72.4,86.5
		c0-1.7,1.4-3.1,3.1-3.1s3.1,1.4,3.1,3.1c0,1.7-1.4,3.1-3.1,3.1c0,0,0,0,0,0C73.8,89.6,72.4,88.2,72.4,86.5z"/>
	<path style="clip-path:url(#SVGID_00000142156156634103131200000002602891029364176269_);fill:#AF1739;" d="M87.5,106.4
		c-1.2,0-2.1,0.9-2.1,2.1c0,0,0,0,0,0v2.4c0,6.8,5.5,12.3,12.3,12.3c6.8,0,12.3-5.5,12.3-12.3c0,0,0,0,0,0v-2.4
		c0-1.2-0.9-2.1-2.1-2.1c0,0,0,0,0,0H87.5z"/>
	<path style="clip-path:url(#SVGID_00000142156156634103131200000002602891029364176269_);fill:#EB5775;" d="M97.7,114.8
		c-3.6,0-6.9,1.5-9.3,4.2c4.4,5.1,12.2,5.7,17.3,1.3c0.4-0.4,0.9-0.8,1.3-1.3C104.7,116.3,101.3,114.8,97.7,114.8L97.7,114.8z"/>
	<path style="clip-path:url(#SVGID_00000142156156634103131200000002602891029364176269_);fill:#FFFFFF;" d="M87.5,106.4
		c-1.2,0-2.1,0.9-2.1,2.1c0,0,0,0,0,0v2.2c7.8,3.7,16.8,3.7,24.6,0v-2.1c0-1.2-0.9-2.1-2.1-2.1c0,0,0,0,0,0L87.5,106.4z"/>
	<path style="clip-path:url(#SVGID_00000142156156634103131200000002602891029364176269_);fill:#BADBE9;" d="M106.7,106.4v3.3
		c0,1.2-0.2,2-1,2.6c1.5-0.4,2.9-1,4.3-1.6v-2.1c0-1.2-0.9-2.1-2.1-2.1c0,0,0,0,0,0H106.7z"/>
	<path style="clip-path:url(#SVGID_00000142156156634103131200000002602891029364176269_);fill:#BADBE9;" d="M87.5,106.4
		c-1.2,0-2.1,0.9-2.1,2.1c0,0,0,0,0,0v2.2c2.7,1.3,5.5,2.1,8.4,2.5c-1.4-0.4-1.8-1.8-1.8-3.5v-3.3H87.5z"/>
	<path style="clip-path:url(#SVGID_00000142156156634103131200000002602891029364176269_);fill:#8BB0CC;" d="M88.7,106.4v3.3
		c0,1.2,0.2,2,1,2.6c-1.5-0.4-2.9-1-4.3-1.6v-2.1c0-1.2,0.9-2.1,2.1-2.1c0,0,0,0,0,0H88.7z"/>
	<path style="clip-path:url(#SVGID_00000142156156634103131200000002602891029364176269_);fill:#1A1A1A;" d="M87.5,105.5
		c-1.7,0-3,1.4-3,3.1v2.4c0,7.3,5.9,13.2,13.2,13.2c7.3,0,13.2-5.9,13.2-13.2v-2.4c0-1.7-1.3-3-3-3.1H87.5z M107.9,107.3
		c0.6,0,1.2,0.5,1.2,1.1c0,0,0,0,0,0.1v2.4c-0.2,6.3-5.4,11.2-11.7,11c-6-0.2-10.9-5-11-11v-2.4c0-0.6,0.5-1.2,1.1-1.2
		c0,0,0,0,0.1,0H107.9z"/>
	<path style="clip-path:url(#SVGID_00000142156156634103131200000002602891029364176269_);fill:#1A1A1A;" d="M110,110.1
		c-7.8,3.8-16.9,3.8-24.7,0l-0.4,0.8c8.1,3.9,17.5,3.9,25.5,0C110.4,111,110,110.1,110,110.1z"/>
	<path style="clip-path:url(#SVGID_00000142156156634103131200000002602891029364176269_);fill:#F293A2;" d="M99,118.1
		c0-0.4,0.2-0.8,0.6-1c0.4-0.3,0.9-0.4,1.4-0.4c1.1,0,2,0.7,2,1.4s-0.9,1.4-2,1.4c-0.5,0-1-0.1-1.4-0.4
		C99.2,118.9,99,118.5,99,118.1L99,118.1z"/>
	<path style="clip-path:url(#SVGID_00000142156156634103131200000002602891029364176269_);fill:#1A1A1A;" d="M155.5,130.8l-0.9-0.1
		l1.6-12.4l0.9,0.1L155.5,130.8z"/>
	<path style="clip-path:url(#SVGID_00000142156156634103131200000002602891029364176269_);fill:#1A1A1A;" d="M98.6,16
		c-5.9,0.4-11.8,0.4-18.3,0.9c-8.7,0.6-14.9,3.3-18.9,7.3c-3.7,3.8-5.7,8.9-5.5,14.2c0,8.8,5.4,15.6,12.9,19.3s17.1,4.7,26.9,3.2
		c1-0.2,2-0.3,2.9-0.5v-6.5c-1.3,0.3-2.6,0.5-3.9,0.8c-8.7,1.3-17.2,0.3-23.1-2.6s-9.4-7.2-9.4-13.6c-0.1-3.6,1.2-7.1,3.7-9.7
		c2.7-2.7,7.2-4.9,14.9-5.5c6.1-0.5,11.9-0.5,17.8-0.9V16z"/>
	<path style="clip-path:url(#SVGID_00000142156156634103131200000002602891029364176269_);fill:#1A1A1A;" d="M115.4,13.6
		c-6.2,1.4-12.5,2.3-18.8,2.5v6.2c4.9-0.2,9.8-0.8,14.7-1.6l-1.8,5h4.5c6,0,12.1-1,17.9-2.7c-4.6,18.2-19.7,28.2-35.2,31.2v6.4
		c19.2-3.3,39.3-16.9,42.5-41.7l0.7-5.1l-4.8,1.7c-5.3,1.7-10.8,2.9-16.4,3.6l0.5-1.4l2.1-5.5L115.4,13.6z"/>
	<path style="clip-path:url(#SVGID_00000142156156634103131200000002602891029364176269_);fill:#595959;" d="M116.1,16.6
		C102.9,19.8,92.7,19,80.5,20C64.2,21.1,59,29.7,59,38.3c0,30.5,70.7,27.7,77-19.8c0,0-11.9,4.2-22.1,4.1L116.1,16.6L116.1,16.6z"/>
	<path style="clip-path:url(#SVGID_00000142156156634103131200000002602891029364176269_);fill:#797979;" d="M116.1,16.6
		C102.9,19.8,92.7,19,80.5,20c-9.3,0.7-15,3.8-18.1,7.9c8.6,14.9,57.1,12.2,73.7-9.3c0,0-11.9,4.2-22.1,4.1L116.1,16.6L116.1,16.6z"
		/>
	<path style="clip-path:url(#SVGID_00000142156156634103131200000002602891029364176269_);fill:#3E3E3E;" d="M136,18.5
		c-8.3,30.9-65.2,43-76.5,15.6c-0.3,1.4-0.5,2.8-0.5,4.2C59,68.8,129.7,66,136,18.5z"/>
	<path style="clip-path:url(#SVGID_00000142156156634103131200000002602891029364176269_);fill:#1A1A1A;" d="M98.6,18.3
		c-5.9,0.4-11.7,0.4-18.1,0.8c-8.3,0.6-13.9,3.1-17.4,6.6c-3.2,3.3-5,7.8-4.9,12.5c0,7.9,4.7,13.8,11.6,17.2s16.1,4.4,25.5,3
		c1.1-0.2,2.2-0.4,3.3-0.6v-1.7c-1.2,0.3-2.4,0.5-3.5,0.7c-9.1,1.4-18,0.4-24.5-2.8s-10.7-8.4-10.7-15.7c-0.1-4.2,1.5-8.4,4.4-11.4
		c3.2-3.2,8.3-5.6,16.3-6.2c6.3-0.5,12.1-0.5,18-0.9L98.6,18.3L98.6,18.3z"/>
	<path style="clip-path:url(#SVGID_00000142156156634103131200000002602891029364176269_);fill:#1A1A1A;" d="M115.9,15.9
		c-6.4,1.5-12.9,2.4-19.4,2.6V20c6.2-0.2,12.3-1,18.3-2.3l-2.1,5.7h1.1c9.5,0,19.3-3.2,21.1-3.8c-3.5,21.9-21,33.8-38.4,37v1.6
		c18.3-3.3,37.1-16.1,40.2-39.6l0.2-1.3l-1.2,0.4c0,0-11,3.7-20.6,4l1.8-4.8l0.5-1.4L115.9,15.9z"/>
	<text transform="matrix(1 0 0 1 12.96 227.92)" class="st11 st12 st13">podobne</text>
	<text transform="matrix(1 0 0 1 54.16 268.35)" class="st11 st12 st13">flagi</text>
	<path style="clip-path:url(#SVGID_00000142156156634103131200000002602891029364176269_);fill:#EB5A53;" d="M45.2,0h-29h-16v16
		c0,7,0,14,0,21c10.3,12.4,28.6,14,41,3.8c6.7-5.5,10.5-13.8,10.5-22.5C51.7,11.6,49.4,5.2,45.2,0z"/>
	<g style="clip-path:url(#SVGID_00000142156156634103131200000002602891029364176269_);enable-background:new    ;">
		<text transform="matrix(1 0 0 1 15.78 31.75)" class="st15 st12 st16">08</text>
	</g>
</g>
</svg>
