<svg id="Слой_1" data-name="Слой 1" xmlns="http://www.w3.org/2000/svg" viewBox="0 0 195.59 280.63"><defs><style>.cls-1{fill:#e83e3e;}.cls-2{font-size:63.44px;}.cls-13,.cls-2,.cls-3,.cls-4{fill:#fff;}.cls-13,.cls-2,.cls-3{font-family:Impact;}.cls-3{font-size:21.68px;}.cls-5{fill:#1a1a1a;}.cls-6{fill:#badbe9;}.cls-7{fill:#777e69;}.cls-8{fill:#9fa98d;}.cls-9{fill:#423d3d;}.cls-10{fill:#5a5252;}.cls-11{fill:#7f6d6b;}.cls-12{fill:#e83b54;}.cls-13{font-size:20px;}</style></defs><rect class="cls-1" x="-12.11" y="-10.59" width="498.5" height="306.69"/><text class="cls-2" transform="translate(30.92 264.13)">USSR</text><text class="cls-3" transform="translate(32.59 208.16)">pożegnali się z </text><path class="cls-4" d="M96.15,103.78h-.29l-.08,0-.08,0-.09,0-.08,0-.07,0-.08,0-.08,0-.07,0-.07,0a.18.18,0,0,0-.07.05l-.07,0-.06.06-.06.06-.06.06,0,.07-.05.07,0,.07,0,.07,0,.08,0,.08a.59.59,0,0,0,0,.08l0,.11v0h0a.31.31,0,0,0,0,.08s0,.06,0,.09,0,.05,0,.08,0,.06,0,.09v.23a.25.25,0,0,0,0,.08s0,.06,0,.09,0,0,0,.08a.19.19,0,0,0,0,.08s0,.06,0,.08l0,.09,0,.07a.59.59,0,0,1,0,.08s0,0,0,.08l0,.07,0,.07,0,.07.06.06.06.07.06.06.06.05.07.06.07.05.07,0,.07,0,.08,0,.08,0,.08,0,.11,0h0l.07,0,.09,0h.48l.09,0h.08l.08,0,.08,0,.08,0,.08,0a.2.2,0,0,0,.08,0l.08,0,.07,0,.07-.05.07,0,.06,0,.07-.06.06-.06,0-.07.06-.06,0-.07a.43.43,0,0,1,0-.07l.05-.08a.25.25,0,0,1,0-.07l0-.08,0-.08a.76.76,0,0,0,0-.11v0h0s0-.05,0-.08a.31.31,0,0,1,0-.08.28.28,0,0,1,0-.09s0-.05,0-.08v-.23s0-.06,0-.08a.28.28,0,0,1,0-.09s0-.06,0-.08,0-.06,0-.09l0-.08a.31.31,0,0,0,0-.08l0-.08,0-.07a.3.3,0,0,1,0-.08l0-.07a652985089322.25,652985089322.25,0,0,0-.1-.14l0-.07-.06-.06-.06-.06-.07-.06-.06-.05-.07,0-.07,0L97,104l-.07,0-.08,0-.08,0-.11,0h-.11l-.09,0h-.28Zm0,0"/><path class="cls-4" d="M96.15,103.77H96l-.08,0h-.17l-.08,0-.09,0-.08,0-.07,0-.08,0-.08,0-.07,0-.07,0-.07,0-.07.06-.06.06-.06.06-.06.06,0,.07-.05.07,0,.07,0,.07,0,.08,0,.07,0,.08,0,.12v0h0a.24.24,0,0,0,0,.08s0,0,0,.08,0,.06,0,.09,0,0,0,.08v.23a.28.28,0,0,0,0,.09s0,.06,0,.08,0,.06,0,.09a.24.24,0,0,0,0,.08s0,.06,0,.08l0,.08,0,.08a.3.3,0,0,1,0,.08l0,.07,0,.08,0,.07a.18.18,0,0,1,0,.07l.06.06.06.06.06.07.06.05.07,0a.18.18,0,0,0,.07,0l.07,0,.07,0,.08,0a.2.2,0,0,0,.08,0l.08,0,.11,0h0l.07,0h.09l.08,0h.4l.09,0h.08l.08,0,.08,0,.08,0,.08,0a.2.2,0,0,0,.08,0l.08,0,.07,0,.07-.05.07,0,.06,0,.07-.06.06-.06,0-.07.06-.06,0-.07a.43.43,0,0,1,0-.07l.05-.08a.25.25,0,0,1,0-.07l0-.08,0-.08a.76.76,0,0,0,0-.11v0h0s0-.05,0-.07a.29.29,0,0,1,0-.09.28.28,0,0,1,0-.09s0-.05,0-.08v-.23s0-.06,0-.08a.28.28,0,0,1,0-.09s0-.06,0-.08,0-.06,0-.09l0-.08a.31.31,0,0,0,0-.08l0-.08,0-.07a.3.3,0,0,1,0-.08l0-.07a652985089322.25,652985089322.25,0,0,0-.1-.14l0-.07-.06-.06-.06-.06-.07-.06-.06-.05-.07,0-.07,0L97,104l-.07,0-.08,0-.08,0-.11,0h-.11l-.09,0h-.28Zm0,0"/><path class="cls-4" d="M96.15,103.77H96l-.08,0h-.17l-.08,0-.09,0-.08,0-.07,0-.08,0-.08,0-.07,0-.07,0-.07,0-.07.06-.06.06-.06.06-.06.06,0,.07-.05.07,0,.07,0,.07,0,.08,0,.07,0,.08,0,.12v0h0a.24.24,0,0,0,0,.08s0,0,0,.08,0,.06,0,.09,0,0,0,.08v.23a.28.28,0,0,0,0,.09s0,.06,0,.08,0,.06,0,.09a.24.24,0,0,0,0,.08s0,.06,0,.08l0,.08,0,.08a.3.3,0,0,1,0,.08l0,.07,0,.08,0,.07a.18.18,0,0,1,0,.07l.06.06.06.06.06.07.06.05.07,0a.18.18,0,0,0,.07,0l.07,0,.07,0,.08,0a.2.2,0,0,0,.08,0l.08,0,.11,0h0l.07,0h.09l.08,0h.4l.09,0h.08l.08,0,.08,0,.08,0,.08,0a.2.2,0,0,0,.08,0l.08,0,.07,0,.07-.05.07,0,.06,0,.07-.06.06-.06,0-.07.06-.06,0-.07a.43.43,0,0,1,0-.07l.05-.08a.25.25,0,0,1,0-.07l0-.08,0-.08a.76.76,0,0,0,0-.11v0h0s0-.05,0-.07a.29.29,0,0,1,0-.09.28.28,0,0,1,0-.09s0-.05,0-.08v-.23s0-.06,0-.08a.28.28,0,0,1,0-.09s0-.06,0-.08,0-.06,0-.09l0-.08a.31.31,0,0,0,0-.08l0-.08,0-.07a.3.3,0,0,1,0-.08l0-.07a652985089322.25,652985089322.25,0,0,0-.1-.14l0-.07-.06-.06-.06-.06-.07-.06-.06-.05-.07,0-.07,0L97,104l-.07,0-.08,0-.08,0-.11,0h-.11l-.09,0h-.28Zm0,0"/><path class="cls-4" d="M96.15,103.77H96l-.08,0h-.17l-.08,0-.09,0-.08,0-.07,0-.08,0-.08,0-.07,0-.07,0-.07,0-.07.06-.06.06-.06.06-.06.06,0,.07-.05.07,0,.07,0,.07,0,.08,0,.07,0,.08,0,.12v0h0a.24.24,0,0,0,0,.08s0,0,0,.08,0,.06,0,.09,0,0,0,.08v.23a.28.28,0,0,0,0,.09s0,.06,0,.08,0,.06,0,.09a.24.24,0,0,0,0,.08s0,.06,0,.08l0,.08,0,.08a.3.3,0,0,1,0,.08l0,.07,0,.08,0,.07a.18.18,0,0,1,0,.07l.06.06.06.06.06.07.06.05.07,0a.18.18,0,0,0,.07,0l.07,0,.07,0,.08,0a.2.2,0,0,0,.08,0l.08,0,.11,0h0l.07,0h.09l.08,0h.4l.09,0h.08l.08,0,.08,0,.08,0,.08,0a.2.2,0,0,0,.08,0l.08,0,.07,0,.07-.05.07,0,.06,0,.07-.06.06-.06,0-.07.06-.06,0-.07a.43.43,0,0,1,0-.07l.05-.08a.25.25,0,0,1,0-.07l0-.08,0-.08a.76.76,0,0,0,0-.11v0h0s0-.05,0-.07a.29.29,0,0,1,0-.09.28.28,0,0,1,0-.09s0-.05,0-.08v-.23s0-.06,0-.08a.28.28,0,0,1,0-.09s0-.06,0-.08,0-.06,0-.09l0-.08a.31.31,0,0,0,0-.08l0-.08,0-.07a.3.3,0,0,1,0-.08l0-.07a652985089322.25,652985089322.25,0,0,0-.1-.14l0-.07-.06-.06-.06-.06-.07-.06-.06-.05-.07,0-.07,0L97,104l-.07,0-.08,0-.08,0-.11,0h-.11l-.09,0h-.28Zm0,0"/><path class="cls-4" d="M96.15,103.77H96l-.08,0h-.17l-.08,0-.09,0-.08,0-.07,0-.08,0-.08,0-.07,0-.07,0-.07,0-.07.06-.06.06-.06.06-.06.06,0,.07-.05.07,0,.07,0,.07,0,.08,0,.07,0,.08,0,.12v0h0a.24.24,0,0,0,0,.08s0,0,0,.08,0,.06,0,.09,0,0,0,.08v.23a.28.28,0,0,0,0,.09s0,.06,0,.08,0,.06,0,.09a.24.24,0,0,0,0,.08s0,.06,0,.08l0,.08,0,.08a.3.3,0,0,1,0,.08l0,.07,0,.08,0,.07a.18.18,0,0,1,0,.07l.06.06.06.06.06.07.06.05.07,0a.18.18,0,0,0,.07,0l.07,0,.07,0,.08,0a.2.2,0,0,0,.08,0l.08,0,.11,0h0l.07,0h.09l.08,0h.4l.09,0h.08l.08,0,.08,0,.08,0,.08,0a.2.2,0,0,0,.08,0l.08,0,.07,0,.07-.05.07,0,.06,0,.07-.06.06-.06,0-.07.06-.06,0-.07a.43.43,0,0,1,0-.07l.05-.08a.25.25,0,0,1,0-.07l0-.08,0-.08a.76.76,0,0,0,0-.11v0h0s0-.05,0-.07a.29.29,0,0,1,0-.09.28.28,0,0,1,0-.09s0-.05,0-.08v-.23s0-.06,0-.08a.28.28,0,0,1,0-.09s0-.06,0-.08,0-.06,0-.09l0-.08a.31.31,0,0,0,0-.08l0-.08,0-.07a.3.3,0,0,1,0-.08l0-.07a652985089322.25,652985089322.25,0,0,0-.1-.14l0-.07-.06-.06-.06-.06-.07-.06-.06-.05-.07,0-.07,0L97,104l-.07,0-.08,0-.08,0-.11,0h-.11l-.09,0h-.28Zm0,0"/><path class="cls-4" d="M96.15,103.77H96l-.08,0h-.17l-.08,0-.09,0-.08,0-.07,0-.08,0-.08,0-.07,0-.07,0-.07,0-.07.06-.06.06-.06.06-.06.06,0,.07-.05.07,0,.07,0,.07,0,.08,0,.07,0,.08,0,.12v0h0a.24.24,0,0,0,0,.08s0,0,0,.08,0,.06,0,.09,0,0,0,.08v.23a.28.28,0,0,0,0,.09s0,.06,0,.08,0,.06,0,.09a.24.24,0,0,0,0,.08s0,.06,0,.08l0,.08,0,.08a.3.3,0,0,1,0,.08l0,.07,0,.08,0,.07a.18.18,0,0,1,0,.07l.06.06.06.06.06.07.06.05.07,0a.18.18,0,0,0,.07,0l.07,0,.07,0,.08,0a.2.2,0,0,0,.08,0l.08,0,.11,0h0l.07,0h.09l.08,0h.4l.09,0h.08l.08,0,.08,0,.08,0,.08,0a.2.2,0,0,0,.08,0l.08,0,.07,0,.07-.05.07,0,.06,0,.07-.06.06-.06,0-.07.06-.06,0-.07a.43.43,0,0,1,0-.07l.05-.08a.25.25,0,0,1,0-.07l0-.08,0-.08a.76.76,0,0,0,0-.11v0h0s0-.05,0-.07a.29.29,0,0,1,0-.09.28.28,0,0,1,0-.09s0-.05,0-.08v-.23s0-.06,0-.08a.28.28,0,0,1,0-.09s0-.06,0-.08,0-.06,0-.09l0-.08a.31.31,0,0,0,0-.08l0-.08,0-.07a.3.3,0,0,1,0-.08l0-.07a652985089322.25,652985089322.25,0,0,0-.1-.14l0-.07-.06-.06-.06-.06-.07-.06-.06-.05-.07,0-.07,0L97,104l-.07,0-.08,0-.08,0-.11,0h-.11l-.09,0h-.28Zm0,0"/><path class="cls-4" d="M96.15,103.77H96l-.08,0h-.17l-.08,0-.09,0-.08,0-.07,0-.08,0-.08,0-.07,0-.07,0-.07,0-.07.06-.06.06-.06.06-.06.06,0,.07-.05.07,0,.07,0,.07,0,.08,0,.07,0,.08,0,.12v0h0a.24.24,0,0,0,0,.08s0,0,0,.08,0,.06,0,.09,0,0,0,.08v.23a.28.28,0,0,0,0,.09s0,.06,0,.08,0,.06,0,.09a.24.24,0,0,0,0,.08s0,.06,0,.08l0,.08,0,.08a.3.3,0,0,1,0,.08l0,.07,0,.08,0,.07a.18.18,0,0,1,0,.07l.06.06.06.06.06.07.06.05.07,0a.18.18,0,0,0,.07,0l.07,0,.07,0,.08,0a.2.2,0,0,0,.08,0l.08,0,.11,0h0l.07,0h.09l.08,0h.4l.09,0h.08l.08,0,.08,0,.08,0,.08,0a.2.2,0,0,0,.08,0l.08,0,.07,0,.07-.05.07,0,.06,0,.07-.06.06-.06,0-.07.06-.06,0-.07a.43.43,0,0,1,0-.07l.05-.08a.25.25,0,0,1,0-.07l0-.08,0-.08a.76.76,0,0,0,0-.11v0h0s0-.05,0-.07a.29.29,0,0,1,0-.09.28.28,0,0,1,0-.09s0-.05,0-.08v-.23s0-.06,0-.08a.28.28,0,0,1,0-.09s0-.06,0-.08,0-.06,0-.09l0-.08a.31.31,0,0,0,0-.08l0-.08,0-.07a.3.3,0,0,1,0-.08l0-.07a652985089322.25,652985089322.25,0,0,0-.1-.14l0-.07-.06-.06-.06-.06-.07-.06-.06-.05-.07,0-.07,0L97,104l-.07,0-.08,0-.08,0-.11,0h-.11l-.09,0h-.28Zm0,0"/><path class="cls-4" d="M96.15,103.77H96l-.08,0h-.17l-.08,0-.09,0-.08,0-.07,0-.08,0-.08,0-.07,0-.07,0-.07,0-.07.06-.06.06-.06.06-.06.06,0,.07-.05.07,0,.07,0,.07,0,.08,0,.07,0,.08,0,.12v0h0a.24.24,0,0,0,0,.08s0,0,0,.08,0,.06,0,.09,0,0,0,.08v.23a.28.28,0,0,0,0,.09s0,.06,0,.08,0,.06,0,.09a.24.24,0,0,0,0,.08s0,.06,0,.08l0,.08,0,.08a.3.3,0,0,1,0,.08l0,.07,0,.08,0,.07a.18.18,0,0,1,0,.07l.06.06.06.06.06.07.06.05.07,0a.18.18,0,0,0,.07,0l.07,0,.07,0,.08,0a.2.2,0,0,0,.08,0l.08,0,.11,0h0l.07,0h.09l.08,0h.4l.09,0h.08l.08,0,.08,0,.08,0,.08,0a.2.2,0,0,0,.08,0l.08,0,.07,0,.07-.05.07,0,.06,0,.07-.06.06-.06,0-.07.06-.06,0-.07a.43.43,0,0,1,0-.07l.05-.08a.25.25,0,0,1,0-.07l0-.08,0-.08a.76.76,0,0,0,0-.11v0h0s0-.05,0-.07a.29.29,0,0,1,0-.09.28.28,0,0,1,0-.09s0-.05,0-.08v-.23s0-.06,0-.08a.28.28,0,0,1,0-.09s0-.06,0-.08,0-.06,0-.09l0-.08a.31.31,0,0,0,0-.08l0-.08,0-.07a.3.3,0,0,1,0-.08l0-.07a652985089322.25,652985089322.25,0,0,0-.1-.14l0-.07-.06-.06-.06-.06-.07-.06-.06-.05-.07,0-.07,0L97,104l-.07,0-.08,0-.08,0-.11,0h-.11l-.09,0h-.28Zm0,0"/><path class="cls-4" d="M96.15,103.77H96l-.08,0h-.17l-.08,0-.09,0-.08,0-.07,0-.08,0-.08,0-.07,0-.07,0-.07,0-.07.06-.06.06-.06.06-.06.06,0,.07-.05.07,0,.07,0,.07,0,.08,0,.07,0,.08,0,.12v0h0a.24.24,0,0,0,0,.08s0,0,0,.08,0,.06,0,.09,0,0,0,.08v.23a.28.28,0,0,0,0,.09s0,.06,0,.08,0,.06,0,.09a.24.24,0,0,0,0,.08s0,.06,0,.08l0,.08,0,.08a.3.3,0,0,1,0,.08l0,.07,0,.08,0,.07a.18.18,0,0,1,0,.07l.06.06.06.06.06.07.06.05.07,0a.18.18,0,0,0,.07,0l.07,0,.07,0,.08,0a.2.2,0,0,0,.08,0l.08,0,.11,0h0l.07,0h.09l.08,0h.4l.09,0h.08l.08,0,.08,0,.08,0,.08,0a.2.2,0,0,0,.08,0l.08,0,.07,0,.07-.05.07,0,.06,0,.07-.06.06-.06,0-.07.06-.06,0-.07a.43.43,0,0,1,0-.07l.05-.08a.25.25,0,0,1,0-.07l0-.08,0-.08a.76.76,0,0,0,0-.11v0h0s0-.05,0-.07a.29.29,0,0,1,0-.09.28.28,0,0,1,0-.09s0-.05,0-.08v-.23s0-.06,0-.08a.28.28,0,0,1,0-.09s0-.06,0-.08,0-.06,0-.09l0-.08a.31.31,0,0,0,0-.08l0-.08,0-.07a.3.3,0,0,1,0-.08l0-.07a652985089322.25,652985089322.25,0,0,0-.1-.14l0-.07-.06-.06-.06-.06-.07-.06-.06-.05-.07,0-.07,0L97,104l-.07,0-.08,0-.08,0-.11,0h-.11l-.09,0h-.28Zm0,0"/><path class="cls-4" d="M96.15,103.77H96l-.08,0h-.17l-.08,0-.09,0-.08,0-.07,0-.08,0-.08,0-.07,0-.07,0-.07,0-.07.06-.06.06-.06.06-.06.06,0,.07-.05.07,0,.07,0,.07,0,.08,0,.07,0,.08,0,.12v0h0a.24.24,0,0,0,0,.08s0,0,0,.08,0,.06,0,.09,0,0,0,.08v.23a.28.28,0,0,0,0,.09s0,.06,0,.08,0,.06,0,.09a.24.24,0,0,0,0,.08s0,.06,0,.08l0,.08,0,.08a.3.3,0,0,1,0,.08l0,.07,0,.08,0,.07a.18.18,0,0,1,0,.07l.06.06.06.06.06.07.06.05.07,0a.18.18,0,0,0,.07,0l.07,0,.07,0,.08,0a.2.2,0,0,0,.08,0l.08,0,.11,0h0l.07,0h.09l.08,0h.4l.09,0h.08l.08,0,.08,0,.08,0,.08,0a.2.2,0,0,0,.08,0l.08,0,.07,0,.07-.05.07,0,.06,0,.07-.06.06-.06,0-.07.06-.06,0-.07a.43.43,0,0,1,0-.07l.05-.08a.25.25,0,0,1,0-.07l0-.08,0-.08a.76.76,0,0,0,0-.11v0h0s0-.05,0-.07a.29.29,0,0,1,0-.09.28.28,0,0,1,0-.09s0-.05,0-.08v-.23s0-.06,0-.08a.28.28,0,0,1,0-.09s0-.06,0-.08,0-.06,0-.09l0-.08a.31.31,0,0,0,0-.08l0-.08,0-.07a.3.3,0,0,1,0-.08l0-.07a652985089322.25,652985089322.25,0,0,0-.1-.14l0-.07-.06-.06-.06-.06-.07-.06-.06-.05-.07,0-.07,0L97,104l-.07,0-.08,0-.08,0-.11,0h-.11l-.09,0h-.28Zm0,0"/><path class="cls-1" d="M113.56,152.86c3.88-9.35,8.77-9.52,11.62-8.34s6.19,4.76,2.32,14.11S115,180,111.15,178.4s-1.46-16.18,2.41-25.54Zm0,0"/><path class="cls-5" d="M126,142.58a8.53,8.53,0,0,0-7.19.29c-2.66,1.37-5.12,4.22-7.17,9.19a65.18,65.18,0,0,0-4.25,16.23,27.25,27.25,0,0,0-.1,7.07c.31,2,1,4.12,3.07,5s4-.13,5.7-1.36a27.47,27.47,0,0,0,4.93-5.07,65.23,65.23,0,0,0,8.47-14.48c2.06-5,2.34-8.72,1.42-11.57a8.55,8.55,0,0,0-4.88-5.29Zm-1.61,3.89a4.08,4.08,0,0,1,2.49,2.69c.5,1.57.51,4.28-1.31,8.67a61.58,61.58,0,0,1-7.89,13.49,24.17,24.17,0,0,1-4.13,4.29,4.49,4.49,0,0,1-1.56.81,4.48,4.48,0,0,1-.53-1.67,24.29,24.29,0,0,1,.11-6,62,62,0,0,1,4-15.12c1.82-4.39,3.74-6.3,5.21-7.06a4,4,0,0,1,3.65-.14Zm0,0"/><path class="cls-1" d="M74.35,154.61c1.33-10,6-11.46,9.07-11.06s7.21,3,5.89,13-6.55,23.87-10.68,23.33-5.6-15.26-4.28-25.3Zm0,0"/><path class="cls-5" d="M83.69,141.46a8.57,8.57,0,0,0-6.87,2.15c-2.22,2-3.85,5.4-4.55,10.73a65.45,65.45,0,0,0,.09,16.78A27.7,27.7,0,0,0,74.1,178c.82,1.9,2,3.73,4.26,4s3.86-1.16,5.15-2.78A27.55,27.55,0,0,0,87,173a65.27,65.27,0,0,0,4.44-16.18c.7-5.33,0-9-1.62-11.55a8.6,8.6,0,0,0-6.09-3.85Zm-.55,4.18a4.05,4.05,0,0,1,3.1,2c.89,1.39,1.6,4,1,8.72a62.48,62.48,0,0,1-4.13,15.07,24.51,24.51,0,0,1-2.88,5.22,4.55,4.55,0,0,1-1.3,1.18A4.53,4.53,0,0,1,78,176.3a24,24,0,0,1-1.44-5.78,62.41,62.41,0,0,1-.09-15.63c.62-4.72,2-7.06,3.21-8.17a4.08,4.08,0,0,1,3.49-1.08Zm0,0"/><path class="cls-1" d="M148.89,109.84c-8.46-5.56-7.71-10.4-6-13s5.83-5.19,14.29.37S175.81,113.5,173.53,117s-16.17-1.6-24.64-7.15Zm0,0"/><path class="cls-5" d="M141.12,95.71a8.53,8.53,0,0,0-1.06,7.12c.84,2.87,3.19,5.82,7.68,8.76a65.05,65.05,0,0,0,15.15,7.22,27.08,27.08,0,0,0,6.93,1.41c2.06.09,4.23-.19,5.47-2.08s.63-4-.27-5.84a27.53,27.53,0,0,0-4.05-5.8,65.25,65.25,0,0,0-12.65-11c-4.49-3-8.12-3.93-11.09-3.57a8.53,8.53,0,0,0-6.11,3.81ZM144.63,98a4.06,4.06,0,0,1,3.11-1.94c1.63-.2,4.3.3,8.27,2.91a61.42,61.42,0,0,1,11.78,10.28,24.31,24.31,0,0,1,3.44,4.86,4.2,4.2,0,0,1,.5,1.68A4.33,4.33,0,0,1,170,116a24.47,24.47,0,0,1-5.83-1.23,61.7,61.7,0,0,1-14.11-6.71c-4-2.61-5.49-4.86-6-6.44a4.09,4.09,0,0,1,.54-3.62Zm0,0"/><path class="cls-1" d="M38.8,100.52c3.87-9.36,8.76-9.52,11.61-8.34s6.2,4.75,2.32,14.11-12.5,21.36-16.35,19.77-1.46-16.19,2.42-25.54Zm0,0"/><path class="cls-5" d="M51.22,90.23a8.57,8.57,0,0,0-7.19.3c-2.67,1.37-5.12,4.22-7.18,9.18A65.69,65.69,0,0,0,32.6,116a27.66,27.66,0,0,0-.09,7.07c.3,2,1,4.12,3.07,5s4-.12,5.69-1.36a27.08,27.08,0,0,0,4.93-5.06,65.34,65.34,0,0,0,8.48-14.49c2-5,2.33-8.71,1.42-11.56a8.57,8.57,0,0,0-4.88-5.3Zm-1.61,3.89a4.07,4.07,0,0,1,2.48,2.69c.5,1.57.52,4.28-1.3,8.67a62.33,62.33,0,0,1-7.9,13.5,24.89,24.89,0,0,1-4.13,4.29,4.28,4.28,0,0,1-1.56.8,4.4,4.4,0,0,1-.53-1.67,24.72,24.72,0,0,1,.11-6,62.38,62.38,0,0,1,4-15.13c1.82-4.39,3.75-6.3,5.21-7a4.07,4.07,0,0,1,3.66-.15Zm0,0"/><path class="cls-5" d="M100.6,46.42a59.07,59.07,0,1,0,59.07,59.07A59.12,59.12,0,0,0,100.6,46.42Zm0,6.74a52.33,52.33,0,1,1-52.33,52.33A52.28,52.28,0,0,1,100.6,53.16Zm0,0"/><path class="cls-1" d="M44.9,105.49a55.72,55.72,0,1,1,16.32,39.38A55.71,55.71,0,0,1,44.9,105.49Zm0,0"/><path class="cls-4" d="M100.6,54.51a51,51,0,0,0-20.08,4.13A54.11,54.11,0,0,1,147.64,125a50.93,50.93,0,0,0-47-70.52Zm0,0"/><path class="cls-5" d="M100.6,49a56.54,56.54,0,1,0,56.55,56.54A56.55,56.55,0,0,0,100.6,49Zm0,1.68a54.86,54.86,0,1,1-54.85,54.86A54.85,54.85,0,0,1,100.6,50.63Zm0,0"/><path class="cls-4" d="M85.57,138.87a4.05,4.05,0,0,1-4.07-4.06v-4.59a23.56,23.56,0,0,1,47.12,0v4.59a4.05,4.05,0,0,1-4.07,4.06Zm39,0"/><path class="cls-6" d="M85.57,138.87a4.06,4.06,0,0,1-4.07-4.06v-4.59a23.56,23.56,0,0,1,18.37-23s-4.39,9,.6,16.85c-4,7.09,0,14.77,0,14.77H85.57Zm14.89,0"/><path class="cls-5" d="M85.56,138.87a4.05,4.05,0,0,1-4.06-4.06v-4.59a23.44,23.44,0,0,1,7-16.79s-4.92,9.66.36,14.57c-4.59,5.59,0,10.86,0,10.86H85.56Zm3.34,0"/><path class="cls-5" d="M124.55,138.87a4.05,4.05,0,0,0,4.07-4.06v-4.59a23.44,23.44,0,0,0-7-16.79s4.92,9.66-.36,14.57c4.58,5.59,0,10.86,0,10.86h3.33Zm-3.33,0"/><path class="cls-5" d="M105.06,105.82a24.41,24.41,0,0,0-24.4,24.4v4.59a4.92,4.92,0,0,0,4.91,4.91h39a4.92,4.92,0,0,0,4.91-4.91v-4.59a24.41,24.41,0,0,0-24.4-24.4Zm0,1.68a22.7,22.7,0,0,1,22.72,22.72v4.59a3.2,3.2,0,0,1-3.23,3.22h-39a3.2,3.2,0,0,1-3.23-3.22v-4.59a22.7,22.7,0,0,1,22.72-22.72Zm0,0"/><path class="cls-5" d="M123,84.52a8.65,8.65,0,0,1,8.67,8.68v4.35a8.68,8.68,0,0,1-17.35,0V93.2A8.66,8.66,0,0,1,123,84.52Zm0,0"/><path class="cls-4" d="M117.91,90.74a2.8,2.8,0,1,1,.82,2,2.76,2.76,0,0,1-.82-2Zm0,0"/><path class="cls-5" d="M87.16,84.52a8.66,8.66,0,0,0-8.67,8.68v7.17H95.84V93.2a8.66,8.66,0,0,0-8.68-8.68Zm0,0"/><path class="cls-4" d="M82.11,90.74a2.8,2.8,0,1,1,2.8,2.8,2.81,2.81,0,0,1-2.8-2.8Zm0,0"/><path class="cls-5" d="M24.91,161.53a9.29,9.29,0,0,0,5.81,16.23,9.22,9.22,0,0,0,1.54,6,9.27,9.27,0,0,0,16.58-7.84,11.1,11.1,0,0,0-14-15.91,9.31,9.31,0,0,0-8.93.78h0a10,10,0,0,0-1,.75Zm3.34,3.77a4.7,4.7,0,0,1,.44-.34h0a4.22,4.22,0,0,1,4.47-.17l1.17,1.33L36.14,165a6.08,6.08,0,0,1,7.93,9l-1,1.25.73,1.46a4.25,4.25,0,1,1-7.84.55l.51-1.54-1.2-1.1a6.21,6.21,0,0,1-.83-.94l-.94-1.32-1.59.31a4.25,4.25,0,0,1-3.63-7.35Zm0,0"/><path class="cls-5" d="M21.25,183.57a11.1,11.1,0,0,0,20-2.27l-4.78-1.6a6.08,6.08,0,1,1-7-7.9l-1-4.93a11.1,11.1,0,0,0-7.27,16.7Zm0,0"/><path class="cls-5" d="M30.45,169.86A6.1,6.1,0,1,0,38.52,179l16-14.14a6.1,6.1,0,0,0-8.07-9.15ZM49.81,159.5a1.07,1.07,0,1,1,1.41,1.6l-16,14.13a1,1,0,0,1-1.5-.09,1,1,0,0,1,.09-1.51l16-14.13Zm0,0"/><path class="cls-7" d="M43.73,184.19a6.76,6.76,0,1,1,1.85-9.39,6.75,6.75,0,0,1-1.85,9.39Zm0,0"/><path class="cls-7" d="M44.15,177.27a8.59,8.59,0,1,1,2.34-11.93,8.58,8.58,0,0,1-2.34,11.93Zm0,0"/><path class="cls-7" d="M34.83,174.1a6.76,6.76,0,1,1-2.47-12.26,6.77,6.77,0,0,1,2.47,12.26Zm0,0"/><path class="cls-8" d="M32.78,169.86a3,3,0,0,1-2.22.44,2.92,2.92,0,0,1-1.88-1.25,3,3,0,1,1,4.1.81Zm0,0"/><path class="cls-8" d="M41.4,167.28a3,3,0,0,1-2.22.45,3,3,0,0,1-1.9-1.26,3,3,0,0,1-.45-2.23,3,3,0,0,1,1.26-1.89,3,3,0,1,1,3.31,4.93Zm0,0"/><path class="cls-5" d="M26.07,162.84A7.53,7.53,0,0,0,32,176a7.43,7.43,0,0,0,.64.73,7.53,7.53,0,1,0,14.24-1A9.36,9.36,0,0,0,34.81,162a7.53,7.53,0,0,0-8,.28,6.65,6.65,0,0,0-.79.61Zm1,1.15a5.82,5.82,0,0,1,.63-.48,6,6,0,0,1,6.66,0l.41.28.42-.27a7.82,7.82,0,0,1,10.21,11.58l-.31.38.22.45a6,6,0,1,1-11.06.79l.15-.48-.36-.33A7.66,7.66,0,0,1,33,174.68l-.29-.41-.49.1A6,6,0,0,1,27.09,164Zm0,0"/><path class="cls-8" d="M48.15,157.61A3.59,3.59,0,0,1,52.89,163l-16,14.13a3.58,3.58,0,1,1-4.74-5.37l16-14.14Zm0,0"/><path class="cls-7" d="M32.36,177.32a3.59,3.59,0,0,0,4.5-.2l16-14.13a3.57,3.57,0,0,0,.75-4.44Zm21.28-18.77"/><path class="cls-5" d="M31.7,171.27a4.21,4.21,0,0,0,5.57,6.32l16-14.13a4.21,4.21,0,1,0-5.57-6.32Zm16.86-13.19a3,3,0,1,1,3.91,4.43l-16,14.14a3,3,0,0,1-3.91-4.43l16-14.14Zm0,0"/><path class="cls-7" d="M35.51,184.89a8.59,8.59,0,1,1,3.64-5.48,8.6,8.6,0,0,1-3.64,5.48Zm0,0"/><path class="cls-8" d="M34.49,180.7a6.49,6.49,0,1,1,1.76-9,6.5,6.5,0,0,1-1.76,9Zm0,0"/><path class="cls-5" d="M22.86,182.59a9.22,9.22,0,0,0,16.6-1.89l-1.2-.4A8,8,0,1,1,29.14,170l-.25-1.23a9.21,9.21,0,0,0-6,13.87Zm0,0"/><path class="cls-5" d="M32.25,169.94a8,8,0,0,1,6.41,7.28l1.26-.09a9.24,9.24,0,0,0-7.43-8.42l-.24,1.23Zm0,0"/><path class="cls-5" d="M102.35,21.32c-2.2,0-13.94-.39-23.74,3.94-3.82,1.69-7.71,5.16-8,10.65a125.5,125.5,0,0,1-2.51,20.94c-.64,3.27,0,6.24,1.76,8.17A10.53,10.53,0,0,0,76.4,68a247.46,247.46,0,0,0,25.95,1.48A247.43,247.43,0,0,0,128.29,68,10.53,10.53,0,0,0,134.8,65c1.79-1.93,2.4-4.9,1.77-8.17a124.46,124.46,0,0,1-2.51-20.94c-.27-5.49-4.16-9-8-10.65-9.8-4.33-21.54-3.94-23.73-3.94Zm0,5.58c2.59,0,13.33-.13,21.48,3.47,2.8,1.24,4.49,2.6,4.65,5.81a131.78,131.78,0,0,0,2.61,21.74c.42,2.17.06,2.83-.38,3.3a5.62,5.62,0,0,1-3.19,1.21c-6.25.87-19.6,1.43-25.17,1.43s-18.93-.56-25.18-1.43A5.62,5.62,0,0,1,74,61.22c-.44-.47-.8-1.13-.38-3.3a131.78,131.78,0,0,0,2.61-21.74c.16-3.21,1.85-4.57,4.66-5.81,8.14-3.6,18.88-3.47,21.48-3.47Zm0,0"/><path class="cls-5" d="M115.21,13.68a8.74,8.74,0,0,0-8,4.26l-2.77,4.85,4.85,2.77,2.77-4.85c.93-1.63,3.32-2.15,5.89-.61,5,3,8.42,5.27,13.87,9.14A9.46,9.46,0,0,1,136,35.31c.5,4,1.05,9.52,1.19,14.54s-.3,9.78-1,11.47a3.72,3.72,0,0,1-1.91,2.21,5.4,5.4,0,0,1-2.72.41,13.36,13.36,0,0,1-4-1l-2.45,5a17.71,17.71,0,0,0,6.08,1.61,10.94,10.94,0,0,0,5.55-1,9.7,9.7,0,0,0,4.62-5.11c1.5-3.6,1.57-8.45,1.42-13.76s-.7-10.9-1.23-15.07a14.64,14.64,0,0,0-6.44-9.93c-5.5-3.91-9.08-6.3-14.23-9.38a11.38,11.38,0,0,0-5.65-1.63Zm0,0"/><path class="cls-5" d="M89.48,13.68a11.41,11.41,0,0,0-5.65,1.63c-5.14,3.08-8.73,5.47-14.23,9.38a14.64,14.64,0,0,0-6.44,9.93c-.53,4.17-1.08,9.77-1.23,15.07s-.08,10.16,1.42,13.76A9.72,9.72,0,0,0,68,68.56a10.89,10.89,0,0,0,5.54,1A17.71,17.71,0,0,0,79.6,67.9l-2.45-5a13.36,13.36,0,0,1-4,1,5.43,5.43,0,0,1-2.72-.41,3.72,3.72,0,0,1-1.91-2.21c-.7-1.69-1.14-6.44-1-11.47s.68-10.49,1.18-14.54a9.46,9.46,0,0,1,4.14-6.07c5.45-3.87,8.83-6.13,13.87-9.14,2.57-1.54,5-1,5.9.61l2.77,4.85,4.84-2.77-2.77-4.85a8.74,8.74,0,0,0-8-4.26Zm0,0"/><path class="cls-5" d="M102.35,16.82c-1.66,0-11.33-.42-19.4,4.06a12.49,12.49,0,0,0-6.47,10.59l5.58.22c.13-3.46,1.52-4.77,3.6-5.93,6.25-3.47,14.52-3.36,16.69-3.36s10.43-.11,16.68,3.36c2.08,1.16,3.47,2.47,3.6,5.93l5.58-.22a12.47,12.47,0,0,0-6.47-10.59c-8.07-4.48-17.74-4.06-19.39-4.06Zm0,0"/><path class="cls-9" d="M125.42,31.58a9.23,9.23,0,0,0-5-8.26c-7.16-4-16.12-3.71-18-3.71s-10.88-.26-18,3.71a9.23,9.23,0,0,0-5,8.26Zm-46.15,0"/><path class="cls-5" d="M102.35,18.88c-1.85,0-11-.3-18.39,3.81a10.07,10.07,0,0,0-5.42,8.86l1.45.06A8.4,8.4,0,0,1,84.66,24c6.92-3.85,15.71-3.63,17.69-3.63S113.11,20.11,120,24a8.4,8.4,0,0,1,4.67,7.65l1.45-.06a10.06,10.06,0,0,0-5.41-8.86c-7.4-4.11-16.55-3.81-18.39-3.81Zm0,0"/><path class="cls-10" d="M106.9,24.17l2.77-4.84c1.81-3.16,6.14-3.79,9.76-1.63,5.09,3.05,8.57,5.38,14,9.26a12.1,12.1,0,0,1,5.3,8c1,8.23,2.19,22.13,0,27.43-3.13,7.55-12.45,3-12.45,3Zm19.42,41.22"/><path class="cls-11" d="M114.88,16.43a6.87,6.87,0,0,0-2.49.51,8.74,8.74,0,0,1,3.47,1.3c5.2,3.28,8.77,5.79,14.37,10a13.1,13.1,0,0,1,5.41,8.62c1,8.61,2.18,23,.19,29a6.79,6.79,0,0,0,2.94-3.48c2.19-5.3,1-19.2,0-27.43a12.1,12.1,0,0,0-5.3-8c-5.47-3.88-9-6.21-14-9.26a8.59,8.59,0,0,0-4.55-1.27Zm0,0"/><path class="cls-5" d="M115.22,15.51a6.89,6.89,0,0,0-6.35,3.36l-2.77,4.84,1.61.93,2.77-4.85c1.52-2.65,5.2-3.25,8.47-1.29,5.07,3,8.52,5.34,14,9.22a11.19,11.19,0,0,1,4.9,7.36c.52,4.09,1.06,9.6,1.21,14.72s-.18,9.9-1.14,12.23a5.73,5.73,0,0,1-2.81,3.18,7.29,7.29,0,0,1-3.67.59,14.75,14.75,0,0,1-4.71-1.24l-.81,1.67a16.23,16.23,0,0,0,5.39,1.42,9,9,0,0,0,4.61-.77,7.74,7.74,0,0,0,3.72-4.14c1.22-3,1.42-7.78,1.27-13s-.69-10.77-1.21-14.9c-.46-3.68-2.91-6.68-5.68-8.65-5.48-3.89-9-6.24-14.11-9.3a9.61,9.61,0,0,0-4.68-1.39Zm0,0"/><path class="cls-9" d="M97.79,24.17,95,19.33c-1.81-3.16-6.14-3.79-9.76-1.63-5.09,3.05-8.57,5.38-14,9.26-2.62,1.86-4.88,4.67-5.29,8-1,8.23-2.2,22.13,0,27.43,3.13,7.55,12.45,3,12.45,3ZM78.38,65.39"/><path class="cls-5" d="M89.47,15.51a9.61,9.61,0,0,0-4.68,1.39c-5.11,3.06-8.63,5.41-14.11,9.3-2.77,2-5.22,5-5.68,8.65-.51,4.13-1.07,9.69-1.21,14.9s.05,10,1.28,13a7.67,7.67,0,0,0,3.72,4.14,9,9,0,0,0,4.6.77,16.23,16.23,0,0,0,5.39-1.42L78,64.56a14.75,14.75,0,0,1-4.71,1.24,7.25,7.25,0,0,1-3.66-.59A5.7,5.7,0,0,1,66.78,62c-1-2.33-1.28-7.11-1.13-12.23s.69-10.63,1.2-14.72a11.17,11.17,0,0,1,4.91-7.36c5.46-3.88,8.91-6.18,14-9.22,3.27-2,7-1.36,8.47,1.29L97,24.64l1.62-.93-2.78-4.84a6.89,6.89,0,0,0-6.35-3.36Zm0,0"/><path class="cls-10" d="M125,27.82c-9-4-20.21-3.71-22.6-3.71s-13.64-.26-22.61,3.71c-3.32,1.46-6.1,3.88-6.32,8.23a127.76,127.76,0,0,1-2.56,21.34c-1.06,5.43,2,7.25,5.93,7.8a251.11,251.11,0,0,0,25.56,1.46,250.92,250.92,0,0,0,25.55-1.46c4-.55,7-2.37,5.93-7.8a127.76,127.76,0,0,1-2.56-21.34c-.21-4.35-3-6.77-6.32-8.23Zm0,0"/><path class="cls-11" d="M111.72,24.53a12,12,0,0,1,3.77,8.79,211.21,211.21,0,0,0,2.56,27.57,13.19,13.19,0,0,1-.08,5.2c3.27-.21,6.4-.46,8.86-.76a12.39,12.39,0,0,0,0-4.91,201.67,201.67,0,0,1-2.56-26.7,11.85,11.85,0,0,0-2.41-7.07,51,51,0,0,0-10.19-2.12Zm0,0"/><path class="cls-9" d="M93,24.53a46,46,0,0,0-13.23,3.29c-3.32,1.46-6.1,3.88-6.32,8.23a127.76,127.76,0,0,1-2.56,21.34c-1.06,5.43,2,7.25,5.93,7.8,2.58.36,6.17.66,9.93.9a13.19,13.19,0,0,1-.08-5.2A211.21,211.21,0,0,0,89.2,33.32,12,12,0,0,1,93,24.53Zm0,0"/><path class="cls-11" d="M103.64,24.11h-1.29c-2.4,0-13.64-.26-22.61,3.71-3.28,1.44-6,3.82-6.31,8.08a12.34,12.34,0,0,1,4.91-3.41c9.53-4,21.46-3.7,24-3.7s14.47-.26,24,3.7a12.34,12.34,0,0,1,4.91,3.41c-.27-4.26-3-6.64-6.31-8.08-7.85-3.47-17.43-3.71-21.31-3.71Zm0,0"/><path class="cls-5" d="M102.35,23.18c-2.33,0-13.74-.3-23,3.78-3.48,1.54-6.63,4.31-6.87,9A127,127,0,0,1,70,57.21c-.56,2.9,0,5.1,1.31,6.54a8.74,8.74,0,0,0,5.4,2.36,249,249,0,0,0,25.69,1.47A248.92,248.92,0,0,0,128,66.11a8.74,8.74,0,0,0,5.4-2.36c1.35-1.44,1.88-3.64,1.31-6.54A127,127,0,0,1,132.2,36c-.23-4.73-3.39-7.5-6.87-9-9.25-4.08-20.65-3.78-23-3.78Zm0,1.86c2.46,0,13.53-.22,22.23,3.63,3.14,1.39,5.57,3.45,5.76,7.42a128.53,128.53,0,0,0,2.58,21.48c.49,2.53,0,4-.85,4.92a7.13,7.13,0,0,1-4.29,1.78,253.53,253.53,0,0,1-25.43,1.45,253.2,253.2,0,0,1-25.43-1.45,7.16,7.16,0,0,1-4.3-1.78c-.89-1-1.34-2.39-.84-4.92a129.53,129.53,0,0,0,2.57-21.48c.2-4,2.62-6,5.76-7.42C88.81,24.82,99.88,25,102.35,25Zm0,0"/><path class="cls-12" d="M97.63,50c-1-.76.49-3.74.09-5s-3.4-2.74-3-4,3.72-.69,4.76-1.45,1.56-4.08,2.85-4.08,1.8,3.32,2.85,4.08,4.36.21,4.76,1.45-2.6,2.73-3,4,1.14,4.21.09,5-3.4-1.63-4.7-1.63-3.66,2.39-4.7,1.63Zm0,0"/><path class="cls-5" d="M102.33,35a1.57,1.57,0,0,0-1.21.72,6.61,6.61,0,0,0-.73,1.31c-.21.47-.41,1-.62,1.35a2.38,2.38,0,0,1-.56.79,2.46,2.46,0,0,1-.93.29c-.44.07-1,.12-1.47.17a6.81,6.81,0,0,0-1.48.29,1.55,1.55,0,0,0-1,.93,1.58,1.58,0,0,0,.3,1.38,6.6,6.6,0,0,0,1,1.1c.38.34.78.68,1.09,1a2.44,2.44,0,0,1,.58.78,2.43,2.43,0,0,1,0,1c-.07.43-.19.94-.29,1.45a6.48,6.48,0,0,0-.19,1.49,1.38,1.38,0,0,0,2,1.42,7.17,7.17,0,0,0,1.36-.63c.45-.26.89-.53,1.29-.73a1.52,1.52,0,0,1,1.84,0c.4.2.84.47,1.3.73a6.64,6.64,0,0,0,1.36.63,1.38,1.38,0,0,0,2-1.42,7,7,0,0,0-.18-1.49c-.11-.51-.23-1-.3-1.46a2.59,2.59,0,0,1,0-1,2.6,2.6,0,0,1,.58-.78c.31-.32.71-.66,1.09-1a6.6,6.6,0,0,0,1-1.1,1.56,1.56,0,0,0,.3-1.38,1.58,1.58,0,0,0-1-.93,6.81,6.81,0,0,0-1.48-.29c-.51-.05-1-.1-1.47-.17a2.53,2.53,0,0,1-.93-.29,2.54,2.54,0,0,1-.56-.79c-.2-.4-.4-.88-.62-1.35a6.61,6.61,0,0,0-.73-1.31,1.56,1.56,0,0,0-1.21-.72Zm0,.93c.13,0,.27.08.47.35a5.61,5.61,0,0,1,.62,1.14c.21.45.41.94.64,1.38a2.93,2.93,0,0,0,.85,1.12,2.89,2.89,0,0,0,1.33.46c.49.08,1,.12,1.51.18a5.87,5.87,0,0,1,1.27.24c.32.11.44.22.48.34s0,.28-.18.56a8.15,8.15,0,0,1-.89.94c-.37.33-.78.68-1.13,1a2.43,2.43,0,0,0-.83,2.56c.08.49.2,1,.31,1.5a6.74,6.74,0,0,1,.16,1.28c0,.33-.08.48-.18.56s-.27.09-.59,0a5.6,5.6,0,0,1-1.16-.55c-.44-.25-.89-.53-1.33-.75a3,3,0,0,0-1.35-.41,3,3,0,0,0-1.34.41c-.45.23-.9.5-1.33.75a6.53,6.53,0,0,1-1.17.55c-.32.1-.49.08-.59,0s-.17-.23-.18-.56a7,7,0,0,1,.17-1.29c.1-.48.22-1,.3-1.49a3.18,3.18,0,0,0,0-1.41,3.1,3.1,0,0,0-.81-1.15c-.35-.35-.76-.7-1.12-1a6.71,6.71,0,0,1-.89-.94c-.19-.28-.22-.44-.19-.56s.16-.23.48-.34a6.12,6.12,0,0,1,1.27-.24c.5-.06,1-.1,1.52-.18A3,3,0,0,0,99.76,40a3,3,0,0,0,.84-1.12c.23-.44.43-.93.64-1.39a6,6,0,0,1,.62-1.13c.2-.27.35-.35.47-.35Zm0,0"/><path class="cls-9" d="M93.05,34.1a1,1,0,0,1,.29-.69.94.94,0,0,1,.69-.29,1,1,0,0,1,0,2,.94.94,0,0,1-.69-.29,1,1,0,0,1-.29-.69Zm0,0"/><path class="cls-9" d="M45,0,16,0H0L0,16c0,7,0,14,0,21A29.11,29.11,0,0,0,51.47,18.3,28.92,28.92,0,0,0,45,0Z"/><text class="cls-13" transform="translate(15.57 31.75)">09</text></svg>