<?xml version="1.0" encoding="utf-8"?>
<!-- Generator: Adobe Illustrator 26.0.3, SVG Export Plug-In . SVG Version: 6.00 Build 0)  -->
<svg version="1.1" id="Слой_1" xmlns="http://www.w3.org/2000/svg" xmlns:xlink="http://www.w3.org/1999/xlink" x="0px" y="0px"
	 viewBox="0 0 195.6 280.6" style="enable-background:new 0 0 195.6 280.6;" xml:space="preserve">
<style type="text/css">
	.st0{clip-path:url(#SVGID_00000088837549801920884930000004951152494243316663_);fill:#91D1DD;}
	.st1{clip-path:url(#SVGID_00000088837549801920884930000004951152494243316663_);fill:#EB5A53;}
	.st2{clip-path:url(#SVGID_00000088837549801920884930000004951152494243316663_);fill:#1A1A1A;}
	.st3{clip-path:url(#SVGID_00000088837549801920884930000004951152494243316663_);fill:#FFFFFF;}
	.st4{clip-path:url(#SVGID_00000088837549801920884930000004951152494243316663_);fill:#EE6F4D;}
	.st5{clip-path:url(#SVGID_00000088837549801920884930000004951152494243316663_);fill:#FABE7D;}
	.st6{clip-path:url(#SVGID_00000088837549801920884930000004951152494243316663_);fill:#44B1E6;}
	.st7{clip-path:url(#SVGID_00000088837549801920884930000004951152494243316663_);fill:#EA4F3D;}
	.st8{clip-path:url(#SVGID_00000088837549801920884930000004951152494243316663_);fill:#DF1F1D;}
	.st9{clip-path:url(#SVGID_00000088837549801920884930000004951152494243316663_);fill:#F39673;}
	.st10{clip-path:url(#SVGID_00000088837549801920884930000004951152494243316663_);fill:#298BCC;}
	.st11{clip-path:url(#SVGID_00000088837549801920884930000004951152494243316663_);fill:#4EB9EB;}
	.st12{clip-path:url(#SVGID_00000088837549801920884930000004951152494243316663_);fill:#026196;}
	.st13{clip-path:url(#SVGID_00000088837549801920884930000004951152494243316663_);fill:#BDBDBD;}
	.st14{clip-path:url(#SVGID_00000088837549801920884930000004951152494243316663_);fill:#9C9C9C;}
	.st15{clip-path:url(#SVGID_00000088837549801920884930000004951152494243316663_);fill:#A3DAF4;}
	.st16{clip-path:url(#SVGID_00000088837549801920884930000004951152494243316663_);fill:#EAB170;}
	.st17{clip-path:url(#SVGID_00000088837549801920884930000004951152494243316663_);fill:#BADBE9;}
	.st18{clip-path:url(#SVGID_00000088837549801920884930000004951152494243316663_);fill:#C0E4EF;}
	.st19{clip-path:url(#SVGID_00000088837549801920884930000004951152494243316663_);enable-background:new    ;}
	.st20{fill:#FFFFFF;}
	.st21{font-family:'Impact';}
	.st22{font-size:32.38px;}
	.st23{font-size:20px;}
</style>
<g>
	<defs>
		<rect id="SVGID_1_" x="0.2" y="0.7" width="195.6" height="280.6"/>
	</defs>
	<clipPath id="SVGID_00000109008987682634168050000011516524325625150593_">
		<use xlink:href="#SVGID_1_"  style="overflow:visible;"/>
	</clipPath>
	
		<rect x="-12.9" y="-16" style="clip-path:url(#SVGID_00000109008987682634168050000011516524325625150593_);fill:#91D1DD;" width="488.9" height="302.6"/>
	<path style="clip-path:url(#SVGID_00000109008987682634168050000011516524325625150593_);fill:#EB5A53;" d="M77.9,111.4
		c4.8-8.2,9.3-7.8,11.8-6.3s5.2,5.2,0.4,13.4s-14.2,18.4-17.6,16.4S73.2,119.7,77.9,111.4z"/>
	<path style="clip-path:url(#SVGID_00000109008987682634168050000011516524325625150593_);fill:#EB5A53;" d="M46,60.8
		c7.5-5.8,11.6-3.6,13.3-1.3s2.8,6.8-4.8,12.5S34.4,83.5,32,80.4S38.4,66.6,46,60.8z"/>
	<path style="clip-path:url(#SVGID_00000109008987682634168050000011516524325625150593_);fill:#EB5A53;" d="M151.1,74.8
		c-9.5,0-11.4-4.2-11.4-7.1s1.9-7.1,11.4-7.1s23,3.2,23,7.1S160.5,74.8,151.1,74.8z"/>
	<path style="clip-path:url(#SVGID_00000109008987682634168050000011516524325625150593_);fill:#1A1A1A;" d="M156.3,62.9
		c3.1,0.3,6.2,0.9,9.3,1.7c1.8,0.5,3.6,1.1,5.2,2c0.5,0.3,0.9,0.7,1.2,1.1c-0.3,0.4-0.8,0.8-1.3,1.1c-1.6,0.9-3.4,1.6-5.2,2.1
		c-3,0.8-6.2,1.4-9.3,1.7v4c3.5-0.3,7-1,10.4-1.9c2.2-0.5,4.2-1.4,6.2-2.5c1.7-1,3.2-2.3,3.2-4.4s-1.6-3.4-3.2-4.5
		c-1.9-1.1-4-1.9-6.2-2.5c-3.4-0.9-6.9-1.6-10.4-1.9L156.3,62.9z"/>
	<path style="clip-path:url(#SVGID_00000109008987682634168050000011516524325625150593_);fill:#1A1A1A;" d="M137.7,67.7
		c0,2.4,1,4.6,2.8,6.1c2.1,1.8,5.5,2.9,10.6,2.9c2.1,0,4.2-0.1,6.4-0.4v-4c-2.1,0.3-4.2,0.4-6.4,0.4c-4.5,0-6.8-1-8-2
		c-1.7-1.5-1.9-4-0.5-5.8c0.1-0.2,0.3-0.3,0.5-0.5c1.2-1,3.5-2,8-2c2.1,0,4.3,0.2,6.4,0.4v-4c-2.1-0.2-4.2-0.4-6.4-0.4
		c-5.1,0-8.4,1.1-10.6,2.9C138.7,63.1,137.7,65.3,137.7,67.7L137.7,67.7z"/>
	<path style="clip-path:url(#SVGID_00000109008987682634168050000011516524325625150593_);fill:#1A1A1A;" d="M60.9,58.3
		c-1.4-1.9-3.6-3-6-3.1c-2.8-0.1-6.2,1-10.1,4.1c-1.7,1.3-3.3,2.7-4.8,4.2l2.4,3.2c1.5-1.5,3.1-2.9,4.8-4.2c3.5-2.7,6-3.4,7.5-3.3
		c2.3,0.1,4,2.1,3.8,4.4c0,0.2,0,0.4-0.1,0.6c-0.3,1.5-1.6,3.7-5.1,6.4c-1.7,1.3-3.5,2.5-5.3,3.6l2.4,3.2c1.8-1.1,3.6-2.3,5.3-3.6
		c4-3.1,6-6,6.6-8.7C62.9,62.5,62.3,60.1,60.9,58.3z"/>
	<path style="clip-path:url(#SVGID_00000109008987682634168050000011516524325625150593_);fill:#1A1A1A;" d="M49.1,73.4
		c-2.7,1.7-5.5,3.1-8.4,4.3c-1.7,0.7-3.5,1.3-5.4,1.5c-0.5,0.1-1.1,0.1-1.6-0.1c0-0.6,0.1-1.1,0.4-1.6c0.8-1.7,1.7-3.3,2.9-4.8
		c1.9-2.5,4-4.9,6.3-7l-2.4-3.2c-2.6,2.4-4.9,5-7.1,7.8c-1.4,1.7-2.5,3.7-3.4,5.7c-0.7,1.8-1.1,3.8,0.1,5.5s3.3,1.8,5.3,1.6
		c2.2-0.3,4.3-0.9,6.4-1.8c3.3-1.3,6.4-2.9,9.4-4.8L49.1,73.4z"/>
	<path style="clip-path:url(#SVGID_00000109008987682634168050000011516524325625150593_);fill:#1A1A1A;" d="M90.7,103.4
		c-2-1.2-4.5-1.4-6.7-0.6c-2.7,1-5.3,3.3-7.8,7.7c-1.1,1.8-2,3.7-2.9,5.7l3.4,2c0.8-2,1.8-3.9,2.8-5.7c2.2-3.9,4.3-5.4,5.7-5.9
		c1.1-0.5,2.4-0.3,3.4,0.3c1.1,0.6,1.8,1.6,2,2.8c0.3,1.5,0,4-2.3,7.9c-1.1,1.8-2.3,3.6-3.6,5.3l3.4,2c1.3-1.7,2.4-3.5,3.5-5.3
		c2.5-4.4,3.2-7.8,2.7-10.6C94.2,106.6,92.8,104.6,90.7,103.4L90.7,103.4z"/>
	<path style="clip-path:url(#SVGID_00000109008987682634168050000011516524325625150593_);fill:#1A1A1A;" d="M85.6,121.9
		c-1.8,2.6-3.9,5-6.1,7.2c-1.3,1.3-2.8,2.5-4.4,3.5c-0.5,0.3-1,0.5-1.5,0.6c-0.2-0.5-0.3-1.1-0.3-1.6c0-1.9,0.3-3.7,0.8-5.5
		c0.8-3,1.9-6,3.2-8.9l-3.4-2c-1.5,3.2-2.7,6.5-3.5,9.9c-0.6,2.1-0.9,4.3-1,6.6c0,1.9,0.4,4,2.2,5s3.8,0.4,5.5-0.6
		c1.9-1.1,3.7-2.5,5.2-4.1c2.5-2.5,4.8-5.1,6.8-8L85.6,121.9z"/>
	<path style="clip-path:url(#SVGID_00000109008987682634168050000011516524325625150593_);fill:#EB5A53;" d="M113.7,111.4
		c4.8-8.2,9.3-7.8,11.8-6.3c2.5,1.4,5.2,5.2,0.4,13.4s-14.2,18.4-17.6,16.4S108.9,119.7,113.7,111.4z"/>
	<path style="clip-path:url(#SVGID_00000109008987682634168050000011516524325625150593_);fill:#1A1A1A;" d="M121.4,121.9
		c-1.8,2.6-3.9,5-6.1,7.2c-1.3,1.3-2.8,2.5-4.4,3.5c-0.5,0.3-1,0.5-1.6,0.6c-0.2-0.5-0.3-1.1-0.3-1.6c0-1.9,0.3-3.7,0.8-5.5
		c0.8-3,1.9-6,3.2-8.9l-3.4-2c-1.5,3.2-2.7,6.5-3.6,9.9c-0.6,2.1-0.9,4.3-1,6.6c0,1.9,0.4,4,2.2,5s3.8,0.4,5.5-0.6
		c1.9-1.1,3.7-2.5,5.2-4.1c2.5-2.5,4.8-5.1,6.8-8L121.4,121.9z"/>
	<path style="clip-path:url(#SVGID_00000109008987682634168050000011516524325625150593_);fill:#1A1A1A;" d="M126.5,103.4
		c-2-1.2-4.5-1.4-6.7-0.6c-2.7,1-5.3,3.3-7.8,7.7c-1.1,1.8-2,3.7-2.8,5.7l3.4,2c0.8-2,1.8-3.9,2.8-5.7c2.2-3.9,4.3-5.4,5.7-5.9
		c2.1-0.8,4.5,0.3,5.2,2.5c0.1,0.2,0.1,0.4,0.2,0.6c0.3,1.5,0,4-2.3,7.9c-1.1,1.8-2.3,3.6-3.6,5.3l3.4,2c1.3-1.7,2.4-3.5,3.5-5.3
		c2.5-4.4,3.2-7.8,2.7-10.6C130,106.6,128.6,104.6,126.5,103.4L126.5,103.4z"/>
	<path style="clip-path:url(#SVGID_00000109008987682634168050000011516524325625150593_);fill:#EB5A53;" d="M64.3,32
		c9.7-5.4,15,1.6,39,1.3c22-0.2,26.6-6.1,35.5-1.4c15.1,8.1,15.4,32.5,15.4,35.5c0,2.2-0.3,28.4-15.4,35.5
		c-10.1,4.8-15.5-4.4-36-4.7c-21.8-0.3-27.8,9.8-38.6,4.7c-15.1-7.3-15.4-33.3-15.4-35.5C48.8,64.5,49.2,40.3,64.3,32z"/>
	<path style="clip-path:url(#SVGID_00000109008987682634168050000011516524325625150593_);fill:#FFFFFF;" d="M101.2,16
		c-23,0-43.6,14.5-51.2,36.3h102.4C144.7,30.6,124.2,16.1,101.2,16z"/>
	<path style="clip-path:url(#SVGID_00000109008987682634168050000011516524325625150593_);fill:#FFFFFF;" d="M104,17.3
		c-21.9,0-41.2,14.2-47.8,35h95.7C145.2,31.4,125.9,17.3,104,17.3z"/>
	<path style="clip-path:url(#SVGID_00000109008987682634168050000011516524325625150593_);fill:#FFFFFF;" d="M52.1,87.5
		c2.3,5.5,5.4,10.5,9.2,15c6.5,7.8,15.1,13.5,24.8,16.5c4.9,1.4,10,2.2,15.1,2.1c9.5-0.2,18.7-2.9,26.9-7.7
		c10.6-6.1,19.2-15.1,24.8-25.9H52.1z"/>
	<path style="clip-path:url(#SVGID_00000109008987682634168050000011516524325625150593_);fill:#FFFFFF;" d="M55.3,87.6
		c12,26.2,42.9,37.7,69.1,25.8c11.4-5.2,20.5-14.4,25.8-25.8H55.3z"/>
	<path style="clip-path:url(#SVGID_00000109008987682634168050000011516524325625150593_);fill:#FFFFFF;" d="M105.1,103h-0.3h-0.1
		h-0.1h-0.1h-0.1h-0.1h-0.1H104l-0.1,0.1l-0.1,0.1l-0.1,0.1l-0.1,0.1l-0.1,0.1c0,0-0.1,0.1-0.1,0.1s-0.1,0.1-0.1,0.1l-0.1,0.1
		l-0.1,0.1c0,0,0,0.1-0.1,0.1l-0.1,0.1c0,0,0,0.1-0.1,0.1L103,104c0,0,0,0.1,0,0.1c0,0,0,0.1,0,0.1c0,0,0,0.1,0,0.2l0,0
		c0,0,0,0.1,0,0.1v0.1c0,0,0,0.1,0,0.1s0,0.1,0,0.1v0.3c0,0,0,0.1,0,0.1s0,0.1,0,0.1v0.1c0,0,0,0.1,0,0.1c0,0,0,0.1,0,0.1
		c0,0,0,0.1,0,0.1c0,0,0,0.1,0,0.1c0,0,0,0.1,0,0.1c0,0,0,0.1,0,0.1l0.1,0.1l0.1,0.1l0.1,0.1c0,0,0.1,0.1,0.1,0.1l0.1,0.1
		c0,0,0.1,0,0.1,0.1l0.1,0.1l0.1,0.1l0.1,0.1l0.1,0.1l0.1,0.1l0.1,0.1h0.1h0.1l0.2,0.1l0,0l0,0h0.1h0.1h0.1h0.3c0,0,0.1,0,0.1,0h0.3
		h0.1h0.1h0.1h0.1h0.1h0.1h0.1l0.1-0.1l0.1-0.1l0.1-0.1l0.1-0.1l0.1-0.1l0.1-0.1l0.1-0.1c0,0,0.1-0.1,0.1-0.1l0.1-0.1
		c0,0,0-0.1,0.1-0.1l0.1-0.1v-0.1l0.1-0.1c0,0,0-0.1,0-0.1c0,0,0-0.1,0-0.1c0-0.1,0-0.1,0.1-0.2l0,0c0,0,0-0.1,0-0.1v-0.1
		c0,0,0-0.1,0-0.1s0-0.1,0-0.1v-0.3c0,0,0-0.1,0-0.1c0,0,0-0.1,0-0.1c0,0,0-0.1,0-0.1v-0.1v-0.1c0,0,0-0.1,0-0.1v-0.1
		c0,0-8071.7,4035.6-0.1-0.2l-0.1-0.1l-0.1-0.1c0,0,0-0.1-0.1-0.1l-0.1-0.1l-0.1-0.1l-0.1-0.1l-0.1-0.1l-0.1-0.1l-0.1-0.1l-0.1-0.1
		l-0.1-0.1h-0.1H106h-0.1l-0.2-0.1l0,0l0,0h-0.1h-0.1h-0.1h-0.1L105.1,103L105.1,103z"/>
	<path style="clip-path:url(#SVGID_00000109008987682634168050000011516524325625150593_);fill:#FFFFFF;" d="M105.1,103h-0.2h-0.1
		h-0.1h-0.1h-0.1h-0.1h-0.1h-0.1H104h-0.1l-0.1,0.1l-0.1,0.1l-0.1,0.1l-0.1,0.1l-0.1,0.1c0,0-183.2-182.9-0.2,0.2l-0.1,0.1l-0.1,0.1
		l-0.1,0.1c0,0,0,0.1-0.1,0.1L103,104v0.1v0.1c0,0,0,0.1,0,0.2l0,0c0,0,0,0.1,0,0.1v0.1c0,0,0,0.1,0,0.1s0,0.1,0,0.1v0.3
		c0,0,0,0.1,0,0.1s0,0.1,0,0.1v0.1c0,0,0,0.1,0,0.1c0,0,0,0.1,0,0.1c0,0,0,0.1,0,0.1c0,0,0,0.1,0,0.1c0,0,0,0.1,0,0.1v0.1l0.1,0.1
		l0.1,0.1l0.1,0.1l0.1,0.1l0.1,0.1l0.1,0.1l0.1,0.1l0.1,0.1l0.1,0.1l0.1,0.1l0.1,0.1l0.1,0.1h0.1h0.1l0.2,0.1l0,0h0.1h0.1h0.1h0.5
		h0.1h0.1h0.1h0.1h0.1h0.1h0.1l0.1-0.1l0.1-0.1l0.1-0.1l0.1-0.1l0.1-0.1l0.1-0.1l0.1-0.1c0,0,0.1-0.1,0.1-0.1l0.1-0.1
		c0,0,0-0.1,0.1-0.1l0.1-0.1v-0.1l0.1-0.1c0,0,0-0.1,0-0.1c0,0,0-0.1,0-0.1c0-0.1,0-0.1,0.1-0.2l0,0c0,0,0-0.1,0-0.1v-0.1
		c0,0,0-0.1,0-0.1s0-0.1,0-0.1v-0.3c0,0,0-0.1,0-0.1c0,0,0-0.1,0-0.1c0,0,0-0.1,0-0.1v-0.1v-0.1c0,0,0-0.1,0-0.1v-0.1
		c0,0-8071.7,4035.6-0.1-0.2l-0.1-0.1l-0.1-0.1c0,0,0-0.1-0.1-0.1l-0.1-0.1l-0.1-0.1l-0.1-0.1l-0.1-0.1l-0.1-0.1l-0.1-0.1l-0.1-0.1
		l-0.1-0.1h-0.1h-0.1h-0.1l-0.2-0.1l0,0l0,0h-0.1h-0.1h-0.1L105.1,103L105.1,103L105.1,103z"/>
	<path style="clip-path:url(#SVGID_00000109008987682634168050000011516524325625150593_);fill:#FFFFFF;" d="M105.1,103h-0.2h-0.1
		h-0.1h-0.1h-0.1h-0.1h-0.1h-0.1H104h-0.1l-0.1,0.1l-0.1,0.1l-0.1,0.1l-0.1,0.1l-0.1,0.1c0,0-183.2-182.9-0.2,0.2l-0.1,0.1l-0.1,0.1
		l-0.1,0.1c0,0,0,0.1-0.1,0.1L103,104v0.1v0.1c0,0,0,0.1,0,0.2l0,0c0,0,0,0.1,0,0.1v0.1c0,0,0,0.1,0,0.1s0,0.1,0,0.1v0.3
		c0,0,0,0.1,0,0.1s0,0.1,0,0.1v0.1c0,0,0,0.1,0,0.1c0,0,0,0.1,0,0.1c0,0,0,0.1,0,0.1c0,0,0,0.1,0,0.1c0,0,0,0.1,0,0.1v0.1l0.1,0.1
		l0.1,0.1l0.1,0.1l0.1,0.1l0.1,0.1l0.1,0.1l0.1,0.1l0.1,0.1l0.1,0.1l0.1,0.1l0.1,0.1l0.1,0.1h0.1h0.1l0.2,0.1l0,0h0.1h0.1h0.1h0.5
		h0.1h0.1h0.1h0.1h0.1h0.1h0.1l0.1-0.1l0.1-0.1l0.1-0.1l0.1-0.1l0.1-0.1l0.1-0.1l0.1-0.1c0,0,0.1-0.1,0.1-0.1l0.1-0.1
		c0,0,0-0.1,0.1-0.1l0.1-0.1v-0.1l0.1-0.1c0,0,0-0.1,0-0.1c0,0,0-0.1,0-0.1c0-0.1,0-0.1,0.1-0.2l0,0c0,0,0-0.1,0-0.1v-0.1
		c0,0,0-0.1,0-0.1s0-0.1,0-0.1v-0.3c0,0,0-0.1,0-0.1c0,0,0-0.1,0-0.1c0,0,0-0.1,0-0.1v-0.1v-0.1c0,0,0-0.1,0-0.1v-0.1
		c0,0-8071.7,4035.6-0.1-0.2l-0.1-0.1l-0.1-0.1c0,0,0-0.1-0.1-0.1l-0.1-0.1l-0.1-0.1l-0.1-0.1l-0.1-0.1l-0.1-0.1l-0.1-0.1l-0.1-0.1
		l-0.1-0.1h-0.1h-0.1h-0.1l-0.2-0.1l0,0l0,0h-0.1h-0.1h-0.1L105.1,103L105.1,103L105.1,103z"/>
	<path style="clip-path:url(#SVGID_00000109008987682634168050000011516524325625150593_);fill:#FFFFFF;" d="M105.1,103h-0.2h-0.1
		h-0.1h-0.1h-0.1h-0.1h-0.1h-0.1H104h-0.1l-0.1,0.1l-0.1,0.1l-0.1,0.1l-0.1,0.1l-0.1,0.1c0,0-183.2-182.9-0.2,0.2l-0.1,0.1l-0.1,0.1
		l-0.1,0.1c0,0,0,0.1-0.1,0.1L103,104v0.1v0.1c0,0,0,0.1,0,0.2l0,0c0,0,0,0.1,0,0.1v0.1c0,0,0,0.1,0,0.1s0,0.1,0,0.1v0.3
		c0,0,0,0.1,0,0.1s0,0.1,0,0.1v0.1c0,0,0,0.1,0,0.1c0,0,0,0.1,0,0.1c0,0,0,0.1,0,0.1c0,0,0,0.1,0,0.1c0,0,0,0.1,0,0.1v0.1l0.1,0.1
		l0.1,0.1l0.1,0.1l0.1,0.1l0.1,0.1l0.1,0.1l0.1,0.1l0.1,0.1l0.1,0.1l0.1,0.1l0.1,0.1l0.1,0.1h0.1h0.1l0.2,0.1l0,0h0.1h0.1h0.1h0.5
		h0.1h0.1h0.1h0.1h0.1h0.1h0.1l0.1-0.1l0.1-0.1l0.1-0.1l0.1-0.1l0.1-0.1l0.1-0.1l0.1-0.1c0,0,0.1-0.1,0.1-0.1l0.1-0.1
		c0,0,0-0.1,0.1-0.1l0.1-0.1v-0.1l0.1-0.1c0,0,0-0.1,0-0.1c0,0,0-0.1,0-0.1c0-0.1,0-0.1,0.1-0.2l0,0c0,0,0-0.1,0-0.1v-0.1
		c0,0,0-0.1,0-0.1s0-0.1,0-0.1v-0.3c0,0,0-0.1,0-0.1c0,0,0-0.1,0-0.1c0,0,0-0.1,0-0.1v-0.1v-0.1c0,0,0-0.1,0-0.1v-0.1
		c0,0-8071.7,4035.6-0.1-0.2l-0.1-0.1l-0.1-0.1c0,0,0-0.1-0.1-0.1l-0.1-0.1l-0.1-0.1l-0.1-0.1l-0.1-0.1l-0.1-0.1l-0.1-0.1l-0.1-0.1
		l-0.1-0.1h-0.1h-0.1h-0.1l-0.2-0.1l0,0l0,0h-0.1h-0.1h-0.1L105.1,103L105.1,103L105.1,103z"/>
	<path style="clip-path:url(#SVGID_00000109008987682634168050000011516524325625150593_);fill:#FFFFFF;" d="M105.1,103h-0.2h-0.1
		h-0.1h-0.1h-0.1h-0.1h-0.1h-0.1H104h-0.1l-0.1,0.1l-0.1,0.1l-0.1,0.1l-0.1,0.1l-0.1,0.1c0,0-183.2-182.9-0.2,0.2l-0.1,0.1l-0.1,0.1
		l-0.1,0.1c0,0,0,0.1-0.1,0.1L103,104v0.1v0.1c0,0,0,0.1,0,0.2l0,0c0,0,0,0.1,0,0.1v0.1c0,0,0,0.1,0,0.1s0,0.1,0,0.1v0.3
		c0,0,0,0.1,0,0.1s0,0.1,0,0.1v0.1c0,0,0,0.1,0,0.1c0,0,0,0.1,0,0.1c0,0,0,0.1,0,0.1c0,0,0,0.1,0,0.1c0,0,0,0.1,0,0.1v0.1l0.1,0.1
		l0.1,0.1l0.1,0.1l0.1,0.1l0.1,0.1l0.1,0.1l0.1,0.1l0.1,0.1l0.1,0.1l0.1,0.1l0.1,0.1l0.1,0.1h0.1h0.1l0.2,0.1l0,0h0.1h0.1h0.1h0.5
		h0.1h0.1h0.1h0.1h0.1h0.1h0.1l0.1-0.1l0.1-0.1l0.1-0.1l0.1-0.1l0.1-0.1l0.1-0.1l0.1-0.1c0,0,0.1-0.1,0.1-0.1l0.1-0.1
		c0,0,0-0.1,0.1-0.1l0.1-0.1v-0.1l0.1-0.1c0,0,0-0.1,0-0.1c0,0,0-0.1,0-0.1c0-0.1,0-0.1,0.1-0.2l0,0c0,0,0-0.1,0-0.1v-0.1
		c0,0,0-0.1,0-0.1s0-0.1,0-0.1v-0.3c0,0,0-0.1,0-0.1c0,0,0-0.1,0-0.1c0,0,0-0.1,0-0.1v-0.1v-0.1c0,0,0-0.1,0-0.1v-0.1
		c0,0-8071.7,4035.6-0.1-0.2l-0.1-0.1l-0.1-0.1c0,0,0-0.1-0.1-0.1l-0.1-0.1l-0.1-0.1l-0.1-0.1l-0.1-0.1l-0.1-0.1l-0.1-0.1l-0.1-0.1
		l-0.1-0.1h-0.1h-0.1h-0.1l-0.2-0.1l0,0l0,0h-0.1h-0.1h-0.1L105.1,103L105.1,103L105.1,103z"/>
	<path style="clip-path:url(#SVGID_00000109008987682634168050000011516524325625150593_);fill:#FFFFFF;" d="M105.1,103h-0.2h-0.1
		h-0.1h-0.1h-0.1h-0.1h-0.1h-0.1H104h-0.1l-0.1,0.1l-0.1,0.1l-0.1,0.1l-0.1,0.1l-0.1,0.1c0,0-183.2-182.9-0.2,0.2l-0.1,0.1l-0.1,0.1
		l-0.1,0.1c0,0,0,0.1-0.1,0.1L103,104v0.1v0.1c0,0,0,0.1,0,0.2l0,0c0,0,0,0.1,0,0.1v0.1c0,0,0,0.1,0,0.1s0,0.1,0,0.1v0.3
		c0,0,0,0.1,0,0.1s0,0.1,0,0.1v0.1c0,0,0,0.1,0,0.1c0,0,0,0.1,0,0.1c0,0,0,0.1,0,0.1c0,0,0,0.1,0,0.1c0,0,0,0.1,0,0.1v0.1l0.1,0.1
		l0.1,0.1l0.1,0.1l0.1,0.1l0.1,0.1l0.1,0.1l0.1,0.1l0.1,0.1l0.1,0.1l0.1,0.1l0.1,0.1l0.1,0.1h0.1h0.1l0.2,0.1l0,0h0.1h0.1h0.1h0.5
		h0.1h0.1h0.1h0.1h0.1h0.1h0.1l0.1-0.1l0.1-0.1l0.1-0.1l0.1-0.1l0.1-0.1l0.1-0.1l0.1-0.1c0,0,0.1-0.1,0.1-0.1l0.1-0.1
		c0,0,0-0.1,0.1-0.1l0.1-0.1v-0.1l0.1-0.1c0,0,0-0.1,0-0.1c0,0,0-0.1,0-0.1c0-0.1,0-0.1,0.1-0.2l0,0c0,0,0-0.1,0-0.1v-0.1
		c0,0,0-0.1,0-0.1s0-0.1,0-0.1v-0.3c0,0,0-0.1,0-0.1c0,0,0-0.1,0-0.1c0,0,0-0.1,0-0.1v-0.1v-0.1c0,0,0-0.1,0-0.1v-0.1
		c0,0-8071.7,4035.6-0.1-0.2l-0.1-0.1l-0.1-0.1c0,0,0-0.1-0.1-0.1l-0.1-0.1l-0.1-0.1l-0.1-0.1l-0.1-0.1l-0.1-0.1l-0.1-0.1l-0.1-0.1
		l-0.1-0.1h-0.1h-0.1h-0.1l-0.2-0.1l0,0l0,0h-0.1h-0.1h-0.1L105.1,103L105.1,103L105.1,103z"/>
	<path style="clip-path:url(#SVGID_00000109008987682634168050000011516524325625150593_);fill:#FFFFFF;" d="M105.1,103h-0.2h-0.1
		h-0.1h-0.1h-0.1h-0.1h-0.1h-0.1H104h-0.1l-0.1,0.1l-0.1,0.1l-0.1,0.1l-0.1,0.1l-0.1,0.1c0,0-183.2-182.9-0.2,0.2l-0.1,0.1l-0.1,0.1
		l-0.1,0.1c0,0,0,0.1-0.1,0.1L103,104v0.1v0.1c0,0,0,0.1,0,0.2l0,0c0,0,0,0.1,0,0.1v0.1c0,0,0,0.1,0,0.1s0,0.1,0,0.1v0.3
		c0,0,0,0.1,0,0.1s0,0.1,0,0.1v0.1c0,0,0,0.1,0,0.1c0,0,0,0.1,0,0.1c0,0,0,0.1,0,0.1c0,0,0,0.1,0,0.1c0,0,0,0.1,0,0.1v0.1l0.1,0.1
		l0.1,0.1l0.1,0.1l0.1,0.1l0.1,0.1l0.1,0.1l0.1,0.1l0.1,0.1l0.1,0.1l0.1,0.1l0.1,0.1l0.1,0.1h0.1h0.1l0.2,0.1l0,0h0.1h0.1h0.1h0.5
		h0.1h0.1h0.1h0.1h0.1h0.1h0.1l0.1-0.1l0.1-0.1l0.1-0.1l0.1-0.1l0.1-0.1l0.1-0.1l0.1-0.1c0,0,0.1-0.1,0.1-0.1l0.1-0.1
		c0,0,0-0.1,0.1-0.1l0.1-0.1v-0.1l0.1-0.1c0,0,0-0.1,0-0.1c0,0,0-0.1,0-0.1c0-0.1,0-0.1,0.1-0.2l0,0c0,0,0-0.1,0-0.1v-0.1
		c0,0,0-0.1,0-0.1s0-0.1,0-0.1v-0.3c0,0,0-0.1,0-0.1c0,0,0-0.1,0-0.1c0,0,0-0.1,0-0.1v-0.1v-0.1c0,0,0-0.1,0-0.1v-0.1
		c0,0-8071.7,4035.6-0.1-0.2l-0.1-0.1l-0.1-0.1c0,0,0-0.1-0.1-0.1l-0.1-0.1l-0.1-0.1l-0.1-0.1l-0.1-0.1l-0.1-0.1l-0.1-0.1l-0.1-0.1
		l-0.1-0.1h-0.1h-0.1h-0.1l-0.2-0.1l0,0l0,0h-0.1h-0.1h-0.1L105.1,103L105.1,103L105.1,103z"/>
	<path style="clip-path:url(#SVGID_00000109008987682634168050000011516524325625150593_);fill:#FFFFFF;" d="M105.1,103h-0.2h-0.1
		h-0.1h-0.1h-0.1h-0.1h-0.1h-0.1H104h-0.1l-0.1,0.1l-0.1,0.1l-0.1,0.1l-0.1,0.1l-0.1,0.1c0,0-183.2-182.9-0.2,0.2l-0.1,0.1l-0.1,0.1
		l-0.1,0.1c0,0,0,0.1-0.1,0.1L103,104v0.1v0.1c0,0,0,0.1,0,0.2l0,0c0,0,0,0.1,0,0.1v0.1c0,0,0,0.1,0,0.1s0,0.1,0,0.1v0.3
		c0,0,0,0.1,0,0.1s0,0.1,0,0.1v0.1c0,0,0,0.1,0,0.1c0,0,0,0.1,0,0.1c0,0,0,0.1,0,0.1c0,0,0,0.1,0,0.1c0,0,0,0.1,0,0.1v0.1l0.1,0.1
		l0.1,0.1l0.1,0.1l0.1,0.1l0.1,0.1l0.1,0.1l0.1,0.1l0.1,0.1l0.1,0.1l0.1,0.1l0.1,0.1l0.1,0.1h0.1h0.1l0.2,0.1l0,0h0.1h0.1h0.1h0.5
		h0.1h0.1h0.1h0.1h0.1h0.1h0.1l0.1-0.1l0.1-0.1l0.1-0.1l0.1-0.1l0.1-0.1l0.1-0.1l0.1-0.1c0,0,0.1-0.1,0.1-0.1l0.1-0.1
		c0,0,0-0.1,0.1-0.1l0.1-0.1v-0.1l0.1-0.1c0,0,0-0.1,0-0.1c0,0,0-0.1,0-0.1c0-0.1,0-0.1,0.1-0.2l0,0c0,0,0-0.1,0-0.1v-0.1
		c0,0,0-0.1,0-0.1s0-0.1,0-0.1v-0.3c0,0,0-0.1,0-0.1c0,0,0-0.1,0-0.1c0,0,0-0.1,0-0.1v-0.1v-0.1c0,0,0-0.1,0-0.1v-0.1
		c0,0-8071.7,4035.6-0.1-0.2l-0.1-0.1l-0.1-0.1c0,0,0-0.1-0.1-0.1l-0.1-0.1l-0.1-0.1l-0.1-0.1l-0.1-0.1l-0.1-0.1l-0.1-0.1l-0.1-0.1
		l-0.1-0.1h-0.1h-0.1h-0.1l-0.2-0.1l0,0l0,0h-0.1h-0.1h-0.1L105.1,103L105.1,103L105.1,103z"/>
	<path style="clip-path:url(#SVGID_00000109008987682634168050000011516524325625150593_);fill:#FFFFFF;" d="M105.1,103h-0.2h-0.1
		h-0.1h-0.1h-0.1h-0.1h-0.1h-0.1H104h-0.1l-0.1,0.1l-0.1,0.1l-0.1,0.1l-0.1,0.1l-0.1,0.1c0,0-183.2-182.9-0.2,0.2l-0.1,0.1l-0.1,0.1
		l-0.1,0.1c0,0,0,0.1-0.1,0.1L103,104v0.1v0.1c0,0,0,0.1,0,0.2l0,0c0,0,0,0.1,0,0.1v0.1c0,0,0,0.1,0,0.1s0,0.1,0,0.1v0.3
		c0,0,0,0.1,0,0.1s0,0.1,0,0.1v0.1c0,0,0,0.1,0,0.1c0,0,0,0.1,0,0.1c0,0,0,0.1,0,0.1c0,0,0,0.1,0,0.1c0,0,0,0.1,0,0.1v0.1l0.1,0.1
		l0.1,0.1l0.1,0.1l0.1,0.1l0.1,0.1l0.1,0.1l0.1,0.1l0.1,0.1l0.1,0.1l0.1,0.1l0.1,0.1l0.1,0.1h0.1h0.1l0.2,0.1l0,0h0.1h0.1h0.1h0.5
		h0.1h0.1h0.1h0.1h0.1h0.1h0.1l0.1-0.1l0.1-0.1l0.1-0.1l0.1-0.1l0.1-0.1l0.1-0.1l0.1-0.1c0,0,0.1-0.1,0.1-0.1l0.1-0.1
		c0,0,0-0.1,0.1-0.1l0.1-0.1v-0.1l0.1-0.1c0,0,0-0.1,0-0.1c0,0,0-0.1,0-0.1c0-0.1,0-0.1,0.1-0.2l0,0c0,0,0-0.1,0-0.1v-0.1
		c0,0,0-0.1,0-0.1s0-0.1,0-0.1v-0.3c0,0,0-0.1,0-0.1c0,0,0-0.1,0-0.1c0,0,0-0.1,0-0.1v-0.1v-0.1c0,0,0-0.1,0-0.1v-0.1
		c0,0-8071.7,4035.6-0.1-0.2l-0.1-0.1l-0.1-0.1c0,0,0-0.1-0.1-0.1l-0.1-0.1l-0.1-0.1l-0.1-0.1l-0.1-0.1l-0.1-0.1l-0.1-0.1l-0.1-0.1
		l-0.1-0.1h-0.1h-0.1h-0.1l-0.2-0.1l0,0l0,0h-0.1h-0.1h-0.1L105.1,103L105.1,103L105.1,103z"/>
	<path style="clip-path:url(#SVGID_00000109008987682634168050000011516524325625150593_);fill:#FFFFFF;" d="M105.1,103h-0.2h-0.1
		h-0.1h-0.1h-0.1h-0.1h-0.1h-0.1H104h-0.1l-0.1,0.1l-0.1,0.1l-0.1,0.1l-0.1,0.1l-0.1,0.1c0,0-183.2-182.9-0.2,0.2l-0.1,0.1l-0.1,0.1
		l-0.1,0.1c0,0,0,0.1-0.1,0.1L103,104v0.1v0.1c0,0,0,0.1,0,0.2l0,0c0,0,0,0.1,0,0.1v0.1c0,0,0,0.1,0,0.1s0,0.1,0,0.1v0.3
		c0,0,0,0.1,0,0.1s0,0.1,0,0.1v0.1c0,0,0,0.1,0,0.1c0,0,0,0.1,0,0.1c0,0,0,0.1,0,0.1c0,0,0,0.1,0,0.1c0,0,0,0.1,0,0.1v0.1l0.1,0.1
		l0.1,0.1l0.1,0.1l0.1,0.1l0.1,0.1l0.1,0.1l0.1,0.1l0.1,0.1l0.1,0.1l0.1,0.1l0.1,0.1l0.1,0.1h0.1h0.1l0.2,0.1l0,0h0.1h0.1h0.1h0.5
		h0.1h0.1h0.1h0.1h0.1h0.1h0.1l0.1-0.1l0.1-0.1l0.1-0.1l0.1-0.1l0.1-0.1l0.1-0.1l0.1-0.1c0,0,0.1-0.1,0.1-0.1l0.1-0.1
		c0,0,0-0.1,0.1-0.1l0.1-0.1v-0.1l0.1-0.1c0,0,0-0.1,0-0.1c0,0,0-0.1,0-0.1c0-0.1,0-0.1,0.1-0.2l0,0c0,0,0-0.1,0-0.1v-0.1
		c0,0,0-0.1,0-0.1s0-0.1,0-0.1v-0.3c0,0,0-0.1,0-0.1c0,0,0-0.1,0-0.1c0,0,0-0.1,0-0.1v-0.1v-0.1c0,0,0-0.1,0-0.1v-0.1
		c0,0-8071.7,4035.6-0.1-0.2l-0.1-0.1l-0.1-0.1c0,0,0-0.1-0.1-0.1l-0.1-0.1l-0.1-0.1l-0.1-0.1l-0.1-0.1l-0.1-0.1l-0.1-0.1l-0.1-0.1
		l-0.1-0.1h-0.1h-0.1h-0.1l-0.2-0.1l0,0l0,0h-0.1h-0.1h-0.1L105.1,103L105.1,103L105.1,103z"/>
	<path style="clip-path:url(#SVGID_00000109008987682634168050000011516524325625150593_);fill:#EE6F4D;" d="M4.6,191.8
		c-13.3,0-28.4-16.3-28.4-16.3s15.1-16.3,28.4-16.3s19.6,7.3,19.6,16.3S17.8,191.8,4.6,191.8L4.6,191.8z"/>
	<path style="clip-path:url(#SVGID_00000109008987682634168050000011516524325625150593_);fill:#FABE7D;" d="M12.5,182.8
		c-5.9,0-12.6-7.2-12.6-7.2s6.7-7.2,12.6-7.2s8.7,3.2,8.7,7.2S18.4,182.8,12.5,182.8z"/>
	<path style="clip-path:url(#SVGID_00000109008987682634168050000011516524325625150593_);fill:#1A1A1A;" d="M81.6,135
		c-1.9-0.1-3.9-0.2-5.8-0.2c-17.2,0-29.6,4.7-37.6,12s-12,17.3-12,28.6s4,21.3,12,28.6s20.4,12,37.6,12c1.9,0,3.9-0.1,5.8-0.2v6.3
		c-1.9,0.1-3.9,0.2-5.8,0.2c-18.4,0-32.5-5.1-41.9-13.6s-14.1-20.5-14.1-33.3s4.6-24.8,14.1-33.3s23.5-13.6,41.9-13.6
		c1.9,0,3.9,0.1,5.8,0.2V135z"/>
	<path style="clip-path:url(#SVGID_00000109008987682634168050000011516524325625150593_);fill:#1A1A1A;" d="M155.2,175.5
		c0,13.9-11.3,25.6-26.4,33.8c-15,7.9-31.5,12.3-48.3,13.1v-6.3c15.9-0.8,32.5-5.4,45.3-12.3c14.1-7.6,23.1-17.9,23.1-28.2
		s-9-20.6-23.1-28.2c-12.8-7-29.5-11.6-45.3-12.3v-6.3c16.9,0.8,33.4,5.2,48.3,13.1C143.9,150,155.2,161.6,155.2,175.5L155.2,175.5z
		"/>
	<path style="clip-path:url(#SVGID_00000109008987682634168050000011516524325625150593_);fill:#44B1E6;" d="M151.8,179.2
		c-0.3,1.5-0.6,2.9-1.2,4.3c-7.6-20.4-43.2-35.8-74.8-35.8s-48.7,15.4-52.1,35.9c-0.2-1.4-0.4-2.8-0.5-4.3
		c1.7-22.5,18.8-40.2,52.7-40.2S147.9,156.7,151.8,179.2L151.8,179.2z"/>
	<path style="clip-path:url(#SVGID_00000109008987682634168050000011516524325625150593_);fill:#1A1A1A;" d="M60,134.4
		c-8.5-13.4-25.3-15.5-34.5-15.5c4.5,5.3,10.8,14.3,12.5,26.3l-6.3,0.9c-2.3-16-15.3-27.7-15.3-27.7l-5.1-4.6l6.8-1
		c0,0,32.5-4.8,47.2,18.2L60,134.4z"/>
	<path style="clip-path:url(#SVGID_00000109008987682634168050000011516524325625150593_);fill:#1A1A1A;" d="M65.3,220.1
		c-14.7,23-47.2,18.1-47.2,18.1l-6.8-1l5.1-4.5c0,0,12.9-11.7,15.3-27.7l6.3,0.9c-1.7,11.9-8,20.9-12.5,26.3
		c9.2-0.1,26-2.1,34.5-15.5L65.3,220.1L65.3,220.1z"/>
	<path style="clip-path:url(#SVGID_00000109008987682634168050000011516524325625150593_);fill:#EA4F3D;" d="M62.7,218.4
		c-13.4,21-44.1,16.7-44.1,16.7s13.8-12.2,16.3-29.6L62.7,218.4z"/>
	<path style="clip-path:url(#SVGID_00000109008987682634168050000011516524325625150593_);fill:#DF1F1D;" d="M62.7,218.4
		c-1.4,2.1-2.9,4.1-4.8,5.8c-10.2-1.7-18.7-5-25.5-9.5c1.2-3,2-6,2.4-9.2L62.7,218.4L62.7,218.4z"/>
	<path style="clip-path:url(#SVGID_00000109008987682634168050000011516524325625150593_);fill:#EA4F3D;" d="M62.7,132.7
		c-13.4-21-44.1-16.7-44.1-16.7s13.8,12.2,16.3,29.6L62.7,132.7z"/>
	<path style="clip-path:url(#SVGID_00000109008987682634168050000011516524325625150593_);fill:#F39673;" d="M59,134.4
		c-10.1-14.7-28.9-16.2-38-16.1c-1.4-1.5-2.3-2.3-2.3-2.3s30.7-4.3,44.1,16.7L59,134.4z"/>
	<path style="clip-path:url(#SVGID_00000109008987682634168050000011516524325625150593_);fill:#298BCC;" d="M75.8,219.3
		c35.7,0,76.3-19.6,76.3-43.8s-40.7-43.8-76.3-43.8S23,151.3,23,175.5S40.2,219.3,75.8,219.3L75.8,219.3z"/>
	<path style="clip-path:url(#SVGID_00000109008987682634168050000011516524325625150593_);fill:#4EB9EB;" d="M149.2,171.8
		c-14.7-15.1-46.1-25.7-74.5-25.7c-22.1,0-37.7,6.4-47,16.3c7.3-13.9,23.2-23.5,48-23.5C105.8,139,139.4,152.9,149.2,171.8
		L149.2,171.8z"/>
	<path style="clip-path:url(#SVGID_00000109008987682634168050000011516524325625150593_);fill:#026196;" d="M102.9,180.3
		c0,12.1-9.8,21.9-21.9,21.9s-21.9-9.8-21.9-21.9c0-12.1,9.8-21.9,21.9-21.9C93.1,158.3,102.9,168.1,102.9,180.3
		C102.9,180.2,102.9,180.3,102.9,180.3L102.9,180.3z"/>
	<path style="clip-path:url(#SVGID_00000109008987682634168050000011516524325625150593_);fill:#026196;" d="M152.1,175.5
		c0,24.2-40.7,43.8-76.3,43.8c-32.6,0-49.8-16.4-52.4-37.8l0.3,0.3c7.6,14.4,24.5,24.2,51.4,24.2c31,0,65.5-13.1,77-31.2
		C152,175.1,152,175.3,152.1,175.5L152.1,175.5z"/>
	<path style="clip-path:url(#SVGID_00000109008987682634168050000011516524325625150593_);fill:#EA4F3D;" d="M152.1,175.5
		c0,14-13.7,26.6-32.2,34.6v-69.2C138.4,148.9,152.1,161.5,152.1,175.5L152.1,175.5z"/>
	<path style="clip-path:url(#SVGID_00000109008987682634168050000011516524325625150593_);fill:#EA4F3D;" d="M34.9,205.5
		c-8-7.8-11.9-18.4-11.9-29.9s3.9-22.1,11.9-30L34.9,205.5z"/>
	<path style="clip-path:url(#SVGID_00000109008987682634168050000011516524325625150593_);fill:#DF1F1D;" d="M152.1,175.5
		c0,14-13.7,26.6-32.2,34.6v-12.4c14.4-5.6,26.3-13.5,32.2-22.7C152.1,175.1,152.1,175.3,152.1,175.5L152.1,175.5z"/>
	<path style="clip-path:url(#SVGID_00000109008987682634168050000011516524325625150593_);fill:#F39673;" d="M149.2,171.8
		c-6.9-7-17.3-13.1-29.3-17.5v-6C133.4,154.2,144.3,162.4,149.2,171.8L149.2,171.8z"/>
	<path style="clip-path:url(#SVGID_00000109008987682634168050000011516524325625150593_);fill:#DF1F1D;" d="M34.9,205.5
		c-6.5-6.4-10.6-14.8-11.6-23.9l0.3,0.3c2.7,5.2,6.6,9.6,11.3,13.1V205.5z"/>
	<path style="clip-path:url(#SVGID_00000109008987682634168050000011516524325625150593_);fill:#1A1A1A;" d="M81.6,132.6
		c-1.9-0.1-3.9-0.2-5.8-0.2c-17.7,0-30.7,4.9-39.2,12.6s-12.8,18.5-12.8,30.4s4.2,22.6,12.8,30.4s21.6,12.6,39.2,12.6
		c1.9,0,3.9-0.1,5.8-0.2v1.6c-1.9,0.1-3.9,0.2-5.8,0.2c-18,0-31.4-4.9-40.3-13s-13.3-19.3-13.3-31.6s4.4-23.6,13.3-31.7
		s22.3-13,40.3-13c1.9,0,3.9,0.1,5.8,0.2L81.6,132.6z"/>
	<path style="clip-path:url(#SVGID_00000109008987682634168050000011516524325625150593_);fill:#F39673;" d="M34.9,156.4
		c-2.6,1.7-5,3.8-7.1,6.1c1.9-3.5,4.3-6.8,7.1-9.6V156.4z"/>
	
		<rect x="34.1" y="145.6" style="clip-path:url(#SVGID_00000109008987682634168050000011516524325625150593_);fill:#1A1A1A;" width="1.6" height="59.9"/>
	
		<rect x="119.1" y="140.9" style="clip-path:url(#SVGID_00000109008987682634168050000011516524325625150593_);fill:#1A1A1A;" width="1.6" height="69.2"/>
	<path style="clip-path:url(#SVGID_00000109008987682634168050000011516524325625150593_);fill:#BDBDBD;" d="M102.2,175.5
		c0,11.7-9.5,21.2-21.2,21.2c-11.7,0-21.2-9.5-21.2-21.2c0-11.7,9.5-21.2,21.2-21.2C92.7,154.3,102.2,163.8,102.2,175.5L102.2,175.5
		z"/>
	<path style="clip-path:url(#SVGID_00000109008987682634168050000011516524325625150593_);fill:#9C9C9C;" d="M102.2,175.5
		c0,11.7-9.5,21.2-21.2,21.2s-21.2-9.5-21.2-21.2c0-0.8,0.1-1.6,0.2-2.5c11.5,11.6,30.3,11.7,41.9,0.1c0,0,0.1-0.1,0.1-0.1
		C102.1,173.9,102.2,174.7,102.2,175.5L102.2,175.5z"/>
	<path style="clip-path:url(#SVGID_00000109008987682634168050000011516524325625150593_);fill:#A3DAF4;" d="M94.5,175.5
		c0,7.4-6,13.4-13.5,13.4c-7.4,0-13.4-6-13.4-13.5s6-13.4,13.5-13.4c3.6,0,7,1.4,9.5,3.9C93,168.5,94.5,171.9,94.5,175.5L94.5,175.5
		z"/>
	<path style="clip-path:url(#SVGID_00000109008987682634168050000011516524325625150593_);fill:#1A1A1A;" d="M62,133.1
		c-11.9-18.7-37.2-16.9-41.6-16.5c3,2.9,13.1,13.6,15.3,28.8l-1.6,0.2c-2.5-17-16-29.1-16-29.1l-1.3-1.1l1.7-0.2
		c0,0,31.2-4.4,44.8,17.1L62,133.1z"/>
	<path style="clip-path:url(#SVGID_00000109008987682634168050000011516524325625150593_);fill:#1A1A1A;" d="M63.3,218.8
		c-13.7,21.5-44.8,17.1-44.8,17.1l-1.7-0.2l1.3-1.1c0,0,13.6-12.1,16-29.1l1.6,0.2c-2.2,15.2-12.3,25.9-15.2,28.8
		c4.4,0.4,29.7,2.2,41.6-16.5L63.3,218.8L63.3,218.8z"/>
	<path style="clip-path:url(#SVGID_00000109008987682634168050000011516524325625150593_);fill:#1A1A1A;" d="M81.6,155.1H81
		c-11.3,0-20.4,9.1-20.4,20.4c0,11.3,9.1,20.4,20.4,20.4h0.6v1.6H81c-12.1-0.6-21.5-11-20.8-23.1c0.6-11.2,9.6-20.2,20.8-20.8h0.6
		L81.6,155.1z"/>
	<path style="clip-path:url(#SVGID_00000109008987682634168050000011516524325625150593_);fill:#1A1A1A;" d="M81.6,162.9H81
		c-7,0.2-12.5,6-12.3,13c0.2,6.7,5.6,12.1,12.3,12.3h0.6v1.6H81c-7.9-0.2-14.1-6.8-13.9-14.6c0.2-7.6,6.3-13.7,13.9-13.9h0.6
		L81.6,162.9z"/>
	<path style="clip-path:url(#SVGID_00000109008987682634168050000011516524325625150593_);fill:#FFFFFF;" d="M91.1,173.3
		c-4.9-5.5-13.4-6.1-18.9-1.2c-0.4,0.4-0.8,0.8-1.2,1.2c1.2-5.5,6.7-9,12.3-7.8C87.1,166.3,90.2,169.4,91.1,173.3z"/>
	<path style="clip-path:url(#SVGID_00000109008987682634168050000011516524325625150593_);fill:#1A1A1A;" d="M95.2,175.5
		c0,7.9-6.4,14.2-14.2,14.2h-0.6v-1.6H81c7,0.2,12.8-5.3,13-12.3s-5.3-12.8-12.3-13c-0.2,0-0.5,0-0.7,0h-0.6v-1.6H81
		C88.9,161.3,95.2,167.6,95.2,175.5L95.2,175.5z"/>
	<path style="clip-path:url(#SVGID_00000109008987682634168050000011516524325625150593_);fill:#1A1A1A;" d="M103,175.5
		c0,12.2-9.8,22-22,22h-0.6v-1.6H81c11.3,0,20.4-9.1,20.4-20.4c0-11.3-9.1-20.4-20.4-20.4c0,0,0,0,0,0h-0.6v-1.6H81
		C93.2,153.5,103,163.4,103,175.5L103,175.5z"/>
	<path style="clip-path:url(#SVGID_00000109008987682634168050000011516524325625150593_);fill:#1A1A1A;" d="M152.9,175.5
		c0,12.5-10.4,23.7-25.2,31.7c-14.6,7.7-30.7,12-47.2,12.8v-1.6c16.3-0.8,33.2-5.5,46.5-12.6c14.5-7.9,24.4-18.6,24.4-30.3
		s-9.9-22.4-24.4-30.3c-13.2-7.2-30.2-11.9-46.5-12.6V131c16.5,0.8,32.6,5.2,47.2,12.8C142.4,151.8,152.9,163,152.9,175.5
		L152.9,175.5z"/>
	<path style="clip-path:url(#SVGID_00000109008987682634168050000011516524325625150593_);fill:#1A1A1A;" d="M108.9,11.2
		c-1.6,0.1-3.1,0.5-4.5,1.2c-1.1,0.6-2.3,0.9-3.5,1c-1.2-0.1-2.4-0.4-3.5-1c-4.1-2.2-9.1-1.3-12.1,2.1c-0.8,0.9-1.8,1.7-2.9,2.2
		c-1.2,0.3-2.4,0.4-3.6,0.2c-2.2-0.2-4.4,0.2-6.4,1.2c-1.9,1.2-3.4,2.9-4.3,4.9c-0.5,1.1-1.1,2.2-2,3c-1,0.7-2.2,1.2-3.4,1.4
		c-2.2,0.5-4.1,1.7-5.6,3.3c-1.4,1.8-2.2,3.9-2.3,6.1c0,1.2-0.3,2.4-0.8,3.6c-0.7,1-1.6,1.8-2.7,2.5c-1.8,1.2-3.3,3-4.1,5.1
		c-0.7,2.1-0.7,4.4-0.1,6.5c0.4,1.2,0.5,2.4,0.4,3.6c-0.3,1.2-0.9,2.3-1.7,3.2c-1.3,1.8-2.1,3.9-2.1,6.2c0.1,2.2,0.8,4.4,2.1,6.2
		c0.8,1,1.3,2.1,1.7,3.3c0.1,1.2-0.1,2.5-0.5,3.6c-1.4,4.4,0.3,9.2,4.2,11.6c1,0.7,1.9,1.5,2.7,2.5c0.5,1.1,0.8,2.3,0.8,3.6
		c0.1,4.6,3.4,8.5,7.9,9.4c1.2,0.3,2.3,0.8,3.4,1.4c0.9,0.9,1.5,1.9,2,3.1c1.7,4.3,6.1,6.8,10.7,6.2c1.2-0.2,2.5-0.1,3.6,0.2
		c1.1,0.5,2.1,1.3,2.9,2.2c3.1,3.4,8.1,4.3,12.2,2.2c1.1-0.6,2.3-0.9,3.5-1.1c1.2,0.1,2.4,0.5,3.5,1.1c4.1,2.2,9.1,1.3,12.2-2.2
		c0.8-0.9,1.8-1.6,2.9-2.2c1.2-0.3,2.4-0.4,3.6-0.2c4.6,0.6,9-1.9,10.7-6.2c0.5-1.1,1.1-2.2,2-3.1c1-0.7,2.2-1.2,3.4-1.4
		c4.5-0.9,7.8-4.9,7.9-9.4c0-1.2,0.3-2.4,0.8-3.6c0.7-1,1.6-1.8,2.7-2.5c3.9-2.4,5.7-7.2,4.2-11.6c-0.4-1.2-0.5-2.4-0.4-3.6
		c0.4-1.2,0.9-2.3,1.7-3.3c1.3-1.8,2.1-3.9,2.1-6.2c-0.1-2.2-0.8-4.4-2.1-6.2c-0.8-1-1.3-2.1-1.6-3.2c-0.1-1.2,0.1-2.5,0.4-3.6
		c0.6-2.1,0.6-4.4-0.1-6.5c-0.8-2.1-2.3-3.8-4.1-5.1c-1-0.7-1.9-1.5-2.7-2.5c-0.5-1.1-0.8-2.3-0.9-3.6c-0.2-2.2-1-4.3-2.3-6.1
		c-1.5-1.6-3.4-2.8-5.6-3.3c-1.2-0.3-2.3-0.8-3.4-1.4c-0.9-0.9-1.5-1.9-2-3c-0.9-2-2.4-3.8-4.3-4.9c-2-1-4.2-1.5-6.4-1.2
		c-1.2,0.2-2.5,0.1-3.6-0.2c-1.1-0.5-2.1-1.3-2.9-2.2c-1.5-1.6-3.5-2.7-5.7-3.2C110.1,11.2,109.5,11.2,108.9,11.2L108.9,11.2z
		 M109.7,17.6c1,0.3,1.9,0.8,2.5,1.6c1.4,1.5,3.1,2.7,5,3.5c2,0.6,4.1,0.8,6.1,0.6c1-0.2,2.1,0,3,0.4c0.8,0.6,1.5,1.4,1.8,2.4
		c0.8,1.9,2,3.6,3.6,5c1.6,1.3,3.5,2.2,5.5,2.6c1,0.2,1.9,0.7,2.6,1.4c0.6,0.8,0.9,1.8,0.9,2.8c0.1,2.1,0.7,4.1,1.6,5.9
		c1.1,1.7,2.6,3.2,4.3,4.4c1.2,0.9,1.7,1.4,2,2.2c0.3,1,0.2,2-0.1,3c-0.6,2-0.8,4.1-0.5,6.1c0.4,2,1.3,3.9,2.6,5.6
		c0.7,0.8,1.1,1.7,1.1,2.8c-0.1,1-0.5,2-1.1,2.7c-1.2,1.6-2.1,3.5-2.5,5.5c-0.3,2-0.1,4.1,0.5,6.1c0.3,1,0.4,2,0.1,3
		c-0.3,0.8-0.8,1.3-2,2.2c-1.7,1.1-3.2,2.6-4.3,4.4c-1,1.8-1.5,3.8-1.6,5.9c0,1-0.3,2-0.9,2.8c-0.7,0.7-1.6,1.2-2.6,1.4
		c-4.2,0.8-7.6,3.7-9.1,7.6c-0.7,1.3-1.1,1.9-1.8,2.3c-0.9,0.4-2,0.6-3,0.4c-4.2-0.7-8.4,0.9-11.2,4.1c-1.2,1.8-3.6,2.2-5.4,1
		c0,0,0,0,0,0c-1.8-0.9-3.9-1.5-5.9-1.6c-2,0.1-4,0.6-5.8,1.5c-0.9,0.5-1.9,0.7-2.9,0.6c-1-0.3-1.9-0.8-2.5-1.6
		c-1.4-1.5-3.1-2.7-5.1-3.5c-2-0.6-4-0.8-6.1-0.6c-1,0.2-2.1,0.1-3-0.4c-0.7-0.4-1.1-1-1.8-2.3c-0.8-1.9-2-3.6-3.6-5
		c-1.6-1.3-3.5-2.2-5.5-2.6c-2.1-0.2-3.7-2.1-3.5-4.2c-0.1-2.1-0.7-4.1-1.6-5.9c-1.1-1.7-2.6-3.2-4.3-4.4c-1.2-0.9-1.7-1.4-2-2.2
		c-0.3-1-0.2-2,0.1-3c0.6-2,0.8-4,0.5-6.1c-0.4-2-1.3-3.9-2.6-5.6c-0.6-0.8-1-1.7-1.1-2.7c0.1-1,0.5-2,1.1-2.8
		c1.2-1.7,2.1-3.6,2.6-5.6c0.3-2,0.1-4.1-0.5-6.1c-0.4-1-0.4-2-0.1-3c0.3-0.8,0.8-1.3,2-2.2c1.7-1.1,3.2-2.6,4.3-4.4
		c1-1.8,1.5-3.8,1.6-5.9c0-1,0.3-2,0.9-2.8c0.7-0.7,1.6-1.2,2.6-1.4c2-0.5,3.9-1.4,5.5-2.6c1.5-1.4,2.7-3.1,3.6-5
		c0.4-0.9,1-1.8,1.8-2.4c0.9-0.4,2-0.6,3-0.4c2.1,0.2,4.1,0.1,6.1-0.6c1.9-0.8,3.6-2,5.1-3.5c1.2-1.8,3.6-2.2,5.4-1c0,0,0,0,0,0
		c1.8,0.9,3.9,1.5,5.9,1.5c2.1-0.1,4.1-0.6,5.9-1.5C107.7,17.7,108.8,17.5,109.7,17.6L109.7,17.6z"/>
	<path style="clip-path:url(#SVGID_00000109008987682634168050000011516524325625150593_);fill:#1A1A1A;" d="M109,13.6
		c-1.3,0.1-2.5,0.4-3.7,1c-1.4,0.7-2.9,1.1-4.4,1.2c-1.5-0.1-3-0.5-4.4-1.2c-3.2-1.8-7.2-1.1-9.6,1.7c-1,1.1-2.3,2-3.7,2.7
		c-1.5,0.4-3,0.5-4.6,0.3c-1.8-0.2-3.5,0.1-5.1,0.9c-1.5,1-2.7,2.4-3.3,4c-0.6,1.4-1.5,2.7-2.6,3.8c-1.2,0.9-2.7,1.5-4.2,1.9
		c-1.7,0.4-3.3,1.3-4.5,2.6c-1.1,1.4-1.7,3.1-1.8,4.9c-0.1,1.5-0.4,3-1.1,4.4c-0.9,1.3-2,2.4-3.3,3.2c-1.5,1-2.6,2.4-3.3,4
		c-0.5,1.7-0.5,3.5,0,5.2c0.5,1.5,0.6,3,0.5,4.6c-0.4,1.5-1.1,2.9-2,4.1c-1.1,1.4-1.7,3.1-1.8,4.9c0.1,1.8,0.7,3.5,1.8,4.9
		c0.9,1.2,1.6,2.6,2,4.1c0.2,1.5,0,3.1-0.5,4.6c-1.2,3.5,0.2,7.3,3.3,9.2c1.3,0.8,2.4,1.9,3.3,3.1c0.7,1.4,1.1,2.9,1.1,4.4
		c0,3.7,2.7,6.8,6.3,7.5c1.5,0.3,2.9,1,4.2,1.9c1.1,1.1,2,2.4,2.6,3.8c1.3,3.5,4.8,5.5,8.5,4.9c1.5-0.2,3.1-0.1,4.6,0.3
		c1.4,0.6,2.7,1.5,3.7,2.7c1.2,1.3,2.8,2.2,4.5,2.6c1.8,0.2,3.5-0.1,5.1-0.9c1.4-0.7,2.9-1.1,4.4-1.2c1.5,0.1,3,0.5,4.4,1.2
		c3.2,1.8,7.2,1.1,9.6-1.7c1-1.1,2.3-2,3.7-2.7c1.5-0.4,3-0.5,4.6-0.3c3.6,0.6,7.2-1.4,8.5-4.9c0.6-1.4,1.5-2.7,2.6-3.8
		c1.2-0.9,2.7-1.5,4.2-1.9c3.6-0.7,6.3-3.8,6.3-7.5c0.1-1.5,0.5-3.1,1.1-4.4c0.9-1.3,2-2.4,3.3-3.2c3.2-1.9,4.6-5.7,3.3-9.2
		c-0.5-1.5-0.6-3-0.5-4.6c0.4-1.5,1.1-2.9,2-4.1c1.1-1.4,1.7-3.1,1.8-4.9c-0.1-1.8-0.7-3.5-1.8-4.9c-0.9-1.2-1.6-2.6-2-4.1
		c-0.2-1.5,0-3.1,0.5-4.6c0.5-1.7,0.5-3.5,0-5.2c-0.7-1.6-1.8-3-3.3-4c-1.3-0.8-2.4-1.9-3.3-3.2c-0.7-1.4-1.1-2.9-1.1-4.4
		c-0.1-1.8-0.7-3.5-1.8-4.9c-1.2-1.3-2.8-2.2-4.5-2.6c-1.5-0.3-3-0.9-4.2-1.8c-1.1-1.1-2-2.4-2.6-3.8c-0.7-1.6-1.9-3-3.4-4
		c-1.6-0.8-3.4-1.1-5.1-0.9c-1.5,0.2-3.1,0.1-4.6-0.3c-1.4-0.6-2.7-1.5-3.7-2.7c-1.2-1.3-2.8-2.2-4.5-2.6
		C109.9,13.6,109.5,13.6,109,13.6L109,13.6z M109,15.2c0.4,0,0.7,0,1.1,0.1c1.4,0.3,2.7,1.1,3.7,2.2c1.2,1.3,2.6,2.3,4.2,3
		c1.7,0.5,3.4,0.7,5.2,0.4c1.5-0.2,2.9,0,4.2,0.7c1.2,0.8,2.2,2,2.7,3.3c0.7,1.6,1.7,3.1,3,4.3c1.4,1.1,3,1.8,4.7,2.2
		c1.4,0.3,2.7,1,3.8,2.1c0.9,1.2,1.4,2.6,1.4,4.1c0.1,1.7,0.5,3.4,1.3,5c1,1.5,2.2,2.7,3.7,3.7c1.2,0.8,2.2,1.9,2.8,3.3
		c0.4,1.4,0.4,2.9-0.1,4.3c-0.5,1.7-0.7,3.4-0.5,5.2c0.4,1.7,1.2,3.3,2.2,4.7c0.9,1.2,1.4,2.5,1.5,4c-0.1,1.5-0.6,2.8-1.5,4
		c-1.1,1.4-1.8,3-2.2,4.7c-0.2,1.7,0,3.5,0.5,5.2c0.5,1.4,0.5,2.9,0.1,4.3c-0.6,1.3-1.6,2.5-2.8,3.3c-1.5,0.9-2.7,2.2-3.7,3.7
		c-0.8,1.6-1.2,3.3-1.3,5c0.1,3.1-2.1,5.7-5.2,6.2c-3.5,0.6-6.5,3.1-7.7,6.4c-1,2.9-4,4.6-7,4c-1.7-0.2-3.5-0.1-5.2,0.4
		c-1.6,0.7-3.1,1.7-4.2,3c-1.9,2.4-5.3,3-7.9,1.4c-1.6-0.8-3.3-1.3-5-1.4c-1.7,0.1-3.4,0.6-5,1.4c-2.6,1.6-6,1-7.9-1.4
		c-1.2-1.3-2.6-2.3-4.2-3c-1.7-0.5-3.4-0.6-5.2-0.4c-3,0.6-6-1.1-7-4c-0.7-1.6-1.7-3.1-3-4.3c-1.4-1-3-1.7-4.7-2.1
		c-1.4-0.3-2.7-1-3.8-2.1c-0.9-1.2-1.4-2.6-1.4-4.1c-0.1-1.7-0.5-3.4-1.3-5c-1-1.5-2.2-2.7-3.7-3.7c-2.7-1.5-3.9-4.7-2.8-7.6
		c0.5-1.7,0.7-3.4,0.5-5.2c-0.4-1.7-1.2-3.3-2.2-4.7c-0.9-1.2-1.4-2.5-1.5-4c0.1-1.5,0.6-2.8,1.5-4c1.1-1.4,1.8-3,2.2-4.7
		c0.2-1.7,0-3.5-0.5-5.2c-0.4-1.4-0.4-2.9,0-4.3c0.6-1.3,1.6-2.5,2.8-3.3c1.5-0.9,2.7-2.2,3.7-3.7c0.8-1.6,1.2-3.3,1.3-5
		c0.1-1.5,0.6-2.9,1.4-4.1c1-1.1,2.3-1.8,3.8-2.1c1.7-0.4,3.3-1.1,4.7-2.2c1.3-1.2,2.3-2.7,3-4.3c0.6-1.4,1.5-2.5,2.7-3.3
		c1.3-0.7,2.8-0.9,4.2-0.7c1.7,0.2,3.5,0.1,5.2-0.4c1.6-0.7,3.1-1.7,4.2-3c1.9-2.4,5.2-3,7.9-1.5c1.6,0.8,3.3,1.3,5,1.4
		c1.7-0.1,3.4-0.6,5-1.4C106.9,15.5,107.9,15.2,109,15.2L109,15.2z"/>
	<path style="clip-path:url(#SVGID_00000109008987682634168050000011516524325625150593_);fill:#EAB170;" d="M115.2,92.8
		c-0.1-0.8,0.5-1.5,1.3-1.6c0.8-0.1,1.5,0.5,1.6,1.3c0,0.1,0,0.2,0,0.2c0,0.8-0.7,1.5-1.5,1.5C115.9,94.3,115.2,93.6,115.2,92.8
		C115.2,92.8,115.2,92.8,115.2,92.8z"/>
	<path style="clip-path:url(#SVGID_00000109008987682634168050000011516524325625150593_);fill:#1A1A1A;" d="M126,48.1
		c4.5,0,8.1,3.6,8.1,8.1c0,0,0,0,0,0v4.1c0,4.5-3.6,8.1-8.1,8.1c-4.5,0-8.1-3.6-8.1-8.1v-4.1C117.8,51.7,121.5,48.1,126,48.1
		C126,48.1,126,48.1,126,48.1z"/>
	<path style="clip-path:url(#SVGID_00000109008987682634168050000011516524325625150593_);fill:#FFFFFF;" d="M123.9,51.3
		c-1.5,0-2.6,1.2-2.6,2.6s1.2,2.6,2.6,2.6c1.5,0,2.6-1.2,2.6-2.6c0,0,0,0,0,0C126.6,52.4,125.4,51.3,123.9,51.3z"/>
	<path style="clip-path:url(#SVGID_00000109008987682634168050000011516524325625150593_);fill:#1A1A1A;" d="M92.4,48.1
		c4.5,0,8.1,3.6,8.1,8.1c0,0,0,0,0,0v4.1c0,4.5-3.6,8.1-8.1,8.1c-4.5,0-8.1-3.6-8.1-8.1v-4.1C84.3,51.7,87.9,48.1,92.4,48.1
		C92.4,48.1,92.4,48.1,92.4,48.1z"/>
	<path style="clip-path:url(#SVGID_00000109008987682634168050000011516524325625150593_);fill:#FFFFFF;" d="M90.3,51.3
		c-1.5,0-2.6,1.2-2.6,2.7s1.2,2.6,2.7,2.6c1.4,0,2.6-1.2,2.6-2.6C93,52.5,91.8,51.3,90.3,51.3L90.3,51.3z"/>
	<path style="clip-path:url(#SVGID_00000109008987682634168050000011516524325625150593_);fill:#FFFFFF;" d="M91,73
		c-2.1,0-3.8,1.7-3.8,3.8c0,0,0,0,0,0v4.3c-0.3,12.2,9.4,22.3,21.6,22.6s22.3-9.4,22.6-21.6c0-0.3,0-0.6,0-0.9v-4.3
		c0-2.1-1.7-3.8-3.8-3.8c0,0-0.1,0-0.1,0H91z"/>
	<path style="clip-path:url(#SVGID_00000109008987682634168050000011516524325625150593_);fill:#BADBE9;" d="M91,73
		c-2.1,0-3.8,1.7-3.8,3.8c0,0,0,0,0,0v4.3c0,10.3,7.2,19.3,17.2,21.6c0,0-4.1-8.4,0.6-15.8c-3.8-6.7,0-13.9,0-13.9L91,73L91,73z"/>
	<path style="clip-path:url(#SVGID_00000109008987682634168050000011516524325625150593_);fill:#1A1A1A;" d="M91,73
		c-2.1,0-3.8,1.7-3.8,3.8c0,0,0,0,0,0v4.3c0,5.9,2.4,11.6,6.6,15.8c0,0-4.6-9.1,0.3-13.7c-4.3-5.3,0-10.2,0-10.2L91,73L91,73z"/>
	<path style="clip-path:url(#SVGID_00000109008987682634168050000011516524325625150593_);fill:#1A1A1A;" d="M127.5,73
		c2.1,0,3.8,1.7,3.8,3.8c0,0,0,0,0,0v4.3c0,5.9-2.4,11.6-6.6,15.8c0,0,4.6-9.1-0.3-13.7c4.3-5.3,0-10.2,0-10.2L127.5,73L127.5,73z"
		/>
	<path style="clip-path:url(#SVGID_00000109008987682634168050000011516524325625150593_);fill:#1A1A1A;" d="M91,72.2
		c-2.5,0-4.6,2.1-4.6,4.6v4.3c0,12.6,10.2,22.8,22.8,22.9h0.6v-1.6h-0.6c-11.8,0-21.3-9.5-21.3-21.3c0,0,0,0,0,0v-4.3
		c0-1.7,1.3-3,3-3h18.9v-1.6H91z"/>
	<path style="clip-path:url(#SVGID_00000109008987682634168050000011516524325625150593_);fill:#1A1A1A;" d="M108.7,72.2v1.6h18.8
		c1.7,0,3,1.3,3,3v0v4.3c0,11.8-9.5,21.3-21.3,21.3c0,0,0,0,0,0h-0.6v1.6h0.6c12.6,0,22.9-10.3,22.9-22.9v-4.3
		c0-2.5-2.1-4.6-4.6-4.6H108.7z"/>
	<path style="clip-path:url(#SVGID_00000109008987682634168050000011516524325625150593_);fill:#1A1A1A;" d="M205.3,86.2L205.3,86.2
		c-12.7,0.1-24.1,7.7-29,19.4c-11.1,1.3-19,11.3-17.7,22.4c1.2,10.2,9.9,17.9,20.2,17.8l0,0c3-0.1,5.9-0.8,8.5-2.1
		c5.3,3.7,11.6,5.7,18,5.8h0.6v-6.3h-0.6c-5.7,0-11.3-1.9-15.7-5.5l-1.7-1.4l-1.9,1.1c-6.6,4-15.1,1.9-19.1-4.7
		c-4-6.6-1.9-15.1,4.7-19.1c2.1-1.3,4.5-2,7-2h2.2l0.7-2.1c3.5-10.2,13.1-17,23.9-17l0,0h0.6v-6.4L205.3,86.2L205.3,86.2z"/>
	<path style="clip-path:url(#SVGID_00000109008987682634168050000011516524325625150593_);fill:#FFFFFF;" d="M205.2,89.4
		c-12.1,0-22.9,7.7-26.9,19.2c-9.4,0.2-17,7.9-16.8,17.4c0.2,9.4,7.9,17,17.4,16.8c3-0.1,6-0.9,8.6-2.5c10.4,8.2,25,8.2,35.4,0
		c8,4.9,18.6,2.4,23.5-5.6c4.9-8,2.4-18.6-5.6-23.5c-2.6-1.6-5.6-2.5-8.6-2.5C228.2,97.1,217.4,89.4,205.2,89.4L205.2,89.4z"/>
	<path style="clip-path:url(#SVGID_00000109008987682634168050000011516524325625150593_);fill:#C0E4EF;" d="M165.6,114.6
		c-6.1,7.2-5.2,18,2.1,24.1c5.6,4.7,13.7,5.3,19.9,1.5c10.4,8.2,25,8.2,35.4,0c8,4.9,18.5,2.4,23.5-5.6c3.8-6.3,3.2-14.3-1.5-19.9
		c-5.4,6.5-14.8,8-22,3.6c-10.3,8.2-25,8.2-35.4,0C180.4,122.7,171,121.2,165.6,114.6L165.6,114.6z"/>
	<path style="clip-path:url(#SVGID_00000109008987682634168050000011516524325625150593_);fill:#91D1DD;" d="M162.3,120.6
		c-0.5,1.6-0.7,3.3-0.8,5c0,9.4,7.6,17.1,17,17.1c3.2,0,6.3-0.9,9-2.5c10.4,8.2,25,8.2,35.4,0c8.1,4.9,18.6,2.4,23.5-5.7
		c1.6-2.7,2.5-5.8,2.5-8.9c0-1.7-0.3-3.3-0.8-4.9c-2.7,9-12.3,14.1-21.3,11.4c-1.4-0.4-2.7-1-4-1.8c-10.4,8.2-25,8.2-35.4,0
		c-8,4.9-18.5,2.4-23.4-5.6C163.4,123.5,162.8,122.1,162.3,120.6L162.3,120.6z"/>
	<path style="clip-path:url(#SVGID_00000109008987682634168050000011516524325625150593_);fill:#1A1A1A;" d="M205.3,88.6
		c-12.3,0-23.2,7.7-27.4,19.2c-9.9,0.4-17.5,8.7-17.1,18.5c0.4,9.9,8.7,17.5,18.5,17.1c2.9-0.1,5.7-0.9,8.2-2.4
		c5.1,3.9,11.3,6,17.8,6.1h0.6v-1.6h-0.6c-6.2,0-12.3-2.1-17.2-6l-0.4-0.3l-0.5,0.3c-7.7,4.7-17.7,2.2-22.4-5.4s-2.2-17.7,5.4-22.4
		c2.5-1.5,5.3-2.3,8.2-2.4h0.6l0.2-0.5c3.9-11.1,14.4-18.6,26.1-18.6h0.6v-1.6L205.3,88.6L205.3,88.6z"/>
	<g style="clip-path:url(#SVGID_00000109008987682634168050000011516524325625150593_);enable-background:new    ;">
		<text transform="matrix(1 0 0 1 9.58 266.85)" class="st20 st21 st22">nienuklearny</text>
	</g>
	<path style="clip-path:url(#SVGID_00000109008987682634168050000011516524325625150593_);fill:#298BCC;" d="M45,0H16H0v16
		c0,7,0,14,0,21c10.3,12.3,28.7,14,41,3.7c6.7-5.5,10.5-13.8,10.5-22.4C51.5,11.6,49.2,5.2,45,0z"/>
	<g style="clip-path:url(#SVGID_00000109008987682634168050000011516524325625150593_);enable-background:new    ;">
		<text transform="matrix(1 0 0 1 15.57 31.75)" class="st20 st21 st23">03</text>
	</g>
</g>
</svg>
