<?xml version="1.0" encoding="utf-8"?>
<!-- Generator: Adobe Illustrator 26.0.1, SVG Export Plug-In . SVG Version: 6.00 Build 0)  -->
<svg version="1.1" id="Слой_1" xmlns="http://www.w3.org/2000/svg" xmlns:xlink="http://www.w3.org/1999/xlink" x="0px" y="0px"
	 viewBox="0 0 195.6 280.6" style="enable-background:new 0 0 195.6 280.6;" xml:space="preserve">
<style type="text/css">
	.st0{clip-path:url(#SVGID_00000049223692160734615370000004120130611425000867_);fill:#EB5A53;}
	.st1{clip-path:url(#SVGID_00000088128699478092895940000015483739781790373029_);fill:#FFFFFF;}
	.st2{clip-path:url(#SVGID_00000100364369795353097090000011375118852761569174_);fill:#FFFFFF;}
	.st3{clip-path:url(#SVGID_00000085232152881464350020000013208079804095696818_);fill:#FFFFFF;}
	.st4{clip-path:url(#SVGID_00000030473674239079762750000016434786690864537219_);fill:#FFFFFF;}
	.st5{clip-path:url(#SVGID_00000044146374255001049730000018370116089385323649_);fill:#FFFFFF;}
	.st6{clip-path:url(#SVGID_00000049940579876503764370000001824112508750480813_);fill:#FFFFFF;}
	.st7{clip-path:url(#SVGID_00000161633457349063079400000017964607914461575818_);fill:#FFFFFF;}
	.st8{clip-path:url(#SVGID_00000051379577708309451310000004228846049718835126_);fill:#FFFFFF;}
	.st9{clip-path:url(#SVGID_00000080899215758761318280000012614854342078068411_);fill:#FFFFFF;}
	.st10{clip-path:url(#SVGID_00000071560295464562176070000010608979231202630837_);fill:#FFFFFF;}
	.st11{clip-path:url(#SVGID_00000162328244506942956760000003830347635830130103_);fill:#FFFFFF;}
	.st12{clip-path:url(#SVGID_00000160895649694357998240000009528097413071652247_);fill:#67B54B;}
	.st13{clip-path:url(#SVGID_00000114064884601134134620000003965730805335320200_);fill:#1A1A1A;}
	.st14{clip-path:url(#SVGID_00000177460291960679798390000004774743047501836939_);fill:#1A1A1A;}
	.st15{clip-path:url(#SVGID_00000170990894097611243740000005206370236449258404_);fill:#67B54B;}
	.st16{clip-path:url(#SVGID_00000058575021878024450370000000329318255602256260_);fill:#1A1A1A;}
	.st17{clip-path:url(#SVGID_00000129180176933007425870000016232579728409499818_);fill:#1A1A1A;}
	.st18{clip-path:url(#SVGID_00000034799192934045648360000011937588680216350595_);fill:#67B54B;}
	.st19{clip-path:url(#SVGID_00000060024452962321954190000017234027769641477266_);fill:#1A1A1A;}
	.st20{clip-path:url(#SVGID_00000103232412435455637190000015850118867263688109_);fill:#1A1A1A;}
	.st21{clip-path:url(#SVGID_00000062902356661173744270000008547481012561667262_);fill:#1A1A1A;}
	.st22{clip-path:url(#SVGID_00000159456190276751389380000014035264916086469040_);fill:#88C05C;}
	.st23{clip-path:url(#SVGID_00000054949720120590494550000009572758032133956273_);fill:#67B54B;}
	.st24{clip-path:url(#SVGID_00000044146192156433231380000004165473164264333957_);fill:#67B54B;}
	.st25{clip-path:url(#SVGID_00000089573978658828538630000002081714088698169234_);fill:#FFFFFF;}
	.st26{clip-path:url(#SVGID_00000016753575955402197370000014598245313519526045_);fill:#1A1A1A;}
	.st27{clip-path:url(#SVGID_00000083070239036053197640000015832909142801590934_);fill:#FFFFFF;}
	.st28{clip-path:url(#SVGID_00000035523930724670667420000015971983713736258475_);fill:#FFFFFF;}
	.st29{clip-path:url(#SVGID_00000032619983859901526000000004209341207097797038_);fill:#FFFFFF;}
	.st30{clip-path:url(#SVGID_00000136393319726451348520000000196629784928151432_);fill:#FFFFFF;}
	.st31{clip-path:url(#SVGID_00000140014054336168777330000005439810035154650506_);fill:#FFFFFF;}
	.st32{clip-path:url(#SVGID_00000163779851857718835860000011715320795347968686_);fill:#FFFFFF;}
	.st33{clip-path:url(#SVGID_00000008861393875368258430000010997797329334120843_);fill:#FFFFFF;}
	.st34{clip-path:url(#SVGID_00000111193300433931115740000014986296202864241330_);fill:#FFFFFF;}
	.st35{clip-path:url(#SVGID_00000153676781723156586290000004852840527397977745_);fill:#FFFFFF;}
	.st36{clip-path:url(#SVGID_00000013163419712033157080000004235718318793983122_);fill:#FFFFFF;}
	.st37{clip-path:url(#SVGID_00000044156957239556443880000009098000213104629163_);fill:#1A1A1A;}
	.st38{clip-path:url(#SVGID_00000124153780335858926870000011090913346933823910_);fill:#FFFFFF;}
	.st39{clip-path:url(#SVGID_00000000911497140478816540000002398951439413807505_);fill:#1A1A1A;}
	.st40{clip-path:url(#SVGID_00000103956266343096716380000017928264786176623755_);fill:#FFFFFF;}
	.st41{clip-path:url(#SVGID_00000154405541358208871990000012904576376946147716_);fill:#1A1A1A;}
	.st42{clip-path:url(#SVGID_00000019647326137911821420000002826620720265030040_);fill:#1A1A1A;}
	.st43{clip-path:url(#SVGID_00000155847428419547358310000005307815662340678312_);fill:#1A1A1A;}
	.st44{clip-path:url(#SVGID_00000093173966818051225690000015670595479488330402_);fill:#595959;}
	.st45{clip-path:url(#SVGID_00000072268117285438381100000017933853892247724730_);fill:#797979;}
	.st46{clip-path:url(#SVGID_00000066506745228244977150000006741272550618533055_);fill:#3E3E3E;}
	.st47{clip-path:url(#SVGID_00000087377243702184698690000003589420595354597540_);fill:#1A1A1A;}
	.st48{clip-path:url(#SVGID_00000052803955502319492280000007355733910785506231_);fill:#1A1A1A;}
	.st49{clip-path:url(#SVGID_00000165940986754265862090000007860115811977725348_);fill:#EB5A53;}
	.st50{enable-background:new    ;}
	.st51{fill:#FFFFFF;}
</style>
<g>
	<g>
		<g>
			<defs>
				<rect id="SVGID_1_" width="195.6" height="280.6"/>
			</defs>
			<clipPath id="SVGID_00000018222935591279941600000003513094088335929745_">
				<use xlink:href="#SVGID_1_"  style="overflow:visible;"/>
			</clipPath>
			
				<rect x="-1.5" y="138.7" style="clip-path:url(#SVGID_00000018222935591279941600000003513094088335929745_);fill:#EB5A53;" width="198.7" height="147.3"/>
		</g>
	</g>
	<g>
		<g>
			<defs>
				<rect id="SVGID_00000011003871665715592230000014398413838899316126_" width="195.6" height="280.6"/>
			</defs>
			<clipPath id="SVGID_00000018930542931760543570000011672458680203599293_">
				<use xlink:href="#SVGID_00000011003871665715592230000014398413838899316126_"  style="overflow:visible;"/>
			</clipPath>
			
				<rect x="-1.5" style="clip-path:url(#SVGID_00000018930542931760543570000011672458680203599293_);fill:#FFFFFF;" width="198.7" height="140.3"/>
		</g>
	</g>
	<g>
		<g>
			<defs>
				<rect id="SVGID_00000164511327824341792520000007521938442589133450_" width="195.6" height="280.6"/>
			</defs>
			<clipPath id="SVGID_00000155112886663500988150000006949222808290976916_">
				<use xlink:href="#SVGID_00000164511327824341792520000007521938442589133450_"  style="overflow:visible;"/>
			</clipPath>
			<path style="clip-path:url(#SVGID_00000155112886663500988150000006949222808290976916_);fill:#FFFFFF;" d="M151.6,134.5h-0.2
				h-0.1h-0.1H151h-0.1h-0.1h-0.1h-0.1l-0.1,0.1l-0.1,0.1l-0.1,0.1l-0.1,0.1l-0.1,0.1l-0.1,0.1l-0.1,0.1l-0.1,0.1l-0.1,0.1l-0.1,0.1
				c0,0,0,0.1-0.1,0.1l-0.1,0.1l-0.1,0.1v0.1v0.1c0,0,0,0.1-0.1,0.1l0,0l0,0v0.1v0.1v0.1v0.1v0.3v0.1v0.1v0.1v0.1v0.1v0.1v0.1v0.1
				v0.1l0.1,0.1l0.1,0.1l0.1,0.1l0.1,0.1l0.1,0.1l0.1,0.1l0.1,0.1l0.1,0.1l0.1,0.1l0.1,0.1l0.1,0.1l0.1,0.1h0.1h0.1h0.1l0,0l0,0h0.1
				h0.1h0.1h0.5h0.1h0.1h0.1h0.1h0.1h0.1h0.1h0.1l0.1-0.1l0.1-0.1l0.1-0.1l0.1-0.1l0.1-0.1l0.1-0.1l0.1-0.1l0.1-0.1l0.1-0.1
				c0,0,0-0.1,0.1-0.1l0.1-0.1v-0.1v-0.1v-0.1v-0.1V137v-0.1v-0.1v-0.1v-0.1v-0.3v-0.1v-0.1V136v-0.1v-0.1v-0.1v-0.1v-0.1l-0.1-0.1
				c0,0,0-0.1-0.1-0.1l-0.1-0.1l-0.1-0.1c0,0,0-0.1-0.1-0.1l-0.1-0.1l-0.1-0.1l0.1,0.2l-0.1-0.1l-0.1-0.1l-0.1-0.1l-0.1-0.1h-0.1
				h-0.1h-0.1H152l0,0h-0.1h0.1h-0.1h-0.1L151.6,134.5L151.6,134.5z"/>
		</g>
	</g>
	<g>
		<g>
			<defs>
				<rect id="SVGID_00000145750164242511009250000004456563831119521689_" width="195.6" height="280.6"/>
			</defs>
			<clipPath id="SVGID_00000117665655751024542030000008417866374806620802_">
				<use xlink:href="#SVGID_00000145750164242511009250000004456563831119521689_"  style="overflow:visible;"/>
			</clipPath>
			<path style="clip-path:url(#SVGID_00000117665655751024542030000008417866374806620802_);fill:#FFFFFF;" d="M151.6,134.5h-0.1
				h-0.1h-0.1h-0.1H151h-0.1h-0.1h-0.1h-0.1l-0.1,0.1l-0.1,0.1l-0.1,0.1l-0.1,0.1l-0.1,0.1l-0.1,0.1l-0.1,0.1l-0.1,0.1l-0.1,0.1
				l-0.1,0.1c0,0,0,0.1-0.1,0.1l-0.1,0.1l-0.1,0.1v0.1v0.1c0,0,0,0.1-0.1,0.1l0,0v0.1v0.1v0.1v0.1v0.3v0.1v0.1v0.1v0.1v0.1
				c0,0,3991.2-1596.3,0.1,0.2v0.1v0.1l0.1,0.1l0.1,0.1l0.1,0.1l0.1,0.1l0.1,0.1l0.1,0.1c0,0,8297.6-9482.9,0.2,0.1l0.1,0.1l0.1,0.1
				l0.1,0.1l0.1,0.1h0.1h0.1l0.1,0.1l0,0l0,0h0.1h0.1h0.1h0.1h0.4h0.1h0.1h0.1h0.1h0.1h0.1h0.1h0.1l0.1-0.1l0.1-0.1l0.1-0.1l0.1-0.1
				l0.1-0.1l0.1-0.1l0.1-0.1l0.1-0.1l0.1-0.1c0,0,0-0.1,0.1-0.1l0.1-0.1v-0.1v-0.1v-0.1v-0.1V137v-0.1v-0.1v-0.1v-0.1v-0.3v-0.1
				v-0.1V136v-0.1v-0.1v-0.1v-0.1v-0.1l-0.1-0.1c0,0,0-0.1-0.1-0.1l-0.1-0.1l-0.1-0.1c0,0,0-0.1-0.1-0.1l0,0l-0.1-0.1l0.1,0.1
				l-0.1-0.1l-0.1-0.1l-0.1-0.1l-0.1-0.1h-0.1h-0.1h-0.1h-0.1l0,0h-0.1H152h-0.1h-0.1L151.6,134.5L151.6,134.5z"/>
		</g>
	</g>
	<g>
		<g>
			<defs>
				<rect id="SVGID_00000058566508665034480970000003085384645257292193_" width="195.6" height="280.6"/>
			</defs>
			<clipPath id="SVGID_00000143615760188076419240000005171879313634793893_">
				<use xlink:href="#SVGID_00000058566508665034480970000003085384645257292193_"  style="overflow:visible;"/>
			</clipPath>
			<path style="clip-path:url(#SVGID_00000143615760188076419240000005171879313634793893_);fill:#FFFFFF;" d="M151.6,134.5h-0.1
				h-0.1h-0.1h-0.1H151h-0.1h-0.1h-0.1h-0.1l-0.1,0.1l-0.1,0.1l-0.1,0.1l-0.1,0.1l-0.1,0.1l-0.1,0.1l-0.1,0.1l-0.1,0.1l-0.1,0.1
				l-0.1,0.1c0,0,0,0.1-0.1,0.1l-0.1,0.1l-0.1,0.1v0.1v0.1c0,0,0,0.1-0.1,0.1l0,0v0.1v0.1v0.1v0.1v0.3v0.1v0.1v0.1v0.1v0.1
				c0,0,3991.2-1596.3,0.1,0.2v0.1v0.1l0.1,0.1l0.1,0.1l0.1,0.1l0.1,0.1l0.1,0.1l0.1,0.1c0,0,8297.6-9482.9,0.2,0.1l0.1,0.1l0.1,0.1
				l0.1,0.1l0.1,0.1h0.1h0.1l0.1,0.1l0,0l0,0h0.1h0.1h0.1h0.1h0.4h0.1h0.1h0.1h0.1h0.1h0.1h0.1h0.1l0.1-0.1l0.1-0.1l0.1-0.1l0.1-0.1
				l0.1-0.1l0.1-0.1l0.1-0.1l0.1-0.1l0.1-0.1c0,0,0-0.1,0.1-0.1l0.1-0.1v-0.1v-0.1v-0.1v-0.1V137v-0.1v-0.1v-0.1v-0.1v-0.3v-0.1
				v-0.1V136v-0.1v-0.1v-0.1v-0.1v-0.1l-0.1-0.1c0,0,0-0.1-0.1-0.1l-0.1-0.1l-0.1-0.1c0,0,0-0.1-0.1-0.1l0,0l-0.1-0.1l0.1,0.1
				l-0.1-0.1l-0.1-0.1l-0.1-0.1l-0.1-0.1h-0.1h-0.1h-0.1h-0.1l0,0h-0.1H152h-0.1h-0.1L151.6,134.5L151.6,134.5z"/>
		</g>
	</g>
	<g>
		<g>
			<defs>
				<rect id="SVGID_00000108991457368126815700000005055330192346702764_" width="195.6" height="280.6"/>
			</defs>
			<clipPath id="SVGID_00000153677463841633392840000009106195534581313188_">
				<use xlink:href="#SVGID_00000108991457368126815700000005055330192346702764_"  style="overflow:visible;"/>
			</clipPath>
			<path style="clip-path:url(#SVGID_00000153677463841633392840000009106195534581313188_);fill:#FFFFFF;" d="M151.6,134.5h-0.1
				h-0.1h-0.1h-0.1H151h-0.1h-0.1h-0.1h-0.1l-0.1,0.1l-0.1,0.1l-0.1,0.1l-0.1,0.1l-0.1,0.1l-0.1,0.1l-0.1,0.1l-0.1,0.1l-0.1,0.1
				l-0.1,0.1c0,0,0,0.1-0.1,0.1l-0.1,0.1l-0.1,0.1v0.1v0.1c0,0,0,0.1-0.1,0.1l0,0v0.1v0.1v0.1v0.1v0.3v0.1v0.1v0.1v0.1v0.1
				c0,0,3991.2-1596.3,0.1,0.2v0.1v0.1l0.1,0.1l0.1,0.1l0.1,0.1l0.1,0.1l0.1,0.1l0.1,0.1c0,0,8297.6-9482.9,0.2,0.1l0.1,0.1l0.1,0.1
				l0.1,0.1l0.1,0.1h0.1h0.1l0.1,0.1l0,0l0,0h0.1h0.1h0.1h0.1h0.4h0.1h0.1h0.1h0.1h0.1h0.1h0.1h0.1l0.1-0.1l0.1-0.1l0.1-0.1l0.1-0.1
				l0.1-0.1l0.1-0.1l0.1-0.1l0.1-0.1l0.1-0.1c0,0,0-0.1,0.1-0.1l0.1-0.1v-0.1v-0.1v-0.1v-0.1V137v-0.1v-0.1v-0.1v-0.1v-0.3v-0.1
				v-0.1V136v-0.1v-0.1v-0.1v-0.1v-0.1l-0.1-0.1c0,0,0-0.1-0.1-0.1l-0.1-0.1l-0.1-0.1c0,0,0-0.1-0.1-0.1l0,0l-0.1-0.1l0.1,0.1
				l-0.1-0.1l-0.1-0.1l-0.1-0.1l-0.1-0.1h-0.1h-0.1h-0.1h-0.1l0,0h-0.1H152h-0.1h-0.1L151.6,134.5L151.6,134.5z"/>
		</g>
	</g>
	<g>
		<g>
			<defs>
				<rect id="SVGID_00000124856943886150553770000010382344081984769464_" width="195.6" height="280.6"/>
			</defs>
			<clipPath id="SVGID_00000168831030263721635450000016227673998657750706_">
				<use xlink:href="#SVGID_00000124856943886150553770000010382344081984769464_"  style="overflow:visible;"/>
			</clipPath>
			<path style="clip-path:url(#SVGID_00000168831030263721635450000016227673998657750706_);fill:#FFFFFF;" d="M151.6,134.5h-0.1
				h-0.1h-0.1h-0.1H151h-0.1h-0.1h-0.1h-0.1l-0.1,0.1l-0.1,0.1l-0.1,0.1l-0.1,0.1l-0.1,0.1l-0.1,0.1l-0.1,0.1l-0.1,0.1l-0.1,0.1
				l-0.1,0.1c0,0,0,0.1-0.1,0.1l-0.1,0.1l-0.1,0.1v0.1v0.1c0,0,0,0.1-0.1,0.1l0,0v0.1v0.1v0.1v0.1v0.3v0.1v0.1v0.1v0.1v0.1
				c0,0,3991.2-1596.3,0.1,0.2v0.1v0.1l0.1,0.1l0.1,0.1l0.1,0.1l0.1,0.1l0.1,0.1l0.1,0.1c0,0,8297.6-9482.9,0.2,0.1l0.1,0.1l0.1,0.1
				l0.1,0.1l0.1,0.1h0.1h0.1l0.1,0.1l0,0l0,0h0.1h0.1h0.1h0.1h0.4h0.1h0.1h0.1h0.1h0.1h0.1h0.1h0.1l0.1-0.1l0.1-0.1l0.1-0.1l0.1-0.1
				l0.1-0.1l0.1-0.1l0.1-0.1l0.1-0.1l0.1-0.1c0,0,0-0.1,0.1-0.1l0.1-0.1v-0.1v-0.1v-0.1v-0.1V137v-0.1v-0.1v-0.1v-0.1v-0.3v-0.1
				v-0.1V136v-0.1v-0.1v-0.1v-0.1v-0.1l-0.1-0.1c0,0,0-0.1-0.1-0.1l-0.1-0.1l-0.1-0.1c0,0,0-0.1-0.1-0.1l0,0l-0.1-0.1l0.1,0.1
				l-0.1-0.1l-0.1-0.1l-0.1-0.1l-0.1-0.1h-0.1h-0.1h-0.1h-0.1l0,0h-0.1H152h-0.1h-0.1L151.6,134.5L151.6,134.5z"/>
		</g>
	</g>
	<g>
		<g>
			<defs>
				<rect id="SVGID_00000109731137139869296990000017537600338667636096_" width="195.6" height="280.6"/>
			</defs>
			<clipPath id="SVGID_00000065056575749769746840000005948417565674144939_">
				<use xlink:href="#SVGID_00000109731137139869296990000017537600338667636096_"  style="overflow:visible;"/>
			</clipPath>
			<path style="clip-path:url(#SVGID_00000065056575749769746840000005948417565674144939_);fill:#FFFFFF;" d="M151.6,134.5h-0.1
				h-0.1h-0.1h-0.1H151h-0.1h-0.1h-0.1h-0.1l-0.1,0.1l-0.1,0.1l-0.1,0.1l-0.1,0.1l-0.1,0.1l-0.1,0.1l-0.1,0.1l-0.1,0.1l-0.1,0.1
				l-0.1,0.1c0,0,0,0.1-0.1,0.1l-0.1,0.1l-0.1,0.1v0.1v0.1c0,0,0,0.1-0.1,0.1l0,0v0.1v0.1v0.1v0.1v0.3v0.1v0.1v0.1v0.1v0.1
				c0,0,3991.2-1596.3,0.1,0.2v0.1v0.1l0.1,0.1l0.1,0.1l0.1,0.1l0.1,0.1l0.1,0.1l0.1,0.1c0,0,8297.6-9482.9,0.2,0.1l0.1,0.1l0.1,0.1
				l0.1,0.1l0.1,0.1h0.1h0.1l0.1,0.1l0,0l0,0h0.1h0.1h0.1h0.1h0.4h0.1h0.1h0.1h0.1h0.1h0.1h0.1h0.1l0.1-0.1l0.1-0.1l0.1-0.1l0.1-0.1
				l0.1-0.1l0.1-0.1l0.1-0.1l0.1-0.1l0.1-0.1c0,0,0-0.1,0.1-0.1l0.1-0.1v-0.1v-0.1v-0.1v-0.1V137v-0.1v-0.1v-0.1v-0.1v-0.3v-0.1
				v-0.1V136v-0.1v-0.1v-0.1v-0.1v-0.1l-0.1-0.1c0,0,0-0.1-0.1-0.1l-0.1-0.1l-0.1-0.1c0,0,0-0.1-0.1-0.1l0,0l-0.1-0.1l0.1,0.1
				l-0.1-0.1l-0.1-0.1l-0.1-0.1l-0.1-0.1h-0.1h-0.1h-0.1h-0.1l0,0h-0.1H152h-0.1h-0.1L151.6,134.5L151.6,134.5z"/>
		</g>
	</g>
	<g>
		<g>
			<defs>
				<rect id="SVGID_00000176727425471539600030000009617811189627190924_" width="195.6" height="280.6"/>
			</defs>
			<clipPath id="SVGID_00000087380340798369786450000011062912870969187978_">
				<use xlink:href="#SVGID_00000176727425471539600030000009617811189627190924_"  style="overflow:visible;"/>
			</clipPath>
			<path style="clip-path:url(#SVGID_00000087380340798369786450000011062912870969187978_);fill:#FFFFFF;" d="M151.6,134.5h-0.1
				h-0.1h-0.1h-0.1H151h-0.1h-0.1h-0.1h-0.1l-0.1,0.1l-0.1,0.1l-0.1,0.1l-0.1,0.1l-0.1,0.1l-0.1,0.1l-0.1,0.1l-0.1,0.1l-0.1,0.1
				l-0.1,0.1c0,0,0,0.1-0.1,0.1l-0.1,0.1l-0.1,0.1v0.1v0.1c0,0,0,0.1-0.1,0.1l0,0v0.1v0.1v0.1v0.1v0.3v0.1v0.1v0.1v0.1v0.1
				c0,0,3991.2-1596.3,0.1,0.2v0.1v0.1l0.1,0.1l0.1,0.1l0.1,0.1l0.1,0.1l0.1,0.1l0.1,0.1c0,0,8297.6-9482.9,0.2,0.1l0.1,0.1l0.1,0.1
				l0.1,0.1l0.1,0.1h0.1h0.1l0.1,0.1l0,0l0,0h0.1h0.1h0.1h0.1h0.4h0.1h0.1h0.1h0.1h0.1h0.1h0.1h0.1l0.1-0.1l0.1-0.1l0.1-0.1l0.1-0.1
				l0.1-0.1l0.1-0.1l0.1-0.1l0.1-0.1l0.1-0.1c0,0,0-0.1,0.1-0.1l0.1-0.1v-0.1v-0.1v-0.1v-0.1V137v-0.1v-0.1v-0.1v-0.1v-0.3v-0.1
				v-0.1V136v-0.1v-0.1v-0.1v-0.1v-0.1l-0.1-0.1c0,0,0-0.1-0.1-0.1l-0.1-0.1l-0.1-0.1c0,0,0-0.1-0.1-0.1l0,0l-0.1-0.1l0.1,0.1
				l-0.1-0.1l-0.1-0.1l-0.1-0.1l-0.1-0.1h-0.1h-0.1h-0.1h-0.1l0,0h-0.1H152h-0.1h-0.1L151.6,134.5L151.6,134.5z"/>
		</g>
	</g>
	<g>
		<g>
			<defs>
				<rect id="SVGID_00000035516094127245288400000013346175251986347445_" width="195.6" height="280.6"/>
			</defs>
			<clipPath id="SVGID_00000080204439780487762500000016014132770482771848_">
				<use xlink:href="#SVGID_00000035516094127245288400000013346175251986347445_"  style="overflow:visible;"/>
			</clipPath>
			<path style="clip-path:url(#SVGID_00000080204439780487762500000016014132770482771848_);fill:#FFFFFF;" d="M151.6,134.5h-0.1
				h-0.1h-0.1h-0.1H151h-0.1h-0.1h-0.1h-0.1l-0.1,0.1l-0.1,0.1l-0.1,0.1l-0.1,0.1l-0.1,0.1l-0.1,0.1l-0.1,0.1l-0.1,0.1l-0.1,0.1
				l-0.1,0.1c0,0,0,0.1-0.1,0.1l-0.1,0.1l-0.1,0.1v0.1v0.1c0,0,0,0.1-0.1,0.1l0,0v0.1v0.1v0.1v0.1v0.3v0.1v0.1v0.1v0.1v0.1
				c0,0,3991.2-1596.3,0.1,0.2v0.1v0.1l0.1,0.1l0.1,0.1l0.1,0.1l0.1,0.1l0.1,0.1l0.1,0.1c0,0,8297.6-9482.9,0.2,0.1l0.1,0.1l0.1,0.1
				l0.1,0.1l0.1,0.1h0.1h0.1l0.1,0.1l0,0l0,0h0.1h0.1h0.1h0.1h0.4h0.1h0.1h0.1h0.1h0.1h0.1h0.1h0.1l0.1-0.1l0.1-0.1l0.1-0.1l0.1-0.1
				l0.1-0.1l0.1-0.1l0.1-0.1l0.1-0.1l0.1-0.1c0,0,0-0.1,0.1-0.1l0.1-0.1v-0.1v-0.1v-0.1v-0.1V137v-0.1v-0.1v-0.1v-0.1v-0.3v-0.1
				v-0.1V136v-0.1v-0.1v-0.1v-0.1v-0.1l-0.1-0.1c0,0,0-0.1-0.1-0.1l-0.1-0.1l-0.1-0.1c0,0,0-0.1-0.1-0.1l0,0l-0.1-0.1l0.1,0.1
				l-0.1-0.1l-0.1-0.1l-0.1-0.1l-0.1-0.1h-0.1h-0.1h-0.1h-0.1l0,0h-0.1H152h-0.1h-0.1L151.6,134.5L151.6,134.5z"/>
		</g>
	</g>
	<g>
		<g>
			<defs>
				<rect id="SVGID_00000047025491508039938450000012060532249264652202_" width="195.6" height="280.6"/>
			</defs>
			<clipPath id="SVGID_00000147904059079937756470000000748591131108127891_">
				<use xlink:href="#SVGID_00000047025491508039938450000012060532249264652202_"  style="overflow:visible;"/>
			</clipPath>
			<path style="clip-path:url(#SVGID_00000147904059079937756470000000748591131108127891_);fill:#FFFFFF;" d="M151.6,134.5h-0.1
				h-0.1h-0.1h-0.1H151h-0.1h-0.1h-0.1h-0.1l-0.1,0.1l-0.1,0.1l-0.1,0.1l-0.1,0.1l-0.1,0.1l-0.1,0.1l-0.1,0.1l-0.1,0.1l-0.1,0.1
				l-0.1,0.1c0,0,0,0.1-0.1,0.1l-0.1,0.1l-0.1,0.1v0.1v0.1c0,0,0,0.1-0.1,0.1l0,0v0.1v0.1v0.1v0.1v0.3v0.1v0.1v0.1v0.1v0.1
				c0,0,3991.2-1596.3,0.1,0.2v0.1v0.1l0.1,0.1l0.1,0.1l0.1,0.1l0.1,0.1l0.1,0.1l0.1,0.1c0,0,8297.6-9482.9,0.2,0.1l0.1,0.1l0.1,0.1
				l0.1,0.1l0.1,0.1h0.1h0.1l0.1,0.1l0,0l0,0h0.1h0.1h0.1h0.1h0.4h0.1h0.1h0.1h0.1h0.1h0.1h0.1h0.1l0.1-0.1l0.1-0.1l0.1-0.1l0.1-0.1
				l0.1-0.1l0.1-0.1l0.1-0.1l0.1-0.1l0.1-0.1c0,0,0-0.1,0.1-0.1l0.1-0.1v-0.1v-0.1v-0.1v-0.1V137v-0.1v-0.1v-0.1v-0.1v-0.3v-0.1
				v-0.1V136v-0.1v-0.1v-0.1v-0.1v-0.1l-0.1-0.1c0,0,0-0.1-0.1-0.1l-0.1-0.1l-0.1-0.1c0,0,0-0.1-0.1-0.1l0,0l-0.1-0.1l0.1,0.1
				l-0.1-0.1l-0.1-0.1l-0.1-0.1l-0.1-0.1h-0.1h-0.1h-0.1h-0.1l0,0h-0.1H152h-0.1h-0.1L151.6,134.5L151.6,134.5z"/>
		</g>
	</g>
	<g>
		<g>
			<defs>
				<rect id="SVGID_00000167368539096100309080000012125686397138351282_" width="195.6" height="280.6"/>
			</defs>
			<clipPath id="SVGID_00000171705766939795979200000004702777463426321283_">
				<use xlink:href="#SVGID_00000167368539096100309080000012125686397138351282_"  style="overflow:visible;"/>
			</clipPath>
			<path style="clip-path:url(#SVGID_00000171705766939795979200000004702777463426321283_);fill:#FFFFFF;" d="M151.6,134.5h-0.1
				h-0.1h-0.1h-0.1H151h-0.1h-0.1h-0.1h-0.1l-0.1,0.1l-0.1,0.1l-0.1,0.1l-0.1,0.1l-0.1,0.1l-0.1,0.1l-0.1,0.1l-0.1,0.1l-0.1,0.1
				l-0.1,0.1c0,0,0,0.1-0.1,0.1l-0.1,0.1l-0.1,0.1v0.1v0.1c0,0,0,0.1-0.1,0.1l0,0v0.1v0.1v0.1v0.1v0.3v0.1v0.1v0.1v0.1v0.1
				c0,0,3991.2-1596.3,0.1,0.2v0.1v0.1l0.1,0.1l0.1,0.1l0.1,0.1l0.1,0.1l0.1,0.1l0.1,0.1c0,0,8297.6-9482.9,0.2,0.1l0.1,0.1l0.1,0.1
				l0.1,0.1l0.1,0.1h0.1h0.1l0.1,0.1l0,0l0,0h0.1h0.1h0.1h0.1h0.4h0.1h0.1h0.1h0.1h0.1h0.1h0.1h0.1l0.1-0.1l0.1-0.1l0.1-0.1l0.1-0.1
				l0.1-0.1l0.1-0.1l0.1-0.1l0.1-0.1l0.1-0.1c0,0,0-0.1,0.1-0.1l0.1-0.1v-0.1v-0.1v-0.1v-0.1V137v-0.1v-0.1v-0.1v-0.1v-0.3v-0.1
				v-0.1V136v-0.1v-0.1v-0.1v-0.1v-0.1l-0.1-0.1c0,0,0-0.1-0.1-0.1l-0.1-0.1l-0.1-0.1c0,0,0-0.1-0.1-0.1l0,0l-0.1-0.1l0.1,0.1
				l-0.1-0.1l-0.1-0.1l-0.1-0.1l-0.1-0.1h-0.1h-0.1h-0.1h-0.1l0,0h-0.1H152h-0.1h-0.1L151.6,134.5L151.6,134.5z"/>
		</g>
	</g>
	<g>
		<g>
			<defs>
				<rect id="SVGID_00000143586119468269835370000004157308639573286047_" width="195.6" height="280.6"/>
			</defs>
			<clipPath id="SVGID_00000154405909422202259050000003017449460549662392_">
				<use xlink:href="#SVGID_00000143586119468269835370000004157308639573286047_"  style="overflow:visible;"/>
			</clipPath>
			<path style="clip-path:url(#SVGID_00000154405909422202259050000003017449460549662392_);fill:#67B54B;" d="M168.1,207.2
				c3.5-13.1,10-14.2,14-13.1s9,5.2,5.5,18.3s-12.9,30.6-18.3,29.1S164.6,220.3,168.1,207.2z"/>
		</g>
	</g>
	<g>
		<g>
			<defs>
				<rect id="SVGID_00000098937353536163250610000012261964898695149237_" width="195.6" height="280.6"/>
			</defs>
			<clipPath id="SVGID_00000081605721390167109910000001110585307171082926_">
				<use xlink:href="#SVGID_00000098937353536163250610000012261964898695149237_"  style="overflow:visible;"/>
			</clipPath>
			<path style="clip-path:url(#SVGID_00000081605721390167109910000001110585307171082926_);fill:#1A1A1A;" d="M182.6,218.8
				c-1.6,4.2-3.5,8.3-5.8,12.2c-1.3,2.3-2.9,4.5-4.7,6.4c-0.5,0.6-1.2,1-1.9,1.3c-0.5-0.6-0.8-1.4-1-2.1c-0.6-2.6-0.9-5.3-0.9-7.9
				c0-4.5,0.4-9,1.1-13.4l-5.5-1.5c-0.8,5-1.3,10-1.2,15c0,3.2,0.3,6.3,1.1,9.4c0.8,2.7,2,5.3,4.9,6.1s5.3-0.9,7.3-2.8
				c2.2-2.3,4.1-4.8,5.7-7.6c2.5-4.3,4.7-8.9,6.4-13.6L182.6,218.8z"/>
		</g>
	</g>
	<g>
		<g>
			<defs>
				<rect id="SVGID_00000013898100729853252980000013794537003538370238_" width="195.6" height="280.6"/>
			</defs>
			<clipPath id="SVGID_00000120549419451982363680000015536415924690374041_">
				<use xlink:href="#SVGID_00000013898100729853252980000013794537003538370238_"  style="overflow:visible;"/>
			</clipPath>
			<path style="clip-path:url(#SVGID_00000120549419451982363680000015536415924690374041_);fill:#1A1A1A;" d="M182.8,191.4
				c-3.3-0.9-6.7-0.3-9.5,1.6c-3.3,2.3-6.1,6.5-7.9,13.4c-0.8,2.9-1.4,5.9-1.8,8.9l5.5,1.5c0.4-3,1-6,1.8-8.9
				c1.6-6.1,3.9-9,5.7-10.3c2.7-1.8,6.3-1.2,8.1,1.5c0.2,0.3,0.3,0.5,0.5,0.8c1,2,1.4,5.6-0.2,11.8c-0.8,2.9-1.8,5.8-2.9,8.6
				l5.5,1.5c1.1-2.8,2.1-5.7,2.9-8.6c1.9-6.9,1.6-12-0.1-15.6C188.8,194.5,186.1,192.2,182.8,191.4L182.8,191.4z"/>
		</g>
	</g>
	<g>
		<g>
			<defs>
				<rect id="SVGID_00000129190809312875561630000007657372493461960889_" width="195.6" height="280.6"/>
			</defs>
			<clipPath id="SVGID_00000034790727414666962440000002423102504938634654_">
				<use xlink:href="#SVGID_00000129190809312875561630000007657372493461960889_"  style="overflow:visible;"/>
			</clipPath>
			<path style="clip-path:url(#SVGID_00000034790727414666962440000002423102504938634654_);fill:#67B54B;" d="M115.5,212.4
				c-3.5-13.1,1.6-17.3,5.5-18.3s10.5,0,14,13.1s4.1,32.9-1.3,34.3S119.1,225.5,115.5,212.4L115.5,212.4z"/>
		</g>
	</g>
	<g>
		<g>
			<defs>
				<rect id="SVGID_00000124131461674920490700000009295482714832489622_" width="195.6" height="280.6"/>
			</defs>
			<clipPath id="SVGID_00000181770973459184757980000003738052503267695526_">
				<use xlink:href="#SVGID_00000124131461674920490700000009295482714832489622_"  style="overflow:visible;"/>
			</clipPath>
			<path style="clip-path:url(#SVGID_00000181770973459184757980000003738052503267695526_);fill:#1A1A1A;" d="M133.9,215.2
				c0.7,4.4,1.1,8.9,1.1,13.4c0,2.7-0.3,5.3-0.9,7.9c-0.2,0.8-0.5,1.5-1,2.1c-0.7-0.3-1.4-0.8-1.9-1.4c-1.8-1.9-3.4-4.1-4.7-6.4
				c-2.3-3.9-4.2-8-5.8-12.2l-5.5,1.5c1.7,4.7,3.9,9.2,6.4,13.6c1.6,2.8,3.5,5.3,5.7,7.6c2,1.9,4.4,3.6,7.3,2.8s4.2-3.4,5-6.1
				c0.8-3.1,1.1-6.2,1.1-9.4c0-5-0.4-10-1.2-15L133.9,215.2z"/>
		</g>
	</g>
	<g>
		<g>
			<defs>
				<rect id="SVGID_00000123436001821532674910000015344087400180623256_" width="195.6" height="280.6"/>
			</defs>
			<clipPath id="SVGID_00000080918112461945592280000010117970519316917922_">
				<use xlink:href="#SVGID_00000123436001821532674910000015344087400180623256_"  style="overflow:visible;"/>
			</clipPath>
			<path style="clip-path:url(#SVGID_00000080918112461945592280000010117970519316917922_);fill:#1A1A1A;" d="M120.3,191.4
				c-3.3,0.9-6,3.1-7.4,6.2c-1.7,3.6-2,8.7-0.1,15.6c0.8,2.9,1.8,5.8,2.9,8.6l5.5-1.5c-1.1-2.8-2.1-5.7-2.9-8.6
				c-1.7-6.1-1.2-9.8-0.2-11.8c1.4-2.9,4.9-4.2,7.8-2.8c0.3,0.1,0.6,0.3,0.8,0.5c1.8,1.3,4,4.1,5.7,10.3c0.8,2.9,1.4,5.9,1.8,8.9
				l5.5-1.5c-0.4-3-1-6-1.8-8.9c-1.9-6.9-4.6-11.2-7.9-13.4C127.1,191.1,123.6,190.5,120.3,191.4L120.3,191.4z"/>
		</g>
	</g>
	<g>
		<g>
			<defs>
				<rect id="SVGID_00000052070509080768763510000001211455149855413399_" width="195.6" height="280.6"/>
			</defs>
			<clipPath id="SVGID_00000157285602805725790520000015257437977229338792_">
				<use xlink:href="#SVGID_00000052070509080768763510000001211455149855413399_"  style="overflow:visible;"/>
			</clipPath>
			<path style="clip-path:url(#SVGID_00000157285602805725790520000015257437977229338792_);fill:#67B54B;" d="M68,137.1
				c3.5-13.1,10-14.2,14-13.1s9.1,5.2,5.6,18.3s-12.9,30.6-18.3,29.1S64.5,150.2,68,137.1z"/>
		</g>
	</g>
	<g>
		<g>
			<defs>
				<rect id="SVGID_00000034079300689264462400000006409068743410349718_" width="195.6" height="280.6"/>
			</defs>
			<clipPath id="SVGID_00000080901193445943791650000009404647993183557796_">
				<use xlink:href="#SVGID_00000034079300689264462400000006409068743410349718_"  style="overflow:visible;"/>
			</clipPath>
			<path style="clip-path:url(#SVGID_00000080901193445943791650000009404647993183557796_);fill:#1A1A1A;" d="M82.5,148.7
				c-1.6,4.2-3.5,8.3-5.8,12.2c-1.3,2.3-2.9,4.5-4.7,6.4c-0.6,0.6-1.2,1-2,1.3c-0.5-0.6-0.8-1.4-1-2.1c-0.6-2.6-0.9-5.3-0.9-7.9
				c0-4.5,0.3-9,1.1-13.4l-5.5-1.5c-0.8,5-1.3,10-1.2,15c0,3.2,0.3,6.3,1.1,9.4c0.8,2.7,2,5.3,4.9,6.1s5.3-0.9,7.3-2.8
				c2.2-2.3,4.1-4.8,5.7-7.6c2.6-4.3,4.7-8.9,6.5-13.6L82.5,148.7z"/>
		</g>
	</g>
	<g>
		<g>
			<defs>
				<rect id="SVGID_00000023263314481232906600000011132514838334083211_" width="195.6" height="280.6"/>
			</defs>
			<clipPath id="SVGID_00000106130760335913251790000006572178826383111840_">
				<use xlink:href="#SVGID_00000023263314481232906600000011132514838334083211_"  style="overflow:visible;"/>
			</clipPath>
			<path style="clip-path:url(#SVGID_00000106130760335913251790000006572178826383111840_);fill:#1A1A1A;" d="M82.7,121.3
				c-3.3-0.9-6.7-0.3-9.5,1.6c-3.3,2.3-6,6.5-7.9,13.5c-0.8,2.9-1.4,5.9-1.8,8.9l5.5,1.5c0.4-3,1-6,1.8-8.9c1.7-6.1,3.9-9,5.7-10.3
				c2.7-1.8,6.3-1.2,8.1,1.5c0.2,0.3,0.3,0.5,0.5,0.8c0.9,2,1.4,5.6-0.2,11.8c-0.8,2.9-1.8,5.8-2.9,8.6l5.5,1.5
				c1.1-2.8,2.1-5.7,2.9-8.6c1.9-7,1.6-12-0.1-15.6C88.7,124.4,86,122.1,82.7,121.3L82.7,121.3z"/>
		</g>
	</g>
	<g>
		<g>
			<defs>
				<rect id="SVGID_00000049219782455434911090000011260017803445696388_" width="195.6" height="280.6"/>
			</defs>
			<clipPath id="SVGID_00000000938529955992686440000016452819885154132401_">
				<use xlink:href="#SVGID_00000049219782455434911090000011260017803445696388_"  style="overflow:visible;"/>
			</clipPath>
			<path style="clip-path:url(#SVGID_00000000938529955992686440000016452819885154132401_);fill:#1A1A1A;" d="M100.3,217
				c-12.8,0-23.1-10.4-23.2-23.2V63.4c0-12.8,10.4-23.1,23.2-23.2h102.6c12.8,0,23.1,10.4,23.1,23.2v130.5
				c0,12.8-10.4,23.1-23.1,23.1H100.3z M202.9,208c7.7,0.1,14.1-6.1,14.1-13.9c0-0.1,0-0.2,0-0.3V63.4c0.1-7.7-6.1-14.1-13.9-14.1
				c-0.1,0-0.2,0-0.3,0H100.3c-7.7-0.1-14.1,6.1-14.1,13.9c0,0.1,0,0.2,0,0.3V194c-0.1,7.7,6.1,14.1,13.9,14.1c0.1,0,0.2,0,0.3,0
				h102.5L202.9,208L202.9,208z"/>
		</g>
	</g>
	<g>
		<g>
			<defs>
				<rect id="SVGID_00000103242148142648332830000012978109914799855797_" width="195.6" height="280.6"/>
			</defs>
			<clipPath id="SVGID_00000044140572289066462280000010845095240366012575_">
				<use xlink:href="#SVGID_00000103242148142648332830000012978109914799855797_"  style="overflow:visible;"/>
			</clipPath>
			<path style="clip-path:url(#SVGID_00000044140572289066462280000010845095240366012575_);fill:#88C05C;" d="M202.9,212.5
				c10.3,0,18.6-8.3,18.6-18.6v-0.1V63.4c0-10.3-8.3-18.6-18.5-18.6h-0.1H100.3C90,44.7,81.7,53,81.7,63.3v0.1v130.5
				c0,10.3,8.3,18.6,18.5,18.6h0.1H202.9z"/>
		</g>
	</g>
	<g>
		<g>
			<defs>
				<rect id="SVGID_00000036960643487916402070000013518812079947641228_" width="195.6" height="280.6"/>
			</defs>
			<clipPath id="SVGID_00000111159981881629747330000015900346315701378449_">
				<use xlink:href="#SVGID_00000036960643487916402070000013518812079947641228_"  style="overflow:visible;"/>
			</clipPath>
			<path style="clip-path:url(#SVGID_00000111159981881629747330000015900346315701378449_);fill:#67B54B;" d="M100.3,44.7
				C90,44.7,81.7,53,81.7,63.3v0.1v14.9h139.8V63.4c0-10.3-8.3-18.6-18.5-18.6h-0.1H100.3V44.7z M81.7,179v14.9
				c0,10.3,8.3,18.6,18.5,18.6h0.1h102.6c10.3,0,18.6-8.3,18.6-18.6v-0.1V179H81.7z"/>
		</g>
	</g>
	<g>
		<g>
			<defs>
				<rect id="SVGID_00000062170884261307352070000016794779486453580453_" width="195.6" height="280.6"/>
			</defs>
			<clipPath id="SVGID_00000095302464454635543890000012908061214289203082_">
				<use xlink:href="#SVGID_00000062170884261307352070000016794779486453580453_"  style="overflow:visible;"/>
			</clipPath>
			
				<rect x="81.7" y="111.8" style="clip-path:url(#SVGID_00000095302464454635543890000012908061214289203082_);fill:#67B54B;" width="139.8" height="33.6"/>
		</g>
	</g>
	<g>
		<g>
			<defs>
				<rect id="SVGID_00000179606677220490423630000010510285916346246277_" width="195.6" height="280.6"/>
			</defs>
			<clipPath id="SVGID_00000147215506535021097810000008107977848395332241_">
				<use xlink:href="#SVGID_00000179606677220490423630000010510285916346246277_"  style="overflow:visible;"/>
			</clipPath>
			
				<rect x="91" y="127.8" style="clip-path:url(#SVGID_00000147215506535021097810000008107977848395332241_);fill:#FFFFFF;" width="121.2" height="1.7"/>
		</g>
	</g>
	<g>
		<g>
			<defs>
				<rect id="SVGID_00000138536293043307560720000017841925998382702515_" width="195.6" height="280.6"/>
			</defs>
			<clipPath id="SVGID_00000109017210371475809140000007757113879099245447_">
				<use xlink:href="#SVGID_00000138536293043307560720000017841925998382702515_"  style="overflow:visible;"/>
			</clipPath>
			<path style="clip-path:url(#SVGID_00000109017210371475809140000007757113879099245447_);fill:#1A1A1A;" d="M100.3,213.7
				c-10.9,0-19.8-8.8-19.8-19.7l0,0V63.4c0-10.9,8.8-19.8,19.7-19.8l0,0h102.6c10.9,0,19.8,8.8,19.8,19.7l0,0v130.5
				c0,10.9-8.8,19.8-19.7,19.8l0,0L100.3,213.7L100.3,213.7z M202.9,211.4c9.6,0,17.5-7.8,17.5-17.4v-0.1V63.4
				c0-9.6-7.8-17.5-17.4-17.5h-0.1H100.3c-9.6,0-17.5,7.8-17.5,17.4v0.1v130.5c0,9.6,7.8,17.5,17.4,17.5h0.1H202.9z"/>
		</g>
	</g>
	<g>
		<g>
			<defs>
				<rect id="SVGID_00000165912797998280237530000017675149569643413916_" width="195.6" height="280.6"/>
			</defs>
			<clipPath id="SVGID_00000049911123853774995400000011658581642728963490_">
				<use xlink:href="#SVGID_00000165912797998280237530000017675149569643413916_"  style="overflow:visible;"/>
			</clipPath>
			<path style="clip-path:url(#SVGID_00000049911123853774995400000011658581642728963490_);fill:#FFFFFF;" d="M100.3,53.2
				c-5.6,0-10.2,4.6-10.2,10.2v130.5c0,5.6,4.6,10.2,10.2,10.2h102.6c5.6,0,10.1-4.6,10.1-10.2V63.4c0-5.6-4.6-10.2-10.2-10.2H100.3
				z M202.9,54.9c4.7,0,8.5,3.7,8.5,8.4c0,0,0,0,0,0.1v130.5c0,4.7-3.7,8.5-8.4,8.5c0,0,0,0-0.1,0H100.3c-4.7,0-8.5-3.7-8.5-8.4
				c0,0,0,0,0-0.1V63.4c0-4.7,3.7-8.5,8.4-8.5c0,0,0,0,0.1,0H202.9z"/>
		</g>
	</g>
	<g>
		<g>
			<defs>
				<rect id="SVGID_00000047741292021915386460000000260050804361264024_" width="195.6" height="280.6"/>
			</defs>
			<clipPath id="SVGID_00000058551794774984299400000004099993916354029205_">
				<use xlink:href="#SVGID_00000047741292021915386460000000260050804361264024_"  style="overflow:visible;"/>
			</clipPath>
			<path style="clip-path:url(#SVGID_00000058551794774984299400000004099993916354029205_);fill:#FFFFFF;" d="M91,194.7
				c4.7,0,8.5,3.8,8.5,8.5l0,0h1.7c0-5.6-4.5-10.2-10.1-10.2l0,0L91,194.7L91,194.7z"/>
		</g>
	</g>
	<g>
		<g>
			<defs>
				<rect id="SVGID_00000116953028525531831600000018057757008597728955_" width="195.6" height="280.6"/>
			</defs>
			<clipPath id="SVGID_00000029762832783869511220000016129985994404474765_">
				<use xlink:href="#SVGID_00000116953028525531831600000018057757008597728955_"  style="overflow:visible;"/>
			</clipPath>
			<path style="clip-path:url(#SVGID_00000029762832783869511220000016129985994404474765_);fill:#FFFFFF;" d="M99.5,54
				c0,4.7-3.7,8.5-8.4,8.5c0,0,0,0-0.1,0v1.7c5.6,0,10.2-4.6,10.2-10.2C101.2,54,99.5,54,99.5,54z"/>
		</g>
	</g>
	<g>
		<g>
			<defs>
				<rect id="SVGID_00000072265324927400215120000006389081566344845968_" width="195.6" height="280.6"/>
			</defs>
			<clipPath id="SVGID_00000095340738492483955400000011971469599428864662_">
				<use xlink:href="#SVGID_00000072265324927400215120000006389081566344845968_"  style="overflow:visible;"/>
			</clipPath>
			<path style="clip-path:url(#SVGID_00000095340738492483955400000011971469599428864662_);fill:#FFFFFF;" d="M151.6,109.1
				c-10.8,0-19.5,8.7-19.5,19.5s8.7,19.5,19.5,19.5s19.5-8.7,19.5-19.5C171.1,117.9,162.4,109.1,151.6,109.1z M151.6,110.8
				c9.8,0,17.8,8,17.8,17.8s-8,17.8-17.8,17.8s-17.8-8-17.8-17.8S141.7,110.8,151.6,110.8L151.6,110.8z"/>
		</g>
	</g>
	<g>
		<g>
			<defs>
				<rect id="SVGID_00000025425156083840601990000000509448099018836664_" width="195.6" height="280.6"/>
			</defs>
			<clipPath id="SVGID_00000167397983681756991530000013450756754268587399_">
				<use xlink:href="#SVGID_00000025425156083840601990000000509448099018836664_"  style="overflow:visible;"/>
			</clipPath>
			<path style="clip-path:url(#SVGID_00000167397983681756991530000013450756754268587399_);fill:#FFFFFF;" d="M122.8,174.4v29.7
				h57.6v-29.7H122.8z M178.7,202.4h-54.2v-26.3h54.2V202.4z"/>
		</g>
	</g>
	<g>
		<g>
			<defs>
				<rect id="SVGID_00000053511204789932747590000018384166727283770758_" width="195.6" height="280.6"/>
			</defs>
			<clipPath id="SVGID_00000033338427262057992420000001721685924976234636_">
				<use xlink:href="#SVGID_00000053511204789932747590000018384166727283770758_"  style="overflow:visible;"/>
			</clipPath>
			<path style="clip-path:url(#SVGID_00000033338427262057992420000001721685924976234636_);fill:#FFFFFF;" d="M151.6,165.1
				c-7,0-13.4,3.7-16.9,9.7l1.5,0.9c4.9-8.5,15.8-11.4,24.3-6.5c2.7,1.6,5,3.8,6.5,6.5l1.5-0.9C165,168.8,158.6,165.1,151.6,165.1z"
				/>
		</g>
	</g>
	<g>
		<g>
			<defs>
				<rect id="SVGID_00000154415265044379858210000007034812667401407619_" width="195.6" height="280.6"/>
			</defs>
			<clipPath id="SVGID_00000052099393864515278410000005792883588306792624_">
				<use xlink:href="#SVGID_00000154415265044379858210000007034812667401407619_"  style="overflow:visible;"/>
			</clipPath>
			<path style="clip-path:url(#SVGID_00000052099393864515278410000005792883588306792624_);fill:#FFFFFF;" d="M122.8,82.8V53.2
				h57.6v29.7L122.8,82.8L122.8,82.8z M178.7,54.8h-54.2v26.3h54.2V54.8z"/>
		</g>
	</g>
	<g>
		<g>
			<defs>
				<rect id="SVGID_00000062161848677491335650000012274016558369851288_" width="195.6" height="280.6"/>
			</defs>
			<clipPath id="SVGID_00000034797183060863305240000005356325982519281594_">
				<use xlink:href="#SVGID_00000062161848677491335650000012274016558369851288_"  style="overflow:visible;"/>
			</clipPath>
			<path style="clip-path:url(#SVGID_00000034797183060863305240000005356325982519281594_);fill:#FFFFFF;" d="M167,81.6
				c-4.9,8.5-15.8,11.4-24.3,6.5c-2.7-1.6-5-3.8-6.5-6.5l-1.5,0.8c5.4,9.3,17.3,12.5,26.6,7.1c3-1.7,5.4-4.2,7.1-7.1L167,81.6z"/>
		</g>
	</g>
	<g>
		<g>
			<defs>
				<rect id="SVGID_00000005247087658207316540000008108691918112088238_" width="195.6" height="280.6"/>
			</defs>
			<clipPath id="SVGID_00000105415975103022315620000008888996023132469908_">
				<use xlink:href="#SVGID_00000005247087658207316540000008108691918112088238_"  style="overflow:visible;"/>
			</clipPath>
			<path style="clip-path:url(#SVGID_00000105415975103022315620000008888996023132469908_);fill:#FFFFFF;" d="M132.1,193v11h39v-11
				H132.1z M169.4,202.3h-35.6v-7.6h35.6V202.3z"/>
		</g>
	</g>
	<g>
		<g>
			<defs>
				<rect id="SVGID_00000101798571296761222650000017924625633144108183_" width="195.6" height="280.6"/>
			</defs>
			<clipPath id="SVGID_00000079455347912213772420000010505254817674825407_">
				<use xlink:href="#SVGID_00000101798571296761222650000017924625633144108183_"  style="overflow:visible;"/>
			</clipPath>
			<path style="clip-path:url(#SVGID_00000079455347912213772420000010505254817674825407_);fill:#FFFFFF;" d="M132.1,53.2v11h39
				v-11L132.1,53.2z M169.4,62.5h-35.6v-7.6h35.6V62.5z"/>
		</g>
	</g>
	<g>
		<g>
			<defs>
				<rect id="SVGID_00000001641008265838737360000013740772095138075050_" width="195.6" height="280.6"/>
			</defs>
			<clipPath id="SVGID_00000173882692417607329600000017306286359812306877_">
				<use xlink:href="#SVGID_00000001641008265838737360000013740772095138075050_"  style="overflow:visible;"/>
			</clipPath>
			<path style="clip-path:url(#SVGID_00000173882692417607329600000017306286359812306877_);fill:#1A1A1A;" d="M166.5,96.8
				c-1.6,2.1-2.5,4.6-2.5,7.2v5.8c0.2,6.4,5.5,11.5,12,11.3c6.2-0.2,11.1-5.1,11.3-11.3v-4.5L166.5,96.8L166.5,96.8z"/>
		</g>
	</g>
	<g>
		<g>
			<defs>
				<rect id="SVGID_00000067213352942579878380000002581950747059217830_" width="195.6" height="280.6"/>
			</defs>
			<clipPath id="SVGID_00000038386109822230749810000015613757519839799689_">
				<use xlink:href="#SVGID_00000067213352942579878380000002581950747059217830_"  style="overflow:visible;"/>
			</clipPath>
			<path style="clip-path:url(#SVGID_00000038386109822230749810000015613757519839799689_);fill:#FFFFFF;" d="M172.5,105.4
				c-2.1,0-3.7,1.7-3.7,3.8c0,2.1,1.7,3.7,3.8,3.7s3.7-1.7,3.7-3.8c0-1-0.4-1.9-1.1-2.6C174.5,105.8,173.5,105.4,172.5,105.4z"/>
		</g>
	</g>
	<g>
		<g>
			<defs>
				<rect id="SVGID_00000143580785090517793270000011900904167198924933_" width="195.6" height="280.6"/>
			</defs>
			<clipPath id="SVGID_00000021085977392583131410000013404532737234519221_">
				<use xlink:href="#SVGID_00000143580785090517793270000011900904167198924933_"  style="overflow:visible;"/>
			</clipPath>
			<path style="clip-path:url(#SVGID_00000021085977392583131410000013404532737234519221_);fill:#1A1A1A;" d="M116,105.4v4.5
				c0.2,6.4,5.5,11.5,12,11.3c6.2-0.2,11.1-5.1,11.3-11.3V104c0-2.6-0.9-5.2-2.5-7.2L116,105.4z"/>
		</g>
	</g>
	<g>
		<g>
			<defs>
				<rect id="SVGID_00000047031329085193705560000013334393192373908147_" width="195.6" height="280.6"/>
			</defs>
			<clipPath id="SVGID_00000153702119365238946680000003615292387099335048_">
				<use xlink:href="#SVGID_00000047031329085193705560000013334393192373908147_"  style="overflow:visible;"/>
			</clipPath>
			<path style="clip-path:url(#SVGID_00000153702119365238946680000003615292387099335048_);fill:#FFFFFF;" d="M124.6,105.4
				c-2.1,0-3.8,1.7-3.8,3.8s1.7,3.8,3.8,3.8c2.1,0,3.7-1.7,3.8-3.8C128.4,107,126.7,105.4,124.6,105.4z"/>
		</g>
	</g>
	<g>
		<g>
			<defs>
				<rect id="SVGID_00000121265936522327276460000006829356649805143212_" width="195.6" height="280.6"/>
			</defs>
			<clipPath id="SVGID_00000094591072827201811490000013199468765588248725_">
				<use xlink:href="#SVGID_00000121265936522327276460000006829356649805143212_"  style="overflow:visible;"/>
			</clipPath>
			<path style="clip-path:url(#SVGID_00000094591072827201811490000013199468765588248725_);fill:#1A1A1A;" d="M160.3,132.5
				c0-4.8-3.9-8.8-8.8-8.8s-8.8,3.9-8.8,8.8h-2.3c0-6.1,4.9-11,11-11s11,4.9,11,11l0,0H160.3z"/>
		</g>
	</g>
	<g>
		<g>
			<defs>
				<rect id="SVGID_00000135648919934337226800000010614599998675571093_" width="195.6" height="280.6"/>
			</defs>
			<clipPath id="SVGID_00000084526374435579940870000004553994252690950798_">
				<use xlink:href="#SVGID_00000135648919934337226800000010614599998675571093_"  style="overflow:visible;"/>
			</clipPath>
			<path style="clip-path:url(#SVGID_00000084526374435579940870000004553994252690950798_);fill:#1A1A1A;" d="M160.8,13.5
				c-8.5,0.5-16.9,0.6-26.2,1.2c-12.4,0.9-21.3,4.7-27,10.5c-5.3,5.4-8.1,12.7-8,20.3c0,12.7,7.8,22.4,18.5,27.7s24.5,6.7,38.5,4.5
				c1.4-0.2,2.8-0.5,4.2-0.8v-9.2c-1.9,0.4-3.7,0.8-5.6,1.1c-12.5,1.9-24.6,0.4-33.2-3.7s-13.5-10.3-13.5-19.5
				c0-5.2,1.5-10.1,5.3-14s10.4-7.1,21.3-7.9c8.8-0.6,17-0.8,25.6-1.3L160.8,13.5L160.8,13.5z"/>
		</g>
	</g>
	<g>
		<g>
			<defs>
				<rect id="SVGID_00000091008687595625875910000000914935453451155082_" width="195.6" height="280.6"/>
			</defs>
			<clipPath id="SVGID_00000043452098928606021070000005003721387042643870_">
				<use xlink:href="#SVGID_00000091008687595625875910000000914935453451155082_"  style="overflow:visible;"/>
			</clipPath>
			<path style="clip-path:url(#SVGID_00000043452098928606021070000005003721387042643870_);fill:#1A1A1A;" d="M184.9,10.1
				c-8.9,2.1-17.9,3.3-27,3.6v8.9c7.1-0.3,14.1-1.1,21.1-2.3l-2.7,7.2h6.4c8.7-0.1,17.3-1.4,25.6-4c-6.6,26.1-28.4,40.5-50.5,44.8
				v9.2c27.6-4.7,56.3-24.2,61-59.8l1-7.3l-6.9,2.4c-7.7,2.4-15.5,4.1-23.5,5.1l0.7-2L193,8L184.9,10.1z"/>
		</g>
	</g>
	<g>
		<g>
			<defs>
				<rect id="SVGID_00000055698767049291542720000016798920569130400441_" width="195.6" height="280.6"/>
			</defs>
			<clipPath id="SVGID_00000111908105245084118780000006805385364935639719_">
				<use xlink:href="#SVGID_00000055698767049291542720000016798920569130400441_"  style="overflow:visible;"/>
			</clipPath>
			<path style="clip-path:url(#SVGID_00000111908105245084118780000006805385364935639719_);fill:#595959;" d="M186,14.5
				c-18.9,4.6-33.6,3.5-51.1,4.8C111.5,21,104,33.2,104,45.6c0,43.8,101.4,39.7,110.4-28.4c0,0-17.1,6-31.6,5.9L186,14.5z"/>
		</g>
	</g>
	<g>
		<g>
			<defs>
				<rect id="SVGID_00000065784025301212437910000001556150353752508061_" width="195.6" height="280.6"/>
			</defs>
			<clipPath id="SVGID_00000013163576028997121750000016549731928927005334_">
				<use xlink:href="#SVGID_00000065784025301212437910000001556150353752508061_"  style="overflow:visible;"/>
			</clipPath>
			<path style="clip-path:url(#SVGID_00000013163576028997121750000016549731928927005334_);fill:#797979;" d="M186,14.5
				c-18.9,4.6-33.6,3.5-51.1,4.8c-13.3,1-21.4,5.4-26,11.3c12.3,21.4,81.9,17.5,105.6-13.4c0,0-17.1,6-31.6,5.9L186,14.5z"/>
		</g>
	</g>
	<g>
		<g>
			<defs>
				<rect id="SVGID_00000050622356264710739340000016605842963351383940_" width="195.6" height="280.6"/>
			</defs>
			<clipPath id="SVGID_00000159443448235037714670000007290069137279895940_">
				<use xlink:href="#SVGID_00000050622356264710739340000016605842963351383940_"  style="overflow:visible;"/>
			</clipPath>
			<path style="clip-path:url(#SVGID_00000159443448235037714670000007290069137279895940_);fill:#3E3E3E;" d="M214.4,17.1
				c-11.9,44.4-93.5,61.6-109.8,22.4c-0.4,2-0.6,4-0.6,6C104,89.3,205.5,85.2,214.4,17.1L214.4,17.1z"/>
		</g>
	</g>
	<g>
		<g>
			<defs>
				<rect id="SVGID_00000155148918202347308660000013448960117784606368_" width="195.6" height="280.6"/>
			</defs>
			<clipPath id="SVGID_00000057827005866315264490000010909482278476087194_">
				<use xlink:href="#SVGID_00000155148918202347308660000013448960117784606368_"  style="overflow:visible;"/>
			</clipPath>
			<path style="clip-path:url(#SVGID_00000057827005866315264490000010909482278476087194_);fill:#1A1A1A;" d="M160.8,16.9
				c-8.5,0.5-16.8,0.5-26,1.2c-11.9,0.9-19.9,4.5-24.9,9.5c-4.6,4.8-7.2,11.3-7,17.9c0,11.4,6.7,19.8,16.6,24.6s23.1,6.3,36.5,4.2
				c1.6-0.2,3.1-0.5,4.7-0.9v-2.3c-1.7,0.4-3.4,0.7-5.1,1c-13.1,2-25.8,0.5-35.2-4S105,56,105,45.5c-0.2-6.1,2.1-12,6.3-16.3
				c4.6-4.6,12-8,23.4-8.9c9-0.7,17.3-0.7,25.8-1.3L160.8,16.9L160.8,16.9z"/>
		</g>
	</g>
	<g>
		<g>
			<defs>
				<rect id="SVGID_00000161611195507030040470000017744862286322295694_" width="195.6" height="280.6"/>
			</defs>
			<clipPath id="SVGID_00000176751197127707860970000009606717183943425684_">
				<use xlink:href="#SVGID_00000161611195507030040470000017744862286322295694_"  style="overflow:visible;"/>
			</clipPath>
			<path style="clip-path:url(#SVGID_00000176751197127707860970000009606717183943425684_);fill:#1A1A1A;" d="M185.7,13.4
				c-9.1,2.1-18.4,3.4-27.8,3.7v2.2c8.9-0.4,17.7-1.5,26.3-3.3l-3.1,8.2h1.6c13.6,0.1,27.6-4.6,30.2-5.5
				c-5,31.4-30.2,48.5-55.1,53.1v2.3c26.3-4.7,53.2-23,57.6-56.8l0.2-1.8l-1.7,0.6c0,0-15.7,5.4-29.6,5.7l2.6-6.9l0.7-2L185.7,13.4z
				"/>
		</g>
	</g>
	<g>
		<g>
			<defs>
				<rect id="SVGID_00000139252654020827751340000009452944946073568920_" width="195.6" height="280.6"/>
			</defs>
			<clipPath id="SVGID_00000077320712999640873790000003064709000166646935_">
				<use xlink:href="#SVGID_00000139252654020827751340000009452944946073568920_"  style="overflow:visible;"/>
			</clipPath>
			<path style="clip-path:url(#SVGID_00000077320712999640873790000003064709000166646935_);fill:#EB5A53;" d="M45,0H16H0v16
				c0,7,0,14,0,21c10.3,12.3,28.7,14,41,3.7c6.7-5.5,10.5-13.8,10.5-22.4C51.5,11.6,49.2,5.2,45,0z"/>
		</g>
	</g>
	<g>
		<g>
			<defs>
				<rect id="SVGID_00000096043165935472462220000010211499409139315091_" width="195.6" height="280.6"/>
			</defs>
			<clipPath id="SVGID_00000039127085433270432920000003959237201915560850_">
				<use xlink:href="#SVGID_00000096043165935472462220000010211499409139315091_"  style="overflow:visible;"/>
			</clipPath>
		</g>
	</g>
</g>
<g class="st50">
	<path class="st51" d="M27,251.8l-0.1,1.8c0.4-0.7,1-1.2,1.6-1.6c0.6-0.4,1.3-0.5,2.1-0.5c1.5,0,2.8,0.7,3.6,2.1
		c0.5-0.7,1-1.2,1.6-1.6c0.6-0.4,1.3-0.5,2-0.5c1,0,1.8,0.2,2.4,0.7c0.6,0.5,1.1,1.1,1.2,1.7c0.2,0.7,0.3,1.8,0.3,3.4v13.4h-5.6
		v-12.3c0-1.6-0.1-2.6-0.2-3s-0.4-0.6-0.8-0.6c-0.4,0-0.7,0.2-0.8,0.6c-0.1,0.4-0.2,1.4-0.2,3v12.3h-5.6v-12c0-1.9,0-3-0.1-3.3
		c-0.1-0.4-0.3-0.6-0.7-0.6c-0.3,0-0.5,0.1-0.7,0.3s-0.3,0.4-0.3,0.7s0,0.9,0,1.8v13.1h-5.6v-18.9L27,251.8L27,251.8z"/>
	<path class="st51" d="M49.7,247.7v3h-5.9v-3H49.7z M49.7,251.8v18.9h-5.9v-18.9L49.7,251.8L49.7,251.8z"/>
	<path class="st51" d="M63.6,257.9h-5.1v-1c0-0.9,0-1.4-0.1-1.7c-0.1-0.2-0.3-0.3-0.7-0.3c-0.3,0-0.6,0.1-0.7,0.3s-0.2,0.5-0.2,1
		c0,0.6,0,1,0.1,1.3s0.3,0.6,0.7,0.9s1.2,0.8,2.5,1.4c1.7,0.8,2.8,1.6,3.3,2.3c0.5,0.7,0.8,1.8,0.8,3.2c0,1.5-0.2,2.7-0.6,3.5
		c-0.4,0.8-1.1,1.4-2,1.8s-2.1,0.6-3.4,0.6c-1.5,0-2.7-0.2-3.8-0.7c-1-0.5-1.8-1.1-2.1-1.9c-0.4-0.8-0.6-2-0.6-3.5v-0.9h5.1v1.2
		c0,1,0.1,1.7,0.2,2c0.1,0.3,0.4,0.5,0.8,0.5c0.4,0,0.7-0.1,0.9-0.3c0.2-0.2,0.2-0.6,0.2-1.3c0-0.9-0.1-1.5-0.3-1.7s-1.3-0.9-3.4-2
		c-1.7-1-2.7-1.8-3.1-2.6s-0.6-1.7-0.6-2.8c0-1.5,0.2-2.6,0.6-3.3c0.4-0.7,1.1-1.3,2-1.7c1-0.4,2.1-0.6,3.3-0.6
		c1.3,0,2.3,0.2,3.2,0.5s1.6,0.7,2,1.3c0.5,0.5,0.8,1,0.9,1.5c0.1,0.4,0.1,1.1,0.1,2.1C63.6,257,63.6,257.9,63.6,257.9z"/>
	<path class="st51" d="M71.6,249.3v3h1.6v3h-1.6v10.1c0,1.2,0.1,1.9,0.2,2.1s0.7,0.2,1.6,0.2v3.1h-2.3c-1.3,0-2.2-0.1-2.8-0.2
		c-0.6-0.1-1.1-0.4-1.5-0.8s-0.7-0.8-0.8-1.4c-0.1-0.5-0.2-1.7-0.2-3.6v-9.6h-1.2v-3h1.2v-3L71.6,249.3L71.6,249.3z"/>
	<path class="st51" d="M80.2,251.8l-0.2,2.5c0.8-1.8,2-2.7,3.6-2.8v6.7c-1.1,0-1.8,0.1-2.3,0.4s-0.8,0.7-0.9,1.2s-0.2,1.7-0.2,3.5
		v7.5h-5.8v-18.9h5.8V251.8z"/>
	<path class="st51" d="M93.8,251.8v4.2l-4.2,11h4.2v3.8H84v-4l4.3-11.2h-3.9v-3.8L93.8,251.8L93.8,251.8z"/>
	<path class="st51" d="M100.3,259.2h-5.4v-1.3c0-1.5,0.2-2.6,0.5-3.4c0.3-0.8,1-1.5,2-2.1s2.3-0.9,4-0.9c1.9,0,3.4,0.3,4.4,1
		s1.6,1.5,1.8,2.5c0.2,1,0.3,3.1,0.3,6.2v9.5h-5.6V269c-0.4,0.7-0.8,1.2-1.4,1.5s-1.2,0.5-2,0.5c-1,0-1.9-0.3-2.8-0.8
		s-1.3-1.8-1.3-3.7V265c0-1.4,0.2-2.4,0.7-2.9c0.4-0.5,1.6-1.1,3.3-1.8c1.9-0.7,2.9-1.2,3-1.5s0.2-0.8,0.2-1.6c0-1-0.1-1.6-0.2-1.9
		c-0.1-0.3-0.4-0.4-0.7-0.4c-0.4,0-0.6,0.1-0.7,0.4c-0.1,0.3-0.1,0.9-0.1,2C100.3,257.3,100.3,259.2,100.3,259.2z M102.1,261.8
		c-0.9,0.7-1.5,1.2-1.6,1.7s-0.2,1.1-0.2,2c0,1,0.1,1.6,0.2,1.9s0.4,0.4,0.8,0.4s0.6-0.1,0.7-0.3c0.1-0.2,0.2-0.8,0.2-1.8
		L102.1,261.8L102.1,261.8z"/>
	<path class="st51" d="M115.5,251.8l-0.1,1.8c0.4-0.7,1-1.2,1.6-1.6c0.6-0.4,1.3-0.5,2.1-0.5c1.5,0,2.8,0.7,3.6,2.1
		c0.5-0.7,1-1.2,1.6-1.6c0.6-0.4,1.3-0.5,2-0.5c1,0,1.8,0.2,2.4,0.7s1.1,1.1,1.2,1.7s0.3,1.8,0.3,3.4v13.4h-5.6v-12.3
		c0-1.6-0.1-2.6-0.2-3s-0.4-0.6-0.8-0.6s-0.7,0.2-0.8,0.6c-0.1,0.4-0.2,1.4-0.2,3v12.3H117v-12c0-1.9,0-3-0.1-3.3
		c-0.1-0.4-0.3-0.6-0.7-0.6c-0.3,0-0.5,0.1-0.7,0.3s-0.3,0.4-0.3,0.7s0,0.9,0,1.8v13.1h-5.6v-18.9L115.5,251.8L115.5,251.8z"/>
	<path class="st51" d="M138.3,247.7v3h-5.9v-3H138.3z M138.3,251.8v18.9h-5.9v-18.9L138.3,251.8L138.3,251.8z"/>
</g>
<g class="st50">
	<path class="st51" d="M27.1,225.5l-0.1,1.7c0.4-0.7,0.9-1.2,1.5-1.6s1.3-0.5,2.1-0.5c1,0,1.8,0.2,2.4,0.7s1,1.1,1.2,1.8
		s0.3,1.9,0.3,3.5v13.3h-5.8v-13.1c0-1.3,0-2.1-0.1-2.4s-0.3-0.4-0.7-0.4c-0.4,0-0.7,0.2-0.8,0.5s-0.2,1.2-0.2,2.6v12.8h-5.8v-18.9
		L27.1,225.5L27.1,225.5z"/>
	<path class="st51" d="M42.5,221.3v3h-5.9v-3H42.5z M42.5,225.5v18.9h-5.9v-18.9H42.5z"/>
	<path class="st51" d="M57.6,235.3h-7.5v4.1c0,0.9,0.1,1.4,0.2,1.7s0.4,0.4,0.7,0.4c0.4,0,0.7-0.2,0.9-0.5s0.2-1,0.2-1.9v-2.5h5.5
		v1.4c0,1.2-0.1,2.1-0.2,2.7c-0.1,0.6-0.5,1.3-1,2s-1.2,1.2-2.1,1.6c-0.8,0.4-1.9,0.5-3.1,0.5c-1.2,0-2.3-0.2-3.2-0.5
		c-0.9-0.4-1.7-0.8-2.2-1.4s-0.9-1.3-1.1-2c-0.2-0.7-0.3-1.8-0.3-3.2V232c0-1.7,0.2-3,0.7-3.9s1.2-1.7,2.2-2.2s2.2-0.8,3.5-0.8
		c1.6,0,2.9,0.3,4,0.9s1.8,1.4,2.2,2.4s0.6,2.4,0.6,4.3C57.6,232.7,57.6,235.3,57.6,235.3z M51.8,232.2v-1.4c0-1-0.1-1.6-0.2-1.9
		s-0.3-0.4-0.6-0.4c-0.4,0-0.6,0.1-0.7,0.4c-0.1,0.2-0.1,0.9-0.1,2v1.4h1.6V232.2z"/>
	<path class="st51" d="M70.4,221.3v5.5c0.5-0.6,1-1,1.6-1.2c0.6-0.3,1.2-0.4,1.9-0.4c0.8,0,1.5,0.1,2.1,0.4c0.6,0.2,1,0.6,1.3,1
		s0.5,0.9,0.5,1.3c0.1,0.4,0.1,1.3,0.1,2.7v8.5c0,1.4-0.1,2.4-0.3,3.1c-0.2,0.7-0.6,1.3-1.3,1.8c-0.7,0.5-1.5,0.7-2.4,0.7
		c-0.7,0-1.3-0.1-1.9-0.4s-1.1-0.7-1.6-1.3l-0.4,1.4h-5.4v-23.1H70.4z M72.1,230.9c0-1-0.1-1.6-0.2-1.9c-0.1-0.3-0.4-0.4-0.7-0.4
		c-0.4,0-0.6,0.1-0.7,0.4s-0.2,0.9-0.2,2v8.2c0,1,0.1,1.7,0.2,2s0.4,0.4,0.7,0.4c0.4,0,0.6-0.1,0.7-0.4s0.2-1,0.2-2.1V230.9z"/>
	<path class="st51" d="M91.8,225.5l-1.6,13.7c-0.3,2.2-0.5,3.6-0.7,4.4c-0.2,0.8-0.5,1.4-0.9,2c-0.4,0.5-1,0.9-1.7,1.1
		c-0.7,0.2-1.9,0.4-3.5,0.4H80v-3c0.9,0,1.5,0,1.7-0.1c0.3-0.1,0.4-0.3,0.4-0.6c0-0.2-0.1-0.8-0.4-2l-3.2-15.8h5.2l1.9,12.8
		l0.9-12.8L91.8,225.5L91.8,225.5z"/>
	<path class="st51" d="M98.8,221.3v23.1h-5.9v-23.1H98.8z"/>
	<path class="st51" d="M106.8,221.3v3h-5.9v-3H106.8z M106.8,225.5v18.9h-5.9v-18.9H106.8z"/>
</g>
<g class="st50">
	<path class="st51" d="M25.6,21.3v5.3c0,1.2-0.1,2.1-0.2,2.6s-0.4,1.1-0.8,1.5s-0.9,0.8-1.5,1s-1.2,0.3-1.9,0.3
		c-0.9,0-1.7-0.1-2.4-0.3s-1.1-0.6-1.5-1s-0.6-0.9-0.8-1.5s-0.2-1.3-0.2-2.4v-5.5c0-1.5,0.1-2.5,0.4-3.3s0.7-1.3,1.5-1.7
		s1.6-0.7,2.7-0.7c0.9,0,1.6,0.2,2.3,0.5s1.2,0.7,1.5,1.1s0.6,0.9,0.7,1.5S25.6,20.1,25.6,21.3z M21.6,20c0-0.8,0-1.4-0.1-1.6
		s-0.3-0.3-0.6-0.3c-0.3,0-0.5,0.1-0.6,0.3s-0.1,0.7-0.1,1.6v7.7c0,0.9,0,1.5,0.1,1.7s0.3,0.3,0.6,0.3s0.5-0.1,0.6-0.3
		s0.1-0.7,0.1-1.5V20z"/>
	<path class="st51" d="M36.5,20.1h-3.9c0-0.7,0-1.2,0-1.4s-0.1-0.4-0.2-0.5s-0.3-0.2-0.6-0.2c-0.2,0-0.4,0.1-0.5,0.2
		S31,18.5,31,18.7s0,0.6,0,1.2v2.5c0.2-0.4,0.5-0.7,0.9-1s0.9-0.3,1.4-0.3c0.7,0,1.4,0.2,1.9,0.6s0.9,0.9,1.1,1.4s0.2,1.3,0.2,2.2
		v1.3c0,1.1,0,1.9-0.1,2.5s-0.3,1-0.7,1.5s-0.9,0.8-1.5,1.1s-1.4,0.4-2.2,0.4c-1.1,0-1.9-0.1-2.6-0.4s-1.2-0.7-1.6-1.3
		s-0.6-1.1-0.6-1.7S27,26.8,27,25.1v-2.2c0-1.9,0-3.1,0.1-3.8s0.3-1.2,0.7-1.8s0.9-1,1.6-1.3s1.5-0.4,2.4-0.4c1.1,0,2,0.2,2.7,0.5
		s1.2,0.9,1.5,1.5S36.5,19.1,36.5,20.1z M32.5,25.1c0-0.6-0.1-0.9-0.2-1.2s-0.3-0.3-0.6-0.3c-0.3,0-0.5,0.1-0.6,0.3
		s-0.2,0.6-0.2,1.2v2.9c0,0.7,0.1,1.2,0.2,1.4s0.3,0.3,0.6,0.3c0.2,0,0.3-0.1,0.5-0.2s0.3-0.6,0.3-1.3V25.1z"/>
</g>
</svg>
