<?xml version="1.0" encoding="utf-8"?>
<!-- Generator: Adobe Illustrator 26.0.3, SVG Export Plug-In . SVG Version: 6.00 Build 0)  -->
<svg version="1.1" id="Слой_1" xmlns="http://www.w3.org/2000/svg" xmlns:xlink="http://www.w3.org/1999/xlink" x="0px" y="0px"
	 viewBox="0 0 195.6 280.6" style="enable-background:new 0 0 195.6 280.6;" xml:space="preserve">
<style type="text/css">
	.st0{clip-path:url(#SVGID_00000046300262763005214580000005135943483816817838_);fill:#A0A472;}
	.st1{clip-path:url(#SVGID_00000046300262763005214580000005135943483816817838_);fill:#1A1A1A;}
	.st2{clip-path:url(#SVGID_00000046300262763005214580000005135943483816817838_);fill:#FCC24C;}
	.st3{clip-path:url(#SVGID_00000046300262763005214580000005135943483816817838_);fill:#F49631;}
	.st4{clip-path:url(#SVGID_00000046300262763005214580000005135943483816817838_);fill:#FFFFFF;}
	.st5{clip-path:url(#SVGID_00000046300262763005214580000005135943483816817838_);fill:#EB5A53;}
	.st6{clip-path:url(#SVGID_00000046300262763005214580000005135943483816817838_);fill:#AF1739;}
	.st7{clip-path:url(#SVGID_00000046300262763005214580000005135943483816817838_);fill:#EB5775;}
	.st8{clip-path:url(#SVGID_00000046300262763005214580000005135943483816817838_);fill:#BADBE9;}
	.st9{clip-path:url(#SVGID_00000046300262763005214580000005135943483816817838_);fill:#8BB0CC;}
	.st10{clip-path:url(#SVGID_00000046300262763005214580000005135943483816817838_);fill:#F293A2;}
	.st11{clip-path:url(#SVGID_00000046300262763005214580000005135943483816817838_);fill:#797E58;}
	.st12{clip-path:url(#SVGID_00000046300262763005214580000005135943483816817838_);fill:#B9BAA1;}
	.st13{clip-path:url(#SVGID_00000046300262763005214580000005135943483816817838_);fill:#C0C099;}
	.st14{clip-path:url(#SVGID_00000046300262763005214580000005135943483816817838_);fill:#5B6045;}
	.st15{clip-path:url(#SVGID_00000046300262763005214580000005135943483816817838_);fill:#73554C;}
	.st16{clip-path:url(#SVGID_00000046300262763005214580000005135943483816817838_);fill:#454A3D;}
	.st17{clip-path:url(#SVGID_00000046300262763005214580000005135943483816817838_);fill:#543D3B;}
	.st18{clip-path:url(#SVGID_00000046300262763005214580000005135943483816817838_);fill:#797979;}
	.st19{clip-path:url(#SVGID_00000046300262763005214580000005135943483816817838_);fill:#545454;}
	.st20{clip-path:url(#SVGID_00000046300262763005214580000005135943483816817838_);fill:#444444;}
	.st21{clip-path:url(#SVGID_00000046300262763005214580000005135943483816817838_);fill:#EFA85D;}
	.st22{clip-path:url(#SVGID_00000046300262763005214580000005135943483816817838_);fill:#636363;}
	.st23{clip-path:url(#SVGID_00000046300262763005214580000005135943483816817838_);fill:#A0A0A0;}
	.st24{clip-path:url(#SVGID_00000046300262763005214580000005135943483816817838_);fill:#FDD083;}
	.st25{clip-path:url(#SVGID_00000046300262763005214580000005135943483816817838_);fill:#DC773D;}
	.st26{clip-path:url(#SVGID_00000046300262763005214580000005135943483816817838_);fill:#3D3D3D;}
	.st27{clip-path:url(#SVGID_00000046300262763005214580000005135943483816817838_);enable-background:new    ;}
	.st28{fill:#FFFFFF;}
	.st29{font-family:'Impact';}
	.st30{font-size:20px;}
	.st31{font-size:24.45px;}
</style>
<g>
	<defs>
		<rect id="SVGID_1_" x="0" y="0" width="195.6" height="280.6"/>
	</defs>
	<clipPath id="SVGID_00000049944333282771947450000008428314204225464241_">
		<use xlink:href="#SVGID_1_"  style="overflow:visible;"/>
	</clipPath>
	
		<rect x="-8.5" y="-7.7" style="clip-path:url(#SVGID_00000049944333282771947450000008428314204225464241_);fill:#A0A472;" width="459.5" height="297.3"/>
	<path style="clip-path:url(#SVGID_00000049944333282771947450000008428314204225464241_);fill:#1A1A1A;" d="M99.7,39.5l-0.8-0.7
		l-11,9.5l-14.3-2.8l-4.7,13.8l-13.8,4.7l2.8,14.3l-9.5,11l9.5,11l-2.8,14.3l3.8,1.3l10,3.4l4.7,13.8l14.3-2.8l11,9.6l0.8-0.7V127
		l-0.8,0.7l-8.3-7.2l-10.8,2.1l-3.6-10.4l-10.5-3.6l2.1-10.8l-7.2-8.3l7.2-8.3l-2.1-10.8l10.4-3.6l3.6-10.4l10.8,2.1l8.3-7.3
		l0.8,0.7V39.5z"/>
	<path style="clip-path:url(#SVGID_00000049944333282771947450000008428314204225464241_);fill:#1A1A1A;" d="M149.4,89.3l-9.6-11
		l2.8-14.3l-13.8-4.7l-4.7-13.8l-14.3,2.8l-11-9.5l-0.8,0.7v12.2l0.8-0.7l8.3,7.2l10.8-2.1l3.6,10.4l10.4,3.6L130,81l7.2,8.3
		l-7.2,8.3l2.1,10.8l-10.4,3.6l-3.6,10.4l-10.8-2.1l-8.3,7.2l-0.8-0.7v12.2l0.8,0.7l11-9.6l14.3,2.8l4.7-13.8l13.8-4.7l-2.8-14.3
		L149.4,89.3z"/>
	<path style="clip-path:url(#SVGID_00000049944333282771947450000008428314204225464241_);fill:#FCC24C;" d="M60.4,111.5L62.9,99
		l-8.4-9.7l8.4-9.7l-2.4-12.6L72.5,63l4.2-12.1l12.6,2.4l9.7-8.4l9.7,8.4l12.6-2.4l4.2,12.1l12.1,4.2l-2.4,12.6l8.4,9.7l-8.4,9.6
		l2.4,12.6l-12.1,4.2l-4.2,12.1l-12.6-2.4l-9.7,8.4l-9.7-8.4l-12.6,2.4l-4.2-12.1L60.4,111.5z"/>
	<path style="clip-path:url(#SVGID_00000049944333282771947450000008428314204225464241_);fill:#F49631;" d="M128,89.3
		c0-16.1-13-29.1-29.1-29.1s-29.1,13-29.1,29.1c0,16.1,13,29.1,29.1,29.1c7.7,0,15.1-3.1,20.6-8.5C124.9,104.5,128,97.1,128,89.3z"
		/>
	<path style="clip-path:url(#SVGID_00000049944333282771947450000008428314204225464241_);fill:#FCC24C;" d="M125.4,84.6
		c0-12-9.7-21.7-21.7-21.7s-21.7,9.7-21.7,21.7c0,12,9.7,21.7,21.7,21.7c0,0,0,0,0,0C115.6,106.3,125.4,96.6,125.4,84.6z"/>
	<path style="clip-path:url(#SVGID_00000049944333282771947450000008428314204225464241_);fill:#1A1A1A;" d="M99.7,59.1h-0.8
		c-16.7,0-30.3,13.6-30.3,30.3c0,16.7,13.6,30.3,30.3,30.3h0.8v-2.3h-0.8c-15.4,0.8-28.6-11.1-29.4-26.6
		c-0.8-15.4,11.1-28.6,26.6-29.4c0.9,0,1.9,0,2.8,0h0.8V59.1z"/>
	<path style="clip-path:url(#SVGID_00000049944333282771947450000008428314204225464241_);fill:#FFFFFF;" d="M120.3,78.4
		c0-5.8-4.7-10.6-10.5-10.6s-10.6,4.7-10.6,10.5S103.9,89,109.7,89c0,0,0,0,0,0C115.6,89,120.3,84.3,120.3,78.4
		C120.3,78.4,120.3,78.4,120.3,78.4L120.3,78.4z"/>
	<path style="clip-path:url(#SVGID_00000049944333282771947450000008428314204225464241_);fill:#1A1A1A;" d="M99.7,44.1l-0.8-0.7
		l-10,8.7l-13-2.5L71.6,62l-12.5,4.3l2.5,13l-8.7,10l8.7,10l-2.5,13l0.9,0.3l11.6,4l4.3,12.5l13-2.5l10,8.7l0.8-0.7v-3l-0.8,0.7
		l-9.3-8.1l-12.1,2.4l-4-11.7l-11.7-4l2.3-12.3L56,89.3l8.1-9.3l-2.4-12.1l11.7-4l4-11.7l12.1,2.4l9.3-8.1l0.8,0.7L99.7,44.1z"/>
	<path style="clip-path:url(#SVGID_00000049944333282771947450000008428314204225464241_);fill:#1A1A1A;" d="M129.2,89.3
		c0-16.7-13.6-30.3-30.3-30.3h-0.8v2.3h0.8c15.4-0.8,28.6,11.1,29.4,26.6c0.8,15.4-11.1,28.6-26.6,29.4c-0.9,0-1.9,0-2.8,0h-0.8v2.3
		h0.8C115.6,119.6,129.1,106,129.2,89.3z"/>
	<path style="clip-path:url(#SVGID_00000049944333282771947450000008428314204225464241_);fill:#1A1A1A;" d="M144.8,89.3l-8.7-10
		l2.5-13L126.2,62l-4.3-12.5l-13,2.5l-10-8.7L98,44.1v3l0.8-0.7l9.3,8.1l12.1-2.4l4,11.7l11.7,4L133.7,80l8.1,9.3l-8.1,9.3l2.3,12.1
		l-11.7,4l-4,11.7l-12.1-2.4l-9.3,8.1l-0.8-0.7v3l0.8,0.7l10-8.7l13,2.5l4.3-12.5l12.5-4.3l-2.5-13L144.8,89.3z"/>
	<path style="clip-path:url(#SVGID_00000049944333282771947450000008428314204225464241_);fill:#EB5A53;" d="M52.1,184
		c0,6.3-2.1,15.3-4.7,15.3s-4.7-9-4.7-15.3s2.8-7.6,4.7-7.6S52.1,177.7,52.1,184z"/>
	<path style="clip-path:url(#SVGID_00000049944333282771947450000008428314204225464241_);fill:#1A1A1A;" d="M47.3,175.1
		c-1.6,0-3.1,0.7-4.1,1.9c-1.2,1.4-1.9,3.7-1.9,7c0,3.5,0.5,7,1.4,10.4c0.4,1.4,0.9,2.8,1.6,4.1c0.5,1.2,1.7,2,3,2.1
		c1.3-0.1,2.5-0.9,3-2.1c0.7-1.3,1.3-2.7,1.6-4.1c0.9-3.4,1.4-6.9,1.4-10.4c0-3.4-0.7-5.6-2-7C50.4,175.8,48.9,175.1,47.3,175.1
		L47.3,175.1z M47.3,177.7c0.8,0,1.6,0.4,2.1,1c0.7,0.8,1.3,2.3,1.3,5.3c0,3.3-0.5,6.5-1.3,9.7c-0.3,1.2-0.8,2.4-1.4,3.5
		c-0.2,0.3-0.4,0.6-0.7,0.8c-0.3-0.2-0.5-0.5-0.7-0.8c-0.6-1.1-1.1-2.3-1.4-3.5c-0.8-3.2-1.3-6.4-1.3-9.7c0-3,0.7-4.5,1.3-5.3
		C45.8,178,46.6,177.7,47.3,177.7L47.3,177.7z"/>
	<path style="clip-path:url(#SVGID_00000049944333282771947450000008428314204225464241_);fill:#EB5A53;" d="M75.9,184
		c0,6.3-2.1,15.3-4.7,15.3s-4.7-9-4.7-15.3s2.8-7.6,4.7-7.6S75.9,177.7,75.9,184z"/>
	<path style="clip-path:url(#SVGID_00000049944333282771947450000008428314204225464241_);fill:#1A1A1A;" d="M71.2,175.1
		c-1.6,0-3.1,0.7-4.1,1.9c-1.2,1.4-2,3.7-2,7c0,3.5,0.5,7,1.4,10.4c0.4,1.4,0.9,2.8,1.6,4.1c0.5,1.6,2.3,2.5,3.9,2
		c0.9-0.3,1.7-1,2-2c0.7-1.3,1.3-2.7,1.6-4.1c0.9-3.4,1.4-6.9,1.5-10.4c0-3.4-0.7-5.6-1.9-7C74.2,175.8,72.7,175.1,71.2,175.1z
		 M71.2,177.7c0.8,0,1.6,0.4,2.1,1c0.7,0.8,1.3,2.3,1.3,5.3c0,3.3-0.5,6.5-1.3,9.7c-0.3,1.2-0.8,2.4-1.4,3.5
		c-0.2,0.3-0.4,0.6-0.7,0.8c-0.3-0.2-0.5-0.5-0.7-0.8c-0.6-1.1-1-2.3-1.4-3.5c-0.9-3.2-1.3-6.4-1.3-9.7c0-3,0.7-4.5,1.3-5.3
		C69.6,178,70.4,177.7,71.2,177.7L71.2,177.7z"/>
	<path style="clip-path:url(#SVGID_00000049944333282771947450000008428314204225464241_);fill:#EB5A53;" d="M25.9,157.4
		c-6.3,0-15.3-2.1-15.3-4.7s9-4.7,15.3-4.7s7.6,2.8,7.6,4.7S32.2,157.4,25.9,157.4z"/>
	<path style="clip-path:url(#SVGID_00000049944333282771947450000008428314204225464241_);fill:#EB5A53;" d="M97.9,149.6
		c2.4,5.8,3.9,15,1.5,16s-7.8-6.5-10.2-12.4s-0.3-8.1,1.4-8.8S95.4,143.8,97.9,149.6L97.9,149.6z"/>
	<path style="clip-path:url(#SVGID_00000049944333282771947450000008428314204225464241_);fill:#1A1A1A;" d="M34.8,152.7
		c0-1.6-0.7-3.1-1.9-4.1c-1.4-1.2-3.7-1.9-7-1.9c-3.5,0-7,0.5-10.4,1.4c-1.4,0.4-2.8,0.9-4.1,1.6c-1.1,0.7-2.1,1.6-2.1,3
		s1,2.3,2.1,3c1.3,0.7,2.7,1.3,4.1,1.6c3.4,0.9,6.9,1.4,10.4,1.4c3.4,0,5.6-0.7,7-1.9C34.1,155.9,34.8,154.4,34.8,152.7L34.8,152.7z
		 M32.1,152.7c0,0.8-0.4,1.6-1,2.1c-0.8,0.7-2.4,1.3-5.3,1.3c-3.3,0-6.5-0.5-9.7-1.3c-1.2-0.3-2.4-0.8-3.5-1.4
		c-0.3-0.2-0.6-0.4-0.8-0.7c0.2-0.3,0.5-0.5,0.8-0.7c1.1-0.6,2.3-1.1,3.5-1.4c3.2-0.8,6.4-1.3,9.7-1.3c3,0,4.5,0.6,5.3,1.3
		C31.8,151.1,32.2,151.9,32.1,152.7L32.1,152.7z"/>
	<path style="clip-path:url(#SVGID_00000049944333282771947450000008428314204225464241_);fill:#1A1A1A;" d="M90.1,143.2
		c-1.4,0.6-2.5,1.8-3,3.3c-0.6,1.8-0.4,4.1,0.9,7.2c1.4,3.2,3.2,6.3,5.3,9.1c0.9,1.2,1.9,2.2,3.1,3.2c1.1,1.3,3.1,1.4,4.4,0.3
		c0.7-0.6,1.1-1.6,1.1-2.6c0.2-1.5,0.2-3-0.1-4.4c-0.4-3.5-1.3-6.9-2.7-10.1c-1.3-3.1-2.8-4.9-4.5-5.7
		C93.2,142.7,91.6,142.6,90.1,143.2L90.1,143.2z M91.1,145.6c0.7-0.3,1.6-0.3,2.3,0.1c0.9,0.5,2.1,1.7,3.3,4.4c1.2,3,2,6.2,2.5,9.4
		c0.2,1.2,0.2,2.5,0.1,3.7c0,0.4-0.2,0.7-0.3,1.1c-0.4-0.1-0.7-0.3-1-0.5c-1-0.8-1.8-1.7-2.6-2.7c-2-2.6-3.6-5.4-4.9-8.4
		c-1.1-2.7-1.1-4.4-0.8-5.4C89.8,146.5,90.3,145.9,91.1,145.6L91.1,145.6z"/>
	<path style="clip-path:url(#SVGID_00000049944333282771947450000008428314204225464241_);fill:#EB5A53;" d="M94.2,154.5
		c0,19.1-15.5,34.6-34.6,34.6S25,173.6,25,154.5s15.5-34.6,34.6-34.6c9.2,0,18,3.6,24.5,10.1C90.6,136.5,94.2,145.3,94.2,154.5z"/>
	<path style="clip-path:url(#SVGID_00000049944333282771947450000008428314204225464241_);fill:#EB5A53;" d="M89.8,152.7
		c0,17.7-14.4,32-32,32s-32-14.4-32-32c0-17.7,14.4-32,32-32c8.5,0,16.6,3.4,22.6,9.4C86.4,136,89.8,144.1,89.8,152.7L89.8,152.7z"
		/>
	<path style="clip-path:url(#SVGID_00000049944333282771947450000008428314204225464241_);fill:#FFFFFF;" d="M27,166
		c6.3,18,26.1,27.5,44.1,21.1c9.9-3.5,17.6-11.2,21.1-21.1H27z"/>
	<path style="clip-path:url(#SVGID_00000049944333282771947450000008428314204225464241_);fill:#FFFFFF;" d="M28.7,166
		c7.4,16.1,26.4,23.1,42.4,15.7c6.9-3.2,12.5-8.8,15.7-15.7H28.7z"/>
	<path style="clip-path:url(#SVGID_00000049944333282771947450000008428314204225464241_);fill:#FFFFFF;" d="M59.6,119.9
		c-14.7,0-27.7,9.3-32.6,23.1h65.2C87.3,129.2,74.3,119.9,59.6,119.9L59.6,119.9z"/>
	<path style="clip-path:url(#SVGID_00000049944333282771947450000008428314204225464241_);fill:#FFFFFF;" d="M57.8,120.7
		c-14,0-26.3,9-30.5,22.3h61C84.1,129.7,71.8,120.7,57.8,120.7z"/>
	<path style="clip-path:url(#SVGID_00000049944333282771947450000008428314204225464241_);fill:#1A1A1A;" d="M59.3,115.8
		c-20.4,0-36.9,16.5-36.9,36.9s16.5,36.9,36.9,36.9s36.9-16.5,36.9-36.9l0,0C96.1,132.4,79.6,115.9,59.3,115.8z M59.3,120
		c18,0,32.7,14.6,32.7,32.7s-14.6,32.7-32.7,32.7s-32.7-14.6-32.7-32.7l0,0C26.6,134.7,41.2,120.1,59.3,120
		C59.2,120,59.2,120,59.3,120z"/>
	<path style="clip-path:url(#SVGID_00000049944333282771947450000008428314204225464241_);fill:#1A1A1A;" d="M59.3,117.4
		c-19.5,0-35.3,15.8-35.3,35.3S39.8,188,59.3,188s35.3-15.8,35.3-35.3l0,0C94.6,133.2,78.8,117.4,59.3,117.4z M59.3,118.4
		c18.9,0,34.3,15.3,34.3,34.3s-15.3,34.3-34.3,34.3c-18.9,0-34.2-15.3-34.3-34.2C25,133.8,40.3,118.5,59.3,118.4
		C59.2,118.5,59.3,118.5,59.3,118.4L59.3,118.4z"/>
	<path style="clip-path:url(#SVGID_00000049944333282771947450000008428314204225464241_);fill:#1A1A1A;" d="M48.1,140.1
		c3,0,5.4,2.4,5.4,5.4c0,0,0,0,0,0v2.7c0,3-2.4,5.4-5.4,5.4c-3,0-5.4-2.4-5.4-5.4v-2.7C42.7,142.6,45.1,140.1,48.1,140.1
		C48.1,140.1,48.1,140.1,48.1,140.1z"/>
	<path style="clip-path:url(#SVGID_00000049944333282771947450000008428314204225464241_);fill:#FFFFFF;" d="M51.2,144
		c0,0.5-0.2,0.9-0.5,1.2c-0.7,0.7-1.8,0.7-2.5,0c-0.7-0.7-0.7-1.8,0-2.5c0.7-0.7,1.8-0.7,2.5,0C51.1,143.1,51.2,143.5,51.2,144
		L51.2,144z"/>
	<path style="clip-path:url(#SVGID_00000049944333282771947450000008428314204225464241_);fill:#1A1A1A;" d="M70.4,140.1
		c3,0,5.4,2.4,5.4,5.4c0,0,0,0,0,0v2.7c0,3-2.4,5.4-5.4,5.4c-3,0-5.4-2.4-5.4-5.4v-2.7C65,142.6,67.4,140.1,70.4,140.1
		C70.4,140.1,70.4,140.1,70.4,140.1z"/>
	<path style="clip-path:url(#SVGID_00000049944333282771947450000008428314204225464241_);fill:#FFFFFF;" d="M73.6,144
		c0,1-0.8,1.7-1.7,1.8c0,0,0,0,0,0c-0.5,0-0.9-0.2-1.2-0.5c-0.7-0.7-0.7-1.8,0-2.5c0.3-0.3,0.8-0.5,1.3-0.5
		C72.8,142.2,73.6,143,73.6,144C73.6,144,73.6,144,73.6,144z"/>
	<path style="clip-path:url(#SVGID_00000049944333282771947450000008428314204225464241_);fill:#AF1739;" d="M53.5,155.3
		c-0.7,0-1.2,0.5-1.2,1.2c0,0,0,0,0,0v1.4c0.4,3.8,3.8,6.7,7.6,6.3c3.4-0.3,6-3,6.3-6.3v-1.4c0-0.7-0.5-1.2-1.2-1.2H53.5z"/>
	<path style="clip-path:url(#SVGID_00000049944333282771947450000008428314204225464241_);fill:#EB5775;" d="M59.3,160
		c-2,0-3.9,0.9-5.3,2.4c2.6,2.9,7,3.2,9.9,0.6c0.2-0.2,0.4-0.4,0.6-0.6C63.2,160.9,61.3,160,59.3,160z"/>
	<path style="clip-path:url(#SVGID_00000049944333282771947450000008428314204225464241_);fill:#FFFFFF;" d="M53.5,155.3
		c-0.7,0-1.2,0.5-1.2,1.2c0,0,0,0,0,0v1.2c4.4,2.1,9.5,2.1,13.9,0v-1.2c0-0.7-0.5-1.2-1.2-1.2L53.5,155.3z"/>
	<path style="clip-path:url(#SVGID_00000049944333282771947450000008428314204225464241_);fill:#BADBE9;" d="M53.5,155.3
		c-0.7,0-1.2,0.5-1.2,1.2c0,0,0,0,0,0v1.2c0.8,0.4,1.6,0.7,2.4,0.9c-0.5-0.3-0.6-0.8-0.6-1.5v-1.9H53.5z"/>
	<path style="clip-path:url(#SVGID_00000049944333282771947450000008428314204225464241_);fill:#BADBE9;" d="M62.5,155.3v1.9
		c0,0.9-0.2,1.8-1,2c1.7-0.2,3.3-0.7,4.8-1.4v-1.2c0-0.7-0.5-1.2-1.2-1.2L62.5,155.3z"/>
	<path style="clip-path:url(#SVGID_00000049944333282771947450000008428314204225464241_);fill:#8BB0CC;" d="M65,155.3
		c0.7,0,1.2,0.5,1.2,1.2v1.2c-0.8,0.4-1.6,0.7-2.4,0.9c0.5-0.3,0.6-0.8,0.6-1.5v-1.9H65z"/>
	<path style="clip-path:url(#SVGID_00000049944333282771947450000008428314204225464241_);fill:#1A1A1A;" d="M53.5,154.8
		c-1,0-1.7,0.8-1.7,1.7v1.4c0,4.1,3.4,7.5,7.5,7.5s7.5-3.4,7.5-7.5v-1.4c0-1-0.8-1.7-1.7-1.7c0,0,0,0,0,0H53.5z M53.5,155.8H65
		c0.4,0,0.7,0.3,0.7,0.7c0,0,0,0,0,0v1.4c0,3.6-2.9,6.4-6.5,6.4s-6.5-2.9-6.5-6.4l0,0v-1.4C52.8,156.1,53.1,155.8,53.5,155.8
		C53.4,155.8,53.5,155.8,53.5,155.8L53.5,155.8z"/>
	<path style="clip-path:url(#SVGID_00000049944333282771947450000008428314204225464241_);fill:#1A1A1A;" d="M52.2,157.4l-0.2,0.5
		c4.6,2.2,9.9,2.2,14.5,0l-0.2-0.5C61.8,159.6,56.7,159.6,52.2,157.4L52.2,157.4z"/>
	<path style="clip-path:url(#SVGID_00000049944333282771947450000008428314204225464241_);fill:#F293A2;" d="M58.5,161.9
		c0,0.2-0.1,0.5-0.3,0.6c-0.2,0.2-0.5,0.2-0.8,0.2c-0.6,0-1.2-0.4-1.2-0.8s0.5-0.8,1.2-0.8c0.3,0,0.6,0.1,0.8,0.2
		C58.3,161.5,58.5,161.7,58.5,161.9z"/>
	<path style="clip-path:url(#SVGID_00000049944333282771947450000008428314204225464241_);fill:#1A1A1A;" d="M59.3,93.9
		c-6,0-11,2.1-14.3,5.6c-3.2,3.5-5.1,8-5.3,12.7c-1.3,1.3-2.2,3-2.4,4.9l-1.4,10.9c-0.1,0.8,0.1,1.6,0.6,2.2c0.5,0.6,1.2,0.9,2,0.9
		h2c0.7,0,1.4-0.3,2-0.7c0.4-0.4,0.7-0.9,0.9-1.4l2.2-5.2c0.6-1.5,1.5-1.4,1.5-1.4h0.1c4-0.5,8-0.6,12.1-0.6c4-0.1,8.1,0.1,12.1,0.6
		h0.1c0,0,0.9-0.1,1.5,1.4l2.2,5.2c0.2,0.5,0.5,1,0.9,1.4c0.6,0.5,1.3,0.7,2,0.7h2c0.8,0,1.5-0.4,2-0.9c0.5-0.6,0.7-1.4,0.6-2.2
		L81.2,117c-0.2-1.8-1-3.6-2.3-4.8c-0.2-4.7-2.1-9.2-5.3-12.7C70.2,96,65.3,93.9,59.3,93.9L59.3,93.9z M59.3,97
		c5.3,0,9.3,1.8,12.1,4.6c2.9,3.1,4.5,7.1,4.4,11.3v0.9l0.8,0.4c0,0,1.2,0.6,1.5,3.1l1.4,10.5h-1.3c0-0.1-0.1-0.2-0.1-0.2l-2.2-5.2
		c-0.8-1.7-2.3-3-4.2-3.3h0.1c-4.2-0.5-8.4-0.7-12.5-0.6c-4.2-0.1-8.4,0.1-12.5,0.6h0.1c-1.8,0.4-3.4,1.6-4.2,3.3l-2.2,5.2
		c0,0.1-0.1,0.2-0.1,0.2H39l1.4-10.5c0.3-2.5,1.5-3.1,1.5-3.1l0.8-0.4V113c0-4.2,1.6-8.3,4.4-11.3C50,98.8,54,97,59.3,97L59.3,97z"
		/>
	<path style="clip-path:url(#SVGID_00000049944333282771947450000008428314204225464241_);fill:#797E58;" d="M71.6,120.7
		c1.3,0.2,2.4,1.1,2.8,2.3l2.2,5.2c0.3,0.7,0.6,1.2,1.5,1.2h2c0.6,0,1.1-0.5,1-1.1c0-0.1,0-0.1,0-0.2l-1.4-10.8
		c-0.4-3-2-4.1-2.3-4.3c-0.3-9.7-6.8-17.5-18.1-17.5s-17.8,7.8-18.1,17.5c-0.3,0.2-1.9,1.2-2.3,4.3l-1.4,10.9
		c-0.2,0.6,0.2,1.2,0.8,1.3c0.1,0,0.2,0,0.2,0h2c0.8,0,1.2-0.5,1.5-1.2l2.2-5.2c0.5-1.3,1.6-2.2,2.9-2.4c4.1-0.5,8.2-0.6,12.3-0.6
		C63.4,120,67.5,120.2,71.6,120.7L71.6,120.7z"/>
	<path style="clip-path:url(#SVGID_00000049944333282771947450000008428314204225464241_);fill:#A0A472;" d="M55.6,114.6l-16.7,2.5
		c0,0,0,0.1,0,0.1l-1.4,10.9c-0.1,0.6,0.2,1.2,0.8,1.3c0.1,0,0.1,0,0.2,0h2c0.8,0,1.2-0.5,1.5-1.2l2.2-5.2c0.5-1.3,1.6-2.2,2.9-2.4
		c2.9-0.3,5.7-0.5,8.6-0.5L55.6,114.6z"/>
	<path style="clip-path:url(#SVGID_00000049944333282771947450000008428314204225464241_);fill:#A0A472;" d="M59.3,95.4
		c-11.3,0-17.8,7.8-18.1,17.5c-0.3,0.2-1.9,1.3-2.3,4.3v0.2c6.7-1.5,13.5-2.3,20.3-2.3h0.1c2.6,0,7.8,0.2,10.3,0.4
		C72.1,106.1,69.6,96.8,59.3,95.4L59.3,95.4z"/>
	<path style="clip-path:url(#SVGID_00000049944333282771947450000008428314204225464241_);fill:#B9BAA1;" d="M41.6,109.3
		c-0.2,1.2-0.4,2.4-0.4,3.7c-0.3,0.2-1.9,1.2-2.3,4.3v0.1L46,116L41.6,109.3z"/>
	<path style="clip-path:url(#SVGID_00000049944333282771947450000008428314204225464241_);fill:#C0C099;" d="M48.6,98.4
		c-4.6,3.1-7.2,8.3-7.4,14.2c1.2,1.6,2.9,2.8,4.9,3.3c2.2-0.3,4.3-0.6,6.5-0.7C58.4,110.8,56.7,99.5,48.6,98.4L48.6,98.4z"/>
	<path style="clip-path:url(#SVGID_00000049944333282771947450000008428314204225464241_);fill:#A0A472;" d="M59.3,110.6
		c-6.1,0-12.2,0.8-18.1,2.4c-0.3,0.2-1.9,1.2-2.3,4.1c6.7-1.5,13.5-2.2,20.3-2.2h0.1c6.7,0,13.5,0.7,20.1,2.2h0.3
		c-0.4-2.9-2-3.9-2.3-4.1C71.4,111.3,65.4,110.5,59.3,110.6L59.3,110.6z"/>
	<path style="clip-path:url(#SVGID_00000049944333282771947450000008428314204225464241_);fill:#5B6045;" d="M67,115.4v4.9
		c3.1,0.2,4.6,0.4,4.6,0.4c1.3,0.2,2.4,1.1,2.8,2.3l2.2,5.2c0.3,0.7,0.6,1.2,1.5,1.2h2c0.6,0,1.1-0.5,1-1.1c0-0.1,0-0.1,0-0.2
		l-1.4-10.8L67,115.4z"/>
	<path style="clip-path:url(#SVGID_00000049944333282771947450000008428314204225464241_);fill:#797E58;" d="M59.3,118.5
		c-4.1-0.1-8.2,0.1-12.3,0.5c-4,0.5-7,1.6-7.8,5.3l-0.8,3.8c-0.3,1.1,0.4,1.4,0.4,1.4h1.8c0.8,0,1.2-0.5,1.5-1.2l2.2-5.2
		c0.5-1.2,1.5-2.1,2.8-2.3c4.1-0.5,8.2-0.6,12.3-0.6c4.1-0.1,8.2,0.1,12.3,0.6c1.3,0.2,2.3,1.1,2.8,2.3l2.2,5.2
		c0.3,0.7,0.6,1.2,1.5,1.2h1.8c0,0,0.6-0.2,0.4-1.4l-0.8-3.8c-0.8-3.7-3.9-4.8-7.8-5.3C67.5,118.5,63.4,118.3,59.3,118.5L59.3,118.5
		z"/>
	<path style="clip-path:url(#SVGID_00000049944333282771947450000008428314204225464241_);fill:#73554C;" d="M59.2,112.8
		c-6.7,0-13.3,0.8-19.8,2.3c-0.3,0.7-0.5,1.4-0.6,2.1l-0.2,1.3c6.7-1.7,13.6-2.6,20.5-2.6l0,0c6.9,0,13.9,0.9,20.6,2.6l-0.2-1.3
		c-0.1-0.7-0.3-1.5-0.6-2.1C72.6,113.5,65.9,112.8,59.2,112.8L59.2,112.8z"/>
	<path style="clip-path:url(#SVGID_00000049944333282771947450000008428314204225464241_);fill:#454A3D;" d="M46.9,120.7
		c-3.3,0.4-5.4,1.2-6.2,4l-1,3.4c-0.3,1.1,0.4,1.4,0.4,1.4h0.5c0.8,0,1.2-0.5,1.5-1.2l2.2-5.2C44.6,121.9,45.6,121,46.9,120.7
		L46.9,120.7z"/>
	<path style="clip-path:url(#SVGID_00000049944333282771947450000008428314204225464241_);fill:#543D3B;" d="M67.8,113.2v3.2
		c4,0.4,8.1,1.1,12,2.2l-0.2-1.3c-0.1-0.7-0.3-1.5-0.6-2.1C75.3,114.2,71.6,113.6,67.8,113.2L67.8,113.2z"/>
	<path style="clip-path:url(#SVGID_00000049944333282771947450000008428314204225464241_);fill:#1A1A1A;" d="M59.2,112.2
		c-6.7,0-13.4,0.8-19.9,2.3l0.2,1c6.4-1.5,13-2.3,19.6-2.3h0.1c6.6,0,13.3,0.8,19.7,2.3l0.2-1c-6.5-1.5-13.2-2.3-19.9-2.3
		L59.2,112.2z"/>
	<path style="clip-path:url(#SVGID_00000049944333282771947450000008428314204225464241_);fill:#1A1A1A;" d="M59.2,115.4
		c-7,0-13.9,0.9-20.7,2.6l0.3,1c6.7-1.7,13.5-2.6,20.4-2.6l0,0c6.9,0,13.8,0.9,20.5,2.6l0.3-1C73.2,116.2,66.3,115.4,59.2,115.4
		L59.2,115.4z"/>
	<path style="clip-path:url(#SVGID_00000049944333282771947450000008428314204225464241_);fill:#1A1A1A;" d="M46.9,120.2
		c-1.5,0.1-3,0.5-4.3,1.2c-1.2,0.7-2.1,1.8-2.4,3.2l-1,3.4c-0.2,0.5-0.1,1.1,0.1,1.6c0.2,0.2,0.4,0.4,0.6,0.5l0.3-1l-0.1-0.1
		c0-0.1-0.1-0.2,0-0.6l1-3.4c0.3-1.1,1-2,2-2.6c1.2-0.6,2.6-0.9,3.9-1L46.9,120.2z"/>
	<path style="clip-path:url(#SVGID_00000049944333282771947450000008428314204225464241_);fill:#454A3D;" d="M71.6,120.7
		c3.4,0.4,5.4,1.2,6.2,4l1,3.4c0.3,1.1-0.4,1.4-0.4,1.4H78c-0.8,0-1.2-0.5-1.5-1.2l-2.2-5.2C73.9,121.8,72.8,121,71.6,120.7
		L71.6,120.7z"/>
	<path style="clip-path:url(#SVGID_00000049944333282771947450000008428314204225464241_);fill:#1A1A1A;" d="M59.3,94.9
		c-5.8,0-10.4,2-13.6,5.3c-3.2,3.4-4.9,7.8-5,12.5c-1.4,1.1-2.2,2.7-2.3,4.5L36.9,128c-0.1,0.5,0,1,0.3,1.4c0.3,0.4,0.7,0.6,1.2,0.6
		h2c0.5,0,0.9-0.2,1.3-0.5c0.3-0.3,0.5-0.7,0.7-1.1l2.2-5.2c0.4-1.1,1.3-1.8,2.4-2l0,0c4.1-0.5,8.1-0.6,12.2-0.6
		c4.1-0.1,8.2,0.1,12.2,0.6l0,0c1.1,0.2,2,0.9,2.4,2l2.2,5.2c0.1,0.4,0.4,0.8,0.7,1.1c0.4,0.3,0.8,0.5,1.3,0.5h2
		c0.5,0,0.9-0.2,1.2-0.6c0.3-0.4,0.4-0.9,0.3-1.4l-1.4-10.9c-0.1-1.8-1-3.4-2.3-4.5c-0.1-4.6-1.8-9.1-5-12.5
		c-3.2-3.3-7.8-5.3-13.6-5.3L59.3,94.9z M59.3,95.9c5.5,0,9.8,1.9,12.8,4.9c3,3.3,4.7,7.5,4.7,12v0.3l0.2,0.1c0.2,0.1,1.7,1,2.1,3.9
		l1.4,10.9c0,0.2,0,0.4-0.1,0.6c-0.1,0.1-0.2,0.2-0.4,0.2h-2c-0.2,0-0.4,0-0.6-0.2c-0.2-0.2-0.3-0.5-0.4-0.7l-2.2-5.2
		c-0.6-1.4-1.8-2.4-3.3-2.7l0,0c-4.1-0.5-8.2-0.7-12.4-0.6c-4.1-0.1-8.3,0.1-12.4,0.6l0,0c-1.5,0.3-2.7,1.3-3.3,2.7l-2.1,5.3
		c-0.1,0.3-0.2,0.5-0.4,0.7c-0.2,0.1-0.4,0.2-0.6,0.2h-2c-0.1,0-0.3-0.1-0.4-0.2c-0.1-0.2-0.2-0.4-0.1-0.6l1.4-10.9
		c0.4-2.8,1.8-3.7,2.1-3.9l0.3-0.1V113c0-4.5,1.7-8.7,4.7-12c3-3,7.3-4.9,12.8-4.9L59.3,95.9z"/>
	<path style="clip-path:url(#SVGID_00000049944333282771947450000008428314204225464241_);fill:#1A1A1A;" d="M71.6,120.2l-0.1,1
		c1.4,0.1,2.7,0.4,3.9,1c1,0.5,1.7,1.5,2,2.6l1,3.4c0.1,0.4,0,0.6,0,0.6l-0.1,0.1l0.3,1c0.2-0.1,0.4-0.3,0.6-0.5
		c0.3-0.5,0.3-1,0.1-1.6l-1-3.4c-0.4-1.4-1.2-2.5-2.4-3.2C74.6,120.6,73.2,120.2,71.6,120.2L71.6,120.2z"/>
	
		<rect x="10.5" y="168.3" style="clip-path:url(#SVGID_00000049944333282771947450000008428314204225464241_);fill:#1A1A1A;" width="8.8" height="16"/>
	<path style="clip-path:url(#SVGID_00000049944333282771947450000008428314204225464241_);fill:#1A1A1A;" d="M4.8,144.1
		c0-1,0.8-1.8,1.8-1.8H10c1,0,1.8,0.8,1.8,1.8v1.9c0,1-0.8,1.8-1.8,1.8H6.7c-1,0-1.8-0.8-1.8-1.8V144.1z"/>
	
		<rect x="5.4" y="130.3" style="clip-path:url(#SVGID_00000049944333282771947450000008428314204225464241_);fill:#1A1A1A;" width="5.7" height="13.8"/>
	<path style="clip-path:url(#SVGID_00000049944333282771947450000008428314204225464241_);fill:#1A1A1A;" d="M2.4,130.3h6.7v6H5.4
		l-3-1.4L2.4,130.3z"/>
	<path style="clip-path:url(#SVGID_00000049944333282771947450000008428314204225464241_);fill:#1A1A1A;" d="M11.8,181
		c0-1,0.8-1.8,1.9-1.8h2.3c0.6,0,1.2,0.2,1.7,0.6c0.3,0.2,0.5,0.5,0.6,0.9l6.8,2.9c0.6,0.2,1,0.7,1.1,1.3c0.5,2.5-0.2,5.1-2,6.9
		c-0.5,0.5-1.3,0.6-1.9,0.3l-5.5-2.3l0,0l-0.7,0.4c-0.3,0.2-0.6,0.2-0.9,0.2H14c-1,0-1.8-0.8-1.8-1.8l-0.4-7.5
		C11.8,181.1,11.8,181.1,11.8,181L11.8,181z M15.6,183.3l0.1,2.9c0.8-0.2,1.7-0.1,2.5,0.2l4.2,1.7c0.2-0.5,0.3-1.1,0.3-1.6l-6.3-2.6
		C16.1,183.7,15.8,183.5,15.6,183.3L15.6,183.3z"/>
	<path style="clip-path:url(#SVGID_00000049944333282771947450000008428314204225464241_);fill:#1A1A1A;" d="M12.4,162l16.9-2.2
		l1.4,10.7l-17.4,2.3l-0.5-3.6l13.8-1.8l-0.5-3.4l-13.2,1.7L12.4,162z"/>
	<path style="clip-path:url(#SVGID_00000049944333282771947450000008428314204225464241_);fill:#1A1A1A;" d="M2.4,146.5
		c0-0.6,0.3-1.3,0.7-1.7c0.4-0.4,1-0.6,1.6-0.6h5.2c0.5,0,1,0,1.5,0.2c1.1,0.6,1.8,1.7,1.8,2.9v3.7l1.6,4.8c0.4,1.1,0.2,2.3-0.5,3.2
		l0.7,12.4l0.6,0.6v3.5l-0.3,0.3l0.8,14.5H8.3L2.4,187V146.5z M6.1,147.8v37l3.2,1.9h2.8l-0.6-12.2l0.4-0.4v-0.5l-0.5-0.5l-0.9-16.4
		l0.6-0.1l-1.6-4.9v-3.8H6.1z M10.1,147.8c0,0,0.1,0,0.1,0H10.1z"/>
	<path style="clip-path:url(#SVGID_00000049944333282771947450000008428314204225464241_);fill:#1A1A1A;" d="M5.6,191.9l0.5-0.5
		l0.8-0.8v-3.9h8.4l4.3,15.9c0.2,0.9,0,1.9-0.6,2.6c-0.6,0.6-1.5,0.9-2.4,0.8L8,204.8c-0.6-0.1-1.2-0.4-1.7-0.8
		c-0.5-0.5-0.7-1.2-0.7-1.9L5.6,191.9z M9.2,193.5v7.8l6.5,0.9l-3.2-11.7h-1.9v1.7L9.2,193.5z"/>
	
		<rect x="6.7" y="144.1" style="clip-path:url(#SVGID_00000049944333282771947450000008428314204225464241_);fill:#797979;" width="3.3" height="1.9"/>
	<path style="clip-path:url(#SVGID_00000049944333282771947450000008428314204225464241_);fill:#545454;" d="M4.2,132.1h3.1v2.3H5.8
		l-1.6-0.8V132.1z"/>
	
		<rect x="7.3" y="132.1" style="clip-path:url(#SVGID_00000049944333282771947450000008428314204225464241_);fill:#545454;" width="2.1" height="11.9"/>
	<path style="clip-path:url(#SVGID_00000049944333282771947450000008428314204225464241_);fill:#444444;" d="M13.6,180.9
		c0.6-1.2,1.1-1,1.8-1.3c1.3-0.5,1-2.4,1-2.4h-0.5c-0.5,0.8-0.6,1.1-1.8,1l-0.7-0.6L13.6,180.9z"/>
	<path style="clip-path:url(#SVGID_00000049944333282771947450000008428314204225464241_);fill:#444444;" d="M13.7,174.8h2.6v-1.4
		c0-0.4-0.3-0.6-0.7-0.6h-2L13.7,174.8z"/>
	<path style="clip-path:url(#SVGID_00000049944333282771947450000008428314204225464241_);fill:#EFA85D;" d="M13.6,181.1h2.3
		c0.8,0,0.6,0.9,1.2,1.2l7.2,3c0.5,1.8,0,3.8-1.4,5.1l-5.5-2.3c-0.5-0.3-1-0.3-1.5,0l-0.8,0.5H14L13.6,181.1z"/>
	<path style="clip-path:url(#SVGID_00000049944333282771947450000008428314204225464241_);fill:#636363;" d="M13.1,170.9l15.6-2.1
		l-0.9-7l-15,2L13.1,170.9z"/>
	<path style="clip-path:url(#SVGID_00000049944333282771947450000008428314204225464241_);fill:#797979;" d="M4.2,146.5
		c0-0.2,0.2-0.5,0.4-0.5c0,0,0,0,0.1,0H10c0.7-0.1,1.3,0.4,1.4,1c0,0.1,0,0.2,0,0.3v4l1.6,5.1c0.5,1.5-0.6,1.7-0.6,1.7l0.8,14.1
		l0.5,0.5v2l-0.4,0.4l0.7,13.3H8.8l-4.5-2.6V146.5z"/>
	<path style="clip-path:url(#SVGID_00000049944333282771947450000008428314204225464241_);fill:#A0A0A0;" d="M7.4,146v41.8l0.9,0.5
		V146H7.4z"/>
	<path style="clip-path:url(#SVGID_00000049944333282771947450000008428314204225464241_);fill:#545454;" d="M10,146
		c0.7-0.1,1.3,0.4,1.4,1c0,0.1,0,0.2,0,0.3v4l1.6,5.1c0.5,1.5-0.6,1.7-0.6,1.7l0.8,14.1l0.5,0.5v2l-0.4,0.4l0.7,13.3h-4V146z"/>
	<path style="clip-path:url(#SVGID_00000049944333282771947450000008428314204225464241_);fill:#545454;" d="M4.2,146.5
		c0-0.2,0.2-0.5,0.4-0.5c0,0,0,0,0.1,0h2v41.3l-2.4-1.4L4.2,146.5z"/>
	<path style="clip-path:url(#SVGID_00000049944333282771947450000008428314204225464241_);fill:#EFA85D;" d="M4.2,146.5
		c0-0.2,0.2-0.5,0.4-0.5c0,0,0,0,0.1,0H10c0.7-0.1,1.3,0.4,1.4,1c0,0.1,0,0.2,0,0.3v4l1.6,5.1c0.5,1.5-0.6,1.7-0.6,1.7H4.2V146.5z"
		/>
	
		<rect x="7.4" y="146" style="clip-path:url(#SVGID_00000049944333282771947450000008428314204225464241_);fill:#FDD083;" width="0.9" height="12.1"/>
	<path style="clip-path:url(#SVGID_00000049944333282771947450000008428314204225464241_);fill:#DC773D;" d="M10,158.1V146
		c0.7-0.1,1.3,0.4,1.4,1c0,0.1,0,0.2,0,0.3v4l1.6,5.1c0.5,1.5-0.6,1.7-0.6,1.7H10z"/>
	<path style="clip-path:url(#SVGID_00000049944333282771947450000008428314204225464241_);fill:#DC773D;" d="M4.2,146.5
		c0-0.2,0.2-0.5,0.4-0.5c0,0,0,0,0.1,0h2v12.1H4.2V146.5z"/>
	<path style="clip-path:url(#SVGID_00000049944333282771947450000008428314204225464241_);fill:#EFA85D;" d="M7.4,192.7l1.4-1.4
		v-2.8H14l3.9,14.5c0.1,0.4-0.1,0.9-0.5,1c-0.2,0-0.3,0-0.5,0l-8.7-1.1c-0.4,0-0.8-0.4-0.8-0.8c0,0,0-0.1,0-0.1V192.7z"/>
	<path style="clip-path:url(#SVGID_00000049944333282771947450000008428314204225464241_);fill:#1A1A1A;" d="M6.4,143.8h3.8v2.5H6.4
		V143.8z M6.9,144.3v1.4h2.8v-1.4H6.9z"/>
	<path style="clip-path:url(#SVGID_00000049944333282771947450000008428314204225464241_);fill:#1A1A1A;" d="M7,131.9h2.6v12.2H9.1
		v-11.7H7.5v11.7H7V131.9z"/>
	<path style="clip-path:url(#SVGID_00000049944333282771947450000008428314204225464241_);fill:#1A1A1A;" d="M4,131.9h3.5v2.8H5.8
		L4,133.8V131.9z M4.5,132.4v1.1l1.4,0.7H7v-1.8H4.5z"/>
	
		<rect x="6.4" y="146" style="clip-path:url(#SVGID_00000049944333282771947450000008428314204225464241_);fill:#1A1A1A;" width="0.5" height="41.3"/>
	
		<rect x="4.2" y="157.9" style="clip-path:url(#SVGID_00000049944333282771947450000008428314204225464241_);fill:#1A1A1A;" width="8.2" height="0.5"/>
	<path style="clip-path:url(#SVGID_00000049944333282771947450000008428314204225464241_);fill:#DC773D;" d="M13.6,181.1h2.2
		l0.9,6.8c-0.3,0-0.6,0-0.8,0.2l-0.8,0.5H14L13.6,181.1z"/>
	<path style="clip-path:url(#SVGID_00000049944333282771947450000008428314204225464241_);fill:#444444;" d="M15.9,180.8
		c0.3,0,0.5-0.1,0.8-0.2c0.2-0.2,0.3-0.5,0.3-0.8l0-4.1c0-0.4-0.1-0.5-0.3-0.5c-0.1,0-0.2-0.1-0.3-0.1v-0.5c0.2,0,0.4,0,0.5,0.1
		c0.4,0.2,0.6,0.6,0.6,1v4.1c0.1,0.5-0.1,0.9-0.5,1.3c-0.3,0.2-0.7,0.4-1.1,0.4L15.9,180.8z"/>
	<path style="clip-path:url(#SVGID_00000049944333282771947450000008428314204225464241_);fill:#1A1A1A;" d="M13.3,180.8h2.6
		c0.2,0,0.4,0.1,0.6,0.2c0.1,0.1,0.2,0.3,0.3,0.4c0.1,0.1,0.1,0.3,0.2,0.4c0,0.1,0.1,0.1,0.2,0.2l7.4,3v0.1c0.5,1.9-0.1,4-1.5,5.4
		l-0.1,0.1l-5.6-2.3c-0.4-0.2-0.9-0.2-1.3,0l-0.9,0.5h-1.4L13.3,180.8z M13.9,181.3l0.3,7H15l0.7-0.4c0.5-0.3,1.2-0.3,1.8,0l5.3,2.2
		c1.2-1.2,1.6-3,1.2-4.6l-7-3c-0.2-0.1-0.3-0.2-0.4-0.4c-0.1-0.1-0.1-0.3-0.2-0.4c0-0.1-0.1-0.2-0.2-0.3c-0.1-0.1-0.2-0.1-0.3-0.1
		H13.9z"/>
	<path style="clip-path:url(#SVGID_00000049944333282771947450000008428314204225464241_);fill:#444444;" d="M13.7,172.6h2
		c0.2,0,0.5,0.1,0.7,0.2c0.2,0.2,0.3,0.4,0.3,0.7v1.6h-2.9v-0.5H16v-1.1c0-0.2,0-0.2-0.1-0.3c-0.1-0.1-0.2-0.1-0.3-0.1h-2
		L13.7,172.6z"/>
	<path style="clip-path:url(#SVGID_00000049944333282771947450000008428314204225464241_);fill:#1A1A1A;" d="M13.2,177.9l0.3-0.4
		l0.6,0.5c0.3,0.1,0.6,0,0.9-0.1c0.2-0.2,0.4-0.5,0.5-0.8l0.1-0.1h0.9v0.2c0.1,0.4,0.1,0.7,0,1.1c-0.1,0.7-0.5,1.3-1.2,1.6
		c-0.4,0.2-0.7,0.2-0.9,0.3s-0.4,0.3-0.7,0.9l-0.5-0.2c0.2-0.5,0.5-0.9,1-1.1c0.3-0.1,0.6-0.1,0.9-0.3c0.5-0.2,0.8-0.7,0.8-1.2
		c0-0.2,0.1-0.4,0-0.7H16c-0.1,0.3-0.4,0.6-0.6,0.8c-0.4,0.2-0.9,0.3-1.3,0.2H14L13.2,177.9z"/>
	<path style="clip-path:url(#SVGID_00000049944333282771947450000008428314204225464241_);fill:#797979;" d="M11.4,176.6
		c0.3,0,0.6-0.3,0.6-0.6c0-0.3-0.3-0.6-0.6-0.6c-0.3,0-0.6,0.3-0.6,0.6c0,0.2,0.1,0.3,0.2,0.5C11.1,176.6,11.3,176.7,11.4,176.6z"/>
	<path style="clip-path:url(#SVGID_00000049944333282771947450000008428314204225464241_);fill:#797979;" d="M11.4,180.8
		c0.3,0,0.6-0.3,0.6-0.6c0-0.3-0.3-0.6-0.6-0.6c-0.2,0-0.3,0.1-0.4,0.2c-0.2,0.2-0.3,0.6,0,0.9C11.1,180.7,11.3,180.8,11.4,180.8z"
		/>
	<path style="clip-path:url(#SVGID_00000049944333282771947450000008428314204225464241_);fill:#444444;" d="M12.7,163.8l2.5-0.3
		l0.9,7l-3,0.4L12.7,163.8z"/>
	<path style="clip-path:url(#SVGID_00000049944333282771947450000008428314204225464241_);fill:#3D3D3D;" d="M25.8,162.1l1.9-0.2
		l0.9,7l-1.9,0.2L25.8,162.1z"/>
	<path style="clip-path:url(#SVGID_00000049944333282771947450000008428314204225464241_);fill:#1A1A1A;" d="M12.7,163.6l15.3-2
		l1,7.5l-15.9,2.1l-0.1-0.5l15.3-2l-0.9-6.5l-14.8,2L12.7,163.6z"/>
	<path style="clip-path:url(#SVGID_00000049944333282771947450000008428314204225464241_);fill:#1A1A1A;" d="M4,146.5
		c0-0.2,0.1-0.4,0.2-0.6c0.1-0.1,0.3-0.2,0.5-0.2h5.2c0.3,0,0.6,0,0.8,0.1c0.6,0.3,0.9,0.9,0.9,1.5v4l1.7,5c0.3,0.6,0.2,1.2-0.2,1.7
		c-0.1,0.1-0.3,0.2-0.4,0.3l0.7,13.9l0.5,0.5v2.2l-0.4,0.4l0.7,13.5H8.7L4,186.1V146.5z M4.5,146.5v39.3l4.3,2.5h4.9L13,175.1
		l0.4-0.4v-1.8l-0.5-0.5l-0.8-14.5l0.2-0.1c0.1,0,0.3-0.1,0.4-0.2c0.2-0.2,0.3-0.5,0.1-1.2l-1.7-5.1v-4.1c0-0.7-0.2-0.9-0.5-1
		c-0.2-0.1-0.4-0.1-0.6-0.1H4.7c-0.1,0-0.1,0-0.2,0.1C4.5,146.3,4.5,146.4,4.5,146.5L4.5,146.5z"/>
	<path style="clip-path:url(#SVGID_00000049944333282771947450000008428314204225464241_);fill:#DC773D;" d="M8.8,188.5H14l3.9,14.5
		c0.1,0.4-0.1,0.9-0.5,1c-0.2,0-0.3,0-0.5,0l-1.6-0.2c0.3-0.2,0.5-0.6,0.4-0.9l-3-14.4L8.8,188.5L8.8,188.5z"/>
	<path style="clip-path:url(#SVGID_00000049944333282771947450000008428314204225464241_);fill:#FDD083;" d="M7.4,192.7l1.4-1.4
		v-2.8h1.2v3.3l-1.4,1.4v9.4c0,0.1,0,0.2,0,0.4l-0.4-0.1c-0.4,0-0.8-0.4-0.8-0.8c0,0,0-0.1,0-0.1L7.4,192.7z"/>
	<path style="clip-path:url(#SVGID_00000049944333282771947450000008428314204225464241_);fill:#1A1A1A;" d="M7.1,192.6L7.1,192.6
		l1.4-1.4v-3h5.6l4,14.7c0.1,0.4,0,0.8-0.2,1.1c-0.3,0.3-0.6,0.4-1,0.3l-8.7-1.1c-0.3,0-0.6-0.1-0.8-0.3c-0.2-0.2-0.3-0.5-0.3-0.8
		L7.1,192.6z M7.7,192.8v9.2c0,0.2,0,0.3,0.1,0.5c0.1,0.1,0.3,0.2,0.4,0.2l8.8,1.2c0.2,0,0.4,0,0.6-0.1c0.1-0.2,0.2-0.4,0.1-0.6
		l-3.9-14.3H9v2.6L7.7,192.8z"/>
	<path style="clip-path:url(#SVGID_00000049944333282771947450000008428314204225464241_);fill:#1A1A1A;" d="M25.6,162.1l0.5-0.1
		l0.9,7l-0.5,0.1L25.6,162.1z"/>
	<path style="clip-path:url(#SVGID_00000049944333282771947450000008428314204225464241_);fill:#1A1A1A;" d="M10.6,176
		c0-0.5,0.4-0.9,0.9-0.9s0.9,0.4,0.9,0.9c0,0.5-0.4,0.9-0.9,0.9c0,0,0,0,0,0C11,176.9,10.6,176.5,10.6,176z M11.1,176
		c0,0.2,0.2,0.4,0.3,0.4c0,0,0,0,0,0c0.2,0,0.4-0.2,0.4-0.4c0-0.2-0.2-0.4-0.4-0.4C11.3,175.6,11.1,175.8,11.1,176
		C11.1,176,11.1,176,11.1,176L11.1,176z"/>
	<path style="clip-path:url(#SVGID_00000049944333282771947450000008428314204225464241_);fill:#1A1A1A;" d="M10.6,180.2
		c0-0.5,0.4-0.9,0.9-0.9s0.9,0.4,0.9,0.9c0,0.5-0.4,0.9-0.9,0.9c0,0,0,0,0,0C11,181.1,10.6,180.7,10.6,180.2z M11.1,180.2
		c0,0.2,0.2,0.4,0.3,0.4c0,0,0,0,0,0c0.2,0,0.4-0.2,0.4-0.4c0-0.2-0.2-0.4-0.4-0.4C11.3,179.8,11.1,180,11.1,180.2
		C11.1,180.2,11.1,180.2,11.1,180.2L11.1,180.2z"/>
	<path style="clip-path:url(#SVGID_00000049944333282771947450000008428314204225464241_);fill:#EB5A53;" d="M146.7,183.3
		c0-6.2,2.7-7.5,4.6-7.5s4.6,1.2,4.6,7.5s-2.1,15.1-4.6,15.1S146.7,189.5,146.7,183.3z"/>
	<path style="clip-path:url(#SVGID_00000049944333282771947450000008428314204225464241_);fill:#1A1A1A;" d="M151.3,174.5
		c-1.5,0-3,0.7-4,1.9c-1.2,1.4-1.9,3.6-1.9,6.9c0,3.5,0.5,6.9,1.4,10.2c0.4,1.4,0.9,2.7,1.6,4c0.7,1.1,1.5,2.1,2.9,2.1
		c1.3-0.1,2.4-0.9,2.9-2.1c0.7-1.3,1.3-2.6,1.6-4c0.9-3.3,1.4-6.8,1.4-10.2c0-3.3-0.7-5.5-1.9-6.9
		C154.4,175.2,152.9,174.5,151.3,174.5L151.3,174.5z M151.3,177.1c0.8,0,1.5,0.3,2,0.9c0.7,0.8,1.3,2.3,1.3,5.2
		c0,3.2-0.5,6.4-1.3,9.5c-0.3,1.2-0.8,2.3-1.3,3.4c-0.2,0.3-0.4,0.6-0.7,0.8c-0.3-0.2-0.5-0.5-0.7-0.8c-0.6-1.1-1-2.2-1.3-3.4
		c-0.8-3.1-1.3-6.3-1.3-9.5c0-2.9,0.6-4.5,1.3-5.2C149.7,177.4,150.5,177.1,151.3,177.1L151.3,177.1z"/>
	<path style="clip-path:url(#SVGID_00000049944333282771947450000008428314204225464241_);fill:#EB5A53;" d="M123.2,183.3
		c0-6.2,2.7-7.5,4.6-7.5c1.9,0,4.6,1.2,4.6,7.5s-2.1,15.1-4.6,15.1S123.2,189.5,123.2,183.3z"/>
	<path style="clip-path:url(#SVGID_00000049944333282771947450000008428314204225464241_);fill:#1A1A1A;" d="M127.9,174.5
		c-1.5,0-3,0.7-4,1.9c-1.2,1.4-1.9,3.6-1.9,6.9c0,3.5,0.5,6.9,1.4,10.2c0.4,1.4,0.9,2.7,1.6,4c0.7,1.1,1.5,2.1,2.9,2.1
		c1.4,0,2.3-1,2.9-2.1c0.7-1.3,1.2-2.6,1.6-4c0.9-3.3,1.4-6.8,1.4-10.2c0-3.3-0.7-5.5-1.9-6.9C130.9,175.2,129.4,174.5,127.9,174.5
		L127.9,174.5z M127.9,177.1c0.8,0,1.5,0.3,2,0.9c0.7,0.8,1.3,2.3,1.3,5.2c0,3.2-0.5,6.4-1.3,9.5c-0.3,1.2-0.8,2.3-1.3,3.4
		c-0.2,0.3-0.4,0.6-0.7,0.8c-0.3-0.2-0.5-0.5-0.7-0.8c-0.6-1.1-1-2.2-1.3-3.4c-0.8-3.1-1.3-6.3-1.3-9.5c0-2.9,0.6-4.5,1.3-5.2
		C126.3,177.4,127,177.1,127.9,177.1L127.9,177.1z"/>
	<path style="clip-path:url(#SVGID_00000049944333282771947450000008428314204225464241_);fill:#EB5A53;" d="M172.5,157.1
		c-6.2,0-7.5-2.7-7.5-4.6s1.2-4.6,7.5-4.6s15.1,2.1,15.1,4.6S178.7,157.1,172.5,157.1L172.5,157.1z"/>
	<path style="clip-path:url(#SVGID_00000049944333282771947450000008428314204225464241_);fill:#1A1A1A;" d="M163.7,152.5
		c0,1.5,0.7,3,1.9,4c1.4,1.2,3.6,1.9,6.9,1.9c3.5,0,6.9-0.5,10.2-1.4c1.4-0.4,2.7-0.9,4-1.6c1.6-0.5,2.5-2.3,2-3.9
		c-0.3-0.9-1-1.6-2-2c-1.3-0.7-2.6-1.2-4-1.6c-3.3-0.9-6.8-1.4-10.2-1.4c-3.3,0-5.5,0.7-6.9,1.9
		C164.4,149.5,163.7,150.9,163.7,152.5L163.7,152.5z M166.3,152.5c0-0.8,0.3-1.5,0.9-2c0.8-0.6,2.3-1.3,5.2-1.3
		c3.2,0,6.4,0.5,9.5,1.3c1.2,0.3,2.3,0.8,3.4,1.3c0.3,0.2,0.6,0.4,0.8,0.7c-0.2,0.3-0.5,0.5-0.8,0.7c-1.1,0.6-2.2,1-3.4,1.3
		c-3.1,0.8-6.3,1.3-9.5,1.3c-2.9,0-4.5-0.6-5.2-1.3C166.6,154.1,166.3,153.3,166.3,152.5L166.3,152.5z"/>
	<path style="clip-path:url(#SVGID_00000049944333282771947450000008428314204225464241_);fill:#EB5A53;" d="M101.6,149.4
		c2.4-5.8,5.4-5.9,7.1-5.1s3.8,2.9,1.4,8.7s-7.7,13.1-10.1,12.2S99.2,155.2,101.6,149.4z"/>
	<path style="clip-path:url(#SVGID_00000049944333282771947450000008428314204225464241_);fill:#1A1A1A;" d="M109.2,143.1
		c-1.4-0.6-3.1-0.5-4.4,0.2c-1.6,0.8-3.2,2.6-4.4,5.6c-1.3,3.2-2.2,6.6-2.6,10c-0.2,1.4-0.2,2.9-0.1,4.4c-0.1,1.7,1.1,3.2,2.8,3.3
		c1,0.1,1.9-0.3,2.6-1.1c1.1-0.9,2.1-1.9,3-3.1c2.1-2.7,3.9-5.7,5.2-8.9c1.3-3.1,1.4-5.4,0.9-7.1
		C111.7,144.9,110.6,143.7,109.2,143.1L109.2,143.1z M108.2,145.5c0.7,0.3,1.3,0.9,1.5,1.7c0.3,1,0.3,2.6-0.8,5.3
		c-1.3,3-2.9,5.7-4.8,8.3c-0.7,1-1.6,1.9-2.6,2.6c-0.3,0.2-0.6,0.4-1,0.5c-0.2-0.3-0.3-0.6-0.3-1c-0.1-1.2-0.1-2.4,0.1-3.7
		c0.4-3.2,1.2-6.3,2.4-9.3c1.1-2.7,2.3-3.9,3.2-4.3C106.6,145.2,107.5,145.2,108.2,145.5L108.2,145.5z"/>
	<path style="clip-path:url(#SVGID_00000049944333282771947450000008428314204225464241_);fill:#1A1A1A;" d="M139.6,116.2
		c-20.1,0-36.3,16.3-36.3,36.3s16.3,36.3,36.3,36.3c20.1,0,36.3-16.3,36.3-36.3C175.9,132.4,159.6,116.2,139.6,116.2z M139.6,120.3
		c17.8,0,32.2,14.4,32.2,32.2s-14.4,32.2-32.2,32.2s-32.2-14.4-32.2-32.2C107.4,134.7,121.7,120.3,139.6,120.3
		C139.5,120.3,139.6,120.3,139.6,120.3z"/>
	<path style="clip-path:url(#SVGID_00000049944333282771947450000008428314204225464241_);fill:#FFFFFF;" d="M105.3,152.5
		c0-18.9,15.4-34.2,34.3-34.2s34.2,15.4,34.2,34.3c0,18.9-15.4,34.2-34.3,34.2c-9.1,0-17.8-3.6-24.2-10.1
		C108.9,170.3,105.3,161.6,105.3,152.5z"/>
	<path style="clip-path:url(#SVGID_00000049944333282771947450000008428314204225464241_);fill:#FFFFFF;" d="M109.7,150.7
		c0-17.5,14.2-31.7,31.6-31.7c17.5,0,31.7,14.2,31.7,31.6s-14.2,31.7-31.6,31.7c-8.4,0-16.5-3.3-22.4-9.2
		C113.1,167.2,109.7,159.1,109.7,150.7L109.7,150.7z"/>
	<path style="clip-path:url(#SVGID_00000049944333282771947450000008428314204225464241_);fill:#EB5A53;" d="M105.3,152.5
		c0.3,18.9,15.9,34,34.8,33.7c18.5-0.3,33.4-15.2,33.7-33.7H105.3z"/>
	<path style="clip-path:url(#SVGID_00000049944333282771947450000008428314204225464241_);fill:#EB5A53;" d="M109.8,152.5
		c0.9,17.5,15.8,30.8,33.3,29.9c16.2-0.9,29.1-13.8,29.9-29.9H109.8z"/>
	<path style="clip-path:url(#SVGID_00000049944333282771947450000008428314204225464241_);fill:#1A1A1A;" d="M139.6,117.7
		c-19.2,0-34.8,15.6-34.8,34.8s15.6,34.8,34.8,34.8s34.8-15.6,34.8-34.8C174.3,133.3,158.8,117.7,139.6,117.7z M139.6,118.7
		c18.6,0,33.7,15.1,33.8,33.7s-15.1,33.7-33.7,33.8s-33.7-15.1-33.8-33.7c0,0,0,0,0,0C105.9,133.8,121,118.7,139.6,118.7z"/>
	<path style="clip-path:url(#SVGID_00000049944333282771947450000008428314204225464241_);fill:#1A1A1A;" d="M150.6,140.1
		c2.9,0,5.3,2.4,5.3,5.3c0,0,0,0,0,0v2.7c-0.1,2.9-2.6,5.2-5.6,5.1c-2.8-0.1-5-2.3-5.1-5.1v-2.7
		C145.2,142.5,147.6,140.1,150.6,140.1C150.6,140.1,150.6,140.1,150.6,140.1z"/>
	<path style="clip-path:url(#SVGID_00000049944333282771947450000008428314204225464241_);fill:#FFFFFF;" d="M147.5,143.9
		c0-0.9,0.8-1.7,1.7-1.7s1.7,0.8,1.7,1.7c0,0.9-0.8,1.7-1.7,1.7c-0.5,0-0.9-0.2-1.2-0.5C147.7,144.8,147.5,144.4,147.5,143.9z"/>
	<path style="clip-path:url(#SVGID_00000049944333282771947450000008428314204225464241_);fill:#1A1A1A;" d="M128.6,140.1
		c2.9,0,5.3,2.4,5.3,5.3c0,0,0,0,0,0v2.7c-0.1,2.9-2.6,5.2-5.6,5.1c-2.8-0.1-5-2.3-5.1-5.1v-2.7
		C123.2,142.5,125.6,140.1,128.6,140.1C128.6,140.1,128.6,140.1,128.6,140.1z"/>
	<path style="clip-path:url(#SVGID_00000049944333282771947450000008428314204225464241_);fill:#FFFFFF;" d="M125.5,143.9
		c-0.1-1,0.6-1.8,1.6-1.9c1-0.1,1.8,0.6,1.9,1.6c0,0.1,0,0.2,0,0.3c-0.1,1-0.9,1.7-1.9,1.6C126.2,145.4,125.5,144.8,125.5,143.9z"/>
	<path style="clip-path:url(#SVGID_00000049944333282771947450000008428314204225464241_);fill:#AF1739;" d="M133.9,155
		c-0.7,0-1.2,0.5-1.2,1.2v1.3c0.1,3.8,3.3,6.7,7.1,6.6c3.6-0.1,6.5-3,6.6-6.6v-1.3c0-0.7-0.5-1.2-1.2-1.2c0,0,0,0,0,0H133.9z"/>
	<path style="clip-path:url(#SVGID_00000049944333282771947450000008428314204225464241_);fill:#EB5775;" d="M139.6,159.7
		c-2,0-3.9,0.9-5.2,2.4c2.5,2.9,6.8,3.2,9.7,0.7c0.2-0.2,0.5-0.4,0.7-0.7C143.5,160.5,141.6,159.7,139.6,159.7L139.6,159.7z"/>
	<path style="clip-path:url(#SVGID_00000049944333282771947450000008428314204225464241_);fill:#FFFFFF;" d="M133.9,155
		c-0.7,0-1.2,0.5-1.2,1.2v1.2c4.3,2.1,9.4,2.1,13.7,0v-1.2c0-0.7-0.5-1.2-1.2-1.2c0,0,0,0,0,0H133.9z"/>
	<path style="clip-path:url(#SVGID_00000049944333282771947450000008428314204225464241_);fill:#BADBE9;" d="M144.6,155v1.8
		c0,0.7-0.1,1.1-0.6,1.4c0.8-0.2,1.6-0.5,2.4-0.9v-1.2c0-0.7-0.5-1.2-1.2-1.2c0,0,0,0,0,0L144.6,155z"/>
	<path style="clip-path:url(#SVGID_00000049944333282771947450000008428314204225464241_);fill:#BADBE9;" d="M133.9,155
		c-0.7,0-1.2,0.5-1.2,1.2v1.2c1.5,0.7,3.1,1.2,4.7,1.4c-0.8-0.2-1-1-1-1.9V155H133.9z"/>
	<path style="clip-path:url(#SVGID_00000049944333282771947450000008428314204225464241_);fill:#8BB0CC;" d="M134.6,155v1.8
		c0,0.7,0.1,1.1,0.6,1.4c-0.8-0.2-1.6-0.5-2.4-0.9v-1.2c0-0.7,0.5-1.2,1.2-1.2l0,0H134.6z"/>
	<path style="clip-path:url(#SVGID_00000049944333282771947450000008428314204225464241_);fill:#1A1A1A;" d="M133.9,154.5
		c-0.9,0-1.7,0.8-1.7,1.7v1.3c0.2,4.1,3.6,7.3,7.7,7.1c3.9-0.1,7-3.2,7.1-7.1v-1.3c0-0.9-0.8-1.7-1.7-1.7H133.9z M145.3,155.5
		c0.4,0,0.7,0.3,0.7,0.6c0,0,0,0,0,0v1.3c0.1,3.5-2.6,6.5-6.1,6.6s-6.5-2.6-6.6-6.1c0-0.2,0-0.3,0-0.5v-1.3c0-0.4,0.3-0.7,0.6-0.7
		c0,0,0,0,0,0H145.3z"/>
	<path style="clip-path:url(#SVGID_00000049944333282771947450000008428314204225464241_);fill:#1A1A1A;" d="M146.5,157.1
		c-4.4,2.1-9.4,2.1-13.8,0l-0.2,0.5c4.5,2.2,9.8,2.2,14.2,0L146.5,157.1L146.5,157.1z"/>
	<path style="clip-path:url(#SVGID_00000049944333282771947450000008428314204225464241_);fill:#F293A2;" d="M140.3,161.5
		c0-0.2,0.1-0.4,0.3-0.6c0.2-0.2,0.5-0.2,0.8-0.2c0.6,0,1.1,0.4,1.1,0.8s-0.5,0.8-1.1,0.8c-0.3,0-0.6-0.1-0.8-0.2
		C140.5,162,140.4,161.8,140.3,161.5L140.3,161.5z"/>
	<path style="clip-path:url(#SVGID_00000049944333282771947450000008428314204225464241_);fill:#1A1A1A;" d="M139.6,94.5
		c-5.9,0-10.8,2.1-14.1,5.5c-3.2,3.4-5,7.8-5.2,12.5c-1.3,1.3-2.1,3-2.3,4.8l-1.4,10.7c-0.1,0.8,0.1,1.5,0.6,2.1
		c0.5,0.6,1.2,0.9,2,0.9h2c0.7,0,1.4-0.3,2-0.7c0.4-0.4,0.7-0.8,0.9-1.3l2.2-5.1c0.6-1.5,1.5-1.4,1.5-1.4h0.1
		c3.9-0.4,7.9-0.6,11.9-0.5c4-0.1,7.9,0.1,11.9,0.5h0.1c0,0,0.8-0.1,1.5,1.4l2.2,5.1c0.2,0.5,0.5,1,0.9,1.4c0.6,0.5,1.3,0.7,2,0.7h2
		c0.8,0,1.5-0.3,2-0.9c0.5-0.6,0.7-1.4,0.6-2.1l-1.4-10.7c-0.2-1.8-1-3.5-2.3-4.8c-0.2-4.7-2.1-9.1-5.3-12.6
		C150.4,96.6,145.5,94.5,139.6,94.5L139.6,94.5z M139.6,97.6c5.2,0,9.1,1.8,11.9,4.6c2.8,3,4.4,7,4.4,11.2v0.9l0.8,0.4
		c0,0,1.2,0.6,1.5,3l1.4,10.4h-1.3c0-0.1-0.1-0.2-0.1-0.2l-2.2-5.1c-0.7-1.7-2.3-2.9-4.1-3.3h0.1c-4.1-0.5-8.2-0.6-12.4-0.6
		c-4.1-0.1-8.3,0.1-12.3,0.6h0.1c-1.8,0.4-3.3,1.6-4.1,3.3l-2.2,5.1c0,0.1-0.1,0.2-0.1,0.2h-1.3l1.3-10.3c0.3-2.5,1.5-3,1.5-3
		l0.8-0.4v-0.9c0-4.1,1.6-8.1,4.4-11.2C130.4,99.4,134.3,97.7,139.6,97.6L139.6,97.6z"/>
	<path style="clip-path:url(#SVGID_00000049944333282771947450000008428314204225464241_);fill:#797E58;" d="M127.5,120.9
		c4-0.4,8.1-0.6,12.1-0.6c4-0.1,8.1,0.1,12.1,0.6c1.3,0.2,2.3,1.1,2.8,2.3l2.2,5.1c0.3,0.7,0.6,1.2,1.5,1.2h2c0.6,0,1.1-0.5,1-1.1
		c0-0.1,0-0.2,0-0.2l-1.4-10.7c-0.4-3-2-4-2.3-4.2c-0.2-9.6-6.6-17.2-17.8-17.2s-17.6,7.7-17.8,17.2c-0.3,0.2-1.9,1.2-2.3,4.2
		l-1.4,10.7c-0.1,0.6,0.2,1.2,0.8,1.3c0.1,0,0.2,0,0.2,0h2c0.8,0,1.2-0.5,1.5-1.2l2.2-5.1C125.1,122,126.2,121.1,127.5,120.9
		L127.5,120.9z"/>
	<path style="clip-path:url(#SVGID_00000049944333282771947450000008428314204225464241_);fill:#A0A472;" d="M143.2,120.4
		c2.8,0,5.7,0.2,8.5,0.5c1.3,0.2,2.3,1.1,2.8,2.3l2.2,5.1c0.3,0.7,0.6,1.2,1.4,1.2h2c0.6,0,1.1-0.5,1-1.1c0-0.1,0-0.2,0-0.2
		l-1.4-10.7c0,0,0-0.1,0-0.1l-16.5-2.4V120.4z"/>
	<path style="clip-path:url(#SVGID_00000049944333282771947450000008428314204225464241_);fill:#A0A472;" d="M139.6,96.1
		c-10.1,1.3-12.6,10.5-10.2,19.7c2.5-0.2,7.6-0.4,10.2-0.4h0.1c6.7,0,13.4,0.8,20,2.3v-0.2c-0.4-3-2-4-2.3-4.2
		C157.1,103.7,150.7,96.1,139.6,96.1L139.6,96.1z"/>
	<path style="clip-path:url(#SVGID_00000049944333282771947450000008428314204225464241_);fill:#B9BAA1;" d="M152.6,116.3l7.1,1.3
		v-0.1c-0.4-3-2-4-2.3-4.2c0-1.2-0.2-2.4-0.4-3.6L152.6,116.3z"/>
	<path style="clip-path:url(#SVGID_00000049944333282771947450000008428314204225464241_);fill:#C0C099;" d="M150.1,99
		c-8,1.1-9.7,12.1-3.9,16.6c2.1,0.2,4.3,0.4,6.4,0.7c1.9-0.5,3.6-1.7,4.8-3.3C157.2,107.2,154.6,102,150.1,99z"/>
	<path style="clip-path:url(#SVGID_00000049944333282771947450000008428314204225464241_);fill:#A0A472;" d="M139.6,111
		c-6,0-12,0.8-17.8,2.3c-0.3,0.2-1.8,1.2-2.3,4h0.3c6.5-1.4,13.1-2.1,19.8-2.1h0.1c6.7,0,13.4,0.8,20,2.2c-0.4-2.8-1.9-3.9-2.3-4
		C151.6,111.9,145.6,111.1,139.6,111L139.6,111z"/>
	<path style="clip-path:url(#SVGID_00000049944333282771947450000008428314204225464241_);fill:#5B6045;" d="M119.5,117.6l-1.4,10.6
		c-0.1,0.6,0.2,1.2,0.8,1.3c0.1,0,0.2,0,0.2,0h2c0.8,0,1.1-0.5,1.5-1.2l2.2-5.1c0.4-1.2,1.5-2.1,2.8-2.3c0,0,1.4-0.2,4.5-0.4v-4.9
		L119.5,117.6z"/>
	<path style="clip-path:url(#SVGID_00000049944333282771947450000008428314204225464241_);fill:#797E58;" d="M139.6,118.7
		c-4-0.1-8.1,0.1-12.1,0.6c-3.9,0.5-6.9,1.6-7.7,5.2l-0.8,3.7c-0.2,1.1,0.4,1.3,0.4,1.3h1.8c0.8,0,1.1-0.5,1.5-1.2l2.2-5.1
		c0.4-1.2,1.5-2.1,2.8-2.3c4-0.4,8.1-0.6,12.1-0.6c4-0.1,8.1,0.1,12.1,0.6c1.3,0.2,2.3,1.1,2.8,2.3l2.2,5.1c0.3,0.7,0.6,1.2,1.5,1.2
		h1.8c0,0,0.6-0.2,0.4-1.3l-0.8-3.7c-0.8-3.6-3.8-4.7-7.7-5.2C147.7,118.8,143.6,118.7,139.6,118.7z"/>
	<path style="clip-path:url(#SVGID_00000049944333282771947450000008428314204225464241_);fill:#73554C;" d="M139.6,113.1
		c-6.6,0-13.1,0.8-19.5,2.3c-0.3,0.7-0.5,1.4-0.6,2.1l-0.2,1.3c6.6-1.7,13.4-2.6,20.3-2.6l0,0c6.8,0,13.6,0.9,20.2,2.6l-0.2-1.3
		c-0.1-0.7-0.3-1.4-0.6-2.1C152.7,113.9,146.2,113.1,139.6,113.1L139.6,113.1z"/>
	<path style="clip-path:url(#SVGID_00000049944333282771947450000008428314204225464241_);fill:#454A3D;" d="M151.8,120.9
		c1.2,0.2,2.3,1.1,2.7,2.3l2.2,5.1c0.3,0.7,0.6,1.2,1.5,1.2h0.4c0,0,0.7-0.2,0.4-1.3l-1-3.4C157.1,122.1,155.1,121.4,151.8,120.9
		L151.8,120.9z"/>
	<path style="clip-path:url(#SVGID_00000049944333282771947450000008428314204225464241_);fill:#543D3B;" d="M131.1,113.5
		c-3.7,0.4-7.4,1-11.1,1.9c-0.3,0.7-0.5,1.4-0.6,2.1l-0.2,1.3c3.9-1,7.8-1.7,11.8-2.1V113.5z"/>
	<path style="clip-path:url(#SVGID_00000049944333282771947450000008428314204225464241_);fill:#1A1A1A;" d="M139.6,112.6
		c-6.6,0-13.2,0.8-19.6,2.3l0.2,1c6.4-1.5,12.9-2.3,19.4-2.3h0.1c6.5,0,13,0.8,19.3,2.3l0.2-1C152.8,113.4,146.3,112.6,139.6,112.6
		L139.6,112.6z"/>
	<path style="clip-path:url(#SVGID_00000049944333282771947450000008428314204225464241_);fill:#1A1A1A;" d="M139.6,115.7
		c-6.9,0-13.7,0.9-20.4,2.6l0.3,1c6.6-1.7,13.3-2.6,20.1-2.6l0,0c6.8,0,13.5,0.9,20.1,2.6l0.3-1
		C153.3,116.6,146.4,115.7,139.6,115.7z"/>
	<path style="clip-path:url(#SVGID_00000049944333282771947450000008428314204225464241_);fill:#1A1A1A;" d="M151.6,121.4
		c1.3,0.1,2.7,0.4,3.9,1c1,0.5,1.7,1.5,1.9,2.5l1,3.4c0.1,0.4,0,0.6,0,0.6s-0.1,0.1-0.1,0.1l0.3,1c0.2-0.1,0.4-0.2,0.6-0.4
		c0.3-0.5,0.3-1,0.1-1.5l-1-3.4c-0.3-1.3-1.2-2.5-2.4-3.1c-1.3-0.6-2.8-1-4.2-1.2L151.6,121.4z"/>
	<path style="clip-path:url(#SVGID_00000049944333282771947450000008428314204225464241_);fill:#454A3D;" d="M127.5,120.9
		c-1.2,0.3-2.2,1.1-2.7,2.3l-2.2,5.1c-0.3,0.7-0.6,1.2-1.4,1.2h-0.4c0,0-0.7-0.2-0.4-1.3l1-3.4C122.2,122.1,124.2,121.4,127.5,120.9
		L127.5,120.9z"/>
	<path style="clip-path:url(#SVGID_00000049944333282771947450000008428314204225464241_);fill:#1A1A1A;" d="M139.6,95.6
		c-5.7,0-10.2,2-13.4,5.2c-3.1,3.3-4.9,7.7-4.9,12.3c-1.4,1.1-2.2,2.7-2.3,4.4l-1.4,10.7c-0.1,0.5,0,1,0.3,1.4
		c0.3,0.4,0.7,0.6,1.2,0.6h2c0.5,0,0.9-0.1,1.3-0.4c0.3-0.3,0.5-0.7,0.7-1.1l2.2-5.1c0.3-1.1,1.2-1.8,2.3-2l0,0c4-0.4,8-0.6,12-0.6
		c4-0.1,8,0.1,12,0.6l0,0c1.1,0.2,2,0.9,2.3,2l2.2,5.1c0.1,0.4,0.4,0.7,0.6,1.1c0.4,0.3,0.8,0.5,1.3,0.4h2c0.5,0,0.9-0.2,1.2-0.6
		c0.3-0.4,0.4-0.9,0.3-1.4l-1.4-10.7c-0.1-1.7-0.9-3.3-2.3-4.4c-0.1-4.6-1.8-8.9-4.9-12.3c-3.1-3.2-7.7-5.2-13.4-5.2L139.6,95.6z
		 M139.6,96.6c5.5,0,9.7,1.9,12.6,4.9c3,3.2,4.7,7.5,4.7,11.8v0.3l0.2,0.1c0.2,0.1,1.7,1,2,3.8l1.4,10.7c0,0.2,0,0.4-0.1,0.6
		c-0.1,0.1-0.2,0.2-0.4,0.2h-2c-0.2,0-0.4,0-0.6-0.2c-0.2-0.2-0.3-0.4-0.4-0.7L155,123c-0.5-1.4-1.8-2.4-3.2-2.6l0,0
		c-4-0.5-8.1-0.6-12.2-0.6c-4.1-0.1-8.2,0.1-12.2,0.6l0,0c-1.5,0.3-2.7,1.3-3.2,2.6l-2.2,5.1c-0.1,0.3-0.2,0.5-0.4,0.7
		c-0.2,0.1-0.4,0.2-0.6,0.2h-2c-0.1,0-0.3-0.1-0.4-0.2c-0.1-0.2-0.2-0.4-0.1-0.6l1.5-10.7c0.4-2.8,1.8-3.7,2-3.8l0.3-0.1v-0.3
		c0-4.4,1.7-8.6,4.7-11.8C129.9,98.5,134.2,96.6,139.6,96.6L139.6,96.6z"/>
	<path style="clip-path:url(#SVGID_00000049944333282771947450000008428314204225464241_);fill:#1A1A1A;" d="M127.4,120.4
		c-1.5,0.1-2.9,0.5-4.2,1.2c-1.2,0.7-2.1,1.8-2.4,3.1l-1,3.4c-0.2,0.5-0.1,1.1,0.1,1.5c0.1,0.2,0.3,0.4,0.6,0.4l0.3-1
		c0,0,0,0-0.1-0.1s-0.1-0.2,0-0.6l1-3.4c0.3-1.1,1-2,1.9-2.5c1.2-0.6,2.5-0.9,3.9-1L127.4,120.4L127.4,120.4z"/>
	
		<rect x="178.9" y="167.8" style="clip-path:url(#SVGID_00000049944333282771947450000008428314204225464241_);fill:#1A1A1A;" width="8.7" height="15.7"/>
	<path style="clip-path:url(#SVGID_00000049944333282771947450000008428314204225464241_);fill:#1A1A1A;" d="M193.2,145.9
		c0,1-0.8,1.8-1.8,1.8h-3.3c-1,0-1.8-0.8-1.8-1.8v-1.9c0-1,0.8-1.8,1.8-1.8h3.3c1,0,1.8,0.8,1.8,1.8V145.9z"/>
	
		<rect x="186.9" y="130.4" style="clip-path:url(#SVGID_00000049944333282771947450000008428314204225464241_);fill:#1A1A1A;" width="5.6" height="13.5"/>
	<path style="clip-path:url(#SVGID_00000049944333282771947450000008428314204225464241_);fill:#1A1A1A;" d="M195.6,134.9l-3,1.4
		H189v-5.9h6.6L195.6,134.9z"/>
	<path style="clip-path:url(#SVGID_00000049944333282771947450000008428314204225464241_);fill:#1A1A1A;" d="M186.4,180.4
		L186.4,180.4l-0.4,7.5c0,1-0.8,1.7-1.8,1.7h-1.1c-0.3,0-0.6-0.1-0.9-0.2l-0.6-0.4l0,0l-5.4,2.2c-0.6,0.3-1.4,0.1-1.9-0.3
		c-1.7-1.8-2.5-4.4-1.9-6.8c0.1-0.6,0.5-1,1.1-1.3l6.6-2.8c0.4-0.9,1.3-1.5,2.3-1.5h2.3C185.5,178.5,186.3,179.4,186.4,180.4
		L186.4,180.4z M182.6,182.6c-0.2,0.2-0.5,0.4-0.8,0.6l-6.2,2.6c0,0.5,0.1,1.1,0.3,1.6l4.1-1.7c0.8-0.3,1.6-0.4,2.4-0.2L182.6,182.6
		L182.6,182.6z"/>
	<path style="clip-path:url(#SVGID_00000049944333282771947450000008428314204225464241_);fill:#1A1A1A;" d="M185.2,165.2l-13-1.7
		l-0.4,3.3l13.6,1.8l-0.5,3.6l-17.1-2.3l1.4-10.5l16.6,2.2L185.2,165.2z"/>
	<path style="clip-path:url(#SVGID_00000049944333282771947450000008428314204225464241_);fill:#1A1A1A;" d="M195.6,186.2l-5.8,3.4
		h-7.5l0.8-14.2l-0.3-0.3v-3.4l0.6-0.6l0.6-12.3c-0.7-0.9-0.8-2.1-0.5-3.2l1.6-4.7v-3.7c0-1.2,0.7-2.3,1.8-2.9
		c0.5-0.2,1-0.3,1.5-0.2h5.1c0.6,0,1.2,0.2,1.6,0.6c0.5,0.4,0.7,1,0.7,1.7V186.2z M188.6,147.7v3.7l-1.6,4.8l0.6,0.1l-0.9,16.2
		l-0.5,0.5v0.4l0.4,0.4l-0.6,12h2.8l3.1-1.8v-36.4L188.6,147.7z M187.9,147.7L187.9,147.7z"/>
	<path style="clip-path:url(#SVGID_00000049944333282771947450000008428314204225464241_);fill:#1A1A1A;" d="M192.5,201
		c0,0.7-0.2,1.4-0.7,1.9c-0.4,0.5-1,0.8-1.7,0.8l-8.6,1.1c-1.4,0.2-2.8-0.7-3-2.1c-0.1-0.4,0-0.8,0.1-1.2l4.2-15.6h8.3v3.8l0.8,0.8
		l0.5,0.5V201z M187.5,191.2v-1.7h-1.9l-3.1,11.5l6.4-0.8v-7.6L187.5,191.2z"/>
	
		<rect x="188.1" y="143.9" style="clip-path:url(#SVGID_00000049944333282771947450000008428314204225464241_);fill:#797979;" width="3.2" height="1.9"/>
	<path style="clip-path:url(#SVGID_00000049944333282771947450000008428314204225464241_);fill:#545454;" d="M193.8,133.7l-1.6,0.8
		h-1.4v-2.2h3L193.8,133.7z"/>
	
		<rect x="188.7" y="132.2" style="clip-path:url(#SVGID_00000049944333282771947450000008428314204225464241_);fill:#545454;" width="2" height="11.7"/>
	<path style="clip-path:url(#SVGID_00000049944333282771947450000008428314204225464241_);fill:#444444;" d="M184.7,177.1l-0.7,0.5
		c-1.2,0.1-1.3-0.2-1.7-1h-0.5c0,0-0.3,1.8,1,2.3c0.7,0.3,1.1,0,1.8,1.2L184.7,177.1z"/>
	<path style="clip-path:url(#SVGID_00000049944333282771947450000008428314204225464241_);fill:#444444;" d="M184.5,172.3h-1.9
		c-0.4,0-0.7,0.2-0.7,0.6v1.3h2.6V172.3z"/>
	<path style="clip-path:url(#SVGID_00000049944333282771947450000008428314204225464241_);fill:#EFA85D;" d="M184.2,187.7h-1.1
		l-0.8-0.5c-0.5-0.3-1-0.3-1.5,0l-5.4,2.2c-1.3-1.3-1.8-3.3-1.4-5.1l7.1-2.9c0.6-0.2,0.3-1.1,1.1-1.1h2.3L184.2,187.7z"/>
	<path style="clip-path:url(#SVGID_00000049944333282771947450000008428314204225464241_);fill:#636363;" d="M185.4,163.4l-14.8-2
		l-0.9,6.9l15.4,2L185.4,163.4z"/>
	<path style="clip-path:url(#SVGID_00000049944333282771947450000008428314204225464241_);fill:#797979;" d="M193.8,185.1l-4.5,2.6
		h-5.1l0.7-13.1l-0.4-0.4v-2l0.5-0.5l0.7-13.9c0,0-1.1-0.2-0.6-1.7l1.6-5v-3.9c-0.1-0.6,0.4-1.2,1-1.3c0.1,0,0.2,0,0.3,0h5.2
		c0.2,0,0.5,0.2,0.5,0.4c0,0,0,0,0,0.1V185.1z"/>
	<path style="clip-path:url(#SVGID_00000049944333282771947450000008428314204225464241_);fill:#A0A0A0;" d="M189.8,145.9v41.6
		l0.8-0.5v-41.1H189.8z"/>
	<path style="clip-path:url(#SVGID_00000049944333282771947450000008428314204225464241_);fill:#545454;" d="M188.1,187.7h-4
		l0.7-13.1l-0.4-0.4v-2l0.5-0.5l0.7-13.9c0,0-1.1-0.2-0.6-1.7l1.6-5v-3.9c-0.1-0.6,0.4-1.2,1-1.3c0.1,0,0.2,0,0.3,0L188.1,187.7z"/>
	<path style="clip-path:url(#SVGID_00000049944333282771947450000008428314204225464241_);fill:#545454;" d="M193.8,185.1l-2.4,1.4
		v-40.7h1.9c0.2,0,0.5,0.2,0.5,0.4c0,0,0,0,0,0.1V185.1z"/>
	<path style="clip-path:url(#SVGID_00000049944333282771947450000008428314204225464241_);fill:#EFA85D;" d="M193.8,157.8h-8.1
		c0,0-1.1-0.2-0.6-1.7l1.6-5v-3.9c-0.1-0.6,0.4-1.2,1-1.3c0.1,0,0.2,0,0.3,0h5.2c0.2,0,0.5,0.2,0.5,0.4c0,0,0,0,0,0.1L193.8,157.8z"
		/>
	
		<rect x="189.8" y="145.9" style="clip-path:url(#SVGID_00000049944333282771947450000008428314204225464241_);fill:#FDD083;" width="0.8" height="12"/>
	<path style="clip-path:url(#SVGID_00000049944333282771947450000008428314204225464241_);fill:#DC773D;" d="M185.7,157.8
		c0,0-1.1-0.2-0.6-1.7l1.6-5v-3.9c-0.1-0.6,0.4-1.2,1-1.3c0.1,0,0.2,0,0.3,0v12L185.7,157.8z"/>
	<path style="clip-path:url(#SVGID_00000049944333282771947450000008428314204225464241_);fill:#DC773D;" d="M193.8,157.8h-2.4v-12
		h1.9c0.2,0,0.5,0.2,0.5,0.4c0,0,0,0,0,0.1V157.8z"/>
	<path style="clip-path:url(#SVGID_00000049944333282771947450000008428314204225464241_);fill:#EFA85D;" d="M190.6,201
		c0,0.4-0.3,0.8-0.7,0.9c0,0-0.1,0-0.1,0l-8.6,1.1c-0.6,0.1-1.1-0.4-0.9-1l3.9-14.3h5.1v2.8l1.4,1.4L190.6,201z"/>
	<path style="clip-path:url(#SVGID_00000049944333282771947450000008428314204225464241_);fill:#1A1A1A;" d="M191.6,146.1h-3.8v-2.4
		h3.8V146.1z M188.4,144.2v1.4h2.7v-1.4H188.4z"/>
	<path style="clip-path:url(#SVGID_00000049944333282771947450000008428314204225464241_);fill:#1A1A1A;" d="M191,143.9h-0.5v-11.5
		H189v11.5h-0.5V132h2.5V143.9z"/>
	<path style="clip-path:url(#SVGID_00000049944333282771947450000008428314204225464241_);fill:#1A1A1A;" d="M194,133.9l-1.8,0.9
		h-1.7V132h3.5V133.9z M191,132.5v1.8h1.1l1.4-0.7v-1.1H191z"/>
	
		<rect x="191.1" y="145.9" style="clip-path:url(#SVGID_00000049944333282771947450000008428314204225464241_);fill:#1A1A1A;" width="0.5" height="40.7"/>
	
		<rect x="185.7" y="157.6" style="clip-path:url(#SVGID_00000049944333282771947450000008428314204225464241_);fill:#1A1A1A;" width="8.1" height="0.5"/>
	<path style="clip-path:url(#SVGID_00000049944333282771947450000008428314204225464241_);fill:#DC773D;" d="M184.2,187.7h-1.1
		l-0.8-0.5c-0.2-0.1-0.5-0.2-0.8-0.2l0.9-6.7h2.2L184.2,187.7z"/>
	<path style="clip-path:url(#SVGID_00000049944333282771947450000008428314204225464241_);fill:#444444;" d="M182.3,180.6
		c-0.4,0-0.8-0.1-1.1-0.3c-0.3-0.3-0.5-0.7-0.5-1.2v-4c0-0.4,0.2-0.8,0.6-1c0.2-0.1,0.4-0.1,0.6-0.1v0.5c-0.1,0-0.2,0-0.3,0.1
		c-0.1,0.1-0.3,0.2-0.3,0.5v4c0,0.3,0.1,0.6,0.3,0.8c0.2,0.2,0.5,0.2,0.8,0.2L182.3,180.6z"/>
	<path style="clip-path:url(#SVGID_00000049944333282771947450000008428314204225464241_);fill:#1A1A1A;" d="M184.4,188H183
		l-0.9-0.5c-0.4-0.2-0.9-0.2-1.3,0l-5.5,2.3l-0.1-0.1c-1.4-1.4-1.9-3.4-1.4-5.3v-0.1l7.2-3c0.1,0,0.1-0.1,0.2-0.2
		c0.1-0.1,0.1-0.2,0.2-0.4c0.1-0.2,0.2-0.3,0.3-0.4c0.2-0.1,0.4-0.2,0.6-0.2h2.5L184.4,188z M182.3,180.6c-0.1,0-0.2,0-0.3,0.1
		c-0.1,0.1-0.1,0.2-0.1,0.2c-0.1,0.1-0.1,0.3-0.2,0.4c-0.1,0.2-0.2,0.3-0.4,0.4l-7,2.9c-0.4,1.6,0,3.3,1.2,4.6l5.2-2.2
		c0.5-0.3,1.2-0.3,1.7,0l0.7,0.4h0.9l0.3-6.9L182.3,180.6z"/>
	<path style="clip-path:url(#SVGID_00000049944333282771947450000008428314204225464241_);fill:#444444;" d="M184.5,172.5h-1.9
		c-0.1,0-0.2,0-0.3,0.1c-0.1,0-0.1,0.1-0.1,0.3v1.1h2.4v0.5h-2.9v-1.6c0-0.2,0.1-0.5,0.3-0.7c0.2-0.1,0.4-0.2,0.6-0.2h1.9V172.5z"/>
	<path style="clip-path:url(#SVGID_00000049944333282771947450000008428314204225464241_);fill:#1A1A1A;" d="M184.1,177.9H184
		c-0.4,0.1-0.9,0-1.3-0.2c-0.3-0.2-0.5-0.5-0.6-0.8H182c0,0.2,0,0.4,0,0.7c0.1,0.5,0.4,1,0.9,1.2c0.3,0.1,0.6,0.1,0.9,0.3
		c0.5,0.2,0.8,0.6,1,1.1l-0.5,0.2c-0.3-0.6-0.5-0.8-0.7-0.9s-0.5-0.1-0.9-0.3c-0.6-0.3-1.1-0.9-1.1-1.6c0-0.3,0-0.7,0-1v-0.2h0.9
		l0.1,0.1c0.1,0.3,0.3,0.5,0.5,0.8c0.3,0.1,0.6,0.2,0.9,0.1l0.6-0.5l0.3,0.4L184.1,177.9z"/>
	<path style="clip-path:url(#SVGID_00000049944333282771947450000008428314204225464241_);fill:#797979;" d="M186.7,176
		c0.2,0,0.3-0.1,0.4-0.2c0.1-0.1,0.2-0.3,0.2-0.4c0-0.3-0.3-0.6-0.6-0.6c-0.3,0-0.6,0.3-0.6,0.6C186,175.7,186.3,176,186.7,176z"/>
	<path style="clip-path:url(#SVGID_00000049944333282771947450000008428314204225464241_);fill:#797979;" d="M186.7,180.1
		c0.3,0,0.6-0.3,0.6-0.6c0-0.3-0.3-0.6-0.6-0.6c0,0,0,0,0,0c-0.3,0-0.6,0.3-0.6,0.6S186.3,180.1,186.7,180.1z"/>
	<path style="clip-path:url(#SVGID_00000049944333282771947450000008428314204225464241_);fill:#444444;" d="M185.1,170.4l-3-0.4
		l0.9-6.9l2.4,0.3L185.1,170.4z"/>
	<path style="clip-path:url(#SVGID_00000049944333282771947450000008428314204225464241_);fill:#3D3D3D;" d="M171.6,168.6l-1.9-0.2
		l0.9-6.9l1.9,0.2L171.6,168.6z"/>
	<path style="clip-path:url(#SVGID_00000049944333282771947450000008428314204225464241_);fill:#1A1A1A;" d="M185.4,163.6l-14.6-1.9
		l-0.8,6.4l15.1,2l-0.1,0.5l-15.6-2.1l1-7.4l15.1,2L185.4,163.6z"/>
	<path style="clip-path:url(#SVGID_00000049944333282771947450000008428314204225464241_);fill:#1A1A1A;" d="M194,185.3l-4.6,2.7
		h-5.5l0.7-13.3l-0.4-0.4v-2.2l0.5-0.5l0.7-13.6c-0.2-0.1-0.3-0.2-0.4-0.3c-0.4-0.5-0.4-1.1-0.2-1.7l1.6-5v-3.9
		c-0.1-0.6,0.3-1.2,0.8-1.4c0.3-0.1,0.5-0.1,0.8-0.1h5.1c0.2,0,0.4,0.1,0.5,0.2c0.1,0.1,0.2,0.3,0.2,0.6L194,185.3z M193.5,146.3
		c0-0.1,0-0.1-0.1-0.2c0,0-0.1,0-0.2,0H188c-0.2,0-0.4,0-0.5,0.1c-0.3,0.1-0.5,0.3-0.5,1v4l-1.7,5c-0.2,0.7-0.1,1,0.1,1.2
		c0.1,0.1,0.2,0.2,0.3,0.2h0.2l-0.8,14.2l-0.5,0.5v1.8l0.4,0.4l-0.7,13h4.8l4.3-2.5V146.3L193.5,146.3z"/>
	<path style="clip-path:url(#SVGID_00000049944333282771947450000008428314204225464241_);fill:#DC773D;" d="M189.3,187.7h-3.8
		l-3,14.2c-0.1,0.3,0,0.7,0.3,0.9l-1.6,0.2c-0.6,0.1-1.1-0.4-0.9-1l3.9-14.3L189.3,187.7L189.3,187.7z"/>
	<path style="clip-path:url(#SVGID_00000049944333282771947450000008428314204225464241_);fill:#FDD083;" d="M190.6,201
		c0,0.4-0.3,0.8-0.7,0.9c0,0-0.1,0-0.1,0l-0.4,0.1c0-0.1,0-0.2,0-0.4v-9.2l-1.3-1.4v-3.2h1.1v2.8l1.4,1.4L190.6,201z"/>
	<path style="clip-path:url(#SVGID_00000049944333282771947450000008428314204225464241_);fill:#1A1A1A;" d="M190.9,201
		c0,0.3-0.1,0.6-0.3,0.8c-0.2,0.2-0.5,0.3-0.8,0.3l-8.6,1.1c-0.4,0.1-0.7-0.1-1-0.3c-0.2-0.3-0.3-0.7-0.2-1l3.9-14.5h5.6v2.9
		l1.3,1.3l0.1,0.1V201z M189,190.6V188h-4.6l-3.8,14.1c-0.1,0.2,0,0.4,0.1,0.6c0.2,0.1,0.4,0.2,0.6,0.1l8.6-1.1
		c0.2,0,0.3-0.1,0.4-0.2c0.1-0.1,0.1-0.3,0.1-0.4V192L189,190.6z"/>
	<path style="clip-path:url(#SVGID_00000049944333282771947450000008428314204225464241_);fill:#1A1A1A;" d="M171.8,168.6l-0.5-0.1
		l0.9-6.9l0.5,0.1L171.8,168.6z"/>
	<path style="clip-path:url(#SVGID_00000049944333282771947450000008428314204225464241_);fill:#1A1A1A;" d="M187.5,175.4
		c0,0.5-0.4,0.9-0.9,0.9c-0.5,0-0.9-0.4-0.9-0.9c0-0.5,0.4-0.9,0.9-0.9C187.1,174.5,187.5,174.9,187.5,175.4z M187,175.4
		c0-0.2-0.2-0.4-0.4-0.3s-0.4,0.2-0.3,0.4c0,0.2,0.2,0.3,0.4,0.4C186.9,175.8,187,175.6,187,175.4C187,175.4,187,175.4,187,175.4z"
		/>
	<path style="clip-path:url(#SVGID_00000049944333282771947450000008428314204225464241_);fill:#1A1A1A;" d="M187.5,179.5
		c0,0.5-0.4,0.9-0.9,0.9c-0.5,0-0.9-0.4-0.9-0.9c0-0.5,0.4-0.9,0.9-0.9C187.1,178.6,187.5,179,187.5,179.5z M187,179.5
		c0-0.2-0.2-0.4-0.4-0.4s-0.4,0.2-0.4,0.4s0.2,0.4,0.4,0.4S187,179.7,187,179.5L187,179.5z"/>
	<path style="clip-path:url(#SVGID_00000049944333282771947450000008428314204225464241_);fill:#797E58;" d="M45,0H16H0v16
		c0,7,0,14,0,21c10.3,12.3,28.7,14,41,3.7c6.7-5.5,10.5-13.8,10.5-22.4C51.5,11.6,49.2,5.2,45,0z"/>
	<g style="clip-path:url(#SVGID_00000049944333282771947450000008428314204225464241_);enable-background:new    ;">
		<text transform="matrix(1 0 0 1 18.7 32.65)" class="st28 st29 st30">01</text>
	</g>
	<text transform="matrix(1 0 0 1 20.51 233.48)" class="st28 st29 st31">nie było międ</text>
	<text transform="matrix(1 0 0 1 154.99 233.48)" class="st28 st29 st31">z</text>
	<text transform="matrix(1 0 0 1 164.11 233.48)" class="st28 st29 st31">y</text>
	<text transform="matrix(1 0 0 1 40.59 257.76)" class="st28 st29 st31">nami wojny</text>
</g>
</svg>
