<?xml version="1.0" encoding="utf-8"?>
<!-- Generator: Adobe Illustrator 26.0.1, SVG Export Plug-In . SVG Version: 6.00 Build 0)  -->
<svg version="1.1" id="Слой_1" xmlns="http://www.w3.org/2000/svg" xmlns:xlink="http://www.w3.org/1999/xlink" x="0px" y="0px"
	 viewBox="0 0 195.6 280.6" style="enable-background:new 0 0 195.6 280.6;" xml:space="preserve">
<style type="text/css">
	.st0{clip-path:url(#SVGID_00000163030361424824743310000001634342110468526477_);fill:#EB5A53;}
	.st1{clip-path:url(#SVGID_00000014619790374463375100000000329207017794034327_);fill:#1A1A1A;}
	.st2{clip-path:url(#SVGID_00000146465224275897980420000006871515992478000561_);fill:#EB5A53;}
	.st3{clip-path:url(#SVGID_00000172439726300639048860000000910152538745646485_);fill:#1A1A1A;}
	.st4{clip-path:url(#SVGID_00000079486220783353678450000016533360162557742488_);fill:#EB5A53;}
	.st5{clip-path:url(#SVGID_00000142894848520801230680000013933999057682519454_);fill:#1A1A1A;}
	.st6{clip-path:url(#SVGID_00000021833726148009662060000000462382428714875777_);fill:#EB5A53;}
	.st7{clip-path:url(#SVGID_00000019670732830618385000000014907535642103489165_);fill:#1A1A1A;}
	.st8{clip-path:url(#SVGID_00000122710728780049299050000001470205439763914634_);fill:#1A1A1A;}
	.st9{clip-path:url(#SVGID_00000153706932981034096420000006401772482233332619_);fill:#EB5A53;}
	.st10{clip-path:url(#SVGID_00000179612136149894534200000006158047743130197130_);fill:#FFFFFF;}
	.st11{clip-path:url(#SVGID_00000131337885497503412120000009529091643143672228_);fill:#FFFFFF;}
	.st12{clip-path:url(#SVGID_00000005951365694098226330000017994669097139281805_);fill:#FFFFFF;}
	.st13{clip-path:url(#SVGID_00000129884377551253793780000012136855309672980119_);fill:#FFFFFF;}
	.st14{clip-path:url(#SVGID_00000052792088508092199080000014287364021591796123_);fill:#1A1A1A;}
	.st15{clip-path:url(#SVGID_00000183238298165467050990000003540955762283308473_);fill:#1A1A1A;}
	.st16{clip-path:url(#SVGID_00000178204893254514512110000014757423990956333213_);fill:#FFFFFF;}
	.st17{clip-path:url(#SVGID_00000124850725496207464160000018157520735775504296_);fill:#1A1A1A;}
	.st18{clip-path:url(#SVGID_00000059303692177981881900000008746992296322122907_);fill:#FFFFFF;}
	.st19{clip-path:url(#SVGID_00000027572630750971336200000012414174424219962552_);fill:#AF1739;}
	.st20{clip-path:url(#SVGID_00000082355120109841333430000000851158701927710366_);fill:#EB5775;}
	.st21{clip-path:url(#SVGID_00000111879936666613059880000005752410962680214686_);fill:#FFFFFF;}
	.st22{clip-path:url(#SVGID_00000103944987903436500870000010080290039616162749_);fill:#BADBE9;}
	.st23{clip-path:url(#SVGID_00000142876200276933017550000001476507979199081893_);fill:#BADBE9;}
	.st24{clip-path:url(#SVGID_00000088108910016201333530000009146104375581588633_);fill:#8BB0CC;}
	.st25{clip-path:url(#SVGID_00000115485482525043978400000002861072333696244616_);fill:#1A1A1A;}
	.st26{clip-path:url(#SVGID_00000130642525739535409150000004859097213374872481_);fill:#1A1A1A;}
	.st27{clip-path:url(#SVGID_00000067228103190331958950000003853359013919289999_);fill:#F293A2;}
	.st28{clip-path:url(#SVGID_00000028325242597351607440000013417271466048375954_);fill:#1A1A1A;}
	.st29{clip-path:url(#SVGID_00000101788666692743682200000011779502483162638268_);fill:#1A1A1A;}
	.st30{clip-path:url(#SVGID_00000086664311155046900980000004496275980098714291_);fill:#595959;}
	.st31{clip-path:url(#SVGID_00000008861206990116473310000016791026170301959595_);fill:#797979;}
	.st32{clip-path:url(#SVGID_00000156551670581341563510000003249859492019721142_);fill:#3E3E3E;}
	.st33{clip-path:url(#SVGID_00000044168417907946139710000004512942075089426363_);fill:#1A1A1A;}
	.st34{clip-path:url(#SVGID_00000016778345080838359840000000154929452513884053_);fill:#1A1A1A;}
	.st35{enable-background:new    ;}
	.st36{fill:#EB5A53;}
	.st37{clip-path:url(#SVGID_00000138534221801021567510000000653914201222869419_);fill:#EB5A53;}
	.st38{fill:#FFFFFF;}
</style>
<g>
	<g>
		<g>
			<defs>
				<rect id="SVGID_1_" x="0.2" y="0.7" width="195.6" height="280.6"/>
			</defs>
			<clipPath id="SVGID_00000125595302997736974070000003784842137849963950_">
				<use xlink:href="#SVGID_1_"  style="overflow:visible;"/>
			</clipPath>
			<path style="clip-path:url(#SVGID_00000125595302997736974070000003784842137849963950_);fill:#EB5A53;" d="M107,156.2
				c0-11,4.8-13.2,8.2-13.2s8.2,2.2,8.2,13.2s-3.7,26.6-8.2,26.6S107,167.2,107,156.2z"/>
		</g>
	</g>
	<g>
		<g>
			<defs>
				<rect id="SVGID_00000161591801504523293820000017496189873358494640_" x="0.2" y="0.7" width="195.6" height="280.6"/>
			</defs>
			<clipPath id="SVGID_00000118380418063905443880000012451988339725546892_">
				<use xlink:href="#SVGID_00000161591801504523293820000017496189873358494640_"  style="overflow:visible;"/>
			</clipPath>
			<path style="clip-path:url(#SVGID_00000118380418063905443880000012451988339725546892_);fill:#1A1A1A;" d="M115.2,140.7
				c-2.7,0-5.3,1.2-7.1,3.3c-2.1,2.5-3.4,6.4-3.4,12.2c0.1,6.1,0.9,12.2,2.5,18.1c0.6,2.5,1.6,4.9,2.8,7.1c1.2,1.9,2.7,3.7,5.2,3.7
				s4-1.8,5.2-3.7c1.3-2.2,2.2-4.6,2.8-7.1c1.6-5.9,2.4-12,2.5-18.1c0-5.8-1.3-9.7-3.4-12.2C120.5,141.9,117.9,140.7,115.2,140.7
				L115.2,140.7z M115.2,145.3c1.4,0,2.7,0.6,3.6,1.7c1.2,1.4,2.3,4.1,2.3,9.2c-0.1,5.7-0.8,11.3-2.3,16.8c-0.5,2.1-1.3,4.1-2.4,6
				c-0.3,0.6-0.7,1.1-1.2,1.5c-0.5-0.4-0.9-0.9-1.2-1.5c-1-1.9-1.8-3.9-2.4-6c-1.5-5.5-2.2-11.2-2.3-16.8c0-5.2,1.1-7.9,2.3-9.2
				C112.4,145.8,113.8,145.2,115.2,145.3L115.2,145.3z"/>
		</g>
	</g>
	<g>
		<g>
			<defs>
				<rect id="SVGID_00000155851711673964047970000016229536194644073132_" x="0.2" y="0.7" width="195.6" height="280.6"/>
			</defs>
			<clipPath id="SVGID_00000090265137268607499610000004161516305087246220_">
				<use xlink:href="#SVGID_00000155851711673964047970000016229536194644073132_"  style="overflow:visible;"/>
			</clipPath>
			<path style="clip-path:url(#SVGID_00000090265137268607499610000004161516305087246220_);fill:#EB5A53;" d="M65.5,156.2
				c0-11,4.8-13.2,8.2-13.2s8.2,2.2,8.2,13.2s-3.7,26.6-8.2,26.6S65.5,167.2,65.5,156.2z"/>
		</g>
	</g>
	<g>
		<g>
			<defs>
				<rect id="SVGID_00000065033589674973889900000016006521655175693232_" x="0.2" y="0.7" width="195.6" height="280.6"/>
			</defs>
			<clipPath id="SVGID_00000175288633617020796520000008821266777314690469_">
				<use xlink:href="#SVGID_00000065033589674973889900000016006521655175693232_"  style="overflow:visible;"/>
			</clipPath>
			<path style="clip-path:url(#SVGID_00000175288633617020796520000008821266777314690469_);fill:#1A1A1A;" d="M73.7,140.7
				c-2.7,0-5.3,1.2-7.1,3.3c-2.1,2.5-3.4,6.4-3.4,12.2c0,6.1,0.9,12.2,2.5,18.1c0.6,2.5,1.6,4.9,2.8,7.1c1.2,1.9,2.7,3.7,5.2,3.7
				s4-1.8,5.2-3.7c1.3-2.2,2.2-4.6,2.8-7.1c1.6-5.9,2.4-12,2.5-18.1c0-5.8-1.3-9.7-3.4-12.2C79,141.9,76.4,140.7,73.7,140.7
				L73.7,140.7z M73.7,145.3c1.4,0,2.7,0.6,3.6,1.7c1.2,1.4,2.3,4.1,2.3,9.2c-0.1,5.7-0.8,11.3-2.3,16.8c-0.5,2.1-1.3,4.1-2.4,6
				c-0.3,0.6-0.7,1.1-1.2,1.5c-0.5-0.4-0.9-0.9-1.2-1.5c-1-1.9-1.8-3.9-2.4-6c-1.5-5.5-2.3-11.2-2.3-16.8c0-5.2,1.2-7.9,2.3-9.2
				C71,145.8,72.3,145.2,73.7,145.3L73.7,145.3z"/>
		</g>
	</g>
	<g>
		<g>
			<defs>
				<rect id="SVGID_00000157273261937322000360000011681271538622130584_" x="0.2" y="0.7" width="195.6" height="280.6"/>
			</defs>
			<clipPath id="SVGID_00000179603629870120006340000009629916553859496338_">
				<use xlink:href="#SVGID_00000157273261937322000360000011681271538622130584_"  style="overflow:visible;"/>
			</clipPath>
			<path style="clip-path:url(#SVGID_00000179603629870120006340000009629916553859496338_);fill:#EB5A53;" d="M148.2,101.6
				c-3.2-10.5,0.8-14,4-15s8.5-0.3,11.7,10.3s4.2,26.6-0.1,27.9S151.3,112.1,148.2,101.6L148.2,101.6z"/>
		</g>
	</g>
	<g>
		<g>
			<defs>
				<rect id="SVGID_00000181048871204561699850000016804784330820704657_" x="0.2" y="0.7" width="195.6" height="280.6"/>
			</defs>
			<clipPath id="SVGID_00000122703065988041064160000006654542246828742032_">
				<use xlink:href="#SVGID_00000181048871204561699850000016804784330820704657_"  style="overflow:visible;"/>
			</clipPath>
			<path style="clip-path:url(#SVGID_00000122703065988041064160000006654542246828742032_);fill:#1A1A1A;" d="M151.5,85.6
				c-2.6,0.8-4.8,2.7-5.9,5.2c-1.3,3-1.4,7.1,0.3,12.7c1.8,5.8,4.4,11.4,7.6,16.6c1.3,2.2,2.9,4.2,4.8,6c1.7,1.5,3.7,2.8,6,2.1
				s3.3-2.9,3.9-5.1c0.6-2.5,0.8-5.1,0.7-7.7c-0.2-6.1-1.1-12.1-2.9-18c-1.7-5.6-4-8.9-6.8-10.7C156.9,85.2,154.1,84.8,151.5,85.6
				L151.5,85.6z M152.8,90c1.3-0.4,2.8-0.2,3.9,0.6c1.5,1,3.4,3.2,4.9,8.2c1.6,5.5,2.5,11.1,2.7,16.8c0.1,2.2-0.1,4.3-0.5,6.4
				c-0.1,0.6-0.4,1.2-0.8,1.8c-0.6-0.2-1.1-0.6-1.6-1c-1.5-1.5-2.9-3.2-4-5.1c-3-4.8-5.4-10-7.1-15.4c-1.5-4.9-1.2-7.9-0.5-9.5
				C150.4,91.4,151.5,90.4,152.8,90L152.8,90z"/>
		</g>
	</g>
	<g>
		<g>
			<defs>
				<rect id="SVGID_00000085211990121628569820000002053475467374714527_" x="0.2" y="0.7" width="195.6" height="280.6"/>
			</defs>
			<clipPath id="SVGID_00000138534603923073015590000004890917541704052118_">
				<use xlink:href="#SVGID_00000085211990121628569820000002053475467374714527_"  style="overflow:visible;"/>
			</clipPath>
			<path style="clip-path:url(#SVGID_00000138534603923073015590000004890917541704052118_);fill:#EB5A53;" d="M27.3,96.3
				c4.2-10.2,9.5-10.3,12.6-9.1s6.7,5.2,2.5,15.3S28.8,125.7,24.6,124S23.1,106.5,27.3,96.3z"/>
		</g>
	</g>
	<g>
		<g>
			<defs>
				<rect id="SVGID_00000023246635740039568490000011983777039722143661_" x="0.2" y="0.7" width="195.6" height="280.6"/>
			</defs>
			<clipPath id="SVGID_00000100349664780009999300000009884248409134419369_">
				<use xlink:href="#SVGID_00000023246635740039568490000011983777039722143661_"  style="overflow:visible;"/>
			</clipPath>
			<path style="clip-path:url(#SVGID_00000100349664780009999300000009884248409134419369_);fill:#1A1A1A;" d="M40.8,85.2
				c-2.5-1.1-5.4-0.9-7.8,0.3c-2.9,1.5-5.6,4.6-7.8,10c-2.3,5.7-3.8,11.6-4.6,17.6c-0.4,2.5-0.4,5.1-0.1,7.7
				c0.3,2.2,1.1,4.5,3.3,5.4s4.4-0.1,6.2-1.5c2-1.6,3.8-3.5,5.4-5.5c3.7-4.8,6.8-10.1,9.2-15.7c2.2-5.4,2.5-9.5,1.5-12.6
				C45.2,88.3,43.3,86.2,40.8,85.2L40.8,85.2z M39,89.4c1.3,0.5,2.3,1.6,2.7,2.9c0.5,1.7,0.6,4.7-1.4,9.4
				c-2.2,5.2-5.1,10.2-8.6,14.7c-1.3,1.7-2.8,3.3-4.5,4.7c-0.5,0.4-1.1,0.7-1.7,0.9c-0.3-0.6-0.5-1.2-0.6-1.8
				c-0.2-2.2-0.2-4.3,0.1-6.5c0.7-5.6,2.2-11.2,4.3-16.4c2-4.8,4.1-6.8,5.7-7.7C36.3,88.9,37.7,88.8,39,89.4L39,89.4z"/>
		</g>
	</g>
	<g>
		<g>
			<defs>
				<rect id="SVGID_00000168114040663761950050000001285918198490821004_" x="0.2" y="0.7" width="195.6" height="280.6"/>
			</defs>
			<clipPath id="SVGID_00000100349578584826034910000009970574138661202832_">
				<use xlink:href="#SVGID_00000168114040663761950050000001285918198490821004_"  style="overflow:visible;"/>
			</clipPath>
			<path style="clip-path:url(#SVGID_00000100349578584826034910000009970574138661202832_);fill:#1A1A1A;" d="M94.4,37.6
				c-35.5,0-64.2,28.7-64.2,64.2S59,166,94.4,166s64.2-28.7,64.2-64.2l0,0C158.6,66.3,129.9,37.6,94.4,37.6z M94.4,44.9
				c31.4,0,56.9,25.5,56.9,56.9s-25.5,56.9-56.9,56.9s-56.9-25.5-56.9-56.9l0,0C37.5,70.4,62.9,45,94.4,44.9L94.4,44.9z"/>
		</g>
	</g>
	<g>
		<g>
			<defs>
				<rect id="SVGID_00000083804207573076160140000003550946581464241082_" x="0.2" y="0.7" width="195.6" height="280.6"/>
			</defs>
			<clipPath id="SVGID_00000173139213304947472000000004885495993604303790_">
				<use xlink:href="#SVGID_00000083804207573076160140000003550946581464241082_"  style="overflow:visible;"/>
			</clipPath>
			<path style="clip-path:url(#SVGID_00000173139213304947472000000004885495993604303790_);fill:#EB5A53;" d="M154.1,100.3
				c0,2.5-0.3,31.8-17.4,40c-12.1,5.9-18.9-5.6-43.4-5.2c-23.1,0.3-29.1,10.6-40.5,5.2c-17.1-8-17.4-37.6-17.4-40
				c0-3.4,0.4-30.8,17.4-40c10-5.4,15.2,1.3,40,1.5c27.1,0.3,33-7.6,44-1.5C153.7,69.7,154.1,96.9,154.1,100.3z"/>
		</g>
	</g>
	<g>
		<g>
			<defs>
				<rect id="SVGID_00000028285751472282485800000003520436521036918961_" x="0.2" y="0.7" width="195.6" height="280.6"/>
			</defs>
			<clipPath id="SVGID_00000107577369345734955030000005812591138283408798_">
				<use xlink:href="#SVGID_00000028285751472282485800000003520436521036918961_"  style="overflow:visible;"/>
			</clipPath>
			<path style="clip-path:url(#SVGID_00000107577369345734955030000005812591138283408798_);fill:#FFFFFF;" d="M95.1,42.3
				c-25.9,0-49,16.4-57.6,40.9h115.2C144.1,58.7,121,42.4,95.1,42.3z"/>
		</g>
	</g>
	<g>
		<g>
			<defs>
				<rect id="SVGID_00000057842380356637042090000011496339433557992605_" x="0.2" y="0.7" width="195.6" height="280.6"/>
			</defs>
			<clipPath id="SVGID_00000047778041826173975960000007342828668215895962_">
				<use xlink:href="#SVGID_00000057842380356637042090000011496339433557992605_"  style="overflow:visible;"/>
			</clipPath>
			<path style="clip-path:url(#SVGID_00000047778041826173975960000007342828668215895962_);fill:#FFFFFF;" d="M91.9,43.7
				c-24.6,0-46.4,16-53.9,39.5h107.8C138.3,59.7,116.5,43.8,91.9,43.7z"/>
		</g>
	</g>
	<g>
		<g>
			<defs>
				<rect id="SVGID_00000114793015316817772870000005513019712475939238_" x="0.2" y="0.7" width="195.6" height="280.6"/>
			</defs>
			<clipPath id="SVGID_00000008121915653623194160000012353958441499424177_">
				<use xlink:href="#SVGID_00000114793015316817772870000005513019712475939238_"  style="overflow:visible;"/>
			</clipPath>
			<path style="clip-path:url(#SVGID_00000008121915653623194160000012353958441499424177_);fill:#FFFFFF;" d="M37,122.8
				c6.3,12.2,16,22.4,27.9,29.2c9.2,5.4,19.6,8.4,30.3,8.7c5.8,0.1,11.5-0.7,17-2.4c10.9-3.4,20.6-9.9,27.9-18.7
				c4.3-5,7.8-10.7,10.4-16.8H37z"/>
		</g>
	</g>
	<g>
		<g>
			<defs>
				<rect id="SVGID_00000034075959484451334320000012157423150352671872_" x="0.2" y="0.7" width="195.6" height="280.6"/>
			</defs>
			<clipPath id="SVGID_00000083767851241018219030000009333500979567251628_">
				<use xlink:href="#SVGID_00000034075959484451334320000012157423150352671872_"  style="overflow:visible;"/>
			</clipPath>
			<path style="clip-path:url(#SVGID_00000083767851241018219030000009333500979567251628_);fill:#FFFFFF;" d="M40,122.9
				c13.5,29.5,48.3,42.5,77.8,29c12.8-5.9,23.1-16.2,29-29C146.8,122.9,40,122.9,40,122.9z"/>
		</g>
	</g>
	<g>
		<g>
			<defs>
				<rect id="SVGID_00000161626747370993702190000014844016064373525892_" x="0.2" y="0.7" width="195.6" height="280.6"/>
			</defs>
			<clipPath id="SVGID_00000033338438314432984560000006334575061636139394_">
				<use xlink:href="#SVGID_00000161626747370993702190000014844016064373525892_"  style="overflow:visible;"/>
			</clipPath>
			<path style="clip-path:url(#SVGID_00000033338438314432984560000006334575061636139394_);fill:#1A1A1A;" d="M94.4,40.3
				C60.5,40.3,33,67.8,33,101.8s27.5,61.5,61.5,61.5s61.5-27.5,61.5-61.5l0,0C155.9,67.8,128.4,40.3,94.4,40.3z M94.4,42.1
				c32.9,0,59.6,26.7,59.6,59.6s-26.7,59.6-59.6,59.6s-59.6-26.7-59.6-59.6l0,0C34.8,68.8,61.5,42.1,94.4,42.1L94.4,42.1z"/>
		</g>
	</g>
	<g>
		<g>
			<defs>
				<rect id="SVGID_00000047778877293425119570000001093728119905875089_" x="0.2" y="0.7" width="195.6" height="280.6"/>
			</defs>
			<clipPath id="SVGID_00000106845971544215005800000012833567418353462667_">
				<use xlink:href="#SVGID_00000047778877293425119570000001093728119905875089_"  style="overflow:visible;"/>
			</clipPath>
			<path style="clip-path:url(#SVGID_00000106845971544215005800000012833567418353462667_);fill:#1A1A1A;" d="M113.9,79.8
				c5.2,0,9.4,4.2,9.4,9.4l0,0V94c0,5.2-4.2,9.4-9.4,9.4s-9.4-4.2-9.4-9.4v-4.8C104.4,84.1,108.6,79.8,113.9,79.8
				C113.8,79.8,113.9,79.8,113.9,79.8z"/>
		</g>
	</g>
	<g>
		<g>
			<defs>
				<rect id="SVGID_00000089568819821029965380000017651977139266395028_" x="0.2" y="0.7" width="195.6" height="280.6"/>
			</defs>
			<clipPath id="SVGID_00000013181686236244499250000012768315876012190376_">
				<use xlink:href="#SVGID_00000089568819821029965380000017651977139266395028_"  style="overflow:visible;"/>
			</clipPath>
			<path style="clip-path:url(#SVGID_00000013181686236244499250000012768315876012190376_);fill:#FFFFFF;" d="M108.4,86.6
				c0.1-1.7,1.5-2.9,3.1-2.9c1.7,0.1,2.9,1.5,2.9,3.1c0,0.7-0.3,1.4-0.8,1.9c-1.2,1.2-3.1,1.2-4.3,0
				C108.7,88.2,108.4,87.4,108.4,86.6z"/>
		</g>
	</g>
	<g>
		<g>
			<defs>
				<rect id="SVGID_00000139994574658267169240000013685753929061720459_" x="0.2" y="0.7" width="195.6" height="280.6"/>
			</defs>
			<clipPath id="SVGID_00000061430894897176181630000011165944673106267310_">
				<use xlink:href="#SVGID_00000139994574658267169240000013685753929061720459_"  style="overflow:visible;"/>
			</clipPath>
			<path style="clip-path:url(#SVGID_00000061430894897176181630000011165944673106267310_);fill:#1A1A1A;" d="M75,79.8
				c5.2,0,9.4,4.2,9.4,9.4c0,0,0,0,0,0.1V94c0,5.2-4.2,9.4-9.4,9.4s-9.4-4.2-9.4-9.4v-4.8C65.6,84.1,69.8,79.8,75,79.8L75,79.8z"/>
		</g>
	</g>
	<g>
		<g>
			<defs>
				<rect id="SVGID_00000177470900784434283070000014620167901335713936_" x="0.2" y="0.7" width="195.6" height="280.6"/>
			</defs>
			<clipPath id="SVGID_00000117662123194946679890000004321959546108517286_">
				<use xlink:href="#SVGID_00000177470900784434283070000014620167901335713936_"  style="overflow:visible;"/>
			</clipPath>
			<path style="clip-path:url(#SVGID_00000117662123194946679890000004321959546108517286_);fill:#FFFFFF;" d="M69.5,86.6
				c0-1.7,1.4-3.1,3-3.1c1.7,0,3.1,1.4,3.1,3c0,1.7-1.4,3.1-3,3.1c-0.8,0-1.6-0.3-2.2-0.9C69.8,88.2,69.5,87.4,69.5,86.6z"/>
		</g>
	</g>
	<g>
		<g>
			<defs>
				<rect id="SVGID_00000058573558203568471490000017142608441400603804_" x="0.2" y="0.7" width="195.6" height="280.6"/>
			</defs>
			<clipPath id="SVGID_00000100375117118379703860000011431205819810431641_">
				<use xlink:href="#SVGID_00000058573558203568471490000017142608441400603804_"  style="overflow:visible;"/>
			</clipPath>
			<path style="clip-path:url(#SVGID_00000100375117118379703860000011431205819810431641_);fill:#AF1739;" d="M84.4,106.2
				c-1.2,0-2.1,0.9-2.1,2.1l0,0v2.4c0.2,6.7,5.8,12,12.5,11.8c6.4-0.2,11.6-5.4,11.8-11.8v-2.4c0-1.2-0.9-2.1-2.1-2.1l0,0H84.4z"/>
		</g>
	</g>
	<g>
		<g>
			<defs>
				<rect id="SVGID_00000148639932356601136930000016687344549370473611_" x="0.2" y="0.7" width="195.6" height="280.6"/>
			</defs>
			<clipPath id="SVGID_00000159454911855393036340000001066642887261056912_">
				<use xlink:href="#SVGID_00000148639932356601136930000016687344549370473611_"  style="overflow:visible;"/>
			</clipPath>
			<path style="clip-path:url(#SVGID_00000159454911855393036340000001066642887261056912_);fill:#EB5775;" d="M94.4,114.5
				c-3.5,0-6.8,1.5-9.2,4.2c4.4,5.1,12.1,5.6,17.1,1.1c0.4-0.4,0.8-0.7,1.1-1.1C101.3,116,97.9,114.5,94.4,114.5z"/>
		</g>
	</g>
	<g>
		<g>
			<defs>
				<rect id="SVGID_00000007399634092792336220000015827419566947473026_" x="0.2" y="0.7" width="195.6" height="280.6"/>
			</defs>
			<clipPath id="SVGID_00000114068654427777282690000017218265990164235937_">
				<use xlink:href="#SVGID_00000007399634092792336220000015827419566947473026_"  style="overflow:visible;"/>
			</clipPath>
			<path style="clip-path:url(#SVGID_00000114068654427777282690000017218265990164235937_);fill:#FFFFFF;" d="M84.4,106.2
				c-1.2,0-2.1,0.9-2.1,2.1l0,0v2.1c7.7,3.7,16.6,3.7,24.3,0v-2.1c0-1.2-0.9-2.1-2.1-2.1l0,0H84.4z"/>
		</g>
	</g>
	<g>
		<g>
			<defs>
				<rect id="SVGID_00000034802767667919304020000004932975211757429900_" x="0.2" y="0.7" width="195.6" height="280.6"/>
			</defs>
			<clipPath id="SVGID_00000170262493763296256240000008941600645531922106_">
				<use xlink:href="#SVGID_00000034802767667919304020000004932975211757429900_"  style="overflow:visible;"/>
			</clipPath>
			<path style="clip-path:url(#SVGID_00000170262493763296256240000008941600645531922106_);fill:#BADBE9;" d="M103.3,106.2v3.2
				c0,1.2-0.2,2-1,2.6c1.5-0.4,2.9-1,4.2-1.6v-2.1c0-1.2-0.9-2.1-2.1-2.1l0,0H103.3z"/>
		</g>
	</g>
	<g>
		<g>
			<defs>
				<rect id="SVGID_00000064319484214822073080000009973460626008411272_" x="0.2" y="0.7" width="195.6" height="280.6"/>
			</defs>
			<clipPath id="SVGID_00000039107505340774181510000000172930361979173522_">
				<use xlink:href="#SVGID_00000064319484214822073080000009973460626008411272_"  style="overflow:visible;"/>
			</clipPath>
			<path style="clip-path:url(#SVGID_00000039107505340774181510000000172930361979173522_);fill:#BADBE9;" d="M84.4,106.2
				c-1.2,0-2.1,0.9-2.1,2.1l0,0v2.1c2.6,1.2,5.5,2.1,8.3,2.5c-1.4-0.4-1.8-1.8-1.8-3.4v-3.2L84.4,106.2L84.4,106.2z"/>
		</g>
	</g>
	<g>
		<g>
			<defs>
				<rect id="SVGID_00000090277891689205688720000005973894590811608467_" x="0.2" y="0.7" width="195.6" height="280.6"/>
			</defs>
			<clipPath id="SVGID_00000181079614214841417750000004628471444215194791_">
				<use xlink:href="#SVGID_00000090277891689205688720000005973894590811608467_"  style="overflow:visible;"/>
			</clipPath>
			<path style="clip-path:url(#SVGID_00000181079614214841417750000004628471444215194791_);fill:#8BB0CC;" d="M85.6,106.2v3.2
				c0,1.2,0.2,2,1,2.6c-1.5-0.4-2.9-1-4.2-1.6v-2.1c0-1.2,0.9-2.1,2.1-2.1l0,0H85.6z"/>
		</g>
	</g>
	<g>
		<g>
			<defs>
				<rect id="SVGID_00000102524343239918801400000017162391258293801404_" x="0.2" y="0.7" width="195.6" height="280.6"/>
			</defs>
			<clipPath id="SVGID_00000098920565656178927390000013566965923796754365_">
				<use xlink:href="#SVGID_00000102524343239918801400000017162391258293801404_"  style="overflow:visible;"/>
			</clipPath>
			<path style="clip-path:url(#SVGID_00000098920565656178927390000013566965923796754365_);fill:#1A1A1A;" d="M84.4,105.3
				c-1.7,0-3,1.3-3,3v2.4c0,7.2,5.8,13,13,13s13-5.8,13-13v-2.4c0-1.7-1.3-3-3-3H84.4z M104.5,107.1c0.6,0,1.2,0.5,1.2,1.1l0,0v2.4
				c0.2,6.2-4.7,11.4-10.9,11.5c-6.2,0.2-11.4-4.7-11.5-10.9c0-0.2,0-0.4,0-0.7v-2.4c0-0.6,0.5-1.2,1.1-1.2l0,0h20.1
				C104.5,106.9,104.5,107.1,104.5,107.1z"/>
		</g>
	</g>
	<g>
		<g>
			<defs>
				<rect id="SVGID_00000178171395219973236490000001068443436067016332_" x="0.2" y="0.7" width="195.6" height="280.6"/>
			</defs>
			<clipPath id="SVGID_00000042704435182586569920000010092356926578289541_">
				<use xlink:href="#SVGID_00000178171395219973236490000001068443436067016332_"  style="overflow:visible;"/>
			</clipPath>
			<path style="clip-path:url(#SVGID_00000042704435182586569920000010092356926578289541_);fill:#1A1A1A;" d="M106.6,109.9
				c-7.7,3.7-16.7,3.7-24.4,0l-0.4,0.8c7.9,3.9,17.2,3.9,25.2,0L106.6,109.9z"/>
		</g>
	</g>
	<g>
		<g>
			<defs>
				<rect id="SVGID_00000134227861906435591590000017927968236010684039_" x="0.2" y="0.7" width="195.6" height="280.6"/>
			</defs>
			<clipPath id="SVGID_00000138566300782035719220000005299068979587163308_">
				<use xlink:href="#SVGID_00000134227861906435591590000017927968236010684039_"  style="overflow:visible;"/>
			</clipPath>
			<path style="clip-path:url(#SVGID_00000138566300782035719220000005299068979587163308_);fill:#F293A2;" d="M95.8,117.7
				c0-0.4,0.2-0.8,0.6-1c0.4-0.3,0.9-0.4,1.4-0.4c1.1,0,2,0.6,2,1.4s-0.9,1.4-2,1.4c-0.5,0-1-0.1-1.4-0.4
				C96,118.5,95.8,118.1,95.8,117.7L95.8,117.7z"/>
		</g>
	</g>
	<g>
		<g>
			<defs>
				<rect id="SVGID_00000003814461772080635430000001563309538628734875_" x="0.2" y="0.7" width="195.6" height="280.6"/>
			</defs>
			<clipPath id="SVGID_00000093859432166640419570000000215286751857005999_">
				<use xlink:href="#SVGID_00000003814461772080635430000001563309538628734875_"  style="overflow:visible;"/>
			</clipPath>
			<path style="clip-path:url(#SVGID_00000093859432166640419570000000215286751857005999_);fill:#1A1A1A;" d="M82.7,17v6.1
				c5.9,0.4,11.6,0.5,17.6,0.9c7.5,0.5,12,2.7,14.7,5.4c2.5,2.6,3.8,6,3.7,9.6c0,6.3-3.4,10.6-9.2,13.4s-14.4,4-23,2.6
				c-1.3-0.2-2.6-0.5-3.8-0.7v6.3c1,0.2,1.9,0.4,2.9,0.5c9.6,1.5,19.1,0.5,26.5-3.1s12.7-10.3,12.7-19c0.1-5.2-1.9-10.3-5.5-14
				c-3.9-4-10-6.6-18.6-7.2C94.3,17.4,88.5,17.3,82.7,17L82.7,17z"/>
		</g>
	</g>
	<g>
		<g>
			<defs>
				<rect id="SVGID_00000033343767859603010820000003608829303276021129_" x="0.2" y="0.7" width="195.6" height="280.6"/>
			</defs>
			<clipPath id="SVGID_00000132046624075763916450000006890560745964447886_">
				<use xlink:href="#SVGID_00000033343767859603010820000003608829303276021129_"  style="overflow:visible;"/>
			</clipPath>
			<path style="clip-path:url(#SVGID_00000132046624075763916450000006890560745964447886_);fill:#1A1A1A;" d="M60.4,13.3l2,5.5
				l0.5,1.3c-5.5-0.7-10.9-1.9-16.1-3.5l-4.7-1.7l0.7,5C46,44.4,65.8,57.8,84.7,61v-6.3C69.5,51.8,54.5,41.9,50,24
				c5.7,1.7,11.6,2.7,17.6,2.7H72l-1.9-5c4.8,0.8,9.6,1.3,14.5,1.6v-6.1c-6.3-0.2-12.5-1-18.6-2.5L60.4,13.3z"/>
		</g>
	</g>
	<g>
		<g>
			<defs>
				<rect id="SVGID_00000144325023292679040550000012232130929172182406_" x="0.2" y="0.7" width="195.6" height="280.6"/>
			</defs>
			<clipPath id="SVGID_00000176757237438031046870000009754999124231746488_">
				<use xlink:href="#SVGID_00000144325023292679040550000012232130929172182406_"  style="overflow:visible;"/>
			</clipPath>
			<path style="clip-path:url(#SVGID_00000176757237438031046870000009754999124231746488_);fill:#595959;" d="M65.4,17.7l2.2,5.9
				c-10,0.1-21.8-4.1-21.8-4.1C52,66.3,121.7,69.1,121.7,39c0-8.5-5.1-16.9-21.2-18.1C88.4,20.1,78.4,20.8,65.4,17.7z"/>
		</g>
	</g>
	<g>
		<g>
			<defs>
				<rect id="SVGID_00000026866399802136952980000014084124805861724320_" x="0.2" y="0.7" width="195.6" height="280.6"/>
			</defs>
			<clipPath id="SVGID_00000071536637236910704610000017504592161864892849_">
				<use xlink:href="#SVGID_00000026866399802136952980000014084124805861724320_"  style="overflow:visible;"/>
			</clipPath>
			<path style="clip-path:url(#SVGID_00000071536637236910704610000017504592161864892849_);fill:#797979;" d="M65.4,17.7l2.2,5.9
				c-10,0.1-21.8-4.1-21.8-4.1c16.3,21.2,64.1,23.9,72.6,9.2c-3.1-4-8.7-7.1-17.9-7.7C88.4,20.1,78.4,20.8,65.4,17.7z"/>
		</g>
	</g>
	<g>
		<g>
			<defs>
				<rect id="SVGID_00000024001288359774559050000008703693938663259290_" x="0.2" y="0.7" width="195.6" height="280.6"/>
			</defs>
			<clipPath id="SVGID_00000021815447276713103360000010167969027658502840_">
				<use xlink:href="#SVGID_00000024001288359774559050000008703693938663259290_"  style="overflow:visible;"/>
			</clipPath>
			<path style="clip-path:url(#SVGID_00000021815447276713103360000010167969027658502840_);fill:#3E3E3E;" d="M45.8,19.5
				C52,66.3,121.7,69.1,121.7,39c0-1.4-0.1-2.8-0.4-4.1C110.1,61.9,54,50,45.8,19.5z"/>
		</g>
	</g>
	<g>
		<g>
			<defs>
				<rect id="SVGID_00000054226591460788534440000014875805238277676734_" x="0.2" y="0.7" width="195.6" height="280.6"/>
			</defs>
			<clipPath id="SVGID_00000029767541241292604140000016977759302201947012_">
				<use xlink:href="#SVGID_00000054226591460788534440000014875805238277676734_"  style="overflow:visible;"/>
			</clipPath>
			<path style="clip-path:url(#SVGID_00000029767541241292604140000016977759302201947012_);fill:#1A1A1A;" d="M82.7,19.3v1.5
				c5.9,0.4,11.6,0.4,17.8,0.9c7.9,0.6,13,2.9,16.1,6.1c2.9,3,4.5,7.1,4.3,11.2c0,7.2-4.1,12.4-10.6,15.5s-15.2,4.2-24.2,2.8
				c-1.2-0.2-2.3-0.4-3.5-0.7v1.6c1.1,0.2,2.2,0.4,3.3,0.6c9.2,1.4,18.3,0.4,25.1-2.9s11.4-9.1,11.4-16.9c0.1-4.6-1.6-9-4.8-12.3
				c-3.4-3.5-9-5.9-17.1-6.6C94.3,19.7,88.6,19.7,82.7,19.3z"/>
		</g>
	</g>
	<g>
		<g>
			<defs>
				<rect id="SVGID_00000109006555984779704410000006729174817951206016_" x="0.2" y="0.7" width="195.6" height="280.6"/>
			</defs>
			<clipPath id="SVGID_00000016063192307021609670000003519978868252984246_">
				<use xlink:href="#SVGID_00000109006555984779704410000006729174817951206016_"  style="overflow:visible;"/>
			</clipPath>
			<path style="clip-path:url(#SVGID_00000016063192307021609670000003519978868252984246_);fill:#1A1A1A;" d="M64.1,16.6l0.5,1.4
				l1.8,4.8c-9.5-0.2-20.3-3.9-20.3-3.9l-1.2-0.4l0.1,1.2c3.1,23.2,21.6,35.8,39.6,39.1v-1.6c-17.1-3.2-34.4-15-37.8-36.6
				c1.8,0.6,11.4,3.8,20.8,3.8h1.1l-2.1-5.7c6,1.3,12,2.1,18.1,2.3v-1.5c-6.4-0.2-12.8-1.1-19.1-2.5L64.1,16.6z"/>
		</g>
	</g>
	<g class="st35">
		<path class="st36" d="M24,197l-0.2,2.7c0.8-1.1,1.7-1.9,2.7-2.4s2.1-0.8,3.3-0.8c1.4,0,2.7,0.4,3.7,1.2s1.7,1.7,2,2.7
			s0.4,2.7,0.4,5.1v12.8c0,2.8-0.2,4.7-0.5,5.9s-1,2.1-2,2.8s-2.2,1-3.7,1c-1.1,0-2.2-0.3-3.2-0.8s-1.9-1.3-2.7-2.4v7h-9.3V197H24z
			 M26.7,205.8c0-1.9-0.1-3-0.2-3.4s-0.5-0.6-1.1-0.6s-1,0.2-1.2,0.7s-0.3,1.6-0.3,3.3v12.6c0,1.8,0.1,3,0.3,3.4
			c0.2,0.5,0.6,0.7,1.2,0.7s1-0.2,1.1-0.6c0.1-0.4,0.2-1.4,0.2-3.1V205.8z"/>
		<path class="st36" d="M59.9,207.7v7.4c0,2.7-0.1,4.7-0.4,6c-0.3,1.3-0.9,2.5-1.8,3.6c-0.9,1.1-2.1,1.9-3.5,2.5
			c-1.4,0.5-3,0.8-4.9,0.8c-2,0-3.8-0.2-5.2-0.7s-2.5-1.1-3.3-2s-1.3-2-1.7-3.3c-0.3-1.3-0.5-3.2-0.5-5.8v-7.8c0-2.8,0.3-5,0.9-6.6
			c0.6-1.6,1.7-2.9,3.3-3.8c1.6-1,3.6-1.4,6.1-1.4c2.1,0,3.9,0.3,5.4,0.9c1.5,0.6,2.6,1.4,3.4,2.4s1.4,2,1.7,3.1
			C59.8,203.9,59.9,205.5,59.9,207.7z M50.7,205.4c0-1.6-0.1-2.5-0.3-2.9s-0.5-0.6-1.1-0.6s-0.9,0.2-1.1,0.6
			c-0.2,0.4-0.3,1.4-0.3,2.9v13.7c0,1.4,0.1,2.4,0.3,2.8c0.2,0.4,0.5,0.7,1.1,0.7c0.5,0,0.9-0.2,1.1-0.6s0.3-1.3,0.3-2.6V205.4z"/>
		<path class="st36" d="M84,190.3v37.1h-9.3v-2.2c-0.9,0.9-1.8,1.6-2.8,2.1s-2,0.7-3.1,0.7c-1.4,0-2.7-0.4-3.7-1.1
			c-1.1-0.8-1.7-1.6-2-2.6s-0.4-2.6-0.4-4.9v-14.2c0-2.3,0.1-4,0.4-5s1-1.8,2.1-2.6c1.1-0.7,2.3-1.1,3.8-1.1c1.1,0,2.2,0.2,3.2,0.6
			c1,0.4,1.8,1,2.6,1.9v-8.6L84,190.3L84,190.3z M74.8,204.6c0-1.1-0.1-1.9-0.3-2.2c-0.2-0.4-0.6-0.6-1.1-0.6
			c-0.6,0-0.9,0.2-1.1,0.5s-0.3,1.1-0.3,2.3v14.9c0,1.2,0.1,2.1,0.3,2.4c0.2,0.4,0.5,0.6,1.1,0.6s1-0.2,1.2-0.7
			c0.2-0.4,0.3-1.5,0.3-3.2L74.8,204.6L74.8,204.6z"/>
		<path class="st36" d="M108.3,207.7v7.4c0,2.7-0.1,4.7-0.4,6s-0.9,2.5-1.8,3.6s-2.1,1.9-3.5,2.5c-1.4,0.5-3,0.8-4.9,0.8
			c-2,0-3.8-0.2-5.2-0.7s-2.5-1.1-3.3-2s-1.3-2-1.7-3.3c-0.3-1.3-0.5-3.2-0.5-5.8v-7.8c0-2.8,0.3-5,0.9-6.6s1.7-2.9,3.3-3.8
			c1.6-1,3.6-1.4,6.1-1.4c2.1,0,3.9,0.3,5.4,0.9c1.5,0.6,2.6,1.4,3.4,2.4s1.4,2,1.7,3.1C108.2,203.9,108.3,205.5,108.3,207.7z
			 M99,205.4c0-1.6-0.1-2.5-0.3-2.9c-0.2-0.4-0.5-0.6-1.1-0.6s-0.9,0.2-1.1,0.6c-0.2,0.4-0.3,1.4-0.3,2.9v13.7
			c0,1.4,0.1,2.4,0.3,2.8c0.2,0.4,0.5,0.7,1.1,0.7c0.5,0,0.9-0.2,1.1-0.6s0.3-1.3,0.3-2.6V205.4z"/>
		<path class="st36" d="M120.6,190.3v8.8c0.8-0.9,1.6-1.6,2.6-2c0.9-0.4,2-0.7,3.1-0.7c1.3,0,2.4,0.2,3.3,0.6c0.9,0.4,1.6,1,2.1,1.7
			s0.8,1.4,0.9,2.1s0.1,2.2,0.1,4.4v13.7c0,2.2-0.1,3.9-0.4,5s-1,2-2.1,2.8s-2.4,1.2-3.9,1.2c-1.1,0-2.1-0.2-3-0.7s-1.8-1.2-2.6-2.1
			l-0.6,2.3h-8.7v-37.1L120.6,190.3L120.6,190.3z M123.4,205.6c0-1.6-0.1-2.6-0.3-3.1c-0.2-0.5-0.6-0.7-1.2-0.7s-0.9,0.2-1.1,0.6
			s-0.3,1.5-0.3,3.2v13.1c0,1.6,0.1,2.7,0.3,3.1c0.2,0.5,0.6,0.7,1.1,0.7c0.6,0,1-0.2,1.1-0.7s0.3-1.6,0.3-3.4L123.4,205.6
			L123.4,205.6z"/>
		<path class="st36" d="M145.2,197l-0.2,2.8c0.7-1.1,1.5-2,2.5-2.5c1-0.6,2.1-0.8,3.4-0.8c1.6,0,2.9,0.4,3.9,1.1
			c1,0.7,1.7,1.7,1.9,2.8c0.3,1.1,0.4,3,0.4,5.7v21.3h-9.3v-21.1c0-2.1-0.1-3.4-0.2-3.8c-0.1-0.5-0.5-0.7-1.1-0.7
			c-0.7,0-1.1,0.3-1.2,0.8s-0.3,1.9-0.3,4.2v20.6h-9.3V197H145.2z"/>
		<path class="st36" d="M181.3,212.7h-12v6.6c0,1.4,0.1,2.3,0.3,2.7s0.6,0.6,1.1,0.6c0.7,0,1.2-0.3,1.4-0.8s0.4-1.5,0.4-3.1v-4h8.8
			v2.2c0,1.9-0.1,3.3-0.4,4.3c-0.2,1-0.8,2.1-1.7,3.2c-0.9,1.1-2,2-3.3,2.6s-3,0.9-5,0.9s-3.7-0.3-5.2-0.8c-1.5-0.6-2.7-1.3-3.5-2.3
			s-1.4-2.1-1.7-3.3s-0.5-2.9-0.5-5.2v-8.9c0-2.7,0.4-4.8,1.1-6.3c0.7-1.5,1.9-2.7,3.5-3.5s3.5-1.2,5.6-1.2c2.6,0,4.7,0.5,6.4,1.5
			s2.9,2.3,3.6,3.9c0.7,1.6,1,3.9,1,6.9L181.3,212.7L181.3,212.7z M172,207.8v-2.2c0-1.6-0.1-2.6-0.3-3c-0.2-0.5-0.5-0.7-1-0.7
			c-0.6,0-1,0.2-1.2,0.6c-0.2,0.4-0.2,1.4-0.2,3.2v2.2h2.7V207.8z"/>
	</g>
	<g class="st35">
		<path class="st36" d="M67.6,230.7v4.7c-1.9,0-3,0.1-3.4,0.3c-0.3,0.2-0.5,0.7-0.5,1.5v1h3.9v4.8h-2.2v24.9h-9.3V243h-1.9v-4.8h1.9
			c0-2,0.1-3.3,0.2-4c0.1-0.7,0.5-1.3,1-1.8s1.3-0.9,2.3-1.2s2.5-0.4,4.6-0.4h3.4V230.7z"/>
		<path class="st36" d="M78.9,230.7v37.1h-9.5v-37.1L78.9,230.7L78.9,230.7z"/>
		<path class="st36" d="M90.5,249.2h-8.7v-2c0-2.4,0.3-4.2,0.8-5.4c0.5-1.3,1.6-2.4,3.3-3.4c1.6-1,3.8-1.5,6.4-1.5
			c3.1,0,5.5,0.6,7.1,1.7c1.6,1.1,2.5,2.5,2.9,4.1c0.3,1.6,0.5,4.9,0.5,10V268h-9v-2.7c-0.6,1.1-1.3,1.9-2.2,2.4
			c-0.9,0.5-2,0.8-3.2,0.8c-1.6,0-3.1-0.5-4.5-1.4s-2-2.9-2-6v-2.5c0-2.3,0.4-3.8,1.1-4.7c0.7-0.8,2.5-1.8,5.3-2.9
			c3-1.2,4.7-2,4.9-2.4c0.2-0.4,0.3-1.3,0.3-2.5c0-1.6-0.1-2.6-0.4-3.1c-0.2-0.5-0.6-0.7-1.2-0.7s-1,0.2-1.2,0.6
			c-0.2,0.4-0.2,1.5-0.2,3.2L90.5,249.2L90.5,249.2z M93.4,253.4c-1.5,1.1-2.3,2-2.6,2.7c-0.2,0.7-0.4,1.8-0.4,3.2
			c0,1.6,0.1,2.6,0.3,3c0.2,0.5,0.6,0.7,1.2,0.7s1-0.2,1.1-0.5c0.2-0.4,0.3-1.3,0.3-2.8L93.4,253.4L93.4,253.4z"/>
		<path class="st36" d="M126.9,237.4v23.4c0,3.2-0.1,5.2-0.2,6.1s-0.7,1.9-1.5,2.9c-0.9,1-2.1,1.8-3.7,2.4c-1.6,0.5-3.6,0.8-6,0.8
			c-2.9,0-5.3-0.5-7.1-1.5c-1.8-1-2.7-3-2.8-5.9h9c0,1.3,0.5,2,1.5,2c0.7,0,1.2-0.2,1.4-0.6s0.3-1.3,0.3-2.6v-2.3
			c-0.8,0.7-1.6,1.3-2.5,1.6c-0.9,0.4-1.8,0.6-2.8,0.6c-1.7,0-3-0.3-4.1-1s-1.8-1.6-2.2-2.6c-0.4-1.1-0.6-2.6-0.6-4.7v-11
			c0-2.9,0.5-5,1.6-6.2s2.6-1.9,4.7-1.9c1.2,0,2.2,0.2,3.2,0.7s1.8,1.2,2.6,2.1l0.7-2.3H126.9z M117.6,245.5c0-1.4-0.1-2.3-0.2-2.7
			c-0.2-0.4-0.5-0.6-1.1-0.6c-0.5,0-0.9,0.2-1.1,0.7s-0.3,1.3-0.3,2.6v10.2c0,1.4,0.1,2.2,0.3,2.6c0.2,0.4,0.5,0.6,1.1,0.6
			s1-0.2,1.2-0.7s0.3-1.6,0.3-3.3v-9.4H117.6z"/>
		<path class="st36" d="M139.8,230.7v4.8h-9.5v-4.8H139.8z M139.8,237.4v30.4h-9.5v-30.4H139.8z"/>
	</g>
	<g>
		<g>
			<defs>
				<rect id="SVGID_00000008866760608599972550000017640599562548393096_" x="0.2" y="0.7" width="195.6" height="280.6"/>
			</defs>
			<clipPath id="SVGID_00000099628349238963531380000011003013287898844588_">
				<use xlink:href="#SVGID_00000008866760608599972550000017640599562548393096_"  style="overflow:visible;"/>
			</clipPath>
			<path style="clip-path:url(#SVGID_00000099628349238963531380000011003013287898844588_);fill:#EB5A53;" d="M150.8,0h29h16v16
				c0,7,0,14,0,21c-10.2,12.4-28.6,14.2-41,4S140.6,12.4,150.8,0z"/>
		</g>
	</g>
	<g>
		<g>
			<defs>
				<rect id="SVGID_00000167377048136626843820000008682351835676282267_" x="0.2" y="0.7" width="195.6" height="280.6"/>
			</defs>
			<clipPath id="SVGID_00000132768730807385890390000016029773400273994933_">
				<use xlink:href="#SVGID_00000167377048136626843820000008682351835676282267_"  style="overflow:visible;"/>
			</clipPath>
		</g>
	</g>
</g>
<g class="st35">
	<path class="st38" d="M169.9,21.3v5.3c0,1.2-0.1,2.1-0.2,2.6c-0.1,0.5-0.4,1.1-0.8,1.5s-0.9,0.8-1.5,1c-0.6,0.2-1.2,0.3-1.9,0.3
		c-0.9,0-1.7-0.1-2.4-0.3s-1.1-0.6-1.5-1s-0.6-0.9-0.8-1.5s-0.2-1.3-0.2-2.4v-5.5c0-1.5,0.1-2.5,0.4-3.3c0.2-0.7,0.7-1.3,1.5-1.7
		c0.7-0.4,1.6-0.7,2.7-0.7c0.9,0,1.6,0.2,2.3,0.5s1.2,0.7,1.5,1.1c0.3,0.4,0.6,0.9,0.7,1.5C169.8,19.2,169.9,20.1,169.9,21.3z
		 M166,20c0-0.8,0-1.4-0.1-1.6c-0.1-0.2-0.3-0.3-0.6-0.3c-0.3,0-0.5,0.1-0.6,0.3c-0.1,0.2-0.1,0.7-0.1,1.6v7.7c0,0.9,0,1.5,0.1,1.7
		s0.3,0.3,0.6,0.3s0.5-0.1,0.6-0.3c0.1-0.2,0.1-0.7,0.1-1.5V20z"/>
	<path class="st38" d="M178.9,22.8c0.6,0.2,1,0.6,1.3,1.1s0.5,1.6,0.5,3.3c0,1.3-0.1,2.2-0.4,2.8c-0.2,0.6-0.7,1.1-1.4,1.5
		c-0.7,0.4-1.7,0.6-2.9,0.6c-1.2,0-2.1-0.2-2.8-0.6s-1.2-0.9-1.5-1.5c-0.3-0.6-0.4-1.6-0.4-3.1c0-1,0.1-1.8,0.2-2.5s0.6-1.3,1.4-1.7
		c-0.5-0.2-0.9-0.6-1.1-1.1s-0.4-1.2-0.4-1.9c0-1.4,0.4-2.4,1.1-3.1c0.8-0.7,1.9-1,3.4-1c1.7,0,2.9,0.4,3.6,1.1c0.7,0.7,1,1.8,1,3.1
		c0,0.9-0.1,1.5-0.3,1.8C180,22,179.5,22.4,178.9,22.8z M176.7,26c0-0.6-0.1-1-0.2-1.2c-0.1-0.2-0.3-0.3-0.6-0.3
		c-0.3,0-0.4,0.1-0.6,0.3c-0.1,0.2-0.2,0.6-0.2,1.2V28c0,0.7,0.1,1.1,0.2,1.3s0.3,0.3,0.6,0.3c0.3,0,0.5-0.1,0.6-0.3
		s0.1-0.6,0.1-1.3V26z M176.6,19.4c0-0.5,0-0.9-0.1-1.1c-0.1-0.2-0.3-0.3-0.5-0.3c-0.3,0-0.4,0.1-0.5,0.3c-0.1,0.2-0.1,0.5-0.1,1
		v1.2c0,0.5,0.1,0.8,0.2,1c0.1,0.2,0.3,0.3,0.5,0.3c0.3,0,0.4-0.1,0.5-0.3c0.1-0.2,0.1-0.5,0.1-1.1V19.4z"/>
</g>
</svg>
