<svg id="Слой_1" data-name="Слой 1" xmlns="http://www.w3.org/2000/svg" viewBox="0 0 195.59 280.63"><defs><style>.cls-1{fill:#eb5a53;}.cls-10,.cls-2{fill:#fff;}.cls-3{fill:#67b54b;}.cls-4,.cls-9{fill:#1a1a1a;}.cls-5{fill:#88c05c;}.cls-6{fill:#595959;}.cls-7{fill:#797979;}.cls-8{fill:#3e3e3e;}.cls-9{font-size:29.2px;}.cls-10,.cls-9{font-family:Impact;}.cls-10{font-size:20px;}</style></defs><rect class="cls-1" x="-1.54" y="93.54" width="198.67" height="93.54"/><rect class="cls-2" x="-1.54" width="198.67" height="93.54"/><rect class="cls-2" x="-1.54" y="187.09" width="198.67" height="93.54"/><path class="cls-2" d="M45.17,134.46H45l-.11,0h-.11l-.11,0-.09,0h0l-.14,0-.1,0-.1,0-.1,0-.09.06-.09.06-.09.06-.08.07-.08.07a.6.6,0,0,0-.08.08l-.07.08a.27.27,0,0,0-.07.08l-.07.09-.06.09a.41.41,0,0,0-.05.09.31.31,0,0,0,0,.1.41.41,0,0,0-.05.09l0,.1,0,.1,0,.11,0,.1a.43.43,0,0,1,0,.11s0,.07,0,.11,0,.07,0,.11v.29s0,.07,0,.1,0,.07,0,.11l0,.11a.29.29,0,0,0,0,.09v.05s0,.1,0,.14a.3.3,0,0,0,0,.1,1,1,0,0,0,0,.1l.05.1.06.09.06.09.06.09a.27.27,0,0,0,.07.08l.07.09.07.07.08.08.09.06.08.07.09.06.1.06.09,0,.1,0,.1,0,.1,0,.11,0,.1,0,.11,0,.1,0h.51l.11,0,.11,0,.09,0h0l0,0,.14,0,.1,0,.1,0,.1-.05.09-.05.09-.06.09-.06.08-.07.08-.07.08-.08.07-.08.07-.08.07-.09.06-.09.06-.09,0-.1,0-.09,0-.1a.49.49,0,0,0,0-.11l0-.1,0-.1s0-.08,0-.11,0-.07,0-.11,0-.07,0-.11v-.29s0-.07,0-.11a.34.34,0,0,0,0-.1s0-.08,0-.11a.36.36,0,0,1,0-.1h0l0,0a.88.88,0,0,0,0-.15l0-.1a.69.69,0,0,0,0-.1l0-.09a.41.41,0,0,1,0-.09l-.06-.09-.07-.09-.06-.09a.6.6,0,0,1-.08-.08l-.07-.08L46.6,135l-.09-.07-.08-.06-.09-.06-.1-.06-.09-.05-.1,0-.1,0-.1,0-.11,0-.1,0-.11,0-.11,0h-.25Zm0,0"/><path class="cls-2" d="M45.17,134.46H45l-.11,0h-.11l-.11,0-.09,0h0l-.14,0-.1,0-.1,0-.1,0-.09.06-.09.06-.09.06-.08.07-.08.07a.6.6,0,0,0-.08.08l-.07.08a.27.27,0,0,0-.07.08l-.07.09-.06.09a.41.41,0,0,0-.05.09.31.31,0,0,0,0,.1.41.41,0,0,0-.05.09l0,.1,0,.1,0,.11,0,.1a.43.43,0,0,1,0,.11s0,.07,0,.11,0,.07,0,.11v.29s0,.07,0,.1,0,.08,0,.11l0,.11a.29.29,0,0,0,0,.09v.05s0,.1,0,.14a.3.3,0,0,0,0,.1,1,1,0,0,0,0,.1l.05.1.06.09.06.09.06.09a.27.27,0,0,0,.07.08l.07.09.07.07.08.08.09.06.08.07.09.06.1.06.09,0,.1,0,.1,0,.1,0,.11,0,.1,0,.11,0,.1,0h.4l.11,0h.11l.11,0,.09,0h0l0,0,.14-.05.1,0,.1,0,.1-.05.09-.06.09-.05.09-.07a.27.27,0,0,0,.08-.07.27.27,0,0,0,.08-.07l.08-.07.07-.08.07-.08.07-.09.06-.09.06-.09a.31.31,0,0,1,0-.1,1,1,0,0,0,0-.1.3.3,0,0,0,0-.1.3.3,0,0,0,0-.1l0-.1,0-.11s0-.07,0-.1,0-.08,0-.11,0-.07,0-.11v-.29s0-.08,0-.11a.41.41,0,0,0,0-.11s0-.07,0-.11a.29.29,0,0,1,0-.09v0l0,0a1.21,1.21,0,0,0,0-.14,1465262834039.89,1465262834039.89,0,0,1-.08-.2l0-.09a.93.93,0,0,1,0-.1L47,135.4l-.07-.09-.06-.08-.08-.08-.07-.08L46.6,135l-.09-.07-.08-.07-.09-.06-.1-.05-.09-.05-.1,0-.1,0-.1,0-.11,0-.1,0-.11,0h-.11l-.1,0h-.15Zm0,0"/><path class="cls-2" d="M45.17,134.46H45l-.11,0h-.11l-.11,0-.09,0h0l-.14,0-.1,0-.1,0-.1,0-.09.06-.09.06-.09.06-.08.07-.08.07a.6.6,0,0,0-.08.08l-.07.08a.27.27,0,0,0-.07.08l-.07.09-.06.09a.41.41,0,0,0-.05.09.31.31,0,0,0,0,.1.41.41,0,0,0-.05.09l0,.1,0,.1,0,.11,0,.1a.43.43,0,0,1,0,.11s0,.07,0,.11,0,.07,0,.11v.29s0,.07,0,.1,0,.08,0,.11l0,.11a.29.29,0,0,0,0,.09v.05s0,.1,0,.14a.3.3,0,0,0,0,.1,1,1,0,0,0,0,.1l.05.1.06.09.06.09.06.09a.27.27,0,0,0,.07.08l.07.09.07.07.08.08.09.06.08.07.09.06.1.06.09,0,.1,0,.1,0,.1,0,.11,0,.1,0,.11,0,.1,0h.4l.11,0h.11l.11,0,.09,0h0l0,0,.14-.05.1,0,.1,0,.1-.05.09-.06.09-.05.09-.07a.27.27,0,0,0,.08-.07.27.27,0,0,0,.08-.07l.08-.07.07-.08.07-.08.07-.09.06-.09.06-.09a.31.31,0,0,1,0-.1,1,1,0,0,0,0-.1.3.3,0,0,0,0-.1.3.3,0,0,0,0-.1l0-.1,0-.11s0-.07,0-.1,0-.08,0-.11,0-.07,0-.11v-.29s0-.08,0-.11a.41.41,0,0,0,0-.11s0-.07,0-.11a.29.29,0,0,1,0-.09v0l0,0a1.21,1.21,0,0,0,0-.14,1465262834039.89,1465262834039.89,0,0,1-.08-.2l0-.09a.93.93,0,0,1,0-.1L47,135.4l-.07-.09-.06-.08-.08-.08-.07-.08L46.6,135l-.09-.07-.08-.07-.09-.06-.1-.05-.09-.05-.1,0-.1,0-.1,0-.11,0-.1,0-.11,0h-.11l-.1,0h-.15Zm0,0"/><path class="cls-2" d="M45.17,134.46H45l-.11,0h-.11l-.11,0-.09,0h0l-.14,0-.1,0-.1,0-.1,0-.09.06-.09.06-.09.06-.08.07-.08.07a.6.6,0,0,0-.08.08l-.07.08a.27.27,0,0,0-.07.08l-.07.09-.06.09a.41.41,0,0,0-.05.09.31.31,0,0,0,0,.1.41.41,0,0,0-.05.09l0,.1,0,.1,0,.11,0,.1a.43.43,0,0,1,0,.11s0,.07,0,.11,0,.07,0,.11v.29s0,.07,0,.1,0,.08,0,.11l0,.11a.29.29,0,0,0,0,.09v.05s0,.1,0,.14a.3.3,0,0,0,0,.1,1,1,0,0,0,0,.1l.05.1.06.09.06.09.06.09a.27.27,0,0,0,.07.08l.07.09.07.07.08.08.09.06.08.07.09.06.1.06.09,0,.1,0,.1,0,.1,0,.11,0,.1,0,.11,0,.1,0h.4l.11,0h.11l.11,0,.09,0h0l0,0,.14-.05.1,0,.1,0,.1-.05.09-.06.09-.05.09-.07a.27.27,0,0,0,.08-.07.27.27,0,0,0,.08-.07l.08-.07.07-.08.07-.08.07-.09.06-.09.06-.09a.31.31,0,0,1,0-.1,1,1,0,0,0,0-.1.3.3,0,0,0,0-.1.3.3,0,0,0,0-.1l0-.1,0-.11s0-.07,0-.1,0-.08,0-.11,0-.07,0-.11v-.29s0-.08,0-.11a.41.41,0,0,0,0-.11s0-.07,0-.11a.29.29,0,0,1,0-.09v0l0,0a1.21,1.21,0,0,0,0-.14,1465262834039.89,1465262834039.89,0,0,1-.08-.2l0-.09a.93.93,0,0,1,0-.1L47,135.4l-.07-.09-.06-.08-.08-.08-.07-.08L46.6,135l-.09-.07-.08-.07-.09-.06-.1-.05-.09-.05-.1,0-.1,0-.1,0-.11,0-.1,0-.11,0h-.11l-.1,0h-.15Zm0,0"/><path class="cls-2" d="M45.17,134.46H45l-.11,0h-.11l-.11,0-.09,0h0l-.14,0-.1,0-.1,0-.1,0-.09.06-.09.06-.09.06-.08.07-.08.07a.6.6,0,0,0-.08.08l-.07.08a.27.27,0,0,0-.07.08l-.07.09-.06.09a.41.41,0,0,0-.05.09.31.31,0,0,0,0,.1.41.41,0,0,0-.05.09l0,.1,0,.1,0,.11,0,.1a.43.43,0,0,1,0,.11s0,.07,0,.11,0,.07,0,.11v.29s0,.07,0,.1,0,.08,0,.11l0,.11a.29.29,0,0,0,0,.09v.05s0,.1,0,.14a.3.3,0,0,0,0,.1,1,1,0,0,0,0,.1l.05.1.06.09.06.09.06.09a.27.27,0,0,0,.07.08l.07.09.07.07.08.08.09.06.08.07.09.06.1.06.09,0,.1,0,.1,0,.1,0,.11,0,.1,0,.11,0,.1,0h.4l.11,0h.11l.11,0,.09,0h0l0,0,.14-.05.1,0,.1,0,.1-.05.09-.06.09-.05.09-.07a.27.27,0,0,0,.08-.07.27.27,0,0,0,.08-.07l.08-.07.07-.08.07-.08.07-.09.06-.09.06-.09a.31.31,0,0,1,0-.1,1,1,0,0,0,0-.1.3.3,0,0,0,0-.1.3.3,0,0,0,0-.1l0-.1,0-.11s0-.07,0-.1,0-.08,0-.11,0-.07,0-.11v-.29s0-.08,0-.11a.41.41,0,0,0,0-.11s0-.07,0-.11a.29.29,0,0,1,0-.09v0l0,0a1.21,1.21,0,0,0,0-.14,1465262834039.89,1465262834039.89,0,0,1-.08-.2l0-.09a.93.93,0,0,1,0-.1L47,135.4l-.07-.09-.06-.08-.08-.08-.07-.08L46.6,135l-.09-.07-.08-.07-.09-.06-.1-.05-.09-.05-.1,0-.1,0-.1,0-.11,0-.1,0-.11,0h-.11l-.1,0h-.15Zm0,0"/><path class="cls-2" d="M45.17,134.46H45l-.11,0h-.11l-.11,0-.09,0h0l-.14,0-.1,0-.1,0-.1,0-.09.06-.09.06-.09.06-.08.07-.08.07a.6.6,0,0,0-.08.08l-.07.08a.27.27,0,0,0-.07.08l-.07.09-.06.09a.41.41,0,0,0-.05.09.31.31,0,0,0,0,.1.41.41,0,0,0-.05.09l0,.1,0,.1,0,.11,0,.1a.43.43,0,0,1,0,.11s0,.07,0,.11,0,.07,0,.11v.29s0,.07,0,.1,0,.08,0,.11l0,.11a.29.29,0,0,0,0,.09v.05s0,.1,0,.14a.3.3,0,0,0,0,.1,1,1,0,0,0,0,.1l.05.1.06.09.06.09.06.09a.27.27,0,0,0,.07.08l.07.09.07.07.08.08.09.06.08.07.09.06.1.06.09,0,.1,0,.1,0,.1,0,.11,0,.1,0,.11,0,.1,0h.4l.11,0h.11l.11,0,.09,0h0l0,0,.14-.05.1,0,.1,0,.1-.05.09-.06.09-.05.09-.07a.27.27,0,0,0,.08-.07.27.27,0,0,0,.08-.07l.08-.07.07-.08.07-.08.07-.09.06-.09.06-.09a.31.31,0,0,1,0-.1,1,1,0,0,0,0-.1.3.3,0,0,0,0-.1.3.3,0,0,0,0-.1l0-.1,0-.11s0-.07,0-.1,0-.08,0-.11,0-.07,0-.11v-.29s0-.08,0-.11a.41.41,0,0,0,0-.11s0-.07,0-.11a.29.29,0,0,1,0-.09v0l0,0a1.21,1.21,0,0,0,0-.14,1465262834039.89,1465262834039.89,0,0,1-.08-.2l0-.09a.93.93,0,0,1,0-.1L47,135.4l-.07-.09-.06-.08-.08-.08-.07-.08L46.6,135l-.09-.07-.08-.07-.09-.06-.1-.05-.09-.05-.1,0-.1,0-.1,0-.11,0-.1,0-.11,0h-.11l-.1,0h-.15Zm0,0"/><path class="cls-2" d="M45.17,134.46H45l-.11,0h-.11l-.11,0-.09,0h0l-.14,0-.1,0-.1,0-.1,0-.09.06-.09.06-.09.06-.08.07-.08.07a.6.6,0,0,0-.08.08l-.07.08a.27.27,0,0,0-.07.08l-.07.09-.06.09a.41.41,0,0,0-.05.09.31.31,0,0,0,0,.1.41.41,0,0,0-.05.09l0,.1,0,.1,0,.11,0,.1a.43.43,0,0,1,0,.11s0,.07,0,.11,0,.07,0,.11v.29s0,.07,0,.1,0,.08,0,.11l0,.11a.29.29,0,0,0,0,.09v.05s0,.1,0,.14a.3.3,0,0,0,0,.1,1,1,0,0,0,0,.1l.05.1.06.09.06.09.06.09a.27.27,0,0,0,.07.08l.07.09.07.07.08.08.09.06.08.07.09.06.1.06.09,0,.1,0,.1,0,.1,0,.11,0,.1,0,.11,0,.1,0h.4l.11,0h.11l.11,0,.09,0h0l0,0,.14-.05.1,0,.1,0,.1-.05.09-.06.09-.05.09-.07a.27.27,0,0,0,.08-.07.27.27,0,0,0,.08-.07l.08-.07.07-.08.07-.08.07-.09.06-.09.06-.09a.31.31,0,0,1,0-.1,1,1,0,0,0,0-.1.3.3,0,0,0,0-.1.3.3,0,0,0,0-.1l0-.1,0-.11s0-.07,0-.1,0-.08,0-.11,0-.07,0-.11v-.29s0-.08,0-.11a.41.41,0,0,0,0-.11s0-.07,0-.11a.29.29,0,0,1,0-.09v0l0,0a1.21,1.21,0,0,0,0-.14,1465262834039.89,1465262834039.89,0,0,1-.08-.2l0-.09a.93.93,0,0,1,0-.1L47,135.4l-.07-.09-.06-.08-.08-.08-.07-.08L46.6,135l-.09-.07-.08-.07-.09-.06-.1-.05-.09-.05-.1,0-.1,0-.1,0-.11,0-.1,0-.11,0h-.11l-.1,0h-.15Zm0,0"/><path class="cls-2" d="M45.17,134.46H45l-.11,0h-.11l-.11,0-.09,0h0l-.14,0-.1,0-.1,0-.1,0-.09.06-.09.06-.09.06-.08.07-.08.07a.6.6,0,0,0-.08.08l-.07.08a.27.27,0,0,0-.07.08l-.07.09-.06.09a.41.41,0,0,0-.05.09.31.31,0,0,0,0,.1.41.41,0,0,0-.05.09l0,.1,0,.1,0,.11,0,.1a.43.43,0,0,1,0,.11s0,.07,0,.11,0,.07,0,.11v.29s0,.07,0,.1,0,.08,0,.11l0,.11a.29.29,0,0,0,0,.09v.05s0,.1,0,.14a.3.3,0,0,0,0,.1,1,1,0,0,0,0,.1l.05.1.06.09.06.09.06.09a.27.27,0,0,0,.07.08l.07.09.07.07.08.08.09.06.08.07.09.06.1.06.09,0,.1,0,.1,0,.1,0,.11,0,.1,0,.11,0,.1,0h.4l.11,0h.11l.11,0,.09,0h0l0,0,.14-.05.1,0,.1,0,.1-.05.09-.06.09-.05.09-.07a.27.27,0,0,0,.08-.07.27.27,0,0,0,.08-.07l.08-.07.07-.08.07-.08.07-.09.06-.09.06-.09a.31.31,0,0,1,0-.1,1,1,0,0,0,0-.1.3.3,0,0,0,0-.1.3.3,0,0,0,0-.1l0-.1,0-.11s0-.07,0-.1,0-.08,0-.11,0-.07,0-.11v-.29s0-.08,0-.11a.41.41,0,0,0,0-.11s0-.07,0-.11a.29.29,0,0,1,0-.09v0l0,0a1.21,1.21,0,0,0,0-.14,1465262834039.89,1465262834039.89,0,0,1-.08-.2l0-.09a.93.93,0,0,1,0-.1L47,135.4l-.07-.09-.06-.08-.08-.08-.07-.08L46.6,135l-.09-.07-.08-.07-.09-.06-.1-.05-.09-.05-.1,0-.1,0-.1,0-.11,0-.1,0-.11,0h-.11l-.1,0h-.15Zm0,0"/><path class="cls-2" d="M45.17,134.46H45l-.11,0h-.11l-.11,0-.09,0h0l-.14,0-.1,0-.1,0-.1,0-.09.06-.09.06-.09.06-.08.07-.08.07a.6.6,0,0,0-.08.08l-.07.08a.27.27,0,0,0-.07.08l-.07.09-.06.09a.41.41,0,0,0-.05.09.31.31,0,0,0,0,.1.41.41,0,0,0-.05.09l0,.1,0,.1,0,.11,0,.1a.43.43,0,0,1,0,.11s0,.07,0,.11,0,.07,0,.11v.29s0,.07,0,.1,0,.08,0,.11l0,.11a.29.29,0,0,0,0,.09v.05s0,.1,0,.14a.3.3,0,0,0,0,.1,1,1,0,0,0,0,.1l.05.1.06.09.06.09.06.09a.27.27,0,0,0,.07.08l.07.09.07.07.08.08.09.06.08.07.09.06.1.06.09,0,.1,0,.1,0,.1,0,.11,0,.1,0,.11,0,.1,0h.4l.11,0h.11l.11,0,.09,0h0l0,0,.14-.05.1,0,.1,0,.1-.05.09-.06.09-.05.09-.07a.27.27,0,0,0,.08-.07.27.27,0,0,0,.08-.07l.08-.07.07-.08.07-.08.07-.09.06-.09.06-.09a.31.31,0,0,1,0-.1,1,1,0,0,0,0-.1.3.3,0,0,0,0-.1.3.3,0,0,0,0-.1l0-.1,0-.11s0-.07,0-.1,0-.08,0-.11,0-.07,0-.11v-.29s0-.08,0-.11a.41.41,0,0,0,0-.11s0-.07,0-.11a.29.29,0,0,1,0-.09v0l0,0a1.21,1.21,0,0,0,0-.14,1465262834039.89,1465262834039.89,0,0,1-.08-.2l0-.09a.93.93,0,0,1,0-.1L47,135.4l-.07-.09-.06-.08-.08-.08-.07-.08L46.6,135l-.09-.07-.08-.07-.09-.06-.1-.05-.09-.05-.1,0-.1,0-.1,0-.11,0-.1,0-.11,0h-.11l-.1,0h-.15Zm0,0"/><path class="cls-2" d="M45.17,134.46H45l-.11,0h-.11l-.11,0-.09,0h0l-.14,0-.1,0-.1,0-.1,0-.09.06-.09.06-.09.06-.08.07-.08.07a.6.6,0,0,0-.08.08l-.07.08a.27.27,0,0,0-.07.08l-.07.09-.06.09a.41.41,0,0,0-.05.09.31.31,0,0,0,0,.1.41.41,0,0,0-.05.09l0,.1,0,.1,0,.11,0,.1a.43.43,0,0,1,0,.11s0,.07,0,.11,0,.07,0,.11v.29s0,.07,0,.1,0,.08,0,.11l0,.11a.29.29,0,0,0,0,.09v.05s0,.1,0,.14a.3.3,0,0,0,0,.1,1,1,0,0,0,0,.1l.05.1.06.09.06.09.06.09a.27.27,0,0,0,.07.08l.07.09.07.07.08.08.09.06.08.07.09.06.1.06.09,0,.1,0,.1,0,.1,0,.11,0,.1,0,.11,0,.1,0h.4l.11,0h.11l.11,0,.09,0h0l0,0,.14-.05.1,0,.1,0,.1-.05.09-.06.09-.05.09-.07a.27.27,0,0,0,.08-.07.27.27,0,0,0,.08-.07l.08-.07.07-.08.07-.08.07-.09.06-.09.06-.09a.31.31,0,0,1,0-.1,1,1,0,0,0,0-.1.3.3,0,0,0,0-.1.3.3,0,0,0,0-.1l0-.1,0-.11s0-.07,0-.1,0-.08,0-.11,0-.07,0-.11v-.29s0-.08,0-.11a.41.41,0,0,0,0-.11s0-.07,0-.11a.29.29,0,0,1,0-.09v0l0,0a1.21,1.21,0,0,0,0-.14,1465262834039.89,1465262834039.89,0,0,1-.08-.2l0-.09a.93.93,0,0,1,0-.1L47,135.4l-.07-.09-.06-.08-.08-.08-.07-.08L46.6,135l-.09-.07-.08-.07-.09-.06-.1-.05-.09-.05-.1,0-.1,0-.1,0-.11,0-.1,0-.11,0h-.11l-.1,0h-.15Zm0,0"/><path class="cls-3" d="M28.62,207.17c3.51,13.1,4.13,32.89-1.26,34.33s-14.74-16-18.25-29.1,1.55-17.26,5.54-18.33,10.46,0,14,13.1Zm0,0"/><path class="cls-4" d="M8.69,220.26a86.75,86.75,0,0,0,6.42,13.58,36.37,36.37,0,0,0,5.66,7.59c2,1.93,4.41,3.58,7.32,2.8s4.19-3.42,4.95-6.09a36.51,36.51,0,0,0,1.11-9.4,86.45,86.45,0,0,0-1.24-15l-5.48,1.46a81.72,81.72,0,0,1,1.08,13.44,32.8,32.8,0,0,1-.89,7.93,5.67,5.67,0,0,1-1,2.12,5.75,5.75,0,0,1-1.93-1.34A32.59,32.59,0,0,1,20,231a82.29,82.29,0,0,1-5.79-12.18Zm0,0"/><path class="cls-4" d="M13.93,191.35a11.42,11.42,0,0,0-7.41,6.17c-1.71,3.62-2,8.66-.14,15.61a81.71,81.71,0,0,0,2.89,8.63l5.49-1.47a75.1,75.1,0,0,1-2.93-8.62c-1.65-6.15-1.15-9.75-.21-11.75a5.47,5.47,0,0,1,3.76-3.13,5.45,5.45,0,0,1,4.83.83c1.81,1.26,4,4.13,5.69,10.28a77.48,77.48,0,0,1,1.78,8.93l5.49-1.47a81.65,81.65,0,0,0-1.83-8.92c-1.86-6.95-4.62-11.17-7.92-13.45a11.38,11.38,0,0,0-9.49-1.64Zm0,0"/><path class="cls-3" d="M81.24,212.4C77.73,225.5,68.37,243,63,241.5s-4.77-21.23-1.26-34.33,10-14.17,14-13.1,9.06,5.23,5.55,18.33Zm0,0"/><path class="cls-4" d="M57.43,213.77a86.42,86.42,0,0,0-1.23,15,36.51,36.51,0,0,0,1.11,9.4c.75,2.67,2,5.31,4.94,6.09s5.33-.87,7.32-2.8a36.74,36.74,0,0,0,5.67-7.59,87.66,87.66,0,0,0,6.42-13.58l-5.49-1.47A82.27,82.27,0,0,1,70.39,231a33,33,0,0,1-4.74,6.41,6.08,6.08,0,0,1-1.92,1.35,5.69,5.69,0,0,1-1-2.13,32.73,32.73,0,0,1-.9-7.93,81.72,81.72,0,0,1,1.08-13.44Zm0,0"/><path class="cls-4" d="M76.42,191.35a11.4,11.4,0,0,0-9.5,1.64c-3.29,2.28-6.06,6.5-7.92,13.45a79.39,79.39,0,0,0-1.82,8.92l5.49,1.47a75.82,75.82,0,0,1,1.78-8.93c1.64-6.15,3.87-9,5.68-10.28a5.84,5.84,0,0,1,8.59,2.3c1,2,1.44,5.6-.21,11.75a77,77,0,0,1-2.92,8.62l5.49,1.47A81.59,81.59,0,0,0,84,213.13c1.86-6.95,1.58-12-.14-15.61a11.41,11.41,0,0,0-7.4-6.17Zm0,0"/><path class="cls-3" d="M128.73,137.09c3.51,13.1,4.14,32.89-1.25,34.33s-14.75-16-18.26-29.1,1.56-17.26,5.55-18.33,10.45,0,14,13.1Zm0,0"/><path class="cls-4" d="M108.8,150.18a86.75,86.75,0,0,0,6.42,13.58,36.73,36.73,0,0,0,5.66,7.59c2,1.93,4.41,3.58,7.33,2.8s4.18-3.42,4.94-6.09a36.51,36.51,0,0,0,1.11-9.4,86.42,86.42,0,0,0-1.23-15l-5.48,1.47a82.6,82.6,0,0,1,1.07,13.44,32.77,32.77,0,0,1-.89,7.92,5.87,5.87,0,0,1-1,2.13,6,6,0,0,1-1.92-1.35,32.27,32.27,0,0,1-4.74-6.41,81.81,81.81,0,0,1-5.79-12.18Zm0,0"/><path class="cls-4" d="M114,121.27a11.42,11.42,0,0,0-7.41,6.17c-1.71,3.63-2,8.66-.13,15.61a79.37,79.37,0,0,0,2.88,8.63l5.49-1.47a77.08,77.08,0,0,1-2.93-8.62c-1.64-6.15-1.15-9.75-.21-11.75a5.85,5.85,0,0,1,8.59-2.3c1.82,1.26,4,4.13,5.69,10.28a75.82,75.82,0,0,1,1.78,8.93l5.49-1.47a82.17,82.17,0,0,0-1.82-8.92c-1.87-7-4.63-11.16-7.92-13.45a11.44,11.44,0,0,0-9.5-1.64Zm0,0"/><path class="cls-4" d="M-6.11,217a23.2,23.2,0,0,1-23.15-23.16V63.36A23.2,23.2,0,0,1-6.11,40.2H96.45A23.2,23.2,0,0,1,119.6,63.36V193.88A23.2,23.2,0,0,1,96.45,217Zm0-9H96.45a14,14,0,0,0,14.13-14.14V63.36A14,14,0,0,0,96.45,49.22H-6.11A14,14,0,0,0-20.24,63.36V193.88A14,14,0,0,0-6.11,208Zm0,0"/><path class="cls-5" d="M-6.11,212.53H96.45a18.6,18.6,0,0,0,18.64-18.65V63.36A18.6,18.6,0,0,0,96.45,44.71H-6.11A18.6,18.6,0,0,0-24.75,63.36V193.88A18.6,18.6,0,0,0-6.11,212.53Zm0,0"/><path class="cls-3" d="M-6.11,44.71A18.6,18.6,0,0,0-24.75,63.36V78.28H115.09V63.36A18.6,18.6,0,0,0,96.45,44.71ZM-24.75,179v14.91A18.6,18.6,0,0,0-6.11,212.53H96.45a18.6,18.6,0,0,0,18.64-18.65V179Zm0,0"/><rect class="cls-3" x="-24.75" y="111.84" width="139.84" height="33.56"/><rect class="cls-2" x="-15.43" y="127.78" width="121.2" height="1.69"/><path class="cls-4" d="M-6.11,213.66a19.76,19.76,0,0,1-19.77-19.78V63.36A19.75,19.75,0,0,1-6.11,43.59H96.45a19.75,19.75,0,0,1,19.77,19.77V193.88a19.76,19.76,0,0,1-19.77,19.78Zm0-2.26H96.45A17.46,17.46,0,0,0,114,193.88V63.36A17.46,17.46,0,0,0,96.45,45.84H-6.11A17.46,17.46,0,0,0-23.62,63.36V193.88A17.45,17.45,0,0,0-6.11,211.4Zm0,0"/><path class="cls-2" d="M-6.11,53.19A10.16,10.16,0,0,0-16.27,63.36V193.88A10.16,10.16,0,0,0-6.11,204.05H96.45a10.17,10.17,0,0,0,10.17-10.17V63.36A10.17,10.17,0,0,0,96.45,53.19Zm0,1.69H96.45a8.45,8.45,0,0,1,8.48,8.48V193.88a8.45,8.45,0,0,1-8.48,8.48H-6.11a8.44,8.44,0,0,1-8.47-8.48V63.36a8.44,8.44,0,0,1,8.47-8.48Zm0,0"/><path class="cls-2" d="M105.77,193A10.19,10.19,0,0,0,95.6,203.21h1.69a8.47,8.47,0,0,1,8.48-8.48Zm0,0"/><path class="cls-2" d="M95.6,54a10.19,10.19,0,0,0,10.17,10.17v-1.7A8.46,8.46,0,0,1,97.29,54Zm0,0"/><path class="cls-2" d="M45.17,109.13a19.49,19.49,0,1,0,19.49,19.49,19.51,19.51,0,0,0-19.49-19.49Zm0,1.69a17.8,17.8,0,1,1-17.8,17.8,17.79,17.79,0,0,1,17.8-17.8Zm0,0"/><path class="cls-2" d="M16.36,174.39v29.66H74V174.39Zm1.69,1.69H72.3v26.28H18.05Zm0,0"/><path class="cls-2" d="M45.17,165.07a19.49,19.49,0,0,0-16.88,9.74l1.47.85a17.8,17.8,0,0,1,30.83,0l1.46-.85a19.49,19.49,0,0,0-16.88-9.74Zm0,0"/><path class="cls-2" d="M16.36,82.85V53.19H74V82.85Zm1.69-1.69H72.3V54.88H18.05Zm0,0"/><path class="cls-2" d="M29.76,81.58l-1.47.85a19.5,19.5,0,0,0,33.76,0l-1.46-.85a17.8,17.8,0,0,1-30.83,0Zm0,0"/><path class="cls-2" d="M25.68,193v11h39V193Zm1.69,1.69H63v7.63H27.37Zm0,0"/><path class="cls-2" d="M25.68,53.19v11h39v-11Zm1.69,1.69H63v7.63H27.37Zm0,0"/><path class="cls-4" d="M30.3,96.79,9.59,105.37v4.47a11.62,11.62,0,0,0,23.23,0V104a11.54,11.54,0,0,0-2.52-7.23Zm0,0"/><path class="cls-2" d="M24.22,105.37a3.76,3.76,0,0,0-3.75,3.75,3.75,3.75,0,0,0,6.4,2.65,3.75,3.75,0,0,0-2.65-6.4Zm0,0"/><path class="cls-4" d="M60,96.79A11.6,11.6,0,0,0,57.52,104v5.82a11.62,11.62,0,0,0,23.24,0v-4.47Zm0,0"/><path class="cls-2" d="M72.15,105.37a3.75,3.75,0,1,0,3.75,3.75,3.75,3.75,0,0,0-3.75-3.75Zm0,0"/><path class="cls-4" d="M34.16,132.49a11,11,0,1,1,22,0H53.92a8.75,8.75,0,0,0-17.5,0Zm0,0"/><path class="cls-4" d="M36,13.51v8.93c8.58.56,16.84.66,25.59,1.31,10.93.8,17.45,4,21.3,7.86s5.35,8.71,5.35,14c0,9.2-4.91,15.37-13.46,19.54s-20.71,5.65-33.19,3.73c-1.86-.29-3.73-.65-5.59-1.08V77c1.41.29,2.82.55,4.22.76,14,2.15,27.76.71,38.51-4.53s18.53-15,18.53-27.65a28.4,28.4,0,0,0-8-20.31c-5.73-5.77-14.62-9.6-27.05-10.51C52.83,14.06,44.45,14,36,13.51Zm0,0"/><path class="cls-4" d="M3.6,8.09l2.94,8L7.27,18a133.81,133.81,0,0,1-23.46-5.1l-6.93-2.43,1,7.27c4.69,35.62,33.41,55.08,61,59.8V68.36C16.73,64.13-5,49.7-11.62,23.61A90.51,90.51,0,0,0,14,27.56l6.44,0-2.66-7.18a175.89,175.89,0,0,0,21.07,2.26V13.67a140.15,140.15,0,0,1-27-3.58Zm0,0"/><path class="cls-6" d="M10.77,14.47,14,23.05c-14.57.08-31.64-5.91-31.64-5.91,9,68.08,110.42,72.19,110.42,28.43,0-12.32-7.47-24.6-30.83-26.32C44.34,18,29.69,19.06,10.77,14.47Zm0,0"/><path class="cls-7" d="M10.77,14.47,14,23.05c-14.57.08-31.64-5.91-31.64-5.91C6,48,75.57,51.86,87.9,30.51c-4.55-5.88-12.7-10.28-26-11.26C44.34,18,29.69,19.06,10.77,14.47Zm0,0"/><path class="cls-8" d="M-17.69,17.14c9,68.08,110.42,72.19,110.42,28.43a27.33,27.33,0,0,0-.64-6C75.86,78.75-5.8,61.5-17.69,17.14Zm0,0"/><path class="cls-4" d="M36,16.91v2.2c8.54.53,16.84.6,25.84,1.26,11.49.85,18.9,4.27,23.45,8.86A22.49,22.49,0,0,1,91.6,45.57c0,10.5-6,18-15.36,22.58s-22.13,6-35.19,4c-1.68-.26-3.38-.58-5.07-1v2.31c1.58.34,3.16.63,4.73.87,13.43,2.06,26.6.61,36.52-4.23S93.86,57,93.86,45.57a24.87,24.87,0,0,0-7-17.93c-5-5.06-13-8.64-24.9-9.52-9.16-.67-17.49-.7-26-1.21Zm0,0"/><path class="cls-4" d="M9,12.88l.73,2,2.57,6.93c-13.89-.35-29.59-5.71-29.59-5.71L-19,15.47l.24,1.82c4.44,33.78,31.35,52.13,57.63,56.81V71.81C13.9,67.24-11.29,50.14-16.26,18.73-13.69,19.6.36,24.26,14,24.18h1.61l-3.05-8.23a153.13,153.13,0,0,0,26.31,3.34V17.06A143.09,143.09,0,0,1,11,13.38Zm0,0"/><text class="cls-9" transform="translate(56.29 270.76)">mistrzami</text><text class="cls-9" transform="translate(87.23 244.42)">nie byli</text><path class="cls-1" d="M150.64,0l29,0h16l0,16c0,7,0,14,0,21A29.09,29.09,0,0,1,150.64,0Z"/><text class="cls-10" transform="translate(159.7 31.75)">06</text></svg>