<svg id="Слой_1" data-name="Слой 1" xmlns="http://www.w3.org/2000/svg" viewBox="0 0 195.59 280.63"><defs><style>.cls-1{fill:#91d1dd;}.cls-2{fill:#eb5a53;}.cls-3{fill:#1a1a1a;}.cls-20,.cls-21,.cls-4{fill:#fff;}.cls-5{fill:#ee6f4d;}.cls-6{fill:#fabe7d;}.cls-7{fill:#44b1e6;}.cls-8{fill:#ea4f3d;}.cls-9{fill:#df1f1d;}.cls-10{fill:#f39673;}.cls-11{fill:#298bcc;}.cls-12{fill:#4eb9eb;}.cls-13{fill:#026196;}.cls-14{fill:#bdbdbd;}.cls-15{fill:#9c9c9c;}.cls-16{fill:#a3daf4;}.cls-17{fill:#eab170;}.cls-18{fill:#badbe9;}.cls-19{fill:#c0e4ef;}.cls-20{font-size:32.38px;}.cls-20,.cls-21{font-family:Impact;}.cls-21{font-size:20px;}</style></defs><rect class="cls-1" x="-280.04" y="-16.03" width="488.89" height="302.56"/><path class="cls-2" d="M120.8,111.43c4.75,8.23,8.76,21.52,5.38,23.47s-12.89-8.16-17.64-16.39-2.07-12,.43-13.41,7.08-1.9,11.83,6.33Zm0,0"/><path class="cls-2" d="M152.74,60.79c7.54,5.78,16.33,16.52,13.95,19.62s-15-2.6-22.57-8.39-6.5-10.26-4.73-12.56,5.81-4.46,13.35,1.33Zm0,0"/><path class="cls-2" d="M47.67,74.76c-9.5,0-23-3.17-23-7.08s13.51-7.08,23-7.08,11.4,4.19,11.4,7.08-1.89,7.08-11.4,7.08Zm0,0"/><path class="cls-3" d="M42.43,58.89a60.77,60.77,0,0,0-10.36,1.89,25.83,25.83,0,0,0-6.16,2.45c-1.67,1-3.23,2.34-3.23,4.45s1.56,3.46,3.23,4.45a25.42,25.42,0,0,0,6.16,2.46,60.77,60.77,0,0,0,10.36,1.88v-4a58.12,58.12,0,0,1-9.29-1.7,23.26,23.26,0,0,1-5.21-2.05,4.11,4.11,0,0,1-1.26-1.06,4.43,4.43,0,0,1,1.26-1.06,23.3,23.3,0,0,1,5.21-2,57,57,0,0,1,9.29-1.71Zm0,0"/><path class="cls-3" d="M61.05,67.68a8,8,0,0,0-2.84-6.13c-2.14-1.82-5.5-2.92-10.54-2.92A56.71,56.71,0,0,0,41.3,59v4a53.56,53.56,0,0,1,6.37-.42c4.46,0,6.81,1,8,2a4.09,4.09,0,0,1,0,6.23c-1.18,1-3.53,2-8,2a53.56,53.56,0,0,1-6.37-.42v4a56.79,56.79,0,0,0,6.37.39c5,0,8.4-1.11,10.54-2.93a8,8,0,0,0,2.84-6.13Zm0,0"/><path class="cls-3" d="M137.82,58.26a8,8,0,0,0-1.48,6.59c.59,2.75,2.58,5.67,6.58,8.74a56.52,56.52,0,0,0,5.28,3.57L150.63,74a51.93,51.93,0,0,1-5.3-3.55c-3.54-2.71-4.81-4.92-5.13-6.44A4.09,4.09,0,0,1,144,59.07c1.55-.08,4,.57,7.55,3.29a54.19,54.19,0,0,1,4.8,4.2l2.42-3.16a56.85,56.85,0,0,0-4.82-4.18c-4-3.07-7.33-4.23-10.14-4.1a8,8,0,0,0-6,3.14Zm0,0"/><path class="cls-3" d="M147.24,76.57a60.29,60.29,0,0,0,9.37,4.81A25.62,25.62,0,0,0,163,83.19c1.93.22,4,.1,5.27-1.57s.86-3.69.15-5.5a26,26,0,0,0-3.39-5.7,61.64,61.64,0,0,0-7.08-7.8l-2.42,3.16a57.27,57.27,0,0,1,6.33,7,22.81,22.81,0,0,1,2.89,4.79,4,4,0,0,1,.35,1.61,4.11,4.11,0,0,1-1.64.07,22.41,22.41,0,0,1-5.37-1.54,58.41,58.41,0,0,1-8.42-4.31Zm0,0"/><path class="cls-3" d="M108,103.39a8,8,0,0,0-3.9,5.52c-.5,2.76.22,6.22,2.74,10.59a55.46,55.46,0,0,0,3.52,5.32l3.45-2a51.68,51.68,0,0,1-3.55-5.31c-2.23-3.86-2.55-6.38-2.27-7.91a4.09,4.09,0,0,1,5.4-3.11c1.45.52,3.48,2.06,5.71,5.92a51.65,51.65,0,0,1,2.82,5.72l3.45-2a56.08,56.08,0,0,0-2.85-5.7c-2.52-4.37-5.15-6.72-7.8-7.67a8,8,0,0,0-6.72.61Zm0,0"/><path class="cls-3" d="M109.68,123.91a61.51,61.51,0,0,0,6.81,8,26.37,26.37,0,0,0,5.21,4.11c1.7.94,3.64,1.62,5.47.56s2.21-3.07,2.24-5a26,26,0,0,0-.95-6.57,62.16,62.16,0,0,0-3.55-9.91l-3.45,2a57.47,57.47,0,0,1,3.17,8.9,22.89,22.89,0,0,1,.83,5.53,4.24,4.24,0,0,1-.29,1.62,4.35,4.35,0,0,1-1.55-.56,23.2,23.2,0,0,1-4.37-3.49,57.38,57.38,0,0,1-6.12-7.19Zm0,0"/><path class="cls-2" d="M85,111.43c4.75,8.23,8.76,21.52,5.38,23.47s-12.89-8.16-17.64-16.39-2.08-12,.43-13.41,7.08-1.9,11.83,6.33Zm0,0"/><path class="cls-3" d="M73.9,123.91a61.51,61.51,0,0,0,6.81,8,26.09,26.09,0,0,0,5.21,4.11c1.7.94,3.63,1.62,5.47.56s2.21-3.07,2.24-5a25.55,25.55,0,0,0-1-6.57,60.26,60.26,0,0,0-3.55-9.91l-3.44,2a57.47,57.47,0,0,1,3.17,8.9,22.89,22.89,0,0,1,.83,5.53,4.24,4.24,0,0,1-.29,1.62,4.35,4.35,0,0,1-1.55-.56,23.2,23.2,0,0,1-4.37-3.49,57.38,57.38,0,0,1-6.12-7.19Zm0,0"/><path class="cls-3" d="M72.2,103.39a8,8,0,0,0-3.89,5.52c-.5,2.76.22,6.22,2.74,10.59a55.46,55.46,0,0,0,3.52,5.32l3.45-2a51.68,51.68,0,0,1-3.55-5.31c-2.23-3.86-2.55-6.38-2.27-7.91a4.09,4.09,0,0,1,5.4-3.11c1.45.52,3.48,2.06,5.71,5.92a53.47,53.47,0,0,1,2.82,5.72l3.45-2a56.08,56.08,0,0,0-2.85-5.7c-2.52-4.37-5.15-6.72-7.8-7.67a8,8,0,0,0-6.73.61Zm0,0"/><path class="cls-2" d="M46.66,67.68a51.45,51.45,0,1,1,15.07,36.39A51.44,51.44,0,0,1,46.66,67.68Zm0,0"/><path class="cls-2" d="M53.2,65A47.59,47.59,0,1,1,67.14,98.66,47.64,47.64,0,0,1,53.2,65Zm0,0"/><path class="cls-4" d="M46.66,67.68a51.46,51.46,0,1,0,102.92,0Zm102.92,0"/><path class="cls-4" d="M53.34,67.68a47.56,47.56,0,0,0,95,0Zm95,0"/><path class="cls-4" d="M93.65,103H93.5l-.12,0h-.11l-.11,0-.1,0h0l0,0-.15.05-.1,0-.11,0-.1,0-.1.06-.09.06-.1.06a.6.6,0,0,0-.08.08l-.09.07-.08.08-.08.09-.07.08a.86.86,0,0,1-.07.1l-.06.09-.06.1-.06.1,0,.1,0,.11s0,.07,0,.11l0,.1,0,.11s0,.08,0,.12,0,.07,0,.11,0,.08,0,.11v.31a.43.43,0,0,0,0,.11.49.49,0,0,0,0,.12l0,.11a.36.36,0,0,0,0,.1v0c0,.05,0,.1.05.15a.36.36,0,0,1,0,.11l0,.1s0,.07.05.1l.06.1.06.09a.86.86,0,0,0,.07.1l.07.09.08.08.08.08.08.08.09.07.09.07.09.06.1.06.1.06.11,0,.1,0,.11,0,.11,0,.11,0,.11,0,.11,0h.27a.24.24,0,0,0,.12,0h.15l.11,0,.11,0,.1,0h0l0,0,.15-.05.11,0,.1,0,.1-.05.1-.06.1-.06.09-.07.09-.07.08-.07.09-.08.07-.09a.6.6,0,0,0,.08-.08l.06-.09.07-.1.06-.1,0-.1,0-.1a.49.49,0,0,0,0-.11.42.42,0,0,0,0-.1l0-.11,0-.11a.5.5,0,0,0,0-.12.36.36,0,0,0,0-.11s0-.07,0-.11v-.31s0-.08,0-.11a.5.5,0,0,0,0-.12.52.52,0,0,0,0-.11s0-.07,0-.1v0l0,0a.88.88,0,0,0,0-.15.76.76,0,0,0,0-.11,1,1,0,0,1,0-.1l-.06-.1s0-.07-.05-.1l-.07-.09-.06-.1-.08-.08-.07-.09a.6.6,0,0,0-.08-.08l-.09-.08-.08-.07-.1-.07-.09-.06-.1-.06-.1-.06-.1,0-.11,0-.1,0-.11,0-.11,0-.12,0-.11,0h-.27Zm0,0"/><path class="cls-4" d="M93.65,103H93.5l-.12,0h-.11l-.11,0-.1,0h0l0,0-.15.05-.1,0-.11,0-.1,0-.1.06-.09.06-.1.06a.6.6,0,0,0-.08.08l-.09.07-.08.08-.08.09-.07.08a.86.86,0,0,1-.07.1l-.06.09-.06.1-.06.1,0,.1,0,.11s0,.07,0,.11l0,.1,0,.11s0,.08,0,.12,0,.07,0,.11,0,.08,0,.11v.31a.43.43,0,0,0,0,.11.49.49,0,0,0,0,.12l0,.11a.36.36,0,0,0,0,.1v0c0,.05,0,.1.05.15a.36.36,0,0,1,0,.11l0,.1s0,.07.05.1l.06.1.06.09a.86.86,0,0,0,.07.1l.07.09.08.08.08.08.08.08.09.07.09.07.09.06.1.06.1.06.11,0,.1,0,.11,0,.11,0,.11,0,.11,0,.11,0h.54l.11,0,.11,0,.1,0h.05l.15-.05.11,0,.1,0,.1-.05.1-.06.1-.06.09-.07.09-.07a.6.6,0,0,0,.08-.08l.09-.08.07-.08.08-.09.06-.09.07-.09.06-.1,0-.1,0-.1a.49.49,0,0,0,0-.11.36.36,0,0,0,0-.11l0-.1,0-.12a.36.36,0,0,0,0-.11.43.43,0,0,0,0-.11s0-.08,0-.12v-.3s0-.08,0-.12a.43.43,0,0,0,0-.11.36.36,0,0,0,0-.11s0-.07,0-.1v0l0,0a.88.88,0,0,0,0-.15.49.49,0,0,0,0-.11l0-.1-.06-.1a.93.93,0,0,0-.05-.1.86.86,0,0,1-.07-.1l-.06-.09-.08-.09-.07-.08a.6.6,0,0,0-.08-.08l-.09-.08-.08-.08-.1-.06-.09-.07-.1-.06-.1,0-.1,0-.11,0-.1,0-.11,0-.11,0-.12,0-.11,0-.11,0h-.16Zm0,0"/><path class="cls-4" d="M93.65,103H93.5l-.12,0h-.11l-.11,0-.1,0h0l0,0-.15.05-.1,0-.11,0-.1,0-.1.06-.09.06-.1.06a.6.6,0,0,0-.08.08l-.09.07-.08.08-.08.09-.07.08a.86.86,0,0,1-.07.1l-.06.09-.06.1-.06.1,0,.1,0,.11s0,.07,0,.11l0,.1,0,.11s0,.08,0,.12,0,.07,0,.11,0,.08,0,.11v.31a.43.43,0,0,0,0,.11.49.49,0,0,0,0,.12l0,.11a.36.36,0,0,0,0,.1v0c0,.05,0,.1.05.15a.36.36,0,0,1,0,.11l0,.1s0,.07.05.1l.06.1.06.09a.86.86,0,0,0,.07.1l.07.09.08.08.08.08.08.08.09.07.09.07.09.06.1.06.1.06.11,0,.1,0,.11,0,.11,0,.11,0,.11,0,.11,0h.54l.11,0,.11,0,.1,0h.05l.15-.05.11,0,.1,0,.1-.05.1-.06.1-.06.09-.07.09-.07a.6.6,0,0,0,.08-.08l.09-.08.07-.08.08-.09.06-.09.07-.09.06-.1,0-.1,0-.1a.49.49,0,0,0,0-.11.36.36,0,0,0,0-.11l0-.1,0-.12a.36.36,0,0,0,0-.11.43.43,0,0,0,0-.11s0-.08,0-.12v-.3s0-.08,0-.12a.43.43,0,0,0,0-.11.36.36,0,0,0,0-.11s0-.07,0-.1v0l0,0a.88.88,0,0,0,0-.15.49.49,0,0,0,0-.11l0-.1-.06-.1a.93.93,0,0,0-.05-.1.86.86,0,0,1-.07-.1l-.06-.09-.08-.09-.07-.08a.6.6,0,0,0-.08-.08l-.09-.08-.08-.08-.1-.06-.09-.07-.1-.06-.1,0-.1,0-.11,0-.1,0-.11,0-.11,0-.12,0-.11,0-.11,0h-.16Zm0,0"/><path class="cls-4" d="M93.65,103H93.5l-.12,0h-.11l-.11,0-.1,0h0l0,0-.15.05-.1,0-.11,0-.1,0-.1.06-.09.06-.1.06a.6.6,0,0,0-.08.08l-.09.07-.08.08-.08.09-.07.08a.86.86,0,0,1-.07.1l-.06.09-.06.1-.06.1,0,.1,0,.11s0,.07,0,.11l0,.1,0,.11s0,.08,0,.12,0,.07,0,.11,0,.08,0,.11v.31a.43.43,0,0,0,0,.11.49.49,0,0,0,0,.12l0,.11a.36.36,0,0,0,0,.1v0c0,.05,0,.1.05.15a.36.36,0,0,1,0,.11l0,.1s0,.07.05.1l.06.1.06.09a.86.86,0,0,0,.07.1l.07.09.08.08.08.08.08.08.09.07.09.07.09.06.1.06.1.06.11,0,.1,0,.11,0,.11,0,.11,0,.11,0,.11,0h.54l.11,0,.11,0,.1,0h.05l.15-.05.11,0,.1,0,.1-.05.1-.06.1-.06.09-.07.09-.07a.6.6,0,0,0,.08-.08l.09-.08.07-.08.08-.09.06-.09.07-.09.06-.1,0-.1,0-.1a.49.49,0,0,0,0-.11.36.36,0,0,0,0-.11l0-.1,0-.12a.36.36,0,0,0,0-.11.43.43,0,0,0,0-.11s0-.08,0-.12v-.3s0-.08,0-.12a.43.43,0,0,0,0-.11.36.36,0,0,0,0-.11s0-.07,0-.1v0l0,0a.88.88,0,0,0,0-.15.49.49,0,0,0,0-.11l0-.1-.06-.1a.93.93,0,0,0-.05-.1.86.86,0,0,1-.07-.1l-.06-.09-.08-.09-.07-.08a.6.6,0,0,0-.08-.08l-.09-.08-.08-.08-.1-.06-.09-.07-.1-.06-.1,0-.1,0-.11,0-.1,0-.11,0-.11,0-.12,0-.11,0-.11,0h-.16Zm0,0"/><path class="cls-4" d="M93.65,103H93.5l-.12,0h-.11l-.11,0-.1,0h0l0,0-.15.05-.1,0-.11,0-.1,0-.1.06-.09.06-.1.06a.6.6,0,0,0-.08.08l-.09.07-.08.08-.08.09-.07.08a.86.86,0,0,1-.07.1l-.06.09-.06.1-.06.1,0,.1,0,.11s0,.07,0,.11l0,.1,0,.11s0,.08,0,.12,0,.07,0,.11,0,.08,0,.11v.31a.43.43,0,0,0,0,.11.49.49,0,0,0,0,.12l0,.11a.36.36,0,0,0,0,.1v0c0,.05,0,.1.05.15a.36.36,0,0,1,0,.11l0,.1s0,.07.05.1l.06.1.06.09a.86.86,0,0,0,.07.1l.07.09.08.08.08.08.08.08.09.07.09.07.09.06.1.06.1.06.11,0,.1,0,.11,0,.11,0,.11,0,.11,0,.11,0h.54l.11,0,.11,0,.1,0h.05l.15-.05.11,0,.1,0,.1-.05.1-.06.1-.06.09-.07.09-.07a.6.6,0,0,0,.08-.08l.09-.08.07-.08.08-.09.06-.09.07-.09.06-.1,0-.1,0-.1a.49.49,0,0,0,0-.11.36.36,0,0,0,0-.11l0-.1,0-.12a.36.36,0,0,0,0-.11.43.43,0,0,0,0-.11s0-.08,0-.12v-.3s0-.08,0-.12a.43.43,0,0,0,0-.11.36.36,0,0,0,0-.11s0-.07,0-.1v0l0,0a.88.88,0,0,0,0-.15.49.49,0,0,0,0-.11l0-.1-.06-.1a.93.93,0,0,0-.05-.1.86.86,0,0,1-.07-.1l-.06-.09-.08-.09-.07-.08a.6.6,0,0,0-.08-.08l-.09-.08-.08-.08-.1-.06-.09-.07-.1-.06-.1,0-.1,0-.11,0-.1,0-.11,0-.11,0-.12,0-.11,0-.11,0h-.16Zm0,0"/><path class="cls-4" d="M93.65,103H93.5l-.12,0h-.11l-.11,0-.1,0h0l0,0-.15.05-.1,0-.11,0-.1,0-.1.06-.09.06-.1.06a.6.6,0,0,0-.08.08l-.09.07-.08.08-.08.09-.07.08a.86.86,0,0,1-.07.1l-.06.09-.06.1-.06.1,0,.1,0,.11s0,.07,0,.11l0,.1,0,.11s0,.08,0,.12,0,.07,0,.11,0,.08,0,.11v.31a.43.43,0,0,0,0,.11.49.49,0,0,0,0,.12l0,.11a.36.36,0,0,0,0,.1v0c0,.05,0,.1.05.15a.36.36,0,0,1,0,.11l0,.1s0,.07.05.1l.06.1.06.09a.86.86,0,0,0,.07.1l.07.09.08.08.08.08.08.08.09.07.09.07.09.06.1.06.1.06.11,0,.1,0,.11,0,.11,0,.11,0,.11,0,.11,0h.54l.11,0,.11,0,.1,0h.05l.15-.05.11,0,.1,0,.1-.05.1-.06.1-.06.09-.07.09-.07a.6.6,0,0,0,.08-.08l.09-.08.07-.08.08-.09.06-.09.07-.09.06-.1,0-.1,0-.1a.49.49,0,0,0,0-.11.36.36,0,0,0,0-.11l0-.1,0-.12a.36.36,0,0,0,0-.11.43.43,0,0,0,0-.11s0-.08,0-.12v-.3s0-.08,0-.12a.43.43,0,0,0,0-.11.36.36,0,0,0,0-.11s0-.07,0-.1v0l0,0a.88.88,0,0,0,0-.15.49.49,0,0,0,0-.11l0-.1-.06-.1a.93.93,0,0,0-.05-.1.86.86,0,0,1-.07-.1l-.06-.09-.08-.09-.07-.08a.6.6,0,0,0-.08-.08l-.09-.08-.08-.08-.1-.06-.09-.07-.1-.06-.1,0-.1,0-.11,0-.1,0-.11,0-.11,0-.12,0-.11,0-.11,0h-.16Zm0,0"/><path class="cls-4" d="M93.65,103H93.5l-.12,0h-.11l-.11,0-.1,0h0l0,0-.15.05-.1,0-.11,0-.1,0-.1.06-.09.06-.1.06a.6.6,0,0,0-.08.08l-.09.07-.08.08-.08.09-.07.08a.86.86,0,0,1-.07.1l-.06.09-.06.1-.06.1,0,.1,0,.11s0,.07,0,.11l0,.1,0,.11s0,.08,0,.12,0,.07,0,.11,0,.08,0,.11v.31a.43.43,0,0,0,0,.11.49.49,0,0,0,0,.12l0,.11a.36.36,0,0,0,0,.1v0c0,.05,0,.1.05.15a.36.36,0,0,1,0,.11l0,.1s0,.07.05.1l.06.1.06.09a.86.86,0,0,0,.07.1l.07.09.08.08.08.08.08.08.09.07.09.07.09.06.1.06.1.06.11,0,.1,0,.11,0,.11,0,.11,0,.11,0,.11,0h.54l.11,0,.11,0,.1,0h.05l.15-.05.11,0,.1,0,.1-.05.1-.06.1-.06.09-.07.09-.07a.6.6,0,0,0,.08-.08l.09-.08.07-.08.08-.09.06-.09.07-.09.06-.1,0-.1,0-.1a.49.49,0,0,0,0-.11.36.36,0,0,0,0-.11l0-.1,0-.12a.36.36,0,0,0,0-.11.43.43,0,0,0,0-.11s0-.08,0-.12v-.3s0-.08,0-.12a.43.43,0,0,0,0-.11.36.36,0,0,0,0-.11s0-.07,0-.1v0l0,0a.88.88,0,0,0,0-.15.49.49,0,0,0,0-.11l0-.1-.06-.1a.93.93,0,0,0-.05-.1.86.86,0,0,1-.07-.1l-.06-.09-.08-.09-.07-.08a.6.6,0,0,0-.08-.08l-.09-.08-.08-.08-.1-.06-.09-.07-.1-.06-.1,0-.1,0-.11,0-.1,0-.11,0-.11,0-.12,0-.11,0-.11,0h-.16Zm0,0"/><path class="cls-4" d="M93.65,103H93.5l-.12,0h-.11l-.11,0-.1,0h0l0,0-.15.05-.1,0-.11,0-.1,0-.1.06-.09.06-.1.06a.6.6,0,0,0-.08.08l-.09.07-.08.08-.08.09-.07.08a.86.86,0,0,1-.07.1l-.06.09-.06.1-.06.1,0,.1,0,.11s0,.07,0,.11l0,.1,0,.11s0,.08,0,.12,0,.07,0,.11,0,.08,0,.11v.31a.43.43,0,0,0,0,.11.49.49,0,0,0,0,.12l0,.11a.36.36,0,0,0,0,.1v0c0,.05,0,.1.05.15a.36.36,0,0,1,0,.11l0,.1s0,.07.05.1l.06.1.06.09a.86.86,0,0,0,.07.1l.07.09.08.08.08.08.08.08.09.07.09.07.09.06.1.06.1.06.11,0,.1,0,.11,0,.11,0,.11,0,.11,0,.11,0h.54l.11,0,.11,0,.1,0h.05l.15-.05.11,0,.1,0,.1-.05.1-.06.1-.06.09-.07.09-.07a.6.6,0,0,0,.08-.08l.09-.08.07-.08.08-.09.06-.09.07-.09.06-.1,0-.1,0-.1a.49.49,0,0,0,0-.11.36.36,0,0,0,0-.11l0-.1,0-.12a.36.36,0,0,0,0-.11.43.43,0,0,0,0-.11s0-.08,0-.12v-.3s0-.08,0-.12a.43.43,0,0,0,0-.11.36.36,0,0,0,0-.11s0-.07,0-.1v0l0,0a.88.88,0,0,0,0-.15.49.49,0,0,0,0-.11l0-.1-.06-.1a.93.93,0,0,0-.05-.1.86.86,0,0,1-.07-.1l-.06-.09-.08-.09-.07-.08a.6.6,0,0,0-.08-.08l-.09-.08-.08-.08-.1-.06-.09-.07-.1-.06-.1,0-.1,0-.11,0-.1,0-.11,0-.11,0-.12,0-.11,0-.11,0h-.16Zm0,0"/><path class="cls-4" d="M93.65,103H93.5l-.12,0h-.11l-.11,0-.1,0h0l0,0-.15.05-.1,0-.11,0-.1,0-.1.06-.09.06-.1.06a.6.6,0,0,0-.08.08l-.09.07-.08.08-.08.09-.07.08a.86.86,0,0,1-.07.1l-.06.09-.06.1-.06.1,0,.1,0,.11s0,.07,0,.11l0,.1,0,.11s0,.08,0,.12,0,.07,0,.11,0,.08,0,.11v.31a.43.43,0,0,0,0,.11.49.49,0,0,0,0,.12l0,.11a.36.36,0,0,0,0,.1v0c0,.05,0,.1.05.15a.36.36,0,0,1,0,.11l0,.1s0,.07.05.1l.06.1.06.09a.86.86,0,0,0,.07.1l.07.09.08.08.08.08.08.08.09.07.09.07.09.06.1.06.1.06.11,0,.1,0,.11,0,.11,0,.11,0,.11,0,.11,0h.54l.11,0,.11,0,.1,0h.05l.15-.05.11,0,.1,0,.1-.05.1-.06.1-.06.09-.07.09-.07a.6.6,0,0,0,.08-.08l.09-.08.07-.08.08-.09.06-.09.07-.09.06-.1,0-.1,0-.1a.49.49,0,0,0,0-.11.36.36,0,0,0,0-.11l0-.1,0-.12a.36.36,0,0,0,0-.11.43.43,0,0,0,0-.11s0-.08,0-.12v-.3s0-.08,0-.12a.43.43,0,0,0,0-.11.36.36,0,0,0,0-.11s0-.07,0-.1v0l0,0a.88.88,0,0,0,0-.15.49.49,0,0,0,0-.11l0-.1-.06-.1a.93.93,0,0,0-.05-.1.86.86,0,0,1-.07-.1l-.06-.09-.08-.09-.07-.08a.6.6,0,0,0-.08-.08l-.09-.08-.08-.08-.1-.06-.09-.07-.1-.06-.1,0-.1,0-.11,0-.1,0-.11,0-.11,0-.12,0-.11,0-.11,0h-.16Zm0,0"/><path class="cls-4" d="M93.65,103H93.5l-.12,0h-.11l-.11,0-.1,0h0l0,0-.15.05-.1,0-.11,0-.1,0-.1.06-.09.06-.1.06a.6.6,0,0,0-.08.08l-.09.07-.08.08-.08.09-.07.08a.86.86,0,0,1-.07.1l-.06.09-.06.1-.06.1,0,.1,0,.11s0,.07,0,.11l0,.1,0,.11s0,.08,0,.12,0,.07,0,.11,0,.08,0,.11v.31a.43.43,0,0,0,0,.11.49.49,0,0,0,0,.12l0,.11a.36.36,0,0,0,0,.1v0c0,.05,0,.1.05.15a.36.36,0,0,1,0,.11l0,.1s0,.07.05.1l.06.1.06.09a.86.86,0,0,0,.07.1l.07.09.08.08.08.08.08.08.09.07.09.07.09.06.1.06.1.06.11,0,.1,0,.11,0,.11,0,.11,0,.11,0,.11,0h.54l.11,0,.11,0,.1,0h.05l.15-.05.11,0,.1,0,.1-.05.1-.06.1-.06.09-.07.09-.07a.6.6,0,0,0,.08-.08l.09-.08.07-.08.08-.09.06-.09.07-.09.06-.1,0-.1,0-.1a.49.49,0,0,0,0-.11.36.36,0,0,0,0-.11l0-.1,0-.12a.36.36,0,0,0,0-.11.43.43,0,0,0,0-.11s0-.08,0-.12v-.3s0-.08,0-.12a.43.43,0,0,0,0-.11.36.36,0,0,0,0-.11s0-.07,0-.1v0l0,0a.88.88,0,0,0,0-.15.49.49,0,0,0,0-.11l0-.1-.06-.1a.93.93,0,0,0-.05-.1.86.86,0,0,1-.07-.1l-.06-.09-.08-.09-.07-.08a.6.6,0,0,0-.08-.08l-.09-.08-.08-.08-.1-.06-.09-.07-.1-.06-.1,0-.1,0-.11,0-.1,0-.11,0-.11,0-.12,0-.11,0-.11,0h-.16Zm0,0"/><path class="cls-5" d="M194.15,191.83c-13.27,0-19.65-7.3-19.65-16.31s6.38-16.32,19.65-16.32,28.4,16.32,28.4,16.32-15.13,16.31-28.4,16.31Zm0,0"/><path class="cls-6" d="M186.25,182.76c-5.89,0-8.72-3.24-8.72-7.24s2.83-7.24,8.72-7.24,12.61,7.24,12.61,7.24-6.72,7.24-12.61,7.24Zm0,0"/><path class="cls-3" d="M117.14,128.69c2-.1,3.89-.16,5.81-.16,18.41,0,32.46,5.1,41.89,13.65s14.07,20.49,14.07,33.34-4.64,24.77-14.07,33.33S141.36,222.5,123,222.5c-1.92,0-3.86-.05-5.81-.16V216c2,.12,3.89.18,5.81.18,17.25,0,29.59-4.71,37.64-12s12-17.3,12-28.65-3.94-21.35-12-28.65-20.39-12-37.64-12c-1.92,0-3.86.06-5.81.18Zm0,0"/><path class="cls-3" d="M43.49,175.52c0-13.88,11.29-25.55,26.44-33.77a115.14,115.14,0,0,1,48.34-13.11V135c-15.89.77-32.51,5.38-45.33,12.33C58.86,155,49.81,165.18,49.81,175.52s9,20.57,23.13,28.21c12.82,7,29.44,11.56,45.33,12.34v6.33a115.44,115.44,0,0,1-48.34-13.11c-15.15-8.22-26.44-19.9-26.44-33.77Zm0,0"/><path class="cls-7" d="M47,179.19C50.79,156.7,89.12,139,123,139s51,17.67,52.66,40.16c-.11,1.45-.28,2.88-.52,4.29-3.44-20.4-20.5-35.85-52.14-35.85s-67.22,15.45-74.82,35.85A23.5,23.5,0,0,1,47,179.19Zm0,0"/><path class="cls-3" d="M133.37,131c14.66-23,47.17-18.15,47.17-18.15l6.8,1-5.14,4.55S169.26,130,166.94,146l-6.26-.91c1.74-11.93,8-20.92,12.54-26.26-9.19.07-26,2.12-34.52,15.53Zm0,0"/><path class="cls-3" d="M133.37,220.06l5.33-3.4c8.55,13.42,25.33,15.46,34.52,15.53-4.52-5.33-10.8-14.33-12.54-26.26l6.26-.91c2.32,16,15.26,27.7,15.26,27.7l5.14,4.54-6.8,1s-32.51,4.85-47.17-18.15Zm0,0"/><path class="cls-8" d="M163.81,205.48c2.53,17.4,16.3,29.6,16.3,29.6s-30.7,4.27-44.08-16.72Zm0,0"/><path class="cls-9" d="M136,218.36l27.78-12.88a42.23,42.23,0,0,0,2.44,9.18c-6.76,4.55-15.23,7.86-25.46,9.53a32.4,32.4,0,0,1-4.76-5.83Zm0,0"/><path class="cls-8" d="M163.81,145.56c2.53-17.41,16.3-29.61,16.3-29.61s-30.7-4.26-44.08,16.72Zm0,0"/><path class="cls-10" d="M136,132.67c13.38-21,44.08-16.72,44.08-16.72s-.93.83-2.34,2.34c-9.18-.17-28,1.42-38.1,16.07Zm0,0"/><path class="cls-11" d="M123,219.34c35.65,0,52.8-19.62,52.8-43.82S158.6,131.69,123,131.69s-76.3,19.62-76.3,43.83S87.3,219.34,123,219.34Zm0,0"/><path class="cls-12" d="M49.5,171.83C59.32,153,92.91,139,123,139c24.8,0,40.65,9.5,48,23.43-9.31-9.94-24.86-16.3-46.95-16.3-28.42,0-59.76,10.53-74.49,25.67Zm0,0"/><path class="cls-13" d="M95.78,180.28a21.92,21.92,0,1,1,6.42,15.5,21.93,21.93,0,0,1-6.42-15.5Zm0,0"/><path class="cls-13" d="M46.65,175.52c0-.19,0-.37,0-.55,11.54,18,46.05,31.16,77,31.16,26.85,0,43.81-9.87,51.4-24.25l.29-.32c-2.66,21.34-19.79,37.78-52.42,37.78-35.65,0-76.3-19.62-76.3-43.82Zm0,0"/><path class="cls-8" d="M46.65,175.52c0-14.06,13.71-26.57,32.19-34.59V210.1c-18.48-8-32.19-20.53-32.19-34.58Zm0,0"/><path class="cls-8" d="M163.81,145.56c8,7.84,11.94,18.37,11.94,30s-3.94,22.12-11.94,29.95Zm0,0"/><path class="cls-9" d="M46.65,175.52h0c0-.19,0-.37,0-.55,5.9,9.22,17.81,17.15,32.18,22.71V210.1c-18.48-8-32.19-20.53-32.19-34.58Zm0,0"/><path class="cls-10" d="M49.5,171.83c4.93-9.48,15.87-17.71,29.34-23.56v6c-12.06,4.45-22.5,10.49-29.34,17.53Zm0,0"/><path class="cls-9" d="M163.81,195a39.2,39.2,0,0,0,11.27-13.09l.29-.31a39.77,39.77,0,0,1-11.56,23.91Zm0,0"/><path class="cls-3" d="M117.14,131.07c2-.11,3.89-.17,5.81-.17,18,0,31.38,4.95,40.3,13s13.28,19.29,13.28,31.58-4.37,23.48-13.28,31.57-22.33,13-40.3,13c-1.92,0-3.86-.06-5.81-.17v-1.58c2,.11,3.89.17,5.81.17,17.68,0,30.66-4.85,39.23-12.63S175,187.43,175,175.52s-4.2-22.63-12.77-30.41S140.63,132.48,123,132.48c-1.92,0-3.86.06-5.81.17Zm0,0"/><path class="cls-10" d="M163.81,152.9a38.21,38.21,0,0,1,7.13,9.56,41.89,41.89,0,0,0-7.13-6.06Zm0,0"/><rect class="cls-3" x="163.02" y="145.56" width="1.58" height="59.92"/><rect class="cls-3" x="78.05" y="140.93" width="1.58" height="69.18"/><path class="cls-14" d="M96.53,175.52a21.17,21.17,0,1,1,21.18,21.18,21.18,21.18,0,0,1-21.18-21.18Zm0,0"/><path class="cls-15" d="M96.53,175.52a20,20,0,0,1,.17-2.45,29.6,29.6,0,0,0,42,0,22.57,22.57,0,0,1,.16,2.46,21.18,21.18,0,0,1-42.36,0Zm0,0"/><path class="cls-16" d="M104.26,175.52a13.45,13.45,0,1,1,3.94,9.5,13.45,13.45,0,0,1-3.94-9.5Zm0,0"/><path class="cls-3" d="M135.37,132.24c13.7-21.48,44.85-17.07,44.85-17.07l1.69.24-1.28,1.14s-13.56,12.07-16,29.12l-1.56-.23c2.21-15.21,12.29-25.91,15.28-28.81-4.42-.46-29.67-2.26-41.61,16.46Zm0,0"/><path class="cls-3" d="M135.37,218.79l1.33-.85c11.94,18.72,37.19,16.92,41.61,16.47-3-2.91-13.07-13.61-15.28-28.82l1.56-.23c2.48,17.06,16,29.13,16,29.13l1.28,1.14-1.69.23s-31.15,4.42-44.85-17.07Zm0,0"/><path class="cls-3" d="M117.14,153.56h.57a22,22,0,1,1,0,43.94h-.57V195.9h.57a20.39,20.39,0,0,0,0-40.78h-.57Zm0,0"/><path class="cls-3" d="M117.14,161.29h.57a14.24,14.24,0,0,1,0,28.47h-.57v-1.58h.57a12.66,12.66,0,0,0,0-25.31l-.57,0Zm0,0"/><path class="cls-4" d="M107.67,173.26a10.29,10.29,0,0,1,20.08,0,13.4,13.4,0,0,0-20.08,0Zm0,0"/><path class="cls-3" d="M103.47,175.52a14.25,14.25,0,0,1,14.24-14.24h.56v1.59l-.56,0a12.66,12.66,0,1,0,0,25.31h.56v1.58h-.56a14.24,14.24,0,0,1-14.24-14.23Zm0,0"/><path class="cls-3" d="M95.74,175.52a22,22,0,0,1,22-22h.56v1.59h-.56a20.39,20.39,0,1,0,0,40.78h.56v1.58h-.56a22,22,0,0,1-22-22Zm0,0"/><path class="cls-3" d="M45.86,175.52c0-12.55,10.44-23.69,25.2-31.69,13.47-7.31,30.64-12.05,47.21-12.82v1.58c-16.3.77-33.25,5.46-46.46,12.63-14.49,7.86-24.37,18.64-24.37,30.3S57.32,198,71.81,205.81C85,213,102,217.67,118.27,218.44V220A113.12,113.12,0,0,1,71.06,207.2c-14.76-8-25.2-19.14-25.2-31.68Zm0,0"/><path class="cls-3" d="M89.81,11.22a9.07,9.07,0,0,0-1.91.13,11.2,11.2,0,0,0-5.7,3.18,9.6,9.6,0,0,1-2.92,2.19,9.65,9.65,0,0,1-3.64.2,11.21,11.21,0,0,0-6.41,1.22A11.28,11.28,0,0,0,65,23.08a9.56,9.56,0,0,1-2,3.05,9.69,9.69,0,0,1-3.36,1.44A11.22,11.22,0,0,0,54,30.91,11.2,11.2,0,0,0,51.69,37a9.72,9.72,0,0,1-.83,3.56,9.86,9.86,0,0,1-2.66,2.49,11.11,11.11,0,0,0-4.12,5.06,11.18,11.18,0,0,0-.1,6.53,9.84,9.84,0,0,1,.44,3.62,9.66,9.66,0,0,1-1.65,3.25,11.18,11.18,0,0,0-2.14,6.17,11.17,11.17,0,0,0,2.14,6.16,9.69,9.69,0,0,1,1.65,3.26A9.88,9.88,0,0,1,44,80.73,9.95,9.95,0,0,0,48.2,92.31a9.71,9.71,0,0,1,2.66,2.5,9.66,9.66,0,0,1,.83,3.55,9.93,9.93,0,0,0,7.92,9.44A9.69,9.69,0,0,1,63,109.24a9.68,9.68,0,0,1,2,3.05,11.23,11.23,0,0,0,4.27,4.94,11.23,11.23,0,0,0,6.41,1.23,9.65,9.65,0,0,1,3.64.2,9.71,9.71,0,0,1,2.92,2.18A10,10,0,0,0,94.34,123a9.7,9.7,0,0,1,3.49-1.06,9.59,9.59,0,0,1,3.49,1.06,10,10,0,0,0,12.15-2.15,9.71,9.71,0,0,1,2.92-2.18,9.65,9.65,0,0,1,3.64-.2,10,10,0,0,0,10.68-6.17,9.51,9.51,0,0,1,2-3.05,9.71,9.71,0,0,1,3.35-1.44A9.92,9.92,0,0,0,144,98.36a9.66,9.66,0,0,1,.83-3.55,9.71,9.71,0,0,1,2.66-2.5,9.95,9.95,0,0,0,4.22-11.58,9.66,9.66,0,0,1-.44-3.62,9.69,9.69,0,0,1,1.65-3.26A11.17,11.17,0,0,0,155,67.69a11.18,11.18,0,0,0-2.14-6.17,9.66,9.66,0,0,1-1.65-3.25,9.63,9.63,0,0,1,.44-3.62,11.18,11.18,0,0,0-.1-6.53,11.11,11.11,0,0,0-4.12-5.06,9.86,9.86,0,0,1-2.66-2.49A9.72,9.72,0,0,1,144,37a11.2,11.2,0,0,0-2.32-6.1,11.2,11.2,0,0,0-5.61-3.34,9.71,9.71,0,0,1-3.35-1.44,9.39,9.39,0,0,1-2-3.05,11.28,11.28,0,0,0-4.27-4.94A11.21,11.21,0,0,0,120,16.92a9.65,9.65,0,0,1-3.64-.2,9.6,9.6,0,0,1-2.92-2.19,9.95,9.95,0,0,0-12.15-2.14,9.53,9.53,0,0,1-3.49,1,9.64,9.64,0,0,1-3.49-1,12.93,12.93,0,0,0-4.53-1.17ZM89,17.57a5,5,0,0,1,2.9.65,14.54,14.54,0,0,0,5.93,1.55,14.55,14.55,0,0,0,5.94-1.55,3.87,3.87,0,0,1,5.41,1,14.38,14.38,0,0,0,5,3.49,14.58,14.58,0,0,0,6.11.57,5,5,0,0,1,3,.39A5,5,0,0,1,125.09,26a14.35,14.35,0,0,0,3.55,5,14.29,14.29,0,0,0,5.54,2.62A4.91,4.91,0,0,1,136.81,35a4.84,4.84,0,0,1,.9,2.83,14.57,14.57,0,0,0,1.62,5.92,14.32,14.32,0,0,0,4.31,4.36c1.19.91,1.72,1.39,2,2.19a5,5,0,0,1-.13,3,14.42,14.42,0,0,0-.49,6.11,14.54,14.54,0,0,0,2.55,5.58,4.94,4.94,0,0,1,1.14,2.75,4.94,4.94,0,0,1-1.14,2.74A14.54,14.54,0,0,0,145,76a14.41,14.41,0,0,0,.49,6.11,5,5,0,0,1,.13,3c-.29.81-.82,1.29-2,2.19a14.49,14.49,0,0,0-4.31,4.37,14.53,14.53,0,0,0-1.62,5.91,4.84,4.84,0,0,1-.9,2.83,4.91,4.91,0,0,1-2.63,1.38,12.15,12.15,0,0,0-9.09,7.63c-.69,1.33-1.07,1.93-1.81,2.35a5,5,0,0,1-3,.39,12.16,12.16,0,0,0-11.15,4.06,3.89,3.89,0,0,1-5.41,1,14.39,14.39,0,0,0-5.94-1.55,14.38,14.38,0,0,0-5.93,1.55,5,5,0,0,1-2.9.64,4.9,4.9,0,0,1-2.51-1.6,14.43,14.43,0,0,0-5-3.48,14.39,14.39,0,0,0-6.1-.58,4.93,4.93,0,0,1-3-.39c-.74-.42-1.12-1-1.81-2.35a14.32,14.32,0,0,0-3.55-5,14.33,14.33,0,0,0-5.54-2.63,5,5,0,0,1-2.64-1.38A4.92,4.92,0,0,1,58,97.56a14.41,14.41,0,0,0-1.63-5.91A14.38,14.38,0,0,0,52,87.28c-1.18-.9-1.71-1.38-2-2.19a4.88,4.88,0,0,1,.13-3A14.41,14.41,0,0,0,50.64,76a14.54,14.54,0,0,0-2.55-5.58A4.94,4.94,0,0,1,47,67.69a4.94,4.94,0,0,1,1.14-2.75,14.54,14.54,0,0,0,2.55-5.58,14.42,14.42,0,0,0-.49-6.11,4.88,4.88,0,0,1-.13-3c.29-.8.82-1.28,2-2.19a14.21,14.21,0,0,0,4.31-4.36A14.45,14.45,0,0,0,58,37.81,4.92,4.92,0,0,1,58.85,35a5,5,0,0,1,2.64-1.38A14.29,14.29,0,0,0,67,31a14.35,14.35,0,0,0,3.55-5,5,5,0,0,1,1.81-2.35,4.93,4.93,0,0,1,3-.39,14.52,14.52,0,0,0,6.1-.57,14.43,14.43,0,0,0,5-3.49A5,5,0,0,1,89,17.57Zm0,0"/><path class="cls-3" d="M89.74,13.59a7,7,0,0,0-1.43.09,8.81,8.81,0,0,0-4.5,2.59,11.36,11.36,0,0,1-3.72,2.67,11.23,11.23,0,0,1-4.56.34,8.82,8.82,0,0,0-5.11.92,8.75,8.75,0,0,0-3.35,4A11.29,11.29,0,0,1,64.49,28a11.46,11.46,0,0,1-4.17,1.88,8.81,8.81,0,0,0-4.49,2.61A8.73,8.73,0,0,0,54,37.31a11.25,11.25,0,0,1-1.13,4.44A11.38,11.38,0,0,1,49.63,45a8.71,8.71,0,0,0-3.32,4,8.82,8.82,0,0,0,0,5.19,11.15,11.15,0,0,1,.46,4.56,11.24,11.24,0,0,1-2,4.12A8.82,8.82,0,0,0,43,67.69a8.78,8.78,0,0,0,1.76,4.88,11.24,11.24,0,0,1,2,4.12,11.13,11.13,0,0,1-.46,4.56,7.67,7.67,0,0,0,3.34,9.18,11.35,11.35,0,0,1,3.28,3.19A11.25,11.25,0,0,1,54,98.06a7.65,7.65,0,0,0,6.28,7.48,11.46,11.46,0,0,1,4.17,1.88,11.43,11.43,0,0,1,2.58,3.79,7.64,7.64,0,0,0,8.46,4.88,11.23,11.23,0,0,1,4.56.34,11.36,11.36,0,0,1,3.72,2.67,8.74,8.74,0,0,0,4.5,2.59,8.84,8.84,0,0,0,5.12-.89,11.33,11.33,0,0,1,4.4-1.24,11.33,11.33,0,0,1,4.41,1.24,7.63,7.63,0,0,0,9.62-1.7,11.25,11.25,0,0,1,3.72-2.67,11.21,11.21,0,0,1,4.56-.34,7.64,7.64,0,0,0,8.46-4.88,8.44,8.44,0,0,1,6.75-5.67,7.65,7.65,0,0,0,6.28-7.48,11.25,11.25,0,0,1,1.13-4.44A11.1,11.1,0,0,1,146,90.43a7.67,7.67,0,0,0,3.34-9.18,11.13,11.13,0,0,1-.46-4.56,11.24,11.24,0,0,1,2-4.12,8.78,8.78,0,0,0,1.76-4.88,8.82,8.82,0,0,0-1.76-4.89,11.24,11.24,0,0,1-2-4.12,11.15,11.15,0,0,1,.46-4.56,8.82,8.82,0,0,0,0-5.19A8.71,8.71,0,0,0,146,45a11.13,11.13,0,0,1-3.28-3.2,11.25,11.25,0,0,1-1.13-4.44,8.8,8.8,0,0,0-1.79-4.87,8.81,8.81,0,0,0-4.49-2.61A11.38,11.38,0,0,1,131.18,28a11.29,11.29,0,0,1-2.58-3.78,8.81,8.81,0,0,0-3.35-4,8.82,8.82,0,0,0-5.11-.92,11.21,11.21,0,0,1-4.56-.34,11.25,11.25,0,0,1-3.72-2.67,7.63,7.63,0,0,0-9.62-1.7,11.17,11.17,0,0,1-4.41,1.25,11.18,11.18,0,0,1-4.4-1.25,10.63,10.63,0,0,0-3.69-1Zm0,1.57a9.38,9.38,0,0,1,3.13.87,12.57,12.57,0,0,0,5,1.37,12.57,12.57,0,0,0,5-1.37,6.13,6.13,0,0,1,7.94,1.4,12.49,12.49,0,0,0,4.24,3,12.46,12.46,0,0,0,5.19.43,7.21,7.21,0,0,1,4.24.71,7.16,7.16,0,0,1,2.73,3.32,12.63,12.63,0,0,0,3,4.27,12.41,12.41,0,0,0,4.72,2.18,7.23,7.23,0,0,1,3.75,2.11,7.23,7.23,0,0,1,1.43,4.06,12.46,12.46,0,0,0,1.33,5,12.32,12.32,0,0,0,3.69,3.66,7.31,7.31,0,0,1,2.8,3.27,7.17,7.17,0,0,1,0,4.3,12.71,12.71,0,0,0-.47,5.18,12.57,12.57,0,0,0,2.22,4.71,7.25,7.25,0,0,1,1.51,4,7.22,7.22,0,0,1-1.51,4,12.57,12.57,0,0,0-2.22,4.71,12.71,12.71,0,0,0,.47,5.18,7.17,7.17,0,0,1,0,4.3,7.25,7.25,0,0,1-2.8,3.27,12.32,12.32,0,0,0-3.69,3.66,12.46,12.46,0,0,0-1.33,5,6.11,6.11,0,0,1-5.18,6.17,9.92,9.92,0,0,0-7.69,6.45,6.1,6.1,0,0,1-7,4,12.8,12.8,0,0,0-5.19.43,12.49,12.49,0,0,0-4.24,3,6.13,6.13,0,0,1-7.94,1.4,12.57,12.57,0,0,0-5-1.36,12.57,12.57,0,0,0-5,1.36,6.13,6.13,0,0,1-7.94-1.4,12.53,12.53,0,0,0-4.25-3,12.74,12.74,0,0,0-5.18-.43,6.12,6.12,0,0,1-7-4,12.46,12.46,0,0,0-3-4.27A12.72,12.72,0,0,0,60.79,104,7.13,7.13,0,0,1,57,101.92a7.23,7.23,0,0,1-1.43-4.06,12.63,12.63,0,0,0-1.33-5,12.44,12.44,0,0,0-3.69-3.66,6.13,6.13,0,0,1-2.76-7.57,12.53,12.53,0,0,0,.48-5.18,12.57,12.57,0,0,0-2.22-4.71,7.22,7.22,0,0,1-1.51-4,7.25,7.25,0,0,1,1.51-4A12.57,12.57,0,0,0,48.31,59a12.53,12.53,0,0,0-.48-5.18,7.25,7.25,0,0,1,0-4.3,7.31,7.31,0,0,1,2.8-3.27,12.44,12.44,0,0,0,3.69-3.66,12.63,12.63,0,0,0,1.33-5A7.23,7.23,0,0,1,57,33.45a7.2,7.2,0,0,1,3.75-2.11,12.41,12.41,0,0,0,4.72-2.18,12.46,12.46,0,0,0,3-4.27,7.18,7.18,0,0,1,2.74-3.32,7.21,7.21,0,0,1,4.24-.71,12.4,12.4,0,0,0,5.18-.43,12.53,12.53,0,0,0,4.25-3,7.25,7.25,0,0,1,3.71-2.19,5.19,5.19,0,0,1,1.1-.08Zm0,0"/><path class="cls-17" d="M83.51,92.83a1.46,1.46,0,0,1-1.46,1.46,1.47,1.47,0,0,1-1.46-1.46,1.46,1.46,0,0,1,2.92,0Zm0,0"/><path class="cls-3" d="M72.68,48.06a8.12,8.12,0,0,1,8.14,8.14v4.08a8.14,8.14,0,1,1-16.28,0V56.2a8.12,8.12,0,0,1,8.14-8.14Zm0,0"/><path class="cls-4" d="M74.79,51.27a2.63,2.63,0,1,0,2.62,2.63,2.63,2.63,0,0,0-2.62-2.63Zm0,0"/><path class="cls-3" d="M106.27,48.06a8.12,8.12,0,0,1,8.14,8.14v4.08a8.14,8.14,0,0,1-16.28,0V56.2a8.12,8.12,0,0,1,8.14-8.14Zm0,0"/><path class="cls-4" d="M108.38,51.27a2.63,2.63,0,1,0,0,5.26A2.63,2.63,0,0,0,111,53.9a2.63,2.63,0,0,0-.77-1.86,2.67,2.67,0,0,0-1.86-.77Zm0,0"/><path class="cls-4" d="M71.18,73a3.8,3.8,0,0,0-3.82,3.81v4.31a22.11,22.11,0,0,0,44.22,0V76.83A3.8,3.8,0,0,0,107.76,73Zm0,0"/><path class="cls-18" d="M93.79,73h0s3.76,7.21,0,13.86c4.69,7.4.56,15.81.56,15.81a22.11,22.11,0,0,0,17.24-21.56V76.83A3.8,3.8,0,0,0,107.76,73Zm0,0"/><path class="cls-3" d="M104.64,73h0s4.3,4.94,0,10.2c5,4.6.34,13.67.34,13.67a22.06,22.06,0,0,0,6.6-15.76V76.83A3.8,3.8,0,0,0,107.77,73Zm0,0"/><path class="cls-3" d="M74.31,73h0s-4.3,4.94,0,10.2c-5,4.6-.34,13.67-.34,13.67a22,22,0,0,1-6.61-15.76V76.83A3.8,3.8,0,0,1,71.18,73Zm0,0"/><path class="cls-3" d="M88.91,72.23v1.58h18.85a3,3,0,0,1,3,3v4.31a21.3,21.3,0,0,1-21.32,21.31h-.56V104h.56a22.9,22.9,0,0,0,22.9-22.89V76.83a4.61,4.61,0,0,0-4.61-4.6Zm0,0"/><path class="cls-3" d="M71.18,72.23a4.61,4.61,0,0,0-4.61,4.6v4.31A22.91,22.91,0,0,0,89.47,104H90v-1.58h-.56A21.3,21.3,0,0,1,68.15,81.14V76.83a3,3,0,0,1,3-3H90V72.23Zm0,0"/><path class="cls-3" d="M-6.54,86.2H-7.1v6.33l.56,0h0a25.3,25.3,0,0,1,23.89,17l.73,2.08,2.2,0a13.93,13.93,0,1,1-7.48,25.82l-1.88-1.15L9.2,137.71a25.32,25.32,0,0,1-15.73,5.48H-7.1v6.32h.55a31.54,31.54,0,0,0,18-5.77A20.11,20.11,0,0,0,20,145.85h0a20.19,20.19,0,0,0,2.49-40.24,31.62,31.62,0,0,0-29-19.41h0Zm0,0"/><path class="cls-4" d="M-6.54,89.36a28.51,28.51,0,0,0-26.88,19.15A17.1,17.1,0,0,0-50.2,125.6a17.1,17.1,0,0,0,17.1,17.09,17,17,0,0,0,8.9-2.52,28.47,28.47,0,0,0,17.66,6.18,28.48,28.48,0,0,0,17.7-6.16,17.09,17.09,0,1,0,9.19-31.68A28.51,28.51,0,0,0-6.54,89.36Zm0,0"/><path class="cls-19" d="M33.13,114.63a17,17,0,0,1-22,3.63,28.49,28.49,0,0,1-17.7,6.17,28.49,28.49,0,0,1-17.66-6.18,17.16,17.16,0,0,1-8.9,2.52,17.08,17.08,0,0,1-13.1-6.12,17.12,17.12,0,0,0-4,10.95,17.1,17.1,0,0,0,17.1,17.09,17,17,0,0,0,8.9-2.52,28.49,28.49,0,0,0,17.66,6.18,28.48,28.48,0,0,0,17.7-6.16,17.08,17.08,0,0,0,22-25.56Zm0,0"/><path class="cls-1" d="M36.38,120.63a17,17,0,0,1-25.22,9.64,28.48,28.48,0,0,1-17.7,6.16,28.48,28.48,0,0,1-17.66-6.17,17.16,17.16,0,0,1-8.9,2.52,17.11,17.11,0,0,1-16.35-12.11,17.18,17.18,0,0,0-.75,4.93,17.06,17.06,0,0,0,5,12.08,17.08,17.08,0,0,0,12.09,5,17,17,0,0,0,8.9-2.52,28.49,28.49,0,0,0,17.66,6.18,28.48,28.48,0,0,0,17.7-6.16,17.09,17.09,0,0,0,26-14.59,17.4,17.4,0,0,0-.75-5Zm0,0"/><path class="cls-3" d="M-6.54,88.57H-7.1v1.58h.56A27.72,27.72,0,0,1,19.6,108.78l.18.51.55,0a16.3,16.3,0,1,1-8.76,30.2l-.47-.28-.43.34a27.71,27.71,0,0,1-17.21,6H-7.1v1.58h.56a29.32,29.32,0,0,0,17.78-6.06,17.83,17.83,0,1,0,9.64-33.29A29.28,29.28,0,0,0-6.54,88.57Zm0,0"/><text class="cls-20" transform="translate(9.57 266.85)">nienuklearny</text><path class="cls-11" d="M45,0,16,0H0L0,16c0,7,0,14,0,21A29.11,29.11,0,0,0,51.47,18.3,28.92,28.92,0,0,0,45,0Z"/><text class="cls-21" transform="translate(15.57 31.75)">03</text></svg>