<svg id="Слой_1" data-name="Слой 1" xmlns="http://www.w3.org/2000/svg" viewBox="0 0 195.59 280.63"><defs><style>.cls-1,.cls-12{fill:#eb5a53;}.cls-2{fill:#1a1a1a;}.cls-13,.cls-3{fill:#fff;}.cls-4{fill:#af1739;}.cls-5{fill:#eb5775;}.cls-6{fill:#badbe9;}.cls-7{fill:#8bb0cc;}.cls-8{fill:#f293a2;}.cls-9{fill:#595959;}.cls-10{fill:#797979;}.cls-11{fill:#3e3e3e;}.cls-12{font-size:46.94px;}.cls-12,.cls-13{font-family:Impact;}.cls-13{font-size:20px;}</style></defs><path class="cls-1" d="M110.38,157.1c0-11.16,4.91-13.39,8.31-13.39S127,145.94,127,157.1s-3.72,27-8.31,27-8.31-15.87-8.31-27Zm0,0"/><path class="cls-2" d="M118.69,141.39a9.42,9.42,0,0,0-7.2,3.33c-2.13,2.52-3.43,6.46-3.43,12.38a72.2,72.2,0,0,0,2.52,18.32,30.5,30.5,0,0,0,2.89,7.24c1.17,2,2.74,3.78,5.22,3.78s4.06-1.83,5.23-3.78a30.09,30.09,0,0,0,2.88-7.24,71.76,71.76,0,0,0,2.52-18.32c0-5.92-1.29-9.86-3.43-12.38a9.4,9.4,0,0,0-7.2-3.33Zm0,4.64a4.46,4.46,0,0,1,3.66,1.69c1.18,1.38,2.33,4.14,2.33,9.38a68.66,68.66,0,0,1-2.34,17.06,26.7,26.7,0,0,1-2.4,6.11,4.87,4.87,0,0,1-1.25,1.48,4.77,4.77,0,0,1-1.24-1.48,26.7,26.7,0,0,1-2.4-6.11,68.21,68.21,0,0,1-2.35-17.06c0-5.24,1.16-8,2.33-9.38a4.47,4.47,0,0,1,3.66-1.69Zm0,0"/><path class="cls-1" d="M68.36,157.1c0-11.16,4.91-13.39,8.31-13.39S85,145.94,85,157.1s-3.72,27-8.31,27-8.31-15.87-8.31-27Zm0,0"/><path class="cls-2" d="M76.67,141.39a9.4,9.4,0,0,0-7.2,3.33C67.34,147.24,66,151.18,66,157.1a71.76,71.76,0,0,0,2.52,18.32,30.51,30.51,0,0,0,2.88,7.24c1.17,2,2.75,3.78,5.23,3.78s4-1.83,5.22-3.78a30.09,30.09,0,0,0,2.89-7.24A72.2,72.2,0,0,0,87.3,157.1c0-5.92-1.3-9.86-3.43-12.38a9.4,9.4,0,0,0-7.2-3.33Zm0,4.64a4.47,4.47,0,0,1,3.66,1.69c1.17,1.38,2.33,4.14,2.33,9.38a68.21,68.21,0,0,1-2.35,17.06,26.25,26.25,0,0,1-2.4,6.11,4.77,4.77,0,0,1-1.24,1.48,4.87,4.87,0,0,1-1.25-1.48,27.17,27.17,0,0,1-2.4-6.11,68.66,68.66,0,0,1-2.34-17.06c0-5.24,1.15-8,2.33-9.38A4.46,4.46,0,0,1,76.67,146Zm0,0"/><path class="cls-1" d="M152.17,101.7c-3.23-10.68.82-14.24,4.08-15.22s8.6-.28,11.83,10.4,4.27,26.94-.13,28.27-12.55-12.77-15.78-23.45Zm0,0"/><path class="cls-2" d="M155.53,85.49a9.44,9.44,0,0,0-5.93,5.27c-1.31,3-1.41,7.18.31,12.84a72.11,72.11,0,0,0,7.72,16.81,30,30,0,0,0,4.86,6.09c1.68,1.53,3.72,2.82,6.09,2.1s3.35-2.92,3.91-5.13a30.31,30.31,0,0,0,.66-7.76,72.11,72.11,0,0,0-2.89-18.27c-1.72-5.66-4.1-9.06-6.87-10.85a9.43,9.43,0,0,0-7.86-1.1Zm1.35,4.44a4.47,4.47,0,0,1,4,.55c1.52,1,3.43,3.29,4.95,8.31a68.14,68.14,0,0,1,2.69,17,26.4,26.4,0,0,1-.52,6.54,4.93,4.93,0,0,1-.76,1.78,4.83,4.83,0,0,1-1.62-1.05,27.27,27.27,0,0,1-4.07-5.16,68.5,68.5,0,0,1-7.19-15.65c-1.52-5-1.21-8-.49-9.66a4.45,4.45,0,0,1,3-2.67Zm0,0"/><path class="cls-1" d="M29.56,96.42c4.27-10.31,9.67-10.49,12.81-9.19s6.82,5.24,2.55,15.55-13.78,23.54-18,21.78-1.61-17.83,2.66-28.14Zm0,0"/><path class="cls-2" d="M43.25,85.08a9.43,9.43,0,0,0-7.92.33c-2.94,1.51-5.64,4.65-7.91,10.12a72.05,72.05,0,0,0-4.68,17.89,30.17,30.17,0,0,0-.11,7.79c.34,2.26,1.09,4.54,3.38,5.49s4.45-.13,6.28-1.49a30.19,30.19,0,0,0,5.44-5.58,72.31,72.31,0,0,0,9.34-16c2.26-5.47,2.57-9.61,1.56-12.75a9.44,9.44,0,0,0-5.38-5.84Zm-1.77,4.29a4.47,4.47,0,0,1,2.73,3c.56,1.73.57,4.72-1.43,9.56a68.55,68.55,0,0,1-8.7,14.87,26.74,26.74,0,0,1-4.56,4.73,4.89,4.89,0,0,1-1.71.89,4.86,4.86,0,0,1-.59-1.85,27.26,27.26,0,0,1,.12-6.56A68.87,68.87,0,0,1,31.71,97.3c2-4.84,4.13-6.94,5.74-7.77a4.47,4.47,0,0,1,4-.16Zm0,0"/><path class="cls-2" d="M97.68,36.8a65.1,65.1,0,1,0,65.1,65.09A65.15,65.15,0,0,0,97.68,36.8Zm0,7.42A57.68,57.68,0,1,1,40,101.89,57.61,57.61,0,0,1,97.68,44.22Zm0,0"/><path class="cls-3" d="M36.3,101.89a61.39,61.39,0,1,1,18,43.41,61.34,61.34,0,0,1-18-43.41Zm0,0"/><path class="cls-3" d="M44.1,98.69a56.78,56.78,0,1,1,16.63,40.16A56.77,56.77,0,0,1,44.1,98.69Zm0,0"/><path class="cls-1" d="M36.3,101.89a61.38,61.38,0,1,0,122.76,0Zm122.76,0"/><path class="cls-1" d="M44.26,101.89a56.73,56.73,0,0,0,113.29,0Zm113.29,0"/><path class="cls-2" d="M97.68,39.58A62.32,62.32,0,1,0,160,101.89,62.33,62.33,0,0,0,97.68,39.58Zm0,1.86a60.46,60.46,0,1,1-60.46,60.45A60.44,60.44,0,0,1,97.68,41.44Zm0,0"/><path class="cls-2" d="M117.41,79.65A9.55,9.55,0,0,1,127,89.21V94a9.57,9.57,0,0,1-19.13,0V89.21a9.55,9.55,0,0,1,9.57-9.56Zm0,0"/><path class="cls-3" d="M111.84,86.51a3.07,3.07,0,1,1,.9,2.18,3.09,3.09,0,0,1-.9-2.18Zm0,0"/><path class="cls-2" d="M78,79.65a9.55,9.55,0,0,1,9.56,9.56V94A9.56,9.56,0,0,1,68.4,94V89.21A9.54,9.54,0,0,1,78,79.65Zm0,0"/><path class="cls-3" d="M72.39,86.51a3.09,3.09,0,1,1,3.09,3.08,3.09,3.09,0,0,1-3.09-3.08Zm0,0"/><path class="cls-4" d="M87.5,106.39a2.11,2.11,0,0,0-2.12,2.12v2.4a12.3,12.3,0,1,0,24.6,0v-2.4a2.11,2.11,0,0,0-2.12-2.12Zm20.36,0"/><path class="cls-5" d="M97.68,114.78A12.28,12.28,0,0,0,88.41,119,12.29,12.29,0,0,0,107,119a12.28,12.28,0,0,0-9.27-4.21Zm0,0"/><path class="cls-3" d="M87.5,106.39a2.11,2.11,0,0,0-2.12,2.12v2.15a28.37,28.37,0,0,0,24.6,0v-2.14a2.11,2.11,0,0,0-2.12-2.12Zm20.36,0"/><path class="cls-6" d="M106.68,106.39v3.29c0,1.23-.16,2-1,2.58a28.1,28.1,0,0,0,4.3-1.61v-2.14a2.11,2.11,0,0,0-2.12-2.12Zm1.18,0"/><path class="cls-6" d="M87.5,106.39a2.11,2.11,0,0,0-2.12,2.12v2.15a28.68,28.68,0,0,0,8.45,2.5c-1.43-.38-1.85-1.82-1.85-3.48v-3.29Zm4.48,0"/><path class="cls-7" d="M88.68,106.39v3.29c0,1.23.16,2,1,2.58a28.5,28.5,0,0,1-4.3-1.61v-2.14a2.11,2.11,0,0,1,2.12-2.12Zm-1.18,0"/><path class="cls-2" d="M87.5,105.46a3.07,3.07,0,0,0-3,3.05v2.4a13.23,13.23,0,0,0,26.46,0v-2.4a3.06,3.06,0,0,0-3-3.05Zm20.36,1.86a1.17,1.17,0,0,1,1.2,1.19v2.4a11.38,11.38,0,0,1-22.75,0v-2.4a1.16,1.16,0,0,1,1.19-1.19Zm0,0"/><path class="cls-2" d="M110,110.14a28.16,28.16,0,0,1-24.72,0l-.41.84a29.14,29.14,0,0,0,25.54,0l-.41-.84Zm0,0"/><path class="cls-8" d="M99,118.1a1.27,1.27,0,0,1,.6-1,2.56,2.56,0,0,1,1.45-.43c1.13,0,2,.65,2,1.45s-.91,1.44-2,1.44a2.56,2.56,0,0,1-1.45-.43,1.27,1.27,0,0,1-.6-1Zm0,0"/><path class="cls-2" d="M155.48,130.83l-.92-.12,1.63-12.37.92.12Zm1.63-12.37"/><path class="cls-2" d="M98.55,16c-5.91.35-11.75.38-18.3.86-8.67.64-14.87,3.3-18.86,7.32a19.83,19.83,0,0,0-5.55,14.17c0,8.84,5.42,15.62,12.91,19.28s17.1,4.66,26.86,3.16c1-.15,2-.33,2.94-.53V53.78q-2,.45-3.9.75c-8.7,1.34-17.18.31-23.14-2.6s-9.38-7.21-9.38-13.62a13.28,13.28,0,0,1,3.72-9.74c2.69-2.7,7.24-4.92,14.86-5.48,6.1-.45,11.86-.52,17.84-.91V16Zm0,0"/><path class="cls-2" d="M115.39,13.57a96.71,96.71,0,0,1-18.83,2.49V22.3a122.11,122.11,0,0,0,14.69-1.58l-1.85,5,4.49,0A63.34,63.34,0,0,0,131.74,23C127.16,41.19,112,51.25,96.56,54.2v6.39c19.24-3.28,39.26-16.85,42.53-41.69l.66-5.07-4.82,1.69a93.24,93.24,0,0,1-16.36,3.56l.5-1.36,2.06-5.54Zm5.74-1.39"/><path class="cls-9" d="M116.13,16.63c-13.2,3.19-23.41,2.42-35.65,3.33C64.19,21.15,59,29.72,59,38.31,59,68.82,129.72,66,136,18.49c0,0-11.9,4.18-22.06,4.12l2.22-6Zm0,0"/><path class="cls-10" d="M116.13,16.63c-13.2,3.19-23.41,2.42-35.65,3.33-9.28.68-15,3.75-18.13,7.85C70.94,42.7,119.47,40,136,18.49c0,0-11.9,4.18-22.06,4.12l2.22-6Zm0,0"/><path class="cls-11" d="M136,18.49c-8.29,30.93-65.23,43-76.54,15.64A18.91,18.91,0,0,0,59,38.31C59,68.82,129.72,66,136,18.49Zm0,0"/><path class="cls-2" d="M98.55,18.33c-5.93.35-11.74.37-18.13.84-8.27.61-13.86,3.11-17.36,6.64a17.34,17.34,0,0,0-4.87,12.5c0,7.93,4.68,13.78,11.6,17.16s16.1,4.39,25.46,3c1.1-.17,2.2-.37,3.3-.61V56.2q-1.77.39-3.54.66c-9.1,1.4-18,.38-24.53-2.81S59.77,45.63,59.77,38.31a15.68,15.68,0,0,1,4.41-11.4c3.17-3.2,8.34-5.58,16.35-6.17,6.28-.46,12.06-.51,18-.88V18.33Zm0,0"/><path class="cls-2" d="M115.94,15.86a99.74,99.74,0,0,1-19.38,2.57V20a106.65,106.65,0,0,0,18.35-2.33l-2.13,5.74h1.12c9.49.05,19.28-3.2,21.07-3.81-3.46,21.91-21,33.83-38.41,37v1.6c18.32-3.26,37.09-16.06,40.19-39.61l.17-1.27-1.21.43s-11,3.74-20.64,4l1.79-4.83.52-1.38Zm1.44-.34"/><text class="cls-12" transform="translate(12.96 227.92)">podobne<tspan x="41.2" y="40.43">flagi</tspan></text><path class="cls-1" d="M45.16,0l-29,0H.2l0,16c0,7,0,14,0,21A29.1,29.1,0,0,0,51.67,18.3,28.91,28.91,0,0,0,45.16,0Z"/><text class="cls-13" transform="translate(15.78 31.75)">08</text></svg>