<?xml version="1.0" encoding="utf-8"?>
<!-- Generator: Adobe Illustrator 26.0.3, SVG Export Plug-In . SVG Version: 6.00 Build 0)  -->
<svg version="1.1" id="Слой_1" xmlns="http://www.w3.org/2000/svg" xmlns:xlink="http://www.w3.org/1999/xlink" x="0px" y="0px"
	 viewBox="0 0 195.6 280.6" style="enable-background:new 0 0 195.6 280.6;" xml:space="preserve">
<style type="text/css">
	.st0{clip-path:url(#SVGID_00000011721370016509368010000017003443059313456521_);fill:#797979;}
	.st1{clip-path:url(#SVGID_00000011721370016509368010000017003443059313456521_);fill:#1A1A1A;}
	.st2{clip-path:url(#SVGID_00000011721370016509368010000017003443059313456521_);fill:#555555;}
	.st3{clip-path:url(#SVGID_00000011721370016509368010000017003443059313456521_);fill:#FFFFFF;}
	.st4{clip-path:url(#SVGID_00000011721370016509368010000017003443059313456521_);fill:#6C6C6C;}
	.st5{clip-path:url(#SVGID_00000011721370016509368010000017003443059313456521_);fill:#ED6B49;}
	.st6{clip-path:url(#SVGID_00000011721370016509368010000017003443059313456521_);fill:#E74025;}
	.st7{clip-path:url(#SVGID_00000011721370016509368010000017003443059313456521_);fill:#EB5A53;}
	.st8{clip-path:url(#SVGID_00000011721370016509368010000017003443059313456521_);fill:#595959;}
	.st9{clip-path:url(#SVGID_00000011721370016509368010000017003443059313456521_);fill:#3E3E3E;}
	.st10{clip-path:url(#SVGID_00000011721370016509368010000017003443059313456521_);fill:#BADBE9;}
	.st11{clip-path:url(#SVGID_00000011721370016509368010000017003443059313456521_);enable-background:new    ;}
	.st12{fill:#1A1A1A;}
	.st13{font-family:'Impact';}
	.st14{font-size:37px;}
	.st15{fill:#FFFFFF;}
	.st16{font-size:20px;}
</style>
<g>
	<defs>
		<rect id="SVGID_1_" x="0" y="0" width="195.6" height="280.6"/>
	</defs>
	<clipPath id="SVGID_00000006695334944886085260000003986985671030567593_">
		<use xlink:href="#SVGID_1_"  style="overflow:visible;"/>
	</clipPath>
	
		<rect x="-286.9" y="-10.9" style="clip-path:url(#SVGID_00000006695334944886085260000003986985671030567593_);fill:#797979;" width="507" height="310"/>
	<path style="clip-path:url(#SVGID_00000006695334944886085260000003986985671030567593_);fill:#1A1A1A;" d="M83.3,160.4v5.9h-9v6.3
		h9v5.9h-9.5c-3,0-5.3-2.4-5.4-5.4v-7.4c0-3,2.4-5.3,5.4-5.4L83.3,160.4z"/>
	
		<rect x="94" y="167.2" style="clip-path:url(#SVGID_00000006695334944886085260000003986985671030567593_);fill:#1A1A1A;" width="6.3" height="4.4"/>
	
		<rect x="140.8" y="167.2" style="clip-path:url(#SVGID_00000006695334944886085260000003986985671030567593_);fill:#1A1A1A;" width="6.3" height="4.4"/>
	<path style="clip-path:url(#SVGID_00000006695334944886085260000003986985671030567593_);fill:#1A1A1A;" d="M91.7,160.4
		c3,0,5.4,2.4,5.4,5.4v7.4c0,3-2.4,5.4-5.4,5.4h-9.5v-5.9h8.9v-6.3h-8.9v-5.9H91.7z"/>
	<path style="clip-path:url(#SVGID_00000006695334944886085260000003986985671030567593_);fill:#797979;" d="M94.2,173.1v-7.4
		c0-1.3-1.1-2.4-2.4-2.4c0,0,0,0,0,0H73.8c-1.3,0-2.4,1.1-2.4,2.4v7.4c0,1.3,1.1,2.4,2.4,2.4h17.9C93.1,175.5,94.2,174.5,94.2,173.1
		C94.2,173.1,94.2,173.1,94.2,173.1z"/>
	<path style="clip-path:url(#SVGID_00000006695334944886085260000003986985671030567593_);fill:#555555;" d="M78.7,163.4v12.2h-4.8
		c-1.3,0-2.4-1.1-2.4-2.4v-7.4c0-1.3,1.1-2.4,2.4-2.4H78.7z"/>
	
		<rect x="86.1" y="163.4" style="clip-path:url(#SVGID_00000006695334944886085260000003986985671030567593_);fill:#FFFFFF;" width="4.3" height="12.2"/>
	<path style="clip-path:url(#SVGID_00000006695334944886085260000003986985671030567593_);fill:#1A1A1A;" d="M83.3,162.6v1.5h-9.5
		c-0.9,0-1.7,0.7-1.7,1.6c0,0,0,0,0,0v7.4c0,0.9,0.7,1.7,1.6,1.7c0,0,0,0,0,0h9.5v1.5h-9.5c-1.7,0-3.2-1.4-3.2-3.2v-7.4
		c0-1.7,1.4-3.2,3.2-3.2L83.3,162.6z"/>
	<path style="clip-path:url(#SVGID_00000006695334944886085260000003986985671030567593_);fill:#1A1A1A;" d="M107.6,163v4.4h-2.9
		c-1.1-0.2-2.1,0.6-2.3,1.7c-0.2,1.1,0.6,2.1,1.7,2.3c0.2,0,0.4,0,0.6,0h2.9v4.4h-2.9c-3.5,0.1-6.5-2.6-6.7-6.2
		c-0.1-3.5,2.6-6.5,6.2-6.7c0.2,0,0.3,0,0.5,0H107.6z"/>
	<path style="clip-path:url(#SVGID_00000006695334944886085260000003986985671030567593_);fill:#1A1A1A;" d="M121.1,163v4.4h-2.9
		c-1.1-0.2-2.1,0.6-2.3,1.7c-0.2,1.1,0.6,2.1,1.7,2.3c0.2,0,0.4,0,0.6,0h2.9v4.4h-2.9c-3.5,0.1-6.5-2.6-6.7-6.2
		c-0.1-3.5,2.6-6.5,6.2-6.7c0.2,0,0.3,0,0.5,0H121.1z"/>
	<path style="clip-path:url(#SVGID_00000006695334944886085260000003986985671030567593_);fill:#1A1A1A;" d="M134.5,163v4.4h-2.9
		c-1.1-0.2-2.1,0.6-2.3,1.7c-0.2,1.1,0.6,2.1,1.7,2.3c0.2,0,0.4,0,0.6,0h2.9v4.4h-2.9c-3.5,0.1-6.5-2.6-6.7-6.2
		c-0.1-3.5,2.6-6.5,6.2-6.7c0.2,0,0.3,0,0.5,0H134.5z"/>
	<path style="clip-path:url(#SVGID_00000006695334944886085260000003986985671030567593_);fill:#1A1A1A;" d="M90.8,106.2
		c0,0.3,0,0.6,0,0.9c0,19.1,15.4,34.7,34.6,34.7c9.6,0,18.7-3.9,25.3-10.9c1,0.2,1.9,0.3,2.9,0.3c13.3,0,24.1-10.8,24.1-24.1
		c0-0.3,0-0.6,0-0.9h-5.9c0,0.3,0,0.6,0,0.9c0,10-8.1,18.2-18.1,18.2c0,0-0.1,0-0.1,0c-1.2,0-2.3-0.1-3.5-0.3l-1.7-0.3l-1.1,1.3
		c-10.4,12-28.6,13.4-40.6,3c-6.3-5.5-10-13.4-10-21.8c0-0.3,0-0.6,0-0.9L90.8,106.2z"/>
	<path style="clip-path:url(#SVGID_00000006695334944886085260000003986985671030567593_);fill:#1A1A1A;" d="M125.5,72.4
		c-19.2,0-34.7,15.6-34.7,34.7c0,0.3,0,0.6,0,0.9h5.9c0-0.3,0-0.6,0-0.9c0-15.9,12.8-28.8,28.7-28.8c0,0,0.1,0,0.1,0l0,0
		c8.4,0,16.3,3.7,21.8,10l1.1,1.3l1.7-0.3c1.1-0.2,2.3-0.4,3.5-0.4c10,0,18.2,8.1,18.2,18.1c0,0,0,0.1,0,0.1c0,0.3,0,0.6,0,0.9h5.9
		c0-0.3,0-0.6,0-0.9c0-13.3-10.8-24.1-24.1-24.1l0,0c-1,0-1.9,0.1-2.9,0.3C144.1,76.4,135,72.4,125.5,72.4L125.5,72.4z"/>
	<path style="clip-path:url(#SVGID_00000006695334944886085260000003986985671030567593_);fill:#6C6C6C;" d="M125.5,75.4
		c-17.5,0-31.8,14.2-31.8,31.7s14.2,31.8,31.7,31.8c9.2,0,18-4,24.1-11c11.5,2.3,22.6-5.1,24.9-16.6s-5.1-22.6-16.6-24.9
		c-2.7-0.5-5.6-0.5-8.3,0C143.5,79.4,134.7,75.4,125.5,75.4L125.5,75.4z"/>
	<path style="clip-path:url(#SVGID_00000006695334944886085260000003986985671030567593_);fill:#ED6B49;" d="M97.4,117.2
		c-0.6,0-1.2,0.3-1.7,0.7c1.5,4.1,3.8,7.8,6.8,11H116c1.3,0,2.4-1.1,2.4-2.4c0,0,0,0,0,0v-6.9c0-1.3-1.1-2.4-2.4-2.4c0,0,0,0,0,0
		L97.4,117.2z"/>
	<path style="clip-path:url(#SVGID_00000006695334944886085260000003986985671030567593_);fill:#ED6B49;" d="M124.8,117.2
		c-1.3,0-2.4,1.1-2.4,2.4c0,0,0,0,0,0v6.9c0,1.3,1.1,2.4,2.4,2.4c0,0,0,0,0,0h18.6c1.3,0,2.4-1.1,2.4-2.4c0,0,0,0,0,0v-6.9
		c0-1.3-1.1-2.4-2.4-2.4c0,0,0,0,0,0L124.8,117.2z"/>
	<path style="clip-path:url(#SVGID_00000006695334944886085260000003986985671030567593_);fill:#ED6B49;" d="M152.1,117.2
		c-1.3,0-2.4,1.1-2.4,2.4c0,0,0,0,0,0v6.9c0,0.5,0.2,1,0.5,1.5c1.1,0.2,2.2,0.3,3.3,0.3c7.6,0,14.6-4.1,18.4-10.7
		c-0.4-0.2-0.8-0.3-1.2-0.3L152.1,117.2z"/>
	<path style="clip-path:url(#SVGID_00000006695334944886085260000003986985671030567593_);fill:#E74025;" d="M118.3,123.6
		c0,1.3-1,2.4-2.3,2.4h-16c0.8,1,1.6,2,2.4,2.9H116c1.3,0,2.4-1.1,2.4-2.4c0,0,0,0,0,0L118.3,123.6z"/>
	<path style="clip-path:url(#SVGID_00000006695334944886085260000003986985671030567593_);fill:#E74025;" d="M122.4,123.6v2.9
		c0,1.3,1.1,2.4,2.4,2.4c0,0,0,0,0,0h18.6c1.3,0,2.4-1.1,2.4-2.4c0,0,0,0,0,0v-2.9c0,1.3-1.1,2.4-2.4,2.4c0,0,0,0,0,0h-18.6
		C123.5,126,122.4,124.9,122.4,123.6C122.4,123.6,122.4,123.6,122.4,123.6z"/>
	<path style="clip-path:url(#SVGID_00000006695334944886085260000003986985671030567593_);fill:#E74025;" d="M149.8,123.6v2.9
		c0,0.5,0.2,1,0.5,1.5c1.1,0.2,2.2,0.3,3.3,0.3c3.3,0,6.6-0.8,9.5-2.3h-10.9C150.8,126,149.8,124.9,149.8,123.6
		C149.7,123.6,149.7,123.6,149.8,123.6z"/>
	<path style="clip-path:url(#SVGID_00000006695334944886085260000003986985671030567593_);fill:#1A1A1A;" d="M97.4,116.5
		c-0.8,0-1.6,0.3-2.2,0.9l1,1c0.3-0.3,0.7-0.5,1.2-0.5H116c0.9,0,1.6,0.7,1.7,1.6c0,0,0,0,0,0v6.9c0,0.9-0.7,1.6-1.6,1.7
		c0,0,0,0,0,0h-13.5v1.5H116c1.7,0,3.1-1.4,3.1-3.1v-6.9c0-1.7-1.4-3.1-3.1-3.1L97.4,116.5z"/>
	<path style="clip-path:url(#SVGID_00000006695334944886085260000003986985671030567593_);fill:#1A1A1A;" d="M121.6,122.1v4.4
		c0,1.7,1.4,3.1,3.1,3.1h18.6c1.7,0,3.1-1.4,3.1-3.1v-4.4H145v4.4c0,0.9-0.7,1.6-1.6,1.7c0,0,0,0,0,0h-18.6c-0.9,0-1.7-0.7-1.7-1.6
		c0,0,0,0,0,0v-4.4H121.6z"/>
	<path style="clip-path:url(#SVGID_00000006695334944886085260000003986985671030567593_);fill:#1A1A1A;" d="M152.1,116.5
		c-1.7,0-3.1,1.4-3.1,3.1v6.9c0,0.7,0.2,1.4,0.7,2l1.2-0.9c-0.2-0.3-0.4-0.6-0.4-1v-6.9c0-0.9,0.7-1.6,1.6-1.7c0,0,0,0,0,0h18.6
		c0.3,0,0.6,0.1,0.9,0.2l0.8-1.3c-0.5-0.3-1-0.4-1.6-0.4L152.1,116.5z"/>
	<path style="clip-path:url(#SVGID_00000006695334944886085260000003986985671030567593_);fill:#ED6B49;" d="M111.1,133.2
		c-0.8,0-1.6,0.4-2,1.1c5,3,10.6,4.6,16.5,4.6c2.2,0,4.4-0.2,6.5-0.7v-2.6c0-1.3-1.1-2.4-2.4-2.4c0,0,0,0,0,0H111.1z"/>
	<path style="clip-path:url(#SVGID_00000006695334944886085260000003986985671030567593_);fill:#ED6B49;" d="M138.5,133.2
		c-1.3,0-2.4,1.1-2.4,2.4c0,0,0,0,0,0v1.4c2.7-0.9,5.2-2.2,7.6-3.9L138.5,133.2z"/>
	<path style="clip-path:url(#SVGID_00000006695334944886085260000003986985671030567593_);fill:#1A1A1A;" d="M111.1,132.4
		c-1.1,0-2,0.5-2.6,1.4l1.2,0.8c0.3-0.5,0.8-0.8,1.4-0.8h18.6c0.9,0,1.6,0.7,1.7,1.6c0,0,0,0,0,0v2.6h1.5v-2.6
		c0-1.7-1.4-3.1-3.1-3.1H111.1z"/>
	<path style="clip-path:url(#SVGID_00000006695334944886085260000003986985671030567593_);fill:#1A1A1A;" d="M138.5,132.4
		c-1.7,0-3.1,1.4-3.1,3.1v1.4h1.5v-1.5c0-0.9,0.7-1.6,1.6-1.7c0,0,0,0,0.1,0h5.2v-1.5L138.5,132.4z"/>
	<path style="clip-path:url(#SVGID_00000006695334944886085260000003986985671030567593_);fill:#ED6B49;" d="M111.1,101.3
		c-1.3,0-2.4,1.1-2.4,2.4c0,0,0,0,0,0v6.9c0,1.3,1.1,2.4,2.4,2.4c0,0,0,0,0,0h18.6c1.3,0,2.4-1.1,2.4-2.4c0,0,0,0,0,0v-6.9
		c0-1.3-1.1-2.4-2.4-2.4c0,0,0,0,0,0H111.1z"/>
	<path style="clip-path:url(#SVGID_00000006695334944886085260000003986985671030567593_);fill:#ED6B49;" d="M138.5,101.3
		c-1.3,0-2.4,1.1-2.4,2.4c0,0,0,0,0,0v6.9c0,1.3,1.1,2.4,2.4,2.4c0,0,0,0,0,0H157c1.3,0,2.4-1.1,2.4-2.4c0,0,0,0,0,0v-6.9
		c0-1.3-1.1-2.4-2.4-2.4c0,0,0,0,0,0H138.5z"/>
	<path style="clip-path:url(#SVGID_00000006695334944886085260000003986985671030567593_);fill:#ED6B49;" d="M165.8,101.3
		c-1.3,0-2.4,1.1-2.4,2.4c0,0,0,0,0,0v6.9c0,1.3,1.1,2.4,2.4,2.4c0,0,0,0,0,0h8c0.5-1.9,0.8-3.9,0.8-5.8c0-2-0.3-3.9-0.8-5.8H165.8z
		"/>
	<path style="clip-path:url(#SVGID_00000006695334944886085260000003986985671030567593_);fill:#ED6B49;" d="M94.3,101.3
		c-0.7,3.9-0.7,7.8,0,11.7h8c1.3,0,2.4-1.1,2.4-2.4c0,0,0,0,0,0v-6.9c0-1.3-1.1-2.4-2.4-2.4c0,0,0,0,0,0H94.3z"/>
	<path style="clip-path:url(#SVGID_00000006695334944886085260000003986985671030567593_);fill:#E74025;" d="M104.7,107.6
		c0,1.3-1.1,2.4-2.4,2.4c0,0,0,0,0,0h-8.4c0.1,1,0.2,1.9,0.4,2.9h8c1.3,0,2.4-1.1,2.4-2.4c0,0,0,0,0,0L104.7,107.6z"/>
	<path style="clip-path:url(#SVGID_00000006695334944886085260000003986985671030567593_);fill:#E74025;" d="M108.7,107.6v2.9
		c0,1.3,1.1,2.4,2.4,2.4l0,0h18.6c1.3,0,2.4-1.1,2.4-2.4c0,0,0,0,0,0v-2.9c0,1.3-1.1,2.4-2.4,2.4c0,0,0,0,0,0h-18.6
		C109.7,110,108.7,109,108.7,107.6L108.7,107.6z"/>
	<path style="clip-path:url(#SVGID_00000006695334944886085260000003986985671030567593_);fill:#E74025;" d="M136.1,107.6v2.9
		c0,1.3,1.1,2.4,2.4,2.4c0,0,0,0,0,0H157c1.3,0,2.4-1.1,2.4-2.4c0,0,0,0,0,0v-2.9c0,1.3-1.1,2.4-2.4,2.4h-18.5
		C137.1,110,136.1,108.9,136.1,107.6C136.1,107.6,136.1,107.6,136.1,107.6L136.1,107.6z"/>
	<path style="clip-path:url(#SVGID_00000006695334944886085260000003986985671030567593_);fill:#E74025;" d="M163.4,107.6v2.9
		c0,1.3,1.1,2.4,2.4,2.4c0,0,0,0,0,0h8c0.3-1,0.5-1.9,0.6-2.9h-8.6C164.5,110,163.4,109,163.4,107.6
		C163.4,107.7,163.4,107.6,163.4,107.6L163.4,107.6z"/>
	<path style="clip-path:url(#SVGID_00000006695334944886085260000003986985671030567593_);fill:#1A1A1A;" d="M107.9,106.2v4.4
		c0,1.7,1.4,3.1,3.1,3.1h18.6c1.7,0,3.1-1.4,3.1-3.1v-4.4h-1.5v4.4c0,0.9-0.7,1.6-1.6,1.7c0,0,0,0,0,0h-18.6c-0.9,0-1.6-0.7-1.7-1.6
		c0,0,0,0,0,0v-4.4H107.9z"/>
	<path style="clip-path:url(#SVGID_00000006695334944886085260000003986985671030567593_);fill:#1A1A1A;" d="M135.3,106.2v4.4
		c0,1.7,1.4,3.1,3.1,3.1H157c1.7,0,3.1-1.4,3.1-3.1v-4.4h-1.5v4.4c0,0.9-0.7,1.6-1.6,1.7c0,0,0,0,0,0h-18.5c-0.9,0-1.6-0.7-1.7-1.6
		c0,0,0,0,0-0.1v-4.4H135.3z"/>
	<path style="clip-path:url(#SVGID_00000006695334944886085260000003986985671030567593_);fill:#1A1A1A;" d="M165.8,100.5
		c-1.7,0-3.1,1.4-3.1,3.1v6.9c0,1.7,1.4,3.1,3.1,3.1h8v-1.5h-8c-0.9,0-1.6-0.7-1.7-1.6c0,0,0,0,0,0v-6.9c0-0.9,0.7-1.6,1.6-1.7
		c0,0,0,0,0,0h8v-1.5L165.8,100.5z"/>
	<path style="clip-path:url(#SVGID_00000006695334944886085260000003986985671030567593_);fill:#1A1A1A;" d="M94.3,100.5v1.5h8
		c0.9,0,1.6,0.7,1.7,1.6c0,0,0,0,0,0v6.9c0,0.9-0.7,1.6-1.6,1.7c0,0,0,0,0,0h-8v1.5h8c1.7,0,3.1-1.4,3.1-3.1v-6.9
		c0-1.7-1.4-3.1-3.1-3.1L94.3,100.5z"/>
	<path style="clip-path:url(#SVGID_00000006695334944886085260000003986985671030567593_);fill:#ED6B49;" d="M102.4,85.3
		c-3,3.2-5.3,6.9-6.7,11c0.4,0.5,1.1,0.7,1.7,0.7H116c1.3,0,2.4-1.1,2.4-2.4c0,0,0,0,0,0v-6.9c0-1.3-1.1-2.4-2.4-2.4c0,0,0,0,0,0
		H102.4z"/>
	<path style="clip-path:url(#SVGID_00000006695334944886085260000003986985671030567593_);fill:#ED6B49;" d="M124.8,85.3
		c-1.3,0-2.4,1.1-2.4,2.4c0,0,0,0,0,0v6.9c0,1.3,1.1,2.4,2.4,2.4c0,0,0,0,0,0h18.6c1.3,0,2.4-1.1,2.4-2.4c0,0,0,0,0,0v-6.9
		c0-1.3-1.1-2.4-2.4-2.4c0,0,0,0,0,0H124.8z"/>
	<path style="clip-path:url(#SVGID_00000006695334944886085260000003986985671030567593_);fill:#ED6B49;" d="M153.6,86
		c-1.1,0-2.2,0.1-3.3,0.3c-0.3,0.4-0.5,0.9-0.5,1.5v6.9c0,1.3,1.1,2.4,2.4,2.4c0,0,0,0,0,0h18.6c0.4,0,0.9-0.1,1.2-0.3
		C168.2,90.1,161.2,86,153.6,86z"/>
	<path style="clip-path:url(#SVGID_00000006695334944886085260000003986985671030567593_);fill:#E74025;" d="M118.3,91.7
		c0,1.3-1.1,2.4-2.4,2.4c0,0,0,0,0,0H97.4c-0.3,0-0.5,0-0.7-0.1c-0.3,0.8-0.7,1.5-1,2.3c0.4,0.5,1.1,0.7,1.7,0.7H116
		c1.3,0,2.4-1.1,2.4-2.4c0,0,0,0,0,0L118.3,91.7z"/>
	<path style="clip-path:url(#SVGID_00000006695334944886085260000003986985671030567593_);fill:#E74025;" d="M122.4,91.7v2.9
		c0,1.3,1.1,2.4,2.4,2.4c0,0,0,0,0,0h18.6c1.3,0,2.4-1.1,2.4-2.4c0,0,0,0,0,0v-2.9c0,1.3-1.1,2.4-2.4,2.4c0,0,0,0,0,0h-18.6
		C123.5,94.1,122.4,93,122.4,91.7C122.4,91.7,122.4,91.7,122.4,91.7z"/>
	<path style="clip-path:url(#SVGID_00000006695334944886085260000003986985671030567593_);fill:#E74025;" d="M149.8,91.7v2.9
		c0,1.3,1.1,2.4,2.4,2.4c0,0,0,0,0,0h18.6c0.4,0,0.9-0.1,1.2-0.3c-0.5-0.9-1.1-1.8-1.7-2.6h-18C150.9,94.1,149.8,93,149.8,91.7
		C149.8,91.7,149.8,91.7,149.8,91.7L149.8,91.7z"/>
	<path style="clip-path:url(#SVGID_00000006695334944886085260000003986985671030567593_);fill:#1A1A1A;" d="M102.4,84.6v1.5H116
		c0.9,0,1.6,0.7,1.7,1.6c0,0,0,0,0,0v6.9c0,0.9-0.7,1.7-1.6,1.7c0,0,0,0,0,0H97.4c-0.4,0-0.9-0.2-1.2-0.5l-1,1
		c0.6,0.6,1.4,0.9,2.2,0.9H116c1.7,0,3.1-1.4,3.1-3.1v-6.8c0-1.7-1.4-3.1-3.1-3.1H102.4z"/>
	<path style="clip-path:url(#SVGID_00000006695334944886085260000003986985671030567593_);fill:#1A1A1A;" d="M121.6,90.2v4.4
		c0,1.7,1.4,3.1,3.1,3.1h18.6c1.7,0,3.1-1.4,3.1-3.1v-4.4H145v4.4c0,0.9-0.7,1.7-1.6,1.7c0,0,0,0,0,0h-18.6c-0.9,0-1.7-0.7-1.7-1.6
		c0,0,0,0,0,0v-4.4H121.6z"/>
	<path style="clip-path:url(#SVGID_00000006695334944886085260000003986985671030567593_);fill:#1A1A1A;" d="M149.7,85.8
		c-0.4,0.6-0.7,1.2-0.7,1.9v6.9c0,1.7,1.4,3.1,3.1,3.1h18.6c0.6,0,1.1-0.2,1.6-0.4l-0.8-1.3c-0.3,0.2-0.5,0.2-0.9,0.2h-18.6
		c-0.9,0-1.6-0.7-1.7-1.6c0,0,0,0,0-0.1v-6.9c0-0.4,0.1-0.7,0.4-1L149.7,85.8z"/>
	<path style="clip-path:url(#SVGID_00000006695334944886085260000003986985671030567593_);fill:#ED6B49;" d="M125.5,75.4
		c-5.8,0-11.5,1.6-16.5,4.6c0.4,0.7,1.2,1.1,2,1.1h18.6c1.3,0,2.4-1.1,2.4-2.4c0,0,0,0,0,0v-2.6C129.9,75.6,127.7,75.4,125.5,75.4
		L125.5,75.4z"/>
	<path style="clip-path:url(#SVGID_00000006695334944886085260000003986985671030567593_);fill:#ED6B49;" d="M136.1,77.2v1.5
		c0,1.3,1.1,2.4,2.4,2.4c0,0,0,0,0,0h5.1C141.3,79.5,138.7,78.2,136.1,77.2z"/>
	<path style="clip-path:url(#SVGID_00000006695334944886085260000003986985671030567593_);fill:#E74025;" d="M132,76.1
		c-0.2,1.2-1.2,2.1-2.4,2.1h-17.1c-1.2,0.5-2.4,1.2-3.5,1.8c0.4,0.7,1.2,1.1,2,1.1h18.6c1.3,0,2.4-1.1,2.4-2.4c0,0,0,0,0,0L132,76.1
		L132,76.1z"/>
	<path style="clip-path:url(#SVGID_00000006695334944886085260000003986985671030567593_);fill:#E74025;" d="M136.1,77.2v1.5
		c0,1.3,1.1,2.4,2.4,2.4c0,0,0,0,0,0h5.1c-1.6-1.1-3.4-2.1-5.2-2.9c-0.6,0-1.2-0.3-1.6-0.7L136.1,77.2z"/>
	<path style="clip-path:url(#SVGID_00000006695334944886085260000003986985671030567593_);fill:#1A1A1A;" d="M131.3,76.1v2.6
		c0,0.9-0.7,1.6-1.6,1.7c0,0,0,0,0,0h-18.6c-0.6,0-1.1-0.3-1.4-0.8l-1.2,0.8c0.6,0.9,1.6,1.4,2.6,1.4h18.6c1.7,0,3.1-1.4,3.1-3.1
		v-2.6L131.3,76.1z"/>
	<path style="clip-path:url(#SVGID_00000006695334944886085260000003986985671030567593_);fill:#1A1A1A;" d="M135.3,77.2v1.5
		c0,1.7,1.4,3.1,3.1,3.1h5.1v-1.5h-5.1c-0.9,0-1.6-0.7-1.7-1.6c0,0,0,0,0,0v-1.5H135.3z"/>
	<path style="clip-path:url(#SVGID_00000006695334944886085260000003986985671030567593_);fill:#1A1A1A;" d="M93,106.2
		c0,0.3,0,0.6,0,0.9c0,17.9,14.5,32.5,32.4,32.5c9.3,0,18.2-4,24.4-11c1.2,0.2,2.5,0.4,3.8,0.4c12.1,0,21.9-9.8,21.9-21.9
		c0-0.3,0-0.6,0-0.9H174c0,0.3,0,0.6,0,0.9c0,11.2-9.1,20.4-20.3,20.4c-1.3,0-2.7-0.1-4-0.4l-0.4-0.1l-0.3,0.3
		c-11.2,13-30.7,14.4-43.7,3.3c-6.8-5.9-10.8-14.5-10.8-23.5c0-0.3,0-0.6,0-0.9L93,106.2z"/>
	<path style="clip-path:url(#SVGID_00000006695334944886085260000003986985671030567593_);fill:#1A1A1A;" d="M125.5,74.6
		c-18,0-32.5,14.5-32.5,32.5c0,0.3,0,0.6,0,0.9h1.5c0-0.3,0-0.6,0-0.9c0-17.1,13.8-31,30.9-31.1c9.1,0,17.7,3.9,23.6,10.8l0.3,0.3
		l0.4-0.1c1.3-0.3,2.6-0.4,3.9-0.4c11.3,0,20.4,9.1,20.4,20.4c0,0,0,0,0,0c0,0.3,0,0.6,0,0.9h1.5c0-0.3,0-0.6,0-0.9
		c0-12.1-9.8-21.9-21.9-21.9c-1.3,0-2.5,0.1-3.8,0.4C143.7,78.6,134.8,74.6,125.5,74.6L125.5,74.6z"/>
	<path style="clip-path:url(#SVGID_00000006695334944886085260000003986985671030567593_);fill:#1A1A1A;" d="M111.1,100.5
		c-1.7,0-3.1,1.4-3.1,3.1v4.4h1.5v-4.4c0-0.9,0.7-1.6,1.6-1.7c0,0,0,0,0,0h18.6c0.9,0,1.6,0.7,1.7,1.6c0,0,0,0,0,0v4.4h1.5v-4.4
		c0-1.7-1.4-3.1-3.1-3.1H111.1z"/>
	<path style="clip-path:url(#SVGID_00000006695334944886085260000003986985671030567593_);fill:#1A1A1A;" d="M138.5,100.5
		c-1.7,0-3.1,1.4-3.1,3.1v4.4h1.5v-4.4c0-0.9,0.7-1.6,1.6-1.7c0,0,0,0,0,0H157c0.9,0,1.6,0.7,1.7,1.6c0,0,0,0,0,0v4.4h1.5v-4.4
		c0-1.7-1.4-3.1-3.1-3.1H138.5z"/>
	<path style="clip-path:url(#SVGID_00000006695334944886085260000003986985671030567593_);fill:#1A1A1A;" d="M124.8,116.5
		c-1.7,0-3.1,1.4-3.1,3.1v4.4h1.5v-4.4c0-0.9,0.7-1.7,1.6-1.7c0,0,0,0,0,0h18.6c0.9,0,1.6,0.7,1.7,1.6c0,0,0,0,0,0v4.4h1.5v-4.4
		c0-1.7-1.4-3.1-3.1-3.1L124.8,116.5z"/>
	<path style="clip-path:url(#SVGID_00000006695334944886085260000003986985671030567593_);fill:#1A1A1A;" d="M124.8,84.6
		c-1.7,0-3.1,1.4-3.1,3.1v4.4h1.5v-4.4c0-0.9,0.7-1.7,1.6-1.7c0,0,0,0,0,0h18.6c0.9,0,1.7,0.7,1.7,1.6c0,0,0,0,0,0.1v4.4h1.5v-4.4
		c0-1.7-1.4-3.1-3.1-3.1H124.8z"/>
	<path style="clip-path:url(#SVGID_00000006695334944886085260000003986985671030567593_);fill:#EB5A53;" d="M75.6,150.3
		c0-9.5,4.2-11.4,7.1-11.4s7,1.9,7,11.4s-3.2,22.9-7,22.9S75.6,159.8,75.6,150.3z"/>
	<path style="clip-path:url(#SVGID_00000006695334944886085260000003986985671030567593_);fill:#1A1A1A;" d="M82.7,137
		c-2.4,0-4.6,1-6.1,2.8c-1.8,2.1-2.9,5.5-2.9,10.5c0,5.3,0.8,10.5,2.1,15.6c0.5,2.1,1.4,4.2,2.5,6.1c1,1.7,2.3,3.2,4.4,3.2
		s3.4-1.5,4.4-3.2c1.1-1.9,1.9-4,2.4-6.1c1.4-5.1,2.1-10.3,2.1-15.6c0-5-1.1-8.4-2.9-10.5C87.2,138,85,137,82.7,137z M82.7,140.9
		c1.2,0,2.4,0.5,3.1,1.4c1,1.2,2,3.5,2,7.9c-0.1,4.9-0.7,9.8-2,14.5c-0.5,1.8-1.1,3.5-2,5.2c-0.2,0.5-0.6,0.9-1,1.2
		c-0.5-0.3-0.9-0.7-1.2-1.2c-0.9-1.6-1.5-3.4-2-5.2c-1.3-4.7-1.9-9.6-2-14.5c0-4.4,1-6.8,2-7.9C80.3,141.4,81.5,140.9,82.7,140.9
		L82.7,140.9z"/>
	<path style="clip-path:url(#SVGID_00000006695334944886085260000003986985671030567593_);fill:#EB5A53;" d="M40,150.3
		c0-9.5,4.2-11.4,7-11.4s7,1.9,7,11.4s-3.2,22.9-7,22.9S40,159.8,40,150.3z"/>
	<path style="clip-path:url(#SVGID_00000006695334944886085260000003986985671030567593_);fill:#1A1A1A;" d="M47,137
		c-2.4,0-4.6,1-6.1,2.8c-1.8,2.2-2.9,5.5-2.9,10.5c0,5.3,0.8,10.5,2.1,15.6c0.5,2.1,1.4,4.2,2.4,6.1c1,1.7,2.3,3.2,4.4,3.2
		s3.4-1.5,4.4-3.2c1.1-1.9,1.9-4,2.5-6.1c1.4-5.1,2.1-10.3,2.1-15.5c0-5-1.1-8.4-2.9-10.5C51.6,138,49.3,137,47,137z M47,140.9
		c1.2,0,2.4,0.5,3.1,1.4c1,1.2,2,3.5,2,7.9c-0.1,4.9-0.7,9.8-2,14.5c-0.5,1.8-1.1,3.5-2,5.2c-0.3,0.5-0.7,0.9-1.1,1.3
		c-0.4-0.3-0.8-0.8-1-1.2c-0.9-1.6-1.5-3.4-2-5.2c-1.3-4.7-1.9-9.6-2-14.5c0-4.4,1-6.8,2-7.9C44.7,141.4,45.9,140.9,47,140.9
		L47,140.9z"/>
	<path style="clip-path:url(#SVGID_00000006695334944886085260000003986985671030567593_);fill:#EB5A53;" d="M111.1,103.3
		c-2.8-9.1,0.7-12.1,3.4-12.9s7.3-0.2,10,8.8s3.6,22.8-0.1,24S113.8,112.4,111.1,103.3L111.1,103.3z"/>
	<path style="clip-path:url(#SVGID_00000006695334944886085260000003986985671030567593_);fill:#1A1A1A;" d="M113.9,89.6
		c-2.2,0.7-4.1,2.3-5,4.5c-1.1,2.6-1.2,6.1,0.3,10.9c1.6,5,3.8,9.8,6.6,14.2c1.1,1.9,2.5,3.6,4.1,5.2c1.4,1.3,3.2,2.4,5.2,1.8
		s2.8-2.5,3.3-4.4c0.5-2.2,0.7-4.4,0.6-6.6c-0.2-5.3-1-10.5-2.5-15.5c-1.5-4.8-3.5-7.7-5.8-9.2C118.6,89.2,116.2,88.9,113.9,89.6
		L113.9,89.6z M115,93.3c1.1-0.4,2.4-0.2,3.4,0.5c1.3,0.8,2.9,2.8,4.2,7c1.4,4.7,2.1,9.5,2.3,14.4c0.1,1.9-0.1,3.7-0.4,5.6
		c-0.1,0.5-0.3,1-0.6,1.5c-0.5-0.2-1-0.5-1.4-0.9c-1.3-1.3-2.5-2.8-3.4-4.4c-2.6-4.2-4.6-8.6-6.1-13.3c-1.3-4.3-1-6.8-0.4-8.2
		C112.9,94.5,113.8,93.6,115,93.3z"/>
	<path style="clip-path:url(#SVGID_00000006695334944886085260000003986985671030567593_);fill:#EB5A53;" d="M7,98.8
		c3.6-8.7,8.2-8.9,10.9-7.8s5.8,4.4,2.2,13.2s-11.7,20-15.3,18.5S3.4,107.6,7,98.8z"/>
	<path style="clip-path:url(#SVGID_00000006695334944886085260000003986985671030567593_);fill:#1A1A1A;" d="M18.7,89.2
		c-2.2-0.9-4.6-0.8-6.7,0.3c-2.5,1.3-4.8,3.9-6.7,8.6c-2,4.9-3.3,10-4,15.2c-0.3,2.2-0.3,4.4-0.1,6.6c0.3,1.9,0.9,3.8,2.9,4.7
		s3.8-0.1,5.3-1.3c1.8-1.4,3.3-3,4.7-4.7c3.2-4.2,5.9-8.7,7.9-13.5c1.9-4.6,2.2-8.2,1.3-10.8C22.5,91.9,20.8,90.1,18.7,89.2
		L18.7,89.2z M17.1,92.9c1.1,0.4,2,1.3,2.3,2.5c0.5,1.5,0.5,4-1.2,8.1c-1.9,4.5-4.4,8.7-7.4,12.6c-1.1,1.5-2.4,2.8-3.9,4
		c-0.4,0.3-0.9,0.6-1.5,0.8c-0.3-0.5-0.4-1-0.5-1.6c-0.2-1.9-0.2-3.7,0.1-5.6c0.6-4.8,1.9-9.6,3.7-14.1c1.7-4.1,3.5-5.9,4.9-6.6
		C14.8,92.4,16.1,92.4,17.1,92.9L17.1,92.9z"/>
	<path style="clip-path:url(#SVGID_00000006695334944886085260000003986985671030567593_);fill:#1A1A1A;" d="M64.8,48.3
		C34.3,48.3,9.6,73,9.6,103.5s24.7,55.2,55.2,55.3S120,134,120,103.5c0,0,0,0,0,0C120,73,95.3,48.3,64.8,48.3z M64.8,54.6
		c27,0,48.9,21.9,48.9,48.9s-21.9,48.9-48.9,48.9s-48.9-21.9-48.9-48.9c0-27,21.8-48.9,48.8-48.9C64.8,54.6,64.8,54.6,64.8,54.6z"/>
	<path style="clip-path:url(#SVGID_00000006695334944886085260000003986985671030567593_);fill:#FFFFFF;" d="M12.8,103.5
		c0-28.8,23.3-52.1,52.1-52.1s52.1,23.3,52.1,52.1c0,28.8-23.3,52.1-52.1,52.1c-13.8,0-27.1-5.5-36.8-15.3
		C18.2,130.6,12.8,117.3,12.8,103.5z"/>
	<path style="clip-path:url(#SVGID_00000006695334944886085260000003986985671030567593_);fill:#FFFFFF;" d="M19.4,100.8
		c0-26.6,21.6-48.2,48.2-48.2c26.6,0,48.2,21.6,48.2,48.2s-21.6,48.2-48.2,48.2c-12.8,0-25-5.1-34.1-14.1
		C24.5,125.8,19.4,113.6,19.4,100.8L19.4,100.8z"/>
	<path style="clip-path:url(#SVGID_00000006695334944886085260000003986985671030567593_);fill:#EB5A53;" d="M12.8,103.5
		c-0.4,28.8,22.6,52.4,51.3,52.8c28.8,0.4,52.4-22.6,52.8-51.3c0-0.5,0-1,0-1.4H12.8z"/>
	<path style="clip-path:url(#SVGID_00000006695334944886085260000003986985671030567593_);fill:#EB5A53;" d="M19.5,103.5
		c1.5,26.5,24.3,46.8,50.8,45.3c24.4-1.4,43.9-20.9,45.3-45.3H19.5z"/>
	<path style="clip-path:url(#SVGID_00000006695334944886085260000003986985671030567593_);fill:#1A1A1A;" d="M64.8,50.6
		C35.6,50.6,12,74.3,12,103.5s23.7,52.9,52.9,52.9s52.9-23.7,52.9-52.9l0,0C117.7,74.3,94,50.6,64.8,50.6z M64.8,52.2
		c28.3,0,51.3,23,51.3,51.3s-23,51.3-51.3,51.3s-51.3-23-51.3-51.3C13.5,75.2,36.5,52.2,64.8,52.2C64.8,52.2,64.8,52.2,64.8,52.2z"
		/>
	<path style="clip-path:url(#SVGID_00000006695334944886085260000003986985671030567593_);fill:#1A1A1A;" d="M113.8,128l-0.8-0.1
		l1.4-10.5l0.8,0.1L113.8,128z"/>
	<path style="clip-path:url(#SVGID_00000006695334944886085260000003986985671030567593_);fill:#1A1A1A;" d="M54.7,30.6v5.3
		c5.1,0.3,10,0.4,15.1,0.8c6.5,0.5,10.3,2.3,12.6,4.7c2.1,2.2,3.3,5.2,3.2,8.2c0,5.4-2.9,9.1-8,11.6S65.4,64.5,58,63.3
		c-1.1-0.2-2.2-0.4-3.3-0.6v5.5c0.8,0.2,1.7,0.3,2.5,0.4c8.3,1.3,16.4,0.4,22.8-2.7s11-8.9,11-16.4c0.1-4.5-1.6-8.8-4.7-12
		c-3.4-3.4-8.7-5.7-16-6.2C64.7,30.9,59.8,30.9,54.7,30.6L54.7,30.6z"/>
	<path style="clip-path:url(#SVGID_00000006695334944886085260000003986985671030567593_);fill:#1A1A1A;" d="M35.6,27.4l1.7,4.7
		l0.4,1.2c-4.7-0.6-9.3-1.6-13.9-3l-4.1-1.4l0.6,4.3c2.8,21,19.8,32.6,36.1,35.4V63c-13.1-2.5-26-11-29.8-26.5
		c4.9,1.5,10,2.3,15.1,2.3h3.8L44,34.7c4.1,0.7,8.3,1.1,12.4,1.3v-5.3c-5.4-0.2-10.7-0.9-16-2.1L35.6,27.4z"/>
	<path style="clip-path:url(#SVGID_00000006695334944886085260000003986985671030567593_);fill:#595959;" d="M39.8,31.2l1.9,5.1
		c-8.6,0-18.7-3.5-18.7-3.5C28.3,73,88.3,75.4,88.3,49.6c0-7.3-4.4-14.6-18.2-15.6C59.7,33.2,51,33.9,39.8,31.2L39.8,31.2z"/>
	<path style="clip-path:url(#SVGID_00000006695334944886085260000003986985671030567593_);fill:#797979;" d="M39.8,31.2l1.9,5.1
		c-8.6,0-18.7-3.5-18.7-3.5C37,51,78.1,53.3,85.4,40.7c-2.7-3.5-7.5-6.1-15.4-6.7C59.7,33.2,51,33.9,39.8,31.2z"/>
	<path style="clip-path:url(#SVGID_00000006695334944886085260000003986985671030567593_);fill:#3E3E3E;" d="M23,32.8
		C28.3,73,88.3,75.4,88.3,49.6c0-1.2-0.1-2.4-0.4-3.6C78.3,69.2,30,59,23,32.8z"/>
	<path style="clip-path:url(#SVGID_00000006695334944886085260000003986985671030567593_);fill:#1A1A1A;" d="M54.7,32.6v1.3
		c5,0.3,10,0.4,15.3,0.8c6.8,0.5,11.2,2.5,13.9,5.2c2.5,2.6,3.8,6.1,3.7,9.7c0,6.2-3.5,10.6-9.1,13.4s-13.1,3.6-20.8,2.4
		c-1-0.2-2-0.3-3-0.6v1.4c0.9,0.2,1.9,0.4,2.8,0.5c8,1.2,15.7,0.4,21.6-2.5S89,56.3,89,49.6c0.1-3.9-1.4-7.7-4.2-10.6
		c-3-3-7.7-5.1-14.7-5.6C64.7,33,59.8,33,54.7,32.6L54.7,32.6z"/>
	<path style="clip-path:url(#SVGID_00000006695334944886085260000003986985671030567593_);fill:#1A1A1A;" d="M38.8,30.2l0.4,1.2
		l1.5,4.1c-8.2-0.2-17.5-3.4-17.5-3.4l-1-0.4l0.1,1.1c2.6,20,18.5,30.8,34.1,33.6v-1.3c-14.8-2.7-29.6-12.8-32.6-31.4
		c1.5,0.5,9.8,3.3,17.9,3.2h1L40.8,32c5.1,1.1,10.3,1.8,15.6,2v-1.3c-5.5-0.2-11-0.9-16.4-2.2L38.8,30.2z"/>
	<path style="clip-path:url(#SVGID_00000006695334944886085260000003986985671030567593_);fill:#1A1A1A;" d="M40.8,80.9
		c-1.2,1.5-1.9,3.5-1.9,5.4v4.4c-0.2,4.8,3.6,8.8,8.4,9s8.8-3.6,9-8.4c0-0.2,0-0.4,0-0.6v-3.3L40.8,80.9z"/>
	<path style="clip-path:url(#SVGID_00000006695334944886085260000003986985671030567593_);fill:#FFFFFF;" d="M49.9,85.9
		c-0.7,0-1.5,0.3-2,0.8c-1.1,1.1-1.1,2.9,0,4s2.9,1.1,4,0c1.1-1.1,1.1-2.9,0-4C51.3,86.2,50.6,85.9,49.9,85.9z"/>
	<path style="clip-path:url(#SVGID_00000006695334944886085260000003986985671030567593_);fill:#1A1A1A;" d="M90.4,80.9l-15.5,6.4
		v3.3c0,4.8,3.9,8.7,8.7,8.7c4.8,0,8.7-3.9,8.7-8.7v-4.4C92.3,84.4,91.6,82.5,90.4,80.9z"/>
	<path style="clip-path:url(#SVGID_00000006695334944886085260000003986985671030567593_);fill:#FFFFFF;" d="M85.8,85.9
		c-1.6,0-2.8,1.2-2.8,2.8c0,0.8,0.3,1.5,0.8,2c0.5,0.5,1.3,0.8,2,0.8c1.6,0,2.8-1.3,2.8-2.8C88.6,87.2,87.4,85.9,85.8,85.9z"/>
	<path style="clip-path:url(#SVGID_00000006695334944886085260000003986985671030567593_);fill:#FFFFFF;" d="M52.9,122.8
		c-1.5,0-2.6-1.2-2.7-2.6c0,0,0,0,0,0v-3c0-8.5,6.9-15.3,15.4-15.3c8.5,0,15.3,6.9,15.3,15.3v3c0,1.5-1.2,2.6-2.6,2.7c0,0,0,0,0,0
		H52.9z"/>
	<path style="clip-path:url(#SVGID_00000006695334944886085260000003986985671030567593_);fill:#BADBE9;" d="M68.6,122.8L68.6,122.8
		c0,0,2.6-5,0-9.6c3.2-5.1,0.4-11,0.4-11c7,1.6,12,7.8,12,15v3c0,1.5-1.2,2.6-2.6,2.6c0,0,0,0,0,0L68.6,122.8z"/>
	<path style="clip-path:url(#SVGID_00000006695334944886085260000003986985671030567593_);fill:#1A1A1A;" d="M76.1,122.8L76.1,122.8
		c1.7-2,1.7-5,0-7.1c3.4-3.2,0.2-9.5,0.2-9.5c3,2.9,4.6,6.8,4.6,10.9v3c0,1.5-1.2,2.6-2.6,2.7c0,0,0,0,0,0L76.1,122.8z"/>
	<path style="clip-path:url(#SVGID_00000006695334944886085260000003986985671030567593_);fill:#1A1A1A;" d="M55.1,122.8L55.1,122.8
		c-1.7-2-1.7-5,0-7.1c-3.4-3.2-0.2-9.5-0.2-9.5c-2.9,2.9-4.6,6.8-4.6,10.9v3c0,1.5,1.2,2.6,2.6,2.7c0,0,0,0,0,0L55.1,122.8z"/>
	<path style="clip-path:url(#SVGID_00000006695334944886085260000003986985671030567593_);fill:#1A1A1A;" d="M65.6,101H65v1.7h0.6
		c8,0,14.5,6.5,14.5,14.5c0,0,0,0,0,0v3c0,1-0.8,1.8-1.7,1.8c0,0,0,0-0.1,0H65v1.7h13.3c1.9,0,3.5-1.6,3.5-3.5v-3
		C81.8,108.3,74.5,101,65.6,101z"/>
	<path style="clip-path:url(#SVGID_00000006695334944886085260000003986985671030567593_);fill:#1A1A1A;" d="M65.6,101
		c-8.9,0-16.2,7.2-16.2,16.2v3c0,1.9,1.6,3.5,3.5,3.5h13.3V122H52.9c-1,0-1.8-0.8-1.8-1.7c0,0,0,0,0-0.1v-3c0-8,6.5-14.5,14.5-14.5
		c0,0,0,0,0,0h0.6V101H65.6z"/>
	<path style="clip-path:url(#SVGID_00000006695334944886085260000003986985671030567593_);fill:#1A1A1A;" d="M170.2,144.9
		c13.5-0.3,24.7,10.4,24.9,23.9s-10.4,24.7-23.9,24.9c-0.3,0-0.7,0-1,0h-0.5v-5.9h0.5c10.2,0.2,18.7-7.9,19-18.1
		c0.2-10.2-7.9-18.7-18.1-19c-0.3,0-0.6,0-0.9,0h-0.5v-5.9L170.2,144.9z"/>
	<path style="clip-path:url(#SVGID_00000006695334944886085260000003986985671030567593_);fill:#1A1A1A;" d="M170.2,144.9h0.5v5.9
		h-0.5c-10.2,0-18.5,8.3-18.5,18.5c0,10.2,8.3,18.5,18.5,18.5c0,0,0,0,0,0h0.5v5.9h-0.5c-13.5,0-24.4-10.9-24.4-24.4
		S156.7,144.9,170.2,144.9L170.2,144.9L170.2,144.9z"/>
	<path style="clip-path:url(#SVGID_00000006695334944886085260000003986985671030567593_);fill:#555555;" d="M148.7,169.4
		c0,11.9,9.6,21.5,21.5,21.5s21.5-9.6,21.5-21.5s-9.6-21.5-21.5-21.5c0,0,0,0,0,0C158.3,147.9,148.7,157.5,148.7,169.4z"/>
	<path style="clip-path:url(#SVGID_00000006695334944886085260000003986985671030567593_);fill:#797979;" d="M160.9,164.4
		c0,7.9,6.4,14.3,14.3,14.3c7.9,0,14.3-6.4,14.3-14.3c0-7.9-6.4-14.3-14.3-14.3c-3.8,0-7.4,1.5-10.1,4.2
		C162.4,156.9,160.9,160.6,160.9,164.4z"/>
	<path style="clip-path:url(#SVGID_00000006695334944886085260000003986985671030567593_);fill:#1A1A1A;" d="M170.2,147.1h0.5v1.5
		h-0.5c-11.5,0.3-20.5,9.7-20.3,21.2c0.2,11.1,9.2,20,20.3,20.3h0.5v1.5h-0.5c-12.3-0.3-22-10.4-21.8-22.7
		C148.7,157,158.3,147.4,170.2,147.1z"/>
	<path style="clip-path:url(#SVGID_00000006695334944886085260000003986985671030567593_);fill:#FFFFFF;" d="M172.7,160.7
		c0,3.4,2.7,6.1,6.1,6.1s6.1-2.7,6.1-6.1c0-3.4-2.7-6.1-6.1-6.1C175.5,154.6,172.8,157.3,172.7,160.7z"/>
	<path style="clip-path:url(#SVGID_00000006695334944886085260000003986985671030567593_);fill:#1A1A1A;" d="M170.2,147.1
		c12.3,0.3,22,10.4,21.8,22.7c-0.3,11.9-9.8,21.5-21.8,21.8h-0.5v-1.5h0.5c11.5,0.3,20.9-8.8,21.2-20.3c0.3-11.5-8.8-20.9-20.3-21.2
		c-0.3,0-0.6,0-0.9,0h-0.5v-1.5H170.2z"/>
	<path style="clip-path:url(#SVGID_00000006695334944886085260000003986985671030567593_);fill:#1A1A1A;" d="M91.7,162.6
		c1.7,0,3.2,1.4,3.2,3.2v7.4c0,1.7-1.4,3.2-3.2,3.2h-9.5v-1.5h9.5c0.9,0,1.7-0.7,1.7-1.6c0,0,0,0,0,0v-7.4c0-0.9-0.7-1.7-1.6-1.7
		c0,0,0,0-0.1,0h-9.5v-1.5L91.7,162.6z"/>
	<path style="clip-path:url(#SVGID_00000006695334944886085260000003986985671030567593_);fill:#1A1A1A;" d="M136.4,163
		c3.5-0.1,6.5,2.6,6.7,6.2s-2.6,6.5-6.2,6.7c-0.2,0-0.3,0-0.5,0h-2.9v-4.4h2.9c1.1,0.2,2.1-0.6,2.3-1.7c0.2-1.1-0.6-2.1-1.7-2.3
		c-0.2,0-0.4,0-0.6,0h-2.9V163H136.4z"/>
	<path style="clip-path:url(#SVGID_00000006695334944886085260000003986985671030567593_);fill:#1A1A1A;" d="M122.9,163
		c3.5-0.1,6.5,2.6,6.7,6.2s-2.6,6.5-6.2,6.7c-0.2,0-0.3,0-0.5,0H120v-4.4h2.9c1.1,0.2,2.1-0.6,2.3-1.7c0.2-1.1-0.6-2.1-1.7-2.3
		c-0.2,0-0.4,0-0.6,0H120V163H122.9z"/>
	<path style="clip-path:url(#SVGID_00000006695334944886085260000003986985671030567593_);fill:#1A1A1A;" d="M109.4,163
		c3.5-0.1,6.5,2.6,6.7,6.2c0.1,3.5-2.6,6.5-6.2,6.7c-0.2,0-0.3,0-0.5,0h-2.9v-4.4h2.9c1.1,0.2,2.1-0.6,2.3-1.7
		c0.2-1.1-0.6-2.1-1.7-2.3c-0.2,0-0.4,0-0.6,0h-2.9V163H109.4z"/>
	<g style="clip-path:url(#SVGID_00000006695334944886085260000003986985671030567593_);enable-background:new    ;">
		<text transform="matrix(1 0 0 1 11.3 260.42)" class="st12 st13 st14">okupowani</text>
	</g>
	<g style="clip-path:url(#SVGID_00000006695334944886085260000003986985671030567593_);enable-background:new    ;">
		<text transform="matrix(1 0 0 1 50.58 227.77)" class="st12 st13 st14">zostali</text>
	</g>
	<path style="clip-path:url(#SVGID_00000006695334944886085260000003986985671030567593_);fill:#1A1A1A;" d="M150.6,0h29h16v16
		c0,7,0,14,0,21c-10.2,12.4-28.6,14.2-41,4S140.4,12.4,150.6,0z"/>
	<g style="clip-path:url(#SVGID_00000006695334944886085260000003986985671030567593_);enable-background:new    ;">
		<text transform="matrix(1 0 0 1 161.82 31.65)" class="st15 st13 st16">02</text>
	</g>
</g>
</svg>
