<svg id="Слой_1" data-name="Слой 1" xmlns="http://www.w3.org/2000/svg" viewBox="0 0 195.59 280.63"><defs><style>.cls-1{fill:#1a1a1a;}.cls-2{fill:#797979;}.cls-3{fill:#555;}.cls-14,.cls-4{fill:#fff;}.cls-5{fill:#6c6c6c;}.cls-6{fill:#ed6b49;}.cls-7{fill:#e74025;}.cls-12,.cls-13,.cls-8{fill:#eb5a53;}.cls-9{fill:#595959;}.cls-10{fill:#3e3e3e;}.cls-11{fill:#badbe9;}.cls-12{font-size:38.34px;}.cls-12,.cls-13,.cls-14{font-family:Impact;}.cls-13{font-size:37px;}.cls-14{font-size:20px;}</style></defs><path class="cls-1" d="M83.31,160.39v5.91h-9v6.28h9v5.92H73.82a5.43,5.43,0,0,1-5.37-5.38v-7.35a5.43,5.43,0,0,1,5.37-5.38Zm0,0"/><rect class="cls-1" x="94.04" y="167.16" width="6.26" height="4.43"/><rect class="cls-1" x="140.75" y="167.16" width="6.26" height="4.43"/><path class="cls-1" d="M91.74,160.39a5.43,5.43,0,0,1,5.38,5.38v7.35a5.43,5.43,0,0,1-5.38,5.38H82.26v-5.92h8.95V166.3H82.26v-5.91Zm0,0"/><path class="cls-2" d="M94.17,173.12v-7.35a2.42,2.42,0,0,0-2.43-2.42H73.82a2.42,2.42,0,0,0-2.42,2.42v7.35a2.42,2.42,0,0,0,2.42,2.42H91.74a2.42,2.42,0,0,0,2.43-2.42Zm0,0"/><path class="cls-3" d="M78.67,163.35v12.19H73.82a2.42,2.42,0,0,1-2.42-2.42v-7.35a2.42,2.42,0,0,1,2.42-2.42Zm0,0"/><rect class="cls-4" x="86.08" y="163.35" width="4.31" height="12.19"/><path class="cls-1" d="M83.31,162.61v1.48H73.82a1.66,1.66,0,0,0-1.68,1.68v7.35a1.66,1.66,0,0,0,1.68,1.68h9.49v1.48H73.82a3.17,3.17,0,0,1-3.16-3.16v-7.35a3.17,3.17,0,0,1,3.16-3.16Zm0,0"/><path class="cls-1" d="M107.56,163v4.44h-2.89a2,2,0,1,0,0,3.95h2.89v4.44h-2.89a6.42,6.42,0,1,1,0-12.83Zm0,0"/><path class="cls-1" d="M121.05,163v4.44h-2.9a2,2,0,1,0,0,3.95h2.9v4.44h-2.9a6.42,6.42,0,1,1,0-12.83Zm0,0"/><path class="cls-1" d="M134.54,163v4.44h-2.9a2,2,0,1,0,0,3.95h2.9v4.44h-2.9a6.42,6.42,0,1,1,0-12.83Zm0,0"/><path class="cls-1" d="M90.81,106.19c0,.31,0,.62,0,.93a34.64,34.64,0,0,0,59.87,23.81,23.54,23.54,0,0,0,2.9.29,24.14,24.14,0,0,0,24.09-24.1c0-.31,0-.62,0-.93h-5.9c0,.31,0,.62,0,.93a18.14,18.14,0,0,1-18.18,18.19,18.49,18.49,0,0,1-3.48-.34l-1.68-.34-1.12,1.31a28.79,28.79,0,0,1-50.59-18.82c0-.31,0-.62,0-.93Zm0,0"/><path class="cls-1" d="M125.5,72.41a34.75,34.75,0,0,0-34.7,34.71c0,.31,0,.62,0,.94h5.91c0-.32,0-.63,0-.94a28.75,28.75,0,0,1,28.79-28.8h0a28.78,28.78,0,0,1,21.77,10l1.12,1.31,1.7-.34a18.43,18.43,0,0,1,3.48-.36,18.14,18.14,0,0,1,18.18,18.19c0,.31,0,.63,0,.93h5.9c0-.31,0-.62,0-.93A24.15,24.15,0,0,0,153.56,83h0a25.44,25.44,0,0,0-2.9.3,34.67,34.67,0,0,0-25.14-10.91Zm0,0"/><path class="cls-5" d="M125.51,75.36a31.76,31.76,0,1,0,24,52.51,21.15,21.15,0,1,0,0-41.48,31.78,31.78,0,0,0-24-11Zm0,0"/><path class="cls-6" d="M97.38,117.22a2.39,2.39,0,0,0-1.69.7,31.82,31.82,0,0,0,6.76,11H116a2.39,2.39,0,0,0,2.4-2.4v-6.88a2.39,2.39,0,0,0-2.4-2.4Zm0,0"/><path class="cls-6" d="M124.77,117.22a2.39,2.39,0,0,0-2.4,2.4v6.88a2.39,2.39,0,0,0,2.4,2.4h18.56a2.39,2.39,0,0,0,2.4-2.4v-6.88a2.39,2.39,0,0,0-2.4-2.4Zm0,0"/><path class="cls-6" d="M152.15,117.22a2.39,2.39,0,0,0-2.4,2.4v6.88a2.41,2.41,0,0,0,.5,1.47,20.58,20.58,0,0,0,3.32.29,21.14,21.14,0,0,0,18.36-10.71,2.37,2.37,0,0,0-1.22-.33Zm0,0"/><path class="cls-7" d="M118.35,123.58A2.39,2.39,0,0,1,116,126H100a32.63,32.63,0,0,0,2.45,2.92H116a2.39,2.39,0,0,0,2.4-2.4Zm0,0"/><path class="cls-7" d="M122.37,123.58v2.92a2.39,2.39,0,0,0,2.4,2.4h18.56a2.39,2.39,0,0,0,2.4-2.4v-2.92a2.39,2.39,0,0,1-2.4,2.4H124.77a2.39,2.39,0,0,1-2.4-2.4Zm0,0"/><path class="cls-7" d="M149.75,123.58v2.92a2.41,2.41,0,0,0,.5,1.47,20.58,20.58,0,0,0,3.32.29,21.05,21.05,0,0,0,9.51-2.28H152.15a2.39,2.39,0,0,1-2.4-2.4Zm0,0"/><path class="cls-1" d="M97.38,116.48a3.14,3.14,0,0,0-2.22.92l1,1a1.64,1.64,0,0,1,1.17-.48H116a1.64,1.64,0,0,1,1.66,1.66v6.88a1.64,1.64,0,0,1-1.66,1.66h-13.5v1.48H116a3.15,3.15,0,0,0,3.14-3.14v-6.88a3.15,3.15,0,0,0-3.14-3.14Zm0,0"/><path class="cls-1" d="M121.63,122.13v4.37a3.15,3.15,0,0,0,3.14,3.14h18.56a3.15,3.15,0,0,0,3.14-3.14v-4.37H145v4.37a1.64,1.64,0,0,1-1.66,1.66H124.77a1.65,1.65,0,0,1-1.67-1.66v-4.37Zm0,0"/><path class="cls-1" d="M152.15,116.48a3.15,3.15,0,0,0-3.14,3.14v6.88a3.13,3.13,0,0,0,.68,2l1.16-.92a1.62,1.62,0,0,1-.36-1v-6.88a1.64,1.64,0,0,1,1.66-1.66h18.56a1.61,1.61,0,0,1,.85.23l.75-1.27a3.12,3.12,0,0,0-1.6-.44Zm0,0"/><path class="cls-6" d="M111.07,133.16a2.39,2.39,0,0,0-2,1.09,31.74,31.74,0,0,0,16.45,4.63,32.62,32.62,0,0,0,6.53-.69v-2.63a2.39,2.39,0,0,0-2.4-2.4Zm0,0"/><path class="cls-6" d="M138.46,133.16a2.39,2.39,0,0,0-2.4,2.4V137a32,32,0,0,0,7.59-3.87Zm0,0"/><path class="cls-1" d="M111.07,132.42a3.14,3.14,0,0,0-2.63,1.42l1.24.81a1.66,1.66,0,0,1,1.39-.75h18.57a1.64,1.64,0,0,1,1.66,1.66v2.63h1.48v-2.63a3.15,3.15,0,0,0-3.14-3.14Zm0,0"/><path class="cls-1" d="M138.46,132.42a3.15,3.15,0,0,0-3.14,3.14V137h1.48v-1.47a1.63,1.63,0,0,1,1.66-1.66h5.19v-1.48Zm0,0"/><path class="cls-6" d="M111.07,101.28a2.39,2.39,0,0,0-2.4,2.4v6.88a2.39,2.39,0,0,0,2.4,2.4h18.57a2.39,2.39,0,0,0,2.4-2.4v-6.88a2.39,2.39,0,0,0-2.4-2.4Zm0,0"/><path class="cls-6" d="M138.46,101.28a2.39,2.39,0,0,0-2.4,2.4v6.88a2.39,2.39,0,0,0,2.4,2.4H157a2.39,2.39,0,0,0,2.4-2.4v-6.88a2.39,2.39,0,0,0-2.4-2.4Zm0,0"/><path class="cls-6" d="M165.84,101.28a2.39,2.39,0,0,0-2.4,2.4v6.88a2.39,2.39,0,0,0,2.4,2.4h8a21.74,21.74,0,0,0,.83-5.84,21.36,21.36,0,0,0-.84-5.84Zm0,0"/><path class="cls-6" d="M94.31,101.28a30.73,30.73,0,0,0,0,11.68h8a2.39,2.39,0,0,0,2.4-2.4v-6.88a2.39,2.39,0,0,0-2.4-2.4Zm0,0"/><path class="cls-7" d="M104.66,107.64a2.39,2.39,0,0,1-2.4,2.4H93.9c.09,1,.23,1.95.41,2.92h8a2.39,2.39,0,0,0,2.4-2.4Zm0,0"/><path class="cls-7" d="M108.67,107.64v2.92a2.4,2.4,0,0,0,2.4,2.4h18.57a2.39,2.39,0,0,0,2.4-2.4v-2.92a2.39,2.39,0,0,1-2.4,2.4H111.07a2.4,2.4,0,0,1-2.4-2.4Zm0,0"/><path class="cls-7" d="M136.06,107.64v2.92a2.39,2.39,0,0,0,2.4,2.4H157a2.39,2.39,0,0,0,2.4-2.4v-2.92A2.39,2.39,0,0,1,157,110H138.46a2.39,2.39,0,0,1-2.4-2.4Zm0,0"/><path class="cls-7" d="M163.44,107.64v2.92a2.39,2.39,0,0,0,2.4,2.4h8a19.42,19.42,0,0,0,.61-2.92h-8.65a2.39,2.39,0,0,1-2.4-2.4Zm0,0"/><path class="cls-1" d="M107.94,106.19v4.37a3.14,3.14,0,0,0,3.13,3.14h18.57a3.15,3.15,0,0,0,3.14-3.14v-4.37H131.3v4.37a1.64,1.64,0,0,1-1.66,1.66H111.07a1.64,1.64,0,0,1-1.66-1.66v-4.37Zm0,0"/><path class="cls-1" d="M135.32,106.19v4.37a3.15,3.15,0,0,0,3.14,3.14H157a3.15,3.15,0,0,0,3.14-3.14v-4.37h-1.48v4.37a1.64,1.64,0,0,1-1.66,1.66H138.46a1.63,1.63,0,0,1-1.66-1.66v-4.37Zm0,0"/><path class="cls-1" d="M165.84,100.54a3.15,3.15,0,0,0-3.14,3.14v6.88a3.15,3.15,0,0,0,3.14,3.14h8v-1.48h-8a1.64,1.64,0,0,1-1.66-1.66v-6.88a1.64,1.64,0,0,1,1.66-1.66h8v-1.48Zm0,0"/><path class="cls-1" d="M94.31,100.54V102h8a1.64,1.64,0,0,1,1.66,1.66v6.88a1.64,1.64,0,0,1-1.66,1.66h-8v1.48h8a3.14,3.14,0,0,0,3.13-3.14v-6.88a3.14,3.14,0,0,0-3.13-3.14Zm0,0"/><path class="cls-6" d="M102.42,85.34a31.73,31.73,0,0,0-6.74,11,2.36,2.36,0,0,0,1.7.71H116a2.39,2.39,0,0,0,2.4-2.4V87.74a2.39,2.39,0,0,0-2.4-2.4Zm0,0"/><path class="cls-6" d="M124.77,85.34a2.39,2.39,0,0,0-2.4,2.4v6.88a2.39,2.39,0,0,0,2.4,2.4h18.56a2.39,2.39,0,0,0,2.4-2.4V87.74a2.39,2.39,0,0,0-2.4-2.4Zm0,0"/><path class="cls-6" d="M153.57,86a20.72,20.72,0,0,0-3.33.3,2.38,2.38,0,0,0-.49,1.46v6.88a2.39,2.39,0,0,0,2.4,2.4h18.56a2.34,2.34,0,0,0,1.23-.34A21.14,21.14,0,0,0,153.57,86Zm0,0"/><path class="cls-7" d="M118.35,91.7a2.39,2.39,0,0,1-2.4,2.4H97.38a2.25,2.25,0,0,1-.74-.12c-.35.77-.67,1.54-1,2.33a2.36,2.36,0,0,0,1.7.71H116a2.39,2.39,0,0,0,2.4-2.4Zm0,0"/><path class="cls-7" d="M122.37,91.7v2.92a2.39,2.39,0,0,0,2.4,2.4h18.56a2.39,2.39,0,0,0,2.4-2.4V91.7a2.39,2.39,0,0,1-2.4,2.4H124.77a2.39,2.39,0,0,1-2.4-2.4Zm0,0"/><path class="cls-7" d="M149.75,91.7v2.92a2.39,2.39,0,0,0,2.4,2.4h18.56a2.34,2.34,0,0,0,1.23-.34,21.19,21.19,0,0,0-1.74-2.58h-18a2.39,2.39,0,0,1-2.4-2.4Zm0,0"/><path class="cls-1" d="M102.42,84.6v1.48H116a1.64,1.64,0,0,1,1.66,1.66v6.88A1.65,1.65,0,0,1,116,96.29H97.38a1.62,1.62,0,0,1-1.18-.5l-1,1a3.11,3.11,0,0,0,2.23.93H116a3.15,3.15,0,0,0,3.14-3.14V87.74A3.16,3.16,0,0,0,116,84.6Zm0,0"/><path class="cls-1" d="M121.63,90.25v4.37a3.15,3.15,0,0,0,3.14,3.14h18.56a3.15,3.15,0,0,0,3.14-3.14V90.25H145v4.37a1.65,1.65,0,0,1-1.66,1.67H124.77a1.65,1.65,0,0,1-1.67-1.67V90.25Zm0,0"/><path class="cls-1" d="M149.69,85.79a3.12,3.12,0,0,0-.68,1.95v6.88a3.15,3.15,0,0,0,3.14,3.14h18.56a3.13,3.13,0,0,0,1.61-.44l-.76-1.27a1.6,1.6,0,0,1-.85.24H152.15a1.64,1.64,0,0,1-1.66-1.67V87.74a1.66,1.66,0,0,1,.35-1Zm0,0"/><path class="cls-6" d="M125.51,75.36A31.84,31.84,0,0,0,109.06,80a2.42,2.42,0,0,0,2,1.09h18.57a2.4,2.4,0,0,0,2.4-2.41V76.09a32,32,0,0,0-6.53-.73Zm0,0"/><path class="cls-6" d="M136.06,77.21v1.47a2.4,2.4,0,0,0,2.4,2.41h5.11a31.47,31.47,0,0,0-7.51-3.88Zm0,0"/><path class="cls-7" d="M132,76.09a2.38,2.38,0,0,1-2.37,2.07h-17.1A32.08,32.08,0,0,0,109.06,80a2.42,2.42,0,0,0,2,1.09h18.57a2.4,2.4,0,0,0,2.4-2.41V76.09Zm0,0"/><path class="cls-7" d="M136.06,77.21v1.47a2.4,2.4,0,0,0,2.4,2.41h5.11a31.08,31.08,0,0,0-5.18-2.93,2.39,2.39,0,0,1-1.64-.72l-.69-.23Zm0,0"/><path class="cls-1" d="M131.3,76.09v2.6a1.64,1.64,0,0,1-1.66,1.66H111.07a1.66,1.66,0,0,1-1.39-.75l-1.23.81a3.14,3.14,0,0,0,2.62,1.41h18.57a3.14,3.14,0,0,0,3.14-3.13v-2.6Zm0,0"/><path class="cls-1" d="M135.32,77.21v1.48a3.14,3.14,0,0,0,3.14,3.13h5.11V80.35h-5.11a1.64,1.64,0,0,1-1.66-1.66V77.21Zm0,0"/><path class="cls-1" d="M93,106.19c0,.31,0,.62,0,.93a32.46,32.46,0,0,0,56.81,21.51,21.47,21.47,0,0,0,3.75.37,21.89,21.89,0,0,0,21.88-21.88c0-.31,0-.62,0-.93H174c0,.31,0,.62,0,.93a20.34,20.34,0,0,1-24.3,20l-.42-.08-.28.32a31,31,0,0,1-54.49-20.26c0-.31,0-.62,0-.93Zm0,0"/><path class="cls-1" d="M125.51,74.62A32.51,32.51,0,0,0,93,107.12c0,.31,0,.62,0,.93h1.48c0-.31,0-.62,0-.93A31,31,0,0,1,149,86.87l.28.33.42-.08a19.83,19.83,0,0,1,3.92-.4,20.39,20.39,0,0,1,20.4,20.4c0,.31,0,.63,0,.93h1.47c0-.3,0-.62,0-.93a21.89,21.89,0,0,0-21.88-21.88,22.83,22.83,0,0,0-3.77.38,32.51,32.51,0,0,0-24.29-11Zm0,0"/><path class="cls-1" d="M111.07,100.54a3.14,3.14,0,0,0-3.13,3.14v4.38h1.47v-4.38a1.64,1.64,0,0,1,1.66-1.66h18.57a1.64,1.64,0,0,1,1.66,1.66v4.38h1.48v-4.38a3.15,3.15,0,0,0-3.14-3.14Zm0,0"/><path class="cls-1" d="M138.46,100.54a3.15,3.15,0,0,0-3.14,3.14v4.37h1.48v-4.37a1.64,1.64,0,0,1,1.66-1.66H157a1.64,1.64,0,0,1,1.66,1.66v4.37h1.48v-4.37a3.15,3.15,0,0,0-3.14-3.14Zm0,0"/><path class="cls-1" d="M124.77,116.48a3.15,3.15,0,0,0-3.14,3.14V124h1.47v-4.37a1.65,1.65,0,0,1,1.67-1.66h18.56a1.64,1.64,0,0,1,1.66,1.66V124h1.48v-4.37a3.15,3.15,0,0,0-3.14-3.14Zm0,0"/><path class="cls-1" d="M124.77,84.6a3.15,3.15,0,0,0-3.14,3.14v4.38h1.47V87.74a1.65,1.65,0,0,1,1.67-1.66h18.56A1.64,1.64,0,0,1,145,87.74v4.38h1.48V87.74a3.15,3.15,0,0,0-3.14-3.14Zm0,0"/><path class="cls-8" d="M75.6,150.32c0-9.46,4.17-11.35,7.05-11.35s7,1.89,7,11.35-3.16,22.93-7,22.93-7.05-13.46-7.05-22.93Zm0,0"/><path class="cls-1" d="M82.65,137a8,8,0,0,0-6.11,2.83c-1.81,2.13-2.91,5.47-2.91,10.49a60.88,60.88,0,0,0,2.14,15.55A25.42,25.42,0,0,0,78.22,172c1,1.66,2.32,3.2,4.43,3.2s3.44-1.54,4.43-3.2a25.83,25.83,0,0,0,2.45-6.14,61.32,61.32,0,0,0,2.14-15.55c0-5-1.1-8.36-2.91-10.49A8,8,0,0,0,82.65,137Zm0,3.94a3.76,3.76,0,0,1,3.1,1.43c1,1.17,2,3.51,2,7.95a57.91,57.91,0,0,1-2,14.48,22.62,22.62,0,0,1-2,5.19,4,4,0,0,1-1,1.25A4,4,0,0,1,81.59,170a23.13,23.13,0,0,1-2-5.19,57.91,57.91,0,0,1-2-14.48c0-4.44,1-6.78,2-7.95a3.79,3.79,0,0,1,3.11-1.43Zm0,0"/><path class="cls-8" d="M40,150.32c0-9.46,4.17-11.35,7-11.35s7,1.89,7,11.35-3.15,22.93-7,22.93-7-13.46-7-22.93Zm0,0"/><path class="cls-1" d="M47,137a8,8,0,0,0-6.11,2.83C39.08,142,38,145.3,38,150.32a61.32,61.32,0,0,0,2.14,15.55A25.83,25.83,0,0,0,42.57,172c1,1.66,2.32,3.2,4.43,3.2s3.44-1.54,4.43-3.2a25.42,25.42,0,0,0,2.45-6.14A60.88,60.88,0,0,0,56,150.32c0-5-1.1-8.36-2.91-10.49A8,8,0,0,0,47,137Zm0,3.94a3.79,3.79,0,0,1,3.11,1.43c1,1.17,2,3.51,2,7.95a57.91,57.91,0,0,1-2,14.48,23.13,23.13,0,0,1-2,5.19A4,4,0,0,1,47,171.24,4,4,0,0,1,46,170a22.62,22.62,0,0,1-2-5.19,57.91,57.91,0,0,1-2-14.48c0-4.44,1-6.78,2-7.95a3.76,3.76,0,0,1,3.1-1.43Zm0,0"/><path class="cls-8" d="M111.05,103.33c-2.75-9.06.7-12.07,3.45-12.91s7.3-.23,10,8.83,3.62,22.85-.1,24-10.65-10.84-13.39-19.9Zm0,0"/><path class="cls-1" d="M113.9,89.58a8,8,0,0,0-5,4.48c-1.11,2.56-1.2,6.08.26,10.89a60.55,60.55,0,0,0,6.55,14.25,25.2,25.2,0,0,0,4.12,5.17c1.43,1.3,3.15,2.4,5.17,1.79s2.84-2.48,3.31-4.36a25.52,25.52,0,0,0,.57-6.58,61.75,61.75,0,0,0-2.46-15.5c-1.46-4.8-3.48-7.68-5.83-9.2a8,8,0,0,0-6.66-.94ZM115,93.35a3.78,3.78,0,0,1,3.38.47c1.3.84,2.92,2.79,4.2,7a57.94,57.94,0,0,1,2.29,14.44,22.48,22.48,0,0,1-.45,5.55,4,4,0,0,1-.64,1.5,3.88,3.88,0,0,1-1.38-.89,22.78,22.78,0,0,1-3.45-4.37,58.31,58.31,0,0,1-6.1-13.28c-1.29-4.26-1-6.78-.41-8.19A3.79,3.79,0,0,1,115,93.35Zm0,0"/><path class="cls-8" d="M7,98.85c3.63-8.74,8.2-8.89,10.86-7.79s5.79,4.44,2.17,13.19-11.69,20-15.28,18.48S3.42,107.6,7,98.85Zm0,0"/><path class="cls-1" d="M18.66,89.24a8,8,0,0,0-6.73.27c-2.48,1.28-4.78,3.95-6.7,8.59a60.91,60.91,0,0,0-4,15.18,25.41,25.41,0,0,0-.08,6.61c.28,1.91.92,3.85,2.86,4.66s3.77-.12,5.33-1.27A25.48,25.48,0,0,0,14,118.54,60.8,60.8,0,0,0,21.89,105c1.92-4.64,2.18-8.15,1.33-10.81a8,8,0,0,0-4.56-5Zm-1.51,3.64a3.76,3.76,0,0,1,2.32,2.51c.47,1.47.49,4-1.22,8.11a57.54,57.54,0,0,1-7.38,12.61,22.72,22.72,0,0,1-3.86,4,4,4,0,0,1-1.46.75,4.27,4.27,0,0,1-.49-1.56,22.54,22.54,0,0,1,.1-5.57,58.64,58.64,0,0,1,3.7-14.13c1.7-4.11,3.5-5.89,4.87-6.6a3.81,3.81,0,0,1,3.42-.13Zm0,0"/><path class="cls-1" d="M64.82,48.28A55.22,55.22,0,1,0,120,103.5,55.27,55.27,0,0,0,64.82,48.28Zm0,6.3A48.92,48.92,0,1,1,15.9,103.5,48.87,48.87,0,0,1,64.82,54.58Zm0,0"/><path class="cls-8" d="M12.76,103.5A52.07,52.07,0,1,1,28,140.32,52.06,52.06,0,0,1,12.76,103.5Zm0,0"/><path class="cls-8" d="M19.37,100.79a48.17,48.17,0,1,1,14.11,34.05,48.17,48.17,0,0,1-14.11-34Zm0,0"/><path class="cls-4" d="M12.76,103.5a52.07,52.07,0,1,0,104.13,0Zm104.13,0"/><path class="cls-4" d="M19.51,103.5a48.13,48.13,0,0,0,96.1,0Zm96.1,0"/><path class="cls-1" d="M64.82,50.64a52.86,52.86,0,1,0,52.86,52.86A52.87,52.87,0,0,0,64.82,50.64Zm0,1.58A51.28,51.28,0,1,1,13.54,103.5,51.27,51.27,0,0,1,64.82,52.22Zm0,0"/><path class="cls-1" d="M113.85,128l-.78-.1,1.39-10.49.78.1Zm1.39-10.49"/><path class="cls-1" d="M54.73,30.6v5.28c5.07.33,10,.39,15.13.78,6.47.47,10.32,2.35,12.6,4.65a11.21,11.21,0,0,1,3.16,8.25c0,5.44-2.9,9.09-8,11.56S65.41,64.46,58,63.33c-1.1-.17-2.2-.39-3.3-.64v5.46q1.25.25,2.49.45C65.5,69.87,73.64,69,80,65.92s11-8.86,11-16.36a16.81,16.81,0,0,0-4.71-12c-3.39-3.41-8.65-5.67-16-6.21-5.56-.41-10.51-.44-15.52-.74Zm0,0"/><path class="cls-1" d="M35.57,27.4l1.74,4.7.43,1.15a78.37,78.37,0,0,1-13.87-3l-4.1-1.43.57,4.3C23.11,54.17,40.1,65.68,56.41,68.47V63c-13.07-2.5-25.95-11-29.84-26.46a53.7,53.7,0,0,0,15.14,2.33l3.81,0L44,34.65A104,104,0,0,0,56.41,36V30.69a82.18,82.18,0,0,1-16-2.11Zm0,0"/><path class="cls-9" d="M39.82,31.17l1.88,5.08c-8.62,0-18.72-3.5-18.72-3.5C28.29,73,88.29,75.45,88.29,49.56,88.29,42.27,83.87,35,70.06,34c-10.39-.76-19.05-.11-30.24-2.82Zm0,0"/><path class="cls-2" d="M39.82,31.17l1.88,5.08c-8.62,0-18.72-3.5-18.72-3.5C37,51,78.14,53.28,85.43,40.66c-2.69-3.48-7.51-6.09-15.37-6.67-10.39-.76-19.05-.11-30.24-2.82Zm0,0"/><path class="cls-10" d="M23,32.75C28.29,73,88.29,75.45,88.29,49.56A16.19,16.19,0,0,0,87.91,46C78.31,69.19,30,59,23,32.75Zm0,0"/><path class="cls-1" d="M54.73,32.61v1.3c5.05.32,10,.36,15.28.75,6.79.5,11.18,2.52,13.87,5.24a13.31,13.31,0,0,1,3.74,9.66c0,6.22-3.54,10.65-9.08,13.36S65.45,66.49,57.73,65.3c-1-.15-2-.34-3-.56V66.1c.93.21,1.86.38,2.79.52,7.95,1.22,15.73.36,21.6-2.5S89,56.29,89,49.56A14.69,14.69,0,0,0,84.83,39c-3-3-7.71-5.11-14.73-5.63-5.42-.4-10.34-.42-15.37-.72Zm0,0"/><path class="cls-1" d="M38.75,30.23l.44,1.17,1.52,4.1c-8.22-.21-17.5-3.38-17.5-3.38l-1-.36.14,1.08c2.63,20,18.55,30.83,34.09,33.59V65.08c-14.75-2.7-29.64-12.81-32.58-31.39,1.52.51,9.83,3.27,17.87,3.22h.95L40.85,32a90.6,90.6,0,0,0,15.56,2V32.7A84.29,84.29,0,0,1,40,30.52Zm0,0"/><path class="cls-1" d="M40.82,80.91a8.7,8.7,0,0,0-1.89,5.42v4.36a8.71,8.71,0,1,0,17.41,0V87.35Zm0,0"/><path class="cls-4" d="M49.89,85.93a2.78,2.78,0,0,0-2,.82,2.81,2.81,0,1,0,2-.82Zm0,0"/><path class="cls-1" d="M90.38,80.91,74.85,87.35v3.34a8.71,8.71,0,0,0,17.42,0V86.33a8.7,8.7,0,0,0-1.89-5.42Zm0,0"/><path class="cls-4" d="M85.82,85.93a2.81,2.81,0,0,0-2,4.8,2.84,2.84,0,0,0,2,.82,2.81,2.81,0,1,0,0-5.62Zm0,0"/><path class="cls-4" d="M52.9,122.8a2.64,2.64,0,0,1-2.65-2.65v-3a15.35,15.35,0,0,1,30.7,0v3a2.64,2.64,0,0,1-2.65,2.65Zm0,0"/><path class="cls-11" d="M68.6,122.8h0s2.6-5,0-9.62c3.25-5.14.39-11,.39-11a15.35,15.35,0,0,1,12,15v3a2.64,2.64,0,0,1-2.64,2.65Zm0,0"/><path class="cls-1" d="M76.13,122.8h0a5.49,5.49,0,0,0,0-7.08c3.44-3.19.24-9.49.24-9.49A15.29,15.29,0,0,1,81,117.16v3a2.64,2.64,0,0,1-2.65,2.65Zm0,0"/><path class="cls-1" d="M55.07,122.8h0a5.49,5.49,0,0,1,0-7.08c-3.44-3.19-.24-9.49-.24-9.49a15.29,15.29,0,0,0-4.58,10.94v3a2.64,2.64,0,0,0,2.65,2.65Zm0,0"/><path class="cls-1" d="M65.6,101H65v1.69h.6a14.48,14.48,0,0,1,14.5,14.5v3A1.78,1.78,0,0,1,78.3,122H65v1.69H78.3a3.51,3.51,0,0,0,3.49-3.5v-3A16.2,16.2,0,0,0,65.6,101Zm0,0"/><path class="cls-1" d="M65.6,101a16.21,16.21,0,0,0-16.2,16.19v3a3.52,3.52,0,0,0,3.5,3.5H66.2V122H52.9a1.78,1.78,0,0,1-1.81-1.81v-3a14.49,14.49,0,0,1,14.51-14.5h.6V101Zm0,0"/><path class="cls-1" d="M170.16,144.94a24.44,24.44,0,1,1,0,48.87h-.52V187.9h.52a18.53,18.53,0,1,0,0-37.05h-.52v-5.92Zm0,0"/><path class="cls-1" d="M170.16,144.94h.53v5.91h-.53a18.53,18.53,0,1,0,0,37.06h.53v5.92h-.53a24.44,24.44,0,1,1,0-48.88Zm0,0"/><path class="cls-3" d="M148.68,169.37a21.49,21.49,0,1,0,21.48-21.48,21.49,21.49,0,0,0-21.48,21.48Zm0,0"/><path class="cls-2" d="M160.91,164.35a14.27,14.27,0,1,0,4.18-10.11,14.29,14.29,0,0,0-4.18,10.11Zm0,0"/><path class="cls-1" d="M170.16,147.15h.53v1.48h-.53a20.75,20.75,0,0,0,0,41.49h.53v1.48h-.53a22.23,22.23,0,0,1,0-44.45Zm0,0"/><path class="cls-4" d="M172.74,160.69a6.1,6.1,0,1,0,6.11-6.11,6.14,6.14,0,0,0-6.11,6.11Zm0,0"/><path class="cls-1" d="M170.16,147.15a22.23,22.23,0,0,1,0,44.45h-.52v-1.48h.52a20.75,20.75,0,1,0,0-41.49h-.52v-1.48Zm0,0"/><path class="cls-1" d="M91.74,162.61a3.18,3.18,0,0,1,3.17,3.16v7.35a3.18,3.18,0,0,1-3.17,3.16H82.26V174.8h9.48a1.67,1.67,0,0,0,1.69-1.68v-7.35a1.66,1.66,0,0,0-1.69-1.68H82.26v-1.48Zm0,0"/><path class="cls-1" d="M136.38,163a6.42,6.42,0,1,1,0,12.83h-2.9v-4.44h2.9a2,2,0,1,0,0-3.95h-2.9V163Zm0,0"/><path class="cls-1" d="M122.89,163a6.42,6.42,0,1,1,0,12.83H120v-4.44h2.89a2,2,0,1,0,0-3.95H120V163Zm0,0"/><path class="cls-1" d="M109.41,163a6.42,6.42,0,1,1,0,12.83h-2.9v-4.44h2.9a2,2,0,1,0,0-3.95h-2.9V163Zm0,0"/><text class="cls-12" transform="translate(11.3 260.42)">okupowani</text><text class="cls-13" transform="translate(50.58 227.77)">zostali</text><path class="cls-8" d="M150.64,0l29,0h16l0,16c0,7,0,14,0,21A29.09,29.09,0,0,1,150.64,0Z"/><text class="cls-14" transform="translate(161.82 31.65)">02</text></svg>